{"metadata": {"schema_version": "0.2", "title": "None", "source_filename": "651.mid", "source_format": "midi"}, "resolution": 12, "tempos": [{"time": 0, "qpm": 62.00005993339127}], "time_signatures": [{"time": 0, "numerator": 1, "denominator": 4}], "tracks": [{"program": 0, "is_drum": false, "name": "MELODY", "notes": [{"time": 198, "pitch": 73, "duration": 6, "velocity": 86}, {"time": 204, "pitch": 75, "duration": 11, "velocity": 87}, {"time": 216, "pitch": 82, "duration": 4, "velocity": 86}, {"time": 222, "pitch": 75, "duration": 2, "velocity": 93}, {"time": 225, "pitch": 73, "duration": 2, "velocity": 84}, {"time": 228, "pitch": 75, "duration": 2, "velocity": 89}, {"time": 231, "pitch": 73, "duration": 2, "velocity": 83}, {"time": 234, "pitch": 75, "duration": 4, "velocity": 91}, {"time": 240, "pitch": 73, "duration": 4, "velocity": 85}, {"time": 246, "pitch": 73, "duration": 5, "velocity": 84}, {"time": 252, "pitch": 70, "duration": 4, "velocity": 84}, {"time": 258, "pitch": 73, "duration": 4, "velocity": 84}, {"time": 264, "pitch": 70, "duration": 4, "velocity": 83}, {"time": 270, "pitch": 68, "duration": 2, "velocity": 82}, {"time": 273, "pitch": 70, "duration": 2, "velocity": 83}, {"time": 276, "pitch": 68, "duration": 2, "velocity": 82}, {"time": 279, "pitch": 70, "duration": 2, "velocity": 84}, {"time": 282, "pitch": 73, "duration": 5, "velocity": 82}, {"time": 288, "pitch": 70, "duration": 5, "velocity": 84}, {"time": 294, "pitch": 73, "duration": 6, "velocity": 84}, {"time": 300, "pitch": 75, "duration": 8, "velocity": 83}, {"time": 312, "pitch": 82, "duration": 5, "velocity": 83}, {"time": 318, "pitch": 75, "duration": 2, "velocity": 93}, {"time": 321, "pitch": 73, "duration": 2, "velocity": 82}, {"time": 324, "pitch": 75, "duration": 2, "velocity": 89}, {"time": 327, "pitch": 73, "duration": 2, "velocity": 84}, {"time": 330, "pitch": 75, "duration": 5, "velocity": 91}, {"time": 336, "pitch": 73, "duration": 5, "velocity": 84}, {"time": 342, "pitch": 73, "duration": 6, "velocity": 83}, {"time": 348, "pitch": 70, "duration": 4, "velocity": 83}, {"time": 354, "pitch": 73, "duration": 6, "velocity": 83}, {"time": 360, "pitch": 70, "duration": 4, "velocity": 84}, {"time": 366, "pitch": 68, "duration": 2, "velocity": 83}, {"time": 369, "pitch": 70, "duration": 2, "velocity": 84}, {"time": 372, "pitch": 68, "duration": 2, "velocity": 84}, {"time": 375, "pitch": 70, "duration": 2, "velocity": 86}, {"time": 378, "pitch": 75, "duration": 5, "velocity": 89}, {"time": 384, "pitch": 73, "duration": 6, "velocity": 83}, {"time": 390, "pitch": 78, "duration": 14, "velocity": 78}, {"time": 411, "pitch": 73, "duration": 2, "velocity": 80}, {"time": 414, "pitch": 75, "duration": 2, "velocity": 88}, {"time": 417, "pitch": 73, "duration": 2, "velocity": 82}, {"time": 420, "pitch": 75, "duration": 2, "velocity": 88}, {"time": 423, "pitch": 73, "duration": 2, "velocity": 83}, {"time": 426, "pitch": 75, "duration": 6, "velocity": 87}, {"time": 432, "pitch": 82, "duration": 6, "velocity": 77}, {"time": 438, "pitch": 78, "duration": 12, "velocity": 84}, {"time": 459, "pitch": 73, "duration": 2, "velocity": 82}, {"time": 462, "pitch": 75, "duration": 2, "velocity": 89}, {"time": 465, "pitch": 73, "duration": 3, "velocity": 83}, {"time": 468, "pitch": 75, "duration": 3, "velocity": 85}, {"time": 471, "pitch": 73, "duration": 4, "velocity": 79}, {"time": 474, "pitch": 75, "duration": 6, "velocity": 86}, {"time": 480, "pitch": 82, "duration": 6, "velocity": 85}, {"time": 486, "pitch": 78, "duration": 14, "velocity": 86}, {"time": 507, "pitch": 73, "duration": 2, "velocity": 83}, {"time": 510, "pitch": 75, "duration": 2, "velocity": 89}, {"time": 513, "pitch": 73, "duration": 2, "velocity": 80}, {"time": 516, "pitch": 75, "duration": 3, "velocity": 89}, {"time": 519, "pitch": 73, "duration": 2, "velocity": 82}, {"time": 522, "pitch": 75, "duration": 6, "velocity": 87}, {"time": 528, "pitch": 78, "duration": 6, "velocity": 84}, {"time": 534, "pitch": 75, "duration": 6, "velocity": 88}, {"time": 540, "pitch": 73, "duration": 4, "velocity": 83}, {"time": 546, "pitch": 75, "duration": 6, "velocity": 86}, {"time": 552, "pitch": 73, "duration": 4, "velocity": 83}, {"time": 558, "pitch": 70, "duration": 2, "velocity": 82}, {"time": 561, "pitch": 73, "duration": 2, "velocity": 79}, {"time": 564, "pitch": 73, "duration": 2, "velocity": 81}, {"time": 567, "pitch": 73, "duration": 2, "velocity": 83}, {"time": 570, "pitch": 78, "duration": 5, "velocity": 86}, {"time": 576, "pitch": 73, "duration": 4, "velocity": 83}, {"time": 582, "pitch": 85, "duration": 7, "velocity": 84}, {"time": 588, "pitch": 87, "duration": 3, "velocity": 82}, {"time": 591, "pitch": 85, "duration": 10, "velocity": 87}, {"time": 606, "pitch": 87, "duration": 4, "velocity": 83}, {"time": 612, "pitch": 85, "duration": 4, "velocity": 86}, {"time": 618, "pitch": 82, "duration": 10, "velocity": 86}, {"time": 630, "pitch": 82, "duration": 5, "velocity": 82}, {"time": 636, "pitch": 85, "duration": 4, "velocity": 89}, {"time": 642, "pitch": 80, "duration": 6, "velocity": 83}, {"time": 654, "pitch": 80, "duration": 3, "velocity": 83}, {"time": 657, "pitch": 78, "duration": 2, "velocity": 77}, {"time": 660, "pitch": 80, "duration": 4, "velocity": 84}, {"time": 666, "pitch": 85, "duration": 10, "velocity": 84}, {"time": 678, "pitch": 85, "duration": 5, "velocity": 84}, {"time": 684, "pitch": 87, "duration": 5, "velocity": 83}, {"time": 690, "pitch": 85, "duration": 10, "velocity": 84}, {"time": 702, "pitch": 87, "duration": 4, "velocity": 85}, {"time": 708, "pitch": 82, "duration": 3, "velocity": 83}, {"time": 711, "pitch": 85, "duration": 3, "velocity": 83}, {"time": 714, "pitch": 82, "duration": 10, "velocity": 84}, {"time": 726, "pitch": 82, "duration": 5, "velocity": 83}, {"time": 732, "pitch": 85, "duration": 5, "velocity": 93}, {"time": 738, "pitch": 80, "duration": 10, "velocity": 83}, {"time": 750, "pitch": 80, "duration": 3, "velocity": 82}, {"time": 753, "pitch": 78, "duration": 2, "velocity": 82}, {"time": 756, "pitch": 80, "duration": 2, "velocity": 83}, {"time": 759, "pitch": 80, "duration": 3, "velocity": 80}, {"time": 762, "pitch": 85, "duration": 9, "velocity": 85}, {"time": 774, "pitch": 85, "duration": 5, "velocity": 84}, {"time": 780, "pitch": 87, "duration": 5, "velocity": 83}, {"time": 786, "pitch": 85, "duration": 10, "velocity": 84}, {"time": 798, "pitch": 87, "duration": 4, "velocity": 85}, {"time": 804, "pitch": 85, "duration": 6, "velocity": 83}, {"time": 810, "pitch": 82, "duration": 10, "velocity": 84}, {"time": 822, "pitch": 82, "duration": 5, "velocity": 83}, {"time": 828, "pitch": 85, "duration": 5, "velocity": 93}, {"time": 834, "pitch": 80, "duration": 10, "velocity": 83}, {"time": 846, "pitch": 80, "duration": 3, "velocity": 82}, {"time": 849, "pitch": 78, "duration": 2, "velocity": 82}, {"time": 852, "pitch": 80, "duration": 2, "velocity": 83}, {"time": 855, "pitch": 80, "duration": 3, "velocity": 80}, {"time": 858, "pitch": 85, "duration": 9, "velocity": 85}, {"time": 870, "pitch": 85, "duration": 6, "velocity": 88}, {"time": 876, "pitch": 87, "duration": 4, "velocity": 86}, {"time": 879, "pitch": 85, "duration": 12, "velocity": 84}, {"time": 894, "pitch": 87, "duration": 5, "velocity": 84}, {"time": 900, "pitch": 85, "duration": 5, "velocity": 86}, {"time": 906, "pitch": 82, "duration": 10, "velocity": 83}, {"time": 918, "pitch": 82, "duration": 4, "velocity": 83}, {"time": 924, "pitch": 85, "duration": 4, "velocity": 89}, {"time": 930, "pitch": 80, "duration": 9, "velocity": 84}, {"time": 942, "pitch": 80, "duration": 3, "velocity": 80}, {"time": 945, "pitch": 78, "duration": 2, "velocity": 77}, {"time": 948, "pitch": 80, "duration": 6, "velocity": 85}, {"time": 954, "pitch": 85, "duration": 12, "velocity": 83}, {"time": 966, "pitch": 75, "duration": 32, "velocity": 86}, {"time": 1002, "pitch": 87, "duration": 6, "velocity": 83}, {"time": 1008, "pitch": 85, "duration": 7, "velocity": 84}, {"time": 1020, "pitch": 73, "duration": 25, "velocity": 82}, {"time": 1062, "pitch": 78, "duration": 10, "velocity": 83}, {"time": 1074, "pitch": 78, "duration": 10, "velocity": 83}, {"time": 1086, "pitch": 77, "duration": 5, "velocity": 85}, {"time": 1092, "pitch": 77, "duration": 4, "velocity": 85}, {"time": 1098, "pitch": 75, "duration": 2, "velocity": 88}, {"time": 1101, "pitch": 73, "duration": 2, "velocity": 84}, {"time": 1104, "pitch": 75, "duration": 2, "velocity": 84}, {"time": 1107, "pitch": 73, "duration": 2, "velocity": 83}, {"time": 1110, "pitch": 70, "duration": 10, "velocity": 82}, {"time": 1119, "pitch": 73, "duration": 25, "velocity": 75}, {"time": 1158, "pitch": 78, "duration": 9, "velocity": 84}, {"time": 1170, "pitch": 78, "duration": 10, "velocity": 83}, {"time": 1182, "pitch": 77, "duration": 5, "velocity": 84}, {"time": 1188, "pitch": 77, "duration": 5, "velocity": 83}, {"time": 1194, "pitch": 75, "duration": 2, "velocity": 84}, {"time": 1197, "pitch": 73, "duration": 2, "velocity": 74}, {"time": 1200, "pitch": 75, "duration": 2, "velocity": 86}, {"time": 1203, "pitch": 73, "duration": 2, "velocity": 83}, {"time": 1206, "pitch": 70, "duration": 7, "velocity": 83}, {"time": 1215, "pitch": 73, "duration": 29, "velocity": 85}, {"time": 1254, "pitch": 78, "duration": 3, "velocity": 79}, {"time": 1257, "pitch": 80, "duration": 4, "velocity": 77}, {"time": 1263, "pitch": 78, "duration": 2, "velocity": 84}, {"time": 1266, "pitch": 75, "duration": 5, "velocity": 84}, {"time": 1272, "pitch": 78, "duration": 4, "velocity": 83}, {"time": 1278, "pitch": 80, "duration": 12, "velocity": 81}, {"time": 1302, "pitch": 75, "duration": 3, "velocity": 88}, {"time": 1305, "pitch": 73, "duration": 4, "velocity": 83}, {"time": 1311, "pitch": 75, "duration": 3, "velocity": 86}, {"time": 1314, "pitch": 78, "duration": 4, "velocity": 82}, {"time": 1320, "pitch": 75, "duration": 6, "velocity": 85}, {"time": 1326, "pitch": 70, "duration": 34, "velocity": 83}, {"time": 1542, "pitch": 73, "duration": 6, "velocity": 86}, {"time": 1548, "pitch": 75, "duration": 11, "velocity": 87}, {"time": 1560, "pitch": 82, "duration": 4, "velocity": 86}, {"time": 1566, "pitch": 75, "duration": 2, "velocity": 93}, {"time": 1569, "pitch": 73, "duration": 2, "velocity": 84}, {"time": 1572, "pitch": 75, "duration": 2, "velocity": 89}, {"time": 1575, "pitch": 73, "duration": 2, "velocity": 83}, {"time": 1578, "pitch": 75, "duration": 4, "velocity": 91}, {"time": 1584, "pitch": 73, "duration": 4, "velocity": 85}, {"time": 1590, "pitch": 73, "duration": 5, "velocity": 84}, {"time": 1596, "pitch": 70, "duration": 4, "velocity": 84}, {"time": 1602, "pitch": 73, "duration": 4, "velocity": 84}, {"time": 1608, "pitch": 70, "duration": 4, "velocity": 83}, {"time": 1614, "pitch": 68, "duration": 2, "velocity": 82}, {"time": 1617, "pitch": 70, "duration": 2, "velocity": 83}, {"time": 1620, "pitch": 68, "duration": 2, "velocity": 82}, {"time": 1623, "pitch": 70, "duration": 2, "velocity": 84}, {"time": 1626, "pitch": 73, "duration": 5, "velocity": 82}, {"time": 1632, "pitch": 70, "duration": 5, "velocity": 84}, {"time": 1638, "pitch": 73, "duration": 6, "velocity": 84}, {"time": 1644, "pitch": 75, "duration": 8, "velocity": 83}, {"time": 1656, "pitch": 82, "duration": 5, "velocity": 83}, {"time": 1662, "pitch": 75, "duration": 2, "velocity": 93}, {"time": 1665, "pitch": 73, "duration": 2, "velocity": 82}, {"time": 1668, "pitch": 75, "duration": 2, "velocity": 89}, {"time": 1671, "pitch": 73, "duration": 2, "velocity": 84}, {"time": 1674, "pitch": 75, "duration": 5, "velocity": 91}, {"time": 1680, "pitch": 73, "duration": 5, "velocity": 84}, {"time": 1686, "pitch": 73, "duration": 6, "velocity": 83}, {"time": 1692, "pitch": 70, "duration": 4, "velocity": 83}, {"time": 1698, "pitch": 73, "duration": 6, "velocity": 83}, {"time": 1704, "pitch": 70, "duration": 4, "velocity": 84}, {"time": 1710, "pitch": 68, "duration": 2, "velocity": 83}, {"time": 1713, "pitch": 70, "duration": 2, "velocity": 84}, {"time": 1716, "pitch": 68, "duration": 2, "velocity": 84}, {"time": 1719, "pitch": 70, "duration": 2, "velocity": 86}, {"time": 1722, "pitch": 75, "duration": 5, "velocity": 89}, {"time": 1728, "pitch": 73, "duration": 6, "velocity": 83}, {"time": 1734, "pitch": 78, "duration": 14, "velocity": 78}, {"time": 1755, "pitch": 73, "duration": 2, "velocity": 80}, {"time": 1758, "pitch": 75, "duration": 2, "velocity": 88}, {"time": 1761, "pitch": 73, "duration": 2, "velocity": 82}, {"time": 1764, "pitch": 75, "duration": 2, "velocity": 88}, {"time": 1767, "pitch": 73, "duration": 2, "velocity": 83}, {"time": 1770, "pitch": 75, "duration": 6, "velocity": 87}, {"time": 1776, "pitch": 82, "duration": 6, "velocity": 77}, {"time": 1782, "pitch": 78, "duration": 12, "velocity": 84}, {"time": 1803, "pitch": 73, "duration": 2, "velocity": 82}, {"time": 1806, "pitch": 75, "duration": 2, "velocity": 89}, {"time": 1809, "pitch": 73, "duration": 3, "velocity": 83}, {"time": 1812, "pitch": 75, "duration": 3, "velocity": 85}, {"time": 1815, "pitch": 73, "duration": 4, "velocity": 79}, {"time": 1818, "pitch": 75, "duration": 6, "velocity": 86}, {"time": 1824, "pitch": 82, "duration": 6, "velocity": 85}, {"time": 1830, "pitch": 78, "duration": 14, "velocity": 86}, {"time": 1851, "pitch": 73, "duration": 2, "velocity": 83}, {"time": 1854, "pitch": 75, "duration": 2, "velocity": 89}, {"time": 1857, "pitch": 73, "duration": 2, "velocity": 80}, {"time": 1860, "pitch": 75, "duration": 3, "velocity": 89}, {"time": 1863, "pitch": 73, "duration": 2, "velocity": 82}, {"time": 1866, "pitch": 75, "duration": 6, "velocity": 87}, {"time": 1872, "pitch": 78, "duration": 6, "velocity": 84}, {"time": 1878, "pitch": 75, "duration": 6, "velocity": 88}, {"time": 1884, "pitch": 73, "duration": 4, "velocity": 83}, {"time": 1890, "pitch": 75, "duration": 6, "velocity": 86}, {"time": 1896, "pitch": 73, "duration": 4, "velocity": 83}, {"time": 1902, "pitch": 70, "duration": 2, "velocity": 82}, {"time": 1905, "pitch": 73, "duration": 2, "velocity": 79}, {"time": 1908, "pitch": 73, "duration": 2, "velocity": 81}, {"time": 1911, "pitch": 73, "duration": 2, "velocity": 83}, {"time": 1914, "pitch": 78, "duration": 5, "velocity": 86}, {"time": 1920, "pitch": 73, "duration": 4, "velocity": 83}, {"time": 1926, "pitch": 85, "duration": 7, "velocity": 84}, {"time": 1932, "pitch": 87, "duration": 3, "velocity": 82}, {"time": 1935, "pitch": 85, "duration": 10, "velocity": 87}, {"time": 1950, "pitch": 87, "duration": 4, "velocity": 83}, {"time": 1956, "pitch": 85, "duration": 4, "velocity": 86}, {"time": 1962, "pitch": 82, "duration": 10, "velocity": 86}, {"time": 1974, "pitch": 82, "duration": 5, "velocity": 82}, {"time": 1980, "pitch": 85, "duration": 4, "velocity": 89}, {"time": 1986, "pitch": 80, "duration": 6, "velocity": 83}, {"time": 1998, "pitch": 80, "duration": 3, "velocity": 83}, {"time": 2001, "pitch": 78, "duration": 2, "velocity": 77}, {"time": 2004, "pitch": 80, "duration": 4, "velocity": 84}, {"time": 2010, "pitch": 85, "duration": 10, "velocity": 84}, {"time": 2022, "pitch": 85, "duration": 5, "velocity": 84}, {"time": 2028, "pitch": 87, "duration": 5, "velocity": 83}, {"time": 2034, "pitch": 85, "duration": 10, "velocity": 84}, {"time": 2046, "pitch": 87, "duration": 4, "velocity": 85}, {"time": 2052, "pitch": 82, "duration": 3, "velocity": 83}, {"time": 2055, "pitch": 85, "duration": 3, "velocity": 83}, {"time": 2058, "pitch": 82, "duration": 10, "velocity": 84}, {"time": 2070, "pitch": 82, "duration": 5, "velocity": 83}, {"time": 2076, "pitch": 85, "duration": 5, "velocity": 93}, {"time": 2082, "pitch": 80, "duration": 10, "velocity": 83}, {"time": 2094, "pitch": 80, "duration": 3, "velocity": 82}, {"time": 2097, "pitch": 78, "duration": 2, "velocity": 82}, {"time": 2100, "pitch": 80, "duration": 2, "velocity": 83}, {"time": 2103, "pitch": 80, "duration": 3, "velocity": 80}, {"time": 2106, "pitch": 85, "duration": 9, "velocity": 85}, {"time": 2118, "pitch": 85, "duration": 5, "velocity": 84}, {"time": 2124, "pitch": 87, "duration": 5, "velocity": 83}, {"time": 2130, "pitch": 85, "duration": 10, "velocity": 84}, {"time": 2142, "pitch": 87, "duration": 4, "velocity": 85}, {"time": 2148, "pitch": 85, "duration": 6, "velocity": 83}, {"time": 2154, "pitch": 82, "duration": 10, "velocity": 84}, {"time": 2166, "pitch": 82, "duration": 5, "velocity": 83}, {"time": 2172, "pitch": 85, "duration": 5, "velocity": 93}, {"time": 2178, "pitch": 80, "duration": 10, "velocity": 83}, {"time": 2190, "pitch": 80, "duration": 3, "velocity": 82}, {"time": 2193, "pitch": 78, "duration": 2, "velocity": 82}, {"time": 2196, "pitch": 80, "duration": 2, "velocity": 83}, {"time": 2199, "pitch": 80, "duration": 3, "velocity": 80}, {"time": 2202, "pitch": 85, "duration": 9, "velocity": 85}, {"time": 2214, "pitch": 85, "duration": 6, "velocity": 88}, {"time": 2220, "pitch": 87, "duration": 4, "velocity": 86}, {"time": 2223, "pitch": 85, "duration": 12, "velocity": 84}, {"time": 2238, "pitch": 87, "duration": 5, "velocity": 84}, {"time": 2244, "pitch": 85, "duration": 5, "velocity": 86}, {"time": 2250, "pitch": 82, "duration": 10, "velocity": 83}, {"time": 2262, "pitch": 82, "duration": 4, "velocity": 83}, {"time": 2268, "pitch": 85, "duration": 4, "velocity": 89}, {"time": 2274, "pitch": 80, "duration": 9, "velocity": 84}, {"time": 2286, "pitch": 80, "duration": 3, "velocity": 80}, {"time": 2289, "pitch": 78, "duration": 2, "velocity": 77}, {"time": 2292, "pitch": 80, "duration": 6, "velocity": 85}, {"time": 2298, "pitch": 85, "duration": 12, "velocity": 83}, {"time": 2310, "pitch": 75, "duration": 32, "velocity": 86}, {"time": 2346, "pitch": 87, "duration": 6, "velocity": 83}, {"time": 2352, "pitch": 85, "duration": 7, "velocity": 84}, {"time": 2364, "pitch": 73, "duration": 25, "velocity": 82}, {"time": 2406, "pitch": 78, "duration": 10, "velocity": 83}, {"time": 2418, "pitch": 78, "duration": 10, "velocity": 83}, {"time": 2430, "pitch": 77, "duration": 5, "velocity": 85}, {"time": 2436, "pitch": 77, "duration": 4, "velocity": 85}, {"time": 2442, "pitch": 75, "duration": 2, "velocity": 88}, {"time": 2445, "pitch": 73, "duration": 2, "velocity": 84}, {"time": 2448, "pitch": 75, "duration": 2, "velocity": 84}, {"time": 2451, "pitch": 73, "duration": 2, "velocity": 83}, {"time": 2454, "pitch": 70, "duration": 10, "velocity": 82}, {"time": 2463, "pitch": 73, "duration": 25, "velocity": 75}, {"time": 2502, "pitch": 78, "duration": 9, "velocity": 84}, {"time": 2514, "pitch": 78, "duration": 10, "velocity": 83}, {"time": 2526, "pitch": 77, "duration": 5, "velocity": 84}, {"time": 2532, "pitch": 77, "duration": 5, "velocity": 83}, {"time": 2538, "pitch": 75, "duration": 2, "velocity": 84}, {"time": 2541, "pitch": 73, "duration": 2, "velocity": 74}, {"time": 2544, "pitch": 75, "duration": 2, "velocity": 86}, {"time": 2547, "pitch": 73, "duration": 2, "velocity": 83}, {"time": 2550, "pitch": 70, "duration": 7, "velocity": 83}, {"time": 2559, "pitch": 73, "duration": 29, "velocity": 85}, {"time": 2598, "pitch": 78, "duration": 3, "velocity": 79}, {"time": 2601, "pitch": 80, "duration": 4, "velocity": 77}, {"time": 2607, "pitch": 78, "duration": 2, "velocity": 84}, {"time": 2610, "pitch": 75, "duration": 5, "velocity": 84}, {"time": 2616, "pitch": 78, "duration": 4, "velocity": 83}, {"time": 2622, "pitch": 80, "duration": 12, "velocity": 81}, {"time": 2646, "pitch": 75, "duration": 3, "velocity": 88}, {"time": 2649, "pitch": 73, "duration": 4, "velocity": 83}, {"time": 2655, "pitch": 75, "duration": 3, "velocity": 86}, {"time": 2658, "pitch": 78, "duration": 4, "velocity": 82}, {"time": 2664, "pitch": 75, "duration": 6, "velocity": 85}, {"time": 2670, "pitch": 70, "duration": 12, "velocity": 83}, {"time": 2682, "pitch": 73, "duration": 22, "velocity": 83}]}, {"program": 0, "is_drum": false, "name": "BRIDGE", "notes": [{"time": 15, "pitch": 66, "duration": 3, "velocity": 83}, {"time": 18, "pitch": 61, "duration": 3, "velocity": 82}, {"time": 18, "pitch": 85, "duration": 6, "velocity": 85}, {"time": 21, "pitch": 63, "duration": 3, "velocity": 85}, {"time": 24, "pitch": 70, "duration": 2, "velocity": 82}, {"time": 24, "pitch": 87, "duration": 24, "velocity": 85}, {"time": 27, "pitch": 70, "duration": 2, "velocity": 82}, {"time": 30, "pitch": 70, "duration": 14, "velocity": 83}, {"time": 48, "pitch": 85, "duration": 6, "velocity": 82}, {"time": 54, "pitch": 82, "duration": 24, "velocity": 75}, {"time": 63, "pitch": 66, "duration": 2, "velocity": 83}, {"time": 66, "pitch": 61, "duration": 3, "velocity": 84}, {"time": 69, "pitch": 63, "duration": 2, "velocity": 82}, {"time": 72, "pitch": 68, "duration": 2, "velocity": 82}, {"time": 75, "pitch": 68, "duration": 2, "velocity": 80}, {"time": 78, "pitch": 68, "duration": 10, "velocity": 82}, {"time": 90, "pitch": 85, "duration": 12, "velocity": 84}, {"time": 102, "pitch": 80, "duration": 36, "velocity": 82}, {"time": 111, "pitch": 66, "duration": 3, "velocity": 83}, {"time": 114, "pitch": 61, "duration": 3, "velocity": 82}, {"time": 117, "pitch": 63, "duration": 3, "velocity": 85}, {"time": 120, "pitch": 70, "duration": 2, "velocity": 82}, {"time": 123, "pitch": 70, "duration": 2, "velocity": 82}, {"time": 126, "pitch": 70, "duration": 14, "velocity": 83}, {"time": 138, "pitch": 82, "duration": 12, "velocity": 78}, {"time": 150, "pitch": 75, "duration": 18, "velocity": 83}, {"time": 159, "pitch": 66, "duration": 2, "velocity": 83}, {"time": 162, "pitch": 61, "duration": 3, "velocity": 84}, {"time": 165, "pitch": 63, "duration": 2, "velocity": 82}, {"time": 168, "pitch": 78, "duration": 4, "velocity": 82}, {"time": 168, "pitch": 68, "duration": 2, "velocity": 82}, {"time": 171, "pitch": 68, "duration": 2, "velocity": 80}, {"time": 171, "pitch": 75, "duration": 2, "velocity": 83}, {"time": 173, "pitch": 78, "duration": 2, "velocity": 83}, {"time": 174, "pitch": 68, "duration": 10, "velocity": 82}, {"time": 175, "pitch": 73, "duration": 24, "velocity": 83}, {"time": 198, "pitch": 63, "duration": 6, "velocity": 82}, {"time": 204, "pitch": 70, "duration": 6, "velocity": 76}, {"time": 209, "pitch": 63, "duration": 28, "velocity": 76}, {"time": 246, "pitch": 66, "duration": 12, "velocity": 77}, {"time": 255, "pitch": 68, "duration": 4, "velocity": 81}, {"time": 258, "pitch": 70, "duration": 23, "velocity": 78}, {"time": 294, "pitch": 61, "duration": 9, "velocity": 77}, {"time": 302, "pitch": 63, "duration": 3, "velocity": 78}, {"time": 306, "pitch": 75, "duration": 24, "velocity": 75}, {"time": 342, "pitch": 66, "duration": 9, "velocity": 82}, {"time": 351, "pitch": 68, "duration": 4, "velocity": 75}, {"time": 354, "pitch": 70, "duration": 18, "velocity": 75}, {"time": 378, "pitch": 75, "duration": 6, "velocity": 84}, {"time": 384, "pitch": 73, "duration": 6, "velocity": 79}, {"time": 390, "pitch": 78, "duration": 20, "velocity": 77}, {"time": 399, "pitch": 61, "duration": 3, "velocity": 83}, {"time": 402, "pitch": 66, "duration": 11, "velocity": 79}, {"time": 444, "pitch": 66, "duration": 3, "velocity": 73}, {"time": 447, "pitch": 68, "duration": 3, "velocity": 75}, {"time": 450, "pitch": 70, "duration": 18, "velocity": 82}, {"time": 492, "pitch": 66, "duration": 31, "velocity": 73}, {"time": 498, "pitch": 70, "duration": 25, "velocity": 76}, {"time": 534, "pitch": 63, "duration": 4, "velocity": 70}, {"time": 534, "pitch": 68, "duration": 4, "velocity": 74}, {"time": 546, "pitch": 63, "duration": 4, "velocity": 70}, {"time": 546, "pitch": 68, "duration": 4, "velocity": 75}, {"time": 558, "pitch": 66, "duration": 4, "velocity": 73}, {"time": 558, "pitch": 70, "duration": 4, "velocity": 77}, {"time": 570, "pitch": 66, "duration": 7, "velocity": 71}, {"time": 570, "pitch": 70, "duration": 7, "velocity": 78}, {"time": 582, "pitch": 70, "duration": 4, "velocity": 78}, {"time": 585, "pitch": 66, "duration": 3, "velocity": 75}, {"time": 588, "pitch": 68, "duration": 4, "velocity": 76}, {"time": 588, "pitch": 80, "duration": 7, "velocity": 84}, {"time": 591, "pitch": 63, "duration": 3, "velocity": 75}, {"time": 594, "pitch": 66, "duration": 4, "velocity": 77}, {"time": 594, "pitch": 82, "duration": 28, "velocity": 82}, {"time": 597, "pitch": 61, "duration": 5, "velocity": 80}, {"time": 600, "pitch": 63, "duration": 3, "velocity": 75}, {"time": 603, "pitch": 68, "duration": 3, "velocity": 71}, {"time": 606, "pitch": 70, "duration": 5, "velocity": 72}, {"time": 609, "pitch": 66, "duration": 4, "velocity": 71}, {"time": 612, "pitch": 68, "duration": 3, "velocity": 71}, {"time": 615, "pitch": 63, "duration": 4, "velocity": 75}, {"time": 618, "pitch": 66, "duration": 3, "velocity": 73}, {"time": 621, "pitch": 61, "duration": 4, "velocity": 74}, {"time": 624, "pitch": 63, "duration": 2, "velocity": 77}, {"time": 627, "pitch": 73, "duration": 3, "velocity": 82}, {"time": 630, "pitch": 70, "duration": 3, "velocity": 71}, {"time": 633, "pitch": 68, "duration": 4, "velocity": 57}, {"time": 636, "pitch": 70, "duration": 3, "velocity": 77}, {"time": 639, "pitch": 66, "duration": 3, "velocity": 71}, {"time": 642, "pitch": 68, "duration": 3, "velocity": 73}, {"time": 645, "pitch": 63, "duration": 3, "velocity": 70}, {"time": 648, "pitch": 66, "duration": 3, "velocity": 71}, {"time": 651, "pitch": 61, "duration": 3, "velocity": 67}, {"time": 657, "pitch": 63, "duration": 4, "velocity": 70}, {"time": 660, "pitch": 66, "duration": 3, "velocity": 75}, {"time": 663, "pitch": 68, "duration": 4, "velocity": 74}, {"time": 666, "pitch": 70, "duration": 5, "velocity": 73}, {"time": 669, "pitch": 63, "duration": 3, "velocity": 70}, {"time": 672, "pitch": 66, "duration": 3, "velocity": 72}, {"time": 675, "pitch": 68, "duration": 2, "velocity": 72}, {"time": 678, "pitch": 70, "duration": 4, "velocity": 76}, {"time": 681, "pitch": 66, "duration": 4, "velocity": 74}, {"time": 684, "pitch": 68, "duration": 4, "velocity": 65}, {"time": 687, "pitch": 63, "duration": 3, "velocity": 73}, {"time": 690, "pitch": 66, "duration": 3, "velocity": 76}, {"time": 693, "pitch": 63, "duration": 4, "velocity": 78}, {"time": 696, "pitch": 61, "duration": 4, "velocity": 73}, {"time": 699, "pitch": 63, "duration": 2, "velocity": 82}, {"time": 702, "pitch": 70, "duration": 3, "velocity": 80}, {"time": 705, "pitch": 66, "duration": 3, "velocity": 71}, {"time": 708, "pitch": 68, "duration": 4, "velocity": 71}, {"time": 711, "pitch": 66, "duration": 4, "velocity": 75}, {"time": 714, "pitch": 68, "duration": 3, "velocity": 70}, {"time": 717, "pitch": 63, "duration": 2, "velocity": 64}, {"time": 720, "pitch": 66, "duration": 3, "velocity": 70}, {"time": 723, "pitch": 61, "duration": 3, "velocity": 71}, {"time": 726, "pitch": 70, "duration": 4, "velocity": 75}, {"time": 729, "pitch": 66, "duration": 4, "velocity": 70}, {"time": 732, "pitch": 68, "duration": 5, "velocity": 70}, {"time": 735, "pitch": 63, "duration": 3, "velocity": 71}, {"time": 738, "pitch": 66, "duration": 3, "velocity": 72}, {"time": 741, "pitch": 61, "duration": 4, "velocity": 78}, {"time": 744, "pitch": 63, "duration": 4, "velocity": 75}, {"time": 747, "pitch": 61, "duration": 2, "velocity": 74}, {"time": 750, "pitch": 70, "duration": 4, "velocity": 68}, {"time": 753, "pitch": 66, "duration": 4, "velocity": 74}, {"time": 756, "pitch": 63, "duration": 4, "velocity": 68}, {"time": 759, "pitch": 66, "duration": 4, "velocity": 70}, {"time": 762, "pitch": 68, "duration": 3, "velocity": 73}, {"time": 765, "pitch": 66, "duration": 4, "velocity": 76}, {"time": 768, "pitch": 63, "duration": 2, "velocity": 74}, {"time": 771, "pitch": 61, "duration": 3, "velocity": 80}, {"time": 777, "pitch": 66, "duration": 3, "velocity": 75}, {"time": 780, "pitch": 68, "duration": 4, "velocity": 76}, {"time": 783, "pitch": 63, "duration": 3, "velocity": 75}, {"time": 786, "pitch": 66, "duration": 4, "velocity": 77}, {"time": 789, "pitch": 61, "duration": 5, "velocity": 80}, {"time": 792, "pitch": 63, "duration": 3, "velocity": 75}, {"time": 795, "pitch": 68, "duration": 3, "velocity": 71}, {"time": 798, "pitch": 70, "duration": 5, "velocity": 72}, {"time": 801, "pitch": 66, "duration": 4, "velocity": 71}, {"time": 804, "pitch": 68, "duration": 3, "velocity": 71}, {"time": 807, "pitch": 63, "duration": 4, "velocity": 75}, {"time": 810, "pitch": 66, "duration": 3, "velocity": 73}, {"time": 813, "pitch": 61, "duration": 4, "velocity": 74}, {"time": 816, "pitch": 63, "duration": 2, "velocity": 77}, {"time": 819, "pitch": 73, "duration": 3, "velocity": 82}, {"time": 822, "pitch": 70, "duration": 3, "velocity": 71}, {"time": 825, "pitch": 68, "duration": 4, "velocity": 57}, {"time": 828, "pitch": 70, "duration": 3, "velocity": 77}, {"time": 831, "pitch": 66, "duration": 3, "velocity": 71}, {"time": 834, "pitch": 68, "duration": 3, "velocity": 73}, {"time": 837, "pitch": 63, "duration": 3, "velocity": 70}, {"time": 840, "pitch": 66, "duration": 3, "velocity": 71}, {"time": 843, "pitch": 61, "duration": 3, "velocity": 67}, {"time": 849, "pitch": 63, "duration": 4, "velocity": 70}, {"time": 852, "pitch": 66, "duration": 3, "velocity": 75}, {"time": 855, "pitch": 68, "duration": 4, "velocity": 74}, {"time": 858, "pitch": 70, "duration": 5, "velocity": 73}, {"time": 861, "pitch": 63, "duration": 3, "velocity": 70}, {"time": 864, "pitch": 66, "duration": 3, "velocity": 72}, {"time": 867, "pitch": 68, "duration": 2, "velocity": 72}, {"time": 870, "pitch": 70, "duration": 4, "velocity": 76}, {"time": 873, "pitch": 66, "duration": 4, "velocity": 74}, {"time": 876, "pitch": 68, "duration": 4, "velocity": 65}, {"time": 879, "pitch": 63, "duration": 3, "velocity": 73}, {"time": 882, "pitch": 66, "duration": 3, "velocity": 76}, {"time": 885, "pitch": 63, "duration": 4, "velocity": 78}, {"time": 888, "pitch": 61, "duration": 4, "velocity": 73}, {"time": 891, "pitch": 63, "duration": 2, "velocity": 82}, {"time": 894, "pitch": 70, "duration": 3, "velocity": 80}, {"time": 897, "pitch": 66, "duration": 3, "velocity": 71}, {"time": 900, "pitch": 68, "duration": 4, "velocity": 71}, {"time": 903, "pitch": 66, "duration": 4, "velocity": 75}, {"time": 906, "pitch": 68, "duration": 3, "velocity": 70}, {"time": 909, "pitch": 63, "duration": 2, "velocity": 64}, {"time": 912, "pitch": 66, "duration": 3, "velocity": 70}, {"time": 915, "pitch": 61, "duration": 3, "velocity": 71}, {"time": 918, "pitch": 70, "duration": 4, "velocity": 75}, {"time": 921, "pitch": 66, "duration": 4, "velocity": 70}, {"time": 924, "pitch": 68, "duration": 5, "velocity": 70}, {"time": 927, "pitch": 63, "duration": 3, "velocity": 71}, {"time": 930, "pitch": 66, "duration": 3, "velocity": 72}, {"time": 933, "pitch": 61, "duration": 4, "velocity": 78}, {"time": 936, "pitch": 63, "duration": 4, "velocity": 75}, {"time": 939, "pitch": 61, "duration": 2, "velocity": 74}, {"time": 942, "pitch": 70, "duration": 4, "velocity": 68}, {"time": 945, "pitch": 66, "duration": 4, "velocity": 74}, {"time": 948, "pitch": 63, "duration": 4, "velocity": 68}, {"time": 951, "pitch": 66, "duration": 4, "velocity": 70}, {"time": 954, "pitch": 68, "duration": 3, "velocity": 73}, {"time": 957, "pitch": 66, "duration": 4, "velocity": 76}, {"time": 960, "pitch": 63, "duration": 6, "velocity": 74}, {"time": 1131, "pitch": 68, "duration": 4, "velocity": 72}, {"time": 1134, "pitch": 70, "duration": 3, "velocity": 78}, {"time": 1137, "pitch": 73, "duration": 3, "velocity": 77}, {"time": 1140, "pitch": 70, "duration": 3, "velocity": 71}, {"time": 1142, "pitch": 73, "duration": 16, "velocity": 76}, {"time": 1228, "pitch": 87, "duration": 2, "velocity": 75}, {"time": 1232, "pitch": 87, "duration": 1, "velocity": 71}, {"time": 1232, "pitch": 87, "duration": 1, "velocity": 74}, {"time": 1234, "pitch": 87, "duration": 2, "velocity": 67}, {"time": 1238, "pitch": 87, "duration": 1, "velocity": 80}, {"time": 1332, "pitch": 75, "duration": 5, "velocity": 86}, {"time": 1338, "pitch": 75, "duration": 19, "velocity": 86}, {"time": 1356, "pitch": 78, "duration": 5, "velocity": 77}, {"time": 1362, "pitch": 78, "duration": 6, "velocity": 84}, {"time": 1368, "pitch": 75, "duration": 6, "velocity": 84}, {"time": 1374, "pitch": 75, "duration": 1, "velocity": 87}, {"time": 1404, "pitch": 75, "duration": 3, "velocity": 87}, {"time": 1407, "pitch": 78, "duration": 2, "velocity": 70}, {"time": 1410, "pitch": 78, "duration": 9, "velocity": 83}, {"time": 1419, "pitch": 75, "duration": 2, "velocity": 78}, {"time": 1422, "pitch": 75, "duration": 6, "velocity": 84}, {"time": 1428, "pitch": 73, "duration": 3, "velocity": 78}, {"time": 1431, "pitch": 75, "duration": 2, "velocity": 84}, {"time": 1434, "pitch": 75, "duration": 16, "velocity": 85}, {"time": 1452, "pitch": 75, "duration": 3, "velocity": 78}, {"time": 1455, "pitch": 78, "duration": 3, "velocity": 79}, {"time": 1458, "pitch": 78, "duration": 6, "velocity": 83}, {"time": 1464, "pitch": 80, "duration": 9, "velocity": 82}, {"time": 1473, "pitch": 77, "duration": 3, "velocity": 78}, {"time": 1476, "pitch": 78, "duration": 41, "velocity": 73}, {"time": 1542, "pitch": 63, "duration": 6, "velocity": 82}, {"time": 1548, "pitch": 70, "duration": 6, "velocity": 76}, {"time": 1553, "pitch": 63, "duration": 28, "velocity": 76}, {"time": 1590, "pitch": 66, "duration": 12, "velocity": 77}, {"time": 1599, "pitch": 68, "duration": 4, "velocity": 81}, {"time": 1602, "pitch": 70, "duration": 23, "velocity": 78}, {"time": 1638, "pitch": 61, "duration": 9, "velocity": 77}, {"time": 1646, "pitch": 63, "duration": 3, "velocity": 78}, {"time": 1650, "pitch": 75, "duration": 24, "velocity": 75}, {"time": 1686, "pitch": 66, "duration": 9, "velocity": 82}, {"time": 1695, "pitch": 68, "duration": 4, "velocity": 75}, {"time": 1698, "pitch": 70, "duration": 18, "velocity": 75}, {"time": 1722, "pitch": 75, "duration": 6, "velocity": 84}, {"time": 1728, "pitch": 73, "duration": 6, "velocity": 79}, {"time": 1734, "pitch": 78, "duration": 20, "velocity": 77}, {"time": 1743, "pitch": 61, "duration": 3, "velocity": 83}, {"time": 1746, "pitch": 66, "duration": 11, "velocity": 79}, {"time": 1788, "pitch": 66, "duration": 3, "velocity": 73}, {"time": 1791, "pitch": 68, "duration": 3, "velocity": 75}, {"time": 1794, "pitch": 70, "duration": 18, "velocity": 82}, {"time": 1836, "pitch": 66, "duration": 31, "velocity": 73}, {"time": 1842, "pitch": 70, "duration": 25, "velocity": 76}, {"time": 1878, "pitch": 63, "duration": 4, "velocity": 70}, {"time": 1878, "pitch": 68, "duration": 4, "velocity": 74}, {"time": 1890, "pitch": 63, "duration": 4, "velocity": 70}, {"time": 1890, "pitch": 68, "duration": 4, "velocity": 75}, {"time": 1902, "pitch": 66, "duration": 4, "velocity": 73}, {"time": 1902, "pitch": 70, "duration": 4, "velocity": 77}, {"time": 1914, "pitch": 66, "duration": 7, "velocity": 71}, {"time": 1914, "pitch": 70, "duration": 7, "velocity": 78}, {"time": 1926, "pitch": 70, "duration": 4, "velocity": 78}, {"time": 1929, "pitch": 66, "duration": 3, "velocity": 75}, {"time": 1932, "pitch": 68, "duration": 4, "velocity": 76}, {"time": 1932, "pitch": 80, "duration": 7, "velocity": 84}, {"time": 1935, "pitch": 63, "duration": 3, "velocity": 75}, {"time": 1938, "pitch": 66, "duration": 4, "velocity": 77}, {"time": 1938, "pitch": 82, "duration": 28, "velocity": 82}, {"time": 1941, "pitch": 61, "duration": 5, "velocity": 80}, {"time": 1944, "pitch": 63, "duration": 3, "velocity": 75}, {"time": 1947, "pitch": 68, "duration": 3, "velocity": 71}, {"time": 1950, "pitch": 70, "duration": 5, "velocity": 72}, {"time": 1953, "pitch": 66, "duration": 4, "velocity": 71}, {"time": 1956, "pitch": 68, "duration": 3, "velocity": 71}, {"time": 1959, "pitch": 63, "duration": 4, "velocity": 75}, {"time": 1962, "pitch": 66, "duration": 3, "velocity": 73}, {"time": 1965, "pitch": 61, "duration": 4, "velocity": 74}, {"time": 1968, "pitch": 63, "duration": 2, "velocity": 77}, {"time": 1971, "pitch": 73, "duration": 3, "velocity": 82}, {"time": 1974, "pitch": 70, "duration": 3, "velocity": 71}, {"time": 1977, "pitch": 68, "duration": 4, "velocity": 57}, {"time": 1980, "pitch": 70, "duration": 3, "velocity": 77}, {"time": 1983, "pitch": 66, "duration": 3, "velocity": 71}, {"time": 1986, "pitch": 68, "duration": 3, "velocity": 73}, {"time": 1989, "pitch": 63, "duration": 3, "velocity": 70}, {"time": 1992, "pitch": 66, "duration": 3, "velocity": 71}, {"time": 1995, "pitch": 61, "duration": 3, "velocity": 67}, {"time": 2001, "pitch": 63, "duration": 4, "velocity": 70}, {"time": 2004, "pitch": 66, "duration": 3, "velocity": 75}, {"time": 2007, "pitch": 68, "duration": 4, "velocity": 74}, {"time": 2010, "pitch": 70, "duration": 5, "velocity": 73}, {"time": 2013, "pitch": 63, "duration": 3, "velocity": 70}, {"time": 2016, "pitch": 66, "duration": 3, "velocity": 72}, {"time": 2019, "pitch": 68, "duration": 2, "velocity": 72}, {"time": 2022, "pitch": 70, "duration": 4, "velocity": 76}, {"time": 2025, "pitch": 66, "duration": 4, "velocity": 74}, {"time": 2028, "pitch": 68, "duration": 4, "velocity": 65}, {"time": 2031, "pitch": 63, "duration": 3, "velocity": 73}, {"time": 2034, "pitch": 66, "duration": 3, "velocity": 76}, {"time": 2037, "pitch": 63, "duration": 4, "velocity": 78}, {"time": 2040, "pitch": 61, "duration": 4, "velocity": 73}, {"time": 2043, "pitch": 63, "duration": 2, "velocity": 82}, {"time": 2046, "pitch": 70, "duration": 3, "velocity": 80}, {"time": 2049, "pitch": 66, "duration": 3, "velocity": 71}, {"time": 2052, "pitch": 68, "duration": 4, "velocity": 71}, {"time": 2055, "pitch": 66, "duration": 4, "velocity": 75}, {"time": 2058, "pitch": 68, "duration": 3, "velocity": 70}, {"time": 2061, "pitch": 63, "duration": 2, "velocity": 64}, {"time": 2064, "pitch": 66, "duration": 3, "velocity": 70}, {"time": 2067, "pitch": 61, "duration": 3, "velocity": 71}, {"time": 2070, "pitch": 70, "duration": 4, "velocity": 75}, {"time": 2073, "pitch": 66, "duration": 4, "velocity": 70}, {"time": 2076, "pitch": 68, "duration": 5, "velocity": 70}, {"time": 2079, "pitch": 63, "duration": 3, "velocity": 71}, {"time": 2082, "pitch": 66, "duration": 3, "velocity": 72}, {"time": 2085, "pitch": 61, "duration": 4, "velocity": 78}, {"time": 2088, "pitch": 63, "duration": 4, "velocity": 75}, {"time": 2091, "pitch": 61, "duration": 2, "velocity": 74}, {"time": 2094, "pitch": 70, "duration": 4, "velocity": 68}, {"time": 2097, "pitch": 66, "duration": 4, "velocity": 74}, {"time": 2100, "pitch": 63, "duration": 4, "velocity": 68}, {"time": 2103, "pitch": 66, "duration": 4, "velocity": 70}, {"time": 2106, "pitch": 68, "duration": 3, "velocity": 73}, {"time": 2109, "pitch": 66, "duration": 4, "velocity": 76}, {"time": 2112, "pitch": 63, "duration": 2, "velocity": 74}, {"time": 2115, "pitch": 61, "duration": 3, "velocity": 80}, {"time": 2121, "pitch": 66, "duration": 3, "velocity": 75}, {"time": 2124, "pitch": 68, "duration": 4, "velocity": 76}, {"time": 2127, "pitch": 63, "duration": 3, "velocity": 75}, {"time": 2130, "pitch": 66, "duration": 4, "velocity": 77}, {"time": 2133, "pitch": 61, "duration": 5, "velocity": 80}, {"time": 2136, "pitch": 63, "duration": 3, "velocity": 75}, {"time": 2139, "pitch": 68, "duration": 3, "velocity": 71}, {"time": 2142, "pitch": 70, "duration": 5, "velocity": 72}, {"time": 2145, "pitch": 66, "duration": 4, "velocity": 71}, {"time": 2148, "pitch": 68, "duration": 3, "velocity": 71}, {"time": 2151, "pitch": 63, "duration": 4, "velocity": 75}, {"time": 2154, "pitch": 66, "duration": 3, "velocity": 73}, {"time": 2157, "pitch": 61, "duration": 4, "velocity": 74}, {"time": 2160, "pitch": 63, "duration": 2, "velocity": 77}, {"time": 2163, "pitch": 73, "duration": 3, "velocity": 82}, {"time": 2166, "pitch": 70, "duration": 3, "velocity": 71}, {"time": 2169, "pitch": 68, "duration": 4, "velocity": 57}, {"time": 2172, "pitch": 70, "duration": 3, "velocity": 77}, {"time": 2175, "pitch": 66, "duration": 3, "velocity": 71}, {"time": 2178, "pitch": 68, "duration": 3, "velocity": 73}, {"time": 2181, "pitch": 63, "duration": 3, "velocity": 70}, {"time": 2184, "pitch": 66, "duration": 3, "velocity": 71}, {"time": 2187, "pitch": 61, "duration": 3, "velocity": 67}, {"time": 2193, "pitch": 63, "duration": 4, "velocity": 70}, {"time": 2196, "pitch": 66, "duration": 3, "velocity": 75}, {"time": 2199, "pitch": 68, "duration": 4, "velocity": 74}, {"time": 2202, "pitch": 70, "duration": 5, "velocity": 73}, {"time": 2205, "pitch": 63, "duration": 3, "velocity": 70}, {"time": 2208, "pitch": 66, "duration": 3, "velocity": 72}, {"time": 2211, "pitch": 68, "duration": 2, "velocity": 72}, {"time": 2214, "pitch": 70, "duration": 4, "velocity": 76}, {"time": 2217, "pitch": 66, "duration": 4, "velocity": 74}, {"time": 2220, "pitch": 68, "duration": 4, "velocity": 65}, {"time": 2223, "pitch": 63, "duration": 3, "velocity": 73}, {"time": 2226, "pitch": 66, "duration": 3, "velocity": 76}, {"time": 2229, "pitch": 63, "duration": 4, "velocity": 78}, {"time": 2232, "pitch": 61, "duration": 4, "velocity": 73}, {"time": 2235, "pitch": 63, "duration": 2, "velocity": 82}, {"time": 2238, "pitch": 70, "duration": 3, "velocity": 80}, {"time": 2241, "pitch": 66, "duration": 3, "velocity": 71}, {"time": 2244, "pitch": 68, "duration": 4, "velocity": 71}, {"time": 2247, "pitch": 66, "duration": 4, "velocity": 75}, {"time": 2250, "pitch": 68, "duration": 3, "velocity": 70}, {"time": 2253, "pitch": 63, "duration": 2, "velocity": 64}, {"time": 2256, "pitch": 66, "duration": 3, "velocity": 70}, {"time": 2259, "pitch": 61, "duration": 3, "velocity": 71}, {"time": 2262, "pitch": 70, "duration": 4, "velocity": 75}, {"time": 2265, "pitch": 66, "duration": 4, "velocity": 70}, {"time": 2268, "pitch": 68, "duration": 5, "velocity": 70}, {"time": 2271, "pitch": 63, "duration": 3, "velocity": 71}, {"time": 2274, "pitch": 66, "duration": 3, "velocity": 72}, {"time": 2277, "pitch": 61, "duration": 4, "velocity": 78}, {"time": 2280, "pitch": 63, "duration": 4, "velocity": 75}, {"time": 2283, "pitch": 61, "duration": 2, "velocity": 74}, {"time": 2286, "pitch": 70, "duration": 4, "velocity": 68}, {"time": 2289, "pitch": 66, "duration": 4, "velocity": 74}, {"time": 2292, "pitch": 63, "duration": 4, "velocity": 68}, {"time": 2295, "pitch": 66, "duration": 4, "velocity": 70}, {"time": 2298, "pitch": 68, "duration": 3, "velocity": 73}, {"time": 2301, "pitch": 66, "duration": 4, "velocity": 76}, {"time": 2304, "pitch": 63, "duration": 6, "velocity": 74}, {"time": 2475, "pitch": 68, "duration": 4, "velocity": 72}, {"time": 2478, "pitch": 70, "duration": 3, "velocity": 78}, {"time": 2481, "pitch": 73, "duration": 3, "velocity": 77}, {"time": 2484, "pitch": 70, "duration": 3, "velocity": 71}, {"time": 2486, "pitch": 73, "duration": 16, "velocity": 76}, {"time": 2676, "pitch": 75, "duration": 5, "velocity": 86}, {"time": 2682, "pitch": 75, "duration": 19, "velocity": 86}, {"time": 2700, "pitch": 78, "duration": 5, "velocity": 77}, {"time": 2706, "pitch": 78, "duration": 6, "velocity": 84}, {"time": 2712, "pitch": 75, "duration": 6, "velocity": 84}]}, {"program": 0, "is_drum": false, "name": "PIANO", "notes": [{"time": 30, "pitch": 39, "duration": 17, "velocity": 76}, {"time": 30, "pitch": 66, "duration": 8, "velocity": 76}, {"time": 33, "pitch": 46, "duration": 13, "velocity": 66}, {"time": 36, "pitch": 58, "duration": 13, "velocity": 69}, {"time": 39, "pitch": 63, "duration": 14, "velocity": 72}, {"time": 66, "pitch": 63, "duration": 4, "velocity": 74}, {"time": 66, "pitch": 70, "duration": 5, "velocity": 75}, {"time": 78, "pitch": 44, "duration": 42, "velocity": 82}, {"time": 81, "pitch": 51, "duration": 38, "velocity": 53}, {"time": 84, "pitch": 56, "duration": 13, "velocity": 76}, {"time": 87, "pitch": 63, "duration": 10, "velocity": 77}, {"time": 102, "pitch": 56, "duration": 17, "velocity": 68}, {"time": 102, "pitch": 68, "duration": 17, "velocity": 72}, {"time": 114, "pitch": 63, "duration": 5, "velocity": 73}, {"time": 126, "pitch": 39, "duration": 38, "velocity": 69}, {"time": 126, "pitch": 58, "duration": 6, "velocity": 70}, {"time": 126, "pitch": 63, "duration": 8, "velocity": 75}, {"time": 129, "pitch": 46, "duration": 35, "velocity": 72}, {"time": 132, "pitch": 58, "duration": 13, "velocity": 71}, {"time": 135, "pitch": 66, "duration": 10, "velocity": 78}, {"time": 150, "pitch": 58, "duration": 4, "velocity": 70}, {"time": 150, "pitch": 70, "duration": 7, "velocity": 78}, {"time": 156, "pitch": 58, "duration": 4, "velocity": 66}, {"time": 162, "pitch": 58, "duration": 3, "velocity": 72}, {"time": 162, "pitch": 66, "duration": 3, "velocity": 77}, {"time": 174, "pitch": 44, "duration": 25, "velocity": 80}, {"time": 177, "pitch": 51, "duration": 21, "velocity": 75}, {"time": 180, "pitch": 56, "duration": 12, "velocity": 77}, {"time": 183, "pitch": 63, "duration": 13, "velocity": 77}, {"time": 192, "pitch": 68, "duration": 5, "velocity": 69}, {"time": 198, "pitch": 42, "duration": 22, "velocity": 83}, {"time": 201, "pitch": 49, "duration": 19, "velocity": 69}, {"time": 204, "pitch": 54, "duration": 16, "velocity": 75}, {"time": 207, "pitch": 61, "duration": 11, "velocity": 76}, {"time": 222, "pitch": 42, "duration": 17, "velocity": 68}, {"time": 222, "pitch": 54, "duration": 10, "velocity": 70}, {"time": 222, "pitch": 58, "duration": 7, "velocity": 71}, {"time": 228, "pitch": 49, "duration": 11, "velocity": 51}, {"time": 234, "pitch": 58, "duration": 3, "velocity": 78}, {"time": 234, "pitch": 61, "duration": 4, "velocity": 77}, {"time": 234, "pitch": 66, "duration": 4, "velocity": 77}, {"time": 246, "pitch": 47, "duration": 19, "velocity": 83}, {"time": 249, "pitch": 54, "duration": 20, "velocity": 69}, {"time": 252, "pitch": 59, "duration": 14, "velocity": 76}, {"time": 255, "pitch": 63, "duration": 11, "velocity": 78}, {"time": 270, "pitch": 47, "duration": 15, "velocity": 72}, {"time": 270, "pitch": 59, "duration": 8, "velocity": 68}, {"time": 270, "pitch": 66, "duration": 10, "velocity": 71}, {"time": 276, "pitch": 54, "duration": 9, "velocity": 66}, {"time": 282, "pitch": 59, "duration": 7, "velocity": 81}, {"time": 282, "pitch": 63, "duration": 7, "velocity": 80}, {"time": 282, "pitch": 66, "duration": 7, "velocity": 76}, {"time": 288, "pitch": 47, "duration": 2, "velocity": 83}, {"time": 294, "pitch": 42, "duration": 22, "velocity": 83}, {"time": 297, "pitch": 49, "duration": 19, "velocity": 74}, {"time": 300, "pitch": 54, "duration": 15, "velocity": 76}, {"time": 303, "pitch": 61, "duration": 12, "velocity": 77}, {"time": 312, "pitch": 58, "duration": 3, "velocity": 63}, {"time": 318, "pitch": 42, "duration": 14, "velocity": 75}, {"time": 318, "pitch": 54, "duration": 7, "velocity": 66}, {"time": 318, "pitch": 58, "duration": 6, "velocity": 71}, {"time": 318, "pitch": 66, "duration": 7, "velocity": 69}, {"time": 324, "pitch": 49, "duration": 9, "velocity": 52}, {"time": 330, "pitch": 54, "duration": 4, "velocity": 78}, {"time": 330, "pitch": 58, "duration": 4, "velocity": 79}, {"time": 330, "pitch": 61, "duration": 6, "velocity": 80}, {"time": 336, "pitch": 42, "duration": 2, "velocity": 77}, {"time": 342, "pitch": 47, "duration": 18, "velocity": 82}, {"time": 342, "pitch": 59, "duration": 4, "velocity": 69}, {"time": 342, "pitch": 63, "duration": 7, "velocity": 76}, {"time": 345, "pitch": 54, "duration": 14, "velocity": 70}, {"time": 348, "pitch": 59, "duration": 11, "velocity": 75}, {"time": 351, "pitch": 63, "duration": 9, "velocity": 76}, {"time": 366, "pitch": 49, "duration": 15, "velocity": 84}, {"time": 369, "pitch": 56, "duration": 11, "velocity": 74}, {"time": 372, "pitch": 61, "duration": 9, "velocity": 69}, {"time": 375, "pitch": 65, "duration": 7, "velocity": 84}, {"time": 390, "pitch": 39, "duration": 32, "velocity": 86}, {"time": 393, "pitch": 58, "duration": 10, "velocity": 81}, {"time": 396, "pitch": 63, "duration": 4, "velocity": 77}, {"time": 399, "pitch": 66, "duration": 6, "velocity": 76}, {"time": 414, "pitch": 58, "duration": 3, "velocity": 76}, {"time": 414, "pitch": 70, "duration": 8, "velocity": 77}, {"time": 420, "pitch": 58, "duration": 2, "velocity": 51}, {"time": 426, "pitch": 58, "duration": 4, "velocity": 71}, {"time": 426, "pitch": 63, "duration": 3, "velocity": 72}, {"time": 426, "pitch": 66, "duration": 4, "velocity": 76}, {"time": 438, "pitch": 37, "duration": 36, "velocity": 82}, {"time": 441, "pitch": 56, "duration": 12, "velocity": 78}, {"time": 444, "pitch": 61, "duration": 11, "velocity": 73}, {"time": 447, "pitch": 68, "duration": 9, "velocity": 77}, {"time": 462, "pitch": 56, "duration": 7, "velocity": 75}, {"time": 462, "pitch": 65, "duration": 10, "velocity": 81}, {"time": 474, "pitch": 56, "duration": 3, "velocity": 81}, {"time": 474, "pitch": 61, "duration": 3, "velocity": 78}, {"time": 486, "pitch": 48, "duration": 40, "velocity": 83}, {"time": 489, "pitch": 54, "duration": 25, "velocity": 72}, {"time": 492, "pitch": 60, "duration": 13, "velocity": 80}, {"time": 495, "pitch": 66, "duration": 10, "velocity": 75}, {"time": 516, "pitch": 54, "duration": 10, "velocity": 66}, {"time": 522, "pitch": 60, "duration": 3, "velocity": 81}, {"time": 522, "pitch": 63, "duration": 6, "velocity": 83}, {"time": 534, "pitch": 44, "duration": 9, "velocity": 82}, {"time": 534, "pitch": 56, "duration": 6, "velocity": 74}, {"time": 534, "pitch": 59, "duration": 6, "velocity": 69}, {"time": 534, "pitch": 63, "duration": 6, "velocity": 80}, {"time": 546, "pitch": 44, "duration": 11, "velocity": 78}, {"time": 546, "pitch": 56, "duration": 8, "velocity": 75}, {"time": 546, "pitch": 59, "duration": 8, "velocity": 71}, {"time": 546, "pitch": 63, "duration": 8, "velocity": 80}, {"time": 558, "pitch": 46, "duration": 9, "velocity": 80}, {"time": 558, "pitch": 58, "duration": 9, "velocity": 72}, {"time": 558, "pitch": 61, "duration": 9, "velocity": 72}, {"time": 558, "pitch": 65, "duration": 9, "velocity": 82}, {"time": 570, "pitch": 46, "duration": 8, "velocity": 84}, {"time": 570, "pitch": 58, "duration": 4, "velocity": 78}, {"time": 570, "pitch": 61, "duration": 7, "velocity": 82}, {"time": 570, "pitch": 65, "duration": 7, "velocity": 83}, {"time": 576, "pitch": 58, "duration": 4, "velocity": 82}, {"time": 582, "pitch": 42, "duration": 22, "velocity": 83}, {"time": 582, "pitch": 54, "duration": 4, "velocity": 74}, {"time": 582, "pitch": 61, "duration": 6, "velocity": 78}, {"time": 585, "pitch": 49, "duration": 19, "velocity": 73}, {"time": 588, "pitch": 54, "duration": 10, "velocity": 78}, {"time": 591, "pitch": 58, "duration": 7, "velocity": 83}, {"time": 600, "pitch": 61, "duration": 31, "velocity": 76}, {"time": 603, "pitch": 54, "duration": 7, "velocity": 82}, {"time": 606, "pitch": 42, "duration": 22, "velocity": 81}, {"time": 609, "pitch": 49, "duration": 18, "velocity": 76}, {"time": 612, "pitch": 54, "duration": 10, "velocity": 76}, {"time": 615, "pitch": 66, "duration": 15, "velocity": 78}, {"time": 624, "pitch": 54, "duration": 9, "velocity": 77}, {"time": 630, "pitch": 42, "duration": 23, "velocity": 84}, {"time": 633, "pitch": 49, "duration": 19, "velocity": 73}, {"time": 636, "pitch": 54, "duration": 12, "velocity": 81}, {"time": 639, "pitch": 61, "duration": 17, "velocity": 77}, {"time": 648, "pitch": 58, "duration": 8, "velocity": 77}, {"time": 651, "pitch": 54, "duration": 5, "velocity": 74}, {"time": 654, "pitch": 42, "duration": 17, "velocity": 79}, {"time": 654, "pitch": 66, "duration": 20, "velocity": 79}, {"time": 657, "pitch": 49, "duration": 13, "velocity": 75}, {"time": 660, "pitch": 54, "duration": 10, "velocity": 80}, {"time": 663, "pitch": 61, "duration": 10, "velocity": 76}, {"time": 669, "pitch": 58, "duration": 4, "velocity": 77}, {"time": 672, "pitch": 54, "duration": 2, "velocity": 77}, {"time": 678, "pitch": 47, "duration": 22, "velocity": 86}, {"time": 678, "pitch": 63, "duration": 17, "velocity": 80}, {"time": 681, "pitch": 54, "duration": 21, "velocity": 71}, {"time": 684, "pitch": 59, "duration": 12, "velocity": 71}, {"time": 687, "pitch": 66, "duration": 17, "velocity": 79}, {"time": 702, "pitch": 47, "duration": 20, "velocity": 76}, {"time": 702, "pitch": 63, "duration": 10, "velocity": 78}, {"time": 705, "pitch": 54, "duration": 19, "velocity": 75}, {"time": 708, "pitch": 59, "duration": 7, "velocity": 82}, {"time": 711, "pitch": 66, "duration": 7, "velocity": 82}, {"time": 717, "pitch": 63, "duration": 6, "velocity": 82}, {"time": 720, "pitch": 59, "duration": 4, "velocity": 81}, {"time": 726, "pitch": 47, "duration": 23, "velocity": 75}, {"time": 726, "pitch": 59, "duration": 4, "velocity": 70}, {"time": 726, "pitch": 63, "duration": 14, "velocity": 77}, {"time": 729, "pitch": 54, "duration": 21, "velocity": 70}, {"time": 732, "pitch": 59, "duration": 9, "velocity": 72}, {"time": 735, "pitch": 66, "duration": 22, "velocity": 78}, {"time": 747, "pitch": 63, "duration": 10, "velocity": 77}, {"time": 750, "pitch": 47, "duration": 16, "velocity": 79}, {"time": 753, "pitch": 54, "duration": 13, "velocity": 78}, {"time": 756, "pitch": 59, "duration": 10, "velocity": 72}, {"time": 759, "pitch": 63, "duration": 7, "velocity": 79}, {"time": 765, "pitch": 66, "duration": 4, "velocity": 81}, {"time": 774, "pitch": 42, "duration": 22, "velocity": 82}, {"time": 774, "pitch": 58, "duration": 4, "velocity": 73}, {"time": 774, "pitch": 66, "duration": 10, "velocity": 78}, {"time": 777, "pitch": 49, "duration": 19, "velocity": 77}, {"time": 780, "pitch": 58, "duration": 5, "velocity": 71}, {"time": 783, "pitch": 61, "duration": 13, "velocity": 82}, {"time": 798, "pitch": 42, "duration": 20, "velocity": 81}, {"time": 798, "pitch": 58, "duration": 3, "velocity": 73}, {"time": 798, "pitch": 61, "duration": 7, "velocity": 76}, {"time": 798, "pitch": 66, "duration": 10, "velocity": 77}, {"time": 801, "pitch": 49, "duration": 17, "velocity": 72}, {"time": 804, "pitch": 58, "duration": 4, "velocity": 67}, {"time": 807, "pitch": 65, "duration": 5, "velocity": 84}, {"time": 813, "pitch": 61, "duration": 4, "velocity": 80}, {"time": 816, "pitch": 58, "duration": 6, "velocity": 67}, {"time": 822, "pitch": 47, "duration": 22, "velocity": 91}, {"time": 825, "pitch": 54, "duration": 20, "velocity": 76}, {"time": 828, "pitch": 59, "duration": 16, "velocity": 77}, {"time": 831, "pitch": 63, "duration": 11, "velocity": 75}, {"time": 846, "pitch": 47, "duration": 19, "velocity": 83}, {"time": 846, "pitch": 59, "duration": 4, "velocity": 72}, {"time": 846, "pitch": 66, "duration": 10, "velocity": 76}, {"time": 849, "pitch": 54, "duration": 16, "velocity": 77}, {"time": 852, "pitch": 59, "duration": 4, "velocity": 79}, {"time": 855, "pitch": 63, "duration": 11, "velocity": 77}, {"time": 864, "pitch": 59, "duration": 2, "velocity": 82}, {"time": 870, "pitch": 51, "duration": 22, "velocity": 89}, {"time": 873, "pitch": 58, "duration": 4, "velocity": 76}, {"time": 876, "pitch": 63, "duration": 4, "velocity": 77}, {"time": 879, "pitch": 66, "duration": 13, "velocity": 83}, {"time": 891, "pitch": 63, "duration": 2, "velocity": 75}, {"time": 894, "pitch": 49, "duration": 18, "velocity": 86}, {"time": 894, "pitch": 61, "duration": 4, "velocity": 82}, {"time": 897, "pitch": 56, "duration": 4, "velocity": 79}, {"time": 900, "pitch": 61, "duration": 4, "velocity": 78}, {"time": 903, "pitch": 65, "duration": 10, "velocity": 82}, {"time": 912, "pitch": 61, "duration": 3, "velocity": 79}, {"time": 918, "pitch": 47, "duration": 5, "velocity": 88}, {"time": 918, "pitch": 59, "duration": 4, "velocity": 86}, {"time": 921, "pitch": 54, "duration": 4, "velocity": 77}, {"time": 924, "pitch": 59, "duration": 2, "velocity": 75}, {"time": 930, "pitch": 46, "duration": 7, "velocity": 82}, {"time": 930, "pitch": 58, "duration": 6, "velocity": 71}, {"time": 930, "pitch": 61, "duration": 6, "velocity": 78}, {"time": 942, "pitch": 44, "duration": 10, "velocity": 82}, {"time": 942, "pitch": 56, "duration": 4, "velocity": 74}, {"time": 942, "pitch": 59, "duration": 6, "velocity": 70}, {"time": 942, "pitch": 63, "duration": 7, "velocity": 78}, {"time": 948, "pitch": 56, "duration": 3, "velocity": 67}, {"time": 954, "pitch": 49, "duration": 7, "velocity": 85}, {"time": 954, "pitch": 56, "duration": 7, "velocity": 76}, {"time": 954, "pitch": 61, "duration": 7, "velocity": 79}, {"time": 964, "pitch": 60, "duration": 10, "velocity": 67}, {"time": 965, "pitch": 48, "duration": 42, "velocity": 84}, {"time": 965, "pitch": 63, "duration": 41, "velocity": 72}, {"time": 971, "pitch": 54, "duration": 36, "velocity": 65}, {"time": 978, "pitch": 60, "duration": 28, "velocity": 64}, {"time": 1013, "pitch": 56, "duration": 6, "velocity": 68}, {"time": 1014, "pitch": 61, "duration": 16, "velocity": 70}, {"time": 1015, "pitch": 49, "duration": 47, "velocity": 76}, {"time": 1015, "pitch": 65, "duration": 9, "velocity": 73}, {"time": 1021, "pitch": 56, "duration": 9, "velocity": 67}, {"time": 1026, "pitch": 65, "duration": 11, "velocity": 73}, {"time": 1032, "pitch": 56, "duration": 3, "velocity": 70}, {"time": 1038, "pitch": 61, "duration": 23, "velocity": 63}, {"time": 1038, "pitch": 56, "duration": 22, "velocity": 59}, {"time": 1062, "pitch": 61, "duration": 5, "velocity": 73}, {"time": 1062, "pitch": 66, "duration": 9, "velocity": 73}, {"time": 1062, "pitch": 42, "duration": 43, "velocity": 79}, {"time": 1068, "pitch": 49, "duration": 36, "velocity": 68}, {"time": 1074, "pitch": 66, "duration": 6, "velocity": 73}, {"time": 1074, "pitch": 61, "duration": 5, "velocity": 74}, {"time": 1086, "pitch": 58, "duration": 3, "velocity": 73}, {"time": 1086, "pitch": 65, "duration": 7, "velocity": 78}, {"time": 1092, "pitch": 58, "duration": 2, "velocity": 66}, {"time": 1098, "pitch": 58, "duration": 2, "velocity": 77}, {"time": 1098, "pitch": 65, "duration": 3, "velocity": 83}, {"time": 1098, "pitch": 61, "duration": 2, "velocity": 82}, {"time": 1110, "pitch": 42, "duration": 45, "velocity": 80}, {"time": 1110, "pitch": 63, "duration": 8, "velocity": 74}, {"time": 1110, "pitch": 58, "duration": 7, "velocity": 69}, {"time": 1116, "pitch": 49, "duration": 39, "velocity": 57}, {"time": 1122, "pitch": 58, "duration": 3, "velocity": 76}, {"time": 1122, "pitch": 63, "duration": 7, "velocity": 78}, {"time": 1128, "pitch": 58, "duration": 1, "velocity": 53}, {"time": 1134, "pitch": 61, "duration": 3, "velocity": 71}, {"time": 1134, "pitch": 58, "duration": 2, "velocity": 68}, {"time": 1146, "pitch": 61, "duration": 6, "velocity": 81}, {"time": 1146, "pitch": 58, "duration": 3, "velocity": 77}, {"time": 1158, "pitch": 66, "duration": 8, "velocity": 75}, {"time": 1158, "pitch": 58, "duration": 8, "velocity": 70}, {"time": 1158, "pitch": 42, "duration": 45, "velocity": 82}, {"time": 1164, "pitch": 49, "duration": 38, "velocity": 68}, {"time": 1170, "pitch": 66, "duration": 7, "velocity": 80}, {"time": 1170, "pitch": 58, "duration": 2, "velocity": 79}, {"time": 1182, "pitch": 58, "duration": 3, "velocity": 74}, {"time": 1182, "pitch": 65, "duration": 5, "velocity": 78}, {"time": 1188, "pitch": 58, "duration": 1, "velocity": 51}, {"time": 1194, "pitch": 58, "duration": 2, "velocity": 78}, {"time": 1194, "pitch": 65, "duration": 3, "velocity": 83}, {"time": 1206, "pitch": 42, "duration": 40, "velocity": 80}, {"time": 1206, "pitch": 58, "duration": 8, "velocity": 69}, {"time": 1206, "pitch": 63, "duration": 8, "velocity": 76}, {"time": 1212, "pitch": 49, "duration": 34, "velocity": 67}, {"time": 1218, "pitch": 58, "duration": 2, "velocity": 76}, {"time": 1218, "pitch": 63, "duration": 7, "velocity": 75}, {"time": 1224, "pitch": 58, "duration": 3, "velocity": 42}, {"time": 1230, "pitch": 61, "duration": 9, "velocity": 76}, {"time": 1230, "pitch": 58, "duration": 9, "velocity": 75}, {"time": 1242, "pitch": 61, "duration": 2, "velocity": 83}, {"time": 1242, "pitch": 58, "duration": 3, "velocity": 82}, {"time": 1254, "pitch": 56, "duration": 8, "velocity": 76}, {"time": 1254, "pitch": 59, "duration": 8, "velocity": 67}, {"time": 1254, "pitch": 63, "duration": 8, "velocity": 76}, {"time": 1254, "pitch": 44, "duration": 46, "velocity": 81}, {"time": 1260, "pitch": 51, "duration": 40, "velocity": 68}, {"time": 1266, "pitch": 59, "duration": 4, "velocity": 73}, {"time": 1266, "pitch": 63, "duration": 3, "velocity": 76}, {"time": 1278, "pitch": 59, "duration": 3, "velocity": 67}, {"time": 1278, "pitch": 63, "duration": 3, "velocity": 60}, {"time": 1278, "pitch": 56, "duration": 2, "velocity": 53}, {"time": 1290, "pitch": 59, "duration": 7, "velocity": 76}, {"time": 1290, "pitch": 63, "duration": 8, "velocity": 82}, {"time": 1290, "pitch": 56, "duration": 3, "velocity": 76}, {"time": 1299, "pitch": 56, "duration": 11, "velocity": 71}, {"time": 1302, "pitch": 44, "duration": 17, "velocity": 82}, {"time": 1302, "pitch": 59, "duration": 11, "velocity": 68}, {"time": 1302, "pitch": 63, "duration": 9, "velocity": 76}, {"time": 1308, "pitch": 51, "duration": 11, "velocity": 66}, {"time": 1323, "pitch": 59, "duration": 10, "velocity": 65}, {"time": 1326, "pitch": 47, "duration": 16, "velocity": 80}, {"time": 1326, "pitch": 63, "duration": 9, "velocity": 78}, {"time": 1326, "pitch": 66, "duration": 8, "velocity": 65}, {"time": 1332, "pitch": 54, "duration": 10, "velocity": 71}, {"time": 1338, "pitch": 59, "duration": 10, "velocity": 74}, {"time": 1338, "pitch": 63, "duration": 10, "velocity": 82}, {"time": 1338, "pitch": 66, "duration": 10, "velocity": 82}, {"time": 1350, "pitch": 59, "duration": 9, "velocity": 71}, {"time": 1350, "pitch": 63, "duration": 9, "velocity": 82}, {"time": 1350, "pitch": 66, "duration": 8, "velocity": 78}, {"time": 1362, "pitch": 59, "duration": 2, "velocity": 74}, {"time": 1362, "pitch": 63, "duration": 4, "velocity": 82}, {"time": 1362, "pitch": 66, "duration": 6, "velocity": 79}, {"time": 1365, "pitch": 59, "duration": 3, "velocity": 77}, {"time": 1368, "pitch": 63, "duration": 1, "velocity": 74}, {"time": 1374, "pitch": 39, "duration": 36, "velocity": 88}, {"time": 1374, "pitch": 58, "duration": 9, "velocity": 72}, {"time": 1374, "pitch": 63, "duration": 9, "velocity": 80}, {"time": 1380, "pitch": 46, "duration": 31, "velocity": 64}, {"time": 1386, "pitch": 58, "duration": 3, "velocity": 74}, {"time": 1386, "pitch": 63, "duration": 5, "velocity": 82}, {"time": 1386, "pitch": 66, "duration": 6, "velocity": 77}, {"time": 1398, "pitch": 58, "duration": 3, "velocity": 73}, {"time": 1398, "pitch": 66, "duration": 9, "velocity": 75}, {"time": 1404, "pitch": 58, "duration": 3, "velocity": 46}, {"time": 1410, "pitch": 58, "duration": 2, "velocity": 78}, {"time": 1410, "pitch": 63, "duration": 4, "velocity": 82}, {"time": 1413, "pitch": 58, "duration": 6, "velocity": 70}, {"time": 1416, "pitch": 63, "duration": 4, "velocity": 77}, {"time": 1419, "pitch": 66, "duration": 2, "velocity": 73}, {"time": 1422, "pitch": 47, "duration": 22, "velocity": 83}, {"time": 1425, "pitch": 54, "duration": 19, "velocity": 78}, {"time": 1428, "pitch": 59, "duration": 13, "velocity": 74}, {"time": 1431, "pitch": 63, "duration": 11, "velocity": 78}, {"time": 1440, "pitch": 66, "duration": 14, "velocity": 80}, {"time": 1443, "pitch": 59, "duration": 8, "velocity": 73}, {"time": 1446, "pitch": 47, "duration": 23, "velocity": 85}, {"time": 1449, "pitch": 54, "duration": 20, "velocity": 72}, {"time": 1452, "pitch": 59, "duration": 11, "velocity": 73}, {"time": 1455, "pitch": 63, "duration": 7, "velocity": 79}, {"time": 1464, "pitch": 59, "duration": 2, "velocity": 81}, {"time": 1464, "pitch": 63, "duration": 4, "velocity": 78}, {"time": 1464, "pitch": 66, "duration": 10, "velocity": 77}, {"time": 1467, "pitch": 59, "duration": 3, "velocity": 72}, {"time": 1470, "pitch": 47, "duration": 9, "velocity": 83}, {"time": 1470, "pitch": 59, "duration": 9, "velocity": 76}, {"time": 1470, "pitch": 63, "duration": 10, "velocity": 71}, {"time": 1479, "pitch": 46, "duration": 5, "velocity": 80}, {"time": 1479, "pitch": 58, "duration": 5, "velocity": 82}, {"time": 1485, "pitch": 42, "duration": 2, "velocity": 81}, {"time": 1485, "pitch": 54, "duration": 4, "velocity": 75}, {"time": 1488, "pitch": 44, "duration": 28, "velocity": 84}, {"time": 1488, "pitch": 56, "duration": 25, "velocity": 78}, {"time": 1497, "pitch": 51, "duration": 19, "velocity": 73}, {"time": 1500, "pitch": 59, "duration": 14, "velocity": 71}, {"time": 1512, "pitch": 63, "duration": 5, "velocity": 76}, {"time": 1515, "pitch": 56, "duration": 2, "velocity": 70}, {"time": 1518, "pitch": 44, "duration": 22, "velocity": 79}, {"time": 1518, "pitch": 56, "duration": 4, "velocity": 75}, {"time": 1518, "pitch": 63, "duration": 7, "velocity": 78}, {"time": 1521, "pitch": 51, "duration": 8, "velocity": 74}, {"time": 1524, "pitch": 56, "duration": 1, "velocity": 70}, {"time": 1527, "pitch": 56, "duration": 5, "velocity": 81}, {"time": 1527, "pitch": 59, "duration": 5, "velocity": 83}, {"time": 1527, "pitch": 63, "duration": 6, "velocity": 85}, {"time": 1527, "pitch": 68, "duration": 5, "velocity": 77}, {"time": 1530, "pitch": 51, "duration": 10, "velocity": 75}, {"time": 1533, "pitch": 56, "duration": 4, "velocity": 83}, {"time": 1536, "pitch": 59, "duration": 5, "velocity": 70}, {"time": 1539, "pitch": 56, "duration": 2, "velocity": 72}, {"time": 1542, "pitch": 42, "duration": 22, "velocity": 83}, {"time": 1545, "pitch": 49, "duration": 19, "velocity": 69}, {"time": 1548, "pitch": 54, "duration": 16, "velocity": 75}, {"time": 1551, "pitch": 61, "duration": 11, "velocity": 76}, {"time": 1566, "pitch": 42, "duration": 17, "velocity": 68}, {"time": 1566, "pitch": 54, "duration": 10, "velocity": 70}, {"time": 1566, "pitch": 58, "duration": 7, "velocity": 71}, {"time": 1572, "pitch": 49, "duration": 11, "velocity": 51}, {"time": 1578, "pitch": 58, "duration": 3, "velocity": 78}, {"time": 1578, "pitch": 61, "duration": 4, "velocity": 77}, {"time": 1578, "pitch": 66, "duration": 4, "velocity": 77}, {"time": 1590, "pitch": 47, "duration": 19, "velocity": 83}, {"time": 1593, "pitch": 54, "duration": 20, "velocity": 69}, {"time": 1596, "pitch": 59, "duration": 14, "velocity": 76}, {"time": 1599, "pitch": 63, "duration": 11, "velocity": 78}, {"time": 1614, "pitch": 47, "duration": 15, "velocity": 72}, {"time": 1614, "pitch": 59, "duration": 8, "velocity": 68}, {"time": 1614, "pitch": 66, "duration": 10, "velocity": 71}, {"time": 1620, "pitch": 54, "duration": 9, "velocity": 66}, {"time": 1626, "pitch": 59, "duration": 7, "velocity": 81}, {"time": 1626, "pitch": 63, "duration": 7, "velocity": 80}, {"time": 1626, "pitch": 66, "duration": 7, "velocity": 76}, {"time": 1632, "pitch": 47, "duration": 2, "velocity": 83}, {"time": 1638, "pitch": 42, "duration": 22, "velocity": 83}, {"time": 1641, "pitch": 49, "duration": 19, "velocity": 74}, {"time": 1644, "pitch": 54, "duration": 15, "velocity": 76}, {"time": 1647, "pitch": 61, "duration": 12, "velocity": 77}, {"time": 1656, "pitch": 58, "duration": 3, "velocity": 63}, {"time": 1662, "pitch": 42, "duration": 14, "velocity": 75}, {"time": 1662, "pitch": 54, "duration": 7, "velocity": 66}, {"time": 1662, "pitch": 58, "duration": 6, "velocity": 71}, {"time": 1662, "pitch": 66, "duration": 7, "velocity": 69}, {"time": 1668, "pitch": 49, "duration": 9, "velocity": 52}, {"time": 1674, "pitch": 54, "duration": 4, "velocity": 78}, {"time": 1674, "pitch": 58, "duration": 4, "velocity": 79}, {"time": 1674, "pitch": 61, "duration": 6, "velocity": 80}, {"time": 1680, "pitch": 42, "duration": 2, "velocity": 77}, {"time": 1686, "pitch": 47, "duration": 18, "velocity": 82}, {"time": 1686, "pitch": 59, "duration": 4, "velocity": 69}, {"time": 1686, "pitch": 63, "duration": 7, "velocity": 76}, {"time": 1689, "pitch": 54, "duration": 14, "velocity": 70}, {"time": 1692, "pitch": 59, "duration": 11, "velocity": 75}, {"time": 1695, "pitch": 63, "duration": 9, "velocity": 76}, {"time": 1710, "pitch": 49, "duration": 15, "velocity": 84}, {"time": 1713, "pitch": 56, "duration": 11, "velocity": 74}, {"time": 1716, "pitch": 61, "duration": 9, "velocity": 69}, {"time": 1719, "pitch": 65, "duration": 7, "velocity": 84}, {"time": 1734, "pitch": 39, "duration": 32, "velocity": 86}, {"time": 1737, "pitch": 58, "duration": 10, "velocity": 81}, {"time": 1740, "pitch": 63, "duration": 4, "velocity": 77}, {"time": 1743, "pitch": 66, "duration": 6, "velocity": 76}, {"time": 1758, "pitch": 58, "duration": 3, "velocity": 76}, {"time": 1758, "pitch": 70, "duration": 8, "velocity": 77}, {"time": 1764, "pitch": 58, "duration": 2, "velocity": 51}, {"time": 1770, "pitch": 58, "duration": 4, "velocity": 71}, {"time": 1770, "pitch": 63, "duration": 3, "velocity": 72}, {"time": 1770, "pitch": 66, "duration": 4, "velocity": 76}, {"time": 1782, "pitch": 37, "duration": 36, "velocity": 82}, {"time": 1785, "pitch": 56, "duration": 12, "velocity": 78}, {"time": 1788, "pitch": 61, "duration": 11, "velocity": 73}, {"time": 1791, "pitch": 68, "duration": 9, "velocity": 77}, {"time": 1806, "pitch": 56, "duration": 7, "velocity": 75}, {"time": 1806, "pitch": 65, "duration": 10, "velocity": 81}, {"time": 1818, "pitch": 56, "duration": 3, "velocity": 81}, {"time": 1818, "pitch": 61, "duration": 3, "velocity": 78}, {"time": 1830, "pitch": 48, "duration": 40, "velocity": 83}, {"time": 1833, "pitch": 54, "duration": 25, "velocity": 72}, {"time": 1836, "pitch": 60, "duration": 13, "velocity": 80}, {"time": 1839, "pitch": 66, "duration": 10, "velocity": 75}, {"time": 1860, "pitch": 54, "duration": 10, "velocity": 66}, {"time": 1866, "pitch": 60, "duration": 3, "velocity": 81}, {"time": 1866, "pitch": 63, "duration": 6, "velocity": 83}, {"time": 1878, "pitch": 44, "duration": 9, "velocity": 82}, {"time": 1878, "pitch": 56, "duration": 6, "velocity": 74}, {"time": 1878, "pitch": 59, "duration": 6, "velocity": 69}, {"time": 1878, "pitch": 63, "duration": 6, "velocity": 80}, {"time": 1890, "pitch": 44, "duration": 11, "velocity": 78}, {"time": 1890, "pitch": 56, "duration": 8, "velocity": 75}, {"time": 1890, "pitch": 59, "duration": 8, "velocity": 71}, {"time": 1890, "pitch": 63, "duration": 8, "velocity": 80}, {"time": 1902, "pitch": 46, "duration": 9, "velocity": 80}, {"time": 1902, "pitch": 58, "duration": 9, "velocity": 72}, {"time": 1902, "pitch": 61, "duration": 9, "velocity": 72}, {"time": 1902, "pitch": 65, "duration": 9, "velocity": 82}, {"time": 1914, "pitch": 46, "duration": 8, "velocity": 84}, {"time": 1914, "pitch": 58, "duration": 4, "velocity": 78}, {"time": 1914, "pitch": 61, "duration": 7, "velocity": 82}, {"time": 1914, "pitch": 65, "duration": 7, "velocity": 83}, {"time": 1920, "pitch": 58, "duration": 4, "velocity": 82}, {"time": 1926, "pitch": 42, "duration": 22, "velocity": 83}, {"time": 1926, "pitch": 54, "duration": 4, "velocity": 74}, {"time": 1926, "pitch": 61, "duration": 6, "velocity": 78}, {"time": 1929, "pitch": 49, "duration": 19, "velocity": 73}, {"time": 1932, "pitch": 54, "duration": 10, "velocity": 78}, {"time": 1935, "pitch": 58, "duration": 7, "velocity": 83}, {"time": 1944, "pitch": 61, "duration": 31, "velocity": 76}, {"time": 1947, "pitch": 54, "duration": 7, "velocity": 82}, {"time": 1950, "pitch": 42, "duration": 22, "velocity": 81}, {"time": 1953, "pitch": 49, "duration": 18, "velocity": 76}, {"time": 1956, "pitch": 54, "duration": 10, "velocity": 76}, {"time": 1959, "pitch": 66, "duration": 15, "velocity": 78}, {"time": 1968, "pitch": 54, "duration": 9, "velocity": 77}, {"time": 1974, "pitch": 42, "duration": 23, "velocity": 84}, {"time": 1977, "pitch": 49, "duration": 19, "velocity": 73}, {"time": 1980, "pitch": 54, "duration": 12, "velocity": 81}, {"time": 1983, "pitch": 61, "duration": 17, "velocity": 77}, {"time": 1992, "pitch": 58, "duration": 8, "velocity": 77}, {"time": 1995, "pitch": 54, "duration": 5, "velocity": 74}, {"time": 1998, "pitch": 42, "duration": 17, "velocity": 79}, {"time": 1998, "pitch": 66, "duration": 20, "velocity": 79}, {"time": 2001, "pitch": 49, "duration": 13, "velocity": 75}, {"time": 2004, "pitch": 54, "duration": 10, "velocity": 80}, {"time": 2007, "pitch": 61, "duration": 10, "velocity": 76}, {"time": 2013, "pitch": 58, "duration": 4, "velocity": 77}, {"time": 2016, "pitch": 54, "duration": 2, "velocity": 77}, {"time": 2022, "pitch": 47, "duration": 22, "velocity": 86}, {"time": 2022, "pitch": 63, "duration": 17, "velocity": 80}, {"time": 2025, "pitch": 54, "duration": 21, "velocity": 71}, {"time": 2028, "pitch": 59, "duration": 12, "velocity": 71}, {"time": 2031, "pitch": 66, "duration": 17, "velocity": 79}, {"time": 2046, "pitch": 47, "duration": 20, "velocity": 76}, {"time": 2046, "pitch": 63, "duration": 10, "velocity": 78}, {"time": 2049, "pitch": 54, "duration": 19, "velocity": 75}, {"time": 2052, "pitch": 59, "duration": 7, "velocity": 82}, {"time": 2055, "pitch": 66, "duration": 7, "velocity": 82}, {"time": 2061, "pitch": 63, "duration": 6, "velocity": 82}, {"time": 2064, "pitch": 59, "duration": 4, "velocity": 81}, {"time": 2070, "pitch": 47, "duration": 23, "velocity": 75}, {"time": 2070, "pitch": 59, "duration": 4, "velocity": 70}, {"time": 2070, "pitch": 63, "duration": 14, "velocity": 77}, {"time": 2073, "pitch": 54, "duration": 21, "velocity": 70}, {"time": 2076, "pitch": 59, "duration": 9, "velocity": 72}, {"time": 2079, "pitch": 66, "duration": 22, "velocity": 78}, {"time": 2091, "pitch": 63, "duration": 10, "velocity": 77}, {"time": 2094, "pitch": 47, "duration": 16, "velocity": 79}, {"time": 2097, "pitch": 54, "duration": 13, "velocity": 78}, {"time": 2100, "pitch": 59, "duration": 10, "velocity": 72}, {"time": 2103, "pitch": 63, "duration": 7, "velocity": 79}, {"time": 2109, "pitch": 66, "duration": 4, "velocity": 81}, {"time": 2118, "pitch": 42, "duration": 22, "velocity": 82}, {"time": 2118, "pitch": 58, "duration": 4, "velocity": 73}, {"time": 2118, "pitch": 66, "duration": 10, "velocity": 78}, {"time": 2121, "pitch": 49, "duration": 19, "velocity": 77}, {"time": 2124, "pitch": 58, "duration": 5, "velocity": 71}, {"time": 2127, "pitch": 61, "duration": 13, "velocity": 82}, {"time": 2142, "pitch": 42, "duration": 20, "velocity": 81}, {"time": 2142, "pitch": 58, "duration": 3, "velocity": 73}, {"time": 2142, "pitch": 61, "duration": 7, "velocity": 76}, {"time": 2142, "pitch": 66, "duration": 10, "velocity": 77}, {"time": 2145, "pitch": 49, "duration": 17, "velocity": 72}, {"time": 2148, "pitch": 58, "duration": 4, "velocity": 67}, {"time": 2151, "pitch": 65, "duration": 5, "velocity": 84}, {"time": 2157, "pitch": 61, "duration": 4, "velocity": 80}, {"time": 2160, "pitch": 58, "duration": 6, "velocity": 67}, {"time": 2166, "pitch": 47, "duration": 22, "velocity": 91}, {"time": 2169, "pitch": 54, "duration": 20, "velocity": 76}, {"time": 2172, "pitch": 59, "duration": 16, "velocity": 77}, {"time": 2175, "pitch": 63, "duration": 11, "velocity": 75}, {"time": 2190, "pitch": 47, "duration": 19, "velocity": 83}, {"time": 2190, "pitch": 59, "duration": 4, "velocity": 72}, {"time": 2190, "pitch": 66, "duration": 10, "velocity": 76}, {"time": 2193, "pitch": 54, "duration": 16, "velocity": 77}, {"time": 2196, "pitch": 59, "duration": 4, "velocity": 79}, {"time": 2199, "pitch": 63, "duration": 11, "velocity": 77}, {"time": 2208, "pitch": 59, "duration": 2, "velocity": 82}, {"time": 2214, "pitch": 51, "duration": 22, "velocity": 89}, {"time": 2217, "pitch": 58, "duration": 4, "velocity": 76}, {"time": 2220, "pitch": 63, "duration": 4, "velocity": 77}, {"time": 2223, "pitch": 66, "duration": 13, "velocity": 83}, {"time": 2235, "pitch": 63, "duration": 2, "velocity": 75}, {"time": 2238, "pitch": 49, "duration": 18, "velocity": 86}, {"time": 2238, "pitch": 61, "duration": 4, "velocity": 82}, {"time": 2241, "pitch": 56, "duration": 4, "velocity": 79}, {"time": 2244, "pitch": 61, "duration": 4, "velocity": 78}, {"time": 2247, "pitch": 65, "duration": 10, "velocity": 82}, {"time": 2256, "pitch": 61, "duration": 3, "velocity": 79}, {"time": 2262, "pitch": 47, "duration": 5, "velocity": 88}, {"time": 2262, "pitch": 59, "duration": 4, "velocity": 86}, {"time": 2265, "pitch": 54, "duration": 4, "velocity": 77}, {"time": 2268, "pitch": 59, "duration": 2, "velocity": 75}, {"time": 2274, "pitch": 46, "duration": 7, "velocity": 82}, {"time": 2274, "pitch": 58, "duration": 6, "velocity": 71}, {"time": 2274, "pitch": 61, "duration": 6, "velocity": 78}, {"time": 2286, "pitch": 44, "duration": 10, "velocity": 82}, {"time": 2286, "pitch": 56, "duration": 4, "velocity": 74}, {"time": 2286, "pitch": 59, "duration": 6, "velocity": 70}, {"time": 2286, "pitch": 63, "duration": 7, "velocity": 78}, {"time": 2292, "pitch": 56, "duration": 3, "velocity": 67}, {"time": 2298, "pitch": 49, "duration": 7, "velocity": 85}, {"time": 2298, "pitch": 56, "duration": 7, "velocity": 76}, {"time": 2298, "pitch": 61, "duration": 7, "velocity": 79}, {"time": 2308, "pitch": 60, "duration": 10, "velocity": 67}, {"time": 2309, "pitch": 48, "duration": 42, "velocity": 84}, {"time": 2309, "pitch": 63, "duration": 41, "velocity": 72}, {"time": 2315, "pitch": 54, "duration": 36, "velocity": 65}, {"time": 2322, "pitch": 60, "duration": 28, "velocity": 64}, {"time": 2357, "pitch": 56, "duration": 6, "velocity": 68}, {"time": 2358, "pitch": 61, "duration": 16, "velocity": 70}, {"time": 2359, "pitch": 49, "duration": 47, "velocity": 76}, {"time": 2359, "pitch": 65, "duration": 9, "velocity": 73}, {"time": 2365, "pitch": 56, "duration": 9, "velocity": 67}, {"time": 2370, "pitch": 65, "duration": 11, "velocity": 73}, {"time": 2376, "pitch": 56, "duration": 3, "velocity": 70}, {"time": 2382, "pitch": 61, "duration": 23, "velocity": 63}, {"time": 2382, "pitch": 56, "duration": 22, "velocity": 59}, {"time": 2406, "pitch": 61, "duration": 5, "velocity": 73}, {"time": 2406, "pitch": 66, "duration": 9, "velocity": 73}, {"time": 2406, "pitch": 42, "duration": 43, "velocity": 79}, {"time": 2412, "pitch": 49, "duration": 36, "velocity": 68}, {"time": 2418, "pitch": 66, "duration": 6, "velocity": 73}, {"time": 2418, "pitch": 61, "duration": 5, "velocity": 74}, {"time": 2430, "pitch": 58, "duration": 3, "velocity": 73}, {"time": 2430, "pitch": 65, "duration": 7, "velocity": 78}, {"time": 2436, "pitch": 58, "duration": 2, "velocity": 66}, {"time": 2442, "pitch": 58, "duration": 2, "velocity": 77}, {"time": 2442, "pitch": 65, "duration": 3, "velocity": 83}, {"time": 2442, "pitch": 61, "duration": 2, "velocity": 82}, {"time": 2454, "pitch": 42, "duration": 45, "velocity": 80}, {"time": 2454, "pitch": 63, "duration": 8, "velocity": 74}, {"time": 2454, "pitch": 58, "duration": 7, "velocity": 69}, {"time": 2460, "pitch": 49, "duration": 39, "velocity": 57}, {"time": 2466, "pitch": 58, "duration": 3, "velocity": 76}, {"time": 2466, "pitch": 63, "duration": 7, "velocity": 78}, {"time": 2472, "pitch": 58, "duration": 1, "velocity": 53}, {"time": 2478, "pitch": 61, "duration": 3, "velocity": 71}, {"time": 2478, "pitch": 58, "duration": 2, "velocity": 68}, {"time": 2490, "pitch": 61, "duration": 6, "velocity": 81}, {"time": 2490, "pitch": 58, "duration": 3, "velocity": 77}, {"time": 2502, "pitch": 66, "duration": 8, "velocity": 75}, {"time": 2502, "pitch": 58, "duration": 8, "velocity": 70}, {"time": 2502, "pitch": 42, "duration": 45, "velocity": 82}, {"time": 2508, "pitch": 49, "duration": 38, "velocity": 68}, {"time": 2514, "pitch": 66, "duration": 7, "velocity": 80}, {"time": 2514, "pitch": 58, "duration": 2, "velocity": 79}, {"time": 2526, "pitch": 58, "duration": 3, "velocity": 74}, {"time": 2526, "pitch": 65, "duration": 5, "velocity": 78}, {"time": 2532, "pitch": 58, "duration": 1, "velocity": 51}, {"time": 2538, "pitch": 58, "duration": 2, "velocity": 78}, {"time": 2538, "pitch": 65, "duration": 3, "velocity": 83}, {"time": 2550, "pitch": 42, "duration": 40, "velocity": 80}, {"time": 2550, "pitch": 58, "duration": 8, "velocity": 69}, {"time": 2550, "pitch": 63, "duration": 8, "velocity": 76}, {"time": 2556, "pitch": 49, "duration": 34, "velocity": 67}, {"time": 2562, "pitch": 58, "duration": 2, "velocity": 76}, {"time": 2562, "pitch": 63, "duration": 7, "velocity": 75}, {"time": 2568, "pitch": 58, "duration": 3, "velocity": 42}, {"time": 2574, "pitch": 61, "duration": 9, "velocity": 76}, {"time": 2574, "pitch": 58, "duration": 9, "velocity": 75}, {"time": 2586, "pitch": 61, "duration": 2, "velocity": 83}, {"time": 2586, "pitch": 58, "duration": 3, "velocity": 82}, {"time": 2597, "pitch": 56, "duration": 47, "velocity": 78}, {"time": 2598, "pitch": 44, "duration": 45, "velocity": 83}, {"time": 2598, "pitch": 59, "duration": 46, "velocity": 71}, {"time": 2598, "pitch": 44, "duration": 45, "velocity": 81}, {"time": 2599, "pitch": 63, "duration": 45, "velocity": 73}, {"time": 2600, "pitch": 68, "duration": 44, "velocity": 76}, {"time": 2644, "pitch": 56, "duration": 10, "velocity": 73}, {"time": 2645, "pitch": 59, "duration": 14, "velocity": 64}, {"time": 2646, "pitch": 44, "duration": 17, "velocity": 81}, {"time": 2646, "pitch": 63, "duration": 13, "velocity": 71}, {"time": 2647, "pitch": 68, "duration": 12, "velocity": 74}, {"time": 2652, "pitch": 51, "duration": 10, "velocity": 65}, {"time": 2658, "pitch": 56, "duration": 5, "velocity": 78}, {"time": 2670, "pitch": 42, "duration": 53, "velocity": 83}, {"time": 2674, "pitch": 49, "duration": 48, "velocity": 68}, {"time": 2677, "pitch": 54, "duration": 20, "velocity": 69}, {"time": 2680, "pitch": 61, "duration": 17, "velocity": 72}, {"time": 2684, "pitch": 58, "duration": 13, "velocity": 62}, {"time": 2689, "pitch": 66, "duration": 8, "velocity": 70}, {"time": 2708, "pitch": 66, "duration": 14, "velocity": 30}, {"time": 2709, "pitch": 73, "duration": 13, "velocity": 71}], "annotations": [{"time": 31, "annotation": {"number": 64, "value": 127}, "group": "control_change"}, {"time": 31, "annotation": {"number": 64, "value": 0}, "group": "control_change"}, {"time": 32, "annotation": {"number": 64, "value": 127}, "group": "control_change"}, {"time": 78, "annotation": {"number": 64, "value": 0}, "group": "control_change"}, {"time": 81, "annotation": {"number": 64, "value": 127}, "group": "control_change"}, {"time": 128, "annotation": {"number": 64, "value": 0}, "group": "control_change"}, {"time": 131, "annotation": {"number": 64, "value": 127}, "group": "control_change"}, {"time": 174, "annotation": {"number": 64, "value": 0}, "group": "control_change"}, {"time": 178, "annotation": {"number": 64, "value": 127}, "group": "control_change"}, {"time": 207, "annotation": {"number": 64, "value": 127}, "group": "control_change"}, {"time": 208, "annotation": {"number": 64, "value": 0}, "group": "control_change"}, {"time": 208, "annotation": {"number": 64, "value": 127}, "group": "control_change"}, {"time": 246, "annotation": {"number": 64, "value": 0}, "group": "control_change"}, {"time": 249, "annotation": {"number": 64, "value": 127}, "group": "control_change"}, {"time": 273, "annotation": {"number": 64, "value": 0}, "group": "control_change"}, {"time": 275, "annotation": {"number": 64, "value": 127}, "group": "control_change"}, {"time": 294, "annotation": {"number": 64, "value": 0}, "group": "control_change"}, {"time": 296, "annotation": {"number": 64, "value": 127}, "group": "control_change"}, {"time": 342, "annotation": {"number": 64, "value": 0}, "group": "control_change"}, {"time": 346, "annotation": {"number": 64, "value": 127}, "group": "control_change"}, {"time": 367, "annotation": {"number": 64, "value": 0}, "group": "control_change"}, {"time": 369, "annotation": {"number": 64, "value": 127}, "group": "control_change"}, {"time": 390, "annotation": {"number": 64, "value": 0}, "group": "control_change"}, {"time": 391, "annotation": {"number": 64, "value": 127}, "group": "control_change"}, {"time": 437, "annotation": {"number": 64, "value": 0}, "group": "control_change"}, {"time": 440, "annotation": {"number": 64, "value": 127}, "group": "control_change"}, {"time": 486, "annotation": {"number": 64, "value": 0}, "group": "control_change"}, {"time": 489, "annotation": {"number": 64, "value": 127}, "group": "control_change"}, {"time": 534, "annotation": {"number": 64, "value": 0}, "group": "control_change"}, {"time": 576, "annotation": {"number": 64, "value": 127}, "group": "control_change"}, {"time": 576, "annotation": {"number": 64, "value": 0}, "group": "control_change"}, {"time": 581, "annotation": {"number": 64, "value": 0}, "group": "control_change"}, {"time": 585, "annotation": {"number": 64, "value": 127}, "group": "control_change"}, {"time": 605, "annotation": {"number": 64, "value": 0}, "group": "control_change"}, {"time": 609, "annotation": {"number": 64, "value": 127}, "group": "control_change"}, {"time": 629, "annotation": {"number": 64, "value": 0}, "group": "control_change"}, {"time": 633, "annotation": {"number": 64, "value": 127}, "group": "control_change"}, {"time": 654, "annotation": {"number": 64, "value": 0}, "group": "control_change"}, {"time": 659, "annotation": {"number": 64, "value": 127}, "group": "control_change"}, {"time": 678, "annotation": {"number": 64, "value": 0}, "group": "control_change"}, {"time": 683, "annotation": {"number": 64, "value": 127}, "group": "control_change"}, {"time": 724, "annotation": {"number": 64, "value": 0}, "group": "control_change"}, {"time": 731, "annotation": {"number": 64, "value": 127}, "group": "control_change"}, {"time": 775, "annotation": {"number": 64, "value": 0}, "group": "control_change"}, {"time": 778, "annotation": {"number": 64, "value": 127}, "group": "control_change"}, {"time": 797, "annotation": {"number": 64, "value": 0}, "group": "control_change"}, {"time": 800, "annotation": {"number": 64, "value": 127}, "group": "control_change"}, {"time": 822, "annotation": {"number": 64, "value": 0}, "group": "control_change"}, {"time": 825, "annotation": {"number": 64, "value": 127}, "group": "control_change"}, {"time": 847, "annotation": {"number": 64, "value": 0}, "group": "control_change"}, {"time": 850, "annotation": {"number": 64, "value": 127}, "group": "control_change"}, {"time": 871, "annotation": {"number": 64, "value": 0}, "group": "control_change"}, {"time": 872, "annotation": {"number": 64, "value": 127}, "group": "control_change"}, {"time": 894, "annotation": {"number": 64, "value": 0}, "group": "control_change"}, {"time": 896, "annotation": {"number": 64, "value": 127}, "group": "control_change"}, {"time": 918, "annotation": {"number": 64, "value": 0}, "group": "control_change"}, {"time": 920, "annotation": {"number": 64, "value": 127}, "group": "control_change"}, {"time": 930, "annotation": {"number": 64, "value": 0}, "group": "control_change"}, {"time": 931, "annotation": {"number": 64, "value": 127}, "group": "control_change"}, {"time": 941, "annotation": {"number": 64, "value": 0}, "group": "control_change"}, {"time": 943, "annotation": {"number": 64, "value": 127}, "group": "control_change"}, {"time": 953, "annotation": {"number": 64, "value": 0}, "group": "control_change"}, {"time": 955, "annotation": {"number": 64, "value": 127}, "group": "control_change"}, {"time": 965, "annotation": {"number": 64, "value": 0}, "group": "control_change"}, {"time": 974, "annotation": {"number": 64, "value": 127}, "group": "control_change"}, {"time": 1013, "annotation": {"number": 64, "value": 0}, "group": "control_change"}, {"time": 1021, "annotation": {"number": 64, "value": 127}, "group": "control_change"}, {"time": 1058, "annotation": {"number": 64, "value": 0}, "group": "control_change"}, {"time": 1065, "annotation": {"number": 64, "value": 127}, "group": "control_change"}, {"time": 1110, "annotation": {"number": 64, "value": 0}, "group": "control_change"}, {"time": 1113, "annotation": {"number": 64, "value": 127}, "group": "control_change"}, {"time": 1157, "annotation": {"number": 64, "value": 0}, "group": "control_change"}, {"time": 1164, "annotation": {"number": 64, "value": 127}, "group": "control_change"}, {"time": 1206, "annotation": {"number": 64, "value": 0}, "group": "control_change"}, {"time": 1212, "annotation": {"number": 64, "value": 127}, "group": "control_change"}, {"time": 1253, "annotation": {"number": 64, "value": 0}, "group": "control_change"}, {"time": 1260, "annotation": {"number": 64, "value": 127}, "group": "control_change"}, {"time": 1301, "annotation": {"number": 64, "value": 0}, "group": "control_change"}, {"time": 1307, "annotation": {"number": 64, "value": 127}, "group": "control_change"}, {"time": 1325, "annotation": {"number": 64, "value": 0}, "group": "control_change"}, {"time": 1331, "annotation": {"number": 64, "value": 127}, "group": "control_change"}, {"time": 1372, "annotation": {"number": 64, "value": 0}, "group": "control_change"}, {"time": 1379, "annotation": {"number": 64, "value": 127}, "group": "control_change"}, {"time": 1421, "annotation": {"number": 64, "value": 0}, "group": "control_change"}, {"time": 1424, "annotation": {"number": 64, "value": 127}, "group": "control_change"}, {"time": 1445, "annotation": {"number": 64, "value": 0}, "group": "control_change"}, {"time": 1448, "annotation": {"number": 64, "value": 127}, "group": "control_change"}, {"time": 1470, "annotation": {"number": 64, "value": 0}, "group": "control_change"}, {"time": 1511, "annotation": {"number": 64, "value": 127}, "group": "control_change"}, {"time": 1539, "annotation": {"number": 64, "value": 0}, "group": "control_change"}, {"time": 1551, "annotation": {"number": 64, "value": 127}, "group": "control_change"}, {"time": 1552, "annotation": {"number": 64, "value": 0}, "group": "control_change"}, {"time": 1552, "annotation": {"number": 64, "value": 127}, "group": "control_change"}, {"time": 1590, "annotation": {"number": 64, "value": 0}, "group": "control_change"}, {"time": 1593, "annotation": {"number": 64, "value": 127}, "group": "control_change"}, {"time": 1617, "annotation": {"number": 64, "value": 0}, "group": "control_change"}, {"time": 1619, "annotation": {"number": 64, "value": 127}, "group": "control_change"}, {"time": 1638, "annotation": {"number": 64, "value": 0}, "group": "control_change"}, {"time": 1640, "annotation": {"number": 64, "value": 127}, "group": "control_change"}, {"time": 1686, "annotation": {"number": 64, "value": 0}, "group": "control_change"}, {"time": 1690, "annotation": {"number": 64, "value": 127}, "group": "control_change"}, {"time": 1711, "annotation": {"number": 64, "value": 0}, "group": "control_change"}, {"time": 1713, "annotation": {"number": 64, "value": 127}, "group": "control_change"}, {"time": 1734, "annotation": {"number": 64, "value": 0}, "group": "control_change"}, {"time": 1735, "annotation": {"number": 64, "value": 127}, "group": "control_change"}, {"time": 1781, "annotation": {"number": 64, "value": 0}, "group": "control_change"}, {"time": 1784, "annotation": {"number": 64, "value": 127}, "group": "control_change"}, {"time": 1830, "annotation": {"number": 64, "value": 0}, "group": "control_change"}, {"time": 1833, "annotation": {"number": 64, "value": 127}, "group": "control_change"}, {"time": 1878, "annotation": {"number": 64, "value": 0}, "group": "control_change"}, {"time": 1920, "annotation": {"number": 64, "value": 127}, "group": "control_change"}, {"time": 1920, "annotation": {"number": 64, "value": 0}, "group": "control_change"}, {"time": 1925, "annotation": {"number": 64, "value": 0}, "group": "control_change"}, {"time": 1929, "annotation": {"number": 64, "value": 127}, "group": "control_change"}, {"time": 1949, "annotation": {"number": 64, "value": 0}, "group": "control_change"}, {"time": 1953, "annotation": {"number": 64, "value": 127}, "group": "control_change"}, {"time": 1973, "annotation": {"number": 64, "value": 0}, "group": "control_change"}, {"time": 1977, "annotation": {"number": 64, "value": 127}, "group": "control_change"}, {"time": 1998, "annotation": {"number": 64, "value": 0}, "group": "control_change"}, {"time": 2003, "annotation": {"number": 64, "value": 127}, "group": "control_change"}, {"time": 2022, "annotation": {"number": 64, "value": 0}, "group": "control_change"}, {"time": 2027, "annotation": {"number": 64, "value": 127}, "group": "control_change"}, {"time": 2068, "annotation": {"number": 64, "value": 0}, "group": "control_change"}, {"time": 2075, "annotation": {"number": 64, "value": 127}, "group": "control_change"}, {"time": 2119, "annotation": {"number": 64, "value": 0}, "group": "control_change"}, {"time": 2122, "annotation": {"number": 64, "value": 127}, "group": "control_change"}, {"time": 2141, "annotation": {"number": 64, "value": 0}, "group": "control_change"}, {"time": 2144, "annotation": {"number": 64, "value": 127}, "group": "control_change"}, {"time": 2166, "annotation": {"number": 64, "value": 0}, "group": "control_change"}, {"time": 2169, "annotation": {"number": 64, "value": 127}, "group": "control_change"}, {"time": 2191, "annotation": {"number": 64, "value": 0}, "group": "control_change"}, {"time": 2194, "annotation": {"number": 64, "value": 127}, "group": "control_change"}, {"time": 2215, "annotation": {"number": 64, "value": 0}, "group": "control_change"}, {"time": 2216, "annotation": {"number": 64, "value": 127}, "group": "control_change"}, {"time": 2238, "annotation": {"number": 64, "value": 0}, "group": "control_change"}, {"time": 2240, "annotation": {"number": 64, "value": 127}, "group": "control_change"}, {"time": 2262, "annotation": {"number": 64, "value": 0}, "group": "control_change"}, {"time": 2264, "annotation": {"number": 64, "value": 127}, "group": "control_change"}, {"time": 2274, "annotation": {"number": 64, "value": 0}, "group": "control_change"}, {"time": 2275, "annotation": {"number": 64, "value": 127}, "group": "control_change"}, {"time": 2285, "annotation": {"number": 64, "value": 0}, "group": "control_change"}, {"time": 2287, "annotation": {"number": 64, "value": 127}, "group": "control_change"}, {"time": 2297, "annotation": {"number": 64, "value": 0}, "group": "control_change"}, {"time": 2299, "annotation": {"number": 64, "value": 127}, "group": "control_change"}, {"time": 2309, "annotation": {"number": 64, "value": 0}, "group": "control_change"}, {"time": 2318, "annotation": {"number": 64, "value": 127}, "group": "control_change"}, {"time": 2357, "annotation": {"number": 64, "value": 0}, "group": "control_change"}, {"time": 2365, "annotation": {"number": 64, "value": 127}, "group": "control_change"}, {"time": 2402, "annotation": {"number": 64, "value": 0}, "group": "control_change"}, {"time": 2409, "annotation": {"number": 64, "value": 127}, "group": "control_change"}, {"time": 2454, "annotation": {"number": 64, "value": 0}, "group": "control_change"}, {"time": 2457, "annotation": {"number": 64, "value": 127}, "group": "control_change"}, {"time": 2501, "annotation": {"number": 64, "value": 0}, "group": "control_change"}, {"time": 2508, "annotation": {"number": 64, "value": 127}, "group": "control_change"}, {"time": 2550, "annotation": {"number": 64, "value": 0}, "group": "control_change"}, {"time": 2556, "annotation": {"number": 64, "value": 127}, "group": "control_change"}, {"time": 2597, "annotation": {"number": 64, "value": 0}, "group": "control_change"}, {"time": 2654, "annotation": {"number": 64, "value": 127}, "group": "control_change"}, {"time": 2669, "annotation": {"number": 64, "value": 0}, "group": "control_change"}, {"time": 2671, "annotation": {"number": 64, "value": 127}, "group": "control_change"}, {"time": 2748, "annotation": {"number": 64, "value": 0}, "group": "control_change"}]}]}