{"metadata": {"schema_version": "0.2", "title": "None", "source_filename": "652.mid", "source_format": "midi"}, "resolution": 12, "tempos": [{"time": 0, "qpm": 107.0001266168165}, {"time": 121, "qpm": 106.2501660158844}, {"time": 215, "qpm": 107.0001266168165}, {"time": 726, "qpm": 106.2501660158844}, {"time": 840, "qpm": 107.0001266168165}, {"time": 936, "qpm": 106.75016902110094}, {"time": 1188, "qpm": 106.50005325002662}, {"time": 1560, "qpm": 106.75016902110094}], "time_signatures": [{"time": 0, "numerator": 1, "denominator": 4}], "tracks": [{"program": 0, "is_drum": false, "name": "MELODY", "notes": [{"time": 392, "pitch": 59, "duration": 4, "velocity": 87}, {"time": 398, "pitch": 61, "duration": 4, "velocity": 91}, {"time": 404, "pitch": 63, "duration": 4, "velocity": 88}, {"time": 410, "pitch": 63, "duration": 4, "velocity": 87}, {"time": 416, "pitch": 63, "duration": 4, "velocity": 87}, {"time": 422, "pitch": 63, "duration": 3, "velocity": 87}, {"time": 428, "pitch": 63, "duration": 4, "velocity": 88}, {"time": 434, "pitch": 61, "duration": 5, "velocity": 91}, {"time": 440, "pitch": 66, "duration": 11, "velocity": 83}, {"time": 452, "pitch": 61, "duration": 27, "velocity": 91}, {"time": 488, "pitch": 59, "duration": 4, "velocity": 89}, {"time": 494, "pitch": 59, "duration": 5, "velocity": 88}, {"time": 500, "pitch": 71, "duration": 4, "velocity": 87}, {"time": 506, "pitch": 71, "duration": 9, "velocity": 88}, {"time": 518, "pitch": 71, "duration": 5, "velocity": 88}, {"time": 524, "pitch": 68, "duration": 4, "velocity": 87}, {"time": 530, "pitch": 63, "duration": 4, "velocity": 90}, {"time": 536, "pitch": 68, "duration": 6, "velocity": 88}, {"time": 542, "pitch": 66, "duration": 33, "velocity": 81}, {"time": 584, "pitch": 66, "duration": 3, "velocity": 87}, {"time": 590, "pitch": 66, "duration": 4, "velocity": 86}, {"time": 596, "pitch": 68, "duration": 9, "velocity": 89}, {"time": 608, "pitch": 63, "duration": 5, "velocity": 89}, {"time": 614, "pitch": 63, "duration": 9, "velocity": 88}, {"time": 626, "pitch": 63, "duration": 4, "velocity": 87}, {"time": 632, "pitch": 63, "duration": 5, "velocity": 89}, {"time": 638, "pitch": 68, "duration": 4, "velocity": 88}, {"time": 644, "pitch": 66, "duration": 4, "velocity": 83}, {"time": 650, "pitch": 66, "duration": 4, "velocity": 82}, {"time": 656, "pitch": 68, "duration": 9, "velocity": 88}, {"time": 668, "pitch": 59, "duration": 13, "velocity": 88}, {"time": 686, "pitch": 63, "duration": 4, "velocity": 87}, {"time": 692, "pitch": 63, "duration": 4, "velocity": 87}, {"time": 698, "pitch": 64, "duration": 4, "velocity": 87}, {"time": 704, "pitch": 63, "duration": 3, "velocity": 89}, {"time": 710, "pitch": 64, "duration": 5, "velocity": 86}, {"time": 716, "pitch": 63, "duration": 8, "velocity": 91}, {"time": 728, "pitch": 59, "duration": 4, "velocity": 87}, {"time": 734, "pitch": 56, "duration": 15, "velocity": 88}, {"time": 752, "pitch": 63, "duration": 5, "velocity": 87}, {"time": 758, "pitch": 61, "duration": 33, "velocity": 86}, {"time": 824, "pitch": 59, "duration": 5, "velocity": 88}, {"time": 830, "pitch": 61, "duration": 4, "velocity": 87}, {"time": 836, "pitch": 63, "duration": 4, "velocity": 87}, {"time": 842, "pitch": 63, "duration": 4, "velocity": 87}, {"time": 848, "pitch": 63, "duration": 4, "velocity": 83}, {"time": 854, "pitch": 64, "duration": 4, "velocity": 83}, {"time": 860, "pitch": 63, "duration": 4, "velocity": 88}, {"time": 866, "pitch": 61, "duration": 4, "velocity": 89}, {"time": 872, "pitch": 66, "duration": 12, "velocity": 88}, {"time": 884, "pitch": 61, "duration": 28, "velocity": 86}, {"time": 920, "pitch": 59, "duration": 3, "velocity": 89}, {"time": 926, "pitch": 59, "duration": 4, "velocity": 88}, {"time": 932, "pitch": 71, "duration": 3, "velocity": 88}, {"time": 938, "pitch": 71, "duration": 3, "velocity": 87}, {"time": 944, "pitch": 71, "duration": 3, "velocity": 86}, {"time": 950, "pitch": 71, "duration": 4, "velocity": 87}, {"time": 956, "pitch": 68, "duration": 6, "velocity": 72}, {"time": 962, "pitch": 63, "duration": 5, "velocity": 87}, {"time": 968, "pitch": 68, "duration": 6, "velocity": 87}, {"time": 974, "pitch": 66, "duration": 33, "velocity": 86}, {"time": 1016, "pitch": 66, "duration": 3, "velocity": 88}, {"time": 1022, "pitch": 66, "duration": 4, "velocity": 87}, {"time": 1028, "pitch": 68, "duration": 11, "velocity": 89}, {"time": 1040, "pitch": 71, "duration": 9, "velocity": 87}, {"time": 1052, "pitch": 71, "duration": 8, "velocity": 89}, {"time": 1070, "pitch": 68, "duration": 7, "velocity": 89}, {"time": 1076, "pitch": 66, "duration": 10, "velocity": 87}, {"time": 1088, "pitch": 70, "duration": 12, "velocity": 84}, {"time": 1100, "pitch": 71, "duration": 12, "velocity": 86}, {"time": 1112, "pitch": 68, "duration": 6, "velocity": 90}, {"time": 1118, "pitch": 66, "duration": 5, "velocity": 86}, {"time": 1124, "pitch": 75, "duration": 3, "velocity": 92}, {"time": 1130, "pitch": 75, "duration": 3, "velocity": 88}, {"time": 1136, "pitch": 75, "duration": 4, "velocity": 89}, {"time": 1142, "pitch": 76, "duration": 4, "velocity": 88}, {"time": 1148, "pitch": 75, "duration": 4, "velocity": 89}, {"time": 1154, "pitch": 73, "duration": 4, "velocity": 91}, {"time": 1160, "pitch": 71, "duration": 12, "velocity": 87}, {"time": 1172, "pitch": 73, "duration": 72, "velocity": 88}, {"time": 1256, "pitch": 71, "duration": 4, "velocity": 92}, {"time": 1262, "pitch": 73, "duration": 5, "velocity": 98}, {"time": 1268, "pitch": 75, "duration": 4, "velocity": 89}, {"time": 1274, "pitch": 75, "duration": 3, "velocity": 87}, {"time": 1280, "pitch": 75, "duration": 4, "velocity": 88}, {"time": 1286, "pitch": 76, "duration": 5, "velocity": 87}, {"time": 1292, "pitch": 75, "duration": 4, "velocity": 91}, {"time": 1298, "pitch": 73, "duration": 3, "velocity": 89}, {"time": 1304, "pitch": 73, "duration": 4, "velocity": 93}, {"time": 1310, "pitch": 71, "duration": 5, "velocity": 88}, {"time": 1316, "pitch": 73, "duration": 8, "velocity": 94}, {"time": 1328, "pitch": 73, "duration": 4, "velocity": 91}, {"time": 1334, "pitch": 78, "duration": 4, "velocity": 89}, {"time": 1340, "pitch": 73, "duration": 8, "velocity": 98}, {"time": 1352, "pitch": 71, "duration": 5, "velocity": 89}, {"time": 1358, "pitch": 70, "duration": 4, "velocity": 88}, {"time": 1364, "pitch": 71, "duration": 4, "velocity": 88}, {"time": 1370, "pitch": 71, "duration": 4, "velocity": 86}, {"time": 1376, "pitch": 71, "duration": 4, "velocity": 88}, {"time": 1382, "pitch": 75, "duration": 3, "velocity": 89}, {"time": 1388, "pitch": 75, "duration": 4, "velocity": 90}, {"time": 1394, "pitch": 71, "duration": 3, "velocity": 88}, {"time": 1400, "pitch": 71, "duration": 6, "velocity": 87}, {"time": 1406, "pitch": 68, "duration": 5, "velocity": 82}, {"time": 1412, "pitch": 70, "duration": 11, "velocity": 88}, {"time": 1424, "pitch": 70, "duration": 4, "velocity": 85}, {"time": 1430, "pitch": 75, "duration": 3, "velocity": 88}, {"time": 1436, "pitch": 70, "duration": 7, "velocity": 90}, {"time": 1448, "pitch": 68, "duration": 5, "velocity": 91}, {"time": 1454, "pitch": 66, "duration": 5, "velocity": 87}, {"time": 1460, "pitch": 68, "duration": 8, "velocity": 93}, {"time": 1472, "pitch": 68, "duration": 3, "velocity": 91}, {"time": 1478, "pitch": 68, "duration": 5, "velocity": 91}, {"time": 1484, "pitch": 76, "duration": 14, "velocity": 91}, {"time": 1502, "pitch": 76, "duration": 5, "velocity": 86}, {"time": 1508, "pitch": 75, "duration": 8, "velocity": 89}, {"time": 1520, "pitch": 78, "duration": 3, "velocity": 90}, {"time": 1526, "pitch": 71, "duration": 11, "velocity": 89}, {"time": 1544, "pitch": 68, "duration": 3, "velocity": 91}, {"time": 1550, "pitch": 66, "duration": 5, "velocity": 88}, {"time": 1556, "pitch": 68, "duration": 3, "velocity": 91}, {"time": 1562, "pitch": 68, "duration": 3, "velocity": 89}, {"time": 1568, "pitch": 68, "duration": 4, "velocity": 87}, {"time": 1574, "pitch": 76, "duration": 4, "velocity": 89}, {"time": 1580, "pitch": 76, "duration": 4, "velocity": 91}, {"time": 1586, "pitch": 71, "duration": 3, "velocity": 85}, {"time": 1592, "pitch": 71, "duration": 4, "velocity": 88}, {"time": 1598, "pitch": 68, "duration": 6, "velocity": 89}, {"time": 1604, "pitch": 73, "duration": 25, "velocity": 91}, {"time": 1634, "pitch": 71, "duration": 5, "velocity": 89}, {"time": 1640, "pitch": 71, "duration": 4, "velocity": 92}, {"time": 1646, "pitch": 73, "duration": 5, "velocity": 98}, {"time": 1652, "pitch": 75, "duration": 4, "velocity": 89}, {"time": 1658, "pitch": 75, "duration": 3, "velocity": 87}, {"time": 1664, "pitch": 75, "duration": 4, "velocity": 88}, {"time": 1670, "pitch": 76, "duration": 5, "velocity": 87}, {"time": 1676, "pitch": 75, "duration": 4, "velocity": 91}, {"time": 1682, "pitch": 73, "duration": 3, "velocity": 89}, {"time": 1688, "pitch": 73, "duration": 4, "velocity": 93}, {"time": 1694, "pitch": 71, "duration": 5, "velocity": 88}, {"time": 1700, "pitch": 73, "duration": 8, "velocity": 94}, {"time": 1712, "pitch": 73, "duration": 4, "velocity": 91}, {"time": 1718, "pitch": 78, "duration": 4, "velocity": 89}, {"time": 1724, "pitch": 73, "duration": 8, "velocity": 98}, {"time": 1736, "pitch": 71, "duration": 5, "velocity": 89}, {"time": 1742, "pitch": 70, "duration": 4, "velocity": 88}, {"time": 1748, "pitch": 71, "duration": 4, "velocity": 88}, {"time": 1754, "pitch": 71, "duration": 4, "velocity": 86}, {"time": 1760, "pitch": 71, "duration": 4, "velocity": 88}, {"time": 1766, "pitch": 75, "duration": 3, "velocity": 89}, {"time": 1772, "pitch": 75, "duration": 4, "velocity": 90}, {"time": 1778, "pitch": 71, "duration": 3, "velocity": 88}, {"time": 1784, "pitch": 71, "duration": 6, "velocity": 87}, {"time": 1790, "pitch": 68, "duration": 5, "velocity": 82}, {"time": 1796, "pitch": 70, "duration": 11, "velocity": 88}, {"time": 1808, "pitch": 70, "duration": 4, "velocity": 85}, {"time": 1814, "pitch": 75, "duration": 3, "velocity": 88}, {"time": 1820, "pitch": 70, "duration": 7, "velocity": 90}, {"time": 1832, "pitch": 68, "duration": 5, "velocity": 91}, {"time": 1838, "pitch": 66, "duration": 5, "velocity": 87}, {"time": 1844, "pitch": 68, "duration": 8, "velocity": 93}, {"time": 1856, "pitch": 68, "duration": 12, "velocity": 91}, {"time": 1868, "pitch": 76, "duration": 14, "velocity": 91}, {"time": 1886, "pitch": 76, "duration": 5, "velocity": 86}, {"time": 1892, "pitch": 75, "duration": 8, "velocity": 89}, {"time": 1904, "pitch": 78, "duration": 3, "velocity": 90}, {"time": 1910, "pitch": 71, "duration": 11, "velocity": 89}, {"time": 1928, "pitch": 68, "duration": 3, "velocity": 91}, {"time": 1934, "pitch": 66, "duration": 5, "velocity": 88}, {"time": 1940, "pitch": 68, "duration": 3, "velocity": 91}, {"time": 1946, "pitch": 68, "duration": 3, "velocity": 89}, {"time": 1952, "pitch": 68, "duration": 4, "velocity": 87}, {"time": 1958, "pitch": 76, "duration": 4, "velocity": 89}, {"time": 1964, "pitch": 76, "duration": 6, "velocity": 91}, {"time": 1971, "pitch": 71, "duration": 8, "velocity": 88}, {"time": 1982, "pitch": 71, "duration": 5, "velocity": 88}, {"time": 1988, "pitch": 71, "duration": 30, "velocity": 88}, {"time": 2023, "pitch": 70, "duration": 10, "velocity": 91}, {"time": 2036, "pitch": 71, "duration": 69, "velocity": 93}, {"time": 2792, "pitch": 59, "duration": 5, "velocity": 88}, {"time": 2798, "pitch": 61, "duration": 4, "velocity": 87}, {"time": 2804, "pitch": 63, "duration": 4, "velocity": 87}, {"time": 2810, "pitch": 63, "duration": 4, "velocity": 87}, {"time": 2816, "pitch": 63, "duration": 4, "velocity": 83}, {"time": 2822, "pitch": 64, "duration": 4, "velocity": 83}, {"time": 2828, "pitch": 63, "duration": 4, "velocity": 88}, {"time": 2834, "pitch": 61, "duration": 4, "velocity": 89}, {"time": 2840, "pitch": 66, "duration": 12, "velocity": 88}, {"time": 2852, "pitch": 61, "duration": 28, "velocity": 86}, {"time": 2888, "pitch": 59, "duration": 3, "velocity": 89}, {"time": 2894, "pitch": 59, "duration": 4, "velocity": 88}, {"time": 2900, "pitch": 71, "duration": 3, "velocity": 88}, {"time": 2906, "pitch": 71, "duration": 3, "velocity": 87}, {"time": 2912, "pitch": 71, "duration": 3, "velocity": 86}, {"time": 2918, "pitch": 71, "duration": 4, "velocity": 87}, {"time": 2924, "pitch": 68, "duration": 6, "velocity": 72}, {"time": 2930, "pitch": 63, "duration": 5, "velocity": 87}, {"time": 2936, "pitch": 68, "duration": 6, "velocity": 87}, {"time": 2942, "pitch": 66, "duration": 33, "velocity": 86}, {"time": 2984, "pitch": 66, "duration": 3, "velocity": 88}, {"time": 2990, "pitch": 66, "duration": 4, "velocity": 87}, {"time": 2996, "pitch": 68, "duration": 11, "velocity": 89}, {"time": 3008, "pitch": 71, "duration": 9, "velocity": 87}, {"time": 3020, "pitch": 71, "duration": 8, "velocity": 89}, {"time": 3038, "pitch": 68, "duration": 7, "velocity": 89}, {"time": 3044, "pitch": 66, "duration": 10, "velocity": 87}, {"time": 3056, "pitch": 70, "duration": 12, "velocity": 84}, {"time": 3068, "pitch": 71, "duration": 12, "velocity": 86}, {"time": 3080, "pitch": 68, "duration": 6, "velocity": 90}, {"time": 3086, "pitch": 66, "duration": 5, "velocity": 86}, {"time": 3092, "pitch": 75, "duration": 3, "velocity": 92}, {"time": 3098, "pitch": 75, "duration": 3, "velocity": 88}, {"time": 3104, "pitch": 75, "duration": 4, "velocity": 89}, {"time": 3110, "pitch": 76, "duration": 4, "velocity": 88}, {"time": 3116, "pitch": 75, "duration": 4, "velocity": 89}, {"time": 3122, "pitch": 73, "duration": 4, "velocity": 91}, {"time": 3128, "pitch": 71, "duration": 12, "velocity": 87}, {"time": 3140, "pitch": 73, "duration": 72, "velocity": 88}, {"time": 3224, "pitch": 71, "duration": 4, "velocity": 92}, {"time": 3230, "pitch": 73, "duration": 5, "velocity": 98}, {"time": 3236, "pitch": 75, "duration": 4, "velocity": 89}, {"time": 3242, "pitch": 75, "duration": 3, "velocity": 87}, {"time": 3248, "pitch": 75, "duration": 4, "velocity": 88}, {"time": 3254, "pitch": 76, "duration": 5, "velocity": 87}, {"time": 3260, "pitch": 75, "duration": 4, "velocity": 91}, {"time": 3266, "pitch": 73, "duration": 3, "velocity": 89}, {"time": 3272, "pitch": 73, "duration": 4, "velocity": 93}, {"time": 3278, "pitch": 71, "duration": 5, "velocity": 88}, {"time": 3284, "pitch": 73, "duration": 8, "velocity": 94}, {"time": 3296, "pitch": 73, "duration": 4, "velocity": 91}, {"time": 3302, "pitch": 78, "duration": 4, "velocity": 89}, {"time": 3308, "pitch": 73, "duration": 8, "velocity": 98}, {"time": 3320, "pitch": 71, "duration": 5, "velocity": 89}, {"time": 3326, "pitch": 70, "duration": 4, "velocity": 88}, {"time": 3332, "pitch": 71, "duration": 4, "velocity": 88}, {"time": 3338, "pitch": 71, "duration": 4, "velocity": 86}, {"time": 3344, "pitch": 71, "duration": 4, "velocity": 88}, {"time": 3350, "pitch": 75, "duration": 3, "velocity": 89}, {"time": 3356, "pitch": 75, "duration": 4, "velocity": 90}, {"time": 3362, "pitch": 71, "duration": 3, "velocity": 88}, {"time": 3368, "pitch": 71, "duration": 6, "velocity": 87}, {"time": 3374, "pitch": 68, "duration": 5, "velocity": 82}, {"time": 3380, "pitch": 70, "duration": 11, "velocity": 88}, {"time": 3392, "pitch": 70, "duration": 4, "velocity": 85}, {"time": 3398, "pitch": 75, "duration": 3, "velocity": 88}, {"time": 3404, "pitch": 70, "duration": 7, "velocity": 90}, {"time": 3416, "pitch": 68, "duration": 5, "velocity": 91}, {"time": 3422, "pitch": 66, "duration": 5, "velocity": 87}, {"time": 3428, "pitch": 68, "duration": 8, "velocity": 93}, {"time": 3440, "pitch": 68, "duration": 3, "velocity": 91}, {"time": 3446, "pitch": 68, "duration": 5, "velocity": 91}, {"time": 3452, "pitch": 76, "duration": 14, "velocity": 91}, {"time": 3470, "pitch": 76, "duration": 5, "velocity": 86}, {"time": 3476, "pitch": 75, "duration": 8, "velocity": 89}, {"time": 3488, "pitch": 78, "duration": 3, "velocity": 90}, {"time": 3494, "pitch": 71, "duration": 11, "velocity": 89}, {"time": 3512, "pitch": 68, "duration": 3, "velocity": 91}, {"time": 3518, "pitch": 66, "duration": 5, "velocity": 88}, {"time": 3524, "pitch": 68, "duration": 3, "velocity": 91}, {"time": 3530, "pitch": 68, "duration": 3, "velocity": 89}, {"time": 3536, "pitch": 68, "duration": 4, "velocity": 87}, {"time": 3542, "pitch": 76, "duration": 4, "velocity": 89}, {"time": 3548, "pitch": 76, "duration": 4, "velocity": 91}, {"time": 3555, "pitch": 71, "duration": 9, "velocity": 91}, {"time": 3566, "pitch": 71, "duration": 4, "velocity": 89}, {"time": 3573, "pitch": 71, "duration": 31, "velocity": 94}, {"time": 3607, "pitch": 70, "duration": 10, "velocity": 94}, {"time": 3619, "pitch": 71, "duration": 74, "velocity": 89}, {"time": 3704, "pitch": 71, "duration": 4, "velocity": 91}, {"time": 3710, "pitch": 73, "duration": 4, "velocity": 98}, {"time": 3716, "pitch": 75, "duration": 4, "velocity": 90}, {"time": 3722, "pitch": 71, "duration": 3, "velocity": 92}, {"time": 3728, "pitch": 71, "duration": 4, "velocity": 92}, {"time": 3734, "pitch": 68, "duration": 4, "velocity": 91}, {"time": 3740, "pitch": 71, "duration": 9, "velocity": 103}, {"time": 3752, "pitch": 68, "duration": 8, "velocity": 93}, {"time": 3764, "pitch": 71, "duration": 9, "velocity": 94}, {"time": 3776, "pitch": 73, "duration": 4, "velocity": 94}, {"time": 3782, "pitch": 71, "duration": 12, "velocity": 103}, {"time": 3800, "pitch": 71, "duration": 4, "velocity": 92}, {"time": 3806, "pitch": 73, "duration": 4, "velocity": 98}, {"time": 3812, "pitch": 70, "duration": 5, "velocity": 91}, {"time": 3818, "pitch": 66, "duration": 3, "velocity": 85}, {"time": 3824, "pitch": 66, "duration": 3, "velocity": 83}, {"time": 3830, "pitch": 66, "duration": 5, "velocity": 89}, {"time": 3836, "pitch": 73, "duration": 6, "velocity": 93}, {"time": 3842, "pitch": 75, "duration": 12, "velocity": 92}, {"time": 3854, "pitch": 73, "duration": 12, "velocity": 98}, {"time": 3866, "pitch": 71, "duration": 24, "velocity": 87}, {"time": 3896, "pitch": 71, "duration": 4, "velocity": 91}, {"time": 3902, "pitch": 73, "duration": 4, "velocity": 90}, {"time": 3908, "pitch": 75, "duration": 4, "velocity": 89}, {"time": 3914, "pitch": 71, "duration": 4, "velocity": 91}, {"time": 3920, "pitch": 71, "duration": 5, "velocity": 89}, {"time": 3926, "pitch": 68, "duration": 6, "velocity": 84}, {"time": 3932, "pitch": 71, "duration": 9, "velocity": 92}, {"time": 3944, "pitch": 71, "duration": 4, "velocity": 89}, {"time": 3950, "pitch": 73, "duration": 4, "velocity": 98}, {"time": 3956, "pitch": 75, "duration": 5, "velocity": 89}, {"time": 3962, "pitch": 71, "duration": 4, "velocity": 87}, {"time": 3968, "pitch": 71, "duration": 6, "velocity": 88}, {"time": 3974, "pitch": 68, "duration": 5, "velocity": 90}, {"time": 3980, "pitch": 71, "duration": 9, "velocity": 94}, {"time": 3992, "pitch": 71, "duration": 5, "velocity": 94}, {"time": 3998, "pitch": 73, "duration": 5, "velocity": 96}, {"time": 4004, "pitch": 75, "duration": 4, "velocity": 91}, {"time": 4010, "pitch": 75, "duration": 3, "velocity": 89}, {"time": 4016, "pitch": 75, "duration": 4, "velocity": 90}, {"time": 4022, "pitch": 75, "duration": 3, "velocity": 91}, {"time": 4028, "pitch": 75, "duration": 10, "velocity": 93}, {"time": 4040, "pitch": 76, "duration": 11, "velocity": 91}, {"time": 4052, "pitch": 75, "duration": 9, "velocity": 94}, {"time": 4061, "pitch": 73, "duration": 55, "velocity": 89}, {"time": 4136, "pitch": 71, "duration": 4, "velocity": 92}, {"time": 4142, "pitch": 73, "duration": 5, "velocity": 98}, {"time": 4148, "pitch": 75, "duration": 4, "velocity": 89}, {"time": 4154, "pitch": 75, "duration": 3, "velocity": 87}, {"time": 4160, "pitch": 75, "duration": 4, "velocity": 88}, {"time": 4166, "pitch": 76, "duration": 5, "velocity": 87}, {"time": 4172, "pitch": 75, "duration": 4, "velocity": 91}, {"time": 4178, "pitch": 73, "duration": 3, "velocity": 89}, {"time": 4184, "pitch": 73, "duration": 4, "velocity": 93}, {"time": 4190, "pitch": 71, "duration": 5, "velocity": 88}, {"time": 4196, "pitch": 73, "duration": 8, "velocity": 94}, {"time": 4208, "pitch": 73, "duration": 4, "velocity": 91}, {"time": 4214, "pitch": 78, "duration": 4, "velocity": 89}, {"time": 4220, "pitch": 73, "duration": 8, "velocity": 98}, {"time": 4232, "pitch": 71, "duration": 5, "velocity": 89}, {"time": 4238, "pitch": 70, "duration": 4, "velocity": 88}, {"time": 4244, "pitch": 71, "duration": 4, "velocity": 88}, {"time": 4250, "pitch": 71, "duration": 4, "velocity": 86}, {"time": 4256, "pitch": 71, "duration": 4, "velocity": 88}, {"time": 4262, "pitch": 75, "duration": 3, "velocity": 89}, {"time": 4268, "pitch": 75, "duration": 4, "velocity": 90}, {"time": 4274, "pitch": 71, "duration": 3, "velocity": 88}, {"time": 4280, "pitch": 71, "duration": 6, "velocity": 87}, {"time": 4286, "pitch": 68, "duration": 5, "velocity": 82}, {"time": 4292, "pitch": 70, "duration": 11, "velocity": 88}, {"time": 4304, "pitch": 70, "duration": 4, "velocity": 85}, {"time": 4310, "pitch": 75, "duration": 3, "velocity": 88}, {"time": 4316, "pitch": 70, "duration": 7, "velocity": 90}, {"time": 4328, "pitch": 68, "duration": 5, "velocity": 91}, {"time": 4334, "pitch": 66, "duration": 5, "velocity": 87}, {"time": 4340, "pitch": 68, "duration": 8, "velocity": 93}, {"time": 4352, "pitch": 68, "duration": 3, "velocity": 91}, {"time": 4358, "pitch": 68, "duration": 5, "velocity": 91}, {"time": 4364, "pitch": 76, "duration": 14, "velocity": 91}, {"time": 4382, "pitch": 76, "duration": 5, "velocity": 86}, {"time": 4388, "pitch": 75, "duration": 8, "velocity": 89}, {"time": 4400, "pitch": 78, "duration": 3, "velocity": 90}, {"time": 4406, "pitch": 71, "duration": 11, "velocity": 89}, {"time": 4424, "pitch": 68, "duration": 3, "velocity": 91}, {"time": 4430, "pitch": 66, "duration": 5, "velocity": 88}, {"time": 4436, "pitch": 68, "duration": 3, "velocity": 91}, {"time": 4442, "pitch": 68, "duration": 3, "velocity": 89}, {"time": 4448, "pitch": 68, "duration": 4, "velocity": 87}, {"time": 4454, "pitch": 76, "duration": 4, "velocity": 89}, {"time": 4460, "pitch": 76, "duration": 4, "velocity": 91}, {"time": 4466, "pitch": 71, "duration": 3, "velocity": 85}, {"time": 4472, "pitch": 71, "duration": 4, "velocity": 88}, {"time": 4478, "pitch": 68, "duration": 6, "velocity": 89}, {"time": 4484, "pitch": 73, "duration": 25, "velocity": 91}, {"time": 4514, "pitch": 71, "duration": 5, "velocity": 89}, {"time": 4520, "pitch": 71, "duration": 4, "velocity": 92}, {"time": 4526, "pitch": 73, "duration": 5, "velocity": 98}, {"time": 4532, "pitch": 75, "duration": 4, "velocity": 89}, {"time": 4538, "pitch": 75, "duration": 3, "velocity": 87}, {"time": 4544, "pitch": 75, "duration": 4, "velocity": 88}, {"time": 4550, "pitch": 76, "duration": 5, "velocity": 87}, {"time": 4556, "pitch": 75, "duration": 4, "velocity": 91}, {"time": 4562, "pitch": 73, "duration": 3, "velocity": 89}, {"time": 4568, "pitch": 73, "duration": 4, "velocity": 93}, {"time": 4574, "pitch": 71, "duration": 5, "velocity": 88}, {"time": 4580, "pitch": 73, "duration": 8, "velocity": 94}, {"time": 4592, "pitch": 73, "duration": 4, "velocity": 91}, {"time": 4598, "pitch": 78, "duration": 4, "velocity": 89}, {"time": 4604, "pitch": 73, "duration": 8, "velocity": 98}, {"time": 4616, "pitch": 71, "duration": 5, "velocity": 89}, {"time": 4622, "pitch": 70, "duration": 4, "velocity": 88}, {"time": 4628, "pitch": 71, "duration": 4, "velocity": 88}, {"time": 4634, "pitch": 71, "duration": 4, "velocity": 86}, {"time": 4640, "pitch": 71, "duration": 4, "velocity": 88}, {"time": 4646, "pitch": 75, "duration": 3, "velocity": 89}, {"time": 4652, "pitch": 75, "duration": 4, "velocity": 90}, {"time": 4658, "pitch": 71, "duration": 3, "velocity": 88}, {"time": 4664, "pitch": 71, "duration": 6, "velocity": 87}, {"time": 4670, "pitch": 68, "duration": 5, "velocity": 82}, {"time": 4676, "pitch": 70, "duration": 11, "velocity": 88}, {"time": 4688, "pitch": 70, "duration": 4, "velocity": 85}, {"time": 4694, "pitch": 75, "duration": 3, "velocity": 88}, {"time": 4700, "pitch": 70, "duration": 7, "velocity": 90}, {"time": 4712, "pitch": 68, "duration": 5, "velocity": 91}, {"time": 4718, "pitch": 66, "duration": 5, "velocity": 87}, {"time": 4724, "pitch": 68, "duration": 8, "velocity": 93}, {"time": 4736, "pitch": 68, "duration": 12, "velocity": 91}, {"time": 4748, "pitch": 76, "duration": 14, "velocity": 91}, {"time": 4766, "pitch": 76, "duration": 5, "velocity": 86}, {"time": 4772, "pitch": 75, "duration": 8, "velocity": 89}, {"time": 4784, "pitch": 78, "duration": 3, "velocity": 90}, {"time": 4790, "pitch": 71, "duration": 11, "velocity": 89}, {"time": 4808, "pitch": 68, "duration": 3, "velocity": 91}, {"time": 4814, "pitch": 66, "duration": 5, "velocity": 88}, {"time": 4820, "pitch": 68, "duration": 3, "velocity": 91}, {"time": 4826, "pitch": 68, "duration": 3, "velocity": 89}, {"time": 4832, "pitch": 68, "duration": 4, "velocity": 87}, {"time": 4838, "pitch": 76, "duration": 4, "velocity": 89}, {"time": 4844, "pitch": 76, "duration": 6, "velocity": 91}, {"time": 4851, "pitch": 71, "duration": 8, "velocity": 88}, {"time": 4862, "pitch": 71, "duration": 5, "velocity": 88}, {"time": 4868, "pitch": 71, "duration": 30, "velocity": 88}, {"time": 4903, "pitch": 70, "duration": 10, "velocity": 91}, {"time": 4916, "pitch": 71, "duration": 69, "velocity": 93}, {"time": 5001, "pitch": 68, "duration": 7, "velocity": 88}, {"time": 5007, "pitch": 66, "duration": 8, "velocity": 78}, {"time": 5014, "pitch": 68, "duration": 5, "velocity": 88}, {"time": 5020, "pitch": 68, "duration": 5, "velocity": 87}, {"time": 5028, "pitch": 68, "duration": 14, "velocity": 89}, {"time": 5042, "pitch": 76, "duration": 13, "velocity": 98}, {"time": 5059, "pitch": 76, "duration": 5, "velocity": 89}, {"time": 5066, "pitch": 75, "duration": 12, "velocity": 93}, {"time": 5077, "pitch": 78, "duration": 11, "velocity": 87}, {"time": 5087, "pitch": 71, "duration": 21, "velocity": 88}, {"time": 5104, "pitch": 68, "duration": 6, "velocity": 89}, {"time": 5109, "pitch": 66, "duration": 7, "velocity": 80}, {"time": 5116, "pitch": 68, "duration": 6, "velocity": 88}, {"time": 5124, "pitch": 68, "duration": 5, "velocity": 88}, {"time": 5131, "pitch": 68, "duration": 7, "velocity": 89}, {"time": 5138, "pitch": 76, "duration": 6, "velocity": 88}, {"time": 5146, "pitch": 76, "duration": 7, "velocity": 87}, {"time": 5153, "pitch": 75, "duration": 10, "velocity": 88}, {"time": 5165, "pitch": 71, "duration": 11, "velocity": 89}, {"time": 5178, "pitch": 71, "duration": 36, "velocity": 88}, {"time": 5228, "pitch": 70, "duration": 34, "velocity": 87}, {"time": 5261, "pitch": 71, "duration": 47, "velocity": 89}], "annotations": [{"time": 5302, "annotation": {"number": 64, "value": 127}, "group": "control_change"}, {"time": 5302, "annotation": {"number": 64, "value": 0}, "group": "control_change"}]}, {"program": 0, "is_drum": false, "name": "PIANO", "notes": [{"time": 20, "pitch": 47, "duration": 44, "velocity": 91}, {"time": 26, "pitch": 54, "duration": 27, "velocity": 78}, {"time": 32, "pitch": 61, "duration": 7, "velocity": 81}, {"time": 38, "pitch": 66, "duration": 9, "velocity": 87}, {"time": 50, "pitch": 59, "duration": 8, "velocity": 79}, {"time": 56, "pitch": 54, "duration": 8, "velocity": 72}, {"time": 56, "pitch": 61, "duration": 17, "velocity": 87}, {"time": 62, "pitch": 66, "duration": 19, "velocity": 82}, {"time": 68, "pitch": 47, "duration": 46, "velocity": 87}, {"time": 74, "pitch": 54, "duration": 27, "velocity": 73}, {"time": 80, "pitch": 59, "duration": 10, "velocity": 75}, {"time": 86, "pitch": 66, "duration": 18, "velocity": 83}, {"time": 98, "pitch": 59, "duration": 9, "velocity": 78}, {"time": 104, "pitch": 54, "duration": 9, "velocity": 84}, {"time": 110, "pitch": 59, "duration": 8, "velocity": 83}, {"time": 116, "pitch": 44, "duration": 44, "velocity": 78}, {"time": 122, "pitch": 51, "duration": 19, "velocity": 77}, {"time": 128, "pitch": 56, "duration": 17, "velocity": 80}, {"time": 134, "pitch": 59, "duration": 15, "velocity": 87}, {"time": 146, "pitch": 51, "duration": 14, "velocity": 75}, {"time": 152, "pitch": 58, "duration": 13, "velocity": 80}, {"time": 158, "pitch": 54, "duration": 7, "velocity": 78}, {"time": 164, "pitch": 44, "duration": 44, "velocity": 88}, {"time": 170, "pitch": 51, "duration": 26, "velocity": 83}, {"time": 176, "pitch": 56, "duration": 12, "velocity": 80}, {"time": 182, "pitch": 59, "duration": 9, "velocity": 86}, {"time": 182, "pitch": 63, "duration": 16, "velocity": 86}, {"time": 194, "pitch": 56, "duration": 3, "velocity": 81}, {"time": 200, "pitch": 56, "duration": 12, "velocity": 87}, {"time": 200, "pitch": 59, "duration": 13, "velocity": 88}, {"time": 206, "pitch": 51, "duration": 7, "velocity": 77}, {"time": 212, "pitch": 47, "duration": 44, "velocity": 88}, {"time": 212, "pitch": 59, "duration": 1, "velocity": 80}, {"time": 212, "pitch": 66, "duration": 13, "velocity": 82}, {"time": 218, "pitch": 54, "duration": 20, "velocity": 76}, {"time": 224, "pitch": 61, "duration": 4, "velocity": 81}, {"time": 230, "pitch": 59, "duration": 12, "velocity": 84}, {"time": 230, "pitch": 63, "duration": 12, "velocity": 88}, {"time": 242, "pitch": 54, "duration": 14, "velocity": 79}, {"time": 248, "pitch": 59, "duration": 2, "velocity": 83}, {"time": 248, "pitch": 66, "duration": 25, "velocity": 82}, {"time": 254, "pitch": 59, "duration": 14, "velocity": 79}, {"time": 260, "pitch": 47, "duration": 39, "velocity": 87}, {"time": 266, "pitch": 54, "duration": 37, "velocity": 81}, {"time": 272, "pitch": 59, "duration": 4, "velocity": 81}, {"time": 278, "pitch": 59, "duration": 6, "velocity": 85}, {"time": 278, "pitch": 66, "duration": 17, "velocity": 82}, {"time": 290, "pitch": 59, "duration": 3, "velocity": 68}, {"time": 296, "pitch": 59, "duration": 13, "velocity": 87}, {"time": 296, "pitch": 63, "duration": 24, "velocity": 87}, {"time": 302, "pitch": 46, "duration": 4, "velocity": 86}, {"time": 308, "pitch": 45, "duration": 45, "velocity": 88}, {"time": 314, "pitch": 52, "duration": 27, "velocity": 83}, {"time": 320, "pitch": 57, "duration": 16, "velocity": 81}, {"time": 326, "pitch": 61, "duration": 9, "velocity": 87}, {"time": 338, "pitch": 57, "duration": 8, "velocity": 79}, {"time": 338, "pitch": 61, "duration": 16, "velocity": 87}, {"time": 338, "pitch": 64, "duration": 30, "velocity": 78}, {"time": 344, "pitch": 52, "duration": 8, "velocity": 73}, {"time": 350, "pitch": 57, "duration": 5, "velocity": 81}, {"time": 355, "pitch": 52, "duration": 47, "velocity": 64}, {"time": 356, "pitch": 40, "duration": 46, "velocity": 82}, {"time": 356, "pitch": 56, "duration": 46, "velocity": 77}, {"time": 357, "pitch": 61, "duration": 46, "velocity": 80}, {"time": 404, "pitch": 47, "duration": 45, "velocity": 91}, {"time": 410, "pitch": 54, "duration": 45, "velocity": 79}, {"time": 416, "pitch": 61, "duration": 7, "velocity": 79}, {"time": 422, "pitch": 66, "duration": 11, "velocity": 82}, {"time": 440, "pitch": 59, "duration": 3, "velocity": 77}, {"time": 440, "pitch": 63, "duration": 26, "velocity": 84}, {"time": 446, "pitch": 59, "duration": 7, "velocity": 66}, {"time": 452, "pitch": 46, "duration": 38, "velocity": 86}, {"time": 458, "pitch": 54, "duration": 29, "velocity": 74}, {"time": 464, "pitch": 61, "duration": 4, "velocity": 79}, {"time": 470, "pitch": 58, "duration": 21, "velocity": 80}, {"time": 470, "pitch": 61, "duration": 20, "velocity": 84}, {"time": 470, "pitch": 66, "duration": 23, "velocity": 82}, {"time": 500, "pitch": 44, "duration": 42, "velocity": 87}, {"time": 506, "pitch": 51, "duration": 21, "velocity": 81}, {"time": 512, "pitch": 56, "duration": 4, "velocity": 85}, {"time": 518, "pitch": 56, "duration": 2, "velocity": 78}, {"time": 518, "pitch": 59, "duration": 20, "velocity": 82}, {"time": 518, "pitch": 63, "duration": 20, "velocity": 89}, {"time": 530, "pitch": 51, "duration": 14, "velocity": 83}, {"time": 536, "pitch": 56, "duration": 4, "velocity": 81}, {"time": 548, "pitch": 42, "duration": 39, "velocity": 87}, {"time": 548, "pitch": 54, "duration": 7, "velocity": 78}, {"time": 548, "pitch": 58, "duration": 24, "velocity": 78}, {"time": 554, "pitch": 49, "duration": 32, "velocity": 74}, {"time": 560, "pitch": 54, "duration": 13, "velocity": 76}, {"time": 566, "pitch": 66, "duration": 14, "velocity": 87}, {"time": 578, "pitch": 61, "duration": 7, "velocity": 88}, {"time": 584, "pitch": 54, "duration": 2, "velocity": 88}, {"time": 596, "pitch": 40, "duration": 44, "velocity": 85}, {"time": 596, "pitch": 56, "duration": 7, "velocity": 78}, {"time": 596, "pitch": 59, "duration": 16, "velocity": 81}, {"time": 602, "pitch": 47, "duration": 36, "velocity": 75}, {"time": 608, "pitch": 56, "duration": 4, "velocity": 71}, {"time": 614, "pitch": 59, "duration": 18, "velocity": 83}, {"time": 614, "pitch": 64, "duration": 19, "velocity": 82}, {"time": 644, "pitch": 39, "duration": 13, "velocity": 88}, {"time": 644, "pitch": 51, "duration": 7, "velocity": 84}, {"time": 644, "pitch": 54, "duration": 13, "velocity": 82}, {"time": 650, "pitch": 46, "duration": 7, "velocity": 74}, {"time": 656, "pitch": 51, "duration": 2, "velocity": 83}, {"time": 668, "pitch": 44, "duration": 21, "velocity": 85}, {"time": 668, "pitch": 56, "duration": 7, "velocity": 76}, {"time": 668, "pitch": 59, "duration": 13, "velocity": 78}, {"time": 674, "pitch": 51, "duration": 13, "velocity": 78}, {"time": 680, "pitch": 56, "duration": 8, "velocity": 82}, {"time": 686, "pitch": 59, "duration": 5, "velocity": 96}, {"time": 692, "pitch": 49, "duration": 39, "velocity": 87}, {"time": 692, "pitch": 56, "duration": 8, "velocity": 82}, {"time": 692, "pitch": 61, "duration": 20, "velocity": 82}, {"time": 698, "pitch": 52, "duration": 32, "velocity": 72}, {"time": 704, "pitch": 56, "duration": 8, "velocity": 77}, {"time": 710, "pitch": 64, "duration": 17, "velocity": 88}, {"time": 722, "pitch": 61, "duration": 7, "velocity": 78}, {"time": 728, "pitch": 59, "duration": 6, "velocity": 83}, {"time": 734, "pitch": 56, "duration": 3, "velocity": 75}, {"time": 740, "pitch": 42, "duration": 44, "velocity": 84}, {"time": 740, "pitch": 54, "duration": 18, "velocity": 77}, {"time": 740, "pitch": 58, "duration": 20, "velocity": 76}, {"time": 746, "pitch": 49, "duration": 38, "velocity": 76}, {"time": 752, "pitch": 61, "duration": 9, "velocity": 79}, {"time": 758, "pitch": 66, "duration": 33, "velocity": 84}, {"time": 770, "pitch": 61, "duration": 8, "velocity": 87}, {"time": 776, "pitch": 54, "duration": 19, "velocity": 82}, {"time": 782, "pitch": 61, "duration": 21, "velocity": 81}, {"time": 788, "pitch": 42, "duration": 43, "velocity": 86}, {"time": 794, "pitch": 49, "duration": 35, "velocity": 78}, {"time": 800, "pitch": 54, "duration": 37, "velocity": 74}, {"time": 806, "pitch": 61, "duration": 37, "velocity": 78}, {"time": 806, "pitch": 66, "duration": 28, "velocity": 70}, {"time": 836, "pitch": 35, "duration": 27, "velocity": 85}, {"time": 836, "pitch": 54, "duration": 1, "velocity": 81}, {"time": 836, "pitch": 63, "duration": 14, "velocity": 85}, {"time": 842, "pitch": 54, "duration": 9, "velocity": 77}, {"time": 848, "pitch": 59, "duration": 3, "velocity": 79}, {"time": 854, "pitch": 54, "duration": 6, "velocity": 80}, {"time": 854, "pitch": 59, "duration": 6, "velocity": 82}, {"time": 854, "pitch": 66, "duration": 9, "velocity": 87}, {"time": 866, "pitch": 54, "duration": 5, "velocity": 87}, {"time": 866, "pitch": 63, "duration": 7, "velocity": 87}, {"time": 872, "pitch": 59, "duration": 3, "velocity": 84}, {"time": 884, "pitch": 42, "duration": 40, "velocity": 85}, {"time": 884, "pitch": 54, "duration": 14, "velocity": 80}, {"time": 884, "pitch": 58, "duration": 14, "velocity": 82}, {"time": 890, "pitch": 49, "duration": 34, "velocity": 75}, {"time": 896, "pitch": 61, "duration": 6, "velocity": 80}, {"time": 902, "pitch": 66, "duration": 12, "velocity": 87}, {"time": 914, "pitch": 61, "duration": 7, "velocity": 87}, {"time": 920, "pitch": 54, "duration": 3, "velocity": 87}, {"time": 932, "pitch": 44, "duration": 36, "velocity": 84}, {"time": 932, "pitch": 56, "duration": 6, "velocity": 77}, {"time": 932, "pitch": 59, "duration": 13, "velocity": 83}, {"time": 938, "pitch": 51, "duration": 30, "velocity": 76}, {"time": 944, "pitch": 56, "duration": 8, "velocity": 83}, {"time": 950, "pitch": 63, "duration": 5, "velocity": 89}, {"time": 962, "pitch": 56, "duration": 4, "velocity": 81}, {"time": 962, "pitch": 59, "duration": 4, "velocity": 87}, {"time": 980, "pitch": 42, "duration": 41, "velocity": 85}, {"time": 980, "pitch": 54, "duration": 7, "velocity": 79}, {"time": 980, "pitch": 61, "duration": 12, "velocity": 80}, {"time": 986, "pitch": 49, "duration": 34, "velocity": 81}, {"time": 992, "pitch": 54, "duration": 4, "velocity": 81}, {"time": 998, "pitch": 54, "duration": 7, "velocity": 87}, {"time": 998, "pitch": 61, "duration": 10, "velocity": 88}, {"time": 1010, "pitch": 58, "duration": 7, "velocity": 86}, {"time": 1016, "pitch": 54, "duration": 5, "velocity": 75}, {"time": 1028, "pitch": 40, "duration": 39, "velocity": 81}, {"time": 1028, "pitch": 52, "duration": 7, "velocity": 78}, {"time": 1028, "pitch": 56, "duration": 19, "velocity": 80}, {"time": 1034, "pitch": 47, "duration": 32, "velocity": 85}, {"time": 1040, "pitch": 59, "duration": 7, "velocity": 83}, {"time": 1046, "pitch": 64, "duration": 15, "velocity": 87}, {"time": 1058, "pitch": 59, "duration": 7, "velocity": 88}, {"time": 1064, "pitch": 52, "duration": 2, "velocity": 86}, {"time": 1076, "pitch": 39, "duration": 13, "velocity": 88}, {"time": 1076, "pitch": 54, "duration": 4, "velocity": 82}, {"time": 1076, "pitch": 58, "duration": 13, "velocity": 85}, {"time": 1088, "pitch": 54, "duration": 3, "velocity": 80}, {"time": 1094, "pitch": 58, "duration": 4, "velocity": 83}, {"time": 1100, "pitch": 44, "duration": 18, "velocity": 88}, {"time": 1100, "pitch": 56, "duration": 7, "velocity": 83}, {"time": 1100, "pitch": 59, "duration": 13, "velocity": 87}, {"time": 1106, "pitch": 51, "duration": 11, "velocity": 82}, {"time": 1112, "pitch": 56, "duration": 8, "velocity": 83}, {"time": 1118, "pitch": 59, "duration": 4, "velocity": 82}, {"time": 1124, "pitch": 37, "duration": 36, "velocity": 81}, {"time": 1124, "pitch": 56, "duration": 7, "velocity": 79}, {"time": 1124, "pitch": 61, "duration": 11, "velocity": 83}, {"time": 1130, "pitch": 44, "duration": 30, "velocity": 78}, {"time": 1136, "pitch": 56, "duration": 4, "velocity": 78}, {"time": 1142, "pitch": 56, "duration": 8, "velocity": 83}, {"time": 1142, "pitch": 64, "duration": 11, "velocity": 89}, {"time": 1154, "pitch": 56, "duration": 4, "velocity": 80}, {"time": 1154, "pitch": 61, "duration": 8, "velocity": 84}, {"time": 1160, "pitch": 56, "duration": 9, "velocity": 76}, {"time": 1166, "pitch": 61, "duration": 18, "velocity": 80}, {"time": 1172, "pitch": 42, "duration": 42, "velocity": 89}, {"time": 1178, "pitch": 49, "duration": 36, "velocity": 78}, {"time": 1184, "pitch": 54, "duration": 18, "velocity": 87}, {"time": 1190, "pitch": 61, "duration": 14, "velocity": 89}, {"time": 1202, "pitch": 66, "duration": 14, "velocity": 88}, {"time": 1208, "pitch": 54, "duration": 7, "velocity": 89}, {"time": 1220, "pitch": 42, "duration": 24, "velocity": 90}, {"time": 1220, "pitch": 54, "duration": 7, "velocity": 88}, {"time": 1220, "pitch": 61, "duration": 13, "velocity": 87}, {"time": 1226, "pitch": 49, "duration": 18, "velocity": 82}, {"time": 1232, "pitch": 54, "duration": 3, "velocity": 77}, {"time": 1238, "pitch": 54, "duration": 8, "velocity": 85}, {"time": 1238, "pitch": 58, "duration": 9, "velocity": 87}, {"time": 1238, "pitch": 61, "duration": 10, "velocity": 87}, {"time": 1268, "pitch": 35, "duration": 32, "velocity": 87}, {"time": 1268, "pitch": 54, "duration": 8, "velocity": 81}, {"time": 1268, "pitch": 59, "duration": 9, "velocity": 87}, {"time": 1268, "pitch": 63, "duration": 11, "velocity": 87}, {"time": 1274, "pitch": 42, "duration": 25, "velocity": 77}, {"time": 1280, "pitch": 54, "duration": 3, "velocity": 77}, {"time": 1286, "pitch": 54, "duration": 6, "velocity": 91}, {"time": 1286, "pitch": 63, "duration": 10, "velocity": 90}, {"time": 1298, "pitch": 54, "duration": 3, "velocity": 87}, {"time": 1298, "pitch": 59, "duration": 7, "velocity": 88}, {"time": 1298, "pitch": 63, "duration": 14, "velocity": 75}, {"time": 1304, "pitch": 54, "duration": 3, "velocity": 81}, {"time": 1316, "pitch": 46, "duration": 36, "velocity": 83}, {"time": 1316, "pitch": 54, "duration": 3, "velocity": 83}, {"time": 1316, "pitch": 58, "duration": 7, "velocity": 87}, {"time": 1322, "pitch": 54, "duration": 19, "velocity": 78}, {"time": 1328, "pitch": 58, "duration": 11, "velocity": 73}, {"time": 1334, "pitch": 66, "duration": 20, "velocity": 85}, {"time": 1346, "pitch": 58, "duration": 7, "velocity": 89}, {"time": 1352, "pitch": 54, "duration": 3, "velocity": 88}, {"time": 1364, "pitch": 44, "duration": 44, "velocity": 87}, {"time": 1364, "pitch": 56, "duration": 7, "velocity": 77}, {"time": 1364, "pitch": 59, "duration": 13, "velocity": 81}, {"time": 1370, "pitch": 51, "duration": 28, "velocity": 80}, {"time": 1376, "pitch": 56, "duration": 8, "velocity": 89}, {"time": 1382, "pitch": 63, "duration": 12, "velocity": 91}, {"time": 1394, "pitch": 59, "duration": 11, "velocity": 89}, {"time": 1400, "pitch": 51, "duration": 10, "velocity": 79}, {"time": 1406, "pitch": 56, "duration": 4, "velocity": 86}, {"time": 1412, "pitch": 42, "duration": 40, "velocity": 88}, {"time": 1412, "pitch": 54, "duration": 14, "velocity": 82}, {"time": 1412, "pitch": 58, "duration": 14, "velocity": 80}, {"time": 1418, "pitch": 49, "duration": 35, "velocity": 81}, {"time": 1424, "pitch": 61, "duration": 7, "velocity": 78}, {"time": 1430, "pitch": 66, "duration": 10, "velocity": 88}, {"time": 1442, "pitch": 61, "duration": 6, "velocity": 90}, {"time": 1448, "pitch": 54, "duration": 7, "velocity": 88}, {"time": 1454, "pitch": 61, "duration": 3, "velocity": 82}, {"time": 1460, "pitch": 40, "duration": 43, "velocity": 84}, {"time": 1460, "pitch": 56, "duration": 13, "velocity": 82}, {"time": 1466, "pitch": 47, "duration": 26, "velocity": 81}, {"time": 1472, "pitch": 52, "duration": 5, "velocity": 83}, {"time": 1478, "pitch": 52, "duration": 4, "velocity": 73}, {"time": 1478, "pitch": 56, "duration": 15, "velocity": 80}, {"time": 1490, "pitch": 52, "duration": 7, "velocity": 80}, {"time": 1496, "pitch": 47, "duration": 7, "velocity": 90}, {"time": 1502, "pitch": 52, "duration": 4, "velocity": 80}, {"time": 1502, "pitch": 56, "duration": 3, "velocity": 78}, {"time": 1502, "pitch": 59, "duration": 3, "velocity": 80}, {"time": 1508, "pitch": 39, "duration": 12, "velocity": 88}, {"time": 1508, "pitch": 51, "duration": 6, "velocity": 83}, {"time": 1508, "pitch": 54, "duration": 12, "velocity": 83}, {"time": 1514, "pitch": 46, "duration": 6, "velocity": 85}, {"time": 1520, "pitch": 51, "duration": 6, "velocity": 89}, {"time": 1526, "pitch": 54, "duration": 3, "velocity": 88}, {"time": 1532, "pitch": 44, "duration": 17, "velocity": 87}, {"time": 1532, "pitch": 56, "duration": 8, "velocity": 76}, {"time": 1532, "pitch": 59, "duration": 14, "velocity": 87}, {"time": 1538, "pitch": 51, "duration": 10, "velocity": 82}, {"time": 1544, "pitch": 56, "duration": 9, "velocity": 82}, {"time": 1556, "pitch": 37, "duration": 35, "velocity": 88}, {"time": 1556, "pitch": 64, "duration": 14, "velocity": 72}, {"time": 1562, "pitch": 44, "duration": 28, "velocity": 83}, {"time": 1568, "pitch": 56, "duration": 7, "velocity": 91}, {"time": 1574, "pitch": 61, "duration": 8, "velocity": 88}, {"time": 1586, "pitch": 56, "duration": 3, "velocity": 87}, {"time": 1586, "pitch": 64, "duration": 12, "velocity": 88}, {"time": 1592, "pitch": 56, "duration": 6, "velocity": 73}, {"time": 1598, "pitch": 61, "duration": 3, "velocity": 78}, {"time": 1604, "pitch": 42, "duration": 45, "velocity": 89}, {"time": 1610, "pitch": 49, "duration": 15, "velocity": 83}, {"time": 1616, "pitch": 54, "duration": 8, "velocity": 90}, {"time": 1622, "pitch": 61, "duration": 15, "velocity": 89}, {"time": 1628, "pitch": 49, "duration": 20, "velocity": 88}, {"time": 1634, "pitch": 54, "duration": 4, "velocity": 89}, {"time": 1640, "pitch": 61, "duration": 10, "velocity": 89}, {"time": 1640, "pitch": 66, "duration": 8, "velocity": 83}, {"time": 1646, "pitch": 54, "duration": 4, "velocity": 86}, {"time": 1652, "pitch": 35, "duration": 32, "velocity": 87}, {"time": 1652, "pitch": 54, "duration": 8, "velocity": 81}, {"time": 1652, "pitch": 59, "duration": 9, "velocity": 87}, {"time": 1652, "pitch": 63, "duration": 11, "velocity": 87}, {"time": 1658, "pitch": 42, "duration": 25, "velocity": 77}, {"time": 1664, "pitch": 54, "duration": 3, "velocity": 77}, {"time": 1670, "pitch": 54, "duration": 6, "velocity": 91}, {"time": 1670, "pitch": 63, "duration": 10, "velocity": 90}, {"time": 1682, "pitch": 54, "duration": 3, "velocity": 87}, {"time": 1682, "pitch": 59, "duration": 7, "velocity": 88}, {"time": 1682, "pitch": 63, "duration": 14, "velocity": 75}, {"time": 1688, "pitch": 54, "duration": 3, "velocity": 81}, {"time": 1700, "pitch": 46, "duration": 36, "velocity": 83}, {"time": 1700, "pitch": 54, "duration": 3, "velocity": 83}, {"time": 1700, "pitch": 58, "duration": 7, "velocity": 87}, {"time": 1706, "pitch": 54, "duration": 19, "velocity": 78}, {"time": 1712, "pitch": 58, "duration": 11, "velocity": 73}, {"time": 1718, "pitch": 66, "duration": 20, "velocity": 85}, {"time": 1730, "pitch": 58, "duration": 7, "velocity": 89}, {"time": 1736, "pitch": 54, "duration": 3, "velocity": 88}, {"time": 1748, "pitch": 44, "duration": 44, "velocity": 87}, {"time": 1748, "pitch": 56, "duration": 7, "velocity": 77}, {"time": 1748, "pitch": 59, "duration": 13, "velocity": 81}, {"time": 1754, "pitch": 51, "duration": 28, "velocity": 80}, {"time": 1760, "pitch": 56, "duration": 8, "velocity": 89}, {"time": 1766, "pitch": 63, "duration": 12, "velocity": 91}, {"time": 1778, "pitch": 59, "duration": 11, "velocity": 89}, {"time": 1784, "pitch": 51, "duration": 10, "velocity": 79}, {"time": 1790, "pitch": 56, "duration": 4, "velocity": 86}, {"time": 1796, "pitch": 42, "duration": 40, "velocity": 88}, {"time": 1796, "pitch": 54, "duration": 14, "velocity": 82}, {"time": 1796, "pitch": 58, "duration": 14, "velocity": 80}, {"time": 1802, "pitch": 49, "duration": 35, "velocity": 81}, {"time": 1808, "pitch": 61, "duration": 7, "velocity": 78}, {"time": 1814, "pitch": 66, "duration": 10, "velocity": 88}, {"time": 1826, "pitch": 61, "duration": 6, "velocity": 90}, {"time": 1832, "pitch": 54, "duration": 7, "velocity": 88}, {"time": 1838, "pitch": 61, "duration": 3, "velocity": 82}, {"time": 1844, "pitch": 40, "duration": 43, "velocity": 84}, {"time": 1844, "pitch": 56, "duration": 13, "velocity": 82}, {"time": 1850, "pitch": 47, "duration": 26, "velocity": 81}, {"time": 1856, "pitch": 52, "duration": 5, "velocity": 83}, {"time": 1862, "pitch": 52, "duration": 4, "velocity": 73}, {"time": 1862, "pitch": 56, "duration": 15, "velocity": 80}, {"time": 1874, "pitch": 52, "duration": 7, "velocity": 80}, {"time": 1880, "pitch": 47, "duration": 7, "velocity": 90}, {"time": 1886, "pitch": 52, "duration": 4, "velocity": 80}, {"time": 1886, "pitch": 56, "duration": 3, "velocity": 78}, {"time": 1886, "pitch": 59, "duration": 3, "velocity": 80}, {"time": 1892, "pitch": 39, "duration": 12, "velocity": 88}, {"time": 1892, "pitch": 51, "duration": 6, "velocity": 83}, {"time": 1892, "pitch": 54, "duration": 12, "velocity": 83}, {"time": 1898, "pitch": 46, "duration": 6, "velocity": 85}, {"time": 1904, "pitch": 51, "duration": 6, "velocity": 89}, {"time": 1910, "pitch": 54, "duration": 3, "velocity": 88}, {"time": 1916, "pitch": 44, "duration": 17, "velocity": 87}, {"time": 1916, "pitch": 56, "duration": 8, "velocity": 76}, {"time": 1916, "pitch": 59, "duration": 14, "velocity": 87}, {"time": 1922, "pitch": 51, "duration": 10, "velocity": 82}, {"time": 1928, "pitch": 56, "duration": 9, "velocity": 82}, {"time": 1940, "pitch": 37, "duration": 35, "velocity": 88}, {"time": 1940, "pitch": 64, "duration": 14, "velocity": 72}, {"time": 1946, "pitch": 44, "duration": 28, "velocity": 83}, {"time": 1952, "pitch": 56, "duration": 7, "velocity": 91}, {"time": 1958, "pitch": 61, "duration": 8, "velocity": 88}, {"time": 1970, "pitch": 56, "duration": 3, "velocity": 87}, {"time": 1970, "pitch": 64, "duration": 12, "velocity": 88}, {"time": 1976, "pitch": 56, "duration": 6, "velocity": 73}, {"time": 1982, "pitch": 61, "duration": 3, "velocity": 78}, {"time": 1988, "pitch": 42, "duration": 45, "velocity": 89}, {"time": 1994, "pitch": 49, "duration": 15, "velocity": 83}, {"time": 2000, "pitch": 54, "duration": 8, "velocity": 90}, {"time": 2006, "pitch": 61, "duration": 15, "velocity": 89}, {"time": 2012, "pitch": 49, "duration": 20, "velocity": 88}, {"time": 2018, "pitch": 54, "duration": 4, "velocity": 89}, {"time": 2024, "pitch": 61, "duration": 10, "velocity": 89}, {"time": 2024, "pitch": 66, "duration": 8, "velocity": 83}, {"time": 2030, "pitch": 54, "duration": 4, "velocity": 86}, {"time": 2032, "pitch": 52, "duration": 6, "velocity": 72}, {"time": 2034, "pitch": 56, "duration": 10, "velocity": 76}, {"time": 2036, "pitch": 59, "duration": 8, "velocity": 80}, {"time": 2036, "pitch": 40, "duration": 44, "velocity": 83}, {"time": 2036, "pitch": 64, "duration": 10, "velocity": 87}, {"time": 2042, "pitch": 47, "duration": 39, "velocity": 81}, {"time": 2048, "pitch": 52, "duration": 42, "velocity": 82}, {"time": 2054, "pitch": 59, "duration": 43, "velocity": 82}, {"time": 2084, "pitch": 40, "duration": 37, "velocity": 87}, {"time": 2090, "pitch": 47, "duration": 29, "velocity": 80}, {"time": 2095, "pitch": 52, "duration": 21, "velocity": 91}, {"time": 2102, "pitch": 56, "duration": 14, "velocity": 91}, {"time": 2102, "pitch": 59, "duration": 14, "velocity": 86}, {"time": 2129, "pitch": 58, "duration": 16, "velocity": 81}, {"time": 2130, "pitch": 54, "duration": 14, "velocity": 70}, {"time": 2131, "pitch": 39, "duration": 45, "velocity": 89}, {"time": 2132, "pitch": 51, "duration": 6, "velocity": 81}, {"time": 2137, "pitch": 46, "duration": 38, "velocity": 81}, {"time": 2143, "pitch": 51, "duration": 36, "velocity": 82}, {"time": 2149, "pitch": 58, "duration": 31, "velocity": 84}, {"time": 2149, "pitch": 54, "duration": 30, "velocity": 83}, {"time": 2149, "pitch": 63, "duration": 31, "velocity": 86}, {"time": 2179, "pitch": 59, "duration": 14, "velocity": 81}, {"time": 2179, "pitch": 56, "duration": 8, "velocity": 77}, {"time": 2179, "pitch": 44, "duration": 33, "velocity": 88}, {"time": 2186, "pitch": 51, "duration": 24, "velocity": 82}, {"time": 2191, "pitch": 56, "duration": 22, "velocity": 84}, {"time": 2198, "pitch": 63, "duration": 15, "velocity": 87}, {"time": 2226, "pitch": 64, "duration": 14, "velocity": 85}, {"time": 2227, "pitch": 37, "duration": 2, "velocity": 89}, {"time": 2234, "pitch": 49, "duration": 26, "velocity": 78}, {"time": 2239, "pitch": 56, "duration": 19, "velocity": 88}, {"time": 2244, "pitch": 61, "duration": 10, "velocity": 88}, {"time": 2257, "pitch": 64, "duration": 20, "velocity": 86}, {"time": 2257, "pitch": 61, "duration": 20, "velocity": 87}, {"time": 2275, "pitch": 42, "duration": 34, "velocity": 88}, {"time": 2281, "pitch": 49, "duration": 26, "velocity": 78}, {"time": 2287, "pitch": 54, "duration": 19, "velocity": 86}, {"time": 2293, "pitch": 61, "duration": 14, "velocity": 83}, {"time": 2305, "pitch": 66, "duration": 5, "velocity": 85}, {"time": 2324, "pitch": 63, "duration": 18, "velocity": 88}, {"time": 2324, "pitch": 54, "duration": 8, "velocity": 85}, {"time": 2324, "pitch": 35, "duration": 43, "velocity": 86}, {"time": 2330, "pitch": 42, "duration": 35, "velocity": 79}, {"time": 2336, "pitch": 54, "duration": 15, "velocity": 87}, {"time": 2342, "pitch": 59, "duration": 9, "velocity": 83}, {"time": 2354, "pitch": 63, "duration": 28, "velocity": 89}, {"time": 2354, "pitch": 59, "duration": 21, "velocity": 90}, {"time": 2354, "pitch": 54, "duration": 20, "velocity": 88}, {"time": 2372, "pitch": 42, "duration": 22, "velocity": 88}, {"time": 2377, "pitch": 49, "duration": 16, "velocity": 82}, {"time": 2383, "pitch": 54, "duration": 9, "velocity": 98}, {"time": 2396, "pitch": 54, "duration": 5, "velocity": 86}, {"time": 2396, "pitch": 59, "duration": 9, "velocity": 88}, {"time": 2396, "pitch": 47, "duration": 16, "velocity": 101}, {"time": 2401, "pitch": 51, "duration": 10, "velocity": 80}, {"time": 2407, "pitch": 54, "duration": 10, "velocity": 96}, {"time": 2419, "pitch": 40, "duration": 46, "velocity": 87}, {"time": 2425, "pitch": 47, "duration": 40, "velocity": 88}, {"time": 2430, "pitch": 52, "duration": 5, "velocity": 87}, {"time": 2436, "pitch": 52, "duration": 8, "velocity": 64}, {"time": 2437, "pitch": 59, "duration": 7, "velocity": 76}, {"time": 2449, "pitch": 52, "duration": 26, "velocity": 87}, {"time": 2449, "pitch": 56, "duration": 28, "velocity": 86}, {"time": 2467, "pitch": 40, "duration": 45, "velocity": 86}, {"time": 2473, "pitch": 47, "duration": 33, "velocity": 81}, {"time": 2479, "pitch": 52, "duration": 4, "velocity": 89}, {"time": 2485, "pitch": 52, "duration": 7, "velocity": 84}, {"time": 2486, "pitch": 59, "duration": 9, "velocity": 87}, {"time": 2497, "pitch": 56, "duration": 3, "velocity": 87}, {"time": 2497, "pitch": 52, "duration": 4, "velocity": 87}, {"time": 2516, "pitch": 51, "duration": 14, "velocity": 78}, {"time": 2516, "pitch": 54, "duration": 14, "velocity": 78}, {"time": 2516, "pitch": 39, "duration": 38, "velocity": 89}, {"time": 2522, "pitch": 46, "duration": 31, "velocity": 76}, {"time": 2528, "pitch": 58, "duration": 3, "velocity": 80}, {"time": 2534, "pitch": 54, "duration": 8, "velocity": 88}, {"time": 2534, "pitch": 58, "duration": 8, "velocity": 87}, {"time": 2534, "pitch": 63, "duration": 9, "velocity": 92}, {"time": 2534, "pitch": 51, "duration": 8, "velocity": 87}, {"time": 2546, "pitch": 58, "duration": 19, "velocity": 83}, {"time": 2564, "pitch": 44, "duration": 45, "velocity": 88}, {"time": 2570, "pitch": 51, "duration": 38, "velocity": 82}, {"time": 2575, "pitch": 56, "duration": 7, "velocity": 80}, {"time": 2581, "pitch": 58, "duration": 15, "velocity": 98}, {"time": 2599, "pitch": 59, "duration": 5, "velocity": 88}, {"time": 2599, "pitch": 56, "duration": 8, "velocity": 83}, {"time": 2612, "pitch": 40, "duration": 44, "velocity": 89}, {"time": 2612, "pitch": 59, "duration": 13, "velocity": 81}, {"time": 2612, "pitch": 52, "duration": 9, "velocity": 82}, {"time": 2618, "pitch": 47, "duration": 37, "velocity": 79}, {"time": 2624, "pitch": 52, "duration": 19, "velocity": 86}, {"time": 2630, "pitch": 56, "duration": 10, "velocity": 81}, {"time": 2642, "pitch": 59, "duration": 3, "velocity": 89}, {"time": 2655, "pitch": 52, "duration": 7, "velocity": 72}, {"time": 2657, "pitch": 56, "duration": 10, "velocity": 82}, {"time": 2658, "pitch": 59, "duration": 10, "velocity": 72}, {"time": 2659, "pitch": 40, "duration": 34, "velocity": 84}, {"time": 2659, "pitch": 64, "duration": 13, "velocity": 81}, {"time": 2665, "pitch": 47, "duration": 28, "velocity": 80}, {"time": 2671, "pitch": 52, "duration": 4, "velocity": 74}, {"time": 2677, "pitch": 59, "duration": 15, "velocity": 83}, {"time": 2677, "pitch": 56, "duration": 14, "velocity": 80}, {"time": 2678, "pitch": 52, "duration": 12, "velocity": 81}, {"time": 2707, "pitch": 42, "duration": 42, "velocity": 86}, {"time": 2707, "pitch": 61, "duration": 19, "velocity": 81}, {"time": 2713, "pitch": 49, "duration": 34, "velocity": 77}, {"time": 2718, "pitch": 54, "duration": 7, "velocity": 83}, {"time": 2725, "pitch": 66, "duration": 3, "velocity": 84}, {"time": 2737, "pitch": 61, "duration": 4, "velocity": 84}, {"time": 2737, "pitch": 70, "duration": 6, "velocity": 85}, {"time": 2751, "pitch": 61, "duration": 2, "velocity": 74}, {"time": 2752, "pitch": 66, "duration": 3, "velocity": 81}, {"time": 2754, "pitch": 42, "duration": 33, "velocity": 85}, {"time": 2754, "pitch": 73, "duration": 4, "velocity": 86}, {"time": 2776, "pitch": 73, "duration": 2, "velocity": 42}, {"time": 2777, "pitch": 78, "duration": 3, "velocity": 68}, {"time": 2779, "pitch": 85, "duration": 3, "velocity": 86}, {"time": 2804, "pitch": 35, "duration": 27, "velocity": 85}, {"time": 2804, "pitch": 54, "duration": 4, "velocity": 81}, {"time": 2804, "pitch": 63, "duration": 14, "velocity": 85}, {"time": 2810, "pitch": 54, "duration": 9, "velocity": 77}, {"time": 2816, "pitch": 59, "duration": 3, "velocity": 79}, {"time": 2822, "pitch": 54, "duration": 6, "velocity": 80}, {"time": 2822, "pitch": 59, "duration": 6, "velocity": 82}, {"time": 2822, "pitch": 66, "duration": 9, "velocity": 87}, {"time": 2834, "pitch": 54, "duration": 5, "velocity": 87}, {"time": 2834, "pitch": 63, "duration": 7, "velocity": 87}, {"time": 2840, "pitch": 59, "duration": 3, "velocity": 84}, {"time": 2852, "pitch": 42, "duration": 40, "velocity": 85}, {"time": 2852, "pitch": 54, "duration": 14, "velocity": 80}, {"time": 2852, "pitch": 58, "duration": 14, "velocity": 82}, {"time": 2858, "pitch": 49, "duration": 34, "velocity": 75}, {"time": 2864, "pitch": 61, "duration": 6, "velocity": 80}, {"time": 2870, "pitch": 66, "duration": 12, "velocity": 87}, {"time": 2882, "pitch": 61, "duration": 7, "velocity": 87}, {"time": 2888, "pitch": 54, "duration": 3, "velocity": 87}, {"time": 2900, "pitch": 44, "duration": 36, "velocity": 84}, {"time": 2900, "pitch": 56, "duration": 6, "velocity": 77}, {"time": 2900, "pitch": 59, "duration": 13, "velocity": 83}, {"time": 2906, "pitch": 51, "duration": 30, "velocity": 76}, {"time": 2912, "pitch": 56, "duration": 8, "velocity": 83}, {"time": 2918, "pitch": 63, "duration": 5, "velocity": 89}, {"time": 2930, "pitch": 56, "duration": 4, "velocity": 81}, {"time": 2930, "pitch": 59, "duration": 4, "velocity": 87}, {"time": 2948, "pitch": 42, "duration": 41, "velocity": 85}, {"time": 2948, "pitch": 54, "duration": 7, "velocity": 79}, {"time": 2948, "pitch": 61, "duration": 12, "velocity": 80}, {"time": 2954, "pitch": 49, "duration": 34, "velocity": 81}, {"time": 2960, "pitch": 54, "duration": 4, "velocity": 81}, {"time": 2966, "pitch": 54, "duration": 7, "velocity": 87}, {"time": 2966, "pitch": 61, "duration": 10, "velocity": 88}, {"time": 2978, "pitch": 58, "duration": 7, "velocity": 86}, {"time": 2984, "pitch": 54, "duration": 5, "velocity": 75}, {"time": 2996, "pitch": 40, "duration": 39, "velocity": 81}, {"time": 2996, "pitch": 52, "duration": 7, "velocity": 78}, {"time": 2996, "pitch": 56, "duration": 19, "velocity": 80}, {"time": 3002, "pitch": 47, "duration": 32, "velocity": 85}, {"time": 3008, "pitch": 59, "duration": 7, "velocity": 83}, {"time": 3014, "pitch": 64, "duration": 15, "velocity": 87}, {"time": 3026, "pitch": 59, "duration": 7, "velocity": 88}, {"time": 3032, "pitch": 52, "duration": 2, "velocity": 86}, {"time": 3044, "pitch": 39, "duration": 13, "velocity": 88}, {"time": 3044, "pitch": 54, "duration": 4, "velocity": 82}, {"time": 3044, "pitch": 58, "duration": 13, "velocity": 85}, {"time": 3056, "pitch": 54, "duration": 3, "velocity": 80}, {"time": 3062, "pitch": 58, "duration": 4, "velocity": 83}, {"time": 3068, "pitch": 44, "duration": 18, "velocity": 88}, {"time": 3068, "pitch": 56, "duration": 7, "velocity": 83}, {"time": 3068, "pitch": 59, "duration": 13, "velocity": 87}, {"time": 3074, "pitch": 51, "duration": 11, "velocity": 82}, {"time": 3080, "pitch": 56, "duration": 8, "velocity": 83}, {"time": 3086, "pitch": 59, "duration": 4, "velocity": 82}, {"time": 3092, "pitch": 37, "duration": 36, "velocity": 81}, {"time": 3092, "pitch": 56, "duration": 7, "velocity": 79}, {"time": 3092, "pitch": 61, "duration": 11, "velocity": 83}, {"time": 3098, "pitch": 44, "duration": 30, "velocity": 78}, {"time": 3104, "pitch": 56, "duration": 4, "velocity": 78}, {"time": 3110, "pitch": 56, "duration": 8, "velocity": 83}, {"time": 3110, "pitch": 64, "duration": 11, "velocity": 89}, {"time": 3122, "pitch": 56, "duration": 4, "velocity": 80}, {"time": 3122, "pitch": 61, "duration": 8, "velocity": 84}, {"time": 3128, "pitch": 56, "duration": 9, "velocity": 76}, {"time": 3134, "pitch": 61, "duration": 18, "velocity": 80}, {"time": 3140, "pitch": 42, "duration": 42, "velocity": 89}, {"time": 3146, "pitch": 49, "duration": 36, "velocity": 78}, {"time": 3152, "pitch": 54, "duration": 18, "velocity": 87}, {"time": 3158, "pitch": 61, "duration": 14, "velocity": 89}, {"time": 3170, "pitch": 66, "duration": 14, "velocity": 88}, {"time": 3176, "pitch": 54, "duration": 7, "velocity": 89}, {"time": 3188, "pitch": 42, "duration": 24, "velocity": 90}, {"time": 3188, "pitch": 54, "duration": 7, "velocity": 88}, {"time": 3188, "pitch": 61, "duration": 13, "velocity": 87}, {"time": 3194, "pitch": 49, "duration": 18, "velocity": 82}, {"time": 3200, "pitch": 54, "duration": 3, "velocity": 77}, {"time": 3206, "pitch": 54, "duration": 8, "velocity": 85}, {"time": 3206, "pitch": 58, "duration": 9, "velocity": 87}, {"time": 3206, "pitch": 61, "duration": 10, "velocity": 87}, {"time": 3236, "pitch": 35, "duration": 32, "velocity": 87}, {"time": 3236, "pitch": 54, "duration": 8, "velocity": 81}, {"time": 3236, "pitch": 59, "duration": 9, "velocity": 87}, {"time": 3236, "pitch": 63, "duration": 11, "velocity": 87}, {"time": 3242, "pitch": 42, "duration": 25, "velocity": 77}, {"time": 3248, "pitch": 54, "duration": 3, "velocity": 77}, {"time": 3254, "pitch": 54, "duration": 6, "velocity": 91}, {"time": 3254, "pitch": 63, "duration": 10, "velocity": 90}, {"time": 3266, "pitch": 54, "duration": 3, "velocity": 87}, {"time": 3266, "pitch": 59, "duration": 7, "velocity": 88}, {"time": 3266, "pitch": 63, "duration": 14, "velocity": 75}, {"time": 3272, "pitch": 54, "duration": 3, "velocity": 81}, {"time": 3284, "pitch": 46, "duration": 36, "velocity": 83}, {"time": 3284, "pitch": 54, "duration": 3, "velocity": 83}, {"time": 3284, "pitch": 58, "duration": 7, "velocity": 87}, {"time": 3290, "pitch": 54, "duration": 19, "velocity": 78}, {"time": 3296, "pitch": 58, "duration": 11, "velocity": 73}, {"time": 3302, "pitch": 66, "duration": 20, "velocity": 85}, {"time": 3314, "pitch": 58, "duration": 7, "velocity": 89}, {"time": 3320, "pitch": 54, "duration": 3, "velocity": 88}, {"time": 3332, "pitch": 44, "duration": 44, "velocity": 87}, {"time": 3332, "pitch": 56, "duration": 7, "velocity": 77}, {"time": 3332, "pitch": 59, "duration": 13, "velocity": 81}, {"time": 3338, "pitch": 51, "duration": 28, "velocity": 80}, {"time": 3344, "pitch": 56, "duration": 8, "velocity": 89}, {"time": 3350, "pitch": 63, "duration": 12, "velocity": 91}, {"time": 3362, "pitch": 59, "duration": 11, "velocity": 89}, {"time": 3368, "pitch": 51, "duration": 10, "velocity": 79}, {"time": 3374, "pitch": 56, "duration": 4, "velocity": 86}, {"time": 3380, "pitch": 42, "duration": 40, "velocity": 88}, {"time": 3380, "pitch": 54, "duration": 14, "velocity": 82}, {"time": 3380, "pitch": 58, "duration": 14, "velocity": 80}, {"time": 3386, "pitch": 49, "duration": 35, "velocity": 81}, {"time": 3392, "pitch": 61, "duration": 7, "velocity": 78}, {"time": 3398, "pitch": 66, "duration": 10, "velocity": 88}, {"time": 3410, "pitch": 61, "duration": 6, "velocity": 90}, {"time": 3416, "pitch": 54, "duration": 7, "velocity": 88}, {"time": 3422, "pitch": 61, "duration": 3, "velocity": 82}, {"time": 3428, "pitch": 40, "duration": 43, "velocity": 84}, {"time": 3428, "pitch": 56, "duration": 13, "velocity": 82}, {"time": 3434, "pitch": 47, "duration": 26, "velocity": 81}, {"time": 3440, "pitch": 52, "duration": 5, "velocity": 83}, {"time": 3446, "pitch": 52, "duration": 4, "velocity": 73}, {"time": 3446, "pitch": 56, "duration": 15, "velocity": 80}, {"time": 3458, "pitch": 52, "duration": 7, "velocity": 80}, {"time": 3464, "pitch": 47, "duration": 7, "velocity": 90}, {"time": 3470, "pitch": 52, "duration": 4, "velocity": 80}, {"time": 3470, "pitch": 56, "duration": 3, "velocity": 78}, {"time": 3470, "pitch": 59, "duration": 3, "velocity": 80}, {"time": 3476, "pitch": 39, "duration": 12, "velocity": 88}, {"time": 3476, "pitch": 51, "duration": 6, "velocity": 83}, {"time": 3476, "pitch": 54, "duration": 12, "velocity": 83}, {"time": 3482, "pitch": 46, "duration": 6, "velocity": 85}, {"time": 3488, "pitch": 51, "duration": 6, "velocity": 89}, {"time": 3494, "pitch": 54, "duration": 3, "velocity": 88}, {"time": 3500, "pitch": 44, "duration": 17, "velocity": 87}, {"time": 3500, "pitch": 56, "duration": 8, "velocity": 76}, {"time": 3500, "pitch": 59, "duration": 14, "velocity": 87}, {"time": 3506, "pitch": 51, "duration": 10, "velocity": 82}, {"time": 3512, "pitch": 56, "duration": 9, "velocity": 82}, {"time": 3524, "pitch": 37, "duration": 35, "velocity": 88}, {"time": 3524, "pitch": 64, "duration": 14, "velocity": 72}, {"time": 3530, "pitch": 44, "duration": 28, "velocity": 83}, {"time": 3536, "pitch": 56, "duration": 7, "velocity": 91}, {"time": 3542, "pitch": 61, "duration": 8, "velocity": 88}, {"time": 3554, "pitch": 56, "duration": 3, "velocity": 87}, {"time": 3554, "pitch": 64, "duration": 12, "velocity": 88}, {"time": 3560, "pitch": 56, "duration": 6, "velocity": 73}, {"time": 3566, "pitch": 61, "duration": 3, "velocity": 78}, {"time": 3572, "pitch": 42, "duration": 45, "velocity": 89}, {"time": 3578, "pitch": 49, "duration": 15, "velocity": 83}, {"time": 3584, "pitch": 54, "duration": 8, "velocity": 90}, {"time": 3590, "pitch": 61, "duration": 15, "velocity": 89}, {"time": 3596, "pitch": 49, "duration": 20, "velocity": 88}, {"time": 3602, "pitch": 54, "duration": 4, "velocity": 89}, {"time": 3608, "pitch": 61, "duration": 10, "velocity": 89}, {"time": 3608, "pitch": 66, "duration": 8, "velocity": 83}, {"time": 3614, "pitch": 54, "duration": 4, "velocity": 86}, {"time": 3619, "pitch": 66, "duration": 17, "velocity": 80}, {"time": 3620, "pitch": 59, "duration": 17, "velocity": 79}, {"time": 3620, "pitch": 35, "duration": 2, "velocity": 87}, {"time": 3631, "pitch": 47, "duration": 33, "velocity": 78}, {"time": 3637, "pitch": 54, "duration": 15, "velocity": 89}, {"time": 3643, "pitch": 59, "duration": 3, "velocity": 83}, {"time": 3649, "pitch": 66, "duration": 9, "velocity": 86}, {"time": 3649, "pitch": 59, "duration": 5, "velocity": 85}, {"time": 3655, "pitch": 54, "duration": 9, "velocity": 79}, {"time": 3661, "pitch": 59, "duration": 8, "velocity": 81}, {"time": 3661, "pitch": 63, "duration": 7, "velocity": 87}, {"time": 3667, "pitch": 47, "duration": 33, "velocity": 90}, {"time": 3673, "pitch": 54, "duration": 14, "velocity": 82}, {"time": 3679, "pitch": 59, "duration": 3, "velocity": 86}, {"time": 3685, "pitch": 69, "duration": 8, "velocity": 88}, {"time": 3685, "pitch": 63, "duration": 8, "velocity": 91}, {"time": 3685, "pitch": 59, "duration": 8, "velocity": 89}, {"time": 3691, "pitch": 54, "duration": 7, "velocity": 87}, {"time": 3697, "pitch": 59, "duration": 8, "velocity": 89}, {"time": 3697, "pitch": 66, "duration": 8, "velocity": 89}, {"time": 3703, "pitch": 47, "duration": 3, "velocity": 88}, {"time": 3715, "pitch": 68, "duration": 17, "velocity": 85}, {"time": 3715, "pitch": 59, "duration": 14, "velocity": 87}, {"time": 3715, "pitch": 64, "duration": 15, "velocity": 86}, {"time": 3715, "pitch": 40, "duration": 2, "velocity": 88}, {"time": 3728, "pitch": 47, "duration": 15, "velocity": 61}, {"time": 3733, "pitch": 59, "duration": 4, "velocity": 82}, {"time": 3739, "pitch": 59, "duration": 9, "velocity": 91}, {"time": 3740, "pitch": 68, "duration": 21, "velocity": 90}, {"time": 3740, "pitch": 64, "duration": 10, "velocity": 93}, {"time": 3745, "pitch": 56, "duration": 5, "velocity": 72}, {"time": 3752, "pitch": 52, "duration": 2, "velocity": 85}, {"time": 3757, "pitch": 59, "duration": 4, "velocity": 86}, {"time": 3764, "pitch": 47, "duration": 7, "velocity": 88}, {"time": 3764, "pitch": 59, "duration": 8, "velocity": 88}, {"time": 3764, "pitch": 64, "duration": 13, "velocity": 87}, {"time": 3769, "pitch": 52, "duration": 13, "velocity": 79}, {"time": 3775, "pitch": 56, "duration": 10, "velocity": 81}, {"time": 3780, "pitch": 59, "duration": 7, "velocity": 92}, {"time": 3787, "pitch": 52, "duration": 8, "velocity": 98}, {"time": 3793, "pitch": 59, "duration": 6, "velocity": 93}, {"time": 3793, "pitch": 64, "duration": 8, "velocity": 94}, {"time": 3799, "pitch": 56, "duration": 2, "velocity": 82}, {"time": 3811, "pitch": 66, "duration": 12, "velocity": 87}, {"time": 3811, "pitch": 63, "duration": 7, "velocity": 88}, {"time": 3812, "pitch": 39, "duration": 34, "velocity": 88}, {"time": 3817, "pitch": 46, "duration": 28, "velocity": 80}, {"time": 3822, "pitch": 63, "duration": 2, "velocity": 81}, {"time": 3829, "pitch": 70, "duration": 5, "velocity": 91}, {"time": 3829, "pitch": 63, "duration": 3, "velocity": 93}, {"time": 3841, "pitch": 66, "duration": 7, "velocity": 91}, {"time": 3841, "pitch": 63, "duration": 4, "velocity": 92}, {"time": 3854, "pitch": 63, "duration": 3, "velocity": 80}, {"time": 3859, "pitch": 68, "duration": 5, "velocity": 85}, {"time": 3860, "pitch": 63, "duration": 4, "velocity": 87}, {"time": 3860, "pitch": 44, "duration": 37, "velocity": 90}, {"time": 3865, "pitch": 51, "duration": 14, "velocity": 79}, {"time": 3871, "pitch": 56, "duration": 3, "velocity": 74}, {"time": 3877, "pitch": 58, "duration": 8, "velocity": 96}, {"time": 3883, "pitch": 51, "duration": 8, "velocity": 87}, {"time": 3890, "pitch": 59, "duration": 5, "velocity": 92}, {"time": 3890, "pitch": 63, "duration": 6, "velocity": 89}, {"time": 3890, "pitch": 56, "duration": 5, "velocity": 87}, {"time": 3896, "pitch": 51, "duration": 2, "velocity": 87}, {"time": 3908, "pitch": 37, "duration": 2, "velocity": 89}, {"time": 3908, "pitch": 64, "duration": 10, "velocity": 86}, {"time": 3908, "pitch": 56, "duration": 7, "velocity": 87}, {"time": 3919, "pitch": 49, "duration": 19, "velocity": 83}, {"time": 3926, "pitch": 56, "duration": 7, "velocity": 89}, {"time": 3931, "pitch": 68, "duration": 14, "velocity": 91}, {"time": 3931, "pitch": 64, "duration": 10, "velocity": 94}, {"time": 3931, "pitch": 61, "duration": 8, "velocity": 90}, {"time": 3937, "pitch": 56, "duration": 3, "velocity": 82}, {"time": 3943, "pitch": 49, "duration": 2, "velocity": 88}, {"time": 3956, "pitch": 66, "duration": 7, "velocity": 85}, {"time": 3956, "pitch": 39, "duration": 33, "velocity": 89}, {"time": 3956, "pitch": 63, "duration": 5, "velocity": 87}, {"time": 3961, "pitch": 46, "duration": 21, "velocity": 78}, {"time": 3967, "pitch": 63, "duration": 2, "velocity": 77}, {"time": 3973, "pitch": 63, "duration": 3, "velocity": 88}, {"time": 3973, "pitch": 70, "duration": 3, "velocity": 87}, {"time": 3979, "pitch": 70, "duration": 7, "velocity": 92}, {"time": 3979, "pitch": 63, "duration": 5, "velocity": 92}, {"time": 3985, "pitch": 46, "duration": 4, "velocity": 83}, {"time": 3991, "pitch": 66, "duration": 3, "velocity": 87}, {"time": 3991, "pitch": 63, "duration": 3, "velocity": 89}, {"time": 4003, "pitch": 37, "duration": 35, "velocity": 90}, {"time": 4003, "pitch": 65, "duration": 13, "velocity": 89}, {"time": 4004, "pitch": 61, "duration": 5, "velocity": 79}, {"time": 4009, "pitch": 44, "duration": 28, "velocity": 77}, {"time": 4015, "pitch": 61, "duration": 3, "velocity": 86}, {"time": 4021, "pitch": 65, "duration": 7, "velocity": 89}, {"time": 4021, "pitch": 68, "duration": 4, "velocity": 90}, {"time": 4021, "pitch": 61, "duration": 9, "velocity": 90}, {"time": 4033, "pitch": 73, "duration": 8, "velocity": 94}, {"time": 4033, "pitch": 61, "duration": 4, "velocity": 92}, {"time": 4033, "pitch": 65, "duration": 8, "velocity": 96}, {"time": 4051, "pitch": 54, "duration": 8, "velocity": 86}, {"time": 4051, "pitch": 42, "duration": 43, "velocity": 88}, {"time": 4051, "pitch": 61, "duration": 9, "velocity": 87}, {"time": 4057, "pitch": 49, "duration": 29, "velocity": 88}, {"time": 4064, "pitch": 54, "duration": 3, "velocity": 79}, {"time": 4069, "pitch": 54, "duration": 9, "velocity": 92}, {"time": 4069, "pitch": 61, "duration": 7, "velocity": 90}, {"time": 4081, "pitch": 66, "duration": 6, "velocity": 87}, {"time": 4081, "pitch": 61, "duration": 3, "velocity": 94}, {"time": 4082, "pitch": 58, "duration": 2, "velocity": 94}, {"time": 4099, "pitch": 70, "duration": 10, "velocity": 89}, {"time": 4099, "pitch": 78, "duration": 11, "velocity": 80}, {"time": 4099, "pitch": 66, "duration": 11, "velocity": 85}, {"time": 4099, "pitch": 42, "duration": 11, "velocity": 89}, {"time": 4148, "pitch": 35, "duration": 32, "velocity": 87}, {"time": 4148, "pitch": 54, "duration": 8, "velocity": 81}, {"time": 4148, "pitch": 59, "duration": 9, "velocity": 87}, {"time": 4148, "pitch": 63, "duration": 11, "velocity": 87}, {"time": 4154, "pitch": 42, "duration": 25, "velocity": 77}, {"time": 4160, "pitch": 54, "duration": 3, "velocity": 77}, {"time": 4166, "pitch": 54, "duration": 6, "velocity": 91}, {"time": 4166, "pitch": 63, "duration": 10, "velocity": 90}, {"time": 4178, "pitch": 54, "duration": 3, "velocity": 87}, {"time": 4178, "pitch": 59, "duration": 7, "velocity": 88}, {"time": 4178, "pitch": 63, "duration": 14, "velocity": 75}, {"time": 4184, "pitch": 54, "duration": 3, "velocity": 81}, {"time": 4196, "pitch": 46, "duration": 36, "velocity": 83}, {"time": 4196, "pitch": 54, "duration": 3, "velocity": 83}, {"time": 4196, "pitch": 58, "duration": 7, "velocity": 87}, {"time": 4202, "pitch": 54, "duration": 19, "velocity": 78}, {"time": 4208, "pitch": 58, "duration": 11, "velocity": 73}, {"time": 4214, "pitch": 66, "duration": 20, "velocity": 85}, {"time": 4226, "pitch": 58, "duration": 7, "velocity": 89}, {"time": 4232, "pitch": 54, "duration": 3, "velocity": 88}, {"time": 4244, "pitch": 44, "duration": 44, "velocity": 87}, {"time": 4244, "pitch": 56, "duration": 7, "velocity": 77}, {"time": 4244, "pitch": 59, "duration": 13, "velocity": 81}, {"time": 4250, "pitch": 51, "duration": 28, "velocity": 80}, {"time": 4256, "pitch": 56, "duration": 8, "velocity": 89}, {"time": 4262, "pitch": 63, "duration": 12, "velocity": 91}, {"time": 4274, "pitch": 59, "duration": 11, "velocity": 89}, {"time": 4280, "pitch": 51, "duration": 10, "velocity": 79}, {"time": 4286, "pitch": 56, "duration": 4, "velocity": 86}, {"time": 4292, "pitch": 42, "duration": 40, "velocity": 88}, {"time": 4292, "pitch": 54, "duration": 14, "velocity": 82}, {"time": 4292, "pitch": 58, "duration": 14, "velocity": 80}, {"time": 4298, "pitch": 49, "duration": 35, "velocity": 81}, {"time": 4304, "pitch": 61, "duration": 7, "velocity": 78}, {"time": 4310, "pitch": 66, "duration": 10, "velocity": 88}, {"time": 4322, "pitch": 61, "duration": 6, "velocity": 90}, {"time": 4328, "pitch": 54, "duration": 7, "velocity": 88}, {"time": 4334, "pitch": 61, "duration": 3, "velocity": 82}, {"time": 4340, "pitch": 40, "duration": 43, "velocity": 84}, {"time": 4340, "pitch": 56, "duration": 13, "velocity": 82}, {"time": 4346, "pitch": 47, "duration": 26, "velocity": 81}, {"time": 4352, "pitch": 52, "duration": 5, "velocity": 83}, {"time": 4358, "pitch": 52, "duration": 4, "velocity": 73}, {"time": 4358, "pitch": 56, "duration": 15, "velocity": 80}, {"time": 4370, "pitch": 52, "duration": 7, "velocity": 80}, {"time": 4376, "pitch": 47, "duration": 7, "velocity": 90}, {"time": 4382, "pitch": 52, "duration": 4, "velocity": 80}, {"time": 4382, "pitch": 56, "duration": 3, "velocity": 78}, {"time": 4382, "pitch": 59, "duration": 3, "velocity": 80}, {"time": 4388, "pitch": 39, "duration": 12, "velocity": 88}, {"time": 4388, "pitch": 51, "duration": 6, "velocity": 83}, {"time": 4388, "pitch": 54, "duration": 12, "velocity": 83}, {"time": 4394, "pitch": 46, "duration": 6, "velocity": 85}, {"time": 4400, "pitch": 51, "duration": 6, "velocity": 89}, {"time": 4406, "pitch": 54, "duration": 3, "velocity": 88}, {"time": 4412, "pitch": 44, "duration": 17, "velocity": 87}, {"time": 4412, "pitch": 56, "duration": 8, "velocity": 76}, {"time": 4412, "pitch": 59, "duration": 14, "velocity": 87}, {"time": 4418, "pitch": 51, "duration": 10, "velocity": 82}, {"time": 4424, "pitch": 56, "duration": 9, "velocity": 82}, {"time": 4436, "pitch": 37, "duration": 35, "velocity": 88}, {"time": 4436, "pitch": 64, "duration": 14, "velocity": 72}, {"time": 4442, "pitch": 44, "duration": 28, "velocity": 83}, {"time": 4448, "pitch": 56, "duration": 7, "velocity": 91}, {"time": 4454, "pitch": 61, "duration": 8, "velocity": 88}, {"time": 4466, "pitch": 56, "duration": 3, "velocity": 87}, {"time": 4466, "pitch": 64, "duration": 12, "velocity": 88}, {"time": 4472, "pitch": 56, "duration": 6, "velocity": 73}, {"time": 4478, "pitch": 61, "duration": 3, "velocity": 78}, {"time": 4484, "pitch": 42, "duration": 45, "velocity": 89}, {"time": 4490, "pitch": 49, "duration": 15, "velocity": 83}, {"time": 4496, "pitch": 54, "duration": 8, "velocity": 90}, {"time": 4502, "pitch": 61, "duration": 15, "velocity": 89}, {"time": 4508, "pitch": 49, "duration": 20, "velocity": 88}, {"time": 4514, "pitch": 54, "duration": 4, "velocity": 89}, {"time": 4520, "pitch": 61, "duration": 10, "velocity": 89}, {"time": 4520, "pitch": 66, "duration": 8, "velocity": 83}, {"time": 4526, "pitch": 54, "duration": 4, "velocity": 86}, {"time": 4532, "pitch": 35, "duration": 32, "velocity": 87}, {"time": 4532, "pitch": 54, "duration": 8, "velocity": 81}, {"time": 4532, "pitch": 59, "duration": 9, "velocity": 87}, {"time": 4532, "pitch": 63, "duration": 11, "velocity": 87}, {"time": 4538, "pitch": 42, "duration": 25, "velocity": 77}, {"time": 4544, "pitch": 54, "duration": 3, "velocity": 77}, {"time": 4550, "pitch": 54, "duration": 6, "velocity": 91}, {"time": 4550, "pitch": 63, "duration": 10, "velocity": 90}, {"time": 4562, "pitch": 54, "duration": 3, "velocity": 87}, {"time": 4562, "pitch": 59, "duration": 7, "velocity": 88}, {"time": 4562, "pitch": 63, "duration": 14, "velocity": 75}, {"time": 4568, "pitch": 54, "duration": 3, "velocity": 81}, {"time": 4580, "pitch": 46, "duration": 36, "velocity": 83}, {"time": 4580, "pitch": 54, "duration": 3, "velocity": 83}, {"time": 4580, "pitch": 58, "duration": 7, "velocity": 87}, {"time": 4586, "pitch": 54, "duration": 19, "velocity": 78}, {"time": 4592, "pitch": 58, "duration": 11, "velocity": 73}, {"time": 4598, "pitch": 66, "duration": 20, "velocity": 85}, {"time": 4610, "pitch": 58, "duration": 7, "velocity": 89}, {"time": 4616, "pitch": 54, "duration": 3, "velocity": 88}, {"time": 4628, "pitch": 44, "duration": 44, "velocity": 87}, {"time": 4628, "pitch": 56, "duration": 7, "velocity": 77}, {"time": 4628, "pitch": 59, "duration": 13, "velocity": 81}, {"time": 4634, "pitch": 51, "duration": 28, "velocity": 80}, {"time": 4640, "pitch": 56, "duration": 8, "velocity": 89}, {"time": 4646, "pitch": 63, "duration": 12, "velocity": 91}, {"time": 4658, "pitch": 59, "duration": 11, "velocity": 89}, {"time": 4664, "pitch": 51, "duration": 10, "velocity": 79}, {"time": 4670, "pitch": 56, "duration": 4, "velocity": 86}, {"time": 4676, "pitch": 42, "duration": 40, "velocity": 88}, {"time": 4676, "pitch": 54, "duration": 14, "velocity": 82}, {"time": 4676, "pitch": 58, "duration": 14, "velocity": 80}, {"time": 4682, "pitch": 49, "duration": 35, "velocity": 81}, {"time": 4688, "pitch": 61, "duration": 7, "velocity": 78}, {"time": 4694, "pitch": 66, "duration": 10, "velocity": 88}, {"time": 4706, "pitch": 61, "duration": 6, "velocity": 90}, {"time": 4712, "pitch": 54, "duration": 7, "velocity": 88}, {"time": 4718, "pitch": 61, "duration": 3, "velocity": 82}, {"time": 4724, "pitch": 40, "duration": 43, "velocity": 84}, {"time": 4724, "pitch": 56, "duration": 13, "velocity": 82}, {"time": 4730, "pitch": 47, "duration": 26, "velocity": 81}, {"time": 4736, "pitch": 52, "duration": 5, "velocity": 83}, {"time": 4742, "pitch": 52, "duration": 4, "velocity": 73}, {"time": 4742, "pitch": 56, "duration": 15, "velocity": 80}, {"time": 4754, "pitch": 52, "duration": 7, "velocity": 80}, {"time": 4760, "pitch": 47, "duration": 7, "velocity": 90}, {"time": 4766, "pitch": 52, "duration": 4, "velocity": 80}, {"time": 4766, "pitch": 56, "duration": 3, "velocity": 78}, {"time": 4766, "pitch": 59, "duration": 3, "velocity": 80}, {"time": 4772, "pitch": 39, "duration": 12, "velocity": 88}, {"time": 4772, "pitch": 51, "duration": 6, "velocity": 83}, {"time": 4772, "pitch": 54, "duration": 12, "velocity": 83}, {"time": 4778, "pitch": 46, "duration": 6, "velocity": 85}, {"time": 4784, "pitch": 51, "duration": 6, "velocity": 89}, {"time": 4790, "pitch": 54, "duration": 3, "velocity": 88}, {"time": 4796, "pitch": 44, "duration": 17, "velocity": 87}, {"time": 4796, "pitch": 56, "duration": 8, "velocity": 76}, {"time": 4796, "pitch": 59, "duration": 14, "velocity": 87}, {"time": 4802, "pitch": 51, "duration": 10, "velocity": 82}, {"time": 4808, "pitch": 56, "duration": 9, "velocity": 82}, {"time": 4820, "pitch": 37, "duration": 35, "velocity": 88}, {"time": 4820, "pitch": 64, "duration": 14, "velocity": 72}, {"time": 4826, "pitch": 44, "duration": 28, "velocity": 83}, {"time": 4832, "pitch": 56, "duration": 7, "velocity": 91}, {"time": 4838, "pitch": 61, "duration": 8, "velocity": 88}, {"time": 4850, "pitch": 56, "duration": 3, "velocity": 87}, {"time": 4850, "pitch": 64, "duration": 12, "velocity": 88}, {"time": 4856, "pitch": 56, "duration": 6, "velocity": 73}, {"time": 4862, "pitch": 61, "duration": 3, "velocity": 78}, {"time": 4868, "pitch": 42, "duration": 45, "velocity": 89}, {"time": 4874, "pitch": 49, "duration": 15, "velocity": 83}, {"time": 4880, "pitch": 54, "duration": 8, "velocity": 90}, {"time": 4886, "pitch": 61, "duration": 15, "velocity": 89}, {"time": 4892, "pitch": 49, "duration": 20, "velocity": 88}, {"time": 4898, "pitch": 54, "duration": 4, "velocity": 89}, {"time": 4904, "pitch": 61, "duration": 10, "velocity": 89}, {"time": 4904, "pitch": 66, "duration": 8, "velocity": 83}, {"time": 4910, "pitch": 54, "duration": 4, "velocity": 86}, {"time": 4915, "pitch": 35, "duration": 3, "velocity": 86}, {"time": 4915, "pitch": 54, "duration": 8, "velocity": 84}, {"time": 4915, "pitch": 63, "duration": 13, "velocity": 88}, {"time": 4928, "pitch": 47, "duration": 26, "velocity": 79}, {"time": 4934, "pitch": 59, "duration": 7, "velocity": 88}, {"time": 4934, "pitch": 63, "duration": 7, "velocity": 93}, {"time": 4940, "pitch": 54, "duration": 8, "velocity": 81}, {"time": 4946, "pitch": 66, "duration": 4, "velocity": 93}, {"time": 4946, "pitch": 59, "duration": 4, "velocity": 89}, {"time": 4946, "pitch": 63, "duration": 4, "velocity": 98}, {"time": 4962, "pitch": 59, "duration": 7, "velocity": 79}, {"time": 4963, "pitch": 63, "duration": 8, "velocity": 87}, {"time": 4964, "pitch": 47, "duration": 33, "velocity": 89}, {"time": 4964, "pitch": 66, "duration": 11, "velocity": 62}, {"time": 4969, "pitch": 54, "duration": 25, "velocity": 83}, {"time": 4975, "pitch": 59, "duration": 3, "velocity": 73}, {"time": 4981, "pitch": 63, "duration": 18, "velocity": 91}, {"time": 4981, "pitch": 59, "duration": 19, "velocity": 87}, {"time": 4981, "pitch": 66, "duration": 18, "velocity": 87}, {"time": 4981, "pitch": 71, "duration": 17, "velocity": 84}, {"time": 5012, "pitch": 40, "duration": 43, "velocity": 80}, {"time": 5018, "pitch": 47, "duration": 35, "velocity": 81}, {"time": 5024, "pitch": 52, "duration": 30, "velocity": 78}, {"time": 5030, "pitch": 56, "duration": 24, "velocity": 78}, {"time": 5037, "pitch": 59, "duration": 17, "velocity": 73}, {"time": 5061, "pitch": 39, "duration": 21, "velocity": 88}, {"time": 5068, "pitch": 46, "duration": 12, "velocity": 70}, {"time": 5078, "pitch": 51, "duration": 8, "velocity": 76}, {"time": 5089, "pitch": 44, "duration": 25, "velocity": 87}, {"time": 5093, "pitch": 51, "duration": 20, "velocity": 79}, {"time": 5096, "pitch": 56, "duration": 5, "velocity": 72}, {"time": 5099, "pitch": 59, "duration": 4, "velocity": 75}, {"time": 5101, "pitch": 63, "duration": 2, "velocity": 74}, {"time": 5102, "pitch": 68, "duration": 4, "velocity": 79}, {"time": 5122, "pitch": 37, "duration": 27, "velocity": 82}, {"time": 5129, "pitch": 44, "duration": 19, "velocity": 75}, {"time": 5133, "pitch": 56, "duration": 32, "velocity": 72}, {"time": 5137, "pitch": 61, "duration": 29, "velocity": 68}, {"time": 5141, "pitch": 64, "duration": 30, "velocity": 59}, {"time": 5174, "pitch": 42, "duration": 70, "velocity": 84}, {"time": 5178, "pitch": 49, "duration": 63, "velocity": 83}, {"time": 5182, "pitch": 61, "duration": 11, "velocity": 81}, {"time": 5187, "pitch": 66, "duration": 9, "velocity": 73}, {"time": 5192, "pitch": 54, "duration": 2, "velocity": 75}, {"time": 5201, "pitch": 73, "duration": 22, "velocity": 82}, {"time": 5207, "pitch": 66, "duration": 8, "velocity": 74}, {"time": 5213, "pitch": 78, "duration": 13, "velocity": 70}, {"time": 5262, "pitch": 47, "duration": 109, "velocity": 88}, {"time": 5268, "pitch": 54, "duration": 102, "velocity": 72}, {"time": 5274, "pitch": 61, "duration": 9, "velocity": 76}, {"time": 5281, "pitch": 63, "duration": 8, "velocity": 87}, {"time": 5289, "pitch": 66, "duration": 4, "velocity": 87}, {"time": 5297, "pitch": 71, "duration": 3, "velocity": 89}, {"time": 5305, "pitch": 73, "duration": 3, "velocity": 92}, {"time": 5314, "pitch": 71, "duration": 12, "velocity": 76}, {"time": 5315, "pitch": 75, "duration": 7, "velocity": 74}, {"time": 5324, "pitch": 75, "duration": 4, "velocity": 75}, {"time": 5326, "pitch": 78, "duration": 3, "velocity": 73}, {"time": 5333, "pitch": 71, "duration": 2, "velocity": 52}, {"time": 5335, "pitch": 75, "duration": 1, "velocity": 76}, {"time": 5337, "pitch": 83, "duration": 3, "velocity": 84}, {"time": 5353, "pitch": 83, "duration": 1, "velocity": 67}, {"time": 5354, "pitch": 87, "duration": 2, "velocity": 77}, {"time": 5355, "pitch": 95, "duration": 3, "velocity": 81}], "annotations": [{"time": 24, "annotation": {"number": 64, "value": 127}, "group": "control_change"}, {"time": 24, "annotation": {"number": 64, "value": 0}, "group": "control_change"}, {"time": 69, "annotation": {"number": 64, "value": 0}, "group": "control_change"}, {"time": 78, "annotation": {"number": 64, "value": 127}, "group": "control_change"}, {"time": 117, "annotation": {"number": 64, "value": 0}, "group": "control_change"}, {"time": 128, "annotation": {"number": 64, "value": 127}, "group": "control_change"}, {"time": 163, "annotation": {"number": 64, "value": 0}, "group": "control_change"}, {"time": 169, "annotation": {"number": 64, "value": 127}, "group": "control_change"}, {"time": 208, "annotation": {"number": 64, "value": 0}, "group": "control_change"}, {"time": 219, "annotation": {"number": 64, "value": 127}, "group": "control_change"}, {"time": 260, "annotation": {"number": 64, "value": 0}, "group": "control_change"}, {"time": 268, "annotation": {"number": 64, "value": 127}, "group": "control_change"}, {"time": 297, "annotation": {"number": 64, "value": 127}, "group": "control_change"}, {"time": 305, "annotation": {"number": 64, "value": 0}, "group": "control_change"}, {"time": 306, "annotation": {"number": 64, "value": 0}, "group": "control_change"}, {"time": 314, "annotation": {"number": 64, "value": 127}, "group": "control_change"}, {"time": 333, "annotation": {"number": 64, "value": 127}, "group": "control_change"}, {"time": 350, "annotation": {"number": 64, "value": 0}, "group": "control_change"}, {"time": 356, "annotation": {"number": 64, "value": 127}, "group": "control_change"}, {"time": 400, "annotation": {"number": 64, "value": 0}, "group": "control_change"}, {"time": 412, "annotation": {"number": 64, "value": 127}, "group": "control_change"}, {"time": 450, "annotation": {"number": 64, "value": 0}, "group": "control_change"}, {"time": 460, "annotation": {"number": 64, "value": 127}, "group": "control_change"}, {"time": 501, "annotation": {"number": 64, "value": 0}, "group": "control_change"}, {"time": 507, "annotation": {"number": 64, "value": 127}, "group": "control_change"}, {"time": 549, "annotation": {"number": 64, "value": 0}, "group": "control_change"}, {"time": 554, "annotation": {"number": 64, "value": 127}, "group": "control_change"}, {"time": 596, "annotation": {"number": 64, "value": 0}, "group": "control_change"}, {"time": 602, "annotation": {"number": 64, "value": 127}, "group": "control_change"}, {"time": 644, "annotation": {"number": 64, "value": 0}, "group": "control_change"}, {"time": 649, "annotation": {"number": 64, "value": 127}, "group": "control_change"}, {"time": 669, "annotation": {"number": 64, "value": 0}, "group": "control_change"}, {"time": 675, "annotation": {"number": 64, "value": 127}, "group": "control_change"}, {"time": 691, "annotation": {"number": 64, "value": 0}, "group": "control_change"}, {"time": 701, "annotation": {"number": 64, "value": 127}, "group": "control_change"}, {"time": 740, "annotation": {"number": 64, "value": 0}, "group": "control_change"}, {"time": 751, "annotation": {"number": 64, "value": 127}, "group": "control_change"}, {"time": 788, "annotation": {"number": 64, "value": 0}, "group": "control_change"}, {"time": 794, "annotation": {"number": 64, "value": 127}, "group": "control_change"}, {"time": 834, "annotation": {"number": 64, "value": 0}, "group": "control_change"}, {"time": 837, "annotation": {"number": 64, "value": 127}, "group": "control_change"}, {"time": 884, "annotation": {"number": 64, "value": 0}, "group": "control_change"}, {"time": 890, "annotation": {"number": 64, "value": 127}, "group": "control_change"}, {"time": 932, "annotation": {"number": 64, "value": 0}, "group": "control_change"}, {"time": 939, "annotation": {"number": 64, "value": 127}, "group": "control_change"}, {"time": 981, "annotation": {"number": 64, "value": 0}, "group": "control_change"}, {"time": 990, "annotation": {"number": 64, "value": 127}, "group": "control_change"}, {"time": 1031, "annotation": {"number": 64, "value": 0}, "group": "control_change"}, {"time": 1039, "annotation": {"number": 64, "value": 127}, "group": "control_change"}, {"time": 1076, "annotation": {"number": 64, "value": 0}, "group": "control_change"}, {"time": 1079, "annotation": {"number": 64, "value": 127}, "group": "control_change"}, {"time": 1100, "annotation": {"number": 64, "value": 0}, "group": "control_change"}, {"time": 1108, "annotation": {"number": 64, "value": 127}, "group": "control_change"}, {"time": 1108, "annotation": {"number": 64, "value": 0}, "group": "control_change"}, {"time": 1126, "annotation": {"number": 64, "value": 0}, "group": "control_change"}, {"time": 1130, "annotation": {"number": 64, "value": 127}, "group": "control_change"}, {"time": 1170, "annotation": {"number": 64, "value": 0}, "group": "control_change"}, {"time": 1176, "annotation": {"number": 64, "value": 127}, "group": "control_change"}, {"time": 1220, "annotation": {"number": 64, "value": 0}, "group": "control_change"}, {"time": 1222, "annotation": {"number": 64, "value": 127}, "group": "control_change"}, {"time": 1264, "annotation": {"number": 64, "value": 0}, "group": "control_change"}, {"time": 1270, "annotation": {"number": 64, "value": 127}, "group": "control_change"}, {"time": 1316, "annotation": {"number": 64, "value": 0}, "group": "control_change"}, {"time": 1319, "annotation": {"number": 64, "value": 127}, "group": "control_change"}, {"time": 1364, "annotation": {"number": 64, "value": 0}, "group": "control_change"}, {"time": 1373, "annotation": {"number": 64, "value": 127}, "group": "control_change"}, {"time": 1412, "annotation": {"number": 64, "value": 0}, "group": "control_change"}, {"time": 1419, "annotation": {"number": 64, "value": 127}, "group": "control_change"}, {"time": 1462, "annotation": {"number": 64, "value": 0}, "group": "control_change"}, {"time": 1467, "annotation": {"number": 64, "value": 127}, "group": "control_change"}, {"time": 1506, "annotation": {"number": 64, "value": 0}, "group": "control_change"}, {"time": 1510, "annotation": {"number": 64, "value": 127}, "group": "control_change"}, {"time": 1532, "annotation": {"number": 64, "value": 0}, "group": "control_change"}, {"time": 1541, "annotation": {"number": 64, "value": 127}, "group": "control_change"}, {"time": 1558, "annotation": {"number": 64, "value": 0}, "group": "control_change"}, {"time": 1562, "annotation": {"number": 64, "value": 127}, "group": "control_change"}, {"time": 1605, "annotation": {"number": 64, "value": 0}, "group": "control_change"}, {"time": 1611, "annotation": {"number": 64, "value": 127}, "group": "control_change"}, {"time": 1612, "annotation": {"number": 64, "value": 0}, "group": "control_change"}, {"time": 1612, "annotation": {"number": 64, "value": 127}, "group": "control_change"}, {"time": 1650, "annotation": {"number": 64, "value": 0}, "group": "control_change"}, {"time": 1654, "annotation": {"number": 64, "value": 127}, "group": "control_change"}, {"time": 1700, "annotation": {"number": 64, "value": 0}, "group": "control_change"}, {"time": 1703, "annotation": {"number": 64, "value": 127}, "group": "control_change"}, {"time": 1748, "annotation": {"number": 64, "value": 0}, "group": "control_change"}, {"time": 1757, "annotation": {"number": 64, "value": 127}, "group": "control_change"}, {"time": 1796, "annotation": {"number": 64, "value": 0}, "group": "control_change"}, {"time": 1803, "annotation": {"number": 64, "value": 127}, "group": "control_change"}, {"time": 1846, "annotation": {"number": 64, "value": 0}, "group": "control_change"}, {"time": 1851, "annotation": {"number": 64, "value": 127}, "group": "control_change"}, {"time": 1890, "annotation": {"number": 64, "value": 0}, "group": "control_change"}, {"time": 1894, "annotation": {"number": 64, "value": 127}, "group": "control_change"}, {"time": 1916, "annotation": {"number": 64, "value": 0}, "group": "control_change"}, {"time": 1925, "annotation": {"number": 64, "value": 127}, "group": "control_change"}, {"time": 1942, "annotation": {"number": 64, "value": 0}, "group": "control_change"}, {"time": 1946, "annotation": {"number": 64, "value": 127}, "group": "control_change"}, {"time": 1989, "annotation": {"number": 64, "value": 0}, "group": "control_change"}, {"time": 1995, "annotation": {"number": 64, "value": 127}, "group": "control_change"}, {"time": 1996, "annotation": {"number": 64, "value": 0}, "group": "control_change"}, {"time": 1996, "annotation": {"number": 64, "value": 127}, "group": "control_change"}, {"time": 2034, "annotation": {"number": 64, "value": 0}, "group": "control_change"}, {"time": 2038, "annotation": {"number": 64, "value": 127}, "group": "control_change"}, {"time": 2130, "annotation": {"number": 64, "value": 0}, "group": "control_change"}, {"time": 2135, "annotation": {"number": 64, "value": 127}, "group": "control_change"}, {"time": 2178, "annotation": {"number": 64, "value": 0}, "group": "control_change"}, {"time": 2187, "annotation": {"number": 64, "value": 127}, "group": "control_change"}, {"time": 2224, "annotation": {"number": 64, "value": 0}, "group": "control_change"}, {"time": 2227, "annotation": {"number": 64, "value": 127}, "group": "control_change"}, {"time": 2273, "annotation": {"number": 64, "value": 0}, "group": "control_change"}, {"time": 2277, "annotation": {"number": 64, "value": 127}, "group": "control_change"}, {"time": 2325, "annotation": {"number": 64, "value": 127}, "group": "control_change"}, {"time": 2370, "annotation": {"number": 64, "value": 0}, "group": "control_change"}, {"time": 2374, "annotation": {"number": 64, "value": 127}, "group": "control_change"}, {"time": 2396, "annotation": {"number": 64, "value": 0}, "group": "control_change"}, {"time": 2399, "annotation": {"number": 64, "value": 127}, "group": "control_change"}, {"time": 2419, "annotation": {"number": 64, "value": 0}, "group": "control_change"}, {"time": 2422, "annotation": {"number": 64, "value": 127}, "group": "control_change"}, {"time": 2468, "annotation": {"number": 64, "value": 0}, "group": "control_change"}, {"time": 2471, "annotation": {"number": 64, "value": 127}, "group": "control_change"}, {"time": 2517, "annotation": {"number": 64, "value": 0}, "group": "control_change"}, {"time": 2521, "annotation": {"number": 64, "value": 127}, "group": "control_change"}, {"time": 2562, "annotation": {"number": 64, "value": 0}, "group": "control_change"}, {"time": 2566, "annotation": {"number": 64, "value": 127}, "group": "control_change"}, {"time": 2605, "annotation": {"number": 64, "value": 127}, "group": "control_change"}, {"time": 2610, "annotation": {"number": 64, "value": 0}, "group": "control_change"}, {"time": 2611, "annotation": {"number": 64, "value": 127}, "group": "control_change"}, {"time": 2660, "annotation": {"number": 64, "value": 0}, "group": "control_change"}, {"time": 2662, "annotation": {"number": 64, "value": 127}, "group": "control_change"}, {"time": 2705, "annotation": {"number": 64, "value": 0}, "group": "control_change"}, {"time": 2709, "annotation": {"number": 64, "value": 127}, "group": "control_change"}, {"time": 2753, "annotation": {"number": 64, "value": 0}, "group": "control_change"}, {"time": 2754, "annotation": {"number": 64, "value": 127}, "group": "control_change"}, {"time": 2799, "annotation": {"number": 64, "value": 0}, "group": "control_change"}, {"time": 2805, "annotation": {"number": 64, "value": 127}, "group": "control_change"}, {"time": 2852, "annotation": {"number": 64, "value": 0}, "group": "control_change"}, {"time": 2858, "annotation": {"number": 64, "value": 127}, "group": "control_change"}, {"time": 2900, "annotation": {"number": 64, "value": 0}, "group": "control_change"}, {"time": 2907, "annotation": {"number": 64, "value": 127}, "group": "control_change"}, {"time": 2949, "annotation": {"number": 64, "value": 0}, "group": "control_change"}, {"time": 2958, "annotation": {"number": 64, "value": 127}, "group": "control_change"}, {"time": 2999, "annotation": {"number": 64, "value": 0}, "group": "control_change"}, {"time": 3007, "annotation": {"number": 64, "value": 127}, "group": "control_change"}, {"time": 3044, "annotation": {"number": 64, "value": 0}, "group": "control_change"}, {"time": 3047, "annotation": {"number": 64, "value": 127}, "group": "control_change"}, {"time": 3068, "annotation": {"number": 64, "value": 0}, "group": "control_change"}, {"time": 3076, "annotation": {"number": 64, "value": 127}, "group": "control_change"}, {"time": 3076, "annotation": {"number": 64, "value": 0}, "group": "control_change"}, {"time": 3094, "annotation": {"number": 64, "value": 0}, "group": "control_change"}, {"time": 3098, "annotation": {"number": 64, "value": 127}, "group": "control_change"}, {"time": 3138, "annotation": {"number": 64, "value": 0}, "group": "control_change"}, {"time": 3144, "annotation": {"number": 64, "value": 127}, "group": "control_change"}, {"time": 3188, "annotation": {"number": 64, "value": 0}, "group": "control_change"}, {"time": 3190, "annotation": {"number": 64, "value": 127}, "group": "control_change"}, {"time": 3232, "annotation": {"number": 64, "value": 0}, "group": "control_change"}, {"time": 3238, "annotation": {"number": 64, "value": 127}, "group": "control_change"}, {"time": 3284, "annotation": {"number": 64, "value": 0}, "group": "control_change"}, {"time": 3287, "annotation": {"number": 64, "value": 127}, "group": "control_change"}, {"time": 3332, "annotation": {"number": 64, "value": 0}, "group": "control_change"}, {"time": 3341, "annotation": {"number": 64, "value": 127}, "group": "control_change"}, {"time": 3380, "annotation": {"number": 64, "value": 0}, "group": "control_change"}, {"time": 3387, "annotation": {"number": 64, "value": 127}, "group": "control_change"}, {"time": 3430, "annotation": {"number": 64, "value": 0}, "group": "control_change"}, {"time": 3435, "annotation": {"number": 64, "value": 127}, "group": "control_change"}, {"time": 3474, "annotation": {"number": 64, "value": 0}, "group": "control_change"}, {"time": 3478, "annotation": {"number": 64, "value": 127}, "group": "control_change"}, {"time": 3500, "annotation": {"number": 64, "value": 0}, "group": "control_change"}, {"time": 3509, "annotation": {"number": 64, "value": 127}, "group": "control_change"}, {"time": 3526, "annotation": {"number": 64, "value": 0}, "group": "control_change"}, {"time": 3530, "annotation": {"number": 64, "value": 127}, "group": "control_change"}, {"time": 3573, "annotation": {"number": 64, "value": 0}, "group": "control_change"}, {"time": 3579, "annotation": {"number": 64, "value": 127}, "group": "control_change"}, {"time": 3580, "annotation": {"number": 64, "value": 0}, "group": "control_change"}, {"time": 3580, "annotation": {"number": 64, "value": 127}, "group": "control_change"}, {"time": 3618, "annotation": {"number": 64, "value": 0}, "group": "control_change"}, {"time": 3620, "annotation": {"number": 64, "value": 127}, "group": "control_change"}, {"time": 3666, "annotation": {"number": 64, "value": 0}, "group": "control_change"}, {"time": 3668, "annotation": {"number": 64, "value": 127}, "group": "control_change"}, {"time": 3712, "annotation": {"number": 64, "value": 0}, "group": "control_change"}, {"time": 3716, "annotation": {"number": 64, "value": 127}, "group": "control_change"}, {"time": 3811, "annotation": {"number": 64, "value": 0}, "group": "control_change"}, {"time": 3814, "annotation": {"number": 64, "value": 127}, "group": "control_change"}, {"time": 3857, "annotation": {"number": 64, "value": 0}, "group": "control_change"}, {"time": 3861, "annotation": {"number": 64, "value": 127}, "group": "control_change"}, {"time": 3906, "annotation": {"number": 64, "value": 0}, "group": "control_change"}, {"time": 3909, "annotation": {"number": 64, "value": 127}, "group": "control_change"}, {"time": 3955, "annotation": {"number": 64, "value": 0}, "group": "control_change"}, {"time": 3958, "annotation": {"number": 64, "value": 127}, "group": "control_change"}, {"time": 4004, "annotation": {"number": 64, "value": 0}, "group": "control_change"}, {"time": 4007, "annotation": {"number": 64, "value": 127}, "group": "control_change"}, {"time": 4052, "annotation": {"number": 64, "value": 0}, "group": "control_change"}, {"time": 4058, "annotation": {"number": 64, "value": 127}, "group": "control_change"}, {"time": 4100, "annotation": {"number": 64, "value": 0}, "group": "control_change"}, {"time": 4150, "annotation": {"number": 64, "value": 127}, "group": "control_change"}, {"time": 4196, "annotation": {"number": 64, "value": 0}, "group": "control_change"}, {"time": 4199, "annotation": {"number": 64, "value": 127}, "group": "control_change"}, {"time": 4244, "annotation": {"number": 64, "value": 0}, "group": "control_change"}, {"time": 4253, "annotation": {"number": 64, "value": 127}, "group": "control_change"}, {"time": 4292, "annotation": {"number": 64, "value": 0}, "group": "control_change"}, {"time": 4299, "annotation": {"number": 64, "value": 127}, "group": "control_change"}, {"time": 4342, "annotation": {"number": 64, "value": 0}, "group": "control_change"}, {"time": 4347, "annotation": {"number": 64, "value": 127}, "group": "control_change"}, {"time": 4386, "annotation": {"number": 64, "value": 0}, "group": "control_change"}, {"time": 4390, "annotation": {"number": 64, "value": 127}, "group": "control_change"}, {"time": 4412, "annotation": {"number": 64, "value": 0}, "group": "control_change"}, {"time": 4421, "annotation": {"number": 64, "value": 127}, "group": "control_change"}, {"time": 4438, "annotation": {"number": 64, "value": 0}, "group": "control_change"}, {"time": 4442, "annotation": {"number": 64, "value": 127}, "group": "control_change"}, {"time": 4485, "annotation": {"number": 64, "value": 0}, "group": "control_change"}, {"time": 4491, "annotation": {"number": 64, "value": 127}, "group": "control_change"}, {"time": 4492, "annotation": {"number": 64, "value": 0}, "group": "control_change"}, {"time": 4492, "annotation": {"number": 64, "value": 127}, "group": "control_change"}, {"time": 4530, "annotation": {"number": 64, "value": 0}, "group": "control_change"}, {"time": 4534, "annotation": {"number": 64, "value": 127}, "group": "control_change"}, {"time": 4580, "annotation": {"number": 64, "value": 0}, "group": "control_change"}, {"time": 4583, "annotation": {"number": 64, "value": 127}, "group": "control_change"}, {"time": 4628, "annotation": {"number": 64, "value": 0}, "group": "control_change"}, {"time": 4637, "annotation": {"number": 64, "value": 127}, "group": "control_change"}, {"time": 4676, "annotation": {"number": 64, "value": 0}, "group": "control_change"}, {"time": 4683, "annotation": {"number": 64, "value": 127}, "group": "control_change"}, {"time": 4726, "annotation": {"number": 64, "value": 0}, "group": "control_change"}, {"time": 4731, "annotation": {"number": 64, "value": 127}, "group": "control_change"}, {"time": 4770, "annotation": {"number": 64, "value": 0}, "group": "control_change"}, {"time": 4774, "annotation": {"number": 64, "value": 127}, "group": "control_change"}, {"time": 4796, "annotation": {"number": 64, "value": 0}, "group": "control_change"}, {"time": 4805, "annotation": {"number": 64, "value": 127}, "group": "control_change"}, {"time": 4822, "annotation": {"number": 64, "value": 0}, "group": "control_change"}, {"time": 4826, "annotation": {"number": 64, "value": 127}, "group": "control_change"}, {"time": 4869, "annotation": {"number": 64, "value": 0}, "group": "control_change"}, {"time": 4875, "annotation": {"number": 64, "value": 127}, "group": "control_change"}, {"time": 4876, "annotation": {"number": 64, "value": 0}, "group": "control_change"}, {"time": 4876, "annotation": {"number": 64, "value": 127}, "group": "control_change"}, {"time": 4914, "annotation": {"number": 64, "value": 0}, "group": "control_change"}, {"time": 4916, "annotation": {"number": 64, "value": 127}, "group": "control_change"}, {"time": 4963, "annotation": {"number": 64, "value": 0}, "group": "control_change"}, {"time": 4966, "annotation": {"number": 64, "value": 127}, "group": "control_change"}, {"time": 5013, "annotation": {"number": 64, "value": 0}, "group": "control_change"}, {"time": 5018, "annotation": {"number": 64, "value": 127}, "group": "control_change"}, {"time": 5062, "annotation": {"number": 64, "value": 0}, "group": "control_change"}, {"time": 5066, "annotation": {"number": 64, "value": 127}, "group": "control_change"}, {"time": 5093, "annotation": {"number": 64, "value": 0}, "group": "control_change"}, {"time": 5094, "annotation": {"number": 64, "value": 127}, "group": "control_change"}, {"time": 5122, "annotation": {"number": 64, "value": 0}, "group": "control_change"}, {"time": 5129, "annotation": {"number": 64, "value": 127}, "group": "control_change"}, {"time": 5180, "annotation": {"number": 64, "value": 0}, "group": "control_change"}, {"time": 5181, "annotation": {"number": 64, "value": 127}, "group": "control_change"}, {"time": 5264, "annotation": {"number": 64, "value": 0}, "group": "control_change"}, {"time": 5266, "annotation": {"number": 64, "value": 127}, "group": "control_change"}]}]}