{"metadata": {"schema_version": "0.2", "title": "None", "source_filename": "653.mid", "source_format": "midi"}, "resolution": 12, "tempos": [{"time": 0, "qpm": 119.00016065021688}, {"time": 2945, "qpm": 117.99990166674861}, {"time": 3175, "qpm": 119.00016065021688}], "key_signatures": [{"time": 0, "root": 0, "mode": "major"}], "time_signatures": [{"time": 0, "numerator": 4, "denominator": 4}, {"time": 0, "numerator": 1, "denominator": 4}], "tracks": [{"program": 0, "is_drum": false, "name": "MELODY", "notes": [{"time": 400, "pitch": 71, "duration": 16, "velocity": 88}, {"time": 418, "pitch": 72, "duration": 6, "velocity": 88}, {"time": 424, "pitch": 71, "duration": 11, "velocity": 96}, {"time": 436, "pitch": 79, "duration": 18, "velocity": 93}, {"time": 460, "pitch": 76, "duration": 10, "velocity": 81}, {"time": 472, "pitch": 78, "duration": 15, "velocity": 89}, {"time": 490, "pitch": 79, "duration": 5, "velocity": 83}, {"time": 496, "pitch": 78, "duration": 4, "velocity": 91}, {"time": 502, "pitch": 76, "duration": 6, "velocity": 89}, {"time": 508, "pitch": 71, "duration": 31, "velocity": 93}, {"time": 544, "pitch": 69, "duration": 17, "velocity": 86}, {"time": 562, "pitch": 72, "duration": 5, "velocity": 88}, {"time": 568, "pitch": 69, "duration": 4, "velocity": 89}, {"time": 574, "pitch": 69, "duration": 5, "velocity": 84}, {"time": 580, "pitch": 78, "duration": 20, "velocity": 87}, {"time": 604, "pitch": 69, "duration": 10, "velocity": 85}, {"time": 616, "pitch": 71, "duration": 9, "velocity": 86}, {"time": 628, "pitch": 75, "duration": 10, "velocity": 84}, {"time": 640, "pitch": 78, "duration": 9, "velocity": 85}, {"time": 652, "pitch": 76, "duration": 27, "velocity": 86}, {"time": 688, "pitch": 76, "duration": 10, "velocity": 89}, {"time": 700, "pitch": 77, "duration": 10, "velocity": 89}, {"time": 712, "pitch": 76, "duration": 11, "velocity": 93}, {"time": 724, "pitch": 88, "duration": 19, "velocity": 96}, {"time": 748, "pitch": 83, "duration": 10, "velocity": 93}, {"time": 760, "pitch": 84, "duration": 15, "velocity": 88}, {"time": 778, "pitch": 86, "duration": 5, "velocity": 85}, {"time": 784, "pitch": 84, "duration": 4, "velocity": 86}, {"time": 790, "pitch": 81, "duration": 3, "velocity": 57}, {"time": 796, "pitch": 83, "duration": 27, "velocity": 82}, {"time": 832, "pitch": 83, "duration": 16, "velocity": 84}, {"time": 850, "pitch": 79, "duration": 4, "velocity": 83}, {"time": 856, "pitch": 81, "duration": 4, "velocity": 84}, {"time": 862, "pitch": 83, "duration": 4, "velocity": 86}, {"time": 868, "pitch": 81, "duration": 17, "velocity": 83}, {"time": 892, "pitch": 79, "duration": 10, "velocity": 82}, {"time": 904, "pitch": 78, "duration": 9, "velocity": 88}, {"time": 916, "pitch": 71, "duration": 8, "velocity": 89}, {"time": 928, "pitch": 83, "duration": 4, "velocity": 87}, {"time": 934, "pitch": 81, "duration": 4, "velocity": 85}, {"time": 940, "pitch": 76, "duration": 33, "velocity": 87}, {"time": 976, "pitch": 71, "duration": 16, "velocity": 88}, {"time": 994, "pitch": 72, "duration": 6, "velocity": 88}, {"time": 1000, "pitch": 71, "duration": 11, "velocity": 96}, {"time": 1012, "pitch": 79, "duration": 18, "velocity": 93}, {"time": 1036, "pitch": 76, "duration": 10, "velocity": 81}, {"time": 1048, "pitch": 78, "duration": 15, "velocity": 89}, {"time": 1066, "pitch": 79, "duration": 5, "velocity": 83}, {"time": 1072, "pitch": 78, "duration": 4, "velocity": 91}, {"time": 1078, "pitch": 76, "duration": 6, "velocity": 89}, {"time": 1084, "pitch": 71, "duration": 31, "velocity": 93}, {"time": 1120, "pitch": 69, "duration": 17, "velocity": 86}, {"time": 1138, "pitch": 72, "duration": 5, "velocity": 88}, {"time": 1144, "pitch": 69, "duration": 12, "velocity": 89}, {"time": 1156, "pitch": 78, "duration": 12, "velocity": 87}, {"time": 1168, "pitch": 76, "duration": 12, "velocity": 84}, {"time": 1180, "pitch": 69, "duration": 10, "velocity": 85}, {"time": 1192, "pitch": 71, "duration": 9, "velocity": 86}, {"time": 1204, "pitch": 75, "duration": 10, "velocity": 84}, {"time": 1216, "pitch": 78, "duration": 9, "velocity": 85}, {"time": 1228, "pitch": 76, "duration": 27, "velocity": 86}, {"time": 1264, "pitch": 76, "duration": 10, "velocity": 89}, {"time": 1276, "pitch": 77, "duration": 10, "velocity": 89}, {"time": 1288, "pitch": 76, "duration": 11, "velocity": 93}, {"time": 1300, "pitch": 88, "duration": 19, "velocity": 96}, {"time": 1324, "pitch": 83, "duration": 10, "velocity": 93}, {"time": 1336, "pitch": 84, "duration": 15, "velocity": 88}, {"time": 1354, "pitch": 86, "duration": 5, "velocity": 85}, {"time": 1360, "pitch": 84, "duration": 4, "velocity": 86}, {"time": 1366, "pitch": 81, "duration": 3, "velocity": 84}, {"time": 1372, "pitch": 83, "duration": 27, "velocity": 82}, {"time": 1408, "pitch": 83, "duration": 16, "velocity": 84}, {"time": 1426, "pitch": 79, "duration": 4, "velocity": 83}, {"time": 1432, "pitch": 81, "duration": 4, "velocity": 84}, {"time": 1438, "pitch": 83, "duration": 4, "velocity": 86}, {"time": 1444, "pitch": 81, "duration": 17, "velocity": 83}, {"time": 1468, "pitch": 79, "duration": 10, "velocity": 82}, {"time": 1480, "pitch": 78, "duration": 9, "velocity": 88}, {"time": 1492, "pitch": 71, "duration": 8, "velocity": 89}, {"time": 1504, "pitch": 83, "duration": 4, "velocity": 87}, {"time": 1510, "pitch": 81, "duration": 4, "velocity": 85}, {"time": 1516, "pitch": 76, "duration": 33, "velocity": 87}, {"time": 1552, "pitch": 88, "duration": 15, "velocity": 91}, {"time": 1570, "pitch": 83, "duration": 4, "velocity": 83}, {"time": 1576, "pitch": 83, "duration": 4, "velocity": 83}, {"time": 1582, "pitch": 83, "duration": 4, "velocity": 84}, {"time": 1588, "pitch": 84, "duration": 14, "velocity": 93}, {"time": 1606, "pitch": 81, "duration": 4, "velocity": 80}, {"time": 1612, "pitch": 76, "duration": 5, "velocity": 87}, {"time": 1618, "pitch": 81, "duration": 4, "velocity": 85}, {"time": 1624, "pitch": 86, "duration": 11, "velocity": 86}, {"time": 1636, "pitch": 86, "duration": 5, "velocity": 84}, {"time": 1642, "pitch": 88, "duration": 5, "velocity": 89}, {"time": 1648, "pitch": 86, "duration": 4, "velocity": 89}, {"time": 1654, "pitch": 88, "duration": 5, "velocity": 86}, {"time": 1660, "pitch": 83, "duration": 29, "velocity": 84}, {"time": 1696, "pitch": 83, "duration": 10, "velocity": 87}, {"time": 1714, "pitch": 81, "duration": 6, "velocity": 89}, {"time": 1720, "pitch": 79, "duration": 4, "velocity": 82}, {"time": 1726, "pitch": 78, "duration": 5, "velocity": 84}, {"time": 1732, "pitch": 72, "duration": 9, "velocity": 83}, {"time": 1744, "pitch": 81, "duration": 4, "velocity": 85}, {"time": 1750, "pitch": 79, "duration": 5, "velocity": 83}, {"time": 1756, "pitch": 78, "duration": 6, "velocity": 89}, {"time": 1762, "pitch": 76, "duration": 4, "velocity": 86}, {"time": 1768, "pitch": 78, "duration": 4, "velocity": 84}, {"time": 1774, "pitch": 78, "duration": 4, "velocity": 78}, {"time": 1780, "pitch": 78, "duration": 3, "velocity": 86}, {"time": 1786, "pitch": 71, "duration": 4, "velocity": 91}, {"time": 1792, "pitch": 83, "duration": 5, "velocity": 89}, {"time": 1798, "pitch": 81, "duration": 4, "velocity": 80}, {"time": 1804, "pitch": 83, "duration": 29, "velocity": 86}, {"time": 1840, "pitch": 88, "duration": 15, "velocity": 93}, {"time": 1858, "pitch": 90, "duration": 4, "velocity": 93}, {"time": 1864, "pitch": 91, "duration": 4, "velocity": 86}, {"time": 1870, "pitch": 90, "duration": 4, "velocity": 93}, {"time": 1876, "pitch": 84, "duration": 15, "velocity": 93}, {"time": 1894, "pitch": 81, "duration": 4, "velocity": 87}, {"time": 1900, "pitch": 76, "duration": 4, "velocity": 87}, {"time": 1906, "pitch": 81, "duration": 4, "velocity": 84}, {"time": 1912, "pitch": 86, "duration": 10, "velocity": 89}, {"time": 1924, "pitch": 88, "duration": 8, "velocity": 86}, {"time": 1936, "pitch": 90, "duration": 10, "velocity": 93}, {"time": 1948, "pitch": 83, "duration": 28, "velocity": 91}, {"time": 1984, "pitch": 83, "duration": 16, "velocity": 85}, {"time": 2002, "pitch": 79, "duration": 4, "velocity": 84}, {"time": 2008, "pitch": 81, "duration": 4, "velocity": 86}, {"time": 2014, "pitch": 83, "duration": 4, "velocity": 85}, {"time": 2020, "pitch": 81, "duration": 19, "velocity": 86}, {"time": 2044, "pitch": 79, "duration": 9, "velocity": 84}, {"time": 2056, "pitch": 78, "duration": 9, "velocity": 89}, {"time": 2068, "pitch": 71, "duration": 9, "velocity": 87}, {"time": 2080, "pitch": 83, "duration": 4, "velocity": 84}, {"time": 2086, "pitch": 81, "duration": 4, "velocity": 85}, {"time": 2092, "pitch": 76, "duration": 36, "velocity": 88}, {"time": 2128, "pitch": 71, "duration": 16, "velocity": 88}, {"time": 2146, "pitch": 72, "duration": 6, "velocity": 88}, {"time": 2152, "pitch": 71, "duration": 11, "velocity": 96}, {"time": 2164, "pitch": 79, "duration": 18, "velocity": 93}, {"time": 2188, "pitch": 76, "duration": 10, "velocity": 81}, {"time": 2200, "pitch": 78, "duration": 15, "velocity": 89}, {"time": 2218, "pitch": 79, "duration": 5, "velocity": 83}, {"time": 2224, "pitch": 78, "duration": 4, "velocity": 91}, {"time": 2230, "pitch": 76, "duration": 6, "velocity": 89}, {"time": 2236, "pitch": 71, "duration": 31, "velocity": 93}, {"time": 2272, "pitch": 69, "duration": 17, "velocity": 86}, {"time": 2290, "pitch": 72, "duration": 5, "velocity": 88}, {"time": 2296, "pitch": 69, "duration": 12, "velocity": 89}, {"time": 2308, "pitch": 78, "duration": 12, "velocity": 87}, {"time": 2320, "pitch": 76, "duration": 12, "velocity": 84}, {"time": 2332, "pitch": 69, "duration": 10, "velocity": 85}, {"time": 2344, "pitch": 71, "duration": 9, "velocity": 86}, {"time": 2356, "pitch": 75, "duration": 10, "velocity": 84}, {"time": 2368, "pitch": 78, "duration": 9, "velocity": 85}, {"time": 2380, "pitch": 76, "duration": 27, "velocity": 86}, {"time": 2416, "pitch": 76, "duration": 10, "velocity": 89}, {"time": 2428, "pitch": 77, "duration": 10, "velocity": 89}, {"time": 2440, "pitch": 76, "duration": 11, "velocity": 93}, {"time": 2452, "pitch": 88, "duration": 19, "velocity": 96}, {"time": 2476, "pitch": 83, "duration": 10, "velocity": 93}, {"time": 2488, "pitch": 84, "duration": 15, "velocity": 88}, {"time": 2506, "pitch": 86, "duration": 5, "velocity": 85}, {"time": 2512, "pitch": 84, "duration": 4, "velocity": 86}, {"time": 2518, "pitch": 81, "duration": 3, "velocity": 84}, {"time": 2524, "pitch": 83, "duration": 27, "velocity": 82}, {"time": 2560, "pitch": 83, "duration": 16, "velocity": 84}, {"time": 2578, "pitch": 79, "duration": 4, "velocity": 83}, {"time": 2584, "pitch": 81, "duration": 4, "velocity": 84}, {"time": 2590, "pitch": 83, "duration": 4, "velocity": 86}, {"time": 2596, "pitch": 81, "duration": 17, "velocity": 83}, {"time": 2620, "pitch": 79, "duration": 10, "velocity": 82}, {"time": 2632, "pitch": 78, "duration": 9, "velocity": 88}, {"time": 2644, "pitch": 71, "duration": 8, "velocity": 89}, {"time": 2656, "pitch": 83, "duration": 4, "velocity": 87}, {"time": 2662, "pitch": 81, "duration": 4, "velocity": 85}, {"time": 2668, "pitch": 76, "duration": 33, "velocity": 87}, {"time": 2704, "pitch": 71, "duration": 16, "velocity": 88}, {"time": 2722, "pitch": 72, "duration": 6, "velocity": 88}, {"time": 2728, "pitch": 71, "duration": 11, "velocity": 96}, {"time": 2740, "pitch": 79, "duration": 18, "velocity": 93}, {"time": 2764, "pitch": 76, "duration": 10, "velocity": 81}, {"time": 2776, "pitch": 78, "duration": 15, "velocity": 89}, {"time": 2794, "pitch": 79, "duration": 5, "velocity": 83}, {"time": 2800, "pitch": 78, "duration": 4, "velocity": 91}, {"time": 2806, "pitch": 76, "duration": 6, "velocity": 89}, {"time": 2812, "pitch": 71, "duration": 31, "velocity": 93}, {"time": 2848, "pitch": 69, "duration": 17, "velocity": 86}, {"time": 2866, "pitch": 72, "duration": 5, "velocity": 88}, {"time": 2872, "pitch": 69, "duration": 12, "velocity": 89}, {"time": 2884, "pitch": 78, "duration": 12, "velocity": 87}, {"time": 2896, "pitch": 76, "duration": 12, "velocity": 84}, {"time": 2908, "pitch": 69, "duration": 10, "velocity": 85}, {"time": 2920, "pitch": 71, "duration": 9, "velocity": 86}, {"time": 2932, "pitch": 75, "duration": 10, "velocity": 84}, {"time": 2944, "pitch": 78, "duration": 9, "velocity": 85}, {"time": 2956, "pitch": 76, "duration": 27, "velocity": 86}, {"time": 2992, "pitch": 76, "duration": 10, "velocity": 89}, {"time": 3004, "pitch": 77, "duration": 10, "velocity": 89}, {"time": 3016, "pitch": 76, "duration": 11, "velocity": 93}, {"time": 3028, "pitch": 88, "duration": 19, "velocity": 96}, {"time": 3052, "pitch": 83, "duration": 10, "velocity": 93}, {"time": 3064, "pitch": 84, "duration": 15, "velocity": 88}, {"time": 3082, "pitch": 86, "duration": 5, "velocity": 85}, {"time": 3088, "pitch": 84, "duration": 4, "velocity": 86}, {"time": 3094, "pitch": 81, "duration": 3, "velocity": 84}, {"time": 3100, "pitch": 83, "duration": 27, "velocity": 82}, {"time": 3136, "pitch": 83, "duration": 16, "velocity": 84}, {"time": 3154, "pitch": 79, "duration": 4, "velocity": 83}, {"time": 3160, "pitch": 81, "duration": 4, "velocity": 84}, {"time": 3166, "pitch": 83, "duration": 4, "velocity": 86}, {"time": 3172, "pitch": 81, "duration": 17, "velocity": 83}, {"time": 3196, "pitch": 79, "duration": 10, "velocity": 82}, {"time": 3208, "pitch": 78, "duration": 9, "velocity": 88}, {"time": 3220, "pitch": 71, "duration": 8, "velocity": 89}, {"time": 3232, "pitch": 83, "duration": 4, "velocity": 87}, {"time": 3238, "pitch": 81, "duration": 4, "velocity": 85}, {"time": 3244, "pitch": 76, "duration": 33, "velocity": 87}, {"time": 3280, "pitch": 88, "duration": 15, "velocity": 91}, {"time": 3298, "pitch": 83, "duration": 4, "velocity": 83}, {"time": 3304, "pitch": 83, "duration": 4, "velocity": 83}, {"time": 3310, "pitch": 83, "duration": 4, "velocity": 84}, {"time": 3316, "pitch": 84, "duration": 14, "velocity": 93}, {"time": 3334, "pitch": 81, "duration": 4, "velocity": 80}, {"time": 3340, "pitch": 76, "duration": 5, "velocity": 87}, {"time": 3346, "pitch": 81, "duration": 4, "velocity": 85}, {"time": 3352, "pitch": 86, "duration": 11, "velocity": 86}, {"time": 3364, "pitch": 86, "duration": 5, "velocity": 84}, {"time": 3370, "pitch": 88, "duration": 5, "velocity": 89}, {"time": 3376, "pitch": 86, "duration": 4, "velocity": 89}, {"time": 3382, "pitch": 88, "duration": 5, "velocity": 86}, {"time": 3388, "pitch": 83, "duration": 29, "velocity": 84}, {"time": 3424, "pitch": 83, "duration": 10, "velocity": 87}, {"time": 3442, "pitch": 81, "duration": 6, "velocity": 89}, {"time": 3448, "pitch": 79, "duration": 4, "velocity": 82}, {"time": 3454, "pitch": 78, "duration": 5, "velocity": 84}, {"time": 3460, "pitch": 72, "duration": 9, "velocity": 83}, {"time": 3472, "pitch": 81, "duration": 4, "velocity": 85}, {"time": 3478, "pitch": 79, "duration": 5, "velocity": 83}, {"time": 3484, "pitch": 78, "duration": 6, "velocity": 89}, {"time": 3490, "pitch": 76, "duration": 4, "velocity": 86}, {"time": 3496, "pitch": 78, "duration": 4, "velocity": 84}, {"time": 3502, "pitch": 78, "duration": 4, "velocity": 78}, {"time": 3508, "pitch": 78, "duration": 3, "velocity": 86}, {"time": 3514, "pitch": 71, "duration": 4, "velocity": 91}, {"time": 3520, "pitch": 83, "duration": 5, "velocity": 89}, {"time": 3526, "pitch": 81, "duration": 4, "velocity": 80}, {"time": 3532, "pitch": 83, "duration": 29, "velocity": 86}, {"time": 3568, "pitch": 88, "duration": 15, "velocity": 93}, {"time": 3586, "pitch": 90, "duration": 4, "velocity": 93}, {"time": 3592, "pitch": 91, "duration": 4, "velocity": 86}, {"time": 3598, "pitch": 90, "duration": 4, "velocity": 93}, {"time": 3604, "pitch": 84, "duration": 15, "velocity": 93}, {"time": 3622, "pitch": 81, "duration": 4, "velocity": 87}, {"time": 3628, "pitch": 76, "duration": 4, "velocity": 87}, {"time": 3634, "pitch": 81, "duration": 4, "velocity": 84}, {"time": 3640, "pitch": 86, "duration": 10, "velocity": 89}, {"time": 3652, "pitch": 88, "duration": 8, "velocity": 86}, {"time": 3664, "pitch": 90, "duration": 10, "velocity": 93}, {"time": 3676, "pitch": 83, "duration": 28, "velocity": 91}, {"time": 3712, "pitch": 83, "duration": 16, "velocity": 85}, {"time": 3730, "pitch": 79, "duration": 4, "velocity": 84}, {"time": 3736, "pitch": 81, "duration": 4, "velocity": 86}, {"time": 3742, "pitch": 83, "duration": 4, "velocity": 85}, {"time": 3748, "pitch": 81, "duration": 19, "velocity": 86}, {"time": 3772, "pitch": 79, "duration": 9, "velocity": 84}, {"time": 3784, "pitch": 78, "duration": 9, "velocity": 89}, {"time": 3796, "pitch": 71, "duration": 9, "velocity": 87}, {"time": 3808, "pitch": 83, "duration": 4, "velocity": 84}, {"time": 3814, "pitch": 81, "duration": 4, "velocity": 85}, {"time": 3820, "pitch": 76, "duration": 36, "velocity": 88}, {"time": 3856, "pitch": 71, "duration": 16, "velocity": 88}, {"time": 3874, "pitch": 72, "duration": 6, "velocity": 88}, {"time": 3880, "pitch": 71, "duration": 11, "velocity": 96}, {"time": 3892, "pitch": 79, "duration": 18, "velocity": 93}, {"time": 3916, "pitch": 76, "duration": 10, "velocity": 81}, {"time": 3928, "pitch": 78, "duration": 15, "velocity": 89}, {"time": 3946, "pitch": 79, "duration": 5, "velocity": 83}, {"time": 3952, "pitch": 78, "duration": 4, "velocity": 91}, {"time": 3958, "pitch": 76, "duration": 6, "velocity": 89}, {"time": 3964, "pitch": 71, "duration": 31, "velocity": 93}, {"time": 4000, "pitch": 69, "duration": 17, "velocity": 86}, {"time": 4018, "pitch": 72, "duration": 5, "velocity": 88}, {"time": 4024, "pitch": 69, "duration": 12, "velocity": 89}, {"time": 4036, "pitch": 78, "duration": 12, "velocity": 87}, {"time": 4048, "pitch": 76, "duration": 12, "velocity": 84}, {"time": 4060, "pitch": 69, "duration": 10, "velocity": 85}, {"time": 4072, "pitch": 71, "duration": 9, "velocity": 86}, {"time": 4084, "pitch": 75, "duration": 10, "velocity": 84}, {"time": 4096, "pitch": 78, "duration": 9, "velocity": 85}, {"time": 4108, "pitch": 76, "duration": 27, "velocity": 86}, {"time": 4144, "pitch": 76, "duration": 10, "velocity": 89}, {"time": 4156, "pitch": 77, "duration": 10, "velocity": 89}, {"time": 4168, "pitch": 76, "duration": 11, "velocity": 93}, {"time": 4180, "pitch": 88, "duration": 19, "velocity": 96}, {"time": 4204, "pitch": 83, "duration": 10, "velocity": 93}, {"time": 4216, "pitch": 84, "duration": 15, "velocity": 88}, {"time": 4234, "pitch": 86, "duration": 5, "velocity": 85}, {"time": 4240, "pitch": 84, "duration": 4, "velocity": 86}, {"time": 4246, "pitch": 81, "duration": 3, "velocity": 84}, {"time": 4252, "pitch": 83, "duration": 27, "velocity": 82}, {"time": 4288, "pitch": 83, "duration": 16, "velocity": 84}, {"time": 4306, "pitch": 79, "duration": 4, "velocity": 83}, {"time": 4312, "pitch": 81, "duration": 4, "velocity": 84}, {"time": 4318, "pitch": 83, "duration": 4, "velocity": 86}, {"time": 4324, "pitch": 81, "duration": 17, "velocity": 83}, {"time": 4348, "pitch": 79, "duration": 10, "velocity": 82}, {"time": 4360, "pitch": 78, "duration": 9, "velocity": 88}, {"time": 4372, "pitch": 71, "duration": 8, "velocity": 89}, {"time": 4384, "pitch": 83, "duration": 4, "velocity": 87}, {"time": 4390, "pitch": 81, "duration": 4, "velocity": 85}, {"time": 4396, "pitch": 76, "duration": 33, "velocity": 87}, {"time": 4432, "pitch": 76, "duration": 10, "velocity": 89}, {"time": 4444, "pitch": 77, "duration": 10, "velocity": 89}, {"time": 4456, "pitch": 76, "duration": 11, "velocity": 93}, {"time": 4468, "pitch": 88, "duration": 19, "velocity": 96}, {"time": 4492, "pitch": 83, "duration": 10, "velocity": 93}, {"time": 4504, "pitch": 84, "duration": 15, "velocity": 88}, {"time": 4522, "pitch": 86, "duration": 5, "velocity": 85}, {"time": 4528, "pitch": 84, "duration": 4, "velocity": 86}, {"time": 4534, "pitch": 81, "duration": 3, "velocity": 84}, {"time": 4540, "pitch": 83, "duration": 27, "velocity": 82}, {"time": 4576, "pitch": 83, "duration": 16, "velocity": 84}, {"time": 4594, "pitch": 79, "duration": 4, "velocity": 83}, {"time": 4600, "pitch": 81, "duration": 4, "velocity": 84}, {"time": 4606, "pitch": 83, "duration": 4, "velocity": 86}, {"time": 4612, "pitch": 81, "duration": 17, "velocity": 83}, {"time": 4636, "pitch": 79, "duration": 10, "velocity": 82}, {"time": 4648, "pitch": 78, "duration": 9, "velocity": 88}, {"time": 4660, "pitch": 71, "duration": 8, "velocity": 89}, {"time": 4672, "pitch": 83, "duration": 4, "velocity": 87}, {"time": 4678, "pitch": 81, "duration": 4, "velocity": 85}, {"time": 4684, "pitch": 76, "duration": 33, "velocity": 87}]}, {"program": 0, "is_drum": false, "name": "BRIDGE", "notes": [{"time": 118, "pitch": 71, "duration": 6, "velocity": 82}, {"time": 124, "pitch": 72, "duration": 8, "velocity": 83}, {"time": 130, "pitch": 71, "duration": 7, "velocity": 84}, {"time": 136, "pitch": 79, "duration": 12, "velocity": 83}, {"time": 142, "pitch": 71, "duration": 8, "velocity": 82}, {"time": 154, "pitch": 71, "duration": 7, "velocity": 84}, {"time": 160, "pitch": 72, "duration": 8, "velocity": 84}, {"time": 166, "pitch": 71, "duration": 8, "velocity": 85}, {"time": 172, "pitch": 78, "duration": 8, "velocity": 85}, {"time": 178, "pitch": 71, "duration": 7, "velocity": 84}, {"time": 190, "pitch": 69, "duration": 7, "velocity": 86}, {"time": 196, "pitch": 71, "duration": 7, "velocity": 84}, {"time": 202, "pitch": 69, "duration": 8, "velocity": 83}, {"time": 208, "pitch": 78, "duration": 7, "velocity": 84}, {"time": 214, "pitch": 69, "duration": 7, "velocity": 84}, {"time": 226, "pitch": 71, "duration": 5, "velocity": 86}, {"time": 232, "pitch": 72, "duration": 6, "velocity": 82}, {"time": 238, "pitch": 71, "duration": 6, "velocity": 84}, {"time": 244, "pitch": 75, "duration": 7, "velocity": 85}, {"time": 250, "pitch": 71, "duration": 7, "velocity": 82}, {"time": 256, "pitch": 69, "duration": 6, "velocity": 88}, {"time": 262, "pitch": 69, "duration": 6, "velocity": 76}, {"time": 268, "pitch": 71, "duration": 7, "velocity": 83}, {"time": 274, "pitch": 69, "duration": 7, "velocity": 82}, {"time": 280, "pitch": 78, "duration": 8, "velocity": 78}, {"time": 286, "pitch": 69, "duration": 6, "velocity": 87}, {"time": 298, "pitch": 69, "duration": 6, "velocity": 85}, {"time": 304, "pitch": 71, "duration": 7, "velocity": 83}, {"time": 310, "pitch": 69, "duration": 6, "velocity": 83}, {"time": 316, "pitch": 75, "duration": 8, "velocity": 87}, {"time": 322, "pitch": 78, "duration": 5, "velocity": 84}, {"time": 334, "pitch": 71, "duration": 6, "velocity": 86}, {"time": 340, "pitch": 72, "duration": 7, "velocity": 84}, {"time": 346, "pitch": 71, "duration": 6, "velocity": 87}, {"time": 352, "pitch": 75, "duration": 6, "velocity": 87}, {"time": 358, "pitch": 78, "duration": 7, "velocity": 86}, {"time": 364, "pitch": 76, "duration": 34, "velocity": 86}, {"time": 412, "pitch": 67, "duration": 3, "velocity": 71}, {"time": 412, "pitch": 71, "duration": 3, "velocity": 75}, {"time": 424, "pitch": 67, "duration": 3, "velocity": 71}, {"time": 424, "pitch": 71, "duration": 3, "velocity": 79}, {"time": 448, "pitch": 67, "duration": 3, "velocity": 71}, {"time": 448, "pitch": 71, "duration": 3, "velocity": 74}, {"time": 460, "pitch": 67, "duration": 3, "velocity": 71}, {"time": 460, "pitch": 71, "duration": 4, "velocity": 77}, {"time": 484, "pitch": 69, "duration": 4, "velocity": 69}, {"time": 484, "pitch": 72, "duration": 4, "velocity": 73}, {"time": 496, "pitch": 69, "duration": 4, "velocity": 71}, {"time": 496, "pitch": 72, "duration": 4, "velocity": 72}, {"time": 514, "pitch": 71, "duration": 6, "velocity": 82}, {"time": 520, "pitch": 72, "duration": 7, "velocity": 83}, {"time": 526, "pitch": 71, "duration": 7, "velocity": 83}, {"time": 532, "pitch": 72, "duration": 7, "velocity": 89}, {"time": 538, "pitch": 71, "duration": 8, "velocity": 83}, {"time": 544, "pitch": 75, "duration": 23, "velocity": 68}, {"time": 592, "pitch": 69, "duration": 4, "velocity": 73}, {"time": 592, "pitch": 72, "duration": 3, "velocity": 76}, {"time": 604, "pitch": 69, "duration": 4, "velocity": 73}, {"time": 604, "pitch": 72, "duration": 3, "velocity": 75}, {"time": 628, "pitch": 71, "duration": 4, "velocity": 74}, {"time": 628, "pitch": 75, "duration": 3, "velocity": 70}, {"time": 640, "pitch": 71, "duration": 4, "velocity": 69}, {"time": 640, "pitch": 75, "duration": 4, "velocity": 70}, {"time": 664, "pitch": 71, "duration": 3, "velocity": 75}, {"time": 664, "pitch": 76, "duration": 3, "velocity": 82}, {"time": 676, "pitch": 71, "duration": 4, "velocity": 71}, {"time": 676, "pitch": 76, "duration": 3, "velocity": 78}, {"time": 688, "pitch": 76, "duration": 14, "velocity": 83}, {"time": 700, "pitch": 77, "duration": 11, "velocity": 85}, {"time": 712, "pitch": 76, "duration": 10, "velocity": 81}, {"time": 724, "pitch": 83, "duration": 32, "velocity": 83}, {"time": 760, "pitch": 81, "duration": 29, "velocity": 75}, {"time": 796, "pitch": 83, "duration": 13, "velocity": 84}, {"time": 808, "pitch": 79, "duration": 22, "velocity": 73}, {"time": 832, "pitch": 86, "duration": 33, "velocity": 83}, {"time": 868, "pitch": 88, "duration": 23, "velocity": 85}, {"time": 904, "pitch": 90, "duration": 10, "velocity": 84}, {"time": 916, "pitch": 87, "duration": 10, "velocity": 82}, {"time": 928, "pitch": 90, "duration": 10, "velocity": 91}, {"time": 940, "pitch": 88, "duration": 6, "velocity": 82}, {"time": 946, "pitch": 91, "duration": 5, "velocity": 83}, {"time": 952, "pitch": 90, "duration": 5, "velocity": 91}, {"time": 958, "pitch": 88, "duration": 4, "velocity": 84}, {"time": 964, "pitch": 88, "duration": 5, "velocity": 82}, {"time": 970, "pitch": 90, "duration": 4, "velocity": 82}, {"time": 976, "pitch": 91, "duration": 50, "velocity": 73}, {"time": 988, "pitch": 67, "duration": 3, "velocity": 71}, {"time": 988, "pitch": 71, "duration": 3, "velocity": 74}, {"time": 1000, "pitch": 67, "duration": 3, "velocity": 71}, {"time": 1000, "pitch": 71, "duration": 3, "velocity": 81}, {"time": 1024, "pitch": 67, "duration": 3, "velocity": 72}, {"time": 1024, "pitch": 71, "duration": 4, "velocity": 78}, {"time": 1036, "pitch": 67, "duration": 3, "velocity": 67}, {"time": 1036, "pitch": 71, "duration": 3, "velocity": 80}, {"time": 1060, "pitch": 69, "duration": 4, "velocity": 69}, {"time": 1060, "pitch": 72, "duration": 4, "velocity": 76}, {"time": 1072, "pitch": 69, "duration": 3, "velocity": 66}, {"time": 1072, "pitch": 72, "duration": 4, "velocity": 75}, {"time": 1090, "pitch": 71, "duration": 7, "velocity": 65}, {"time": 1096, "pitch": 72, "duration": 6, "velocity": 82}, {"time": 1102, "pitch": 71, "duration": 8, "velocity": 83}, {"time": 1108, "pitch": 75, "duration": 8, "velocity": 83}, {"time": 1114, "pitch": 71, "duration": 4, "velocity": 72}, {"time": 1120, "pitch": 69, "duration": 15, "velocity": 74}, {"time": 1144, "pitch": 69, "duration": 4, "velocity": 75}, {"time": 1144, "pitch": 72, "duration": 3, "velocity": 78}, {"time": 1168, "pitch": 71, "duration": 3, "velocity": 68}, {"time": 1180, "pitch": 69, "duration": 4, "velocity": 74}, {"time": 1204, "pitch": 71, "duration": 3, "velocity": 71}, {"time": 1204, "pitch": 75, "duration": 3, "velocity": 70}, {"time": 1216, "pitch": 71, "duration": 3, "velocity": 70}, {"time": 1216, "pitch": 75, "duration": 3, "velocity": 71}, {"time": 1234, "pitch": 71, "duration": 7, "velocity": 62}, {"time": 1240, "pitch": 76, "duration": 14, "velocity": 78}, {"time": 1246, "pitch": 71, "duration": 5, "velocity": 68}, {"time": 1252, "pitch": 78, "duration": 13, "velocity": 71}, {"time": 1264, "pitch": 79, "duration": 31, "velocity": 83}, {"time": 1294, "pitch": 76, "duration": 8, "velocity": 77}, {"time": 1300, "pitch": 80, "duration": 27, "velocity": 70}, {"time": 1336, "pitch": 69, "duration": 5, "velocity": 68}, {"time": 1336, "pitch": 72, "duration": 10, "velocity": 70}, {"time": 1342, "pitch": 69, "duration": 7, "velocity": 74}, {"time": 1348, "pitch": 76, "duration": 22, "velocity": 81}, {"time": 1372, "pitch": 67, "duration": 9, "velocity": 68}, {"time": 1378, "pitch": 71, "duration": 19, "velocity": 75}, {"time": 1384, "pitch": 74, "duration": 16, "velocity": 82}, {"time": 1390, "pitch": 71, "duration": 7, "velocity": 80}, {"time": 1396, "pitch": 72, "duration": 7, "velocity": 83}, {"time": 1402, "pitch": 73, "duration": 8, "velocity": 83}, {"time": 1408, "pitch": 74, "duration": 23, "velocity": 84}, {"time": 1432, "pitch": 74, "duration": 11, "velocity": 76}, {"time": 1444, "pitch": 76, "duration": 21, "velocity": 81}, {"time": 1468, "pitch": 76, "duration": 11, "velocity": 84}, {"time": 1480, "pitch": 78, "duration": 24, "velocity": 82}, {"time": 1504, "pitch": 75, "duration": 6, "velocity": 76}, {"time": 1510, "pitch": 71, "duration": 7, "velocity": 81}, {"time": 1516, "pitch": 76, "duration": 6, "velocity": 81}, {"time": 1522, "pitch": 79, "duration": 7, "velocity": 82}, {"time": 1528, "pitch": 78, "duration": 7, "velocity": 83}, {"time": 1534, "pitch": 76, "duration": 4, "velocity": 83}, {"time": 1540, "pitch": 76, "duration": 5, "velocity": 83}, {"time": 1546, "pitch": 78, "duration": 5, "velocity": 83}, {"time": 1552, "pitch": 79, "duration": 34, "velocity": 84}, {"time": 1588, "pitch": 81, "duration": 31, "velocity": 76}, {"time": 1618, "pitch": 76, "duration": 7, "velocity": 75}, {"time": 1624, "pitch": 78, "duration": 17, "velocity": 77}, {"time": 1642, "pitch": 76, "duration": 6, "velocity": 76}, {"time": 1648, "pitch": 74, "duration": 7, "velocity": 83}, {"time": 1654, "pitch": 72, "duration": 6, "velocity": 77}, {"time": 1660, "pitch": 71, "duration": 30, "velocity": 77}, {"time": 1696, "pitch": 76, "duration": 12, "velocity": 82}, {"time": 1708, "pitch": 71, "duration": 14, "velocity": 81}, {"time": 1720, "pitch": 76, "duration": 13, "velocity": 81}, {"time": 1732, "pitch": 72, "duration": 22, "velocity": 82}, {"time": 1756, "pitch": 69, "duration": 6, "velocity": 78}, {"time": 1762, "pitch": 72, "duration": 6, "velocity": 76}, {"time": 1768, "pitch": 71, "duration": 31, "velocity": 77}, {"time": 1804, "pitch": 75, "duration": 15, "velocity": 80}, {"time": 1816, "pitch": 71, "duration": 13, "velocity": 84}, {"time": 1828, "pitch": 78, "duration": 11, "velocity": 86}, {"time": 1840, "pitch": 76, "duration": 34, "velocity": 75}, {"time": 1876, "pitch": 72, "duration": 21, "velocity": 82}, {"time": 1900, "pitch": 69, "duration": 13, "velocity": 77}, {"time": 1912, "pitch": 74, "duration": 20, "velocity": 84}, {"time": 1930, "pitch": 69, "duration": 6, "velocity": 75}, {"time": 1936, "pitch": 74, "duration": 6, "velocity": 86}, {"time": 1942, "pitch": 72, "duration": 7, "velocity": 82}, {"time": 1948, "pitch": 71, "duration": 33, "velocity": 75}, {"time": 1984, "pitch": 71, "duration": 23, "velocity": 82}, {"time": 2008, "pitch": 67, "duration": 10, "velocity": 77}, {"time": 2020, "pitch": 72, "duration": 13, "velocity": 78}, {"time": 2032, "pitch": 69, "duration": 12, "velocity": 78}, {"time": 2044, "pitch": 67, "duration": 11, "velocity": 76}, {"time": 2056, "pitch": 66, "duration": 26, "velocity": 78}, {"time": 2080, "pitch": 71, "duration": 9, "velocity": 82}, {"time": 2092, "pitch": 64, "duration": 30, "velocity": 72}, {"time": 2092, "pitch": 67, "duration": 31, "velocity": 70}, {"time": 2176, "pitch": 76, "duration": 7, "velocity": 88}, {"time": 2182, "pitch": 78, "duration": 7, "velocity": 88}, {"time": 2188, "pitch": 79, "duration": 8, "velocity": 84}, {"time": 2194, "pitch": 76, "duration": 7, "velocity": 83}, {"time": 2200, "pitch": 78, "duration": 32, "velocity": 89}, {"time": 2254, "pitch": 78, "duration": 8, "velocity": 84}, {"time": 2260, "pitch": 76, "duration": 8, "velocity": 91}, {"time": 2266, "pitch": 78, "duration": 7, "velocity": 85}, {"time": 2272, "pitch": 72, "duration": 34, "velocity": 81}, {"time": 2308, "pitch": 71, "duration": 22, "velocity": 82}, {"time": 2332, "pitch": 69, "duration": 9, "velocity": 83}, {"time": 2344, "pitch": 71, "duration": 23, "velocity": 82}, {"time": 2368, "pitch": 75, "duration": 12, "velocity": 81}, {"time": 2380, "pitch": 76, "duration": 20, "velocity": 83}, {"time": 2398, "pitch": 78, "duration": 6, "velocity": 84}, {"time": 2404, "pitch": 79, "duration": 7, "velocity": 83}, {"time": 2410, "pitch": 81, "duration": 7, "velocity": 87}, {"time": 2416, "pitch": 83, "duration": 34, "velocity": 89}, {"time": 2476, "pitch": 88, "duration": 6, "velocity": 89}, {"time": 2482, "pitch": 86, "duration": 6, "velocity": 84}, {"time": 2488, "pitch": 84, "duration": 36, "velocity": 91}, {"time": 2524, "pitch": 83, "duration": 32, "velocity": 84}, {"time": 2560, "pitch": 83, "duration": 34, "velocity": 85}, {"time": 2596, "pitch": 81, "duration": 22, "velocity": 84}, {"time": 2620, "pitch": 79, "duration": 13, "velocity": 85}, {"time": 2632, "pitch": 78, "duration": 15, "velocity": 86}, {"time": 2650, "pitch": 71, "duration": 6, "velocity": 87}, {"time": 2656, "pitch": 83, "duration": 7, "velocity": 89}, {"time": 2662, "pitch": 81, "duration": 7, "velocity": 82}, {"time": 2668, "pitch": 76, "duration": 32, "velocity": 88}, {"time": 2716, "pitch": 67, "duration": 3, "velocity": 74}, {"time": 2716, "pitch": 71, "duration": 3, "velocity": 83}, {"time": 2728, "pitch": 67, "duration": 3, "velocity": 79}, {"time": 2728, "pitch": 71, "duration": 3, "velocity": 82}, {"time": 2752, "pitch": 71, "duration": 3, "velocity": 77}, {"time": 2752, "pitch": 76, "duration": 3, "velocity": 77}, {"time": 2764, "pitch": 71, "duration": 3, "velocity": 79}, {"time": 2764, "pitch": 76, "duration": 3, "velocity": 82}, {"time": 2788, "pitch": 69, "duration": 3, "velocity": 76}, {"time": 2788, "pitch": 72, "duration": 3, "velocity": 78}, {"time": 2800, "pitch": 69, "duration": 3, "velocity": 73}, {"time": 2800, "pitch": 72, "duration": 3, "velocity": 77}, {"time": 2818, "pitch": 71, "duration": 6, "velocity": 82}, {"time": 2824, "pitch": 72, "duration": 7, "velocity": 82}, {"time": 2830, "pitch": 71, "duration": 8, "velocity": 83}, {"time": 2836, "pitch": 72, "duration": 8, "velocity": 84}, {"time": 2842, "pitch": 71, "duration": 6, "velocity": 77}, {"time": 2848, "pitch": 75, "duration": 35, "velocity": 71}, {"time": 2920, "pitch": 71, "duration": 26, "velocity": 83}, {"time": 2944, "pitch": 75, "duration": 11, "velocity": 84}, {"time": 2956, "pitch": 76, "duration": 21, "velocity": 84}, {"time": 2974, "pitch": 78, "duration": 7, "velocity": 83}, {"time": 2980, "pitch": 79, "duration": 7, "velocity": 83}, {"time": 2986, "pitch": 81, "duration": 11, "velocity": 84}, {"time": 2992, "pitch": 83, "duration": 32, "velocity": 85}, {"time": 3028, "pitch": 83, "duration": 30, "velocity": 87}, {"time": 3064, "pitch": 84, "duration": 7, "velocity": 84}, {"time": 3070, "pitch": 83, "duration": 7, "velocity": 86}, {"time": 3076, "pitch": 81, "duration": 8, "velocity": 83}, {"time": 3082, "pitch": 76, "duration": 8, "velocity": 76}, {"time": 3088, "pitch": 81, "duration": 9, "velocity": 73}, {"time": 3100, "pitch": 83, "duration": 8, "velocity": 85}, {"time": 3106, "pitch": 81, "duration": 7, "velocity": 78}, {"time": 3112, "pitch": 79, "duration": 7, "velocity": 70}, {"time": 3118, "pitch": 74, "duration": 9, "velocity": 72}, {"time": 3124, "pitch": 79, "duration": 6, "velocity": 76}, {"time": 3130, "pitch": 83, "duration": 7, "velocity": 82}, {"time": 3136, "pitch": 81, "duration": 25, "velocity": 82}, {"time": 3172, "pitch": 83, "duration": 10, "velocity": 82}, {"time": 3184, "pitch": 81, "duration": 13, "velocity": 81}, {"time": 3196, "pitch": 79, "duration": 12, "velocity": 82}, {"time": 3208, "pitch": 78, "duration": 13, "velocity": 83}, {"time": 3220, "pitch": 83, "duration": 12, "velocity": 87}, {"time": 3232, "pitch": 81, "duration": 12, "velocity": 84}, {"time": 3244, "pitch": 76, "duration": 33, "velocity": 84}, {"time": 3280, "pitch": 79, "duration": 34, "velocity": 84}, {"time": 3316, "pitch": 81, "duration": 31, "velocity": 76}, {"time": 3346, "pitch": 76, "duration": 7, "velocity": 75}, {"time": 3352, "pitch": 78, "duration": 17, "velocity": 77}, {"time": 3370, "pitch": 76, "duration": 6, "velocity": 76}, {"time": 3376, "pitch": 74, "duration": 7, "velocity": 83}, {"time": 3382, "pitch": 72, "duration": 6, "velocity": 77}, {"time": 3388, "pitch": 71, "duration": 30, "velocity": 77}, {"time": 3424, "pitch": 76, "duration": 12, "velocity": 82}, {"time": 3436, "pitch": 71, "duration": 14, "velocity": 81}, {"time": 3448, "pitch": 76, "duration": 13, "velocity": 81}, {"time": 3460, "pitch": 72, "duration": 22, "velocity": 82}, {"time": 3484, "pitch": 69, "duration": 6, "velocity": 78}, {"time": 3490, "pitch": 72, "duration": 6, "velocity": 76}, {"time": 3496, "pitch": 71, "duration": 31, "velocity": 77}, {"time": 3532, "pitch": 75, "duration": 15, "velocity": 80}, {"time": 3544, "pitch": 71, "duration": 13, "velocity": 84}, {"time": 3556, "pitch": 78, "duration": 11, "velocity": 86}, {"time": 3568, "pitch": 76, "duration": 34, "velocity": 75}, {"time": 3604, "pitch": 72, "duration": 21, "velocity": 82}, {"time": 3628, "pitch": 69, "duration": 13, "velocity": 77}, {"time": 3640, "pitch": 74, "duration": 20, "velocity": 84}, {"time": 3658, "pitch": 69, "duration": 6, "velocity": 75}, {"time": 3664, "pitch": 74, "duration": 6, "velocity": 86}, {"time": 3670, "pitch": 72, "duration": 7, "velocity": 82}, {"time": 3676, "pitch": 71, "duration": 33, "velocity": 75}, {"time": 3712, "pitch": 71, "duration": 23, "velocity": 82}, {"time": 3736, "pitch": 67, "duration": 10, "velocity": 77}, {"time": 3748, "pitch": 72, "duration": 13, "velocity": 78}, {"time": 3760, "pitch": 69, "duration": 12, "velocity": 78}, {"time": 3772, "pitch": 67, "duration": 11, "velocity": 76}, {"time": 3784, "pitch": 66, "duration": 26, "velocity": 78}, {"time": 3808, "pitch": 71, "duration": 9, "velocity": 82}, {"time": 3820, "pitch": 64, "duration": 30, "velocity": 72}, {"time": 3820, "pitch": 67, "duration": 31, "velocity": 70}, {"time": 3904, "pitch": 76, "duration": 7, "velocity": 88}, {"time": 3910, "pitch": 78, "duration": 7, "velocity": 88}, {"time": 3916, "pitch": 79, "duration": 8, "velocity": 84}, {"time": 3922, "pitch": 76, "duration": 7, "velocity": 83}, {"time": 3928, "pitch": 78, "duration": 32, "velocity": 89}, {"time": 3982, "pitch": 78, "duration": 8, "velocity": 84}, {"time": 3988, "pitch": 76, "duration": 8, "velocity": 91}, {"time": 3994, "pitch": 78, "duration": 7, "velocity": 85}, {"time": 4000, "pitch": 72, "duration": 34, "velocity": 81}, {"time": 4036, "pitch": 71, "duration": 22, "velocity": 82}, {"time": 4060, "pitch": 69, "duration": 9, "velocity": 83}, {"time": 4072, "pitch": 71, "duration": 23, "velocity": 82}, {"time": 4096, "pitch": 75, "duration": 12, "velocity": 81}, {"time": 4108, "pitch": 76, "duration": 20, "velocity": 83}, {"time": 4126, "pitch": 78, "duration": 6, "velocity": 84}, {"time": 4132, "pitch": 79, "duration": 7, "velocity": 83}, {"time": 4138, "pitch": 81, "duration": 7, "velocity": 87}, {"time": 4144, "pitch": 83, "duration": 34, "velocity": 89}, {"time": 4204, "pitch": 88, "duration": 6, "velocity": 89}, {"time": 4210, "pitch": 86, "duration": 6, "velocity": 84}, {"time": 4216, "pitch": 84, "duration": 36, "velocity": 91}, {"time": 4252, "pitch": 83, "duration": 32, "velocity": 84}, {"time": 4288, "pitch": 83, "duration": 34, "velocity": 85}, {"time": 4324, "pitch": 81, "duration": 22, "velocity": 84}, {"time": 4348, "pitch": 79, "duration": 13, "velocity": 85}, {"time": 4360, "pitch": 78, "duration": 15, "velocity": 86}, {"time": 4378, "pitch": 71, "duration": 6, "velocity": 87}, {"time": 4384, "pitch": 83, "duration": 7, "velocity": 89}, {"time": 4390, "pitch": 81, "duration": 7, "velocity": 82}, {"time": 4396, "pitch": 76, "duration": 32, "velocity": 88}, {"time": 4432, "pitch": 83, "duration": 34, "velocity": 89}, {"time": 4492, "pitch": 88, "duration": 6, "velocity": 89}, {"time": 4498, "pitch": 86, "duration": 6, "velocity": 84}, {"time": 4504, "pitch": 84, "duration": 36, "velocity": 91}, {"time": 4540, "pitch": 83, "duration": 32, "velocity": 84}, {"time": 4576, "pitch": 83, "duration": 34, "velocity": 85}, {"time": 4612, "pitch": 81, "duration": 22, "velocity": 84}, {"time": 4636, "pitch": 79, "duration": 13, "velocity": 85}, {"time": 4648, "pitch": 78, "duration": 15, "velocity": 86}, {"time": 4666, "pitch": 71, "duration": 6, "velocity": 87}, {"time": 4672, "pitch": 83, "duration": 7, "velocity": 89}, {"time": 4678, "pitch": 81, "duration": 7, "velocity": 82}, {"time": 4690, "pitch": 71, "duration": 6, "velocity": 82}, {"time": 4696, "pitch": 72, "duration": 8, "velocity": 83}, {"time": 4702, "pitch": 71, "duration": 7, "velocity": 84}, {"time": 4708, "pitch": 79, "duration": 12, "velocity": 83}, {"time": 4714, "pitch": 71, "duration": 8, "velocity": 82}, {"time": 4726, "pitch": 71, "duration": 7, "velocity": 84}, {"time": 4732, "pitch": 72, "duration": 8, "velocity": 84}, {"time": 4738, "pitch": 71, "duration": 8, "velocity": 85}, {"time": 4744, "pitch": 78, "duration": 8, "velocity": 85}, {"time": 4750, "pitch": 71, "duration": 7, "velocity": 84}, {"time": 4762, "pitch": 69, "duration": 7, "velocity": 86}, {"time": 4768, "pitch": 71, "duration": 7, "velocity": 84}, {"time": 4774, "pitch": 69, "duration": 8, "velocity": 83}, {"time": 4780, "pitch": 78, "duration": 7, "velocity": 84}, {"time": 4786, "pitch": 69, "duration": 7, "velocity": 84}, {"time": 4798, "pitch": 71, "duration": 5, "velocity": 86}, {"time": 4804, "pitch": 72, "duration": 6, "velocity": 82}, {"time": 4810, "pitch": 71, "duration": 6, "velocity": 84}, {"time": 4816, "pitch": 75, "duration": 7, "velocity": 85}, {"time": 4822, "pitch": 71, "duration": 7, "velocity": 82}, {"time": 4828, "pitch": 69, "duration": 6, "velocity": 88}, {"time": 4834, "pitch": 69, "duration": 6, "velocity": 76}, {"time": 4840, "pitch": 71, "duration": 7, "velocity": 83}, {"time": 4846, "pitch": 69, "duration": 7, "velocity": 82}, {"time": 4852, "pitch": 78, "duration": 8, "velocity": 78}, {"time": 4858, "pitch": 69, "duration": 6, "velocity": 87}, {"time": 4870, "pitch": 69, "duration": 6, "velocity": 85}, {"time": 4876, "pitch": 71, "duration": 7, "velocity": 83}, {"time": 4882, "pitch": 69, "duration": 6, "velocity": 83}, {"time": 4888, "pitch": 75, "duration": 8, "velocity": 87}, {"time": 4894, "pitch": 78, "duration": 5, "velocity": 84}, {"time": 4906, "pitch": 71, "duration": 6, "velocity": 86}, {"time": 4912, "pitch": 72, "duration": 7, "velocity": 84}, {"time": 4918, "pitch": 71, "duration": 6, "velocity": 87}, {"time": 4924, "pitch": 75, "duration": 6, "velocity": 87}, {"time": 4930, "pitch": 78, "duration": 7, "velocity": 86}, {"time": 4936, "pitch": 76, "duration": 34, "velocity": 86}, {"time": 4978, "pitch": 71, "duration": 6, "velocity": 82}, {"time": 4984, "pitch": 72, "duration": 8, "velocity": 83}, {"time": 4990, "pitch": 71, "duration": 7, "velocity": 84}, {"time": 4996, "pitch": 79, "duration": 12, "velocity": 83}, {"time": 5002, "pitch": 71, "duration": 8, "velocity": 82}, {"time": 5014, "pitch": 71, "duration": 7, "velocity": 84}, {"time": 5020, "pitch": 72, "duration": 8, "velocity": 84}, {"time": 5026, "pitch": 71, "duration": 8, "velocity": 85}, {"time": 5032, "pitch": 78, "duration": 8, "velocity": 85}, {"time": 5038, "pitch": 71, "duration": 7, "velocity": 84}, {"time": 5050, "pitch": 69, "duration": 7, "velocity": 86}, {"time": 5056, "pitch": 71, "duration": 7, "velocity": 84}, {"time": 5062, "pitch": 69, "duration": 8, "velocity": 83}, {"time": 5068, "pitch": 78, "duration": 7, "velocity": 84}, {"time": 5074, "pitch": 69, "duration": 7, "velocity": 84}, {"time": 5086, "pitch": 71, "duration": 5, "velocity": 86}, {"time": 5092, "pitch": 72, "duration": 6, "velocity": 82}, {"time": 5098, "pitch": 71, "duration": 6, "velocity": 84}, {"time": 5104, "pitch": 75, "duration": 7, "velocity": 85}, {"time": 5110, "pitch": 71, "duration": 7, "velocity": 82}, {"time": 5116, "pitch": 69, "duration": 6, "velocity": 88}, {"time": 5122, "pitch": 69, "duration": 6, "velocity": 76}, {"time": 5128, "pitch": 71, "duration": 7, "velocity": 83}, {"time": 5134, "pitch": 69, "duration": 7, "velocity": 82}, {"time": 5140, "pitch": 78, "duration": 8, "velocity": 78}, {"time": 5146, "pitch": 69, "duration": 6, "velocity": 87}, {"time": 5158, "pitch": 69, "duration": 6, "velocity": 85}, {"time": 5164, "pitch": 71, "duration": 7, "velocity": 83}, {"time": 5170, "pitch": 69, "duration": 6, "velocity": 83}, {"time": 5176, "pitch": 75, "duration": 8, "velocity": 87}, {"time": 5182, "pitch": 78, "duration": 5, "velocity": 84}, {"time": 5194, "pitch": 71, "duration": 6, "velocity": 86}, {"time": 5200, "pitch": 72, "duration": 7, "velocity": 84}, {"time": 5206, "pitch": 71, "duration": 6, "velocity": 87}, {"time": 5212, "pitch": 75, "duration": 6, "velocity": 87}, {"time": 5218, "pitch": 78, "duration": 7, "velocity": 86}, {"time": 5224, "pitch": 76, "duration": 34, "velocity": 86}]}, {"program": 0, "is_drum": false, "name": "PIANO", "notes": [{"time": 112, "pitch": 40, "duration": 32, "velocity": 83}, {"time": 112, "pitch": 52, "duration": 10, "velocity": 77}, {"time": 112, "pitch": 55, "duration": 8, "velocity": 76}, {"time": 124, "pitch": 55, "duration": 2, "velocity": 82}, {"time": 124, "pitch": 59, "duration": 2, "velocity": 81}, {"time": 136, "pitch": 52, "duration": 2, "velocity": 82}, {"time": 136, "pitch": 55, "duration": 2, "velocity": 83}, {"time": 136, "pitch": 59, "duration": 3, "velocity": 84}, {"time": 142, "pitch": 52, "duration": 6, "velocity": 82}, {"time": 148, "pitch": 47, "duration": 32, "velocity": 76}, {"time": 160, "pitch": 52, "duration": 3, "velocity": 78}, {"time": 160, "pitch": 55, "duration": 3, "velocity": 82}, {"time": 160, "pitch": 59, "duration": 3, "velocity": 78}, {"time": 172, "pitch": 52, "duration": 3, "velocity": 84}, {"time": 172, "pitch": 55, "duration": 3, "velocity": 86}, {"time": 172, "pitch": 59, "duration": 9, "velocity": 84}, {"time": 178, "pitch": 52, "duration": 6, "velocity": 84}, {"time": 184, "pitch": 45, "duration": 18, "velocity": 83}, {"time": 196, "pitch": 52, "duration": 3, "velocity": 84}, {"time": 196, "pitch": 57, "duration": 3, "velocity": 82}, {"time": 196, "pitch": 60, "duration": 3, "velocity": 82}, {"time": 208, "pitch": 52, "duration": 2, "velocity": 84}, {"time": 208, "pitch": 57, "duration": 3, "velocity": 86}, {"time": 208, "pitch": 60, "duration": 12, "velocity": 78}, {"time": 214, "pitch": 52, "duration": 4, "velocity": 87}, {"time": 214, "pitch": 57, "duration": 4, "velocity": 46}, {"time": 220, "pitch": 47, "duration": 17, "velocity": 85}, {"time": 232, "pitch": 59, "duration": 4, "velocity": 82}, {"time": 232, "pitch": 63, "duration": 4, "velocity": 77}, {"time": 232, "pitch": 66, "duration": 5, "velocity": 72}, {"time": 244, "pitch": 59, "duration": 3, "velocity": 78}, {"time": 244, "pitch": 63, "duration": 4, "velocity": 77}, {"time": 244, "pitch": 66, "duration": 10, "velocity": 82}, {"time": 250, "pitch": 59, "duration": 9, "velocity": 83}, {"time": 256, "pitch": 45, "duration": 31, "velocity": 82}, {"time": 256, "pitch": 57, "duration": 9, "velocity": 76}, {"time": 256, "pitch": 60, "duration": 8, "velocity": 77}, {"time": 268, "pitch": 60, "duration": 3, "velocity": 88}, {"time": 268, "pitch": 64, "duration": 3, "velocity": 86}, {"time": 274, "pitch": 52, "duration": 13, "velocity": 71}, {"time": 280, "pitch": 60, "duration": 19, "velocity": 85}, {"time": 280, "pitch": 64, "duration": 18, "velocity": 88}, {"time": 286, "pitch": 57, "duration": 13, "velocity": 78}, {"time": 292, "pitch": 45, "duration": 27, "velocity": 83}, {"time": 298, "pitch": 52, "duration": 21, "velocity": 73}, {"time": 304, "pitch": 57, "duration": 4, "velocity": 78}, {"time": 304, "pitch": 60, "duration": 5, "velocity": 83}, {"time": 304, "pitch": 64, "duration": 4, "velocity": 84}, {"time": 316, "pitch": 57, "duration": 2, "velocity": 71}, {"time": 316, "pitch": 60, "duration": 4, "velocity": 83}, {"time": 316, "pitch": 64, "duration": 4, "velocity": 84}, {"time": 322, "pitch": 57, "duration": 3, "velocity": 83}, {"time": 328, "pitch": 47, "duration": 17, "velocity": 82}, {"time": 328, "pitch": 59, "duration": 9, "velocity": 75}, {"time": 328, "pitch": 63, "duration": 8, "velocity": 71}, {"time": 340, "pitch": 59, "duration": 2, "velocity": 78}, {"time": 340, "pitch": 63, "duration": 8, "velocity": 83}, {"time": 340, "pitch": 66, "duration": 13, "velocity": 80}, {"time": 346, "pitch": 59, "duration": 6, "velocity": 84}, {"time": 352, "pitch": 54, "duration": 3, "velocity": 83}, {"time": 358, "pitch": 59, "duration": 4, "velocity": 83}, {"time": 364, "pitch": 40, "duration": 30, "velocity": 84}, {"time": 364, "pitch": 59, "duration": 5, "velocity": 82}, {"time": 364, "pitch": 64, "duration": 8, "velocity": 83}, {"time": 370, "pitch": 47, "duration": 18, "velocity": 65}, {"time": 376, "pitch": 67, "duration": 24, "velocity": 84}, {"time": 382, "pitch": 59, "duration": 9, "velocity": 78}, {"time": 388, "pitch": 64, "duration": 12, "velocity": 84}, {"time": 394, "pitch": 59, "duration": 7, "velocity": 77}, {"time": 400, "pitch": 40, "duration": 31, "velocity": 84}, {"time": 412, "pitch": 52, "duration": 3, "velocity": 78}, {"time": 412, "pitch": 55, "duration": 4, "velocity": 77}, {"time": 424, "pitch": 55, "duration": 2, "velocity": 69}, {"time": 424, "pitch": 59, "duration": 3, "velocity": 83}, {"time": 436, "pitch": 40, "duration": 27, "velocity": 78}, {"time": 442, "pitch": 47, "duration": 20, "velocity": 70}, {"time": 448, "pitch": 55, "duration": 7, "velocity": 79}, {"time": 448, "pitch": 59, "duration": 7, "velocity": 83}, {"time": 448, "pitch": 64, "duration": 7, "velocity": 86}, {"time": 454, "pitch": 52, "duration": 7, "velocity": 84}, {"time": 460, "pitch": 55, "duration": 10, "velocity": 83}, {"time": 460, "pitch": 59, "duration": 12, "velocity": 82}, {"time": 466, "pitch": 52, "duration": 5, "velocity": 84}, {"time": 472, "pitch": 45, "duration": 28, "velocity": 82}, {"time": 478, "pitch": 52, "duration": 22, "velocity": 72}, {"time": 484, "pitch": 57, "duration": 3, "velocity": 75}, {"time": 484, "pitch": 60, "duration": 8, "velocity": 77}, {"time": 490, "pitch": 57, "duration": 3, "velocity": 61}, {"time": 496, "pitch": 60, "duration": 11, "velocity": 83}, {"time": 496, "pitch": 64, "duration": 11, "velocity": 82}, {"time": 508, "pitch": 47, "duration": 17, "velocity": 83}, {"time": 514, "pitch": 59, "duration": 5, "velocity": 81}, {"time": 520, "pitch": 63, "duration": 13, "velocity": 78}, {"time": 520, "pitch": 66, "duration": 14, "velocity": 78}, {"time": 526, "pitch": 59, "duration": 7, "velocity": 58}, {"time": 532, "pitch": 54, "duration": 3, "velocity": 81}, {"time": 544, "pitch": 45, "duration": 28, "velocity": 83}, {"time": 544, "pitch": 57, "duration": 10, "velocity": 74}, {"time": 544, "pitch": 60, "duration": 9, "velocity": 77}, {"time": 550, "pitch": 52, "duration": 22, "velocity": 75}, {"time": 556, "pitch": 60, "duration": 4, "velocity": 79}, {"time": 556, "pitch": 64, "duration": 7, "velocity": 82}, {"time": 562, "pitch": 57, "duration": 3, "velocity": 72}, {"time": 568, "pitch": 57, "duration": 2, "velocity": 78}, {"time": 568, "pitch": 60, "duration": 2, "velocity": 83}, {"time": 568, "pitch": 64, "duration": 2, "velocity": 83}, {"time": 580, "pitch": 45, "duration": 30, "velocity": 82}, {"time": 586, "pitch": 52, "duration": 23, "velocity": 76}, {"time": 592, "pitch": 57, "duration": 8, "velocity": 82}, {"time": 598, "pitch": 60, "duration": 4, "velocity": 84}, {"time": 604, "pitch": 57, "duration": 3, "velocity": 76}, {"time": 604, "pitch": 60, "duration": 7, "velocity": 83}, {"time": 604, "pitch": 64, "duration": 12, "velocity": 84}, {"time": 610, "pitch": 57, "duration": 5, "velocity": 82}, {"time": 616, "pitch": 47, "duration": 18, "velocity": 84}, {"time": 628, "pitch": 63, "duration": 7, "velocity": 82}, {"time": 628, "pitch": 66, "duration": 10, "velocity": 79}, {"time": 634, "pitch": 59, "duration": 3, "velocity": 82}, {"time": 640, "pitch": 54, "duration": 3, "velocity": 73}, {"time": 646, "pitch": 59, "duration": 4, "velocity": 83}, {"time": 652, "pitch": 40, "duration": 31, "velocity": 83}, {"time": 652, "pitch": 59, "duration": 4, "velocity": 78}, {"time": 652, "pitch": 64, "duration": 8, "velocity": 82}, {"time": 658, "pitch": 59, "duration": 4, "velocity": 77}, {"time": 664, "pitch": 64, "duration": 5, "velocity": 84}, {"time": 664, "pitch": 67, "duration": 7, "velocity": 80}, {"time": 676, "pitch": 59, "duration": 3, "velocity": 81}, {"time": 676, "pitch": 64, "duration": 4, "velocity": 84}, {"time": 676, "pitch": 67, "duration": 4, "velocity": 77}, {"time": 682, "pitch": 59, "duration": 3, "velocity": 77}, {"time": 688, "pitch": 40, "duration": 32, "velocity": 87}, {"time": 688, "pitch": 59, "duration": 3, "velocity": 82}, {"time": 688, "pitch": 64, "duration": 8, "velocity": 84}, {"time": 694, "pitch": 59, "duration": 9, "velocity": 77}, {"time": 700, "pitch": 64, "duration": 8, "velocity": 82}, {"time": 706, "pitch": 59, "duration": 4, "velocity": 83}, {"time": 712, "pitch": 64, "duration": 8, "velocity": 87}, {"time": 712, "pitch": 68, "duration": 8, "velocity": 86}, {"time": 718, "pitch": 59, "duration": 8, "velocity": 82}, {"time": 724, "pitch": 40, "duration": 26, "velocity": 86}, {"time": 724, "pitch": 64, "duration": 8, "velocity": 82}, {"time": 724, "pitch": 68, "duration": 9, "velocity": 76}, {"time": 730, "pitch": 59, "duration": 7, "velocity": 77}, {"time": 736, "pitch": 64, "duration": 8, "velocity": 74}, {"time": 736, "pitch": 68, "duration": 8, "velocity": 73}, {"time": 742, "pitch": 59, "duration": 4, "velocity": 76}, {"time": 748, "pitch": 64, "duration": 6, "velocity": 86}, {"time": 748, "pitch": 68, "duration": 7, "velocity": 87}, {"time": 754, "pitch": 59, "duration": 3, "velocity": 84}, {"time": 760, "pitch": 45, "duration": 31, "velocity": 82}, {"time": 760, "pitch": 57, "duration": 8, "velocity": 70}, {"time": 760, "pitch": 60, "duration": 9, "velocity": 62}, {"time": 766, "pitch": 52, "duration": 25, "velocity": 82}, {"time": 772, "pitch": 57, "duration": 4, "velocity": 77}, {"time": 772, "pitch": 60, "duration": 7, "velocity": 67}, {"time": 778, "pitch": 57, "duration": 4, "velocity": 76}, {"time": 784, "pitch": 60, "duration": 5, "velocity": 83}, {"time": 784, "pitch": 64, "duration": 8, "velocity": 85}, {"time": 790, "pitch": 57, "duration": 3, "velocity": 74}, {"time": 790, "pitch": 60, "duration": 2, "velocity": 46}, {"time": 796, "pitch": 43, "duration": 22, "velocity": 79}, {"time": 796, "pitch": 55, "duration": 10, "velocity": 73}, {"time": 796, "pitch": 59, "duration": 9, "velocity": 73}, {"time": 802, "pitch": 50, "duration": 15, "velocity": 68}, {"time": 808, "pitch": 59, "duration": 4, "velocity": 83}, {"time": 808, "pitch": 62, "duration": 8, "velocity": 82}, {"time": 814, "pitch": 55, "duration": 3, "velocity": 82}, {"time": 820, "pitch": 59, "duration": 3, "velocity": 82}, {"time": 820, "pitch": 62, "duration": 3, "velocity": 78}, {"time": 832, "pitch": 47, "duration": 19, "velocity": 84}, {"time": 838, "pitch": 59, "duration": 8, "velocity": 80}, {"time": 844, "pitch": 62, "duration": 10, "velocity": 82}, {"time": 850, "pitch": 59, "duration": 8, "velocity": 78}, {"time": 856, "pitch": 55, "duration": 4, "velocity": 83}, {"time": 862, "pitch": 59, "duration": 3, "velocity": 84}, {"time": 868, "pitch": 45, "duration": 31, "velocity": 82}, {"time": 868, "pitch": 57, "duration": 10, "velocity": 70}, {"time": 868, "pitch": 60, "duration": 10, "velocity": 72}, {"time": 874, "pitch": 52, "duration": 26, "velocity": 72}, {"time": 880, "pitch": 60, "duration": 4, "velocity": 73}, {"time": 880, "pitch": 64, "duration": 5, "velocity": 82}, {"time": 886, "pitch": 57, "duration": 3, "velocity": 39}, {"time": 892, "pitch": 57, "duration": 2, "velocity": 79}, {"time": 892, "pitch": 60, "duration": 9, "velocity": 84}, {"time": 892, "pitch": 64, "duration": 10, "velocity": 83}, {"time": 898, "pitch": 57, "duration": 4, "velocity": 75}, {"time": 904, "pitch": 47, "duration": 22, "velocity": 86}, {"time": 910, "pitch": 59, "duration": 4, "velocity": 74}, {"time": 916, "pitch": 63, "duration": 8, "velocity": 78}, {"time": 916, "pitch": 66, "duration": 8, "velocity": 81}, {"time": 928, "pitch": 59, "duration": 3, "velocity": 78}, {"time": 928, "pitch": 63, "duration": 6, "velocity": 82}, {"time": 928, "pitch": 66, "duration": 8, "velocity": 77}, {"time": 934, "pitch": 59, "duration": 4, "velocity": 81}, {"time": 940, "pitch": 40, "duration": 36, "velocity": 86}, {"time": 940, "pitch": 59, "duration": 4, "velocity": 78}, {"time": 940, "pitch": 64, "duration": 8, "velocity": 83}, {"time": 946, "pitch": 47, "duration": 29, "velocity": 69}, {"time": 952, "pitch": 67, "duration": 8, "velocity": 86}, {"time": 958, "pitch": 59, "duration": 3, "velocity": 89}, {"time": 964, "pitch": 66, "duration": 6, "velocity": 88}, {"time": 970, "pitch": 59, "duration": 3, "velocity": 79}, {"time": 976, "pitch": 40, "duration": 31, "velocity": 84}, {"time": 988, "pitch": 52, "duration": 3, "velocity": 78}, {"time": 988, "pitch": 55, "duration": 4, "velocity": 77}, {"time": 1000, "pitch": 55, "duration": 2, "velocity": 69}, {"time": 1000, "pitch": 59, "duration": 3, "velocity": 83}, {"time": 1012, "pitch": 40, "duration": 27, "velocity": 78}, {"time": 1018, "pitch": 47, "duration": 20, "velocity": 70}, {"time": 1024, "pitch": 55, "duration": 7, "velocity": 79}, {"time": 1024, "pitch": 59, "duration": 7, "velocity": 83}, {"time": 1024, "pitch": 64, "duration": 7, "velocity": 86}, {"time": 1030, "pitch": 52, "duration": 7, "velocity": 84}, {"time": 1036, "pitch": 55, "duration": 10, "velocity": 83}, {"time": 1036, "pitch": 59, "duration": 12, "velocity": 82}, {"time": 1042, "pitch": 52, "duration": 5, "velocity": 84}, {"time": 1048, "pitch": 45, "duration": 28, "velocity": 82}, {"time": 1054, "pitch": 52, "duration": 22, "velocity": 72}, {"time": 1060, "pitch": 57, "duration": 3, "velocity": 75}, {"time": 1060, "pitch": 60, "duration": 8, "velocity": 77}, {"time": 1066, "pitch": 57, "duration": 3, "velocity": 61}, {"time": 1072, "pitch": 60, "duration": 11, "velocity": 83}, {"time": 1072, "pitch": 64, "duration": 11, "velocity": 82}, {"time": 1084, "pitch": 47, "duration": 17, "velocity": 83}, {"time": 1090, "pitch": 59, "duration": 5, "velocity": 81}, {"time": 1096, "pitch": 63, "duration": 13, "velocity": 78}, {"time": 1096, "pitch": 66, "duration": 14, "velocity": 78}, {"time": 1102, "pitch": 59, "duration": 7, "velocity": 58}, {"time": 1108, "pitch": 54, "duration": 3, "velocity": 81}, {"time": 1120, "pitch": 45, "duration": 28, "velocity": 83}, {"time": 1120, "pitch": 57, "duration": 10, "velocity": 74}, {"time": 1120, "pitch": 60, "duration": 9, "velocity": 77}, {"time": 1126, "pitch": 52, "duration": 22, "velocity": 75}, {"time": 1132, "pitch": 60, "duration": 4, "velocity": 79}, {"time": 1132, "pitch": 64, "duration": 7, "velocity": 82}, {"time": 1138, "pitch": 57, "duration": 3, "velocity": 72}, {"time": 1144, "pitch": 57, "duration": 2, "velocity": 78}, {"time": 1144, "pitch": 60, "duration": 2, "velocity": 83}, {"time": 1144, "pitch": 64, "duration": 2, "velocity": 83}, {"time": 1156, "pitch": 45, "duration": 30, "velocity": 82}, {"time": 1162, "pitch": 52, "duration": 23, "velocity": 76}, {"time": 1168, "pitch": 57, "duration": 8, "velocity": 82}, {"time": 1174, "pitch": 60, "duration": 4, "velocity": 84}, {"time": 1180, "pitch": 57, "duration": 3, "velocity": 76}, {"time": 1180, "pitch": 60, "duration": 7, "velocity": 83}, {"time": 1180, "pitch": 64, "duration": 12, "velocity": 84}, {"time": 1186, "pitch": 57, "duration": 5, "velocity": 82}, {"time": 1192, "pitch": 47, "duration": 18, "velocity": 84}, {"time": 1204, "pitch": 63, "duration": 7, "velocity": 82}, {"time": 1204, "pitch": 66, "duration": 10, "velocity": 79}, {"time": 1210, "pitch": 59, "duration": 3, "velocity": 82}, {"time": 1216, "pitch": 54, "duration": 3, "velocity": 73}, {"time": 1222, "pitch": 59, "duration": 4, "velocity": 83}, {"time": 1228, "pitch": 40, "duration": 31, "velocity": 83}, {"time": 1228, "pitch": 59, "duration": 4, "velocity": 78}, {"time": 1228, "pitch": 64, "duration": 8, "velocity": 82}, {"time": 1234, "pitch": 59, "duration": 4, "velocity": 77}, {"time": 1240, "pitch": 64, "duration": 5, "velocity": 84}, {"time": 1240, "pitch": 67, "duration": 7, "velocity": 80}, {"time": 1252, "pitch": 59, "duration": 3, "velocity": 81}, {"time": 1252, "pitch": 64, "duration": 4, "velocity": 84}, {"time": 1252, "pitch": 67, "duration": 4, "velocity": 77}, {"time": 1258, "pitch": 59, "duration": 3, "velocity": 77}, {"time": 1264, "pitch": 40, "duration": 32, "velocity": 87}, {"time": 1264, "pitch": 59, "duration": 3, "velocity": 82}, {"time": 1264, "pitch": 64, "duration": 8, "velocity": 84}, {"time": 1270, "pitch": 59, "duration": 9, "velocity": 77}, {"time": 1276, "pitch": 64, "duration": 8, "velocity": 82}, {"time": 1282, "pitch": 59, "duration": 4, "velocity": 83}, {"time": 1288, "pitch": 64, "duration": 8, "velocity": 87}, {"time": 1288, "pitch": 68, "duration": 8, "velocity": 86}, {"time": 1294, "pitch": 59, "duration": 8, "velocity": 82}, {"time": 1300, "pitch": 40, "duration": 26, "velocity": 86}, {"time": 1300, "pitch": 64, "duration": 8, "velocity": 82}, {"time": 1300, "pitch": 68, "duration": 9, "velocity": 76}, {"time": 1306, "pitch": 59, "duration": 7, "velocity": 77}, {"time": 1312, "pitch": 64, "duration": 8, "velocity": 74}, {"time": 1312, "pitch": 68, "duration": 8, "velocity": 73}, {"time": 1318, "pitch": 59, "duration": 4, "velocity": 76}, {"time": 1324, "pitch": 64, "duration": 6, "velocity": 86}, {"time": 1324, "pitch": 68, "duration": 7, "velocity": 87}, {"time": 1330, "pitch": 59, "duration": 3, "velocity": 84}, {"time": 1336, "pitch": 45, "duration": 31, "velocity": 82}, {"time": 1336, "pitch": 57, "duration": 8, "velocity": 70}, {"time": 1336, "pitch": 60, "duration": 9, "velocity": 62}, {"time": 1342, "pitch": 52, "duration": 25, "velocity": 82}, {"time": 1348, "pitch": 57, "duration": 4, "velocity": 77}, {"time": 1348, "pitch": 60, "duration": 7, "velocity": 67}, {"time": 1354, "pitch": 57, "duration": 4, "velocity": 76}, {"time": 1360, "pitch": 60, "duration": 5, "velocity": 83}, {"time": 1360, "pitch": 64, "duration": 8, "velocity": 85}, {"time": 1366, "pitch": 57, "duration": 3, "velocity": 74}, {"time": 1366, "pitch": 60, "duration": 2, "velocity": 46}, {"time": 1372, "pitch": 43, "duration": 22, "velocity": 79}, {"time": 1372, "pitch": 55, "duration": 10, "velocity": 73}, {"time": 1372, "pitch": 59, "duration": 9, "velocity": 73}, {"time": 1378, "pitch": 50, "duration": 15, "velocity": 68}, {"time": 1384, "pitch": 59, "duration": 4, "velocity": 83}, {"time": 1384, "pitch": 62, "duration": 8, "velocity": 82}, {"time": 1390, "pitch": 55, "duration": 3, "velocity": 82}, {"time": 1396, "pitch": 59, "duration": 3, "velocity": 82}, {"time": 1396, "pitch": 62, "duration": 3, "velocity": 78}, {"time": 1408, "pitch": 47, "duration": 19, "velocity": 84}, {"time": 1414, "pitch": 59, "duration": 8, "velocity": 80}, {"time": 1420, "pitch": 67, "duration": 10, "velocity": 82}, {"time": 1426, "pitch": 59, "duration": 8, "velocity": 78}, {"time": 1432, "pitch": 62, "duration": 6, "velocity": 83}, {"time": 1438, "pitch": 59, "duration": 6, "velocity": 84}, {"time": 1444, "pitch": 45, "duration": 31, "velocity": 82}, {"time": 1444, "pitch": 57, "duration": 10, "velocity": 70}, {"time": 1444, "pitch": 60, "duration": 10, "velocity": 72}, {"time": 1450, "pitch": 52, "duration": 26, "velocity": 72}, {"time": 1456, "pitch": 60, "duration": 4, "velocity": 73}, {"time": 1456, "pitch": 64, "duration": 5, "velocity": 82}, {"time": 1462, "pitch": 57, "duration": 3, "velocity": 39}, {"time": 1468, "pitch": 57, "duration": 2, "velocity": 79}, {"time": 1468, "pitch": 60, "duration": 9, "velocity": 84}, {"time": 1468, "pitch": 64, "duration": 10, "velocity": 83}, {"time": 1474, "pitch": 57, "duration": 4, "velocity": 75}, {"time": 1480, "pitch": 47, "duration": 22, "velocity": 86}, {"time": 1486, "pitch": 59, "duration": 4, "velocity": 74}, {"time": 1492, "pitch": 63, "duration": 8, "velocity": 78}, {"time": 1492, "pitch": 66, "duration": 8, "velocity": 81}, {"time": 1504, "pitch": 59, "duration": 3, "velocity": 78}, {"time": 1504, "pitch": 63, "duration": 6, "velocity": 82}, {"time": 1504, "pitch": 66, "duration": 8, "velocity": 77}, {"time": 1510, "pitch": 59, "duration": 4, "velocity": 81}, {"time": 1516, "pitch": 40, "duration": 36, "velocity": 86}, {"time": 1516, "pitch": 59, "duration": 4, "velocity": 78}, {"time": 1516, "pitch": 64, "duration": 8, "velocity": 83}, {"time": 1522, "pitch": 47, "duration": 29, "velocity": 69}, {"time": 1528, "pitch": 67, "duration": 8, "velocity": 86}, {"time": 1534, "pitch": 59, "duration": 3, "velocity": 89}, {"time": 1540, "pitch": 66, "duration": 6, "velocity": 88}, {"time": 1546, "pitch": 59, "duration": 3, "velocity": 79}, {"time": 1552, "pitch": 40, "duration": 29, "velocity": 83}, {"time": 1552, "pitch": 52, "duration": 7, "velocity": 80}, {"time": 1552, "pitch": 64, "duration": 14, "velocity": 84}, {"time": 1558, "pitch": 47, "duration": 11, "velocity": 77}, {"time": 1564, "pitch": 52, "duration": 10, "velocity": 98}, {"time": 1570, "pitch": 47, "duration": 10, "velocity": 81}, {"time": 1576, "pitch": 52, "duration": 2, "velocity": 83}, {"time": 1576, "pitch": 59, "duration": 11, "velocity": 82}, {"time": 1576, "pitch": 64, "duration": 13, "velocity": 83}, {"time": 1582, "pitch": 52, "duration": 7, "velocity": 89}, {"time": 1588, "pitch": 45, "duration": 25, "velocity": 83}, {"time": 1588, "pitch": 57, "duration": 8, "velocity": 79}, {"time": 1594, "pitch": 52, "duration": 9, "velocity": 75}, {"time": 1600, "pitch": 57, "duration": 8, "velocity": 86}, {"time": 1600, "pitch": 60, "duration": 8, "velocity": 86}, {"time": 1606, "pitch": 52, "duration": 6, "velocity": 81}, {"time": 1612, "pitch": 60, "duration": 4, "velocity": 86}, {"time": 1612, "pitch": 64, "duration": 4, "velocity": 87}, {"time": 1624, "pitch": 38, "duration": 27, "velocity": 85}, {"time": 1624, "pitch": 57, "duration": 6, "velocity": 82}, {"time": 1624, "pitch": 62, "duration": 13, "velocity": 80}, {"time": 1630, "pitch": 45, "duration": 21, "velocity": 71}, {"time": 1636, "pitch": 57, "duration": 8, "velocity": 82}, {"time": 1642, "pitch": 62, "duration": 3, "velocity": 77}, {"time": 1648, "pitch": 57, "duration": 3, "velocity": 83}, {"time": 1648, "pitch": 62, "duration": 7, "velocity": 87}, {"time": 1648, "pitch": 66, "duration": 7, "velocity": 88}, {"time": 1654, "pitch": 57, "duration": 2, "velocity": 82}, {"time": 1660, "pitch": 43, "duration": 31, "velocity": 80}, {"time": 1660, "pitch": 55, "duration": 9, "velocity": 82}, {"time": 1660, "pitch": 59, "duration": 10, "velocity": 80}, {"time": 1666, "pitch": 50, "duration": 22, "velocity": 75}, {"time": 1672, "pitch": 55, "duration": 9, "velocity": 82}, {"time": 1672, "pitch": 59, "duration": 2, "velocity": 77}, {"time": 1684, "pitch": 55, "duration": 3, "velocity": 84}, {"time": 1684, "pitch": 59, "duration": 10, "velocity": 85}, {"time": 1684, "pitch": 62, "duration": 12, "velocity": 82}, {"time": 1690, "pitch": 55, "duration": 4, "velocity": 82}, {"time": 1696, "pitch": 47, "duration": 21, "velocity": 83}, {"time": 1702, "pitch": 59, "duration": 4, "velocity": 73}, {"time": 1708, "pitch": 59, "duration": 4, "velocity": 83}, {"time": 1708, "pitch": 63, "duration": 7, "velocity": 79}, {"time": 1708, "pitch": 66, "duration": 9, "velocity": 77}, {"time": 1714, "pitch": 59, "duration": 5, "velocity": 77}, {"time": 1720, "pitch": 59, "duration": 3, "velocity": 83}, {"time": 1720, "pitch": 63, "duration": 8, "velocity": 88}, {"time": 1720, "pitch": 66, "duration": 9, "velocity": 81}, {"time": 1726, "pitch": 59, "duration": 4, "velocity": 84}, {"time": 1732, "pitch": 45, "duration": 33, "velocity": 83}, {"time": 1732, "pitch": 57, "duration": 8, "velocity": 76}, {"time": 1732, "pitch": 60, "duration": 8, "velocity": 80}, {"time": 1738, "pitch": 52, "duration": 28, "velocity": 77}, {"time": 1744, "pitch": 60, "duration": 5, "velocity": 84}, {"time": 1744, "pitch": 64, "duration": 5, "velocity": 85}, {"time": 1750, "pitch": 57, "duration": 3, "velocity": 71}, {"time": 1756, "pitch": 60, "duration": 4, "velocity": 81}, {"time": 1756, "pitch": 64, "duration": 4, "velocity": 81}, {"time": 1762, "pitch": 57, "duration": 15, "velocity": 83}, {"time": 1768, "pitch": 45, "duration": 32, "velocity": 84}, {"time": 1768, "pitch": 60, "duration": 9, "velocity": 75}, {"time": 1768, "pitch": 69, "duration": 8, "velocity": 83}, {"time": 1774, "pitch": 52, "duration": 10, "velocity": 74}, {"time": 1780, "pitch": 57, "duration": 2, "velocity": 72}, {"time": 1780, "pitch": 60, "duration": 8, "velocity": 84}, {"time": 1780, "pitch": 64, "duration": 7, "velocity": 83}, {"time": 1786, "pitch": 52, "duration": 9, "velocity": 82}, {"time": 1792, "pitch": 57, "duration": 3, "velocity": 81}, {"time": 1792, "pitch": 60, "duration": 4, "velocity": 84}, {"time": 1792, "pitch": 64, "duration": 5, "velocity": 86}, {"time": 1798, "pitch": 52, "duration": 4, "velocity": 80}, {"time": 1804, "pitch": 47, "duration": 18, "velocity": 84}, {"time": 1804, "pitch": 59, "duration": 4, "velocity": 82}, {"time": 1804, "pitch": 63, "duration": 8, "velocity": 78}, {"time": 1810, "pitch": 59, "duration": 7, "velocity": 87}, {"time": 1816, "pitch": 63, "duration": 8, "velocity": 88}, {"time": 1822, "pitch": 59, "duration": 4, "velocity": 87}, {"time": 1828, "pitch": 59, "duration": 3, "velocity": 84}, {"time": 1828, "pitch": 63, "duration": 12, "velocity": 91}, {"time": 1828, "pitch": 66, "duration": 13, "velocity": 83}, {"time": 1828, "pitch": 71, "duration": 14, "velocity": 83}, {"time": 1834, "pitch": 59, "duration": 10, "velocity": 83}, {"time": 1840, "pitch": 40, "duration": 29, "velocity": 93}, {"time": 1846, "pitch": 47, "duration": 22, "velocity": 82}, {"time": 1852, "pitch": 55, "duration": 5, "velocity": 88}, {"time": 1858, "pitch": 59, "duration": 3, "velocity": 96}, {"time": 1864, "pitch": 64, "duration": 9, "velocity": 88}, {"time": 1876, "pitch": 45, "duration": 34, "velocity": 83}, {"time": 1876, "pitch": 57, "duration": 8, "velocity": 82}, {"time": 1876, "pitch": 60, "duration": 13, "velocity": 82}, {"time": 1882, "pitch": 52, "duration": 27, "velocity": 75}, {"time": 1888, "pitch": 57, "duration": 10, "velocity": 81}, {"time": 1894, "pitch": 60, "duration": 4, "velocity": 83}, {"time": 1900, "pitch": 57, "duration": 3, "velocity": 76}, {"time": 1900, "pitch": 60, "duration": 7, "velocity": 83}, {"time": 1900, "pitch": 64, "duration": 10, "velocity": 84}, {"time": 1906, "pitch": 57, "duration": 3, "velocity": 78}, {"time": 1912, "pitch": 50, "duration": 30, "velocity": 82}, {"time": 1912, "pitch": 57, "duration": 3, "velocity": 83}, {"time": 1912, "pitch": 62, "duration": 8, "velocity": 83}, {"time": 1918, "pitch": 57, "duration": 7, "velocity": 83}, {"time": 1924, "pitch": 62, "duration": 8, "velocity": 81}, {"time": 1930, "pitch": 57, "duration": 4, "velocity": 75}, {"time": 1936, "pitch": 57, "duration": 3, "velocity": 83}, {"time": 1936, "pitch": 62, "duration": 7, "velocity": 86}, {"time": 1936, "pitch": 66, "duration": 8, "velocity": 86}, {"time": 1942, "pitch": 57, "duration": 3, "velocity": 83}, {"time": 1948, "pitch": 43, "duration": 32, "velocity": 82}, {"time": 1948, "pitch": 55, "duration": 12, "velocity": 79}, {"time": 1948, "pitch": 59, "duration": 13, "velocity": 78}, {"time": 1954, "pitch": 50, "duration": 24, "velocity": 76}, {"time": 1960, "pitch": 62, "duration": 8, "velocity": 80}, {"time": 1966, "pitch": 55, "duration": 5, "velocity": 79}, {"time": 1972, "pitch": 55, "duration": 2, "velocity": 72}, {"time": 1972, "pitch": 59, "duration": 14, "velocity": 82}, {"time": 1972, "pitch": 62, "duration": 13, "velocity": 82}, {"time": 1972, "pitch": 67, "duration": 13, "velocity": 80}, {"time": 1978, "pitch": 55, "duration": 8, "velocity": 83}, {"time": 1984, "pitch": 40, "duration": 30, "velocity": 91}, {"time": 1990, "pitch": 47, "duration": 23, "velocity": 76}, {"time": 1996, "pitch": 52, "duration": 9, "velocity": 83}, {"time": 2002, "pitch": 55, "duration": 4, "velocity": 84}, {"time": 2008, "pitch": 52, "duration": 2, "velocity": 82}, {"time": 2008, "pitch": 55, "duration": 8, "velocity": 86}, {"time": 2008, "pitch": 59, "duration": 11, "velocity": 84}, {"time": 2014, "pitch": 52, "duration": 4, "velocity": 83}, {"time": 2020, "pitch": 45, "duration": 28, "velocity": 83}, {"time": 2020, "pitch": 52, "duration": 5, "velocity": 85}, {"time": 2020, "pitch": 57, "duration": 8, "velocity": 77}, {"time": 2026, "pitch": 52, "duration": 22, "velocity": 73}, {"time": 2032, "pitch": 57, "duration": 4, "velocity": 83}, {"time": 2032, "pitch": 60, "duration": 7, "velocity": 79}, {"time": 2038, "pitch": 57, "duration": 4, "velocity": 77}, {"time": 2044, "pitch": 60, "duration": 4, "velocity": 85}, {"time": 2044, "pitch": 64, "duration": 5, "velocity": 85}, {"time": 2056, "pitch": 47, "duration": 20, "velocity": 84}, {"time": 2056, "pitch": 59, "duration": 3, "velocity": 83}, {"time": 2056, "pitch": 63, "duration": 8, "velocity": 78}, {"time": 2062, "pitch": 59, "duration": 7, "velocity": 83}, {"time": 2068, "pitch": 66, "duration": 8, "velocity": 85}, {"time": 2074, "pitch": 59, "duration": 6, "velocity": 88}, {"time": 2080, "pitch": 71, "duration": 6, "velocity": 85}, {"time": 2086, "pitch": 59, "duration": 3, "velocity": 86}, {"time": 2092, "pitch": 40, "duration": 37, "velocity": 84}, {"time": 2092, "pitch": 52, "duration": 9, "velocity": 82}, {"time": 2092, "pitch": 55, "duration": 11, "velocity": 76}, {"time": 2098, "pitch": 47, "duration": 31, "velocity": 75}, {"time": 2104, "pitch": 55, "duration": 7, "velocity": 82}, {"time": 2110, "pitch": 52, "duration": 5, "velocity": 87}, {"time": 2116, "pitch": 52, "duration": 12, "velocity": 87}, {"time": 2116, "pitch": 59, "duration": 13, "velocity": 86}, {"time": 2128, "pitch": 40, "duration": 1, "velocity": 84}, {"time": 2140, "pitch": 52, "duration": 3, "velocity": 78}, {"time": 2140, "pitch": 55, "duration": 4, "velocity": 77}, {"time": 2152, "pitch": 55, "duration": 2, "velocity": 69}, {"time": 2152, "pitch": 59, "duration": 3, "velocity": 83}, {"time": 2164, "pitch": 40, "duration": 27, "velocity": 78}, {"time": 2170, "pitch": 47, "duration": 20, "velocity": 70}, {"time": 2176, "pitch": 55, "duration": 7, "velocity": 79}, {"time": 2176, "pitch": 59, "duration": 7, "velocity": 83}, {"time": 2176, "pitch": 64, "duration": 7, "velocity": 86}, {"time": 2182, "pitch": 52, "duration": 7, "velocity": 84}, {"time": 2188, "pitch": 55, "duration": 10, "velocity": 83}, {"time": 2188, "pitch": 59, "duration": 12, "velocity": 82}, {"time": 2194, "pitch": 52, "duration": 5, "velocity": 84}, {"time": 2200, "pitch": 45, "duration": 28, "velocity": 82}, {"time": 2206, "pitch": 52, "duration": 22, "velocity": 72}, {"time": 2212, "pitch": 57, "duration": 3, "velocity": 75}, {"time": 2212, "pitch": 60, "duration": 8, "velocity": 77}, {"time": 2218, "pitch": 57, "duration": 3, "velocity": 61}, {"time": 2224, "pitch": 60, "duration": 11, "velocity": 83}, {"time": 2224, "pitch": 64, "duration": 11, "velocity": 82}, {"time": 2236, "pitch": 47, "duration": 17, "velocity": 83}, {"time": 2242, "pitch": 59, "duration": 5, "velocity": 81}, {"time": 2248, "pitch": 63, "duration": 13, "velocity": 78}, {"time": 2248, "pitch": 66, "duration": 14, "velocity": 78}, {"time": 2254, "pitch": 59, "duration": 7, "velocity": 58}, {"time": 2260, "pitch": 54, "duration": 3, "velocity": 81}, {"time": 2272, "pitch": 45, "duration": 28, "velocity": 83}, {"time": 2272, "pitch": 57, "duration": 10, "velocity": 74}, {"time": 2272, "pitch": 60, "duration": 9, "velocity": 77}, {"time": 2278, "pitch": 52, "duration": 22, "velocity": 75}, {"time": 2284, "pitch": 60, "duration": 4, "velocity": 79}, {"time": 2284, "pitch": 64, "duration": 7, "velocity": 82}, {"time": 2290, "pitch": 57, "duration": 3, "velocity": 72}, {"time": 2296, "pitch": 57, "duration": 2, "velocity": 78}, {"time": 2296, "pitch": 60, "duration": 2, "velocity": 83}, {"time": 2296, "pitch": 64, "duration": 2, "velocity": 83}, {"time": 2308, "pitch": 45, "duration": 30, "velocity": 82}, {"time": 2314, "pitch": 52, "duration": 23, "velocity": 76}, {"time": 2320, "pitch": 57, "duration": 8, "velocity": 82}, {"time": 2326, "pitch": 60, "duration": 4, "velocity": 84}, {"time": 2332, "pitch": 57, "duration": 3, "velocity": 76}, {"time": 2332, "pitch": 60, "duration": 7, "velocity": 83}, {"time": 2332, "pitch": 64, "duration": 12, "velocity": 84}, {"time": 2338, "pitch": 57, "duration": 5, "velocity": 82}, {"time": 2344, "pitch": 47, "duration": 18, "velocity": 84}, {"time": 2356, "pitch": 63, "duration": 7, "velocity": 82}, {"time": 2356, "pitch": 66, "duration": 10, "velocity": 79}, {"time": 2362, "pitch": 59, "duration": 3, "velocity": 82}, {"time": 2368, "pitch": 54, "duration": 3, "velocity": 73}, {"time": 2374, "pitch": 59, "duration": 4, "velocity": 83}, {"time": 2380, "pitch": 40, "duration": 31, "velocity": 83}, {"time": 2380, "pitch": 59, "duration": 4, "velocity": 78}, {"time": 2380, "pitch": 64, "duration": 8, "velocity": 82}, {"time": 2386, "pitch": 59, "duration": 4, "velocity": 77}, {"time": 2392, "pitch": 64, "duration": 5, "velocity": 84}, {"time": 2392, "pitch": 67, "duration": 7, "velocity": 80}, {"time": 2404, "pitch": 59, "duration": 3, "velocity": 81}, {"time": 2404, "pitch": 64, "duration": 4, "velocity": 84}, {"time": 2404, "pitch": 67, "duration": 4, "velocity": 77}, {"time": 2410, "pitch": 59, "duration": 3, "velocity": 77}, {"time": 2416, "pitch": 40, "duration": 32, "velocity": 87}, {"time": 2416, "pitch": 59, "duration": 3, "velocity": 82}, {"time": 2416, "pitch": 64, "duration": 8, "velocity": 84}, {"time": 2422, "pitch": 59, "duration": 9, "velocity": 77}, {"time": 2428, "pitch": 64, "duration": 8, "velocity": 82}, {"time": 2434, "pitch": 59, "duration": 4, "velocity": 83}, {"time": 2440, "pitch": 64, "duration": 8, "velocity": 87}, {"time": 2440, "pitch": 68, "duration": 8, "velocity": 86}, {"time": 2446, "pitch": 59, "duration": 8, "velocity": 82}, {"time": 2452, "pitch": 40, "duration": 26, "velocity": 86}, {"time": 2452, "pitch": 64, "duration": 8, "velocity": 82}, {"time": 2452, "pitch": 68, "duration": 9, "velocity": 76}, {"time": 2458, "pitch": 59, "duration": 7, "velocity": 77}, {"time": 2464, "pitch": 64, "duration": 8, "velocity": 74}, {"time": 2464, "pitch": 68, "duration": 8, "velocity": 73}, {"time": 2470, "pitch": 59, "duration": 4, "velocity": 76}, {"time": 2476, "pitch": 64, "duration": 6, "velocity": 86}, {"time": 2476, "pitch": 68, "duration": 7, "velocity": 87}, {"time": 2482, "pitch": 59, "duration": 3, "velocity": 84}, {"time": 2488, "pitch": 45, "duration": 31, "velocity": 82}, {"time": 2488, "pitch": 57, "duration": 8, "velocity": 70}, {"time": 2488, "pitch": 60, "duration": 9, "velocity": 62}, {"time": 2494, "pitch": 52, "duration": 25, "velocity": 82}, {"time": 2500, "pitch": 57, "duration": 4, "velocity": 77}, {"time": 2500, "pitch": 60, "duration": 7, "velocity": 67}, {"time": 2506, "pitch": 57, "duration": 4, "velocity": 76}, {"time": 2512, "pitch": 60, "duration": 5, "velocity": 83}, {"time": 2512, "pitch": 64, "duration": 8, "velocity": 85}, {"time": 2518, "pitch": 57, "duration": 3, "velocity": 74}, {"time": 2518, "pitch": 60, "duration": 2, "velocity": 46}, {"time": 2524, "pitch": 43, "duration": 22, "velocity": 79}, {"time": 2524, "pitch": 55, "duration": 10, "velocity": 73}, {"time": 2524, "pitch": 59, "duration": 9, "velocity": 73}, {"time": 2530, "pitch": 50, "duration": 15, "velocity": 68}, {"time": 2536, "pitch": 59, "duration": 4, "velocity": 83}, {"time": 2536, "pitch": 62, "duration": 8, "velocity": 82}, {"time": 2542, "pitch": 55, "duration": 3, "velocity": 82}, {"time": 2548, "pitch": 59, "duration": 3, "velocity": 82}, {"time": 2548, "pitch": 62, "duration": 3, "velocity": 78}, {"time": 2560, "pitch": 47, "duration": 19, "velocity": 84}, {"time": 2566, "pitch": 59, "duration": 8, "velocity": 80}, {"time": 2572, "pitch": 67, "duration": 10, "velocity": 82}, {"time": 2578, "pitch": 59, "duration": 8, "velocity": 78}, {"time": 2584, "pitch": 66, "duration": 6, "velocity": 83}, {"time": 2590, "pitch": 59, "duration": 3, "velocity": 84}, {"time": 2596, "pitch": 45, "duration": 31, "velocity": 82}, {"time": 2596, "pitch": 57, "duration": 10, "velocity": 70}, {"time": 2596, "pitch": 64, "duration": 10, "velocity": 72}, {"time": 2602, "pitch": 52, "duration": 26, "velocity": 72}, {"time": 2608, "pitch": 60, "duration": 4, "velocity": 73}, {"time": 2608, "pitch": 64, "duration": 5, "velocity": 82}, {"time": 2614, "pitch": 57, "duration": 3, "velocity": 39}, {"time": 2620, "pitch": 57, "duration": 2, "velocity": 79}, {"time": 2620, "pitch": 60, "duration": 9, "velocity": 84}, {"time": 2620, "pitch": 64, "duration": 10, "velocity": 83}, {"time": 2626, "pitch": 57, "duration": 4, "velocity": 75}, {"time": 2632, "pitch": 47, "duration": 22, "velocity": 86}, {"time": 2638, "pitch": 59, "duration": 4, "velocity": 74}, {"time": 2644, "pitch": 63, "duration": 8, "velocity": 78}, {"time": 2644, "pitch": 66, "duration": 8, "velocity": 81}, {"time": 2656, "pitch": 59, "duration": 3, "velocity": 78}, {"time": 2656, "pitch": 63, "duration": 6, "velocity": 82}, {"time": 2656, "pitch": 66, "duration": 8, "velocity": 77}, {"time": 2662, "pitch": 59, "duration": 4, "velocity": 81}, {"time": 2668, "pitch": 40, "duration": 36, "velocity": 86}, {"time": 2668, "pitch": 59, "duration": 4, "velocity": 78}, {"time": 2668, "pitch": 64, "duration": 8, "velocity": 83}, {"time": 2674, "pitch": 47, "duration": 29, "velocity": 69}, {"time": 2680, "pitch": 67, "duration": 8, "velocity": 86}, {"time": 2686, "pitch": 59, "duration": 3, "velocity": 89}, {"time": 2692, "pitch": 66, "duration": 6, "velocity": 88}, {"time": 2698, "pitch": 59, "duration": 3, "velocity": 79}, {"time": 2704, "pitch": 40, "duration": 31, "velocity": 84}, {"time": 2716, "pitch": 52, "duration": 3, "velocity": 78}, {"time": 2716, "pitch": 55, "duration": 4, "velocity": 77}, {"time": 2728, "pitch": 55, "duration": 2, "velocity": 69}, {"time": 2728, "pitch": 59, "duration": 3, "velocity": 83}, {"time": 2740, "pitch": 40, "duration": 27, "velocity": 78}, {"time": 2746, "pitch": 47, "duration": 20, "velocity": 70}, {"time": 2752, "pitch": 55, "duration": 7, "velocity": 79}, {"time": 2752, "pitch": 59, "duration": 7, "velocity": 83}, {"time": 2752, "pitch": 64, "duration": 7, "velocity": 86}, {"time": 2758, "pitch": 52, "duration": 7, "velocity": 84}, {"time": 2764, "pitch": 55, "duration": 10, "velocity": 83}, {"time": 2764, "pitch": 59, "duration": 12, "velocity": 82}, {"time": 2770, "pitch": 52, "duration": 5, "velocity": 84}, {"time": 2776, "pitch": 45, "duration": 28, "velocity": 82}, {"time": 2782, "pitch": 52, "duration": 22, "velocity": 72}, {"time": 2788, "pitch": 57, "duration": 3, "velocity": 75}, {"time": 2788, "pitch": 60, "duration": 8, "velocity": 77}, {"time": 2794, "pitch": 57, "duration": 3, "velocity": 61}, {"time": 2800, "pitch": 60, "duration": 11, "velocity": 83}, {"time": 2800, "pitch": 64, "duration": 11, "velocity": 82}, {"time": 2812, "pitch": 47, "duration": 17, "velocity": 83}, {"time": 2818, "pitch": 59, "duration": 5, "velocity": 81}, {"time": 2824, "pitch": 63, "duration": 13, "velocity": 78}, {"time": 2824, "pitch": 66, "duration": 14, "velocity": 78}, {"time": 2830, "pitch": 59, "duration": 7, "velocity": 58}, {"time": 2836, "pitch": 54, "duration": 3, "velocity": 81}, {"time": 2848, "pitch": 45, "duration": 28, "velocity": 83}, {"time": 2848, "pitch": 57, "duration": 10, "velocity": 74}, {"time": 2848, "pitch": 60, "duration": 9, "velocity": 77}, {"time": 2854, "pitch": 52, "duration": 22, "velocity": 75}, {"time": 2860, "pitch": 60, "duration": 4, "velocity": 79}, {"time": 2860, "pitch": 64, "duration": 7, "velocity": 82}, {"time": 2866, "pitch": 57, "duration": 3, "velocity": 72}, {"time": 2872, "pitch": 57, "duration": 2, "velocity": 78}, {"time": 2872, "pitch": 60, "duration": 2, "velocity": 83}, {"time": 2872, "pitch": 64, "duration": 2, "velocity": 83}, {"time": 2884, "pitch": 45, "duration": 30, "velocity": 82}, {"time": 2890, "pitch": 52, "duration": 23, "velocity": 76}, {"time": 2896, "pitch": 57, "duration": 8, "velocity": 82}, {"time": 2902, "pitch": 60, "duration": 4, "velocity": 84}, {"time": 2908, "pitch": 57, "duration": 3, "velocity": 76}, {"time": 2908, "pitch": 60, "duration": 7, "velocity": 83}, {"time": 2908, "pitch": 64, "duration": 12, "velocity": 84}, {"time": 2914, "pitch": 57, "duration": 5, "velocity": 82}, {"time": 2920, "pitch": 47, "duration": 18, "velocity": 84}, {"time": 2932, "pitch": 63, "duration": 7, "velocity": 82}, {"time": 2932, "pitch": 66, "duration": 10, "velocity": 79}, {"time": 2938, "pitch": 59, "duration": 3, "velocity": 82}, {"time": 2944, "pitch": 54, "duration": 3, "velocity": 73}, {"time": 2950, "pitch": 59, "duration": 4, "velocity": 83}, {"time": 2956, "pitch": 40, "duration": 31, "velocity": 83}, {"time": 2956, "pitch": 59, "duration": 4, "velocity": 78}, {"time": 2956, "pitch": 64, "duration": 8, "velocity": 82}, {"time": 2962, "pitch": 59, "duration": 4, "velocity": 77}, {"time": 2968, "pitch": 64, "duration": 5, "velocity": 84}, {"time": 2968, "pitch": 67, "duration": 7, "velocity": 80}, {"time": 2980, "pitch": 59, "duration": 3, "velocity": 81}, {"time": 2980, "pitch": 64, "duration": 4, "velocity": 84}, {"time": 2980, "pitch": 67, "duration": 4, "velocity": 77}, {"time": 2986, "pitch": 59, "duration": 3, "velocity": 77}, {"time": 2992, "pitch": 40, "duration": 32, "velocity": 87}, {"time": 2992, "pitch": 59, "duration": 3, "velocity": 82}, {"time": 2992, "pitch": 64, "duration": 8, "velocity": 84}, {"time": 2998, "pitch": 59, "duration": 9, "velocity": 77}, {"time": 3004, "pitch": 64, "duration": 8, "velocity": 82}, {"time": 3010, "pitch": 59, "duration": 4, "velocity": 83}, {"time": 3016, "pitch": 64, "duration": 8, "velocity": 87}, {"time": 3016, "pitch": 68, "duration": 8, "velocity": 86}, {"time": 3022, "pitch": 59, "duration": 8, "velocity": 82}, {"time": 3028, "pitch": 40, "duration": 26, "velocity": 86}, {"time": 3028, "pitch": 64, "duration": 8, "velocity": 82}, {"time": 3028, "pitch": 68, "duration": 9, "velocity": 76}, {"time": 3034, "pitch": 59, "duration": 7, "velocity": 77}, {"time": 3040, "pitch": 64, "duration": 8, "velocity": 74}, {"time": 3040, "pitch": 68, "duration": 8, "velocity": 73}, {"time": 3046, "pitch": 59, "duration": 4, "velocity": 76}, {"time": 3052, "pitch": 64, "duration": 6, "velocity": 86}, {"time": 3052, "pitch": 68, "duration": 7, "velocity": 87}, {"time": 3058, "pitch": 59, "duration": 3, "velocity": 84}, {"time": 3064, "pitch": 45, "duration": 31, "velocity": 82}, {"time": 3064, "pitch": 57, "duration": 8, "velocity": 70}, {"time": 3064, "pitch": 60, "duration": 9, "velocity": 62}, {"time": 3070, "pitch": 52, "duration": 25, "velocity": 82}, {"time": 3076, "pitch": 57, "duration": 4, "velocity": 77}, {"time": 3076, "pitch": 60, "duration": 7, "velocity": 67}, {"time": 3082, "pitch": 57, "duration": 4, "velocity": 76}, {"time": 3088, "pitch": 60, "duration": 5, "velocity": 83}, {"time": 3088, "pitch": 64, "duration": 8, "velocity": 85}, {"time": 3094, "pitch": 57, "duration": 3, "velocity": 74}, {"time": 3094, "pitch": 60, "duration": 2, "velocity": 46}, {"time": 3100, "pitch": 43, "duration": 22, "velocity": 79}, {"time": 3100, "pitch": 55, "duration": 10, "velocity": 73}, {"time": 3100, "pitch": 59, "duration": 9, "velocity": 73}, {"time": 3106, "pitch": 50, "duration": 15, "velocity": 68}, {"time": 3112, "pitch": 59, "duration": 4, "velocity": 83}, {"time": 3112, "pitch": 62, "duration": 8, "velocity": 82}, {"time": 3118, "pitch": 55, "duration": 3, "velocity": 82}, {"time": 3124, "pitch": 59, "duration": 3, "velocity": 82}, {"time": 3124, "pitch": 62, "duration": 3, "velocity": 78}, {"time": 3136, "pitch": 47, "duration": 19, "velocity": 84}, {"time": 3142, "pitch": 59, "duration": 8, "velocity": 80}, {"time": 3148, "pitch": 63, "duration": 10, "velocity": 82}, {"time": 3154, "pitch": 59, "duration": 8, "velocity": 78}, {"time": 3160, "pitch": 54, "duration": 4, "velocity": 83}, {"time": 3166, "pitch": 59, "duration": 3, "velocity": 84}, {"time": 3172, "pitch": 45, "duration": 31, "velocity": 82}, {"time": 3172, "pitch": 57, "duration": 10, "velocity": 70}, {"time": 3172, "pitch": 60, "duration": 10, "velocity": 72}, {"time": 3178, "pitch": 52, "duration": 26, "velocity": 72}, {"time": 3184, "pitch": 60, "duration": 4, "velocity": 73}, {"time": 3184, "pitch": 64, "duration": 5, "velocity": 82}, {"time": 3190, "pitch": 57, "duration": 3, "velocity": 39}, {"time": 3196, "pitch": 57, "duration": 2, "velocity": 79}, {"time": 3196, "pitch": 60, "duration": 9, "velocity": 84}, {"time": 3196, "pitch": 64, "duration": 10, "velocity": 83}, {"time": 3202, "pitch": 57, "duration": 4, "velocity": 75}, {"time": 3208, "pitch": 47, "duration": 22, "velocity": 86}, {"time": 3214, "pitch": 59, "duration": 4, "velocity": 74}, {"time": 3220, "pitch": 63, "duration": 8, "velocity": 78}, {"time": 3220, "pitch": 66, "duration": 8, "velocity": 81}, {"time": 3232, "pitch": 59, "duration": 3, "velocity": 78}, {"time": 3232, "pitch": 63, "duration": 6, "velocity": 82}, {"time": 3232, "pitch": 66, "duration": 8, "velocity": 77}, {"time": 3238, "pitch": 59, "duration": 4, "velocity": 81}, {"time": 3244, "pitch": 40, "duration": 36, "velocity": 86}, {"time": 3244, "pitch": 59, "duration": 4, "velocity": 78}, {"time": 3244, "pitch": 64, "duration": 8, "velocity": 83}, {"time": 3250, "pitch": 47, "duration": 29, "velocity": 69}, {"time": 3256, "pitch": 67, "duration": 8, "velocity": 86}, {"time": 3262, "pitch": 59, "duration": 3, "velocity": 89}, {"time": 3268, "pitch": 66, "duration": 6, "velocity": 88}, {"time": 3274, "pitch": 59, "duration": 3, "velocity": 79}, {"time": 3280, "pitch": 40, "duration": 29, "velocity": 83}, {"time": 3280, "pitch": 52, "duration": 7, "velocity": 80}, {"time": 3280, "pitch": 64, "duration": 14, "velocity": 84}, {"time": 3286, "pitch": 47, "duration": 11, "velocity": 77}, {"time": 3292, "pitch": 52, "duration": 10, "velocity": 98}, {"time": 3298, "pitch": 47, "duration": 10, "velocity": 81}, {"time": 3304, "pitch": 52, "duration": 2, "velocity": 83}, {"time": 3304, "pitch": 59, "duration": 11, "velocity": 82}, {"time": 3304, "pitch": 64, "duration": 13, "velocity": 83}, {"time": 3310, "pitch": 52, "duration": 7, "velocity": 89}, {"time": 3316, "pitch": 45, "duration": 25, "velocity": 83}, {"time": 3316, "pitch": 57, "duration": 8, "velocity": 79}, {"time": 3322, "pitch": 52, "duration": 9, "velocity": 75}, {"time": 3328, "pitch": 57, "duration": 8, "velocity": 86}, {"time": 3328, "pitch": 60, "duration": 8, "velocity": 86}, {"time": 3334, "pitch": 52, "duration": 6, "velocity": 81}, {"time": 3340, "pitch": 60, "duration": 4, "velocity": 86}, {"time": 3340, "pitch": 64, "duration": 4, "velocity": 87}, {"time": 3352, "pitch": 38, "duration": 27, "velocity": 85}, {"time": 3352, "pitch": 57, "duration": 6, "velocity": 82}, {"time": 3352, "pitch": 62, "duration": 13, "velocity": 80}, {"time": 3358, "pitch": 45, "duration": 21, "velocity": 71}, {"time": 3364, "pitch": 57, "duration": 8, "velocity": 82}, {"time": 3370, "pitch": 62, "duration": 3, "velocity": 77}, {"time": 3376, "pitch": 57, "duration": 3, "velocity": 83}, {"time": 3376, "pitch": 62, "duration": 7, "velocity": 87}, {"time": 3376, "pitch": 66, "duration": 7, "velocity": 88}, {"time": 3382, "pitch": 57, "duration": 2, "velocity": 82}, {"time": 3388, "pitch": 43, "duration": 31, "velocity": 80}, {"time": 3388, "pitch": 55, "duration": 9, "velocity": 82}, {"time": 3388, "pitch": 59, "duration": 10, "velocity": 80}, {"time": 3394, "pitch": 50, "duration": 22, "velocity": 75}, {"time": 3400, "pitch": 55, "duration": 9, "velocity": 82}, {"time": 3400, "pitch": 59, "duration": 2, "velocity": 77}, {"time": 3412, "pitch": 55, "duration": 3, "velocity": 84}, {"time": 3412, "pitch": 59, "duration": 10, "velocity": 85}, {"time": 3412, "pitch": 62, "duration": 12, "velocity": 82}, {"time": 3418, "pitch": 55, "duration": 4, "velocity": 82}, {"time": 3424, "pitch": 47, "duration": 21, "velocity": 83}, {"time": 3430, "pitch": 59, "duration": 4, "velocity": 73}, {"time": 3436, "pitch": 59, "duration": 4, "velocity": 83}, {"time": 3436, "pitch": 63, "duration": 7, "velocity": 79}, {"time": 3436, "pitch": 66, "duration": 9, "velocity": 77}, {"time": 3442, "pitch": 59, "duration": 5, "velocity": 77}, {"time": 3448, "pitch": 59, "duration": 3, "velocity": 83}, {"time": 3448, "pitch": 63, "duration": 8, "velocity": 88}, {"time": 3448, "pitch": 66, "duration": 9, "velocity": 81}, {"time": 3454, "pitch": 59, "duration": 4, "velocity": 84}, {"time": 3460, "pitch": 45, "duration": 33, "velocity": 83}, {"time": 3460, "pitch": 57, "duration": 8, "velocity": 76}, {"time": 3460, "pitch": 60, "duration": 8, "velocity": 80}, {"time": 3466, "pitch": 52, "duration": 28, "velocity": 77}, {"time": 3472, "pitch": 60, "duration": 5, "velocity": 84}, {"time": 3472, "pitch": 64, "duration": 5, "velocity": 85}, {"time": 3478, "pitch": 57, "duration": 3, "velocity": 71}, {"time": 3484, "pitch": 60, "duration": 4, "velocity": 81}, {"time": 3484, "pitch": 64, "duration": 4, "velocity": 81}, {"time": 3490, "pitch": 57, "duration": 15, "velocity": 83}, {"time": 3496, "pitch": 45, "duration": 32, "velocity": 84}, {"time": 3496, "pitch": 60, "duration": 9, "velocity": 75}, {"time": 3496, "pitch": 69, "duration": 8, "velocity": 83}, {"time": 3502, "pitch": 52, "duration": 10, "velocity": 74}, {"time": 3508, "pitch": 57, "duration": 2, "velocity": 72}, {"time": 3508, "pitch": 60, "duration": 8, "velocity": 84}, {"time": 3508, "pitch": 64, "duration": 7, "velocity": 83}, {"time": 3514, "pitch": 52, "duration": 9, "velocity": 82}, {"time": 3520, "pitch": 57, "duration": 3, "velocity": 81}, {"time": 3520, "pitch": 60, "duration": 4, "velocity": 84}, {"time": 3520, "pitch": 64, "duration": 5, "velocity": 86}, {"time": 3526, "pitch": 52, "duration": 4, "velocity": 80}, {"time": 3532, "pitch": 47, "duration": 18, "velocity": 84}, {"time": 3532, "pitch": 59, "duration": 4, "velocity": 82}, {"time": 3532, "pitch": 63, "duration": 8, "velocity": 78}, {"time": 3538, "pitch": 59, "duration": 7, "velocity": 87}, {"time": 3544, "pitch": 63, "duration": 8, "velocity": 88}, {"time": 3550, "pitch": 59, "duration": 4, "velocity": 87}, {"time": 3556, "pitch": 59, "duration": 3, "velocity": 84}, {"time": 3556, "pitch": 63, "duration": 12, "velocity": 91}, {"time": 3556, "pitch": 66, "duration": 13, "velocity": 83}, {"time": 3556, "pitch": 71, "duration": 14, "velocity": 83}, {"time": 3562, "pitch": 59, "duration": 10, "velocity": 83}, {"time": 3568, "pitch": 40, "duration": 29, "velocity": 93}, {"time": 3574, "pitch": 47, "duration": 22, "velocity": 82}, {"time": 3580, "pitch": 55, "duration": 5, "velocity": 88}, {"time": 3586, "pitch": 59, "duration": 2, "velocity": 96}, {"time": 3592, "pitch": 64, "duration": 9, "velocity": 88}, {"time": 3604, "pitch": 45, "duration": 34, "velocity": 83}, {"time": 3604, "pitch": 57, "duration": 8, "velocity": 82}, {"time": 3604, "pitch": 60, "duration": 13, "velocity": 82}, {"time": 3610, "pitch": 52, "duration": 27, "velocity": 75}, {"time": 3616, "pitch": 57, "duration": 10, "velocity": 81}, {"time": 3622, "pitch": 60, "duration": 4, "velocity": 83}, {"time": 3628, "pitch": 57, "duration": 3, "velocity": 76}, {"time": 3628, "pitch": 60, "duration": 7, "velocity": 83}, {"time": 3628, "pitch": 64, "duration": 10, "velocity": 84}, {"time": 3634, "pitch": 57, "duration": 3, "velocity": 78}, {"time": 3640, "pitch": 50, "duration": 30, "velocity": 82}, {"time": 3640, "pitch": 57, "duration": 3, "velocity": 83}, {"time": 3640, "pitch": 62, "duration": 8, "velocity": 83}, {"time": 3646, "pitch": 57, "duration": 7, "velocity": 83}, {"time": 3652, "pitch": 62, "duration": 8, "velocity": 81}, {"time": 3658, "pitch": 57, "duration": 4, "velocity": 75}, {"time": 3664, "pitch": 57, "duration": 3, "velocity": 83}, {"time": 3664, "pitch": 62, "duration": 7, "velocity": 86}, {"time": 3664, "pitch": 66, "duration": 8, "velocity": 86}, {"time": 3670, "pitch": 57, "duration": 3, "velocity": 83}, {"time": 3676, "pitch": 43, "duration": 32, "velocity": 82}, {"time": 3676, "pitch": 55, "duration": 12, "velocity": 79}, {"time": 3676, "pitch": 59, "duration": 13, "velocity": 78}, {"time": 3682, "pitch": 50, "duration": 24, "velocity": 76}, {"time": 3688, "pitch": 62, "duration": 8, "velocity": 80}, {"time": 3694, "pitch": 55, "duration": 5, "velocity": 79}, {"time": 3700, "pitch": 55, "duration": 2, "velocity": 72}, {"time": 3700, "pitch": 59, "duration": 14, "velocity": 82}, {"time": 3700, "pitch": 62, "duration": 13, "velocity": 82}, {"time": 3700, "pitch": 67, "duration": 13, "velocity": 80}, {"time": 3706, "pitch": 55, "duration": 8, "velocity": 83}, {"time": 3712, "pitch": 40, "duration": 30, "velocity": 91}, {"time": 3718, "pitch": 47, "duration": 23, "velocity": 76}, {"time": 3724, "pitch": 52, "duration": 9, "velocity": 83}, {"time": 3730, "pitch": 55, "duration": 4, "velocity": 84}, {"time": 3736, "pitch": 52, "duration": 2, "velocity": 82}, {"time": 3736, "pitch": 55, "duration": 8, "velocity": 86}, {"time": 3736, "pitch": 59, "duration": 11, "velocity": 84}, {"time": 3742, "pitch": 52, "duration": 4, "velocity": 83}, {"time": 3748, "pitch": 45, "duration": 28, "velocity": 83}, {"time": 3748, "pitch": 52, "duration": 5, "velocity": 85}, {"time": 3748, "pitch": 57, "duration": 8, "velocity": 77}, {"time": 3754, "pitch": 52, "duration": 22, "velocity": 73}, {"time": 3760, "pitch": 57, "duration": 4, "velocity": 83}, {"time": 3760, "pitch": 60, "duration": 7, "velocity": 79}, {"time": 3766, "pitch": 57, "duration": 4, "velocity": 77}, {"time": 3772, "pitch": 60, "duration": 4, "velocity": 85}, {"time": 3772, "pitch": 64, "duration": 5, "velocity": 85}, {"time": 3784, "pitch": 47, "duration": 20, "velocity": 84}, {"time": 3784, "pitch": 59, "duration": 3, "velocity": 83}, {"time": 3784, "pitch": 63, "duration": 8, "velocity": 78}, {"time": 3790, "pitch": 59, "duration": 7, "velocity": 83}, {"time": 3796, "pitch": 66, "duration": 8, "velocity": 85}, {"time": 3802, "pitch": 59, "duration": 6, "velocity": 88}, {"time": 3808, "pitch": 71, "duration": 6, "velocity": 85}, {"time": 3814, "pitch": 59, "duration": 3, "velocity": 86}, {"time": 3820, "pitch": 40, "duration": 37, "velocity": 84}, {"time": 3820, "pitch": 52, "duration": 9, "velocity": 82}, {"time": 3820, "pitch": 55, "duration": 11, "velocity": 76}, {"time": 3826, "pitch": 47, "duration": 31, "velocity": 75}, {"time": 3832, "pitch": 55, "duration": 7, "velocity": 82}, {"time": 3838, "pitch": 52, "duration": 5, "velocity": 87}, {"time": 3844, "pitch": 52, "duration": 12, "velocity": 87}, {"time": 3844, "pitch": 59, "duration": 13, "velocity": 86}, {"time": 3856, "pitch": 40, "duration": 1, "velocity": 84}, {"time": 3868, "pitch": 52, "duration": 3, "velocity": 78}, {"time": 3868, "pitch": 55, "duration": 4, "velocity": 77}, {"time": 3880, "pitch": 55, "duration": 2, "velocity": 69}, {"time": 3880, "pitch": 59, "duration": 3, "velocity": 83}, {"time": 3892, "pitch": 40, "duration": 27, "velocity": 78}, {"time": 3898, "pitch": 47, "duration": 20, "velocity": 70}, {"time": 3904, "pitch": 55, "duration": 7, "velocity": 79}, {"time": 3904, "pitch": 59, "duration": 7, "velocity": 83}, {"time": 3904, "pitch": 64, "duration": 7, "velocity": 86}, {"time": 3910, "pitch": 52, "duration": 7, "velocity": 84}, {"time": 3916, "pitch": 55, "duration": 10, "velocity": 83}, {"time": 3916, "pitch": 59, "duration": 12, "velocity": 82}, {"time": 3922, "pitch": 52, "duration": 5, "velocity": 84}, {"time": 3928, "pitch": 45, "duration": 28, "velocity": 82}, {"time": 3934, "pitch": 52, "duration": 22, "velocity": 72}, {"time": 3940, "pitch": 57, "duration": 3, "velocity": 75}, {"time": 3940, "pitch": 60, "duration": 8, "velocity": 77}, {"time": 3946, "pitch": 57, "duration": 3, "velocity": 61}, {"time": 3952, "pitch": 60, "duration": 11, "velocity": 83}, {"time": 3952, "pitch": 64, "duration": 11, "velocity": 82}, {"time": 3964, "pitch": 47, "duration": 17, "velocity": 83}, {"time": 3970, "pitch": 59, "duration": 5, "velocity": 81}, {"time": 3976, "pitch": 63, "duration": 13, "velocity": 78}, {"time": 3976, "pitch": 66, "duration": 14, "velocity": 78}, {"time": 3982, "pitch": 59, "duration": 7, "velocity": 58}, {"time": 3988, "pitch": 54, "duration": 3, "velocity": 81}, {"time": 4000, "pitch": 45, "duration": 28, "velocity": 83}, {"time": 4000, "pitch": 57, "duration": 10, "velocity": 74}, {"time": 4000, "pitch": 60, "duration": 9, "velocity": 77}, {"time": 4006, "pitch": 52, "duration": 22, "velocity": 75}, {"time": 4012, "pitch": 60, "duration": 4, "velocity": 79}, {"time": 4012, "pitch": 64, "duration": 7, "velocity": 82}, {"time": 4018, "pitch": 57, "duration": 3, "velocity": 72}, {"time": 4024, "pitch": 57, "duration": 2, "velocity": 78}, {"time": 4024, "pitch": 60, "duration": 2, "velocity": 83}, {"time": 4024, "pitch": 64, "duration": 2, "velocity": 83}, {"time": 4036, "pitch": 45, "duration": 30, "velocity": 82}, {"time": 4042, "pitch": 52, "duration": 23, "velocity": 76}, {"time": 4048, "pitch": 57, "duration": 8, "velocity": 82}, {"time": 4054, "pitch": 60, "duration": 4, "velocity": 84}, {"time": 4060, "pitch": 57, "duration": 3, "velocity": 76}, {"time": 4060, "pitch": 60, "duration": 7, "velocity": 83}, {"time": 4060, "pitch": 64, "duration": 12, "velocity": 84}, {"time": 4066, "pitch": 57, "duration": 5, "velocity": 82}, {"time": 4072, "pitch": 47, "duration": 18, "velocity": 84}, {"time": 4084, "pitch": 63, "duration": 7, "velocity": 82}, {"time": 4084, "pitch": 66, "duration": 10, "velocity": 79}, {"time": 4090, "pitch": 59, "duration": 3, "velocity": 82}, {"time": 4096, "pitch": 54, "duration": 3, "velocity": 73}, {"time": 4102, "pitch": 59, "duration": 4, "velocity": 83}, {"time": 4108, "pitch": 40, "duration": 31, "velocity": 83}, {"time": 4108, "pitch": 59, "duration": 4, "velocity": 78}, {"time": 4108, "pitch": 64, "duration": 8, "velocity": 82}, {"time": 4114, "pitch": 59, "duration": 4, "velocity": 77}, {"time": 4120, "pitch": 64, "duration": 5, "velocity": 84}, {"time": 4120, "pitch": 67, "duration": 7, "velocity": 80}, {"time": 4132, "pitch": 59, "duration": 3, "velocity": 81}, {"time": 4132, "pitch": 64, "duration": 4, "velocity": 84}, {"time": 4132, "pitch": 67, "duration": 4, "velocity": 77}, {"time": 4138, "pitch": 59, "duration": 3, "velocity": 77}, {"time": 4144, "pitch": 40, "duration": 32, "velocity": 87}, {"time": 4144, "pitch": 59, "duration": 3, "velocity": 82}, {"time": 4144, "pitch": 64, "duration": 8, "velocity": 84}, {"time": 4150, "pitch": 59, "duration": 9, "velocity": 77}, {"time": 4156, "pitch": 64, "duration": 8, "velocity": 82}, {"time": 4162, "pitch": 59, "duration": 4, "velocity": 83}, {"time": 4168, "pitch": 64, "duration": 8, "velocity": 87}, {"time": 4168, "pitch": 68, "duration": 8, "velocity": 86}, {"time": 4174, "pitch": 59, "duration": 8, "velocity": 82}, {"time": 4180, "pitch": 40, "duration": 26, "velocity": 86}, {"time": 4180, "pitch": 64, "duration": 8, "velocity": 82}, {"time": 4180, "pitch": 68, "duration": 9, "velocity": 76}, {"time": 4186, "pitch": 59, "duration": 7, "velocity": 77}, {"time": 4192, "pitch": 64, "duration": 8, "velocity": 74}, {"time": 4192, "pitch": 68, "duration": 8, "velocity": 73}, {"time": 4198, "pitch": 59, "duration": 4, "velocity": 76}, {"time": 4204, "pitch": 64, "duration": 6, "velocity": 86}, {"time": 4204, "pitch": 68, "duration": 7, "velocity": 87}, {"time": 4210, "pitch": 59, "duration": 3, "velocity": 84}, {"time": 4216, "pitch": 45, "duration": 31, "velocity": 82}, {"time": 4216, "pitch": 57, "duration": 8, "velocity": 70}, {"time": 4216, "pitch": 60, "duration": 9, "velocity": 62}, {"time": 4222, "pitch": 52, "duration": 25, "velocity": 82}, {"time": 4228, "pitch": 57, "duration": 4, "velocity": 77}, {"time": 4228, "pitch": 60, "duration": 7, "velocity": 67}, {"time": 4234, "pitch": 57, "duration": 4, "velocity": 76}, {"time": 4240, "pitch": 60, "duration": 5, "velocity": 83}, {"time": 4240, "pitch": 64, "duration": 8, "velocity": 85}, {"time": 4246, "pitch": 57, "duration": 3, "velocity": 74}, {"time": 4246, "pitch": 60, "duration": 2, "velocity": 46}, {"time": 4252, "pitch": 43, "duration": 22, "velocity": 79}, {"time": 4252, "pitch": 55, "duration": 10, "velocity": 73}, {"time": 4252, "pitch": 59, "duration": 9, "velocity": 73}, {"time": 4258, "pitch": 50, "duration": 15, "velocity": 68}, {"time": 4264, "pitch": 59, "duration": 4, "velocity": 83}, {"time": 4264, "pitch": 62, "duration": 8, "velocity": 82}, {"time": 4270, "pitch": 55, "duration": 3, "velocity": 82}, {"time": 4276, "pitch": 59, "duration": 3, "velocity": 82}, {"time": 4276, "pitch": 62, "duration": 3, "velocity": 78}, {"time": 4288, "pitch": 47, "duration": 19, "velocity": 84}, {"time": 4294, "pitch": 59, "duration": 8, "velocity": 80}, {"time": 4300, "pitch": 63, "duration": 10, "velocity": 82}, {"time": 4306, "pitch": 59, "duration": 8, "velocity": 78}, {"time": 4312, "pitch": 54, "duration": 4, "velocity": 83}, {"time": 4318, "pitch": 59, "duration": 3, "velocity": 84}, {"time": 4324, "pitch": 45, "duration": 31, "velocity": 82}, {"time": 4324, "pitch": 57, "duration": 10, "velocity": 70}, {"time": 4324, "pitch": 60, "duration": 10, "velocity": 72}, {"time": 4330, "pitch": 52, "duration": 26, "velocity": 72}, {"time": 4336, "pitch": 60, "duration": 4, "velocity": 73}, {"time": 4336, "pitch": 64, "duration": 5, "velocity": 82}, {"time": 4342, "pitch": 57, "duration": 3, "velocity": 39}, {"time": 4348, "pitch": 57, "duration": 2, "velocity": 79}, {"time": 4348, "pitch": 60, "duration": 9, "velocity": 84}, {"time": 4348, "pitch": 64, "duration": 10, "velocity": 83}, {"time": 4354, "pitch": 57, "duration": 4, "velocity": 75}, {"time": 4360, "pitch": 47, "duration": 22, "velocity": 86}, {"time": 4366, "pitch": 59, "duration": 4, "velocity": 74}, {"time": 4372, "pitch": 63, "duration": 8, "velocity": 78}, {"time": 4372, "pitch": 66, "duration": 8, "velocity": 81}, {"time": 4384, "pitch": 59, "duration": 3, "velocity": 78}, {"time": 4384, "pitch": 63, "duration": 6, "velocity": 82}, {"time": 4384, "pitch": 66, "duration": 8, "velocity": 77}, {"time": 4390, "pitch": 59, "duration": 4, "velocity": 81}, {"time": 4396, "pitch": 40, "duration": 36, "velocity": 86}, {"time": 4396, "pitch": 59, "duration": 4, "velocity": 78}, {"time": 4396, "pitch": 64, "duration": 8, "velocity": 83}, {"time": 4402, "pitch": 47, "duration": 29, "velocity": 69}, {"time": 4408, "pitch": 67, "duration": 8, "velocity": 86}, {"time": 4414, "pitch": 59, "duration": 3, "velocity": 89}, {"time": 4420, "pitch": 66, "duration": 6, "velocity": 88}, {"time": 4426, "pitch": 59, "duration": 3, "velocity": 79}, {"time": 4432, "pitch": 40, "duration": 32, "velocity": 87}, {"time": 4432, "pitch": 59, "duration": 3, "velocity": 82}, {"time": 4432, "pitch": 64, "duration": 8, "velocity": 84}, {"time": 4438, "pitch": 59, "duration": 9, "velocity": 77}, {"time": 4444, "pitch": 64, "duration": 8, "velocity": 82}, {"time": 4450, "pitch": 59, "duration": 4, "velocity": 83}, {"time": 4456, "pitch": 64, "duration": 8, "velocity": 87}, {"time": 4456, "pitch": 68, "duration": 8, "velocity": 86}, {"time": 4462, "pitch": 59, "duration": 8, "velocity": 82}, {"time": 4468, "pitch": 40, "duration": 26, "velocity": 86}, {"time": 4468, "pitch": 64, "duration": 8, "velocity": 82}, {"time": 4468, "pitch": 68, "duration": 9, "velocity": 76}, {"time": 4474, "pitch": 59, "duration": 7, "velocity": 77}, {"time": 4480, "pitch": 64, "duration": 8, "velocity": 74}, {"time": 4480, "pitch": 68, "duration": 8, "velocity": 73}, {"time": 4486, "pitch": 59, "duration": 4, "velocity": 76}, {"time": 4492, "pitch": 64, "duration": 6, "velocity": 86}, {"time": 4492, "pitch": 68, "duration": 7, "velocity": 87}, {"time": 4498, "pitch": 59, "duration": 3, "velocity": 84}, {"time": 4504, "pitch": 45, "duration": 31, "velocity": 82}, {"time": 4504, "pitch": 57, "duration": 8, "velocity": 70}, {"time": 4504, "pitch": 60, "duration": 9, "velocity": 62}, {"time": 4510, "pitch": 52, "duration": 25, "velocity": 82}, {"time": 4516, "pitch": 57, "duration": 4, "velocity": 77}, {"time": 4516, "pitch": 60, "duration": 7, "velocity": 67}, {"time": 4522, "pitch": 57, "duration": 4, "velocity": 76}, {"time": 4528, "pitch": 60, "duration": 5, "velocity": 83}, {"time": 4528, "pitch": 64, "duration": 8, "velocity": 85}, {"time": 4534, "pitch": 57, "duration": 3, "velocity": 74}, {"time": 4534, "pitch": 60, "duration": 2, "velocity": 46}, {"time": 4540, "pitch": 43, "duration": 22, "velocity": 79}, {"time": 4540, "pitch": 55, "duration": 10, "velocity": 73}, {"time": 4540, "pitch": 59, "duration": 9, "velocity": 73}, {"time": 4546, "pitch": 50, "duration": 15, "velocity": 68}, {"time": 4552, "pitch": 59, "duration": 4, "velocity": 83}, {"time": 4552, "pitch": 62, "duration": 8, "velocity": 82}, {"time": 4558, "pitch": 55, "duration": 3, "velocity": 82}, {"time": 4564, "pitch": 59, "duration": 3, "velocity": 82}, {"time": 4564, "pitch": 62, "duration": 3, "velocity": 78}, {"time": 4576, "pitch": 47, "duration": 19, "velocity": 84}, {"time": 4582, "pitch": 59, "duration": 8, "velocity": 80}, {"time": 4588, "pitch": 63, "duration": 10, "velocity": 82}, {"time": 4594, "pitch": 59, "duration": 8, "velocity": 78}, {"time": 4600, "pitch": 54, "duration": 4, "velocity": 83}, {"time": 4606, "pitch": 59, "duration": 3, "velocity": 84}, {"time": 4612, "pitch": 45, "duration": 31, "velocity": 82}, {"time": 4612, "pitch": 57, "duration": 10, "velocity": 70}, {"time": 4612, "pitch": 60, "duration": 10, "velocity": 72}, {"time": 4618, "pitch": 52, "duration": 26, "velocity": 72}, {"time": 4624, "pitch": 60, "duration": 4, "velocity": 73}, {"time": 4624, "pitch": 64, "duration": 5, "velocity": 82}, {"time": 4630, "pitch": 57, "duration": 3, "velocity": 39}, {"time": 4636, "pitch": 57, "duration": 2, "velocity": 79}, {"time": 4636, "pitch": 60, "duration": 9, "velocity": 84}, {"time": 4636, "pitch": 64, "duration": 10, "velocity": 83}, {"time": 4642, "pitch": 57, "duration": 4, "velocity": 75}, {"time": 4648, "pitch": 47, "duration": 22, "velocity": 86}, {"time": 4654, "pitch": 59, "duration": 4, "velocity": 74}, {"time": 4660, "pitch": 63, "duration": 8, "velocity": 78}, {"time": 4660, "pitch": 66, "duration": 8, "velocity": 81}, {"time": 4672, "pitch": 59, "duration": 3, "velocity": 78}, {"time": 4672, "pitch": 63, "duration": 6, "velocity": 82}, {"time": 4672, "pitch": 66, "duration": 8, "velocity": 77}, {"time": 4678, "pitch": 59, "duration": 4, "velocity": 81}, {"time": 4684, "pitch": 40, "duration": 32, "velocity": 83}, {"time": 4684, "pitch": 52, "duration": 10, "velocity": 77}, {"time": 4684, "pitch": 55, "duration": 8, "velocity": 76}, {"time": 4696, "pitch": 55, "duration": 2, "velocity": 82}, {"time": 4696, "pitch": 59, "duration": 2, "velocity": 81}, {"time": 4708, "pitch": 52, "duration": 2, "velocity": 82}, {"time": 4708, "pitch": 55, "duration": 2, "velocity": 83}, {"time": 4708, "pitch": 59, "duration": 3, "velocity": 84}, {"time": 4714, "pitch": 52, "duration": 6, "velocity": 82}, {"time": 4720, "pitch": 47, "duration": 32, "velocity": 76}, {"time": 4732, "pitch": 52, "duration": 3, "velocity": 78}, {"time": 4732, "pitch": 55, "duration": 3, "velocity": 82}, {"time": 4732, "pitch": 59, "duration": 3, "velocity": 78}, {"time": 4744, "pitch": 52, "duration": 3, "velocity": 84}, {"time": 4744, "pitch": 55, "duration": 3, "velocity": 86}, {"time": 4744, "pitch": 59, "duration": 9, "velocity": 84}, {"time": 4750, "pitch": 52, "duration": 6, "velocity": 84}, {"time": 4756, "pitch": 45, "duration": 18, "velocity": 83}, {"time": 4768, "pitch": 52, "duration": 3, "velocity": 84}, {"time": 4768, "pitch": 57, "duration": 3, "velocity": 82}, {"time": 4768, "pitch": 60, "duration": 3, "velocity": 82}, {"time": 4780, "pitch": 52, "duration": 2, "velocity": 84}, {"time": 4780, "pitch": 57, "duration": 3, "velocity": 86}, {"time": 4780, "pitch": 60, "duration": 12, "velocity": 78}, {"time": 4786, "pitch": 52, "duration": 4, "velocity": 87}, {"time": 4786, "pitch": 57, "duration": 4, "velocity": 46}, {"time": 4792, "pitch": 47, "duration": 17, "velocity": 85}, {"time": 4804, "pitch": 59, "duration": 4, "velocity": 82}, {"time": 4804, "pitch": 63, "duration": 4, "velocity": 77}, {"time": 4804, "pitch": 66, "duration": 5, "velocity": 72}, {"time": 4816, "pitch": 59, "duration": 3, "velocity": 78}, {"time": 4816, "pitch": 63, "duration": 4, "velocity": 77}, {"time": 4816, "pitch": 66, "duration": 10, "velocity": 82}, {"time": 4822, "pitch": 59, "duration": 9, "velocity": 83}, {"time": 4828, "pitch": 45, "duration": 31, "velocity": 82}, {"time": 4828, "pitch": 57, "duration": 9, "velocity": 76}, {"time": 4828, "pitch": 60, "duration": 8, "velocity": 77}, {"time": 4840, "pitch": 60, "duration": 3, "velocity": 88}, {"time": 4840, "pitch": 64, "duration": 3, "velocity": 86}, {"time": 4846, "pitch": 52, "duration": 13, "velocity": 71}, {"time": 4852, "pitch": 60, "duration": 19, "velocity": 85}, {"time": 4852, "pitch": 64, "duration": 18, "velocity": 88}, {"time": 4858, "pitch": 57, "duration": 13, "velocity": 78}, {"time": 4864, "pitch": 45, "duration": 27, "velocity": 83}, {"time": 4870, "pitch": 52, "duration": 21, "velocity": 73}, {"time": 4876, "pitch": 57, "duration": 4, "velocity": 78}, {"time": 4876, "pitch": 60, "duration": 5, "velocity": 83}, {"time": 4876, "pitch": 64, "duration": 4, "velocity": 84}, {"time": 4888, "pitch": 57, "duration": 2, "velocity": 71}, {"time": 4888, "pitch": 60, "duration": 4, "velocity": 83}, {"time": 4888, "pitch": 64, "duration": 4, "velocity": 84}, {"time": 4894, "pitch": 57, "duration": 3, "velocity": 83}, {"time": 4900, "pitch": 47, "duration": 17, "velocity": 82}, {"time": 4900, "pitch": 59, "duration": 9, "velocity": 75}, {"time": 4900, "pitch": 63, "duration": 8, "velocity": 71}, {"time": 4912, "pitch": 59, "duration": 2, "velocity": 78}, {"time": 4912, "pitch": 63, "duration": 8, "velocity": 83}, {"time": 4912, "pitch": 66, "duration": 13, "velocity": 80}, {"time": 4918, "pitch": 59, "duration": 6, "velocity": 84}, {"time": 4924, "pitch": 54, "duration": 3, "velocity": 83}, {"time": 4930, "pitch": 59, "duration": 4, "velocity": 83}, {"time": 4936, "pitch": 40, "duration": 30, "velocity": 84}, {"time": 4936, "pitch": 59, "duration": 5, "velocity": 82}, {"time": 4936, "pitch": 64, "duration": 8, "velocity": 83}, {"time": 4942, "pitch": 47, "duration": 18, "velocity": 65}, {"time": 4948, "pitch": 67, "duration": 24, "velocity": 84}, {"time": 4954, "pitch": 59, "duration": 9, "velocity": 78}, {"time": 4960, "pitch": 64, "duration": 12, "velocity": 84}, {"time": 4966, "pitch": 59, "duration": 7, "velocity": 77}, {"time": 4972, "pitch": 40, "duration": 32, "velocity": 83}, {"time": 4972, "pitch": 52, "duration": 10, "velocity": 77}, {"time": 4972, "pitch": 55, "duration": 8, "velocity": 76}, {"time": 4984, "pitch": 55, "duration": 2, "velocity": 82}, {"time": 4984, "pitch": 59, "duration": 2, "velocity": 81}, {"time": 4996, "pitch": 52, "duration": 2, "velocity": 82}, {"time": 4996, "pitch": 55, "duration": 2, "velocity": 83}, {"time": 4996, "pitch": 59, "duration": 3, "velocity": 84}, {"time": 5002, "pitch": 52, "duration": 6, "velocity": 82}, {"time": 5008, "pitch": 47, "duration": 32, "velocity": 76}, {"time": 5020, "pitch": 52, "duration": 3, "velocity": 78}, {"time": 5020, "pitch": 55, "duration": 3, "velocity": 82}, {"time": 5020, "pitch": 59, "duration": 3, "velocity": 78}, {"time": 5032, "pitch": 52, "duration": 3, "velocity": 84}, {"time": 5032, "pitch": 55, "duration": 3, "velocity": 86}, {"time": 5032, "pitch": 59, "duration": 9, "velocity": 84}, {"time": 5038, "pitch": 52, "duration": 6, "velocity": 84}, {"time": 5044, "pitch": 45, "duration": 18, "velocity": 83}, {"time": 5056, "pitch": 52, "duration": 3, "velocity": 84}, {"time": 5056, "pitch": 57, "duration": 3, "velocity": 82}, {"time": 5056, "pitch": 60, "duration": 3, "velocity": 82}, {"time": 5068, "pitch": 52, "duration": 2, "velocity": 84}, {"time": 5068, "pitch": 57, "duration": 3, "velocity": 86}, {"time": 5068, "pitch": 60, "duration": 12, "velocity": 78}, {"time": 5074, "pitch": 52, "duration": 4, "velocity": 87}, {"time": 5074, "pitch": 57, "duration": 4, "velocity": 46}, {"time": 5080, "pitch": 47, "duration": 17, "velocity": 85}, {"time": 5092, "pitch": 59, "duration": 4, "velocity": 82}, {"time": 5092, "pitch": 63, "duration": 4, "velocity": 77}, {"time": 5092, "pitch": 66, "duration": 5, "velocity": 72}, {"time": 5104, "pitch": 59, "duration": 3, "velocity": 78}, {"time": 5104, "pitch": 63, "duration": 4, "velocity": 77}, {"time": 5104, "pitch": 66, "duration": 10, "velocity": 82}, {"time": 5110, "pitch": 59, "duration": 9, "velocity": 83}, {"time": 5116, "pitch": 45, "duration": 31, "velocity": 82}, {"time": 5116, "pitch": 57, "duration": 9, "velocity": 76}, {"time": 5116, "pitch": 60, "duration": 8, "velocity": 77}, {"time": 5128, "pitch": 60, "duration": 3, "velocity": 88}, {"time": 5128, "pitch": 64, "duration": 3, "velocity": 86}, {"time": 5134, "pitch": 52, "duration": 13, "velocity": 71}, {"time": 5140, "pitch": 60, "duration": 19, "velocity": 85}, {"time": 5140, "pitch": 64, "duration": 18, "velocity": 88}, {"time": 5146, "pitch": 57, "duration": 13, "velocity": 78}, {"time": 5152, "pitch": 45, "duration": 27, "velocity": 83}, {"time": 5158, "pitch": 52, "duration": 21, "velocity": 73}, {"time": 5164, "pitch": 57, "duration": 4, "velocity": 78}, {"time": 5164, "pitch": 60, "duration": 5, "velocity": 83}, {"time": 5164, "pitch": 64, "duration": 4, "velocity": 84}, {"time": 5176, "pitch": 57, "duration": 2, "velocity": 71}, {"time": 5176, "pitch": 60, "duration": 4, "velocity": 83}, {"time": 5176, "pitch": 64, "duration": 4, "velocity": 84}, {"time": 5182, "pitch": 57, "duration": 3, "velocity": 83}, {"time": 5188, "pitch": 47, "duration": 17, "velocity": 82}, {"time": 5188, "pitch": 59, "duration": 9, "velocity": 75}, {"time": 5188, "pitch": 63, "duration": 8, "velocity": 71}, {"time": 5200, "pitch": 59, "duration": 2, "velocity": 78}, {"time": 5200, "pitch": 63, "duration": 8, "velocity": 83}, {"time": 5200, "pitch": 66, "duration": 13, "velocity": 80}, {"time": 5206, "pitch": 59, "duration": 6, "velocity": 84}, {"time": 5212, "pitch": 54, "duration": 3, "velocity": 83}, {"time": 5218, "pitch": 59, "duration": 4, "velocity": 83}, {"time": 5223, "pitch": 40, "duration": 34, "velocity": 88}, {"time": 5229, "pitch": 47, "duration": 27, "velocity": 75}, {"time": 5235, "pitch": 52, "duration": 4, "velocity": 87}, {"time": 5240, "pitch": 54, "duration": 2, "velocity": 83}, {"time": 5247, "pitch": 55, "duration": 7, "velocity": 86}, {"time": 5253, "pitch": 59, "duration": 3, "velocity": 82}, {"time": 5260, "pitch": 40, "duration": 40, "velocity": 84}, {"time": 5260, "pitch": 55, "duration": 40, "velocity": 65}, {"time": 5261, "pitch": 52, "duration": 1, "velocity": 64}, {"time": 5262, "pitch": 59, "duration": 39, "velocity": 74}, {"time": 5265, "pitch": 64, "duration": 37, "velocity": 83}], "annotations": [{"time": 111, "annotation": {"number": 64, "value": 127}, "group": "control_change"}, {"time": 143, "annotation": {"number": 64, "value": 0}, "group": "control_change"}, {"time": 150, "annotation": {"number": 64, "value": 127}, "group": "control_change"}, {"time": 181, "annotation": {"number": 64, "value": 0}, "group": "control_change"}, {"time": 185, "annotation": {"number": 64, "value": 127}, "group": "control_change"}, {"time": 216, "annotation": {"number": 64, "value": 0}, "group": "control_change"}, {"time": 220, "annotation": {"number": 64, "value": 127}, "group": "control_change"}, {"time": 254, "annotation": {"number": 64, "value": 0}, "group": "control_change"}, {"time": 257, "annotation": {"number": 64, "value": 127}, "group": "control_change"}, {"time": 287, "annotation": {"number": 64, "value": 0}, "group": "control_change"}, {"time": 295, "annotation": {"number": 64, "value": 127}, "group": "control_change"}, {"time": 325, "annotation": {"number": 64, "value": 0}, "group": "control_change"}, {"time": 330, "annotation": {"number": 64, "value": 127}, "group": "control_change"}, {"time": 360, "annotation": {"number": 64, "value": 0}, "group": "control_change"}, {"time": 364, "annotation": {"number": 64, "value": 127}, "group": "control_change"}, {"time": 395, "annotation": {"number": 64, "value": 0}, "group": "control_change"}, {"time": 402, "annotation": {"number": 64, "value": 127}, "group": "control_change"}, {"time": 437, "annotation": {"number": 64, "value": 0}, "group": "control_change"}, {"time": 442, "annotation": {"number": 64, "value": 127}, "group": "control_change"}, {"time": 468, "annotation": {"number": 64, "value": 0}, "group": "control_change"}, {"time": 473, "annotation": {"number": 64, "value": 127}, "group": "control_change"}, {"time": 473, "annotation": {"number": 64, "value": 0}, "group": "control_change"}, {"time": 474, "annotation": {"number": 64, "value": 127}, "group": "control_change"}, {"time": 508, "annotation": {"number": 64, "value": 0}, "group": "control_change"}, {"time": 511, "annotation": {"number": 64, "value": 127}, "group": "control_change"}, {"time": 544, "annotation": {"number": 64, "value": 0}, "group": "control_change"}, {"time": 551, "annotation": {"number": 64, "value": 127}, "group": "control_change"}, {"time": 582, "annotation": {"number": 64, "value": 0}, "group": "control_change"}, {"time": 588, "annotation": {"number": 64, "value": 127}, "group": "control_change"}, {"time": 613, "annotation": {"number": 64, "value": 0}, "group": "control_change"}, {"time": 617, "annotation": {"number": 64, "value": 127}, "group": "control_change"}, {"time": 651, "annotation": {"number": 64, "value": 0}, "group": "control_change"}, {"time": 654, "annotation": {"number": 64, "value": 127}, "group": "control_change"}, {"time": 686, "annotation": {"number": 64, "value": 0}, "group": "control_change"}, {"time": 689, "annotation": {"number": 64, "value": 127}, "group": "control_change"}, {"time": 722, "annotation": {"number": 64, "value": 0}, "group": "control_change"}, {"time": 724, "annotation": {"number": 64, "value": 127}, "group": "control_change"}, {"time": 761, "annotation": {"number": 64, "value": 0}, "group": "control_change"}, {"time": 765, "annotation": {"number": 64, "value": 127}, "group": "control_change"}, {"time": 794, "annotation": {"number": 64, "value": 0}, "group": "control_change"}, {"time": 800, "annotation": {"number": 64, "value": 127}, "group": "control_change"}, {"time": 833, "annotation": {"number": 64, "value": 0}, "group": "control_change"}, {"time": 836, "annotation": {"number": 64, "value": 127}, "group": "control_change"}, {"time": 868, "annotation": {"number": 64, "value": 0}, "group": "control_change"}, {"time": 875, "annotation": {"number": 64, "value": 127}, "group": "control_change"}, {"time": 900, "annotation": {"number": 64, "value": 0}, "group": "control_change"}, {"time": 905, "annotation": {"number": 64, "value": 127}, "group": "control_change"}, {"time": 938, "annotation": {"number": 64, "value": 0}, "group": "control_change"}, {"time": 942, "annotation": {"number": 64, "value": 127}, "group": "control_change"}, {"time": 973, "annotation": {"number": 64, "value": 0}, "group": "control_change"}, {"time": 978, "annotation": {"number": 64, "value": 127}, "group": "control_change"}, {"time": 1013, "annotation": {"number": 64, "value": 0}, "group": "control_change"}, {"time": 1018, "annotation": {"number": 64, "value": 127}, "group": "control_change"}, {"time": 1044, "annotation": {"number": 64, "value": 0}, "group": "control_change"}, {"time": 1049, "annotation": {"number": 64, "value": 127}, "group": "control_change"}, {"time": 1049, "annotation": {"number": 64, "value": 0}, "group": "control_change"}, {"time": 1050, "annotation": {"number": 64, "value": 127}, "group": "control_change"}, {"time": 1084, "annotation": {"number": 64, "value": 0}, "group": "control_change"}, {"time": 1087, "annotation": {"number": 64, "value": 127}, "group": "control_change"}, {"time": 1120, "annotation": {"number": 64, "value": 0}, "group": "control_change"}, {"time": 1127, "annotation": {"number": 64, "value": 127}, "group": "control_change"}, {"time": 1158, "annotation": {"number": 64, "value": 0}, "group": "control_change"}, {"time": 1164, "annotation": {"number": 64, "value": 127}, "group": "control_change"}, {"time": 1189, "annotation": {"number": 64, "value": 0}, "group": "control_change"}, {"time": 1193, "annotation": {"number": 64, "value": 127}, "group": "control_change"}, {"time": 1227, "annotation": {"number": 64, "value": 0}, "group": "control_change"}, {"time": 1230, "annotation": {"number": 64, "value": 127}, "group": "control_change"}, {"time": 1262, "annotation": {"number": 64, "value": 0}, "group": "control_change"}, {"time": 1265, "annotation": {"number": 64, "value": 127}, "group": "control_change"}, {"time": 1298, "annotation": {"number": 64, "value": 0}, "group": "control_change"}, {"time": 1300, "annotation": {"number": 64, "value": 127}, "group": "control_change"}, {"time": 1337, "annotation": {"number": 64, "value": 0}, "group": "control_change"}, {"time": 1341, "annotation": {"number": 64, "value": 127}, "group": "control_change"}, {"time": 1370, "annotation": {"number": 64, "value": 0}, "group": "control_change"}, {"time": 1376, "annotation": {"number": 64, "value": 127}, "group": "control_change"}, {"time": 1409, "annotation": {"number": 64, "value": 0}, "group": "control_change"}, {"time": 1412, "annotation": {"number": 64, "value": 127}, "group": "control_change"}, {"time": 1444, "annotation": {"number": 64, "value": 0}, "group": "control_change"}, {"time": 1451, "annotation": {"number": 64, "value": 127}, "group": "control_change"}, {"time": 1476, "annotation": {"number": 64, "value": 0}, "group": "control_change"}, {"time": 1481, "annotation": {"number": 64, "value": 127}, "group": "control_change"}, {"time": 1514, "annotation": {"number": 64, "value": 0}, "group": "control_change"}, {"time": 1518, "annotation": {"number": 64, "value": 127}, "group": "control_change"}, {"time": 1549, "annotation": {"number": 64, "value": 0}, "group": "control_change"}, {"time": 1556, "annotation": {"number": 64, "value": 127}, "group": "control_change"}, {"time": 1586, "annotation": {"number": 64, "value": 0}, "group": "control_change"}, {"time": 1590, "annotation": {"number": 64, "value": 127}, "group": "control_change"}, {"time": 1622, "annotation": {"number": 64, "value": 0}, "group": "control_change"}, {"time": 1628, "annotation": {"number": 64, "value": 127}, "group": "control_change"}, {"time": 1628, "annotation": {"number": 64, "value": 0}, "group": "control_change"}, {"time": 1661, "annotation": {"number": 64, "value": 0}, "group": "control_change"}, {"time": 1667, "annotation": {"number": 64, "value": 127}, "group": "control_change"}, {"time": 1696, "annotation": {"number": 64, "value": 0}, "group": "control_change"}, {"time": 1701, "annotation": {"number": 64, "value": 127}, "group": "control_change"}, {"time": 1731, "annotation": {"number": 64, "value": 0}, "group": "control_change"}, {"time": 1735, "annotation": {"number": 64, "value": 127}, "group": "control_change"}, {"time": 1764, "annotation": {"number": 64, "value": 0}, "group": "control_change"}, {"time": 1772, "annotation": {"number": 64, "value": 127}, "group": "control_change"}, {"time": 1803, "annotation": {"number": 64, "value": 0}, "group": "control_change"}, {"time": 1806, "annotation": {"number": 64, "value": 127}, "group": "control_change"}, {"time": 1837, "annotation": {"number": 64, "value": 0}, "group": "control_change"}, {"time": 1843, "annotation": {"number": 64, "value": 127}, "group": "control_change"}, {"time": 1843, "annotation": {"number": 64, "value": 0}, "group": "control_change"}, {"time": 1875, "annotation": {"number": 64, "value": 0}, "group": "control_change"}, {"time": 1882, "annotation": {"number": 64, "value": 127}, "group": "control_change"}, {"time": 1910, "annotation": {"number": 64, "value": 0}, "group": "control_change"}, {"time": 1914, "annotation": {"number": 64, "value": 127}, "group": "control_change"}, {"time": 1949, "annotation": {"number": 64, "value": 0}, "group": "control_change"}, {"time": 1955, "annotation": {"number": 64, "value": 127}, "group": "control_change"}, {"time": 1982, "annotation": {"number": 64, "value": 0}, "group": "control_change"}, {"time": 1988, "annotation": {"number": 64, "value": 127}, "group": "control_change"}, {"time": 2019, "annotation": {"number": 64, "value": 0}, "group": "control_change"}, {"time": 2024, "annotation": {"number": 64, "value": 127}, "group": "control_change"}, {"time": 2055, "annotation": {"number": 64, "value": 0}, "group": "control_change"}, {"time": 2059, "annotation": {"number": 64, "value": 127}, "group": "control_change"}, {"time": 2094, "annotation": {"number": 64, "value": 0}, "group": "control_change"}, {"time": 2101, "annotation": {"number": 64, "value": 127}, "group": "control_change"}, {"time": 2127, "annotation": {"number": 64, "value": 0}, "group": "control_change"}, {"time": 2130, "annotation": {"number": 64, "value": 127}, "group": "control_change"}, {"time": 2165, "annotation": {"number": 64, "value": 0}, "group": "control_change"}, {"time": 2170, "annotation": {"number": 64, "value": 127}, "group": "control_change"}, {"time": 2196, "annotation": {"number": 64, "value": 0}, "group": "control_change"}, {"time": 2201, "annotation": {"number": 64, "value": 127}, "group": "control_change"}, {"time": 2201, "annotation": {"number": 64, "value": 0}, "group": "control_change"}, {"time": 2202, "annotation": {"number": 64, "value": 127}, "group": "control_change"}, {"time": 2236, "annotation": {"number": 64, "value": 0}, "group": "control_change"}, {"time": 2239, "annotation": {"number": 64, "value": 127}, "group": "control_change"}, {"time": 2272, "annotation": {"number": 64, "value": 0}, "group": "control_change"}, {"time": 2279, "annotation": {"number": 64, "value": 127}, "group": "control_change"}, {"time": 2310, "annotation": {"number": 64, "value": 0}, "group": "control_change"}, {"time": 2316, "annotation": {"number": 64, "value": 127}, "group": "control_change"}, {"time": 2341, "annotation": {"number": 64, "value": 0}, "group": "control_change"}, {"time": 2345, "annotation": {"number": 64, "value": 127}, "group": "control_change"}, {"time": 2379, "annotation": {"number": 64, "value": 0}, "group": "control_change"}, {"time": 2382, "annotation": {"number": 64, "value": 127}, "group": "control_change"}, {"time": 2414, "annotation": {"number": 64, "value": 0}, "group": "control_change"}, {"time": 2417, "annotation": {"number": 64, "value": 127}, "group": "control_change"}, {"time": 2450, "annotation": {"number": 64, "value": 0}, "group": "control_change"}, {"time": 2452, "annotation": {"number": 64, "value": 127}, "group": "control_change"}, {"time": 2489, "annotation": {"number": 64, "value": 0}, "group": "control_change"}, {"time": 2493, "annotation": {"number": 64, "value": 127}, "group": "control_change"}, {"time": 2522, "annotation": {"number": 64, "value": 0}, "group": "control_change"}, {"time": 2528, "annotation": {"number": 64, "value": 127}, "group": "control_change"}, {"time": 2561, "annotation": {"number": 64, "value": 0}, "group": "control_change"}, {"time": 2564, "annotation": {"number": 64, "value": 127}, "group": "control_change"}, {"time": 2596, "annotation": {"number": 64, "value": 0}, "group": "control_change"}, {"time": 2603, "annotation": {"number": 64, "value": 127}, "group": "control_change"}, {"time": 2628, "annotation": {"number": 64, "value": 0}, "group": "control_change"}, {"time": 2633, "annotation": {"number": 64, "value": 127}, "group": "control_change"}, {"time": 2666, "annotation": {"number": 64, "value": 0}, "group": "control_change"}, {"time": 2670, "annotation": {"number": 64, "value": 127}, "group": "control_change"}, {"time": 2701, "annotation": {"number": 64, "value": 0}, "group": "control_change"}, {"time": 2706, "annotation": {"number": 64, "value": 127}, "group": "control_change"}, {"time": 2741, "annotation": {"number": 64, "value": 0}, "group": "control_change"}, {"time": 2746, "annotation": {"number": 64, "value": 127}, "group": "control_change"}, {"time": 2772, "annotation": {"number": 64, "value": 0}, "group": "control_change"}, {"time": 2777, "annotation": {"number": 64, "value": 127}, "group": "control_change"}, {"time": 2777, "annotation": {"number": 64, "value": 0}, "group": "control_change"}, {"time": 2778, "annotation": {"number": 64, "value": 127}, "group": "control_change"}, {"time": 2812, "annotation": {"number": 64, "value": 0}, "group": "control_change"}, {"time": 2815, "annotation": {"number": 64, "value": 127}, "group": "control_change"}, {"time": 2848, "annotation": {"number": 64, "value": 0}, "group": "control_change"}, {"time": 2855, "annotation": {"number": 64, "value": 127}, "group": "control_change"}, {"time": 2886, "annotation": {"number": 64, "value": 0}, "group": "control_change"}, {"time": 2892, "annotation": {"number": 64, "value": 127}, "group": "control_change"}, {"time": 2917, "annotation": {"number": 64, "value": 0}, "group": "control_change"}, {"time": 2921, "annotation": {"number": 64, "value": 127}, "group": "control_change"}, {"time": 2955, "annotation": {"number": 64, "value": 0}, "group": "control_change"}, {"time": 2958, "annotation": {"number": 64, "value": 127}, "group": "control_change"}, {"time": 2990, "annotation": {"number": 64, "value": 0}, "group": "control_change"}, {"time": 2993, "annotation": {"number": 64, "value": 127}, "group": "control_change"}, {"time": 3026, "annotation": {"number": 64, "value": 0}, "group": "control_change"}, {"time": 3028, "annotation": {"number": 64, "value": 127}, "group": "control_change"}, {"time": 3065, "annotation": {"number": 64, "value": 0}, "group": "control_change"}, {"time": 3069, "annotation": {"number": 64, "value": 127}, "group": "control_change"}, {"time": 3098, "annotation": {"number": 64, "value": 0}, "group": "control_change"}, {"time": 3104, "annotation": {"number": 64, "value": 127}, "group": "control_change"}, {"time": 3137, "annotation": {"number": 64, "value": 0}, "group": "control_change"}, {"time": 3140, "annotation": {"number": 64, "value": 127}, "group": "control_change"}, {"time": 3172, "annotation": {"number": 64, "value": 0}, "group": "control_change"}, {"time": 3179, "annotation": {"number": 64, "value": 127}, "group": "control_change"}, {"time": 3204, "annotation": {"number": 64, "value": 0}, "group": "control_change"}, {"time": 3209, "annotation": {"number": 64, "value": 127}, "group": "control_change"}, {"time": 3242, "annotation": {"number": 64, "value": 0}, "group": "control_change"}, {"time": 3246, "annotation": {"number": 64, "value": 127}, "group": "control_change"}, {"time": 3277, "annotation": {"number": 64, "value": 0}, "group": "control_change"}, {"time": 3284, "annotation": {"number": 64, "value": 127}, "group": "control_change"}, {"time": 3314, "annotation": {"number": 64, "value": 0}, "group": "control_change"}, {"time": 3318, "annotation": {"number": 64, "value": 127}, "group": "control_change"}, {"time": 3350, "annotation": {"number": 64, "value": 0}, "group": "control_change"}, {"time": 3356, "annotation": {"number": 64, "value": 127}, "group": "control_change"}, {"time": 3356, "annotation": {"number": 64, "value": 0}, "group": "control_change"}, {"time": 3389, "annotation": {"number": 64, "value": 0}, "group": "control_change"}, {"time": 3395, "annotation": {"number": 64, "value": 127}, "group": "control_change"}, {"time": 3424, "annotation": {"number": 64, "value": 0}, "group": "control_change"}, {"time": 3429, "annotation": {"number": 64, "value": 127}, "group": "control_change"}, {"time": 3459, "annotation": {"number": 64, "value": 0}, "group": "control_change"}, {"time": 3463, "annotation": {"number": 64, "value": 127}, "group": "control_change"}, {"time": 3492, "annotation": {"number": 64, "value": 0}, "group": "control_change"}, {"time": 3500, "annotation": {"number": 64, "value": 127}, "group": "control_change"}, {"time": 3531, "annotation": {"number": 64, "value": 0}, "group": "control_change"}, {"time": 3534, "annotation": {"number": 64, "value": 127}, "group": "control_change"}, {"time": 3565, "annotation": {"number": 64, "value": 0}, "group": "control_change"}, {"time": 3571, "annotation": {"number": 64, "value": 127}, "group": "control_change"}, {"time": 3571, "annotation": {"number": 64, "value": 0}, "group": "control_change"}, {"time": 3603, "annotation": {"number": 64, "value": 0}, "group": "control_change"}, {"time": 3610, "annotation": {"number": 64, "value": 127}, "group": "control_change"}, {"time": 3638, "annotation": {"number": 64, "value": 0}, "group": "control_change"}, {"time": 3642, "annotation": {"number": 64, "value": 127}, "group": "control_change"}, {"time": 3677, "annotation": {"number": 64, "value": 0}, "group": "control_change"}, {"time": 3683, "annotation": {"number": 64, "value": 127}, "group": "control_change"}, {"time": 3710, "annotation": {"number": 64, "value": 0}, "group": "control_change"}, {"time": 3716, "annotation": {"number": 64, "value": 127}, "group": "control_change"}, {"time": 3747, "annotation": {"number": 64, "value": 0}, "group": "control_change"}, {"time": 3752, "annotation": {"number": 64, "value": 127}, "group": "control_change"}, {"time": 3783, "annotation": {"number": 64, "value": 0}, "group": "control_change"}, {"time": 3787, "annotation": {"number": 64, "value": 127}, "group": "control_change"}, {"time": 3822, "annotation": {"number": 64, "value": 0}, "group": "control_change"}, {"time": 3829, "annotation": {"number": 64, "value": 127}, "group": "control_change"}, {"time": 3855, "annotation": {"number": 64, "value": 0}, "group": "control_change"}, {"time": 3858, "annotation": {"number": 64, "value": 127}, "group": "control_change"}, {"time": 3893, "annotation": {"number": 64, "value": 0}, "group": "control_change"}, {"time": 3898, "annotation": {"number": 64, "value": 127}, "group": "control_change"}, {"time": 3924, "annotation": {"number": 64, "value": 0}, "group": "control_change"}, {"time": 3929, "annotation": {"number": 64, "value": 127}, "group": "control_change"}, {"time": 3929, "annotation": {"number": 64, "value": 0}, "group": "control_change"}, {"time": 3930, "annotation": {"number": 64, "value": 127}, "group": "control_change"}, {"time": 3964, "annotation": {"number": 64, "value": 0}, "group": "control_change"}, {"time": 3967, "annotation": {"number": 64, "value": 127}, "group": "control_change"}, {"time": 4000, "annotation": {"number": 64, "value": 0}, "group": "control_change"}, {"time": 4007, "annotation": {"number": 64, "value": 127}, "group": "control_change"}, {"time": 4038, "annotation": {"number": 64, "value": 0}, "group": "control_change"}, {"time": 4044, "annotation": {"number": 64, "value": 127}, "group": "control_change"}, {"time": 4069, "annotation": {"number": 64, "value": 0}, "group": "control_change"}, {"time": 4073, "annotation": {"number": 64, "value": 127}, "group": "control_change"}, {"time": 4107, "annotation": {"number": 64, "value": 0}, "group": "control_change"}, {"time": 4110, "annotation": {"number": 64, "value": 127}, "group": "control_change"}, {"time": 4142, "annotation": {"number": 64, "value": 0}, "group": "control_change"}, {"time": 4145, "annotation": {"number": 64, "value": 127}, "group": "control_change"}, {"time": 4178, "annotation": {"number": 64, "value": 0}, "group": "control_change"}, {"time": 4180, "annotation": {"number": 64, "value": 127}, "group": "control_change"}, {"time": 4217, "annotation": {"number": 64, "value": 0}, "group": "control_change"}, {"time": 4221, "annotation": {"number": 64, "value": 127}, "group": "control_change"}, {"time": 4250, "annotation": {"number": 64, "value": 0}, "group": "control_change"}, {"time": 4256, "annotation": {"number": 64, "value": 127}, "group": "control_change"}, {"time": 4289, "annotation": {"number": 64, "value": 0}, "group": "control_change"}, {"time": 4292, "annotation": {"number": 64, "value": 127}, "group": "control_change"}, {"time": 4324, "annotation": {"number": 64, "value": 0}, "group": "control_change"}, {"time": 4331, "annotation": {"number": 64, "value": 127}, "group": "control_change"}, {"time": 4356, "annotation": {"number": 64, "value": 0}, "group": "control_change"}, {"time": 4361, "annotation": {"number": 64, "value": 127}, "group": "control_change"}, {"time": 4394, "annotation": {"number": 64, "value": 0}, "group": "control_change"}, {"time": 4398, "annotation": {"number": 64, "value": 127}, "group": "control_change"}, {"time": 4429, "annotation": {"number": 64, "value": 0}, "group": "control_change"}, {"time": 4433, "annotation": {"number": 64, "value": 127}, "group": "control_change"}, {"time": 4466, "annotation": {"number": 64, "value": 0}, "group": "control_change"}, {"time": 4468, "annotation": {"number": 64, "value": 127}, "group": "control_change"}, {"time": 4505, "annotation": {"number": 64, "value": 0}, "group": "control_change"}, {"time": 4509, "annotation": {"number": 64, "value": 127}, "group": "control_change"}, {"time": 4538, "annotation": {"number": 64, "value": 0}, "group": "control_change"}, {"time": 4544, "annotation": {"number": 64, "value": 127}, "group": "control_change"}, {"time": 4577, "annotation": {"number": 64, "value": 0}, "group": "control_change"}, {"time": 4580, "annotation": {"number": 64, "value": 127}, "group": "control_change"}, {"time": 4612, "annotation": {"number": 64, "value": 0}, "group": "control_change"}, {"time": 4619, "annotation": {"number": 64, "value": 127}, "group": "control_change"}, {"time": 4644, "annotation": {"number": 64, "value": 0}, "group": "control_change"}, {"time": 4649, "annotation": {"number": 64, "value": 127}, "group": "control_change"}, {"time": 4682, "annotation": {"number": 64, "value": 0}, "group": "control_change"}, {"time": 4715, "annotation": {"number": 64, "value": 0}, "group": "control_change"}, {"time": 4722, "annotation": {"number": 64, "value": 127}, "group": "control_change"}, {"time": 4753, "annotation": {"number": 64, "value": 0}, "group": "control_change"}, {"time": 4757, "annotation": {"number": 64, "value": 127}, "group": "control_change"}, {"time": 4788, "annotation": {"number": 64, "value": 0}, "group": "control_change"}, {"time": 4792, "annotation": {"number": 64, "value": 127}, "group": "control_change"}, {"time": 4826, "annotation": {"number": 64, "value": 0}, "group": "control_change"}, {"time": 4829, "annotation": {"number": 64, "value": 127}, "group": "control_change"}, {"time": 4859, "annotation": {"number": 64, "value": 0}, "group": "control_change"}, {"time": 4867, "annotation": {"number": 64, "value": 127}, "group": "control_change"}, {"time": 4897, "annotation": {"number": 64, "value": 0}, "group": "control_change"}, {"time": 4902, "annotation": {"number": 64, "value": 127}, "group": "control_change"}, {"time": 4932, "annotation": {"number": 64, "value": 0}, "group": "control_change"}, {"time": 4936, "annotation": {"number": 64, "value": 127}, "group": "control_change"}, {"time": 4967, "annotation": {"number": 64, "value": 0}, "group": "control_change"}, {"time": 5003, "annotation": {"number": 64, "value": 0}, "group": "control_change"}, {"time": 5010, "annotation": {"number": 64, "value": 127}, "group": "control_change"}, {"time": 5041, "annotation": {"number": 64, "value": 0}, "group": "control_change"}, {"time": 5045, "annotation": {"number": 64, "value": 127}, "group": "control_change"}, {"time": 5076, "annotation": {"number": 64, "value": 0}, "group": "control_change"}, {"time": 5080, "annotation": {"number": 64, "value": 127}, "group": "control_change"}, {"time": 5114, "annotation": {"number": 64, "value": 0}, "group": "control_change"}, {"time": 5117, "annotation": {"number": 64, "value": 127}, "group": "control_change"}, {"time": 5147, "annotation": {"number": 64, "value": 0}, "group": "control_change"}, {"time": 5155, "annotation": {"number": 64, "value": 127}, "group": "control_change"}, {"time": 5185, "annotation": {"number": 64, "value": 0}, "group": "control_change"}, {"time": 5190, "annotation": {"number": 64, "value": 127}, "group": "control_change"}, {"time": 5220, "annotation": {"number": 64, "value": 0}, "group": "control_change"}, {"time": 5224, "annotation": {"number": 64, "value": 127}, "group": "control_change"}, {"time": 5226, "annotation": {"number": 64, "value": 127}, "group": "control_change"}, {"time": 5260, "annotation": {"number": 64, "value": 0}, "group": "control_change"}, {"time": 5263, "annotation": {"number": 64, "value": 127}, "group": "control_change"}]}]}