{"metadata": {"schema_version": "0.2", "title": "None", "source_filename": "654.mid", "source_format": "midi"}, "resolution": 12, "tempos": [{"time": 0, "qpm": 78.00017940041262}], "time_signatures": [{"time": 0, "numerator": 1, "denominator": 4}], "tracks": [{"program": 0, "is_drum": false, "name": "MELODY", "notes": [{"time": 674, "pitch": 62, "duration": 4, "velocity": 87}, {"time": 680, "pitch": 61, "duration": 5, "velocity": 90}, {"time": 686, "pitch": 59, "duration": 22, "velocity": 87}, {"time": 710, "pitch": 66, "duration": 5, "velocity": 86}, {"time": 716, "pitch": 62, "duration": 5, "velocity": 87}, {"time": 722, "pitch": 64, "duration": 13, "velocity": 89}, {"time": 734, "pitch": 66, "duration": 10, "velocity": 86}, {"time": 746, "pitch": 54, "duration": 6, "velocity": 88}, {"time": 752, "pitch": 57, "duration": 4, "velocity": 85}, {"time": 758, "pitch": 59, "duration": 4, "velocity": 87}, {"time": 764, "pitch": 66, "duration": 4, "velocity": 88}, {"time": 770, "pitch": 64, "duration": 5, "velocity": 87}, {"time": 776, "pitch": 62, "duration": 4, "velocity": 85}, {"time": 782, "pitch": 64, "duration": 5, "velocity": 89}, {"time": 788, "pitch": 69, "duration": 4, "velocity": 87}, {"time": 794, "pitch": 66, "duration": 21, "velocity": 84}, {"time": 818, "pitch": 62, "duration": 4, "velocity": 80}, {"time": 824, "pitch": 61, "duration": 5, "velocity": 88}, {"time": 830, "pitch": 59, "duration": 16, "velocity": 87}, {"time": 854, "pitch": 66, "duration": 4, "velocity": 86}, {"time": 860, "pitch": 62, "duration": 4, "velocity": 87}, {"time": 866, "pitch": 64, "duration": 5, "velocity": 91}, {"time": 872, "pitch": 69, "duration": 4, "velocity": 86}, {"time": 878, "pitch": 66, "duration": 9, "velocity": 87}, {"time": 890, "pitch": 62, "duration": 4, "velocity": 86}, {"time": 896, "pitch": 61, "duration": 5, "velocity": 89}, {"time": 902, "pitch": 59, "duration": 11, "velocity": 86}, {"time": 926, "pitch": 62, "duration": 4, "velocity": 86}, {"time": 932, "pitch": 61, "duration": 5, "velocity": 89}, {"time": 938, "pitch": 59, "duration": 36, "velocity": 89}, {"time": 998, "pitch": 62, "duration": 4, "velocity": 87}, {"time": 1004, "pitch": 61, "duration": 5, "velocity": 90}, {"time": 1010, "pitch": 59, "duration": 22, "velocity": 87}, {"time": 1034, "pitch": 66, "duration": 5, "velocity": 86}, {"time": 1040, "pitch": 62, "duration": 5, "velocity": 87}, {"time": 1046, "pitch": 64, "duration": 13, "velocity": 89}, {"time": 1058, "pitch": 66, "duration": 10, "velocity": 86}, {"time": 1070, "pitch": 54, "duration": 6, "velocity": 88}, {"time": 1076, "pitch": 57, "duration": 4, "velocity": 85}, {"time": 1082, "pitch": 59, "duration": 4, "velocity": 87}, {"time": 1088, "pitch": 66, "duration": 4, "velocity": 88}, {"time": 1094, "pitch": 64, "duration": 5, "velocity": 87}, {"time": 1100, "pitch": 62, "duration": 4, "velocity": 85}, {"time": 1106, "pitch": 64, "duration": 5, "velocity": 89}, {"time": 1112, "pitch": 69, "duration": 4, "velocity": 87}, {"time": 1118, "pitch": 66, "duration": 21, "velocity": 84}, {"time": 1142, "pitch": 62, "duration": 4, "velocity": 80}, {"time": 1148, "pitch": 61, "duration": 5, "velocity": 88}, {"time": 1154, "pitch": 59, "duration": 16, "velocity": 87}, {"time": 1178, "pitch": 66, "duration": 4, "velocity": 86}, {"time": 1184, "pitch": 62, "duration": 4, "velocity": 87}, {"time": 1190, "pitch": 64, "duration": 5, "velocity": 91}, {"time": 1196, "pitch": 69, "duration": 4, "velocity": 86}, {"time": 1202, "pitch": 66, "duration": 9, "velocity": 87}, {"time": 1214, "pitch": 62, "duration": 4, "velocity": 86}, {"time": 1220, "pitch": 61, "duration": 5, "velocity": 89}, {"time": 1226, "pitch": 59, "duration": 11, "velocity": 86}, {"time": 1250, "pitch": 62, "duration": 4, "velocity": 86}, {"time": 1256, "pitch": 61, "duration": 5, "velocity": 89}, {"time": 1262, "pitch": 59, "duration": 36, "velocity": 89}, {"time": 1322, "pitch": 62, "duration": 4, "velocity": 94}, {"time": 1328, "pitch": 64, "duration": 5, "velocity": 99}, {"time": 1334, "pitch": 66, "duration": 5, "velocity": 91}, {"time": 1340, "pitch": 66, "duration": 4, "velocity": 87}, {"time": 1346, "pitch": 66, "duration": 4, "velocity": 90}, {"time": 1352, "pitch": 66, "duration": 5, "velocity": 91}, {"time": 1358, "pitch": 64, "duration": 5, "velocity": 96}, {"time": 1364, "pitch": 62, "duration": 5, "velocity": 87}, {"time": 1370, "pitch": 64, "duration": 21, "velocity": 89}, {"time": 1394, "pitch": 64, "duration": 4, "velocity": 89}, {"time": 1400, "pitch": 66, "duration": 4, "velocity": 88}, {"time": 1406, "pitch": 67, "duration": 4, "velocity": 87}, {"time": 1412, "pitch": 67, "duration": 4, "velocity": 87}, {"time": 1418, "pitch": 67, "duration": 4, "velocity": 86}, {"time": 1424, "pitch": 66, "duration": 5, "velocity": 92}, {"time": 1430, "pitch": 64, "duration": 4, "velocity": 91}, {"time": 1436, "pitch": 67, "duration": 5, "velocity": 86}, {"time": 1442, "pitch": 66, "duration": 20, "velocity": 92}, {"time": 1466, "pitch": 62, "duration": 4, "velocity": 89}, {"time": 1472, "pitch": 64, "duration": 5, "velocity": 89}, {"time": 1478, "pitch": 66, "duration": 10, "velocity": 87}, {"time": 1490, "pitch": 66, "duration": 6, "velocity": 89}, {"time": 1496, "pitch": 66, "duration": 6, "velocity": 89}, {"time": 1502, "pitch": 69, "duration": 4, "velocity": 92}, {"time": 1508, "pitch": 66, "duration": 4, "velocity": 89}, {"time": 1514, "pitch": 64, "duration": 18, "velocity": 96}, {"time": 1538, "pitch": 66, "duration": 12, "velocity": 88}, {"time": 1550, "pitch": 64, "duration": 24, "velocity": 90}, {"time": 1574, "pitch": 67, "duration": 10, "velocity": 85}, {"time": 1586, "pitch": 66, "duration": 22, "velocity": 83}, {"time": 1610, "pitch": 74, "duration": 5, "velocity": 96}, {"time": 1616, "pitch": 73, "duration": 4, "velocity": 90}, {"time": 1619, "pitch": 74, "duration": 24, "velocity": 111}, {"time": 1646, "pitch": 66, "duration": 4, "velocity": 89}, {"time": 1652, "pitch": 74, "duration": 5, "velocity": 99}, {"time": 1658, "pitch": 73, "duration": 10, "velocity": 87}, {"time": 1670, "pitch": 69, "duration": 9, "velocity": 89}, {"time": 1682, "pitch": 71, "duration": 7, "velocity": 91}, {"time": 1688, "pitch": 69, "duration": 5, "velocity": 88}, {"time": 1694, "pitch": 71, "duration": 20, "velocity": 92}, {"time": 1718, "pitch": 62, "duration": 5, "velocity": 96}, {"time": 1724, "pitch": 71, "duration": 4, "velocity": 87}, {"time": 1730, "pitch": 71, "duration": 11, "velocity": 90}, {"time": 1742, "pitch": 69, "duration": 10, "velocity": 92}, {"time": 1754, "pitch": 74, "duration": 5, "velocity": 102}, {"time": 1760, "pitch": 73, "duration": 4, "velocity": 92}, {"time": 1763, "pitch": 74, "duration": 24, "velocity": 101}, {"time": 1790, "pitch": 66, "duration": 5, "velocity": 87}, {"time": 1796, "pitch": 78, "duration": 5, "velocity": 94}, {"time": 1802, "pitch": 76, "duration": 11, "velocity": 85}, {"time": 1814, "pitch": 73, "duration": 19, "velocity": 87}, {"time": 1838, "pitch": 71, "duration": 5, "velocity": 96}, {"time": 1844, "pitch": 73, "duration": 5, "velocity": 89}, {"time": 1850, "pitch": 74, "duration": 6, "velocity": 92}, {"time": 1856, "pitch": 71, "duration": 6, "velocity": 87}, {"time": 1862, "pitch": 74, "duration": 10, "velocity": 99}, {"time": 1874, "pitch": 73, "duration": 21, "velocity": 96}, {"time": 1898, "pitch": 74, "duration": 5, "velocity": 96}, {"time": 1904, "pitch": 73, "duration": 4, "velocity": 90}, {"time": 1907, "pitch": 74, "duration": 24, "velocity": 111}, {"time": 1934, "pitch": 66, "duration": 4, "velocity": 89}, {"time": 1940, "pitch": 74, "duration": 5, "velocity": 99}, {"time": 1946, "pitch": 73, "duration": 10, "velocity": 87}, {"time": 1958, "pitch": 69, "duration": 9, "velocity": 89}, {"time": 1970, "pitch": 71, "duration": 7, "velocity": 91}, {"time": 1976, "pitch": 69, "duration": 5, "velocity": 88}, {"time": 1982, "pitch": 71, "duration": 20, "velocity": 92}, {"time": 2006, "pitch": 62, "duration": 5, "velocity": 96}, {"time": 2012, "pitch": 71, "duration": 4, "velocity": 87}, {"time": 2018, "pitch": 71, "duration": 11, "velocity": 90}, {"time": 2030, "pitch": 69, "duration": 10, "velocity": 92}, {"time": 2042, "pitch": 74, "duration": 5, "velocity": 102}, {"time": 2048, "pitch": 73, "duration": 4, "velocity": 92}, {"time": 2051, "pitch": 74, "duration": 24, "velocity": 101}, {"time": 2078, "pitch": 66, "duration": 5, "velocity": 87}, {"time": 2084, "pitch": 78, "duration": 5, "velocity": 94}, {"time": 2090, "pitch": 76, "duration": 11, "velocity": 85}, {"time": 2102, "pitch": 73, "duration": 19, "velocity": 87}, {"time": 2126, "pitch": 71, "duration": 5, "velocity": 96}, {"time": 2132, "pitch": 73, "duration": 5, "velocity": 89}, {"time": 2138, "pitch": 74, "duration": 6, "velocity": 92}, {"time": 2144, "pitch": 73, "duration": 3, "velocity": 87}, {"time": 2147, "pitch": 71, "duration": 9, "velocity": 99}, {"time": 2156, "pitch": 69, "duration": 5, "velocity": 89}, {"time": 2162, "pitch": 71, "duration": 21, "velocity": 96}, {"time": 2510, "pitch": 62, "duration": 4, "velocity": 94}, {"time": 2516, "pitch": 64, "duration": 5, "velocity": 99}, {"time": 2522, "pitch": 66, "duration": 5, "velocity": 91}, {"time": 2528, "pitch": 66, "duration": 4, "velocity": 87}, {"time": 2534, "pitch": 66, "duration": 4, "velocity": 90}, {"time": 2540, "pitch": 66, "duration": 5, "velocity": 91}, {"time": 2546, "pitch": 64, "duration": 5, "velocity": 96}, {"time": 2552, "pitch": 62, "duration": 5, "velocity": 87}, {"time": 2558, "pitch": 64, "duration": 21, "velocity": 89}, {"time": 2582, "pitch": 64, "duration": 4, "velocity": 89}, {"time": 2588, "pitch": 66, "duration": 4, "velocity": 88}, {"time": 2594, "pitch": 67, "duration": 4, "velocity": 87}, {"time": 2600, "pitch": 67, "duration": 4, "velocity": 87}, {"time": 2606, "pitch": 67, "duration": 4, "velocity": 86}, {"time": 2612, "pitch": 66, "duration": 5, "velocity": 92}, {"time": 2618, "pitch": 64, "duration": 4, "velocity": 91}, {"time": 2624, "pitch": 67, "duration": 5, "velocity": 86}, {"time": 2630, "pitch": 66, "duration": 20, "velocity": 92}, {"time": 2654, "pitch": 62, "duration": 4, "velocity": 89}, {"time": 2660, "pitch": 64, "duration": 5, "velocity": 89}, {"time": 2666, "pitch": 66, "duration": 10, "velocity": 87}, {"time": 2678, "pitch": 66, "duration": 6, "velocity": 89}, {"time": 2684, "pitch": 66, "duration": 6, "velocity": 89}, {"time": 2690, "pitch": 69, "duration": 4, "velocity": 92}, {"time": 2696, "pitch": 66, "duration": 4, "velocity": 89}, {"time": 2702, "pitch": 64, "duration": 18, "velocity": 96}, {"time": 2726, "pitch": 66, "duration": 12, "velocity": 88}, {"time": 2738, "pitch": 64, "duration": 24, "velocity": 90}, {"time": 2762, "pitch": 67, "duration": 10, "velocity": 85}, {"time": 2774, "pitch": 66, "duration": 22, "velocity": 83}, {"time": 2798, "pitch": 74, "duration": 5, "velocity": 96}, {"time": 2804, "pitch": 73, "duration": 4, "velocity": 90}, {"time": 2807, "pitch": 74, "duration": 24, "velocity": 111}, {"time": 2834, "pitch": 66, "duration": 4, "velocity": 89}, {"time": 2840, "pitch": 74, "duration": 5, "velocity": 99}, {"time": 2846, "pitch": 73, "duration": 10, "velocity": 87}, {"time": 2858, "pitch": 69, "duration": 9, "velocity": 89}, {"time": 2870, "pitch": 71, "duration": 7, "velocity": 91}, {"time": 2876, "pitch": 69, "duration": 5, "velocity": 88}, {"time": 2882, "pitch": 71, "duration": 20, "velocity": 92}, {"time": 2906, "pitch": 62, "duration": 5, "velocity": 96}, {"time": 2912, "pitch": 71, "duration": 4, "velocity": 87}, {"time": 2918, "pitch": 71, "duration": 11, "velocity": 90}, {"time": 2930, "pitch": 69, "duration": 10, "velocity": 92}, {"time": 2942, "pitch": 74, "duration": 5, "velocity": 102}, {"time": 2948, "pitch": 73, "duration": 4, "velocity": 92}, {"time": 2951, "pitch": 74, "duration": 24, "velocity": 101}, {"time": 2978, "pitch": 66, "duration": 5, "velocity": 87}, {"time": 2984, "pitch": 78, "duration": 5, "velocity": 94}, {"time": 2990, "pitch": 76, "duration": 11, "velocity": 85}, {"time": 3002, "pitch": 73, "duration": 19, "velocity": 87}, {"time": 3026, "pitch": 71, "duration": 5, "velocity": 96}, {"time": 3032, "pitch": 73, "duration": 5, "velocity": 89}, {"time": 3038, "pitch": 74, "duration": 6, "velocity": 92}, {"time": 3044, "pitch": 71, "duration": 6, "velocity": 87}, {"time": 3050, "pitch": 74, "duration": 10, "velocity": 99}, {"time": 3062, "pitch": 73, "duration": 21, "velocity": 96}, {"time": 3086, "pitch": 74, "duration": 5, "velocity": 96}, {"time": 3092, "pitch": 73, "duration": 4, "velocity": 90}, {"time": 3095, "pitch": 74, "duration": 24, "velocity": 111}, {"time": 3122, "pitch": 66, "duration": 4, "velocity": 89}, {"time": 3128, "pitch": 74, "duration": 5, "velocity": 99}, {"time": 3134, "pitch": 73, "duration": 10, "velocity": 87}, {"time": 3146, "pitch": 69, "duration": 9, "velocity": 89}, {"time": 3158, "pitch": 71, "duration": 7, "velocity": 91}, {"time": 3164, "pitch": 69, "duration": 5, "velocity": 88}, {"time": 3170, "pitch": 71, "duration": 20, "velocity": 92}, {"time": 3194, "pitch": 62, "duration": 5, "velocity": 96}, {"time": 3200, "pitch": 71, "duration": 4, "velocity": 87}, {"time": 3206, "pitch": 71, "duration": 11, "velocity": 90}, {"time": 3218, "pitch": 69, "duration": 10, "velocity": 92}, {"time": 3230, "pitch": 74, "duration": 5, "velocity": 102}, {"time": 3236, "pitch": 73, "duration": 4, "velocity": 92}, {"time": 3239, "pitch": 74, "duration": 24, "velocity": 101}, {"time": 3266, "pitch": 66, "duration": 5, "velocity": 87}, {"time": 3272, "pitch": 78, "duration": 5, "velocity": 94}, {"time": 3278, "pitch": 76, "duration": 11, "velocity": 85}, {"time": 3290, "pitch": 73, "duration": 19, "velocity": 87}, {"time": 3314, "pitch": 71, "duration": 5, "velocity": 96}, {"time": 3320, "pitch": 73, "duration": 5, "velocity": 89}, {"time": 3326, "pitch": 74, "duration": 6, "velocity": 92}, {"time": 3332, "pitch": 73, "duration": 3, "velocity": 87}, {"time": 3335, "pitch": 71, "duration": 9, "velocity": 99}, {"time": 3344, "pitch": 69, "duration": 5, "velocity": 89}, {"time": 3350, "pitch": 71, "duration": 21, "velocity": 96}, {"time": 3374, "pitch": 75, "duration": 5, "velocity": 96}, {"time": 3380, "pitch": 74, "duration": 4, "velocity": 90}, {"time": 3383, "pitch": 75, "duration": 24, "velocity": 111}, {"time": 3410, "pitch": 67, "duration": 4, "velocity": 89}, {"time": 3416, "pitch": 75, "duration": 5, "velocity": 99}, {"time": 3422, "pitch": 74, "duration": 10, "velocity": 87}, {"time": 3434, "pitch": 70, "duration": 9, "velocity": 89}, {"time": 3446, "pitch": 72, "duration": 7, "velocity": 91}, {"time": 3452, "pitch": 70, "duration": 5, "velocity": 88}, {"time": 3458, "pitch": 72, "duration": 20, "velocity": 92}, {"time": 3482, "pitch": 63, "duration": 5, "velocity": 96}, {"time": 3488, "pitch": 72, "duration": 4, "velocity": 87}, {"time": 3494, "pitch": 72, "duration": 11, "velocity": 90}, {"time": 3506, "pitch": 70, "duration": 10, "velocity": 92}, {"time": 3518, "pitch": 75, "duration": 5, "velocity": 102}, {"time": 3524, "pitch": 74, "duration": 4, "velocity": 92}, {"time": 3527, "pitch": 75, "duration": 24, "velocity": 101}, {"time": 3554, "pitch": 67, "duration": 5, "velocity": 87}, {"time": 3560, "pitch": 79, "duration": 5, "velocity": 94}, {"time": 3566, "pitch": 77, "duration": 11, "velocity": 85}, {"time": 3578, "pitch": 74, "duration": 19, "velocity": 87}, {"time": 3602, "pitch": 72, "duration": 5, "velocity": 96}, {"time": 3608, "pitch": 74, "duration": 5, "velocity": 89}, {"time": 3614, "pitch": 75, "duration": 6, "velocity": 92}, {"time": 3620, "pitch": 72, "duration": 6, "velocity": 87}, {"time": 3626, "pitch": 75, "duration": 10, "velocity": 99}, {"time": 3638, "pitch": 74, "duration": 21, "velocity": 96}, {"time": 3662, "pitch": 75, "duration": 5, "velocity": 96}, {"time": 3668, "pitch": 74, "duration": 4, "velocity": 90}, {"time": 3671, "pitch": 75, "duration": 24, "velocity": 111}, {"time": 3698, "pitch": 67, "duration": 4, "velocity": 89}, {"time": 3704, "pitch": 75, "duration": 5, "velocity": 99}, {"time": 3710, "pitch": 74, "duration": 10, "velocity": 87}, {"time": 3722, "pitch": 70, "duration": 9, "velocity": 89}, {"time": 3734, "pitch": 72, "duration": 7, "velocity": 91}, {"time": 3740, "pitch": 70, "duration": 5, "velocity": 88}, {"time": 3746, "pitch": 72, "duration": 20, "velocity": 92}, {"time": 3770, "pitch": 63, "duration": 5, "velocity": 96}, {"time": 3776, "pitch": 72, "duration": 4, "velocity": 87}, {"time": 3782, "pitch": 72, "duration": 11, "velocity": 90}, {"time": 3794, "pitch": 70, "duration": 10, "velocity": 92}, {"time": 3806, "pitch": 75, "duration": 5, "velocity": 102}, {"time": 3812, "pitch": 74, "duration": 4, "velocity": 92}, {"time": 3815, "pitch": 75, "duration": 24, "velocity": 101}, {"time": 3842, "pitch": 67, "duration": 5, "velocity": 87}, {"time": 3848, "pitch": 79, "duration": 5, "velocity": 94}, {"time": 3854, "pitch": 77, "duration": 11, "velocity": 85}, {"time": 3866, "pitch": 74, "duration": 19, "velocity": 87}, {"time": 3890, "pitch": 72, "duration": 5, "velocity": 96}, {"time": 3896, "pitch": 74, "duration": 5, "velocity": 89}, {"time": 3902, "pitch": 75, "duration": 6, "velocity": 92}, {"time": 3908, "pitch": 74, "duration": 3, "velocity": 87}, {"time": 3911, "pitch": 72, "duration": 9, "velocity": 99}, {"time": 3920, "pitch": 70, "duration": 5, "velocity": 89}, {"time": 3926, "pitch": 72, "duration": 21, "velocity": 96}]}, {"program": 0, "is_drum": false, "name": "PIANO", "notes": [{"time": 218, "pitch": 47, "duration": 27, "velocity": 86}, {"time": 218, "pitch": 59, "duration": 11, "velocity": 78}, {"time": 218, "pitch": 62, "duration": 11, "velocity": 80}, {"time": 224, "pitch": 54, "duration": 9, "velocity": 75}, {"time": 230, "pitch": 66, "duration": 5, "velocity": 90}, {"time": 236, "pitch": 54, "duration": 6, "velocity": 70}, {"time": 242, "pitch": 62, "duration": 6, "velocity": 84}, {"time": 242, "pitch": 66, "duration": 2, "velocity": 76}, {"time": 242, "pitch": 71, "duration": 5, "velocity": 85}, {"time": 248, "pitch": 59, "duration": 1, "velocity": 92}, {"time": 254, "pitch": 43, "duration": 31, "velocity": 85}, {"time": 254, "pitch": 55, "duration": 12, "velocity": 81}, {"time": 254, "pitch": 59, "duration": 12, "velocity": 80}, {"time": 260, "pitch": 50, "duration": 21, "velocity": 72}, {"time": 266, "pitch": 62, "duration": 7, "velocity": 81}, {"time": 272, "pitch": 55, "duration": 4, "velocity": 74}, {"time": 278, "pitch": 55, "duration": 4, "velocity": 82}, {"time": 278, "pitch": 59, "duration": 5, "velocity": 85}, {"time": 278, "pitch": 67, "duration": 8, "velocity": 80}, {"time": 284, "pitch": 50, "duration": 2, "velocity": 87}, {"time": 290, "pitch": 45, "duration": 31, "velocity": 86}, {"time": 290, "pitch": 57, "duration": 12, "velocity": 77}, {"time": 290, "pitch": 61, "duration": 12, "velocity": 77}, {"time": 296, "pitch": 52, "duration": 26, "velocity": 77}, {"time": 302, "pitch": 64, "duration": 6, "velocity": 86}, {"time": 308, "pitch": 57, "duration": 4, "velocity": 86}, {"time": 314, "pitch": 57, "duration": 4, "velocity": 86}, {"time": 314, "pitch": 61, "duration": 5, "velocity": 85}, {"time": 320, "pitch": 62, "duration": 4, "velocity": 84}, {"time": 326, "pitch": 47, "duration": 28, "velocity": 87}, {"time": 326, "pitch": 59, "duration": 10, "velocity": 79}, {"time": 326, "pitch": 62, "duration": 10, "velocity": 87}, {"time": 332, "pitch": 54, "duration": 21, "velocity": 59}, {"time": 338, "pitch": 66, "duration": 9, "velocity": 87}, {"time": 344, "pitch": 59, "duration": 4, "velocity": 81}, {"time": 350, "pitch": 59, "duration": 3, "velocity": 70}, {"time": 350, "pitch": 62, "duration": 2, "velocity": 75}, {"time": 362, "pitch": 47, "duration": 27, "velocity": 87}, {"time": 362, "pitch": 59, "duration": 9, "velocity": 84}, {"time": 362, "pitch": 66, "duration": 13, "velocity": 83}, {"time": 368, "pitch": 54, "duration": 8, "velocity": 79}, {"time": 374, "pitch": 59, "duration": 7, "velocity": 88}, {"time": 380, "pitch": 54, "duration": 7, "velocity": 85}, {"time": 386, "pitch": 59, "duration": 2, "velocity": 81}, {"time": 386, "pitch": 62, "duration": 6, "velocity": 85}, {"time": 398, "pitch": 43, "duration": 31, "velocity": 84}, {"time": 398, "pitch": 55, "duration": 11, "velocity": 81}, {"time": 398, "pitch": 62, "duration": 12, "velocity": 81}, {"time": 404, "pitch": 50, "duration": 12, "velocity": 75}, {"time": 410, "pitch": 59, "duration": 6, "velocity": 81}, {"time": 416, "pitch": 55, "duration": 9, "velocity": 88}, {"time": 422, "pitch": 50, "duration": 9, "velocity": 81}, {"time": 428, "pitch": 55, "duration": 2, "velocity": 86}, {"time": 434, "pitch": 45, "duration": 27, "velocity": 85}, {"time": 434, "pitch": 57, "duration": 10, "velocity": 80}, {"time": 434, "pitch": 61, "duration": 6, "velocity": 78}, {"time": 440, "pitch": 52, "duration": 22, "velocity": 81}, {"time": 446, "pitch": 64, "duration": 5, "velocity": 87}, {"time": 452, "pitch": 57, "duration": 3, "velocity": 85}, {"time": 458, "pitch": 61, "duration": 5, "velocity": 84}, {"time": 470, "pitch": 47, "duration": 32, "velocity": 79}, {"time": 470, "pitch": 59, "duration": 10, "velocity": 78}, {"time": 470, "pitch": 62, "duration": 13, "velocity": 82}, {"time": 476, "pitch": 54, "duration": 25, "velocity": 72}, {"time": 482, "pitch": 66, "duration": 8, "velocity": 85}, {"time": 488, "pitch": 59, "duration": 2, "velocity": 65}, {"time": 494, "pitch": 62, "duration": 3, "velocity": 79}, {"time": 494, "pitch": 66, "duration": 4, "velocity": 83}, {"time": 506, "pitch": 47, "duration": 26, "velocity": 85}, {"time": 506, "pitch": 59, "duration": 9, "velocity": 84}, {"time": 506, "pitch": 66, "duration": 10, "velocity": 84}, {"time": 512, "pitch": 54, "duration": 8, "velocity": 73}, {"time": 518, "pitch": 59, "duration": 11, "velocity": 86}, {"time": 518, "pitch": 62, "duration": 12, "velocity": 86}, {"time": 524, "pitch": 54, "duration": 6, "velocity": 79}, {"time": 530, "pitch": 66, "duration": 5, "velocity": 92}, {"time": 536, "pitch": 59, "duration": 2, "velocity": 86}, {"time": 542, "pitch": 43, "duration": 32, "velocity": 86}, {"time": 542, "pitch": 62, "duration": 13, "velocity": 82}, {"time": 548, "pitch": 50, "duration": 16, "velocity": 81}, {"time": 554, "pitch": 55, "duration": 7, "velocity": 89}, {"time": 560, "pitch": 62, "duration": 11, "velocity": 87}, {"time": 566, "pitch": 50, "duration": 9, "velocity": 75}, {"time": 572, "pitch": 55, "duration": 1, "velocity": 85}, {"time": 578, "pitch": 45, "duration": 31, "velocity": 86}, {"time": 578, "pitch": 57, "duration": 9, "velocity": 81}, {"time": 578, "pitch": 61, "duration": 5, "velocity": 85}, {"time": 584, "pitch": 52, "duration": 21, "velocity": 84}, {"time": 590, "pitch": 57, "duration": 3, "velocity": 86}, {"time": 590, "pitch": 64, "duration": 5, "velocity": 87}, {"time": 596, "pitch": 57, "duration": 2, "velocity": 74}, {"time": 596, "pitch": 61, "duration": 7, "velocity": 79}, {"time": 602, "pitch": 57, "duration": 4, "velocity": 87}, {"time": 608, "pitch": 52, "duration": 3, "velocity": 82}, {"time": 614, "pitch": 47, "duration": 33, "velocity": 85}, {"time": 614, "pitch": 59, "duration": 6, "velocity": 81}, {"time": 614, "pitch": 62, "duration": 11, "velocity": 80}, {"time": 620, "pitch": 54, "duration": 9, "velocity": 74}, {"time": 626, "pitch": 62, "duration": 1, "velocity": 56}, {"time": 626, "pitch": 66, "duration": 12, "velocity": 87}, {"time": 632, "pitch": 54, "duration": 15, "velocity": 70}, {"time": 638, "pitch": 71, "duration": 24, "velocity": 84}, {"time": 644, "pitch": 59, "duration": 26, "velocity": 83}, {"time": 650, "pitch": 47, "duration": 30, "velocity": 85}, {"time": 656, "pitch": 54, "duration": 23, "velocity": 76}, {"time": 662, "pitch": 62, "duration": 9, "velocity": 77}, {"time": 686, "pitch": 47, "duration": 26, "velocity": 85}, {"time": 686, "pitch": 62, "duration": 13, "velocity": 85}, {"time": 692, "pitch": 54, "duration": 18, "velocity": 78}, {"time": 698, "pitch": 59, "duration": 7, "velocity": 87}, {"time": 704, "pitch": 62, "duration": 7, "velocity": 86}, {"time": 710, "pitch": 66, "duration": 5, "velocity": 87}, {"time": 722, "pitch": 42, "duration": 24, "velocity": 80}, {"time": 722, "pitch": 61, "duration": 13, "velocity": 88}, {"time": 728, "pitch": 49, "duration": 18, "velocity": 62}, {"time": 734, "pitch": 57, "duration": 11, "velocity": 86}, {"time": 740, "pitch": 61, "duration": 6, "velocity": 96}, {"time": 746, "pitch": 66, "duration": 4, "velocity": 91}, {"time": 752, "pitch": 57, "duration": 2, "velocity": 82}, {"time": 758, "pitch": 43, "duration": 27, "velocity": 85}, {"time": 758, "pitch": 55, "duration": 13, "velocity": 79}, {"time": 758, "pitch": 62, "duration": 13, "velocity": 82}, {"time": 764, "pitch": 50, "duration": 21, "velocity": 75}, {"time": 770, "pitch": 59, "duration": 7, "velocity": 87}, {"time": 776, "pitch": 55, "duration": 7, "velocity": 84}, {"time": 782, "pitch": 62, "duration": 2, "velocity": 80}, {"time": 794, "pitch": 38, "duration": 27, "velocity": 82}, {"time": 794, "pitch": 57, "duration": 8, "velocity": 74}, {"time": 794, "pitch": 66, "duration": 14, "velocity": 78}, {"time": 800, "pitch": 45, "duration": 21, "velocity": 70}, {"time": 806, "pitch": 57, "duration": 6, "velocity": 87}, {"time": 812, "pitch": 62, "duration": 6, "velocity": 89}, {"time": 818, "pitch": 64, "duration": 6, "velocity": 85}, {"time": 824, "pitch": 62, "duration": 7, "velocity": 73}, {"time": 830, "pitch": 43, "duration": 31, "velocity": 85}, {"time": 830, "pitch": 66, "duration": 13, "velocity": 81}, {"time": 836, "pitch": 50, "duration": 24, "velocity": 79}, {"time": 842, "pitch": 55, "duration": 7, "velocity": 86}, {"time": 848, "pitch": 62, "duration": 7, "velocity": 82}, {"time": 854, "pitch": 59, "duration": 6, "velocity": 76}, {"time": 860, "pitch": 55, "duration": 2, "velocity": 86}, {"time": 866, "pitch": 42, "duration": 28, "velocity": 86}, {"time": 866, "pitch": 61, "duration": 13, "velocity": 86}, {"time": 872, "pitch": 49, "duration": 22, "velocity": 77}, {"time": 878, "pitch": 57, "duration": 7, "velocity": 89}, {"time": 884, "pitch": 61, "duration": 2, "velocity": 89}, {"time": 890, "pitch": 57, "duration": 2, "velocity": 79}, {"time": 890, "pitch": 61, "duration": 6, "velocity": 88}, {"time": 890, "pitch": 66, "duration": 7, "velocity": 81}, {"time": 896, "pitch": 57, "duration": 1, "velocity": 78}, {"time": 902, "pitch": 40, "duration": 15, "velocity": 87}, {"time": 902, "pitch": 59, "duration": 9, "velocity": 80}, {"time": 902, "pitch": 64, "duration": 9, "velocity": 85}, {"time": 908, "pitch": 47, "duration": 9, "velocity": 73}, {"time": 914, "pitch": 59, "duration": 2, "velocity": 85}, {"time": 914, "pitch": 64, "duration": 5, "velocity": 86}, {"time": 914, "pitch": 67, "duration": 8, "velocity": 81}, {"time": 926, "pitch": 45, "duration": 10, "velocity": 85}, {"time": 926, "pitch": 57, "duration": 7, "velocity": 79}, {"time": 926, "pitch": 61, "duration": 7, "velocity": 75}, {"time": 932, "pitch": 52, "duration": 4, "velocity": 82}, {"time": 938, "pitch": 47, "duration": 31, "velocity": 87}, {"time": 938, "pitch": 59, "duration": 8, "velocity": 81}, {"time": 938, "pitch": 62, "duration": 9, "velocity": 83}, {"time": 944, "pitch": 54, "duration": 25, "velocity": 71}, {"time": 950, "pitch": 61, "duration": 6, "velocity": 86}, {"time": 956, "pitch": 62, "duration": 2, "velocity": 78}, {"time": 962, "pitch": 66, "duration": 2, "velocity": 94}, {"time": 968, "pitch": 59, "duration": 2, "velocity": 80}, {"time": 974, "pitch": 47, "duration": 37, "velocity": 87}, {"time": 974, "pitch": 59, "duration": 9, "velocity": 77}, {"time": 974, "pitch": 62, "duration": 9, "velocity": 80}, {"time": 980, "pitch": 54, "duration": 9, "velocity": 74}, {"time": 986, "pitch": 59, "duration": 6, "velocity": 81}, {"time": 986, "pitch": 62, "duration": 7, "velocity": 81}, {"time": 986, "pitch": 66, "duration": 5, "velocity": 75}, {"time": 992, "pitch": 54, "duration": 18, "velocity": 73}, {"time": 998, "pitch": 71, "duration": 12, "velocity": 87}, {"time": 1004, "pitch": 59, "duration": 6, "velocity": 76}, {"time": 1004, "pitch": 62, "duration": 5, "velocity": 59}, {"time": 1010, "pitch": 47, "duration": 1, "velocity": 86}, {"time": 1010, "pitch": 59, "duration": 10, "velocity": 85}, {"time": 1010, "pitch": 66, "duration": 22, "velocity": 77}, {"time": 1016, "pitch": 54, "duration": 14, "velocity": 79}, {"time": 1022, "pitch": 62, "duration": 10, "velocity": 80}, {"time": 1028, "pitch": 59, "duration": 4, "velocity": 83}, {"time": 1034, "pitch": 59, "duration": 3, "velocity": 86}, {"time": 1034, "pitch": 62, "duration": 4, "velocity": 87}, {"time": 1034, "pitch": 66, "duration": 4, "velocity": 82}, {"time": 1046, "pitch": 42, "duration": 27, "velocity": 87}, {"time": 1046, "pitch": 57, "duration": 8, "velocity": 80}, {"time": 1046, "pitch": 61, "duration": 12, "velocity": 75}, {"time": 1052, "pitch": 49, "duration": 20, "velocity": 74}, {"time": 1058, "pitch": 57, "duration": 7, "velocity": 88}, {"time": 1064, "pitch": 61, "duration": 2, "velocity": 92}, {"time": 1070, "pitch": 57, "duration": 2, "velocity": 86}, {"time": 1070, "pitch": 61, "duration": 4, "velocity": 92}, {"time": 1070, "pitch": 66, "duration": 5, "velocity": 84}, {"time": 1076, "pitch": 57, "duration": 1, "velocity": 89}, {"time": 1082, "pitch": 43, "duration": 27, "velocity": 86}, {"time": 1082, "pitch": 55, "duration": 7, "velocity": 85}, {"time": 1082, "pitch": 59, "duration": 6, "velocity": 81}, {"time": 1088, "pitch": 50, "duration": 21, "velocity": 79}, {"time": 1094, "pitch": 59, "duration": 3, "velocity": 86}, {"time": 1094, "pitch": 62, "duration": 5, "velocity": 86}, {"time": 1100, "pitch": 55, "duration": 1, "velocity": 68}, {"time": 1106, "pitch": 55, "duration": 2, "velocity": 88}, {"time": 1106, "pitch": 62, "duration": 2, "velocity": 86}, {"time": 1112, "pitch": 43, "duration": 2, "velocity": 85}, {"time": 1118, "pitch": 38, "duration": 27, "velocity": 87}, {"time": 1118, "pitch": 57, "duration": 7, "velocity": 80}, {"time": 1118, "pitch": 66, "duration": 8, "velocity": 80}, {"time": 1124, "pitch": 45, "duration": 20, "velocity": 69}, {"time": 1130, "pitch": 57, "duration": 3, "velocity": 85}, {"time": 1130, "pitch": 62, "duration": 5, "velocity": 85}, {"time": 1136, "pitch": 57, "duration": 3, "velocity": 84}, {"time": 1142, "pitch": 62, "duration": 6, "velocity": 87}, {"time": 1148, "pitch": 61, "duration": 5, "velocity": 94}, {"time": 1154, "pitch": 43, "duration": 27, "velocity": 86}, {"time": 1154, "pitch": 55, "duration": 8, "velocity": 82}, {"time": 1154, "pitch": 59, "duration": 12, "velocity": 84}, {"time": 1160, "pitch": 50, "duration": 20, "velocity": 76}, {"time": 1166, "pitch": 55, "duration": 7, "velocity": 94}, {"time": 1172, "pitch": 59, "duration": 2, "velocity": 90}, {"time": 1178, "pitch": 55, "duration": 3, "velocity": 87}, {"time": 1178, "pitch": 62, "duration": 4, "velocity": 85}, {"time": 1184, "pitch": 43, "duration": 2, "velocity": 86}, {"time": 1190, "pitch": 42, "duration": 27, "velocity": 87}, {"time": 1190, "pitch": 57, "duration": 12, "velocity": 81}, {"time": 1190, "pitch": 61, "duration": 13, "velocity": 79}, {"time": 1196, "pitch": 49, "duration": 24, "velocity": 76}, {"time": 1202, "pitch": 66, "duration": 7, "velocity": 94}, {"time": 1208, "pitch": 61, "duration": 6, "velocity": 94}, {"time": 1214, "pitch": 57, "duration": 6, "velocity": 91}, {"time": 1220, "pitch": 42, "duration": 2, "velocity": 86}, {"time": 1226, "pitch": 40, "duration": 14, "velocity": 87}, {"time": 1226, "pitch": 55, "duration": 5, "velocity": 83}, {"time": 1226, "pitch": 59, "duration": 7, "velocity": 82}, {"time": 1232, "pitch": 47, "duration": 8, "velocity": 76}, {"time": 1238, "pitch": 52, "duration": 2, "velocity": 85}, {"time": 1238, "pitch": 55, "duration": 4, "velocity": 87}, {"time": 1238, "pitch": 59, "duration": 5, "velocity": 86}, {"time": 1250, "pitch": 45, "duration": 7, "velocity": 86}, {"time": 1250, "pitch": 57, "duration": 5, "velocity": 85}, {"time": 1250, "pitch": 61, "duration": 6, "velocity": 84}, {"time": 1256, "pitch": 52, "duration": 2, "velocity": 77}, {"time": 1262, "pitch": 47, "duration": 32, "velocity": 75}, {"time": 1262, "pitch": 59, "duration": 4, "velocity": 72}, {"time": 1262, "pitch": 62, "duration": 7, "velocity": 77}, {"time": 1268, "pitch": 59, "duration": 4, "velocity": 86}, {"time": 1274, "pitch": 59, "duration": 7, "velocity": 91}, {"time": 1274, "pitch": 66, "duration": 4, "velocity": 86}, {"time": 1280, "pitch": 54, "duration": 15, "velocity": 74}, {"time": 1286, "pitch": 71, "duration": 3, "velocity": 87}, {"time": 1292, "pitch": 73, "duration": 2, "velocity": 58}, {"time": 1298, "pitch": 47, "duration": 31, "velocity": 87}, {"time": 1298, "pitch": 71, "duration": 2, "velocity": 85}, {"time": 1298, "pitch": 74, "duration": 2, "velocity": 94}, {"time": 1304, "pitch": 54, "duration": 13, "velocity": 83}, {"time": 1310, "pitch": 59, "duration": 3, "velocity": 85}, {"time": 1310, "pitch": 62, "duration": 6, "velocity": 83}, {"time": 1310, "pitch": 66, "duration": 7, "velocity": 87}, {"time": 1316, "pitch": 59, "duration": 3, "velocity": 86}, {"time": 1322, "pitch": 59, "duration": 4, "velocity": 89}, {"time": 1322, "pitch": 62, "duration": 8, "velocity": 89}, {"time": 1322, "pitch": 66, "duration": 9, "velocity": 89}, {"time": 1334, "pitch": 38, "duration": 25, "velocity": 89}, {"time": 1334, "pitch": 57, "duration": 7, "velocity": 85}, {"time": 1334, "pitch": 66, "duration": 10, "velocity": 85}, {"time": 1340, "pitch": 45, "duration": 18, "velocity": 78}, {"time": 1346, "pitch": 62, "duration": 6, "velocity": 89}, {"time": 1352, "pitch": 57, "duration": 7, "velocity": 87}, {"time": 1358, "pitch": 62, "duration": 6, "velocity": 96}, {"time": 1364, "pitch": 64, "duration": 3, "velocity": 85}, {"time": 1367, "pitch": 62, "duration": 3, "velocity": 80}, {"time": 1370, "pitch": 45, "duration": 29, "velocity": 86}, {"time": 1370, "pitch": 61, "duration": 10, "velocity": 90}, {"time": 1376, "pitch": 52, "duration": 22, "velocity": 85}, {"time": 1382, "pitch": 57, "duration": 2, "velocity": 85}, {"time": 1382, "pitch": 61, "duration": 7, "velocity": 74}, {"time": 1382, "pitch": 64, "duration": 8, "velocity": 84}, {"time": 1388, "pitch": 57, "duration": 7, "velocity": 80}, {"time": 1394, "pitch": 61, "duration": 2, "velocity": 86}, {"time": 1394, "pitch": 64, "duration": 2, "velocity": 86}, {"time": 1394, "pitch": 69, "duration": 7, "velocity": 83}, {"time": 1406, "pitch": 40, "duration": 14, "velocity": 87}, {"time": 1406, "pitch": 67, "duration": 4, "velocity": 80}, {"time": 1412, "pitch": 47, "duration": 7, "velocity": 84}, {"time": 1418, "pitch": 52, "duration": 6, "velocity": 99}, {"time": 1424, "pitch": 55, "duration": 1, "velocity": 94}, {"time": 1430, "pitch": 45, "duration": 10, "velocity": 87}, {"time": 1430, "pitch": 57, "duration": 3, "velocity": 86}, {"time": 1430, "pitch": 61, "duration": 5, "velocity": 91}, {"time": 1433, "pitch": 52, "duration": 7, "velocity": 87}, {"time": 1436, "pitch": 57, "duration": 4, "velocity": 87}, {"time": 1439, "pitch": 61, "duration": 2, "velocity": 96}, {"time": 1442, "pitch": 47, "duration": 29, "velocity": 85}, {"time": 1442, "pitch": 59, "duration": 10, "velocity": 85}, {"time": 1442, "pitch": 66, "duration": 16, "velocity": 84}, {"time": 1448, "pitch": 54, "duration": 8, "velocity": 81}, {"time": 1454, "pitch": 59, "duration": 6, "velocity": 91}, {"time": 1454, "pitch": 62, "duration": 7, "velocity": 90}, {"time": 1460, "pitch": 54, "duration": 7, "velocity": 77}, {"time": 1463, "pitch": 59, "duration": 1, "velocity": 86}, {"time": 1466, "pitch": 59, "duration": 3, "velocity": 92}, {"time": 1466, "pitch": 66, "duration": 8, "velocity": 85}, {"time": 1469, "pitch": 54, "duration": 2, "velocity": 87}, {"time": 1472, "pitch": 59, "duration": 3, "velocity": 86}, {"time": 1478, "pitch": 50, "duration": 28, "velocity": 79}, {"time": 1478, "pitch": 57, "duration": 4, "velocity": 87}, {"time": 1478, "pitch": 62, "duration": 7, "velocity": 85}, {"time": 1484, "pitch": 57, "duration": 6, "velocity": 88}, {"time": 1490, "pitch": 66, "duration": 6, "velocity": 91}, {"time": 1496, "pitch": 57, "duration": 3, "velocity": 85}, {"time": 1502, "pitch": 57, "duration": 2, "velocity": 85}, {"time": 1502, "pitch": 62, "duration": 3, "velocity": 86}, {"time": 1508, "pitch": 64, "duration": 3, "velocity": 90}, {"time": 1511, "pitch": 62, "duration": 3, "velocity": 85}, {"time": 1514, "pitch": 45, "duration": 29, "velocity": 86}, {"time": 1514, "pitch": 61, "duration": 8, "velocity": 89}, {"time": 1520, "pitch": 52, "duration": 9, "velocity": 73}, {"time": 1526, "pitch": 57, "duration": 3, "velocity": 85}, {"time": 1526, "pitch": 61, "duration": 4, "velocity": 87}, {"time": 1526, "pitch": 64, "duration": 3, "velocity": 87}, {"time": 1532, "pitch": 52, "duration": 9, "velocity": 76}, {"time": 1538, "pitch": 57, "duration": 3, "velocity": 81}, {"time": 1538, "pitch": 61, "duration": 8, "velocity": 81}, {"time": 1538, "pitch": 69, "duration": 6, "velocity": 78}, {"time": 1544, "pitch": 57, "duration": 4, "velocity": 80}, {"time": 1550, "pitch": 40, "duration": 27, "velocity": 89}, {"time": 1556, "pitch": 47, "duration": 20, "velocity": 81}, {"time": 1562, "pitch": 52, "duration": 2, "velocity": 86}, {"time": 1562, "pitch": 55, "duration": 5, "velocity": 85}, {"time": 1568, "pitch": 52, "duration": 5, "velocity": 79}, {"time": 1574, "pitch": 55, "duration": 1, "velocity": 89}, {"time": 1574, "pitch": 59, "duration": 2, "velocity": 87}, {"time": 1586, "pitch": 42, "duration": 27, "velocity": 86}, {"time": 1586, "pitch": 54, "duration": 6, "velocity": 84}, {"time": 1586, "pitch": 66, "duration": 7, "velocity": 78}, {"time": 1592, "pitch": 49, "duration": 20, "velocity": 86}, {"time": 1598, "pitch": 54, "duration": 2, "velocity": 84}, {"time": 1598, "pitch": 66, "duration": 4, "velocity": 81}, {"time": 1604, "pitch": 54, "duration": 3, "velocity": 80}, {"time": 1604, "pitch": 58, "duration": 2, "velocity": 80}, {"time": 1610, "pitch": 54, "duration": 3, "velocity": 89}, {"time": 1610, "pitch": 58, "duration": 4, "velocity": 88}, {"time": 1610, "pitch": 61, "duration": 4, "velocity": 89}, {"time": 1610, "pitch": 66, "duration": 7, "velocity": 85}, {"time": 1613, "pitch": 49, "duration": 8, "velocity": 87}, {"time": 1616, "pitch": 54, "duration": 4, "velocity": 94}, {"time": 1619, "pitch": 58, "duration": 2, "velocity": 85}, {"time": 1622, "pitch": 47, "duration": 29, "velocity": 91}, {"time": 1622, "pitch": 66, "duration": 5, "velocity": 91}, {"time": 1625, "pitch": 54, "duration": 24, "velocity": 79}, {"time": 1628, "pitch": 59, "duration": 4, "velocity": 84}, {"time": 1631, "pitch": 62, "duration": 3, "velocity": 86}, {"time": 1634, "pitch": 66, "duration": 4, "velocity": 92}, {"time": 1637, "pitch": 62, "duration": 3, "velocity": 86}, {"time": 1640, "pitch": 59, "duration": 4, "velocity": 92}, {"time": 1643, "pitch": 62, "duration": 3, "velocity": 87}, {"time": 1646, "pitch": 66, "duration": 4, "velocity": 97}, {"time": 1649, "pitch": 62, "duration": 2, "velocity": 92}, {"time": 1652, "pitch": 59, "duration": 4, "velocity": 91}, {"time": 1655, "pitch": 62, "duration": 2, "velocity": 79}, {"time": 1658, "pitch": 42, "duration": 29, "velocity": 93}, {"time": 1661, "pitch": 49, "duration": 26, "velocity": 87}, {"time": 1664, "pitch": 61, "duration": 3, "velocity": 92}, {"time": 1667, "pitch": 57, "duration": 3, "velocity": 88}, {"time": 1670, "pitch": 66, "duration": 3, "velocity": 91}, {"time": 1673, "pitch": 61, "duration": 3, "velocity": 94}, {"time": 1676, "pitch": 57, "duration": 5, "velocity": 91}, {"time": 1679, "pitch": 61, "duration": 3, "velocity": 92}, {"time": 1682, "pitch": 66, "duration": 3, "velocity": 97}, {"time": 1685, "pitch": 61, "duration": 2, "velocity": 98}, {"time": 1688, "pitch": 57, "duration": 4, "velocity": 87}, {"time": 1691, "pitch": 61, "duration": 1, "velocity": 93}, {"time": 1694, "pitch": 43, "duration": 31, "velocity": 91}, {"time": 1694, "pitch": 59, "duration": 6, "velocity": 91}, {"time": 1697, "pitch": 50, "duration": 27, "velocity": 86}, {"time": 1700, "pitch": 55, "duration": 4, "velocity": 91}, {"time": 1703, "pitch": 59, "duration": 2, "velocity": 89}, {"time": 1706, "pitch": 62, "duration": 3, "velocity": 87}, {"time": 1709, "pitch": 59, "duration": 3, "velocity": 89}, {"time": 1712, "pitch": 55, "duration": 4, "velocity": 90}, {"time": 1715, "pitch": 59, "duration": 2, "velocity": 92}, {"time": 1718, "pitch": 62, "duration": 3, "velocity": 93}, {"time": 1721, "pitch": 59, "duration": 3, "velocity": 93}, {"time": 1724, "pitch": 55, "duration": 5, "velocity": 90}, {"time": 1727, "pitch": 59, "duration": 4, "velocity": 93}, {"time": 1730, "pitch": 50, "duration": 31, "velocity": 98}, {"time": 1736, "pitch": 62, "duration": 3, "velocity": 89}, {"time": 1739, "pitch": 57, "duration": 3, "velocity": 90}, {"time": 1742, "pitch": 62, "duration": 3, "velocity": 91}, {"time": 1745, "pitch": 57, "duration": 3, "velocity": 83}, {"time": 1748, "pitch": 57, "duration": 1, "velocity": 82}, {"time": 1748, "pitch": 62, "duration": 3, "velocity": 85}, {"time": 1754, "pitch": 66, "duration": 6, "velocity": 92}, {"time": 1757, "pitch": 57, "duration": 3, "velocity": 92}, {"time": 1760, "pitch": 57, "duration": 1, "velocity": 78}, {"time": 1760, "pitch": 62, "duration": 3, "velocity": 82}, {"time": 1766, "pitch": 47, "duration": 29, "velocity": 92}, {"time": 1769, "pitch": 54, "duration": 24, "velocity": 82}, {"time": 1772, "pitch": 62, "duration": 3, "velocity": 87}, {"time": 1775, "pitch": 59, "duration": 3, "velocity": 90}, {"time": 1778, "pitch": 66, "duration": 3, "velocity": 93}, {"time": 1781, "pitch": 59, "duration": 3, "velocity": 88}, {"time": 1784, "pitch": 62, "duration": 3, "velocity": 85}, {"time": 1787, "pitch": 59, "duration": 3, "velocity": 88}, {"time": 1790, "pitch": 66, "duration": 7, "velocity": 91}, {"time": 1793, "pitch": 59, "duration": 3, "velocity": 92}, {"time": 1796, "pitch": 62, "duration": 3, "velocity": 77}, {"time": 1799, "pitch": 59, "duration": 3, "velocity": 92}, {"time": 1802, "pitch": 42, "duration": 28, "velocity": 89}, {"time": 1805, "pitch": 49, "duration": 25, "velocity": 82}, {"time": 1808, "pitch": 57, "duration": 4, "velocity": 88}, {"time": 1811, "pitch": 61, "duration": 3, "velocity": 93}, {"time": 1814, "pitch": 66, "duration": 3, "velocity": 93}, {"time": 1817, "pitch": 61, "duration": 3, "velocity": 95}, {"time": 1820, "pitch": 57, "duration": 6, "velocity": 91}, {"time": 1823, "pitch": 61, "duration": 3, "velocity": 98}, {"time": 1826, "pitch": 66, "duration": 3, "velocity": 96}, {"time": 1829, "pitch": 61, "duration": 3, "velocity": 95}, {"time": 1832, "pitch": 57, "duration": 2, "velocity": 91}, {"time": 1838, "pitch": 52, "duration": 27, "velocity": 96}, {"time": 1838, "pitch": 59, "duration": 2, "velocity": 84}, {"time": 1838, "pitch": 64, "duration": 3, "velocity": 91}, {"time": 1841, "pitch": 59, "duration": 3, "velocity": 84}, {"time": 1844, "pitch": 64, "duration": 3, "velocity": 90}, {"time": 1847, "pitch": 59, "duration": 3, "velocity": 85}, {"time": 1850, "pitch": 67, "duration": 3, "velocity": 84}, {"time": 1853, "pitch": 59, "duration": 3, "velocity": 89}, {"time": 1856, "pitch": 64, "duration": 3, "velocity": 92}, {"time": 1859, "pitch": 59, "duration": 3, "velocity": 92}, {"time": 1862, "pitch": 64, "duration": 2, "velocity": 96}, {"time": 1865, "pitch": 59, "duration": 3, "velocity": 92}, {"time": 1868, "pitch": 67, "duration": 3, "velocity": 84}, {"time": 1871, "pitch": 59, "duration": 3, "velocity": 92}, {"time": 1874, "pitch": 42, "duration": 37, "velocity": 92}, {"time": 1877, "pitch": 49, "duration": 34, "velocity": 91}, {"time": 1880, "pitch": 54, "duration": 6, "velocity": 86}, {"time": 1883, "pitch": 58, "duration": 3, "velocity": 75}, {"time": 1886, "pitch": 61, "duration": 4, "velocity": 84}, {"time": 1889, "pitch": 58, "duration": 3, "velocity": 84}, {"time": 1892, "pitch": 54, "duration": 4, "velocity": 95}, {"time": 1895, "pitch": 58, "duration": 4, "velocity": 87}, {"time": 1898, "pitch": 66, "duration": 3, "velocity": 91}, {"time": 1901, "pitch": 58, "duration": 3, "velocity": 84}, {"time": 1904, "pitch": 54, "duration": 4, "velocity": 94}, {"time": 1907, "pitch": 58, "duration": 2, "velocity": 87}, {"time": 1910, "pitch": 47, "duration": 29, "velocity": 91}, {"time": 1910, "pitch": 66, "duration": 5, "velocity": 91}, {"time": 1913, "pitch": 54, "duration": 24, "velocity": 79}, {"time": 1916, "pitch": 59, "duration": 4, "velocity": 84}, {"time": 1919, "pitch": 62, "duration": 3, "velocity": 86}, {"time": 1922, "pitch": 66, "duration": 4, "velocity": 92}, {"time": 1925, "pitch": 62, "duration": 3, "velocity": 86}, {"time": 1928, "pitch": 59, "duration": 4, "velocity": 92}, {"time": 1931, "pitch": 62, "duration": 3, "velocity": 87}, {"time": 1934, "pitch": 66, "duration": 4, "velocity": 97}, {"time": 1937, "pitch": 62, "duration": 2, "velocity": 92}, {"time": 1940, "pitch": 59, "duration": 4, "velocity": 91}, {"time": 1943, "pitch": 62, "duration": 2, "velocity": 79}, {"time": 1946, "pitch": 42, "duration": 29, "velocity": 93}, {"time": 1949, "pitch": 49, "duration": 26, "velocity": 87}, {"time": 1952, "pitch": 61, "duration": 3, "velocity": 92}, {"time": 1955, "pitch": 57, "duration": 3, "velocity": 88}, {"time": 1958, "pitch": 66, "duration": 3, "velocity": 91}, {"time": 1961, "pitch": 61, "duration": 3, "velocity": 94}, {"time": 1964, "pitch": 57, "duration": 5, "velocity": 91}, {"time": 1967, "pitch": 61, "duration": 3, "velocity": 92}, {"time": 1970, "pitch": 66, "duration": 3, "velocity": 97}, {"time": 1973, "pitch": 61, "duration": 2, "velocity": 98}, {"time": 1976, "pitch": 57, "duration": 4, "velocity": 87}, {"time": 1979, "pitch": 61, "duration": 1, "velocity": 93}, {"time": 1982, "pitch": 43, "duration": 31, "velocity": 91}, {"time": 1982, "pitch": 59, "duration": 6, "velocity": 91}, {"time": 1985, "pitch": 50, "duration": 27, "velocity": 86}, {"time": 1988, "pitch": 55, "duration": 4, "velocity": 91}, {"time": 1991, "pitch": 59, "duration": 2, "velocity": 89}, {"time": 1994, "pitch": 62, "duration": 3, "velocity": 87}, {"time": 1997, "pitch": 59, "duration": 3, "velocity": 89}, {"time": 2000, "pitch": 55, "duration": 4, "velocity": 90}, {"time": 2003, "pitch": 59, "duration": 2, "velocity": 92}, {"time": 2006, "pitch": 62, "duration": 3, "velocity": 93}, {"time": 2009, "pitch": 59, "duration": 3, "velocity": 93}, {"time": 2012, "pitch": 55, "duration": 5, "velocity": 90}, {"time": 2015, "pitch": 59, "duration": 4, "velocity": 93}, {"time": 2018, "pitch": 50, "duration": 31, "velocity": 98}, {"time": 2024, "pitch": 62, "duration": 3, "velocity": 89}, {"time": 2027, "pitch": 57, "duration": 3, "velocity": 90}, {"time": 2030, "pitch": 62, "duration": 3, "velocity": 91}, {"time": 2033, "pitch": 57, "duration": 3, "velocity": 83}, {"time": 2036, "pitch": 57, "duration": 1, "velocity": 82}, {"time": 2036, "pitch": 62, "duration": 3, "velocity": 85}, {"time": 2042, "pitch": 66, "duration": 6, "velocity": 92}, {"time": 2045, "pitch": 57, "duration": 3, "velocity": 92}, {"time": 2048, "pitch": 57, "duration": 1, "velocity": 78}, {"time": 2048, "pitch": 62, "duration": 3, "velocity": 82}, {"time": 2054, "pitch": 47, "duration": 29, "velocity": 92}, {"time": 2057, "pitch": 54, "duration": 24, "velocity": 82}, {"time": 2060, "pitch": 62, "duration": 3, "velocity": 87}, {"time": 2063, "pitch": 59, "duration": 3, "velocity": 90}, {"time": 2066, "pitch": 66, "duration": 3, "velocity": 93}, {"time": 2069, "pitch": 59, "duration": 3, "velocity": 88}, {"time": 2072, "pitch": 62, "duration": 3, "velocity": 85}, {"time": 2075, "pitch": 59, "duration": 3, "velocity": 88}, {"time": 2078, "pitch": 66, "duration": 7, "velocity": 91}, {"time": 2081, "pitch": 59, "duration": 3, "velocity": 92}, {"time": 2084, "pitch": 62, "duration": 3, "velocity": 77}, {"time": 2087, "pitch": 59, "duration": 3, "velocity": 92}, {"time": 2090, "pitch": 42, "duration": 28, "velocity": 89}, {"time": 2093, "pitch": 49, "duration": 25, "velocity": 82}, {"time": 2096, "pitch": 57, "duration": 4, "velocity": 88}, {"time": 2099, "pitch": 61, "duration": 3, "velocity": 93}, {"time": 2102, "pitch": 66, "duration": 3, "velocity": 93}, {"time": 2105, "pitch": 61, "duration": 3, "velocity": 95}, {"time": 2108, "pitch": 57, "duration": 6, "velocity": 91}, {"time": 2111, "pitch": 61, "duration": 3, "velocity": 98}, {"time": 2114, "pitch": 66, "duration": 3, "velocity": 96}, {"time": 2117, "pitch": 61, "duration": 3, "velocity": 95}, {"time": 2120, "pitch": 57, "duration": 2, "velocity": 91}, {"time": 2126, "pitch": 40, "duration": 17, "velocity": 95}, {"time": 2129, "pitch": 47, "duration": 13, "velocity": 85}, {"time": 2132, "pitch": 52, "duration": 5, "velocity": 87}, {"time": 2135, "pitch": 59, "duration": 3, "velocity": 85}, {"time": 2138, "pitch": 64, "duration": 4, "velocity": 93}, {"time": 2141, "pitch": 59, "duration": 4, "velocity": 89}, {"time": 2144, "pitch": 52, "duration": 3, "velocity": 94}, {"time": 2147, "pitch": 59, "duration": 2, "velocity": 91}, {"time": 2150, "pitch": 45, "duration": 9, "velocity": 93}, {"time": 2153, "pitch": 52, "duration": 7, "velocity": 86}, {"time": 2156, "pitch": 57, "duration": 4, "velocity": 91}, {"time": 2159, "pitch": 61, "duration": 3, "velocity": 91}, {"time": 2162, "pitch": 47, "duration": 36, "velocity": 94}, {"time": 2168, "pitch": 62, "duration": 2, "velocity": 86}, {"time": 2171, "pitch": 59, "duration": 2, "velocity": 93}, {"time": 2174, "pitch": 66, "duration": 5, "velocity": 93}, {"time": 2177, "pitch": 59, "duration": 4, "velocity": 92}, {"time": 2180, "pitch": 62, "duration": 4, "velocity": 90}, {"time": 2183, "pitch": 66, "duration": 3, "velocity": 91}, {"time": 2186, "pitch": 71, "duration": 4, "velocity": 93}, {"time": 2189, "pitch": 66, "duration": 4, "velocity": 90}, {"time": 2192, "pitch": 62, "duration": 4, "velocity": 87}, {"time": 2195, "pitch": 59, "duration": 3, "velocity": 96}, {"time": 2198, "pitch": 47, "duration": 1, "velocity": 86}, {"time": 2198, "pitch": 59, "duration": 1, "velocity": 78}, {"time": 2198, "pitch": 62, "duration": 11, "velocity": 80}, {"time": 2204, "pitch": 54, "duration": 9, "velocity": 75}, {"time": 2210, "pitch": 66, "duration": 5, "velocity": 90}, {"time": 2216, "pitch": 54, "duration": 6, "velocity": 70}, {"time": 2222, "pitch": 62, "duration": 6, "velocity": 84}, {"time": 2222, "pitch": 66, "duration": 2, "velocity": 76}, {"time": 2222, "pitch": 71, "duration": 5, "velocity": 85}, {"time": 2228, "pitch": 59, "duration": 1, "velocity": 92}, {"time": 2234, "pitch": 43, "duration": 31, "velocity": 85}, {"time": 2234, "pitch": 55, "duration": 12, "velocity": 81}, {"time": 2234, "pitch": 59, "duration": 12, "velocity": 80}, {"time": 2240, "pitch": 50, "duration": 21, "velocity": 72}, {"time": 2246, "pitch": 62, "duration": 7, "velocity": 81}, {"time": 2252, "pitch": 55, "duration": 4, "velocity": 74}, {"time": 2258, "pitch": 55, "duration": 4, "velocity": 82}, {"time": 2258, "pitch": 59, "duration": 5, "velocity": 85}, {"time": 2258, "pitch": 67, "duration": 8, "velocity": 80}, {"time": 2264, "pitch": 50, "duration": 2, "velocity": 87}, {"time": 2270, "pitch": 45, "duration": 31, "velocity": 86}, {"time": 2270, "pitch": 57, "duration": 12, "velocity": 77}, {"time": 2270, "pitch": 61, "duration": 12, "velocity": 77}, {"time": 2276, "pitch": 52, "duration": 26, "velocity": 77}, {"time": 2282, "pitch": 64, "duration": 6, "velocity": 86}, {"time": 2288, "pitch": 57, "duration": 4, "velocity": 86}, {"time": 2294, "pitch": 57, "duration": 4, "velocity": 86}, {"time": 2294, "pitch": 61, "duration": 5, "velocity": 85}, {"time": 2300, "pitch": 62, "duration": 4, "velocity": 84}, {"time": 2306, "pitch": 47, "duration": 28, "velocity": 87}, {"time": 2306, "pitch": 59, "duration": 10, "velocity": 79}, {"time": 2306, "pitch": 62, "duration": 10, "velocity": 87}, {"time": 2312, "pitch": 54, "duration": 21, "velocity": 59}, {"time": 2318, "pitch": 66, "duration": 9, "velocity": 87}, {"time": 2324, "pitch": 59, "duration": 4, "velocity": 81}, {"time": 2330, "pitch": 59, "duration": 3, "velocity": 70}, {"time": 2330, "pitch": 62, "duration": 2, "velocity": 75}, {"time": 2342, "pitch": 47, "duration": 27, "velocity": 87}, {"time": 2342, "pitch": 59, "duration": 9, "velocity": 84}, {"time": 2342, "pitch": 66, "duration": 13, "velocity": 83}, {"time": 2348, "pitch": 54, "duration": 8, "velocity": 79}, {"time": 2354, "pitch": 59, "duration": 7, "velocity": 88}, {"time": 2360, "pitch": 54, "duration": 7, "velocity": 85}, {"time": 2366, "pitch": 59, "duration": 2, "velocity": 81}, {"time": 2366, "pitch": 62, "duration": 6, "velocity": 85}, {"time": 2378, "pitch": 43, "duration": 31, "velocity": 84}, {"time": 2378, "pitch": 55, "duration": 11, "velocity": 81}, {"time": 2378, "pitch": 62, "duration": 12, "velocity": 81}, {"time": 2384, "pitch": 50, "duration": 12, "velocity": 75}, {"time": 2390, "pitch": 59, "duration": 6, "velocity": 81}, {"time": 2396, "pitch": 55, "duration": 9, "velocity": 88}, {"time": 2402, "pitch": 50, "duration": 9, "velocity": 81}, {"time": 2408, "pitch": 55, "duration": 2, "velocity": 86}, {"time": 2414, "pitch": 45, "duration": 27, "velocity": 85}, {"time": 2414, "pitch": 57, "duration": 10, "velocity": 80}, {"time": 2414, "pitch": 61, "duration": 6, "velocity": 78}, {"time": 2420, "pitch": 52, "duration": 22, "velocity": 81}, {"time": 2426, "pitch": 64, "duration": 5, "velocity": 87}, {"time": 2432, "pitch": 57, "duration": 3, "velocity": 85}, {"time": 2438, "pitch": 61, "duration": 5, "velocity": 84}, {"time": 2450, "pitch": 47, "duration": 32, "velocity": 79}, {"time": 2450, "pitch": 59, "duration": 10, "velocity": 78}, {"time": 2450, "pitch": 62, "duration": 13, "velocity": 82}, {"time": 2456, "pitch": 54, "duration": 25, "velocity": 72}, {"time": 2462, "pitch": 66, "duration": 8, "velocity": 85}, {"time": 2468, "pitch": 59, "duration": 2, "velocity": 65}, {"time": 2474, "pitch": 62, "duration": 3, "velocity": 79}, {"time": 2474, "pitch": 66, "duration": 4, "velocity": 83}, {"time": 2486, "pitch": 47, "duration": 26, "velocity": 85}, {"time": 2486, "pitch": 59, "duration": 9, "velocity": 84}, {"time": 2486, "pitch": 66, "duration": 10, "velocity": 84}, {"time": 2492, "pitch": 54, "duration": 8, "velocity": 73}, {"time": 2498, "pitch": 59, "duration": 11, "velocity": 86}, {"time": 2498, "pitch": 62, "duration": 12, "velocity": 86}, {"time": 2504, "pitch": 54, "duration": 6, "velocity": 79}, {"time": 2510, "pitch": 66, "duration": 5, "velocity": 92}, {"time": 2510, "pitch": 71, "duration": 5, "velocity": 96}, {"time": 2516, "pitch": 59, "duration": 2, "velocity": 86}, {"time": 2516, "pitch": 73, "duration": 5, "velocity": 91}, {"time": 2522, "pitch": 38, "duration": 25, "velocity": 89}, {"time": 2522, "pitch": 57, "duration": 7, "velocity": 85}, {"time": 2522, "pitch": 66, "duration": 10, "velocity": 85}, {"time": 2528, "pitch": 45, "duration": 18, "velocity": 78}, {"time": 2534, "pitch": 62, "duration": 6, "velocity": 89}, {"time": 2540, "pitch": 57, "duration": 7, "velocity": 87}, {"time": 2546, "pitch": 62, "duration": 6, "velocity": 96}, {"time": 2552, "pitch": 64, "duration": 3, "velocity": 85}, {"time": 2555, "pitch": 62, "duration": 3, "velocity": 80}, {"time": 2558, "pitch": 45, "duration": 29, "velocity": 86}, {"time": 2558, "pitch": 61, "duration": 10, "velocity": 90}, {"time": 2564, "pitch": 52, "duration": 22, "velocity": 85}, {"time": 2570, "pitch": 57, "duration": 2, "velocity": 85}, {"time": 2570, "pitch": 61, "duration": 7, "velocity": 74}, {"time": 2570, "pitch": 64, "duration": 8, "velocity": 84}, {"time": 2576, "pitch": 57, "duration": 7, "velocity": 80}, {"time": 2582, "pitch": 61, "duration": 2, "velocity": 86}, {"time": 2582, "pitch": 64, "duration": 2, "velocity": 86}, {"time": 2582, "pitch": 69, "duration": 7, "velocity": 83}, {"time": 2594, "pitch": 40, "duration": 14, "velocity": 87}, {"time": 2594, "pitch": 67, "duration": 4, "velocity": 80}, {"time": 2600, "pitch": 47, "duration": 7, "velocity": 84}, {"time": 2606, "pitch": 52, "duration": 6, "velocity": 99}, {"time": 2612, "pitch": 55, "duration": 1, "velocity": 94}, {"time": 2618, "pitch": 45, "duration": 10, "velocity": 87}, {"time": 2618, "pitch": 57, "duration": 3, "velocity": 86}, {"time": 2618, "pitch": 61, "duration": 5, "velocity": 91}, {"time": 2621, "pitch": 52, "duration": 7, "velocity": 87}, {"time": 2624, "pitch": 57, "duration": 4, "velocity": 87}, {"time": 2627, "pitch": 61, "duration": 2, "velocity": 96}, {"time": 2630, "pitch": 47, "duration": 29, "velocity": 85}, {"time": 2630, "pitch": 59, "duration": 10, "velocity": 85}, {"time": 2630, "pitch": 66, "duration": 16, "velocity": 84}, {"time": 2636, "pitch": 54, "duration": 8, "velocity": 81}, {"time": 2642, "pitch": 59, "duration": 6, "velocity": 91}, {"time": 2642, "pitch": 62, "duration": 7, "velocity": 90}, {"time": 2648, "pitch": 54, "duration": 7, "velocity": 77}, {"time": 2651, "pitch": 59, "duration": 1, "velocity": 86}, {"time": 2654, "pitch": 59, "duration": 3, "velocity": 92}, {"time": 2654, "pitch": 66, "duration": 8, "velocity": 85}, {"time": 2657, "pitch": 54, "duration": 2, "velocity": 87}, {"time": 2660, "pitch": 59, "duration": 3, "velocity": 86}, {"time": 2666, "pitch": 50, "duration": 28, "velocity": 79}, {"time": 2666, "pitch": 57, "duration": 4, "velocity": 87}, {"time": 2666, "pitch": 62, "duration": 7, "velocity": 85}, {"time": 2672, "pitch": 57, "duration": 6, "velocity": 88}, {"time": 2678, "pitch": 66, "duration": 6, "velocity": 91}, {"time": 2684, "pitch": 57, "duration": 3, "velocity": 85}, {"time": 2690, "pitch": 57, "duration": 2, "velocity": 85}, {"time": 2690, "pitch": 62, "duration": 3, "velocity": 86}, {"time": 2696, "pitch": 64, "duration": 3, "velocity": 90}, {"time": 2699, "pitch": 62, "duration": 3, "velocity": 85}, {"time": 2702, "pitch": 45, "duration": 29, "velocity": 86}, {"time": 2702, "pitch": 61, "duration": 8, "velocity": 89}, {"time": 2708, "pitch": 52, "duration": 9, "velocity": 73}, {"time": 2714, "pitch": 57, "duration": 3, "velocity": 85}, {"time": 2714, "pitch": 61, "duration": 4, "velocity": 87}, {"time": 2714, "pitch": 64, "duration": 3, "velocity": 87}, {"time": 2720, "pitch": 52, "duration": 9, "velocity": 76}, {"time": 2726, "pitch": 57, "duration": 3, "velocity": 81}, {"time": 2726, "pitch": 61, "duration": 8, "velocity": 81}, {"time": 2726, "pitch": 69, "duration": 6, "velocity": 78}, {"time": 2732, "pitch": 57, "duration": 4, "velocity": 80}, {"time": 2738, "pitch": 40, "duration": 27, "velocity": 89}, {"time": 2744, "pitch": 47, "duration": 20, "velocity": 81}, {"time": 2750, "pitch": 52, "duration": 2, "velocity": 86}, {"time": 2750, "pitch": 55, "duration": 5, "velocity": 85}, {"time": 2756, "pitch": 52, "duration": 5, "velocity": 79}, {"time": 2762, "pitch": 55, "duration": 1, "velocity": 89}, {"time": 2762, "pitch": 59, "duration": 2, "velocity": 87}, {"time": 2774, "pitch": 42, "duration": 27, "velocity": 86}, {"time": 2774, "pitch": 54, "duration": 6, "velocity": 84}, {"time": 2774, "pitch": 66, "duration": 7, "velocity": 78}, {"time": 2780, "pitch": 49, "duration": 20, "velocity": 86}, {"time": 2786, "pitch": 54, "duration": 2, "velocity": 84}, {"time": 2786, "pitch": 66, "duration": 4, "velocity": 81}, {"time": 2792, "pitch": 54, "duration": 3, "velocity": 80}, {"time": 2792, "pitch": 58, "duration": 2, "velocity": 80}, {"time": 2798, "pitch": 54, "duration": 3, "velocity": 89}, {"time": 2798, "pitch": 58, "duration": 4, "velocity": 88}, {"time": 2798, "pitch": 61, "duration": 4, "velocity": 89}, {"time": 2798, "pitch": 66, "duration": 7, "velocity": 85}, {"time": 2801, "pitch": 49, "duration": 8, "velocity": 87}, {"time": 2804, "pitch": 54, "duration": 4, "velocity": 94}, {"time": 2807, "pitch": 58, "duration": 2, "velocity": 85}, {"time": 2810, "pitch": 47, "duration": 29, "velocity": 91}, {"time": 2810, "pitch": 66, "duration": 5, "velocity": 91}, {"time": 2813, "pitch": 54, "duration": 24, "velocity": 79}, {"time": 2816, "pitch": 59, "duration": 4, "velocity": 84}, {"time": 2819, "pitch": 62, "duration": 3, "velocity": 86}, {"time": 2822, "pitch": 66, "duration": 4, "velocity": 92}, {"time": 2825, "pitch": 62, "duration": 3, "velocity": 86}, {"time": 2828, "pitch": 59, "duration": 4, "velocity": 92}, {"time": 2831, "pitch": 62, "duration": 3, "velocity": 87}, {"time": 2834, "pitch": 66, "duration": 4, "velocity": 97}, {"time": 2837, "pitch": 62, "duration": 2, "velocity": 92}, {"time": 2840, "pitch": 59, "duration": 4, "velocity": 91}, {"time": 2843, "pitch": 62, "duration": 2, "velocity": 79}, {"time": 2846, "pitch": 42, "duration": 29, "velocity": 93}, {"time": 2849, "pitch": 49, "duration": 26, "velocity": 87}, {"time": 2852, "pitch": 61, "duration": 3, "velocity": 92}, {"time": 2855, "pitch": 57, "duration": 3, "velocity": 88}, {"time": 2858, "pitch": 66, "duration": 3, "velocity": 91}, {"time": 2861, "pitch": 61, "duration": 3, "velocity": 94}, {"time": 2864, "pitch": 57, "duration": 5, "velocity": 91}, {"time": 2867, "pitch": 61, "duration": 3, "velocity": 92}, {"time": 2870, "pitch": 66, "duration": 3, "velocity": 97}, {"time": 2873, "pitch": 61, "duration": 2, "velocity": 98}, {"time": 2876, "pitch": 57, "duration": 4, "velocity": 87}, {"time": 2879, "pitch": 61, "duration": 1, "velocity": 93}, {"time": 2882, "pitch": 43, "duration": 31, "velocity": 91}, {"time": 2882, "pitch": 59, "duration": 6, "velocity": 91}, {"time": 2885, "pitch": 50, "duration": 27, "velocity": 86}, {"time": 2888, "pitch": 55, "duration": 4, "velocity": 91}, {"time": 2891, "pitch": 59, "duration": 2, "velocity": 89}, {"time": 2894, "pitch": 62, "duration": 3, "velocity": 87}, {"time": 2897, "pitch": 59, "duration": 3, "velocity": 89}, {"time": 2900, "pitch": 55, "duration": 4, "velocity": 90}, {"time": 2903, "pitch": 59, "duration": 2, "velocity": 92}, {"time": 2906, "pitch": 62, "duration": 3, "velocity": 93}, {"time": 2909, "pitch": 59, "duration": 3, "velocity": 93}, {"time": 2912, "pitch": 55, "duration": 5, "velocity": 90}, {"time": 2915, "pitch": 59, "duration": 4, "velocity": 93}, {"time": 2918, "pitch": 50, "duration": 31, "velocity": 98}, {"time": 2924, "pitch": 62, "duration": 3, "velocity": 89}, {"time": 2927, "pitch": 57, "duration": 3, "velocity": 90}, {"time": 2930, "pitch": 62, "duration": 3, "velocity": 91}, {"time": 2933, "pitch": 57, "duration": 3, "velocity": 83}, {"time": 2936, "pitch": 57, "duration": 1, "velocity": 82}, {"time": 2936, "pitch": 62, "duration": 3, "velocity": 85}, {"time": 2942, "pitch": 66, "duration": 6, "velocity": 92}, {"time": 2945, "pitch": 57, "duration": 3, "velocity": 92}, {"time": 2948, "pitch": 57, "duration": 1, "velocity": 78}, {"time": 2948, "pitch": 62, "duration": 3, "velocity": 82}, {"time": 2954, "pitch": 47, "duration": 29, "velocity": 92}, {"time": 2957, "pitch": 54, "duration": 24, "velocity": 82}, {"time": 2960, "pitch": 62, "duration": 3, "velocity": 87}, {"time": 2963, "pitch": 59, "duration": 3, "velocity": 90}, {"time": 2966, "pitch": 66, "duration": 3, "velocity": 93}, {"time": 2969, "pitch": 59, "duration": 3, "velocity": 88}, {"time": 2972, "pitch": 62, "duration": 3, "velocity": 85}, {"time": 2975, "pitch": 59, "duration": 3, "velocity": 88}, {"time": 2978, "pitch": 66, "duration": 7, "velocity": 91}, {"time": 2981, "pitch": 59, "duration": 3, "velocity": 92}, {"time": 2984, "pitch": 62, "duration": 3, "velocity": 77}, {"time": 2987, "pitch": 59, "duration": 3, "velocity": 92}, {"time": 2990, "pitch": 42, "duration": 28, "velocity": 89}, {"time": 2993, "pitch": 49, "duration": 25, "velocity": 82}, {"time": 2996, "pitch": 57, "duration": 4, "velocity": 88}, {"time": 2999, "pitch": 61, "duration": 3, "velocity": 93}, {"time": 3002, "pitch": 66, "duration": 3, "velocity": 93}, {"time": 3005, "pitch": 61, "duration": 3, "velocity": 95}, {"time": 3008, "pitch": 57, "duration": 6, "velocity": 91}, {"time": 3011, "pitch": 61, "duration": 3, "velocity": 98}, {"time": 3014, "pitch": 66, "duration": 3, "velocity": 96}, {"time": 3017, "pitch": 61, "duration": 3, "velocity": 95}, {"time": 3020, "pitch": 57, "duration": 2, "velocity": 91}, {"time": 3026, "pitch": 52, "duration": 27, "velocity": 96}, {"time": 3026, "pitch": 59, "duration": 2, "velocity": 84}, {"time": 3026, "pitch": 64, "duration": 3, "velocity": 91}, {"time": 3029, "pitch": 59, "duration": 3, "velocity": 84}, {"time": 3032, "pitch": 64, "duration": 3, "velocity": 90}, {"time": 3035, "pitch": 59, "duration": 3, "velocity": 85}, {"time": 3038, "pitch": 67, "duration": 3, "velocity": 84}, {"time": 3041, "pitch": 59, "duration": 3, "velocity": 89}, {"time": 3044, "pitch": 64, "duration": 3, "velocity": 92}, {"time": 3047, "pitch": 59, "duration": 3, "velocity": 92}, {"time": 3050, "pitch": 64, "duration": 2, "velocity": 96}, {"time": 3053, "pitch": 59, "duration": 3, "velocity": 92}, {"time": 3056, "pitch": 67, "duration": 3, "velocity": 84}, {"time": 3059, "pitch": 59, "duration": 3, "velocity": 92}, {"time": 3062, "pitch": 42, "duration": 37, "velocity": 92}, {"time": 3065, "pitch": 49, "duration": 34, "velocity": 91}, {"time": 3068, "pitch": 54, "duration": 6, "velocity": 86}, {"time": 3071, "pitch": 58, "duration": 3, "velocity": 75}, {"time": 3074, "pitch": 61, "duration": 4, "velocity": 84}, {"time": 3077, "pitch": 58, "duration": 3, "velocity": 84}, {"time": 3080, "pitch": 54, "duration": 4, "velocity": 95}, {"time": 3083, "pitch": 58, "duration": 4, "velocity": 87}, {"time": 3086, "pitch": 66, "duration": 3, "velocity": 91}, {"time": 3089, "pitch": 58, "duration": 3, "velocity": 84}, {"time": 3092, "pitch": 54, "duration": 4, "velocity": 94}, {"time": 3095, "pitch": 58, "duration": 2, "velocity": 87}, {"time": 3098, "pitch": 47, "duration": 29, "velocity": 91}, {"time": 3098, "pitch": 66, "duration": 5, "velocity": 91}, {"time": 3101, "pitch": 54, "duration": 24, "velocity": 79}, {"time": 3104, "pitch": 59, "duration": 4, "velocity": 84}, {"time": 3107, "pitch": 62, "duration": 3, "velocity": 86}, {"time": 3110, "pitch": 66, "duration": 4, "velocity": 92}, {"time": 3113, "pitch": 62, "duration": 3, "velocity": 86}, {"time": 3116, "pitch": 59, "duration": 4, "velocity": 92}, {"time": 3119, "pitch": 62, "duration": 3, "velocity": 87}, {"time": 3122, "pitch": 66, "duration": 4, "velocity": 97}, {"time": 3125, "pitch": 62, "duration": 2, "velocity": 92}, {"time": 3128, "pitch": 59, "duration": 4, "velocity": 91}, {"time": 3131, "pitch": 62, "duration": 2, "velocity": 79}, {"time": 3134, "pitch": 42, "duration": 29, "velocity": 93}, {"time": 3137, "pitch": 49, "duration": 26, "velocity": 87}, {"time": 3140, "pitch": 61, "duration": 3, "velocity": 92}, {"time": 3143, "pitch": 57, "duration": 3, "velocity": 88}, {"time": 3146, "pitch": 66, "duration": 3, "velocity": 91}, {"time": 3149, "pitch": 61, "duration": 3, "velocity": 94}, {"time": 3152, "pitch": 57, "duration": 5, "velocity": 91}, {"time": 3155, "pitch": 61, "duration": 3, "velocity": 92}, {"time": 3158, "pitch": 66, "duration": 3, "velocity": 97}, {"time": 3161, "pitch": 61, "duration": 2, "velocity": 98}, {"time": 3164, "pitch": 57, "duration": 4, "velocity": 87}, {"time": 3167, "pitch": 61, "duration": 1, "velocity": 93}, {"time": 3170, "pitch": 43, "duration": 31, "velocity": 91}, {"time": 3170, "pitch": 59, "duration": 6, "velocity": 91}, {"time": 3173, "pitch": 50, "duration": 27, "velocity": 86}, {"time": 3176, "pitch": 55, "duration": 4, "velocity": 91}, {"time": 3179, "pitch": 59, "duration": 2, "velocity": 89}, {"time": 3182, "pitch": 62, "duration": 3, "velocity": 87}, {"time": 3185, "pitch": 59, "duration": 3, "velocity": 89}, {"time": 3188, "pitch": 55, "duration": 4, "velocity": 90}, {"time": 3191, "pitch": 59, "duration": 2, "velocity": 92}, {"time": 3194, "pitch": 62, "duration": 3, "velocity": 93}, {"time": 3197, "pitch": 59, "duration": 3, "velocity": 93}, {"time": 3200, "pitch": 55, "duration": 5, "velocity": 90}, {"time": 3203, "pitch": 59, "duration": 4, "velocity": 93}, {"time": 3206, "pitch": 50, "duration": 31, "velocity": 98}, {"time": 3212, "pitch": 62, "duration": 3, "velocity": 89}, {"time": 3215, "pitch": 57, "duration": 3, "velocity": 90}, {"time": 3218, "pitch": 62, "duration": 3, "velocity": 91}, {"time": 3221, "pitch": 57, "duration": 3, "velocity": 83}, {"time": 3224, "pitch": 57, "duration": 1, "velocity": 82}, {"time": 3224, "pitch": 62, "duration": 3, "velocity": 85}, {"time": 3230, "pitch": 66, "duration": 6, "velocity": 92}, {"time": 3233, "pitch": 57, "duration": 3, "velocity": 92}, {"time": 3236, "pitch": 57, "duration": 1, "velocity": 78}, {"time": 3236, "pitch": 62, "duration": 3, "velocity": 82}, {"time": 3242, "pitch": 47, "duration": 29, "velocity": 92}, {"time": 3245, "pitch": 54, "duration": 24, "velocity": 82}, {"time": 3248, "pitch": 62, "duration": 3, "velocity": 87}, {"time": 3251, "pitch": 59, "duration": 3, "velocity": 90}, {"time": 3254, "pitch": 66, "duration": 3, "velocity": 93}, {"time": 3257, "pitch": 59, "duration": 3, "velocity": 88}, {"time": 3260, "pitch": 62, "duration": 3, "velocity": 85}, {"time": 3263, "pitch": 59, "duration": 3, "velocity": 88}, {"time": 3266, "pitch": 66, "duration": 7, "velocity": 91}, {"time": 3269, "pitch": 59, "duration": 3, "velocity": 92}, {"time": 3272, "pitch": 62, "duration": 3, "velocity": 77}, {"time": 3275, "pitch": 59, "duration": 3, "velocity": 92}, {"time": 3278, "pitch": 42, "duration": 28, "velocity": 89}, {"time": 3281, "pitch": 49, "duration": 25, "velocity": 82}, {"time": 3284, "pitch": 57, "duration": 4, "velocity": 88}, {"time": 3287, "pitch": 61, "duration": 3, "velocity": 93}, {"time": 3290, "pitch": 66, "duration": 3, "velocity": 93}, {"time": 3293, "pitch": 61, "duration": 3, "velocity": 95}, {"time": 3296, "pitch": 57, "duration": 6, "velocity": 91}, {"time": 3299, "pitch": 61, "duration": 3, "velocity": 98}, {"time": 3302, "pitch": 66, "duration": 3, "velocity": 96}, {"time": 3305, "pitch": 61, "duration": 3, "velocity": 95}, {"time": 3308, "pitch": 57, "duration": 2, "velocity": 91}, {"time": 3314, "pitch": 40, "duration": 17, "velocity": 95}, {"time": 3317, "pitch": 47, "duration": 13, "velocity": 85}, {"time": 3320, "pitch": 52, "duration": 5, "velocity": 87}, {"time": 3323, "pitch": 59, "duration": 3, "velocity": 85}, {"time": 3326, "pitch": 64, "duration": 4, "velocity": 93}, {"time": 3329, "pitch": 59, "duration": 4, "velocity": 89}, {"time": 3332, "pitch": 52, "duration": 3, "velocity": 94}, {"time": 3335, "pitch": 59, "duration": 2, "velocity": 91}, {"time": 3338, "pitch": 45, "duration": 9, "velocity": 93}, {"time": 3341, "pitch": 52, "duration": 7, "velocity": 86}, {"time": 3344, "pitch": 57, "duration": 4, "velocity": 91}, {"time": 3347, "pitch": 61, "duration": 3, "velocity": 91}, {"time": 3350, "pitch": 47, "duration": 24, "velocity": 94}, {"time": 3356, "pitch": 62, "duration": 2, "velocity": 86}, {"time": 3359, "pitch": 59, "duration": 2, "velocity": 93}, {"time": 3362, "pitch": 66, "duration": 5, "velocity": 93}, {"time": 3365, "pitch": 59, "duration": 4, "velocity": 92}, {"time": 3368, "pitch": 62, "duration": 4, "velocity": 90}, {"time": 3371, "pitch": 66, "duration": 3, "velocity": 91}, {"time": 3374, "pitch": 43, "duration": 13, "velocity": 87}, {"time": 3374, "pitch": 55, "duration": 3, "velocity": 85}, {"time": 3374, "pitch": 59, "duration": 4, "velocity": 81}, {"time": 3374, "pitch": 62, "duration": 5, "velocity": 85}, {"time": 3377, "pitch": 50, "duration": 10, "velocity": 85}, {"time": 3380, "pitch": 55, "duration": 6, "velocity": 91}, {"time": 3383, "pitch": 59, "duration": 3, "velocity": 87}, {"time": 3386, "pitch": 48, "duration": 29, "velocity": 91}, {"time": 3386, "pitch": 67, "duration": 5, "velocity": 91}, {"time": 3389, "pitch": 55, "duration": 24, "velocity": 79}, {"time": 3392, "pitch": 60, "duration": 4, "velocity": 84}, {"time": 3395, "pitch": 63, "duration": 3, "velocity": 86}, {"time": 3398, "pitch": 67, "duration": 4, "velocity": 92}, {"time": 3401, "pitch": 63, "duration": 3, "velocity": 86}, {"time": 3404, "pitch": 60, "duration": 4, "velocity": 92}, {"time": 3407, "pitch": 63, "duration": 3, "velocity": 87}, {"time": 3410, "pitch": 67, "duration": 4, "velocity": 97}, {"time": 3413, "pitch": 63, "duration": 2, "velocity": 92}, {"time": 3416, "pitch": 60, "duration": 4, "velocity": 91}, {"time": 3419, "pitch": 63, "duration": 2, "velocity": 79}, {"time": 3422, "pitch": 43, "duration": 29, "velocity": 93}, {"time": 3425, "pitch": 50, "duration": 26, "velocity": 87}, {"time": 3428, "pitch": 62, "duration": 3, "velocity": 92}, {"time": 3431, "pitch": 58, "duration": 3, "velocity": 88}, {"time": 3434, "pitch": 67, "duration": 3, "velocity": 91}, {"time": 3437, "pitch": 62, "duration": 3, "velocity": 94}, {"time": 3440, "pitch": 58, "duration": 5, "velocity": 91}, {"time": 3443, "pitch": 62, "duration": 3, "velocity": 92}, {"time": 3446, "pitch": 67, "duration": 3, "velocity": 97}, {"time": 3449, "pitch": 62, "duration": 2, "velocity": 98}, {"time": 3452, "pitch": 58, "duration": 4, "velocity": 87}, {"time": 3455, "pitch": 62, "duration": 1, "velocity": 93}, {"time": 3458, "pitch": 44, "duration": 31, "velocity": 91}, {"time": 3458, "pitch": 60, "duration": 6, "velocity": 91}, {"time": 3461, "pitch": 51, "duration": 27, "velocity": 86}, {"time": 3464, "pitch": 56, "duration": 4, "velocity": 91}, {"time": 3467, "pitch": 60, "duration": 2, "velocity": 89}, {"time": 3470, "pitch": 63, "duration": 3, "velocity": 87}, {"time": 3473, "pitch": 60, "duration": 3, "velocity": 89}, {"time": 3476, "pitch": 56, "duration": 4, "velocity": 90}, {"time": 3479, "pitch": 60, "duration": 2, "velocity": 92}, {"time": 3482, "pitch": 63, "duration": 3, "velocity": 93}, {"time": 3485, "pitch": 60, "duration": 3, "velocity": 93}, {"time": 3488, "pitch": 56, "duration": 5, "velocity": 90}, {"time": 3491, "pitch": 60, "duration": 4, "velocity": 93}, {"time": 3494, "pitch": 51, "duration": 31, "velocity": 98}, {"time": 3500, "pitch": 63, "duration": 3, "velocity": 89}, {"time": 3503, "pitch": 58, "duration": 3, "velocity": 90}, {"time": 3506, "pitch": 63, "duration": 3, "velocity": 91}, {"time": 3509, "pitch": 58, "duration": 3, "velocity": 83}, {"time": 3512, "pitch": 58, "duration": 1, "velocity": 82}, {"time": 3512, "pitch": 63, "duration": 3, "velocity": 85}, {"time": 3518, "pitch": 67, "duration": 6, "velocity": 92}, {"time": 3521, "pitch": 58, "duration": 3, "velocity": 92}, {"time": 3524, "pitch": 58, "duration": 1, "velocity": 78}, {"time": 3524, "pitch": 63, "duration": 3, "velocity": 82}, {"time": 3530, "pitch": 48, "duration": 29, "velocity": 92}, {"time": 3533, "pitch": 55, "duration": 24, "velocity": 82}, {"time": 3536, "pitch": 63, "duration": 3, "velocity": 87}, {"time": 3539, "pitch": 60, "duration": 3, "velocity": 90}, {"time": 3542, "pitch": 67, "duration": 3, "velocity": 93}, {"time": 3545, "pitch": 60, "duration": 3, "velocity": 88}, {"time": 3548, "pitch": 63, "duration": 3, "velocity": 85}, {"time": 3551, "pitch": 60, "duration": 3, "velocity": 88}, {"time": 3554, "pitch": 67, "duration": 7, "velocity": 91}, {"time": 3557, "pitch": 60, "duration": 3, "velocity": 92}, {"time": 3560, "pitch": 63, "duration": 3, "velocity": 77}, {"time": 3563, "pitch": 60, "duration": 3, "velocity": 92}, {"time": 3566, "pitch": 43, "duration": 28, "velocity": 89}, {"time": 3569, "pitch": 50, "duration": 25, "velocity": 82}, {"time": 3572, "pitch": 58, "duration": 4, "velocity": 88}, {"time": 3575, "pitch": 62, "duration": 3, "velocity": 93}, {"time": 3578, "pitch": 67, "duration": 3, "velocity": 93}, {"time": 3581, "pitch": 62, "duration": 3, "velocity": 95}, {"time": 3584, "pitch": 58, "duration": 6, "velocity": 91}, {"time": 3587, "pitch": 62, "duration": 3, "velocity": 98}, {"time": 3590, "pitch": 67, "duration": 3, "velocity": 96}, {"time": 3593, "pitch": 62, "duration": 3, "velocity": 95}, {"time": 3596, "pitch": 58, "duration": 2, "velocity": 91}, {"time": 3602, "pitch": 53, "duration": 27, "velocity": 96}, {"time": 3602, "pitch": 60, "duration": 2, "velocity": 84}, {"time": 3602, "pitch": 65, "duration": 3, "velocity": 91}, {"time": 3605, "pitch": 60, "duration": 3, "velocity": 84}, {"time": 3608, "pitch": 65, "duration": 3, "velocity": 90}, {"time": 3611, "pitch": 60, "duration": 3, "velocity": 85}, {"time": 3614, "pitch": 68, "duration": 3, "velocity": 84}, {"time": 3617, "pitch": 60, "duration": 3, "velocity": 89}, {"time": 3620, "pitch": 65, "duration": 3, "velocity": 92}, {"time": 3623, "pitch": 60, "duration": 3, "velocity": 92}, {"time": 3626, "pitch": 65, "duration": 2, "velocity": 96}, {"time": 3629, "pitch": 60, "duration": 3, "velocity": 92}, {"time": 3632, "pitch": 68, "duration": 3, "velocity": 84}, {"time": 3635, "pitch": 60, "duration": 3, "velocity": 92}, {"time": 3638, "pitch": 43, "duration": 37, "velocity": 92}, {"time": 3641, "pitch": 50, "duration": 34, "velocity": 91}, {"time": 3644, "pitch": 55, "duration": 6, "velocity": 86}, {"time": 3647, "pitch": 59, "duration": 3, "velocity": 75}, {"time": 3650, "pitch": 62, "duration": 4, "velocity": 84}, {"time": 3653, "pitch": 59, "duration": 3, "velocity": 84}, {"time": 3656, "pitch": 55, "duration": 4, "velocity": 95}, {"time": 3659, "pitch": 59, "duration": 4, "velocity": 87}, {"time": 3662, "pitch": 67, "duration": 3, "velocity": 91}, {"time": 3665, "pitch": 59, "duration": 3, "velocity": 84}, {"time": 3668, "pitch": 55, "duration": 4, "velocity": 94}, {"time": 3671, "pitch": 59, "duration": 2, "velocity": 87}, {"time": 3674, "pitch": 48, "duration": 29, "velocity": 91}, {"time": 3674, "pitch": 67, "duration": 5, "velocity": 91}, {"time": 3677, "pitch": 55, "duration": 24, "velocity": 79}, {"time": 3680, "pitch": 60, "duration": 4, "velocity": 84}, {"time": 3683, "pitch": 63, "duration": 3, "velocity": 86}, {"time": 3686, "pitch": 67, "duration": 4, "velocity": 92}, {"time": 3689, "pitch": 63, "duration": 3, "velocity": 86}, {"time": 3692, "pitch": 60, "duration": 4, "velocity": 92}, {"time": 3695, "pitch": 63, "duration": 3, "velocity": 87}, {"time": 3698, "pitch": 67, "duration": 4, "velocity": 97}, {"time": 3701, "pitch": 63, "duration": 2, "velocity": 92}, {"time": 3704, "pitch": 60, "duration": 4, "velocity": 91}, {"time": 3707, "pitch": 63, "duration": 2, "velocity": 79}, {"time": 3710, "pitch": 43, "duration": 29, "velocity": 93}, {"time": 3713, "pitch": 50, "duration": 26, "velocity": 87}, {"time": 3716, "pitch": 62, "duration": 3, "velocity": 92}, {"time": 3719, "pitch": 58, "duration": 3, "velocity": 88}, {"time": 3722, "pitch": 67, "duration": 3, "velocity": 91}, {"time": 3725, "pitch": 62, "duration": 3, "velocity": 94}, {"time": 3728, "pitch": 58, "duration": 5, "velocity": 91}, {"time": 3731, "pitch": 62, "duration": 3, "velocity": 92}, {"time": 3734, "pitch": 67, "duration": 3, "velocity": 97}, {"time": 3737, "pitch": 62, "duration": 2, "velocity": 98}, {"time": 3740, "pitch": 58, "duration": 4, "velocity": 87}, {"time": 3743, "pitch": 62, "duration": 1, "velocity": 93}, {"time": 3746, "pitch": 44, "duration": 31, "velocity": 91}, {"time": 3746, "pitch": 60, "duration": 6, "velocity": 91}, {"time": 3749, "pitch": 51, "duration": 27, "velocity": 86}, {"time": 3752, "pitch": 56, "duration": 4, "velocity": 91}, {"time": 3755, "pitch": 60, "duration": 2, "velocity": 89}, {"time": 3758, "pitch": 63, "duration": 3, "velocity": 87}, {"time": 3761, "pitch": 60, "duration": 3, "velocity": 89}, {"time": 3764, "pitch": 56, "duration": 4, "velocity": 90}, {"time": 3767, "pitch": 60, "duration": 2, "velocity": 92}, {"time": 3770, "pitch": 63, "duration": 3, "velocity": 93}, {"time": 3773, "pitch": 60, "duration": 3, "velocity": 93}, {"time": 3776, "pitch": 56, "duration": 5, "velocity": 90}, {"time": 3779, "pitch": 60, "duration": 4, "velocity": 93}, {"time": 3782, "pitch": 51, "duration": 31, "velocity": 98}, {"time": 3788, "pitch": 63, "duration": 3, "velocity": 89}, {"time": 3791, "pitch": 58, "duration": 3, "velocity": 90}, {"time": 3794, "pitch": 63, "duration": 3, "velocity": 91}, {"time": 3797, "pitch": 58, "duration": 3, "velocity": 83}, {"time": 3800, "pitch": 58, "duration": 1, "velocity": 82}, {"time": 3800, "pitch": 63, "duration": 3, "velocity": 85}, {"time": 3806, "pitch": 67, "duration": 6, "velocity": 92}, {"time": 3809, "pitch": 58, "duration": 3, "velocity": 92}, {"time": 3812, "pitch": 58, "duration": 1, "velocity": 78}, {"time": 3812, "pitch": 63, "duration": 3, "velocity": 82}, {"time": 3818, "pitch": 48, "duration": 29, "velocity": 92}, {"time": 3821, "pitch": 55, "duration": 24, "velocity": 82}, {"time": 3824, "pitch": 63, "duration": 3, "velocity": 87}, {"time": 3827, "pitch": 60, "duration": 3, "velocity": 90}, {"time": 3830, "pitch": 67, "duration": 3, "velocity": 93}, {"time": 3833, "pitch": 60, "duration": 3, "velocity": 88}, {"time": 3836, "pitch": 63, "duration": 3, "velocity": 85}, {"time": 3839, "pitch": 60, "duration": 3, "velocity": 88}, {"time": 3842, "pitch": 67, "duration": 7, "velocity": 91}, {"time": 3845, "pitch": 60, "duration": 3, "velocity": 92}, {"time": 3848, "pitch": 63, "duration": 3, "velocity": 77}, {"time": 3851, "pitch": 60, "duration": 3, "velocity": 92}, {"time": 3854, "pitch": 43, "duration": 28, "velocity": 89}, {"time": 3857, "pitch": 50, "duration": 25, "velocity": 82}, {"time": 3860, "pitch": 58, "duration": 4, "velocity": 88}, {"time": 3863, "pitch": 62, "duration": 3, "velocity": 93}, {"time": 3866, "pitch": 67, "duration": 3, "velocity": 93}, {"time": 3869, "pitch": 62, "duration": 3, "velocity": 95}, {"time": 3872, "pitch": 58, "duration": 6, "velocity": 91}, {"time": 3875, "pitch": 62, "duration": 3, "velocity": 98}, {"time": 3878, "pitch": 67, "duration": 3, "velocity": 96}, {"time": 3881, "pitch": 62, "duration": 3, "velocity": 95}, {"time": 3884, "pitch": 58, "duration": 2, "velocity": 91}, {"time": 3890, "pitch": 41, "duration": 17, "velocity": 95}, {"time": 3893, "pitch": 48, "duration": 13, "velocity": 85}, {"time": 3896, "pitch": 53, "duration": 5, "velocity": 87}, {"time": 3899, "pitch": 60, "duration": 3, "velocity": 85}, {"time": 3902, "pitch": 65, "duration": 4, "velocity": 93}, {"time": 3905, "pitch": 60, "duration": 4, "velocity": 89}, {"time": 3908, "pitch": 53, "duration": 3, "velocity": 94}, {"time": 3911, "pitch": 60, "duration": 2, "velocity": 91}, {"time": 3914, "pitch": 46, "duration": 9, "velocity": 93}, {"time": 3917, "pitch": 53, "duration": 7, "velocity": 86}, {"time": 3920, "pitch": 58, "duration": 4, "velocity": 91}, {"time": 3923, "pitch": 62, "duration": 3, "velocity": 91}, {"time": 3926, "pitch": 48, "duration": 36, "velocity": 94}, {"time": 3932, "pitch": 63, "duration": 2, "velocity": 86}, {"time": 3935, "pitch": 60, "duration": 2, "velocity": 93}, {"time": 3938, "pitch": 67, "duration": 5, "velocity": 93}, {"time": 3941, "pitch": 60, "duration": 4, "velocity": 92}, {"time": 3944, "pitch": 63, "duration": 4, "velocity": 90}, {"time": 3947, "pitch": 67, "duration": 3, "velocity": 91}, {"time": 3950, "pitch": 72, "duration": 4, "velocity": 93}, {"time": 3953, "pitch": 67, "duration": 4, "velocity": 90}, {"time": 3956, "pitch": 63, "duration": 4, "velocity": 87}, {"time": 3959, "pitch": 60, "duration": 3, "velocity": 96}, {"time": 3962, "pitch": 48, "duration": 1, "velocity": 86}, {"time": 3962, "pitch": 60, "duration": 1, "velocity": 78}, {"time": 3962, "pitch": 63, "duration": 11, "velocity": 80}, {"time": 3968, "pitch": 55, "duration": 9, "velocity": 75}, {"time": 3974, "pitch": 67, "duration": 5, "velocity": 90}, {"time": 3980, "pitch": 55, "duration": 6, "velocity": 70}, {"time": 3986, "pitch": 63, "duration": 6, "velocity": 84}, {"time": 3986, "pitch": 67, "duration": 2, "velocity": 76}, {"time": 3986, "pitch": 72, "duration": 5, "velocity": 85}, {"time": 3992, "pitch": 60, "duration": 1, "velocity": 92}, {"time": 3998, "pitch": 44, "duration": 31, "velocity": 85}, {"time": 3998, "pitch": 56, "duration": 12, "velocity": 81}, {"time": 3998, "pitch": 60, "duration": 12, "velocity": 80}, {"time": 4004, "pitch": 51, "duration": 21, "velocity": 72}, {"time": 4010, "pitch": 63, "duration": 7, "velocity": 81}, {"time": 4016, "pitch": 56, "duration": 4, "velocity": 74}, {"time": 4022, "pitch": 56, "duration": 4, "velocity": 82}, {"time": 4022, "pitch": 60, "duration": 5, "velocity": 85}, {"time": 4022, "pitch": 68, "duration": 8, "velocity": 80}, {"time": 4028, "pitch": 51, "duration": 2, "velocity": 87}, {"time": 4034, "pitch": 46, "duration": 31, "velocity": 86}, {"time": 4034, "pitch": 58, "duration": 12, "velocity": 77}, {"time": 4034, "pitch": 62, "duration": 12, "velocity": 77}, {"time": 4040, "pitch": 53, "duration": 26, "velocity": 77}, {"time": 4046, "pitch": 65, "duration": 6, "velocity": 86}, {"time": 4052, "pitch": 58, "duration": 4, "velocity": 86}, {"time": 4058, "pitch": 58, "duration": 4, "velocity": 86}, {"time": 4058, "pitch": 62, "duration": 5, "velocity": 85}, {"time": 4064, "pitch": 63, "duration": 4, "velocity": 84}, {"time": 4070, "pitch": 48, "duration": 28, "velocity": 87}, {"time": 4070, "pitch": 60, "duration": 10, "velocity": 79}, {"time": 4070, "pitch": 63, "duration": 10, "velocity": 87}, {"time": 4076, "pitch": 55, "duration": 21, "velocity": 59}, {"time": 4082, "pitch": 67, "duration": 9, "velocity": 87}, {"time": 4088, "pitch": 60, "duration": 4, "velocity": 81}, {"time": 4094, "pitch": 60, "duration": 3, "velocity": 70}, {"time": 4094, "pitch": 63, "duration": 2, "velocity": 75}, {"time": 4106, "pitch": 48, "duration": 27, "velocity": 87}, {"time": 4106, "pitch": 60, "duration": 9, "velocity": 84}, {"time": 4106, "pitch": 67, "duration": 13, "velocity": 83}, {"time": 4112, "pitch": 55, "duration": 8, "velocity": 79}, {"time": 4118, "pitch": 60, "duration": 7, "velocity": 88}, {"time": 4124, "pitch": 55, "duration": 7, "velocity": 85}, {"time": 4130, "pitch": 60, "duration": 2, "velocity": 81}, {"time": 4130, "pitch": 63, "duration": 6, "velocity": 85}, {"time": 4142, "pitch": 44, "duration": 31, "velocity": 84}, {"time": 4142, "pitch": 56, "duration": 11, "velocity": 81}, {"time": 4142, "pitch": 63, "duration": 12, "velocity": 81}, {"time": 4148, "pitch": 51, "duration": 12, "velocity": 75}, {"time": 4154, "pitch": 60, "duration": 6, "velocity": 81}, {"time": 4160, "pitch": 56, "duration": 9, "velocity": 88}, {"time": 4166, "pitch": 51, "duration": 9, "velocity": 81}, {"time": 4172, "pitch": 56, "duration": 2, "velocity": 86}, {"time": 4178, "pitch": 46, "duration": 27, "velocity": 85}, {"time": 4178, "pitch": 58, "duration": 10, "velocity": 80}, {"time": 4178, "pitch": 62, "duration": 6, "velocity": 78}, {"time": 4184, "pitch": 53, "duration": 22, "velocity": 81}, {"time": 4190, "pitch": 65, "duration": 5, "velocity": 87}, {"time": 4196, "pitch": 58, "duration": 3, "velocity": 85}, {"time": 4202, "pitch": 62, "duration": 5, "velocity": 84}, {"time": 4214, "pitch": 48, "duration": 32, "velocity": 79}, {"time": 4214, "pitch": 60, "duration": 10, "velocity": 78}, {"time": 4214, "pitch": 63, "duration": 13, "velocity": 82}, {"time": 4220, "pitch": 55, "duration": 25, "velocity": 72}, {"time": 4226, "pitch": 67, "duration": 8, "velocity": 85}, {"time": 4232, "pitch": 60, "duration": 2, "velocity": 65}, {"time": 4238, "pitch": 63, "duration": 3, "velocity": 79}, {"time": 4238, "pitch": 67, "duration": 4, "velocity": 83}, {"time": 4250, "pitch": 48, "duration": 26, "velocity": 85}, {"time": 4250, "pitch": 60, "duration": 9, "velocity": 84}, {"time": 4250, "pitch": 67, "duration": 10, "velocity": 84}, {"time": 4256, "pitch": 55, "duration": 8, "velocity": 73}, {"time": 4262, "pitch": 60, "duration": 11, "velocity": 86}, {"time": 4262, "pitch": 63, "duration": 12, "velocity": 86}, {"time": 4268, "pitch": 55, "duration": 6, "velocity": 79}, {"time": 4274, "pitch": 67, "duration": 5, "velocity": 92}, {"time": 4274, "pitch": 72, "duration": 5, "velocity": 96}, {"time": 4280, "pitch": 60, "duration": 2, "velocity": 86}, {"time": 4280, "pitch": 74, "duration": 5, "velocity": 91}, {"time": 4285, "pitch": 67, "duration": 9, "velocity": 81}, {"time": 4285, "pitch": 60, "duration": 7, "velocity": 76}, {"time": 4285, "pitch": 48, "duration": 35, "velocity": 86}, {"time": 4291, "pitch": 55, "duration": 29, "velocity": 70}, {"time": 4297, "pitch": 60, "duration": 6, "velocity": 73}, {"time": 4303, "pitch": 62, "duration": 8, "velocity": 71}, {"time": 4310, "pitch": 63, "duration": 11, "velocity": 68}, {"time": 4317, "pitch": 67, "duration": 9, "velocity": 75}, {"time": 4332, "pitch": 48, "duration": 55, "velocity": 71}, {"time": 4335, "pitch": 55, "duration": 51, "velocity": 70}, {"time": 4337, "pitch": 60, "duration": 9, "velocity": 69}, {"time": 4340, "pitch": 63, "duration": 7, "velocity": 77}, {"time": 4344, "pitch": 67, "duration": 18, "velocity": 79}, {"time": 4348, "pitch": 72, "duration": 16, "velocity": 65}, {"time": 4373, "pitch": 72, "duration": 2, "velocity": 58}, {"time": 4374, "pitch": 75, "duration": 2, "velocity": 58}, {"time": 4375, "pitch": 84, "duration": 3, "velocity": 74}], "annotations": [{"time": 219, "annotation": {"number": 64, "value": 127}, "group": "control_change"}, {"time": 254, "annotation": {"number": 64, "value": 0}, "group": "control_change"}, {"time": 260, "annotation": {"number": 64, "value": 127}, "group": "control_change"}, {"time": 289, "annotation": {"number": 64, "value": 0}, "group": "control_change"}, {"time": 295, "annotation": {"number": 64, "value": 127}, "group": "control_change"}, {"time": 325, "annotation": {"number": 64, "value": 0}, "group": "control_change"}, {"time": 327, "annotation": {"number": 64, "value": 127}, "group": "control_change"}, {"time": 362, "annotation": {"number": 64, "value": 0}, "group": "control_change"}, {"time": 368, "annotation": {"number": 64, "value": 127}, "group": "control_change"}, {"time": 398, "annotation": {"number": 64, "value": 0}, "group": "control_change"}, {"time": 404, "annotation": {"number": 64, "value": 127}, "group": "control_change"}, {"time": 433, "annotation": {"number": 64, "value": 0}, "group": "control_change"}, {"time": 439, "annotation": {"number": 64, "value": 127}, "group": "control_change"}, {"time": 468, "annotation": {"number": 64, "value": 0}, "group": "control_change"}, {"time": 475, "annotation": {"number": 64, "value": 127}, "group": "control_change"}, {"time": 508, "annotation": {"number": 64, "value": 127}, "group": "control_change"}, {"time": 541, "annotation": {"number": 64, "value": 0}, "group": "control_change"}, {"time": 547, "annotation": {"number": 64, "value": 127}, "group": "control_change"}, {"time": 577, "annotation": {"number": 64, "value": 0}, "group": "control_change"}, {"time": 581, "annotation": {"number": 64, "value": 127}, "group": "control_change"}, {"time": 612, "annotation": {"number": 64, "value": 0}, "group": "control_change"}, {"time": 616, "annotation": {"number": 64, "value": 127}, "group": "control_change"}, {"time": 649, "annotation": {"number": 64, "value": 0}, "group": "control_change"}, {"time": 655, "annotation": {"number": 64, "value": 127}, "group": "control_change"}, {"time": 683, "annotation": {"number": 64, "value": 0}, "group": "control_change"}, {"time": 689, "annotation": {"number": 64, "value": 127}, "group": "control_change"}, {"time": 724, "annotation": {"number": 64, "value": 0}, "group": "control_change"}, {"time": 726, "annotation": {"number": 64, "value": 127}, "group": "control_change"}, {"time": 758, "annotation": {"number": 64, "value": 0}, "group": "control_change"}, {"time": 764, "annotation": {"number": 64, "value": 127}, "group": "control_change"}, {"time": 793, "annotation": {"number": 64, "value": 0}, "group": "control_change"}, {"time": 797, "annotation": {"number": 64, "value": 127}, "group": "control_change"}, {"time": 828, "annotation": {"number": 64, "value": 0}, "group": "control_change"}, {"time": 831, "annotation": {"number": 64, "value": 127}, "group": "control_change"}, {"time": 864, "annotation": {"number": 64, "value": 0}, "group": "control_change"}, {"time": 870, "annotation": {"number": 64, "value": 127}, "group": "control_change"}, {"time": 902, "annotation": {"number": 64, "value": 0}, "group": "control_change"}, {"time": 905, "annotation": {"number": 64, "value": 127}, "group": "control_change"}, {"time": 925, "annotation": {"number": 64, "value": 0}, "group": "control_change"}, {"time": 931, "annotation": {"number": 64, "value": 127}, "group": "control_change"}, {"time": 938, "annotation": {"number": 64, "value": 0}, "group": "control_change"}, {"time": 943, "annotation": {"number": 64, "value": 127}, "group": "control_change"}, {"time": 973, "annotation": {"number": 64, "value": 0}, "group": "control_change"}, {"time": 976, "annotation": {"number": 64, "value": 127}, "group": "control_change"}, {"time": 1007, "annotation": {"number": 64, "value": 0}, "group": "control_change"}, {"time": 1016, "annotation": {"number": 64, "value": 127}, "group": "control_change"}, {"time": 1046, "annotation": {"number": 64, "value": 0}, "group": "control_change"}, {"time": 1051, "annotation": {"number": 64, "value": 127}, "group": "control_change"}, {"time": 1081, "annotation": {"number": 64, "value": 0}, "group": "control_change"}, {"time": 1083, "annotation": {"number": 64, "value": 127}, "group": "control_change"}, {"time": 1117, "annotation": {"number": 64, "value": 0}, "group": "control_change"}, {"time": 1119, "annotation": {"number": 64, "value": 127}, "group": "control_change"}, {"time": 1152, "annotation": {"number": 64, "value": 0}, "group": "control_change"}, {"time": 1159, "annotation": {"number": 64, "value": 127}, "group": "control_change"}, {"time": 1189, "annotation": {"number": 64, "value": 0}, "group": "control_change"}, {"time": 1194, "annotation": {"number": 64, "value": 127}, "group": "control_change"}, {"time": 1226, "annotation": {"number": 64, "value": 0}, "group": "control_change"}, {"time": 1228, "annotation": {"number": 64, "value": 127}, "group": "control_change"}, {"time": 1249, "annotation": {"number": 64, "value": 0}, "group": "control_change"}, {"time": 1251, "annotation": {"number": 64, "value": 127}, "group": "control_change"}, {"time": 1262, "annotation": {"number": 64, "value": 0}, "group": "control_change"}, {"time": 1264, "annotation": {"number": 64, "value": 127}, "group": "control_change"}, {"time": 1296, "annotation": {"number": 64, "value": 0}, "group": "control_change"}, {"time": 1298, "annotation": {"number": 64, "value": 127}, "group": "control_change"}, {"time": 1332, "annotation": {"number": 64, "value": 0}, "group": "control_change"}, {"time": 1334, "annotation": {"number": 64, "value": 127}, "group": "control_change"}, {"time": 1368, "annotation": {"number": 64, "value": 0}, "group": "control_change"}, {"time": 1371, "annotation": {"number": 64, "value": 127}, "group": "control_change"}, {"time": 1405, "annotation": {"number": 64, "value": 0}, "group": "control_change"}, {"time": 1406, "annotation": {"number": 64, "value": 127}, "group": "control_change"}, {"time": 1428, "annotation": {"number": 64, "value": 0}, "group": "control_change"}, {"time": 1433, "annotation": {"number": 64, "value": 127}, "group": "control_change"}, {"time": 1440, "annotation": {"number": 64, "value": 0}, "group": "control_change"}, {"time": 1451, "annotation": {"number": 64, "value": 127}, "group": "control_change"}, {"time": 1479, "annotation": {"number": 64, "value": 0}, "group": "control_change"}, {"time": 1482, "annotation": {"number": 64, "value": 127}, "group": "control_change"}, {"time": 1512, "annotation": {"number": 64, "value": 0}, "group": "control_change"}, {"time": 1515, "annotation": {"number": 64, "value": 127}, "group": "control_change"}, {"time": 1548, "annotation": {"number": 64, "value": 0}, "group": "control_change"}, {"time": 1551, "annotation": {"number": 64, "value": 127}, "group": "control_change"}, {"time": 1584, "annotation": {"number": 64, "value": 0}, "group": "control_change"}, {"time": 1586, "annotation": {"number": 64, "value": 127}, "group": "control_change"}, {"time": 1619, "annotation": {"number": 64, "value": 0}, "group": "control_change"}, {"time": 1623, "annotation": {"number": 64, "value": 127}, "group": "control_change"}, {"time": 1657, "annotation": {"number": 64, "value": 0}, "group": "control_change"}, {"time": 1659, "annotation": {"number": 64, "value": 127}, "group": "control_change"}, {"time": 1694, "annotation": {"number": 64, "value": 0}, "group": "control_change"}, {"time": 1695, "annotation": {"number": 64, "value": 127}, "group": "control_change"}, {"time": 1728, "annotation": {"number": 64, "value": 0}, "group": "control_change"}, {"time": 1730, "annotation": {"number": 64, "value": 127}, "group": "control_change"}, {"time": 1764, "annotation": {"number": 64, "value": 0}, "group": "control_change"}, {"time": 1766, "annotation": {"number": 64, "value": 127}, "group": "control_change"}, {"time": 1800, "annotation": {"number": 64, "value": 0}, "group": "control_change"}, {"time": 1802, "annotation": {"number": 64, "value": 127}, "group": "control_change"}, {"time": 1838, "annotation": {"number": 64, "value": 0}, "group": "control_change"}, {"time": 1839, "annotation": {"number": 64, "value": 127}, "group": "control_change"}, {"time": 1871, "annotation": {"number": 64, "value": 0}, "group": "control_change"}, {"time": 1873, "annotation": {"number": 64, "value": 127}, "group": "control_change"}, {"time": 1907, "annotation": {"number": 64, "value": 0}, "group": "control_change"}, {"time": 1911, "annotation": {"number": 64, "value": 127}, "group": "control_change"}, {"time": 1945, "annotation": {"number": 64, "value": 0}, "group": "control_change"}, {"time": 1947, "annotation": {"number": 64, "value": 127}, "group": "control_change"}, {"time": 1982, "annotation": {"number": 64, "value": 0}, "group": "control_change"}, {"time": 1983, "annotation": {"number": 64, "value": 127}, "group": "control_change"}, {"time": 2016, "annotation": {"number": 64, "value": 0}, "group": "control_change"}, {"time": 2018, "annotation": {"number": 64, "value": 127}, "group": "control_change"}, {"time": 2052, "annotation": {"number": 64, "value": 0}, "group": "control_change"}, {"time": 2054, "annotation": {"number": 64, "value": 127}, "group": "control_change"}, {"time": 2088, "annotation": {"number": 64, "value": 0}, "group": "control_change"}, {"time": 2090, "annotation": {"number": 64, "value": 127}, "group": "control_change"}, {"time": 2126, "annotation": {"number": 64, "value": 0}, "group": "control_change"}, {"time": 2126, "annotation": {"number": 64, "value": 127}, "group": "control_change"}, {"time": 2148, "annotation": {"number": 64, "value": 0}, "group": "control_change"}, {"time": 2152, "annotation": {"number": 64, "value": 127}, "group": "control_change"}, {"time": 2152, "annotation": {"number": 64, "value": 0}, "group": "control_change"}, {"time": 2160, "annotation": {"number": 64, "value": 0}, "group": "control_change"}, {"time": 2163, "annotation": {"number": 64, "value": 127}, "group": "control_change"}, {"time": 2195, "annotation": {"number": 64, "value": 0}, "group": "control_change"}, {"time": 2199, "annotation": {"number": 64, "value": 127}, "group": "control_change"}, {"time": 2234, "annotation": {"number": 64, "value": 0}, "group": "control_change"}, {"time": 2240, "annotation": {"number": 64, "value": 127}, "group": "control_change"}, {"time": 2269, "annotation": {"number": 64, "value": 0}, "group": "control_change"}, {"time": 2275, "annotation": {"number": 64, "value": 127}, "group": "control_change"}, {"time": 2305, "annotation": {"number": 64, "value": 0}, "group": "control_change"}, {"time": 2307, "annotation": {"number": 64, "value": 127}, "group": "control_change"}, {"time": 2342, "annotation": {"number": 64, "value": 0}, "group": "control_change"}, {"time": 2348, "annotation": {"number": 64, "value": 127}, "group": "control_change"}, {"time": 2378, "annotation": {"number": 64, "value": 0}, "group": "control_change"}, {"time": 2384, "annotation": {"number": 64, "value": 127}, "group": "control_change"}, {"time": 2413, "annotation": {"number": 64, "value": 0}, "group": "control_change"}, {"time": 2419, "annotation": {"number": 64, "value": 127}, "group": "control_change"}, {"time": 2448, "annotation": {"number": 64, "value": 0}, "group": "control_change"}, {"time": 2455, "annotation": {"number": 64, "value": 127}, "group": "control_change"}, {"time": 2488, "annotation": {"number": 64, "value": 127}, "group": "control_change"}, {"time": 2521, "annotation": {"number": 64, "value": 0}, "group": "control_change"}, {"time": 2522, "annotation": {"number": 64, "value": 127}, "group": "control_change"}, {"time": 2556, "annotation": {"number": 64, "value": 0}, "group": "control_change"}, {"time": 2559, "annotation": {"number": 64, "value": 127}, "group": "control_change"}, {"time": 2593, "annotation": {"number": 64, "value": 0}, "group": "control_change"}, {"time": 2594, "annotation": {"number": 64, "value": 127}, "group": "control_change"}, {"time": 2616, "annotation": {"number": 64, "value": 0}, "group": "control_change"}, {"time": 2621, "annotation": {"number": 64, "value": 127}, "group": "control_change"}, {"time": 2628, "annotation": {"number": 64, "value": 0}, "group": "control_change"}, {"time": 2639, "annotation": {"number": 64, "value": 127}, "group": "control_change"}, {"time": 2667, "annotation": {"number": 64, "value": 0}, "group": "control_change"}, {"time": 2670, "annotation": {"number": 64, "value": 127}, "group": "control_change"}, {"time": 2700, "annotation": {"number": 64, "value": 0}, "group": "control_change"}, {"time": 2703, "annotation": {"number": 64, "value": 127}, "group": "control_change"}, {"time": 2736, "annotation": {"number": 64, "value": 0}, "group": "control_change"}, {"time": 2739, "annotation": {"number": 64, "value": 127}, "group": "control_change"}, {"time": 2772, "annotation": {"number": 64, "value": 0}, "group": "control_change"}, {"time": 2774, "annotation": {"number": 64, "value": 127}, "group": "control_change"}, {"time": 2807, "annotation": {"number": 64, "value": 0}, "group": "control_change"}, {"time": 2811, "annotation": {"number": 64, "value": 127}, "group": "control_change"}, {"time": 2845, "annotation": {"number": 64, "value": 0}, "group": "control_change"}, {"time": 2847, "annotation": {"number": 64, "value": 127}, "group": "control_change"}, {"time": 2882, "annotation": {"number": 64, "value": 0}, "group": "control_change"}, {"time": 2883, "annotation": {"number": 64, "value": 127}, "group": "control_change"}, {"time": 2916, "annotation": {"number": 64, "value": 0}, "group": "control_change"}, {"time": 2918, "annotation": {"number": 64, "value": 127}, "group": "control_change"}, {"time": 2952, "annotation": {"number": 64, "value": 0}, "group": "control_change"}, {"time": 2954, "annotation": {"number": 64, "value": 127}, "group": "control_change"}, {"time": 2988, "annotation": {"number": 64, "value": 0}, "group": "control_change"}, {"time": 2990, "annotation": {"number": 64, "value": 127}, "group": "control_change"}, {"time": 3026, "annotation": {"number": 64, "value": 0}, "group": "control_change"}, {"time": 3027, "annotation": {"number": 64, "value": 127}, "group": "control_change"}, {"time": 3059, "annotation": {"number": 64, "value": 0}, "group": "control_change"}, {"time": 3061, "annotation": {"number": 64, "value": 127}, "group": "control_change"}, {"time": 3095, "annotation": {"number": 64, "value": 0}, "group": "control_change"}, {"time": 3099, "annotation": {"number": 64, "value": 127}, "group": "control_change"}, {"time": 3133, "annotation": {"number": 64, "value": 0}, "group": "control_change"}, {"time": 3135, "annotation": {"number": 64, "value": 127}, "group": "control_change"}, {"time": 3170, "annotation": {"number": 64, "value": 0}, "group": "control_change"}, {"time": 3171, "annotation": {"number": 64, "value": 127}, "group": "control_change"}, {"time": 3204, "annotation": {"number": 64, "value": 0}, "group": "control_change"}, {"time": 3206, "annotation": {"number": 64, "value": 127}, "group": "control_change"}, {"time": 3240, "annotation": {"number": 64, "value": 0}, "group": "control_change"}, {"time": 3242, "annotation": {"number": 64, "value": 127}, "group": "control_change"}, {"time": 3276, "annotation": {"number": 64, "value": 0}, "group": "control_change"}, {"time": 3278, "annotation": {"number": 64, "value": 127}, "group": "control_change"}, {"time": 3314, "annotation": {"number": 64, "value": 0}, "group": "control_change"}, {"time": 3314, "annotation": {"number": 64, "value": 127}, "group": "control_change"}, {"time": 3336, "annotation": {"number": 64, "value": 0}, "group": "control_change"}, {"time": 3340, "annotation": {"number": 64, "value": 127}, "group": "control_change"}, {"time": 3340, "annotation": {"number": 64, "value": 0}, "group": "control_change"}, {"time": 3348, "annotation": {"number": 64, "value": 0}, "group": "control_change"}, {"time": 3351, "annotation": {"number": 64, "value": 127}, "group": "control_change"}, {"time": 3375, "annotation": {"number": 64, "value": 127}, "group": "control_change"}, {"time": 3383, "annotation": {"number": 64, "value": 0}, "group": "control_change"}, {"time": 3387, "annotation": {"number": 64, "value": 127}, "group": "control_change"}, {"time": 3421, "annotation": {"number": 64, "value": 0}, "group": "control_change"}, {"time": 3423, "annotation": {"number": 64, "value": 127}, "group": "control_change"}, {"time": 3458, "annotation": {"number": 64, "value": 0}, "group": "control_change"}, {"time": 3459, "annotation": {"number": 64, "value": 127}, "group": "control_change"}, {"time": 3492, "annotation": {"number": 64, "value": 0}, "group": "control_change"}, {"time": 3494, "annotation": {"number": 64, "value": 127}, "group": "control_change"}, {"time": 3528, "annotation": {"number": 64, "value": 0}, "group": "control_change"}, {"time": 3530, "annotation": {"number": 64, "value": 127}, "group": "control_change"}, {"time": 3564, "annotation": {"number": 64, "value": 0}, "group": "control_change"}, {"time": 3566, "annotation": {"number": 64, "value": 127}, "group": "control_change"}, {"time": 3602, "annotation": {"number": 64, "value": 0}, "group": "control_change"}, {"time": 3603, "annotation": {"number": 64, "value": 127}, "group": "control_change"}, {"time": 3635, "annotation": {"number": 64, "value": 0}, "group": "control_change"}, {"time": 3637, "annotation": {"number": 64, "value": 127}, "group": "control_change"}, {"time": 3671, "annotation": {"number": 64, "value": 0}, "group": "control_change"}, {"time": 3675, "annotation": {"number": 64, "value": 127}, "group": "control_change"}, {"time": 3709, "annotation": {"number": 64, "value": 0}, "group": "control_change"}, {"time": 3711, "annotation": {"number": 64, "value": 127}, "group": "control_change"}, {"time": 3746, "annotation": {"number": 64, "value": 0}, "group": "control_change"}, {"time": 3747, "annotation": {"number": 64, "value": 127}, "group": "control_change"}, {"time": 3780, "annotation": {"number": 64, "value": 0}, "group": "control_change"}, {"time": 3782, "annotation": {"number": 64, "value": 127}, "group": "control_change"}, {"time": 3816, "annotation": {"number": 64, "value": 0}, "group": "control_change"}, {"time": 3818, "annotation": {"number": 64, "value": 127}, "group": "control_change"}, {"time": 3852, "annotation": {"number": 64, "value": 0}, "group": "control_change"}, {"time": 3854, "annotation": {"number": 64, "value": 127}, "group": "control_change"}, {"time": 3890, "annotation": {"number": 64, "value": 0}, "group": "control_change"}, {"time": 3890, "annotation": {"number": 64, "value": 127}, "group": "control_change"}, {"time": 3912, "annotation": {"number": 64, "value": 0}, "group": "control_change"}, {"time": 3916, "annotation": {"number": 64, "value": 127}, "group": "control_change"}, {"time": 3916, "annotation": {"number": 64, "value": 0}, "group": "control_change"}, {"time": 3924, "annotation": {"number": 64, "value": 0}, "group": "control_change"}, {"time": 3927, "annotation": {"number": 64, "value": 127}, "group": "control_change"}, {"time": 3959, "annotation": {"number": 64, "value": 0}, "group": "control_change"}, {"time": 3963, "annotation": {"number": 64, "value": 127}, "group": "control_change"}, {"time": 3998, "annotation": {"number": 64, "value": 0}, "group": "control_change"}, {"time": 4004, "annotation": {"number": 64, "value": 127}, "group": "control_change"}, {"time": 4033, "annotation": {"number": 64, "value": 0}, "group": "control_change"}, {"time": 4039, "annotation": {"number": 64, "value": 127}, "group": "control_change"}, {"time": 4069, "annotation": {"number": 64, "value": 0}, "group": "control_change"}, {"time": 4071, "annotation": {"number": 64, "value": 127}, "group": "control_change"}, {"time": 4106, "annotation": {"number": 64, "value": 0}, "group": "control_change"}, {"time": 4112, "annotation": {"number": 64, "value": 127}, "group": "control_change"}, {"time": 4142, "annotation": {"number": 64, "value": 0}, "group": "control_change"}, {"time": 4148, "annotation": {"number": 64, "value": 127}, "group": "control_change"}, {"time": 4177, "annotation": {"number": 64, "value": 0}, "group": "control_change"}, {"time": 4183, "annotation": {"number": 64, "value": 127}, "group": "control_change"}, {"time": 4212, "annotation": {"number": 64, "value": 0}, "group": "control_change"}, {"time": 4219, "annotation": {"number": 64, "value": 127}, "group": "control_change"}, {"time": 4252, "annotation": {"number": 64, "value": 127}, "group": "control_change"}, {"time": 4285, "annotation": {"number": 64, "value": 0}, "group": "control_change"}, {"time": 4287, "annotation": {"number": 64, "value": 127}, "group": "control_change"}, {"time": 4432, "annotation": {"number": 64, "value": 0}, "group": "control_change"}]}]}