{"metadata": {"schema_version": "0.2", "title": "None", "source_filename": "655.mid", "source_format": "midi"}, "resolution": 12, "tempos": [{"time": 0, "qpm": 100.0}, {"time": 963, "qpm": 99.50001243750155}, {"time": 1141, "qpm": 100.0}, {"time": 1235, "qpm": 100.25012405952852}, {"time": 1619, "qpm": 100.0}], "time_signatures": [{"time": 0, "numerator": 1, "denominator": 4}], "tracks": [{"program": 4, "is_drum": false, "name": "MELODY", "notes": [{"time": 270, "pitch": 68, "duration": 7, "velocity": 90}, {"time": 282, "pitch": 68, "duration": 9, "velocity": 92}, {"time": 294, "pitch": 61, "duration": 14, "velocity": 83}, {"time": 318, "pitch": 64, "duration": 9, "velocity": 83}, {"time": 330, "pitch": 61, "duration": 5, "velocity": 83}, {"time": 336, "pitch": 59, "duration": 4, "velocity": 85}, {"time": 342, "pitch": 61, "duration": 18, "velocity": 85}, {"time": 366, "pitch": 61, "duration": 4, "velocity": 86}, {"time": 372, "pitch": 64, "duration": 4, "velocity": 88}, {"time": 378, "pitch": 64, "duration": 3, "velocity": 85}, {"time": 384, "pitch": 64, "duration": 3, "velocity": 85}, {"time": 390, "pitch": 64, "duration": 8, "velocity": 95}, {"time": 402, "pitch": 64, "duration": 4, "velocity": 88}, {"time": 408, "pitch": 61, "duration": 4, "velocity": 85}, {"time": 414, "pitch": 64, "duration": 9, "velocity": 92}, {"time": 426, "pitch": 68, "duration": 9, "velocity": 83}, {"time": 438, "pitch": 68, "duration": 18, "velocity": 87}, {"time": 462, "pitch": 68, "duration": 9, "velocity": 85}, {"time": 474, "pitch": 71, "duration": 8, "velocity": 92}, {"time": 486, "pitch": 61, "duration": 9, "velocity": 92}, {"time": 498, "pitch": 64, "duration": 10, "velocity": 88}, {"time": 510, "pitch": 61, "duration": 10, "velocity": 88}, {"time": 522, "pitch": 61, "duration": 5, "velocity": 85}, {"time": 528, "pitch": 59, "duration": 4, "velocity": 85}, {"time": 534, "pitch": 56, "duration": 13, "velocity": 87}, {"time": 558, "pitch": 66, "duration": 3, "velocity": 75}, {"time": 564, "pitch": 66, "duration": 3, "velocity": 82}, {"time": 570, "pitch": 66, "duration": 3, "velocity": 82}, {"time": 576, "pitch": 68, "duration": 3, "velocity": 83}, {"time": 582, "pitch": 59, "duration": 9, "velocity": 90}, {"time": 594, "pitch": 63, "duration": 10, "velocity": 86}, {"time": 606, "pitch": 61, "duration": 44, "velocity": 83}, {"time": 654, "pitch": 73, "duration": 3, "velocity": 92}, {"time": 660, "pitch": 73, "duration": 3, "velocity": 90}, {"time": 666, "pitch": 73, "duration": 3, "velocity": 88}, {"time": 672, "pitch": 73, "duration": 5, "velocity": 92}, {"time": 678, "pitch": 68, "duration": 9, "velocity": 92}, {"time": 690, "pitch": 71, "duration": 4, "velocity": 83}, {"time": 696, "pitch": 71, "duration": 9, "velocity": 88}, {"time": 708, "pitch": 71, "duration": 3, "velocity": 83}, {"time": 714, "pitch": 71, "duration": 4, "velocity": 86}, {"time": 720, "pitch": 68, "duration": 4, "velocity": 88}, {"time": 726, "pitch": 73, "duration": 4, "velocity": 95}, {"time": 732, "pitch": 71, "duration": 14, "velocity": 88}, {"time": 750, "pitch": 69, "duration": 3, "velocity": 85}, {"time": 756, "pitch": 69, "duration": 3, "velocity": 84}, {"time": 762, "pitch": 69, "duration": 3, "velocity": 86}, {"time": 768, "pitch": 69, "duration": 3, "velocity": 85}, {"time": 774, "pitch": 69, "duration": 8, "velocity": 87}, {"time": 786, "pitch": 61, "duration": 4, "velocity": 84}, {"time": 792, "pitch": 64, "duration": 9, "velocity": 87}, {"time": 804, "pitch": 64, "duration": 3, "velocity": 81}, {"time": 810, "pitch": 66, "duration": 3, "velocity": 82}, {"time": 816, "pitch": 64, "duration": 3, "velocity": 83}, {"time": 822, "pitch": 66, "duration": 3, "velocity": 82}, {"time": 828, "pitch": 68, "duration": 13, "velocity": 88}, {"time": 846, "pitch": 73, "duration": 3, "velocity": 92}, {"time": 852, "pitch": 73, "duration": 3, "velocity": 90}, {"time": 858, "pitch": 73, "duration": 3, "velocity": 88}, {"time": 864, "pitch": 73, "duration": 5, "velocity": 92}, {"time": 870, "pitch": 68, "duration": 9, "velocity": 92}, {"time": 882, "pitch": 71, "duration": 4, "velocity": 83}, {"time": 888, "pitch": 71, "duration": 9, "velocity": 88}, {"time": 900, "pitch": 71, "duration": 3, "velocity": 83}, {"time": 906, "pitch": 71, "duration": 4, "velocity": 86}, {"time": 912, "pitch": 68, "duration": 4, "velocity": 88}, {"time": 918, "pitch": 73, "duration": 4, "velocity": 95}, {"time": 924, "pitch": 71, "duration": 14, "velocity": 88}, {"time": 942, "pitch": 73, "duration": 4, "velocity": 97}, {"time": 948, "pitch": 73, "duration": 3, "velocity": 92}, {"time": 954, "pitch": 73, "duration": 3, "velocity": 90}, {"time": 960, "pitch": 73, "duration": 4, "velocity": 92}, {"time": 966, "pitch": 76, "duration": 9, "velocity": 85}, {"time": 978, "pitch": 73, "duration": 4, "velocity": 85}, {"time": 984, "pitch": 71, "duration": 9, "velocity": 87}, {"time": 996, "pitch": 71, "duration": 3, "velocity": 88}, {"time": 1002, "pitch": 71, "duration": 4, "velocity": 90}, {"time": 1008, "pitch": 71, "duration": 4, "velocity": 88}, {"time": 1014, "pitch": 68, "duration": 4, "velocity": 88}, {"time": 1020, "pitch": 71, "duration": 11, "velocity": 87}, {"time": 1038, "pitch": 66, "duration": 3, "velocity": 82}, {"time": 1044, "pitch": 66, "duration": 4, "velocity": 85}, {"time": 1050, "pitch": 64, "duration": 3, "velocity": 83}, {"time": 1056, "pitch": 66, "duration": 4, "velocity": 82}, {"time": 1062, "pitch": 68, "duration": 4, "velocity": 79}, {"time": 1068, "pitch": 66, "duration": 5, "velocity": 78}, {"time": 1074, "pitch": 64, "duration": 4, "velocity": 85}, {"time": 1080, "pitch": 66, "duration": 1, "velocity": 81}, {"time": 1083, "pitch": 66, "duration": 1, "velocity": 81}, {"time": 1086, "pitch": 68, "duration": 4, "velocity": 87}, {"time": 1092, "pitch": 66, "duration": 4, "velocity": 83}, {"time": 1098, "pitch": 68, "duration": 4, "velocity": 87}, {"time": 1104, "pitch": 71, "duration": 10, "velocity": 84}, {"time": 1134, "pitch": 64, "duration": 4, "velocity": 88}, {"time": 1140, "pitch": 66, "duration": 3, "velocity": 82}, {"time": 1146, "pitch": 68, "duration": 4, "velocity": 85}, {"time": 1152, "pitch": 71, "duration": 3, "velocity": 83}, {"time": 1158, "pitch": 71, "duration": 8, "velocity": 92}, {"time": 1170, "pitch": 63, "duration": 9, "velocity": 88}, {"time": 1182, "pitch": 61, "duration": 36, "velocity": 87}, {"time": 1230, "pitch": 68, "duration": 7, "velocity": 90}, {"time": 1242, "pitch": 68, "duration": 9, "velocity": 92}, {"time": 1254, "pitch": 61, "duration": 14, "velocity": 83}, {"time": 1278, "pitch": 64, "duration": 9, "velocity": 83}, {"time": 1290, "pitch": 61, "duration": 5, "velocity": 83}, {"time": 1296, "pitch": 59, "duration": 4, "velocity": 85}, {"time": 1302, "pitch": 61, "duration": 18, "velocity": 85}, {"time": 1326, "pitch": 61, "duration": 4, "velocity": 86}, {"time": 1332, "pitch": 64, "duration": 4, "velocity": 88}, {"time": 1338, "pitch": 64, "duration": 3, "velocity": 85}, {"time": 1344, "pitch": 64, "duration": 3, "velocity": 85}, {"time": 1350, "pitch": 64, "duration": 8, "velocity": 95}, {"time": 1362, "pitch": 64, "duration": 4, "velocity": 88}, {"time": 1368, "pitch": 61, "duration": 4, "velocity": 85}, {"time": 1374, "pitch": 64, "duration": 9, "velocity": 92}, {"time": 1386, "pitch": 68, "duration": 9, "velocity": 83}, {"time": 1398, "pitch": 68, "duration": 18, "velocity": 87}, {"time": 1422, "pitch": 68, "duration": 9, "velocity": 85}, {"time": 1434, "pitch": 71, "duration": 8, "velocity": 92}, {"time": 1446, "pitch": 61, "duration": 9, "velocity": 92}, {"time": 1458, "pitch": 64, "duration": 10, "velocity": 88}, {"time": 1470, "pitch": 61, "duration": 10, "velocity": 88}, {"time": 1482, "pitch": 61, "duration": 5, "velocity": 85}, {"time": 1488, "pitch": 59, "duration": 4, "velocity": 85}, {"time": 1494, "pitch": 56, "duration": 13, "velocity": 87}, {"time": 1518, "pitch": 66, "duration": 3, "velocity": 75}, {"time": 1524, "pitch": 66, "duration": 3, "velocity": 82}, {"time": 1530, "pitch": 66, "duration": 3, "velocity": 82}, {"time": 1536, "pitch": 68, "duration": 3, "velocity": 83}, {"time": 1542, "pitch": 59, "duration": 9, "velocity": 90}, {"time": 1554, "pitch": 63, "duration": 10, "velocity": 86}, {"time": 1566, "pitch": 61, "duration": 44, "velocity": 83}, {"time": 1614, "pitch": 73, "duration": 3, "velocity": 92}, {"time": 1620, "pitch": 73, "duration": 3, "velocity": 90}, {"time": 1626, "pitch": 73, "duration": 3, "velocity": 88}, {"time": 1632, "pitch": 73, "duration": 5, "velocity": 92}, {"time": 1638, "pitch": 68, "duration": 9, "velocity": 92}, {"time": 1650, "pitch": 71, "duration": 4, "velocity": 83}, {"time": 1656, "pitch": 71, "duration": 9, "velocity": 88}, {"time": 1668, "pitch": 71, "duration": 3, "velocity": 83}, {"time": 1674, "pitch": 71, "duration": 4, "velocity": 86}, {"time": 1680, "pitch": 68, "duration": 4, "velocity": 88}, {"time": 1686, "pitch": 73, "duration": 4, "velocity": 95}, {"time": 1692, "pitch": 71, "duration": 14, "velocity": 88}, {"time": 1710, "pitch": 69, "duration": 3, "velocity": 85}, {"time": 1716, "pitch": 69, "duration": 3, "velocity": 84}, {"time": 1722, "pitch": 69, "duration": 3, "velocity": 86}, {"time": 1728, "pitch": 69, "duration": 3, "velocity": 85}, {"time": 1734, "pitch": 69, "duration": 8, "velocity": 87}, {"time": 1746, "pitch": 61, "duration": 4, "velocity": 84}, {"time": 1752, "pitch": 64, "duration": 9, "velocity": 87}, {"time": 1764, "pitch": 64, "duration": 3, "velocity": 81}, {"time": 1770, "pitch": 66, "duration": 3, "velocity": 82}, {"time": 1776, "pitch": 64, "duration": 3, "velocity": 83}, {"time": 1782, "pitch": 66, "duration": 3, "velocity": 82}, {"time": 1788, "pitch": 68, "duration": 13, "velocity": 88}, {"time": 1806, "pitch": 73, "duration": 3, "velocity": 92}, {"time": 1812, "pitch": 73, "duration": 3, "velocity": 90}, {"time": 1818, "pitch": 73, "duration": 3, "velocity": 88}, {"time": 1824, "pitch": 73, "duration": 5, "velocity": 92}, {"time": 1830, "pitch": 68, "duration": 9, "velocity": 92}, {"time": 1842, "pitch": 71, "duration": 4, "velocity": 83}, {"time": 1848, "pitch": 71, "duration": 9, "velocity": 88}, {"time": 1860, "pitch": 71, "duration": 3, "velocity": 83}, {"time": 1866, "pitch": 71, "duration": 4, "velocity": 86}, {"time": 1872, "pitch": 68, "duration": 4, "velocity": 88}, {"time": 1878, "pitch": 73, "duration": 4, "velocity": 95}, {"time": 1884, "pitch": 71, "duration": 14, "velocity": 88}, {"time": 1902, "pitch": 73, "duration": 4, "velocity": 97}, {"time": 1908, "pitch": 73, "duration": 3, "velocity": 92}, {"time": 1914, "pitch": 73, "duration": 3, "velocity": 90}, {"time": 1920, "pitch": 73, "duration": 4, "velocity": 92}, {"time": 1926, "pitch": 76, "duration": 9, "velocity": 85}, {"time": 1938, "pitch": 73, "duration": 4, "velocity": 85}, {"time": 1944, "pitch": 71, "duration": 9, "velocity": 87}, {"time": 1956, "pitch": 71, "duration": 3, "velocity": 88}, {"time": 1962, "pitch": 71, "duration": 4, "velocity": 90}, {"time": 1968, "pitch": 71, "duration": 4, "velocity": 88}, {"time": 1974, "pitch": 68, "duration": 4, "velocity": 88}, {"time": 1980, "pitch": 71, "duration": 11, "velocity": 87}, {"time": 1998, "pitch": 66, "duration": 3, "velocity": 82}, {"time": 2004, "pitch": 66, "duration": 4, "velocity": 85}, {"time": 2010, "pitch": 64, "duration": 3, "velocity": 83}, {"time": 2016, "pitch": 66, "duration": 4, "velocity": 82}, {"time": 2022, "pitch": 68, "duration": 4, "velocity": 79}, {"time": 2028, "pitch": 66, "duration": 5, "velocity": 78}, {"time": 2034, "pitch": 64, "duration": 4, "velocity": 85}, {"time": 2040, "pitch": 66, "duration": 1, "velocity": 81}, {"time": 2043, "pitch": 66, "duration": 1, "velocity": 81}, {"time": 2046, "pitch": 68, "duration": 4, "velocity": 87}, {"time": 2052, "pitch": 66, "duration": 4, "velocity": 83}, {"time": 2058, "pitch": 68, "duration": 4, "velocity": 87}, {"time": 2064, "pitch": 71, "duration": 10, "velocity": 84}, {"time": 2094, "pitch": 64, "duration": 4, "velocity": 88}, {"time": 2100, "pitch": 66, "duration": 3, "velocity": 82}, {"time": 2106, "pitch": 68, "duration": 4, "velocity": 85}, {"time": 2112, "pitch": 71, "duration": 3, "velocity": 83}, {"time": 2118, "pitch": 71, "duration": 8, "velocity": 92}, {"time": 2130, "pitch": 68, "duration": 6, "velocity": 88}, {"time": 2136, "pitch": 73, "duration": 36, "velocity": 87}]}, {"program": 0, "is_drum": false, "name": "PIANO", "notes": [{"time": 30, "pitch": 37, "duration": 6, "velocity": 87}, {"time": 30, "pitch": 56, "duration": 5, "velocity": 73}, {"time": 30, "pitch": 61, "duration": 5, "velocity": 77}, {"time": 30, "pitch": 64, "duration": 5, "velocity": 79}, {"time": 42, "pitch": 37, "duration": 4, "velocity": 85}, {"time": 42, "pitch": 56, "duration": 4, "velocity": 73}, {"time": 42, "pitch": 61, "duration": 3, "velocity": 78}, {"time": 42, "pitch": 64, "duration": 4, "velocity": 81}, {"time": 54, "pitch": 37, "duration": 3, "velocity": 85}, {"time": 54, "pitch": 56, "duration": 3, "velocity": 73}, {"time": 54, "pitch": 61, "duration": 3, "velocity": 75}, {"time": 54, "pitch": 64, "duration": 4, "velocity": 74}, {"time": 66, "pitch": 37, "duration": 4, "velocity": 85}, {"time": 66, "pitch": 56, "duration": 5, "velocity": 76}, {"time": 66, "pitch": 61, "duration": 4, "velocity": 78}, {"time": 66, "pitch": 64, "duration": 5, "velocity": 77}, {"time": 78, "pitch": 44, "duration": 5, "velocity": 82}, {"time": 78, "pitch": 56, "duration": 6, "velocity": 72}, {"time": 78, "pitch": 63, "duration": 5, "velocity": 83}, {"time": 90, "pitch": 44, "duration": 4, "velocity": 81}, {"time": 90, "pitch": 56, "duration": 4, "velocity": 75}, {"time": 90, "pitch": 63, "duration": 4, "velocity": 83}, {"time": 102, "pitch": 44, "duration": 5, "velocity": 82}, {"time": 102, "pitch": 56, "duration": 4, "velocity": 73}, {"time": 102, "pitch": 59, "duration": 4, "velocity": 74}, {"time": 102, "pitch": 63, "duration": 4, "velocity": 81}, {"time": 114, "pitch": 44, "duration": 7, "velocity": 82}, {"time": 114, "pitch": 56, "duration": 7, "velocity": 73}, {"time": 114, "pitch": 59, "duration": 7, "velocity": 76}, {"time": 114, "pitch": 63, "duration": 7, "velocity": 82}, {"time": 126, "pitch": 45, "duration": 3, "velocity": 81}, {"time": 126, "pitch": 57, "duration": 5, "velocity": 80}, {"time": 126, "pitch": 61, "duration": 5, "velocity": 81}, {"time": 138, "pitch": 45, "duration": 2, "velocity": 76}, {"time": 138, "pitch": 57, "duration": 3, "velocity": 71}, {"time": 138, "pitch": 61, "duration": 3, "velocity": 75}, {"time": 138, "pitch": 64, "duration": 3, "velocity": 75}, {"time": 150, "pitch": 45, "duration": 2, "velocity": 83}, {"time": 150, "pitch": 57, "duration": 3, "velocity": 76}, {"time": 150, "pitch": 61, "duration": 3, "velocity": 77}, {"time": 150, "pitch": 64, "duration": 6, "velocity": 77}, {"time": 162, "pitch": 45, "duration": 3, "velocity": 83}, {"time": 162, "pitch": 57, "duration": 3, "velocity": 82}, {"time": 162, "pitch": 61, "duration": 4, "velocity": 80}, {"time": 162, "pitch": 64, "duration": 5, "velocity": 77}, {"time": 174, "pitch": 44, "duration": 4, "velocity": 82}, {"time": 174, "pitch": 56, "duration": 4, "velocity": 76}, {"time": 174, "pitch": 63, "duration": 4, "velocity": 81}, {"time": 186, "pitch": 44, "duration": 4, "velocity": 82}, {"time": 186, "pitch": 56, "duration": 4, "velocity": 78}, {"time": 186, "pitch": 63, "duration": 4, "velocity": 77}, {"time": 198, "pitch": 44, "duration": 4, "velocity": 82}, {"time": 198, "pitch": 56, "duration": 4, "velocity": 76}, {"time": 198, "pitch": 63, "duration": 4, "velocity": 81}, {"time": 210, "pitch": 44, "duration": 10, "velocity": 83}, {"time": 210, "pitch": 56, "duration": 4, "velocity": 80}, {"time": 210, "pitch": 60, "duration": 7, "velocity": 85}, {"time": 210, "pitch": 63, "duration": 10, "velocity": 83}, {"time": 216, "pitch": 56, "duration": 4, "velocity": 83}, {"time": 222, "pitch": 44, "duration": 47, "velocity": 83}, {"time": 222, "pitch": 56, "duration": 32, "velocity": 74}, {"time": 222, "pitch": 63, "duration": 32, "velocity": 81}, {"time": 252, "pitch": 51, "duration": 17, "velocity": 67}, {"time": 258, "pitch": 56, "duration": 1, "velocity": 78}, {"time": 258, "pitch": 60, "duration": 11, "velocity": 84}, {"time": 258, "pitch": 63, "duration": 12, "velocity": 84}, {"time": 258, "pitch": 68, "duration": 12, "velocity": 80}, {"time": 264, "pitch": 56, "duration": 6, "velocity": 76}, {"time": 270, "pitch": 37, "duration": 6, "velocity": 88}, {"time": 270, "pitch": 49, "duration": 2, "velocity": 81}, {"time": 270, "pitch": 52, "duration": 2, "velocity": 72}, {"time": 270, "pitch": 56, "duration": 1, "velocity": 68}, {"time": 276, "pitch": 49, "duration": 2, "velocity": 76}, {"time": 276, "pitch": 52, "duration": 2, "velocity": 81}, {"time": 276, "pitch": 56, "duration": 2, "velocity": 75}, {"time": 282, "pitch": 37, "duration": 3, "velocity": 88}, {"time": 282, "pitch": 49, "duration": 1, "velocity": 81}, {"time": 282, "pitch": 52, "duration": 2, "velocity": 83}, {"time": 282, "pitch": 56, "duration": 2, "velocity": 82}, {"time": 288, "pitch": 49, "duration": 2, "velocity": 80}, {"time": 294, "pitch": 37, "duration": 2, "velocity": 88}, {"time": 294, "pitch": 49, "duration": 2, "velocity": 75}, {"time": 294, "pitch": 52, "duration": 2, "velocity": 82}, {"time": 294, "pitch": 56, "duration": 2, "velocity": 79}, {"time": 300, "pitch": 49, "duration": 2, "velocity": 76}, {"time": 306, "pitch": 37, "duration": 6, "velocity": 86}, {"time": 306, "pitch": 52, "duration": 7, "velocity": 87}, {"time": 306, "pitch": 56, "duration": 7, "velocity": 84}, {"time": 306, "pitch": 61, "duration": 8, "velocity": 82}, {"time": 312, "pitch": 49, "duration": 3, "velocity": 81}, {"time": 318, "pitch": 37, "duration": 3, "velocity": 87}, {"time": 318, "pitch": 49, "duration": 1, "velocity": 70}, {"time": 318, "pitch": 52, "duration": 2, "velocity": 82}, {"time": 318, "pitch": 56, "duration": 2, "velocity": 82}, {"time": 318, "pitch": 61, "duration": 2, "velocity": 82}, {"time": 324, "pitch": 49, "duration": 2, "velocity": 76}, {"time": 330, "pitch": 37, "duration": 2, "velocity": 85}, {"time": 330, "pitch": 52, "duration": 1, "velocity": 81}, {"time": 330, "pitch": 56, "duration": 2, "velocity": 81}, {"time": 330, "pitch": 61, "duration": 2, "velocity": 82}, {"time": 336, "pitch": 49, "duration": 2, "velocity": 85}, {"time": 342, "pitch": 37, "duration": 3, "velocity": 86}, {"time": 342, "pitch": 52, "duration": 2, "velocity": 84}, {"time": 342, "pitch": 56, "duration": 2, "velocity": 82}, {"time": 342, "pitch": 61, "duration": 2, "velocity": 81}, {"time": 348, "pitch": 49, "duration": 2, "velocity": 81}, {"time": 354, "pitch": 37, "duration": 4, "velocity": 81}, {"time": 354, "pitch": 52, "duration": 10, "velocity": 83}, {"time": 354, "pitch": 56, "duration": 10, "velocity": 82}, {"time": 354, "pitch": 61, "duration": 9, "velocity": 81}, {"time": 360, "pitch": 44, "duration": 4, "velocity": 92}, {"time": 366, "pitch": 37, "duration": 4, "velocity": 95}, {"time": 366, "pitch": 49, "duration": 2, "velocity": 76}, {"time": 366, "pitch": 52, "duration": 2, "velocity": 79}, {"time": 366, "pitch": 56, "duration": 3, "velocity": 78}, {"time": 366, "pitch": 61, "duration": 2, "velocity": 76}, {"time": 372, "pitch": 49, "duration": 1, "velocity": 72}, {"time": 378, "pitch": 37, "duration": 3, "velocity": 88}, {"time": 378, "pitch": 49, "duration": 1, "velocity": 70}, {"time": 378, "pitch": 52, "duration": 2, "velocity": 84}, {"time": 378, "pitch": 56, "duration": 2, "velocity": 82}, {"time": 378, "pitch": 61, "duration": 3, "velocity": 81}, {"time": 384, "pitch": 49, "duration": 2, "velocity": 82}, {"time": 390, "pitch": 37, "duration": 6, "velocity": 84}, {"time": 390, "pitch": 52, "duration": 2, "velocity": 83}, {"time": 390, "pitch": 56, "duration": 2, "velocity": 77}, {"time": 390, "pitch": 61, "duration": 3, "velocity": 74}, {"time": 396, "pitch": 49, "duration": 2, "velocity": 83}, {"time": 402, "pitch": 37, "duration": 3, "velocity": 92}, {"time": 402, "pitch": 52, "duration": 4, "velocity": 83}, {"time": 402, "pitch": 56, "duration": 6, "velocity": 83}, {"time": 402, "pitch": 61, "duration": 6, "velocity": 83}, {"time": 408, "pitch": 39, "duration": 4, "velocity": 95}, {"time": 414, "pitch": 40, "duration": 5, "velocity": 87}, {"time": 414, "pitch": 52, "duration": 3, "velocity": 82}, {"time": 414, "pitch": 56, "duration": 3, "velocity": 72}, {"time": 420, "pitch": 52, "duration": 2, "velocity": 79}, {"time": 426, "pitch": 40, "duration": 8, "velocity": 78}, {"time": 426, "pitch": 52, "duration": 1, "velocity": 77}, {"time": 426, "pitch": 56, "duration": 4, "velocity": 84}, {"time": 426, "pitch": 59, "duration": 8, "velocity": 82}, {"time": 432, "pitch": 52, "duration": 3, "velocity": 84}, {"time": 432, "pitch": 56, "duration": 2, "velocity": 42}, {"time": 438, "pitch": 44, "duration": 8, "velocity": 81}, {"time": 438, "pitch": 51, "duration": 2, "velocity": 84}, {"time": 438, "pitch": 56, "duration": 7, "velocity": 79}, {"time": 444, "pitch": 51, "duration": 2, "velocity": 82}, {"time": 450, "pitch": 44, "duration": 8, "velocity": 84}, {"time": 450, "pitch": 51, "duration": 2, "velocity": 85}, {"time": 450, "pitch": 56, "duration": 7, "velocity": 86}, {"time": 450, "pitch": 59, "duration": 8, "velocity": 83}, {"time": 456, "pitch": 51, "duration": 3, "velocity": 84}, {"time": 462, "pitch": 37, "duration": 4, "velocity": 83}, {"time": 462, "pitch": 56, "duration": 2, "velocity": 80}, {"time": 462, "pitch": 61, "duration": 3, "velocity": 82}, {"time": 462, "pitch": 64, "duration": 3, "velocity": 80}, {"time": 468, "pitch": 56, "duration": 3, "velocity": 81}, {"time": 474, "pitch": 37, "duration": 6, "velocity": 87}, {"time": 474, "pitch": 56, "duration": 2, "velocity": 81}, {"time": 474, "pitch": 61, "duration": 4, "velocity": 83}, {"time": 474, "pitch": 64, "duration": 4, "velocity": 83}, {"time": 480, "pitch": 56, "duration": 3, "velocity": 80}, {"time": 486, "pitch": 37, "duration": 4, "velocity": 71}, {"time": 486, "pitch": 56, "duration": 2, "velocity": 79}, {"time": 486, "pitch": 61, "duration": 3, "velocity": 82}, {"time": 486, "pitch": 64, "duration": 3, "velocity": 77}, {"time": 492, "pitch": 56, "duration": 2, "velocity": 79}, {"time": 498, "pitch": 37, "duration": 5, "velocity": 92}, {"time": 498, "pitch": 56, "duration": 2, "velocity": 76}, {"time": 498, "pitch": 61, "duration": 4, "velocity": 83}, {"time": 498, "pitch": 64, "duration": 4, "velocity": 81}, {"time": 504, "pitch": 56, "duration": 2, "velocity": 80}, {"time": 504, "pitch": 61, "duration": 1, "velocity": 68}, {"time": 504, "pitch": 64, "duration": 1, "velocity": 63}, {"time": 510, "pitch": 37, "duration": 4, "velocity": 97}, {"time": 510, "pitch": 56, "duration": 2, "velocity": 77}, {"time": 510, "pitch": 61, "duration": 2, "velocity": 82}, {"time": 510, "pitch": 64, "duration": 3, "velocity": 79}, {"time": 516, "pitch": 56, "duration": 2, "velocity": 81}, {"time": 522, "pitch": 37, "duration": 5, "velocity": 82}, {"time": 522, "pitch": 56, "duration": 2, "velocity": 76}, {"time": 522, "pitch": 61, "duration": 2, "velocity": 84}, {"time": 522, "pitch": 64, "duration": 3, "velocity": 81}, {"time": 528, "pitch": 56, "duration": 2, "velocity": 80}, {"time": 534, "pitch": 37, "duration": 5, "velocity": 90}, {"time": 534, "pitch": 56, "duration": 2, "velocity": 75}, {"time": 534, "pitch": 61, "duration": 7, "velocity": 81}, {"time": 534, "pitch": 64, "duration": 6, "velocity": 80}, {"time": 540, "pitch": 56, "duration": 3, "velocity": 81}, {"time": 546, "pitch": 37, "duration": 5, "velocity": 97}, {"time": 546, "pitch": 56, "duration": 8, "velocity": 81}, {"time": 546, "pitch": 61, "duration": 10, "velocity": 86}, {"time": 546, "pitch": 64, "duration": 9, "velocity": 83}, {"time": 552, "pitch": 44, "duration": 4, "velocity": 90}, {"time": 558, "pitch": 42, "duration": 4, "velocity": 82}, {"time": 558, "pitch": 54, "duration": 2, "velocity": 77}, {"time": 558, "pitch": 57, "duration": 3, "velocity": 76}, {"time": 558, "pitch": 61, "duration": 3, "velocity": 82}, {"time": 564, "pitch": 54, "duration": 2, "velocity": 77}, {"time": 570, "pitch": 42, "duration": 5, "velocity": 87}, {"time": 570, "pitch": 54, "duration": 2, "velocity": 81}, {"time": 570, "pitch": 57, "duration": 3, "velocity": 85}, {"time": 570, "pitch": 61, "duration": 3, "velocity": 82}, {"time": 576, "pitch": 54, "duration": 2, "velocity": 81}, {"time": 582, "pitch": 47, "duration": 4, "velocity": 87}, {"time": 582, "pitch": 54, "duration": 2, "velocity": 81}, {"time": 582, "pitch": 59, "duration": 3, "velocity": 86}, {"time": 582, "pitch": 63, "duration": 3, "velocity": 85}, {"time": 588, "pitch": 54, "duration": 2, "velocity": 80}, {"time": 594, "pitch": 47, "duration": 7, "velocity": 95}, {"time": 594, "pitch": 54, "duration": 2, "velocity": 82}, {"time": 594, "pitch": 59, "duration": 8, "velocity": 84}, {"time": 594, "pitch": 63, "duration": 8, "velocity": 83}, {"time": 600, "pitch": 54, "duration": 2, "velocity": 81}, {"time": 606, "pitch": 37, "duration": 2, "velocity": 97}, {"time": 606, "pitch": 56, "duration": 2, "velocity": 81}, {"time": 606, "pitch": 61, "duration": 3, "velocity": 83}, {"time": 606, "pitch": 64, "duration": 3, "velocity": 74}, {"time": 612, "pitch": 56, "duration": 2, "velocity": 79}, {"time": 618, "pitch": 37, "duration": 2, "velocity": 81}, {"time": 618, "pitch": 56, "duration": 1, "velocity": 79}, {"time": 618, "pitch": 61, "duration": 2, "velocity": 85}, {"time": 618, "pitch": 64, "duration": 2, "velocity": 81}, {"time": 624, "pitch": 56, "duration": 2, "velocity": 83}, {"time": 630, "pitch": 37, "duration": 5, "velocity": 92}, {"time": 630, "pitch": 56, "duration": 2, "velocity": 82}, {"time": 630, "pitch": 61, "duration": 2, "velocity": 88}, {"time": 630, "pitch": 64, "duration": 2, "velocity": 82}, {"time": 636, "pitch": 56, "duration": 3, "velocity": 83}, {"time": 642, "pitch": 32, "duration": 5, "velocity": 97}, {"time": 642, "pitch": 56, "duration": 3, "velocity": 81}, {"time": 642, "pitch": 61, "duration": 4, "velocity": 87}, {"time": 642, "pitch": 64, "duration": 5, "velocity": 81}, {"time": 648, "pitch": 35, "duration": 5, "velocity": 97}, {"time": 648, "pitch": 56, "duration": 4, "velocity": 87}, {"time": 648, "pitch": 61, "duration": 2, "velocity": 77}, {"time": 648, "pitch": 64, "duration": 1, "velocity": 74}, {"time": 654, "pitch": 37, "duration": 3, "velocity": 82}, {"time": 654, "pitch": 49, "duration": 2, "velocity": 78}, {"time": 654, "pitch": 56, "duration": 2, "velocity": 77}, {"time": 654, "pitch": 61, "duration": 2, "velocity": 82}, {"time": 654, "pitch": 64, "duration": 2, "velocity": 80}, {"time": 660, "pitch": 56, "duration": 1, "velocity": 81}, {"time": 660, "pitch": 61, "duration": 1, "velocity": 84}, {"time": 660, "pitch": 64, "duration": 2, "velocity": 81}, {"time": 666, "pitch": 37, "duration": 4, "velocity": 83}, {"time": 666, "pitch": 49, "duration": 3, "velocity": 83}, {"time": 666, "pitch": 56, "duration": 2, "velocity": 81}, {"time": 666, "pitch": 61, "duration": 2, "velocity": 83}, {"time": 666, "pitch": 64, "duration": 2, "velocity": 81}, {"time": 672, "pitch": 56, "duration": 1, "velocity": 78}, {"time": 672, "pitch": 61, "duration": 1, "velocity": 83}, {"time": 672, "pitch": 64, "duration": 2, "velocity": 79}, {"time": 678, "pitch": 37, "duration": 4, "velocity": 82}, {"time": 678, "pitch": 49, "duration": 2, "velocity": 82}, {"time": 678, "pitch": 56, "duration": 1, "velocity": 79}, {"time": 678, "pitch": 61, "duration": 2, "velocity": 83}, {"time": 678, "pitch": 64, "duration": 2, "velocity": 80}, {"time": 684, "pitch": 56, "duration": 1, "velocity": 76}, {"time": 684, "pitch": 61, "duration": 1, "velocity": 83}, {"time": 684, "pitch": 64, "duration": 2, "velocity": 79}, {"time": 690, "pitch": 37, "duration": 5, "velocity": 85}, {"time": 690, "pitch": 49, "duration": 4, "velocity": 86}, {"time": 690, "pitch": 56, "duration": 2, "velocity": 82}, {"time": 690, "pitch": 61, "duration": 2, "velocity": 86}, {"time": 690, "pitch": 64, "duration": 2, "velocity": 82}, {"time": 696, "pitch": 56, "duration": 2, "velocity": 81}, {"time": 696, "pitch": 61, "duration": 2, "velocity": 85}, {"time": 696, "pitch": 64, "duration": 2, "velocity": 82}, {"time": 702, "pitch": 37, "duration": 3, "velocity": 85}, {"time": 702, "pitch": 49, "duration": 3, "velocity": 87}, {"time": 702, "pitch": 56, "duration": 1, "velocity": 81}, {"time": 702, "pitch": 61, "duration": 1, "velocity": 84}, {"time": 702, "pitch": 64, "duration": 2, "velocity": 82}, {"time": 708, "pitch": 56, "duration": 1, "velocity": 81}, {"time": 708, "pitch": 61, "duration": 1, "velocity": 86}, {"time": 708, "pitch": 64, "duration": 2, "velocity": 80}, {"time": 714, "pitch": 37, "duration": 5, "velocity": 83}, {"time": 714, "pitch": 49, "duration": 5, "velocity": 84}, {"time": 714, "pitch": 56, "duration": 2, "velocity": 81}, {"time": 714, "pitch": 61, "duration": 2, "velocity": 86}, {"time": 714, "pitch": 64, "duration": 2, "velocity": 81}, {"time": 720, "pitch": 56, "duration": 1, "velocity": 79}, {"time": 720, "pitch": 61, "duration": 1, "velocity": 86}, {"time": 720, "pitch": 64, "duration": 2, "velocity": 82}, {"time": 726, "pitch": 35, "duration": 3, "velocity": 78}, {"time": 726, "pitch": 47, "duration": 2, "velocity": 79}, {"time": 726, "pitch": 54, "duration": 1, "velocity": 82}, {"time": 726, "pitch": 59, "duration": 1, "velocity": 82}, {"time": 726, "pitch": 63, "duration": 2, "velocity": 86}, {"time": 732, "pitch": 54, "duration": 2, "velocity": 82}, {"time": 732, "pitch": 59, "duration": 2, "velocity": 82}, {"time": 732, "pitch": 63, "duration": 2, "velocity": 84}, {"time": 738, "pitch": 35, "duration": 8, "velocity": 76}, {"time": 738, "pitch": 47, "duration": 8, "velocity": 82}, {"time": 738, "pitch": 54, "duration": 3, "velocity": 82}, {"time": 738, "pitch": 59, "duration": 3, "velocity": 83}, {"time": 738, "pitch": 63, "duration": 3, "velocity": 83}, {"time": 744, "pitch": 54, "duration": 2, "velocity": 83}, {"time": 744, "pitch": 59, "duration": 2, "velocity": 82}, {"time": 744, "pitch": 63, "duration": 2, "velocity": 84}, {"time": 750, "pitch": 33, "duration": 2, "velocity": 81}, {"time": 750, "pitch": 45, "duration": 2, "velocity": 81}, {"time": 750, "pitch": 57, "duration": 3, "velocity": 75}, {"time": 750, "pitch": 61, "duration": 2, "velocity": 74}, {"time": 750, "pitch": 64, "duration": 2, "velocity": 77}, {"time": 750, "pitch": 69, "duration": 2, "velocity": 74}, {"time": 756, "pitch": 61, "duration": 1, "velocity": 75}, {"time": 756, "pitch": 64, "duration": 2, "velocity": 77}, {"time": 756, "pitch": 69, "duration": 2, "velocity": 77}, {"time": 762, "pitch": 33, "duration": 3, "velocity": 82}, {"time": 762, "pitch": 45, "duration": 3, "velocity": 82}, {"time": 762, "pitch": 57, "duration": 4, "velocity": 81}, {"time": 762, "pitch": 61, "duration": 2, "velocity": 81}, {"time": 762, "pitch": 64, "duration": 2, "velocity": 83}, {"time": 762, "pitch": 69, "duration": 2, "velocity": 82}, {"time": 768, "pitch": 61, "duration": 2, "velocity": 73}, {"time": 768, "pitch": 64, "duration": 2, "velocity": 76}, {"time": 768, "pitch": 69, "duration": 2, "velocity": 74}, {"time": 774, "pitch": 33, "duration": 3, "velocity": 82}, {"time": 774, "pitch": 45, "duration": 3, "velocity": 82}, {"time": 774, "pitch": 57, "duration": 4, "velocity": 81}, {"time": 774, "pitch": 61, "duration": 2, "velocity": 77}, {"time": 774, "pitch": 64, "duration": 2, "velocity": 81}, {"time": 774, "pitch": 69, "duration": 2, "velocity": 81}, {"time": 780, "pitch": 61, "duration": 1, "velocity": 73}, {"time": 780, "pitch": 64, "duration": 2, "velocity": 77}, {"time": 780, "pitch": 69, "duration": 2, "velocity": 77}, {"time": 786, "pitch": 33, "duration": 2, "velocity": 82}, {"time": 786, "pitch": 45, "duration": 2, "velocity": 82}, {"time": 786, "pitch": 57, "duration": 2, "velocity": 83}, {"time": 786, "pitch": 61, "duration": 2, "velocity": 82}, {"time": 786, "pitch": 64, "duration": 2, "velocity": 83}, {"time": 786, "pitch": 69, "duration": 3, "velocity": 85}, {"time": 792, "pitch": 61, "duration": 3, "velocity": 82}, {"time": 792, "pitch": 64, "duration": 3, "velocity": 82}, {"time": 792, "pitch": 69, "duration": 3, "velocity": 82}, {"time": 798, "pitch": 40, "duration": 3, "velocity": 74}, {"time": 798, "pitch": 52, "duration": 2, "velocity": 80}, {"time": 798, "pitch": 56, "duration": 2, "velocity": 72}, {"time": 798, "pitch": 59, "duration": 2, "velocity": 75}, {"time": 798, "pitch": 64, "duration": 3, "velocity": 76}, {"time": 804, "pitch": 56, "duration": 2, "velocity": 75}, {"time": 804, "pitch": 59, "duration": 2, "velocity": 78}, {"time": 804, "pitch": 64, "duration": 2, "velocity": 79}, {"time": 810, "pitch": 40, "duration": 3, "velocity": 81}, {"time": 810, "pitch": 52, "duration": 3, "velocity": 82}, {"time": 810, "pitch": 56, "duration": 2, "velocity": 78}, {"time": 810, "pitch": 59, "duration": 2, "velocity": 82}, {"time": 810, "pitch": 64, "duration": 2, "velocity": 81}, {"time": 816, "pitch": 56, "duration": 2, "velocity": 80}, {"time": 816, "pitch": 59, "duration": 2, "velocity": 84}, {"time": 816, "pitch": 64, "duration": 3, "velocity": 81}, {"time": 822, "pitch": 30, "duration": 4, "velocity": 84}, {"time": 822, "pitch": 42, "duration": 4, "velocity": 84}, {"time": 822, "pitch": 54, "duration": 3, "velocity": 80}, {"time": 822, "pitch": 66, "duration": 4, "velocity": 78}, {"time": 828, "pitch": 32, "duration": 6, "velocity": 87}, {"time": 828, "pitch": 44, "duration": 6, "velocity": 87}, {"time": 828, "pitch": 56, "duration": 8, "velocity": 81}, {"time": 828, "pitch": 68, "duration": 12, "velocity": 81}, {"time": 834, "pitch": 35, "duration": 6, "velocity": 87}, {"time": 834, "pitch": 47, "duration": 6, "velocity": 97}, {"time": 840, "pitch": 32, "duration": 6, "velocity": 87}, {"time": 840, "pitch": 44, "duration": 6, "velocity": 72}, {"time": 840, "pitch": 56, "duration": 5, "velocity": 82}, {"time": 840, "pitch": 63, "duration": 6, "velocity": 83}, {"time": 846, "pitch": 37, "duration": 3, "velocity": 82}, {"time": 846, "pitch": 49, "duration": 2, "velocity": 77}, {"time": 846, "pitch": 56, "duration": 2, "velocity": 79}, {"time": 846, "pitch": 61, "duration": 2, "velocity": 83}, {"time": 846, "pitch": 64, "duration": 2, "velocity": 83}, {"time": 852, "pitch": 56, "duration": 2, "velocity": 82}, {"time": 852, "pitch": 61, "duration": 2, "velocity": 85}, {"time": 852, "pitch": 64, "duration": 2, "velocity": 82}, {"time": 858, "pitch": 37, "duration": 3, "velocity": 83}, {"time": 858, "pitch": 49, "duration": 3, "velocity": 82}, {"time": 858, "pitch": 56, "duration": 2, "velocity": 82}, {"time": 858, "pitch": 61, "duration": 2, "velocity": 83}, {"time": 858, "pitch": 64, "duration": 3, "velocity": 84}, {"time": 864, "pitch": 56, "duration": 1, "velocity": 79}, {"time": 864, "pitch": 61, "duration": 1, "velocity": 82}, {"time": 864, "pitch": 64, "duration": 2, "velocity": 83}, {"time": 870, "pitch": 37, "duration": 3, "velocity": 84}, {"time": 870, "pitch": 49, "duration": 3, "velocity": 79}, {"time": 870, "pitch": 56, "duration": 2, "velocity": 81}, {"time": 870, "pitch": 61, "duration": 2, "velocity": 84}, {"time": 870, "pitch": 64, "duration": 2, "velocity": 82}, {"time": 876, "pitch": 56, "duration": 2, "velocity": 76}, {"time": 876, "pitch": 61, "duration": 2, "velocity": 81}, {"time": 876, "pitch": 64, "duration": 2, "velocity": 77}, {"time": 882, "pitch": 37, "duration": 4, "velocity": 83}, {"time": 882, "pitch": 49, "duration": 5, "velocity": 83}, {"time": 882, "pitch": 56, "duration": 2, "velocity": 82}, {"time": 882, "pitch": 61, "duration": 2, "velocity": 82}, {"time": 882, "pitch": 64, "duration": 2, "velocity": 82}, {"time": 888, "pitch": 54, "duration": 3, "velocity": 87}, {"time": 888, "pitch": 59, "duration": 3, "velocity": 83}, {"time": 888, "pitch": 63, "duration": 1, "velocity": 81}, {"time": 894, "pitch": 35, "duration": 2, "velocity": 79}, {"time": 894, "pitch": 54, "duration": 2, "velocity": 83}, {"time": 894, "pitch": 59, "duration": 2, "velocity": 82}, {"time": 894, "pitch": 63, "duration": 2, "velocity": 82}, {"time": 900, "pitch": 54, "duration": 2, "velocity": 83}, {"time": 900, "pitch": 59, "duration": 2, "velocity": 84}, {"time": 900, "pitch": 63, "duration": 2, "velocity": 84}, {"time": 906, "pitch": 35, "duration": 2, "velocity": 79}, {"time": 906, "pitch": 47, "duration": 2, "velocity": 85}, {"time": 906, "pitch": 54, "duration": 2, "velocity": 84}, {"time": 906, "pitch": 59, "duration": 1, "velocity": 87}, {"time": 906, "pitch": 63, "duration": 2, "velocity": 87}, {"time": 912, "pitch": 54, "duration": 2, "velocity": 85}, {"time": 912, "pitch": 59, "duration": 3, "velocity": 88}, {"time": 912, "pitch": 63, "duration": 3, "velocity": 90}, {"time": 918, "pitch": 37, "duration": 3, "velocity": 82}, {"time": 918, "pitch": 49, "duration": 2, "velocity": 82}, {"time": 918, "pitch": 61, "duration": 4, "velocity": 82}, {"time": 918, "pitch": 64, "duration": 4, "velocity": 85}, {"time": 924, "pitch": 35, "duration": 10, "velocity": 81}, {"time": 924, "pitch": 47, "duration": 9, "velocity": 83}, {"time": 924, "pitch": 59, "duration": 10, "velocity": 79}, {"time": 924, "pitch": 63, "duration": 9, "velocity": 87}, {"time": 936, "pitch": 35, "duration": 4, "velocity": 78}, {"time": 936, "pitch": 47, "duration": 4, "velocity": 81}, {"time": 936, "pitch": 59, "duration": 6, "velocity": 77}, {"time": 936, "pitch": 63, "duration": 5, "velocity": 83}, {"time": 942, "pitch": 33, "duration": 6, "velocity": 85}, {"time": 942, "pitch": 45, "duration": 6, "velocity": 85}, {"time": 942, "pitch": 57, "duration": 2, "velocity": 82}, {"time": 942, "pitch": 61, "duration": 2, "velocity": 82}, {"time": 942, "pitch": 64, "duration": 2, "velocity": 80}, {"time": 948, "pitch": 57, "duration": 2, "velocity": 77}, {"time": 948, "pitch": 61, "duration": 2, "velocity": 76}, {"time": 948, "pitch": 64, "duration": 2, "velocity": 74}, {"time": 954, "pitch": 33, "duration": 3, "velocity": 95}, {"time": 954, "pitch": 45, "duration": 3, "velocity": 95}, {"time": 954, "pitch": 57, "duration": 2, "velocity": 84}, {"time": 954, "pitch": 61, "duration": 1, "velocity": 82}, {"time": 954, "pitch": 64, "duration": 2, "velocity": 79}, {"time": 960, "pitch": 57, "duration": 2, "velocity": 83}, {"time": 960, "pitch": 61, "duration": 2, "velocity": 81}, {"time": 960, "pitch": 64, "duration": 2, "velocity": 75}, {"time": 966, "pitch": 35, "duration": 2, "velocity": 88}, {"time": 966, "pitch": 47, "duration": 2, "velocity": 88}, {"time": 966, "pitch": 59, "duration": 1, "velocity": 78}, {"time": 966, "pitch": 63, "duration": 1, "velocity": 82}, {"time": 966, "pitch": 66, "duration": 1, "velocity": 75}, {"time": 972, "pitch": 59, "duration": 2, "velocity": 78}, {"time": 972, "pitch": 63, "duration": 1, "velocity": 80}, {"time": 972, "pitch": 66, "duration": 2, "velocity": 77}, {"time": 978, "pitch": 35, "duration": 7, "velocity": 88}, {"time": 978, "pitch": 47, "duration": 7, "velocity": 88}, {"time": 978, "pitch": 59, "duration": 2, "velocity": 76}, {"time": 978, "pitch": 63, "duration": 2, "velocity": 81}, {"time": 978, "pitch": 66, "duration": 2, "velocity": 74}, {"time": 984, "pitch": 59, "duration": 7, "velocity": 83}, {"time": 984, "pitch": 63, "duration": 7, "velocity": 85}, {"time": 984, "pitch": 66, "duration": 8, "velocity": 82}, {"time": 990, "pitch": 35, "duration": 2, "velocity": 82}, {"time": 990, "pitch": 47, "duration": 2, "velocity": 82}, {"time": 996, "pitch": 59, "duration": 2, "velocity": 81}, {"time": 996, "pitch": 63, "duration": 2, "velocity": 82}, {"time": 996, "pitch": 66, "duration": 2, "velocity": 77}, {"time": 1002, "pitch": 35, "duration": 4, "velocity": 88}, {"time": 1002, "pitch": 47, "duration": 4, "velocity": 88}, {"time": 1002, "pitch": 59, "duration": 2, "velocity": 77}, {"time": 1002, "pitch": 63, "duration": 2, "velocity": 82}, {"time": 1002, "pitch": 66, "duration": 2, "velocity": 75}, {"time": 1008, "pitch": 59, "duration": 2, "velocity": 82}, {"time": 1008, "pitch": 63, "duration": 2, "velocity": 83}, {"time": 1008, "pitch": 66, "duration": 3, "velocity": 81}, {"time": 1014, "pitch": 35, "duration": 4, "velocity": 83}, {"time": 1014, "pitch": 47, "duration": 4, "velocity": 83}, {"time": 1014, "pitch": 59, "duration": 2, "velocity": 74}, {"time": 1014, "pitch": 63, "duration": 2, "velocity": 78}, {"time": 1014, "pitch": 66, "duration": 2, "velocity": 74}, {"time": 1020, "pitch": 59, "duration": 9, "velocity": 83}, {"time": 1020, "pitch": 63, "duration": 9, "velocity": 90}, {"time": 1020, "pitch": 66, "duration": 9, "velocity": 82}, {"time": 1026, "pitch": 35, "duration": 7, "velocity": 102}, {"time": 1026, "pitch": 47, "duration": 7, "velocity": 102}, {"time": 1032, "pitch": 59, "duration": 3, "velocity": 82}, {"time": 1032, "pitch": 63, "duration": 3, "velocity": 88}, {"time": 1032, "pitch": 66, "duration": 3, "velocity": 82}, {"time": 1038, "pitch": 42, "duration": 3, "velocity": 77}, {"time": 1038, "pitch": 54, "duration": 2, "velocity": 71}, {"time": 1038, "pitch": 61, "duration": 2, "velocity": 75}, {"time": 1038, "pitch": 66, "duration": 2, "velocity": 73}, {"time": 1038, "pitch": 69, "duration": 2, "velocity": 72}, {"time": 1044, "pitch": 61, "duration": 1, "velocity": 76}, {"time": 1044, "pitch": 66, "duration": 1, "velocity": 80}, {"time": 1044, "pitch": 69, "duration": 2, "velocity": 73}, {"time": 1050, "pitch": 42, "duration": 2, "velocity": 82}, {"time": 1050, "pitch": 54, "duration": 2, "velocity": 84}, {"time": 1050, "pitch": 61, "duration": 1, "velocity": 82}, {"time": 1050, "pitch": 66, "duration": 1, "velocity": 83}, {"time": 1050, "pitch": 69, "duration": 2, "velocity": 83}, {"time": 1056, "pitch": 61, "duration": 1, "velocity": 80}, {"time": 1056, "pitch": 66, "duration": 2, "velocity": 82}, {"time": 1056, "pitch": 69, "duration": 2, "velocity": 76}, {"time": 1062, "pitch": 42, "duration": 2, "velocity": 81}, {"time": 1062, "pitch": 54, "duration": 2, "velocity": 79}, {"time": 1062, "pitch": 61, "duration": 1, "velocity": 77}, {"time": 1062, "pitch": 66, "duration": 1, "velocity": 81}, {"time": 1062, "pitch": 69, "duration": 2, "velocity": 82}, {"time": 1068, "pitch": 61, "duration": 1, "velocity": 81}, {"time": 1068, "pitch": 66, "duration": 1, "velocity": 82}, {"time": 1068, "pitch": 69, "duration": 2, "velocity": 82}, {"time": 1074, "pitch": 42, "duration": 2, "velocity": 81}, {"time": 1074, "pitch": 54, "duration": 2, "velocity": 83}, {"time": 1074, "pitch": 61, "duration": 1, "velocity": 82}, {"time": 1074, "pitch": 66, "duration": 1, "velocity": 83}, {"time": 1074, "pitch": 69, "duration": 2, "velocity": 83}, {"time": 1080, "pitch": 61, "duration": 1, "velocity": 80}, {"time": 1080, "pitch": 66, "duration": 1, "velocity": 82}, {"time": 1080, "pitch": 69, "duration": 2, "velocity": 82}, {"time": 1086, "pitch": 42, "duration": 2, "velocity": 80}, {"time": 1086, "pitch": 54, "duration": 2, "velocity": 81}, {"time": 1086, "pitch": 61, "duration": 1, "velocity": 81}, {"time": 1086, "pitch": 66, "duration": 2, "velocity": 82}, {"time": 1086, "pitch": 69, "duration": 2, "velocity": 82}, {"time": 1092, "pitch": 61, "duration": 1, "velocity": 81}, {"time": 1092, "pitch": 66, "duration": 1, "velocity": 83}, {"time": 1092, "pitch": 69, "duration": 2, "velocity": 82}, {"time": 1098, "pitch": 42, "duration": 2, "velocity": 81}, {"time": 1098, "pitch": 54, "duration": 2, "velocity": 82}, {"time": 1098, "pitch": 61, "duration": 1, "velocity": 81}, {"time": 1098, "pitch": 66, "duration": 1, "velocity": 82}, {"time": 1098, "pitch": 69, "duration": 2, "velocity": 82}, {"time": 1104, "pitch": 61, "duration": 2, "velocity": 80}, {"time": 1104, "pitch": 66, "duration": 2, "velocity": 83}, {"time": 1104, "pitch": 69, "duration": 2, "velocity": 83}, {"time": 1110, "pitch": 42, "duration": 2, "velocity": 81}, {"time": 1110, "pitch": 54, "duration": 2, "velocity": 81}, {"time": 1110, "pitch": 61, "duration": 2, "velocity": 80}, {"time": 1110, "pitch": 66, "duration": 2, "velocity": 83}, {"time": 1110, "pitch": 69, "duration": 2, "velocity": 82}, {"time": 1116, "pitch": 61, "duration": 1, "velocity": 81}, {"time": 1116, "pitch": 66, "duration": 2, "velocity": 83}, {"time": 1116, "pitch": 69, "duration": 2, "velocity": 82}, {"time": 1122, "pitch": 42, "duration": 2, "velocity": 81}, {"time": 1122, "pitch": 54, "duration": 3, "velocity": 83}, {"time": 1122, "pitch": 61, "duration": 2, "velocity": 80}, {"time": 1122, "pitch": 66, "duration": 2, "velocity": 82}, {"time": 1122, "pitch": 69, "duration": 2, "velocity": 84}, {"time": 1128, "pitch": 61, "duration": 2, "velocity": 79}, {"time": 1128, "pitch": 66, "duration": 1, "velocity": 81}, {"time": 1128, "pitch": 69, "duration": 2, "velocity": 79}, {"time": 1134, "pitch": 40, "duration": 3, "velocity": 80}, {"time": 1134, "pitch": 52, "duration": 3, "velocity": 81}, {"time": 1134, "pitch": 59, "duration": 2, "velocity": 81}, {"time": 1134, "pitch": 64, "duration": 2, "velocity": 81}, {"time": 1134, "pitch": 68, "duration": 2, "velocity": 81}, {"time": 1140, "pitch": 59, "duration": 1, "velocity": 81}, {"time": 1140, "pitch": 64, "duration": 1, "velocity": 81}, {"time": 1140, "pitch": 68, "duration": 2, "velocity": 81}, {"time": 1146, "pitch": 40, "duration": 4, "velocity": 81}, {"time": 1146, "pitch": 52, "duration": 4, "velocity": 82}, {"time": 1146, "pitch": 59, "duration": 2, "velocity": 82}, {"time": 1146, "pitch": 64, "duration": 2, "velocity": 82}, {"time": 1146, "pitch": 68, "duration": 2, "velocity": 82}, {"time": 1152, "pitch": 59, "duration": 2, "velocity": 85}, {"time": 1152, "pitch": 64, "duration": 2, "velocity": 87}, {"time": 1152, "pitch": 68, "duration": 2, "velocity": 86}, {"time": 1158, "pitch": 44, "duration": 6, "velocity": 81}, {"time": 1158, "pitch": 56, "duration": 6, "velocity": 75}, {"time": 1158, "pitch": 59, "duration": 2, "velocity": 72}, {"time": 1158, "pitch": 63, "duration": 3, "velocity": 78}, {"time": 1158, "pitch": 68, "duration": 3, "velocity": 77}, {"time": 1164, "pitch": 59, "duration": 2, "velocity": 77}, {"time": 1170, "pitch": 44, "duration": 9, "velocity": 81}, {"time": 1170, "pitch": 56, "duration": 10, "velocity": 80}, {"time": 1170, "pitch": 59, "duration": 10, "velocity": 82}, {"time": 1170, "pitch": 63, "duration": 10, "velocity": 83}, {"time": 1170, "pitch": 68, "duration": 11, "velocity": 81}, {"time": 1182, "pitch": 37, "duration": 44, "velocity": 82}, {"time": 1182, "pitch": 49, "duration": 45, "velocity": 70}, {"time": 1182, "pitch": 61, "duration": 14, "velocity": 81}, {"time": 1182, "pitch": 64, "duration": 14, "velocity": 82}, {"time": 1200, "pitch": 61, "duration": 6, "velocity": 83}, {"time": 1200, "pitch": 64, "duration": 16, "velocity": 83}, {"time": 1200, "pitch": 68, "duration": 15, "velocity": 82}, {"time": 1212, "pitch": 61, "duration": 3, "velocity": 66}, {"time": 1218, "pitch": 61, "duration": 6, "velocity": 87}, {"time": 1218, "pitch": 64, "duration": 6, "velocity": 87}, {"time": 1224, "pitch": 63, "duration": 4, "velocity": 82}, {"time": 1230, "pitch": 37, "duration": 6, "velocity": 88}, {"time": 1230, "pitch": 49, "duration": 2, "velocity": 81}, {"time": 1230, "pitch": 52, "duration": 2, "velocity": 72}, {"time": 1230, "pitch": 56, "duration": 2, "velocity": 68}, {"time": 1236, "pitch": 49, "duration": 2, "velocity": 76}, {"time": 1236, "pitch": 52, "duration": 2, "velocity": 81}, {"time": 1236, "pitch": 56, "duration": 2, "velocity": 75}, {"time": 1242, "pitch": 37, "duration": 3, "velocity": 88}, {"time": 1242, "pitch": 49, "duration": 1, "velocity": 81}, {"time": 1242, "pitch": 52, "duration": 2, "velocity": 83}, {"time": 1242, "pitch": 56, "duration": 2, "velocity": 82}, {"time": 1248, "pitch": 49, "duration": 2, "velocity": 80}, {"time": 1254, "pitch": 37, "duration": 2, "velocity": 88}, {"time": 1254, "pitch": 49, "duration": 2, "velocity": 75}, {"time": 1254, "pitch": 52, "duration": 2, "velocity": 82}, {"time": 1254, "pitch": 56, "duration": 2, "velocity": 79}, {"time": 1260, "pitch": 49, "duration": 2, "velocity": 76}, {"time": 1266, "pitch": 37, "duration": 6, "velocity": 86}, {"time": 1266, "pitch": 52, "duration": 7, "velocity": 87}, {"time": 1266, "pitch": 56, "duration": 7, "velocity": 84}, {"time": 1266, "pitch": 61, "duration": 8, "velocity": 82}, {"time": 1272, "pitch": 49, "duration": 3, "velocity": 81}, {"time": 1278, "pitch": 37, "duration": 3, "velocity": 87}, {"time": 1278, "pitch": 49, "duration": 1, "velocity": 70}, {"time": 1278, "pitch": 52, "duration": 2, "velocity": 82}, {"time": 1278, "pitch": 56, "duration": 2, "velocity": 82}, {"time": 1278, "pitch": 61, "duration": 2, "velocity": 82}, {"time": 1284, "pitch": 49, "duration": 2, "velocity": 76}, {"time": 1290, "pitch": 37, "duration": 2, "velocity": 85}, {"time": 1290, "pitch": 52, "duration": 1, "velocity": 81}, {"time": 1290, "pitch": 56, "duration": 2, "velocity": 81}, {"time": 1290, "pitch": 61, "duration": 2, "velocity": 82}, {"time": 1296, "pitch": 49, "duration": 2, "velocity": 85}, {"time": 1302, "pitch": 37, "duration": 3, "velocity": 86}, {"time": 1302, "pitch": 52, "duration": 2, "velocity": 84}, {"time": 1302, "pitch": 56, "duration": 2, "velocity": 82}, {"time": 1302, "pitch": 61, "duration": 2, "velocity": 81}, {"time": 1308, "pitch": 49, "duration": 2, "velocity": 81}, {"time": 1314, "pitch": 37, "duration": 4, "velocity": 81}, {"time": 1314, "pitch": 52, "duration": 10, "velocity": 83}, {"time": 1314, "pitch": 56, "duration": 10, "velocity": 82}, {"time": 1314, "pitch": 61, "duration": 9, "velocity": 81}, {"time": 1320, "pitch": 44, "duration": 4, "velocity": 92}, {"time": 1326, "pitch": 37, "duration": 4, "velocity": 95}, {"time": 1326, "pitch": 49, "duration": 2, "velocity": 76}, {"time": 1326, "pitch": 52, "duration": 2, "velocity": 79}, {"time": 1326, "pitch": 56, "duration": 3, "velocity": 78}, {"time": 1326, "pitch": 61, "duration": 2, "velocity": 76}, {"time": 1332, "pitch": 49, "duration": 1, "velocity": 72}, {"time": 1338, "pitch": 37, "duration": 3, "velocity": 88}, {"time": 1338, "pitch": 49, "duration": 1, "velocity": 70}, {"time": 1338, "pitch": 52, "duration": 2, "velocity": 84}, {"time": 1338, "pitch": 56, "duration": 2, "velocity": 82}, {"time": 1338, "pitch": 61, "duration": 3, "velocity": 81}, {"time": 1344, "pitch": 49, "duration": 2, "velocity": 82}, {"time": 1350, "pitch": 37, "duration": 6, "velocity": 84}, {"time": 1350, "pitch": 52, "duration": 2, "velocity": 83}, {"time": 1350, "pitch": 56, "duration": 2, "velocity": 77}, {"time": 1350, "pitch": 61, "duration": 3, "velocity": 74}, {"time": 1356, "pitch": 49, "duration": 2, "velocity": 83}, {"time": 1362, "pitch": 37, "duration": 3, "velocity": 92}, {"time": 1362, "pitch": 52, "duration": 4, "velocity": 83}, {"time": 1362, "pitch": 56, "duration": 6, "velocity": 83}, {"time": 1362, "pitch": 61, "duration": 6, "velocity": 83}, {"time": 1368, "pitch": 39, "duration": 4, "velocity": 95}, {"time": 1374, "pitch": 40, "duration": 5, "velocity": 87}, {"time": 1374, "pitch": 52, "duration": 3, "velocity": 82}, {"time": 1374, "pitch": 56, "duration": 3, "velocity": 72}, {"time": 1380, "pitch": 52, "duration": 2, "velocity": 79}, {"time": 1386, "pitch": 40, "duration": 8, "velocity": 78}, {"time": 1386, "pitch": 52, "duration": 1, "velocity": 77}, {"time": 1386, "pitch": 56, "duration": 4, "velocity": 84}, {"time": 1386, "pitch": 59, "duration": 8, "velocity": 82}, {"time": 1392, "pitch": 52, "duration": 3, "velocity": 84}, {"time": 1392, "pitch": 56, "duration": 2, "velocity": 42}, {"time": 1398, "pitch": 44, "duration": 8, "velocity": 81}, {"time": 1398, "pitch": 51, "duration": 2, "velocity": 84}, {"time": 1398, "pitch": 56, "duration": 7, "velocity": 79}, {"time": 1404, "pitch": 51, "duration": 2, "velocity": 82}, {"time": 1410, "pitch": 44, "duration": 8, "velocity": 84}, {"time": 1410, "pitch": 51, "duration": 2, "velocity": 85}, {"time": 1410, "pitch": 56, "duration": 7, "velocity": 86}, {"time": 1410, "pitch": 59, "duration": 8, "velocity": 83}, {"time": 1416, "pitch": 51, "duration": 3, "velocity": 84}, {"time": 1422, "pitch": 37, "duration": 4, "velocity": 83}, {"time": 1422, "pitch": 56, "duration": 2, "velocity": 80}, {"time": 1422, "pitch": 61, "duration": 3, "velocity": 82}, {"time": 1422, "pitch": 64, "duration": 3, "velocity": 80}, {"time": 1428, "pitch": 56, "duration": 3, "velocity": 81}, {"time": 1434, "pitch": 37, "duration": 6, "velocity": 87}, {"time": 1434, "pitch": 56, "duration": 2, "velocity": 81}, {"time": 1434, "pitch": 61, "duration": 4, "velocity": 83}, {"time": 1434, "pitch": 64, "duration": 4, "velocity": 83}, {"time": 1440, "pitch": 56, "duration": 3, "velocity": 80}, {"time": 1446, "pitch": 37, "duration": 4, "velocity": 71}, {"time": 1446, "pitch": 56, "duration": 2, "velocity": 79}, {"time": 1446, "pitch": 61, "duration": 3, "velocity": 82}, {"time": 1446, "pitch": 64, "duration": 3, "velocity": 77}, {"time": 1452, "pitch": 56, "duration": 2, "velocity": 79}, {"time": 1458, "pitch": 37, "duration": 5, "velocity": 92}, {"time": 1458, "pitch": 56, "duration": 2, "velocity": 76}, {"time": 1458, "pitch": 61, "duration": 4, "velocity": 83}, {"time": 1458, "pitch": 64, "duration": 4, "velocity": 81}, {"time": 1464, "pitch": 56, "duration": 2, "velocity": 80}, {"time": 1464, "pitch": 61, "duration": 1, "velocity": 68}, {"time": 1464, "pitch": 64, "duration": 1, "velocity": 63}, {"time": 1470, "pitch": 37, "duration": 4, "velocity": 97}, {"time": 1470, "pitch": 56, "duration": 2, "velocity": 77}, {"time": 1470, "pitch": 61, "duration": 2, "velocity": 82}, {"time": 1470, "pitch": 64, "duration": 3, "velocity": 79}, {"time": 1476, "pitch": 56, "duration": 2, "velocity": 81}, {"time": 1482, "pitch": 37, "duration": 5, "velocity": 82}, {"time": 1482, "pitch": 56, "duration": 2, "velocity": 76}, {"time": 1482, "pitch": 61, "duration": 2, "velocity": 84}, {"time": 1482, "pitch": 64, "duration": 3, "velocity": 81}, {"time": 1488, "pitch": 56, "duration": 2, "velocity": 80}, {"time": 1494, "pitch": 37, "duration": 5, "velocity": 90}, {"time": 1494, "pitch": 56, "duration": 2, "velocity": 75}, {"time": 1494, "pitch": 61, "duration": 7, "velocity": 81}, {"time": 1494, "pitch": 64, "duration": 6, "velocity": 80}, {"time": 1500, "pitch": 56, "duration": 3, "velocity": 81}, {"time": 1506, "pitch": 37, "duration": 5, "velocity": 97}, {"time": 1506, "pitch": 56, "duration": 8, "velocity": 81}, {"time": 1506, "pitch": 61, "duration": 10, "velocity": 86}, {"time": 1506, "pitch": 64, "duration": 9, "velocity": 83}, {"time": 1512, "pitch": 44, "duration": 4, "velocity": 90}, {"time": 1518, "pitch": 42, "duration": 4, "velocity": 82}, {"time": 1518, "pitch": 54, "duration": 2, "velocity": 77}, {"time": 1518, "pitch": 57, "duration": 3, "velocity": 76}, {"time": 1518, "pitch": 61, "duration": 3, "velocity": 82}, {"time": 1524, "pitch": 54, "duration": 2, "velocity": 77}, {"time": 1530, "pitch": 42, "duration": 5, "velocity": 87}, {"time": 1530, "pitch": 54, "duration": 2, "velocity": 81}, {"time": 1530, "pitch": 57, "duration": 3, "velocity": 85}, {"time": 1530, "pitch": 61, "duration": 3, "velocity": 82}, {"time": 1536, "pitch": 54, "duration": 2, "velocity": 81}, {"time": 1542, "pitch": 47, "duration": 4, "velocity": 87}, {"time": 1542, "pitch": 54, "duration": 2, "velocity": 81}, {"time": 1542, "pitch": 59, "duration": 3, "velocity": 86}, {"time": 1542, "pitch": 63, "duration": 3, "velocity": 85}, {"time": 1548, "pitch": 54, "duration": 2, "velocity": 80}, {"time": 1554, "pitch": 47, "duration": 7, "velocity": 95}, {"time": 1554, "pitch": 54, "duration": 2, "velocity": 82}, {"time": 1554, "pitch": 59, "duration": 8, "velocity": 84}, {"time": 1554, "pitch": 63, "duration": 8, "velocity": 83}, {"time": 1560, "pitch": 54, "duration": 2, "velocity": 81}, {"time": 1566, "pitch": 37, "duration": 2, "velocity": 97}, {"time": 1566, "pitch": 56, "duration": 2, "velocity": 81}, {"time": 1566, "pitch": 61, "duration": 3, "velocity": 83}, {"time": 1566, "pitch": 64, "duration": 3, "velocity": 74}, {"time": 1572, "pitch": 56, "duration": 2, "velocity": 79}, {"time": 1578, "pitch": 37, "duration": 2, "velocity": 81}, {"time": 1578, "pitch": 56, "duration": 1, "velocity": 79}, {"time": 1578, "pitch": 61, "duration": 2, "velocity": 85}, {"time": 1578, "pitch": 64, "duration": 2, "velocity": 81}, {"time": 1584, "pitch": 56, "duration": 2, "velocity": 83}, {"time": 1590, "pitch": 37, "duration": 5, "velocity": 92}, {"time": 1590, "pitch": 56, "duration": 2, "velocity": 82}, {"time": 1590, "pitch": 61, "duration": 2, "velocity": 88}, {"time": 1590, "pitch": 64, "duration": 2, "velocity": 82}, {"time": 1596, "pitch": 56, "duration": 3, "velocity": 83}, {"time": 1602, "pitch": 32, "duration": 5, "velocity": 97}, {"time": 1602, "pitch": 56, "duration": 3, "velocity": 81}, {"time": 1602, "pitch": 61, "duration": 4, "velocity": 87}, {"time": 1602, "pitch": 64, "duration": 5, "velocity": 81}, {"time": 1608, "pitch": 35, "duration": 5, "velocity": 97}, {"time": 1608, "pitch": 56, "duration": 4, "velocity": 87}, {"time": 1608, "pitch": 61, "duration": 2, "velocity": 77}, {"time": 1608, "pitch": 64, "duration": 1, "velocity": 74}, {"time": 1614, "pitch": 37, "duration": 3, "velocity": 82}, {"time": 1614, "pitch": 49, "duration": 2, "velocity": 78}, {"time": 1614, "pitch": 56, "duration": 2, "velocity": 77}, {"time": 1614, "pitch": 61, "duration": 2, "velocity": 82}, {"time": 1614, "pitch": 64, "duration": 2, "velocity": 80}, {"time": 1620, "pitch": 56, "duration": 1, "velocity": 81}, {"time": 1620, "pitch": 61, "duration": 1, "velocity": 84}, {"time": 1620, "pitch": 64, "duration": 2, "velocity": 81}, {"time": 1626, "pitch": 37, "duration": 4, "velocity": 83}, {"time": 1626, "pitch": 49, "duration": 3, "velocity": 83}, {"time": 1626, "pitch": 56, "duration": 2, "velocity": 81}, {"time": 1626, "pitch": 61, "duration": 2, "velocity": 83}, {"time": 1626, "pitch": 64, "duration": 2, "velocity": 81}, {"time": 1632, "pitch": 56, "duration": 1, "velocity": 78}, {"time": 1632, "pitch": 61, "duration": 1, "velocity": 83}, {"time": 1632, "pitch": 64, "duration": 2, "velocity": 79}, {"time": 1638, "pitch": 37, "duration": 4, "velocity": 82}, {"time": 1638, "pitch": 49, "duration": 2, "velocity": 82}, {"time": 1638, "pitch": 56, "duration": 1, "velocity": 79}, {"time": 1638, "pitch": 61, "duration": 2, "velocity": 83}, {"time": 1638, "pitch": 64, "duration": 2, "velocity": 80}, {"time": 1644, "pitch": 56, "duration": 1, "velocity": 76}, {"time": 1644, "pitch": 61, "duration": 1, "velocity": 83}, {"time": 1644, "pitch": 64, "duration": 2, "velocity": 79}, {"time": 1650, "pitch": 37, "duration": 5, "velocity": 85}, {"time": 1650, "pitch": 49, "duration": 4, "velocity": 86}, {"time": 1650, "pitch": 56, "duration": 2, "velocity": 82}, {"time": 1650, "pitch": 61, "duration": 2, "velocity": 86}, {"time": 1650, "pitch": 64, "duration": 2, "velocity": 82}, {"time": 1656, "pitch": 56, "duration": 2, "velocity": 81}, {"time": 1656, "pitch": 61, "duration": 2, "velocity": 85}, {"time": 1656, "pitch": 64, "duration": 2, "velocity": 82}, {"time": 1662, "pitch": 37, "duration": 3, "velocity": 85}, {"time": 1662, "pitch": 49, "duration": 3, "velocity": 87}, {"time": 1662, "pitch": 56, "duration": 1, "velocity": 81}, {"time": 1662, "pitch": 61, "duration": 1, "velocity": 84}, {"time": 1662, "pitch": 64, "duration": 2, "velocity": 82}, {"time": 1668, "pitch": 56, "duration": 1, "velocity": 81}, {"time": 1668, "pitch": 61, "duration": 1, "velocity": 86}, {"time": 1668, "pitch": 64, "duration": 2, "velocity": 80}, {"time": 1674, "pitch": 37, "duration": 5, "velocity": 83}, {"time": 1674, "pitch": 49, "duration": 5, "velocity": 84}, {"time": 1674, "pitch": 56, "duration": 2, "velocity": 81}, {"time": 1674, "pitch": 61, "duration": 2, "velocity": 86}, {"time": 1674, "pitch": 64, "duration": 2, "velocity": 81}, {"time": 1680, "pitch": 56, "duration": 1, "velocity": 79}, {"time": 1680, "pitch": 61, "duration": 1, "velocity": 86}, {"time": 1680, "pitch": 64, "duration": 2, "velocity": 82}, {"time": 1686, "pitch": 35, "duration": 3, "velocity": 78}, {"time": 1686, "pitch": 47, "duration": 2, "velocity": 79}, {"time": 1686, "pitch": 54, "duration": 1, "velocity": 82}, {"time": 1686, "pitch": 59, "duration": 1, "velocity": 82}, {"time": 1686, "pitch": 63, "duration": 2, "velocity": 86}, {"time": 1692, "pitch": 54, "duration": 2, "velocity": 82}, {"time": 1692, "pitch": 59, "duration": 2, "velocity": 82}, {"time": 1692, "pitch": 63, "duration": 2, "velocity": 84}, {"time": 1698, "pitch": 35, "duration": 8, "velocity": 76}, {"time": 1698, "pitch": 47, "duration": 8, "velocity": 82}, {"time": 1698, "pitch": 54, "duration": 3, "velocity": 82}, {"time": 1698, "pitch": 59, "duration": 3, "velocity": 83}, {"time": 1698, "pitch": 63, "duration": 3, "velocity": 83}, {"time": 1704, "pitch": 54, "duration": 2, "velocity": 83}, {"time": 1704, "pitch": 59, "duration": 2, "velocity": 82}, {"time": 1704, "pitch": 63, "duration": 2, "velocity": 84}, {"time": 1710, "pitch": 33, "duration": 2, "velocity": 81}, {"time": 1710, "pitch": 45, "duration": 2, "velocity": 81}, {"time": 1710, "pitch": 57, "duration": 3, "velocity": 75}, {"time": 1710, "pitch": 61, "duration": 2, "velocity": 74}, {"time": 1710, "pitch": 64, "duration": 2, "velocity": 77}, {"time": 1710, "pitch": 69, "duration": 2, "velocity": 74}, {"time": 1716, "pitch": 61, "duration": 1, "velocity": 75}, {"time": 1716, "pitch": 64, "duration": 2, "velocity": 77}, {"time": 1716, "pitch": 69, "duration": 2, "velocity": 77}, {"time": 1722, "pitch": 33, "duration": 3, "velocity": 82}, {"time": 1722, "pitch": 45, "duration": 3, "velocity": 82}, {"time": 1722, "pitch": 57, "duration": 4, "velocity": 81}, {"time": 1722, "pitch": 61, "duration": 2, "velocity": 81}, {"time": 1722, "pitch": 64, "duration": 2, "velocity": 83}, {"time": 1722, "pitch": 69, "duration": 2, "velocity": 82}, {"time": 1728, "pitch": 61, "duration": 2, "velocity": 73}, {"time": 1728, "pitch": 64, "duration": 2, "velocity": 76}, {"time": 1728, "pitch": 69, "duration": 2, "velocity": 74}, {"time": 1734, "pitch": 33, "duration": 3, "velocity": 82}, {"time": 1734, "pitch": 45, "duration": 3, "velocity": 82}, {"time": 1734, "pitch": 57, "duration": 4, "velocity": 81}, {"time": 1734, "pitch": 61, "duration": 2, "velocity": 77}, {"time": 1734, "pitch": 64, "duration": 2, "velocity": 81}, {"time": 1734, "pitch": 69, "duration": 2, "velocity": 81}, {"time": 1740, "pitch": 61, "duration": 1, "velocity": 73}, {"time": 1740, "pitch": 64, "duration": 2, "velocity": 77}, {"time": 1740, "pitch": 69, "duration": 2, "velocity": 77}, {"time": 1746, "pitch": 33, "duration": 2, "velocity": 82}, {"time": 1746, "pitch": 45, "duration": 2, "velocity": 82}, {"time": 1746, "pitch": 57, "duration": 2, "velocity": 83}, {"time": 1746, "pitch": 61, "duration": 2, "velocity": 82}, {"time": 1746, "pitch": 64, "duration": 2, "velocity": 83}, {"time": 1746, "pitch": 69, "duration": 3, "velocity": 85}, {"time": 1752, "pitch": 61, "duration": 3, "velocity": 82}, {"time": 1752, "pitch": 64, "duration": 3, "velocity": 82}, {"time": 1752, "pitch": 69, "duration": 3, "velocity": 82}, {"time": 1758, "pitch": 40, "duration": 3, "velocity": 74}, {"time": 1758, "pitch": 52, "duration": 2, "velocity": 80}, {"time": 1758, "pitch": 56, "duration": 2, "velocity": 72}, {"time": 1758, "pitch": 59, "duration": 2, "velocity": 75}, {"time": 1758, "pitch": 64, "duration": 3, "velocity": 76}, {"time": 1764, "pitch": 56, "duration": 2, "velocity": 75}, {"time": 1764, "pitch": 59, "duration": 2, "velocity": 78}, {"time": 1764, "pitch": 64, "duration": 2, "velocity": 79}, {"time": 1770, "pitch": 40, "duration": 3, "velocity": 81}, {"time": 1770, "pitch": 52, "duration": 3, "velocity": 82}, {"time": 1770, "pitch": 56, "duration": 2, "velocity": 78}, {"time": 1770, "pitch": 59, "duration": 2, "velocity": 82}, {"time": 1770, "pitch": 64, "duration": 2, "velocity": 81}, {"time": 1776, "pitch": 56, "duration": 2, "velocity": 80}, {"time": 1776, "pitch": 59, "duration": 2, "velocity": 84}, {"time": 1776, "pitch": 64, "duration": 3, "velocity": 81}, {"time": 1782, "pitch": 30, "duration": 4, "velocity": 84}, {"time": 1782, "pitch": 42, "duration": 4, "velocity": 84}, {"time": 1782, "pitch": 54, "duration": 3, "velocity": 80}, {"time": 1782, "pitch": 66, "duration": 4, "velocity": 78}, {"time": 1788, "pitch": 32, "duration": 6, "velocity": 87}, {"time": 1788, "pitch": 44, "duration": 6, "velocity": 87}, {"time": 1788, "pitch": 56, "duration": 8, "velocity": 81}, {"time": 1788, "pitch": 68, "duration": 12, "velocity": 81}, {"time": 1794, "pitch": 35, "duration": 6, "velocity": 87}, {"time": 1794, "pitch": 47, "duration": 6, "velocity": 97}, {"time": 1800, "pitch": 32, "duration": 6, "velocity": 87}, {"time": 1800, "pitch": 44, "duration": 6, "velocity": 72}, {"time": 1800, "pitch": 56, "duration": 5, "velocity": 82}, {"time": 1800, "pitch": 63, "duration": 6, "velocity": 83}, {"time": 1806, "pitch": 37, "duration": 3, "velocity": 82}, {"time": 1806, "pitch": 49, "duration": 2, "velocity": 77}, {"time": 1806, "pitch": 56, "duration": 2, "velocity": 79}, {"time": 1806, "pitch": 61, "duration": 2, "velocity": 83}, {"time": 1806, "pitch": 64, "duration": 2, "velocity": 83}, {"time": 1812, "pitch": 56, "duration": 2, "velocity": 82}, {"time": 1812, "pitch": 61, "duration": 2, "velocity": 85}, {"time": 1812, "pitch": 64, "duration": 2, "velocity": 82}, {"time": 1818, "pitch": 37, "duration": 3, "velocity": 83}, {"time": 1818, "pitch": 49, "duration": 3, "velocity": 82}, {"time": 1818, "pitch": 56, "duration": 2, "velocity": 82}, {"time": 1818, "pitch": 61, "duration": 2, "velocity": 83}, {"time": 1818, "pitch": 64, "duration": 3, "velocity": 84}, {"time": 1824, "pitch": 56, "duration": 1, "velocity": 79}, {"time": 1824, "pitch": 61, "duration": 1, "velocity": 82}, {"time": 1824, "pitch": 64, "duration": 2, "velocity": 83}, {"time": 1830, "pitch": 37, "duration": 3, "velocity": 84}, {"time": 1830, "pitch": 49, "duration": 3, "velocity": 79}, {"time": 1830, "pitch": 56, "duration": 2, "velocity": 81}, {"time": 1830, "pitch": 61, "duration": 2, "velocity": 84}, {"time": 1830, "pitch": 64, "duration": 2, "velocity": 82}, {"time": 1836, "pitch": 56, "duration": 2, "velocity": 76}, {"time": 1836, "pitch": 61, "duration": 2, "velocity": 81}, {"time": 1836, "pitch": 64, "duration": 2, "velocity": 77}, {"time": 1842, "pitch": 37, "duration": 4, "velocity": 83}, {"time": 1842, "pitch": 49, "duration": 5, "velocity": 83}, {"time": 1842, "pitch": 56, "duration": 2, "velocity": 82}, {"time": 1842, "pitch": 61, "duration": 2, "velocity": 82}, {"time": 1842, "pitch": 64, "duration": 2, "velocity": 82}, {"time": 1848, "pitch": 54, "duration": 3, "velocity": 87}, {"time": 1848, "pitch": 59, "duration": 3, "velocity": 83}, {"time": 1848, "pitch": 63, "duration": 1, "velocity": 81}, {"time": 1854, "pitch": 35, "duration": 2, "velocity": 79}, {"time": 1854, "pitch": 54, "duration": 2, "velocity": 83}, {"time": 1854, "pitch": 59, "duration": 2, "velocity": 82}, {"time": 1854, "pitch": 63, "duration": 2, "velocity": 82}, {"time": 1860, "pitch": 54, "duration": 2, "velocity": 83}, {"time": 1860, "pitch": 59, "duration": 2, "velocity": 84}, {"time": 1860, "pitch": 63, "duration": 2, "velocity": 84}, {"time": 1866, "pitch": 35, "duration": 2, "velocity": 79}, {"time": 1866, "pitch": 47, "duration": 2, "velocity": 85}, {"time": 1866, "pitch": 54, "duration": 2, "velocity": 84}, {"time": 1866, "pitch": 59, "duration": 1, "velocity": 87}, {"time": 1866, "pitch": 63, "duration": 2, "velocity": 87}, {"time": 1872, "pitch": 54, "duration": 2, "velocity": 85}, {"time": 1872, "pitch": 59, "duration": 3, "velocity": 88}, {"time": 1872, "pitch": 63, "duration": 3, "velocity": 90}, {"time": 1878, "pitch": 37, "duration": 3, "velocity": 82}, {"time": 1878, "pitch": 49, "duration": 2, "velocity": 82}, {"time": 1878, "pitch": 61, "duration": 4, "velocity": 82}, {"time": 1878, "pitch": 64, "duration": 4, "velocity": 85}, {"time": 1884, "pitch": 35, "duration": 10, "velocity": 81}, {"time": 1884, "pitch": 47, "duration": 9, "velocity": 83}, {"time": 1884, "pitch": 59, "duration": 10, "velocity": 79}, {"time": 1884, "pitch": 63, "duration": 9, "velocity": 87}, {"time": 1896, "pitch": 35, "duration": 4, "velocity": 78}, {"time": 1896, "pitch": 47, "duration": 4, "velocity": 81}, {"time": 1896, "pitch": 59, "duration": 6, "velocity": 77}, {"time": 1896, "pitch": 63, "duration": 5, "velocity": 83}, {"time": 1902, "pitch": 33, "duration": 6, "velocity": 85}, {"time": 1902, "pitch": 45, "duration": 6, "velocity": 85}, {"time": 1902, "pitch": 57, "duration": 2, "velocity": 82}, {"time": 1902, "pitch": 61, "duration": 2, "velocity": 82}, {"time": 1902, "pitch": 64, "duration": 2, "velocity": 80}, {"time": 1908, "pitch": 57, "duration": 2, "velocity": 77}, {"time": 1908, "pitch": 61, "duration": 2, "velocity": 76}, {"time": 1908, "pitch": 64, "duration": 2, "velocity": 74}, {"time": 1914, "pitch": 33, "duration": 3, "velocity": 95}, {"time": 1914, "pitch": 45, "duration": 3, "velocity": 95}, {"time": 1914, "pitch": 57, "duration": 2, "velocity": 84}, {"time": 1914, "pitch": 61, "duration": 1, "velocity": 82}, {"time": 1914, "pitch": 64, "duration": 2, "velocity": 79}, {"time": 1920, "pitch": 57, "duration": 2, "velocity": 83}, {"time": 1920, "pitch": 61, "duration": 2, "velocity": 81}, {"time": 1920, "pitch": 64, "duration": 2, "velocity": 75}, {"time": 1926, "pitch": 35, "duration": 2, "velocity": 88}, {"time": 1926, "pitch": 47, "duration": 2, "velocity": 88}, {"time": 1926, "pitch": 59, "duration": 1, "velocity": 78}, {"time": 1926, "pitch": 63, "duration": 1, "velocity": 82}, {"time": 1926, "pitch": 66, "duration": 1, "velocity": 75}, {"time": 1932, "pitch": 59, "duration": 2, "velocity": 78}, {"time": 1932, "pitch": 63, "duration": 1, "velocity": 80}, {"time": 1932, "pitch": 66, "duration": 2, "velocity": 77}, {"time": 1938, "pitch": 35, "duration": 7, "velocity": 88}, {"time": 1938, "pitch": 47, "duration": 7, "velocity": 88}, {"time": 1938, "pitch": 59, "duration": 2, "velocity": 76}, {"time": 1938, "pitch": 63, "duration": 2, "velocity": 81}, {"time": 1938, "pitch": 66, "duration": 2, "velocity": 74}, {"time": 1944, "pitch": 59, "duration": 7, "velocity": 83}, {"time": 1944, "pitch": 63, "duration": 7, "velocity": 85}, {"time": 1944, "pitch": 66, "duration": 8, "velocity": 82}, {"time": 1950, "pitch": 35, "duration": 2, "velocity": 82}, {"time": 1950, "pitch": 47, "duration": 2, "velocity": 82}, {"time": 1956, "pitch": 59, "duration": 2, "velocity": 81}, {"time": 1956, "pitch": 63, "duration": 2, "velocity": 82}, {"time": 1956, "pitch": 66, "duration": 2, "velocity": 77}, {"time": 1962, "pitch": 35, "duration": 4, "velocity": 88}, {"time": 1962, "pitch": 47, "duration": 4, "velocity": 88}, {"time": 1962, "pitch": 59, "duration": 2, "velocity": 77}, {"time": 1962, "pitch": 63, "duration": 2, "velocity": 82}, {"time": 1962, "pitch": 66, "duration": 2, "velocity": 75}, {"time": 1968, "pitch": 59, "duration": 2, "velocity": 82}, {"time": 1968, "pitch": 63, "duration": 2, "velocity": 83}, {"time": 1968, "pitch": 66, "duration": 3, "velocity": 81}, {"time": 1974, "pitch": 35, "duration": 4, "velocity": 83}, {"time": 1974, "pitch": 47, "duration": 4, "velocity": 83}, {"time": 1974, "pitch": 59, "duration": 2, "velocity": 74}, {"time": 1974, "pitch": 63, "duration": 2, "velocity": 78}, {"time": 1974, "pitch": 66, "duration": 2, "velocity": 74}, {"time": 1980, "pitch": 59, "duration": 9, "velocity": 83}, {"time": 1980, "pitch": 63, "duration": 9, "velocity": 90}, {"time": 1980, "pitch": 66, "duration": 9, "velocity": 82}, {"time": 1986, "pitch": 35, "duration": 7, "velocity": 102}, {"time": 1986, "pitch": 47, "duration": 7, "velocity": 102}, {"time": 1992, "pitch": 59, "duration": 3, "velocity": 82}, {"time": 1992, "pitch": 63, "duration": 3, "velocity": 88}, {"time": 1992, "pitch": 66, "duration": 3, "velocity": 82}, {"time": 1998, "pitch": 42, "duration": 3, "velocity": 77}, {"time": 1998, "pitch": 54, "duration": 2, "velocity": 71}, {"time": 1998, "pitch": 61, "duration": 2, "velocity": 75}, {"time": 1998, "pitch": 66, "duration": 2, "velocity": 73}, {"time": 1998, "pitch": 69, "duration": 2, "velocity": 72}, {"time": 2004, "pitch": 61, "duration": 1, "velocity": 76}, {"time": 2004, "pitch": 66, "duration": 1, "velocity": 80}, {"time": 2004, "pitch": 69, "duration": 2, "velocity": 73}, {"time": 2010, "pitch": 42, "duration": 2, "velocity": 82}, {"time": 2010, "pitch": 54, "duration": 2, "velocity": 84}, {"time": 2010, "pitch": 61, "duration": 1, "velocity": 82}, {"time": 2010, "pitch": 66, "duration": 1, "velocity": 83}, {"time": 2010, "pitch": 69, "duration": 2, "velocity": 83}, {"time": 2016, "pitch": 61, "duration": 1, "velocity": 80}, {"time": 2016, "pitch": 66, "duration": 2, "velocity": 82}, {"time": 2016, "pitch": 69, "duration": 2, "velocity": 76}, {"time": 2022, "pitch": 42, "duration": 2, "velocity": 81}, {"time": 2022, "pitch": 54, "duration": 2, "velocity": 79}, {"time": 2022, "pitch": 61, "duration": 1, "velocity": 77}, {"time": 2022, "pitch": 66, "duration": 1, "velocity": 81}, {"time": 2022, "pitch": 69, "duration": 2, "velocity": 82}, {"time": 2028, "pitch": 61, "duration": 1, "velocity": 81}, {"time": 2028, "pitch": 66, "duration": 1, "velocity": 82}, {"time": 2028, "pitch": 69, "duration": 2, "velocity": 82}, {"time": 2034, "pitch": 42, "duration": 2, "velocity": 81}, {"time": 2034, "pitch": 54, "duration": 2, "velocity": 83}, {"time": 2034, "pitch": 61, "duration": 1, "velocity": 82}, {"time": 2034, "pitch": 66, "duration": 1, "velocity": 83}, {"time": 2034, "pitch": 69, "duration": 2, "velocity": 83}, {"time": 2040, "pitch": 61, "duration": 1, "velocity": 80}, {"time": 2040, "pitch": 66, "duration": 1, "velocity": 82}, {"time": 2040, "pitch": 69, "duration": 2, "velocity": 82}, {"time": 2046, "pitch": 42, "duration": 2, "velocity": 80}, {"time": 2046, "pitch": 54, "duration": 2, "velocity": 81}, {"time": 2046, "pitch": 61, "duration": 1, "velocity": 81}, {"time": 2046, "pitch": 66, "duration": 2, "velocity": 82}, {"time": 2046, "pitch": 69, "duration": 2, "velocity": 82}, {"time": 2052, "pitch": 61, "duration": 1, "velocity": 81}, {"time": 2052, "pitch": 66, "duration": 1, "velocity": 83}, {"time": 2052, "pitch": 69, "duration": 2, "velocity": 82}, {"time": 2058, "pitch": 42, "duration": 2, "velocity": 81}, {"time": 2058, "pitch": 54, "duration": 2, "velocity": 82}, {"time": 2058, "pitch": 61, "duration": 1, "velocity": 81}, {"time": 2058, "pitch": 66, "duration": 1, "velocity": 82}, {"time": 2058, "pitch": 69, "duration": 2, "velocity": 82}, {"time": 2064, "pitch": 61, "duration": 2, "velocity": 80}, {"time": 2064, "pitch": 66, "duration": 2, "velocity": 83}, {"time": 2064, "pitch": 69, "duration": 2, "velocity": 83}, {"time": 2070, "pitch": 42, "duration": 2, "velocity": 81}, {"time": 2070, "pitch": 54, "duration": 2, "velocity": 81}, {"time": 2070, "pitch": 61, "duration": 2, "velocity": 80}, {"time": 2070, "pitch": 66, "duration": 2, "velocity": 83}, {"time": 2070, "pitch": 69, "duration": 2, "velocity": 82}, {"time": 2076, "pitch": 61, "duration": 1, "velocity": 81}, {"time": 2076, "pitch": 66, "duration": 2, "velocity": 83}, {"time": 2076, "pitch": 69, "duration": 2, "velocity": 82}, {"time": 2082, "pitch": 42, "duration": 2, "velocity": 81}, {"time": 2082, "pitch": 54, "duration": 3, "velocity": 83}, {"time": 2082, "pitch": 61, "duration": 2, "velocity": 80}, {"time": 2082, "pitch": 66, "duration": 2, "velocity": 82}, {"time": 2082, "pitch": 69, "duration": 2, "velocity": 84}, {"time": 2088, "pitch": 61, "duration": 2, "velocity": 79}, {"time": 2088, "pitch": 66, "duration": 1, "velocity": 81}, {"time": 2088, "pitch": 69, "duration": 2, "velocity": 79}, {"time": 2094, "pitch": 40, "duration": 3, "velocity": 80}, {"time": 2094, "pitch": 52, "duration": 3, "velocity": 81}, {"time": 2094, "pitch": 59, "duration": 2, "velocity": 81}, {"time": 2094, "pitch": 64, "duration": 2, "velocity": 81}, {"time": 2094, "pitch": 68, "duration": 2, "velocity": 81}, {"time": 2100, "pitch": 59, "duration": 1, "velocity": 81}, {"time": 2100, "pitch": 64, "duration": 1, "velocity": 81}, {"time": 2100, "pitch": 68, "duration": 2, "velocity": 81}, {"time": 2106, "pitch": 40, "duration": 4, "velocity": 81}, {"time": 2106, "pitch": 52, "duration": 4, "velocity": 82}, {"time": 2106, "pitch": 59, "duration": 2, "velocity": 82}, {"time": 2106, "pitch": 64, "duration": 2, "velocity": 82}, {"time": 2106, "pitch": 68, "duration": 2, "velocity": 82}, {"time": 2112, "pitch": 59, "duration": 2, "velocity": 85}, {"time": 2112, "pitch": 64, "duration": 2, "velocity": 87}, {"time": 2112, "pitch": 68, "duration": 2, "velocity": 86}, {"time": 2118, "pitch": 44, "duration": 6, "velocity": 81}, {"time": 2118, "pitch": 56, "duration": 6, "velocity": 75}, {"time": 2118, "pitch": 59, "duration": 2, "velocity": 72}, {"time": 2118, "pitch": 63, "duration": 3, "velocity": 78}, {"time": 2118, "pitch": 68, "duration": 3, "velocity": 77}, {"time": 2124, "pitch": 59, "duration": 2, "velocity": 77}, {"time": 2130, "pitch": 32, "duration": 5, "velocity": 88}, {"time": 2130, "pitch": 44, "duration": 5, "velocity": 88}, {"time": 2130, "pitch": 59, "duration": 3, "velocity": 79}, {"time": 2130, "pitch": 63, "duration": 4, "velocity": 84}, {"time": 2130, "pitch": 66, "duration": 6, "velocity": 82}, {"time": 2136, "pitch": 37, "duration": 47, "velocity": 82}, {"time": 2136, "pitch": 49, "duration": 47, "velocity": 82}, {"time": 2136, "pitch": 61, "duration": 47, "velocity": 77}, {"time": 2136, "pitch": 64, "duration": 48, "velocity": 80}, {"time": 2136, "pitch": 68, "duration": 49, "velocity": 78}, {"time": 2190, "pitch": 37, "duration": 6, "velocity": 87}, {"time": 2190, "pitch": 56, "duration": 5, "velocity": 73}, {"time": 2190, "pitch": 61, "duration": 5, "velocity": 77}, {"time": 2190, "pitch": 64, "duration": 5, "velocity": 79}, {"time": 2202, "pitch": 37, "duration": 4, "velocity": 85}, {"time": 2202, "pitch": 56, "duration": 4, "velocity": 73}, {"time": 2202, "pitch": 61, "duration": 3, "velocity": 78}, {"time": 2202, "pitch": 64, "duration": 4, "velocity": 81}, {"time": 2214, "pitch": 37, "duration": 3, "velocity": 85}, {"time": 2214, "pitch": 56, "duration": 3, "velocity": 73}, {"time": 2214, "pitch": 61, "duration": 3, "velocity": 75}, {"time": 2214, "pitch": 64, "duration": 4, "velocity": 74}, {"time": 2226, "pitch": 37, "duration": 4, "velocity": 85}, {"time": 2226, "pitch": 56, "duration": 5, "velocity": 76}, {"time": 2226, "pitch": 61, "duration": 4, "velocity": 78}, {"time": 2226, "pitch": 64, "duration": 5, "velocity": 77}, {"time": 2238, "pitch": 44, "duration": 5, "velocity": 82}, {"time": 2238, "pitch": 56, "duration": 6, "velocity": 72}, {"time": 2238, "pitch": 63, "duration": 5, "velocity": 83}, {"time": 2250, "pitch": 44, "duration": 4, "velocity": 81}, {"time": 2250, "pitch": 56, "duration": 4, "velocity": 75}, {"time": 2250, "pitch": 63, "duration": 4, "velocity": 83}, {"time": 2262, "pitch": 44, "duration": 5, "velocity": 82}, {"time": 2262, "pitch": 56, "duration": 4, "velocity": 73}, {"time": 2262, "pitch": 59, "duration": 4, "velocity": 74}, {"time": 2262, "pitch": 63, "duration": 4, "velocity": 81}, {"time": 2274, "pitch": 44, "duration": 7, "velocity": 82}, {"time": 2274, "pitch": 56, "duration": 7, "velocity": 73}, {"time": 2274, "pitch": 59, "duration": 7, "velocity": 76}, {"time": 2274, "pitch": 63, "duration": 7, "velocity": 82}, {"time": 2286, "pitch": 45, "duration": 3, "velocity": 81}, {"time": 2286, "pitch": 57, "duration": 5, "velocity": 80}, {"time": 2286, "pitch": 61, "duration": 5, "velocity": 81}, {"time": 2298, "pitch": 45, "duration": 2, "velocity": 76}, {"time": 2298, "pitch": 57, "duration": 3, "velocity": 71}, {"time": 2298, "pitch": 61, "duration": 3, "velocity": 75}, {"time": 2298, "pitch": 64, "duration": 3, "velocity": 75}, {"time": 2310, "pitch": 45, "duration": 2, "velocity": 83}, {"time": 2310, "pitch": 57, "duration": 3, "velocity": 76}, {"time": 2310, "pitch": 61, "duration": 3, "velocity": 77}, {"time": 2310, "pitch": 64, "duration": 6, "velocity": 77}, {"time": 2322, "pitch": 45, "duration": 3, "velocity": 83}, {"time": 2322, "pitch": 57, "duration": 3, "velocity": 82}, {"time": 2322, "pitch": 61, "duration": 4, "velocity": 80}, {"time": 2322, "pitch": 64, "duration": 5, "velocity": 77}, {"time": 2334, "pitch": 44, "duration": 4, "velocity": 82}, {"time": 2334, "pitch": 56, "duration": 4, "velocity": 76}, {"time": 2334, "pitch": 63, "duration": 4, "velocity": 81}, {"time": 2346, "pitch": 44, "duration": 4, "velocity": 82}, {"time": 2346, "pitch": 56, "duration": 4, "velocity": 78}, {"time": 2346, "pitch": 63, "duration": 4, "velocity": 77}, {"time": 2358, "pitch": 44, "duration": 4, "velocity": 82}, {"time": 2358, "pitch": 56, "duration": 4, "velocity": 76}, {"time": 2358, "pitch": 63, "duration": 4, "velocity": 81}, {"time": 2370, "pitch": 44, "duration": 10, "velocity": 83}, {"time": 2370, "pitch": 56, "duration": 4, "velocity": 80}, {"time": 2370, "pitch": 60, "duration": 7, "velocity": 85}, {"time": 2370, "pitch": 63, "duration": 10, "velocity": 83}, {"time": 2376, "pitch": 56, "duration": 4, "velocity": 83}, {"time": 2380, "pitch": 56, "duration": 1, "velocity": 79}, {"time": 2381, "pitch": 37, "duration": 82, "velocity": 86}, {"time": 2382, "pitch": 61, "duration": 82, "velocity": 76}], "annotations": [{"time": 251, "annotation": {"number": 64, "value": 127}, "group": "control_change"}, {"time": 265, "annotation": {"number": 64, "value": 0}, "group": "control_change"}, {"time": 822, "annotation": {"number": 64, "value": 127}, "group": "control_change"}, {"time": 829, "annotation": {"number": 64, "value": 0}, "group": "control_change"}, {"time": 1782, "annotation": {"number": 64, "value": 127}, "group": "control_change"}, {"time": 1789, "annotation": {"number": 64, "value": 0}, "group": "control_change"}]}]}