{"metadata": {"schema_version": "0.2", "title": "None", "source_filename": "656.mid", "source_format": "midi"}, "resolution": 12, "tempos": [{"time": 0, "qpm": 100.0}, {"time": 1446, "qpm": 99.25000082708334}, {"time": 1677, "qpm": 99.75029176960342}, {"time": 1721, "qpm": 100.0}, {"time": 4138, "qpm": 99.50001243750155}, {"time": 4176, "qpm": 99.000099000099}, {"time": 4272, "qpm": 100.0}], "time_signatures": [{"time": 0, "numerator": 1, "denominator": 4}], "tracks": [{"program": 0, "is_drum": false, "name": "MELODY", "notes": [{"time": 518, "pitch": 76, "duration": 3, "velocity": 95}, {"time": 524, "pitch": 73, "duration": 3, "velocity": 87}, {"time": 530, "pitch": 76, "duration": 3, "velocity": 93}, {"time": 536, "pitch": 73, "duration": 3, "velocity": 87}, {"time": 542, "pitch": 76, "duration": 3, "velocity": 95}, {"time": 548, "pitch": 76, "duration": 5, "velocity": 103}, {"time": 566, "pitch": 75, "duration": 3, "velocity": 95}, {"time": 572, "pitch": 75, "duration": 3, "velocity": 93}, {"time": 578, "pitch": 75, "duration": 4, "velocity": 90}, {"time": 584, "pitch": 76, "duration": 4, "velocity": 87}, {"time": 590, "pitch": 75, "duration": 14, "velocity": 103}, {"time": 614, "pitch": 76, "duration": 4, "velocity": 102}, {"time": 620, "pitch": 73, "duration": 4, "velocity": 93}, {"time": 626, "pitch": 76, "duration": 3, "velocity": 103}, {"time": 632, "pitch": 73, "duration": 3, "velocity": 95}, {"time": 638, "pitch": 76, "duration": 18, "velocity": 102}, {"time": 662, "pitch": 75, "duration": 3, "velocity": 87}, {"time": 668, "pitch": 75, "duration": 4, "velocity": 93}, {"time": 674, "pitch": 75, "duration": 3, "velocity": 93}, {"time": 680, "pitch": 76, "duration": 4, "velocity": 102}, {"time": 686, "pitch": 75, "duration": 15, "velocity": 102}, {"time": 710, "pitch": 76, "duration": 4, "velocity": 102}, {"time": 716, "pitch": 73, "duration": 4, "velocity": 93}, {"time": 722, "pitch": 76, "duration": 4, "velocity": 102}, {"time": 728, "pitch": 73, "duration": 3, "velocity": 102}, {"time": 734, "pitch": 76, "duration": 6, "velocity": 102}, {"time": 740, "pitch": 76, "duration": 12, "velocity": 102}, {"time": 758, "pitch": 80, "duration": 2, "velocity": 87}, {"time": 764, "pitch": 80, "duration": 3, "velocity": 80}, {"time": 770, "pitch": 80, "duration": 4, "velocity": 87}, {"time": 776, "pitch": 78, "duration": 4, "velocity": 93}, {"time": 782, "pitch": 75, "duration": 12, "velocity": 95}, {"time": 794, "pitch": 73, "duration": 4, "velocity": 93}, {"time": 800, "pitch": 71, "duration": 4, "velocity": 87}, {"time": 806, "pitch": 73, "duration": 10, "velocity": 93}, {"time": 818, "pitch": 76, "duration": 9, "velocity": 105}, {"time": 830, "pitch": 76, "duration": 4, "velocity": 105}, {"time": 836, "pitch": 76, "duration": 18, "velocity": 102}, {"time": 854, "pitch": 80, "duration": 4, "velocity": 93}, {"time": 860, "pitch": 80, "duration": 3, "velocity": 93}, {"time": 866, "pitch": 80, "duration": 4, "velocity": 102}, {"time": 872, "pitch": 83, "duration": 3, "velocity": 102}, {"time": 878, "pitch": 80, "duration": 9, "velocity": 103}, {"time": 890, "pitch": 76, "duration": 4, "velocity": 105}, {"time": 896, "pitch": 78, "duration": 4, "velocity": 102}, {"time": 902, "pitch": 80, "duration": 3, "velocity": 87}, {"time": 914, "pitch": 80, "duration": 5, "velocity": 93}, {"time": 926, "pitch": 80, "duration": 6, "velocity": 93}, {"time": 938, "pitch": 78, "duration": 3, "velocity": 93}, {"time": 944, "pitch": 76, "duration": 3, "velocity": 103}, {"time": 950, "pitch": 78, "duration": 4, "velocity": 103}, {"time": 962, "pitch": 78, "duration": 5, "velocity": 87}, {"time": 968, "pitch": 80, "duration": 3, "velocity": 90}, {"time": 974, "pitch": 78, "duration": 7, "velocity": 95}, {"time": 986, "pitch": 76, "duration": 4, "velocity": 87}, {"time": 992, "pitch": 78, "duration": 4, "velocity": 87}, {"time": 998, "pitch": 80, "duration": 4, "velocity": 87}, {"time": 1004, "pitch": 73, "duration": 3, "velocity": 90}, {"time": 1010, "pitch": 73, "duration": 3, "velocity": 93}, {"time": 1016, "pitch": 80, "duration": 3, "velocity": 93}, {"time": 1022, "pitch": 80, "duration": 3, "velocity": 95}, {"time": 1028, "pitch": 73, "duration": 3, "velocity": 102}, {"time": 1034, "pitch": 73, "duration": 3, "velocity": 103}, {"time": 1046, "pitch": 80, "duration": 4, "velocity": 85}, {"time": 1052, "pitch": 80, "duration": 3, "velocity": 87}, {"time": 1058, "pitch": 80, "duration": 4, "velocity": 87}, {"time": 1064, "pitch": 83, "duration": 3, "velocity": 93}, {"time": 1070, "pitch": 80, "duration": 8, "velocity": 103}, {"time": 1082, "pitch": 76, "duration": 3, "velocity": 102}, {"time": 1088, "pitch": 78, "duration": 3, "velocity": 85}, {"time": 1094, "pitch": 80, "duration": 3, "velocity": 95}, {"time": 1106, "pitch": 80, "duration": 4, "velocity": 93}, {"time": 1118, "pitch": 80, "duration": 5, "velocity": 93}, {"time": 1130, "pitch": 78, "duration": 3, "velocity": 93}, {"time": 1136, "pitch": 76, "duration": 3, "velocity": 105}, {"time": 1142, "pitch": 78, "duration": 12, "velocity": 95}, {"time": 1154, "pitch": 78, "duration": 4, "velocity": 95}, {"time": 1160, "pitch": 80, "duration": 3, "velocity": 90}, {"time": 1166, "pitch": 78, "duration": 7, "velocity": 103}, {"time": 1178, "pitch": 76, "duration": 3, "velocity": 93}, {"time": 1184, "pitch": 78, "duration": 3, "velocity": 87}, {"time": 1190, "pitch": 80, "duration": 3, "velocity": 93}, {"time": 1196, "pitch": 73, "duration": 3, "velocity": 93}, {"time": 1202, "pitch": 73, "duration": 3, "velocity": 102}, {"time": 1208, "pitch": 80, "duration": 3, "velocity": 90}, {"time": 1214, "pitch": 80, "duration": 4, "velocity": 95}, {"time": 1220, "pitch": 73, "duration": 6, "velocity": 102}, {"time": 1238, "pitch": 80, "duration": 9, "velocity": 95}, {"time": 1250, "pitch": 80, "duration": 4, "velocity": 93}, {"time": 1256, "pitch": 78, "duration": 4, "velocity": 95}, {"time": 1262, "pitch": 80, "duration": 23, "velocity": 95}, {"time": 1478, "pitch": 76, "duration": 3, "velocity": 95}, {"time": 1484, "pitch": 73, "duration": 3, "velocity": 87}, {"time": 1490, "pitch": 76, "duration": 3, "velocity": 93}, {"time": 1496, "pitch": 73, "duration": 3, "velocity": 87}, {"time": 1502, "pitch": 76, "duration": 3, "velocity": 95}, {"time": 1508, "pitch": 73, "duration": 4, "velocity": 93}, {"time": 1514, "pitch": 76, "duration": 4, "velocity": 105}, {"time": 1520, "pitch": 78, "duration": 3, "velocity": 95}, {"time": 1526, "pitch": 75, "duration": 3, "velocity": 95}, {"time": 1532, "pitch": 75, "duration": 3, "velocity": 93}, {"time": 1538, "pitch": 75, "duration": 4, "velocity": 90}, {"time": 1544, "pitch": 76, "duration": 4, "velocity": 87}, {"time": 1550, "pitch": 75, "duration": 14, "velocity": 103}, {"time": 1574, "pitch": 76, "duration": 4, "velocity": 102}, {"time": 1580, "pitch": 73, "duration": 4, "velocity": 93}, {"time": 1586, "pitch": 76, "duration": 3, "velocity": 103}, {"time": 1592, "pitch": 73, "duration": 3, "velocity": 95}, {"time": 1598, "pitch": 76, "duration": 18, "velocity": 102}, {"time": 1616, "pitch": 76, "duration": 6, "velocity": 100}, {"time": 1622, "pitch": 75, "duration": 3, "velocity": 87}, {"time": 1628, "pitch": 75, "duration": 4, "velocity": 93}, {"time": 1634, "pitch": 75, "duration": 3, "velocity": 93}, {"time": 1640, "pitch": 76, "duration": 4, "velocity": 102}, {"time": 1646, "pitch": 75, "duration": 12, "velocity": 102}, {"time": 1658, "pitch": 73, "duration": 4, "velocity": 69}, {"time": 1664, "pitch": 71, "duration": 4, "velocity": 87}, {"time": 1670, "pitch": 73, "duration": 12, "velocity": 95}, {"time": 1682, "pitch": 76, "duration": 9, "velocity": 102}, {"time": 1694, "pitch": 76, "duration": 4, "velocity": 95}, {"time": 1700, "pitch": 76, "duration": 12, "velocity": 105}, {"time": 1718, "pitch": 80, "duration": 12, "velocity": 87}, {"time": 1736, "pitch": 78, "duration": 4, "velocity": 93}, {"time": 1742, "pitch": 75, "duration": 12, "velocity": 95}, {"time": 1754, "pitch": 73, "duration": 4, "velocity": 93}, {"time": 1760, "pitch": 71, "duration": 4, "velocity": 87}, {"time": 1766, "pitch": 73, "duration": 10, "velocity": 93}, {"time": 1778, "pitch": 76, "duration": 9, "velocity": 105}, {"time": 1790, "pitch": 76, "duration": 4, "velocity": 105}, {"time": 1796, "pitch": 76, "duration": 18, "velocity": 102}, {"time": 1814, "pitch": 80, "duration": 4, "velocity": 93}, {"time": 1820, "pitch": 80, "duration": 3, "velocity": 93}, {"time": 1826, "pitch": 80, "duration": 4, "velocity": 102}, {"time": 1832, "pitch": 83, "duration": 3, "velocity": 102}, {"time": 1838, "pitch": 80, "duration": 9, "velocity": 103}, {"time": 1850, "pitch": 76, "duration": 4, "velocity": 105}, {"time": 1856, "pitch": 78, "duration": 4, "velocity": 102}, {"time": 1862, "pitch": 80, "duration": 3, "velocity": 87}, {"time": 1874, "pitch": 80, "duration": 5, "velocity": 93}, {"time": 1886, "pitch": 80, "duration": 6, "velocity": 93}, {"time": 1898, "pitch": 78, "duration": 3, "velocity": 93}, {"time": 1904, "pitch": 76, "duration": 3, "velocity": 103}, {"time": 1910, "pitch": 78, "duration": 4, "velocity": 103}, {"time": 1922, "pitch": 78, "duration": 5, "velocity": 87}, {"time": 1928, "pitch": 80, "duration": 3, "velocity": 90}, {"time": 1934, "pitch": 78, "duration": 7, "velocity": 95}, {"time": 1946, "pitch": 76, "duration": 4, "velocity": 87}, {"time": 1952, "pitch": 78, "duration": 4, "velocity": 87}, {"time": 1958, "pitch": 80, "duration": 4, "velocity": 87}, {"time": 1964, "pitch": 73, "duration": 3, "velocity": 90}, {"time": 1970, "pitch": 73, "duration": 3, "velocity": 93}, {"time": 1976, "pitch": 80, "duration": 3, "velocity": 93}, {"time": 1982, "pitch": 80, "duration": 3, "velocity": 95}, {"time": 1988, "pitch": 73, "duration": 3, "velocity": 102}, {"time": 1994, "pitch": 73, "duration": 3, "velocity": 103}, {"time": 2006, "pitch": 80, "duration": 4, "velocity": 85}, {"time": 2012, "pitch": 80, "duration": 3, "velocity": 87}, {"time": 2018, "pitch": 80, "duration": 4, "velocity": 87}, {"time": 2024, "pitch": 83, "duration": 3, "velocity": 93}, {"time": 2030, "pitch": 80, "duration": 8, "velocity": 103}, {"time": 2042, "pitch": 76, "duration": 3, "velocity": 102}, {"time": 2048, "pitch": 78, "duration": 3, "velocity": 85}, {"time": 2054, "pitch": 80, "duration": 3, "velocity": 95}, {"time": 2066, "pitch": 80, "duration": 4, "velocity": 93}, {"time": 2078, "pitch": 80, "duration": 5, "velocity": 93}, {"time": 2090, "pitch": 78, "duration": 3, "velocity": 93}, {"time": 2096, "pitch": 76, "duration": 3, "velocity": 105}, {"time": 2102, "pitch": 78, "duration": 12, "velocity": 95}, {"time": 2114, "pitch": 78, "duration": 4, "velocity": 95}, {"time": 2120, "pitch": 80, "duration": 3, "velocity": 90}, {"time": 2126, "pitch": 78, "duration": 7, "velocity": 103}, {"time": 2138, "pitch": 76, "duration": 3, "velocity": 93}, {"time": 2144, "pitch": 78, "duration": 3, "velocity": 87}, {"time": 2150, "pitch": 80, "duration": 3, "velocity": 93}, {"time": 2156, "pitch": 73, "duration": 3, "velocity": 93}, {"time": 2162, "pitch": 73, "duration": 3, "velocity": 102}, {"time": 2168, "pitch": 80, "duration": 3, "velocity": 90}, {"time": 2174, "pitch": 80, "duration": 4, "velocity": 95}, {"time": 2180, "pitch": 73, "duration": 6, "velocity": 102}, {"time": 2198, "pitch": 80, "duration": 9, "velocity": 95}, {"time": 2210, "pitch": 80, "duration": 4, "velocity": 93}, {"time": 2216, "pitch": 78, "duration": 4, "velocity": 95}, {"time": 2222, "pitch": 75, "duration": 12, "velocity": 95}, {"time": 2234, "pitch": 63, "duration": 5, "velocity": 105}, {"time": 2240, "pitch": 64, "duration": 3, "velocity": 87}, {"time": 2243, "pitch": 63, "duration": 2, "velocity": 93}, {"time": 2246, "pitch": 61, "duration": 30, "velocity": 105}, {"time": 2534, "pitch": 76, "duration": 3, "velocity": 95}, {"time": 2540, "pitch": 73, "duration": 3, "velocity": 87}, {"time": 2546, "pitch": 76, "duration": 3, "velocity": 93}, {"time": 2552, "pitch": 73, "duration": 3, "velocity": 87}, {"time": 2558, "pitch": 76, "duration": 3, "velocity": 95}, {"time": 2564, "pitch": 76, "duration": 5, "velocity": 103}, {"time": 2582, "pitch": 75, "duration": 3, "velocity": 95}, {"time": 2588, "pitch": 75, "duration": 3, "velocity": 93}, {"time": 2594, "pitch": 75, "duration": 4, "velocity": 90}, {"time": 2600, "pitch": 76, "duration": 4, "velocity": 87}, {"time": 2606, "pitch": 75, "duration": 14, "velocity": 103}, {"time": 2630, "pitch": 76, "duration": 4, "velocity": 102}, {"time": 2636, "pitch": 73, "duration": 4, "velocity": 93}, {"time": 2642, "pitch": 76, "duration": 3, "velocity": 103}, {"time": 2648, "pitch": 73, "duration": 3, "velocity": 95}, {"time": 2654, "pitch": 76, "duration": 18, "velocity": 102}, {"time": 2678, "pitch": 75, "duration": 3, "velocity": 87}, {"time": 2684, "pitch": 75, "duration": 4, "velocity": 93}, {"time": 2690, "pitch": 75, "duration": 3, "velocity": 93}, {"time": 2696, "pitch": 76, "duration": 4, "velocity": 102}, {"time": 2702, "pitch": 75, "duration": 15, "velocity": 102}, {"time": 2726, "pitch": 76, "duration": 4, "velocity": 102}, {"time": 2732, "pitch": 73, "duration": 4, "velocity": 93}, {"time": 2738, "pitch": 76, "duration": 4, "velocity": 102}, {"time": 2744, "pitch": 73, "duration": 3, "velocity": 102}, {"time": 2750, "pitch": 76, "duration": 6, "velocity": 102}, {"time": 2756, "pitch": 76, "duration": 12, "velocity": 102}, {"time": 2774, "pitch": 80, "duration": 2, "velocity": 87}, {"time": 2780, "pitch": 80, "duration": 3, "velocity": 80}, {"time": 2786, "pitch": 80, "duration": 4, "velocity": 87}, {"time": 2792, "pitch": 78, "duration": 4, "velocity": 93}, {"time": 2798, "pitch": 75, "duration": 12, "velocity": 95}, {"time": 2810, "pitch": 73, "duration": 4, "velocity": 93}, {"time": 2816, "pitch": 71, "duration": 4, "velocity": 87}, {"time": 2822, "pitch": 73, "duration": 10, "velocity": 93}, {"time": 2834, "pitch": 76, "duration": 9, "velocity": 105}, {"time": 2846, "pitch": 76, "duration": 4, "velocity": 105}, {"time": 2852, "pitch": 76, "duration": 18, "velocity": 102}, {"time": 2870, "pitch": 80, "duration": 4, "velocity": 93}, {"time": 2876, "pitch": 80, "duration": 3, "velocity": 93}, {"time": 2882, "pitch": 80, "duration": 4, "velocity": 102}, {"time": 2888, "pitch": 83, "duration": 3, "velocity": 102}, {"time": 2894, "pitch": 80, "duration": 9, "velocity": 103}, {"time": 2906, "pitch": 76, "duration": 4, "velocity": 105}, {"time": 2912, "pitch": 78, "duration": 4, "velocity": 102}, {"time": 2918, "pitch": 80, "duration": 3, "velocity": 87}, {"time": 2930, "pitch": 80, "duration": 5, "velocity": 93}, {"time": 2942, "pitch": 80, "duration": 6, "velocity": 93}, {"time": 2954, "pitch": 78, "duration": 3, "velocity": 93}, {"time": 2960, "pitch": 76, "duration": 3, "velocity": 103}, {"time": 2966, "pitch": 78, "duration": 4, "velocity": 103}, {"time": 2978, "pitch": 78, "duration": 5, "velocity": 87}, {"time": 2984, "pitch": 80, "duration": 3, "velocity": 90}, {"time": 2990, "pitch": 78, "duration": 7, "velocity": 95}, {"time": 3002, "pitch": 76, "duration": 4, "velocity": 87}, {"time": 3008, "pitch": 78, "duration": 4, "velocity": 87}, {"time": 3014, "pitch": 80, "duration": 4, "velocity": 87}, {"time": 3020, "pitch": 73, "duration": 3, "velocity": 90}, {"time": 3026, "pitch": 73, "duration": 3, "velocity": 93}, {"time": 3032, "pitch": 80, "duration": 3, "velocity": 93}, {"time": 3038, "pitch": 80, "duration": 3, "velocity": 95}, {"time": 3044, "pitch": 73, "duration": 3, "velocity": 102}, {"time": 3050, "pitch": 73, "duration": 3, "velocity": 103}, {"time": 3062, "pitch": 80, "duration": 4, "velocity": 85}, {"time": 3068, "pitch": 80, "duration": 3, "velocity": 87}, {"time": 3074, "pitch": 80, "duration": 4, "velocity": 87}, {"time": 3080, "pitch": 83, "duration": 3, "velocity": 93}, {"time": 3086, "pitch": 80, "duration": 8, "velocity": 103}, {"time": 3098, "pitch": 76, "duration": 3, "velocity": 102}, {"time": 3104, "pitch": 78, "duration": 3, "velocity": 85}, {"time": 3110, "pitch": 80, "duration": 3, "velocity": 95}, {"time": 3122, "pitch": 80, "duration": 4, "velocity": 93}, {"time": 3134, "pitch": 80, "duration": 5, "velocity": 93}, {"time": 3146, "pitch": 78, "duration": 3, "velocity": 93}, {"time": 3152, "pitch": 76, "duration": 3, "velocity": 105}, {"time": 3158, "pitch": 78, "duration": 12, "velocity": 95}, {"time": 3170, "pitch": 78, "duration": 4, "velocity": 95}, {"time": 3176, "pitch": 80, "duration": 3, "velocity": 90}, {"time": 3182, "pitch": 78, "duration": 7, "velocity": 103}, {"time": 3194, "pitch": 76, "duration": 3, "velocity": 93}, {"time": 3200, "pitch": 78, "duration": 3, "velocity": 87}, {"time": 3206, "pitch": 80, "duration": 3, "velocity": 93}, {"time": 3212, "pitch": 73, "duration": 3, "velocity": 93}, {"time": 3218, "pitch": 73, "duration": 3, "velocity": 102}, {"time": 3224, "pitch": 80, "duration": 3, "velocity": 90}, {"time": 3230, "pitch": 80, "duration": 4, "velocity": 95}, {"time": 3236, "pitch": 73, "duration": 6, "velocity": 102}, {"time": 3254, "pitch": 80, "duration": 9, "velocity": 95}, {"time": 3266, "pitch": 80, "duration": 4, "velocity": 93}, {"time": 3272, "pitch": 78, "duration": 4, "velocity": 95}, {"time": 3278, "pitch": 80, "duration": 23, "velocity": 95}, {"time": 3494, "pitch": 76, "duration": 3, "velocity": 95}, {"time": 3500, "pitch": 73, "duration": 3, "velocity": 87}, {"time": 3506, "pitch": 76, "duration": 3, "velocity": 93}, {"time": 3512, "pitch": 73, "duration": 3, "velocity": 87}, {"time": 3518, "pitch": 76, "duration": 3, "velocity": 95}, {"time": 3524, "pitch": 73, "duration": 4, "velocity": 93}, {"time": 3530, "pitch": 76, "duration": 4, "velocity": 105}, {"time": 3536, "pitch": 78, "duration": 3, "velocity": 95}, {"time": 3542, "pitch": 75, "duration": 3, "velocity": 95}, {"time": 3548, "pitch": 75, "duration": 3, "velocity": 93}, {"time": 3554, "pitch": 75, "duration": 4, "velocity": 90}, {"time": 3560, "pitch": 76, "duration": 4, "velocity": 87}, {"time": 3566, "pitch": 75, "duration": 14, "velocity": 103}, {"time": 3590, "pitch": 76, "duration": 4, "velocity": 102}, {"time": 3596, "pitch": 73, "duration": 4, "velocity": 93}, {"time": 3602, "pitch": 76, "duration": 3, "velocity": 103}, {"time": 3608, "pitch": 73, "duration": 3, "velocity": 95}, {"time": 3614, "pitch": 76, "duration": 18, "velocity": 102}, {"time": 3632, "pitch": 76, "duration": 6, "velocity": 100}, {"time": 3638, "pitch": 75, "duration": 3, "velocity": 87}, {"time": 3644, "pitch": 75, "duration": 4, "velocity": 93}, {"time": 3650, "pitch": 75, "duration": 3, "velocity": 93}, {"time": 3656, "pitch": 76, "duration": 4, "velocity": 102}, {"time": 3662, "pitch": 75, "duration": 12, "velocity": 102}, {"time": 3674, "pitch": 73, "duration": 4, "velocity": 69}, {"time": 3680, "pitch": 71, "duration": 4, "velocity": 87}, {"time": 3686, "pitch": 73, "duration": 12, "velocity": 95}, {"time": 3698, "pitch": 76, "duration": 9, "velocity": 102}, {"time": 3710, "pitch": 76, "duration": 4, "velocity": 95}, {"time": 3716, "pitch": 76, "duration": 12, "velocity": 105}, {"time": 3734, "pitch": 80, "duration": 12, "velocity": 87}, {"time": 3752, "pitch": 78, "duration": 4, "velocity": 93}, {"time": 3758, "pitch": 75, "duration": 12, "velocity": 95}, {"time": 3770, "pitch": 73, "duration": 4, "velocity": 93}, {"time": 3776, "pitch": 71, "duration": 4, "velocity": 87}, {"time": 3782, "pitch": 73, "duration": 10, "velocity": 93}, {"time": 3794, "pitch": 76, "duration": 9, "velocity": 105}, {"time": 3806, "pitch": 76, "duration": 4, "velocity": 105}, {"time": 3812, "pitch": 76, "duration": 18, "velocity": 102}, {"time": 3830, "pitch": 80, "duration": 4, "velocity": 93}, {"time": 3836, "pitch": 80, "duration": 3, "velocity": 93}, {"time": 3842, "pitch": 80, "duration": 4, "velocity": 102}, {"time": 3848, "pitch": 83, "duration": 3, "velocity": 102}, {"time": 3854, "pitch": 80, "duration": 9, "velocity": 103}, {"time": 3866, "pitch": 76, "duration": 4, "velocity": 105}, {"time": 3872, "pitch": 78, "duration": 4, "velocity": 102}, {"time": 3878, "pitch": 80, "duration": 3, "velocity": 87}, {"time": 3890, "pitch": 80, "duration": 5, "velocity": 93}, {"time": 3902, "pitch": 80, "duration": 6, "velocity": 93}, {"time": 3914, "pitch": 78, "duration": 3, "velocity": 93}, {"time": 3920, "pitch": 76, "duration": 3, "velocity": 103}, {"time": 3926, "pitch": 78, "duration": 4, "velocity": 103}, {"time": 3938, "pitch": 78, "duration": 5, "velocity": 87}, {"time": 3944, "pitch": 80, "duration": 3, "velocity": 90}, {"time": 3950, "pitch": 78, "duration": 7, "velocity": 95}, {"time": 3962, "pitch": 76, "duration": 4, "velocity": 87}, {"time": 3968, "pitch": 78, "duration": 4, "velocity": 87}, {"time": 3974, "pitch": 80, "duration": 4, "velocity": 87}, {"time": 3980, "pitch": 73, "duration": 3, "velocity": 90}, {"time": 3986, "pitch": 73, "duration": 3, "velocity": 93}, {"time": 3992, "pitch": 80, "duration": 3, "velocity": 93}, {"time": 3998, "pitch": 80, "duration": 3, "velocity": 95}, {"time": 4004, "pitch": 73, "duration": 3, "velocity": 102}, {"time": 4010, "pitch": 73, "duration": 3, "velocity": 103}, {"time": 4022, "pitch": 80, "duration": 4, "velocity": 85}, {"time": 4028, "pitch": 80, "duration": 3, "velocity": 87}, {"time": 4034, "pitch": 80, "duration": 4, "velocity": 87}, {"time": 4040, "pitch": 83, "duration": 3, "velocity": 93}, {"time": 4046, "pitch": 80, "duration": 8, "velocity": 103}, {"time": 4058, "pitch": 76, "duration": 3, "velocity": 102}, {"time": 4064, "pitch": 78, "duration": 3, "velocity": 85}, {"time": 4070, "pitch": 80, "duration": 3, "velocity": 95}, {"time": 4082, "pitch": 80, "duration": 4, "velocity": 93}, {"time": 4094, "pitch": 80, "duration": 5, "velocity": 93}, {"time": 4106, "pitch": 78, "duration": 3, "velocity": 93}, {"time": 4112, "pitch": 76, "duration": 3, "velocity": 105}, {"time": 4118, "pitch": 78, "duration": 12, "velocity": 95}, {"time": 4130, "pitch": 78, "duration": 4, "velocity": 95}, {"time": 4136, "pitch": 80, "duration": 3, "velocity": 90}, {"time": 4142, "pitch": 78, "duration": 7, "velocity": 103}, {"time": 4154, "pitch": 76, "duration": 3, "velocity": 93}, {"time": 4160, "pitch": 78, "duration": 3, "velocity": 87}, {"time": 4166, "pitch": 80, "duration": 3, "velocity": 93}, {"time": 4172, "pitch": 73, "duration": 3, "velocity": 93}, {"time": 4178, "pitch": 73, "duration": 3, "velocity": 102}, {"time": 4184, "pitch": 80, "duration": 3, "velocity": 90}, {"time": 4190, "pitch": 80, "duration": 4, "velocity": 95}, {"time": 4196, "pitch": 73, "duration": 6, "velocity": 102}, {"time": 4214, "pitch": 80, "duration": 9, "velocity": 95}, {"time": 4226, "pitch": 80, "duration": 4, "velocity": 93}, {"time": 4232, "pitch": 78, "duration": 4, "velocity": 95}, {"time": 4238, "pitch": 75, "duration": 12, "velocity": 95}, {"time": 4250, "pitch": 63, "duration": 5, "velocity": 105}, {"time": 4256, "pitch": 64, "duration": 3, "velocity": 87}, {"time": 4259, "pitch": 63, "duration": 2, "velocity": 93}, {"time": 4262, "pitch": 61, "duration": 30, "velocity": 105}, {"time": 4298, "pitch": 76, "duration": 4, "velocity": 105}, {"time": 4304, "pitch": 78, "duration": 4, "velocity": 102}, {"time": 4310, "pitch": 80, "duration": 3, "velocity": 87}, {"time": 4322, "pitch": 80, "duration": 5, "velocity": 93}, {"time": 4334, "pitch": 80, "duration": 6, "velocity": 93}, {"time": 4346, "pitch": 78, "duration": 3, "velocity": 93}, {"time": 4352, "pitch": 76, "duration": 3, "velocity": 103}, {"time": 4358, "pitch": 78, "duration": 4, "velocity": 103}, {"time": 4370, "pitch": 78, "duration": 5, "velocity": 87}, {"time": 4376, "pitch": 80, "duration": 3, "velocity": 90}, {"time": 4382, "pitch": 78, "duration": 7, "velocity": 95}, {"time": 4394, "pitch": 76, "duration": 4, "velocity": 87}, {"time": 4400, "pitch": 78, "duration": 4, "velocity": 87}, {"time": 4406, "pitch": 80, "duration": 4, "velocity": 87}, {"time": 4412, "pitch": 73, "duration": 3, "velocity": 90}, {"time": 4418, "pitch": 73, "duration": 3, "velocity": 93}, {"time": 4424, "pitch": 80, "duration": 3, "velocity": 93}, {"time": 4430, "pitch": 80, "duration": 3, "velocity": 95}, {"time": 4436, "pitch": 73, "duration": 3, "velocity": 102}, {"time": 4442, "pitch": 73, "duration": 3, "velocity": 103}, {"time": 4454, "pitch": 80, "duration": 4, "velocity": 85}, {"time": 4460, "pitch": 80, "duration": 3, "velocity": 87}, {"time": 4466, "pitch": 80, "duration": 4, "velocity": 87}, {"time": 4472, "pitch": 83, "duration": 3, "velocity": 93}, {"time": 4478, "pitch": 80, "duration": 8, "velocity": 103}, {"time": 4490, "pitch": 76, "duration": 3, "velocity": 102}, {"time": 4496, "pitch": 78, "duration": 3, "velocity": 85}, {"time": 4502, "pitch": 80, "duration": 3, "velocity": 95}, {"time": 4514, "pitch": 80, "duration": 4, "velocity": 93}, {"time": 4526, "pitch": 80, "duration": 5, "velocity": 93}, {"time": 4538, "pitch": 78, "duration": 3, "velocity": 93}, {"time": 4544, "pitch": 76, "duration": 3, "velocity": 105}, {"time": 4550, "pitch": 78, "duration": 12, "velocity": 95}, {"time": 4562, "pitch": 78, "duration": 4, "velocity": 95}, {"time": 4568, "pitch": 80, "duration": 3, "velocity": 90}, {"time": 4574, "pitch": 78, "duration": 7, "velocity": 103}, {"time": 4586, "pitch": 76, "duration": 3, "velocity": 93}, {"time": 4592, "pitch": 78, "duration": 3, "velocity": 87}, {"time": 4598, "pitch": 80, "duration": 3, "velocity": 93}, {"time": 4604, "pitch": 73, "duration": 3, "velocity": 93}, {"time": 4610, "pitch": 73, "duration": 3, "velocity": 102}, {"time": 4616, "pitch": 80, "duration": 3, "velocity": 90}, {"time": 4622, "pitch": 80, "duration": 4, "velocity": 95}, {"time": 4628, "pitch": 73, "duration": 6, "velocity": 102}, {"time": 4646, "pitch": 80, "duration": 9, "velocity": 95}, {"time": 4658, "pitch": 80, "duration": 4, "velocity": 93}, {"time": 4664, "pitch": 78, "duration": 4, "velocity": 95}, {"time": 4670, "pitch": 75, "duration": 12, "velocity": 95}, {"time": 4682, "pitch": 63, "duration": 5, "velocity": 105}, {"time": 4688, "pitch": 64, "duration": 3, "velocity": 87}, {"time": 4691, "pitch": 63, "duration": 2, "velocity": 93}, {"time": 4694, "pitch": 61, "duration": 30, "velocity": 105}]}, {"program": 0, "is_drum": false, "name": "PIANO", "notes": [{"time": 38, "pitch": 49, "duration": 16, "velocity": 74}, {"time": 38, "pitch": 61, "duration": 19, "velocity": 74}, {"time": 38, "pitch": 64, "duration": 25, "velocity": 68}, {"time": 56, "pitch": 49, "duration": 23, "velocity": 78}, {"time": 56, "pitch": 56, "duration": 22, "velocity": 54}, {"time": 68, "pitch": 61, "duration": 4, "velocity": 43}, {"time": 74, "pitch": 61, "duration": 5, "velocity": 87}, {"time": 74, "pitch": 64, "duration": 4, "velocity": 87}, {"time": 86, "pitch": 49, "duration": 17, "velocity": 80}, {"time": 92, "pitch": 56, "duration": 32, "velocity": 59}, {"time": 104, "pitch": 49, "duration": 21, "velocity": 78}, {"time": 104, "pitch": 61, "duration": 8, "velocity": 69}, {"time": 104, "pitch": 64, "duration": 8, "velocity": 69}, {"time": 134, "pitch": 49, "duration": 14, "velocity": 80}, {"time": 134, "pitch": 61, "duration": 7, "velocity": 66}, {"time": 134, "pitch": 64, "duration": 9, "velocity": 74}, {"time": 140, "pitch": 56, "duration": 39, "velocity": 53}, {"time": 146, "pitch": 61, "duration": 3, "velocity": 49}, {"time": 152, "pitch": 49, "duration": 20, "velocity": 78}, {"time": 152, "pitch": 61, "duration": 10, "velocity": 80}, {"time": 152, "pitch": 64, "duration": 10, "velocity": 87}, {"time": 182, "pitch": 49, "duration": 10, "velocity": 74}, {"time": 182, "pitch": 61, "duration": 14, "velocity": 66}, {"time": 182, "pitch": 64, "duration": 15, "velocity": 72}, {"time": 194, "pitch": 56, "duration": 20, "velocity": 66}, {"time": 200, "pitch": 61, "duration": 4, "velocity": 74}, {"time": 200, "pitch": 64, "duration": 4, "velocity": 69}, {"time": 200, "pitch": 68, "duration": 5, "velocity": 87}, {"time": 200, "pitch": 49, "duration": 16, "velocity": 78}, {"time": 212, "pitch": 61, "duration": 2, "velocity": 66}, {"time": 212, "pitch": 64, "duration": 2, "velocity": 72}, {"time": 218, "pitch": 56, "duration": 6, "velocity": 72}, {"time": 221, "pitch": 61, "duration": 12, "velocity": 53}, {"time": 230, "pitch": 49, "duration": 15, "velocity": 93}, {"time": 236, "pitch": 56, "duration": 30, "velocity": 70}, {"time": 242, "pitch": 61, "duration": 3, "velocity": 80}, {"time": 248, "pitch": 49, "duration": 21, "velocity": 78}, {"time": 248, "pitch": 61, "duration": 3, "velocity": 102}, {"time": 248, "pitch": 64, "duration": 2, "velocity": 102}, {"time": 260, "pitch": 61, "duration": 2, "velocity": 87}, {"time": 260, "pitch": 68, "duration": 2, "velocity": 103}, {"time": 272, "pitch": 61, "duration": 7, "velocity": 74}, {"time": 272, "pitch": 64, "duration": 8, "velocity": 80}, {"time": 278, "pitch": 45, "duration": 16, "velocity": 80}, {"time": 284, "pitch": 52, "duration": 28, "velocity": 53}, {"time": 290, "pitch": 57, "duration": 2, "velocity": 71}, {"time": 296, "pitch": 45, "duration": 23, "velocity": 78}, {"time": 296, "pitch": 57, "duration": 3, "velocity": 90}, {"time": 296, "pitch": 64, "duration": 3, "velocity": 90}, {"time": 308, "pitch": 57, "duration": 3, "velocity": 83}, {"time": 308, "pitch": 61, "duration": 3, "velocity": 83}, {"time": 308, "pitch": 64, "duration": 3, "velocity": 80}, {"time": 326, "pitch": 49, "duration": 16, "velocity": 83}, {"time": 326, "pitch": 61, "duration": 7, "velocity": 74}, {"time": 326, "pitch": 64, "duration": 8, "velocity": 83}, {"time": 332, "pitch": 56, "duration": 25, "velocity": 74}, {"time": 338, "pitch": 61, "duration": 3, "velocity": 93}, {"time": 344, "pitch": 49, "duration": 24, "velocity": 78}, {"time": 344, "pitch": 61, "duration": 2, "velocity": 93}, {"time": 344, "pitch": 68, "duration": 3, "velocity": 102}, {"time": 356, "pitch": 61, "duration": 6, "velocity": 95}, {"time": 356, "pitch": 64, "duration": 7, "velocity": 103}, {"time": 362, "pitch": 56, "duration": 3, "velocity": 67}, {"time": 368, "pitch": 61, "duration": 6, "velocity": 80}, {"time": 374, "pitch": 45, "duration": 17, "velocity": 71}, {"time": 374, "pitch": 64, "duration": 12, "velocity": 74}, {"time": 380, "pitch": 52, "duration": 40, "velocity": 37}, {"time": 386, "pitch": 57, "duration": 3, "velocity": 80}, {"time": 392, "pitch": 57, "duration": 8, "velocity": 95}, {"time": 392, "pitch": 64, "duration": 9, "velocity": 80}, {"time": 392, "pitch": 45, "duration": 24, "velocity": 78}, {"time": 404, "pitch": 57, "duration": 3, "velocity": 65}, {"time": 404, "pitch": 61, "duration": 7, "velocity": 80}, {"time": 410, "pitch": 57, "duration": 8, "velocity": 87}, {"time": 422, "pitch": 44, "duration": 16, "velocity": 87}, {"time": 422, "pitch": 56, "duration": 8, "velocity": 83}, {"time": 422, "pitch": 61, "duration": 10, "velocity": 93}, {"time": 428, "pitch": 51, "duration": 10, "velocity": 63}, {"time": 434, "pitch": 56, "duration": 4, "velocity": 83}, {"time": 440, "pitch": 44, "duration": 28, "velocity": 93}, {"time": 440, "pitch": 56, "duration": 15, "velocity": 93}, {"time": 440, "pitch": 61, "duration": 16, "velocity": 85}, {"time": 452, "pitch": 51, "duration": 15, "velocity": 70}, {"time": 458, "pitch": 56, "duration": 7, "velocity": 105}, {"time": 464, "pitch": 61, "duration": 4, "velocity": 87}, {"time": 470, "pitch": 44, "duration": 46, "velocity": 93}, {"time": 470, "pitch": 56, "duration": 7, "velocity": 80}, {"time": 470, "pitch": 63, "duration": 8, "velocity": 80}, {"time": 476, "pitch": 51, "duration": 39, "velocity": 71}, {"time": 482, "pitch": 56, "duration": 3, "velocity": 93}, {"time": 488, "pitch": 56, "duration": 28, "velocity": 87}, {"time": 488, "pitch": 63, "duration": 28, "velocity": 85}, {"time": 518, "pitch": 37, "duration": 31, "velocity": 87}, {"time": 518, "pitch": 61, "duration": 7, "velocity": 74}, {"time": 518, "pitch": 64, "duration": 10, "velocity": 80}, {"time": 524, "pitch": 44, "duration": 25, "velocity": 65}, {"time": 530, "pitch": 56, "duration": 3, "velocity": 93}, {"time": 536, "pitch": 56, "duration": 3, "velocity": 103}, {"time": 536, "pitch": 64, "duration": 3, "velocity": 90}, {"time": 554, "pitch": 61, "duration": 3, "velocity": 93}, {"time": 560, "pitch": 56, "duration": 4, "velocity": 80}, {"time": 560, "pitch": 61, "duration": 2, "velocity": 29}, {"time": 566, "pitch": 44, "duration": 45, "velocity": 80}, {"time": 566, "pitch": 63, "duration": 12, "velocity": 67}, {"time": 572, "pitch": 51, "duration": 19, "velocity": 68}, {"time": 578, "pitch": 56, "duration": 3, "velocity": 80}, {"time": 584, "pitch": 56, "duration": 12, "velocity": 87}, {"time": 584, "pitch": 59, "duration": 12, "velocity": 83}, {"time": 596, "pitch": 51, "duration": 16, "velocity": 65}, {"time": 602, "pitch": 56, "duration": 2, "velocity": 87}, {"time": 602, "pitch": 63, "duration": 6, "velocity": 93}, {"time": 608, "pitch": 56, "duration": 7, "velocity": 95}, {"time": 614, "pitch": 49, "duration": 39, "velocity": 74}, {"time": 614, "pitch": 64, "duration": 9, "velocity": 87}, {"time": 620, "pitch": 56, "duration": 7, "velocity": 93}, {"time": 626, "pitch": 61, "duration": 3, "velocity": 68}, {"time": 632, "pitch": 56, "duration": 3, "velocity": 90}, {"time": 632, "pitch": 64, "duration": 3, "velocity": 90}, {"time": 650, "pitch": 61, "duration": 6, "velocity": 93}, {"time": 656, "pitch": 56, "duration": 8, "velocity": 93}, {"time": 662, "pitch": 44, "duration": 44, "velocity": 83}, {"time": 662, "pitch": 63, "duration": 13, "velocity": 87}, {"time": 668, "pitch": 51, "duration": 17, "velocity": 68}, {"time": 674, "pitch": 56, "duration": 3, "velocity": 93}, {"time": 680, "pitch": 56, "duration": 14, "velocity": 95}, {"time": 680, "pitch": 63, "duration": 14, "velocity": 90}, {"time": 692, "pitch": 51, "duration": 9, "velocity": 63}, {"time": 698, "pitch": 56, "duration": 5, "velocity": 87}, {"time": 698, "pitch": 63, "duration": 7, "velocity": 93}, {"time": 704, "pitch": 51, "duration": 5, "velocity": 85}, {"time": 710, "pitch": 49, "duration": 45, "velocity": 74}, {"time": 710, "pitch": 64, "duration": 10, "velocity": 95}, {"time": 716, "pitch": 56, "duration": 7, "velocity": 102}, {"time": 722, "pitch": 61, "duration": 4, "velocity": 70}, {"time": 734, "pitch": 56, "duration": 3, "velocity": 95}, {"time": 734, "pitch": 64, "duration": 19, "velocity": 87}, {"time": 740, "pitch": 56, "duration": 14, "velocity": 74}, {"time": 752, "pitch": 61, "duration": 3, "velocity": 74}, {"time": 758, "pitch": 44, "duration": 39, "velocity": 74}, {"time": 758, "pitch": 63, "duration": 14, "velocity": 72}, {"time": 764, "pitch": 51, "duration": 27, "velocity": 67}, {"time": 770, "pitch": 56, "duration": 3, "velocity": 83}, {"time": 776, "pitch": 56, "duration": 7, "velocity": 90}, {"time": 776, "pitch": 63, "duration": 7, "velocity": 93}, {"time": 788, "pitch": 56, "duration": 6, "velocity": 80}, {"time": 788, "pitch": 59, "duration": 6, "velocity": 95}, {"time": 794, "pitch": 51, "duration": 4, "velocity": 69}, {"time": 806, "pitch": 42, "duration": 42, "velocity": 93}, {"time": 806, "pitch": 54, "duration": 8, "velocity": 66}, {"time": 806, "pitch": 61, "duration": 14, "velocity": 74}, {"time": 812, "pitch": 49, "duration": 17, "velocity": 64}, {"time": 818, "pitch": 54, "duration": 3, "velocity": 80}, {"time": 824, "pitch": 54, "duration": 14, "velocity": 93}, {"time": 824, "pitch": 61, "duration": 19, "velocity": 83}, {"time": 836, "pitch": 49, "duration": 14, "velocity": 68}, {"time": 842, "pitch": 54, "duration": 6, "velocity": 103}, {"time": 848, "pitch": 61, "duration": 4, "velocity": 87}, {"time": 854, "pitch": 44, "duration": 43, "velocity": 87}, {"time": 854, "pitch": 63, "duration": 12, "velocity": 80}, {"time": 860, "pitch": 51, "duration": 21, "velocity": 68}, {"time": 866, "pitch": 56, "duration": 4, "velocity": 90}, {"time": 872, "pitch": 63, "duration": 18, "velocity": 93}, {"time": 884, "pitch": 51, "duration": 13, "velocity": 69}, {"time": 890, "pitch": 56, "duration": 6, "velocity": 105}, {"time": 902, "pitch": 49, "duration": 42, "velocity": 87}, {"time": 902, "pitch": 56, "duration": 3, "velocity": 103}, {"time": 902, "pitch": 64, "duration": 7, "velocity": 80}, {"time": 908, "pitch": 56, "duration": 4, "velocity": 93}, {"time": 914, "pitch": 64, "duration": 4, "velocity": 112}, {"time": 920, "pitch": 56, "duration": 5, "velocity": 102}, {"time": 932, "pitch": 56, "duration": 3, "velocity": 93}, {"time": 938, "pitch": 61, "duration": 7, "velocity": 93}, {"time": 938, "pitch": 64, "duration": 6, "velocity": 95}, {"time": 944, "pitch": 56, "duration": 3, "velocity": 93}, {"time": 950, "pitch": 47, "duration": 39, "velocity": 83}, {"time": 950, "pitch": 59, "duration": 7, "velocity": 71}, {"time": 950, "pitch": 63, "duration": 7, "velocity": 93}, {"time": 956, "pitch": 54, "duration": 8, "velocity": 87}, {"time": 962, "pitch": 59, "duration": 2, "velocity": 68}, {"time": 968, "pitch": 54, "duration": 3, "velocity": 93}, {"time": 968, "pitch": 63, "duration": 9, "velocity": 95}, {"time": 980, "pitch": 59, "duration": 3, "velocity": 87}, {"time": 986, "pitch": 54, "duration": 2, "velocity": 93}, {"time": 986, "pitch": 59, "duration": 5, "velocity": 103}, {"time": 986, "pitch": 63, "duration": 7, "velocity": 102}, {"time": 992, "pitch": 54, "duration": 4, "velocity": 87}, {"time": 998, "pitch": 45, "duration": 43, "velocity": 65}, {"time": 998, "pitch": 61, "duration": 7, "velocity": 102}, {"time": 1004, "pitch": 52, "duration": 39, "velocity": 45}, {"time": 1010, "pitch": 57, "duration": 3, "velocity": 74}, {"time": 1010, "pitch": 61, "duration": 8, "velocity": 80}, {"time": 1016, "pitch": 57, "duration": 6, "velocity": 72}, {"time": 1028, "pitch": 57, "duration": 3, "velocity": 87}, {"time": 1034, "pitch": 57, "duration": 3, "velocity": 69}, {"time": 1034, "pitch": 61, "duration": 8, "velocity": 87}, {"time": 1040, "pitch": 57, "duration": 2, "velocity": 61}, {"time": 1046, "pitch": 44, "duration": 44, "velocity": 80}, {"time": 1046, "pitch": 56, "duration": 8, "velocity": 63}, {"time": 1046, "pitch": 63, "duration": 12, "velocity": 74}, {"time": 1052, "pitch": 51, "duration": 15, "velocity": 71}, {"time": 1058, "pitch": 56, "duration": 3, "velocity": 102}, {"time": 1064, "pitch": 56, "duration": 9, "velocity": 87}, {"time": 1064, "pitch": 63, "duration": 9, "velocity": 93}, {"time": 1070, "pitch": 51, "duration": 9, "velocity": 80}, {"time": 1076, "pitch": 56, "duration": 8, "velocity": 95}, {"time": 1076, "pitch": 63, "duration": 11, "velocity": 102}, {"time": 1082, "pitch": 51, "duration": 8, "velocity": 87}, {"time": 1088, "pitch": 56, "duration": 4, "velocity": 102}, {"time": 1094, "pitch": 49, "duration": 42, "velocity": 83}, {"time": 1094, "pitch": 56, "duration": 4, "velocity": 80}, {"time": 1094, "pitch": 64, "duration": 8, "velocity": 83}, {"time": 1100, "pitch": 56, "duration": 3, "velocity": 85}, {"time": 1106, "pitch": 56, "duration": 3, "velocity": 93}, {"time": 1106, "pitch": 64, "duration": 4, "velocity": 87}, {"time": 1112, "pitch": 56, "duration": 7, "velocity": 93}, {"time": 1112, "pitch": 64, "duration": 9, "velocity": 93}, {"time": 1124, "pitch": 56, "duration": 4, "velocity": 93}, {"time": 1130, "pitch": 56, "duration": 3, "velocity": 87}, {"time": 1130, "pitch": 61, "duration": 7, "velocity": 87}, {"time": 1136, "pitch": 56, "duration": 3, "velocity": 93}, {"time": 1142, "pitch": 47, "duration": 41, "velocity": 71}, {"time": 1142, "pitch": 59, "duration": 8, "velocity": 93}, {"time": 1142, "pitch": 63, "duration": 7, "velocity": 93}, {"time": 1148, "pitch": 54, "duration": 4, "velocity": 87}, {"time": 1154, "pitch": 59, "duration": 1, "velocity": 44}, {"time": 1154, "pitch": 63, "duration": 2, "velocity": 74}, {"time": 1160, "pitch": 59, "duration": 9, "velocity": 102}, {"time": 1160, "pitch": 63, "duration": 8, "velocity": 102}, {"time": 1172, "pitch": 54, "duration": 4, "velocity": 83}, {"time": 1178, "pitch": 54, "duration": 3, "velocity": 93}, {"time": 1178, "pitch": 59, "duration": 6, "velocity": 87}, {"time": 1184, "pitch": 54, "duration": 5, "velocity": 80}, {"time": 1190, "pitch": 45, "duration": 38, "velocity": 71}, {"time": 1190, "pitch": 57, "duration": 6, "velocity": 80}, {"time": 1190, "pitch": 61, "duration": 9, "velocity": 93}, {"time": 1196, "pitch": 52, "duration": 26, "velocity": 69}, {"time": 1202, "pitch": 57, "duration": 3, "velocity": 93}, {"time": 1208, "pitch": 57, "duration": 6, "velocity": 87}, {"time": 1208, "pitch": 64, "duration": 5, "velocity": 80}, {"time": 1220, "pitch": 57, "duration": 8, "velocity": 87}, {"time": 1220, "pitch": 61, "duration": 10, "velocity": 93}, {"time": 1226, "pitch": 52, "duration": 8, "velocity": 80}, {"time": 1232, "pitch": 57, "duration": 3, "velocity": 87}, {"time": 1238, "pitch": 44, "duration": 47, "velocity": 80}, {"time": 1238, "pitch": 56, "duration": 8, "velocity": 69}, {"time": 1238, "pitch": 63, "duration": 11, "velocity": 70}, {"time": 1244, "pitch": 51, "duration": 15, "velocity": 72}, {"time": 1250, "pitch": 56, "duration": 3, "velocity": 102}, {"time": 1256, "pitch": 56, "duration": 7, "velocity": 93}, {"time": 1256, "pitch": 63, "duration": 14, "velocity": 85}, {"time": 1262, "pitch": 51, "duration": 23, "velocity": 63}, {"time": 1268, "pitch": 56, "duration": 3, "velocity": 87}, {"time": 1274, "pitch": 56, "duration": 3, "velocity": 102}, {"time": 1274, "pitch": 63, "duration": 10, "velocity": 95}, {"time": 1280, "pitch": 56, "duration": 4, "velocity": 93}, {"time": 1286, "pitch": 49, "duration": 40, "velocity": 74}, {"time": 1286, "pitch": 61, "duration": 19, "velocity": 74}, {"time": 1286, "pitch": 64, "duration": 25, "velocity": 68}, {"time": 1304, "pitch": 56, "duration": 22, "velocity": 54}, {"time": 1316, "pitch": 61, "duration": 4, "velocity": 43}, {"time": 1322, "pitch": 61, "duration": 5, "velocity": 87}, {"time": 1322, "pitch": 64, "duration": 4, "velocity": 87}, {"time": 1334, "pitch": 49, "duration": 38, "velocity": 80}, {"time": 1340, "pitch": 56, "duration": 32, "velocity": 59}, {"time": 1352, "pitch": 61, "duration": 8, "velocity": 69}, {"time": 1352, "pitch": 64, "duration": 8, "velocity": 69}, {"time": 1382, "pitch": 49, "duration": 44, "velocity": 80}, {"time": 1382, "pitch": 61, "duration": 7, "velocity": 66}, {"time": 1382, "pitch": 64, "duration": 9, "velocity": 74}, {"time": 1388, "pitch": 56, "duration": 39, "velocity": 53}, {"time": 1394, "pitch": 61, "duration": 3, "velocity": 49}, {"time": 1400, "pitch": 61, "duration": 10, "velocity": 80}, {"time": 1400, "pitch": 64, "duration": 10, "velocity": 87}, {"time": 1430, "pitch": 49, "duration": 34, "velocity": 74}, {"time": 1430, "pitch": 61, "duration": 14, "velocity": 66}, {"time": 1430, "pitch": 64, "duration": 15, "velocity": 72}, {"time": 1442, "pitch": 56, "duration": 20, "velocity": 66}, {"time": 1448, "pitch": 61, "duration": 4, "velocity": 74}, {"time": 1448, "pitch": 64, "duration": 4, "velocity": 69}, {"time": 1448, "pitch": 68, "duration": 5, "velocity": 87}, {"time": 1460, "pitch": 61, "duration": 2, "velocity": 66}, {"time": 1460, "pitch": 64, "duration": 2, "velocity": 72}, {"time": 1466, "pitch": 56, "duration": 6, "velocity": 72}, {"time": 1469, "pitch": 61, "duration": 12, "velocity": 53}, {"time": 1478, "pitch": 37, "duration": 31, "velocity": 87}, {"time": 1478, "pitch": 61, "duration": 3, "velocity": 74}, {"time": 1478, "pitch": 64, "duration": 10, "velocity": 80}, {"time": 1484, "pitch": 44, "duration": 25, "velocity": 65}, {"time": 1490, "pitch": 56, "duration": 3, "velocity": 93}, {"time": 1496, "pitch": 56, "duration": 3, "velocity": 103}, {"time": 1496, "pitch": 64, "duration": 3, "velocity": 90}, {"time": 1514, "pitch": 61, "duration": 3, "velocity": 93}, {"time": 1520, "pitch": 56, "duration": 4, "velocity": 80}, {"time": 1520, "pitch": 61, "duration": 2, "velocity": 29}, {"time": 1526, "pitch": 44, "duration": 45, "velocity": 80}, {"time": 1526, "pitch": 63, "duration": 12, "velocity": 67}, {"time": 1532, "pitch": 51, "duration": 19, "velocity": 68}, {"time": 1538, "pitch": 56, "duration": 3, "velocity": 80}, {"time": 1544, "pitch": 56, "duration": 12, "velocity": 87}, {"time": 1544, "pitch": 59, "duration": 12, "velocity": 83}, {"time": 1556, "pitch": 51, "duration": 16, "velocity": 65}, {"time": 1562, "pitch": 56, "duration": 2, "velocity": 87}, {"time": 1562, "pitch": 63, "duration": 6, "velocity": 93}, {"time": 1568, "pitch": 56, "duration": 7, "velocity": 95}, {"time": 1574, "pitch": 49, "duration": 39, "velocity": 74}, {"time": 1574, "pitch": 64, "duration": 9, "velocity": 87}, {"time": 1580, "pitch": 56, "duration": 7, "velocity": 93}, {"time": 1586, "pitch": 61, "duration": 3, "velocity": 68}, {"time": 1592, "pitch": 56, "duration": 3, "velocity": 90}, {"time": 1592, "pitch": 64, "duration": 3, "velocity": 90}, {"time": 1610, "pitch": 61, "duration": 6, "velocity": 93}, {"time": 1616, "pitch": 56, "duration": 8, "velocity": 93}, {"time": 1622, "pitch": 44, "duration": 44, "velocity": 83}, {"time": 1622, "pitch": 63, "duration": 13, "velocity": 87}, {"time": 1628, "pitch": 51, "duration": 17, "velocity": 68}, {"time": 1634, "pitch": 56, "duration": 3, "velocity": 93}, {"time": 1640, "pitch": 56, "duration": 14, "velocity": 95}, {"time": 1640, "pitch": 63, "duration": 14, "velocity": 90}, {"time": 1652, "pitch": 51, "duration": 9, "velocity": 63}, {"time": 1658, "pitch": 56, "duration": 5, "velocity": 87}, {"time": 1658, "pitch": 63, "duration": 7, "velocity": 93}, {"time": 1664, "pitch": 51, "duration": 5, "velocity": 85}, {"time": 1670, "pitch": 49, "duration": 45, "velocity": 74}, {"time": 1670, "pitch": 64, "duration": 10, "velocity": 95}, {"time": 1676, "pitch": 56, "duration": 7, "velocity": 102}, {"time": 1682, "pitch": 61, "duration": 4, "velocity": 70}, {"time": 1694, "pitch": 56, "duration": 3, "velocity": 95}, {"time": 1694, "pitch": 64, "duration": 19, "velocity": 87}, {"time": 1700, "pitch": 56, "duration": 14, "velocity": 74}, {"time": 1712, "pitch": 61, "duration": 3, "velocity": 74}, {"time": 1718, "pitch": 44, "duration": 39, "velocity": 74}, {"time": 1718, "pitch": 63, "duration": 14, "velocity": 72}, {"time": 1724, "pitch": 51, "duration": 27, "velocity": 67}, {"time": 1730, "pitch": 56, "duration": 3, "velocity": 83}, {"time": 1736, "pitch": 56, "duration": 7, "velocity": 90}, {"time": 1736, "pitch": 63, "duration": 7, "velocity": 93}, {"time": 1748, "pitch": 56, "duration": 6, "velocity": 80}, {"time": 1748, "pitch": 59, "duration": 6, "velocity": 95}, {"time": 1754, "pitch": 51, "duration": 4, "velocity": 69}, {"time": 1766, "pitch": 42, "duration": 42, "velocity": 93}, {"time": 1766, "pitch": 54, "duration": 8, "velocity": 66}, {"time": 1766, "pitch": 61, "duration": 14, "velocity": 74}, {"time": 1772, "pitch": 49, "duration": 17, "velocity": 64}, {"time": 1778, "pitch": 54, "duration": 3, "velocity": 80}, {"time": 1784, "pitch": 54, "duration": 14, "velocity": 93}, {"time": 1784, "pitch": 61, "duration": 19, "velocity": 83}, {"time": 1796, "pitch": 49, "duration": 14, "velocity": 68}, {"time": 1802, "pitch": 54, "duration": 6, "velocity": 103}, {"time": 1808, "pitch": 61, "duration": 4, "velocity": 87}, {"time": 1814, "pitch": 44, "duration": 43, "velocity": 87}, {"time": 1814, "pitch": 63, "duration": 12, "velocity": 80}, {"time": 1820, "pitch": 51, "duration": 21, "velocity": 68}, {"time": 1826, "pitch": 56, "duration": 4, "velocity": 90}, {"time": 1832, "pitch": 63, "duration": 18, "velocity": 93}, {"time": 1844, "pitch": 51, "duration": 13, "velocity": 69}, {"time": 1850, "pitch": 56, "duration": 6, "velocity": 105}, {"time": 1862, "pitch": 49, "duration": 42, "velocity": 87}, {"time": 1862, "pitch": 56, "duration": 3, "velocity": 103}, {"time": 1862, "pitch": 64, "duration": 7, "velocity": 80}, {"time": 1868, "pitch": 56, "duration": 4, "velocity": 93}, {"time": 1874, "pitch": 64, "duration": 4, "velocity": 112}, {"time": 1880, "pitch": 56, "duration": 5, "velocity": 102}, {"time": 1892, "pitch": 56, "duration": 3, "velocity": 93}, {"time": 1898, "pitch": 61, "duration": 7, "velocity": 93}, {"time": 1898, "pitch": 64, "duration": 6, "velocity": 95}, {"time": 1904, "pitch": 56, "duration": 3, "velocity": 93}, {"time": 1910, "pitch": 47, "duration": 39, "velocity": 83}, {"time": 1910, "pitch": 59, "duration": 7, "velocity": 71}, {"time": 1910, "pitch": 63, "duration": 7, "velocity": 93}, {"time": 1916, "pitch": 54, "duration": 8, "velocity": 87}, {"time": 1922, "pitch": 59, "duration": 2, "velocity": 68}, {"time": 1928, "pitch": 54, "duration": 3, "velocity": 93}, {"time": 1928, "pitch": 63, "duration": 9, "velocity": 95}, {"time": 1940, "pitch": 59, "duration": 3, "velocity": 87}, {"time": 1946, "pitch": 54, "duration": 2, "velocity": 93}, {"time": 1946, "pitch": 59, "duration": 5, "velocity": 103}, {"time": 1946, "pitch": 63, "duration": 7, "velocity": 102}, {"time": 1952, "pitch": 54, "duration": 4, "velocity": 87}, {"time": 1958, "pitch": 45, "duration": 43, "velocity": 65}, {"time": 1958, "pitch": 61, "duration": 7, "velocity": 102}, {"time": 1964, "pitch": 52, "duration": 39, "velocity": 45}, {"time": 1970, "pitch": 57, "duration": 3, "velocity": 74}, {"time": 1970, "pitch": 61, "duration": 8, "velocity": 80}, {"time": 1976, "pitch": 57, "duration": 6, "velocity": 72}, {"time": 1988, "pitch": 57, "duration": 3, "velocity": 87}, {"time": 1994, "pitch": 57, "duration": 3, "velocity": 69}, {"time": 1994, "pitch": 61, "duration": 8, "velocity": 87}, {"time": 2000, "pitch": 57, "duration": 2, "velocity": 61}, {"time": 2006, "pitch": 44, "duration": 44, "velocity": 80}, {"time": 2006, "pitch": 56, "duration": 8, "velocity": 63}, {"time": 2006, "pitch": 63, "duration": 12, "velocity": 74}, {"time": 2012, "pitch": 51, "duration": 15, "velocity": 71}, {"time": 2018, "pitch": 56, "duration": 3, "velocity": 102}, {"time": 2024, "pitch": 56, "duration": 9, "velocity": 87}, {"time": 2024, "pitch": 63, "duration": 9, "velocity": 93}, {"time": 2030, "pitch": 51, "duration": 9, "velocity": 80}, {"time": 2036, "pitch": 56, "duration": 8, "velocity": 95}, {"time": 2036, "pitch": 63, "duration": 11, "velocity": 102}, {"time": 2042, "pitch": 51, "duration": 8, "velocity": 87}, {"time": 2048, "pitch": 56, "duration": 4, "velocity": 102}, {"time": 2054, "pitch": 49, "duration": 42, "velocity": 83}, {"time": 2054, "pitch": 56, "duration": 4, "velocity": 80}, {"time": 2054, "pitch": 64, "duration": 8, "velocity": 83}, {"time": 2060, "pitch": 56, "duration": 3, "velocity": 85}, {"time": 2066, "pitch": 56, "duration": 3, "velocity": 93}, {"time": 2066, "pitch": 64, "duration": 4, "velocity": 87}, {"time": 2072, "pitch": 56, "duration": 7, "velocity": 93}, {"time": 2072, "pitch": 64, "duration": 9, "velocity": 93}, {"time": 2084, "pitch": 56, "duration": 4, "velocity": 93}, {"time": 2090, "pitch": 56, "duration": 3, "velocity": 87}, {"time": 2090, "pitch": 61, "duration": 7, "velocity": 87}, {"time": 2096, "pitch": 56, "duration": 3, "velocity": 93}, {"time": 2102, "pitch": 47, "duration": 41, "velocity": 71}, {"time": 2102, "pitch": 59, "duration": 8, "velocity": 93}, {"time": 2102, "pitch": 63, "duration": 7, "velocity": 93}, {"time": 2108, "pitch": 54, "duration": 4, "velocity": 87}, {"time": 2114, "pitch": 59, "duration": 1, "velocity": 44}, {"time": 2114, "pitch": 63, "duration": 2, "velocity": 74}, {"time": 2120, "pitch": 59, "duration": 9, "velocity": 102}, {"time": 2120, "pitch": 63, "duration": 8, "velocity": 102}, {"time": 2132, "pitch": 54, "duration": 4, "velocity": 83}, {"time": 2138, "pitch": 54, "duration": 3, "velocity": 93}, {"time": 2138, "pitch": 59, "duration": 6, "velocity": 87}, {"time": 2144, "pitch": 54, "duration": 5, "velocity": 80}, {"time": 2150, "pitch": 45, "duration": 38, "velocity": 71}, {"time": 2150, "pitch": 57, "duration": 6, "velocity": 80}, {"time": 2150, "pitch": 61, "duration": 9, "velocity": 93}, {"time": 2156, "pitch": 52, "duration": 26, "velocity": 69}, {"time": 2162, "pitch": 57, "duration": 3, "velocity": 93}, {"time": 2168, "pitch": 57, "duration": 6, "velocity": 87}, {"time": 2168, "pitch": 64, "duration": 5, "velocity": 80}, {"time": 2180, "pitch": 57, "duration": 8, "velocity": 87}, {"time": 2180, "pitch": 61, "duration": 10, "velocity": 93}, {"time": 2186, "pitch": 52, "duration": 8, "velocity": 80}, {"time": 2192, "pitch": 57, "duration": 3, "velocity": 87}, {"time": 2198, "pitch": 44, "duration": 47, "velocity": 80}, {"time": 2198, "pitch": 56, "duration": 8, "velocity": 69}, {"time": 2198, "pitch": 63, "duration": 11, "velocity": 70}, {"time": 2204, "pitch": 51, "duration": 15, "velocity": 72}, {"time": 2210, "pitch": 56, "duration": 3, "velocity": 102}, {"time": 2216, "pitch": 56, "duration": 7, "velocity": 93}, {"time": 2216, "pitch": 63, "duration": 14, "velocity": 85}, {"time": 2222, "pitch": 51, "duration": 23, "velocity": 63}, {"time": 2228, "pitch": 56, "duration": 3, "velocity": 87}, {"time": 2234, "pitch": 56, "duration": 3, "velocity": 102}, {"time": 2234, "pitch": 63, "duration": 10, "velocity": 95}, {"time": 2240, "pitch": 56, "duration": 4, "velocity": 93}, {"time": 2246, "pitch": 49, "duration": 38, "velocity": 93}, {"time": 2252, "pitch": 56, "duration": 30, "velocity": 70}, {"time": 2258, "pitch": 61, "duration": 3, "velocity": 80}, {"time": 2264, "pitch": 61, "duration": 3, "velocity": 102}, {"time": 2264, "pitch": 64, "duration": 2, "velocity": 102}, {"time": 2276, "pitch": 61, "duration": 2, "velocity": 87}, {"time": 2276, "pitch": 68, "duration": 2, "velocity": 103}, {"time": 2288, "pitch": 61, "duration": 7, "velocity": 74}, {"time": 2288, "pitch": 64, "duration": 8, "velocity": 80}, {"time": 2294, "pitch": 45, "duration": 39, "velocity": 80}, {"time": 2300, "pitch": 52, "duration": 28, "velocity": 53}, {"time": 2306, "pitch": 57, "duration": 2, "velocity": 71}, {"time": 2312, "pitch": 57, "duration": 3, "velocity": 90}, {"time": 2312, "pitch": 64, "duration": 3, "velocity": 90}, {"time": 2324, "pitch": 57, "duration": 3, "velocity": 83}, {"time": 2324, "pitch": 61, "duration": 3, "velocity": 83}, {"time": 2324, "pitch": 64, "duration": 3, "velocity": 80}, {"time": 2342, "pitch": 49, "duration": 37, "velocity": 83}, {"time": 2342, "pitch": 61, "duration": 7, "velocity": 74}, {"time": 2342, "pitch": 64, "duration": 8, "velocity": 83}, {"time": 2348, "pitch": 56, "duration": 25, "velocity": 74}, {"time": 2354, "pitch": 61, "duration": 3, "velocity": 93}, {"time": 2360, "pitch": 61, "duration": 2, "velocity": 93}, {"time": 2360, "pitch": 68, "duration": 3, "velocity": 102}, {"time": 2372, "pitch": 61, "duration": 6, "velocity": 95}, {"time": 2372, "pitch": 64, "duration": 7, "velocity": 103}, {"time": 2378, "pitch": 56, "duration": 3, "velocity": 67}, {"time": 2384, "pitch": 61, "duration": 6, "velocity": 80}, {"time": 2390, "pitch": 45, "duration": 47, "velocity": 71}, {"time": 2390, "pitch": 64, "duration": 12, "velocity": 74}, {"time": 2396, "pitch": 52, "duration": 40, "velocity": 37}, {"time": 2402, "pitch": 57, "duration": 3, "velocity": 80}, {"time": 2408, "pitch": 57, "duration": 8, "velocity": 95}, {"time": 2408, "pitch": 64, "duration": 9, "velocity": 80}, {"time": 2420, "pitch": 57, "duration": 3, "velocity": 65}, {"time": 2420, "pitch": 61, "duration": 7, "velocity": 80}, {"time": 2426, "pitch": 57, "duration": 8, "velocity": 87}, {"time": 2438, "pitch": 44, "duration": 16, "velocity": 87}, {"time": 2438, "pitch": 56, "duration": 8, "velocity": 83}, {"time": 2438, "pitch": 61, "duration": 10, "velocity": 93}, {"time": 2444, "pitch": 51, "duration": 10, "velocity": 63}, {"time": 2450, "pitch": 56, "duration": 4, "velocity": 83}, {"time": 2456, "pitch": 44, "duration": 28, "velocity": 93}, {"time": 2456, "pitch": 56, "duration": 15, "velocity": 93}, {"time": 2456, "pitch": 61, "duration": 16, "velocity": 85}, {"time": 2468, "pitch": 51, "duration": 15, "velocity": 70}, {"time": 2474, "pitch": 56, "duration": 7, "velocity": 105}, {"time": 2480, "pitch": 61, "duration": 4, "velocity": 87}, {"time": 2486, "pitch": 44, "duration": 46, "velocity": 93}, {"time": 2486, "pitch": 56, "duration": 7, "velocity": 80}, {"time": 2486, "pitch": 63, "duration": 8, "velocity": 80}, {"time": 2492, "pitch": 51, "duration": 39, "velocity": 71}, {"time": 2498, "pitch": 56, "duration": 3, "velocity": 93}, {"time": 2504, "pitch": 56, "duration": 28, "velocity": 87}, {"time": 2504, "pitch": 63, "duration": 28, "velocity": 85}, {"time": 2534, "pitch": 37, "duration": 31, "velocity": 87}, {"time": 2534, "pitch": 61, "duration": 7, "velocity": 74}, {"time": 2534, "pitch": 64, "duration": 10, "velocity": 80}, {"time": 2540, "pitch": 44, "duration": 25, "velocity": 65}, {"time": 2546, "pitch": 56, "duration": 3, "velocity": 93}, {"time": 2552, "pitch": 56, "duration": 3, "velocity": 103}, {"time": 2552, "pitch": 64, "duration": 3, "velocity": 90}, {"time": 2570, "pitch": 61, "duration": 3, "velocity": 93}, {"time": 2576, "pitch": 56, "duration": 4, "velocity": 80}, {"time": 2576, "pitch": 61, "duration": 2, "velocity": 29}, {"time": 2582, "pitch": 44, "duration": 45, "velocity": 80}, {"time": 2582, "pitch": 63, "duration": 12, "velocity": 67}, {"time": 2588, "pitch": 51, "duration": 19, "velocity": 68}, {"time": 2594, "pitch": 56, "duration": 3, "velocity": 80}, {"time": 2600, "pitch": 56, "duration": 12, "velocity": 87}, {"time": 2600, "pitch": 59, "duration": 12, "velocity": 83}, {"time": 2612, "pitch": 51, "duration": 16, "velocity": 65}, {"time": 2618, "pitch": 56, "duration": 2, "velocity": 87}, {"time": 2618, "pitch": 63, "duration": 6, "velocity": 93}, {"time": 2624, "pitch": 56, "duration": 7, "velocity": 95}, {"time": 2630, "pitch": 49, "duration": 39, "velocity": 74}, {"time": 2630, "pitch": 64, "duration": 9, "velocity": 87}, {"time": 2636, "pitch": 56, "duration": 7, "velocity": 93}, {"time": 2642, "pitch": 61, "duration": 3, "velocity": 68}, {"time": 2648, "pitch": 56, "duration": 3, "velocity": 90}, {"time": 2648, "pitch": 64, "duration": 3, "velocity": 90}, {"time": 2666, "pitch": 61, "duration": 6, "velocity": 93}, {"time": 2672, "pitch": 56, "duration": 8, "velocity": 93}, {"time": 2678, "pitch": 44, "duration": 44, "velocity": 83}, {"time": 2678, "pitch": 63, "duration": 13, "velocity": 87}, {"time": 2684, "pitch": 51, "duration": 17, "velocity": 68}, {"time": 2690, "pitch": 56, "duration": 3, "velocity": 93}, {"time": 2696, "pitch": 56, "duration": 14, "velocity": 95}, {"time": 2696, "pitch": 63, "duration": 14, "velocity": 90}, {"time": 2708, "pitch": 51, "duration": 9, "velocity": 63}, {"time": 2714, "pitch": 56, "duration": 5, "velocity": 87}, {"time": 2714, "pitch": 63, "duration": 7, "velocity": 93}, {"time": 2720, "pitch": 51, "duration": 5, "velocity": 85}, {"time": 2726, "pitch": 49, "duration": 45, "velocity": 74}, {"time": 2726, "pitch": 64, "duration": 10, "velocity": 95}, {"time": 2732, "pitch": 56, "duration": 7, "velocity": 102}, {"time": 2738, "pitch": 61, "duration": 4, "velocity": 70}, {"time": 2750, "pitch": 56, "duration": 3, "velocity": 95}, {"time": 2750, "pitch": 64, "duration": 19, "velocity": 87}, {"time": 2756, "pitch": 56, "duration": 14, "velocity": 74}, {"time": 2768, "pitch": 61, "duration": 3, "velocity": 74}, {"time": 2774, "pitch": 44, "duration": 39, "velocity": 74}, {"time": 2774, "pitch": 63, "duration": 14, "velocity": 72}, {"time": 2780, "pitch": 51, "duration": 27, "velocity": 67}, {"time": 2786, "pitch": 56, "duration": 3, "velocity": 83}, {"time": 2792, "pitch": 56, "duration": 7, "velocity": 90}, {"time": 2792, "pitch": 63, "duration": 7, "velocity": 93}, {"time": 2804, "pitch": 56, "duration": 6, "velocity": 80}, {"time": 2804, "pitch": 59, "duration": 6, "velocity": 95}, {"time": 2810, "pitch": 51, "duration": 4, "velocity": 69}, {"time": 2822, "pitch": 42, "duration": 42, "velocity": 93}, {"time": 2822, "pitch": 54, "duration": 8, "velocity": 66}, {"time": 2822, "pitch": 61, "duration": 14, "velocity": 74}, {"time": 2828, "pitch": 49, "duration": 17, "velocity": 64}, {"time": 2834, "pitch": 54, "duration": 3, "velocity": 80}, {"time": 2840, "pitch": 54, "duration": 14, "velocity": 93}, {"time": 2840, "pitch": 61, "duration": 19, "velocity": 83}, {"time": 2852, "pitch": 49, "duration": 14, "velocity": 68}, {"time": 2858, "pitch": 54, "duration": 6, "velocity": 103}, {"time": 2864, "pitch": 61, "duration": 4, "velocity": 87}, {"time": 2870, "pitch": 44, "duration": 43, "velocity": 87}, {"time": 2870, "pitch": 63, "duration": 12, "velocity": 80}, {"time": 2876, "pitch": 51, "duration": 21, "velocity": 68}, {"time": 2882, "pitch": 56, "duration": 4, "velocity": 90}, {"time": 2888, "pitch": 63, "duration": 18, "velocity": 93}, {"time": 2900, "pitch": 51, "duration": 13, "velocity": 69}, {"time": 2906, "pitch": 56, "duration": 6, "velocity": 105}, {"time": 2918, "pitch": 49, "duration": 42, "velocity": 87}, {"time": 2918, "pitch": 56, "duration": 3, "velocity": 103}, {"time": 2918, "pitch": 64, "duration": 7, "velocity": 80}, {"time": 2924, "pitch": 56, "duration": 4, "velocity": 93}, {"time": 2930, "pitch": 64, "duration": 4, "velocity": 112}, {"time": 2936, "pitch": 56, "duration": 5, "velocity": 102}, {"time": 2948, "pitch": 56, "duration": 3, "velocity": 93}, {"time": 2954, "pitch": 61, "duration": 7, "velocity": 93}, {"time": 2954, "pitch": 64, "duration": 6, "velocity": 95}, {"time": 2960, "pitch": 56, "duration": 3, "velocity": 93}, {"time": 2966, "pitch": 47, "duration": 39, "velocity": 83}, {"time": 2966, "pitch": 59, "duration": 7, "velocity": 71}, {"time": 2966, "pitch": 63, "duration": 7, "velocity": 93}, {"time": 2972, "pitch": 54, "duration": 8, "velocity": 87}, {"time": 2978, "pitch": 59, "duration": 2, "velocity": 68}, {"time": 2984, "pitch": 54, "duration": 3, "velocity": 93}, {"time": 2984, "pitch": 63, "duration": 9, "velocity": 95}, {"time": 2996, "pitch": 59, "duration": 3, "velocity": 87}, {"time": 3002, "pitch": 54, "duration": 2, "velocity": 93}, {"time": 3002, "pitch": 59, "duration": 5, "velocity": 103}, {"time": 3002, "pitch": 63, "duration": 7, "velocity": 102}, {"time": 3008, "pitch": 54, "duration": 4, "velocity": 87}, {"time": 3014, "pitch": 45, "duration": 43, "velocity": 65}, {"time": 3014, "pitch": 61, "duration": 7, "velocity": 102}, {"time": 3020, "pitch": 52, "duration": 39, "velocity": 45}, {"time": 3026, "pitch": 57, "duration": 3, "velocity": 74}, {"time": 3026, "pitch": 61, "duration": 8, "velocity": 80}, {"time": 3032, "pitch": 57, "duration": 6, "velocity": 72}, {"time": 3044, "pitch": 57, "duration": 3, "velocity": 87}, {"time": 3050, "pitch": 57, "duration": 3, "velocity": 69}, {"time": 3050, "pitch": 61, "duration": 8, "velocity": 87}, {"time": 3056, "pitch": 57, "duration": 2, "velocity": 61}, {"time": 3062, "pitch": 44, "duration": 44, "velocity": 80}, {"time": 3062, "pitch": 56, "duration": 8, "velocity": 63}, {"time": 3062, "pitch": 63, "duration": 12, "velocity": 74}, {"time": 3068, "pitch": 51, "duration": 15, "velocity": 71}, {"time": 3074, "pitch": 56, "duration": 3, "velocity": 102}, {"time": 3080, "pitch": 56, "duration": 9, "velocity": 87}, {"time": 3080, "pitch": 63, "duration": 9, "velocity": 93}, {"time": 3086, "pitch": 51, "duration": 9, "velocity": 80}, {"time": 3092, "pitch": 56, "duration": 8, "velocity": 95}, {"time": 3092, "pitch": 63, "duration": 11, "velocity": 102}, {"time": 3098, "pitch": 51, "duration": 8, "velocity": 87}, {"time": 3104, "pitch": 56, "duration": 4, "velocity": 102}, {"time": 3110, "pitch": 49, "duration": 42, "velocity": 83}, {"time": 3110, "pitch": 56, "duration": 4, "velocity": 80}, {"time": 3110, "pitch": 64, "duration": 8, "velocity": 83}, {"time": 3116, "pitch": 56, "duration": 3, "velocity": 85}, {"time": 3122, "pitch": 56, "duration": 3, "velocity": 93}, {"time": 3122, "pitch": 64, "duration": 4, "velocity": 87}, {"time": 3128, "pitch": 56, "duration": 7, "velocity": 93}, {"time": 3128, "pitch": 64, "duration": 9, "velocity": 93}, {"time": 3140, "pitch": 56, "duration": 4, "velocity": 93}, {"time": 3146, "pitch": 56, "duration": 3, "velocity": 87}, {"time": 3146, "pitch": 61, "duration": 7, "velocity": 87}, {"time": 3152, "pitch": 56, "duration": 3, "velocity": 93}, {"time": 3158, "pitch": 47, "duration": 41, "velocity": 71}, {"time": 3158, "pitch": 59, "duration": 8, "velocity": 93}, {"time": 3158, "pitch": 63, "duration": 7, "velocity": 93}, {"time": 3164, "pitch": 54, "duration": 4, "velocity": 87}, {"time": 3170, "pitch": 59, "duration": 1, "velocity": 44}, {"time": 3170, "pitch": 63, "duration": 2, "velocity": 74}, {"time": 3176, "pitch": 59, "duration": 9, "velocity": 102}, {"time": 3176, "pitch": 63, "duration": 8, "velocity": 102}, {"time": 3188, "pitch": 54, "duration": 4, "velocity": 83}, {"time": 3194, "pitch": 54, "duration": 3, "velocity": 93}, {"time": 3194, "pitch": 59, "duration": 6, "velocity": 87}, {"time": 3200, "pitch": 54, "duration": 5, "velocity": 80}, {"time": 3206, "pitch": 45, "duration": 38, "velocity": 71}, {"time": 3206, "pitch": 57, "duration": 6, "velocity": 80}, {"time": 3206, "pitch": 61, "duration": 9, "velocity": 93}, {"time": 3212, "pitch": 52, "duration": 26, "velocity": 69}, {"time": 3218, "pitch": 57, "duration": 3, "velocity": 93}, {"time": 3224, "pitch": 57, "duration": 6, "velocity": 87}, {"time": 3224, "pitch": 64, "duration": 5, "velocity": 80}, {"time": 3236, "pitch": 57, "duration": 8, "velocity": 87}, {"time": 3236, "pitch": 61, "duration": 10, "velocity": 93}, {"time": 3242, "pitch": 52, "duration": 8, "velocity": 80}, {"time": 3248, "pitch": 57, "duration": 3, "velocity": 87}, {"time": 3254, "pitch": 44, "duration": 47, "velocity": 80}, {"time": 3254, "pitch": 56, "duration": 8, "velocity": 69}, {"time": 3254, "pitch": 63, "duration": 11, "velocity": 70}, {"time": 3260, "pitch": 51, "duration": 15, "velocity": 72}, {"time": 3266, "pitch": 56, "duration": 3, "velocity": 102}, {"time": 3272, "pitch": 56, "duration": 7, "velocity": 93}, {"time": 3272, "pitch": 63, "duration": 14, "velocity": 85}, {"time": 3278, "pitch": 51, "duration": 23, "velocity": 63}, {"time": 3284, "pitch": 56, "duration": 3, "velocity": 87}, {"time": 3290, "pitch": 56, "duration": 3, "velocity": 102}, {"time": 3290, "pitch": 63, "duration": 10, "velocity": 95}, {"time": 3296, "pitch": 56, "duration": 4, "velocity": 93}, {"time": 3302, "pitch": 49, "duration": 40, "velocity": 74}, {"time": 3302, "pitch": 61, "duration": 19, "velocity": 74}, {"time": 3302, "pitch": 64, "duration": 25, "velocity": 68}, {"time": 3320, "pitch": 56, "duration": 22, "velocity": 54}, {"time": 3332, "pitch": 61, "duration": 4, "velocity": 43}, {"time": 3338, "pitch": 61, "duration": 5, "velocity": 87}, {"time": 3338, "pitch": 64, "duration": 4, "velocity": 87}, {"time": 3350, "pitch": 49, "duration": 38, "velocity": 80}, {"time": 3356, "pitch": 56, "duration": 32, "velocity": 59}, {"time": 3368, "pitch": 61, "duration": 8, "velocity": 69}, {"time": 3368, "pitch": 64, "duration": 8, "velocity": 69}, {"time": 3398, "pitch": 49, "duration": 44, "velocity": 80}, {"time": 3398, "pitch": 61, "duration": 7, "velocity": 66}, {"time": 3398, "pitch": 64, "duration": 9, "velocity": 74}, {"time": 3404, "pitch": 56, "duration": 39, "velocity": 53}, {"time": 3410, "pitch": 61, "duration": 3, "velocity": 49}, {"time": 3416, "pitch": 61, "duration": 10, "velocity": 80}, {"time": 3416, "pitch": 64, "duration": 10, "velocity": 87}, {"time": 3446, "pitch": 49, "duration": 34, "velocity": 74}, {"time": 3446, "pitch": 61, "duration": 14, "velocity": 66}, {"time": 3446, "pitch": 64, "duration": 15, "velocity": 72}, {"time": 3458, "pitch": 56, "duration": 20, "velocity": 66}, {"time": 3464, "pitch": 61, "duration": 4, "velocity": 74}, {"time": 3464, "pitch": 64, "duration": 4, "velocity": 69}, {"time": 3464, "pitch": 68, "duration": 5, "velocity": 87}, {"time": 3476, "pitch": 61, "duration": 2, "velocity": 66}, {"time": 3476, "pitch": 64, "duration": 2, "velocity": 72}, {"time": 3482, "pitch": 56, "duration": 6, "velocity": 72}, {"time": 3485, "pitch": 61, "duration": 12, "velocity": 53}, {"time": 3494, "pitch": 37, "duration": 31, "velocity": 87}, {"time": 3494, "pitch": 61, "duration": 3, "velocity": 74}, {"time": 3494, "pitch": 64, "duration": 10, "velocity": 80}, {"time": 3500, "pitch": 44, "duration": 25, "velocity": 65}, {"time": 3506, "pitch": 56, "duration": 3, "velocity": 93}, {"time": 3512, "pitch": 56, "duration": 3, "velocity": 103}, {"time": 3512, "pitch": 64, "duration": 3, "velocity": 90}, {"time": 3530, "pitch": 61, "duration": 3, "velocity": 93}, {"time": 3536, "pitch": 56, "duration": 4, "velocity": 80}, {"time": 3536, "pitch": 61, "duration": 2, "velocity": 29}, {"time": 3542, "pitch": 44, "duration": 45, "velocity": 80}, {"time": 3542, "pitch": 63, "duration": 12, "velocity": 67}, {"time": 3548, "pitch": 51, "duration": 19, "velocity": 68}, {"time": 3554, "pitch": 56, "duration": 3, "velocity": 80}, {"time": 3560, "pitch": 56, "duration": 12, "velocity": 87}, {"time": 3560, "pitch": 59, "duration": 12, "velocity": 83}, {"time": 3572, "pitch": 51, "duration": 16, "velocity": 65}, {"time": 3578, "pitch": 56, "duration": 2, "velocity": 87}, {"time": 3578, "pitch": 63, "duration": 6, "velocity": 93}, {"time": 3584, "pitch": 56, "duration": 7, "velocity": 95}, {"time": 3590, "pitch": 49, "duration": 39, "velocity": 74}, {"time": 3590, "pitch": 64, "duration": 9, "velocity": 87}, {"time": 3596, "pitch": 56, "duration": 7, "velocity": 93}, {"time": 3602, "pitch": 61, "duration": 3, "velocity": 68}, {"time": 3608, "pitch": 56, "duration": 3, "velocity": 90}, {"time": 3608, "pitch": 64, "duration": 3, "velocity": 90}, {"time": 3626, "pitch": 61, "duration": 6, "velocity": 93}, {"time": 3632, "pitch": 56, "duration": 8, "velocity": 93}, {"time": 3638, "pitch": 44, "duration": 44, "velocity": 83}, {"time": 3638, "pitch": 63, "duration": 13, "velocity": 87}, {"time": 3644, "pitch": 51, "duration": 17, "velocity": 68}, {"time": 3650, "pitch": 56, "duration": 3, "velocity": 93}, {"time": 3656, "pitch": 56, "duration": 14, "velocity": 95}, {"time": 3656, "pitch": 63, "duration": 14, "velocity": 90}, {"time": 3668, "pitch": 51, "duration": 9, "velocity": 63}, {"time": 3674, "pitch": 56, "duration": 5, "velocity": 87}, {"time": 3674, "pitch": 63, "duration": 7, "velocity": 93}, {"time": 3680, "pitch": 51, "duration": 5, "velocity": 85}, {"time": 3686, "pitch": 49, "duration": 45, "velocity": 74}, {"time": 3686, "pitch": 64, "duration": 10, "velocity": 95}, {"time": 3692, "pitch": 56, "duration": 7, "velocity": 102}, {"time": 3698, "pitch": 61, "duration": 4, "velocity": 70}, {"time": 3710, "pitch": 56, "duration": 3, "velocity": 95}, {"time": 3710, "pitch": 64, "duration": 19, "velocity": 87}, {"time": 3716, "pitch": 56, "duration": 14, "velocity": 74}, {"time": 3728, "pitch": 61, "duration": 3, "velocity": 74}, {"time": 3734, "pitch": 44, "duration": 39, "velocity": 74}, {"time": 3734, "pitch": 63, "duration": 14, "velocity": 72}, {"time": 3740, "pitch": 51, "duration": 27, "velocity": 67}, {"time": 3746, "pitch": 56, "duration": 3, "velocity": 83}, {"time": 3752, "pitch": 56, "duration": 7, "velocity": 90}, {"time": 3752, "pitch": 63, "duration": 7, "velocity": 93}, {"time": 3764, "pitch": 56, "duration": 6, "velocity": 80}, {"time": 3764, "pitch": 59, "duration": 6, "velocity": 95}, {"time": 3770, "pitch": 51, "duration": 4, "velocity": 69}, {"time": 3782, "pitch": 42, "duration": 42, "velocity": 93}, {"time": 3782, "pitch": 54, "duration": 8, "velocity": 66}, {"time": 3782, "pitch": 61, "duration": 14, "velocity": 74}, {"time": 3788, "pitch": 49, "duration": 17, "velocity": 64}, {"time": 3794, "pitch": 54, "duration": 3, "velocity": 80}, {"time": 3800, "pitch": 54, "duration": 14, "velocity": 93}, {"time": 3800, "pitch": 61, "duration": 19, "velocity": 83}, {"time": 3812, "pitch": 49, "duration": 14, "velocity": 68}, {"time": 3818, "pitch": 54, "duration": 6, "velocity": 103}, {"time": 3824, "pitch": 61, "duration": 4, "velocity": 87}, {"time": 3830, "pitch": 44, "duration": 43, "velocity": 87}, {"time": 3830, "pitch": 63, "duration": 12, "velocity": 80}, {"time": 3836, "pitch": 51, "duration": 21, "velocity": 68}, {"time": 3842, "pitch": 56, "duration": 4, "velocity": 90}, {"time": 3848, "pitch": 63, "duration": 18, "velocity": 93}, {"time": 3860, "pitch": 51, "duration": 13, "velocity": 69}, {"time": 3866, "pitch": 56, "duration": 6, "velocity": 105}, {"time": 3878, "pitch": 49, "duration": 42, "velocity": 87}, {"time": 3878, "pitch": 56, "duration": 3, "velocity": 103}, {"time": 3878, "pitch": 64, "duration": 7, "velocity": 80}, {"time": 3884, "pitch": 56, "duration": 4, "velocity": 93}, {"time": 3890, "pitch": 64, "duration": 4, "velocity": 112}, {"time": 3896, "pitch": 56, "duration": 5, "velocity": 102}, {"time": 3908, "pitch": 56, "duration": 3, "velocity": 93}, {"time": 3914, "pitch": 61, "duration": 7, "velocity": 93}, {"time": 3914, "pitch": 64, "duration": 6, "velocity": 95}, {"time": 3920, "pitch": 56, "duration": 3, "velocity": 93}, {"time": 3926, "pitch": 47, "duration": 39, "velocity": 83}, {"time": 3926, "pitch": 59, "duration": 7, "velocity": 71}, {"time": 3926, "pitch": 63, "duration": 7, "velocity": 93}, {"time": 3932, "pitch": 54, "duration": 8, "velocity": 87}, {"time": 3938, "pitch": 59, "duration": 2, "velocity": 68}, {"time": 3944, "pitch": 54, "duration": 3, "velocity": 93}, {"time": 3944, "pitch": 63, "duration": 9, "velocity": 95}, {"time": 3956, "pitch": 59, "duration": 3, "velocity": 87}, {"time": 3962, "pitch": 54, "duration": 2, "velocity": 93}, {"time": 3962, "pitch": 59, "duration": 5, "velocity": 103}, {"time": 3962, "pitch": 63, "duration": 7, "velocity": 102}, {"time": 3968, "pitch": 54, "duration": 4, "velocity": 87}, {"time": 3974, "pitch": 45, "duration": 43, "velocity": 65}, {"time": 3974, "pitch": 61, "duration": 7, "velocity": 102}, {"time": 3980, "pitch": 52, "duration": 39, "velocity": 45}, {"time": 3986, "pitch": 57, "duration": 3, "velocity": 74}, {"time": 3986, "pitch": 61, "duration": 8, "velocity": 80}, {"time": 3992, "pitch": 57, "duration": 6, "velocity": 72}, {"time": 4004, "pitch": 57, "duration": 3, "velocity": 87}, {"time": 4010, "pitch": 57, "duration": 3, "velocity": 69}, {"time": 4010, "pitch": 61, "duration": 8, "velocity": 87}, {"time": 4016, "pitch": 57, "duration": 2, "velocity": 61}, {"time": 4022, "pitch": 44, "duration": 44, "velocity": 80}, {"time": 4022, "pitch": 56, "duration": 8, "velocity": 63}, {"time": 4022, "pitch": 63, "duration": 12, "velocity": 74}, {"time": 4028, "pitch": 51, "duration": 15, "velocity": 71}, {"time": 4034, "pitch": 56, "duration": 3, "velocity": 102}, {"time": 4040, "pitch": 56, "duration": 9, "velocity": 87}, {"time": 4040, "pitch": 63, "duration": 9, "velocity": 93}, {"time": 4046, "pitch": 51, "duration": 9, "velocity": 80}, {"time": 4052, "pitch": 56, "duration": 8, "velocity": 95}, {"time": 4052, "pitch": 63, "duration": 11, "velocity": 102}, {"time": 4058, "pitch": 51, "duration": 8, "velocity": 87}, {"time": 4064, "pitch": 56, "duration": 4, "velocity": 102}, {"time": 4070, "pitch": 49, "duration": 42, "velocity": 83}, {"time": 4070, "pitch": 56, "duration": 4, "velocity": 80}, {"time": 4070, "pitch": 64, "duration": 8, "velocity": 83}, {"time": 4076, "pitch": 56, "duration": 3, "velocity": 85}, {"time": 4082, "pitch": 56, "duration": 3, "velocity": 93}, {"time": 4082, "pitch": 64, "duration": 4, "velocity": 87}, {"time": 4088, "pitch": 56, "duration": 7, "velocity": 93}, {"time": 4088, "pitch": 64, "duration": 9, "velocity": 93}, {"time": 4100, "pitch": 56, "duration": 4, "velocity": 93}, {"time": 4106, "pitch": 56, "duration": 3, "velocity": 87}, {"time": 4106, "pitch": 61, "duration": 7, "velocity": 87}, {"time": 4112, "pitch": 56, "duration": 3, "velocity": 93}, {"time": 4118, "pitch": 47, "duration": 41, "velocity": 71}, {"time": 4118, "pitch": 59, "duration": 8, "velocity": 93}, {"time": 4118, "pitch": 63, "duration": 7, "velocity": 93}, {"time": 4124, "pitch": 54, "duration": 4, "velocity": 87}, {"time": 4130, "pitch": 59, "duration": 1, "velocity": 44}, {"time": 4130, "pitch": 63, "duration": 2, "velocity": 74}, {"time": 4136, "pitch": 59, "duration": 9, "velocity": 102}, {"time": 4136, "pitch": 63, "duration": 8, "velocity": 102}, {"time": 4148, "pitch": 54, "duration": 4, "velocity": 83}, {"time": 4154, "pitch": 54, "duration": 3, "velocity": 93}, {"time": 4154, "pitch": 59, "duration": 6, "velocity": 87}, {"time": 4160, "pitch": 54, "duration": 5, "velocity": 80}, {"time": 4166, "pitch": 45, "duration": 38, "velocity": 71}, {"time": 4166, "pitch": 57, "duration": 6, "velocity": 80}, {"time": 4166, "pitch": 61, "duration": 9, "velocity": 93}, {"time": 4172, "pitch": 52, "duration": 26, "velocity": 69}, {"time": 4178, "pitch": 57, "duration": 3, "velocity": 93}, {"time": 4184, "pitch": 57, "duration": 6, "velocity": 87}, {"time": 4184, "pitch": 64, "duration": 5, "velocity": 80}, {"time": 4196, "pitch": 57, "duration": 8, "velocity": 87}, {"time": 4196, "pitch": 61, "duration": 10, "velocity": 93}, {"time": 4202, "pitch": 52, "duration": 8, "velocity": 80}, {"time": 4208, "pitch": 57, "duration": 3, "velocity": 87}, {"time": 4214, "pitch": 44, "duration": 47, "velocity": 80}, {"time": 4214, "pitch": 56, "duration": 8, "velocity": 69}, {"time": 4214, "pitch": 63, "duration": 11, "velocity": 70}, {"time": 4220, "pitch": 51, "duration": 15, "velocity": 72}, {"time": 4226, "pitch": 56, "duration": 3, "velocity": 102}, {"time": 4232, "pitch": 56, "duration": 7, "velocity": 93}, {"time": 4232, "pitch": 63, "duration": 14, "velocity": 85}, {"time": 4238, "pitch": 51, "duration": 23, "velocity": 63}, {"time": 4244, "pitch": 56, "duration": 3, "velocity": 87}, {"time": 4250, "pitch": 56, "duration": 3, "velocity": 102}, {"time": 4250, "pitch": 63, "duration": 10, "velocity": 95}, {"time": 4256, "pitch": 56, "duration": 4, "velocity": 93}, {"time": 4262, "pitch": 37, "duration": 15, "velocity": 93}, {"time": 4262, "pitch": 56, "duration": 5, "velocity": 87}, {"time": 4262, "pitch": 61, "duration": 8, "velocity": 87}, {"time": 4268, "pitch": 56, "duration": 3, "velocity": 87}, {"time": 4274, "pitch": 56, "duration": 2, "velocity": 87}, {"time": 4274, "pitch": 61, "duration": 5, "velocity": 102}, {"time": 4274, "pitch": 64, "duration": 7, "velocity": 93}, {"time": 4280, "pitch": 56, "duration": 3, "velocity": 102}, {"time": 4280, "pitch": 61, "duration": 2, "velocity": 28}, {"time": 4286, "pitch": 47, "duration": 3, "velocity": 80}, {"time": 4286, "pitch": 59, "duration": 3, "velocity": 72}, {"time": 4286, "pitch": 63, "duration": 3, "velocity": 83}, {"time": 4292, "pitch": 47, "duration": 17, "velocity": 93}, {"time": 4292, "pitch": 59, "duration": 17, "velocity": 93}, {"time": 4292, "pitch": 63, "duration": 17, "velocity": 105}, {"time": 4310, "pitch": 49, "duration": 42, "velocity": 87}, {"time": 4310, "pitch": 56, "duration": 3, "velocity": 103}, {"time": 4310, "pitch": 64, "duration": 7, "velocity": 80}, {"time": 4316, "pitch": 56, "duration": 4, "velocity": 93}, {"time": 4322, "pitch": 64, "duration": 4, "velocity": 112}, {"time": 4328, "pitch": 56, "duration": 5, "velocity": 102}, {"time": 4340, "pitch": 56, "duration": 3, "velocity": 93}, {"time": 4346, "pitch": 61, "duration": 7, "velocity": 93}, {"time": 4346, "pitch": 64, "duration": 6, "velocity": 95}, {"time": 4352, "pitch": 56, "duration": 3, "velocity": 93}, {"time": 4358, "pitch": 47, "duration": 39, "velocity": 83}, {"time": 4358, "pitch": 59, "duration": 7, "velocity": 71}, {"time": 4358, "pitch": 63, "duration": 7, "velocity": 93}, {"time": 4364, "pitch": 54, "duration": 8, "velocity": 87}, {"time": 4370, "pitch": 59, "duration": 2, "velocity": 68}, {"time": 4376, "pitch": 54, "duration": 3, "velocity": 93}, {"time": 4376, "pitch": 63, "duration": 9, "velocity": 95}, {"time": 4388, "pitch": 59, "duration": 3, "velocity": 87}, {"time": 4394, "pitch": 54, "duration": 2, "velocity": 93}, {"time": 4394, "pitch": 59, "duration": 5, "velocity": 103}, {"time": 4394, "pitch": 63, "duration": 7, "velocity": 102}, {"time": 4400, "pitch": 54, "duration": 4, "velocity": 87}, {"time": 4406, "pitch": 45, "duration": 43, "velocity": 65}, {"time": 4406, "pitch": 61, "duration": 7, "velocity": 102}, {"time": 4412, "pitch": 52, "duration": 39, "velocity": 45}, {"time": 4418, "pitch": 57, "duration": 3, "velocity": 74}, {"time": 4418, "pitch": 61, "duration": 8, "velocity": 80}, {"time": 4424, "pitch": 57, "duration": 6, "velocity": 72}, {"time": 4436, "pitch": 57, "duration": 3, "velocity": 87}, {"time": 4442, "pitch": 57, "duration": 3, "velocity": 69}, {"time": 4442, "pitch": 61, "duration": 8, "velocity": 87}, {"time": 4448, "pitch": 57, "duration": 2, "velocity": 61}, {"time": 4454, "pitch": 44, "duration": 44, "velocity": 80}, {"time": 4454, "pitch": 56, "duration": 8, "velocity": 63}, {"time": 4454, "pitch": 63, "duration": 12, "velocity": 74}, {"time": 4460, "pitch": 51, "duration": 15, "velocity": 71}, {"time": 4466, "pitch": 56, "duration": 3, "velocity": 102}, {"time": 4472, "pitch": 56, "duration": 9, "velocity": 87}, {"time": 4472, "pitch": 63, "duration": 9, "velocity": 93}, {"time": 4478, "pitch": 51, "duration": 9, "velocity": 80}, {"time": 4484, "pitch": 56, "duration": 8, "velocity": 95}, {"time": 4484, "pitch": 63, "duration": 11, "velocity": 102}, {"time": 4490, "pitch": 51, "duration": 8, "velocity": 87}, {"time": 4496, "pitch": 56, "duration": 4, "velocity": 102}, {"time": 4502, "pitch": 49, "duration": 42, "velocity": 83}, {"time": 4502, "pitch": 56, "duration": 4, "velocity": 80}, {"time": 4502, "pitch": 64, "duration": 8, "velocity": 83}, {"time": 4508, "pitch": 56, "duration": 3, "velocity": 85}, {"time": 4514, "pitch": 56, "duration": 3, "velocity": 93}, {"time": 4514, "pitch": 64, "duration": 4, "velocity": 87}, {"time": 4520, "pitch": 56, "duration": 7, "velocity": 93}, {"time": 4520, "pitch": 64, "duration": 9, "velocity": 93}, {"time": 4532, "pitch": 56, "duration": 4, "velocity": 93}, {"time": 4538, "pitch": 56, "duration": 3, "velocity": 87}, {"time": 4538, "pitch": 61, "duration": 7, "velocity": 87}, {"time": 4544, "pitch": 56, "duration": 3, "velocity": 93}, {"time": 4550, "pitch": 47, "duration": 41, "velocity": 71}, {"time": 4550, "pitch": 59, "duration": 8, "velocity": 93}, {"time": 4550, "pitch": 63, "duration": 7, "velocity": 93}, {"time": 4556, "pitch": 54, "duration": 4, "velocity": 87}, {"time": 4562, "pitch": 59, "duration": 1, "velocity": 44}, {"time": 4562, "pitch": 63, "duration": 2, "velocity": 74}, {"time": 4568, "pitch": 59, "duration": 9, "velocity": 102}, {"time": 4568, "pitch": 63, "duration": 8, "velocity": 102}, {"time": 4580, "pitch": 54, "duration": 4, "velocity": 83}, {"time": 4586, "pitch": 54, "duration": 3, "velocity": 93}, {"time": 4586, "pitch": 59, "duration": 6, "velocity": 87}, {"time": 4592, "pitch": 54, "duration": 5, "velocity": 80}, {"time": 4598, "pitch": 45, "duration": 38, "velocity": 71}, {"time": 4598, "pitch": 57, "duration": 6, "velocity": 80}, {"time": 4598, "pitch": 61, "duration": 9, "velocity": 93}, {"time": 4604, "pitch": 52, "duration": 26, "velocity": 69}, {"time": 4610, "pitch": 57, "duration": 3, "velocity": 93}, {"time": 4616, "pitch": 57, "duration": 6, "velocity": 87}, {"time": 4616, "pitch": 64, "duration": 5, "velocity": 80}, {"time": 4628, "pitch": 57, "duration": 8, "velocity": 87}, {"time": 4628, "pitch": 61, "duration": 10, "velocity": 93}, {"time": 4634, "pitch": 52, "duration": 8, "velocity": 80}, {"time": 4640, "pitch": 57, "duration": 3, "velocity": 87}, {"time": 4646, "pitch": 44, "duration": 47, "velocity": 80}, {"time": 4646, "pitch": 56, "duration": 8, "velocity": 69}, {"time": 4646, "pitch": 63, "duration": 11, "velocity": 70}, {"time": 4652, "pitch": 51, "duration": 15, "velocity": 72}, {"time": 4658, "pitch": 56, "duration": 3, "velocity": 102}, {"time": 4664, "pitch": 56, "duration": 7, "velocity": 93}, {"time": 4664, "pitch": 63, "duration": 14, "velocity": 85}, {"time": 4670, "pitch": 51, "duration": 23, "velocity": 63}, {"time": 4676, "pitch": 56, "duration": 3, "velocity": 87}, {"time": 4682, "pitch": 56, "duration": 3, "velocity": 102}, {"time": 4682, "pitch": 63, "duration": 10, "velocity": 95}, {"time": 4688, "pitch": 56, "duration": 4, "velocity": 93}, {"time": 4694, "pitch": 49, "duration": 38, "velocity": 93}, {"time": 4700, "pitch": 56, "duration": 30, "velocity": 70}, {"time": 4706, "pitch": 61, "duration": 3, "velocity": 80}, {"time": 4712, "pitch": 61, "duration": 3, "velocity": 102}, {"time": 4712, "pitch": 64, "duration": 2, "velocity": 102}, {"time": 4724, "pitch": 61, "duration": 2, "velocity": 87}, {"time": 4724, "pitch": 68, "duration": 2, "velocity": 103}, {"time": 4736, "pitch": 61, "duration": 7, "velocity": 74}, {"time": 4736, "pitch": 64, "duration": 8, "velocity": 80}, {"time": 4742, "pitch": 45, "duration": 39, "velocity": 80}, {"time": 4748, "pitch": 52, "duration": 28, "velocity": 53}, {"time": 4754, "pitch": 57, "duration": 2, "velocity": 71}, {"time": 4760, "pitch": 57, "duration": 3, "velocity": 90}, {"time": 4760, "pitch": 64, "duration": 3, "velocity": 90}, {"time": 4772, "pitch": 57, "duration": 3, "velocity": 83}, {"time": 4772, "pitch": 61, "duration": 3, "velocity": 83}, {"time": 4772, "pitch": 64, "duration": 3, "velocity": 80}, {"time": 4790, "pitch": 49, "duration": 37, "velocity": 83}, {"time": 4790, "pitch": 61, "duration": 7, "velocity": 74}, {"time": 4790, "pitch": 64, "duration": 8, "velocity": 83}, {"time": 4796, "pitch": 56, "duration": 25, "velocity": 74}, {"time": 4802, "pitch": 61, "duration": 3, "velocity": 93}, {"time": 4808, "pitch": 61, "duration": 2, "velocity": 93}, {"time": 4808, "pitch": 68, "duration": 3, "velocity": 102}, {"time": 4820, "pitch": 61, "duration": 6, "velocity": 95}, {"time": 4820, "pitch": 64, "duration": 7, "velocity": 103}, {"time": 4826, "pitch": 56, "duration": 3, "velocity": 67}, {"time": 4832, "pitch": 61, "duration": 6, "velocity": 80}, {"time": 4838, "pitch": 45, "duration": 47, "velocity": 71}, {"time": 4838, "pitch": 64, "duration": 12, "velocity": 74}, {"time": 4844, "pitch": 52, "duration": 40, "velocity": 37}, {"time": 4850, "pitch": 57, "duration": 3, "velocity": 80}, {"time": 4856, "pitch": 57, "duration": 8, "velocity": 95}, {"time": 4856, "pitch": 64, "duration": 9, "velocity": 80}, {"time": 4868, "pitch": 57, "duration": 3, "velocity": 65}, {"time": 4868, "pitch": 61, "duration": 7, "velocity": 80}, {"time": 4874, "pitch": 57, "duration": 8, "velocity": 87}, {"time": 4886, "pitch": 44, "duration": 16, "velocity": 87}, {"time": 4886, "pitch": 56, "duration": 8, "velocity": 83}, {"time": 4886, "pitch": 61, "duration": 10, "velocity": 93}, {"time": 4892, "pitch": 51, "duration": 10, "velocity": 63}, {"time": 4898, "pitch": 56, "duration": 4, "velocity": 83}, {"time": 4904, "pitch": 44, "duration": 28, "velocity": 93}, {"time": 4904, "pitch": 56, "duration": 15, "velocity": 93}, {"time": 4904, "pitch": 61, "duration": 16, "velocity": 85}, {"time": 4916, "pitch": 51, "duration": 15, "velocity": 70}, {"time": 4922, "pitch": 56, "duration": 7, "velocity": 105}, {"time": 4928, "pitch": 61, "duration": 4, "velocity": 87}, {"time": 4934, "pitch": 44, "duration": 46, "velocity": 93}, {"time": 4934, "pitch": 56, "duration": 7, "velocity": 80}, {"time": 4934, "pitch": 63, "duration": 8, "velocity": 80}, {"time": 4940, "pitch": 51, "duration": 39, "velocity": 71}, {"time": 4946, "pitch": 56, "duration": 3, "velocity": 93}, {"time": 4952, "pitch": 56, "duration": 28, "velocity": 87}, {"time": 4952, "pitch": 63, "duration": 28, "velocity": 85}, {"time": 4982, "pitch": 44, "duration": 38, "velocity": 71}, {"time": 4988, "pitch": 51, "duration": 31, "velocity": 67}, {"time": 4994, "pitch": 56, "duration": 25, "velocity": 61}, {"time": 5000, "pitch": 60, "duration": 8, "velocity": 68}, {"time": 5006, "pitch": 63, "duration": 14, "velocity": 49}, {"time": 5030, "pitch": 37, "duration": 34, "velocity": 87}, {"time": 5033, "pitch": 56, "duration": 34, "velocity": 65}, {"time": 5034, "pitch": 61, "duration": 33, "velocity": 64}, {"time": 5036, "pitch": 64, "duration": 30, "velocity": 68}], "annotations": [{"time": 42, "annotation": {"number": 64, "value": 127}, "group": "control_change"}, {"time": 86, "annotation": {"number": 64, "value": 0}, "group": "control_change"}, {"time": 89, "annotation": {"number": 64, "value": 127}, "group": "control_change"}, {"time": 134, "annotation": {"number": 64, "value": 0}, "group": "control_change"}, {"time": 136, "annotation": {"number": 64, "value": 127}, "group": "control_change"}, {"time": 185, "annotation": {"number": 64, "value": 0}, "group": "control_change"}, {"time": 194, "annotation": {"number": 64, "value": 127}, "group": "control_change"}, {"time": 230, "annotation": {"number": 64, "value": 0}, "group": "control_change"}, {"time": 233, "annotation": {"number": 64, "value": 127}, "group": "control_change"}, {"time": 276, "annotation": {"number": 64, "value": 0}, "group": "control_change"}, {"time": 278, "annotation": {"number": 64, "value": 127}, "group": "control_change"}, {"time": 326, "annotation": {"number": 64, "value": 0}, "group": "control_change"}, {"time": 327, "annotation": {"number": 64, "value": 127}, "group": "control_change"}, {"time": 374, "annotation": {"number": 64, "value": 0}, "group": "control_change"}, {"time": 375, "annotation": {"number": 64, "value": 127}, "group": "control_change"}, {"time": 422, "annotation": {"number": 64, "value": 0}, "group": "control_change"}, {"time": 424, "annotation": {"number": 64, "value": 127}, "group": "control_change"}, {"time": 440, "annotation": {"number": 64, "value": 0}, "group": "control_change"}, {"time": 442, "annotation": {"number": 64, "value": 127}, "group": "control_change"}, {"time": 470, "annotation": {"number": 64, "value": 0}, "group": "control_change"}, {"time": 472, "annotation": {"number": 64, "value": 127}, "group": "control_change"}, {"time": 510, "annotation": {"number": 64, "value": 0}, "group": "control_change"}, {"time": 523, "annotation": {"number": 64, "value": 127}, "group": "control_change"}, {"time": 567, "annotation": {"number": 64, "value": 0}, "group": "control_change"}, {"time": 576, "annotation": {"number": 64, "value": 127}, "group": "control_change"}, {"time": 613, "annotation": {"number": 64, "value": 0}, "group": "control_change"}, {"time": 619, "annotation": {"number": 64, "value": 127}, "group": "control_change"}, {"time": 663, "annotation": {"number": 64, "value": 0}, "group": "control_change"}, {"time": 673, "annotation": {"number": 64, "value": 127}, "group": "control_change"}, {"time": 709, "annotation": {"number": 64, "value": 0}, "group": "control_change"}, {"time": 712, "annotation": {"number": 64, "value": 127}, "group": "control_change"}, {"time": 759, "annotation": {"number": 64, "value": 0}, "group": "control_change"}, {"time": 763, "annotation": {"number": 64, "value": 127}, "group": "control_change"}, {"time": 807, "annotation": {"number": 64, "value": 0}, "group": "control_change"}, {"time": 814, "annotation": {"number": 64, "value": 127}, "group": "control_change"}, {"time": 854, "annotation": {"number": 64, "value": 0}, "group": "control_change"}, {"time": 863, "annotation": {"number": 64, "value": 127}, "group": "control_change"}, {"time": 901, "annotation": {"number": 64, "value": 0}, "group": "control_change"}, {"time": 904, "annotation": {"number": 64, "value": 127}, "group": "control_change"}, {"time": 950, "annotation": {"number": 64, "value": 0}, "group": "control_change"}, {"time": 953, "annotation": {"number": 64, "value": 127}, "group": "control_change"}, {"time": 998, "annotation": {"number": 64, "value": 0}, "group": "control_change"}, {"time": 1001, "annotation": {"number": 64, "value": 127}, "group": "control_change"}, {"time": 1049, "annotation": {"number": 64, "value": 0}, "group": "control_change"}, {"time": 1053, "annotation": {"number": 64, "value": 127}, "group": "control_change"}, {"time": 1093, "annotation": {"number": 64, "value": 0}, "group": "control_change"}, {"time": 1097, "annotation": {"number": 64, "value": 127}, "group": "control_change"}, {"time": 1143, "annotation": {"number": 64, "value": 0}, "group": "control_change"}, {"time": 1146, "annotation": {"number": 64, "value": 127}, "group": "control_change"}, {"time": 1190, "annotation": {"number": 64, "value": 0}, "group": "control_change"}, {"time": 1194, "annotation": {"number": 64, "value": 127}, "group": "control_change"}, {"time": 1239, "annotation": {"number": 64, "value": 0}, "group": "control_change"}, {"time": 1243, "annotation": {"number": 64, "value": 127}, "group": "control_change"}, {"time": 1283, "annotation": {"number": 64, "value": 0}, "group": "control_change"}, {"time": 1290, "annotation": {"number": 64, "value": 127}, "group": "control_change"}, {"time": 1334, "annotation": {"number": 64, "value": 0}, "group": "control_change"}, {"time": 1337, "annotation": {"number": 64, "value": 127}, "group": "control_change"}, {"time": 1382, "annotation": {"number": 64, "value": 0}, "group": "control_change"}, {"time": 1384, "annotation": {"number": 64, "value": 127}, "group": "control_change"}, {"time": 1433, "annotation": {"number": 64, "value": 0}, "group": "control_change"}, {"time": 1442, "annotation": {"number": 64, "value": 127}, "group": "control_change"}, {"time": 1478, "annotation": {"number": 64, "value": 0}, "group": "control_change"}, {"time": 1483, "annotation": {"number": 64, "value": 127}, "group": "control_change"}, {"time": 1527, "annotation": {"number": 64, "value": 0}, "group": "control_change"}, {"time": 1536, "annotation": {"number": 64, "value": 127}, "group": "control_change"}, {"time": 1573, "annotation": {"number": 64, "value": 0}, "group": "control_change"}, {"time": 1579, "annotation": {"number": 64, "value": 127}, "group": "control_change"}, {"time": 1623, "annotation": {"number": 64, "value": 0}, "group": "control_change"}, {"time": 1633, "annotation": {"number": 64, "value": 127}, "group": "control_change"}, {"time": 1669, "annotation": {"number": 64, "value": 0}, "group": "control_change"}, {"time": 1672, "annotation": {"number": 64, "value": 127}, "group": "control_change"}, {"time": 1719, "annotation": {"number": 64, "value": 0}, "group": "control_change"}, {"time": 1723, "annotation": {"number": 64, "value": 127}, "group": "control_change"}, {"time": 1767, "annotation": {"number": 64, "value": 0}, "group": "control_change"}, {"time": 1774, "annotation": {"number": 64, "value": 127}, "group": "control_change"}, {"time": 1814, "annotation": {"number": 64, "value": 0}, "group": "control_change"}, {"time": 1823, "annotation": {"number": 64, "value": 127}, "group": "control_change"}, {"time": 1861, "annotation": {"number": 64, "value": 0}, "group": "control_change"}, {"time": 1864, "annotation": {"number": 64, "value": 127}, "group": "control_change"}, {"time": 1910, "annotation": {"number": 64, "value": 0}, "group": "control_change"}, {"time": 1913, "annotation": {"number": 64, "value": 127}, "group": "control_change"}, {"time": 1958, "annotation": {"number": 64, "value": 0}, "group": "control_change"}, {"time": 1961, "annotation": {"number": 64, "value": 127}, "group": "control_change"}, {"time": 2009, "annotation": {"number": 64, "value": 0}, "group": "control_change"}, {"time": 2013, "annotation": {"number": 64, "value": 127}, "group": "control_change"}, {"time": 2053, "annotation": {"number": 64, "value": 0}, "group": "control_change"}, {"time": 2057, "annotation": {"number": 64, "value": 127}, "group": "control_change"}, {"time": 2103, "annotation": {"number": 64, "value": 0}, "group": "control_change"}, {"time": 2106, "annotation": {"number": 64, "value": 127}, "group": "control_change"}, {"time": 2150, "annotation": {"number": 64, "value": 0}, "group": "control_change"}, {"time": 2154, "annotation": {"number": 64, "value": 127}, "group": "control_change"}, {"time": 2199, "annotation": {"number": 64, "value": 0}, "group": "control_change"}, {"time": 2203, "annotation": {"number": 64, "value": 127}, "group": "control_change"}, {"time": 2243, "annotation": {"number": 64, "value": 0}, "group": "control_change"}, {"time": 2249, "annotation": {"number": 64, "value": 127}, "group": "control_change"}, {"time": 2292, "annotation": {"number": 64, "value": 0}, "group": "control_change"}, {"time": 2294, "annotation": {"number": 64, "value": 127}, "group": "control_change"}, {"time": 2342, "annotation": {"number": 64, "value": 0}, "group": "control_change"}, {"time": 2343, "annotation": {"number": 64, "value": 127}, "group": "control_change"}, {"time": 2390, "annotation": {"number": 64, "value": 0}, "group": "control_change"}, {"time": 2391, "annotation": {"number": 64, "value": 127}, "group": "control_change"}, {"time": 2438, "annotation": {"number": 64, "value": 0}, "group": "control_change"}, {"time": 2440, "annotation": {"number": 64, "value": 127}, "group": "control_change"}, {"time": 2456, "annotation": {"number": 64, "value": 0}, "group": "control_change"}, {"time": 2458, "annotation": {"number": 64, "value": 127}, "group": "control_change"}, {"time": 2486, "annotation": {"number": 64, "value": 0}, "group": "control_change"}, {"time": 2488, "annotation": {"number": 64, "value": 127}, "group": "control_change"}, {"time": 2526, "annotation": {"number": 64, "value": 0}, "group": "control_change"}, {"time": 2539, "annotation": {"number": 64, "value": 127}, "group": "control_change"}, {"time": 2583, "annotation": {"number": 64, "value": 0}, "group": "control_change"}, {"time": 2592, "annotation": {"number": 64, "value": 127}, "group": "control_change"}, {"time": 2629, "annotation": {"number": 64, "value": 0}, "group": "control_change"}, {"time": 2635, "annotation": {"number": 64, "value": 127}, "group": "control_change"}, {"time": 2679, "annotation": {"number": 64, "value": 0}, "group": "control_change"}, {"time": 2689, "annotation": {"number": 64, "value": 127}, "group": "control_change"}, {"time": 2725, "annotation": {"number": 64, "value": 0}, "group": "control_change"}, {"time": 2728, "annotation": {"number": 64, "value": 127}, "group": "control_change"}, {"time": 2775, "annotation": {"number": 64, "value": 0}, "group": "control_change"}, {"time": 2779, "annotation": {"number": 64, "value": 127}, "group": "control_change"}, {"time": 2823, "annotation": {"number": 64, "value": 0}, "group": "control_change"}, {"time": 2830, "annotation": {"number": 64, "value": 127}, "group": "control_change"}, {"time": 2870, "annotation": {"number": 64, "value": 0}, "group": "control_change"}, {"time": 2879, "annotation": {"number": 64, "value": 127}, "group": "control_change"}, {"time": 2917, "annotation": {"number": 64, "value": 0}, "group": "control_change"}, {"time": 2920, "annotation": {"number": 64, "value": 127}, "group": "control_change"}, {"time": 2966, "annotation": {"number": 64, "value": 0}, "group": "control_change"}, {"time": 2969, "annotation": {"number": 64, "value": 127}, "group": "control_change"}, {"time": 3014, "annotation": {"number": 64, "value": 0}, "group": "control_change"}, {"time": 3017, "annotation": {"number": 64, "value": 127}, "group": "control_change"}, {"time": 3065, "annotation": {"number": 64, "value": 0}, "group": "control_change"}, {"time": 3069, "annotation": {"number": 64, "value": 127}, "group": "control_change"}, {"time": 3109, "annotation": {"number": 64, "value": 0}, "group": "control_change"}, {"time": 3113, "annotation": {"number": 64, "value": 127}, "group": "control_change"}, {"time": 3159, "annotation": {"number": 64, "value": 0}, "group": "control_change"}, {"time": 3162, "annotation": {"number": 64, "value": 127}, "group": "control_change"}, {"time": 3206, "annotation": {"number": 64, "value": 0}, "group": "control_change"}, {"time": 3210, "annotation": {"number": 64, "value": 127}, "group": "control_change"}, {"time": 3255, "annotation": {"number": 64, "value": 0}, "group": "control_change"}, {"time": 3259, "annotation": {"number": 64, "value": 127}, "group": "control_change"}, {"time": 3299, "annotation": {"number": 64, "value": 0}, "group": "control_change"}, {"time": 3306, "annotation": {"number": 64, "value": 127}, "group": "control_change"}, {"time": 3350, "annotation": {"number": 64, "value": 0}, "group": "control_change"}, {"time": 3353, "annotation": {"number": 64, "value": 127}, "group": "control_change"}, {"time": 3398, "annotation": {"number": 64, "value": 0}, "group": "control_change"}, {"time": 3400, "annotation": {"number": 64, "value": 127}, "group": "control_change"}, {"time": 3449, "annotation": {"number": 64, "value": 0}, "group": "control_change"}, {"time": 3458, "annotation": {"number": 64, "value": 127}, "group": "control_change"}, {"time": 3494, "annotation": {"number": 64, "value": 0}, "group": "control_change"}, {"time": 3499, "annotation": {"number": 64, "value": 127}, "group": "control_change"}, {"time": 3543, "annotation": {"number": 64, "value": 0}, "group": "control_change"}, {"time": 3552, "annotation": {"number": 64, "value": 127}, "group": "control_change"}, {"time": 3589, "annotation": {"number": 64, "value": 0}, "group": "control_change"}, {"time": 3595, "annotation": {"number": 64, "value": 127}, "group": "control_change"}, {"time": 3639, "annotation": {"number": 64, "value": 0}, "group": "control_change"}, {"time": 3649, "annotation": {"number": 64, "value": 127}, "group": "control_change"}, {"time": 3685, "annotation": {"number": 64, "value": 0}, "group": "control_change"}, {"time": 3688, "annotation": {"number": 64, "value": 127}, "group": "control_change"}, {"time": 3735, "annotation": {"number": 64, "value": 0}, "group": "control_change"}, {"time": 3739, "annotation": {"number": 64, "value": 127}, "group": "control_change"}, {"time": 3783, "annotation": {"number": 64, "value": 0}, "group": "control_change"}, {"time": 3790, "annotation": {"number": 64, "value": 127}, "group": "control_change"}, {"time": 3830, "annotation": {"number": 64, "value": 0}, "group": "control_change"}, {"time": 3839, "annotation": {"number": 64, "value": 127}, "group": "control_change"}, {"time": 3877, "annotation": {"number": 64, "value": 0}, "group": "control_change"}, {"time": 3880, "annotation": {"number": 64, "value": 127}, "group": "control_change"}, {"time": 3926, "annotation": {"number": 64, "value": 0}, "group": "control_change"}, {"time": 3929, "annotation": {"number": 64, "value": 127}, "group": "control_change"}, {"time": 3974, "annotation": {"number": 64, "value": 0}, "group": "control_change"}, {"time": 3977, "annotation": {"number": 64, "value": 127}, "group": "control_change"}, {"time": 4025, "annotation": {"number": 64, "value": 0}, "group": "control_change"}, {"time": 4029, "annotation": {"number": 64, "value": 127}, "group": "control_change"}, {"time": 4069, "annotation": {"number": 64, "value": 0}, "group": "control_change"}, {"time": 4073, "annotation": {"number": 64, "value": 127}, "group": "control_change"}, {"time": 4119, "annotation": {"number": 64, "value": 0}, "group": "control_change"}, {"time": 4122, "annotation": {"number": 64, "value": 127}, "group": "control_change"}, {"time": 4166, "annotation": {"number": 64, "value": 0}, "group": "control_change"}, {"time": 4170, "annotation": {"number": 64, "value": 127}, "group": "control_change"}, {"time": 4215, "annotation": {"number": 64, "value": 0}, "group": "control_change"}, {"time": 4219, "annotation": {"number": 64, "value": 127}, "group": "control_change"}, {"time": 4259, "annotation": {"number": 64, "value": 0}, "group": "control_change"}, {"time": 4263, "annotation": {"number": 64, "value": 127}, "group": "control_change"}, {"time": 4289, "annotation": {"number": 64, "value": 0}, "group": "control_change"}, {"time": 4312, "annotation": {"number": 64, "value": 127}, "group": "control_change"}, {"time": 4358, "annotation": {"number": 64, "value": 0}, "group": "control_change"}, {"time": 4361, "annotation": {"number": 64, "value": 127}, "group": "control_change"}, {"time": 4406, "annotation": {"number": 64, "value": 0}, "group": "control_change"}, {"time": 4409, "annotation": {"number": 64, "value": 127}, "group": "control_change"}, {"time": 4457, "annotation": {"number": 64, "value": 0}, "group": "control_change"}, {"time": 4461, "annotation": {"number": 64, "value": 127}, "group": "control_change"}, {"time": 4501, "annotation": {"number": 64, "value": 0}, "group": "control_change"}, {"time": 4505, "annotation": {"number": 64, "value": 127}, "group": "control_change"}, {"time": 4551, "annotation": {"number": 64, "value": 0}, "group": "control_change"}, {"time": 4554, "annotation": {"number": 64, "value": 127}, "group": "control_change"}, {"time": 4598, "annotation": {"number": 64, "value": 0}, "group": "control_change"}, {"time": 4602, "annotation": {"number": 64, "value": 127}, "group": "control_change"}, {"time": 4647, "annotation": {"number": 64, "value": 0}, "group": "control_change"}, {"time": 4651, "annotation": {"number": 64, "value": 127}, "group": "control_change"}, {"time": 4691, "annotation": {"number": 64, "value": 0}, "group": "control_change"}, {"time": 4697, "annotation": {"number": 64, "value": 127}, "group": "control_change"}, {"time": 4740, "annotation": {"number": 64, "value": 0}, "group": "control_change"}, {"time": 4742, "annotation": {"number": 64, "value": 127}, "group": "control_change"}, {"time": 4790, "annotation": {"number": 64, "value": 0}, "group": "control_change"}, {"time": 4791, "annotation": {"number": 64, "value": 127}, "group": "control_change"}, {"time": 4838, "annotation": {"number": 64, "value": 0}, "group": "control_change"}, {"time": 4839, "annotation": {"number": 64, "value": 127}, "group": "control_change"}, {"time": 4886, "annotation": {"number": 64, "value": 0}, "group": "control_change"}, {"time": 4888, "annotation": {"number": 64, "value": 127}, "group": "control_change"}, {"time": 4904, "annotation": {"number": 64, "value": 0}, "group": "control_change"}, {"time": 4906, "annotation": {"number": 64, "value": 127}, "group": "control_change"}, {"time": 4934, "annotation": {"number": 64, "value": 0}, "group": "control_change"}, {"time": 4936, "annotation": {"number": 64, "value": 127}, "group": "control_change"}, {"time": 4974, "annotation": {"number": 64, "value": 0}, "group": "control_change"}, {"time": 4986, "annotation": {"number": 64, "value": 127}, "group": "control_change"}, {"time": 5030, "annotation": {"number": 64, "value": 0}, "group": "control_change"}, {"time": 5034, "annotation": {"number": 64, "value": 127}, "group": "control_change"}, {"time": 5115, "annotation": {"number": 64, "value": 0}, "group": "control_change"}]}]}