{"metadata": {"schema_version": "0.2", "title": "None", "source_filename": "657.mid", "source_format": "midi"}, "resolution": 12, "tempos": [{"time": 0, "qpm": 62.00005993339127}, {"time": 1553, "qpm": 62.25002723438691}, {"time": 1567, "qpm": 63.000063000063}, {"time": 1584, "qpm": 62.00005993339127}], "time_signatures": [{"time": 0, "numerator": 1, "denominator": 4}], "tracks": [{"program": 4, "is_drum": false, "name": "MELODY", "notes": [{"time": 391, "pitch": 62, "duration": 3, "velocity": 86}, {"time": 394, "pitch": 60, "duration": 3, "velocity": 85}, {"time": 397, "pitch": 59, "duration": 6, "velocity": 86}, {"time": 403, "pitch": 62, "duration": 2, "velocity": 84}, {"time": 406, "pitch": 62, "duration": 6, "velocity": 85}, {"time": 412, "pitch": 66, "duration": 6, "velocity": 85}, {"time": 418, "pitch": 67, "duration": 9, "velocity": 84}, {"time": 427, "pitch": 66, "duration": 4, "velocity": 87}, {"time": 430, "pitch": 64, "duration": 6, "velocity": 85}, {"time": 436, "pitch": 62, "duration": 6, "velocity": 84}, {"time": 442, "pitch": 60, "duration": 8, "velocity": 86}, {"time": 463, "pitch": 62, "duration": 3, "velocity": 86}, {"time": 466, "pitch": 60, "duration": 9, "velocity": 80}, {"time": 475, "pitch": 59, "duration": 12, "velocity": 82}, {"time": 487, "pitch": 59, "duration": 3, "velocity": 83}, {"time": 490, "pitch": 57, "duration": 3, "velocity": 82}, {"time": 493, "pitch": 55, "duration": 7, "velocity": 86}, {"time": 499, "pitch": 59, "duration": 4, "velocity": 86}, {"time": 502, "pitch": 64, "duration": 7, "velocity": 86}, {"time": 508, "pitch": 59, "duration": 7, "velocity": 78}, {"time": 514, "pitch": 62, "duration": 13, "velocity": 89}, {"time": 538, "pitch": 59, "duration": 3, "velocity": 85}, {"time": 541, "pitch": 64, "duration": 5, "velocity": 87}, {"time": 547, "pitch": 62, "duration": 2, "velocity": 80}, {"time": 550, "pitch": 64, "duration": 4, "velocity": 85}, {"time": 556, "pitch": 55, "duration": 4, "velocity": 83}, {"time": 562, "pitch": 57, "duration": 19, "velocity": 81}, {"time": 583, "pitch": 62, "duration": 2, "velocity": 84}, {"time": 586, "pitch": 60, "duration": 3, "velocity": 84}, {"time": 589, "pitch": 59, "duration": 5, "velocity": 84}, {"time": 595, "pitch": 62, "duration": 3, "velocity": 85}, {"time": 598, "pitch": 62, "duration": 4, "velocity": 86}, {"time": 604, "pitch": 66, "duration": 4, "velocity": 84}, {"time": 610, "pitch": 67, "duration": 7, "velocity": 84}, {"time": 619, "pitch": 66, "duration": 3, "velocity": 84}, {"time": 622, "pitch": 64, "duration": 6, "velocity": 86}, {"time": 628, "pitch": 62, "duration": 5, "velocity": 85}, {"time": 634, "pitch": 60, "duration": 17, "velocity": 85}, {"time": 655, "pitch": 62, "duration": 3, "velocity": 84}, {"time": 658, "pitch": 60, "duration": 5, "velocity": 83}, {"time": 664, "pitch": 59, "duration": 13, "velocity": 80}, {"time": 679, "pitch": 59, "duration": 3, "velocity": 84}, {"time": 682, "pitch": 62, "duration": 2, "velocity": 88}, {"time": 685, "pitch": 64, "duration": 5, "velocity": 86}, {"time": 691, "pitch": 67, "duration": 2, "velocity": 82}, {"time": 694, "pitch": 67, "duration": 5, "velocity": 85}, {"time": 700, "pitch": 64, "duration": 4, "velocity": 88}, {"time": 706, "pitch": 67, "duration": 9, "velocity": 85}, {"time": 718, "pitch": 67, "duration": 2, "velocity": 80}, {"time": 721, "pitch": 71, "duration": 3, "velocity": 85}, {"time": 724, "pitch": 69, "duration": 4, "velocity": 84}, {"time": 727, "pitch": 67, "duration": 2, "velocity": 80}, {"time": 730, "pitch": 67, "duration": 38, "velocity": 80}, {"time": 787, "pitch": 64, "duration": 2, "velocity": 86}, {"time": 790, "pitch": 67, "duration": 2, "velocity": 77}, {"time": 793, "pitch": 67, "duration": 8, "velocity": 83}, {"time": 802, "pitch": 64, "duration": 3, "velocity": 85}, {"time": 805, "pitch": 64, "duration": 5, "velocity": 95}, {"time": 811, "pitch": 67, "duration": 3, "velocity": 78}, {"time": 814, "pitch": 67, "duration": 9, "velocity": 80}, {"time": 823, "pitch": 55, "duration": 4, "velocity": 85}, {"time": 826, "pitch": 57, "duration": 3, "velocity": 82}, {"time": 829, "pitch": 59, "duration": 2, "velocity": 85}, {"time": 832, "pitch": 59, "duration": 24, "velocity": 82}, {"time": 883, "pitch": 64, "duration": 2, "velocity": 95}, {"time": 886, "pitch": 64, "duration": 2, "velocity": 85}, {"time": 890, "pitch": 64, "duration": 2, "velocity": 88}, {"time": 893, "pitch": 67, "duration": 4, "velocity": 82}, {"time": 899, "pitch": 67, "duration": 4, "velocity": 86}, {"time": 904, "pitch": 64, "duration": 4, "velocity": 90}, {"time": 910, "pitch": 64, "duration": 2, "velocity": 85}, {"time": 913, "pitch": 69, "duration": 2, "velocity": 85}, {"time": 916, "pitch": 72, "duration": 4, "velocity": 83}, {"time": 922, "pitch": 69, "duration": 2, "velocity": 79}, {"time": 925, "pitch": 71, "duration": 4, "velocity": 82}, {"time": 930, "pitch": 71, "duration": 30, "velocity": 84}, {"time": 979, "pitch": 64, "duration": 2, "velocity": 89}, {"time": 982, "pitch": 67, "duration": 2, "velocity": 78}, {"time": 985, "pitch": 67, "duration": 3, "velocity": 80}, {"time": 989, "pitch": 67, "duration": 3, "velocity": 80}, {"time": 994, "pitch": 64, "duration": 2, "velocity": 86}, {"time": 997, "pitch": 64, "duration": 2, "velocity": 85}, {"time": 1000, "pitch": 67, "duration": 13, "velocity": 77}, {"time": 1015, "pitch": 64, "duration": 1, "velocity": 88}, {"time": 1018, "pitch": 67, "duration": 1, "velocity": 85}, {"time": 1021, "pitch": 71, "duration": 7, "velocity": 86}, {"time": 1029, "pitch": 72, "duration": 3, "velocity": 84}, {"time": 1033, "pitch": 69, "duration": 6, "velocity": 88}, {"time": 1039, "pitch": 71, "duration": 6, "velocity": 83}, {"time": 1045, "pitch": 67, "duration": 13, "velocity": 81}, {"time": 1063, "pitch": 62, "duration": 2, "velocity": 90}, {"time": 1066, "pitch": 62, "duration": 2, "velocity": 84}, {"time": 1069, "pitch": 64, "duration": 3, "velocity": 85}, {"time": 1073, "pitch": 67, "duration": 4, "velocity": 71}, {"time": 1078, "pitch": 64, "duration": 2, "velocity": 88}, {"time": 1081, "pitch": 67, "duration": 19, "velocity": 83}, {"time": 1102, "pitch": 64, "duration": 2, "velocity": 85}, {"time": 1105, "pitch": 71, "duration": 6, "velocity": 85}, {"time": 1111, "pitch": 64, "duration": 6, "velocity": 82}, {"time": 1118, "pitch": 69, "duration": 30, "velocity": 86}, {"time": 1175, "pitch": 62, "duration": 2, "velocity": 88}, {"time": 1178, "pitch": 74, "duration": 4, "velocity": 95}, {"time": 1184, "pitch": 71, "duration": 4, "velocity": 86}, {"time": 1190, "pitch": 69, "duration": 6, "velocity": 84}, {"time": 1202, "pitch": 74, "duration": 4, "velocity": 91}, {"time": 1208, "pitch": 66, "duration": 4, "velocity": 77}, {"time": 1213, "pitch": 67, "duration": 11, "velocity": 83}, {"time": 1234, "pitch": 67, "duration": 2, "velocity": 82}, {"time": 1237, "pitch": 62, "duration": 4, "velocity": 88}, {"time": 1243, "pitch": 64, "duration": 2, "velocity": 85}, {"time": 1246, "pitch": 67, "duration": 5, "velocity": 84}, {"time": 1252, "pitch": 64, "duration": 4, "velocity": 88}, {"time": 1258, "pitch": 67, "duration": 16, "velocity": 85}, {"time": 1282, "pitch": 64, "duration": 3, "velocity": 85}, {"time": 1285, "pitch": 62, "duration": 6, "velocity": 86}, {"time": 1291, "pitch": 67, "duration": 3, "velocity": 84}, {"time": 1294, "pitch": 69, "duration": 5, "velocity": 88}, {"time": 1300, "pitch": 71, "duration": 5, "velocity": 84}, {"time": 1306, "pitch": 72, "duration": 7, "velocity": 84}, {"time": 1314, "pitch": 71, "duration": 4, "velocity": 86}, {"time": 1318, "pitch": 69, "duration": 6, "velocity": 79}, {"time": 1324, "pitch": 67, "duration": 8, "velocity": 85}, {"time": 1333, "pitch": 64, "duration": 6, "velocity": 91}, {"time": 1339, "pitch": 67, "duration": 4, "velocity": 85}, {"time": 1345, "pitch": 70, "duration": 3, "velocity": 88}, {"time": 1347, "pitch": 69, "duration": 4, "velocity": 84}, {"time": 1350, "pitch": 67, "duration": 5, "velocity": 82}, {"time": 1357, "pitch": 67, "duration": 8, "velocity": 86}, {"time": 1366, "pitch": 62, "duration": 2, "velocity": 86}, {"time": 1369, "pitch": 74, "duration": 4, "velocity": 93}, {"time": 1375, "pitch": 71, "duration": 5, "velocity": 86}, {"time": 1381, "pitch": 69, "duration": 8, "velocity": 81}, {"time": 1393, "pitch": 74, "duration": 5, "velocity": 93}, {"time": 1399, "pitch": 66, "duration": 4, "velocity": 85}, {"time": 1405, "pitch": 67, "duration": 12, "velocity": 86}, {"time": 1426, "pitch": 64, "duration": 3, "velocity": 85}, {"time": 1429, "pitch": 62, "duration": 4, "velocity": 86}, {"time": 1435, "pitch": 64, "duration": 2, "velocity": 87}, {"time": 1438, "pitch": 67, "duration": 6, "velocity": 80}, {"time": 1444, "pitch": 64, "duration": 6, "velocity": 85}, {"time": 1450, "pitch": 67, "duration": 15, "velocity": 86}, {"time": 1474, "pitch": 64, "duration": 2, "velocity": 85}, {"time": 1477, "pitch": 62, "duration": 4, "velocity": 86}, {"time": 1483, "pitch": 67, "duration": 2, "velocity": 87}, {"time": 1486, "pitch": 69, "duration": 5, "velocity": 86}, {"time": 1492, "pitch": 71, "duration": 4, "velocity": 85}, {"time": 1498, "pitch": 72, "duration": 7, "velocity": 85}, {"time": 1504, "pitch": 71, "duration": 4, "velocity": 85}, {"time": 1510, "pitch": 69, "duration": 5, "velocity": 86}, {"time": 1516, "pitch": 67, "duration": 7, "velocity": 85}, {"time": 1525, "pitch": 64, "duration": 4, "velocity": 89}, {"time": 1531, "pitch": 67, "duration": 2, "velocity": 86}, {"time": 1534, "pitch": 64, "duration": 5, "velocity": 91}, {"time": 1540, "pitch": 69, "duration": 14, "velocity": 88}, {"time": 1555, "pitch": 67, "duration": 20, "velocity": 75}, {"time": 1963, "pitch": 64, "duration": 2, "velocity": 86}, {"time": 1966, "pitch": 67, "duration": 2, "velocity": 77}, {"time": 1969, "pitch": 67, "duration": 8, "velocity": 83}, {"time": 1978, "pitch": 64, "duration": 3, "velocity": 85}, {"time": 1981, "pitch": 64, "duration": 5, "velocity": 95}, {"time": 1987, "pitch": 67, "duration": 3, "velocity": 78}, {"time": 1990, "pitch": 67, "duration": 9, "velocity": 80}, {"time": 1999, "pitch": 55, "duration": 4, "velocity": 85}, {"time": 2002, "pitch": 57, "duration": 3, "velocity": 82}, {"time": 2005, "pitch": 59, "duration": 2, "velocity": 85}, {"time": 2008, "pitch": 59, "duration": 24, "velocity": 82}, {"time": 2059, "pitch": 64, "duration": 2, "velocity": 95}, {"time": 2062, "pitch": 64, "duration": 2, "velocity": 85}, {"time": 2066, "pitch": 64, "duration": 2, "velocity": 88}, {"time": 2069, "pitch": 67, "duration": 4, "velocity": 82}, {"time": 2075, "pitch": 67, "duration": 4, "velocity": 86}, {"time": 2080, "pitch": 64, "duration": 4, "velocity": 90}, {"time": 2086, "pitch": 64, "duration": 2, "velocity": 85}, {"time": 2089, "pitch": 69, "duration": 2, "velocity": 85}, {"time": 2092, "pitch": 72, "duration": 4, "velocity": 83}, {"time": 2098, "pitch": 69, "duration": 2, "velocity": 79}, {"time": 2101, "pitch": 71, "duration": 4, "velocity": 82}, {"time": 2106, "pitch": 71, "duration": 30, "velocity": 84}, {"time": 2155, "pitch": 64, "duration": 2, "velocity": 89}, {"time": 2158, "pitch": 67, "duration": 2, "velocity": 78}, {"time": 2161, "pitch": 67, "duration": 3, "velocity": 80}, {"time": 2165, "pitch": 67, "duration": 3, "velocity": 80}, {"time": 2170, "pitch": 64, "duration": 2, "velocity": 86}, {"time": 2173, "pitch": 64, "duration": 2, "velocity": 85}, {"time": 2176, "pitch": 67, "duration": 13, "velocity": 77}, {"time": 2191, "pitch": 64, "duration": 1, "velocity": 88}, {"time": 2194, "pitch": 67, "duration": 1, "velocity": 85}, {"time": 2197, "pitch": 71, "duration": 7, "velocity": 86}, {"time": 2205, "pitch": 72, "duration": 3, "velocity": 84}, {"time": 2209, "pitch": 69, "duration": 6, "velocity": 88}, {"time": 2215, "pitch": 71, "duration": 6, "velocity": 83}, {"time": 2221, "pitch": 67, "duration": 13, "velocity": 81}, {"time": 2239, "pitch": 62, "duration": 2, "velocity": 90}, {"time": 2242, "pitch": 62, "duration": 2, "velocity": 84}, {"time": 2245, "pitch": 64, "duration": 3, "velocity": 85}, {"time": 2249, "pitch": 67, "duration": 4, "velocity": 71}, {"time": 2254, "pitch": 64, "duration": 2, "velocity": 88}, {"time": 2257, "pitch": 67, "duration": 19, "velocity": 83}, {"time": 2278, "pitch": 64, "duration": 2, "velocity": 85}, {"time": 2281, "pitch": 71, "duration": 6, "velocity": 85}, {"time": 2287, "pitch": 64, "duration": 6, "velocity": 82}, {"time": 2294, "pitch": 69, "duration": 30, "velocity": 86}, {"time": 2351, "pitch": 62, "duration": 2, "velocity": 88}, {"time": 2354, "pitch": 74, "duration": 4, "velocity": 95}, {"time": 2360, "pitch": 71, "duration": 4, "velocity": 86}, {"time": 2366, "pitch": 69, "duration": 6, "velocity": 84}, {"time": 2378, "pitch": 74, "duration": 4, "velocity": 91}, {"time": 2384, "pitch": 66, "duration": 4, "velocity": 77}, {"time": 2389, "pitch": 67, "duration": 11, "velocity": 83}, {"time": 2410, "pitch": 67, "duration": 2, "velocity": 82}, {"time": 2413, "pitch": 62, "duration": 4, "velocity": 88}, {"time": 2419, "pitch": 64, "duration": 2, "velocity": 85}, {"time": 2422, "pitch": 67, "duration": 5, "velocity": 84}, {"time": 2428, "pitch": 64, "duration": 4, "velocity": 88}, {"time": 2434, "pitch": 67, "duration": 16, "velocity": 85}, {"time": 2458, "pitch": 64, "duration": 3, "velocity": 85}, {"time": 2461, "pitch": 62, "duration": 6, "velocity": 86}, {"time": 2467, "pitch": 67, "duration": 3, "velocity": 84}, {"time": 2470, "pitch": 69, "duration": 5, "velocity": 88}, {"time": 2476, "pitch": 71, "duration": 5, "velocity": 84}, {"time": 2482, "pitch": 72, "duration": 7, "velocity": 84}, {"time": 2490, "pitch": 71, "duration": 4, "velocity": 86}, {"time": 2494, "pitch": 69, "duration": 6, "velocity": 79}, {"time": 2500, "pitch": 67, "duration": 8, "velocity": 85}, {"time": 2509, "pitch": 64, "duration": 6, "velocity": 91}, {"time": 2515, "pitch": 67, "duration": 4, "velocity": 85}, {"time": 2521, "pitch": 70, "duration": 3, "velocity": 88}, {"time": 2523, "pitch": 69, "duration": 4, "velocity": 84}, {"time": 2526, "pitch": 67, "duration": 5, "velocity": 82}, {"time": 2533, "pitch": 67, "duration": 8, "velocity": 86}, {"time": 2542, "pitch": 62, "duration": 2, "velocity": 86}, {"time": 2545, "pitch": 74, "duration": 4, "velocity": 93}, {"time": 2551, "pitch": 71, "duration": 5, "velocity": 86}, {"time": 2557, "pitch": 69, "duration": 8, "velocity": 81}, {"time": 2569, "pitch": 74, "duration": 5, "velocity": 93}, {"time": 2575, "pitch": 66, "duration": 4, "velocity": 85}, {"time": 2581, "pitch": 67, "duration": 12, "velocity": 86}, {"time": 2602, "pitch": 64, "duration": 3, "velocity": 85}, {"time": 2605, "pitch": 62, "duration": 4, "velocity": 86}, {"time": 2611, "pitch": 64, "duration": 2, "velocity": 87}, {"time": 2614, "pitch": 67, "duration": 6, "velocity": 80}, {"time": 2620, "pitch": 64, "duration": 6, "velocity": 85}, {"time": 2626, "pitch": 67, "duration": 15, "velocity": 86}, {"time": 2650, "pitch": 64, "duration": 2, "velocity": 85}, {"time": 2653, "pitch": 62, "duration": 4, "velocity": 86}, {"time": 2659, "pitch": 67, "duration": 2, "velocity": 87}, {"time": 2662, "pitch": 69, "duration": 5, "velocity": 86}, {"time": 2668, "pitch": 71, "duration": 4, "velocity": 85}, {"time": 2674, "pitch": 72, "duration": 7, "velocity": 85}, {"time": 2680, "pitch": 71, "duration": 4, "velocity": 85}, {"time": 2686, "pitch": 69, "duration": 5, "velocity": 86}, {"time": 2692, "pitch": 67, "duration": 7, "velocity": 85}, {"time": 2701, "pitch": 64, "duration": 4, "velocity": 89}, {"time": 2707, "pitch": 67, "duration": 2, "velocity": 86}, {"time": 2710, "pitch": 64, "duration": 5, "velocity": 91}, {"time": 2716, "pitch": 69, "duration": 14, "velocity": 88}, {"time": 2731, "pitch": 67, "duration": 20, "velocity": 75}, {"time": 2927, "pitch": 62, "duration": 2, "velocity": 88}, {"time": 2930, "pitch": 74, "duration": 4, "velocity": 95}, {"time": 2936, "pitch": 71, "duration": 4, "velocity": 86}, {"time": 2942, "pitch": 69, "duration": 6, "velocity": 84}, {"time": 2954, "pitch": 74, "duration": 4, "velocity": 91}, {"time": 2960, "pitch": 66, "duration": 4, "velocity": 77}, {"time": 2965, "pitch": 67, "duration": 11, "velocity": 83}, {"time": 2986, "pitch": 67, "duration": 2, "velocity": 82}, {"time": 2989, "pitch": 62, "duration": 4, "velocity": 88}, {"time": 2995, "pitch": 64, "duration": 2, "velocity": 85}, {"time": 2998, "pitch": 67, "duration": 5, "velocity": 84}, {"time": 3004, "pitch": 64, "duration": 4, "velocity": 88}, {"time": 3010, "pitch": 67, "duration": 16, "velocity": 85}, {"time": 3034, "pitch": 64, "duration": 3, "velocity": 85}, {"time": 3037, "pitch": 62, "duration": 6, "velocity": 86}, {"time": 3043, "pitch": 67, "duration": 3, "velocity": 84}, {"time": 3046, "pitch": 69, "duration": 5, "velocity": 88}, {"time": 3052, "pitch": 71, "duration": 5, "velocity": 84}, {"time": 3058, "pitch": 72, "duration": 7, "velocity": 84}, {"time": 3066, "pitch": 71, "duration": 4, "velocity": 86}, {"time": 3070, "pitch": 69, "duration": 6, "velocity": 79}, {"time": 3076, "pitch": 67, "duration": 8, "velocity": 85}, {"time": 3085, "pitch": 64, "duration": 6, "velocity": 91}, {"time": 3091, "pitch": 67, "duration": 4, "velocity": 85}, {"time": 3097, "pitch": 70, "duration": 3, "velocity": 88}, {"time": 3099, "pitch": 69, "duration": 4, "velocity": 84}, {"time": 3102, "pitch": 67, "duration": 5, "velocity": 82}, {"time": 3109, "pitch": 67, "duration": 8, "velocity": 86}, {"time": 3118, "pitch": 62, "duration": 2, "velocity": 86}, {"time": 3121, "pitch": 74, "duration": 4, "velocity": 93}, {"time": 3127, "pitch": 71, "duration": 5, "velocity": 86}, {"time": 3133, "pitch": 69, "duration": 8, "velocity": 81}, {"time": 3145, "pitch": 74, "duration": 5, "velocity": 93}, {"time": 3151, "pitch": 66, "duration": 4, "velocity": 85}, {"time": 3157, "pitch": 67, "duration": 12, "velocity": 86}, {"time": 3178, "pitch": 64, "duration": 3, "velocity": 85}, {"time": 3181, "pitch": 62, "duration": 4, "velocity": 86}, {"time": 3187, "pitch": 64, "duration": 2, "velocity": 87}, {"time": 3190, "pitch": 67, "duration": 6, "velocity": 80}, {"time": 3196, "pitch": 64, "duration": 6, "velocity": 85}, {"time": 3202, "pitch": 67, "duration": 15, "velocity": 86}, {"time": 3226, "pitch": 64, "duration": 2, "velocity": 85}, {"time": 3229, "pitch": 62, "duration": 4, "velocity": 86}, {"time": 3235, "pitch": 67, "duration": 2, "velocity": 87}, {"time": 3238, "pitch": 69, "duration": 5, "velocity": 86}, {"time": 3244, "pitch": 71, "duration": 4, "velocity": 85}, {"time": 3250, "pitch": 72, "duration": 7, "velocity": 85}, {"time": 3256, "pitch": 71, "duration": 4, "velocity": 85}, {"time": 3262, "pitch": 69, "duration": 5, "velocity": 86}, {"time": 3268, "pitch": 67, "duration": 7, "velocity": 85}, {"time": 3277, "pitch": 72, "duration": 3, "velocity": 87}, {"time": 3280, "pitch": 71, "duration": 17, "velocity": 86}, {"time": 3297, "pitch": 67, "duration": 19, "velocity": 85}, {"time": 3328, "pitch": 69, "duration": 14, "velocity": 82}, {"time": 3342, "pitch": 67, "duration": 29, "velocity": 77}]}, {"program": 0, "is_drum": false, "name": "PIANO", "notes": [{"time": 12, "pitch": 72, "duration": 48, "velocity": 65}, {"time": 13, "pitch": 79, "duration": 47, "velocity": 77}, {"time": 13, "pitch": 60, "duration": 47, "velocity": 52}, {"time": 14, "pitch": 83, "duration": 47, "velocity": 68}, {"time": 15, "pitch": 86, "duration": 45, "velocity": 62}, {"time": 58, "pitch": 59, "duration": 51, "velocity": 69}, {"time": 60, "pitch": 62, "duration": 49, "velocity": 67}, {"time": 60, "pitch": 71, "duration": 49, "velocity": 71}, {"time": 61, "pitch": 74, "duration": 48, "velocity": 80}, {"time": 61, "pitch": 67, "duration": 48, "velocity": 68}, {"time": 62, "pitch": 83, "duration": 47, "velocity": 72}, {"time": 108, "pitch": 64, "duration": 10, "velocity": 66}, {"time": 108, "pitch": 57, "duration": 11, "velocity": 78}, {"time": 108, "pitch": 69, "duration": 9, "velocity": 71}, {"time": 109, "pitch": 72, "duration": 10, "velocity": 59}, {"time": 120, "pitch": 62, "duration": 13, "velocity": 73}, {"time": 120, "pitch": 66, "duration": 13, "velocity": 71}, {"time": 121, "pitch": 59, "duration": 12, "velocity": 71}, {"time": 121, "pitch": 50, "duration": 10, "velocity": 57}, {"time": 122, "pitch": 71, "duration": 11, "velocity": 78}, {"time": 132, "pitch": 69, "duration": 3, "velocity": 69}, {"time": 132, "pitch": 50, "duration": 14, "velocity": 80}, {"time": 133, "pitch": 74, "duration": 3, "velocity": 80}, {"time": 134, "pitch": 78, "duration": 2, "velocity": 65}, {"time": 155, "pitch": 67, "duration": 8, "velocity": 62}, {"time": 156, "pitch": 62, "duration": 8, "velocity": 68}, {"time": 156, "pitch": 59, "duration": 8, "velocity": 77}, {"time": 157, "pitch": 43, "duration": 41, "velocity": 82}, {"time": 157, "pitch": 55, "duration": 7, "velocity": 71}, {"time": 163, "pitch": 50, "duration": 34, "velocity": 63}, {"time": 169, "pitch": 57, "duration": 6, "velocity": 72}, {"time": 175, "pitch": 59, "duration": 3, "velocity": 77}, {"time": 181, "pitch": 55, "duration": 5, "velocity": 66}, {"time": 181, "pitch": 62, "duration": 4, "velocity": 84}, {"time": 203, "pitch": 60, "duration": 47, "velocity": 70}, {"time": 203, "pitch": 48, "duration": 43, "velocity": 75}, {"time": 204, "pitch": 64, "duration": 46, "velocity": 81}, {"time": 205, "pitch": 67, "duration": 45, "velocity": 66}, {"time": 206, "pitch": 71, "duration": 43, "velocity": 76}, {"time": 252, "pitch": 57, "duration": 25, "velocity": 73}, {"time": 252, "pitch": 47, "duration": 23, "velocity": 81}, {"time": 253, "pitch": 62, "duration": 24, "velocity": 79}, {"time": 254, "pitch": 66, "duration": 23, "velocity": 76}, {"time": 276, "pitch": 47, "duration": 23, "velocity": 65}, {"time": 277, "pitch": 74, "duration": 22, "velocity": 77}, {"time": 277, "pitch": 71, "duration": 22, "velocity": 73}, {"time": 300, "pitch": 57, "duration": 6, "velocity": 68}, {"time": 301, "pitch": 60, "duration": 5, "velocity": 78}, {"time": 301, "pitch": 45, "duration": 6, "velocity": 84}, {"time": 301, "pitch": 64, "duration": 5, "velocity": 68}, {"time": 301, "pitch": 69, "duration": 5, "velocity": 79}, {"time": 312, "pitch": 56, "duration": 12, "velocity": 73}, {"time": 313, "pitch": 44, "duration": 11, "velocity": 72}, {"time": 313, "pitch": 60, "duration": 10, "velocity": 79}, {"time": 313, "pitch": 63, "duration": 10, "velocity": 76}, {"time": 314, "pitch": 68, "duration": 10, "velocity": 74}, {"time": 323, "pitch": 55, "duration": 14, "velocity": 62}, {"time": 324, "pitch": 58, "duration": 13, "velocity": 71}, {"time": 324, "pitch": 43, "duration": 13, "velocity": 74}, {"time": 324, "pitch": 63, "duration": 13, "velocity": 61}, {"time": 325, "pitch": 65, "duration": 12, "velocity": 76}, {"time": 336, "pitch": 53, "duration": 13, "velocity": 75}, {"time": 336, "pitch": 41, "duration": 14, "velocity": 74}, {"time": 336, "pitch": 57, "duration": 13, "velocity": 75}, {"time": 337, "pitch": 61, "duration": 13, "velocity": 65}, {"time": 338, "pitch": 65, "duration": 12, "velocity": 64}, {"time": 349, "pitch": 48, "duration": 45, "velocity": 66}, {"time": 350, "pitch": 57, "duration": 46, "velocity": 67}, {"time": 351, "pitch": 60, "duration": 44, "velocity": 70}, {"time": 352, "pitch": 64, "duration": 42, "velocity": 70}, {"time": 353, "pitch": 69, "duration": 43, "velocity": 58}, {"time": 372, "pitch": 79, "duration": 24, "velocity": 53}, {"time": 373, "pitch": 83, "duration": 23, "velocity": 79}, {"time": 373, "pitch": 86, "duration": 23, "velocity": 84}, {"time": 396, "pitch": 62, "duration": 13, "velocity": 68}, {"time": 397, "pitch": 67, "duration": 18, "velocity": 70}, {"time": 397, "pitch": 43, "duration": 18, "velocity": 70}, {"time": 398, "pitch": 71, "duration": 18, "velocity": 78}, {"time": 421, "pitch": 64, "duration": 18, "velocity": 60}, {"time": 421, "pitch": 67, "duration": 14, "velocity": 61}, {"time": 421, "pitch": 40, "duration": 17, "velocity": 71}, {"time": 422, "pitch": 71, "duration": 18, "velocity": 70}, {"time": 438, "pitch": 67, "duration": 7, "velocity": 71}, {"time": 444, "pitch": 64, "duration": 6, "velocity": 69}, {"time": 445, "pitch": 45, "duration": 5, "velocity": 74}, {"time": 445, "pitch": 69, "duration": 5, "velocity": 75}, {"time": 456, "pitch": 62, "duration": 12, "velocity": 67}, {"time": 457, "pitch": 38, "duration": 3, "velocity": 60}, {"time": 457, "pitch": 66, "duration": 7, "velocity": 61}, {"time": 457, "pitch": 69, "duration": 12, "velocity": 49}, {"time": 458, "pitch": 74, "duration": 6, "velocity": 75}, {"time": 469, "pitch": 62, "duration": 19, "velocity": 72}, {"time": 469, "pitch": 43, "duration": 20, "velocity": 78}, {"time": 470, "pitch": 67, "duration": 10, "velocity": 54}, {"time": 475, "pitch": 50, "duration": 12, "velocity": 63}, {"time": 481, "pitch": 67, "duration": 9, "velocity": 65}, {"time": 482, "pitch": 71, "duration": 9, "velocity": 77}, {"time": 493, "pitch": 64, "duration": 23, "velocity": 72}, {"time": 493, "pitch": 67, "duration": 10, "velocity": 73}, {"time": 493, "pitch": 40, "duration": 17, "velocity": 76}, {"time": 499, "pitch": 47, "duration": 9, "velocity": 58}, {"time": 505, "pitch": 67, "duration": 11, "velocity": 59}, {"time": 505, "pitch": 71, "duration": 12, "velocity": 83}, {"time": 516, "pitch": 69, "duration": 9, "velocity": 65}, {"time": 517, "pitch": 74, "duration": 8, "velocity": 81}, {"time": 518, "pitch": 47, "duration": 21, "velocity": 79}, {"time": 518, "pitch": 78, "duration": 11, "velocity": 70}, {"time": 529, "pitch": 69, "duration": 9, "velocity": 70}, {"time": 529, "pitch": 74, "duration": 7, "velocity": 75}, {"time": 529, "pitch": 54, "duration": 8, "velocity": 62}, {"time": 542, "pitch": 69, "duration": 7, "velocity": 71}, {"time": 542, "pitch": 45, "duration": 21, "velocity": 81}, {"time": 542, "pitch": 72, "duration": 10, "velocity": 75}, {"time": 553, "pitch": 72, "duration": 11, "velocity": 78}, {"time": 553, "pitch": 67, "duration": 11, "velocity": 73}, {"time": 553, "pitch": 52, "duration": 10, "velocity": 68}, {"time": 563, "pitch": 62, "duration": 4, "velocity": 70}, {"time": 564, "pitch": 67, "duration": 5, "velocity": 73}, {"time": 565, "pitch": 50, "duration": 5, "velocity": 79}, {"time": 565, "pitch": 71, "duration": 7, "velocity": 79}, {"time": 576, "pitch": 62, "duration": 13, "velocity": 69}, {"time": 576, "pitch": 66, "duration": 13, "velocity": 72}, {"time": 577, "pitch": 50, "duration": 12, "velocity": 76}, {"time": 578, "pitch": 69, "duration": 11, "velocity": 74}, {"time": 588, "pitch": 62, "duration": 1, "velocity": 68}, {"time": 589, "pitch": 67, "duration": 6, "velocity": 76}, {"time": 589, "pitch": 43, "duration": 15, "velocity": 79}, {"time": 590, "pitch": 71, "duration": 7, "velocity": 66}, {"time": 595, "pitch": 50, "duration": 7, "velocity": 52}, {"time": 600, "pitch": 62, "duration": 2, "velocity": 70}, {"time": 601, "pitch": 67, "duration": 2, "velocity": 75}, {"time": 601, "pitch": 71, "duration": 3, "velocity": 82}, {"time": 612, "pitch": 64, "duration": 8, "velocity": 66}, {"time": 613, "pitch": 40, "duration": 14, "velocity": 78}, {"time": 613, "pitch": 67, "duration": 12, "velocity": 68}, {"time": 618, "pitch": 47, "duration": 8, "velocity": 63}, {"time": 624, "pitch": 64, "duration": 2, "velocity": 73}, {"time": 635, "pitch": 64, "duration": 3, "velocity": 62}, {"time": 636, "pitch": 69, "duration": 3, "velocity": 74}, {"time": 636, "pitch": 45, "duration": 4, "velocity": 80}, {"time": 637, "pitch": 72, "duration": 12, "velocity": 72}, {"time": 648, "pitch": 62, "duration": 4, "velocity": 52}, {"time": 649, "pitch": 66, "duration": 4, "velocity": 71}, {"time": 649, "pitch": 38, "duration": 5, "velocity": 75}, {"time": 649, "pitch": 69, "duration": 9, "velocity": 72}, {"time": 655, "pitch": 62, "duration": 2, "velocity": 72}, {"time": 660, "pitch": 62, "duration": 4, "velocity": 50}, {"time": 660, "pitch": 67, "duration": 10, "velocity": 67}, {"time": 661, "pitch": 71, "duration": 10, "velocity": 77}, {"time": 661, "pitch": 43, "duration": 18, "velocity": 77}, {"time": 666, "pitch": 62, "duration": 5, "velocity": 71}, {"time": 673, "pitch": 67, "duration": 5, "velocity": 69}, {"time": 673, "pitch": 62, "duration": 4, "velocity": 71}, {"time": 684, "pitch": 57, "duration": 6, "velocity": 56}, {"time": 685, "pitch": 45, "duration": 14, "velocity": 80}, {"time": 685, "pitch": 60, "duration": 5, "velocity": 69}, {"time": 685, "pitch": 64, "duration": 6, "velocity": 75}, {"time": 691, "pitch": 52, "duration": 7, "velocity": 58}, {"time": 697, "pitch": 60, "duration": 3, "velocity": 70}, {"time": 697, "pitch": 57, "duration": 3, "velocity": 67}, {"time": 709, "pitch": 66, "duration": 8, "velocity": 73}, {"time": 709, "pitch": 38, "duration": 13, "velocity": 84}, {"time": 709, "pitch": 62, "duration": 5, "velocity": 73}, {"time": 715, "pitch": 45, "duration": 6, "velocity": 57}, {"time": 721, "pitch": 66, "duration": 4, "velocity": 73}, {"time": 721, "pitch": 69, "duration": 5, "velocity": 77}, {"time": 721, "pitch": 62, "duration": 1, "velocity": 65}, {"time": 733, "pitch": 43, "duration": 2, "velocity": 77}, {"time": 733, "pitch": 62, "duration": 10, "velocity": 72}, {"time": 733, "pitch": 67, "duration": 11, "velocity": 72}, {"time": 739, "pitch": 50, "duration": 35, "velocity": 79}, {"time": 745, "pitch": 67, "duration": 6, "velocity": 71}, {"time": 745, "pitch": 59, "duration": 29, "velocity": 71}, {"time": 745, "pitch": 71, "duration": 5, "velocity": 82}, {"time": 745, "pitch": 62, "duration": 5, "velocity": 67}, {"time": 751, "pitch": 55, "duration": 23, "velocity": 69}, {"time": 756, "pitch": 62, "duration": 5, "velocity": 70}, {"time": 757, "pitch": 67, "duration": 7, "velocity": 72}, {"time": 757, "pitch": 74, "duration": 9, "velocity": 76}, {"time": 763, "pitch": 62, "duration": 4, "velocity": 71}, {"time": 769, "pitch": 62, "duration": 3, "velocity": 77}, {"time": 769, "pitch": 71, "duration": 7, "velocity": 84}, {"time": 769, "pitch": 67, "duration": 6, "velocity": 73}, {"time": 781, "pitch": 60, "duration": 9, "velocity": 72}, {"time": 781, "pitch": 64, "duration": 9, "velocity": 79}, {"time": 781, "pitch": 48, "duration": 17, "velocity": 85}, {"time": 782, "pitch": 67, "duration": 9, "velocity": 72}, {"time": 787, "pitch": 55, "duration": 10, "velocity": 66}, {"time": 793, "pitch": 60, "duration": 2, "velocity": 75}, {"time": 793, "pitch": 64, "duration": 2, "velocity": 80}, {"time": 805, "pitch": 67, "duration": 6, "velocity": 71}, {"time": 806, "pitch": 64, "duration": 4, "velocity": 73}, {"time": 806, "pitch": 60, "duration": 3, "velocity": 49}, {"time": 817, "pitch": 60, "duration": 3, "velocity": 58}, {"time": 817, "pitch": 64, "duration": 6, "velocity": 78}, {"time": 817, "pitch": 67, "duration": 8, "velocity": 78}, {"time": 823, "pitch": 60, "duration": 2, "velocity": 68}, {"time": 829, "pitch": 43, "duration": 44, "velocity": 64}, {"time": 829, "pitch": 59, "duration": 12, "velocity": 68}, {"time": 829, "pitch": 62, "duration": 14, "velocity": 73}, {"time": 841, "pitch": 67, "duration": 10, "velocity": 78}, {"time": 846, "pitch": 59, "duration": 17, "velocity": 65}, {"time": 853, "pitch": 62, "duration": 10, "velocity": 58}, {"time": 864, "pitch": 62, "duration": 13, "velocity": 80}, {"time": 865, "pitch": 59, "duration": 5, "velocity": 79}, {"time": 865, "pitch": 50, "duration": 9, "velocity": 70}, {"time": 877, "pitch": 45, "duration": 19, "velocity": 78}, {"time": 877, "pitch": 57, "duration": 8, "velocity": 63}, {"time": 877, "pitch": 60, "duration": 10, "velocity": 75}, {"time": 883, "pitch": 52, "duration": 12, "velocity": 73}, {"time": 889, "pitch": 60, "duration": 12, "velocity": 78}, {"time": 895, "pitch": 57, "duration": 4, "velocity": 69}, {"time": 901, "pitch": 38, "duration": 16, "velocity": 77}, {"time": 901, "pitch": 57, "duration": 3, "velocity": 70}, {"time": 901, "pitch": 62, "duration": 4, "velocity": 75}, {"time": 907, "pitch": 45, "duration": 9, "velocity": 63}, {"time": 913, "pitch": 66, "duration": 7, "velocity": 77}, {"time": 913, "pitch": 62, "duration": 6, "velocity": 78}, {"time": 925, "pitch": 62, "duration": 13, "velocity": 73}, {"time": 925, "pitch": 67, "duration": 8, "velocity": 73}, {"time": 925, "pitch": 43, "duration": 20, "velocity": 78}, {"time": 931, "pitch": 50, "duration": 13, "velocity": 70}, {"time": 937, "pitch": 69, "duration": 5, "velocity": 76}, {"time": 949, "pitch": 62, "duration": 5, "velocity": 74}, {"time": 949, "pitch": 43, "duration": 16, "velocity": 84}, {"time": 949, "pitch": 71, "duration": 12, "velocity": 78}, {"time": 955, "pitch": 50, "duration": 9, "velocity": 67}, {"time": 961, "pitch": 67, "duration": 7, "velocity": 78}, {"time": 961, "pitch": 62, "duration": 3, "velocity": 79}, {"time": 967, "pitch": 62, "duration": 2, "velocity": 75}, {"time": 971, "pitch": 60, "duration": 9, "velocity": 70}, {"time": 972, "pitch": 64, "duration": 8, "velocity": 78}, {"time": 973, "pitch": 48, "duration": 41, "velocity": 83}, {"time": 973, "pitch": 67, "duration": 7, "velocity": 69}, {"time": 974, "pitch": 72, "duration": 7, "velocity": 74}, {"time": 978, "pitch": 55, "duration": 35, "velocity": 71}, {"time": 985, "pitch": 64, "duration": 4, "velocity": 79}, {"time": 985, "pitch": 60, "duration": 5, "velocity": 61}, {"time": 985, "pitch": 67, "duration": 4, "velocity": 72}, {"time": 997, "pitch": 67, "duration": 17, "velocity": 72}, {"time": 997, "pitch": 60, "duration": 3, "velocity": 73}, {"time": 1003, "pitch": 60, "duration": 10, "velocity": 73}, {"time": 1009, "pitch": 64, "duration": 4, "velocity": 75}, {"time": 1020, "pitch": 59, "duration": 4, "velocity": 68}, {"time": 1021, "pitch": 62, "duration": 4, "velocity": 76}, {"time": 1021, "pitch": 47, "duration": 16, "velocity": 79}, {"time": 1021, "pitch": 66, "duration": 6, "velocity": 71}, {"time": 1032, "pitch": 63, "duration": 5, "velocity": 75}, {"time": 1032, "pitch": 59, "duration": 9, "velocity": 76}, {"time": 1033, "pitch": 51, "duration": 3, "velocity": 78}, {"time": 1044, "pitch": 59, "duration": 3, "velocity": 66}, {"time": 1045, "pitch": 64, "duration": 8, "velocity": 74}, {"time": 1045, "pitch": 40, "duration": 16, "velocity": 74}, {"time": 1045, "pitch": 67, "duration": 8, "velocity": 72}, {"time": 1051, "pitch": 47, "duration": 8, "velocity": 63}, {"time": 1057, "pitch": 64, "duration": 4, "velocity": 80}, {"time": 1057, "pitch": 59, "duration": 5, "velocity": 79}, {"time": 1069, "pitch": 55, "duration": 6, "velocity": 74}, {"time": 1069, "pitch": 60, "duration": 6, "velocity": 79}, {"time": 1069, "pitch": 45, "duration": 41, "velocity": 82}, {"time": 1075, "pitch": 52, "duration": 34, "velocity": 68}, {"time": 1081, "pitch": 57, "duration": 2, "velocity": 74}, {"time": 1081, "pitch": 64, "duration": 2, "velocity": 81}, {"time": 1093, "pitch": 60, "duration": 4, "velocity": 74}, {"time": 1093, "pitch": 57, "duration": 4, "velocity": 62}, {"time": 1104, "pitch": 60, "duration": 1, "velocity": 68}, {"time": 1104, "pitch": 64, "duration": 1, "velocity": 70}, {"time": 1105, "pitch": 69, "duration": 8, "velocity": 81}, {"time": 1111, "pitch": 57, "duration": 1, "velocity": 85}, {"time": 1117, "pitch": 38, "duration": 1, "velocity": 86}, {"time": 1117, "pitch": 57, "duration": 4, "velocity": 72}, {"time": 1117, "pitch": 62, "duration": 6, "velocity": 77}, {"time": 1123, "pitch": 50, "duration": 15, "velocity": 67}, {"time": 1129, "pitch": 57, "duration": 9, "velocity": 86}, {"time": 1135, "pitch": 69, "duration": 2, "velocity": 86}, {"time": 1139, "pitch": 62, "duration": 3, "velocity": 66}, {"time": 1140, "pitch": 66, "duration": 2, "velocity": 69}, {"time": 1141, "pitch": 69, "duration": 1, "velocity": 69}, {"time": 1141, "pitch": 50, "duration": 14, "velocity": 85}, {"time": 1141, "pitch": 74, "duration": 4, "velocity": 85}, {"time": 1147, "pitch": 62, "duration": 3, "velocity": 78}, {"time": 1154, "pitch": 66, "duration": 2, "velocity": 68}, {"time": 1154, "pitch": 69, "duration": 3, "velocity": 77}, {"time": 1154, "pitch": 62, "duration": 3, "velocity": 72}, {"time": 1165, "pitch": 43, "duration": 23, "velocity": 91}, {"time": 1168, "pitch": 50, "duration": 19, "velocity": 82}, {"time": 1171, "pitch": 55, "duration": 7, "velocity": 88}, {"time": 1174, "pitch": 62, "duration": 4, "velocity": 70}, {"time": 1177, "pitch": 67, "duration": 10, "velocity": 88}, {"time": 1180, "pitch": 62, "duration": 4, "velocity": 87}, {"time": 1183, "pitch": 55, "duration": 4, "velocity": 83}, {"time": 1186, "pitch": 62, "duration": 5, "velocity": 88}, {"time": 1189, "pitch": 50, "duration": 18, "velocity": 95}, {"time": 1192, "pitch": 62, "duration": 4, "velocity": 88}, {"time": 1195, "pitch": 57, "duration": 7, "velocity": 82}, {"time": 1198, "pitch": 62, "duration": 4, "velocity": 84}, {"time": 1201, "pitch": 66, "duration": 6, "velocity": 89}, {"time": 1204, "pitch": 62, "duration": 8, "velocity": 83}, {"time": 1207, "pitch": 57, "duration": 3, "velocity": 80}, {"time": 1213, "pitch": 40, "duration": 18, "velocity": 90}, {"time": 1213, "pitch": 59, "duration": 4, "velocity": 78}, {"time": 1213, "pitch": 64, "duration": 5, "velocity": 85}, {"time": 1216, "pitch": 47, "duration": 14, "velocity": 73}, {"time": 1219, "pitch": 64, "duration": 4, "velocity": 88}, {"time": 1222, "pitch": 59, "duration": 3, "velocity": 83}, {"time": 1225, "pitch": 67, "duration": 4, "velocity": 85}, {"time": 1228, "pitch": 64, "duration": 4, "velocity": 80}, {"time": 1231, "pitch": 59, "duration": 4, "velocity": 80}, {"time": 1234, "pitch": 64, "duration": 4, "velocity": 89}, {"time": 1237, "pitch": 50, "duration": 19, "velocity": 90}, {"time": 1240, "pitch": 57, "duration": 10, "velocity": 78}, {"time": 1243, "pitch": 62, "duration": 6, "velocity": 83}, {"time": 1246, "pitch": 66, "duration": 10, "velocity": 85}, {"time": 1249, "pitch": 54, "duration": 6, "velocity": 84}, {"time": 1252, "pitch": 57, "duration": 4, "velocity": 82}, {"time": 1255, "pitch": 62, "duration": 7, "velocity": 89}, {"time": 1258, "pitch": 66, "duration": 4, "velocity": 81}, {"time": 1261, "pitch": 48, "duration": 23, "velocity": 91}, {"time": 1264, "pitch": 55, "duration": 19, "velocity": 77}, {"time": 1267, "pitch": 60, "duration": 6, "velocity": 83}, {"time": 1270, "pitch": 64, "duration": 4, "velocity": 85}, {"time": 1273, "pitch": 67, "duration": 10, "velocity": 81}, {"time": 1276, "pitch": 64, "duration": 4, "velocity": 85}, {"time": 1279, "pitch": 60, "duration": 4, "velocity": 91}, {"time": 1282, "pitch": 64, "duration": 4, "velocity": 89}, {"time": 1285, "pitch": 47, "duration": 20, "velocity": 93}, {"time": 1288, "pitch": 62, "duration": 5, "velocity": 79}, {"time": 1291, "pitch": 59, "duration": 7, "velocity": 80}, {"time": 1294, "pitch": 62, "duration": 6, "velocity": 84}, {"time": 1297, "pitch": 54, "duration": 6, "velocity": 81}, {"time": 1300, "pitch": 59, "duration": 4, "velocity": 84}, {"time": 1303, "pitch": 62, "duration": 3, "velocity": 78}, {"time": 1306, "pitch": 59, "duration": 2, "velocity": 82}, {"time": 1309, "pitch": 45, "duration": 20, "velocity": 89}, {"time": 1309, "pitch": 57, "duration": 3, "velocity": 81}, {"time": 1309, "pitch": 60, "duration": 6, "velocity": 81}, {"time": 1312, "pitch": 52, "duration": 11, "velocity": 80}, {"time": 1315, "pitch": 57, "duration": 4, "velocity": 78}, {"time": 1318, "pitch": 60, "duration": 2, "velocity": 69}, {"time": 1321, "pitch": 57, "duration": 3, "velocity": 81}, {"time": 1321, "pitch": 64, "duration": 5, "velocity": 89}, {"time": 1324, "pitch": 52, "duration": 4, "velocity": 78}, {"time": 1327, "pitch": 60, "duration": 4, "velocity": 83}, {"time": 1330, "pitch": 57, "duration": 2, "velocity": 80}, {"time": 1333, "pitch": 38, "duration": 18, "velocity": 91}, {"time": 1333, "pitch": 57, "duration": 3, "velocity": 84}, {"time": 1333, "pitch": 62, "duration": 4, "velocity": 82}, {"time": 1336, "pitch": 45, "duration": 14, "velocity": 77}, {"time": 1339, "pitch": 57, "duration": 4, "velocity": 89}, {"time": 1342, "pitch": 62, "duration": 2, "velocity": 76}, {"time": 1345, "pitch": 57, "duration": 4, "velocity": 88}, {"time": 1345, "pitch": 66, "duration": 4, "velocity": 89}, {"time": 1348, "pitch": 62, "duration": 3, "velocity": 89}, {"time": 1351, "pitch": 57, "duration": 2, "velocity": 87}, {"time": 1357, "pitch": 43, "duration": 22, "velocity": 89}, {"time": 1357, "pitch": 53, "duration": 1, "velocity": 69}, {"time": 1360, "pitch": 50, "duration": 14, "velocity": 85}, {"time": 1363, "pitch": 55, "duration": 4, "velocity": 89}, {"time": 1366, "pitch": 62, "duration": 5, "velocity": 84}, {"time": 1369, "pitch": 59, "duration": 3, "velocity": 89}, {"time": 1372, "pitch": 55, "duration": 4, "velocity": 87}, {"time": 1375, "pitch": 50, "duration": 4, "velocity": 87}, {"time": 1378, "pitch": 55, "duration": 2, "velocity": 80}, {"time": 1381, "pitch": 50, "duration": 17, "velocity": 93}, {"time": 1384, "pitch": 62, "duration": 4, "velocity": 73}, {"time": 1387, "pitch": 57, "duration": 5, "velocity": 81}, {"time": 1390, "pitch": 62, "duration": 3, "velocity": 79}, {"time": 1393, "pitch": 66, "duration": 4, "velocity": 91}, {"time": 1396, "pitch": 62, "duration": 5, "velocity": 85}, {"time": 1399, "pitch": 57, "duration": 5, "velocity": 85}, {"time": 1402, "pitch": 62, "duration": 4, "velocity": 90}, {"time": 1405, "pitch": 40, "duration": 19, "velocity": 87}, {"time": 1405, "pitch": 64, "duration": 7, "velocity": 89}, {"time": 1408, "pitch": 47, "duration": 16, "velocity": 81}, {"time": 1411, "pitch": 59, "duration": 5, "velocity": 85}, {"time": 1414, "pitch": 64, "duration": 2, "velocity": 85}, {"time": 1417, "pitch": 59, "duration": 4, "velocity": 89}, {"time": 1417, "pitch": 67, "duration": 4, "velocity": 86}, {"time": 1420, "pitch": 64, "duration": 4, "velocity": 84}, {"time": 1423, "pitch": 59, "duration": 4, "velocity": 84}, {"time": 1426, "pitch": 64, "duration": 3, "velocity": 83}, {"time": 1429, "pitch": 50, "duration": 21, "velocity": 89}, {"time": 1429, "pitch": 62, "duration": 4, "velocity": 81}, {"time": 1432, "pitch": 57, "duration": 4, "velocity": 80}, {"time": 1435, "pitch": 62, "duration": 4, "velocity": 81}, {"time": 1438, "pitch": 57, "duration": 2, "velocity": 77}, {"time": 1441, "pitch": 57, "duration": 2, "velocity": 85}, {"time": 1441, "pitch": 66, "duration": 7, "velocity": 80}, {"time": 1444, "pitch": 57, "duration": 4, "velocity": 79}, {"time": 1447, "pitch": 62, "duration": 3, "velocity": 79}, {"time": 1450, "pitch": 57, "duration": 3, "velocity": 75}, {"time": 1453, "pitch": 48, "duration": 22, "velocity": 85}, {"time": 1453, "pitch": 60, "duration": 4, "velocity": 79}, {"time": 1456, "pitch": 55, "duration": 7, "velocity": 85}, {"time": 1459, "pitch": 60, "duration": 4, "velocity": 80}, {"time": 1462, "pitch": 64, "duration": 4, "velocity": 89}, {"time": 1465, "pitch": 60, "duration": 4, "velocity": 83}, {"time": 1468, "pitch": 55, "duration": 4, "velocity": 88}, {"time": 1471, "pitch": 60, "duration": 6, "velocity": 78}, {"time": 1474, "pitch": 55, "duration": 3, "velocity": 78}, {"time": 1477, "pitch": 47, "duration": 22, "velocity": 91}, {"time": 1480, "pitch": 59, "duration": 4, "velocity": 84}, {"time": 1483, "pitch": 62, "duration": 5, "velocity": 81}, {"time": 1486, "pitch": 59, "duration": 4, "velocity": 84}, {"time": 1489, "pitch": 66, "duration": 9, "velocity": 77}, {"time": 1492, "pitch": 54, "duration": 5, "velocity": 79}, {"time": 1495, "pitch": 62, "duration": 5, "velocity": 80}, {"time": 1498, "pitch": 59, "duration": 4, "velocity": 83}, {"time": 1501, "pitch": 45, "duration": 20, "velocity": 90}, {"time": 1504, "pitch": 52, "duration": 11, "velocity": 80}, {"time": 1507, "pitch": 57, "duration": 6, "velocity": 83}, {"time": 1510, "pitch": 60, "duration": 4, "velocity": 84}, {"time": 1513, "pitch": 64, "duration": 8, "velocity": 90}, {"time": 1516, "pitch": 52, "duration": 4, "velocity": 85}, {"time": 1519, "pitch": 57, "duration": 5, "velocity": 84}, {"time": 1522, "pitch": 60, "duration": 4, "velocity": 81}, {"time": 1525, "pitch": 38, "duration": 25, "velocity": 91}, {"time": 1525, "pitch": 62, "duration": 4, "velocity": 85}, {"time": 1528, "pitch": 45, "duration": 21, "velocity": 78}, {"time": 1531, "pitch": 50, "duration": 7, "velocity": 90}, {"time": 1534, "pitch": 54, "duration": 5, "velocity": 78}, {"time": 1537, "pitch": 62, "duration": 5, "velocity": 90}, {"time": 1540, "pitch": 57, "duration": 5, "velocity": 83}, {"time": 1543, "pitch": 54, "duration": 5, "velocity": 89}, {"time": 1546, "pitch": 50, "duration": 21, "velocity": 85}, {"time": 1549, "pitch": 38, "duration": 1, "velocity": 89}, {"time": 1572, "pitch": 55, "duration": 3, "velocity": 46}, {"time": 1573, "pitch": 60, "duration": 8, "velocity": 77}, {"time": 1574, "pitch": 36, "duration": 4, "velocity": 80}, {"time": 1574, "pitch": 64, "duration": 9, "velocity": 81}, {"time": 1585, "pitch": 48, "duration": 30, "velocity": 60}, {"time": 1588, "pitch": 55, "duration": 26, "velocity": 67}, {"time": 1591, "pitch": 62, "duration": 3, "velocity": 72}, {"time": 1593, "pitch": 67, "duration": 11, "velocity": 75}, {"time": 1596, "pitch": 60, "duration": 4, "velocity": 73}, {"time": 1602, "pitch": 62, "duration": 3, "velocity": 72}, {"time": 1605, "pitch": 60, "duration": 4, "velocity": 66}, {"time": 1609, "pitch": 67, "duration": 4, "velocity": 70}, {"time": 1621, "pitch": 43, "duration": 43, "velocity": 80}, {"time": 1621, "pitch": 62, "duration": 6, "velocity": 77}, {"time": 1624, "pitch": 50, "duration": 34, "velocity": 77}, {"time": 1627, "pitch": 55, "duration": 4, "velocity": 69}, {"time": 1630, "pitch": 62, "duration": 13, "velocity": 76}, {"time": 1633, "pitch": 59, "duration": 9, "velocity": 73}, {"time": 1636, "pitch": 55, "duration": 3, "velocity": 79}, {"time": 1639, "pitch": 67, "duration": 12, "velocity": 77}, {"time": 1642, "pitch": 55, "duration": 4, "velocity": 71}, {"time": 1645, "pitch": 62, "duration": 7, "velocity": 70}, {"time": 1657, "pitch": 62, "duration": 9, "velocity": 77}, {"time": 1657, "pitch": 59, "duration": 7, "velocity": 77}, {"time": 1660, "pitch": 50, "duration": 4, "velocity": 75}, {"time": 1663, "pitch": 55, "duration": 2, "velocity": 81}, {"time": 1669, "pitch": 57, "duration": 3, "velocity": 71}, {"time": 1669, "pitch": 45, "duration": 41, "velocity": 84}, {"time": 1669, "pitch": 60, "duration": 9, "velocity": 77}, {"time": 1672, "pitch": 52, "duration": 34, "velocity": 77}, {"time": 1675, "pitch": 57, "duration": 4, "velocity": 72}, {"time": 1678, "pitch": 64, "duration": 14, "velocity": 78}, {"time": 1681, "pitch": 60, "duration": 10, "velocity": 79}, {"time": 1684, "pitch": 57, "duration": 3, "velocity": 75}, {"time": 1693, "pitch": 60, "duration": 7, "velocity": 80}, {"time": 1698, "pitch": 57, "duration": 2, "velocity": 65}, {"time": 1705, "pitch": 60, "duration": 4, "velocity": 85}, {"time": 1705, "pitch": 64, "duration": 4, "velocity": 85}, {"time": 1705, "pitch": 57, "duration": 2, "velocity": 67}, {"time": 1708, "pitch": 52, "duration": 2, "velocity": 79}, {"time": 1711, "pitch": 57, "duration": 2, "velocity": 80}, {"time": 1717, "pitch": 43, "duration": 40, "velocity": 82}, {"time": 1717, "pitch": 62, "duration": 6, "velocity": 74}, {"time": 1720, "pitch": 50, "duration": 34, "velocity": 75}, {"time": 1723, "pitch": 55, "duration": 4, "velocity": 78}, {"time": 1726, "pitch": 62, "duration": 12, "velocity": 84}, {"time": 1732, "pitch": 55, "duration": 3, "velocity": 72}, {"time": 1735, "pitch": 67, "duration": 16, "velocity": 78}, {"time": 1738, "pitch": 55, "duration": 3, "velocity": 79}, {"time": 1741, "pitch": 62, "duration": 10, "velocity": 74}, {"time": 1744, "pitch": 55, "duration": 3, "velocity": 71}, {"time": 1747, "pitch": 59, "duration": 4, "velocity": 72}, {"time": 1750, "pitch": 55, "duration": 2, "velocity": 76}, {"time": 1753, "pitch": 62, "duration": 3, "velocity": 83}, {"time": 1753, "pitch": 59, "duration": 3, "velocity": 84}, {"time": 1753, "pitch": 67, "duration": 5, "velocity": 75}, {"time": 1753, "pitch": 55, "duration": 3, "velocity": 79}, {"time": 1756, "pitch": 50, "duration": 2, "velocity": 77}, {"time": 1759, "pitch": 43, "duration": 2, "velocity": 84}, {"time": 1765, "pitch": 36, "duration": 2, "velocity": 82}, {"time": 1765, "pitch": 67, "duration": 11, "velocity": 76}, {"time": 1765, "pitch": 60, "duration": 11, "velocity": 78}, {"time": 1771, "pitch": 48, "duration": 34, "velocity": 79}, {"time": 1774, "pitch": 55, "duration": 11, "velocity": 73}, {"time": 1778, "pitch": 62, "duration": 3, "velocity": 75}, {"time": 1780, "pitch": 67, "duration": 4, "velocity": 84}, {"time": 1783, "pitch": 60, "duration": 4, "velocity": 80}, {"time": 1786, "pitch": 55, "duration": 16, "velocity": 84}, {"time": 1789, "pitch": 60, "duration": 4, "velocity": 77}, {"time": 1792, "pitch": 64, "duration": 3, "velocity": 77}, {"time": 1795, "pitch": 67, "duration": 4, "velocity": 71}, {"time": 1798, "pitch": 60, "duration": 2, "velocity": 68}, {"time": 1801, "pitch": 60, "duration": 4, "velocity": 85}, {"time": 1801, "pitch": 64, "duration": 5, "velocity": 85}, {"time": 1801, "pitch": 67, "duration": 6, "velocity": 83}, {"time": 1804, "pitch": 55, "duration": 3, "velocity": 79}, {"time": 1807, "pitch": 48, "duration": 2, "velocity": 86}, {"time": 1812, "pitch": 59, "duration": 2, "velocity": 72}, {"time": 1813, "pitch": 62, "duration": 6, "velocity": 76}, {"time": 1813, "pitch": 47, "duration": 19, "velocity": 85}, {"time": 1813, "pitch": 66, "duration": 9, "velocity": 73}, {"time": 1817, "pitch": 54, "duration": 9, "velocity": 66}, {"time": 1819, "pitch": 59, "duration": 6, "velocity": 77}, {"time": 1822, "pitch": 62, "duration": 4, "velocity": 79}, {"time": 1825, "pitch": 66, "duration": 6, "velocity": 86}, {"time": 1828, "pitch": 54, "duration": 2, "velocity": 78}, {"time": 1831, "pitch": 59, "duration": 5, "velocity": 82}, {"time": 1834, "pitch": 66, "duration": 3, "velocity": 80}, {"time": 1837, "pitch": 67, "duration": 7, "velocity": 85}, {"time": 1837, "pitch": 40, "duration": 17, "velocity": 84}, {"time": 1840, "pitch": 47, "duration": 14, "velocity": 73}, {"time": 1843, "pitch": 59, "duration": 6, "velocity": 84}, {"time": 1846, "pitch": 64, "duration": 3, "velocity": 82}, {"time": 1849, "pitch": 67, "duration": 6, "velocity": 77}, {"time": 1852, "pitch": 59, "duration": 3, "velocity": 74}, {"time": 1855, "pitch": 64, "duration": 1, "velocity": 72}, {"time": 1861, "pitch": 57, "duration": 4, "velocity": 68}, {"time": 1861, "pitch": 60, "duration": 7, "velocity": 74}, {"time": 1861, "pitch": 45, "duration": 43, "velocity": 83}, {"time": 1864, "pitch": 52, "duration": 39, "velocity": 72}, {"time": 1867, "pitch": 55, "duration": 4, "velocity": 73}, {"time": 1870, "pitch": 60, "duration": 4, "velocity": 84}, {"time": 1873, "pitch": 64, "duration": 5, "velocity": 85}, {"time": 1876, "pitch": 57, "duration": 6, "velocity": 74}, {"time": 1879, "pitch": 60, "duration": 4, "velocity": 77}, {"time": 1882, "pitch": 64, "duration": 3, "velocity": 80}, {"time": 1885, "pitch": 57, "duration": 8, "velocity": 72}, {"time": 1888, "pitch": 60, "duration": 7, "velocity": 71}, {"time": 1891, "pitch": 64, "duration": 3, "velocity": 76}, {"time": 1894, "pitch": 69, "duration": 9, "velocity": 85}, {"time": 1897, "pitch": 57, "duration": 6, "velocity": 82}, {"time": 1899, "pitch": 60, "duration": 5, "velocity": 81}, {"time": 1903, "pitch": 64, "duration": 1, "velocity": 78}, {"time": 1909, "pitch": 62, "duration": 8, "velocity": 71}, {"time": 1909, "pitch": 38, "duration": 4, "velocity": 85}, {"time": 1915, "pitch": 50, "duration": 43, "velocity": 68}, {"time": 1918, "pitch": 57, "duration": 40, "velocity": 63}, {"time": 1921, "pitch": 62, "duration": 5, "velocity": 77}, {"time": 1924, "pitch": 69, "duration": 4, "velocity": 75}, {"time": 1927, "pitch": 74, "duration": 4, "velocity": 85}, {"time": 1930, "pitch": 62, "duration": 2, "velocity": 81}, {"time": 1933, "pitch": 69, "duration": 25, "velocity": 74}, {"time": 1933, "pitch": 62, "duration": 24, "velocity": 64}, {"time": 1933, "pitch": 74, "duration": 25, "velocity": 85}, {"time": 1957, "pitch": 60, "duration": 9, "velocity": 72}, {"time": 1957, "pitch": 64, "duration": 9, "velocity": 79}, {"time": 1957, "pitch": 48, "duration": 17, "velocity": 85}, {"time": 1958, "pitch": 67, "duration": 9, "velocity": 72}, {"time": 1963, "pitch": 55, "duration": 10, "velocity": 66}, {"time": 1969, "pitch": 60, "duration": 2, "velocity": 75}, {"time": 1969, "pitch": 64, "duration": 2, "velocity": 80}, {"time": 1981, "pitch": 67, "duration": 6, "velocity": 71}, {"time": 1982, "pitch": 64, "duration": 4, "velocity": 73}, {"time": 1982, "pitch": 60, "duration": 3, "velocity": 49}, {"time": 1993, "pitch": 60, "duration": 3, "velocity": 58}, {"time": 1993, "pitch": 64, "duration": 6, "velocity": 78}, {"time": 1993, "pitch": 67, "duration": 8, "velocity": 78}, {"time": 1999, "pitch": 60, "duration": 2, "velocity": 68}, {"time": 2005, "pitch": 43, "duration": 44, "velocity": 64}, {"time": 2005, "pitch": 59, "duration": 12, "velocity": 68}, {"time": 2005, "pitch": 62, "duration": 14, "velocity": 73}, {"time": 2017, "pitch": 67, "duration": 10, "velocity": 78}, {"time": 2022, "pitch": 59, "duration": 17, "velocity": 65}, {"time": 2029, "pitch": 62, "duration": 10, "velocity": 58}, {"time": 2040, "pitch": 62, "duration": 13, "velocity": 80}, {"time": 2041, "pitch": 59, "duration": 5, "velocity": 79}, {"time": 2041, "pitch": 50, "duration": 9, "velocity": 70}, {"time": 2053, "pitch": 45, "duration": 19, "velocity": 78}, {"time": 2053, "pitch": 57, "duration": 8, "velocity": 63}, {"time": 2053, "pitch": 60, "duration": 10, "velocity": 75}, {"time": 2059, "pitch": 52, "duration": 12, "velocity": 73}, {"time": 2065, "pitch": 60, "duration": 12, "velocity": 78}, {"time": 2071, "pitch": 57, "duration": 4, "velocity": 69}, {"time": 2077, "pitch": 38, "duration": 16, "velocity": 77}, {"time": 2077, "pitch": 57, "duration": 3, "velocity": 70}, {"time": 2077, "pitch": 62, "duration": 4, "velocity": 75}, {"time": 2083, "pitch": 45, "duration": 9, "velocity": 63}, {"time": 2089, "pitch": 66, "duration": 7, "velocity": 77}, {"time": 2089, "pitch": 62, "duration": 6, "velocity": 78}, {"time": 2101, "pitch": 62, "duration": 13, "velocity": 73}, {"time": 2101, "pitch": 67, "duration": 8, "velocity": 73}, {"time": 2101, "pitch": 43, "duration": 20, "velocity": 78}, {"time": 2107, "pitch": 50, "duration": 13, "velocity": 70}, {"time": 2113, "pitch": 69, "duration": 5, "velocity": 76}, {"time": 2125, "pitch": 62, "duration": 5, "velocity": 74}, {"time": 2125, "pitch": 43, "duration": 16, "velocity": 84}, {"time": 2125, "pitch": 71, "duration": 12, "velocity": 78}, {"time": 2131, "pitch": 50, "duration": 9, "velocity": 67}, {"time": 2137, "pitch": 67, "duration": 7, "velocity": 78}, {"time": 2137, "pitch": 62, "duration": 3, "velocity": 79}, {"time": 2143, "pitch": 62, "duration": 2, "velocity": 75}, {"time": 2147, "pitch": 60, "duration": 9, "velocity": 70}, {"time": 2148, "pitch": 64, "duration": 8, "velocity": 78}, {"time": 2149, "pitch": 48, "duration": 41, "velocity": 83}, {"time": 2149, "pitch": 67, "duration": 7, "velocity": 69}, {"time": 2150, "pitch": 72, "duration": 7, "velocity": 74}, {"time": 2154, "pitch": 55, "duration": 35, "velocity": 71}, {"time": 2161, "pitch": 64, "duration": 4, "velocity": 79}, {"time": 2161, "pitch": 60, "duration": 5, "velocity": 61}, {"time": 2161, "pitch": 67, "duration": 4, "velocity": 72}, {"time": 2173, "pitch": 67, "duration": 17, "velocity": 72}, {"time": 2173, "pitch": 60, "duration": 3, "velocity": 73}, {"time": 2179, "pitch": 60, "duration": 10, "velocity": 73}, {"time": 2185, "pitch": 64, "duration": 4, "velocity": 75}, {"time": 2196, "pitch": 59, "duration": 4, "velocity": 68}, {"time": 2197, "pitch": 62, "duration": 4, "velocity": 76}, {"time": 2197, "pitch": 47, "duration": 16, "velocity": 79}, {"time": 2197, "pitch": 66, "duration": 6, "velocity": 71}, {"time": 2208, "pitch": 63, "duration": 5, "velocity": 75}, {"time": 2208, "pitch": 59, "duration": 9, "velocity": 76}, {"time": 2209, "pitch": 51, "duration": 3, "velocity": 78}, {"time": 2220, "pitch": 59, "duration": 3, "velocity": 66}, {"time": 2221, "pitch": 64, "duration": 8, "velocity": 74}, {"time": 2221, "pitch": 40, "duration": 16, "velocity": 74}, {"time": 2221, "pitch": 67, "duration": 8, "velocity": 72}, {"time": 2227, "pitch": 47, "duration": 8, "velocity": 63}, {"time": 2233, "pitch": 64, "duration": 4, "velocity": 80}, {"time": 2233, "pitch": 59, "duration": 5, "velocity": 79}, {"time": 2245, "pitch": 55, "duration": 6, "velocity": 74}, {"time": 2245, "pitch": 60, "duration": 6, "velocity": 79}, {"time": 2245, "pitch": 45, "duration": 41, "velocity": 82}, {"time": 2251, "pitch": 52, "duration": 34, "velocity": 68}, {"time": 2257, "pitch": 57, "duration": 2, "velocity": 74}, {"time": 2257, "pitch": 64, "duration": 2, "velocity": 81}, {"time": 2269, "pitch": 60, "duration": 4, "velocity": 74}, {"time": 2269, "pitch": 57, "duration": 4, "velocity": 62}, {"time": 2280, "pitch": 60, "duration": 1, "velocity": 68}, {"time": 2280, "pitch": 64, "duration": 1, "velocity": 70}, {"time": 2281, "pitch": 69, "duration": 8, "velocity": 81}, {"time": 2287, "pitch": 57, "duration": 1, "velocity": 85}, {"time": 2293, "pitch": 38, "duration": 1, "velocity": 86}, {"time": 2293, "pitch": 57, "duration": 4, "velocity": 72}, {"time": 2293, "pitch": 62, "duration": 6, "velocity": 77}, {"time": 2299, "pitch": 50, "duration": 15, "velocity": 67}, {"time": 2305, "pitch": 57, "duration": 9, "velocity": 86}, {"time": 2311, "pitch": 69, "duration": 2, "velocity": 86}, {"time": 2315, "pitch": 62, "duration": 3, "velocity": 66}, {"time": 2316, "pitch": 66, "duration": 2, "velocity": 69}, {"time": 2317, "pitch": 69, "duration": 1, "velocity": 69}, {"time": 2317, "pitch": 50, "duration": 14, "velocity": 85}, {"time": 2317, "pitch": 74, "duration": 4, "velocity": 85}, {"time": 2323, "pitch": 62, "duration": 3, "velocity": 78}, {"time": 2330, "pitch": 66, "duration": 2, "velocity": 68}, {"time": 2330, "pitch": 69, "duration": 3, "velocity": 77}, {"time": 2330, "pitch": 62, "duration": 3, "velocity": 72}, {"time": 2341, "pitch": 43, "duration": 23, "velocity": 91}, {"time": 2344, "pitch": 50, "duration": 19, "velocity": 82}, {"time": 2347, "pitch": 55, "duration": 7, "velocity": 88}, {"time": 2350, "pitch": 62, "duration": 4, "velocity": 70}, {"time": 2353, "pitch": 67, "duration": 10, "velocity": 88}, {"time": 2356, "pitch": 62, "duration": 4, "velocity": 87}, {"time": 2359, "pitch": 55, "duration": 4, "velocity": 83}, {"time": 2362, "pitch": 62, "duration": 5, "velocity": 88}, {"time": 2365, "pitch": 50, "duration": 18, "velocity": 95}, {"time": 2368, "pitch": 62, "duration": 4, "velocity": 88}, {"time": 2371, "pitch": 57, "duration": 7, "velocity": 82}, {"time": 2374, "pitch": 62, "duration": 4, "velocity": 84}, {"time": 2377, "pitch": 66, "duration": 6, "velocity": 89}, {"time": 2380, "pitch": 62, "duration": 8, "velocity": 83}, {"time": 2383, "pitch": 57, "duration": 3, "velocity": 80}, {"time": 2389, "pitch": 40, "duration": 18, "velocity": 90}, {"time": 2389, "pitch": 59, "duration": 4, "velocity": 78}, {"time": 2389, "pitch": 64, "duration": 5, "velocity": 85}, {"time": 2392, "pitch": 47, "duration": 14, "velocity": 73}, {"time": 2395, "pitch": 64, "duration": 4, "velocity": 88}, {"time": 2398, "pitch": 59, "duration": 3, "velocity": 83}, {"time": 2401, "pitch": 67, "duration": 4, "velocity": 85}, {"time": 2404, "pitch": 64, "duration": 4, "velocity": 80}, {"time": 2407, "pitch": 59, "duration": 4, "velocity": 80}, {"time": 2410, "pitch": 64, "duration": 4, "velocity": 89}, {"time": 2413, "pitch": 50, "duration": 19, "velocity": 90}, {"time": 2416, "pitch": 57, "duration": 10, "velocity": 78}, {"time": 2419, "pitch": 62, "duration": 6, "velocity": 83}, {"time": 2422, "pitch": 66, "duration": 10, "velocity": 85}, {"time": 2425, "pitch": 54, "duration": 6, "velocity": 84}, {"time": 2428, "pitch": 57, "duration": 4, "velocity": 82}, {"time": 2431, "pitch": 62, "duration": 7, "velocity": 89}, {"time": 2434, "pitch": 66, "duration": 4, "velocity": 81}, {"time": 2437, "pitch": 48, "duration": 23, "velocity": 91}, {"time": 2440, "pitch": 55, "duration": 19, "velocity": 77}, {"time": 2443, "pitch": 60, "duration": 6, "velocity": 83}, {"time": 2446, "pitch": 64, "duration": 4, "velocity": 85}, {"time": 2449, "pitch": 67, "duration": 10, "velocity": 81}, {"time": 2452, "pitch": 64, "duration": 4, "velocity": 85}, {"time": 2455, "pitch": 60, "duration": 4, "velocity": 91}, {"time": 2458, "pitch": 64, "duration": 4, "velocity": 89}, {"time": 2461, "pitch": 47, "duration": 20, "velocity": 93}, {"time": 2464, "pitch": 62, "duration": 5, "velocity": 79}, {"time": 2467, "pitch": 59, "duration": 7, "velocity": 80}, {"time": 2470, "pitch": 62, "duration": 6, "velocity": 84}, {"time": 2473, "pitch": 54, "duration": 6, "velocity": 81}, {"time": 2476, "pitch": 59, "duration": 4, "velocity": 84}, {"time": 2479, "pitch": 62, "duration": 3, "velocity": 78}, {"time": 2482, "pitch": 59, "duration": 2, "velocity": 82}, {"time": 2485, "pitch": 45, "duration": 20, "velocity": 89}, {"time": 2485, "pitch": 57, "duration": 3, "velocity": 81}, {"time": 2485, "pitch": 60, "duration": 6, "velocity": 81}, {"time": 2488, "pitch": 52, "duration": 11, "velocity": 80}, {"time": 2491, "pitch": 57, "duration": 4, "velocity": 78}, {"time": 2494, "pitch": 60, "duration": 2, "velocity": 69}, {"time": 2497, "pitch": 57, "duration": 3, "velocity": 81}, {"time": 2497, "pitch": 64, "duration": 5, "velocity": 89}, {"time": 2500, "pitch": 52, "duration": 4, "velocity": 78}, {"time": 2503, "pitch": 60, "duration": 4, "velocity": 83}, {"time": 2506, "pitch": 57, "duration": 2, "velocity": 80}, {"time": 2509, "pitch": 38, "duration": 18, "velocity": 91}, {"time": 2509, "pitch": 57, "duration": 3, "velocity": 84}, {"time": 2509, "pitch": 62, "duration": 4, "velocity": 82}, {"time": 2512, "pitch": 45, "duration": 14, "velocity": 77}, {"time": 2515, "pitch": 57, "duration": 4, "velocity": 89}, {"time": 2518, "pitch": 62, "duration": 2, "velocity": 76}, {"time": 2521, "pitch": 57, "duration": 4, "velocity": 88}, {"time": 2521, "pitch": 66, "duration": 4, "velocity": 89}, {"time": 2524, "pitch": 62, "duration": 3, "velocity": 89}, {"time": 2527, "pitch": 57, "duration": 2, "velocity": 87}, {"time": 2533, "pitch": 43, "duration": 22, "velocity": 89}, {"time": 2533, "pitch": 53, "duration": 1, "velocity": 69}, {"time": 2536, "pitch": 50, "duration": 14, "velocity": 85}, {"time": 2539, "pitch": 55, "duration": 4, "velocity": 89}, {"time": 2542, "pitch": 62, "duration": 5, "velocity": 84}, {"time": 2545, "pitch": 59, "duration": 3, "velocity": 89}, {"time": 2548, "pitch": 55, "duration": 4, "velocity": 87}, {"time": 2551, "pitch": 50, "duration": 4, "velocity": 87}, {"time": 2554, "pitch": 55, "duration": 2, "velocity": 80}, {"time": 2557, "pitch": 50, "duration": 17, "velocity": 93}, {"time": 2560, "pitch": 62, "duration": 4, "velocity": 73}, {"time": 2563, "pitch": 57, "duration": 5, "velocity": 81}, {"time": 2566, "pitch": 62, "duration": 3, "velocity": 79}, {"time": 2569, "pitch": 66, "duration": 4, "velocity": 91}, {"time": 2572, "pitch": 62, "duration": 5, "velocity": 85}, {"time": 2575, "pitch": 57, "duration": 5, "velocity": 85}, {"time": 2578, "pitch": 62, "duration": 4, "velocity": 90}, {"time": 2581, "pitch": 40, "duration": 19, "velocity": 87}, {"time": 2581, "pitch": 64, "duration": 7, "velocity": 89}, {"time": 2584, "pitch": 47, "duration": 16, "velocity": 81}, {"time": 2587, "pitch": 59, "duration": 5, "velocity": 85}, {"time": 2590, "pitch": 64, "duration": 2, "velocity": 85}, {"time": 2593, "pitch": 59, "duration": 4, "velocity": 89}, {"time": 2593, "pitch": 67, "duration": 4, "velocity": 86}, {"time": 2596, "pitch": 64, "duration": 4, "velocity": 84}, {"time": 2599, "pitch": 59, "duration": 4, "velocity": 84}, {"time": 2602, "pitch": 64, "duration": 3, "velocity": 83}, {"time": 2605, "pitch": 50, "duration": 21, "velocity": 89}, {"time": 2605, "pitch": 62, "duration": 4, "velocity": 81}, {"time": 2608, "pitch": 57, "duration": 4, "velocity": 80}, {"time": 2611, "pitch": 62, "duration": 4, "velocity": 81}, {"time": 2614, "pitch": 57, "duration": 2, "velocity": 77}, {"time": 2617, "pitch": 57, "duration": 2, "velocity": 85}, {"time": 2617, "pitch": 66, "duration": 7, "velocity": 80}, {"time": 2620, "pitch": 57, "duration": 4, "velocity": 79}, {"time": 2623, "pitch": 62, "duration": 3, "velocity": 79}, {"time": 2626, "pitch": 57, "duration": 3, "velocity": 75}, {"time": 2629, "pitch": 48, "duration": 22, "velocity": 85}, {"time": 2629, "pitch": 60, "duration": 4, "velocity": 79}, {"time": 2632, "pitch": 55, "duration": 7, "velocity": 85}, {"time": 2635, "pitch": 60, "duration": 4, "velocity": 80}, {"time": 2638, "pitch": 64, "duration": 4, "velocity": 89}, {"time": 2641, "pitch": 60, "duration": 4, "velocity": 83}, {"time": 2644, "pitch": 55, "duration": 4, "velocity": 88}, {"time": 2647, "pitch": 60, "duration": 6, "velocity": 78}, {"time": 2650, "pitch": 55, "duration": 3, "velocity": 78}, {"time": 2653, "pitch": 47, "duration": 22, "velocity": 91}, {"time": 2656, "pitch": 59, "duration": 4, "velocity": 84}, {"time": 2659, "pitch": 62, "duration": 5, "velocity": 81}, {"time": 2662, "pitch": 59, "duration": 4, "velocity": 84}, {"time": 2665, "pitch": 66, "duration": 9, "velocity": 77}, {"time": 2668, "pitch": 54, "duration": 5, "velocity": 79}, {"time": 2671, "pitch": 62, "duration": 5, "velocity": 80}, {"time": 2674, "pitch": 59, "duration": 4, "velocity": 83}, {"time": 2677, "pitch": 45, "duration": 21, "velocity": 93}, {"time": 2677, "pitch": 60, "duration": 7, "velocity": 90}, {"time": 2680, "pitch": 52, "duration": 11, "velocity": 83}, {"time": 2683, "pitch": 57, "duration": 5, "velocity": 92}, {"time": 2686, "pitch": 60, "duration": 3, "velocity": 94}, {"time": 2689, "pitch": 64, "duration": 7, "velocity": 101}, {"time": 2692, "pitch": 52, "duration": 5, "velocity": 88}, {"time": 2695, "pitch": 60, "duration": 4, "velocity": 95}, {"time": 2698, "pitch": 57, "duration": 4, "velocity": 92}, {"time": 2701, "pitch": 38, "duration": 25, "velocity": 101}, {"time": 2704, "pitch": 45, "duration": 22, "velocity": 86}, {"time": 2707, "pitch": 50, "duration": 5, "velocity": 93}, {"time": 2710, "pitch": 54, "duration": 3, "velocity": 87}, {"time": 2713, "pitch": 62, "duration": 12, "velocity": 95}, {"time": 2716, "pitch": 50, "duration": 4, "velocity": 96}, {"time": 2719, "pitch": 54, "duration": 7, "velocity": 88}, {"time": 2722, "pitch": 50, "duration": 4, "velocity": 93}, {"time": 2725, "pitch": 39, "duration": 15, "velocity": 98}, {"time": 2725, "pitch": 58, "duration": 4, "velocity": 81}, {"time": 2725, "pitch": 51, "duration": 3, "velocity": 85}, {"time": 2725, "pitch": 55, "duration": 4, "velocity": 81}, {"time": 2728, "pitch": 46, "duration": 12, "velocity": 79}, {"time": 2731, "pitch": 55, "duration": 3, "velocity": 84}, {"time": 2731, "pitch": 58, "duration": 4, "velocity": 81}, {"time": 2734, "pitch": 51, "duration": 2, "velocity": 78}, {"time": 2737, "pitch": 58, "duration": 4, "velocity": 89}, {"time": 2737, "pitch": 55, "duration": 3, "velocity": 98}, {"time": 2740, "pitch": 51, "duration": 1, "velocity": 85}, {"time": 2743, "pitch": 55, "duration": 1, "velocity": 84}, {"time": 2743, "pitch": 58, "duration": 2, "velocity": 80}, {"time": 2745, "pitch": 51, "duration": 1, "velocity": 79}, {"time": 2749, "pitch": 53, "duration": 4, "velocity": 80}, {"time": 2749, "pitch": 41, "duration": 20, "velocity": 86}, {"time": 2749, "pitch": 57, "duration": 5, "velocity": 75}, {"time": 2752, "pitch": 48, "duration": 11, "velocity": 83}, {"time": 2755, "pitch": 57, "duration": 3, "velocity": 85}, {"time": 2755, "pitch": 60, "duration": 3, "velocity": 85}, {"time": 2758, "pitch": 53, "duration": 1, "velocity": 71}, {"time": 2761, "pitch": 57, "duration": 4, "velocity": 87}, {"time": 2761, "pitch": 65, "duration": 4, "velocity": 85}, {"time": 2761, "pitch": 60, "duration": 4, "velocity": 88}, {"time": 2761, "pitch": 53, "duration": 1, "velocity": 79}, {"time": 2764, "pitch": 53, "duration": 2, "velocity": 85}, {"time": 2767, "pitch": 57, "duration": 3, "velocity": 86}, {"time": 2767, "pitch": 60, "duration": 4, "velocity": 85}, {"time": 2770, "pitch": 53, "duration": 1, "velocity": 86}, {"time": 2773, "pitch": 55, "duration": 2, "velocity": 85}, {"time": 2773, "pitch": 43, "duration": 23, "velocity": 86}, {"time": 2773, "pitch": 59, "duration": 4, "velocity": 85}, {"time": 2776, "pitch": 50, "duration": 20, "velocity": 73}, {"time": 2776, "pitch": 55, "duration": 2, "velocity": 82}, {"time": 2779, "pitch": 59, "duration": 2, "velocity": 85}, {"time": 2779, "pitch": 62, "duration": 2, "velocity": 85}, {"time": 2782, "pitch": 55, "duration": 1, "velocity": 73}, {"time": 2785, "pitch": 67, "duration": 3, "velocity": 86}, {"time": 2785, "pitch": 59, "duration": 4, "velocity": 98}, {"time": 2785, "pitch": 55, "duration": 2, "velocity": 87}, {"time": 2788, "pitch": 55, "duration": 2, "velocity": 76}, {"time": 2791, "pitch": 59, "duration": 2, "velocity": 81}, {"time": 2791, "pitch": 62, "duration": 2, "velocity": 77}, {"time": 2794, "pitch": 55, "duration": 2, "velocity": 78}, {"time": 2797, "pitch": 59, "duration": 3, "velocity": 85}, {"time": 2797, "pitch": 55, "duration": 2, "velocity": 76}, {"time": 2797, "pitch": 67, "duration": 3, "velocity": 85}, {"time": 2797, "pitch": 43, "duration": 14, "velocity": 86}, {"time": 2800, "pitch": 50, "duration": 10, "velocity": 78}, {"time": 2803, "pitch": 55, "duration": 2, "velocity": 81}, {"time": 2806, "pitch": 55, "duration": 1, "velocity": 58}, {"time": 2806, "pitch": 59, "duration": 1, "velocity": 88}, {"time": 2806, "pitch": 62, "duration": 1, "velocity": 85}, {"time": 2809, "pitch": 59, "duration": 4, "velocity": 98}, {"time": 2809, "pitch": 55, "duration": 3, "velocity": 91}, {"time": 2809, "pitch": 62, "duration": 4, "velocity": 93}, {"time": 2812, "pitch": 50, "duration": 1, "velocity": 98}, {"time": 2815, "pitch": 55, "duration": 1, "velocity": 100}, {"time": 2821, "pitch": 51, "duration": 2, "velocity": 79}, {"time": 2821, "pitch": 39, "duration": 16, "velocity": 91}, {"time": 2821, "pitch": 55, "duration": 3, "velocity": 86}, {"time": 2821, "pitch": 58, "duration": 3, "velocity": 75}, {"time": 2824, "pitch": 46, "duration": 13, "velocity": 71}, {"time": 2827, "pitch": 55, "duration": 1, "velocity": 79}, {"time": 2827, "pitch": 58, "duration": 1, "velocity": 77}, {"time": 2830, "pitch": 51, "duration": 1, "velocity": 77}, {"time": 2833, "pitch": 63, "duration": 4, "velocity": 82}, {"time": 2833, "pitch": 58, "duration": 4, "velocity": 84}, {"time": 2833, "pitch": 51, "duration": 1, "velocity": 86}, {"time": 2833, "pitch": 55, "duration": 3, "velocity": 87}, {"time": 2836, "pitch": 51, "duration": 2, "velocity": 85}, {"time": 2839, "pitch": 58, "duration": 3, "velocity": 76}, {"time": 2839, "pitch": 63, "duration": 4, "velocity": 78}, {"time": 2839, "pitch": 55, "duration": 2, "velocity": 84}, {"time": 2842, "pitch": 51, "duration": 1, "velocity": 84}, {"time": 2845, "pitch": 53, "duration": 3, "velocity": 84}, {"time": 2845, "pitch": 57, "duration": 4, "velocity": 84}, {"time": 2845, "pitch": 41, "duration": 16, "velocity": 86}, {"time": 2848, "pitch": 48, "duration": 10, "velocity": 84}, {"time": 2851, "pitch": 57, "duration": 3, "velocity": 84}, {"time": 2851, "pitch": 60, "duration": 4, "velocity": 84}, {"time": 2854, "pitch": 53, "duration": 1, "velocity": 79}, {"time": 2857, "pitch": 65, "duration": 4, "velocity": 85}, {"time": 2857, "pitch": 60, "duration": 3, "velocity": 93}, {"time": 2857, "pitch": 57, "duration": 3, "velocity": 98}, {"time": 2857, "pitch": 53, "duration": 2, "velocity": 86}, {"time": 2860, "pitch": 48, "duration": 2, "velocity": 85}, {"time": 2863, "pitch": 41, "duration": 1, "velocity": 90}, {"time": 2869, "pitch": 62, "duration": 4, "velocity": 80}, {"time": 2869, "pitch": 66, "duration": 3, "velocity": 76}, {"time": 2869, "pitch": 57, "duration": 2, "velocity": 77}, {"time": 2869, "pitch": 38, "duration": 11, "velocity": 89}, {"time": 2872, "pitch": 57, "duration": 1, "velocity": 70}, {"time": 2875, "pitch": 62, "duration": 4, "velocity": 84}, {"time": 2875, "pitch": 66, "duration": 4, "velocity": 81}, {"time": 2875, "pitch": 57, "duration": 1, "velocity": 79}, {"time": 2878, "pitch": 57, "duration": 1, "velocity": 79}, {"time": 2881, "pitch": 62, "duration": 3, "velocity": 90}, {"time": 2881, "pitch": 66, "duration": 4, "velocity": 90}, {"time": 2881, "pitch": 57, "duration": 1, "velocity": 86}, {"time": 2881, "pitch": 38, "duration": 11, "velocity": 98}, {"time": 2884, "pitch": 57, "duration": 1, "velocity": 84}, {"time": 2886, "pitch": 62, "duration": 2, "velocity": 87}, {"time": 2887, "pitch": 66, "duration": 1, "velocity": 85}, {"time": 2889, "pitch": 57, "duration": 2, "velocity": 86}, {"time": 2889, "pitch": 62, "duration": 1, "velocity": 77}, {"time": 2893, "pitch": 66, "duration": 25, "velocity": 87}, {"time": 2893, "pitch": 62, "duration": 24, "velocity": 90}, {"time": 2893, "pitch": 57, "duration": 24, "velocity": 85}, {"time": 2893, "pitch": 38, "duration": 14, "velocity": 95}, {"time": 2917, "pitch": 55, "duration": 10, "velocity": 70}, {"time": 2918, "pitch": 59, "duration": 8, "velocity": 76}, {"time": 2918, "pitch": 62, "duration": 8, "velocity": 84}, {"time": 2918, "pitch": 43, "duration": 16, "velocity": 85}, {"time": 2924, "pitch": 50, "duration": 9, "velocity": 73}, {"time": 2929, "pitch": 55, "duration": 3, "velocity": 78}, {"time": 2929, "pitch": 62, "duration": 5, "velocity": 84}, {"time": 2930, "pitch": 59, "duration": 3, "velocity": 78}, {"time": 2941, "pitch": 57, "duration": 2, "velocity": 66}, {"time": 2941, "pitch": 62, "duration": 6, "velocity": 80}, {"time": 2942, "pitch": 38, "duration": 17, "velocity": 86}, {"time": 2942, "pitch": 66, "duration": 6, "velocity": 71}, {"time": 2947, "pitch": 57, "duration": 7, "velocity": 70}, {"time": 2949, "pitch": 45, "duration": 10, "velocity": 54}, {"time": 2953, "pitch": 66, "duration": 7, "velocity": 83}, {"time": 2953, "pitch": 62, "duration": 2, "velocity": 85}, {"time": 2958, "pitch": 62, "duration": 2, "velocity": 28}, {"time": 2959, "pitch": 57, "duration": 1, "velocity": 82}, {"time": 2965, "pitch": 59, "duration": 8, "velocity": 75}, {"time": 2965, "pitch": 64, "duration": 8, "velocity": 80}, {"time": 2965, "pitch": 40, "duration": 14, "velocity": 84}, {"time": 2971, "pitch": 47, "duration": 7, "velocity": 58}, {"time": 2977, "pitch": 64, "duration": 4, "velocity": 85}, {"time": 2977, "pitch": 59, "duration": 2, "velocity": 79}, {"time": 2977, "pitch": 67, "duration": 10, "velocity": 77}, {"time": 2989, "pitch": 66, "duration": 9, "velocity": 75}, {"time": 2990, "pitch": 38, "duration": 16, "velocity": 82}, {"time": 2990, "pitch": 62, "duration": 9, "velocity": 68}, {"time": 2995, "pitch": 45, "duration": 9, "velocity": 73}, {"time": 3001, "pitch": 66, "duration": 5, "velocity": 79}, {"time": 3001, "pitch": 62, "duration": 2, "velocity": 80}, {"time": 3001, "pitch": 69, "duration": 7, "velocity": 78}, {"time": 3007, "pitch": 62, "duration": 2, "velocity": 78}, {"time": 3013, "pitch": 36, "duration": 3, "velocity": 80}, {"time": 3013, "pitch": 60, "duration": 4, "velocity": 77}, {"time": 3014, "pitch": 64, "duration": 5, "velocity": 81}, {"time": 3019, "pitch": 60, "duration": 4, "velocity": 73}, {"time": 3019, "pitch": 48, "duration": 13, "velocity": 81}, {"time": 3025, "pitch": 62, "duration": 7, "velocity": 75}, {"time": 3025, "pitch": 60, "duration": 2, "velocity": 72}, {"time": 3025, "pitch": 67, "duration": 10, "velocity": 62}, {"time": 3031, "pitch": 60, "duration": 2, "velocity": 74}, {"time": 3037, "pitch": 47, "duration": 14, "velocity": 80}, {"time": 3037, "pitch": 59, "duration": 7, "velocity": 72}, {"time": 3037, "pitch": 62, "duration": 8, "velocity": 79}, {"time": 3043, "pitch": 54, "duration": 7, "velocity": 67}, {"time": 3049, "pitch": 59, "duration": 2, "velocity": 79}, {"time": 3049, "pitch": 62, "duration": 2, "velocity": 80}, {"time": 3049, "pitch": 66, "duration": 2, "velocity": 77}, {"time": 3061, "pitch": 60, "duration": 4, "velocity": 85}, {"time": 3061, "pitch": 57, "duration": 3, "velocity": 84}, {"time": 3061, "pitch": 64, "duration": 4, "velocity": 86}, {"time": 3061, "pitch": 45, "duration": 10, "velocity": 87}, {"time": 3067, "pitch": 60, "duration": 2, "velocity": 78}, {"time": 3067, "pitch": 57, "duration": 2, "velocity": 73}, {"time": 3067, "pitch": 64, "duration": 2, "velocity": 76}, {"time": 3073, "pitch": 69, "duration": 4, "velocity": 83}, {"time": 3073, "pitch": 60, "duration": 4, "velocity": 88}, {"time": 3074, "pitch": 64, "duration": 2, "velocity": 86}, {"time": 3074, "pitch": 57, "duration": 2, "velocity": 85}, {"time": 3074, "pitch": 52, "duration": 3, "velocity": 87}, {"time": 3074, "pitch": 45, "duration": 2, "velocity": 85}, {"time": 3076, "pitch": 45, "duration": 2, "velocity": 85}, {"time": 3080, "pitch": 57, "duration": 2, "velocity": 93}, {"time": 3085, "pitch": 38, "duration": 1, "velocity": 93}, {"time": 3085, "pitch": 57, "duration": 2, "velocity": 86}, {"time": 3085, "pitch": 62, "duration": 2, "velocity": 86}, {"time": 3091, "pitch": 50, "duration": 4, "velocity": 86}, {"time": 3094, "pitch": 66, "duration": 2, "velocity": 89}, {"time": 3094, "pitch": 62, "duration": 2, "velocity": 84}, {"time": 3097, "pitch": 50, "duration": 4, "velocity": 90}, {"time": 3097, "pitch": 57, "duration": 4, "velocity": 88}, {"time": 3100, "pitch": 66, "duration": 3, "velocity": 88}, {"time": 3100, "pitch": 69, "duration": 3, "velocity": 90}, {"time": 3100, "pitch": 62, "duration": 2, "velocity": 87}, {"time": 3103, "pitch": 50, "duration": 1, "velocity": 89}, {"time": 3109, "pitch": 43, "duration": 15, "velocity": 88}, {"time": 3109, "pitch": 67, "duration": 1, "velocity": 85}, {"time": 3109, "pitch": 62, "duration": 2, "velocity": 87}, {"time": 3115, "pitch": 59, "duration": 1, "velocity": 78}, {"time": 3115, "pitch": 62, "duration": 1, "velocity": 77}, {"time": 3115, "pitch": 55, "duration": 1, "velocity": 73}, {"time": 3121, "pitch": 59, "duration": 2, "velocity": 95}, {"time": 3121, "pitch": 55, "duration": 2, "velocity": 89}, {"time": 3121, "pitch": 62, "duration": 2, "velocity": 93}, {"time": 3127, "pitch": 43, "duration": 1, "velocity": 82}, {"time": 3127, "pitch": 59, "duration": 1, "velocity": 75}, {"time": 3127, "pitch": 55, "duration": 1, "velocity": 77}, {"time": 3127, "pitch": 62, "duration": 1, "velocity": 74}, {"time": 3133, "pitch": 66, "duration": 3, "velocity": 84}, {"time": 3133, "pitch": 38, "duration": 1, "velocity": 89}, {"time": 3133, "pitch": 57, "duration": 2, "velocity": 82}, {"time": 3133, "pitch": 62, "duration": 2, "velocity": 85}, {"time": 3139, "pitch": 50, "duration": 4, "velocity": 84}, {"time": 3139, "pitch": 69, "duration": 3, "velocity": 79}, {"time": 3139, "pitch": 66, "duration": 3, "velocity": 77}, {"time": 3139, "pitch": 62, "duration": 3, "velocity": 79}, {"time": 3145, "pitch": 66, "duration": 6, "velocity": 90}, {"time": 3145, "pitch": 62, "duration": 5, "velocity": 85}, {"time": 3145, "pitch": 69, "duration": 7, "velocity": 91}, {"time": 3145, "pitch": 50, "duration": 4, "velocity": 86}, {"time": 3145, "pitch": 57, "duration": 5, "velocity": 85}, {"time": 3151, "pitch": 50, "duration": 1, "velocity": 89}, {"time": 3157, "pitch": 40, "duration": 19, "velocity": 86}, {"time": 3157, "pitch": 59, "duration": 2, "velocity": 86}, {"time": 3157, "pitch": 64, "duration": 3, "velocity": 93}, {"time": 3157, "pitch": 67, "duration": 3, "velocity": 86}, {"time": 3160, "pitch": 47, "duration": 11, "velocity": 74}, {"time": 3163, "pitch": 59, "duration": 4, "velocity": 85}, {"time": 3166, "pitch": 64, "duration": 1, "velocity": 84}, {"time": 3169, "pitch": 64, "duration": 4, "velocity": 93}, {"time": 3169, "pitch": 67, "duration": 7, "velocity": 86}, {"time": 3169, "pitch": 59, "duration": 2, "velocity": 89}, {"time": 3176, "pitch": 59, "duration": 1, "velocity": 93}, {"time": 3181, "pitch": 38, "duration": 16, "velocity": 91}, {"time": 3181, "pitch": 66, "duration": 5, "velocity": 81}, {"time": 3182, "pitch": 62, "duration": 4, "velocity": 84}, {"time": 3184, "pitch": 45, "duration": 11, "velocity": 84}, {"time": 3187, "pitch": 57, "duration": 4, "velocity": 80}, {"time": 3190, "pitch": 62, "duration": 1, "velocity": 78}, {"time": 3193, "pitch": 66, "duration": 7, "velocity": 90}, {"time": 3193, "pitch": 62, "duration": 5, "velocity": 90}, {"time": 3193, "pitch": 57, "duration": 2, "velocity": 86}, {"time": 3196, "pitch": 45, "duration": 2, "velocity": 81}, {"time": 3199, "pitch": 38, "duration": 1, "velocity": 87}, {"time": 3199, "pitch": 57, "duration": 2, "velocity": 86}, {"time": 3205, "pitch": 48, "duration": 16, "velocity": 88}, {"time": 3205, "pitch": 60, "duration": 4, "velocity": 80}, {"time": 3205, "pitch": 64, "duration": 6, "velocity": 84}, {"time": 3208, "pitch": 55, "duration": 10, "velocity": 86}, {"time": 3211, "pitch": 60, "duration": 3, "velocity": 84}, {"time": 3213, "pitch": 64, "duration": 2, "velocity": 85}, {"time": 3217, "pitch": 67, "duration": 7, "velocity": 86}, {"time": 3217, "pitch": 60, "duration": 3, "velocity": 86}, {"time": 3217, "pitch": 64, "duration": 7, "velocity": 101}, {"time": 3220, "pitch": 55, "duration": 2, "velocity": 82}, {"time": 3223, "pitch": 48, "duration": 2, "velocity": 86}, {"time": 3224, "pitch": 60, "duration": 1, "velocity": 69}, {"time": 3229, "pitch": 59, "duration": 2, "velocity": 84}, {"time": 3229, "pitch": 66, "duration": 4, "velocity": 78}, {"time": 3229, "pitch": 62, "duration": 4, "velocity": 85}, {"time": 3229, "pitch": 47, "duration": 13, "velocity": 90}, {"time": 3232, "pitch": 59, "duration": 7, "velocity": 77}, {"time": 3235, "pitch": 62, "duration": 5, "velocity": 68}, {"time": 3238, "pitch": 66, "duration": 3, "velocity": 78}, {"time": 3241, "pitch": 62, "duration": 1, "velocity": 57}, {"time": 3241, "pitch": 71, "duration": 6, "velocity": 91}, {"time": 3244, "pitch": 66, "duration": 3, "velocity": 100}, {"time": 3247, "pitch": 62, "duration": 3, "velocity": 85}, {"time": 3249, "pitch": 59, "duration": 2, "velocity": 85}, {"time": 3253, "pitch": 60, "duration": 3, "velocity": 85}, {"time": 3253, "pitch": 57, "duration": 3, "velocity": 85}, {"time": 3253, "pitch": 45, "duration": 16, "velocity": 91}, {"time": 3255, "pitch": 52, "duration": 11, "velocity": 91}, {"time": 3259, "pitch": 57, "duration": 4, "velocity": 85}, {"time": 3262, "pitch": 60, "duration": 1, "velocity": 84}, {"time": 3262, "pitch": 64, "duration": 1, "velocity": 63}, {"time": 3265, "pitch": 60, "duration": 4, "velocity": 93}, {"time": 3265, "pitch": 69, "duration": 4, "velocity": 85}, {"time": 3265, "pitch": 64, "duration": 4, "velocity": 95}, {"time": 3265, "pitch": 57, "duration": 3, "velocity": 84}, {"time": 3268, "pitch": 52, "duration": 1, "velocity": 85}, {"time": 3271, "pitch": 45, "duration": 1, "velocity": 86}, {"time": 3275, "pitch": 62, "duration": 16, "velocity": 74}, {"time": 3276, "pitch": 66, "duration": 16, "velocity": 77}, {"time": 3277, "pitch": 69, "duration": 19, "velocity": 77}, {"time": 3277, "pitch": 38, "duration": 1, "velocity": 87}, {"time": 3277, "pitch": 74, "duration": 13, "velocity": 88}, {"time": 3283, "pitch": 50, "duration": 39, "velocity": 85}, {"time": 3289, "pitch": 57, "duration": 31, "velocity": 86}, {"time": 3295, "pitch": 62, "duration": 4, "velocity": 91}, {"time": 3300, "pitch": 54, "duration": 17, "velocity": 51}, {"time": 3302, "pitch": 62, "duration": 26, "velocity": 71}, {"time": 3303, "pitch": 66, "duration": 24, "velocity": 71}, {"time": 3304, "pitch": 69, "duration": 24, "velocity": 77}, {"time": 3306, "pitch": 74, "duration": 21, "velocity": 81}, {"time": 3347, "pitch": 55, "duration": 6, "velocity": 72}, {"time": 3348, "pitch": 43, "duration": 21, "velocity": 81}, {"time": 3348, "pitch": 59, "duration": 9, "velocity": 77}, {"time": 3349, "pitch": 62, "duration": 8, "velocity": 59}, {"time": 3350, "pitch": 67, "duration": 7, "velocity": 48}, {"time": 3367, "pitch": 55, "duration": 40, "velocity": 55}, {"time": 3373, "pitch": 59, "duration": 35, "velocity": 68}, {"time": 3373, "pitch": 62, "duration": 35, "velocity": 62}, {"time": 3408, "pitch": 71, "duration": 5, "velocity": 69}, {"time": 3409, "pitch": 43, "duration": 3, "velocity": 72}, {"time": 3409, "pitch": 74, "duration": 7, "velocity": 79}, {"time": 3411, "pitch": 83, "duration": 5, "velocity": 76}, {"time": 3418, "pitch": 55, "duration": 28, "velocity": 29}, {"time": 3422, "pitch": 62, "duration": 23, "velocity": 67}, {"time": 3427, "pitch": 67, "duration": 18, "velocity": 72}, {"time": 3434, "pitch": 74, "duration": 11, "velocity": 80}, {"time": 3456, "pitch": 55, "duration": 12, "velocity": 66}, {"time": 3456, "pitch": 60, "duration": 11, "velocity": 64}, {"time": 3456, "pitch": 45, "duration": 40, "velocity": 79}, {"time": 3459, "pitch": 64, "duration": 12, "velocity": 70}, {"time": 3463, "pitch": 52, "duration": 32, "velocity": 67}, {"time": 3470, "pitch": 60, "duration": 10, "velocity": 73}, {"time": 3476, "pitch": 55, "duration": 8, "velocity": 45}, {"time": 3482, "pitch": 60, "duration": 9, "velocity": 62}, {"time": 3488, "pitch": 55, "duration": 14, "velocity": 54}, {"time": 3495, "pitch": 60, "duration": 9, "velocity": 66}, {"time": 3509, "pitch": 38, "duration": 23, "velocity": 71}, {"time": 3514, "pitch": 45, "duration": 18, "velocity": 55}, {"time": 3518, "pitch": 62, "duration": 25, "velocity": 64}, {"time": 3522, "pitch": 66, "duration": 6, "velocity": 77}, {"time": 3527, "pitch": 69, "duration": 13, "velocity": 68}, {"time": 3538, "pitch": 43, "duration": 4, "velocity": 63}, {"time": 3539, "pitch": 71, "duration": 11, "velocity": 72}, {"time": 3545, "pitch": 55, "duration": 26, "velocity": 71}, {"time": 3549, "pitch": 62, "duration": 22, "velocity": 73}, {"time": 3551, "pitch": 69, "duration": 4, "velocity": 72}, {"time": 3554, "pitch": 71, "duration": 25, "velocity": 74}, {"time": 3558, "pitch": 74, "duration": 22, "velocity": 74}, {"time": 3563, "pitch": 67, "duration": 17, "velocity": 60}], "annotations": [{"time": 133, "annotation": {"number": 64, "value": 127}, "group": "control_change"}, {"time": 133, "annotation": {"number": 64, "value": 0}, "group": "control_change"}, {"time": 152, "annotation": {"number": 64, "value": 0}, "group": "control_change"}, {"time": 158, "annotation": {"number": 64, "value": 127}, "group": "control_change"}, {"time": 158, "annotation": {"number": 64, "value": 0}, "group": "control_change"}, {"time": 159, "annotation": {"number": 64, "value": 127}, "group": "control_change"}, {"time": 203, "annotation": {"number": 64, "value": 0}, "group": "control_change"}, {"time": 240, "annotation": {"number": 64, "value": 127}, "group": "control_change"}, {"time": 240, "annotation": {"number": 64, "value": 0}, "group": "control_change"}, {"time": 250, "annotation": {"number": 64, "value": 0}, "group": "control_change"}, {"time": 279, "annotation": {"number": 64, "value": 127}, "group": "control_change"}, {"time": 279, "annotation": {"number": 64, "value": 0}, "group": "control_change"}, {"time": 298, "annotation": {"number": 64, "value": 0}, "group": "control_change"}, {"time": 302, "annotation": {"number": 64, "value": 127}, "group": "control_change"}, {"time": 302, "annotation": {"number": 64, "value": 0}, "group": "control_change"}, {"time": 303, "annotation": {"number": 64, "value": 127}, "group": "control_change"}, {"time": 312, "annotation": {"number": 64, "value": 0}, "group": "control_change"}, {"time": 325, "annotation": {"number": 64, "value": 127}, "group": "control_change"}, {"time": 325, "annotation": {"number": 64, "value": 0}, "group": "control_change"}, {"time": 326, "annotation": {"number": 64, "value": 127}, "group": "control_change"}, {"time": 332, "annotation": {"number": 64, "value": 0}, "group": "control_change"}, {"time": 398, "annotation": {"number": 64, "value": 127}, "group": "control_change"}, {"time": 420, "annotation": {"number": 64, "value": 0}, "group": "control_change"}, {"time": 422, "annotation": {"number": 64, "value": 127}, "group": "control_change"}, {"time": 444, "annotation": {"number": 64, "value": 0}, "group": "control_change"}, {"time": 445, "annotation": {"number": 64, "value": 127}, "group": "control_change"}, {"time": 456, "annotation": {"number": 64, "value": 0}, "group": "control_change"}, {"time": 457, "annotation": {"number": 64, "value": 127}, "group": "control_change"}, {"time": 467, "annotation": {"number": 64, "value": 0}, "group": "control_change"}, {"time": 474, "annotation": {"number": 64, "value": 127}, "group": "control_change"}, {"time": 493, "annotation": {"number": 64, "value": 0}, "group": "control_change"}, {"time": 495, "annotation": {"number": 64, "value": 127}, "group": "control_change"}, {"time": 515, "annotation": {"number": 64, "value": 0}, "group": "control_change"}, {"time": 519, "annotation": {"number": 64, "value": 127}, "group": "control_change"}, {"time": 519, "annotation": {"number": 64, "value": 0}, "group": "control_change"}, {"time": 542, "annotation": {"number": 64, "value": 0}, "group": "control_change"}, {"time": 545, "annotation": {"number": 64, "value": 127}, "group": "control_change"}, {"time": 564, "annotation": {"number": 64, "value": 0}, "group": "control_change"}, {"time": 565, "annotation": {"number": 64, "value": 127}, "group": "control_change"}, {"time": 576, "annotation": {"number": 64, "value": 0}, "group": "control_change"}, {"time": 578, "annotation": {"number": 64, "value": 127}, "group": "control_change"}, {"time": 587, "annotation": {"number": 64, "value": 0}, "group": "control_change"}, {"time": 590, "annotation": {"number": 64, "value": 127}, "group": "control_change"}, {"time": 613, "annotation": {"number": 64, "value": 0}, "group": "control_change"}, {"time": 616, "annotation": {"number": 64, "value": 127}, "group": "control_change"}, {"time": 636, "annotation": {"number": 64, "value": 0}, "group": "control_change"}, {"time": 638, "annotation": {"number": 64, "value": 127}, "group": "control_change"}, {"time": 648, "annotation": {"number": 64, "value": 0}, "group": "control_change"}, {"time": 649, "annotation": {"number": 64, "value": 127}, "group": "control_change"}, {"time": 660, "annotation": {"number": 64, "value": 0}, "group": "control_change"}, {"time": 663, "annotation": {"number": 64, "value": 127}, "group": "control_change"}, {"time": 685, "annotation": {"number": 64, "value": 127}, "group": "control_change"}, {"time": 708, "annotation": {"number": 64, "value": 0}, "group": "control_change"}, {"time": 709, "annotation": {"number": 64, "value": 127}, "group": "control_change"}, {"time": 731, "annotation": {"number": 64, "value": 0}, "group": "control_change"}, {"time": 733, "annotation": {"number": 64, "value": 127}, "group": "control_change"}, {"time": 780, "annotation": {"number": 64, "value": 0}, "group": "control_change"}, {"time": 786, "annotation": {"number": 64, "value": 127}, "group": "control_change"}, {"time": 830, "annotation": {"number": 64, "value": 0}, "group": "control_change"}, {"time": 832, "annotation": {"number": 64, "value": 127}, "group": "control_change"}, {"time": 877, "annotation": {"number": 64, "value": 0}, "group": "control_change"}, {"time": 882, "annotation": {"number": 64, "value": 127}, "group": "control_change"}, {"time": 883, "annotation": {"number": 64, "value": 0}, "group": "control_change"}, {"time": 883, "annotation": {"number": 64, "value": 127}, "group": "control_change"}, {"time": 900, "annotation": {"number": 64, "value": 0}, "group": "control_change"}, {"time": 902, "annotation": {"number": 64, "value": 127}, "group": "control_change"}, {"time": 925, "annotation": {"number": 64, "value": 0}, "group": "control_change"}, {"time": 928, "annotation": {"number": 64, "value": 127}, "group": "control_change"}, {"time": 949, "annotation": {"number": 64, "value": 0}, "group": "control_change"}, {"time": 951, "annotation": {"number": 64, "value": 127}, "group": "control_change"}, {"time": 972, "annotation": {"number": 64, "value": 0}, "group": "control_change"}, {"time": 974, "annotation": {"number": 64, "value": 127}, "group": "control_change"}, {"time": 1020, "annotation": {"number": 64, "value": 0}, "group": "control_change"}, {"time": 1022, "annotation": {"number": 64, "value": 127}, "group": "control_change"}, {"time": 1044, "annotation": {"number": 64, "value": 0}, "group": "control_change"}, {"time": 1047, "annotation": {"number": 64, "value": 127}, "group": "control_change"}, {"time": 1069, "annotation": {"number": 64, "value": 0}, "group": "control_change"}, {"time": 1071, "annotation": {"number": 64, "value": 127}, "group": "control_change"}, {"time": 1116, "annotation": {"number": 64, "value": 0}, "group": "control_change"}, {"time": 1117, "annotation": {"number": 64, "value": 127}, "group": "control_change"}, {"time": 1165, "annotation": {"number": 64, "value": 0}, "group": "control_change"}, {"time": 1167, "annotation": {"number": 64, "value": 127}, "group": "control_change"}, {"time": 1167, "annotation": {"number": 64, "value": 0}, "group": "control_change"}, {"time": 1188, "annotation": {"number": 64, "value": 0}, "group": "control_change"}, {"time": 1191, "annotation": {"number": 64, "value": 127}, "group": "control_change"}, {"time": 1212, "annotation": {"number": 64, "value": 0}, "group": "control_change"}, {"time": 1214, "annotation": {"number": 64, "value": 127}, "group": "control_change"}, {"time": 1235, "annotation": {"number": 64, "value": 0}, "group": "control_change"}, {"time": 1237, "annotation": {"number": 64, "value": 127}, "group": "control_change"}, {"time": 1259, "annotation": {"number": 64, "value": 0}, "group": "control_change"}, {"time": 1261, "annotation": {"number": 64, "value": 127}, "group": "control_change"}, {"time": 1284, "annotation": {"number": 64, "value": 0}, "group": "control_change"}, {"time": 1286, "annotation": {"number": 64, "value": 127}, "group": "control_change"}, {"time": 1308, "annotation": {"number": 64, "value": 0}, "group": "control_change"}, {"time": 1310, "annotation": {"number": 64, "value": 127}, "group": "control_change"}, {"time": 1332, "annotation": {"number": 64, "value": 0}, "group": "control_change"}, {"time": 1334, "annotation": {"number": 64, "value": 127}, "group": "control_change"}, {"time": 1357, "annotation": {"number": 64, "value": 0}, "group": "control_change"}, {"time": 1359, "annotation": {"number": 64, "value": 127}, "group": "control_change"}, {"time": 1380, "annotation": {"number": 64, "value": 0}, "group": "control_change"}, {"time": 1382, "annotation": {"number": 64, "value": 127}, "group": "control_change"}, {"time": 1405, "annotation": {"number": 64, "value": 0}, "group": "control_change"}, {"time": 1406, "annotation": {"number": 64, "value": 127}, "group": "control_change"}, {"time": 1428, "annotation": {"number": 64, "value": 0}, "group": "control_change"}, {"time": 1429, "annotation": {"number": 64, "value": 127}, "group": "control_change"}, {"time": 1453, "annotation": {"number": 64, "value": 0}, "group": "control_change"}, {"time": 1454, "annotation": {"number": 64, "value": 127}, "group": "control_change"}, {"time": 1476, "annotation": {"number": 64, "value": 0}, "group": "control_change"}, {"time": 1478, "annotation": {"number": 64, "value": 127}, "group": "control_change"}, {"time": 1500, "annotation": {"number": 64, "value": 0}, "group": "control_change"}, {"time": 1502, "annotation": {"number": 64, "value": 127}, "group": "control_change"}, {"time": 1524, "annotation": {"number": 64, "value": 0}, "group": "control_change"}, {"time": 1525, "annotation": {"number": 64, "value": 127}, "group": "control_change"}, {"time": 1571, "annotation": {"number": 64, "value": 0}, "group": "control_change"}, {"time": 1574, "annotation": {"number": 64, "value": 127}, "group": "control_change"}, {"time": 1621, "annotation": {"number": 64, "value": 0}, "group": "control_change"}, {"time": 1626, "annotation": {"number": 64, "value": 127}, "group": "control_change"}, {"time": 1669, "annotation": {"number": 64, "value": 0}, "group": "control_change"}, {"time": 1673, "annotation": {"number": 64, "value": 127}, "group": "control_change"}, {"time": 1673, "annotation": {"number": 64, "value": 0}, "group": "control_change"}, {"time": 1716, "annotation": {"number": 64, "value": 0}, "group": "control_change"}, {"time": 1719, "annotation": {"number": 64, "value": 127}, "group": "control_change"}, {"time": 1764, "annotation": {"number": 64, "value": 0}, "group": "control_change"}, {"time": 1765, "annotation": {"number": 64, "value": 127}, "group": "control_change"}, {"time": 1812, "annotation": {"number": 64, "value": 0}, "group": "control_change"}, {"time": 1814, "annotation": {"number": 64, "value": 127}, "group": "control_change"}, {"time": 1836, "annotation": {"number": 64, "value": 0}, "group": "control_change"}, {"time": 1838, "annotation": {"number": 64, "value": 127}, "group": "control_change"}, {"time": 1862, "annotation": {"number": 64, "value": 0}, "group": "control_change"}, {"time": 1866, "annotation": {"number": 64, "value": 127}, "group": "control_change"}, {"time": 1909, "annotation": {"number": 64, "value": 0}, "group": "control_change"}, {"time": 1910, "annotation": {"number": 64, "value": 127}, "group": "control_change"}, {"time": 1955, "annotation": {"number": 64, "value": 0}, "group": "control_change"}, {"time": 1956, "annotation": {"number": 64, "value": 0}, "group": "control_change"}, {"time": 1962, "annotation": {"number": 64, "value": 127}, "group": "control_change"}, {"time": 2006, "annotation": {"number": 64, "value": 0}, "group": "control_change"}, {"time": 2008, "annotation": {"number": 64, "value": 127}, "group": "control_change"}, {"time": 2053, "annotation": {"number": 64, "value": 0}, "group": "control_change"}, {"time": 2058, "annotation": {"number": 64, "value": 127}, "group": "control_change"}, {"time": 2059, "annotation": {"number": 64, "value": 0}, "group": "control_change"}, {"time": 2059, "annotation": {"number": 64, "value": 127}, "group": "control_change"}, {"time": 2076, "annotation": {"number": 64, "value": 0}, "group": "control_change"}, {"time": 2078, "annotation": {"number": 64, "value": 127}, "group": "control_change"}, {"time": 2101, "annotation": {"number": 64, "value": 0}, "group": "control_change"}, {"time": 2104, "annotation": {"number": 64, "value": 127}, "group": "control_change"}, {"time": 2125, "annotation": {"number": 64, "value": 0}, "group": "control_change"}, {"time": 2127, "annotation": {"number": 64, "value": 127}, "group": "control_change"}, {"time": 2148, "annotation": {"number": 64, "value": 0}, "group": "control_change"}, {"time": 2150, "annotation": {"number": 64, "value": 127}, "group": "control_change"}, {"time": 2196, "annotation": {"number": 64, "value": 0}, "group": "control_change"}, {"time": 2198, "annotation": {"number": 64, "value": 127}, "group": "control_change"}, {"time": 2220, "annotation": {"number": 64, "value": 0}, "group": "control_change"}, {"time": 2223, "annotation": {"number": 64, "value": 127}, "group": "control_change"}, {"time": 2245, "annotation": {"number": 64, "value": 0}, "group": "control_change"}, {"time": 2247, "annotation": {"number": 64, "value": 127}, "group": "control_change"}, {"time": 2292, "annotation": {"number": 64, "value": 0}, "group": "control_change"}, {"time": 2293, "annotation": {"number": 64, "value": 127}, "group": "control_change"}, {"time": 2343, "annotation": {"number": 64, "value": 127}, "group": "control_change"}, {"time": 2343, "annotation": {"number": 64, "value": 0}, "group": "control_change"}, {"time": 2364, "annotation": {"number": 64, "value": 0}, "group": "control_change"}, {"time": 2367, "annotation": {"number": 64, "value": 127}, "group": "control_change"}, {"time": 2388, "annotation": {"number": 64, "value": 0}, "group": "control_change"}, {"time": 2390, "annotation": {"number": 64, "value": 127}, "group": "control_change"}, {"time": 2411, "annotation": {"number": 64, "value": 0}, "group": "control_change"}, {"time": 2413, "annotation": {"number": 64, "value": 127}, "group": "control_change"}, {"time": 2435, "annotation": {"number": 64, "value": 0}, "group": "control_change"}, {"time": 2437, "annotation": {"number": 64, "value": 127}, "group": "control_change"}, {"time": 2460, "annotation": {"number": 64, "value": 0}, "group": "control_change"}, {"time": 2462, "annotation": {"number": 64, "value": 127}, "group": "control_change"}, {"time": 2484, "annotation": {"number": 64, "value": 0}, "group": "control_change"}, {"time": 2486, "annotation": {"number": 64, "value": 127}, "group": "control_change"}, {"time": 2508, "annotation": {"number": 64, "value": 0}, "group": "control_change"}, {"time": 2510, "annotation": {"number": 64, "value": 127}, "group": "control_change"}, {"time": 2533, "annotation": {"number": 64, "value": 0}, "group": "control_change"}, {"time": 2535, "annotation": {"number": 64, "value": 127}, "group": "control_change"}, {"time": 2556, "annotation": {"number": 64, "value": 0}, "group": "control_change"}, {"time": 2558, "annotation": {"number": 64, "value": 127}, "group": "control_change"}, {"time": 2581, "annotation": {"number": 64, "value": 0}, "group": "control_change"}, {"time": 2582, "annotation": {"number": 64, "value": 127}, "group": "control_change"}, {"time": 2604, "annotation": {"number": 64, "value": 0}, "group": "control_change"}, {"time": 2605, "annotation": {"number": 64, "value": 127}, "group": "control_change"}, {"time": 2629, "annotation": {"number": 64, "value": 0}, "group": "control_change"}, {"time": 2630, "annotation": {"number": 64, "value": 127}, "group": "control_change"}, {"time": 2652, "annotation": {"number": 64, "value": 0}, "group": "control_change"}, {"time": 2654, "annotation": {"number": 64, "value": 127}, "group": "control_change"}, {"time": 2676, "annotation": {"number": 64, "value": 0}, "group": "control_change"}, {"time": 2679, "annotation": {"number": 64, "value": 127}, "group": "control_change"}, {"time": 2699, "annotation": {"number": 64, "value": 0}, "group": "control_change"}, {"time": 2701, "annotation": {"number": 64, "value": 127}, "group": "control_change"}, {"time": 2720, "annotation": {"number": 64, "value": 0}, "group": "control_change"}, {"time": 2732, "annotation": {"number": 64, "value": 127}, "group": "control_change"}, {"time": 2749, "annotation": {"number": 64, "value": 0}, "group": "control_change"}, {"time": 2752, "annotation": {"number": 64, "value": 127}, "group": "control_change"}, {"time": 2772, "annotation": {"number": 64, "value": 0}, "group": "control_change"}, {"time": 2775, "annotation": {"number": 64, "value": 127}, "group": "control_change"}, {"time": 2796, "annotation": {"number": 64, "value": 0}, "group": "control_change"}, {"time": 2798, "annotation": {"number": 64, "value": 127}, "group": "control_change"}, {"time": 2820, "annotation": {"number": 64, "value": 0}, "group": "control_change"}, {"time": 2822, "annotation": {"number": 64, "value": 127}, "group": "control_change"}, {"time": 2832, "annotation": {"number": 64, "value": 0}, "group": "control_change"}, {"time": 2833, "annotation": {"number": 64, "value": 127}, "group": "control_change"}, {"time": 2845, "annotation": {"number": 64, "value": 0}, "group": "control_change"}, {"time": 2847, "annotation": {"number": 64, "value": 127}, "group": "control_change"}, {"time": 2868, "annotation": {"number": 64, "value": 0}, "group": "control_change"}, {"time": 2870, "annotation": {"number": 64, "value": 127}, "group": "control_change"}, {"time": 2881, "annotation": {"number": 64, "value": 0}, "group": "control_change"}, {"time": 2882, "annotation": {"number": 64, "value": 127}, "group": "control_change"}, {"time": 2893, "annotation": {"number": 64, "value": 0}, "group": "control_change"}, {"time": 2894, "annotation": {"number": 64, "value": 127}, "group": "control_change"}, {"time": 2914, "annotation": {"number": 64, "value": 0}, "group": "control_change"}, {"time": 2918, "annotation": {"number": 64, "value": 0}, "group": "control_change"}, {"time": 2923, "annotation": {"number": 64, "value": 127}, "group": "control_change"}, {"time": 2941, "annotation": {"number": 64, "value": 0}, "group": "control_change"}, {"time": 2944, "annotation": {"number": 64, "value": 127}, "group": "control_change"}, {"time": 2964, "annotation": {"number": 64, "value": 0}, "group": "control_change"}, {"time": 2967, "annotation": {"number": 64, "value": 127}, "group": "control_change"}, {"time": 2990, "annotation": {"number": 64, "value": 0}, "group": "control_change"}, {"time": 2992, "annotation": {"number": 64, "value": 127}, "group": "control_change"}, {"time": 3012, "annotation": {"number": 64, "value": 0}, "group": "control_change"}, {"time": 3014, "annotation": {"number": 64, "value": 127}, "group": "control_change"}, {"time": 3036, "annotation": {"number": 64, "value": 0}, "group": "control_change"}, {"time": 3038, "annotation": {"number": 64, "value": 127}, "group": "control_change"}, {"time": 3062, "annotation": {"number": 64, "value": 127}, "group": "control_change"}, {"time": 3083, "annotation": {"number": 64, "value": 0}, "group": "control_change"}, {"time": 3085, "annotation": {"number": 64, "value": 127}, "group": "control_change"}, {"time": 3107, "annotation": {"number": 64, "value": 0}, "group": "control_change"}, {"time": 3109, "annotation": {"number": 64, "value": 127}, "group": "control_change"}, {"time": 3131, "annotation": {"number": 64, "value": 0}, "group": "control_change"}, {"time": 3133, "annotation": {"number": 64, "value": 127}, "group": "control_change"}, {"time": 3157, "annotation": {"number": 64, "value": 127}, "group": "control_change"}, {"time": 3180, "annotation": {"number": 64, "value": 0}, "group": "control_change"}, {"time": 3182, "annotation": {"number": 64, "value": 127}, "group": "control_change"}, {"time": 3204, "annotation": {"number": 64, "value": 0}, "group": "control_change"}, {"time": 3208, "annotation": {"number": 64, "value": 127}, "group": "control_change"}, {"time": 3228, "annotation": {"number": 64, "value": 0}, "group": "control_change"}, {"time": 3230, "annotation": {"number": 64, "value": 127}, "group": "control_change"}, {"time": 3252, "annotation": {"number": 64, "value": 0}, "group": "control_change"}, {"time": 3254, "annotation": {"number": 64, "value": 127}, "group": "control_change"}, {"time": 3276, "annotation": {"number": 64, "value": 127}, "group": "control_change"}, {"time": 3351, "annotation": {"number": 64, "value": 127}, "group": "control_change"}, {"time": 3406, "annotation": {"number": 64, "value": 0}, "group": "control_change"}, {"time": 3408, "annotation": {"number": 64, "value": 127}, "group": "control_change"}, {"time": 3408, "annotation": {"number": 64, "value": 0}, "group": "control_change"}, {"time": 3456, "annotation": {"number": 64, "value": 0}, "group": "control_change"}, {"time": 3458, "annotation": {"number": 64, "value": 127}, "group": "control_change"}, {"time": 3538, "annotation": {"number": 64, "value": 0}, "group": "control_change"}, {"time": 3539, "annotation": {"number": 64, "value": 127}, "group": "control_change"}]}]}