{"metadata": {"schema_version": "0.2", "title": "None", "source_filename": "658.mid", "source_format": "midi"}, "resolution": 12, "tempos": [{"time": 0, "qpm": 83.0000650167176}, {"time": 696, "qpm": 83.25008325008325}, {"time": 1008, "qpm": 82.75006033858567}, {"time": 1450, "qpm": 83.25008325008325}, {"time": 1930, "qpm": 82.75006033858567}, {"time": 2212, "qpm": 82.5000825000825}, {"time": 2268, "qpm": 83.0000650167176}, {"time": 3229, "qpm": 83.50010159179027}, {"time": 3333, "qpm": 82.75006033858567}, {"time": 3454, "qpm": 83.0000650167176}, {"time": 3577, "qpm": 83.50010159179027}, {"time": 3710, "qpm": 83.0000650167176}, {"time": 3814, "qpm": 82.5000825000825}], "time_signatures": [{"time": 0, "numerator": 1, "denominator": 4}], "tracks": [{"program": 0, "is_drum": false, "name": "MELODY", "notes": [{"time": 118, "pitch": 76, "duration": 10, "velocity": 89}, {"time": 130, "pitch": 76, "duration": 5, "velocity": 86}, {"time": 136, "pitch": 74, "duration": 4, "velocity": 86}, {"time": 142, "pitch": 74, "duration": 14, "velocity": 89}, {"time": 160, "pitch": 69, "duration": 4, "velocity": 86}, {"time": 166, "pitch": 72, "duration": 11, "velocity": 85}, {"time": 178, "pitch": 72, "duration": 4, "velocity": 85}, {"time": 184, "pitch": 74, "duration": 4, "velocity": 85}, {"time": 190, "pitch": 74, "duration": 10, "velocity": 88}, {"time": 202, "pitch": 72, "duration": 4, "velocity": 80}, {"time": 208, "pitch": 71, "duration": 4, "velocity": 84}, {"time": 214, "pitch": 69, "duration": 9, "velocity": 84}, {"time": 226, "pitch": 72, "duration": 11, "velocity": 85}, {"time": 238, "pitch": 74, "duration": 4, "velocity": 87}, {"time": 244, "pitch": 74, "duration": 4, "velocity": 87}, {"time": 250, "pitch": 72, "duration": 4, "velocity": 85}, {"time": 256, "pitch": 74, "duration": 4, "velocity": 87}, {"time": 262, "pitch": 76, "duration": 10, "velocity": 84}, {"time": 274, "pitch": 76, "duration": 4, "velocity": 84}, {"time": 280, "pitch": 74, "duration": 4, "velocity": 84}, {"time": 286, "pitch": 74, "duration": 19, "velocity": 89}, {"time": 310, "pitch": 76, "duration": 4, "velocity": 88}, {"time": 316, "pitch": 76, "duration": 4, "velocity": 87}, {"time": 322, "pitch": 76, "duration": 4, "velocity": 87}, {"time": 328, "pitch": 79, "duration": 4, "velocity": 79}, {"time": 334, "pitch": 79, "duration": 15, "velocity": 84}, {"time": 352, "pitch": 79, "duration": 5, "velocity": 83}, {"time": 358, "pitch": 81, "duration": 4, "velocity": 79}, {"time": 364, "pitch": 76, "duration": 4, "velocity": 82}, {"time": 370, "pitch": 76, "duration": 5, "velocity": 86}, {"time": 376, "pitch": 74, "duration": 4, "velocity": 85}, {"time": 382, "pitch": 76, "duration": 10, "velocity": 85}, {"time": 406, "pitch": 76, "duration": 16, "velocity": 97}, {"time": 424, "pitch": 79, "duration": 4, "velocity": 87}, {"time": 430, "pitch": 79, "duration": 3, "velocity": 85}, {"time": 436, "pitch": 79, "duration": 3, "velocity": 79}, {"time": 442, "pitch": 79, "duration": 4, "velocity": 85}, {"time": 448, "pitch": 81, "duration": 10, "velocity": 85}, {"time": 460, "pitch": 76, "duration": 24, "velocity": 89}, {"time": 490, "pitch": 76, "duration": 4, "velocity": 84}, {"time": 496, "pitch": 74, "duration": 4, "velocity": 87}, {"time": 502, "pitch": 72, "duration": 4, "velocity": 84}, {"time": 508, "pitch": 69, "duration": 4, "velocity": 87}, {"time": 514, "pitch": 72, "duration": 4, "velocity": 83}, {"time": 520, "pitch": 76, "duration": 4, "velocity": 85}, {"time": 526, "pitch": 74, "duration": 10, "velocity": 90}, {"time": 538, "pitch": 72, "duration": 4, "velocity": 84}, {"time": 544, "pitch": 74, "duration": 4, "velocity": 90}, {"time": 550, "pitch": 76, "duration": 11, "velocity": 85}, {"time": 562, "pitch": 79, "duration": 10, "velocity": 84}, {"time": 574, "pitch": 81, "duration": 9, "velocity": 84}, {"time": 586, "pitch": 76, "duration": 4, "velocity": 86}, {"time": 592, "pitch": 74, "duration": 4, "velocity": 85}, {"time": 598, "pitch": 72, "duration": 9, "velocity": 85}, {"time": 610, "pitch": 72, "duration": 4, "velocity": 84}, {"time": 616, "pitch": 76, "duration": 4, "velocity": 85}, {"time": 622, "pitch": 74, "duration": 10, "velocity": 89}, {"time": 634, "pitch": 72, "duration": 4, "velocity": 83}, {"time": 640, "pitch": 71, "duration": 5, "velocity": 84}, {"time": 646, "pitch": 69, "duration": 34, "velocity": 85}, {"time": 694, "pitch": 76, "duration": 10, "velocity": 89}, {"time": 706, "pitch": 76, "duration": 5, "velocity": 86}, {"time": 712, "pitch": 74, "duration": 4, "velocity": 86}, {"time": 718, "pitch": 74, "duration": 14, "velocity": 89}, {"time": 736, "pitch": 69, "duration": 4, "velocity": 86}, {"time": 742, "pitch": 72, "duration": 11, "velocity": 85}, {"time": 754, "pitch": 72, "duration": 4, "velocity": 85}, {"time": 760, "pitch": 74, "duration": 4, "velocity": 85}, {"time": 766, "pitch": 74, "duration": 10, "velocity": 88}, {"time": 778, "pitch": 72, "duration": 4, "velocity": 80}, {"time": 784, "pitch": 71, "duration": 4, "velocity": 84}, {"time": 790, "pitch": 69, "duration": 9, "velocity": 84}, {"time": 802, "pitch": 72, "duration": 11, "velocity": 85}, {"time": 814, "pitch": 74, "duration": 4, "velocity": 87}, {"time": 820, "pitch": 74, "duration": 4, "velocity": 87}, {"time": 826, "pitch": 72, "duration": 4, "velocity": 85}, {"time": 832, "pitch": 74, "duration": 4, "velocity": 87}, {"time": 838, "pitch": 76, "duration": 10, "velocity": 84}, {"time": 850, "pitch": 76, "duration": 4, "velocity": 84}, {"time": 856, "pitch": 74, "duration": 4, "velocity": 84}, {"time": 862, "pitch": 74, "duration": 19, "velocity": 89}, {"time": 886, "pitch": 76, "duration": 4, "velocity": 88}, {"time": 892, "pitch": 76, "duration": 4, "velocity": 87}, {"time": 898, "pitch": 76, "duration": 4, "velocity": 87}, {"time": 904, "pitch": 79, "duration": 4, "velocity": 79}, {"time": 910, "pitch": 79, "duration": 15, "velocity": 84}, {"time": 928, "pitch": 79, "duration": 5, "velocity": 83}, {"time": 934, "pitch": 81, "duration": 4, "velocity": 79}, {"time": 940, "pitch": 76, "duration": 4, "velocity": 82}, {"time": 946, "pitch": 76, "duration": 5, "velocity": 86}, {"time": 952, "pitch": 74, "duration": 4, "velocity": 85}, {"time": 958, "pitch": 76, "duration": 10, "velocity": 85}, {"time": 982, "pitch": 76, "duration": 4, "velocity": 87}, {"time": 988, "pitch": 76, "duration": 3, "velocity": 85}, {"time": 994, "pitch": 76, "duration": 3, "velocity": 79}, {"time": 1000, "pitch": 79, "duration": 4, "velocity": 87}, {"time": 1006, "pitch": 79, "duration": 3, "velocity": 85}, {"time": 1012, "pitch": 79, "duration": 3, "velocity": 79}, {"time": 1018, "pitch": 79, "duration": 4, "velocity": 85}, {"time": 1024, "pitch": 81, "duration": 10, "velocity": 85}, {"time": 1036, "pitch": 76, "duration": 24, "velocity": 89}, {"time": 1066, "pitch": 76, "duration": 4, "velocity": 84}, {"time": 1072, "pitch": 74, "duration": 4, "velocity": 87}, {"time": 1078, "pitch": 72, "duration": 4, "velocity": 84}, {"time": 1084, "pitch": 69, "duration": 4, "velocity": 87}, {"time": 1090, "pitch": 72, "duration": 4, "velocity": 83}, {"time": 1096, "pitch": 76, "duration": 4, "velocity": 85}, {"time": 1102, "pitch": 74, "duration": 10, "velocity": 90}, {"time": 1114, "pitch": 72, "duration": 4, "velocity": 84}, {"time": 1120, "pitch": 74, "duration": 4, "velocity": 90}, {"time": 1126, "pitch": 76, "duration": 11, "velocity": 85}, {"time": 1138, "pitch": 79, "duration": 10, "velocity": 84}, {"time": 1150, "pitch": 81, "duration": 9, "velocity": 84}, {"time": 1162, "pitch": 76, "duration": 4, "velocity": 86}, {"time": 1168, "pitch": 74, "duration": 4, "velocity": 85}, {"time": 1174, "pitch": 72, "duration": 9, "velocity": 85}, {"time": 1186, "pitch": 72, "duration": 4, "velocity": 84}, {"time": 1192, "pitch": 76, "duration": 4, "velocity": 85}, {"time": 1198, "pitch": 74, "duration": 10, "velocity": 89}, {"time": 1210, "pitch": 72, "duration": 4, "velocity": 83}, {"time": 1216, "pitch": 71, "duration": 5, "velocity": 84}, {"time": 1222, "pitch": 69, "duration": 34, "velocity": 85}, {"time": 1270, "pitch": 74, "duration": 20, "velocity": 99}, {"time": 1294, "pitch": 72, "duration": 14, "velocity": 85}, {"time": 1312, "pitch": 76, "duration": 5, "velocity": 88}, {"time": 1318, "pitch": 79, "duration": 5, "velocity": 87}, {"time": 1324, "pitch": 76, "duration": 33, "velocity": 90}, {"time": 1366, "pitch": 74, "duration": 24, "velocity": 86}, {"time": 1396, "pitch": 72, "duration": 4, "velocity": 83}, {"time": 1402, "pitch": 71, "duration": 6, "velocity": 85}, {"time": 1408, "pitch": 69, "duration": 4, "velocity": 83}, {"time": 1414, "pitch": 69, "duration": 37, "velocity": 85}, {"time": 1462, "pitch": 74, "duration": 12, "velocity": 99}, {"time": 1480, "pitch": 74, "duration": 5, "velocity": 85}, {"time": 1486, "pitch": 72, "duration": 10, "velocity": 87}, {"time": 1498, "pitch": 74, "duration": 10, "velocity": 87}, {"time": 1510, "pitch": 76, "duration": 10, "velocity": 90}, {"time": 1522, "pitch": 79, "duration": 10, "velocity": 86}, {"time": 1534, "pitch": 81, "duration": 12, "velocity": 85}, {"time": 1552, "pitch": 84, "duration": 3, "velocity": 87}, {"time": 1558, "pitch": 84, "duration": 22, "velocity": 89}, {"time": 1582, "pitch": 83, "duration": 16, "velocity": 84}, {"time": 1600, "pitch": 84, "duration": 5, "velocity": 88}, {"time": 1606, "pitch": 83, "duration": 5, "velocity": 86}, {"time": 1612, "pitch": 81, "duration": 30, "velocity": 83}, {"time": 1750, "pitch": 76, "duration": 10, "velocity": 89}, {"time": 1762, "pitch": 76, "duration": 5, "velocity": 86}, {"time": 1768, "pitch": 74, "duration": 4, "velocity": 86}, {"time": 1774, "pitch": 74, "duration": 14, "velocity": 89}, {"time": 1792, "pitch": 69, "duration": 4, "velocity": 86}, {"time": 1798, "pitch": 72, "duration": 11, "velocity": 85}, {"time": 1810, "pitch": 72, "duration": 4, "velocity": 85}, {"time": 1816, "pitch": 74, "duration": 4, "velocity": 85}, {"time": 1822, "pitch": 74, "duration": 10, "velocity": 88}, {"time": 1834, "pitch": 72, "duration": 4, "velocity": 80}, {"time": 1840, "pitch": 71, "duration": 4, "velocity": 84}, {"time": 1846, "pitch": 69, "duration": 9, "velocity": 84}, {"time": 1858, "pitch": 72, "duration": 11, "velocity": 85}, {"time": 1870, "pitch": 74, "duration": 4, "velocity": 87}, {"time": 1876, "pitch": 74, "duration": 4, "velocity": 87}, {"time": 1882, "pitch": 72, "duration": 4, "velocity": 85}, {"time": 1888, "pitch": 74, "duration": 4, "velocity": 87}, {"time": 1894, "pitch": 76, "duration": 10, "velocity": 84}, {"time": 1906, "pitch": 76, "duration": 4, "velocity": 84}, {"time": 1912, "pitch": 74, "duration": 4, "velocity": 84}, {"time": 1918, "pitch": 74, "duration": 19, "velocity": 89}, {"time": 1942, "pitch": 76, "duration": 4, "velocity": 88}, {"time": 1948, "pitch": 76, "duration": 4, "velocity": 87}, {"time": 1954, "pitch": 76, "duration": 4, "velocity": 87}, {"time": 1960, "pitch": 79, "duration": 4, "velocity": 79}, {"time": 1966, "pitch": 79, "duration": 15, "velocity": 84}, {"time": 1984, "pitch": 79, "duration": 5, "velocity": 83}, {"time": 1990, "pitch": 81, "duration": 4, "velocity": 79}, {"time": 1996, "pitch": 76, "duration": 4, "velocity": 82}, {"time": 2002, "pitch": 76, "duration": 5, "velocity": 86}, {"time": 2008, "pitch": 74, "duration": 4, "velocity": 85}, {"time": 2014, "pitch": 76, "duration": 10, "velocity": 85}, {"time": 2038, "pitch": 76, "duration": 4, "velocity": 87}, {"time": 2044, "pitch": 76, "duration": 3, "velocity": 85}, {"time": 2050, "pitch": 76, "duration": 3, "velocity": 79}, {"time": 2056, "pitch": 79, "duration": 4, "velocity": 87}, {"time": 2062, "pitch": 79, "duration": 3, "velocity": 85}, {"time": 2068, "pitch": 79, "duration": 3, "velocity": 79}, {"time": 2074, "pitch": 79, "duration": 4, "velocity": 85}, {"time": 2080, "pitch": 81, "duration": 10, "velocity": 85}, {"time": 2092, "pitch": 76, "duration": 24, "velocity": 89}, {"time": 2122, "pitch": 76, "duration": 4, "velocity": 84}, {"time": 2128, "pitch": 74, "duration": 4, "velocity": 87}, {"time": 2134, "pitch": 72, "duration": 4, "velocity": 84}, {"time": 2140, "pitch": 69, "duration": 4, "velocity": 87}, {"time": 2146, "pitch": 72, "duration": 4, "velocity": 83}, {"time": 2152, "pitch": 76, "duration": 4, "velocity": 85}, {"time": 2158, "pitch": 74, "duration": 10, "velocity": 90}, {"time": 2170, "pitch": 72, "duration": 4, "velocity": 84}, {"time": 2176, "pitch": 74, "duration": 4, "velocity": 90}, {"time": 2182, "pitch": 76, "duration": 11, "velocity": 85}, {"time": 2194, "pitch": 79, "duration": 10, "velocity": 84}, {"time": 2206, "pitch": 81, "duration": 9, "velocity": 84}, {"time": 2218, "pitch": 76, "duration": 4, "velocity": 86}, {"time": 2224, "pitch": 74, "duration": 4, "velocity": 85}, {"time": 2230, "pitch": 72, "duration": 9, "velocity": 85}, {"time": 2242, "pitch": 72, "duration": 4, "velocity": 84}, {"time": 2248, "pitch": 76, "duration": 4, "velocity": 85}, {"time": 2254, "pitch": 74, "duration": 10, "velocity": 89}, {"time": 2266, "pitch": 72, "duration": 4, "velocity": 83}, {"time": 2272, "pitch": 71, "duration": 5, "velocity": 84}, {"time": 2278, "pitch": 69, "duration": 34, "velocity": 85}, {"time": 2710, "pitch": 76, "duration": 10, "velocity": 89}, {"time": 2722, "pitch": 76, "duration": 5, "velocity": 86}, {"time": 2728, "pitch": 74, "duration": 4, "velocity": 86}, {"time": 2734, "pitch": 74, "duration": 14, "velocity": 89}, {"time": 2752, "pitch": 69, "duration": 4, "velocity": 86}, {"time": 2758, "pitch": 72, "duration": 11, "velocity": 85}, {"time": 2770, "pitch": 72, "duration": 4, "velocity": 85}, {"time": 2776, "pitch": 74, "duration": 4, "velocity": 85}, {"time": 2782, "pitch": 74, "duration": 10, "velocity": 88}, {"time": 2794, "pitch": 72, "duration": 4, "velocity": 80}, {"time": 2800, "pitch": 71, "duration": 4, "velocity": 84}, {"time": 2806, "pitch": 69, "duration": 9, "velocity": 84}, {"time": 2818, "pitch": 72, "duration": 11, "velocity": 85}, {"time": 2830, "pitch": 74, "duration": 4, "velocity": 87}, {"time": 2836, "pitch": 74, "duration": 4, "velocity": 87}, {"time": 2842, "pitch": 72, "duration": 4, "velocity": 85}, {"time": 2848, "pitch": 74, "duration": 4, "velocity": 87}, {"time": 2854, "pitch": 76, "duration": 10, "velocity": 84}, {"time": 2866, "pitch": 76, "duration": 4, "velocity": 84}, {"time": 2872, "pitch": 74, "duration": 4, "velocity": 84}, {"time": 2878, "pitch": 74, "duration": 19, "velocity": 89}, {"time": 2902, "pitch": 76, "duration": 4, "velocity": 88}, {"time": 2908, "pitch": 76, "duration": 4, "velocity": 87}, {"time": 2914, "pitch": 76, "duration": 4, "velocity": 87}, {"time": 2920, "pitch": 79, "duration": 4, "velocity": 79}, {"time": 2926, "pitch": 79, "duration": 15, "velocity": 84}, {"time": 2944, "pitch": 79, "duration": 5, "velocity": 83}, {"time": 2950, "pitch": 81, "duration": 4, "velocity": 79}, {"time": 2956, "pitch": 76, "duration": 4, "velocity": 82}, {"time": 2962, "pitch": 76, "duration": 5, "velocity": 86}, {"time": 2968, "pitch": 74, "duration": 4, "velocity": 85}, {"time": 2974, "pitch": 76, "duration": 10, "velocity": 85}, {"time": 2998, "pitch": 76, "duration": 16, "velocity": 97}, {"time": 3016, "pitch": 79, "duration": 4, "velocity": 87}, {"time": 3022, "pitch": 79, "duration": 3, "velocity": 85}, {"time": 3028, "pitch": 79, "duration": 3, "velocity": 79}, {"time": 3034, "pitch": 79, "duration": 4, "velocity": 85}, {"time": 3040, "pitch": 81, "duration": 10, "velocity": 85}, {"time": 3052, "pitch": 76, "duration": 24, "velocity": 89}, {"time": 3082, "pitch": 76, "duration": 4, "velocity": 84}, {"time": 3088, "pitch": 74, "duration": 4, "velocity": 87}, {"time": 3094, "pitch": 72, "duration": 4, "velocity": 84}, {"time": 3100, "pitch": 69, "duration": 4, "velocity": 87}, {"time": 3106, "pitch": 72, "duration": 4, "velocity": 83}, {"time": 3112, "pitch": 76, "duration": 4, "velocity": 85}, {"time": 3118, "pitch": 74, "duration": 10, "velocity": 90}, {"time": 3130, "pitch": 72, "duration": 4, "velocity": 84}, {"time": 3136, "pitch": 74, "duration": 4, "velocity": 90}, {"time": 3142, "pitch": 76, "duration": 11, "velocity": 85}, {"time": 3154, "pitch": 79, "duration": 10, "velocity": 84}, {"time": 3166, "pitch": 81, "duration": 9, "velocity": 84}, {"time": 3178, "pitch": 76, "duration": 4, "velocity": 86}, {"time": 3184, "pitch": 74, "duration": 4, "velocity": 85}, {"time": 3190, "pitch": 72, "duration": 9, "velocity": 85}, {"time": 3202, "pitch": 72, "duration": 4, "velocity": 84}, {"time": 3208, "pitch": 76, "duration": 4, "velocity": 85}, {"time": 3214, "pitch": 74, "duration": 10, "velocity": 89}, {"time": 3226, "pitch": 72, "duration": 4, "velocity": 83}, {"time": 3232, "pitch": 71, "duration": 5, "velocity": 84}, {"time": 3238, "pitch": 69, "duration": 34, "velocity": 85}, {"time": 3286, "pitch": 74, "duration": 20, "velocity": 99}, {"time": 3310, "pitch": 72, "duration": 14, "velocity": 85}, {"time": 3328, "pitch": 76, "duration": 5, "velocity": 88}, {"time": 3334, "pitch": 79, "duration": 5, "velocity": 87}, {"time": 3340, "pitch": 76, "duration": 33, "velocity": 90}, {"time": 3382, "pitch": 74, "duration": 24, "velocity": 86}, {"time": 3412, "pitch": 72, "duration": 4, "velocity": 83}, {"time": 3418, "pitch": 71, "duration": 6, "velocity": 85}, {"time": 3424, "pitch": 69, "duration": 4, "velocity": 83}, {"time": 3430, "pitch": 69, "duration": 37, "velocity": 85}, {"time": 3478, "pitch": 74, "duration": 12, "velocity": 99}, {"time": 3496, "pitch": 74, "duration": 5, "velocity": 85}, {"time": 3502, "pitch": 72, "duration": 10, "velocity": 87}, {"time": 3514, "pitch": 74, "duration": 10, "velocity": 87}, {"time": 3526, "pitch": 76, "duration": 10, "velocity": 90}, {"time": 3538, "pitch": 79, "duration": 10, "velocity": 86}, {"time": 3550, "pitch": 81, "duration": 12, "velocity": 85}, {"time": 3568, "pitch": 84, "duration": 3, "velocity": 87}, {"time": 3574, "pitch": 84, "duration": 22, "velocity": 89}, {"time": 3598, "pitch": 83, "duration": 16, "velocity": 84}, {"time": 3616, "pitch": 84, "duration": 5, "velocity": 88}, {"time": 3622, "pitch": 83, "duration": 5, "velocity": 86}, {"time": 3628, "pitch": 81, "duration": 30, "velocity": 83}, {"time": 3670, "pitch": 74, "duration": 12, "velocity": 99}, {"time": 3688, "pitch": 74, "duration": 5, "velocity": 85}, {"time": 3694, "pitch": 72, "duration": 10, "velocity": 87}, {"time": 3706, "pitch": 74, "duration": 10, "velocity": 87}, {"time": 3718, "pitch": 76, "duration": 10, "velocity": 90}, {"time": 3730, "pitch": 79, "duration": 10, "velocity": 86}, {"time": 3742, "pitch": 81, "duration": 12, "velocity": 85}, {"time": 3760, "pitch": 84, "duration": 3, "velocity": 87}, {"time": 3766, "pitch": 84, "duration": 22, "velocity": 89}, {"time": 3790, "pitch": 83, "duration": 16, "velocity": 84}, {"time": 3808, "pitch": 84, "duration": 5, "velocity": 88}, {"time": 3814, "pitch": 83, "duration": 5, "velocity": 86}, {"time": 3820, "pitch": 81, "duration": 30, "velocity": 83}]}, {"program": 0, "is_drum": false, "name": "PIANO", "notes": [{"time": 22, "pitch": 48, "duration": 39, "velocity": 83}, {"time": 28, "pitch": 55, "duration": 33, "velocity": 69}, {"time": 34, "pitch": 62, "duration": 7, "velocity": 69}, {"time": 40, "pitch": 64, "duration": 18, "velocity": 76}, {"time": 46, "pitch": 60, "duration": 13, "velocity": 67}, {"time": 46, "pitch": 67, "duration": 13, "velocity": 66}, {"time": 70, "pitch": 48, "duration": 45, "velocity": 84}, {"time": 76, "pitch": 55, "duration": 39, "velocity": 64}, {"time": 82, "pitch": 62, "duration": 7, "velocity": 73}, {"time": 88, "pitch": 64, "duration": 4, "velocity": 79}, {"time": 94, "pitch": 60, "duration": 16, "velocity": 76}, {"time": 94, "pitch": 67, "duration": 14, "velocity": 79}, {"time": 118, "pitch": 48, "duration": 19, "velocity": 90}, {"time": 124, "pitch": 55, "duration": 18, "velocity": 71}, {"time": 130, "pitch": 62, "duration": 7, "velocity": 76}, {"time": 136, "pitch": 64, "duration": 8, "velocity": 78}, {"time": 142, "pitch": 47, "duration": 17, "velocity": 82}, {"time": 142, "pitch": 62, "duration": 14, "velocity": 75}, {"time": 148, "pitch": 55, "duration": 11, "velocity": 76}, {"time": 154, "pitch": 59, "duration": 5, "velocity": 78}, {"time": 166, "pitch": 45, "duration": 20, "velocity": 80}, {"time": 166, "pitch": 57, "duration": 14, "velocity": 72}, {"time": 166, "pitch": 60, "duration": 16, "velocity": 74}, {"time": 172, "pitch": 52, "duration": 16, "velocity": 63}, {"time": 178, "pitch": 64, "duration": 12, "velocity": 76}, {"time": 190, "pitch": 43, "duration": 19, "velocity": 79}, {"time": 190, "pitch": 55, "duration": 7, "velocity": 72}, {"time": 190, "pitch": 59, "duration": 16, "velocity": 76}, {"time": 196, "pitch": 52, "duration": 13, "velocity": 73}, {"time": 202, "pitch": 55, "duration": 6, "velocity": 85}, {"time": 214, "pitch": 41, "duration": 17, "velocity": 79}, {"time": 214, "pitch": 53, "duration": 12, "velocity": 72}, {"time": 214, "pitch": 57, "duration": 14, "velocity": 73}, {"time": 220, "pitch": 48, "duration": 13, "velocity": 62}, {"time": 226, "pitch": 60, "duration": 5, "velocity": 77}, {"time": 238, "pitch": 43, "duration": 17, "velocity": 81}, {"time": 238, "pitch": 55, "duration": 8, "velocity": 74}, {"time": 238, "pitch": 62, "duration": 12, "velocity": 77}, {"time": 244, "pitch": 50, "duration": 10, "velocity": 75}, {"time": 250, "pitch": 55, "duration": 7, "velocity": 78}, {"time": 262, "pitch": 48, "duration": 21, "velocity": 77}, {"time": 262, "pitch": 55, "duration": 7, "velocity": 76}, {"time": 262, "pitch": 64, "duration": 13, "velocity": 81}, {"time": 268, "pitch": 52, "duration": 15, "velocity": 73}, {"time": 274, "pitch": 55, "duration": 7, "velocity": 84}, {"time": 280, "pitch": 64, "duration": 7, "velocity": 83}, {"time": 286, "pitch": 43, "duration": 19, "velocity": 74}, {"time": 286, "pitch": 62, "duration": 17, "velocity": 78}, {"time": 292, "pitch": 50, "duration": 14, "velocity": 70}, {"time": 298, "pitch": 55, "duration": 5, "velocity": 84}, {"time": 310, "pitch": 48, "duration": 17, "velocity": 83}, {"time": 310, "pitch": 55, "duration": 4, "velocity": 78}, {"time": 310, "pitch": 64, "duration": 11, "velocity": 83}, {"time": 322, "pitch": 55, "duration": 2, "velocity": 77}, {"time": 322, "pitch": 60, "duration": 9, "velocity": 78}, {"time": 328, "pitch": 55, "duration": 12, "velocity": 78}, {"time": 334, "pitch": 43, "duration": 18, "velocity": 77}, {"time": 334, "pitch": 62, "duration": 10, "velocity": 80}, {"time": 340, "pitch": 50, "duration": 11, "velocity": 68}, {"time": 346, "pitch": 55, "duration": 3, "velocity": 75}, {"time": 346, "pitch": 59, "duration": 7, "velocity": 80}, {"time": 352, "pitch": 55, "duration": 2, "velocity": 70}, {"time": 358, "pitch": 45, "duration": 19, "velocity": 79}, {"time": 358, "pitch": 60, "duration": 12, "velocity": 80}, {"time": 364, "pitch": 52, "duration": 13, "velocity": 72}, {"time": 370, "pitch": 57, "duration": 7, "velocity": 80}, {"time": 376, "pitch": 60, "duration": 7, "velocity": 78}, {"time": 382, "pitch": 40, "duration": 15, "velocity": 77}, {"time": 382, "pitch": 55, "duration": 7, "velocity": 78}, {"time": 382, "pitch": 59, "duration": 12, "velocity": 83}, {"time": 388, "pitch": 47, "duration": 10, "velocity": 72}, {"time": 394, "pitch": 55, "duration": 3, "velocity": 82}, {"time": 406, "pitch": 48, "duration": 23, "velocity": 79}, {"time": 406, "pitch": 55, "duration": 8, "velocity": 77}, {"time": 406, "pitch": 60, "duration": 9, "velocity": 71}, {"time": 412, "pitch": 52, "duration": 14, "velocity": 71}, {"time": 418, "pitch": 55, "duration": 10, "velocity": 86}, {"time": 424, "pitch": 60, "duration": 3, "velocity": 85}, {"time": 430, "pitch": 43, "duration": 15, "velocity": 76}, {"time": 430, "pitch": 55, "duration": 7, "velocity": 79}, {"time": 430, "pitch": 59, "duration": 13, "velocity": 78}, {"time": 436, "pitch": 50, "duration": 10, "velocity": 60}, {"time": 442, "pitch": 55, "duration": 3, "velocity": 85}, {"time": 454, "pitch": 45, "duration": 22, "velocity": 82}, {"time": 454, "pitch": 57, "duration": 18, "velocity": 73}, {"time": 454, "pitch": 60, "duration": 16, "velocity": 77}, {"time": 466, "pitch": 52, "duration": 10, "velocity": 76}, {"time": 472, "pitch": 62, "duration": 3, "velocity": 79}, {"time": 478, "pitch": 45, "duration": 16, "velocity": 83}, {"time": 478, "pitch": 57, "duration": 6, "velocity": 73}, {"time": 478, "pitch": 64, "duration": 11, "velocity": 83}, {"time": 484, "pitch": 52, "duration": 9, "velocity": 69}, {"time": 490, "pitch": 57, "duration": 3, "velocity": 76}, {"time": 490, "pitch": 60, "duration": 3, "velocity": 80}, {"time": 502, "pitch": 41, "duration": 21, "velocity": 83}, {"time": 502, "pitch": 53, "duration": 7, "velocity": 74}, {"time": 502, "pitch": 57, "duration": 13, "velocity": 76}, {"time": 508, "pitch": 48, "duration": 15, "velocity": 64}, {"time": 514, "pitch": 53, "duration": 5, "velocity": 82}, {"time": 526, "pitch": 43, "duration": 21, "velocity": 81}, {"time": 526, "pitch": 55, "duration": 13, "velocity": 78}, {"time": 532, "pitch": 50, "duration": 13, "velocity": 74}, {"time": 538, "pitch": 59, "duration": 7, "velocity": 84}, {"time": 544, "pitch": 55, "duration": 6, "velocity": 83}, {"time": 550, "pitch": 48, "duration": 11, "velocity": 81}, {"time": 550, "pitch": 60, "duration": 8, "velocity": 85}, {"time": 556, "pitch": 55, "duration": 4, "velocity": 84}, {"time": 562, "pitch": 47, "duration": 10, "velocity": 77}, {"time": 562, "pitch": 55, "duration": 3, "velocity": 80}, {"time": 562, "pitch": 59, "duration": 11, "velocity": 79}, {"time": 568, "pitch": 55, "duration": 3, "velocity": 82}, {"time": 574, "pitch": 45, "duration": 14, "velocity": 76}, {"time": 574, "pitch": 57, "duration": 13, "velocity": 77}, {"time": 574, "pitch": 60, "duration": 8, "velocity": 78}, {"time": 580, "pitch": 52, "duration": 10, "velocity": 77}, {"time": 586, "pitch": 60, "duration": 11, "velocity": 75}, {"time": 586, "pitch": 64, "duration": 13, "velocity": 84}, {"time": 592, "pitch": 43, "duration": 3, "velocity": 81}, {"time": 598, "pitch": 41, "duration": 17, "velocity": 83}, {"time": 598, "pitch": 53, "duration": 12, "velocity": 73}, {"time": 598, "pitch": 57, "duration": 13, "velocity": 78}, {"time": 604, "pitch": 48, "duration": 11, "velocity": 74}, {"time": 610, "pitch": 60, "duration": 4, "velocity": 78}, {"time": 622, "pitch": 41, "duration": 18, "velocity": 77}, {"time": 622, "pitch": 53, "duration": 11, "velocity": 74}, {"time": 622, "pitch": 56, "duration": 11, "velocity": 74}, {"time": 634, "pitch": 56, "duration": 5, "velocity": 76}, {"time": 634, "pitch": 60, "duration": 7, "velocity": 83}, {"time": 646, "pitch": 45, "duration": 48, "velocity": 83}, {"time": 646, "pitch": 57, "duration": 8, "velocity": 73}, {"time": 646, "pitch": 60, "duration": 13, "velocity": 75}, {"time": 652, "pitch": 52, "duration": 42, "velocity": 72}, {"time": 658, "pitch": 57, "duration": 6, "velocity": 83}, {"time": 664, "pitch": 59, "duration": 5, "velocity": 79}, {"time": 670, "pitch": 60, "duration": 23, "velocity": 83}, {"time": 694, "pitch": 48, "duration": 19, "velocity": 79}, {"time": 694, "pitch": 55, "duration": 4, "velocity": 79}, {"time": 694, "pitch": 64, "duration": 11, "velocity": 84}, {"time": 706, "pitch": 55, "duration": 2, "velocity": 79}, {"time": 706, "pitch": 60, "duration": 6, "velocity": 81}, {"time": 712, "pitch": 55, "duration": 2, "velocity": 77}, {"time": 718, "pitch": 43, "duration": 18, "velocity": 82}, {"time": 718, "pitch": 55, "duration": 7, "velocity": 76}, {"time": 718, "pitch": 62, "duration": 7, "velocity": 79}, {"time": 724, "pitch": 50, "duration": 12, "velocity": 65}, {"time": 730, "pitch": 55, "duration": 3, "velocity": 83}, {"time": 730, "pitch": 59, "duration": 4, "velocity": 78}, {"time": 742, "pitch": 45, "duration": 14, "velocity": 84}, {"time": 742, "pitch": 57, "duration": 8, "velocity": 75}, {"time": 742, "pitch": 60, "duration": 7, "velocity": 79}, {"time": 748, "pitch": 52, "duration": 7, "velocity": 75}, {"time": 754, "pitch": 57, "duration": 2, "velocity": 82}, {"time": 754, "pitch": 60, "duration": 4, "velocity": 84}, {"time": 754, "pitch": 64, "duration": 6, "velocity": 84}, {"time": 760, "pitch": 57, "duration": 2, "velocity": 86}, {"time": 766, "pitch": 40, "duration": 14, "velocity": 85}, {"time": 766, "pitch": 52, "duration": 12, "velocity": 82}, {"time": 766, "pitch": 55, "duration": 7, "velocity": 79}, {"time": 772, "pitch": 47, "duration": 7, "velocity": 70}, {"time": 778, "pitch": 55, "duration": 2, "velocity": 75}, {"time": 778, "pitch": 59, "duration": 2, "velocity": 79}, {"time": 790, "pitch": 41, "duration": 17, "velocity": 83}, {"time": 790, "pitch": 53, "duration": 8, "velocity": 74}, {"time": 790, "pitch": 57, "duration": 13, "velocity": 73}, {"time": 796, "pitch": 48, "duration": 13, "velocity": 75}, {"time": 802, "pitch": 53, "duration": 3, "velocity": 87}, {"time": 814, "pitch": 43, "duration": 22, "velocity": 83}, {"time": 814, "pitch": 55, "duration": 7, "velocity": 75}, {"time": 814, "pitch": 59, "duration": 13, "velocity": 77}, {"time": 820, "pitch": 50, "duration": 14, "velocity": 75}, {"time": 826, "pitch": 55, "duration": 7, "velocity": 87}, {"time": 832, "pitch": 59, "duration": 6, "velocity": 89}, {"time": 838, "pitch": 48, "duration": 19, "velocity": 83}, {"time": 838, "pitch": 60, "duration": 8, "velocity": 82}, {"time": 844, "pitch": 52, "duration": 16, "velocity": 71}, {"time": 850, "pitch": 55, "duration": 2, "velocity": 78}, {"time": 850, "pitch": 60, "duration": 7, "velocity": 79}, {"time": 850, "pitch": 64, "duration": 11, "velocity": 84}, {"time": 856, "pitch": 55, "duration": 7, "velocity": 77}, {"time": 862, "pitch": 43, "duration": 23, "velocity": 81}, {"time": 862, "pitch": 62, "duration": 9, "velocity": 83}, {"time": 868, "pitch": 50, "duration": 16, "velocity": 70}, {"time": 874, "pitch": 55, "duration": 3, "velocity": 79}, {"time": 874, "pitch": 59, "duration": 11, "velocity": 79}, {"time": 880, "pitch": 55, "duration": 4, "velocity": 79}, {"time": 886, "pitch": 48, "duration": 17, "velocity": 83}, {"time": 886, "pitch": 55, "duration": 4, "velocity": 78}, {"time": 886, "pitch": 64, "duration": 11, "velocity": 83}, {"time": 898, "pitch": 55, "duration": 2, "velocity": 77}, {"time": 898, "pitch": 60, "duration": 9, "velocity": 78}, {"time": 904, "pitch": 55, "duration": 12, "velocity": 78}, {"time": 910, "pitch": 43, "duration": 18, "velocity": 77}, {"time": 910, "pitch": 62, "duration": 10, "velocity": 80}, {"time": 916, "pitch": 50, "duration": 11, "velocity": 68}, {"time": 922, "pitch": 55, "duration": 3, "velocity": 75}, {"time": 922, "pitch": 59, "duration": 7, "velocity": 80}, {"time": 928, "pitch": 55, "duration": 2, "velocity": 70}, {"time": 934, "pitch": 45, "duration": 19, "velocity": 79}, {"time": 934, "pitch": 60, "duration": 12, "velocity": 80}, {"time": 940, "pitch": 52, "duration": 13, "velocity": 72}, {"time": 946, "pitch": 57, "duration": 7, "velocity": 80}, {"time": 952, "pitch": 60, "duration": 7, "velocity": 78}, {"time": 958, "pitch": 40, "duration": 15, "velocity": 77}, {"time": 958, "pitch": 55, "duration": 7, "velocity": 78}, {"time": 958, "pitch": 59, "duration": 12, "velocity": 83}, {"time": 964, "pitch": 47, "duration": 10, "velocity": 72}, {"time": 970, "pitch": 55, "duration": 3, "velocity": 82}, {"time": 982, "pitch": 48, "duration": 23, "velocity": 79}, {"time": 982, "pitch": 55, "duration": 8, "velocity": 77}, {"time": 982, "pitch": 60, "duration": 9, "velocity": 71}, {"time": 988, "pitch": 52, "duration": 14, "velocity": 71}, {"time": 994, "pitch": 55, "duration": 10, "velocity": 86}, {"time": 1000, "pitch": 60, "duration": 3, "velocity": 85}, {"time": 1006, "pitch": 43, "duration": 15, "velocity": 76}, {"time": 1006, "pitch": 55, "duration": 7, "velocity": 79}, {"time": 1006, "pitch": 59, "duration": 13, "velocity": 78}, {"time": 1012, "pitch": 50, "duration": 10, "velocity": 60}, {"time": 1018, "pitch": 55, "duration": 3, "velocity": 85}, {"time": 1030, "pitch": 45, "duration": 22, "velocity": 82}, {"time": 1030, "pitch": 57, "duration": 18, "velocity": 73}, {"time": 1030, "pitch": 60, "duration": 16, "velocity": 77}, {"time": 1042, "pitch": 52, "duration": 10, "velocity": 76}, {"time": 1048, "pitch": 62, "duration": 3, "velocity": 79}, {"time": 1054, "pitch": 45, "duration": 16, "velocity": 83}, {"time": 1054, "pitch": 57, "duration": 6, "velocity": 73}, {"time": 1054, "pitch": 64, "duration": 11, "velocity": 83}, {"time": 1060, "pitch": 52, "duration": 9, "velocity": 69}, {"time": 1066, "pitch": 57, "duration": 3, "velocity": 76}, {"time": 1066, "pitch": 60, "duration": 3, "velocity": 80}, {"time": 1078, "pitch": 41, "duration": 21, "velocity": 83}, {"time": 1078, "pitch": 53, "duration": 7, "velocity": 74}, {"time": 1078, "pitch": 57, "duration": 13, "velocity": 76}, {"time": 1084, "pitch": 48, "duration": 15, "velocity": 64}, {"time": 1090, "pitch": 53, "duration": 5, "velocity": 82}, {"time": 1102, "pitch": 43, "duration": 21, "velocity": 81}, {"time": 1102, "pitch": 55, "duration": 13, "velocity": 78}, {"time": 1108, "pitch": 50, "duration": 13, "velocity": 74}, {"time": 1114, "pitch": 59, "duration": 7, "velocity": 84}, {"time": 1120, "pitch": 55, "duration": 6, "velocity": 83}, {"time": 1126, "pitch": 48, "duration": 11, "velocity": 81}, {"time": 1126, "pitch": 60, "duration": 8, "velocity": 85}, {"time": 1132, "pitch": 55, "duration": 4, "velocity": 84}, {"time": 1138, "pitch": 47, "duration": 10, "velocity": 77}, {"time": 1138, "pitch": 55, "duration": 3, "velocity": 80}, {"time": 1138, "pitch": 59, "duration": 11, "velocity": 79}, {"time": 1144, "pitch": 55, "duration": 3, "velocity": 82}, {"time": 1150, "pitch": 45, "duration": 14, "velocity": 76}, {"time": 1150, "pitch": 57, "duration": 13, "velocity": 77}, {"time": 1150, "pitch": 60, "duration": 8, "velocity": 78}, {"time": 1156, "pitch": 52, "duration": 10, "velocity": 77}, {"time": 1162, "pitch": 60, "duration": 11, "velocity": 75}, {"time": 1162, "pitch": 64, "duration": 13, "velocity": 84}, {"time": 1168, "pitch": 43, "duration": 3, "velocity": 81}, {"time": 1174, "pitch": 41, "duration": 17, "velocity": 83}, {"time": 1174, "pitch": 53, "duration": 12, "velocity": 73}, {"time": 1174, "pitch": 57, "duration": 13, "velocity": 78}, {"time": 1180, "pitch": 48, "duration": 11, "velocity": 74}, {"time": 1186, "pitch": 60, "duration": 4, "velocity": 78}, {"time": 1198, "pitch": 41, "duration": 18, "velocity": 77}, {"time": 1198, "pitch": 53, "duration": 11, "velocity": 74}, {"time": 1198, "pitch": 56, "duration": 11, "velocity": 74}, {"time": 1210, "pitch": 56, "duration": 5, "velocity": 76}, {"time": 1210, "pitch": 60, "duration": 7, "velocity": 83}, {"time": 1222, "pitch": 45, "duration": 48, "velocity": 83}, {"time": 1222, "pitch": 57, "duration": 8, "velocity": 73}, {"time": 1222, "pitch": 60, "duration": 13, "velocity": 75}, {"time": 1228, "pitch": 52, "duration": 42, "velocity": 72}, {"time": 1234, "pitch": 57, "duration": 6, "velocity": 83}, {"time": 1240, "pitch": 59, "duration": 5, "velocity": 79}, {"time": 1246, "pitch": 60, "duration": 23, "velocity": 83}, {"time": 1270, "pitch": 41, "duration": 38, "velocity": 77}, {"time": 1270, "pitch": 53, "duration": 7, "velocity": 79}, {"time": 1270, "pitch": 57, "duration": 12, "velocity": 77}, {"time": 1276, "pitch": 48, "duration": 33, "velocity": 73}, {"time": 1282, "pitch": 53, "duration": 11, "velocity": 87}, {"time": 1288, "pitch": 57, "duration": 5, "velocity": 85}, {"time": 1294, "pitch": 53, "duration": 1, "velocity": 43}, {"time": 1294, "pitch": 57, "duration": 1, "velocity": 61}, {"time": 1294, "pitch": 60, "duration": 7, "velocity": 80}, {"time": 1300, "pitch": 53, "duration": 3, "velocity": 74}, {"time": 1306, "pitch": 53, "duration": 3, "velocity": 84}, {"time": 1306, "pitch": 57, "duration": 3, "velocity": 84}, {"time": 1306, "pitch": 60, "duration": 3, "velocity": 83}, {"time": 1312, "pitch": 41, "duration": 2, "velocity": 84}, {"time": 1318, "pitch": 36, "duration": 2, "velocity": 81}, {"time": 1318, "pitch": 55, "duration": 5, "velocity": 79}, {"time": 1318, "pitch": 64, "duration": 11, "velocity": 84}, {"time": 1324, "pitch": 48, "duration": 33, "velocity": 83}, {"time": 1324, "pitch": 55, "duration": 6, "velocity": 72}, {"time": 1330, "pitch": 60, "duration": 4, "velocity": 78}, {"time": 1336, "pitch": 55, "duration": 3, "velocity": 67}, {"time": 1342, "pitch": 55, "duration": 2, "velocity": 84}, {"time": 1342, "pitch": 64, "duration": 7, "velocity": 84}, {"time": 1348, "pitch": 55, "duration": 4, "velocity": 76}, {"time": 1354, "pitch": 55, "duration": 3, "velocity": 81}, {"time": 1354, "pitch": 60, "duration": 6, "velocity": 83}, {"time": 1360, "pitch": 59, "duration": 2, "velocity": 99}, {"time": 1366, "pitch": 41, "duration": 22, "velocity": 83}, {"time": 1366, "pitch": 53, "duration": 8, "velocity": 79}, {"time": 1366, "pitch": 60, "duration": 9, "velocity": 80}, {"time": 1372, "pitch": 48, "duration": 9, "velocity": 73}, {"time": 1378, "pitch": 53, "duration": 3, "velocity": 79}, {"time": 1378, "pitch": 57, "duration": 6, "velocity": 75}, {"time": 1384, "pitch": 48, "duration": 4, "velocity": 76}, {"time": 1390, "pitch": 40, "duration": 15, "velocity": 83}, {"time": 1390, "pitch": 52, "duration": 9, "velocity": 77}, {"time": 1396, "pitch": 47, "duration": 8, "velocity": 79}, {"time": 1402, "pitch": 52, "duration": 3, "velocity": 87}, {"time": 1402, "pitch": 56, "duration": 6, "velocity": 80}, {"time": 1408, "pitch": 52, "duration": 5, "velocity": 90}, {"time": 1414, "pitch": 45, "duration": 40, "velocity": 83}, {"time": 1414, "pitch": 57, "duration": 8, "velocity": 83}, {"time": 1420, "pitch": 52, "duration": 8, "velocity": 71}, {"time": 1426, "pitch": 60, "duration": 5, "velocity": 83}, {"time": 1432, "pitch": 52, "duration": 8, "velocity": 74}, {"time": 1438, "pitch": 57, "duration": 5, "velocity": 81}, {"time": 1438, "pitch": 60, "duration": 5, "velocity": 89}, {"time": 1438, "pitch": 64, "duration": 6, "velocity": 87}, {"time": 1444, "pitch": 52, "duration": 8, "velocity": 75}, {"time": 1450, "pitch": 57, "duration": 2, "velocity": 77}, {"time": 1450, "pitch": 60, "duration": 5, "velocity": 85}, {"time": 1462, "pitch": 41, "duration": 39, "velocity": 84}, {"time": 1462, "pitch": 53, "duration": 9, "velocity": 80}, {"time": 1462, "pitch": 60, "duration": 8, "velocity": 80}, {"time": 1468, "pitch": 48, "duration": 32, "velocity": 71}, {"time": 1474, "pitch": 56, "duration": 3, "velocity": 74}, {"time": 1474, "pitch": 60, "duration": 3, "velocity": 84}, {"time": 1480, "pitch": 53, "duration": 3, "velocity": 75}, {"time": 1486, "pitch": 53, "duration": 3, "velocity": 77}, {"time": 1486, "pitch": 60, "duration": 5, "velocity": 83}, {"time": 1498, "pitch": 53, "duration": 1, "velocity": 77}, {"time": 1498, "pitch": 56, "duration": 4, "velocity": 83}, {"time": 1498, "pitch": 60, "duration": 5, "velocity": 83}, {"time": 1504, "pitch": 53, "duration": 2, "velocity": 83}, {"time": 1510, "pitch": 48, "duration": 9, "velocity": 84}, {"time": 1510, "pitch": 55, "duration": 3, "velocity": 82}, {"time": 1510, "pitch": 60, "duration": 9, "velocity": 83}, {"time": 1516, "pitch": 55, "duration": 3, "velocity": 80}, {"time": 1522, "pitch": 47, "duration": 8, "velocity": 92}, {"time": 1522, "pitch": 55, "duration": 3, "velocity": 82}, {"time": 1522, "pitch": 59, "duration": 9, "velocity": 83}, {"time": 1528, "pitch": 55, "duration": 2, "velocity": 85}, {"time": 1534, "pitch": 45, "duration": 16, "velocity": 81}, {"time": 1534, "pitch": 57, "duration": 8, "velocity": 77}, {"time": 1534, "pitch": 60, "duration": 7, "velocity": 84}, {"time": 1540, "pitch": 52, "duration": 9, "velocity": 76}, {"time": 1546, "pitch": 57, "duration": 3, "velocity": 80}, {"time": 1546, "pitch": 60, "duration": 4, "velocity": 83}, {"time": 1546, "pitch": 64, "duration": 4, "velocity": 84}, {"time": 1558, "pitch": 38, "duration": 15, "velocity": 85}, {"time": 1558, "pitch": 57, "duration": 6, "velocity": 77}, {"time": 1558, "pitch": 65, "duration": 7, "velocity": 84}, {"time": 1564, "pitch": 45, "duration": 8, "velocity": 57}, {"time": 1570, "pitch": 57, "duration": 5, "velocity": 82}, {"time": 1576, "pitch": 62, "duration": 3, "velocity": 86}, {"time": 1582, "pitch": 50, "duration": 16, "velocity": 83}, {"time": 1582, "pitch": 57, "duration": 3, "velocity": 77}, {"time": 1582, "pitch": 65, "duration": 7, "velocity": 83}, {"time": 1594, "pitch": 57, "duration": 2, "velocity": 79}, {"time": 1594, "pitch": 62, "duration": 4, "velocity": 84}, {"time": 1606, "pitch": 45, "duration": 42, "velocity": 85}, {"time": 1606, "pitch": 57, "duration": 9, "velocity": 76}, {"time": 1606, "pitch": 60, "duration": 9, "velocity": 83}, {"time": 1612, "pitch": 52, "duration": 34, "velocity": 75}, {"time": 1618, "pitch": 64, "duration": 6, "velocity": 82}, {"time": 1624, "pitch": 57, "duration": 3, "velocity": 76}, {"time": 1630, "pitch": 60, "duration": 8, "velocity": 78}, {"time": 1630, "pitch": 64, "duration": 8, "velocity": 84}, {"time": 1642, "pitch": 57, "duration": 2, "velocity": 75}, {"time": 1642, "pitch": 60, "duration": 12, "velocity": 77}, {"time": 1648, "pitch": 57, "duration": 6, "velocity": 79}, {"time": 1654, "pitch": 45, "duration": 44, "velocity": 84}, {"time": 1660, "pitch": 52, "duration": 36, "velocity": 70}, {"time": 1666, "pitch": 59, "duration": 7, "velocity": 77}, {"time": 1672, "pitch": 60, "duration": 3, "velocity": 79}, {"time": 1678, "pitch": 64, "duration": 4, "velocity": 83}, {"time": 1684, "pitch": 57, "duration": 4, "velocity": 67}, {"time": 1690, "pitch": 57, "duration": 5, "velocity": 71}, {"time": 1690, "pitch": 60, "duration": 5, "velocity": 71}, {"time": 1702, "pitch": 48, "duration": 44, "velocity": 79}, {"time": 1702, "pitch": 60, "duration": 8, "velocity": 79}, {"time": 1708, "pitch": 55, "duration": 7, "velocity": 72}, {"time": 1714, "pitch": 62, "duration": 6, "velocity": 67}, {"time": 1720, "pitch": 64, "duration": 9, "velocity": 84}, {"time": 1726, "pitch": 55, "duration": 5, "velocity": 77}, {"time": 1732, "pitch": 60, "duration": 3, "velocity": 71}, {"time": 1738, "pitch": 64, "duration": 2, "velocity": 84}, {"time": 1750, "pitch": 48, "duration": 19, "velocity": 79}, {"time": 1750, "pitch": 55, "duration": 4, "velocity": 79}, {"time": 1750, "pitch": 64, "duration": 11, "velocity": 84}, {"time": 1762, "pitch": 55, "duration": 2, "velocity": 79}, {"time": 1762, "pitch": 60, "duration": 6, "velocity": 81}, {"time": 1768, "pitch": 55, "duration": 2, "velocity": 77}, {"time": 1774, "pitch": 43, "duration": 18, "velocity": 82}, {"time": 1774, "pitch": 55, "duration": 7, "velocity": 76}, {"time": 1774, "pitch": 62, "duration": 7, "velocity": 79}, {"time": 1780, "pitch": 50, "duration": 12, "velocity": 65}, {"time": 1786, "pitch": 55, "duration": 3, "velocity": 83}, {"time": 1786, "pitch": 59, "duration": 4, "velocity": 78}, {"time": 1798, "pitch": 45, "duration": 14, "velocity": 84}, {"time": 1798, "pitch": 57, "duration": 8, "velocity": 75}, {"time": 1798, "pitch": 60, "duration": 7, "velocity": 79}, {"time": 1804, "pitch": 52, "duration": 7, "velocity": 75}, {"time": 1810, "pitch": 57, "duration": 2, "velocity": 82}, {"time": 1810, "pitch": 60, "duration": 4, "velocity": 84}, {"time": 1810, "pitch": 64, "duration": 6, "velocity": 84}, {"time": 1816, "pitch": 57, "duration": 2, "velocity": 86}, {"time": 1822, "pitch": 40, "duration": 14, "velocity": 85}, {"time": 1822, "pitch": 52, "duration": 12, "velocity": 82}, {"time": 1822, "pitch": 55, "duration": 7, "velocity": 79}, {"time": 1828, "pitch": 47, "duration": 7, "velocity": 70}, {"time": 1834, "pitch": 55, "duration": 2, "velocity": 75}, {"time": 1834, "pitch": 59, "duration": 2, "velocity": 79}, {"time": 1846, "pitch": 41, "duration": 17, "velocity": 83}, {"time": 1846, "pitch": 53, "duration": 8, "velocity": 74}, {"time": 1846, "pitch": 57, "duration": 13, "velocity": 73}, {"time": 1852, "pitch": 48, "duration": 13, "velocity": 75}, {"time": 1858, "pitch": 53, "duration": 3, "velocity": 87}, {"time": 1870, "pitch": 43, "duration": 22, "velocity": 83}, {"time": 1870, "pitch": 55, "duration": 7, "velocity": 75}, {"time": 1870, "pitch": 59, "duration": 13, "velocity": 77}, {"time": 1876, "pitch": 50, "duration": 14, "velocity": 75}, {"time": 1882, "pitch": 55, "duration": 7, "velocity": 87}, {"time": 1888, "pitch": 59, "duration": 6, "velocity": 89}, {"time": 1894, "pitch": 48, "duration": 19, "velocity": 83}, {"time": 1894, "pitch": 60, "duration": 8, "velocity": 82}, {"time": 1900, "pitch": 52, "duration": 16, "velocity": 71}, {"time": 1906, "pitch": 55, "duration": 2, "velocity": 78}, {"time": 1906, "pitch": 60, "duration": 7, "velocity": 79}, {"time": 1906, "pitch": 64, "duration": 11, "velocity": 84}, {"time": 1912, "pitch": 55, "duration": 7, "velocity": 77}, {"time": 1918, "pitch": 43, "duration": 23, "velocity": 81}, {"time": 1918, "pitch": 62, "duration": 9, "velocity": 83}, {"time": 1924, "pitch": 50, "duration": 16, "velocity": 70}, {"time": 1930, "pitch": 55, "duration": 3, "velocity": 79}, {"time": 1930, "pitch": 59, "duration": 11, "velocity": 79}, {"time": 1936, "pitch": 55, "duration": 4, "velocity": 79}, {"time": 1942, "pitch": 48, "duration": 17, "velocity": 83}, {"time": 1942, "pitch": 55, "duration": 4, "velocity": 78}, {"time": 1942, "pitch": 64, "duration": 11, "velocity": 83}, {"time": 1954, "pitch": 55, "duration": 2, "velocity": 77}, {"time": 1954, "pitch": 60, "duration": 9, "velocity": 78}, {"time": 1960, "pitch": 55, "duration": 12, "velocity": 78}, {"time": 1966, "pitch": 43, "duration": 18, "velocity": 77}, {"time": 1966, "pitch": 62, "duration": 10, "velocity": 80}, {"time": 1972, "pitch": 50, "duration": 11, "velocity": 68}, {"time": 1978, "pitch": 55, "duration": 3, "velocity": 75}, {"time": 1978, "pitch": 59, "duration": 7, "velocity": 80}, {"time": 1984, "pitch": 55, "duration": 2, "velocity": 70}, {"time": 1990, "pitch": 45, "duration": 19, "velocity": 79}, {"time": 1990, "pitch": 60, "duration": 12, "velocity": 80}, {"time": 1996, "pitch": 52, "duration": 13, "velocity": 72}, {"time": 2002, "pitch": 57, "duration": 7, "velocity": 80}, {"time": 2008, "pitch": 60, "duration": 7, "velocity": 78}, {"time": 2014, "pitch": 40, "duration": 15, "velocity": 77}, {"time": 2014, "pitch": 55, "duration": 7, "velocity": 78}, {"time": 2014, "pitch": 59, "duration": 12, "velocity": 83}, {"time": 2020, "pitch": 47, "duration": 10, "velocity": 72}, {"time": 2026, "pitch": 55, "duration": 3, "velocity": 82}, {"time": 2038, "pitch": 48, "duration": 23, "velocity": 79}, {"time": 2038, "pitch": 55, "duration": 8, "velocity": 77}, {"time": 2038, "pitch": 60, "duration": 9, "velocity": 71}, {"time": 2044, "pitch": 52, "duration": 14, "velocity": 71}, {"time": 2050, "pitch": 55, "duration": 10, "velocity": 86}, {"time": 2056, "pitch": 60, "duration": 3, "velocity": 85}, {"time": 2062, "pitch": 43, "duration": 15, "velocity": 76}, {"time": 2062, "pitch": 55, "duration": 7, "velocity": 79}, {"time": 2062, "pitch": 59, "duration": 13, "velocity": 78}, {"time": 2068, "pitch": 50, "duration": 10, "velocity": 60}, {"time": 2074, "pitch": 55, "duration": 3, "velocity": 85}, {"time": 2086, "pitch": 45, "duration": 22, "velocity": 82}, {"time": 2086, "pitch": 57, "duration": 18, "velocity": 73}, {"time": 2086, "pitch": 60, "duration": 16, "velocity": 77}, {"time": 2098, "pitch": 52, "duration": 10, "velocity": 76}, {"time": 2104, "pitch": 62, "duration": 3, "velocity": 79}, {"time": 2110, "pitch": 45, "duration": 16, "velocity": 83}, {"time": 2110, "pitch": 57, "duration": 6, "velocity": 73}, {"time": 2110, "pitch": 64, "duration": 11, "velocity": 83}, {"time": 2116, "pitch": 52, "duration": 9, "velocity": 69}, {"time": 2122, "pitch": 57, "duration": 3, "velocity": 76}, {"time": 2122, "pitch": 60, "duration": 3, "velocity": 80}, {"time": 2134, "pitch": 41, "duration": 21, "velocity": 83}, {"time": 2134, "pitch": 53, "duration": 7, "velocity": 74}, {"time": 2134, "pitch": 57, "duration": 13, "velocity": 76}, {"time": 2140, "pitch": 48, "duration": 15, "velocity": 64}, {"time": 2146, "pitch": 53, "duration": 5, "velocity": 82}, {"time": 2158, "pitch": 43, "duration": 21, "velocity": 81}, {"time": 2158, "pitch": 55, "duration": 13, "velocity": 78}, {"time": 2164, "pitch": 50, "duration": 13, "velocity": 74}, {"time": 2170, "pitch": 59, "duration": 7, "velocity": 84}, {"time": 2176, "pitch": 55, "duration": 6, "velocity": 83}, {"time": 2182, "pitch": 48, "duration": 11, "velocity": 81}, {"time": 2182, "pitch": 60, "duration": 8, "velocity": 85}, {"time": 2188, "pitch": 55, "duration": 4, "velocity": 84}, {"time": 2194, "pitch": 47, "duration": 10, "velocity": 77}, {"time": 2194, "pitch": 55, "duration": 3, "velocity": 80}, {"time": 2194, "pitch": 59, "duration": 11, "velocity": 79}, {"time": 2200, "pitch": 55, "duration": 3, "velocity": 82}, {"time": 2206, "pitch": 45, "duration": 14, "velocity": 76}, {"time": 2206, "pitch": 57, "duration": 13, "velocity": 77}, {"time": 2206, "pitch": 60, "duration": 8, "velocity": 78}, {"time": 2212, "pitch": 52, "duration": 10, "velocity": 77}, {"time": 2218, "pitch": 60, "duration": 11, "velocity": 75}, {"time": 2218, "pitch": 64, "duration": 13, "velocity": 84}, {"time": 2224, "pitch": 43, "duration": 3, "velocity": 81}, {"time": 2230, "pitch": 41, "duration": 17, "velocity": 83}, {"time": 2230, "pitch": 53, "duration": 12, "velocity": 73}, {"time": 2230, "pitch": 57, "duration": 13, "velocity": 78}, {"time": 2236, "pitch": 48, "duration": 11, "velocity": 74}, {"time": 2242, "pitch": 60, "duration": 4, "velocity": 78}, {"time": 2254, "pitch": 41, "duration": 18, "velocity": 77}, {"time": 2254, "pitch": 53, "duration": 11, "velocity": 74}, {"time": 2254, "pitch": 56, "duration": 11, "velocity": 74}, {"time": 2266, "pitch": 56, "duration": 5, "velocity": 76}, {"time": 2266, "pitch": 60, "duration": 7, "velocity": 83}, {"time": 2278, "pitch": 45, "duration": 48, "velocity": 83}, {"time": 2278, "pitch": 57, "duration": 8, "velocity": 73}, {"time": 2278, "pitch": 60, "duration": 13, "velocity": 75}, {"time": 2284, "pitch": 52, "duration": 42, "velocity": 72}, {"time": 2290, "pitch": 57, "duration": 6, "velocity": 83}, {"time": 2296, "pitch": 59, "duration": 5, "velocity": 79}, {"time": 2302, "pitch": 60, "duration": 23, "velocity": 83}, {"time": 2326, "pitch": 48, "duration": 15, "velocity": 84}, {"time": 2326, "pitch": 55, "duration": 4, "velocity": 80}, {"time": 2326, "pitch": 64, "duration": 12, "velocity": 83}, {"time": 2332, "pitch": 55, "duration": 8, "velocity": 75}, {"time": 2338, "pitch": 60, "duration": 6, "velocity": 85}, {"time": 2344, "pitch": 55, "duration": 3, "velocity": 73}, {"time": 2350, "pitch": 43, "duration": 20, "velocity": 83}, {"time": 2350, "pitch": 55, "duration": 9, "velocity": 79}, {"time": 2350, "pitch": 62, "duration": 12, "velocity": 74}, {"time": 2356, "pitch": 50, "duration": 13, "velocity": 68}, {"time": 2362, "pitch": 59, "duration": 7, "velocity": 76}, {"time": 2374, "pitch": 45, "duration": 18, "velocity": 83}, {"time": 2374, "pitch": 57, "duration": 9, "velocity": 77}, {"time": 2374, "pitch": 60, "duration": 13, "velocity": 77}, {"time": 2380, "pitch": 52, "duration": 11, "velocity": 74}, {"time": 2386, "pitch": 57, "duration": 9, "velocity": 85}, {"time": 2398, "pitch": 40, "duration": 16, "velocity": 85}, {"time": 2398, "pitch": 59, "duration": 12, "velocity": 83}, {"time": 2404, "pitch": 47, "duration": 11, "velocity": 69}, {"time": 2410, "pitch": 55, "duration": 6, "velocity": 87}, {"time": 2416, "pitch": 59, "duration": 5, "velocity": 86}, {"time": 2422, "pitch": 48, "duration": 18, "velocity": 87}, {"time": 2422, "pitch": 55, "duration": 4, "velocity": 78}, {"time": 2422, "pitch": 64, "duration": 12, "velocity": 83}, {"time": 2428, "pitch": 55, "duration": 7, "velocity": 84}, {"time": 2434, "pitch": 60, "duration": 6, "velocity": 84}, {"time": 2440, "pitch": 55, "duration": 5, "velocity": 73}, {"time": 2446, "pitch": 43, "duration": 21, "velocity": 83}, {"time": 2446, "pitch": 55, "duration": 6, "velocity": 77}, {"time": 2446, "pitch": 62, "duration": 13, "velocity": 78}, {"time": 2452, "pitch": 50, "duration": 16, "velocity": 71}, {"time": 2458, "pitch": 55, "duration": 7, "velocity": 85}, {"time": 2464, "pitch": 59, "duration": 4, "velocity": 87}, {"time": 2470, "pitch": 45, "duration": 41, "velocity": 81}, {"time": 2470, "pitch": 57, "duration": 7, "velocity": 76}, {"time": 2470, "pitch": 60, "duration": 8, "velocity": 78}, {"time": 2476, "pitch": 52, "duration": 34, "velocity": 73}, {"time": 2482, "pitch": 59, "duration": 5, "velocity": 83}, {"time": 2488, "pitch": 60, "duration": 2, "velocity": 84}, {"time": 2494, "pitch": 57, "duration": 2, "velocity": 73}, {"time": 2494, "pitch": 64, "duration": 3, "velocity": 86}, {"time": 2500, "pitch": 57, "duration": 2, "velocity": 74}, {"time": 2506, "pitch": 57, "duration": 4, "velocity": 84}, {"time": 2506, "pitch": 60, "duration": 3, "velocity": 85}, {"time": 2512, "pitch": 59, "duration": 3, "velocity": 89}, {"time": 2518, "pitch": 41, "duration": 20, "velocity": 85}, {"time": 2518, "pitch": 53, "duration": 9, "velocity": 79}, {"time": 2518, "pitch": 57, "duration": 9, "velocity": 76}, {"time": 2524, "pitch": 48, "duration": 14, "velocity": 72}, {"time": 2530, "pitch": 53, "duration": 2, "velocity": 84}, {"time": 2530, "pitch": 60, "duration": 7, "velocity": 83}, {"time": 2536, "pitch": 53, "duration": 3, "velocity": 84}, {"time": 2542, "pitch": 43, "duration": 20, "velocity": 83}, {"time": 2542, "pitch": 55, "duration": 13, "velocity": 80}, {"time": 2542, "pitch": 59, "duration": 7, "velocity": 73}, {"time": 2548, "pitch": 50, "duration": 13, "velocity": 76}, {"time": 2554, "pitch": 62, "duration": 8, "velocity": 84}, {"time": 2566, "pitch": 48, "duration": 13, "velocity": 78}, {"time": 2566, "pitch": 64, "duration": 7, "velocity": 84}, {"time": 2572, "pitch": 55, "duration": 7, "velocity": 94}, {"time": 2578, "pitch": 47, "duration": 11, "velocity": 84}, {"time": 2578, "pitch": 62, "duration": 9, "velocity": 84}, {"time": 2584, "pitch": 55, "duration": 3, "velocity": 90}, {"time": 2590, "pitch": 45, "duration": 15, "velocity": 78}, {"time": 2590, "pitch": 60, "duration": 13, "velocity": 81}, {"time": 2596, "pitch": 52, "duration": 9, "velocity": 83}, {"time": 2602, "pitch": 57, "duration": 3, "velocity": 84}, {"time": 2614, "pitch": 41, "duration": 15, "velocity": 83}, {"time": 2614, "pitch": 53, "duration": 8, "velocity": 80}, {"time": 2614, "pitch": 60, "duration": 13, "velocity": 79}, {"time": 2620, "pitch": 48, "duration": 8, "velocity": 70}, {"time": 2626, "pitch": 57, "duration": 3, "velocity": 83}, {"time": 2638, "pitch": 41, "duration": 20, "velocity": 83}, {"time": 2638, "pitch": 53, "duration": 5, "velocity": 76}, {"time": 2638, "pitch": 60, "duration": 6, "velocity": 79}, {"time": 2644, "pitch": 48, "duration": 15, "velocity": 76}, {"time": 2650, "pitch": 60, "duration": 10, "velocity": 82}, {"time": 2650, "pitch": 65, "duration": 11, "velocity": 81}, {"time": 2662, "pitch": 45, "duration": 44, "velocity": 82}, {"time": 2662, "pitch": 57, "duration": 9, "velocity": 74}, {"time": 2662, "pitch": 64, "duration": 12, "velocity": 83}, {"time": 2668, "pitch": 52, "duration": 9, "velocity": 70}, {"time": 2674, "pitch": 60, "duration": 7, "velocity": 76}, {"time": 2680, "pitch": 52, "duration": 26, "velocity": 78}, {"time": 2686, "pitch": 57, "duration": 23, "velocity": 71}, {"time": 2686, "pitch": 60, "duration": 23, "velocity": 76}, {"time": 2710, "pitch": 48, "duration": 19, "velocity": 79}, {"time": 2710, "pitch": 55, "duration": 4, "velocity": 79}, {"time": 2710, "pitch": 64, "duration": 11, "velocity": 84}, {"time": 2722, "pitch": 55, "duration": 2, "velocity": 79}, {"time": 2722, "pitch": 60, "duration": 6, "velocity": 81}, {"time": 2728, "pitch": 55, "duration": 2, "velocity": 77}, {"time": 2734, "pitch": 43, "duration": 18, "velocity": 82}, {"time": 2734, "pitch": 55, "duration": 7, "velocity": 76}, {"time": 2734, "pitch": 62, "duration": 7, "velocity": 79}, {"time": 2740, "pitch": 50, "duration": 12, "velocity": 65}, {"time": 2746, "pitch": 55, "duration": 3, "velocity": 83}, {"time": 2746, "pitch": 59, "duration": 4, "velocity": 78}, {"time": 2758, "pitch": 45, "duration": 14, "velocity": 84}, {"time": 2758, "pitch": 57, "duration": 8, "velocity": 75}, {"time": 2758, "pitch": 60, "duration": 7, "velocity": 79}, {"time": 2764, "pitch": 52, "duration": 7, "velocity": 75}, {"time": 2770, "pitch": 57, "duration": 2, "velocity": 82}, {"time": 2770, "pitch": 60, "duration": 4, "velocity": 84}, {"time": 2770, "pitch": 64, "duration": 6, "velocity": 84}, {"time": 2776, "pitch": 57, "duration": 2, "velocity": 86}, {"time": 2782, "pitch": 40, "duration": 14, "velocity": 85}, {"time": 2782, "pitch": 52, "duration": 12, "velocity": 82}, {"time": 2782, "pitch": 55, "duration": 7, "velocity": 79}, {"time": 2788, "pitch": 47, "duration": 7, "velocity": 70}, {"time": 2794, "pitch": 55, "duration": 2, "velocity": 75}, {"time": 2794, "pitch": 59, "duration": 2, "velocity": 79}, {"time": 2806, "pitch": 41, "duration": 17, "velocity": 83}, {"time": 2806, "pitch": 53, "duration": 8, "velocity": 74}, {"time": 2806, "pitch": 57, "duration": 13, "velocity": 73}, {"time": 2812, "pitch": 48, "duration": 13, "velocity": 75}, {"time": 2818, "pitch": 53, "duration": 3, "velocity": 87}, {"time": 2830, "pitch": 43, "duration": 22, "velocity": 83}, {"time": 2830, "pitch": 55, "duration": 7, "velocity": 75}, {"time": 2830, "pitch": 59, "duration": 13, "velocity": 77}, {"time": 2836, "pitch": 50, "duration": 14, "velocity": 75}, {"time": 2842, "pitch": 55, "duration": 7, "velocity": 87}, {"time": 2848, "pitch": 59, "duration": 6, "velocity": 89}, {"time": 2854, "pitch": 48, "duration": 19, "velocity": 83}, {"time": 2854, "pitch": 60, "duration": 8, "velocity": 82}, {"time": 2860, "pitch": 52, "duration": 16, "velocity": 71}, {"time": 2866, "pitch": 55, "duration": 2, "velocity": 78}, {"time": 2866, "pitch": 60, "duration": 7, "velocity": 79}, {"time": 2866, "pitch": 64, "duration": 11, "velocity": 84}, {"time": 2872, "pitch": 55, "duration": 7, "velocity": 77}, {"time": 2878, "pitch": 43, "duration": 23, "velocity": 81}, {"time": 2878, "pitch": 62, "duration": 9, "velocity": 83}, {"time": 2884, "pitch": 50, "duration": 16, "velocity": 70}, {"time": 2890, "pitch": 55, "duration": 3, "velocity": 79}, {"time": 2890, "pitch": 59, "duration": 11, "velocity": 79}, {"time": 2896, "pitch": 55, "duration": 4, "velocity": 79}, {"time": 2902, "pitch": 48, "duration": 17, "velocity": 83}, {"time": 2902, "pitch": 55, "duration": 4, "velocity": 78}, {"time": 2902, "pitch": 64, "duration": 11, "velocity": 83}, {"time": 2914, "pitch": 55, "duration": 2, "velocity": 77}, {"time": 2914, "pitch": 60, "duration": 9, "velocity": 78}, {"time": 2920, "pitch": 55, "duration": 12, "velocity": 78}, {"time": 2926, "pitch": 43, "duration": 18, "velocity": 77}, {"time": 2926, "pitch": 62, "duration": 10, "velocity": 80}, {"time": 2932, "pitch": 50, "duration": 11, "velocity": 68}, {"time": 2938, "pitch": 55, "duration": 3, "velocity": 75}, {"time": 2938, "pitch": 59, "duration": 7, "velocity": 80}, {"time": 2944, "pitch": 55, "duration": 2, "velocity": 70}, {"time": 2950, "pitch": 45, "duration": 19, "velocity": 79}, {"time": 2950, "pitch": 60, "duration": 12, "velocity": 80}, {"time": 2956, "pitch": 52, "duration": 13, "velocity": 72}, {"time": 2962, "pitch": 57, "duration": 7, "velocity": 80}, {"time": 2968, "pitch": 60, "duration": 7, "velocity": 78}, {"time": 2974, "pitch": 40, "duration": 15, "velocity": 77}, {"time": 2974, "pitch": 55, "duration": 7, "velocity": 78}, {"time": 2974, "pitch": 59, "duration": 12, "velocity": 83}, {"time": 2980, "pitch": 47, "duration": 10, "velocity": 72}, {"time": 2986, "pitch": 55, "duration": 3, "velocity": 82}, {"time": 2998, "pitch": 48, "duration": 23, "velocity": 79}, {"time": 2998, "pitch": 55, "duration": 8, "velocity": 77}, {"time": 2998, "pitch": 60, "duration": 9, "velocity": 71}, {"time": 3004, "pitch": 52, "duration": 14, "velocity": 71}, {"time": 3010, "pitch": 55, "duration": 10, "velocity": 86}, {"time": 3016, "pitch": 60, "duration": 3, "velocity": 85}, {"time": 3022, "pitch": 43, "duration": 15, "velocity": 76}, {"time": 3022, "pitch": 55, "duration": 7, "velocity": 79}, {"time": 3022, "pitch": 59, "duration": 13, "velocity": 78}, {"time": 3028, "pitch": 50, "duration": 10, "velocity": 60}, {"time": 3034, "pitch": 55, "duration": 3, "velocity": 85}, {"time": 3046, "pitch": 45, "duration": 22, "velocity": 82}, {"time": 3046, "pitch": 57, "duration": 18, "velocity": 73}, {"time": 3046, "pitch": 60, "duration": 16, "velocity": 77}, {"time": 3058, "pitch": 52, "duration": 10, "velocity": 76}, {"time": 3064, "pitch": 62, "duration": 3, "velocity": 79}, {"time": 3070, "pitch": 45, "duration": 16, "velocity": 83}, {"time": 3070, "pitch": 57, "duration": 6, "velocity": 73}, {"time": 3070, "pitch": 64, "duration": 11, "velocity": 83}, {"time": 3076, "pitch": 52, "duration": 9, "velocity": 69}, {"time": 3082, "pitch": 57, "duration": 3, "velocity": 76}, {"time": 3082, "pitch": 60, "duration": 3, "velocity": 80}, {"time": 3094, "pitch": 41, "duration": 21, "velocity": 83}, {"time": 3094, "pitch": 53, "duration": 7, "velocity": 74}, {"time": 3094, "pitch": 57, "duration": 13, "velocity": 76}, {"time": 3100, "pitch": 48, "duration": 15, "velocity": 64}, {"time": 3106, "pitch": 53, "duration": 5, "velocity": 82}, {"time": 3118, "pitch": 43, "duration": 21, "velocity": 81}, {"time": 3118, "pitch": 55, "duration": 13, "velocity": 78}, {"time": 3124, "pitch": 50, "duration": 13, "velocity": 74}, {"time": 3130, "pitch": 59, "duration": 7, "velocity": 84}, {"time": 3136, "pitch": 55, "duration": 6, "velocity": 83}, {"time": 3142, "pitch": 48, "duration": 11, "velocity": 81}, {"time": 3142, "pitch": 60, "duration": 8, "velocity": 85}, {"time": 3148, "pitch": 55, "duration": 4, "velocity": 84}, {"time": 3154, "pitch": 47, "duration": 10, "velocity": 77}, {"time": 3154, "pitch": 55, "duration": 3, "velocity": 80}, {"time": 3154, "pitch": 59, "duration": 11, "velocity": 79}, {"time": 3160, "pitch": 55, "duration": 3, "velocity": 82}, {"time": 3166, "pitch": 45, "duration": 14, "velocity": 76}, {"time": 3166, "pitch": 57, "duration": 13, "velocity": 77}, {"time": 3166, "pitch": 60, "duration": 8, "velocity": 78}, {"time": 3172, "pitch": 52, "duration": 10, "velocity": 77}, {"time": 3178, "pitch": 60, "duration": 11, "velocity": 75}, {"time": 3178, "pitch": 64, "duration": 13, "velocity": 84}, {"time": 3184, "pitch": 43, "duration": 3, "velocity": 81}, {"time": 3190, "pitch": 41, "duration": 17, "velocity": 83}, {"time": 3190, "pitch": 53, "duration": 12, "velocity": 73}, {"time": 3190, "pitch": 57, "duration": 13, "velocity": 78}, {"time": 3196, "pitch": 48, "duration": 11, "velocity": 74}, {"time": 3202, "pitch": 60, "duration": 4, "velocity": 78}, {"time": 3214, "pitch": 41, "duration": 18, "velocity": 77}, {"time": 3214, "pitch": 53, "duration": 11, "velocity": 74}, {"time": 3214, "pitch": 56, "duration": 11, "velocity": 74}, {"time": 3226, "pitch": 56, "duration": 5, "velocity": 76}, {"time": 3226, "pitch": 60, "duration": 7, "velocity": 83}, {"time": 3238, "pitch": 45, "duration": 48, "velocity": 83}, {"time": 3238, "pitch": 57, "duration": 8, "velocity": 73}, {"time": 3238, "pitch": 60, "duration": 13, "velocity": 75}, {"time": 3244, "pitch": 52, "duration": 42, "velocity": 72}, {"time": 3250, "pitch": 57, "duration": 6, "velocity": 83}, {"time": 3256, "pitch": 59, "duration": 5, "velocity": 79}, {"time": 3262, "pitch": 60, "duration": 23, "velocity": 83}, {"time": 3286, "pitch": 41, "duration": 38, "velocity": 77}, {"time": 3286, "pitch": 53, "duration": 7, "velocity": 79}, {"time": 3286, "pitch": 57, "duration": 12, "velocity": 77}, {"time": 3292, "pitch": 48, "duration": 33, "velocity": 73}, {"time": 3298, "pitch": 53, "duration": 11, "velocity": 87}, {"time": 3304, "pitch": 57, "duration": 5, "velocity": 85}, {"time": 3310, "pitch": 53, "duration": 1, "velocity": 43}, {"time": 3310, "pitch": 57, "duration": 1, "velocity": 61}, {"time": 3310, "pitch": 60, "duration": 7, "velocity": 80}, {"time": 3316, "pitch": 53, "duration": 3, "velocity": 74}, {"time": 3322, "pitch": 53, "duration": 3, "velocity": 84}, {"time": 3322, "pitch": 57, "duration": 3, "velocity": 84}, {"time": 3322, "pitch": 60, "duration": 3, "velocity": 83}, {"time": 3328, "pitch": 41, "duration": 2, "velocity": 84}, {"time": 3334, "pitch": 36, "duration": 2, "velocity": 81}, {"time": 3334, "pitch": 55, "duration": 5, "velocity": 79}, {"time": 3334, "pitch": 64, "duration": 11, "velocity": 84}, {"time": 3340, "pitch": 48, "duration": 33, "velocity": 83}, {"time": 3340, "pitch": 55, "duration": 6, "velocity": 72}, {"time": 3346, "pitch": 60, "duration": 4, "velocity": 78}, {"time": 3352, "pitch": 55, "duration": 3, "velocity": 67}, {"time": 3358, "pitch": 55, "duration": 2, "velocity": 84}, {"time": 3358, "pitch": 64, "duration": 7, "velocity": 84}, {"time": 3364, "pitch": 55, "duration": 4, "velocity": 76}, {"time": 3370, "pitch": 55, "duration": 3, "velocity": 81}, {"time": 3370, "pitch": 60, "duration": 6, "velocity": 83}, {"time": 3376, "pitch": 59, "duration": 2, "velocity": 99}, {"time": 3382, "pitch": 41, "duration": 22, "velocity": 83}, {"time": 3382, "pitch": 53, "duration": 8, "velocity": 79}, {"time": 3382, "pitch": 60, "duration": 9, "velocity": 80}, {"time": 3388, "pitch": 48, "duration": 9, "velocity": 73}, {"time": 3394, "pitch": 53, "duration": 3, "velocity": 79}, {"time": 3394, "pitch": 57, "duration": 6, "velocity": 75}, {"time": 3400, "pitch": 48, "duration": 4, "velocity": 76}, {"time": 3406, "pitch": 40, "duration": 15, "velocity": 83}, {"time": 3406, "pitch": 52, "duration": 9, "velocity": 77}, {"time": 3412, "pitch": 47, "duration": 8, "velocity": 79}, {"time": 3418, "pitch": 52, "duration": 3, "velocity": 87}, {"time": 3418, "pitch": 56, "duration": 6, "velocity": 80}, {"time": 3424, "pitch": 52, "duration": 5, "velocity": 90}, {"time": 3430, "pitch": 45, "duration": 40, "velocity": 83}, {"time": 3430, "pitch": 57, "duration": 8, "velocity": 83}, {"time": 3436, "pitch": 52, "duration": 8, "velocity": 71}, {"time": 3442, "pitch": 60, "duration": 5, "velocity": 83}, {"time": 3448, "pitch": 52, "duration": 8, "velocity": 74}, {"time": 3454, "pitch": 57, "duration": 5, "velocity": 81}, {"time": 3454, "pitch": 60, "duration": 5, "velocity": 89}, {"time": 3454, "pitch": 64, "duration": 6, "velocity": 87}, {"time": 3460, "pitch": 52, "duration": 8, "velocity": 75}, {"time": 3466, "pitch": 57, "duration": 2, "velocity": 77}, {"time": 3466, "pitch": 60, "duration": 5, "velocity": 85}, {"time": 3478, "pitch": 41, "duration": 39, "velocity": 84}, {"time": 3478, "pitch": 53, "duration": 9, "velocity": 80}, {"time": 3478, "pitch": 60, "duration": 8, "velocity": 80}, {"time": 3484, "pitch": 48, "duration": 32, "velocity": 71}, {"time": 3490, "pitch": 56, "duration": 3, "velocity": 74}, {"time": 3490, "pitch": 60, "duration": 3, "velocity": 84}, {"time": 3496, "pitch": 53, "duration": 3, "velocity": 75}, {"time": 3502, "pitch": 53, "duration": 3, "velocity": 77}, {"time": 3502, "pitch": 60, "duration": 5, "velocity": 83}, {"time": 3514, "pitch": 53, "duration": 1, "velocity": 77}, {"time": 3514, "pitch": 56, "duration": 4, "velocity": 83}, {"time": 3514, "pitch": 60, "duration": 5, "velocity": 83}, {"time": 3520, "pitch": 53, "duration": 2, "velocity": 83}, {"time": 3526, "pitch": 48, "duration": 9, "velocity": 84}, {"time": 3526, "pitch": 55, "duration": 3, "velocity": 82}, {"time": 3526, "pitch": 60, "duration": 9, "velocity": 83}, {"time": 3532, "pitch": 55, "duration": 3, "velocity": 80}, {"time": 3538, "pitch": 47, "duration": 8, "velocity": 92}, {"time": 3538, "pitch": 55, "duration": 3, "velocity": 82}, {"time": 3538, "pitch": 59, "duration": 9, "velocity": 83}, {"time": 3544, "pitch": 55, "duration": 2, "velocity": 85}, {"time": 3550, "pitch": 45, "duration": 16, "velocity": 81}, {"time": 3550, "pitch": 57, "duration": 8, "velocity": 77}, {"time": 3550, "pitch": 60, "duration": 7, "velocity": 84}, {"time": 3556, "pitch": 52, "duration": 9, "velocity": 76}, {"time": 3562, "pitch": 57, "duration": 3, "velocity": 80}, {"time": 3562, "pitch": 60, "duration": 4, "velocity": 83}, {"time": 3562, "pitch": 64, "duration": 4, "velocity": 84}, {"time": 3574, "pitch": 38, "duration": 15, "velocity": 85}, {"time": 3574, "pitch": 57, "duration": 6, "velocity": 77}, {"time": 3574, "pitch": 65, "duration": 7, "velocity": 84}, {"time": 3580, "pitch": 45, "duration": 8, "velocity": 57}, {"time": 3586, "pitch": 57, "duration": 5, "velocity": 82}, {"time": 3592, "pitch": 62, "duration": 3, "velocity": 86}, {"time": 3598, "pitch": 50, "duration": 16, "velocity": 83}, {"time": 3598, "pitch": 57, "duration": 3, "velocity": 77}, {"time": 3598, "pitch": 65, "duration": 7, "velocity": 83}, {"time": 3610, "pitch": 57, "duration": 2, "velocity": 79}, {"time": 3610, "pitch": 62, "duration": 4, "velocity": 84}, {"time": 3622, "pitch": 45, "duration": 42, "velocity": 85}, {"time": 3622, "pitch": 57, "duration": 9, "velocity": 76}, {"time": 3622, "pitch": 60, "duration": 9, "velocity": 83}, {"time": 3628, "pitch": 52, "duration": 34, "velocity": 75}, {"time": 3634, "pitch": 64, "duration": 6, "velocity": 82}, {"time": 3640, "pitch": 57, "duration": 3, "velocity": 76}, {"time": 3646, "pitch": 60, "duration": 8, "velocity": 78}, {"time": 3646, "pitch": 64, "duration": 8, "velocity": 84}, {"time": 3658, "pitch": 57, "duration": 2, "velocity": 75}, {"time": 3658, "pitch": 60, "duration": 12, "velocity": 77}, {"time": 3664, "pitch": 57, "duration": 6, "velocity": 79}, {"time": 3670, "pitch": 41, "duration": 39, "velocity": 84}, {"time": 3670, "pitch": 53, "duration": 9, "velocity": 80}, {"time": 3670, "pitch": 60, "duration": 8, "velocity": 80}, {"time": 3676, "pitch": 48, "duration": 32, "velocity": 71}, {"time": 3682, "pitch": 56, "duration": 3, "velocity": 74}, {"time": 3682, "pitch": 60, "duration": 3, "velocity": 84}, {"time": 3688, "pitch": 53, "duration": 3, "velocity": 75}, {"time": 3694, "pitch": 53, "duration": 3, "velocity": 77}, {"time": 3694, "pitch": 60, "duration": 5, "velocity": 83}, {"time": 3706, "pitch": 53, "duration": 1, "velocity": 77}, {"time": 3706, "pitch": 56, "duration": 4, "velocity": 83}, {"time": 3706, "pitch": 60, "duration": 5, "velocity": 83}, {"time": 3712, "pitch": 53, "duration": 2, "velocity": 83}, {"time": 3718, "pitch": 48, "duration": 9, "velocity": 84}, {"time": 3718, "pitch": 55, "duration": 3, "velocity": 82}, {"time": 3718, "pitch": 60, "duration": 9, "velocity": 83}, {"time": 3724, "pitch": 55, "duration": 3, "velocity": 80}, {"time": 3730, "pitch": 47, "duration": 8, "velocity": 92}, {"time": 3730, "pitch": 55, "duration": 3, "velocity": 82}, {"time": 3730, "pitch": 59, "duration": 9, "velocity": 83}, {"time": 3736, "pitch": 55, "duration": 2, "velocity": 85}, {"time": 3742, "pitch": 45, "duration": 16, "velocity": 81}, {"time": 3742, "pitch": 57, "duration": 8, "velocity": 77}, {"time": 3742, "pitch": 60, "duration": 7, "velocity": 84}, {"time": 3748, "pitch": 52, "duration": 9, "velocity": 76}, {"time": 3754, "pitch": 57, "duration": 3, "velocity": 80}, {"time": 3754, "pitch": 60, "duration": 4, "velocity": 83}, {"time": 3754, "pitch": 64, "duration": 4, "velocity": 84}, {"time": 3766, "pitch": 38, "duration": 15, "velocity": 85}, {"time": 3766, "pitch": 57, "duration": 6, "velocity": 77}, {"time": 3766, "pitch": 65, "duration": 7, "velocity": 84}, {"time": 3772, "pitch": 45, "duration": 8, "velocity": 57}, {"time": 3778, "pitch": 57, "duration": 5, "velocity": 82}, {"time": 3784, "pitch": 62, "duration": 3, "velocity": 86}, {"time": 3790, "pitch": 50, "duration": 16, "velocity": 83}, {"time": 3790, "pitch": 57, "duration": 3, "velocity": 77}, {"time": 3790, "pitch": 65, "duration": 7, "velocity": 83}, {"time": 3802, "pitch": 57, "duration": 2, "velocity": 79}, {"time": 3802, "pitch": 62, "duration": 4, "velocity": 84}, {"time": 3814, "pitch": 45, "duration": 42, "velocity": 85}, {"time": 3814, "pitch": 57, "duration": 9, "velocity": 76}, {"time": 3814, "pitch": 60, "duration": 9, "velocity": 83}, {"time": 3820, "pitch": 52, "duration": 34, "velocity": 75}, {"time": 3826, "pitch": 64, "duration": 6, "velocity": 82}, {"time": 3832, "pitch": 57, "duration": 3, "velocity": 76}, {"time": 3838, "pitch": 60, "duration": 8, "velocity": 78}, {"time": 3838, "pitch": 64, "duration": 8, "velocity": 84}, {"time": 3850, "pitch": 57, "duration": 2, "velocity": 75}, {"time": 3850, "pitch": 60, "duration": 12, "velocity": 77}, {"time": 3856, "pitch": 57, "duration": 6, "velocity": 79}, {"time": 3862, "pitch": 45, "duration": 44, "velocity": 84}, {"time": 3868, "pitch": 52, "duration": 36, "velocity": 70}, {"time": 3874, "pitch": 59, "duration": 7, "velocity": 77}, {"time": 3880, "pitch": 60, "duration": 3, "velocity": 79}, {"time": 3886, "pitch": 64, "duration": 4, "velocity": 83}, {"time": 3892, "pitch": 57, "duration": 4, "velocity": 67}, {"time": 3898, "pitch": 57, "duration": 5, "velocity": 71}, {"time": 3898, "pitch": 60, "duration": 5, "velocity": 71}, {"time": 3909, "pitch": 38, "duration": 41, "velocity": 83}, {"time": 3909, "pitch": 57, "duration": 8, "velocity": 73}, {"time": 3909, "pitch": 62, "duration": 13, "velocity": 76}, {"time": 3915, "pitch": 45, "duration": 33, "velocity": 53}, {"time": 3921, "pitch": 57, "duration": 9, "velocity": 71}, {"time": 3927, "pitch": 62, "duration": 4, "velocity": 79}, {"time": 3933, "pitch": 57, "duration": 10, "velocity": 79}, {"time": 3933, "pitch": 65, "duration": 12, "velocity": 75}, {"time": 3945, "pitch": 62, "duration": 12, "velocity": 78}, {"time": 3957, "pitch": 45, "duration": 45, "velocity": 83}, {"time": 3963, "pitch": 52, "duration": 37, "velocity": 70}, {"time": 3969, "pitch": 59, "duration": 6, "velocity": 76}, {"time": 3975, "pitch": 60, "duration": 3, "velocity": 74}, {"time": 3981, "pitch": 64, "duration": 7, "velocity": 84}, {"time": 3981, "pitch": 57, "duration": 4, "velocity": 73}, {"time": 3993, "pitch": 60, "duration": 14, "velocity": 75}, {"time": 3993, "pitch": 57, "duration": 3, "velocity": 75}, {"time": 4000, "pitch": 57, "duration": 6, "velocity": 55}, {"time": 4006, "pitch": 41, "duration": 45, "velocity": 83}, {"time": 4011, "pitch": 48, "duration": 38, "velocity": 70}, {"time": 4017, "pitch": 53, "duration": 9, "velocity": 76}, {"time": 4023, "pitch": 57, "duration": 4, "velocity": 77}, {"time": 4030, "pitch": 53, "duration": 12, "velocity": 80}, {"time": 4030, "pitch": 60, "duration": 13, "velocity": 80}, {"time": 4042, "pitch": 59, "duration": 21, "velocity": 77}, {"time": 4070, "pitch": 45, "duration": 61, "velocity": 83}, {"time": 4075, "pitch": 52, "duration": 55, "velocity": 67}, {"time": 4078, "pitch": 57, "duration": 4, "velocity": 65}, {"time": 4081, "pitch": 59, "duration": 5, "velocity": 76}, {"time": 4085, "pitch": 60, "duration": 6, "velocity": 73}, {"time": 4089, "pitch": 64, "duration": 4, "velocity": 80}, {"time": 4102, "pitch": 57, "duration": 13, "velocity": 28}], "annotations": [{"time": 21, "annotation": {"number": 64, "value": 127}, "group": "control_change"}, {"time": 70, "annotation": {"number": 64, "value": 0}, "group": "control_change"}, {"time": 75, "annotation": {"number": 64, "value": 127}, "group": "control_change"}, {"time": 117, "annotation": {"number": 64, "value": 0}, "group": "control_change"}, {"time": 121, "annotation": {"number": 64, "value": 127}, "group": "control_change"}, {"time": 141, "annotation": {"number": 64, "value": 0}, "group": "control_change"}, {"time": 143, "annotation": {"number": 64, "value": 127}, "group": "control_change"}, {"time": 165, "annotation": {"number": 64, "value": 0}, "group": "control_change"}, {"time": 170, "annotation": {"number": 64, "value": 127}, "group": "control_change"}, {"time": 190, "annotation": {"number": 64, "value": 0}, "group": "control_change"}, {"time": 193, "annotation": {"number": 64, "value": 127}, "group": "control_change"}, {"time": 213, "annotation": {"number": 64, "value": 0}, "group": "control_change"}, {"time": 215, "annotation": {"number": 64, "value": 127}, "group": "control_change"}, {"time": 237, "annotation": {"number": 64, "value": 0}, "group": "control_change"}, {"time": 241, "annotation": {"number": 64, "value": 127}, "group": "control_change"}, {"time": 261, "annotation": {"number": 64, "value": 0}, "group": "control_change"}, {"time": 264, "annotation": {"number": 64, "value": 127}, "group": "control_change"}, {"time": 283, "annotation": {"number": 64, "value": 0}, "group": "control_change"}, {"time": 287, "annotation": {"number": 64, "value": 127}, "group": "control_change"}, {"time": 309, "annotation": {"number": 64, "value": 0}, "group": "control_change"}, {"time": 310, "annotation": {"number": 64, "value": 127}, "group": "control_change"}, {"time": 334, "annotation": {"number": 64, "value": 0}, "group": "control_change"}, {"time": 339, "annotation": {"number": 64, "value": 127}, "group": "control_change"}, {"time": 358, "annotation": {"number": 64, "value": 0}, "group": "control_change"}, {"time": 365, "annotation": {"number": 64, "value": 127}, "group": "control_change"}, {"time": 382, "annotation": {"number": 64, "value": 0}, "group": "control_change"}, {"time": 384, "annotation": {"number": 64, "value": 127}, "group": "control_change"}, {"time": 406, "annotation": {"number": 64, "value": 0}, "group": "control_change"}, {"time": 409, "annotation": {"number": 64, "value": 127}, "group": "control_change"}, {"time": 428, "annotation": {"number": 64, "value": 0}, "group": "control_change"}, {"time": 432, "annotation": {"number": 64, "value": 127}, "group": "control_change"}, {"time": 452, "annotation": {"number": 64, "value": 0}, "group": "control_change"}, {"time": 456, "annotation": {"number": 64, "value": 127}, "group": "control_change"}, {"time": 500, "annotation": {"number": 64, "value": 0}, "group": "control_change"}, {"time": 507, "annotation": {"number": 64, "value": 127}, "group": "control_change"}, {"time": 527, "annotation": {"number": 64, "value": 0}, "group": "control_change"}, {"time": 533, "annotation": {"number": 64, "value": 127}, "group": "control_change"}, {"time": 548, "annotation": {"number": 64, "value": 0}, "group": "control_change"}, {"time": 550, "annotation": {"number": 64, "value": 127}, "group": "control_change"}, {"time": 559, "annotation": {"number": 64, "value": 0}, "group": "control_change"}, {"time": 562, "annotation": {"number": 64, "value": 127}, "group": "control_change"}, {"time": 572, "annotation": {"number": 64, "value": 0}, "group": "control_change"}, {"time": 579, "annotation": {"number": 64, "value": 127}, "group": "control_change"}, {"time": 597, "annotation": {"number": 64, "value": 0}, "group": "control_change"}, {"time": 604, "annotation": {"number": 64, "value": 127}, "group": "control_change"}, {"time": 619, "annotation": {"number": 64, "value": 0}, "group": "control_change"}, {"time": 623, "annotation": {"number": 64, "value": 127}, "group": "control_change"}, {"time": 645, "annotation": {"number": 64, "value": 0}, "group": "control_change"}, {"time": 649, "annotation": {"number": 64, "value": 127}, "group": "control_change"}, {"time": 673, "annotation": {"number": 64, "value": 0}, "group": "control_change"}, {"time": 675, "annotation": {"number": 64, "value": 127}, "group": "control_change"}, {"time": 691, "annotation": {"number": 64, "value": 0}, "group": "control_change"}, {"time": 717, "annotation": {"number": 64, "value": 0}, "group": "control_change"}, {"time": 721, "annotation": {"number": 64, "value": 127}, "group": "control_change"}, {"time": 741, "annotation": {"number": 64, "value": 0}, "group": "control_change"}, {"time": 747, "annotation": {"number": 64, "value": 127}, "group": "control_change"}, {"time": 765, "annotation": {"number": 64, "value": 0}, "group": "control_change"}, {"time": 771, "annotation": {"number": 64, "value": 127}, "group": "control_change"}, {"time": 787, "annotation": {"number": 64, "value": 0}, "group": "control_change"}, {"time": 800, "annotation": {"number": 64, "value": 127}, "group": "control_change"}, {"time": 813, "annotation": {"number": 64, "value": 0}, "group": "control_change"}, {"time": 820, "annotation": {"number": 64, "value": 127}, "group": "control_change"}, {"time": 835, "annotation": {"number": 64, "value": 0}, "group": "control_change"}, {"time": 841, "annotation": {"number": 64, "value": 127}, "group": "control_change"}, {"time": 859, "annotation": {"number": 64, "value": 0}, "group": "control_change"}, {"time": 865, "annotation": {"number": 64, "value": 127}, "group": "control_change"}, {"time": 880, "annotation": {"number": 64, "value": 0}, "group": "control_change"}, {"time": 886, "annotation": {"number": 64, "value": 127}, "group": "control_change"}, {"time": 910, "annotation": {"number": 64, "value": 0}, "group": "control_change"}, {"time": 915, "annotation": {"number": 64, "value": 127}, "group": "control_change"}, {"time": 934, "annotation": {"number": 64, "value": 0}, "group": "control_change"}, {"time": 941, "annotation": {"number": 64, "value": 127}, "group": "control_change"}, {"time": 958, "annotation": {"number": 64, "value": 0}, "group": "control_change"}, {"time": 960, "annotation": {"number": 64, "value": 127}, "group": "control_change"}, {"time": 982, "annotation": {"number": 64, "value": 0}, "group": "control_change"}, {"time": 985, "annotation": {"number": 64, "value": 127}, "group": "control_change"}, {"time": 1004, "annotation": {"number": 64, "value": 0}, "group": "control_change"}, {"time": 1008, "annotation": {"number": 64, "value": 127}, "group": "control_change"}, {"time": 1028, "annotation": {"number": 64, "value": 0}, "group": "control_change"}, {"time": 1032, "annotation": {"number": 64, "value": 127}, "group": "control_change"}, {"time": 1076, "annotation": {"number": 64, "value": 0}, "group": "control_change"}, {"time": 1083, "annotation": {"number": 64, "value": 127}, "group": "control_change"}, {"time": 1103, "annotation": {"number": 64, "value": 0}, "group": "control_change"}, {"time": 1109, "annotation": {"number": 64, "value": 127}, "group": "control_change"}, {"time": 1124, "annotation": {"number": 64, "value": 0}, "group": "control_change"}, {"time": 1126, "annotation": {"number": 64, "value": 127}, "group": "control_change"}, {"time": 1135, "annotation": {"number": 64, "value": 0}, "group": "control_change"}, {"time": 1138, "annotation": {"number": 64, "value": 127}, "group": "control_change"}, {"time": 1148, "annotation": {"number": 64, "value": 0}, "group": "control_change"}, {"time": 1155, "annotation": {"number": 64, "value": 127}, "group": "control_change"}, {"time": 1173, "annotation": {"number": 64, "value": 0}, "group": "control_change"}, {"time": 1180, "annotation": {"number": 64, "value": 127}, "group": "control_change"}, {"time": 1195, "annotation": {"number": 64, "value": 0}, "group": "control_change"}, {"time": 1199, "annotation": {"number": 64, "value": 127}, "group": "control_change"}, {"time": 1221, "annotation": {"number": 64, "value": 0}, "group": "control_change"}, {"time": 1225, "annotation": {"number": 64, "value": 127}, "group": "control_change"}, {"time": 1249, "annotation": {"number": 64, "value": 0}, "group": "control_change"}, {"time": 1251, "annotation": {"number": 64, "value": 127}, "group": "control_change"}, {"time": 1267, "annotation": {"number": 64, "value": 0}, "group": "control_change"}, {"time": 1289, "annotation": {"number": 64, "value": 127}, "group": "control_change"}, {"time": 1315, "annotation": {"number": 64, "value": 0}, "group": "control_change"}, {"time": 1318, "annotation": {"number": 64, "value": 127}, "group": "control_change"}, {"time": 1365, "annotation": {"number": 64, "value": 0}, "group": "control_change"}, {"time": 1366, "annotation": {"number": 64, "value": 127}, "group": "control_change"}, {"time": 1389, "annotation": {"number": 64, "value": 0}, "group": "control_change"}, {"time": 1393, "annotation": {"number": 64, "value": 127}, "group": "control_change"}, {"time": 1410, "annotation": {"number": 64, "value": 0}, "group": "control_change"}, {"time": 1414, "annotation": {"number": 64, "value": 127}, "group": "control_change"}, {"time": 1462, "annotation": {"number": 64, "value": 0}, "group": "control_change"}, {"time": 1468, "annotation": {"number": 64, "value": 127}, "group": "control_change"}, {"time": 1508, "annotation": {"number": 64, "value": 0}, "group": "control_change"}, {"time": 1513, "annotation": {"number": 64, "value": 127}, "group": "control_change"}, {"time": 1520, "annotation": {"number": 64, "value": 0}, "group": "control_change"}, {"time": 1522, "annotation": {"number": 64, "value": 127}, "group": "control_change"}, {"time": 1532, "annotation": {"number": 64, "value": 0}, "group": "control_change"}, {"time": 1538, "annotation": {"number": 64, "value": 127}, "group": "control_change"}, {"time": 1555, "annotation": {"number": 64, "value": 0}, "group": "control_change"}, {"time": 1558, "annotation": {"number": 64, "value": 127}, "group": "control_change"}, {"time": 1606, "annotation": {"number": 64, "value": 0}, "group": "control_change"}, {"time": 1611, "annotation": {"number": 64, "value": 127}, "group": "control_change"}, {"time": 1651, "annotation": {"number": 64, "value": 0}, "group": "control_change"}, {"time": 1654, "annotation": {"number": 64, "value": 127}, "group": "control_change"}, {"time": 1654, "annotation": {"number": 64, "value": 0}, "group": "control_change"}, {"time": 1701, "annotation": {"number": 64, "value": 0}, "group": "control_change"}, {"time": 1706, "annotation": {"number": 64, "value": 127}, "group": "control_change"}, {"time": 1773, "annotation": {"number": 64, "value": 0}, "group": "control_change"}, {"time": 1777, "annotation": {"number": 64, "value": 127}, "group": "control_change"}, {"time": 1797, "annotation": {"number": 64, "value": 0}, "group": "control_change"}, {"time": 1803, "annotation": {"number": 64, "value": 127}, "group": "control_change"}, {"time": 1821, "annotation": {"number": 64, "value": 0}, "group": "control_change"}, {"time": 1827, "annotation": {"number": 64, "value": 127}, "group": "control_change"}, {"time": 1843, "annotation": {"number": 64, "value": 0}, "group": "control_change"}, {"time": 1856, "annotation": {"number": 64, "value": 127}, "group": "control_change"}, {"time": 1869, "annotation": {"number": 64, "value": 0}, "group": "control_change"}, {"time": 1876, "annotation": {"number": 64, "value": 127}, "group": "control_change"}, {"time": 1891, "annotation": {"number": 64, "value": 0}, "group": "control_change"}, {"time": 1897, "annotation": {"number": 64, "value": 127}, "group": "control_change"}, {"time": 1915, "annotation": {"number": 64, "value": 0}, "group": "control_change"}, {"time": 1921, "annotation": {"number": 64, "value": 127}, "group": "control_change"}, {"time": 1936, "annotation": {"number": 64, "value": 0}, "group": "control_change"}, {"time": 1942, "annotation": {"number": 64, "value": 127}, "group": "control_change"}, {"time": 1966, "annotation": {"number": 64, "value": 0}, "group": "control_change"}, {"time": 1971, "annotation": {"number": 64, "value": 127}, "group": "control_change"}, {"time": 1990, "annotation": {"number": 64, "value": 0}, "group": "control_change"}, {"time": 1997, "annotation": {"number": 64, "value": 127}, "group": "control_change"}, {"time": 2014, "annotation": {"number": 64, "value": 0}, "group": "control_change"}, {"time": 2016, "annotation": {"number": 64, "value": 127}, "group": "control_change"}, {"time": 2038, "annotation": {"number": 64, "value": 0}, "group": "control_change"}, {"time": 2041, "annotation": {"number": 64, "value": 127}, "group": "control_change"}, {"time": 2060, "annotation": {"number": 64, "value": 0}, "group": "control_change"}, {"time": 2064, "annotation": {"number": 64, "value": 127}, "group": "control_change"}, {"time": 2084, "annotation": {"number": 64, "value": 0}, "group": "control_change"}, {"time": 2088, "annotation": {"number": 64, "value": 127}, "group": "control_change"}, {"time": 2132, "annotation": {"number": 64, "value": 0}, "group": "control_change"}, {"time": 2139, "annotation": {"number": 64, "value": 127}, "group": "control_change"}, {"time": 2159, "annotation": {"number": 64, "value": 0}, "group": "control_change"}, {"time": 2165, "annotation": {"number": 64, "value": 127}, "group": "control_change"}, {"time": 2180, "annotation": {"number": 64, "value": 0}, "group": "control_change"}, {"time": 2182, "annotation": {"number": 64, "value": 127}, "group": "control_change"}, {"time": 2191, "annotation": {"number": 64, "value": 0}, "group": "control_change"}, {"time": 2194, "annotation": {"number": 64, "value": 127}, "group": "control_change"}, {"time": 2204, "annotation": {"number": 64, "value": 0}, "group": "control_change"}, {"time": 2211, "annotation": {"number": 64, "value": 127}, "group": "control_change"}, {"time": 2229, "annotation": {"number": 64, "value": 0}, "group": "control_change"}, {"time": 2236, "annotation": {"number": 64, "value": 127}, "group": "control_change"}, {"time": 2251, "annotation": {"number": 64, "value": 0}, "group": "control_change"}, {"time": 2255, "annotation": {"number": 64, "value": 127}, "group": "control_change"}, {"time": 2277, "annotation": {"number": 64, "value": 0}, "group": "control_change"}, {"time": 2281, "annotation": {"number": 64, "value": 127}, "group": "control_change"}, {"time": 2305, "annotation": {"number": 64, "value": 0}, "group": "control_change"}, {"time": 2307, "annotation": {"number": 64, "value": 127}, "group": "control_change"}, {"time": 2323, "annotation": {"number": 64, "value": 0}, "group": "control_change"}, {"time": 2348, "annotation": {"number": 64, "value": 0}, "group": "control_change"}, {"time": 2354, "annotation": {"number": 64, "value": 127}, "group": "control_change"}, {"time": 2374, "annotation": {"number": 64, "value": 0}, "group": "control_change"}, {"time": 2379, "annotation": {"number": 64, "value": 127}, "group": "control_change"}, {"time": 2398, "annotation": {"number": 64, "value": 0}, "group": "control_change"}, {"time": 2403, "annotation": {"number": 64, "value": 127}, "group": "control_change"}, {"time": 2421, "annotation": {"number": 64, "value": 0}, "group": "control_change"}, {"time": 2426, "annotation": {"number": 64, "value": 127}, "group": "control_change"}, {"time": 2445, "annotation": {"number": 64, "value": 0}, "group": "control_change"}, {"time": 2452, "annotation": {"number": 64, "value": 127}, "group": "control_change"}, {"time": 2468, "annotation": {"number": 64, "value": 0}, "group": "control_change"}, {"time": 2472, "annotation": {"number": 64, "value": 127}, "group": "control_change"}, {"time": 2516, "annotation": {"number": 64, "value": 0}, "group": "control_change"}, {"time": 2522, "annotation": {"number": 64, "value": 127}, "group": "control_change"}, {"time": 2541, "annotation": {"number": 64, "value": 0}, "group": "control_change"}, {"time": 2547, "annotation": {"number": 64, "value": 127}, "group": "control_change"}, {"time": 2563, "annotation": {"number": 64, "value": 0}, "group": "control_change"}, {"time": 2566, "annotation": {"number": 64, "value": 127}, "group": "control_change"}, {"time": 2577, "annotation": {"number": 64, "value": 0}, "group": "control_change"}, {"time": 2579, "annotation": {"number": 64, "value": 127}, "group": "control_change"}, {"time": 2588, "annotation": {"number": 64, "value": 0}, "group": "control_change"}, {"time": 2593, "annotation": {"number": 64, "value": 127}, "group": "control_change"}, {"time": 2612, "annotation": {"number": 64, "value": 0}, "group": "control_change"}, {"time": 2619, "annotation": {"number": 64, "value": 127}, "group": "control_change"}, {"time": 2637, "annotation": {"number": 64, "value": 0}, "group": "control_change"}, {"time": 2638, "annotation": {"number": 64, "value": 127}, "group": "control_change"}, {"time": 2661, "annotation": {"number": 64, "value": 0}, "group": "control_change"}, {"time": 2662, "annotation": {"number": 64, "value": 127}, "group": "control_change"}, {"time": 2706, "annotation": {"number": 64, "value": 0}, "group": "control_change"}, {"time": 2733, "annotation": {"number": 64, "value": 0}, "group": "control_change"}, {"time": 2737, "annotation": {"number": 64, "value": 127}, "group": "control_change"}, {"time": 2757, "annotation": {"number": 64, "value": 0}, "group": "control_change"}, {"time": 2763, "annotation": {"number": 64, "value": 127}, "group": "control_change"}, {"time": 2781, "annotation": {"number": 64, "value": 0}, "group": "control_change"}, {"time": 2787, "annotation": {"number": 64, "value": 127}, "group": "control_change"}, {"time": 2803, "annotation": {"number": 64, "value": 0}, "group": "control_change"}, {"time": 2816, "annotation": {"number": 64, "value": 127}, "group": "control_change"}, {"time": 2829, "annotation": {"number": 64, "value": 0}, "group": "control_change"}, {"time": 2836, "annotation": {"number": 64, "value": 127}, "group": "control_change"}, {"time": 2851, "annotation": {"number": 64, "value": 0}, "group": "control_change"}, {"time": 2857, "annotation": {"number": 64, "value": 127}, "group": "control_change"}, {"time": 2875, "annotation": {"number": 64, "value": 0}, "group": "control_change"}, {"time": 2881, "annotation": {"number": 64, "value": 127}, "group": "control_change"}, {"time": 2896, "annotation": {"number": 64, "value": 0}, "group": "control_change"}, {"time": 2902, "annotation": {"number": 64, "value": 127}, "group": "control_change"}, {"time": 2926, "annotation": {"number": 64, "value": 0}, "group": "control_change"}, {"time": 2931, "annotation": {"number": 64, "value": 127}, "group": "control_change"}, {"time": 2950, "annotation": {"number": 64, "value": 0}, "group": "control_change"}, {"time": 2957, "annotation": {"number": 64, "value": 127}, "group": "control_change"}, {"time": 2974, "annotation": {"number": 64, "value": 0}, "group": "control_change"}, {"time": 2976, "annotation": {"number": 64, "value": 127}, "group": "control_change"}, {"time": 2998, "annotation": {"number": 64, "value": 0}, "group": "control_change"}, {"time": 3001, "annotation": {"number": 64, "value": 127}, "group": "control_change"}, {"time": 3020, "annotation": {"number": 64, "value": 0}, "group": "control_change"}, {"time": 3024, "annotation": {"number": 64, "value": 127}, "group": "control_change"}, {"time": 3044, "annotation": {"number": 64, "value": 0}, "group": "control_change"}, {"time": 3048, "annotation": {"number": 64, "value": 127}, "group": "control_change"}, {"time": 3092, "annotation": {"number": 64, "value": 0}, "group": "control_change"}, {"time": 3099, "annotation": {"number": 64, "value": 127}, "group": "control_change"}, {"time": 3119, "annotation": {"number": 64, "value": 0}, "group": "control_change"}, {"time": 3125, "annotation": {"number": 64, "value": 127}, "group": "control_change"}, {"time": 3140, "annotation": {"number": 64, "value": 0}, "group": "control_change"}, {"time": 3142, "annotation": {"number": 64, "value": 127}, "group": "control_change"}, {"time": 3151, "annotation": {"number": 64, "value": 0}, "group": "control_change"}, {"time": 3154, "annotation": {"number": 64, "value": 127}, "group": "control_change"}, {"time": 3164, "annotation": {"number": 64, "value": 0}, "group": "control_change"}, {"time": 3171, "annotation": {"number": 64, "value": 127}, "group": "control_change"}, {"time": 3189, "annotation": {"number": 64, "value": 0}, "group": "control_change"}, {"time": 3196, "annotation": {"number": 64, "value": 127}, "group": "control_change"}, {"time": 3211, "annotation": {"number": 64, "value": 0}, "group": "control_change"}, {"time": 3215, "annotation": {"number": 64, "value": 127}, "group": "control_change"}, {"time": 3237, "annotation": {"number": 64, "value": 0}, "group": "control_change"}, {"time": 3241, "annotation": {"number": 64, "value": 127}, "group": "control_change"}, {"time": 3265, "annotation": {"number": 64, "value": 0}, "group": "control_change"}, {"time": 3267, "annotation": {"number": 64, "value": 127}, "group": "control_change"}, {"time": 3283, "annotation": {"number": 64, "value": 0}, "group": "control_change"}, {"time": 3305, "annotation": {"number": 64, "value": 127}, "group": "control_change"}, {"time": 3331, "annotation": {"number": 64, "value": 0}, "group": "control_change"}, {"time": 3334, "annotation": {"number": 64, "value": 127}, "group": "control_change"}, {"time": 3381, "annotation": {"number": 64, "value": 0}, "group": "control_change"}, {"time": 3382, "annotation": {"number": 64, "value": 127}, "group": "control_change"}, {"time": 3405, "annotation": {"number": 64, "value": 0}, "group": "control_change"}, {"time": 3409, "annotation": {"number": 64, "value": 127}, "group": "control_change"}, {"time": 3426, "annotation": {"number": 64, "value": 0}, "group": "control_change"}, {"time": 3430, "annotation": {"number": 64, "value": 127}, "group": "control_change"}, {"time": 3478, "annotation": {"number": 64, "value": 0}, "group": "control_change"}, {"time": 3484, "annotation": {"number": 64, "value": 127}, "group": "control_change"}, {"time": 3524, "annotation": {"number": 64, "value": 0}, "group": "control_change"}, {"time": 3529, "annotation": {"number": 64, "value": 127}, "group": "control_change"}, {"time": 3536, "annotation": {"number": 64, "value": 0}, "group": "control_change"}, {"time": 3538, "annotation": {"number": 64, "value": 127}, "group": "control_change"}, {"time": 3548, "annotation": {"number": 64, "value": 0}, "group": "control_change"}, {"time": 3554, "annotation": {"number": 64, "value": 127}, "group": "control_change"}, {"time": 3571, "annotation": {"number": 64, "value": 0}, "group": "control_change"}, {"time": 3574, "annotation": {"number": 64, "value": 127}, "group": "control_change"}, {"time": 3622, "annotation": {"number": 64, "value": 0}, "group": "control_change"}, {"time": 3627, "annotation": {"number": 64, "value": 127}, "group": "control_change"}, {"time": 3667, "annotation": {"number": 64, "value": 0}, "group": "control_change"}, {"time": 3670, "annotation": {"number": 64, "value": 127}, "group": "control_change"}, {"time": 3670, "annotation": {"number": 64, "value": 0}, "group": "control_change"}, {"time": 3676, "annotation": {"number": 64, "value": 127}, "group": "control_change"}, {"time": 3716, "annotation": {"number": 64, "value": 0}, "group": "control_change"}, {"time": 3721, "annotation": {"number": 64, "value": 127}, "group": "control_change"}, {"time": 3728, "annotation": {"number": 64, "value": 0}, "group": "control_change"}, {"time": 3730, "annotation": {"number": 64, "value": 127}, "group": "control_change"}, {"time": 3740, "annotation": {"number": 64, "value": 0}, "group": "control_change"}, {"time": 3746, "annotation": {"number": 64, "value": 127}, "group": "control_change"}, {"time": 3763, "annotation": {"number": 64, "value": 0}, "group": "control_change"}, {"time": 3766, "annotation": {"number": 64, "value": 127}, "group": "control_change"}, {"time": 3814, "annotation": {"number": 64, "value": 0}, "group": "control_change"}, {"time": 3819, "annotation": {"number": 64, "value": 127}, "group": "control_change"}, {"time": 3859, "annotation": {"number": 64, "value": 0}, "group": "control_change"}, {"time": 3862, "annotation": {"number": 64, "value": 127}, "group": "control_change"}, {"time": 3862, "annotation": {"number": 64, "value": 0}, "group": "control_change"}, {"time": 3909, "annotation": {"number": 64, "value": 0}, "group": "control_change"}, {"time": 3910, "annotation": {"number": 64, "value": 127}, "group": "control_change"}, {"time": 3956, "annotation": {"number": 64, "value": 0}, "group": "control_change"}, {"time": 3960, "annotation": {"number": 64, "value": 127}, "group": "control_change"}, {"time": 3960, "annotation": {"number": 64, "value": 0}, "group": "control_change"}, {"time": 3961, "annotation": {"number": 64, "value": 127}, "group": "control_change"}, {"time": 4005, "annotation": {"number": 64, "value": 0}, "group": "control_change"}, {"time": 4008, "annotation": {"number": 64, "value": 127}, "group": "control_change"}, {"time": 4069, "annotation": {"number": 64, "value": 0}, "group": "control_change"}, {"time": 4074, "annotation": {"number": 64, "value": 127}, "group": "control_change"}]}]}