{"metadata": {"schema_version": "0.2", "title": "None", "source_filename": "659.mid", "source_format": "midi"}, "resolution": 12, "tempos": [{"time": 0, "qpm": 60.0}], "time_signatures": [{"time": 0, "numerator": 1, "denominator": 4}], "tracks": [{"program": 0, "is_drum": false, "name": "MELODY", "notes": [{"time": 399, "pitch": 69, "duration": 5, "velocity": 88}, {"time": 405, "pitch": 76, "duration": 2, "velocity": 84}, {"time": 408, "pitch": 76, "duration": 8, "velocity": 84}, {"time": 417, "pitch": 76, "duration": 3, "velocity": 86}, {"time": 420, "pitch": 74, "duration": 2, "velocity": 83}, {"time": 423, "pitch": 76, "duration": 19, "velocity": 83}, {"time": 447, "pitch": 71, "duration": 5, "velocity": 83}, {"time": 453, "pitch": 71, "duration": 5, "velocity": 83}, {"time": 459, "pitch": 69, "duration": 6, "velocity": 82}, {"time": 465, "pitch": 67, "duration": 6, "velocity": 79}, {"time": 471, "pitch": 69, "duration": 20, "velocity": 82}, {"time": 495, "pitch": 69, "duration": 5, "velocity": 84}, {"time": 501, "pitch": 74, "duration": 4, "velocity": 87}, {"time": 507, "pitch": 74, "duration": 5, "velocity": 87}, {"time": 513, "pitch": 69, "duration": 6, "velocity": 84}, {"time": 519, "pitch": 74, "duration": 6, "velocity": 85}, {"time": 525, "pitch": 76, "duration": 7, "velocity": 82}, {"time": 531, "pitch": 74, "duration": 11, "velocity": 83}, {"time": 543, "pitch": 72, "duration": 7, "velocity": 85}, {"time": 549, "pitch": 69, "duration": 6, "velocity": 80}, {"time": 555, "pitch": 72, "duration": 6, "velocity": 83}, {"time": 561, "pitch": 76, "duration": 5, "velocity": 84}, {"time": 567, "pitch": 76, "duration": 21, "velocity": 84}, {"time": 591, "pitch": 76, "duration": 5, "velocity": 86}, {"time": 597, "pitch": 81, "duration": 4, "velocity": 87}, {"time": 603, "pitch": 81, "duration": 5, "velocity": 84}, {"time": 609, "pitch": 74, "duration": 5, "velocity": 88}, {"time": 615, "pitch": 76, "duration": 11, "velocity": 93}, {"time": 627, "pitch": 74, "duration": 10, "velocity": 86}, {"time": 639, "pitch": 76, "duration": 5, "velocity": 84}, {"time": 645, "pitch": 79, "duration": 4, "velocity": 85}, {"time": 651, "pitch": 79, "duration": 5, "velocity": 84}, {"time": 657, "pitch": 74, "duration": 2, "velocity": 86}, {"time": 660, "pitch": 76, "duration": 3, "velocity": 88}, {"time": 663, "pitch": 72, "duration": 20, "velocity": 83}, {"time": 687, "pitch": 74, "duration": 7, "velocity": 85}, {"time": 696, "pitch": 74, "duration": 2, "velocity": 87}, {"time": 699, "pitch": 74, "duration": 5, "velocity": 87}, {"time": 705, "pitch": 69, "duration": 2, "velocity": 84}, {"time": 708, "pitch": 69, "duration": 2, "velocity": 84}, {"time": 711, "pitch": 74, "duration": 8, "velocity": 86}, {"time": 720, "pitch": 76, "duration": 4, "velocity": 80}, {"time": 723, "pitch": 74, "duration": 10, "velocity": 86}, {"time": 735, "pitch": 67, "duration": 5, "velocity": 82}, {"time": 741, "pitch": 69, "duration": 6, "velocity": 83}, {"time": 747, "pitch": 72, "duration": 6, "velocity": 82}, {"time": 753, "pitch": 71, "duration": 7, "velocity": 80}, {"time": 759, "pitch": 69, "duration": 23, "velocity": 81}, {"time": 783, "pitch": 69, "duration": 5, "velocity": 88}, {"time": 789, "pitch": 76, "duration": 2, "velocity": 84}, {"time": 792, "pitch": 76, "duration": 8, "velocity": 84}, {"time": 801, "pitch": 76, "duration": 3, "velocity": 86}, {"time": 804, "pitch": 74, "duration": 2, "velocity": 83}, {"time": 807, "pitch": 76, "duration": 19, "velocity": 83}, {"time": 831, "pitch": 71, "duration": 5, "velocity": 83}, {"time": 837, "pitch": 71, "duration": 5, "velocity": 83}, {"time": 843, "pitch": 69, "duration": 6, "velocity": 82}, {"time": 849, "pitch": 67, "duration": 6, "velocity": 79}, {"time": 855, "pitch": 69, "duration": 20, "velocity": 82}, {"time": 879, "pitch": 69, "duration": 5, "velocity": 84}, {"time": 885, "pitch": 74, "duration": 4, "velocity": 87}, {"time": 891, "pitch": 74, "duration": 5, "velocity": 87}, {"time": 897, "pitch": 69, "duration": 6, "velocity": 84}, {"time": 903, "pitch": 74, "duration": 6, "velocity": 85}, {"time": 909, "pitch": 76, "duration": 7, "velocity": 82}, {"time": 915, "pitch": 74, "duration": 11, "velocity": 83}, {"time": 927, "pitch": 72, "duration": 7, "velocity": 85}, {"time": 933, "pitch": 69, "duration": 6, "velocity": 80}, {"time": 939, "pitch": 72, "duration": 6, "velocity": 83}, {"time": 945, "pitch": 76, "duration": 5, "velocity": 84}, {"time": 951, "pitch": 76, "duration": 21, "velocity": 84}, {"time": 975, "pitch": 76, "duration": 5, "velocity": 86}, {"time": 981, "pitch": 81, "duration": 4, "velocity": 87}, {"time": 987, "pitch": 81, "duration": 5, "velocity": 84}, {"time": 993, "pitch": 74, "duration": 5, "velocity": 88}, {"time": 999, "pitch": 76, "duration": 11, "velocity": 93}, {"time": 1011, "pitch": 74, "duration": 10, "velocity": 86}, {"time": 1023, "pitch": 76, "duration": 5, "velocity": 84}, {"time": 1029, "pitch": 79, "duration": 4, "velocity": 85}, {"time": 1035, "pitch": 79, "duration": 5, "velocity": 84}, {"time": 1041, "pitch": 74, "duration": 2, "velocity": 86}, {"time": 1044, "pitch": 76, "duration": 3, "velocity": 88}, {"time": 1047, "pitch": 72, "duration": 20, "velocity": 83}, {"time": 1071, "pitch": 74, "duration": 7, "velocity": 85}, {"time": 1080, "pitch": 74, "duration": 2, "velocity": 87}, {"time": 1083, "pitch": 74, "duration": 5, "velocity": 87}, {"time": 1089, "pitch": 69, "duration": 2, "velocity": 84}, {"time": 1092, "pitch": 69, "duration": 2, "velocity": 84}, {"time": 1095, "pitch": 74, "duration": 8, "velocity": 86}, {"time": 1104, "pitch": 76, "duration": 4, "velocity": 80}, {"time": 1107, "pitch": 74, "duration": 10, "velocity": 86}, {"time": 1119, "pitch": 67, "duration": 5, "velocity": 82}, {"time": 1125, "pitch": 69, "duration": 6, "velocity": 83}, {"time": 1131, "pitch": 72, "duration": 6, "velocity": 82}, {"time": 1137, "pitch": 71, "duration": 7, "velocity": 80}, {"time": 1143, "pitch": 69, "duration": 23, "velocity": 81}, {"time": 1167, "pitch": 76, "duration": 11, "velocity": 93}, {"time": 1179, "pitch": 81, "duration": 11, "velocity": 89}, {"time": 1191, "pitch": 81, "duration": 20, "velocity": 86}, {"time": 1215, "pitch": 79, "duration": 5, "velocity": 86}, {"time": 1221, "pitch": 81, "duration": 5, "velocity": 88}, {"time": 1227, "pitch": 83, "duration": 6, "velocity": 86}, {"time": 1233, "pitch": 79, "duration": 3, "velocity": 85}, {"time": 1236, "pitch": 81, "duration": 2, "velocity": 87}, {"time": 1239, "pitch": 81, "duration": 19, "velocity": 83}, {"time": 1263, "pitch": 76, "duration": 5, "velocity": 88}, {"time": 1269, "pitch": 81, "duration": 4, "velocity": 83}, {"time": 1275, "pitch": 81, "duration": 4, "velocity": 84}, {"time": 1281, "pitch": 83, "duration": 5, "velocity": 84}, {"time": 1287, "pitch": 81, "duration": 11, "velocity": 83}, {"time": 1299, "pitch": 79, "duration": 10, "velocity": 83}, {"time": 1311, "pitch": 74, "duration": 5, "velocity": 89}, {"time": 1317, "pitch": 76, "duration": 5, "velocity": 89}, {"time": 1323, "pitch": 79, "duration": 5, "velocity": 86}, {"time": 1329, "pitch": 78, "duration": 5, "velocity": 83}, {"time": 1335, "pitch": 76, "duration": 22, "velocity": 86}, {"time": 1359, "pitch": 69, "duration": 11, "velocity": 83}, {"time": 1371, "pitch": 74, "duration": 6, "velocity": 86}, {"time": 1377, "pitch": 76, "duration": 7, "velocity": 83}, {"time": 1383, "pitch": 74, "duration": 21, "velocity": 83}, {"time": 1407, "pitch": 79, "duration": 5, "velocity": 84}, {"time": 1413, "pitch": 76, "duration": 11, "velocity": 84}, {"time": 1425, "pitch": 74, "duration": 6, "velocity": 85}, {"time": 1431, "pitch": 76, "duration": 3, "velocity": 85}, {"time": 1434, "pitch": 74, "duration": 4, "velocity": 82}, {"time": 1437, "pitch": 72, "duration": 15, "velocity": 82}, {"time": 1455, "pitch": 74, "duration": 7, "velocity": 84}, {"time": 1464, "pitch": 74, "duration": 2, "velocity": 86}, {"time": 1467, "pitch": 74, "duration": 5, "velocity": 89}, {"time": 1473, "pitch": 76, "duration": 5, "velocity": 83}, {"time": 1479, "pitch": 74, "duration": 10, "velocity": 83}, {"time": 1488, "pitch": 76, "duration": 3, "velocity": 84}, {"time": 1491, "pitch": 74, "duration": 10, "velocity": 84}, {"time": 1503, "pitch": 76, "duration": 5, "velocity": 84}, {"time": 1509, "pitch": 74, "duration": 11, "velocity": 85}, {"time": 1521, "pitch": 67, "duration": 5, "velocity": 83}, {"time": 1527, "pitch": 69, "duration": 22, "velocity": 84}, {"time": 1551, "pitch": 76, "duration": 11, "velocity": 93}, {"time": 1563, "pitch": 81, "duration": 11, "velocity": 89}, {"time": 1575, "pitch": 81, "duration": 20, "velocity": 86}, {"time": 1599, "pitch": 79, "duration": 5, "velocity": 86}, {"time": 1605, "pitch": 81, "duration": 5, "velocity": 88}, {"time": 1611, "pitch": 83, "duration": 6, "velocity": 86}, {"time": 1617, "pitch": 79, "duration": 3, "velocity": 85}, {"time": 1620, "pitch": 81, "duration": 2, "velocity": 87}, {"time": 1623, "pitch": 81, "duration": 19, "velocity": 83}, {"time": 1647, "pitch": 76, "duration": 5, "velocity": 88}, {"time": 1653, "pitch": 81, "duration": 3, "velocity": 83}, {"time": 1656, "pitch": 81, "duration": 3, "velocity": 83}, {"time": 1659, "pitch": 81, "duration": 4, "velocity": 84}, {"time": 1665, "pitch": 83, "duration": 5, "velocity": 84}, {"time": 1671, "pitch": 81, "duration": 11, "velocity": 83}, {"time": 1683, "pitch": 79, "duration": 10, "velocity": 83}, {"time": 1695, "pitch": 74, "duration": 5, "velocity": 89}, {"time": 1701, "pitch": 76, "duration": 5, "velocity": 89}, {"time": 1707, "pitch": 79, "duration": 5, "velocity": 86}, {"time": 1713, "pitch": 78, "duration": 5, "velocity": 83}, {"time": 1719, "pitch": 76, "duration": 22, "velocity": 86}, {"time": 1743, "pitch": 69, "duration": 11, "velocity": 83}, {"time": 1755, "pitch": 74, "duration": 6, "velocity": 86}, {"time": 1761, "pitch": 76, "duration": 7, "velocity": 83}, {"time": 1767, "pitch": 74, "duration": 21, "velocity": 83}, {"time": 1791, "pitch": 79, "duration": 5, "velocity": 84}, {"time": 1797, "pitch": 76, "duration": 11, "velocity": 84}, {"time": 1809, "pitch": 74, "duration": 6, "velocity": 85}, {"time": 1815, "pitch": 76, "duration": 3, "velocity": 85}, {"time": 1818, "pitch": 74, "duration": 4, "velocity": 82}, {"time": 1821, "pitch": 72, "duration": 15, "velocity": 82}, {"time": 1839, "pitch": 74, "duration": 7, "velocity": 84}, {"time": 1848, "pitch": 74, "duration": 2, "velocity": 86}, {"time": 1851, "pitch": 74, "duration": 5, "velocity": 89}, {"time": 1857, "pitch": 76, "duration": 5, "velocity": 83}, {"time": 1863, "pitch": 74, "duration": 10, "velocity": 83}, {"time": 1872, "pitch": 76, "duration": 3, "velocity": 84}, {"time": 1875, "pitch": 74, "duration": 10, "velocity": 84}, {"time": 1887, "pitch": 76, "duration": 5, "velocity": 84}, {"time": 1893, "pitch": 74, "duration": 11, "velocity": 85}, {"time": 1905, "pitch": 67, "duration": 5, "velocity": 83}, {"time": 1911, "pitch": 69, "duration": 22, "velocity": 84}, {"time": 2319, "pitch": 69, "duration": 5, "velocity": 88}, {"time": 2325, "pitch": 76, "duration": 2, "velocity": 84}, {"time": 2328, "pitch": 76, "duration": 8, "velocity": 84}, {"time": 2337, "pitch": 76, "duration": 3, "velocity": 86}, {"time": 2340, "pitch": 74, "duration": 2, "velocity": 83}, {"time": 2343, "pitch": 76, "duration": 19, "velocity": 83}, {"time": 2367, "pitch": 71, "duration": 5, "velocity": 83}, {"time": 2373, "pitch": 71, "duration": 5, "velocity": 83}, {"time": 2379, "pitch": 69, "duration": 6, "velocity": 82}, {"time": 2385, "pitch": 67, "duration": 6, "velocity": 79}, {"time": 2391, "pitch": 69, "duration": 20, "velocity": 82}, {"time": 2415, "pitch": 69, "duration": 5, "velocity": 84}, {"time": 2421, "pitch": 74, "duration": 4, "velocity": 87}, {"time": 2427, "pitch": 74, "duration": 5, "velocity": 87}, {"time": 2433, "pitch": 69, "duration": 6, "velocity": 84}, {"time": 2439, "pitch": 74, "duration": 6, "velocity": 85}, {"time": 2445, "pitch": 76, "duration": 7, "velocity": 82}, {"time": 2451, "pitch": 74, "duration": 11, "velocity": 83}, {"time": 2463, "pitch": 72, "duration": 7, "velocity": 85}, {"time": 2469, "pitch": 69, "duration": 6, "velocity": 80}, {"time": 2475, "pitch": 72, "duration": 6, "velocity": 83}, {"time": 2481, "pitch": 76, "duration": 5, "velocity": 84}, {"time": 2487, "pitch": 76, "duration": 21, "velocity": 84}, {"time": 2511, "pitch": 76, "duration": 5, "velocity": 86}, {"time": 2517, "pitch": 81, "duration": 4, "velocity": 87}, {"time": 2523, "pitch": 81, "duration": 5, "velocity": 84}, {"time": 2529, "pitch": 74, "duration": 5, "velocity": 88}, {"time": 2535, "pitch": 76, "duration": 11, "velocity": 93}, {"time": 2547, "pitch": 74, "duration": 10, "velocity": 86}, {"time": 2559, "pitch": 76, "duration": 5, "velocity": 84}, {"time": 2565, "pitch": 79, "duration": 4, "velocity": 85}, {"time": 2571, "pitch": 79, "duration": 5, "velocity": 84}, {"time": 2577, "pitch": 74, "duration": 2, "velocity": 86}, {"time": 2580, "pitch": 76, "duration": 3, "velocity": 88}, {"time": 2583, "pitch": 72, "duration": 20, "velocity": 83}, {"time": 2607, "pitch": 74, "duration": 7, "velocity": 85}, {"time": 2616, "pitch": 74, "duration": 2, "velocity": 87}, {"time": 2619, "pitch": 74, "duration": 5, "velocity": 87}, {"time": 2625, "pitch": 69, "duration": 2, "velocity": 84}, {"time": 2628, "pitch": 69, "duration": 2, "velocity": 84}, {"time": 2631, "pitch": 74, "duration": 8, "velocity": 86}, {"time": 2640, "pitch": 76, "duration": 4, "velocity": 80}, {"time": 2643, "pitch": 74, "duration": 10, "velocity": 86}, {"time": 2655, "pitch": 67, "duration": 5, "velocity": 82}, {"time": 2661, "pitch": 69, "duration": 6, "velocity": 83}, {"time": 2667, "pitch": 72, "duration": 6, "velocity": 82}, {"time": 2673, "pitch": 71, "duration": 7, "velocity": 80}, {"time": 2679, "pitch": 69, "duration": 23, "velocity": 81}, {"time": 2703, "pitch": 76, "duration": 11, "velocity": 93}, {"time": 2715, "pitch": 81, "duration": 11, "velocity": 89}, {"time": 2727, "pitch": 81, "duration": 20, "velocity": 86}, {"time": 2751, "pitch": 79, "duration": 5, "velocity": 86}, {"time": 2757, "pitch": 81, "duration": 5, "velocity": 88}, {"time": 2763, "pitch": 83, "duration": 6, "velocity": 86}, {"time": 2769, "pitch": 79, "duration": 3, "velocity": 85}, {"time": 2772, "pitch": 81, "duration": 2, "velocity": 87}, {"time": 2775, "pitch": 81, "duration": 19, "velocity": 83}, {"time": 2799, "pitch": 76, "duration": 5, "velocity": 88}, {"time": 2805, "pitch": 81, "duration": 4, "velocity": 83}, {"time": 2811, "pitch": 81, "duration": 4, "velocity": 84}, {"time": 2817, "pitch": 83, "duration": 5, "velocity": 84}, {"time": 2823, "pitch": 81, "duration": 11, "velocity": 83}, {"time": 2835, "pitch": 79, "duration": 10, "velocity": 83}, {"time": 2847, "pitch": 74, "duration": 5, "velocity": 89}, {"time": 2853, "pitch": 76, "duration": 5, "velocity": 89}, {"time": 2859, "pitch": 79, "duration": 5, "velocity": 86}, {"time": 2865, "pitch": 78, "duration": 5, "velocity": 83}, {"time": 2871, "pitch": 76, "duration": 22, "velocity": 86}, {"time": 2895, "pitch": 69, "duration": 11, "velocity": 83}, {"time": 2907, "pitch": 74, "duration": 6, "velocity": 86}, {"time": 2913, "pitch": 76, "duration": 7, "velocity": 83}, {"time": 2919, "pitch": 74, "duration": 21, "velocity": 83}, {"time": 2943, "pitch": 79, "duration": 5, "velocity": 84}, {"time": 2949, "pitch": 76, "duration": 11, "velocity": 84}, {"time": 2961, "pitch": 74, "duration": 6, "velocity": 85}, {"time": 2967, "pitch": 76, "duration": 3, "velocity": 85}, {"time": 2970, "pitch": 74, "duration": 4, "velocity": 82}, {"time": 2973, "pitch": 72, "duration": 15, "velocity": 82}, {"time": 2991, "pitch": 74, "duration": 7, "velocity": 84}, {"time": 3000, "pitch": 74, "duration": 2, "velocity": 86}, {"time": 3003, "pitch": 74, "duration": 5, "velocity": 89}, {"time": 3009, "pitch": 76, "duration": 5, "velocity": 83}, {"time": 3015, "pitch": 74, "duration": 10, "velocity": 83}, {"time": 3024, "pitch": 76, "duration": 3, "velocity": 84}, {"time": 3027, "pitch": 74, "duration": 10, "velocity": 84}, {"time": 3039, "pitch": 76, "duration": 5, "velocity": 84}, {"time": 3045, "pitch": 74, "duration": 11, "velocity": 85}, {"time": 3057, "pitch": 67, "duration": 5, "velocity": 83}, {"time": 3063, "pitch": 69, "duration": 22, "velocity": 84}, {"time": 3087, "pitch": 76, "duration": 11, "velocity": 93}, {"time": 3099, "pitch": 81, "duration": 11, "velocity": 89}, {"time": 3111, "pitch": 81, "duration": 20, "velocity": 86}, {"time": 3135, "pitch": 79, "duration": 5, "velocity": 86}, {"time": 3141, "pitch": 81, "duration": 5, "velocity": 88}, {"time": 3147, "pitch": 83, "duration": 6, "velocity": 86}, {"time": 3153, "pitch": 79, "duration": 3, "velocity": 85}, {"time": 3156, "pitch": 81, "duration": 2, "velocity": 87}, {"time": 3159, "pitch": 81, "duration": 19, "velocity": 83}, {"time": 3183, "pitch": 76, "duration": 5, "velocity": 88}, {"time": 3189, "pitch": 81, "duration": 3, "velocity": 83}, {"time": 3192, "pitch": 81, "duration": 3, "velocity": 83}, {"time": 3195, "pitch": 81, "duration": 4, "velocity": 84}, {"time": 3201, "pitch": 83, "duration": 5, "velocity": 84}, {"time": 3207, "pitch": 81, "duration": 11, "velocity": 83}, {"time": 3219, "pitch": 79, "duration": 10, "velocity": 83}, {"time": 3231, "pitch": 74, "duration": 5, "velocity": 89}, {"time": 3237, "pitch": 76, "duration": 5, "velocity": 89}, {"time": 3243, "pitch": 79, "duration": 5, "velocity": 86}, {"time": 3249, "pitch": 78, "duration": 5, "velocity": 83}, {"time": 3255, "pitch": 76, "duration": 22, "velocity": 86}, {"time": 3279, "pitch": 69, "duration": 11, "velocity": 83}, {"time": 3291, "pitch": 74, "duration": 6, "velocity": 86}, {"time": 3297, "pitch": 76, "duration": 7, "velocity": 83}, {"time": 3303, "pitch": 74, "duration": 21, "velocity": 83}, {"time": 3327, "pitch": 79, "duration": 5, "velocity": 84}, {"time": 3333, "pitch": 76, "duration": 11, "velocity": 84}, {"time": 3345, "pitch": 74, "duration": 6, "velocity": 85}, {"time": 3351, "pitch": 76, "duration": 3, "velocity": 85}, {"time": 3354, "pitch": 74, "duration": 4, "velocity": 82}, {"time": 3357, "pitch": 72, "duration": 15, "velocity": 82}, {"time": 3375, "pitch": 74, "duration": 7, "velocity": 84}, {"time": 3384, "pitch": 74, "duration": 2, "velocity": 86}, {"time": 3387, "pitch": 74, "duration": 5, "velocity": 89}, {"time": 3393, "pitch": 76, "duration": 5, "velocity": 83}, {"time": 3399, "pitch": 74, "duration": 10, "velocity": 83}, {"time": 3408, "pitch": 76, "duration": 3, "velocity": 84}, {"time": 3411, "pitch": 74, "duration": 10, "velocity": 84}, {"time": 3423, "pitch": 76, "duration": 5, "velocity": 84}, {"time": 3429, "pitch": 74, "duration": 11, "velocity": 85}, {"time": 3441, "pitch": 67, "duration": 5, "velocity": 83}, {"time": 3447, "pitch": 69, "duration": 22, "velocity": 84}, {"time": 3471, "pitch": 74, "duration": 7, "velocity": 84}, {"time": 3480, "pitch": 74, "duration": 2, "velocity": 86}, {"time": 3483, "pitch": 74, "duration": 5, "velocity": 89}, {"time": 3489, "pitch": 76, "duration": 5, "velocity": 83}, {"time": 3495, "pitch": 74, "duration": 10, "velocity": 83}, {"time": 3504, "pitch": 76, "duration": 3, "velocity": 84}, {"time": 3507, "pitch": 74, "duration": 10, "velocity": 84}, {"time": 3519, "pitch": 79, "duration": 4, "velocity": 86}, {"time": 3525, "pitch": 79, "duration": 24, "velocity": 89}, {"time": 3549, "pitch": 83, "duration": 12, "velocity": 86}, {"time": 3561, "pitch": 81, "duration": 6, "velocity": 86}, {"time": 3567, "pitch": 81, "duration": 1, "velocity": 86}]}, {"program": 0, "is_drum": false, "name": "PIANO", "notes": [{"time": 15, "pitch": 45, "duration": 41, "velocity": 80}, {"time": 15, "pitch": 57, "duration": 13, "velocity": 68}, {"time": 15, "pitch": 60, "duration": 9, "velocity": 76}, {"time": 21, "pitch": 52, "duration": 34, "velocity": 66}, {"time": 27, "pitch": 60, "duration": 7, "velocity": 77}, {"time": 27, "pitch": 64, "duration": 10, "velocity": 80}, {"time": 39, "pitch": 57, "duration": 3, "velocity": 73}, {"time": 39, "pitch": 60, "duration": 6, "velocity": 75}, {"time": 45, "pitch": 57, "duration": 4, "velocity": 70}, {"time": 51, "pitch": 60, "duration": 4, "velocity": 80}, {"time": 51, "pitch": 64, "duration": 11, "velocity": 83}, {"time": 63, "pitch": 40, "duration": 17, "velocity": 83}, {"time": 63, "pitch": 55, "duration": 5, "velocity": 73}, {"time": 63, "pitch": 59, "duration": 10, "velocity": 75}, {"time": 69, "pitch": 47, "duration": 9, "velocity": 63}, {"time": 75, "pitch": 59, "duration": 7, "velocity": 84}, {"time": 75, "pitch": 64, "duration": 10, "velocity": 84}, {"time": 81, "pitch": 55, "duration": 2, "velocity": 82}, {"time": 87, "pitch": 45, "duration": 22, "velocity": 82}, {"time": 87, "pitch": 57, "duration": 9, "velocity": 66}, {"time": 87, "pitch": 60, "duration": 8, "velocity": 75}, {"time": 93, "pitch": 52, "duration": 12, "velocity": 63}, {"time": 99, "pitch": 57, "duration": 3, "velocity": 75}, {"time": 99, "pitch": 60, "duration": 3, "velocity": 77}, {"time": 99, "pitch": 64, "duration": 3, "velocity": 83}, {"time": 111, "pitch": 45, "duration": 21, "velocity": 83}, {"time": 111, "pitch": 57, "duration": 7, "velocity": 75}, {"time": 111, "pitch": 64, "duration": 7, "velocity": 83}, {"time": 117, "pitch": 52, "duration": 14, "velocity": 69}, {"time": 123, "pitch": 57, "duration": 6, "velocity": 78}, {"time": 123, "pitch": 60, "duration": 5, "velocity": 83}, {"time": 135, "pitch": 50, "duration": 14, "velocity": 83}, {"time": 135, "pitch": 62, "duration": 7, "velocity": 77}, {"time": 141, "pitch": 57, "duration": 7, "velocity": 71}, {"time": 147, "pitch": 62, "duration": 6, "velocity": 78}, {"time": 147, "pitch": 65, "duration": 7, "velocity": 82}, {"time": 153, "pitch": 57, "duration": 2, "velocity": 78}, {"time": 159, "pitch": 43, "duration": 18, "velocity": 83}, {"time": 159, "pitch": 55, "duration": 10, "velocity": 82}, {"time": 165, "pitch": 50, "duration": 11, "velocity": 76}, {"time": 171, "pitch": 55, "duration": 3, "velocity": 82}, {"time": 171, "pitch": 62, "duration": 6, "velocity": 80}, {"time": 177, "pitch": 55, "duration": 1, "velocity": 78}, {"time": 183, "pitch": 40, "duration": 17, "velocity": 84}, {"time": 183, "pitch": 59, "duration": 4, "velocity": 78}, {"time": 183, "pitch": 67, "duration": 9, "velocity": 80}, {"time": 189, "pitch": 47, "duration": 10, "velocity": 73}, {"time": 195, "pitch": 59, "duration": 2, "velocity": 78}, {"time": 195, "pitch": 64, "duration": 3, "velocity": 86}, {"time": 198, "pitch": 62, "duration": 3, "velocity": 91}, {"time": 201, "pitch": 60, "duration": 3, "velocity": 83}, {"time": 204, "pitch": 59, "duration": 3, "velocity": 75}, {"time": 207, "pitch": 45, "duration": 16, "velocity": 83}, {"time": 207, "pitch": 57, "duration": 9, "velocity": 76}, {"time": 213, "pitch": 52, "duration": 9, "velocity": 70}, {"time": 219, "pitch": 57, "duration": 2, "velocity": 70}, {"time": 219, "pitch": 60, "duration": 5, "velocity": 77}, {"time": 219, "pitch": 64, "duration": 6, "velocity": 81}, {"time": 225, "pitch": 57, "duration": 10, "velocity": 74}, {"time": 231, "pitch": 45, "duration": 21, "velocity": 82}, {"time": 231, "pitch": 60, "duration": 5, "velocity": 75}, {"time": 231, "pitch": 64, "duration": 5, "velocity": 82}, {"time": 237, "pitch": 52, "duration": 7, "velocity": 70}, {"time": 243, "pitch": 57, "duration": 3, "velocity": 83}, {"time": 243, "pitch": 64, "duration": 4, "velocity": 85}, {"time": 246, "pitch": 52, "duration": 5, "velocity": 78}, {"time": 249, "pitch": 62, "duration": 4, "velocity": 82}, {"time": 252, "pitch": 60, "duration": 3, "velocity": 82}, {"time": 255, "pitch": 40, "duration": 17, "velocity": 84}, {"time": 255, "pitch": 64, "duration": 9, "velocity": 77}, {"time": 255, "pitch": 65, "duration": 1, "velocity": 74}, {"time": 261, "pitch": 47, "duration": 10, "velocity": 71}, {"time": 267, "pitch": 59, "duration": 2, "velocity": 79}, {"time": 267, "pitch": 64, "duration": 4, "velocity": 85}, {"time": 273, "pitch": 59, "duration": 5, "velocity": 82}, {"time": 279, "pitch": 40, "duration": 17, "velocity": 83}, {"time": 279, "pitch": 59, "duration": 10, "velocity": 76}, {"time": 279, "pitch": 64, "duration": 9, "velocity": 81}, {"time": 285, "pitch": 47, "duration": 10, "velocity": 66}, {"time": 291, "pitch": 59, "duration": 1, "velocity": 63}, {"time": 291, "pitch": 64, "duration": 7, "velocity": 84}, {"time": 291, "pitch": 67, "duration": 7, "velocity": 80}, {"time": 297, "pitch": 59, "duration": 2, "velocity": 81}, {"time": 303, "pitch": 50, "duration": 18, "velocity": 79}, {"time": 303, "pitch": 57, "duration": 16, "velocity": 77}, {"time": 303, "pitch": 62, "duration": 23, "velocity": 79}, {"time": 327, "pitch": 40, "duration": 14, "velocity": 84}, {"time": 327, "pitch": 59, "duration": 3, "velocity": 75}, {"time": 327, "pitch": 64, "duration": 7, "velocity": 82}, {"time": 333, "pitch": 47, "duration": 7, "velocity": 70}, {"time": 339, "pitch": 52, "duration": 3, "velocity": 83}, {"time": 339, "pitch": 55, "duration": 4, "velocity": 79}, {"time": 351, "pitch": 45, "duration": 44, "velocity": 82}, {"time": 351, "pitch": 57, "duration": 9, "velocity": 74}, {"time": 351, "pitch": 60, "duration": 7, "velocity": 76}, {"time": 357, "pitch": 52, "duration": 20, "velocity": 71}, {"time": 363, "pitch": 60, "duration": 3, "velocity": 75}, {"time": 363, "pitch": 64, "duration": 3, "velocity": 82}, {"time": 375, "pitch": 57, "duration": 6, "velocity": 70}, {"time": 375, "pitch": 60, "duration": 5, "velocity": 77}, {"time": 375, "pitch": 64, "duration": 7, "velocity": 80}, {"time": 381, "pitch": 52, "duration": 14, "velocity": 69}, {"time": 387, "pitch": 57, "duration": 3, "velocity": 79}, {"time": 387, "pitch": 64, "duration": 3, "velocity": 86}, {"time": 393, "pitch": 60, "duration": 3, "velocity": 81}, {"time": 396, "pitch": 59, "duration": 4, "velocity": 77}, {"time": 399, "pitch": 45, "duration": 40, "velocity": 82}, {"time": 399, "pitch": 57, "duration": 12, "velocity": 77}, {"time": 405, "pitch": 52, "duration": 34, "velocity": 72}, {"time": 411, "pitch": 60, "duration": 2, "velocity": 76}, {"time": 411, "pitch": 64, "duration": 2, "velocity": 81}, {"time": 423, "pitch": 60, "duration": 2, "velocity": 82}, {"time": 423, "pitch": 64, "duration": 2, "velocity": 81}, {"time": 429, "pitch": 57, "duration": 3, "velocity": 68}, {"time": 435, "pitch": 57, "duration": 2, "velocity": 77}, {"time": 435, "pitch": 60, "duration": 7, "velocity": 79}, {"time": 435, "pitch": 64, "duration": 6, "velocity": 84}, {"time": 441, "pitch": 57, "duration": 2, "velocity": 83}, {"time": 447, "pitch": 40, "duration": 16, "velocity": 81}, {"time": 447, "pitch": 55, "duration": 5, "velocity": 75}, {"time": 447, "pitch": 59, "duration": 6, "velocity": 76}, {"time": 453, "pitch": 47, "duration": 9, "velocity": 54}, {"time": 459, "pitch": 55, "duration": 3, "velocity": 78}, {"time": 459, "pitch": 59, "duration": 5, "velocity": 82}, {"time": 471, "pitch": 45, "duration": 21, "velocity": 82}, {"time": 471, "pitch": 57, "duration": 7, "velocity": 72}, {"time": 471, "pitch": 60, "duration": 7, "velocity": 76}, {"time": 477, "pitch": 52, "duration": 15, "velocity": 69}, {"time": 483, "pitch": 57, "duration": 5, "velocity": 78}, {"time": 483, "pitch": 64, "duration": 5, "velocity": 84}, {"time": 489, "pitch": 60, "duration": 2, "velocity": 82}, {"time": 495, "pitch": 50, "duration": 46, "velocity": 82}, {"time": 495, "pitch": 57, "duration": 3, "velocity": 74}, {"time": 495, "pitch": 62, "duration": 7, "velocity": 77}, {"time": 501, "pitch": 57, "duration": 6, "velocity": 75}, {"time": 507, "pitch": 62, "duration": 1, "velocity": 73}, {"time": 507, "pitch": 65, "duration": 1, "velocity": 82}, {"time": 519, "pitch": 62, "duration": 2, "velocity": 80}, {"time": 519, "pitch": 65, "duration": 2, "velocity": 83}, {"time": 525, "pitch": 57, "duration": 7, "velocity": 67}, {"time": 531, "pitch": 62, "duration": 7, "velocity": 78}, {"time": 531, "pitch": 65, "duration": 9, "velocity": 83}, {"time": 537, "pitch": 57, "duration": 3, "velocity": 81}, {"time": 543, "pitch": 45, "duration": 17, "velocity": 78}, {"time": 543, "pitch": 57, "duration": 9, "velocity": 70}, {"time": 543, "pitch": 60, "duration": 8, "velocity": 76}, {"time": 549, "pitch": 52, "duration": 10, "velocity": 73}, {"time": 555, "pitch": 57, "duration": 2, "velocity": 82}, {"time": 555, "pitch": 60, "duration": 7, "velocity": 87}, {"time": 555, "pitch": 64, "duration": 7, "velocity": 83}, {"time": 561, "pitch": 57, "duration": 2, "velocity": 84}, {"time": 567, "pitch": 40, "duration": 16, "velocity": 83}, {"time": 567, "pitch": 55, "duration": 4, "velocity": 76}, {"time": 567, "pitch": 59, "duration": 7, "velocity": 76}, {"time": 567, "pitch": 64, "duration": 7, "velocity": 84}, {"time": 573, "pitch": 55, "duration": 4, "velocity": 81}, {"time": 579, "pitch": 55, "duration": 3, "velocity": 82}, {"time": 579, "pitch": 59, "duration": 6, "velocity": 85}, {"time": 579, "pitch": 64, "duration": 9, "velocity": 85}, {"time": 585, "pitch": 55, "duration": 1, "velocity": 84}, {"time": 591, "pitch": 45, "duration": 22, "velocity": 83}, {"time": 591, "pitch": 57, "duration": 7, "velocity": 75}, {"time": 591, "pitch": 60, "duration": 6, "velocity": 78}, {"time": 597, "pitch": 52, "duration": 14, "velocity": 75}, {"time": 603, "pitch": 57, "duration": 2, "velocity": 78}, {"time": 603, "pitch": 60, "duration": 5, "velocity": 83}, {"time": 603, "pitch": 64, "duration": 5, "velocity": 86}, {"time": 609, "pitch": 57, "duration": 6, "velocity": 84}, {"time": 615, "pitch": 50, "duration": 17, "velocity": 82}, {"time": 615, "pitch": 65, "duration": 7, "velocity": 81}, {"time": 621, "pitch": 57, "duration": 7, "velocity": 84}, {"time": 627, "pitch": 62, "duration": 13, "velocity": 81}, {"time": 633, "pitch": 57, "duration": 2, "velocity": 76}, {"time": 639, "pitch": 40, "duration": 16, "velocity": 83}, {"time": 639, "pitch": 59, "duration": 13, "velocity": 75}, {"time": 639, "pitch": 64, "duration": 7, "velocity": 82}, {"time": 645, "pitch": 47, "duration": 9, "velocity": 66}, {"time": 651, "pitch": 64, "duration": 6, "velocity": 83}, {"time": 651, "pitch": 67, "duration": 5, "velocity": 82}, {"time": 657, "pitch": 59, "duration": 2, "velocity": 84}, {"time": 663, "pitch": 45, "duration": 18, "velocity": 82}, {"time": 663, "pitch": 57, "duration": 13, "velocity": 72}, {"time": 663, "pitch": 60, "duration": 11, "velocity": 75}, {"time": 669, "pitch": 52, "duration": 12, "velocity": 78}, {"time": 675, "pitch": 64, "duration": 6, "velocity": 91}, {"time": 681, "pitch": 60, "duration": 2, "velocity": 81}, {"time": 687, "pitch": 50, "duration": 42, "velocity": 83}, {"time": 687, "pitch": 57, "duration": 3, "velocity": 74}, {"time": 687, "pitch": 62, "duration": 7, "velocity": 80}, {"time": 693, "pitch": 57, "duration": 7, "velocity": 74}, {"time": 699, "pitch": 62, "duration": 2, "velocity": 76}, {"time": 699, "pitch": 65, "duration": 3, "velocity": 77}, {"time": 705, "pitch": 57, "duration": 5, "velocity": 75}, {"time": 711, "pitch": 57, "duration": 3, "velocity": 77}, {"time": 711, "pitch": 62, "duration": 7, "velocity": 82}, {"time": 711, "pitch": 65, "duration": 8, "velocity": 78}, {"time": 717, "pitch": 57, "duration": 3, "velocity": 70}, {"time": 723, "pitch": 57, "duration": 2, "velocity": 81}, {"time": 723, "pitch": 62, "duration": 5, "velocity": 80}, {"time": 723, "pitch": 65, "duration": 7, "velocity": 79}, {"time": 729, "pitch": 57, "duration": 4, "velocity": 77}, {"time": 735, "pitch": 40, "duration": 14, "velocity": 83}, {"time": 735, "pitch": 55, "duration": 3, "velocity": 80}, {"time": 735, "pitch": 59, "duration": 7, "velocity": 77}, {"time": 741, "pitch": 55, "duration": 7, "velocity": 75}, {"time": 747, "pitch": 59, "duration": 7, "velocity": 82}, {"time": 747, "pitch": 64, "duration": 6, "velocity": 84}, {"time": 753, "pitch": 55, "duration": 2, "velocity": 79}, {"time": 759, "pitch": 45, "duration": 21, "velocity": 82}, {"time": 759, "pitch": 57, "duration": 8, "velocity": 77}, {"time": 759, "pitch": 60, "duration": 8, "velocity": 79}, {"time": 765, "pitch": 52, "duration": 15, "velocity": 76}, {"time": 771, "pitch": 57, "duration": 6, "velocity": 78}, {"time": 771, "pitch": 60, "duration": 8, "velocity": 83}, {"time": 771, "pitch": 64, "duration": 8, "velocity": 83}, {"time": 783, "pitch": 45, "duration": 43, "velocity": 83}, {"time": 783, "pitch": 57, "duration": 8, "velocity": 47}, {"time": 783, "pitch": 60, "duration": 8, "velocity": 71}, {"time": 789, "pitch": 52, "duration": 36, "velocity": 76}, {"time": 795, "pitch": 57, "duration": 2, "velocity": 83}, {"time": 795, "pitch": 64, "duration": 6, "velocity": 82}, {"time": 801, "pitch": 57, "duration": 3, "velocity": 83}, {"time": 807, "pitch": 57, "duration": 3, "velocity": 75}, {"time": 807, "pitch": 60, "duration": 5, "velocity": 73}, {"time": 813, "pitch": 57, "duration": 2, "velocity": 56}, {"time": 819, "pitch": 57, "duration": 2, "velocity": 78}, {"time": 819, "pitch": 60, "duration": 6, "velocity": 83}, {"time": 819, "pitch": 64, "duration": 7, "velocity": 83}, {"time": 825, "pitch": 57, "duration": 2, "velocity": 84}, {"time": 831, "pitch": 40, "duration": 17, "velocity": 84}, {"time": 831, "pitch": 59, "duration": 6, "velocity": 78}, {"time": 834, "pitch": 47, "duration": 14, "velocity": 64}, {"time": 837, "pitch": 55, "duration": 6, "velocity": 71}, {"time": 840, "pitch": 59, "duration": 2, "velocity": 75}, {"time": 843, "pitch": 59, "duration": 7, "velocity": 77}, {"time": 843, "pitch": 64, "duration": 11, "velocity": 83}, {"time": 849, "pitch": 55, "duration": 2, "velocity": 82}, {"time": 855, "pitch": 45, "duration": 21, "velocity": 82}, {"time": 855, "pitch": 57, "duration": 8, "velocity": 67}, {"time": 855, "pitch": 60, "duration": 7, "velocity": 70}, {"time": 861, "pitch": 52, "duration": 15, "velocity": 69}, {"time": 867, "pitch": 57, "duration": 4, "velocity": 81}, {"time": 867, "pitch": 64, "duration": 4, "velocity": 84}, {"time": 873, "pitch": 60, "duration": 3, "velocity": 83}, {"time": 879, "pitch": 50, "duration": 19, "velocity": 83}, {"time": 879, "pitch": 57, "duration": 11, "velocity": 76}, {"time": 879, "pitch": 62, "duration": 10, "velocity": 80}, {"time": 885, "pitch": 53, "duration": 12, "velocity": 66}, {"time": 891, "pitch": 65, "duration": 6, "velocity": 85}, {"time": 897, "pitch": 57, "duration": 4, "velocity": 86}, {"time": 903, "pitch": 50, "duration": 23, "velocity": 83}, {"time": 903, "pitch": 57, "duration": 3, "velocity": 77}, {"time": 903, "pitch": 62, "duration": 7, "velocity": 77}, {"time": 909, "pitch": 57, "duration": 7, "velocity": 75}, {"time": 915, "pitch": 62, "duration": 11, "velocity": 82}, {"time": 915, "pitch": 65, "duration": 5, "velocity": 82}, {"time": 921, "pitch": 57, "duration": 4, "velocity": 71}, {"time": 927, "pitch": 45, "duration": 19, "velocity": 82}, {"time": 927, "pitch": 57, "duration": 8, "velocity": 80}, {"time": 927, "pitch": 60, "duration": 8, "velocity": 78}, {"time": 933, "pitch": 52, "duration": 20, "velocity": 73}, {"time": 939, "pitch": 57, "duration": 2, "velocity": 81}, {"time": 939, "pitch": 60, "duration": 7, "velocity": 83}, {"time": 939, "pitch": 64, "duration": 13, "velocity": 83}, {"time": 945, "pitch": 57, "duration": 4, "velocity": 83}, {"time": 951, "pitch": 43, "duration": 20, "velocity": 80}, {"time": 951, "pitch": 59, "duration": 6, "velocity": 83}, {"time": 954, "pitch": 52, "duration": 18, "velocity": 77}, {"time": 957, "pitch": 55, "duration": 4, "velocity": 83}, {"time": 960, "pitch": 59, "duration": 4, "velocity": 85}, {"time": 963, "pitch": 64, "duration": 6, "velocity": 88}, {"time": 966, "pitch": 59, "duration": 4, "velocity": 79}, {"time": 969, "pitch": 55, "duration": 2, "velocity": 84}, {"time": 975, "pitch": 45, "duration": 19, "velocity": 83}, {"time": 975, "pitch": 57, "duration": 9, "velocity": 75}, {"time": 975, "pitch": 60, "duration": 7, "velocity": 78}, {"time": 981, "pitch": 52, "duration": 13, "velocity": 70}, {"time": 987, "pitch": 57, "duration": 2, "velocity": 81}, {"time": 987, "pitch": 64, "duration": 6, "velocity": 83}, {"time": 993, "pitch": 57, "duration": 7, "velocity": 81}, {"time": 999, "pitch": 38, "duration": 19, "velocity": 83}, {"time": 999, "pitch": 62, "duration": 7, "velocity": 80}, {"time": 1005, "pitch": 57, "duration": 7, "velocity": 80}, {"time": 1011, "pitch": 65, "duration": 8, "velocity": 83}, {"time": 1017, "pitch": 57, "duration": 2, "velocity": 82}, {"time": 1023, "pitch": 40, "duration": 19, "velocity": 84}, {"time": 1023, "pitch": 59, "duration": 4, "velocity": 78}, {"time": 1023, "pitch": 67, "duration": 9, "velocity": 77}, {"time": 1029, "pitch": 59, "duration": 4, "velocity": 69}, {"time": 1035, "pitch": 59, "duration": 3, "velocity": 82}, {"time": 1035, "pitch": 64, "duration": 6, "velocity": 81}, {"time": 1035, "pitch": 67, "duration": 7, "velocity": 75}, {"time": 1038, "pitch": 47, "duration": 4, "velocity": 64}, {"time": 1041, "pitch": 59, "duration": 2, "velocity": 84}, {"time": 1047, "pitch": 45, "duration": 18, "velocity": 82}, {"time": 1047, "pitch": 57, "duration": 7, "velocity": 77}, {"time": 1047, "pitch": 60, "duration": 7, "velocity": 76}, {"time": 1053, "pitch": 52, "duration": 11, "velocity": 71}, {"time": 1059, "pitch": 57, "duration": 2, "velocity": 78}, {"time": 1059, "pitch": 60, "duration": 2, "velocity": 83}, {"time": 1059, "pitch": 64, "duration": 4, "velocity": 85}, {"time": 1062, "pitch": 62, "duration": 3, "velocity": 82}, {"time": 1065, "pitch": 60, "duration": 6, "velocity": 85}, {"time": 1071, "pitch": 40, "duration": 18, "velocity": 83}, {"time": 1071, "pitch": 59, "duration": 7, "velocity": 72}, {"time": 1071, "pitch": 67, "duration": 8, "velocity": 74}, {"time": 1077, "pitch": 47, "duration": 11, "velocity": 71}, {"time": 1083, "pitch": 59, "duration": 3, "velocity": 84}, {"time": 1083, "pitch": 64, "duration": 7, "velocity": 84}, {"time": 1089, "pitch": 59, "duration": 2, "velocity": 84}, {"time": 1095, "pitch": 38, "duration": 20, "velocity": 85}, {"time": 1095, "pitch": 57, "duration": 4, "velocity": 78}, {"time": 1095, "pitch": 62, "duration": 7, "velocity": 78}, {"time": 1101, "pitch": 57, "duration": 6, "velocity": 82}, {"time": 1107, "pitch": 62, "duration": 7, "velocity": 79}, {"time": 1107, "pitch": 65, "duration": 7, "velocity": 82}, {"time": 1113, "pitch": 57, "duration": 2, "velocity": 87}, {"time": 1119, "pitch": 40, "duration": 14, "velocity": 86}, {"time": 1125, "pitch": 59, "duration": 5, "velocity": 82}, {"time": 1131, "pitch": 59, "duration": 3, "velocity": 83}, {"time": 1131, "pitch": 64, "duration": 7, "velocity": 83}, {"time": 1137, "pitch": 59, "duration": 2, "velocity": 82}, {"time": 1143, "pitch": 45, "duration": 21, "velocity": 81}, {"time": 1143, "pitch": 57, "duration": 6, "velocity": 76}, {"time": 1143, "pitch": 60, "duration": 7, "velocity": 77}, {"time": 1149, "pitch": 52, "duration": 7, "velocity": 81}, {"time": 1152, "pitch": 57, "duration": 2, "velocity": 83}, {"time": 1155, "pitch": 57, "duration": 4, "velocity": 88}, {"time": 1155, "pitch": 60, "duration": 4, "velocity": 89}, {"time": 1158, "pitch": 52, "duration": 6, "velocity": 88}, {"time": 1161, "pitch": 62, "duration": 3, "velocity": 87}, {"time": 1167, "pitch": 45, "duration": 22, "velocity": 85}, {"time": 1167, "pitch": 57, "duration": 7, "velocity": 81}, {"time": 1167, "pitch": 64, "duration": 7, "velocity": 87}, {"time": 1173, "pitch": 52, "duration": 8, "velocity": 77}, {"time": 1179, "pitch": 60, "duration": 5, "velocity": 84}, {"time": 1179, "pitch": 64, "duration": 5, "velocity": 89}, {"time": 1182, "pitch": 52, "duration": 8, "velocity": 78}, {"time": 1185, "pitch": 57, "duration": 7, "velocity": 81}, {"time": 1188, "pitch": 60, "duration": 9, "velocity": 77}, {"time": 1191, "pitch": 45, "duration": 19, "velocity": 84}, {"time": 1194, "pitch": 52, "duration": 11, "velocity": 72}, {"time": 1197, "pitch": 57, "duration": 4, "velocity": 72}, {"time": 1200, "pitch": 60, "duration": 2, "velocity": 71}, {"time": 1203, "pitch": 60, "duration": 6, "velocity": 83}, {"time": 1203, "pitch": 64, "duration": 7, "velocity": 88}, {"time": 1206, "pitch": 52, "duration": 4, "velocity": 84}, {"time": 1209, "pitch": 57, "duration": 2, "velocity": 86}, {"time": 1215, "pitch": 40, "duration": 17, "velocity": 84}, {"time": 1215, "pitch": 59, "duration": 6, "velocity": 82}, {"time": 1218, "pitch": 47, "duration": 13, "velocity": 71}, {"time": 1221, "pitch": 52, "duration": 5, "velocity": 70}, {"time": 1224, "pitch": 55, "duration": 3, "velocity": 73}, {"time": 1227, "pitch": 59, "duration": 4, "velocity": 88}, {"time": 1230, "pitch": 55, "duration": 3, "velocity": 82}, {"time": 1233, "pitch": 52, "duration": 4, "velocity": 83}, {"time": 1236, "pitch": 55, "duration": 3, "velocity": 75}, {"time": 1239, "pitch": 45, "duration": 22, "velocity": 82}, {"time": 1239, "pitch": 57, "duration": 4, "velocity": 77}, {"time": 1242, "pitch": 52, "duration": 19, "velocity": 77}, {"time": 1245, "pitch": 57, "duration": 4, "velocity": 83}, {"time": 1248, "pitch": 60, "duration": 3, "velocity": 77}, {"time": 1251, "pitch": 64, "duration": 3, "velocity": 89}, {"time": 1254, "pitch": 60, "duration": 4, "velocity": 82}, {"time": 1257, "pitch": 57, "duration": 4, "velocity": 83}, {"time": 1263, "pitch": 45, "duration": 23, "velocity": 82}, {"time": 1263, "pitch": 60, "duration": 6, "velocity": 84}, {"time": 1266, "pitch": 52, "duration": 19, "velocity": 73}, {"time": 1269, "pitch": 57, "duration": 4, "velocity": 82}, {"time": 1272, "pitch": 60, "duration": 4, "velocity": 82}, {"time": 1275, "pitch": 64, "duration": 3, "velocity": 89}, {"time": 1278, "pitch": 60, "duration": 3, "velocity": 84}, {"time": 1281, "pitch": 57, "duration": 6, "velocity": 82}, {"time": 1284, "pitch": 60, "duration": 5, "velocity": 76}, {"time": 1287, "pitch": 45, "duration": 18, "velocity": 85}, {"time": 1287, "pitch": 64, "duration": 5, "velocity": 76}, {"time": 1290, "pitch": 52, "duration": 14, "velocity": 76}, {"time": 1290, "pitch": 57, "duration": 8, "velocity": 82}, {"time": 1293, "pitch": 60, "duration": 4, "velocity": 82}, {"time": 1296, "pitch": 64, "duration": 4, "velocity": 83}, {"time": 1299, "pitch": 69, "duration": 5, "velocity": 83}, {"time": 1302, "pitch": 64, "duration": 4, "velocity": 85}, {"time": 1305, "pitch": 60, "duration": 3, "velocity": 83}, {"time": 1308, "pitch": 57, "duration": 4, "velocity": 77}, {"time": 1311, "pitch": 43, "duration": 21, "velocity": 79}, {"time": 1311, "pitch": 55, "duration": 4, "velocity": 78}, {"time": 1311, "pitch": 59, "duration": 7, "velocity": 75}, {"time": 1314, "pitch": 50, "duration": 17, "velocity": 71}, {"time": 1317, "pitch": 55, "duration": 4, "velocity": 82}, {"time": 1320, "pitch": 59, "duration": 4, "velocity": 82}, {"time": 1323, "pitch": 62, "duration": 4, "velocity": 85}, {"time": 1326, "pitch": 59, "duration": 4, "velocity": 85}, {"time": 1329, "pitch": 55, "duration": 4, "velocity": 84}, {"time": 1332, "pitch": 59, "duration": 4, "velocity": 82}, {"time": 1335, "pitch": 40, "duration": 16, "velocity": 83}, {"time": 1335, "pitch": 64, "duration": 7, "velocity": 84}, {"time": 1338, "pitch": 47, "duration": 13, "velocity": 76}, {"time": 1341, "pitch": 55, "duration": 4, "velocity": 83}, {"time": 1344, "pitch": 59, "duration": 4, "velocity": 83}, {"time": 1347, "pitch": 64, "duration": 5, "velocity": 88}, {"time": 1350, "pitch": 59, "duration": 3, "velocity": 87}, {"time": 1353, "pitch": 55, "duration": 4, "velocity": 83}, {"time": 1356, "pitch": 59, "duration": 3, "velocity": 83}, {"time": 1359, "pitch": 45, "duration": 23, "velocity": 84}, {"time": 1359, "pitch": 57, "duration": 4, "velocity": 78}, {"time": 1359, "pitch": 60, "duration": 7, "velocity": 84}, {"time": 1362, "pitch": 52, "duration": 20, "velocity": 74}, {"time": 1365, "pitch": 57, "duration": 4, "velocity": 75}, {"time": 1368, "pitch": 60, "duration": 4, "velocity": 77}, {"time": 1371, "pitch": 64, "duration": 3, "velocity": 88}, {"time": 1374, "pitch": 60, "duration": 4, "velocity": 82}, {"time": 1377, "pitch": 57, "duration": 4, "velocity": 73}, {"time": 1380, "pitch": 60, "duration": 2, "velocity": 75}, {"time": 1383, "pitch": 50, "duration": 18, "velocity": 85}, {"time": 1383, "pitch": 62, "duration": 5, "velocity": 76}, {"time": 1386, "pitch": 53, "duration": 15, "velocity": 71}, {"time": 1389, "pitch": 57, "duration": 5, "velocity": 77}, {"time": 1392, "pitch": 62, "duration": 3, "velocity": 74}, {"time": 1395, "pitch": 65, "duration": 4, "velocity": 85}, {"time": 1398, "pitch": 62, "duration": 4, "velocity": 80}, {"time": 1401, "pitch": 57, "duration": 3, "velocity": 78}, {"time": 1407, "pitch": 40, "duration": 19, "velocity": 76}, {"time": 1407, "pitch": 59, "duration": 3, "velocity": 77}, {"time": 1407, "pitch": 64, "duration": 6, "velocity": 79}, {"time": 1410, "pitch": 47, "duration": 16, "velocity": 76}, {"time": 1413, "pitch": 59, "duration": 5, "velocity": 82}, {"time": 1416, "pitch": 64, "duration": 4, "velocity": 77}, {"time": 1419, "pitch": 67, "duration": 4, "velocity": 83}, {"time": 1422, "pitch": 64, "duration": 4, "velocity": 81}, {"time": 1425, "pitch": 59, "duration": 4, "velocity": 82}, {"time": 1428, "pitch": 64, "duration": 2, "velocity": 76}, {"time": 1431, "pitch": 45, "duration": 23, "velocity": 82}, {"time": 1431, "pitch": 60, "duration": 6, "velocity": 77}, {"time": 1434, "pitch": 52, "duration": 19, "velocity": 76}, {"time": 1437, "pitch": 57, "duration": 4, "velocity": 80}, {"time": 1440, "pitch": 60, "duration": 2, "velocity": 82}, {"time": 1443, "pitch": 64, "duration": 4, "velocity": 88}, {"time": 1446, "pitch": 57, "duration": 4, "velocity": 82}, {"time": 1449, "pitch": 60, "duration": 4, "velocity": 82}, {"time": 1452, "pitch": 57, "duration": 4, "velocity": 73}, {"time": 1455, "pitch": 50, "duration": 17, "velocity": 79}, {"time": 1455, "pitch": 62, "duration": 4, "velocity": 77}, {"time": 1458, "pitch": 57, "duration": 4, "velocity": 69}, {"time": 1461, "pitch": 62, "duration": 7, "velocity": 74}, {"time": 1464, "pitch": 57, "duration": 3, "velocity": 64}, {"time": 1467, "pitch": 65, "duration": 5, "velocity": 82}, {"time": 1470, "pitch": 57, "duration": 4, "velocity": 77}, {"time": 1473, "pitch": 62, "duration": 4, "velocity": 82}, {"time": 1476, "pitch": 57, "duration": 4, "velocity": 82}, {"time": 1479, "pitch": 38, "duration": 10, "velocity": 83}, {"time": 1479, "pitch": 65, "duration": 6, "velocity": 83}, {"time": 1482, "pitch": 57, "duration": 4, "velocity": 70}, {"time": 1485, "pitch": 62, "duration": 7, "velocity": 78}, {"time": 1488, "pitch": 57, "duration": 3, "velocity": 78}, {"time": 1491, "pitch": 65, "duration": 7, "velocity": 84}, {"time": 1494, "pitch": 57, "duration": 4, "velocity": 71}, {"time": 1497, "pitch": 62, "duration": 2, "velocity": 76}, {"time": 1503, "pitch": 40, "duration": 17, "velocity": 83}, {"time": 1503, "pitch": 59, "duration": 2, "velocity": 73}, {"time": 1503, "pitch": 64, "duration": 4, "velocity": 78}, {"time": 1506, "pitch": 59, "duration": 4, "velocity": 77}, {"time": 1509, "pitch": 64, "duration": 3, "velocity": 77}, {"time": 1512, "pitch": 67, "duration": 4, "velocity": 83}, {"time": 1515, "pitch": 64, "duration": 4, "velocity": 84}, {"time": 1518, "pitch": 59, "duration": 3, "velocity": 81}, {"time": 1521, "pitch": 64, "duration": 3, "velocity": 75}, {"time": 1524, "pitch": 59, "duration": 2, "velocity": 75}, {"time": 1527, "pitch": 45, "duration": 20, "velocity": 75}, {"time": 1527, "pitch": 57, "duration": 3, "velocity": 77}, {"time": 1527, "pitch": 60, "duration": 6, "velocity": 76}, {"time": 1530, "pitch": 52, "duration": 17, "velocity": 78}, {"time": 1533, "pitch": 57, "duration": 4, "velocity": 80}, {"time": 1536, "pitch": 60, "duration": 2, "velocity": 71}, {"time": 1539, "pitch": 64, "duration": 3, "velocity": 79}, {"time": 1542, "pitch": 60, "duration": 3, "velocity": 70}, {"time": 1545, "pitch": 57, "duration": 2, "velocity": 68}, {"time": 1551, "pitch": 45, "duration": 22, "velocity": 85}, {"time": 1551, "pitch": 57, "duration": 7, "velocity": 81}, {"time": 1551, "pitch": 64, "duration": 7, "velocity": 87}, {"time": 1557, "pitch": 52, "duration": 8, "velocity": 77}, {"time": 1563, "pitch": 60, "duration": 5, "velocity": 84}, {"time": 1563, "pitch": 64, "duration": 5, "velocity": 89}, {"time": 1566, "pitch": 52, "duration": 8, "velocity": 78}, {"time": 1569, "pitch": 57, "duration": 7, "velocity": 81}, {"time": 1572, "pitch": 60, "duration": 9, "velocity": 77}, {"time": 1575, "pitch": 45, "duration": 19, "velocity": 84}, {"time": 1578, "pitch": 52, "duration": 11, "velocity": 72}, {"time": 1581, "pitch": 57, "duration": 4, "velocity": 72}, {"time": 1584, "pitch": 60, "duration": 2, "velocity": 71}, {"time": 1587, "pitch": 60, "duration": 6, "velocity": 83}, {"time": 1587, "pitch": 64, "duration": 7, "velocity": 88}, {"time": 1590, "pitch": 52, "duration": 4, "velocity": 84}, {"time": 1593, "pitch": 57, "duration": 2, "velocity": 86}, {"time": 1599, "pitch": 40, "duration": 17, "velocity": 84}, {"time": 1599, "pitch": 59, "duration": 6, "velocity": 82}, {"time": 1602, "pitch": 47, "duration": 13, "velocity": 71}, {"time": 1605, "pitch": 52, "duration": 5, "velocity": 70}, {"time": 1608, "pitch": 55, "duration": 3, "velocity": 73}, {"time": 1611, "pitch": 59, "duration": 4, "velocity": 88}, {"time": 1614, "pitch": 55, "duration": 3, "velocity": 82}, {"time": 1617, "pitch": 52, "duration": 4, "velocity": 83}, {"time": 1620, "pitch": 55, "duration": 3, "velocity": 75}, {"time": 1623, "pitch": 45, "duration": 22, "velocity": 82}, {"time": 1623, "pitch": 57, "duration": 4, "velocity": 77}, {"time": 1626, "pitch": 52, "duration": 19, "velocity": 77}, {"time": 1629, "pitch": 57, "duration": 4, "velocity": 83}, {"time": 1632, "pitch": 60, "duration": 3, "velocity": 77}, {"time": 1635, "pitch": 64, "duration": 3, "velocity": 89}, {"time": 1638, "pitch": 60, "duration": 4, "velocity": 82}, {"time": 1641, "pitch": 57, "duration": 4, "velocity": 83}, {"time": 1647, "pitch": 45, "duration": 23, "velocity": 82}, {"time": 1647, "pitch": 60, "duration": 6, "velocity": 84}, {"time": 1650, "pitch": 52, "duration": 19, "velocity": 73}, {"time": 1653, "pitch": 57, "duration": 4, "velocity": 82}, {"time": 1656, "pitch": 60, "duration": 4, "velocity": 82}, {"time": 1659, "pitch": 64, "duration": 3, "velocity": 89}, {"time": 1662, "pitch": 60, "duration": 3, "velocity": 84}, {"time": 1665, "pitch": 57, "duration": 6, "velocity": 82}, {"time": 1668, "pitch": 60, "duration": 5, "velocity": 76}, {"time": 1671, "pitch": 45, "duration": 18, "velocity": 85}, {"time": 1671, "pitch": 64, "duration": 5, "velocity": 76}, {"time": 1674, "pitch": 52, "duration": 14, "velocity": 76}, {"time": 1674, "pitch": 57, "duration": 8, "velocity": 82}, {"time": 1677, "pitch": 60, "duration": 4, "velocity": 82}, {"time": 1680, "pitch": 64, "duration": 4, "velocity": 83}, {"time": 1683, "pitch": 69, "duration": 5, "velocity": 83}, {"time": 1686, "pitch": 64, "duration": 4, "velocity": 85}, {"time": 1689, "pitch": 60, "duration": 3, "velocity": 83}, {"time": 1692, "pitch": 57, "duration": 4, "velocity": 77}, {"time": 1695, "pitch": 43, "duration": 21, "velocity": 79}, {"time": 1695, "pitch": 55, "duration": 4, "velocity": 78}, {"time": 1695, "pitch": 59, "duration": 7, "velocity": 75}, {"time": 1698, "pitch": 50, "duration": 17, "velocity": 71}, {"time": 1701, "pitch": 55, "duration": 4, "velocity": 82}, {"time": 1704, "pitch": 59, "duration": 4, "velocity": 82}, {"time": 1707, "pitch": 62, "duration": 4, "velocity": 85}, {"time": 1710, "pitch": 59, "duration": 4, "velocity": 85}, {"time": 1713, "pitch": 55, "duration": 4, "velocity": 84}, {"time": 1716, "pitch": 59, "duration": 4, "velocity": 82}, {"time": 1719, "pitch": 40, "duration": 16, "velocity": 83}, {"time": 1719, "pitch": 64, "duration": 7, "velocity": 84}, {"time": 1722, "pitch": 47, "duration": 13, "velocity": 76}, {"time": 1725, "pitch": 55, "duration": 4, "velocity": 83}, {"time": 1728, "pitch": 59, "duration": 4, "velocity": 83}, {"time": 1731, "pitch": 64, "duration": 5, "velocity": 88}, {"time": 1734, "pitch": 59, "duration": 3, "velocity": 87}, {"time": 1737, "pitch": 55, "duration": 4, "velocity": 83}, {"time": 1740, "pitch": 59, "duration": 3, "velocity": 83}, {"time": 1743, "pitch": 45, "duration": 23, "velocity": 84}, {"time": 1743, "pitch": 57, "duration": 4, "velocity": 78}, {"time": 1743, "pitch": 60, "duration": 7, "velocity": 84}, {"time": 1746, "pitch": 52, "duration": 20, "velocity": 74}, {"time": 1749, "pitch": 57, "duration": 4, "velocity": 75}, {"time": 1752, "pitch": 60, "duration": 4, "velocity": 77}, {"time": 1755, "pitch": 64, "duration": 3, "velocity": 88}, {"time": 1758, "pitch": 60, "duration": 4, "velocity": 82}, {"time": 1761, "pitch": 57, "duration": 4, "velocity": 73}, {"time": 1764, "pitch": 60, "duration": 2, "velocity": 75}, {"time": 1767, "pitch": 50, "duration": 18, "velocity": 85}, {"time": 1767, "pitch": 62, "duration": 5, "velocity": 76}, {"time": 1770, "pitch": 53, "duration": 15, "velocity": 71}, {"time": 1773, "pitch": 57, "duration": 5, "velocity": 77}, {"time": 1776, "pitch": 62, "duration": 3, "velocity": 74}, {"time": 1779, "pitch": 65, "duration": 4, "velocity": 85}, {"time": 1782, "pitch": 62, "duration": 4, "velocity": 80}, {"time": 1785, "pitch": 57, "duration": 3, "velocity": 78}, {"time": 1791, "pitch": 40, "duration": 19, "velocity": 76}, {"time": 1791, "pitch": 59, "duration": 3, "velocity": 77}, {"time": 1791, "pitch": 64, "duration": 6, "velocity": 79}, {"time": 1794, "pitch": 47, "duration": 16, "velocity": 76}, {"time": 1797, "pitch": 59, "duration": 5, "velocity": 82}, {"time": 1800, "pitch": 64, "duration": 4, "velocity": 77}, {"time": 1803, "pitch": 67, "duration": 4, "velocity": 83}, {"time": 1806, "pitch": 64, "duration": 4, "velocity": 81}, {"time": 1809, "pitch": 59, "duration": 4, "velocity": 82}, {"time": 1812, "pitch": 64, "duration": 2, "velocity": 76}, {"time": 1815, "pitch": 45, "duration": 23, "velocity": 82}, {"time": 1815, "pitch": 60, "duration": 6, "velocity": 77}, {"time": 1818, "pitch": 52, "duration": 19, "velocity": 76}, {"time": 1821, "pitch": 57, "duration": 4, "velocity": 80}, {"time": 1824, "pitch": 60, "duration": 2, "velocity": 82}, {"time": 1827, "pitch": 64, "duration": 4, "velocity": 88}, {"time": 1830, "pitch": 57, "duration": 4, "velocity": 82}, {"time": 1833, "pitch": 60, "duration": 4, "velocity": 82}, {"time": 1836, "pitch": 57, "duration": 4, "velocity": 73}, {"time": 1839, "pitch": 50, "duration": 17, "velocity": 79}, {"time": 1839, "pitch": 62, "duration": 4, "velocity": 77}, {"time": 1842, "pitch": 57, "duration": 4, "velocity": 69}, {"time": 1845, "pitch": 62, "duration": 7, "velocity": 74}, {"time": 1848, "pitch": 57, "duration": 3, "velocity": 64}, {"time": 1851, "pitch": 65, "duration": 5, "velocity": 82}, {"time": 1854, "pitch": 57, "duration": 4, "velocity": 77}, {"time": 1857, "pitch": 62, "duration": 4, "velocity": 82}, {"time": 1860, "pitch": 57, "duration": 4, "velocity": 82}, {"time": 1863, "pitch": 38, "duration": 10, "velocity": 83}, {"time": 1863, "pitch": 65, "duration": 6, "velocity": 83}, {"time": 1866, "pitch": 57, "duration": 4, "velocity": 70}, {"time": 1869, "pitch": 62, "duration": 7, "velocity": 78}, {"time": 1872, "pitch": 57, "duration": 3, "velocity": 78}, {"time": 1875, "pitch": 65, "duration": 7, "velocity": 84}, {"time": 1878, "pitch": 57, "duration": 4, "velocity": 71}, {"time": 1881, "pitch": 62, "duration": 2, "velocity": 76}, {"time": 1885, "pitch": 52, "duration": 15, "velocity": 77}, {"time": 1886, "pitch": 55, "duration": 14, "velocity": 77}, {"time": 1886, "pitch": 40, "duration": 15, "velocity": 81}, {"time": 1887, "pitch": 59, "duration": 14, "velocity": 72}, {"time": 1909, "pitch": 57, "duration": 10, "velocity": 67}, {"time": 1910, "pitch": 60, "duration": 9, "velocity": 72}, {"time": 1910, "pitch": 45, "duration": 25, "velocity": 82}, {"time": 1911, "pitch": 64, "duration": 9, "velocity": 82}, {"time": 1917, "pitch": 52, "duration": 7, "velocity": 70}, {"time": 1923, "pitch": 60, "duration": 5, "velocity": 86}, {"time": 1923, "pitch": 57, "duration": 5, "velocity": 82}, {"time": 1926, "pitch": 52, "duration": 9, "velocity": 82}, {"time": 1929, "pitch": 59, "duration": 4, "velocity": 83}, {"time": 1932, "pitch": 60, "duration": 2, "velocity": 82}, {"time": 1935, "pitch": 45, "duration": 23, "velocity": 82}, {"time": 1938, "pitch": 52, "duration": 20, "velocity": 70}, {"time": 1941, "pitch": 57, "duration": 4, "velocity": 76}, {"time": 1944, "pitch": 60, "duration": 4, "velocity": 73}, {"time": 1947, "pitch": 64, "duration": 3, "velocity": 93}, {"time": 1950, "pitch": 60, "duration": 3, "velocity": 71}, {"time": 1953, "pitch": 57, "duration": 7, "velocity": 78}, {"time": 1956, "pitch": 60, "duration": 4, "velocity": 82}, {"time": 1959, "pitch": 45, "duration": 17, "velocity": 83}, {"time": 1959, "pitch": 64, "duration": 8, "velocity": 82}, {"time": 1962, "pitch": 52, "duration": 13, "velocity": 79}, {"time": 1965, "pitch": 57, "duration": 7, "velocity": 78}, {"time": 1968, "pitch": 60, "duration": 5, "velocity": 82}, {"time": 1971, "pitch": 69, "duration": 6, "velocity": 83}, {"time": 1974, "pitch": 64, "duration": 4, "velocity": 83}, {"time": 1977, "pitch": 60, "duration": 4, "velocity": 79}, {"time": 1980, "pitch": 57, "duration": 2, "velocity": 76}, {"time": 1983, "pitch": 40, "duration": 22, "velocity": 83}, {"time": 1983, "pitch": 64, "duration": 7, "velocity": 80}, {"time": 1986, "pitch": 47, "duration": 19, "velocity": 73}, {"time": 1989, "pitch": 59, "duration": 4, "velocity": 79}, {"time": 1992, "pitch": 64, "duration": 3, "velocity": 65}, {"time": 1995, "pitch": 67, "duration": 4, "velocity": 83}, {"time": 1998, "pitch": 64, "duration": 4, "velocity": 84}, {"time": 2001, "pitch": 59, "duration": 4, "velocity": 82}, {"time": 2004, "pitch": 64, "duration": 4, "velocity": 82}, {"time": 2007, "pitch": 40, "duration": 17, "velocity": 83}, {"time": 2007, "pitch": 59, "duration": 5, "velocity": 83}, {"time": 2010, "pitch": 64, "duration": 4, "velocity": 79}, {"time": 2013, "pitch": 67, "duration": 6, "velocity": 74}, {"time": 2016, "pitch": 59, "duration": 4, "velocity": 84}, {"time": 2019, "pitch": 64, "duration": 3, "velocity": 86}, {"time": 2022, "pitch": 67, "duration": 7, "velocity": 83}, {"time": 2025, "pitch": 59, "duration": 3, "velocity": 82}, {"time": 2028, "pitch": 64, "duration": 2, "velocity": 74}, {"time": 2031, "pitch": 45, "duration": 23, "velocity": 82}, {"time": 2031, "pitch": 60, "duration": 6, "velocity": 80}, {"time": 2034, "pitch": 52, "duration": 20, "velocity": 71}, {"time": 2037, "pitch": 57, "duration": 3, "velocity": 81}, {"time": 2040, "pitch": 60, "duration": 4, "velocity": 80}, {"time": 2043, "pitch": 64, "duration": 3, "velocity": 85}, {"time": 2046, "pitch": 60, "duration": 4, "velocity": 78}, {"time": 2049, "pitch": 57, "duration": 4, "velocity": 76}, {"time": 2052, "pitch": 64, "duration": 3, "velocity": 82}, {"time": 2055, "pitch": 50, "duration": 17, "velocity": 84}, {"time": 2055, "pitch": 62, "duration": 6, "velocity": 77}, {"time": 2058, "pitch": 53, "duration": 14, "velocity": 73}, {"time": 2061, "pitch": 57, "duration": 4, "velocity": 83}, {"time": 2064, "pitch": 62, "duration": 4, "velocity": 78}, {"time": 2067, "pitch": 65, "duration": 4, "velocity": 87}, {"time": 2070, "pitch": 62, "duration": 4, "velocity": 78}, {"time": 2073, "pitch": 57, "duration": 4, "velocity": 83}, {"time": 2076, "pitch": 62, "duration": 4, "velocity": 79}, {"time": 2079, "pitch": 43, "duration": 21, "velocity": 82}, {"time": 2079, "pitch": 59, "duration": 6, "velocity": 75}, {"time": 2082, "pitch": 50, "duration": 18, "velocity": 72}, {"time": 2085, "pitch": 55, "duration": 5, "velocity": 83}, {"time": 2088, "pitch": 59, "duration": 4, "velocity": 83}, {"time": 2091, "pitch": 62, "duration": 4, "velocity": 83}, {"time": 2094, "pitch": 59, "duration": 4, "velocity": 82}, {"time": 2097, "pitch": 55, "duration": 5, "velocity": 82}, {"time": 2100, "pitch": 59, "duration": 4, "velocity": 79}, {"time": 2103, "pitch": 40, "duration": 16, "velocity": 83}, {"time": 2103, "pitch": 64, "duration": 6, "velocity": 83}, {"time": 2106, "pitch": 55, "duration": 4, "velocity": 83}, {"time": 2109, "pitch": 59, "duration": 4, "velocity": 83}, {"time": 2112, "pitch": 64, "duration": 4, "velocity": 89}, {"time": 2115, "pitch": 55, "duration": 5, "velocity": 88}, {"time": 2118, "pitch": 59, "duration": 4, "velocity": 87}, {"time": 2121, "pitch": 64, "duration": 5, "velocity": 88}, {"time": 2124, "pitch": 55, "duration": 2, "velocity": 82}, {"time": 2127, "pitch": 45, "duration": 23, "velocity": 83}, {"time": 2127, "pitch": 57, "duration": 2, "velocity": 75}, {"time": 2127, "pitch": 60, "duration": 6, "velocity": 83}, {"time": 2130, "pitch": 52, "duration": 11, "velocity": 82}, {"time": 2133, "pitch": 57, "duration": 3, "velocity": 82}, {"time": 2136, "pitch": 60, "duration": 2, "velocity": 80}, {"time": 2139, "pitch": 57, "duration": 3, "velocity": 82}, {"time": 2139, "pitch": 60, "duration": 6, "velocity": 87}, {"time": 2139, "pitch": 64, "duration": 5, "velocity": 87}, {"time": 2142, "pitch": 52, "duration": 8, "velocity": 79}, {"time": 2145, "pitch": 57, "duration": 4, "velocity": 77}, {"time": 2148, "pitch": 60, "duration": 2, "velocity": 82}, {"time": 2151, "pitch": 50, "duration": 16, "velocity": 86}, {"time": 2151, "pitch": 62, "duration": 6, "velocity": 84}, {"time": 2154, "pitch": 53, "duration": 13, "velocity": 61}, {"time": 2157, "pitch": 57, "duration": 4, "velocity": 82}, {"time": 2160, "pitch": 62, "duration": 2, "velocity": 76}, {"time": 2163, "pitch": 57, "duration": 3, "velocity": 83}, {"time": 2163, "pitch": 65, "duration": 4, "velocity": 83}, {"time": 2166, "pitch": 62, "duration": 4, "velocity": 79}, {"time": 2169, "pitch": 57, "duration": 2, "velocity": 83}, {"time": 2175, "pitch": 40, "duration": 22, "velocity": 83}, {"time": 2175, "pitch": 59, "duration": 3, "velocity": 77}, {"time": 2175, "pitch": 64, "duration": 6, "velocity": 83}, {"time": 2178, "pitch": 47, "duration": 19, "velocity": 68}, {"time": 2181, "pitch": 59, "duration": 4, "velocity": 86}, {"time": 2184, "pitch": 64, "duration": 4, "velocity": 79}, {"time": 2187, "pitch": 67, "duration": 3, "velocity": 86}, {"time": 2190, "pitch": 64, "duration": 4, "velocity": 82}, {"time": 2193, "pitch": 59, "duration": 5, "velocity": 83}, {"time": 2196, "pitch": 64, "duration": 4, "velocity": 77}, {"time": 2199, "pitch": 45, "duration": 16, "velocity": 82}, {"time": 2199, "pitch": 60, "duration": 6, "velocity": 78}, {"time": 2202, "pitch": 52, "duration": 13, "velocity": 78}, {"time": 2205, "pitch": 57, "duration": 4, "velocity": 83}, {"time": 2208, "pitch": 60, "duration": 4, "velocity": 81}, {"time": 2211, "pitch": 64, "duration": 4, "velocity": 89}, {"time": 2214, "pitch": 60, "duration": 4, "velocity": 80}, {"time": 2217, "pitch": 57, "duration": 4, "velocity": 84}, {"time": 2223, "pitch": 38, "duration": 6, "velocity": 84}, {"time": 2223, "pitch": 57, "duration": 13, "velocity": 78}, {"time": 2223, "pitch": 62, "duration": 13, "velocity": 81}, {"time": 2245, "pitch": 52, "duration": 17, "velocity": 74}, {"time": 2246, "pitch": 55, "duration": 16, "velocity": 75}, {"time": 2246, "pitch": 40, "duration": 18, "velocity": 83}, {"time": 2247, "pitch": 59, "duration": 15, "velocity": 75}, {"time": 2248, "pitch": 64, "duration": 16, "velocity": 77}, {"time": 2269, "pitch": 57, "duration": 11, "velocity": 65}, {"time": 2270, "pitch": 60, "duration": 9, "velocity": 74}, {"time": 2271, "pitch": 45, "duration": 14, "velocity": 83}, {"time": 2271, "pitch": 64, "duration": 9, "velocity": 70}, {"time": 2276, "pitch": 52, "duration": 8, "velocity": 67}, {"time": 2282, "pitch": 60, "duration": 10, "velocity": 84}, {"time": 2283, "pitch": 69, "duration": 6, "velocity": 83}, {"time": 2283, "pitch": 64, "duration": 9, "velocity": 85}, {"time": 2283, "pitch": 57, "duration": 2, "velocity": 75}, {"time": 2289, "pitch": 57, "duration": 4, "velocity": 66}, {"time": 2295, "pitch": 69, "duration": 7, "velocity": 78}, {"time": 2295, "pitch": 60, "duration": 8, "velocity": 75}, {"time": 2295, "pitch": 64, "duration": 8, "velocity": 74}, {"time": 2295, "pitch": 57, "duration": 1, "velocity": 55}, {"time": 2300, "pitch": 57, "duration": 5, "velocity": 62}, {"time": 2306, "pitch": 69, "duration": 7, "velocity": 82}, {"time": 2309, "pitch": 64, "duration": 9, "velocity": 78}, {"time": 2312, "pitch": 60, "duration": 7, "velocity": 77}, {"time": 2319, "pitch": 45, "duration": 43, "velocity": 83}, {"time": 2319, "pitch": 57, "duration": 8, "velocity": 47}, {"time": 2319, "pitch": 60, "duration": 8, "velocity": 71}, {"time": 2325, "pitch": 52, "duration": 36, "velocity": 76}, {"time": 2331, "pitch": 57, "duration": 2, "velocity": 83}, {"time": 2331, "pitch": 64, "duration": 6, "velocity": 82}, {"time": 2337, "pitch": 57, "duration": 3, "velocity": 83}, {"time": 2343, "pitch": 57, "duration": 3, "velocity": 75}, {"time": 2343, "pitch": 60, "duration": 5, "velocity": 73}, {"time": 2349, "pitch": 57, "duration": 2, "velocity": 56}, {"time": 2355, "pitch": 57, "duration": 2, "velocity": 78}, {"time": 2355, "pitch": 60, "duration": 6, "velocity": 83}, {"time": 2355, "pitch": 64, "duration": 7, "velocity": 83}, {"time": 2361, "pitch": 57, "duration": 2, "velocity": 84}, {"time": 2367, "pitch": 40, "duration": 17, "velocity": 84}, {"time": 2367, "pitch": 59, "duration": 6, "velocity": 78}, {"time": 2370, "pitch": 47, "duration": 14, "velocity": 64}, {"time": 2373, "pitch": 55, "duration": 6, "velocity": 71}, {"time": 2376, "pitch": 59, "duration": 2, "velocity": 75}, {"time": 2379, "pitch": 59, "duration": 7, "velocity": 77}, {"time": 2379, "pitch": 64, "duration": 11, "velocity": 83}, {"time": 2385, "pitch": 55, "duration": 2, "velocity": 82}, {"time": 2391, "pitch": 45, "duration": 21, "velocity": 82}, {"time": 2391, "pitch": 57, "duration": 8, "velocity": 67}, {"time": 2391, "pitch": 60, "duration": 7, "velocity": 70}, {"time": 2397, "pitch": 52, "duration": 15, "velocity": 69}, {"time": 2403, "pitch": 57, "duration": 4, "velocity": 81}, {"time": 2403, "pitch": 64, "duration": 4, "velocity": 84}, {"time": 2409, "pitch": 60, "duration": 3, "velocity": 83}, {"time": 2415, "pitch": 50, "duration": 19, "velocity": 83}, {"time": 2415, "pitch": 57, "duration": 11, "velocity": 76}, {"time": 2415, "pitch": 62, "duration": 10, "velocity": 80}, {"time": 2421, "pitch": 53, "duration": 12, "velocity": 66}, {"time": 2427, "pitch": 65, "duration": 6, "velocity": 85}, {"time": 2433, "pitch": 57, "duration": 4, "velocity": 86}, {"time": 2439, "pitch": 50, "duration": 23, "velocity": 83}, {"time": 2439, "pitch": 57, "duration": 3, "velocity": 77}, {"time": 2439, "pitch": 62, "duration": 7, "velocity": 77}, {"time": 2445, "pitch": 57, "duration": 7, "velocity": 75}, {"time": 2451, "pitch": 62, "duration": 11, "velocity": 82}, {"time": 2451, "pitch": 65, "duration": 5, "velocity": 82}, {"time": 2457, "pitch": 57, "duration": 4, "velocity": 71}, {"time": 2463, "pitch": 45, "duration": 19, "velocity": 82}, {"time": 2463, "pitch": 57, "duration": 8, "velocity": 80}, {"time": 2463, "pitch": 60, "duration": 8, "velocity": 78}, {"time": 2469, "pitch": 52, "duration": 20, "velocity": 73}, {"time": 2475, "pitch": 57, "duration": 2, "velocity": 81}, {"time": 2475, "pitch": 60, "duration": 7, "velocity": 83}, {"time": 2475, "pitch": 64, "duration": 13, "velocity": 83}, {"time": 2481, "pitch": 57, "duration": 4, "velocity": 83}, {"time": 2487, "pitch": 43, "duration": 20, "velocity": 80}, {"time": 2487, "pitch": 59, "duration": 6, "velocity": 83}, {"time": 2490, "pitch": 52, "duration": 18, "velocity": 77}, {"time": 2493, "pitch": 55, "duration": 4, "velocity": 83}, {"time": 2496, "pitch": 59, "duration": 4, "velocity": 85}, {"time": 2499, "pitch": 64, "duration": 6, "velocity": 88}, {"time": 2502, "pitch": 59, "duration": 4, "velocity": 79}, {"time": 2505, "pitch": 55, "duration": 2, "velocity": 84}, {"time": 2511, "pitch": 45, "duration": 19, "velocity": 83}, {"time": 2511, "pitch": 57, "duration": 9, "velocity": 75}, {"time": 2511, "pitch": 60, "duration": 7, "velocity": 78}, {"time": 2517, "pitch": 52, "duration": 13, "velocity": 70}, {"time": 2523, "pitch": 57, "duration": 2, "velocity": 81}, {"time": 2523, "pitch": 64, "duration": 6, "velocity": 83}, {"time": 2529, "pitch": 57, "duration": 7, "velocity": 81}, {"time": 2535, "pitch": 38, "duration": 19, "velocity": 83}, {"time": 2535, "pitch": 62, "duration": 7, "velocity": 80}, {"time": 2541, "pitch": 57, "duration": 7, "velocity": 80}, {"time": 2547, "pitch": 65, "duration": 8, "velocity": 83}, {"time": 2553, "pitch": 57, "duration": 2, "velocity": 82}, {"time": 2559, "pitch": 40, "duration": 19, "velocity": 84}, {"time": 2559, "pitch": 59, "duration": 4, "velocity": 78}, {"time": 2559, "pitch": 67, "duration": 9, "velocity": 77}, {"time": 2565, "pitch": 59, "duration": 4, "velocity": 69}, {"time": 2571, "pitch": 59, "duration": 3, "velocity": 82}, {"time": 2571, "pitch": 64, "duration": 6, "velocity": 81}, {"time": 2571, "pitch": 67, "duration": 7, "velocity": 75}, {"time": 2574, "pitch": 47, "duration": 4, "velocity": 64}, {"time": 2577, "pitch": 59, "duration": 2, "velocity": 84}, {"time": 2583, "pitch": 45, "duration": 18, "velocity": 82}, {"time": 2583, "pitch": 57, "duration": 7, "velocity": 77}, {"time": 2583, "pitch": 60, "duration": 7, "velocity": 76}, {"time": 2589, "pitch": 52, "duration": 11, "velocity": 71}, {"time": 2595, "pitch": 57, "duration": 2, "velocity": 78}, {"time": 2595, "pitch": 60, "duration": 2, "velocity": 83}, {"time": 2595, "pitch": 64, "duration": 4, "velocity": 85}, {"time": 2598, "pitch": 62, "duration": 3, "velocity": 82}, {"time": 2601, "pitch": 60, "duration": 6, "velocity": 85}, {"time": 2607, "pitch": 40, "duration": 18, "velocity": 83}, {"time": 2607, "pitch": 59, "duration": 7, "velocity": 72}, {"time": 2607, "pitch": 67, "duration": 8, "velocity": 74}, {"time": 2613, "pitch": 47, "duration": 11, "velocity": 71}, {"time": 2619, "pitch": 59, "duration": 3, "velocity": 84}, {"time": 2619, "pitch": 64, "duration": 7, "velocity": 84}, {"time": 2625, "pitch": 59, "duration": 2, "velocity": 84}, {"time": 2631, "pitch": 38, "duration": 20, "velocity": 85}, {"time": 2631, "pitch": 57, "duration": 4, "velocity": 78}, {"time": 2631, "pitch": 62, "duration": 7, "velocity": 78}, {"time": 2637, "pitch": 57, "duration": 6, "velocity": 82}, {"time": 2643, "pitch": 62, "duration": 7, "velocity": 79}, {"time": 2643, "pitch": 65, "duration": 7, "velocity": 82}, {"time": 2649, "pitch": 57, "duration": 2, "velocity": 87}, {"time": 2655, "pitch": 40, "duration": 14, "velocity": 86}, {"time": 2661, "pitch": 59, "duration": 5, "velocity": 82}, {"time": 2667, "pitch": 59, "duration": 3, "velocity": 83}, {"time": 2667, "pitch": 64, "duration": 7, "velocity": 83}, {"time": 2673, "pitch": 59, "duration": 2, "velocity": 82}, {"time": 2679, "pitch": 45, "duration": 21, "velocity": 81}, {"time": 2679, "pitch": 57, "duration": 6, "velocity": 76}, {"time": 2679, "pitch": 60, "duration": 7, "velocity": 77}, {"time": 2685, "pitch": 52, "duration": 7, "velocity": 81}, {"time": 2688, "pitch": 57, "duration": 2, "velocity": 83}, {"time": 2691, "pitch": 57, "duration": 4, "velocity": 88}, {"time": 2691, "pitch": 60, "duration": 4, "velocity": 89}, {"time": 2694, "pitch": 52, "duration": 6, "velocity": 88}, {"time": 2697, "pitch": 62, "duration": 3, "velocity": 87}, {"time": 2703, "pitch": 45, "duration": 22, "velocity": 85}, {"time": 2703, "pitch": 57, "duration": 7, "velocity": 81}, {"time": 2703, "pitch": 64, "duration": 7, "velocity": 87}, {"time": 2709, "pitch": 52, "duration": 8, "velocity": 77}, {"time": 2715, "pitch": 60, "duration": 5, "velocity": 84}, {"time": 2715, "pitch": 64, "duration": 5, "velocity": 89}, {"time": 2718, "pitch": 52, "duration": 8, "velocity": 78}, {"time": 2721, "pitch": 57, "duration": 7, "velocity": 81}, {"time": 2724, "pitch": 60, "duration": 9, "velocity": 77}, {"time": 2727, "pitch": 45, "duration": 19, "velocity": 84}, {"time": 2730, "pitch": 52, "duration": 11, "velocity": 72}, {"time": 2733, "pitch": 57, "duration": 4, "velocity": 72}, {"time": 2736, "pitch": 60, "duration": 2, "velocity": 71}, {"time": 2739, "pitch": 60, "duration": 6, "velocity": 83}, {"time": 2739, "pitch": 64, "duration": 7, "velocity": 88}, {"time": 2742, "pitch": 52, "duration": 4, "velocity": 84}, {"time": 2745, "pitch": 57, "duration": 2, "velocity": 86}, {"time": 2751, "pitch": 40, "duration": 17, "velocity": 84}, {"time": 2751, "pitch": 59, "duration": 6, "velocity": 82}, {"time": 2754, "pitch": 47, "duration": 13, "velocity": 71}, {"time": 2757, "pitch": 52, "duration": 5, "velocity": 70}, {"time": 2760, "pitch": 55, "duration": 3, "velocity": 73}, {"time": 2763, "pitch": 59, "duration": 4, "velocity": 88}, {"time": 2766, "pitch": 55, "duration": 3, "velocity": 82}, {"time": 2769, "pitch": 52, "duration": 4, "velocity": 83}, {"time": 2772, "pitch": 55, "duration": 3, "velocity": 75}, {"time": 2775, "pitch": 45, "duration": 22, "velocity": 82}, {"time": 2775, "pitch": 57, "duration": 4, "velocity": 77}, {"time": 2778, "pitch": 52, "duration": 19, "velocity": 77}, {"time": 2781, "pitch": 57, "duration": 4, "velocity": 83}, {"time": 2784, "pitch": 60, "duration": 3, "velocity": 77}, {"time": 2787, "pitch": 64, "duration": 3, "velocity": 89}, {"time": 2790, "pitch": 60, "duration": 4, "velocity": 82}, {"time": 2793, "pitch": 57, "duration": 4, "velocity": 83}, {"time": 2799, "pitch": 45, "duration": 23, "velocity": 82}, {"time": 2799, "pitch": 60, "duration": 6, "velocity": 84}, {"time": 2802, "pitch": 52, "duration": 19, "velocity": 73}, {"time": 2805, "pitch": 57, "duration": 4, "velocity": 82}, {"time": 2808, "pitch": 60, "duration": 4, "velocity": 82}, {"time": 2811, "pitch": 64, "duration": 3, "velocity": 89}, {"time": 2814, "pitch": 60, "duration": 3, "velocity": 84}, {"time": 2817, "pitch": 57, "duration": 6, "velocity": 82}, {"time": 2820, "pitch": 60, "duration": 5, "velocity": 76}, {"time": 2823, "pitch": 45, "duration": 18, "velocity": 85}, {"time": 2823, "pitch": 64, "duration": 5, "velocity": 76}, {"time": 2826, "pitch": 52, "duration": 14, "velocity": 76}, {"time": 2826, "pitch": 57, "duration": 8, "velocity": 82}, {"time": 2829, "pitch": 60, "duration": 4, "velocity": 82}, {"time": 2832, "pitch": 64, "duration": 4, "velocity": 83}, {"time": 2835, "pitch": 69, "duration": 5, "velocity": 83}, {"time": 2838, "pitch": 64, "duration": 4, "velocity": 85}, {"time": 2841, "pitch": 60, "duration": 3, "velocity": 83}, {"time": 2844, "pitch": 57, "duration": 4, "velocity": 77}, {"time": 2847, "pitch": 43, "duration": 21, "velocity": 79}, {"time": 2847, "pitch": 55, "duration": 4, "velocity": 78}, {"time": 2847, "pitch": 59, "duration": 7, "velocity": 75}, {"time": 2850, "pitch": 50, "duration": 17, "velocity": 71}, {"time": 2853, "pitch": 55, "duration": 4, "velocity": 82}, {"time": 2856, "pitch": 59, "duration": 4, "velocity": 82}, {"time": 2859, "pitch": 62, "duration": 4, "velocity": 85}, {"time": 2862, "pitch": 59, "duration": 4, "velocity": 85}, {"time": 2865, "pitch": 55, "duration": 4, "velocity": 84}, {"time": 2868, "pitch": 59, "duration": 4, "velocity": 82}, {"time": 2871, "pitch": 40, "duration": 16, "velocity": 83}, {"time": 2871, "pitch": 64, "duration": 7, "velocity": 84}, {"time": 2874, "pitch": 47, "duration": 13, "velocity": 76}, {"time": 2877, "pitch": 55, "duration": 4, "velocity": 83}, {"time": 2880, "pitch": 59, "duration": 4, "velocity": 83}, {"time": 2883, "pitch": 64, "duration": 5, "velocity": 88}, {"time": 2886, "pitch": 59, "duration": 3, "velocity": 87}, {"time": 2889, "pitch": 55, "duration": 4, "velocity": 83}, {"time": 2892, "pitch": 59, "duration": 3, "velocity": 83}, {"time": 2895, "pitch": 45, "duration": 23, "velocity": 84}, {"time": 2895, "pitch": 57, "duration": 4, "velocity": 78}, {"time": 2895, "pitch": 60, "duration": 7, "velocity": 84}, {"time": 2898, "pitch": 52, "duration": 20, "velocity": 74}, {"time": 2901, "pitch": 57, "duration": 4, "velocity": 75}, {"time": 2904, "pitch": 60, "duration": 4, "velocity": 77}, {"time": 2907, "pitch": 64, "duration": 3, "velocity": 88}, {"time": 2910, "pitch": 60, "duration": 4, "velocity": 82}, {"time": 2913, "pitch": 57, "duration": 4, "velocity": 73}, {"time": 2916, "pitch": 60, "duration": 2, "velocity": 75}, {"time": 2919, "pitch": 50, "duration": 18, "velocity": 85}, {"time": 2919, "pitch": 62, "duration": 5, "velocity": 76}, {"time": 2922, "pitch": 53, "duration": 15, "velocity": 71}, {"time": 2925, "pitch": 57, "duration": 5, "velocity": 77}, {"time": 2928, "pitch": 62, "duration": 3, "velocity": 74}, {"time": 2931, "pitch": 65, "duration": 4, "velocity": 85}, {"time": 2934, "pitch": 62, "duration": 4, "velocity": 80}, {"time": 2937, "pitch": 57, "duration": 3, "velocity": 78}, {"time": 2943, "pitch": 40, "duration": 19, "velocity": 76}, {"time": 2943, "pitch": 59, "duration": 3, "velocity": 77}, {"time": 2943, "pitch": 64, "duration": 6, "velocity": 79}, {"time": 2946, "pitch": 47, "duration": 16, "velocity": 76}, {"time": 2949, "pitch": 59, "duration": 5, "velocity": 82}, {"time": 2952, "pitch": 64, "duration": 4, "velocity": 77}, {"time": 2955, "pitch": 67, "duration": 4, "velocity": 83}, {"time": 2958, "pitch": 64, "duration": 4, "velocity": 81}, {"time": 2961, "pitch": 59, "duration": 4, "velocity": 82}, {"time": 2964, "pitch": 64, "duration": 2, "velocity": 76}, {"time": 2967, "pitch": 45, "duration": 23, "velocity": 82}, {"time": 2967, "pitch": 60, "duration": 6, "velocity": 77}, {"time": 2970, "pitch": 52, "duration": 19, "velocity": 76}, {"time": 2973, "pitch": 57, "duration": 4, "velocity": 80}, {"time": 2976, "pitch": 60, "duration": 2, "velocity": 82}, {"time": 2979, "pitch": 64, "duration": 4, "velocity": 88}, {"time": 2982, "pitch": 57, "duration": 4, "velocity": 82}, {"time": 2985, "pitch": 60, "duration": 4, "velocity": 82}, {"time": 2988, "pitch": 57, "duration": 4, "velocity": 73}, {"time": 2991, "pitch": 50, "duration": 17, "velocity": 79}, {"time": 2991, "pitch": 62, "duration": 4, "velocity": 77}, {"time": 2994, "pitch": 57, "duration": 4, "velocity": 69}, {"time": 2997, "pitch": 62, "duration": 7, "velocity": 74}, {"time": 3000, "pitch": 57, "duration": 3, "velocity": 64}, {"time": 3003, "pitch": 65, "duration": 5, "velocity": 82}, {"time": 3006, "pitch": 57, "duration": 4, "velocity": 77}, {"time": 3009, "pitch": 62, "duration": 4, "velocity": 82}, {"time": 3012, "pitch": 57, "duration": 4, "velocity": 82}, {"time": 3015, "pitch": 38, "duration": 10, "velocity": 83}, {"time": 3015, "pitch": 65, "duration": 6, "velocity": 83}, {"time": 3018, "pitch": 57, "duration": 4, "velocity": 70}, {"time": 3021, "pitch": 62, "duration": 7, "velocity": 78}, {"time": 3024, "pitch": 57, "duration": 3, "velocity": 78}, {"time": 3027, "pitch": 65, "duration": 7, "velocity": 84}, {"time": 3030, "pitch": 57, "duration": 4, "velocity": 71}, {"time": 3033, "pitch": 62, "duration": 2, "velocity": 76}, {"time": 3039, "pitch": 40, "duration": 17, "velocity": 83}, {"time": 3039, "pitch": 59, "duration": 2, "velocity": 73}, {"time": 3039, "pitch": 64, "duration": 4, "velocity": 78}, {"time": 3042, "pitch": 59, "duration": 4, "velocity": 77}, {"time": 3045, "pitch": 64, "duration": 3, "velocity": 77}, {"time": 3048, "pitch": 67, "duration": 4, "velocity": 83}, {"time": 3051, "pitch": 64, "duration": 4, "velocity": 84}, {"time": 3054, "pitch": 59, "duration": 3, "velocity": 81}, {"time": 3057, "pitch": 64, "duration": 3, "velocity": 75}, {"time": 3060, "pitch": 59, "duration": 2, "velocity": 75}, {"time": 3063, "pitch": 45, "duration": 20, "velocity": 75}, {"time": 3063, "pitch": 57, "duration": 3, "velocity": 77}, {"time": 3063, "pitch": 60, "duration": 6, "velocity": 76}, {"time": 3066, "pitch": 52, "duration": 17, "velocity": 78}, {"time": 3069, "pitch": 57, "duration": 4, "velocity": 80}, {"time": 3072, "pitch": 60, "duration": 2, "velocity": 71}, {"time": 3075, "pitch": 64, "duration": 3, "velocity": 79}, {"time": 3078, "pitch": 60, "duration": 3, "velocity": 70}, {"time": 3081, "pitch": 57, "duration": 2, "velocity": 68}, {"time": 3087, "pitch": 45, "duration": 22, "velocity": 85}, {"time": 3087, "pitch": 57, "duration": 7, "velocity": 81}, {"time": 3087, "pitch": 64, "duration": 7, "velocity": 87}, {"time": 3093, "pitch": 52, "duration": 8, "velocity": 77}, {"time": 3099, "pitch": 60, "duration": 5, "velocity": 84}, {"time": 3099, "pitch": 64, "duration": 5, "velocity": 89}, {"time": 3102, "pitch": 52, "duration": 8, "velocity": 78}, {"time": 3105, "pitch": 57, "duration": 7, "velocity": 81}, {"time": 3108, "pitch": 60, "duration": 9, "velocity": 77}, {"time": 3111, "pitch": 45, "duration": 19, "velocity": 84}, {"time": 3114, "pitch": 52, "duration": 11, "velocity": 72}, {"time": 3117, "pitch": 57, "duration": 4, "velocity": 72}, {"time": 3120, "pitch": 60, "duration": 2, "velocity": 71}, {"time": 3123, "pitch": 60, "duration": 6, "velocity": 83}, {"time": 3123, "pitch": 64, "duration": 7, "velocity": 88}, {"time": 3126, "pitch": 52, "duration": 4, "velocity": 84}, {"time": 3129, "pitch": 57, "duration": 2, "velocity": 86}, {"time": 3135, "pitch": 40, "duration": 17, "velocity": 84}, {"time": 3135, "pitch": 59, "duration": 6, "velocity": 82}, {"time": 3138, "pitch": 47, "duration": 13, "velocity": 71}, {"time": 3141, "pitch": 52, "duration": 5, "velocity": 70}, {"time": 3144, "pitch": 55, "duration": 3, "velocity": 73}, {"time": 3147, "pitch": 59, "duration": 4, "velocity": 88}, {"time": 3150, "pitch": 55, "duration": 3, "velocity": 82}, {"time": 3153, "pitch": 52, "duration": 4, "velocity": 83}, {"time": 3156, "pitch": 55, "duration": 3, "velocity": 75}, {"time": 3159, "pitch": 45, "duration": 22, "velocity": 82}, {"time": 3159, "pitch": 57, "duration": 4, "velocity": 77}, {"time": 3162, "pitch": 52, "duration": 19, "velocity": 77}, {"time": 3165, "pitch": 57, "duration": 4, "velocity": 83}, {"time": 3168, "pitch": 60, "duration": 3, "velocity": 77}, {"time": 3171, "pitch": 64, "duration": 3, "velocity": 89}, {"time": 3174, "pitch": 60, "duration": 4, "velocity": 82}, {"time": 3177, "pitch": 57, "duration": 4, "velocity": 83}, {"time": 3183, "pitch": 45, "duration": 23, "velocity": 82}, {"time": 3183, "pitch": 60, "duration": 6, "velocity": 84}, {"time": 3186, "pitch": 52, "duration": 19, "velocity": 73}, {"time": 3189, "pitch": 57, "duration": 4, "velocity": 82}, {"time": 3192, "pitch": 60, "duration": 4, "velocity": 82}, {"time": 3195, "pitch": 64, "duration": 3, "velocity": 89}, {"time": 3198, "pitch": 60, "duration": 3, "velocity": 84}, {"time": 3201, "pitch": 57, "duration": 6, "velocity": 82}, {"time": 3204, "pitch": 60, "duration": 5, "velocity": 76}, {"time": 3207, "pitch": 45, "duration": 18, "velocity": 85}, {"time": 3207, "pitch": 64, "duration": 5, "velocity": 76}, {"time": 3210, "pitch": 52, "duration": 14, "velocity": 76}, {"time": 3210, "pitch": 57, "duration": 8, "velocity": 82}, {"time": 3213, "pitch": 60, "duration": 4, "velocity": 82}, {"time": 3216, "pitch": 64, "duration": 4, "velocity": 83}, {"time": 3219, "pitch": 69, "duration": 5, "velocity": 83}, {"time": 3222, "pitch": 64, "duration": 4, "velocity": 85}, {"time": 3225, "pitch": 60, "duration": 3, "velocity": 83}, {"time": 3228, "pitch": 57, "duration": 4, "velocity": 77}, {"time": 3231, "pitch": 43, "duration": 21, "velocity": 79}, {"time": 3231, "pitch": 55, "duration": 4, "velocity": 78}, {"time": 3231, "pitch": 59, "duration": 7, "velocity": 75}, {"time": 3234, "pitch": 50, "duration": 17, "velocity": 71}, {"time": 3237, "pitch": 55, "duration": 4, "velocity": 82}, {"time": 3240, "pitch": 59, "duration": 4, "velocity": 82}, {"time": 3243, "pitch": 62, "duration": 4, "velocity": 85}, {"time": 3246, "pitch": 59, "duration": 4, "velocity": 85}, {"time": 3249, "pitch": 55, "duration": 4, "velocity": 84}, {"time": 3252, "pitch": 59, "duration": 4, "velocity": 82}, {"time": 3255, "pitch": 40, "duration": 16, "velocity": 83}, {"time": 3255, "pitch": 64, "duration": 7, "velocity": 84}, {"time": 3258, "pitch": 47, "duration": 13, "velocity": 76}, {"time": 3261, "pitch": 55, "duration": 4, "velocity": 83}, {"time": 3264, "pitch": 59, "duration": 4, "velocity": 83}, {"time": 3267, "pitch": 64, "duration": 5, "velocity": 88}, {"time": 3270, "pitch": 59, "duration": 3, "velocity": 87}, {"time": 3273, "pitch": 55, "duration": 4, "velocity": 83}, {"time": 3276, "pitch": 59, "duration": 3, "velocity": 83}, {"time": 3279, "pitch": 45, "duration": 23, "velocity": 84}, {"time": 3279, "pitch": 57, "duration": 4, "velocity": 78}, {"time": 3279, "pitch": 60, "duration": 7, "velocity": 84}, {"time": 3282, "pitch": 52, "duration": 20, "velocity": 74}, {"time": 3285, "pitch": 57, "duration": 4, "velocity": 75}, {"time": 3288, "pitch": 60, "duration": 4, "velocity": 77}, {"time": 3291, "pitch": 64, "duration": 3, "velocity": 88}, {"time": 3294, "pitch": 60, "duration": 4, "velocity": 82}, {"time": 3297, "pitch": 57, "duration": 4, "velocity": 73}, {"time": 3300, "pitch": 60, "duration": 2, "velocity": 75}, {"time": 3303, "pitch": 50, "duration": 18, "velocity": 85}, {"time": 3303, "pitch": 62, "duration": 5, "velocity": 76}, {"time": 3306, "pitch": 53, "duration": 15, "velocity": 71}, {"time": 3309, "pitch": 57, "duration": 5, "velocity": 77}, {"time": 3312, "pitch": 62, "duration": 3, "velocity": 74}, {"time": 3315, "pitch": 65, "duration": 4, "velocity": 85}, {"time": 3318, "pitch": 62, "duration": 4, "velocity": 80}, {"time": 3321, "pitch": 57, "duration": 3, "velocity": 78}, {"time": 3327, "pitch": 40, "duration": 19, "velocity": 76}, {"time": 3327, "pitch": 59, "duration": 3, "velocity": 77}, {"time": 3327, "pitch": 64, "duration": 6, "velocity": 79}, {"time": 3330, "pitch": 47, "duration": 16, "velocity": 76}, {"time": 3333, "pitch": 59, "duration": 5, "velocity": 82}, {"time": 3336, "pitch": 64, "duration": 4, "velocity": 77}, {"time": 3339, "pitch": 67, "duration": 4, "velocity": 83}, {"time": 3342, "pitch": 64, "duration": 4, "velocity": 81}, {"time": 3345, "pitch": 59, "duration": 4, "velocity": 82}, {"time": 3348, "pitch": 64, "duration": 2, "velocity": 76}, {"time": 3351, "pitch": 45, "duration": 23, "velocity": 82}, {"time": 3351, "pitch": 60, "duration": 6, "velocity": 77}, {"time": 3354, "pitch": 52, "duration": 19, "velocity": 76}, {"time": 3357, "pitch": 57, "duration": 4, "velocity": 80}, {"time": 3360, "pitch": 60, "duration": 2, "velocity": 82}, {"time": 3363, "pitch": 64, "duration": 4, "velocity": 88}, {"time": 3366, "pitch": 57, "duration": 4, "velocity": 82}, {"time": 3369, "pitch": 60, "duration": 4, "velocity": 82}, {"time": 3372, "pitch": 57, "duration": 4, "velocity": 73}, {"time": 3375, "pitch": 50, "duration": 17, "velocity": 79}, {"time": 3375, "pitch": 62, "duration": 4, "velocity": 77}, {"time": 3378, "pitch": 57, "duration": 4, "velocity": 69}, {"time": 3381, "pitch": 62, "duration": 7, "velocity": 74}, {"time": 3384, "pitch": 57, "duration": 3, "velocity": 64}, {"time": 3387, "pitch": 65, "duration": 5, "velocity": 82}, {"time": 3390, "pitch": 57, "duration": 4, "velocity": 77}, {"time": 3393, "pitch": 62, "duration": 4, "velocity": 82}, {"time": 3396, "pitch": 57, "duration": 4, "velocity": 82}, {"time": 3399, "pitch": 38, "duration": 10, "velocity": 83}, {"time": 3399, "pitch": 65, "duration": 6, "velocity": 83}, {"time": 3402, "pitch": 57, "duration": 4, "velocity": 70}, {"time": 3405, "pitch": 62, "duration": 7, "velocity": 78}, {"time": 3408, "pitch": 57, "duration": 3, "velocity": 78}, {"time": 3411, "pitch": 65, "duration": 7, "velocity": 84}, {"time": 3414, "pitch": 57, "duration": 4, "velocity": 71}, {"time": 3417, "pitch": 62, "duration": 2, "velocity": 76}, {"time": 3421, "pitch": 52, "duration": 15, "velocity": 77}, {"time": 3422, "pitch": 55, "duration": 14, "velocity": 77}, {"time": 3422, "pitch": 40, "duration": 15, "velocity": 81}, {"time": 3423, "pitch": 59, "duration": 14, "velocity": 72}, {"time": 3445, "pitch": 57, "duration": 10, "velocity": 67}, {"time": 3446, "pitch": 60, "duration": 9, "velocity": 72}, {"time": 3446, "pitch": 45, "duration": 25, "velocity": 82}, {"time": 3447, "pitch": 64, "duration": 9, "velocity": 82}, {"time": 3453, "pitch": 52, "duration": 7, "velocity": 70}, {"time": 3459, "pitch": 60, "duration": 5, "velocity": 86}, {"time": 3459, "pitch": 57, "duration": 5, "velocity": 82}, {"time": 3462, "pitch": 52, "duration": 9, "velocity": 82}, {"time": 3465, "pitch": 59, "duration": 4, "velocity": 83}, {"time": 3468, "pitch": 60, "duration": 2, "velocity": 82}, {"time": 3471, "pitch": 50, "duration": 17, "velocity": 79}, {"time": 3471, "pitch": 62, "duration": 4, "velocity": 77}, {"time": 3474, "pitch": 57, "duration": 4, "velocity": 69}, {"time": 3477, "pitch": 62, "duration": 7, "velocity": 74}, {"time": 3480, "pitch": 57, "duration": 3, "velocity": 64}, {"time": 3483, "pitch": 65, "duration": 5, "velocity": 82}, {"time": 3486, "pitch": 57, "duration": 4, "velocity": 77}, {"time": 3489, "pitch": 62, "duration": 4, "velocity": 82}, {"time": 3492, "pitch": 57, "duration": 4, "velocity": 82}, {"time": 3495, "pitch": 38, "duration": 10, "velocity": 83}, {"time": 3495, "pitch": 65, "duration": 6, "velocity": 83}, {"time": 3498, "pitch": 57, "duration": 4, "velocity": 70}, {"time": 3501, "pitch": 62, "duration": 7, "velocity": 78}, {"time": 3504, "pitch": 57, "duration": 3, "velocity": 78}, {"time": 3507, "pitch": 65, "duration": 7, "velocity": 84}, {"time": 3510, "pitch": 57, "duration": 4, "velocity": 71}, {"time": 3513, "pitch": 62, "duration": 2, "velocity": 76}, {"time": 3517, "pitch": 52, "duration": 45, "velocity": 77}, {"time": 3518, "pitch": 55, "duration": 45, "velocity": 77}, {"time": 3518, "pitch": 40, "duration": 15, "velocity": 81}, {"time": 3519, "pitch": 59, "duration": 45, "velocity": 72}, {"time": 3566, "pitch": 57, "duration": 14, "velocity": 78}, {"time": 3566, "pitch": 45, "duration": 23, "velocity": 82}, {"time": 3567, "pitch": 60, "duration": 11, "velocity": 71}, {"time": 3569, "pitch": 64, "duration": 9, "velocity": 78}, {"time": 3573, "pitch": 52, "duration": 15, "velocity": 67}, {"time": 3579, "pitch": 60, "duration": 2, "velocity": 72}, {"time": 3580, "pitch": 69, "duration": 6, "velocity": 82}, {"time": 3585, "pitch": 57, "duration": 4, "velocity": 82}, {"time": 3591, "pitch": 45, "duration": 18, "velocity": 80}, {"time": 3591, "pitch": 60, "duration": 7, "velocity": 70}, {"time": 3591, "pitch": 64, "duration": 6, "velocity": 72}, {"time": 3597, "pitch": 52, "duration": 8, "velocity": 61}, {"time": 3600, "pitch": 57, "duration": 1, "velocity": 66}, {"time": 3603, "pitch": 57, "duration": 4, "velocity": 83}, {"time": 3603, "pitch": 64, "duration": 6, "velocity": 84}, {"time": 3606, "pitch": 52, "duration": 3, "velocity": 82}, {"time": 3609, "pitch": 57, "duration": 1, "velocity": 83}, {"time": 3615, "pitch": 62, "duration": 7, "velocity": 71}, {"time": 3615, "pitch": 38, "duration": 7, "velocity": 84}, {"time": 3621, "pitch": 57, "duration": 6, "velocity": 76}, {"time": 3627, "pitch": 65, "duration": 1, "velocity": 83}, {"time": 3632, "pitch": 62, "duration": 3, "velocity": 84}, {"time": 3637, "pitch": 62, "duration": 2, "velocity": 71}, {"time": 3638, "pitch": 65, "duration": 2, "velocity": 74}, {"time": 3639, "pitch": 50, "duration": 14, "velocity": 85}, {"time": 3639, "pitch": 69, "duration": 4, "velocity": 77}, {"time": 3641, "pitch": 57, "duration": 11, "velocity": 70}, {"time": 3644, "pitch": 62, "duration": 8, "velocity": 76}, {"time": 3647, "pitch": 65, "duration": 5, "velocity": 84}, {"time": 3650, "pitch": 74, "duration": 5, "velocity": 88}, {"time": 3653, "pitch": 69, "duration": 4, "velocity": 82}, {"time": 3656, "pitch": 62, "duration": 2, "velocity": 81}, {"time": 3662, "pitch": 59, "duration": 4, "velocity": 69}, {"time": 3663, "pitch": 64, "duration": 6, "velocity": 76}, {"time": 3663, "pitch": 40, "duration": 23, "velocity": 83}, {"time": 3666, "pitch": 47, "duration": 20, "velocity": 73}, {"time": 3669, "pitch": 59, "duration": 5, "velocity": 81}, {"time": 3672, "pitch": 64, "duration": 3, "velocity": 78}, {"time": 3675, "pitch": 67, "duration": 4, "velocity": 83}, {"time": 3678, "pitch": 64, "duration": 3, "velocity": 83}, {"time": 3681, "pitch": 59, "duration": 7, "velocity": 76}, {"time": 3684, "pitch": 64, "duration": 4, "velocity": 79}, {"time": 3688, "pitch": 67, "duration": 6, "velocity": 73}, {"time": 3688, "pitch": 40, "duration": 20, "velocity": 83}, {"time": 3691, "pitch": 59, "duration": 8, "velocity": 83}, {"time": 3694, "pitch": 64, "duration": 9, "velocity": 81}, {"time": 3698, "pitch": 67, "duration": 4, "velocity": 82}, {"time": 3702, "pitch": 71, "duration": 5, "velocity": 84}, {"time": 3705, "pitch": 67, "duration": 5, "velocity": 79}, {"time": 3709, "pitch": 64, "duration": 1, "velocity": 76}, {"time": 3716, "pitch": 45, "duration": 42, "velocity": 82}, {"time": 3719, "pitch": 52, "duration": 38, "velocity": 78}, {"time": 3721, "pitch": 57, "duration": 2, "velocity": 67}, {"time": 3723, "pitch": 59, "duration": 1, "velocity": 76}, {"time": 3725, "pitch": 60, "duration": 2, "velocity": 76}, {"time": 3727, "pitch": 64, "duration": 2, "velocity": 76}, {"time": 3729, "pitch": 69, "duration": 2, "velocity": 75}, {"time": 3731, "pitch": 71, "duration": 2, "velocity": 67}, {"time": 3734, "pitch": 72, "duration": 4, "velocity": 67}, {"time": 3737, "pitch": 76, "duration": 3, "velocity": 75}, {"time": 3749, "pitch": 72, "duration": 1, "velocity": 62}, {"time": 3750, "pitch": 76, "duration": 1, "velocity": 68}, {"time": 3750, "pitch": 81, "duration": 1, "velocity": 75}], "annotations": [{"time": 19, "annotation": {"number": 64, "value": 127}, "group": "control_change"}, {"time": 62, "annotation": {"number": 64, "value": 0}, "group": "control_change"}, {"time": 67, "annotation": {"number": 64, "value": 127}, "group": "control_change"}, {"time": 86, "annotation": {"number": 64, "value": 0}, "group": "control_change"}, {"time": 92, "annotation": {"number": 64, "value": 127}, "group": "control_change"}, {"time": 110, "annotation": {"number": 64, "value": 0}, "group": "control_change"}, {"time": 115, "annotation": {"number": 64, "value": 127}, "group": "control_change"}, {"time": 134, "annotation": {"number": 64, "value": 0}, "group": "control_change"}, {"time": 137, "annotation": {"number": 64, "value": 127}, "group": "control_change"}, {"time": 159, "annotation": {"number": 64, "value": 0}, "group": "control_change"}, {"time": 162, "annotation": {"number": 64, "value": 127}, "group": "control_change"}, {"time": 182, "annotation": {"number": 64, "value": 0}, "group": "control_change"}, {"time": 184, "annotation": {"number": 64, "value": 127}, "group": "control_change"}, {"time": 205, "annotation": {"number": 64, "value": 0}, "group": "control_change"}, {"time": 210, "annotation": {"number": 64, "value": 127}, "group": "control_change"}, {"time": 230, "annotation": {"number": 64, "value": 0}, "group": "control_change"}, {"time": 232, "annotation": {"number": 64, "value": 127}, "group": "control_change"}, {"time": 255, "annotation": {"number": 64, "value": 0}, "group": "control_change"}, {"time": 257, "annotation": {"number": 64, "value": 127}, "group": "control_change"}, {"time": 278, "annotation": {"number": 64, "value": 0}, "group": "control_change"}, {"time": 280, "annotation": {"number": 64, "value": 127}, "group": "control_change"}, {"time": 302, "annotation": {"number": 64, "value": 0}, "group": "control_change"}, {"time": 316, "annotation": {"number": 64, "value": 127}, "group": "control_change"}, {"time": 326, "annotation": {"number": 64, "value": 0}, "group": "control_change"}, {"time": 328, "annotation": {"number": 64, "value": 127}, "group": "control_change"}, {"time": 350, "annotation": {"number": 64, "value": 0}, "group": "control_change"}, {"time": 355, "annotation": {"number": 64, "value": 127}, "group": "control_change"}, {"time": 396, "annotation": {"number": 64, "value": 0}, "group": "control_change"}, {"time": 402, "annotation": {"number": 64, "value": 127}, "group": "control_change"}, {"time": 445, "annotation": {"number": 64, "value": 0}, "group": "control_change"}, {"time": 448, "annotation": {"number": 64, "value": 127}, "group": "control_change"}, {"time": 471, "annotation": {"number": 64, "value": 0}, "group": "control_change"}, {"time": 476, "annotation": {"number": 64, "value": 127}, "group": "control_change"}, {"time": 494, "annotation": {"number": 64, "value": 0}, "group": "control_change"}, {"time": 496, "annotation": {"number": 64, "value": 127}, "group": "control_change"}, {"time": 533, "annotation": {"number": 64, "value": 0}, "group": "control_change"}, {"time": 537, "annotation": {"number": 64, "value": 127}, "group": "control_change"}, {"time": 544, "annotation": {"number": 64, "value": 0}, "group": "control_change"}, {"time": 548, "annotation": {"number": 64, "value": 127}, "group": "control_change"}, {"time": 566, "annotation": {"number": 64, "value": 0}, "group": "control_change"}, {"time": 568, "annotation": {"number": 64, "value": 127}, "group": "control_change"}, {"time": 590, "annotation": {"number": 64, "value": 0}, "group": "control_change"}, {"time": 596, "annotation": {"number": 64, "value": 127}, "group": "control_change"}, {"time": 614, "annotation": {"number": 64, "value": 0}, "group": "control_change"}, {"time": 617, "annotation": {"number": 64, "value": 127}, "group": "control_change"}, {"time": 637, "annotation": {"number": 64, "value": 0}, "group": "control_change"}, {"time": 640, "annotation": {"number": 64, "value": 127}, "group": "control_change"}, {"time": 663, "annotation": {"number": 64, "value": 0}, "group": "control_change"}, {"time": 668, "annotation": {"number": 64, "value": 127}, "group": "control_change"}, {"time": 686, "annotation": {"number": 64, "value": 0}, "group": "control_change"}, {"time": 688, "annotation": {"number": 64, "value": 127}, "group": "control_change"}, {"time": 688, "annotation": {"number": 64, "value": 0}, "group": "control_change"}, {"time": 734, "annotation": {"number": 64, "value": 0}, "group": "control_change"}, {"time": 738, "annotation": {"number": 64, "value": 127}, "group": "control_change"}, {"time": 758, "annotation": {"number": 64, "value": 0}, "group": "control_change"}, {"time": 761, "annotation": {"number": 64, "value": 127}, "group": "control_change"}, {"time": 781, "annotation": {"number": 64, "value": 0}, "group": "control_change"}, {"time": 788, "annotation": {"number": 64, "value": 127}, "group": "control_change"}, {"time": 830, "annotation": {"number": 64, "value": 0}, "group": "control_change"}, {"time": 832, "annotation": {"number": 64, "value": 127}, "group": "control_change"}, {"time": 854, "annotation": {"number": 64, "value": 0}, "group": "control_change"}, {"time": 860, "annotation": {"number": 64, "value": 127}, "group": "control_change"}, {"time": 878, "annotation": {"number": 64, "value": 0}, "group": "control_change"}, {"time": 884, "annotation": {"number": 64, "value": 127}, "group": "control_change"}, {"time": 926, "annotation": {"number": 64, "value": 0}, "group": "control_change"}, {"time": 932, "annotation": {"number": 64, "value": 127}, "group": "control_change"}, {"time": 952, "annotation": {"number": 64, "value": 0}, "group": "control_change"}, {"time": 953, "annotation": {"number": 64, "value": 127}, "group": "control_change"}, {"time": 974, "annotation": {"number": 64, "value": 0}, "group": "control_change"}, {"time": 979, "annotation": {"number": 64, "value": 127}, "group": "control_change"}, {"time": 998, "annotation": {"number": 64, "value": 0}, "group": "control_change"}, {"time": 1001, "annotation": {"number": 64, "value": 127}, "group": "control_change"}, {"time": 1022, "annotation": {"number": 64, "value": 0}, "group": "control_change"}, {"time": 1024, "annotation": {"number": 64, "value": 127}, "group": "control_change"}, {"time": 1047, "annotation": {"number": 64, "value": 0}, "group": "control_change"}, {"time": 1052, "annotation": {"number": 64, "value": 127}, "group": "control_change"}, {"time": 1071, "annotation": {"number": 64, "value": 0}, "group": "control_change"}, {"time": 1072, "annotation": {"number": 64, "value": 127}, "group": "control_change"}, {"time": 1095, "annotation": {"number": 64, "value": 0}, "group": "control_change"}, {"time": 1099, "annotation": {"number": 64, "value": 127}, "group": "control_change"}, {"time": 1120, "annotation": {"number": 64, "value": 0}, "group": "control_change"}, {"time": 1122, "annotation": {"number": 64, "value": 127}, "group": "control_change"}, {"time": 1122, "annotation": {"number": 64, "value": 0}, "group": "control_change"}, {"time": 1142, "annotation": {"number": 64, "value": 0}, "group": "control_change"}, {"time": 1146, "annotation": {"number": 64, "value": 127}, "group": "control_change"}, {"time": 1165, "annotation": {"number": 64, "value": 0}, "group": "control_change"}, {"time": 1170, "annotation": {"number": 64, "value": 127}, "group": "control_change"}, {"time": 1190, "annotation": {"number": 64, "value": 0}, "group": "control_change"}, {"time": 1192, "annotation": {"number": 64, "value": 127}, "group": "control_change"}, {"time": 1214, "annotation": {"number": 64, "value": 0}, "group": "control_change"}, {"time": 1216, "annotation": {"number": 64, "value": 127}, "group": "control_change"}, {"time": 1238, "annotation": {"number": 64, "value": 0}, "group": "control_change"}, {"time": 1240, "annotation": {"number": 64, "value": 127}, "group": "control_change"}, {"time": 1262, "annotation": {"number": 64, "value": 0}, "group": "control_change"}, {"time": 1265, "annotation": {"number": 64, "value": 127}, "group": "control_change"}, {"time": 1286, "annotation": {"number": 64, "value": 0}, "group": "control_change"}, {"time": 1287, "annotation": {"number": 64, "value": 127}, "group": "control_change"}, {"time": 1310, "annotation": {"number": 64, "value": 0}, "group": "control_change"}, {"time": 1314, "annotation": {"number": 64, "value": 127}, "group": "control_change"}, {"time": 1335, "annotation": {"number": 64, "value": 0}, "group": "control_change"}, {"time": 1336, "annotation": {"number": 64, "value": 127}, "group": "control_change"}, {"time": 1358, "annotation": {"number": 64, "value": 0}, "group": "control_change"}, {"time": 1361, "annotation": {"number": 64, "value": 127}, "group": "control_change"}, {"time": 1382, "annotation": {"number": 64, "value": 0}, "group": "control_change"}, {"time": 1384, "annotation": {"number": 64, "value": 127}, "group": "control_change"}, {"time": 1406, "annotation": {"number": 64, "value": 0}, "group": "control_change"}, {"time": 1408, "annotation": {"number": 64, "value": 127}, "group": "control_change"}, {"time": 1432, "annotation": {"number": 64, "value": 0}, "group": "control_change"}, {"time": 1434, "annotation": {"number": 64, "value": 127}, "group": "control_change"}, {"time": 1453, "annotation": {"number": 64, "value": 0}, "group": "control_change"}, {"time": 1456, "annotation": {"number": 64, "value": 127}, "group": "control_change"}, {"time": 1478, "annotation": {"number": 64, "value": 0}, "group": "control_change"}, {"time": 1479, "annotation": {"number": 64, "value": 127}, "group": "control_change"}, {"time": 1502, "annotation": {"number": 64, "value": 0}, "group": "control_change"}, {"time": 1504, "annotation": {"number": 64, "value": 127}, "group": "control_change"}, {"time": 1526, "annotation": {"number": 64, "value": 0}, "group": "control_change"}, {"time": 1529, "annotation": {"number": 64, "value": 127}, "group": "control_change"}, {"time": 1550, "annotation": {"number": 64, "value": 0}, "group": "control_change"}, {"time": 1554, "annotation": {"number": 64, "value": 127}, "group": "control_change"}, {"time": 1574, "annotation": {"number": 64, "value": 0}, "group": "control_change"}, {"time": 1576, "annotation": {"number": 64, "value": 127}, "group": "control_change"}, {"time": 1598, "annotation": {"number": 64, "value": 0}, "group": "control_change"}, {"time": 1600, "annotation": {"number": 64, "value": 127}, "group": "control_change"}, {"time": 1622, "annotation": {"number": 64, "value": 0}, "group": "control_change"}, {"time": 1624, "annotation": {"number": 64, "value": 127}, "group": "control_change"}, {"time": 1646, "annotation": {"number": 64, "value": 0}, "group": "control_change"}, {"time": 1649, "annotation": {"number": 64, "value": 127}, "group": "control_change"}, {"time": 1670, "annotation": {"number": 64, "value": 0}, "group": "control_change"}, {"time": 1671, "annotation": {"number": 64, "value": 127}, "group": "control_change"}, {"time": 1694, "annotation": {"number": 64, "value": 0}, "group": "control_change"}, {"time": 1698, "annotation": {"number": 64, "value": 127}, "group": "control_change"}, {"time": 1719, "annotation": {"number": 64, "value": 0}, "group": "control_change"}, {"time": 1720, "annotation": {"number": 64, "value": 127}, "group": "control_change"}, {"time": 1742, "annotation": {"number": 64, "value": 0}, "group": "control_change"}, {"time": 1745, "annotation": {"number": 64, "value": 127}, "group": "control_change"}, {"time": 1766, "annotation": {"number": 64, "value": 0}, "group": "control_change"}, {"time": 1768, "annotation": {"number": 64, "value": 127}, "group": "control_change"}, {"time": 1790, "annotation": {"number": 64, "value": 0}, "group": "control_change"}, {"time": 1792, "annotation": {"number": 64, "value": 127}, "group": "control_change"}, {"time": 1816, "annotation": {"number": 64, "value": 0}, "group": "control_change"}, {"time": 1818, "annotation": {"number": 64, "value": 127}, "group": "control_change"}, {"time": 1837, "annotation": {"number": 64, "value": 0}, "group": "control_change"}, {"time": 1840, "annotation": {"number": 64, "value": 127}, "group": "control_change"}, {"time": 1862, "annotation": {"number": 64, "value": 0}, "group": "control_change"}, {"time": 1863, "annotation": {"number": 64, "value": 127}, "group": "control_change"}, {"time": 1886, "annotation": {"number": 64, "value": 0}, "group": "control_change"}, {"time": 1888, "annotation": {"number": 64, "value": 127}, "group": "control_change"}, {"time": 1909, "annotation": {"number": 64, "value": 0}, "group": "control_change"}, {"time": 1912, "annotation": {"number": 64, "value": 127}, "group": "control_change"}, {"time": 1931, "annotation": {"number": 64, "value": 0}, "group": "control_change"}, {"time": 1958, "annotation": {"number": 64, "value": 0}, "group": "control_change"}, {"time": 1959, "annotation": {"number": 64, "value": 127}, "group": "control_change"}, {"time": 1983, "annotation": {"number": 64, "value": 0}, "group": "control_change"}, {"time": 1985, "annotation": {"number": 64, "value": 127}, "group": "control_change"}, {"time": 2006, "annotation": {"number": 64, "value": 0}, "group": "control_change"}, {"time": 2007, "annotation": {"number": 64, "value": 127}, "group": "control_change"}, {"time": 2030, "annotation": {"number": 64, "value": 0}, "group": "control_change"}, {"time": 2033, "annotation": {"number": 64, "value": 127}, "group": "control_change"}, {"time": 2054, "annotation": {"number": 64, "value": 0}, "group": "control_change"}, {"time": 2056, "annotation": {"number": 64, "value": 127}, "group": "control_change"}, {"time": 2079, "annotation": {"number": 64, "value": 0}, "group": "control_change"}, {"time": 2081, "annotation": {"number": 64, "value": 127}, "group": "control_change"}, {"time": 2103, "annotation": {"number": 64, "value": 0}, "group": "control_change"}, {"time": 2105, "annotation": {"number": 64, "value": 127}, "group": "control_change"}, {"time": 2126, "annotation": {"number": 64, "value": 0}, "group": "control_change"}, {"time": 2128, "annotation": {"number": 64, "value": 127}, "group": "control_change"}, {"time": 2150, "annotation": {"number": 64, "value": 0}, "group": "control_change"}, {"time": 2152, "annotation": {"number": 64, "value": 127}, "group": "control_change"}, {"time": 2174, "annotation": {"number": 64, "value": 0}, "group": "control_change"}, {"time": 2178, "annotation": {"number": 64, "value": 127}, "group": "control_change"}, {"time": 2198, "annotation": {"number": 64, "value": 0}, "group": "control_change"}, {"time": 2200, "annotation": {"number": 64, "value": 127}, "group": "control_change"}, {"time": 2223, "annotation": {"number": 64, "value": 0}, "group": "control_change"}, {"time": 2226, "annotation": {"number": 64, "value": 127}, "group": "control_change"}, {"time": 2245, "annotation": {"number": 64, "value": 0}, "group": "control_change"}, {"time": 2260, "annotation": {"number": 64, "value": 127}, "group": "control_change"}, {"time": 2270, "annotation": {"number": 64, "value": 0}, "group": "control_change"}, {"time": 2272, "annotation": {"number": 64, "value": 127}, "group": "control_change"}, {"time": 2272, "annotation": {"number": 64, "value": 0}, "group": "control_change"}, {"time": 2317, "annotation": {"number": 64, "value": 0}, "group": "control_change"}, {"time": 2324, "annotation": {"number": 64, "value": 127}, "group": "control_change"}, {"time": 2366, "annotation": {"number": 64, "value": 0}, "group": "control_change"}, {"time": 2368, "annotation": {"number": 64, "value": 127}, "group": "control_change"}, {"time": 2390, "annotation": {"number": 64, "value": 0}, "group": "control_change"}, {"time": 2396, "annotation": {"number": 64, "value": 127}, "group": "control_change"}, {"time": 2414, "annotation": {"number": 64, "value": 0}, "group": "control_change"}, {"time": 2420, "annotation": {"number": 64, "value": 127}, "group": "control_change"}, {"time": 2462, "annotation": {"number": 64, "value": 0}, "group": "control_change"}, {"time": 2468, "annotation": {"number": 64, "value": 127}, "group": "control_change"}, {"time": 2488, "annotation": {"number": 64, "value": 0}, "group": "control_change"}, {"time": 2489, "annotation": {"number": 64, "value": 127}, "group": "control_change"}, {"time": 2510, "annotation": {"number": 64, "value": 0}, "group": "control_change"}, {"time": 2515, "annotation": {"number": 64, "value": 127}, "group": "control_change"}, {"time": 2534, "annotation": {"number": 64, "value": 0}, "group": "control_change"}, {"time": 2537, "annotation": {"number": 64, "value": 127}, "group": "control_change"}, {"time": 2558, "annotation": {"number": 64, "value": 0}, "group": "control_change"}, {"time": 2560, "annotation": {"number": 64, "value": 127}, "group": "control_change"}, {"time": 2583, "annotation": {"number": 64, "value": 0}, "group": "control_change"}, {"time": 2588, "annotation": {"number": 64, "value": 127}, "group": "control_change"}, {"time": 2607, "annotation": {"number": 64, "value": 0}, "group": "control_change"}, {"time": 2608, "annotation": {"number": 64, "value": 127}, "group": "control_change"}, {"time": 2631, "annotation": {"number": 64, "value": 0}, "group": "control_change"}, {"time": 2635, "annotation": {"number": 64, "value": 127}, "group": "control_change"}, {"time": 2656, "annotation": {"number": 64, "value": 0}, "group": "control_change"}, {"time": 2658, "annotation": {"number": 64, "value": 127}, "group": "control_change"}, {"time": 2658, "annotation": {"number": 64, "value": 0}, "group": "control_change"}, {"time": 2678, "annotation": {"number": 64, "value": 0}, "group": "control_change"}, {"time": 2682, "annotation": {"number": 64, "value": 127}, "group": "control_change"}, {"time": 2701, "annotation": {"number": 64, "value": 0}, "group": "control_change"}, {"time": 2706, "annotation": {"number": 64, "value": 127}, "group": "control_change"}, {"time": 2726, "annotation": {"number": 64, "value": 0}, "group": "control_change"}, {"time": 2728, "annotation": {"number": 64, "value": 127}, "group": "control_change"}, {"time": 2750, "annotation": {"number": 64, "value": 0}, "group": "control_change"}, {"time": 2752, "annotation": {"number": 64, "value": 127}, "group": "control_change"}, {"time": 2774, "annotation": {"number": 64, "value": 0}, "group": "control_change"}, {"time": 2776, "annotation": {"number": 64, "value": 127}, "group": "control_change"}, {"time": 2798, "annotation": {"number": 64, "value": 0}, "group": "control_change"}, {"time": 2801, "annotation": {"number": 64, "value": 127}, "group": "control_change"}, {"time": 2822, "annotation": {"number": 64, "value": 0}, "group": "control_change"}, {"time": 2823, "annotation": {"number": 64, "value": 127}, "group": "control_change"}, {"time": 2846, "annotation": {"number": 64, "value": 0}, "group": "control_change"}, {"time": 2850, "annotation": {"number": 64, "value": 127}, "group": "control_change"}, {"time": 2871, "annotation": {"number": 64, "value": 0}, "group": "control_change"}, {"time": 2872, "annotation": {"number": 64, "value": 127}, "group": "control_change"}, {"time": 2894, "annotation": {"number": 64, "value": 0}, "group": "control_change"}, {"time": 2897, "annotation": {"number": 64, "value": 127}, "group": "control_change"}, {"time": 2918, "annotation": {"number": 64, "value": 0}, "group": "control_change"}, {"time": 2920, "annotation": {"number": 64, "value": 127}, "group": "control_change"}, {"time": 2942, "annotation": {"number": 64, "value": 0}, "group": "control_change"}, {"time": 2944, "annotation": {"number": 64, "value": 127}, "group": "control_change"}, {"time": 2968, "annotation": {"number": 64, "value": 0}, "group": "control_change"}, {"time": 2970, "annotation": {"number": 64, "value": 127}, "group": "control_change"}, {"time": 2989, "annotation": {"number": 64, "value": 0}, "group": "control_change"}, {"time": 2992, "annotation": {"number": 64, "value": 127}, "group": "control_change"}, {"time": 3014, "annotation": {"number": 64, "value": 0}, "group": "control_change"}, {"time": 3015, "annotation": {"number": 64, "value": 127}, "group": "control_change"}, {"time": 3038, "annotation": {"number": 64, "value": 0}, "group": "control_change"}, {"time": 3040, "annotation": {"number": 64, "value": 127}, "group": "control_change"}, {"time": 3062, "annotation": {"number": 64, "value": 0}, "group": "control_change"}, {"time": 3065, "annotation": {"number": 64, "value": 127}, "group": "control_change"}, {"time": 3086, "annotation": {"number": 64, "value": 0}, "group": "control_change"}, {"time": 3090, "annotation": {"number": 64, "value": 127}, "group": "control_change"}, {"time": 3110, "annotation": {"number": 64, "value": 0}, "group": "control_change"}, {"time": 3112, "annotation": {"number": 64, "value": 127}, "group": "control_change"}, {"time": 3134, "annotation": {"number": 64, "value": 0}, "group": "control_change"}, {"time": 3136, "annotation": {"number": 64, "value": 127}, "group": "control_change"}, {"time": 3158, "annotation": {"number": 64, "value": 0}, "group": "control_change"}, {"time": 3160, "annotation": {"number": 64, "value": 127}, "group": "control_change"}, {"time": 3182, "annotation": {"number": 64, "value": 0}, "group": "control_change"}, {"time": 3185, "annotation": {"number": 64, "value": 127}, "group": "control_change"}, {"time": 3206, "annotation": {"number": 64, "value": 0}, "group": "control_change"}, {"time": 3207, "annotation": {"number": 64, "value": 127}, "group": "control_change"}, {"time": 3230, "annotation": {"number": 64, "value": 0}, "group": "control_change"}, {"time": 3234, "annotation": {"number": 64, "value": 127}, "group": "control_change"}, {"time": 3255, "annotation": {"number": 64, "value": 0}, "group": "control_change"}, {"time": 3256, "annotation": {"number": 64, "value": 127}, "group": "control_change"}, {"time": 3278, "annotation": {"number": 64, "value": 0}, "group": "control_change"}, {"time": 3281, "annotation": {"number": 64, "value": 127}, "group": "control_change"}, {"time": 3302, "annotation": {"number": 64, "value": 0}, "group": "control_change"}, {"time": 3304, "annotation": {"number": 64, "value": 127}, "group": "control_change"}, {"time": 3326, "annotation": {"number": 64, "value": 0}, "group": "control_change"}, {"time": 3328, "annotation": {"number": 64, "value": 127}, "group": "control_change"}, {"time": 3352, "annotation": {"number": 64, "value": 0}, "group": "control_change"}, {"time": 3354, "annotation": {"number": 64, "value": 127}, "group": "control_change"}, {"time": 3373, "annotation": {"number": 64, "value": 0}, "group": "control_change"}, {"time": 3376, "annotation": {"number": 64, "value": 127}, "group": "control_change"}, {"time": 3398, "annotation": {"number": 64, "value": 0}, "group": "control_change"}, {"time": 3399, "annotation": {"number": 64, "value": 127}, "group": "control_change"}, {"time": 3422, "annotation": {"number": 64, "value": 0}, "group": "control_change"}, {"time": 3424, "annotation": {"number": 64, "value": 127}, "group": "control_change"}, {"time": 3445, "annotation": {"number": 64, "value": 0}, "group": "control_change"}, {"time": 3448, "annotation": {"number": 64, "value": 127}, "group": "control_change"}, {"time": 3467, "annotation": {"number": 64, "value": 0}, "group": "control_change"}, {"time": 3472, "annotation": {"number": 64, "value": 127}, "group": "control_change"}, {"time": 3494, "annotation": {"number": 64, "value": 0}, "group": "control_change"}, {"time": 3495, "annotation": {"number": 64, "value": 127}, "group": "control_change"}, {"time": 3518, "annotation": {"number": 64, "value": 0}, "group": "control_change"}, {"time": 3520, "annotation": {"number": 64, "value": 127}, "group": "control_change"}, {"time": 3569, "annotation": {"number": 64, "value": 127}, "group": "control_change"}, {"time": 3614, "annotation": {"number": 64, "value": 0}, "group": "control_change"}, {"time": 3616, "annotation": {"number": 64, "value": 127}, "group": "control_change"}, {"time": 3638, "annotation": {"number": 64, "value": 0}, "group": "control_change"}, {"time": 3640, "annotation": {"number": 64, "value": 127}, "group": "control_change"}, {"time": 3663, "annotation": {"number": 64, "value": 0}, "group": "control_change"}, {"time": 3664, "annotation": {"number": 64, "value": 127}, "group": "control_change"}, {"time": 3687, "annotation": {"number": 64, "value": 0}, "group": "control_change"}, {"time": 3688, "annotation": {"number": 64, "value": 127}, "group": "control_change"}, {"time": 3716, "annotation": {"number": 64, "value": 0}, "group": "control_change"}, {"time": 3718, "annotation": {"number": 64, "value": 127}, "group": "control_change"}, {"time": 3779, "annotation": {"number": 64, "value": 0}, "group": "control_change"}]}]}