{"metadata": {"schema_version": "0.2", "title": "None", "source_filename": "660.mid", "source_format": "midi"}, "resolution": 12, "tempos": [{"time": 0, "qpm": 112.00026880064512}], "time_signatures": [{"time": 0, "numerator": 1, "denominator": 4}], "tracks": [{"program": 4, "is_drum": false, "name": "MELODY", "notes": [{"time": 535, "pitch": 68, "duration": 9, "velocity": 86}, {"time": 547, "pitch": 68, "duration": 5, "velocity": 81}, {"time": 553, "pitch": 70, "duration": 5, "velocity": 80}, {"time": 559, "pitch": 73, "duration": 10, "velocity": 84}, {"time": 571, "pitch": 70, "duration": 6, "velocity": 83}, {"time": 577, "pitch": 68, "duration": 4, "velocity": 80}, {"time": 583, "pitch": 68, "duration": 44, "velocity": 81}, {"time": 631, "pitch": 68, "duration": 4, "velocity": 74}, {"time": 637, "pitch": 68, "duration": 4, "velocity": 79}, {"time": 643, "pitch": 68, "duration": 4, "velocity": 81}, {"time": 649, "pitch": 70, "duration": 4, "velocity": 85}, {"time": 655, "pitch": 73, "duration": 6, "velocity": 83}, {"time": 661, "pitch": 73, "duration": 6, "velocity": 83}, {"time": 667, "pitch": 70, "duration": 4, "velocity": 80}, {"time": 673, "pitch": 68, "duration": 4, "velocity": 80}, {"time": 679, "pitch": 65, "duration": 37, "velocity": 80}, {"time": 727, "pitch": 68, "duration": 5, "velocity": 84}, {"time": 733, "pitch": 68, "duration": 4, "velocity": 84}, {"time": 739, "pitch": 68, "duration": 4, "velocity": 82}, {"time": 745, "pitch": 70, "duration": 4, "velocity": 84}, {"time": 751, "pitch": 73, "duration": 10, "velocity": 84}, {"time": 763, "pitch": 70, "duration": 5, "velocity": 80}, {"time": 769, "pitch": 68, "duration": 4, "velocity": 81}, {"time": 775, "pitch": 61, "duration": 41, "velocity": 90}, {"time": 823, "pitch": 68, "duration": 4, "velocity": 80}, {"time": 829, "pitch": 68, "duration": 4, "velocity": 79}, {"time": 835, "pitch": 68, "duration": 3, "velocity": 80}, {"time": 841, "pitch": 70, "duration": 4, "velocity": 80}, {"time": 847, "pitch": 68, "duration": 4, "velocity": 84}, {"time": 853, "pitch": 65, "duration": 3, "velocity": 86}, {"time": 859, "pitch": 65, "duration": 3, "velocity": 81}, {"time": 865, "pitch": 61, "duration": 5, "velocity": 80}, {"time": 871, "pitch": 63, "duration": 45, "velocity": 75}, {"time": 919, "pitch": 68, "duration": 4, "velocity": 80}, {"time": 925, "pitch": 68, "duration": 4, "velocity": 77}, {"time": 931, "pitch": 68, "duration": 4, "velocity": 81}, {"time": 937, "pitch": 70, "duration": 4, "velocity": 83}, {"time": 943, "pitch": 73, "duration": 11, "velocity": 82}, {"time": 955, "pitch": 70, "duration": 6, "velocity": 81}, {"time": 961, "pitch": 68, "duration": 4, "velocity": 76}, {"time": 967, "pitch": 68, "duration": 44, "velocity": 81}, {"time": 1015, "pitch": 68, "duration": 4, "velocity": 80}, {"time": 1021, "pitch": 68, "duration": 3, "velocity": 80}, {"time": 1027, "pitch": 68, "duration": 3, "velocity": 81}, {"time": 1033, "pitch": 70, "duration": 4, "velocity": 85}, {"time": 1039, "pitch": 73, "duration": 12, "velocity": 82}, {"time": 1051, "pitch": 70, "duration": 5, "velocity": 82}, {"time": 1057, "pitch": 68, "duration": 5, "velocity": 80}, {"time": 1063, "pitch": 65, "duration": 42, "velocity": 80}, {"time": 1105, "pitch": 61, "duration": 5, "velocity": 82}, {"time": 1111, "pitch": 68, "duration": 3, "velocity": 75}, {"time": 1117, "pitch": 68, "duration": 4, "velocity": 75}, {"time": 1123, "pitch": 68, "duration": 4, "velocity": 74}, {"time": 1129, "pitch": 70, "duration": 4, "velocity": 74}, {"time": 1135, "pitch": 73, "duration": 10, "velocity": 85}, {"time": 1147, "pitch": 70, "duration": 4, "velocity": 84}, {"time": 1153, "pitch": 68, "duration": 3, "velocity": 78}, {"time": 1159, "pitch": 61, "duration": 24, "velocity": 83}, {"time": 1195, "pitch": 58, "duration": 4, "velocity": 83}, {"time": 1201, "pitch": 61, "duration": 4, "velocity": 86}, {"time": 1207, "pitch": 63, "duration": 3, "velocity": 80}, {"time": 1213, "pitch": 63, "duration": 3, "velocity": 79}, {"time": 1219, "pitch": 63, "duration": 4, "velocity": 80}, {"time": 1225, "pitch": 65, "duration": 4, "velocity": 80}, {"time": 1231, "pitch": 63, "duration": 10, "velocity": 81}, {"time": 1243, "pitch": 61, "duration": 5, "velocity": 82}, {"time": 1249, "pitch": 63, "duration": 4, "velocity": 80}, {"time": 1255, "pitch": 61, "duration": 39, "velocity": 81}, {"time": 1297, "pitch": 70, "duration": 4, "velocity": 85}, {"time": 1303, "pitch": 73, "duration": 4, "velocity": 83}, {"time": 1309, "pitch": 73, "duration": 4, "velocity": 83}, {"time": 1315, "pitch": 73, "duration": 4, "velocity": 85}, {"time": 1321, "pitch": 75, "duration": 4, "velocity": 83}, {"time": 1327, "pitch": 77, "duration": 6, "velocity": 84}, {"time": 1333, "pitch": 77, "duration": 6, "velocity": 84}, {"time": 1339, "pitch": 75, "duration": 4, "velocity": 86}, {"time": 1345, "pitch": 73, "duration": 5, "velocity": 85}, {"time": 1351, "pitch": 70, "duration": 38, "velocity": 83}, {"time": 1399, "pitch": 75, "duration": 4, "velocity": 86}, {"time": 1405, "pitch": 75, "duration": 4, "velocity": 81}, {"time": 1411, "pitch": 75, "duration": 4, "velocity": 90}, {"time": 1417, "pitch": 77, "duration": 4, "velocity": 81}, {"time": 1423, "pitch": 75, "duration": 3, "velocity": 84}, {"time": 1429, "pitch": 73, "duration": 5, "velocity": 83}, {"time": 1435, "pitch": 70, "duration": 10, "velocity": 81}, {"time": 1447, "pitch": 68, "duration": 38, "velocity": 79}, {"time": 1495, "pitch": 65, "duration": 5, "velocity": 84}, {"time": 1501, "pitch": 68, "duration": 4, "velocity": 82}, {"time": 1507, "pitch": 68, "duration": 4, "velocity": 83}, {"time": 1513, "pitch": 65, "duration": 4, "velocity": 95}, {"time": 1519, "pitch": 73, "duration": 3, "velocity": 83}, {"time": 1525, "pitch": 73, "duration": 4, "velocity": 83}, {"time": 1531, "pitch": 72, "duration": 10, "velocity": 83}, {"time": 1543, "pitch": 70, "duration": 31, "velocity": 80}, {"time": 1585, "pitch": 68, "duration": 5, "velocity": 79}, {"time": 1591, "pitch": 70, "duration": 4, "velocity": 83}, {"time": 1597, "pitch": 73, "duration": 3, "velocity": 81}, {"time": 1603, "pitch": 73, "duration": 4, "velocity": 81}, {"time": 1609, "pitch": 73, "duration": 3, "velocity": 85}, {"time": 1615, "pitch": 73, "duration": 9, "velocity": 84}, {"time": 1627, "pitch": 73, "duration": 5, "velocity": 82}, {"time": 1633, "pitch": 70, "duration": 5, "velocity": 82}, {"time": 1639, "pitch": 75, "duration": 42, "velocity": 90}, {"time": 1681, "pitch": 70, "duration": 3, "velocity": 86}, {"time": 1687, "pitch": 73, "duration": 4, "velocity": 81}, {"time": 1693, "pitch": 73, "duration": 3, "velocity": 83}, {"time": 1699, "pitch": 73, "duration": 4, "velocity": 85}, {"time": 1705, "pitch": 75, "duration": 4, "velocity": 86}, {"time": 1711, "pitch": 77, "duration": 4, "velocity": 86}, {"time": 1717, "pitch": 77, "duration": 4, "velocity": 88}, {"time": 1723, "pitch": 75, "duration": 5, "velocity": 84}, {"time": 1729, "pitch": 73, "duration": 6, "velocity": 84}, {"time": 1735, "pitch": 70, "duration": 36, "velocity": 83}, {"time": 1783, "pitch": 75, "duration": 3, "velocity": 86}, {"time": 1789, "pitch": 75, "duration": 4, "velocity": 81}, {"time": 1795, "pitch": 75, "duration": 4, "velocity": 90}, {"time": 1801, "pitch": 77, "duration": 4, "velocity": 81}, {"time": 1807, "pitch": 75, "duration": 5, "velocity": 86}, {"time": 1813, "pitch": 73, "duration": 5, "velocity": 86}, {"time": 1819, "pitch": 70, "duration": 12, "velocity": 83}, {"time": 1831, "pitch": 68, "duration": 38, "velocity": 82}, {"time": 1879, "pitch": 65, "duration": 5, "velocity": 86}, {"time": 1885, "pitch": 68, "duration": 4, "velocity": 80}, {"time": 1891, "pitch": 68, "duration": 4, "velocity": 81}, {"time": 1897, "pitch": 65, "duration": 5, "velocity": 88}, {"time": 1903, "pitch": 73, "duration": 3, "velocity": 84}, {"time": 1909, "pitch": 73, "duration": 4, "velocity": 81}, {"time": 1915, "pitch": 72, "duration": 11, "velocity": 83}, {"time": 1927, "pitch": 70, "duration": 30, "velocity": 80}, {"time": 1957, "pitch": 70, "duration": 3, "velocity": 88}, {"time": 1963, "pitch": 70, "duration": 5, "velocity": 81}, {"time": 1969, "pitch": 73, "duration": 4, "velocity": 84}, {"time": 1975, "pitch": 75, "duration": 4, "velocity": 85}, {"time": 1981, "pitch": 75, "duration": 3, "velocity": 85}, {"time": 1987, "pitch": 75, "duration": 6, "velocity": 85}, {"time": 1993, "pitch": 73, "duration": 4, "velocity": 80}, {"time": 1999, "pitch": 68, "duration": 11, "velocity": 83}, {"time": 2011, "pitch": 70, "duration": 10, "velocity": 81}, {"time": 2023, "pitch": 73, "duration": 46, "velocity": 81}, {"time": 2839, "pitch": 68, "duration": 4, "velocity": 80}, {"time": 2845, "pitch": 68, "duration": 4, "velocity": 77}, {"time": 2851, "pitch": 68, "duration": 4, "velocity": 81}, {"time": 2857, "pitch": 70, "duration": 4, "velocity": 83}, {"time": 2863, "pitch": 73, "duration": 11, "velocity": 82}, {"time": 2875, "pitch": 70, "duration": 6, "velocity": 81}, {"time": 2881, "pitch": 68, "duration": 4, "velocity": 76}, {"time": 2887, "pitch": 68, "duration": 21, "velocity": 81}, {"time": 2935, "pitch": 68, "duration": 4, "velocity": 80}, {"time": 2941, "pitch": 68, "duration": 3, "velocity": 80}, {"time": 2947, "pitch": 68, "duration": 3, "velocity": 81}, {"time": 2953, "pitch": 70, "duration": 4, "velocity": 85}, {"time": 2959, "pitch": 73, "duration": 6, "velocity": 82}, {"time": 2965, "pitch": 73, "duration": 6, "velocity": 82}, {"time": 2971, "pitch": 70, "duration": 5, "velocity": 82}, {"time": 2977, "pitch": 68, "duration": 5, "velocity": 80}, {"time": 2983, "pitch": 65, "duration": 8, "velocity": 80}, {"time": 3025, "pitch": 61, "duration": 5, "velocity": 82}, {"time": 3031, "pitch": 68, "duration": 3, "velocity": 75}, {"time": 3037, "pitch": 68, "duration": 4, "velocity": 75}, {"time": 3043, "pitch": 68, "duration": 4, "velocity": 74}, {"time": 3049, "pitch": 70, "duration": 4, "velocity": 74}, {"time": 3055, "pitch": 73, "duration": 10, "velocity": 85}, {"time": 3067, "pitch": 70, "duration": 4, "velocity": 84}, {"time": 3073, "pitch": 68, "duration": 3, "velocity": 78}, {"time": 3079, "pitch": 61, "duration": 21, "velocity": 83}, {"time": 3115, "pitch": 58, "duration": 4, "velocity": 83}, {"time": 3121, "pitch": 61, "duration": 4, "velocity": 86}, {"time": 3127, "pitch": 63, "duration": 3, "velocity": 80}, {"time": 3133, "pitch": 63, "duration": 3, "velocity": 79}, {"time": 3139, "pitch": 63, "duration": 4, "velocity": 80}, {"time": 3145, "pitch": 65, "duration": 4, "velocity": 80}, {"time": 3151, "pitch": 63, "duration": 10, "velocity": 81}, {"time": 3163, "pitch": 61, "duration": 5, "velocity": 82}, {"time": 3169, "pitch": 63, "duration": 4, "velocity": 80}, {"time": 3175, "pitch": 61, "duration": 19, "velocity": 81}, {"time": 3217, "pitch": 70, "duration": 4, "velocity": 85}, {"time": 3223, "pitch": 73, "duration": 4, "velocity": 83}, {"time": 3229, "pitch": 73, "duration": 4, "velocity": 83}, {"time": 3235, "pitch": 73, "duration": 4, "velocity": 85}, {"time": 3241, "pitch": 75, "duration": 4, "velocity": 83}, {"time": 3247, "pitch": 77, "duration": 6, "velocity": 84}, {"time": 3253, "pitch": 77, "duration": 6, "velocity": 84}, {"time": 3259, "pitch": 75, "duration": 4, "velocity": 86}, {"time": 3265, "pitch": 73, "duration": 5, "velocity": 85}, {"time": 3271, "pitch": 70, "duration": 38, "velocity": 83}, {"time": 3319, "pitch": 75, "duration": 4, "velocity": 86}, {"time": 3325, "pitch": 75, "duration": 4, "velocity": 81}, {"time": 3331, "pitch": 75, "duration": 4, "velocity": 90}, {"time": 3337, "pitch": 77, "duration": 4, "velocity": 81}, {"time": 3343, "pitch": 75, "duration": 3, "velocity": 84}, {"time": 3349, "pitch": 73, "duration": 5, "velocity": 83}, {"time": 3355, "pitch": 70, "duration": 10, "velocity": 81}, {"time": 3367, "pitch": 68, "duration": 38, "velocity": 79}, {"time": 3415, "pitch": 65, "duration": 5, "velocity": 84}, {"time": 3421, "pitch": 68, "duration": 4, "velocity": 82}, {"time": 3427, "pitch": 68, "duration": 4, "velocity": 83}, {"time": 3433, "pitch": 65, "duration": 4, "velocity": 95}, {"time": 3439, "pitch": 73, "duration": 3, "velocity": 83}, {"time": 3445, "pitch": 73, "duration": 4, "velocity": 83}, {"time": 3451, "pitch": 72, "duration": 10, "velocity": 83}, {"time": 3463, "pitch": 70, "duration": 31, "velocity": 80}, {"time": 3505, "pitch": 68, "duration": 5, "velocity": 79}, {"time": 3511, "pitch": 70, "duration": 4, "velocity": 83}, {"time": 3517, "pitch": 73, "duration": 3, "velocity": 81}, {"time": 3523, "pitch": 73, "duration": 4, "velocity": 81}, {"time": 3529, "pitch": 73, "duration": 3, "velocity": 85}, {"time": 3535, "pitch": 73, "duration": 9, "velocity": 84}, {"time": 3547, "pitch": 73, "duration": 5, "velocity": 82}, {"time": 3553, "pitch": 70, "duration": 5, "velocity": 82}, {"time": 3559, "pitch": 75, "duration": 42, "velocity": 90}, {"time": 3601, "pitch": 70, "duration": 3, "velocity": 86}, {"time": 3607, "pitch": 73, "duration": 4, "velocity": 81}, {"time": 3613, "pitch": 73, "duration": 3, "velocity": 83}, {"time": 3619, "pitch": 73, "duration": 4, "velocity": 85}, {"time": 3625, "pitch": 75, "duration": 4, "velocity": 86}, {"time": 3631, "pitch": 77, "duration": 4, "velocity": 86}, {"time": 3637, "pitch": 77, "duration": 4, "velocity": 88}, {"time": 3643, "pitch": 75, "duration": 5, "velocity": 84}, {"time": 3649, "pitch": 73, "duration": 6, "velocity": 84}, {"time": 3655, "pitch": 70, "duration": 36, "velocity": 83}, {"time": 3703, "pitch": 75, "duration": 3, "velocity": 86}, {"time": 3709, "pitch": 75, "duration": 4, "velocity": 81}, {"time": 3715, "pitch": 75, "duration": 4, "velocity": 90}, {"time": 3721, "pitch": 77, "duration": 4, "velocity": 81}, {"time": 3727, "pitch": 75, "duration": 5, "velocity": 86}, {"time": 3733, "pitch": 73, "duration": 5, "velocity": 86}, {"time": 3739, "pitch": 70, "duration": 12, "velocity": 83}, {"time": 3751, "pitch": 68, "duration": 38, "velocity": 82}, {"time": 3799, "pitch": 65, "duration": 5, "velocity": 86}, {"time": 3805, "pitch": 68, "duration": 4, "velocity": 80}, {"time": 3811, "pitch": 68, "duration": 4, "velocity": 81}, {"time": 3817, "pitch": 65, "duration": 5, "velocity": 88}, {"time": 3823, "pitch": 73, "duration": 3, "velocity": 84}, {"time": 3829, "pitch": 73, "duration": 4, "velocity": 81}, {"time": 3835, "pitch": 72, "duration": 11, "velocity": 83}, {"time": 3847, "pitch": 70, "duration": 30, "velocity": 80}, {"time": 3877, "pitch": 70, "duration": 3, "velocity": 88}, {"time": 3883, "pitch": 70, "duration": 5, "velocity": 81}, {"time": 3889, "pitch": 73, "duration": 4, "velocity": 84}, {"time": 3895, "pitch": 75, "duration": 4, "velocity": 85}, {"time": 3901, "pitch": 75, "duration": 3, "velocity": 85}, {"time": 3907, "pitch": 75, "duration": 6, "velocity": 85}, {"time": 3913, "pitch": 73, "duration": 4, "velocity": 80}, {"time": 3919, "pitch": 68, "duration": 11, "velocity": 83}, {"time": 3931, "pitch": 70, "duration": 10, "velocity": 81}, {"time": 3943, "pitch": 73, "duration": 36, "velocity": 81}, {"time": 3985, "pitch": 70, "duration": 4, "velocity": 85}, {"time": 3991, "pitch": 73, "duration": 4, "velocity": 83}, {"time": 3997, "pitch": 73, "duration": 4, "velocity": 83}, {"time": 4003, "pitch": 73, "duration": 4, "velocity": 85}, {"time": 4009, "pitch": 75, "duration": 4, "velocity": 83}, {"time": 4015, "pitch": 77, "duration": 6, "velocity": 84}, {"time": 4021, "pitch": 77, "duration": 6, "velocity": 84}, {"time": 4027, "pitch": 75, "duration": 4, "velocity": 86}, {"time": 4033, "pitch": 73, "duration": 5, "velocity": 85}, {"time": 4039, "pitch": 70, "duration": 38, "velocity": 83}, {"time": 4087, "pitch": 75, "duration": 4, "velocity": 86}, {"time": 4093, "pitch": 75, "duration": 4, "velocity": 81}, {"time": 4099, "pitch": 75, "duration": 4, "velocity": 90}, {"time": 4105, "pitch": 77, "duration": 4, "velocity": 81}, {"time": 4111, "pitch": 75, "duration": 3, "velocity": 84}, {"time": 4117, "pitch": 73, "duration": 5, "velocity": 83}, {"time": 4123, "pitch": 70, "duration": 10, "velocity": 81}, {"time": 4135, "pitch": 68, "duration": 38, "velocity": 79}, {"time": 4183, "pitch": 65, "duration": 5, "velocity": 84}, {"time": 4189, "pitch": 68, "duration": 4, "velocity": 82}, {"time": 4195, "pitch": 68, "duration": 4, "velocity": 83}, {"time": 4201, "pitch": 65, "duration": 4, "velocity": 95}, {"time": 4207, "pitch": 73, "duration": 3, "velocity": 83}, {"time": 4213, "pitch": 73, "duration": 4, "velocity": 83}, {"time": 4219, "pitch": 72, "duration": 10, "velocity": 83}, {"time": 4231, "pitch": 70, "duration": 31, "velocity": 80}, {"time": 4273, "pitch": 68, "duration": 5, "velocity": 79}, {"time": 4279, "pitch": 70, "duration": 4, "velocity": 83}, {"time": 4285, "pitch": 73, "duration": 3, "velocity": 81}, {"time": 4291, "pitch": 73, "duration": 4, "velocity": 81}, {"time": 4297, "pitch": 73, "duration": 3, "velocity": 85}, {"time": 4303, "pitch": 73, "duration": 9, "velocity": 84}, {"time": 4315, "pitch": 73, "duration": 5, "velocity": 82}, {"time": 4321, "pitch": 70, "duration": 5, "velocity": 82}, {"time": 4327, "pitch": 75, "duration": 42, "velocity": 90}, {"time": 4369, "pitch": 70, "duration": 3, "velocity": 86}, {"time": 4375, "pitch": 73, "duration": 4, "velocity": 81}, {"time": 4381, "pitch": 73, "duration": 3, "velocity": 83}, {"time": 4387, "pitch": 73, "duration": 4, "velocity": 85}, {"time": 4393, "pitch": 75, "duration": 4, "velocity": 86}, {"time": 4399, "pitch": 77, "duration": 4, "velocity": 86}, {"time": 4405, "pitch": 77, "duration": 4, "velocity": 88}, {"time": 4411, "pitch": 75, "duration": 5, "velocity": 84}, {"time": 4417, "pitch": 73, "duration": 6, "velocity": 84}, {"time": 4423, "pitch": 70, "duration": 36, "velocity": 83}, {"time": 4471, "pitch": 75, "duration": 3, "velocity": 86}, {"time": 4477, "pitch": 75, "duration": 4, "velocity": 81}, {"time": 4483, "pitch": 75, "duration": 4, "velocity": 90}, {"time": 4489, "pitch": 77, "duration": 4, "velocity": 81}, {"time": 4495, "pitch": 75, "duration": 5, "velocity": 86}, {"time": 4501, "pitch": 73, "duration": 5, "velocity": 86}, {"time": 4507, "pitch": 70, "duration": 12, "velocity": 83}, {"time": 4519, "pitch": 68, "duration": 38, "velocity": 82}, {"time": 4567, "pitch": 65, "duration": 5, "velocity": 86}, {"time": 4573, "pitch": 68, "duration": 4, "velocity": 80}, {"time": 4579, "pitch": 68, "duration": 4, "velocity": 81}, {"time": 4585, "pitch": 65, "duration": 5, "velocity": 88}, {"time": 4591, "pitch": 73, "duration": 3, "velocity": 84}, {"time": 4597, "pitch": 73, "duration": 4, "velocity": 81}, {"time": 4603, "pitch": 72, "duration": 11, "velocity": 83}, {"time": 4615, "pitch": 70, "duration": 30, "velocity": 80}, {"time": 4645, "pitch": 70, "duration": 3, "velocity": 88}, {"time": 4651, "pitch": 70, "duration": 5, "velocity": 81}, {"time": 4657, "pitch": 73, "duration": 4, "velocity": 84}, {"time": 4663, "pitch": 75, "duration": 4, "velocity": 85}, {"time": 4669, "pitch": 75, "duration": 3, "velocity": 85}, {"time": 4675, "pitch": 75, "duration": 6, "velocity": 85}, {"time": 4681, "pitch": 73, "duration": 4, "velocity": 80}, {"time": 4687, "pitch": 68, "duration": 11, "velocity": 83}, {"time": 4699, "pitch": 70, "duration": 10, "velocity": 81}, {"time": 4711, "pitch": 73, "duration": 24, "velocity": 81}, {"time": 4741, "pitch": 70, "duration": 5, "velocity": 84}, {"time": 4748, "pitch": 70, "duration": 4, "velocity": 90}, {"time": 4753, "pitch": 73, "duration": 5, "velocity": 86}, {"time": 4760, "pitch": 75, "duration": 5, "velocity": 95}, {"time": 4767, "pitch": 75, "duration": 5, "velocity": 95}, {"time": 4774, "pitch": 75, "duration": 6, "velocity": 93}, {"time": 4782, "pitch": 73, "duration": 13, "velocity": 86}, {"time": 4796, "pitch": 68, "duration": 49, "velocity": 79}, {"time": 4843, "pitch": 70, "duration": 37, "velocity": 86}, {"time": 4879, "pitch": 73, "duration": 88, "velocity": 79}]}, {"program": 0, "is_drum": false, "name": "PIANO", "notes": [{"time": 151, "pitch": 49, "duration": 44, "velocity": 80}, {"time": 157, "pitch": 56, "duration": 39, "velocity": 73}, {"time": 163, "pitch": 63, "duration": 7, "velocity": 73}, {"time": 169, "pitch": 68, "duration": 19, "velocity": 74}, {"time": 187, "pitch": 65, "duration": 7, "velocity": 79}, {"time": 193, "pitch": 63, "duration": 7, "velocity": 70}, {"time": 199, "pitch": 49, "duration": 35, "velocity": 81}, {"time": 199, "pitch": 65, "duration": 13, "velocity": 76}, {"time": 205, "pitch": 56, "duration": 28, "velocity": 68}, {"time": 211, "pitch": 61, "duration": 9, "velocity": 78}, {"time": 217, "pitch": 63, "duration": 12, "velocity": 80}, {"time": 229, "pitch": 65, "duration": 7, "velocity": 79}, {"time": 235, "pitch": 63, "duration": 6, "velocity": 75}, {"time": 241, "pitch": 61, "duration": 5, "velocity": 68}, {"time": 247, "pitch": 46, "duration": 46, "velocity": 79}, {"time": 247, "pitch": 58, "duration": 13, "velocity": 77}, {"time": 253, "pitch": 53, "duration": 39, "velocity": 75}, {"time": 259, "pitch": 61, "duration": 6, "velocity": 80}, {"time": 265, "pitch": 65, "duration": 7, "velocity": 81}, {"time": 283, "pitch": 58, "duration": 16, "velocity": 75}, {"time": 286, "pitch": 61, "duration": 15, "velocity": 75}, {"time": 295, "pitch": 46, "duration": 36, "velocity": 79}, {"time": 295, "pitch": 70, "duration": 18, "velocity": 79}, {"time": 301, "pitch": 53, "duration": 29, "velocity": 72}, {"time": 307, "pitch": 58, "duration": 8, "velocity": 75}, {"time": 313, "pitch": 65, "duration": 12, "velocity": 79}, {"time": 325, "pitch": 61, "duration": 7, "velocity": 76}, {"time": 331, "pitch": 58, "duration": 13, "velocity": 79}, {"time": 343, "pitch": 39, "duration": 26, "velocity": 79}, {"time": 343, "pitch": 66, "duration": 14, "velocity": 75}, {"time": 349, "pitch": 46, "duration": 19, "velocity": 65}, {"time": 355, "pitch": 58, "duration": 17, "velocity": 81}, {"time": 361, "pitch": 63, "duration": 13, "velocity": 84}, {"time": 373, "pitch": 66, "duration": 8, "velocity": 81}, {"time": 379, "pitch": 58, "duration": 4, "velocity": 75}, {"time": 391, "pitch": 44, "duration": 39, "velocity": 74}, {"time": 391, "pitch": 63, "duration": 11, "velocity": 77}, {"time": 397, "pitch": 51, "duration": 31, "velocity": 71}, {"time": 403, "pitch": 56, "duration": 12, "velocity": 81}, {"time": 409, "pitch": 63, "duration": 7, "velocity": 78}, {"time": 415, "pitch": 68, "duration": 13, "velocity": 80}, {"time": 421, "pitch": 63, "duration": 8, "velocity": 79}, {"time": 427, "pitch": 56, "duration": 4, "velocity": 82}, {"time": 439, "pitch": 49, "duration": 37, "velocity": 79}, {"time": 439, "pitch": 61, "duration": 7, "velocity": 80}, {"time": 445, "pitch": 56, "duration": 10, "velocity": 80}, {"time": 451, "pitch": 63, "duration": 7, "velocity": 73}, {"time": 457, "pitch": 65, "duration": 12, "velocity": 81}, {"time": 469, "pitch": 63, "duration": 8, "velocity": 79}, {"time": 475, "pitch": 61, "duration": 7, "velocity": 75}, {"time": 481, "pitch": 56, "duration": 5, "velocity": 75}, {"time": 487, "pitch": 37, "duration": 33, "velocity": 74}, {"time": 487, "pitch": 56, "duration": 43, "velocity": 74}, {"time": 487, "pitch": 61, "duration": 48, "velocity": 74}, {"time": 535, "pitch": 49, "duration": 43, "velocity": 83}, {"time": 541, "pitch": 56, "duration": 38, "velocity": 67}, {"time": 547, "pitch": 63, "duration": 7, "velocity": 71}, {"time": 553, "pitch": 65, "duration": 21, "velocity": 77}, {"time": 583, "pitch": 49, "duration": 44, "velocity": 81}, {"time": 583, "pitch": 68, "duration": 15, "velocity": 75}, {"time": 589, "pitch": 56, "duration": 38, "velocity": 63}, {"time": 595, "pitch": 61, "duration": 8, "velocity": 67}, {"time": 601, "pitch": 63, "duration": 11, "velocity": 80}, {"time": 613, "pitch": 65, "duration": 3, "velocity": 79}, {"time": 631, "pitch": 49, "duration": 27, "velocity": 80}, {"time": 631, "pitch": 65, "duration": 11, "velocity": 77}, {"time": 637, "pitch": 56, "duration": 19, "velocity": 67}, {"time": 640, "pitch": 63, "duration": 7, "velocity": 72}, {"time": 649, "pitch": 65, "duration": 21, "velocity": 80}, {"time": 679, "pitch": 41, "duration": 34, "velocity": 75}, {"time": 679, "pitch": 60, "duration": 8, "velocity": 68}, {"time": 679, "pitch": 65, "duration": 13, "velocity": 74}, {"time": 685, "pitch": 48, "duration": 28, "velocity": 68}, {"time": 691, "pitch": 60, "duration": 8, "velocity": 78}, {"time": 697, "pitch": 65, "duration": 15, "velocity": 80}, {"time": 709, "pitch": 68, "duration": 11, "velocity": 79}, {"time": 727, "pitch": 49, "duration": 34, "velocity": 81}, {"time": 727, "pitch": 61, "duration": 9, "velocity": 72}, {"time": 727, "pitch": 68, "duration": 12, "velocity": 74}, {"time": 733, "pitch": 56, "duration": 25, "velocity": 74}, {"time": 739, "pitch": 63, "duration": 7, "velocity": 76}, {"time": 745, "pitch": 65, "duration": 23, "velocity": 80}, {"time": 775, "pitch": 46, "duration": 39, "velocity": 79}, {"time": 775, "pitch": 65, "duration": 13, "velocity": 74}, {"time": 781, "pitch": 53, "duration": 33, "velocity": 71}, {"time": 787, "pitch": 58, "duration": 22, "velocity": 72}, {"time": 793, "pitch": 61, "duration": 15, "velocity": 85}, {"time": 823, "pitch": 51, "duration": 35, "velocity": 81}, {"time": 823, "pitch": 66, "duration": 8, "velocity": 81}, {"time": 829, "pitch": 58, "duration": 8, "velocity": 75}, {"time": 835, "pitch": 63, "duration": 7, "velocity": 77}, {"time": 841, "pitch": 66, "duration": 23, "velocity": 81}, {"time": 868, "pitch": 44, "duration": 43, "velocity": 80}, {"time": 871, "pitch": 56, "duration": 7, "velocity": 72}, {"time": 871, "pitch": 63, "duration": 12, "velocity": 72}, {"time": 877, "pitch": 51, "duration": 34, "velocity": 71}, {"time": 883, "pitch": 56, "duration": 13, "velocity": 81}, {"time": 889, "pitch": 63, "duration": 8, "velocity": 74}, {"time": 895, "pitch": 68, "duration": 12, "velocity": 80}, {"time": 901, "pitch": 63, "duration": 16, "velocity": 80}, {"time": 907, "pitch": 56, "duration": 11, "velocity": 84}, {"time": 919, "pitch": 49, "duration": 41, "velocity": 79}, {"time": 919, "pitch": 65, "duration": 9, "velocity": 79}, {"time": 925, "pitch": 56, "duration": 8, "velocity": 79}, {"time": 931, "pitch": 61, "duration": 5, "velocity": 79}, {"time": 937, "pitch": 63, "duration": 12, "velocity": 79}, {"time": 949, "pitch": 61, "duration": 12, "velocity": 82}, {"time": 961, "pitch": 56, "duration": 7, "velocity": 80}, {"time": 967, "pitch": 49, "duration": 44, "velocity": 81}, {"time": 967, "pitch": 65, "duration": 10, "velocity": 82}, {"time": 973, "pitch": 56, "duration": 8, "velocity": 79}, {"time": 979, "pitch": 61, "duration": 4, "velocity": 75}, {"time": 985, "pitch": 63, "duration": 10, "velocity": 82}, {"time": 997, "pitch": 61, "duration": 5, "velocity": 82}, {"time": 1015, "pitch": 49, "duration": 37, "velocity": 80}, {"time": 1015, "pitch": 65, "duration": 8, "velocity": 80}, {"time": 1021, "pitch": 56, "duration": 8, "velocity": 80}, {"time": 1027, "pitch": 61, "duration": 6, "velocity": 80}, {"time": 1033, "pitch": 63, "duration": 14, "velocity": 80}, {"time": 1045, "pitch": 61, "duration": 8, "velocity": 80}, {"time": 1063, "pitch": 41, "duration": 33, "velocity": 81}, {"time": 1063, "pitch": 65, "duration": 10, "velocity": 79}, {"time": 1069, "pitch": 56, "duration": 8, "velocity": 69}, {"time": 1075, "pitch": 60, "duration": 4, "velocity": 75}, {"time": 1081, "pitch": 65, "duration": 13, "velocity": 84}, {"time": 1093, "pitch": 60, "duration": 7, "velocity": 85}, {"time": 1099, "pitch": 56, "duration": 4, "velocity": 80}, {"time": 1111, "pitch": 49, "duration": 40, "velocity": 81}, {"time": 1111, "pitch": 65, "duration": 10, "velocity": 79}, {"time": 1117, "pitch": 56, "duration": 7, "velocity": 79}, {"time": 1123, "pitch": 61, "duration": 4, "velocity": 81}, {"time": 1129, "pitch": 63, "duration": 13, "velocity": 79}, {"time": 1141, "pitch": 61, "duration": 6, "velocity": 83}, {"time": 1159, "pitch": 46, "duration": 40, "velocity": 81}, {"time": 1159, "pitch": 61, "duration": 13, "velocity": 76}, {"time": 1165, "pitch": 53, "duration": 33, "velocity": 75}, {"time": 1171, "pitch": 58, "duration": 3, "velocity": 82}, {"time": 1177, "pitch": 58, "duration": 9, "velocity": 78}, {"time": 1177, "pitch": 65, "duration": 10, "velocity": 81}, {"time": 1189, "pitch": 61, "duration": 6, "velocity": 85}, {"time": 1195, "pitch": 58, "duration": 4, "velocity": 73}, {"time": 1207, "pitch": 51, "duration": 22, "velocity": 83}, {"time": 1207, "pitch": 63, "duration": 7, "velocity": 72}, {"time": 1213, "pitch": 58, "duration": 8, "velocity": 77}, {"time": 1219, "pitch": 63, "duration": 8, "velocity": 72}, {"time": 1225, "pitch": 66, "duration": 25, "velocity": 81}, {"time": 1243, "pitch": 58, "duration": 7, "velocity": 75}, {"time": 1249, "pitch": 63, "duration": 15, "velocity": 71}, {"time": 1255, "pitch": 49, "duration": 45, "velocity": 83}, {"time": 1255, "pitch": 56, "duration": 4, "velocity": 79}, {"time": 1255, "pitch": 61, "duration": 8, "velocity": 79}, {"time": 1261, "pitch": 56, "duration": 8, "velocity": 80}, {"time": 1267, "pitch": 61, "duration": 4, "velocity": 79}, {"time": 1273, "pitch": 63, "duration": 3, "velocity": 88}, {"time": 1285, "pitch": 61, "duration": 7, "velocity": 88}, {"time": 1291, "pitch": 56, "duration": 10, "velocity": 80}, {"time": 1303, "pitch": 49, "duration": 42, "velocity": 83}, {"time": 1303, "pitch": 56, "duration": 4, "velocity": 79}, {"time": 1303, "pitch": 65, "duration": 12, "velocity": 81}, {"time": 1309, "pitch": 56, "duration": 8, "velocity": 79}, {"time": 1315, "pitch": 61, "duration": 3, "velocity": 76}, {"time": 1321, "pitch": 56, "duration": 19, "velocity": 81}, {"time": 1321, "pitch": 65, "duration": 19, "velocity": 83}, {"time": 1339, "pitch": 61, "duration": 7, "velocity": 84}, {"time": 1345, "pitch": 56, "duration": 2, "velocity": 80}, {"time": 1351, "pitch": 46, "duration": 44, "velocity": 80}, {"time": 1351, "pitch": 58, "duration": 7, "velocity": 75}, {"time": 1351, "pitch": 61, "duration": 14, "velocity": 80}, {"time": 1357, "pitch": 53, "duration": 26, "velocity": 74}, {"time": 1363, "pitch": 58, "duration": 15, "velocity": 81}, {"time": 1369, "pitch": 61, "duration": 2, "velocity": 49}, {"time": 1369, "pitch": 65, "duration": 9, "velocity": 81}, {"time": 1381, "pitch": 65, "duration": 13, "velocity": 82}, {"time": 1387, "pitch": 53, "duration": 8, "velocity": 74}, {"time": 1393, "pitch": 58, "duration": 7, "velocity": 79}, {"time": 1399, "pitch": 51, "duration": 33, "velocity": 81}, {"time": 1399, "pitch": 66, "duration": 9, "velocity": 81}, {"time": 1405, "pitch": 58, "duration": 8, "velocity": 81}, {"time": 1411, "pitch": 63, "duration": 7, "velocity": 81}, {"time": 1417, "pitch": 66, "duration": 11, "velocity": 90}, {"time": 1429, "pitch": 58, "duration": 6, "velocity": 83}, {"time": 1435, "pitch": 63, "duration": 7, "velocity": 81}, {"time": 1441, "pitch": 58, "duration": 3, "velocity": 72}, {"time": 1447, "pitch": 44, "duration": 24, "velocity": 80}, {"time": 1447, "pitch": 56, "duration": 7, "velocity": 75}, {"time": 1447, "pitch": 63, "duration": 13, "velocity": 75}, {"time": 1453, "pitch": 51, "duration": 17, "velocity": 70}, {"time": 1459, "pitch": 56, "duration": 8, "velocity": 80}, {"time": 1465, "pitch": 60, "duration": 4, "velocity": 79}, {"time": 1471, "pitch": 56, "duration": 4, "velocity": 77}, {"time": 1471, "pitch": 63, "duration": 22, "velocity": 79}, {"time": 1477, "pitch": 56, "duration": 7, "velocity": 84}, {"time": 1483, "pitch": 51, "duration": 6, "velocity": 81}, {"time": 1489, "pitch": 56, "duration": 8, "velocity": 86}, {"time": 1495, "pitch": 41, "duration": 30, "velocity": 85}, {"time": 1501, "pitch": 48, "duration": 21, "velocity": 71}, {"time": 1507, "pitch": 53, "duration": 8, "velocity": 83}, {"time": 1513, "pitch": 56, "duration": 3, "velocity": 88}, {"time": 1519, "pitch": 53, "duration": 13, "velocity": 81}, {"time": 1519, "pitch": 56, "duration": 14, "velocity": 90}, {"time": 1519, "pitch": 60, "duration": 17, "velocity": 81}, {"time": 1531, "pitch": 48, "duration": 2, "velocity": 79}, {"time": 1537, "pitch": 53, "duration": 2, "velocity": 85}, {"time": 1543, "pitch": 46, "duration": 43, "velocity": 80}, {"time": 1543, "pitch": 58, "duration": 7, "velocity": 73}, {"time": 1543, "pitch": 61, "duration": 9, "velocity": 78}, {"time": 1549, "pitch": 53, "duration": 38, "velocity": 75}, {"time": 1555, "pitch": 58, "duration": 3, "velocity": 81}, {"time": 1561, "pitch": 58, "duration": 8, "velocity": 83}, {"time": 1561, "pitch": 65, "duration": 7, "velocity": 85}, {"time": 1573, "pitch": 58, "duration": 3, "velocity": 83}, {"time": 1573, "pitch": 61, "duration": 7, "velocity": 86}, {"time": 1579, "pitch": 58, "duration": 8, "velocity": 81}, {"time": 1585, "pitch": 61, "duration": 4, "velocity": 81}, {"time": 1591, "pitch": 51, "duration": 36, "velocity": 83}, {"time": 1591, "pitch": 66, "duration": 9, "velocity": 88}, {"time": 1597, "pitch": 58, "duration": 8, "velocity": 79}, {"time": 1603, "pitch": 63, "duration": 3, "velocity": 75}, {"time": 1609, "pitch": 58, "duration": 8, "velocity": 80}, {"time": 1609, "pitch": 66, "duration": 12, "velocity": 81}, {"time": 1621, "pitch": 63, "duration": 6, "velocity": 82}, {"time": 1627, "pitch": 58, "duration": 6, "velocity": 80}, {"time": 1633, "pitch": 63, "duration": 6, "velocity": 79}, {"time": 1639, "pitch": 44, "duration": 42, "velocity": 81}, {"time": 1639, "pitch": 56, "duration": 14, "velocity": 86}, {"time": 1645, "pitch": 51, "duration": 33, "velocity": 80}, {"time": 1651, "pitch": 63, "duration": 4, "velocity": 79}, {"time": 1657, "pitch": 56, "duration": 8, "velocity": 84}, {"time": 1657, "pitch": 63, "duration": 1, "velocity": 54}, {"time": 1657, "pitch": 68, "duration": 10, "velocity": 83}, {"time": 1669, "pitch": 63, "duration": 7, "velocity": 86}, {"time": 1675, "pitch": 56, "duration": 9, "velocity": 85}, {"time": 1681, "pitch": 63, "duration": 5, "velocity": 79}, {"time": 1687, "pitch": 49, "duration": 40, "velocity": 85}, {"time": 1687, "pitch": 56, "duration": 4, "velocity": 78}, {"time": 1687, "pitch": 61, "duration": 8, "velocity": 83}, {"time": 1693, "pitch": 56, "duration": 9, "velocity": 80}, {"time": 1699, "pitch": 61, "duration": 3, "velocity": 76}, {"time": 1705, "pitch": 56, "duration": 13, "velocity": 83}, {"time": 1705, "pitch": 65, "duration": 12, "velocity": 84}, {"time": 1717, "pitch": 61, "duration": 7, "velocity": 81}, {"time": 1723, "pitch": 56, "duration": 4, "velocity": 84}, {"time": 1735, "pitch": 46, "duration": 44, "velocity": 80}, {"time": 1735, "pitch": 58, "duration": 6, "velocity": 74}, {"time": 1735, "pitch": 61, "duration": 12, "velocity": 78}, {"time": 1741, "pitch": 53, "duration": 37, "velocity": 75}, {"time": 1747, "pitch": 58, "duration": 3, "velocity": 80}, {"time": 1753, "pitch": 58, "duration": 8, "velocity": 83}, {"time": 1753, "pitch": 65, "duration": 8, "velocity": 81}, {"time": 1765, "pitch": 61, "duration": 6, "velocity": 90}, {"time": 1771, "pitch": 58, "duration": 8, "velocity": 79}, {"time": 1777, "pitch": 61, "duration": 3, "velocity": 80}, {"time": 1783, "pitch": 51, "duration": 32, "velocity": 88}, {"time": 1783, "pitch": 66, "duration": 8, "velocity": 81}, {"time": 1789, "pitch": 58, "duration": 7, "velocity": 81}, {"time": 1795, "pitch": 63, "duration": 3, "velocity": 77}, {"time": 1801, "pitch": 58, "duration": 4, "velocity": 80}, {"time": 1801, "pitch": 66, "duration": 7, "velocity": 80}, {"time": 1813, "pitch": 63, "duration": 6, "velocity": 84}, {"time": 1819, "pitch": 58, "duration": 6, "velocity": 80}, {"time": 1825, "pitch": 63, "duration": 6, "velocity": 80}, {"time": 1831, "pitch": 44, "duration": 38, "velocity": 80}, {"time": 1831, "pitch": 56, "duration": 17, "velocity": 85}, {"time": 1837, "pitch": 51, "duration": 31, "velocity": 79}, {"time": 1843, "pitch": 63, "duration": 7, "velocity": 77}, {"time": 1849, "pitch": 68, "duration": 18, "velocity": 83}, {"time": 1861, "pitch": 63, "duration": 6, "velocity": 85}, {"time": 1867, "pitch": 56, "duration": 2, "velocity": 80}, {"time": 1879, "pitch": 41, "duration": 35, "velocity": 81}, {"time": 1879, "pitch": 60, "duration": 5, "velocity": 75}, {"time": 1879, "pitch": 65, "duration": 12, "velocity": 74}, {"time": 1885, "pitch": 48, "duration": 28, "velocity": 71}, {"time": 1891, "pitch": 60, "duration": 17, "velocity": 79}, {"time": 1897, "pitch": 68, "duration": 13, "velocity": 81}, {"time": 1909, "pitch": 65, "duration": 6, "velocity": 84}, {"time": 1915, "pitch": 60, "duration": 4, "velocity": 75}, {"time": 1927, "pitch": 46, "duration": 38, "velocity": 80}, {"time": 1927, "pitch": 58, "duration": 7, "velocity": 75}, {"time": 1927, "pitch": 61, "duration": 12, "velocity": 79}, {"time": 1933, "pitch": 53, "duration": 30, "velocity": 73}, {"time": 1939, "pitch": 58, "duration": 2, "velocity": 68}, {"time": 1945, "pitch": 58, "duration": 7, "velocity": 81}, {"time": 1945, "pitch": 65, "duration": 7, "velocity": 81}, {"time": 1957, "pitch": 61, "duration": 7, "velocity": 84}, {"time": 1963, "pitch": 58, "duration": 13, "velocity": 81}, {"time": 1975, "pitch": 39, "duration": 13, "velocity": 85}, {"time": 1975, "pitch": 63, "duration": 13, "velocity": 82}, {"time": 1987, "pitch": 58, "duration": 5, "velocity": 71}, {"time": 1993, "pitch": 63, "duration": 5, "velocity": 75}, {"time": 1999, "pitch": 44, "duration": 20, "velocity": 79}, {"time": 1999, "pitch": 56, "duration": 16, "velocity": 73}, {"time": 1999, "pitch": 60, "duration": 18, "velocity": 78}, {"time": 2023, "pitch": 49, "duration": 48, "velocity": 80}, {"time": 2023, "pitch": 56, "duration": 4, "velocity": 78}, {"time": 2023, "pitch": 61, "duration": 9, "velocity": 74}, {"time": 2029, "pitch": 56, "duration": 8, "velocity": 76}, {"time": 2035, "pitch": 63, "duration": 7, "velocity": 79}, {"time": 2041, "pitch": 65, "duration": 13, "velocity": 86}, {"time": 2053, "pitch": 61, "duration": 17, "velocity": 81}, {"time": 2059, "pitch": 56, "duration": 11, "velocity": 79}, {"time": 2071, "pitch": 49, "duration": 1, "velocity": 85}, {"time": 2071, "pitch": 56, "duration": 4, "velocity": 79}, {"time": 2071, "pitch": 61, "duration": 8, "velocity": 76}, {"time": 2077, "pitch": 56, "duration": 8, "velocity": 79}, {"time": 2083, "pitch": 61, "duration": 4, "velocity": 80}, {"time": 2089, "pitch": 65, "duration": 8, "velocity": 81}, {"time": 2101, "pitch": 61, "duration": 4, "velocity": 81}, {"time": 2119, "pitch": 46, "duration": 40, "velocity": 80}, {"time": 2119, "pitch": 58, "duration": 7, "velocity": 71}, {"time": 2119, "pitch": 65, "duration": 12, "velocity": 76}, {"time": 2125, "pitch": 53, "duration": 33, "velocity": 72}, {"time": 2131, "pitch": 58, "duration": 3, "velocity": 80}, {"time": 2137, "pitch": 58, "duration": 16, "velocity": 80}, {"time": 2137, "pitch": 61, "duration": 15, "velocity": 86}, {"time": 2155, "pitch": 61, "duration": 5, "velocity": 82}, {"time": 2161, "pitch": 58, "duration": 6, "velocity": 68}, {"time": 2167, "pitch": 51, "duration": 32, "velocity": 80}, {"time": 2167, "pitch": 66, "duration": 9, "velocity": 82}, {"time": 2173, "pitch": 58, "duration": 8, "velocity": 79}, {"time": 2179, "pitch": 63, "duration": 7, "velocity": 77}, {"time": 2185, "pitch": 66, "duration": 19, "velocity": 84}, {"time": 2203, "pitch": 63, "duration": 5, "velocity": 83}, {"time": 2215, "pitch": 44, "duration": 37, "velocity": 80}, {"time": 2215, "pitch": 63, "duration": 9, "velocity": 83}, {"time": 2221, "pitch": 51, "duration": 31, "velocity": 78}, {"time": 2227, "pitch": 56, "duration": 7, "velocity": 83}, {"time": 2233, "pitch": 63, "duration": 7, "velocity": 81}, {"time": 2239, "pitch": 68, "duration": 8, "velocity": 83}, {"time": 2245, "pitch": 63, "duration": 6, "velocity": 84}, {"time": 2251, "pitch": 56, "duration": 2, "velocity": 82}, {"time": 2263, "pitch": 41, "duration": 38, "velocity": 80}, {"time": 2263, "pitch": 60, "duration": 7, "velocity": 76}, {"time": 2263, "pitch": 65, "duration": 13, "velocity": 80}, {"time": 2269, "pitch": 48, "duration": 32, "velocity": 74}, {"time": 2275, "pitch": 60, "duration": 18, "velocity": 81}, {"time": 2281, "pitch": 65, "duration": 13, "velocity": 80}, {"time": 2293, "pitch": 68, "duration": 9, "velocity": 80}, {"time": 2299, "pitch": 60, "duration": 3, "velocity": 80}, {"time": 2311, "pitch": 42, "duration": 34, "velocity": 80}, {"time": 2311, "pitch": 54, "duration": 17, "velocity": 73}, {"time": 2311, "pitch": 58, "duration": 14, "velocity": 66}, {"time": 2317, "pitch": 49, "duration": 27, "velocity": 74}, {"time": 2323, "pitch": 61, "duration": 8, "velocity": 73}, {"time": 2329, "pitch": 66, "duration": 18, "velocity": 80}, {"time": 2341, "pitch": 61, "duration": 6, "velocity": 84}, {"time": 2347, "pitch": 54, "duration": 2, "velocity": 81}, {"time": 2359, "pitch": 51, "duration": 36, "velocity": 85}, {"time": 2359, "pitch": 58, "duration": 3, "velocity": 78}, {"time": 2359, "pitch": 63, "duration": 7, "velocity": 80}, {"time": 2365, "pitch": 58, "duration": 8, "velocity": 79}, {"time": 2371, "pitch": 63, "duration": 3, "velocity": 71}, {"time": 2377, "pitch": 58, "duration": 10, "velocity": 83}, {"time": 2377, "pitch": 66, "duration": 12, "velocity": 80}, {"time": 2389, "pitch": 63, "duration": 6, "velocity": 85}, {"time": 2395, "pitch": 58, "duration": 6, "velocity": 85}, {"time": 2401, "pitch": 63, "duration": 18, "velocity": 79}, {"time": 2407, "pitch": 44, "duration": 38, "velocity": 84}, {"time": 2413, "pitch": 51, "duration": 16, "velocity": 75}, {"time": 2419, "pitch": 56, "duration": 3, "velocity": 85}, {"time": 2425, "pitch": 56, "duration": 9, "velocity": 84}, {"time": 2425, "pitch": 63, "duration": 10, "velocity": 84}, {"time": 2431, "pitch": 51, "duration": 9, "velocity": 80}, {"time": 2437, "pitch": 56, "duration": 5, "velocity": 82}, {"time": 2437, "pitch": 63, "duration": 9, "velocity": 81}, {"time": 2437, "pitch": 68, "duration": 9, "velocity": 79}, {"time": 2443, "pitch": 51, "duration": 4, "velocity": 81}, {"time": 2455, "pitch": 49, "duration": 35, "velocity": 93}, {"time": 2455, "pitch": 56, "duration": 4, "velocity": 84}, {"time": 2455, "pitch": 65, "duration": 9, "velocity": 80}, {"time": 2461, "pitch": 56, "duration": 7, "velocity": 80}, {"time": 2467, "pitch": 61, "duration": 2, "velocity": 79}, {"time": 2473, "pitch": 56, "duration": 8, "velocity": 83}, {"time": 2473, "pitch": 65, "duration": 10, "velocity": 90}, {"time": 2485, "pitch": 56, "duration": 7, "velocity": 80}, {"time": 2485, "pitch": 61, "duration": 13, "velocity": 83}, {"time": 2491, "pitch": 48, "duration": 9, "velocity": 80}, {"time": 2503, "pitch": 46, "duration": 37, "velocity": 81}, {"time": 2503, "pitch": 58, "duration": 7, "velocity": 74}, {"time": 2503, "pitch": 61, "duration": 11, "velocity": 78}, {"time": 2509, "pitch": 53, "duration": 15, "velocity": 75}, {"time": 2515, "pitch": 58, "duration": 2, "velocity": 82}, {"time": 2521, "pitch": 58, "duration": 7, "velocity": 81}, {"time": 2521, "pitch": 61, "duration": 12, "velocity": 86}, {"time": 2521, "pitch": 65, "duration": 13, "velocity": 88}, {"time": 2527, "pitch": 53, "duration": 15, "velocity": 79}, {"time": 2533, "pitch": 58, "duration": 8, "velocity": 80}, {"time": 2539, "pitch": 61, "duration": 11, "velocity": 84}, {"time": 2545, "pitch": 49, "duration": 5, "velocity": 88}, {"time": 2551, "pitch": 51, "duration": 38, "velocity": 96}, {"time": 2551, "pitch": 63, "duration": 8, "velocity": 80}, {"time": 2557, "pitch": 58, "duration": 7, "velocity": 83}, {"time": 2563, "pitch": 63, "duration": 4, "velocity": 73}, {"time": 2569, "pitch": 58, "duration": 12, "velocity": 79}, {"time": 2569, "pitch": 66, "duration": 14, "velocity": 82}, {"time": 2581, "pitch": 63, "duration": 29, "velocity": 83}, {"time": 2587, "pitch": 58, "duration": 13, "velocity": 79}, {"time": 2593, "pitch": 46, "duration": 4, "velocity": 77}, {"time": 2599, "pitch": 44, "duration": 36, "velocity": 83}, {"time": 2605, "pitch": 51, "duration": 28, "velocity": 73}, {"time": 2611, "pitch": 56, "duration": 10, "velocity": 85}, {"time": 2617, "pitch": 63, "duration": 7, "velocity": 80}, {"time": 2623, "pitch": 68, "duration": 9, "velocity": 84}, {"time": 2629, "pitch": 63, "duration": 7, "velocity": 81}, {"time": 2635, "pitch": 56, "duration": 2, "velocity": 83}, {"time": 2647, "pitch": 41, "duration": 36, "velocity": 85}, {"time": 2647, "pitch": 60, "duration": 8, "velocity": 79}, {"time": 2647, "pitch": 65, "duration": 11, "velocity": 79}, {"time": 2653, "pitch": 48, "duration": 30, "velocity": 71}, {"time": 2659, "pitch": 60, "duration": 8, "velocity": 81}, {"time": 2665, "pitch": 65, "duration": 3, "velocity": 84}, {"time": 2677, "pitch": 60, "duration": 7, "velocity": 83}, {"time": 2683, "pitch": 65, "duration": 7, "velocity": 80}, {"time": 2695, "pitch": 42, "duration": 37, "velocity": 80}, {"time": 2695, "pitch": 61, "duration": 7, "velocity": 79}, {"time": 2695, "pitch": 66, "duration": 13, "velocity": 86}, {"time": 2701, "pitch": 49, "duration": 28, "velocity": 75}, {"time": 2707, "pitch": 61, "duration": 3, "velocity": 80}, {"time": 2713, "pitch": 61, "duration": 9, "velocity": 88}, {"time": 2713, "pitch": 70, "duration": 11, "velocity": 80}, {"time": 2725, "pitch": 61, "duration": 3, "velocity": 77}, {"time": 2725, "pitch": 66, "duration": 7, "velocity": 81}, {"time": 2731, "pitch": 61, "duration": 2, "velocity": 83}, {"time": 2743, "pitch": 51, "duration": 12, "velocity": 86}, {"time": 2743, "pitch": 58, "duration": 3, "velocity": 81}, {"time": 2743, "pitch": 63, "duration": 6, "velocity": 84}, {"time": 2749, "pitch": 58, "duration": 6, "velocity": 83}, {"time": 2755, "pitch": 63, "duration": 6, "velocity": 82}, {"time": 2761, "pitch": 58, "duration": 3, "velocity": 68}, {"time": 2767, "pitch": 44, "duration": 20, "velocity": 80}, {"time": 2767, "pitch": 56, "duration": 8, "velocity": 80}, {"time": 2767, "pitch": 63, "duration": 11, "velocity": 79}, {"time": 2773, "pitch": 51, "duration": 14, "velocity": 74}, {"time": 2779, "pitch": 56, "duration": 8, "velocity": 85}, {"time": 2785, "pitch": 63, "duration": 4, "velocity": 75}, {"time": 2791, "pitch": 49, "duration": 49, "velocity": 90}, {"time": 2791, "pitch": 61, "duration": 8, "velocity": 82}, {"time": 2797, "pitch": 56, "duration": 8, "velocity": 84}, {"time": 2803, "pitch": 61, "duration": 3, "velocity": 78}, {"time": 2809, "pitch": 63, "duration": 4, "velocity": 84}, {"time": 2815, "pitch": 65, "duration": 5, "velocity": 93}, {"time": 2821, "pitch": 61, "duration": 19, "velocity": 73}, {"time": 2827, "pitch": 56, "duration": 12, "velocity": 75}, {"time": 2839, "pitch": 49, "duration": 1, "velocity": 79}, {"time": 2839, "pitch": 65, "duration": 9, "velocity": 79}, {"time": 2845, "pitch": 56, "duration": 8, "velocity": 79}, {"time": 2851, "pitch": 61, "duration": 5, "velocity": 79}, {"time": 2857, "pitch": 63, "duration": 12, "velocity": 79}, {"time": 2869, "pitch": 61, "duration": 12, "velocity": 82}, {"time": 2881, "pitch": 56, "duration": 7, "velocity": 80}, {"time": 2887, "pitch": 49, "duration": 44, "velocity": 81}, {"time": 2887, "pitch": 65, "duration": 10, "velocity": 82}, {"time": 2893, "pitch": 56, "duration": 8, "velocity": 79}, {"time": 2899, "pitch": 61, "duration": 4, "velocity": 75}, {"time": 2905, "pitch": 63, "duration": 10, "velocity": 82}, {"time": 2917, "pitch": 61, "duration": 5, "velocity": 82}, {"time": 2935, "pitch": 49, "duration": 37, "velocity": 80}, {"time": 2935, "pitch": 65, "duration": 8, "velocity": 80}, {"time": 2941, "pitch": 56, "duration": 8, "velocity": 80}, {"time": 2947, "pitch": 61, "duration": 6, "velocity": 80}, {"time": 2953, "pitch": 63, "duration": 14, "velocity": 80}, {"time": 2965, "pitch": 61, "duration": 8, "velocity": 80}, {"time": 2983, "pitch": 41, "duration": 33, "velocity": 81}, {"time": 2983, "pitch": 65, "duration": 10, "velocity": 79}, {"time": 2989, "pitch": 56, "duration": 8, "velocity": 69}, {"time": 2995, "pitch": 60, "duration": 4, "velocity": 75}, {"time": 3001, "pitch": 65, "duration": 13, "velocity": 84}, {"time": 3013, "pitch": 60, "duration": 7, "velocity": 85}, {"time": 3019, "pitch": 56, "duration": 4, "velocity": 80}, {"time": 3031, "pitch": 49, "duration": 40, "velocity": 81}, {"time": 3031, "pitch": 65, "duration": 10, "velocity": 79}, {"time": 3037, "pitch": 56, "duration": 7, "velocity": 79}, {"time": 3043, "pitch": 61, "duration": 4, "velocity": 81}, {"time": 3049, "pitch": 63, "duration": 13, "velocity": 79}, {"time": 3061, "pitch": 61, "duration": 6, "velocity": 83}, {"time": 3079, "pitch": 46, "duration": 40, "velocity": 81}, {"time": 3079, "pitch": 61, "duration": 13, "velocity": 76}, {"time": 3085, "pitch": 53, "duration": 33, "velocity": 75}, {"time": 3091, "pitch": 58, "duration": 3, "velocity": 82}, {"time": 3097, "pitch": 58, "duration": 9, "velocity": 78}, {"time": 3097, "pitch": 65, "duration": 10, "velocity": 81}, {"time": 3109, "pitch": 61, "duration": 6, "velocity": 85}, {"time": 3115, "pitch": 58, "duration": 4, "velocity": 73}, {"time": 3127, "pitch": 51, "duration": 22, "velocity": 83}, {"time": 3127, "pitch": 63, "duration": 7, "velocity": 72}, {"time": 3133, "pitch": 58, "duration": 8, "velocity": 77}, {"time": 3139, "pitch": 63, "duration": 8, "velocity": 72}, {"time": 3145, "pitch": 66, "duration": 25, "velocity": 81}, {"time": 3163, "pitch": 58, "duration": 7, "velocity": 75}, {"time": 3169, "pitch": 63, "duration": 15, "velocity": 71}, {"time": 3175, "pitch": 49, "duration": 45, "velocity": 83}, {"time": 3175, "pitch": 56, "duration": 4, "velocity": 79}, {"time": 3175, "pitch": 61, "duration": 8, "velocity": 79}, {"time": 3181, "pitch": 56, "duration": 8, "velocity": 80}, {"time": 3187, "pitch": 61, "duration": 4, "velocity": 79}, {"time": 3193, "pitch": 63, "duration": 3, "velocity": 88}, {"time": 3205, "pitch": 61, "duration": 7, "velocity": 88}, {"time": 3211, "pitch": 56, "duration": 10, "velocity": 80}, {"time": 3223, "pitch": 49, "duration": 42, "velocity": 83}, {"time": 3223, "pitch": 56, "duration": 4, "velocity": 79}, {"time": 3223, "pitch": 65, "duration": 12, "velocity": 81}, {"time": 3229, "pitch": 56, "duration": 8, "velocity": 79}, {"time": 3235, "pitch": 61, "duration": 3, "velocity": 76}, {"time": 3241, "pitch": 56, "duration": 19, "velocity": 81}, {"time": 3241, "pitch": 65, "duration": 19, "velocity": 83}, {"time": 3259, "pitch": 61, "duration": 7, "velocity": 84}, {"time": 3265, "pitch": 56, "duration": 2, "velocity": 80}, {"time": 3271, "pitch": 46, "duration": 44, "velocity": 80}, {"time": 3271, "pitch": 58, "duration": 7, "velocity": 75}, {"time": 3271, "pitch": 61, "duration": 14, "velocity": 80}, {"time": 3277, "pitch": 53, "duration": 26, "velocity": 74}, {"time": 3283, "pitch": 58, "duration": 15, "velocity": 81}, {"time": 3289, "pitch": 61, "duration": 2, "velocity": 49}, {"time": 3289, "pitch": 65, "duration": 9, "velocity": 81}, {"time": 3301, "pitch": 65, "duration": 13, "velocity": 82}, {"time": 3307, "pitch": 53, "duration": 8, "velocity": 74}, {"time": 3313, "pitch": 58, "duration": 7, "velocity": 79}, {"time": 3319, "pitch": 51, "duration": 33, "velocity": 81}, {"time": 3319, "pitch": 66, "duration": 9, "velocity": 81}, {"time": 3325, "pitch": 58, "duration": 8, "velocity": 81}, {"time": 3331, "pitch": 63, "duration": 7, "velocity": 81}, {"time": 3337, "pitch": 66, "duration": 11, "velocity": 90}, {"time": 3349, "pitch": 58, "duration": 6, "velocity": 83}, {"time": 3355, "pitch": 63, "duration": 7, "velocity": 81}, {"time": 3361, "pitch": 58, "duration": 3, "velocity": 72}, {"time": 3367, "pitch": 44, "duration": 24, "velocity": 80}, {"time": 3367, "pitch": 56, "duration": 7, "velocity": 75}, {"time": 3367, "pitch": 63, "duration": 13, "velocity": 75}, {"time": 3373, "pitch": 51, "duration": 17, "velocity": 70}, {"time": 3379, "pitch": 56, "duration": 8, "velocity": 80}, {"time": 3385, "pitch": 60, "duration": 4, "velocity": 79}, {"time": 3391, "pitch": 56, "duration": 4, "velocity": 77}, {"time": 3391, "pitch": 63, "duration": 22, "velocity": 79}, {"time": 3397, "pitch": 56, "duration": 7, "velocity": 84}, {"time": 3403, "pitch": 51, "duration": 6, "velocity": 81}, {"time": 3409, "pitch": 56, "duration": 8, "velocity": 86}, {"time": 3415, "pitch": 41, "duration": 30, "velocity": 85}, {"time": 3421, "pitch": 48, "duration": 21, "velocity": 71}, {"time": 3427, "pitch": 53, "duration": 8, "velocity": 83}, {"time": 3433, "pitch": 56, "duration": 3, "velocity": 88}, {"time": 3439, "pitch": 53, "duration": 13, "velocity": 81}, {"time": 3439, "pitch": 56, "duration": 14, "velocity": 90}, {"time": 3439, "pitch": 60, "duration": 17, "velocity": 81}, {"time": 3451, "pitch": 48, "duration": 2, "velocity": 79}, {"time": 3457, "pitch": 53, "duration": 2, "velocity": 85}, {"time": 3463, "pitch": 46, "duration": 43, "velocity": 80}, {"time": 3463, "pitch": 58, "duration": 7, "velocity": 73}, {"time": 3463, "pitch": 61, "duration": 9, "velocity": 78}, {"time": 3469, "pitch": 53, "duration": 38, "velocity": 75}, {"time": 3475, "pitch": 58, "duration": 3, "velocity": 81}, {"time": 3481, "pitch": 58, "duration": 8, "velocity": 83}, {"time": 3481, "pitch": 65, "duration": 7, "velocity": 85}, {"time": 3493, "pitch": 58, "duration": 3, "velocity": 83}, {"time": 3493, "pitch": 61, "duration": 7, "velocity": 86}, {"time": 3499, "pitch": 58, "duration": 8, "velocity": 81}, {"time": 3505, "pitch": 61, "duration": 4, "velocity": 81}, {"time": 3511, "pitch": 51, "duration": 36, "velocity": 83}, {"time": 3511, "pitch": 66, "duration": 9, "velocity": 88}, {"time": 3517, "pitch": 58, "duration": 8, "velocity": 79}, {"time": 3523, "pitch": 63, "duration": 3, "velocity": 75}, {"time": 3529, "pitch": 58, "duration": 8, "velocity": 80}, {"time": 3529, "pitch": 66, "duration": 12, "velocity": 81}, {"time": 3541, "pitch": 63, "duration": 6, "velocity": 82}, {"time": 3547, "pitch": 58, "duration": 6, "velocity": 80}, {"time": 3553, "pitch": 63, "duration": 6, "velocity": 79}, {"time": 3559, "pitch": 44, "duration": 42, "velocity": 81}, {"time": 3559, "pitch": 56, "duration": 14, "velocity": 86}, {"time": 3565, "pitch": 51, "duration": 33, "velocity": 80}, {"time": 3571, "pitch": 63, "duration": 4, "velocity": 79}, {"time": 3577, "pitch": 56, "duration": 8, "velocity": 84}, {"time": 3577, "pitch": 63, "duration": 1, "velocity": 54}, {"time": 3577, "pitch": 68, "duration": 10, "velocity": 83}, {"time": 3589, "pitch": 63, "duration": 7, "velocity": 86}, {"time": 3595, "pitch": 56, "duration": 9, "velocity": 85}, {"time": 3601, "pitch": 63, "duration": 5, "velocity": 79}, {"time": 3607, "pitch": 49, "duration": 40, "velocity": 85}, {"time": 3607, "pitch": 56, "duration": 4, "velocity": 78}, {"time": 3607, "pitch": 61, "duration": 8, "velocity": 83}, {"time": 3613, "pitch": 56, "duration": 9, "velocity": 80}, {"time": 3619, "pitch": 61, "duration": 3, "velocity": 76}, {"time": 3625, "pitch": 56, "duration": 13, "velocity": 83}, {"time": 3625, "pitch": 65, "duration": 12, "velocity": 84}, {"time": 3637, "pitch": 61, "duration": 7, "velocity": 81}, {"time": 3643, "pitch": 56, "duration": 4, "velocity": 84}, {"time": 3655, "pitch": 46, "duration": 44, "velocity": 80}, {"time": 3655, "pitch": 58, "duration": 6, "velocity": 74}, {"time": 3655, "pitch": 61, "duration": 12, "velocity": 78}, {"time": 3661, "pitch": 53, "duration": 37, "velocity": 75}, {"time": 3667, "pitch": 58, "duration": 3, "velocity": 80}, {"time": 3673, "pitch": 58, "duration": 8, "velocity": 83}, {"time": 3673, "pitch": 65, "duration": 8, "velocity": 81}, {"time": 3685, "pitch": 61, "duration": 6, "velocity": 90}, {"time": 3691, "pitch": 58, "duration": 8, "velocity": 79}, {"time": 3697, "pitch": 61, "duration": 3, "velocity": 80}, {"time": 3703, "pitch": 51, "duration": 32, "velocity": 88}, {"time": 3703, "pitch": 66, "duration": 8, "velocity": 81}, {"time": 3709, "pitch": 58, "duration": 7, "velocity": 81}, {"time": 3715, "pitch": 63, "duration": 3, "velocity": 77}, {"time": 3721, "pitch": 58, "duration": 4, "velocity": 80}, {"time": 3721, "pitch": 66, "duration": 7, "velocity": 80}, {"time": 3733, "pitch": 63, "duration": 6, "velocity": 84}, {"time": 3739, "pitch": 58, "duration": 6, "velocity": 80}, {"time": 3745, "pitch": 63, "duration": 6, "velocity": 80}, {"time": 3751, "pitch": 44, "duration": 38, "velocity": 80}, {"time": 3751, "pitch": 56, "duration": 17, "velocity": 85}, {"time": 3757, "pitch": 51, "duration": 31, "velocity": 79}, {"time": 3763, "pitch": 63, "duration": 7, "velocity": 77}, {"time": 3769, "pitch": 68, "duration": 18, "velocity": 83}, {"time": 3781, "pitch": 63, "duration": 6, "velocity": 85}, {"time": 3787, "pitch": 56, "duration": 2, "velocity": 80}, {"time": 3799, "pitch": 41, "duration": 35, "velocity": 81}, {"time": 3799, "pitch": 60, "duration": 5, "velocity": 75}, {"time": 3799, "pitch": 65, "duration": 12, "velocity": 74}, {"time": 3805, "pitch": 48, "duration": 28, "velocity": 71}, {"time": 3811, "pitch": 60, "duration": 17, "velocity": 79}, {"time": 3817, "pitch": 68, "duration": 13, "velocity": 81}, {"time": 3829, "pitch": 65, "duration": 6, "velocity": 84}, {"time": 3835, "pitch": 60, "duration": 4, "velocity": 75}, {"time": 3847, "pitch": 46, "duration": 38, "velocity": 80}, {"time": 3847, "pitch": 58, "duration": 7, "velocity": 75}, {"time": 3847, "pitch": 61, "duration": 12, "velocity": 79}, {"time": 3853, "pitch": 53, "duration": 30, "velocity": 73}, {"time": 3859, "pitch": 58, "duration": 2, "velocity": 68}, {"time": 3865, "pitch": 58, "duration": 7, "velocity": 81}, {"time": 3865, "pitch": 65, "duration": 7, "velocity": 81}, {"time": 3877, "pitch": 61, "duration": 7, "velocity": 84}, {"time": 3883, "pitch": 58, "duration": 13, "velocity": 81}, {"time": 3895, "pitch": 39, "duration": 13, "velocity": 85}, {"time": 3895, "pitch": 63, "duration": 13, "velocity": 82}, {"time": 3907, "pitch": 58, "duration": 5, "velocity": 71}, {"time": 3913, "pitch": 63, "duration": 5, "velocity": 75}, {"time": 3919, "pitch": 44, "duration": 20, "velocity": 79}, {"time": 3919, "pitch": 56, "duration": 16, "velocity": 73}, {"time": 3919, "pitch": 60, "duration": 18, "velocity": 78}, {"time": 3943, "pitch": 49, "duration": 48, "velocity": 80}, {"time": 3943, "pitch": 56, "duration": 4, "velocity": 78}, {"time": 3943, "pitch": 61, "duration": 9, "velocity": 74}, {"time": 3949, "pitch": 56, "duration": 8, "velocity": 76}, {"time": 3955, "pitch": 63, "duration": 7, "velocity": 79}, {"time": 3961, "pitch": 65, "duration": 13, "velocity": 86}, {"time": 3973, "pitch": 61, "duration": 17, "velocity": 81}, {"time": 3979, "pitch": 56, "duration": 11, "velocity": 79}, {"time": 3991, "pitch": 49, "duration": 1, "velocity": 83}, {"time": 3991, "pitch": 56, "duration": 4, "velocity": 79}, {"time": 3991, "pitch": 65, "duration": 12, "velocity": 81}, {"time": 3997, "pitch": 56, "duration": 8, "velocity": 79}, {"time": 4003, "pitch": 61, "duration": 3, "velocity": 76}, {"time": 4009, "pitch": 56, "duration": 19, "velocity": 81}, {"time": 4009, "pitch": 65, "duration": 19, "velocity": 83}, {"time": 4027, "pitch": 61, "duration": 7, "velocity": 84}, {"time": 4033, "pitch": 56, "duration": 2, "velocity": 80}, {"time": 4039, "pitch": 46, "duration": 44, "velocity": 80}, {"time": 4039, "pitch": 58, "duration": 7, "velocity": 75}, {"time": 4039, "pitch": 61, "duration": 14, "velocity": 80}, {"time": 4045, "pitch": 53, "duration": 26, "velocity": 74}, {"time": 4051, "pitch": 58, "duration": 15, "velocity": 81}, {"time": 4057, "pitch": 61, "duration": 2, "velocity": 49}, {"time": 4057, "pitch": 65, "duration": 9, "velocity": 81}, {"time": 4069, "pitch": 65, "duration": 13, "velocity": 82}, {"time": 4075, "pitch": 53, "duration": 8, "velocity": 74}, {"time": 4081, "pitch": 58, "duration": 7, "velocity": 79}, {"time": 4087, "pitch": 51, "duration": 33, "velocity": 81}, {"time": 4087, "pitch": 66, "duration": 9, "velocity": 81}, {"time": 4093, "pitch": 58, "duration": 8, "velocity": 81}, {"time": 4099, "pitch": 63, "duration": 7, "velocity": 81}, {"time": 4105, "pitch": 66, "duration": 11, "velocity": 90}, {"time": 4117, "pitch": 58, "duration": 6, "velocity": 83}, {"time": 4123, "pitch": 63, "duration": 7, "velocity": 81}, {"time": 4129, "pitch": 58, "duration": 3, "velocity": 72}, {"time": 4135, "pitch": 44, "duration": 24, "velocity": 80}, {"time": 4135, "pitch": 56, "duration": 7, "velocity": 75}, {"time": 4135, "pitch": 63, "duration": 13, "velocity": 75}, {"time": 4141, "pitch": 51, "duration": 17, "velocity": 70}, {"time": 4147, "pitch": 56, "duration": 8, "velocity": 80}, {"time": 4153, "pitch": 60, "duration": 4, "velocity": 79}, {"time": 4159, "pitch": 56, "duration": 4, "velocity": 77}, {"time": 4159, "pitch": 63, "duration": 22, "velocity": 79}, {"time": 4165, "pitch": 56, "duration": 7, "velocity": 84}, {"time": 4171, "pitch": 51, "duration": 6, "velocity": 81}, {"time": 4177, "pitch": 56, "duration": 8, "velocity": 86}, {"time": 4183, "pitch": 41, "duration": 30, "velocity": 85}, {"time": 4189, "pitch": 48, "duration": 21, "velocity": 71}, {"time": 4195, "pitch": 53, "duration": 8, "velocity": 83}, {"time": 4201, "pitch": 56, "duration": 3, "velocity": 88}, {"time": 4207, "pitch": 53, "duration": 13, "velocity": 81}, {"time": 4207, "pitch": 56, "duration": 14, "velocity": 90}, {"time": 4207, "pitch": 60, "duration": 17, "velocity": 81}, {"time": 4219, "pitch": 48, "duration": 2, "velocity": 79}, {"time": 4225, "pitch": 53, "duration": 2, "velocity": 85}, {"time": 4231, "pitch": 46, "duration": 43, "velocity": 80}, {"time": 4231, "pitch": 58, "duration": 7, "velocity": 73}, {"time": 4231, "pitch": 61, "duration": 9, "velocity": 78}, {"time": 4237, "pitch": 53, "duration": 38, "velocity": 75}, {"time": 4243, "pitch": 58, "duration": 3, "velocity": 81}, {"time": 4249, "pitch": 58, "duration": 8, "velocity": 83}, {"time": 4249, "pitch": 65, "duration": 7, "velocity": 85}, {"time": 4261, "pitch": 58, "duration": 3, "velocity": 83}, {"time": 4261, "pitch": 61, "duration": 7, "velocity": 86}, {"time": 4267, "pitch": 58, "duration": 8, "velocity": 81}, {"time": 4273, "pitch": 61, "duration": 4, "velocity": 81}, {"time": 4279, "pitch": 51, "duration": 36, "velocity": 83}, {"time": 4279, "pitch": 66, "duration": 9, "velocity": 88}, {"time": 4285, "pitch": 58, "duration": 8, "velocity": 79}, {"time": 4291, "pitch": 63, "duration": 3, "velocity": 75}, {"time": 4297, "pitch": 58, "duration": 8, "velocity": 80}, {"time": 4297, "pitch": 66, "duration": 12, "velocity": 81}, {"time": 4309, "pitch": 63, "duration": 6, "velocity": 82}, {"time": 4315, "pitch": 58, "duration": 6, "velocity": 80}, {"time": 4321, "pitch": 63, "duration": 6, "velocity": 79}, {"time": 4327, "pitch": 44, "duration": 42, "velocity": 81}, {"time": 4327, "pitch": 56, "duration": 14, "velocity": 86}, {"time": 4333, "pitch": 51, "duration": 33, "velocity": 80}, {"time": 4339, "pitch": 63, "duration": 4, "velocity": 79}, {"time": 4345, "pitch": 56, "duration": 8, "velocity": 84}, {"time": 4345, "pitch": 63, "duration": 1, "velocity": 54}, {"time": 4345, "pitch": 68, "duration": 10, "velocity": 83}, {"time": 4357, "pitch": 63, "duration": 7, "velocity": 86}, {"time": 4363, "pitch": 56, "duration": 9, "velocity": 85}, {"time": 4369, "pitch": 63, "duration": 5, "velocity": 79}, {"time": 4375, "pitch": 49, "duration": 40, "velocity": 85}, {"time": 4375, "pitch": 56, "duration": 4, "velocity": 78}, {"time": 4375, "pitch": 61, "duration": 8, "velocity": 83}, {"time": 4381, "pitch": 56, "duration": 9, "velocity": 80}, {"time": 4387, "pitch": 61, "duration": 3, "velocity": 76}, {"time": 4393, "pitch": 56, "duration": 13, "velocity": 83}, {"time": 4393, "pitch": 65, "duration": 12, "velocity": 84}, {"time": 4405, "pitch": 61, "duration": 7, "velocity": 81}, {"time": 4411, "pitch": 56, "duration": 4, "velocity": 84}, {"time": 4423, "pitch": 46, "duration": 44, "velocity": 80}, {"time": 4423, "pitch": 58, "duration": 6, "velocity": 74}, {"time": 4423, "pitch": 61, "duration": 12, "velocity": 78}, {"time": 4429, "pitch": 53, "duration": 37, "velocity": 75}, {"time": 4435, "pitch": 58, "duration": 3, "velocity": 80}, {"time": 4441, "pitch": 58, "duration": 8, "velocity": 83}, {"time": 4441, "pitch": 65, "duration": 8, "velocity": 81}, {"time": 4453, "pitch": 61, "duration": 6, "velocity": 90}, {"time": 4459, "pitch": 58, "duration": 8, "velocity": 79}, {"time": 4465, "pitch": 61, "duration": 3, "velocity": 80}, {"time": 4471, "pitch": 51, "duration": 32, "velocity": 88}, {"time": 4471, "pitch": 66, "duration": 8, "velocity": 81}, {"time": 4477, "pitch": 58, "duration": 7, "velocity": 81}, {"time": 4483, "pitch": 63, "duration": 3, "velocity": 77}, {"time": 4489, "pitch": 58, "duration": 4, "velocity": 80}, {"time": 4489, "pitch": 66, "duration": 7, "velocity": 80}, {"time": 4501, "pitch": 63, "duration": 6, "velocity": 84}, {"time": 4507, "pitch": 58, "duration": 6, "velocity": 80}, {"time": 4513, "pitch": 63, "duration": 6, "velocity": 80}, {"time": 4519, "pitch": 44, "duration": 38, "velocity": 80}, {"time": 4519, "pitch": 56, "duration": 17, "velocity": 85}, {"time": 4525, "pitch": 51, "duration": 31, "velocity": 79}, {"time": 4531, "pitch": 63, "duration": 7, "velocity": 77}, {"time": 4537, "pitch": 68, "duration": 18, "velocity": 83}, {"time": 4549, "pitch": 63, "duration": 6, "velocity": 85}, {"time": 4555, "pitch": 56, "duration": 2, "velocity": 80}, {"time": 4567, "pitch": 41, "duration": 35, "velocity": 81}, {"time": 4567, "pitch": 60, "duration": 5, "velocity": 75}, {"time": 4567, "pitch": 65, "duration": 12, "velocity": 74}, {"time": 4573, "pitch": 48, "duration": 28, "velocity": 71}, {"time": 4579, "pitch": 60, "duration": 17, "velocity": 79}, {"time": 4585, "pitch": 68, "duration": 13, "velocity": 81}, {"time": 4597, "pitch": 65, "duration": 6, "velocity": 84}, {"time": 4603, "pitch": 60, "duration": 4, "velocity": 75}, {"time": 4615, "pitch": 46, "duration": 38, "velocity": 80}, {"time": 4615, "pitch": 58, "duration": 7, "velocity": 75}, {"time": 4615, "pitch": 61, "duration": 12, "velocity": 79}, {"time": 4621, "pitch": 53, "duration": 30, "velocity": 73}, {"time": 4627, "pitch": 58, "duration": 2, "velocity": 68}, {"time": 4633, "pitch": 58, "duration": 7, "velocity": 81}, {"time": 4633, "pitch": 65, "duration": 7, "velocity": 81}, {"time": 4645, "pitch": 61, "duration": 7, "velocity": 84}, {"time": 4651, "pitch": 58, "duration": 13, "velocity": 81}, {"time": 4663, "pitch": 39, "duration": 13, "velocity": 85}, {"time": 4663, "pitch": 63, "duration": 13, "velocity": 82}, {"time": 4675, "pitch": 58, "duration": 5, "velocity": 71}, {"time": 4681, "pitch": 63, "duration": 5, "velocity": 75}, {"time": 4687, "pitch": 44, "duration": 20, "velocity": 79}, {"time": 4687, "pitch": 56, "duration": 16, "velocity": 73}, {"time": 4687, "pitch": 60, "duration": 18, "velocity": 78}, {"time": 4711, "pitch": 49, "duration": 48, "velocity": 80}, {"time": 4711, "pitch": 56, "duration": 4, "velocity": 78}, {"time": 4711, "pitch": 61, "duration": 9, "velocity": 74}, {"time": 4717, "pitch": 56, "duration": 8, "velocity": 76}, {"time": 4723, "pitch": 63, "duration": 7, "velocity": 79}, {"time": 4729, "pitch": 65, "duration": 13, "velocity": 86}, {"time": 4741, "pitch": 61, "duration": 17, "velocity": 81}, {"time": 4747, "pitch": 56, "duration": 11, "velocity": 79}, {"time": 4756, "pitch": 58, "duration": 6, "velocity": 67}, {"time": 4758, "pitch": 63, "duration": 36, "velocity": 76}, {"time": 4759, "pitch": 39, "duration": 27, "velocity": 77}, {"time": 4760, "pitch": 66, "duration": 34, "velocity": 79}, {"time": 4760, "pitch": 41, "duration": 2, "velocity": 47}, {"time": 4797, "pitch": 44, "duration": 56, "velocity": 75}, {"time": 4802, "pitch": 51, "duration": 48, "velocity": 71}, {"time": 4805, "pitch": 56, "duration": 45, "velocity": 71}, {"time": 4807, "pitch": 60, "duration": 44, "velocity": 66}, {"time": 4809, "pitch": 63, "duration": 43, "velocity": 71}, {"time": 4812, "pitch": 68, "duration": 41, "velocity": 73}, {"time": 4874, "pitch": 37, "duration": 40, "velocity": 79}, {"time": 4881, "pitch": 44, "duration": 32, "velocity": 64}, {"time": 4888, "pitch": 61, "duration": 7, "velocity": 68}, {"time": 4894, "pitch": 63, "duration": 8, "velocity": 79}, {"time": 4901, "pitch": 65, "duration": 6, "velocity": 83}, {"time": 4907, "pitch": 68, "duration": 15, "velocity": 80}, {"time": 4914, "pitch": 61, "duration": 9, "velocity": 70}, {"time": 4922, "pitch": 65, "duration": 22, "velocity": 79}, {"time": 4928, "pitch": 46, "duration": 25, "velocity": 80}, {"time": 4935, "pitch": 53, "duration": 20, "velocity": 76}, {"time": 4944, "pitch": 58, "duration": 10, "velocity": 81}, {"time": 4952, "pitch": 61, "duration": 11, "velocity": 70}, {"time": 4966, "pitch": 49, "duration": 31, "velocity": 75}, {"time": 4969, "pitch": 56, "duration": 27, "velocity": 68}, {"time": 4971, "pitch": 61, "duration": 25, "velocity": 73}, {"time": 4973, "pitch": 65, "duration": 24, "velocity": 71}], "annotations": [{"time": 154, "annotation": {"number": 64, "value": 127}, "group": "control_change"}, {"time": 198, "annotation": {"number": 64, "value": 0}, "group": "control_change"}, {"time": 206, "annotation": {"number": 64, "value": 127}, "group": "control_change"}, {"time": 246, "annotation": {"number": 64, "value": 0}, "group": "control_change"}, {"time": 252, "annotation": {"number": 64, "value": 127}, "group": "control_change"}, {"time": 292, "annotation": {"number": 64, "value": 0}, "group": "control_change"}, {"time": 295, "annotation": {"number": 64, "value": 127}, "group": "control_change"}, {"time": 339, "annotation": {"number": 64, "value": 0}, "group": "control_change"}, {"time": 343, "annotation": {"number": 64, "value": 127}, "group": "control_change"}, {"time": 388, "annotation": {"number": 64, "value": 0}, "group": "control_change"}, {"time": 396, "annotation": {"number": 64, "value": 127}, "group": "control_change"}, {"time": 437, "annotation": {"number": 64, "value": 0}, "group": "control_change"}, {"time": 440, "annotation": {"number": 64, "value": 127}, "group": "control_change"}, {"time": 485, "annotation": {"number": 64, "value": 0}, "group": "control_change"}, {"time": 488, "annotation": {"number": 64, "value": 127}, "group": "control_change"}, {"time": 531, "annotation": {"number": 64, "value": 0}, "group": "control_change"}, {"time": 535, "annotation": {"number": 64, "value": 127}, "group": "control_change"}, {"time": 581, "annotation": {"number": 64, "value": 0}, "group": "control_change"}, {"time": 585, "annotation": {"number": 64, "value": 127}, "group": "control_change"}, {"time": 629, "annotation": {"number": 64, "value": 0}, "group": "control_change"}, {"time": 635, "annotation": {"number": 64, "value": 127}, "group": "control_change"}, {"time": 678, "annotation": {"number": 64, "value": 0}, "group": "control_change"}, {"time": 682, "annotation": {"number": 64, "value": 127}, "group": "control_change"}, {"time": 726, "annotation": {"number": 64, "value": 0}, "group": "control_change"}, {"time": 731, "annotation": {"number": 64, "value": 127}, "group": "control_change"}, {"time": 775, "annotation": {"number": 64, "value": 0}, "group": "control_change"}, {"time": 779, "annotation": {"number": 64, "value": 127}, "group": "control_change"}, {"time": 819, "annotation": {"number": 64, "value": 0}, "group": "control_change"}, {"time": 825, "annotation": {"number": 64, "value": 127}, "group": "control_change"}, {"time": 870, "annotation": {"number": 64, "value": 0}, "group": "control_change"}, {"time": 874, "annotation": {"number": 64, "value": 127}, "group": "control_change"}, {"time": 915, "annotation": {"number": 64, "value": 0}, "group": "control_change"}, {"time": 922, "annotation": {"number": 64, "value": 127}, "group": "control_change"}, {"time": 964, "annotation": {"number": 64, "value": 0}, "group": "control_change"}, {"time": 971, "annotation": {"number": 64, "value": 127}, "group": "control_change"}, {"time": 1012, "annotation": {"number": 64, "value": 0}, "group": "control_change"}, {"time": 1016, "annotation": {"number": 64, "value": 127}, "group": "control_change"}, {"time": 1061, "annotation": {"number": 64, "value": 0}, "group": "control_change"}, {"time": 1065, "annotation": {"number": 64, "value": 127}, "group": "control_change"}, {"time": 1110, "annotation": {"number": 64, "value": 0}, "group": "control_change"}, {"time": 1114, "annotation": {"number": 64, "value": 127}, "group": "control_change"}, {"time": 1158, "annotation": {"number": 64, "value": 0}, "group": "control_change"}, {"time": 1163, "annotation": {"number": 64, "value": 127}, "group": "control_change"}, {"time": 1205, "annotation": {"number": 64, "value": 0}, "group": "control_change"}, {"time": 1209, "annotation": {"number": 64, "value": 127}, "group": "control_change"}, {"time": 1252, "annotation": {"number": 64, "value": 0}, "group": "control_change"}, {"time": 1255, "annotation": {"number": 64, "value": 127}, "group": "control_change"}, {"time": 1298, "annotation": {"number": 64, "value": 0}, "group": "control_change"}, {"time": 1305, "annotation": {"number": 64, "value": 127}, "group": "control_change"}, {"time": 1349, "annotation": {"number": 64, "value": 0}, "group": "control_change"}, {"time": 1353, "annotation": {"number": 64, "value": 127}, "group": "control_change"}, {"time": 1396, "annotation": {"number": 64, "value": 0}, "group": "control_change"}, {"time": 1399, "annotation": {"number": 64, "value": 127}, "group": "control_change"}, {"time": 1445, "annotation": {"number": 64, "value": 0}, "group": "control_change"}, {"time": 1448, "annotation": {"number": 64, "value": 127}, "group": "control_change"}, {"time": 1493, "annotation": {"number": 64, "value": 0}, "group": "control_change"}, {"time": 1496, "annotation": {"number": 64, "value": 127}, "group": "control_change"}, {"time": 1542, "annotation": {"number": 64, "value": 0}, "group": "control_change"}, {"time": 1545, "annotation": {"number": 64, "value": 127}, "group": "control_change"}, {"time": 1588, "annotation": {"number": 64, "value": 0}, "group": "control_change"}, {"time": 1592, "annotation": {"number": 64, "value": 127}, "group": "control_change"}, {"time": 1635, "annotation": {"number": 64, "value": 0}, "group": "control_change"}, {"time": 1639, "annotation": {"number": 64, "value": 127}, "group": "control_change"}, {"time": 1682, "annotation": {"number": 64, "value": 0}, "group": "control_change"}, {"time": 1690, "annotation": {"number": 64, "value": 127}, "group": "control_change"}, {"time": 1733, "annotation": {"number": 64, "value": 0}, "group": "control_change"}, {"time": 1738, "annotation": {"number": 64, "value": 127}, "group": "control_change"}, {"time": 1781, "annotation": {"number": 64, "value": 0}, "group": "control_change"}, {"time": 1784, "annotation": {"number": 64, "value": 127}, "group": "control_change"}, {"time": 1828, "annotation": {"number": 64, "value": 0}, "group": "control_change"}, {"time": 1834, "annotation": {"number": 64, "value": 127}, "group": "control_change"}, {"time": 1877, "annotation": {"number": 64, "value": 0}, "group": "control_change"}, {"time": 1881, "annotation": {"number": 64, "value": 127}, "group": "control_change"}, {"time": 1925, "annotation": {"number": 64, "value": 0}, "group": "control_change"}, {"time": 1931, "annotation": {"number": 64, "value": 127}, "group": "control_change"}, {"time": 1971, "annotation": {"number": 64, "value": 0}, "group": "control_change"}, {"time": 1974, "annotation": {"number": 64, "value": 127}, "group": "control_change"}, {"time": 1996, "annotation": {"number": 64, "value": 0}, "group": "control_change"}, {"time": 2001, "annotation": {"number": 64, "value": 127}, "group": "control_change"}, {"time": 2019, "annotation": {"number": 64, "value": 0}, "group": "control_change"}, {"time": 2024, "annotation": {"number": 64, "value": 127}, "group": "control_change"}, {"time": 2061, "annotation": {"number": 64, "value": 0}, "group": "control_change"}, {"time": 2073, "annotation": {"number": 64, "value": 127}, "group": "control_change"}, {"time": 2118, "annotation": {"number": 64, "value": 0}, "group": "control_change"}, {"time": 2123, "annotation": {"number": 64, "value": 127}, "group": "control_change"}, {"time": 2164, "annotation": {"number": 64, "value": 0}, "group": "control_change"}, {"time": 2169, "annotation": {"number": 64, "value": 127}, "group": "control_change"}, {"time": 2169, "annotation": {"number": 64, "value": 0}, "group": "control_change"}, {"time": 2214, "annotation": {"number": 64, "value": 0}, "group": "control_change"}, {"time": 2218, "annotation": {"number": 64, "value": 127}, "group": "control_change"}, {"time": 2262, "annotation": {"number": 64, "value": 0}, "group": "control_change"}, {"time": 2265, "annotation": {"number": 64, "value": 127}, "group": "control_change"}, {"time": 2310, "annotation": {"number": 64, "value": 0}, "group": "control_change"}, {"time": 2315, "annotation": {"number": 64, "value": 127}, "group": "control_change"}, {"time": 2357, "annotation": {"number": 64, "value": 0}, "group": "control_change"}, {"time": 2361, "annotation": {"number": 64, "value": 127}, "group": "control_change"}, {"time": 2404, "annotation": {"number": 64, "value": 0}, "group": "control_change"}, {"time": 2408, "annotation": {"number": 64, "value": 127}, "group": "control_change"}, {"time": 2452, "annotation": {"number": 64, "value": 0}, "group": "control_change"}, {"time": 2457, "annotation": {"number": 64, "value": 127}, "group": "control_change"}, {"time": 2501, "annotation": {"number": 64, "value": 0}, "group": "control_change"}, {"time": 2505, "annotation": {"number": 64, "value": 127}, "group": "control_change"}, {"time": 2547, "annotation": {"number": 64, "value": 0}, "group": "control_change"}, {"time": 2550, "annotation": {"number": 64, "value": 127}, "group": "control_change"}, {"time": 2596, "annotation": {"number": 64, "value": 0}, "group": "control_change"}, {"time": 2600, "annotation": {"number": 64, "value": 127}, "group": "control_change"}, {"time": 2644, "annotation": {"number": 64, "value": 0}, "group": "control_change"}, {"time": 2647, "annotation": {"number": 64, "value": 127}, "group": "control_change"}, {"time": 2694, "annotation": {"number": 64, "value": 0}, "group": "control_change"}, {"time": 2697, "annotation": {"number": 64, "value": 127}, "group": "control_change"}, {"time": 2741, "annotation": {"number": 64, "value": 0}, "group": "control_change"}, {"time": 2743, "annotation": {"number": 64, "value": 127}, "group": "control_change"}, {"time": 2765, "annotation": {"number": 64, "value": 0}, "group": "control_change"}, {"time": 2770, "annotation": {"number": 64, "value": 127}, "group": "control_change"}, {"time": 2788, "annotation": {"number": 64, "value": 0}, "group": "control_change"}, {"time": 2794, "annotation": {"number": 64, "value": 127}, "group": "control_change"}, {"time": 2834, "annotation": {"number": 64, "value": 0}, "group": "control_change"}, {"time": 2842, "annotation": {"number": 64, "value": 127}, "group": "control_change"}, {"time": 2884, "annotation": {"number": 64, "value": 0}, "group": "control_change"}, {"time": 2891, "annotation": {"number": 64, "value": 127}, "group": "control_change"}, {"time": 2932, "annotation": {"number": 64, "value": 0}, "group": "control_change"}, {"time": 2936, "annotation": {"number": 64, "value": 127}, "group": "control_change"}, {"time": 2981, "annotation": {"number": 64, "value": 0}, "group": "control_change"}, {"time": 2985, "annotation": {"number": 64, "value": 127}, "group": "control_change"}, {"time": 3030, "annotation": {"number": 64, "value": 0}, "group": "control_change"}, {"time": 3034, "annotation": {"number": 64, "value": 127}, "group": "control_change"}, {"time": 3078, "annotation": {"number": 64, "value": 0}, "group": "control_change"}, {"time": 3083, "annotation": {"number": 64, "value": 127}, "group": "control_change"}, {"time": 3125, "annotation": {"number": 64, "value": 0}, "group": "control_change"}, {"time": 3129, "annotation": {"number": 64, "value": 127}, "group": "control_change"}, {"time": 3172, "annotation": {"number": 64, "value": 0}, "group": "control_change"}, {"time": 3175, "annotation": {"number": 64, "value": 127}, "group": "control_change"}, {"time": 3218, "annotation": {"number": 64, "value": 0}, "group": "control_change"}, {"time": 3225, "annotation": {"number": 64, "value": 127}, "group": "control_change"}, {"time": 3269, "annotation": {"number": 64, "value": 0}, "group": "control_change"}, {"time": 3273, "annotation": {"number": 64, "value": 127}, "group": "control_change"}, {"time": 3316, "annotation": {"number": 64, "value": 0}, "group": "control_change"}, {"time": 3319, "annotation": {"number": 64, "value": 127}, "group": "control_change"}, {"time": 3365, "annotation": {"number": 64, "value": 0}, "group": "control_change"}, {"time": 3368, "annotation": {"number": 64, "value": 127}, "group": "control_change"}, {"time": 3413, "annotation": {"number": 64, "value": 0}, "group": "control_change"}, {"time": 3416, "annotation": {"number": 64, "value": 127}, "group": "control_change"}, {"time": 3462, "annotation": {"number": 64, "value": 0}, "group": "control_change"}, {"time": 3465, "annotation": {"number": 64, "value": 127}, "group": "control_change"}, {"time": 3508, "annotation": {"number": 64, "value": 0}, "group": "control_change"}, {"time": 3512, "annotation": {"number": 64, "value": 127}, "group": "control_change"}, {"time": 3555, "annotation": {"number": 64, "value": 0}, "group": "control_change"}, {"time": 3559, "annotation": {"number": 64, "value": 127}, "group": "control_change"}, {"time": 3602, "annotation": {"number": 64, "value": 0}, "group": "control_change"}, {"time": 3610, "annotation": {"number": 64, "value": 127}, "group": "control_change"}, {"time": 3653, "annotation": {"number": 64, "value": 0}, "group": "control_change"}, {"time": 3658, "annotation": {"number": 64, "value": 127}, "group": "control_change"}, {"time": 3701, "annotation": {"number": 64, "value": 0}, "group": "control_change"}, {"time": 3704, "annotation": {"number": 64, "value": 127}, "group": "control_change"}, {"time": 3748, "annotation": {"number": 64, "value": 0}, "group": "control_change"}, {"time": 3754, "annotation": {"number": 64, "value": 127}, "group": "control_change"}, {"time": 3797, "annotation": {"number": 64, "value": 0}, "group": "control_change"}, {"time": 3801, "annotation": {"number": 64, "value": 127}, "group": "control_change"}, {"time": 3845, "annotation": {"number": 64, "value": 0}, "group": "control_change"}, {"time": 3851, "annotation": {"number": 64, "value": 127}, "group": "control_change"}, {"time": 3891, "annotation": {"number": 64, "value": 0}, "group": "control_change"}, {"time": 3894, "annotation": {"number": 64, "value": 127}, "group": "control_change"}, {"time": 3916, "annotation": {"number": 64, "value": 0}, "group": "control_change"}, {"time": 3921, "annotation": {"number": 64, "value": 127}, "group": "control_change"}, {"time": 3939, "annotation": {"number": 64, "value": 0}, "group": "control_change"}, {"time": 3944, "annotation": {"number": 64, "value": 127}, "group": "control_change"}, {"time": 3981, "annotation": {"number": 64, "value": 0}, "group": "control_change"}, {"time": 3993, "annotation": {"number": 64, "value": 127}, "group": "control_change"}, {"time": 4037, "annotation": {"number": 64, "value": 0}, "group": "control_change"}, {"time": 4041, "annotation": {"number": 64, "value": 127}, "group": "control_change"}, {"time": 4084, "annotation": {"number": 64, "value": 0}, "group": "control_change"}, {"time": 4087, "annotation": {"number": 64, "value": 127}, "group": "control_change"}, {"time": 4133, "annotation": {"number": 64, "value": 0}, "group": "control_change"}, {"time": 4136, "annotation": {"number": 64, "value": 127}, "group": "control_change"}, {"time": 4181, "annotation": {"number": 64, "value": 0}, "group": "control_change"}, {"time": 4184, "annotation": {"number": 64, "value": 127}, "group": "control_change"}, {"time": 4230, "annotation": {"number": 64, "value": 0}, "group": "control_change"}, {"time": 4233, "annotation": {"number": 64, "value": 127}, "group": "control_change"}, {"time": 4276, "annotation": {"number": 64, "value": 0}, "group": "control_change"}, {"time": 4280, "annotation": {"number": 64, "value": 127}, "group": "control_change"}, {"time": 4323, "annotation": {"number": 64, "value": 0}, "group": "control_change"}, {"time": 4327, "annotation": {"number": 64, "value": 127}, "group": "control_change"}, {"time": 4370, "annotation": {"number": 64, "value": 0}, "group": "control_change"}, {"time": 4378, "annotation": {"number": 64, "value": 127}, "group": "control_change"}, {"time": 4421, "annotation": {"number": 64, "value": 0}, "group": "control_change"}, {"time": 4426, "annotation": {"number": 64, "value": 127}, "group": "control_change"}, {"time": 4469, "annotation": {"number": 64, "value": 0}, "group": "control_change"}, {"time": 4472, "annotation": {"number": 64, "value": 127}, "group": "control_change"}, {"time": 4516, "annotation": {"number": 64, "value": 0}, "group": "control_change"}, {"time": 4522, "annotation": {"number": 64, "value": 127}, "group": "control_change"}, {"time": 4565, "annotation": {"number": 64, "value": 0}, "group": "control_change"}, {"time": 4569, "annotation": {"number": 64, "value": 127}, "group": "control_change"}, {"time": 4613, "annotation": {"number": 64, "value": 0}, "group": "control_change"}, {"time": 4619, "annotation": {"number": 64, "value": 127}, "group": "control_change"}, {"time": 4659, "annotation": {"number": 64, "value": 0}, "group": "control_change"}, {"time": 4662, "annotation": {"number": 64, "value": 127}, "group": "control_change"}, {"time": 4684, "annotation": {"number": 64, "value": 0}, "group": "control_change"}, {"time": 4689, "annotation": {"number": 64, "value": 127}, "group": "control_change"}, {"time": 4707, "annotation": {"number": 64, "value": 0}, "group": "control_change"}, {"time": 4712, "annotation": {"number": 64, "value": 127}, "group": "control_change"}, {"time": 4749, "annotation": {"number": 64, "value": 0}, "group": "control_change"}, {"time": 4760, "annotation": {"number": 64, "value": 127}, "group": "control_change"}, {"time": 4761, "annotation": {"number": 64, "value": 0}, "group": "control_change"}, {"time": 4761, "annotation": {"number": 64, "value": 127}, "group": "control_change"}, {"time": 4807, "annotation": {"number": 64, "value": 0}, "group": "control_change"}, {"time": 4809, "annotation": {"number": 64, "value": 127}, "group": "control_change"}, {"time": 4874, "annotation": {"number": 64, "value": 0}, "group": "control_change"}, {"time": 4878, "annotation": {"number": 64, "value": 127}, "group": "control_change"}, {"time": 4930, "annotation": {"number": 64, "value": 0}, "group": "control_change"}, {"time": 4934, "annotation": {"number": 64, "value": 127}, "group": "control_change"}, {"time": 4969, "annotation": {"number": 64, "value": 0}, "group": "control_change"}]}]}