{"metadata": {"schema_version": "0.2", "title": "None", "source_filename": "661.mid", "source_format": "midi"}, "resolution": 12, "tempos": [{"time": 0, "qpm": 68.0000725334107}], "time_signatures": [{"time": 0, "numerator": 1, "denominator": 4}], "tracks": [{"program": 4, "is_drum": false, "name": "MELODY", "notes": [{"time": 584, "pitch": 69, "duration": 5, "velocity": 89}, {"time": 590, "pitch": 76, "duration": 11, "velocity": 96}, {"time": 602, "pitch": 74, "duration": 3, "velocity": 92}, {"time": 605, "pitch": 72, "duration": 2, "velocity": 78}, {"time": 608, "pitch": 74, "duration": 6, "velocity": 92}, {"time": 614, "pitch": 79, "duration": 5, "velocity": 89}, {"time": 620, "pitch": 72, "duration": 6, "velocity": 88}, {"time": 626, "pitch": 69, "duration": 3, "velocity": 87}, {"time": 629, "pitch": 69, "duration": 3, "velocity": 87}, {"time": 632, "pitch": 67, "duration": 5, "velocity": 85}, {"time": 638, "pitch": 69, "duration": 37, "velocity": 87}, {"time": 680, "pitch": 69, "duration": 5, "velocity": 91}, {"time": 686, "pitch": 74, "duration": 2, "velocity": 96}, {"time": 689, "pitch": 74, "duration": 8, "velocity": 102}, {"time": 698, "pitch": 72, "duration": 6, "velocity": 86}, {"time": 704, "pitch": 69, "duration": 5, "velocity": 89}, {"time": 710, "pitch": 79, "duration": 6, "velocity": 90}, {"time": 716, "pitch": 79, "duration": 6, "velocity": 92}, {"time": 722, "pitch": 76, "duration": 3, "velocity": 92}, {"time": 725, "pitch": 74, "duration": 3, "velocity": 87}, {"time": 728, "pitch": 76, "duration": 39, "velocity": 91}, {"time": 776, "pitch": 76, "duration": 8, "velocity": 92}, {"time": 785, "pitch": 81, "duration": 3, "velocity": 92}, {"time": 788, "pitch": 79, "duration": 6, "velocity": 89}, {"time": 794, "pitch": 76, "duration": 5, "velocity": 92}, {"time": 800, "pitch": 74, "duration": 5, "velocity": 79}, {"time": 806, "pitch": 74, "duration": 11, "velocity": 94}, {"time": 818, "pitch": 69, "duration": 3, "velocity": 89}, {"time": 821, "pitch": 72, "duration": 2, "velocity": 87}, {"time": 824, "pitch": 74, "duration": 37, "velocity": 96}, {"time": 866, "pitch": 79, "duration": 2, "velocity": 88}, {"time": 869, "pitch": 76, "duration": 2, "velocity": 87}, {"time": 872, "pitch": 74, "duration": 5, "velocity": 99}, {"time": 878, "pitch": 72, "duration": 10, "velocity": 79}, {"time": 890, "pitch": 67, "duration": 2, "velocity": 86}, {"time": 893, "pitch": 67, "duration": 2, "velocity": 83}, {"time": 896, "pitch": 67, "duration": 5, "velocity": 89}, {"time": 902, "pitch": 74, "duration": 5, "velocity": 89}, {"time": 908, "pitch": 72, "duration": 6, "velocity": 86}, {"time": 914, "pitch": 74, "duration": 6, "velocity": 88}, {"time": 920, "pitch": 72, "duration": 6, "velocity": 86}, {"time": 926, "pitch": 69, "duration": 27, "velocity": 86}, {"time": 968, "pitch": 69, "duration": 5, "velocity": 89}, {"time": 974, "pitch": 76, "duration": 11, "velocity": 96}, {"time": 986, "pitch": 74, "duration": 3, "velocity": 92}, {"time": 989, "pitch": 72, "duration": 2, "velocity": 78}, {"time": 992, "pitch": 74, "duration": 6, "velocity": 92}, {"time": 998, "pitch": 79, "duration": 5, "velocity": 89}, {"time": 1004, "pitch": 72, "duration": 6, "velocity": 88}, {"time": 1010, "pitch": 69, "duration": 3, "velocity": 87}, {"time": 1013, "pitch": 69, "duration": 3, "velocity": 87}, {"time": 1016, "pitch": 67, "duration": 5, "velocity": 85}, {"time": 1022, "pitch": 69, "duration": 37, "velocity": 87}, {"time": 1064, "pitch": 69, "duration": 5, "velocity": 91}, {"time": 1070, "pitch": 74, "duration": 2, "velocity": 96}, {"time": 1073, "pitch": 74, "duration": 8, "velocity": 102}, {"time": 1082, "pitch": 72, "duration": 6, "velocity": 86}, {"time": 1088, "pitch": 69, "duration": 5, "velocity": 89}, {"time": 1094, "pitch": 79, "duration": 6, "velocity": 90}, {"time": 1100, "pitch": 79, "duration": 6, "velocity": 92}, {"time": 1106, "pitch": 76, "duration": 3, "velocity": 92}, {"time": 1109, "pitch": 74, "duration": 3, "velocity": 87}, {"time": 1112, "pitch": 76, "duration": 39, "velocity": 91}, {"time": 1160, "pitch": 76, "duration": 8, "velocity": 92}, {"time": 1169, "pitch": 81, "duration": 3, "velocity": 92}, {"time": 1172, "pitch": 79, "duration": 6, "velocity": 89}, {"time": 1178, "pitch": 76, "duration": 5, "velocity": 92}, {"time": 1184, "pitch": 74, "duration": 5, "velocity": 79}, {"time": 1190, "pitch": 74, "duration": 11, "velocity": 94}, {"time": 1202, "pitch": 69, "duration": 3, "velocity": 89}, {"time": 1205, "pitch": 72, "duration": 2, "velocity": 87}, {"time": 1208, "pitch": 74, "duration": 37, "velocity": 96}, {"time": 1250, "pitch": 74, "duration": 2, "velocity": 99}, {"time": 1253, "pitch": 76, "duration": 2, "velocity": 92}, {"time": 1256, "pitch": 79, "duration": 5, "velocity": 90}, {"time": 1262, "pitch": 76, "duration": 10, "velocity": 92}, {"time": 1274, "pitch": 74, "duration": 2, "velocity": 96}, {"time": 1277, "pitch": 76, "duration": 2, "velocity": 96}, {"time": 1280, "pitch": 79, "duration": 4, "velocity": 91}, {"time": 1286, "pitch": 79, "duration": 4, "velocity": 87}, {"time": 1292, "pitch": 79, "duration": 6, "velocity": 89}, {"time": 1298, "pitch": 79, "duration": 3, "velocity": 86}, {"time": 1301, "pitch": 79, "duration": 3, "velocity": 89}, {"time": 1304, "pitch": 76, "duration": 6, "velocity": 96}, {"time": 1310, "pitch": 81, "duration": 30, "velocity": 83}, {"time": 1346, "pitch": 76, "duration": 5, "velocity": 101}, {"time": 1352, "pitch": 81, "duration": 5, "velocity": 99}, {"time": 1358, "pitch": 81, "duration": 3, "velocity": 92}, {"time": 1364, "pitch": 79, "duration": 4, "velocity": 90}, {"time": 1370, "pitch": 79, "duration": 4, "velocity": 88}, {"time": 1376, "pitch": 81, "duration": 6, "velocity": 86}, {"time": 1385, "pitch": 84, "duration": 3, "velocity": 80}, {"time": 1388, "pitch": 81, "duration": 5, "velocity": 91}, {"time": 1394, "pitch": 79, "duration": 6, "velocity": 89}, {"time": 1400, "pitch": 76, "duration": 5, "velocity": 96}, {"time": 1406, "pitch": 79, "duration": 11, "velocity": 89}, {"time": 1418, "pitch": 74, "duration": 5, "velocity": 96}, {"time": 1424, "pitch": 72, "duration": 6, "velocity": 87}, {"time": 1430, "pitch": 69, "duration": 11, "velocity": 87}, {"time": 1442, "pitch": 69, "duration": 3, "velocity": 92}, {"time": 1445, "pitch": 72, "duration": 2, "velocity": 87}, {"time": 1448, "pitch": 74, "duration": 17, "velocity": 101}, {"time": 1466, "pitch": 74, "duration": 2, "velocity": 111}, {"time": 1469, "pitch": 76, "duration": 2, "velocity": 92}, {"time": 1472, "pitch": 79, "duration": 5, "velocity": 90}, {"time": 1478, "pitch": 81, "duration": 5, "velocity": 90}, {"time": 1484, "pitch": 79, "duration": 2, "velocity": 89}, {"time": 1487, "pitch": 76, "duration": 2, "velocity": 94}, {"time": 1490, "pitch": 74, "duration": 5, "velocity": 99}, {"time": 1496, "pitch": 76, "duration": 38, "velocity": 89}, {"time": 1538, "pitch": 76, "duration": 5, "velocity": 101}, {"time": 1544, "pitch": 81, "duration": 5, "velocity": 99}, {"time": 1550, "pitch": 81, "duration": 3, "velocity": 92}, {"time": 1556, "pitch": 79, "duration": 4, "velocity": 90}, {"time": 1562, "pitch": 79, "duration": 4, "velocity": 88}, {"time": 1568, "pitch": 81, "duration": 6, "velocity": 86}, {"time": 1577, "pitch": 84, "duration": 3, "velocity": 80}, {"time": 1580, "pitch": 81, "duration": 5, "velocity": 91}, {"time": 1586, "pitch": 79, "duration": 6, "velocity": 89}, {"time": 1592, "pitch": 76, "duration": 5, "velocity": 96}, {"time": 1598, "pitch": 79, "duration": 11, "velocity": 89}, {"time": 1610, "pitch": 74, "duration": 5, "velocity": 96}, {"time": 1616, "pitch": 72, "duration": 6, "velocity": 87}, {"time": 1622, "pitch": 69, "duration": 11, "velocity": 87}, {"time": 1634, "pitch": 69, "duration": 3, "velocity": 92}, {"time": 1637, "pitch": 72, "duration": 2, "velocity": 87}, {"time": 1640, "pitch": 74, "duration": 17, "velocity": 101}, {"time": 1658, "pitch": 76, "duration": 5, "velocity": 99}, {"time": 1664, "pitch": 79, "duration": 5, "velocity": 89}, {"time": 1670, "pitch": 79, "duration": 5, "velocity": 90}, {"time": 1676, "pitch": 79, "duration": 6, "velocity": 87}, {"time": 1682, "pitch": 79, "duration": 6, "velocity": 87}, {"time": 1688, "pitch": 76, "duration": 36, "velocity": 96}, {"time": 1730, "pitch": 76, "duration": 5, "velocity": 101}, {"time": 1736, "pitch": 81, "duration": 5, "velocity": 99}, {"time": 1742, "pitch": 81, "duration": 3, "velocity": 92}, {"time": 1748, "pitch": 79, "duration": 4, "velocity": 90}, {"time": 1754, "pitch": 79, "duration": 4, "velocity": 88}, {"time": 1760, "pitch": 81, "duration": 6, "velocity": 86}, {"time": 1769, "pitch": 84, "duration": 3, "velocity": 80}, {"time": 1772, "pitch": 81, "duration": 5, "velocity": 91}, {"time": 1778, "pitch": 79, "duration": 6, "velocity": 89}, {"time": 1784, "pitch": 76, "duration": 5, "velocity": 96}, {"time": 1790, "pitch": 79, "duration": 11, "velocity": 89}, {"time": 1802, "pitch": 74, "duration": 5, "velocity": 96}, {"time": 1808, "pitch": 72, "duration": 6, "velocity": 87}, {"time": 1814, "pitch": 69, "duration": 11, "velocity": 87}, {"time": 1826, "pitch": 69, "duration": 3, "velocity": 92}, {"time": 1829, "pitch": 72, "duration": 2, "velocity": 87}, {"time": 1832, "pitch": 74, "duration": 17, "velocity": 101}, {"time": 1850, "pitch": 74, "duration": 2, "velocity": 111}, {"time": 1853, "pitch": 76, "duration": 2, "velocity": 92}, {"time": 1856, "pitch": 79, "duration": 5, "velocity": 90}, {"time": 1862, "pitch": 81, "duration": 5, "velocity": 90}, {"time": 1868, "pitch": 79, "duration": 2, "velocity": 89}, {"time": 1871, "pitch": 76, "duration": 2, "velocity": 94}, {"time": 1874, "pitch": 74, "duration": 5, "velocity": 99}, {"time": 1880, "pitch": 76, "duration": 38, "velocity": 89}, {"time": 1922, "pitch": 76, "duration": 3, "velocity": 101}, {"time": 1925, "pitch": 79, "duration": 3, "velocity": 101}, {"time": 1928, "pitch": 81, "duration": 5, "velocity": 99}, {"time": 1934, "pitch": 81, "duration": 3, "velocity": 92}, {"time": 1940, "pitch": 79, "duration": 4, "velocity": 90}, {"time": 1946, "pitch": 79, "duration": 4, "velocity": 88}, {"time": 1952, "pitch": 81, "duration": 6, "velocity": 86}, {"time": 1961, "pitch": 84, "duration": 3, "velocity": 80}, {"time": 1964, "pitch": 81, "duration": 5, "velocity": 91}, {"time": 1970, "pitch": 79, "duration": 6, "velocity": 89}, {"time": 1976, "pitch": 76, "duration": 5, "velocity": 96}, {"time": 1982, "pitch": 79, "duration": 11, "velocity": 89}, {"time": 1994, "pitch": 74, "duration": 5, "velocity": 96}, {"time": 2000, "pitch": 72, "duration": 6, "velocity": 87}, {"time": 2006, "pitch": 69, "duration": 11, "velocity": 87}, {"time": 2018, "pitch": 69, "duration": 3, "velocity": 92}, {"time": 2021, "pitch": 72, "duration": 2, "velocity": 87}, {"time": 2024, "pitch": 74, "duration": 6, "velocity": 101}, {"time": 2030, "pitch": 74, "duration": 11, "velocity": 101}, {"time": 2042, "pitch": 74, "duration": 3, "velocity": 99}, {"time": 2045, "pitch": 76, "duration": 3, "velocity": 89}, {"time": 2048, "pitch": 79, "duration": 5, "velocity": 90}, {"time": 2054, "pitch": 79, "duration": 12, "velocity": 87}, {"time": 2066, "pitch": 67, "duration": 6, "velocity": 87}, {"time": 2072, "pitch": 69, "duration": 36, "velocity": 96}, {"time": 2504, "pitch": 69, "duration": 5, "velocity": 89}, {"time": 2510, "pitch": 76, "duration": 11, "velocity": 96}, {"time": 2522, "pitch": 74, "duration": 3, "velocity": 92}, {"time": 2525, "pitch": 72, "duration": 2, "velocity": 78}, {"time": 2528, "pitch": 74, "duration": 6, "velocity": 92}, {"time": 2534, "pitch": 79, "duration": 5, "velocity": 89}, {"time": 2540, "pitch": 72, "duration": 6, "velocity": 88}, {"time": 2546, "pitch": 69, "duration": 3, "velocity": 87}, {"time": 2549, "pitch": 69, "duration": 3, "velocity": 87}, {"time": 2552, "pitch": 67, "duration": 5, "velocity": 85}, {"time": 2558, "pitch": 69, "duration": 37, "velocity": 87}, {"time": 2600, "pitch": 69, "duration": 5, "velocity": 91}, {"time": 2606, "pitch": 74, "duration": 2, "velocity": 96}, {"time": 2609, "pitch": 74, "duration": 8, "velocity": 102}, {"time": 2618, "pitch": 72, "duration": 6, "velocity": 86}, {"time": 2624, "pitch": 69, "duration": 5, "velocity": 89}, {"time": 2630, "pitch": 79, "duration": 6, "velocity": 90}, {"time": 2636, "pitch": 79, "duration": 6, "velocity": 92}, {"time": 2642, "pitch": 76, "duration": 3, "velocity": 92}, {"time": 2645, "pitch": 74, "duration": 3, "velocity": 87}, {"time": 2648, "pitch": 76, "duration": 39, "velocity": 91}, {"time": 2696, "pitch": 76, "duration": 8, "velocity": 92}, {"time": 2705, "pitch": 81, "duration": 3, "velocity": 92}, {"time": 2708, "pitch": 79, "duration": 6, "velocity": 89}, {"time": 2714, "pitch": 76, "duration": 5, "velocity": 92}, {"time": 2720, "pitch": 74, "duration": 5, "velocity": 79}, {"time": 2726, "pitch": 74, "duration": 11, "velocity": 94}, {"time": 2738, "pitch": 69, "duration": 3, "velocity": 89}, {"time": 2741, "pitch": 72, "duration": 2, "velocity": 87}, {"time": 2744, "pitch": 74, "duration": 37, "velocity": 96}, {"time": 2786, "pitch": 74, "duration": 2, "velocity": 99}, {"time": 2789, "pitch": 76, "duration": 2, "velocity": 92}, {"time": 2792, "pitch": 79, "duration": 5, "velocity": 90}, {"time": 2798, "pitch": 76, "duration": 10, "velocity": 92}, {"time": 2810, "pitch": 74, "duration": 2, "velocity": 96}, {"time": 2813, "pitch": 76, "duration": 2, "velocity": 96}, {"time": 2816, "pitch": 79, "duration": 4, "velocity": 91}, {"time": 2822, "pitch": 79, "duration": 4, "velocity": 87}, {"time": 2828, "pitch": 79, "duration": 6, "velocity": 89}, {"time": 2834, "pitch": 79, "duration": 3, "velocity": 86}, {"time": 2837, "pitch": 79, "duration": 3, "velocity": 89}, {"time": 2840, "pitch": 76, "duration": 6, "velocity": 96}, {"time": 2846, "pitch": 81, "duration": 30, "velocity": 83}, {"time": 2882, "pitch": 76, "duration": 5, "velocity": 101}, {"time": 2888, "pitch": 81, "duration": 5, "velocity": 99}, {"time": 2894, "pitch": 81, "duration": 3, "velocity": 92}, {"time": 2900, "pitch": 79, "duration": 4, "velocity": 90}, {"time": 2906, "pitch": 79, "duration": 4, "velocity": 88}, {"time": 2912, "pitch": 81, "duration": 6, "velocity": 86}, {"time": 2921, "pitch": 84, "duration": 3, "velocity": 80}, {"time": 2924, "pitch": 81, "duration": 5, "velocity": 91}, {"time": 2930, "pitch": 79, "duration": 6, "velocity": 89}, {"time": 2936, "pitch": 76, "duration": 5, "velocity": 96}, {"time": 2942, "pitch": 79, "duration": 11, "velocity": 89}, {"time": 2954, "pitch": 74, "duration": 5, "velocity": 96}, {"time": 2960, "pitch": 72, "duration": 6, "velocity": 87}, {"time": 2966, "pitch": 69, "duration": 11, "velocity": 87}, {"time": 2978, "pitch": 69, "duration": 3, "velocity": 92}, {"time": 2981, "pitch": 72, "duration": 2, "velocity": 87}, {"time": 2984, "pitch": 74, "duration": 17, "velocity": 101}, {"time": 3002, "pitch": 74, "duration": 2, "velocity": 111}, {"time": 3005, "pitch": 76, "duration": 2, "velocity": 92}, {"time": 3008, "pitch": 79, "duration": 5, "velocity": 90}, {"time": 3014, "pitch": 81, "duration": 5, "velocity": 90}, {"time": 3020, "pitch": 79, "duration": 2, "velocity": 89}, {"time": 3023, "pitch": 76, "duration": 2, "velocity": 94}, {"time": 3026, "pitch": 74, "duration": 5, "velocity": 99}, {"time": 3032, "pitch": 76, "duration": 38, "velocity": 89}, {"time": 3074, "pitch": 76, "duration": 5, "velocity": 101}, {"time": 3080, "pitch": 81, "duration": 5, "velocity": 99}, {"time": 3086, "pitch": 81, "duration": 3, "velocity": 92}, {"time": 3092, "pitch": 79, "duration": 4, "velocity": 90}, {"time": 3098, "pitch": 79, "duration": 4, "velocity": 88}, {"time": 3104, "pitch": 81, "duration": 6, "velocity": 86}, {"time": 3113, "pitch": 84, "duration": 3, "velocity": 80}, {"time": 3116, "pitch": 81, "duration": 5, "velocity": 91}, {"time": 3122, "pitch": 79, "duration": 6, "velocity": 89}, {"time": 3128, "pitch": 76, "duration": 5, "velocity": 96}, {"time": 3134, "pitch": 79, "duration": 11, "velocity": 89}, {"time": 3146, "pitch": 74, "duration": 5, "velocity": 96}, {"time": 3152, "pitch": 72, "duration": 6, "velocity": 87}, {"time": 3158, "pitch": 69, "duration": 11, "velocity": 87}, {"time": 3170, "pitch": 69, "duration": 3, "velocity": 92}, {"time": 3173, "pitch": 72, "duration": 2, "velocity": 87}, {"time": 3176, "pitch": 74, "duration": 17, "velocity": 101}, {"time": 3194, "pitch": 76, "duration": 5, "velocity": 99}, {"time": 3200, "pitch": 79, "duration": 5, "velocity": 89}, {"time": 3206, "pitch": 79, "duration": 5, "velocity": 90}, {"time": 3212, "pitch": 79, "duration": 6, "velocity": 87}, {"time": 3218, "pitch": 79, "duration": 6, "velocity": 87}, {"time": 3224, "pitch": 76, "duration": 36, "velocity": 96}, {"time": 3278, "pitch": 74, "duration": 2, "velocity": 92}, {"time": 3281, "pitch": 74, "duration": 2, "velocity": 91}, {"time": 3284, "pitch": 74, "duration": 5, "velocity": 102}, {"time": 3290, "pitch": 72, "duration": 5, "velocity": 96}, {"time": 3296, "pitch": 69, "duration": 5, "velocity": 91}, {"time": 3302, "pitch": 72, "duration": 5, "velocity": 99}, {"time": 3308, "pitch": 79, "duration": 4, "velocity": 92}, {"time": 3314, "pitch": 76, "duration": 3, "velocity": 91}, {"time": 3317, "pitch": 74, "duration": 4, "velocity": 96}, {"time": 3320, "pitch": 76, "duration": 39, "velocity": 94}, {"time": 3374, "pitch": 74, "duration": 2, "velocity": 92}, {"time": 3377, "pitch": 74, "duration": 2, "velocity": 96}, {"time": 3380, "pitch": 74, "duration": 5, "velocity": 99}, {"time": 3386, "pitch": 74, "duration": 3, "velocity": 106}, {"time": 3389, "pitch": 76, "duration": 2, "velocity": 92}, {"time": 3392, "pitch": 79, "duration": 6, "velocity": 90}, {"time": 3398, "pitch": 79, "duration": 3, "velocity": 90}, {"time": 3404, "pitch": 79, "duration": 5, "velocity": 90}, {"time": 3410, "pitch": 79, "duration": 3, "velocity": 90}, {"time": 3413, "pitch": 76, "duration": 3, "velocity": 92}, {"time": 3416, "pitch": 81, "duration": 41, "velocity": 101}, {"time": 3458, "pitch": 76, "duration": 5, "velocity": 101}, {"time": 3464, "pitch": 81, "duration": 5, "velocity": 99}, {"time": 3470, "pitch": 81, "duration": 3, "velocity": 92}, {"time": 3476, "pitch": 79, "duration": 4, "velocity": 90}, {"time": 3482, "pitch": 79, "duration": 4, "velocity": 88}, {"time": 3488, "pitch": 81, "duration": 6, "velocity": 86}, {"time": 3497, "pitch": 84, "duration": 3, "velocity": 80}, {"time": 3500, "pitch": 81, "duration": 5, "velocity": 91}, {"time": 3506, "pitch": 79, "duration": 6, "velocity": 89}, {"time": 3512, "pitch": 76, "duration": 5, "velocity": 96}, {"time": 3518, "pitch": 79, "duration": 11, "velocity": 89}, {"time": 3530, "pitch": 74, "duration": 5, "velocity": 96}, {"time": 3536, "pitch": 72, "duration": 6, "velocity": 87}, {"time": 3542, "pitch": 69, "duration": 11, "velocity": 87}, {"time": 3554, "pitch": 69, "duration": 3, "velocity": 92}, {"time": 3557, "pitch": 72, "duration": 2, "velocity": 87}, {"time": 3560, "pitch": 74, "duration": 17, "velocity": 101}, {"time": 3578, "pitch": 74, "duration": 2, "velocity": 111}, {"time": 3581, "pitch": 76, "duration": 2, "velocity": 92}, {"time": 3584, "pitch": 79, "duration": 5, "velocity": 90}, {"time": 3590, "pitch": 81, "duration": 5, "velocity": 90}, {"time": 3596, "pitch": 79, "duration": 2, "velocity": 89}, {"time": 3599, "pitch": 76, "duration": 2, "velocity": 94}, {"time": 3602, "pitch": 74, "duration": 5, "velocity": 99}, {"time": 3608, "pitch": 76, "duration": 38, "velocity": 89}, {"time": 3650, "pitch": 76, "duration": 3, "velocity": 101}, {"time": 3653, "pitch": 79, "duration": 3, "velocity": 101}, {"time": 3656, "pitch": 81, "duration": 5, "velocity": 99}, {"time": 3662, "pitch": 81, "duration": 3, "velocity": 92}, {"time": 3668, "pitch": 79, "duration": 4, "velocity": 90}, {"time": 3674, "pitch": 79, "duration": 4, "velocity": 88}, {"time": 3680, "pitch": 81, "duration": 6, "velocity": 86}, {"time": 3689, "pitch": 84, "duration": 3, "velocity": 80}, {"time": 3692, "pitch": 81, "duration": 5, "velocity": 91}, {"time": 3698, "pitch": 79, "duration": 6, "velocity": 89}, {"time": 3704, "pitch": 76, "duration": 5, "velocity": 96}, {"time": 3710, "pitch": 79, "duration": 11, "velocity": 89}, {"time": 3722, "pitch": 74, "duration": 5, "velocity": 96}, {"time": 3728, "pitch": 72, "duration": 6, "velocity": 87}, {"time": 3734, "pitch": 69, "duration": 11, "velocity": 87}, {"time": 3746, "pitch": 69, "duration": 3, "velocity": 92}, {"time": 3749, "pitch": 72, "duration": 2, "velocity": 87}, {"time": 3752, "pitch": 74, "duration": 6, "velocity": 101}, {"time": 3758, "pitch": 74, "duration": 11, "velocity": 101}, {"time": 3770, "pitch": 74, "duration": 3, "velocity": 99}, {"time": 3773, "pitch": 76, "duration": 3, "velocity": 89}, {"time": 3776, "pitch": 79, "duration": 5, "velocity": 90}, {"time": 3782, "pitch": 84, "duration": 12, "velocity": 87}, {"time": 3794, "pitch": 79, "duration": 6, "velocity": 87}, {"time": 3800, "pitch": 81, "duration": 36, "velocity": 96}]}, {"program": 0, "is_drum": false, "name": "PIANO", "notes": [{"time": 7, "pitch": 64, "duration": 18, "velocity": 71}, {"time": 8, "pitch": 57, "duration": 19, "velocity": 76}, {"time": 8, "pitch": 69, "duration": 24, "velocity": 70}, {"time": 55, "pitch": 65, "duration": 18, "velocity": 67}, {"time": 56, "pitch": 53, "duration": 40, "velocity": 72}, {"time": 56, "pitch": 69, "duration": 18, "velocity": 61}, {"time": 74, "pitch": 60, "duration": 20, "velocity": 56}, {"time": 79, "pitch": 65, "duration": 3, "velocity": 54}, {"time": 80, "pitch": 69, "duration": 2, "velocity": 68}, {"time": 80, "pitch": 72, "duration": 3, "velocity": 58}, {"time": 103, "pitch": 60, "duration": 19, "velocity": 63}, {"time": 104, "pitch": 65, "duration": 21, "velocity": 77}, {"time": 104, "pitch": 53, "duration": 40, "velocity": 76}, {"time": 105, "pitch": 69, "duration": 20, "velocity": 73}, {"time": 133, "pitch": 60, "duration": 4, "velocity": 74}, {"time": 140, "pitch": 65, "duration": 3, "velocity": 72}, {"time": 140, "pitch": 69, "duration": 3, "velocity": 77}, {"time": 152, "pitch": 64, "duration": 9, "velocity": 76}, {"time": 152, "pitch": 52, "duration": 36, "velocity": 87}, {"time": 152, "pitch": 71, "duration": 10, "velocity": 73}, {"time": 157, "pitch": 59, "duration": 30, "velocity": 72}, {"time": 164, "pitch": 64, "duration": 4, "velocity": 73}, {"time": 174, "pitch": 64, "duration": 13, "velocity": 71}, {"time": 176, "pitch": 68, "duration": 10, "velocity": 63}, {"time": 176, "pitch": 76, "duration": 10, "velocity": 79}, {"time": 200, "pitch": 45, "duration": 42, "velocity": 81}, {"time": 200, "pitch": 64, "duration": 12, "velocity": 80}, {"time": 206, "pitch": 52, "duration": 10, "velocity": 70}, {"time": 212, "pitch": 57, "duration": 14, "velocity": 84}, {"time": 218, "pitch": 52, "duration": 24, "velocity": 67}, {"time": 224, "pitch": 69, "duration": 15, "velocity": 85}, {"time": 230, "pitch": 57, "duration": 3, "velocity": 73}, {"time": 236, "pitch": 57, "duration": 3, "velocity": 74}, {"time": 236, "pitch": 64, "duration": 3, "velocity": 77}, {"time": 248, "pitch": 45, "duration": 39, "velocity": 83}, {"time": 248, "pitch": 57, "duration": 13, "velocity": 71}, {"time": 248, "pitch": 60, "duration": 12, "velocity": 77}, {"time": 254, "pitch": 52, "duration": 32, "velocity": 71}, {"time": 260, "pitch": 64, "duration": 7, "velocity": 81}, {"time": 266, "pitch": 57, "duration": 7, "velocity": 79}, {"time": 272, "pitch": 69, "duration": 13, "velocity": 85}, {"time": 278, "pitch": 57, "duration": 7, "velocity": 73}, {"time": 284, "pitch": 64, "duration": 2, "velocity": 79}, {"time": 296, "pitch": 50, "duration": 39, "velocity": 86}, {"time": 296, "pitch": 62, "duration": 8, "velocity": 77}, {"time": 296, "pitch": 69, "duration": 12, "velocity": 74}, {"time": 302, "pitch": 57, "duration": 32, "velocity": 69}, {"time": 308, "pitch": 65, "duration": 7, "velocity": 89}, {"time": 314, "pitch": 62, "duration": 4, "velocity": 80}, {"time": 320, "pitch": 69, "duration": 2, "velocity": 79}, {"time": 332, "pitch": 62, "duration": 2, "velocity": 79}, {"time": 332, "pitch": 65, "duration": 2, "velocity": 81}, {"time": 344, "pitch": 48, "duration": 41, "velocity": 86}, {"time": 344, "pitch": 60, "duration": 9, "velocity": 77}, {"time": 344, "pitch": 67, "duration": 11, "velocity": 78}, {"time": 350, "pitch": 55, "duration": 34, "velocity": 73}, {"time": 356, "pitch": 62, "duration": 7, "velocity": 80}, {"time": 362, "pitch": 64, "duration": 2, "velocity": 86}, {"time": 368, "pitch": 60, "duration": 2, "velocity": 86}, {"time": 368, "pitch": 67, "duration": 2, "velocity": 85}, {"time": 374, "pitch": 60, "duration": 3, "velocity": 84}, {"time": 380, "pitch": 60, "duration": 3, "velocity": 87}, {"time": 380, "pitch": 64, "duration": 3, "velocity": 92}, {"time": 386, "pitch": 59, "duration": 3, "velocity": 86}, {"time": 386, "pitch": 62, "duration": 3, "velocity": 86}, {"time": 392, "pitch": 45, "duration": 41, "velocity": 86}, {"time": 392, "pitch": 57, "duration": 8, "velocity": 84}, {"time": 392, "pitch": 60, "duration": 9, "velocity": 86}, {"time": 398, "pitch": 52, "duration": 34, "velocity": 82}, {"time": 404, "pitch": 57, "duration": 3, "velocity": 85}, {"time": 407, "pitch": 59, "duration": 4, "velocity": 81}, {"time": 410, "pitch": 60, "duration": 4, "velocity": 83}, {"time": 413, "pitch": 62, "duration": 4, "velocity": 73}, {"time": 416, "pitch": 64, "duration": 7, "velocity": 81}, {"time": 422, "pitch": 57, "duration": 3, "velocity": 77}, {"time": 428, "pitch": 57, "duration": 3, "velocity": 85}, {"time": 428, "pitch": 60, "duration": 4, "velocity": 88}, {"time": 428, "pitch": 64, "duration": 5, "velocity": 90}, {"time": 440, "pitch": 40, "duration": 15, "velocity": 85}, {"time": 440, "pitch": 59, "duration": 10, "velocity": 77}, {"time": 440, "pitch": 64, "duration": 9, "velocity": 84}, {"time": 446, "pitch": 47, "duration": 8, "velocity": 75}, {"time": 452, "pitch": 59, "duration": 3, "velocity": 86}, {"time": 452, "pitch": 67, "duration": 7, "velocity": 81}, {"time": 464, "pitch": 45, "duration": 19, "velocity": 85}, {"time": 464, "pitch": 57, "duration": 9, "velocity": 79}, {"time": 464, "pitch": 60, "duration": 8, "velocity": 79}, {"time": 470, "pitch": 52, "duration": 12, "velocity": 80}, {"time": 476, "pitch": 57, "duration": 2, "velocity": 86}, {"time": 476, "pitch": 64, "duration": 5, "velocity": 86}, {"time": 482, "pitch": 57, "duration": 6, "velocity": 85}, {"time": 488, "pitch": 50, "duration": 17, "velocity": 80}, {"time": 488, "pitch": 65, "duration": 10, "velocity": 80}, {"time": 494, "pitch": 57, "duration": 7, "velocity": 75}, {"time": 500, "pitch": 62, "duration": 6, "velocity": 88}, {"time": 506, "pitch": 57, "duration": 2, "velocity": 89}, {"time": 512, "pitch": 43, "duration": 19, "velocity": 84}, {"time": 512, "pitch": 55, "duration": 13, "velocity": 80}, {"time": 512, "pitch": 59, "duration": 13, "velocity": 81}, {"time": 518, "pitch": 50, "duration": 13, "velocity": 77}, {"time": 524, "pitch": 62, "duration": 6, "velocity": 86}, {"time": 530, "pitch": 55, "duration": 2, "velocity": 85}, {"time": 536, "pitch": 45, "duration": 22, "velocity": 86}, {"time": 536, "pitch": 57, "duration": 9, "velocity": 84}, {"time": 542, "pitch": 52, "duration": 16, "velocity": 83}, {"time": 548, "pitch": 60, "duration": 6, "velocity": 77}, {"time": 554, "pitch": 59, "duration": 8, "velocity": 82}, {"time": 560, "pitch": 45, "duration": 22, "velocity": 85}, {"time": 560, "pitch": 57, "duration": 20, "velocity": 76}, {"time": 566, "pitch": 52, "duration": 15, "velocity": 68}, {"time": 572, "pitch": 69, "duration": 7, "velocity": 87}, {"time": 584, "pitch": 45, "duration": 17, "velocity": 85}, {"time": 584, "pitch": 57, "duration": 12, "velocity": 79}, {"time": 584, "pitch": 60, "duration": 13, "velocity": 78}, {"time": 590, "pitch": 52, "duration": 10, "velocity": 71}, {"time": 596, "pitch": 64, "duration": 6, "velocity": 86}, {"time": 608, "pitch": 43, "duration": 20, "velocity": 82}, {"time": 608, "pitch": 59, "duration": 13, "velocity": 76}, {"time": 614, "pitch": 50, "duration": 14, "velocity": 74}, {"time": 620, "pitch": 55, "duration": 7, "velocity": 90}, {"time": 626, "pitch": 59, "duration": 7, "velocity": 91}, {"time": 632, "pitch": 45, "duration": 45, "velocity": 82}, {"time": 632, "pitch": 60, "duration": 13, "velocity": 82}, {"time": 638, "pitch": 52, "duration": 8, "velocity": 71}, {"time": 644, "pitch": 57, "duration": 9, "velocity": 83}, {"time": 650, "pitch": 52, "duration": 9, "velocity": 78}, {"time": 656, "pitch": 57, "duration": 7, "velocity": 79}, {"time": 656, "pitch": 64, "duration": 8, "velocity": 81}, {"time": 662, "pitch": 52, "duration": 9, "velocity": 73}, {"time": 668, "pitch": 60, "duration": 2, "velocity": 87}, {"time": 680, "pitch": 50, "duration": 14, "velocity": 85}, {"time": 680, "pitch": 62, "duration": 7, "velocity": 81}, {"time": 686, "pitch": 57, "duration": 7, "velocity": 86}, {"time": 692, "pitch": 65, "duration": 6, "velocity": 84}, {"time": 698, "pitch": 57, "duration": 4, "velocity": 85}, {"time": 704, "pitch": 43, "duration": 18, "velocity": 85}, {"time": 704, "pitch": 55, "duration": 13, "velocity": 81}, {"time": 704, "pitch": 59, "duration": 13, "velocity": 81}, {"time": 710, "pitch": 50, "duration": 12, "velocity": 78}, {"time": 716, "pitch": 62, "duration": 5, "velocity": 86}, {"time": 728, "pitch": 48, "duration": 18, "velocity": 80}, {"time": 728, "pitch": 64, "duration": 13, "velocity": 88}, {"time": 734, "pitch": 55, "duration": 7, "velocity": 86}, {"time": 740, "pitch": 60, "duration": 4, "velocity": 81}, {"time": 746, "pitch": 62, "duration": 2, "velocity": 88}, {"time": 752, "pitch": 40, "duration": 14, "velocity": 87}, {"time": 752, "pitch": 59, "duration": 5, "velocity": 75}, {"time": 752, "pitch": 64, "duration": 8, "velocity": 87}, {"time": 758, "pitch": 47, "duration": 7, "velocity": 80}, {"time": 764, "pitch": 52, "duration": 3, "velocity": 92}, {"time": 764, "pitch": 56, "duration": 4, "velocity": 86}, {"time": 776, "pitch": 45, "duration": 20, "velocity": 86}, {"time": 776, "pitch": 57, "duration": 13, "velocity": 79}, {"time": 776, "pitch": 60, "duration": 13, "velocity": 81}, {"time": 782, "pitch": 52, "duration": 14, "velocity": 79}, {"time": 788, "pitch": 64, "duration": 6, "velocity": 92}, {"time": 794, "pitch": 57, "duration": 7, "velocity": 90}, {"time": 800, "pitch": 50, "duration": 13, "velocity": 80}, {"time": 800, "pitch": 65, "duration": 12, "velocity": 86}, {"time": 806, "pitch": 57, "duration": 7, "velocity": 86}, {"time": 812, "pitch": 62, "duration": 1, "velocity": 76}, {"time": 824, "pitch": 43, "duration": 42, "velocity": 85}, {"time": 824, "pitch": 55, "duration": 12, "velocity": 76}, {"time": 824, "pitch": 59, "duration": 12, "velocity": 79}, {"time": 830, "pitch": 50, "duration": 35, "velocity": 77}, {"time": 836, "pitch": 62, "duration": 3, "velocity": 85}, {"time": 842, "pitch": 55, "duration": 8, "velocity": 86}, {"time": 848, "pitch": 67, "duration": 13, "velocity": 86}, {"time": 854, "pitch": 55, "duration": 7, "velocity": 74}, {"time": 860, "pitch": 62, "duration": 4, "velocity": 84}, {"time": 863, "pitch": 60, "duration": 4, "velocity": 86}, {"time": 866, "pitch": 59, "duration": 2, "velocity": 76}, {"time": 872, "pitch": 41, "duration": 17, "velocity": 83}, {"time": 872, "pitch": 53, "duration": 13, "velocity": 85}, {"time": 872, "pitch": 57, "duration": 13, "velocity": 78}, {"time": 878, "pitch": 48, "duration": 11, "velocity": 74}, {"time": 884, "pitch": 60, "duration": 6, "velocity": 86}, {"time": 896, "pitch": 43, "duration": 18, "velocity": 83}, {"time": 896, "pitch": 55, "duration": 13, "velocity": 80}, {"time": 896, "pitch": 59, "duration": 13, "velocity": 80}, {"time": 902, "pitch": 50, "duration": 12, "velocity": 77}, {"time": 908, "pitch": 62, "duration": 5, "velocity": 85}, {"time": 914, "pitch": 60, "duration": 3, "velocity": 92}, {"time": 917, "pitch": 59, "duration": 4, "velocity": 85}, {"time": 920, "pitch": 45, "duration": 22, "velocity": 85}, {"time": 920, "pitch": 57, "duration": 14, "velocity": 86}, {"time": 926, "pitch": 52, "duration": 17, "velocity": 77}, {"time": 932, "pitch": 64, "duration": 3, "velocity": 87}, {"time": 938, "pitch": 60, "duration": 4, "velocity": 74}, {"time": 941, "pitch": 59, "duration": 4, "velocity": 78}, {"time": 944, "pitch": 45, "duration": 24, "velocity": 85}, {"time": 944, "pitch": 57, "duration": 13, "velocity": 76}, {"time": 950, "pitch": 52, "duration": 18, "velocity": 79}, {"time": 956, "pitch": 60, "duration": 11, "velocity": 87}, {"time": 956, "pitch": 64, "duration": 12, "velocity": 87}, {"time": 962, "pitch": 57, "duration": 6, "velocity": 87}, {"time": 968, "pitch": 45, "duration": 23, "velocity": 87}, {"time": 974, "pitch": 52, "duration": 17, "velocity": 83}, {"time": 980, "pitch": 64, "duration": 7, "velocity": 94}, {"time": 983, "pitch": 57, "duration": 4, "velocity": 81}, {"time": 986, "pitch": 69, "duration": 6, "velocity": 86}, {"time": 989, "pitch": 57, "duration": 4, "velocity": 76}, {"time": 992, "pitch": 41, "duration": 1, "velocity": 85}, {"time": 992, "pitch": 43, "duration": 21, "velocity": 84}, {"time": 998, "pitch": 50, "duration": 8, "velocity": 82}, {"time": 1004, "pitch": 62, "duration": 9, "velocity": 87}, {"time": 1007, "pitch": 50, "duration": 7, "velocity": 85}, {"time": 1010, "pitch": 55, "duration": 4, "velocity": 83}, {"time": 1016, "pitch": 45, "duration": 22, "velocity": 87}, {"time": 1016, "pitch": 57, "duration": 9, "velocity": 81}, {"time": 1016, "pitch": 60, "duration": 8, "velocity": 72}, {"time": 1022, "pitch": 52, "duration": 8, "velocity": 79}, {"time": 1028, "pitch": 64, "duration": 5, "velocity": 96}, {"time": 1031, "pitch": 52, "duration": 8, "velocity": 82}, {"time": 1034, "pitch": 60, "duration": 4, "velocity": 87}, {"time": 1037, "pitch": 59, "duration": 4, "velocity": 87}, {"time": 1040, "pitch": 45, "duration": 21, "velocity": 86}, {"time": 1040, "pitch": 57, "duration": 16, "velocity": 86}, {"time": 1046, "pitch": 52, "duration": 14, "velocity": 84}, {"time": 1052, "pitch": 69, "duration": 5, "velocity": 89}, {"time": 1055, "pitch": 64, "duration": 4, "velocity": 85}, {"time": 1058, "pitch": 60, "duration": 3, "velocity": 84}, {"time": 1061, "pitch": 57, "duration": 3, "velocity": 81}, {"time": 1064, "pitch": 50, "duration": 15, "velocity": 87}, {"time": 1064, "pitch": 62, "duration": 7, "velocity": 89}, {"time": 1070, "pitch": 57, "duration": 8, "velocity": 79}, {"time": 1076, "pitch": 65, "duration": 4, "velocity": 91}, {"time": 1079, "pitch": 57, "duration": 3, "velocity": 85}, {"time": 1082, "pitch": 62, "duration": 3, "velocity": 80}, {"time": 1085, "pitch": 57, "duration": 2, "velocity": 70}, {"time": 1088, "pitch": 43, "duration": 18, "velocity": 85}, {"time": 1088, "pitch": 55, "duration": 10, "velocity": 82}, {"time": 1088, "pitch": 59, "duration": 10, "velocity": 87}, {"time": 1094, "pitch": 50, "duration": 9, "velocity": 81}, {"time": 1100, "pitch": 59, "duration": 8, "velocity": 86}, {"time": 1100, "pitch": 62, "duration": 7, "velocity": 80}, {"time": 1106, "pitch": 55, "duration": 5, "velocity": 81}, {"time": 1112, "pitch": 48, "duration": 18, "velocity": 86}, {"time": 1112, "pitch": 64, "duration": 13, "velocity": 91}, {"time": 1118, "pitch": 55, "duration": 7, "velocity": 79}, {"time": 1124, "pitch": 60, "duration": 4, "velocity": 85}, {"time": 1127, "pitch": 55, "duration": 4, "velocity": 84}, {"time": 1130, "pitch": 62, "duration": 4, "velocity": 87}, {"time": 1133, "pitch": 55, "duration": 3, "velocity": 83}, {"time": 1136, "pitch": 40, "duration": 16, "velocity": 90}, {"time": 1136, "pitch": 64, "duration": 9, "velocity": 88}, {"time": 1139, "pitch": 47, "duration": 13, "velocity": 72}, {"time": 1142, "pitch": 52, "duration": 3, "velocity": 87}, {"time": 1145, "pitch": 56, "duration": 2, "velocity": 87}, {"time": 1148, "pitch": 59, "duration": 4, "velocity": 86}, {"time": 1151, "pitch": 62, "duration": 4, "velocity": 89}, {"time": 1154, "pitch": 64, "duration": 3, "velocity": 87}, {"time": 1160, "pitch": 45, "duration": 22, "velocity": 86}, {"time": 1160, "pitch": 64, "duration": 6, "velocity": 85}, {"time": 1163, "pitch": 52, "duration": 19, "velocity": 79}, {"time": 1166, "pitch": 57, "duration": 4, "velocity": 82}, {"time": 1169, "pitch": 60, "duration": 3, "velocity": 80}, {"time": 1172, "pitch": 64, "duration": 4, "velocity": 94}, {"time": 1175, "pitch": 57, "duration": 4, "velocity": 80}, {"time": 1178, "pitch": 60, "duration": 3, "velocity": 81}, {"time": 1181, "pitch": 57, "duration": 2, "velocity": 70}, {"time": 1184, "pitch": 50, "duration": 19, "velocity": 86}, {"time": 1184, "pitch": 65, "duration": 11, "velocity": 87}, {"time": 1190, "pitch": 57, "duration": 6, "velocity": 83}, {"time": 1196, "pitch": 62, "duration": 3, "velocity": 86}, {"time": 1199, "pitch": 57, "duration": 2, "velocity": 86}, {"time": 1202, "pitch": 60, "duration": 4, "velocity": 87}, {"time": 1208, "pitch": 43, "duration": 43, "velocity": 86}, {"time": 1208, "pitch": 55, "duration": 7, "velocity": 85}, {"time": 1208, "pitch": 59, "duration": 9, "velocity": 83}, {"time": 1214, "pitch": 50, "duration": 34, "velocity": 80}, {"time": 1217, "pitch": 55, "duration": 3, "velocity": 85}, {"time": 1220, "pitch": 62, "duration": 4, "velocity": 86}, {"time": 1223, "pitch": 55, "duration": 4, "velocity": 86}, {"time": 1226, "pitch": 62, "duration": 7, "velocity": 80}, {"time": 1229, "pitch": 55, "duration": 4, "velocity": 79}, {"time": 1232, "pitch": 67, "duration": 10, "velocity": 85}, {"time": 1235, "pitch": 55, "duration": 4, "velocity": 82}, {"time": 1238, "pitch": 62, "duration": 4, "velocity": 77}, {"time": 1244, "pitch": 55, "duration": 6, "velocity": 81}, {"time": 1244, "pitch": 59, "duration": 6, "velocity": 77}, {"time": 1250, "pitch": 50, "duration": 5, "velocity": 88}, {"time": 1256, "pitch": 41, "duration": 19, "velocity": 85}, {"time": 1256, "pitch": 53, "duration": 6, "velocity": 78}, {"time": 1256, "pitch": 57, "duration": 7, "velocity": 77}, {"time": 1259, "pitch": 48, "duration": 15, "velocity": 80}, {"time": 1262, "pitch": 60, "duration": 7, "velocity": 85}, {"time": 1265, "pitch": 53, "duration": 4, "velocity": 79}, {"time": 1268, "pitch": 65, "duration": 8, "velocity": 87}, {"time": 1271, "pitch": 53, "duration": 4, "velocity": 87}, {"time": 1274, "pitch": 60, "duration": 3, "velocity": 80}, {"time": 1280, "pitch": 43, "duration": 20, "velocity": 86}, {"time": 1280, "pitch": 55, "duration": 4, "velocity": 80}, {"time": 1280, "pitch": 59, "duration": 7, "velocity": 80}, {"time": 1283, "pitch": 50, "duration": 11, "velocity": 80}, {"time": 1286, "pitch": 55, "duration": 7, "velocity": 86}, {"time": 1292, "pitch": 62, "duration": 5, "velocity": 87}, {"time": 1295, "pitch": 50, "duration": 5, "velocity": 81}, {"time": 1298, "pitch": 60, "duration": 3, "velocity": 91}, {"time": 1301, "pitch": 59, "duration": 4, "velocity": 85}, {"time": 1304, "pitch": 45, "duration": 23, "velocity": 85}, {"time": 1304, "pitch": 57, "duration": 6, "velocity": 86}, {"time": 1310, "pitch": 60, "duration": 4, "velocity": 86}, {"time": 1316, "pitch": 57, "duration": 5, "velocity": 86}, {"time": 1316, "pitch": 60, "duration": 5, "velocity": 92}, {"time": 1316, "pitch": 64, "duration": 4, "velocity": 94}, {"time": 1322, "pitch": 52, "duration": 5, "velocity": 85}, {"time": 1328, "pitch": 45, "duration": 24, "velocity": 94}, {"time": 1328, "pitch": 57, "duration": 1, "velocity": 56}, {"time": 1328, "pitch": 60, "duration": 4, "velocity": 79}, {"time": 1328, "pitch": 64, "duration": 3, "velocity": 83}, {"time": 1328, "pitch": 69, "duration": 6, "velocity": 86}, {"time": 1334, "pitch": 52, "duration": 18, "velocity": 88}, {"time": 1340, "pitch": 69, "duration": 2, "velocity": 86}, {"time": 1340, "pitch": 72, "duration": 3, "velocity": 94}, {"time": 1343, "pitch": 71, "duration": 3, "velocity": 87}, {"time": 1346, "pitch": 69, "duration": 6, "velocity": 89}, {"time": 1352, "pitch": 45, "duration": 19, "velocity": 88}, {"time": 1352, "pitch": 57, "duration": 4, "velocity": 83}, {"time": 1352, "pitch": 60, "duration": 6, "velocity": 86}, {"time": 1355, "pitch": 52, "duration": 11, "velocity": 76}, {"time": 1358, "pitch": 57, "duration": 4, "velocity": 88}, {"time": 1361, "pitch": 60, "duration": 3, "velocity": 96}, {"time": 1364, "pitch": 64, "duration": 4, "velocity": 101}, {"time": 1367, "pitch": 52, "duration": 4, "velocity": 86}, {"time": 1370, "pitch": 57, "duration": 5, "velocity": 91}, {"time": 1373, "pitch": 60, "duration": 7, "velocity": 94}, {"time": 1376, "pitch": 41, "duration": 18, "velocity": 86}, {"time": 1379, "pitch": 48, "duration": 11, "velocity": 79}, {"time": 1382, "pitch": 53, "duration": 5, "velocity": 86}, {"time": 1385, "pitch": 57, "duration": 3, "velocity": 87}, {"time": 1388, "pitch": 60, "duration": 6, "velocity": 99}, {"time": 1391, "pitch": 48, "duration": 4, "velocity": 85}, {"time": 1394, "pitch": 53, "duration": 4, "velocity": 87}, {"time": 1400, "pitch": 40, "duration": 16, "velocity": 89}, {"time": 1403, "pitch": 47, "duration": 10, "velocity": 85}, {"time": 1406, "pitch": 52, "duration": 4, "velocity": 85}, {"time": 1409, "pitch": 55, "duration": 2, "velocity": 85}, {"time": 1412, "pitch": 52, "duration": 4, "velocity": 89}, {"time": 1412, "pitch": 59, "duration": 7, "velocity": 89}, {"time": 1415, "pitch": 47, "duration": 2, "velocity": 90}, {"time": 1418, "pitch": 52, "duration": 4, "velocity": 94}, {"time": 1421, "pitch": 55, "duration": 3, "velocity": 85}, {"time": 1424, "pitch": 45, "duration": 20, "velocity": 87}, {"time": 1424, "pitch": 57, "duration": 5, "velocity": 81}, {"time": 1427, "pitch": 52, "duration": 11, "velocity": 79}, {"time": 1430, "pitch": 57, "duration": 4, "velocity": 89}, {"time": 1436, "pitch": 57, "duration": 4, "velocity": 89}, {"time": 1436, "pitch": 60, "duration": 4, "velocity": 99}, {"time": 1436, "pitch": 64, "duration": 5, "velocity": 94}, {"time": 1439, "pitch": 52, "duration": 4, "velocity": 87}, {"time": 1442, "pitch": 57, "duration": 4, "velocity": 86}, {"time": 1445, "pitch": 60, "duration": 3, "velocity": 85}, {"time": 1448, "pitch": 50, "duration": 15, "velocity": 88}, {"time": 1448, "pitch": 65, "duration": 6, "velocity": 86}, {"time": 1451, "pitch": 53, "duration": 11, "velocity": 78}, {"time": 1454, "pitch": 57, "duration": 4, "velocity": 85}, {"time": 1457, "pitch": 62, "duration": 2, "velocity": 84}, {"time": 1460, "pitch": 65, "duration": 7, "velocity": 96}, {"time": 1463, "pitch": 57, "duration": 3, "velocity": 87}, {"time": 1466, "pitch": 62, "duration": 3, "velocity": 89}, {"time": 1469, "pitch": 57, "duration": 3, "velocity": 77}, {"time": 1472, "pitch": 43, "duration": 23, "velocity": 86}, {"time": 1472, "pitch": 62, "duration": 6, "velocity": 85}, {"time": 1475, "pitch": 50, "duration": 19, "velocity": 77}, {"time": 1478, "pitch": 55, "duration": 4, "velocity": 86}, {"time": 1481, "pitch": 59, "duration": 3, "velocity": 85}, {"time": 1484, "pitch": 62, "duration": 3, "velocity": 96}, {"time": 1487, "pitch": 55, "duration": 4, "velocity": 85}, {"time": 1490, "pitch": 62, "duration": 3, "velocity": 85}, {"time": 1493, "pitch": 55, "duration": 3, "velocity": 81}, {"time": 1496, "pitch": 48, "duration": 18, "velocity": 87}, {"time": 1496, "pitch": 60, "duration": 7, "velocity": 90}, {"time": 1499, "pitch": 52, "duration": 15, "velocity": 86}, {"time": 1502, "pitch": 55, "duration": 4, "velocity": 91}, {"time": 1505, "pitch": 60, "duration": 4, "velocity": 85}, {"time": 1508, "pitch": 62, "duration": 3, "velocity": 87}, {"time": 1511, "pitch": 60, "duration": 3, "velocity": 89}, {"time": 1514, "pitch": 55, "duration": 4, "velocity": 88}, {"time": 1517, "pitch": 60, "duration": 3, "velocity": 82}, {"time": 1520, "pitch": 40, "duration": 17, "velocity": 89}, {"time": 1520, "pitch": 64, "duration": 6, "velocity": 88}, {"time": 1523, "pitch": 47, "duration": 10, "velocity": 81}, {"time": 1526, "pitch": 59, "duration": 2, "velocity": 87}, {"time": 1529, "pitch": 59, "duration": 2, "velocity": 85}, {"time": 1529, "pitch": 64, "duration": 2, "velocity": 85}, {"time": 1532, "pitch": 59, "duration": 4, "velocity": 94}, {"time": 1532, "pitch": 64, "duration": 4, "velocity": 99}, {"time": 1535, "pitch": 47, "duration": 3, "velocity": 101}, {"time": 1538, "pitch": 59, "duration": 2, "velocity": 87}, {"time": 1538, "pitch": 62, "duration": 2, "velocity": 86}, {"time": 1544, "pitch": 45, "duration": 21, "velocity": 86}, {"time": 1544, "pitch": 57, "duration": 4, "velocity": 85}, {"time": 1544, "pitch": 60, "duration": 6, "velocity": 85}, {"time": 1547, "pitch": 52, "duration": 17, "velocity": 86}, {"time": 1550, "pitch": 57, "duration": 5, "velocity": 87}, {"time": 1553, "pitch": 60, "duration": 3, "velocity": 82}, {"time": 1556, "pitch": 64, "duration": 4, "velocity": 96}, {"time": 1559, "pitch": 57, "duration": 4, "velocity": 87}, {"time": 1562, "pitch": 60, "duration": 4, "velocity": 87}, {"time": 1565, "pitch": 57, "duration": 4, "velocity": 76}, {"time": 1568, "pitch": 41, "duration": 18, "velocity": 88}, {"time": 1568, "pitch": 60, "duration": 8, "velocity": 90}, {"time": 1571, "pitch": 48, "duration": 14, "velocity": 81}, {"time": 1574, "pitch": 53, "duration": 8, "velocity": 86}, {"time": 1577, "pitch": 57, "duration": 5, "velocity": 86}, {"time": 1580, "pitch": 65, "duration": 6, "velocity": 92}, {"time": 1583, "pitch": 60, "duration": 4, "velocity": 87}, {"time": 1586, "pitch": 57, "duration": 4, "velocity": 86}, {"time": 1589, "pitch": 53, "duration": 2, "velocity": 86}, {"time": 1592, "pitch": 40, "duration": 19, "velocity": 87}, {"time": 1592, "pitch": 52, "duration": 5, "velocity": 90}, {"time": 1592, "pitch": 55, "duration": 7, "velocity": 86}, {"time": 1595, "pitch": 47, "duration": 15, "velocity": 83}, {"time": 1598, "pitch": 59, "duration": 6, "velocity": 88}, {"time": 1601, "pitch": 52, "duration": 3, "velocity": 86}, {"time": 1604, "pitch": 64, "duration": 7, "velocity": 96}, {"time": 1607, "pitch": 52, "duration": 4, "velocity": 91}, {"time": 1610, "pitch": 59, "duration": 3, "velocity": 87}, {"time": 1613, "pitch": 52, "duration": 2, "velocity": 86}, {"time": 1616, "pitch": 45, "duration": 22, "velocity": 85}, {"time": 1616, "pitch": 60, "duration": 7, "velocity": 86}, {"time": 1619, "pitch": 52, "duration": 11, "velocity": 84}, {"time": 1622, "pitch": 57, "duration": 4, "velocity": 86}, {"time": 1625, "pitch": 60, "duration": 2, "velocity": 80}, {"time": 1628, "pitch": 57, "duration": 3, "velocity": 91}, {"time": 1628, "pitch": 64, "duration": 4, "velocity": 91}, {"time": 1631, "pitch": 52, "duration": 7, "velocity": 88}, {"time": 1634, "pitch": 57, "duration": 4, "velocity": 86}, {"time": 1637, "pitch": 60, "duration": 3, "velocity": 83}, {"time": 1640, "pitch": 50, "duration": 16, "velocity": 94}, {"time": 1640, "pitch": 62, "duration": 6, "velocity": 87}, {"time": 1643, "pitch": 53, "duration": 13, "velocity": 74}, {"time": 1646, "pitch": 57, "duration": 5, "velocity": 87}, {"time": 1649, "pitch": 62, "duration": 4, "velocity": 84}, {"time": 1652, "pitch": 65, "duration": 7, "velocity": 91}, {"time": 1655, "pitch": 57, "duration": 4, "velocity": 81}, {"time": 1658, "pitch": 62, "duration": 3, "velocity": 86}, {"time": 1661, "pitch": 57, "duration": 2, "velocity": 85}, {"time": 1664, "pitch": 43, "duration": 21, "velocity": 85}, {"time": 1664, "pitch": 62, "duration": 7, "velocity": 87}, {"time": 1667, "pitch": 50, "duration": 14, "velocity": 81}, {"time": 1670, "pitch": 55, "duration": 4, "velocity": 85}, {"time": 1673, "pitch": 59, "duration": 2, "velocity": 85}, {"time": 1676, "pitch": 62, "duration": 4, "velocity": 91}, {"time": 1679, "pitch": 55, "duration": 4, "velocity": 85}, {"time": 1682, "pitch": 59, "duration": 3, "velocity": 87}, {"time": 1685, "pitch": 55, "duration": 3, "velocity": 87}, {"time": 1688, "pitch": 48, "duration": 18, "velocity": 90}, {"time": 1688, "pitch": 60, "duration": 7, "velocity": 91}, {"time": 1691, "pitch": 52, "duration": 15, "velocity": 79}, {"time": 1694, "pitch": 55, "duration": 4, "velocity": 90}, {"time": 1697, "pitch": 60, "duration": 3, "velocity": 88}, {"time": 1700, "pitch": 62, "duration": 4, "velocity": 88}, {"time": 1703, "pitch": 60, "duration": 4, "velocity": 92}, {"time": 1706, "pitch": 55, "duration": 5, "velocity": 89}, {"time": 1709, "pitch": 60, "duration": 4, "velocity": 84}, {"time": 1712, "pitch": 40, "duration": 17, "velocity": 88}, {"time": 1712, "pitch": 64, "duration": 5, "velocity": 89}, {"time": 1715, "pitch": 47, "duration": 13, "velocity": 87}, {"time": 1718, "pitch": 59, "duration": 2, "velocity": 90}, {"time": 1721, "pitch": 59, "duration": 2, "velocity": 92}, {"time": 1721, "pitch": 64, "duration": 2, "velocity": 90}, {"time": 1724, "pitch": 59, "duration": 2, "velocity": 94}, {"time": 1724, "pitch": 64, "duration": 3, "velocity": 96}, {"time": 1727, "pitch": 62, "duration": 3, "velocity": 102}, {"time": 1730, "pitch": 60, "duration": 4, "velocity": 94}, {"time": 1733, "pitch": 59, "duration": 3, "velocity": 86}, {"time": 1736, "pitch": 45, "duration": 19, "velocity": 88}, {"time": 1736, "pitch": 57, "duration": 4, "velocity": 83}, {"time": 1736, "pitch": 60, "duration": 6, "velocity": 86}, {"time": 1739, "pitch": 52, "duration": 11, "velocity": 76}, {"time": 1742, "pitch": 57, "duration": 4, "velocity": 88}, {"time": 1745, "pitch": 60, "duration": 3, "velocity": 96}, {"time": 1748, "pitch": 64, "duration": 4, "velocity": 101}, {"time": 1751, "pitch": 52, "duration": 4, "velocity": 86}, {"time": 1754, "pitch": 57, "duration": 5, "velocity": 91}, {"time": 1757, "pitch": 60, "duration": 7, "velocity": 94}, {"time": 1760, "pitch": 41, "duration": 18, "velocity": 86}, {"time": 1763, "pitch": 48, "duration": 11, "velocity": 79}, {"time": 1766, "pitch": 53, "duration": 5, "velocity": 86}, {"time": 1769, "pitch": 57, "duration": 3, "velocity": 87}, {"time": 1772, "pitch": 60, "duration": 6, "velocity": 99}, {"time": 1775, "pitch": 48, "duration": 4, "velocity": 85}, {"time": 1778, "pitch": 53, "duration": 4, "velocity": 87}, {"time": 1784, "pitch": 40, "duration": 16, "velocity": 89}, {"time": 1787, "pitch": 47, "duration": 10, "velocity": 85}, {"time": 1790, "pitch": 52, "duration": 4, "velocity": 85}, {"time": 1793, "pitch": 55, "duration": 2, "velocity": 85}, {"time": 1796, "pitch": 52, "duration": 4, "velocity": 89}, {"time": 1796, "pitch": 59, "duration": 7, "velocity": 89}, {"time": 1799, "pitch": 47, "duration": 2, "velocity": 90}, {"time": 1802, "pitch": 52, "duration": 4, "velocity": 94}, {"time": 1805, "pitch": 55, "duration": 3, "velocity": 85}, {"time": 1808, "pitch": 45, "duration": 20, "velocity": 87}, {"time": 1808, "pitch": 57, "duration": 5, "velocity": 81}, {"time": 1811, "pitch": 52, "duration": 11, "velocity": 79}, {"time": 1814, "pitch": 57, "duration": 4, "velocity": 89}, {"time": 1820, "pitch": 57, "duration": 4, "velocity": 89}, {"time": 1820, "pitch": 60, "duration": 4, "velocity": 99}, {"time": 1820, "pitch": 64, "duration": 5, "velocity": 94}, {"time": 1823, "pitch": 52, "duration": 4, "velocity": 87}, {"time": 1826, "pitch": 57, "duration": 4, "velocity": 86}, {"time": 1829, "pitch": 60, "duration": 3, "velocity": 85}, {"time": 1832, "pitch": 50, "duration": 15, "velocity": 88}, {"time": 1832, "pitch": 65, "duration": 6, "velocity": 86}, {"time": 1835, "pitch": 53, "duration": 11, "velocity": 78}, {"time": 1838, "pitch": 57, "duration": 4, "velocity": 85}, {"time": 1841, "pitch": 62, "duration": 2, "velocity": 84}, {"time": 1844, "pitch": 65, "duration": 7, "velocity": 96}, {"time": 1847, "pitch": 57, "duration": 3, "velocity": 87}, {"time": 1850, "pitch": 62, "duration": 3, "velocity": 89}, {"time": 1853, "pitch": 57, "duration": 3, "velocity": 77}, {"time": 1856, "pitch": 43, "duration": 23, "velocity": 86}, {"time": 1856, "pitch": 62, "duration": 6, "velocity": 85}, {"time": 1859, "pitch": 50, "duration": 19, "velocity": 77}, {"time": 1862, "pitch": 55, "duration": 4, "velocity": 86}, {"time": 1865, "pitch": 59, "duration": 3, "velocity": 85}, {"time": 1868, "pitch": 62, "duration": 3, "velocity": 96}, {"time": 1871, "pitch": 55, "duration": 4, "velocity": 85}, {"time": 1874, "pitch": 62, "duration": 3, "velocity": 85}, {"time": 1877, "pitch": 55, "duration": 3, "velocity": 81}, {"time": 1880, "pitch": 48, "duration": 18, "velocity": 87}, {"time": 1880, "pitch": 60, "duration": 7, "velocity": 90}, {"time": 1883, "pitch": 52, "duration": 15, "velocity": 86}, {"time": 1886, "pitch": 55, "duration": 4, "velocity": 91}, {"time": 1889, "pitch": 60, "duration": 4, "velocity": 85}, {"time": 1892, "pitch": 62, "duration": 3, "velocity": 87}, {"time": 1895, "pitch": 60, "duration": 3, "velocity": 89}, {"time": 1898, "pitch": 55, "duration": 4, "velocity": 88}, {"time": 1901, "pitch": 60, "duration": 3, "velocity": 82}, {"time": 1904, "pitch": 40, "duration": 17, "velocity": 89}, {"time": 1904, "pitch": 64, "duration": 6, "velocity": 88}, {"time": 1907, "pitch": 47, "duration": 10, "velocity": 81}, {"time": 1910, "pitch": 59, "duration": 2, "velocity": 87}, {"time": 1913, "pitch": 59, "duration": 2, "velocity": 85}, {"time": 1913, "pitch": 64, "duration": 2, "velocity": 85}, {"time": 1916, "pitch": 59, "duration": 4, "velocity": 94}, {"time": 1916, "pitch": 64, "duration": 4, "velocity": 99}, {"time": 1919, "pitch": 47, "duration": 3, "velocity": 101}, {"time": 1922, "pitch": 59, "duration": 2, "velocity": 87}, {"time": 1922, "pitch": 62, "duration": 2, "velocity": 86}, {"time": 1928, "pitch": 45, "duration": 21, "velocity": 86}, {"time": 1928, "pitch": 57, "duration": 4, "velocity": 85}, {"time": 1928, "pitch": 60, "duration": 6, "velocity": 85}, {"time": 1931, "pitch": 52, "duration": 17, "velocity": 86}, {"time": 1934, "pitch": 57, "duration": 5, "velocity": 87}, {"time": 1937, "pitch": 60, "duration": 3, "velocity": 82}, {"time": 1940, "pitch": 64, "duration": 4, "velocity": 96}, {"time": 1943, "pitch": 57, "duration": 4, "velocity": 87}, {"time": 1946, "pitch": 60, "duration": 4, "velocity": 87}, {"time": 1949, "pitch": 57, "duration": 4, "velocity": 76}, {"time": 1952, "pitch": 41, "duration": 18, "velocity": 88}, {"time": 1952, "pitch": 60, "duration": 8, "velocity": 90}, {"time": 1955, "pitch": 48, "duration": 14, "velocity": 81}, {"time": 1958, "pitch": 53, "duration": 8, "velocity": 86}, {"time": 1961, "pitch": 57, "duration": 5, "velocity": 86}, {"time": 1964, "pitch": 65, "duration": 6, "velocity": 92}, {"time": 1967, "pitch": 60, "duration": 4, "velocity": 87}, {"time": 1970, "pitch": 57, "duration": 4, "velocity": 86}, {"time": 1973, "pitch": 53, "duration": 2, "velocity": 86}, {"time": 1976, "pitch": 40, "duration": 19, "velocity": 87}, {"time": 1976, "pitch": 52, "duration": 5, "velocity": 90}, {"time": 1976, "pitch": 55, "duration": 7, "velocity": 86}, {"time": 1979, "pitch": 47, "duration": 15, "velocity": 83}, {"time": 1982, "pitch": 59, "duration": 6, "velocity": 88}, {"time": 1985, "pitch": 52, "duration": 3, "velocity": 86}, {"time": 1988, "pitch": 64, "duration": 7, "velocity": 96}, {"time": 1991, "pitch": 52, "duration": 4, "velocity": 91}, {"time": 1994, "pitch": 59, "duration": 3, "velocity": 87}, {"time": 1997, "pitch": 52, "duration": 2, "velocity": 86}, {"time": 2000, "pitch": 45, "duration": 22, "velocity": 85}, {"time": 2000, "pitch": 60, "duration": 7, "velocity": 86}, {"time": 2003, "pitch": 52, "duration": 11, "velocity": 84}, {"time": 2006, "pitch": 57, "duration": 4, "velocity": 86}, {"time": 2009, "pitch": 60, "duration": 2, "velocity": 80}, {"time": 2012, "pitch": 57, "duration": 3, "velocity": 91}, {"time": 2012, "pitch": 64, "duration": 4, "velocity": 91}, {"time": 2015, "pitch": 52, "duration": 7, "velocity": 88}, {"time": 2018, "pitch": 57, "duration": 4, "velocity": 86}, {"time": 2021, "pitch": 60, "duration": 3, "velocity": 83}, {"time": 2024, "pitch": 50, "duration": 16, "velocity": 94}, {"time": 2024, "pitch": 62, "duration": 6, "velocity": 87}, {"time": 2027, "pitch": 53, "duration": 13, "velocity": 74}, {"time": 2030, "pitch": 57, "duration": 5, "velocity": 87}, {"time": 2033, "pitch": 62, "duration": 4, "velocity": 84}, {"time": 2036, "pitch": 65, "duration": 7, "velocity": 91}, {"time": 2039, "pitch": 57, "duration": 4, "velocity": 81}, {"time": 2042, "pitch": 62, "duration": 3, "velocity": 86}, {"time": 2045, "pitch": 57, "duration": 2, "velocity": 85}, {"time": 2048, "pitch": 43, "duration": 21, "velocity": 85}, {"time": 2048, "pitch": 62, "duration": 7, "velocity": 87}, {"time": 2051, "pitch": 50, "duration": 14, "velocity": 81}, {"time": 2054, "pitch": 55, "duration": 4, "velocity": 85}, {"time": 2057, "pitch": 59, "duration": 2, "velocity": 85}, {"time": 2060, "pitch": 62, "duration": 4, "velocity": 91}, {"time": 2063, "pitch": 55, "duration": 4, "velocity": 85}, {"time": 2066, "pitch": 59, "duration": 3, "velocity": 87}, {"time": 2069, "pitch": 55, "duration": 3, "velocity": 87}, {"time": 2072, "pitch": 45, "duration": 46, "velocity": 83}, {"time": 2072, "pitch": 57, "duration": 8, "velocity": 78}, {"time": 2072, "pitch": 60, "duration": 9, "velocity": 80}, {"time": 2078, "pitch": 52, "duration": 21, "velocity": 72}, {"time": 2084, "pitch": 57, "duration": 3, "velocity": 85}, {"time": 2084, "pitch": 64, "duration": 8, "velocity": 85}, {"time": 2090, "pitch": 57, "duration": 4, "velocity": 69}, {"time": 2096, "pitch": 57, "duration": 8, "velocity": 77}, {"time": 2096, "pitch": 60, "duration": 8, "velocity": 80}, {"time": 2102, "pitch": 52, "duration": 13, "velocity": 73}, {"time": 2108, "pitch": 57, "duration": 3, "velocity": 85}, {"time": 2108, "pitch": 60, "duration": 6, "velocity": 88}, {"time": 2108, "pitch": 64, "duration": 7, "velocity": 86}, {"time": 2120, "pitch": 45, "duration": 21, "velocity": 86}, {"time": 2120, "pitch": 57, "duration": 9, "velocity": 78}, {"time": 2120, "pitch": 64, "duration": 10, "velocity": 85}, {"time": 2126, "pitch": 52, "duration": 7, "velocity": 75}, {"time": 2132, "pitch": 60, "duration": 6, "velocity": 90}, {"time": 2135, "pitch": 52, "duration": 7, "velocity": 80}, {"time": 2138, "pitch": 57, "duration": 4, "velocity": 79}, {"time": 2141, "pitch": 60, "duration": 4, "velocity": 67}, {"time": 2144, "pitch": 43, "duration": 17, "velocity": 86}, {"time": 2147, "pitch": 50, "duration": 14, "velocity": 82}, {"time": 2150, "pitch": 55, "duration": 4, "velocity": 80}, {"time": 2153, "pitch": 59, "duration": 5, "velocity": 78}, {"time": 2156, "pitch": 62, "duration": 4, "velocity": 74}, {"time": 2168, "pitch": 45, "duration": 19, "velocity": 86}, {"time": 2168, "pitch": 60, "duration": 6, "velocity": 83}, {"time": 2171, "pitch": 52, "duration": 15, "velocity": 78}, {"time": 2174, "pitch": 57, "duration": 4, "velocity": 81}, {"time": 2177, "pitch": 60, "duration": 4, "velocity": 89}, {"time": 2180, "pitch": 64, "duration": 3, "velocity": 90}, {"time": 2183, "pitch": 57, "duration": 2, "velocity": 79}, {"time": 2192, "pitch": 43, "duration": 16, "velocity": 86}, {"time": 2192, "pitch": 55, "duration": 4, "velocity": 73}, {"time": 2192, "pitch": 59, "duration": 6, "velocity": 75}, {"time": 2195, "pitch": 50, "duration": 13, "velocity": 85}, {"time": 2198, "pitch": 55, "duration": 4, "velocity": 85}, {"time": 2201, "pitch": 59, "duration": 3, "velocity": 87}, {"time": 2204, "pitch": 62, "duration": 4, "velocity": 87}, {"time": 2207, "pitch": 55, "duration": 2, "velocity": 83}, {"time": 2216, "pitch": 45, "duration": 16, "velocity": 86}, {"time": 2216, "pitch": 57, "duration": 4, "velocity": 76}, {"time": 2216, "pitch": 60, "duration": 6, "velocity": 78}, {"time": 2219, "pitch": 52, "duration": 12, "velocity": 78}, {"time": 2222, "pitch": 57, "duration": 4, "velocity": 85}, {"time": 2225, "pitch": 60, "duration": 4, "velocity": 99}, {"time": 2228, "pitch": 64, "duration": 4, "velocity": 94}, {"time": 2231, "pitch": 60, "duration": 4, "velocity": 86}, {"time": 2234, "pitch": 57, "duration": 2, "velocity": 82}, {"time": 2240, "pitch": 41, "duration": 9, "velocity": 86}, {"time": 2240, "pitch": 53, "duration": 4, "velocity": 79}, {"time": 2240, "pitch": 57, "duration": 6, "velocity": 82}, {"time": 2243, "pitch": 48, "duration": 7, "velocity": 84}, {"time": 2246, "pitch": 53, "duration": 4, "velocity": 90}, {"time": 2249, "pitch": 57, "duration": 3, "velocity": 89}, {"time": 2252, "pitch": 43, "duration": 11, "velocity": 87}, {"time": 2252, "pitch": 55, "duration": 4, "velocity": 83}, {"time": 2252, "pitch": 59, "duration": 6, "velocity": 90}, {"time": 2255, "pitch": 50, "duration": 8, "velocity": 88}, {"time": 2258, "pitch": 55, "duration": 4, "velocity": 91}, {"time": 2261, "pitch": 59, "duration": 2, "velocity": 85}, {"time": 2264, "pitch": 41, "duration": 19, "velocity": 90}, {"time": 2264, "pitch": 53, "duration": 7, "velocity": 88}, {"time": 2264, "pitch": 57, "duration": 7, "velocity": 86}, {"time": 2270, "pitch": 48, "duration": 7, "velocity": 85}, {"time": 2276, "pitch": 53, "duration": 3, "velocity": 94}, {"time": 2276, "pitch": 60, "duration": 6, "velocity": 91}, {"time": 2279, "pitch": 48, "duration": 6, "velocity": 94}, {"time": 2282, "pitch": 53, "duration": 4, "velocity": 86}, {"time": 2285, "pitch": 57, "duration": 3, "velocity": 87}, {"time": 2288, "pitch": 43, "duration": 16, "velocity": 91}, {"time": 2288, "pitch": 55, "duration": 3, "velocity": 86}, {"time": 2288, "pitch": 59, "duration": 3, "velocity": 89}, {"time": 2291, "pitch": 50, "duration": 7, "velocity": 88}, {"time": 2294, "pitch": 55, "duration": 2, "velocity": 81}, {"time": 2297, "pitch": 55, "duration": 4, "velocity": 87}, {"time": 2297, "pitch": 59, "duration": 6, "velocity": 96}, {"time": 2297, "pitch": 62, "duration": 6, "velocity": 88}, {"time": 2297, "pitch": 67, "duration": 5, "velocity": 85}, {"time": 2300, "pitch": 50, "duration": 7, "velocity": 96}, {"time": 2303, "pitch": 55, "duration": 4, "velocity": 101}, {"time": 2306, "pitch": 59, "duration": 3, "velocity": 86}, {"time": 2312, "pitch": 45, "duration": 22, "velocity": 88}, {"time": 2312, "pitch": 57, "duration": 4, "velocity": 85}, {"time": 2312, "pitch": 60, "duration": 5, "velocity": 83}, {"time": 2318, "pitch": 57, "duration": 4, "velocity": 84}, {"time": 2324, "pitch": 57, "duration": 3, "velocity": 88}, {"time": 2324, "pitch": 60, "duration": 4, "velocity": 96}, {"time": 2324, "pitch": 64, "duration": 4, "velocity": 94}, {"time": 2327, "pitch": 52, "duration": 5, "velocity": 86}, {"time": 2330, "pitch": 57, "duration": 4, "velocity": 83}, {"time": 2333, "pitch": 60, "duration": 2, "velocity": 86}, {"time": 2336, "pitch": 45, "duration": 16, "velocity": 87}, {"time": 2336, "pitch": 57, "duration": 4, "velocity": 80}, {"time": 2336, "pitch": 60, "duration": 6, "velocity": 85}, {"time": 2339, "pitch": 52, "duration": 10, "velocity": 85}, {"time": 2342, "pitch": 57, "duration": 4, "velocity": 85}, {"time": 2345, "pitch": 60, "duration": 2, "velocity": 82}, {"time": 2348, "pitch": 57, "duration": 4, "velocity": 87}, {"time": 2348, "pitch": 60, "duration": 4, "velocity": 96}, {"time": 2348, "pitch": 64, "duration": 4, "velocity": 94}, {"time": 2351, "pitch": 52, "duration": 2, "velocity": 91}, {"time": 2354, "pitch": 45, "duration": 2, "velocity": 86}, {"time": 2360, "pitch": 40, "duration": 16, "velocity": 88}, {"time": 2360, "pitch": 59, "duration": 3, "velocity": 86}, {"time": 2360, "pitch": 67, "duration": 7, "velocity": 83}, {"time": 2363, "pitch": 47, "duration": 11, "velocity": 81}, {"time": 2366, "pitch": 59, "duration": 4, "velocity": 87}, {"time": 2369, "pitch": 64, "duration": 2, "velocity": 88}, {"time": 2372, "pitch": 59, "duration": 4, "velocity": 92}, {"time": 2372, "pitch": 64, "duration": 6, "velocity": 96}, {"time": 2372, "pitch": 67, "duration": 7, "velocity": 88}, {"time": 2375, "pitch": 47, "duration": 3, "velocity": 81}, {"time": 2378, "pitch": 40, "duration": 2, "velocity": 87}, {"time": 2384, "pitch": 45, "duration": 17, "velocity": 87}, {"time": 2384, "pitch": 57, "duration": 4, "velocity": 85}, {"time": 2384, "pitch": 60, "duration": 6, "velocity": 85}, {"time": 2387, "pitch": 52, "duration": 10, "velocity": 85}, {"time": 2390, "pitch": 57, "duration": 4, "velocity": 85}, {"time": 2393, "pitch": 60, "duration": 2, "velocity": 82}, {"time": 2396, "pitch": 57, "duration": 3, "velocity": 86}, {"time": 2396, "pitch": 64, "duration": 4, "velocity": 88}, {"time": 2399, "pitch": 52, "duration": 3, "velocity": 90}, {"time": 2402, "pitch": 57, "duration": 2, "velocity": 87}, {"time": 2408, "pitch": 50, "duration": 16, "velocity": 94}, {"time": 2408, "pitch": 65, "duration": 7, "velocity": 88}, {"time": 2411, "pitch": 53, "duration": 8, "velocity": 76}, {"time": 2414, "pitch": 57, "duration": 4, "velocity": 91}, {"time": 2417, "pitch": 62, "duration": 7, "velocity": 81}, {"time": 2420, "pitch": 53, "duration": 6, "velocity": 85}, {"time": 2423, "pitch": 57, "duration": 4, "velocity": 90}, {"time": 2426, "pitch": 62, "duration": 4, "velocity": 91}, {"time": 2429, "pitch": 57, "duration": 2, "velocity": 76}, {"time": 2432, "pitch": 43, "duration": 20, "velocity": 86}, {"time": 2432, "pitch": 62, "duration": 7, "velocity": 89}, {"time": 2435, "pitch": 50, "duration": 17, "velocity": 82}, {"time": 2438, "pitch": 55, "duration": 5, "velocity": 83}, {"time": 2441, "pitch": 59, "duration": 3, "velocity": 88}, {"time": 2444, "pitch": 62, "duration": 4, "velocity": 91}, {"time": 2447, "pitch": 55, "duration": 4, "velocity": 87}, {"time": 2450, "pitch": 59, "duration": 3, "velocity": 88}, {"time": 2456, "pitch": 45, "duration": 22, "velocity": 86}, {"time": 2456, "pitch": 57, "duration": 8, "velocity": 79}, {"time": 2456, "pitch": 60, "duration": 7, "velocity": 80}, {"time": 2462, "pitch": 52, "duration": 7, "velocity": 86}, {"time": 2468, "pitch": 64, "duration": 4, "velocity": 89}, {"time": 2471, "pitch": 52, "duration": 6, "velocity": 86}, {"time": 2474, "pitch": 57, "duration": 3, "velocity": 76}, {"time": 2474, "pitch": 60, "duration": 4, "velocity": 86}, {"time": 2477, "pitch": 59, "duration": 4, "velocity": 78}, {"time": 2480, "pitch": 45, "duration": 24, "velocity": 86}, {"time": 2480, "pitch": 57, "duration": 23, "velocity": 83}, {"time": 2486, "pitch": 52, "duration": 18, "velocity": 71}, {"time": 2492, "pitch": 69, "duration": 11, "velocity": 81}, {"time": 2504, "pitch": 45, "duration": 23, "velocity": 87}, {"time": 2510, "pitch": 52, "duration": 17, "velocity": 83}, {"time": 2516, "pitch": 64, "duration": 7, "velocity": 94}, {"time": 2519, "pitch": 57, "duration": 4, "velocity": 81}, {"time": 2522, "pitch": 69, "duration": 6, "velocity": 86}, {"time": 2525, "pitch": 57, "duration": 4, "velocity": 76}, {"time": 2528, "pitch": 41, "duration": 1, "velocity": 85}, {"time": 2528, "pitch": 43, "duration": 21, "velocity": 84}, {"time": 2534, "pitch": 50, "duration": 8, "velocity": 82}, {"time": 2540, "pitch": 62, "duration": 9, "velocity": 87}, {"time": 2543, "pitch": 50, "duration": 7, "velocity": 85}, {"time": 2546, "pitch": 55, "duration": 4, "velocity": 83}, {"time": 2552, "pitch": 45, "duration": 22, "velocity": 87}, {"time": 2552, "pitch": 57, "duration": 9, "velocity": 81}, {"time": 2552, "pitch": 60, "duration": 8, "velocity": 72}, {"time": 2558, "pitch": 52, "duration": 8, "velocity": 79}, {"time": 2564, "pitch": 64, "duration": 5, "velocity": 96}, {"time": 2567, "pitch": 52, "duration": 8, "velocity": 82}, {"time": 2570, "pitch": 60, "duration": 4, "velocity": 87}, {"time": 2573, "pitch": 59, "duration": 4, "velocity": 87}, {"time": 2576, "pitch": 45, "duration": 21, "velocity": 86}, {"time": 2576, "pitch": 57, "duration": 16, "velocity": 86}, {"time": 2582, "pitch": 52, "duration": 14, "velocity": 84}, {"time": 2588, "pitch": 69, "duration": 5, "velocity": 89}, {"time": 2591, "pitch": 64, "duration": 4, "velocity": 85}, {"time": 2594, "pitch": 60, "duration": 3, "velocity": 84}, {"time": 2597, "pitch": 57, "duration": 3, "velocity": 81}, {"time": 2600, "pitch": 50, "duration": 15, "velocity": 87}, {"time": 2600, "pitch": 62, "duration": 7, "velocity": 89}, {"time": 2606, "pitch": 57, "duration": 8, "velocity": 79}, {"time": 2612, "pitch": 65, "duration": 4, "velocity": 91}, {"time": 2615, "pitch": 57, "duration": 3, "velocity": 85}, {"time": 2618, "pitch": 62, "duration": 3, "velocity": 80}, {"time": 2621, "pitch": 57, "duration": 2, "velocity": 70}, {"time": 2624, "pitch": 43, "duration": 18, "velocity": 85}, {"time": 2624, "pitch": 55, "duration": 10, "velocity": 82}, {"time": 2624, "pitch": 59, "duration": 10, "velocity": 87}, {"time": 2630, "pitch": 50, "duration": 9, "velocity": 81}, {"time": 2636, "pitch": 59, "duration": 8, "velocity": 86}, {"time": 2636, "pitch": 62, "duration": 7, "velocity": 80}, {"time": 2642, "pitch": 55, "duration": 5, "velocity": 81}, {"time": 2648, "pitch": 48, "duration": 18, "velocity": 86}, {"time": 2648, "pitch": 64, "duration": 13, "velocity": 91}, {"time": 2654, "pitch": 55, "duration": 7, "velocity": 79}, {"time": 2660, "pitch": 60, "duration": 4, "velocity": 85}, {"time": 2663, "pitch": 55, "duration": 4, "velocity": 84}, {"time": 2666, "pitch": 62, "duration": 4, "velocity": 87}, {"time": 2669, "pitch": 55, "duration": 3, "velocity": 83}, {"time": 2672, "pitch": 40, "duration": 16, "velocity": 90}, {"time": 2672, "pitch": 64, "duration": 9, "velocity": 88}, {"time": 2675, "pitch": 47, "duration": 13, "velocity": 72}, {"time": 2678, "pitch": 52, "duration": 3, "velocity": 87}, {"time": 2681, "pitch": 56, "duration": 2, "velocity": 87}, {"time": 2684, "pitch": 59, "duration": 4, "velocity": 86}, {"time": 2687, "pitch": 62, "duration": 4, "velocity": 89}, {"time": 2690, "pitch": 64, "duration": 3, "velocity": 87}, {"time": 2696, "pitch": 45, "duration": 22, "velocity": 86}, {"time": 2696, "pitch": 64, "duration": 6, "velocity": 85}, {"time": 2699, "pitch": 52, "duration": 19, "velocity": 79}, {"time": 2702, "pitch": 57, "duration": 4, "velocity": 82}, {"time": 2705, "pitch": 60, "duration": 3, "velocity": 80}, {"time": 2708, "pitch": 64, "duration": 4, "velocity": 94}, {"time": 2711, "pitch": 57, "duration": 4, "velocity": 80}, {"time": 2714, "pitch": 60, "duration": 3, "velocity": 81}, {"time": 2717, "pitch": 57, "duration": 2, "velocity": 70}, {"time": 2720, "pitch": 50, "duration": 19, "velocity": 86}, {"time": 2720, "pitch": 65, "duration": 11, "velocity": 87}, {"time": 2726, "pitch": 57, "duration": 6, "velocity": 83}, {"time": 2732, "pitch": 62, "duration": 3, "velocity": 86}, {"time": 2735, "pitch": 57, "duration": 2, "velocity": 86}, {"time": 2738, "pitch": 60, "duration": 4, "velocity": 87}, {"time": 2744, "pitch": 43, "duration": 43, "velocity": 86}, {"time": 2744, "pitch": 55, "duration": 7, "velocity": 85}, {"time": 2744, "pitch": 59, "duration": 9, "velocity": 83}, {"time": 2750, "pitch": 50, "duration": 34, "velocity": 80}, {"time": 2753, "pitch": 55, "duration": 3, "velocity": 85}, {"time": 2756, "pitch": 62, "duration": 4, "velocity": 86}, {"time": 2759, "pitch": 55, "duration": 4, "velocity": 86}, {"time": 2762, "pitch": 62, "duration": 7, "velocity": 80}, {"time": 2765, "pitch": 55, "duration": 4, "velocity": 79}, {"time": 2768, "pitch": 67, "duration": 10, "velocity": 85}, {"time": 2771, "pitch": 55, "duration": 4, "velocity": 82}, {"time": 2774, "pitch": 62, "duration": 4, "velocity": 77}, {"time": 2780, "pitch": 55, "duration": 6, "velocity": 81}, {"time": 2780, "pitch": 59, "duration": 6, "velocity": 77}, {"time": 2786, "pitch": 50, "duration": 5, "velocity": 88}, {"time": 2792, "pitch": 41, "duration": 19, "velocity": 85}, {"time": 2792, "pitch": 53, "duration": 6, "velocity": 78}, {"time": 2792, "pitch": 57, "duration": 7, "velocity": 77}, {"time": 2795, "pitch": 48, "duration": 15, "velocity": 80}, {"time": 2798, "pitch": 60, "duration": 7, "velocity": 85}, {"time": 2801, "pitch": 53, "duration": 4, "velocity": 79}, {"time": 2804, "pitch": 65, "duration": 8, "velocity": 87}, {"time": 2807, "pitch": 53, "duration": 4, "velocity": 87}, {"time": 2810, "pitch": 60, "duration": 3, "velocity": 80}, {"time": 2816, "pitch": 43, "duration": 20, "velocity": 86}, {"time": 2816, "pitch": 55, "duration": 4, "velocity": 80}, {"time": 2816, "pitch": 59, "duration": 7, "velocity": 80}, {"time": 2819, "pitch": 50, "duration": 11, "velocity": 80}, {"time": 2822, "pitch": 55, "duration": 7, "velocity": 86}, {"time": 2828, "pitch": 62, "duration": 5, "velocity": 87}, {"time": 2831, "pitch": 50, "duration": 5, "velocity": 81}, {"time": 2834, "pitch": 60, "duration": 3, "velocity": 91}, {"time": 2837, "pitch": 59, "duration": 4, "velocity": 85}, {"time": 2840, "pitch": 45, "duration": 23, "velocity": 85}, {"time": 2840, "pitch": 57, "duration": 6, "velocity": 86}, {"time": 2846, "pitch": 60, "duration": 4, "velocity": 86}, {"time": 2852, "pitch": 57, "duration": 5, "velocity": 86}, {"time": 2852, "pitch": 60, "duration": 5, "velocity": 92}, {"time": 2852, "pitch": 64, "duration": 4, "velocity": 94}, {"time": 2858, "pitch": 52, "duration": 5, "velocity": 85}, {"time": 2864, "pitch": 45, "duration": 24, "velocity": 94}, {"time": 2864, "pitch": 57, "duration": 1, "velocity": 56}, {"time": 2864, "pitch": 60, "duration": 4, "velocity": 79}, {"time": 2864, "pitch": 64, "duration": 3, "velocity": 83}, {"time": 2864, "pitch": 69, "duration": 6, "velocity": 86}, {"time": 2870, "pitch": 52, "duration": 18, "velocity": 88}, {"time": 2876, "pitch": 69, "duration": 2, "velocity": 86}, {"time": 2876, "pitch": 72, "duration": 3, "velocity": 94}, {"time": 2879, "pitch": 71, "duration": 3, "velocity": 87}, {"time": 2882, "pitch": 69, "duration": 6, "velocity": 89}, {"time": 2888, "pitch": 45, "duration": 19, "velocity": 88}, {"time": 2888, "pitch": 57, "duration": 4, "velocity": 83}, {"time": 2888, "pitch": 60, "duration": 6, "velocity": 86}, {"time": 2891, "pitch": 52, "duration": 11, "velocity": 76}, {"time": 2894, "pitch": 57, "duration": 4, "velocity": 88}, {"time": 2897, "pitch": 60, "duration": 3, "velocity": 96}, {"time": 2900, "pitch": 64, "duration": 4, "velocity": 101}, {"time": 2903, "pitch": 52, "duration": 4, "velocity": 86}, {"time": 2906, "pitch": 57, "duration": 5, "velocity": 91}, {"time": 2909, "pitch": 60, "duration": 7, "velocity": 94}, {"time": 2912, "pitch": 41, "duration": 18, "velocity": 86}, {"time": 2915, "pitch": 48, "duration": 11, "velocity": 79}, {"time": 2918, "pitch": 53, "duration": 5, "velocity": 86}, {"time": 2921, "pitch": 57, "duration": 3, "velocity": 87}, {"time": 2924, "pitch": 60, "duration": 6, "velocity": 99}, {"time": 2927, "pitch": 48, "duration": 4, "velocity": 85}, {"time": 2930, "pitch": 53, "duration": 4, "velocity": 87}, {"time": 2936, "pitch": 40, "duration": 16, "velocity": 89}, {"time": 2939, "pitch": 47, "duration": 10, "velocity": 85}, {"time": 2942, "pitch": 52, "duration": 4, "velocity": 85}, {"time": 2945, "pitch": 55, "duration": 2, "velocity": 85}, {"time": 2948, "pitch": 52, "duration": 4, "velocity": 89}, {"time": 2948, "pitch": 59, "duration": 7, "velocity": 89}, {"time": 2951, "pitch": 47, "duration": 2, "velocity": 90}, {"time": 2954, "pitch": 52, "duration": 4, "velocity": 94}, {"time": 2957, "pitch": 55, "duration": 3, "velocity": 85}, {"time": 2960, "pitch": 45, "duration": 20, "velocity": 87}, {"time": 2960, "pitch": 57, "duration": 5, "velocity": 81}, {"time": 2963, "pitch": 52, "duration": 11, "velocity": 79}, {"time": 2966, "pitch": 57, "duration": 4, "velocity": 89}, {"time": 2972, "pitch": 57, "duration": 4, "velocity": 89}, {"time": 2972, "pitch": 60, "duration": 4, "velocity": 99}, {"time": 2972, "pitch": 64, "duration": 5, "velocity": 94}, {"time": 2975, "pitch": 52, "duration": 4, "velocity": 87}, {"time": 2978, "pitch": 57, "duration": 4, "velocity": 86}, {"time": 2981, "pitch": 60, "duration": 3, "velocity": 85}, {"time": 2984, "pitch": 50, "duration": 15, "velocity": 88}, {"time": 2984, "pitch": 65, "duration": 6, "velocity": 86}, {"time": 2987, "pitch": 53, "duration": 11, "velocity": 78}, {"time": 2990, "pitch": 57, "duration": 4, "velocity": 85}, {"time": 2993, "pitch": 62, "duration": 2, "velocity": 84}, {"time": 2996, "pitch": 65, "duration": 7, "velocity": 96}, {"time": 2999, "pitch": 57, "duration": 3, "velocity": 87}, {"time": 3002, "pitch": 62, "duration": 3, "velocity": 89}, {"time": 3005, "pitch": 57, "duration": 3, "velocity": 77}, {"time": 3008, "pitch": 43, "duration": 23, "velocity": 86}, {"time": 3008, "pitch": 62, "duration": 6, "velocity": 85}, {"time": 3011, "pitch": 50, "duration": 19, "velocity": 77}, {"time": 3014, "pitch": 55, "duration": 4, "velocity": 86}, {"time": 3017, "pitch": 59, "duration": 3, "velocity": 85}, {"time": 3020, "pitch": 62, "duration": 3, "velocity": 96}, {"time": 3023, "pitch": 55, "duration": 4, "velocity": 85}, {"time": 3026, "pitch": 62, "duration": 3, "velocity": 85}, {"time": 3029, "pitch": 55, "duration": 3, "velocity": 81}, {"time": 3032, "pitch": 48, "duration": 18, "velocity": 87}, {"time": 3032, "pitch": 60, "duration": 7, "velocity": 90}, {"time": 3035, "pitch": 52, "duration": 15, "velocity": 86}, {"time": 3038, "pitch": 55, "duration": 4, "velocity": 91}, {"time": 3041, "pitch": 60, "duration": 4, "velocity": 85}, {"time": 3044, "pitch": 62, "duration": 3, "velocity": 87}, {"time": 3047, "pitch": 60, "duration": 3, "velocity": 89}, {"time": 3050, "pitch": 55, "duration": 4, "velocity": 88}, {"time": 3053, "pitch": 60, "duration": 3, "velocity": 82}, {"time": 3056, "pitch": 40, "duration": 17, "velocity": 89}, {"time": 3056, "pitch": 64, "duration": 6, "velocity": 88}, {"time": 3059, "pitch": 47, "duration": 10, "velocity": 81}, {"time": 3062, "pitch": 59, "duration": 2, "velocity": 87}, {"time": 3065, "pitch": 59, "duration": 2, "velocity": 85}, {"time": 3065, "pitch": 64, "duration": 2, "velocity": 85}, {"time": 3068, "pitch": 59, "duration": 4, "velocity": 94}, {"time": 3068, "pitch": 64, "duration": 4, "velocity": 99}, {"time": 3071, "pitch": 47, "duration": 3, "velocity": 101}, {"time": 3074, "pitch": 59, "duration": 2, "velocity": 87}, {"time": 3074, "pitch": 62, "duration": 2, "velocity": 86}, {"time": 3080, "pitch": 45, "duration": 21, "velocity": 86}, {"time": 3080, "pitch": 57, "duration": 4, "velocity": 85}, {"time": 3080, "pitch": 60, "duration": 6, "velocity": 85}, {"time": 3083, "pitch": 52, "duration": 17, "velocity": 86}, {"time": 3086, "pitch": 57, "duration": 5, "velocity": 87}, {"time": 3089, "pitch": 60, "duration": 3, "velocity": 82}, {"time": 3092, "pitch": 64, "duration": 4, "velocity": 96}, {"time": 3095, "pitch": 57, "duration": 4, "velocity": 87}, {"time": 3098, "pitch": 60, "duration": 4, "velocity": 87}, {"time": 3101, "pitch": 57, "duration": 4, "velocity": 76}, {"time": 3104, "pitch": 41, "duration": 18, "velocity": 88}, {"time": 3104, "pitch": 60, "duration": 8, "velocity": 90}, {"time": 3107, "pitch": 48, "duration": 14, "velocity": 81}, {"time": 3110, "pitch": 53, "duration": 8, "velocity": 86}, {"time": 3113, "pitch": 57, "duration": 5, "velocity": 86}, {"time": 3116, "pitch": 65, "duration": 6, "velocity": 92}, {"time": 3119, "pitch": 60, "duration": 4, "velocity": 87}, {"time": 3122, "pitch": 57, "duration": 4, "velocity": 86}, {"time": 3125, "pitch": 53, "duration": 2, "velocity": 86}, {"time": 3128, "pitch": 40, "duration": 19, "velocity": 87}, {"time": 3128, "pitch": 52, "duration": 5, "velocity": 90}, {"time": 3128, "pitch": 55, "duration": 7, "velocity": 86}, {"time": 3131, "pitch": 47, "duration": 15, "velocity": 83}, {"time": 3134, "pitch": 59, "duration": 6, "velocity": 88}, {"time": 3137, "pitch": 52, "duration": 3, "velocity": 86}, {"time": 3140, "pitch": 64, "duration": 7, "velocity": 96}, {"time": 3143, "pitch": 52, "duration": 4, "velocity": 91}, {"time": 3146, "pitch": 59, "duration": 3, "velocity": 87}, {"time": 3149, "pitch": 52, "duration": 2, "velocity": 86}, {"time": 3152, "pitch": 45, "duration": 22, "velocity": 85}, {"time": 3152, "pitch": 60, "duration": 7, "velocity": 86}, {"time": 3155, "pitch": 52, "duration": 11, "velocity": 84}, {"time": 3158, "pitch": 57, "duration": 4, "velocity": 86}, {"time": 3161, "pitch": 60, "duration": 2, "velocity": 80}, {"time": 3164, "pitch": 57, "duration": 3, "velocity": 91}, {"time": 3164, "pitch": 64, "duration": 4, "velocity": 91}, {"time": 3167, "pitch": 52, "duration": 7, "velocity": 88}, {"time": 3170, "pitch": 57, "duration": 4, "velocity": 86}, {"time": 3173, "pitch": 60, "duration": 3, "velocity": 83}, {"time": 3176, "pitch": 50, "duration": 16, "velocity": 94}, {"time": 3176, "pitch": 62, "duration": 6, "velocity": 87}, {"time": 3179, "pitch": 53, "duration": 13, "velocity": 74}, {"time": 3182, "pitch": 57, "duration": 5, "velocity": 87}, {"time": 3185, "pitch": 62, "duration": 4, "velocity": 84}, {"time": 3188, "pitch": 65, "duration": 7, "velocity": 91}, {"time": 3191, "pitch": 57, "duration": 4, "velocity": 81}, {"time": 3194, "pitch": 62, "duration": 3, "velocity": 86}, {"time": 3197, "pitch": 57, "duration": 2, "velocity": 85}, {"time": 3200, "pitch": 43, "duration": 21, "velocity": 85}, {"time": 3200, "pitch": 62, "duration": 7, "velocity": 87}, {"time": 3203, "pitch": 50, "duration": 14, "velocity": 81}, {"time": 3206, "pitch": 55, "duration": 4, "velocity": 85}, {"time": 3209, "pitch": 59, "duration": 2, "velocity": 85}, {"time": 3212, "pitch": 62, "duration": 4, "velocity": 91}, {"time": 3215, "pitch": 55, "duration": 4, "velocity": 85}, {"time": 3218, "pitch": 59, "duration": 3, "velocity": 87}, {"time": 3221, "pitch": 55, "duration": 3, "velocity": 87}, {"time": 3224, "pitch": 45, "duration": 46, "velocity": 83}, {"time": 3224, "pitch": 57, "duration": 8, "velocity": 78}, {"time": 3224, "pitch": 60, "duration": 9, "velocity": 80}, {"time": 3230, "pitch": 52, "duration": 21, "velocity": 72}, {"time": 3236, "pitch": 57, "duration": 3, "velocity": 85}, {"time": 3236, "pitch": 64, "duration": 8, "velocity": 85}, {"time": 3242, "pitch": 57, "duration": 4, "velocity": 69}, {"time": 3248, "pitch": 57, "duration": 8, "velocity": 77}, {"time": 3248, "pitch": 60, "duration": 8, "velocity": 80}, {"time": 3254, "pitch": 52, "duration": 13, "velocity": 73}, {"time": 3260, "pitch": 57, "duration": 3, "velocity": 85}, {"time": 3260, "pitch": 60, "duration": 6, "velocity": 88}, {"time": 3260, "pitch": 64, "duration": 7, "velocity": 86}, {"time": 3272, "pitch": 50, "duration": 22, "velocity": 88}, {"time": 3272, "pitch": 57, "duration": 2, "velocity": 86}, {"time": 3272, "pitch": 62, "duration": 4, "velocity": 92}, {"time": 3272, "pitch": 65, "duration": 5, "velocity": 89}, {"time": 3275, "pitch": 57, "duration": 3, "velocity": 85}, {"time": 3278, "pitch": 62, "duration": 3, "velocity": 85}, {"time": 3281, "pitch": 57, "duration": 2, "velocity": 86}, {"time": 3284, "pitch": 57, "duration": 2, "velocity": 94}, {"time": 3284, "pitch": 62, "duration": 3, "velocity": 101}, {"time": 3284, "pitch": 65, "duration": 4, "velocity": 99}, {"time": 3287, "pitch": 57, "duration": 2, "velocity": 88}, {"time": 3290, "pitch": 62, "duration": 3, "velocity": 92}, {"time": 3293, "pitch": 57, "duration": 2, "velocity": 86}, {"time": 3296, "pitch": 45, "duration": 11, "velocity": 89}, {"time": 3296, "pitch": 57, "duration": 2, "velocity": 86}, {"time": 3296, "pitch": 60, "duration": 4, "velocity": 90}, {"time": 3299, "pitch": 57, "duration": 2, "velocity": 84}, {"time": 3302, "pitch": 60, "duration": 4, "velocity": 80}, {"time": 3305, "pitch": 57, "duration": 2, "velocity": 86}, {"time": 3308, "pitch": 45, "duration": 5, "velocity": 88}, {"time": 3308, "pitch": 52, "duration": 4, "velocity": 85}, {"time": 3308, "pitch": 57, "duration": 2, "velocity": 86}, {"time": 3308, "pitch": 60, "duration": 3, "velocity": 92}, {"time": 3308, "pitch": 64, "duration": 5, "velocity": 89}, {"time": 3311, "pitch": 57, "duration": 4, "velocity": 86}, {"time": 3314, "pitch": 60, "duration": 2, "velocity": 91}, {"time": 3320, "pitch": 40, "duration": 11, "velocity": 92}, {"time": 3320, "pitch": 59, "duration": 2, "velocity": 88}, {"time": 3320, "pitch": 64, "duration": 4, "velocity": 87}, {"time": 3323, "pitch": 59, "duration": 2, "velocity": 79}, {"time": 3326, "pitch": 64, "duration": 2, "velocity": 88}, {"time": 3329, "pitch": 59, "duration": 2, "velocity": 85}, {"time": 3332, "pitch": 40, "duration": 10, "velocity": 99}, {"time": 3332, "pitch": 59, "duration": 2, "velocity": 88}, {"time": 3332, "pitch": 68, "duration": 3, "velocity": 89}, {"time": 3335, "pitch": 59, "duration": 3, "velocity": 88}, {"time": 3338, "pitch": 64, "duration": 3, "velocity": 83}, {"time": 3341, "pitch": 59, "duration": 3, "velocity": 88}, {"time": 3344, "pitch": 40, "duration": 10, "velocity": 96}, {"time": 3344, "pitch": 59, "duration": 2, "velocity": 82}, {"time": 3344, "pitch": 64, "duration": 4, "velocity": 94}, {"time": 3344, "pitch": 68, "duration": 4, "velocity": 92}, {"time": 3347, "pitch": 59, "duration": 3, "velocity": 88}, {"time": 3350, "pitch": 64, "duration": 2, "velocity": 88}, {"time": 3353, "pitch": 59, "duration": 2, "velocity": 89}, {"time": 3356, "pitch": 40, "duration": 6, "velocity": 99}, {"time": 3356, "pitch": 59, "duration": 2, "velocity": 91}, {"time": 3356, "pitch": 64, "duration": 3, "velocity": 99}, {"time": 3356, "pitch": 68, "duration": 5, "velocity": 92}, {"time": 3359, "pitch": 59, "duration": 3, "velocity": 89}, {"time": 3362, "pitch": 64, "duration": 3, "velocity": 84}, {"time": 3365, "pitch": 59, "duration": 2, "velocity": 82}, {"time": 3368, "pitch": 38, "duration": 11, "velocity": 90}, {"time": 3368, "pitch": 62, "duration": 4, "velocity": 86}, {"time": 3368, "pitch": 65, "duration": 4, "velocity": 89}, {"time": 3371, "pitch": 57, "duration": 2, "velocity": 81}, {"time": 3374, "pitch": 62, "duration": 2, "velocity": 86}, {"time": 3377, "pitch": 57, "duration": 2, "velocity": 86}, {"time": 3380, "pitch": 38, "duration": 4, "velocity": 89}, {"time": 3380, "pitch": 62, "duration": 4, "velocity": 88}, {"time": 3380, "pitch": 65, "duration": 4, "velocity": 90}, {"time": 3383, "pitch": 57, "duration": 2, "velocity": 88}, {"time": 3386, "pitch": 62, "duration": 3, "velocity": 90}, {"time": 3386, "pitch": 65, "duration": 3, "velocity": 85}, {"time": 3389, "pitch": 57, "duration": 2, "velocity": 87}, {"time": 3392, "pitch": 43, "duration": 22, "velocity": 87}, {"time": 3392, "pitch": 55, "duration": 2, "velocity": 86}, {"time": 3392, "pitch": 59, "duration": 4, "velocity": 86}, {"time": 3395, "pitch": 50, "duration": 20, "velocity": 77}, {"time": 3395, "pitch": 55, "duration": 2, "velocity": 86}, {"time": 3398, "pitch": 59, "duration": 3, "velocity": 90}, {"time": 3398, "pitch": 62, "duration": 2, "velocity": 89}, {"time": 3401, "pitch": 55, "duration": 2, "velocity": 85}, {"time": 3404, "pitch": 59, "duration": 4, "velocity": 94}, {"time": 3404, "pitch": 62, "duration": 4, "velocity": 92}, {"time": 3407, "pitch": 55, "duration": 2, "velocity": 90}, {"time": 3410, "pitch": 59, "duration": 2, "velocity": 88}, {"time": 3410, "pitch": 62, "duration": 2, "velocity": 87}, {"time": 3413, "pitch": 55, "duration": 2, "velocity": 91}, {"time": 3416, "pitch": 45, "duration": 9, "velocity": 88}, {"time": 3416, "pitch": 57, "duration": 2, "velocity": 91}, {"time": 3416, "pitch": 60, "duration": 4, "velocity": 92}, {"time": 3422, "pitch": 57, "duration": 2, "velocity": 88}, {"time": 3422, "pitch": 60, "duration": 3, "velocity": 92}, {"time": 3428, "pitch": 45, "duration": 10, "velocity": 89}, {"time": 3428, "pitch": 52, "duration": 10, "velocity": 99}, {"time": 3428, "pitch": 57, "duration": 1, "velocity": 87}, {"time": 3428, "pitch": 60, "duration": 2, "velocity": 90}, {"time": 3428, "pitch": 64, "duration": 2, "velocity": 90}, {"time": 3431, "pitch": 57, "duration": 2, "velocity": 96}, {"time": 3437, "pitch": 57, "duration": 4, "velocity": 88}, {"time": 3437, "pitch": 60, "duration": 4, "velocity": 99}, {"time": 3437, "pitch": 64, "duration": 4, "velocity": 96}, {"time": 3437, "pitch": 69, "duration": 4, "velocity": 86}, {"time": 3440, "pitch": 45, "duration": 11, "velocity": 86}, {"time": 3443, "pitch": 57, "duration": 3, "velocity": 89}, {"time": 3443, "pitch": 60, "duration": 4, "velocity": 106}, {"time": 3443, "pitch": 64, "duration": 4, "velocity": 94}, {"time": 3443, "pitch": 69, "duration": 4, "velocity": 88}, {"time": 3446, "pitch": 52, "duration": 6, "velocity": 86}, {"time": 3449, "pitch": 57, "duration": 2, "velocity": 87}, {"time": 3452, "pitch": 45, "duration": 12, "velocity": 90}, {"time": 3452, "pitch": 57, "duration": 1, "velocity": 88}, {"time": 3452, "pitch": 60, "duration": 4, "velocity": 99}, {"time": 3452, "pitch": 64, "duration": 4, "velocity": 96}, {"time": 3452, "pitch": 69, "duration": 4, "velocity": 87}, {"time": 3455, "pitch": 52, "duration": 9, "velocity": 87}, {"time": 3455, "pitch": 57, "duration": 2, "velocity": 86}, {"time": 3458, "pitch": 60, "duration": 4, "velocity": 92}, {"time": 3458, "pitch": 67, "duration": 3, "velocity": 86}, {"time": 3461, "pitch": 57, "duration": 2, "velocity": 91}, {"time": 3464, "pitch": 45, "duration": 19, "velocity": 88}, {"time": 3464, "pitch": 57, "duration": 4, "velocity": 83}, {"time": 3464, "pitch": 60, "duration": 6, "velocity": 86}, {"time": 3467, "pitch": 52, "duration": 11, "velocity": 76}, {"time": 3470, "pitch": 57, "duration": 4, "velocity": 88}, {"time": 3473, "pitch": 60, "duration": 3, "velocity": 96}, {"time": 3476, "pitch": 64, "duration": 4, "velocity": 101}, {"time": 3479, "pitch": 52, "duration": 4, "velocity": 86}, {"time": 3482, "pitch": 57, "duration": 5, "velocity": 91}, {"time": 3485, "pitch": 60, "duration": 7, "velocity": 94}, {"time": 3488, "pitch": 41, "duration": 18, "velocity": 86}, {"time": 3491, "pitch": 48, "duration": 11, "velocity": 79}, {"time": 3494, "pitch": 53, "duration": 5, "velocity": 86}, {"time": 3497, "pitch": 57, "duration": 3, "velocity": 87}, {"time": 3500, "pitch": 60, "duration": 6, "velocity": 99}, {"time": 3503, "pitch": 48, "duration": 4, "velocity": 85}, {"time": 3506, "pitch": 53, "duration": 4, "velocity": 87}, {"time": 3512, "pitch": 40, "duration": 16, "velocity": 89}, {"time": 3515, "pitch": 47, "duration": 10, "velocity": 85}, {"time": 3518, "pitch": 52, "duration": 4, "velocity": 85}, {"time": 3521, "pitch": 55, "duration": 2, "velocity": 85}, {"time": 3524, "pitch": 52, "duration": 4, "velocity": 89}, {"time": 3524, "pitch": 59, "duration": 7, "velocity": 89}, {"time": 3527, "pitch": 47, "duration": 2, "velocity": 90}, {"time": 3530, "pitch": 52, "duration": 4, "velocity": 94}, {"time": 3533, "pitch": 55, "duration": 3, "velocity": 85}, {"time": 3536, "pitch": 45, "duration": 20, "velocity": 87}, {"time": 3536, "pitch": 57, "duration": 5, "velocity": 81}, {"time": 3539, "pitch": 52, "duration": 11, "velocity": 79}, {"time": 3542, "pitch": 57, "duration": 4, "velocity": 89}, {"time": 3548, "pitch": 57, "duration": 4, "velocity": 89}, {"time": 3548, "pitch": 60, "duration": 4, "velocity": 99}, {"time": 3548, "pitch": 64, "duration": 5, "velocity": 94}, {"time": 3551, "pitch": 52, "duration": 4, "velocity": 87}, {"time": 3554, "pitch": 57, "duration": 4, "velocity": 86}, {"time": 3557, "pitch": 60, "duration": 3, "velocity": 85}, {"time": 3560, "pitch": 50, "duration": 15, "velocity": 88}, {"time": 3560, "pitch": 65, "duration": 6, "velocity": 86}, {"time": 3563, "pitch": 53, "duration": 11, "velocity": 78}, {"time": 3566, "pitch": 57, "duration": 4, "velocity": 85}, {"time": 3569, "pitch": 62, "duration": 2, "velocity": 84}, {"time": 3572, "pitch": 65, "duration": 7, "velocity": 96}, {"time": 3575, "pitch": 57, "duration": 3, "velocity": 87}, {"time": 3578, "pitch": 62, "duration": 3, "velocity": 89}, {"time": 3581, "pitch": 57, "duration": 3, "velocity": 77}, {"time": 3584, "pitch": 43, "duration": 23, "velocity": 86}, {"time": 3584, "pitch": 62, "duration": 6, "velocity": 85}, {"time": 3587, "pitch": 50, "duration": 19, "velocity": 77}, {"time": 3590, "pitch": 55, "duration": 4, "velocity": 86}, {"time": 3593, "pitch": 59, "duration": 3, "velocity": 85}, {"time": 3596, "pitch": 62, "duration": 3, "velocity": 96}, {"time": 3599, "pitch": 55, "duration": 4, "velocity": 85}, {"time": 3602, "pitch": 62, "duration": 3, "velocity": 85}, {"time": 3605, "pitch": 55, "duration": 3, "velocity": 81}, {"time": 3608, "pitch": 48, "duration": 18, "velocity": 87}, {"time": 3608, "pitch": 60, "duration": 7, "velocity": 90}, {"time": 3611, "pitch": 52, "duration": 15, "velocity": 86}, {"time": 3614, "pitch": 55, "duration": 4, "velocity": 91}, {"time": 3617, "pitch": 60, "duration": 4, "velocity": 85}, {"time": 3620, "pitch": 62, "duration": 3, "velocity": 87}, {"time": 3623, "pitch": 60, "duration": 3, "velocity": 89}, {"time": 3626, "pitch": 55, "duration": 4, "velocity": 88}, {"time": 3629, "pitch": 60, "duration": 3, "velocity": 82}, {"time": 3632, "pitch": 40, "duration": 17, "velocity": 89}, {"time": 3632, "pitch": 64, "duration": 6, "velocity": 88}, {"time": 3635, "pitch": 47, "duration": 10, "velocity": 81}, {"time": 3638, "pitch": 59, "duration": 2, "velocity": 87}, {"time": 3641, "pitch": 59, "duration": 2, "velocity": 85}, {"time": 3641, "pitch": 64, "duration": 2, "velocity": 85}, {"time": 3644, "pitch": 59, "duration": 4, "velocity": 94}, {"time": 3644, "pitch": 64, "duration": 4, "velocity": 99}, {"time": 3647, "pitch": 47, "duration": 3, "velocity": 101}, {"time": 3650, "pitch": 59, "duration": 2, "velocity": 87}, {"time": 3650, "pitch": 62, "duration": 2, "velocity": 86}, {"time": 3656, "pitch": 45, "duration": 21, "velocity": 86}, {"time": 3656, "pitch": 57, "duration": 4, "velocity": 85}, {"time": 3656, "pitch": 60, "duration": 6, "velocity": 85}, {"time": 3659, "pitch": 52, "duration": 17, "velocity": 86}, {"time": 3662, "pitch": 57, "duration": 5, "velocity": 87}, {"time": 3665, "pitch": 60, "duration": 3, "velocity": 82}, {"time": 3668, "pitch": 64, "duration": 4, "velocity": 96}, {"time": 3671, "pitch": 57, "duration": 4, "velocity": 87}, {"time": 3674, "pitch": 60, "duration": 4, "velocity": 87}, {"time": 3677, "pitch": 57, "duration": 4, "velocity": 76}, {"time": 3680, "pitch": 41, "duration": 18, "velocity": 88}, {"time": 3680, "pitch": 60, "duration": 8, "velocity": 90}, {"time": 3683, "pitch": 48, "duration": 14, "velocity": 81}, {"time": 3686, "pitch": 53, "duration": 8, "velocity": 86}, {"time": 3689, "pitch": 57, "duration": 5, "velocity": 86}, {"time": 3692, "pitch": 65, "duration": 6, "velocity": 92}, {"time": 3695, "pitch": 60, "duration": 4, "velocity": 87}, {"time": 3698, "pitch": 57, "duration": 4, "velocity": 86}, {"time": 3701, "pitch": 53, "duration": 2, "velocity": 86}, {"time": 3704, "pitch": 40, "duration": 19, "velocity": 87}, {"time": 3704, "pitch": 52, "duration": 5, "velocity": 90}, {"time": 3704, "pitch": 55, "duration": 7, "velocity": 86}, {"time": 3707, "pitch": 47, "duration": 15, "velocity": 83}, {"time": 3710, "pitch": 59, "duration": 6, "velocity": 88}, {"time": 3713, "pitch": 52, "duration": 3, "velocity": 86}, {"time": 3716, "pitch": 64, "duration": 7, "velocity": 96}, {"time": 3719, "pitch": 52, "duration": 4, "velocity": 91}, {"time": 3722, "pitch": 59, "duration": 3, "velocity": 87}, {"time": 3725, "pitch": 52, "duration": 2, "velocity": 86}, {"time": 3728, "pitch": 45, "duration": 22, "velocity": 85}, {"time": 3728, "pitch": 60, "duration": 7, "velocity": 86}, {"time": 3731, "pitch": 52, "duration": 11, "velocity": 84}, {"time": 3734, "pitch": 57, "duration": 4, "velocity": 86}, {"time": 3737, "pitch": 60, "duration": 2, "velocity": 80}, {"time": 3740, "pitch": 57, "duration": 3, "velocity": 91}, {"time": 3740, "pitch": 64, "duration": 4, "velocity": 91}, {"time": 3743, "pitch": 52, "duration": 7, "velocity": 88}, {"time": 3746, "pitch": 57, "duration": 4, "velocity": 86}, {"time": 3749, "pitch": 60, "duration": 3, "velocity": 83}, {"time": 3752, "pitch": 50, "duration": 16, "velocity": 94}, {"time": 3752, "pitch": 62, "duration": 6, "velocity": 87}, {"time": 3755, "pitch": 53, "duration": 13, "velocity": 74}, {"time": 3758, "pitch": 57, "duration": 5, "velocity": 87}, {"time": 3761, "pitch": 62, "duration": 4, "velocity": 84}, {"time": 3764, "pitch": 65, "duration": 7, "velocity": 91}, {"time": 3767, "pitch": 57, "duration": 4, "velocity": 81}, {"time": 3770, "pitch": 62, "duration": 3, "velocity": 86}, {"time": 3773, "pitch": 57, "duration": 2, "velocity": 85}, {"time": 3776, "pitch": 43, "duration": 21, "velocity": 85}, {"time": 3776, "pitch": 62, "duration": 7, "velocity": 87}, {"time": 3779, "pitch": 50, "duration": 14, "velocity": 81}, {"time": 3782, "pitch": 55, "duration": 4, "velocity": 85}, {"time": 3785, "pitch": 59, "duration": 2, "velocity": 85}, {"time": 3788, "pitch": 62, "duration": 4, "velocity": 91}, {"time": 3791, "pitch": 55, "duration": 4, "velocity": 85}, {"time": 3794, "pitch": 59, "duration": 3, "velocity": 87}, {"time": 3797, "pitch": 55, "duration": 3, "velocity": 87}, {"time": 3799, "pitch": 57, "duration": 8, "velocity": 80}, {"time": 3800, "pitch": 60, "duration": 8, "velocity": 84}, {"time": 3800, "pitch": 45, "duration": 25, "velocity": 86}, {"time": 3800, "pitch": 64, "duration": 7, "velocity": 80}, {"time": 3801, "pitch": 69, "duration": 5, "velocity": 82}, {"time": 3806, "pitch": 52, "duration": 19, "velocity": 70}, {"time": 3812, "pitch": 60, "duration": 3, "velocity": 80}, {"time": 3813, "pitch": 64, "duration": 2, "velocity": 85}, {"time": 3818, "pitch": 57, "duration": 8, "velocity": 67}, {"time": 3825, "pitch": 60, "duration": 5, "velocity": 81}, {"time": 3825, "pitch": 64, "duration": 5, "velocity": 81}, {"time": 3837, "pitch": 60, "duration": 7, "velocity": 92}, {"time": 3837, "pitch": 57, "duration": 4, "velocity": 81}, {"time": 3837, "pitch": 64, "duration": 7, "velocity": 90}, {"time": 3849, "pitch": 57, "duration": 14, "velocity": 71}, {"time": 3850, "pitch": 45, "duration": 25, "velocity": 85}, {"time": 3850, "pitch": 60, "duration": 15, "velocity": 74}, {"time": 3857, "pitch": 52, "duration": 19, "velocity": 80}, {"time": 3864, "pitch": 64, "duration": 9, "velocity": 86}, {"time": 3871, "pitch": 60, "duration": 7, "velocity": 85}, {"time": 3879, "pitch": 45, "duration": 11, "velocity": 64}, {"time": 3881, "pitch": 52, "duration": 9, "velocity": 73}, {"time": 3881, "pitch": 57, "duration": 14, "velocity": 63}, {"time": 3883, "pitch": 60, "duration": 12, "velocity": 77}, {"time": 3884, "pitch": 64, "duration": 11, "velocity": 65}, {"time": 3885, "pitch": 69, "duration": 10, "velocity": 74}], "annotations": [{"time": 22, "annotation": {"number": 64, "value": 127}, "group": "control_change"}, {"time": 22, "annotation": {"number": 64, "value": 0}, "group": "control_change"}, {"time": 54, "annotation": {"number": 64, "value": 0}, "group": "control_change"}, {"time": 59, "annotation": {"number": 64, "value": 127}, "group": "control_change"}, {"time": 105, "annotation": {"number": 64, "value": 127}, "group": "control_change"}, {"time": 151, "annotation": {"number": 64, "value": 0}, "group": "control_change"}, {"time": 155, "annotation": {"number": 64, "value": 127}, "group": "control_change"}, {"time": 196, "annotation": {"number": 64, "value": 0}, "group": "control_change"}, {"time": 206, "annotation": {"number": 64, "value": 127}, "group": "control_change"}, {"time": 247, "annotation": {"number": 64, "value": 0}, "group": "control_change"}, {"time": 251, "annotation": {"number": 64, "value": 127}, "group": "control_change"}, {"time": 295, "annotation": {"number": 64, "value": 0}, "group": "control_change"}, {"time": 300, "annotation": {"number": 64, "value": 127}, "group": "control_change"}, {"time": 344, "annotation": {"number": 64, "value": 0}, "group": "control_change"}, {"time": 351, "annotation": {"number": 64, "value": 127}, "group": "control_change"}, {"time": 391, "annotation": {"number": 64, "value": 0}, "group": "control_change"}, {"time": 395, "annotation": {"number": 64, "value": 127}, "group": "control_change"}, {"time": 395, "annotation": {"number": 64, "value": 0}, "group": "control_change"}, {"time": 396, "annotation": {"number": 64, "value": 127}, "group": "control_change"}, {"time": 416, "annotation": {"number": 64, "value": 0}, "group": "control_change"}, {"time": 417, "annotation": {"number": 64, "value": 127}, "group": "control_change"}, {"time": 439, "annotation": {"number": 64, "value": 0}, "group": "control_change"}, {"time": 441, "annotation": {"number": 64, "value": 127}, "group": "control_change"}, {"time": 465, "annotation": {"number": 64, "value": 0}, "group": "control_change"}, {"time": 470, "annotation": {"number": 64, "value": 127}, "group": "control_change"}, {"time": 487, "annotation": {"number": 64, "value": 0}, "group": "control_change"}, {"time": 493, "annotation": {"number": 64, "value": 127}, "group": "control_change"}, {"time": 511, "annotation": {"number": 64, "value": 0}, "group": "control_change"}, {"time": 515, "annotation": {"number": 64, "value": 127}, "group": "control_change"}, {"time": 515, "annotation": {"number": 64, "value": 0}, "group": "control_change"}, {"time": 535, "annotation": {"number": 64, "value": 0}, "group": "control_change"}, {"time": 541, "annotation": {"number": 64, "value": 127}, "group": "control_change"}, {"time": 559, "annotation": {"number": 64, "value": 0}, "group": "control_change"}, {"time": 562, "annotation": {"number": 64, "value": 127}, "group": "control_change"}, {"time": 583, "annotation": {"number": 64, "value": 0}, "group": "control_change"}, {"time": 589, "annotation": {"number": 64, "value": 127}, "group": "control_change"}, {"time": 608, "annotation": {"number": 64, "value": 0}, "group": "control_change"}, {"time": 615, "annotation": {"number": 64, "value": 127}, "group": "control_change"}, {"time": 630, "annotation": {"number": 64, "value": 0}, "group": "control_change"}, {"time": 637, "annotation": {"number": 64, "value": 127}, "group": "control_change"}, {"time": 679, "annotation": {"number": 64, "value": 0}, "group": "control_change"}, {"time": 683, "annotation": {"number": 64, "value": 127}, "group": "control_change"}, {"time": 704, "annotation": {"number": 64, "value": 0}, "group": "control_change"}, {"time": 709, "annotation": {"number": 64, "value": 127}, "group": "control_change"}, {"time": 726, "annotation": {"number": 64, "value": 0}, "group": "control_change"}, {"time": 733, "annotation": {"number": 64, "value": 127}, "group": "control_change"}, {"time": 750, "annotation": {"number": 64, "value": 0}, "group": "control_change"}, {"time": 755, "annotation": {"number": 64, "value": 127}, "group": "control_change"}, {"time": 776, "annotation": {"number": 64, "value": 0}, "group": "control_change"}, {"time": 781, "annotation": {"number": 64, "value": 127}, "group": "control_change"}, {"time": 799, "annotation": {"number": 64, "value": 0}, "group": "control_change"}, {"time": 803, "annotation": {"number": 64, "value": 127}, "group": "control_change"}, {"time": 824, "annotation": {"number": 64, "value": 0}, "group": "control_change"}, {"time": 830, "annotation": {"number": 64, "value": 127}, "group": "control_change"}, {"time": 872, "annotation": {"number": 64, "value": 0}, "group": "control_change"}, {"time": 877, "annotation": {"number": 64, "value": 127}, "group": "control_change"}, {"time": 896, "annotation": {"number": 64, "value": 0}, "group": "control_change"}, {"time": 902, "annotation": {"number": 64, "value": 127}, "group": "control_change"}, {"time": 919, "annotation": {"number": 64, "value": 0}, "group": "control_change"}, {"time": 925, "annotation": {"number": 64, "value": 127}, "group": "control_change"}, {"time": 962, "annotation": {"number": 64, "value": 0}, "group": "control_change"}, {"time": 970, "annotation": {"number": 64, "value": 127}, "group": "control_change"}, {"time": 991, "annotation": {"number": 64, "value": 0}, "group": "control_change"}, {"time": 994, "annotation": {"number": 64, "value": 127}, "group": "control_change"}, {"time": 1015, "annotation": {"number": 64, "value": 0}, "group": "control_change"}, {"time": 1018, "annotation": {"number": 64, "value": 127}, "group": "control_change"}, {"time": 1039, "annotation": {"number": 64, "value": 0}, "group": "control_change"}, {"time": 1042, "annotation": {"number": 64, "value": 127}, "group": "control_change"}, {"time": 1063, "annotation": {"number": 64, "value": 0}, "group": "control_change"}, {"time": 1066, "annotation": {"number": 64, "value": 127}, "group": "control_change"}, {"time": 1088, "annotation": {"number": 64, "value": 0}, "group": "control_change"}, {"time": 1094, "annotation": {"number": 64, "value": 127}, "group": "control_change"}, {"time": 1111, "annotation": {"number": 64, "value": 0}, "group": "control_change"}, {"time": 1114, "annotation": {"number": 64, "value": 127}, "group": "control_change"}, {"time": 1135, "annotation": {"number": 64, "value": 0}, "group": "control_change"}, {"time": 1137, "annotation": {"number": 64, "value": 127}, "group": "control_change"}, {"time": 1159, "annotation": {"number": 64, "value": 0}, "group": "control_change"}, {"time": 1162, "annotation": {"number": 64, "value": 127}, "group": "control_change"}, {"time": 1183, "annotation": {"number": 64, "value": 0}, "group": "control_change"}, {"time": 1185, "annotation": {"number": 64, "value": 127}, "group": "control_change"}, {"time": 1208, "annotation": {"number": 64, "value": 0}, "group": "control_change"}, {"time": 1212, "annotation": {"number": 64, "value": 127}, "group": "control_change"}, {"time": 1255, "annotation": {"number": 64, "value": 0}, "group": "control_change"}, {"time": 1260, "annotation": {"number": 64, "value": 127}, "group": "control_change"}, {"time": 1279, "annotation": {"number": 64, "value": 0}, "group": "control_change"}, {"time": 1283, "annotation": {"number": 64, "value": 127}, "group": "control_change"}, {"time": 1302, "annotation": {"number": 64, "value": 0}, "group": "control_change"}, {"time": 1305, "annotation": {"number": 64, "value": 127}, "group": "control_change"}, {"time": 1327, "annotation": {"number": 64, "value": 0}, "group": "control_change"}, {"time": 1328, "annotation": {"number": 64, "value": 127}, "group": "control_change"}, {"time": 1349, "annotation": {"number": 64, "value": 0}, "group": "control_change"}, {"time": 1353, "annotation": {"number": 64, "value": 127}, "group": "control_change"}, {"time": 1353, "annotation": {"number": 64, "value": 0}, "group": "control_change"}, {"time": 1375, "annotation": {"number": 64, "value": 0}, "group": "control_change"}, {"time": 1377, "annotation": {"number": 64, "value": 127}, "group": "control_change"}, {"time": 1400, "annotation": {"number": 64, "value": 0}, "group": "control_change"}, {"time": 1402, "annotation": {"number": 64, "value": 127}, "group": "control_change"}, {"time": 1423, "annotation": {"number": 64, "value": 0}, "group": "control_change"}, {"time": 1425, "annotation": {"number": 64, "value": 127}, "group": "control_change"}, {"time": 1447, "annotation": {"number": 64, "value": 0}, "group": "control_change"}, {"time": 1449, "annotation": {"number": 64, "value": 127}, "group": "control_change"}, {"time": 1471, "annotation": {"number": 64, "value": 0}, "group": "control_change"}, {"time": 1473, "annotation": {"number": 64, "value": 127}, "group": "control_change"}, {"time": 1495, "annotation": {"number": 64, "value": 0}, "group": "control_change"}, {"time": 1497, "annotation": {"number": 64, "value": 127}, "group": "control_change"}, {"time": 1519, "annotation": {"number": 64, "value": 0}, "group": "control_change"}, {"time": 1521, "annotation": {"number": 64, "value": 127}, "group": "control_change"}, {"time": 1544, "annotation": {"number": 64, "value": 0}, "group": "control_change"}, {"time": 1547, "annotation": {"number": 64, "value": 127}, "group": "control_change"}, {"time": 1567, "annotation": {"number": 64, "value": 0}, "group": "control_change"}, {"time": 1570, "annotation": {"number": 64, "value": 127}, "group": "control_change"}, {"time": 1592, "annotation": {"number": 64, "value": 0}, "group": "control_change"}, {"time": 1595, "annotation": {"number": 64, "value": 127}, "group": "control_change"}, {"time": 1615, "annotation": {"number": 64, "value": 0}, "group": "control_change"}, {"time": 1618, "annotation": {"number": 64, "value": 127}, "group": "control_change"}, {"time": 1639, "annotation": {"number": 64, "value": 0}, "group": "control_change"}, {"time": 1641, "annotation": {"number": 64, "value": 127}, "group": "control_change"}, {"time": 1663, "annotation": {"number": 64, "value": 0}, "group": "control_change"}, {"time": 1666, "annotation": {"number": 64, "value": 127}, "group": "control_change"}, {"time": 1686, "annotation": {"number": 64, "value": 0}, "group": "control_change"}, {"time": 1689, "annotation": {"number": 64, "value": 127}, "group": "control_change"}, {"time": 1711, "annotation": {"number": 64, "value": 0}, "group": "control_change"}, {"time": 1713, "annotation": {"number": 64, "value": 127}, "group": "control_change"}, {"time": 1733, "annotation": {"number": 64, "value": 0}, "group": "control_change"}, {"time": 1737, "annotation": {"number": 64, "value": 127}, "group": "control_change"}, {"time": 1737, "annotation": {"number": 64, "value": 0}, "group": "control_change"}, {"time": 1759, "annotation": {"number": 64, "value": 0}, "group": "control_change"}, {"time": 1761, "annotation": {"number": 64, "value": 127}, "group": "control_change"}, {"time": 1784, "annotation": {"number": 64, "value": 0}, "group": "control_change"}, {"time": 1786, "annotation": {"number": 64, "value": 127}, "group": "control_change"}, {"time": 1807, "annotation": {"number": 64, "value": 0}, "group": "control_change"}, {"time": 1809, "annotation": {"number": 64, "value": 127}, "group": "control_change"}, {"time": 1831, "annotation": {"number": 64, "value": 0}, "group": "control_change"}, {"time": 1833, "annotation": {"number": 64, "value": 127}, "group": "control_change"}, {"time": 1855, "annotation": {"number": 64, "value": 0}, "group": "control_change"}, {"time": 1857, "annotation": {"number": 64, "value": 127}, "group": "control_change"}, {"time": 1879, "annotation": {"number": 64, "value": 0}, "group": "control_change"}, {"time": 1881, "annotation": {"number": 64, "value": 127}, "group": "control_change"}, {"time": 1903, "annotation": {"number": 64, "value": 0}, "group": "control_change"}, {"time": 1905, "annotation": {"number": 64, "value": 127}, "group": "control_change"}, {"time": 1928, "annotation": {"number": 64, "value": 0}, "group": "control_change"}, {"time": 1931, "annotation": {"number": 64, "value": 127}, "group": "control_change"}, {"time": 1951, "annotation": {"number": 64, "value": 0}, "group": "control_change"}, {"time": 1954, "annotation": {"number": 64, "value": 127}, "group": "control_change"}, {"time": 1976, "annotation": {"number": 64, "value": 0}, "group": "control_change"}, {"time": 1979, "annotation": {"number": 64, "value": 127}, "group": "control_change"}, {"time": 1999, "annotation": {"number": 64, "value": 0}, "group": "control_change"}, {"time": 2002, "annotation": {"number": 64, "value": 127}, "group": "control_change"}, {"time": 2023, "annotation": {"number": 64, "value": 0}, "group": "control_change"}, {"time": 2025, "annotation": {"number": 64, "value": 127}, "group": "control_change"}, {"time": 2047, "annotation": {"number": 64, "value": 0}, "group": "control_change"}, {"time": 2050, "annotation": {"number": 64, "value": 127}, "group": "control_change"}, {"time": 2070, "annotation": {"number": 64, "value": 0}, "group": "control_change"}, {"time": 2073, "annotation": {"number": 64, "value": 127}, "group": "control_change"}, {"time": 2119, "annotation": {"number": 64, "value": 0}, "group": "control_change"}, {"time": 2123, "annotation": {"number": 64, "value": 127}, "group": "control_change"}, {"time": 2144, "annotation": {"number": 64, "value": 0}, "group": "control_change"}, {"time": 2146, "annotation": {"number": 64, "value": 127}, "group": "control_change"}, {"time": 2168, "annotation": {"number": 64, "value": 0}, "group": "control_change"}, {"time": 2170, "annotation": {"number": 64, "value": 127}, "group": "control_change"}, {"time": 2192, "annotation": {"number": 64, "value": 0}, "group": "control_change"}, {"time": 2195, "annotation": {"number": 64, "value": 127}, "group": "control_change"}, {"time": 2215, "annotation": {"number": 64, "value": 0}, "group": "control_change"}, {"time": 2218, "annotation": {"number": 64, "value": 127}, "group": "control_change"}, {"time": 2240, "annotation": {"number": 64, "value": 0}, "group": "control_change"}, {"time": 2241, "annotation": {"number": 64, "value": 127}, "group": "control_change"}, {"time": 2251, "annotation": {"number": 64, "value": 0}, "group": "control_change"}, {"time": 2253, "annotation": {"number": 64, "value": 127}, "group": "control_change"}, {"time": 2264, "annotation": {"number": 64, "value": 0}, "group": "control_change"}, {"time": 2267, "annotation": {"number": 64, "value": 127}, "group": "control_change"}, {"time": 2287, "annotation": {"number": 64, "value": 0}, "group": "control_change"}, {"time": 2288, "annotation": {"number": 64, "value": 127}, "group": "control_change"}, {"time": 2310, "annotation": {"number": 64, "value": 0}, "group": "control_change"}, {"time": 2312, "annotation": {"number": 64, "value": 127}, "group": "control_change"}, {"time": 2335, "annotation": {"number": 64, "value": 0}, "group": "control_change"}, {"time": 2336, "annotation": {"number": 64, "value": 127}, "group": "control_change"}, {"time": 2358, "annotation": {"number": 64, "value": 0}, "group": "control_change"}, {"time": 2360, "annotation": {"number": 64, "value": 127}, "group": "control_change"}, {"time": 2384, "annotation": {"number": 64, "value": 0}, "group": "control_change"}, {"time": 2386, "annotation": {"number": 64, "value": 127}, "group": "control_change"}, {"time": 2406, "annotation": {"number": 64, "value": 0}, "group": "control_change"}, {"time": 2409, "annotation": {"number": 64, "value": 127}, "group": "control_change"}, {"time": 2431, "annotation": {"number": 64, "value": 0}, "group": "control_change"}, {"time": 2433, "annotation": {"number": 64, "value": 127}, "group": "control_change"}, {"time": 2454, "annotation": {"number": 64, "value": 0}, "group": "control_change"}, {"time": 2457, "annotation": {"number": 64, "value": 127}, "group": "control_change"}, {"time": 2479, "annotation": {"number": 64, "value": 0}, "group": "control_change"}, {"time": 2482, "annotation": {"number": 64, "value": 127}, "group": "control_change"}, {"time": 2500, "annotation": {"number": 64, "value": 0}, "group": "control_change"}, {"time": 2506, "annotation": {"number": 64, "value": 127}, "group": "control_change"}, {"time": 2527, "annotation": {"number": 64, "value": 0}, "group": "control_change"}, {"time": 2530, "annotation": {"number": 64, "value": 127}, "group": "control_change"}, {"time": 2551, "annotation": {"number": 64, "value": 0}, "group": "control_change"}, {"time": 2554, "annotation": {"number": 64, "value": 127}, "group": "control_change"}, {"time": 2575, "annotation": {"number": 64, "value": 0}, "group": "control_change"}, {"time": 2578, "annotation": {"number": 64, "value": 127}, "group": "control_change"}, {"time": 2599, "annotation": {"number": 64, "value": 0}, "group": "control_change"}, {"time": 2602, "annotation": {"number": 64, "value": 127}, "group": "control_change"}, {"time": 2624, "annotation": {"number": 64, "value": 0}, "group": "control_change"}, {"time": 2630, "annotation": {"number": 64, "value": 127}, "group": "control_change"}, {"time": 2647, "annotation": {"number": 64, "value": 0}, "group": "control_change"}, {"time": 2650, "annotation": {"number": 64, "value": 127}, "group": "control_change"}, {"time": 2671, "annotation": {"number": 64, "value": 0}, "group": "control_change"}, {"time": 2673, "annotation": {"number": 64, "value": 127}, "group": "control_change"}, {"time": 2695, "annotation": {"number": 64, "value": 0}, "group": "control_change"}, {"time": 2698, "annotation": {"number": 64, "value": 127}, "group": "control_change"}, {"time": 2719, "annotation": {"number": 64, "value": 0}, "group": "control_change"}, {"time": 2721, "annotation": {"number": 64, "value": 127}, "group": "control_change"}, {"time": 2744, "annotation": {"number": 64, "value": 0}, "group": "control_change"}, {"time": 2748, "annotation": {"number": 64, "value": 127}, "group": "control_change"}, {"time": 2791, "annotation": {"number": 64, "value": 0}, "group": "control_change"}, {"time": 2796, "annotation": {"number": 64, "value": 127}, "group": "control_change"}, {"time": 2815, "annotation": {"number": 64, "value": 0}, "group": "control_change"}, {"time": 2819, "annotation": {"number": 64, "value": 127}, "group": "control_change"}, {"time": 2838, "annotation": {"number": 64, "value": 0}, "group": "control_change"}, {"time": 2841, "annotation": {"number": 64, "value": 127}, "group": "control_change"}, {"time": 2863, "annotation": {"number": 64, "value": 0}, "group": "control_change"}, {"time": 2864, "annotation": {"number": 64, "value": 127}, "group": "control_change"}, {"time": 2885, "annotation": {"number": 64, "value": 0}, "group": "control_change"}, {"time": 2889, "annotation": {"number": 64, "value": 127}, "group": "control_change"}, {"time": 2889, "annotation": {"number": 64, "value": 0}, "group": "control_change"}, {"time": 2911, "annotation": {"number": 64, "value": 0}, "group": "control_change"}, {"time": 2913, "annotation": {"number": 64, "value": 127}, "group": "control_change"}, {"time": 2936, "annotation": {"number": 64, "value": 0}, "group": "control_change"}, {"time": 2938, "annotation": {"number": 64, "value": 127}, "group": "control_change"}, {"time": 2959, "annotation": {"number": 64, "value": 0}, "group": "control_change"}, {"time": 2961, "annotation": {"number": 64, "value": 127}, "group": "control_change"}, {"time": 2983, "annotation": {"number": 64, "value": 0}, "group": "control_change"}, {"time": 2985, "annotation": {"number": 64, "value": 127}, "group": "control_change"}, {"time": 3007, "annotation": {"number": 64, "value": 0}, "group": "control_change"}, {"time": 3009, "annotation": {"number": 64, "value": 127}, "group": "control_change"}, {"time": 3031, "annotation": {"number": 64, "value": 0}, "group": "control_change"}, {"time": 3033, "annotation": {"number": 64, "value": 127}, "group": "control_change"}, {"time": 3055, "annotation": {"number": 64, "value": 0}, "group": "control_change"}, {"time": 3057, "annotation": {"number": 64, "value": 127}, "group": "control_change"}, {"time": 3080, "annotation": {"number": 64, "value": 0}, "group": "control_change"}, {"time": 3083, "annotation": {"number": 64, "value": 127}, "group": "control_change"}, {"time": 3103, "annotation": {"number": 64, "value": 0}, "group": "control_change"}, {"time": 3106, "annotation": {"number": 64, "value": 127}, "group": "control_change"}, {"time": 3128, "annotation": {"number": 64, "value": 0}, "group": "control_change"}, {"time": 3131, "annotation": {"number": 64, "value": 127}, "group": "control_change"}, {"time": 3151, "annotation": {"number": 64, "value": 0}, "group": "control_change"}, {"time": 3154, "annotation": {"number": 64, "value": 127}, "group": "control_change"}, {"time": 3175, "annotation": {"number": 64, "value": 0}, "group": "control_change"}, {"time": 3177, "annotation": {"number": 64, "value": 127}, "group": "control_change"}, {"time": 3199, "annotation": {"number": 64, "value": 0}, "group": "control_change"}, {"time": 3202, "annotation": {"number": 64, "value": 127}, "group": "control_change"}, {"time": 3222, "annotation": {"number": 64, "value": 0}, "group": "control_change"}, {"time": 3225, "annotation": {"number": 64, "value": 127}, "group": "control_change"}, {"time": 3271, "annotation": {"number": 64, "value": 0}, "group": "control_change"}, {"time": 3273, "annotation": {"number": 64, "value": 127}, "group": "control_change"}, {"time": 3294, "annotation": {"number": 64, "value": 0}, "group": "control_change"}, {"time": 3298, "annotation": {"number": 64, "value": 127}, "group": "control_change"}, {"time": 3319, "annotation": {"number": 64, "value": 0}, "group": "control_change"}, {"time": 3321, "annotation": {"number": 64, "value": 127}, "group": "control_change"}, {"time": 3343, "annotation": {"number": 64, "value": 0}, "group": "control_change"}, {"time": 3345, "annotation": {"number": 64, "value": 127}, "group": "control_change"}, {"time": 3367, "annotation": {"number": 64, "value": 0}, "group": "control_change"}, {"time": 3369, "annotation": {"number": 64, "value": 127}, "group": "control_change"}, {"time": 3379, "annotation": {"number": 64, "value": 0}, "group": "control_change"}, {"time": 3380, "annotation": {"number": 64, "value": 127}, "group": "control_change"}, {"time": 3391, "annotation": {"number": 64, "value": 0}, "group": "control_change"}, {"time": 3393, "annotation": {"number": 64, "value": 127}, "group": "control_change"}, {"time": 3414, "annotation": {"number": 64, "value": 0}, "group": "control_change"}, {"time": 3416, "annotation": {"number": 64, "value": 127}, "group": "control_change"}, {"time": 3452, "annotation": {"number": 64, "value": 0}, "group": "control_change"}, {"time": 3453, "annotation": {"number": 64, "value": 127}, "group": "control_change"}, {"time": 3462, "annotation": {"number": 64, "value": 0}, "group": "control_change"}, {"time": 3465, "annotation": {"number": 64, "value": 127}, "group": "control_change"}, {"time": 3465, "annotation": {"number": 64, "value": 0}, "group": "control_change"}, {"time": 3487, "annotation": {"number": 64, "value": 0}, "group": "control_change"}, {"time": 3489, "annotation": {"number": 64, "value": 127}, "group": "control_change"}, {"time": 3512, "annotation": {"number": 64, "value": 0}, "group": "control_change"}, {"time": 3514, "annotation": {"number": 64, "value": 127}, "group": "control_change"}, {"time": 3535, "annotation": {"number": 64, "value": 0}, "group": "control_change"}, {"time": 3537, "annotation": {"number": 64, "value": 127}, "group": "control_change"}, {"time": 3559, "annotation": {"number": 64, "value": 0}, "group": "control_change"}, {"time": 3561, "annotation": {"number": 64, "value": 127}, "group": "control_change"}, {"time": 3583, "annotation": {"number": 64, "value": 0}, "group": "control_change"}, {"time": 3585, "annotation": {"number": 64, "value": 127}, "group": "control_change"}, {"time": 3607, "annotation": {"number": 64, "value": 0}, "group": "control_change"}, {"time": 3609, "annotation": {"number": 64, "value": 127}, "group": "control_change"}, {"time": 3631, "annotation": {"number": 64, "value": 0}, "group": "control_change"}, {"time": 3633, "annotation": {"number": 64, "value": 127}, "group": "control_change"}, {"time": 3656, "annotation": {"number": 64, "value": 0}, "group": "control_change"}, {"time": 3659, "annotation": {"number": 64, "value": 127}, "group": "control_change"}, {"time": 3679, "annotation": {"number": 64, "value": 0}, "group": "control_change"}, {"time": 3682, "annotation": {"number": 64, "value": 127}, "group": "control_change"}, {"time": 3704, "annotation": {"number": 64, "value": 0}, "group": "control_change"}, {"time": 3707, "annotation": {"number": 64, "value": 127}, "group": "control_change"}, {"time": 3727, "annotation": {"number": 64, "value": 0}, "group": "control_change"}, {"time": 3730, "annotation": {"number": 64, "value": 127}, "group": "control_change"}, {"time": 3751, "annotation": {"number": 64, "value": 0}, "group": "control_change"}, {"time": 3753, "annotation": {"number": 64, "value": 127}, "group": "control_change"}, {"time": 3775, "annotation": {"number": 64, "value": 0}, "group": "control_change"}, {"time": 3778, "annotation": {"number": 64, "value": 127}, "group": "control_change"}, {"time": 3798, "annotation": {"number": 64, "value": 0}, "group": "control_change"}, {"time": 3800, "annotation": {"number": 64, "value": 127}, "group": "control_change"}, {"time": 3851, "annotation": {"number": 64, "value": 0}, "group": "control_change"}, {"time": 3853, "annotation": {"number": 64, "value": 127}, "group": "control_change"}, {"time": 3913, "annotation": {"number": 64, "value": 0}, "group": "control_change"}]}]}