{"metadata": {"schema_version": "0.2", "title": "None", "source_filename": "662.mid", "source_format": "midi"}, "resolution": 12, "tempos": [{"time": 0, "qpm": 120.0}, {"time": 2977, "qpm": 120.25012025012025}, {"time": 3214, "qpm": 120.0}], "time_signatures": [{"time": 0, "numerator": 1, "denominator": 4}], "tracks": [{"program": 4, "is_drum": false, "name": "MELODY", "notes": [{"time": 458, "pitch": 61, "duration": 21, "velocity": 88}, {"time": 482, "pitch": 68, "duration": 9, "velocity": 84}, {"time": 494, "pitch": 68, "duration": 21, "velocity": 88}, {"time": 518, "pitch": 66, "duration": 9, "velocity": 83}, {"time": 530, "pitch": 68, "duration": 49, "velocity": 85}, {"time": 602, "pitch": 66, "duration": 21, "velocity": 81}, {"time": 626, "pitch": 68, "duration": 8, "velocity": 84}, {"time": 638, "pitch": 64, "duration": 9, "velocity": 83}, {"time": 650, "pitch": 61, "duration": 11, "velocity": 85}, {"time": 662, "pitch": 59, "duration": 9, "velocity": 85}, {"time": 674, "pitch": 61, "duration": 47, "velocity": 85}, {"time": 746, "pitch": 61, "duration": 9, "velocity": 88}, {"time": 758, "pitch": 61, "duration": 10, "velocity": 85}, {"time": 770, "pitch": 61, "duration": 10, "velocity": 85}, {"time": 782, "pitch": 68, "duration": 20, "velocity": 82}, {"time": 806, "pitch": 68, "duration": 4, "velocity": 88}, {"time": 812, "pitch": 66, "duration": 4, "velocity": 80}, {"time": 818, "pitch": 64, "duration": 10, "velocity": 82}, {"time": 830, "pitch": 66, "duration": 9, "velocity": 81}, {"time": 842, "pitch": 68, "duration": 8, "velocity": 84}, {"time": 854, "pitch": 66, "duration": 26, "velocity": 82}, {"time": 890, "pitch": 56, "duration": 7, "velocity": 85}, {"time": 902, "pitch": 56, "duration": 8, "velocity": 84}, {"time": 914, "pitch": 56, "duration": 11, "velocity": 87}, {"time": 926, "pitch": 66, "duration": 21, "velocity": 81}, {"time": 950, "pitch": 64, "duration": 4, "velocity": 84}, {"time": 956, "pitch": 61, "duration": 5, "velocity": 81}, {"time": 962, "pitch": 63, "duration": 64, "velocity": 81}, {"time": 1034, "pitch": 61, "duration": 21, "velocity": 88}, {"time": 1058, "pitch": 68, "duration": 9, "velocity": 84}, {"time": 1070, "pitch": 68, "duration": 21, "velocity": 88}, {"time": 1094, "pitch": 66, "duration": 9, "velocity": 83}, {"time": 1106, "pitch": 68, "duration": 49, "velocity": 85}, {"time": 1178, "pitch": 66, "duration": 21, "velocity": 81}, {"time": 1202, "pitch": 68, "duration": 8, "velocity": 84}, {"time": 1214, "pitch": 64, "duration": 9, "velocity": 83}, {"time": 1226, "pitch": 61, "duration": 11, "velocity": 85}, {"time": 1238, "pitch": 59, "duration": 9, "velocity": 85}, {"time": 1250, "pitch": 61, "duration": 47, "velocity": 85}, {"time": 1322, "pitch": 61, "duration": 9, "velocity": 88}, {"time": 1334, "pitch": 61, "duration": 10, "velocity": 85}, {"time": 1346, "pitch": 61, "duration": 10, "velocity": 85}, {"time": 1358, "pitch": 68, "duration": 20, "velocity": 82}, {"time": 1382, "pitch": 68, "duration": 4, "velocity": 88}, {"time": 1388, "pitch": 66, "duration": 4, "velocity": 80}, {"time": 1394, "pitch": 64, "duration": 10, "velocity": 82}, {"time": 1406, "pitch": 66, "duration": 9, "velocity": 81}, {"time": 1418, "pitch": 68, "duration": 8, "velocity": 84}, {"time": 1430, "pitch": 66, "duration": 26, "velocity": 82}, {"time": 1466, "pitch": 56, "duration": 7, "velocity": 85}, {"time": 1478, "pitch": 56, "duration": 8, "velocity": 84}, {"time": 1490, "pitch": 56, "duration": 11, "velocity": 87}, {"time": 1502, "pitch": 66, "duration": 21, "velocity": 81}, {"time": 1526, "pitch": 64, "duration": 4, "velocity": 84}, {"time": 1532, "pitch": 61, "duration": 5, "velocity": 81}, {"time": 1538, "pitch": 61, "duration": 64, "velocity": 81}, {"time": 1610, "pitch": 68, "duration": 20, "velocity": 92}, {"time": 1634, "pitch": 68, "duration": 9, "velocity": 88}, {"time": 1646, "pitch": 68, "duration": 24, "velocity": 85}, {"time": 1670, "pitch": 66, "duration": 5, "velocity": 90}, {"time": 1676, "pitch": 64, "duration": 5, "velocity": 84}, {"time": 1682, "pitch": 68, "duration": 61, "velocity": 87}, {"time": 1754, "pitch": 68, "duration": 9, "velocity": 88}, {"time": 1766, "pitch": 68, "duration": 8, "velocity": 88}, {"time": 1778, "pitch": 71, "duration": 8, "velocity": 87}, {"time": 1790, "pitch": 73, "duration": 23, "velocity": 88}, {"time": 1814, "pitch": 71, "duration": 4, "velocity": 87}, {"time": 1820, "pitch": 66, "duration": 4, "velocity": 82}, {"time": 1826, "pitch": 68, "duration": 62, "velocity": 87}, {"time": 1898, "pitch": 71, "duration": 8, "velocity": 85}, {"time": 1910, "pitch": 71, "duration": 9, "velocity": 95}, {"time": 1922, "pitch": 68, "duration": 8, "velocity": 86}, {"time": 1934, "pitch": 64, "duration": 12, "velocity": 88}, {"time": 1946, "pitch": 63, "duration": 10, "velocity": 87}, {"time": 1958, "pitch": 61, "duration": 11, "velocity": 85}, {"time": 1970, "pitch": 59, "duration": 24, "velocity": 88}, {"time": 1994, "pitch": 56, "duration": 11, "velocity": 85}, {"time": 2006, "pitch": 61, "duration": 30, "velocity": 87}, {"time": 2042, "pitch": 64, "duration": 9, "velocity": 88}, {"time": 2054, "pitch": 64, "duration": 10, "velocity": 87}, {"time": 2066, "pitch": 61, "duration": 10, "velocity": 81}, {"time": 2078, "pitch": 66, "duration": 22, "velocity": 83}, {"time": 2102, "pitch": 68, "duration": 8, "velocity": 87}, {"time": 2114, "pitch": 66, "duration": 67, "velocity": 83}, {"time": 2186, "pitch": 68, "duration": 20, "velocity": 92}, {"time": 2210, "pitch": 68, "duration": 9, "velocity": 88}, {"time": 2222, "pitch": 68, "duration": 24, "velocity": 85}, {"time": 2246, "pitch": 66, "duration": 5, "velocity": 90}, {"time": 2252, "pitch": 64, "duration": 5, "velocity": 84}, {"time": 2258, "pitch": 68, "duration": 61, "velocity": 87}, {"time": 2330, "pitch": 68, "duration": 9, "velocity": 88}, {"time": 2342, "pitch": 68, "duration": 8, "velocity": 88}, {"time": 2354, "pitch": 71, "duration": 8, "velocity": 87}, {"time": 2366, "pitch": 73, "duration": 23, "velocity": 88}, {"time": 2390, "pitch": 71, "duration": 4, "velocity": 87}, {"time": 2396, "pitch": 66, "duration": 4, "velocity": 82}, {"time": 2402, "pitch": 68, "duration": 62, "velocity": 87}, {"time": 2474, "pitch": 71, "duration": 8, "velocity": 85}, {"time": 2486, "pitch": 71, "duration": 9, "velocity": 95}, {"time": 2498, "pitch": 68, "duration": 8, "velocity": 86}, {"time": 2510, "pitch": 64, "duration": 12, "velocity": 88}, {"time": 2522, "pitch": 63, "duration": 10, "velocity": 87}, {"time": 2534, "pitch": 61, "duration": 11, "velocity": 85}, {"time": 2546, "pitch": 59, "duration": 24, "velocity": 88}, {"time": 2570, "pitch": 56, "duration": 11, "velocity": 85}, {"time": 2582, "pitch": 61, "duration": 30, "velocity": 87}, {"time": 2618, "pitch": 63, "duration": 9, "velocity": 88}, {"time": 2630, "pitch": 63, "duration": 10, "velocity": 87}, {"time": 2642, "pitch": 59, "duration": 10, "velocity": 81}, {"time": 2654, "pitch": 66, "duration": 22, "velocity": 83}, {"time": 2678, "pitch": 68, "duration": 8, "velocity": 87}, {"time": 2690, "pitch": 64, "duration": 67, "velocity": 83}, {"time": 3194, "pitch": 61, "duration": 21, "velocity": 88}, {"time": 3218, "pitch": 68, "duration": 9, "velocity": 84}, {"time": 3230, "pitch": 68, "duration": 21, "velocity": 88}, {"time": 3254, "pitch": 66, "duration": 9, "velocity": 83}, {"time": 3266, "pitch": 68, "duration": 49, "velocity": 85}, {"time": 3338, "pitch": 66, "duration": 21, "velocity": 81}, {"time": 3362, "pitch": 68, "duration": 8, "velocity": 84}, {"time": 3374, "pitch": 64, "duration": 9, "velocity": 83}, {"time": 3386, "pitch": 61, "duration": 11, "velocity": 85}, {"time": 3398, "pitch": 59, "duration": 9, "velocity": 85}, {"time": 3410, "pitch": 61, "duration": 47, "velocity": 85}, {"time": 3482, "pitch": 61, "duration": 9, "velocity": 88}, {"time": 3494, "pitch": 61, "duration": 10, "velocity": 85}, {"time": 3506, "pitch": 61, "duration": 10, "velocity": 85}, {"time": 3518, "pitch": 68, "duration": 20, "velocity": 82}, {"time": 3542, "pitch": 68, "duration": 4, "velocity": 88}, {"time": 3548, "pitch": 66, "duration": 4, "velocity": 80}, {"time": 3554, "pitch": 64, "duration": 10, "velocity": 82}, {"time": 3566, "pitch": 66, "duration": 9, "velocity": 81}, {"time": 3578, "pitch": 68, "duration": 8, "velocity": 84}, {"time": 3590, "pitch": 66, "duration": 26, "velocity": 82}, {"time": 3626, "pitch": 56, "duration": 7, "velocity": 85}, {"time": 3638, "pitch": 56, "duration": 8, "velocity": 84}, {"time": 3650, "pitch": 56, "duration": 11, "velocity": 87}, {"time": 3662, "pitch": 66, "duration": 21, "velocity": 81}, {"time": 3686, "pitch": 64, "duration": 4, "velocity": 84}, {"time": 3692, "pitch": 61, "duration": 5, "velocity": 81}, {"time": 3698, "pitch": 61, "duration": 64, "velocity": 81}, {"time": 3770, "pitch": 68, "duration": 20, "velocity": 92}, {"time": 3794, "pitch": 68, "duration": 9, "velocity": 88}, {"time": 3806, "pitch": 68, "duration": 24, "velocity": 85}, {"time": 3830, "pitch": 66, "duration": 5, "velocity": 90}, {"time": 3836, "pitch": 64, "duration": 5, "velocity": 84}, {"time": 3842, "pitch": 68, "duration": 61, "velocity": 87}, {"time": 3914, "pitch": 68, "duration": 9, "velocity": 88}, {"time": 3926, "pitch": 68, "duration": 8, "velocity": 88}, {"time": 3938, "pitch": 71, "duration": 8, "velocity": 87}, {"time": 3950, "pitch": 73, "duration": 23, "velocity": 88}, {"time": 3974, "pitch": 71, "duration": 4, "velocity": 87}, {"time": 3980, "pitch": 66, "duration": 4, "velocity": 82}, {"time": 3986, "pitch": 68, "duration": 62, "velocity": 87}, {"time": 4058, "pitch": 71, "duration": 8, "velocity": 85}, {"time": 4070, "pitch": 71, "duration": 9, "velocity": 95}, {"time": 4082, "pitch": 68, "duration": 8, "velocity": 86}, {"time": 4094, "pitch": 64, "duration": 12, "velocity": 88}, {"time": 4106, "pitch": 63, "duration": 10, "velocity": 87}, {"time": 4118, "pitch": 61, "duration": 11, "velocity": 85}, {"time": 4130, "pitch": 59, "duration": 24, "velocity": 88}, {"time": 4154, "pitch": 56, "duration": 11, "velocity": 85}, {"time": 4166, "pitch": 61, "duration": 30, "velocity": 87}, {"time": 4202, "pitch": 64, "duration": 9, "velocity": 88}, {"time": 4214, "pitch": 64, "duration": 10, "velocity": 87}, {"time": 4226, "pitch": 61, "duration": 10, "velocity": 81}, {"time": 4238, "pitch": 66, "duration": 22, "velocity": 83}, {"time": 4262, "pitch": 68, "duration": 8, "velocity": 87}, {"time": 4274, "pitch": 66, "duration": 67, "velocity": 83}, {"time": 4346, "pitch": 68, "duration": 20, "velocity": 92}, {"time": 4370, "pitch": 68, "duration": 9, "velocity": 88}, {"time": 4382, "pitch": 68, "duration": 24, "velocity": 85}, {"time": 4406, "pitch": 66, "duration": 5, "velocity": 90}, {"time": 4412, "pitch": 64, "duration": 5, "velocity": 84}, {"time": 4418, "pitch": 68, "duration": 61, "velocity": 87}, {"time": 4490, "pitch": 68, "duration": 9, "velocity": 88}, {"time": 4502, "pitch": 68, "duration": 8, "velocity": 88}, {"time": 4514, "pitch": 71, "duration": 8, "velocity": 87}, {"time": 4526, "pitch": 73, "duration": 23, "velocity": 88}, {"time": 4550, "pitch": 71, "duration": 4, "velocity": 87}, {"time": 4556, "pitch": 66, "duration": 4, "velocity": 82}, {"time": 4562, "pitch": 68, "duration": 62, "velocity": 87}, {"time": 4634, "pitch": 71, "duration": 8, "velocity": 85}, {"time": 4646, "pitch": 71, "duration": 9, "velocity": 95}, {"time": 4658, "pitch": 68, "duration": 8, "velocity": 86}, {"time": 4670, "pitch": 64, "duration": 12, "velocity": 88}, {"time": 4682, "pitch": 63, "duration": 10, "velocity": 87}, {"time": 4694, "pitch": 61, "duration": 11, "velocity": 85}, {"time": 4706, "pitch": 59, "duration": 24, "velocity": 88}, {"time": 4730, "pitch": 56, "duration": 11, "velocity": 85}, {"time": 4742, "pitch": 61, "duration": 30, "velocity": 87}, {"time": 4778, "pitch": 63, "duration": 9, "velocity": 88}, {"time": 4790, "pitch": 63, "duration": 10, "velocity": 87}, {"time": 4802, "pitch": 59, "duration": 10, "velocity": 81}, {"time": 4814, "pitch": 66, "duration": 22, "velocity": 83}, {"time": 4838, "pitch": 68, "duration": 8, "velocity": 87}, {"time": 4850, "pitch": 64, "duration": 67, "velocity": 83}, {"time": 4922, "pitch": 68, "duration": 20, "velocity": 92}, {"time": 4946, "pitch": 68, "duration": 9, "velocity": 88}, {"time": 4958, "pitch": 68, "duration": 24, "velocity": 85}, {"time": 4982, "pitch": 66, "duration": 5, "velocity": 90}, {"time": 4988, "pitch": 64, "duration": 5, "velocity": 84}, {"time": 4994, "pitch": 68, "duration": 61, "velocity": 87}, {"time": 5066, "pitch": 68, "duration": 9, "velocity": 88}, {"time": 5078, "pitch": 68, "duration": 8, "velocity": 88}, {"time": 5090, "pitch": 71, "duration": 8, "velocity": 87}, {"time": 5102, "pitch": 73, "duration": 23, "velocity": 88}, {"time": 5126, "pitch": 71, "duration": 4, "velocity": 87}, {"time": 5132, "pitch": 66, "duration": 4, "velocity": 82}, {"time": 5138, "pitch": 68, "duration": 62, "velocity": 87}, {"time": 5210, "pitch": 71, "duration": 8, "velocity": 85}, {"time": 5222, "pitch": 71, "duration": 9, "velocity": 95}, {"time": 5234, "pitch": 68, "duration": 8, "velocity": 86}, {"time": 5246, "pitch": 64, "duration": 12, "velocity": 88}, {"time": 5258, "pitch": 63, "duration": 10, "velocity": 87}, {"time": 5270, "pitch": 61, "duration": 11, "velocity": 85}, {"time": 5282, "pitch": 59, "duration": 24, "velocity": 88}, {"time": 5306, "pitch": 56, "duration": 11, "velocity": 85}, {"time": 5318, "pitch": 61, "duration": 30, "velocity": 87}, {"time": 5354, "pitch": 64, "duration": 9, "velocity": 88}, {"time": 5366, "pitch": 64, "duration": 10, "velocity": 87}, {"time": 5378, "pitch": 61, "duration": 10, "velocity": 81}, {"time": 5390, "pitch": 66, "duration": 22, "velocity": 83}, {"time": 5414, "pitch": 68, "duration": 6, "velocity": 87}, {"time": 5420, "pitch": 66, "duration": 6, "velocity": 87}, {"time": 5426, "pitch": 66, "duration": 67, "velocity": 83}, {"time": 5498, "pitch": 68, "duration": 20, "velocity": 92}, {"time": 5522, "pitch": 68, "duration": 9, "velocity": 88}, {"time": 5534, "pitch": 68, "duration": 24, "velocity": 85}, {"time": 5558, "pitch": 66, "duration": 5, "velocity": 90}, {"time": 5564, "pitch": 64, "duration": 5, "velocity": 84}, {"time": 5570, "pitch": 68, "duration": 61, "velocity": 87}, {"time": 5642, "pitch": 68, "duration": 9, "velocity": 88}, {"time": 5654, "pitch": 68, "duration": 8, "velocity": 88}, {"time": 5666, "pitch": 71, "duration": 8, "velocity": 87}, {"time": 5678, "pitch": 73, "duration": 23, "velocity": 88}, {"time": 5702, "pitch": 71, "duration": 4, "velocity": 87}, {"time": 5708, "pitch": 66, "duration": 4, "velocity": 82}, {"time": 5714, "pitch": 68, "duration": 62, "velocity": 87}, {"time": 5786, "pitch": 71, "duration": 8, "velocity": 85}, {"time": 5798, "pitch": 71, "duration": 9, "velocity": 95}, {"time": 5810, "pitch": 68, "duration": 8, "velocity": 86}, {"time": 5822, "pitch": 64, "duration": 12, "velocity": 88}, {"time": 5834, "pitch": 63, "duration": 10, "velocity": 87}, {"time": 5846, "pitch": 61, "duration": 11, "velocity": 85}, {"time": 5858, "pitch": 59, "duration": 24, "velocity": 88}, {"time": 5882, "pitch": 56, "duration": 11, "velocity": 85}, {"time": 5894, "pitch": 61, "duration": 30, "velocity": 87}, {"time": 5930, "pitch": 64, "duration": 9, "velocity": 88}, {"time": 5942, "pitch": 64, "duration": 10, "velocity": 87}, {"time": 5954, "pitch": 61, "duration": 10, "velocity": 81}, {"time": 5966, "pitch": 66, "duration": 22, "velocity": 83}, {"time": 5990, "pitch": 66, "duration": 6, "velocity": 87}, {"time": 5996, "pitch": 64, "duration": 6, "velocity": 87}, {"time": 6002, "pitch": 64, "duration": 67, "velocity": 83}]}, {"program": 0, "is_drum": false, "name": "PIANO", "notes": [{"time": 26, "pitch": 49, "duration": 33, "velocity": 85}, {"time": 32, "pitch": 56, "duration": 6, "velocity": 78}, {"time": 38, "pitch": 61, "duration": 7, "velocity": 78}, {"time": 44, "pitch": 56, "duration": 3, "velocity": 49}, {"time": 50, "pitch": 64, "duration": 18, "velocity": 82}, {"time": 56, "pitch": 56, "duration": 8, "velocity": 79}, {"time": 62, "pitch": 49, "duration": 26, "velocity": 84}, {"time": 68, "pitch": 56, "duration": 6, "velocity": 76}, {"time": 74, "pitch": 61, "duration": 7, "velocity": 80}, {"time": 80, "pitch": 56, "duration": 6, "velocity": 71}, {"time": 86, "pitch": 64, "duration": 9, "velocity": 82}, {"time": 92, "pitch": 56, "duration": 7, "velocity": 81}, {"time": 98, "pitch": 44, "duration": 32, "velocity": 82}, {"time": 104, "pitch": 56, "duration": 6, "velocity": 75}, {"time": 110, "pitch": 59, "duration": 6, "velocity": 74}, {"time": 116, "pitch": 56, "duration": 6, "velocity": 73}, {"time": 122, "pitch": 63, "duration": 16, "velocity": 82}, {"time": 128, "pitch": 56, "duration": 9, "velocity": 73}, {"time": 134, "pitch": 44, "duration": 32, "velocity": 83}, {"time": 140, "pitch": 56, "duration": 6, "velocity": 82}, {"time": 146, "pitch": 63, "duration": 22, "velocity": 77}, {"time": 152, "pitch": 56, "duration": 7, "velocity": 79}, {"time": 158, "pitch": 68, "duration": 11, "velocity": 81}, {"time": 164, "pitch": 56, "duration": 6, "velocity": 85}, {"time": 170, "pitch": 49, "duration": 32, "velocity": 85}, {"time": 176, "pitch": 56, "duration": 6, "velocity": 81}, {"time": 182, "pitch": 61, "duration": 13, "velocity": 79}, {"time": 188, "pitch": 56, "duration": 6, "velocity": 81}, {"time": 194, "pitch": 64, "duration": 16, "velocity": 82}, {"time": 200, "pitch": 56, "duration": 9, "velocity": 83}, {"time": 206, "pitch": 49, "duration": 26, "velocity": 90}, {"time": 212, "pitch": 56, "duration": 7, "velocity": 83}, {"time": 218, "pitch": 61, "duration": 8, "velocity": 82}, {"time": 224, "pitch": 56, "duration": 6, "velocity": 84}, {"time": 230, "pitch": 64, "duration": 9, "velocity": 83}, {"time": 236, "pitch": 56, "duration": 7, "velocity": 83}, {"time": 242, "pitch": 42, "duration": 33, "velocity": 82}, {"time": 248, "pitch": 54, "duration": 7, "velocity": 81}, {"time": 254, "pitch": 61, "duration": 15, "velocity": 81}, {"time": 260, "pitch": 54, "duration": 6, "velocity": 80}, {"time": 266, "pitch": 66, "duration": 32, "velocity": 81}, {"time": 272, "pitch": 54, "duration": 12, "velocity": 82}, {"time": 278, "pitch": 42, "duration": 24, "velocity": 82}, {"time": 284, "pitch": 49, "duration": 18, "velocity": 63}, {"time": 290, "pitch": 54, "duration": 12, "velocity": 83}, {"time": 296, "pitch": 61, "duration": 8, "velocity": 80}, {"time": 302, "pitch": 66, "duration": 9, "velocity": 83}, {"time": 314, "pitch": 45, "duration": 29, "velocity": 85}, {"time": 314, "pitch": 57, "duration": 7, "velocity": 70}, {"time": 314, "pitch": 61, "duration": 14, "velocity": 79}, {"time": 320, "pitch": 52, "duration": 23, "velocity": 71}, {"time": 326, "pitch": 57, "duration": 13, "velocity": 82}, {"time": 350, "pitch": 44, "duration": 26, "velocity": 82}, {"time": 350, "pitch": 56, "duration": 7, "velocity": 75}, {"time": 350, "pitch": 59, "duration": 13, "velocity": 76}, {"time": 356, "pitch": 51, "duration": 18, "velocity": 76}, {"time": 362, "pitch": 56, "duration": 21, "velocity": 83}, {"time": 386, "pitch": 37, "duration": 33, "velocity": 83}, {"time": 386, "pitch": 61, "duration": 7, "velocity": 81}, {"time": 392, "pitch": 56, "duration": 6, "velocity": 75}, {"time": 398, "pitch": 61, "duration": 12, "velocity": 75}, {"time": 404, "pitch": 56, "duration": 7, "velocity": 72}, {"time": 410, "pitch": 64, "duration": 6, "velocity": 77}, {"time": 416, "pitch": 56, "duration": 8, "velocity": 81}, {"time": 422, "pitch": 37, "duration": 25, "velocity": 84}, {"time": 422, "pitch": 68, "duration": 24, "velocity": 80}, {"time": 428, "pitch": 56, "duration": 6, "velocity": 76}, {"time": 434, "pitch": 64, "duration": 12, "velocity": 73}, {"time": 440, "pitch": 56, "duration": 7, "velocity": 76}, {"time": 446, "pitch": 61, "duration": 4, "velocity": 70}, {"time": 458, "pitch": 49, "duration": 66, "velocity": 82}, {"time": 458, "pitch": 61, "duration": 8, "velocity": 76}, {"time": 464, "pitch": 56, "duration": 7, "velocity": 71}, {"time": 470, "pitch": 61, "duration": 9, "velocity": 76}, {"time": 476, "pitch": 56, "duration": 3, "velocity": 69}, {"time": 482, "pitch": 64, "duration": 6, "velocity": 72}, {"time": 488, "pitch": 56, "duration": 7, "velocity": 71}, {"time": 494, "pitch": 68, "duration": 25, "velocity": 81}, {"time": 500, "pitch": 56, "duration": 6, "velocity": 75}, {"time": 506, "pitch": 61, "duration": 6, "velocity": 68}, {"time": 512, "pitch": 56, "duration": 6, "velocity": 68}, {"time": 518, "pitch": 64, "duration": 6, "velocity": 76}, {"time": 530, "pitch": 49, "duration": 65, "velocity": 82}, {"time": 530, "pitch": 61, "duration": 7, "velocity": 79}, {"time": 536, "pitch": 56, "duration": 7, "velocity": 70}, {"time": 542, "pitch": 61, "duration": 8, "velocity": 74}, {"time": 548, "pitch": 56, "duration": 7, "velocity": 69}, {"time": 554, "pitch": 64, "duration": 6, "velocity": 76}, {"time": 560, "pitch": 56, "duration": 8, "velocity": 76}, {"time": 566, "pitch": 68, "duration": 16, "velocity": 81}, {"time": 572, "pitch": 56, "duration": 7, "velocity": 82}, {"time": 578, "pitch": 64, "duration": 13, "velocity": 77}, {"time": 584, "pitch": 56, "duration": 8, "velocity": 80}, {"time": 590, "pitch": 61, "duration": 4, "velocity": 74}, {"time": 602, "pitch": 42, "duration": 34, "velocity": 83}, {"time": 608, "pitch": 49, "duration": 27, "velocity": 77}, {"time": 614, "pitch": 54, "duration": 11, "velocity": 84}, {"time": 620, "pitch": 61, "duration": 13, "velocity": 77}, {"time": 626, "pitch": 66, "duration": 31, "velocity": 76}, {"time": 632, "pitch": 54, "duration": 13, "velocity": 74}, {"time": 638, "pitch": 42, "duration": 27, "velocity": 82}, {"time": 644, "pitch": 49, "duration": 20, "velocity": 70}, {"time": 650, "pitch": 54, "duration": 12, "velocity": 81}, {"time": 656, "pitch": 61, "duration": 8, "velocity": 81}, {"time": 662, "pitch": 66, "duration": 4, "velocity": 81}, {"time": 674, "pitch": 49, "duration": 33, "velocity": 81}, {"time": 674, "pitch": 61, "duration": 7, "velocity": 80}, {"time": 680, "pitch": 56, "duration": 7, "velocity": 71}, {"time": 686, "pitch": 61, "duration": 12, "velocity": 74}, {"time": 692, "pitch": 56, "duration": 6, "velocity": 70}, {"time": 698, "pitch": 64, "duration": 7, "velocity": 75}, {"time": 704, "pitch": 56, "duration": 7, "velocity": 70}, {"time": 710, "pitch": 49, "duration": 28, "velocity": 82}, {"time": 710, "pitch": 68, "duration": 16, "velocity": 83}, {"time": 716, "pitch": 56, "duration": 6, "velocity": 76}, {"time": 722, "pitch": 61, "duration": 7, "velocity": 74}, {"time": 728, "pitch": 56, "duration": 8, "velocity": 75}, {"time": 734, "pitch": 64, "duration": 11, "velocity": 81}, {"time": 746, "pitch": 49, "duration": 65, "velocity": 81}, {"time": 746, "pitch": 61, "duration": 7, "velocity": 75}, {"time": 752, "pitch": 56, "duration": 6, "velocity": 73}, {"time": 758, "pitch": 61, "duration": 14, "velocity": 75}, {"time": 764, "pitch": 56, "duration": 8, "velocity": 73}, {"time": 770, "pitch": 64, "duration": 8, "velocity": 73}, {"time": 776, "pitch": 56, "duration": 7, "velocity": 81}, {"time": 782, "pitch": 68, "duration": 24, "velocity": 81}, {"time": 788, "pitch": 56, "duration": 6, "velocity": 81}, {"time": 794, "pitch": 61, "duration": 9, "velocity": 74}, {"time": 800, "pitch": 56, "duration": 7, "velocity": 77}, {"time": 806, "pitch": 64, "duration": 5, "velocity": 78}, {"time": 818, "pitch": 49, "duration": 27, "velocity": 80}, {"time": 818, "pitch": 64, "duration": 11, "velocity": 77}, {"time": 824, "pitch": 56, "duration": 6, "velocity": 71}, {"time": 830, "pitch": 61, "duration": 8, "velocity": 74}, {"time": 836, "pitch": 56, "duration": 7, "velocity": 71}, {"time": 842, "pitch": 64, "duration": 24, "velocity": 78}, {"time": 848, "pitch": 56, "duration": 6, "velocity": 77}, {"time": 854, "pitch": 42, "duration": 26, "velocity": 82}, {"time": 860, "pitch": 49, "duration": 21, "velocity": 74}, {"time": 866, "pitch": 57, "duration": 8, "velocity": 77}, {"time": 872, "pitch": 54, "duration": 7, "velocity": 82}, {"time": 878, "pitch": 61, "duration": 5, "velocity": 82}, {"time": 890, "pitch": 44, "duration": 29, "velocity": 82}, {"time": 890, "pitch": 56, "duration": 6, "velocity": 73}, {"time": 890, "pitch": 59, "duration": 13, "velocity": 75}, {"time": 896, "pitch": 51, "duration": 22, "velocity": 74}, {"time": 902, "pitch": 56, "duration": 10, "velocity": 83}, {"time": 908, "pitch": 59, "duration": 7, "velocity": 72}, {"time": 914, "pitch": 63, "duration": 14, "velocity": 77}, {"time": 920, "pitch": 56, "duration": 6, "velocity": 77}, {"time": 926, "pitch": 39, "duration": 21, "velocity": 83}, {"time": 932, "pitch": 51, "duration": 14, "velocity": 82}, {"time": 938, "pitch": 54, "duration": 10, "velocity": 81}, {"time": 944, "pitch": 57, "duration": 7, "velocity": 87}, {"time": 944, "pitch": 61, "duration": 6, "velocity": 86}, {"time": 962, "pitch": 44, "duration": 69, "velocity": 81}, {"time": 962, "pitch": 56, "duration": 5, "velocity": 75}, {"time": 962, "pitch": 60, "duration": 17, "velocity": 74}, {"time": 968, "pitch": 51, "duration": 62, "velocity": 81}, {"time": 974, "pitch": 56, "duration": 13, "velocity": 81}, {"time": 980, "pitch": 63, "duration": 7, "velocity": 81}, {"time": 986, "pitch": 60, "duration": 8, "velocity": 87}, {"time": 992, "pitch": 63, "duration": 7, "velocity": 81}, {"time": 998, "pitch": 68, "duration": 25, "velocity": 85}, {"time": 1022, "pitch": 63, "duration": 6, "velocity": 83}, {"time": 1028, "pitch": 64, "duration": 4, "velocity": 78}, {"time": 1034, "pitch": 49, "duration": 40, "velocity": 81}, {"time": 1034, "pitch": 56, "duration": 12, "velocity": 73}, {"time": 1034, "pitch": 61, "duration": 12, "velocity": 77}, {"time": 1046, "pitch": 64, "duration": 7, "velocity": 79}, {"time": 1052, "pitch": 56, "duration": 7, "velocity": 68}, {"time": 1058, "pitch": 61, "duration": 8, "velocity": 74}, {"time": 1064, "pitch": 56, "duration": 4, "velocity": 73}, {"time": 1070, "pitch": 56, "duration": 7, "velocity": 68}, {"time": 1070, "pitch": 61, "duration": 8, "velocity": 82}, {"time": 1070, "pitch": 68, "duration": 11, "velocity": 81}, {"time": 1082, "pitch": 56, "duration": 7, "velocity": 80}, {"time": 1088, "pitch": 61, "duration": 6, "velocity": 73}, {"time": 1094, "pitch": 64, "duration": 3, "velocity": 81}, {"time": 1106, "pitch": 49, "duration": 56, "velocity": 82}, {"time": 1106, "pitch": 56, "duration": 10, "velocity": 74}, {"time": 1106, "pitch": 61, "duration": 10, "velocity": 77}, {"time": 1118, "pitch": 61, "duration": 6, "velocity": 77}, {"time": 1124, "pitch": 56, "duration": 5, "velocity": 76}, {"time": 1130, "pitch": 61, "duration": 7, "velocity": 71}, {"time": 1136, "pitch": 56, "duration": 3, "velocity": 66}, {"time": 1142, "pitch": 56, "duration": 5, "velocity": 82}, {"time": 1142, "pitch": 64, "duration": 5, "velocity": 82}, {"time": 1154, "pitch": 61, "duration": 5, "velocity": 81}, {"time": 1160, "pitch": 56, "duration": 5, "velocity": 79}, {"time": 1166, "pitch": 61, "duration": 3, "velocity": 77}, {"time": 1178, "pitch": 42, "duration": 63, "velocity": 81}, {"time": 1178, "pitch": 54, "duration": 8, "velocity": 78}, {"time": 1178, "pitch": 57, "duration": 8, "velocity": 69}, {"time": 1190, "pitch": 61, "duration": 6, "velocity": 75}, {"time": 1196, "pitch": 57, "duration": 7, "velocity": 71}, {"time": 1202, "pitch": 61, "duration": 9, "velocity": 76}, {"time": 1208, "pitch": 57, "duration": 2, "velocity": 63}, {"time": 1214, "pitch": 54, "duration": 9, "velocity": 81}, {"time": 1214, "pitch": 57, "duration": 7, "velocity": 75}, {"time": 1214, "pitch": 61, "duration": 8, "velocity": 76}, {"time": 1214, "pitch": 66, "duration": 9, "velocity": 76}, {"time": 1226, "pitch": 61, "duration": 8, "velocity": 82}, {"time": 1232, "pitch": 54, "duration": 7, "velocity": 75}, {"time": 1238, "pitch": 57, "duration": 2, "velocity": 76}, {"time": 1238, "pitch": 61, "duration": 1, "velocity": 28}, {"time": 1250, "pitch": 49, "duration": 64, "velocity": 84}, {"time": 1250, "pitch": 56, "duration": 11, "velocity": 75}, {"time": 1250, "pitch": 61, "duration": 10, "velocity": 80}, {"time": 1262, "pitch": 64, "duration": 7, "velocity": 77}, {"time": 1268, "pitch": 56, "duration": 7, "velocity": 71}, {"time": 1274, "pitch": 61, "duration": 7, "velocity": 77}, {"time": 1280, "pitch": 56, "duration": 3, "velocity": 79}, {"time": 1286, "pitch": 56, "duration": 6, "velocity": 81}, {"time": 1286, "pitch": 61, "duration": 6, "velocity": 83}, {"time": 1286, "pitch": 68, "duration": 6, "velocity": 81}, {"time": 1298, "pitch": 64, "duration": 7, "velocity": 82}, {"time": 1304, "pitch": 56, "duration": 8, "velocity": 81}, {"time": 1310, "pitch": 61, "duration": 6, "velocity": 83}, {"time": 1322, "pitch": 49, "duration": 66, "velocity": 84}, {"time": 1322, "pitch": 56, "duration": 11, "velocity": 78}, {"time": 1322, "pitch": 61, "duration": 10, "velocity": 81}, {"time": 1334, "pitch": 61, "duration": 6, "velocity": 66}, {"time": 1340, "pitch": 56, "duration": 6, "velocity": 86}, {"time": 1346, "pitch": 61, "duration": 7, "velocity": 81}, {"time": 1352, "pitch": 56, "duration": 3, "velocity": 82}, {"time": 1358, "pitch": 56, "duration": 6, "velocity": 81}, {"time": 1358, "pitch": 64, "duration": 7, "velocity": 82}, {"time": 1370, "pitch": 61, "duration": 5, "velocity": 80}, {"time": 1376, "pitch": 56, "duration": 4, "velocity": 77}, {"time": 1382, "pitch": 61, "duration": 3, "velocity": 80}, {"time": 1394, "pitch": 49, "duration": 20, "velocity": 83}, {"time": 1394, "pitch": 56, "duration": 6, "velocity": 76}, {"time": 1394, "pitch": 61, "duration": 13, "velocity": 81}, {"time": 1406, "pitch": 64, "duration": 9, "velocity": 81}, {"time": 1412, "pitch": 56, "duration": 8, "velocity": 81}, {"time": 1418, "pitch": 61, "duration": 2, "velocity": 83}, {"time": 1430, "pitch": 42, "duration": 29, "velocity": 82}, {"time": 1430, "pitch": 54, "duration": 11, "velocity": 74}, {"time": 1430, "pitch": 57, "duration": 9, "velocity": 68}, {"time": 1430, "pitch": 61, "duration": 10, "velocity": 81}, {"time": 1442, "pitch": 49, "duration": 18, "velocity": 73}, {"time": 1448, "pitch": 54, "duration": 9, "velocity": 82}, {"time": 1454, "pitch": 57, "duration": 3, "velocity": 85}, {"time": 1466, "pitch": 44, "duration": 65, "velocity": 77}, {"time": 1466, "pitch": 56, "duration": 12, "velocity": 76}, {"time": 1466, "pitch": 59, "duration": 17, "velocity": 77}, {"time": 1478, "pitch": 51, "duration": 53, "velocity": 77}, {"time": 1484, "pitch": 56, "duration": 7, "velocity": 82}, {"time": 1490, "pitch": 59, "duration": 6, "velocity": 86}, {"time": 1496, "pitch": 56, "duration": 3, "velocity": 83}, {"time": 1502, "pitch": 56, "duration": 14, "velocity": 84}, {"time": 1502, "pitch": 63, "duration": 24, "velocity": 83}, {"time": 1514, "pitch": 59, "duration": 7, "velocity": 88}, {"time": 1520, "pitch": 56, "duration": 8, "velocity": 76}, {"time": 1526, "pitch": 59, "duration": 4, "velocity": 82}, {"time": 1538, "pitch": 49, "duration": 32, "velocity": 83}, {"time": 1538, "pitch": 56, "duration": 7, "velocity": 75}, {"time": 1538, "pitch": 61, "duration": 13, "velocity": 76}, {"time": 1550, "pitch": 64, "duration": 8, "velocity": 81}, {"time": 1556, "pitch": 56, "duration": 6, "velocity": 81}, {"time": 1562, "pitch": 61, "duration": 7, "velocity": 79}, {"time": 1568, "pitch": 56, "duration": 3, "velocity": 75}, {"time": 1574, "pitch": 49, "duration": 36, "velocity": 88}, {"time": 1574, "pitch": 56, "duration": 9, "velocity": 81}, {"time": 1574, "pitch": 61, "duration": 8, "velocity": 79}, {"time": 1574, "pitch": 64, "duration": 9, "velocity": 81}, {"time": 1586, "pitch": 61, "duration": 7, "velocity": 85}, {"time": 1592, "pitch": 63, "duration": 8, "velocity": 85}, {"time": 1598, "pitch": 64, "duration": 4, "velocity": 90}, {"time": 1604, "pitch": 66, "duration": 4, "velocity": 86}, {"time": 1610, "pitch": 40, "duration": 58, "velocity": 86}, {"time": 1610, "pitch": 52, "duration": 13, "velocity": 79}, {"time": 1610, "pitch": 56, "duration": 16, "velocity": 81}, {"time": 1622, "pitch": 47, "duration": 44, "velocity": 77}, {"time": 1628, "pitch": 52, "duration": 6, "velocity": 83}, {"time": 1634, "pitch": 59, "duration": 8, "velocity": 81}, {"time": 1640, "pitch": 52, "duration": 3, "velocity": 76}, {"time": 1646, "pitch": 52, "duration": 9, "velocity": 97}, {"time": 1646, "pitch": 59, "duration": 8, "velocity": 83}, {"time": 1646, "pitch": 64, "duration": 10, "velocity": 82}, {"time": 1658, "pitch": 56, "duration": 8, "velocity": 74}, {"time": 1658, "pitch": 59, "duration": 9, "velocity": 75}, {"time": 1664, "pitch": 52, "duration": 5, "velocity": 77}, {"time": 1670, "pitch": 47, "duration": 2, "velocity": 83}, {"time": 1682, "pitch": 44, "duration": 55, "velocity": 84}, {"time": 1682, "pitch": 56, "duration": 13, "velocity": 77}, {"time": 1682, "pitch": 59, "duration": 10, "velocity": 81}, {"time": 1694, "pitch": 51, "duration": 39, "velocity": 81}, {"time": 1700, "pitch": 56, "duration": 5, "velocity": 76}, {"time": 1706, "pitch": 63, "duration": 6, "velocity": 79}, {"time": 1712, "pitch": 56, "duration": 3, "velocity": 72}, {"time": 1718, "pitch": 56, "duration": 8, "velocity": 76}, {"time": 1718, "pitch": 59, "duration": 7, "velocity": 86}, {"time": 1718, "pitch": 63, "duration": 7, "velocity": 82}, {"time": 1718, "pitch": 68, "duration": 7, "velocity": 81}, {"time": 1730, "pitch": 56, "duration": 3, "velocity": 84}, {"time": 1730, "pitch": 63, "duration": 5, "velocity": 83}, {"time": 1736, "pitch": 56, "duration": 6, "velocity": 82}, {"time": 1742, "pitch": 51, "duration": 3, "velocity": 86}, {"time": 1748, "pitch": 56, "duration": 4, "velocity": 85}, {"time": 1754, "pitch": 49, "duration": 19, "velocity": 86}, {"time": 1754, "pitch": 56, "duration": 9, "velocity": 83}, {"time": 1754, "pitch": 61, "duration": 9, "velocity": 83}, {"time": 1766, "pitch": 64, "duration": 8, "velocity": 84}, {"time": 1772, "pitch": 56, "duration": 8, "velocity": 81}, {"time": 1778, "pitch": 61, "duration": 3, "velocity": 81}, {"time": 1790, "pitch": 47, "duration": 23, "velocity": 87}, {"time": 1790, "pitch": 54, "duration": 4, "velocity": 82}, {"time": 1790, "pitch": 59, "duration": 7, "velocity": 79}, {"time": 1796, "pitch": 54, "duration": 5, "velocity": 78}, {"time": 1802, "pitch": 63, "duration": 11, "velocity": 82}, {"time": 1808, "pitch": 54, "duration": 7, "velocity": 78}, {"time": 1814, "pitch": 59, "duration": 3, "velocity": 83}, {"time": 1826, "pitch": 40, "duration": 32, "velocity": 82}, {"time": 1826, "pitch": 56, "duration": 10, "velocity": 77}, {"time": 1826, "pitch": 64, "duration": 10, "velocity": 80}, {"time": 1838, "pitch": 47, "duration": 17, "velocity": 77}, {"time": 1838, "pitch": 59, "duration": 6, "velocity": 82}, {"time": 1844, "pitch": 56, "duration": 5, "velocity": 82}, {"time": 1850, "pitch": 59, "duration": 4, "velocity": 79}, {"time": 1856, "pitch": 56, "duration": 3, "velocity": 72}, {"time": 1862, "pitch": 40, "duration": 23, "velocity": 84}, {"time": 1862, "pitch": 56, "duration": 13, "velocity": 81}, {"time": 1862, "pitch": 59, "duration": 19, "velocity": 86}, {"time": 1862, "pitch": 64, "duration": 20, "velocity": 71}, {"time": 1874, "pitch": 47, "duration": 9, "velocity": 82}, {"time": 1880, "pitch": 56, "duration": 5, "velocity": 81}, {"time": 1886, "pitch": 59, "duration": 3, "velocity": 88}, {"time": 1898, "pitch": 44, "duration": 30, "velocity": 82}, {"time": 1898, "pitch": 56, "duration": 6, "velocity": 79}, {"time": 1898, "pitch": 63, "duration": 12, "velocity": 81}, {"time": 1904, "pitch": 51, "duration": 23, "velocity": 74}, {"time": 1910, "pitch": 56, "duration": 6, "velocity": 81}, {"time": 1916, "pitch": 59, "duration": 6, "velocity": 87}, {"time": 1922, "pitch": 56, "duration": 5, "velocity": 82}, {"time": 1934, "pitch": 49, "duration": 26, "velocity": 88}, {"time": 1934, "pitch": 56, "duration": 4, "velocity": 81}, {"time": 1934, "pitch": 64, "duration": 12, "velocity": 81}, {"time": 1940, "pitch": 56, "duration": 6, "velocity": 81}, {"time": 1946, "pitch": 61, "duration": 6, "velocity": 81}, {"time": 1952, "pitch": 56, "duration": 7, "velocity": 77}, {"time": 1958, "pitch": 64, "duration": 3, "velocity": 81}, {"time": 1970, "pitch": 44, "duration": 32, "velocity": 83}, {"time": 1970, "pitch": 63, "duration": 13, "velocity": 81}, {"time": 1976, "pitch": 51, "duration": 25, "velocity": 76}, {"time": 1982, "pitch": 56, "duration": 10, "velocity": 83}, {"time": 1988, "pitch": 59, "duration": 7, "velocity": 87}, {"time": 1994, "pitch": 63, "duration": 7, "velocity": 88}, {"time": 2000, "pitch": 56, "duration": 4, "velocity": 82}, {"time": 2006, "pitch": 49, "duration": 29, "velocity": 82}, {"time": 2006, "pitch": 64, "duration": 13, "velocity": 84}, {"time": 2012, "pitch": 56, "duration": 7, "velocity": 81}, {"time": 2018, "pitch": 61, "duration": 9, "velocity": 77}, {"time": 2030, "pitch": 56, "duration": 5, "velocity": 78}, {"time": 2030, "pitch": 61, "duration": 5, "velocity": 83}, {"time": 2042, "pitch": 45, "duration": 26, "velocity": 86}, {"time": 2042, "pitch": 57, "duration": 6, "velocity": 82}, {"time": 2042, "pitch": 61, "duration": 13, "velocity": 82}, {"time": 2048, "pitch": 52, "duration": 20, "velocity": 74}, {"time": 2054, "pitch": 57, "duration": 11, "velocity": 81}, {"time": 2060, "pitch": 61, "duration": 6, "velocity": 73}, {"time": 2066, "pitch": 64, "duration": 6, "velocity": 87}, {"time": 2078, "pitch": 42, "duration": 27, "velocity": 83}, {"time": 2078, "pitch": 54, "duration": 11, "velocity": 81}, {"time": 2078, "pitch": 58, "duration": 13, "velocity": 82}, {"time": 2084, "pitch": 49, "duration": 20, "velocity": 81}, {"time": 2090, "pitch": 61, "duration": 8, "velocity": 83}, {"time": 2096, "pitch": 54, "duration": 6, "velocity": 82}, {"time": 2102, "pitch": 66, "duration": 5, "velocity": 84}, {"time": 2114, "pitch": 47, "duration": 32, "velocity": 86}, {"time": 2114, "pitch": 54, "duration": 4, "velocity": 82}, {"time": 2114, "pitch": 59, "duration": 7, "velocity": 80}, {"time": 2120, "pitch": 54, "duration": 6, "velocity": 83}, {"time": 2126, "pitch": 61, "duration": 7, "velocity": 82}, {"time": 2132, "pitch": 54, "duration": 7, "velocity": 87}, {"time": 2138, "pitch": 59, "duration": 6, "velocity": 87}, {"time": 2144, "pitch": 54, "duration": 3, "velocity": 83}, {"time": 2150, "pitch": 47, "duration": 29, "velocity": 97}, {"time": 2150, "pitch": 54, "duration": 5, "velocity": 86}, {"time": 2150, "pitch": 63, "duration": 8, "velocity": 87}, {"time": 2156, "pitch": 54, "duration": 4, "velocity": 75}, {"time": 2162, "pitch": 59, "duration": 6, "velocity": 87}, {"time": 2168, "pitch": 61, "duration": 8, "velocity": 90}, {"time": 2174, "pitch": 63, "duration": 10, "velocity": 86}, {"time": 2186, "pitch": 40, "duration": 33, "velocity": 83}, {"time": 2186, "pitch": 64, "duration": 8, "velocity": 83}, {"time": 2192, "pitch": 47, "duration": 27, "velocity": 75}, {"time": 2198, "pitch": 59, "duration": 8, "velocity": 87}, {"time": 2204, "pitch": 64, "duration": 7, "velocity": 83}, {"time": 2210, "pitch": 68, "duration": 7, "velocity": 88}, {"time": 2216, "pitch": 59, "duration": 4, "velocity": 82}, {"time": 2222, "pitch": 40, "duration": 29, "velocity": 82}, {"time": 2222, "pitch": 59, "duration": 13, "velocity": 83}, {"time": 2222, "pitch": 64, "duration": 18, "velocity": 82}, {"time": 2222, "pitch": 68, "duration": 21, "velocity": 83}, {"time": 2234, "pitch": 47, "duration": 17, "velocity": 76}, {"time": 2240, "pitch": 59, "duration": 8, "velocity": 81}, {"time": 2246, "pitch": 64, "duration": 11, "velocity": 83}, {"time": 2258, "pitch": 44, "duration": 33, "velocity": 87}, {"time": 2264, "pitch": 51, "duration": 27, "velocity": 73}, {"time": 2270, "pitch": 56, "duration": 8, "velocity": 84}, {"time": 2276, "pitch": 59, "duration": 4, "velocity": 95}, {"time": 2282, "pitch": 63, "duration": 4, "velocity": 90}, {"time": 2288, "pitch": 56, "duration": 3, "velocity": 78}, {"time": 2294, "pitch": 44, "duration": 32, "velocity": 82}, {"time": 2294, "pitch": 56, "duration": 9, "velocity": 82}, {"time": 2294, "pitch": 59, "duration": 8, "velocity": 85}, {"time": 2294, "pitch": 63, "duration": 8, "velocity": 83}, {"time": 2306, "pitch": 56, "duration": 4, "velocity": 77}, {"time": 2306, "pitch": 59, "duration": 7, "velocity": 83}, {"time": 2306, "pitch": 63, "duration": 7, "velocity": 88}, {"time": 2312, "pitch": 51, "duration": 15, "velocity": 81}, {"time": 2318, "pitch": 56, "duration": 5, "velocity": 77}, {"time": 2318, "pitch": 64, "duration": 7, "velocity": 83}, {"time": 2330, "pitch": 49, "duration": 31, "velocity": 86}, {"time": 2330, "pitch": 56, "duration": 5, "velocity": 81}, {"time": 2330, "pitch": 64, "duration": 11, "velocity": 82}, {"time": 2336, "pitch": 52, "duration": 25, "velocity": 70}, {"time": 2342, "pitch": 56, "duration": 12, "velocity": 70}, {"time": 2354, "pitch": 61, "duration": 8, "velocity": 84}, {"time": 2360, "pitch": 56, "duration": 4, "velocity": 76}, {"time": 2366, "pitch": 47, "duration": 24, "velocity": 87}, {"time": 2366, "pitch": 54, "duration": 9, "velocity": 83}, {"time": 2366, "pitch": 59, "duration": 10, "velocity": 83}, {"time": 2378, "pitch": 63, "duration": 11, "velocity": 87}, {"time": 2384, "pitch": 54, "duration": 7, "velocity": 81}, {"time": 2390, "pitch": 59, "duration": 3, "velocity": 79}, {"time": 2402, "pitch": 40, "duration": 33, "velocity": 83}, {"time": 2402, "pitch": 56, "duration": 7, "velocity": 76}, {"time": 2402, "pitch": 64, "duration": 14, "velocity": 81}, {"time": 2408, "pitch": 47, "duration": 27, "velocity": 71}, {"time": 2414, "pitch": 56, "duration": 12, "velocity": 81}, {"time": 2426, "pitch": 59, "duration": 8, "velocity": 86}, {"time": 2432, "pitch": 64, "duration": 4, "velocity": 81}, {"time": 2438, "pitch": 40, "duration": 24, "velocity": 82}, {"time": 2438, "pitch": 56, "duration": 14, "velocity": 82}, {"time": 2438, "pitch": 64, "duration": 19, "velocity": 84}, {"time": 2450, "pitch": 47, "duration": 9, "velocity": 82}, {"time": 2456, "pitch": 59, "duration": 11, "velocity": 97}, {"time": 2462, "pitch": 47, "duration": 4, "velocity": 81}, {"time": 2468, "pitch": 56, "duration": 3, "velocity": 83}, {"time": 2474, "pitch": 44, "duration": 29, "velocity": 82}, {"time": 2474, "pitch": 56, "duration": 13, "velocity": 84}, {"time": 2474, "pitch": 59, "duration": 14, "velocity": 83}, {"time": 2486, "pitch": 51, "duration": 18, "velocity": 81}, {"time": 2492, "pitch": 63, "duration": 8, "velocity": 86}, {"time": 2498, "pitch": 56, "duration": 8, "velocity": 83}, {"time": 2510, "pitch": 49, "duration": 25, "velocity": 88}, {"time": 2510, "pitch": 64, "duration": 18, "velocity": 86}, {"time": 2516, "pitch": 52, "duration": 19, "velocity": 78}, {"time": 2522, "pitch": 56, "duration": 8, "velocity": 82}, {"time": 2528, "pitch": 61, "duration": 7, "velocity": 75}, {"time": 2534, "pitch": 64, "duration": 9, "velocity": 85}, {"time": 2546, "pitch": 44, "duration": 22, "velocity": 82}, {"time": 2546, "pitch": 56, "duration": 15, "velocity": 77}, {"time": 2546, "pitch": 63, "duration": 19, "velocity": 81}, {"time": 2558, "pitch": 51, "duration": 10, "velocity": 83}, {"time": 2564, "pitch": 59, "duration": 6, "velocity": 83}, {"time": 2570, "pitch": 56, "duration": 3, "velocity": 84}, {"time": 2582, "pitch": 45, "duration": 27, "velocity": 81}, {"time": 2582, "pitch": 57, "duration": 13, "velocity": 81}, {"time": 2582, "pitch": 61, "duration": 20, "velocity": 81}, {"time": 2594, "pitch": 52, "duration": 17, "velocity": 80}, {"time": 2600, "pitch": 57, "duration": 8, "velocity": 81}, {"time": 2606, "pitch": 61, "duration": 2, "velocity": 51}, {"time": 2606, "pitch": 64, "duration": 8, "velocity": 82}, {"time": 2618, "pitch": 47, "duration": 32, "velocity": 87}, {"time": 2618, "pitch": 59, "duration": 12, "velocity": 76}, {"time": 2618, "pitch": 63, "duration": 11, "velocity": 81}, {"time": 2630, "pitch": 54, "duration": 21, "velocity": 76}, {"time": 2636, "pitch": 59, "duration": 7, "velocity": 82}, {"time": 2642, "pitch": 66, "duration": 9, "velocity": 78}, {"time": 2648, "pitch": 59, "duration": 4, "velocity": 81}, {"time": 2654, "pitch": 47, "duration": 18, "velocity": 84}, {"time": 2654, "pitch": 59, "duration": 20, "velocity": 84}, {"time": 2654, "pitch": 66, "duration": 19, "velocity": 76}, {"time": 2654, "pitch": 71, "duration": 18, "velocity": 77}, {"time": 2690, "pitch": 40, "duration": 32, "velocity": 82}, {"time": 2690, "pitch": 52, "duration": 12, "velocity": 69}, {"time": 2690, "pitch": 56, "duration": 16, "velocity": 74}, {"time": 2702, "pitch": 47, "duration": 21, "velocity": 77}, {"time": 2708, "pitch": 52, "duration": 7, "velocity": 72}, {"time": 2714, "pitch": 54, "duration": 7, "velocity": 81}, {"time": 2720, "pitch": 56, "duration": 4, "velocity": 76}, {"time": 2726, "pitch": 40, "duration": 34, "velocity": 81}, {"time": 2726, "pitch": 52, "duration": 8, "velocity": 76}, {"time": 2726, "pitch": 59, "duration": 9, "velocity": 83}, {"time": 2738, "pitch": 52, "duration": 8, "velocity": 81}, {"time": 2738, "pitch": 56, "duration": 7, "velocity": 81}, {"time": 2750, "pitch": 52, "duration": 4, "velocity": 82}, {"time": 2750, "pitch": 56, "duration": 10, "velocity": 83}, {"time": 2750, "pitch": 59, "duration": 11, "velocity": 82}, {"time": 2756, "pitch": 47, "duration": 5, "velocity": 83}, {"time": 2762, "pitch": 37, "duration": 11, "velocity": 82}, {"time": 2762, "pitch": 56, "duration": 10, "velocity": 81}, {"time": 2762, "pitch": 64, "duration": 11, "velocity": 81}, {"time": 2774, "pitch": 61, "duration": 5, "velocity": 85}, {"time": 2780, "pitch": 56, "duration": 7, "velocity": 82}, {"time": 2786, "pitch": 61, "duration": 7, "velocity": 82}, {"time": 2792, "pitch": 56, "duration": 14, "velocity": 81}, {"time": 2798, "pitch": 49, "duration": 32, "velocity": 77}, {"time": 2798, "pitch": 61, "duration": 8, "velocity": 83}, {"time": 2798, "pitch": 68, "duration": 9, "velocity": 82}, {"time": 2810, "pitch": 64, "duration": 7, "velocity": 80}, {"time": 2816, "pitch": 56, "duration": 8, "velocity": 82}, {"time": 2822, "pitch": 61, "duration": 4, "velocity": 85}, {"time": 2834, "pitch": 44, "duration": 54, "velocity": 82}, {"time": 2834, "pitch": 56, "duration": 13, "velocity": 75}, {"time": 2834, "pitch": 59, "duration": 18, "velocity": 77}, {"time": 2846, "pitch": 51, "duration": 40, "velocity": 81}, {"time": 2852, "pitch": 56, "duration": 4, "velocity": 83}, {"time": 2858, "pitch": 59, "duration": 5, "velocity": 87}, {"time": 2864, "pitch": 56, "duration": 2, "velocity": 69}, {"time": 2870, "pitch": 56, "duration": 4, "velocity": 84}, {"time": 2870, "pitch": 63, "duration": 4, "velocity": 84}, {"time": 2882, "pitch": 59, "duration": 5, "velocity": 88}, {"time": 2888, "pitch": 56, "duration": 6, "velocity": 92}, {"time": 2894, "pitch": 51, "duration": 2, "velocity": 84}, {"time": 2906, "pitch": 37, "duration": 2, "velocity": 85}, {"time": 2906, "pitch": 56, "duration": 7, "velocity": 82}, {"time": 2906, "pitch": 64, "duration": 11, "velocity": 81}, {"time": 2918, "pitch": 49, "duration": 36, "velocity": 79}, {"time": 2924, "pitch": 56, "duration": 24, "velocity": 74}, {"time": 2930, "pitch": 61, "duration": 8, "velocity": 90}, {"time": 2936, "pitch": 64, "duration": 3, "velocity": 75}, {"time": 2942, "pitch": 61, "duration": 12, "velocity": 82}, {"time": 2942, "pitch": 64, "duration": 15, "velocity": 84}, {"time": 2942, "pitch": 68, "duration": 17, "velocity": 83}, {"time": 2954, "pitch": 56, "duration": 3, "velocity": 84}, {"time": 2960, "pitch": 61, "duration": 7, "velocity": 83}, {"time": 2966, "pitch": 64, "duration": 10, "velocity": 85}, {"time": 2978, "pitch": 42, "duration": 38, "velocity": 81}, {"time": 2978, "pitch": 61, "duration": 5, "velocity": 77}, {"time": 2978, "pitch": 66, "duration": 7, "velocity": 75}, {"time": 2984, "pitch": 49, "duration": 31, "velocity": 74}, {"time": 2990, "pitch": 54, "duration": 7, "velocity": 83}, {"time": 2996, "pitch": 61, "duration": 7, "velocity": 87}, {"time": 3002, "pitch": 57, "duration": 7, "velocity": 86}, {"time": 3008, "pitch": 61, "duration": 3, "velocity": 81}, {"time": 3014, "pitch": 54, "duration": 14, "velocity": 83}, {"time": 3014, "pitch": 57, "duration": 15, "velocity": 85}, {"time": 3014, "pitch": 61, "duration": 15, "velocity": 81}, {"time": 3014, "pitch": 66, "duration": 16, "velocity": 77}, {"time": 3045, "pitch": 57, "duration": 19, "velocity": 71}, {"time": 3048, "pitch": 61, "duration": 17, "velocity": 78}, {"time": 3049, "pitch": 45, "duration": 17, "velocity": 79}, {"time": 3050, "pitch": 64, "duration": 17, "velocity": 83}, {"time": 3082, "pitch": 56, "duration": 29, "velocity": 68}, {"time": 3084, "pitch": 59, "duration": 27, "velocity": 79}, {"time": 3085, "pitch": 44, "duration": 11, "velocity": 82}, {"time": 3086, "pitch": 63, "duration": 24, "velocity": 83}, {"time": 3122, "pitch": 37, "duration": 57, "velocity": 82}, {"time": 3122, "pitch": 56, "duration": 14, "velocity": 72}, {"time": 3122, "pitch": 61, "duration": 18, "velocity": 75}, {"time": 3140, "pitch": 56, "duration": 5, "velocity": 72}, {"time": 3146, "pitch": 61, "duration": 8, "velocity": 71}, {"time": 3152, "pitch": 56, "duration": 3, "velocity": 57}, {"time": 3158, "pitch": 56, "duration": 4, "velocity": 77}, {"time": 3158, "pitch": 64, "duration": 7, "velocity": 79}, {"time": 3170, "pitch": 61, "duration": 23, "velocity": 74}, {"time": 3182, "pitch": 56, "duration": 11, "velocity": 67}, {"time": 3194, "pitch": 49, "duration": 40, "velocity": 81}, {"time": 3194, "pitch": 56, "duration": 12, "velocity": 73}, {"time": 3194, "pitch": 61, "duration": 12, "velocity": 77}, {"time": 3206, "pitch": 64, "duration": 7, "velocity": 79}, {"time": 3212, "pitch": 56, "duration": 7, "velocity": 68}, {"time": 3218, "pitch": 61, "duration": 8, "velocity": 74}, {"time": 3224, "pitch": 56, "duration": 4, "velocity": 73}, {"time": 3230, "pitch": 56, "duration": 7, "velocity": 68}, {"time": 3230, "pitch": 61, "duration": 8, "velocity": 82}, {"time": 3230, "pitch": 68, "duration": 11, "velocity": 81}, {"time": 3242, "pitch": 56, "duration": 7, "velocity": 80}, {"time": 3248, "pitch": 61, "duration": 6, "velocity": 73}, {"time": 3254, "pitch": 64, "duration": 3, "velocity": 81}, {"time": 3266, "pitch": 49, "duration": 56, "velocity": 82}, {"time": 3266, "pitch": 56, "duration": 10, "velocity": 74}, {"time": 3266, "pitch": 61, "duration": 10, "velocity": 77}, {"time": 3278, "pitch": 61, "duration": 6, "velocity": 77}, {"time": 3284, "pitch": 56, "duration": 5, "velocity": 76}, {"time": 3290, "pitch": 61, "duration": 7, "velocity": 71}, {"time": 3296, "pitch": 56, "duration": 3, "velocity": 66}, {"time": 3302, "pitch": 56, "duration": 5, "velocity": 82}, {"time": 3302, "pitch": 64, "duration": 5, "velocity": 82}, {"time": 3314, "pitch": 61, "duration": 5, "velocity": 81}, {"time": 3320, "pitch": 56, "duration": 5, "velocity": 79}, {"time": 3326, "pitch": 61, "duration": 3, "velocity": 77}, {"time": 3338, "pitch": 42, "duration": 63, "velocity": 81}, {"time": 3338, "pitch": 54, "duration": 8, "velocity": 78}, {"time": 3338, "pitch": 57, "duration": 8, "velocity": 69}, {"time": 3350, "pitch": 61, "duration": 6, "velocity": 75}, {"time": 3356, "pitch": 57, "duration": 7, "velocity": 71}, {"time": 3362, "pitch": 61, "duration": 9, "velocity": 76}, {"time": 3368, "pitch": 57, "duration": 2, "velocity": 63}, {"time": 3374, "pitch": 54, "duration": 9, "velocity": 81}, {"time": 3374, "pitch": 57, "duration": 7, "velocity": 75}, {"time": 3374, "pitch": 61, "duration": 8, "velocity": 76}, {"time": 3374, "pitch": 66, "duration": 9, "velocity": 76}, {"time": 3386, "pitch": 61, "duration": 8, "velocity": 82}, {"time": 3392, "pitch": 54, "duration": 7, "velocity": 75}, {"time": 3398, "pitch": 57, "duration": 2, "velocity": 76}, {"time": 3398, "pitch": 61, "duration": 1, "velocity": 28}, {"time": 3410, "pitch": 49, "duration": 64, "velocity": 84}, {"time": 3410, "pitch": 56, "duration": 11, "velocity": 75}, {"time": 3410, "pitch": 61, "duration": 10, "velocity": 80}, {"time": 3422, "pitch": 64, "duration": 7, "velocity": 77}, {"time": 3428, "pitch": 56, "duration": 7, "velocity": 71}, {"time": 3434, "pitch": 61, "duration": 7, "velocity": 77}, {"time": 3440, "pitch": 56, "duration": 3, "velocity": 79}, {"time": 3446, "pitch": 56, "duration": 6, "velocity": 81}, {"time": 3446, "pitch": 61, "duration": 6, "velocity": 83}, {"time": 3446, "pitch": 68, "duration": 6, "velocity": 81}, {"time": 3458, "pitch": 64, "duration": 7, "velocity": 82}, {"time": 3464, "pitch": 56, "duration": 8, "velocity": 81}, {"time": 3470, "pitch": 61, "duration": 6, "velocity": 83}, {"time": 3482, "pitch": 49, "duration": 66, "velocity": 84}, {"time": 3482, "pitch": 56, "duration": 11, "velocity": 78}, {"time": 3482, "pitch": 61, "duration": 10, "velocity": 81}, {"time": 3494, "pitch": 61, "duration": 6, "velocity": 66}, {"time": 3500, "pitch": 56, "duration": 6, "velocity": 86}, {"time": 3506, "pitch": 61, "duration": 7, "velocity": 81}, {"time": 3512, "pitch": 56, "duration": 3, "velocity": 82}, {"time": 3518, "pitch": 56, "duration": 6, "velocity": 81}, {"time": 3518, "pitch": 64, "duration": 7, "velocity": 82}, {"time": 3530, "pitch": 61, "duration": 5, "velocity": 80}, {"time": 3536, "pitch": 56, "duration": 4, "velocity": 77}, {"time": 3542, "pitch": 61, "duration": 3, "velocity": 80}, {"time": 3554, "pitch": 49, "duration": 20, "velocity": 83}, {"time": 3554, "pitch": 56, "duration": 6, "velocity": 76}, {"time": 3554, "pitch": 61, "duration": 13, "velocity": 81}, {"time": 3566, "pitch": 64, "duration": 9, "velocity": 81}, {"time": 3572, "pitch": 56, "duration": 8, "velocity": 81}, {"time": 3578, "pitch": 61, "duration": 2, "velocity": 83}, {"time": 3590, "pitch": 42, "duration": 29, "velocity": 82}, {"time": 3590, "pitch": 54, "duration": 11, "velocity": 74}, {"time": 3590, "pitch": 57, "duration": 9, "velocity": 68}, {"time": 3590, "pitch": 61, "duration": 10, "velocity": 81}, {"time": 3602, "pitch": 49, "duration": 18, "velocity": 73}, {"time": 3608, "pitch": 54, "duration": 9, "velocity": 82}, {"time": 3614, "pitch": 57, "duration": 3, "velocity": 85}, {"time": 3626, "pitch": 44, "duration": 65, "velocity": 77}, {"time": 3626, "pitch": 56, "duration": 12, "velocity": 76}, {"time": 3626, "pitch": 59, "duration": 17, "velocity": 77}, {"time": 3638, "pitch": 51, "duration": 53, "velocity": 77}, {"time": 3644, "pitch": 56, "duration": 7, "velocity": 82}, {"time": 3650, "pitch": 59, "duration": 6, "velocity": 86}, {"time": 3656, "pitch": 56, "duration": 3, "velocity": 83}, {"time": 3662, "pitch": 56, "duration": 14, "velocity": 84}, {"time": 3662, "pitch": 63, "duration": 24, "velocity": 83}, {"time": 3674, "pitch": 59, "duration": 7, "velocity": 88}, {"time": 3680, "pitch": 56, "duration": 8, "velocity": 76}, {"time": 3686, "pitch": 59, "duration": 4, "velocity": 82}, {"time": 3698, "pitch": 49, "duration": 32, "velocity": 83}, {"time": 3698, "pitch": 56, "duration": 7, "velocity": 75}, {"time": 3698, "pitch": 61, "duration": 13, "velocity": 76}, {"time": 3710, "pitch": 64, "duration": 8, "velocity": 81}, {"time": 3716, "pitch": 56, "duration": 6, "velocity": 81}, {"time": 3722, "pitch": 61, "duration": 7, "velocity": 79}, {"time": 3728, "pitch": 56, "duration": 3, "velocity": 75}, {"time": 3734, "pitch": 49, "duration": 36, "velocity": 88}, {"time": 3734, "pitch": 56, "duration": 9, "velocity": 81}, {"time": 3734, "pitch": 61, "duration": 8, "velocity": 79}, {"time": 3734, "pitch": 64, "duration": 9, "velocity": 81}, {"time": 3746, "pitch": 61, "duration": 7, "velocity": 85}, {"time": 3752, "pitch": 63, "duration": 8, "velocity": 85}, {"time": 3758, "pitch": 64, "duration": 4, "velocity": 90}, {"time": 3764, "pitch": 66, "duration": 4, "velocity": 86}, {"time": 3770, "pitch": 40, "duration": 58, "velocity": 86}, {"time": 3770, "pitch": 52, "duration": 13, "velocity": 79}, {"time": 3770, "pitch": 56, "duration": 16, "velocity": 81}, {"time": 3782, "pitch": 47, "duration": 44, "velocity": 77}, {"time": 3788, "pitch": 52, "duration": 6, "velocity": 83}, {"time": 3794, "pitch": 59, "duration": 8, "velocity": 81}, {"time": 3800, "pitch": 52, "duration": 3, "velocity": 76}, {"time": 3806, "pitch": 52, "duration": 9, "velocity": 97}, {"time": 3806, "pitch": 59, "duration": 8, "velocity": 83}, {"time": 3806, "pitch": 64, "duration": 10, "velocity": 82}, {"time": 3818, "pitch": 56, "duration": 8, "velocity": 74}, {"time": 3818, "pitch": 59, "duration": 9, "velocity": 75}, {"time": 3824, "pitch": 52, "duration": 5, "velocity": 77}, {"time": 3830, "pitch": 47, "duration": 2, "velocity": 83}, {"time": 3842, "pitch": 44, "duration": 55, "velocity": 84}, {"time": 3842, "pitch": 56, "duration": 13, "velocity": 77}, {"time": 3842, "pitch": 59, "duration": 10, "velocity": 81}, {"time": 3854, "pitch": 51, "duration": 39, "velocity": 81}, {"time": 3860, "pitch": 56, "duration": 5, "velocity": 76}, {"time": 3866, "pitch": 63, "duration": 6, "velocity": 79}, {"time": 3872, "pitch": 56, "duration": 3, "velocity": 72}, {"time": 3878, "pitch": 56, "duration": 8, "velocity": 76}, {"time": 3878, "pitch": 59, "duration": 7, "velocity": 86}, {"time": 3878, "pitch": 63, "duration": 7, "velocity": 82}, {"time": 3878, "pitch": 68, "duration": 7, "velocity": 81}, {"time": 3890, "pitch": 56, "duration": 3, "velocity": 84}, {"time": 3890, "pitch": 63, "duration": 5, "velocity": 83}, {"time": 3896, "pitch": 56, "duration": 6, "velocity": 82}, {"time": 3902, "pitch": 51, "duration": 3, "velocity": 86}, {"time": 3908, "pitch": 56, "duration": 4, "velocity": 85}, {"time": 3914, "pitch": 49, "duration": 19, "velocity": 86}, {"time": 3914, "pitch": 56, "duration": 9, "velocity": 83}, {"time": 3914, "pitch": 61, "duration": 9, "velocity": 83}, {"time": 3926, "pitch": 64, "duration": 8, "velocity": 84}, {"time": 3932, "pitch": 56, "duration": 8, "velocity": 81}, {"time": 3938, "pitch": 61, "duration": 3, "velocity": 81}, {"time": 3950, "pitch": 47, "duration": 23, "velocity": 87}, {"time": 3950, "pitch": 54, "duration": 4, "velocity": 82}, {"time": 3950, "pitch": 59, "duration": 7, "velocity": 79}, {"time": 3956, "pitch": 54, "duration": 5, "velocity": 78}, {"time": 3962, "pitch": 63, "duration": 11, "velocity": 82}, {"time": 3968, "pitch": 54, "duration": 7, "velocity": 78}, {"time": 3974, "pitch": 59, "duration": 3, "velocity": 83}, {"time": 3986, "pitch": 40, "duration": 32, "velocity": 82}, {"time": 3986, "pitch": 56, "duration": 10, "velocity": 77}, {"time": 3986, "pitch": 64, "duration": 10, "velocity": 80}, {"time": 3998, "pitch": 47, "duration": 17, "velocity": 77}, {"time": 3998, "pitch": 59, "duration": 6, "velocity": 82}, {"time": 4004, "pitch": 56, "duration": 5, "velocity": 82}, {"time": 4010, "pitch": 59, "duration": 4, "velocity": 79}, {"time": 4016, "pitch": 56, "duration": 3, "velocity": 72}, {"time": 4022, "pitch": 40, "duration": 23, "velocity": 84}, {"time": 4022, "pitch": 56, "duration": 13, "velocity": 81}, {"time": 4022, "pitch": 59, "duration": 19, "velocity": 86}, {"time": 4022, "pitch": 64, "duration": 20, "velocity": 71}, {"time": 4034, "pitch": 47, "duration": 9, "velocity": 82}, {"time": 4040, "pitch": 56, "duration": 5, "velocity": 81}, {"time": 4046, "pitch": 59, "duration": 3, "velocity": 88}, {"time": 4058, "pitch": 44, "duration": 30, "velocity": 82}, {"time": 4058, "pitch": 56, "duration": 6, "velocity": 79}, {"time": 4058, "pitch": 63, "duration": 12, "velocity": 81}, {"time": 4064, "pitch": 51, "duration": 23, "velocity": 74}, {"time": 4070, "pitch": 56, "duration": 6, "velocity": 81}, {"time": 4076, "pitch": 59, "duration": 6, "velocity": 87}, {"time": 4082, "pitch": 56, "duration": 5, "velocity": 82}, {"time": 4094, "pitch": 49, "duration": 26, "velocity": 88}, {"time": 4094, "pitch": 56, "duration": 4, "velocity": 81}, {"time": 4094, "pitch": 64, "duration": 12, "velocity": 81}, {"time": 4100, "pitch": 56, "duration": 6, "velocity": 81}, {"time": 4106, "pitch": 61, "duration": 6, "velocity": 81}, {"time": 4112, "pitch": 56, "duration": 7, "velocity": 77}, {"time": 4118, "pitch": 64, "duration": 3, "velocity": 81}, {"time": 4130, "pitch": 44, "duration": 32, "velocity": 83}, {"time": 4130, "pitch": 63, "duration": 13, "velocity": 81}, {"time": 4136, "pitch": 51, "duration": 25, "velocity": 76}, {"time": 4142, "pitch": 56, "duration": 10, "velocity": 83}, {"time": 4148, "pitch": 59, "duration": 7, "velocity": 87}, {"time": 4154, "pitch": 63, "duration": 7, "velocity": 88}, {"time": 4160, "pitch": 56, "duration": 4, "velocity": 82}, {"time": 4166, "pitch": 49, "duration": 29, "velocity": 82}, {"time": 4166, "pitch": 64, "duration": 13, "velocity": 84}, {"time": 4172, "pitch": 56, "duration": 7, "velocity": 81}, {"time": 4178, "pitch": 61, "duration": 9, "velocity": 77}, {"time": 4190, "pitch": 56, "duration": 5, "velocity": 78}, {"time": 4190, "pitch": 61, "duration": 5, "velocity": 83}, {"time": 4202, "pitch": 45, "duration": 26, "velocity": 86}, {"time": 4202, "pitch": 57, "duration": 6, "velocity": 82}, {"time": 4202, "pitch": 61, "duration": 13, "velocity": 82}, {"time": 4208, "pitch": 52, "duration": 20, "velocity": 74}, {"time": 4214, "pitch": 57, "duration": 11, "velocity": 81}, {"time": 4220, "pitch": 61, "duration": 6, "velocity": 73}, {"time": 4226, "pitch": 64, "duration": 6, "velocity": 87}, {"time": 4238, "pitch": 42, "duration": 27, "velocity": 83}, {"time": 4238, "pitch": 54, "duration": 11, "velocity": 81}, {"time": 4238, "pitch": 58, "duration": 13, "velocity": 82}, {"time": 4244, "pitch": 49, "duration": 20, "velocity": 81}, {"time": 4250, "pitch": 61, "duration": 8, "velocity": 83}, {"time": 4256, "pitch": 54, "duration": 6, "velocity": 82}, {"time": 4262, "pitch": 66, "duration": 5, "velocity": 84}, {"time": 4274, "pitch": 47, "duration": 32, "velocity": 86}, {"time": 4274, "pitch": 54, "duration": 4, "velocity": 82}, {"time": 4274, "pitch": 59, "duration": 7, "velocity": 80}, {"time": 4280, "pitch": 54, "duration": 6, "velocity": 83}, {"time": 4286, "pitch": 61, "duration": 7, "velocity": 82}, {"time": 4292, "pitch": 54, "duration": 7, "velocity": 87}, {"time": 4298, "pitch": 59, "duration": 6, "velocity": 87}, {"time": 4304, "pitch": 54, "duration": 3, "velocity": 83}, {"time": 4310, "pitch": 47, "duration": 29, "velocity": 97}, {"time": 4310, "pitch": 54, "duration": 5, "velocity": 86}, {"time": 4310, "pitch": 63, "duration": 8, "velocity": 87}, {"time": 4316, "pitch": 54, "duration": 4, "velocity": 75}, {"time": 4322, "pitch": 59, "duration": 6, "velocity": 87}, {"time": 4328, "pitch": 61, "duration": 8, "velocity": 90}, {"time": 4334, "pitch": 63, "duration": 10, "velocity": 86}, {"time": 4346, "pitch": 40, "duration": 33, "velocity": 83}, {"time": 4346, "pitch": 64, "duration": 8, "velocity": 83}, {"time": 4352, "pitch": 47, "duration": 27, "velocity": 75}, {"time": 4358, "pitch": 59, "duration": 8, "velocity": 87}, {"time": 4364, "pitch": 64, "duration": 7, "velocity": 83}, {"time": 4370, "pitch": 68, "duration": 7, "velocity": 88}, {"time": 4376, "pitch": 59, "duration": 4, "velocity": 82}, {"time": 4382, "pitch": 40, "duration": 29, "velocity": 82}, {"time": 4382, "pitch": 59, "duration": 13, "velocity": 83}, {"time": 4382, "pitch": 64, "duration": 18, "velocity": 82}, {"time": 4382, "pitch": 68, "duration": 21, "velocity": 83}, {"time": 4394, "pitch": 47, "duration": 17, "velocity": 76}, {"time": 4400, "pitch": 59, "duration": 8, "velocity": 81}, {"time": 4406, "pitch": 64, "duration": 11, "velocity": 83}, {"time": 4418, "pitch": 44, "duration": 33, "velocity": 87}, {"time": 4424, "pitch": 51, "duration": 27, "velocity": 73}, {"time": 4430, "pitch": 56, "duration": 8, "velocity": 84}, {"time": 4436, "pitch": 59, "duration": 4, "velocity": 95}, {"time": 4442, "pitch": 63, "duration": 4, "velocity": 90}, {"time": 4448, "pitch": 56, "duration": 3, "velocity": 78}, {"time": 4454, "pitch": 44, "duration": 32, "velocity": 82}, {"time": 4454, "pitch": 56, "duration": 9, "velocity": 82}, {"time": 4454, "pitch": 59, "duration": 8, "velocity": 85}, {"time": 4454, "pitch": 63, "duration": 8, "velocity": 83}, {"time": 4466, "pitch": 56, "duration": 4, "velocity": 77}, {"time": 4466, "pitch": 59, "duration": 7, "velocity": 83}, {"time": 4466, "pitch": 63, "duration": 7, "velocity": 88}, {"time": 4472, "pitch": 51, "duration": 15, "velocity": 81}, {"time": 4478, "pitch": 56, "duration": 5, "velocity": 77}, {"time": 4478, "pitch": 64, "duration": 7, "velocity": 83}, {"time": 4490, "pitch": 49, "duration": 31, "velocity": 86}, {"time": 4490, "pitch": 56, "duration": 5, "velocity": 81}, {"time": 4490, "pitch": 64, "duration": 11, "velocity": 82}, {"time": 4496, "pitch": 52, "duration": 25, "velocity": 70}, {"time": 4502, "pitch": 56, "duration": 12, "velocity": 70}, {"time": 4514, "pitch": 61, "duration": 8, "velocity": 84}, {"time": 4520, "pitch": 56, "duration": 4, "velocity": 76}, {"time": 4526, "pitch": 47, "duration": 24, "velocity": 87}, {"time": 4526, "pitch": 54, "duration": 9, "velocity": 83}, {"time": 4526, "pitch": 59, "duration": 10, "velocity": 83}, {"time": 4538, "pitch": 63, "duration": 11, "velocity": 87}, {"time": 4544, "pitch": 54, "duration": 7, "velocity": 81}, {"time": 4550, "pitch": 59, "duration": 3, "velocity": 79}, {"time": 4562, "pitch": 40, "duration": 33, "velocity": 83}, {"time": 4562, "pitch": 56, "duration": 7, "velocity": 76}, {"time": 4562, "pitch": 64, "duration": 14, "velocity": 81}, {"time": 4568, "pitch": 47, "duration": 27, "velocity": 71}, {"time": 4574, "pitch": 56, "duration": 12, "velocity": 81}, {"time": 4586, "pitch": 59, "duration": 8, "velocity": 86}, {"time": 4592, "pitch": 64, "duration": 4, "velocity": 81}, {"time": 4598, "pitch": 40, "duration": 24, "velocity": 82}, {"time": 4598, "pitch": 56, "duration": 14, "velocity": 82}, {"time": 4598, "pitch": 64, "duration": 19, "velocity": 84}, {"time": 4610, "pitch": 47, "duration": 9, "velocity": 82}, {"time": 4616, "pitch": 59, "duration": 11, "velocity": 97}, {"time": 4622, "pitch": 47, "duration": 4, "velocity": 81}, {"time": 4628, "pitch": 56, "duration": 3, "velocity": 83}, {"time": 4634, "pitch": 44, "duration": 29, "velocity": 82}, {"time": 4634, "pitch": 56, "duration": 13, "velocity": 84}, {"time": 4634, "pitch": 59, "duration": 14, "velocity": 83}, {"time": 4646, "pitch": 51, "duration": 18, "velocity": 81}, {"time": 4652, "pitch": 63, "duration": 8, "velocity": 86}, {"time": 4658, "pitch": 56, "duration": 8, "velocity": 83}, {"time": 4670, "pitch": 49, "duration": 25, "velocity": 88}, {"time": 4670, "pitch": 64, "duration": 18, "velocity": 86}, {"time": 4676, "pitch": 52, "duration": 19, "velocity": 78}, {"time": 4682, "pitch": 56, "duration": 8, "velocity": 82}, {"time": 4688, "pitch": 61, "duration": 7, "velocity": 75}, {"time": 4694, "pitch": 64, "duration": 9, "velocity": 85}, {"time": 4706, "pitch": 44, "duration": 22, "velocity": 82}, {"time": 4706, "pitch": 56, "duration": 15, "velocity": 77}, {"time": 4706, "pitch": 63, "duration": 19, "velocity": 81}, {"time": 4718, "pitch": 51, "duration": 10, "velocity": 83}, {"time": 4724, "pitch": 59, "duration": 6, "velocity": 83}, {"time": 4730, "pitch": 56, "duration": 3, "velocity": 84}, {"time": 4742, "pitch": 45, "duration": 27, "velocity": 81}, {"time": 4742, "pitch": 57, "duration": 13, "velocity": 81}, {"time": 4742, "pitch": 61, "duration": 20, "velocity": 81}, {"time": 4754, "pitch": 52, "duration": 17, "velocity": 80}, {"time": 4760, "pitch": 57, "duration": 8, "velocity": 81}, {"time": 4766, "pitch": 61, "duration": 2, "velocity": 51}, {"time": 4766, "pitch": 64, "duration": 8, "velocity": 82}, {"time": 4778, "pitch": 47, "duration": 32, "velocity": 87}, {"time": 4778, "pitch": 59, "duration": 12, "velocity": 76}, {"time": 4778, "pitch": 63, "duration": 11, "velocity": 81}, {"time": 4790, "pitch": 54, "duration": 21, "velocity": 76}, {"time": 4796, "pitch": 59, "duration": 7, "velocity": 82}, {"time": 4802, "pitch": 66, "duration": 9, "velocity": 78}, {"time": 4808, "pitch": 59, "duration": 4, "velocity": 81}, {"time": 4814, "pitch": 47, "duration": 18, "velocity": 84}, {"time": 4814, "pitch": 59, "duration": 20, "velocity": 84}, {"time": 4814, "pitch": 66, "duration": 19, "velocity": 76}, {"time": 4814, "pitch": 71, "duration": 18, "velocity": 77}, {"time": 4850, "pitch": 40, "duration": 32, "velocity": 82}, {"time": 4850, "pitch": 52, "duration": 12, "velocity": 69}, {"time": 4850, "pitch": 56, "duration": 16, "velocity": 74}, {"time": 4862, "pitch": 47, "duration": 21, "velocity": 77}, {"time": 4868, "pitch": 52, "duration": 7, "velocity": 72}, {"time": 4874, "pitch": 54, "duration": 7, "velocity": 81}, {"time": 4880, "pitch": 56, "duration": 4, "velocity": 76}, {"time": 4886, "pitch": 40, "duration": 34, "velocity": 81}, {"time": 4886, "pitch": 52, "duration": 8, "velocity": 76}, {"time": 4886, "pitch": 59, "duration": 9, "velocity": 83}, {"time": 4898, "pitch": 52, "duration": 8, "velocity": 81}, {"time": 4898, "pitch": 56, "duration": 7, "velocity": 81}, {"time": 4910, "pitch": 52, "duration": 4, "velocity": 82}, {"time": 4910, "pitch": 56, "duration": 10, "velocity": 83}, {"time": 4910, "pitch": 59, "duration": 11, "velocity": 82}, {"time": 4916, "pitch": 47, "duration": 5, "velocity": 83}, {"time": 4922, "pitch": 40, "duration": 58, "velocity": 86}, {"time": 4922, "pitch": 52, "duration": 13, "velocity": 79}, {"time": 4922, "pitch": 56, "duration": 16, "velocity": 81}, {"time": 4934, "pitch": 47, "duration": 44, "velocity": 77}, {"time": 4940, "pitch": 52, "duration": 6, "velocity": 83}, {"time": 4946, "pitch": 59, "duration": 8, "velocity": 81}, {"time": 4952, "pitch": 52, "duration": 3, "velocity": 76}, {"time": 4958, "pitch": 52, "duration": 9, "velocity": 97}, {"time": 4958, "pitch": 59, "duration": 8, "velocity": 83}, {"time": 4958, "pitch": 64, "duration": 10, "velocity": 82}, {"time": 4970, "pitch": 56, "duration": 8, "velocity": 74}, {"time": 4970, "pitch": 59, "duration": 9, "velocity": 75}, {"time": 4976, "pitch": 52, "duration": 5, "velocity": 77}, {"time": 4982, "pitch": 47, "duration": 2, "velocity": 83}, {"time": 4994, "pitch": 44, "duration": 55, "velocity": 84}, {"time": 4994, "pitch": 56, "duration": 13, "velocity": 77}, {"time": 4994, "pitch": 59, "duration": 10, "velocity": 81}, {"time": 5006, "pitch": 51, "duration": 39, "velocity": 81}, {"time": 5012, "pitch": 56, "duration": 5, "velocity": 76}, {"time": 5018, "pitch": 63, "duration": 6, "velocity": 79}, {"time": 5024, "pitch": 56, "duration": 3, "velocity": 72}, {"time": 5030, "pitch": 56, "duration": 8, "velocity": 76}, {"time": 5030, "pitch": 59, "duration": 7, "velocity": 86}, {"time": 5030, "pitch": 63, "duration": 7, "velocity": 82}, {"time": 5030, "pitch": 68, "duration": 7, "velocity": 81}, {"time": 5042, "pitch": 56, "duration": 3, "velocity": 84}, {"time": 5042, "pitch": 63, "duration": 5, "velocity": 83}, {"time": 5048, "pitch": 56, "duration": 6, "velocity": 82}, {"time": 5054, "pitch": 51, "duration": 3, "velocity": 86}, {"time": 5060, "pitch": 56, "duration": 4, "velocity": 85}, {"time": 5066, "pitch": 49, "duration": 19, "velocity": 86}, {"time": 5066, "pitch": 56, "duration": 9, "velocity": 83}, {"time": 5066, "pitch": 61, "duration": 9, "velocity": 83}, {"time": 5078, "pitch": 64, "duration": 8, "velocity": 84}, {"time": 5084, "pitch": 56, "duration": 8, "velocity": 81}, {"time": 5090, "pitch": 61, "duration": 3, "velocity": 81}, {"time": 5102, "pitch": 47, "duration": 23, "velocity": 87}, {"time": 5102, "pitch": 54, "duration": 4, "velocity": 82}, {"time": 5102, "pitch": 59, "duration": 7, "velocity": 79}, {"time": 5108, "pitch": 54, "duration": 5, "velocity": 78}, {"time": 5114, "pitch": 63, "duration": 11, "velocity": 82}, {"time": 5120, "pitch": 54, "duration": 7, "velocity": 78}, {"time": 5126, "pitch": 59, "duration": 3, "velocity": 83}, {"time": 5138, "pitch": 40, "duration": 32, "velocity": 82}, {"time": 5138, "pitch": 56, "duration": 10, "velocity": 77}, {"time": 5138, "pitch": 64, "duration": 10, "velocity": 80}, {"time": 5150, "pitch": 47, "duration": 17, "velocity": 77}, {"time": 5150, "pitch": 59, "duration": 6, "velocity": 82}, {"time": 5156, "pitch": 56, "duration": 5, "velocity": 82}, {"time": 5162, "pitch": 59, "duration": 4, "velocity": 79}, {"time": 5168, "pitch": 56, "duration": 3, "velocity": 72}, {"time": 5174, "pitch": 40, "duration": 23, "velocity": 84}, {"time": 5174, "pitch": 56, "duration": 13, "velocity": 81}, {"time": 5174, "pitch": 59, "duration": 19, "velocity": 86}, {"time": 5174, "pitch": 64, "duration": 20, "velocity": 71}, {"time": 5186, "pitch": 47, "duration": 9, "velocity": 82}, {"time": 5192, "pitch": 56, "duration": 5, "velocity": 81}, {"time": 5198, "pitch": 59, "duration": 3, "velocity": 88}, {"time": 5210, "pitch": 44, "duration": 30, "velocity": 82}, {"time": 5210, "pitch": 56, "duration": 6, "velocity": 79}, {"time": 5210, "pitch": 63, "duration": 12, "velocity": 81}, {"time": 5216, "pitch": 51, "duration": 23, "velocity": 74}, {"time": 5222, "pitch": 56, "duration": 6, "velocity": 81}, {"time": 5228, "pitch": 59, "duration": 6, "velocity": 87}, {"time": 5234, "pitch": 56, "duration": 5, "velocity": 82}, {"time": 5246, "pitch": 49, "duration": 26, "velocity": 88}, {"time": 5246, "pitch": 56, "duration": 4, "velocity": 81}, {"time": 5246, "pitch": 64, "duration": 12, "velocity": 81}, {"time": 5252, "pitch": 56, "duration": 6, "velocity": 81}, {"time": 5258, "pitch": 61, "duration": 6, "velocity": 81}, {"time": 5264, "pitch": 56, "duration": 7, "velocity": 77}, {"time": 5270, "pitch": 64, "duration": 3, "velocity": 81}, {"time": 5282, "pitch": 44, "duration": 32, "velocity": 83}, {"time": 5282, "pitch": 63, "duration": 13, "velocity": 81}, {"time": 5288, "pitch": 51, "duration": 25, "velocity": 76}, {"time": 5294, "pitch": 56, "duration": 10, "velocity": 83}, {"time": 5300, "pitch": 59, "duration": 7, "velocity": 87}, {"time": 5306, "pitch": 63, "duration": 7, "velocity": 88}, {"time": 5312, "pitch": 56, "duration": 4, "velocity": 82}, {"time": 5318, "pitch": 49, "duration": 29, "velocity": 82}, {"time": 5318, "pitch": 64, "duration": 13, "velocity": 84}, {"time": 5324, "pitch": 56, "duration": 7, "velocity": 81}, {"time": 5330, "pitch": 61, "duration": 9, "velocity": 77}, {"time": 5342, "pitch": 56, "duration": 5, "velocity": 78}, {"time": 5342, "pitch": 61, "duration": 5, "velocity": 83}, {"time": 5354, "pitch": 45, "duration": 26, "velocity": 86}, {"time": 5354, "pitch": 57, "duration": 6, "velocity": 82}, {"time": 5354, "pitch": 61, "duration": 13, "velocity": 82}, {"time": 5360, "pitch": 52, "duration": 20, "velocity": 74}, {"time": 5366, "pitch": 57, "duration": 11, "velocity": 81}, {"time": 5372, "pitch": 61, "duration": 6, "velocity": 73}, {"time": 5378, "pitch": 64, "duration": 6, "velocity": 87}, {"time": 5390, "pitch": 42, "duration": 27, "velocity": 83}, {"time": 5390, "pitch": 54, "duration": 11, "velocity": 81}, {"time": 5390, "pitch": 58, "duration": 13, "velocity": 82}, {"time": 5396, "pitch": 49, "duration": 20, "velocity": 81}, {"time": 5402, "pitch": 61, "duration": 8, "velocity": 83}, {"time": 5408, "pitch": 54, "duration": 6, "velocity": 82}, {"time": 5414, "pitch": 66, "duration": 5, "velocity": 84}, {"time": 5426, "pitch": 47, "duration": 32, "velocity": 86}, {"time": 5426, "pitch": 54, "duration": 4, "velocity": 82}, {"time": 5426, "pitch": 59, "duration": 7, "velocity": 80}, {"time": 5432, "pitch": 54, "duration": 6, "velocity": 83}, {"time": 5438, "pitch": 61, "duration": 7, "velocity": 82}, {"time": 5444, "pitch": 54, "duration": 7, "velocity": 87}, {"time": 5450, "pitch": 59, "duration": 6, "velocity": 87}, {"time": 5456, "pitch": 54, "duration": 3, "velocity": 83}, {"time": 5462, "pitch": 47, "duration": 29, "velocity": 97}, {"time": 5462, "pitch": 54, "duration": 5, "velocity": 86}, {"time": 5462, "pitch": 63, "duration": 8, "velocity": 87}, {"time": 5468, "pitch": 54, "duration": 4, "velocity": 75}, {"time": 5474, "pitch": 59, "duration": 6, "velocity": 87}, {"time": 5480, "pitch": 61, "duration": 8, "velocity": 90}, {"time": 5486, "pitch": 63, "duration": 10, "velocity": 86}, {"time": 5498, "pitch": 40, "duration": 33, "velocity": 83}, {"time": 5498, "pitch": 64, "duration": 8, "velocity": 83}, {"time": 5504, "pitch": 47, "duration": 27, "velocity": 75}, {"time": 5510, "pitch": 59, "duration": 8, "velocity": 87}, {"time": 5516, "pitch": 64, "duration": 7, "velocity": 83}, {"time": 5522, "pitch": 68, "duration": 7, "velocity": 88}, {"time": 5528, "pitch": 59, "duration": 4, "velocity": 82}, {"time": 5534, "pitch": 40, "duration": 29, "velocity": 82}, {"time": 5534, "pitch": 59, "duration": 13, "velocity": 83}, {"time": 5534, "pitch": 64, "duration": 18, "velocity": 82}, {"time": 5534, "pitch": 68, "duration": 21, "velocity": 83}, {"time": 5546, "pitch": 47, "duration": 17, "velocity": 76}, {"time": 5552, "pitch": 59, "duration": 8, "velocity": 81}, {"time": 5558, "pitch": 64, "duration": 11, "velocity": 83}, {"time": 5570, "pitch": 44, "duration": 33, "velocity": 87}, {"time": 5576, "pitch": 51, "duration": 27, "velocity": 73}, {"time": 5582, "pitch": 56, "duration": 8, "velocity": 84}, {"time": 5588, "pitch": 59, "duration": 4, "velocity": 95}, {"time": 5594, "pitch": 63, "duration": 4, "velocity": 90}, {"time": 5600, "pitch": 56, "duration": 3, "velocity": 78}, {"time": 5606, "pitch": 44, "duration": 32, "velocity": 82}, {"time": 5606, "pitch": 56, "duration": 9, "velocity": 82}, {"time": 5606, "pitch": 59, "duration": 8, "velocity": 85}, {"time": 5606, "pitch": 63, "duration": 8, "velocity": 83}, {"time": 5618, "pitch": 56, "duration": 4, "velocity": 77}, {"time": 5618, "pitch": 59, "duration": 7, "velocity": 83}, {"time": 5618, "pitch": 63, "duration": 7, "velocity": 88}, {"time": 5624, "pitch": 51, "duration": 15, "velocity": 81}, {"time": 5630, "pitch": 56, "duration": 5, "velocity": 77}, {"time": 5630, "pitch": 64, "duration": 7, "velocity": 83}, {"time": 5642, "pitch": 49, "duration": 31, "velocity": 86}, {"time": 5642, "pitch": 56, "duration": 5, "velocity": 81}, {"time": 5642, "pitch": 64, "duration": 11, "velocity": 82}, {"time": 5648, "pitch": 52, "duration": 25, "velocity": 70}, {"time": 5654, "pitch": 56, "duration": 12, "velocity": 70}, {"time": 5666, "pitch": 61, "duration": 8, "velocity": 84}, {"time": 5672, "pitch": 56, "duration": 4, "velocity": 76}, {"time": 5678, "pitch": 47, "duration": 24, "velocity": 87}, {"time": 5678, "pitch": 54, "duration": 9, "velocity": 83}, {"time": 5678, "pitch": 59, "duration": 10, "velocity": 83}, {"time": 5690, "pitch": 63, "duration": 11, "velocity": 87}, {"time": 5696, "pitch": 54, "duration": 7, "velocity": 81}, {"time": 5702, "pitch": 59, "duration": 3, "velocity": 79}, {"time": 5714, "pitch": 40, "duration": 33, "velocity": 83}, {"time": 5714, "pitch": 56, "duration": 7, "velocity": 76}, {"time": 5714, "pitch": 64, "duration": 14, "velocity": 81}, {"time": 5720, "pitch": 47, "duration": 27, "velocity": 71}, {"time": 5726, "pitch": 56, "duration": 12, "velocity": 81}, {"time": 5738, "pitch": 59, "duration": 8, "velocity": 86}, {"time": 5744, "pitch": 64, "duration": 4, "velocity": 81}, {"time": 5750, "pitch": 40, "duration": 24, "velocity": 82}, {"time": 5750, "pitch": 56, "duration": 14, "velocity": 82}, {"time": 5750, "pitch": 64, "duration": 19, "velocity": 84}, {"time": 5762, "pitch": 47, "duration": 9, "velocity": 82}, {"time": 5768, "pitch": 59, "duration": 11, "velocity": 97}, {"time": 5774, "pitch": 47, "duration": 4, "velocity": 81}, {"time": 5780, "pitch": 56, "duration": 3, "velocity": 83}, {"time": 5786, "pitch": 44, "duration": 29, "velocity": 82}, {"time": 5786, "pitch": 56, "duration": 13, "velocity": 84}, {"time": 5786, "pitch": 59, "duration": 14, "velocity": 83}, {"time": 5798, "pitch": 51, "duration": 18, "velocity": 81}, {"time": 5804, "pitch": 63, "duration": 8, "velocity": 86}, {"time": 5810, "pitch": 56, "duration": 8, "velocity": 83}, {"time": 5822, "pitch": 49, "duration": 25, "velocity": 88}, {"time": 5822, "pitch": 64, "duration": 18, "velocity": 86}, {"time": 5828, "pitch": 52, "duration": 19, "velocity": 78}, {"time": 5834, "pitch": 56, "duration": 8, "velocity": 82}, {"time": 5840, "pitch": 61, "duration": 7, "velocity": 75}, {"time": 5846, "pitch": 64, "duration": 9, "velocity": 85}, {"time": 5858, "pitch": 44, "duration": 22, "velocity": 82}, {"time": 5858, "pitch": 56, "duration": 15, "velocity": 77}, {"time": 5858, "pitch": 63, "duration": 19, "velocity": 81}, {"time": 5870, "pitch": 51, "duration": 10, "velocity": 83}, {"time": 5876, "pitch": 59, "duration": 6, "velocity": 83}, {"time": 5882, "pitch": 56, "duration": 3, "velocity": 84}, {"time": 5894, "pitch": 45, "duration": 27, "velocity": 81}, {"time": 5894, "pitch": 57, "duration": 13, "velocity": 81}, {"time": 5894, "pitch": 61, "duration": 20, "velocity": 81}, {"time": 5906, "pitch": 52, "duration": 17, "velocity": 80}, {"time": 5912, "pitch": 57, "duration": 8, "velocity": 81}, {"time": 5918, "pitch": 61, "duration": 2, "velocity": 51}, {"time": 5918, "pitch": 64, "duration": 8, "velocity": 82}, {"time": 5930, "pitch": 47, "duration": 32, "velocity": 87}, {"time": 5930, "pitch": 59, "duration": 12, "velocity": 76}, {"time": 5930, "pitch": 63, "duration": 11, "velocity": 81}, {"time": 5942, "pitch": 54, "duration": 21, "velocity": 76}, {"time": 5948, "pitch": 59, "duration": 7, "velocity": 82}, {"time": 5954, "pitch": 66, "duration": 9, "velocity": 78}, {"time": 5960, "pitch": 59, "duration": 4, "velocity": 81}, {"time": 5966, "pitch": 47, "duration": 18, "velocity": 84}, {"time": 5966, "pitch": 59, "duration": 20, "velocity": 84}, {"time": 5966, "pitch": 66, "duration": 19, "velocity": 76}, {"time": 5966, "pitch": 71, "duration": 18, "velocity": 77}, {"time": 6002, "pitch": 40, "duration": 32, "velocity": 82}, {"time": 6002, "pitch": 52, "duration": 12, "velocity": 69}, {"time": 6002, "pitch": 56, "duration": 16, "velocity": 74}, {"time": 6014, "pitch": 47, "duration": 21, "velocity": 77}, {"time": 6020, "pitch": 52, "duration": 7, "velocity": 72}, {"time": 6026, "pitch": 54, "duration": 7, "velocity": 81}, {"time": 6032, "pitch": 56, "duration": 4, "velocity": 76}, {"time": 6034, "pitch": 52, "duration": 63, "velocity": 68}, {"time": 6035, "pitch": 40, "duration": 62, "velocity": 66}, {"time": 6035, "pitch": 56, "duration": 1, "velocity": 73}, {"time": 6038, "pitch": 59, "duration": 59, "velocity": 62}, {"time": 6038, "pitch": 64, "duration": 60, "velocity": 69}], "annotations": [{"time": 26, "annotation": {"number": 64, "value": 127}, "group": "control_change"}, {"time": 26, "annotation": {"number": 64, "value": 0}, "group": "control_change"}, {"time": 60, "annotation": {"number": 64, "value": 0}, "group": "control_change"}, {"time": 64, "annotation": {"number": 64, "value": 127}, "group": "control_change"}, {"time": 96, "annotation": {"number": 64, "value": 0}, "group": "control_change"}, {"time": 99, "annotation": {"number": 64, "value": 127}, "group": "control_change"}, {"time": 130, "annotation": {"number": 64, "value": 0}, "group": "control_change"}, {"time": 134, "annotation": {"number": 64, "value": 127}, "group": "control_change"}, {"time": 166, "annotation": {"number": 64, "value": 0}, "group": "control_change"}, {"time": 172, "annotation": {"number": 64, "value": 127}, "group": "control_change"}, {"time": 202, "annotation": {"number": 64, "value": 0}, "group": "control_change"}, {"time": 209, "annotation": {"number": 64, "value": 127}, "group": "control_change"}, {"time": 238, "annotation": {"number": 64, "value": 0}, "group": "control_change"}, {"time": 243, "annotation": {"number": 64, "value": 127}, "group": "control_change"}, {"time": 275, "annotation": {"number": 64, "value": 0}, "group": "control_change"}, {"time": 279, "annotation": {"number": 64, "value": 127}, "group": "control_change"}, {"time": 312, "annotation": {"number": 64, "value": 0}, "group": "control_change"}, {"time": 315, "annotation": {"number": 64, "value": 127}, "group": "control_change"}, {"time": 347, "annotation": {"number": 64, "value": 0}, "group": "control_change"}, {"time": 352, "annotation": {"number": 64, "value": 127}, "group": "control_change"}, {"time": 382, "annotation": {"number": 64, "value": 0}, "group": "control_change"}, {"time": 385, "annotation": {"number": 64, "value": 127}, "group": "control_change"}, {"time": 419, "annotation": {"number": 64, "value": 0}, "group": "control_change"}, {"time": 420, "annotation": {"number": 64, "value": 127}, "group": "control_change"}, {"time": 455, "annotation": {"number": 64, "value": 0}, "group": "control_change"}, {"time": 460, "annotation": {"number": 64, "value": 127}, "group": "control_change"}, {"time": 527, "annotation": {"number": 64, "value": 0}, "group": "control_change"}, {"time": 530, "annotation": {"number": 64, "value": 127}, "group": "control_change"}, {"time": 577, "annotation": {"number": 64, "value": 0}, "group": "control_change"}, {"time": 583, "annotation": {"number": 64, "value": 127}, "group": "control_change"}, {"time": 601, "annotation": {"number": 64, "value": 0}, "group": "control_change"}, {"time": 602, "annotation": {"number": 64, "value": 127}, "group": "control_change"}, {"time": 636, "annotation": {"number": 64, "value": 0}, "group": "control_change"}, {"time": 643, "annotation": {"number": 64, "value": 127}, "group": "control_change"}, {"time": 670, "annotation": {"number": 64, "value": 0}, "group": "control_change"}, {"time": 674, "annotation": {"number": 64, "value": 127}, "group": "control_change"}, {"time": 707, "annotation": {"number": 64, "value": 0}, "group": "control_change"}, {"time": 709, "annotation": {"number": 64, "value": 127}, "group": "control_change"}, {"time": 741, "annotation": {"number": 64, "value": 0}, "group": "control_change"}, {"time": 746, "annotation": {"number": 64, "value": 127}, "group": "control_change"}, {"time": 779, "annotation": {"number": 64, "value": 0}, "group": "control_change"}, {"time": 781, "annotation": {"number": 64, "value": 127}, "group": "control_change"}, {"time": 812, "annotation": {"number": 64, "value": 0}, "group": "control_change"}, {"time": 818, "annotation": {"number": 64, "value": 127}, "group": "control_change"}, {"time": 851, "annotation": {"number": 64, "value": 0}, "group": "control_change"}, {"time": 856, "annotation": {"number": 64, "value": 127}, "group": "control_change"}, {"time": 885, "annotation": {"number": 64, "value": 0}, "group": "control_change"}, {"time": 895, "annotation": {"number": 64, "value": 127}, "group": "control_change"}, {"time": 920, "annotation": {"number": 64, "value": 0}, "group": "control_change"}, {"time": 925, "annotation": {"number": 64, "value": 127}, "group": "control_change"}, {"time": 958, "annotation": {"number": 64, "value": 0}, "group": "control_change"}, {"time": 963, "annotation": {"number": 64, "value": 127}, "group": "control_change"}, {"time": 994, "annotation": {"number": 64, "value": 0}, "group": "control_change"}, {"time": 997, "annotation": {"number": 64, "value": 127}, "group": "control_change"}, {"time": 1027, "annotation": {"number": 64, "value": 0}, "group": "control_change"}, {"time": 1034, "annotation": {"number": 64, "value": 127}, "group": "control_change"}, {"time": 1102, "annotation": {"number": 64, "value": 0}, "group": "control_change"}, {"time": 1106, "annotation": {"number": 64, "value": 127}, "group": "control_change"}, {"time": 1174, "annotation": {"number": 64, "value": 0}, "group": "control_change"}, {"time": 1179, "annotation": {"number": 64, "value": 127}, "group": "control_change"}, {"time": 1247, "annotation": {"number": 64, "value": 0}, "group": "control_change"}, {"time": 1252, "annotation": {"number": 64, "value": 127}, "group": "control_change"}, {"time": 1316, "annotation": {"number": 64, "value": 0}, "group": "control_change"}, {"time": 1324, "annotation": {"number": 64, "value": 127}, "group": "control_change"}, {"time": 1389, "annotation": {"number": 64, "value": 0}, "group": "control_change"}, {"time": 1394, "annotation": {"number": 64, "value": 127}, "group": "control_change"}, {"time": 1427, "annotation": {"number": 64, "value": 0}, "group": "control_change"}, {"time": 1431, "annotation": {"number": 64, "value": 127}, "group": "control_change"}, {"time": 1463, "annotation": {"number": 64, "value": 0}, "group": "control_change"}, {"time": 1468, "annotation": {"number": 64, "value": 127}, "group": "control_change"}, {"time": 1514, "annotation": {"number": 64, "value": 0}, "group": "control_change"}, {"time": 1519, "annotation": {"number": 64, "value": 127}, "group": "control_change"}, {"time": 1534, "annotation": {"number": 64, "value": 0}, "group": "control_change"}, {"time": 1539, "annotation": {"number": 64, "value": 127}, "group": "control_change"}, {"time": 1571, "annotation": {"number": 64, "value": 0}, "group": "control_change"}, {"time": 1574, "annotation": {"number": 64, "value": 127}, "group": "control_change"}, {"time": 1606, "annotation": {"number": 64, "value": 0}, "group": "control_change"}, {"time": 1610, "annotation": {"number": 64, "value": 127}, "group": "control_change"}, {"time": 1680, "annotation": {"number": 64, "value": 0}, "group": "control_change"}, {"time": 1684, "annotation": {"number": 64, "value": 127}, "group": "control_change"}, {"time": 1751, "annotation": {"number": 64, "value": 0}, "group": "control_change"}, {"time": 1754, "annotation": {"number": 64, "value": 127}, "group": "control_change"}, {"time": 1787, "annotation": {"number": 64, "value": 0}, "group": "control_change"}, {"time": 1790, "annotation": {"number": 64, "value": 127}, "group": "control_change"}, {"time": 1823, "annotation": {"number": 64, "value": 0}, "group": "control_change"}, {"time": 1825, "annotation": {"number": 64, "value": 127}, "group": "control_change"}, {"time": 1859, "annotation": {"number": 64, "value": 0}, "group": "control_change"}, {"time": 1862, "annotation": {"number": 64, "value": 127}, "group": "control_change"}, {"time": 1894, "annotation": {"number": 64, "value": 0}, "group": "control_change"}, {"time": 1899, "annotation": {"number": 64, "value": 127}, "group": "control_change"}, {"time": 1930, "annotation": {"number": 64, "value": 0}, "group": "control_change"}, {"time": 1934, "annotation": {"number": 64, "value": 127}, "group": "control_change"}, {"time": 1968, "annotation": {"number": 64, "value": 0}, "group": "control_change"}, {"time": 1973, "annotation": {"number": 64, "value": 127}, "group": "control_change"}, {"time": 2002, "annotation": {"number": 64, "value": 0}, "group": "control_change"}, {"time": 2006, "annotation": {"number": 64, "value": 127}, "group": "control_change"}, {"time": 2039, "annotation": {"number": 64, "value": 0}, "group": "control_change"}, {"time": 2043, "annotation": {"number": 64, "value": 127}, "group": "control_change"}, {"time": 2076, "annotation": {"number": 64, "value": 0}, "group": "control_change"}, {"time": 2079, "annotation": {"number": 64, "value": 127}, "group": "control_change"}, {"time": 2111, "annotation": {"number": 64, "value": 0}, "group": "control_change"}, {"time": 2116, "annotation": {"number": 64, "value": 127}, "group": "control_change"}, {"time": 2147, "annotation": {"number": 64, "value": 0}, "group": "control_change"}, {"time": 2149, "annotation": {"number": 64, "value": 127}, "group": "control_change"}, {"time": 2183, "annotation": {"number": 64, "value": 0}, "group": "control_change"}, {"time": 2187, "annotation": {"number": 64, "value": 127}, "group": "control_change"}, {"time": 2221, "annotation": {"number": 64, "value": 0}, "group": "control_change"}, {"time": 2222, "annotation": {"number": 64, "value": 127}, "group": "control_change"}, {"time": 2255, "annotation": {"number": 64, "value": 0}, "group": "control_change"}, {"time": 2258, "annotation": {"number": 64, "value": 127}, "group": "control_change"}, {"time": 2327, "annotation": {"number": 64, "value": 0}, "group": "control_change"}, {"time": 2331, "annotation": {"number": 64, "value": 127}, "group": "control_change"}, {"time": 2364, "annotation": {"number": 64, "value": 0}, "group": "control_change"}, {"time": 2367, "annotation": {"number": 64, "value": 127}, "group": "control_change"}, {"time": 2399, "annotation": {"number": 64, "value": 0}, "group": "control_change"}, {"time": 2403, "annotation": {"number": 64, "value": 127}, "group": "control_change"}, {"time": 2436, "annotation": {"number": 64, "value": 0}, "group": "control_change"}, {"time": 2438, "annotation": {"number": 64, "value": 127}, "group": "control_change"}, {"time": 2471, "annotation": {"number": 64, "value": 0}, "group": "control_change"}, {"time": 2474, "annotation": {"number": 64, "value": 127}, "group": "control_change"}, {"time": 2506, "annotation": {"number": 64, "value": 0}, "group": "control_change"}, {"time": 2511, "annotation": {"number": 64, "value": 127}, "group": "control_change"}, {"time": 2543, "annotation": {"number": 64, "value": 0}, "group": "control_change"}, {"time": 2550, "annotation": {"number": 64, "value": 127}, "group": "control_change"}, {"time": 2578, "annotation": {"number": 64, "value": 0}, "group": "control_change"}, {"time": 2582, "annotation": {"number": 64, "value": 127}, "group": "control_change"}, {"time": 2617, "annotation": {"number": 64, "value": 0}, "group": "control_change"}, {"time": 2619, "annotation": {"number": 64, "value": 127}, "group": "control_change"}, {"time": 2651, "annotation": {"number": 64, "value": 0}, "group": "control_change"}, {"time": 2653, "annotation": {"number": 64, "value": 127}, "group": "control_change"}, {"time": 2686, "annotation": {"number": 64, "value": 0}, "group": "control_change"}, {"time": 2697, "annotation": {"number": 64, "value": 127}, "group": "control_change"}, {"time": 2722, "annotation": {"number": 64, "value": 0}, "group": "control_change"}, {"time": 2727, "annotation": {"number": 64, "value": 127}, "group": "control_change"}, {"time": 2755, "annotation": {"number": 64, "value": 0}, "group": "control_change"}, {"time": 2796, "annotation": {"number": 64, "value": 0}, "group": "control_change"}, {"time": 2798, "annotation": {"number": 64, "value": 127}, "group": "control_change"}, {"time": 2834, "annotation": {"number": 64, "value": 0}, "group": "control_change"}, {"time": 2844, "annotation": {"number": 64, "value": 127}, "group": "control_change"}, {"time": 2901, "annotation": {"number": 64, "value": 0}, "group": "control_change"}, {"time": 2905, "annotation": {"number": 64, "value": 127}, "group": "control_change"}, {"time": 2973, "annotation": {"number": 64, "value": 0}, "group": "control_change"}, {"time": 2978, "annotation": {"number": 64, "value": 127}, "group": "control_change"}, {"time": 3043, "annotation": {"number": 64, "value": 0}, "group": "control_change"}, {"time": 3051, "annotation": {"number": 64, "value": 127}, "group": "control_change"}, {"time": 3081, "annotation": {"number": 64, "value": 0}, "group": "control_change"}, {"time": 3087, "annotation": {"number": 64, "value": 127}, "group": "control_change"}, {"time": 3116, "annotation": {"number": 64, "value": 0}, "group": "control_change"}, {"time": 3122, "annotation": {"number": 64, "value": 127}, "group": "control_change"}, {"time": 3184, "annotation": {"number": 64, "value": 0}, "group": "control_change"}, {"time": 3194, "annotation": {"number": 64, "value": 127}, "group": "control_change"}, {"time": 3262, "annotation": {"number": 64, "value": 0}, "group": "control_change"}, {"time": 3266, "annotation": {"number": 64, "value": 127}, "group": "control_change"}, {"time": 3334, "annotation": {"number": 64, "value": 0}, "group": "control_change"}, {"time": 3339, "annotation": {"number": 64, "value": 127}, "group": "control_change"}, {"time": 3407, "annotation": {"number": 64, "value": 0}, "group": "control_change"}, {"time": 3412, "annotation": {"number": 64, "value": 127}, "group": "control_change"}, {"time": 3476, "annotation": {"number": 64, "value": 0}, "group": "control_change"}, {"time": 3484, "annotation": {"number": 64, "value": 127}, "group": "control_change"}, {"time": 3549, "annotation": {"number": 64, "value": 0}, "group": "control_change"}, {"time": 3554, "annotation": {"number": 64, "value": 127}, "group": "control_change"}, {"time": 3587, "annotation": {"number": 64, "value": 0}, "group": "control_change"}, {"time": 3591, "annotation": {"number": 64, "value": 127}, "group": "control_change"}, {"time": 3623, "annotation": {"number": 64, "value": 0}, "group": "control_change"}, {"time": 3628, "annotation": {"number": 64, "value": 127}, "group": "control_change"}, {"time": 3674, "annotation": {"number": 64, "value": 0}, "group": "control_change"}, {"time": 3679, "annotation": {"number": 64, "value": 127}, "group": "control_change"}, {"time": 3694, "annotation": {"number": 64, "value": 0}, "group": "control_change"}, {"time": 3699, "annotation": {"number": 64, "value": 127}, "group": "control_change"}, {"time": 3731, "annotation": {"number": 64, "value": 0}, "group": "control_change"}, {"time": 3734, "annotation": {"number": 64, "value": 127}, "group": "control_change"}, {"time": 3766, "annotation": {"number": 64, "value": 0}, "group": "control_change"}, {"time": 3770, "annotation": {"number": 64, "value": 127}, "group": "control_change"}, {"time": 3840, "annotation": {"number": 64, "value": 0}, "group": "control_change"}, {"time": 3844, "annotation": {"number": 64, "value": 127}, "group": "control_change"}, {"time": 3911, "annotation": {"number": 64, "value": 0}, "group": "control_change"}, {"time": 3914, "annotation": {"number": 64, "value": 127}, "group": "control_change"}, {"time": 3947, "annotation": {"number": 64, "value": 0}, "group": "control_change"}, {"time": 3950, "annotation": {"number": 64, "value": 127}, "group": "control_change"}, {"time": 3983, "annotation": {"number": 64, "value": 0}, "group": "control_change"}, {"time": 3985, "annotation": {"number": 64, "value": 127}, "group": "control_change"}, {"time": 4019, "annotation": {"number": 64, "value": 0}, "group": "control_change"}, {"time": 4022, "annotation": {"number": 64, "value": 127}, "group": "control_change"}, {"time": 4054, "annotation": {"number": 64, "value": 0}, "group": "control_change"}, {"time": 4059, "annotation": {"number": 64, "value": 127}, "group": "control_change"}, {"time": 4090, "annotation": {"number": 64, "value": 0}, "group": "control_change"}, {"time": 4094, "annotation": {"number": 64, "value": 127}, "group": "control_change"}, {"time": 4128, "annotation": {"number": 64, "value": 0}, "group": "control_change"}, {"time": 4133, "annotation": {"number": 64, "value": 127}, "group": "control_change"}, {"time": 4162, "annotation": {"number": 64, "value": 0}, "group": "control_change"}, {"time": 4166, "annotation": {"number": 64, "value": 127}, "group": "control_change"}, {"time": 4199, "annotation": {"number": 64, "value": 0}, "group": "control_change"}, {"time": 4203, "annotation": {"number": 64, "value": 127}, "group": "control_change"}, {"time": 4236, "annotation": {"number": 64, "value": 0}, "group": "control_change"}, {"time": 4239, "annotation": {"number": 64, "value": 127}, "group": "control_change"}, {"time": 4271, "annotation": {"number": 64, "value": 0}, "group": "control_change"}, {"time": 4276, "annotation": {"number": 64, "value": 127}, "group": "control_change"}, {"time": 4307, "annotation": {"number": 64, "value": 0}, "group": "control_change"}, {"time": 4309, "annotation": {"number": 64, "value": 127}, "group": "control_change"}, {"time": 4343, "annotation": {"number": 64, "value": 0}, "group": "control_change"}, {"time": 4347, "annotation": {"number": 64, "value": 127}, "group": "control_change"}, {"time": 4381, "annotation": {"number": 64, "value": 0}, "group": "control_change"}, {"time": 4382, "annotation": {"number": 64, "value": 127}, "group": "control_change"}, {"time": 4415, "annotation": {"number": 64, "value": 0}, "group": "control_change"}, {"time": 4418, "annotation": {"number": 64, "value": 127}, "group": "control_change"}, {"time": 4487, "annotation": {"number": 64, "value": 0}, "group": "control_change"}, {"time": 4491, "annotation": {"number": 64, "value": 127}, "group": "control_change"}, {"time": 4524, "annotation": {"number": 64, "value": 0}, "group": "control_change"}, {"time": 4527, "annotation": {"number": 64, "value": 127}, "group": "control_change"}, {"time": 4559, "annotation": {"number": 64, "value": 0}, "group": "control_change"}, {"time": 4563, "annotation": {"number": 64, "value": 127}, "group": "control_change"}, {"time": 4596, "annotation": {"number": 64, "value": 0}, "group": "control_change"}, {"time": 4598, "annotation": {"number": 64, "value": 127}, "group": "control_change"}, {"time": 4631, "annotation": {"number": 64, "value": 0}, "group": "control_change"}, {"time": 4634, "annotation": {"number": 64, "value": 127}, "group": "control_change"}, {"time": 4666, "annotation": {"number": 64, "value": 0}, "group": "control_change"}, {"time": 4671, "annotation": {"number": 64, "value": 127}, "group": "control_change"}, {"time": 4703, "annotation": {"number": 64, "value": 0}, "group": "control_change"}, {"time": 4710, "annotation": {"number": 64, "value": 127}, "group": "control_change"}, {"time": 4738, "annotation": {"number": 64, "value": 0}, "group": "control_change"}, {"time": 4742, "annotation": {"number": 64, "value": 127}, "group": "control_change"}, {"time": 4777, "annotation": {"number": 64, "value": 0}, "group": "control_change"}, {"time": 4779, "annotation": {"number": 64, "value": 127}, "group": "control_change"}, {"time": 4811, "annotation": {"number": 64, "value": 0}, "group": "control_change"}, {"time": 4813, "annotation": {"number": 64, "value": 127}, "group": "control_change"}, {"time": 4846, "annotation": {"number": 64, "value": 0}, "group": "control_change"}, {"time": 4857, "annotation": {"number": 64, "value": 127}, "group": "control_change"}, {"time": 4882, "annotation": {"number": 64, "value": 0}, "group": "control_change"}, {"time": 4887, "annotation": {"number": 64, "value": 127}, "group": "control_change"}, {"time": 4915, "annotation": {"number": 64, "value": 0}, "group": "control_change"}, {"time": 4922, "annotation": {"number": 64, "value": 127}, "group": "control_change"}, {"time": 4992, "annotation": {"number": 64, "value": 0}, "group": "control_change"}, {"time": 4996, "annotation": {"number": 64, "value": 127}, "group": "control_change"}, {"time": 5063, "annotation": {"number": 64, "value": 0}, "group": "control_change"}, {"time": 5066, "annotation": {"number": 64, "value": 127}, "group": "control_change"}, {"time": 5099, "annotation": {"number": 64, "value": 0}, "group": "control_change"}, {"time": 5102, "annotation": {"number": 64, "value": 127}, "group": "control_change"}, {"time": 5135, "annotation": {"number": 64, "value": 0}, "group": "control_change"}, {"time": 5137, "annotation": {"number": 64, "value": 127}, "group": "control_change"}, {"time": 5171, "annotation": {"number": 64, "value": 0}, "group": "control_change"}, {"time": 5174, "annotation": {"number": 64, "value": 127}, "group": "control_change"}, {"time": 5206, "annotation": {"number": 64, "value": 0}, "group": "control_change"}, {"time": 5211, "annotation": {"number": 64, "value": 127}, "group": "control_change"}, {"time": 5242, "annotation": {"number": 64, "value": 0}, "group": "control_change"}, {"time": 5246, "annotation": {"number": 64, "value": 127}, "group": "control_change"}, {"time": 5280, "annotation": {"number": 64, "value": 0}, "group": "control_change"}, {"time": 5285, "annotation": {"number": 64, "value": 127}, "group": "control_change"}, {"time": 5314, "annotation": {"number": 64, "value": 0}, "group": "control_change"}, {"time": 5318, "annotation": {"number": 64, "value": 127}, "group": "control_change"}, {"time": 5351, "annotation": {"number": 64, "value": 0}, "group": "control_change"}, {"time": 5355, "annotation": {"number": 64, "value": 127}, "group": "control_change"}, {"time": 5388, "annotation": {"number": 64, "value": 0}, "group": "control_change"}, {"time": 5391, "annotation": {"number": 64, "value": 127}, "group": "control_change"}, {"time": 5423, "annotation": {"number": 64, "value": 0}, "group": "control_change"}, {"time": 5428, "annotation": {"number": 64, "value": 127}, "group": "control_change"}, {"time": 5459, "annotation": {"number": 64, "value": 0}, "group": "control_change"}, {"time": 5461, "annotation": {"number": 64, "value": 127}, "group": "control_change"}, {"time": 5495, "annotation": {"number": 64, "value": 0}, "group": "control_change"}, {"time": 5499, "annotation": {"number": 64, "value": 127}, "group": "control_change"}, {"time": 5533, "annotation": {"number": 64, "value": 0}, "group": "control_change"}, {"time": 5534, "annotation": {"number": 64, "value": 127}, "group": "control_change"}, {"time": 5567, "annotation": {"number": 64, "value": 0}, "group": "control_change"}, {"time": 5570, "annotation": {"number": 64, "value": 127}, "group": "control_change"}, {"time": 5639, "annotation": {"number": 64, "value": 0}, "group": "control_change"}, {"time": 5643, "annotation": {"number": 64, "value": 127}, "group": "control_change"}, {"time": 5676, "annotation": {"number": 64, "value": 0}, "group": "control_change"}, {"time": 5679, "annotation": {"number": 64, "value": 127}, "group": "control_change"}, {"time": 5711, "annotation": {"number": 64, "value": 0}, "group": "control_change"}, {"time": 5715, "annotation": {"number": 64, "value": 127}, "group": "control_change"}, {"time": 5748, "annotation": {"number": 64, "value": 0}, "group": "control_change"}, {"time": 5750, "annotation": {"number": 64, "value": 127}, "group": "control_change"}, {"time": 5783, "annotation": {"number": 64, "value": 0}, "group": "control_change"}, {"time": 5786, "annotation": {"number": 64, "value": 127}, "group": "control_change"}, {"time": 5818, "annotation": {"number": 64, "value": 0}, "group": "control_change"}, {"time": 5823, "annotation": {"number": 64, "value": 127}, "group": "control_change"}, {"time": 5855, "annotation": {"number": 64, "value": 0}, "group": "control_change"}, {"time": 5862, "annotation": {"number": 64, "value": 127}, "group": "control_change"}, {"time": 5890, "annotation": {"number": 64, "value": 0}, "group": "control_change"}, {"time": 5894, "annotation": {"number": 64, "value": 127}, "group": "control_change"}, {"time": 5929, "annotation": {"number": 64, "value": 0}, "group": "control_change"}, {"time": 5931, "annotation": {"number": 64, "value": 127}, "group": "control_change"}, {"time": 5963, "annotation": {"number": 64, "value": 0}, "group": "control_change"}, {"time": 5965, "annotation": {"number": 64, "value": 127}, "group": "control_change"}, {"time": 5998, "annotation": {"number": 64, "value": 0}, "group": "control_change"}, {"time": 6009, "annotation": {"number": 64, "value": 127}, "group": "control_change"}, {"time": 6034, "annotation": {"number": 64, "value": 0}, "group": "control_change"}]}]}