{"metadata": {"schema_version": "0.2", "title": "None", "source_filename": "663.mid", "source_format": "midi"}, "resolution": 12, "tempos": [{"time": 0, "qpm": 92.00012880018032}], "time_signatures": [{"time": 0, "numerator": 1, "denominator": 4}], "tracks": [{"program": 4, "is_drum": false, "name": "MELODY", "notes": [{"time": 482, "pitch": 65, "duration": 4, "velocity": 88}, {"time": 488, "pitch": 68, "duration": 5, "velocity": 87}, {"time": 494, "pitch": 70, "duration": 11, "velocity": 84}, {"time": 506, "pitch": 70, "duration": 5, "velocity": 88}, {"time": 512, "pitch": 77, "duration": 4, "velocity": 85}, {"time": 518, "pitch": 75, "duration": 4, "velocity": 90}, {"time": 524, "pitch": 73, "duration": 5, "velocity": 87}, {"time": 530, "pitch": 72, "duration": 6, "velocity": 86}, {"time": 536, "pitch": 75, "duration": 5, "velocity": 93}, {"time": 542, "pitch": 73, "duration": 4, "velocity": 84}, {"time": 548, "pitch": 72, "duration": 5, "velocity": 88}, {"time": 554, "pitch": 70, "duration": 5, "velocity": 80}, {"time": 560, "pitch": 68, "duration": 5, "velocity": 79}, {"time": 566, "pitch": 70, "duration": 10, "velocity": 82}, {"time": 584, "pitch": 68, "duration": 4, "velocity": 84}, {"time": 590, "pitch": 70, "duration": 12, "velocity": 84}, {"time": 602, "pitch": 77, "duration": 9, "velocity": 87}, {"time": 614, "pitch": 75, "duration": 9, "velocity": 89}, {"time": 626, "pitch": 80, "duration": 9, "velocity": 85}, {"time": 638, "pitch": 77, "duration": 32, "velocity": 88}, {"time": 674, "pitch": 65, "duration": 4, "velocity": 88}, {"time": 680, "pitch": 68, "duration": 4, "velocity": 87}, {"time": 686, "pitch": 70, "duration": 9, "velocity": 87}, {"time": 698, "pitch": 70, "duration": 5, "velocity": 87}, {"time": 704, "pitch": 77, "duration": 4, "velocity": 89}, {"time": 710, "pitch": 75, "duration": 5, "velocity": 90}, {"time": 716, "pitch": 73, "duration": 5, "velocity": 87}, {"time": 722, "pitch": 72, "duration": 4, "velocity": 88}, {"time": 728, "pitch": 75, "duration": 4, "velocity": 91}, {"time": 734, "pitch": 73, "duration": 5, "velocity": 86}, {"time": 740, "pitch": 72, "duration": 5, "velocity": 87}, {"time": 746, "pitch": 70, "duration": 4, "velocity": 87}, {"time": 752, "pitch": 68, "duration": 4, "velocity": 87}, {"time": 758, "pitch": 70, "duration": 12, "velocity": 87}, {"time": 776, "pitch": 68, "duration": 4, "velocity": 84}, {"time": 782, "pitch": 70, "duration": 10, "velocity": 87}, {"time": 794, "pitch": 77, "duration": 9, "velocity": 92}, {"time": 806, "pitch": 75, "duration": 9, "velocity": 92}, {"time": 818, "pitch": 72, "duration": 11, "velocity": 82}, {"time": 830, "pitch": 70, "duration": 33, "velocity": 87}, {"time": 866, "pitch": 73, "duration": 4, "velocity": 90}, {"time": 872, "pitch": 75, "duration": 5, "velocity": 90}, {"time": 878, "pitch": 77, "duration": 8, "velocity": 86}, {"time": 890, "pitch": 80, "duration": 10, "velocity": 86}, {"time": 902, "pitch": 82, "duration": 4, "velocity": 87}, {"time": 908, "pitch": 80, "duration": 5, "velocity": 88}, {"time": 914, "pitch": 77, "duration": 4, "velocity": 90}, {"time": 920, "pitch": 75, "duration": 4, "velocity": 79}, {"time": 926, "pitch": 73, "duration": 10, "velocity": 85}, {"time": 938, "pitch": 73, "duration": 5, "velocity": 85}, {"time": 944, "pitch": 72, "duration": 5, "velocity": 86}, {"time": 950, "pitch": 73, "duration": 10, "velocity": 87}, {"time": 968, "pitch": 72, "duration": 5, "velocity": 86}, {"time": 974, "pitch": 70, "duration": 11, "velocity": 84}, {"time": 986, "pitch": 77, "duration": 9, "velocity": 88}, {"time": 998, "pitch": 75, "duration": 10, "velocity": 87}, {"time": 1010, "pitch": 80, "duration": 10, "velocity": 88}, {"time": 1022, "pitch": 77, "duration": 31, "velocity": 92}, {"time": 1058, "pitch": 73, "duration": 4, "velocity": 86}, {"time": 1064, "pitch": 75, "duration": 6, "velocity": 82}, {"time": 1070, "pitch": 77, "duration": 12, "velocity": 89}, {"time": 1082, "pitch": 80, "duration": 11, "velocity": 81}, {"time": 1094, "pitch": 82, "duration": 5, "velocity": 87}, {"time": 1100, "pitch": 80, "duration": 5, "velocity": 90}, {"time": 1106, "pitch": 77, "duration": 5, "velocity": 89}, {"time": 1112, "pitch": 75, "duration": 5, "velocity": 88}, {"time": 1118, "pitch": 73, "duration": 10, "velocity": 85}, {"time": 1130, "pitch": 73, "duration": 5, "velocity": 87}, {"time": 1136, "pitch": 72, "duration": 5, "velocity": 83}, {"time": 1142, "pitch": 73, "duration": 15, "velocity": 88}, {"time": 1160, "pitch": 72, "duration": 5, "velocity": 87}, {"time": 1166, "pitch": 73, "duration": 15, "velocity": 88}, {"time": 1184, "pitch": 73, "duration": 5, "velocity": 87}, {"time": 1190, "pitch": 73, "duration": 4, "velocity": 86}, {"time": 1196, "pitch": 75, "duration": 4, "velocity": 91}, {"time": 1202, "pitch": 77, "duration": 9, "velocity": 88}, {"time": 1214, "pitch": 80, "duration": 18, "velocity": 87}, {"time": 1232, "pitch": 77, "duration": 5, "velocity": 97}, {"time": 1238, "pitch": 85, "duration": 4, "velocity": 89}, {"time": 1244, "pitch": 84, "duration": 5, "velocity": 88}, {"time": 1250, "pitch": 82, "duration": 4, "velocity": 90}, {"time": 1256, "pitch": 80, "duration": 5, "velocity": 87}, {"time": 1262, "pitch": 82, "duration": 10, "velocity": 88}, {"time": 1274, "pitch": 82, "duration": 4, "velocity": 89}, {"time": 1280, "pitch": 84, "duration": 3, "velocity": 90}, {"time": 1286, "pitch": 85, "duration": 4, "velocity": 90}, {"time": 1292, "pitch": 84, "duration": 4, "velocity": 89}, {"time": 1298, "pitch": 82, "duration": 5, "velocity": 88}, {"time": 1304, "pitch": 80, "duration": 4, "velocity": 87}, {"time": 1310, "pitch": 80, "duration": 23, "velocity": 87}, {"time": 1340, "pitch": 77, "duration": 4, "velocity": 88}, {"time": 1346, "pitch": 77, "duration": 5, "velocity": 92}, {"time": 1352, "pitch": 80, "duration": 4, "velocity": 86}, {"time": 1358, "pitch": 82, "duration": 5, "velocity": 88}, {"time": 1364, "pitch": 73, "duration": 4, "velocity": 87}, {"time": 1370, "pitch": 73, "duration": 4, "velocity": 92}, {"time": 1376, "pitch": 73, "duration": 4, "velocity": 86}, {"time": 1382, "pitch": 73, "duration": 3, "velocity": 81}, {"time": 1388, "pitch": 75, "duration": 6, "velocity": 84}, {"time": 1394, "pitch": 75, "duration": 6, "velocity": 84}, {"time": 1400, "pitch": 73, "duration": 4, "velocity": 89}, {"time": 1406, "pitch": 75, "duration": 5, "velocity": 92}, {"time": 1412, "pitch": 77, "duration": 4, "velocity": 86}, {"time": 1418, "pitch": 77, "duration": 4, "velocity": 90}, {"time": 1424, "pitch": 75, "duration": 4, "velocity": 88}, {"time": 1430, "pitch": 77, "duration": 12, "velocity": 90}, {"time": 1448, "pitch": 75, "duration": 4, "velocity": 89}, {"time": 1454, "pitch": 75, "duration": 4, "velocity": 91}, {"time": 1460, "pitch": 73, "duration": 4, "velocity": 88}, {"time": 1466, "pitch": 73, "duration": 3, "velocity": 82}, {"time": 1472, "pitch": 72, "duration": 4, "velocity": 90}, {"time": 1478, "pitch": 73, "duration": 4, "velocity": 87}, {"time": 1484, "pitch": 75, "duration": 12, "velocity": 95}, {"time": 1496, "pitch": 77, "duration": 4, "velocity": 92}, {"time": 1502, "pitch": 84, "duration": 4, "velocity": 87}, {"time": 1508, "pitch": 85, "duration": 4, "velocity": 87}, {"time": 1514, "pitch": 84, "duration": 4, "velocity": 90}, {"time": 1520, "pitch": 82, "duration": 4, "velocity": 89}, {"time": 1526, "pitch": 80, "duration": 6, "velocity": 89}, {"time": 1532, "pitch": 80, "duration": 10, "velocity": 87}, {"time": 1544, "pitch": 80, "duration": 4, "velocity": 87}, {"time": 1550, "pitch": 82, "duration": 9, "velocity": 88}, {"time": 1568, "pitch": 82, "duration": 4, "velocity": 91}, {"time": 1574, "pitch": 82, "duration": 10, "velocity": 90}, {"time": 1586, "pitch": 82, "duration": 9, "velocity": 87}, {"time": 1598, "pitch": 80, "duration": 24, "velocity": 91}, {"time": 1622, "pitch": 85, "duration": 4, "velocity": 91}, {"time": 1628, "pitch": 84, "duration": 4, "velocity": 83}, {"time": 1634, "pitch": 82, "duration": 5, "velocity": 90}, {"time": 1640, "pitch": 80, "duration": 5, "velocity": 90}, {"time": 1646, "pitch": 82, "duration": 10, "velocity": 89}, {"time": 1658, "pitch": 82, "duration": 4, "velocity": 90}, {"time": 1664, "pitch": 84, "duration": 4, "velocity": 88}, {"time": 1670, "pitch": 85, "duration": 4, "velocity": 93}, {"time": 1676, "pitch": 84, "duration": 5, "velocity": 87}, {"time": 1682, "pitch": 82, "duration": 11, "velocity": 90}, {"time": 1694, "pitch": 80, "duration": 26, "velocity": 87}, {"time": 1724, "pitch": 77, "duration": 4, "velocity": 90}, {"time": 1730, "pitch": 77, "duration": 4, "velocity": 93}, {"time": 1736, "pitch": 80, "duration": 4, "velocity": 88}, {"time": 1742, "pitch": 82, "duration": 4, "velocity": 87}, {"time": 1748, "pitch": 73, "duration": 4, "velocity": 60}, {"time": 1754, "pitch": 73, "duration": 4, "velocity": 88}, {"time": 1760, "pitch": 73, "duration": 4, "velocity": 90}, {"time": 1766, "pitch": 73, "duration": 5, "velocity": 90}, {"time": 1772, "pitch": 75, "duration": 4, "velocity": 92}, {"time": 1778, "pitch": 75, "duration": 4, "velocity": 102}, {"time": 1784, "pitch": 73, "duration": 4, "velocity": 85}, {"time": 1790, "pitch": 75, "duration": 6, "velocity": 92}, {"time": 1796, "pitch": 77, "duration": 4, "velocity": 86}, {"time": 1802, "pitch": 77, "duration": 6, "velocity": 89}, {"time": 1808, "pitch": 75, "duration": 6, "velocity": 89}, {"time": 1814, "pitch": 77, "duration": 16, "velocity": 90}, {"time": 1832, "pitch": 75, "duration": 4, "velocity": 90}, {"time": 1838, "pitch": 75, "duration": 4, "velocity": 93}, {"time": 1844, "pitch": 73, "duration": 4, "velocity": 86}, {"time": 1850, "pitch": 73, "duration": 4, "velocity": 88}, {"time": 1856, "pitch": 72, "duration": 4, "velocity": 87}, {"time": 1862, "pitch": 73, "duration": 4, "velocity": 86}, {"time": 1868, "pitch": 75, "duration": 4, "velocity": 93}, {"time": 1874, "pitch": 77, "duration": 4, "velocity": 90}, {"time": 1880, "pitch": 80, "duration": 3, "velocity": 87}, {"time": 1886, "pitch": 84, "duration": 4, "velocity": 89}, {"time": 1892, "pitch": 85, "duration": 4, "velocity": 90}, {"time": 1898, "pitch": 84, "duration": 4, "velocity": 90}, {"time": 1904, "pitch": 82, "duration": 12, "velocity": 87}, {"time": 1916, "pitch": 80, "duration": 12, "velocity": 87}, {"time": 1928, "pitch": 80, "duration": 4, "velocity": 93}, {"time": 1934, "pitch": 82, "duration": 9, "velocity": 85}, {"time": 1946, "pitch": 82, "duration": 6, "velocity": 88}, {"time": 1952, "pitch": 82, "duration": 6, "velocity": 88}, {"time": 1958, "pitch": 82, "duration": 10, "velocity": 87}, {"time": 1970, "pitch": 82, "duration": 10, "velocity": 85}, {"time": 1982, "pitch": 80, "duration": 45, "velocity": 88}, {"time": 2066, "pitch": 65, "duration": 4, "velocity": 88}, {"time": 2072, "pitch": 68, "duration": 5, "velocity": 87}, {"time": 2078, "pitch": 70, "duration": 11, "velocity": 84}, {"time": 2090, "pitch": 70, "duration": 5, "velocity": 88}, {"time": 2096, "pitch": 77, "duration": 4, "velocity": 85}, {"time": 2102, "pitch": 75, "duration": 4, "velocity": 90}, {"time": 2108, "pitch": 73, "duration": 5, "velocity": 87}, {"time": 2114, "pitch": 72, "duration": 6, "velocity": 86}, {"time": 2120, "pitch": 75, "duration": 5, "velocity": 93}, {"time": 2126, "pitch": 73, "duration": 4, "velocity": 84}, {"time": 2132, "pitch": 72, "duration": 5, "velocity": 88}, {"time": 2138, "pitch": 70, "duration": 5, "velocity": 80}, {"time": 2144, "pitch": 68, "duration": 5, "velocity": 79}, {"time": 2150, "pitch": 70, "duration": 10, "velocity": 82}, {"time": 2168, "pitch": 68, "duration": 4, "velocity": 84}, {"time": 2174, "pitch": 70, "duration": 12, "velocity": 84}, {"time": 2186, "pitch": 77, "duration": 9, "velocity": 87}, {"time": 2198, "pitch": 75, "duration": 9, "velocity": 89}, {"time": 2210, "pitch": 80, "duration": 9, "velocity": 85}, {"time": 2222, "pitch": 77, "duration": 32, "velocity": 88}, {"time": 2258, "pitch": 65, "duration": 4, "velocity": 88}, {"time": 2264, "pitch": 68, "duration": 4, "velocity": 87}, {"time": 2270, "pitch": 70, "duration": 9, "velocity": 87}, {"time": 2282, "pitch": 70, "duration": 5, "velocity": 87}, {"time": 2288, "pitch": 77, "duration": 4, "velocity": 89}, {"time": 2294, "pitch": 75, "duration": 5, "velocity": 90}, {"time": 2300, "pitch": 73, "duration": 5, "velocity": 87}, {"time": 2306, "pitch": 72, "duration": 4, "velocity": 88}, {"time": 2312, "pitch": 75, "duration": 4, "velocity": 91}, {"time": 2318, "pitch": 73, "duration": 5, "velocity": 86}, {"time": 2324, "pitch": 72, "duration": 5, "velocity": 87}, {"time": 2330, "pitch": 70, "duration": 4, "velocity": 87}, {"time": 2336, "pitch": 68, "duration": 4, "velocity": 87}, {"time": 2342, "pitch": 70, "duration": 12, "velocity": 87}, {"time": 2360, "pitch": 68, "duration": 4, "velocity": 84}, {"time": 2366, "pitch": 70, "duration": 10, "velocity": 87}, {"time": 2378, "pitch": 77, "duration": 9, "velocity": 92}, {"time": 2390, "pitch": 75, "duration": 9, "velocity": 92}, {"time": 2402, "pitch": 72, "duration": 11, "velocity": 82}, {"time": 2414, "pitch": 70, "duration": 33, "velocity": 87}, {"time": 2834, "pitch": 73, "duration": 4, "velocity": 90}, {"time": 2840, "pitch": 75, "duration": 5, "velocity": 90}, {"time": 2846, "pitch": 77, "duration": 8, "velocity": 86}, {"time": 2858, "pitch": 80, "duration": 10, "velocity": 86}, {"time": 2870, "pitch": 82, "duration": 4, "velocity": 87}, {"time": 2876, "pitch": 80, "duration": 5, "velocity": 88}, {"time": 2882, "pitch": 77, "duration": 4, "velocity": 90}, {"time": 2888, "pitch": 75, "duration": 4, "velocity": 79}, {"time": 2894, "pitch": 73, "duration": 10, "velocity": 85}, {"time": 2906, "pitch": 73, "duration": 5, "velocity": 85}, {"time": 2912, "pitch": 72, "duration": 5, "velocity": 86}, {"time": 2918, "pitch": 73, "duration": 10, "velocity": 87}, {"time": 2936, "pitch": 72, "duration": 5, "velocity": 86}, {"time": 2942, "pitch": 70, "duration": 11, "velocity": 84}, {"time": 2954, "pitch": 77, "duration": 9, "velocity": 88}, {"time": 2966, "pitch": 75, "duration": 10, "velocity": 87}, {"time": 2978, "pitch": 80, "duration": 10, "velocity": 88}, {"time": 2990, "pitch": 77, "duration": 31, "velocity": 92}, {"time": 3026, "pitch": 73, "duration": 4, "velocity": 86}, {"time": 3032, "pitch": 75, "duration": 6, "velocity": 82}, {"time": 3038, "pitch": 77, "duration": 12, "velocity": 89}, {"time": 3050, "pitch": 80, "duration": 11, "velocity": 81}, {"time": 3062, "pitch": 82, "duration": 5, "velocity": 87}, {"time": 3068, "pitch": 80, "duration": 5, "velocity": 90}, {"time": 3074, "pitch": 77, "duration": 5, "velocity": 89}, {"time": 3080, "pitch": 75, "duration": 5, "velocity": 88}, {"time": 3086, "pitch": 73, "duration": 10, "velocity": 85}, {"time": 3098, "pitch": 73, "duration": 5, "velocity": 87}, {"time": 3104, "pitch": 72, "duration": 5, "velocity": 83}, {"time": 3110, "pitch": 73, "duration": 15, "velocity": 88}, {"time": 3128, "pitch": 72, "duration": 5, "velocity": 87}, {"time": 3134, "pitch": 73, "duration": 15, "velocity": 88}, {"time": 3152, "pitch": 73, "duration": 5, "velocity": 87}, {"time": 3158, "pitch": 73, "duration": 4, "velocity": 86}, {"time": 3164, "pitch": 75, "duration": 4, "velocity": 91}, {"time": 3170, "pitch": 77, "duration": 9, "velocity": 88}, {"time": 3182, "pitch": 80, "duration": 18, "velocity": 87}, {"time": 3200, "pitch": 77, "duration": 5, "velocity": 97}, {"time": 3206, "pitch": 85, "duration": 4, "velocity": 89}, {"time": 3212, "pitch": 84, "duration": 5, "velocity": 88}, {"time": 3218, "pitch": 82, "duration": 4, "velocity": 90}, {"time": 3224, "pitch": 80, "duration": 5, "velocity": 87}, {"time": 3230, "pitch": 82, "duration": 10, "velocity": 88}, {"time": 3242, "pitch": 82, "duration": 4, "velocity": 89}, {"time": 3248, "pitch": 84, "duration": 3, "velocity": 90}, {"time": 3254, "pitch": 85, "duration": 4, "velocity": 90}, {"time": 3260, "pitch": 84, "duration": 4, "velocity": 89}, {"time": 3266, "pitch": 82, "duration": 5, "velocity": 88}, {"time": 3272, "pitch": 80, "duration": 4, "velocity": 87}, {"time": 3278, "pitch": 80, "duration": 23, "velocity": 87}, {"time": 3308, "pitch": 77, "duration": 4, "velocity": 88}, {"time": 3314, "pitch": 77, "duration": 5, "velocity": 92}, {"time": 3320, "pitch": 80, "duration": 4, "velocity": 86}, {"time": 3326, "pitch": 82, "duration": 5, "velocity": 88}, {"time": 3332, "pitch": 73, "duration": 4, "velocity": 87}, {"time": 3338, "pitch": 73, "duration": 4, "velocity": 92}, {"time": 3344, "pitch": 73, "duration": 4, "velocity": 86}, {"time": 3350, "pitch": 73, "duration": 3, "velocity": 81}, {"time": 3356, "pitch": 75, "duration": 6, "velocity": 84}, {"time": 3362, "pitch": 75, "duration": 6, "velocity": 84}, {"time": 3368, "pitch": 73, "duration": 4, "velocity": 89}, {"time": 3374, "pitch": 75, "duration": 5, "velocity": 92}, {"time": 3380, "pitch": 77, "duration": 4, "velocity": 86}, {"time": 3386, "pitch": 77, "duration": 4, "velocity": 90}, {"time": 3392, "pitch": 75, "duration": 4, "velocity": 88}, {"time": 3398, "pitch": 77, "duration": 12, "velocity": 90}, {"time": 3416, "pitch": 75, "duration": 4, "velocity": 89}, {"time": 3422, "pitch": 75, "duration": 4, "velocity": 91}, {"time": 3428, "pitch": 73, "duration": 4, "velocity": 88}, {"time": 3434, "pitch": 73, "duration": 3, "velocity": 82}, {"time": 3440, "pitch": 72, "duration": 4, "velocity": 90}, {"time": 3446, "pitch": 73, "duration": 4, "velocity": 87}, {"time": 3452, "pitch": 75, "duration": 12, "velocity": 95}, {"time": 3464, "pitch": 77, "duration": 4, "velocity": 92}, {"time": 3470, "pitch": 84, "duration": 4, "velocity": 87}, {"time": 3476, "pitch": 85, "duration": 4, "velocity": 87}, {"time": 3482, "pitch": 84, "duration": 4, "velocity": 90}, {"time": 3488, "pitch": 82, "duration": 4, "velocity": 89}, {"time": 3494, "pitch": 80, "duration": 6, "velocity": 89}, {"time": 3500, "pitch": 80, "duration": 10, "velocity": 87}, {"time": 3512, "pitch": 80, "duration": 4, "velocity": 87}, {"time": 3518, "pitch": 82, "duration": 9, "velocity": 88}, {"time": 3536, "pitch": 82, "duration": 4, "velocity": 91}, {"time": 3542, "pitch": 82, "duration": 10, "velocity": 90}, {"time": 3554, "pitch": 82, "duration": 9, "velocity": 87}, {"time": 3566, "pitch": 80, "duration": 24, "velocity": 91}, {"time": 3590, "pitch": 85, "duration": 4, "velocity": 91}, {"time": 3596, "pitch": 84, "duration": 4, "velocity": 83}, {"time": 3602, "pitch": 82, "duration": 5, "velocity": 90}, {"time": 3608, "pitch": 80, "duration": 5, "velocity": 90}, {"time": 3614, "pitch": 82, "duration": 10, "velocity": 89}, {"time": 3626, "pitch": 82, "duration": 4, "velocity": 90}, {"time": 3632, "pitch": 84, "duration": 4, "velocity": 88}, {"time": 3638, "pitch": 85, "duration": 4, "velocity": 93}, {"time": 3644, "pitch": 84, "duration": 5, "velocity": 87}, {"time": 3650, "pitch": 82, "duration": 11, "velocity": 90}, {"time": 3662, "pitch": 80, "duration": 26, "velocity": 87}, {"time": 3692, "pitch": 77, "duration": 4, "velocity": 90}, {"time": 3698, "pitch": 77, "duration": 4, "velocity": 93}, {"time": 3704, "pitch": 80, "duration": 4, "velocity": 88}, {"time": 3710, "pitch": 82, "duration": 4, "velocity": 87}, {"time": 3716, "pitch": 73, "duration": 4, "velocity": 60}, {"time": 3722, "pitch": 73, "duration": 4, "velocity": 88}, {"time": 3728, "pitch": 73, "duration": 4, "velocity": 90}, {"time": 3734, "pitch": 73, "duration": 5, "velocity": 90}, {"time": 3740, "pitch": 75, "duration": 4, "velocity": 92}, {"time": 3746, "pitch": 75, "duration": 4, "velocity": 102}, {"time": 3752, "pitch": 73, "duration": 4, "velocity": 85}, {"time": 3758, "pitch": 75, "duration": 6, "velocity": 92}, {"time": 3764, "pitch": 77, "duration": 4, "velocity": 86}, {"time": 3770, "pitch": 77, "duration": 6, "velocity": 89}, {"time": 3776, "pitch": 75, "duration": 6, "velocity": 89}, {"time": 3782, "pitch": 77, "duration": 16, "velocity": 90}, {"time": 3800, "pitch": 75, "duration": 4, "velocity": 90}, {"time": 3806, "pitch": 75, "duration": 4, "velocity": 93}, {"time": 3812, "pitch": 73, "duration": 4, "velocity": 86}, {"time": 3818, "pitch": 73, "duration": 4, "velocity": 88}, {"time": 3824, "pitch": 72, "duration": 4, "velocity": 87}, {"time": 3830, "pitch": 73, "duration": 4, "velocity": 86}, {"time": 3836, "pitch": 75, "duration": 4, "velocity": 93}, {"time": 3842, "pitch": 77, "duration": 4, "velocity": 90}, {"time": 3848, "pitch": 80, "duration": 3, "velocity": 87}, {"time": 3854, "pitch": 84, "duration": 4, "velocity": 89}, {"time": 3860, "pitch": 85, "duration": 4, "velocity": 90}, {"time": 3866, "pitch": 84, "duration": 4, "velocity": 90}, {"time": 3872, "pitch": 82, "duration": 12, "velocity": 87}, {"time": 3884, "pitch": 80, "duration": 12, "velocity": 87}, {"time": 3896, "pitch": 80, "duration": 4, "velocity": 93}, {"time": 3902, "pitch": 82, "duration": 9, "velocity": 85}, {"time": 3914, "pitch": 82, "duration": 6, "velocity": 88}, {"time": 3920, "pitch": 82, "duration": 6, "velocity": 88}, {"time": 3926, "pitch": 82, "duration": 10, "velocity": 87}, {"time": 3938, "pitch": 82, "duration": 10, "velocity": 85}, {"time": 3950, "pitch": 80, "duration": 45, "velocity": 88}, {"time": 4034, "pitch": 65, "duration": 4, "velocity": 88}, {"time": 4040, "pitch": 68, "duration": 5, "velocity": 87}, {"time": 4046, "pitch": 70, "duration": 11, "velocity": 84}, {"time": 4058, "pitch": 70, "duration": 5, "velocity": 88}, {"time": 4064, "pitch": 77, "duration": 4, "velocity": 85}, {"time": 4070, "pitch": 75, "duration": 4, "velocity": 90}, {"time": 4076, "pitch": 73, "duration": 5, "velocity": 87}, {"time": 4082, "pitch": 72, "duration": 6, "velocity": 86}, {"time": 4088, "pitch": 75, "duration": 5, "velocity": 93}, {"time": 4094, "pitch": 73, "duration": 4, "velocity": 84}, {"time": 4100, "pitch": 72, "duration": 5, "velocity": 88}, {"time": 4106, "pitch": 70, "duration": 5, "velocity": 80}, {"time": 4112, "pitch": 68, "duration": 5, "velocity": 79}, {"time": 4118, "pitch": 70, "duration": 10, "velocity": 82}, {"time": 4136, "pitch": 68, "duration": 4, "velocity": 84}, {"time": 4142, "pitch": 70, "duration": 12, "velocity": 84}, {"time": 4154, "pitch": 77, "duration": 9, "velocity": 87}, {"time": 4166, "pitch": 75, "duration": 9, "velocity": 89}, {"time": 4178, "pitch": 80, "duration": 9, "velocity": 85}, {"time": 4190, "pitch": 77, "duration": 32, "velocity": 88}, {"time": 4226, "pitch": 65, "duration": 4, "velocity": 88}, {"time": 4232, "pitch": 68, "duration": 4, "velocity": 87}, {"time": 4238, "pitch": 70, "duration": 9, "velocity": 87}, {"time": 4250, "pitch": 70, "duration": 5, "velocity": 87}, {"time": 4256, "pitch": 77, "duration": 4, "velocity": 89}, {"time": 4262, "pitch": 75, "duration": 5, "velocity": 90}, {"time": 4268, "pitch": 73, "duration": 5, "velocity": 87}, {"time": 4274, "pitch": 72, "duration": 4, "velocity": 88}, {"time": 4280, "pitch": 75, "duration": 4, "velocity": 91}, {"time": 4286, "pitch": 73, "duration": 5, "velocity": 86}, {"time": 4292, "pitch": 72, "duration": 5, "velocity": 87}, {"time": 4298, "pitch": 70, "duration": 4, "velocity": 87}, {"time": 4304, "pitch": 68, "duration": 4, "velocity": 87}, {"time": 4310, "pitch": 70, "duration": 12, "velocity": 87}, {"time": 4328, "pitch": 68, "duration": 4, "velocity": 84}, {"time": 4334, "pitch": 70, "duration": 10, "velocity": 87}, {"time": 4346, "pitch": 77, "duration": 9, "velocity": 92}, {"time": 4358, "pitch": 75, "duration": 9, "velocity": 92}, {"time": 4370, "pitch": 72, "duration": 11, "velocity": 82}, {"time": 4382, "pitch": 70, "duration": 33, "velocity": 87}, {"time": 4424, "pitch": 68, "duration": 6, "velocity": 77}, {"time": 4432, "pitch": 70, "duration": 17, "velocity": 86}, {"time": 4447, "pitch": 77, "duration": 20, "velocity": 86}, {"time": 4466, "pitch": 75, "duration": 43, "velocity": 87}, {"time": 4514, "pitch": 73, "duration": 18, "velocity": 85}, {"time": 4532, "pitch": 72, "duration": 7, "velocity": 81}, {"time": 4538, "pitch": 70, "duration": 70, "velocity": 77}]}, {"program": 0, "is_drum": false, "name": "PIANO", "notes": [{"time": 12, "pitch": 58, "duration": 17, "velocity": 56}, {"time": 12, "pitch": 46, "duration": 18, "velocity": 67}, {"time": 14, "pitch": 61, "duration": 19, "velocity": 69}, {"time": 15, "pitch": 70, "duration": 19, "velocity": 71}, {"time": 15, "pitch": 65, "duration": 17, "velocity": 66}, {"time": 62, "pitch": 46, "duration": 35, "velocity": 85}, {"time": 68, "pitch": 53, "duration": 28, "velocity": 70}, {"time": 74, "pitch": 58, "duration": 5, "velocity": 75}, {"time": 80, "pitch": 65, "duration": 3, "velocity": 79}, {"time": 110, "pitch": 42, "duration": 17, "velocity": 86}, {"time": 110, "pitch": 54, "duration": 8, "velocity": 74}, {"time": 110, "pitch": 61, "duration": 15, "velocity": 82}, {"time": 116, "pitch": 49, "duration": 10, "velocity": 69}, {"time": 122, "pitch": 54, "duration": 6, "velocity": 78}, {"time": 134, "pitch": 44, "duration": 16, "velocity": 86}, {"time": 134, "pitch": 56, "duration": 12, "velocity": 79}, {"time": 134, "pitch": 60, "duration": 13, "velocity": 79}, {"time": 140, "pitch": 51, "duration": 10, "velocity": 74}, {"time": 146, "pitch": 63, "duration": 5, "velocity": 80}, {"time": 158, "pitch": 46, "duration": 38, "velocity": 85}, {"time": 158, "pitch": 58, "duration": 7, "velocity": 75}, {"time": 158, "pitch": 61, "duration": 12, "velocity": 79}, {"time": 164, "pitch": 53, "duration": 31, "velocity": 74}, {"time": 170, "pitch": 58, "duration": 3, "velocity": 73}, {"time": 176, "pitch": 58, "duration": 4, "velocity": 81}, {"time": 176, "pitch": 65, "duration": 5, "velocity": 87}, {"time": 206, "pitch": 42, "duration": 14, "velocity": 84}, {"time": 206, "pitch": 61, "duration": 12, "velocity": 83}, {"time": 212, "pitch": 49, "duration": 9, "velocity": 69}, {"time": 218, "pitch": 54, "duration": 6, "velocity": 86}, {"time": 224, "pitch": 61, "duration": 6, "velocity": 79}, {"time": 230, "pitch": 44, "duration": 16, "velocity": 74}, {"time": 230, "pitch": 60, "duration": 13, "velocity": 81}, {"time": 236, "pitch": 51, "duration": 11, "velocity": 82}, {"time": 242, "pitch": 56, "duration": 5, "velocity": 75}, {"time": 254, "pitch": 46, "duration": 42, "velocity": 84}, {"time": 254, "pitch": 58, "duration": 7, "velocity": 72}, {"time": 254, "pitch": 61, "duration": 13, "velocity": 76}, {"time": 260, "pitch": 53, "duration": 35, "velocity": 72}, {"time": 266, "pitch": 58, "duration": 3, "velocity": 75}, {"time": 272, "pitch": 58, "duration": 3, "velocity": 80}, {"time": 272, "pitch": 65, "duration": 3, "velocity": 86}, {"time": 302, "pitch": 42, "duration": 19, "velocity": 84}, {"time": 302, "pitch": 61, "duration": 11, "velocity": 81}, {"time": 308, "pitch": 49, "duration": 14, "velocity": 82}, {"time": 314, "pitch": 54, "duration": 5, "velocity": 87}, {"time": 326, "pitch": 44, "duration": 18, "velocity": 84}, {"time": 326, "pitch": 56, "duration": 10, "velocity": 80}, {"time": 326, "pitch": 60, "duration": 14, "velocity": 80}, {"time": 332, "pitch": 51, "duration": 13, "velocity": 79}, {"time": 338, "pitch": 56, "duration": 4, "velocity": 81}, {"time": 350, "pitch": 46, "duration": 37, "velocity": 86}, {"time": 350, "pitch": 58, "duration": 7, "velocity": 75}, {"time": 350, "pitch": 61, "duration": 12, "velocity": 78}, {"time": 356, "pitch": 53, "duration": 30, "velocity": 79}, {"time": 362, "pitch": 58, "duration": 3, "velocity": 74}, {"time": 368, "pitch": 58, "duration": 4, "velocity": 87}, {"time": 368, "pitch": 65, "duration": 7, "velocity": 85}, {"time": 386, "pitch": 61, "duration": 6, "velocity": 82}, {"time": 392, "pitch": 60, "duration": 5, "velocity": 81}, {"time": 398, "pitch": 42, "duration": 43, "velocity": 78}, {"time": 398, "pitch": 54, "duration": 6, "velocity": 78}, {"time": 398, "pitch": 58, "duration": 42, "velocity": 78}, {"time": 403, "pitch": 49, "duration": 37, "velocity": 71}, {"time": 409, "pitch": 54, "duration": 32, "velocity": 81}, {"time": 415, "pitch": 61, "duration": 26, "velocity": 75}, {"time": 446, "pitch": 42, "duration": 26, "velocity": 85}, {"time": 446, "pitch": 66, "duration": 13, "velocity": 84}, {"time": 452, "pitch": 49, "duration": 19, "velocity": 71}, {"time": 457, "pitch": 54, "duration": 7, "velocity": 78}, {"time": 462, "pitch": 58, "duration": 3, "velocity": 75}, {"time": 463, "pitch": 61, "duration": 2, "velocity": 78}, {"time": 464, "pitch": 66, "duration": 2, "velocity": 80}, {"time": 494, "pitch": 42, "duration": 15, "velocity": 84}, {"time": 494, "pitch": 54, "duration": 7, "velocity": 71}, {"time": 494, "pitch": 58, "duration": 12, "velocity": 73}, {"time": 500, "pitch": 49, "duration": 10, "velocity": 70}, {"time": 506, "pitch": 54, "duration": 3, "velocity": 74}, {"time": 518, "pitch": 44, "duration": 20, "velocity": 84}, {"time": 518, "pitch": 56, "duration": 9, "velocity": 75}, {"time": 518, "pitch": 60, "duration": 13, "velocity": 77}, {"time": 524, "pitch": 51, "duration": 14, "velocity": 79}, {"time": 530, "pitch": 56, "duration": 7, "velocity": 87}, {"time": 536, "pitch": 60, "duration": 7, "velocity": 90}, {"time": 542, "pitch": 46, "duration": 33, "velocity": 83}, {"time": 542, "pitch": 61, "duration": 31, "velocity": 82}, {"time": 548, "pitch": 53, "duration": 26, "velocity": 76}, {"time": 554, "pitch": 58, "duration": 20, "velocity": 74}, {"time": 560, "pitch": 65, "duration": 30, "velocity": 82}, {"time": 590, "pitch": 42, "duration": 19, "velocity": 82}, {"time": 590, "pitch": 61, "duration": 13, "velocity": 82}, {"time": 596, "pitch": 49, "duration": 13, "velocity": 80}, {"time": 602, "pitch": 54, "duration": 7, "velocity": 88}, {"time": 608, "pitch": 61, "duration": 7, "velocity": 81}, {"time": 614, "pitch": 44, "duration": 20, "velocity": 83}, {"time": 614, "pitch": 60, "duration": 14, "velocity": 80}, {"time": 620, "pitch": 51, "duration": 12, "velocity": 75}, {"time": 626, "pitch": 56, "duration": 6, "velocity": 74}, {"time": 638, "pitch": 49, "duration": 38, "velocity": 86}, {"time": 638, "pitch": 61, "duration": 13, "velocity": 80}, {"time": 644, "pitch": 53, "duration": 32, "velocity": 73}, {"time": 650, "pitch": 63, "duration": 14, "velocity": 77}, {"time": 656, "pitch": 56, "duration": 9, "velocity": 72}, {"time": 662, "pitch": 65, "duration": 15, "velocity": 86}, {"time": 686, "pitch": 42, "duration": 19, "velocity": 86}, {"time": 686, "pitch": 61, "duration": 13, "velocity": 81}, {"time": 692, "pitch": 49, "duration": 13, "velocity": 78}, {"time": 698, "pitch": 54, "duration": 6, "velocity": 87}, {"time": 704, "pitch": 61, "duration": 6, "velocity": 86}, {"time": 710, "pitch": 44, "duration": 15, "velocity": 83}, {"time": 710, "pitch": 60, "duration": 12, "velocity": 80}, {"time": 716, "pitch": 51, "duration": 9, "velocity": 76}, {"time": 722, "pitch": 56, "duration": 3, "velocity": 75}, {"time": 734, "pitch": 46, "duration": 38, "velocity": 86}, {"time": 734, "pitch": 61, "duration": 14, "velocity": 82}, {"time": 740, "pitch": 53, "duration": 9, "velocity": 78}, {"time": 746, "pitch": 58, "duration": 22, "velocity": 74}, {"time": 752, "pitch": 53, "duration": 20, "velocity": 82}, {"time": 758, "pitch": 65, "duration": 23, "velocity": 86}, {"time": 782, "pitch": 42, "duration": 17, "velocity": 83}, {"time": 782, "pitch": 61, "duration": 13, "velocity": 81}, {"time": 788, "pitch": 49, "duration": 12, "velocity": 78}, {"time": 794, "pitch": 54, "duration": 5, "velocity": 87}, {"time": 806, "pitch": 44, "duration": 18, "velocity": 86}, {"time": 806, "pitch": 56, "duration": 8, "velocity": 78}, {"time": 806, "pitch": 60, "duration": 13, "velocity": 82}, {"time": 812, "pitch": 51, "duration": 12, "velocity": 80}, {"time": 818, "pitch": 56, "duration": 3, "velocity": 86}, {"time": 830, "pitch": 46, "duration": 36, "velocity": 84}, {"time": 830, "pitch": 61, "duration": 13, "velocity": 79}, {"time": 836, "pitch": 53, "duration": 20, "velocity": 78}, {"time": 842, "pitch": 60, "duration": 7, "velocity": 79}, {"time": 848, "pitch": 61, "duration": 13, "velocity": 80}, {"time": 854, "pitch": 58, "duration": 12, "velocity": 82}, {"time": 860, "pitch": 53, "duration": 6, "velocity": 86}, {"time": 866, "pitch": 61, "duration": 2, "velocity": 82}, {"time": 866, "pitch": 65, "duration": 2, "velocity": 87}, {"time": 878, "pitch": 42, "duration": 15, "velocity": 87}, {"time": 878, "pitch": 54, "duration": 8, "velocity": 81}, {"time": 878, "pitch": 58, "duration": 13, "velocity": 80}, {"time": 884, "pitch": 49, "duration": 9, "velocity": 81}, {"time": 890, "pitch": 54, "duration": 3, "velocity": 86}, {"time": 902, "pitch": 44, "duration": 16, "velocity": 86}, {"time": 902, "pitch": 56, "duration": 7, "velocity": 80}, {"time": 902, "pitch": 60, "duration": 13, "velocity": 81}, {"time": 908, "pitch": 51, "duration": 10, "velocity": 81}, {"time": 914, "pitch": 56, "duration": 7, "velocity": 88}, {"time": 920, "pitch": 60, "duration": 6, "velocity": 86}, {"time": 926, "pitch": 46, "duration": 42, "velocity": 87}, {"time": 926, "pitch": 61, "duration": 13, "velocity": 80}, {"time": 932, "pitch": 53, "duration": 9, "velocity": 77}, {"time": 938, "pitch": 58, "duration": 10, "velocity": 82}, {"time": 944, "pitch": 53, "duration": 8, "velocity": 87}, {"time": 950, "pitch": 58, "duration": 7, "velocity": 84}, {"time": 950, "pitch": 61, "duration": 8, "velocity": 85}, {"time": 950, "pitch": 65, "duration": 7, "velocity": 87}, {"time": 956, "pitch": 53, "duration": 11, "velocity": 87}, {"time": 962, "pitch": 61, "duration": 4, "velocity": 81}, {"time": 962, "pitch": 65, "duration": 4, "velocity": 87}, {"time": 968, "pitch": 60, "duration": 3, "velocity": 81}, {"time": 968, "pitch": 63, "duration": 6, "velocity": 82}, {"time": 974, "pitch": 42, "duration": 15, "velocity": 79}, {"time": 974, "pitch": 58, "duration": 7, "velocity": 77}, {"time": 974, "pitch": 61, "duration": 12, "velocity": 77}, {"time": 980, "pitch": 49, "duration": 10, "velocity": 75}, {"time": 986, "pitch": 58, "duration": 3, "velocity": 66}, {"time": 998, "pitch": 44, "duration": 18, "velocity": 86}, {"time": 998, "pitch": 56, "duration": 8, "velocity": 78}, {"time": 998, "pitch": 60, "duration": 13, "velocity": 78}, {"time": 1004, "pitch": 51, "duration": 11, "velocity": 81}, {"time": 1010, "pitch": 56, "duration": 7, "velocity": 83}, {"time": 1022, "pitch": 49, "duration": 39, "velocity": 86}, {"time": 1022, "pitch": 65, "duration": 18, "velocity": 87}, {"time": 1028, "pitch": 53, "duration": 33, "velocity": 77}, {"time": 1034, "pitch": 56, "duration": 7, "velocity": 85}, {"time": 1040, "pitch": 63, "duration": 3, "velocity": 82}, {"time": 1046, "pitch": 56, "duration": 3, "velocity": 86}, {"time": 1046, "pitch": 65, "duration": 13, "velocity": 87}, {"time": 1052, "pitch": 56, "duration": 3, "velocity": 78}, {"time": 1058, "pitch": 56, "duration": 4, "velocity": 83}, {"time": 1058, "pitch": 61, "duration": 4, "velocity": 84}, {"time": 1070, "pitch": 42, "duration": 16, "velocity": 86}, {"time": 1070, "pitch": 54, "duration": 8, "velocity": 77}, {"time": 1070, "pitch": 58, "duration": 12, "velocity": 80}, {"time": 1076, "pitch": 49, "duration": 10, "velocity": 78}, {"time": 1082, "pitch": 54, "duration": 4, "velocity": 89}, {"time": 1094, "pitch": 44, "duration": 21, "velocity": 86}, {"time": 1094, "pitch": 56, "duration": 7, "velocity": 81}, {"time": 1094, "pitch": 60, "duration": 13, "velocity": 81}, {"time": 1100, "pitch": 51, "duration": 15, "velocity": 77}, {"time": 1106, "pitch": 56, "duration": 7, "velocity": 84}, {"time": 1112, "pitch": 60, "duration": 5, "velocity": 80}, {"time": 1118, "pitch": 46, "duration": 40, "velocity": 86}, {"time": 1118, "pitch": 58, "duration": 7, "velocity": 76}, {"time": 1118, "pitch": 61, "duration": 13, "velocity": 81}, {"time": 1124, "pitch": 53, "duration": 33, "velocity": 77}, {"time": 1130, "pitch": 60, "duration": 7, "velocity": 80}, {"time": 1136, "pitch": 61, "duration": 6, "velocity": 85}, {"time": 1142, "pitch": 65, "duration": 12, "velocity": 87}, {"time": 1148, "pitch": 58, "duration": 4, "velocity": 70}, {"time": 1154, "pitch": 58, "duration": 4, "velocity": 79}, {"time": 1154, "pitch": 61, "duration": 4, "velocity": 81}, {"time": 1166, "pitch": 42, "duration": 41, "velocity": 86}, {"time": 1166, "pitch": 54, "duration": 7, "velocity": 78}, {"time": 1166, "pitch": 61, "duration": 12, "velocity": 82}, {"time": 1172, "pitch": 49, "duration": 27, "velocity": 76}, {"time": 1178, "pitch": 54, "duration": 18, "velocity": 86}, {"time": 1184, "pitch": 58, "duration": 8, "velocity": 87}, {"time": 1196, "pitch": 58, "duration": 7, "velocity": 81}, {"time": 1196, "pitch": 61, "duration": 8, "velocity": 84}, {"time": 1196, "pitch": 66, "duration": 21, "velocity": 85}, {"time": 1202, "pitch": 49, "duration": 6, "velocity": 80}, {"time": 1208, "pitch": 54, "duration": 7, "velocity": 86}, {"time": 1208, "pitch": 58, "duration": 5, "velocity": 51}, {"time": 1208, "pitch": 61, "duration": 6, "velocity": 31}, {"time": 1214, "pitch": 44, "duration": 42, "velocity": 91}, {"time": 1220, "pitch": 51, "duration": 20, "velocity": 84}, {"time": 1226, "pitch": 63, "duration": 9, "velocity": 86}, {"time": 1232, "pitch": 56, "duration": 4, "velocity": 86}, {"time": 1238, "pitch": 56, "duration": 9, "velocity": 91}, {"time": 1238, "pitch": 63, "duration": 14, "velocity": 88}, {"time": 1238, "pitch": 68, "duration": 10, "velocity": 86}, {"time": 1244, "pitch": 51, "duration": 11, "velocity": 91}, {"time": 1250, "pitch": 56, "duration": 3, "velocity": 102}, {"time": 1262, "pitch": 42, "duration": 15, "velocity": 90}, {"time": 1262, "pitch": 54, "duration": 8, "velocity": 86}, {"time": 1262, "pitch": 61, "duration": 7, "velocity": 82}, {"time": 1268, "pitch": 49, "duration": 8, "velocity": 82}, {"time": 1274, "pitch": 54, "duration": 2, "velocity": 87}, {"time": 1274, "pitch": 58, "duration": 7, "velocity": 90}, {"time": 1274, "pitch": 61, "duration": 10, "velocity": 93}, {"time": 1280, "pitch": 54, "duration": 4, "velocity": 86}, {"time": 1286, "pitch": 54, "duration": 4, "velocity": 87}, {"time": 1286, "pitch": 58, "duration": 7, "velocity": 86}, {"time": 1292, "pitch": 54, "duration": 3, "velocity": 79}, {"time": 1298, "pitch": 54, "duration": 2, "velocity": 88}, {"time": 1298, "pitch": 58, "duration": 5, "velocity": 92}, {"time": 1298, "pitch": 61, "duration": 7, "velocity": 91}, {"time": 1304, "pitch": 54, "duration": 3, "velocity": 83}, {"time": 1310, "pitch": 41, "duration": 39, "velocity": 89}, {"time": 1310, "pitch": 53, "duration": 12, "velocity": 87}, {"time": 1310, "pitch": 56, "duration": 13, "velocity": 83}, {"time": 1316, "pitch": 48, "duration": 21, "velocity": 86}, {"time": 1322, "pitch": 60, "duration": 8, "velocity": 86}, {"time": 1328, "pitch": 53, "duration": 1, "velocity": 63}, {"time": 1328, "pitch": 56, "duration": 2, "velocity": 87}, {"time": 1334, "pitch": 53, "duration": 3, "velocity": 89}, {"time": 1334, "pitch": 56, "duration": 4, "velocity": 92}, {"time": 1334, "pitch": 65, "duration": 8, "velocity": 88}, {"time": 1340, "pitch": 48, "duration": 7, "velocity": 77}, {"time": 1340, "pitch": 53, "duration": 5, "velocity": 86}, {"time": 1346, "pitch": 56, "duration": 4, "velocity": 89}, {"time": 1346, "pitch": 60, "duration": 7, "velocity": 89}, {"time": 1352, "pitch": 53, "duration": 2, "velocity": 92}, {"time": 1358, "pitch": 42, "duration": 15, "velocity": 88}, {"time": 1358, "pitch": 54, "duration": 9, "velocity": 87}, {"time": 1358, "pitch": 58, "duration": 9, "velocity": 81}, {"time": 1364, "pitch": 49, "duration": 9, "velocity": 86}, {"time": 1370, "pitch": 54, "duration": 2, "velocity": 87}, {"time": 1370, "pitch": 58, "duration": 6, "velocity": 87}, {"time": 1370, "pitch": 61, "duration": 8, "velocity": 87}, {"time": 1376, "pitch": 54, "duration": 2, "velocity": 88}, {"time": 1382, "pitch": 44, "duration": 19, "velocity": 87}, {"time": 1382, "pitch": 56, "duration": 10, "velocity": 88}, {"time": 1382, "pitch": 60, "duration": 10, "velocity": 87}, {"time": 1388, "pitch": 51, "duration": 10, "velocity": 86}, {"time": 1394, "pitch": 56, "duration": 3, "velocity": 85}, {"time": 1394, "pitch": 63, "duration": 7, "velocity": 86}, {"time": 1400, "pitch": 56, "duration": 6, "velocity": 88}, {"time": 1406, "pitch": 49, "duration": 17, "velocity": 88}, {"time": 1406, "pitch": 56, "duration": 1, "velocity": 60}, {"time": 1406, "pitch": 61, "duration": 8, "velocity": 88}, {"time": 1412, "pitch": 56, "duration": 7, "velocity": 89}, {"time": 1418, "pitch": 63, "duration": 6, "velocity": 87}, {"time": 1424, "pitch": 56, "duration": 4, "velocity": 88}, {"time": 1430, "pitch": 49, "duration": 17, "velocity": 97}, {"time": 1430, "pitch": 56, "duration": 3, "velocity": 86}, {"time": 1430, "pitch": 61, "duration": 5, "velocity": 89}, {"time": 1430, "pitch": 65, "duration": 7, "velocity": 89}, {"time": 1436, "pitch": 56, "duration": 3, "velocity": 88}, {"time": 1436, "pitch": 61, "duration": 1, "velocity": 51}, {"time": 1442, "pitch": 56, "duration": 4, "velocity": 89}, {"time": 1442, "pitch": 61, "duration": 6, "velocity": 92}, {"time": 1448, "pitch": 60, "duration": 5, "velocity": 91}, {"time": 1454, "pitch": 46, "duration": 39, "velocity": 88}, {"time": 1454, "pitch": 58, "duration": 7, "velocity": 86}, {"time": 1454, "pitch": 61, "duration": 9, "velocity": 89}, {"time": 1460, "pitch": 53, "duration": 8, "velocity": 82}, {"time": 1466, "pitch": 58, "duration": 6, "velocity": 88}, {"time": 1472, "pitch": 53, "duration": 7, "velocity": 76}, {"time": 1478, "pitch": 58, "duration": 5, "velocity": 88}, {"time": 1478, "pitch": 65, "duration": 11, "velocity": 87}, {"time": 1484, "pitch": 53, "duration": 9, "velocity": 80}, {"time": 1490, "pitch": 58, "duration": 3, "velocity": 83}, {"time": 1490, "pitch": 61, "duration": 7, "velocity": 91}, {"time": 1496, "pitch": 46, "duration": 2, "velocity": 88}, {"time": 1502, "pitch": 39, "duration": 1, "velocity": 88}, {"time": 1502, "pitch": 41, "duration": 37, "velocity": 85}, {"time": 1508, "pitch": 48, "duration": 20, "velocity": 82}, {"time": 1514, "pitch": 56, "duration": 8, "velocity": 92}, {"time": 1520, "pitch": 60, "duration": 4, "velocity": 89}, {"time": 1526, "pitch": 56, "duration": 5, "velocity": 84}, {"time": 1526, "pitch": 60, "duration": 6, "velocity": 87}, {"time": 1526, "pitch": 63, "duration": 9, "velocity": 86}, {"time": 1532, "pitch": 48, "duration": 7, "velocity": 82}, {"time": 1538, "pitch": 56, "duration": 2, "velocity": 90}, {"time": 1550, "pitch": 42, "duration": 38, "velocity": 87}, {"time": 1550, "pitch": 54, "duration": 7, "velocity": 84}, {"time": 1550, "pitch": 58, "duration": 9, "velocity": 82}, {"time": 1556, "pitch": 49, "duration": 20, "velocity": 80}, {"time": 1562, "pitch": 61, "duration": 7, "velocity": 86}, {"time": 1568, "pitch": 54, "duration": 2, "velocity": 86}, {"time": 1574, "pitch": 54, "duration": 9, "velocity": 91}, {"time": 1574, "pitch": 66, "duration": 7, "velocity": 86}, {"time": 1580, "pitch": 49, "duration": 5, "velocity": 92}, {"time": 1586, "pitch": 58, "duration": 6, "velocity": 86}, {"time": 1592, "pitch": 49, "duration": 2, "velocity": 89}, {"time": 1598, "pitch": 44, "duration": 16, "velocity": 88}, {"time": 1598, "pitch": 56, "duration": 7, "velocity": 87}, {"time": 1598, "pitch": 60, "duration": 7, "velocity": 86}, {"time": 1604, "pitch": 51, "duration": 8, "velocity": 89}, {"time": 1610, "pitch": 56, "duration": 2, "velocity": 87}, {"time": 1610, "pitch": 60, "duration": 4, "velocity": 88}, {"time": 1610, "pitch": 63, "duration": 6, "velocity": 88}, {"time": 1616, "pitch": 56, "duration": 4, "velocity": 87}, {"time": 1622, "pitch": 44, "duration": 19, "velocity": 88}, {"time": 1622, "pitch": 56, "duration": 3, "velocity": 82}, {"time": 1622, "pitch": 60, "duration": 5, "velocity": 90}, {"time": 1622, "pitch": 63, "duration": 5, "velocity": 92}, {"time": 1622, "pitch": 68, "duration": 8, "velocity": 87}, {"time": 1628, "pitch": 51, "duration": 8, "velocity": 87}, {"time": 1634, "pitch": 68, "duration": 11, "velocity": 87}, {"time": 1634, "pitch": 72, "duration": 11, "velocity": 91}, {"time": 1640, "pitch": 51, "duration": 4, "velocity": 89}, {"time": 1646, "pitch": 42, "duration": 15, "velocity": 90}, {"time": 1646, "pitch": 54, "duration": 8, "velocity": 86}, {"time": 1646, "pitch": 61, "duration": 7, "velocity": 82}, {"time": 1652, "pitch": 49, "duration": 8, "velocity": 82}, {"time": 1658, "pitch": 54, "duration": 2, "velocity": 87}, {"time": 1658, "pitch": 58, "duration": 7, "velocity": 90}, {"time": 1658, "pitch": 61, "duration": 10, "velocity": 93}, {"time": 1664, "pitch": 54, "duration": 4, "velocity": 86}, {"time": 1670, "pitch": 54, "duration": 4, "velocity": 87}, {"time": 1670, "pitch": 58, "duration": 7, "velocity": 86}, {"time": 1676, "pitch": 54, "duration": 3, "velocity": 79}, {"time": 1682, "pitch": 54, "duration": 2, "velocity": 88}, {"time": 1682, "pitch": 58, "duration": 5, "velocity": 92}, {"time": 1682, "pitch": 61, "duration": 7, "velocity": 91}, {"time": 1688, "pitch": 54, "duration": 3, "velocity": 83}, {"time": 1694, "pitch": 41, "duration": 39, "velocity": 89}, {"time": 1694, "pitch": 53, "duration": 12, "velocity": 87}, {"time": 1694, "pitch": 56, "duration": 13, "velocity": 83}, {"time": 1700, "pitch": 48, "duration": 21, "velocity": 86}, {"time": 1706, "pitch": 60, "duration": 8, "velocity": 86}, {"time": 1712, "pitch": 53, "duration": 1, "velocity": 63}, {"time": 1712, "pitch": 56, "duration": 2, "velocity": 87}, {"time": 1718, "pitch": 53, "duration": 3, "velocity": 89}, {"time": 1718, "pitch": 56, "duration": 4, "velocity": 92}, {"time": 1718, "pitch": 65, "duration": 8, "velocity": 88}, {"time": 1724, "pitch": 48, "duration": 7, "velocity": 77}, {"time": 1724, "pitch": 53, "duration": 5, "velocity": 86}, {"time": 1730, "pitch": 56, "duration": 4, "velocity": 89}, {"time": 1730, "pitch": 60, "duration": 7, "velocity": 89}, {"time": 1736, "pitch": 53, "duration": 2, "velocity": 92}, {"time": 1742, "pitch": 42, "duration": 15, "velocity": 88}, {"time": 1742, "pitch": 54, "duration": 9, "velocity": 87}, {"time": 1742, "pitch": 58, "duration": 9, "velocity": 81}, {"time": 1748, "pitch": 49, "duration": 9, "velocity": 86}, {"time": 1754, "pitch": 54, "duration": 2, "velocity": 87}, {"time": 1754, "pitch": 58, "duration": 6, "velocity": 87}, {"time": 1754, "pitch": 61, "duration": 8, "velocity": 87}, {"time": 1760, "pitch": 54, "duration": 2, "velocity": 88}, {"time": 1766, "pitch": 44, "duration": 19, "velocity": 87}, {"time": 1766, "pitch": 56, "duration": 10, "velocity": 88}, {"time": 1766, "pitch": 60, "duration": 10, "velocity": 87}, {"time": 1772, "pitch": 51, "duration": 10, "velocity": 86}, {"time": 1778, "pitch": 56, "duration": 3, "velocity": 85}, {"time": 1778, "pitch": 63, "duration": 7, "velocity": 86}, {"time": 1784, "pitch": 56, "duration": 6, "velocity": 88}, {"time": 1790, "pitch": 49, "duration": 17, "velocity": 88}, {"time": 1790, "pitch": 56, "duration": 1, "velocity": 60}, {"time": 1790, "pitch": 61, "duration": 8, "velocity": 88}, {"time": 1796, "pitch": 56, "duration": 7, "velocity": 89}, {"time": 1802, "pitch": 63, "duration": 6, "velocity": 87}, {"time": 1808, "pitch": 56, "duration": 4, "velocity": 88}, {"time": 1814, "pitch": 49, "duration": 17, "velocity": 97}, {"time": 1814, "pitch": 56, "duration": 3, "velocity": 86}, {"time": 1814, "pitch": 61, "duration": 5, "velocity": 89}, {"time": 1814, "pitch": 65, "duration": 7, "velocity": 89}, {"time": 1820, "pitch": 56, "duration": 3, "velocity": 88}, {"time": 1820, "pitch": 61, "duration": 1, "velocity": 51}, {"time": 1826, "pitch": 56, "duration": 4, "velocity": 89}, {"time": 1826, "pitch": 61, "duration": 6, "velocity": 92}, {"time": 1832, "pitch": 60, "duration": 5, "velocity": 91}, {"time": 1838, "pitch": 46, "duration": 39, "velocity": 88}, {"time": 1838, "pitch": 58, "duration": 7, "velocity": 86}, {"time": 1838, "pitch": 61, "duration": 9, "velocity": 89}, {"time": 1844, "pitch": 53, "duration": 8, "velocity": 82}, {"time": 1850, "pitch": 58, "duration": 6, "velocity": 88}, {"time": 1856, "pitch": 53, "duration": 7, "velocity": 76}, {"time": 1862, "pitch": 58, "duration": 5, "velocity": 88}, {"time": 1862, "pitch": 65, "duration": 11, "velocity": 87}, {"time": 1868, "pitch": 53, "duration": 9, "velocity": 80}, {"time": 1874, "pitch": 58, "duration": 3, "velocity": 83}, {"time": 1874, "pitch": 61, "duration": 7, "velocity": 91}, {"time": 1880, "pitch": 46, "duration": 2, "velocity": 88}, {"time": 1886, "pitch": 39, "duration": 1, "velocity": 88}, {"time": 1886, "pitch": 41, "duration": 37, "velocity": 85}, {"time": 1892, "pitch": 48, "duration": 20, "velocity": 82}, {"time": 1898, "pitch": 56, "duration": 8, "velocity": 92}, {"time": 1904, "pitch": 60, "duration": 4, "velocity": 89}, {"time": 1910, "pitch": 56, "duration": 5, "velocity": 84}, {"time": 1910, "pitch": 60, "duration": 6, "velocity": 87}, {"time": 1910, "pitch": 63, "duration": 9, "velocity": 86}, {"time": 1916, "pitch": 48, "duration": 7, "velocity": 82}, {"time": 1922, "pitch": 56, "duration": 2, "velocity": 90}, {"time": 1934, "pitch": 42, "duration": 38, "velocity": 87}, {"time": 1934, "pitch": 54, "duration": 7, "velocity": 84}, {"time": 1934, "pitch": 58, "duration": 9, "velocity": 82}, {"time": 1940, "pitch": 49, "duration": 20, "velocity": 80}, {"time": 1946, "pitch": 61, "duration": 7, "velocity": 86}, {"time": 1952, "pitch": 54, "duration": 2, "velocity": 86}, {"time": 1958, "pitch": 54, "duration": 9, "velocity": 91}, {"time": 1958, "pitch": 66, "duration": 7, "velocity": 86}, {"time": 1964, "pitch": 49, "duration": 5, "velocity": 92}, {"time": 1970, "pitch": 58, "duration": 6, "velocity": 86}, {"time": 1976, "pitch": 49, "duration": 2, "velocity": 89}, {"time": 1982, "pitch": 44, "duration": 16, "velocity": 88}, {"time": 1982, "pitch": 56, "duration": 7, "velocity": 87}, {"time": 1982, "pitch": 60, "duration": 7, "velocity": 86}, {"time": 1988, "pitch": 51, "duration": 8, "velocity": 89}, {"time": 1994, "pitch": 56, "duration": 2, "velocity": 87}, {"time": 1994, "pitch": 60, "duration": 4, "velocity": 88}, {"time": 1994, "pitch": 63, "duration": 6, "velocity": 88}, {"time": 2000, "pitch": 56, "duration": 4, "velocity": 87}, {"time": 2006, "pitch": 44, "duration": 19, "velocity": 88}, {"time": 2006, "pitch": 56, "duration": 3, "velocity": 82}, {"time": 2006, "pitch": 60, "duration": 5, "velocity": 90}, {"time": 2006, "pitch": 63, "duration": 5, "velocity": 92}, {"time": 2006, "pitch": 68, "duration": 8, "velocity": 87}, {"time": 2012, "pitch": 51, "duration": 8, "velocity": 87}, {"time": 2018, "pitch": 68, "duration": 11, "velocity": 87}, {"time": 2018, "pitch": 72, "duration": 11, "velocity": 91}, {"time": 2024, "pitch": 51, "duration": 4, "velocity": 89}, {"time": 2028, "pitch": 56, "duration": 47, "velocity": 74}, {"time": 2029, "pitch": 63, "duration": 46, "velocity": 85}, {"time": 2029, "pitch": 44, "duration": 11, "velocity": 86}, {"time": 2030, "pitch": 68, "duration": 45, "velocity": 70}, {"time": 2078, "pitch": 42, "duration": 15, "velocity": 84}, {"time": 2078, "pitch": 54, "duration": 7, "velocity": 71}, {"time": 2078, "pitch": 58, "duration": 12, "velocity": 73}, {"time": 2084, "pitch": 49, "duration": 10, "velocity": 70}, {"time": 2090, "pitch": 54, "duration": 3, "velocity": 74}, {"time": 2102, "pitch": 44, "duration": 20, "velocity": 84}, {"time": 2102, "pitch": 56, "duration": 9, "velocity": 75}, {"time": 2102, "pitch": 60, "duration": 13, "velocity": 77}, {"time": 2108, "pitch": 51, "duration": 14, "velocity": 79}, {"time": 2114, "pitch": 56, "duration": 7, "velocity": 87}, {"time": 2120, "pitch": 60, "duration": 7, "velocity": 90}, {"time": 2126, "pitch": 46, "duration": 33, "velocity": 83}, {"time": 2126, "pitch": 61, "duration": 31, "velocity": 82}, {"time": 2132, "pitch": 53, "duration": 26, "velocity": 76}, {"time": 2138, "pitch": 58, "duration": 20, "velocity": 74}, {"time": 2144, "pitch": 65, "duration": 30, "velocity": 82}, {"time": 2174, "pitch": 42, "duration": 19, "velocity": 82}, {"time": 2174, "pitch": 61, "duration": 13, "velocity": 82}, {"time": 2180, "pitch": 49, "duration": 13, "velocity": 80}, {"time": 2186, "pitch": 54, "duration": 7, "velocity": 88}, {"time": 2192, "pitch": 61, "duration": 7, "velocity": 81}, {"time": 2198, "pitch": 44, "duration": 20, "velocity": 83}, {"time": 2198, "pitch": 60, "duration": 14, "velocity": 80}, {"time": 2204, "pitch": 51, "duration": 12, "velocity": 75}, {"time": 2210, "pitch": 56, "duration": 6, "velocity": 74}, {"time": 2222, "pitch": 49, "duration": 38, "velocity": 86}, {"time": 2222, "pitch": 61, "duration": 13, "velocity": 80}, {"time": 2228, "pitch": 53, "duration": 32, "velocity": 73}, {"time": 2234, "pitch": 63, "duration": 14, "velocity": 77}, {"time": 2240, "pitch": 56, "duration": 9, "velocity": 72}, {"time": 2246, "pitch": 65, "duration": 15, "velocity": 86}, {"time": 2270, "pitch": 42, "duration": 19, "velocity": 86}, {"time": 2270, "pitch": 61, "duration": 13, "velocity": 81}, {"time": 2276, "pitch": 49, "duration": 13, "velocity": 78}, {"time": 2282, "pitch": 54, "duration": 6, "velocity": 87}, {"time": 2288, "pitch": 61, "duration": 6, "velocity": 86}, {"time": 2294, "pitch": 44, "duration": 15, "velocity": 83}, {"time": 2294, "pitch": 60, "duration": 12, "velocity": 80}, {"time": 2300, "pitch": 51, "duration": 9, "velocity": 76}, {"time": 2306, "pitch": 56, "duration": 3, "velocity": 75}, {"time": 2318, "pitch": 46, "duration": 38, "velocity": 86}, {"time": 2318, "pitch": 61, "duration": 14, "velocity": 82}, {"time": 2324, "pitch": 53, "duration": 9, "velocity": 78}, {"time": 2330, "pitch": 58, "duration": 22, "velocity": 74}, {"time": 2336, "pitch": 53, "duration": 20, "velocity": 82}, {"time": 2342, "pitch": 65, "duration": 23, "velocity": 86}, {"time": 2366, "pitch": 42, "duration": 17, "velocity": 83}, {"time": 2366, "pitch": 61, "duration": 13, "velocity": 81}, {"time": 2372, "pitch": 49, "duration": 12, "velocity": 78}, {"time": 2378, "pitch": 54, "duration": 5, "velocity": 87}, {"time": 2390, "pitch": 44, "duration": 18, "velocity": 86}, {"time": 2390, "pitch": 56, "duration": 8, "velocity": 78}, {"time": 2390, "pitch": 60, "duration": 13, "velocity": 82}, {"time": 2396, "pitch": 51, "duration": 12, "velocity": 80}, {"time": 2402, "pitch": 56, "duration": 3, "velocity": 86}, {"time": 2414, "pitch": 46, "duration": 36, "velocity": 84}, {"time": 2414, "pitch": 61, "duration": 13, "velocity": 79}, {"time": 2420, "pitch": 53, "duration": 20, "velocity": 78}, {"time": 2426, "pitch": 60, "duration": 7, "velocity": 79}, {"time": 2432, "pitch": 61, "duration": 13, "velocity": 80}, {"time": 2438, "pitch": 58, "duration": 12, "velocity": 82}, {"time": 2444, "pitch": 53, "duration": 6, "velocity": 86}, {"time": 2450, "pitch": 61, "duration": 2, "velocity": 82}, {"time": 2450, "pitch": 65, "duration": 2, "velocity": 87}, {"time": 2462, "pitch": 42, "duration": 16, "velocity": 87}, {"time": 2462, "pitch": 58, "duration": 8, "velocity": 84}, {"time": 2462, "pitch": 61, "duration": 9, "velocity": 85}, {"time": 2468, "pitch": 49, "duration": 8, "velocity": 87}, {"time": 2474, "pitch": 58, "duration": 3, "velocity": 90}, {"time": 2474, "pitch": 61, "duration": 7, "velocity": 95}, {"time": 2474, "pitch": 66, "duration": 7, "velocity": 87}, {"time": 2480, "pitch": 58, "duration": 2, "velocity": 83}, {"time": 2486, "pitch": 44, "duration": 15, "velocity": 88}, {"time": 2486, "pitch": 56, "duration": 7, "velocity": 42}, {"time": 2486, "pitch": 60, "duration": 7, "velocity": 34}, {"time": 2492, "pitch": 51, "duration": 8, "velocity": 88}, {"time": 2498, "pitch": 56, "duration": 4, "velocity": 87}, {"time": 2498, "pitch": 60, "duration": 5, "velocity": 92}, {"time": 2498, "pitch": 63, "duration": 5, "velocity": 88}, {"time": 2504, "pitch": 51, "duration": 2, "velocity": 81}, {"time": 2510, "pitch": 46, "duration": 21, "velocity": 87}, {"time": 2510, "pitch": 58, "duration": 5, "velocity": 83}, {"time": 2510, "pitch": 61, "duration": 6, "velocity": 86}, {"time": 2516, "pitch": 53, "duration": 15, "velocity": 80}, {"time": 2522, "pitch": 58, "duration": 3, "velocity": 88}, {"time": 2522, "pitch": 65, "duration": 4, "velocity": 90}, {"time": 2528, "pitch": 63, "duration": 3, "velocity": 88}, {"time": 2534, "pitch": 46, "duration": 15, "velocity": 87}, {"time": 2534, "pitch": 61, "duration": 7, "velocity": 86}, {"time": 2534, "pitch": 65, "duration": 6, "velocity": 88}, {"time": 2540, "pitch": 53, "duration": 8, "velocity": 82}, {"time": 2546, "pitch": 58, "duration": 3, "velocity": 86}, {"time": 2546, "pitch": 61, "duration": 4, "velocity": 90}, {"time": 2552, "pitch": 60, "duration": 2, "velocity": 93}, {"time": 2558, "pitch": 42, "duration": 15, "velocity": 86}, {"time": 2558, "pitch": 54, "duration": 8, "velocity": 86}, {"time": 2558, "pitch": 58, "duration": 8, "velocity": 86}, {"time": 2564, "pitch": 49, "duration": 8, "velocity": 83}, {"time": 2570, "pitch": 54, "duration": 3, "velocity": 87}, {"time": 2570, "pitch": 61, "duration": 4, "velocity": 88}, {"time": 2582, "pitch": 44, "duration": 16, "velocity": 89}, {"time": 2582, "pitch": 56, "duration": 6, "velocity": 86}, {"time": 2582, "pitch": 60, "duration": 7, "velocity": 86}, {"time": 2588, "pitch": 51, "duration": 10, "velocity": 78}, {"time": 2594, "pitch": 56, "duration": 3, "velocity": 86}, {"time": 2594, "pitch": 60, "duration": 4, "velocity": 89}, {"time": 2594, "pitch": 63, "duration": 5, "velocity": 88}, {"time": 2600, "pitch": 56, "duration": 3, "velocity": 86}, {"time": 2606, "pitch": 49, "duration": 40, "velocity": 84}, {"time": 2606, "pitch": 56, "duration": 3, "velocity": 87}, {"time": 2606, "pitch": 65, "duration": 8, "velocity": 89}, {"time": 2612, "pitch": 56, "duration": 5, "velocity": 81}, {"time": 2618, "pitch": 61, "duration": 2, "velocity": 90}, {"time": 2624, "pitch": 56, "duration": 2, "velocity": 86}, {"time": 2630, "pitch": 56, "duration": 2, "velocity": 91}, {"time": 2630, "pitch": 68, "duration": 6, "velocity": 87}, {"time": 2636, "pitch": 56, "duration": 2, "velocity": 89}, {"time": 2642, "pitch": 56, "duration": 2, "velocity": 92}, {"time": 2642, "pitch": 65, "duration": 3, "velocity": 92}, {"time": 2654, "pitch": 42, "duration": 18, "velocity": 87}, {"time": 2654, "pitch": 58, "duration": 4, "velocity": 80}, {"time": 2654, "pitch": 61, "duration": 7, "velocity": 86}, {"time": 2660, "pitch": 49, "duration": 12, "velocity": 78}, {"time": 2666, "pitch": 54, "duration": 7, "velocity": 88}, {"time": 2672, "pitch": 58, "duration": 4, "velocity": 83}, {"time": 2678, "pitch": 44, "duration": 20, "velocity": 87}, {"time": 2678, "pitch": 56, "duration": 7, "velocity": 81}, {"time": 2678, "pitch": 60, "duration": 6, "velocity": 80}, {"time": 2684, "pitch": 51, "duration": 8, "velocity": 86}, {"time": 2690, "pitch": 56, "duration": 5, "velocity": 87}, {"time": 2690, "pitch": 60, "duration": 9, "velocity": 92}, {"time": 2696, "pitch": 51, "duration": 4, "velocity": 88}, {"time": 2702, "pitch": 46, "duration": 40, "velocity": 86}, {"time": 2702, "pitch": 58, "duration": 7, "velocity": 80}, {"time": 2702, "pitch": 61, "duration": 7, "velocity": 84}, {"time": 2708, "pitch": 53, "duration": 8, "velocity": 81}, {"time": 2714, "pitch": 58, "duration": 7, "velocity": 81}, {"time": 2714, "pitch": 61, "duration": 7, "velocity": 86}, {"time": 2720, "pitch": 53, "duration": 7, "velocity": 86}, {"time": 2726, "pitch": 58, "duration": 8, "velocity": 89}, {"time": 2726, "pitch": 65, "duration": 9, "velocity": 93}, {"time": 2732, "pitch": 53, "duration": 8, "velocity": 95}, {"time": 2738, "pitch": 58, "duration": 3, "velocity": 86}, {"time": 2738, "pitch": 61, "duration": 3, "velocity": 97}, {"time": 2744, "pitch": 60, "duration": 2, "velocity": 92}, {"time": 2750, "pitch": 42, "duration": 15, "velocity": 88}, {"time": 2750, "pitch": 54, "duration": 8, "velocity": 85}, {"time": 2750, "pitch": 58, "duration": 9, "velocity": 86}, {"time": 2756, "pitch": 49, "duration": 8, "velocity": 86}, {"time": 2762, "pitch": 54, "duration": 4, "velocity": 88}, {"time": 2762, "pitch": 58, "duration": 5, "velocity": 91}, {"time": 2762, "pitch": 61, "duration": 6, "velocity": 89}, {"time": 2768, "pitch": 49, "duration": 3, "velocity": 88}, {"time": 2774, "pitch": 44, "duration": 17, "velocity": 88}, {"time": 2774, "pitch": 56, "duration": 8, "velocity": 86}, {"time": 2774, "pitch": 60, "duration": 8, "velocity": 87}, {"time": 2780, "pitch": 51, "duration": 8, "velocity": 83}, {"time": 2786, "pitch": 56, "duration": 5, "velocity": 87}, {"time": 2786, "pitch": 60, "duration": 6, "velocity": 88}, {"time": 2786, "pitch": 63, "duration": 10, "velocity": 87}, {"time": 2798, "pitch": 46, "duration": 27, "velocity": 87}, {"time": 2798, "pitch": 58, "duration": 8, "velocity": 79}, {"time": 2798, "pitch": 61, "duration": 6, "velocity": 83}, {"time": 2804, "pitch": 53, "duration": 8, "velocity": 79}, {"time": 2810, "pitch": 58, "duration": 3, "velocity": 81}, {"time": 2810, "pitch": 65, "duration": 5, "velocity": 84}, {"time": 2816, "pitch": 53, "duration": 8, "velocity": 86}, {"time": 2822, "pitch": 58, "duration": 4, "velocity": 90}, {"time": 2822, "pitch": 70, "duration": 4, "velocity": 87}, {"time": 2828, "pitch": 46, "duration": 17, "velocity": 69}, {"time": 2828, "pitch": 53, "duration": 17, "velocity": 87}, {"time": 2834, "pitch": 58, "duration": 2, "velocity": 87}, {"time": 2834, "pitch": 61, "duration": 9, "velocity": 90}, {"time": 2834, "pitch": 65, "duration": 11, "velocity": 88}, {"time": 2840, "pitch": 58, "duration": 6, "velocity": 88}, {"time": 2846, "pitch": 42, "duration": 15, "velocity": 87}, {"time": 2846, "pitch": 54, "duration": 8, "velocity": 81}, {"time": 2846, "pitch": 58, "duration": 13, "velocity": 80}, {"time": 2852, "pitch": 49, "duration": 9, "velocity": 81}, {"time": 2858, "pitch": 54, "duration": 3, "velocity": 86}, {"time": 2870, "pitch": 44, "duration": 16, "velocity": 86}, {"time": 2870, "pitch": 56, "duration": 7, "velocity": 80}, {"time": 2870, "pitch": 60, "duration": 13, "velocity": 81}, {"time": 2876, "pitch": 51, "duration": 10, "velocity": 81}, {"time": 2882, "pitch": 56, "duration": 7, "velocity": 88}, {"time": 2888, "pitch": 60, "duration": 6, "velocity": 86}, {"time": 2894, "pitch": 46, "duration": 42, "velocity": 87}, {"time": 2894, "pitch": 61, "duration": 13, "velocity": 80}, {"time": 2900, "pitch": 53, "duration": 9, "velocity": 77}, {"time": 2906, "pitch": 58, "duration": 10, "velocity": 82}, {"time": 2912, "pitch": 53, "duration": 8, "velocity": 87}, {"time": 2918, "pitch": 58, "duration": 7, "velocity": 84}, {"time": 2918, "pitch": 61, "duration": 8, "velocity": 85}, {"time": 2918, "pitch": 65, "duration": 7, "velocity": 87}, {"time": 2924, "pitch": 53, "duration": 11, "velocity": 87}, {"time": 2930, "pitch": 61, "duration": 4, "velocity": 81}, {"time": 2930, "pitch": 65, "duration": 4, "velocity": 87}, {"time": 2936, "pitch": 60, "duration": 3, "velocity": 81}, {"time": 2936, "pitch": 63, "duration": 6, "velocity": 82}, {"time": 2942, "pitch": 42, "duration": 15, "velocity": 79}, {"time": 2942, "pitch": 58, "duration": 7, "velocity": 77}, {"time": 2942, "pitch": 61, "duration": 12, "velocity": 77}, {"time": 2948, "pitch": 49, "duration": 10, "velocity": 75}, {"time": 2954, "pitch": 58, "duration": 3, "velocity": 66}, {"time": 2966, "pitch": 44, "duration": 18, "velocity": 86}, {"time": 2966, "pitch": 56, "duration": 8, "velocity": 78}, {"time": 2966, "pitch": 60, "duration": 13, "velocity": 78}, {"time": 2972, "pitch": 51, "duration": 11, "velocity": 81}, {"time": 2978, "pitch": 56, "duration": 7, "velocity": 83}, {"time": 2990, "pitch": 49, "duration": 39, "velocity": 86}, {"time": 2990, "pitch": 65, "duration": 18, "velocity": 87}, {"time": 2996, "pitch": 53, "duration": 33, "velocity": 77}, {"time": 3002, "pitch": 56, "duration": 7, "velocity": 85}, {"time": 3008, "pitch": 63, "duration": 3, "velocity": 82}, {"time": 3014, "pitch": 56, "duration": 3, "velocity": 86}, {"time": 3014, "pitch": 65, "duration": 13, "velocity": 87}, {"time": 3020, "pitch": 56, "duration": 3, "velocity": 78}, {"time": 3026, "pitch": 56, "duration": 4, "velocity": 83}, {"time": 3026, "pitch": 61, "duration": 4, "velocity": 84}, {"time": 3038, "pitch": 42, "duration": 16, "velocity": 86}, {"time": 3038, "pitch": 54, "duration": 8, "velocity": 77}, {"time": 3038, "pitch": 58, "duration": 12, "velocity": 80}, {"time": 3044, "pitch": 49, "duration": 10, "velocity": 78}, {"time": 3050, "pitch": 54, "duration": 4, "velocity": 89}, {"time": 3062, "pitch": 44, "duration": 21, "velocity": 86}, {"time": 3062, "pitch": 56, "duration": 7, "velocity": 81}, {"time": 3062, "pitch": 60, "duration": 13, "velocity": 81}, {"time": 3068, "pitch": 51, "duration": 15, "velocity": 77}, {"time": 3074, "pitch": 56, "duration": 7, "velocity": 84}, {"time": 3080, "pitch": 60, "duration": 5, "velocity": 80}, {"time": 3086, "pitch": 46, "duration": 40, "velocity": 86}, {"time": 3086, "pitch": 58, "duration": 7, "velocity": 76}, {"time": 3086, "pitch": 61, "duration": 13, "velocity": 81}, {"time": 3092, "pitch": 53, "duration": 33, "velocity": 77}, {"time": 3098, "pitch": 60, "duration": 7, "velocity": 80}, {"time": 3104, "pitch": 61, "duration": 6, "velocity": 85}, {"time": 3110, "pitch": 65, "duration": 12, "velocity": 87}, {"time": 3116, "pitch": 58, "duration": 4, "velocity": 70}, {"time": 3122, "pitch": 58, "duration": 4, "velocity": 79}, {"time": 3122, "pitch": 61, "duration": 4, "velocity": 81}, {"time": 3134, "pitch": 42, "duration": 41, "velocity": 86}, {"time": 3134, "pitch": 54, "duration": 7, "velocity": 78}, {"time": 3134, "pitch": 61, "duration": 12, "velocity": 82}, {"time": 3140, "pitch": 49, "duration": 27, "velocity": 76}, {"time": 3146, "pitch": 54, "duration": 18, "velocity": 86}, {"time": 3152, "pitch": 58, "duration": 8, "velocity": 87}, {"time": 3164, "pitch": 58, "duration": 7, "velocity": 81}, {"time": 3164, "pitch": 61, "duration": 8, "velocity": 84}, {"time": 3164, "pitch": 66, "duration": 21, "velocity": 85}, {"time": 3170, "pitch": 49, "duration": 6, "velocity": 80}, {"time": 3176, "pitch": 54, "duration": 7, "velocity": 86}, {"time": 3176, "pitch": 58, "duration": 5, "velocity": 51}, {"time": 3176, "pitch": 61, "duration": 6, "velocity": 31}, {"time": 3182, "pitch": 44, "duration": 42, "velocity": 91}, {"time": 3188, "pitch": 51, "duration": 20, "velocity": 84}, {"time": 3194, "pitch": 63, "duration": 9, "velocity": 86}, {"time": 3200, "pitch": 56, "duration": 4, "velocity": 86}, {"time": 3206, "pitch": 56, "duration": 9, "velocity": 91}, {"time": 3206, "pitch": 63, "duration": 14, "velocity": 88}, {"time": 3206, "pitch": 68, "duration": 10, "velocity": 86}, {"time": 3212, "pitch": 51, "duration": 11, "velocity": 91}, {"time": 3218, "pitch": 56, "duration": 3, "velocity": 102}, {"time": 3230, "pitch": 42, "duration": 15, "velocity": 90}, {"time": 3230, "pitch": 54, "duration": 8, "velocity": 86}, {"time": 3230, "pitch": 61, "duration": 7, "velocity": 82}, {"time": 3236, "pitch": 49, "duration": 8, "velocity": 82}, {"time": 3242, "pitch": 54, "duration": 2, "velocity": 87}, {"time": 3242, "pitch": 58, "duration": 7, "velocity": 90}, {"time": 3242, "pitch": 61, "duration": 10, "velocity": 93}, {"time": 3248, "pitch": 54, "duration": 4, "velocity": 86}, {"time": 3254, "pitch": 54, "duration": 4, "velocity": 87}, {"time": 3254, "pitch": 58, "duration": 7, "velocity": 86}, {"time": 3260, "pitch": 54, "duration": 3, "velocity": 79}, {"time": 3266, "pitch": 54, "duration": 2, "velocity": 88}, {"time": 3266, "pitch": 58, "duration": 5, "velocity": 92}, {"time": 3266, "pitch": 61, "duration": 7, "velocity": 91}, {"time": 3272, "pitch": 54, "duration": 3, "velocity": 83}, {"time": 3278, "pitch": 41, "duration": 39, "velocity": 89}, {"time": 3278, "pitch": 53, "duration": 12, "velocity": 87}, {"time": 3278, "pitch": 56, "duration": 13, "velocity": 83}, {"time": 3284, "pitch": 48, "duration": 21, "velocity": 86}, {"time": 3290, "pitch": 60, "duration": 8, "velocity": 86}, {"time": 3296, "pitch": 53, "duration": 1, "velocity": 63}, {"time": 3296, "pitch": 56, "duration": 2, "velocity": 87}, {"time": 3302, "pitch": 53, "duration": 3, "velocity": 89}, {"time": 3302, "pitch": 56, "duration": 4, "velocity": 92}, {"time": 3302, "pitch": 65, "duration": 8, "velocity": 88}, {"time": 3308, "pitch": 48, "duration": 7, "velocity": 77}, {"time": 3308, "pitch": 53, "duration": 5, "velocity": 86}, {"time": 3314, "pitch": 56, "duration": 4, "velocity": 89}, {"time": 3314, "pitch": 60, "duration": 7, "velocity": 89}, {"time": 3320, "pitch": 53, "duration": 2, "velocity": 92}, {"time": 3326, "pitch": 42, "duration": 15, "velocity": 88}, {"time": 3326, "pitch": 54, "duration": 9, "velocity": 87}, {"time": 3326, "pitch": 58, "duration": 9, "velocity": 81}, {"time": 3332, "pitch": 49, "duration": 9, "velocity": 86}, {"time": 3338, "pitch": 54, "duration": 2, "velocity": 87}, {"time": 3338, "pitch": 58, "duration": 6, "velocity": 87}, {"time": 3338, "pitch": 61, "duration": 8, "velocity": 87}, {"time": 3344, "pitch": 54, "duration": 2, "velocity": 88}, {"time": 3350, "pitch": 44, "duration": 19, "velocity": 87}, {"time": 3350, "pitch": 56, "duration": 10, "velocity": 88}, {"time": 3350, "pitch": 60, "duration": 10, "velocity": 87}, {"time": 3356, "pitch": 51, "duration": 10, "velocity": 86}, {"time": 3362, "pitch": 56, "duration": 3, "velocity": 85}, {"time": 3362, "pitch": 63, "duration": 7, "velocity": 86}, {"time": 3368, "pitch": 56, "duration": 6, "velocity": 88}, {"time": 3374, "pitch": 49, "duration": 17, "velocity": 88}, {"time": 3374, "pitch": 56, "duration": 1, "velocity": 60}, {"time": 3374, "pitch": 61, "duration": 8, "velocity": 88}, {"time": 3380, "pitch": 56, "duration": 7, "velocity": 89}, {"time": 3386, "pitch": 63, "duration": 6, "velocity": 87}, {"time": 3392, "pitch": 56, "duration": 4, "velocity": 88}, {"time": 3398, "pitch": 49, "duration": 17, "velocity": 97}, {"time": 3398, "pitch": 56, "duration": 3, "velocity": 86}, {"time": 3398, "pitch": 61, "duration": 5, "velocity": 89}, {"time": 3398, "pitch": 65, "duration": 7, "velocity": 89}, {"time": 3404, "pitch": 56, "duration": 3, "velocity": 88}, {"time": 3404, "pitch": 61, "duration": 1, "velocity": 51}, {"time": 3410, "pitch": 56, "duration": 4, "velocity": 89}, {"time": 3410, "pitch": 61, "duration": 6, "velocity": 92}, {"time": 3416, "pitch": 60, "duration": 5, "velocity": 91}, {"time": 3422, "pitch": 46, "duration": 39, "velocity": 88}, {"time": 3422, "pitch": 58, "duration": 7, "velocity": 86}, {"time": 3422, "pitch": 61, "duration": 9, "velocity": 89}, {"time": 3428, "pitch": 53, "duration": 8, "velocity": 82}, {"time": 3434, "pitch": 58, "duration": 6, "velocity": 88}, {"time": 3440, "pitch": 53, "duration": 7, "velocity": 76}, {"time": 3446, "pitch": 58, "duration": 5, "velocity": 88}, {"time": 3446, "pitch": 65, "duration": 11, "velocity": 87}, {"time": 3452, "pitch": 53, "duration": 9, "velocity": 80}, {"time": 3458, "pitch": 58, "duration": 3, "velocity": 83}, {"time": 3458, "pitch": 61, "duration": 7, "velocity": 91}, {"time": 3464, "pitch": 46, "duration": 2, "velocity": 88}, {"time": 3470, "pitch": 39, "duration": 1, "velocity": 88}, {"time": 3470, "pitch": 41, "duration": 37, "velocity": 85}, {"time": 3476, "pitch": 48, "duration": 20, "velocity": 82}, {"time": 3482, "pitch": 56, "duration": 8, "velocity": 92}, {"time": 3488, "pitch": 60, "duration": 4, "velocity": 89}, {"time": 3494, "pitch": 56, "duration": 5, "velocity": 84}, {"time": 3494, "pitch": 60, "duration": 6, "velocity": 87}, {"time": 3494, "pitch": 63, "duration": 9, "velocity": 86}, {"time": 3500, "pitch": 48, "duration": 7, "velocity": 82}, {"time": 3506, "pitch": 56, "duration": 2, "velocity": 90}, {"time": 3518, "pitch": 42, "duration": 38, "velocity": 87}, {"time": 3518, "pitch": 54, "duration": 7, "velocity": 84}, {"time": 3518, "pitch": 58, "duration": 9, "velocity": 82}, {"time": 3524, "pitch": 49, "duration": 20, "velocity": 80}, {"time": 3530, "pitch": 61, "duration": 7, "velocity": 86}, {"time": 3536, "pitch": 54, "duration": 2, "velocity": 86}, {"time": 3542, "pitch": 54, "duration": 9, "velocity": 91}, {"time": 3542, "pitch": 66, "duration": 7, "velocity": 86}, {"time": 3548, "pitch": 49, "duration": 5, "velocity": 92}, {"time": 3554, "pitch": 58, "duration": 6, "velocity": 86}, {"time": 3560, "pitch": 49, "duration": 2, "velocity": 89}, {"time": 3566, "pitch": 44, "duration": 16, "velocity": 88}, {"time": 3566, "pitch": 56, "duration": 7, "velocity": 87}, {"time": 3566, "pitch": 60, "duration": 7, "velocity": 86}, {"time": 3572, "pitch": 51, "duration": 8, "velocity": 89}, {"time": 3578, "pitch": 56, "duration": 2, "velocity": 87}, {"time": 3578, "pitch": 60, "duration": 4, "velocity": 88}, {"time": 3578, "pitch": 63, "duration": 6, "velocity": 88}, {"time": 3584, "pitch": 56, "duration": 4, "velocity": 87}, {"time": 3590, "pitch": 44, "duration": 19, "velocity": 88}, {"time": 3590, "pitch": 56, "duration": 3, "velocity": 82}, {"time": 3590, "pitch": 60, "duration": 5, "velocity": 90}, {"time": 3590, "pitch": 63, "duration": 5, "velocity": 92}, {"time": 3590, "pitch": 68, "duration": 8, "velocity": 87}, {"time": 3596, "pitch": 51, "duration": 8, "velocity": 87}, {"time": 3602, "pitch": 68, "duration": 11, "velocity": 87}, {"time": 3602, "pitch": 72, "duration": 11, "velocity": 91}, {"time": 3608, "pitch": 51, "duration": 4, "velocity": 89}, {"time": 3614, "pitch": 42, "duration": 15, "velocity": 90}, {"time": 3614, "pitch": 54, "duration": 8, "velocity": 86}, {"time": 3614, "pitch": 61, "duration": 7, "velocity": 82}, {"time": 3620, "pitch": 49, "duration": 8, "velocity": 82}, {"time": 3626, "pitch": 54, "duration": 2, "velocity": 87}, {"time": 3626, "pitch": 58, "duration": 7, "velocity": 90}, {"time": 3626, "pitch": 61, "duration": 10, "velocity": 93}, {"time": 3632, "pitch": 54, "duration": 4, "velocity": 86}, {"time": 3638, "pitch": 54, "duration": 4, "velocity": 87}, {"time": 3638, "pitch": 58, "duration": 7, "velocity": 86}, {"time": 3644, "pitch": 54, "duration": 3, "velocity": 79}, {"time": 3650, "pitch": 54, "duration": 2, "velocity": 88}, {"time": 3650, "pitch": 58, "duration": 5, "velocity": 92}, {"time": 3650, "pitch": 61, "duration": 7, "velocity": 91}, {"time": 3656, "pitch": 54, "duration": 3, "velocity": 83}, {"time": 3662, "pitch": 41, "duration": 39, "velocity": 89}, {"time": 3662, "pitch": 53, "duration": 12, "velocity": 87}, {"time": 3662, "pitch": 56, "duration": 13, "velocity": 83}, {"time": 3668, "pitch": 48, "duration": 21, "velocity": 86}, {"time": 3674, "pitch": 60, "duration": 8, "velocity": 86}, {"time": 3680, "pitch": 53, "duration": 1, "velocity": 63}, {"time": 3680, "pitch": 56, "duration": 2, "velocity": 87}, {"time": 3686, "pitch": 53, "duration": 3, "velocity": 89}, {"time": 3686, "pitch": 56, "duration": 4, "velocity": 92}, {"time": 3686, "pitch": 65, "duration": 8, "velocity": 88}, {"time": 3692, "pitch": 48, "duration": 7, "velocity": 77}, {"time": 3692, "pitch": 53, "duration": 5, "velocity": 86}, {"time": 3698, "pitch": 56, "duration": 4, "velocity": 89}, {"time": 3698, "pitch": 60, "duration": 7, "velocity": 89}, {"time": 3704, "pitch": 53, "duration": 2, "velocity": 92}, {"time": 3710, "pitch": 42, "duration": 15, "velocity": 88}, {"time": 3710, "pitch": 54, "duration": 9, "velocity": 87}, {"time": 3710, "pitch": 58, "duration": 9, "velocity": 81}, {"time": 3716, "pitch": 49, "duration": 9, "velocity": 86}, {"time": 3722, "pitch": 54, "duration": 2, "velocity": 87}, {"time": 3722, "pitch": 58, "duration": 6, "velocity": 87}, {"time": 3722, "pitch": 61, "duration": 8, "velocity": 87}, {"time": 3728, "pitch": 54, "duration": 2, "velocity": 88}, {"time": 3734, "pitch": 44, "duration": 19, "velocity": 87}, {"time": 3734, "pitch": 56, "duration": 10, "velocity": 88}, {"time": 3734, "pitch": 60, "duration": 10, "velocity": 87}, {"time": 3740, "pitch": 51, "duration": 10, "velocity": 86}, {"time": 3746, "pitch": 56, "duration": 3, "velocity": 85}, {"time": 3746, "pitch": 63, "duration": 7, "velocity": 86}, {"time": 3752, "pitch": 56, "duration": 6, "velocity": 88}, {"time": 3758, "pitch": 49, "duration": 17, "velocity": 88}, {"time": 3758, "pitch": 56, "duration": 1, "velocity": 60}, {"time": 3758, "pitch": 61, "duration": 8, "velocity": 88}, {"time": 3764, "pitch": 56, "duration": 7, "velocity": 89}, {"time": 3770, "pitch": 63, "duration": 6, "velocity": 87}, {"time": 3776, "pitch": 56, "duration": 4, "velocity": 88}, {"time": 3782, "pitch": 49, "duration": 17, "velocity": 97}, {"time": 3782, "pitch": 56, "duration": 3, "velocity": 86}, {"time": 3782, "pitch": 61, "duration": 5, "velocity": 89}, {"time": 3782, "pitch": 65, "duration": 7, "velocity": 89}, {"time": 3788, "pitch": 56, "duration": 3, "velocity": 88}, {"time": 3788, "pitch": 61, "duration": 1, "velocity": 51}, {"time": 3794, "pitch": 56, "duration": 4, "velocity": 89}, {"time": 3794, "pitch": 61, "duration": 6, "velocity": 92}, {"time": 3800, "pitch": 60, "duration": 5, "velocity": 91}, {"time": 3806, "pitch": 46, "duration": 39, "velocity": 88}, {"time": 3806, "pitch": 58, "duration": 7, "velocity": 86}, {"time": 3806, "pitch": 61, "duration": 9, "velocity": 89}, {"time": 3812, "pitch": 53, "duration": 8, "velocity": 82}, {"time": 3818, "pitch": 58, "duration": 6, "velocity": 88}, {"time": 3824, "pitch": 53, "duration": 7, "velocity": 76}, {"time": 3830, "pitch": 58, "duration": 5, "velocity": 88}, {"time": 3830, "pitch": 65, "duration": 11, "velocity": 87}, {"time": 3836, "pitch": 53, "duration": 9, "velocity": 80}, {"time": 3842, "pitch": 58, "duration": 3, "velocity": 83}, {"time": 3842, "pitch": 61, "duration": 7, "velocity": 91}, {"time": 3848, "pitch": 46, "duration": 2, "velocity": 88}, {"time": 3854, "pitch": 39, "duration": 1, "velocity": 88}, {"time": 3854, "pitch": 41, "duration": 37, "velocity": 85}, {"time": 3860, "pitch": 48, "duration": 20, "velocity": 82}, {"time": 3866, "pitch": 56, "duration": 8, "velocity": 92}, {"time": 3872, "pitch": 60, "duration": 4, "velocity": 89}, {"time": 3878, "pitch": 56, "duration": 5, "velocity": 84}, {"time": 3878, "pitch": 60, "duration": 6, "velocity": 87}, {"time": 3878, "pitch": 63, "duration": 9, "velocity": 86}, {"time": 3884, "pitch": 48, "duration": 7, "velocity": 82}, {"time": 3890, "pitch": 56, "duration": 2, "velocity": 90}, {"time": 3902, "pitch": 42, "duration": 38, "velocity": 87}, {"time": 3902, "pitch": 54, "duration": 7, "velocity": 84}, {"time": 3902, "pitch": 58, "duration": 9, "velocity": 82}, {"time": 3908, "pitch": 49, "duration": 20, "velocity": 80}, {"time": 3914, "pitch": 61, "duration": 7, "velocity": 86}, {"time": 3920, "pitch": 54, "duration": 2, "velocity": 86}, {"time": 3926, "pitch": 54, "duration": 9, "velocity": 91}, {"time": 3926, "pitch": 66, "duration": 7, "velocity": 86}, {"time": 3932, "pitch": 49, "duration": 5, "velocity": 92}, {"time": 3938, "pitch": 58, "duration": 6, "velocity": 86}, {"time": 3944, "pitch": 49, "duration": 2, "velocity": 89}, {"time": 3950, "pitch": 44, "duration": 16, "velocity": 88}, {"time": 3950, "pitch": 56, "duration": 7, "velocity": 87}, {"time": 3950, "pitch": 60, "duration": 7, "velocity": 86}, {"time": 3956, "pitch": 51, "duration": 8, "velocity": 89}, {"time": 3962, "pitch": 56, "duration": 2, "velocity": 87}, {"time": 3962, "pitch": 60, "duration": 4, "velocity": 88}, {"time": 3962, "pitch": 63, "duration": 6, "velocity": 88}, {"time": 3968, "pitch": 56, "duration": 4, "velocity": 87}, {"time": 3974, "pitch": 44, "duration": 19, "velocity": 88}, {"time": 3974, "pitch": 56, "duration": 3, "velocity": 82}, {"time": 3974, "pitch": 60, "duration": 5, "velocity": 90}, {"time": 3974, "pitch": 63, "duration": 5, "velocity": 92}, {"time": 3974, "pitch": 68, "duration": 8, "velocity": 87}, {"time": 3980, "pitch": 51, "duration": 8, "velocity": 87}, {"time": 3986, "pitch": 68, "duration": 11, "velocity": 87}, {"time": 3986, "pitch": 72, "duration": 11, "velocity": 91}, {"time": 3992, "pitch": 51, "duration": 4, "velocity": 89}, {"time": 3996, "pitch": 56, "duration": 47, "velocity": 74}, {"time": 3997, "pitch": 63, "duration": 46, "velocity": 85}, {"time": 3997, "pitch": 44, "duration": 11, "velocity": 86}, {"time": 3998, "pitch": 68, "duration": 45, "velocity": 70}, {"time": 4046, "pitch": 42, "duration": 15, "velocity": 84}, {"time": 4046, "pitch": 54, "duration": 7, "velocity": 71}, {"time": 4046, "pitch": 58, "duration": 12, "velocity": 73}, {"time": 4052, "pitch": 49, "duration": 10, "velocity": 70}, {"time": 4058, "pitch": 54, "duration": 3, "velocity": 74}, {"time": 4070, "pitch": 44, "duration": 20, "velocity": 84}, {"time": 4070, "pitch": 56, "duration": 9, "velocity": 75}, {"time": 4070, "pitch": 60, "duration": 13, "velocity": 77}, {"time": 4076, "pitch": 51, "duration": 14, "velocity": 79}, {"time": 4082, "pitch": 56, "duration": 7, "velocity": 87}, {"time": 4088, "pitch": 60, "duration": 7, "velocity": 90}, {"time": 4094, "pitch": 46, "duration": 33, "velocity": 83}, {"time": 4094, "pitch": 61, "duration": 31, "velocity": 82}, {"time": 4100, "pitch": 53, "duration": 26, "velocity": 76}, {"time": 4106, "pitch": 58, "duration": 20, "velocity": 74}, {"time": 4112, "pitch": 65, "duration": 30, "velocity": 82}, {"time": 4142, "pitch": 42, "duration": 19, "velocity": 82}, {"time": 4142, "pitch": 61, "duration": 13, "velocity": 82}, {"time": 4148, "pitch": 49, "duration": 13, "velocity": 80}, {"time": 4154, "pitch": 54, "duration": 7, "velocity": 88}, {"time": 4160, "pitch": 61, "duration": 7, "velocity": 81}, {"time": 4166, "pitch": 44, "duration": 20, "velocity": 83}, {"time": 4166, "pitch": 60, "duration": 14, "velocity": 80}, {"time": 4172, "pitch": 51, "duration": 12, "velocity": 75}, {"time": 4178, "pitch": 56, "duration": 6, "velocity": 74}, {"time": 4190, "pitch": 49, "duration": 38, "velocity": 86}, {"time": 4190, "pitch": 61, "duration": 13, "velocity": 80}, {"time": 4196, "pitch": 53, "duration": 32, "velocity": 73}, {"time": 4202, "pitch": 63, "duration": 14, "velocity": 77}, {"time": 4208, "pitch": 56, "duration": 9, "velocity": 72}, {"time": 4214, "pitch": 65, "duration": 15, "velocity": 86}, {"time": 4238, "pitch": 42, "duration": 19, "velocity": 86}, {"time": 4238, "pitch": 61, "duration": 13, "velocity": 81}, {"time": 4244, "pitch": 49, "duration": 13, "velocity": 78}, {"time": 4250, "pitch": 54, "duration": 6, "velocity": 87}, {"time": 4256, "pitch": 61, "duration": 6, "velocity": 86}, {"time": 4262, "pitch": 44, "duration": 15, "velocity": 83}, {"time": 4262, "pitch": 60, "duration": 12, "velocity": 80}, {"time": 4268, "pitch": 51, "duration": 9, "velocity": 76}, {"time": 4274, "pitch": 56, "duration": 3, "velocity": 75}, {"time": 4286, "pitch": 46, "duration": 38, "velocity": 86}, {"time": 4286, "pitch": 61, "duration": 14, "velocity": 82}, {"time": 4292, "pitch": 53, "duration": 9, "velocity": 78}, {"time": 4298, "pitch": 58, "duration": 22, "velocity": 74}, {"time": 4304, "pitch": 53, "duration": 20, "velocity": 82}, {"time": 4310, "pitch": 65, "duration": 23, "velocity": 86}, {"time": 4334, "pitch": 42, "duration": 17, "velocity": 83}, {"time": 4334, "pitch": 61, "duration": 13, "velocity": 81}, {"time": 4340, "pitch": 49, "duration": 12, "velocity": 78}, {"time": 4346, "pitch": 54, "duration": 5, "velocity": 87}, {"time": 4358, "pitch": 44, "duration": 18, "velocity": 86}, {"time": 4358, "pitch": 56, "duration": 8, "velocity": 78}, {"time": 4358, "pitch": 60, "duration": 13, "velocity": 82}, {"time": 4364, "pitch": 51, "duration": 12, "velocity": 80}, {"time": 4370, "pitch": 56, "duration": 3, "velocity": 86}, {"time": 4381, "pitch": 46, "duration": 45, "velocity": 86}, {"time": 4381, "pitch": 65, "duration": 7, "velocity": 81}, {"time": 4381, "pitch": 58, "duration": 8, "velocity": 75}, {"time": 4388, "pitch": 53, "duration": 36, "velocity": 72}, {"time": 4394, "pitch": 60, "duration": 3, "velocity": 75}, {"time": 4401, "pitch": 61, "duration": 12, "velocity": 80}, {"time": 4407, "pitch": 65, "duration": 23, "velocity": 86}, {"time": 4435, "pitch": 42, "duration": 19, "velocity": 82}, {"time": 4438, "pitch": 49, "duration": 16, "velocity": 80}, {"time": 4439, "pitch": 54, "duration": 20, "velocity": 75}, {"time": 4441, "pitch": 58, "duration": 19, "velocity": 78}, {"time": 4443, "pitch": 61, "duration": 18, "velocity": 81}, {"time": 4464, "pitch": 44, "duration": 52, "velocity": 85}, {"time": 4471, "pitch": 51, "duration": 45, "velocity": 79}, {"time": 4478, "pitch": 63, "duration": 43, "velocity": 80}, {"time": 4494, "pitch": 68, "duration": 29, "velocity": 78}, {"time": 4526, "pitch": 65, "duration": 14, "velocity": 85}, {"time": 4526, "pitch": 46, "duration": 41, "velocity": 86}, {"time": 4533, "pitch": 53, "duration": 13, "velocity": 76}, {"time": 4538, "pitch": 60, "duration": 7, "velocity": 68}, {"time": 4544, "pitch": 61, "duration": 9, "velocity": 77}, {"time": 4550, "pitch": 53, "duration": 16, "velocity": 65}, {"time": 4563, "pitch": 61, "duration": 5, "velocity": 52}, {"time": 4577, "pitch": 65, "duration": 18, "velocity": 89}, {"time": 4577, "pitch": 42, "duration": 31, "velocity": 86}, {"time": 4582, "pitch": 49, "duration": 27, "velocity": 73}, {"time": 4588, "pitch": 54, "duration": 20, "velocity": 58}, {"time": 4595, "pitch": 58, "duration": 18, "velocity": 74}, {"time": 4605, "pitch": 61, "duration": 9, "velocity": 70}, {"time": 4617, "pitch": 44, "duration": 31, "velocity": 74}, {"time": 4620, "pitch": 51, "duration": 28, "velocity": 79}, {"time": 4622, "pitch": 56, "duration": 31, "velocity": 74}, {"time": 4623, "pitch": 60, "duration": 31, "velocity": 74}, {"time": 4626, "pitch": 63, "duration": 29, "velocity": 67}, {"time": 4664, "pitch": 46, "duration": 45, "velocity": 84}, {"time": 4670, "pitch": 53, "duration": 37, "velocity": 74}, {"time": 4675, "pitch": 73, "duration": 5, "velocity": 86}, {"time": 4680, "pitch": 72, "duration": 3, "velocity": 80}, {"time": 4685, "pitch": 68, "duration": 4, "velocity": 71}, {"time": 4690, "pitch": 65, "duration": 3, "velocity": 73}, {"time": 4696, "pitch": 61, "duration": 5, "velocity": 58}, {"time": 4704, "pitch": 60, "duration": 6, "velocity": 70}, {"time": 4728, "pitch": 46, "duration": 22, "velocity": 49}, {"time": 4732, "pitch": 53, "duration": 18, "velocity": 67}, {"time": 4733, "pitch": 70, "duration": 3, "velocity": 69}, {"time": 4735, "pitch": 73, "duration": 2, "velocity": 56}, {"time": 4736, "pitch": 82, "duration": 4, "velocity": 74}], "annotations": [{"time": 15, "annotation": {"number": 64, "value": 127}, "group": "control_change"}, {"time": 62, "annotation": {"number": 64, "value": 127}, "group": "control_change"}, {"time": 106, "annotation": {"number": 64, "value": 0}, "group": "control_change"}, {"time": 117, "annotation": {"number": 64, "value": 127}, "group": "control_change"}, {"time": 133, "annotation": {"number": 64, "value": 0}, "group": "control_change"}, {"time": 140, "annotation": {"number": 64, "value": 127}, "group": "control_change"}, {"time": 157, "annotation": {"number": 64, "value": 0}, "group": "control_change"}, {"time": 164, "annotation": {"number": 64, "value": 127}, "group": "control_change"}, {"time": 203, "annotation": {"number": 64, "value": 0}, "group": "control_change"}, {"time": 210, "annotation": {"number": 64, "value": 127}, "group": "control_change"}, {"time": 228, "annotation": {"number": 64, "value": 0}, "group": "control_change"}, {"time": 235, "annotation": {"number": 64, "value": 127}, "group": "control_change"}, {"time": 251, "annotation": {"number": 64, "value": 0}, "group": "control_change"}, {"time": 259, "annotation": {"number": 64, "value": 127}, "group": "control_change"}, {"time": 299, "annotation": {"number": 64, "value": 0}, "group": "control_change"}, {"time": 306, "annotation": {"number": 64, "value": 127}, "group": "control_change"}, {"time": 325, "annotation": {"number": 64, "value": 0}, "group": "control_change"}, {"time": 331, "annotation": {"number": 64, "value": 127}, "group": "control_change"}, {"time": 348, "annotation": {"number": 64, "value": 0}, "group": "control_change"}, {"time": 355, "annotation": {"number": 64, "value": 127}, "group": "control_change"}, {"time": 395, "annotation": {"number": 64, "value": 0}, "group": "control_change"}, {"time": 420, "annotation": {"number": 64, "value": 127}, "group": "control_change"}, {"time": 491, "annotation": {"number": 64, "value": 0}, "group": "control_change"}, {"time": 497, "annotation": {"number": 64, "value": 127}, "group": "control_change"}, {"time": 518, "annotation": {"number": 64, "value": 0}, "group": "control_change"}, {"time": 524, "annotation": {"number": 64, "value": 127}, "group": "control_change"}, {"time": 540, "annotation": {"number": 64, "value": 0}, "group": "control_change"}, {"time": 546, "annotation": {"number": 64, "value": 127}, "group": "control_change"}, {"time": 588, "annotation": {"number": 64, "value": 0}, "group": "control_change"}, {"time": 593, "annotation": {"number": 64, "value": 127}, "group": "control_change"}, {"time": 612, "annotation": {"number": 64, "value": 0}, "group": "control_change"}, {"time": 616, "annotation": {"number": 64, "value": 127}, "group": "control_change"}, {"time": 636, "annotation": {"number": 64, "value": 0}, "group": "control_change"}, {"time": 640, "annotation": {"number": 64, "value": 127}, "group": "control_change"}, {"time": 685, "annotation": {"number": 64, "value": 0}, "group": "control_change"}, {"time": 692, "annotation": {"number": 64, "value": 127}, "group": "control_change"}, {"time": 708, "annotation": {"number": 64, "value": 0}, "group": "control_change"}, {"time": 716, "annotation": {"number": 64, "value": 127}, "group": "control_change"}, {"time": 732, "annotation": {"number": 64, "value": 0}, "group": "control_change"}, {"time": 740, "annotation": {"number": 64, "value": 127}, "group": "control_change"}, {"time": 782, "annotation": {"number": 64, "value": 0}, "group": "control_change"}, {"time": 786, "annotation": {"number": 64, "value": 127}, "group": "control_change"}, {"time": 804, "annotation": {"number": 64, "value": 0}, "group": "control_change"}, {"time": 811, "annotation": {"number": 64, "value": 127}, "group": "control_change"}, {"time": 827, "annotation": {"number": 64, "value": 0}, "group": "control_change"}, {"time": 835, "annotation": {"number": 64, "value": 127}, "group": "control_change"}, {"time": 876, "annotation": {"number": 64, "value": 0}, "group": "control_change"}, {"time": 884, "annotation": {"number": 64, "value": 127}, "group": "control_change"}, {"time": 901, "annotation": {"number": 64, "value": 0}, "group": "control_change"}, {"time": 908, "annotation": {"number": 64, "value": 127}, "group": "control_change"}, {"time": 924, "annotation": {"number": 64, "value": 0}, "group": "control_change"}, {"time": 932, "annotation": {"number": 64, "value": 127}, "group": "control_change"}, {"time": 973, "annotation": {"number": 64, "value": 0}, "group": "control_change"}, {"time": 979, "annotation": {"number": 64, "value": 127}, "group": "control_change"}, {"time": 996, "annotation": {"number": 64, "value": 0}, "group": "control_change"}, {"time": 1003, "annotation": {"number": 64, "value": 127}, "group": "control_change"}, {"time": 1020, "annotation": {"number": 64, "value": 0}, "group": "control_change"}, {"time": 1026, "annotation": {"number": 64, "value": 127}, "group": "control_change"}, {"time": 1069, "annotation": {"number": 64, "value": 0}, "group": "control_change"}, {"time": 1075, "annotation": {"number": 64, "value": 127}, "group": "control_change"}, {"time": 1075, "annotation": {"number": 64, "value": 0}, "group": "control_change"}, {"time": 1076, "annotation": {"number": 64, "value": 127}, "group": "control_change"}, {"time": 1092, "annotation": {"number": 64, "value": 0}, "group": "control_change"}, {"time": 1100, "annotation": {"number": 64, "value": 127}, "group": "control_change"}, {"time": 1116, "annotation": {"number": 64, "value": 0}, "group": "control_change"}, {"time": 1123, "annotation": {"number": 64, "value": 127}, "group": "control_change"}, {"time": 1165, "annotation": {"number": 64, "value": 127}, "group": "control_change"}, {"time": 1210, "annotation": {"number": 64, "value": 0}, "group": "control_change"}, {"time": 1216, "annotation": {"number": 64, "value": 127}, "group": "control_change"}, {"time": 1258, "annotation": {"number": 64, "value": 0}, "group": "control_change"}, {"time": 1266, "annotation": {"number": 64, "value": 127}, "group": "control_change"}, {"time": 1307, "annotation": {"number": 64, "value": 0}, "group": "control_change"}, {"time": 1313, "annotation": {"number": 64, "value": 127}, "group": "control_change"}, {"time": 1356, "annotation": {"number": 64, "value": 0}, "group": "control_change"}, {"time": 1361, "annotation": {"number": 64, "value": 127}, "group": "control_change"}, {"time": 1379, "annotation": {"number": 64, "value": 0}, "group": "control_change"}, {"time": 1386, "annotation": {"number": 64, "value": 127}, "group": "control_change"}, {"time": 1404, "annotation": {"number": 64, "value": 0}, "group": "control_change"}, {"time": 1407, "annotation": {"number": 64, "value": 127}, "group": "control_change"}, {"time": 1428, "annotation": {"number": 64, "value": 0}, "group": "control_change"}, {"time": 1430, "annotation": {"number": 64, "value": 127}, "group": "control_change"}, {"time": 1453, "annotation": {"number": 64, "value": 0}, "group": "control_change"}, {"time": 1458, "annotation": {"number": 64, "value": 127}, "group": "control_change"}, {"time": 1502, "annotation": {"number": 64, "value": 0}, "group": "control_change"}, {"time": 1505, "annotation": {"number": 64, "value": 127}, "group": "control_change"}, {"time": 1549, "annotation": {"number": 64, "value": 0}, "group": "control_change"}, {"time": 1555, "annotation": {"number": 64, "value": 127}, "group": "control_change"}, {"time": 1595, "annotation": {"number": 64, "value": 0}, "group": "control_change"}, {"time": 1598, "annotation": {"number": 64, "value": 127}, "group": "control_change"}, {"time": 1619, "annotation": {"number": 64, "value": 0}, "group": "control_change"}, {"time": 1621, "annotation": {"number": 64, "value": 127}, "group": "control_change"}, {"time": 1642, "annotation": {"number": 64, "value": 0}, "group": "control_change"}, {"time": 1650, "annotation": {"number": 64, "value": 127}, "group": "control_change"}, {"time": 1691, "annotation": {"number": 64, "value": 0}, "group": "control_change"}, {"time": 1697, "annotation": {"number": 64, "value": 127}, "group": "control_change"}, {"time": 1740, "annotation": {"number": 64, "value": 0}, "group": "control_change"}, {"time": 1745, "annotation": {"number": 64, "value": 127}, "group": "control_change"}, {"time": 1763, "annotation": {"number": 64, "value": 0}, "group": "control_change"}, {"time": 1770, "annotation": {"number": 64, "value": 127}, "group": "control_change"}, {"time": 1788, "annotation": {"number": 64, "value": 0}, "group": "control_change"}, {"time": 1791, "annotation": {"number": 64, "value": 127}, "group": "control_change"}, {"time": 1812, "annotation": {"number": 64, "value": 0}, "group": "control_change"}, {"time": 1814, "annotation": {"number": 64, "value": 127}, "group": "control_change"}, {"time": 1837, "annotation": {"number": 64, "value": 0}, "group": "control_change"}, {"time": 1842, "annotation": {"number": 64, "value": 127}, "group": "control_change"}, {"time": 1886, "annotation": {"number": 64, "value": 0}, "group": "control_change"}, {"time": 1889, "annotation": {"number": 64, "value": 127}, "group": "control_change"}, {"time": 1933, "annotation": {"number": 64, "value": 0}, "group": "control_change"}, {"time": 1939, "annotation": {"number": 64, "value": 127}, "group": "control_change"}, {"time": 1979, "annotation": {"number": 64, "value": 0}, "group": "control_change"}, {"time": 1982, "annotation": {"number": 64, "value": 127}, "group": "control_change"}, {"time": 2003, "annotation": {"number": 64, "value": 0}, "group": "control_change"}, {"time": 2005, "annotation": {"number": 64, "value": 127}, "group": "control_change"}, {"time": 2026, "annotation": {"number": 64, "value": 0}, "group": "control_change"}, {"time": 2030, "annotation": {"number": 64, "value": 127}, "group": "control_change"}, {"time": 2074, "annotation": {"number": 64, "value": 0}, "group": "control_change"}, {"time": 2081, "annotation": {"number": 64, "value": 127}, "group": "control_change"}, {"time": 2102, "annotation": {"number": 64, "value": 0}, "group": "control_change"}, {"time": 2108, "annotation": {"number": 64, "value": 127}, "group": "control_change"}, {"time": 2124, "annotation": {"number": 64, "value": 0}, "group": "control_change"}, {"time": 2130, "annotation": {"number": 64, "value": 127}, "group": "control_change"}, {"time": 2172, "annotation": {"number": 64, "value": 0}, "group": "control_change"}, {"time": 2177, "annotation": {"number": 64, "value": 127}, "group": "control_change"}, {"time": 2196, "annotation": {"number": 64, "value": 0}, "group": "control_change"}, {"time": 2200, "annotation": {"number": 64, "value": 127}, "group": "control_change"}, {"time": 2220, "annotation": {"number": 64, "value": 0}, "group": "control_change"}, {"time": 2224, "annotation": {"number": 64, "value": 127}, "group": "control_change"}, {"time": 2269, "annotation": {"number": 64, "value": 0}, "group": "control_change"}, {"time": 2276, "annotation": {"number": 64, "value": 127}, "group": "control_change"}, {"time": 2292, "annotation": {"number": 64, "value": 0}, "group": "control_change"}, {"time": 2300, "annotation": {"number": 64, "value": 127}, "group": "control_change"}, {"time": 2316, "annotation": {"number": 64, "value": 0}, "group": "control_change"}, {"time": 2324, "annotation": {"number": 64, "value": 127}, "group": "control_change"}, {"time": 2366, "annotation": {"number": 64, "value": 0}, "group": "control_change"}, {"time": 2370, "annotation": {"number": 64, "value": 127}, "group": "control_change"}, {"time": 2388, "annotation": {"number": 64, "value": 0}, "group": "control_change"}, {"time": 2395, "annotation": {"number": 64, "value": 127}, "group": "control_change"}, {"time": 2411, "annotation": {"number": 64, "value": 0}, "group": "control_change"}, {"time": 2419, "annotation": {"number": 64, "value": 127}, "group": "control_change"}, {"time": 2460, "annotation": {"number": 64, "value": 0}, "group": "control_change"}, {"time": 2464, "annotation": {"number": 64, "value": 127}, "group": "control_change"}, {"time": 2464, "annotation": {"number": 64, "value": 0}, "group": "control_change"}, {"time": 2465, "annotation": {"number": 64, "value": 127}, "group": "control_change"}, {"time": 2486, "annotation": {"number": 64, "value": 0}, "group": "control_change"}, {"time": 2488, "annotation": {"number": 64, "value": 127}, "group": "control_change"}, {"time": 2508, "annotation": {"number": 64, "value": 0}, "group": "control_change"}, {"time": 2511, "annotation": {"number": 64, "value": 127}, "group": "control_change"}, {"time": 2532, "annotation": {"number": 64, "value": 0}, "group": "control_change"}, {"time": 2534, "annotation": {"number": 64, "value": 127}, "group": "control_change"}, {"time": 2557, "annotation": {"number": 64, "value": 0}, "group": "control_change"}, {"time": 2561, "annotation": {"number": 64, "value": 127}, "group": "control_change"}, {"time": 2581, "annotation": {"number": 64, "value": 0}, "group": "control_change"}, {"time": 2584, "annotation": {"number": 64, "value": 127}, "group": "control_change"}, {"time": 2604, "annotation": {"number": 64, "value": 0}, "group": "control_change"}, {"time": 2606, "annotation": {"number": 64, "value": 127}, "group": "control_change"}, {"time": 2652, "annotation": {"number": 64, "value": 0}, "group": "control_change"}, {"time": 2656, "annotation": {"number": 64, "value": 127}, "group": "control_change"}, {"time": 2675, "annotation": {"number": 64, "value": 0}, "group": "control_change"}, {"time": 2679, "annotation": {"number": 64, "value": 127}, "group": "control_change"}, {"time": 2699, "annotation": {"number": 64, "value": 0}, "group": "control_change"}, {"time": 2702, "annotation": {"number": 64, "value": 127}, "group": "control_change"}, {"time": 2750, "annotation": {"number": 64, "value": 0}, "group": "control_change"}, {"time": 2755, "annotation": {"number": 64, "value": 127}, "group": "control_change"}, {"time": 2773, "annotation": {"number": 64, "value": 0}, "group": "control_change"}, {"time": 2778, "annotation": {"number": 64, "value": 127}, "group": "control_change"}, {"time": 2797, "annotation": {"number": 64, "value": 0}, "group": "control_change"}, {"time": 2801, "annotation": {"number": 64, "value": 127}, "group": "control_change"}, {"time": 2840, "annotation": {"number": 64, "value": 0}, "group": "control_change"}, {"time": 2852, "annotation": {"number": 64, "value": 127}, "group": "control_change"}, {"time": 2869, "annotation": {"number": 64, "value": 0}, "group": "control_change"}, {"time": 2876, "annotation": {"number": 64, "value": 127}, "group": "control_change"}, {"time": 2892, "annotation": {"number": 64, "value": 0}, "group": "control_change"}, {"time": 2900, "annotation": {"number": 64, "value": 127}, "group": "control_change"}, {"time": 2941, "annotation": {"number": 64, "value": 0}, "group": "control_change"}, {"time": 2947, "annotation": {"number": 64, "value": 127}, "group": "control_change"}, {"time": 2964, "annotation": {"number": 64, "value": 0}, "group": "control_change"}, {"time": 2971, "annotation": {"number": 64, "value": 127}, "group": "control_change"}, {"time": 2988, "annotation": {"number": 64, "value": 0}, "group": "control_change"}, {"time": 2994, "annotation": {"number": 64, "value": 127}, "group": "control_change"}, {"time": 3037, "annotation": {"number": 64, "value": 0}, "group": "control_change"}, {"time": 3043, "annotation": {"number": 64, "value": 127}, "group": "control_change"}, {"time": 3043, "annotation": {"number": 64, "value": 0}, "group": "control_change"}, {"time": 3044, "annotation": {"number": 64, "value": 127}, "group": "control_change"}, {"time": 3060, "annotation": {"number": 64, "value": 0}, "group": "control_change"}, {"time": 3068, "annotation": {"number": 64, "value": 127}, "group": "control_change"}, {"time": 3084, "annotation": {"number": 64, "value": 0}, "group": "control_change"}, {"time": 3091, "annotation": {"number": 64, "value": 127}, "group": "control_change"}, {"time": 3133, "annotation": {"number": 64, "value": 127}, "group": "control_change"}, {"time": 3178, "annotation": {"number": 64, "value": 0}, "group": "control_change"}, {"time": 3184, "annotation": {"number": 64, "value": 127}, "group": "control_change"}, {"time": 3226, "annotation": {"number": 64, "value": 0}, "group": "control_change"}, {"time": 3234, "annotation": {"number": 64, "value": 127}, "group": "control_change"}, {"time": 3275, "annotation": {"number": 64, "value": 0}, "group": "control_change"}, {"time": 3281, "annotation": {"number": 64, "value": 127}, "group": "control_change"}, {"time": 3324, "annotation": {"number": 64, "value": 0}, "group": "control_change"}, {"time": 3329, "annotation": {"number": 64, "value": 127}, "group": "control_change"}, {"time": 3347, "annotation": {"number": 64, "value": 0}, "group": "control_change"}, {"time": 3354, "annotation": {"number": 64, "value": 127}, "group": "control_change"}, {"time": 3372, "annotation": {"number": 64, "value": 0}, "group": "control_change"}, {"time": 3375, "annotation": {"number": 64, "value": 127}, "group": "control_change"}, {"time": 3396, "annotation": {"number": 64, "value": 0}, "group": "control_change"}, {"time": 3398, "annotation": {"number": 64, "value": 127}, "group": "control_change"}, {"time": 3421, "annotation": {"number": 64, "value": 0}, "group": "control_change"}, {"time": 3426, "annotation": {"number": 64, "value": 127}, "group": "control_change"}, {"time": 3470, "annotation": {"number": 64, "value": 0}, "group": "control_change"}, {"time": 3473, "annotation": {"number": 64, "value": 127}, "group": "control_change"}, {"time": 3517, "annotation": {"number": 64, "value": 0}, "group": "control_change"}, {"time": 3523, "annotation": {"number": 64, "value": 127}, "group": "control_change"}, {"time": 3563, "annotation": {"number": 64, "value": 0}, "group": "control_change"}, {"time": 3566, "annotation": {"number": 64, "value": 127}, "group": "control_change"}, {"time": 3587, "annotation": {"number": 64, "value": 0}, "group": "control_change"}, {"time": 3589, "annotation": {"number": 64, "value": 127}, "group": "control_change"}, {"time": 3610, "annotation": {"number": 64, "value": 0}, "group": "control_change"}, {"time": 3618, "annotation": {"number": 64, "value": 127}, "group": "control_change"}, {"time": 3659, "annotation": {"number": 64, "value": 0}, "group": "control_change"}, {"time": 3665, "annotation": {"number": 64, "value": 127}, "group": "control_change"}, {"time": 3708, "annotation": {"number": 64, "value": 0}, "group": "control_change"}, {"time": 3713, "annotation": {"number": 64, "value": 127}, "group": "control_change"}, {"time": 3731, "annotation": {"number": 64, "value": 0}, "group": "control_change"}, {"time": 3738, "annotation": {"number": 64, "value": 127}, "group": "control_change"}, {"time": 3756, "annotation": {"number": 64, "value": 0}, "group": "control_change"}, {"time": 3759, "annotation": {"number": 64, "value": 127}, "group": "control_change"}, {"time": 3780, "annotation": {"number": 64, "value": 0}, "group": "control_change"}, {"time": 3782, "annotation": {"number": 64, "value": 127}, "group": "control_change"}, {"time": 3805, "annotation": {"number": 64, "value": 0}, "group": "control_change"}, {"time": 3810, "annotation": {"number": 64, "value": 127}, "group": "control_change"}, {"time": 3854, "annotation": {"number": 64, "value": 0}, "group": "control_change"}, {"time": 3857, "annotation": {"number": 64, "value": 127}, "group": "control_change"}, {"time": 3901, "annotation": {"number": 64, "value": 0}, "group": "control_change"}, {"time": 3907, "annotation": {"number": 64, "value": 127}, "group": "control_change"}, {"time": 3947, "annotation": {"number": 64, "value": 0}, "group": "control_change"}, {"time": 3950, "annotation": {"number": 64, "value": 127}, "group": "control_change"}, {"time": 3971, "annotation": {"number": 64, "value": 0}, "group": "control_change"}, {"time": 3973, "annotation": {"number": 64, "value": 127}, "group": "control_change"}, {"time": 3994, "annotation": {"number": 64, "value": 0}, "group": "control_change"}, {"time": 3998, "annotation": {"number": 64, "value": 127}, "group": "control_change"}, {"time": 4042, "annotation": {"number": 64, "value": 0}, "group": "control_change"}, {"time": 4049, "annotation": {"number": 64, "value": 127}, "group": "control_change"}, {"time": 4070, "annotation": {"number": 64, "value": 0}, "group": "control_change"}, {"time": 4076, "annotation": {"number": 64, "value": 127}, "group": "control_change"}, {"time": 4092, "annotation": {"number": 64, "value": 0}, "group": "control_change"}, {"time": 4098, "annotation": {"number": 64, "value": 127}, "group": "control_change"}, {"time": 4140, "annotation": {"number": 64, "value": 0}, "group": "control_change"}, {"time": 4145, "annotation": {"number": 64, "value": 127}, "group": "control_change"}, {"time": 4164, "annotation": {"number": 64, "value": 0}, "group": "control_change"}, {"time": 4168, "annotation": {"number": 64, "value": 127}, "group": "control_change"}, {"time": 4188, "annotation": {"number": 64, "value": 0}, "group": "control_change"}, {"time": 4192, "annotation": {"number": 64, "value": 127}, "group": "control_change"}, {"time": 4237, "annotation": {"number": 64, "value": 0}, "group": "control_change"}, {"time": 4244, "annotation": {"number": 64, "value": 127}, "group": "control_change"}, {"time": 4260, "annotation": {"number": 64, "value": 0}, "group": "control_change"}, {"time": 4268, "annotation": {"number": 64, "value": 127}, "group": "control_change"}, {"time": 4284, "annotation": {"number": 64, "value": 0}, "group": "control_change"}, {"time": 4292, "annotation": {"number": 64, "value": 127}, "group": "control_change"}, {"time": 4334, "annotation": {"number": 64, "value": 0}, "group": "control_change"}, {"time": 4338, "annotation": {"number": 64, "value": 127}, "group": "control_change"}, {"time": 4356, "annotation": {"number": 64, "value": 0}, "group": "control_change"}, {"time": 4363, "annotation": {"number": 64, "value": 127}, "group": "control_change"}, {"time": 4379, "annotation": {"number": 64, "value": 0}, "group": "control_change"}, {"time": 4383, "annotation": {"number": 64, "value": 127}, "group": "control_change"}, {"time": 4383, "annotation": {"number": 64, "value": 0}, "group": "control_change"}, {"time": 4437, "annotation": {"number": 64, "value": 0}, "group": "control_change"}, {"time": 4440, "annotation": {"number": 64, "value": 127}, "group": "control_change"}, {"time": 4465, "annotation": {"number": 64, "value": 0}, "group": "control_change"}, {"time": 4468, "annotation": {"number": 64, "value": 127}, "group": "control_change"}, {"time": 4526, "annotation": {"number": 64, "value": 0}, "group": "control_change"}, {"time": 4536, "annotation": {"number": 64, "value": 127}, "group": "control_change"}, {"time": 4576, "annotation": {"number": 64, "value": 0}, "group": "control_change"}, {"time": 4579, "annotation": {"number": 64, "value": 127}, "group": "control_change"}, {"time": 4622, "annotation": {"number": 64, "value": 0}, "group": "control_change"}, {"time": 4624, "annotation": {"number": 64, "value": 127}, "group": "control_change"}, {"time": 4675, "annotation": {"number": 64, "value": 0}, "group": "control_change"}, {"time": 4675, "annotation": {"number": 64, "value": 127}, "group": "control_change"}, {"time": 4785, "annotation": {"number": 64, "value": 0}, "group": "control_change"}]}]}