{"metadata": {"schema_version": "0.2", "title": "None", "source_filename": "664.mid", "source_format": "midi"}, "resolution": 12, "tempos": [{"time": 0, "qpm": 112.20007517405037}, {"time": 312, "qpm": 111.25017382839661}, {"time": 367, "qpm": 110.75014766686355}, {"time": 408, "qpm": 112.20007517405037}, {"time": 1128, "qpm": 111.50012265013491}, {"time": 1142, "qpm": 110.75014766686355}, {"time": 1166, "qpm": 109.75000777395888}, {"time": 1199, "qpm": 110.50029006326142}, {"time": 1224, "qpm": 112.00005973336519}], "time_signatures": [{"time": 0, "numerator": 1, "denominator": 4}], "tracks": [{"program": 4, "is_drum": false, "name": "MELODY", "notes": [{"time": 393, "pitch": 73, "duration": 5, "velocity": 90}, {"time": 399, "pitch": 75, "duration": 5, "velocity": 93}, {"time": 405, "pitch": 77, "duration": 11, "velocity": 91}, {"time": 417, "pitch": 80, "duration": 4, "velocity": 90}, {"time": 423, "pitch": 77, "duration": 23, "velocity": 91}, {"time": 453, "pitch": 77, "duration": 10, "velocity": 91}, {"time": 465, "pitch": 80, "duration": 5, "velocity": 85}, {"time": 471, "pitch": 77, "duration": 20, "velocity": 90}, {"time": 495, "pitch": 77, "duration": 5, "velocity": 90}, {"time": 501, "pitch": 75, "duration": 5, "velocity": 93}, {"time": 507, "pitch": 73, "duration": 3, "velocity": 89}, {"time": 513, "pitch": 70, "duration": 4, "velocity": 83}, {"time": 519, "pitch": 77, "duration": 4, "velocity": 92}, {"time": 525, "pitch": 75, "duration": 9, "velocity": 93}, {"time": 537, "pitch": 73, "duration": 4, "velocity": 90}, {"time": 543, "pitch": 77, "duration": 4, "velocity": 89}, {"time": 549, "pitch": 75, "duration": 10, "velocity": 91}, {"time": 561, "pitch": 73, "duration": 4, "velocity": 87}, {"time": 567, "pitch": 75, "duration": 15, "velocity": 89}, {"time": 585, "pitch": 73, "duration": 4, "velocity": 89}, {"time": 591, "pitch": 75, "duration": 4, "velocity": 89}, {"time": 597, "pitch": 77, "duration": 9, "velocity": 90}, {"time": 609, "pitch": 68, "duration": 5, "velocity": 82}, {"time": 615, "pitch": 70, "duration": 9, "velocity": 91}, {"time": 627, "pitch": 73, "duration": 4, "velocity": 85}, {"time": 633, "pitch": 75, "duration": 5, "velocity": 90}, {"time": 639, "pitch": 73, "duration": 5, "velocity": 84}, {"time": 645, "pitch": 70, "duration": 10, "velocity": 84}, {"time": 657, "pitch": 68, "duration": 6, "velocity": 87}, {"time": 663, "pitch": 70, "duration": 15, "velocity": 91}, {"time": 681, "pitch": 73, "duration": 5, "velocity": 89}, {"time": 687, "pitch": 75, "duration": 4, "velocity": 90}, {"time": 693, "pitch": 77, "duration": 10, "velocity": 90}, {"time": 705, "pitch": 75, "duration": 4, "velocity": 92}, {"time": 711, "pitch": 77, "duration": 4, "velocity": 91}, {"time": 717, "pitch": 80, "duration": 4, "velocity": 91}, {"time": 723, "pitch": 77, "duration": 5, "velocity": 93}, {"time": 729, "pitch": 77, "duration": 5, "velocity": 86}, {"time": 735, "pitch": 80, "duration": 12, "velocity": 84}, {"time": 747, "pitch": 75, "duration": 25, "velocity": 90}, {"time": 777, "pitch": 73, "duration": 5, "velocity": 90}, {"time": 783, "pitch": 75, "duration": 5, "velocity": 93}, {"time": 789, "pitch": 77, "duration": 11, "velocity": 91}, {"time": 801, "pitch": 80, "duration": 4, "velocity": 90}, {"time": 807, "pitch": 77, "duration": 23, "velocity": 91}, {"time": 837, "pitch": 77, "duration": 10, "velocity": 91}, {"time": 849, "pitch": 80, "duration": 5, "velocity": 85}, {"time": 855, "pitch": 77, "duration": 20, "velocity": 90}, {"time": 879, "pitch": 77, "duration": 5, "velocity": 90}, {"time": 885, "pitch": 75, "duration": 5, "velocity": 93}, {"time": 891, "pitch": 73, "duration": 3, "velocity": 89}, {"time": 897, "pitch": 70, "duration": 4, "velocity": 83}, {"time": 903, "pitch": 77, "duration": 4, "velocity": 92}, {"time": 909, "pitch": 75, "duration": 9, "velocity": 93}, {"time": 921, "pitch": 73, "duration": 4, "velocity": 90}, {"time": 927, "pitch": 77, "duration": 4, "velocity": 89}, {"time": 933, "pitch": 75, "duration": 10, "velocity": 91}, {"time": 945, "pitch": 73, "duration": 4, "velocity": 87}, {"time": 951, "pitch": 75, "duration": 15, "velocity": 89}, {"time": 969, "pitch": 73, "duration": 4, "velocity": 89}, {"time": 975, "pitch": 75, "duration": 4, "velocity": 89}, {"time": 981, "pitch": 77, "duration": 9, "velocity": 90}, {"time": 993, "pitch": 68, "duration": 5, "velocity": 82}, {"time": 999, "pitch": 70, "duration": 9, "velocity": 91}, {"time": 1011, "pitch": 73, "duration": 4, "velocity": 85}, {"time": 1017, "pitch": 75, "duration": 5, "velocity": 90}, {"time": 1023, "pitch": 73, "duration": 5, "velocity": 84}, {"time": 1029, "pitch": 70, "duration": 10, "velocity": 84}, {"time": 1041, "pitch": 68, "duration": 6, "velocity": 87}, {"time": 1047, "pitch": 70, "duration": 15, "velocity": 91}, {"time": 1071, "pitch": 73, "duration": 4, "velocity": 90}, {"time": 1077, "pitch": 80, "duration": 6, "velocity": 90}, {"time": 1083, "pitch": 77, "duration": 4, "velocity": 92}, {"time": 1089, "pitch": 73, "duration": 4, "velocity": 91}, {"time": 1095, "pitch": 80, "duration": 4, "velocity": 91}, {"time": 1101, "pitch": 77, "duration": 5, "velocity": 93}, {"time": 1107, "pitch": 73, "duration": 5, "velocity": 86}, {"time": 1113, "pitch": 75, "duration": 5, "velocity": 86}, {"time": 1119, "pitch": 70, "duration": 6, "velocity": 84}, {"time": 1125, "pitch": 73, "duration": 36, "velocity": 90}, {"time": 1203, "pitch": 73, "duration": 4, "velocity": 90}, {"time": 1209, "pitch": 75, "duration": 5, "velocity": 93}, {"time": 1215, "pitch": 77, "duration": 5, "velocity": 90}, {"time": 1221, "pitch": 80, "duration": 4, "velocity": 90}, {"time": 1227, "pitch": 77, "duration": 4, "velocity": 90}, {"time": 1233, "pitch": 77, "duration": 9, "velocity": 90}, {"time": 1245, "pitch": 75, "duration": 6, "velocity": 95}, {"time": 1251, "pitch": 73, "duration": 5, "velocity": 84}, {"time": 1257, "pitch": 73, "duration": 10, "velocity": 87}, {"time": 1269, "pitch": 75, "duration": 5, "velocity": 91}, {"time": 1275, "pitch": 80, "duration": 9, "velocity": 90}, {"time": 1287, "pitch": 77, "duration": 12, "velocity": 93}, {"time": 1305, "pitch": 77, "duration": 6, "velocity": 98}, {"time": 1311, "pitch": 80, "duration": 5, "velocity": 93}, {"time": 1317, "pitch": 85, "duration": 4, "velocity": 92}, {"time": 1323, "pitch": 82, "duration": 4, "velocity": 88}, {"time": 1329, "pitch": 80, "duration": 4, "velocity": 93}, {"time": 1335, "pitch": 77, "duration": 4, "velocity": 95}, {"time": 1341, "pitch": 75, "duration": 6, "velocity": 93}, {"time": 1347, "pitch": 80, "duration": 18, "velocity": 90}, {"time": 1365, "pitch": 77, "duration": 32, "velocity": 90}, {"time": 1407, "pitch": 80, "duration": 4, "velocity": 89}, {"time": 1413, "pitch": 82, "duration": 4, "velocity": 93}, {"time": 1419, "pitch": 80, "duration": 6, "velocity": 89}, {"time": 1425, "pitch": 78, "duration": 5, "velocity": 90}, {"time": 1431, "pitch": 77, "duration": 4, "velocity": 95}, {"time": 1437, "pitch": 75, "duration": 10, "velocity": 91}, {"time": 1449, "pitch": 77, "duration": 4, "velocity": 90}, {"time": 1455, "pitch": 78, "duration": 4, "velocity": 89}, {"time": 1461, "pitch": 80, "duration": 9, "velocity": 93}, {"time": 1473, "pitch": 72, "duration": 4, "velocity": 89}, {"time": 1479, "pitch": 73, "duration": 12, "velocity": 90}, {"time": 1491, "pitch": 77, "duration": 4, "velocity": 91}, {"time": 1497, "pitch": 77, "duration": 4, "velocity": 91}, {"time": 1503, "pitch": 75, "duration": 4, "velocity": 95}, {"time": 1509, "pitch": 73, "duration": 5, "velocity": 92}, {"time": 1515, "pitch": 85, "duration": 4, "velocity": 92}, {"time": 1521, "pitch": 85, "duration": 3, "velocity": 94}, {"time": 1527, "pitch": 80, "duration": 3, "velocity": 87}, {"time": 1533, "pitch": 82, "duration": 10, "velocity": 91}, {"time": 1545, "pitch": 80, "duration": 4, "velocity": 90}, {"time": 1551, "pitch": 77, "duration": 4, "velocity": 89}, {"time": 1557, "pitch": 75, "duration": 25, "velocity": 92}, {"time": 1587, "pitch": 73, "duration": 4, "velocity": 90}, {"time": 1593, "pitch": 75, "duration": 5, "velocity": 93}, {"time": 1599, "pitch": 77, "duration": 5, "velocity": 90}, {"time": 1605, "pitch": 80, "duration": 4, "velocity": 90}, {"time": 1611, "pitch": 77, "duration": 4, "velocity": 90}, {"time": 1617, "pitch": 77, "duration": 9, "velocity": 90}, {"time": 1629, "pitch": 75, "duration": 6, "velocity": 95}, {"time": 1635, "pitch": 73, "duration": 5, "velocity": 84}, {"time": 1641, "pitch": 73, "duration": 10, "velocity": 87}, {"time": 1653, "pitch": 75, "duration": 5, "velocity": 91}, {"time": 1659, "pitch": 80, "duration": 9, "velocity": 90}, {"time": 1671, "pitch": 77, "duration": 12, "velocity": 93}, {"time": 1689, "pitch": 77, "duration": 6, "velocity": 98}, {"time": 1695, "pitch": 80, "duration": 5, "velocity": 93}, {"time": 1701, "pitch": 85, "duration": 4, "velocity": 92}, {"time": 1707, "pitch": 82, "duration": 4, "velocity": 88}, {"time": 1713, "pitch": 80, "duration": 4, "velocity": 93}, {"time": 1719, "pitch": 82, "duration": 4, "velocity": 95}, {"time": 1725, "pitch": 75, "duration": 6, "velocity": 93}, {"time": 1731, "pitch": 80, "duration": 18, "velocity": 90}, {"time": 1749, "pitch": 77, "duration": 32, "velocity": 90}, {"time": 1791, "pitch": 80, "duration": 4, "velocity": 89}, {"time": 1797, "pitch": 82, "duration": 4, "velocity": 93}, {"time": 1803, "pitch": 80, "duration": 6, "velocity": 89}, {"time": 1809, "pitch": 78, "duration": 5, "velocity": 90}, {"time": 1815, "pitch": 77, "duration": 4, "velocity": 95}, {"time": 1821, "pitch": 75, "duration": 10, "velocity": 91}, {"time": 1833, "pitch": 77, "duration": 4, "velocity": 90}, {"time": 1839, "pitch": 78, "duration": 4, "velocity": 89}, {"time": 1845, "pitch": 80, "duration": 9, "velocity": 93}, {"time": 1857, "pitch": 72, "duration": 4, "velocity": 89}, {"time": 1863, "pitch": 73, "duration": 12, "velocity": 90}, {"time": 1887, "pitch": 77, "duration": 5, "velocity": 91}, {"time": 1893, "pitch": 77, "duration": 5, "velocity": 93}, {"time": 1899, "pitch": 75, "duration": 4, "velocity": 91}, {"time": 1905, "pitch": 77, "duration": 5, "velocity": 96}, {"time": 1911, "pitch": 80, "duration": 4, "velocity": 93}, {"time": 1917, "pitch": 77, "duration": 7, "velocity": 96}, {"time": 1929, "pitch": 68, "duration": 6, "velocity": 91}, {"time": 1935, "pitch": 75, "duration": 34, "velocity": 93}, {"time": 1971, "pitch": 77, "duration": 12, "velocity": 93}, {"time": 1983, "pitch": 80, "duration": 5, "velocity": 91}, {"time": 1989, "pitch": 77, "duration": 6, "velocity": 95}, {"time": 1995, "pitch": 75, "duration": 7, "velocity": 88}, {"time": 2001, "pitch": 73, "duration": 65, "velocity": 90}, {"time": 2361, "pitch": 73, "duration": 5, "velocity": 90}, {"time": 2367, "pitch": 75, "duration": 5, "velocity": 93}, {"time": 2373, "pitch": 77, "duration": 11, "velocity": 91}, {"time": 2385, "pitch": 80, "duration": 4, "velocity": 90}, {"time": 2391, "pitch": 77, "duration": 23, "velocity": 91}, {"time": 2421, "pitch": 77, "duration": 10, "velocity": 91}, {"time": 2433, "pitch": 80, "duration": 5, "velocity": 85}, {"time": 2439, "pitch": 77, "duration": 20, "velocity": 90}, {"time": 2463, "pitch": 77, "duration": 5, "velocity": 90}, {"time": 2469, "pitch": 75, "duration": 5, "velocity": 93}, {"time": 2475, "pitch": 73, "duration": 3, "velocity": 89}, {"time": 2481, "pitch": 70, "duration": 4, "velocity": 83}, {"time": 2487, "pitch": 77, "duration": 4, "velocity": 92}, {"time": 2493, "pitch": 75, "duration": 9, "velocity": 93}, {"time": 2505, "pitch": 73, "duration": 4, "velocity": 90}, {"time": 2511, "pitch": 77, "duration": 4, "velocity": 89}, {"time": 2517, "pitch": 75, "duration": 10, "velocity": 91}, {"time": 2529, "pitch": 73, "duration": 4, "velocity": 87}, {"time": 2535, "pitch": 75, "duration": 15, "velocity": 89}, {"time": 2553, "pitch": 73, "duration": 4, "velocity": 89}, {"time": 2559, "pitch": 75, "duration": 4, "velocity": 89}, {"time": 2565, "pitch": 77, "duration": 9, "velocity": 90}, {"time": 2577, "pitch": 68, "duration": 5, "velocity": 82}, {"time": 2583, "pitch": 70, "duration": 9, "velocity": 91}, {"time": 2595, "pitch": 73, "duration": 4, "velocity": 85}, {"time": 2601, "pitch": 75, "duration": 5, "velocity": 90}, {"time": 2607, "pitch": 73, "duration": 5, "velocity": 84}, {"time": 2613, "pitch": 70, "duration": 10, "velocity": 84}, {"time": 2625, "pitch": 68, "duration": 6, "velocity": 87}, {"time": 2631, "pitch": 70, "duration": 15, "velocity": 91}, {"time": 2655, "pitch": 73, "duration": 4, "velocity": 90}, {"time": 2661, "pitch": 80, "duration": 6, "velocity": 90}, {"time": 2667, "pitch": 77, "duration": 4, "velocity": 92}, {"time": 2673, "pitch": 73, "duration": 4, "velocity": 91}, {"time": 2679, "pitch": 80, "duration": 4, "velocity": 91}, {"time": 2685, "pitch": 77, "duration": 5, "velocity": 93}, {"time": 2691, "pitch": 73, "duration": 5, "velocity": 86}, {"time": 2697, "pitch": 75, "duration": 5, "velocity": 86}, {"time": 2703, "pitch": 70, "duration": 6, "velocity": 84}, {"time": 2709, "pitch": 73, "duration": 36, "velocity": 90}, {"time": 2787, "pitch": 73, "duration": 4, "velocity": 90}, {"time": 2793, "pitch": 75, "duration": 5, "velocity": 93}, {"time": 2799, "pitch": 77, "duration": 5, "velocity": 90}, {"time": 2805, "pitch": 80, "duration": 4, "velocity": 90}, {"time": 2811, "pitch": 77, "duration": 4, "velocity": 90}, {"time": 2817, "pitch": 77, "duration": 9, "velocity": 90}, {"time": 2829, "pitch": 75, "duration": 6, "velocity": 95}, {"time": 2835, "pitch": 73, "duration": 5, "velocity": 84}, {"time": 2841, "pitch": 73, "duration": 10, "velocity": 87}, {"time": 2853, "pitch": 75, "duration": 5, "velocity": 91}, {"time": 2859, "pitch": 80, "duration": 9, "velocity": 90}, {"time": 2871, "pitch": 77, "duration": 12, "velocity": 93}, {"time": 2889, "pitch": 77, "duration": 6, "velocity": 98}, {"time": 2895, "pitch": 80, "duration": 5, "velocity": 93}, {"time": 2901, "pitch": 85, "duration": 4, "velocity": 92}, {"time": 2907, "pitch": 82, "duration": 4, "velocity": 88}, {"time": 2913, "pitch": 80, "duration": 4, "velocity": 93}, {"time": 2919, "pitch": 77, "duration": 4, "velocity": 95}, {"time": 2925, "pitch": 75, "duration": 6, "velocity": 93}, {"time": 2931, "pitch": 80, "duration": 18, "velocity": 90}, {"time": 2949, "pitch": 77, "duration": 32, "velocity": 90}, {"time": 2991, "pitch": 80, "duration": 4, "velocity": 89}, {"time": 2997, "pitch": 82, "duration": 4, "velocity": 93}, {"time": 3003, "pitch": 80, "duration": 6, "velocity": 89}, {"time": 3009, "pitch": 78, "duration": 5, "velocity": 90}, {"time": 3015, "pitch": 77, "duration": 4, "velocity": 95}, {"time": 3021, "pitch": 75, "duration": 10, "velocity": 91}, {"time": 3033, "pitch": 77, "duration": 4, "velocity": 90}, {"time": 3039, "pitch": 78, "duration": 4, "velocity": 89}, {"time": 3045, "pitch": 80, "duration": 9, "velocity": 93}, {"time": 3057, "pitch": 72, "duration": 4, "velocity": 89}, {"time": 3063, "pitch": 73, "duration": 12, "velocity": 90}, {"time": 3075, "pitch": 77, "duration": 4, "velocity": 91}, {"time": 3081, "pitch": 77, "duration": 4, "velocity": 91}, {"time": 3087, "pitch": 75, "duration": 4, "velocity": 95}, {"time": 3093, "pitch": 73, "duration": 5, "velocity": 92}, {"time": 3099, "pitch": 85, "duration": 4, "velocity": 92}, {"time": 3105, "pitch": 85, "duration": 3, "velocity": 94}, {"time": 3111, "pitch": 80, "duration": 3, "velocity": 87}, {"time": 3117, "pitch": 82, "duration": 10, "velocity": 91}, {"time": 3129, "pitch": 80, "duration": 4, "velocity": 90}, {"time": 3135, "pitch": 77, "duration": 4, "velocity": 89}, {"time": 3141, "pitch": 75, "duration": 25, "velocity": 92}, {"time": 3171, "pitch": 73, "duration": 4, "velocity": 90}, {"time": 3177, "pitch": 75, "duration": 5, "velocity": 93}, {"time": 3183, "pitch": 77, "duration": 5, "velocity": 90}, {"time": 3189, "pitch": 80, "duration": 4, "velocity": 90}, {"time": 3195, "pitch": 77, "duration": 4, "velocity": 90}, {"time": 3201, "pitch": 77, "duration": 9, "velocity": 90}, {"time": 3213, "pitch": 75, "duration": 6, "velocity": 95}, {"time": 3219, "pitch": 73, "duration": 5, "velocity": 84}, {"time": 3225, "pitch": 73, "duration": 10, "velocity": 87}, {"time": 3237, "pitch": 75, "duration": 5, "velocity": 91}, {"time": 3243, "pitch": 80, "duration": 9, "velocity": 90}, {"time": 3255, "pitch": 77, "duration": 12, "velocity": 93}, {"time": 3273, "pitch": 77, "duration": 6, "velocity": 98}, {"time": 3279, "pitch": 80, "duration": 5, "velocity": 93}, {"time": 3285, "pitch": 85, "duration": 4, "velocity": 92}, {"time": 3291, "pitch": 82, "duration": 4, "velocity": 88}, {"time": 3297, "pitch": 80, "duration": 4, "velocity": 93}, {"time": 3303, "pitch": 82, "duration": 4, "velocity": 95}, {"time": 3309, "pitch": 75, "duration": 6, "velocity": 93}, {"time": 3315, "pitch": 80, "duration": 18, "velocity": 90}, {"time": 3333, "pitch": 77, "duration": 32, "velocity": 90}, {"time": 3375, "pitch": 80, "duration": 4, "velocity": 89}, {"time": 3381, "pitch": 82, "duration": 4, "velocity": 93}, {"time": 3387, "pitch": 80, "duration": 6, "velocity": 89}, {"time": 3393, "pitch": 78, "duration": 5, "velocity": 90}, {"time": 3399, "pitch": 77, "duration": 4, "velocity": 95}, {"time": 3405, "pitch": 75, "duration": 10, "velocity": 91}, {"time": 3417, "pitch": 77, "duration": 4, "velocity": 90}, {"time": 3423, "pitch": 78, "duration": 4, "velocity": 89}, {"time": 3429, "pitch": 80, "duration": 9, "velocity": 93}, {"time": 3441, "pitch": 72, "duration": 4, "velocity": 89}, {"time": 3447, "pitch": 73, "duration": 12, "velocity": 90}, {"time": 3471, "pitch": 77, "duration": 5, "velocity": 91}, {"time": 3477, "pitch": 77, "duration": 5, "velocity": 93}, {"time": 3483, "pitch": 75, "duration": 4, "velocity": 91}, {"time": 3489, "pitch": 77, "duration": 5, "velocity": 96}, {"time": 3495, "pitch": 80, "duration": 4, "velocity": 93}, {"time": 3501, "pitch": 77, "duration": 7, "velocity": 96}, {"time": 3513, "pitch": 68, "duration": 9, "velocity": 91}, {"time": 3525, "pitch": 75, "duration": 28, "velocity": 93}, {"time": 3561, "pitch": 77, "duration": 6, "velocity": 93}, {"time": 3567, "pitch": 80, "duration": 5, "velocity": 91}, {"time": 3573, "pitch": 77, "duration": 6, "velocity": 95}, {"time": 3579, "pitch": 75, "duration": 7, "velocity": 88}, {"time": 3585, "pitch": 73, "duration": 65, "velocity": 90}, {"time": 3675, "pitch": 78, "duration": 5, "velocity": 87}, {"time": 3681, "pitch": 78, "duration": 5, "velocity": 91}, {"time": 3687, "pitch": 77, "duration": 6, "velocity": 93}, {"time": 3693, "pitch": 75, "duration": 4, "velocity": 100}, {"time": 3699, "pitch": 73, "duration": 6, "velocity": 92}, {"time": 3705, "pitch": 70, "duration": 6, "velocity": 93}, {"time": 3711, "pitch": 73, "duration": 4, "velocity": 93}, {"time": 3717, "pitch": 75, "duration": 4, "velocity": 93}, {"time": 3723, "pitch": 75, "duration": 4, "velocity": 94}, {"time": 3729, "pitch": 77, "duration": 5, "velocity": 91}, {"time": 3735, "pitch": 75, "duration": 13, "velocity": 100}, {"time": 3753, "pitch": 73, "duration": 4, "velocity": 95}, {"time": 3759, "pitch": 75, "duration": 6, "velocity": 96}, {"time": 3765, "pitch": 80, "duration": 9, "velocity": 92}, {"time": 3777, "pitch": 77, "duration": 8, "velocity": 93}, {"time": 3786, "pitch": 75, "duration": 2, "velocity": 91}, {"time": 3789, "pitch": 77, "duration": 4, "velocity": 91}, {"time": 3795, "pitch": 75, "duration": 5, "velocity": 105}, {"time": 3801, "pitch": 73, "duration": 9, "velocity": 91}, {"time": 3813, "pitch": 70, "duration": 5, "velocity": 93}, {"time": 3819, "pitch": 73, "duration": 18, "velocity": 91}, {"time": 3867, "pitch": 78, "duration": 3, "velocity": 91}, {"time": 3873, "pitch": 78, "duration": 5, "velocity": 90}, {"time": 3879, "pitch": 77, "duration": 4, "velocity": 91}, {"time": 3885, "pitch": 78, "duration": 5, "velocity": 95}, {"time": 3891, "pitch": 77, "duration": 5, "velocity": 91}, {"time": 3897, "pitch": 75, "duration": 7, "velocity": 96}, {"time": 3903, "pitch": 77, "duration": 6, "velocity": 94}, {"time": 3909, "pitch": 78, "duration": 4, "velocity": 93}, {"time": 3915, "pitch": 78, "duration": 4, "velocity": 90}, {"time": 3921, "pitch": 80, "duration": 4, "velocity": 91}, {"time": 3927, "pitch": 82, "duration": 9, "velocity": 90}, {"time": 3945, "pitch": 82, "duration": 4, "velocity": 98}, {"time": 3951, "pitch": 85, "duration": 5, "velocity": 106}, {"time": 3957, "pitch": 84, "duration": 7, "velocity": 96}, {"time": 3966, "pitch": 82, "duration": 2, "velocity": 94}, {"time": 3969, "pitch": 84, "duration": 4, "velocity": 92}, {"time": 3975, "pitch": 82, "duration": 4, "velocity": 96}, {"time": 3981, "pitch": 84, "duration": 4, "velocity": 94}, {"time": 3987, "pitch": 82, "duration": 4, "velocity": 98}, {"time": 3993, "pitch": 80, "duration": 3, "velocity": 100}, {"time": 3999, "pitch": 75, "duration": 4, "velocity": 103}, {"time": 4005, "pitch": 80, "duration": 72, "velocity": 91}, {"time": 4083, "pitch": 73, "duration": 4, "velocity": 90}, {"time": 4089, "pitch": 75, "duration": 5, "velocity": 93}, {"time": 4095, "pitch": 77, "duration": 5, "velocity": 90}, {"time": 4101, "pitch": 80, "duration": 4, "velocity": 90}, {"time": 4107, "pitch": 77, "duration": 4, "velocity": 90}, {"time": 4113, "pitch": 77, "duration": 9, "velocity": 90}, {"time": 4125, "pitch": 75, "duration": 6, "velocity": 95}, {"time": 4131, "pitch": 73, "duration": 5, "velocity": 84}, {"time": 4137, "pitch": 73, "duration": 10, "velocity": 87}, {"time": 4149, "pitch": 75, "duration": 5, "velocity": 91}, {"time": 4155, "pitch": 80, "duration": 9, "velocity": 90}, {"time": 4167, "pitch": 77, "duration": 12, "velocity": 93}, {"time": 4185, "pitch": 77, "duration": 6, "velocity": 98}, {"time": 4191, "pitch": 80, "duration": 5, "velocity": 93}, {"time": 4197, "pitch": 85, "duration": 4, "velocity": 92}, {"time": 4203, "pitch": 82, "duration": 4, "velocity": 88}, {"time": 4209, "pitch": 80, "duration": 4, "velocity": 93}, {"time": 4215, "pitch": 77, "duration": 4, "velocity": 95}, {"time": 4221, "pitch": 75, "duration": 6, "velocity": 93}, {"time": 4227, "pitch": 80, "duration": 18, "velocity": 90}, {"time": 4245, "pitch": 77, "duration": 32, "velocity": 90}, {"time": 4287, "pitch": 80, "duration": 4, "velocity": 89}, {"time": 4293, "pitch": 82, "duration": 4, "velocity": 93}, {"time": 4299, "pitch": 80, "duration": 6, "velocity": 89}, {"time": 4305, "pitch": 78, "duration": 5, "velocity": 90}, {"time": 4311, "pitch": 77, "duration": 4, "velocity": 95}, {"time": 4317, "pitch": 75, "duration": 10, "velocity": 91}, {"time": 4329, "pitch": 77, "duration": 4, "velocity": 90}, {"time": 4335, "pitch": 78, "duration": 4, "velocity": 89}, {"time": 4341, "pitch": 80, "duration": 9, "velocity": 93}, {"time": 4353, "pitch": 72, "duration": 4, "velocity": 89}, {"time": 4359, "pitch": 73, "duration": 12, "velocity": 90}, {"time": 4371, "pitch": 77, "duration": 4, "velocity": 91}, {"time": 4377, "pitch": 77, "duration": 4, "velocity": 91}, {"time": 4383, "pitch": 75, "duration": 4, "velocity": 95}, {"time": 4389, "pitch": 73, "duration": 5, "velocity": 92}, {"time": 4395, "pitch": 85, "duration": 4, "velocity": 92}, {"time": 4401, "pitch": 85, "duration": 3, "velocity": 94}, {"time": 4407, "pitch": 80, "duration": 3, "velocity": 87}, {"time": 4413, "pitch": 82, "duration": 10, "velocity": 91}, {"time": 4425, "pitch": 80, "duration": 4, "velocity": 90}, {"time": 4431, "pitch": 77, "duration": 4, "velocity": 89}, {"time": 4437, "pitch": 75, "duration": 25, "velocity": 92}, {"time": 4467, "pitch": 73, "duration": 4, "velocity": 90}, {"time": 4473, "pitch": 75, "duration": 5, "velocity": 93}, {"time": 4479, "pitch": 77, "duration": 5, "velocity": 90}, {"time": 4485, "pitch": 80, "duration": 4, "velocity": 90}, {"time": 4491, "pitch": 77, "duration": 4, "velocity": 90}, {"time": 4497, "pitch": 77, "duration": 9, "velocity": 90}, {"time": 4509, "pitch": 75, "duration": 6, "velocity": 95}, {"time": 4515, "pitch": 73, "duration": 5, "velocity": 84}, {"time": 4521, "pitch": 73, "duration": 10, "velocity": 87}, {"time": 4533, "pitch": 75, "duration": 5, "velocity": 91}, {"time": 4539, "pitch": 80, "duration": 9, "velocity": 90}, {"time": 4551, "pitch": 77, "duration": 12, "velocity": 93}, {"time": 4569, "pitch": 77, "duration": 6, "velocity": 98}, {"time": 4575, "pitch": 80, "duration": 5, "velocity": 93}, {"time": 4581, "pitch": 85, "duration": 4, "velocity": 92}, {"time": 4587, "pitch": 82, "duration": 4, "velocity": 88}, {"time": 4593, "pitch": 80, "duration": 4, "velocity": 93}, {"time": 4599, "pitch": 82, "duration": 4, "velocity": 95}, {"time": 4605, "pitch": 75, "duration": 6, "velocity": 93}, {"time": 4611, "pitch": 80, "duration": 18, "velocity": 90}, {"time": 4629, "pitch": 77, "duration": 32, "velocity": 90}, {"time": 4671, "pitch": 80, "duration": 4, "velocity": 89}, {"time": 4677, "pitch": 82, "duration": 4, "velocity": 93}, {"time": 4683, "pitch": 80, "duration": 6, "velocity": 89}, {"time": 4689, "pitch": 78, "duration": 5, "velocity": 90}, {"time": 4695, "pitch": 77, "duration": 4, "velocity": 95}, {"time": 4701, "pitch": 75, "duration": 10, "velocity": 91}, {"time": 4713, "pitch": 77, "duration": 4, "velocity": 90}, {"time": 4719, "pitch": 78, "duration": 4, "velocity": 89}, {"time": 4725, "pitch": 80, "duration": 9, "velocity": 93}, {"time": 4737, "pitch": 72, "duration": 4, "velocity": 89}, {"time": 4743, "pitch": 73, "duration": 12, "velocity": 90}, {"time": 4767, "pitch": 77, "duration": 5, "velocity": 91}, {"time": 4773, "pitch": 77, "duration": 5, "velocity": 93}, {"time": 4779, "pitch": 75, "duration": 4, "velocity": 91}, {"time": 4785, "pitch": 77, "duration": 5, "velocity": 96}, {"time": 4791, "pitch": 80, "duration": 4, "velocity": 93}, {"time": 4797, "pitch": 77, "duration": 7, "velocity": 96}, {"time": 4809, "pitch": 68, "duration": 9, "velocity": 91}, {"time": 4821, "pitch": 75, "duration": 28, "velocity": 93}, {"time": 4857, "pitch": 77, "duration": 6, "velocity": 93}, {"time": 4863, "pitch": 80, "duration": 5, "velocity": 91}, {"time": 4869, "pitch": 77, "duration": 6, "velocity": 95}, {"time": 4875, "pitch": 75, "duration": 7, "velocity": 88}, {"time": 4881, "pitch": 73, "duration": 65, "velocity": 90}]}, {"program": 0, "is_drum": false, "name": "PIANO", "notes": [{"time": 21, "pitch": 49, "duration": 44, "velocity": 89}, {"time": 27, "pitch": 56, "duration": 39, "velocity": 79}, {"time": 33, "pitch": 63, "duration": 7, "velocity": 83}, {"time": 39, "pitch": 65, "duration": 4, "velocity": 93}, {"time": 63, "pitch": 68, "duration": 15, "velocity": 85}, {"time": 69, "pitch": 49, "duration": 33, "velocity": 90}, {"time": 75, "pitch": 56, "duration": 26, "velocity": 76}, {"time": 81, "pitch": 63, "duration": 5, "velocity": 78}, {"time": 87, "pitch": 61, "duration": 15, "velocity": 83}, {"time": 87, "pitch": 65, "duration": 19, "velocity": 89}, {"time": 117, "pitch": 46, "duration": 46, "velocity": 90}, {"time": 123, "pitch": 53, "duration": 40, "velocity": 76}, {"time": 129, "pitch": 56, "duration": 8, "velocity": 84}, {"time": 135, "pitch": 61, "duration": 21, "velocity": 86}, {"time": 135, "pitch": 65, "duration": 22, "velocity": 85}, {"time": 159, "pitch": 61, "duration": 20, "velocity": 89}, {"time": 165, "pitch": 46, "duration": 37, "velocity": 90}, {"time": 171, "pitch": 53, "duration": 26, "velocity": 78}, {"time": 177, "pitch": 58, "duration": 23, "velocity": 90}, {"time": 183, "pitch": 61, "duration": 18, "velocity": 87}, {"time": 183, "pitch": 65, "duration": 18, "velocity": 89}, {"time": 201, "pitch": 53, "duration": 6, "velocity": 85}, {"time": 207, "pitch": 58, "duration": 9, "velocity": 89}, {"time": 213, "pitch": 42, "duration": 45, "velocity": 90}, {"time": 219, "pitch": 49, "duration": 37, "velocity": 84}, {"time": 225, "pitch": 54, "duration": 20, "velocity": 88}, {"time": 231, "pitch": 61, "duration": 26, "velocity": 83}, {"time": 231, "pitch": 65, "duration": 33, "velocity": 82}, {"time": 255, "pitch": 54, "duration": 42, "velocity": 79}, {"time": 261, "pitch": 42, "duration": 39, "velocity": 90}, {"time": 267, "pitch": 49, "duration": 33, "velocity": 82}, {"time": 273, "pitch": 58, "duration": 8, "velocity": 82}, {"time": 279, "pitch": 61, "duration": 31, "velocity": 87}, {"time": 297, "pitch": 65, "duration": 17, "velocity": 90}, {"time": 303, "pitch": 54, "duration": 6, "velocity": 86}, {"time": 309, "pitch": 44, "duration": 45, "velocity": 90}, {"time": 315, "pitch": 51, "duration": 40, "velocity": 81}, {"time": 321, "pitch": 63, "duration": 13, "velocity": 84}, {"time": 327, "pitch": 68, "duration": 38, "velocity": 89}, {"time": 339, "pitch": 63, "duration": 8, "velocity": 87}, {"time": 345, "pitch": 56, "duration": 21, "velocity": 86}, {"time": 351, "pitch": 63, "duration": 21, "velocity": 78}, {"time": 357, "pitch": 44, "duration": 31, "velocity": 90}, {"time": 363, "pitch": 51, "duration": 24, "velocity": 76}, {"time": 369, "pitch": 56, "duration": 18, "velocity": 79}, {"time": 375, "pitch": 63, "duration": 15, "velocity": 82}, {"time": 375, "pitch": 68, "duration": 20, "velocity": 77}, {"time": 405, "pitch": 49, "duration": 43, "velocity": 90}, {"time": 405, "pitch": 61, "duration": 7, "velocity": 82}, {"time": 405, "pitch": 65, "duration": 11, "velocity": 84}, {"time": 411, "pitch": 56, "duration": 38, "velocity": 79}, {"time": 417, "pitch": 63, "duration": 7, "velocity": 88}, {"time": 423, "pitch": 65, "duration": 38, "velocity": 90}, {"time": 447, "pitch": 61, "duration": 13, "velocity": 84}, {"time": 453, "pitch": 46, "duration": 41, "velocity": 89}, {"time": 459, "pitch": 53, "duration": 33, "velocity": 81}, {"time": 465, "pitch": 61, "duration": 9, "velocity": 85}, {"time": 471, "pitch": 65, "duration": 27, "velocity": 88}, {"time": 501, "pitch": 42, "duration": 34, "velocity": 88}, {"time": 501, "pitch": 58, "duration": 8, "velocity": 78}, {"time": 501, "pitch": 61, "duration": 33, "velocity": 83}, {"time": 507, "pitch": 49, "duration": 27, "velocity": 76}, {"time": 513, "pitch": 58, "duration": 20, "velocity": 81}, {"time": 519, "pitch": 66, "duration": 31, "velocity": 86}, {"time": 549, "pitch": 44, "duration": 40, "velocity": 89}, {"time": 555, "pitch": 51, "duration": 20, "velocity": 74}, {"time": 561, "pitch": 56, "duration": 29, "velocity": 90}, {"time": 567, "pitch": 63, "duration": 22, "velocity": 89}, {"time": 597, "pitch": 49, "duration": 40, "velocity": 90}, {"time": 597, "pitch": 61, "duration": 13, "velocity": 85}, {"time": 603, "pitch": 53, "duration": 36, "velocity": 81}, {"time": 609, "pitch": 56, "duration": 24, "velocity": 95}, {"time": 615, "pitch": 65, "duration": 25, "velocity": 91}, {"time": 621, "pitch": 63, "duration": 9, "velocity": 88}, {"time": 627, "pitch": 61, "duration": 9, "velocity": 94}, {"time": 639, "pitch": 56, "duration": 6, "velocity": 83}, {"time": 645, "pitch": 46, "duration": 34, "velocity": 90}, {"time": 645, "pitch": 58, "duration": 21, "velocity": 83}, {"time": 651, "pitch": 53, "duration": 26, "velocity": 80}, {"time": 657, "pitch": 61, "duration": 20, "velocity": 76}, {"time": 663, "pitch": 65, "duration": 14, "velocity": 82}, {"time": 693, "pitch": 42, "duration": 37, "velocity": 89}, {"time": 693, "pitch": 54, "duration": 8, "velocity": 83}, {"time": 693, "pitch": 61, "duration": 14, "velocity": 84}, {"time": 699, "pitch": 49, "duration": 27, "velocity": 79}, {"time": 705, "pitch": 54, "duration": 8, "velocity": 89}, {"time": 711, "pitch": 58, "duration": 10, "velocity": 88}, {"time": 723, "pitch": 61, "duration": 4, "velocity": 90}, {"time": 741, "pitch": 44, "duration": 42, "velocity": 89}, {"time": 741, "pitch": 56, "duration": 7, "velocity": 82}, {"time": 741, "pitch": 63, "duration": 11, "velocity": 84}, {"time": 747, "pitch": 51, "duration": 34, "velocity": 86}, {"time": 753, "pitch": 56, "duration": 12, "velocity": 86}, {"time": 759, "pitch": 63, "duration": 8, "velocity": 83}, {"time": 765, "pitch": 68, "duration": 15, "velocity": 89}, {"time": 771, "pitch": 63, "duration": 9, "velocity": 86}, {"time": 777, "pitch": 56, "duration": 5, "velocity": 91}, {"time": 789, "pitch": 49, "duration": 39, "velocity": 95}, {"time": 789, "pitch": 61, "duration": 8, "velocity": 89}, {"time": 795, "pitch": 56, "duration": 9, "velocity": 83}, {"time": 801, "pitch": 63, "duration": 8, "velocity": 79}, {"time": 807, "pitch": 65, "duration": 29, "velocity": 89}, {"time": 837, "pitch": 46, "duration": 38, "velocity": 88}, {"time": 837, "pitch": 61, "duration": 12, "velocity": 85}, {"time": 843, "pitch": 53, "duration": 30, "velocity": 79}, {"time": 849, "pitch": 58, "duration": 13, "velocity": 80}, {"time": 855, "pitch": 65, "duration": 12, "velocity": 91}, {"time": 867, "pitch": 61, "duration": 6, "velocity": 86}, {"time": 873, "pitch": 56, "duration": 7, "velocity": 69}, {"time": 885, "pitch": 42, "duration": 28, "velocity": 89}, {"time": 885, "pitch": 54, "duration": 7, "velocity": 79}, {"time": 885, "pitch": 58, "duration": 13, "velocity": 78}, {"time": 891, "pitch": 49, "duration": 22, "velocity": 77}, {"time": 897, "pitch": 54, "duration": 26, "velocity": 89}, {"time": 903, "pitch": 61, "duration": 28, "velocity": 89}, {"time": 933, "pitch": 44, "duration": 42, "velocity": 89}, {"time": 939, "pitch": 51, "duration": 36, "velocity": 77}, {"time": 945, "pitch": 56, "duration": 26, "velocity": 89}, {"time": 951, "pitch": 63, "duration": 21, "velocity": 82}, {"time": 951, "pitch": 68, "duration": 5, "velocity": 87}, {"time": 981, "pitch": 49, "duration": 38, "velocity": 89}, {"time": 981, "pitch": 65, "duration": 19, "velocity": 90}, {"time": 987, "pitch": 53, "duration": 33, "velocity": 77}, {"time": 993, "pitch": 56, "duration": 15, "velocity": 90}, {"time": 999, "pitch": 63, "duration": 10, "velocity": 90}, {"time": 1011, "pitch": 61, "duration": 10, "velocity": 92}, {"time": 1029, "pitch": 46, "duration": 36, "velocity": 89}, {"time": 1029, "pitch": 58, "duration": 7, "velocity": 78}, {"time": 1029, "pitch": 61, "duration": 12, "velocity": 83}, {"time": 1035, "pitch": 53, "duration": 28, "velocity": 78}, {"time": 1041, "pitch": 58, "duration": 5, "velocity": 80}, {"time": 1047, "pitch": 65, "duration": 17, "velocity": 90}, {"time": 1077, "pitch": 42, "duration": 17, "velocity": 89}, {"time": 1077, "pitch": 54, "duration": 8, "velocity": 82}, {"time": 1077, "pitch": 61, "duration": 13, "velocity": 73}, {"time": 1083, "pitch": 49, "duration": 11, "velocity": 84}, {"time": 1089, "pitch": 54, "duration": 4, "velocity": 91}, {"time": 1101, "pitch": 44, "duration": 18, "velocity": 90}, {"time": 1101, "pitch": 56, "duration": 7, "velocity": 85}, {"time": 1101, "pitch": 60, "duration": 13, "velocity": 86}, {"time": 1107, "pitch": 51, "duration": 12, "velocity": 79}, {"time": 1113, "pitch": 56, "duration": 5, "velocity": 90}, {"time": 1125, "pitch": 49, "duration": 56, "velocity": 91}, {"time": 1125, "pitch": 56, "duration": 7, "velocity": 85}, {"time": 1125, "pitch": 61, "duration": 21, "velocity": 85}, {"time": 1131, "pitch": 53, "duration": 38, "velocity": 75}, {"time": 1137, "pitch": 56, "duration": 9, "velocity": 83}, {"time": 1143, "pitch": 65, "duration": 24, "velocity": 93}, {"time": 1173, "pitch": 56, "duration": 12, "velocity": 88}, {"time": 1173, "pitch": 59, "duration": 18, "velocity": 89}, {"time": 1173, "pitch": 61, "duration": 19, "velocity": 90}, {"time": 1173, "pitch": 65, "duration": 19, "velocity": 91}, {"time": 1185, "pitch": 49, "duration": 10, "velocity": 74}, {"time": 1185, "pitch": 53, "duration": 10, "velocity": 82}, {"time": 1191, "pitch": 56, "duration": 4, "velocity": 87}, {"time": 1197, "pitch": 49, "duration": 15, "velocity": 95}, {"time": 1197, "pitch": 56, "duration": 6, "velocity": 91}, {"time": 1197, "pitch": 59, "duration": 10, "velocity": 98}, {"time": 1197, "pitch": 61, "duration": 13, "velocity": 94}, {"time": 1197, "pitch": 65, "duration": 13, "velocity": 98}, {"time": 1209, "pitch": 56, "duration": 4, "velocity": 96}, {"time": 1221, "pitch": 37, "duration": 3, "velocity": 89}, {"time": 1221, "pitch": 56, "duration": 7, "velocity": 89}, {"time": 1221, "pitch": 65, "duration": 13, "velocity": 90}, {"time": 1233, "pitch": 49, "duration": 33, "velocity": 84}, {"time": 1233, "pitch": 61, "duration": 9, "velocity": 85}, {"time": 1239, "pitch": 56, "duration": 16, "velocity": 89}, {"time": 1245, "pitch": 61, "duration": 13, "velocity": 100}, {"time": 1245, "pitch": 65, "duration": 35, "velocity": 95}, {"time": 1257, "pitch": 56, "duration": 15, "velocity": 89}, {"time": 1263, "pitch": 61, "duration": 14, "velocity": 88}, {"time": 1269, "pitch": 49, "duration": 44, "velocity": 103}, {"time": 1275, "pitch": 56, "duration": 9, "velocity": 88}, {"time": 1281, "pitch": 61, "duration": 4, "velocity": 81}, {"time": 1287, "pitch": 56, "duration": 10, "velocity": 89}, {"time": 1287, "pitch": 63, "duration": 9, "velocity": 85}, {"time": 1299, "pitch": 56, "duration": 6, "velocity": 89}, {"time": 1299, "pitch": 65, "duration": 9, "velocity": 89}, {"time": 1305, "pitch": 61, "duration": 12, "velocity": 84}, {"time": 1311, "pitch": 56, "duration": 9, "velocity": 86}, {"time": 1317, "pitch": 42, "duration": 21, "velocity": 93}, {"time": 1323, "pitch": 49, "duration": 16, "velocity": 84}, {"time": 1329, "pitch": 54, "duration": 9, "velocity": 92}, {"time": 1335, "pitch": 58, "duration": 5, "velocity": 84}, {"time": 1341, "pitch": 44, "duration": 21, "velocity": 90}, {"time": 1341, "pitch": 56, "duration": 13, "velocity": 88}, {"time": 1341, "pitch": 60, "duration": 13, "velocity": 88}, {"time": 1353, "pitch": 51, "duration": 9, "velocity": 85}, {"time": 1359, "pitch": 56, "duration": 4, "velocity": 82}, {"time": 1365, "pitch": 49, "duration": 27, "velocity": 90}, {"time": 1365, "pitch": 56, "duration": 7, "velocity": 89}, {"time": 1365, "pitch": 61, "duration": 13, "velocity": 89}, {"time": 1377, "pitch": 56, "duration": 8, "velocity": 86}, {"time": 1389, "pitch": 56, "duration": 8, "velocity": 91}, {"time": 1389, "pitch": 61, "duration": 7, "velocity": 91}, {"time": 1389, "pitch": 65, "duration": 13, "velocity": 91}, {"time": 1395, "pitch": 49, "duration": 11, "velocity": 91}, {"time": 1401, "pitch": 56, "duration": 7, "velocity": 84}, {"time": 1401, "pitch": 61, "duration": 8, "velocity": 91}, {"time": 1407, "pitch": 60, "duration": 6, "velocity": 84}, {"time": 1413, "pitch": 42, "duration": 19, "velocity": 90}, {"time": 1413, "pitch": 58, "duration": 13, "velocity": 78}, {"time": 1425, "pitch": 49, "duration": 8, "velocity": 78}, {"time": 1431, "pitch": 54, "duration": 3, "velocity": 81}, {"time": 1437, "pitch": 44, "duration": 16, "velocity": 89}, {"time": 1437, "pitch": 56, "duration": 15, "velocity": 90}, {"time": 1437, "pitch": 60, "duration": 15, "velocity": 90}, {"time": 1449, "pitch": 51, "duration": 4, "velocity": 78}, {"time": 1461, "pitch": 41, "duration": 17, "velocity": 95}, {"time": 1461, "pitch": 53, "duration": 7, "velocity": 90}, {"time": 1461, "pitch": 56, "duration": 9, "velocity": 89}, {"time": 1467, "pitch": 48, "duration": 10, "velocity": 70}, {"time": 1473, "pitch": 53, "duration": 7, "velocity": 98}, {"time": 1479, "pitch": 56, "duration": 3, "velocity": 82}, {"time": 1479, "pitch": 58, "duration": 2, "velocity": 80}, {"time": 1485, "pitch": 46, "duration": 21, "velocity": 91}, {"time": 1485, "pitch": 58, "duration": 8, "velocity": 84}, {"time": 1485, "pitch": 61, "duration": 8, "velocity": 91}, {"time": 1491, "pitch": 53, "duration": 15, "velocity": 88}, {"time": 1497, "pitch": 58, "duration": 4, "velocity": 89}, {"time": 1497, "pitch": 61, "duration": 6, "velocity": 93}, {"time": 1497, "pitch": 65, "duration": 7, "velocity": 93}, {"time": 1503, "pitch": 58, "duration": 4, "velocity": 84}, {"time": 1509, "pitch": 51, "duration": 15, "velocity": 89}, {"time": 1509, "pitch": 58, "duration": 7, "velocity": 90}, {"time": 1509, "pitch": 63, "duration": 12, "velocity": 90}, {"time": 1521, "pitch": 58, "duration": 9, "velocity": 90}, {"time": 1527, "pitch": 63, "duration": 4, "velocity": 86}, {"time": 1533, "pitch": 39, "duration": 12, "velocity": 96}, {"time": 1533, "pitch": 58, "duration": 7, "velocity": 90}, {"time": 1533, "pitch": 63, "duration": 14, "velocity": 90}, {"time": 1533, "pitch": 67, "duration": 15, "velocity": 92}, {"time": 1545, "pitch": 58, "duration": 9, "velocity": 90}, {"time": 1551, "pitch": 63, "duration": 2, "velocity": 80}, {"time": 1557, "pitch": 44, "duration": 42, "velocity": 90}, {"time": 1557, "pitch": 56, "duration": 8, "velocity": 86}, {"time": 1557, "pitch": 60, "duration": 9, "velocity": 91}, {"time": 1563, "pitch": 51, "duration": 21, "velocity": 84}, {"time": 1569, "pitch": 56, "duration": 5, "velocity": 88}, {"time": 1575, "pitch": 56, "duration": 3, "velocity": 74}, {"time": 1575, "pitch": 63, "duration": 4, "velocity": 88}, {"time": 1581, "pitch": 56, "duration": 8, "velocity": 93}, {"time": 1581, "pitch": 63, "duration": 8, "velocity": 93}, {"time": 1581, "pitch": 68, "duration": 7, "velocity": 91}, {"time": 1587, "pitch": 51, "duration": 10, "velocity": 94}, {"time": 1593, "pitch": 56, "duration": 3, "velocity": 89}, {"time": 1593, "pitch": 66, "duration": 11, "velocity": 91}, {"time": 1599, "pitch": 56, "duration": 4, "velocity": 89}, {"time": 1605, "pitch": 49, "duration": 46, "velocity": 90}, {"time": 1605, "pitch": 56, "duration": 3, "velocity": 80}, {"time": 1605, "pitch": 65, "duration": 13, "velocity": 91}, {"time": 1611, "pitch": 56, "duration": 8, "velocity": 84}, {"time": 1617, "pitch": 61, "duration": 4, "velocity": 78}, {"time": 1623, "pitch": 56, "duration": 8, "velocity": 86}, {"time": 1623, "pitch": 63, "duration": 8, "velocity": 85}, {"time": 1635, "pitch": 56, "duration": 5, "velocity": 91}, {"time": 1635, "pitch": 65, "duration": 10, "velocity": 93}, {"time": 1653, "pitch": 49, "duration": 39, "velocity": 92}, {"time": 1653, "pitch": 61, "duration": 7, "velocity": 89}, {"time": 1653, "pitch": 65, "duration": 11, "velocity": 91}, {"time": 1659, "pitch": 56, "duration": 8, "velocity": 90}, {"time": 1665, "pitch": 61, "duration": 3, "velocity": 79}, {"time": 1671, "pitch": 56, "duration": 15, "velocity": 93}, {"time": 1671, "pitch": 65, "duration": 16, "velocity": 93}, {"time": 1689, "pitch": 61, "duration": 6, "velocity": 95}, {"time": 1695, "pitch": 56, "duration": 4, "velocity": 90}, {"time": 1701, "pitch": 42, "duration": 20, "velocity": 91}, {"time": 1701, "pitch": 54, "duration": 11, "velocity": 87}, {"time": 1701, "pitch": 58, "duration": 13, "velocity": 84}, {"time": 1707, "pitch": 49, "duration": 14, "velocity": 83}, {"time": 1713, "pitch": 61, "duration": 8, "velocity": 85}, {"time": 1719, "pitch": 54, "duration": 3, "velocity": 87}, {"time": 1725, "pitch": 44, "duration": 15, "velocity": 90}, {"time": 1725, "pitch": 56, "duration": 7, "velocity": 87}, {"time": 1725, "pitch": 60, "duration": 12, "velocity": 87}, {"time": 1731, "pitch": 51, "duration": 9, "velocity": 82}, {"time": 1737, "pitch": 56, "duration": 3, "velocity": 92}, {"time": 1749, "pitch": 46, "duration": 37, "velocity": 91}, {"time": 1749, "pitch": 58, "duration": 7, "velocity": 89}, {"time": 1749, "pitch": 61, "duration": 10, "velocity": 89}, {"time": 1755, "pitch": 53, "duration": 26, "velocity": 79}, {"time": 1761, "pitch": 58, "duration": 4, "velocity": 90}, {"time": 1767, "pitch": 60, "duration": 11, "velocity": 93}, {"time": 1779, "pitch": 58, "duration": 1, "velocity": 77}, {"time": 1779, "pitch": 61, "duration": 11, "velocity": 93}, {"time": 1785, "pitch": 53, "duration": 3, "velocity": 90}, {"time": 1797, "pitch": 42, "duration": 20, "velocity": 90}, {"time": 1797, "pitch": 54, "duration": 7, "velocity": 84}, {"time": 1797, "pitch": 61, "duration": 13, "velocity": 86}, {"time": 1803, "pitch": 49, "duration": 15, "velocity": 85}, {"time": 1809, "pitch": 54, "duration": 7, "velocity": 90}, {"time": 1815, "pitch": 61, "duration": 5, "velocity": 80}, {"time": 1821, "pitch": 44, "duration": 12, "velocity": 91}, {"time": 1821, "pitch": 56, "duration": 13, "velocity": 87}, {"time": 1821, "pitch": 60, "duration": 12, "velocity": 89}, {"time": 1845, "pitch": 41, "duration": 13, "velocity": 92}, {"time": 1845, "pitch": 53, "duration": 7, "velocity": 88}, {"time": 1845, "pitch": 56, "duration": 10, "velocity": 86}, {"time": 1851, "pitch": 48, "duration": 7, "velocity": 84}, {"time": 1857, "pitch": 53, "duration": 4, "velocity": 91}, {"time": 1869, "pitch": 46, "duration": 22, "velocity": 91}, {"time": 1869, "pitch": 58, "duration": 8, "velocity": 88}, {"time": 1869, "pitch": 61, "duration": 10, "velocity": 88}, {"time": 1875, "pitch": 53, "duration": 15, "velocity": 89}, {"time": 1881, "pitch": 58, "duration": 9, "velocity": 90}, {"time": 1887, "pitch": 61, "duration": 4, "velocity": 88}, {"time": 1893, "pitch": 51, "duration": 36, "velocity": 90}, {"time": 1893, "pitch": 58, "duration": 7, "velocity": 86}, {"time": 1893, "pitch": 63, "duration": 8, "velocity": 87}, {"time": 1899, "pitch": 54, "duration": 29, "velocity": 82}, {"time": 1905, "pitch": 58, "duration": 4, "velocity": 84}, {"time": 1911, "pitch": 58, "duration": 2, "velocity": 77}, {"time": 1911, "pitch": 66, "duration": 14, "velocity": 91}, {"time": 1923, "pitch": 63, "duration": 6, "velocity": 89}, {"time": 1929, "pitch": 58, "duration": 4, "velocity": 86}, {"time": 1941, "pitch": 44, "duration": 41, "velocity": 89}, {"time": 1941, "pitch": 56, "duration": 8, "velocity": 81}, {"time": 1941, "pitch": 63, "duration": 11, "velocity": 84}, {"time": 1947, "pitch": 51, "duration": 33, "velocity": 78}, {"time": 1953, "pitch": 56, "duration": 8, "velocity": 82}, {"time": 1959, "pitch": 63, "duration": 8, "velocity": 90}, {"time": 1965, "pitch": 68, "duration": 12, "velocity": 90}, {"time": 1971, "pitch": 63, "duration": 8, "velocity": 90}, {"time": 1977, "pitch": 56, "duration": 4, "velocity": 88}, {"time": 1989, "pitch": 49, "duration": 42, "velocity": 91}, {"time": 1989, "pitch": 56, "duration": 5, "velocity": 89}, {"time": 1989, "pitch": 61, "duration": 8, "velocity": 87}, {"time": 1995, "pitch": 56, "duration": 9, "velocity": 85}, {"time": 2001, "pitch": 63, "duration": 7, "velocity": 82}, {"time": 2007, "pitch": 65, "duration": 13, "velocity": 88}, {"time": 2019, "pitch": 61, "duration": 8, "velocity": 85}, {"time": 2025, "pitch": 56, "duration": 14, "velocity": 79}, {"time": 2031, "pitch": 61, "duration": 13, "velocity": 82}, {"time": 2037, "pitch": 49, "duration": 37, "velocity": 96}, {"time": 2043, "pitch": 56, "duration": 8, "velocity": 86}, {"time": 2049, "pitch": 61, "duration": 4, "velocity": 93}, {"time": 2055, "pitch": 56, "duration": 9, "velocity": 90}, {"time": 2055, "pitch": 63, "duration": 9, "velocity": 94}, {"time": 2067, "pitch": 56, "duration": 10, "velocity": 91}, {"time": 2067, "pitch": 65, "duration": 11, "velocity": 93}, {"time": 2085, "pitch": 46, "duration": 43, "velocity": 94}, {"time": 2085, "pitch": 58, "duration": 13, "velocity": 83}, {"time": 2085, "pitch": 61, "duration": 14, "velocity": 91}, {"time": 2097, "pitch": 53, "duration": 15, "velocity": 83}, {"time": 2103, "pitch": 58, "duration": 3, "velocity": 90}, {"time": 2109, "pitch": 58, "duration": 6, "velocity": 96}, {"time": 2109, "pitch": 65, "duration": 7, "velocity": 95}, {"time": 2115, "pitch": 53, "duration": 15, "velocity": 87}, {"time": 2121, "pitch": 58, "duration": 2, "velocity": 85}, {"time": 2127, "pitch": 58, "duration": 20, "velocity": 90}, {"time": 2127, "pitch": 61, "duration": 19, "velocity": 89}, {"time": 2133, "pitch": 46, "duration": 38, "velocity": 90}, {"time": 2139, "pitch": 53, "duration": 14, "velocity": 79}, {"time": 2145, "pitch": 65, "duration": 4, "velocity": 89}, {"time": 2151, "pitch": 58, "duration": 10, "velocity": 91}, {"time": 2151, "pitch": 70, "duration": 10, "velocity": 89}, {"time": 2157, "pitch": 53, "duration": 9, "velocity": 90}, {"time": 2163, "pitch": 61, "duration": 8, "velocity": 90}, {"time": 2163, "pitch": 65, "duration": 8, "velocity": 93}, {"time": 2169, "pitch": 58, "duration": 4, "velocity": 92}, {"time": 2181, "pitch": 42, "duration": 44, "velocity": 89}, {"time": 2181, "pitch": 54, "duration": 14, "velocity": 89}, {"time": 2181, "pitch": 58, "duration": 14, "velocity": 84}, {"time": 2187, "pitch": 49, "duration": 38, "velocity": 81}, {"time": 2193, "pitch": 61, "duration": 4, "velocity": 89}, {"time": 2199, "pitch": 66, "duration": 8, "velocity": 91}, {"time": 2211, "pitch": 61, "duration": 3, "velocity": 90}, {"time": 2217, "pitch": 54, "duration": 19, "velocity": 90}, {"time": 2223, "pitch": 61, "duration": 15, "velocity": 89}, {"time": 2229, "pitch": 42, "duration": 38, "velocity": 90}, {"time": 2235, "pitch": 49, "duration": 27, "velocity": 79}, {"time": 2241, "pitch": 54, "duration": 5, "velocity": 90}, {"time": 2247, "pitch": 54, "duration": 8, "velocity": 74}, {"time": 2247, "pitch": 58, "duration": 14, "velocity": 93}, {"time": 2247, "pitch": 61, "duration": 14, "velocity": 90}, {"time": 2247, "pitch": 66, "duration": 18, "velocity": 91}, {"time": 2259, "pitch": 54, "duration": 7, "velocity": 96}, {"time": 2265, "pitch": 49, "duration": 8, "velocity": 91}, {"time": 2271, "pitch": 54, "duration": 4, "velocity": 90}, {"time": 2277, "pitch": 44, "duration": 44, "velocity": 90}, {"time": 2283, "pitch": 51, "duration": 38, "velocity": 87}, {"time": 2289, "pitch": 56, "duration": 14, "velocity": 86}, {"time": 2295, "pitch": 63, "duration": 8, "velocity": 85}, {"time": 2301, "pitch": 68, "duration": 8, "velocity": 83}, {"time": 2307, "pitch": 63, "duration": 8, "velocity": 75}, {"time": 2313, "pitch": 56, "duration": 10, "velocity": 92}, {"time": 2319, "pitch": 63, "duration": 5, "velocity": 81}, {"time": 2325, "pitch": 44, "duration": 48, "velocity": 91}, {"time": 2325, "pitch": 56, "duration": 8, "velocity": 90}, {"time": 2325, "pitch": 63, "duration": 13, "velocity": 90}, {"time": 2325, "pitch": 68, "duration": 13, "velocity": 89}, {"time": 2331, "pitch": 51, "duration": 41, "velocity": 83}, {"time": 2337, "pitch": 56, "duration": 3, "velocity": 79}, {"time": 2343, "pitch": 56, "duration": 29, "velocity": 83}, {"time": 2343, "pitch": 63, "duration": 30, "velocity": 87}, {"time": 2343, "pitch": 68, "duration": 30, "velocity": 85}, {"time": 2373, "pitch": 49, "duration": 39, "velocity": 95}, {"time": 2373, "pitch": 61, "duration": 8, "velocity": 89}, {"time": 2379, "pitch": 56, "duration": 9, "velocity": 83}, {"time": 2385, "pitch": 63, "duration": 8, "velocity": 79}, {"time": 2391, "pitch": 65, "duration": 29, "velocity": 89}, {"time": 2421, "pitch": 46, "duration": 38, "velocity": 88}, {"time": 2421, "pitch": 61, "duration": 12, "velocity": 85}, {"time": 2427, "pitch": 53, "duration": 30, "velocity": 79}, {"time": 2433, "pitch": 58, "duration": 13, "velocity": 80}, {"time": 2439, "pitch": 65, "duration": 12, "velocity": 91}, {"time": 2451, "pitch": 61, "duration": 6, "velocity": 86}, {"time": 2457, "pitch": 56, "duration": 7, "velocity": 69}, {"time": 2469, "pitch": 42, "duration": 28, "velocity": 89}, {"time": 2469, "pitch": 54, "duration": 7, "velocity": 79}, {"time": 2469, "pitch": 58, "duration": 13, "velocity": 78}, {"time": 2475, "pitch": 49, "duration": 22, "velocity": 77}, {"time": 2481, "pitch": 54, "duration": 26, "velocity": 89}, {"time": 2487, "pitch": 61, "duration": 28, "velocity": 89}, {"time": 2517, "pitch": 44, "duration": 42, "velocity": 89}, {"time": 2523, "pitch": 51, "duration": 36, "velocity": 77}, {"time": 2529, "pitch": 56, "duration": 26, "velocity": 89}, {"time": 2535, "pitch": 63, "duration": 21, "velocity": 82}, {"time": 2535, "pitch": 68, "duration": 5, "velocity": 87}, {"time": 2565, "pitch": 49, "duration": 38, "velocity": 89}, {"time": 2565, "pitch": 65, "duration": 19, "velocity": 90}, {"time": 2571, "pitch": 53, "duration": 33, "velocity": 77}, {"time": 2577, "pitch": 56, "duration": 15, "velocity": 90}, {"time": 2583, "pitch": 63, "duration": 10, "velocity": 90}, {"time": 2595, "pitch": 61, "duration": 10, "velocity": 92}, {"time": 2613, "pitch": 46, "duration": 36, "velocity": 89}, {"time": 2613, "pitch": 58, "duration": 7, "velocity": 78}, {"time": 2613, "pitch": 61, "duration": 12, "velocity": 83}, {"time": 2619, "pitch": 53, "duration": 28, "velocity": 78}, {"time": 2625, "pitch": 58, "duration": 5, "velocity": 80}, {"time": 2631, "pitch": 65, "duration": 17, "velocity": 90}, {"time": 2661, "pitch": 42, "duration": 17, "velocity": 89}, {"time": 2661, "pitch": 54, "duration": 8, "velocity": 82}, {"time": 2661, "pitch": 61, "duration": 13, "velocity": 73}, {"time": 2667, "pitch": 49, "duration": 11, "velocity": 84}, {"time": 2673, "pitch": 54, "duration": 4, "velocity": 91}, {"time": 2685, "pitch": 44, "duration": 18, "velocity": 90}, {"time": 2685, "pitch": 56, "duration": 7, "velocity": 85}, {"time": 2685, "pitch": 60, "duration": 13, "velocity": 86}, {"time": 2691, "pitch": 51, "duration": 12, "velocity": 79}, {"time": 2697, "pitch": 56, "duration": 5, "velocity": 90}, {"time": 2709, "pitch": 49, "duration": 56, "velocity": 91}, {"time": 2709, "pitch": 56, "duration": 7, "velocity": 85}, {"time": 2709, "pitch": 61, "duration": 21, "velocity": 85}, {"time": 2715, "pitch": 53, "duration": 38, "velocity": 75}, {"time": 2721, "pitch": 56, "duration": 9, "velocity": 83}, {"time": 2727, "pitch": 65, "duration": 24, "velocity": 93}, {"time": 2757, "pitch": 56, "duration": 12, "velocity": 88}, {"time": 2757, "pitch": 59, "duration": 18, "velocity": 89}, {"time": 2757, "pitch": 61, "duration": 19, "velocity": 90}, {"time": 2757, "pitch": 65, "duration": 19, "velocity": 91}, {"time": 2769, "pitch": 49, "duration": 10, "velocity": 74}, {"time": 2769, "pitch": 53, "duration": 10, "velocity": 82}, {"time": 2775, "pitch": 56, "duration": 4, "velocity": 87}, {"time": 2781, "pitch": 49, "duration": 15, "velocity": 95}, {"time": 2781, "pitch": 56, "duration": 6, "velocity": 91}, {"time": 2781, "pitch": 59, "duration": 10, "velocity": 98}, {"time": 2781, "pitch": 61, "duration": 13, "velocity": 94}, {"time": 2781, "pitch": 65, "duration": 13, "velocity": 98}, {"time": 2793, "pitch": 56, "duration": 4, "velocity": 96}, {"time": 2805, "pitch": 37, "duration": 3, "velocity": 89}, {"time": 2805, "pitch": 56, "duration": 7, "velocity": 89}, {"time": 2805, "pitch": 65, "duration": 13, "velocity": 90}, {"time": 2817, "pitch": 49, "duration": 33, "velocity": 84}, {"time": 2817, "pitch": 61, "duration": 9, "velocity": 85}, {"time": 2823, "pitch": 56, "duration": 16, "velocity": 89}, {"time": 2829, "pitch": 61, "duration": 13, "velocity": 100}, {"time": 2829, "pitch": 65, "duration": 35, "velocity": 95}, {"time": 2841, "pitch": 56, "duration": 15, "velocity": 89}, {"time": 2847, "pitch": 61, "duration": 14, "velocity": 88}, {"time": 2853, "pitch": 49, "duration": 44, "velocity": 103}, {"time": 2859, "pitch": 56, "duration": 9, "velocity": 88}, {"time": 2865, "pitch": 61, "duration": 4, "velocity": 81}, {"time": 2871, "pitch": 56, "duration": 10, "velocity": 89}, {"time": 2871, "pitch": 63, "duration": 9, "velocity": 85}, {"time": 2883, "pitch": 56, "duration": 6, "velocity": 89}, {"time": 2883, "pitch": 65, "duration": 9, "velocity": 89}, {"time": 2889, "pitch": 61, "duration": 12, "velocity": 84}, {"time": 2895, "pitch": 56, "duration": 9, "velocity": 86}, {"time": 2901, "pitch": 42, "duration": 21, "velocity": 93}, {"time": 2907, "pitch": 49, "duration": 16, "velocity": 84}, {"time": 2913, "pitch": 54, "duration": 9, "velocity": 92}, {"time": 2919, "pitch": 58, "duration": 5, "velocity": 84}, {"time": 2925, "pitch": 44, "duration": 21, "velocity": 90}, {"time": 2925, "pitch": 56, "duration": 13, "velocity": 88}, {"time": 2925, "pitch": 60, "duration": 13, "velocity": 88}, {"time": 2937, "pitch": 51, "duration": 9, "velocity": 85}, {"time": 2943, "pitch": 56, "duration": 4, "velocity": 82}, {"time": 2949, "pitch": 49, "duration": 27, "velocity": 90}, {"time": 2949, "pitch": 56, "duration": 7, "velocity": 89}, {"time": 2949, "pitch": 61, "duration": 13, "velocity": 89}, {"time": 2961, "pitch": 56, "duration": 8, "velocity": 86}, {"time": 2973, "pitch": 56, "duration": 8, "velocity": 91}, {"time": 2973, "pitch": 61, "duration": 7, "velocity": 91}, {"time": 2973, "pitch": 65, "duration": 13, "velocity": 91}, {"time": 2979, "pitch": 49, "duration": 11, "velocity": 91}, {"time": 2985, "pitch": 56, "duration": 7, "velocity": 84}, {"time": 2985, "pitch": 61, "duration": 8, "velocity": 91}, {"time": 2991, "pitch": 60, "duration": 6, "velocity": 84}, {"time": 2997, "pitch": 42, "duration": 19, "velocity": 90}, {"time": 2997, "pitch": 58, "duration": 13, "velocity": 78}, {"time": 3009, "pitch": 49, "duration": 8, "velocity": 78}, {"time": 3015, "pitch": 54, "duration": 3, "velocity": 81}, {"time": 3021, "pitch": 44, "duration": 16, "velocity": 89}, {"time": 3021, "pitch": 56, "duration": 15, "velocity": 90}, {"time": 3021, "pitch": 60, "duration": 15, "velocity": 90}, {"time": 3033, "pitch": 51, "duration": 4, "velocity": 78}, {"time": 3045, "pitch": 41, "duration": 17, "velocity": 95}, {"time": 3045, "pitch": 53, "duration": 7, "velocity": 90}, {"time": 3045, "pitch": 56, "duration": 9, "velocity": 89}, {"time": 3051, "pitch": 48, "duration": 10, "velocity": 70}, {"time": 3057, "pitch": 53, "duration": 7, "velocity": 98}, {"time": 3063, "pitch": 56, "duration": 3, "velocity": 82}, {"time": 3063, "pitch": 58, "duration": 2, "velocity": 80}, {"time": 3069, "pitch": 46, "duration": 21, "velocity": 91}, {"time": 3069, "pitch": 58, "duration": 8, "velocity": 84}, {"time": 3069, "pitch": 61, "duration": 8, "velocity": 91}, {"time": 3075, "pitch": 53, "duration": 15, "velocity": 88}, {"time": 3081, "pitch": 58, "duration": 4, "velocity": 89}, {"time": 3081, "pitch": 61, "duration": 6, "velocity": 93}, {"time": 3081, "pitch": 65, "duration": 7, "velocity": 93}, {"time": 3087, "pitch": 58, "duration": 4, "velocity": 84}, {"time": 3093, "pitch": 51, "duration": 15, "velocity": 89}, {"time": 3093, "pitch": 58, "duration": 7, "velocity": 90}, {"time": 3093, "pitch": 63, "duration": 12, "velocity": 90}, {"time": 3105, "pitch": 58, "duration": 9, "velocity": 90}, {"time": 3111, "pitch": 63, "duration": 4, "velocity": 86}, {"time": 3117, "pitch": 39, "duration": 12, "velocity": 96}, {"time": 3117, "pitch": 58, "duration": 7, "velocity": 90}, {"time": 3117, "pitch": 63, "duration": 14, "velocity": 90}, {"time": 3117, "pitch": 67, "duration": 15, "velocity": 92}, {"time": 3129, "pitch": 58, "duration": 9, "velocity": 90}, {"time": 3135, "pitch": 63, "duration": 2, "velocity": 80}, {"time": 3141, "pitch": 44, "duration": 42, "velocity": 90}, {"time": 3141, "pitch": 56, "duration": 8, "velocity": 86}, {"time": 3141, "pitch": 60, "duration": 9, "velocity": 91}, {"time": 3147, "pitch": 51, "duration": 21, "velocity": 84}, {"time": 3153, "pitch": 56, "duration": 5, "velocity": 88}, {"time": 3159, "pitch": 56, "duration": 3, "velocity": 74}, {"time": 3159, "pitch": 63, "duration": 4, "velocity": 88}, {"time": 3165, "pitch": 56, "duration": 8, "velocity": 93}, {"time": 3165, "pitch": 63, "duration": 8, "velocity": 93}, {"time": 3165, "pitch": 68, "duration": 7, "velocity": 91}, {"time": 3171, "pitch": 51, "duration": 10, "velocity": 94}, {"time": 3177, "pitch": 56, "duration": 3, "velocity": 89}, {"time": 3177, "pitch": 66, "duration": 11, "velocity": 91}, {"time": 3183, "pitch": 56, "duration": 4, "velocity": 89}, {"time": 3189, "pitch": 49, "duration": 46, "velocity": 90}, {"time": 3189, "pitch": 56, "duration": 3, "velocity": 80}, {"time": 3189, "pitch": 65, "duration": 13, "velocity": 91}, {"time": 3195, "pitch": 56, "duration": 8, "velocity": 84}, {"time": 3201, "pitch": 61, "duration": 4, "velocity": 78}, {"time": 3207, "pitch": 56, "duration": 8, "velocity": 86}, {"time": 3207, "pitch": 63, "duration": 8, "velocity": 85}, {"time": 3219, "pitch": 56, "duration": 5, "velocity": 91}, {"time": 3219, "pitch": 65, "duration": 10, "velocity": 93}, {"time": 3237, "pitch": 49, "duration": 39, "velocity": 92}, {"time": 3237, "pitch": 61, "duration": 7, "velocity": 89}, {"time": 3237, "pitch": 65, "duration": 11, "velocity": 91}, {"time": 3243, "pitch": 56, "duration": 8, "velocity": 90}, {"time": 3249, "pitch": 61, "duration": 3, "velocity": 79}, {"time": 3255, "pitch": 56, "duration": 15, "velocity": 93}, {"time": 3255, "pitch": 65, "duration": 16, "velocity": 93}, {"time": 3273, "pitch": 61, "duration": 6, "velocity": 95}, {"time": 3279, "pitch": 56, "duration": 4, "velocity": 90}, {"time": 3285, "pitch": 42, "duration": 20, "velocity": 91}, {"time": 3285, "pitch": 54, "duration": 11, "velocity": 87}, {"time": 3285, "pitch": 58, "duration": 13, "velocity": 84}, {"time": 3291, "pitch": 49, "duration": 14, "velocity": 83}, {"time": 3297, "pitch": 61, "duration": 8, "velocity": 85}, {"time": 3303, "pitch": 54, "duration": 3, "velocity": 87}, {"time": 3309, "pitch": 44, "duration": 15, "velocity": 90}, {"time": 3309, "pitch": 56, "duration": 7, "velocity": 87}, {"time": 3309, "pitch": 60, "duration": 12, "velocity": 87}, {"time": 3315, "pitch": 51, "duration": 9, "velocity": 82}, {"time": 3321, "pitch": 56, "duration": 3, "velocity": 92}, {"time": 3333, "pitch": 46, "duration": 37, "velocity": 91}, {"time": 3333, "pitch": 58, "duration": 7, "velocity": 89}, {"time": 3333, "pitch": 61, "duration": 10, "velocity": 89}, {"time": 3339, "pitch": 53, "duration": 26, "velocity": 79}, {"time": 3345, "pitch": 58, "duration": 4, "velocity": 90}, {"time": 3351, "pitch": 60, "duration": 11, "velocity": 93}, {"time": 3363, "pitch": 58, "duration": 1, "velocity": 77}, {"time": 3363, "pitch": 61, "duration": 11, "velocity": 93}, {"time": 3369, "pitch": 53, "duration": 3, "velocity": 90}, {"time": 3381, "pitch": 42, "duration": 20, "velocity": 90}, {"time": 3381, "pitch": 54, "duration": 7, "velocity": 84}, {"time": 3381, "pitch": 61, "duration": 13, "velocity": 86}, {"time": 3387, "pitch": 49, "duration": 15, "velocity": 85}, {"time": 3393, "pitch": 54, "duration": 7, "velocity": 90}, {"time": 3399, "pitch": 61, "duration": 5, "velocity": 80}, {"time": 3405, "pitch": 44, "duration": 12, "velocity": 91}, {"time": 3405, "pitch": 56, "duration": 13, "velocity": 87}, {"time": 3405, "pitch": 60, "duration": 12, "velocity": 89}, {"time": 3429, "pitch": 41, "duration": 13, "velocity": 92}, {"time": 3429, "pitch": 53, "duration": 7, "velocity": 88}, {"time": 3429, "pitch": 56, "duration": 10, "velocity": 86}, {"time": 3435, "pitch": 48, "duration": 7, "velocity": 84}, {"time": 3441, "pitch": 53, "duration": 4, "velocity": 91}, {"time": 3453, "pitch": 46, "duration": 22, "velocity": 91}, {"time": 3453, "pitch": 58, "duration": 8, "velocity": 88}, {"time": 3453, "pitch": 61, "duration": 10, "velocity": 88}, {"time": 3459, "pitch": 53, "duration": 15, "velocity": 89}, {"time": 3465, "pitch": 58, "duration": 9, "velocity": 90}, {"time": 3471, "pitch": 61, "duration": 4, "velocity": 88}, {"time": 3477, "pitch": 51, "duration": 36, "velocity": 90}, {"time": 3477, "pitch": 58, "duration": 7, "velocity": 86}, {"time": 3477, "pitch": 63, "duration": 8, "velocity": 87}, {"time": 3483, "pitch": 54, "duration": 29, "velocity": 82}, {"time": 3489, "pitch": 58, "duration": 4, "velocity": 84}, {"time": 3495, "pitch": 58, "duration": 2, "velocity": 77}, {"time": 3495, "pitch": 66, "duration": 14, "velocity": 91}, {"time": 3507, "pitch": 63, "duration": 6, "velocity": 89}, {"time": 3513, "pitch": 58, "duration": 4, "velocity": 86}, {"time": 3525, "pitch": 44, "duration": 41, "velocity": 89}, {"time": 3525, "pitch": 56, "duration": 8, "velocity": 81}, {"time": 3525, "pitch": 63, "duration": 11, "velocity": 84}, {"time": 3531, "pitch": 51, "duration": 33, "velocity": 78}, {"time": 3537, "pitch": 56, "duration": 8, "velocity": 82}, {"time": 3543, "pitch": 63, "duration": 8, "velocity": 90}, {"time": 3549, "pitch": 68, "duration": 12, "velocity": 90}, {"time": 3555, "pitch": 63, "duration": 8, "velocity": 90}, {"time": 3561, "pitch": 56, "duration": 4, "velocity": 88}, {"time": 3573, "pitch": 49, "duration": 42, "velocity": 91}, {"time": 3573, "pitch": 56, "duration": 5, "velocity": 89}, {"time": 3573, "pitch": 61, "duration": 8, "velocity": 87}, {"time": 3579, "pitch": 56, "duration": 9, "velocity": 85}, {"time": 3585, "pitch": 63, "duration": 7, "velocity": 82}, {"time": 3591, "pitch": 65, "duration": 13, "velocity": 88}, {"time": 3603, "pitch": 61, "duration": 8, "velocity": 85}, {"time": 3609, "pitch": 56, "duration": 14, "velocity": 79}, {"time": 3615, "pitch": 61, "duration": 13, "velocity": 82}, {"time": 3621, "pitch": 49, "duration": 37, "velocity": 96}, {"time": 3627, "pitch": 56, "duration": 8, "velocity": 86}, {"time": 3633, "pitch": 61, "duration": 4, "velocity": 93}, {"time": 3639, "pitch": 56, "duration": 9, "velocity": 90}, {"time": 3639, "pitch": 63, "duration": 9, "velocity": 94}, {"time": 3651, "pitch": 56, "duration": 10, "velocity": 91}, {"time": 3651, "pitch": 65, "duration": 11, "velocity": 93}, {"time": 3669, "pitch": 39, "duration": 33, "velocity": 92}, {"time": 3669, "pitch": 58, "duration": 6, "velocity": 88}, {"time": 3669, "pitch": 66, "duration": 13, "velocity": 89}, {"time": 3675, "pitch": 46, "duration": 26, "velocity": 80}, {"time": 3681, "pitch": 58, "duration": 4, "velocity": 90}, {"time": 3687, "pitch": 58, "duration": 12, "velocity": 90}, {"time": 3687, "pitch": 63, "duration": 14, "velocity": 90}, {"time": 3687, "pitch": 66, "duration": 16, "velocity": 90}, {"time": 3705, "pitch": 58, "duration": 5, "velocity": 93}, {"time": 3711, "pitch": 63, "duration": 4, "velocity": 72}, {"time": 3717, "pitch": 44, "duration": 38, "velocity": 89}, {"time": 3717, "pitch": 56, "duration": 7, "velocity": 84}, {"time": 3717, "pitch": 60, "duration": 8, "velocity": 86}, {"time": 3723, "pitch": 51, "duration": 27, "velocity": 83}, {"time": 3729, "pitch": 63, "duration": 3, "velocity": 89}, {"time": 3735, "pitch": 56, "duration": 7, "velocity": 82}, {"time": 3735, "pitch": 68, "duration": 6, "velocity": 91}, {"time": 3747, "pitch": 56, "duration": 4, "velocity": 85}, {"time": 3747, "pitch": 60, "duration": 7, "velocity": 94}, {"time": 3747, "pitch": 63, "duration": 7, "velocity": 91}, {"time": 3753, "pitch": 51, "duration": 3, "velocity": 93}, {"time": 3765, "pitch": 41, "duration": 34, "velocity": 92}, {"time": 3765, "pitch": 60, "duration": 6, "velocity": 92}, {"time": 3765, "pitch": 68, "duration": 13, "velocity": 85}, {"time": 3771, "pitch": 48, "duration": 14, "velocity": 79}, {"time": 3777, "pitch": 60, "duration": 4, "velocity": 86}, {"time": 3783, "pitch": 65, "duration": 9, "velocity": 93}, {"time": 3789, "pitch": 48, "duration": 11, "velocity": 89}, {"time": 3795, "pitch": 60, "duration": 4, "velocity": 77}, {"time": 3795, "pitch": 68, "duration": 7, "velocity": 93}, {"time": 3801, "pitch": 65, "duration": 6, "velocity": 89}, {"time": 3807, "pitch": 60, "duration": 3, "velocity": 83}, {"time": 3813, "pitch": 46, "duration": 35, "velocity": 89}, {"time": 3813, "pitch": 58, "duration": 11, "velocity": 86}, {"time": 3813, "pitch": 61, "duration": 14, "velocity": 88}, {"time": 3819, "pitch": 53, "duration": 15, "velocity": 83}, {"time": 3825, "pitch": 65, "duration": 3, "velocity": 82}, {"time": 3831, "pitch": 58, "duration": 10, "velocity": 84}, {"time": 3831, "pitch": 61, "duration": 10, "velocity": 91}, {"time": 3831, "pitch": 65, "duration": 9, "velocity": 91}, {"time": 3837, "pitch": 53, "duration": 9, "velocity": 91}, {"time": 3843, "pitch": 58, "duration": 5, "velocity": 87}, {"time": 3843, "pitch": 61, "duration": 8, "velocity": 90}, {"time": 3855, "pitch": 58, "duration": 3, "velocity": 84}, {"time": 3861, "pitch": 51, "duration": 30, "velocity": 95}, {"time": 3861, "pitch": 58, "duration": 5, "velocity": 89}, {"time": 3861, "pitch": 66, "duration": 11, "velocity": 90}, {"time": 3867, "pitch": 58, "duration": 8, "velocity": 79}, {"time": 3873, "pitch": 63, "duration": 3, "velocity": 80}, {"time": 3879, "pitch": 58, "duration": 10, "velocity": 89}, {"time": 3879, "pitch": 66, "duration": 12, "velocity": 92}, {"time": 3891, "pitch": 63, "duration": 7, "velocity": 94}, {"time": 3897, "pitch": 58, "duration": 5, "velocity": 89}, {"time": 3909, "pitch": 42, "duration": 37, "velocity": 90}, {"time": 3909, "pitch": 54, "duration": 6, "velocity": 85}, {"time": 3909, "pitch": 61, "duration": 11, "velocity": 87}, {"time": 3915, "pitch": 49, "duration": 26, "velocity": 88}, {"time": 3921, "pitch": 54, "duration": 6, "velocity": 84}, {"time": 3927, "pitch": 54, "duration": 9, "velocity": 84}, {"time": 3927, "pitch": 61, "duration": 9, "velocity": 92}, {"time": 3939, "pitch": 54, "duration": 5, "velocity": 91}, {"time": 3939, "pitch": 58, "duration": 5, "velocity": 92}, {"time": 3939, "pitch": 61, "duration": 6, "velocity": 94}, {"time": 3945, "pitch": 49, "duration": 3, "velocity": 90}, {"time": 3951, "pitch": 56, "duration": 5, "velocity": 84}, {"time": 3957, "pitch": 44, "duration": 44, "velocity": 89}, {"time": 3957, "pitch": 56, "duration": 5, "velocity": 78}, {"time": 3957, "pitch": 63, "duration": 15, "velocity": 89}, {"time": 3963, "pitch": 51, "duration": 39, "velocity": 89}, {"time": 3969, "pitch": 56, "duration": 18, "velocity": 92}, {"time": 3975, "pitch": 68, "duration": 12, "velocity": 90}, {"time": 3987, "pitch": 63, "duration": 8, "velocity": 93}, {"time": 3993, "pitch": 56, "duration": 20, "velocity": 93}, {"time": 3999, "pitch": 63, "duration": 19, "velocity": 89}, {"time": 4005, "pitch": 44, "duration": 20, "velocity": 91}, {"time": 4011, "pitch": 51, "duration": 14, "velocity": 88}, {"time": 4017, "pitch": 56, "duration": 13, "velocity": 92}, {"time": 4023, "pitch": 63, "duration": 9, "velocity": 91}, {"time": 4035, "pitch": 56, "duration": 5, "velocity": 90}, {"time": 4035, "pitch": 63, "duration": 15, "velocity": 92}, {"time": 4035, "pitch": 68, "duration": 8, "velocity": 87}, {"time": 4047, "pitch": 56, "duration": 5, "velocity": 85}, {"time": 4053, "pitch": 44, "duration": 47, "velocity": 89}, {"time": 4053, "pitch": 56, "duration": 22, "velocity": 85}, {"time": 4053, "pitch": 63, "duration": 22, "velocity": 90}, {"time": 4053, "pitch": 68, "duration": 21, "velocity": 89}, {"time": 4077, "pitch": 56, "duration": 9, "velocity": 90}, {"time": 4077, "pitch": 63, "duration": 14, "velocity": 92}, {"time": 4077, "pitch": 68, "duration": 15, "velocity": 90}, {"time": 4083, "pitch": 51, "duration": 17, "velocity": 89}, {"time": 4089, "pitch": 56, "duration": 11, "velocity": 90}, {"time": 4095, "pitch": 63, "duration": 5, "velocity": 83}, {"time": 4101, "pitch": 49, "duration": 44, "velocity": 91}, {"time": 4107, "pitch": 56, "duration": 41, "velocity": 82}, {"time": 4113, "pitch": 63, "duration": 9, "velocity": 83}, {"time": 4119, "pitch": 65, "duration": 32, "velocity": 86}, {"time": 4149, "pitch": 49, "duration": 34, "velocity": 90}, {"time": 4149, "pitch": 68, "duration": 15, "velocity": 85}, {"time": 4155, "pitch": 56, "duration": 27, "velocity": 77}, {"time": 4161, "pitch": 61, "duration": 8, "velocity": 79}, {"time": 4167, "pitch": 63, "duration": 9, "velocity": 84}, {"time": 4179, "pitch": 65, "duration": 2, "velocity": 89}, {"time": 4197, "pitch": 42, "duration": 19, "velocity": 79}, {"time": 4197, "pitch": 61, "duration": 15, "velocity": 81}, {"time": 4197, "pitch": 66, "duration": 17, "velocity": 85}, {"time": 4221, "pitch": 44, "duration": 15, "velocity": 81}, {"time": 4221, "pitch": 63, "duration": 8, "velocity": 80}, {"time": 4221, "pitch": 68, "duration": 14, "velocity": 81}, {"time": 4227, "pitch": 51, "duration": 9, "velocity": 76}, {"time": 4233, "pitch": 63, "duration": 4, "velocity": 86}, {"time": 4245, "pitch": 49, "duration": 32, "velocity": 93}, {"time": 4245, "pitch": 61, "duration": 7, "velocity": 84}, {"time": 4245, "pitch": 65, "duration": 7, "velocity": 90}, {"time": 4251, "pitch": 56, "duration": 15, "velocity": 84}, {"time": 4257, "pitch": 63, "duration": 6, "velocity": 93}, {"time": 4263, "pitch": 65, "duration": 7, "velocity": 96}, {"time": 4269, "pitch": 56, "duration": 8, "velocity": 85}, {"time": 4275, "pitch": 61, "duration": 7, "velocity": 90}, {"time": 4275, "pitch": 65, "duration": 15, "velocity": 98}, {"time": 4275, "pitch": 68, "duration": 16, "velocity": 90}, {"time": 4281, "pitch": 49, "duration": 11, "velocity": 83}, {"time": 4281, "pitch": 56, "duration": 11, "velocity": 95}, {"time": 4287, "pitch": 61, "duration": 5, "velocity": 91}, {"time": 4293, "pitch": 42, "duration": 19, "velocity": 90}, {"time": 4293, "pitch": 58, "duration": 13, "velocity": 78}, {"time": 4305, "pitch": 49, "duration": 8, "velocity": 78}, {"time": 4311, "pitch": 54, "duration": 3, "velocity": 81}, {"time": 4317, "pitch": 44, "duration": 16, "velocity": 89}, {"time": 4317, "pitch": 56, "duration": 15, "velocity": 90}, {"time": 4317, "pitch": 60, "duration": 15, "velocity": 90}, {"time": 4329, "pitch": 51, "duration": 4, "velocity": 78}, {"time": 4341, "pitch": 41, "duration": 17, "velocity": 95}, {"time": 4341, "pitch": 53, "duration": 7, "velocity": 90}, {"time": 4341, "pitch": 56, "duration": 9, "velocity": 89}, {"time": 4347, "pitch": 48, "duration": 10, "velocity": 70}, {"time": 4353, "pitch": 53, "duration": 7, "velocity": 98}, {"time": 4359, "pitch": 56, "duration": 3, "velocity": 82}, {"time": 4359, "pitch": 58, "duration": 2, "velocity": 80}, {"time": 4365, "pitch": 46, "duration": 21, "velocity": 91}, {"time": 4365, "pitch": 58, "duration": 8, "velocity": 84}, {"time": 4365, "pitch": 61, "duration": 8, "velocity": 91}, {"time": 4371, "pitch": 53, "duration": 15, "velocity": 88}, {"time": 4377, "pitch": 58, "duration": 4, "velocity": 89}, {"time": 4377, "pitch": 61, "duration": 6, "velocity": 93}, {"time": 4377, "pitch": 65, "duration": 7, "velocity": 93}, {"time": 4383, "pitch": 58, "duration": 4, "velocity": 84}, {"time": 4389, "pitch": 51, "duration": 15, "velocity": 89}, {"time": 4389, "pitch": 58, "duration": 7, "velocity": 90}, {"time": 4389, "pitch": 63, "duration": 12, "velocity": 90}, {"time": 4401, "pitch": 58, "duration": 9, "velocity": 90}, {"time": 4407, "pitch": 63, "duration": 4, "velocity": 86}, {"time": 4413, "pitch": 39, "duration": 12, "velocity": 96}, {"time": 4413, "pitch": 58, "duration": 7, "velocity": 90}, {"time": 4413, "pitch": 63, "duration": 14, "velocity": 90}, {"time": 4413, "pitch": 67, "duration": 15, "velocity": 92}, {"time": 4425, "pitch": 58, "duration": 9, "velocity": 90}, {"time": 4431, "pitch": 63, "duration": 2, "velocity": 80}, {"time": 4437, "pitch": 44, "duration": 42, "velocity": 90}, {"time": 4437, "pitch": 56, "duration": 8, "velocity": 86}, {"time": 4437, "pitch": 60, "duration": 9, "velocity": 91}, {"time": 4443, "pitch": 51, "duration": 21, "velocity": 84}, {"time": 4449, "pitch": 56, "duration": 5, "velocity": 88}, {"time": 4455, "pitch": 56, "duration": 3, "velocity": 74}, {"time": 4455, "pitch": 63, "duration": 4, "velocity": 88}, {"time": 4461, "pitch": 56, "duration": 8, "velocity": 93}, {"time": 4461, "pitch": 63, "duration": 8, "velocity": 93}, {"time": 4461, "pitch": 68, "duration": 7, "velocity": 91}, {"time": 4467, "pitch": 51, "duration": 10, "velocity": 94}, {"time": 4473, "pitch": 56, "duration": 3, "velocity": 89}, {"time": 4473, "pitch": 66, "duration": 11, "velocity": 91}, {"time": 4479, "pitch": 56, "duration": 4, "velocity": 89}, {"time": 4485, "pitch": 49, "duration": 43, "velocity": 100}, {"time": 4491, "pitch": 56, "duration": 36, "velocity": 62}, {"time": 4497, "pitch": 61, "duration": 11, "velocity": 97}, {"time": 4503, "pitch": 68, "duration": 13, "velocity": 47}, {"time": 4515, "pitch": 65, "duration": 8, "velocity": 102}, {"time": 4521, "pitch": 61, "duration": 8, "velocity": 80}, {"time": 4527, "pitch": 68, "duration": 15, "velocity": 71}, {"time": 4533, "pitch": 49, "duration": 36, "velocity": 92}, {"time": 4539, "pitch": 56, "duration": 15, "velocity": 73}, {"time": 4545, "pitch": 61, "duration": 4, "velocity": 82}, {"time": 4551, "pitch": 63, "duration": 7, "velocity": 87}, {"time": 4557, "pitch": 56, "duration": 10, "velocity": 51}, {"time": 4563, "pitch": 61, "duration": 3, "velocity": 73}, {"time": 4563, "pitch": 65, "duration": 9, "velocity": 105}, {"time": 4569, "pitch": 61, "duration": 10, "velocity": 60}, {"time": 4581, "pitch": 42, "duration": 14, "velocity": 97}, {"time": 4587, "pitch": 49, "duration": 14, "velocity": 97}, {"time": 4593, "pitch": 54, "duration": 6, "velocity": 87}, {"time": 4599, "pitch": 61, "duration": 6, "velocity": 71}, {"time": 4605, "pitch": 44, "duration": 21, "velocity": 94}, {"time": 4605, "pitch": 56, "duration": 7, "velocity": 71}, {"time": 4605, "pitch": 60, "duration": 12, "velocity": 74}, {"time": 4611, "pitch": 51, "duration": 15, "velocity": 78}, {"time": 4617, "pitch": 56, "duration": 7, "velocity": 73}, {"time": 4629, "pitch": 46, "duration": 36, "velocity": 87}, {"time": 4629, "pitch": 58, "duration": 7, "velocity": 78}, {"time": 4629, "pitch": 61, "duration": 12, "velocity": 78}, {"time": 4635, "pitch": 53, "duration": 14, "velocity": 85}, {"time": 4641, "pitch": 58, "duration": 4, "velocity": 84}, {"time": 4647, "pitch": 58, "duration": 6, "velocity": 92}, {"time": 4647, "pitch": 65, "duration": 8, "velocity": 90}, {"time": 4653, "pitch": 53, "duration": 7, "velocity": 55}, {"time": 4659, "pitch": 58, "duration": 4, "velocity": 94}, {"time": 4659, "pitch": 61, "duration": 7, "velocity": 89}, {"time": 4665, "pitch": 58, "duration": 3, "velocity": 87}, {"time": 4677, "pitch": 42, "duration": 12, "velocity": 94}, {"time": 4677, "pitch": 54, "duration": 6, "velocity": 80}, {"time": 4677, "pitch": 61, "duration": 8, "velocity": 78}, {"time": 4683, "pitch": 49, "duration": 9, "velocity": 73}, {"time": 4689, "pitch": 54, "duration": 3, "velocity": 94}, {"time": 4701, "pitch": 44, "duration": 13, "velocity": 100}, {"time": 4701, "pitch": 56, "duration": 7, "velocity": 82}, {"time": 4701, "pitch": 60, "duration": 9, "velocity": 59}, {"time": 4707, "pitch": 51, "duration": 7, "velocity": 60}, {"time": 4713, "pitch": 56, "duration": 6, "velocity": 102}, {"time": 4725, "pitch": 41, "duration": 10, "velocity": 79}, {"time": 4725, "pitch": 56, "duration": 6, "velocity": 80}, {"time": 4725, "pitch": 60, "duration": 13, "velocity": 74}, {"time": 4731, "pitch": 48, "duration": 7, "velocity": 41}, {"time": 4737, "pitch": 56, "duration": 8, "velocity": 100}, {"time": 4743, "pitch": 60, "duration": 6, "velocity": 93}, {"time": 4749, "pitch": 46, "duration": 21, "velocity": 64}, {"time": 4749, "pitch": 58, "duration": 6, "velocity": 71}, {"time": 4749, "pitch": 61, "duration": 8, "velocity": 87}, {"time": 4755, "pitch": 53, "duration": 10, "velocity": 68}, {"time": 4761, "pitch": 58, "duration": 10, "velocity": 89}, {"time": 4767, "pitch": 65, "duration": 5, "velocity": 90}, {"time": 4773, "pitch": 51, "duration": 36, "velocity": 92}, {"time": 4773, "pitch": 58, "duration": 4, "velocity": 76}, {"time": 4773, "pitch": 63, "duration": 7, "velocity": 92}, {"time": 4779, "pitch": 58, "duration": 8, "velocity": 71}, {"time": 4785, "pitch": 63, "duration": 3, "velocity": 64}, {"time": 4791, "pitch": 58, "duration": 5, "velocity": 84}, {"time": 4791, "pitch": 66, "duration": 13, "velocity": 92}, {"time": 4803, "pitch": 63, "duration": 6, "velocity": 89}, {"time": 4809, "pitch": 58, "duration": 6, "velocity": 89}, {"time": 4815, "pitch": 63, "duration": 17, "velocity": 67}, {"time": 4821, "pitch": 44, "duration": 44, "velocity": 102}, {"time": 4827, "pitch": 51, "duration": 15, "velocity": 89}, {"time": 4833, "pitch": 56, "duration": 4, "velocity": 87}, {"time": 4839, "pitch": 56, "duration": 13, "velocity": 89}, {"time": 4839, "pitch": 60, "duration": 16, "velocity": 96}, {"time": 4839, "pitch": 63, "duration": 19, "velocity": 82}, {"time": 4851, "pitch": 51, "duration": 15, "velocity": 60}, {"time": 4857, "pitch": 56, "duration": 9, "velocity": 89}, {"time": 4863, "pitch": 60, "duration": 4, "velocity": 74}, {"time": 4869, "pitch": 49, "duration": 42, "velocity": 71}, {"time": 4869, "pitch": 56, "duration": 4, "velocity": 76}, {"time": 4869, "pitch": 61, "duration": 6, "velocity": 84}, {"time": 4875, "pitch": 56, "duration": 9, "velocity": 52}, {"time": 4881, "pitch": 61, "duration": 7, "velocity": 41}, {"time": 4887, "pitch": 63, "duration": 13, "velocity": 82}, {"time": 4899, "pitch": 61, "duration": 7, "velocity": 78}, {"time": 4905, "pitch": 56, "duration": 13, "velocity": 52}, {"time": 4911, "pitch": 65, "duration": 19, "velocity": 87}, {"time": 4917, "pitch": 49, "duration": 49, "velocity": 94}, {"time": 4923, "pitch": 56, "duration": 9, "velocity": 80}, {"time": 4929, "pitch": 61, "duration": 3, "velocity": 66}, {"time": 4935, "pitch": 63, "duration": 12, "velocity": 84}, {"time": 4947, "pitch": 61, "duration": 9, "velocity": 55}, {"time": 4953, "pitch": 56, "duration": 11, "velocity": 71}, {"time": 4959, "pitch": 65, "duration": 7, "velocity": 82}, {"time": 4965, "pitch": 47, "duration": 46, "velocity": 86}, {"time": 4965, "pitch": 59, "duration": 8, "velocity": 78}, {"time": 4965, "pitch": 63, "duration": 14, "velocity": 85}, {"time": 4971, "pitch": 54, "duration": 40, "velocity": 70}, {"time": 4977, "pitch": 59, "duration": 4, "velocity": 82}, {"time": 4983, "pitch": 59, "duration": 10, "velocity": 80}, {"time": 4983, "pitch": 66, "duration": 10, "velocity": 90}, {"time": 4995, "pitch": 63, "duration": 12, "velocity": 83}, {"time": 5007, "pitch": 59, "duration": 9, "velocity": 76}, {"time": 5013, "pitch": 47, "duration": 37, "velocity": 85}, {"time": 5013, "pitch": 68, "duration": 8, "velocity": 90}, {"time": 5019, "pitch": 54, "duration": 30, "velocity": 83}, {"time": 5025, "pitch": 59, "duration": 3, "velocity": 74}, {"time": 5031, "pitch": 59, "duration": 6, "velocity": 86}, {"time": 5031, "pitch": 66, "duration": 9, "velocity": 89}, {"time": 5043, "pitch": 65, "duration": 7, "velocity": 93}, {"time": 5049, "pitch": 63, "duration": 7, "velocity": 89}, {"time": 5055, "pitch": 61, "duration": 5, "velocity": 90}, {"time": 5061, "pitch": 42, "duration": 45, "velocity": 89}, {"time": 5061, "pitch": 61, "duration": 10, "velocity": 90}, {"time": 5067, "pitch": 49, "duration": 39, "velocity": 74}, {"time": 5073, "pitch": 54, "duration": 4, "velocity": 82}, {"time": 5079, "pitch": 54, "duration": 10, "velocity": 81}, {"time": 5079, "pitch": 61, "duration": 10, "velocity": 85}, {"time": 5091, "pitch": 58, "duration": 6, "velocity": 79}, {"time": 5097, "pitch": 54, "duration": 8, "velocity": 70}, {"time": 5103, "pitch": 61, "duration": 31, "velocity": 84}, {"time": 5109, "pitch": 42, "duration": 39, "velocity": 89}, {"time": 5115, "pitch": 49, "duration": 33, "velocity": 78}, {"time": 5121, "pitch": 54, "duration": 18, "velocity": 81}, {"time": 5127, "pitch": 66, "duration": 32, "velocity": 89}, {"time": 5139, "pitch": 61, "duration": 8, "velocity": 83}, {"time": 5145, "pitch": 54, "duration": 9, "velocity": 81}, {"time": 5151, "pitch": 61, "duration": 6, "velocity": 83}, {"time": 5157, "pitch": 44, "duration": 41, "velocity": 89}, {"time": 5163, "pitch": 51, "duration": 34, "velocity": 83}, {"time": 5169, "pitch": 56, "duration": 13, "velocity": 83}, {"time": 5175, "pitch": 63, "duration": 9, "velocity": 78}, {"time": 5181, "pitch": 68, "duration": 14, "velocity": 86}, {"time": 5187, "pitch": 63, "duration": 8, "velocity": 86}, {"time": 5193, "pitch": 56, "duration": 7, "velocity": 86}, {"time": 5205, "pitch": 44, "duration": 19, "velocity": 77}, {"time": 5205, "pitch": 56, "duration": 82, "velocity": 78}, {"time": 5205, "pitch": 63, "duration": 82, "velocity": 78}, {"time": 5305, "pitch": 37, "duration": 3, "velocity": 86}, {"time": 5316, "pitch": 49, "duration": 71, "velocity": 70}, {"time": 5321, "pitch": 56, "duration": 65, "velocity": 78}, {"time": 5325, "pitch": 61, "duration": 4, "velocity": 82}, {"time": 5328, "pitch": 63, "duration": 3, "velocity": 86}, {"time": 5332, "pitch": 65, "duration": 4, "velocity": 89}, {"time": 5337, "pitch": 68, "duration": 4, "velocity": 81}, {"time": 5341, "pitch": 73, "duration": 4, "velocity": 76}, {"time": 5346, "pitch": 75, "duration": 3, "velocity": 88}, {"time": 5352, "pitch": 77, "duration": 10, "velocity": 79}, {"time": 5360, "pitch": 80, "duration": 4, "velocity": 77}, {"time": 5369, "pitch": 77, "duration": 4, "velocity": 76}, {"time": 5372, "pitch": 80, "duration": 3, "velocity": 45}, {"time": 5373, "pitch": 89, "duration": 4, "velocity": 73}], "annotations": [{"time": 23, "annotation": {"number": 64, "value": 127}, "group": "control_change"}, {"time": 24, "annotation": {"number": 64, "value": 0}, "group": "control_change"}, {"time": 24, "annotation": {"number": 64, "value": 127}, "group": "control_change"}, {"time": 68, "annotation": {"number": 64, "value": 0}, "group": "control_change"}, {"time": 72, "annotation": {"number": 64, "value": 127}, "group": "control_change"}, {"time": 73, "annotation": {"number": 64, "value": 0}, "group": "control_change"}, {"time": 73, "annotation": {"number": 64, "value": 127}, "group": "control_change"}, {"time": 114, "annotation": {"number": 64, "value": 0}, "group": "control_change"}, {"time": 118, "annotation": {"number": 64, "value": 127}, "group": "control_change"}, {"time": 164, "annotation": {"number": 64, "value": 0}, "group": "control_change"}, {"time": 167, "annotation": {"number": 64, "value": 127}, "group": "control_change"}, {"time": 211, "annotation": {"number": 64, "value": 0}, "group": "control_change"}, {"time": 215, "annotation": {"number": 64, "value": 127}, "group": "control_change"}, {"time": 260, "annotation": {"number": 64, "value": 0}, "group": "control_change"}, {"time": 264, "annotation": {"number": 64, "value": 127}, "group": "control_change"}, {"time": 306, "annotation": {"number": 64, "value": 0}, "group": "control_change"}, {"time": 311, "annotation": {"number": 64, "value": 127}, "group": "control_change"}, {"time": 355, "annotation": {"number": 64, "value": 0}, "group": "control_change"}, {"time": 359, "annotation": {"number": 64, "value": 127}, "group": "control_change"}, {"time": 404, "annotation": {"number": 64, "value": 0}, "group": "control_change"}, {"time": 408, "annotation": {"number": 64, "value": 127}, "group": "control_change"}, {"time": 454, "annotation": {"number": 64, "value": 0}, "group": "control_change"}, {"time": 457, "annotation": {"number": 64, "value": 127}, "group": "control_change"}, {"time": 501, "annotation": {"number": 64, "value": 0}, "group": "control_change"}, {"time": 505, "annotation": {"number": 64, "value": 127}, "group": "control_change"}, {"time": 550, "annotation": {"number": 64, "value": 0}, "group": "control_change"}, {"time": 554, "annotation": {"number": 64, "value": 127}, "group": "control_change"}, {"time": 596, "annotation": {"number": 64, "value": 0}, "group": "control_change"}, {"time": 600, "annotation": {"number": 64, "value": 127}, "group": "control_change"}, {"time": 644, "annotation": {"number": 64, "value": 0}, "group": "control_change"}, {"time": 650, "annotation": {"number": 64, "value": 127}, "group": "control_change"}, {"time": 694, "annotation": {"number": 64, "value": 0}, "group": "control_change"}, {"time": 701, "annotation": {"number": 64, "value": 127}, "group": "control_change"}, {"time": 739, "annotation": {"number": 64, "value": 0}, "group": "control_change"}, {"time": 748, "annotation": {"number": 64, "value": 127}, "group": "control_change"}, {"time": 786, "annotation": {"number": 64, "value": 0}, "group": "control_change"}, {"time": 793, "annotation": {"number": 64, "value": 127}, "group": "control_change"}, {"time": 837, "annotation": {"number": 64, "value": 0}, "group": "control_change"}, {"time": 842, "annotation": {"number": 64, "value": 127}, "group": "control_change"}, {"time": 885, "annotation": {"number": 64, "value": 0}, "group": "control_change"}, {"time": 890, "annotation": {"number": 64, "value": 127}, "group": "control_change"}, {"time": 933, "annotation": {"number": 64, "value": 0}, "group": "control_change"}, {"time": 936, "annotation": {"number": 64, "value": 127}, "group": "control_change"}, {"time": 979, "annotation": {"number": 64, "value": 0}, "group": "control_change"}, {"time": 984, "annotation": {"number": 64, "value": 127}, "group": "control_change"}, {"time": 1028, "annotation": {"number": 64, "value": 0}, "group": "control_change"}, {"time": 1033, "annotation": {"number": 64, "value": 127}, "group": "control_change"}, {"time": 1075, "annotation": {"number": 64, "value": 0}, "group": "control_change"}, {"time": 1078, "annotation": {"number": 64, "value": 127}, "group": "control_change"}, {"time": 1100, "annotation": {"number": 64, "value": 0}, "group": "control_change"}, {"time": 1104, "annotation": {"number": 64, "value": 127}, "group": "control_change"}, {"time": 1122, "annotation": {"number": 64, "value": 0}, "group": "control_change"}, {"time": 1126, "annotation": {"number": 64, "value": 127}, "group": "control_change"}, {"time": 1171, "annotation": {"number": 64, "value": 0}, "group": "control_change"}, {"time": 1173, "annotation": {"number": 64, "value": 127}, "group": "control_change"}, {"time": 1221, "annotation": {"number": 64, "value": 0}, "group": "control_change"}, {"time": 1267, "annotation": {"number": 64, "value": 0}, "group": "control_change"}, {"time": 1269, "annotation": {"number": 64, "value": 127}, "group": "control_change"}, {"time": 1316, "annotation": {"number": 64, "value": 0}, "group": "control_change"}, {"time": 1319, "annotation": {"number": 64, "value": 127}, "group": "control_change"}, {"time": 1340, "annotation": {"number": 64, "value": 0}, "group": "control_change"}, {"time": 1342, "annotation": {"number": 64, "value": 127}, "group": "control_change"}, {"time": 1363, "annotation": {"number": 64, "value": 0}, "group": "control_change"}, {"time": 1365, "annotation": {"number": 64, "value": 127}, "group": "control_change"}, {"time": 1413, "annotation": {"number": 64, "value": 0}, "group": "control_change"}, {"time": 1416, "annotation": {"number": 64, "value": 127}, "group": "control_change"}, {"time": 1436, "annotation": {"number": 64, "value": 0}, "group": "control_change"}, {"time": 1439, "annotation": {"number": 64, "value": 127}, "group": "control_change"}, {"time": 1459, "annotation": {"number": 64, "value": 0}, "group": "control_change"}, {"time": 1462, "annotation": {"number": 64, "value": 127}, "group": "control_change"}, {"time": 1483, "annotation": {"number": 64, "value": 0}, "group": "control_change"}, {"time": 1487, "annotation": {"number": 64, "value": 127}, "group": "control_change"}, {"time": 1507, "annotation": {"number": 64, "value": 0}, "group": "control_change"}, {"time": 1511, "annotation": {"number": 64, "value": 127}, "group": "control_change"}, {"time": 1531, "annotation": {"number": 64, "value": 0}, "group": "control_change"}, {"time": 1534, "annotation": {"number": 64, "value": 127}, "group": "control_change"}, {"time": 1556, "annotation": {"number": 64, "value": 0}, "group": "control_change"}, {"time": 1559, "annotation": {"number": 64, "value": 127}, "group": "control_change"}, {"time": 1602, "annotation": {"number": 64, "value": 0}, "group": "control_change"}, {"time": 1609, "annotation": {"number": 64, "value": 127}, "group": "control_change"}, {"time": 1652, "annotation": {"number": 64, "value": 0}, "group": "control_change"}, {"time": 1656, "annotation": {"number": 64, "value": 127}, "group": "control_change"}, {"time": 1699, "annotation": {"number": 64, "value": 0}, "group": "control_change"}, {"time": 1703, "annotation": {"number": 64, "value": 127}, "group": "control_change"}, {"time": 1723, "annotation": {"number": 64, "value": 0}, "group": "control_change"}, {"time": 1727, "annotation": {"number": 64, "value": 127}, "group": "control_change"}, {"time": 1746, "annotation": {"number": 64, "value": 0}, "group": "control_change"}, {"time": 1753, "annotation": {"number": 64, "value": 127}, "group": "control_change"}, {"time": 1796, "annotation": {"number": 64, "value": 0}, "group": "control_change"}, {"time": 1801, "annotation": {"number": 64, "value": 127}, "group": "control_change"}, {"time": 1818, "annotation": {"number": 64, "value": 0}, "group": "control_change"}, {"time": 1822, "annotation": {"number": 64, "value": 127}, "group": "control_change"}, {"time": 1842, "annotation": {"number": 64, "value": 0}, "group": "control_change"}, {"time": 1846, "annotation": {"number": 64, "value": 127}, "group": "control_change"}, {"time": 1868, "annotation": {"number": 64, "value": 0}, "group": "control_change"}, {"time": 1872, "annotation": {"number": 64, "value": 127}, "group": "control_change"}, {"time": 1892, "annotation": {"number": 64, "value": 0}, "group": "control_change"}, {"time": 1895, "annotation": {"number": 64, "value": 127}, "group": "control_change"}, {"time": 1941, "annotation": {"number": 64, "value": 0}, "group": "control_change"}, {"time": 1945, "annotation": {"number": 64, "value": 127}, "group": "control_change"}, {"time": 1986, "annotation": {"number": 64, "value": 0}, "group": "control_change"}, {"time": 1991, "annotation": {"number": 64, "value": 127}, "group": "control_change"}, {"time": 2035, "annotation": {"number": 64, "value": 0}, "group": "control_change"}, {"time": 2039, "annotation": {"number": 64, "value": 127}, "group": "control_change"}, {"time": 2088, "annotation": {"number": 64, "value": 0}, "group": "control_change"}, {"time": 2093, "annotation": {"number": 64, "value": 127}, "group": "control_change"}, {"time": 2131, "annotation": {"number": 64, "value": 0}, "group": "control_change"}, {"time": 2136, "annotation": {"number": 64, "value": 127}, "group": "control_change"}, {"time": 2178, "annotation": {"number": 64, "value": 0}, "group": "control_change"}, {"time": 2182, "annotation": {"number": 64, "value": 127}, "group": "control_change"}, {"time": 2227, "annotation": {"number": 64, "value": 0}, "group": "control_change"}, {"time": 2231, "annotation": {"number": 64, "value": 127}, "group": "control_change"}, {"time": 2275, "annotation": {"number": 64, "value": 0}, "group": "control_change"}, {"time": 2279, "annotation": {"number": 64, "value": 127}, "group": "control_change"}, {"time": 2323, "annotation": {"number": 64, "value": 0}, "group": "control_change"}, {"time": 2325, "annotation": {"number": 64, "value": 127}, "group": "control_change"}, {"time": 2364, "annotation": {"number": 64, "value": 0}, "group": "control_change"}, {"time": 2377, "annotation": {"number": 64, "value": 127}, "group": "control_change"}, {"time": 2421, "annotation": {"number": 64, "value": 0}, "group": "control_change"}, {"time": 2426, "annotation": {"number": 64, "value": 127}, "group": "control_change"}, {"time": 2469, "annotation": {"number": 64, "value": 0}, "group": "control_change"}, {"time": 2474, "annotation": {"number": 64, "value": 127}, "group": "control_change"}, {"time": 2517, "annotation": {"number": 64, "value": 0}, "group": "control_change"}, {"time": 2520, "annotation": {"number": 64, "value": 127}, "group": "control_change"}, {"time": 2563, "annotation": {"number": 64, "value": 0}, "group": "control_change"}, {"time": 2568, "annotation": {"number": 64, "value": 127}, "group": "control_change"}, {"time": 2612, "annotation": {"number": 64, "value": 0}, "group": "control_change"}, {"time": 2617, "annotation": {"number": 64, "value": 127}, "group": "control_change"}, {"time": 2659, "annotation": {"number": 64, "value": 0}, "group": "control_change"}, {"time": 2662, "annotation": {"number": 64, "value": 127}, "group": "control_change"}, {"time": 2684, "annotation": {"number": 64, "value": 0}, "group": "control_change"}, {"time": 2688, "annotation": {"number": 64, "value": 127}, "group": "control_change"}, {"time": 2706, "annotation": {"number": 64, "value": 0}, "group": "control_change"}, {"time": 2710, "annotation": {"number": 64, "value": 127}, "group": "control_change"}, {"time": 2755, "annotation": {"number": 64, "value": 0}, "group": "control_change"}, {"time": 2757, "annotation": {"number": 64, "value": 127}, "group": "control_change"}, {"time": 2805, "annotation": {"number": 64, "value": 0}, "group": "control_change"}, {"time": 2851, "annotation": {"number": 64, "value": 0}, "group": "control_change"}, {"time": 2853, "annotation": {"number": 64, "value": 127}, "group": "control_change"}, {"time": 2900, "annotation": {"number": 64, "value": 0}, "group": "control_change"}, {"time": 2903, "annotation": {"number": 64, "value": 127}, "group": "control_change"}, {"time": 2924, "annotation": {"number": 64, "value": 0}, "group": "control_change"}, {"time": 2926, "annotation": {"number": 64, "value": 127}, "group": "control_change"}, {"time": 2947, "annotation": {"number": 64, "value": 0}, "group": "control_change"}, {"time": 2949, "annotation": {"number": 64, "value": 127}, "group": "control_change"}, {"time": 2997, "annotation": {"number": 64, "value": 0}, "group": "control_change"}, {"time": 3000, "annotation": {"number": 64, "value": 127}, "group": "control_change"}, {"time": 3020, "annotation": {"number": 64, "value": 0}, "group": "control_change"}, {"time": 3023, "annotation": {"number": 64, "value": 127}, "group": "control_change"}, {"time": 3043, "annotation": {"number": 64, "value": 0}, "group": "control_change"}, {"time": 3046, "annotation": {"number": 64, "value": 127}, "group": "control_change"}, {"time": 3067, "annotation": {"number": 64, "value": 0}, "group": "control_change"}, {"time": 3071, "annotation": {"number": 64, "value": 127}, "group": "control_change"}, {"time": 3091, "annotation": {"number": 64, "value": 0}, "group": "control_change"}, {"time": 3095, "annotation": {"number": 64, "value": 127}, "group": "control_change"}, {"time": 3115, "annotation": {"number": 64, "value": 0}, "group": "control_change"}, {"time": 3118, "annotation": {"number": 64, "value": 127}, "group": "control_change"}, {"time": 3140, "annotation": {"number": 64, "value": 0}, "group": "control_change"}, {"time": 3143, "annotation": {"number": 64, "value": 127}, "group": "control_change"}, {"time": 3186, "annotation": {"number": 64, "value": 0}, "group": "control_change"}, {"time": 3193, "annotation": {"number": 64, "value": 127}, "group": "control_change"}, {"time": 3236, "annotation": {"number": 64, "value": 0}, "group": "control_change"}, {"time": 3240, "annotation": {"number": 64, "value": 127}, "group": "control_change"}, {"time": 3283, "annotation": {"number": 64, "value": 0}, "group": "control_change"}, {"time": 3287, "annotation": {"number": 64, "value": 127}, "group": "control_change"}, {"time": 3307, "annotation": {"number": 64, "value": 0}, "group": "control_change"}, {"time": 3311, "annotation": {"number": 64, "value": 127}, "group": "control_change"}, {"time": 3330, "annotation": {"number": 64, "value": 0}, "group": "control_change"}, {"time": 3337, "annotation": {"number": 64, "value": 127}, "group": "control_change"}, {"time": 3380, "annotation": {"number": 64, "value": 0}, "group": "control_change"}, {"time": 3385, "annotation": {"number": 64, "value": 127}, "group": "control_change"}, {"time": 3402, "annotation": {"number": 64, "value": 0}, "group": "control_change"}, {"time": 3406, "annotation": {"number": 64, "value": 127}, "group": "control_change"}, {"time": 3426, "annotation": {"number": 64, "value": 0}, "group": "control_change"}, {"time": 3430, "annotation": {"number": 64, "value": 127}, "group": "control_change"}, {"time": 3452, "annotation": {"number": 64, "value": 0}, "group": "control_change"}, {"time": 3456, "annotation": {"number": 64, "value": 127}, "group": "control_change"}, {"time": 3476, "annotation": {"number": 64, "value": 0}, "group": "control_change"}, {"time": 3479, "annotation": {"number": 64, "value": 127}, "group": "control_change"}, {"time": 3525, "annotation": {"number": 64, "value": 0}, "group": "control_change"}, {"time": 3529, "annotation": {"number": 64, "value": 127}, "group": "control_change"}, {"time": 3570, "annotation": {"number": 64, "value": 0}, "group": "control_change"}, {"time": 3575, "annotation": {"number": 64, "value": 127}, "group": "control_change"}, {"time": 3619, "annotation": {"number": 64, "value": 0}, "group": "control_change"}, {"time": 3623, "annotation": {"number": 64, "value": 127}, "group": "control_change"}, {"time": 3714, "annotation": {"number": 64, "value": 0}, "group": "control_change"}, {"time": 3718, "annotation": {"number": 64, "value": 127}, "group": "control_change"}, {"time": 3764, "annotation": {"number": 64, "value": 0}, "group": "control_change"}, {"time": 3767, "annotation": {"number": 64, "value": 127}, "group": "control_change"}, {"time": 3813, "annotation": {"number": 64, "value": 0}, "group": "control_change"}, {"time": 3817, "annotation": {"number": 64, "value": 127}, "group": "control_change"}, {"time": 3859, "annotation": {"number": 64, "value": 0}, "group": "control_change"}, {"time": 3862, "annotation": {"number": 64, "value": 127}, "group": "control_change"}, {"time": 3908, "annotation": {"number": 64, "value": 0}, "group": "control_change"}, {"time": 3913, "annotation": {"number": 64, "value": 127}, "group": "control_change"}, {"time": 3956, "annotation": {"number": 64, "value": 0}, "group": "control_change"}, {"time": 3959, "annotation": {"number": 64, "value": 127}, "group": "control_change"}, {"time": 4003, "annotation": {"number": 64, "value": 0}, "group": "control_change"}, {"time": 4006, "annotation": {"number": 64, "value": 127}, "group": "control_change"}, {"time": 4052, "annotation": {"number": 64, "value": 0}, "group": "control_change"}, {"time": 4055, "annotation": {"number": 64, "value": 127}, "group": "control_change"}, {"time": 4094, "annotation": {"number": 64, "value": 0}, "group": "control_change"}, {"time": 4124, "annotation": {"number": 64, "value": 127}, "group": "control_change"}, {"time": 4148, "annotation": {"number": 64, "value": 0}, "group": "control_change"}, {"time": 4152, "annotation": {"number": 64, "value": 127}, "group": "control_change"}, {"time": 4195, "annotation": {"number": 64, "value": 0}, "group": "control_change"}, {"time": 4198, "annotation": {"number": 64, "value": 127}, "group": "control_change"}, {"time": 4221, "annotation": {"number": 64, "value": 0}, "group": "control_change"}, {"time": 4225, "annotation": {"number": 64, "value": 127}, "group": "control_change"}, {"time": 4245, "annotation": {"number": 64, "value": 0}, "group": "control_change"}, {"time": 4247, "annotation": {"number": 64, "value": 127}, "group": "control_change"}, {"time": 4287, "annotation": {"number": 64, "value": 0}, "group": "control_change"}, {"time": 4296, "annotation": {"number": 64, "value": 127}, "group": "control_change"}, {"time": 4316, "annotation": {"number": 64, "value": 0}, "group": "control_change"}, {"time": 4319, "annotation": {"number": 64, "value": 127}, "group": "control_change"}, {"time": 4339, "annotation": {"number": 64, "value": 0}, "group": "control_change"}, {"time": 4342, "annotation": {"number": 64, "value": 127}, "group": "control_change"}, {"time": 4363, "annotation": {"number": 64, "value": 0}, "group": "control_change"}, {"time": 4367, "annotation": {"number": 64, "value": 127}, "group": "control_change"}, {"time": 4387, "annotation": {"number": 64, "value": 0}, "group": "control_change"}, {"time": 4391, "annotation": {"number": 64, "value": 127}, "group": "control_change"}, {"time": 4411, "annotation": {"number": 64, "value": 0}, "group": "control_change"}, {"time": 4414, "annotation": {"number": 64, "value": 127}, "group": "control_change"}, {"time": 4436, "annotation": {"number": 64, "value": 0}, "group": "control_change"}, {"time": 4439, "annotation": {"number": 64, "value": 127}, "group": "control_change"}, {"time": 4482, "annotation": {"number": 64, "value": 0}, "group": "control_change"}, {"time": 4487, "annotation": {"number": 64, "value": 127}, "group": "control_change"}, {"time": 4531, "annotation": {"number": 64, "value": 0}, "group": "control_change"}, {"time": 4535, "annotation": {"number": 64, "value": 127}, "group": "control_change"}, {"time": 4579, "annotation": {"number": 64, "value": 0}, "group": "control_change"}, {"time": 4582, "annotation": {"number": 64, "value": 127}, "group": "control_change"}, {"time": 4602, "annotation": {"number": 64, "value": 0}, "group": "control_change"}, {"time": 4605, "annotation": {"number": 64, "value": 127}, "group": "control_change"}, {"time": 4628, "annotation": {"number": 64, "value": 0}, "group": "control_change"}, {"time": 4631, "annotation": {"number": 64, "value": 127}, "group": "control_change"}, {"time": 4677, "annotation": {"number": 64, "value": 0}, "group": "control_change"}, {"time": 4680, "annotation": {"number": 64, "value": 127}, "group": "control_change"}, {"time": 4700, "annotation": {"number": 64, "value": 0}, "group": "control_change"}, {"time": 4703, "annotation": {"number": 64, "value": 127}, "group": "control_change"}, {"time": 4723, "annotation": {"number": 64, "value": 0}, "group": "control_change"}, {"time": 4726, "annotation": {"number": 64, "value": 127}, "group": "control_change"}, {"time": 4747, "annotation": {"number": 64, "value": 0}, "group": "control_change"}, {"time": 4751, "annotation": {"number": 64, "value": 127}, "group": "control_change"}, {"time": 4771, "annotation": {"number": 64, "value": 0}, "group": "control_change"}, {"time": 4774, "annotation": {"number": 64, "value": 127}, "group": "control_change"}, {"time": 4819, "annotation": {"number": 64, "value": 0}, "group": "control_change"}, {"time": 4823, "annotation": {"number": 64, "value": 127}, "group": "control_change"}, {"time": 4867, "annotation": {"number": 64, "value": 0}, "group": "control_change"}, {"time": 4870, "annotation": {"number": 64, "value": 127}, "group": "control_change"}, {"time": 4913, "annotation": {"number": 64, "value": 0}, "group": "control_change"}, {"time": 4916, "annotation": {"number": 64, "value": 127}, "group": "control_change"}, {"time": 4959, "annotation": {"number": 64, "value": 0}, "group": "control_change"}, {"time": 4967, "annotation": {"number": 64, "value": 127}, "group": "control_change"}, {"time": 5011, "annotation": {"number": 64, "value": 0}, "group": "control_change"}, {"time": 5014, "annotation": {"number": 64, "value": 127}, "group": "control_change"}, {"time": 5059, "annotation": {"number": 64, "value": 0}, "group": "control_change"}, {"time": 5063, "annotation": {"number": 64, "value": 127}, "group": "control_change"}, {"time": 5106, "annotation": {"number": 64, "value": 0}, "group": "control_change"}, {"time": 5110, "annotation": {"number": 64, "value": 127}, "group": "control_change"}, {"time": 5153, "annotation": {"number": 64, "value": 0}, "group": "control_change"}, {"time": 5157, "annotation": {"number": 64, "value": 127}, "group": "control_change"}, {"time": 5300, "annotation": {"number": 64, "value": 0}, "group": "control_change"}, {"time": 5302, "annotation": {"number": 64, "value": 127}, "group": "control_change"}, {"time": 5426, "annotation": {"number": 64, "value": 0}, "group": "control_change"}]}]}