{"metadata": {"schema_version": "0.2", "title": "None", "source_filename": "665.mid", "source_format": "midi"}, "resolution": 12, "tempos": [{"time": 0, "qpm": 64.0}], "time_signatures": [{"time": 0, "numerator": 1, "denominator": 4}], "tracks": [{"program": 4, "is_drum": false, "name": "MELODY", "notes": [{"time": 12, "pitch": 66, "duration": 8, "velocity": 87}, {"time": 21, "pitch": 66, "duration": 4, "velocity": 91}, {"time": 25, "pitch": 68, "duration": 4, "velocity": 93}, {"time": 30, "pitch": 70, "duration": 7, "velocity": 91}, {"time": 37, "pitch": 75, "duration": 8, "velocity": 93}, {"time": 45, "pitch": 73, "duration": 21, "velocity": 94}, {"time": 60, "pitch": 54, "duration": 9, "velocity": 92}, {"time": 71, "pitch": 54, "duration": 3, "velocity": 86}, {"time": 75, "pitch": 56, "duration": 2, "velocity": 87}, {"time": 78, "pitch": 58, "duration": 6, "velocity": 92}, {"time": 86, "pitch": 63, "duration": 6, "velocity": 96}, {"time": 94, "pitch": 61, "duration": 46, "velocity": 87}, {"time": 156, "pitch": 66, "duration": 7, "velocity": 96}, {"time": 156, "pitch": 82, "duration": 7, "velocity": 96}, {"time": 165, "pitch": 66, "duration": 2, "velocity": 95}, {"time": 165, "pitch": 82, "duration": 2, "velocity": 95}, {"time": 169, "pitch": 68, "duration": 2, "velocity": 94}, {"time": 169, "pitch": 80, "duration": 2, "velocity": 94}, {"time": 172, "pitch": 70, "duration": 5, "velocity": 94}, {"time": 173, "pitch": 78, "duration": 4, "velocity": 94}, {"time": 180, "pitch": 75, "duration": 38, "velocity": 94}, {"time": 180, "pitch": 80, "duration": 38, "velocity": 94}, {"time": 225, "pitch": 70, "duration": 35, "velocity": 93}, {"time": 225, "pitch": 73, "duration": 35, "velocity": 97}, {"time": 405, "pitch": 70, "duration": 3, "velocity": 94}, {"time": 408, "pitch": 68, "duration": 2, "velocity": 93}, {"time": 411, "pitch": 66, "duration": 3, "velocity": 95}, {"time": 414, "pitch": 63, "duration": 3, "velocity": 97}, {"time": 417, "pitch": 66, "duration": 4, "velocity": 95}, {"time": 423, "pitch": 66, "duration": 2, "velocity": 96}, {"time": 426, "pitch": 63, "duration": 3, "velocity": 99}, {"time": 429, "pitch": 66, "duration": 4, "velocity": 96}, {"time": 435, "pitch": 70, "duration": 4, "velocity": 93}, {"time": 441, "pitch": 70, "duration": 8, "velocity": 96}, {"time": 453, "pitch": 70, "duration": 3, "velocity": 95}, {"time": 456, "pitch": 68, "duration": 3, "velocity": 92}, {"time": 459, "pitch": 66, "duration": 2, "velocity": 93}, {"time": 462, "pitch": 63, "duration": 3, "velocity": 97}, {"time": 465, "pitch": 66, "duration": 4, "velocity": 95}, {"time": 471, "pitch": 66, "duration": 2, "velocity": 95}, {"time": 474, "pitch": 63, "duration": 3, "velocity": 98}, {"time": 477, "pitch": 66, "duration": 3, "velocity": 94}, {"time": 483, "pitch": 66, "duration": 3, "velocity": 96}, {"time": 489, "pitch": 66, "duration": 8, "velocity": 93}, {"time": 501, "pitch": 70, "duration": 2, "velocity": 94}, {"time": 504, "pitch": 68, "duration": 2, "velocity": 94}, {"time": 507, "pitch": 66, "duration": 2, "velocity": 97}, {"time": 510, "pitch": 63, "duration": 3, "velocity": 95}, {"time": 513, "pitch": 66, "duration": 4, "velocity": 97}, {"time": 519, "pitch": 66, "duration": 2, "velocity": 93}, {"time": 522, "pitch": 68, "duration": 2, "velocity": 96}, {"time": 525, "pitch": 70, "duration": 4, "velocity": 97}, {"time": 531, "pitch": 71, "duration": 2, "velocity": 95}, {"time": 534, "pitch": 70, "duration": 8, "velocity": 93}, {"time": 543, "pitch": 66, "duration": 1, "velocity": 92}, {"time": 546, "pitch": 66, "duration": 6, "velocity": 90}, {"time": 561, "pitch": 63, "duration": 5, "velocity": 98}, {"time": 567, "pitch": 66, "duration": 2, "velocity": 92}, {"time": 570, "pitch": 66, "duration": 7, "velocity": 91}, {"time": 579, "pitch": 68, "duration": 2, "velocity": 93}, {"time": 582, "pitch": 68, "duration": 12, "velocity": 93}, {"time": 597, "pitch": 70, "duration": 3, "velocity": 94}, {"time": 600, "pitch": 68, "duration": 2, "velocity": 93}, {"time": 603, "pitch": 66, "duration": 3, "velocity": 95}, {"time": 606, "pitch": 63, "duration": 3, "velocity": 97}, {"time": 609, "pitch": 66, "duration": 4, "velocity": 95}, {"time": 615, "pitch": 66, "duration": 2, "velocity": 96}, {"time": 618, "pitch": 63, "duration": 3, "velocity": 99}, {"time": 621, "pitch": 66, "duration": 4, "velocity": 96}, {"time": 627, "pitch": 70, "duration": 4, "velocity": 93}, {"time": 633, "pitch": 70, "duration": 8, "velocity": 96}, {"time": 645, "pitch": 70, "duration": 3, "velocity": 95}, {"time": 648, "pitch": 68, "duration": 3, "velocity": 92}, {"time": 651, "pitch": 66, "duration": 2, "velocity": 93}, {"time": 654, "pitch": 63, "duration": 3, "velocity": 97}, {"time": 657, "pitch": 66, "duration": 4, "velocity": 95}, {"time": 663, "pitch": 66, "duration": 2, "velocity": 95}, {"time": 666, "pitch": 68, "duration": 3, "velocity": 98}, {"time": 669, "pitch": 70, "duration": 6, "velocity": 94}, {"time": 675, "pitch": 68, "duration": 3, "velocity": 96}, {"time": 678, "pitch": 66, "duration": 11, "velocity": 93}, {"time": 690, "pitch": 66, "duration": 2, "velocity": 93}, {"time": 693, "pitch": 66, "duration": 2, "velocity": 94}, {"time": 696, "pitch": 68, "duration": 2, "velocity": 94}, {"time": 699, "pitch": 70, "duration": 2, "velocity": 97}, {"time": 702, "pitch": 71, "duration": 3, "velocity": 95}, {"time": 705, "pitch": 73, "duration": 4, "velocity": 97}, {"time": 711, "pitch": 71, "duration": 2, "velocity": 93}, {"time": 714, "pitch": 70, "duration": 6, "velocity": 96}, {"time": 720, "pitch": 71, "duration": 5, "velocity": 95}, {"time": 726, "pitch": 73, "duration": 6, "velocity": 93}, {"time": 732, "pitch": 71, "duration": 6, "velocity": 92}, {"time": 738, "pitch": 70, "duration": 12, "velocity": 90}, {"time": 750, "pitch": 61, "duration": 3, "velocity": 98}, {"time": 753, "pitch": 63, "duration": 5, "velocity": 98}, {"time": 759, "pitch": 66, "duration": 2, "velocity": 92}, {"time": 762, "pitch": 66, "duration": 7, "velocity": 91}, {"time": 771, "pitch": 68, "duration": 2, "velocity": 93}, {"time": 774, "pitch": 68, "duration": 12, "velocity": 93}, {"time": 789, "pitch": 61, "duration": 3, "velocity": 101}, {"time": 792, "pitch": 63, "duration": 2, "velocity": 94}, {"time": 795, "pitch": 66, "duration": 2, "velocity": 95}, {"time": 798, "pitch": 63, "duration": 3, "velocity": 96}, {"time": 801, "pitch": 66, "duration": 4, "velocity": 92}, {"time": 807, "pitch": 66, "duration": 2, "velocity": 96}, {"time": 810, "pitch": 68, "duration": 2, "velocity": 94}, {"time": 813, "pitch": 70, "duration": 4, "velocity": 98}, {"time": 819, "pitch": 75, "duration": 5, "velocity": 98}, {"time": 825, "pitch": 73, "duration": 8, "velocity": 106}, {"time": 834, "pitch": 73, "duration": 2, "velocity": 94}, {"time": 837, "pitch": 73, "duration": 2, "velocity": 103}, {"time": 840, "pitch": 70, "duration": 2, "velocity": 93}, {"time": 843, "pitch": 68, "duration": 1, "velocity": 94}, {"time": 846, "pitch": 66, "duration": 2, "velocity": 92}, {"time": 849, "pitch": 68, "duration": 4, "velocity": 92}, {"time": 855, "pitch": 68, "duration": 2, "velocity": 94}, {"time": 858, "pitch": 70, "duration": 2, "velocity": 93}, {"time": 861, "pitch": 68, "duration": 4, "velocity": 92}, {"time": 867, "pitch": 66, "duration": 4, "velocity": 94}, {"time": 873, "pitch": 61, "duration": 9, "velocity": 94}, {"time": 885, "pitch": 61, "duration": 2, "velocity": 94}, {"time": 888, "pitch": 63, "duration": 2, "velocity": 98}, {"time": 891, "pitch": 66, "duration": 2, "velocity": 93}, {"time": 894, "pitch": 63, "duration": 2, "velocity": 94}, {"time": 897, "pitch": 66, "duration": 4, "velocity": 93}, {"time": 903, "pitch": 66, "duration": 2, "velocity": 92}, {"time": 906, "pitch": 68, "duration": 2, "velocity": 93}, {"time": 909, "pitch": 70, "duration": 4, "velocity": 92}, {"time": 915, "pitch": 75, "duration": 5, "velocity": 99}, {"time": 921, "pitch": 73, "duration": 8, "velocity": 96}, {"time": 930, "pitch": 73, "duration": 2, "velocity": 94}, {"time": 933, "pitch": 73, "duration": 1, "velocity": 99}, {"time": 936, "pitch": 70, "duration": 2, "velocity": 93}, {"time": 939, "pitch": 68, "duration": 1, "velocity": 94}, {"time": 942, "pitch": 66, "duration": 2, "velocity": 94}, {"time": 945, "pitch": 68, "duration": 4, "velocity": 94}, {"time": 951, "pitch": 68, "duration": 1, "velocity": 93}, {"time": 954, "pitch": 70, "duration": 2, "velocity": 93}, {"time": 957, "pitch": 68, "duration": 5, "velocity": 98}, {"time": 963, "pitch": 66, "duration": 5, "velocity": 93}, {"time": 969, "pitch": 68, "duration": 9, "velocity": 93}, {"time": 981, "pitch": 61, "duration": 3, "velocity": 101}, {"time": 984, "pitch": 63, "duration": 2, "velocity": 94}, {"time": 987, "pitch": 66, "duration": 2, "velocity": 95}, {"time": 990, "pitch": 63, "duration": 3, "velocity": 96}, {"time": 993, "pitch": 66, "duration": 4, "velocity": 92}, {"time": 999, "pitch": 66, "duration": 2, "velocity": 96}, {"time": 1002, "pitch": 68, "duration": 2, "velocity": 94}, {"time": 1005, "pitch": 70, "duration": 4, "velocity": 98}, {"time": 1011, "pitch": 75, "duration": 5, "velocity": 98}, {"time": 1017, "pitch": 73, "duration": 8, "velocity": 106}, {"time": 1026, "pitch": 73, "duration": 2, "velocity": 94}, {"time": 1029, "pitch": 73, "duration": 2, "velocity": 103}, {"time": 1032, "pitch": 70, "duration": 2, "velocity": 93}, {"time": 1035, "pitch": 68, "duration": 1, "velocity": 94}, {"time": 1038, "pitch": 66, "duration": 2, "velocity": 92}, {"time": 1041, "pitch": 68, "duration": 4, "velocity": 92}, {"time": 1047, "pitch": 68, "duration": 2, "velocity": 94}, {"time": 1050, "pitch": 70, "duration": 2, "velocity": 93}, {"time": 1053, "pitch": 68, "duration": 4, "velocity": 92}, {"time": 1059, "pitch": 66, "duration": 4, "velocity": 94}, {"time": 1065, "pitch": 61, "duration": 9, "velocity": 94}, {"time": 1077, "pitch": 61, "duration": 2, "velocity": 94}, {"time": 1080, "pitch": 63, "duration": 2, "velocity": 98}, {"time": 1083, "pitch": 66, "duration": 2, "velocity": 93}, {"time": 1086, "pitch": 63, "duration": 2, "velocity": 94}, {"time": 1089, "pitch": 66, "duration": 4, "velocity": 93}, {"time": 1095, "pitch": 66, "duration": 2, "velocity": 92}, {"time": 1098, "pitch": 68, "duration": 2, "velocity": 93}, {"time": 1101, "pitch": 70, "duration": 4, "velocity": 92}, {"time": 1107, "pitch": 75, "duration": 5, "velocity": 99}, {"time": 1113, "pitch": 73, "duration": 8, "velocity": 96}, {"time": 1122, "pitch": 73, "duration": 2, "velocity": 94}, {"time": 1125, "pitch": 73, "duration": 1, "velocity": 99}, {"time": 1128, "pitch": 70, "duration": 2, "velocity": 93}, {"time": 1131, "pitch": 68, "duration": 1, "velocity": 94}, {"time": 1134, "pitch": 66, "duration": 2, "velocity": 94}, {"time": 1137, "pitch": 68, "duration": 4, "velocity": 94}, {"time": 1143, "pitch": 68, "duration": 1, "velocity": 93}, {"time": 1146, "pitch": 70, "duration": 2, "velocity": 93}, {"time": 1149, "pitch": 71, "duration": 5, "velocity": 94}, {"time": 1155, "pitch": 70, "duration": 6, "velocity": 96}, {"time": 1161, "pitch": 68, "duration": 5, "velocity": 89}, {"time": 1167, "pitch": 70, "duration": 4, "velocity": 96}, {"time": 1173, "pitch": 68, "duration": 5, "velocity": 94}, {"time": 1179, "pitch": 66, "duration": 2, "velocity": 94}, {"time": 1182, "pitch": 68, "duration": 9, "velocity": 94}, {"time": 1191, "pitch": 66, "duration": 23, "velocity": 88}, {"time": 1413, "pitch": 70, "duration": 3, "velocity": 94}, {"time": 1416, "pitch": 68, "duration": 2, "velocity": 93}, {"time": 1419, "pitch": 66, "duration": 3, "velocity": 95}, {"time": 1422, "pitch": 63, "duration": 3, "velocity": 97}, {"time": 1425, "pitch": 66, "duration": 4, "velocity": 95}, {"time": 1431, "pitch": 66, "duration": 2, "velocity": 96}, {"time": 1434, "pitch": 63, "duration": 3, "velocity": 99}, {"time": 1437, "pitch": 66, "duration": 4, "velocity": 96}, {"time": 1443, "pitch": 70, "duration": 4, "velocity": 93}, {"time": 1449, "pitch": 70, "duration": 8, "velocity": 96}, {"time": 1461, "pitch": 70, "duration": 3, "velocity": 95}, {"time": 1464, "pitch": 68, "duration": 3, "velocity": 92}, {"time": 1467, "pitch": 66, "duration": 2, "velocity": 93}, {"time": 1470, "pitch": 63, "duration": 3, "velocity": 97}, {"time": 1473, "pitch": 66, "duration": 4, "velocity": 95}, {"time": 1479, "pitch": 66, "duration": 2, "velocity": 95}, {"time": 1482, "pitch": 68, "duration": 3, "velocity": 98}, {"time": 1485, "pitch": 70, "duration": 6, "velocity": 94}, {"time": 1491, "pitch": 68, "duration": 3, "velocity": 96}, {"time": 1494, "pitch": 66, "duration": 11, "velocity": 93}, {"time": 1506, "pitch": 66, "duration": 2, "velocity": 93}, {"time": 1509, "pitch": 66, "duration": 2, "velocity": 94}, {"time": 1512, "pitch": 68, "duration": 2, "velocity": 94}, {"time": 1515, "pitch": 70, "duration": 2, "velocity": 97}, {"time": 1518, "pitch": 71, "duration": 3, "velocity": 95}, {"time": 1521, "pitch": 73, "duration": 4, "velocity": 97}, {"time": 1527, "pitch": 71, "duration": 2, "velocity": 93}, {"time": 1530, "pitch": 70, "duration": 6, "velocity": 96}, {"time": 1536, "pitch": 71, "duration": 5, "velocity": 95}, {"time": 1542, "pitch": 73, "duration": 6, "velocity": 93}, {"time": 1548, "pitch": 71, "duration": 6, "velocity": 92}, {"time": 1554, "pitch": 70, "duration": 12, "velocity": 90}, {"time": 1566, "pitch": 61, "duration": 3, "velocity": 98}, {"time": 1569, "pitch": 63, "duration": 5, "velocity": 98}, {"time": 1575, "pitch": 66, "duration": 2, "velocity": 92}, {"time": 1578, "pitch": 66, "duration": 7, "velocity": 91}, {"time": 1587, "pitch": 68, "duration": 2, "velocity": 93}, {"time": 1590, "pitch": 68, "duration": 12, "velocity": 93}, {"time": 1605, "pitch": 61, "duration": 3, "velocity": 101}, {"time": 1608, "pitch": 63, "duration": 2, "velocity": 94}, {"time": 1611, "pitch": 66, "duration": 2, "velocity": 95}, {"time": 1614, "pitch": 63, "duration": 3, "velocity": 96}, {"time": 1617, "pitch": 66, "duration": 4, "velocity": 92}, {"time": 1623, "pitch": 66, "duration": 2, "velocity": 96}, {"time": 1626, "pitch": 68, "duration": 2, "velocity": 94}, {"time": 1629, "pitch": 70, "duration": 4, "velocity": 98}, {"time": 1635, "pitch": 75, "duration": 5, "velocity": 98}, {"time": 1641, "pitch": 73, "duration": 8, "velocity": 106}, {"time": 1650, "pitch": 73, "duration": 2, "velocity": 94}, {"time": 1653, "pitch": 73, "duration": 2, "velocity": 103}, {"time": 1656, "pitch": 70, "duration": 2, "velocity": 93}, {"time": 1659, "pitch": 68, "duration": 1, "velocity": 94}, {"time": 1662, "pitch": 66, "duration": 2, "velocity": 92}, {"time": 1665, "pitch": 68, "duration": 4, "velocity": 92}, {"time": 1671, "pitch": 68, "duration": 2, "velocity": 94}, {"time": 1674, "pitch": 70, "duration": 2, "velocity": 93}, {"time": 1677, "pitch": 68, "duration": 4, "velocity": 92}, {"time": 1683, "pitch": 66, "duration": 4, "velocity": 94}, {"time": 1689, "pitch": 61, "duration": 9, "velocity": 94}, {"time": 1701, "pitch": 61, "duration": 2, "velocity": 94}, {"time": 1704, "pitch": 63, "duration": 2, "velocity": 98}, {"time": 1707, "pitch": 66, "duration": 2, "velocity": 93}, {"time": 1710, "pitch": 63, "duration": 2, "velocity": 94}, {"time": 1713, "pitch": 66, "duration": 4, "velocity": 93}, {"time": 1719, "pitch": 66, "duration": 2, "velocity": 92}, {"time": 1722, "pitch": 68, "duration": 2, "velocity": 93}, {"time": 1725, "pitch": 70, "duration": 4, "velocity": 92}, {"time": 1731, "pitch": 75, "duration": 5, "velocity": 99}, {"time": 1737, "pitch": 73, "duration": 8, "velocity": 96}, {"time": 1746, "pitch": 73, "duration": 2, "velocity": 94}, {"time": 1749, "pitch": 73, "duration": 1, "velocity": 99}, {"time": 1752, "pitch": 70, "duration": 2, "velocity": 93}, {"time": 1755, "pitch": 68, "duration": 1, "velocity": 94}, {"time": 1758, "pitch": 66, "duration": 2, "velocity": 94}, {"time": 1761, "pitch": 68, "duration": 4, "velocity": 94}, {"time": 1767, "pitch": 68, "duration": 1, "velocity": 93}, {"time": 1770, "pitch": 70, "duration": 2, "velocity": 93}, {"time": 1773, "pitch": 68, "duration": 5, "velocity": 98}, {"time": 1779, "pitch": 66, "duration": 5, "velocity": 93}, {"time": 1785, "pitch": 68, "duration": 9, "velocity": 93}, {"time": 1797, "pitch": 61, "duration": 3, "velocity": 101}, {"time": 1800, "pitch": 63, "duration": 2, "velocity": 94}, {"time": 1803, "pitch": 66, "duration": 2, "velocity": 95}, {"time": 1806, "pitch": 63, "duration": 3, "velocity": 96}, {"time": 1809, "pitch": 66, "duration": 4, "velocity": 92}, {"time": 1815, "pitch": 66, "duration": 2, "velocity": 96}, {"time": 1818, "pitch": 68, "duration": 2, "velocity": 94}, {"time": 1821, "pitch": 70, "duration": 4, "velocity": 98}, {"time": 1827, "pitch": 75, "duration": 5, "velocity": 98}, {"time": 1833, "pitch": 73, "duration": 8, "velocity": 106}, {"time": 1842, "pitch": 73, "duration": 2, "velocity": 94}, {"time": 1845, "pitch": 73, "duration": 2, "velocity": 103}, {"time": 1848, "pitch": 70, "duration": 2, "velocity": 93}, {"time": 1851, "pitch": 68, "duration": 1, "velocity": 94}, {"time": 1854, "pitch": 66, "duration": 2, "velocity": 92}, {"time": 1857, "pitch": 68, "duration": 4, "velocity": 92}, {"time": 1863, "pitch": 68, "duration": 2, "velocity": 94}, {"time": 1866, "pitch": 70, "duration": 2, "velocity": 93}, {"time": 1869, "pitch": 68, "duration": 4, "velocity": 92}, {"time": 1875, "pitch": 66, "duration": 4, "velocity": 94}, {"time": 1881, "pitch": 61, "duration": 9, "velocity": 94}, {"time": 1893, "pitch": 61, "duration": 2, "velocity": 94}, {"time": 1896, "pitch": 63, "duration": 2, "velocity": 98}, {"time": 1899, "pitch": 66, "duration": 2, "velocity": 93}, {"time": 1902, "pitch": 63, "duration": 2, "velocity": 94}, {"time": 1905, "pitch": 66, "duration": 4, "velocity": 93}, {"time": 1911, "pitch": 66, "duration": 2, "velocity": 92}, {"time": 1914, "pitch": 68, "duration": 2, "velocity": 93}, {"time": 1917, "pitch": 70, "duration": 4, "velocity": 92}, {"time": 1923, "pitch": 75, "duration": 5, "velocity": 99}, {"time": 1929, "pitch": 73, "duration": 8, "velocity": 96}, {"time": 1938, "pitch": 73, "duration": 2, "velocity": 94}, {"time": 1941, "pitch": 73, "duration": 1, "velocity": 99}, {"time": 1944, "pitch": 70, "duration": 2, "velocity": 93}, {"time": 1947, "pitch": 68, "duration": 1, "velocity": 94}, {"time": 1950, "pitch": 66, "duration": 2, "velocity": 94}, {"time": 1953, "pitch": 68, "duration": 4, "velocity": 94}, {"time": 1959, "pitch": 68, "duration": 1, "velocity": 93}, {"time": 1962, "pitch": 70, "duration": 2, "velocity": 93}, {"time": 1965, "pitch": 71, "duration": 5, "velocity": 94}, {"time": 1971, "pitch": 70, "duration": 6, "velocity": 96}, {"time": 1977, "pitch": 68, "duration": 5, "velocity": 89}, {"time": 1983, "pitch": 70, "duration": 4, "velocity": 96}, {"time": 1989, "pitch": 68, "duration": 5, "velocity": 94}, {"time": 1995, "pitch": 66, "duration": 2, "velocity": 94}, {"time": 1998, "pitch": 68, "duration": 9, "velocity": 94}, {"time": 2007, "pitch": 66, "duration": 23, "velocity": 88}, {"time": 2037, "pitch": 62, "duration": 3, "velocity": 101}, {"time": 2040, "pitch": 64, "duration": 2, "velocity": 94}, {"time": 2043, "pitch": 67, "duration": 2, "velocity": 95}, {"time": 2046, "pitch": 64, "duration": 3, "velocity": 96}, {"time": 2049, "pitch": 67, "duration": 4, "velocity": 92}, {"time": 2055, "pitch": 67, "duration": 2, "velocity": 96}, {"time": 2058, "pitch": 69, "duration": 2, "velocity": 94}, {"time": 2061, "pitch": 71, "duration": 4, "velocity": 98}, {"time": 2067, "pitch": 76, "duration": 5, "velocity": 98}, {"time": 2073, "pitch": 74, "duration": 8, "velocity": 106}, {"time": 2082, "pitch": 74, "duration": 2, "velocity": 94}, {"time": 2085, "pitch": 74, "duration": 2, "velocity": 103}, {"time": 2088, "pitch": 71, "duration": 2, "velocity": 93}, {"time": 2091, "pitch": 69, "duration": 1, "velocity": 94}, {"time": 2094, "pitch": 67, "duration": 2, "velocity": 92}, {"time": 2097, "pitch": 69, "duration": 4, "velocity": 92}, {"time": 2103, "pitch": 69, "duration": 2, "velocity": 94}, {"time": 2106, "pitch": 71, "duration": 2, "velocity": 93}, {"time": 2109, "pitch": 69, "duration": 4, "velocity": 92}, {"time": 2115, "pitch": 67, "duration": 4, "velocity": 94}, {"time": 2121, "pitch": 62, "duration": 9, "velocity": 94}, {"time": 2133, "pitch": 62, "duration": 2, "velocity": 94}, {"time": 2136, "pitch": 64, "duration": 2, "velocity": 98}, {"time": 2139, "pitch": 67, "duration": 2, "velocity": 93}, {"time": 2142, "pitch": 64, "duration": 2, "velocity": 94}, {"time": 2145, "pitch": 67, "duration": 4, "velocity": 93}, {"time": 2151, "pitch": 67, "duration": 2, "velocity": 92}, {"time": 2154, "pitch": 69, "duration": 2, "velocity": 93}, {"time": 2157, "pitch": 71, "duration": 4, "velocity": 92}, {"time": 2163, "pitch": 76, "duration": 5, "velocity": 99}, {"time": 2169, "pitch": 74, "duration": 8, "velocity": 96}, {"time": 2178, "pitch": 74, "duration": 2, "velocity": 94}, {"time": 2181, "pitch": 74, "duration": 1, "velocity": 99}, {"time": 2184, "pitch": 71, "duration": 2, "velocity": 93}, {"time": 2187, "pitch": 69, "duration": 1, "velocity": 94}, {"time": 2190, "pitch": 67, "duration": 2, "velocity": 94}, {"time": 2193, "pitch": 69, "duration": 4, "velocity": 94}, {"time": 2199, "pitch": 69, "duration": 1, "velocity": 93}, {"time": 2202, "pitch": 71, "duration": 2, "velocity": 93}, {"time": 2205, "pitch": 69, "duration": 5, "velocity": 98}, {"time": 2211, "pitch": 67, "duration": 5, "velocity": 93}, {"time": 2217, "pitch": 69, "duration": 9, "velocity": 93}, {"time": 2229, "pitch": 62, "duration": 3, "velocity": 101}, {"time": 2232, "pitch": 64, "duration": 2, "velocity": 94}, {"time": 2235, "pitch": 67, "duration": 2, "velocity": 95}, {"time": 2238, "pitch": 64, "duration": 3, "velocity": 96}, {"time": 2241, "pitch": 67, "duration": 4, "velocity": 92}, {"time": 2247, "pitch": 67, "duration": 2, "velocity": 96}, {"time": 2250, "pitch": 69, "duration": 2, "velocity": 94}, {"time": 2253, "pitch": 71, "duration": 4, "velocity": 98}, {"time": 2259, "pitch": 76, "duration": 5, "velocity": 98}, {"time": 2265, "pitch": 74, "duration": 8, "velocity": 106}, {"time": 2274, "pitch": 74, "duration": 2, "velocity": 94}, {"time": 2277, "pitch": 74, "duration": 2, "velocity": 103}, {"time": 2280, "pitch": 71, "duration": 2, "velocity": 93}, {"time": 2283, "pitch": 69, "duration": 1, "velocity": 94}, {"time": 2286, "pitch": 67, "duration": 2, "velocity": 92}, {"time": 2289, "pitch": 69, "duration": 4, "velocity": 92}, {"time": 2295, "pitch": 69, "duration": 2, "velocity": 94}, {"time": 2298, "pitch": 71, "duration": 2, "velocity": 93}, {"time": 2301, "pitch": 69, "duration": 4, "velocity": 92}, {"time": 2307, "pitch": 67, "duration": 4, "velocity": 94}, {"time": 2313, "pitch": 62, "duration": 9, "velocity": 94}, {"time": 2325, "pitch": 62, "duration": 2, "velocity": 94}, {"time": 2328, "pitch": 64, "duration": 2, "velocity": 98}, {"time": 2331, "pitch": 67, "duration": 2, "velocity": 93}, {"time": 2334, "pitch": 64, "duration": 2, "velocity": 94}, {"time": 2337, "pitch": 67, "duration": 4, "velocity": 93}, {"time": 2343, "pitch": 67, "duration": 2, "velocity": 92}, {"time": 2346, "pitch": 69, "duration": 2, "velocity": 93}, {"time": 2349, "pitch": 71, "duration": 4, "velocity": 92}, {"time": 2355, "pitch": 76, "duration": 5, "velocity": 99}, {"time": 2361, "pitch": 74, "duration": 8, "velocity": 96}, {"time": 2370, "pitch": 74, "duration": 2, "velocity": 94}, {"time": 2373, "pitch": 74, "duration": 1, "velocity": 99}, {"time": 2376, "pitch": 71, "duration": 2, "velocity": 93}, {"time": 2379, "pitch": 69, "duration": 1, "velocity": 94}, {"time": 2382, "pitch": 67, "duration": 2, "velocity": 94}, {"time": 2385, "pitch": 69, "duration": 4, "velocity": 94}, {"time": 2391, "pitch": 69, "duration": 1, "velocity": 93}, {"time": 2394, "pitch": 71, "duration": 2, "velocity": 93}, {"time": 2397, "pitch": 72, "duration": 5, "velocity": 94}, {"time": 2403, "pitch": 71, "duration": 6, "velocity": 96}, {"time": 2409, "pitch": 69, "duration": 5, "velocity": 89}, {"time": 2415, "pitch": 71, "duration": 4, "velocity": 96}, {"time": 2421, "pitch": 69, "duration": 5, "velocity": 94}, {"time": 2427, "pitch": 67, "duration": 2, "velocity": 94}, {"time": 2430, "pitch": 69, "duration": 9, "velocity": 94}, {"time": 2439, "pitch": 67, "duration": 23, "velocity": 88}]}, {"program": 0, "is_drum": false, "name": "PIANO", "notes": [{"time": 46, "pitch": 42, "duration": 68, "velocity": 88}, {"time": 52, "pitch": 49, "duration": 61, "velocity": 76}, {"time": 56, "pitch": 56, "duration": 3, "velocity": 76}, {"time": 59, "pitch": 58, "duration": 2, "velocity": 79}, {"time": 62, "pitch": 61, "duration": 3, "velocity": 73}, {"time": 67, "pitch": 66, "duration": 4, "velocity": 62}, {"time": 73, "pitch": 68, "duration": 3, "velocity": 78}, {"time": 78, "pitch": 70, "duration": 4, "velocity": 75}, {"time": 85, "pitch": 73, "duration": 1, "velocity": 86}, {"time": 92, "pitch": 78, "duration": 3, "velocity": 66}, {"time": 98, "pitch": 80, "duration": 3, "velocity": 71}, {"time": 106, "pitch": 82, "duration": 2, "velocity": 77}, {"time": 159, "pitch": 47, "duration": 54, "velocity": 83}, {"time": 163, "pitch": 54, "duration": 49, "velocity": 68}, {"time": 167, "pitch": 59, "duration": 3, "velocity": 77}, {"time": 170, "pitch": 61, "duration": 2, "velocity": 87}, {"time": 172, "pitch": 63, "duration": 4, "velocity": 91}, {"time": 175, "pitch": 66, "duration": 3, "velocity": 81}, {"time": 178, "pitch": 71, "duration": 3, "velocity": 83}, {"time": 183, "pitch": 73, "duration": 3, "velocity": 66}, {"time": 189, "pitch": 75, "duration": 2, "velocity": 81}, {"time": 195, "pitch": 71, "duration": 1, "velocity": 56}, {"time": 195, "pitch": 78, "duration": 2, "velocity": 81}, {"time": 225, "pitch": 42, "duration": 18, "velocity": 92}, {"time": 225, "pitch": 54, "duration": 14, "velocity": 89}, {"time": 225, "pitch": 61, "duration": 7, "velocity": 91}, {"time": 231, "pitch": 49, "duration": 11, "velocity": 83}, {"time": 234, "pitch": 58, "duration": 4, "velocity": 82}, {"time": 237, "pitch": 66, "duration": 6, "velocity": 95}, {"time": 240, "pitch": 61, "duration": 3, "velocity": 93}, {"time": 243, "pitch": 58, "duration": 1, "velocity": 92}, {"time": 249, "pitch": 37, "duration": 15, "velocity": 97}, {"time": 249, "pitch": 61, "duration": 4, "velocity": 91}, {"time": 249, "pitch": 65, "duration": 9, "velocity": 93}, {"time": 255, "pitch": 44, "duration": 9, "velocity": 78}, {"time": 258, "pitch": 56, "duration": 3, "velocity": 87}, {"time": 261, "pitch": 61, "duration": 3, "velocity": 94}, {"time": 264, "pitch": 56, "duration": 4, "velocity": 90}, {"time": 267, "pitch": 65, "duration": 2, "velocity": 92}, {"time": 273, "pitch": 39, "duration": 19, "velocity": 93}, {"time": 273, "pitch": 63, "duration": 6, "velocity": 91}, {"time": 273, "pitch": 66, "duration": 6, "velocity": 86}, {"time": 279, "pitch": 46, "duration": 11, "velocity": 71}, {"time": 282, "pitch": 63, "duration": 6, "velocity": 98}, {"time": 288, "pitch": 63, "duration": 1, "velocity": 75}, {"time": 288, "pitch": 70, "duration": 3, "velocity": 93}, {"time": 291, "pitch": 66, "duration": 3, "velocity": 86}, {"time": 294, "pitch": 63, "duration": 1, "velocity": 87}, {"time": 297, "pitch": 37, "duration": 1, "velocity": 94}, {"time": 297, "pitch": 61, "duration": 10, "velocity": 88}, {"time": 297, "pitch": 65, "duration": 10, "velocity": 83}, {"time": 303, "pitch": 49, "duration": 11, "velocity": 71}, {"time": 306, "pitch": 56, "duration": 8, "velocity": 87}, {"time": 309, "pitch": 61, "duration": 4, "velocity": 94}, {"time": 312, "pitch": 68, "duration": 4, "velocity": 86}, {"time": 315, "pitch": 61, "duration": 2, "velocity": 87}, {"time": 321, "pitch": 47, "duration": 20, "velocity": 94}, {"time": 321, "pitch": 59, "duration": 4, "velocity": 86}, {"time": 321, "pitch": 66, "duration": 7, "velocity": 86}, {"time": 324, "pitch": 54, "duration": 15, "velocity": 85}, {"time": 327, "pitch": 59, "duration": 3, "velocity": 93}, {"time": 330, "pitch": 61, "duration": 5, "velocity": 94}, {"time": 336, "pitch": 59, "duration": 1, "velocity": 92}, {"time": 336, "pitch": 66, "duration": 4, "velocity": 93}, {"time": 339, "pitch": 59, "duration": 4, "velocity": 87}, {"time": 342, "pitch": 66, "duration": 8, "velocity": 88}, {"time": 345, "pitch": 46, "duration": 11, "velocity": 93}, {"time": 348, "pitch": 58, "duration": 5, "velocity": 83}, {"time": 351, "pitch": 61, "duration": 2, "velocity": 84}, {"time": 354, "pitch": 61, "duration": 2, "velocity": 85}, {"time": 354, "pitch": 65, "duration": 9, "velocity": 93}, {"time": 363, "pitch": 53, "duration": 1, "velocity": 80}, {"time": 366, "pitch": 58, "duration": 1, "velocity": 78}, {"time": 369, "pitch": 44, "duration": 13, "velocity": 93}, {"time": 369, "pitch": 56, "duration": 6, "velocity": 90}, {"time": 369, "pitch": 59, "duration": 7, "velocity": 87}, {"time": 375, "pitch": 51, "duration": 7, "velocity": 81}, {"time": 378, "pitch": 56, "duration": 1, "velocity": 84}, {"time": 381, "pitch": 56, "duration": 1, "velocity": 92}, {"time": 381, "pitch": 59, "duration": 1, "velocity": 93}, {"time": 387, "pitch": 42, "duration": 30, "velocity": 93}, {"time": 387, "pitch": 54, "duration": 29, "velocity": 91}, {"time": 387, "pitch": 58, "duration": 29, "velocity": 92}, {"time": 417, "pitch": 42, "duration": 22, "velocity": 89}, {"time": 420, "pitch": 49, "duration": 20, "velocity": 80}, {"time": 423, "pitch": 61, "duration": 9, "velocity": 82}, {"time": 426, "pitch": 66, "duration": 24, "velocity": 88}, {"time": 441, "pitch": 42, "duration": 7, "velocity": 93}, {"time": 444, "pitch": 49, "duration": 9, "velocity": 84}, {"time": 447, "pitch": 54, "duration": 4, "velocity": 96}, {"time": 450, "pitch": 61, "duration": 9, "velocity": 96}, {"time": 453, "pitch": 41, "duration": 7, "velocity": 88}, {"time": 456, "pitch": 49, "duration": 4, "velocity": 85}, {"time": 459, "pitch": 54, "duration": 6, "velocity": 83}, {"time": 465, "pitch": 39, "duration": 21, "velocity": 96}, {"time": 468, "pitch": 46, "duration": 19, "velocity": 78}, {"time": 471, "pitch": 51, "duration": 9, "velocity": 82}, {"time": 474, "pitch": 54, "duration": 5, "velocity": 83}, {"time": 489, "pitch": 39, "duration": 6, "velocity": 93}, {"time": 489, "pitch": 63, "duration": 6, "velocity": 94}, {"time": 492, "pitch": 46, "duration": 3, "velocity": 88}, {"time": 495, "pitch": 51, "duration": 2, "velocity": 97}, {"time": 501, "pitch": 37, "duration": 5, "velocity": 96}, {"time": 501, "pitch": 61, "duration": 6, "velocity": 92}, {"time": 504, "pitch": 44, "duration": 2, "velocity": 84}, {"time": 507, "pitch": 56, "duration": 3, "velocity": 91}, {"time": 510, "pitch": 61, "duration": 2, "velocity": 93}, {"time": 513, "pitch": 47, "duration": 18, "velocity": 93}, {"time": 513, "pitch": 59, "duration": 4, "velocity": 90}, {"time": 516, "pitch": 54, "duration": 14, "velocity": 80}, {"time": 519, "pitch": 59, "duration": 2, "velocity": 92}, {"time": 522, "pitch": 59, "duration": 7, "velocity": 89}, {"time": 522, "pitch": 63, "duration": 7, "velocity": 93}, {"time": 537, "pitch": 49, "duration": 16, "velocity": 91}, {"time": 537, "pitch": 61, "duration": 4, "velocity": 92}, {"time": 540, "pitch": 56, "duration": 4, "velocity": 87}, {"time": 543, "pitch": 61, "duration": 3, "velocity": 86}, {"time": 546, "pitch": 65, "duration": 6, "velocity": 96}, {"time": 561, "pitch": 44, "duration": 22, "velocity": 92}, {"time": 561, "pitch": 56, "duration": 3, "velocity": 81}, {"time": 561, "pitch": 59, "duration": 5, "velocity": 86}, {"time": 564, "pitch": 51, "duration": 19, "velocity": 86}, {"time": 567, "pitch": 56, "duration": 7, "velocity": 87}, {"time": 570, "pitch": 63, "duration": 6, "velocity": 92}, {"time": 576, "pitch": 68, "duration": 8, "velocity": 91}, {"time": 585, "pitch": 49, "duration": 12, "velocity": 94}, {"time": 585, "pitch": 56, "duration": 4, "velocity": 88}, {"time": 585, "pitch": 65, "duration": 10, "velocity": 86}, {"time": 591, "pitch": 56, "duration": 4, "velocity": 90}, {"time": 594, "pitch": 61, "duration": 1, "velocity": 85}, {"time": 597, "pitch": 56, "duration": 6, "velocity": 94}, {"time": 597, "pitch": 61, "duration": 5, "velocity": 96}, {"time": 609, "pitch": 42, "duration": 20, "velocity": 93}, {"time": 609, "pitch": 54, "duration": 3, "velocity": 87}, {"time": 609, "pitch": 58, "duration": 6, "velocity": 86}, {"time": 612, "pitch": 49, "duration": 16, "velocity": 82}, {"time": 615, "pitch": 54, "duration": 9, "velocity": 86}, {"time": 618, "pitch": 61, "duration": 7, "velocity": 90}, {"time": 633, "pitch": 42, "duration": 7, "velocity": 91}, {"time": 633, "pitch": 54, "duration": 3, "velocity": 86}, {"time": 633, "pitch": 58, "duration": 6, "velocity": 85}, {"time": 633, "pitch": 61, "duration": 6, "velocity": 90}, {"time": 636, "pitch": 49, "duration": 5, "velocity": 82}, {"time": 639, "pitch": 54, "duration": 2, "velocity": 96}, {"time": 645, "pitch": 41, "duration": 6, "velocity": 88}, {"time": 645, "pitch": 56, "duration": 3, "velocity": 86}, {"time": 645, "pitch": 61, "duration": 5, "velocity": 87}, {"time": 648, "pitch": 49, "duration": 4, "velocity": 87}, {"time": 651, "pitch": 56, "duration": 3, "velocity": 82}, {"time": 654, "pitch": 61, "duration": 3, "velocity": 84}, {"time": 657, "pitch": 39, "duration": 22, "velocity": 95}, {"time": 660, "pitch": 46, "duration": 19, "velocity": 79}, {"time": 663, "pitch": 54, "duration": 2, "velocity": 88}, {"time": 666, "pitch": 54, "duration": 13, "velocity": 91}, {"time": 666, "pitch": 58, "duration": 13, "velocity": 88}, {"time": 681, "pitch": 39, "duration": 7, "velocity": 92}, {"time": 681, "pitch": 54, "duration": 3, "velocity": 85}, {"time": 681, "pitch": 58, "duration": 6, "velocity": 86}, {"time": 684, "pitch": 46, "duration": 4, "velocity": 82}, {"time": 687, "pitch": 54, "duration": 1, "velocity": 91}, {"time": 693, "pitch": 37, "duration": 3, "velocity": 93}, {"time": 693, "pitch": 56, "duration": 5, "velocity": 88}, {"time": 693, "pitch": 61, "duration": 6, "velocity": 91}, {"time": 705, "pitch": 47, "duration": 15, "velocity": 90}, {"time": 705, "pitch": 54, "duration": 1, "velocity": 84}, {"time": 705, "pitch": 59, "duration": 4, "velocity": 85}, {"time": 708, "pitch": 54, "duration": 4, "velocity": 86}, {"time": 711, "pitch": 59, "duration": 2, "velocity": 88}, {"time": 714, "pitch": 54, "duration": 5, "velocity": 92}, {"time": 714, "pitch": 59, "duration": 6, "velocity": 73}, {"time": 714, "pitch": 63, "duration": 6, "velocity": 92}, {"time": 729, "pitch": 46, "duration": 18, "velocity": 92}, {"time": 729, "pitch": 58, "duration": 3, "velocity": 88}, {"time": 729, "pitch": 61, "duration": 6, "velocity": 87}, {"time": 732, "pitch": 53, "duration": 11, "velocity": 81}, {"time": 735, "pitch": 58, "duration": 2, "velocity": 92}, {"time": 738, "pitch": 65, "duration": 5, "velocity": 95}, {"time": 753, "pitch": 44, "duration": 19, "velocity": 92}, {"time": 753, "pitch": 56, "duration": 3, "velocity": 85}, {"time": 753, "pitch": 59, "duration": 6, "velocity": 87}, {"time": 756, "pitch": 51, "duration": 15, "velocity": 83}, {"time": 759, "pitch": 56, "duration": 2, "velocity": 89}, {"time": 762, "pitch": 59, "duration": 9, "velocity": 93}, {"time": 771, "pitch": 63, "duration": 3, "velocity": 96}, {"time": 774, "pitch": 56, "duration": 1, "velocity": 76}, {"time": 777, "pitch": 37, "duration": 19, "velocity": 94}, {"time": 777, "pitch": 56, "duration": 2, "velocity": 90}, {"time": 777, "pitch": 61, "duration": 3, "velocity": 92}, {"time": 780, "pitch": 44, "duration": 7, "velocity": 83}, {"time": 783, "pitch": 61, "duration": 1, "velocity": 93}, {"time": 786, "pitch": 61, "duration": 4, "velocity": 95}, {"time": 786, "pitch": 65, "duration": 5, "velocity": 95}, {"time": 789, "pitch": 44, "duration": 6, "velocity": 86}, {"time": 795, "pitch": 61, "duration": 1, "velocity": 75}, {"time": 801, "pitch": 42, "duration": 16, "velocity": 89}, {"time": 801, "pitch": 61, "duration": 2, "velocity": 92}, {"time": 801, "pitch": 70, "duration": 6, "velocity": 93}, {"time": 804, "pitch": 61, "duration": 3, "velocity": 91}, {"time": 807, "pitch": 66, "duration": 1, "velocity": 85}, {"time": 810, "pitch": 61, "duration": 4, "velocity": 96}, {"time": 810, "pitch": 68, "duration": 4, "velocity": 94}, {"time": 813, "pitch": 49, "duration": 4, "velocity": 78}, {"time": 816, "pitch": 61, "duration": 2, "velocity": 95}, {"time": 816, "pitch": 66, "duration": 2, "velocity": 92}, {"time": 825, "pitch": 37, "duration": 16, "velocity": 95}, {"time": 825, "pitch": 61, "duration": 4, "velocity": 92}, {"time": 825, "pitch": 68, "duration": 6, "velocity": 92}, {"time": 831, "pitch": 44, "duration": 10, "velocity": 73}, {"time": 834, "pitch": 65, "duration": 4, "velocity": 93}, {"time": 834, "pitch": 68, "duration": 6, "velocity": 93}, {"time": 840, "pitch": 61, "duration": 3, "velocity": 96}, {"time": 843, "pitch": 73, "duration": 3, "velocity": 97}, {"time": 849, "pitch": 39, "duration": 16, "velocity": 94}, {"time": 849, "pitch": 63, "duration": 3, "velocity": 91}, {"time": 849, "pitch": 66, "duration": 5, "velocity": 88}, {"time": 852, "pitch": 46, "duration": 13, "velocity": 81}, {"time": 855, "pitch": 63, "duration": 1, "velocity": 91}, {"time": 858, "pitch": 63, "duration": 2, "velocity": 97}, {"time": 858, "pitch": 70, "duration": 4, "velocity": 94}, {"time": 864, "pitch": 63, "duration": 1, "velocity": 97}, {"time": 864, "pitch": 66, "duration": 1, "velocity": 93}, {"time": 873, "pitch": 37, "duration": 5, "velocity": 95}, {"time": 873, "pitch": 61, "duration": 6, "velocity": 92}, {"time": 873, "pitch": 65, "duration": 6, "velocity": 87}, {"time": 879, "pitch": 56, "duration": 1, "velocity": 94}, {"time": 885, "pitch": 42, "duration": 11, "velocity": 88}, {"time": 885, "pitch": 61, "duration": 3, "velocity": 91}, {"time": 885, "pitch": 64, "duration": 7, "velocity": 92}, {"time": 891, "pitch": 61, "duration": 5, "velocity": 98}, {"time": 897, "pitch": 47, "duration": 21, "velocity": 94}, {"time": 897, "pitch": 59, "duration": 4, "velocity": 92}, {"time": 897, "pitch": 66, "duration": 6, "velocity": 89}, {"time": 900, "pitch": 54, "duration": 11, "velocity": 86}, {"time": 903, "pitch": 59, "duration": 1, "velocity": 93}, {"time": 906, "pitch": 59, "duration": 9, "velocity": 93}, {"time": 906, "pitch": 63, "duration": 9, "velocity": 93}, {"time": 906, "pitch": 66, "duration": 12, "velocity": 92}, {"time": 915, "pitch": 54, "duration": 4, "velocity": 89}, {"time": 918, "pitch": 59, "duration": 1, "velocity": 93}, {"time": 921, "pitch": 46, "duration": 15, "velocity": 93}, {"time": 921, "pitch": 58, "duration": 2, "velocity": 93}, {"time": 921, "pitch": 61, "duration": 7, "velocity": 89}, {"time": 927, "pitch": 58, "duration": 1, "velocity": 94}, {"time": 930, "pitch": 58, "duration": 4, "velocity": 93}, {"time": 930, "pitch": 65, "duration": 5, "velocity": 92}, {"time": 933, "pitch": 53, "duration": 4, "velocity": 90}, {"time": 936, "pitch": 58, "duration": 1, "velocity": 92}, {"time": 936, "pitch": 61, "duration": 3, "velocity": 92}, {"time": 939, "pitch": 58, "duration": 3, "velocity": 89}, {"time": 942, "pitch": 61, "duration": 1, "velocity": 82}, {"time": 945, "pitch": 44, "duration": 19, "velocity": 93}, {"time": 945, "pitch": 56, "duration": 3, "velocity": 85}, {"time": 945, "pitch": 59, "duration": 6, "velocity": 92}, {"time": 948, "pitch": 51, "duration": 8, "velocity": 83}, {"time": 951, "pitch": 56, "duration": 1, "velocity": 88}, {"time": 954, "pitch": 54, "duration": 4, "velocity": 101}, {"time": 954, "pitch": 59, "duration": 4, "velocity": 94}, {"time": 960, "pitch": 54, "duration": 3, "velocity": 94}, {"time": 960, "pitch": 59, "duration": 3, "velocity": 99}, {"time": 960, "pitch": 63, "duration": 3, "velocity": 96}, {"time": 963, "pitch": 51, "duration": 1, "velocity": 86}, {"time": 966, "pitch": 56, "duration": 1, "velocity": 88}, {"time": 969, "pitch": 37, "duration": 1, "velocity": 97}, {"time": 969, "pitch": 56, "duration": 4, "velocity": 87}, {"time": 969, "pitch": 61, "duration": 5, "velocity": 92}, {"time": 975, "pitch": 49, "duration": 18, "velocity": 87}, {"time": 978, "pitch": 56, "duration": 9, "velocity": 96}, {"time": 981, "pitch": 61, "duration": 2, "velocity": 101}, {"time": 984, "pitch": 65, "duration": 1, "velocity": 96}, {"time": 987, "pitch": 61, "duration": 5, "velocity": 98}, {"time": 990, "pitch": 56, "duration": 2, "velocity": 94}, {"time": 993, "pitch": 42, "duration": 16, "velocity": 89}, {"time": 993, "pitch": 61, "duration": 2, "velocity": 92}, {"time": 993, "pitch": 70, "duration": 6, "velocity": 93}, {"time": 996, "pitch": 61, "duration": 3, "velocity": 91}, {"time": 999, "pitch": 66, "duration": 1, "velocity": 85}, {"time": 1002, "pitch": 61, "duration": 4, "velocity": 96}, {"time": 1002, "pitch": 68, "duration": 4, "velocity": 94}, {"time": 1005, "pitch": 49, "duration": 4, "velocity": 78}, {"time": 1008, "pitch": 61, "duration": 2, "velocity": 95}, {"time": 1008, "pitch": 66, "duration": 2, "velocity": 92}, {"time": 1017, "pitch": 37, "duration": 16, "velocity": 95}, {"time": 1017, "pitch": 61, "duration": 4, "velocity": 92}, {"time": 1017, "pitch": 68, "duration": 6, "velocity": 92}, {"time": 1023, "pitch": 44, "duration": 10, "velocity": 73}, {"time": 1026, "pitch": 65, "duration": 4, "velocity": 93}, {"time": 1026, "pitch": 68, "duration": 6, "velocity": 93}, {"time": 1032, "pitch": 61, "duration": 3, "velocity": 96}, {"time": 1035, "pitch": 73, "duration": 3, "velocity": 97}, {"time": 1041, "pitch": 39, "duration": 16, "velocity": 94}, {"time": 1041, "pitch": 63, "duration": 3, "velocity": 91}, {"time": 1041, "pitch": 66, "duration": 5, "velocity": 88}, {"time": 1044, "pitch": 46, "duration": 13, "velocity": 81}, {"time": 1047, "pitch": 63, "duration": 1, "velocity": 91}, {"time": 1050, "pitch": 63, "duration": 2, "velocity": 97}, {"time": 1050, "pitch": 70, "duration": 4, "velocity": 94}, {"time": 1056, "pitch": 63, "duration": 1, "velocity": 97}, {"time": 1056, "pitch": 66, "duration": 1, "velocity": 93}, {"time": 1065, "pitch": 37, "duration": 5, "velocity": 95}, {"time": 1065, "pitch": 61, "duration": 6, "velocity": 92}, {"time": 1065, "pitch": 65, "duration": 6, "velocity": 87}, {"time": 1071, "pitch": 56, "duration": 1, "velocity": 94}, {"time": 1077, "pitch": 42, "duration": 11, "velocity": 88}, {"time": 1077, "pitch": 61, "duration": 3, "velocity": 91}, {"time": 1077, "pitch": 64, "duration": 7, "velocity": 92}, {"time": 1083, "pitch": 61, "duration": 5, "velocity": 98}, {"time": 1089, "pitch": 47, "duration": 21, "velocity": 94}, {"time": 1089, "pitch": 59, "duration": 4, "velocity": 92}, {"time": 1089, "pitch": 66, "duration": 6, "velocity": 89}, {"time": 1092, "pitch": 54, "duration": 11, "velocity": 86}, {"time": 1095, "pitch": 59, "duration": 1, "velocity": 93}, {"time": 1098, "pitch": 59, "duration": 9, "velocity": 93}, {"time": 1098, "pitch": 63, "duration": 9, "velocity": 93}, {"time": 1098, "pitch": 66, "duration": 12, "velocity": 92}, {"time": 1107, "pitch": 54, "duration": 4, "velocity": 89}, {"time": 1110, "pitch": 59, "duration": 1, "velocity": 93}, {"time": 1113, "pitch": 46, "duration": 15, "velocity": 93}, {"time": 1113, "pitch": 58, "duration": 2, "velocity": 93}, {"time": 1113, "pitch": 61, "duration": 7, "velocity": 89}, {"time": 1119, "pitch": 58, "duration": 1, "velocity": 94}, {"time": 1122, "pitch": 58, "duration": 4, "velocity": 93}, {"time": 1122, "pitch": 65, "duration": 5, "velocity": 92}, {"time": 1125, "pitch": 53, "duration": 4, "velocity": 90}, {"time": 1128, "pitch": 58, "duration": 1, "velocity": 92}, {"time": 1128, "pitch": 61, "duration": 3, "velocity": 92}, {"time": 1131, "pitch": 58, "duration": 3, "velocity": 89}, {"time": 1134, "pitch": 61, "duration": 1, "velocity": 82}, {"time": 1137, "pitch": 44, "duration": 19, "velocity": 93}, {"time": 1137, "pitch": 56, "duration": 3, "velocity": 85}, {"time": 1137, "pitch": 59, "duration": 6, "velocity": 92}, {"time": 1140, "pitch": 51, "duration": 8, "velocity": 83}, {"time": 1143, "pitch": 56, "duration": 1, "velocity": 88}, {"time": 1146, "pitch": 54, "duration": 4, "velocity": 101}, {"time": 1146, "pitch": 59, "duration": 4, "velocity": 94}, {"time": 1152, "pitch": 54, "duration": 3, "velocity": 94}, {"time": 1152, "pitch": 59, "duration": 3, "velocity": 99}, {"time": 1152, "pitch": 63, "duration": 3, "velocity": 96}, {"time": 1155, "pitch": 51, "duration": 1, "velocity": 86}, {"time": 1158, "pitch": 56, "duration": 1, "velocity": 88}, {"time": 1161, "pitch": 37, "duration": 1, "velocity": 97}, {"time": 1161, "pitch": 56, "duration": 4, "velocity": 87}, {"time": 1161, "pitch": 61, "duration": 5, "velocity": 92}, {"time": 1167, "pitch": 49, "duration": 18, "velocity": 87}, {"time": 1170, "pitch": 56, "duration": 9, "velocity": 96}, {"time": 1173, "pitch": 61, "duration": 2, "velocity": 101}, {"time": 1176, "pitch": 65, "duration": 1, "velocity": 96}, {"time": 1179, "pitch": 61, "duration": 5, "velocity": 98}, {"time": 1182, "pitch": 56, "duration": 2, "velocity": 94}, {"time": 1185, "pitch": 42, "duration": 22, "velocity": 91}, {"time": 1185, "pitch": 61, "duration": 10, "velocity": 92}, {"time": 1188, "pitch": 49, "duration": 18, "velocity": 77}, {"time": 1191, "pitch": 54, "duration": 3, "velocity": 88}, {"time": 1194, "pitch": 66, "duration": 2, "velocity": 92}, {"time": 1200, "pitch": 61, "duration": 2, "velocity": 82}, {"time": 1200, "pitch": 70, "duration": 3, "velocity": 88}, {"time": 1206, "pitch": 61, "duration": 1, "velocity": 62}, {"time": 1209, "pitch": 42, "duration": 17, "velocity": 88}, {"time": 1209, "pitch": 61, "duration": 22, "velocity": 86}, {"time": 1209, "pitch": 66, "duration": 23, "velocity": 84}, {"time": 1233, "pitch": 47, "duration": 22, "velocity": 92}, {"time": 1233, "pitch": 59, "duration": 3, "velocity": 83}, {"time": 1233, "pitch": 63, "duration": 5, "velocity": 92}, {"time": 1236, "pitch": 54, "duration": 19, "velocity": 81}, {"time": 1239, "pitch": 59, "duration": 2, "velocity": 85}, {"time": 1242, "pitch": 59, "duration": 3, "velocity": 81}, {"time": 1242, "pitch": 63, "duration": 3, "velocity": 89}, {"time": 1257, "pitch": 47, "duration": 13, "velocity": 93}, {"time": 1257, "pitch": 59, "duration": 4, "velocity": 87}, {"time": 1257, "pitch": 66, "duration": 10, "velocity": 88}, {"time": 1260, "pitch": 54, "duration": 10, "velocity": 84}, {"time": 1263, "pitch": 59, "duration": 4, "velocity": 88}, {"time": 1266, "pitch": 63, "duration": 1, "velocity": 92}, {"time": 1281, "pitch": 46, "duration": 19, "velocity": 92}, {"time": 1281, "pitch": 58, "duration": 3, "velocity": 86}, {"time": 1281, "pitch": 61, "duration": 6, "velocity": 89}, {"time": 1284, "pitch": 53, "duration": 19, "velocity": 79}, {"time": 1287, "pitch": 58, "duration": 2, "velocity": 83}, {"time": 1290, "pitch": 58, "duration": 2, "velocity": 90}, {"time": 1290, "pitch": 61, "duration": 2, "velocity": 89}, {"time": 1290, "pitch": 65, "duration": 2, "velocity": 87}, {"time": 1305, "pitch": 46, "duration": 17, "velocity": 92}, {"time": 1305, "pitch": 61, "duration": 1, "velocity": 61}, {"time": 1305, "pitch": 70, "duration": 11, "velocity": 93}, {"time": 1308, "pitch": 53, "duration": 8, "velocity": 79}, {"time": 1311, "pitch": 65, "duration": 7, "velocity": 88}, {"time": 1314, "pitch": 58, "duration": 4, "velocity": 93}, {"time": 1320, "pitch": 61, "duration": 1, "velocity": 95}, {"time": 1329, "pitch": 44, "duration": 21, "velocity": 90}, {"time": 1329, "pitch": 56, "duration": 3, "velocity": 82}, {"time": 1329, "pitch": 59, "duration": 6, "velocity": 86}, {"time": 1332, "pitch": 51, "duration": 17, "velocity": 79}, {"time": 1335, "pitch": 56, "duration": 1, "velocity": 85}, {"time": 1338, "pitch": 56, "duration": 3, "velocity": 92}, {"time": 1338, "pitch": 59, "duration": 1, "velocity": 78}, {"time": 1338, "pitch": 63, "duration": 4, "velocity": 92}, {"time": 1353, "pitch": 44, "duration": 16, "velocity": 88}, {"time": 1353, "pitch": 56, "duration": 3, "velocity": 76}, {"time": 1353, "pitch": 59, "duration": 5, "velocity": 84}, {"time": 1356, "pitch": 51, "duration": 13, "velocity": 82}, {"time": 1359, "pitch": 56, "duration": 4, "velocity": 89}, {"time": 1362, "pitch": 59, "duration": 2, "velocity": 98}, {"time": 1368, "pitch": 56, "duration": 1, "velocity": 81}, {"time": 1368, "pitch": 59, "duration": 1, "velocity": 81}, {"time": 1368, "pitch": 63, "duration": 1, "velocity": 84}, {"time": 1377, "pitch": 37, "duration": 1, "velocity": 92}, {"time": 1377, "pitch": 61, "duration": 8, "velocity": 83}, {"time": 1377, "pitch": 65, "duration": 11, "velocity": 81}, {"time": 1383, "pitch": 49, "duration": 15, "velocity": 89}, {"time": 1386, "pitch": 56, "duration": 11, "velocity": 82}, {"time": 1389, "pitch": 61, "duration": 3, "velocity": 95}, {"time": 1392, "pitch": 68, "duration": 2, "velocity": 93}, {"time": 1401, "pitch": 49, "duration": 22, "velocity": 93}, {"time": 1401, "pitch": 61, "duration": 2, "velocity": 89}, {"time": 1401, "pitch": 73, "duration": 3, "velocity": 93}, {"time": 1404, "pitch": 56, "duration": 7, "velocity": 83}, {"time": 1407, "pitch": 61, "duration": 1, "velocity": 94}, {"time": 1410, "pitch": 61, "duration": 3, "velocity": 99}, {"time": 1410, "pitch": 65, "duration": 3, "velocity": 99}, {"time": 1410, "pitch": 68, "duration": 4, "velocity": 97}, {"time": 1413, "pitch": 56, "duration": 5, "velocity": 93}, {"time": 1416, "pitch": 61, "duration": 3, "velocity": 93}, {"time": 1416, "pitch": 65, "duration": 8, "velocity": 95}, {"time": 1416, "pitch": 68, "duration": 8, "velocity": 96}, {"time": 1416, "pitch": 73, "duration": 8, "velocity": 95}, {"time": 1419, "pitch": 53, "duration": 5, "velocity": 85}, {"time": 1422, "pitch": 56, "duration": 2, "velocity": 82}, {"time": 1425, "pitch": 42, "duration": 20, "velocity": 93}, {"time": 1425, "pitch": 54, "duration": 3, "velocity": 87}, {"time": 1425, "pitch": 58, "duration": 6, "velocity": 86}, {"time": 1428, "pitch": 49, "duration": 16, "velocity": 82}, {"time": 1431, "pitch": 54, "duration": 9, "velocity": 86}, {"time": 1434, "pitch": 61, "duration": 7, "velocity": 90}, {"time": 1449, "pitch": 42, "duration": 7, "velocity": 91}, {"time": 1449, "pitch": 54, "duration": 3, "velocity": 86}, {"time": 1449, "pitch": 58, "duration": 6, "velocity": 85}, {"time": 1449, "pitch": 61, "duration": 6, "velocity": 90}, {"time": 1452, "pitch": 49, "duration": 5, "velocity": 82}, {"time": 1455, "pitch": 54, "duration": 2, "velocity": 96}, {"time": 1461, "pitch": 41, "duration": 6, "velocity": 88}, {"time": 1461, "pitch": 56, "duration": 3, "velocity": 86}, {"time": 1461, "pitch": 61, "duration": 5, "velocity": 87}, {"time": 1464, "pitch": 49, "duration": 4, "velocity": 87}, {"time": 1467, "pitch": 56, "duration": 3, "velocity": 82}, {"time": 1470, "pitch": 61, "duration": 3, "velocity": 84}, {"time": 1473, "pitch": 39, "duration": 22, "velocity": 95}, {"time": 1476, "pitch": 46, "duration": 19, "velocity": 79}, {"time": 1479, "pitch": 54, "duration": 2, "velocity": 88}, {"time": 1482, "pitch": 54, "duration": 13, "velocity": 91}, {"time": 1482, "pitch": 58, "duration": 13, "velocity": 88}, {"time": 1497, "pitch": 39, "duration": 7, "velocity": 92}, {"time": 1497, "pitch": 54, "duration": 3, "velocity": 85}, {"time": 1497, "pitch": 58, "duration": 6, "velocity": 86}, {"time": 1500, "pitch": 46, "duration": 4, "velocity": 82}, {"time": 1503, "pitch": 54, "duration": 1, "velocity": 91}, {"time": 1509, "pitch": 37, "duration": 3, "velocity": 93}, {"time": 1509, "pitch": 56, "duration": 5, "velocity": 88}, {"time": 1509, "pitch": 61, "duration": 6, "velocity": 91}, {"time": 1521, "pitch": 47, "duration": 15, "velocity": 90}, {"time": 1521, "pitch": 54, "duration": 1, "velocity": 84}, {"time": 1521, "pitch": 59, "duration": 4, "velocity": 85}, {"time": 1524, "pitch": 54, "duration": 4, "velocity": 86}, {"time": 1527, "pitch": 59, "duration": 2, "velocity": 88}, {"time": 1530, "pitch": 54, "duration": 5, "velocity": 92}, {"time": 1530, "pitch": 59, "duration": 6, "velocity": 73}, {"time": 1530, "pitch": 63, "duration": 6, "velocity": 92}, {"time": 1545, "pitch": 46, "duration": 18, "velocity": 92}, {"time": 1545, "pitch": 58, "duration": 3, "velocity": 88}, {"time": 1545, "pitch": 61, "duration": 6, "velocity": 87}, {"time": 1548, "pitch": 53, "duration": 11, "velocity": 81}, {"time": 1551, "pitch": 58, "duration": 2, "velocity": 92}, {"time": 1554, "pitch": 65, "duration": 5, "velocity": 95}, {"time": 1569, "pitch": 44, "duration": 19, "velocity": 92}, {"time": 1569, "pitch": 56, "duration": 3, "velocity": 85}, {"time": 1569, "pitch": 59, "duration": 6, "velocity": 87}, {"time": 1572, "pitch": 51, "duration": 15, "velocity": 83}, {"time": 1575, "pitch": 56, "duration": 2, "velocity": 89}, {"time": 1578, "pitch": 59, "duration": 9, "velocity": 93}, {"time": 1587, "pitch": 63, "duration": 3, "velocity": 96}, {"time": 1590, "pitch": 56, "duration": 1, "velocity": 76}, {"time": 1593, "pitch": 37, "duration": 19, "velocity": 94}, {"time": 1593, "pitch": 56, "duration": 2, "velocity": 90}, {"time": 1593, "pitch": 61, "duration": 3, "velocity": 92}, {"time": 1596, "pitch": 44, "duration": 7, "velocity": 83}, {"time": 1599, "pitch": 61, "duration": 1, "velocity": 93}, {"time": 1602, "pitch": 61, "duration": 4, "velocity": 95}, {"time": 1602, "pitch": 65, "duration": 5, "velocity": 95}, {"time": 1605, "pitch": 44, "duration": 6, "velocity": 86}, {"time": 1611, "pitch": 61, "duration": 1, "velocity": 75}, {"time": 1617, "pitch": 42, "duration": 16, "velocity": 89}, {"time": 1617, "pitch": 61, "duration": 2, "velocity": 92}, {"time": 1617, "pitch": 70, "duration": 6, "velocity": 93}, {"time": 1620, "pitch": 61, "duration": 3, "velocity": 91}, {"time": 1623, "pitch": 66, "duration": 1, "velocity": 85}, {"time": 1626, "pitch": 61, "duration": 4, "velocity": 96}, {"time": 1626, "pitch": 68, "duration": 4, "velocity": 94}, {"time": 1629, "pitch": 49, "duration": 4, "velocity": 78}, {"time": 1632, "pitch": 61, "duration": 2, "velocity": 95}, {"time": 1632, "pitch": 66, "duration": 2, "velocity": 92}, {"time": 1641, "pitch": 37, "duration": 16, "velocity": 95}, {"time": 1641, "pitch": 61, "duration": 4, "velocity": 92}, {"time": 1641, "pitch": 68, "duration": 6, "velocity": 92}, {"time": 1647, "pitch": 44, "duration": 10, "velocity": 73}, {"time": 1650, "pitch": 65, "duration": 4, "velocity": 93}, {"time": 1650, "pitch": 68, "duration": 6, "velocity": 93}, {"time": 1656, "pitch": 61, "duration": 3, "velocity": 96}, {"time": 1659, "pitch": 73, "duration": 3, "velocity": 97}, {"time": 1665, "pitch": 39, "duration": 16, "velocity": 94}, {"time": 1665, "pitch": 63, "duration": 3, "velocity": 91}, {"time": 1665, "pitch": 66, "duration": 5, "velocity": 88}, {"time": 1668, "pitch": 46, "duration": 13, "velocity": 81}, {"time": 1671, "pitch": 63, "duration": 1, "velocity": 91}, {"time": 1674, "pitch": 63, "duration": 2, "velocity": 97}, {"time": 1674, "pitch": 70, "duration": 4, "velocity": 94}, {"time": 1680, "pitch": 63, "duration": 1, "velocity": 97}, {"time": 1680, "pitch": 66, "duration": 1, "velocity": 93}, {"time": 1689, "pitch": 37, "duration": 5, "velocity": 95}, {"time": 1689, "pitch": 61, "duration": 6, "velocity": 92}, {"time": 1689, "pitch": 65, "duration": 6, "velocity": 87}, {"time": 1695, "pitch": 56, "duration": 1, "velocity": 94}, {"time": 1701, "pitch": 42, "duration": 11, "velocity": 88}, {"time": 1701, "pitch": 61, "duration": 3, "velocity": 91}, {"time": 1701, "pitch": 64, "duration": 7, "velocity": 92}, {"time": 1707, "pitch": 61, "duration": 5, "velocity": 98}, {"time": 1713, "pitch": 47, "duration": 21, "velocity": 94}, {"time": 1713, "pitch": 59, "duration": 4, "velocity": 92}, {"time": 1713, "pitch": 66, "duration": 6, "velocity": 89}, {"time": 1716, "pitch": 54, "duration": 11, "velocity": 86}, {"time": 1719, "pitch": 59, "duration": 1, "velocity": 93}, {"time": 1722, "pitch": 59, "duration": 9, "velocity": 93}, {"time": 1722, "pitch": 63, "duration": 9, "velocity": 93}, {"time": 1722, "pitch": 66, "duration": 12, "velocity": 92}, {"time": 1731, "pitch": 54, "duration": 4, "velocity": 89}, {"time": 1734, "pitch": 59, "duration": 1, "velocity": 93}, {"time": 1737, "pitch": 46, "duration": 15, "velocity": 93}, {"time": 1737, "pitch": 58, "duration": 2, "velocity": 93}, {"time": 1737, "pitch": 61, "duration": 7, "velocity": 89}, {"time": 1743, "pitch": 58, "duration": 1, "velocity": 94}, {"time": 1746, "pitch": 58, "duration": 4, "velocity": 93}, {"time": 1746, "pitch": 65, "duration": 5, "velocity": 92}, {"time": 1749, "pitch": 53, "duration": 4, "velocity": 90}, {"time": 1752, "pitch": 58, "duration": 1, "velocity": 92}, {"time": 1752, "pitch": 61, "duration": 3, "velocity": 92}, {"time": 1755, "pitch": 58, "duration": 3, "velocity": 89}, {"time": 1758, "pitch": 61, "duration": 1, "velocity": 82}, {"time": 1761, "pitch": 44, "duration": 19, "velocity": 93}, {"time": 1761, "pitch": 56, "duration": 3, "velocity": 85}, {"time": 1761, "pitch": 59, "duration": 6, "velocity": 92}, {"time": 1764, "pitch": 51, "duration": 8, "velocity": 83}, {"time": 1767, "pitch": 56, "duration": 1, "velocity": 88}, {"time": 1770, "pitch": 54, "duration": 4, "velocity": 101}, {"time": 1770, "pitch": 59, "duration": 4, "velocity": 94}, {"time": 1776, "pitch": 54, "duration": 3, "velocity": 94}, {"time": 1776, "pitch": 59, "duration": 3, "velocity": 99}, {"time": 1776, "pitch": 63, "duration": 3, "velocity": 96}, {"time": 1779, "pitch": 51, "duration": 1, "velocity": 86}, {"time": 1782, "pitch": 56, "duration": 1, "velocity": 88}, {"time": 1785, "pitch": 37, "duration": 1, "velocity": 97}, {"time": 1785, "pitch": 56, "duration": 4, "velocity": 87}, {"time": 1785, "pitch": 61, "duration": 5, "velocity": 92}, {"time": 1791, "pitch": 49, "duration": 18, "velocity": 87}, {"time": 1794, "pitch": 56, "duration": 9, "velocity": 96}, {"time": 1797, "pitch": 61, "duration": 2, "velocity": 101}, {"time": 1800, "pitch": 65, "duration": 1, "velocity": 96}, {"time": 1803, "pitch": 61, "duration": 5, "velocity": 98}, {"time": 1806, "pitch": 56, "duration": 2, "velocity": 94}, {"time": 1809, "pitch": 42, "duration": 16, "velocity": 89}, {"time": 1809, "pitch": 61, "duration": 2, "velocity": 92}, {"time": 1809, "pitch": 70, "duration": 6, "velocity": 93}, {"time": 1812, "pitch": 61, "duration": 3, "velocity": 91}, {"time": 1815, "pitch": 66, "duration": 1, "velocity": 85}, {"time": 1818, "pitch": 61, "duration": 4, "velocity": 96}, {"time": 1818, "pitch": 68, "duration": 4, "velocity": 94}, {"time": 1821, "pitch": 49, "duration": 4, "velocity": 78}, {"time": 1824, "pitch": 61, "duration": 2, "velocity": 95}, {"time": 1824, "pitch": 66, "duration": 2, "velocity": 92}, {"time": 1833, "pitch": 37, "duration": 16, "velocity": 95}, {"time": 1833, "pitch": 61, "duration": 4, "velocity": 92}, {"time": 1833, "pitch": 68, "duration": 6, "velocity": 92}, {"time": 1839, "pitch": 44, "duration": 10, "velocity": 73}, {"time": 1842, "pitch": 65, "duration": 4, "velocity": 93}, {"time": 1842, "pitch": 68, "duration": 6, "velocity": 93}, {"time": 1848, "pitch": 61, "duration": 3, "velocity": 96}, {"time": 1851, "pitch": 73, "duration": 3, "velocity": 97}, {"time": 1857, "pitch": 39, "duration": 16, "velocity": 94}, {"time": 1857, "pitch": 63, "duration": 3, "velocity": 91}, {"time": 1857, "pitch": 66, "duration": 5, "velocity": 88}, {"time": 1860, "pitch": 46, "duration": 13, "velocity": 81}, {"time": 1863, "pitch": 63, "duration": 1, "velocity": 91}, {"time": 1866, "pitch": 63, "duration": 2, "velocity": 97}, {"time": 1866, "pitch": 70, "duration": 4, "velocity": 94}, {"time": 1872, "pitch": 63, "duration": 1, "velocity": 97}, {"time": 1872, "pitch": 66, "duration": 1, "velocity": 93}, {"time": 1881, "pitch": 37, "duration": 5, "velocity": 95}, {"time": 1881, "pitch": 61, "duration": 6, "velocity": 92}, {"time": 1881, "pitch": 65, "duration": 6, "velocity": 87}, {"time": 1887, "pitch": 56, "duration": 1, "velocity": 94}, {"time": 1893, "pitch": 42, "duration": 11, "velocity": 88}, {"time": 1893, "pitch": 61, "duration": 3, "velocity": 91}, {"time": 1893, "pitch": 64, "duration": 7, "velocity": 92}, {"time": 1899, "pitch": 61, "duration": 5, "velocity": 98}, {"time": 1905, "pitch": 47, "duration": 21, "velocity": 94}, {"time": 1905, "pitch": 59, "duration": 4, "velocity": 92}, {"time": 1905, "pitch": 66, "duration": 6, "velocity": 89}, {"time": 1908, "pitch": 54, "duration": 11, "velocity": 86}, {"time": 1911, "pitch": 59, "duration": 1, "velocity": 93}, {"time": 1914, "pitch": 59, "duration": 9, "velocity": 93}, {"time": 1914, "pitch": 63, "duration": 9, "velocity": 93}, {"time": 1914, "pitch": 66, "duration": 12, "velocity": 92}, {"time": 1923, "pitch": 54, "duration": 4, "velocity": 89}, {"time": 1926, "pitch": 59, "duration": 1, "velocity": 93}, {"time": 1929, "pitch": 46, "duration": 15, "velocity": 93}, {"time": 1929, "pitch": 58, "duration": 2, "velocity": 93}, {"time": 1929, "pitch": 61, "duration": 7, "velocity": 89}, {"time": 1935, "pitch": 58, "duration": 1, "velocity": 94}, {"time": 1938, "pitch": 58, "duration": 4, "velocity": 93}, {"time": 1938, "pitch": 65, "duration": 5, "velocity": 92}, {"time": 1941, "pitch": 53, "duration": 4, "velocity": 90}, {"time": 1944, "pitch": 58, "duration": 1, "velocity": 92}, {"time": 1944, "pitch": 61, "duration": 3, "velocity": 92}, {"time": 1947, "pitch": 58, "duration": 3, "velocity": 89}, {"time": 1950, "pitch": 61, "duration": 1, "velocity": 82}, {"time": 1953, "pitch": 44, "duration": 19, "velocity": 93}, {"time": 1953, "pitch": 56, "duration": 3, "velocity": 85}, {"time": 1953, "pitch": 59, "duration": 6, "velocity": 92}, {"time": 1956, "pitch": 51, "duration": 8, "velocity": 83}, {"time": 1959, "pitch": 56, "duration": 1, "velocity": 88}, {"time": 1962, "pitch": 54, "duration": 4, "velocity": 101}, {"time": 1962, "pitch": 59, "duration": 4, "velocity": 94}, {"time": 1968, "pitch": 54, "duration": 3, "velocity": 94}, {"time": 1968, "pitch": 59, "duration": 3, "velocity": 99}, {"time": 1968, "pitch": 63, "duration": 3, "velocity": 96}, {"time": 1971, "pitch": 51, "duration": 1, "velocity": 86}, {"time": 1974, "pitch": 56, "duration": 1, "velocity": 88}, {"time": 1977, "pitch": 37, "duration": 1, "velocity": 97}, {"time": 1977, "pitch": 56, "duration": 4, "velocity": 87}, {"time": 1977, "pitch": 61, "duration": 5, "velocity": 92}, {"time": 1983, "pitch": 49, "duration": 18, "velocity": 87}, {"time": 1986, "pitch": 56, "duration": 9, "velocity": 96}, {"time": 1989, "pitch": 61, "duration": 2, "velocity": 101}, {"time": 1992, "pitch": 65, "duration": 1, "velocity": 96}, {"time": 1995, "pitch": 61, "duration": 5, "velocity": 98}, {"time": 1998, "pitch": 56, "duration": 2, "velocity": 94}, {"time": 2001, "pitch": 42, "duration": 22, "velocity": 91}, {"time": 2001, "pitch": 61, "duration": 10, "velocity": 92}, {"time": 2004, "pitch": 49, "duration": 18, "velocity": 77}, {"time": 2007, "pitch": 54, "duration": 3, "velocity": 88}, {"time": 2010, "pitch": 66, "duration": 2, "velocity": 92}, {"time": 2016, "pitch": 61, "duration": 2, "velocity": 82}, {"time": 2016, "pitch": 70, "duration": 3, "velocity": 88}, {"time": 2022, "pitch": 61, "duration": 1, "velocity": 62}, {"time": 2025, "pitch": 43, "duration": 21, "velocity": 97}, {"time": 2025, "pitch": 55, "duration": 3, "velocity": 90}, {"time": 2025, "pitch": 59, "duration": 4, "velocity": 92}, {"time": 2025, "pitch": 62, "duration": 5, "velocity": 89}, {"time": 2028, "pitch": 50, "duration": 7, "velocity": 81}, {"time": 2031, "pitch": 55, "duration": 1, "velocity": 97}, {"time": 2034, "pitch": 55, "duration": 4, "velocity": 98}, {"time": 2034, "pitch": 59, "duration": 4, "velocity": 96}, {"time": 2034, "pitch": 62, "duration": 4, "velocity": 93}, {"time": 2034, "pitch": 67, "duration": 4, "velocity": 88}, {"time": 2037, "pitch": 50, "duration": 13, "velocity": 84}, {"time": 2040, "pitch": 59, "duration": 1, "velocity": 90}, {"time": 2040, "pitch": 62, "duration": 4, "velocity": 87}, {"time": 2043, "pitch": 55, "duration": 6, "velocity": 108}, {"time": 2046, "pitch": 67, "duration": 3, "velocity": 94}, {"time": 2049, "pitch": 43, "duration": 16, "velocity": 89}, {"time": 2049, "pitch": 62, "duration": 2, "velocity": 92}, {"time": 2049, "pitch": 71, "duration": 6, "velocity": 93}, {"time": 2052, "pitch": 62, "duration": 3, "velocity": 91}, {"time": 2055, "pitch": 67, "duration": 1, "velocity": 85}, {"time": 2058, "pitch": 62, "duration": 4, "velocity": 96}, {"time": 2058, "pitch": 69, "duration": 4, "velocity": 94}, {"time": 2061, "pitch": 50, "duration": 4, "velocity": 78}, {"time": 2064, "pitch": 62, "duration": 2, "velocity": 95}, {"time": 2064, "pitch": 67, "duration": 2, "velocity": 92}, {"time": 2067, "pitch": 43, "duration": 5, "velocity": 97}, {"time": 2073, "pitch": 38, "duration": 16, "velocity": 95}, {"time": 2073, "pitch": 62, "duration": 4, "velocity": 92}, {"time": 2073, "pitch": 69, "duration": 6, "velocity": 92}, {"time": 2079, "pitch": 45, "duration": 10, "velocity": 73}, {"time": 2082, "pitch": 66, "duration": 4, "velocity": 93}, {"time": 2082, "pitch": 69, "duration": 6, "velocity": 93}, {"time": 2088, "pitch": 62, "duration": 3, "velocity": 96}, {"time": 2091, "pitch": 74, "duration": 3, "velocity": 97}, {"time": 2097, "pitch": 40, "duration": 16, "velocity": 94}, {"time": 2097, "pitch": 64, "duration": 3, "velocity": 91}, {"time": 2097, "pitch": 67, "duration": 5, "velocity": 88}, {"time": 2100, "pitch": 47, "duration": 13, "velocity": 81}, {"time": 2103, "pitch": 64, "duration": 1, "velocity": 91}, {"time": 2106, "pitch": 64, "duration": 2, "velocity": 97}, {"time": 2106, "pitch": 71, "duration": 4, "velocity": 94}, {"time": 2112, "pitch": 64, "duration": 1, "velocity": 97}, {"time": 2112, "pitch": 67, "duration": 1, "velocity": 93}, {"time": 2115, "pitch": 40, "duration": 5, "velocity": 97}, {"time": 2121, "pitch": 38, "duration": 5, "velocity": 95}, {"time": 2121, "pitch": 62, "duration": 6, "velocity": 92}, {"time": 2121, "pitch": 66, "duration": 6, "velocity": 87}, {"time": 2127, "pitch": 57, "duration": 1, "velocity": 94}, {"time": 2133, "pitch": 43, "duration": 11, "velocity": 88}, {"time": 2133, "pitch": 62, "duration": 3, "velocity": 91}, {"time": 2133, "pitch": 65, "duration": 7, "velocity": 92}, {"time": 2139, "pitch": 62, "duration": 5, "velocity": 98}, {"time": 2145, "pitch": 48, "duration": 21, "velocity": 94}, {"time": 2145, "pitch": 60, "duration": 4, "velocity": 92}, {"time": 2145, "pitch": 67, "duration": 6, "velocity": 89}, {"time": 2148, "pitch": 55, "duration": 11, "velocity": 86}, {"time": 2151, "pitch": 60, "duration": 1, "velocity": 93}, {"time": 2154, "pitch": 60, "duration": 9, "velocity": 93}, {"time": 2154, "pitch": 64, "duration": 9, "velocity": 93}, {"time": 2154, "pitch": 67, "duration": 12, "velocity": 92}, {"time": 2163, "pitch": 55, "duration": 4, "velocity": 89}, {"time": 2166, "pitch": 60, "duration": 1, "velocity": 93}, {"time": 2169, "pitch": 47, "duration": 15, "velocity": 93}, {"time": 2169, "pitch": 59, "duration": 2, "velocity": 93}, {"time": 2169, "pitch": 62, "duration": 7, "velocity": 89}, {"time": 2175, "pitch": 59, "duration": 1, "velocity": 94}, {"time": 2178, "pitch": 59, "duration": 4, "velocity": 93}, {"time": 2178, "pitch": 66, "duration": 5, "velocity": 92}, {"time": 2181, "pitch": 54, "duration": 4, "velocity": 90}, {"time": 2184, "pitch": 59, "duration": 1, "velocity": 92}, {"time": 2184, "pitch": 62, "duration": 3, "velocity": 92}, {"time": 2187, "pitch": 59, "duration": 3, "velocity": 89}, {"time": 2190, "pitch": 62, "duration": 1, "velocity": 82}, {"time": 2193, "pitch": 45, "duration": 19, "velocity": 93}, {"time": 2193, "pitch": 57, "duration": 3, "velocity": 85}, {"time": 2193, "pitch": 60, "duration": 6, "velocity": 92}, {"time": 2196, "pitch": 52, "duration": 8, "velocity": 83}, {"time": 2199, "pitch": 57, "duration": 1, "velocity": 88}, {"time": 2202, "pitch": 55, "duration": 4, "velocity": 101}, {"time": 2202, "pitch": 60, "duration": 4, "velocity": 94}, {"time": 2208, "pitch": 55, "duration": 3, "velocity": 94}, {"time": 2208, "pitch": 60, "duration": 3, "velocity": 99}, {"time": 2208, "pitch": 64, "duration": 3, "velocity": 96}, {"time": 2211, "pitch": 52, "duration": 1, "velocity": 86}, {"time": 2214, "pitch": 57, "duration": 1, "velocity": 88}, {"time": 2217, "pitch": 38, "duration": 1, "velocity": 97}, {"time": 2217, "pitch": 57, "duration": 4, "velocity": 87}, {"time": 2217, "pitch": 62, "duration": 5, "velocity": 92}, {"time": 2223, "pitch": 50, "duration": 18, "velocity": 87}, {"time": 2226, "pitch": 57, "duration": 9, "velocity": 96}, {"time": 2229, "pitch": 62, "duration": 2, "velocity": 101}, {"time": 2232, "pitch": 66, "duration": 1, "velocity": 96}, {"time": 2235, "pitch": 62, "duration": 5, "velocity": 98}, {"time": 2238, "pitch": 57, "duration": 2, "velocity": 94}, {"time": 2241, "pitch": 43, "duration": 16, "velocity": 89}, {"time": 2241, "pitch": 62, "duration": 2, "velocity": 92}, {"time": 2241, "pitch": 71, "duration": 6, "velocity": 93}, {"time": 2244, "pitch": 62, "duration": 3, "velocity": 91}, {"time": 2247, "pitch": 67, "duration": 1, "velocity": 85}, {"time": 2250, "pitch": 62, "duration": 4, "velocity": 96}, {"time": 2250, "pitch": 69, "duration": 4, "velocity": 94}, {"time": 2253, "pitch": 50, "duration": 4, "velocity": 78}, {"time": 2256, "pitch": 62, "duration": 2, "velocity": 95}, {"time": 2256, "pitch": 67, "duration": 2, "velocity": 92}, {"time": 2259, "pitch": 43, "duration": 5, "velocity": 97}, {"time": 2265, "pitch": 38, "duration": 16, "velocity": 95}, {"time": 2265, "pitch": 62, "duration": 4, "velocity": 92}, {"time": 2265, "pitch": 69, "duration": 6, "velocity": 92}, {"time": 2271, "pitch": 45, "duration": 10, "velocity": 73}, {"time": 2274, "pitch": 66, "duration": 4, "velocity": 93}, {"time": 2274, "pitch": 69, "duration": 6, "velocity": 93}, {"time": 2280, "pitch": 62, "duration": 3, "velocity": 96}, {"time": 2283, "pitch": 74, "duration": 3, "velocity": 97}, {"time": 2289, "pitch": 40, "duration": 16, "velocity": 94}, {"time": 2289, "pitch": 64, "duration": 3, "velocity": 91}, {"time": 2289, "pitch": 67, "duration": 5, "velocity": 88}, {"time": 2292, "pitch": 47, "duration": 13, "velocity": 81}, {"time": 2295, "pitch": 64, "duration": 1, "velocity": 91}, {"time": 2298, "pitch": 64, "duration": 2, "velocity": 97}, {"time": 2298, "pitch": 71, "duration": 4, "velocity": 94}, {"time": 2304, "pitch": 64, "duration": 1, "velocity": 97}, {"time": 2304, "pitch": 67, "duration": 1, "velocity": 93}, {"time": 2307, "pitch": 40, "duration": 4, "velocity": 97}, {"time": 2313, "pitch": 38, "duration": 5, "velocity": 95}, {"time": 2313, "pitch": 62, "duration": 6, "velocity": 92}, {"time": 2313, "pitch": 66, "duration": 6, "velocity": 87}, {"time": 2319, "pitch": 57, "duration": 1, "velocity": 94}, {"time": 2325, "pitch": 43, "duration": 11, "velocity": 88}, {"time": 2325, "pitch": 62, "duration": 3, "velocity": 91}, {"time": 2325, "pitch": 65, "duration": 7, "velocity": 92}, {"time": 2331, "pitch": 62, "duration": 5, "velocity": 98}, {"time": 2337, "pitch": 48, "duration": 21, "velocity": 94}, {"time": 2337, "pitch": 60, "duration": 4, "velocity": 92}, {"time": 2337, "pitch": 67, "duration": 6, "velocity": 89}, {"time": 2340, "pitch": 55, "duration": 11, "velocity": 86}, {"time": 2343, "pitch": 60, "duration": 1, "velocity": 93}, {"time": 2346, "pitch": 60, "duration": 9, "velocity": 93}, {"time": 2346, "pitch": 64, "duration": 9, "velocity": 93}, {"time": 2346, "pitch": 67, "duration": 12, "velocity": 92}, {"time": 2355, "pitch": 55, "duration": 4, "velocity": 89}, {"time": 2358, "pitch": 60, "duration": 1, "velocity": 93}, {"time": 2361, "pitch": 47, "duration": 15, "velocity": 93}, {"time": 2361, "pitch": 59, "duration": 2, "velocity": 93}, {"time": 2361, "pitch": 62, "duration": 7, "velocity": 89}, {"time": 2367, "pitch": 59, "duration": 1, "velocity": 94}, {"time": 2370, "pitch": 59, "duration": 4, "velocity": 93}, {"time": 2370, "pitch": 66, "duration": 5, "velocity": 92}, {"time": 2373, "pitch": 54, "duration": 4, "velocity": 90}, {"time": 2376, "pitch": 59, "duration": 1, "velocity": 92}, {"time": 2376, "pitch": 62, "duration": 3, "velocity": 92}, {"time": 2379, "pitch": 59, "duration": 3, "velocity": 89}, {"time": 2382, "pitch": 62, "duration": 1, "velocity": 82}, {"time": 2385, "pitch": 45, "duration": 19, "velocity": 93}, {"time": 2385, "pitch": 57, "duration": 3, "velocity": 85}, {"time": 2385, "pitch": 60, "duration": 6, "velocity": 92}, {"time": 2388, "pitch": 52, "duration": 8, "velocity": 83}, {"time": 2388, "pitch": 45, "duration": 16, "velocity": 93}, {"time": 2388, "pitch": 60, "duration": 3, "velocity": 92}, {"time": 2391, "pitch": 57, "duration": 1, "velocity": 88}, {"time": 2394, "pitch": 55, "duration": 4, "velocity": 101}, {"time": 2394, "pitch": 60, "duration": 4, "velocity": 94}, {"time": 2400, "pitch": 55, "duration": 3, "velocity": 94}, {"time": 2400, "pitch": 60, "duration": 3, "velocity": 99}, {"time": 2400, "pitch": 64, "duration": 3, "velocity": 96}, {"time": 2403, "pitch": 52, "duration": 1, "velocity": 86}, {"time": 2406, "pitch": 57, "duration": 1, "velocity": 88}, {"time": 2409, "pitch": 38, "duration": 1, "velocity": 97}, {"time": 2409, "pitch": 57, "duration": 4, "velocity": 87}, {"time": 2409, "pitch": 62, "duration": 5, "velocity": 92}, {"time": 2415, "pitch": 50, "duration": 18, "velocity": 87}, {"time": 2418, "pitch": 57, "duration": 9, "velocity": 96}, {"time": 2421, "pitch": 62, "duration": 2, "velocity": 101}, {"time": 2424, "pitch": 66, "duration": 1, "velocity": 96}, {"time": 2427, "pitch": 62, "duration": 5, "velocity": 98}, {"time": 2430, "pitch": 57, "duration": 2, "velocity": 94}, {"time": 2432, "pitch": 55, "duration": 5, "velocity": 87}, {"time": 2433, "pitch": 62, "duration": 8, "velocity": 86}, {"time": 2433, "pitch": 43, "duration": 40, "velocity": 94}, {"time": 2436, "pitch": 50, "duration": 37, "velocity": 79}, {"time": 2439, "pitch": 55, "duration": 3, "velocity": 71}, {"time": 2439, "pitch": 59, "duration": 5, "velocity": 84}, {"time": 2443, "pitch": 67, "duration": 43, "velocity": 92}, {"time": 2447, "pitch": 62, "duration": 38, "velocity": 82}, {"time": 2451, "pitch": 57, "duration": 34, "velocity": 67}, {"time": 2453, "pitch": 59, "duration": 34, "velocity": 76}], "annotations": [{"time": 47, "annotation": {"number": 64, "value": 127}, "group": "control_change"}, {"time": 159, "annotation": {"number": 64, "value": 0}, "group": "control_change"}, {"time": 166, "annotation": {"number": 64, "value": 127}, "group": "control_change"}, {"time": 216, "annotation": {"number": 64, "value": 0}, "group": "control_change"}, {"time": 225, "annotation": {"number": 64, "value": 127}, "group": "control_change"}, {"time": 248, "annotation": {"number": 64, "value": 0}, "group": "control_change"}, {"time": 250, "annotation": {"number": 64, "value": 127}, "group": "control_change"}, {"time": 272, "annotation": {"number": 64, "value": 0}, "group": "control_change"}, {"time": 274, "annotation": {"number": 64, "value": 127}, "group": "control_change"}, {"time": 295, "annotation": {"number": 64, "value": 0}, "group": "control_change"}, {"time": 297, "annotation": {"number": 64, "value": 127}, "group": "control_change"}, {"time": 320, "annotation": {"number": 64, "value": 0}, "group": "control_change"}, {"time": 322, "annotation": {"number": 64, "value": 127}, "group": "control_change"}, {"time": 344, "annotation": {"number": 64, "value": 0}, "group": "control_change"}, {"time": 346, "annotation": {"number": 64, "value": 127}, "group": "control_change"}, {"time": 368, "annotation": {"number": 64, "value": 0}, "group": "control_change"}, {"time": 370, "annotation": {"number": 64, "value": 127}, "group": "control_change"}, {"time": 386, "annotation": {"number": 64, "value": 0}, "group": "control_change"}, {"time": 417, "annotation": {"number": 64, "value": 127}, "group": "control_change"}, {"time": 418, "annotation": {"number": 64, "value": 0}, "group": "control_change"}, {"time": 418, "annotation": {"number": 64, "value": 127}, "group": "control_change"}, {"time": 442, "annotation": {"number": 64, "value": 0}, "group": "control_change"}, {"time": 443, "annotation": {"number": 64, "value": 127}, "group": "control_change"}, {"time": 452, "annotation": {"number": 64, "value": 0}, "group": "control_change"}, {"time": 454, "annotation": {"number": 64, "value": 127}, "group": "control_change"}, {"time": 464, "annotation": {"number": 64, "value": 0}, "group": "control_change"}, {"time": 466, "annotation": {"number": 64, "value": 127}, "group": "control_change"}, {"time": 488, "annotation": {"number": 64, "value": 0}, "group": "control_change"}, {"time": 489, "annotation": {"number": 64, "value": 127}, "group": "control_change"}, {"time": 500, "annotation": {"number": 64, "value": 0}, "group": "control_change"}, {"time": 502, "annotation": {"number": 64, "value": 127}, "group": "control_change"}, {"time": 512, "annotation": {"number": 64, "value": 0}, "group": "control_change"}, {"time": 514, "annotation": {"number": 64, "value": 127}, "group": "control_change"}, {"time": 536, "annotation": {"number": 64, "value": 0}, "group": "control_change"}, {"time": 538, "annotation": {"number": 64, "value": 127}, "group": "control_change"}, {"time": 560, "annotation": {"number": 64, "value": 0}, "group": "control_change"}, {"time": 562, "annotation": {"number": 64, "value": 127}, "group": "control_change"}, {"time": 585, "annotation": {"number": 64, "value": 127}, "group": "control_change"}, {"time": 585, "annotation": {"number": 64, "value": 0}, "group": "control_change"}, {"time": 608, "annotation": {"number": 64, "value": 0}, "group": "control_change"}, {"time": 612, "annotation": {"number": 64, "value": 127}, "group": "control_change"}, {"time": 632, "annotation": {"number": 64, "value": 0}, "group": "control_change"}, {"time": 635, "annotation": {"number": 64, "value": 127}, "group": "control_change"}, {"time": 644, "annotation": {"number": 64, "value": 0}, "group": "control_change"}, {"time": 646, "annotation": {"number": 64, "value": 127}, "group": "control_change"}, {"time": 655, "annotation": {"number": 64, "value": 0}, "group": "control_change"}, {"time": 658, "annotation": {"number": 64, "value": 127}, "group": "control_change"}, {"time": 680, "annotation": {"number": 64, "value": 0}, "group": "control_change"}, {"time": 682, "annotation": {"number": 64, "value": 127}, "group": "control_change"}, {"time": 692, "annotation": {"number": 64, "value": 0}, "group": "control_change"}, {"time": 693, "annotation": {"number": 64, "value": 127}, "group": "control_change"}, {"time": 702, "annotation": {"number": 64, "value": 0}, "group": "control_change"}, {"time": 706, "annotation": {"number": 64, "value": 127}, "group": "control_change"}, {"time": 728, "annotation": {"number": 64, "value": 0}, "group": "control_change"}, {"time": 730, "annotation": {"number": 64, "value": 127}, "group": "control_change"}, {"time": 751, "annotation": {"number": 64, "value": 0}, "group": "control_change"}, {"time": 754, "annotation": {"number": 64, "value": 127}, "group": "control_change"}, {"time": 775, "annotation": {"number": 64, "value": 0}, "group": "control_change"}, {"time": 777, "annotation": {"number": 64, "value": 127}, "group": "control_change"}, {"time": 800, "annotation": {"number": 64, "value": 0}, "group": "control_change"}, {"time": 800, "annotation": {"number": 64, "value": 127}, "group": "control_change"}, {"time": 823, "annotation": {"number": 64, "value": 0}, "group": "control_change"}, {"time": 825, "annotation": {"number": 64, "value": 127}, "group": "control_change"}, {"time": 848, "annotation": {"number": 64, "value": 0}, "group": "control_change"}, {"time": 850, "annotation": {"number": 64, "value": 127}, "group": "control_change"}, {"time": 872, "annotation": {"number": 64, "value": 127}, "group": "control_change"}, {"time": 872, "annotation": {"number": 64, "value": 0}, "group": "control_change"}, {"time": 876, "annotation": {"number": 64, "value": 0}, "group": "control_change"}, {"time": 877, "annotation": {"number": 64, "value": 127}, "group": "control_change"}, {"time": 885, "annotation": {"number": 64, "value": 0}, "group": "control_change"}, {"time": 886, "annotation": {"number": 64, "value": 127}, "group": "control_change"}, {"time": 896, "annotation": {"number": 64, "value": 0}, "group": "control_change"}, {"time": 898, "annotation": {"number": 64, "value": 127}, "group": "control_change"}, {"time": 898, "annotation": {"number": 64, "value": 0}, "group": "control_change"}, {"time": 920, "annotation": {"number": 64, "value": 0}, "group": "control_change"}, {"time": 922, "annotation": {"number": 64, "value": 127}, "group": "control_change"}, {"time": 944, "annotation": {"number": 64, "value": 0}, "group": "control_change"}, {"time": 946, "annotation": {"number": 64, "value": 127}, "group": "control_change"}, {"time": 968, "annotation": {"number": 64, "value": 0}, "group": "control_change"}, {"time": 969, "annotation": {"number": 64, "value": 127}, "group": "control_change"}, {"time": 990, "annotation": {"number": 64, "value": 0}, "group": "control_change"}, {"time": 1015, "annotation": {"number": 64, "value": 0}, "group": "control_change"}, {"time": 1017, "annotation": {"number": 64, "value": 127}, "group": "control_change"}, {"time": 1040, "annotation": {"number": 64, "value": 0}, "group": "control_change"}, {"time": 1042, "annotation": {"number": 64, "value": 127}, "group": "control_change"}, {"time": 1064, "annotation": {"number": 64, "value": 127}, "group": "control_change"}, {"time": 1064, "annotation": {"number": 64, "value": 0}, "group": "control_change"}, {"time": 1068, "annotation": {"number": 64, "value": 0}, "group": "control_change"}, {"time": 1069, "annotation": {"number": 64, "value": 127}, "group": "control_change"}, {"time": 1077, "annotation": {"number": 64, "value": 0}, "group": "control_change"}, {"time": 1078, "annotation": {"number": 64, "value": 127}, "group": "control_change"}, {"time": 1088, "annotation": {"number": 64, "value": 0}, "group": "control_change"}, {"time": 1090, "annotation": {"number": 64, "value": 127}, "group": "control_change"}, {"time": 1090, "annotation": {"number": 64, "value": 0}, "group": "control_change"}, {"time": 1112, "annotation": {"number": 64, "value": 0}, "group": "control_change"}, {"time": 1114, "annotation": {"number": 64, "value": 127}, "group": "control_change"}, {"time": 1136, "annotation": {"number": 64, "value": 0}, "group": "control_change"}, {"time": 1138, "annotation": {"number": 64, "value": 127}, "group": "control_change"}, {"time": 1160, "annotation": {"number": 64, "value": 0}, "group": "control_change"}, {"time": 1161, "annotation": {"number": 64, "value": 127}, "group": "control_change"}, {"time": 1182, "annotation": {"number": 64, "value": 0}, "group": "control_change"}, {"time": 1186, "annotation": {"number": 64, "value": 127}, "group": "control_change"}, {"time": 1186, "annotation": {"number": 64, "value": 0}, "group": "control_change"}, {"time": 1229, "annotation": {"number": 64, "value": 0}, "group": "control_change"}, {"time": 1234, "annotation": {"number": 64, "value": 127}, "group": "control_change"}, {"time": 1260, "annotation": {"number": 64, "value": 0}, "group": "control_change"}, {"time": 1262, "annotation": {"number": 64, "value": 127}, "group": "control_change"}, {"time": 1280, "annotation": {"number": 64, "value": 0}, "group": "control_change"}, {"time": 1282, "annotation": {"number": 64, "value": 127}, "group": "control_change"}, {"time": 1304, "annotation": {"number": 64, "value": 0}, "group": "control_change"}, {"time": 1305, "annotation": {"number": 64, "value": 127}, "group": "control_change"}, {"time": 1328, "annotation": {"number": 64, "value": 0}, "group": "control_change"}, {"time": 1331, "annotation": {"number": 64, "value": 127}, "group": "control_change"}, {"time": 1353, "annotation": {"number": 64, "value": 0}, "group": "control_change"}, {"time": 1355, "annotation": {"number": 64, "value": 127}, "group": "control_change"}, {"time": 1376, "annotation": {"number": 64, "value": 0}, "group": "control_change"}, {"time": 1377, "annotation": {"number": 64, "value": 127}, "group": "control_change"}, {"time": 1421, "annotation": {"number": 64, "value": 0}, "group": "control_change"}, {"time": 1428, "annotation": {"number": 64, "value": 127}, "group": "control_change"}, {"time": 1448, "annotation": {"number": 64, "value": 0}, "group": "control_change"}, {"time": 1451, "annotation": {"number": 64, "value": 127}, "group": "control_change"}, {"time": 1460, "annotation": {"number": 64, "value": 0}, "group": "control_change"}, {"time": 1462, "annotation": {"number": 64, "value": 127}, "group": "control_change"}, {"time": 1471, "annotation": {"number": 64, "value": 0}, "group": "control_change"}, {"time": 1474, "annotation": {"number": 64, "value": 127}, "group": "control_change"}, {"time": 1496, "annotation": {"number": 64, "value": 0}, "group": "control_change"}, {"time": 1498, "annotation": {"number": 64, "value": 127}, "group": "control_change"}, {"time": 1508, "annotation": {"number": 64, "value": 0}, "group": "control_change"}, {"time": 1509, "annotation": {"number": 64, "value": 127}, "group": "control_change"}, {"time": 1518, "annotation": {"number": 64, "value": 0}, "group": "control_change"}, {"time": 1522, "annotation": {"number": 64, "value": 127}, "group": "control_change"}, {"time": 1544, "annotation": {"number": 64, "value": 0}, "group": "control_change"}, {"time": 1546, "annotation": {"number": 64, "value": 127}, "group": "control_change"}, {"time": 1567, "annotation": {"number": 64, "value": 0}, "group": "control_change"}, {"time": 1570, "annotation": {"number": 64, "value": 127}, "group": "control_change"}, {"time": 1591, "annotation": {"number": 64, "value": 0}, "group": "control_change"}, {"time": 1593, "annotation": {"number": 64, "value": 127}, "group": "control_change"}, {"time": 1616, "annotation": {"number": 64, "value": 0}, "group": "control_change"}, {"time": 1616, "annotation": {"number": 64, "value": 127}, "group": "control_change"}, {"time": 1639, "annotation": {"number": 64, "value": 0}, "group": "control_change"}, {"time": 1641, "annotation": {"number": 64, "value": 127}, "group": "control_change"}, {"time": 1664, "annotation": {"number": 64, "value": 0}, "group": "control_change"}, {"time": 1666, "annotation": {"number": 64, "value": 127}, "group": "control_change"}, {"time": 1688, "annotation": {"number": 64, "value": 127}, "group": "control_change"}, {"time": 1688, "annotation": {"number": 64, "value": 0}, "group": "control_change"}, {"time": 1692, "annotation": {"number": 64, "value": 0}, "group": "control_change"}, {"time": 1693, "annotation": {"number": 64, "value": 127}, "group": "control_change"}, {"time": 1701, "annotation": {"number": 64, "value": 0}, "group": "control_change"}, {"time": 1702, "annotation": {"number": 64, "value": 127}, "group": "control_change"}, {"time": 1712, "annotation": {"number": 64, "value": 0}, "group": "control_change"}, {"time": 1714, "annotation": {"number": 64, "value": 127}, "group": "control_change"}, {"time": 1714, "annotation": {"number": 64, "value": 0}, "group": "control_change"}, {"time": 1736, "annotation": {"number": 64, "value": 0}, "group": "control_change"}, {"time": 1738, "annotation": {"number": 64, "value": 127}, "group": "control_change"}, {"time": 1760, "annotation": {"number": 64, "value": 0}, "group": "control_change"}, {"time": 1762, "annotation": {"number": 64, "value": 127}, "group": "control_change"}, {"time": 1784, "annotation": {"number": 64, "value": 0}, "group": "control_change"}, {"time": 1785, "annotation": {"number": 64, "value": 127}, "group": "control_change"}, {"time": 1806, "annotation": {"number": 64, "value": 0}, "group": "control_change"}, {"time": 1831, "annotation": {"number": 64, "value": 0}, "group": "control_change"}, {"time": 1833, "annotation": {"number": 64, "value": 127}, "group": "control_change"}, {"time": 1856, "annotation": {"number": 64, "value": 0}, "group": "control_change"}, {"time": 1858, "annotation": {"number": 64, "value": 127}, "group": "control_change"}, {"time": 1880, "annotation": {"number": 64, "value": 127}, "group": "control_change"}, {"time": 1880, "annotation": {"number": 64, "value": 0}, "group": "control_change"}, {"time": 1884, "annotation": {"number": 64, "value": 0}, "group": "control_change"}, {"time": 1885, "annotation": {"number": 64, "value": 127}, "group": "control_change"}, {"time": 1893, "annotation": {"number": 64, "value": 0}, "group": "control_change"}, {"time": 1894, "annotation": {"number": 64, "value": 127}, "group": "control_change"}, {"time": 1904, "annotation": {"number": 64, "value": 0}, "group": "control_change"}, {"time": 1906, "annotation": {"number": 64, "value": 127}, "group": "control_change"}, {"time": 1906, "annotation": {"number": 64, "value": 0}, "group": "control_change"}, {"time": 1928, "annotation": {"number": 64, "value": 0}, "group": "control_change"}, {"time": 1930, "annotation": {"number": 64, "value": 127}, "group": "control_change"}, {"time": 1952, "annotation": {"number": 64, "value": 0}, "group": "control_change"}, {"time": 1954, "annotation": {"number": 64, "value": 127}, "group": "control_change"}, {"time": 1976, "annotation": {"number": 64, "value": 0}, "group": "control_change"}, {"time": 1977, "annotation": {"number": 64, "value": 127}, "group": "control_change"}, {"time": 1998, "annotation": {"number": 64, "value": 0}, "group": "control_change"}, {"time": 2002, "annotation": {"number": 64, "value": 127}, "group": "control_change"}, {"time": 2002, "annotation": {"number": 64, "value": 0}, "group": "control_change"}, {"time": 2015, "annotation": {"number": 64, "value": 127}, "group": "control_change"}, {"time": 2023, "annotation": {"number": 64, "value": 0}, "group": "control_change"}, {"time": 2024, "annotation": {"number": 64, "value": 127}, "group": "control_change"}, {"time": 2025, "annotation": {"number": 64, "value": 127}, "group": "control_change"}, {"time": 2034, "annotation": {"number": 64, "value": 0}, "group": "control_change"}, {"time": 2036, "annotation": {"number": 64, "value": 127}, "group": "control_change"}, {"time": 2047, "annotation": {"number": 64, "value": 0}, "group": "control_change"}, {"time": 2048, "annotation": {"number": 64, "value": 0}, "group": "control_change"}, {"time": 2071, "annotation": {"number": 64, "value": 0}, "group": "control_change"}, {"time": 2073, "annotation": {"number": 64, "value": 127}, "group": "control_change"}, {"time": 2096, "annotation": {"number": 64, "value": 0}, "group": "control_change"}, {"time": 2098, "annotation": {"number": 64, "value": 127}, "group": "control_change"}, {"time": 2120, "annotation": {"number": 64, "value": 127}, "group": "control_change"}, {"time": 2120, "annotation": {"number": 64, "value": 0}, "group": "control_change"}, {"time": 2124, "annotation": {"number": 64, "value": 0}, "group": "control_change"}, {"time": 2125, "annotation": {"number": 64, "value": 127}, "group": "control_change"}, {"time": 2133, "annotation": {"number": 64, "value": 0}, "group": "control_change"}, {"time": 2134, "annotation": {"number": 64, "value": 127}, "group": "control_change"}, {"time": 2144, "annotation": {"number": 64, "value": 0}, "group": "control_change"}, {"time": 2146, "annotation": {"number": 64, "value": 127}, "group": "control_change"}, {"time": 2146, "annotation": {"number": 64, "value": 0}, "group": "control_change"}, {"time": 2168, "annotation": {"number": 64, "value": 0}, "group": "control_change"}, {"time": 2170, "annotation": {"number": 64, "value": 127}, "group": "control_change"}, {"time": 2192, "annotation": {"number": 64, "value": 0}, "group": "control_change"}, {"time": 2194, "annotation": {"number": 64, "value": 127}, "group": "control_change"}, {"time": 2216, "annotation": {"number": 64, "value": 0}, "group": "control_change"}, {"time": 2217, "annotation": {"number": 64, "value": 127}, "group": "control_change"}, {"time": 2238, "annotation": {"number": 64, "value": 0}, "group": "control_change"}, {"time": 2263, "annotation": {"number": 64, "value": 0}, "group": "control_change"}, {"time": 2265, "annotation": {"number": 64, "value": 127}, "group": "control_change"}, {"time": 2288, "annotation": {"number": 64, "value": 0}, "group": "control_change"}, {"time": 2290, "annotation": {"number": 64, "value": 127}, "group": "control_change"}, {"time": 2312, "annotation": {"number": 64, "value": 127}, "group": "control_change"}, {"time": 2312, "annotation": {"number": 64, "value": 0}, "group": "control_change"}, {"time": 2316, "annotation": {"number": 64, "value": 0}, "group": "control_change"}, {"time": 2317, "annotation": {"number": 64, "value": 127}, "group": "control_change"}, {"time": 2325, "annotation": {"number": 64, "value": 0}, "group": "control_change"}, {"time": 2326, "annotation": {"number": 64, "value": 127}, "group": "control_change"}, {"time": 2336, "annotation": {"number": 64, "value": 0}, "group": "control_change"}, {"time": 2338, "annotation": {"number": 64, "value": 127}, "group": "control_change"}, {"time": 2338, "annotation": {"number": 64, "value": 0}, "group": "control_change"}, {"time": 2360, "annotation": {"number": 64, "value": 0}, "group": "control_change"}, {"time": 2362, "annotation": {"number": 64, "value": 127}, "group": "control_change"}, {"time": 2384, "annotation": {"number": 64, "value": 0}, "group": "control_change"}, {"time": 2386, "annotation": {"number": 64, "value": 127}, "group": "control_change"}, {"time": 2388, "annotation": {"number": 64, "value": 127}, "group": "control_change"}, {"time": 2408, "annotation": {"number": 64, "value": 0}, "group": "control_change"}, {"time": 2409, "annotation": {"number": 64, "value": 127}, "group": "control_change"}, {"time": 2430, "annotation": {"number": 64, "value": 0}, "group": "control_change"}, {"time": 2434, "annotation": {"number": 64, "value": 127}, "group": "control_change"}]}]}