{"metadata": {"schema_version": "0.2", "title": "None", "source_filename": "666.mid", "source_format": "midi"}, "resolution": 12, "tempos": [{"time": 0, "qpm": 87.00002175000543}], "time_signatures": [{"time": 0, "numerator": 1, "denominator": 4}], "tracks": [{"program": 0, "is_drum": false, "name": "MELODY", "notes": [{"time": 412, "pitch": 64, "duration": 5, "velocity": 85}, {"time": 418, "pitch": 66, "duration": 5, "velocity": 84}, {"time": 424, "pitch": 68, "duration": 14, "velocity": 87}, {"time": 442, "pitch": 66, "duration": 5, "velocity": 79}, {"time": 448, "pitch": 68, "duration": 4, "velocity": 84}, {"time": 454, "pitch": 71, "duration": 5, "velocity": 88}, {"time": 460, "pitch": 76, "duration": 5, "velocity": 72}, {"time": 466, "pitch": 73, "duration": 4, "velocity": 84}, {"time": 472, "pitch": 71, "duration": 22, "velocity": 86}, {"time": 508, "pitch": 73, "duration": 5, "velocity": 89}, {"time": 514, "pitch": 75, "duration": 4, "velocity": 86}, {"time": 520, "pitch": 73, "duration": 15, "velocity": 91}, {"time": 538, "pitch": 73, "duration": 3, "velocity": 98}, {"time": 541, "pitch": 71, "duration": 2, "velocity": 82}, {"time": 544, "pitch": 68, "duration": 5, "velocity": 82}, {"time": 550, "pitch": 71, "duration": 2, "velocity": 84}, {"time": 553, "pitch": 71, "duration": 9, "velocity": 84}, {"time": 562, "pitch": 68, "duration": 5, "velocity": 84}, {"time": 568, "pitch": 66, "duration": 31, "velocity": 84}, {"time": 604, "pitch": 66, "duration": 4, "velocity": 82}, {"time": 610, "pitch": 68, "duration": 4, "velocity": 86}, {"time": 616, "pitch": 71, "duration": 13, "velocity": 83}, {"time": 634, "pitch": 71, "duration": 2, "velocity": 87}, {"time": 637, "pitch": 68, "duration": 2, "velocity": 83}, {"time": 640, "pitch": 66, "duration": 5, "velocity": 84}, {"time": 646, "pitch": 68, "duration": 5, "velocity": 83}, {"time": 652, "pitch": 64, "duration": 5, "velocity": 83}, {"time": 658, "pitch": 63, "duration": 6, "velocity": 84}, {"time": 664, "pitch": 61, "duration": 28, "velocity": 81}, {"time": 700, "pitch": 61, "duration": 2, "velocity": 86}, {"time": 706, "pitch": 61, "duration": 2, "velocity": 83}, {"time": 709, "pitch": 68, "duration": 2, "velocity": 77}, {"time": 712, "pitch": 66, "duration": 14, "velocity": 76}, {"time": 730, "pitch": 64, "duration": 5, "velocity": 86}, {"time": 736, "pitch": 61, "duration": 5, "velocity": 84}, {"time": 742, "pitch": 64, "duration": 2, "velocity": 82}, {"time": 745, "pitch": 64, "duration": 8, "velocity": 82}, {"time": 754, "pitch": 68, "duration": 5, "velocity": 85}, {"time": 760, "pitch": 66, "duration": 31, "velocity": 82}, {"time": 796, "pitch": 64, "duration": 5, "velocity": 85}, {"time": 802, "pitch": 66, "duration": 5, "velocity": 84}, {"time": 808, "pitch": 68, "duration": 14, "velocity": 87}, {"time": 826, "pitch": 66, "duration": 5, "velocity": 79}, {"time": 832, "pitch": 68, "duration": 4, "velocity": 84}, {"time": 838, "pitch": 71, "duration": 5, "velocity": 88}, {"time": 844, "pitch": 76, "duration": 5, "velocity": 72}, {"time": 850, "pitch": 73, "duration": 4, "velocity": 84}, {"time": 856, "pitch": 71, "duration": 22, "velocity": 86}, {"time": 892, "pitch": 73, "duration": 5, "velocity": 89}, {"time": 898, "pitch": 75, "duration": 4, "velocity": 86}, {"time": 904, "pitch": 73, "duration": 15, "velocity": 91}, {"time": 922, "pitch": 73, "duration": 3, "velocity": 98}, {"time": 925, "pitch": 71, "duration": 2, "velocity": 82}, {"time": 928, "pitch": 68, "duration": 5, "velocity": 82}, {"time": 934, "pitch": 71, "duration": 2, "velocity": 84}, {"time": 937, "pitch": 71, "duration": 9, "velocity": 84}, {"time": 946, "pitch": 68, "duration": 5, "velocity": 84}, {"time": 952, "pitch": 66, "duration": 31, "velocity": 84}, {"time": 988, "pitch": 66, "duration": 4, "velocity": 82}, {"time": 994, "pitch": 68, "duration": 4, "velocity": 86}, {"time": 1000, "pitch": 71, "duration": 9, "velocity": 83}, {"time": 1009, "pitch": 71, "duration": 2, "velocity": 83}, {"time": 1012, "pitch": 71, "duration": 5, "velocity": 91}, {"time": 1018, "pitch": 68, "duration": 5, "velocity": 85}, {"time": 1024, "pitch": 66, "duration": 5, "velocity": 84}, {"time": 1030, "pitch": 68, "duration": 5, "velocity": 83}, {"time": 1036, "pitch": 64, "duration": 5, "velocity": 83}, {"time": 1042, "pitch": 63, "duration": 6, "velocity": 84}, {"time": 1048, "pitch": 61, "duration": 28, "velocity": 81}, {"time": 1084, "pitch": 61, "duration": 6, "velocity": 86}, {"time": 1090, "pitch": 61, "duration": 3, "velocity": 83}, {"time": 1093, "pitch": 68, "duration": 2, "velocity": 77}, {"time": 1096, "pitch": 66, "duration": 14, "velocity": 76}, {"time": 1114, "pitch": 66, "duration": 3, "velocity": 86}, {"time": 1117, "pitch": 64, "duration": 3, "velocity": 86}, {"time": 1120, "pitch": 66, "duration": 5, "velocity": 84}, {"time": 1126, "pitch": 64, "duration": 2, "velocity": 82}, {"time": 1129, "pitch": 66, "duration": 8, "velocity": 82}, {"time": 1138, "pitch": 73, "duration": 5, "velocity": 85}, {"time": 1144, "pitch": 71, "duration": 31, "velocity": 82}, {"time": 1180, "pitch": 71, "duration": 4, "velocity": 85}, {"time": 1186, "pitch": 73, "duration": 4, "velocity": 93}, {"time": 1192, "pitch": 80, "duration": 7, "velocity": 85}, {"time": 1201, "pitch": 78, "duration": 8, "velocity": 84}, {"time": 1210, "pitch": 76, "duration": 4, "velocity": 78}, {"time": 1216, "pitch": 76, "duration": 4, "velocity": 84}, {"time": 1222, "pitch": 68, "duration": 4, "velocity": 86}, {"time": 1228, "pitch": 73, "duration": 5, "velocity": 93}, {"time": 1234, "pitch": 75, "duration": 2, "velocity": 84}, {"time": 1237, "pitch": 73, "duration": 3, "velocity": 86}, {"time": 1240, "pitch": 71, "duration": 32, "velocity": 84}, {"time": 1276, "pitch": 71, "duration": 4, "velocity": 83}, {"time": 1282, "pitch": 73, "duration": 5, "velocity": 89}, {"time": 1288, "pitch": 76, "duration": 8, "velocity": 86}, {"time": 1297, "pitch": 73, "duration": 8, "velocity": 89}, {"time": 1306, "pitch": 73, "duration": 3, "velocity": 86}, {"time": 1309, "pitch": 71, "duration": 2, "velocity": 87}, {"time": 1312, "pitch": 68, "duration": 4, "velocity": 85}, {"time": 1318, "pitch": 71, "duration": 4, "velocity": 89}, {"time": 1324, "pitch": 71, "duration": 5, "velocity": 89}, {"time": 1330, "pitch": 68, "duration": 5, "velocity": 86}, {"time": 1336, "pitch": 66, "duration": 32, "velocity": 85}, {"time": 1372, "pitch": 66, "duration": 4, "velocity": 84}, {"time": 1378, "pitch": 68, "duration": 4, "velocity": 84}, {"time": 1384, "pitch": 71, "duration": 7, "velocity": 86}, {"time": 1393, "pitch": 71, "duration": 2, "velocity": 85}, {"time": 1396, "pitch": 71, "duration": 4, "velocity": 86}, {"time": 1402, "pitch": 68, "duration": 4, "velocity": 84}, {"time": 1408, "pitch": 68, "duration": 5, "velocity": 84}, {"time": 1414, "pitch": 71, "duration": 10, "velocity": 84}, {"time": 1426, "pitch": 66, "duration": 3, "velocity": 84}, {"time": 1429, "pitch": 64, "duration": 2, "velocity": 83}, {"time": 1432, "pitch": 61, "duration": 29, "velocity": 89}, {"time": 1474, "pitch": 61, "duration": 2, "velocity": 86}, {"time": 1477, "pitch": 68, "duration": 2, "velocity": 82}, {"time": 1480, "pitch": 66, "duration": 6, "velocity": 88}, {"time": 1489, "pitch": 66, "duration": 2, "velocity": 82}, {"time": 1492, "pitch": 66, "duration": 4, "velocity": 82}, {"time": 1498, "pitch": 68, "duration": 6, "velocity": 93}, {"time": 1504, "pitch": 78, "duration": 4, "velocity": 88}, {"time": 1510, "pitch": 78, "duration": 2, "velocity": 93}, {"time": 1513, "pitch": 78, "duration": 7, "velocity": 89}, {"time": 1522, "pitch": 73, "duration": 5, "velocity": 96}, {"time": 1528, "pitch": 71, "duration": 33, "velocity": 89}, {"time": 1564, "pitch": 71, "duration": 4, "velocity": 85}, {"time": 1570, "pitch": 73, "duration": 4, "velocity": 93}, {"time": 1576, "pitch": 80, "duration": 7, "velocity": 85}, {"time": 1585, "pitch": 78, "duration": 8, "velocity": 84}, {"time": 1594, "pitch": 76, "duration": 4, "velocity": 78}, {"time": 1600, "pitch": 76, "duration": 4, "velocity": 84}, {"time": 1606, "pitch": 68, "duration": 4, "velocity": 86}, {"time": 1612, "pitch": 73, "duration": 5, "velocity": 93}, {"time": 1618, "pitch": 75, "duration": 2, "velocity": 84}, {"time": 1621, "pitch": 73, "duration": 3, "velocity": 86}, {"time": 1624, "pitch": 71, "duration": 32, "velocity": 84}, {"time": 1660, "pitch": 71, "duration": 4, "velocity": 83}, {"time": 1666, "pitch": 73, "duration": 5, "velocity": 89}, {"time": 1672, "pitch": 76, "duration": 8, "velocity": 86}, {"time": 1681, "pitch": 73, "duration": 8, "velocity": 89}, {"time": 1690, "pitch": 73, "duration": 3, "velocity": 86}, {"time": 1693, "pitch": 71, "duration": 2, "velocity": 87}, {"time": 1696, "pitch": 68, "duration": 4, "velocity": 85}, {"time": 1702, "pitch": 71, "duration": 4, "velocity": 89}, {"time": 1708, "pitch": 71, "duration": 5, "velocity": 89}, {"time": 1714, "pitch": 68, "duration": 5, "velocity": 86}, {"time": 1720, "pitch": 66, "duration": 32, "velocity": 85}, {"time": 1756, "pitch": 66, "duration": 4, "velocity": 84}, {"time": 1762, "pitch": 68, "duration": 4, "velocity": 84}, {"time": 1768, "pitch": 71, "duration": 7, "velocity": 86}, {"time": 1786, "pitch": 71, "duration": 3, "velocity": 86}, {"time": 1789, "pitch": 68, "duration": 3, "velocity": 84}, {"time": 1792, "pitch": 68, "duration": 5, "velocity": 84}, {"time": 1798, "pitch": 71, "duration": 10, "velocity": 84}, {"time": 1810, "pitch": 66, "duration": 3, "velocity": 84}, {"time": 1813, "pitch": 64, "duration": 2, "velocity": 83}, {"time": 1816, "pitch": 61, "duration": 29, "velocity": 89}, {"time": 1858, "pitch": 61, "duration": 2, "velocity": 86}, {"time": 1861, "pitch": 68, "duration": 2, "velocity": 82}, {"time": 1864, "pitch": 66, "duration": 15, "velocity": 88}, {"time": 1882, "pitch": 68, "duration": 3, "velocity": 82}, {"time": 1885, "pitch": 71, "duration": 2, "velocity": 86}, {"time": 1888, "pitch": 68, "duration": 8, "velocity": 86}, {"time": 1897, "pitch": 66, "duration": 8, "velocity": 84}, {"time": 1906, "pitch": 61, "duration": 6, "velocity": 84}, {"time": 1912, "pitch": 64, "duration": 45, "velocity": 83}, {"time": 2332, "pitch": 64, "duration": 5, "velocity": 85}, {"time": 2338, "pitch": 66, "duration": 5, "velocity": 84}, {"time": 2344, "pitch": 68, "duration": 14, "velocity": 87}, {"time": 2362, "pitch": 66, "duration": 5, "velocity": 79}, {"time": 2368, "pitch": 68, "duration": 4, "velocity": 84}, {"time": 2374, "pitch": 71, "duration": 5, "velocity": 88}, {"time": 2380, "pitch": 76, "duration": 5, "velocity": 72}, {"time": 2386, "pitch": 73, "duration": 4, "velocity": 84}, {"time": 2392, "pitch": 71, "duration": 22, "velocity": 86}, {"time": 2428, "pitch": 73, "duration": 5, "velocity": 89}, {"time": 2434, "pitch": 75, "duration": 4, "velocity": 86}, {"time": 2440, "pitch": 73, "duration": 15, "velocity": 91}, {"time": 2458, "pitch": 73, "duration": 3, "velocity": 98}, {"time": 2461, "pitch": 71, "duration": 2, "velocity": 82}, {"time": 2464, "pitch": 68, "duration": 5, "velocity": 82}, {"time": 2470, "pitch": 71, "duration": 2, "velocity": 84}, {"time": 2473, "pitch": 71, "duration": 9, "velocity": 84}, {"time": 2482, "pitch": 68, "duration": 5, "velocity": 84}, {"time": 2488, "pitch": 66, "duration": 31, "velocity": 84}, {"time": 2524, "pitch": 66, "duration": 4, "velocity": 82}, {"time": 2530, "pitch": 68, "duration": 4, "velocity": 86}, {"time": 2536, "pitch": 71, "duration": 9, "velocity": 83}, {"time": 2545, "pitch": 71, "duration": 2, "velocity": 83}, {"time": 2548, "pitch": 71, "duration": 5, "velocity": 91}, {"time": 2554, "pitch": 68, "duration": 5, "velocity": 85}, {"time": 2560, "pitch": 66, "duration": 5, "velocity": 84}, {"time": 2566, "pitch": 68, "duration": 5, "velocity": 83}, {"time": 2572, "pitch": 64, "duration": 5, "velocity": 83}, {"time": 2578, "pitch": 63, "duration": 6, "velocity": 84}, {"time": 2584, "pitch": 61, "duration": 28, "velocity": 81}, {"time": 2620, "pitch": 61, "duration": 6, "velocity": 86}, {"time": 2626, "pitch": 61, "duration": 3, "velocity": 83}, {"time": 2629, "pitch": 68, "duration": 2, "velocity": 77}, {"time": 2632, "pitch": 66, "duration": 14, "velocity": 76}, {"time": 2650, "pitch": 66, "duration": 3, "velocity": 86}, {"time": 2653, "pitch": 64, "duration": 3, "velocity": 86}, {"time": 2656, "pitch": 66, "duration": 5, "velocity": 84}, {"time": 2662, "pitch": 64, "duration": 2, "velocity": 82}, {"time": 2665, "pitch": 66, "duration": 8, "velocity": 82}, {"time": 2674, "pitch": 73, "duration": 5, "velocity": 85}, {"time": 2680, "pitch": 71, "duration": 31, "velocity": 82}, {"time": 2716, "pitch": 71, "duration": 4, "velocity": 85}, {"time": 2722, "pitch": 73, "duration": 4, "velocity": 93}, {"time": 2728, "pitch": 80, "duration": 7, "velocity": 85}, {"time": 2737, "pitch": 78, "duration": 8, "velocity": 84}, {"time": 2746, "pitch": 76, "duration": 4, "velocity": 78}, {"time": 2752, "pitch": 76, "duration": 4, "velocity": 84}, {"time": 2758, "pitch": 68, "duration": 4, "velocity": 86}, {"time": 2764, "pitch": 73, "duration": 5, "velocity": 93}, {"time": 2770, "pitch": 75, "duration": 2, "velocity": 84}, {"time": 2773, "pitch": 73, "duration": 3, "velocity": 86}, {"time": 2776, "pitch": 71, "duration": 32, "velocity": 84}, {"time": 2812, "pitch": 71, "duration": 4, "velocity": 83}, {"time": 2818, "pitch": 73, "duration": 5, "velocity": 89}, {"time": 2824, "pitch": 76, "duration": 8, "velocity": 86}, {"time": 2833, "pitch": 73, "duration": 8, "velocity": 89}, {"time": 2842, "pitch": 73, "duration": 3, "velocity": 86}, {"time": 2845, "pitch": 71, "duration": 2, "velocity": 87}, {"time": 2848, "pitch": 68, "duration": 4, "velocity": 85}, {"time": 2854, "pitch": 71, "duration": 4, "velocity": 89}, {"time": 2860, "pitch": 71, "duration": 5, "velocity": 89}, {"time": 2866, "pitch": 68, "duration": 5, "velocity": 86}, {"time": 2872, "pitch": 66, "duration": 32, "velocity": 85}, {"time": 2908, "pitch": 66, "duration": 4, "velocity": 84}, {"time": 2914, "pitch": 68, "duration": 4, "velocity": 84}, {"time": 2920, "pitch": 71, "duration": 7, "velocity": 86}, {"time": 2929, "pitch": 71, "duration": 2, "velocity": 85}, {"time": 2932, "pitch": 71, "duration": 4, "velocity": 86}, {"time": 2938, "pitch": 68, "duration": 4, "velocity": 84}, {"time": 2944, "pitch": 68, "duration": 5, "velocity": 84}, {"time": 2950, "pitch": 71, "duration": 10, "velocity": 84}, {"time": 2962, "pitch": 66, "duration": 3, "velocity": 84}, {"time": 2965, "pitch": 64, "duration": 2, "velocity": 83}, {"time": 2968, "pitch": 61, "duration": 29, "velocity": 89}, {"time": 3010, "pitch": 61, "duration": 2, "velocity": 86}, {"time": 3013, "pitch": 68, "duration": 2, "velocity": 82}, {"time": 3016, "pitch": 66, "duration": 6, "velocity": 88}, {"time": 3025, "pitch": 66, "duration": 2, "velocity": 82}, {"time": 3028, "pitch": 66, "duration": 4, "velocity": 82}, {"time": 3034, "pitch": 68, "duration": 6, "velocity": 93}, {"time": 3040, "pitch": 78, "duration": 4, "velocity": 88}, {"time": 3046, "pitch": 78, "duration": 2, "velocity": 93}, {"time": 3049, "pitch": 78, "duration": 7, "velocity": 89}, {"time": 3058, "pitch": 73, "duration": 5, "velocity": 96}, {"time": 3064, "pitch": 71, "duration": 33, "velocity": 89}, {"time": 3100, "pitch": 71, "duration": 4, "velocity": 85}, {"time": 3106, "pitch": 73, "duration": 4, "velocity": 93}, {"time": 3112, "pitch": 80, "duration": 7, "velocity": 85}, {"time": 3121, "pitch": 78, "duration": 8, "velocity": 84}, {"time": 3130, "pitch": 76, "duration": 4, "velocity": 78}, {"time": 3136, "pitch": 76, "duration": 4, "velocity": 84}, {"time": 3142, "pitch": 68, "duration": 4, "velocity": 86}, {"time": 3148, "pitch": 73, "duration": 5, "velocity": 93}, {"time": 3154, "pitch": 75, "duration": 2, "velocity": 84}, {"time": 3157, "pitch": 73, "duration": 3, "velocity": 86}, {"time": 3160, "pitch": 71, "duration": 32, "velocity": 84}, {"time": 3196, "pitch": 71, "duration": 4, "velocity": 83}, {"time": 3202, "pitch": 73, "duration": 5, "velocity": 89}, {"time": 3208, "pitch": 76, "duration": 8, "velocity": 86}, {"time": 3217, "pitch": 73, "duration": 8, "velocity": 89}, {"time": 3226, "pitch": 73, "duration": 3, "velocity": 86}, {"time": 3229, "pitch": 71, "duration": 2, "velocity": 87}, {"time": 3232, "pitch": 68, "duration": 4, "velocity": 85}, {"time": 3238, "pitch": 71, "duration": 4, "velocity": 89}, {"time": 3244, "pitch": 71, "duration": 5, "velocity": 89}, {"time": 3250, "pitch": 68, "duration": 5, "velocity": 86}, {"time": 3256, "pitch": 66, "duration": 32, "velocity": 85}, {"time": 3292, "pitch": 66, "duration": 4, "velocity": 84}, {"time": 3298, "pitch": 68, "duration": 4, "velocity": 84}, {"time": 3304, "pitch": 71, "duration": 7, "velocity": 86}, {"time": 3322, "pitch": 71, "duration": 3, "velocity": 86}, {"time": 3325, "pitch": 68, "duration": 3, "velocity": 84}, {"time": 3328, "pitch": 68, "duration": 5, "velocity": 84}, {"time": 3334, "pitch": 71, "duration": 10, "velocity": 84}, {"time": 3346, "pitch": 66, "duration": 3, "velocity": 84}, {"time": 3349, "pitch": 64, "duration": 2, "velocity": 83}, {"time": 3352, "pitch": 61, "duration": 29, "velocity": 89}, {"time": 3394, "pitch": 61, "duration": 2, "velocity": 86}, {"time": 3397, "pitch": 68, "duration": 2, "velocity": 82}, {"time": 3400, "pitch": 66, "duration": 15, "velocity": 88}, {"time": 3418, "pitch": 68, "duration": 3, "velocity": 82}, {"time": 3421, "pitch": 71, "duration": 2, "velocity": 86}, {"time": 3424, "pitch": 68, "duration": 8, "velocity": 86}, {"time": 3433, "pitch": 66, "duration": 8, "velocity": 84}, {"time": 3442, "pitch": 61, "duration": 6, "velocity": 84}, {"time": 3448, "pitch": 64, "duration": 27, "velocity": 83}, {"time": 3484, "pitch": 71, "duration": 4, "velocity": 85}, {"time": 3490, "pitch": 73, "duration": 4, "velocity": 93}, {"time": 3496, "pitch": 80, "duration": 7, "velocity": 85}, {"time": 3505, "pitch": 78, "duration": 8, "velocity": 84}, {"time": 3514, "pitch": 76, "duration": 4, "velocity": 78}, {"time": 3520, "pitch": 76, "duration": 4, "velocity": 84}, {"time": 3526, "pitch": 68, "duration": 4, "velocity": 86}, {"time": 3532, "pitch": 73, "duration": 5, "velocity": 93}, {"time": 3538, "pitch": 75, "duration": 2, "velocity": 84}, {"time": 3541, "pitch": 73, "duration": 3, "velocity": 86}, {"time": 3544, "pitch": 71, "duration": 32, "velocity": 84}, {"time": 3580, "pitch": 71, "duration": 4, "velocity": 83}, {"time": 3586, "pitch": 73, "duration": 5, "velocity": 89}, {"time": 3592, "pitch": 76, "duration": 8, "velocity": 86}, {"time": 3601, "pitch": 73, "duration": 8, "velocity": 89}, {"time": 3610, "pitch": 73, "duration": 3, "velocity": 86}, {"time": 3613, "pitch": 71, "duration": 2, "velocity": 87}, {"time": 3616, "pitch": 68, "duration": 4, "velocity": 85}, {"time": 3622, "pitch": 71, "duration": 4, "velocity": 89}, {"time": 3628, "pitch": 71, "duration": 5, "velocity": 89}, {"time": 3634, "pitch": 68, "duration": 5, "velocity": 86}, {"time": 3640, "pitch": 66, "duration": 32, "velocity": 85}, {"time": 3676, "pitch": 66, "duration": 4, "velocity": 84}, {"time": 3682, "pitch": 68, "duration": 4, "velocity": 84}, {"time": 3688, "pitch": 71, "duration": 7, "velocity": 86}, {"time": 3697, "pitch": 71, "duration": 2, "velocity": 85}, {"time": 3700, "pitch": 71, "duration": 4, "velocity": 86}, {"time": 3706, "pitch": 68, "duration": 4, "velocity": 84}, {"time": 3712, "pitch": 68, "duration": 5, "velocity": 84}, {"time": 3718, "pitch": 71, "duration": 10, "velocity": 84}, {"time": 3730, "pitch": 66, "duration": 3, "velocity": 84}, {"time": 3733, "pitch": 64, "duration": 2, "velocity": 83}, {"time": 3736, "pitch": 61, "duration": 29, "velocity": 89}, {"time": 3778, "pitch": 61, "duration": 2, "velocity": 86}, {"time": 3781, "pitch": 68, "duration": 2, "velocity": 82}, {"time": 3784, "pitch": 66, "duration": 6, "velocity": 88}, {"time": 3793, "pitch": 66, "duration": 2, "velocity": 82}, {"time": 3796, "pitch": 66, "duration": 4, "velocity": 82}, {"time": 3802, "pitch": 68, "duration": 6, "velocity": 93}, {"time": 3808, "pitch": 78, "duration": 4, "velocity": 88}, {"time": 3814, "pitch": 78, "duration": 2, "velocity": 93}, {"time": 3817, "pitch": 78, "duration": 7, "velocity": 89}, {"time": 3826, "pitch": 73, "duration": 5, "velocity": 96}, {"time": 3832, "pitch": 71, "duration": 33, "velocity": 89}, {"time": 3868, "pitch": 71, "duration": 4, "velocity": 85}, {"time": 3874, "pitch": 73, "duration": 4, "velocity": 93}, {"time": 3880, "pitch": 80, "duration": 7, "velocity": 85}, {"time": 3889, "pitch": 78, "duration": 8, "velocity": 84}, {"time": 3898, "pitch": 76, "duration": 4, "velocity": 78}, {"time": 3904, "pitch": 76, "duration": 4, "velocity": 84}, {"time": 3910, "pitch": 68, "duration": 4, "velocity": 86}, {"time": 3916, "pitch": 73, "duration": 5, "velocity": 93}, {"time": 3922, "pitch": 75, "duration": 2, "velocity": 84}, {"time": 3925, "pitch": 73, "duration": 3, "velocity": 86}, {"time": 3928, "pitch": 71, "duration": 32, "velocity": 84}, {"time": 3964, "pitch": 71, "duration": 4, "velocity": 83}, {"time": 3970, "pitch": 73, "duration": 5, "velocity": 89}, {"time": 3976, "pitch": 76, "duration": 8, "velocity": 86}, {"time": 3985, "pitch": 73, "duration": 8, "velocity": 89}, {"time": 3994, "pitch": 73, "duration": 3, "velocity": 86}, {"time": 3997, "pitch": 71, "duration": 2, "velocity": 87}, {"time": 4000, "pitch": 68, "duration": 4, "velocity": 85}, {"time": 4006, "pitch": 71, "duration": 4, "velocity": 89}, {"time": 4012, "pitch": 71, "duration": 5, "velocity": 89}, {"time": 4018, "pitch": 68, "duration": 5, "velocity": 86}, {"time": 4024, "pitch": 66, "duration": 32, "velocity": 85}, {"time": 4060, "pitch": 66, "duration": 4, "velocity": 84}, {"time": 4066, "pitch": 68, "duration": 4, "velocity": 84}, {"time": 4072, "pitch": 71, "duration": 7, "velocity": 86}, {"time": 4090, "pitch": 71, "duration": 3, "velocity": 86}, {"time": 4093, "pitch": 68, "duration": 3, "velocity": 84}, {"time": 4096, "pitch": 68, "duration": 5, "velocity": 84}, {"time": 4102, "pitch": 71, "duration": 10, "velocity": 84}, {"time": 4114, "pitch": 66, "duration": 3, "velocity": 84}, {"time": 4117, "pitch": 64, "duration": 2, "velocity": 83}, {"time": 4120, "pitch": 61, "duration": 29, "velocity": 89}, {"time": 4162, "pitch": 61, "duration": 2, "velocity": 86}, {"time": 4165, "pitch": 68, "duration": 2, "velocity": 82}, {"time": 4168, "pitch": 66, "duration": 15, "velocity": 88}, {"time": 4186, "pitch": 68, "duration": 3, "velocity": 82}, {"time": 4189, "pitch": 71, "duration": 2, "velocity": 86}, {"time": 4192, "pitch": 68, "duration": 8, "velocity": 86}, {"time": 4201, "pitch": 66, "duration": 8, "velocity": 84}, {"time": 4210, "pitch": 61, "duration": 6, "velocity": 84}, {"time": 4216, "pitch": 64, "duration": 27, "velocity": 83}]}, {"program": 0, "is_drum": false, "name": "PIANO", "notes": [{"time": 40, "pitch": 40, "duration": 44, "velocity": 82}, {"time": 40, "pitch": 52, "duration": 7, "velocity": 78}, {"time": 40, "pitch": 56, "duration": 10, "velocity": 80}, {"time": 46, "pitch": 47, "duration": 38, "velocity": 76}, {"time": 52, "pitch": 52, "duration": 4, "velocity": 82}, {"time": 58, "pitch": 54, "duration": 5, "velocity": 88}, {"time": 64, "pitch": 56, "duration": 2, "velocity": 91}, {"time": 76, "pitch": 52, "duration": 4, "velocity": 76}, {"time": 76, "pitch": 56, "duration": 4, "velocity": 82}, {"time": 76, "pitch": 59, "duration": 6, "velocity": 81}, {"time": 88, "pitch": 49, "duration": 38, "velocity": 79}, {"time": 88, "pitch": 56, "duration": 4, "velocity": 75}, {"time": 88, "pitch": 61, "duration": 8, "velocity": 75}, {"time": 94, "pitch": 56, "duration": 7, "velocity": 80}, {"time": 100, "pitch": 61, "duration": 7, "velocity": 84}, {"time": 106, "pitch": 56, "duration": 2, "velocity": 74}, {"time": 112, "pitch": 56, "duration": 3, "velocity": 79}, {"time": 112, "pitch": 64, "duration": 11, "velocity": 83}, {"time": 118, "pitch": 56, "duration": 4, "velocity": 70}, {"time": 124, "pitch": 63, "duration": 3, "velocity": 87}, {"time": 136, "pitch": 42, "duration": 46, "velocity": 83}, {"time": 136, "pitch": 54, "duration": 14, "velocity": 77}, {"time": 136, "pitch": 61, "duration": 11, "velocity": 79}, {"time": 142, "pitch": 49, "duration": 39, "velocity": 76}, {"time": 148, "pitch": 57, "duration": 7, "velocity": 86}, {"time": 154, "pitch": 61, "duration": 7, "velocity": 82}, {"time": 160, "pitch": 66, "duration": 7, "velocity": 83}, {"time": 166, "pitch": 61, "duration": 4, "velocity": 78}, {"time": 172, "pitch": 54, "duration": 6, "velocity": 84}, {"time": 184, "pitch": 47, "duration": 40, "velocity": 85}, {"time": 184, "pitch": 54, "duration": 5, "velocity": 78}, {"time": 184, "pitch": 59, "duration": 13, "velocity": 80}, {"time": 190, "pitch": 51, "duration": 34, "velocity": 78}, {"time": 196, "pitch": 54, "duration": 7, "velocity": 85}, {"time": 202, "pitch": 61, "duration": 2, "velocity": 85}, {"time": 208, "pitch": 54, "duration": 3, "velocity": 87}, {"time": 208, "pitch": 63, "duration": 8, "velocity": 87}, {"time": 214, "pitch": 54, "duration": 4, "velocity": 82}, {"time": 220, "pitch": 59, "duration": 4, "velocity": 85}, {"time": 226, "pitch": 57, "duration": 2, "velocity": 88}, {"time": 232, "pitch": 40, "duration": 42, "velocity": 82}, {"time": 232, "pitch": 52, "duration": 13, "velocity": 78}, {"time": 232, "pitch": 56, "duration": 13, "velocity": 82}, {"time": 238, "pitch": 47, "duration": 36, "velocity": 77}, {"time": 244, "pitch": 59, "duration": 7, "velocity": 79}, {"time": 250, "pitch": 56, "duration": 7, "velocity": 82}, {"time": 256, "pitch": 64, "duration": 9, "velocity": 84}, {"time": 262, "pitch": 59, "duration": 7, "velocity": 82}, {"time": 268, "pitch": 56, "duration": 6, "velocity": 83}, {"time": 274, "pitch": 52, "duration": 2, "velocity": 84}, {"time": 280, "pitch": 49, "duration": 38, "velocity": 84}, {"time": 280, "pitch": 56, "duration": 4, "velocity": 68}, {"time": 280, "pitch": 61, "duration": 13, "velocity": 76}, {"time": 286, "pitch": 56, "duration": 7, "velocity": 78}, {"time": 292, "pitch": 64, "duration": 13, "velocity": 82}, {"time": 298, "pitch": 56, "duration": 6, "velocity": 77}, {"time": 304, "pitch": 63, "duration": 10, "velocity": 84}, {"time": 310, "pitch": 56, "duration": 7, "velocity": 78}, {"time": 316, "pitch": 61, "duration": 3, "velocity": 83}, {"time": 328, "pitch": 42, "duration": 20, "velocity": 83}, {"time": 328, "pitch": 54, "duration": 11, "velocity": 77}, {"time": 328, "pitch": 61, "duration": 11, "velocity": 81}, {"time": 334, "pitch": 49, "duration": 14, "velocity": 77}, {"time": 340, "pitch": 57, "duration": 6, "velocity": 87}, {"time": 346, "pitch": 54, "duration": 3, "velocity": 82}, {"time": 352, "pitch": 47, "duration": 18, "velocity": 84}, {"time": 352, "pitch": 54, "duration": 4, "velocity": 83}, {"time": 352, "pitch": 59, "duration": 9, "velocity": 83}, {"time": 358, "pitch": 51, "duration": 11, "velocity": 63}, {"time": 364, "pitch": 54, "duration": 3, "velocity": 82}, {"time": 364, "pitch": 59, "duration": 2, "velocity": 87}, {"time": 370, "pitch": 56, "duration": 3, "velocity": 77}, {"time": 373, "pitch": 54, "duration": 3, "velocity": 84}, {"time": 376, "pitch": 40, "duration": 40, "velocity": 83}, {"time": 376, "pitch": 52, "duration": 20, "velocity": 81}, {"time": 382, "pitch": 47, "duration": 34, "velocity": 75}, {"time": 388, "pitch": 59, "duration": 8, "velocity": 76}, {"time": 394, "pitch": 56, "duration": 2, "velocity": 74}, {"time": 400, "pitch": 52, "duration": 12, "velocity": 81}, {"time": 400, "pitch": 64, "duration": 11, "velocity": 79}, {"time": 424, "pitch": 40, "duration": 40, "velocity": 81}, {"time": 424, "pitch": 52, "duration": 12, "velocity": 72}, {"time": 424, "pitch": 56, "duration": 10, "velocity": 74}, {"time": 430, "pitch": 47, "duration": 34, "velocity": 69}, {"time": 436, "pitch": 59, "duration": 7, "velocity": 76}, {"time": 442, "pitch": 52, "duration": 7, "velocity": 69}, {"time": 448, "pitch": 64, "duration": 8, "velocity": 80}, {"time": 454, "pitch": 52, "duration": 6, "velocity": 68}, {"time": 460, "pitch": 56, "duration": 2, "velocity": 79}, {"time": 460, "pitch": 59, "duration": 3, "velocity": 82}, {"time": 472, "pitch": 47, "duration": 43, "velocity": 82}, {"time": 472, "pitch": 54, "duration": 3, "velocity": 78}, {"time": 472, "pitch": 63, "duration": 10, "velocity": 83}, {"time": 478, "pitch": 54, "duration": 7, "velocity": 68}, {"time": 484, "pitch": 61, "duration": 7, "velocity": 82}, {"time": 490, "pitch": 54, "duration": 3, "velocity": 82}, {"time": 496, "pitch": 54, "duration": 3, "velocity": 77}, {"time": 496, "pitch": 59, "duration": 8, "velocity": 77}, {"time": 502, "pitch": 54, "duration": 4, "velocity": 70}, {"time": 508, "pitch": 54, "duration": 3, "velocity": 82}, {"time": 508, "pitch": 63, "duration": 7, "velocity": 82}, {"time": 514, "pitch": 54, "duration": 2, "velocity": 81}, {"time": 520, "pitch": 49, "duration": 9, "velocity": 76}, {"time": 520, "pitch": 56, "duration": 3, "velocity": 71}, {"time": 520, "pitch": 61, "duration": 9, "velocity": 76}, {"time": 523, "pitch": 56, "duration": 1, "velocity": 76}, {"time": 532, "pitch": 64, "duration": 6, "velocity": 86}, {"time": 538, "pitch": 56, "duration": 3, "velocity": 77}, {"time": 544, "pitch": 61, "duration": 7, "velocity": 84}, {"time": 550, "pitch": 56, "duration": 3, "velocity": 71}, {"time": 556, "pitch": 56, "duration": 4, "velocity": 81}, {"time": 556, "pitch": 61, "duration": 5, "velocity": 83}, {"time": 562, "pitch": 63, "duration": 4, "velocity": 78}, {"time": 568, "pitch": 47, "duration": 37, "velocity": 85}, {"time": 568, "pitch": 59, "duration": 6, "velocity": 77}, {"time": 574, "pitch": 54, "duration": 4, "velocity": 76}, {"time": 580, "pitch": 54, "duration": 3, "velocity": 80}, {"time": 580, "pitch": 59, "duration": 8, "velocity": 83}, {"time": 586, "pitch": 54, "duration": 4, "velocity": 72}, {"time": 592, "pitch": 63, "duration": 9, "velocity": 83}, {"time": 598, "pitch": 54, "duration": 3, "velocity": 78}, {"time": 604, "pitch": 54, "duration": 2, "velocity": 85}, {"time": 604, "pitch": 59, "duration": 4, "velocity": 84}, {"time": 610, "pitch": 54, "duration": 2, "velocity": 82}, {"time": 616, "pitch": 44, "duration": 43, "velocity": 82}, {"time": 616, "pitch": 56, "duration": 8, "velocity": 77}, {"time": 616, "pitch": 59, "duration": 8, "velocity": 80}, {"time": 622, "pitch": 51, "duration": 37, "velocity": 75}, {"time": 628, "pitch": 56, "duration": 2, "velocity": 82}, {"time": 628, "pitch": 63, "duration": 8, "velocity": 82}, {"time": 634, "pitch": 56, "duration": 3, "velocity": 75}, {"time": 640, "pitch": 59, "duration": 7, "velocity": 70}, {"time": 646, "pitch": 56, "duration": 3, "velocity": 70}, {"time": 652, "pitch": 56, "duration": 3, "velocity": 82}, {"time": 652, "pitch": 63, "duration": 4, "velocity": 84}, {"time": 658, "pitch": 56, "duration": 3, "velocity": 61}, {"time": 664, "pitch": 49, "duration": 41, "velocity": 77}, {"time": 664, "pitch": 64, "duration": 12, "velocity": 84}, {"time": 670, "pitch": 56, "duration": 7, "velocity": 77}, {"time": 676, "pitch": 61, "duration": 8, "velocity": 80}, {"time": 682, "pitch": 56, "duration": 7, "velocity": 82}, {"time": 688, "pitch": 64, "duration": 9, "velocity": 86}, {"time": 694, "pitch": 56, "duration": 7, "velocity": 84}, {"time": 700, "pitch": 63, "duration": 7, "velocity": 88}, {"time": 706, "pitch": 61, "duration": 3, "velocity": 81}, {"time": 712, "pitch": 42, "duration": 45, "velocity": 83}, {"time": 712, "pitch": 54, "duration": 6, "velocity": 74}, {"time": 712, "pitch": 57, "duration": 7, "velocity": 68}, {"time": 712, "pitch": 61, "duration": 7, "velocity": 77}, {"time": 718, "pitch": 49, "duration": 38, "velocity": 69}, {"time": 724, "pitch": 57, "duration": 6, "velocity": 76}, {"time": 724, "pitch": 61, "duration": 6, "velocity": 79}, {"time": 730, "pitch": 54, "duration": 8, "velocity": 77}, {"time": 736, "pitch": 66, "duration": 6, "velocity": 84}, {"time": 742, "pitch": 54, "duration": 4, "velocity": 82}, {"time": 748, "pitch": 54, "duration": 3, "velocity": 85}, {"time": 748, "pitch": 61, "duration": 8, "velocity": 83}, {"time": 754, "pitch": 54, "duration": 4, "velocity": 79}, {"time": 760, "pitch": 47, "duration": 21, "velocity": 83}, {"time": 760, "pitch": 54, "duration": 2, "velocity": 83}, {"time": 760, "pitch": 59, "duration": 7, "velocity": 83}, {"time": 766, "pitch": 54, "duration": 8, "velocity": 83}, {"time": 772, "pitch": 59, "duration": 4, "velocity": 82}, {"time": 778, "pitch": 61, "duration": 2, "velocity": 83}, {"time": 784, "pitch": 47, "duration": 18, "velocity": 88}, {"time": 784, "pitch": 54, "duration": 3, "velocity": 82}, {"time": 784, "pitch": 63, "duration": 8, "velocity": 84}, {"time": 790, "pitch": 54, "duration": 3, "velocity": 81}, {"time": 796, "pitch": 54, "duration": 2, "velocity": 83}, {"time": 796, "pitch": 59, "duration": 4, "velocity": 83}, {"time": 808, "pitch": 40, "duration": 40, "velocity": 81}, {"time": 808, "pitch": 52, "duration": 12, "velocity": 72}, {"time": 808, "pitch": 56, "duration": 10, "velocity": 74}, {"time": 814, "pitch": 47, "duration": 34, "velocity": 69}, {"time": 820, "pitch": 59, "duration": 7, "velocity": 76}, {"time": 826, "pitch": 52, "duration": 7, "velocity": 69}, {"time": 832, "pitch": 64, "duration": 8, "velocity": 80}, {"time": 838, "pitch": 52, "duration": 6, "velocity": 68}, {"time": 844, "pitch": 56, "duration": 2, "velocity": 79}, {"time": 844, "pitch": 59, "duration": 3, "velocity": 82}, {"time": 856, "pitch": 47, "duration": 43, "velocity": 82}, {"time": 856, "pitch": 54, "duration": 3, "velocity": 78}, {"time": 856, "pitch": 63, "duration": 10, "velocity": 83}, {"time": 862, "pitch": 54, "duration": 7, "velocity": 68}, {"time": 868, "pitch": 61, "duration": 7, "velocity": 82}, {"time": 874, "pitch": 54, "duration": 3, "velocity": 82}, {"time": 880, "pitch": 54, "duration": 3, "velocity": 77}, {"time": 880, "pitch": 59, "duration": 8, "velocity": 77}, {"time": 886, "pitch": 54, "duration": 4, "velocity": 70}, {"time": 892, "pitch": 54, "duration": 3, "velocity": 82}, {"time": 892, "pitch": 63, "duration": 7, "velocity": 82}, {"time": 898, "pitch": 54, "duration": 2, "velocity": 81}, {"time": 904, "pitch": 49, "duration": 9, "velocity": 76}, {"time": 904, "pitch": 56, "duration": 3, "velocity": 71}, {"time": 904, "pitch": 61, "duration": 9, "velocity": 76}, {"time": 907, "pitch": 56, "duration": 1, "velocity": 76}, {"time": 916, "pitch": 64, "duration": 6, "velocity": 86}, {"time": 922, "pitch": 56, "duration": 3, "velocity": 77}, {"time": 928, "pitch": 61, "duration": 7, "velocity": 84}, {"time": 934, "pitch": 56, "duration": 3, "velocity": 71}, {"time": 940, "pitch": 56, "duration": 4, "velocity": 81}, {"time": 940, "pitch": 61, "duration": 5, "velocity": 83}, {"time": 946, "pitch": 63, "duration": 4, "velocity": 78}, {"time": 952, "pitch": 47, "duration": 37, "velocity": 85}, {"time": 952, "pitch": 59, "duration": 6, "velocity": 77}, {"time": 958, "pitch": 54, "duration": 4, "velocity": 76}, {"time": 964, "pitch": 54, "duration": 3, "velocity": 80}, {"time": 964, "pitch": 59, "duration": 8, "velocity": 83}, {"time": 970, "pitch": 54, "duration": 4, "velocity": 72}, {"time": 976, "pitch": 63, "duration": 9, "velocity": 83}, {"time": 982, "pitch": 54, "duration": 3, "velocity": 78}, {"time": 988, "pitch": 54, "duration": 2, "velocity": 85}, {"time": 988, "pitch": 59, "duration": 4, "velocity": 84}, {"time": 994, "pitch": 54, "duration": 2, "velocity": 82}, {"time": 1000, "pitch": 44, "duration": 43, "velocity": 82}, {"time": 1000, "pitch": 56, "duration": 8, "velocity": 77}, {"time": 1000, "pitch": 59, "duration": 8, "velocity": 80}, {"time": 1006, "pitch": 51, "duration": 37, "velocity": 75}, {"time": 1012, "pitch": 56, "duration": 2, "velocity": 82}, {"time": 1012, "pitch": 63, "duration": 8, "velocity": 82}, {"time": 1018, "pitch": 56, "duration": 3, "velocity": 75}, {"time": 1024, "pitch": 59, "duration": 7, "velocity": 70}, {"time": 1030, "pitch": 56, "duration": 3, "velocity": 70}, {"time": 1036, "pitch": 56, "duration": 3, "velocity": 82}, {"time": 1036, "pitch": 63, "duration": 4, "velocity": 84}, {"time": 1042, "pitch": 56, "duration": 3, "velocity": 61}, {"time": 1048, "pitch": 49, "duration": 41, "velocity": 77}, {"time": 1048, "pitch": 64, "duration": 12, "velocity": 84}, {"time": 1054, "pitch": 56, "duration": 7, "velocity": 77}, {"time": 1060, "pitch": 61, "duration": 8, "velocity": 80}, {"time": 1066, "pitch": 56, "duration": 7, "velocity": 82}, {"time": 1072, "pitch": 64, "duration": 9, "velocity": 86}, {"time": 1078, "pitch": 56, "duration": 7, "velocity": 84}, {"time": 1084, "pitch": 63, "duration": 7, "velocity": 88}, {"time": 1090, "pitch": 61, "duration": 3, "velocity": 81}, {"time": 1096, "pitch": 42, "duration": 45, "velocity": 83}, {"time": 1096, "pitch": 54, "duration": 6, "velocity": 74}, {"time": 1096, "pitch": 57, "duration": 7, "velocity": 68}, {"time": 1096, "pitch": 61, "duration": 7, "velocity": 77}, {"time": 1102, "pitch": 49, "duration": 38, "velocity": 69}, {"time": 1108, "pitch": 57, "duration": 6, "velocity": 76}, {"time": 1108, "pitch": 61, "duration": 6, "velocity": 79}, {"time": 1114, "pitch": 54, "duration": 8, "velocity": 77}, {"time": 1120, "pitch": 66, "duration": 6, "velocity": 84}, {"time": 1126, "pitch": 54, "duration": 4, "velocity": 82}, {"time": 1132, "pitch": 54, "duration": 3, "velocity": 85}, {"time": 1132, "pitch": 61, "duration": 8, "velocity": 83}, {"time": 1138, "pitch": 54, "duration": 4, "velocity": 79}, {"time": 1144, "pitch": 47, "duration": 21, "velocity": 83}, {"time": 1144, "pitch": 54, "duration": 2, "velocity": 83}, {"time": 1144, "pitch": 59, "duration": 7, "velocity": 83}, {"time": 1150, "pitch": 54, "duration": 8, "velocity": 83}, {"time": 1156, "pitch": 59, "duration": 4, "velocity": 82}, {"time": 1162, "pitch": 61, "duration": 2, "velocity": 83}, {"time": 1168, "pitch": 45, "duration": 8, "velocity": 86}, {"time": 1168, "pitch": 57, "duration": 7, "velocity": 76}, {"time": 1168, "pitch": 61, "duration": 8, "velocity": 82}, {"time": 1168, "pitch": 64, "duration": 8, "velocity": 82}, {"time": 1174, "pitch": 52, "duration": 3, "velocity": 72}, {"time": 1177, "pitch": 57, "duration": 2, "velocity": 86}, {"time": 1180, "pitch": 47, "duration": 8, "velocity": 89}, {"time": 1183, "pitch": 54, "duration": 4, "velocity": 68}, {"time": 1186, "pitch": 59, "duration": 4, "velocity": 91}, {"time": 1189, "pitch": 63, "duration": 2, "velocity": 91}, {"time": 1192, "pitch": 40, "duration": 41, "velocity": 85}, {"time": 1192, "pitch": 56, "duration": 8, "velocity": 79}, {"time": 1192, "pitch": 59, "duration": 8, "velocity": 80}, {"time": 1192, "pitch": 64, "duration": 7, "velocity": 80}, {"time": 1198, "pitch": 47, "duration": 34, "velocity": 70}, {"time": 1204, "pitch": 56, "duration": 2, "velocity": 82}, {"time": 1204, "pitch": 59, "duration": 2, "velocity": 93}, {"time": 1213, "pitch": 56, "duration": 1, "velocity": 78}, {"time": 1213, "pitch": 64, "duration": 1, "velocity": 77}, {"time": 1216, "pitch": 56, "duration": 3, "velocity": 81}, {"time": 1216, "pitch": 64, "duration": 3, "velocity": 83}, {"time": 1222, "pitch": 56, "duration": 2, "velocity": 77}, {"time": 1228, "pitch": 56, "duration": 2, "velocity": 85}, {"time": 1228, "pitch": 59, "duration": 5, "velocity": 89}, {"time": 1240, "pitch": 47, "duration": 32, "velocity": 85}, {"time": 1240, "pitch": 54, "duration": 3, "velocity": 82}, {"time": 1240, "pitch": 59, "duration": 7, "velocity": 80}, {"time": 1246, "pitch": 54, "duration": 3, "velocity": 78}, {"time": 1252, "pitch": 54, "duration": 6, "velocity": 84}, {"time": 1252, "pitch": 63, "duration": 6, "velocity": 86}, {"time": 1261, "pitch": 64, "duration": 4, "velocity": 83}, {"time": 1264, "pitch": 63, "duration": 6, "velocity": 91}, {"time": 1270, "pitch": 61, "duration": 4, "velocity": 89}, {"time": 1276, "pitch": 47, "duration": 7, "velocity": 74}, {"time": 1276, "pitch": 59, "duration": 7, "velocity": 84}, {"time": 1282, "pitch": 54, "duration": 2, "velocity": 76}, {"time": 1288, "pitch": 49, "duration": 21, "velocity": 84}, {"time": 1288, "pitch": 56, "duration": 3, "velocity": 76}, {"time": 1288, "pitch": 61, "duration": 7, "velocity": 75}, {"time": 1294, "pitch": 56, "duration": 2, "velocity": 71}, {"time": 1300, "pitch": 56, "duration": 2, "velocity": 84}, {"time": 1300, "pitch": 64, "duration": 7, "velocity": 84}, {"time": 1306, "pitch": 63, "duration": 6, "velocity": 86}, {"time": 1312, "pitch": 49, "duration": 16, "velocity": 82}, {"time": 1312, "pitch": 61, "duration": 6, "velocity": 83}, {"time": 1318, "pitch": 56, "duration": 3, "velocity": 75}, {"time": 1324, "pitch": 56, "duration": 2, "velocity": 82}, {"time": 1324, "pitch": 64, "duration": 6, "velocity": 84}, {"time": 1330, "pitch": 56, "duration": 2, "velocity": 78}, {"time": 1336, "pitch": 47, "duration": 22, "velocity": 84}, {"time": 1336, "pitch": 54, "duration": 3, "velocity": 79}, {"time": 1336, "pitch": 59, "duration": 7, "velocity": 79}, {"time": 1342, "pitch": 54, "duration": 2, "velocity": 72}, {"time": 1348, "pitch": 54, "duration": 3, "velocity": 85}, {"time": 1348, "pitch": 63, "duration": 4, "velocity": 86}, {"time": 1354, "pitch": 61, "duration": 3, "velocity": 88}, {"time": 1357, "pitch": 63, "duration": 2, "velocity": 83}, {"time": 1360, "pitch": 47, "duration": 14, "velocity": 87}, {"time": 1360, "pitch": 54, "duration": 3, "velocity": 75}, {"time": 1360, "pitch": 59, "duration": 7, "velocity": 79}, {"time": 1366, "pitch": 54, "duration": 3, "velocity": 81}, {"time": 1372, "pitch": 54, "duration": 2, "velocity": 85}, {"time": 1372, "pitch": 59, "duration": 6, "velocity": 86}, {"time": 1372, "pitch": 63, "duration": 8, "velocity": 93}, {"time": 1378, "pitch": 54, "duration": 2, "velocity": 77}, {"time": 1384, "pitch": 44, "duration": 22, "velocity": 83}, {"time": 1384, "pitch": 56, "duration": 6, "velocity": 77}, {"time": 1384, "pitch": 59, "duration": 5, "velocity": 82}, {"time": 1390, "pitch": 51, "duration": 9, "velocity": 69}, {"time": 1396, "pitch": 56, "duration": 5, "velocity": 85}, {"time": 1396, "pitch": 63, "duration": 6, "velocity": 88}, {"time": 1402, "pitch": 51, "duration": 5, "velocity": 73}, {"time": 1405, "pitch": 56, "duration": 2, "velocity": 82}, {"time": 1408, "pitch": 44, "duration": 21, "velocity": 83}, {"time": 1408, "pitch": 56, "duration": 5, "velocity": 83}, {"time": 1408, "pitch": 59, "duration": 6, "velocity": 84}, {"time": 1414, "pitch": 51, "duration": 11, "velocity": 71}, {"time": 1417, "pitch": 56, "duration": 2, "velocity": 78}, {"time": 1420, "pitch": 56, "duration": 4, "velocity": 78}, {"time": 1420, "pitch": 63, "duration": 6, "velocity": 98}, {"time": 1426, "pitch": 51, "duration": 3, "velocity": 82}, {"time": 1432, "pitch": 49, "duration": 14, "velocity": 88}, {"time": 1432, "pitch": 56, "duration": 4, "velocity": 79}, {"time": 1432, "pitch": 64, "duration": 8, "velocity": 82}, {"time": 1438, "pitch": 56, "duration": 3, "velocity": 70}, {"time": 1444, "pitch": 56, "duration": 3, "velocity": 83}, {"time": 1444, "pitch": 64, "duration": 4, "velocity": 83}, {"time": 1450, "pitch": 63, "duration": 2, "velocity": 93}, {"time": 1453, "pitch": 64, "duration": 3, "velocity": 75}, {"time": 1456, "pitch": 37, "duration": 18, "velocity": 84}, {"time": 1456, "pitch": 59, "duration": 3, "velocity": 72}, {"time": 1456, "pitch": 61, "duration": 7, "velocity": 72}, {"time": 1462, "pitch": 56, "duration": 4, "velocity": 84}, {"time": 1468, "pitch": 56, "duration": 3, "velocity": 83}, {"time": 1468, "pitch": 61, "duration": 4, "velocity": 83}, {"time": 1474, "pitch": 59, "duration": 3, "velocity": 86}, {"time": 1480, "pitch": 42, "duration": 40, "velocity": 81}, {"time": 1480, "pitch": 54, "duration": 7, "velocity": 68}, {"time": 1480, "pitch": 57, "duration": 9, "velocity": 74}, {"time": 1486, "pitch": 49, "duration": 9, "velocity": 72}, {"time": 1492, "pitch": 54, "duration": 3, "velocity": 82}, {"time": 1492, "pitch": 57, "duration": 4, "velocity": 86}, {"time": 1492, "pitch": 61, "duration": 5, "velocity": 85}, {"time": 1495, "pitch": 49, "duration": 10, "velocity": 71}, {"time": 1501, "pitch": 54, "duration": 1, "velocity": 77}, {"time": 1501, "pitch": 66, "duration": 1, "velocity": 66}, {"time": 1504, "pitch": 54, "duration": 5, "velocity": 83}, {"time": 1504, "pitch": 66, "duration": 5, "velocity": 82}, {"time": 1510, "pitch": 49, "duration": 8, "velocity": 77}, {"time": 1516, "pitch": 54, "duration": 5, "velocity": 83}, {"time": 1516, "pitch": 57, "duration": 5, "velocity": 84}, {"time": 1516, "pitch": 61, "duration": 6, "velocity": 84}, {"time": 1522, "pitch": 42, "duration": 2, "velocity": 53}, {"time": 1522, "pitch": 49, "duration": 3, "velocity": 82}, {"time": 1528, "pitch": 47, "duration": 20, "velocity": 86}, {"time": 1528, "pitch": 54, "duration": 3, "velocity": 83}, {"time": 1528, "pitch": 59, "duration": 7, "velocity": 84}, {"time": 1534, "pitch": 54, "duration": 3, "velocity": 82}, {"time": 1540, "pitch": 54, "duration": 2, "velocity": 86}, {"time": 1540, "pitch": 59, "duration": 6, "velocity": 88}, {"time": 1540, "pitch": 63, "duration": 6, "velocity": 93}, {"time": 1546, "pitch": 54, "duration": 4, "velocity": 83}, {"time": 1552, "pitch": 45, "duration": 9, "velocity": 91}, {"time": 1552, "pitch": 57, "duration": 6, "velocity": 83}, {"time": 1552, "pitch": 61, "duration": 8, "velocity": 83}, {"time": 1558, "pitch": 52, "duration": 4, "velocity": 77}, {"time": 1561, "pitch": 57, "duration": 2, "velocity": 79}, {"time": 1564, "pitch": 47, "duration": 11, "velocity": 89}, {"time": 1564, "pitch": 54, "duration": 4, "velocity": 80}, {"time": 1564, "pitch": 59, "duration": 9, "velocity": 85}, {"time": 1570, "pitch": 54, "duration": 5, "velocity": 83}, {"time": 1576, "pitch": 40, "duration": 41, "velocity": 85}, {"time": 1576, "pitch": 56, "duration": 8, "velocity": 79}, {"time": 1576, "pitch": 59, "duration": 8, "velocity": 80}, {"time": 1576, "pitch": 64, "duration": 7, "velocity": 80}, {"time": 1582, "pitch": 47, "duration": 34, "velocity": 70}, {"time": 1588, "pitch": 56, "duration": 2, "velocity": 82}, {"time": 1588, "pitch": 59, "duration": 2, "velocity": 93}, {"time": 1597, "pitch": 56, "duration": 1, "velocity": 78}, {"time": 1597, "pitch": 64, "duration": 1, "velocity": 77}, {"time": 1600, "pitch": 56, "duration": 3, "velocity": 81}, {"time": 1600, "pitch": 64, "duration": 3, "velocity": 83}, {"time": 1606, "pitch": 56, "duration": 2, "velocity": 77}, {"time": 1612, "pitch": 56, "duration": 2, "velocity": 85}, {"time": 1612, "pitch": 59, "duration": 5, "velocity": 89}, {"time": 1624, "pitch": 47, "duration": 32, "velocity": 85}, {"time": 1624, "pitch": 54, "duration": 3, "velocity": 82}, {"time": 1624, "pitch": 59, "duration": 7, "velocity": 80}, {"time": 1630, "pitch": 54, "duration": 3, "velocity": 78}, {"time": 1636, "pitch": 54, "duration": 6, "velocity": 84}, {"time": 1636, "pitch": 63, "duration": 6, "velocity": 86}, {"time": 1645, "pitch": 64, "duration": 4, "velocity": 83}, {"time": 1648, "pitch": 63, "duration": 6, "velocity": 91}, {"time": 1654, "pitch": 61, "duration": 4, "velocity": 89}, {"time": 1660, "pitch": 47, "duration": 7, "velocity": 74}, {"time": 1660, "pitch": 59, "duration": 7, "velocity": 84}, {"time": 1666, "pitch": 54, "duration": 2, "velocity": 76}, {"time": 1672, "pitch": 49, "duration": 21, "velocity": 84}, {"time": 1672, "pitch": 56, "duration": 3, "velocity": 76}, {"time": 1672, "pitch": 61, "duration": 7, "velocity": 75}, {"time": 1678, "pitch": 56, "duration": 2, "velocity": 71}, {"time": 1684, "pitch": 56, "duration": 2, "velocity": 84}, {"time": 1684, "pitch": 64, "duration": 7, "velocity": 84}, {"time": 1690, "pitch": 63, "duration": 6, "velocity": 86}, {"time": 1696, "pitch": 49, "duration": 16, "velocity": 82}, {"time": 1696, "pitch": 61, "duration": 6, "velocity": 83}, {"time": 1702, "pitch": 56, "duration": 3, "velocity": 75}, {"time": 1708, "pitch": 56, "duration": 2, "velocity": 82}, {"time": 1708, "pitch": 64, "duration": 6, "velocity": 84}, {"time": 1714, "pitch": 56, "duration": 2, "velocity": 78}, {"time": 1720, "pitch": 47, "duration": 22, "velocity": 84}, {"time": 1720, "pitch": 54, "duration": 3, "velocity": 79}, {"time": 1720, "pitch": 59, "duration": 7, "velocity": 79}, {"time": 1726, "pitch": 54, "duration": 2, "velocity": 72}, {"time": 1732, "pitch": 54, "duration": 3, "velocity": 85}, {"time": 1732, "pitch": 63, "duration": 4, "velocity": 86}, {"time": 1738, "pitch": 61, "duration": 3, "velocity": 88}, {"time": 1741, "pitch": 63, "duration": 2, "velocity": 83}, {"time": 1744, "pitch": 47, "duration": 14, "velocity": 87}, {"time": 1744, "pitch": 54, "duration": 3, "velocity": 75}, {"time": 1744, "pitch": 59, "duration": 7, "velocity": 79}, {"time": 1750, "pitch": 54, "duration": 3, "velocity": 81}, {"time": 1756, "pitch": 54, "duration": 2, "velocity": 85}, {"time": 1756, "pitch": 59, "duration": 6, "velocity": 86}, {"time": 1756, "pitch": 63, "duration": 8, "velocity": 93}, {"time": 1762, "pitch": 54, "duration": 2, "velocity": 77}, {"time": 1768, "pitch": 44, "duration": 22, "velocity": 83}, {"time": 1768, "pitch": 56, "duration": 6, "velocity": 77}, {"time": 1768, "pitch": 59, "duration": 5, "velocity": 82}, {"time": 1774, "pitch": 51, "duration": 9, "velocity": 69}, {"time": 1780, "pitch": 56, "duration": 5, "velocity": 85}, {"time": 1780, "pitch": 63, "duration": 6, "velocity": 88}, {"time": 1786, "pitch": 51, "duration": 5, "velocity": 73}, {"time": 1789, "pitch": 56, "duration": 2, "velocity": 82}, {"time": 1792, "pitch": 44, "duration": 21, "velocity": 83}, {"time": 1792, "pitch": 56, "duration": 5, "velocity": 83}, {"time": 1792, "pitch": 59, "duration": 6, "velocity": 84}, {"time": 1798, "pitch": 51, "duration": 11, "velocity": 71}, {"time": 1801, "pitch": 56, "duration": 2, "velocity": 78}, {"time": 1804, "pitch": 56, "duration": 4, "velocity": 78}, {"time": 1804, "pitch": 63, "duration": 6, "velocity": 98}, {"time": 1810, "pitch": 51, "duration": 3, "velocity": 82}, {"time": 1816, "pitch": 49, "duration": 14, "velocity": 88}, {"time": 1816, "pitch": 56, "duration": 4, "velocity": 79}, {"time": 1816, "pitch": 64, "duration": 8, "velocity": 82}, {"time": 1822, "pitch": 56, "duration": 3, "velocity": 70}, {"time": 1828, "pitch": 56, "duration": 3, "velocity": 83}, {"time": 1828, "pitch": 64, "duration": 4, "velocity": 83}, {"time": 1834, "pitch": 63, "duration": 2, "velocity": 93}, {"time": 1837, "pitch": 64, "duration": 3, "velocity": 75}, {"time": 1840, "pitch": 37, "duration": 18, "velocity": 84}, {"time": 1840, "pitch": 59, "duration": 3, "velocity": 72}, {"time": 1840, "pitch": 61, "duration": 7, "velocity": 72}, {"time": 1846, "pitch": 56, "duration": 4, "velocity": 84}, {"time": 1852, "pitch": 56, "duration": 3, "velocity": 83}, {"time": 1852, "pitch": 61, "duration": 4, "velocity": 83}, {"time": 1858, "pitch": 59, "duration": 3, "velocity": 86}, {"time": 1864, "pitch": 42, "duration": 20, "velocity": 84}, {"time": 1864, "pitch": 54, "duration": 14, "velocity": 78}, {"time": 1864, "pitch": 61, "duration": 5, "velocity": 82}, {"time": 1870, "pitch": 49, "duration": 13, "velocity": 80}, {"time": 1876, "pitch": 66, "duration": 4, "velocity": 82}, {"time": 1879, "pitch": 61, "duration": 4, "velocity": 77}, {"time": 1882, "pitch": 57, "duration": 3, "velocity": 82}, {"time": 1885, "pitch": 54, "duration": 2, "velocity": 84}, {"time": 1888, "pitch": 47, "duration": 17, "velocity": 83}, {"time": 1888, "pitch": 54, "duration": 3, "velocity": 82}, {"time": 1888, "pitch": 59, "duration": 8, "velocity": 78}, {"time": 1894, "pitch": 54, "duration": 3, "velocity": 79}, {"time": 1900, "pitch": 54, "duration": 3, "velocity": 83}, {"time": 1900, "pitch": 59, "duration": 8, "velocity": 83}, {"time": 1900, "pitch": 63, "duration": 9, "velocity": 84}, {"time": 1906, "pitch": 54, "duration": 2, "velocity": 77}, {"time": 1912, "pitch": 40, "duration": 23, "velocity": 83}, {"time": 1912, "pitch": 56, "duration": 8, "velocity": 76}, {"time": 1912, "pitch": 59, "duration": 12, "velocity": 78}, {"time": 1918, "pitch": 47, "duration": 18, "velocity": 71}, {"time": 1924, "pitch": 64, "duration": 4, "velocity": 88}, {"time": 1927, "pitch": 59, "duration": 4, "velocity": 83}, {"time": 1930, "pitch": 56, "duration": 4, "velocity": 78}, {"time": 1933, "pitch": 59, "duration": 2, "velocity": 82}, {"time": 1936, "pitch": 40, "duration": 16, "velocity": 81}, {"time": 1936, "pitch": 56, "duration": 7, "velocity": 80}, {"time": 1936, "pitch": 59, "duration": 9, "velocity": 84}, {"time": 1936, "pitch": 64, "duration": 8, "velocity": 82}, {"time": 1942, "pitch": 47, "duration": 9, "velocity": 77}, {"time": 1948, "pitch": 56, "duration": 2, "velocity": 81}, {"time": 1948, "pitch": 59, "duration": 6, "velocity": 85}, {"time": 1948, "pitch": 64, "duration": 6, "velocity": 83}, {"time": 1960, "pitch": 40, "duration": 39, "velocity": 83}, {"time": 1960, "pitch": 56, "duration": 7, "velocity": 78}, {"time": 1960, "pitch": 64, "duration": 7, "velocity": 82}, {"time": 1966, "pitch": 59, "duration": 7, "velocity": 80}, {"time": 1972, "pitch": 56, "duration": 6, "velocity": 75}, {"time": 1978, "pitch": 47, "duration": 20, "velocity": 77}, {"time": 1984, "pitch": 56, "duration": 2, "velocity": 83}, {"time": 1984, "pitch": 64, "duration": 3, "velocity": 84}, {"time": 1990, "pitch": 56, "duration": 3, "velocity": 76}, {"time": 1996, "pitch": 56, "duration": 2, "velocity": 78}, {"time": 1996, "pitch": 59, "duration": 4, "velocity": 83}, {"time": 1996, "pitch": 64, "duration": 7, "velocity": 79}, {"time": 2002, "pitch": 56, "duration": 2, "velocity": 66}, {"time": 2008, "pitch": 49, "duration": 21, "velocity": 81}, {"time": 2008, "pitch": 56, "duration": 3, "velocity": 72}, {"time": 2008, "pitch": 61, "duration": 8, "velocity": 75}, {"time": 2014, "pitch": 56, "duration": 4, "velocity": 76}, {"time": 2020, "pitch": 64, "duration": 5, "velocity": 85}, {"time": 2026, "pitch": 61, "duration": 3, "velocity": 84}, {"time": 2032, "pitch": 49, "duration": 16, "velocity": 79}, {"time": 2032, "pitch": 56, "duration": 4, "velocity": 77}, {"time": 2038, "pitch": 56, "duration": 2, "velocity": 83}, {"time": 2044, "pitch": 56, "duration": 2, "velocity": 84}, {"time": 2044, "pitch": 61, "duration": 5, "velocity": 83}, {"time": 2044, "pitch": 64, "duration": 5, "velocity": 83}, {"time": 2050, "pitch": 56, "duration": 1, "velocity": 65}, {"time": 2056, "pitch": 42, "duration": 34, "velocity": 83}, {"time": 2056, "pitch": 54, "duration": 7, "velocity": 79}, {"time": 2056, "pitch": 57, "duration": 7, "velocity": 64}, {"time": 2056, "pitch": 61, "duration": 7, "velocity": 78}, {"time": 2062, "pitch": 49, "duration": 28, "velocity": 68}, {"time": 2068, "pitch": 54, "duration": 12, "velocity": 84}, {"time": 2068, "pitch": 61, "duration": 3, "velocity": 83}, {"time": 2077, "pitch": 57, "duration": 4, "velocity": 80}, {"time": 2080, "pitch": 66, "duration": 6, "velocity": 86}, {"time": 2086, "pitch": 61, "duration": 2, "velocity": 82}, {"time": 2092, "pitch": 42, "duration": 8, "velocity": 83}, {"time": 2092, "pitch": 54, "duration": 3, "velocity": 80}, {"time": 2092, "pitch": 57, "duration": 6, "velocity": 78}, {"time": 2092, "pitch": 61, "duration": 7, "velocity": 82}, {"time": 2098, "pitch": 54, "duration": 2, "velocity": 80}, {"time": 2104, "pitch": 47, "duration": 23, "velocity": 84}, {"time": 2104, "pitch": 54, "duration": 2, "velocity": 81}, {"time": 2104, "pitch": 59, "duration": 7, "velocity": 80}, {"time": 2110, "pitch": 54, "duration": 3, "velocity": 79}, {"time": 2116, "pitch": 54, "duration": 9, "velocity": 82}, {"time": 2116, "pitch": 61, "duration": 10, "velocity": 81}, {"time": 2128, "pitch": 47, "duration": 19, "velocity": 84}, {"time": 2128, "pitch": 54, "duration": 3, "velocity": 83}, {"time": 2128, "pitch": 63, "duration": 8, "velocity": 84}, {"time": 2134, "pitch": 54, "duration": 3, "velocity": 82}, {"time": 2140, "pitch": 54, "duration": 3, "velocity": 86}, {"time": 2140, "pitch": 59, "duration": 3, "velocity": 86}, {"time": 2146, "pitch": 57, "duration": 4, "velocity": 77}, {"time": 2152, "pitch": 40, "duration": 41, "velocity": 83}, {"time": 2152, "pitch": 52, "duration": 10, "velocity": 81}, {"time": 2152, "pitch": 56, "duration": 7, "velocity": 82}, {"time": 2158, "pitch": 47, "duration": 35, "velocity": 69}, {"time": 2164, "pitch": 56, "duration": 3, "velocity": 82}, {"time": 2164, "pitch": 59, "duration": 3, "velocity": 84}, {"time": 2173, "pitch": 56, "duration": 1, "velocity": 83}, {"time": 2173, "pitch": 64, "duration": 1, "velocity": 74}, {"time": 2176, "pitch": 56, "duration": 7, "velocity": 83}, {"time": 2176, "pitch": 64, "duration": 6, "velocity": 82}, {"time": 2182, "pitch": 52, "duration": 2, "velocity": 59}, {"time": 2188, "pitch": 52, "duration": 3, "velocity": 83}, {"time": 2188, "pitch": 56, "duration": 6, "velocity": 83}, {"time": 2194, "pitch": 52, "duration": 1, "velocity": 73}, {"time": 2200, "pitch": 49, "duration": 41, "velocity": 84}, {"time": 2200, "pitch": 56, "duration": 4, "velocity": 73}, {"time": 2200, "pitch": 61, "duration": 8, "velocity": 77}, {"time": 2206, "pitch": 56, "duration": 3, "velocity": 74}, {"time": 2212, "pitch": 56, "duration": 2, "velocity": 83}, {"time": 2212, "pitch": 64, "duration": 2, "velocity": 85}, {"time": 2221, "pitch": 56, "duration": 2, "velocity": 74}, {"time": 2221, "pitch": 63, "duration": 1, "velocity": 82}, {"time": 2224, "pitch": 56, "duration": 3, "velocity": 76}, {"time": 2224, "pitch": 63, "duration": 4, "velocity": 84}, {"time": 2227, "pitch": 64, "duration": 3, "velocity": 87}, {"time": 2230, "pitch": 63, "duration": 4, "velocity": 86}, {"time": 2233, "pitch": 61, "duration": 4, "velocity": 82}, {"time": 2236, "pitch": 59, "duration": 4, "velocity": 88}, {"time": 2248, "pitch": 42, "duration": 22, "velocity": 83}, {"time": 2248, "pitch": 61, "duration": 10, "velocity": 80}, {"time": 2254, "pitch": 49, "duration": 15, "velocity": 82}, {"time": 2257, "pitch": 54, "duration": 7, "velocity": 82}, {"time": 2260, "pitch": 57, "duration": 4, "velocity": 79}, {"time": 2263, "pitch": 61, "duration": 8, "velocity": 84}, {"time": 2266, "pitch": 54, "duration": 4, "velocity": 82}, {"time": 2272, "pitch": 47, "duration": 18, "velocity": 91}, {"time": 2272, "pitch": 54, "duration": 3, "velocity": 85}, {"time": 2272, "pitch": 59, "duration": 7, "velocity": 82}, {"time": 2278, "pitch": 54, "duration": 3, "velocity": 82}, {"time": 2284, "pitch": 63, "duration": 6, "velocity": 91}, {"time": 2290, "pitch": 59, "duration": 2, "velocity": 82}, {"time": 2296, "pitch": 40, "duration": 10, "velocity": 77}, {"time": 2296, "pitch": 52, "duration": 6, "velocity": 76}, {"time": 2296, "pitch": 56, "duration": 8, "velocity": 74}, {"time": 2302, "pitch": 47, "duration": 4, "velocity": 81}, {"time": 2308, "pitch": 52, "duration": 2, "velocity": 93}, {"time": 2314, "pitch": 52, "duration": 27, "velocity": 83}, {"time": 2317, "pitch": 59, "duration": 23, "velocity": 78}, {"time": 2320, "pitch": 64, "duration": 5, "velocity": 84}, {"time": 2323, "pitch": 68, "duration": 4, "velocity": 84}, {"time": 2326, "pitch": 71, "duration": 4, "velocity": 83}, {"time": 2329, "pitch": 76, "duration": 4, "velocity": 88}, {"time": 2332, "pitch": 71, "duration": 3, "velocity": 82}, {"time": 2338, "pitch": 64, "duration": 5, "velocity": 67}, {"time": 2344, "pitch": 40, "duration": 40, "velocity": 81}, {"time": 2344, "pitch": 52, "duration": 12, "velocity": 72}, {"time": 2344, "pitch": 56, "duration": 10, "velocity": 74}, {"time": 2350, "pitch": 47, "duration": 34, "velocity": 69}, {"time": 2356, "pitch": 59, "duration": 7, "velocity": 76}, {"time": 2362, "pitch": 52, "duration": 7, "velocity": 69}, {"time": 2368, "pitch": 64, "duration": 8, "velocity": 80}, {"time": 2374, "pitch": 52, "duration": 6, "velocity": 68}, {"time": 2380, "pitch": 56, "duration": 2, "velocity": 79}, {"time": 2380, "pitch": 59, "duration": 3, "velocity": 82}, {"time": 2392, "pitch": 47, "duration": 43, "velocity": 82}, {"time": 2392, "pitch": 54, "duration": 3, "velocity": 78}, {"time": 2392, "pitch": 63, "duration": 10, "velocity": 83}, {"time": 2398, "pitch": 54, "duration": 7, "velocity": 68}, {"time": 2404, "pitch": 61, "duration": 7, "velocity": 82}, {"time": 2410, "pitch": 54, "duration": 3, "velocity": 82}, {"time": 2416, "pitch": 54, "duration": 3, "velocity": 77}, {"time": 2416, "pitch": 59, "duration": 8, "velocity": 77}, {"time": 2422, "pitch": 54, "duration": 4, "velocity": 70}, {"time": 2428, "pitch": 54, "duration": 3, "velocity": 82}, {"time": 2428, "pitch": 63, "duration": 7, "velocity": 82}, {"time": 2434, "pitch": 54, "duration": 2, "velocity": 81}, {"time": 2440, "pitch": 49, "duration": 9, "velocity": 76}, {"time": 2440, "pitch": 56, "duration": 3, "velocity": 71}, {"time": 2440, "pitch": 61, "duration": 9, "velocity": 76}, {"time": 2443, "pitch": 56, "duration": 1, "velocity": 76}, {"time": 2452, "pitch": 64, "duration": 6, "velocity": 86}, {"time": 2458, "pitch": 56, "duration": 3, "velocity": 77}, {"time": 2464, "pitch": 61, "duration": 7, "velocity": 84}, {"time": 2470, "pitch": 56, "duration": 3, "velocity": 71}, {"time": 2476, "pitch": 56, "duration": 4, "velocity": 81}, {"time": 2476, "pitch": 61, "duration": 5, "velocity": 83}, {"time": 2482, "pitch": 63, "duration": 4, "velocity": 78}, {"time": 2488, "pitch": 47, "duration": 37, "velocity": 85}, {"time": 2488, "pitch": 59, "duration": 6, "velocity": 77}, {"time": 2494, "pitch": 54, "duration": 4, "velocity": 76}, {"time": 2500, "pitch": 54, "duration": 3, "velocity": 80}, {"time": 2500, "pitch": 59, "duration": 8, "velocity": 83}, {"time": 2506, "pitch": 54, "duration": 4, "velocity": 72}, {"time": 2512, "pitch": 63, "duration": 9, "velocity": 83}, {"time": 2518, "pitch": 54, "duration": 3, "velocity": 78}, {"time": 2524, "pitch": 54, "duration": 2, "velocity": 85}, {"time": 2524, "pitch": 59, "duration": 4, "velocity": 84}, {"time": 2530, "pitch": 54, "duration": 2, "velocity": 82}, {"time": 2536, "pitch": 44, "duration": 43, "velocity": 82}, {"time": 2536, "pitch": 56, "duration": 8, "velocity": 77}, {"time": 2536, "pitch": 59, "duration": 8, "velocity": 80}, {"time": 2542, "pitch": 51, "duration": 37, "velocity": 75}, {"time": 2548, "pitch": 56, "duration": 2, "velocity": 82}, {"time": 2548, "pitch": 63, "duration": 8, "velocity": 82}, {"time": 2554, "pitch": 56, "duration": 3, "velocity": 75}, {"time": 2560, "pitch": 59, "duration": 7, "velocity": 70}, {"time": 2566, "pitch": 56, "duration": 3, "velocity": 70}, {"time": 2572, "pitch": 56, "duration": 3, "velocity": 82}, {"time": 2572, "pitch": 63, "duration": 4, "velocity": 84}, {"time": 2578, "pitch": 56, "duration": 3, "velocity": 61}, {"time": 2584, "pitch": 49, "duration": 41, "velocity": 77}, {"time": 2584, "pitch": 64, "duration": 12, "velocity": 84}, {"time": 2590, "pitch": 56, "duration": 7, "velocity": 77}, {"time": 2596, "pitch": 61, "duration": 8, "velocity": 80}, {"time": 2602, "pitch": 56, "duration": 7, "velocity": 82}, {"time": 2608, "pitch": 64, "duration": 9, "velocity": 86}, {"time": 2614, "pitch": 56, "duration": 7, "velocity": 84}, {"time": 2620, "pitch": 63, "duration": 7, "velocity": 88}, {"time": 2626, "pitch": 61, "duration": 3, "velocity": 81}, {"time": 2632, "pitch": 42, "duration": 45, "velocity": 83}, {"time": 2632, "pitch": 54, "duration": 6, "velocity": 74}, {"time": 2632, "pitch": 57, "duration": 7, "velocity": 68}, {"time": 2632, "pitch": 61, "duration": 7, "velocity": 77}, {"time": 2638, "pitch": 49, "duration": 38, "velocity": 69}, {"time": 2644, "pitch": 57, "duration": 6, "velocity": 76}, {"time": 2644, "pitch": 61, "duration": 6, "velocity": 79}, {"time": 2650, "pitch": 54, "duration": 8, "velocity": 77}, {"time": 2656, "pitch": 66, "duration": 6, "velocity": 84}, {"time": 2662, "pitch": 54, "duration": 4, "velocity": 82}, {"time": 2668, "pitch": 54, "duration": 3, "velocity": 85}, {"time": 2668, "pitch": 61, "duration": 8, "velocity": 83}, {"time": 2674, "pitch": 54, "duration": 4, "velocity": 79}, {"time": 2680, "pitch": 47, "duration": 21, "velocity": 83}, {"time": 2680, "pitch": 54, "duration": 2, "velocity": 83}, {"time": 2680, "pitch": 59, "duration": 7, "velocity": 83}, {"time": 2686, "pitch": 54, "duration": 8, "velocity": 83}, {"time": 2692, "pitch": 59, "duration": 4, "velocity": 82}, {"time": 2698, "pitch": 61, "duration": 2, "velocity": 83}, {"time": 2704, "pitch": 45, "duration": 8, "velocity": 86}, {"time": 2704, "pitch": 57, "duration": 7, "velocity": 76}, {"time": 2704, "pitch": 61, "duration": 8, "velocity": 82}, {"time": 2704, "pitch": 64, "duration": 8, "velocity": 82}, {"time": 2710, "pitch": 52, "duration": 3, "velocity": 72}, {"time": 2713, "pitch": 57, "duration": 2, "velocity": 86}, {"time": 2716, "pitch": 47, "duration": 8, "velocity": 89}, {"time": 2719, "pitch": 54, "duration": 4, "velocity": 68}, {"time": 2722, "pitch": 59, "duration": 4, "velocity": 91}, {"time": 2725, "pitch": 63, "duration": 2, "velocity": 91}, {"time": 2728, "pitch": 40, "duration": 41, "velocity": 85}, {"time": 2728, "pitch": 56, "duration": 8, "velocity": 79}, {"time": 2728, "pitch": 59, "duration": 8, "velocity": 80}, {"time": 2728, "pitch": 64, "duration": 7, "velocity": 80}, {"time": 2734, "pitch": 47, "duration": 34, "velocity": 70}, {"time": 2740, "pitch": 56, "duration": 2, "velocity": 82}, {"time": 2740, "pitch": 59, "duration": 2, "velocity": 93}, {"time": 2749, "pitch": 56, "duration": 1, "velocity": 78}, {"time": 2749, "pitch": 64, "duration": 1, "velocity": 77}, {"time": 2752, "pitch": 56, "duration": 3, "velocity": 81}, {"time": 2752, "pitch": 64, "duration": 3, "velocity": 83}, {"time": 2758, "pitch": 56, "duration": 2, "velocity": 77}, {"time": 2764, "pitch": 56, "duration": 2, "velocity": 85}, {"time": 2764, "pitch": 59, "duration": 5, "velocity": 89}, {"time": 2776, "pitch": 47, "duration": 32, "velocity": 85}, {"time": 2776, "pitch": 54, "duration": 3, "velocity": 82}, {"time": 2776, "pitch": 59, "duration": 7, "velocity": 80}, {"time": 2782, "pitch": 54, "duration": 3, "velocity": 78}, {"time": 2788, "pitch": 54, "duration": 6, "velocity": 84}, {"time": 2788, "pitch": 63, "duration": 6, "velocity": 86}, {"time": 2797, "pitch": 64, "duration": 4, "velocity": 83}, {"time": 2800, "pitch": 63, "duration": 6, "velocity": 91}, {"time": 2806, "pitch": 61, "duration": 4, "velocity": 89}, {"time": 2812, "pitch": 47, "duration": 7, "velocity": 74}, {"time": 2812, "pitch": 59, "duration": 7, "velocity": 84}, {"time": 2818, "pitch": 54, "duration": 2, "velocity": 76}, {"time": 2824, "pitch": 49, "duration": 21, "velocity": 84}, {"time": 2824, "pitch": 56, "duration": 3, "velocity": 76}, {"time": 2824, "pitch": 61, "duration": 7, "velocity": 75}, {"time": 2830, "pitch": 56, "duration": 2, "velocity": 71}, {"time": 2836, "pitch": 56, "duration": 2, "velocity": 84}, {"time": 2836, "pitch": 64, "duration": 7, "velocity": 84}, {"time": 2842, "pitch": 63, "duration": 6, "velocity": 86}, {"time": 2848, "pitch": 49, "duration": 16, "velocity": 82}, {"time": 2848, "pitch": 61, "duration": 6, "velocity": 83}, {"time": 2854, "pitch": 56, "duration": 3, "velocity": 75}, {"time": 2860, "pitch": 56, "duration": 2, "velocity": 82}, {"time": 2860, "pitch": 64, "duration": 6, "velocity": 84}, {"time": 2866, "pitch": 56, "duration": 2, "velocity": 78}, {"time": 2872, "pitch": 47, "duration": 22, "velocity": 84}, {"time": 2872, "pitch": 54, "duration": 3, "velocity": 79}, {"time": 2872, "pitch": 59, "duration": 7, "velocity": 79}, {"time": 2878, "pitch": 54, "duration": 2, "velocity": 72}, {"time": 2884, "pitch": 54, "duration": 3, "velocity": 85}, {"time": 2884, "pitch": 63, "duration": 4, "velocity": 86}, {"time": 2890, "pitch": 61, "duration": 3, "velocity": 88}, {"time": 2893, "pitch": 63, "duration": 2, "velocity": 83}, {"time": 2896, "pitch": 47, "duration": 14, "velocity": 87}, {"time": 2896, "pitch": 54, "duration": 3, "velocity": 75}, {"time": 2896, "pitch": 59, "duration": 7, "velocity": 79}, {"time": 2902, "pitch": 54, "duration": 3, "velocity": 81}, {"time": 2908, "pitch": 54, "duration": 2, "velocity": 85}, {"time": 2908, "pitch": 59, "duration": 6, "velocity": 86}, {"time": 2908, "pitch": 63, "duration": 8, "velocity": 93}, {"time": 2914, "pitch": 54, "duration": 2, "velocity": 77}, {"time": 2920, "pitch": 44, "duration": 22, "velocity": 83}, {"time": 2920, "pitch": 56, "duration": 6, "velocity": 77}, {"time": 2920, "pitch": 59, "duration": 5, "velocity": 82}, {"time": 2926, "pitch": 51, "duration": 9, "velocity": 69}, {"time": 2932, "pitch": 56, "duration": 5, "velocity": 85}, {"time": 2932, "pitch": 63, "duration": 6, "velocity": 88}, {"time": 2938, "pitch": 51, "duration": 5, "velocity": 73}, {"time": 2941, "pitch": 56, "duration": 2, "velocity": 82}, {"time": 2944, "pitch": 44, "duration": 21, "velocity": 83}, {"time": 2944, "pitch": 56, "duration": 5, "velocity": 83}, {"time": 2944, "pitch": 59, "duration": 6, "velocity": 84}, {"time": 2950, "pitch": 51, "duration": 11, "velocity": 71}, {"time": 2953, "pitch": 56, "duration": 2, "velocity": 78}, {"time": 2956, "pitch": 56, "duration": 4, "velocity": 78}, {"time": 2956, "pitch": 63, "duration": 6, "velocity": 98}, {"time": 2962, "pitch": 51, "duration": 3, "velocity": 82}, {"time": 2968, "pitch": 49, "duration": 14, "velocity": 88}, {"time": 2968, "pitch": 56, "duration": 4, "velocity": 79}, {"time": 2968, "pitch": 64, "duration": 8, "velocity": 82}, {"time": 2974, "pitch": 56, "duration": 3, "velocity": 70}, {"time": 2980, "pitch": 56, "duration": 3, "velocity": 83}, {"time": 2980, "pitch": 64, "duration": 4, "velocity": 83}, {"time": 2986, "pitch": 63, "duration": 2, "velocity": 93}, {"time": 2989, "pitch": 64, "duration": 3, "velocity": 75}, {"time": 2992, "pitch": 37, "duration": 18, "velocity": 84}, {"time": 2992, "pitch": 59, "duration": 3, "velocity": 72}, {"time": 2992, "pitch": 61, "duration": 7, "velocity": 72}, {"time": 2998, "pitch": 56, "duration": 4, "velocity": 84}, {"time": 3004, "pitch": 56, "duration": 3, "velocity": 83}, {"time": 3004, "pitch": 61, "duration": 4, "velocity": 83}, {"time": 3010, "pitch": 59, "duration": 3, "velocity": 86}, {"time": 3016, "pitch": 42, "duration": 40, "velocity": 81}, {"time": 3016, "pitch": 54, "duration": 7, "velocity": 68}, {"time": 3016, "pitch": 57, "duration": 9, "velocity": 74}, {"time": 3022, "pitch": 49, "duration": 9, "velocity": 72}, {"time": 3028, "pitch": 54, "duration": 3, "velocity": 82}, {"time": 3028, "pitch": 57, "duration": 4, "velocity": 86}, {"time": 3028, "pitch": 61, "duration": 5, "velocity": 85}, {"time": 3031, "pitch": 49, "duration": 10, "velocity": 71}, {"time": 3037, "pitch": 54, "duration": 1, "velocity": 77}, {"time": 3037, "pitch": 66, "duration": 1, "velocity": 66}, {"time": 3040, "pitch": 54, "duration": 5, "velocity": 83}, {"time": 3040, "pitch": 66, "duration": 5, "velocity": 82}, {"time": 3046, "pitch": 49, "duration": 8, "velocity": 77}, {"time": 3052, "pitch": 54, "duration": 5, "velocity": 83}, {"time": 3052, "pitch": 57, "duration": 5, "velocity": 84}, {"time": 3052, "pitch": 61, "duration": 6, "velocity": 84}, {"time": 3058, "pitch": 42, "duration": 2, "velocity": 53}, {"time": 3058, "pitch": 49, "duration": 3, "velocity": 82}, {"time": 3064, "pitch": 47, "duration": 20, "velocity": 86}, {"time": 3064, "pitch": 54, "duration": 3, "velocity": 83}, {"time": 3064, "pitch": 59, "duration": 7, "velocity": 84}, {"time": 3070, "pitch": 54, "duration": 3, "velocity": 82}, {"time": 3076, "pitch": 54, "duration": 2, "velocity": 86}, {"time": 3076, "pitch": 59, "duration": 6, "velocity": 88}, {"time": 3076, "pitch": 63, "duration": 6, "velocity": 93}, {"time": 3082, "pitch": 54, "duration": 4, "velocity": 83}, {"time": 3088, "pitch": 45, "duration": 9, "velocity": 91}, {"time": 3088, "pitch": 57, "duration": 6, "velocity": 83}, {"time": 3088, "pitch": 61, "duration": 8, "velocity": 83}, {"time": 3094, "pitch": 52, "duration": 4, "velocity": 77}, {"time": 3097, "pitch": 57, "duration": 2, "velocity": 79}, {"time": 3100, "pitch": 47, "duration": 11, "velocity": 89}, {"time": 3100, "pitch": 54, "duration": 4, "velocity": 80}, {"time": 3100, "pitch": 59, "duration": 9, "velocity": 85}, {"time": 3106, "pitch": 54, "duration": 5, "velocity": 83}, {"time": 3112, "pitch": 40, "duration": 41, "velocity": 85}, {"time": 3112, "pitch": 56, "duration": 8, "velocity": 79}, {"time": 3112, "pitch": 59, "duration": 8, "velocity": 80}, {"time": 3112, "pitch": 64, "duration": 7, "velocity": 80}, {"time": 3118, "pitch": 47, "duration": 34, "velocity": 70}, {"time": 3124, "pitch": 56, "duration": 2, "velocity": 82}, {"time": 3124, "pitch": 59, "duration": 2, "velocity": 93}, {"time": 3133, "pitch": 56, "duration": 1, "velocity": 78}, {"time": 3133, "pitch": 64, "duration": 1, "velocity": 77}, {"time": 3136, "pitch": 56, "duration": 3, "velocity": 81}, {"time": 3136, "pitch": 64, "duration": 3, "velocity": 83}, {"time": 3142, "pitch": 56, "duration": 2, "velocity": 77}, {"time": 3148, "pitch": 56, "duration": 2, "velocity": 85}, {"time": 3148, "pitch": 59, "duration": 5, "velocity": 89}, {"time": 3160, "pitch": 47, "duration": 32, "velocity": 85}, {"time": 3160, "pitch": 54, "duration": 3, "velocity": 82}, {"time": 3160, "pitch": 59, "duration": 7, "velocity": 80}, {"time": 3166, "pitch": 54, "duration": 3, "velocity": 78}, {"time": 3172, "pitch": 54, "duration": 6, "velocity": 84}, {"time": 3172, "pitch": 63, "duration": 6, "velocity": 86}, {"time": 3181, "pitch": 64, "duration": 4, "velocity": 83}, {"time": 3184, "pitch": 63, "duration": 6, "velocity": 91}, {"time": 3190, "pitch": 61, "duration": 4, "velocity": 89}, {"time": 3196, "pitch": 47, "duration": 7, "velocity": 74}, {"time": 3196, "pitch": 59, "duration": 7, "velocity": 84}, {"time": 3202, "pitch": 54, "duration": 2, "velocity": 76}, {"time": 3208, "pitch": 49, "duration": 21, "velocity": 84}, {"time": 3208, "pitch": 56, "duration": 3, "velocity": 76}, {"time": 3208, "pitch": 61, "duration": 7, "velocity": 75}, {"time": 3214, "pitch": 56, "duration": 2, "velocity": 71}, {"time": 3220, "pitch": 56, "duration": 2, "velocity": 84}, {"time": 3220, "pitch": 64, "duration": 7, "velocity": 84}, {"time": 3226, "pitch": 63, "duration": 6, "velocity": 86}, {"time": 3232, "pitch": 49, "duration": 16, "velocity": 82}, {"time": 3232, "pitch": 61, "duration": 6, "velocity": 83}, {"time": 3238, "pitch": 56, "duration": 3, "velocity": 75}, {"time": 3244, "pitch": 56, "duration": 2, "velocity": 82}, {"time": 3244, "pitch": 64, "duration": 6, "velocity": 84}, {"time": 3250, "pitch": 56, "duration": 2, "velocity": 78}, {"time": 3256, "pitch": 47, "duration": 22, "velocity": 84}, {"time": 3256, "pitch": 54, "duration": 3, "velocity": 79}, {"time": 3256, "pitch": 59, "duration": 7, "velocity": 79}, {"time": 3262, "pitch": 54, "duration": 2, "velocity": 72}, {"time": 3268, "pitch": 54, "duration": 3, "velocity": 85}, {"time": 3268, "pitch": 63, "duration": 4, "velocity": 86}, {"time": 3274, "pitch": 61, "duration": 3, "velocity": 88}, {"time": 3277, "pitch": 63, "duration": 2, "velocity": 83}, {"time": 3280, "pitch": 47, "duration": 14, "velocity": 87}, {"time": 3280, "pitch": 54, "duration": 3, "velocity": 75}, {"time": 3280, "pitch": 59, "duration": 7, "velocity": 79}, {"time": 3286, "pitch": 54, "duration": 3, "velocity": 81}, {"time": 3292, "pitch": 54, "duration": 2, "velocity": 85}, {"time": 3292, "pitch": 59, "duration": 6, "velocity": 86}, {"time": 3292, "pitch": 63, "duration": 8, "velocity": 93}, {"time": 3298, "pitch": 54, "duration": 2, "velocity": 77}, {"time": 3304, "pitch": 44, "duration": 22, "velocity": 83}, {"time": 3304, "pitch": 56, "duration": 6, "velocity": 77}, {"time": 3304, "pitch": 59, "duration": 5, "velocity": 82}, {"time": 3310, "pitch": 51, "duration": 9, "velocity": 69}, {"time": 3316, "pitch": 56, "duration": 5, "velocity": 85}, {"time": 3316, "pitch": 63, "duration": 6, "velocity": 88}, {"time": 3322, "pitch": 51, "duration": 5, "velocity": 73}, {"time": 3325, "pitch": 56, "duration": 2, "velocity": 82}, {"time": 3328, "pitch": 44, "duration": 21, "velocity": 83}, {"time": 3328, "pitch": 56, "duration": 5, "velocity": 83}, {"time": 3328, "pitch": 59, "duration": 6, "velocity": 84}, {"time": 3334, "pitch": 51, "duration": 11, "velocity": 71}, {"time": 3337, "pitch": 56, "duration": 2, "velocity": 78}, {"time": 3340, "pitch": 56, "duration": 4, "velocity": 78}, {"time": 3340, "pitch": 63, "duration": 6, "velocity": 98}, {"time": 3346, "pitch": 51, "duration": 3, "velocity": 82}, {"time": 3352, "pitch": 49, "duration": 14, "velocity": 88}, {"time": 3352, "pitch": 56, "duration": 4, "velocity": 79}, {"time": 3352, "pitch": 64, "duration": 8, "velocity": 82}, {"time": 3358, "pitch": 56, "duration": 3, "velocity": 70}, {"time": 3364, "pitch": 56, "duration": 3, "velocity": 83}, {"time": 3364, "pitch": 64, "duration": 4, "velocity": 83}, {"time": 3370, "pitch": 63, "duration": 2, "velocity": 93}, {"time": 3373, "pitch": 64, "duration": 3, "velocity": 75}, {"time": 3376, "pitch": 37, "duration": 18, "velocity": 84}, {"time": 3376, "pitch": 59, "duration": 3, "velocity": 72}, {"time": 3376, "pitch": 61, "duration": 7, "velocity": 72}, {"time": 3382, "pitch": 56, "duration": 4, "velocity": 84}, {"time": 3388, "pitch": 56, "duration": 3, "velocity": 83}, {"time": 3388, "pitch": 61, "duration": 4, "velocity": 83}, {"time": 3394, "pitch": 59, "duration": 3, "velocity": 86}, {"time": 3400, "pitch": 42, "duration": 20, "velocity": 84}, {"time": 3400, "pitch": 54, "duration": 14, "velocity": 78}, {"time": 3400, "pitch": 61, "duration": 5, "velocity": 82}, {"time": 3406, "pitch": 49, "duration": 13, "velocity": 80}, {"time": 3412, "pitch": 66, "duration": 4, "velocity": 82}, {"time": 3415, "pitch": 61, "duration": 4, "velocity": 77}, {"time": 3418, "pitch": 57, "duration": 3, "velocity": 82}, {"time": 3421, "pitch": 54, "duration": 2, "velocity": 84}, {"time": 3424, "pitch": 47, "duration": 17, "velocity": 83}, {"time": 3424, "pitch": 54, "duration": 3, "velocity": 82}, {"time": 3424, "pitch": 59, "duration": 8, "velocity": 78}, {"time": 3430, "pitch": 54, "duration": 3, "velocity": 79}, {"time": 3436, "pitch": 54, "duration": 3, "velocity": 83}, {"time": 3436, "pitch": 59, "duration": 8, "velocity": 83}, {"time": 3436, "pitch": 63, "duration": 9, "velocity": 84}, {"time": 3442, "pitch": 54, "duration": 2, "velocity": 77}, {"time": 3448, "pitch": 40, "duration": 23, "velocity": 83}, {"time": 3448, "pitch": 56, "duration": 8, "velocity": 76}, {"time": 3448, "pitch": 59, "duration": 12, "velocity": 78}, {"time": 3454, "pitch": 47, "duration": 18, "velocity": 71}, {"time": 3460, "pitch": 64, "duration": 4, "velocity": 88}, {"time": 3463, "pitch": 59, "duration": 4, "velocity": 83}, {"time": 3466, "pitch": 56, "duration": 4, "velocity": 78}, {"time": 3469, "pitch": 59, "duration": 2, "velocity": 82}, {"time": 3472, "pitch": 40, "duration": 16, "velocity": 81}, {"time": 3472, "pitch": 56, "duration": 7, "velocity": 80}, {"time": 3472, "pitch": 59, "duration": 9, "velocity": 84}, {"time": 3472, "pitch": 64, "duration": 8, "velocity": 82}, {"time": 3478, "pitch": 47, "duration": 9, "velocity": 77}, {"time": 3484, "pitch": 56, "duration": 2, "velocity": 81}, {"time": 3484, "pitch": 59, "duration": 6, "velocity": 85}, {"time": 3484, "pitch": 64, "duration": 6, "velocity": 83}, {"time": 3496, "pitch": 45, "duration": 5, "velocity": 89}, {"time": 3496, "pitch": 52, "duration": 5, "velocity": 73}, {"time": 3496, "pitch": 57, "duration": 5, "velocity": 74}, {"time": 3496, "pitch": 61, "duration": 5, "velocity": 81}, {"time": 3502, "pitch": 45, "duration": 3, "velocity": 87}, {"time": 3502, "pitch": 52, "duration": 3, "velocity": 82}, {"time": 3502, "pitch": 57, "duration": 3, "velocity": 83}, {"time": 3502, "pitch": 61, "duration": 3, "velocity": 85}, {"time": 3520, "pitch": 45, "duration": 15, "velocity": 89}, {"time": 3520, "pitch": 52, "duration": 9, "velocity": 80}, {"time": 3520, "pitch": 57, "duration": 9, "velocity": 82}, {"time": 3520, "pitch": 61, "duration": 8, "velocity": 82}, {"time": 3532, "pitch": 52, "duration": 3, "velocity": 85}, {"time": 3532, "pitch": 57, "duration": 6, "velocity": 87}, {"time": 3532, "pitch": 64, "duration": 10, "velocity": 84}, {"time": 3544, "pitch": 47, "duration": 35, "velocity": 83}, {"time": 3544, "pitch": 54, "duration": 4, "velocity": 74}, {"time": 3544, "pitch": 59, "duration": 8, "velocity": 76}, {"time": 3550, "pitch": 54, "duration": 3, "velocity": 85}, {"time": 3556, "pitch": 54, "duration": 2, "velocity": 84}, {"time": 3556, "pitch": 63, "duration": 6, "velocity": 87}, {"time": 3565, "pitch": 54, "duration": 1, "velocity": 82}, {"time": 3565, "pitch": 61, "duration": 1, "velocity": 76}, {"time": 3568, "pitch": 54, "duration": 3, "velocity": 83}, {"time": 3568, "pitch": 61, "duration": 4, "velocity": 84}, {"time": 3574, "pitch": 54, "duration": 3, "velocity": 83}, {"time": 3580, "pitch": 47, "duration": 11, "velocity": 89}, {"time": 3580, "pitch": 54, "duration": 3, "velocity": 84}, {"time": 3580, "pitch": 59, "duration": 8, "velocity": 82}, {"time": 3586, "pitch": 54, "duration": 5, "velocity": 85}, {"time": 3592, "pitch": 49, "duration": 21, "velocity": 84}, {"time": 3592, "pitch": 56, "duration": 3, "velocity": 76}, {"time": 3592, "pitch": 61, "duration": 7, "velocity": 75}, {"time": 3598, "pitch": 56, "duration": 2, "velocity": 71}, {"time": 3604, "pitch": 56, "duration": 2, "velocity": 84}, {"time": 3604, "pitch": 64, "duration": 7, "velocity": 84}, {"time": 3610, "pitch": 63, "duration": 6, "velocity": 86}, {"time": 3616, "pitch": 49, "duration": 16, "velocity": 82}, {"time": 3616, "pitch": 61, "duration": 6, "velocity": 83}, {"time": 3622, "pitch": 56, "duration": 3, "velocity": 75}, {"time": 3628, "pitch": 56, "duration": 2, "velocity": 82}, {"time": 3628, "pitch": 64, "duration": 6, "velocity": 84}, {"time": 3634, "pitch": 56, "duration": 2, "velocity": 78}, {"time": 3640, "pitch": 47, "duration": 22, "velocity": 84}, {"time": 3640, "pitch": 54, "duration": 3, "velocity": 79}, {"time": 3640, "pitch": 59, "duration": 7, "velocity": 79}, {"time": 3646, "pitch": 54, "duration": 2, "velocity": 72}, {"time": 3652, "pitch": 54, "duration": 3, "velocity": 85}, {"time": 3652, "pitch": 63, "duration": 4, "velocity": 86}, {"time": 3658, "pitch": 61, "duration": 3, "velocity": 88}, {"time": 3661, "pitch": 63, "duration": 2, "velocity": 83}, {"time": 3664, "pitch": 47, "duration": 14, "velocity": 87}, {"time": 3664, "pitch": 54, "duration": 3, "velocity": 75}, {"time": 3664, "pitch": 59, "duration": 7, "velocity": 79}, {"time": 3670, "pitch": 54, "duration": 3, "velocity": 81}, {"time": 3676, "pitch": 54, "duration": 2, "velocity": 85}, {"time": 3676, "pitch": 59, "duration": 6, "velocity": 86}, {"time": 3676, "pitch": 63, "duration": 8, "velocity": 93}, {"time": 3682, "pitch": 54, "duration": 2, "velocity": 77}, {"time": 3688, "pitch": 44, "duration": 22, "velocity": 83}, {"time": 3688, "pitch": 56, "duration": 6, "velocity": 77}, {"time": 3688, "pitch": 59, "duration": 5, "velocity": 82}, {"time": 3694, "pitch": 51, "duration": 9, "velocity": 69}, {"time": 3700, "pitch": 56, "duration": 5, "velocity": 85}, {"time": 3700, "pitch": 63, "duration": 6, "velocity": 88}, {"time": 3706, "pitch": 51, "duration": 5, "velocity": 73}, {"time": 3709, "pitch": 56, "duration": 2, "velocity": 82}, {"time": 3712, "pitch": 44, "duration": 21, "velocity": 83}, {"time": 3712, "pitch": 56, "duration": 5, "velocity": 83}, {"time": 3712, "pitch": 59, "duration": 6, "velocity": 84}, {"time": 3718, "pitch": 51, "duration": 11, "velocity": 71}, {"time": 3721, "pitch": 56, "duration": 2, "velocity": 78}, {"time": 3724, "pitch": 56, "duration": 4, "velocity": 78}, {"time": 3724, "pitch": 63, "duration": 6, "velocity": 98}, {"time": 3730, "pitch": 51, "duration": 3, "velocity": 82}, {"time": 3736, "pitch": 49, "duration": 14, "velocity": 88}, {"time": 3736, "pitch": 56, "duration": 4, "velocity": 79}, {"time": 3736, "pitch": 64, "duration": 8, "velocity": 82}, {"time": 3742, "pitch": 56, "duration": 3, "velocity": 70}, {"time": 3748, "pitch": 56, "duration": 3, "velocity": 83}, {"time": 3748, "pitch": 64, "duration": 4, "velocity": 83}, {"time": 3754, "pitch": 63, "duration": 2, "velocity": 93}, {"time": 3757, "pitch": 64, "duration": 3, "velocity": 75}, {"time": 3760, "pitch": 37, "duration": 18, "velocity": 84}, {"time": 3760, "pitch": 59, "duration": 3, "velocity": 72}, {"time": 3760, "pitch": 61, "duration": 7, "velocity": 72}, {"time": 3766, "pitch": 56, "duration": 4, "velocity": 84}, {"time": 3772, "pitch": 56, "duration": 3, "velocity": 83}, {"time": 3772, "pitch": 61, "duration": 4, "velocity": 83}, {"time": 3778, "pitch": 59, "duration": 3, "velocity": 86}, {"time": 3784, "pitch": 42, "duration": 40, "velocity": 81}, {"time": 3784, "pitch": 54, "duration": 7, "velocity": 68}, {"time": 3784, "pitch": 57, "duration": 9, "velocity": 74}, {"time": 3790, "pitch": 49, "duration": 9, "velocity": 72}, {"time": 3796, "pitch": 54, "duration": 3, "velocity": 82}, {"time": 3796, "pitch": 57, "duration": 4, "velocity": 86}, {"time": 3796, "pitch": 61, "duration": 5, "velocity": 85}, {"time": 3799, "pitch": 49, "duration": 10, "velocity": 71}, {"time": 3805, "pitch": 54, "duration": 1, "velocity": 77}, {"time": 3805, "pitch": 66, "duration": 1, "velocity": 66}, {"time": 3808, "pitch": 54, "duration": 5, "velocity": 83}, {"time": 3808, "pitch": 66, "duration": 5, "velocity": 82}, {"time": 3814, "pitch": 49, "duration": 8, "velocity": 77}, {"time": 3820, "pitch": 54, "duration": 5, "velocity": 83}, {"time": 3820, "pitch": 57, "duration": 5, "velocity": 84}, {"time": 3820, "pitch": 61, "duration": 6, "velocity": 84}, {"time": 3826, "pitch": 42, "duration": 2, "velocity": 53}, {"time": 3826, "pitch": 49, "duration": 3, "velocity": 82}, {"time": 3832, "pitch": 47, "duration": 20, "velocity": 86}, {"time": 3832, "pitch": 54, "duration": 3, "velocity": 83}, {"time": 3832, "pitch": 59, "duration": 7, "velocity": 84}, {"time": 3838, "pitch": 54, "duration": 3, "velocity": 82}, {"time": 3844, "pitch": 54, "duration": 2, "velocity": 86}, {"time": 3844, "pitch": 59, "duration": 6, "velocity": 88}, {"time": 3844, "pitch": 63, "duration": 6, "velocity": 93}, {"time": 3850, "pitch": 54, "duration": 4, "velocity": 83}, {"time": 3856, "pitch": 45, "duration": 9, "velocity": 91}, {"time": 3856, "pitch": 57, "duration": 6, "velocity": 83}, {"time": 3856, "pitch": 61, "duration": 8, "velocity": 83}, {"time": 3862, "pitch": 52, "duration": 4, "velocity": 77}, {"time": 3865, "pitch": 57, "duration": 2, "velocity": 79}, {"time": 3868, "pitch": 47, "duration": 11, "velocity": 89}, {"time": 3868, "pitch": 54, "duration": 4, "velocity": 80}, {"time": 3868, "pitch": 59, "duration": 9, "velocity": 85}, {"time": 3874, "pitch": 54, "duration": 5, "velocity": 83}, {"time": 3880, "pitch": 40, "duration": 41, "velocity": 85}, {"time": 3880, "pitch": 56, "duration": 8, "velocity": 79}, {"time": 3880, "pitch": 59, "duration": 8, "velocity": 80}, {"time": 3880, "pitch": 64, "duration": 7, "velocity": 80}, {"time": 3886, "pitch": 47, "duration": 34, "velocity": 70}, {"time": 3892, "pitch": 56, "duration": 2, "velocity": 82}, {"time": 3892, "pitch": 59, "duration": 2, "velocity": 93}, {"time": 3901, "pitch": 56, "duration": 1, "velocity": 78}, {"time": 3901, "pitch": 64, "duration": 1, "velocity": 77}, {"time": 3904, "pitch": 56, "duration": 3, "velocity": 81}, {"time": 3904, "pitch": 64, "duration": 3, "velocity": 83}, {"time": 3910, "pitch": 56, "duration": 2, "velocity": 77}, {"time": 3916, "pitch": 56, "duration": 2, "velocity": 85}, {"time": 3916, "pitch": 59, "duration": 5, "velocity": 89}, {"time": 3928, "pitch": 47, "duration": 32, "velocity": 85}, {"time": 3928, "pitch": 54, "duration": 3, "velocity": 82}, {"time": 3928, "pitch": 59, "duration": 7, "velocity": 80}, {"time": 3934, "pitch": 54, "duration": 3, "velocity": 78}, {"time": 3940, "pitch": 54, "duration": 6, "velocity": 84}, {"time": 3940, "pitch": 63, "duration": 6, "velocity": 86}, {"time": 3949, "pitch": 64, "duration": 4, "velocity": 83}, {"time": 3952, "pitch": 63, "duration": 6, "velocity": 91}, {"time": 3958, "pitch": 61, "duration": 4, "velocity": 89}, {"time": 3964, "pitch": 47, "duration": 7, "velocity": 74}, {"time": 3964, "pitch": 59, "duration": 7, "velocity": 84}, {"time": 3970, "pitch": 54, "duration": 2, "velocity": 76}, {"time": 3976, "pitch": 49, "duration": 21, "velocity": 84}, {"time": 3976, "pitch": 56, "duration": 3, "velocity": 76}, {"time": 3976, "pitch": 61, "duration": 7, "velocity": 75}, {"time": 3982, "pitch": 56, "duration": 2, "velocity": 71}, {"time": 3988, "pitch": 56, "duration": 2, "velocity": 84}, {"time": 3988, "pitch": 64, "duration": 7, "velocity": 84}, {"time": 3994, "pitch": 63, "duration": 6, "velocity": 86}, {"time": 4000, "pitch": 49, "duration": 16, "velocity": 82}, {"time": 4000, "pitch": 61, "duration": 6, "velocity": 83}, {"time": 4006, "pitch": 56, "duration": 3, "velocity": 75}, {"time": 4012, "pitch": 56, "duration": 2, "velocity": 82}, {"time": 4012, "pitch": 64, "duration": 6, "velocity": 84}, {"time": 4018, "pitch": 56, "duration": 2, "velocity": 78}, {"time": 4024, "pitch": 47, "duration": 22, "velocity": 84}, {"time": 4024, "pitch": 54, "duration": 3, "velocity": 79}, {"time": 4024, "pitch": 59, "duration": 7, "velocity": 79}, {"time": 4030, "pitch": 54, "duration": 2, "velocity": 72}, {"time": 4036, "pitch": 54, "duration": 3, "velocity": 85}, {"time": 4036, "pitch": 63, "duration": 4, "velocity": 86}, {"time": 4042, "pitch": 61, "duration": 3, "velocity": 88}, {"time": 4045, "pitch": 63, "duration": 2, "velocity": 83}, {"time": 4048, "pitch": 47, "duration": 14, "velocity": 87}, {"time": 4048, "pitch": 54, "duration": 3, "velocity": 75}, {"time": 4048, "pitch": 59, "duration": 7, "velocity": 79}, {"time": 4054, "pitch": 54, "duration": 3, "velocity": 81}, {"time": 4060, "pitch": 54, "duration": 2, "velocity": 85}, {"time": 4060, "pitch": 59, "duration": 6, "velocity": 86}, {"time": 4060, "pitch": 63, "duration": 8, "velocity": 93}, {"time": 4066, "pitch": 54, "duration": 2, "velocity": 77}, {"time": 4072, "pitch": 44, "duration": 22, "velocity": 83}, {"time": 4072, "pitch": 56, "duration": 6, "velocity": 77}, {"time": 4072, "pitch": 59, "duration": 5, "velocity": 82}, {"time": 4078, "pitch": 51, "duration": 9, "velocity": 69}, {"time": 4084, "pitch": 56, "duration": 5, "velocity": 85}, {"time": 4084, "pitch": 63, "duration": 6, "velocity": 88}, {"time": 4090, "pitch": 51, "duration": 5, "velocity": 73}, {"time": 4093, "pitch": 56, "duration": 2, "velocity": 82}, {"time": 4096, "pitch": 44, "duration": 21, "velocity": 83}, {"time": 4096, "pitch": 56, "duration": 5, "velocity": 83}, {"time": 4096, "pitch": 59, "duration": 6, "velocity": 84}, {"time": 4102, "pitch": 51, "duration": 11, "velocity": 71}, {"time": 4105, "pitch": 56, "duration": 2, "velocity": 78}, {"time": 4108, "pitch": 56, "duration": 4, "velocity": 78}, {"time": 4108, "pitch": 63, "duration": 6, "velocity": 98}, {"time": 4114, "pitch": 51, "duration": 3, "velocity": 82}, {"time": 4120, "pitch": 49, "duration": 14, "velocity": 88}, {"time": 4120, "pitch": 56, "duration": 4, "velocity": 79}, {"time": 4120, "pitch": 64, "duration": 8, "velocity": 82}, {"time": 4126, "pitch": 56, "duration": 3, "velocity": 70}, {"time": 4132, "pitch": 56, "duration": 3, "velocity": 83}, {"time": 4132, "pitch": 64, "duration": 4, "velocity": 83}, {"time": 4138, "pitch": 63, "duration": 2, "velocity": 93}, {"time": 4141, "pitch": 64, "duration": 3, "velocity": 75}, {"time": 4144, "pitch": 37, "duration": 18, "velocity": 84}, {"time": 4144, "pitch": 59, "duration": 3, "velocity": 72}, {"time": 4144, "pitch": 61, "duration": 7, "velocity": 72}, {"time": 4150, "pitch": 56, "duration": 4, "velocity": 84}, {"time": 4156, "pitch": 56, "duration": 3, "velocity": 83}, {"time": 4156, "pitch": 61, "duration": 4, "velocity": 83}, {"time": 4162, "pitch": 59, "duration": 3, "velocity": 86}, {"time": 4168, "pitch": 42, "duration": 20, "velocity": 84}, {"time": 4168, "pitch": 54, "duration": 14, "velocity": 78}, {"time": 4168, "pitch": 61, "duration": 5, "velocity": 82}, {"time": 4174, "pitch": 49, "duration": 13, "velocity": 80}, {"time": 4180, "pitch": 66, "duration": 4, "velocity": 82}, {"time": 4183, "pitch": 61, "duration": 4, "velocity": 77}, {"time": 4186, "pitch": 57, "duration": 3, "velocity": 82}, {"time": 4189, "pitch": 54, "duration": 2, "velocity": 84}, {"time": 4192, "pitch": 47, "duration": 17, "velocity": 83}, {"time": 4192, "pitch": 54, "duration": 3, "velocity": 82}, {"time": 4192, "pitch": 59, "duration": 8, "velocity": 78}, {"time": 4198, "pitch": 54, "duration": 3, "velocity": 79}, {"time": 4204, "pitch": 54, "duration": 3, "velocity": 83}, {"time": 4204, "pitch": 59, "duration": 8, "velocity": 83}, {"time": 4204, "pitch": 63, "duration": 9, "velocity": 84}, {"time": 4210, "pitch": 54, "duration": 2, "velocity": 77}, {"time": 4216, "pitch": 40, "duration": 23, "velocity": 83}, {"time": 4216, "pitch": 56, "duration": 8, "velocity": 76}, {"time": 4216, "pitch": 59, "duration": 12, "velocity": 78}, {"time": 4222, "pitch": 47, "duration": 18, "velocity": 71}, {"time": 4228, "pitch": 64, "duration": 4, "velocity": 88}, {"time": 4231, "pitch": 59, "duration": 4, "velocity": 83}, {"time": 4234, "pitch": 56, "duration": 4, "velocity": 78}, {"time": 4237, "pitch": 59, "duration": 2, "velocity": 82}, {"time": 4240, "pitch": 40, "duration": 16, "velocity": 81}, {"time": 4240, "pitch": 56, "duration": 7, "velocity": 80}, {"time": 4240, "pitch": 59, "duration": 9, "velocity": 84}, {"time": 4240, "pitch": 64, "duration": 8, "velocity": 82}, {"time": 4246, "pitch": 47, "duration": 9, "velocity": 77}, {"time": 4252, "pitch": 56, "duration": 2, "velocity": 81}, {"time": 4252, "pitch": 59, "duration": 6, "velocity": 85}, {"time": 4252, "pitch": 64, "duration": 6, "velocity": 83}, {"time": 4264, "pitch": 40, "duration": 44, "velocity": 82}, {"time": 4264, "pitch": 52, "duration": 7, "velocity": 78}, {"time": 4264, "pitch": 56, "duration": 10, "velocity": 80}, {"time": 4270, "pitch": 47, "duration": 38, "velocity": 76}, {"time": 4276, "pitch": 52, "duration": 4, "velocity": 82}, {"time": 4282, "pitch": 54, "duration": 5, "velocity": 88}, {"time": 4288, "pitch": 56, "duration": 2, "velocity": 91}, {"time": 4300, "pitch": 52, "duration": 4, "velocity": 76}, {"time": 4300, "pitch": 56, "duration": 4, "velocity": 82}, {"time": 4300, "pitch": 59, "duration": 6, "velocity": 81}, {"time": 4312, "pitch": 49, "duration": 38, "velocity": 79}, {"time": 4312, "pitch": 56, "duration": 4, "velocity": 75}, {"time": 4312, "pitch": 61, "duration": 8, "velocity": 75}, {"time": 4318, "pitch": 56, "duration": 7, "velocity": 80}, {"time": 4324, "pitch": 61, "duration": 7, "velocity": 84}, {"time": 4330, "pitch": 56, "duration": 2, "velocity": 74}, {"time": 4336, "pitch": 56, "duration": 3, "velocity": 79}, {"time": 4336, "pitch": 64, "duration": 11, "velocity": 83}, {"time": 4342, "pitch": 56, "duration": 4, "velocity": 70}, {"time": 4348, "pitch": 63, "duration": 3, "velocity": 87}, {"time": 4360, "pitch": 42, "duration": 46, "velocity": 83}, {"time": 4360, "pitch": 54, "duration": 14, "velocity": 77}, {"time": 4360, "pitch": 61, "duration": 11, "velocity": 79}, {"time": 4366, "pitch": 49, "duration": 39, "velocity": 76}, {"time": 4372, "pitch": 57, "duration": 7, "velocity": 86}, {"time": 4378, "pitch": 61, "duration": 7, "velocity": 82}, {"time": 4384, "pitch": 66, "duration": 7, "velocity": 83}, {"time": 4390, "pitch": 61, "duration": 4, "velocity": 78}, {"time": 4396, "pitch": 54, "duration": 6, "velocity": 84}, {"time": 4408, "pitch": 47, "duration": 40, "velocity": 85}, {"time": 4408, "pitch": 54, "duration": 5, "velocity": 78}, {"time": 4408, "pitch": 59, "duration": 13, "velocity": 80}, {"time": 4414, "pitch": 51, "duration": 34, "velocity": 78}, {"time": 4420, "pitch": 54, "duration": 7, "velocity": 85}, {"time": 4426, "pitch": 61, "duration": 2, "velocity": 85}, {"time": 4432, "pitch": 54, "duration": 3, "velocity": 87}, {"time": 4432, "pitch": 63, "duration": 8, "velocity": 87}, {"time": 4438, "pitch": 54, "duration": 4, "velocity": 82}, {"time": 4444, "pitch": 59, "duration": 4, "velocity": 85}, {"time": 4450, "pitch": 57, "duration": 2, "velocity": 88}, {"time": 4456, "pitch": 40, "duration": 42, "velocity": 82}, {"time": 4456, "pitch": 52, "duration": 13, "velocity": 78}, {"time": 4456, "pitch": 56, "duration": 13, "velocity": 82}, {"time": 4462, "pitch": 47, "duration": 36, "velocity": 77}, {"time": 4468, "pitch": 59, "duration": 7, "velocity": 79}, {"time": 4474, "pitch": 56, "duration": 7, "velocity": 82}, {"time": 4480, "pitch": 64, "duration": 9, "velocity": 84}, {"time": 4486, "pitch": 59, "duration": 7, "velocity": 82}, {"time": 4492, "pitch": 56, "duration": 6, "velocity": 83}, {"time": 4498, "pitch": 52, "duration": 2, "velocity": 84}, {"time": 4504, "pitch": 49, "duration": 38, "velocity": 84}, {"time": 4504, "pitch": 56, "duration": 4, "velocity": 68}, {"time": 4504, "pitch": 61, "duration": 13, "velocity": 76}, {"time": 4510, "pitch": 56, "duration": 7, "velocity": 78}, {"time": 4516, "pitch": 64, "duration": 13, "velocity": 82}, {"time": 4522, "pitch": 56, "duration": 6, "velocity": 77}, {"time": 4528, "pitch": 63, "duration": 10, "velocity": 84}, {"time": 4534, "pitch": 56, "duration": 7, "velocity": 78}, {"time": 4540, "pitch": 61, "duration": 3, "velocity": 83}, {"time": 4552, "pitch": 42, "duration": 20, "velocity": 83}, {"time": 4552, "pitch": 54, "duration": 11, "velocity": 77}, {"time": 4552, "pitch": 61, "duration": 11, "velocity": 81}, {"time": 4558, "pitch": 49, "duration": 14, "velocity": 77}, {"time": 4564, "pitch": 57, "duration": 6, "velocity": 87}, {"time": 4570, "pitch": 54, "duration": 3, "velocity": 82}, {"time": 4576, "pitch": 47, "duration": 18, "velocity": 84}, {"time": 4576, "pitch": 54, "duration": 4, "velocity": 83}, {"time": 4576, "pitch": 59, "duration": 9, "velocity": 83}, {"time": 4582, "pitch": 51, "duration": 11, "velocity": 63}, {"time": 4588, "pitch": 54, "duration": 3, "velocity": 82}, {"time": 4588, "pitch": 59, "duration": 2, "velocity": 87}, {"time": 4594, "pitch": 56, "duration": 3, "velocity": 77}, {"time": 4597, "pitch": 54, "duration": 3, "velocity": 84}, {"time": 4600, "pitch": 40, "duration": 40, "velocity": 83}, {"time": 4600, "pitch": 52, "duration": 20, "velocity": 81}, {"time": 4606, "pitch": 47, "duration": 34, "velocity": 75}, {"time": 4612, "pitch": 59, "duration": 8, "velocity": 76}, {"time": 4618, "pitch": 56, "duration": 2, "velocity": 74}, {"time": 4624, "pitch": 52, "duration": 12, "velocity": 81}, {"time": 4624, "pitch": 64, "duration": 11, "velocity": 79}, {"time": 4647, "pitch": 52, "duration": 76, "velocity": 73}, {"time": 4647, "pitch": 40, "duration": 79, "velocity": 81}, {"time": 4648, "pitch": 56, "duration": 76, "velocity": 76}, {"time": 4650, "pitch": 59, "duration": 74, "velocity": 75}, {"time": 4651, "pitch": 64, "duration": 74, "velocity": 73}], "annotations": [{"time": 41, "annotation": {"number": 64, "value": 127}, "group": "control_change"}, {"time": 41, "annotation": {"number": 64, "value": 0}, "group": "control_change"}, {"time": 88, "annotation": {"number": 64, "value": 0}, "group": "control_change"}, {"time": 91, "annotation": {"number": 64, "value": 127}, "group": "control_change"}, {"time": 135, "annotation": {"number": 64, "value": 0}, "group": "control_change"}, {"time": 141, "annotation": {"number": 64, "value": 127}, "group": "control_change"}, {"time": 183, "annotation": {"number": 64, "value": 0}, "group": "control_change"}, {"time": 185, "annotation": {"number": 64, "value": 127}, "group": "control_change"}, {"time": 232, "annotation": {"number": 64, "value": 0}, "group": "control_change"}, {"time": 238, "annotation": {"number": 64, "value": 127}, "group": "control_change"}, {"time": 280, "annotation": {"number": 64, "value": 0}, "group": "control_change"}, {"time": 284, "annotation": {"number": 64, "value": 127}, "group": "control_change"}, {"time": 327, "annotation": {"number": 64, "value": 0}, "group": "control_change"}, {"time": 328, "annotation": {"number": 64, "value": 127}, "group": "control_change"}, {"time": 328, "annotation": {"number": 64, "value": 0}, "group": "control_change"}, {"time": 350, "annotation": {"number": 64, "value": 0}, "group": "control_change"}, {"time": 352, "annotation": {"number": 64, "value": 127}, "group": "control_change"}, {"time": 376, "annotation": {"number": 64, "value": 0}, "group": "control_change"}, {"time": 380, "annotation": {"number": 64, "value": 127}, "group": "control_change"}, {"time": 419, "annotation": {"number": 64, "value": 0}, "group": "control_change"}, {"time": 427, "annotation": {"number": 64, "value": 127}, "group": "control_change"}, {"time": 470, "annotation": {"number": 64, "value": 0}, "group": "control_change"}, {"time": 472, "annotation": {"number": 64, "value": 127}, "group": "control_change"}, {"time": 519, "annotation": {"number": 64, "value": 0}, "group": "control_change"}, {"time": 521, "annotation": {"number": 64, "value": 127}, "group": "control_change"}, {"time": 568, "annotation": {"number": 64, "value": 0}, "group": "control_change"}, {"time": 569, "annotation": {"number": 64, "value": 127}, "group": "control_change"}, {"time": 614, "annotation": {"number": 64, "value": 0}, "group": "control_change"}, {"time": 621, "annotation": {"number": 64, "value": 127}, "group": "control_change"}, {"time": 664, "annotation": {"number": 64, "value": 0}, "group": "control_change"}, {"time": 668, "annotation": {"number": 64, "value": 127}, "group": "control_change"}, {"time": 712, "annotation": {"number": 64, "value": 0}, "group": "control_change"}, {"time": 714, "annotation": {"number": 64, "value": 127}, "group": "control_change"}, {"time": 759, "annotation": {"number": 64, "value": 0}, "group": "control_change"}, {"time": 761, "annotation": {"number": 64, "value": 127}, "group": "control_change"}, {"time": 783, "annotation": {"number": 64, "value": 0}, "group": "control_change"}, {"time": 784, "annotation": {"number": 64, "value": 127}, "group": "control_change"}, {"time": 808, "annotation": {"number": 64, "value": 0}, "group": "control_change"}, {"time": 811, "annotation": {"number": 64, "value": 127}, "group": "control_change"}, {"time": 854, "annotation": {"number": 64, "value": 0}, "group": "control_change"}, {"time": 856, "annotation": {"number": 64, "value": 127}, "group": "control_change"}, {"time": 903, "annotation": {"number": 64, "value": 0}, "group": "control_change"}, {"time": 905, "annotation": {"number": 64, "value": 127}, "group": "control_change"}, {"time": 952, "annotation": {"number": 64, "value": 0}, "group": "control_change"}, {"time": 953, "annotation": {"number": 64, "value": 127}, "group": "control_change"}, {"time": 998, "annotation": {"number": 64, "value": 0}, "group": "control_change"}, {"time": 1005, "annotation": {"number": 64, "value": 127}, "group": "control_change"}, {"time": 1048, "annotation": {"number": 64, "value": 0}, "group": "control_change"}, {"time": 1052, "annotation": {"number": 64, "value": 127}, "group": "control_change"}, {"time": 1096, "annotation": {"number": 64, "value": 0}, "group": "control_change"}, {"time": 1098, "annotation": {"number": 64, "value": 127}, "group": "control_change"}, {"time": 1143, "annotation": {"number": 64, "value": 0}, "group": "control_change"}, {"time": 1145, "annotation": {"number": 64, "value": 127}, "group": "control_change"}, {"time": 1167, "annotation": {"number": 64, "value": 0}, "group": "control_change"}, {"time": 1169, "annotation": {"number": 64, "value": 127}, "group": "control_change"}, {"time": 1180, "annotation": {"number": 64, "value": 0}, "group": "control_change"}, {"time": 1182, "annotation": {"number": 64, "value": 127}, "group": "control_change"}, {"time": 1191, "annotation": {"number": 64, "value": 0}, "group": "control_change"}, {"time": 1194, "annotation": {"number": 64, "value": 127}, "group": "control_change"}, {"time": 1238, "annotation": {"number": 64, "value": 0}, "group": "control_change"}, {"time": 1240, "annotation": {"number": 64, "value": 127}, "group": "control_change"}, {"time": 1287, "annotation": {"number": 64, "value": 0}, "group": "control_change"}, {"time": 1289, "annotation": {"number": 64, "value": 127}, "group": "control_change"}, {"time": 1311, "annotation": {"number": 64, "value": 0}, "group": "control_change"}, {"time": 1312, "annotation": {"number": 64, "value": 127}, "group": "control_change"}, {"time": 1335, "annotation": {"number": 64, "value": 0}, "group": "control_change"}, {"time": 1337, "annotation": {"number": 64, "value": 127}, "group": "control_change"}, {"time": 1359, "annotation": {"number": 64, "value": 0}, "group": "control_change"}, {"time": 1360, "annotation": {"number": 64, "value": 127}, "group": "control_change"}, {"time": 1382, "annotation": {"number": 64, "value": 0}, "group": "control_change"}, {"time": 1384, "annotation": {"number": 64, "value": 127}, "group": "control_change"}, {"time": 1407, "annotation": {"number": 64, "value": 0}, "group": "control_change"}, {"time": 1408, "annotation": {"number": 64, "value": 127}, "group": "control_change"}, {"time": 1431, "annotation": {"number": 64, "value": 0}, "group": "control_change"}, {"time": 1432, "annotation": {"number": 64, "value": 127}, "group": "control_change"}, {"time": 1455, "annotation": {"number": 64, "value": 0}, "group": "control_change"}, {"time": 1456, "annotation": {"number": 64, "value": 127}, "group": "control_change"}, {"time": 1478, "annotation": {"number": 64, "value": 0}, "group": "control_change"}, {"time": 1481, "annotation": {"number": 64, "value": 127}, "group": "control_change"}, {"time": 1503, "annotation": {"number": 64, "value": 0}, "group": "control_change"}, {"time": 1504, "annotation": {"number": 64, "value": 127}, "group": "control_change"}, {"time": 1526, "annotation": {"number": 64, "value": 0}, "group": "control_change"}, {"time": 1528, "annotation": {"number": 64, "value": 127}, "group": "control_change"}, {"time": 1551, "annotation": {"number": 64, "value": 0}, "group": "control_change"}, {"time": 1552, "annotation": {"number": 64, "value": 127}, "group": "control_change"}, {"time": 1563, "annotation": {"number": 64, "value": 0}, "group": "control_change"}, {"time": 1565, "annotation": {"number": 64, "value": 127}, "group": "control_change"}, {"time": 1574, "annotation": {"number": 64, "value": 0}, "group": "control_change"}, {"time": 1578, "annotation": {"number": 64, "value": 127}, "group": "control_change"}, {"time": 1622, "annotation": {"number": 64, "value": 0}, "group": "control_change"}, {"time": 1624, "annotation": {"number": 64, "value": 127}, "group": "control_change"}, {"time": 1671, "annotation": {"number": 64, "value": 0}, "group": "control_change"}, {"time": 1673, "annotation": {"number": 64, "value": 127}, "group": "control_change"}, {"time": 1695, "annotation": {"number": 64, "value": 0}, "group": "control_change"}, {"time": 1696, "annotation": {"number": 64, "value": 127}, "group": "control_change"}, {"time": 1719, "annotation": {"number": 64, "value": 0}, "group": "control_change"}, {"time": 1721, "annotation": {"number": 64, "value": 127}, "group": "control_change"}, {"time": 1743, "annotation": {"number": 64, "value": 0}, "group": "control_change"}, {"time": 1744, "annotation": {"number": 64, "value": 127}, "group": "control_change"}, {"time": 1766, "annotation": {"number": 64, "value": 0}, "group": "control_change"}, {"time": 1768, "annotation": {"number": 64, "value": 127}, "group": "control_change"}, {"time": 1791, "annotation": {"number": 64, "value": 0}, "group": "control_change"}, {"time": 1792, "annotation": {"number": 64, "value": 127}, "group": "control_change"}, {"time": 1815, "annotation": {"number": 64, "value": 0}, "group": "control_change"}, {"time": 1816, "annotation": {"number": 64, "value": 127}, "group": "control_change"}, {"time": 1839, "annotation": {"number": 64, "value": 0}, "group": "control_change"}, {"time": 1840, "annotation": {"number": 64, "value": 127}, "group": "control_change"}, {"time": 1862, "annotation": {"number": 64, "value": 0}, "group": "control_change"}, {"time": 1864, "annotation": {"number": 64, "value": 127}, "group": "control_change"}, {"time": 1865, "annotation": {"number": 64, "value": 0}, "group": "control_change"}, {"time": 1865, "annotation": {"number": 64, "value": 127}, "group": "control_change"}, {"time": 1886, "annotation": {"number": 64, "value": 0}, "group": "control_change"}, {"time": 1888, "annotation": {"number": 64, "value": 127}, "group": "control_change"}, {"time": 1910, "annotation": {"number": 64, "value": 0}, "group": "control_change"}, {"time": 1912, "annotation": {"number": 64, "value": 127}, "group": "control_change"}, {"time": 1959, "annotation": {"number": 64, "value": 0}, "group": "control_change"}, {"time": 1960, "annotation": {"number": 64, "value": 127}, "group": "control_change"}, {"time": 2008, "annotation": {"number": 64, "value": 0}, "group": "control_change"}, {"time": 2010, "annotation": {"number": 64, "value": 127}, "group": "control_change"}, {"time": 2055, "annotation": {"number": 64, "value": 0}, "group": "control_change"}, {"time": 2058, "annotation": {"number": 64, "value": 127}, "group": "control_change"}, {"time": 2079, "annotation": {"number": 64, "value": 0}, "group": "control_change"}, {"time": 2079, "annotation": {"number": 64, "value": 127}, "group": "control_change"}, {"time": 2101, "annotation": {"number": 64, "value": 0}, "group": "control_change"}, {"time": 2104, "annotation": {"number": 64, "value": 127}, "group": "control_change"}, {"time": 2152, "annotation": {"number": 64, "value": 0}, "group": "control_change"}, {"time": 2152, "annotation": {"number": 64, "value": 127}, "group": "control_change"}, {"time": 2201, "annotation": {"number": 64, "value": 0}, "group": "control_change"}, {"time": 2204, "annotation": {"number": 64, "value": 127}, "group": "control_change"}, {"time": 2248, "annotation": {"number": 64, "value": 0}, "group": "control_change"}, {"time": 2249, "annotation": {"number": 64, "value": 127}, "group": "control_change"}, {"time": 2271, "annotation": {"number": 64, "value": 0}, "group": "control_change"}, {"time": 2273, "annotation": {"number": 64, "value": 127}, "group": "control_change"}, {"time": 2295, "annotation": {"number": 64, "value": 0}, "group": "control_change"}, {"time": 2297, "annotation": {"number": 64, "value": 127}, "group": "control_change"}, {"time": 2342, "annotation": {"number": 64, "value": 0}, "group": "control_change"}, {"time": 2347, "annotation": {"number": 64, "value": 127}, "group": "control_change"}, {"time": 2390, "annotation": {"number": 64, "value": 0}, "group": "control_change"}, {"time": 2392, "annotation": {"number": 64, "value": 127}, "group": "control_change"}, {"time": 2439, "annotation": {"number": 64, "value": 0}, "group": "control_change"}, {"time": 2441, "annotation": {"number": 64, "value": 127}, "group": "control_change"}, {"time": 2488, "annotation": {"number": 64, "value": 0}, "group": "control_change"}, {"time": 2489, "annotation": {"number": 64, "value": 127}, "group": "control_change"}, {"time": 2534, "annotation": {"number": 64, "value": 0}, "group": "control_change"}, {"time": 2541, "annotation": {"number": 64, "value": 127}, "group": "control_change"}, {"time": 2584, "annotation": {"number": 64, "value": 0}, "group": "control_change"}, {"time": 2588, "annotation": {"number": 64, "value": 127}, "group": "control_change"}, {"time": 2632, "annotation": {"number": 64, "value": 0}, "group": "control_change"}, {"time": 2634, "annotation": {"number": 64, "value": 127}, "group": "control_change"}, {"time": 2679, "annotation": {"number": 64, "value": 0}, "group": "control_change"}, {"time": 2681, "annotation": {"number": 64, "value": 127}, "group": "control_change"}, {"time": 2703, "annotation": {"number": 64, "value": 0}, "group": "control_change"}, {"time": 2705, "annotation": {"number": 64, "value": 127}, "group": "control_change"}, {"time": 2716, "annotation": {"number": 64, "value": 0}, "group": "control_change"}, {"time": 2718, "annotation": {"number": 64, "value": 127}, "group": "control_change"}, {"time": 2727, "annotation": {"number": 64, "value": 0}, "group": "control_change"}, {"time": 2730, "annotation": {"number": 64, "value": 127}, "group": "control_change"}, {"time": 2774, "annotation": {"number": 64, "value": 0}, "group": "control_change"}, {"time": 2776, "annotation": {"number": 64, "value": 127}, "group": "control_change"}, {"time": 2823, "annotation": {"number": 64, "value": 0}, "group": "control_change"}, {"time": 2825, "annotation": {"number": 64, "value": 127}, "group": "control_change"}, {"time": 2847, "annotation": {"number": 64, "value": 0}, "group": "control_change"}, {"time": 2848, "annotation": {"number": 64, "value": 127}, "group": "control_change"}, {"time": 2871, "annotation": {"number": 64, "value": 0}, "group": "control_change"}, {"time": 2873, "annotation": {"number": 64, "value": 127}, "group": "control_change"}, {"time": 2895, "annotation": {"number": 64, "value": 0}, "group": "control_change"}, {"time": 2896, "annotation": {"number": 64, "value": 127}, "group": "control_change"}, {"time": 2918, "annotation": {"number": 64, "value": 0}, "group": "control_change"}, {"time": 2920, "annotation": {"number": 64, "value": 127}, "group": "control_change"}, {"time": 2943, "annotation": {"number": 64, "value": 0}, "group": "control_change"}, {"time": 2944, "annotation": {"number": 64, "value": 127}, "group": "control_change"}, {"time": 2967, "annotation": {"number": 64, "value": 0}, "group": "control_change"}, {"time": 2968, "annotation": {"number": 64, "value": 127}, "group": "control_change"}, {"time": 2991, "annotation": {"number": 64, "value": 0}, "group": "control_change"}, {"time": 2992, "annotation": {"number": 64, "value": 127}, "group": "control_change"}, {"time": 3014, "annotation": {"number": 64, "value": 0}, "group": "control_change"}, {"time": 3017, "annotation": {"number": 64, "value": 127}, "group": "control_change"}, {"time": 3039, "annotation": {"number": 64, "value": 0}, "group": "control_change"}, {"time": 3040, "annotation": {"number": 64, "value": 127}, "group": "control_change"}, {"time": 3062, "annotation": {"number": 64, "value": 0}, "group": "control_change"}, {"time": 3064, "annotation": {"number": 64, "value": 127}, "group": "control_change"}, {"time": 3087, "annotation": {"number": 64, "value": 0}, "group": "control_change"}, {"time": 3088, "annotation": {"number": 64, "value": 127}, "group": "control_change"}, {"time": 3099, "annotation": {"number": 64, "value": 0}, "group": "control_change"}, {"time": 3101, "annotation": {"number": 64, "value": 127}, "group": "control_change"}, {"time": 3110, "annotation": {"number": 64, "value": 0}, "group": "control_change"}, {"time": 3114, "annotation": {"number": 64, "value": 127}, "group": "control_change"}, {"time": 3158, "annotation": {"number": 64, "value": 0}, "group": "control_change"}, {"time": 3160, "annotation": {"number": 64, "value": 127}, "group": "control_change"}, {"time": 3207, "annotation": {"number": 64, "value": 0}, "group": "control_change"}, {"time": 3209, "annotation": {"number": 64, "value": 127}, "group": "control_change"}, {"time": 3231, "annotation": {"number": 64, "value": 0}, "group": "control_change"}, {"time": 3232, "annotation": {"number": 64, "value": 127}, "group": "control_change"}, {"time": 3255, "annotation": {"number": 64, "value": 0}, "group": "control_change"}, {"time": 3257, "annotation": {"number": 64, "value": 127}, "group": "control_change"}, {"time": 3279, "annotation": {"number": 64, "value": 0}, "group": "control_change"}, {"time": 3280, "annotation": {"number": 64, "value": 127}, "group": "control_change"}, {"time": 3302, "annotation": {"number": 64, "value": 0}, "group": "control_change"}, {"time": 3304, "annotation": {"number": 64, "value": 127}, "group": "control_change"}, {"time": 3327, "annotation": {"number": 64, "value": 0}, "group": "control_change"}, {"time": 3328, "annotation": {"number": 64, "value": 127}, "group": "control_change"}, {"time": 3351, "annotation": {"number": 64, "value": 0}, "group": "control_change"}, {"time": 3352, "annotation": {"number": 64, "value": 127}, "group": "control_change"}, {"time": 3375, "annotation": {"number": 64, "value": 0}, "group": "control_change"}, {"time": 3376, "annotation": {"number": 64, "value": 127}, "group": "control_change"}, {"time": 3398, "annotation": {"number": 64, "value": 0}, "group": "control_change"}, {"time": 3400, "annotation": {"number": 64, "value": 127}, "group": "control_change"}, {"time": 3401, "annotation": {"number": 64, "value": 0}, "group": "control_change"}, {"time": 3401, "annotation": {"number": 64, "value": 127}, "group": "control_change"}, {"time": 3422, "annotation": {"number": 64, "value": 0}, "group": "control_change"}, {"time": 3424, "annotation": {"number": 64, "value": 127}, "group": "control_change"}, {"time": 3446, "annotation": {"number": 64, "value": 0}, "group": "control_change"}, {"time": 3448, "annotation": {"number": 64, "value": 127}, "group": "control_change"}, {"time": 3495, "annotation": {"number": 64, "value": 0}, "group": "control_change"}, {"time": 3523, "annotation": {"number": 64, "value": 127}, "group": "control_change"}, {"time": 3543, "annotation": {"number": 64, "value": 0}, "group": "control_change"}, {"time": 3545, "annotation": {"number": 64, "value": 127}, "group": "control_change"}, {"time": 3590, "annotation": {"number": 64, "value": 0}, "group": "control_change"}, {"time": 3593, "annotation": {"number": 64, "value": 127}, "group": "control_change"}, {"time": 3615, "annotation": {"number": 64, "value": 0}, "group": "control_change"}, {"time": 3616, "annotation": {"number": 64, "value": 127}, "group": "control_change"}, {"time": 3639, "annotation": {"number": 64, "value": 0}, "group": "control_change"}, {"time": 3641, "annotation": {"number": 64, "value": 127}, "group": "control_change"}, {"time": 3663, "annotation": {"number": 64, "value": 0}, "group": "control_change"}, {"time": 3664, "annotation": {"number": 64, "value": 127}, "group": "control_change"}, {"time": 3686, "annotation": {"number": 64, "value": 0}, "group": "control_change"}, {"time": 3688, "annotation": {"number": 64, "value": 127}, "group": "control_change"}, {"time": 3711, "annotation": {"number": 64, "value": 0}, "group": "control_change"}, {"time": 3712, "annotation": {"number": 64, "value": 127}, "group": "control_change"}, {"time": 3735, "annotation": {"number": 64, "value": 0}, "group": "control_change"}, {"time": 3736, "annotation": {"number": 64, "value": 127}, "group": "control_change"}, {"time": 3759, "annotation": {"number": 64, "value": 0}, "group": "control_change"}, {"time": 3760, "annotation": {"number": 64, "value": 127}, "group": "control_change"}, {"time": 3782, "annotation": {"number": 64, "value": 0}, "group": "control_change"}, {"time": 3785, "annotation": {"number": 64, "value": 127}, "group": "control_change"}, {"time": 3807, "annotation": {"number": 64, "value": 0}, "group": "control_change"}, {"time": 3808, "annotation": {"number": 64, "value": 127}, "group": "control_change"}, {"time": 3830, "annotation": {"number": 64, "value": 0}, "group": "control_change"}, {"time": 3832, "annotation": {"number": 64, "value": 127}, "group": "control_change"}, {"time": 3855, "annotation": {"number": 64, "value": 0}, "group": "control_change"}, {"time": 3856, "annotation": {"number": 64, "value": 127}, "group": "control_change"}, {"time": 3867, "annotation": {"number": 64, "value": 0}, "group": "control_change"}, {"time": 3869, "annotation": {"number": 64, "value": 127}, "group": "control_change"}, {"time": 3878, "annotation": {"number": 64, "value": 0}, "group": "control_change"}, {"time": 3882, "annotation": {"number": 64, "value": 127}, "group": "control_change"}, {"time": 3926, "annotation": {"number": 64, "value": 0}, "group": "control_change"}, {"time": 3928, "annotation": {"number": 64, "value": 127}, "group": "control_change"}, {"time": 3975, "annotation": {"number": 64, "value": 0}, "group": "control_change"}, {"time": 3977, "annotation": {"number": 64, "value": 127}, "group": "control_change"}, {"time": 3999, "annotation": {"number": 64, "value": 0}, "group": "control_change"}, {"time": 4000, "annotation": {"number": 64, "value": 127}, "group": "control_change"}, {"time": 4023, "annotation": {"number": 64, "value": 0}, "group": "control_change"}, {"time": 4025, "annotation": {"number": 64, "value": 127}, "group": "control_change"}, {"time": 4047, "annotation": {"number": 64, "value": 0}, "group": "control_change"}, {"time": 4048, "annotation": {"number": 64, "value": 127}, "group": "control_change"}, {"time": 4070, "annotation": {"number": 64, "value": 0}, "group": "control_change"}, {"time": 4072, "annotation": {"number": 64, "value": 127}, "group": "control_change"}, {"time": 4095, "annotation": {"number": 64, "value": 0}, "group": "control_change"}, {"time": 4096, "annotation": {"number": 64, "value": 127}, "group": "control_change"}, {"time": 4119, "annotation": {"number": 64, "value": 0}, "group": "control_change"}, {"time": 4120, "annotation": {"number": 64, "value": 127}, "group": "control_change"}, {"time": 4143, "annotation": {"number": 64, "value": 0}, "group": "control_change"}, {"time": 4144, "annotation": {"number": 64, "value": 127}, "group": "control_change"}, {"time": 4166, "annotation": {"number": 64, "value": 0}, "group": "control_change"}, {"time": 4168, "annotation": {"number": 64, "value": 127}, "group": "control_change"}, {"time": 4169, "annotation": {"number": 64, "value": 0}, "group": "control_change"}, {"time": 4169, "annotation": {"number": 64, "value": 127}, "group": "control_change"}, {"time": 4190, "annotation": {"number": 64, "value": 0}, "group": "control_change"}, {"time": 4192, "annotation": {"number": 64, "value": 127}, "group": "control_change"}, {"time": 4214, "annotation": {"number": 64, "value": 0}, "group": "control_change"}, {"time": 4216, "annotation": {"number": 64, "value": 127}, "group": "control_change"}, {"time": 4263, "annotation": {"number": 64, "value": 0}, "group": "control_change"}, {"time": 4265, "annotation": {"number": 64, "value": 127}, "group": "control_change"}, {"time": 4265, "annotation": {"number": 64, "value": 0}, "group": "control_change"}, {"time": 4312, "annotation": {"number": 64, "value": 0}, "group": "control_change"}, {"time": 4315, "annotation": {"number": 64, "value": 127}, "group": "control_change"}, {"time": 4359, "annotation": {"number": 64, "value": 0}, "group": "control_change"}, {"time": 4365, "annotation": {"number": 64, "value": 127}, "group": "control_change"}, {"time": 4407, "annotation": {"number": 64, "value": 0}, "group": "control_change"}, {"time": 4409, "annotation": {"number": 64, "value": 127}, "group": "control_change"}, {"time": 4456, "annotation": {"number": 64, "value": 0}, "group": "control_change"}, {"time": 4462, "annotation": {"number": 64, "value": 127}, "group": "control_change"}, {"time": 4504, "annotation": {"number": 64, "value": 0}, "group": "control_change"}, {"time": 4508, "annotation": {"number": 64, "value": 127}, "group": "control_change"}, {"time": 4551, "annotation": {"number": 64, "value": 0}, "group": "control_change"}, {"time": 4552, "annotation": {"number": 64, "value": 127}, "group": "control_change"}, {"time": 4552, "annotation": {"number": 64, "value": 0}, "group": "control_change"}, {"time": 4574, "annotation": {"number": 64, "value": 0}, "group": "control_change"}, {"time": 4576, "annotation": {"number": 64, "value": 127}, "group": "control_change"}, {"time": 4600, "annotation": {"number": 64, "value": 0}, "group": "control_change"}, {"time": 4604, "annotation": {"number": 64, "value": 127}, "group": "control_change"}, {"time": 4643, "annotation": {"number": 64, "value": 0}, "group": "control_change"}]}]}