{"metadata": {"schema_version": "0.2", "title": "None", "source_filename": "667.mid", "source_format": "midi"}, "resolution": 12, "tempos": [{"time": 0, "qpm": 107.0001266168165}, {"time": 4588, "qpm": 106.50005325002662}, {"time": 4633, "qpm": 106.00013780017915}, {"time": 4723, "qpm": 107.0001266168165}], "time_signatures": [{"time": 0, "numerator": 1, "denominator": 4}], "tracks": [{"program": 0, "is_drum": false, "name": "MELODY", "notes": [{"time": 13, "pitch": 70, "duration": 10, "velocity": 100}, {"time": 27, "pitch": 68, "duration": 5, "velocity": 87}, {"time": 34, "pitch": 66, "duration": 10, "velocity": 82}, {"time": 48, "pitch": 63, "duration": 9, "velocity": 92}, {"time": 61, "pitch": 70, "duration": 30, "velocity": 87}, {"time": 103, "pitch": 68, "duration": 6, "velocity": 76}, {"time": 111, "pitch": 70, "duration": 4, "velocity": 82}, {"time": 117, "pitch": 71, "duration": 9, "velocity": 82}, {"time": 131, "pitch": 70, "duration": 4, "velocity": 87}, {"time": 138, "pitch": 68, "duration": 8, "velocity": 73}, {"time": 150, "pitch": 71, "duration": 9, "velocity": 71}, {"time": 165, "pitch": 70, "duration": 40, "velocity": 82}, {"time": 610, "pitch": 71, "duration": 8, "velocity": 86}, {"time": 622, "pitch": 69, "duration": 4, "velocity": 85}, {"time": 628, "pitch": 67, "duration": 9, "velocity": 85}, {"time": 640, "pitch": 64, "duration": 9, "velocity": 88}, {"time": 652, "pitch": 71, "duration": 33, "velocity": 85}, {"time": 688, "pitch": 69, "duration": 4, "velocity": 81}, {"time": 694, "pitch": 69, "duration": 4, "velocity": 84}, {"time": 700, "pitch": 71, "duration": 4, "velocity": 85}, {"time": 706, "pitch": 72, "duration": 9, "velocity": 85}, {"time": 718, "pitch": 71, "duration": 5, "velocity": 87}, {"time": 724, "pitch": 69, "duration": 18, "velocity": 84}, {"time": 742, "pitch": 72, "duration": 6, "velocity": 84}, {"time": 748, "pitch": 71, "duration": 36, "velocity": 85}, {"time": 790, "pitch": 71, "duration": 5, "velocity": 83}, {"time": 796, "pitch": 67, "duration": 4, "velocity": 86}, {"time": 802, "pitch": 69, "duration": 13, "velocity": 85}, {"time": 820, "pitch": 67, "duration": 4, "velocity": 84}, {"time": 826, "pitch": 69, "duration": 9, "velocity": 84}, {"time": 838, "pitch": 67, "duration": 12, "velocity": 85}, {"time": 850, "pitch": 64, "duration": 24, "velocity": 85}, {"time": 880, "pitch": 64, "duration": 2, "velocity": 88}, {"time": 886, "pitch": 64, "duration": 3, "velocity": 88}, {"time": 892, "pitch": 64, "duration": 4, "velocity": 86}, {"time": 898, "pitch": 66, "duration": 10, "velocity": 86}, {"time": 910, "pitch": 64, "duration": 3, "velocity": 86}, {"time": 916, "pitch": 63, "duration": 15, "velocity": 83}, {"time": 934, "pitch": 64, "duration": 4, "velocity": 86}, {"time": 940, "pitch": 66, "duration": 48, "velocity": 85}, {"time": 994, "pitch": 71, "duration": 8, "velocity": 86}, {"time": 1006, "pitch": 69, "duration": 4, "velocity": 85}, {"time": 1012, "pitch": 67, "duration": 9, "velocity": 85}, {"time": 1024, "pitch": 64, "duration": 9, "velocity": 88}, {"time": 1036, "pitch": 71, "duration": 33, "velocity": 85}, {"time": 1072, "pitch": 69, "duration": 4, "velocity": 81}, {"time": 1078, "pitch": 69, "duration": 4, "velocity": 84}, {"time": 1084, "pitch": 71, "duration": 4, "velocity": 85}, {"time": 1090, "pitch": 72, "duration": 9, "velocity": 85}, {"time": 1102, "pitch": 71, "duration": 5, "velocity": 87}, {"time": 1108, "pitch": 69, "duration": 18, "velocity": 84}, {"time": 1126, "pitch": 72, "duration": 6, "velocity": 84}, {"time": 1132, "pitch": 71, "duration": 36, "velocity": 85}, {"time": 1174, "pitch": 71, "duration": 5, "velocity": 83}, {"time": 1180, "pitch": 67, "duration": 4, "velocity": 86}, {"time": 1186, "pitch": 69, "duration": 13, "velocity": 85}, {"time": 1204, "pitch": 71, "duration": 4, "velocity": 85}, {"time": 1210, "pitch": 72, "duration": 9, "velocity": 87}, {"time": 1222, "pitch": 74, "duration": 4, "velocity": 87}, {"time": 1228, "pitch": 76, "duration": 31, "velocity": 88}, {"time": 1264, "pitch": 76, "duration": 3, "velocity": 85}, {"time": 1270, "pitch": 76, "duration": 3, "velocity": 86}, {"time": 1276, "pitch": 76, "duration": 5, "velocity": 86}, {"time": 1282, "pitch": 75, "duration": 8, "velocity": 91}, {"time": 1294, "pitch": 71, "duration": 4, "velocity": 89}, {"time": 1300, "pitch": 81, "duration": 10, "velocity": 88}, {"time": 1312, "pitch": 78, "duration": 11, "velocity": 86}, {"time": 1324, "pitch": 76, "duration": 70, "velocity": 82}, {"time": 1426, "pitch": 76, "duration": 31, "velocity": 88}, {"time": 1462, "pitch": 79, "duration": 9, "velocity": 90}, {"time": 1474, "pitch": 72, "duration": 9, "velocity": 91}, {"time": 1486, "pitch": 72, "duration": 4, "velocity": 85}, {"time": 1492, "pitch": 76, "duration": 20, "velocity": 87}, {"time": 1516, "pitch": 76, "duration": 4, "velocity": 84}, {"time": 1522, "pitch": 74, "duration": 8, "velocity": 88}, {"time": 1534, "pitch": 76, "duration": 4, "velocity": 86}, {"time": 1540, "pitch": 78, "duration": 10, "velocity": 85}, {"time": 1552, "pitch": 74, "duration": 11, "velocity": 90}, {"time": 1564, "pitch": 71, "duration": 30, "velocity": 85}, {"time": 1612, "pitch": 67, "duration": 4, "velocity": 84}, {"time": 1618, "pitch": 69, "duration": 8, "velocity": 88}, {"time": 1630, "pitch": 67, "duration": 3, "velocity": 82}, {"time": 1636, "pitch": 69, "duration": 16, "velocity": 85}, {"time": 1654, "pitch": 67, "duration": 4, "velocity": 86}, {"time": 1660, "pitch": 69, "duration": 31, "velocity": 87}, {"time": 1708, "pitch": 64, "duration": 4, "velocity": 84}, {"time": 1714, "pitch": 64, "duration": 8, "velocity": 87}, {"time": 1726, "pitch": 64, "duration": 4, "velocity": 84}, {"time": 1732, "pitch": 63, "duration": 8, "velocity": 85}, {"time": 1744, "pitch": 64, "duration": 9, "velocity": 88}, {"time": 1756, "pitch": 66, "duration": 48, "velocity": 85}, {"time": 1810, "pitch": 71, "duration": 5, "velocity": 90}, {"time": 1816, "pitch": 76, "duration": 10, "velocity": 90}, {"time": 1828, "pitch": 78, "duration": 19, "velocity": 89}, {"time": 1852, "pitch": 79, "duration": 3, "velocity": 86}, {"time": 1858, "pitch": 72, "duration": 9, "velocity": 84}, {"time": 1870, "pitch": 72, "duration": 5, "velocity": 84}, {"time": 1876, "pitch": 76, "duration": 23, "velocity": 86}, {"time": 1900, "pitch": 76, "duration": 5, "velocity": 88}, {"time": 1906, "pitch": 74, "duration": 9, "velocity": 90}, {"time": 1918, "pitch": 76, "duration": 5, "velocity": 87}, {"time": 1924, "pitch": 78, "duration": 10, "velocity": 86}, {"time": 1936, "pitch": 74, "duration": 11, "velocity": 91}, {"time": 1948, "pitch": 71, "duration": 42, "velocity": 87}, {"time": 1996, "pitch": 67, "duration": 4, "velocity": 85}, {"time": 2002, "pitch": 69, "duration": 9, "velocity": 88}, {"time": 2014, "pitch": 69, "duration": 4, "velocity": 85}, {"time": 2020, "pitch": 69, "duration": 9, "velocity": 86}, {"time": 2032, "pitch": 76, "duration": 9, "velocity": 90}, {"time": 2044, "pitch": 75, "duration": 33, "velocity": 88}, {"time": 2092, "pitch": 71, "duration": 4, "velocity": 91}, {"time": 2098, "pitch": 83, "duration": 5, "velocity": 91}, {"time": 2104, "pitch": 81, "duration": 3, "velocity": 81}, {"time": 2110, "pitch": 81, "duration": 4, "velocity": 86}, {"time": 2116, "pitch": 79, "duration": 13, "velocity": 84}, {"time": 2128, "pitch": 78, "duration": 10, "velocity": 84}, {"time": 2140, "pitch": 79, "duration": 18, "velocity": 86}, {"time": 2158, "pitch": 78, "duration": 6, "velocity": 80}, {"time": 2164, "pitch": 76, "duration": 58, "velocity": 85}, {"time": 2242, "pitch": 71, "duration": 8, "velocity": 86}, {"time": 2254, "pitch": 69, "duration": 4, "velocity": 85}, {"time": 2260, "pitch": 67, "duration": 9, "velocity": 85}, {"time": 2272, "pitch": 64, "duration": 9, "velocity": 88}, {"time": 2284, "pitch": 71, "duration": 33, "velocity": 85}, {"time": 2320, "pitch": 69, "duration": 4, "velocity": 81}, {"time": 2326, "pitch": 69, "duration": 4, "velocity": 84}, {"time": 2332, "pitch": 71, "duration": 4, "velocity": 85}, {"time": 2338, "pitch": 72, "duration": 9, "velocity": 85}, {"time": 2350, "pitch": 71, "duration": 5, "velocity": 87}, {"time": 2356, "pitch": 69, "duration": 18, "velocity": 84}, {"time": 2374, "pitch": 67, "duration": 6, "velocity": 84}, {"time": 2380, "pitch": 71, "duration": 36, "velocity": 85}, {"time": 2422, "pitch": 71, "duration": 5, "velocity": 83}, {"time": 2428, "pitch": 67, "duration": 4, "velocity": 86}, {"time": 2434, "pitch": 69, "duration": 13, "velocity": 85}, {"time": 2452, "pitch": 67, "duration": 4, "velocity": 85}, {"time": 2458, "pitch": 69, "duration": 9, "velocity": 87}, {"time": 2470, "pitch": 71, "duration": 12, "velocity": 87}, {"time": 2482, "pitch": 69, "duration": 31, "velocity": 88}, {"time": 2512, "pitch": 64, "duration": 3, "velocity": 85}, {"time": 2518, "pitch": 64, "duration": 3, "velocity": 86}, {"time": 2524, "pitch": 64, "duration": 5, "velocity": 86}, {"time": 2530, "pitch": 66, "duration": 8, "velocity": 91}, {"time": 2542, "pitch": 59, "duration": 4, "velocity": 89}, {"time": 2548, "pitch": 69, "duration": 10, "velocity": 88}, {"time": 2560, "pitch": 66, "duration": 11, "velocity": 86}, {"time": 2572, "pitch": 66, "duration": 42, "velocity": 82}, {"time": 2626, "pitch": 71, "duration": 8, "velocity": 86}, {"time": 2638, "pitch": 69, "duration": 4, "velocity": 85}, {"time": 2644, "pitch": 67, "duration": 9, "velocity": 85}, {"time": 2656, "pitch": 64, "duration": 9, "velocity": 88}, {"time": 2668, "pitch": 71, "duration": 33, "velocity": 85}, {"time": 2704, "pitch": 69, "duration": 4, "velocity": 81}, {"time": 2710, "pitch": 69, "duration": 4, "velocity": 84}, {"time": 2716, "pitch": 71, "duration": 4, "velocity": 85}, {"time": 2722, "pitch": 72, "duration": 9, "velocity": 85}, {"time": 2734, "pitch": 71, "duration": 5, "velocity": 87}, {"time": 2740, "pitch": 69, "duration": 18, "velocity": 84}, {"time": 2758, "pitch": 72, "duration": 6, "velocity": 84}, {"time": 2764, "pitch": 71, "duration": 36, "velocity": 85}, {"time": 2806, "pitch": 71, "duration": 5, "velocity": 83}, {"time": 2812, "pitch": 67, "duration": 4, "velocity": 86}, {"time": 2818, "pitch": 69, "duration": 13, "velocity": 85}, {"time": 2836, "pitch": 71, "duration": 4, "velocity": 85}, {"time": 2842, "pitch": 72, "duration": 9, "velocity": 87}, {"time": 2854, "pitch": 74, "duration": 4, "velocity": 87}, {"time": 2860, "pitch": 76, "duration": 31, "velocity": 88}, {"time": 2896, "pitch": 76, "duration": 3, "velocity": 85}, {"time": 2902, "pitch": 76, "duration": 3, "velocity": 86}, {"time": 2908, "pitch": 76, "duration": 5, "velocity": 86}, {"time": 2914, "pitch": 75, "duration": 8, "velocity": 91}, {"time": 2926, "pitch": 71, "duration": 4, "velocity": 89}, {"time": 2932, "pitch": 81, "duration": 10, "velocity": 88}, {"time": 2944, "pitch": 78, "duration": 11, "velocity": 86}, {"time": 2956, "pitch": 76, "duration": 70, "velocity": 82}, {"time": 3058, "pitch": 76, "duration": 31, "velocity": 88}, {"time": 3094, "pitch": 79, "duration": 9, "velocity": 90}, {"time": 3106, "pitch": 72, "duration": 9, "velocity": 91}, {"time": 3118, "pitch": 72, "duration": 4, "velocity": 85}, {"time": 3124, "pitch": 76, "duration": 20, "velocity": 87}, {"time": 3148, "pitch": 76, "duration": 4, "velocity": 84}, {"time": 3154, "pitch": 74, "duration": 8, "velocity": 88}, {"time": 3166, "pitch": 76, "duration": 4, "velocity": 86}, {"time": 3172, "pitch": 78, "duration": 10, "velocity": 85}, {"time": 3184, "pitch": 74, "duration": 11, "velocity": 90}, {"time": 3196, "pitch": 71, "duration": 30, "velocity": 85}, {"time": 3244, "pitch": 67, "duration": 4, "velocity": 84}, {"time": 3250, "pitch": 69, "duration": 8, "velocity": 88}, {"time": 3262, "pitch": 67, "duration": 3, "velocity": 82}, {"time": 3268, "pitch": 69, "duration": 16, "velocity": 85}, {"time": 3286, "pitch": 67, "duration": 4, "velocity": 86}, {"time": 3292, "pitch": 69, "duration": 31, "velocity": 87}, {"time": 3340, "pitch": 64, "duration": 4, "velocity": 84}, {"time": 3346, "pitch": 64, "duration": 8, "velocity": 87}, {"time": 3358, "pitch": 64, "duration": 4, "velocity": 84}, {"time": 3364, "pitch": 63, "duration": 8, "velocity": 85}, {"time": 3376, "pitch": 64, "duration": 9, "velocity": 88}, {"time": 3388, "pitch": 66, "duration": 48, "velocity": 85}, {"time": 3442, "pitch": 71, "duration": 5, "velocity": 90}, {"time": 3448, "pitch": 76, "duration": 10, "velocity": 90}, {"time": 3460, "pitch": 78, "duration": 19, "velocity": 89}, {"time": 3484, "pitch": 79, "duration": 3, "velocity": 86}, {"time": 3490, "pitch": 72, "duration": 9, "velocity": 84}, {"time": 3502, "pitch": 72, "duration": 5, "velocity": 84}, {"time": 3508, "pitch": 76, "duration": 23, "velocity": 86}, {"time": 3532, "pitch": 76, "duration": 5, "velocity": 88}, {"time": 3538, "pitch": 74, "duration": 9, "velocity": 90}, {"time": 3550, "pitch": 76, "duration": 5, "velocity": 87}, {"time": 3556, "pitch": 78, "duration": 10, "velocity": 86}, {"time": 3568, "pitch": 74, "duration": 11, "velocity": 91}, {"time": 3580, "pitch": 71, "duration": 42, "velocity": 87}, {"time": 3628, "pitch": 67, "duration": 4, "velocity": 85}, {"time": 3634, "pitch": 69, "duration": 9, "velocity": 88}, {"time": 3646, "pitch": 69, "duration": 4, "velocity": 85}, {"time": 3652, "pitch": 69, "duration": 9, "velocity": 86}, {"time": 3664, "pitch": 76, "duration": 9, "velocity": 90}, {"time": 3676, "pitch": 75, "duration": 33, "velocity": 88}, {"time": 3724, "pitch": 71, "duration": 4, "velocity": 91}, {"time": 3730, "pitch": 83, "duration": 5, "velocity": 91}, {"time": 3736, "pitch": 81, "duration": 3, "velocity": 81}, {"time": 3742, "pitch": 81, "duration": 4, "velocity": 86}, {"time": 3748, "pitch": 79, "duration": 13, "velocity": 84}, {"time": 3760, "pitch": 78, "duration": 10, "velocity": 84}, {"time": 3772, "pitch": 79, "duration": 18, "velocity": 86}, {"time": 3790, "pitch": 78, "duration": 6, "velocity": 80}, {"time": 3796, "pitch": 76, "duration": 58, "velocity": 85}, {"time": 4642, "pitch": 76, "duration": 20, "velocity": 89}, {"time": 4666, "pitch": 76, "duration": 5, "velocity": 89}, {"time": 4672, "pitch": 79, "duration": 5, "velocity": 90}, {"time": 4678, "pitch": 83, "duration": 11, "velocity": 88}, {"time": 4690, "pitch": 76, "duration": 31, "velocity": 88}, {"time": 4726, "pitch": 79, "duration": 9, "velocity": 90}, {"time": 4738, "pitch": 72, "duration": 9, "velocity": 91}, {"time": 4750, "pitch": 72, "duration": 4, "velocity": 85}, {"time": 4756, "pitch": 76, "duration": 20, "velocity": 87}, {"time": 4780, "pitch": 76, "duration": 4, "velocity": 84}, {"time": 4786, "pitch": 74, "duration": 8, "velocity": 88}, {"time": 4798, "pitch": 76, "duration": 4, "velocity": 86}, {"time": 4804, "pitch": 78, "duration": 10, "velocity": 85}, {"time": 4816, "pitch": 74, "duration": 11, "velocity": 90}, {"time": 4828, "pitch": 71, "duration": 30, "velocity": 85}, {"time": 4876, "pitch": 67, "duration": 4, "velocity": 84}, {"time": 4882, "pitch": 69, "duration": 8, "velocity": 88}, {"time": 4894, "pitch": 67, "duration": 3, "velocity": 82}, {"time": 4900, "pitch": 69, "duration": 16, "velocity": 85}, {"time": 4918, "pitch": 67, "duration": 4, "velocity": 86}, {"time": 4924, "pitch": 69, "duration": 31, "velocity": 87}, {"time": 4972, "pitch": 64, "duration": 4, "velocity": 84}, {"time": 4978, "pitch": 64, "duration": 8, "velocity": 87}, {"time": 4990, "pitch": 64, "duration": 4, "velocity": 84}, {"time": 4996, "pitch": 63, "duration": 8, "velocity": 85}, {"time": 5008, "pitch": 64, "duration": 9, "velocity": 88}, {"time": 5020, "pitch": 66, "duration": 48, "velocity": 85}, {"time": 5074, "pitch": 71, "duration": 5, "velocity": 90}, {"time": 5080, "pitch": 76, "duration": 10, "velocity": 90}, {"time": 5092, "pitch": 78, "duration": 19, "velocity": 89}, {"time": 5116, "pitch": 79, "duration": 3, "velocity": 86}, {"time": 5122, "pitch": 72, "duration": 9, "velocity": 84}, {"time": 5134, "pitch": 72, "duration": 5, "velocity": 84}, {"time": 5140, "pitch": 76, "duration": 23, "velocity": 86}, {"time": 5164, "pitch": 76, "duration": 5, "velocity": 88}, {"time": 5170, "pitch": 74, "duration": 9, "velocity": 90}, {"time": 5182, "pitch": 76, "duration": 5, "velocity": 87}, {"time": 5188, "pitch": 78, "duration": 10, "velocity": 86}, {"time": 5200, "pitch": 74, "duration": 11, "velocity": 91}, {"time": 5212, "pitch": 71, "duration": 42, "velocity": 87}, {"time": 5260, "pitch": 67, "duration": 4, "velocity": 85}, {"time": 5266, "pitch": 69, "duration": 9, "velocity": 88}, {"time": 5278, "pitch": 69, "duration": 4, "velocity": 85}, {"time": 5284, "pitch": 69, "duration": 9, "velocity": 86}, {"time": 5296, "pitch": 76, "duration": 9, "velocity": 90}, {"time": 5308, "pitch": 75, "duration": 33, "velocity": 88}, {"time": 5356, "pitch": 71, "duration": 4, "velocity": 91}, {"time": 5362, "pitch": 83, "duration": 5, "velocity": 91}, {"time": 5368, "pitch": 81, "duration": 3, "velocity": 81}, {"time": 5374, "pitch": 81, "duration": 4, "velocity": 86}, {"time": 5380, "pitch": 79, "duration": 13, "velocity": 84}, {"time": 5392, "pitch": 78, "duration": 10, "velocity": 84}, {"time": 5404, "pitch": 79, "duration": 18, "velocity": 86}, {"time": 5422, "pitch": 78, "duration": 6, "velocity": 80}, {"time": 5428, "pitch": 76, "duration": 58, "velocity": 85}, {"time": 5500, "pitch": 67, "duration": 4, "velocity": 85}, {"time": 5506, "pitch": 69, "duration": 9, "velocity": 88}, {"time": 5518, "pitch": 69, "duration": 4, "velocity": 85}, {"time": 5524, "pitch": 69, "duration": 9, "velocity": 86}, {"time": 5536, "pitch": 76, "duration": 9, "velocity": 90}, {"time": 5548, "pitch": 75, "duration": 33, "velocity": 88}, {"time": 5596, "pitch": 71, "duration": 4, "velocity": 91}, {"time": 5602, "pitch": 83, "duration": 5, "velocity": 91}, {"time": 5608, "pitch": 81, "duration": 3, "velocity": 81}, {"time": 5614, "pitch": 81, "duration": 4, "velocity": 86}, {"time": 5620, "pitch": 79, "duration": 13, "velocity": 84}, {"time": 5632, "pitch": 78, "duration": 10, "velocity": 84}, {"time": 5644, "pitch": 79, "duration": 18, "velocity": 86}, {"time": 5662, "pitch": 78, "duration": 6, "velocity": 80}, {"time": 5668, "pitch": 76, "duration": 58, "velocity": 85}, {"time": 5718, "pitch": 71, "duration": 4, "velocity": 85}, {"time": 5724, "pitch": 76, "duration": 2, "velocity": 86}, {"time": 5731, "pitch": 74, "duration": 7, "velocity": 91}, {"time": 5738, "pitch": 72, "duration": 8, "velocity": 85}, {"time": 5746, "pitch": 71, "duration": 6, "velocity": 84}, {"time": 5752, "pitch": 72, "duration": 30, "velocity": 77}, {"time": 5788, "pitch": 67, "duration": 14, "velocity": 78}, {"time": 5801, "pitch": 66, "duration": 35, "velocity": 79}, {"time": 5838, "pitch": 71, "duration": 3, "velocity": 85}, {"time": 5845, "pitch": 71, "duration": 44, "velocity": 85}, {"time": 5893, "pitch": 69, "duration": 13, "velocity": 90}, {"time": 5907, "pitch": 67, "duration": 27, "velocity": 85}, {"time": 5936, "pitch": 67, "duration": 8, "velocity": 86}, {"time": 5945, "pitch": 71, "duration": 11, "velocity": 88}, {"time": 5959, "pitch": 71, "duration": 5, "velocity": 85}, {"time": 5968, "pitch": 71, "duration": 7, "velocity": 82}, {"time": 5975, "pitch": 69, "duration": 35, "velocity": 79}, {"time": 6015, "pitch": 60, "duration": 15, "velocity": 82}, {"time": 6030, "pitch": 59, "duration": 19, "velocity": 84}, {"time": 6048, "pitch": 69, "duration": 17, "velocity": 85}, {"time": 6064, "pitch": 66, "duration": 37, "velocity": 83}, {"time": 6099, "pitch": 67, "duration": 15, "velocity": 76}, {"time": 6113, "pitch": 66, "duration": 58, "velocity": 75}, {"time": 6171, "pitch": 64, "duration": 58, "velocity": 82}]}, {"program": 0, "is_drum": false, "name": "PIANO", "notes": [{"time": 178, "pitch": 40, "duration": 45, "velocity": 89}, {"time": 184, "pitch": 47, "duration": 38, "velocity": 72}, {"time": 190, "pitch": 52, "duration": 3, "velocity": 80}, {"time": 196, "pitch": 54, "duration": 3, "velocity": 84}, {"time": 208, "pitch": 55, "duration": 8, "velocity": 78}, {"time": 214, "pitch": 59, "duration": 14, "velocity": 81}, {"time": 226, "pitch": 38, "duration": 35, "velocity": 84}, {"time": 232, "pitch": 45, "duration": 29, "velocity": 72}, {"time": 238, "pitch": 57, "duration": 7, "velocity": 81}, {"time": 244, "pitch": 62, "duration": 13, "velocity": 85}, {"time": 256, "pitch": 66, "duration": 3, "velocity": 93}, {"time": 274, "pitch": 45, "duration": 40, "velocity": 85}, {"time": 280, "pitch": 52, "duration": 32, "velocity": 79}, {"time": 286, "pitch": 57, "duration": 7, "velocity": 90}, {"time": 292, "pitch": 60, "duration": 13, "velocity": 88}, {"time": 304, "pitch": 64, "duration": 11, "velocity": 86}, {"time": 322, "pitch": 40, "duration": 38, "velocity": 87}, {"time": 322, "pitch": 59, "duration": 7, "velocity": 81}, {"time": 322, "pitch": 64, "duration": 13, "velocity": 85}, {"time": 328, "pitch": 47, "duration": 32, "velocity": 73}, {"time": 334, "pitch": 59, "duration": 2, "velocity": 80}, {"time": 340, "pitch": 59, "duration": 12, "velocity": 86}, {"time": 340, "pitch": 67, "duration": 12, "velocity": 84}, {"time": 358, "pitch": 66, "duration": 10, "velocity": 87}, {"time": 370, "pitch": 48, "duration": 32, "velocity": 86}, {"time": 370, "pitch": 64, "duration": 13, "velocity": 85}, {"time": 376, "pitch": 55, "duration": 25, "velocity": 78}, {"time": 382, "pitch": 60, "duration": 2, "velocity": 85}, {"time": 388, "pitch": 60, "duration": 3, "velocity": 85}, {"time": 388, "pitch": 67, "duration": 5, "velocity": 85}, {"time": 400, "pitch": 60, "duration": 2, "velocity": 85}, {"time": 400, "pitch": 64, "duration": 2, "velocity": 86}, {"time": 418, "pitch": 45, "duration": 37, "velocity": 84}, {"time": 418, "pitch": 57, "duration": 7, "velocity": 77}, {"time": 418, "pitch": 60, "duration": 12, "velocity": 82}, {"time": 424, "pitch": 52, "duration": 25, "velocity": 74}, {"time": 430, "pitch": 57, "duration": 1, "velocity": 60}, {"time": 436, "pitch": 57, "duration": 4, "velocity": 80}, {"time": 436, "pitch": 64, "duration": 4, "velocity": 84}, {"time": 448, "pitch": 60, "duration": 11, "velocity": 88}, {"time": 454, "pitch": 52, "duration": 6, "velocity": 85}, {"time": 460, "pitch": 57, "duration": 3, "velocity": 85}, {"time": 466, "pitch": 47, "duration": 42, "velocity": 86}, {"time": 466, "pitch": 59, "duration": 9, "velocity": 85}, {"time": 472, "pitch": 54, "duration": 27, "velocity": 74}, {"time": 478, "pitch": 59, "duration": 7, "velocity": 88}, {"time": 484, "pitch": 64, "duration": 7, "velocity": 85}, {"time": 496, "pitch": 66, "duration": 3, "velocity": 85}, {"time": 502, "pitch": 54, "duration": 3, "velocity": 58}, {"time": 508, "pitch": 59, "duration": 36, "velocity": 83}, {"time": 514, "pitch": 47, "duration": 29, "velocity": 85}, {"time": 514, "pitch": 63, "duration": 30, "velocity": 71}, {"time": 514, "pitch": 66, "duration": 31, "velocity": 72}, {"time": 514, "pitch": 71, "duration": 31, "velocity": 83}, {"time": 610, "pitch": 40, "duration": 35, "velocity": 85}, {"time": 616, "pitch": 47, "duration": 28, "velocity": 68}, {"time": 622, "pitch": 54, "duration": 6, "velocity": 76}, {"time": 628, "pitch": 55, "duration": 12, "velocity": 86}, {"time": 640, "pitch": 59, "duration": 3, "velocity": 86}, {"time": 658, "pitch": 38, "duration": 35, "velocity": 86}, {"time": 664, "pitch": 45, "duration": 27, "velocity": 70}, {"time": 670, "pitch": 54, "duration": 8, "velocity": 71}, {"time": 676, "pitch": 57, "duration": 14, "velocity": 79}, {"time": 688, "pitch": 62, "duration": 14, "velocity": 86}, {"time": 706, "pitch": 45, "duration": 36, "velocity": 85}, {"time": 712, "pitch": 52, "duration": 29, "velocity": 74}, {"time": 718, "pitch": 57, "duration": 2, "velocity": 78}, {"time": 724, "pitch": 57, "duration": 4, "velocity": 85}, {"time": 724, "pitch": 60, "duration": 4, "velocity": 85}, {"time": 754, "pitch": 40, "duration": 39, "velocity": 87}, {"time": 760, "pitch": 47, "duration": 32, "velocity": 73}, {"time": 766, "pitch": 54, "duration": 6, "velocity": 80}, {"time": 772, "pitch": 55, "duration": 18, "velocity": 80}, {"time": 784, "pitch": 59, "duration": 16, "velocity": 76}, {"time": 790, "pitch": 64, "duration": 24, "velocity": 87}, {"time": 796, "pitch": 55, "duration": 7, "velocity": 79}, {"time": 802, "pitch": 45, "duration": 46, "velocity": 86}, {"time": 808, "pitch": 52, "duration": 40, "velocity": 76}, {"time": 814, "pitch": 57, "duration": 7, "velocity": 72}, {"time": 820, "pitch": 64, "duration": 4, "velocity": 85}, {"time": 832, "pitch": 60, "duration": 4, "velocity": 77}, {"time": 850, "pitch": 45, "duration": 33, "velocity": 84}, {"time": 850, "pitch": 69, "duration": 12, "velocity": 84}, {"time": 856, "pitch": 52, "duration": 28, "velocity": 71}, {"time": 862, "pitch": 57, "duration": 2, "velocity": 75}, {"time": 868, "pitch": 57, "duration": 5, "velocity": 82}, {"time": 868, "pitch": 64, "duration": 5, "velocity": 84}, {"time": 880, "pitch": 57, "duration": 2, "velocity": 83}, {"time": 880, "pitch": 60, "duration": 2, "velocity": 88}, {"time": 898, "pitch": 47, "duration": 39, "velocity": 85}, {"time": 898, "pitch": 66, "duration": 11, "velocity": 87}, {"time": 904, "pitch": 54, "duration": 31, "velocity": 70}, {"time": 910, "pitch": 59, "duration": 3, "velocity": 79}, {"time": 916, "pitch": 64, "duration": 5, "velocity": 85}, {"time": 928, "pitch": 66, "duration": 1, "velocity": 85}, {"time": 946, "pitch": 47, "duration": 34, "velocity": 86}, {"time": 946, "pitch": 71, "duration": 13, "velocity": 86}, {"time": 952, "pitch": 54, "duration": 26, "velocity": 76}, {"time": 958, "pitch": 59, "duration": 11, "velocity": 84}, {"time": 964, "pitch": 63, "duration": 7, "velocity": 95}, {"time": 970, "pitch": 69, "duration": 7, "velocity": 89}, {"time": 976, "pitch": 59, "duration": 4, "velocity": 86}, {"time": 982, "pitch": 67, "duration": 6, "velocity": 78}, {"time": 988, "pitch": 66, "duration": 5, "velocity": 89}, {"time": 994, "pitch": 40, "duration": 35, "velocity": 85}, {"time": 1000, "pitch": 47, "duration": 28, "velocity": 68}, {"time": 1006, "pitch": 54, "duration": 6, "velocity": 76}, {"time": 1012, "pitch": 55, "duration": 12, "velocity": 86}, {"time": 1024, "pitch": 59, "duration": 3, "velocity": 86}, {"time": 1042, "pitch": 38, "duration": 35, "velocity": 86}, {"time": 1048, "pitch": 45, "duration": 27, "velocity": 70}, {"time": 1054, "pitch": 54, "duration": 8, "velocity": 71}, {"time": 1060, "pitch": 57, "duration": 14, "velocity": 79}, {"time": 1072, "pitch": 62, "duration": 14, "velocity": 86}, {"time": 1090, "pitch": 45, "duration": 36, "velocity": 85}, {"time": 1096, "pitch": 52, "duration": 29, "velocity": 74}, {"time": 1102, "pitch": 57, "duration": 2, "velocity": 78}, {"time": 1108, "pitch": 57, "duration": 4, "velocity": 85}, {"time": 1108, "pitch": 60, "duration": 4, "velocity": 85}, {"time": 1138, "pitch": 40, "duration": 39, "velocity": 87}, {"time": 1144, "pitch": 47, "duration": 32, "velocity": 73}, {"time": 1150, "pitch": 54, "duration": 6, "velocity": 80}, {"time": 1156, "pitch": 55, "duration": 18, "velocity": 80}, {"time": 1168, "pitch": 59, "duration": 16, "velocity": 76}, {"time": 1174, "pitch": 64, "duration": 24, "velocity": 87}, {"time": 1180, "pitch": 55, "duration": 7, "velocity": 79}, {"time": 1186, "pitch": 45, "duration": 46, "velocity": 86}, {"time": 1192, "pitch": 52, "duration": 40, "velocity": 76}, {"time": 1198, "pitch": 57, "duration": 7, "velocity": 72}, {"time": 1204, "pitch": 64, "duration": 4, "velocity": 85}, {"time": 1216, "pitch": 60, "duration": 4, "velocity": 77}, {"time": 1234, "pitch": 45, "duration": 33, "velocity": 84}, {"time": 1234, "pitch": 69, "duration": 12, "velocity": 84}, {"time": 1240, "pitch": 52, "duration": 28, "velocity": 71}, {"time": 1246, "pitch": 57, "duration": 2, "velocity": 75}, {"time": 1252, "pitch": 57, "duration": 5, "velocity": 82}, {"time": 1252, "pitch": 64, "duration": 5, "velocity": 84}, {"time": 1264, "pitch": 57, "duration": 2, "velocity": 83}, {"time": 1264, "pitch": 60, "duration": 2, "velocity": 88}, {"time": 1282, "pitch": 47, "duration": 39, "velocity": 85}, {"time": 1282, "pitch": 66, "duration": 11, "velocity": 87}, {"time": 1288, "pitch": 54, "duration": 31, "velocity": 70}, {"time": 1294, "pitch": 59, "duration": 3, "velocity": 79}, {"time": 1300, "pitch": 64, "duration": 5, "velocity": 85}, {"time": 1312, "pitch": 66, "duration": 1, "velocity": 85}, {"time": 1330, "pitch": 40, "duration": 83, "velocity": 86}, {"time": 1336, "pitch": 47, "duration": 77, "velocity": 79}, {"time": 1342, "pitch": 54, "duration": 2, "velocity": 77}, {"time": 1348, "pitch": 55, "duration": 7, "velocity": 88}, {"time": 1354, "pitch": 59, "duration": 6, "velocity": 86}, {"time": 1360, "pitch": 64, "duration": 2, "velocity": 84}, {"time": 1366, "pitch": 66, "duration": 2, "velocity": 86}, {"time": 1372, "pitch": 67, "duration": 2, "velocity": 80}, {"time": 1378, "pitch": 64, "duration": 15, "velocity": 86}, {"time": 1378, "pitch": 71, "duration": 14, "velocity": 89}, {"time": 1426, "pitch": 48, "duration": 37, "velocity": 86}, {"time": 1426, "pitch": 55, "duration": 3, "velocity": 85}, {"time": 1426, "pitch": 64, "duration": 10, "velocity": 86}, {"time": 1432, "pitch": 55, "duration": 7, "velocity": 84}, {"time": 1438, "pitch": 60, "duration": 2, "velocity": 78}, {"time": 1444, "pitch": 55, "duration": 5, "velocity": 85}, {"time": 1444, "pitch": 64, "duration": 5, "velocity": 87}, {"time": 1462, "pitch": 60, "duration": 3, "velocity": 88}, {"time": 1468, "pitch": 59, "duration": 5, "velocity": 88}, {"time": 1474, "pitch": 45, "duration": 35, "velocity": 85}, {"time": 1474, "pitch": 57, "duration": 12, "velocity": 85}, {"time": 1480, "pitch": 52, "duration": 26, "velocity": 78}, {"time": 1486, "pitch": 60, "duration": 1, "velocity": 74}, {"time": 1492, "pitch": 57, "duration": 4, "velocity": 84}, {"time": 1492, "pitch": 64, "duration": 3, "velocity": 87}, {"time": 1504, "pitch": 57, "duration": 2, "velocity": 82}, {"time": 1504, "pitch": 60, "duration": 2, "velocity": 87}, {"time": 1510, "pitch": 52, "duration": 1, "velocity": 82}, {"time": 1516, "pitch": 57, "duration": 4, "velocity": 85}, {"time": 1522, "pitch": 38, "duration": 6, "velocity": 86}, {"time": 1522, "pitch": 57, "duration": 4, "velocity": 78}, {"time": 1522, "pitch": 66, "duration": 12, "velocity": 78}, {"time": 1534, "pitch": 62, "duration": 10, "velocity": 75}, {"time": 1540, "pitch": 57, "duration": 5, "velocity": 79}, {"time": 1546, "pitch": 50, "duration": 13, "velocity": 84}, {"time": 1552, "pitch": 66, "duration": 9, "velocity": 91}, {"time": 1570, "pitch": 43, "duration": 38, "velocity": 84}, {"time": 1570, "pitch": 55, "duration": 7, "velocity": 79}, {"time": 1570, "pitch": 59, "duration": 12, "velocity": 79}, {"time": 1576, "pitch": 50, "duration": 29, "velocity": 74}, {"time": 1582, "pitch": 55, "duration": 7, "velocity": 84}, {"time": 1588, "pitch": 62, "duration": 13, "velocity": 86}, {"time": 1600, "pitch": 67, "duration": 8, "velocity": 85}, {"time": 1606, "pitch": 55, "duration": 4, "velocity": 86}, {"time": 1618, "pitch": 45, "duration": 32, "velocity": 84}, {"time": 1618, "pitch": 57, "duration": 14, "velocity": 80}, {"time": 1618, "pitch": 60, "duration": 14, "velocity": 80}, {"time": 1624, "pitch": 52, "duration": 26, "velocity": 79}, {"time": 1630, "pitch": 64, "duration": 6, "velocity": 79}, {"time": 1636, "pitch": 69, "duration": 12, "velocity": 88}, {"time": 1648, "pitch": 64, "duration": 1, "velocity": 88}, {"time": 1666, "pitch": 42, "duration": 31, "velocity": 86}, {"time": 1666, "pitch": 57, "duration": 2, "velocity": 74}, {"time": 1666, "pitch": 60, "duration": 7, "velocity": 79}, {"time": 1666, "pitch": 66, "duration": 11, "velocity": 76}, {"time": 1672, "pitch": 57, "duration": 9, "velocity": 75}, {"time": 1678, "pitch": 60, "duration": 2, "velocity": 70}, {"time": 1684, "pitch": 66, "duration": 13, "velocity": 90}, {"time": 1696, "pitch": 60, "duration": 2, "velocity": 89}, {"time": 1714, "pitch": 47, "duration": 38, "velocity": 84}, {"time": 1714, "pitch": 59, "duration": 13, "velocity": 82}, {"time": 1714, "pitch": 63, "duration": 20, "velocity": 82}, {"time": 1720, "pitch": 54, "duration": 29, "velocity": 76}, {"time": 1726, "pitch": 66, "duration": 7, "velocity": 89}, {"time": 1732, "pitch": 71, "duration": 10, "velocity": 86}, {"time": 1744, "pitch": 66, "duration": 1, "velocity": 105}, {"time": 1750, "pitch": 63, "duration": 4, "velocity": 85}, {"time": 1756, "pitch": 59, "duration": 2, "velocity": 85}, {"time": 1762, "pitch": 47, "duration": 37, "velocity": 86}, {"time": 1762, "pitch": 59, "duration": 5, "velocity": 85}, {"time": 1762, "pitch": 63, "duration": 9, "velocity": 84}, {"time": 1768, "pitch": 54, "duration": 13, "velocity": 76}, {"time": 1774, "pitch": 59, "duration": 2, "velocity": 81}, {"time": 1780, "pitch": 59, "duration": 7, "velocity": 85}, {"time": 1780, "pitch": 63, "duration": 8, "velocity": 89}, {"time": 1780, "pitch": 66, "duration": 8, "velocity": 74}, {"time": 1786, "pitch": 54, "duration": 12, "velocity": 87}, {"time": 1792, "pitch": 59, "duration": 7, "velocity": 93}, {"time": 1798, "pitch": 51, "duration": 2, "velocity": 81}, {"time": 1804, "pitch": 59, "duration": 4, "velocity": 86}, {"time": 1810, "pitch": 40, "duration": 34, "velocity": 88}, {"time": 1810, "pitch": 59, "duration": 5, "velocity": 86}, {"time": 1810, "pitch": 64, "duration": 12, "velocity": 86}, {"time": 1816, "pitch": 47, "duration": 27, "velocity": 70}, {"time": 1822, "pitch": 59, "duration": 3, "velocity": 84}, {"time": 1828, "pitch": 59, "duration": 7, "velocity": 84}, {"time": 1828, "pitch": 67, "duration": 12, "velocity": 84}, {"time": 1840, "pitch": 64, "duration": 3, "velocity": 89}, {"time": 1858, "pitch": 45, "duration": 44, "velocity": 84}, {"time": 1858, "pitch": 57, "duration": 7, "velocity": 77}, {"time": 1858, "pitch": 60, "duration": 13, "velocity": 77}, {"time": 1864, "pitch": 52, "duration": 36, "velocity": 71}, {"time": 1870, "pitch": 57, "duration": 13, "velocity": 82}, {"time": 1876, "pitch": 64, "duration": 8, "velocity": 86}, {"time": 1888, "pitch": 57, "duration": 4, "velocity": 83}, {"time": 1888, "pitch": 60, "duration": 8, "velocity": 84}, {"time": 1900, "pitch": 57, "duration": 6, "velocity": 83}, {"time": 1906, "pitch": 50, "duration": 38, "velocity": 81}, {"time": 1906, "pitch": 62, "duration": 7, "velocity": 85}, {"time": 1912, "pitch": 57, "duration": 7, "velocity": 86}, {"time": 1918, "pitch": 62, "duration": 12, "velocity": 82}, {"time": 1924, "pitch": 66, "duration": 11, "velocity": 73}, {"time": 1936, "pitch": 62, "duration": 6, "velocity": 87}, {"time": 1942, "pitch": 57, "duration": 3, "velocity": 86}, {"time": 1954, "pitch": 43, "duration": 36, "velocity": 84}, {"time": 1954, "pitch": 55, "duration": 6, "velocity": 78}, {"time": 1954, "pitch": 62, "duration": 12, "velocity": 83}, {"time": 1960, "pitch": 50, "duration": 28, "velocity": 76}, {"time": 1966, "pitch": 55, "duration": 3, "velocity": 84}, {"time": 1972, "pitch": 55, "duration": 4, "velocity": 87}, {"time": 1972, "pitch": 62, "duration": 6, "velocity": 86}, {"time": 1984, "pitch": 59, "duration": 6, "velocity": 95}, {"time": 1990, "pitch": 55, "duration": 2, "velocity": 85}, {"time": 2002, "pitch": 45, "duration": 40, "velocity": 85}, {"time": 2002, "pitch": 57, "duration": 5, "velocity": 80}, {"time": 2002, "pitch": 60, "duration": 12, "velocity": 82}, {"time": 2008, "pitch": 52, "duration": 35, "velocity": 81}, {"time": 2014, "pitch": 57, "duration": 8, "velocity": 82}, {"time": 2020, "pitch": 64, "duration": 5, "velocity": 85}, {"time": 2032, "pitch": 60, "duration": 9, "velocity": 85}, {"time": 2044, "pitch": 57, "duration": 3, "velocity": 82}, {"time": 2050, "pitch": 47, "duration": 37, "velocity": 85}, {"time": 2050, "pitch": 59, "duration": 13, "velocity": 89}, {"time": 2056, "pitch": 63, "duration": 14, "velocity": 80}, {"time": 2062, "pitch": 66, "duration": 12, "velocity": 88}, {"time": 2068, "pitch": 54, "duration": 17, "velocity": 84}, {"time": 2074, "pitch": 71, "duration": 13, "velocity": 86}, {"time": 2080, "pitch": 59, "duration": 7, "velocity": 91}, {"time": 2086, "pitch": 63, "duration": 2, "velocity": 88}, {"time": 2098, "pitch": 48, "duration": 13, "velocity": 86}, {"time": 2098, "pitch": 55, "duration": 4, "velocity": 84}, {"time": 2098, "pitch": 60, "duration": 12, "velocity": 85}, {"time": 2110, "pitch": 55, "duration": 6, "velocity": 84}, {"time": 2116, "pitch": 60, "duration": 4, "velocity": 77}, {"time": 2122, "pitch": 47, "duration": 21, "velocity": 85}, {"time": 2122, "pitch": 59, "duration": 12, "velocity": 84}, {"time": 2122, "pitch": 63, "duration": 16, "velocity": 87}, {"time": 2134, "pitch": 54, "duration": 6, "velocity": 78}, {"time": 2140, "pitch": 59, "duration": 3, "velocity": 86}, {"time": 2146, "pitch": 52, "duration": 41, "velocity": 83}, {"time": 2146, "pitch": 59, "duration": 3, "velocity": 84}, {"time": 2146, "pitch": 64, "duration": 7, "velocity": 85}, {"time": 2152, "pitch": 59, "duration": 8, "velocity": 79}, {"time": 2158, "pitch": 64, "duration": 2, "velocity": 63}, {"time": 2164, "pitch": 67, "duration": 8, "velocity": 84}, {"time": 2176, "pitch": 66, "duration": 4, "velocity": 85}, {"time": 2182, "pitch": 62, "duration": 8, "velocity": 80}, {"time": 2188, "pitch": 59, "duration": 36, "velocity": 79}, {"time": 2194, "pitch": 52, "duration": 32, "velocity": 84}, {"time": 2194, "pitch": 64, "duration": 31, "velocity": 81}, {"time": 2242, "pitch": 40, "duration": 35, "velocity": 85}, {"time": 2248, "pitch": 47, "duration": 28, "velocity": 68}, {"time": 2254, "pitch": 54, "duration": 6, "velocity": 76}, {"time": 2260, "pitch": 55, "duration": 12, "velocity": 86}, {"time": 2272, "pitch": 59, "duration": 3, "velocity": 86}, {"time": 2290, "pitch": 38, "duration": 35, "velocity": 86}, {"time": 2296, "pitch": 45, "duration": 27, "velocity": 70}, {"time": 2302, "pitch": 54, "duration": 8, "velocity": 71}, {"time": 2308, "pitch": 57, "duration": 14, "velocity": 79}, {"time": 2320, "pitch": 62, "duration": 14, "velocity": 86}, {"time": 2338, "pitch": 45, "duration": 36, "velocity": 85}, {"time": 2344, "pitch": 52, "duration": 29, "velocity": 74}, {"time": 2350, "pitch": 57, "duration": 2, "velocity": 78}, {"time": 2356, "pitch": 57, "duration": 4, "velocity": 85}, {"time": 2356, "pitch": 60, "duration": 4, "velocity": 85}, {"time": 2386, "pitch": 40, "duration": 39, "velocity": 87}, {"time": 2392, "pitch": 47, "duration": 32, "velocity": 73}, {"time": 2398, "pitch": 54, "duration": 6, "velocity": 80}, {"time": 2404, "pitch": 55, "duration": 18, "velocity": 80}, {"time": 2416, "pitch": 59, "duration": 16, "velocity": 76}, {"time": 2422, "pitch": 64, "duration": 24, "velocity": 87}, {"time": 2428, "pitch": 55, "duration": 7, "velocity": 79}, {"time": 2434, "pitch": 45, "duration": 46, "velocity": 86}, {"time": 2440, "pitch": 52, "duration": 40, "velocity": 76}, {"time": 2446, "pitch": 57, "duration": 7, "velocity": 72}, {"time": 2452, "pitch": 64, "duration": 4, "velocity": 85}, {"time": 2464, "pitch": 60, "duration": 4, "velocity": 77}, {"time": 2482, "pitch": 45, "duration": 33, "velocity": 84}, {"time": 2482, "pitch": 69, "duration": 12, "velocity": 84}, {"time": 2488, "pitch": 52, "duration": 28, "velocity": 71}, {"time": 2494, "pitch": 57, "duration": 2, "velocity": 75}, {"time": 2500, "pitch": 57, "duration": 5, "velocity": 82}, {"time": 2500, "pitch": 64, "duration": 5, "velocity": 84}, {"time": 2512, "pitch": 57, "duration": 2, "velocity": 83}, {"time": 2512, "pitch": 60, "duration": 2, "velocity": 88}, {"time": 2530, "pitch": 47, "duration": 39, "velocity": 85}, {"time": 2530, "pitch": 66, "duration": 11, "velocity": 87}, {"time": 2536, "pitch": 54, "duration": 31, "velocity": 70}, {"time": 2542, "pitch": 59, "duration": 3, "velocity": 79}, {"time": 2548, "pitch": 64, "duration": 5, "velocity": 85}, {"time": 2560, "pitch": 66, "duration": 1, "velocity": 85}, {"time": 2578, "pitch": 47, "duration": 34, "velocity": 86}, {"time": 2578, "pitch": 71, "duration": 13, "velocity": 86}, {"time": 2584, "pitch": 54, "duration": 26, "velocity": 76}, {"time": 2590, "pitch": 59, "duration": 11, "velocity": 84}, {"time": 2596, "pitch": 63, "duration": 7, "velocity": 95}, {"time": 2602, "pitch": 69, "duration": 7, "velocity": 89}, {"time": 2608, "pitch": 59, "duration": 4, "velocity": 86}, {"time": 2614, "pitch": 67, "duration": 6, "velocity": 78}, {"time": 2620, "pitch": 66, "duration": 5, "velocity": 89}, {"time": 2626, "pitch": 40, "duration": 35, "velocity": 85}, {"time": 2632, "pitch": 47, "duration": 28, "velocity": 68}, {"time": 2638, "pitch": 54, "duration": 6, "velocity": 76}, {"time": 2644, "pitch": 55, "duration": 12, "velocity": 86}, {"time": 2656, "pitch": 59, "duration": 3, "velocity": 86}, {"time": 2674, "pitch": 38, "duration": 35, "velocity": 86}, {"time": 2680, "pitch": 45, "duration": 27, "velocity": 70}, {"time": 2686, "pitch": 54, "duration": 8, "velocity": 71}, {"time": 2692, "pitch": 57, "duration": 14, "velocity": 79}, {"time": 2704, "pitch": 62, "duration": 14, "velocity": 86}, {"time": 2722, "pitch": 45, "duration": 36, "velocity": 85}, {"time": 2728, "pitch": 52, "duration": 29, "velocity": 74}, {"time": 2734, "pitch": 57, "duration": 2, "velocity": 78}, {"time": 2740, "pitch": 57, "duration": 4, "velocity": 85}, {"time": 2740, "pitch": 60, "duration": 4, "velocity": 85}, {"time": 2770, "pitch": 40, "duration": 39, "velocity": 87}, {"time": 2776, "pitch": 47, "duration": 32, "velocity": 73}, {"time": 2782, "pitch": 54, "duration": 6, "velocity": 80}, {"time": 2788, "pitch": 55, "duration": 18, "velocity": 80}, {"time": 2800, "pitch": 59, "duration": 16, "velocity": 76}, {"time": 2806, "pitch": 64, "duration": 24, "velocity": 87}, {"time": 2812, "pitch": 55, "duration": 7, "velocity": 79}, {"time": 2818, "pitch": 45, "duration": 46, "velocity": 86}, {"time": 2824, "pitch": 52, "duration": 40, "velocity": 76}, {"time": 2830, "pitch": 57, "duration": 7, "velocity": 72}, {"time": 2836, "pitch": 64, "duration": 4, "velocity": 85}, {"time": 2848, "pitch": 60, "duration": 4, "velocity": 77}, {"time": 2866, "pitch": 45, "duration": 33, "velocity": 84}, {"time": 2866, "pitch": 69, "duration": 12, "velocity": 84}, {"time": 2872, "pitch": 52, "duration": 28, "velocity": 71}, {"time": 2878, "pitch": 57, "duration": 2, "velocity": 75}, {"time": 2884, "pitch": 57, "duration": 5, "velocity": 82}, {"time": 2884, "pitch": 64, "duration": 5, "velocity": 84}, {"time": 2896, "pitch": 57, "duration": 2, "velocity": 83}, {"time": 2896, "pitch": 60, "duration": 2, "velocity": 88}, {"time": 2914, "pitch": 47, "duration": 39, "velocity": 85}, {"time": 2914, "pitch": 66, "duration": 11, "velocity": 87}, {"time": 2920, "pitch": 54, "duration": 31, "velocity": 70}, {"time": 2926, "pitch": 59, "duration": 3, "velocity": 79}, {"time": 2932, "pitch": 64, "duration": 5, "velocity": 85}, {"time": 2944, "pitch": 66, "duration": 1, "velocity": 85}, {"time": 2962, "pitch": 40, "duration": 83, "velocity": 86}, {"time": 2968, "pitch": 47, "duration": 77, "velocity": 79}, {"time": 2974, "pitch": 54, "duration": 2, "velocity": 77}, {"time": 2980, "pitch": 55, "duration": 7, "velocity": 88}, {"time": 2986, "pitch": 59, "duration": 6, "velocity": 86}, {"time": 2992, "pitch": 64, "duration": 2, "velocity": 84}, {"time": 2998, "pitch": 66, "duration": 2, "velocity": 86}, {"time": 3004, "pitch": 67, "duration": 2, "velocity": 80}, {"time": 3010, "pitch": 64, "duration": 15, "velocity": 86}, {"time": 3010, "pitch": 71, "duration": 14, "velocity": 89}, {"time": 3058, "pitch": 36, "duration": 35, "velocity": 89}, {"time": 3058, "pitch": 60, "duration": 13, "velocity": 90}, {"time": 3058, "pitch": 67, "duration": 13, "velocity": 88}, {"time": 3070, "pitch": 43, "duration": 22, "velocity": 72}, {"time": 3076, "pitch": 60, "duration": 9, "velocity": 98}, {"time": 3088, "pitch": 60, "duration": 6, "velocity": 96}, {"time": 3088, "pitch": 64, "duration": 6, "velocity": 100}, {"time": 3106, "pitch": 45, "duration": 33, "velocity": 90}, {"time": 3106, "pitch": 57, "duration": 8, "velocity": 85}, {"time": 3106, "pitch": 60, "duration": 12, "velocity": 85}, {"time": 3112, "pitch": 52, "duration": 27, "velocity": 82}, {"time": 3118, "pitch": 57, "duration": 3, "velocity": 83}, {"time": 3124, "pitch": 57, "duration": 15, "velocity": 92}, {"time": 3124, "pitch": 60, "duration": 15, "velocity": 96}, {"time": 3124, "pitch": 64, "duration": 11, "velocity": 92}, {"time": 3142, "pitch": 52, "duration": 2, "velocity": 90}, {"time": 3142, "pitch": 57, "duration": 2, "velocity": 85}, {"time": 3142, "pitch": 60, "duration": 6, "velocity": 88}, {"time": 3148, "pitch": 57, "duration": 5, "velocity": 85}, {"time": 3154, "pitch": 38, "duration": 37, "velocity": 94}, {"time": 3154, "pitch": 57, "duration": 5, "velocity": 81}, {"time": 3154, "pitch": 62, "duration": 13, "velocity": 89}, {"time": 3154, "pitch": 66, "duration": 17, "velocity": 82}, {"time": 3166, "pitch": 45, "duration": 26, "velocity": 73}, {"time": 3172, "pitch": 57, "duration": 3, "velocity": 89}, {"time": 3178, "pitch": 57, "duration": 10, "velocity": 93}, {"time": 3178, "pitch": 62, "duration": 7, "velocity": 95}, {"time": 3190, "pitch": 62, "duration": 6, "velocity": 90}, {"time": 3190, "pitch": 66, "duration": 6, "velocity": 87}, {"time": 3196, "pitch": 57, "duration": 2, "velocity": 82}, {"time": 3202, "pitch": 43, "duration": 36, "velocity": 88}, {"time": 3202, "pitch": 55, "duration": 8, "velocity": 88}, {"time": 3202, "pitch": 59, "duration": 12, "velocity": 86}, {"time": 3208, "pitch": 50, "duration": 20, "velocity": 77}, {"time": 3214, "pitch": 55, "duration": 9, "velocity": 84}, {"time": 3226, "pitch": 55, "duration": 7, "velocity": 92}, {"time": 3226, "pitch": 59, "duration": 12, "velocity": 91}, {"time": 3226, "pitch": 62, "duration": 12, "velocity": 92}, {"time": 3232, "pitch": 50, "duration": 6, "velocity": 84}, {"time": 3238, "pitch": 55, "duration": 9, "velocity": 93}, {"time": 3250, "pitch": 45, "duration": 35, "velocity": 90}, {"time": 3250, "pitch": 57, "duration": 11, "velocity": 86}, {"time": 3250, "pitch": 60, "duration": 12, "velocity": 89}, {"time": 3262, "pitch": 52, "duration": 14, "velocity": 87}, {"time": 3268, "pitch": 57, "duration": 3, "velocity": 77}, {"time": 3274, "pitch": 57, "duration": 7, "velocity": 89}, {"time": 3274, "pitch": 60, "duration": 12, "velocity": 92}, {"time": 3274, "pitch": 64, "duration": 11, "velocity": 93}, {"time": 3280, "pitch": 52, "duration": 6, "velocity": 85}, {"time": 3286, "pitch": 57, "duration": 9, "velocity": 90}, {"time": 3298, "pitch": 42, "duration": 24, "velocity": 86}, {"time": 3298, "pitch": 60, "duration": 14, "velocity": 89}, {"time": 3298, "pitch": 64, "duration": 14, "velocity": 90}, {"time": 3310, "pitch": 57, "duration": 5, "velocity": 78}, {"time": 3322, "pitch": 57, "duration": 4, "velocity": 93}, {"time": 3322, "pitch": 60, "duration": 7, "velocity": 96}, {"time": 3322, "pitch": 64, "duration": 9, "velocity": 100}, {"time": 3328, "pitch": 57, "duration": 7, "velocity": 82}, {"time": 3334, "pitch": 60, "duration": 6, "velocity": 85}, {"time": 3346, "pitch": 47, "duration": 40, "velocity": 90}, {"time": 3346, "pitch": 59, "duration": 13, "velocity": 90}, {"time": 3346, "pitch": 63, "duration": 10, "velocity": 89}, {"time": 3358, "pitch": 54, "duration": 15, "velocity": 83}, {"time": 3364, "pitch": 59, "duration": 3, "velocity": 89}, {"time": 3370, "pitch": 59, "duration": 8, "velocity": 94}, {"time": 3370, "pitch": 66, "duration": 13, "velocity": 87}, {"time": 3376, "pitch": 54, "duration": 10, "velocity": 83}, {"time": 3382, "pitch": 59, "duration": 9, "velocity": 95}, {"time": 3388, "pitch": 63, "duration": 4, "velocity": 85}, {"time": 3394, "pitch": 47, "duration": 32, "velocity": 91}, {"time": 3394, "pitch": 59, "duration": 6, "velocity": 92}, {"time": 3394, "pitch": 63, "duration": 7, "velocity": 89}, {"time": 3394, "pitch": 66, "duration": 9, "velocity": 84}, {"time": 3394, "pitch": 71, "duration": 7, "velocity": 90}, {"time": 3400, "pitch": 54, "duration": 14, "velocity": 78}, {"time": 3406, "pitch": 59, "duration": 3, "velocity": 91}, {"time": 3412, "pitch": 59, "duration": 8, "velocity": 92}, {"time": 3412, "pitch": 63, "duration": 8, "velocity": 94}, {"time": 3412, "pitch": 69, "duration": 9, "velocity": 89}, {"time": 3418, "pitch": 54, "duration": 7, "velocity": 90}, {"time": 3424, "pitch": 59, "duration": 4, "velocity": 96}, {"time": 3424, "pitch": 67, "duration": 8, "velocity": 85}, {"time": 3442, "pitch": 40, "duration": 33, "velocity": 91}, {"time": 3442, "pitch": 64, "duration": 5, "velocity": 87}, {"time": 3442, "pitch": 67, "duration": 6, "velocity": 84}, {"time": 3448, "pitch": 47, "duration": 26, "velocity": 80}, {"time": 3454, "pitch": 59, "duration": 8, "velocity": 89}, {"time": 3466, "pitch": 59, "duration": 5, "velocity": 96}, {"time": 3466, "pitch": 64, "duration": 11, "velocity": 96}, {"time": 3466, "pitch": 67, "duration": 15, "velocity": 89}, {"time": 3478, "pitch": 59, "duration": 8, "velocity": 91}, {"time": 3484, "pitch": 64, "duration": 2, "velocity": 80}, {"time": 3490, "pitch": 45, "duration": 31, "velocity": 89}, {"time": 3490, "pitch": 57, "duration": 19, "velocity": 85}, {"time": 3490, "pitch": 60, "duration": 15, "velocity": 89}, {"time": 3502, "pitch": 52, "duration": 14, "velocity": 83}, {"time": 3514, "pitch": 57, "duration": 6, "velocity": 92}, {"time": 3514, "pitch": 60, "duration": 8, "velocity": 95}, {"time": 3514, "pitch": 64, "duration": 8, "velocity": 95}, {"time": 3520, "pitch": 52, "duration": 3, "velocity": 86}, {"time": 3526, "pitch": 57, "duration": 11, "velocity": 91}, {"time": 3532, "pitch": 60, "duration": 7, "velocity": 93}, {"time": 3538, "pitch": 38, "duration": 26, "velocity": 93}, {"time": 3538, "pitch": 62, "duration": 9, "velocity": 89}, {"time": 3550, "pitch": 45, "duration": 14, "velocity": 80}, {"time": 3562, "pitch": 57, "duration": 6, "velocity": 85}, {"time": 3562, "pitch": 62, "duration": 13, "velocity": 91}, {"time": 3562, "pitch": 66, "duration": 12, "velocity": 90}, {"time": 3574, "pitch": 57, "duration": 2, "velocity": 91}, {"time": 3586, "pitch": 43, "duration": 44, "velocity": 90}, {"time": 3586, "pitch": 55, "duration": 13, "velocity": 87}, {"time": 3586, "pitch": 62, "duration": 20, "velocity": 89}, {"time": 3598, "pitch": 50, "duration": 14, "velocity": 83}, {"time": 3604, "pitch": 55, "duration": 4, "velocity": 90}, {"time": 3610, "pitch": 55, "duration": 8, "velocity": 94}, {"time": 3610, "pitch": 59, "duration": 13, "velocity": 91}, {"time": 3616, "pitch": 50, "duration": 15, "velocity": 90}, {"time": 3622, "pitch": 55, "duration": 3, "velocity": 93}, {"time": 3634, "pitch": 45, "duration": 43, "velocity": 84}, {"time": 3634, "pitch": 57, "duration": 15, "velocity": 82}, {"time": 3634, "pitch": 60, "duration": 15, "velocity": 85}, {"time": 3646, "pitch": 52, "duration": 13, "velocity": 87}, {"time": 3658, "pitch": 57, "duration": 7, "velocity": 89}, {"time": 3658, "pitch": 60, "duration": 12, "velocity": 92}, {"time": 3658, "pitch": 64, "duration": 14, "velocity": 91}, {"time": 3664, "pitch": 52, "duration": 15, "velocity": 85}, {"time": 3670, "pitch": 57, "duration": 8, "velocity": 89}, {"time": 3676, "pitch": 60, "duration": 5, "velocity": 77}, {"time": 3682, "pitch": 47, "duration": 35, "velocity": 94}, {"time": 3682, "pitch": 63, "duration": 11, "velocity": 84}, {"time": 3694, "pitch": 54, "duration": 21, "velocity": 91}, {"time": 3706, "pitch": 59, "duration": 6, "velocity": 89}, {"time": 3706, "pitch": 63, "duration": 10, "velocity": 95}, {"time": 3706, "pitch": 66, "duration": 12, "velocity": 90}, {"time": 3718, "pitch": 59, "duration": 7, "velocity": 90}, {"time": 3730, "pitch": 36, "duration": 13, "velocity": 89}, {"time": 3730, "pitch": 57, "duration": 8, "velocity": 88}, {"time": 3730, "pitch": 64, "duration": 6, "velocity": 91}, {"time": 3742, "pitch": 60, "duration": 7, "velocity": 87}, {"time": 3754, "pitch": 47, "duration": 8, "velocity": 93}, {"time": 3754, "pitch": 59, "duration": 9, "velocity": 90}, {"time": 3754, "pitch": 63, "duration": 8, "velocity": 96}, {"time": 3754, "pitch": 66, "duration": 9, "velocity": 89}, {"time": 3778, "pitch": 40, "duration": 43, "velocity": 94}, {"time": 3778, "pitch": 64, "duration": 14, "velocity": 85}, {"time": 3778, "pitch": 67, "duration": 14, "velocity": 81}, {"time": 3790, "pitch": 47, "duration": 16, "velocity": 89}, {"time": 3796, "pitch": 64, "duration": 2, "velocity": 82}, {"time": 3802, "pitch": 64, "duration": 11, "velocity": 96}, {"time": 3802, "pitch": 67, "duration": 12, "velocity": 93}, {"time": 3802, "pitch": 71, "duration": 15, "velocity": 95}, {"time": 3814, "pitch": 47, "duration": 9, "velocity": 80}, {"time": 3820, "pitch": 64, "duration": 3, "velocity": 85}, {"time": 3826, "pitch": 40, "duration": 5, "velocity": 92}, {"time": 3826, "pitch": 64, "duration": 19, "velocity": 89}, {"time": 3826, "pitch": 67, "duration": 18, "velocity": 81}, {"time": 3838, "pitch": 52, "duration": 33, "velocity": 90}, {"time": 3850, "pitch": 59, "duration": 22, "velocity": 72}, {"time": 3850, "pitch": 64, "duration": 8, "velocity": 81}, {"time": 3850, "pitch": 67, "duration": 22, "velocity": 78}, {"time": 3862, "pitch": 64, "duration": 11, "velocity": 82}, {"time": 3874, "pitch": 40, "duration": 35, "velocity": 85}, {"time": 3880, "pitch": 47, "duration": 28, "velocity": 68}, {"time": 3886, "pitch": 54, "duration": 6, "velocity": 76}, {"time": 3892, "pitch": 55, "duration": 12, "velocity": 86}, {"time": 3904, "pitch": 59, "duration": 3, "velocity": 86}, {"time": 3922, "pitch": 38, "duration": 35, "velocity": 86}, {"time": 3928, "pitch": 45, "duration": 27, "velocity": 70}, {"time": 3934, "pitch": 54, "duration": 8, "velocity": 71}, {"time": 3940, "pitch": 57, "duration": 14, "velocity": 79}, {"time": 3952, "pitch": 62, "duration": 14, "velocity": 86}, {"time": 3970, "pitch": 45, "duration": 36, "velocity": 85}, {"time": 3976, "pitch": 52, "duration": 29, "velocity": 74}, {"time": 3982, "pitch": 57, "duration": 2, "velocity": 78}, {"time": 3988, "pitch": 57, "duration": 4, "velocity": 85}, {"time": 3988, "pitch": 60, "duration": 4, "velocity": 85}, {"time": 4018, "pitch": 40, "duration": 39, "velocity": 87}, {"time": 4024, "pitch": 47, "duration": 32, "velocity": 73}, {"time": 4030, "pitch": 54, "duration": 6, "velocity": 80}, {"time": 4036, "pitch": 55, "duration": 18, "velocity": 80}, {"time": 4048, "pitch": 59, "duration": 16, "velocity": 76}, {"time": 4054, "pitch": 64, "duration": 24, "velocity": 87}, {"time": 4060, "pitch": 55, "duration": 7, "velocity": 79}, {"time": 4066, "pitch": 45, "duration": 46, "velocity": 86}, {"time": 4072, "pitch": 52, "duration": 40, "velocity": 76}, {"time": 4078, "pitch": 57, "duration": 7, "velocity": 72}, {"time": 4084, "pitch": 64, "duration": 4, "velocity": 85}, {"time": 4096, "pitch": 60, "duration": 4, "velocity": 77}, {"time": 4114, "pitch": 45, "duration": 33, "velocity": 84}, {"time": 4114, "pitch": 69, "duration": 12, "velocity": 84}, {"time": 4120, "pitch": 52, "duration": 28, "velocity": 71}, {"time": 4126, "pitch": 57, "duration": 2, "velocity": 75}, {"time": 4132, "pitch": 57, "duration": 5, "velocity": 82}, {"time": 4132, "pitch": 64, "duration": 5, "velocity": 84}, {"time": 4144, "pitch": 57, "duration": 2, "velocity": 83}, {"time": 4144, "pitch": 60, "duration": 2, "velocity": 88}, {"time": 4162, "pitch": 47, "duration": 39, "velocity": 85}, {"time": 4162, "pitch": 66, "duration": 11, "velocity": 87}, {"time": 4168, "pitch": 54, "duration": 31, "velocity": 70}, {"time": 4174, "pitch": 59, "duration": 3, "velocity": 79}, {"time": 4180, "pitch": 64, "duration": 5, "velocity": 85}, {"time": 4192, "pitch": 66, "duration": 1, "velocity": 85}, {"time": 4210, "pitch": 47, "duration": 34, "velocity": 86}, {"time": 4210, "pitch": 71, "duration": 13, "velocity": 86}, {"time": 4216, "pitch": 54, "duration": 26, "velocity": 76}, {"time": 4222, "pitch": 59, "duration": 11, "velocity": 84}, {"time": 4228, "pitch": 63, "duration": 7, "velocity": 95}, {"time": 4234, "pitch": 69, "duration": 7, "velocity": 89}, {"time": 4240, "pitch": 59, "duration": 4, "velocity": 86}, {"time": 4246, "pitch": 67, "duration": 6, "velocity": 78}, {"time": 4252, "pitch": 66, "duration": 5, "velocity": 89}, {"time": 4258, "pitch": 40, "duration": 35, "velocity": 85}, {"time": 4264, "pitch": 47, "duration": 28, "velocity": 68}, {"time": 4270, "pitch": 54, "duration": 6, "velocity": 76}, {"time": 4276, "pitch": 55, "duration": 12, "velocity": 86}, {"time": 4288, "pitch": 59, "duration": 3, "velocity": 86}, {"time": 4306, "pitch": 38, "duration": 35, "velocity": 86}, {"time": 4312, "pitch": 45, "duration": 27, "velocity": 70}, {"time": 4318, "pitch": 54, "duration": 8, "velocity": 71}, {"time": 4324, "pitch": 57, "duration": 14, "velocity": 79}, {"time": 4336, "pitch": 62, "duration": 14, "velocity": 86}, {"time": 4354, "pitch": 45, "duration": 36, "velocity": 85}, {"time": 4360, "pitch": 52, "duration": 29, "velocity": 74}, {"time": 4366, "pitch": 57, "duration": 2, "velocity": 78}, {"time": 4372, "pitch": 57, "duration": 4, "velocity": 85}, {"time": 4372, "pitch": 60, "duration": 4, "velocity": 85}, {"time": 4402, "pitch": 40, "duration": 39, "velocity": 87}, {"time": 4408, "pitch": 47, "duration": 32, "velocity": 73}, {"time": 4414, "pitch": 54, "duration": 6, "velocity": 80}, {"time": 4420, "pitch": 55, "duration": 18, "velocity": 80}, {"time": 4432, "pitch": 59, "duration": 16, "velocity": 76}, {"time": 4438, "pitch": 64, "duration": 24, "velocity": 87}, {"time": 4444, "pitch": 55, "duration": 7, "velocity": 79}, {"time": 4450, "pitch": 45, "duration": 46, "velocity": 86}, {"time": 4456, "pitch": 52, "duration": 40, "velocity": 76}, {"time": 4462, "pitch": 57, "duration": 7, "velocity": 72}, {"time": 4468, "pitch": 64, "duration": 4, "velocity": 85}, {"time": 4480, "pitch": 60, "duration": 4, "velocity": 77}, {"time": 4498, "pitch": 45, "duration": 33, "velocity": 84}, {"time": 4498, "pitch": 69, "duration": 12, "velocity": 84}, {"time": 4504, "pitch": 52, "duration": 28, "velocity": 71}, {"time": 4510, "pitch": 57, "duration": 2, "velocity": 75}, {"time": 4516, "pitch": 57, "duration": 5, "velocity": 82}, {"time": 4516, "pitch": 64, "duration": 5, "velocity": 84}, {"time": 4528, "pitch": 57, "duration": 2, "velocity": 83}, {"time": 4528, "pitch": 60, "duration": 2, "velocity": 88}, {"time": 4546, "pitch": 47, "duration": 39, "velocity": 85}, {"time": 4546, "pitch": 66, "duration": 11, "velocity": 87}, {"time": 4552, "pitch": 54, "duration": 31, "velocity": 70}, {"time": 4558, "pitch": 59, "duration": 3, "velocity": 79}, {"time": 4564, "pitch": 64, "duration": 5, "velocity": 85}, {"time": 4576, "pitch": 66, "duration": 1, "velocity": 85}, {"time": 4594, "pitch": 40, "duration": 83, "velocity": 86}, {"time": 4600, "pitch": 47, "duration": 77, "velocity": 79}, {"time": 4606, "pitch": 54, "duration": 2, "velocity": 77}, {"time": 4612, "pitch": 55, "duration": 7, "velocity": 88}, {"time": 4618, "pitch": 59, "duration": 6, "velocity": 86}, {"time": 4624, "pitch": 64, "duration": 2, "velocity": 84}, {"time": 4630, "pitch": 66, "duration": 2, "velocity": 86}, {"time": 4636, "pitch": 67, "duration": 2, "velocity": 80}, {"time": 4642, "pitch": 64, "duration": 15, "velocity": 86}, {"time": 4642, "pitch": 71, "duration": 14, "velocity": 89}, {"time": 4690, "pitch": 36, "duration": 35, "velocity": 89}, {"time": 4690, "pitch": 60, "duration": 13, "velocity": 90}, {"time": 4690, "pitch": 67, "duration": 13, "velocity": 88}, {"time": 4702, "pitch": 43, "duration": 22, "velocity": 72}, {"time": 4708, "pitch": 60, "duration": 9, "velocity": 98}, {"time": 4720, "pitch": 60, "duration": 6, "velocity": 96}, {"time": 4720, "pitch": 64, "duration": 6, "velocity": 100}, {"time": 4738, "pitch": 45, "duration": 33, "velocity": 90}, {"time": 4738, "pitch": 57, "duration": 8, "velocity": 85}, {"time": 4738, "pitch": 60, "duration": 12, "velocity": 85}, {"time": 4744, "pitch": 52, "duration": 27, "velocity": 82}, {"time": 4750, "pitch": 57, "duration": 3, "velocity": 83}, {"time": 4756, "pitch": 57, "duration": 15, "velocity": 92}, {"time": 4756, "pitch": 60, "duration": 15, "velocity": 96}, {"time": 4756, "pitch": 64, "duration": 11, "velocity": 92}, {"time": 4774, "pitch": 52, "duration": 2, "velocity": 90}, {"time": 4774, "pitch": 57, "duration": 2, "velocity": 85}, {"time": 4774, "pitch": 60, "duration": 6, "velocity": 88}, {"time": 4780, "pitch": 57, "duration": 5, "velocity": 85}, {"time": 4786, "pitch": 38, "duration": 37, "velocity": 94}, {"time": 4786, "pitch": 57, "duration": 5, "velocity": 81}, {"time": 4786, "pitch": 62, "duration": 13, "velocity": 89}, {"time": 4786, "pitch": 66, "duration": 17, "velocity": 82}, {"time": 4798, "pitch": 45, "duration": 26, "velocity": 73}, {"time": 4804, "pitch": 57, "duration": 3, "velocity": 89}, {"time": 4810, "pitch": 57, "duration": 10, "velocity": 93}, {"time": 4810, "pitch": 62, "duration": 7, "velocity": 95}, {"time": 4822, "pitch": 62, "duration": 6, "velocity": 90}, {"time": 4822, "pitch": 66, "duration": 6, "velocity": 87}, {"time": 4828, "pitch": 57, "duration": 2, "velocity": 82}, {"time": 4834, "pitch": 43, "duration": 36, "velocity": 88}, {"time": 4834, "pitch": 55, "duration": 8, "velocity": 88}, {"time": 4834, "pitch": 59, "duration": 12, "velocity": 86}, {"time": 4840, "pitch": 50, "duration": 20, "velocity": 77}, {"time": 4846, "pitch": 55, "duration": 9, "velocity": 84}, {"time": 4858, "pitch": 55, "duration": 7, "velocity": 92}, {"time": 4858, "pitch": 59, "duration": 12, "velocity": 91}, {"time": 4858, "pitch": 62, "duration": 12, "velocity": 92}, {"time": 4864, "pitch": 50, "duration": 6, "velocity": 84}, {"time": 4870, "pitch": 55, "duration": 9, "velocity": 93}, {"time": 4882, "pitch": 45, "duration": 35, "velocity": 90}, {"time": 4882, "pitch": 57, "duration": 11, "velocity": 86}, {"time": 4882, "pitch": 60, "duration": 12, "velocity": 89}, {"time": 4894, "pitch": 52, "duration": 14, "velocity": 87}, {"time": 4900, "pitch": 57, "duration": 3, "velocity": 77}, {"time": 4906, "pitch": 57, "duration": 7, "velocity": 89}, {"time": 4906, "pitch": 60, "duration": 12, "velocity": 92}, {"time": 4906, "pitch": 64, "duration": 11, "velocity": 93}, {"time": 4912, "pitch": 52, "duration": 6, "velocity": 85}, {"time": 4918, "pitch": 57, "duration": 9, "velocity": 90}, {"time": 4930, "pitch": 42, "duration": 24, "velocity": 86}, {"time": 4930, "pitch": 60, "duration": 14, "velocity": 89}, {"time": 4930, "pitch": 64, "duration": 14, "velocity": 90}, {"time": 4942, "pitch": 57, "duration": 5, "velocity": 78}, {"time": 4954, "pitch": 57, "duration": 4, "velocity": 93}, {"time": 4954, "pitch": 60, "duration": 7, "velocity": 96}, {"time": 4954, "pitch": 64, "duration": 9, "velocity": 100}, {"time": 4960, "pitch": 57, "duration": 7, "velocity": 82}, {"time": 4966, "pitch": 60, "duration": 6, "velocity": 85}, {"time": 4978, "pitch": 47, "duration": 40, "velocity": 90}, {"time": 4978, "pitch": 59, "duration": 13, "velocity": 90}, {"time": 4978, "pitch": 63, "duration": 10, "velocity": 89}, {"time": 4990, "pitch": 54, "duration": 15, "velocity": 83}, {"time": 4996, "pitch": 59, "duration": 3, "velocity": 89}, {"time": 5002, "pitch": 59, "duration": 8, "velocity": 94}, {"time": 5002, "pitch": 66, "duration": 13, "velocity": 87}, {"time": 5008, "pitch": 54, "duration": 10, "velocity": 83}, {"time": 5014, "pitch": 59, "duration": 9, "velocity": 95}, {"time": 5020, "pitch": 63, "duration": 4, "velocity": 85}, {"time": 5026, "pitch": 47, "duration": 32, "velocity": 91}, {"time": 5026, "pitch": 59, "duration": 6, "velocity": 92}, {"time": 5026, "pitch": 63, "duration": 7, "velocity": 89}, {"time": 5026, "pitch": 66, "duration": 9, "velocity": 84}, {"time": 5026, "pitch": 71, "duration": 7, "velocity": 90}, {"time": 5032, "pitch": 54, "duration": 14, "velocity": 78}, {"time": 5038, "pitch": 59, "duration": 3, "velocity": 91}, {"time": 5044, "pitch": 59, "duration": 8, "velocity": 92}, {"time": 5044, "pitch": 63, "duration": 8, "velocity": 94}, {"time": 5044, "pitch": 69, "duration": 9, "velocity": 89}, {"time": 5050, "pitch": 54, "duration": 7, "velocity": 90}, {"time": 5056, "pitch": 59, "duration": 4, "velocity": 96}, {"time": 5056, "pitch": 67, "duration": 8, "velocity": 85}, {"time": 5074, "pitch": 40, "duration": 33, "velocity": 91}, {"time": 5074, "pitch": 64, "duration": 5, "velocity": 87}, {"time": 5074, "pitch": 67, "duration": 6, "velocity": 84}, {"time": 5080, "pitch": 47, "duration": 26, "velocity": 80}, {"time": 5086, "pitch": 59, "duration": 8, "velocity": 89}, {"time": 5098, "pitch": 59, "duration": 5, "velocity": 96}, {"time": 5098, "pitch": 64, "duration": 11, "velocity": 96}, {"time": 5098, "pitch": 67, "duration": 15, "velocity": 89}, {"time": 5110, "pitch": 59, "duration": 8, "velocity": 91}, {"time": 5116, "pitch": 64, "duration": 2, "velocity": 80}, {"time": 5122, "pitch": 45, "duration": 31, "velocity": 89}, {"time": 5122, "pitch": 57, "duration": 19, "velocity": 85}, {"time": 5122, "pitch": 60, "duration": 15, "velocity": 89}, {"time": 5134, "pitch": 52, "duration": 14, "velocity": 83}, {"time": 5146, "pitch": 57, "duration": 6, "velocity": 92}, {"time": 5146, "pitch": 60, "duration": 8, "velocity": 95}, {"time": 5146, "pitch": 64, "duration": 8, "velocity": 95}, {"time": 5152, "pitch": 52, "duration": 3, "velocity": 86}, {"time": 5158, "pitch": 57, "duration": 11, "velocity": 91}, {"time": 5164, "pitch": 60, "duration": 7, "velocity": 93}, {"time": 5170, "pitch": 38, "duration": 26, "velocity": 93}, {"time": 5170, "pitch": 62, "duration": 9, "velocity": 89}, {"time": 5182, "pitch": 45, "duration": 14, "velocity": 80}, {"time": 5194, "pitch": 57, "duration": 6, "velocity": 85}, {"time": 5194, "pitch": 62, "duration": 13, "velocity": 91}, {"time": 5194, "pitch": 66, "duration": 12, "velocity": 90}, {"time": 5206, "pitch": 57, "duration": 2, "velocity": 91}, {"time": 5218, "pitch": 43, "duration": 44, "velocity": 90}, {"time": 5218, "pitch": 55, "duration": 13, "velocity": 87}, {"time": 5218, "pitch": 62, "duration": 20, "velocity": 89}, {"time": 5230, "pitch": 50, "duration": 14, "velocity": 83}, {"time": 5236, "pitch": 55, "duration": 4, "velocity": 90}, {"time": 5242, "pitch": 55, "duration": 8, "velocity": 94}, {"time": 5242, "pitch": 59, "duration": 13, "velocity": 91}, {"time": 5248, "pitch": 50, "duration": 15, "velocity": 90}, {"time": 5254, "pitch": 55, "duration": 3, "velocity": 93}, {"time": 5266, "pitch": 45, "duration": 40, "velocity": 85}, {"time": 5266, "pitch": 57, "duration": 5, "velocity": 80}, {"time": 5266, "pitch": 60, "duration": 12, "velocity": 82}, {"time": 5272, "pitch": 52, "duration": 35, "velocity": 81}, {"time": 5278, "pitch": 57, "duration": 8, "velocity": 82}, {"time": 5284, "pitch": 64, "duration": 5, "velocity": 85}, {"time": 5296, "pitch": 60, "duration": 9, "velocity": 85}, {"time": 5308, "pitch": 57, "duration": 3, "velocity": 82}, {"time": 5314, "pitch": 47, "duration": 37, "velocity": 85}, {"time": 5314, "pitch": 59, "duration": 13, "velocity": 89}, {"time": 5320, "pitch": 63, "duration": 14, "velocity": 80}, {"time": 5326, "pitch": 66, "duration": 12, "velocity": 88}, {"time": 5332, "pitch": 54, "duration": 17, "velocity": 84}, {"time": 5338, "pitch": 71, "duration": 13, "velocity": 86}, {"time": 5344, "pitch": 59, "duration": 7, "velocity": 91}, {"time": 5350, "pitch": 63, "duration": 2, "velocity": 88}, {"time": 5362, "pitch": 48, "duration": 13, "velocity": 86}, {"time": 5362, "pitch": 55, "duration": 4, "velocity": 84}, {"time": 5362, "pitch": 60, "duration": 12, "velocity": 85}, {"time": 5374, "pitch": 55, "duration": 6, "velocity": 84}, {"time": 5380, "pitch": 60, "duration": 4, "velocity": 77}, {"time": 5386, "pitch": 47, "duration": 21, "velocity": 85}, {"time": 5386, "pitch": 59, "duration": 12, "velocity": 84}, {"time": 5386, "pitch": 63, "duration": 16, "velocity": 87}, {"time": 5398, "pitch": 54, "duration": 6, "velocity": 78}, {"time": 5404, "pitch": 59, "duration": 3, "velocity": 86}, {"time": 5410, "pitch": 52, "duration": 41, "velocity": 83}, {"time": 5410, "pitch": 59, "duration": 3, "velocity": 84}, {"time": 5410, "pitch": 64, "duration": 7, "velocity": 85}, {"time": 5416, "pitch": 59, "duration": 8, "velocity": 79}, {"time": 5422, "pitch": 64, "duration": 2, "velocity": 63}, {"time": 5428, "pitch": 67, "duration": 8, "velocity": 84}, {"time": 5440, "pitch": 66, "duration": 4, "velocity": 85}, {"time": 5446, "pitch": 62, "duration": 8, "velocity": 80}, {"time": 5452, "pitch": 59, "duration": 36, "velocity": 79}, {"time": 5458, "pitch": 52, "duration": 32, "velocity": 84}, {"time": 5458, "pitch": 64, "duration": 31, "velocity": 81}, {"time": 5506, "pitch": 45, "duration": 40, "velocity": 85}, {"time": 5506, "pitch": 57, "duration": 5, "velocity": 80}, {"time": 5506, "pitch": 60, "duration": 12, "velocity": 82}, {"time": 5512, "pitch": 52, "duration": 35, "velocity": 81}, {"time": 5518, "pitch": 57, "duration": 8, "velocity": 82}, {"time": 5524, "pitch": 64, "duration": 5, "velocity": 85}, {"time": 5536, "pitch": 60, "duration": 9, "velocity": 85}, {"time": 5548, "pitch": 57, "duration": 3, "velocity": 82}, {"time": 5554, "pitch": 47, "duration": 37, "velocity": 85}, {"time": 5554, "pitch": 59, "duration": 13, "velocity": 89}, {"time": 5560, "pitch": 63, "duration": 14, "velocity": 80}, {"time": 5566, "pitch": 66, "duration": 12, "velocity": 88}, {"time": 5572, "pitch": 54, "duration": 17, "velocity": 84}, {"time": 5578, "pitch": 71, "duration": 13, "velocity": 86}, {"time": 5584, "pitch": 59, "duration": 7, "velocity": 91}, {"time": 5590, "pitch": 63, "duration": 2, "velocity": 88}, {"time": 5602, "pitch": 48, "duration": 13, "velocity": 86}, {"time": 5602, "pitch": 55, "duration": 4, "velocity": 84}, {"time": 5602, "pitch": 60, "duration": 12, "velocity": 85}, {"time": 5614, "pitch": 55, "duration": 6, "velocity": 84}, {"time": 5620, "pitch": 60, "duration": 4, "velocity": 77}, {"time": 5626, "pitch": 47, "duration": 21, "velocity": 85}, {"time": 5626, "pitch": 59, "duration": 12, "velocity": 84}, {"time": 5626, "pitch": 63, "duration": 16, "velocity": 87}, {"time": 5638, "pitch": 54, "duration": 6, "velocity": 78}, {"time": 5644, "pitch": 59, "duration": 3, "velocity": 86}, {"time": 5650, "pitch": 52, "duration": 41, "velocity": 83}, {"time": 5650, "pitch": 59, "duration": 3, "velocity": 84}, {"time": 5650, "pitch": 64, "duration": 7, "velocity": 85}, {"time": 5656, "pitch": 59, "duration": 8, "velocity": 79}, {"time": 5662, "pitch": 64, "duration": 2, "velocity": 63}, {"time": 5668, "pitch": 67, "duration": 8, "velocity": 84}, {"time": 5680, "pitch": 66, "duration": 4, "velocity": 85}, {"time": 5686, "pitch": 62, "duration": 8, "velocity": 80}, {"time": 5692, "pitch": 59, "duration": 36, "velocity": 79}, {"time": 5698, "pitch": 52, "duration": 32, "velocity": 84}, {"time": 5698, "pitch": 64, "duration": 31, "velocity": 81}, {"time": 5752, "pitch": 45, "duration": 42, "velocity": 84}, {"time": 5759, "pitch": 52, "duration": 30, "velocity": 66}, {"time": 5766, "pitch": 57, "duration": 20, "velocity": 68}, {"time": 5772, "pitch": 60, "duration": 17, "velocity": 77}, {"time": 5786, "pitch": 64, "duration": 22, "velocity": 81}, {"time": 5792, "pitch": 52, "duration": 11, "velocity": 52}, {"time": 5800, "pitch": 57, "duration": 7, "velocity": 62}, {"time": 5806, "pitch": 47, "duration": 45, "velocity": 80}, {"time": 5813, "pitch": 54, "duration": 34, "velocity": 71}, {"time": 5820, "pitch": 63, "duration": 36, "velocity": 85}, {"time": 5826, "pitch": 66, "duration": 31, "velocity": 83}, {"time": 5851, "pitch": 71, "duration": 15, "velocity": 85}, {"time": 5857, "pitch": 52, "duration": 41, "velocity": 86}, {"time": 5864, "pitch": 59, "duration": 32, "velocity": 69}, {"time": 5870, "pitch": 66, "duration": 8, "velocity": 71}, {"time": 5876, "pitch": 67, "duration": 42, "velocity": 74}, {"time": 5906, "pitch": 48, "duration": 45, "velocity": 84}, {"time": 5913, "pitch": 55, "duration": 24, "velocity": 69}, {"time": 5919, "pitch": 62, "duration": 8, "velocity": 72}, {"time": 5926, "pitch": 64, "duration": 7, "velocity": 84}, {"time": 5932, "pitch": 67, "duration": 17, "velocity": 86}, {"time": 5940, "pitch": 55, "duration": 8, "velocity": 71}, {"time": 5947, "pitch": 60, "duration": 9, "velocity": 73}, {"time": 5954, "pitch": 64, "duration": 2, "velocity": 73}, {"time": 5964, "pitch": 45, "duration": 48, "velocity": 80}, {"time": 5964, "pitch": 60, "duration": 15, "velocity": 73}, {"time": 5964, "pitch": 57, "duration": 10, "velocity": 68}, {"time": 5972, "pitch": 52, "duration": 38, "velocity": 64}, {"time": 5979, "pitch": 57, "duration": 9, "velocity": 71}, {"time": 5987, "pitch": 59, "duration": 9, "velocity": 81}, {"time": 5995, "pitch": 60, "duration": 10, "velocity": 85}, {"time": 6003, "pitch": 64, "duration": 10, "velocity": 77}, {"time": 6028, "pitch": 59, "duration": 10, "velocity": 70}, {"time": 6029, "pitch": 63, "duration": 17, "velocity": 66}, {"time": 6030, "pitch": 66, "duration": 14, "velocity": 66}, {"time": 6030, "pitch": 47, "duration": 58, "velocity": 67}, {"time": 6032, "pitch": 71, "duration": 12, "velocity": 77}, {"time": 6039, "pitch": 54, "duration": 26, "velocity": 67}, {"time": 6046, "pitch": 59, "duration": 17, "velocity": 73}, {"time": 6053, "pitch": 66, "duration": 11, "velocity": 84}, {"time": 6061, "pitch": 63, "duration": 21, "velocity": 89}, {"time": 6069, "pitch": 54, "duration": 19, "velocity": 71}, {"time": 6079, "pitch": 59, "duration": 62, "velocity": 84}, {"time": 6089, "pitch": 63, "duration": 53, "velocity": 78}, {"time": 6166, "pitch": 52, "duration": 39, "velocity": 85}, {"time": 6172, "pitch": 59, "duration": 33, "velocity": 68}, {"time": 6180, "pitch": 64, "duration": 14, "velocity": 80}, {"time": 6188, "pitch": 67, "duration": 14, "velocity": 80}, {"time": 6201, "pitch": 71, "duration": 9, "velocity": 78}, {"time": 6221, "pitch": 71, "duration": 21, "velocity": 79}, {"time": 6221, "pitch": 62, "duration": 6, "velocity": 74}, {"time": 6221, "pitch": 50, "duration": 43, "velocity": 75}, {"time": 6228, "pitch": 57, "duration": 35, "velocity": 68}, {"time": 6235, "pitch": 62, "duration": 7, "velocity": 67}, {"time": 6241, "pitch": 69, "duration": 9, "velocity": 80}, {"time": 6249, "pitch": 67, "duration": 22, "velocity": 82}, {"time": 6275, "pitch": 45, "duration": 36, "velocity": 77}, {"time": 6276, "pitch": 69, "duration": 15, "velocity": 78}, {"time": 6276, "pitch": 64, "duration": 8, "velocity": 69}, {"time": 6283, "pitch": 52, "duration": 28, "velocity": 66}, {"time": 6290, "pitch": 64, "duration": 19, "velocity": 75}, {"time": 6298, "pitch": 69, "duration": 23, "velocity": 73}, {"time": 6325, "pitch": 47, "duration": 26, "velocity": 77}, {"time": 6330, "pitch": 54, "duration": 18, "velocity": 65}, {"time": 6330, "pitch": 59, "duration": 31, "velocity": 72}, {"time": 6333, "pitch": 63, "duration": 27, "velocity": 72}, {"time": 6335, "pitch": 66, "duration": 24, "velocity": 72}, {"time": 6337, "pitch": 71, "duration": 22, "velocity": 70}, {"time": 6378, "pitch": 40, "duration": 106, "velocity": 79}, {"time": 6384, "pitch": 47, "duration": 99, "velocity": 69}, {"time": 6389, "pitch": 54, "duration": 4, "velocity": 69}, {"time": 6393, "pitch": 55, "duration": 4, "velocity": 73}, {"time": 6398, "pitch": 59, "duration": 3, "velocity": 75}, {"time": 6403, "pitch": 64, "duration": 3, "velocity": 82}, {"time": 6409, "pitch": 66, "duration": 4, "velocity": 79}, {"time": 6416, "pitch": 67, "duration": 10, "velocity": 72}, {"time": 6426, "pitch": 74, "duration": 4, "velocity": 74}, {"time": 6436, "pitch": 71, "duration": 3, "velocity": 67}, {"time": 6445, "pitch": 71, "duration": 4, "velocity": 54}, {"time": 6448, "pitch": 74, "duration": 2, "velocity": 66}, {"time": 6449, "pitch": 78, "duration": 3, "velocity": 71}], "annotations": [{"time": 185, "annotation": {"number": 64, "value": 127}, "group": "control_change"}, {"time": 224, "annotation": {"number": 64, "value": 0}, "group": "control_change"}, {"time": 229, "annotation": {"number": 64, "value": 127}, "group": "control_change"}, {"time": 273, "annotation": {"number": 64, "value": 0}, "group": "control_change"}, {"time": 285, "annotation": {"number": 64, "value": 127}, "group": "control_change"}, {"time": 322, "annotation": {"number": 64, "value": 0}, "group": "control_change"}, {"time": 324, "annotation": {"number": 64, "value": 127}, "group": "control_change"}, {"time": 368, "annotation": {"number": 64, "value": 0}, "group": "control_change"}, {"time": 371, "annotation": {"number": 64, "value": 127}, "group": "control_change"}, {"time": 417, "annotation": {"number": 64, "value": 0}, "group": "control_change"}, {"time": 422, "annotation": {"number": 64, "value": 127}, "group": "control_change"}, {"time": 464, "annotation": {"number": 64, "value": 0}, "group": "control_change"}, {"time": 467, "annotation": {"number": 64, "value": 127}, "group": "control_change"}, {"time": 512, "annotation": {"number": 64, "value": 0}, "group": "control_change"}, {"time": 514, "annotation": {"number": 64, "value": 127}, "group": "control_change"}, {"time": 604, "annotation": {"number": 64, "value": 0}, "group": "control_change"}, {"time": 656, "annotation": {"number": 64, "value": 0}, "group": "control_change"}, {"time": 660, "annotation": {"number": 64, "value": 127}, "group": "control_change"}, {"time": 706, "annotation": {"number": 64, "value": 0}, "group": "control_change"}, {"time": 710, "annotation": {"number": 64, "value": 127}, "group": "control_change"}, {"time": 752, "annotation": {"number": 64, "value": 0}, "group": "control_change"}, {"time": 755, "annotation": {"number": 64, "value": 127}, "group": "control_change"}, {"time": 798, "annotation": {"number": 64, "value": 0}, "group": "control_change"}, {"time": 805, "annotation": {"number": 64, "value": 127}, "group": "control_change"}, {"time": 849, "annotation": {"number": 64, "value": 0}, "group": "control_change"}, {"time": 852, "annotation": {"number": 64, "value": 127}, "group": "control_change"}, {"time": 897, "annotation": {"number": 64, "value": 0}, "group": "control_change"}, {"time": 900, "annotation": {"number": 64, "value": 127}, "group": "control_change"}, {"time": 944, "annotation": {"number": 64, "value": 0}, "group": "control_change"}, {"time": 948, "annotation": {"number": 64, "value": 127}, "group": "control_change"}, {"time": 988, "annotation": {"number": 64, "value": 0}, "group": "control_change"}, {"time": 1040, "annotation": {"number": 64, "value": 0}, "group": "control_change"}, {"time": 1044, "annotation": {"number": 64, "value": 127}, "group": "control_change"}, {"time": 1090, "annotation": {"number": 64, "value": 0}, "group": "control_change"}, {"time": 1094, "annotation": {"number": 64, "value": 127}, "group": "control_change"}, {"time": 1136, "annotation": {"number": 64, "value": 0}, "group": "control_change"}, {"time": 1139, "annotation": {"number": 64, "value": 127}, "group": "control_change"}, {"time": 1182, "annotation": {"number": 64, "value": 0}, "group": "control_change"}, {"time": 1189, "annotation": {"number": 64, "value": 127}, "group": "control_change"}, {"time": 1233, "annotation": {"number": 64, "value": 0}, "group": "control_change"}, {"time": 1236, "annotation": {"number": 64, "value": 127}, "group": "control_change"}, {"time": 1281, "annotation": {"number": 64, "value": 0}, "group": "control_change"}, {"time": 1284, "annotation": {"number": 64, "value": 127}, "group": "control_change"}, {"time": 1328, "annotation": {"number": 64, "value": 0}, "group": "control_change"}, {"time": 1335, "annotation": {"number": 64, "value": 127}, "group": "control_change"}, {"time": 1335, "annotation": {"number": 64, "value": 0}, "group": "control_change"}, {"time": 1376, "annotation": {"number": 64, "value": 0}, "group": "control_change"}, {"time": 1377, "annotation": {"number": 64, "value": 127}, "group": "control_change"}, {"time": 1422, "annotation": {"number": 64, "value": 0}, "group": "control_change"}, {"time": 1426, "annotation": {"number": 64, "value": 127}, "group": "control_change"}, {"time": 1471, "annotation": {"number": 64, "value": 0}, "group": "control_change"}, {"time": 1475, "annotation": {"number": 64, "value": 127}, "group": "control_change"}, {"time": 1519, "annotation": {"number": 64, "value": 0}, "group": "control_change"}, {"time": 1522, "annotation": {"number": 64, "value": 127}, "group": "control_change"}, {"time": 1570, "annotation": {"number": 64, "value": 0}, "group": "control_change"}, {"time": 1574, "annotation": {"number": 64, "value": 127}, "group": "control_change"}, {"time": 1615, "annotation": {"number": 64, "value": 0}, "group": "control_change"}, {"time": 1623, "annotation": {"number": 64, "value": 127}, "group": "control_change"}, {"time": 1665, "annotation": {"number": 64, "value": 0}, "group": "control_change"}, {"time": 1667, "annotation": {"number": 64, "value": 127}, "group": "control_change"}, {"time": 1711, "annotation": {"number": 64, "value": 0}, "group": "control_change"}, {"time": 1716, "annotation": {"number": 64, "value": 127}, "group": "control_change"}, {"time": 1761, "annotation": {"number": 64, "value": 0}, "group": "control_change"}, {"time": 1763, "annotation": {"number": 64, "value": 127}, "group": "control_change"}, {"time": 1808, "annotation": {"number": 64, "value": 0}, "group": "control_change"}, {"time": 1811, "annotation": {"number": 64, "value": 127}, "group": "control_change"}, {"time": 1857, "annotation": {"number": 64, "value": 0}, "group": "control_change"}, {"time": 1867, "annotation": {"number": 64, "value": 127}, "group": "control_change"}, {"time": 1904, "annotation": {"number": 64, "value": 0}, "group": "control_change"}, {"time": 1908, "annotation": {"number": 64, "value": 127}, "group": "control_change"}, {"time": 1954, "annotation": {"number": 64, "value": 0}, "group": "control_change"}, {"time": 1959, "annotation": {"number": 64, "value": 127}, "group": "control_change"}, {"time": 1999, "annotation": {"number": 64, "value": 0}, "group": "control_change"}, {"time": 2007, "annotation": {"number": 64, "value": 127}, "group": "control_change"}, {"time": 2047, "annotation": {"number": 64, "value": 0}, "group": "control_change"}, {"time": 2051, "annotation": {"number": 64, "value": 127}, "group": "control_change"}, {"time": 2096, "annotation": {"number": 64, "value": 0}, "group": "control_change"}, {"time": 2099, "annotation": {"number": 64, "value": 127}, "group": "control_change"}, {"time": 2119, "annotation": {"number": 64, "value": 0}, "group": "control_change"}, {"time": 2123, "annotation": {"number": 64, "value": 127}, "group": "control_change"}, {"time": 2144, "annotation": {"number": 64, "value": 0}, "group": "control_change"}, {"time": 2147, "annotation": {"number": 64, "value": 127}, "group": "control_change"}, {"time": 2192, "annotation": {"number": 64, "value": 0}, "group": "control_change"}, {"time": 2194, "annotation": {"number": 64, "value": 127}, "group": "control_change"}, {"time": 2241, "annotation": {"number": 64, "value": 0}, "group": "control_change"}, {"time": 2288, "annotation": {"number": 64, "value": 0}, "group": "control_change"}, {"time": 2292, "annotation": {"number": 64, "value": 127}, "group": "control_change"}, {"time": 2338, "annotation": {"number": 64, "value": 0}, "group": "control_change"}, {"time": 2342, "annotation": {"number": 64, "value": 127}, "group": "control_change"}, {"time": 2384, "annotation": {"number": 64, "value": 0}, "group": "control_change"}, {"time": 2387, "annotation": {"number": 64, "value": 127}, "group": "control_change"}, {"time": 2430, "annotation": {"number": 64, "value": 0}, "group": "control_change"}, {"time": 2437, "annotation": {"number": 64, "value": 127}, "group": "control_change"}, {"time": 2481, "annotation": {"number": 64, "value": 0}, "group": "control_change"}, {"time": 2484, "annotation": {"number": 64, "value": 127}, "group": "control_change"}, {"time": 2529, "annotation": {"number": 64, "value": 0}, "group": "control_change"}, {"time": 2532, "annotation": {"number": 64, "value": 127}, "group": "control_change"}, {"time": 2576, "annotation": {"number": 64, "value": 0}, "group": "control_change"}, {"time": 2580, "annotation": {"number": 64, "value": 127}, "group": "control_change"}, {"time": 2620, "annotation": {"number": 64, "value": 0}, "group": "control_change"}, {"time": 2672, "annotation": {"number": 64, "value": 0}, "group": "control_change"}, {"time": 2676, "annotation": {"number": 64, "value": 127}, "group": "control_change"}, {"time": 2722, "annotation": {"number": 64, "value": 0}, "group": "control_change"}, {"time": 2726, "annotation": {"number": 64, "value": 127}, "group": "control_change"}, {"time": 2768, "annotation": {"number": 64, "value": 0}, "group": "control_change"}, {"time": 2771, "annotation": {"number": 64, "value": 127}, "group": "control_change"}, {"time": 2814, "annotation": {"number": 64, "value": 0}, "group": "control_change"}, {"time": 2821, "annotation": {"number": 64, "value": 127}, "group": "control_change"}, {"time": 2865, "annotation": {"number": 64, "value": 0}, "group": "control_change"}, {"time": 2868, "annotation": {"number": 64, "value": 127}, "group": "control_change"}, {"time": 2913, "annotation": {"number": 64, "value": 0}, "group": "control_change"}, {"time": 2916, "annotation": {"number": 64, "value": 127}, "group": "control_change"}, {"time": 2960, "annotation": {"number": 64, "value": 0}, "group": "control_change"}, {"time": 2967, "annotation": {"number": 64, "value": 127}, "group": "control_change"}, {"time": 2967, "annotation": {"number": 64, "value": 0}, "group": "control_change"}, {"time": 3008, "annotation": {"number": 64, "value": 0}, "group": "control_change"}, {"time": 3009, "annotation": {"number": 64, "value": 127}, "group": "control_change"}, {"time": 3054, "annotation": {"number": 64, "value": 0}, "group": "control_change"}, {"time": 3058, "annotation": {"number": 64, "value": 127}, "group": "control_change"}, {"time": 3058, "annotation": {"number": 64, "value": 0}, "group": "control_change"}, {"time": 3104, "annotation": {"number": 64, "value": 0}, "group": "control_change"}, {"time": 3112, "annotation": {"number": 64, "value": 127}, "group": "control_change"}, {"time": 3151, "annotation": {"number": 64, "value": 0}, "group": "control_change"}, {"time": 3155, "annotation": {"number": 64, "value": 127}, "group": "control_change"}, {"time": 3201, "annotation": {"number": 64, "value": 0}, "group": "control_change"}, {"time": 3207, "annotation": {"number": 64, "value": 127}, "group": "control_change"}, {"time": 3249, "annotation": {"number": 64, "value": 0}, "group": "control_change"}, {"time": 3254, "annotation": {"number": 64, "value": 127}, "group": "control_change"}, {"time": 3296, "annotation": {"number": 64, "value": 0}, "group": "control_change"}, {"time": 3299, "annotation": {"number": 64, "value": 127}, "group": "control_change"}, {"time": 3345, "annotation": {"number": 64, "value": 0}, "group": "control_change"}, {"time": 3352, "annotation": {"number": 64, "value": 127}, "group": "control_change"}, {"time": 3392, "annotation": {"number": 64, "value": 0}, "group": "control_change"}, {"time": 3396, "annotation": {"number": 64, "value": 127}, "group": "control_change"}, {"time": 3439, "annotation": {"number": 64, "value": 0}, "group": "control_change"}, {"time": 3445, "annotation": {"number": 64, "value": 127}, "group": "control_change"}, {"time": 3491, "annotation": {"number": 64, "value": 0}, "group": "control_change"}, {"time": 3501, "annotation": {"number": 64, "value": 127}, "group": "control_change"}, {"time": 3533, "annotation": {"number": 64, "value": 0}, "group": "control_change"}, {"time": 3540, "annotation": {"number": 64, "value": 127}, "group": "control_change"}, {"time": 3581, "annotation": {"number": 64, "value": 0}, "group": "control_change"}, {"time": 3593, "annotation": {"number": 64, "value": 127}, "group": "control_change"}, {"time": 3632, "annotation": {"number": 64, "value": 0}, "group": "control_change"}, {"time": 3638, "annotation": {"number": 64, "value": 127}, "group": "control_change"}, {"time": 3679, "annotation": {"number": 64, "value": 0}, "group": "control_change"}, {"time": 3684, "annotation": {"number": 64, "value": 127}, "group": "control_change"}, {"time": 3729, "annotation": {"number": 64, "value": 0}, "group": "control_change"}, {"time": 3733, "annotation": {"number": 64, "value": 127}, "group": "control_change"}, {"time": 3750, "annotation": {"number": 64, "value": 0}, "group": "control_change"}, {"time": 3755, "annotation": {"number": 64, "value": 127}, "group": "control_change"}, {"time": 3778, "annotation": {"number": 64, "value": 0}, "group": "control_change"}, {"time": 3783, "annotation": {"number": 64, "value": 127}, "group": "control_change"}, {"time": 3824, "annotation": {"number": 64, "value": 0}, "group": "control_change"}, {"time": 3828, "annotation": {"number": 64, "value": 127}, "group": "control_change"}, {"time": 3871, "annotation": {"number": 64, "value": 0}, "group": "control_change"}, {"time": 3920, "annotation": {"number": 64, "value": 0}, "group": "control_change"}, {"time": 3924, "annotation": {"number": 64, "value": 127}, "group": "control_change"}, {"time": 3970, "annotation": {"number": 64, "value": 0}, "group": "control_change"}, {"time": 3974, "annotation": {"number": 64, "value": 127}, "group": "control_change"}, {"time": 4016, "annotation": {"number": 64, "value": 0}, "group": "control_change"}, {"time": 4019, "annotation": {"number": 64, "value": 127}, "group": "control_change"}, {"time": 4062, "annotation": {"number": 64, "value": 0}, "group": "control_change"}, {"time": 4069, "annotation": {"number": 64, "value": 127}, "group": "control_change"}, {"time": 4113, "annotation": {"number": 64, "value": 0}, "group": "control_change"}, {"time": 4116, "annotation": {"number": 64, "value": 127}, "group": "control_change"}, {"time": 4161, "annotation": {"number": 64, "value": 0}, "group": "control_change"}, {"time": 4164, "annotation": {"number": 64, "value": 127}, "group": "control_change"}, {"time": 4208, "annotation": {"number": 64, "value": 0}, "group": "control_change"}, {"time": 4212, "annotation": {"number": 64, "value": 127}, "group": "control_change"}, {"time": 4252, "annotation": {"number": 64, "value": 0}, "group": "control_change"}, {"time": 4304, "annotation": {"number": 64, "value": 0}, "group": "control_change"}, {"time": 4308, "annotation": {"number": 64, "value": 127}, "group": "control_change"}, {"time": 4354, "annotation": {"number": 64, "value": 0}, "group": "control_change"}, {"time": 4358, "annotation": {"number": 64, "value": 127}, "group": "control_change"}, {"time": 4400, "annotation": {"number": 64, "value": 0}, "group": "control_change"}, {"time": 4403, "annotation": {"number": 64, "value": 127}, "group": "control_change"}, {"time": 4446, "annotation": {"number": 64, "value": 0}, "group": "control_change"}, {"time": 4453, "annotation": {"number": 64, "value": 127}, "group": "control_change"}, {"time": 4497, "annotation": {"number": 64, "value": 0}, "group": "control_change"}, {"time": 4500, "annotation": {"number": 64, "value": 127}, "group": "control_change"}, {"time": 4545, "annotation": {"number": 64, "value": 0}, "group": "control_change"}, {"time": 4548, "annotation": {"number": 64, "value": 127}, "group": "control_change"}, {"time": 4592, "annotation": {"number": 64, "value": 0}, "group": "control_change"}, {"time": 4599, "annotation": {"number": 64, "value": 127}, "group": "control_change"}, {"time": 4599, "annotation": {"number": 64, "value": 0}, "group": "control_change"}, {"time": 4640, "annotation": {"number": 64, "value": 0}, "group": "control_change"}, {"time": 4641, "annotation": {"number": 64, "value": 127}, "group": "control_change"}, {"time": 4686, "annotation": {"number": 64, "value": 0}, "group": "control_change"}, {"time": 4690, "annotation": {"number": 64, "value": 127}, "group": "control_change"}, {"time": 4690, "annotation": {"number": 64, "value": 0}, "group": "control_change"}, {"time": 4736, "annotation": {"number": 64, "value": 0}, "group": "control_change"}, {"time": 4744, "annotation": {"number": 64, "value": 127}, "group": "control_change"}, {"time": 4783, "annotation": {"number": 64, "value": 0}, "group": "control_change"}, {"time": 4787, "annotation": {"number": 64, "value": 127}, "group": "control_change"}, {"time": 4833, "annotation": {"number": 64, "value": 0}, "group": "control_change"}, {"time": 4839, "annotation": {"number": 64, "value": 127}, "group": "control_change"}, {"time": 4881, "annotation": {"number": 64, "value": 0}, "group": "control_change"}, {"time": 4886, "annotation": {"number": 64, "value": 127}, "group": "control_change"}, {"time": 4928, "annotation": {"number": 64, "value": 0}, "group": "control_change"}, {"time": 4931, "annotation": {"number": 64, "value": 127}, "group": "control_change"}, {"time": 4977, "annotation": {"number": 64, "value": 0}, "group": "control_change"}, {"time": 4984, "annotation": {"number": 64, "value": 127}, "group": "control_change"}, {"time": 5024, "annotation": {"number": 64, "value": 0}, "group": "control_change"}, {"time": 5028, "annotation": {"number": 64, "value": 127}, "group": "control_change"}, {"time": 5071, "annotation": {"number": 64, "value": 0}, "group": "control_change"}, {"time": 5077, "annotation": {"number": 64, "value": 127}, "group": "control_change"}, {"time": 5123, "annotation": {"number": 64, "value": 0}, "group": "control_change"}, {"time": 5133, "annotation": {"number": 64, "value": 127}, "group": "control_change"}, {"time": 5165, "annotation": {"number": 64, "value": 0}, "group": "control_change"}, {"time": 5172, "annotation": {"number": 64, "value": 127}, "group": "control_change"}, {"time": 5213, "annotation": {"number": 64, "value": 0}, "group": "control_change"}, {"time": 5225, "annotation": {"number": 64, "value": 127}, "group": "control_change"}, {"time": 5264, "annotation": {"number": 64, "value": 0}, "group": "control_change"}, {"time": 5271, "annotation": {"number": 64, "value": 127}, "group": "control_change"}, {"time": 5311, "annotation": {"number": 64, "value": 0}, "group": "control_change"}, {"time": 5315, "annotation": {"number": 64, "value": 127}, "group": "control_change"}, {"time": 5360, "annotation": {"number": 64, "value": 0}, "group": "control_change"}, {"time": 5363, "annotation": {"number": 64, "value": 127}, "group": "control_change"}, {"time": 5383, "annotation": {"number": 64, "value": 0}, "group": "control_change"}, {"time": 5387, "annotation": {"number": 64, "value": 127}, "group": "control_change"}, {"time": 5408, "annotation": {"number": 64, "value": 0}, "group": "control_change"}, {"time": 5411, "annotation": {"number": 64, "value": 127}, "group": "control_change"}, {"time": 5456, "annotation": {"number": 64, "value": 0}, "group": "control_change"}, {"time": 5458, "annotation": {"number": 64, "value": 127}, "group": "control_change"}, {"time": 5505, "annotation": {"number": 64, "value": 0}, "group": "control_change"}, {"time": 5511, "annotation": {"number": 64, "value": 127}, "group": "control_change"}, {"time": 5551, "annotation": {"number": 64, "value": 0}, "group": "control_change"}, {"time": 5555, "annotation": {"number": 64, "value": 127}, "group": "control_change"}, {"time": 5600, "annotation": {"number": 64, "value": 0}, "group": "control_change"}, {"time": 5603, "annotation": {"number": 64, "value": 127}, "group": "control_change"}, {"time": 5623, "annotation": {"number": 64, "value": 0}, "group": "control_change"}, {"time": 5627, "annotation": {"number": 64, "value": 127}, "group": "control_change"}, {"time": 5648, "annotation": {"number": 64, "value": 0}, "group": "control_change"}, {"time": 5651, "annotation": {"number": 64, "value": 127}, "group": "control_change"}, {"time": 5696, "annotation": {"number": 64, "value": 0}, "group": "control_change"}, {"time": 5698, "annotation": {"number": 64, "value": 127}, "group": "control_change"}, {"time": 5745, "annotation": {"number": 64, "value": 0}, "group": "control_change"}, {"time": 5756, "annotation": {"number": 64, "value": 127}, "group": "control_change"}, {"time": 5806, "annotation": {"number": 64, "value": 0}, "group": "control_change"}, {"time": 5810, "annotation": {"number": 64, "value": 127}, "group": "control_change"}, {"time": 5857, "annotation": {"number": 64, "value": 0}, "group": "control_change"}, {"time": 5860, "annotation": {"number": 64, "value": 127}, "group": "control_change"}, {"time": 5860, "annotation": {"number": 64, "value": 0}, "group": "control_change"}, {"time": 5861, "annotation": {"number": 64, "value": 127}, "group": "control_change"}, {"time": 5906, "annotation": {"number": 64, "value": 0}, "group": "control_change"}, {"time": 5910, "annotation": {"number": 64, "value": 127}, "group": "control_change"}, {"time": 5965, "annotation": {"number": 64, "value": 0}, "group": "control_change"}, {"time": 5969, "annotation": {"number": 64, "value": 127}, "group": "control_change"}, {"time": 6028, "annotation": {"number": 64, "value": 0}, "group": "control_change"}, {"time": 6032, "annotation": {"number": 64, "value": 127}, "group": "control_change"}, {"time": 6167, "annotation": {"number": 64, "value": 0}, "group": "control_change"}, {"time": 6181, "annotation": {"number": 64, "value": 127}, "group": "control_change"}, {"time": 6220, "annotation": {"number": 64, "value": 0}, "group": "control_change"}, {"time": 6224, "annotation": {"number": 64, "value": 127}, "group": "control_change"}, {"time": 6276, "annotation": {"number": 64, "value": 0}, "group": "control_change"}, {"time": 6280, "annotation": {"number": 64, "value": 127}, "group": "control_change"}, {"time": 6338, "annotation": {"number": 64, "value": 0}, "group": "control_change"}, {"time": 6341, "annotation": {"number": 64, "value": 127}, "group": "control_change"}, {"time": 6380, "annotation": {"number": 64, "value": 0}, "group": "control_change"}, {"time": 6384, "annotation": {"number": 64, "value": 127}, "group": "control_change"}, {"time": 6516, "annotation": {"number": 64, "value": 0}, "group": "control_change"}]}]}