{"metadata": {"schema_version": "0.2", "title": "None", "source_filename": "668.mid", "source_format": "midi"}, "resolution": 12, "tempos": [{"time": 0, "qpm": 122.00031720082472}], "time_signatures": [{"time": 0, "numerator": 1, "denominator": 4}], "tracks": [{"program": 4, "is_drum": false, "name": "MELODY", "notes": [{"time": 724, "pitch": 75, "duration": 8, "velocity": 88}, {"time": 736, "pitch": 75, "duration": 9, "velocity": 88}, {"time": 748, "pitch": 75, "duration": 19, "velocity": 83}, {"time": 772, "pitch": 75, "duration": 5, "velocity": 93}, {"time": 778, "pitch": 73, "duration": 3, "velocity": 78}, {"time": 784, "pitch": 73, "duration": 5, "velocity": 79}, {"time": 790, "pitch": 70, "duration": 20, "velocity": 81}, {"time": 820, "pitch": 70, "duration": 3, "velocity": 83}, {"time": 826, "pitch": 70, "duration": 3, "velocity": 79}, {"time": 832, "pitch": 70, "duration": 3, "velocity": 82}, {"time": 838, "pitch": 70, "duration": 10, "velocity": 84}, {"time": 850, "pitch": 70, "duration": 3, "velocity": 78}, {"time": 856, "pitch": 70, "duration": 3, "velocity": 79}, {"time": 862, "pitch": 73, "duration": 4, "velocity": 80}, {"time": 868, "pitch": 73, "duration": 15, "velocity": 79}, {"time": 886, "pitch": 68, "duration": 25, "velocity": 81}, {"time": 916, "pitch": 75, "duration": 8, "velocity": 88}, {"time": 928, "pitch": 75, "duration": 9, "velocity": 88}, {"time": 940, "pitch": 75, "duration": 15, "velocity": 93}, {"time": 958, "pitch": 73, "duration": 4, "velocity": 82}, {"time": 964, "pitch": 75, "duration": 4, "velocity": 91}, {"time": 970, "pitch": 73, "duration": 11, "velocity": 88}, {"time": 982, "pitch": 70, "duration": 23, "velocity": 83}, {"time": 1012, "pitch": 70, "duration": 3, "velocity": 81}, {"time": 1018, "pitch": 70, "duration": 4, "velocity": 82}, {"time": 1024, "pitch": 70, "duration": 4, "velocity": 79}, {"time": 1030, "pitch": 70, "duration": 4, "velocity": 81}, {"time": 1036, "pitch": 70, "duration": 8, "velocity": 82}, {"time": 1048, "pitch": 70, "duration": 3, "velocity": 84}, {"time": 1054, "pitch": 73, "duration": 4, "velocity": 81}, {"time": 1060, "pitch": 78, "duration": 16, "velocity": 93}, {"time": 1078, "pitch": 77, "duration": 23, "velocity": 81}, {"time": 1108, "pitch": 78, "duration": 6, "velocity": 88}, {"time": 1114, "pitch": 75, "duration": 6, "velocity": 88}, {"time": 1126, "pitch": 75, "duration": 18, "velocity": 83}, {"time": 1150, "pitch": 73, "duration": 3, "velocity": 78}, {"time": 1156, "pitch": 75, "duration": 5, "velocity": 93}, {"time": 1162, "pitch": 73, "duration": 12, "velocity": 79}, {"time": 1174, "pitch": 70, "duration": 20, "velocity": 81}, {"time": 1204, "pitch": 70, "duration": 3, "velocity": 83}, {"time": 1210, "pitch": 70, "duration": 3, "velocity": 79}, {"time": 1216, "pitch": 70, "duration": 3, "velocity": 82}, {"time": 1222, "pitch": 70, "duration": 6, "velocity": 84}, {"time": 1228, "pitch": 70, "duration": 6, "velocity": 78}, {"time": 1240, "pitch": 70, "duration": 3, "velocity": 79}, {"time": 1246, "pitch": 73, "duration": 4, "velocity": 80}, {"time": 1252, "pitch": 73, "duration": 15, "velocity": 79}, {"time": 1270, "pitch": 68, "duration": 25, "velocity": 81}, {"time": 1300, "pitch": 75, "duration": 8, "velocity": 88}, {"time": 1312, "pitch": 75, "duration": 9, "velocity": 88}, {"time": 1324, "pitch": 75, "duration": 15, "velocity": 93}, {"time": 1348, "pitch": 75, "duration": 4, "velocity": 91}, {"time": 1354, "pitch": 78, "duration": 11, "velocity": 88}, {"time": 1366, "pitch": 75, "duration": 23, "velocity": 83}, {"time": 1396, "pitch": 73, "duration": 3, "velocity": 81}, {"time": 1402, "pitch": 73, "duration": 4, "velocity": 82}, {"time": 1408, "pitch": 73, "duration": 4, "velocity": 79}, {"time": 1414, "pitch": 73, "duration": 4, "velocity": 81}, {"time": 1420, "pitch": 73, "duration": 8, "velocity": 82}, {"time": 1432, "pitch": 73, "duration": 3, "velocity": 84}, {"time": 1444, "pitch": 73, "duration": 4, "velocity": 81}, {"time": 1450, "pitch": 78, "duration": 12, "velocity": 93}, {"time": 1462, "pitch": 77, "duration": 23, "velocity": 81}, {"time": 1504, "pitch": 68, "duration": 5, "velocity": 78}, {"time": 1510, "pitch": 68, "duration": 4, "velocity": 78}, {"time": 1516, "pitch": 72, "duration": 9, "velocity": 83}, {"time": 1528, "pitch": 72, "duration": 4, "velocity": 78}, {"time": 1534, "pitch": 72, "duration": 5, "velocity": 83}, {"time": 1540, "pitch": 75, "duration": 9, "velocity": 86}, {"time": 1552, "pitch": 75, "duration": 3, "velocity": 88}, {"time": 1558, "pitch": 75, "duration": 4, "velocity": 91}, {"time": 1564, "pitch": 78, "duration": 10, "velocity": 80}, {"time": 1576, "pitch": 75, "duration": 3, "velocity": 93}, {"time": 1582, "pitch": 78, "duration": 17, "velocity": 81}, {"time": 1600, "pitch": 75, "duration": 9, "velocity": 94}, {"time": 1612, "pitch": 78, "duration": 14, "velocity": 79}, {"time": 1624, "pitch": 75, "duration": 5, "velocity": 93}, {"time": 1630, "pitch": 80, "duration": 9, "velocity": 81}, {"time": 1642, "pitch": 80, "duration": 4, "velocity": 83}, {"time": 1648, "pitch": 78, "duration": 4, "velocity": 83}, {"time": 1654, "pitch": 77, "duration": 5, "velocity": 84}, {"time": 1660, "pitch": 75, "duration": 25, "velocity": 88}, {"time": 1697, "pitch": 68, "duration": 2, "velocity": 78}, {"time": 1702, "pitch": 68, "duration": 4, "velocity": 79}, {"time": 1708, "pitch": 72, "duration": 9, "velocity": 79}, {"time": 1720, "pitch": 72, "duration": 3, "velocity": 82}, {"time": 1726, "pitch": 72, "duration": 4, "velocity": 84}, {"time": 1732, "pitch": 75, "duration": 8, "velocity": 91}, {"time": 1744, "pitch": 75, "duration": 3, "velocity": 88}, {"time": 1750, "pitch": 75, "duration": 4, "velocity": 93}, {"time": 1756, "pitch": 78, "duration": 10, "velocity": 86}, {"time": 1768, "pitch": 75, "duration": 4, "velocity": 98}, {"time": 1774, "pitch": 78, "duration": 15, "velocity": 82}, {"time": 1792, "pitch": 75, "duration": 9, "velocity": 98}, {"time": 1804, "pitch": 78, "duration": 5, "velocity": 82}, {"time": 1810, "pitch": 80, "duration": 4, "velocity": 79}, {"time": 1816, "pitch": 78, "duration": 4, "velocity": 86}, {"time": 1822, "pitch": 82, "duration": 48, "velocity": 82}, {"time": 1877, "pitch": 78, "duration": 10, "velocity": 79}, {"time": 1888, "pitch": 75, "duration": 9, "velocity": 88}, {"time": 1900, "pitch": 78, "duration": 14, "velocity": 82}, {"time": 1918, "pitch": 75, "duration": 4, "velocity": 86}, {"time": 1924, "pitch": 78, "duration": 6, "velocity": 88}, {"time": 1930, "pitch": 75, "duration": 3, "velocity": 83}, {"time": 1936, "pitch": 75, "duration": 4, "velocity": 82}, {"time": 1942, "pitch": 75, "duration": 13, "velocity": 93}, {"time": 1954, "pitch": 75, "duration": 1, "velocity": 113}, {"time": 1960, "pitch": 75, "duration": 3, "velocity": 93}, {"time": 1966, "pitch": 75, "duration": 3, "velocity": 93}, {"time": 1972, "pitch": 82, "duration": 10, "velocity": 86}, {"time": 1984, "pitch": 80, "duration": 3, "velocity": 83}, {"time": 1990, "pitch": 78, "duration": 12, "velocity": 86}, {"time": 2020, "pitch": 80, "duration": 9, "velocity": 82}, {"time": 2032, "pitch": 78, "duration": 4, "velocity": 79}, {"time": 2038, "pitch": 77, "duration": 26, "velocity": 88}, {"time": 2068, "pitch": 78, "duration": 11, "velocity": 83}, {"time": 2080, "pitch": 75, "duration": 9, "velocity": 91}, {"time": 2092, "pitch": 78, "duration": 11, "velocity": 81}, {"time": 2104, "pitch": 75, "duration": 3, "velocity": 86}, {"time": 2110, "pitch": 75, "duration": 3, "velocity": 88}, {"time": 2116, "pitch": 78, "duration": 5, "velocity": 82}, {"time": 2122, "pitch": 75, "duration": 3, "velocity": 93}, {"time": 2128, "pitch": 75, "duration": 3, "velocity": 86}, {"time": 2134, "pitch": 75, "duration": 6, "velocity": 94}, {"time": 2146, "pitch": 75, "duration": 3, "velocity": 93}, {"time": 2152, "pitch": 75, "duration": 3, "velocity": 91}, {"time": 2158, "pitch": 75, "duration": 3, "velocity": 94}, {"time": 2164, "pitch": 82, "duration": 16, "velocity": 84}, {"time": 2182, "pitch": 78, "duration": 20, "velocity": 84}, {"time": 2212, "pitch": 80, "duration": 15, "velocity": 86}, {"time": 2230, "pitch": 77, "duration": 15, "velocity": 83}, {"time": 2261, "pitch": 78, "duration": 10, "velocity": 79}, {"time": 2272, "pitch": 75, "duration": 9, "velocity": 88}, {"time": 2284, "pitch": 78, "duration": 14, "velocity": 82}, {"time": 2302, "pitch": 75, "duration": 4, "velocity": 86}, {"time": 2308, "pitch": 78, "duration": 6, "velocity": 88}, {"time": 2314, "pitch": 75, "duration": 3, "velocity": 83}, {"time": 2320, "pitch": 75, "duration": 4, "velocity": 82}, {"time": 2326, "pitch": 75, "duration": 13, "velocity": 93}, {"time": 2338, "pitch": 75, "duration": 1, "velocity": 113}, {"time": 2344, "pitch": 75, "duration": 3, "velocity": 93}, {"time": 2350, "pitch": 75, "duration": 3, "velocity": 93}, {"time": 2356, "pitch": 82, "duration": 10, "velocity": 86}, {"time": 2368, "pitch": 80, "duration": 3, "velocity": 83}, {"time": 2374, "pitch": 78, "duration": 12, "velocity": 86}, {"time": 2404, "pitch": 80, "duration": 9, "velocity": 82}, {"time": 2416, "pitch": 78, "duration": 4, "velocity": 79}, {"time": 2422, "pitch": 77, "duration": 26, "velocity": 88}, {"time": 2452, "pitch": 78, "duration": 11, "velocity": 83}, {"time": 2464, "pitch": 75, "duration": 9, "velocity": 91}, {"time": 2476, "pitch": 78, "duration": 11, "velocity": 81}, {"time": 2488, "pitch": 75, "duration": 3, "velocity": 86}, {"time": 2494, "pitch": 75, "duration": 3, "velocity": 88}, {"time": 2500, "pitch": 78, "duration": 5, "velocity": 82}, {"time": 2506, "pitch": 75, "duration": 3, "velocity": 93}, {"time": 2512, "pitch": 75, "duration": 3, "velocity": 86}, {"time": 2518, "pitch": 75, "duration": 6, "velocity": 94}, {"time": 2530, "pitch": 75, "duration": 3, "velocity": 93}, {"time": 2536, "pitch": 75, "duration": 3, "velocity": 91}, {"time": 2542, "pitch": 75, "duration": 3, "velocity": 94}, {"time": 2548, "pitch": 82, "duration": 16, "velocity": 84}, {"time": 2566, "pitch": 78, "duration": 20, "velocity": 84}, {"time": 2596, "pitch": 80, "duration": 15, "velocity": 86}, {"time": 2614, "pitch": 77, "duration": 15, "velocity": 83}, {"time": 2644, "pitch": 78, "duration": 39, "velocity": 97}, {"time": 3076, "pitch": 78, "duration": 6, "velocity": 88}, {"time": 3082, "pitch": 75, "duration": 6, "velocity": 88}, {"time": 3094, "pitch": 75, "duration": 18, "velocity": 83}, {"time": 3118, "pitch": 73, "duration": 3, "velocity": 78}, {"time": 3124, "pitch": 75, "duration": 5, "velocity": 93}, {"time": 3130, "pitch": 73, "duration": 12, "velocity": 79}, {"time": 3142, "pitch": 70, "duration": 20, "velocity": 81}, {"time": 3172, "pitch": 70, "duration": 3, "velocity": 83}, {"time": 3178, "pitch": 70, "duration": 3, "velocity": 79}, {"time": 3184, "pitch": 70, "duration": 3, "velocity": 82}, {"time": 3190, "pitch": 70, "duration": 6, "velocity": 84}, {"time": 3196, "pitch": 70, "duration": 6, "velocity": 78}, {"time": 3208, "pitch": 70, "duration": 3, "velocity": 79}, {"time": 3214, "pitch": 73, "duration": 4, "velocity": 80}, {"time": 3220, "pitch": 73, "duration": 15, "velocity": 79}, {"time": 3238, "pitch": 68, "duration": 25, "velocity": 81}, {"time": 3268, "pitch": 75, "duration": 8, "velocity": 88}, {"time": 3280, "pitch": 75, "duration": 9, "velocity": 88}, {"time": 3292, "pitch": 75, "duration": 15, "velocity": 93}, {"time": 3316, "pitch": 75, "duration": 4, "velocity": 91}, {"time": 3322, "pitch": 78, "duration": 11, "velocity": 88}, {"time": 3334, "pitch": 75, "duration": 23, "velocity": 83}, {"time": 3364, "pitch": 73, "duration": 3, "velocity": 81}, {"time": 3370, "pitch": 73, "duration": 4, "velocity": 82}, {"time": 3376, "pitch": 73, "duration": 4, "velocity": 79}, {"time": 3382, "pitch": 73, "duration": 4, "velocity": 81}, {"time": 3388, "pitch": 73, "duration": 8, "velocity": 82}, {"time": 3400, "pitch": 73, "duration": 3, "velocity": 84}, {"time": 3412, "pitch": 73, "duration": 4, "velocity": 81}, {"time": 3418, "pitch": 78, "duration": 12, "velocity": 93}, {"time": 3430, "pitch": 77, "duration": 23, "velocity": 81}, {"time": 3472, "pitch": 68, "duration": 5, "velocity": 78}, {"time": 3478, "pitch": 68, "duration": 4, "velocity": 78}, {"time": 3484, "pitch": 72, "duration": 9, "velocity": 83}, {"time": 3496, "pitch": 72, "duration": 4, "velocity": 78}, {"time": 3502, "pitch": 72, "duration": 5, "velocity": 83}, {"time": 3508, "pitch": 75, "duration": 9, "velocity": 86}, {"time": 3520, "pitch": 75, "duration": 3, "velocity": 88}, {"time": 3526, "pitch": 75, "duration": 4, "velocity": 91}, {"time": 3532, "pitch": 78, "duration": 10, "velocity": 80}, {"time": 3544, "pitch": 75, "duration": 3, "velocity": 93}, {"time": 3550, "pitch": 78, "duration": 17, "velocity": 81}, {"time": 3568, "pitch": 75, "duration": 9, "velocity": 94}, {"time": 3580, "pitch": 78, "duration": 14, "velocity": 79}, {"time": 3592, "pitch": 75, "duration": 5, "velocity": 93}, {"time": 3598, "pitch": 80, "duration": 9, "velocity": 81}, {"time": 3610, "pitch": 80, "duration": 4, "velocity": 83}, {"time": 3616, "pitch": 78, "duration": 4, "velocity": 83}, {"time": 3622, "pitch": 77, "duration": 5, "velocity": 84}, {"time": 3628, "pitch": 75, "duration": 25, "velocity": 88}, {"time": 3665, "pitch": 68, "duration": 2, "velocity": 78}, {"time": 3670, "pitch": 68, "duration": 4, "velocity": 79}, {"time": 3676, "pitch": 72, "duration": 9, "velocity": 79}, {"time": 3688, "pitch": 72, "duration": 3, "velocity": 82}, {"time": 3694, "pitch": 72, "duration": 4, "velocity": 84}, {"time": 3700, "pitch": 75, "duration": 8, "velocity": 91}, {"time": 3712, "pitch": 75, "duration": 3, "velocity": 88}, {"time": 3718, "pitch": 75, "duration": 4, "velocity": 93}, {"time": 3724, "pitch": 78, "duration": 10, "velocity": 86}, {"time": 3736, "pitch": 75, "duration": 4, "velocity": 98}, {"time": 3742, "pitch": 78, "duration": 15, "velocity": 82}, {"time": 3760, "pitch": 75, "duration": 9, "velocity": 98}, {"time": 3772, "pitch": 78, "duration": 5, "velocity": 82}, {"time": 3778, "pitch": 80, "duration": 4, "velocity": 79}, {"time": 3784, "pitch": 78, "duration": 4, "velocity": 86}, {"time": 3790, "pitch": 82, "duration": 48, "velocity": 82}, {"time": 3845, "pitch": 78, "duration": 10, "velocity": 79}, {"time": 3856, "pitch": 75, "duration": 9, "velocity": 88}, {"time": 3868, "pitch": 78, "duration": 14, "velocity": 82}, {"time": 3886, "pitch": 75, "duration": 4, "velocity": 86}, {"time": 3892, "pitch": 78, "duration": 6, "velocity": 88}, {"time": 3898, "pitch": 75, "duration": 3, "velocity": 83}, {"time": 3904, "pitch": 75, "duration": 4, "velocity": 82}, {"time": 3910, "pitch": 75, "duration": 13, "velocity": 93}, {"time": 3922, "pitch": 75, "duration": 1, "velocity": 113}, {"time": 3928, "pitch": 75, "duration": 3, "velocity": 93}, {"time": 3934, "pitch": 75, "duration": 3, "velocity": 93}, {"time": 3940, "pitch": 82, "duration": 10, "velocity": 86}, {"time": 3952, "pitch": 80, "duration": 3, "velocity": 83}, {"time": 3958, "pitch": 78, "duration": 12, "velocity": 86}, {"time": 3988, "pitch": 80, "duration": 9, "velocity": 82}, {"time": 4000, "pitch": 78, "duration": 4, "velocity": 79}, {"time": 4006, "pitch": 77, "duration": 26, "velocity": 88}, {"time": 4036, "pitch": 78, "duration": 11, "velocity": 83}, {"time": 4048, "pitch": 75, "duration": 9, "velocity": 91}, {"time": 4060, "pitch": 78, "duration": 11, "velocity": 81}, {"time": 4072, "pitch": 75, "duration": 3, "velocity": 86}, {"time": 4078, "pitch": 75, "duration": 3, "velocity": 88}, {"time": 4084, "pitch": 78, "duration": 5, "velocity": 82}, {"time": 4090, "pitch": 75, "duration": 3, "velocity": 93}, {"time": 4096, "pitch": 75, "duration": 3, "velocity": 86}, {"time": 4102, "pitch": 75, "duration": 6, "velocity": 94}, {"time": 4114, "pitch": 75, "duration": 3, "velocity": 93}, {"time": 4120, "pitch": 75, "duration": 3, "velocity": 91}, {"time": 4126, "pitch": 75, "duration": 3, "velocity": 94}, {"time": 4132, "pitch": 82, "duration": 16, "velocity": 84}, {"time": 4150, "pitch": 78, "duration": 20, "velocity": 84}, {"time": 4180, "pitch": 80, "duration": 15, "velocity": 86}, {"time": 4198, "pitch": 77, "duration": 15, "velocity": 83}, {"time": 4229, "pitch": 78, "duration": 10, "velocity": 79}, {"time": 4240, "pitch": 75, "duration": 9, "velocity": 88}, {"time": 4252, "pitch": 78, "duration": 14, "velocity": 82}, {"time": 4270, "pitch": 75, "duration": 4, "velocity": 86}, {"time": 4276, "pitch": 78, "duration": 6, "velocity": 88}, {"time": 4282, "pitch": 75, "duration": 3, "velocity": 83}, {"time": 4288, "pitch": 75, "duration": 4, "velocity": 82}, {"time": 4294, "pitch": 75, "duration": 13, "velocity": 93}, {"time": 4306, "pitch": 75, "duration": 1, "velocity": 113}, {"time": 4312, "pitch": 75, "duration": 3, "velocity": 93}, {"time": 4318, "pitch": 75, "duration": 3, "velocity": 93}, {"time": 4324, "pitch": 82, "duration": 10, "velocity": 86}, {"time": 4336, "pitch": 80, "duration": 3, "velocity": 83}, {"time": 4342, "pitch": 78, "duration": 12, "velocity": 86}, {"time": 4372, "pitch": 80, "duration": 9, "velocity": 82}, {"time": 4384, "pitch": 78, "duration": 4, "velocity": 79}, {"time": 4390, "pitch": 77, "duration": 26, "velocity": 88}, {"time": 4420, "pitch": 78, "duration": 11, "velocity": 83}, {"time": 4432, "pitch": 75, "duration": 9, "velocity": 91}, {"time": 4444, "pitch": 78, "duration": 11, "velocity": 81}, {"time": 4456, "pitch": 75, "duration": 3, "velocity": 86}, {"time": 4462, "pitch": 75, "duration": 3, "velocity": 88}, {"time": 4468, "pitch": 78, "duration": 5, "velocity": 82}, {"time": 4474, "pitch": 75, "duration": 3, "velocity": 93}, {"time": 4480, "pitch": 75, "duration": 3, "velocity": 86}, {"time": 4486, "pitch": 75, "duration": 6, "velocity": 94}, {"time": 4498, "pitch": 75, "duration": 3, "velocity": 93}, {"time": 4504, "pitch": 75, "duration": 3, "velocity": 91}, {"time": 4510, "pitch": 75, "duration": 3, "velocity": 94}, {"time": 4516, "pitch": 82, "duration": 16, "velocity": 84}, {"time": 4534, "pitch": 78, "duration": 20, "velocity": 84}, {"time": 4564, "pitch": 80, "duration": 15, "velocity": 86}, {"time": 4582, "pitch": 77, "duration": 30, "velocity": 83}, {"time": 4612, "pitch": 78, "duration": 36, "velocity": 83}]}, {"program": 0, "is_drum": false, "name": "PIANO", "notes": [{"time": 52, "pitch": 39, "duration": 86, "velocity": 83}, {"time": 52, "pitch": 58, "duration": 15, "velocity": 75}, {"time": 52, "pitch": 63, "duration": 15, "velocity": 78}, {"time": 76, "pitch": 63, "duration": 2, "velocity": 79}, {"time": 76, "pitch": 66, "duration": 2, "velocity": 86}, {"time": 106, "pitch": 58, "duration": 3, "velocity": 54}, {"time": 112, "pitch": 63, "duration": 2, "velocity": 67}, {"time": 118, "pitch": 58, "duration": 5, "velocity": 78}, {"time": 118, "pitch": 63, "duration": 4, "velocity": 86}, {"time": 130, "pitch": 58, "duration": 4, "velocity": 78}, {"time": 130, "pitch": 63, "duration": 4, "velocity": 78}, {"time": 130, "pitch": 66, "duration": 4, "velocity": 79}, {"time": 148, "pitch": 39, "duration": 27, "velocity": 83}, {"time": 148, "pitch": 58, "duration": 11, "velocity": 77}, {"time": 148, "pitch": 63, "duration": 11, "velocity": 77}, {"time": 172, "pitch": 58, "duration": 2, "velocity": 77}, {"time": 172, "pitch": 63, "duration": 2, "velocity": 81}, {"time": 172, "pitch": 66, "duration": 2, "velocity": 79}, {"time": 190, "pitch": 58, "duration": 2, "velocity": 71}, {"time": 190, "pitch": 63, "duration": 2, "velocity": 77}, {"time": 202, "pitch": 58, "duration": 3, "velocity": 73}, {"time": 202, "pitch": 63, "duration": 2, "velocity": 77}, {"time": 226, "pitch": 58, "duration": 4, "velocity": 78}, {"time": 226, "pitch": 63, "duration": 3, "velocity": 75}, {"time": 232, "pitch": 58, "duration": 2, "velocity": 57}, {"time": 232, "pitch": 63, "duration": 4, "velocity": 83}, {"time": 244, "pitch": 39, "duration": 5, "velocity": 72}, {"time": 244, "pitch": 51, "duration": 4, "velocity": 72}, {"time": 244, "pitch": 58, "duration": 5, "velocity": 71}, {"time": 244, "pitch": 63, "duration": 5, "velocity": 73}, {"time": 250, "pitch": 39, "duration": 5, "velocity": 76}, {"time": 250, "pitch": 51, "duration": 5, "velocity": 69}, {"time": 250, "pitch": 58, "duration": 7, "velocity": 78}, {"time": 250, "pitch": 63, "duration": 6, "velocity": 79}, {"time": 268, "pitch": 39, "duration": 4, "velocity": 80}, {"time": 268, "pitch": 51, "duration": 5, "velocity": 77}, {"time": 268, "pitch": 58, "duration": 4, "velocity": 77}, {"time": 268, "pitch": 63, "duration": 4, "velocity": 79}, {"time": 274, "pitch": 39, "duration": 4, "velocity": 78}, {"time": 274, "pitch": 51, "duration": 4, "velocity": 75}, {"time": 274, "pitch": 58, "duration": 5, "velocity": 78}, {"time": 274, "pitch": 63, "duration": 5, "velocity": 81}, {"time": 292, "pitch": 39, "duration": 8, "velocity": 79}, {"time": 292, "pitch": 51, "duration": 8, "velocity": 77}, {"time": 292, "pitch": 58, "duration": 7, "velocity": 79}, {"time": 292, "pitch": 63, "duration": 7, "velocity": 81}, {"time": 340, "pitch": 51, "duration": 17, "velocity": 82}, {"time": 340, "pitch": 58, "duration": 4, "velocity": 78}, {"time": 340, "pitch": 66, "duration": 7, "velocity": 79}, {"time": 346, "pitch": 58, "duration": 4, "velocity": 70}, {"time": 358, "pitch": 58, "duration": 4, "velocity": 78}, {"time": 358, "pitch": 66, "duration": 5, "velocity": 83}, {"time": 370, "pitch": 58, "duration": 3, "velocity": 77}, {"time": 376, "pitch": 51, "duration": 3, "velocity": 83}, {"time": 376, "pitch": 58, "duration": 2, "velocity": 78}, {"time": 376, "pitch": 63, "duration": 4, "velocity": 83}, {"time": 376, "pitch": 66, "duration": 8, "velocity": 80}, {"time": 382, "pitch": 58, "duration": 3, "velocity": 72}, {"time": 388, "pitch": 42, "duration": 15, "velocity": 78}, {"time": 388, "pitch": 58, "duration": 5, "velocity": 73}, {"time": 388, "pitch": 61, "duration": 12, "velocity": 79}, {"time": 388, "pitch": 66, "duration": 12, "velocity": 78}, {"time": 400, "pitch": 58, "duration": 3, "velocity": 70}, {"time": 406, "pitch": 42, "duration": 14, "velocity": 77}, {"time": 406, "pitch": 58, "duration": 4, "velocity": 79}, {"time": 406, "pitch": 61, "duration": 8, "velocity": 84}, {"time": 406, "pitch": 66, "duration": 10, "velocity": 77}, {"time": 418, "pitch": 58, "duration": 2, "velocity": 62}, {"time": 424, "pitch": 42, "duration": 3, "velocity": 78}, {"time": 424, "pitch": 58, "duration": 3, "velocity": 78}, {"time": 424, "pitch": 61, "duration": 2, "velocity": 80}, {"time": 424, "pitch": 66, "duration": 4, "velocity": 77}, {"time": 436, "pitch": 44, "duration": 38, "velocity": 78}, {"time": 436, "pitch": 56, "duration": 5, "velocity": 78}, {"time": 436, "pitch": 63, "duration": 12, "velocity": 76}, {"time": 448, "pitch": 56, "duration": 3, "velocity": 73}, {"time": 454, "pitch": 56, "duration": 5, "velocity": 81}, {"time": 454, "pitch": 63, "duration": 14, "velocity": 81}, {"time": 454, "pitch": 68, "duration": 8, "velocity": 77}, {"time": 466, "pitch": 56, "duration": 3, "velocity": 72}, {"time": 472, "pitch": 56, "duration": 5, "velocity": 83}, {"time": 472, "pitch": 63, "duration": 3, "velocity": 81}, {"time": 472, "pitch": 68, "duration": 4, "velocity": 76}, {"time": 484, "pitch": 47, "duration": 4, "velocity": 80}, {"time": 484, "pitch": 59, "duration": 5, "velocity": 78}, {"time": 484, "pitch": 63, "duration": 6, "velocity": 81}, {"time": 502, "pitch": 46, "duration": 6, "velocity": 82}, {"time": 502, "pitch": 58, "duration": 6, "velocity": 81}, {"time": 502, "pitch": 70, "duration": 5, "velocity": 78}, {"time": 514, "pitch": 42, "duration": 15, "velocity": 82}, {"time": 514, "pitch": 54, "duration": 13, "velocity": 81}, {"time": 514, "pitch": 66, "duration": 14, "velocity": 79}, {"time": 532, "pitch": 51, "duration": 15, "velocity": 79}, {"time": 532, "pitch": 58, "duration": 13, "velocity": 78}, {"time": 532, "pitch": 63, "duration": 14, "velocity": 74}, {"time": 550, "pitch": 51, "duration": 15, "velocity": 91}, {"time": 550, "pitch": 58, "duration": 5, "velocity": 79}, {"time": 550, "pitch": 63, "duration": 9, "velocity": 82}, {"time": 562, "pitch": 58, "duration": 2, "velocity": 71}, {"time": 568, "pitch": 51, "duration": 3, "velocity": 84}, {"time": 568, "pitch": 58, "duration": 3, "velocity": 79}, {"time": 568, "pitch": 63, "duration": 3, "velocity": 83}, {"time": 580, "pitch": 42, "duration": 15, "velocity": 79}, {"time": 580, "pitch": 58, "duration": 13, "velocity": 75}, {"time": 580, "pitch": 61, "duration": 13, "velocity": 80}, {"time": 580, "pitch": 66, "duration": 12, "velocity": 77}, {"time": 598, "pitch": 42, "duration": 14, "velocity": 78}, {"time": 598, "pitch": 58, "duration": 5, "velocity": 78}, {"time": 598, "pitch": 61, "duration": 9, "velocity": 82}, {"time": 598, "pitch": 66, "duration": 8, "velocity": 79}, {"time": 610, "pitch": 58, "duration": 3, "velocity": 66}, {"time": 616, "pitch": 42, "duration": 4, "velocity": 76}, {"time": 616, "pitch": 58, "duration": 3, "velocity": 77}, {"time": 616, "pitch": 61, "duration": 2, "velocity": 81}, {"time": 616, "pitch": 66, "duration": 8, "velocity": 76}, {"time": 622, "pitch": 58, "duration": 3, "velocity": 70}, {"time": 628, "pitch": 44, "duration": 14, "velocity": 78}, {"time": 628, "pitch": 56, "duration": 11, "velocity": 81}, {"time": 628, "pitch": 63, "duration": 8, "velocity": 77}, {"time": 646, "pitch": 44, "duration": 15, "velocity": 78}, {"time": 646, "pitch": 56, "duration": 5, "velocity": 77}, {"time": 646, "pitch": 60, "duration": 9, "velocity": 79}, {"time": 646, "pitch": 63, "duration": 10, "velocity": 79}, {"time": 658, "pitch": 56, "duration": 3, "velocity": 66}, {"time": 664, "pitch": 44, "duration": 3, "velocity": 79}, {"time": 664, "pitch": 56, "duration": 2, "velocity": 70}, {"time": 664, "pitch": 60, "duration": 2, "velocity": 80}, {"time": 664, "pitch": 63, "duration": 3, "velocity": 79}, {"time": 664, "pitch": 68, "duration": 4, "velocity": 77}, {"time": 676, "pitch": 47, "duration": 6, "velocity": 86}, {"time": 676, "pitch": 59, "duration": 6, "velocity": 79}, {"time": 676, "pitch": 71, "duration": 7, "velocity": 73}, {"time": 694, "pitch": 46, "duration": 4, "velocity": 78}, {"time": 694, "pitch": 58, "duration": 5, "velocity": 78}, {"time": 694, "pitch": 70, "duration": 4, "velocity": 78}, {"time": 706, "pitch": 42, "duration": 3, "velocity": 78}, {"time": 706, "pitch": 54, "duration": 3, "velocity": 71}, {"time": 706, "pitch": 66, "duration": 2, "velocity": 74}, {"time": 712, "pitch": 42, "duration": 12, "velocity": 78}, {"time": 712, "pitch": 54, "duration": 11, "velocity": 73}, {"time": 712, "pitch": 66, "duration": 12, "velocity": 78}, {"time": 724, "pitch": 51, "duration": 12, "velocity": 80}, {"time": 724, "pitch": 58, "duration": 3, "velocity": 77}, {"time": 724, "pitch": 63, "duration": 6, "velocity": 78}, {"time": 730, "pitch": 58, "duration": 3, "velocity": 76}, {"time": 736, "pitch": 58, "duration": 3, "velocity": 78}, {"time": 736, "pitch": 63, "duration": 3, "velocity": 82}, {"time": 736, "pitch": 66, "duration": 4, "velocity": 69}, {"time": 742, "pitch": 51, "duration": 9, "velocity": 86}, {"time": 742, "pitch": 58, "duration": 5, "velocity": 76}, {"time": 742, "pitch": 63, "duration": 6, "velocity": 78}, {"time": 742, "pitch": 66, "duration": 6, "velocity": 76}, {"time": 754, "pitch": 58, "duration": 3, "velocity": 77}, {"time": 760, "pitch": 51, "duration": 2, "velocity": 83}, {"time": 760, "pitch": 58, "duration": 2, "velocity": 74}, {"time": 760, "pitch": 63, "duration": 3, "velocity": 84}, {"time": 760, "pitch": 66, "duration": 8, "velocity": 77}, {"time": 766, "pitch": 58, "duration": 3, "velocity": 78}, {"time": 772, "pitch": 47, "duration": 10, "velocity": 83}, {"time": 772, "pitch": 59, "duration": 3, "velocity": 75}, {"time": 772, "pitch": 63, "duration": 8, "velocity": 64}, {"time": 778, "pitch": 59, "duration": 2, "velocity": 68}, {"time": 784, "pitch": 59, "duration": 2, "velocity": 63}, {"time": 784, "pitch": 63, "duration": 2, "velocity": 72}, {"time": 790, "pitch": 47, "duration": 3, "velocity": 81}, {"time": 790, "pitch": 59, "duration": 2, "velocity": 78}, {"time": 790, "pitch": 63, "duration": 3, "velocity": 78}, {"time": 790, "pitch": 66, "duration": 3, "velocity": 73}, {"time": 802, "pitch": 59, "duration": 2, "velocity": 70}, {"time": 808, "pitch": 47, "duration": 3, "velocity": 84}, {"time": 808, "pitch": 59, "duration": 2, "velocity": 79}, {"time": 808, "pitch": 63, "duration": 3, "velocity": 78}, {"time": 808, "pitch": 66, "duration": 5, "velocity": 74}, {"time": 820, "pitch": 42, "duration": 14, "velocity": 78}, {"time": 820, "pitch": 58, "duration": 3, "velocity": 71}, {"time": 820, "pitch": 61, "duration": 6, "velocity": 77}, {"time": 820, "pitch": 66, "duration": 6, "velocity": 75}, {"time": 826, "pitch": 58, "duration": 3, "velocity": 68}, {"time": 832, "pitch": 61, "duration": 2, "velocity": 67}, {"time": 832, "pitch": 66, "duration": 2, "velocity": 69}, {"time": 838, "pitch": 42, "duration": 4, "velocity": 76}, {"time": 838, "pitch": 58, "duration": 2, "velocity": 77}, {"time": 838, "pitch": 61, "duration": 3, "velocity": 82}, {"time": 838, "pitch": 66, "duration": 4, "velocity": 77}, {"time": 850, "pitch": 58, "duration": 2, "velocity": 72}, {"time": 856, "pitch": 42, "duration": 3, "velocity": 76}, {"time": 856, "pitch": 58, "duration": 2, "velocity": 77}, {"time": 856, "pitch": 61, "duration": 3, "velocity": 88}, {"time": 856, "pitch": 66, "duration": 4, "velocity": 77}, {"time": 862, "pitch": 58, "duration": 2, "velocity": 78}, {"time": 868, "pitch": 49, "duration": 6, "velocity": 84}, {"time": 868, "pitch": 56, "duration": 3, "velocity": 77}, {"time": 868, "pitch": 61, "duration": 6, "velocity": 78}, {"time": 868, "pitch": 65, "duration": 6, "velocity": 80}, {"time": 874, "pitch": 56, "duration": 3, "velocity": 75}, {"time": 880, "pitch": 61, "duration": 2, "velocity": 66}, {"time": 886, "pitch": 49, "duration": 3, "velocity": 83}, {"time": 886, "pitch": 56, "duration": 3, "velocity": 79}, {"time": 886, "pitch": 61, "duration": 4, "velocity": 83}, {"time": 886, "pitch": 65, "duration": 4, "velocity": 83}, {"time": 898, "pitch": 56, "duration": 3, "velocity": 77}, {"time": 904, "pitch": 49, "duration": 8, "velocity": 86}, {"time": 904, "pitch": 56, "duration": 1, "velocity": 67}, {"time": 904, "pitch": 61, "duration": 8, "velocity": 83}, {"time": 904, "pitch": 65, "duration": 8, "velocity": 82}, {"time": 910, "pitch": 56, "duration": 3, "velocity": 81}, {"time": 916, "pitch": 51, "duration": 12, "velocity": 80}, {"time": 916, "pitch": 58, "duration": 3, "velocity": 77}, {"time": 916, "pitch": 63, "duration": 6, "velocity": 78}, {"time": 922, "pitch": 58, "duration": 3, "velocity": 76}, {"time": 928, "pitch": 58, "duration": 3, "velocity": 78}, {"time": 928, "pitch": 63, "duration": 3, "velocity": 82}, {"time": 928, "pitch": 66, "duration": 4, "velocity": 69}, {"time": 934, "pitch": 51, "duration": 9, "velocity": 86}, {"time": 934, "pitch": 58, "duration": 5, "velocity": 76}, {"time": 934, "pitch": 63, "duration": 6, "velocity": 78}, {"time": 934, "pitch": 66, "duration": 6, "velocity": 76}, {"time": 946, "pitch": 58, "duration": 3, "velocity": 77}, {"time": 952, "pitch": 51, "duration": 2, "velocity": 83}, {"time": 952, "pitch": 58, "duration": 2, "velocity": 74}, {"time": 952, "pitch": 63, "duration": 3, "velocity": 84}, {"time": 952, "pitch": 66, "duration": 8, "velocity": 77}, {"time": 958, "pitch": 58, "duration": 3, "velocity": 78}, {"time": 964, "pitch": 47, "duration": 10, "velocity": 83}, {"time": 964, "pitch": 59, "duration": 3, "velocity": 75}, {"time": 964, "pitch": 63, "duration": 8, "velocity": 64}, {"time": 970, "pitch": 59, "duration": 2, "velocity": 68}, {"time": 976, "pitch": 59, "duration": 2, "velocity": 63}, {"time": 976, "pitch": 63, "duration": 2, "velocity": 72}, {"time": 982, "pitch": 47, "duration": 3, "velocity": 81}, {"time": 982, "pitch": 59, "duration": 2, "velocity": 78}, {"time": 982, "pitch": 63, "duration": 3, "velocity": 78}, {"time": 982, "pitch": 66, "duration": 3, "velocity": 73}, {"time": 994, "pitch": 59, "duration": 2, "velocity": 70}, {"time": 1000, "pitch": 47, "duration": 3, "velocity": 84}, {"time": 1000, "pitch": 59, "duration": 2, "velocity": 79}, {"time": 1000, "pitch": 63, "duration": 3, "velocity": 78}, {"time": 1000, "pitch": 66, "duration": 5, "velocity": 74}, {"time": 1012, "pitch": 42, "duration": 14, "velocity": 78}, {"time": 1012, "pitch": 58, "duration": 3, "velocity": 71}, {"time": 1012, "pitch": 61, "duration": 6, "velocity": 77}, {"time": 1012, "pitch": 66, "duration": 6, "velocity": 75}, {"time": 1018, "pitch": 58, "duration": 3, "velocity": 68}, {"time": 1024, "pitch": 61, "duration": 2, "velocity": 67}, {"time": 1024, "pitch": 66, "duration": 2, "velocity": 69}, {"time": 1030, "pitch": 42, "duration": 4, "velocity": 76}, {"time": 1030, "pitch": 58, "duration": 2, "velocity": 77}, {"time": 1030, "pitch": 61, "duration": 3, "velocity": 82}, {"time": 1030, "pitch": 66, "duration": 4, "velocity": 77}, {"time": 1042, "pitch": 58, "duration": 2, "velocity": 72}, {"time": 1048, "pitch": 42, "duration": 3, "velocity": 76}, {"time": 1048, "pitch": 58, "duration": 2, "velocity": 77}, {"time": 1048, "pitch": 61, "duration": 3, "velocity": 88}, {"time": 1048, "pitch": 66, "duration": 4, "velocity": 77}, {"time": 1054, "pitch": 58, "duration": 2, "velocity": 78}, {"time": 1060, "pitch": 49, "duration": 6, "velocity": 84}, {"time": 1060, "pitch": 56, "duration": 3, "velocity": 77}, {"time": 1060, "pitch": 61, "duration": 6, "velocity": 78}, {"time": 1060, "pitch": 65, "duration": 6, "velocity": 80}, {"time": 1066, "pitch": 56, "duration": 3, "velocity": 75}, {"time": 1072, "pitch": 61, "duration": 2, "velocity": 66}, {"time": 1078, "pitch": 49, "duration": 3, "velocity": 83}, {"time": 1078, "pitch": 56, "duration": 3, "velocity": 79}, {"time": 1078, "pitch": 61, "duration": 4, "velocity": 83}, {"time": 1078, "pitch": 65, "duration": 4, "velocity": 83}, {"time": 1090, "pitch": 56, "duration": 3, "velocity": 77}, {"time": 1096, "pitch": 49, "duration": 8, "velocity": 86}, {"time": 1096, "pitch": 56, "duration": 1, "velocity": 67}, {"time": 1096, "pitch": 61, "duration": 8, "velocity": 83}, {"time": 1096, "pitch": 65, "duration": 8, "velocity": 82}, {"time": 1102, "pitch": 56, "duration": 3, "velocity": 81}, {"time": 1108, "pitch": 51, "duration": 12, "velocity": 80}, {"time": 1108, "pitch": 58, "duration": 3, "velocity": 77}, {"time": 1108, "pitch": 63, "duration": 6, "velocity": 78}, {"time": 1114, "pitch": 58, "duration": 3, "velocity": 76}, {"time": 1120, "pitch": 58, "duration": 3, "velocity": 78}, {"time": 1120, "pitch": 63, "duration": 3, "velocity": 82}, {"time": 1120, "pitch": 66, "duration": 4, "velocity": 69}, {"time": 1126, "pitch": 51, "duration": 9, "velocity": 86}, {"time": 1126, "pitch": 58, "duration": 5, "velocity": 76}, {"time": 1126, "pitch": 63, "duration": 6, "velocity": 78}, {"time": 1126, "pitch": 66, "duration": 6, "velocity": 76}, {"time": 1138, "pitch": 58, "duration": 3, "velocity": 77}, {"time": 1144, "pitch": 51, "duration": 2, "velocity": 83}, {"time": 1144, "pitch": 58, "duration": 2, "velocity": 74}, {"time": 1144, "pitch": 63, "duration": 3, "velocity": 84}, {"time": 1144, "pitch": 66, "duration": 8, "velocity": 77}, {"time": 1150, "pitch": 58, "duration": 3, "velocity": 78}, {"time": 1156, "pitch": 47, "duration": 10, "velocity": 83}, {"time": 1156, "pitch": 59, "duration": 3, "velocity": 75}, {"time": 1156, "pitch": 63, "duration": 8, "velocity": 64}, {"time": 1162, "pitch": 59, "duration": 2, "velocity": 68}, {"time": 1168, "pitch": 59, "duration": 2, "velocity": 63}, {"time": 1168, "pitch": 63, "duration": 2, "velocity": 72}, {"time": 1174, "pitch": 47, "duration": 3, "velocity": 81}, {"time": 1174, "pitch": 59, "duration": 2, "velocity": 78}, {"time": 1174, "pitch": 63, "duration": 3, "velocity": 78}, {"time": 1174, "pitch": 66, "duration": 3, "velocity": 73}, {"time": 1186, "pitch": 59, "duration": 2, "velocity": 70}, {"time": 1192, "pitch": 47, "duration": 3, "velocity": 84}, {"time": 1192, "pitch": 59, "duration": 2, "velocity": 79}, {"time": 1192, "pitch": 63, "duration": 3, "velocity": 78}, {"time": 1192, "pitch": 66, "duration": 5, "velocity": 74}, {"time": 1204, "pitch": 42, "duration": 14, "velocity": 78}, {"time": 1204, "pitch": 58, "duration": 3, "velocity": 71}, {"time": 1204, "pitch": 61, "duration": 6, "velocity": 77}, {"time": 1204, "pitch": 66, "duration": 6, "velocity": 75}, {"time": 1210, "pitch": 58, "duration": 3, "velocity": 68}, {"time": 1216, "pitch": 61, "duration": 2, "velocity": 67}, {"time": 1216, "pitch": 66, "duration": 2, "velocity": 69}, {"time": 1222, "pitch": 42, "duration": 4, "velocity": 76}, {"time": 1222, "pitch": 58, "duration": 2, "velocity": 77}, {"time": 1222, "pitch": 61, "duration": 3, "velocity": 82}, {"time": 1222, "pitch": 66, "duration": 4, "velocity": 77}, {"time": 1234, "pitch": 58, "duration": 2, "velocity": 72}, {"time": 1240, "pitch": 42, "duration": 3, "velocity": 76}, {"time": 1240, "pitch": 58, "duration": 2, "velocity": 77}, {"time": 1240, "pitch": 61, "duration": 3, "velocity": 88}, {"time": 1240, "pitch": 66, "duration": 4, "velocity": 77}, {"time": 1246, "pitch": 58, "duration": 2, "velocity": 78}, {"time": 1252, "pitch": 49, "duration": 6, "velocity": 84}, {"time": 1252, "pitch": 56, "duration": 3, "velocity": 77}, {"time": 1252, "pitch": 61, "duration": 6, "velocity": 78}, {"time": 1252, "pitch": 65, "duration": 6, "velocity": 80}, {"time": 1258, "pitch": 56, "duration": 3, "velocity": 75}, {"time": 1264, "pitch": 61, "duration": 2, "velocity": 66}, {"time": 1270, "pitch": 49, "duration": 3, "velocity": 83}, {"time": 1270, "pitch": 56, "duration": 3, "velocity": 79}, {"time": 1270, "pitch": 61, "duration": 4, "velocity": 83}, {"time": 1270, "pitch": 65, "duration": 4, "velocity": 83}, {"time": 1282, "pitch": 56, "duration": 3, "velocity": 77}, {"time": 1288, "pitch": 49, "duration": 8, "velocity": 86}, {"time": 1288, "pitch": 56, "duration": 1, "velocity": 67}, {"time": 1288, "pitch": 61, "duration": 8, "velocity": 83}, {"time": 1288, "pitch": 65, "duration": 8, "velocity": 82}, {"time": 1294, "pitch": 56, "duration": 3, "velocity": 81}, {"time": 1300, "pitch": 51, "duration": 12, "velocity": 80}, {"time": 1300, "pitch": 58, "duration": 3, "velocity": 77}, {"time": 1300, "pitch": 63, "duration": 6, "velocity": 78}, {"time": 1306, "pitch": 58, "duration": 3, "velocity": 76}, {"time": 1312, "pitch": 58, "duration": 3, "velocity": 78}, {"time": 1312, "pitch": 63, "duration": 3, "velocity": 82}, {"time": 1312, "pitch": 66, "duration": 4, "velocity": 69}, {"time": 1318, "pitch": 51, "duration": 9, "velocity": 86}, {"time": 1318, "pitch": 58, "duration": 5, "velocity": 76}, {"time": 1318, "pitch": 63, "duration": 6, "velocity": 78}, {"time": 1318, "pitch": 66, "duration": 6, "velocity": 76}, {"time": 1330, "pitch": 58, "duration": 3, "velocity": 77}, {"time": 1336, "pitch": 51, "duration": 2, "velocity": 83}, {"time": 1336, "pitch": 58, "duration": 2, "velocity": 74}, {"time": 1336, "pitch": 63, "duration": 3, "velocity": 84}, {"time": 1336, "pitch": 66, "duration": 8, "velocity": 77}, {"time": 1342, "pitch": 58, "duration": 3, "velocity": 78}, {"time": 1348, "pitch": 47, "duration": 10, "velocity": 83}, {"time": 1348, "pitch": 59, "duration": 3, "velocity": 75}, {"time": 1348, "pitch": 63, "duration": 8, "velocity": 64}, {"time": 1354, "pitch": 59, "duration": 2, "velocity": 68}, {"time": 1360, "pitch": 59, "duration": 2, "velocity": 63}, {"time": 1360, "pitch": 63, "duration": 2, "velocity": 72}, {"time": 1366, "pitch": 47, "duration": 3, "velocity": 81}, {"time": 1366, "pitch": 59, "duration": 2, "velocity": 78}, {"time": 1366, "pitch": 63, "duration": 3, "velocity": 78}, {"time": 1366, "pitch": 66, "duration": 3, "velocity": 73}, {"time": 1378, "pitch": 59, "duration": 2, "velocity": 70}, {"time": 1384, "pitch": 47, "duration": 3, "velocity": 84}, {"time": 1384, "pitch": 59, "duration": 2, "velocity": 79}, {"time": 1384, "pitch": 63, "duration": 3, "velocity": 78}, {"time": 1384, "pitch": 66, "duration": 5, "velocity": 74}, {"time": 1396, "pitch": 42, "duration": 14, "velocity": 78}, {"time": 1396, "pitch": 58, "duration": 3, "velocity": 71}, {"time": 1396, "pitch": 61, "duration": 6, "velocity": 77}, {"time": 1396, "pitch": 66, "duration": 6, "velocity": 75}, {"time": 1402, "pitch": 58, "duration": 3, "velocity": 68}, {"time": 1408, "pitch": 61, "duration": 2, "velocity": 67}, {"time": 1408, "pitch": 66, "duration": 2, "velocity": 69}, {"time": 1414, "pitch": 42, "duration": 4, "velocity": 76}, {"time": 1414, "pitch": 58, "duration": 2, "velocity": 77}, {"time": 1414, "pitch": 61, "duration": 3, "velocity": 82}, {"time": 1414, "pitch": 66, "duration": 4, "velocity": 77}, {"time": 1426, "pitch": 58, "duration": 2, "velocity": 72}, {"time": 1432, "pitch": 42, "duration": 3, "velocity": 76}, {"time": 1432, "pitch": 58, "duration": 2, "velocity": 77}, {"time": 1432, "pitch": 61, "duration": 3, "velocity": 88}, {"time": 1432, "pitch": 66, "duration": 4, "velocity": 77}, {"time": 1438, "pitch": 58, "duration": 2, "velocity": 78}, {"time": 1444, "pitch": 49, "duration": 6, "velocity": 84}, {"time": 1444, "pitch": 56, "duration": 3, "velocity": 77}, {"time": 1444, "pitch": 61, "duration": 6, "velocity": 78}, {"time": 1444, "pitch": 65, "duration": 6, "velocity": 80}, {"time": 1450, "pitch": 56, "duration": 3, "velocity": 75}, {"time": 1456, "pitch": 61, "duration": 2, "velocity": 66}, {"time": 1462, "pitch": 49, "duration": 3, "velocity": 83}, {"time": 1462, "pitch": 56, "duration": 3, "velocity": 79}, {"time": 1462, "pitch": 61, "duration": 4, "velocity": 83}, {"time": 1462, "pitch": 65, "duration": 4, "velocity": 83}, {"time": 1474, "pitch": 56, "duration": 3, "velocity": 77}, {"time": 1480, "pitch": 49, "duration": 8, "velocity": 86}, {"time": 1480, "pitch": 56, "duration": 1, "velocity": 67}, {"time": 1480, "pitch": 61, "duration": 8, "velocity": 83}, {"time": 1480, "pitch": 65, "duration": 8, "velocity": 82}, {"time": 1486, "pitch": 56, "duration": 3, "velocity": 81}, {"time": 1492, "pitch": 44, "duration": 35, "velocity": 78}, {"time": 1492, "pitch": 56, "duration": 5, "velocity": 79}, {"time": 1492, "pitch": 63, "duration": 10, "velocity": 77}, {"time": 1492, "pitch": 68, "duration": 7, "velocity": 77}, {"time": 1498, "pitch": 51, "duration": 28, "velocity": 73}, {"time": 1504, "pitch": 56, "duration": 3, "velocity": 82}, {"time": 1510, "pitch": 56, "duration": 2, "velocity": 82}, {"time": 1510, "pitch": 63, "duration": 2, "velocity": 82}, {"time": 1510, "pitch": 68, "duration": 3, "velocity": 78}, {"time": 1522, "pitch": 56, "duration": 3, "velocity": 80}, {"time": 1522, "pitch": 63, "duration": 3, "velocity": 81}, {"time": 1540, "pitch": 39, "duration": 32, "velocity": 80}, {"time": 1540, "pitch": 58, "duration": 4, "velocity": 74}, {"time": 1540, "pitch": 66, "duration": 9, "velocity": 74}, {"time": 1546, "pitch": 58, "duration": 6, "velocity": 75}, {"time": 1552, "pitch": 63, "duration": 2, "velocity": 72}, {"time": 1558, "pitch": 58, "duration": 3, "velocity": 82}, {"time": 1558, "pitch": 66, "duration": 3, "velocity": 81}, {"time": 1570, "pitch": 58, "duration": 2, "velocity": 78}, {"time": 1570, "pitch": 63, "duration": 3, "velocity": 80}, {"time": 1570, "pitch": 66, "duration": 4, "velocity": 81}, {"time": 1588, "pitch": 44, "duration": 44, "velocity": 78}, {"time": 1588, "pitch": 56, "duration": 4, "velocity": 78}, {"time": 1588, "pitch": 63, "duration": 11, "velocity": 77}, {"time": 1594, "pitch": 51, "duration": 39, "velocity": 76}, {"time": 1600, "pitch": 56, "duration": 2, "velocity": 74}, {"time": 1606, "pitch": 56, "duration": 4, "velocity": 81}, {"time": 1606, "pitch": 63, "duration": 3, "velocity": 81}, {"time": 1606, "pitch": 68, "duration": 4, "velocity": 77}, {"time": 1618, "pitch": 56, "duration": 2, "velocity": 80}, {"time": 1618, "pitch": 63, "duration": 2, "velocity": 81}, {"time": 1618, "pitch": 68, "duration": 3, "velocity": 78}, {"time": 1630, "pitch": 56, "duration": 2, "velocity": 80}, {"time": 1636, "pitch": 51, "duration": 22, "velocity": 79}, {"time": 1636, "pitch": 58, "duration": 4, "velocity": 74}, {"time": 1636, "pitch": 63, "duration": 7, "velocity": 78}, {"time": 1642, "pitch": 58, "duration": 4, "velocity": 78}, {"time": 1648, "pitch": 63, "duration": 2, "velocity": 68}, {"time": 1654, "pitch": 58, "duration": 3, "velocity": 82}, {"time": 1654, "pitch": 66, "duration": 3, "velocity": 86}, {"time": 1666, "pitch": 58, "duration": 3, "velocity": 82}, {"time": 1666, "pitch": 63, "duration": 5, "velocity": 84}, {"time": 1678, "pitch": 58, "duration": 3, "velocity": 77}, {"time": 1684, "pitch": 44, "duration": 42, "velocity": 78}, {"time": 1684, "pitch": 56, "duration": 7, "velocity": 79}, {"time": 1684, "pitch": 63, "duration": 13, "velocity": 77}, {"time": 1690, "pitch": 51, "duration": 34, "velocity": 72}, {"time": 1696, "pitch": 56, "duration": 2, "velocity": 79}, {"time": 1702, "pitch": 56, "duration": 4, "velocity": 80}, {"time": 1702, "pitch": 63, "duration": 3, "velocity": 82}, {"time": 1702, "pitch": 68, "duration": 4, "velocity": 77}, {"time": 1714, "pitch": 56, "duration": 3, "velocity": 78}, {"time": 1714, "pitch": 63, "duration": 4, "velocity": 78}, {"time": 1726, "pitch": 56, "duration": 2, "velocity": 78}, {"time": 1732, "pitch": 51, "duration": 35, "velocity": 75}, {"time": 1732, "pitch": 58, "duration": 3, "velocity": 77}, {"time": 1732, "pitch": 63, "duration": 7, "velocity": 79}, {"time": 1738, "pitch": 58, "duration": 7, "velocity": 78}, {"time": 1744, "pitch": 63, "duration": 2, "velocity": 73}, {"time": 1750, "pitch": 58, "duration": 3, "velocity": 83}, {"time": 1750, "pitch": 66, "duration": 3, "velocity": 83}, {"time": 1762, "pitch": 58, "duration": 3, "velocity": 79}, {"time": 1762, "pitch": 63, "duration": 3, "velocity": 82}, {"time": 1780, "pitch": 47, "duration": 28, "velocity": 88}, {"time": 1786, "pitch": 54, "duration": 14, "velocity": 62}, {"time": 1792, "pitch": 59, "duration": 4, "velocity": 76}, {"time": 1798, "pitch": 59, "duration": 8, "velocity": 79}, {"time": 1798, "pitch": 63, "duration": 7, "velocity": 79}, {"time": 1798, "pitch": 66, "duration": 7, "velocity": 79}, {"time": 1804, "pitch": 54, "duration": 6, "velocity": 77}, {"time": 1810, "pitch": 59, "duration": 2, "velocity": 78}, {"time": 1810, "pitch": 63, "duration": 2, "velocity": 77}, {"time": 1810, "pitch": 66, "duration": 3, "velocity": 79}, {"time": 1828, "pitch": 46, "duration": 47, "velocity": 81}, {"time": 1828, "pitch": 58, "duration": 22, "velocity": 77}, {"time": 1828, "pitch": 62, "duration": 21, "velocity": 79}, {"time": 1828, "pitch": 65, "duration": 21, "velocity": 79}, {"time": 1828, "pitch": 70, "duration": 17, "velocity": 77}, {"time": 1852, "pitch": 58, "duration": 7, "velocity": 78}, {"time": 1852, "pitch": 62, "duration": 21, "velocity": 82}, {"time": 1852, "pitch": 65, "duration": 21, "velocity": 79}, {"time": 1858, "pitch": 53, "duration": 16, "velocity": 78}, {"time": 1864, "pitch": 58, "duration": 9, "velocity": 78}, {"time": 1876, "pitch": 51, "duration": 10, "velocity": 88}, {"time": 1876, "pitch": 58, "duration": 4, "velocity": 77}, {"time": 1876, "pitch": 63, "duration": 8, "velocity": 79}, {"time": 1882, "pitch": 58, "duration": 4, "velocity": 81}, {"time": 1888, "pitch": 51, "duration": 4, "velocity": 84}, {"time": 1888, "pitch": 63, "duration": 8, "velocity": 80}, {"time": 1888, "pitch": 66, "duration": 7, "velocity": 84}, {"time": 1894, "pitch": 58, "duration": 7, "velocity": 78}, {"time": 1900, "pitch": 51, "duration": 9, "velocity": 82}, {"time": 1900, "pitch": 63, "duration": 8, "velocity": 77}, {"time": 1900, "pitch": 66, "duration": 9, "velocity": 77}, {"time": 1906, "pitch": 58, "duration": 5, "velocity": 70}, {"time": 1912, "pitch": 51, "duration": 3, "velocity": 80}, {"time": 1912, "pitch": 63, "duration": 8, "velocity": 84}, {"time": 1912, "pitch": 66, "duration": 8, "velocity": 81}, {"time": 1918, "pitch": 58, "duration": 2, "velocity": 79}, {"time": 1924, "pitch": 47, "duration": 9, "velocity": 82}, {"time": 1924, "pitch": 63, "duration": 8, "velocity": 79}, {"time": 1924, "pitch": 66, "duration": 8, "velocity": 78}, {"time": 1930, "pitch": 59, "duration": 8, "velocity": 69}, {"time": 1936, "pitch": 47, "duration": 10, "velocity": 78}, {"time": 1936, "pitch": 63, "duration": 8, "velocity": 79}, {"time": 1936, "pitch": 66, "duration": 8, "velocity": 79}, {"time": 1942, "pitch": 59, "duration": 7, "velocity": 72}, {"time": 1948, "pitch": 47, "duration": 8, "velocity": 79}, {"time": 1948, "pitch": 63, "duration": 8, "velocity": 79}, {"time": 1948, "pitch": 66, "duration": 7, "velocity": 79}, {"time": 1954, "pitch": 59, "duration": 3, "velocity": 65}, {"time": 1960, "pitch": 47, "duration": 4, "velocity": 81}, {"time": 1960, "pitch": 59, "duration": 2, "velocity": 79}, {"time": 1960, "pitch": 63, "duration": 5, "velocity": 79}, {"time": 1960, "pitch": 66, "duration": 8, "velocity": 78}, {"time": 1966, "pitch": 59, "duration": 2, "velocity": 72}, {"time": 1972, "pitch": 42, "duration": 10, "velocity": 78}, {"time": 1972, "pitch": 58, "duration": 3, "velocity": 77}, {"time": 1972, "pitch": 61, "duration": 7, "velocity": 78}, {"time": 1978, "pitch": 58, "duration": 3, "velocity": 68}, {"time": 1984, "pitch": 42, "duration": 6, "velocity": 78}, {"time": 1984, "pitch": 61, "duration": 4, "velocity": 83}, {"time": 1984, "pitch": 66, "duration": 4, "velocity": 78}, {"time": 1990, "pitch": 58, "duration": 3, "velocity": 77}, {"time": 1996, "pitch": 42, "duration": 8, "velocity": 76}, {"time": 1996, "pitch": 61, "duration": 8, "velocity": 78}, {"time": 1996, "pitch": 66, "duration": 7, "velocity": 78}, {"time": 2002, "pitch": 58, "duration": 3, "velocity": 77}, {"time": 2008, "pitch": 42, "duration": 4, "velocity": 79}, {"time": 2008, "pitch": 61, "duration": 3, "velocity": 81}, {"time": 2008, "pitch": 66, "duration": 4, "velocity": 79}, {"time": 2014, "pitch": 58, "duration": 3, "velocity": 77}, {"time": 2020, "pitch": 49, "duration": 8, "velocity": 84}, {"time": 2020, "pitch": 61, "duration": 7, "velocity": 77}, {"time": 2020, "pitch": 65, "duration": 7, "velocity": 79}, {"time": 2026, "pitch": 56, "duration": 3, "velocity": 78}, {"time": 2032, "pitch": 49, "duration": 4, "velocity": 88}, {"time": 2032, "pitch": 56, "duration": 2, "velocity": 79}, {"time": 2032, "pitch": 61, "duration": 8, "velocity": 83}, {"time": 2032, "pitch": 65, "duration": 8, "velocity": 80}, {"time": 2038, "pitch": 56, "duration": 4, "velocity": 78}, {"time": 2044, "pitch": 49, "duration": 7, "velocity": 79}, {"time": 2044, "pitch": 56, "duration": 2, "velocity": 68}, {"time": 2044, "pitch": 61, "duration": 5, "velocity": 78}, {"time": 2044, "pitch": 65, "duration": 6, "velocity": 78}, {"time": 2050, "pitch": 56, "duration": 3, "velocity": 78}, {"time": 2050, "pitch": 61, "duration": 1, "velocity": 44}, {"time": 2056, "pitch": 49, "duration": 2, "velocity": 91}, {"time": 2056, "pitch": 56, "duration": 2, "velocity": 80}, {"time": 2056, "pitch": 61, "duration": 3, "velocity": 91}, {"time": 2056, "pitch": 65, "duration": 3, "velocity": 82}, {"time": 2068, "pitch": 39, "duration": 9, "velocity": 86}, {"time": 2068, "pitch": 58, "duration": 2, "velocity": 69}, {"time": 2068, "pitch": 63, "duration": 8, "velocity": 76}, {"time": 2068, "pitch": 66, "duration": 8, "velocity": 73}, {"time": 2074, "pitch": 58, "duration": 3, "velocity": 73}, {"time": 2080, "pitch": 39, "duration": 5, "velocity": 86}, {"time": 2080, "pitch": 63, "duration": 4, "velocity": 79}, {"time": 2080, "pitch": 66, "duration": 8, "velocity": 82}, {"time": 2086, "pitch": 58, "duration": 7, "velocity": 80}, {"time": 2092, "pitch": 39, "duration": 8, "velocity": 84}, {"time": 2092, "pitch": 63, "duration": 8, "velocity": 78}, {"time": 2092, "pitch": 66, "duration": 8, "velocity": 78}, {"time": 2098, "pitch": 58, "duration": 4, "velocity": 77}, {"time": 2104, "pitch": 39, "duration": 3, "velocity": 88}, {"time": 2104, "pitch": 63, "duration": 7, "velocity": 84}, {"time": 2104, "pitch": 66, "duration": 8, "velocity": 81}, {"time": 2110, "pitch": 58, "duration": 2, "velocity": 80}, {"time": 2116, "pitch": 47, "duration": 6, "velocity": 81}, {"time": 2116, "pitch": 63, "duration": 7, "velocity": 81}, {"time": 2116, "pitch": 66, "duration": 8, "velocity": 75}, {"time": 2122, "pitch": 59, "duration": 3, "velocity": 72}, {"time": 2128, "pitch": 47, "duration": 3, "velocity": 93}, {"time": 2128, "pitch": 63, "duration": 4, "velocity": 86}, {"time": 2128, "pitch": 66, "duration": 4, "velocity": 79}, {"time": 2134, "pitch": 59, "duration": 4, "velocity": 79}, {"time": 2140, "pitch": 47, "duration": 7, "velocity": 78}, {"time": 2140, "pitch": 63, "duration": 8, "velocity": 79}, {"time": 2140, "pitch": 66, "duration": 7, "velocity": 77}, {"time": 2146, "pitch": 59, "duration": 3, "velocity": 75}, {"time": 2152, "pitch": 47, "duration": 3, "velocity": 86}, {"time": 2152, "pitch": 59, "duration": 2, "velocity": 66}, {"time": 2152, "pitch": 63, "duration": 4, "velocity": 80}, {"time": 2152, "pitch": 66, "duration": 4, "velocity": 79}, {"time": 2164, "pitch": 42, "duration": 8, "velocity": 77}, {"time": 2164, "pitch": 58, "duration": 2, "velocity": 67}, {"time": 2164, "pitch": 61, "duration": 8, "velocity": 77}, {"time": 2164, "pitch": 66, "duration": 8, "velocity": 77}, {"time": 2170, "pitch": 58, "duration": 3, "velocity": 73}, {"time": 2176, "pitch": 42, "duration": 3, "velocity": 76}, {"time": 2176, "pitch": 61, "duration": 4, "velocity": 79}, {"time": 2176, "pitch": 66, "duration": 4, "velocity": 77}, {"time": 2182, "pitch": 58, "duration": 6, "velocity": 78}, {"time": 2188, "pitch": 42, "duration": 8, "velocity": 76}, {"time": 2188, "pitch": 61, "duration": 7, "velocity": 78}, {"time": 2188, "pitch": 66, "duration": 4, "velocity": 78}, {"time": 2194, "pitch": 58, "duration": 4, "velocity": 71}, {"time": 2200, "pitch": 42, "duration": 3, "velocity": 77}, {"time": 2200, "pitch": 61, "duration": 4, "velocity": 82}, {"time": 2200, "pitch": 66, "duration": 4, "velocity": 79}, {"time": 2206, "pitch": 58, "duration": 3, "velocity": 71}, {"time": 2212, "pitch": 49, "duration": 7, "velocity": 83}, {"time": 2212, "pitch": 61, "duration": 7, "velocity": 81}, {"time": 2212, "pitch": 65, "duration": 7, "velocity": 81}, {"time": 2218, "pitch": 56, "duration": 3, "velocity": 73}, {"time": 2224, "pitch": 49, "duration": 3, "velocity": 86}, {"time": 2224, "pitch": 61, "duration": 4, "velocity": 82}, {"time": 2224, "pitch": 65, "duration": 4, "velocity": 80}, {"time": 2230, "pitch": 56, "duration": 3, "velocity": 78}, {"time": 2236, "pitch": 49, "duration": 9, "velocity": 79}, {"time": 2236, "pitch": 61, "duration": 8, "velocity": 80}, {"time": 2236, "pitch": 65, "duration": 8, "velocity": 79}, {"time": 2242, "pitch": 56, "duration": 4, "velocity": 81}, {"time": 2248, "pitch": 49, "duration": 12, "velocity": 93}, {"time": 2248, "pitch": 61, "duration": 11, "velocity": 84}, {"time": 2248, "pitch": 65, "duration": 10, "velocity": 88}, {"time": 2254, "pitch": 56, "duration": 5, "velocity": 81}, {"time": 2260, "pitch": 51, "duration": 10, "velocity": 88}, {"time": 2260, "pitch": 58, "duration": 4, "velocity": 77}, {"time": 2260, "pitch": 63, "duration": 8, "velocity": 79}, {"time": 2266, "pitch": 58, "duration": 4, "velocity": 81}, {"time": 2272, "pitch": 51, "duration": 4, "velocity": 84}, {"time": 2272, "pitch": 63, "duration": 8, "velocity": 80}, {"time": 2272, "pitch": 66, "duration": 7, "velocity": 84}, {"time": 2278, "pitch": 58, "duration": 7, "velocity": 78}, {"time": 2284, "pitch": 51, "duration": 9, "velocity": 82}, {"time": 2284, "pitch": 63, "duration": 8, "velocity": 77}, {"time": 2284, "pitch": 66, "duration": 9, "velocity": 77}, {"time": 2290, "pitch": 58, "duration": 5, "velocity": 70}, {"time": 2296, "pitch": 51, "duration": 3, "velocity": 80}, {"time": 2296, "pitch": 63, "duration": 8, "velocity": 84}, {"time": 2296, "pitch": 66, "duration": 8, "velocity": 81}, {"time": 2302, "pitch": 58, "duration": 2, "velocity": 79}, {"time": 2308, "pitch": 47, "duration": 9, "velocity": 82}, {"time": 2308, "pitch": 63, "duration": 8, "velocity": 79}, {"time": 2308, "pitch": 66, "duration": 8, "velocity": 78}, {"time": 2314, "pitch": 59, "duration": 8, "velocity": 69}, {"time": 2320, "pitch": 47, "duration": 10, "velocity": 78}, {"time": 2320, "pitch": 63, "duration": 8, "velocity": 79}, {"time": 2320, "pitch": 66, "duration": 8, "velocity": 79}, {"time": 2326, "pitch": 59, "duration": 7, "velocity": 72}, {"time": 2332, "pitch": 47, "duration": 8, "velocity": 79}, {"time": 2332, "pitch": 63, "duration": 8, "velocity": 79}, {"time": 2332, "pitch": 66, "duration": 7, "velocity": 79}, {"time": 2338, "pitch": 59, "duration": 3, "velocity": 65}, {"time": 2344, "pitch": 47, "duration": 4, "velocity": 81}, {"time": 2344, "pitch": 59, "duration": 2, "velocity": 79}, {"time": 2344, "pitch": 63, "duration": 5, "velocity": 79}, {"time": 2344, "pitch": 66, "duration": 8, "velocity": 78}, {"time": 2350, "pitch": 59, "duration": 2, "velocity": 72}, {"time": 2356, "pitch": 42, "duration": 10, "velocity": 78}, {"time": 2356, "pitch": 58, "duration": 3, "velocity": 77}, {"time": 2356, "pitch": 61, "duration": 7, "velocity": 78}, {"time": 2362, "pitch": 58, "duration": 3, "velocity": 68}, {"time": 2368, "pitch": 42, "duration": 6, "velocity": 78}, {"time": 2368, "pitch": 61, "duration": 4, "velocity": 83}, {"time": 2368, "pitch": 66, "duration": 4, "velocity": 78}, {"time": 2374, "pitch": 58, "duration": 3, "velocity": 77}, {"time": 2380, "pitch": 42, "duration": 8, "velocity": 76}, {"time": 2380, "pitch": 61, "duration": 8, "velocity": 78}, {"time": 2380, "pitch": 66, "duration": 7, "velocity": 78}, {"time": 2386, "pitch": 58, "duration": 3, "velocity": 77}, {"time": 2392, "pitch": 42, "duration": 4, "velocity": 79}, {"time": 2392, "pitch": 61, "duration": 3, "velocity": 81}, {"time": 2392, "pitch": 66, "duration": 4, "velocity": 79}, {"time": 2398, "pitch": 58, "duration": 3, "velocity": 77}, {"time": 2404, "pitch": 49, "duration": 8, "velocity": 84}, {"time": 2404, "pitch": 61, "duration": 7, "velocity": 77}, {"time": 2404, "pitch": 65, "duration": 7, "velocity": 79}, {"time": 2410, "pitch": 56, "duration": 3, "velocity": 78}, {"time": 2416, "pitch": 49, "duration": 4, "velocity": 88}, {"time": 2416, "pitch": 56, "duration": 2, "velocity": 79}, {"time": 2416, "pitch": 61, "duration": 8, "velocity": 83}, {"time": 2416, "pitch": 65, "duration": 8, "velocity": 80}, {"time": 2422, "pitch": 56, "duration": 4, "velocity": 78}, {"time": 2428, "pitch": 49, "duration": 7, "velocity": 79}, {"time": 2428, "pitch": 56, "duration": 2, "velocity": 68}, {"time": 2428, "pitch": 61, "duration": 5, "velocity": 78}, {"time": 2428, "pitch": 65, "duration": 6, "velocity": 78}, {"time": 2434, "pitch": 56, "duration": 3, "velocity": 78}, {"time": 2434, "pitch": 61, "duration": 1, "velocity": 44}, {"time": 2440, "pitch": 49, "duration": 2, "velocity": 91}, {"time": 2440, "pitch": 56, "duration": 2, "velocity": 80}, {"time": 2440, "pitch": 61, "duration": 3, "velocity": 91}, {"time": 2440, "pitch": 65, "duration": 3, "velocity": 82}, {"time": 2452, "pitch": 39, "duration": 9, "velocity": 86}, {"time": 2452, "pitch": 58, "duration": 2, "velocity": 69}, {"time": 2452, "pitch": 63, "duration": 8, "velocity": 76}, {"time": 2452, "pitch": 66, "duration": 8, "velocity": 73}, {"time": 2458, "pitch": 58, "duration": 3, "velocity": 73}, {"time": 2464, "pitch": 39, "duration": 5, "velocity": 86}, {"time": 2464, "pitch": 63, "duration": 4, "velocity": 79}, {"time": 2464, "pitch": 66, "duration": 8, "velocity": 82}, {"time": 2470, "pitch": 58, "duration": 7, "velocity": 80}, {"time": 2476, "pitch": 39, "duration": 8, "velocity": 84}, {"time": 2476, "pitch": 63, "duration": 8, "velocity": 78}, {"time": 2476, "pitch": 66, "duration": 8, "velocity": 78}, {"time": 2482, "pitch": 58, "duration": 4, "velocity": 77}, {"time": 2488, "pitch": 39, "duration": 3, "velocity": 88}, {"time": 2488, "pitch": 63, "duration": 7, "velocity": 84}, {"time": 2488, "pitch": 66, "duration": 8, "velocity": 81}, {"time": 2494, "pitch": 58, "duration": 2, "velocity": 80}, {"time": 2500, "pitch": 47, "duration": 6, "velocity": 81}, {"time": 2500, "pitch": 63, "duration": 7, "velocity": 81}, {"time": 2500, "pitch": 66, "duration": 8, "velocity": 75}, {"time": 2506, "pitch": 59, "duration": 3, "velocity": 72}, {"time": 2512, "pitch": 47, "duration": 3, "velocity": 93}, {"time": 2512, "pitch": 63, "duration": 4, "velocity": 86}, {"time": 2512, "pitch": 66, "duration": 4, "velocity": 79}, {"time": 2518, "pitch": 59, "duration": 4, "velocity": 79}, {"time": 2524, "pitch": 47, "duration": 7, "velocity": 78}, {"time": 2524, "pitch": 63, "duration": 8, "velocity": 79}, {"time": 2524, "pitch": 66, "duration": 7, "velocity": 77}, {"time": 2530, "pitch": 59, "duration": 3, "velocity": 75}, {"time": 2536, "pitch": 47, "duration": 3, "velocity": 86}, {"time": 2536, "pitch": 59, "duration": 2, "velocity": 66}, {"time": 2536, "pitch": 63, "duration": 4, "velocity": 80}, {"time": 2536, "pitch": 66, "duration": 4, "velocity": 79}, {"time": 2548, "pitch": 42, "duration": 8, "velocity": 77}, {"time": 2548, "pitch": 58, "duration": 2, "velocity": 67}, {"time": 2548, "pitch": 61, "duration": 8, "velocity": 77}, {"time": 2548, "pitch": 66, "duration": 8, "velocity": 77}, {"time": 2554, "pitch": 58, "duration": 3, "velocity": 73}, {"time": 2560, "pitch": 42, "duration": 3, "velocity": 76}, {"time": 2560, "pitch": 61, "duration": 4, "velocity": 79}, {"time": 2560, "pitch": 66, "duration": 4, "velocity": 77}, {"time": 2566, "pitch": 58, "duration": 6, "velocity": 78}, {"time": 2572, "pitch": 42, "duration": 8, "velocity": 76}, {"time": 2572, "pitch": 61, "duration": 7, "velocity": 78}, {"time": 2572, "pitch": 66, "duration": 4, "velocity": 78}, {"time": 2578, "pitch": 58, "duration": 4, "velocity": 71}, {"time": 2584, "pitch": 42, "duration": 3, "velocity": 77}, {"time": 2584, "pitch": 61, "duration": 4, "velocity": 82}, {"time": 2584, "pitch": 66, "duration": 4, "velocity": 79}, {"time": 2590, "pitch": 58, "duration": 3, "velocity": 71}, {"time": 2596, "pitch": 49, "duration": 7, "velocity": 83}, {"time": 2596, "pitch": 61, "duration": 7, "velocity": 81}, {"time": 2596, "pitch": 65, "duration": 7, "velocity": 81}, {"time": 2602, "pitch": 56, "duration": 3, "velocity": 73}, {"time": 2608, "pitch": 49, "duration": 3, "velocity": 86}, {"time": 2608, "pitch": 61, "duration": 4, "velocity": 82}, {"time": 2608, "pitch": 65, "duration": 4, "velocity": 80}, {"time": 2614, "pitch": 56, "duration": 3, "velocity": 78}, {"time": 2620, "pitch": 49, "duration": 9, "velocity": 79}, {"time": 2620, "pitch": 61, "duration": 8, "velocity": 80}, {"time": 2620, "pitch": 65, "duration": 8, "velocity": 79}, {"time": 2626, "pitch": 56, "duration": 4, "velocity": 81}, {"time": 2632, "pitch": 49, "duration": 12, "velocity": 93}, {"time": 2632, "pitch": 61, "duration": 11, "velocity": 84}, {"time": 2632, "pitch": 65, "duration": 10, "velocity": 88}, {"time": 2638, "pitch": 56, "duration": 5, "velocity": 81}, {"time": 2644, "pitch": 51, "duration": 37, "velocity": 83}, {"time": 2644, "pitch": 58, "duration": 15, "velocity": 72}, {"time": 2644, "pitch": 63, "duration": 15, "velocity": 78}, {"time": 2662, "pitch": 58, "duration": 3, "velocity": 83}, {"time": 2662, "pitch": 66, "duration": 4, "velocity": 82}, {"time": 2674, "pitch": 58, "duration": 2, "velocity": 78}, {"time": 2680, "pitch": 58, "duration": 2, "velocity": 78}, {"time": 2680, "pitch": 66, "duration": 5, "velocity": 84}, {"time": 2692, "pitch": 47, "duration": 12, "velocity": 84}, {"time": 2692, "pitch": 59, "duration": 8, "velocity": 78}, {"time": 2692, "pitch": 63, "duration": 12, "velocity": 79}, {"time": 2692, "pitch": 66, "duration": 12, "velocity": 77}, {"time": 2710, "pitch": 59, "duration": 4, "velocity": 71}, {"time": 2716, "pitch": 47, "duration": 12, "velocity": 79}, {"time": 2716, "pitch": 59, "duration": 7, "velocity": 77}, {"time": 2716, "pitch": 63, "duration": 12, "velocity": 77}, {"time": 2716, "pitch": 66, "duration": 14, "velocity": 78}, {"time": 2728, "pitch": 59, "duration": 3, "velocity": 82}, {"time": 2740, "pitch": 42, "duration": 32, "velocity": 75}, {"time": 2740, "pitch": 58, "duration": 8, "velocity": 79}, {"time": 2740, "pitch": 61, "duration": 13, "velocity": 78}, {"time": 2752, "pitch": 58, "duration": 2, "velocity": 69}, {"time": 2758, "pitch": 58, "duration": 3, "velocity": 83}, {"time": 2758, "pitch": 66, "duration": 3, "velocity": 81}, {"time": 2770, "pitch": 58, "duration": 4, "velocity": 79}, {"time": 2770, "pitch": 61, "duration": 8, "velocity": 91}, {"time": 2770, "pitch": 66, "duration": 8, "velocity": 79}, {"time": 2776, "pitch": 42, "duration": 5, "velocity": 77}, {"time": 2782, "pitch": 58, "duration": 3, "velocity": 78}, {"time": 2788, "pitch": 49, "duration": 19, "velocity": 86}, {"time": 2788, "pitch": 56, "duration": 5, "velocity": 79}, {"time": 2788, "pitch": 61, "duration": 14, "velocity": 79}, {"time": 2806, "pitch": 56, "duration": 3, "velocity": 78}, {"time": 2812, "pitch": 49, "duration": 12, "velocity": 84}, {"time": 2812, "pitch": 56, "duration": 4, "velocity": 81}, {"time": 2812, "pitch": 61, "duration": 6, "velocity": 80}, {"time": 2812, "pitch": 65, "duration": 8, "velocity": 83}, {"time": 2818, "pitch": 56, "duration": 3, "velocity": 79}, {"time": 2824, "pitch": 56, "duration": 3, "velocity": 79}, {"time": 2824, "pitch": 61, "duration": 5, "velocity": 84}, {"time": 2830, "pitch": 56, "duration": 2, "velocity": 81}, {"time": 2830, "pitch": 61, "duration": 1, "velocity": 61}, {"time": 2836, "pitch": 51, "duration": 23, "velocity": 79}, {"time": 2836, "pitch": 58, "duration": 4, "velocity": 77}, {"time": 2836, "pitch": 63, "duration": 19, "velocity": 77}, {"time": 2854, "pitch": 58, "duration": 3, "velocity": 66}, {"time": 2860, "pitch": 58, "duration": 3, "velocity": 80}, {"time": 2860, "pitch": 63, "duration": 8, "velocity": 86}, {"time": 2860, "pitch": 66, "duration": 8, "velocity": 78}, {"time": 2866, "pitch": 58, "duration": 3, "velocity": 71}, {"time": 2872, "pitch": 46, "duration": 5, "velocity": 71}, {"time": 2872, "pitch": 58, "duration": 2, "velocity": 72}, {"time": 2872, "pitch": 63, "duration": 6, "velocity": 77}, {"time": 2872, "pitch": 66, "duration": 5, "velocity": 77}, {"time": 2878, "pitch": 58, "duration": 4, "velocity": 64}, {"time": 2884, "pitch": 47, "duration": 13, "velocity": 79}, {"time": 2884, "pitch": 59, "duration": 12, "velocity": 67}, {"time": 2884, "pitch": 63, "duration": 14, "velocity": 78}, {"time": 2902, "pitch": 59, "duration": 3, "velocity": 63}, {"time": 2902, "pitch": 63, "duration": 2, "velocity": 61}, {"time": 2908, "pitch": 54, "duration": 6, "velocity": 72}, {"time": 2908, "pitch": 59, "duration": 3, "velocity": 77}, {"time": 2908, "pitch": 63, "duration": 9, "velocity": 80}, {"time": 2908, "pitch": 66, "duration": 8, "velocity": 78}, {"time": 2914, "pitch": 59, "duration": 3, "velocity": 75}, {"time": 2920, "pitch": 47, "duration": 2, "velocity": 86}, {"time": 2920, "pitch": 59, "duration": 3, "velocity": 80}, {"time": 2920, "pitch": 63, "duration": 10, "velocity": 79}, {"time": 2920, "pitch": 66, "duration": 10, "velocity": 77}, {"time": 2926, "pitch": 59, "duration": 4, "velocity": 73}, {"time": 2932, "pitch": 42, "duration": 36, "velocity": 79}, {"time": 2932, "pitch": 54, "duration": 12, "velocity": 79}, {"time": 2932, "pitch": 58, "duration": 13, "velocity": 79}, {"time": 2950, "pitch": 54, "duration": 3, "velocity": 80}, {"time": 2956, "pitch": 54, "duration": 4, "velocity": 84}, {"time": 2956, "pitch": 66, "duration": 9, "velocity": 78}, {"time": 2962, "pitch": 49, "duration": 6, "velocity": 78}, {"time": 2968, "pitch": 54, "duration": 2, "velocity": 81}, {"time": 2968, "pitch": 58, "duration": 6, "velocity": 81}, {"time": 2968, "pitch": 61, "duration": 8, "velocity": 79}, {"time": 2968, "pitch": 66, "duration": 1, "velocity": 60}, {"time": 2974, "pitch": 54, "duration": 3, "velocity": 77}, {"time": 2980, "pitch": 49, "duration": 45, "velocity": 81}, {"time": 2980, "pitch": 56, "duration": 6, "velocity": 83}, {"time": 2980, "pitch": 61, "duration": 14, "velocity": 80}, {"time": 2998, "pitch": 56, "duration": 3, "velocity": 74}, {"time": 3004, "pitch": 56, "duration": 3, "velocity": 88}, {"time": 3004, "pitch": 65, "duration": 4, "velocity": 86}, {"time": 3010, "pitch": 61, "duration": 5, "velocity": 78}, {"time": 3016, "pitch": 56, "duration": 4, "velocity": 79}, {"time": 3022, "pitch": 61, "duration": 3, "velocity": 72}, {"time": 3028, "pitch": 37, "duration": 25, "velocity": 78}, {"time": 3028, "pitch": 56, "duration": 27, "velocity": 75}, {"time": 3028, "pitch": 61, "duration": 27, "velocity": 76}, {"time": 3028, "pitch": 65, "duration": 27, "velocity": 79}, {"time": 3076, "pitch": 51, "duration": 12, "velocity": 80}, {"time": 3076, "pitch": 58, "duration": 3, "velocity": 77}, {"time": 3076, "pitch": 63, "duration": 6, "velocity": 78}, {"time": 3082, "pitch": 58, "duration": 3, "velocity": 76}, {"time": 3088, "pitch": 58, "duration": 3, "velocity": 78}, {"time": 3088, "pitch": 63, "duration": 3, "velocity": 82}, {"time": 3088, "pitch": 66, "duration": 4, "velocity": 69}, {"time": 3094, "pitch": 51, "duration": 9, "velocity": 86}, {"time": 3094, "pitch": 58, "duration": 5, "velocity": 76}, {"time": 3094, "pitch": 63, "duration": 6, "velocity": 78}, {"time": 3094, "pitch": 66, "duration": 6, "velocity": 76}, {"time": 3106, "pitch": 58, "duration": 3, "velocity": 77}, {"time": 3112, "pitch": 51, "duration": 2, "velocity": 83}, {"time": 3112, "pitch": 58, "duration": 2, "velocity": 74}, {"time": 3112, "pitch": 63, "duration": 3, "velocity": 84}, {"time": 3112, "pitch": 66, "duration": 8, "velocity": 77}, {"time": 3118, "pitch": 58, "duration": 3, "velocity": 78}, {"time": 3124, "pitch": 47, "duration": 10, "velocity": 83}, {"time": 3124, "pitch": 59, "duration": 3, "velocity": 75}, {"time": 3124, "pitch": 63, "duration": 8, "velocity": 64}, {"time": 3130, "pitch": 59, "duration": 2, "velocity": 68}, {"time": 3136, "pitch": 59, "duration": 2, "velocity": 63}, {"time": 3136, "pitch": 63, "duration": 2, "velocity": 72}, {"time": 3142, "pitch": 47, "duration": 3, "velocity": 81}, {"time": 3142, "pitch": 59, "duration": 2, "velocity": 78}, {"time": 3142, "pitch": 63, "duration": 3, "velocity": 78}, {"time": 3142, "pitch": 66, "duration": 3, "velocity": 73}, {"time": 3154, "pitch": 59, "duration": 2, "velocity": 70}, {"time": 3160, "pitch": 47, "duration": 3, "velocity": 84}, {"time": 3160, "pitch": 59, "duration": 2, "velocity": 79}, {"time": 3160, "pitch": 63, "duration": 3, "velocity": 78}, {"time": 3160, "pitch": 66, "duration": 5, "velocity": 74}, {"time": 3172, "pitch": 42, "duration": 14, "velocity": 78}, {"time": 3172, "pitch": 58, "duration": 3, "velocity": 71}, {"time": 3172, "pitch": 61, "duration": 6, "velocity": 77}, {"time": 3172, "pitch": 66, "duration": 6, "velocity": 75}, {"time": 3178, "pitch": 58, "duration": 3, "velocity": 68}, {"time": 3184, "pitch": 61, "duration": 2, "velocity": 67}, {"time": 3184, "pitch": 66, "duration": 2, "velocity": 69}, {"time": 3190, "pitch": 42, "duration": 4, "velocity": 76}, {"time": 3190, "pitch": 58, "duration": 2, "velocity": 77}, {"time": 3190, "pitch": 61, "duration": 3, "velocity": 82}, {"time": 3190, "pitch": 66, "duration": 4, "velocity": 77}, {"time": 3202, "pitch": 58, "duration": 2, "velocity": 72}, {"time": 3208, "pitch": 42, "duration": 3, "velocity": 76}, {"time": 3208, "pitch": 58, "duration": 2, "velocity": 77}, {"time": 3208, "pitch": 61, "duration": 3, "velocity": 88}, {"time": 3208, "pitch": 66, "duration": 4, "velocity": 77}, {"time": 3214, "pitch": 58, "duration": 2, "velocity": 78}, {"time": 3220, "pitch": 49, "duration": 6, "velocity": 84}, {"time": 3220, "pitch": 56, "duration": 3, "velocity": 77}, {"time": 3220, "pitch": 61, "duration": 6, "velocity": 78}, {"time": 3220, "pitch": 65, "duration": 6, "velocity": 80}, {"time": 3226, "pitch": 56, "duration": 3, "velocity": 75}, {"time": 3232, "pitch": 61, "duration": 2, "velocity": 66}, {"time": 3238, "pitch": 49, "duration": 3, "velocity": 83}, {"time": 3238, "pitch": 56, "duration": 3, "velocity": 79}, {"time": 3238, "pitch": 61, "duration": 4, "velocity": 83}, {"time": 3238, "pitch": 65, "duration": 4, "velocity": 83}, {"time": 3250, "pitch": 56, "duration": 3, "velocity": 77}, {"time": 3256, "pitch": 49, "duration": 8, "velocity": 86}, {"time": 3256, "pitch": 56, "duration": 1, "velocity": 67}, {"time": 3256, "pitch": 61, "duration": 8, "velocity": 83}, {"time": 3256, "pitch": 65, "duration": 8, "velocity": 82}, {"time": 3262, "pitch": 56, "duration": 3, "velocity": 81}, {"time": 3268, "pitch": 51, "duration": 12, "velocity": 80}, {"time": 3268, "pitch": 58, "duration": 3, "velocity": 77}, {"time": 3268, "pitch": 63, "duration": 6, "velocity": 78}, {"time": 3274, "pitch": 58, "duration": 3, "velocity": 76}, {"time": 3280, "pitch": 58, "duration": 3, "velocity": 78}, {"time": 3280, "pitch": 63, "duration": 3, "velocity": 82}, {"time": 3280, "pitch": 66, "duration": 4, "velocity": 69}, {"time": 3286, "pitch": 51, "duration": 9, "velocity": 86}, {"time": 3286, "pitch": 58, "duration": 5, "velocity": 76}, {"time": 3286, "pitch": 63, "duration": 6, "velocity": 78}, {"time": 3286, "pitch": 66, "duration": 6, "velocity": 76}, {"time": 3298, "pitch": 58, "duration": 3, "velocity": 77}, {"time": 3304, "pitch": 51, "duration": 2, "velocity": 83}, {"time": 3304, "pitch": 58, "duration": 2, "velocity": 74}, {"time": 3304, "pitch": 63, "duration": 3, "velocity": 84}, {"time": 3304, "pitch": 66, "duration": 8, "velocity": 77}, {"time": 3310, "pitch": 58, "duration": 3, "velocity": 78}, {"time": 3316, "pitch": 47, "duration": 10, "velocity": 83}, {"time": 3316, "pitch": 59, "duration": 3, "velocity": 75}, {"time": 3316, "pitch": 63, "duration": 8, "velocity": 64}, {"time": 3322, "pitch": 59, "duration": 2, "velocity": 68}, {"time": 3328, "pitch": 59, "duration": 2, "velocity": 63}, {"time": 3328, "pitch": 63, "duration": 2, "velocity": 72}, {"time": 3334, "pitch": 47, "duration": 3, "velocity": 81}, {"time": 3334, "pitch": 59, "duration": 2, "velocity": 78}, {"time": 3334, "pitch": 63, "duration": 3, "velocity": 78}, {"time": 3334, "pitch": 66, "duration": 3, "velocity": 73}, {"time": 3346, "pitch": 59, "duration": 2, "velocity": 70}, {"time": 3352, "pitch": 47, "duration": 3, "velocity": 84}, {"time": 3352, "pitch": 59, "duration": 2, "velocity": 79}, {"time": 3352, "pitch": 63, "duration": 3, "velocity": 78}, {"time": 3352, "pitch": 66, "duration": 5, "velocity": 74}, {"time": 3364, "pitch": 42, "duration": 14, "velocity": 78}, {"time": 3364, "pitch": 58, "duration": 3, "velocity": 71}, {"time": 3364, "pitch": 61, "duration": 6, "velocity": 77}, {"time": 3364, "pitch": 66, "duration": 6, "velocity": 75}, {"time": 3370, "pitch": 58, "duration": 3, "velocity": 68}, {"time": 3376, "pitch": 61, "duration": 2, "velocity": 67}, {"time": 3376, "pitch": 66, "duration": 2, "velocity": 69}, {"time": 3382, "pitch": 42, "duration": 4, "velocity": 76}, {"time": 3382, "pitch": 58, "duration": 2, "velocity": 77}, {"time": 3382, "pitch": 61, "duration": 3, "velocity": 82}, {"time": 3382, "pitch": 66, "duration": 4, "velocity": 77}, {"time": 3394, "pitch": 58, "duration": 2, "velocity": 72}, {"time": 3400, "pitch": 42, "duration": 3, "velocity": 76}, {"time": 3400, "pitch": 58, "duration": 2, "velocity": 77}, {"time": 3400, "pitch": 61, "duration": 3, "velocity": 88}, {"time": 3400, "pitch": 66, "duration": 4, "velocity": 77}, {"time": 3406, "pitch": 58, "duration": 2, "velocity": 78}, {"time": 3412, "pitch": 49, "duration": 6, "velocity": 84}, {"time": 3412, "pitch": 56, "duration": 3, "velocity": 77}, {"time": 3412, "pitch": 61, "duration": 6, "velocity": 78}, {"time": 3412, "pitch": 65, "duration": 6, "velocity": 80}, {"time": 3418, "pitch": 56, "duration": 3, "velocity": 75}, {"time": 3424, "pitch": 61, "duration": 2, "velocity": 66}, {"time": 3430, "pitch": 49, "duration": 3, "velocity": 83}, {"time": 3430, "pitch": 56, "duration": 3, "velocity": 79}, {"time": 3430, "pitch": 61, "duration": 4, "velocity": 83}, {"time": 3430, "pitch": 65, "duration": 4, "velocity": 83}, {"time": 3442, "pitch": 56, "duration": 3, "velocity": 77}, {"time": 3448, "pitch": 49, "duration": 8, "velocity": 86}, {"time": 3448, "pitch": 56, "duration": 1, "velocity": 67}, {"time": 3448, "pitch": 61, "duration": 8, "velocity": 83}, {"time": 3448, "pitch": 65, "duration": 8, "velocity": 82}, {"time": 3454, "pitch": 56, "duration": 3, "velocity": 81}, {"time": 3460, "pitch": 44, "duration": 35, "velocity": 78}, {"time": 3460, "pitch": 56, "duration": 5, "velocity": 79}, {"time": 3460, "pitch": 63, "duration": 10, "velocity": 77}, {"time": 3460, "pitch": 68, "duration": 7, "velocity": 77}, {"time": 3466, "pitch": 51, "duration": 28, "velocity": 73}, {"time": 3472, "pitch": 56, "duration": 3, "velocity": 82}, {"time": 3478, "pitch": 56, "duration": 2, "velocity": 82}, {"time": 3478, "pitch": 63, "duration": 2, "velocity": 82}, {"time": 3478, "pitch": 68, "duration": 3, "velocity": 78}, {"time": 3490, "pitch": 56, "duration": 3, "velocity": 80}, {"time": 3490, "pitch": 63, "duration": 3, "velocity": 81}, {"time": 3508, "pitch": 39, "duration": 32, "velocity": 80}, {"time": 3508, "pitch": 58, "duration": 4, "velocity": 74}, {"time": 3508, "pitch": 66, "duration": 9, "velocity": 74}, {"time": 3514, "pitch": 58, "duration": 6, "velocity": 75}, {"time": 3520, "pitch": 63, "duration": 2, "velocity": 72}, {"time": 3526, "pitch": 58, "duration": 3, "velocity": 82}, {"time": 3526, "pitch": 66, "duration": 3, "velocity": 81}, {"time": 3538, "pitch": 58, "duration": 2, "velocity": 78}, {"time": 3538, "pitch": 63, "duration": 3, "velocity": 80}, {"time": 3538, "pitch": 66, "duration": 4, "velocity": 81}, {"time": 3556, "pitch": 44, "duration": 44, "velocity": 78}, {"time": 3556, "pitch": 56, "duration": 4, "velocity": 78}, {"time": 3556, "pitch": 63, "duration": 11, "velocity": 77}, {"time": 3562, "pitch": 51, "duration": 39, "velocity": 76}, {"time": 3568, "pitch": 56, "duration": 2, "velocity": 74}, {"time": 3574, "pitch": 56, "duration": 4, "velocity": 81}, {"time": 3574, "pitch": 63, "duration": 3, "velocity": 81}, {"time": 3574, "pitch": 68, "duration": 4, "velocity": 77}, {"time": 3586, "pitch": 56, "duration": 2, "velocity": 80}, {"time": 3586, "pitch": 63, "duration": 2, "velocity": 81}, {"time": 3586, "pitch": 68, "duration": 3, "velocity": 78}, {"time": 3598, "pitch": 56, "duration": 2, "velocity": 80}, {"time": 3604, "pitch": 51, "duration": 22, "velocity": 79}, {"time": 3604, "pitch": 58, "duration": 4, "velocity": 74}, {"time": 3604, "pitch": 63, "duration": 7, "velocity": 78}, {"time": 3610, "pitch": 58, "duration": 4, "velocity": 78}, {"time": 3616, "pitch": 63, "duration": 2, "velocity": 68}, {"time": 3622, "pitch": 58, "duration": 3, "velocity": 82}, {"time": 3622, "pitch": 66, "duration": 3, "velocity": 86}, {"time": 3634, "pitch": 58, "duration": 3, "velocity": 82}, {"time": 3634, "pitch": 63, "duration": 5, "velocity": 84}, {"time": 3646, "pitch": 58, "duration": 3, "velocity": 77}, {"time": 3652, "pitch": 44, "duration": 42, "velocity": 78}, {"time": 3652, "pitch": 56, "duration": 7, "velocity": 79}, {"time": 3652, "pitch": 63, "duration": 13, "velocity": 77}, {"time": 3658, "pitch": 51, "duration": 34, "velocity": 72}, {"time": 3664, "pitch": 56, "duration": 2, "velocity": 79}, {"time": 3670, "pitch": 56, "duration": 4, "velocity": 80}, {"time": 3670, "pitch": 63, "duration": 3, "velocity": 82}, {"time": 3670, "pitch": 68, "duration": 4, "velocity": 77}, {"time": 3682, "pitch": 56, "duration": 3, "velocity": 78}, {"time": 3682, "pitch": 63, "duration": 4, "velocity": 78}, {"time": 3694, "pitch": 56, "duration": 2, "velocity": 78}, {"time": 3700, "pitch": 51, "duration": 35, "velocity": 75}, {"time": 3700, "pitch": 58, "duration": 3, "velocity": 77}, {"time": 3700, "pitch": 63, "duration": 7, "velocity": 79}, {"time": 3706, "pitch": 58, "duration": 7, "velocity": 78}, {"time": 3712, "pitch": 63, "duration": 2, "velocity": 73}, {"time": 3718, "pitch": 58, "duration": 3, "velocity": 83}, {"time": 3718, "pitch": 66, "duration": 3, "velocity": 83}, {"time": 3730, "pitch": 58, "duration": 3, "velocity": 79}, {"time": 3730, "pitch": 63, "duration": 3, "velocity": 82}, {"time": 3748, "pitch": 47, "duration": 28, "velocity": 88}, {"time": 3754, "pitch": 54, "duration": 14, "velocity": 62}, {"time": 3760, "pitch": 59, "duration": 4, "velocity": 76}, {"time": 3766, "pitch": 59, "duration": 8, "velocity": 79}, {"time": 3766, "pitch": 63, "duration": 7, "velocity": 79}, {"time": 3766, "pitch": 66, "duration": 7, "velocity": 79}, {"time": 3772, "pitch": 54, "duration": 6, "velocity": 77}, {"time": 3778, "pitch": 59, "duration": 2, "velocity": 78}, {"time": 3778, "pitch": 63, "duration": 2, "velocity": 77}, {"time": 3778, "pitch": 66, "duration": 3, "velocity": 79}, {"time": 3796, "pitch": 46, "duration": 47, "velocity": 81}, {"time": 3796, "pitch": 58, "duration": 22, "velocity": 77}, {"time": 3796, "pitch": 62, "duration": 21, "velocity": 79}, {"time": 3796, "pitch": 65, "duration": 21, "velocity": 79}, {"time": 3796, "pitch": 70, "duration": 17, "velocity": 77}, {"time": 3820, "pitch": 58, "duration": 7, "velocity": 78}, {"time": 3820, "pitch": 62, "duration": 21, "velocity": 82}, {"time": 3820, "pitch": 65, "duration": 21, "velocity": 79}, {"time": 3826, "pitch": 53, "duration": 16, "velocity": 78}, {"time": 3832, "pitch": 58, "duration": 9, "velocity": 78}, {"time": 3844, "pitch": 51, "duration": 10, "velocity": 88}, {"time": 3844, "pitch": 58, "duration": 4, "velocity": 77}, {"time": 3844, "pitch": 63, "duration": 8, "velocity": 79}, {"time": 3850, "pitch": 58, "duration": 4, "velocity": 81}, {"time": 3856, "pitch": 51, "duration": 4, "velocity": 84}, {"time": 3856, "pitch": 63, "duration": 8, "velocity": 80}, {"time": 3856, "pitch": 66, "duration": 7, "velocity": 84}, {"time": 3862, "pitch": 58, "duration": 7, "velocity": 78}, {"time": 3868, "pitch": 51, "duration": 9, "velocity": 82}, {"time": 3868, "pitch": 63, "duration": 8, "velocity": 77}, {"time": 3868, "pitch": 66, "duration": 9, "velocity": 77}, {"time": 3874, "pitch": 58, "duration": 5, "velocity": 70}, {"time": 3880, "pitch": 51, "duration": 3, "velocity": 80}, {"time": 3880, "pitch": 63, "duration": 8, "velocity": 84}, {"time": 3880, "pitch": 66, "duration": 8, "velocity": 81}, {"time": 3886, "pitch": 58, "duration": 2, "velocity": 79}, {"time": 3892, "pitch": 47, "duration": 9, "velocity": 82}, {"time": 3892, "pitch": 63, "duration": 8, "velocity": 79}, {"time": 3892, "pitch": 66, "duration": 8, "velocity": 78}, {"time": 3898, "pitch": 59, "duration": 8, "velocity": 69}, {"time": 3904, "pitch": 47, "duration": 10, "velocity": 78}, {"time": 3904, "pitch": 63, "duration": 8, "velocity": 79}, {"time": 3904, "pitch": 66, "duration": 8, "velocity": 79}, {"time": 3910, "pitch": 59, "duration": 7, "velocity": 72}, {"time": 3916, "pitch": 47, "duration": 8, "velocity": 79}, {"time": 3916, "pitch": 63, "duration": 8, "velocity": 79}, {"time": 3916, "pitch": 66, "duration": 7, "velocity": 79}, {"time": 3922, "pitch": 59, "duration": 3, "velocity": 65}, {"time": 3928, "pitch": 47, "duration": 4, "velocity": 81}, {"time": 3928, "pitch": 59, "duration": 2, "velocity": 79}, {"time": 3928, "pitch": 63, "duration": 5, "velocity": 79}, {"time": 3928, "pitch": 66, "duration": 8, "velocity": 78}, {"time": 3934, "pitch": 59, "duration": 2, "velocity": 72}, {"time": 3940, "pitch": 42, "duration": 10, "velocity": 78}, {"time": 3940, "pitch": 58, "duration": 3, "velocity": 77}, {"time": 3940, "pitch": 61, "duration": 7, "velocity": 78}, {"time": 3946, "pitch": 58, "duration": 3, "velocity": 68}, {"time": 3952, "pitch": 42, "duration": 6, "velocity": 78}, {"time": 3952, "pitch": 61, "duration": 4, "velocity": 83}, {"time": 3952, "pitch": 66, "duration": 4, "velocity": 78}, {"time": 3958, "pitch": 58, "duration": 3, "velocity": 77}, {"time": 3964, "pitch": 42, "duration": 8, "velocity": 76}, {"time": 3964, "pitch": 61, "duration": 8, "velocity": 78}, {"time": 3964, "pitch": 66, "duration": 7, "velocity": 78}, {"time": 3970, "pitch": 58, "duration": 3, "velocity": 77}, {"time": 3976, "pitch": 42, "duration": 4, "velocity": 79}, {"time": 3976, "pitch": 61, "duration": 3, "velocity": 81}, {"time": 3976, "pitch": 66, "duration": 4, "velocity": 79}, {"time": 3982, "pitch": 58, "duration": 3, "velocity": 77}, {"time": 3988, "pitch": 49, "duration": 8, "velocity": 84}, {"time": 3988, "pitch": 61, "duration": 7, "velocity": 77}, {"time": 3988, "pitch": 65, "duration": 7, "velocity": 79}, {"time": 3994, "pitch": 56, "duration": 3, "velocity": 78}, {"time": 4000, "pitch": 49, "duration": 4, "velocity": 88}, {"time": 4000, "pitch": 56, "duration": 2, "velocity": 79}, {"time": 4000, "pitch": 61, "duration": 8, "velocity": 83}, {"time": 4000, "pitch": 65, "duration": 8, "velocity": 80}, {"time": 4006, "pitch": 56, "duration": 4, "velocity": 78}, {"time": 4012, "pitch": 49, "duration": 7, "velocity": 79}, {"time": 4012, "pitch": 56, "duration": 2, "velocity": 68}, {"time": 4012, "pitch": 61, "duration": 5, "velocity": 78}, {"time": 4012, "pitch": 65, "duration": 6, "velocity": 78}, {"time": 4018, "pitch": 56, "duration": 3, "velocity": 78}, {"time": 4018, "pitch": 61, "duration": 1, "velocity": 44}, {"time": 4024, "pitch": 49, "duration": 2, "velocity": 91}, {"time": 4024, "pitch": 56, "duration": 2, "velocity": 80}, {"time": 4024, "pitch": 61, "duration": 3, "velocity": 91}, {"time": 4024, "pitch": 65, "duration": 3, "velocity": 82}, {"time": 4036, "pitch": 39, "duration": 9, "velocity": 86}, {"time": 4036, "pitch": 58, "duration": 2, "velocity": 69}, {"time": 4036, "pitch": 63, "duration": 8, "velocity": 76}, {"time": 4036, "pitch": 66, "duration": 8, "velocity": 73}, {"time": 4042, "pitch": 58, "duration": 3, "velocity": 73}, {"time": 4048, "pitch": 39, "duration": 5, "velocity": 86}, {"time": 4048, "pitch": 63, "duration": 4, "velocity": 79}, {"time": 4048, "pitch": 66, "duration": 8, "velocity": 82}, {"time": 4054, "pitch": 58, "duration": 7, "velocity": 80}, {"time": 4060, "pitch": 39, "duration": 8, "velocity": 84}, {"time": 4060, "pitch": 63, "duration": 8, "velocity": 78}, {"time": 4060, "pitch": 66, "duration": 8, "velocity": 78}, {"time": 4066, "pitch": 58, "duration": 4, "velocity": 77}, {"time": 4072, "pitch": 39, "duration": 3, "velocity": 88}, {"time": 4072, "pitch": 63, "duration": 7, "velocity": 84}, {"time": 4072, "pitch": 66, "duration": 8, "velocity": 81}, {"time": 4078, "pitch": 58, "duration": 2, "velocity": 80}, {"time": 4084, "pitch": 47, "duration": 6, "velocity": 81}, {"time": 4084, "pitch": 63, "duration": 7, "velocity": 81}, {"time": 4084, "pitch": 66, "duration": 8, "velocity": 75}, {"time": 4090, "pitch": 59, "duration": 3, "velocity": 72}, {"time": 4096, "pitch": 47, "duration": 3, "velocity": 93}, {"time": 4096, "pitch": 63, "duration": 4, "velocity": 86}, {"time": 4096, "pitch": 66, "duration": 4, "velocity": 79}, {"time": 4102, "pitch": 59, "duration": 4, "velocity": 79}, {"time": 4108, "pitch": 47, "duration": 7, "velocity": 78}, {"time": 4108, "pitch": 63, "duration": 8, "velocity": 79}, {"time": 4108, "pitch": 66, "duration": 7, "velocity": 77}, {"time": 4114, "pitch": 59, "duration": 3, "velocity": 75}, {"time": 4120, "pitch": 47, "duration": 3, "velocity": 86}, {"time": 4120, "pitch": 59, "duration": 2, "velocity": 66}, {"time": 4120, "pitch": 63, "duration": 4, "velocity": 80}, {"time": 4120, "pitch": 66, "duration": 4, "velocity": 79}, {"time": 4132, "pitch": 42, "duration": 8, "velocity": 77}, {"time": 4132, "pitch": 58, "duration": 2, "velocity": 67}, {"time": 4132, "pitch": 61, "duration": 8, "velocity": 77}, {"time": 4132, "pitch": 66, "duration": 8, "velocity": 77}, {"time": 4138, "pitch": 58, "duration": 3, "velocity": 73}, {"time": 4144, "pitch": 42, "duration": 3, "velocity": 76}, {"time": 4144, "pitch": 61, "duration": 4, "velocity": 79}, {"time": 4144, "pitch": 66, "duration": 4, "velocity": 77}, {"time": 4150, "pitch": 58, "duration": 6, "velocity": 78}, {"time": 4156, "pitch": 42, "duration": 8, "velocity": 76}, {"time": 4156, "pitch": 61, "duration": 7, "velocity": 78}, {"time": 4156, "pitch": 66, "duration": 4, "velocity": 78}, {"time": 4162, "pitch": 58, "duration": 4, "velocity": 71}, {"time": 4168, "pitch": 42, "duration": 3, "velocity": 77}, {"time": 4168, "pitch": 61, "duration": 4, "velocity": 82}, {"time": 4168, "pitch": 66, "duration": 4, "velocity": 79}, {"time": 4174, "pitch": 58, "duration": 3, "velocity": 71}, {"time": 4180, "pitch": 49, "duration": 7, "velocity": 83}, {"time": 4180, "pitch": 61, "duration": 7, "velocity": 81}, {"time": 4180, "pitch": 65, "duration": 7, "velocity": 81}, {"time": 4186, "pitch": 56, "duration": 3, "velocity": 73}, {"time": 4192, "pitch": 49, "duration": 3, "velocity": 86}, {"time": 4192, "pitch": 61, "duration": 4, "velocity": 82}, {"time": 4192, "pitch": 65, "duration": 4, "velocity": 80}, {"time": 4198, "pitch": 56, "duration": 3, "velocity": 78}, {"time": 4204, "pitch": 49, "duration": 9, "velocity": 79}, {"time": 4204, "pitch": 61, "duration": 8, "velocity": 80}, {"time": 4204, "pitch": 65, "duration": 8, "velocity": 79}, {"time": 4210, "pitch": 56, "duration": 4, "velocity": 81}, {"time": 4216, "pitch": 49, "duration": 12, "velocity": 93}, {"time": 4216, "pitch": 61, "duration": 11, "velocity": 84}, {"time": 4216, "pitch": 65, "duration": 10, "velocity": 88}, {"time": 4222, "pitch": 56, "duration": 5, "velocity": 81}, {"time": 4228, "pitch": 51, "duration": 10, "velocity": 88}, {"time": 4228, "pitch": 58, "duration": 4, "velocity": 77}, {"time": 4228, "pitch": 63, "duration": 8, "velocity": 79}, {"time": 4234, "pitch": 58, "duration": 4, "velocity": 81}, {"time": 4240, "pitch": 51, "duration": 4, "velocity": 84}, {"time": 4240, "pitch": 63, "duration": 8, "velocity": 80}, {"time": 4240, "pitch": 66, "duration": 7, "velocity": 84}, {"time": 4246, "pitch": 58, "duration": 7, "velocity": 78}, {"time": 4252, "pitch": 51, "duration": 9, "velocity": 82}, {"time": 4252, "pitch": 63, "duration": 8, "velocity": 77}, {"time": 4252, "pitch": 66, "duration": 9, "velocity": 77}, {"time": 4258, "pitch": 58, "duration": 5, "velocity": 70}, {"time": 4264, "pitch": 51, "duration": 3, "velocity": 80}, {"time": 4264, "pitch": 63, "duration": 8, "velocity": 84}, {"time": 4264, "pitch": 66, "duration": 8, "velocity": 81}, {"time": 4270, "pitch": 58, "duration": 2, "velocity": 79}, {"time": 4276, "pitch": 47, "duration": 9, "velocity": 82}, {"time": 4276, "pitch": 63, "duration": 8, "velocity": 79}, {"time": 4276, "pitch": 66, "duration": 8, "velocity": 78}, {"time": 4282, "pitch": 59, "duration": 8, "velocity": 69}, {"time": 4288, "pitch": 47, "duration": 10, "velocity": 78}, {"time": 4288, "pitch": 63, "duration": 8, "velocity": 79}, {"time": 4288, "pitch": 66, "duration": 8, "velocity": 79}, {"time": 4294, "pitch": 59, "duration": 7, "velocity": 72}, {"time": 4300, "pitch": 47, "duration": 8, "velocity": 79}, {"time": 4300, "pitch": 63, "duration": 8, "velocity": 79}, {"time": 4300, "pitch": 66, "duration": 7, "velocity": 79}, {"time": 4306, "pitch": 59, "duration": 3, "velocity": 65}, {"time": 4312, "pitch": 47, "duration": 4, "velocity": 81}, {"time": 4312, "pitch": 59, "duration": 2, "velocity": 79}, {"time": 4312, "pitch": 63, "duration": 5, "velocity": 79}, {"time": 4312, "pitch": 66, "duration": 8, "velocity": 78}, {"time": 4318, "pitch": 59, "duration": 2, "velocity": 72}, {"time": 4324, "pitch": 42, "duration": 10, "velocity": 78}, {"time": 4324, "pitch": 58, "duration": 3, "velocity": 77}, {"time": 4324, "pitch": 61, "duration": 7, "velocity": 78}, {"time": 4330, "pitch": 58, "duration": 3, "velocity": 68}, {"time": 4336, "pitch": 42, "duration": 6, "velocity": 78}, {"time": 4336, "pitch": 61, "duration": 4, "velocity": 83}, {"time": 4336, "pitch": 66, "duration": 4, "velocity": 78}, {"time": 4342, "pitch": 58, "duration": 3, "velocity": 77}, {"time": 4348, "pitch": 42, "duration": 8, "velocity": 76}, {"time": 4348, "pitch": 61, "duration": 8, "velocity": 78}, {"time": 4348, "pitch": 66, "duration": 7, "velocity": 78}, {"time": 4354, "pitch": 58, "duration": 3, "velocity": 77}, {"time": 4360, "pitch": 42, "duration": 4, "velocity": 79}, {"time": 4360, "pitch": 61, "duration": 3, "velocity": 81}, {"time": 4360, "pitch": 66, "duration": 4, "velocity": 79}, {"time": 4366, "pitch": 58, "duration": 3, "velocity": 77}, {"time": 4372, "pitch": 49, "duration": 8, "velocity": 84}, {"time": 4372, "pitch": 61, "duration": 7, "velocity": 77}, {"time": 4372, "pitch": 65, "duration": 7, "velocity": 79}, {"time": 4378, "pitch": 56, "duration": 3, "velocity": 78}, {"time": 4384, "pitch": 49, "duration": 4, "velocity": 88}, {"time": 4384, "pitch": 56, "duration": 2, "velocity": 79}, {"time": 4384, "pitch": 61, "duration": 8, "velocity": 83}, {"time": 4384, "pitch": 65, "duration": 8, "velocity": 80}, {"time": 4390, "pitch": 56, "duration": 4, "velocity": 78}, {"time": 4396, "pitch": 49, "duration": 7, "velocity": 79}, {"time": 4396, "pitch": 56, "duration": 2, "velocity": 68}, {"time": 4396, "pitch": 61, "duration": 5, "velocity": 78}, {"time": 4396, "pitch": 65, "duration": 6, "velocity": 78}, {"time": 4402, "pitch": 56, "duration": 3, "velocity": 78}, {"time": 4402, "pitch": 61, "duration": 1, "velocity": 44}, {"time": 4408, "pitch": 49, "duration": 2, "velocity": 91}, {"time": 4408, "pitch": 56, "duration": 2, "velocity": 80}, {"time": 4408, "pitch": 61, "duration": 3, "velocity": 91}, {"time": 4408, "pitch": 65, "duration": 3, "velocity": 82}, {"time": 4420, "pitch": 39, "duration": 9, "velocity": 86}, {"time": 4420, "pitch": 58, "duration": 2, "velocity": 69}, {"time": 4420, "pitch": 63, "duration": 8, "velocity": 76}, {"time": 4420, "pitch": 66, "duration": 8, "velocity": 73}, {"time": 4426, "pitch": 58, "duration": 3, "velocity": 73}, {"time": 4432, "pitch": 39, "duration": 5, "velocity": 86}, {"time": 4432, "pitch": 63, "duration": 4, "velocity": 79}, {"time": 4432, "pitch": 66, "duration": 8, "velocity": 82}, {"time": 4438, "pitch": 58, "duration": 7, "velocity": 80}, {"time": 4444, "pitch": 39, "duration": 8, "velocity": 84}, {"time": 4444, "pitch": 63, "duration": 8, "velocity": 78}, {"time": 4444, "pitch": 66, "duration": 8, "velocity": 78}, {"time": 4450, "pitch": 58, "duration": 4, "velocity": 77}, {"time": 4456, "pitch": 39, "duration": 3, "velocity": 88}, {"time": 4456, "pitch": 63, "duration": 7, "velocity": 84}, {"time": 4456, "pitch": 66, "duration": 8, "velocity": 81}, {"time": 4462, "pitch": 58, "duration": 2, "velocity": 80}, {"time": 4468, "pitch": 47, "duration": 6, "velocity": 81}, {"time": 4468, "pitch": 63, "duration": 7, "velocity": 81}, {"time": 4468, "pitch": 66, "duration": 8, "velocity": 75}, {"time": 4474, "pitch": 59, "duration": 3, "velocity": 72}, {"time": 4480, "pitch": 47, "duration": 3, "velocity": 93}, {"time": 4480, "pitch": 63, "duration": 4, "velocity": 86}, {"time": 4480, "pitch": 66, "duration": 4, "velocity": 79}, {"time": 4486, "pitch": 59, "duration": 4, "velocity": 79}, {"time": 4492, "pitch": 47, "duration": 7, "velocity": 78}, {"time": 4492, "pitch": 63, "duration": 8, "velocity": 79}, {"time": 4492, "pitch": 66, "duration": 7, "velocity": 77}, {"time": 4498, "pitch": 59, "duration": 3, "velocity": 75}, {"time": 4504, "pitch": 47, "duration": 3, "velocity": 86}, {"time": 4504, "pitch": 59, "duration": 2, "velocity": 66}, {"time": 4504, "pitch": 63, "duration": 4, "velocity": 80}, {"time": 4504, "pitch": 66, "duration": 4, "velocity": 79}, {"time": 4516, "pitch": 42, "duration": 8, "velocity": 77}, {"time": 4516, "pitch": 58, "duration": 2, "velocity": 67}, {"time": 4516, "pitch": 61, "duration": 8, "velocity": 77}, {"time": 4516, "pitch": 66, "duration": 8, "velocity": 77}, {"time": 4522, "pitch": 58, "duration": 3, "velocity": 73}, {"time": 4528, "pitch": 42, "duration": 3, "velocity": 76}, {"time": 4528, "pitch": 61, "duration": 4, "velocity": 79}, {"time": 4528, "pitch": 66, "duration": 4, "velocity": 77}, {"time": 4534, "pitch": 58, "duration": 6, "velocity": 78}, {"time": 4540, "pitch": 42, "duration": 8, "velocity": 76}, {"time": 4540, "pitch": 61, "duration": 7, "velocity": 78}, {"time": 4540, "pitch": 66, "duration": 4, "velocity": 78}, {"time": 4546, "pitch": 58, "duration": 4, "velocity": 71}, {"time": 4552, "pitch": 42, "duration": 3, "velocity": 77}, {"time": 4552, "pitch": 61, "duration": 4, "velocity": 82}, {"time": 4552, "pitch": 66, "duration": 4, "velocity": 79}, {"time": 4558, "pitch": 58, "duration": 3, "velocity": 71}, {"time": 4564, "pitch": 49, "duration": 7, "velocity": 83}, {"time": 4564, "pitch": 61, "duration": 7, "velocity": 81}, {"time": 4564, "pitch": 65, "duration": 7, "velocity": 81}, {"time": 4570, "pitch": 56, "duration": 3, "velocity": 73}, {"time": 4576, "pitch": 49, "duration": 3, "velocity": 86}, {"time": 4576, "pitch": 61, "duration": 4, "velocity": 82}, {"time": 4576, "pitch": 65, "duration": 4, "velocity": 80}, {"time": 4582, "pitch": 56, "duration": 3, "velocity": 78}, {"time": 4588, "pitch": 49, "duration": 9, "velocity": 79}, {"time": 4588, "pitch": 61, "duration": 8, "velocity": 80}, {"time": 4588, "pitch": 65, "duration": 8, "velocity": 79}, {"time": 4594, "pitch": 56, "duration": 4, "velocity": 81}, {"time": 4600, "pitch": 49, "duration": 12, "velocity": 93}, {"time": 4600, "pitch": 61, "duration": 11, "velocity": 84}, {"time": 4600, "pitch": 65, "duration": 10, "velocity": 88}, {"time": 4606, "pitch": 56, "duration": 5, "velocity": 81}, {"time": 4612, "pitch": 39, "duration": 33, "velocity": 84}, {"time": 4612, "pitch": 58, "duration": 42, "velocity": 72}, {"time": 4612, "pitch": 63, "duration": 42, "velocity": 78}, {"time": 4612, "pitch": 66, "duration": 43, "velocity": 77}, {"time": 4660, "pitch": 51, "duration": 17, "velocity": 82}, {"time": 4660, "pitch": 58, "duration": 4, "velocity": 78}, {"time": 4660, "pitch": 66, "duration": 7, "velocity": 79}, {"time": 4666, "pitch": 58, "duration": 4, "velocity": 70}, {"time": 4678, "pitch": 58, "duration": 4, "velocity": 78}, {"time": 4678, "pitch": 66, "duration": 5, "velocity": 83}, {"time": 4690, "pitch": 58, "duration": 3, "velocity": 77}, {"time": 4696, "pitch": 51, "duration": 3, "velocity": 83}, {"time": 4696, "pitch": 58, "duration": 2, "velocity": 78}, {"time": 4696, "pitch": 63, "duration": 4, "velocity": 83}, {"time": 4696, "pitch": 66, "duration": 8, "velocity": 80}, {"time": 4702, "pitch": 58, "duration": 3, "velocity": 72}, {"time": 4708, "pitch": 42, "duration": 15, "velocity": 78}, {"time": 4708, "pitch": 58, "duration": 5, "velocity": 73}, {"time": 4708, "pitch": 61, "duration": 12, "velocity": 79}, {"time": 4708, "pitch": 66, "duration": 12, "velocity": 78}, {"time": 4720, "pitch": 58, "duration": 3, "velocity": 70}, {"time": 4726, "pitch": 42, "duration": 14, "velocity": 77}, {"time": 4726, "pitch": 58, "duration": 4, "velocity": 79}, {"time": 4726, "pitch": 61, "duration": 8, "velocity": 84}, {"time": 4726, "pitch": 66, "duration": 10, "velocity": 77}, {"time": 4738, "pitch": 58, "duration": 2, "velocity": 62}, {"time": 4744, "pitch": 42, "duration": 3, "velocity": 78}, {"time": 4744, "pitch": 58, "duration": 3, "velocity": 78}, {"time": 4744, "pitch": 61, "duration": 2, "velocity": 80}, {"time": 4744, "pitch": 66, "duration": 4, "velocity": 77}, {"time": 4756, "pitch": 44, "duration": 38, "velocity": 78}, {"time": 4756, "pitch": 56, "duration": 5, "velocity": 78}, {"time": 4756, "pitch": 63, "duration": 12, "velocity": 76}, {"time": 4768, "pitch": 56, "duration": 3, "velocity": 73}, {"time": 4774, "pitch": 56, "duration": 5, "velocity": 81}, {"time": 4774, "pitch": 63, "duration": 14, "velocity": 81}, {"time": 4774, "pitch": 68, "duration": 8, "velocity": 77}, {"time": 4786, "pitch": 56, "duration": 3, "velocity": 72}, {"time": 4792, "pitch": 56, "duration": 5, "velocity": 83}, {"time": 4792, "pitch": 63, "duration": 3, "velocity": 81}, {"time": 4792, "pitch": 68, "duration": 4, "velocity": 76}, {"time": 4804, "pitch": 47, "duration": 4, "velocity": 80}, {"time": 4804, "pitch": 59, "duration": 5, "velocity": 78}, {"time": 4804, "pitch": 63, "duration": 6, "velocity": 81}, {"time": 4822, "pitch": 46, "duration": 6, "velocity": 82}, {"time": 4822, "pitch": 58, "duration": 6, "velocity": 81}, {"time": 4822, "pitch": 70, "duration": 5, "velocity": 78}, {"time": 4834, "pitch": 42, "duration": 15, "velocity": 82}, {"time": 4834, "pitch": 54, "duration": 13, "velocity": 81}, {"time": 4834, "pitch": 66, "duration": 14, "velocity": 79}, {"time": 4852, "pitch": 51, "duration": 15, "velocity": 79}, {"time": 4852, "pitch": 58, "duration": 13, "velocity": 78}, {"time": 4852, "pitch": 63, "duration": 14, "velocity": 74}, {"time": 4870, "pitch": 51, "duration": 15, "velocity": 91}, {"time": 4870, "pitch": 58, "duration": 5, "velocity": 79}, {"time": 4870, "pitch": 63, "duration": 9, "velocity": 82}, {"time": 4882, "pitch": 58, "duration": 2, "velocity": 71}, {"time": 4888, "pitch": 51, "duration": 3, "velocity": 84}, {"time": 4888, "pitch": 58, "duration": 3, "velocity": 79}, {"time": 4888, "pitch": 63, "duration": 3, "velocity": 83}, {"time": 4900, "pitch": 42, "duration": 15, "velocity": 79}, {"time": 4900, "pitch": 58, "duration": 13, "velocity": 75}, {"time": 4900, "pitch": 61, "duration": 13, "velocity": 80}, {"time": 4900, "pitch": 66, "duration": 12, "velocity": 77}, {"time": 4918, "pitch": 42, "duration": 14, "velocity": 78}, {"time": 4918, "pitch": 58, "duration": 5, "velocity": 78}, {"time": 4918, "pitch": 61, "duration": 9, "velocity": 82}, {"time": 4918, "pitch": 66, "duration": 8, "velocity": 79}, {"time": 4930, "pitch": 58, "duration": 3, "velocity": 66}, {"time": 4936, "pitch": 42, "duration": 4, "velocity": 76}, {"time": 4936, "pitch": 58, "duration": 3, "velocity": 77}, {"time": 4936, "pitch": 61, "duration": 2, "velocity": 81}, {"time": 4936, "pitch": 66, "duration": 8, "velocity": 76}, {"time": 4942, "pitch": 58, "duration": 3, "velocity": 70}, {"time": 4948, "pitch": 44, "duration": 14, "velocity": 78}, {"time": 4948, "pitch": 56, "duration": 11, "velocity": 81}, {"time": 4948, "pitch": 63, "duration": 8, "velocity": 77}, {"time": 4966, "pitch": 44, "duration": 15, "velocity": 78}, {"time": 4966, "pitch": 56, "duration": 5, "velocity": 77}, {"time": 4966, "pitch": 60, "duration": 9, "velocity": 79}, {"time": 4966, "pitch": 63, "duration": 10, "velocity": 79}, {"time": 4978, "pitch": 56, "duration": 3, "velocity": 66}, {"time": 4984, "pitch": 44, "duration": 3, "velocity": 79}, {"time": 4984, "pitch": 56, "duration": 2, "velocity": 70}, {"time": 4984, "pitch": 60, "duration": 2, "velocity": 80}, {"time": 4984, "pitch": 63, "duration": 3, "velocity": 79}, {"time": 4984, "pitch": 68, "duration": 4, "velocity": 77}, {"time": 4996, "pitch": 47, "duration": 6, "velocity": 86}, {"time": 4996, "pitch": 59, "duration": 6, "velocity": 79}, {"time": 4996, "pitch": 71, "duration": 7, "velocity": 73}, {"time": 5014, "pitch": 46, "duration": 4, "velocity": 78}, {"time": 5014, "pitch": 58, "duration": 5, "velocity": 78}, {"time": 5014, "pitch": 70, "duration": 4, "velocity": 78}, {"time": 5026, "pitch": 42, "duration": 3, "velocity": 78}, {"time": 5026, "pitch": 54, "duration": 3, "velocity": 71}, {"time": 5026, "pitch": 66, "duration": 2, "velocity": 74}, {"time": 5032, "pitch": 42, "duration": 12, "velocity": 78}, {"time": 5032, "pitch": 54, "duration": 11, "velocity": 73}, {"time": 5032, "pitch": 66, "duration": 12, "velocity": 78}, {"time": 5044, "pitch": 39, "duration": 52, "velocity": 82}, {"time": 5044, "pitch": 58, "duration": 50, "velocity": 75}, {"time": 5044, "pitch": 63, "duration": 51, "velocity": 78}, {"time": 5044, "pitch": 66, "duration": 52, "velocity": 77}], "annotations": [{"time": 54, "annotation": {"number": 64, "value": 127}, "group": "control_change"}, {"time": 145, "annotation": {"number": 64, "value": 0}, "group": "control_change"}, {"time": 150, "annotation": {"number": 64, "value": 127}, "group": "control_change"}, {"time": 243, "annotation": {"number": 64, "value": 0}, "group": "control_change"}, {"time": 387, "annotation": {"number": 64, "value": 0}, "group": "control_change"}, {"time": 390, "annotation": {"number": 64, "value": 127}, "group": "control_change"}, {"time": 434, "annotation": {"number": 64, "value": 0}, "group": "control_change"}, {"time": 438, "annotation": {"number": 64, "value": 127}, "group": "control_change"}, {"time": 481, "annotation": {"number": 64, "value": 0}, "group": "control_change"}, {"time": 483, "annotation": {"number": 64, "value": 127}, "group": "control_change"}, {"time": 498, "annotation": {"number": 64, "value": 0}, "group": "control_change"}, {"time": 501, "annotation": {"number": 64, "value": 127}, "group": "control_change"}, {"time": 515, "annotation": {"number": 64, "value": 0}, "group": "control_change"}, {"time": 517, "annotation": {"number": 64, "value": 127}, "group": "control_change"}, {"time": 529, "annotation": {"number": 64, "value": 0}, "group": "control_change"}, {"time": 535, "annotation": {"number": 64, "value": 127}, "group": "control_change"}, {"time": 578, "annotation": {"number": 64, "value": 0}, "group": "control_change"}, {"time": 581, "annotation": {"number": 64, "value": 127}, "group": "control_change"}, {"time": 626, "annotation": {"number": 64, "value": 0}, "group": "control_change"}, {"time": 629, "annotation": {"number": 64, "value": 127}, "group": "control_change"}, {"time": 673, "annotation": {"number": 64, "value": 0}, "group": "control_change"}, {"time": 676, "annotation": {"number": 64, "value": 127}, "group": "control_change"}, {"time": 690, "annotation": {"number": 64, "value": 0}, "group": "control_change"}, {"time": 693, "annotation": {"number": 64, "value": 127}, "group": "control_change"}, {"time": 702, "annotation": {"number": 64, "value": 127}, "group": "control_change"}, {"time": 702, "annotation": {"number": 64, "value": 0}, "group": "control_change"}, {"time": 707, "annotation": {"number": 64, "value": 0}, "group": "control_change"}, {"time": 769, "annotation": {"number": 64, "value": 0}, "group": "control_change"}, {"time": 772, "annotation": {"number": 64, "value": 127}, "group": "control_change"}, {"time": 818, "annotation": {"number": 64, "value": 0}, "group": "control_change"}, {"time": 820, "annotation": {"number": 64, "value": 127}, "group": "control_change"}, {"time": 866, "annotation": {"number": 64, "value": 0}, "group": "control_change"}, {"time": 868, "annotation": {"number": 64, "value": 127}, "group": "control_change"}, {"time": 909, "annotation": {"number": 64, "value": 0}, "group": "control_change"}, {"time": 961, "annotation": {"number": 64, "value": 0}, "group": "control_change"}, {"time": 964, "annotation": {"number": 64, "value": 127}, "group": "control_change"}, {"time": 1010, "annotation": {"number": 64, "value": 0}, "group": "control_change"}, {"time": 1012, "annotation": {"number": 64, "value": 127}, "group": "control_change"}, {"time": 1058, "annotation": {"number": 64, "value": 0}, "group": "control_change"}, {"time": 1060, "annotation": {"number": 64, "value": 127}, "group": "control_change"}, {"time": 1101, "annotation": {"number": 64, "value": 0}, "group": "control_change"}, {"time": 1153, "annotation": {"number": 64, "value": 0}, "group": "control_change"}, {"time": 1156, "annotation": {"number": 64, "value": 127}, "group": "control_change"}, {"time": 1202, "annotation": {"number": 64, "value": 0}, "group": "control_change"}, {"time": 1204, "annotation": {"number": 64, "value": 127}, "group": "control_change"}, {"time": 1250, "annotation": {"number": 64, "value": 0}, "group": "control_change"}, {"time": 1252, "annotation": {"number": 64, "value": 127}, "group": "control_change"}, {"time": 1293, "annotation": {"number": 64, "value": 0}, "group": "control_change"}, {"time": 1345, "annotation": {"number": 64, "value": 0}, "group": "control_change"}, {"time": 1348, "annotation": {"number": 64, "value": 127}, "group": "control_change"}, {"time": 1394, "annotation": {"number": 64, "value": 0}, "group": "control_change"}, {"time": 1396, "annotation": {"number": 64, "value": 127}, "group": "control_change"}, {"time": 1442, "annotation": {"number": 64, "value": 0}, "group": "control_change"}, {"time": 1444, "annotation": {"number": 64, "value": 127}, "group": "control_change"}, {"time": 1485, "annotation": {"number": 64, "value": 0}, "group": "control_change"}, {"time": 1538, "annotation": {"number": 64, "value": 0}, "group": "control_change"}, {"time": 1540, "annotation": {"number": 64, "value": 127}, "group": "control_change"}, {"time": 1585, "annotation": {"number": 64, "value": 0}, "group": "control_change"}, {"time": 1588, "annotation": {"number": 64, "value": 127}, "group": "control_change"}, {"time": 1634, "annotation": {"number": 64, "value": 0}, "group": "control_change"}, {"time": 1637, "annotation": {"number": 64, "value": 127}, "group": "control_change"}, {"time": 1682, "annotation": {"number": 64, "value": 0}, "group": "control_change"}, {"time": 1685, "annotation": {"number": 64, "value": 127}, "group": "control_change"}, {"time": 1730, "annotation": {"number": 64, "value": 0}, "group": "control_change"}, {"time": 1732, "annotation": {"number": 64, "value": 127}, "group": "control_change"}, {"time": 1779, "annotation": {"number": 64, "value": 0}, "group": "control_change"}, {"time": 1783, "annotation": {"number": 64, "value": 127}, "group": "control_change"}, {"time": 1783, "annotation": {"number": 64, "value": 0}, "group": "control_change"}, {"time": 1823, "annotation": {"number": 64, "value": 0}, "group": "control_change"}, {"time": 1827, "annotation": {"number": 64, "value": 127}, "group": "control_change"}, {"time": 1871, "annotation": {"number": 64, "value": 0}, "group": "control_change"}, {"time": 1882, "annotation": {"number": 64, "value": 127}, "group": "control_change"}, {"time": 1896, "annotation": {"number": 64, "value": 0}, "group": "control_change"}, {"time": 1901, "annotation": {"number": 64, "value": 127}, "group": "control_change"}, {"time": 1921, "annotation": {"number": 64, "value": 0}, "group": "control_change"}, {"time": 1948, "annotation": {"number": 64, "value": 127}, "group": "control_change"}, {"time": 1969, "annotation": {"number": 64, "value": 0}, "group": "control_change"}, {"time": 1974, "annotation": {"number": 64, "value": 127}, "group": "control_change"}, {"time": 1992, "annotation": {"number": 64, "value": 0}, "group": "control_change"}, {"time": 1995, "annotation": {"number": 64, "value": 127}, "group": "control_change"}, {"time": 2016, "annotation": {"number": 64, "value": 0}, "group": "control_change"}, {"time": 2020, "annotation": {"number": 64, "value": 127}, "group": "control_change"}, {"time": 2065, "annotation": {"number": 64, "value": 0}, "group": "control_change"}, {"time": 2069, "annotation": {"number": 64, "value": 127}, "group": "control_change"}, {"time": 2088, "annotation": {"number": 64, "value": 0}, "group": "control_change"}, {"time": 2092, "annotation": {"number": 64, "value": 127}, "group": "control_change"}, {"time": 2114, "annotation": {"number": 64, "value": 0}, "group": "control_change"}, {"time": 2116, "annotation": {"number": 64, "value": 127}, "group": "control_change"}, {"time": 2136, "annotation": {"number": 64, "value": 0}, "group": "control_change"}, {"time": 2139, "annotation": {"number": 64, "value": 127}, "group": "control_change"}, {"time": 2162, "annotation": {"number": 64, "value": 0}, "group": "control_change"}, {"time": 2165, "annotation": {"number": 64, "value": 127}, "group": "control_change"}, {"time": 2184, "annotation": {"number": 64, "value": 0}, "group": "control_change"}, {"time": 2187, "annotation": {"number": 64, "value": 127}, "group": "control_change"}, {"time": 2209, "annotation": {"number": 64, "value": 0}, "group": "control_change"}, {"time": 2213, "annotation": {"number": 64, "value": 127}, "group": "control_change"}, {"time": 2251, "annotation": {"number": 64, "value": 0}, "group": "control_change"}, {"time": 2266, "annotation": {"number": 64, "value": 127}, "group": "control_change"}, {"time": 2280, "annotation": {"number": 64, "value": 0}, "group": "control_change"}, {"time": 2285, "annotation": {"number": 64, "value": 127}, "group": "control_change"}, {"time": 2305, "annotation": {"number": 64, "value": 0}, "group": "control_change"}, {"time": 2332, "annotation": {"number": 64, "value": 127}, "group": "control_change"}, {"time": 2353, "annotation": {"number": 64, "value": 0}, "group": "control_change"}, {"time": 2358, "annotation": {"number": 64, "value": 127}, "group": "control_change"}, {"time": 2376, "annotation": {"number": 64, "value": 0}, "group": "control_change"}, {"time": 2379, "annotation": {"number": 64, "value": 127}, "group": "control_change"}, {"time": 2400, "annotation": {"number": 64, "value": 0}, "group": "control_change"}, {"time": 2404, "annotation": {"number": 64, "value": 127}, "group": "control_change"}, {"time": 2449, "annotation": {"number": 64, "value": 0}, "group": "control_change"}, {"time": 2453, "annotation": {"number": 64, "value": 127}, "group": "control_change"}, {"time": 2472, "annotation": {"number": 64, "value": 0}, "group": "control_change"}, {"time": 2476, "annotation": {"number": 64, "value": 127}, "group": "control_change"}, {"time": 2498, "annotation": {"number": 64, "value": 0}, "group": "control_change"}, {"time": 2500, "annotation": {"number": 64, "value": 127}, "group": "control_change"}, {"time": 2520, "annotation": {"number": 64, "value": 0}, "group": "control_change"}, {"time": 2523, "annotation": {"number": 64, "value": 127}, "group": "control_change"}, {"time": 2546, "annotation": {"number": 64, "value": 0}, "group": "control_change"}, {"time": 2549, "annotation": {"number": 64, "value": 127}, "group": "control_change"}, {"time": 2568, "annotation": {"number": 64, "value": 0}, "group": "control_change"}, {"time": 2571, "annotation": {"number": 64, "value": 127}, "group": "control_change"}, {"time": 2593, "annotation": {"number": 64, "value": 0}, "group": "control_change"}, {"time": 2597, "annotation": {"number": 64, "value": 127}, "group": "control_change"}, {"time": 2635, "annotation": {"number": 64, "value": 0}, "group": "control_change"}, {"time": 2650, "annotation": {"number": 64, "value": 127}, "group": "control_change"}, {"time": 2650, "annotation": {"number": 64, "value": 0}, "group": "control_change"}, {"time": 2690, "annotation": {"number": 64, "value": 0}, "group": "control_change"}, {"time": 2693, "annotation": {"number": 64, "value": 127}, "group": "control_change"}, {"time": 2742, "annotation": {"number": 64, "value": 0}, "group": "control_change"}, {"time": 2745, "annotation": {"number": 64, "value": 127}, "group": "control_change"}, {"time": 2786, "annotation": {"number": 64, "value": 0}, "group": "control_change"}, {"time": 2788, "annotation": {"number": 64, "value": 127}, "group": "control_change"}, {"time": 2833, "annotation": {"number": 64, "value": 0}, "group": "control_change"}, {"time": 2837, "annotation": {"number": 64, "value": 127}, "group": "control_change"}, {"time": 2883, "annotation": {"number": 64, "value": 0}, "group": "control_change"}, {"time": 2885, "annotation": {"number": 64, "value": 127}, "group": "control_change"}, {"time": 2928, "annotation": {"number": 64, "value": 0}, "group": "control_change"}, {"time": 2931, "annotation": {"number": 64, "value": 127}, "group": "control_change"}, {"time": 2977, "annotation": {"number": 64, "value": 0}, "group": "control_change"}, {"time": 2980, "annotation": {"number": 64, "value": 127}, "group": "control_change"}, {"time": 3029, "annotation": {"number": 64, "value": 127}, "group": "control_change"}, {"time": 3030, "annotation": {"number": 64, "value": 0}, "group": "control_change"}, {"time": 3074, "annotation": {"number": 64, "value": 0}, "group": "control_change"}, {"time": 3121, "annotation": {"number": 64, "value": 0}, "group": "control_change"}, {"time": 3124, "annotation": {"number": 64, "value": 127}, "group": "control_change"}, {"time": 3170, "annotation": {"number": 64, "value": 0}, "group": "control_change"}, {"time": 3172, "annotation": {"number": 64, "value": 127}, "group": "control_change"}, {"time": 3218, "annotation": {"number": 64, "value": 0}, "group": "control_change"}, {"time": 3220, "annotation": {"number": 64, "value": 127}, "group": "control_change"}, {"time": 3261, "annotation": {"number": 64, "value": 0}, "group": "control_change"}, {"time": 3313, "annotation": {"number": 64, "value": 0}, "group": "control_change"}, {"time": 3316, "annotation": {"number": 64, "value": 127}, "group": "control_change"}, {"time": 3362, "annotation": {"number": 64, "value": 0}, "group": "control_change"}, {"time": 3364, "annotation": {"number": 64, "value": 127}, "group": "control_change"}, {"time": 3410, "annotation": {"number": 64, "value": 0}, "group": "control_change"}, {"time": 3412, "annotation": {"number": 64, "value": 127}, "group": "control_change"}, {"time": 3453, "annotation": {"number": 64, "value": 0}, "group": "control_change"}, {"time": 3506, "annotation": {"number": 64, "value": 0}, "group": "control_change"}, {"time": 3508, "annotation": {"number": 64, "value": 127}, "group": "control_change"}, {"time": 3553, "annotation": {"number": 64, "value": 0}, "group": "control_change"}, {"time": 3556, "annotation": {"number": 64, "value": 127}, "group": "control_change"}, {"time": 3602, "annotation": {"number": 64, "value": 0}, "group": "control_change"}, {"time": 3605, "annotation": {"number": 64, "value": 127}, "group": "control_change"}, {"time": 3650, "annotation": {"number": 64, "value": 0}, "group": "control_change"}, {"time": 3653, "annotation": {"number": 64, "value": 127}, "group": "control_change"}, {"time": 3698, "annotation": {"number": 64, "value": 0}, "group": "control_change"}, {"time": 3700, "annotation": {"number": 64, "value": 127}, "group": "control_change"}, {"time": 3747, "annotation": {"number": 64, "value": 0}, "group": "control_change"}, {"time": 3751, "annotation": {"number": 64, "value": 127}, "group": "control_change"}, {"time": 3751, "annotation": {"number": 64, "value": 0}, "group": "control_change"}, {"time": 3791, "annotation": {"number": 64, "value": 0}, "group": "control_change"}, {"time": 3795, "annotation": {"number": 64, "value": 127}, "group": "control_change"}, {"time": 3839, "annotation": {"number": 64, "value": 0}, "group": "control_change"}, {"time": 3850, "annotation": {"number": 64, "value": 127}, "group": "control_change"}, {"time": 3864, "annotation": {"number": 64, "value": 0}, "group": "control_change"}, {"time": 3869, "annotation": {"number": 64, "value": 127}, "group": "control_change"}, {"time": 3889, "annotation": {"number": 64, "value": 0}, "group": "control_change"}, {"time": 3916, "annotation": {"number": 64, "value": 127}, "group": "control_change"}, {"time": 3937, "annotation": {"number": 64, "value": 0}, "group": "control_change"}, {"time": 3942, "annotation": {"number": 64, "value": 127}, "group": "control_change"}, {"time": 3960, "annotation": {"number": 64, "value": 0}, "group": "control_change"}, {"time": 3963, "annotation": {"number": 64, "value": 127}, "group": "control_change"}, {"time": 3984, "annotation": {"number": 64, "value": 0}, "group": "control_change"}, {"time": 3988, "annotation": {"number": 64, "value": 127}, "group": "control_change"}, {"time": 4033, "annotation": {"number": 64, "value": 0}, "group": "control_change"}, {"time": 4037, "annotation": {"number": 64, "value": 127}, "group": "control_change"}, {"time": 4056, "annotation": {"number": 64, "value": 0}, "group": "control_change"}, {"time": 4060, "annotation": {"number": 64, "value": 127}, "group": "control_change"}, {"time": 4082, "annotation": {"number": 64, "value": 0}, "group": "control_change"}, {"time": 4084, "annotation": {"number": 64, "value": 127}, "group": "control_change"}, {"time": 4104, "annotation": {"number": 64, "value": 0}, "group": "control_change"}, {"time": 4107, "annotation": {"number": 64, "value": 127}, "group": "control_change"}, {"time": 4130, "annotation": {"number": 64, "value": 0}, "group": "control_change"}, {"time": 4133, "annotation": {"number": 64, "value": 127}, "group": "control_change"}, {"time": 4152, "annotation": {"number": 64, "value": 0}, "group": "control_change"}, {"time": 4155, "annotation": {"number": 64, "value": 127}, "group": "control_change"}, {"time": 4177, "annotation": {"number": 64, "value": 0}, "group": "control_change"}, {"time": 4181, "annotation": {"number": 64, "value": 127}, "group": "control_change"}, {"time": 4219, "annotation": {"number": 64, "value": 0}, "group": "control_change"}, {"time": 4234, "annotation": {"number": 64, "value": 127}, "group": "control_change"}, {"time": 4248, "annotation": {"number": 64, "value": 0}, "group": "control_change"}, {"time": 4253, "annotation": {"number": 64, "value": 127}, "group": "control_change"}, {"time": 4273, "annotation": {"number": 64, "value": 0}, "group": "control_change"}, {"time": 4300, "annotation": {"number": 64, "value": 127}, "group": "control_change"}, {"time": 4321, "annotation": {"number": 64, "value": 0}, "group": "control_change"}, {"time": 4326, "annotation": {"number": 64, "value": 127}, "group": "control_change"}, {"time": 4344, "annotation": {"number": 64, "value": 0}, "group": "control_change"}, {"time": 4347, "annotation": {"number": 64, "value": 127}, "group": "control_change"}, {"time": 4368, "annotation": {"number": 64, "value": 0}, "group": "control_change"}, {"time": 4372, "annotation": {"number": 64, "value": 127}, "group": "control_change"}, {"time": 4417, "annotation": {"number": 64, "value": 0}, "group": "control_change"}, {"time": 4421, "annotation": {"number": 64, "value": 127}, "group": "control_change"}, {"time": 4440, "annotation": {"number": 64, "value": 0}, "group": "control_change"}, {"time": 4444, "annotation": {"number": 64, "value": 127}, "group": "control_change"}, {"time": 4466, "annotation": {"number": 64, "value": 0}, "group": "control_change"}, {"time": 4468, "annotation": {"number": 64, "value": 127}, "group": "control_change"}, {"time": 4488, "annotation": {"number": 64, "value": 0}, "group": "control_change"}, {"time": 4491, "annotation": {"number": 64, "value": 127}, "group": "control_change"}, {"time": 4514, "annotation": {"number": 64, "value": 0}, "group": "control_change"}, {"time": 4517, "annotation": {"number": 64, "value": 127}, "group": "control_change"}, {"time": 4536, "annotation": {"number": 64, "value": 0}, "group": "control_change"}, {"time": 4539, "annotation": {"number": 64, "value": 127}, "group": "control_change"}, {"time": 4561, "annotation": {"number": 64, "value": 0}, "group": "control_change"}, {"time": 4565, "annotation": {"number": 64, "value": 127}, "group": "control_change"}, {"time": 4603, "annotation": {"number": 64, "value": 0}, "group": "control_change"}, {"time": 4624, "annotation": {"number": 64, "value": 127}, "group": "control_change"}, {"time": 4650, "annotation": {"number": 64, "value": 0}, "group": "control_change"}, {"time": 4707, "annotation": {"number": 64, "value": 0}, "group": "control_change"}, {"time": 4710, "annotation": {"number": 64, "value": 127}, "group": "control_change"}, {"time": 4754, "annotation": {"number": 64, "value": 0}, "group": "control_change"}, {"time": 4758, "annotation": {"number": 64, "value": 127}, "group": "control_change"}, {"time": 4801, "annotation": {"number": 64, "value": 0}, "group": "control_change"}, {"time": 4803, "annotation": {"number": 64, "value": 127}, "group": "control_change"}, {"time": 4818, "annotation": {"number": 64, "value": 0}, "group": "control_change"}, {"time": 4821, "annotation": {"number": 64, "value": 127}, "group": "control_change"}, {"time": 4835, "annotation": {"number": 64, "value": 0}, "group": "control_change"}, {"time": 4837, "annotation": {"number": 64, "value": 127}, "group": "control_change"}, {"time": 4849, "annotation": {"number": 64, "value": 0}, "group": "control_change"}, {"time": 4855, "annotation": {"number": 64, "value": 127}, "group": "control_change"}, {"time": 4898, "annotation": {"number": 64, "value": 0}, "group": "control_change"}, {"time": 4901, "annotation": {"number": 64, "value": 127}, "group": "control_change"}, {"time": 4946, "annotation": {"number": 64, "value": 0}, "group": "control_change"}, {"time": 4949, "annotation": {"number": 64, "value": 127}, "group": "control_change"}, {"time": 4993, "annotation": {"number": 64, "value": 0}, "group": "control_change"}, {"time": 4996, "annotation": {"number": 64, "value": 127}, "group": "control_change"}, {"time": 5010, "annotation": {"number": 64, "value": 0}, "group": "control_change"}, {"time": 5013, "annotation": {"number": 64, "value": 127}, "group": "control_change"}, {"time": 5022, "annotation": {"number": 64, "value": 127}, "group": "control_change"}, {"time": 5022, "annotation": {"number": 64, "value": 0}, "group": "control_change"}, {"time": 5027, "annotation": {"number": 64, "value": 0}, "group": "control_change"}]}]}