{"metadata": {"schema_version": "0.2", "title": "None", "source_filename": "669.mid", "source_format": "midi"}, "resolution": 12, "tempos": [{"time": 0, "qpm": 104.00001386666851}, {"time": 1487, "qpm": 103.50002587500647}, {"time": 1763, "qpm": 104.00001386666851}], "time_signatures": [{"time": 0, "numerator": 1, "denominator": 4}], "tracks": [{"program": 4, "is_drum": false, "name": "MELODY", "notes": [{"time": 233, "pitch": 79, "duration": 9, "velocity": 86}, {"time": 245, "pitch": 79, "duration": 6, "velocity": 86}, {"time": 251, "pitch": 77, "duration": 5, "velocity": 85}, {"time": 257, "pitch": 75, "duration": 14, "velocity": 86}, {"time": 275, "pitch": 77, "duration": 4, "velocity": 85}, {"time": 281, "pitch": 79, "duration": 4, "velocity": 86}, {"time": 287, "pitch": 82, "duration": 4, "velocity": 81}, {"time": 293, "pitch": 79, "duration": 5, "velocity": 81}, {"time": 299, "pitch": 77, "duration": 5, "velocity": 85}, {"time": 305, "pitch": 79, "duration": 18, "velocity": 85}, {"time": 329, "pitch": 79, "duration": 9, "velocity": 85}, {"time": 341, "pitch": 79, "duration": 4, "velocity": 85}, {"time": 347, "pitch": 77, "duration": 4, "velocity": 79}, {"time": 353, "pitch": 75, "duration": 5, "velocity": 90}, {"time": 359, "pitch": 72, "duration": 4, "velocity": 85}, {"time": 365, "pitch": 82, "duration": 3, "velocity": 83}, {"time": 371, "pitch": 79, "duration": 5, "velocity": 83}, {"time": 377, "pitch": 77, "duration": 42, "velocity": 84}, {"time": 425, "pitch": 79, "duration": 9, "velocity": 81}, {"time": 437, "pitch": 75, "duration": 3, "velocity": 86}, {"time": 443, "pitch": 72, "duration": 4, "velocity": 84}, {"time": 449, "pitch": 70, "duration": 13, "velocity": 81}, {"time": 467, "pitch": 72, "duration": 4, "velocity": 83}, {"time": 473, "pitch": 75, "duration": 10, "velocity": 88}, {"time": 485, "pitch": 72, "duration": 4, "velocity": 85}, {"time": 491, "pitch": 75, "duration": 4, "velocity": 85}, {"time": 497, "pitch": 77, "duration": 18, "velocity": 80}, {"time": 515, "pitch": 77, "duration": 3, "velocity": 82}, {"time": 521, "pitch": 77, "duration": 16, "velocity": 83}, {"time": 539, "pitch": 72, "duration": 5, "velocity": 85}, {"time": 545, "pitch": 75, "duration": 11, "velocity": 84}, {"time": 557, "pitch": 72, "duration": 11, "velocity": 80}, {"time": 569, "pitch": 70, "duration": 45, "velocity": 79}, {"time": 617, "pitch": 82, "duration": 11, "velocity": 81}, {"time": 629, "pitch": 77, "duration": 9, "velocity": 84}, {"time": 641, "pitch": 77, "duration": 12, "velocity": 90}, {"time": 653, "pitch": 79, "duration": 8, "velocity": 81}, {"time": 665, "pitch": 77, "duration": 8, "velocity": 81}, {"time": 677, "pitch": 77, "duration": 5, "velocity": 85}, {"time": 683, "pitch": 75, "duration": 4, "velocity": 81}, {"time": 689, "pitch": 72, "duration": 11, "velocity": 67}, {"time": 701, "pitch": 70, "duration": 8, "velocity": 79}, {"time": 713, "pitch": 79, "duration": 9, "velocity": 79}, {"time": 725, "pitch": 79, "duration": 4, "velocity": 81}, {"time": 731, "pitch": 77, "duration": 4, "velocity": 80}, {"time": 737, "pitch": 75, "duration": 5, "velocity": 95}, {"time": 743, "pitch": 72, "duration": 4, "velocity": 85}, {"time": 749, "pitch": 82, "duration": 4, "velocity": 82}, {"time": 755, "pitch": 79, "duration": 5, "velocity": 83}, {"time": 761, "pitch": 77, "duration": 44, "velocity": 85}, {"time": 809, "pitch": 82, "duration": 9, "velocity": 80}, {"time": 821, "pitch": 75, "duration": 4, "velocity": 81}, {"time": 827, "pitch": 72, "duration": 5, "velocity": 82}, {"time": 833, "pitch": 70, "duration": 15, "velocity": 81}, {"time": 851, "pitch": 72, "duration": 5, "velocity": 79}, {"time": 857, "pitch": 75, "duration": 10, "velocity": 86}, {"time": 869, "pitch": 72, "duration": 5, "velocity": 83}, {"time": 875, "pitch": 75, "duration": 4, "velocity": 85}, {"time": 881, "pitch": 77, "duration": 18, "velocity": 83}, {"time": 899, "pitch": 77, "duration": 4, "velocity": 69}, {"time": 905, "pitch": 77, "duration": 16, "velocity": 85}, {"time": 923, "pitch": 72, "duration": 5, "velocity": 80}, {"time": 929, "pitch": 75, "duration": 11, "velocity": 81}, {"time": 941, "pitch": 72, "duration": 4, "velocity": 82}, {"time": 947, "pitch": 70, "duration": 4, "velocity": 80}, {"time": 953, "pitch": 70, "duration": 44, "velocity": 80}, {"time": 1097, "pitch": 79, "duration": 9, "velocity": 86}, {"time": 1109, "pitch": 79, "duration": 6, "velocity": 86}, {"time": 1115, "pitch": 77, "duration": 5, "velocity": 85}, {"time": 1121, "pitch": 75, "duration": 14, "velocity": 86}, {"time": 1139, "pitch": 77, "duration": 4, "velocity": 85}, {"time": 1145, "pitch": 79, "duration": 4, "velocity": 86}, {"time": 1151, "pitch": 82, "duration": 4, "velocity": 81}, {"time": 1157, "pitch": 79, "duration": 5, "velocity": 81}, {"time": 1163, "pitch": 77, "duration": 5, "velocity": 85}, {"time": 1169, "pitch": 79, "duration": 18, "velocity": 85}, {"time": 1193, "pitch": 79, "duration": 9, "velocity": 85}, {"time": 1205, "pitch": 79, "duration": 4, "velocity": 85}, {"time": 1211, "pitch": 77, "duration": 4, "velocity": 79}, {"time": 1217, "pitch": 75, "duration": 5, "velocity": 90}, {"time": 1223, "pitch": 72, "duration": 4, "velocity": 85}, {"time": 1229, "pitch": 82, "duration": 3, "velocity": 83}, {"time": 1235, "pitch": 79, "duration": 5, "velocity": 83}, {"time": 1241, "pitch": 77, "duration": 42, "velocity": 84}, {"time": 1289, "pitch": 79, "duration": 9, "velocity": 81}, {"time": 1301, "pitch": 75, "duration": 3, "velocity": 86}, {"time": 1307, "pitch": 72, "duration": 4, "velocity": 84}, {"time": 1313, "pitch": 70, "duration": 13, "velocity": 81}, {"time": 1331, "pitch": 72, "duration": 4, "velocity": 83}, {"time": 1337, "pitch": 75, "duration": 10, "velocity": 88}, {"time": 1349, "pitch": 72, "duration": 4, "velocity": 85}, {"time": 1355, "pitch": 75, "duration": 4, "velocity": 85}, {"time": 1361, "pitch": 77, "duration": 18, "velocity": 80}, {"time": 1379, "pitch": 77, "duration": 3, "velocity": 82}, {"time": 1385, "pitch": 77, "duration": 16, "velocity": 83}, {"time": 1403, "pitch": 72, "duration": 5, "velocity": 85}, {"time": 1409, "pitch": 75, "duration": 11, "velocity": 84}, {"time": 1421, "pitch": 72, "duration": 11, "velocity": 80}, {"time": 1433, "pitch": 70, "duration": 45, "velocity": 79}, {"time": 1481, "pitch": 82, "duration": 11, "velocity": 81}, {"time": 1493, "pitch": 77, "duration": 9, "velocity": 84}, {"time": 1505, "pitch": 77, "duration": 12, "velocity": 90}, {"time": 1517, "pitch": 79, "duration": 8, "velocity": 81}, {"time": 1529, "pitch": 77, "duration": 8, "velocity": 81}, {"time": 1541, "pitch": 77, "duration": 5, "velocity": 85}, {"time": 1547, "pitch": 75, "duration": 4, "velocity": 81}, {"time": 1553, "pitch": 72, "duration": 11, "velocity": 67}, {"time": 1565, "pitch": 70, "duration": 8, "velocity": 79}, {"time": 1577, "pitch": 79, "duration": 9, "velocity": 79}, {"time": 1589, "pitch": 79, "duration": 4, "velocity": 81}, {"time": 1595, "pitch": 77, "duration": 4, "velocity": 80}, {"time": 1601, "pitch": 75, "duration": 5, "velocity": 95}, {"time": 1607, "pitch": 72, "duration": 4, "velocity": 85}, {"time": 1613, "pitch": 82, "duration": 4, "velocity": 82}, {"time": 1619, "pitch": 79, "duration": 5, "velocity": 83}, {"time": 1625, "pitch": 77, "duration": 44, "velocity": 85}, {"time": 1673, "pitch": 82, "duration": 9, "velocity": 80}, {"time": 1685, "pitch": 75, "duration": 4, "velocity": 81}, {"time": 1691, "pitch": 72, "duration": 5, "velocity": 82}, {"time": 1697, "pitch": 70, "duration": 15, "velocity": 81}, {"time": 1715, "pitch": 72, "duration": 5, "velocity": 79}, {"time": 1721, "pitch": 75, "duration": 10, "velocity": 86}, {"time": 1733, "pitch": 72, "duration": 5, "velocity": 83}, {"time": 1739, "pitch": 75, "duration": 4, "velocity": 85}, {"time": 1745, "pitch": 77, "duration": 18, "velocity": 83}, {"time": 1763, "pitch": 77, "duration": 4, "velocity": 69}, {"time": 1769, "pitch": 77, "duration": 16, "velocity": 85}, {"time": 1787, "pitch": 72, "duration": 5, "velocity": 80}, {"time": 1793, "pitch": 75, "duration": 11, "velocity": 81}, {"time": 1805, "pitch": 72, "duration": 4, "velocity": 82}, {"time": 1811, "pitch": 70, "duration": 4, "velocity": 80}, {"time": 1817, "pitch": 70, "duration": 44, "velocity": 80}, {"time": 2249, "pitch": 79, "duration": 9, "velocity": 86}, {"time": 2261, "pitch": 79, "duration": 6, "velocity": 86}, {"time": 2267, "pitch": 77, "duration": 5, "velocity": 85}, {"time": 2273, "pitch": 75, "duration": 14, "velocity": 86}, {"time": 2291, "pitch": 77, "duration": 4, "velocity": 85}, {"time": 2297, "pitch": 79, "duration": 4, "velocity": 86}, {"time": 2303, "pitch": 82, "duration": 4, "velocity": 81}, {"time": 2309, "pitch": 79, "duration": 5, "velocity": 81}, {"time": 2315, "pitch": 77, "duration": 5, "velocity": 85}, {"time": 2321, "pitch": 79, "duration": 18, "velocity": 85}, {"time": 2345, "pitch": 79, "duration": 9, "velocity": 85}, {"time": 2357, "pitch": 79, "duration": 4, "velocity": 85}, {"time": 2363, "pitch": 77, "duration": 4, "velocity": 79}, {"time": 2369, "pitch": 75, "duration": 5, "velocity": 90}, {"time": 2375, "pitch": 72, "duration": 4, "velocity": 85}, {"time": 2381, "pitch": 82, "duration": 3, "velocity": 83}, {"time": 2387, "pitch": 79, "duration": 5, "velocity": 83}, {"time": 2393, "pitch": 77, "duration": 42, "velocity": 84}, {"time": 2441, "pitch": 79, "duration": 9, "velocity": 81}, {"time": 2453, "pitch": 75, "duration": 3, "velocity": 86}, {"time": 2459, "pitch": 72, "duration": 4, "velocity": 84}, {"time": 2465, "pitch": 70, "duration": 13, "velocity": 81}, {"time": 2483, "pitch": 72, "duration": 4, "velocity": 83}, {"time": 2489, "pitch": 75, "duration": 10, "velocity": 88}, {"time": 2501, "pitch": 72, "duration": 4, "velocity": 85}, {"time": 2507, "pitch": 75, "duration": 4, "velocity": 85}, {"time": 2513, "pitch": 77, "duration": 18, "velocity": 80}, {"time": 2531, "pitch": 77, "duration": 3, "velocity": 82}, {"time": 2537, "pitch": 77, "duration": 16, "velocity": 83}, {"time": 2555, "pitch": 72, "duration": 5, "velocity": 85}, {"time": 2561, "pitch": 75, "duration": 11, "velocity": 84}, {"time": 2573, "pitch": 72, "duration": 11, "velocity": 80}, {"time": 2585, "pitch": 70, "duration": 45, "velocity": 79}, {"time": 2633, "pitch": 82, "duration": 11, "velocity": 81}, {"time": 2645, "pitch": 77, "duration": 9, "velocity": 84}, {"time": 2657, "pitch": 77, "duration": 12, "velocity": 90}, {"time": 2669, "pitch": 79, "duration": 8, "velocity": 81}, {"time": 2681, "pitch": 77, "duration": 8, "velocity": 81}, {"time": 2693, "pitch": 77, "duration": 5, "velocity": 85}, {"time": 2699, "pitch": 75, "duration": 4, "velocity": 81}, {"time": 2705, "pitch": 72, "duration": 11, "velocity": 67}, {"time": 2717, "pitch": 70, "duration": 8, "velocity": 79}, {"time": 2729, "pitch": 79, "duration": 9, "velocity": 79}, {"time": 2741, "pitch": 79, "duration": 4, "velocity": 81}, {"time": 2747, "pitch": 77, "duration": 4, "velocity": 80}, {"time": 2753, "pitch": 75, "duration": 5, "velocity": 95}, {"time": 2759, "pitch": 72, "duration": 4, "velocity": 85}, {"time": 2765, "pitch": 82, "duration": 4, "velocity": 82}, {"time": 2771, "pitch": 79, "duration": 5, "velocity": 83}, {"time": 2777, "pitch": 77, "duration": 44, "velocity": 85}, {"time": 2825, "pitch": 82, "duration": 9, "velocity": 80}, {"time": 2837, "pitch": 75, "duration": 4, "velocity": 81}, {"time": 2843, "pitch": 72, "duration": 5, "velocity": 82}, {"time": 2849, "pitch": 70, "duration": 15, "velocity": 81}, {"time": 2867, "pitch": 72, "duration": 5, "velocity": 79}, {"time": 2873, "pitch": 75, "duration": 10, "velocity": 86}, {"time": 2885, "pitch": 72, "duration": 5, "velocity": 83}, {"time": 2891, "pitch": 75, "duration": 4, "velocity": 85}, {"time": 2897, "pitch": 77, "duration": 18, "velocity": 83}, {"time": 2915, "pitch": 77, "duration": 4, "velocity": 69}, {"time": 2921, "pitch": 77, "duration": 16, "velocity": 85}, {"time": 2940, "pitch": 72, "duration": 8, "velocity": 86}, {"time": 2951, "pitch": 75, "duration": 19, "velocity": 93}, {"time": 2970, "pitch": 72, "duration": 10, "velocity": 83}, {"time": 2979, "pitch": 70, "duration": 54, "velocity": 85}]}, {"program": 0, "is_drum": false, "name": "PIANO", "notes": [{"time": 37, "pitch": 58, "duration": 11, "velocity": 70}, {"time": 39, "pitch": 63, "duration": 10, "velocity": 75}, {"time": 40, "pitch": 51, "duration": 10, "velocity": 82}, {"time": 41, "pitch": 67, "duration": 10, "velocity": 74}, {"time": 61, "pitch": 60, "duration": 14, "velocity": 68}, {"time": 62, "pitch": 63, "duration": 13, "velocity": 72}, {"time": 63, "pitch": 48, "duration": 13, "velocity": 82}, {"time": 64, "pitch": 67, "duration": 10, "velocity": 78}, {"time": 85, "pitch": 58, "duration": 22, "velocity": 66}, {"time": 86, "pitch": 62, "duration": 27, "velocity": 66}, {"time": 88, "pitch": 65, "duration": 31, "velocity": 77}, {"time": 88, "pitch": 46, "duration": 45, "velocity": 80}, {"time": 89, "pitch": 70, "duration": 29, "velocity": 76}, {"time": 107, "pitch": 53, "duration": 25, "velocity": 54}, {"time": 112, "pitch": 58, "duration": 10, "velocity": 68}, {"time": 118, "pitch": 62, "duration": 4, "velocity": 69}, {"time": 124, "pitch": 70, "duration": 10, "velocity": 79}, {"time": 124, "pitch": 62, "duration": 6, "velocity": 75}, {"time": 124, "pitch": 65, "duration": 8, "velocity": 80}, {"time": 124, "pitch": 58, "duration": 6, "velocity": 75}, {"time": 134, "pitch": 60, "duration": 13, "velocity": 74}, {"time": 136, "pitch": 65, "duration": 10, "velocity": 77}, {"time": 136, "pitch": 53, "duration": 11, "velocity": 88}, {"time": 138, "pitch": 68, "duration": 9, "velocity": 75}, {"time": 157, "pitch": 60, "duration": 14, "velocity": 68}, {"time": 159, "pitch": 63, "duration": 11, "velocity": 75}, {"time": 160, "pitch": 48, "duration": 12, "velocity": 82}, {"time": 161, "pitch": 67, "duration": 10, "velocity": 80}, {"time": 180, "pitch": 58, "duration": 4, "velocity": 69}, {"time": 182, "pitch": 62, "duration": 3, "velocity": 75}, {"time": 183, "pitch": 65, "duration": 7, "velocity": 79}, {"time": 183, "pitch": 46, "duration": 15, "velocity": 80}, {"time": 184, "pitch": 70, "duration": 7, "velocity": 75}, {"time": 190, "pitch": 53, "duration": 8, "velocity": 73}, {"time": 196, "pitch": 58, "duration": 12, "velocity": 83}, {"time": 202, "pitch": 62, "duration": 4, "velocity": 96}, {"time": 207, "pitch": 62, "duration": 3, "velocity": 52}, {"time": 208, "pitch": 70, "duration": 24, "velocity": 82}, {"time": 213, "pitch": 62, "duration": 3, "velocity": 45}, {"time": 214, "pitch": 58, "duration": 4, "velocity": 77}, {"time": 220, "pitch": 62, "duration": 11, "velocity": 70}, {"time": 220, "pitch": 65, "duration": 12, "velocity": 79}, {"time": 220, "pitch": 58, "duration": 11, "velocity": 75}, {"time": 233, "pitch": 51, "duration": 45, "velocity": 100}, {"time": 239, "pitch": 58, "duration": 18, "velocity": 62}, {"time": 245, "pitch": 63, "duration": 18, "velocity": 64}, {"time": 251, "pitch": 67, "duration": 40, "velocity": 99}, {"time": 263, "pitch": 58, "duration": 19, "velocity": 57}, {"time": 269, "pitch": 63, "duration": 18, "velocity": 84}, {"time": 275, "pitch": 70, "duration": 25, "velocity": 84}, {"time": 281, "pitch": 51, "duration": 43, "velocity": 100}, {"time": 287, "pitch": 58, "duration": 27, "velocity": 76}, {"time": 293, "pitch": 63, "duration": 20, "velocity": 67}, {"time": 299, "pitch": 67, "duration": 33, "velocity": 93}, {"time": 311, "pitch": 55, "duration": 11, "velocity": 12}, {"time": 317, "pitch": 58, "duration": 9, "velocity": 87}, {"time": 323, "pitch": 63, "duration": 11, "velocity": 87}, {"time": 329, "pitch": 51, "duration": 13, "velocity": 105}, {"time": 335, "pitch": 58, "duration": 7, "velocity": 84}, {"time": 341, "pitch": 63, "duration": 8, "velocity": 87}, {"time": 347, "pitch": 67, "duration": 11, "velocity": 63}, {"time": 353, "pitch": 48, "duration": 13, "velocity": 99}, {"time": 359, "pitch": 55, "duration": 7, "velocity": 52}, {"time": 365, "pitch": 60, "duration": 7, "velocity": 93}, {"time": 371, "pitch": 67, "duration": 9, "velocity": 43}, {"time": 377, "pitch": 46, "duration": 41, "velocity": 92}, {"time": 383, "pitch": 53, "duration": 14, "velocity": 74}, {"time": 389, "pitch": 58, "duration": 3, "velocity": 78}, {"time": 395, "pitch": 58, "duration": 13, "velocity": 84}, {"time": 395, "pitch": 62, "duration": 12, "velocity": 93}, {"time": 395, "pitch": 65, "duration": 17, "velocity": 93}, {"time": 407, "pitch": 53, "duration": 7, "velocity": 50}, {"time": 413, "pitch": 58, "duration": 9, "velocity": 94}, {"time": 419, "pitch": 62, "duration": 3, "velocity": 65}, {"time": 425, "pitch": 51, "duration": 41, "velocity": 76}, {"time": 425, "pitch": 63, "duration": 6, "velocity": 78}, {"time": 431, "pitch": 58, "duration": 10, "velocity": 73}, {"time": 437, "pitch": 63, "duration": 7, "velocity": 71}, {"time": 443, "pitch": 67, "duration": 21, "velocity": 96}, {"time": 461, "pitch": 63, "duration": 12, "velocity": 84}, {"time": 467, "pitch": 58, "duration": 7, "velocity": 100}, {"time": 473, "pitch": 48, "duration": 14, "velocity": 85}, {"time": 473, "pitch": 55, "duration": 3, "velocity": 57}, {"time": 473, "pitch": 60, "duration": 8, "velocity": 63}, {"time": 479, "pitch": 55, "duration": 11, "velocity": 72}, {"time": 485, "pitch": 60, "duration": 6, "velocity": 96}, {"time": 491, "pitch": 63, "duration": 11, "velocity": 89}, {"time": 497, "pitch": 41, "duration": 18, "velocity": 54}, {"time": 503, "pitch": 48, "duration": 14, "velocity": 72}, {"time": 509, "pitch": 53, "duration": 17, "velocity": 82}, {"time": 515, "pitch": 60, "duration": 13, "velocity": 40}, {"time": 521, "pitch": 41, "duration": 13, "velocity": 96}, {"time": 527, "pitch": 48, "duration": 7, "velocity": 63}, {"time": 533, "pitch": 53, "duration": 7, "velocity": 109}, {"time": 539, "pitch": 65, "duration": 7, "velocity": 77}, {"time": 545, "pitch": 44, "duration": 19, "velocity": 102}, {"time": 551, "pitch": 51, "duration": 15, "velocity": 84}, {"time": 557, "pitch": 56, "duration": 8, "velocity": 87}, {"time": 563, "pitch": 60, "duration": 5, "velocity": 87}, {"time": 569, "pitch": 51, "duration": 41, "velocity": 92}, {"time": 569, "pitch": 58, "duration": 3, "velocity": 76}, {"time": 569, "pitch": 63, "duration": 7, "velocity": 78}, {"time": 575, "pitch": 58, "duration": 10, "velocity": 76}, {"time": 581, "pitch": 63, "duration": 7, "velocity": 80}, {"time": 587, "pitch": 67, "duration": 14, "velocity": 87}, {"time": 599, "pitch": 58, "duration": 3, "velocity": 66}, {"time": 605, "pitch": 63, "duration": 10, "velocity": 92}, {"time": 611, "pitch": 58, "duration": 6, "velocity": 97}, {"time": 617, "pitch": 46, "duration": 36, "velocity": 92}, {"time": 623, "pitch": 53, "duration": 13, "velocity": 57}, {"time": 629, "pitch": 58, "duration": 2, "velocity": 100}, {"time": 635, "pitch": 58, "duration": 12, "velocity": 94}, {"time": 635, "pitch": 62, "duration": 19, "velocity": 85}, {"time": 635, "pitch": 65, "duration": 20, "velocity": 43}, {"time": 647, "pitch": 53, "duration": 5, "velocity": 24}, {"time": 653, "pitch": 58, "duration": 7, "velocity": 108}, {"time": 659, "pitch": 62, "duration": 4, "velocity": 65}, {"time": 665, "pitch": 41, "duration": 10, "velocity": 68}, {"time": 665, "pitch": 60, "duration": 11, "velocity": 48}, {"time": 671, "pitch": 48, "duration": 5, "velocity": 50}, {"time": 677, "pitch": 53, "duration": 6, "velocity": 93}, {"time": 683, "pitch": 60, "duration": 5, "velocity": 77}, {"time": 689, "pitch": 48, "duration": 20, "velocity": 63}, {"time": 695, "pitch": 55, "duration": 15, "velocity": 85}, {"time": 701, "pitch": 60, "duration": 12, "velocity": 99}, {"time": 707, "pitch": 63, "duration": 7, "velocity": 69}, {"time": 713, "pitch": 51, "duration": 16, "velocity": 94}, {"time": 713, "pitch": 58, "duration": 3, "velocity": 71}, {"time": 713, "pitch": 63, "duration": 1, "velocity": 78}, {"time": 719, "pitch": 58, "duration": 12, "velocity": 89}, {"time": 725, "pitch": 63, "duration": 7, "velocity": 78}, {"time": 731, "pitch": 67, "duration": 9, "velocity": 59}, {"time": 737, "pitch": 48, "duration": 15, "velocity": 87}, {"time": 743, "pitch": 55, "duration": 9, "velocity": 59}, {"time": 749, "pitch": 60, "duration": 8, "velocity": 90}, {"time": 755, "pitch": 67, "duration": 8, "velocity": 48}, {"time": 761, "pitch": 41, "duration": 9, "velocity": 68}, {"time": 761, "pitch": 60, "duration": 13, "velocity": 68}, {"time": 767, "pitch": 48, "duration": 4, "velocity": 57}, {"time": 773, "pitch": 53, "duration": 6, "velocity": 96}, {"time": 779, "pitch": 60, "duration": 3, "velocity": 30}, {"time": 785, "pitch": 46, "duration": 21, "velocity": 94}, {"time": 791, "pitch": 53, "duration": 15, "velocity": 70}, {"time": 797, "pitch": 58, "duration": 11, "velocity": 82}, {"time": 803, "pitch": 62, "duration": 5, "velocity": 90}, {"time": 809, "pitch": 51, "duration": 35, "velocity": 92}, {"time": 809, "pitch": 58, "duration": 3, "velocity": 76}, {"time": 809, "pitch": 63, "duration": 7, "velocity": 71}, {"time": 815, "pitch": 58, "duration": 12, "velocity": 82}, {"time": 821, "pitch": 63, "duration": 7, "velocity": 78}, {"time": 827, "pitch": 67, "duration": 13, "velocity": 61}, {"time": 839, "pitch": 63, "duration": 7, "velocity": 82}, {"time": 845, "pitch": 58, "duration": 8, "velocity": 100}, {"time": 851, "pitch": 63, "duration": 5, "velocity": 80}, {"time": 857, "pitch": 48, "duration": 11, "velocity": 90}, {"time": 863, "pitch": 55, "duration": 7, "velocity": 50}, {"time": 869, "pitch": 60, "duration": 8, "velocity": 82}, {"time": 875, "pitch": 67, "duration": 7, "velocity": 45}, {"time": 881, "pitch": 41, "duration": 14, "velocity": 82}, {"time": 887, "pitch": 48, "duration": 10, "velocity": 41}, {"time": 893, "pitch": 53, "duration": 8, "velocity": 93}, {"time": 899, "pitch": 60, "duration": 5, "velocity": 77}, {"time": 905, "pitch": 41, "duration": 9, "velocity": 93}, {"time": 905, "pitch": 53, "duration": 7, "velocity": 39}, {"time": 905, "pitch": 56, "duration": 8, "velocity": 82}, {"time": 905, "pitch": 60, "duration": 11, "velocity": 48}, {"time": 911, "pitch": 48, "duration": 5, "velocity": 48}, {"time": 917, "pitch": 53, "duration": 4, "velocity": 96}, {"time": 929, "pitch": 48, "duration": 18, "velocity": 87}, {"time": 929, "pitch": 55, "duration": 3, "velocity": 82}, {"time": 929, "pitch": 60, "duration": 12, "velocity": 48}, {"time": 935, "pitch": 55, "duration": 6, "velocity": 85}, {"time": 941, "pitch": 63, "duration": 12, "velocity": 92}, {"time": 947, "pitch": 55, "duration": 4, "velocity": 72}, {"time": 953, "pitch": 51, "duration": 47, "velocity": 97}, {"time": 959, "pitch": 58, "duration": 7, "velocity": 46}, {"time": 965, "pitch": 63, "duration": 6, "velocity": 80}, {"time": 971, "pitch": 58, "duration": 8, "velocity": 80}, {"time": 977, "pitch": 67, "duration": 8, "velocity": 70}, {"time": 983, "pitch": 58, "duration": 3, "velocity": 73}, {"time": 989, "pitch": 58, "duration": 2, "velocity": 100}, {"time": 989, "pitch": 63, "duration": 10, "velocity": 92}, {"time": 995, "pitch": 58, "duration": 6, "velocity": 78}, {"time": 1001, "pitch": 41, "duration": 17, "velocity": 81}, {"time": 1001, "pitch": 60, "duration": 5, "velocity": 79}, {"time": 1001, "pitch": 65, "duration": 6, "velocity": 81}, {"time": 1007, "pitch": 48, "duration": 11, "velocity": 63}, {"time": 1013, "pitch": 60, "duration": 2, "velocity": 79}, {"time": 1013, "pitch": 65, "duration": 6, "velocity": 86}, {"time": 1013, "pitch": 68, "duration": 6, "velocity": 81}, {"time": 1019, "pitch": 60, "duration": 2, "velocity": 80}, {"time": 1025, "pitch": 48, "duration": 22, "velocity": 81}, {"time": 1025, "pitch": 60, "duration": 8, "velocity": 78}, {"time": 1025, "pitch": 63, "duration": 9, "velocity": 79}, {"time": 1031, "pitch": 55, "duration": 12, "velocity": 79}, {"time": 1037, "pitch": 60, "duration": 3, "velocity": 83}, {"time": 1037, "pitch": 63, "duration": 8, "velocity": 84}, {"time": 1037, "pitch": 67, "duration": 9, "velocity": 79}, {"time": 1043, "pitch": 60, "duration": 3, "velocity": 76}, {"time": 1049, "pitch": 46, "duration": 46, "velocity": 79}, {"time": 1055, "pitch": 53, "duration": 32, "velocity": 75}, {"time": 1061, "pitch": 58, "duration": 6, "velocity": 83}, {"time": 1067, "pitch": 65, "duration": 8, "velocity": 83}, {"time": 1073, "pitch": 62, "duration": 5, "velocity": 76}, {"time": 1079, "pitch": 58, "duration": 2, "velocity": 79}, {"time": 1085, "pitch": 58, "duration": 2, "velocity": 88}, {"time": 1085, "pitch": 62, "duration": 10, "velocity": 95}, {"time": 1085, "pitch": 70, "duration": 11, "velocity": 81}, {"time": 1091, "pitch": 53, "duration": 5, "velocity": 85}, {"time": 1097, "pitch": 51, "duration": 45, "velocity": 100}, {"time": 1103, "pitch": 58, "duration": 18, "velocity": 62}, {"time": 1109, "pitch": 63, "duration": 18, "velocity": 64}, {"time": 1115, "pitch": 67, "duration": 40, "velocity": 99}, {"time": 1127, "pitch": 58, "duration": 19, "velocity": 57}, {"time": 1133, "pitch": 63, "duration": 18, "velocity": 84}, {"time": 1139, "pitch": 70, "duration": 25, "velocity": 84}, {"time": 1145, "pitch": 51, "duration": 43, "velocity": 100}, {"time": 1151, "pitch": 58, "duration": 27, "velocity": 76}, {"time": 1157, "pitch": 63, "duration": 20, "velocity": 67}, {"time": 1163, "pitch": 67, "duration": 33, "velocity": 93}, {"time": 1175, "pitch": 55, "duration": 11, "velocity": 12}, {"time": 1181, "pitch": 58, "duration": 9, "velocity": 87}, {"time": 1187, "pitch": 63, "duration": 11, "velocity": 87}, {"time": 1193, "pitch": 51, "duration": 13, "velocity": 105}, {"time": 1199, "pitch": 58, "duration": 7, "velocity": 84}, {"time": 1205, "pitch": 63, "duration": 8, "velocity": 87}, {"time": 1211, "pitch": 67, "duration": 11, "velocity": 63}, {"time": 1217, "pitch": 48, "duration": 13, "velocity": 99}, {"time": 1223, "pitch": 55, "duration": 7, "velocity": 52}, {"time": 1229, "pitch": 60, "duration": 7, "velocity": 93}, {"time": 1235, "pitch": 67, "duration": 9, "velocity": 43}, {"time": 1241, "pitch": 46, "duration": 41, "velocity": 92}, {"time": 1247, "pitch": 53, "duration": 14, "velocity": 74}, {"time": 1253, "pitch": 58, "duration": 3, "velocity": 78}, {"time": 1259, "pitch": 58, "duration": 13, "velocity": 84}, {"time": 1259, "pitch": 62, "duration": 12, "velocity": 93}, {"time": 1259, "pitch": 65, "duration": 17, "velocity": 93}, {"time": 1271, "pitch": 53, "duration": 7, "velocity": 50}, {"time": 1277, "pitch": 58, "duration": 9, "velocity": 94}, {"time": 1283, "pitch": 62, "duration": 3, "velocity": 65}, {"time": 1289, "pitch": 51, "duration": 41, "velocity": 76}, {"time": 1289, "pitch": 63, "duration": 6, "velocity": 78}, {"time": 1295, "pitch": 58, "duration": 10, "velocity": 73}, {"time": 1301, "pitch": 63, "duration": 7, "velocity": 71}, {"time": 1307, "pitch": 67, "duration": 21, "velocity": 96}, {"time": 1325, "pitch": 63, "duration": 12, "velocity": 84}, {"time": 1331, "pitch": 58, "duration": 7, "velocity": 100}, {"time": 1337, "pitch": 48, "duration": 14, "velocity": 85}, {"time": 1337, "pitch": 55, "duration": 3, "velocity": 57}, {"time": 1337, "pitch": 60, "duration": 8, "velocity": 63}, {"time": 1343, "pitch": 55, "duration": 11, "velocity": 72}, {"time": 1349, "pitch": 60, "duration": 6, "velocity": 96}, {"time": 1355, "pitch": 63, "duration": 11, "velocity": 89}, {"time": 1361, "pitch": 41, "duration": 18, "velocity": 54}, {"time": 1367, "pitch": 48, "duration": 14, "velocity": 72}, {"time": 1373, "pitch": 53, "duration": 17, "velocity": 82}, {"time": 1379, "pitch": 60, "duration": 13, "velocity": 40}, {"time": 1385, "pitch": 41, "duration": 13, "velocity": 96}, {"time": 1391, "pitch": 48, "duration": 7, "velocity": 63}, {"time": 1397, "pitch": 53, "duration": 7, "velocity": 109}, {"time": 1403, "pitch": 65, "duration": 7, "velocity": 77}, {"time": 1409, "pitch": 44, "duration": 19, "velocity": 102}, {"time": 1415, "pitch": 51, "duration": 15, "velocity": 84}, {"time": 1421, "pitch": 56, "duration": 8, "velocity": 87}, {"time": 1427, "pitch": 60, "duration": 5, "velocity": 87}, {"time": 1433, "pitch": 51, "duration": 41, "velocity": 92}, {"time": 1433, "pitch": 58, "duration": 3, "velocity": 76}, {"time": 1433, "pitch": 63, "duration": 7, "velocity": 78}, {"time": 1439, "pitch": 58, "duration": 10, "velocity": 76}, {"time": 1445, "pitch": 63, "duration": 7, "velocity": 80}, {"time": 1451, "pitch": 67, "duration": 14, "velocity": 87}, {"time": 1463, "pitch": 58, "duration": 3, "velocity": 66}, {"time": 1469, "pitch": 63, "duration": 10, "velocity": 92}, {"time": 1475, "pitch": 58, "duration": 6, "velocity": 97}, {"time": 1481, "pitch": 46, "duration": 36, "velocity": 92}, {"time": 1487, "pitch": 53, "duration": 13, "velocity": 57}, {"time": 1493, "pitch": 58, "duration": 2, "velocity": 100}, {"time": 1499, "pitch": 58, "duration": 12, "velocity": 94}, {"time": 1499, "pitch": 62, "duration": 19, "velocity": 85}, {"time": 1499, "pitch": 65, "duration": 20, "velocity": 43}, {"time": 1511, "pitch": 53, "duration": 5, "velocity": 24}, {"time": 1517, "pitch": 58, "duration": 7, "velocity": 108}, {"time": 1523, "pitch": 62, "duration": 4, "velocity": 65}, {"time": 1529, "pitch": 41, "duration": 10, "velocity": 68}, {"time": 1529, "pitch": 60, "duration": 11, "velocity": 48}, {"time": 1535, "pitch": 48, "duration": 5, "velocity": 50}, {"time": 1541, "pitch": 53, "duration": 6, "velocity": 93}, {"time": 1547, "pitch": 60, "duration": 5, "velocity": 77}, {"time": 1553, "pitch": 48, "duration": 20, "velocity": 63}, {"time": 1559, "pitch": 55, "duration": 15, "velocity": 85}, {"time": 1565, "pitch": 60, "duration": 12, "velocity": 99}, {"time": 1571, "pitch": 63, "duration": 7, "velocity": 69}, {"time": 1577, "pitch": 51, "duration": 16, "velocity": 94}, {"time": 1577, "pitch": 58, "duration": 3, "velocity": 71}, {"time": 1577, "pitch": 63, "duration": 1, "velocity": 78}, {"time": 1583, "pitch": 58, "duration": 12, "velocity": 89}, {"time": 1589, "pitch": 63, "duration": 7, "velocity": 78}, {"time": 1595, "pitch": 67, "duration": 9, "velocity": 59}, {"time": 1601, "pitch": 48, "duration": 15, "velocity": 87}, {"time": 1607, "pitch": 55, "duration": 9, "velocity": 59}, {"time": 1613, "pitch": 60, "duration": 8, "velocity": 90}, {"time": 1619, "pitch": 67, "duration": 8, "velocity": 48}, {"time": 1625, "pitch": 41, "duration": 9, "velocity": 68}, {"time": 1625, "pitch": 60, "duration": 13, "velocity": 68}, {"time": 1631, "pitch": 48, "duration": 4, "velocity": 57}, {"time": 1637, "pitch": 53, "duration": 6, "velocity": 96}, {"time": 1643, "pitch": 60, "duration": 3, "velocity": 30}, {"time": 1649, "pitch": 46, "duration": 21, "velocity": 94}, {"time": 1655, "pitch": 53, "duration": 15, "velocity": 70}, {"time": 1661, "pitch": 58, "duration": 11, "velocity": 82}, {"time": 1667, "pitch": 62, "duration": 5, "velocity": 90}, {"time": 1673, "pitch": 51, "duration": 35, "velocity": 92}, {"time": 1673, "pitch": 58, "duration": 3, "velocity": 76}, {"time": 1673, "pitch": 63, "duration": 7, "velocity": 71}, {"time": 1679, "pitch": 58, "duration": 12, "velocity": 82}, {"time": 1685, "pitch": 63, "duration": 7, "velocity": 78}, {"time": 1691, "pitch": 67, "duration": 13, "velocity": 61}, {"time": 1703, "pitch": 63, "duration": 7, "velocity": 82}, {"time": 1709, "pitch": 58, "duration": 8, "velocity": 100}, {"time": 1715, "pitch": 63, "duration": 5, "velocity": 80}, {"time": 1721, "pitch": 48, "duration": 11, "velocity": 90}, {"time": 1727, "pitch": 55, "duration": 7, "velocity": 50}, {"time": 1733, "pitch": 60, "duration": 8, "velocity": 82}, {"time": 1739, "pitch": 67, "duration": 7, "velocity": 45}, {"time": 1745, "pitch": 41, "duration": 14, "velocity": 82}, {"time": 1751, "pitch": 48, "duration": 10, "velocity": 41}, {"time": 1757, "pitch": 53, "duration": 8, "velocity": 93}, {"time": 1763, "pitch": 60, "duration": 5, "velocity": 77}, {"time": 1769, "pitch": 41, "duration": 9, "velocity": 93}, {"time": 1769, "pitch": 53, "duration": 7, "velocity": 39}, {"time": 1769, "pitch": 56, "duration": 8, "velocity": 82}, {"time": 1769, "pitch": 60, "duration": 11, "velocity": 48}, {"time": 1775, "pitch": 48, "duration": 5, "velocity": 48}, {"time": 1781, "pitch": 53, "duration": 4, "velocity": 96}, {"time": 1793, "pitch": 48, "duration": 18, "velocity": 87}, {"time": 1793, "pitch": 55, "duration": 3, "velocity": 82}, {"time": 1793, "pitch": 60, "duration": 12, "velocity": 48}, {"time": 1799, "pitch": 55, "duration": 6, "velocity": 85}, {"time": 1805, "pitch": 63, "duration": 12, "velocity": 92}, {"time": 1811, "pitch": 55, "duration": 4, "velocity": 72}, {"time": 1817, "pitch": 46, "duration": 48, "velocity": 89}, {"time": 1817, "pitch": 58, "duration": 7, "velocity": 87}, {"time": 1817, "pitch": 62, "duration": 12, "velocity": 74}, {"time": 1823, "pitch": 53, "duration": 9, "velocity": 29}, {"time": 1829, "pitch": 58, "duration": 7, "velocity": 100}, {"time": 1835, "pitch": 65, "duration": 10, "velocity": 93}, {"time": 1841, "pitch": 53, "duration": 24, "velocity": 54}, {"time": 1847, "pitch": 58, "duration": 8, "velocity": 92}, {"time": 1853, "pitch": 62, "duration": 7, "velocity": 82}, {"time": 1859, "pitch": 58, "duration": 6, "velocity": 82}, {"time": 1865, "pitch": 51, "duration": 14, "velocity": 85}, {"time": 1871, "pitch": 58, "duration": 8, "velocity": 72}, {"time": 1877, "pitch": 63, "duration": 2, "velocity": 79}, {"time": 1877, "pitch": 67, "duration": 13, "velocity": 83}, {"time": 1883, "pitch": 63, "duration": 6, "velocity": 81}, {"time": 1889, "pitch": 48, "duration": 19, "velocity": 82}, {"time": 1895, "pitch": 55, "duration": 9, "velocity": 73}, {"time": 1901, "pitch": 60, "duration": 3, "velocity": 79}, {"time": 1901, "pitch": 63, "duration": 7, "velocity": 80}, {"time": 1901, "pitch": 67, "duration": 7, "velocity": 78}, {"time": 1907, "pitch": 60, "duration": 3, "velocity": 80}, {"time": 1913, "pitch": 53, "duration": 15, "velocity": 81}, {"time": 1913, "pitch": 60, "duration": 2, "velocity": 74}, {"time": 1913, "pitch": 65, "duration": 7, "velocity": 83}, {"time": 1919, "pitch": 60, "duration": 4, "velocity": 82}, {"time": 1925, "pitch": 68, "duration": 18, "velocity": 79}, {"time": 1931, "pitch": 60, "duration": 8, "velocity": 85}, {"time": 1937, "pitch": 46, "duration": 21, "velocity": 81}, {"time": 1943, "pitch": 53, "duration": 14, "velocity": 76}, {"time": 1949, "pitch": 62, "duration": 5, "velocity": 90}, {"time": 1955, "pitch": 58, "duration": 4, "velocity": 84}, {"time": 1961, "pitch": 51, "duration": 15, "velocity": 88}, {"time": 1961, "pitch": 58, "duration": 3, "velocity": 80}, {"time": 1961, "pitch": 63, "duration": 9, "velocity": 80}, {"time": 1967, "pitch": 58, "duration": 6, "velocity": 79}, {"time": 1973, "pitch": 67, "duration": 3, "velocity": 93}, {"time": 1979, "pitch": 62, "duration": 3, "velocity": 90}, {"time": 1985, "pitch": 48, "duration": 22, "velocity": 80}, {"time": 1985, "pitch": 60, "duration": 8, "velocity": 75}, {"time": 1985, "pitch": 63, "duration": 9, "velocity": 81}, {"time": 1991, "pitch": 55, "duration": 12, "velocity": 64}, {"time": 1997, "pitch": 60, "duration": 7, "velocity": 88}, {"time": 2003, "pitch": 63, "duration": 4, "velocity": 81}, {"time": 2009, "pitch": 53, "duration": 14, "velocity": 83}, {"time": 2009, "pitch": 60, "duration": 3, "velocity": 79}, {"time": 2009, "pitch": 65, "duration": 7, "velocity": 81}, {"time": 2015, "pitch": 60, "duration": 7, "velocity": 80}, {"time": 2021, "pitch": 65, "duration": 2, "velocity": 84}, {"time": 2033, "pitch": 46, "duration": 22, "velocity": 79}, {"time": 2033, "pitch": 60, "duration": 1, "velocity": 79}, {"time": 2039, "pitch": 53, "duration": 15, "velocity": 85}, {"time": 2045, "pitch": 58, "duration": 3, "velocity": 90}, {"time": 2051, "pitch": 62, "duration": 2, "velocity": 90}, {"time": 2057, "pitch": 51, "duration": 20, "velocity": 80}, {"time": 2057, "pitch": 58, "duration": 3, "velocity": 79}, {"time": 2057, "pitch": 63, "duration": 8, "velocity": 79}, {"time": 2063, "pitch": 58, "duration": 3, "velocity": 77}, {"time": 2069, "pitch": 63, "duration": 7, "velocity": 81}, {"time": 2069, "pitch": 67, "duration": 9, "velocity": 85}, {"time": 2075, "pitch": 58, "duration": 3, "velocity": 78}, {"time": 2081, "pitch": 51, "duration": 14, "velocity": 75}, {"time": 2081, "pitch": 58, "duration": 2, "velocity": 75}, {"time": 2081, "pitch": 63, "duration": 8, "velocity": 78}, {"time": 2087, "pitch": 58, "duration": 3, "velocity": 78}, {"time": 2093, "pitch": 58, "duration": 9, "velocity": 78}, {"time": 2093, "pitch": 63, "duration": 10, "velocity": 82}, {"time": 2093, "pitch": 67, "duration": 12, "velocity": 80}, {"time": 2105, "pitch": 48, "duration": 18, "velocity": 82}, {"time": 2105, "pitch": 60, "duration": 3, "velocity": 82}, {"time": 2105, "pitch": 63, "duration": 7, "velocity": 81}, {"time": 2111, "pitch": 60, "duration": 3, "velocity": 75}, {"time": 2117, "pitch": 67, "duration": 7, "velocity": 79}, {"time": 2123, "pitch": 60, "duration": 3, "velocity": 85}, {"time": 2129, "pitch": 48, "duration": 14, "velocity": 81}, {"time": 2129, "pitch": 60, "duration": 8, "velocity": 79}, {"time": 2129, "pitch": 63, "duration": 8, "velocity": 79}, {"time": 2135, "pitch": 55, "duration": 6, "velocity": 70}, {"time": 2141, "pitch": 60, "duration": 2, "velocity": 77}, {"time": 2141, "pitch": 63, "duration": 6, "velocity": 80}, {"time": 2141, "pitch": 67, "duration": 6, "velocity": 80}, {"time": 2147, "pitch": 60, "duration": 2, "velocity": 81}, {"time": 2153, "pitch": 44, "duration": 39, "velocity": 79}, {"time": 2153, "pitch": 56, "duration": 9, "velocity": 79}, {"time": 2153, "pitch": 60, "duration": 8, "velocity": 81}, {"time": 2159, "pitch": 51, "duration": 32, "velocity": 77}, {"time": 2165, "pitch": 56, "duration": 2, "velocity": 81}, {"time": 2165, "pitch": 60, "duration": 5, "velocity": 86}, {"time": 2165, "pitch": 63, "duration": 6, "velocity": 81}, {"time": 2171, "pitch": 56, "duration": 7, "velocity": 82}, {"time": 2177, "pitch": 68, "duration": 7, "velocity": 79}, {"time": 2183, "pitch": 56, "duration": 3, "velocity": 81}, {"time": 2189, "pitch": 56, "duration": 1, "velocity": 81}, {"time": 2189, "pitch": 60, "duration": 6, "velocity": 86}, {"time": 2189, "pitch": 63, "duration": 6, "velocity": 83}, {"time": 2195, "pitch": 51, "duration": 3, "velocity": 83}, {"time": 2201, "pitch": 46, "duration": 48, "velocity": 80}, {"time": 2201, "pitch": 58, "duration": 8, "velocity": 76}, {"time": 2201, "pitch": 62, "duration": 7, "velocity": 73}, {"time": 2207, "pitch": 53, "duration": 20, "velocity": 71}, {"time": 2213, "pitch": 62, "duration": 4, "velocity": 79}, {"time": 2213, "pitch": 65, "duration": 7, "velocity": 81}, {"time": 2219, "pitch": 58, "duration": 3, "velocity": 81}, {"time": 2225, "pitch": 58, "duration": 5, "velocity": 95}, {"time": 2225, "pitch": 70, "duration": 6, "velocity": 80}, {"time": 2231, "pitch": 53, "duration": 17, "velocity": 81}, {"time": 2237, "pitch": 58, "duration": 3, "velocity": 81}, {"time": 2237, "pitch": 62, "duration": 10, "velocity": 90}, {"time": 2243, "pitch": 58, "duration": 4, "velocity": 88}, {"time": 2249, "pitch": 51, "duration": 45, "velocity": 100}, {"time": 2255, "pitch": 58, "duration": 18, "velocity": 62}, {"time": 2261, "pitch": 63, "duration": 18, "velocity": 64}, {"time": 2267, "pitch": 67, "duration": 40, "velocity": 99}, {"time": 2279, "pitch": 58, "duration": 19, "velocity": 57}, {"time": 2285, "pitch": 63, "duration": 18, "velocity": 84}, {"time": 2291, "pitch": 70, "duration": 25, "velocity": 84}, {"time": 2297, "pitch": 51, "duration": 43, "velocity": 100}, {"time": 2303, "pitch": 58, "duration": 27, "velocity": 76}, {"time": 2309, "pitch": 63, "duration": 20, "velocity": 67}, {"time": 2315, "pitch": 67, "duration": 33, "velocity": 93}, {"time": 2327, "pitch": 55, "duration": 11, "velocity": 12}, {"time": 2333, "pitch": 58, "duration": 9, "velocity": 87}, {"time": 2339, "pitch": 63, "duration": 11, "velocity": 87}, {"time": 2345, "pitch": 51, "duration": 13, "velocity": 105}, {"time": 2351, "pitch": 58, "duration": 7, "velocity": 84}, {"time": 2357, "pitch": 63, "duration": 8, "velocity": 87}, {"time": 2363, "pitch": 67, "duration": 11, "velocity": 63}, {"time": 2369, "pitch": 48, "duration": 13, "velocity": 99}, {"time": 2375, "pitch": 55, "duration": 7, "velocity": 52}, {"time": 2381, "pitch": 60, "duration": 7, "velocity": 93}, {"time": 2387, "pitch": 67, "duration": 9, "velocity": 43}, {"time": 2393, "pitch": 46, "duration": 41, "velocity": 92}, {"time": 2399, "pitch": 53, "duration": 14, "velocity": 74}, {"time": 2405, "pitch": 58, "duration": 3, "velocity": 78}, {"time": 2411, "pitch": 58, "duration": 13, "velocity": 84}, {"time": 2411, "pitch": 62, "duration": 12, "velocity": 93}, {"time": 2411, "pitch": 65, "duration": 17, "velocity": 93}, {"time": 2423, "pitch": 53, "duration": 7, "velocity": 50}, {"time": 2429, "pitch": 58, "duration": 9, "velocity": 94}, {"time": 2435, "pitch": 62, "duration": 3, "velocity": 65}, {"time": 2441, "pitch": 51, "duration": 41, "velocity": 76}, {"time": 2441, "pitch": 63, "duration": 6, "velocity": 78}, {"time": 2447, "pitch": 58, "duration": 10, "velocity": 73}, {"time": 2453, "pitch": 63, "duration": 7, "velocity": 71}, {"time": 2459, "pitch": 67, "duration": 21, "velocity": 96}, {"time": 2477, "pitch": 63, "duration": 12, "velocity": 84}, {"time": 2483, "pitch": 58, "duration": 7, "velocity": 100}, {"time": 2489, "pitch": 48, "duration": 14, "velocity": 85}, {"time": 2489, "pitch": 55, "duration": 3, "velocity": 57}, {"time": 2489, "pitch": 60, "duration": 8, "velocity": 63}, {"time": 2495, "pitch": 55, "duration": 11, "velocity": 72}, {"time": 2501, "pitch": 60, "duration": 6, "velocity": 96}, {"time": 2507, "pitch": 63, "duration": 11, "velocity": 89}, {"time": 2513, "pitch": 41, "duration": 18, "velocity": 54}, {"time": 2519, "pitch": 48, "duration": 14, "velocity": 72}, {"time": 2525, "pitch": 53, "duration": 17, "velocity": 82}, {"time": 2531, "pitch": 60, "duration": 13, "velocity": 40}, {"time": 2537, "pitch": 41, "duration": 13, "velocity": 96}, {"time": 2543, "pitch": 48, "duration": 7, "velocity": 63}, {"time": 2549, "pitch": 53, "duration": 7, "velocity": 109}, {"time": 2555, "pitch": 65, "duration": 7, "velocity": 77}, {"time": 2561, "pitch": 44, "duration": 19, "velocity": 102}, {"time": 2567, "pitch": 51, "duration": 15, "velocity": 84}, {"time": 2573, "pitch": 56, "duration": 8, "velocity": 87}, {"time": 2579, "pitch": 60, "duration": 5, "velocity": 87}, {"time": 2585, "pitch": 51, "duration": 41, "velocity": 92}, {"time": 2585, "pitch": 58, "duration": 3, "velocity": 76}, {"time": 2585, "pitch": 63, "duration": 7, "velocity": 78}, {"time": 2591, "pitch": 58, "duration": 10, "velocity": 76}, {"time": 2597, "pitch": 63, "duration": 7, "velocity": 80}, {"time": 2603, "pitch": 67, "duration": 14, "velocity": 87}, {"time": 2615, "pitch": 58, "duration": 3, "velocity": 66}, {"time": 2621, "pitch": 63, "duration": 10, "velocity": 92}, {"time": 2627, "pitch": 58, "duration": 6, "velocity": 97}, {"time": 2633, "pitch": 46, "duration": 36, "velocity": 92}, {"time": 2639, "pitch": 53, "duration": 13, "velocity": 57}, {"time": 2645, "pitch": 58, "duration": 2, "velocity": 100}, {"time": 2651, "pitch": 58, "duration": 12, "velocity": 94}, {"time": 2651, "pitch": 62, "duration": 19, "velocity": 85}, {"time": 2651, "pitch": 65, "duration": 20, "velocity": 43}, {"time": 2663, "pitch": 53, "duration": 5, "velocity": 24}, {"time": 2669, "pitch": 58, "duration": 7, "velocity": 108}, {"time": 2675, "pitch": 62, "duration": 4, "velocity": 65}, {"time": 2681, "pitch": 41, "duration": 10, "velocity": 68}, {"time": 2681, "pitch": 60, "duration": 11, "velocity": 48}, {"time": 2687, "pitch": 48, "duration": 5, "velocity": 50}, {"time": 2693, "pitch": 53, "duration": 6, "velocity": 93}, {"time": 2699, "pitch": 60, "duration": 5, "velocity": 77}, {"time": 2705, "pitch": 48, "duration": 20, "velocity": 63}, {"time": 2711, "pitch": 55, "duration": 15, "velocity": 85}, {"time": 2717, "pitch": 60, "duration": 12, "velocity": 99}, {"time": 2723, "pitch": 63, "duration": 7, "velocity": 69}, {"time": 2729, "pitch": 51, "duration": 16, "velocity": 94}, {"time": 2729, "pitch": 58, "duration": 3, "velocity": 71}, {"time": 2729, "pitch": 63, "duration": 1, "velocity": 78}, {"time": 2735, "pitch": 58, "duration": 12, "velocity": 89}, {"time": 2741, "pitch": 63, "duration": 7, "velocity": 78}, {"time": 2747, "pitch": 67, "duration": 9, "velocity": 59}, {"time": 2753, "pitch": 48, "duration": 15, "velocity": 87}, {"time": 2759, "pitch": 55, "duration": 9, "velocity": 59}, {"time": 2765, "pitch": 60, "duration": 8, "velocity": 90}, {"time": 2771, "pitch": 67, "duration": 8, "velocity": 48}, {"time": 2777, "pitch": 41, "duration": 9, "velocity": 68}, {"time": 2777, "pitch": 60, "duration": 13, "velocity": 68}, {"time": 2783, "pitch": 48, "duration": 4, "velocity": 57}, {"time": 2789, "pitch": 53, "duration": 6, "velocity": 96}, {"time": 2795, "pitch": 60, "duration": 3, "velocity": 30}, {"time": 2801, "pitch": 46, "duration": 21, "velocity": 94}, {"time": 2807, "pitch": 53, "duration": 15, "velocity": 70}, {"time": 2813, "pitch": 58, "duration": 11, "velocity": 82}, {"time": 2819, "pitch": 62, "duration": 5, "velocity": 90}, {"time": 2825, "pitch": 51, "duration": 35, "velocity": 92}, {"time": 2825, "pitch": 58, "duration": 3, "velocity": 76}, {"time": 2825, "pitch": 63, "duration": 7, "velocity": 71}, {"time": 2831, "pitch": 58, "duration": 12, "velocity": 82}, {"time": 2837, "pitch": 63, "duration": 7, "velocity": 78}, {"time": 2843, "pitch": 67, "duration": 13, "velocity": 61}, {"time": 2855, "pitch": 63, "duration": 7, "velocity": 82}, {"time": 2861, "pitch": 58, "duration": 8, "velocity": 100}, {"time": 2867, "pitch": 63, "duration": 5, "velocity": 80}, {"time": 2873, "pitch": 48, "duration": 11, "velocity": 90}, {"time": 2879, "pitch": 55, "duration": 7, "velocity": 50}, {"time": 2885, "pitch": 60, "duration": 8, "velocity": 82}, {"time": 2891, "pitch": 67, "duration": 7, "velocity": 45}, {"time": 2897, "pitch": 41, "duration": 14, "velocity": 82}, {"time": 2903, "pitch": 48, "duration": 10, "velocity": 41}, {"time": 2909, "pitch": 53, "duration": 8, "velocity": 93}, {"time": 2915, "pitch": 60, "duration": 5, "velocity": 77}, {"time": 2918, "pitch": 53, "duration": 17, "velocity": 79}, {"time": 2920, "pitch": 56, "duration": 15, "velocity": 79}, {"time": 2920, "pitch": 41, "duration": 17, "velocity": 83}, {"time": 2921, "pitch": 60, "duration": 15, "velocity": 80}, {"time": 2922, "pitch": 65, "duration": 15, "velocity": 76}, {"time": 2946, "pitch": 56, "duration": 22, "velocity": 72}, {"time": 2948, "pitch": 60, "duration": 20, "velocity": 79}, {"time": 2948, "pitch": 44, "duration": 23, "velocity": 80}, {"time": 2950, "pitch": 63, "duration": 18, "velocity": 71}, {"time": 2951, "pitch": 68, "duration": 19, "velocity": 69}, {"time": 2980, "pitch": 58, "duration": 20, "velocity": 65}, {"time": 2981, "pitch": 63, "duration": 23, "velocity": 78}, {"time": 2982, "pitch": 39, "duration": 19, "velocity": 81}, {"time": 2983, "pitch": 67, "duration": 22, "velocity": 79}, {"time": 3006, "pitch": 60, "duration": 21, "velocity": 66}, {"time": 3007, "pitch": 63, "duration": 20, "velocity": 79}, {"time": 3008, "pitch": 48, "duration": 21, "velocity": 80}, {"time": 3009, "pitch": 67, "duration": 17, "velocity": 76}, {"time": 3037, "pitch": 60, "duration": 19, "velocity": 66}, {"time": 3039, "pitch": 65, "duration": 15, "velocity": 79}, {"time": 3039, "pitch": 41, "duration": 14, "velocity": 80}, {"time": 3040, "pitch": 68, "duration": 17, "velocity": 70}, {"time": 3065, "pitch": 58, "duration": 6, "velocity": 62}, {"time": 3066, "pitch": 62, "duration": 9, "velocity": 71}, {"time": 3068, "pitch": 65, "duration": 10, "velocity": 73}, {"time": 3069, "pitch": 46, "duration": 21, "velocity": 80}, {"time": 3069, "pitch": 70, "duration": 10, "velocity": 78}, {"time": 3076, "pitch": 53, "duration": 11, "velocity": 78}, {"time": 3084, "pitch": 58, "duration": 10, "velocity": 86}, {"time": 3092, "pitch": 62, "duration": 8, "velocity": 84}, {"time": 3100, "pitch": 39, "duration": 2, "velocity": 85}, {"time": 3101, "pitch": 63, "duration": 12, "velocity": 79}, {"time": 3109, "pitch": 51, "duration": 56, "velocity": 79}, {"time": 3117, "pitch": 58, "duration": 47, "velocity": 79}, {"time": 3125, "pitch": 65, "duration": 5, "velocity": 81}, {"time": 3134, "pitch": 67, "duration": 3, "velocity": 81}, {"time": 3143, "pitch": 70, "duration": 8, "velocity": 79}, {"time": 3152, "pitch": 75, "duration": 3, "velocity": 84}, {"time": 3161, "pitch": 77, "duration": 2, "velocity": 83}, {"time": 3173, "pitch": 51, "duration": 18, "velocity": 60}, {"time": 3175, "pitch": 58, "duration": 16, "velocity": 53}, {"time": 3178, "pitch": 75, "duration": 3, "velocity": 66}, {"time": 3180, "pitch": 79, "duration": 2, "velocity": 65}, {"time": 3181, "pitch": 87, "duration": 3, "velocity": 75}], "annotations": [{"time": 41, "annotation": {"number": 64, "value": 127}, "group": "control_change"}, {"time": 60, "annotation": {"number": 64, "value": 0}, "group": "control_change"}, {"time": 64, "annotation": {"number": 64, "value": 127}, "group": "control_change"}, {"time": 85, "annotation": {"number": 64, "value": 0}, "group": "control_change"}, {"time": 88, "annotation": {"number": 64, "value": 127}, "group": "control_change"}, {"time": 137, "annotation": {"number": 64, "value": 127}, "group": "control_change"}, {"time": 157, "annotation": {"number": 64, "value": 0}, "group": "control_change"}, {"time": 161, "annotation": {"number": 64, "value": 127}, "group": "control_change"}, {"time": 181, "annotation": {"number": 64, "value": 0}, "group": "control_change"}, {"time": 185, "annotation": {"number": 64, "value": 127}, "group": "control_change"}, {"time": 185, "annotation": {"number": 64, "value": 0}, "group": "control_change"}, {"time": 220, "annotation": {"number": 64, "value": 127}, "group": "control_change"}, {"time": 228, "annotation": {"number": 64, "value": 0}, "group": "control_change"}, {"time": 229, "annotation": {"number": 64, "value": 0}, "group": "control_change"}, {"time": 255, "annotation": {"number": 64, "value": 127}, "group": "control_change"}, {"time": 257, "annotation": {"number": 64, "value": 0}, "group": "control_change"}, {"time": 308, "annotation": {"number": 64, "value": 127}, "group": "control_change"}, {"time": 309, "annotation": {"number": 64, "value": 0}, "group": "control_change"}, {"time": 309, "annotation": {"number": 64, "value": 127}, "group": "control_change"}, {"time": 310, "annotation": {"number": 64, "value": 0}, "group": "control_change"}, {"time": 310, "annotation": {"number": 64, "value": 127}, "group": "control_change"}, {"time": 326, "annotation": {"number": 64, "value": 0}, "group": "control_change"}, {"time": 333, "annotation": {"number": 64, "value": 127}, "group": "control_change"}, {"time": 350, "annotation": {"number": 64, "value": 0}, "group": "control_change"}, {"time": 356, "annotation": {"number": 64, "value": 127}, "group": "control_change"}, {"time": 374, "annotation": {"number": 64, "value": 0}, "group": "control_change"}, {"time": 379, "annotation": {"number": 64, "value": 127}, "group": "control_change"}, {"time": 421, "annotation": {"number": 64, "value": 0}, "group": "control_change"}, {"time": 426, "annotation": {"number": 64, "value": 127}, "group": "control_change"}, {"time": 471, "annotation": {"number": 64, "value": 0}, "group": "control_change"}, {"time": 484, "annotation": {"number": 64, "value": 127}, "group": "control_change"}, {"time": 495, "annotation": {"number": 64, "value": 0}, "group": "control_change"}, {"time": 501, "annotation": {"number": 64, "value": 127}, "group": "control_change"}, {"time": 518, "annotation": {"number": 64, "value": 0}, "group": "control_change"}, {"time": 524, "annotation": {"number": 64, "value": 127}, "group": "control_change"}, {"time": 540, "annotation": {"number": 64, "value": 0}, "group": "control_change"}, {"time": 544, "annotation": {"number": 64, "value": 127}, "group": "control_change"}, {"time": 568, "annotation": {"number": 64, "value": 0}, "group": "control_change"}, {"time": 574, "annotation": {"number": 64, "value": 127}, "group": "control_change"}, {"time": 575, "annotation": {"number": 64, "value": 0}, "group": "control_change"}, {"time": 575, "annotation": {"number": 64, "value": 127}, "group": "control_change"}, {"time": 611, "annotation": {"number": 64, "value": 0}, "group": "control_change"}, {"time": 618, "annotation": {"number": 64, "value": 127}, "group": "control_change"}, {"time": 661, "annotation": {"number": 64, "value": 0}, "group": "control_change"}, {"time": 668, "annotation": {"number": 64, "value": 127}, "group": "control_change"}, {"time": 668, "annotation": {"number": 64, "value": 0}, "group": "control_change"}, {"time": 689, "annotation": {"number": 64, "value": 0}, "group": "control_change"}, {"time": 692, "annotation": {"number": 64, "value": 127}, "group": "control_change"}, {"time": 710, "annotation": {"number": 64, "value": 0}, "group": "control_change"}, {"time": 717, "annotation": {"number": 64, "value": 127}, "group": "control_change"}, {"time": 732, "annotation": {"number": 64, "value": 0}, "group": "control_change"}, {"time": 738, "annotation": {"number": 64, "value": 127}, "group": "control_change"}, {"time": 757, "annotation": {"number": 64, "value": 0}, "group": "control_change"}, {"time": 762, "annotation": {"number": 64, "value": 127}, "group": "control_change"}, {"time": 785, "annotation": {"number": 64, "value": 0}, "group": "control_change"}, {"time": 789, "annotation": {"number": 64, "value": 127}, "group": "control_change"}, {"time": 804, "annotation": {"number": 64, "value": 0}, "group": "control_change"}, {"time": 813, "annotation": {"number": 64, "value": 127}, "group": "control_change"}, {"time": 851, "annotation": {"number": 64, "value": 0}, "group": "control_change"}, {"time": 856, "annotation": {"number": 64, "value": 127}, "group": "control_change"}, {"time": 876, "annotation": {"number": 64, "value": 0}, "group": "control_change"}, {"time": 879, "annotation": {"number": 64, "value": 127}, "group": "control_change"}, {"time": 903, "annotation": {"number": 64, "value": 0}, "group": "control_change"}, {"time": 907, "annotation": {"number": 64, "value": 127}, "group": "control_change"}, {"time": 929, "annotation": {"number": 64, "value": 0}, "group": "control_change"}, {"time": 933, "annotation": {"number": 64, "value": 127}, "group": "control_change"}, {"time": 950, "annotation": {"number": 64, "value": 0}, "group": "control_change"}, {"time": 954, "annotation": {"number": 64, "value": 127}, "group": "control_change"}, {"time": 998, "annotation": {"number": 64, "value": 0}, "group": "control_change"}, {"time": 1001, "annotation": {"number": 64, "value": 127}, "group": "control_change"}, {"time": 1025, "annotation": {"number": 64, "value": 0}, "group": "control_change"}, {"time": 1029, "annotation": {"number": 64, "value": 127}, "group": "control_change"}, {"time": 1049, "annotation": {"number": 64, "value": 0}, "group": "control_change"}, {"time": 1053, "annotation": {"number": 64, "value": 127}, "group": "control_change"}, {"time": 1091, "annotation": {"number": 64, "value": 0}, "group": "control_change"}, {"time": 1119, "annotation": {"number": 64, "value": 127}, "group": "control_change"}, {"time": 1121, "annotation": {"number": 64, "value": 0}, "group": "control_change"}, {"time": 1172, "annotation": {"number": 64, "value": 127}, "group": "control_change"}, {"time": 1173, "annotation": {"number": 64, "value": 0}, "group": "control_change"}, {"time": 1173, "annotation": {"number": 64, "value": 127}, "group": "control_change"}, {"time": 1174, "annotation": {"number": 64, "value": 0}, "group": "control_change"}, {"time": 1174, "annotation": {"number": 64, "value": 127}, "group": "control_change"}, {"time": 1190, "annotation": {"number": 64, "value": 0}, "group": "control_change"}, {"time": 1197, "annotation": {"number": 64, "value": 127}, "group": "control_change"}, {"time": 1214, "annotation": {"number": 64, "value": 0}, "group": "control_change"}, {"time": 1220, "annotation": {"number": 64, "value": 127}, "group": "control_change"}, {"time": 1238, "annotation": {"number": 64, "value": 0}, "group": "control_change"}, {"time": 1243, "annotation": {"number": 64, "value": 127}, "group": "control_change"}, {"time": 1285, "annotation": {"number": 64, "value": 0}, "group": "control_change"}, {"time": 1290, "annotation": {"number": 64, "value": 127}, "group": "control_change"}, {"time": 1335, "annotation": {"number": 64, "value": 0}, "group": "control_change"}, {"time": 1348, "annotation": {"number": 64, "value": 127}, "group": "control_change"}, {"time": 1359, "annotation": {"number": 64, "value": 0}, "group": "control_change"}, {"time": 1365, "annotation": {"number": 64, "value": 127}, "group": "control_change"}, {"time": 1382, "annotation": {"number": 64, "value": 0}, "group": "control_change"}, {"time": 1388, "annotation": {"number": 64, "value": 127}, "group": "control_change"}, {"time": 1404, "annotation": {"number": 64, "value": 0}, "group": "control_change"}, {"time": 1408, "annotation": {"number": 64, "value": 127}, "group": "control_change"}, {"time": 1432, "annotation": {"number": 64, "value": 0}, "group": "control_change"}, {"time": 1438, "annotation": {"number": 64, "value": 127}, "group": "control_change"}, {"time": 1439, "annotation": {"number": 64, "value": 0}, "group": "control_change"}, {"time": 1439, "annotation": {"number": 64, "value": 127}, "group": "control_change"}, {"time": 1475, "annotation": {"number": 64, "value": 0}, "group": "control_change"}, {"time": 1482, "annotation": {"number": 64, "value": 127}, "group": "control_change"}, {"time": 1525, "annotation": {"number": 64, "value": 0}, "group": "control_change"}, {"time": 1532, "annotation": {"number": 64, "value": 127}, "group": "control_change"}, {"time": 1532, "annotation": {"number": 64, "value": 0}, "group": "control_change"}, {"time": 1553, "annotation": {"number": 64, "value": 0}, "group": "control_change"}, {"time": 1556, "annotation": {"number": 64, "value": 127}, "group": "control_change"}, {"time": 1574, "annotation": {"number": 64, "value": 0}, "group": "control_change"}, {"time": 1581, "annotation": {"number": 64, "value": 127}, "group": "control_change"}, {"time": 1596, "annotation": {"number": 64, "value": 0}, "group": "control_change"}, {"time": 1602, "annotation": {"number": 64, "value": 127}, "group": "control_change"}, {"time": 1621, "annotation": {"number": 64, "value": 0}, "group": "control_change"}, {"time": 1626, "annotation": {"number": 64, "value": 127}, "group": "control_change"}, {"time": 1649, "annotation": {"number": 64, "value": 0}, "group": "control_change"}, {"time": 1653, "annotation": {"number": 64, "value": 127}, "group": "control_change"}, {"time": 1668, "annotation": {"number": 64, "value": 0}, "group": "control_change"}, {"time": 1677, "annotation": {"number": 64, "value": 127}, "group": "control_change"}, {"time": 1715, "annotation": {"number": 64, "value": 0}, "group": "control_change"}, {"time": 1720, "annotation": {"number": 64, "value": 127}, "group": "control_change"}, {"time": 1740, "annotation": {"number": 64, "value": 0}, "group": "control_change"}, {"time": 1743, "annotation": {"number": 64, "value": 127}, "group": "control_change"}, {"time": 1767, "annotation": {"number": 64, "value": 0}, "group": "control_change"}, {"time": 1771, "annotation": {"number": 64, "value": 127}, "group": "control_change"}, {"time": 1793, "annotation": {"number": 64, "value": 0}, "group": "control_change"}, {"time": 1797, "annotation": {"number": 64, "value": 127}, "group": "control_change"}, {"time": 1814, "annotation": {"number": 64, "value": 0}, "group": "control_change"}, {"time": 1817, "annotation": {"number": 64, "value": 127}, "group": "control_change"}, {"time": 1862, "annotation": {"number": 64, "value": 0}, "group": "control_change"}, {"time": 1865, "annotation": {"number": 64, "value": 0}, "group": "control_change"}, {"time": 1865, "annotation": {"number": 64, "value": 127}, "group": "control_change"}, {"time": 1886, "annotation": {"number": 64, "value": 0}, "group": "control_change"}, {"time": 1889, "annotation": {"number": 64, "value": 127}, "group": "control_change"}, {"time": 1910, "annotation": {"number": 64, "value": 0}, "group": "control_change"}, {"time": 1912, "annotation": {"number": 64, "value": 127}, "group": "control_change"}, {"time": 1934, "annotation": {"number": 64, "value": 0}, "group": "control_change"}, {"time": 1937, "annotation": {"number": 64, "value": 127}, "group": "control_change"}, {"time": 1958, "annotation": {"number": 64, "value": 0}, "group": "control_change"}, {"time": 1961, "annotation": {"number": 64, "value": 127}, "group": "control_change"}, {"time": 1982, "annotation": {"number": 64, "value": 0}, "group": "control_change"}, {"time": 1985, "annotation": {"number": 64, "value": 127}, "group": "control_change"}, {"time": 2006, "annotation": {"number": 64, "value": 0}, "group": "control_change"}, {"time": 2009, "annotation": {"number": 64, "value": 127}, "group": "control_change"}, {"time": 2031, "annotation": {"number": 64, "value": 0}, "group": "control_change"}, {"time": 2034, "annotation": {"number": 64, "value": 127}, "group": "control_change"}, {"time": 2055, "annotation": {"number": 64, "value": 0}, "group": "control_change"}, {"time": 2058, "annotation": {"number": 64, "value": 127}, "group": "control_change"}, {"time": 2104, "annotation": {"number": 64, "value": 0}, "group": "control_change"}, {"time": 2106, "annotation": {"number": 64, "value": 127}, "group": "control_change"}, {"time": 2128, "annotation": {"number": 64, "value": 0}, "group": "control_change"}, {"time": 2129, "annotation": {"number": 64, "value": 127}, "group": "control_change"}, {"time": 2152, "annotation": {"number": 64, "value": 0}, "group": "control_change"}, {"time": 2156, "annotation": {"number": 64, "value": 127}, "group": "control_change"}, {"time": 2198, "annotation": {"number": 64, "value": 0}, "group": "control_change"}, {"time": 2201, "annotation": {"number": 64, "value": 127}, "group": "control_change"}, {"time": 2239, "annotation": {"number": 64, "value": 0}, "group": "control_change"}, {"time": 2271, "annotation": {"number": 64, "value": 127}, "group": "control_change"}, {"time": 2273, "annotation": {"number": 64, "value": 0}, "group": "control_change"}, {"time": 2324, "annotation": {"number": 64, "value": 127}, "group": "control_change"}, {"time": 2325, "annotation": {"number": 64, "value": 0}, "group": "control_change"}, {"time": 2325, "annotation": {"number": 64, "value": 127}, "group": "control_change"}, {"time": 2326, "annotation": {"number": 64, "value": 0}, "group": "control_change"}, {"time": 2326, "annotation": {"number": 64, "value": 127}, "group": "control_change"}, {"time": 2342, "annotation": {"number": 64, "value": 0}, "group": "control_change"}, {"time": 2349, "annotation": {"number": 64, "value": 127}, "group": "control_change"}, {"time": 2366, "annotation": {"number": 64, "value": 0}, "group": "control_change"}, {"time": 2372, "annotation": {"number": 64, "value": 127}, "group": "control_change"}, {"time": 2390, "annotation": {"number": 64, "value": 0}, "group": "control_change"}, {"time": 2395, "annotation": {"number": 64, "value": 127}, "group": "control_change"}, {"time": 2437, "annotation": {"number": 64, "value": 0}, "group": "control_change"}, {"time": 2442, "annotation": {"number": 64, "value": 127}, "group": "control_change"}, {"time": 2487, "annotation": {"number": 64, "value": 0}, "group": "control_change"}, {"time": 2500, "annotation": {"number": 64, "value": 127}, "group": "control_change"}, {"time": 2511, "annotation": {"number": 64, "value": 0}, "group": "control_change"}, {"time": 2517, "annotation": {"number": 64, "value": 127}, "group": "control_change"}, {"time": 2534, "annotation": {"number": 64, "value": 0}, "group": "control_change"}, {"time": 2540, "annotation": {"number": 64, "value": 127}, "group": "control_change"}, {"time": 2556, "annotation": {"number": 64, "value": 0}, "group": "control_change"}, {"time": 2560, "annotation": {"number": 64, "value": 127}, "group": "control_change"}, {"time": 2584, "annotation": {"number": 64, "value": 0}, "group": "control_change"}, {"time": 2590, "annotation": {"number": 64, "value": 127}, "group": "control_change"}, {"time": 2591, "annotation": {"number": 64, "value": 0}, "group": "control_change"}, {"time": 2591, "annotation": {"number": 64, "value": 127}, "group": "control_change"}, {"time": 2627, "annotation": {"number": 64, "value": 0}, "group": "control_change"}, {"time": 2634, "annotation": {"number": 64, "value": 127}, "group": "control_change"}, {"time": 2677, "annotation": {"number": 64, "value": 0}, "group": "control_change"}, {"time": 2684, "annotation": {"number": 64, "value": 127}, "group": "control_change"}, {"time": 2684, "annotation": {"number": 64, "value": 0}, "group": "control_change"}, {"time": 2705, "annotation": {"number": 64, "value": 0}, "group": "control_change"}, {"time": 2708, "annotation": {"number": 64, "value": 127}, "group": "control_change"}, {"time": 2726, "annotation": {"number": 64, "value": 0}, "group": "control_change"}, {"time": 2733, "annotation": {"number": 64, "value": 127}, "group": "control_change"}, {"time": 2748, "annotation": {"number": 64, "value": 0}, "group": "control_change"}, {"time": 2754, "annotation": {"number": 64, "value": 127}, "group": "control_change"}, {"time": 2773, "annotation": {"number": 64, "value": 0}, "group": "control_change"}, {"time": 2778, "annotation": {"number": 64, "value": 127}, "group": "control_change"}, {"time": 2801, "annotation": {"number": 64, "value": 0}, "group": "control_change"}, {"time": 2805, "annotation": {"number": 64, "value": 127}, "group": "control_change"}, {"time": 2820, "annotation": {"number": 64, "value": 0}, "group": "control_change"}, {"time": 2829, "annotation": {"number": 64, "value": 127}, "group": "control_change"}, {"time": 2867, "annotation": {"number": 64, "value": 0}, "group": "control_change"}, {"time": 2872, "annotation": {"number": 64, "value": 127}, "group": "control_change"}, {"time": 2892, "annotation": {"number": 64, "value": 0}, "group": "control_change"}, {"time": 2895, "annotation": {"number": 64, "value": 127}, "group": "control_change"}, {"time": 2919, "annotation": {"number": 64, "value": 0}, "group": "control_change"}, {"time": 2923, "annotation": {"number": 64, "value": 127}, "group": "control_change"}, {"time": 2925, "annotation": {"number": 64, "value": 127}, "group": "control_change"}, {"time": 2926, "annotation": {"number": 64, "value": 0}, "group": "control_change"}, {"time": 2926, "annotation": {"number": 64, "value": 127}, "group": "control_change"}, {"time": 2945, "annotation": {"number": 64, "value": 0}, "group": "control_change"}, {"time": 2946, "annotation": {"number": 64, "value": 0}, "group": "control_change"}, {"time": 2949, "annotation": {"number": 64, "value": 127}, "group": "control_change"}, {"time": 2953, "annotation": {"number": 64, "value": 127}, "group": "control_change"}, {"time": 2966, "annotation": {"number": 64, "value": 0}, "group": "control_change"}, {"time": 2993, "annotation": {"number": 64, "value": 127}, "group": "control_change"}, {"time": 3009, "annotation": {"number": 64, "value": 0}, "group": "control_change"}, {"time": 3010, "annotation": {"number": 64, "value": 127}, "group": "control_change"}, {"time": 3039, "annotation": {"number": 64, "value": 0}, "group": "control_change"}, {"time": 3042, "annotation": {"number": 64, "value": 127}, "group": "control_change"}, {"time": 3068, "annotation": {"number": 64, "value": 0}, "group": "control_change"}, {"time": 3071, "annotation": {"number": 64, "value": 127}, "group": "control_change"}, {"time": 3097, "annotation": {"number": 64, "value": 0}, "group": "control_change"}, {"time": 3100, "annotation": {"number": 64, "value": 127}, "group": "control_change"}]}]}