{"metadata": {"schema_version": "0.2", "title": "None", "source_filename": "670.mid", "source_format": "midi"}, "resolution": 12, "tempos": [{"time": 0, "qpm": 117.0003451510182}, {"time": 2973, "qpm": 116.50033008426857}, {"time": 3104, "qpm": 116.7503701959655}, {"time": 3382, "qpm": 117.0003451510182}, {"time": 3964, "qpm": 116.7503701959655}, {"time": 4200, "qpm": 117.0003451510182}], "time_signatures": [{"time": 0, "numerator": 1, "denominator": 4}], "tracks": [{"program": 4, "is_drum": false, "name": "MELODY", "notes": [{"time": 848, "pitch": 68, "duration": 5, "velocity": 84}, {"time": 854, "pitch": 66, "duration": 6, "velocity": 85}, {"time": 860, "pitch": 68, "duration": 9, "velocity": 87}, {"time": 872, "pitch": 71, "duration": 4, "velocity": 84}, {"time": 878, "pitch": 73, "duration": 11, "velocity": 88}, {"time": 890, "pitch": 71, "duration": 20, "velocity": 87}, {"time": 944, "pitch": 66, "duration": 4, "velocity": 81}, {"time": 950, "pitch": 66, "duration": 4, "velocity": 79}, {"time": 956, "pitch": 66, "duration": 10, "velocity": 85}, {"time": 968, "pitch": 71, "duration": 4, "velocity": 87}, {"time": 974, "pitch": 73, "duration": 10, "velocity": 85}, {"time": 986, "pitch": 71, "duration": 35, "velocity": 86}, {"time": 1040, "pitch": 73, "duration": 4, "velocity": 89}, {"time": 1046, "pitch": 73, "duration": 4, "velocity": 87}, {"time": 1052, "pitch": 73, "duration": 8, "velocity": 90}, {"time": 1064, "pitch": 73, "duration": 5, "velocity": 92}, {"time": 1070, "pitch": 71, "duration": 5, "velocity": 85}, {"time": 1076, "pitch": 76, "duration": 11, "velocity": 85}, {"time": 1088, "pitch": 73, "duration": 15, "velocity": 90}, {"time": 1106, "pitch": 73, "duration": 5, "velocity": 87}, {"time": 1112, "pitch": 71, "duration": 4, "velocity": 84}, {"time": 1118, "pitch": 68, "duration": 4, "velocity": 85}, {"time": 1124, "pitch": 73, "duration": 11, "velocity": 92}, {"time": 1136, "pitch": 71, "duration": 9, "velocity": 87}, {"time": 1148, "pitch": 71, "duration": 12, "velocity": 84}, {"time": 1160, "pitch": 68, "duration": 12, "velocity": 83}, {"time": 1172, "pitch": 66, "duration": 16, "velocity": 84}, {"time": 1208, "pitch": 68, "duration": 4, "velocity": 89}, {"time": 1214, "pitch": 69, "duration": 5, "velocity": 85}, {"time": 1220, "pitch": 71, "duration": 6, "velocity": 84}, {"time": 1229, "pitch": 71, "duration": 6, "velocity": 85}, {"time": 1238, "pitch": 71, "duration": 5, "velocity": 86}, {"time": 1244, "pitch": 71, "duration": 9, "velocity": 85}, {"time": 1253, "pitch": 71, "duration": 6, "velocity": 83}, {"time": 1262, "pitch": 68, "duration": 5, "velocity": 83}, {"time": 1268, "pitch": 75, "duration": 18, "velocity": 85}, {"time": 1292, "pitch": 75, "duration": 8, "velocity": 88}, {"time": 1301, "pitch": 76, "duration": 7, "velocity": 88}, {"time": 1310, "pitch": 78, "duration": 5, "velocity": 84}, {"time": 1316, "pitch": 78, "duration": 7, "velocity": 85}, {"time": 1325, "pitch": 76, "duration": 6, "velocity": 89}, {"time": 1334, "pitch": 73, "duration": 6, "velocity": 83}, {"time": 1340, "pitch": 76, "duration": 7, "velocity": 83}, {"time": 1349, "pitch": 76, "duration": 6, "velocity": 85}, {"time": 1358, "pitch": 78, "duration": 5, "velocity": 87}, {"time": 1364, "pitch": 80, "duration": 6, "velocity": 83}, {"time": 1370, "pitch": 78, "duration": 6, "velocity": 83}, {"time": 1376, "pitch": 76, "duration": 20, "velocity": 84}, {"time": 1400, "pitch": 71, "duration": 4, "velocity": 84}, {"time": 1406, "pitch": 73, "duration": 5, "velocity": 92}, {"time": 1412, "pitch": 76, "duration": 8, "velocity": 86}, {"time": 1421, "pitch": 73, "duration": 7, "velocity": 94}, {"time": 1430, "pitch": 71, "duration": 6, "velocity": 85}, {"time": 1436, "pitch": 73, "duration": 16, "velocity": 92}, {"time": 1460, "pitch": 76, "duration": 7, "velocity": 86}, {"time": 1469, "pitch": 73, "duration": 7, "velocity": 94}, {"time": 1478, "pitch": 71, "duration": 5, "velocity": 85}, {"time": 1484, "pitch": 76, "duration": 8, "velocity": 94}, {"time": 1497, "pitch": 78, "duration": 3, "velocity": 85}, {"time": 1502, "pitch": 80, "duration": 11, "velocity": 85}, {"time": 1514, "pitch": 78, "duration": 54, "velocity": 89}, {"time": 1574, "pitch": 71, "duration": 5, "velocity": 87}, {"time": 1580, "pitch": 76, "duration": 11, "velocity": 94}, {"time": 1592, "pitch": 78, "duration": 4, "velocity": 86}, {"time": 1598, "pitch": 80, "duration": 4, "velocity": 83}, {"time": 1604, "pitch": 80, "duration": 12, "velocity": 90}, {"time": 1616, "pitch": 80, "duration": 5, "velocity": 84}, {"time": 1622, "pitch": 80, "duration": 12, "velocity": 73}, {"time": 1640, "pitch": 80, "duration": 5, "velocity": 85}, {"time": 1646, "pitch": 83, "duration": 4, "velocity": 85}, {"time": 1652, "pitch": 85, "duration": 10, "velocity": 89}, {"time": 1664, "pitch": 83, "duration": 4, "velocity": 90}, {"time": 1670, "pitch": 83, "duration": 13, "velocity": 97}, {"time": 1688, "pitch": 80, "duration": 6, "velocity": 80}, {"time": 1694, "pitch": 83, "duration": 3, "velocity": 94}, {"time": 1700, "pitch": 78, "duration": 10, "velocity": 86}, {"time": 1712, "pitch": 76, "duration": 4, "velocity": 85}, {"time": 1724, "pitch": 76, "duration": 9, "velocity": 86}, {"time": 1736, "pitch": 73, "duration": 4, "velocity": 90}, {"time": 1742, "pitch": 71, "duration": 5, "velocity": 86}, {"time": 1748, "pitch": 78, "duration": 10, "velocity": 79}, {"time": 1760, "pitch": 80, "duration": 24, "velocity": 85}, {"time": 1790, "pitch": 83, "duration": 4, "velocity": 86}, {"time": 1796, "pitch": 83, "duration": 9, "velocity": 87}, {"time": 1808, "pitch": 81, "duration": 4, "velocity": 85}, {"time": 1814, "pitch": 81, "duration": 17, "velocity": 84}, {"time": 1838, "pitch": 80, "duration": 4, "velocity": 70}, {"time": 1844, "pitch": 80, "duration": 10, "velocity": 85}, {"time": 1856, "pitch": 78, "duration": 4, "velocity": 84}, {"time": 1862, "pitch": 76, "duration": 14, "velocity": 79}, {"time": 1880, "pitch": 73, "duration": 4, "velocity": 90}, {"time": 1886, "pitch": 71, "duration": 5, "velocity": 88}, {"time": 1892, "pitch": 80, "duration": 8, "velocity": 87}, {"time": 1904, "pitch": 78, "duration": 9, "velocity": 85}, {"time": 1916, "pitch": 78, "duration": 9, "velocity": 83}, {"time": 1928, "pitch": 76, "duration": 5, "velocity": 82}, {"time": 1934, "pitch": 78, "duration": 24, "velocity": 84}, {"time": 1958, "pitch": 71, "duration": 6, "velocity": 87}, {"time": 1964, "pitch": 76, "duration": 10, "velocity": 87}, {"time": 1976, "pitch": 78, "duration": 4, "velocity": 84}, {"time": 1982, "pitch": 80, "duration": 4, "velocity": 86}, {"time": 1988, "pitch": 80, "duration": 8, "velocity": 83}, {"time": 2000, "pitch": 80, "duration": 4, "velocity": 83}, {"time": 2006, "pitch": 80, "duration": 15, "velocity": 85}, {"time": 2024, "pitch": 80, "duration": 4, "velocity": 89}, {"time": 2030, "pitch": 83, "duration": 4, "velocity": 90}, {"time": 2036, "pitch": 85, "duration": 10, "velocity": 85}, {"time": 2048, "pitch": 83, "duration": 4, "velocity": 94}, {"time": 2054, "pitch": 83, "duration": 11, "velocity": 89}, {"time": 2072, "pitch": 80, "duration": 5, "velocity": 85}, {"time": 2078, "pitch": 83, "duration": 4, "velocity": 89}, {"time": 2084, "pitch": 78, "duration": 10, "velocity": 90}, {"time": 2096, "pitch": 76, "duration": 10, "velocity": 87}, {"time": 2108, "pitch": 76, "duration": 10, "velocity": 92}, {"time": 2120, "pitch": 73, "duration": 3, "velocity": 89}, {"time": 2126, "pitch": 71, "duration": 5, "velocity": 84}, {"time": 2132, "pitch": 78, "duration": 9, "velocity": 85}, {"time": 2144, "pitch": 80, "duration": 19, "velocity": 87}, {"time": 2174, "pitch": 83, "duration": 3, "velocity": 94}, {"time": 2180, "pitch": 83, "duration": 7, "velocity": 92}, {"time": 2192, "pitch": 81, "duration": 3, "velocity": 83}, {"time": 2198, "pitch": 81, "duration": 16, "velocity": 85}, {"time": 2222, "pitch": 80, "duration": 4, "velocity": 80}, {"time": 2228, "pitch": 80, "duration": 9, "velocity": 84}, {"time": 2240, "pitch": 78, "duration": 5, "velocity": 84}, {"time": 2246, "pitch": 76, "duration": 11, "velocity": 84}, {"time": 2264, "pitch": 73, "duration": 5, "velocity": 89}, {"time": 2270, "pitch": 71, "duration": 5, "velocity": 89}, {"time": 2276, "pitch": 80, "duration": 8, "velocity": 86}, {"time": 2288, "pitch": 78, "duration": 16, "velocity": 87}, {"time": 2312, "pitch": 73, "duration": 4, "velocity": 92}, {"time": 2318, "pitch": 71, "duration": 4, "velocity": 87}, {"time": 2324, "pitch": 80, "duration": 10, "velocity": 90}, {"time": 2336, "pitch": 78, "duration": 9, "velocity": 84}, {"time": 2348, "pitch": 80, "duration": 11, "velocity": 84}, {"time": 2360, "pitch": 83, "duration": 10, "velocity": 85}, {"time": 2372, "pitch": 73, "duration": 11, "velocity": 79}, {"time": 2384, "pitch": 76, "duration": 62, "velocity": 85}, {"time": 3392, "pitch": 68, "duration": 5, "velocity": 84}, {"time": 3398, "pitch": 66, "duration": 6, "velocity": 85}, {"time": 3404, "pitch": 68, "duration": 9, "velocity": 87}, {"time": 3416, "pitch": 71, "duration": 4, "velocity": 84}, {"time": 3422, "pitch": 73, "duration": 11, "velocity": 88}, {"time": 3434, "pitch": 71, "duration": 20, "velocity": 87}, {"time": 3488, "pitch": 66, "duration": 4, "velocity": 81}, {"time": 3494, "pitch": 66, "duration": 4, "velocity": 79}, {"time": 3500, "pitch": 66, "duration": 10, "velocity": 85}, {"time": 3512, "pitch": 71, "duration": 4, "velocity": 87}, {"time": 3518, "pitch": 73, "duration": 10, "velocity": 85}, {"time": 3530, "pitch": 71, "duration": 35, "velocity": 86}, {"time": 3584, "pitch": 73, "duration": 4, "velocity": 89}, {"time": 3590, "pitch": 73, "duration": 4, "velocity": 87}, {"time": 3596, "pitch": 73, "duration": 8, "velocity": 90}, {"time": 3608, "pitch": 73, "duration": 5, "velocity": 92}, {"time": 3614, "pitch": 71, "duration": 5, "velocity": 85}, {"time": 3620, "pitch": 76, "duration": 11, "velocity": 85}, {"time": 3632, "pitch": 73, "duration": 15, "velocity": 90}, {"time": 3650, "pitch": 73, "duration": 5, "velocity": 87}, {"time": 3656, "pitch": 71, "duration": 4, "velocity": 84}, {"time": 3662, "pitch": 68, "duration": 4, "velocity": 85}, {"time": 3668, "pitch": 73, "duration": 11, "velocity": 92}, {"time": 3680, "pitch": 71, "duration": 9, "velocity": 87}, {"time": 3692, "pitch": 71, "duration": 12, "velocity": 84}, {"time": 3704, "pitch": 68, "duration": 12, "velocity": 83}, {"time": 3716, "pitch": 66, "duration": 16, "velocity": 84}, {"time": 3752, "pitch": 68, "duration": 4, "velocity": 89}, {"time": 3758, "pitch": 69, "duration": 5, "velocity": 85}, {"time": 3764, "pitch": 71, "duration": 6, "velocity": 84}, {"time": 3773, "pitch": 71, "duration": 6, "velocity": 85}, {"time": 3782, "pitch": 71, "duration": 5, "velocity": 86}, {"time": 3788, "pitch": 71, "duration": 9, "velocity": 85}, {"time": 3797, "pitch": 71, "duration": 6, "velocity": 83}, {"time": 3806, "pitch": 68, "duration": 5, "velocity": 83}, {"time": 3812, "pitch": 75, "duration": 18, "velocity": 85}, {"time": 3836, "pitch": 75, "duration": 8, "velocity": 88}, {"time": 3845, "pitch": 76, "duration": 7, "velocity": 88}, {"time": 3854, "pitch": 78, "duration": 5, "velocity": 84}, {"time": 3860, "pitch": 78, "duration": 7, "velocity": 85}, {"time": 3869, "pitch": 76, "duration": 6, "velocity": 89}, {"time": 3878, "pitch": 73, "duration": 6, "velocity": 83}, {"time": 3884, "pitch": 76, "duration": 7, "velocity": 83}, {"time": 3893, "pitch": 76, "duration": 6, "velocity": 85}, {"time": 3902, "pitch": 78, "duration": 5, "velocity": 87}, {"time": 3908, "pitch": 80, "duration": 6, "velocity": 83}, {"time": 3914, "pitch": 78, "duration": 6, "velocity": 83}, {"time": 3920, "pitch": 76, "duration": 20, "velocity": 84}, {"time": 3944, "pitch": 71, "duration": 4, "velocity": 84}, {"time": 3950, "pitch": 73, "duration": 5, "velocity": 92}, {"time": 3956, "pitch": 76, "duration": 8, "velocity": 86}, {"time": 3965, "pitch": 73, "duration": 7, "velocity": 94}, {"time": 3974, "pitch": 71, "duration": 6, "velocity": 85}, {"time": 3980, "pitch": 73, "duration": 16, "velocity": 92}, {"time": 4004, "pitch": 76, "duration": 7, "velocity": 86}, {"time": 4013, "pitch": 73, "duration": 7, "velocity": 94}, {"time": 4022, "pitch": 71, "duration": 5, "velocity": 85}, {"time": 4028, "pitch": 76, "duration": 8, "velocity": 94}, {"time": 4041, "pitch": 78, "duration": 3, "velocity": 85}, {"time": 4046, "pitch": 80, "duration": 11, "velocity": 85}, {"time": 4058, "pitch": 78, "duration": 54, "velocity": 89}, {"time": 4118, "pitch": 71, "duration": 5, "velocity": 87}, {"time": 4124, "pitch": 76, "duration": 11, "velocity": 94}, {"time": 4136, "pitch": 78, "duration": 4, "velocity": 86}, {"time": 4142, "pitch": 80, "duration": 4, "velocity": 83}, {"time": 4148, "pitch": 80, "duration": 12, "velocity": 90}, {"time": 4160, "pitch": 80, "duration": 5, "velocity": 84}, {"time": 4166, "pitch": 80, "duration": 12, "velocity": 73}, {"time": 4184, "pitch": 80, "duration": 5, "velocity": 85}, {"time": 4190, "pitch": 83, "duration": 4, "velocity": 85}, {"time": 4196, "pitch": 85, "duration": 10, "velocity": 89}, {"time": 4208, "pitch": 83, "duration": 4, "velocity": 90}, {"time": 4214, "pitch": 83, "duration": 13, "velocity": 97}, {"time": 4232, "pitch": 80, "duration": 6, "velocity": 80}, {"time": 4238, "pitch": 83, "duration": 3, "velocity": 94}, {"time": 4244, "pitch": 78, "duration": 10, "velocity": 86}, {"time": 4256, "pitch": 76, "duration": 4, "velocity": 85}, {"time": 4268, "pitch": 76, "duration": 9, "velocity": 86}, {"time": 4280, "pitch": 73, "duration": 4, "velocity": 90}, {"time": 4286, "pitch": 71, "duration": 5, "velocity": 86}, {"time": 4292, "pitch": 78, "duration": 10, "velocity": 79}, {"time": 4304, "pitch": 80, "duration": 24, "velocity": 85}, {"time": 4334, "pitch": 83, "duration": 4, "velocity": 86}, {"time": 4340, "pitch": 83, "duration": 9, "velocity": 87}, {"time": 4352, "pitch": 81, "duration": 4, "velocity": 85}, {"time": 4358, "pitch": 81, "duration": 17, "velocity": 84}, {"time": 4382, "pitch": 80, "duration": 4, "velocity": 70}, {"time": 4388, "pitch": 80, "duration": 10, "velocity": 85}, {"time": 4400, "pitch": 78, "duration": 4, "velocity": 84}, {"time": 4406, "pitch": 76, "duration": 14, "velocity": 79}, {"time": 4424, "pitch": 73, "duration": 4, "velocity": 90}, {"time": 4430, "pitch": 71, "duration": 5, "velocity": 88}, {"time": 4436, "pitch": 80, "duration": 8, "velocity": 87}, {"time": 4448, "pitch": 78, "duration": 9, "velocity": 85}, {"time": 4460, "pitch": 78, "duration": 9, "velocity": 83}, {"time": 4472, "pitch": 76, "duration": 5, "velocity": 82}, {"time": 4478, "pitch": 78, "duration": 24, "velocity": 84}, {"time": 4502, "pitch": 71, "duration": 6, "velocity": 87}, {"time": 4508, "pitch": 76, "duration": 10, "velocity": 87}, {"time": 4520, "pitch": 78, "duration": 4, "velocity": 84}, {"time": 4526, "pitch": 80, "duration": 4, "velocity": 86}, {"time": 4532, "pitch": 80, "duration": 8, "velocity": 83}, {"time": 4544, "pitch": 80, "duration": 4, "velocity": 83}, {"time": 4550, "pitch": 80, "duration": 15, "velocity": 85}, {"time": 4568, "pitch": 80, "duration": 4, "velocity": 89}, {"time": 4574, "pitch": 83, "duration": 4, "velocity": 90}, {"time": 4580, "pitch": 85, "duration": 10, "velocity": 85}, {"time": 4592, "pitch": 83, "duration": 4, "velocity": 94}, {"time": 4598, "pitch": 83, "duration": 11, "velocity": 89}, {"time": 4616, "pitch": 80, "duration": 5, "velocity": 85}, {"time": 4622, "pitch": 83, "duration": 4, "velocity": 89}, {"time": 4628, "pitch": 78, "duration": 10, "velocity": 90}, {"time": 4640, "pitch": 76, "duration": 10, "velocity": 87}, {"time": 4652, "pitch": 76, "duration": 10, "velocity": 92}, {"time": 4664, "pitch": 73, "duration": 3, "velocity": 89}, {"time": 4670, "pitch": 71, "duration": 5, "velocity": 84}, {"time": 4676, "pitch": 78, "duration": 9, "velocity": 85}, {"time": 4688, "pitch": 80, "duration": 19, "velocity": 87}, {"time": 4718, "pitch": 83, "duration": 3, "velocity": 94}, {"time": 4724, "pitch": 83, "duration": 7, "velocity": 92}, {"time": 4736, "pitch": 81, "duration": 3, "velocity": 83}, {"time": 4742, "pitch": 81, "duration": 16, "velocity": 85}, {"time": 4766, "pitch": 80, "duration": 4, "velocity": 80}, {"time": 4772, "pitch": 80, "duration": 9, "velocity": 84}, {"time": 4784, "pitch": 78, "duration": 5, "velocity": 84}, {"time": 4790, "pitch": 76, "duration": 11, "velocity": 84}, {"time": 4808, "pitch": 73, "duration": 5, "velocity": 89}, {"time": 4814, "pitch": 71, "duration": 5, "velocity": 89}, {"time": 4820, "pitch": 80, "duration": 8, "velocity": 86}, {"time": 4832, "pitch": 78, "duration": 16, "velocity": 87}, {"time": 4856, "pitch": 73, "duration": 4, "velocity": 92}, {"time": 4862, "pitch": 71, "duration": 4, "velocity": 87}, {"time": 4868, "pitch": 80, "duration": 10, "velocity": 90}, {"time": 4880, "pitch": 78, "duration": 9, "velocity": 84}, {"time": 4892, "pitch": 80, "duration": 11, "velocity": 84}, {"time": 4904, "pitch": 83, "duration": 10, "velocity": 85}, {"time": 4916, "pitch": 73, "duration": 11, "velocity": 79}, {"time": 4928, "pitch": 76, "duration": 48, "velocity": 85}, {"time": 4982, "pitch": 71, "duration": 5, "velocity": 87}, {"time": 4988, "pitch": 76, "duration": 11, "velocity": 94}, {"time": 5000, "pitch": 78, "duration": 4, "velocity": 86}, {"time": 5006, "pitch": 80, "duration": 4, "velocity": 83}, {"time": 5012, "pitch": 80, "duration": 12, "velocity": 90}, {"time": 5024, "pitch": 80, "duration": 5, "velocity": 84}, {"time": 5030, "pitch": 80, "duration": 12, "velocity": 73}, {"time": 5048, "pitch": 80, "duration": 5, "velocity": 85}, {"time": 5054, "pitch": 83, "duration": 4, "velocity": 85}, {"time": 5060, "pitch": 85, "duration": 10, "velocity": 89}, {"time": 5072, "pitch": 83, "duration": 4, "velocity": 90}, {"time": 5078, "pitch": 83, "duration": 13, "velocity": 97}, {"time": 5096, "pitch": 80, "duration": 6, "velocity": 80}, {"time": 5102, "pitch": 83, "duration": 3, "velocity": 94}, {"time": 5108, "pitch": 78, "duration": 10, "velocity": 86}, {"time": 5120, "pitch": 76, "duration": 4, "velocity": 85}, {"time": 5132, "pitch": 76, "duration": 9, "velocity": 86}, {"time": 5144, "pitch": 73, "duration": 4, "velocity": 90}, {"time": 5150, "pitch": 71, "duration": 5, "velocity": 86}, {"time": 5156, "pitch": 78, "duration": 10, "velocity": 79}, {"time": 5168, "pitch": 80, "duration": 24, "velocity": 85}, {"time": 5198, "pitch": 83, "duration": 4, "velocity": 86}, {"time": 5204, "pitch": 83, "duration": 9, "velocity": 87}, {"time": 5216, "pitch": 81, "duration": 4, "velocity": 85}, {"time": 5222, "pitch": 81, "duration": 17, "velocity": 84}, {"time": 5246, "pitch": 80, "duration": 4, "velocity": 70}, {"time": 5252, "pitch": 80, "duration": 10, "velocity": 85}, {"time": 5264, "pitch": 78, "duration": 4, "velocity": 84}, {"time": 5270, "pitch": 76, "duration": 14, "velocity": 79}, {"time": 5288, "pitch": 73, "duration": 4, "velocity": 90}, {"time": 5294, "pitch": 71, "duration": 5, "velocity": 88}, {"time": 5300, "pitch": 80, "duration": 8, "velocity": 87}, {"time": 5312, "pitch": 78, "duration": 9, "velocity": 85}, {"time": 5324, "pitch": 78, "duration": 9, "velocity": 83}, {"time": 5336, "pitch": 76, "duration": 5, "velocity": 82}, {"time": 5342, "pitch": 78, "duration": 24, "velocity": 84}, {"time": 5366, "pitch": 71, "duration": 6, "velocity": 87}, {"time": 5372, "pitch": 76, "duration": 10, "velocity": 87}, {"time": 5384, "pitch": 78, "duration": 4, "velocity": 84}, {"time": 5390, "pitch": 80, "duration": 4, "velocity": 86}, {"time": 5396, "pitch": 80, "duration": 8, "velocity": 83}, {"time": 5408, "pitch": 80, "duration": 4, "velocity": 83}, {"time": 5414, "pitch": 80, "duration": 15, "velocity": 85}, {"time": 5432, "pitch": 80, "duration": 4, "velocity": 89}, {"time": 5438, "pitch": 83, "duration": 4, "velocity": 90}, {"time": 5444, "pitch": 85, "duration": 10, "velocity": 85}, {"time": 5456, "pitch": 83, "duration": 4, "velocity": 94}, {"time": 5462, "pitch": 83, "duration": 11, "velocity": 89}, {"time": 5480, "pitch": 80, "duration": 5, "velocity": 85}, {"time": 5486, "pitch": 83, "duration": 4, "velocity": 89}, {"time": 5492, "pitch": 78, "duration": 10, "velocity": 90}, {"time": 5504, "pitch": 76, "duration": 10, "velocity": 87}, {"time": 5516, "pitch": 76, "duration": 10, "velocity": 92}, {"time": 5528, "pitch": 73, "duration": 3, "velocity": 89}, {"time": 5534, "pitch": 71, "duration": 5, "velocity": 84}, {"time": 5540, "pitch": 78, "duration": 9, "velocity": 85}, {"time": 5552, "pitch": 80, "duration": 19, "velocity": 87}, {"time": 5582, "pitch": 83, "duration": 3, "velocity": 94}, {"time": 5588, "pitch": 83, "duration": 7, "velocity": 92}, {"time": 5600, "pitch": 81, "duration": 3, "velocity": 83}, {"time": 5606, "pitch": 81, "duration": 16, "velocity": 85}, {"time": 5630, "pitch": 80, "duration": 4, "velocity": 80}, {"time": 5636, "pitch": 80, "duration": 9, "velocity": 84}, {"time": 5648, "pitch": 78, "duration": 5, "velocity": 84}, {"time": 5654, "pitch": 76, "duration": 11, "velocity": 84}, {"time": 5672, "pitch": 73, "duration": 5, "velocity": 89}, {"time": 5678, "pitch": 71, "duration": 5, "velocity": 89}, {"time": 5684, "pitch": 80, "duration": 8, "velocity": 86}, {"time": 5696, "pitch": 78, "duration": 16, "velocity": 87}, {"time": 5720, "pitch": 73, "duration": 4, "velocity": 92}, {"time": 5726, "pitch": 71, "duration": 4, "velocity": 87}, {"time": 5732, "pitch": 80, "duration": 10, "velocity": 90}, {"time": 5744, "pitch": 78, "duration": 9, "velocity": 84}, {"time": 5756, "pitch": 80, "duration": 11, "velocity": 84}, {"time": 5768, "pitch": 83, "duration": 10, "velocity": 85}, {"time": 5780, "pitch": 73, "duration": 11, "velocity": 79}, {"time": 5792, "pitch": 76, "duration": 62, "velocity": 85}, {"time": 5906, "pitch": 73, "duration": 9, "velocity": 94}, {"time": 5915, "pitch": 71, "duration": 8, "velocity": 94}, {"time": 5921, "pitch": 80, "duration": 17, "velocity": 93}, {"time": 5937, "pitch": 78, "duration": 24, "velocity": 93}, {"time": 5967, "pitch": 73, "duration": 6, "velocity": 93}, {"time": 5973, "pitch": 71, "duration": 8, "velocity": 93}, {"time": 5982, "pitch": 80, "duration": 17, "velocity": 93}, {"time": 5998, "pitch": 78, "duration": 21, "velocity": 93}, {"time": 6020, "pitch": 80, "duration": 11, "velocity": 93}, {"time": 6031, "pitch": 83, "duration": 45, "velocity": 93}, {"time": 6081, "pitch": 73, "duration": 21, "velocity": 93}, {"time": 6101, "pitch": 76, "duration": 45, "velocity": 93}]}, {"program": 0, "is_drum": false, "name": "PIANO", "notes": [{"time": 74, "pitch": 40, "duration": 43, "velocity": 83}, {"time": 78, "pitch": 47, "duration": 35, "velocity": 70}, {"time": 81, "pitch": 52, "duration": 15, "velocity": 73}, {"time": 86, "pitch": 56, "duration": 8, "velocity": 64}, {"time": 92, "pitch": 59, "duration": 8, "velocity": 72}, {"time": 99, "pitch": 64, "duration": 20, "velocity": 77}, {"time": 105, "pitch": 59, "duration": 25, "velocity": 80}, {"time": 110, "pitch": 52, "duration": 32, "velocity": 78}, {"time": 116, "pitch": 40, "duration": 1, "velocity": 83}, {"time": 122, "pitch": 47, "duration": 24, "velocity": 72}, {"time": 128, "pitch": 56, "duration": 10, "velocity": 71}, {"time": 134, "pitch": 59, "duration": 7, "velocity": 75}, {"time": 140, "pitch": 64, "duration": 15, "velocity": 83}, {"time": 146, "pitch": 59, "duration": 8, "velocity": 77}, {"time": 152, "pitch": 56, "duration": 9, "velocity": 76}, {"time": 158, "pitch": 52, "duration": 5, "velocity": 78}, {"time": 164, "pitch": 47, "duration": 42, "velocity": 87}, {"time": 170, "pitch": 51, "duration": 34, "velocity": 75}, {"time": 176, "pitch": 54, "duration": 13, "velocity": 74}, {"time": 182, "pitch": 59, "duration": 6, "velocity": 79}, {"time": 188, "pitch": 63, "duration": 7, "velocity": 83}, {"time": 193, "pitch": 59, "duration": 7, "velocity": 80}, {"time": 199, "pitch": 54, "duration": 13, "velocity": 81}, {"time": 205, "pitch": 59, "duration": 13, "velocity": 81}, {"time": 211, "pitch": 47, "duration": 45, "velocity": 87}, {"time": 217, "pitch": 54, "duration": 7, "velocity": 75}, {"time": 223, "pitch": 59, "duration": 13, "velocity": 76}, {"time": 229, "pitch": 54, "duration": 13, "velocity": 75}, {"time": 236, "pitch": 63, "duration": 8, "velocity": 84}, {"time": 242, "pitch": 59, "duration": 7, "velocity": 80}, {"time": 248, "pitch": 54, "duration": 9, "velocity": 84}, {"time": 254, "pitch": 59, "duration": 12, "velocity": 81}, {"time": 260, "pitch": 49, "duration": 44, "velocity": 84}, {"time": 266, "pitch": 56, "duration": 7, "velocity": 72}, {"time": 272, "pitch": 61, "duration": 14, "velocity": 81}, {"time": 278, "pitch": 56, "duration": 7, "velocity": 67}, {"time": 284, "pitch": 64, "duration": 8, "velocity": 83}, {"time": 290, "pitch": 61, "duration": 8, "velocity": 83}, {"time": 296, "pitch": 56, "duration": 8, "velocity": 79}, {"time": 302, "pitch": 61, "duration": 13, "velocity": 78}, {"time": 308, "pitch": 49, "duration": 30, "velocity": 86}, {"time": 313, "pitch": 56, "duration": 7, "velocity": 75}, {"time": 319, "pitch": 61, "duration": 14, "velocity": 75}, {"time": 325, "pitch": 56, "duration": 7, "velocity": 76}, {"time": 332, "pitch": 64, "duration": 13, "velocity": 84}, {"time": 337, "pitch": 56, "duration": 7, "velocity": 78}, {"time": 344, "pitch": 61, "duration": 9, "velocity": 83}, {"time": 350, "pitch": 56, "duration": 6, "velocity": 80}, {"time": 356, "pitch": 47, "duration": 45, "velocity": 85}, {"time": 362, "pitch": 54, "duration": 40, "velocity": 76}, {"time": 368, "pitch": 59, "duration": 15, "velocity": 84}, {"time": 374, "pitch": 66, "duration": 8, "velocity": 71}, {"time": 380, "pitch": 71, "duration": 7, "velocity": 87}, {"time": 386, "pitch": 66, "duration": 8, "velocity": 83}, {"time": 392, "pitch": 59, "duration": 19, "velocity": 85}, {"time": 398, "pitch": 66, "duration": 18, "velocity": 80}, {"time": 404, "pitch": 47, "duration": 34, "velocity": 85}, {"time": 410, "pitch": 54, "duration": 27, "velocity": 72}, {"time": 416, "pitch": 59, "duration": 13, "velocity": 83}, {"time": 422, "pitch": 66, "duration": 8, "velocity": 76}, {"time": 428, "pitch": 71, "duration": 11, "velocity": 86}, {"time": 434, "pitch": 66, "duration": 7, "velocity": 84}, {"time": 440, "pitch": 59, "duration": 11, "velocity": 83}, {"time": 446, "pitch": 66, "duration": 7, "velocity": 70}, {"time": 452, "pitch": 45, "duration": 44, "velocity": 84}, {"time": 458, "pitch": 52, "duration": 38, "velocity": 72}, {"time": 464, "pitch": 57, "duration": 10, "velocity": 71}, {"time": 470, "pitch": 61, "duration": 7, "velocity": 74}, {"time": 476, "pitch": 64, "duration": 7, "velocity": 85}, {"time": 482, "pitch": 61, "duration": 7, "velocity": 82}, {"time": 488, "pitch": 57, "duration": 9, "velocity": 82}, {"time": 494, "pitch": 61, "duration": 8, "velocity": 77}, {"time": 500, "pitch": 45, "duration": 41, "velocity": 79}, {"time": 506, "pitch": 52, "duration": 33, "velocity": 68}, {"time": 512, "pitch": 61, "duration": 9, "velocity": 76}, {"time": 518, "pitch": 64, "duration": 6, "velocity": 81}, {"time": 524, "pitch": 69, "duration": 14, "velocity": 90}, {"time": 530, "pitch": 64, "duration": 6, "velocity": 83}, {"time": 536, "pitch": 61, "duration": 9, "velocity": 77}, {"time": 542, "pitch": 64, "duration": 3, "velocity": 70}, {"time": 548, "pitch": 47, "duration": 45, "velocity": 80}, {"time": 548, "pitch": 59, "duration": 8, "velocity": 83}, {"time": 548, "pitch": 64, "duration": 13, "velocity": 83}, {"time": 554, "pitch": 54, "duration": 16, "velocity": 73}, {"time": 560, "pitch": 59, "duration": 8, "velocity": 83}, {"time": 566, "pitch": 64, "duration": 13, "velocity": 85}, {"time": 572, "pitch": 54, "duration": 22, "velocity": 77}, {"time": 578, "pitch": 59, "duration": 8, "velocity": 83}, {"time": 584, "pitch": 64, "duration": 10, "velocity": 87}, {"time": 590, "pitch": 59, "duration": 4, "velocity": 85}, {"time": 596, "pitch": 47, "duration": 36, "velocity": 85}, {"time": 596, "pitch": 59, "duration": 6, "velocity": 81}, {"time": 596, "pitch": 63, "duration": 13, "velocity": 83}, {"time": 602, "pitch": 54, "duration": 15, "velocity": 76}, {"time": 608, "pitch": 59, "duration": 8, "velocity": 84}, {"time": 614, "pitch": 66, "duration": 18, "velocity": 87}, {"time": 620, "pitch": 54, "duration": 10, "velocity": 79}, {"time": 626, "pitch": 59, "duration": 8, "velocity": 83}, {"time": 632, "pitch": 63, "duration": 8, "velocity": 83}, {"time": 638, "pitch": 59, "duration": 7, "velocity": 83}, {"time": 644, "pitch": 40, "duration": 46, "velocity": 83}, {"time": 644, "pitch": 64, "duration": 26, "velocity": 84}, {"time": 650, "pitch": 47, "duration": 39, "velocity": 70}, {"time": 656, "pitch": 52, "duration": 7, "velocity": 83}, {"time": 662, "pitch": 59, "duration": 10, "velocity": 86}, {"time": 668, "pitch": 52, "duration": 9, "velocity": 84}, {"time": 674, "pitch": 64, "duration": 13, "velocity": 83}, {"time": 680, "pitch": 59, "duration": 8, "velocity": 81}, {"time": 686, "pitch": 52, "duration": 9, "velocity": 83}, {"time": 692, "pitch": 40, "duration": 45, "velocity": 85}, {"time": 692, "pitch": 64, "duration": 14, "velocity": 84}, {"time": 698, "pitch": 52, "duration": 11, "velocity": 79}, {"time": 704, "pitch": 59, "duration": 7, "velocity": 81}, {"time": 710, "pitch": 64, "duration": 11, "velocity": 85}, {"time": 716, "pitch": 59, "duration": 9, "velocity": 78}, {"time": 722, "pitch": 52, "duration": 12, "velocity": 84}, {"time": 728, "pitch": 59, "duration": 7, "velocity": 84}, {"time": 734, "pitch": 64, "duration": 22, "velocity": 84}, {"time": 740, "pitch": 40, "duration": 45, "velocity": 83}, {"time": 746, "pitch": 47, "duration": 38, "velocity": 67}, {"time": 752, "pitch": 59, "duration": 13, "velocity": 74}, {"time": 758, "pitch": 52, "duration": 12, "velocity": 74}, {"time": 764, "pitch": 64, "duration": 8, "velocity": 83}, {"time": 770, "pitch": 59, "duration": 9, "velocity": 76}, {"time": 776, "pitch": 52, "duration": 24, "velocity": 84}, {"time": 782, "pitch": 64, "duration": 20, "velocity": 83}, {"time": 788, "pitch": 40, "duration": 43, "velocity": 76}, {"time": 794, "pitch": 47, "duration": 36, "velocity": 72}, {"time": 800, "pitch": 59, "duration": 13, "velocity": 76}, {"time": 806, "pitch": 52, "duration": 12, "velocity": 75}, {"time": 812, "pitch": 64, "duration": 11, "velocity": 84}, {"time": 818, "pitch": 59, "duration": 8, "velocity": 78}, {"time": 824, "pitch": 52, "duration": 4, "velocity": 84}, {"time": 836, "pitch": 40, "duration": 45, "velocity": 83}, {"time": 836, "pitch": 52, "duration": 7, "velocity": 75}, {"time": 842, "pitch": 47, "duration": 39, "velocity": 70}, {"time": 848, "pitch": 52, "duration": 9, "velocity": 73}, {"time": 872, "pitch": 52, "duration": 19, "velocity": 74}, {"time": 884, "pitch": 40, "duration": 32, "velocity": 83}, {"time": 890, "pitch": 47, "duration": 24, "velocity": 70}, {"time": 896, "pitch": 52, "duration": 12, "velocity": 78}, {"time": 920, "pitch": 52, "duration": 7, "velocity": 83}, {"time": 932, "pitch": 47, "duration": 91, "velocity": 84}, {"time": 944, "pitch": 54, "duration": 78, "velocity": 74}, {"time": 956, "pitch": 59, "duration": 66, "velocity": 85}, {"time": 1028, "pitch": 49, "duration": 42, "velocity": 84}, {"time": 1040, "pitch": 56, "duration": 8, "velocity": 77}, {"time": 1052, "pitch": 61, "duration": 8, "velocity": 79}, {"time": 1076, "pitch": 47, "duration": 36, "velocity": 84}, {"time": 1088, "pitch": 54, "duration": 9, "velocity": 82}, {"time": 1100, "pitch": 59, "duration": 7, "velocity": 78}, {"time": 1124, "pitch": 42, "duration": 46, "velocity": 83}, {"time": 1136, "pitch": 49, "duration": 13, "velocity": 77}, {"time": 1148, "pitch": 54, "duration": 15, "velocity": 85}, {"time": 1172, "pitch": 47, "duration": 42, "velocity": 94}, {"time": 1184, "pitch": 54, "duration": 9, "velocity": 84}, {"time": 1196, "pitch": 63, "duration": 7, "velocity": 85}, {"time": 1220, "pitch": 44, "duration": 45, "velocity": 84}, {"time": 1232, "pitch": 51, "duration": 8, "velocity": 84}, {"time": 1244, "pitch": 56, "duration": 13, "velocity": 83}, {"time": 1268, "pitch": 44, "duration": 46, "velocity": 85}, {"time": 1280, "pitch": 51, "duration": 7, "velocity": 77}, {"time": 1292, "pitch": 56, "duration": 8, "velocity": 84}, {"time": 1316, "pitch": 49, "duration": 34, "velocity": 88}, {"time": 1328, "pitch": 56, "duration": 14, "velocity": 80}, {"time": 1340, "pitch": 61, "duration": 15, "velocity": 86}, {"time": 1364, "pitch": 47, "duration": 44, "velocity": 87}, {"time": 1376, "pitch": 54, "duration": 19, "velocity": 84}, {"time": 1388, "pitch": 59, "duration": 13, "velocity": 84}, {"time": 1412, "pitch": 42, "duration": 44, "velocity": 85}, {"time": 1424, "pitch": 49, "duration": 13, "velocity": 77}, {"time": 1436, "pitch": 54, "duration": 13, "velocity": 85}, {"time": 1460, "pitch": 42, "duration": 45, "velocity": 85}, {"time": 1472, "pitch": 49, "duration": 8, "velocity": 79}, {"time": 1484, "pitch": 54, "duration": 8, "velocity": 87}, {"time": 1508, "pitch": 47, "duration": 46, "velocity": 85}, {"time": 1520, "pitch": 59, "duration": 8, "velocity": 75}, {"time": 1532, "pitch": 61, "duration": 13, "velocity": 83}, {"time": 1556, "pitch": 47, "duration": 29, "velocity": 92}, {"time": 1568, "pitch": 54, "duration": 8, "velocity": 81}, {"time": 1580, "pitch": 59, "duration": 10, "velocity": 84}, {"time": 1604, "pitch": 40, "duration": 41, "velocity": 83}, {"time": 1604, "pitch": 56, "duration": 20, "velocity": 78}, {"time": 1610, "pitch": 47, "duration": 34, "velocity": 71}, {"time": 1616, "pitch": 52, "duration": 8, "velocity": 83}, {"time": 1622, "pitch": 59, "duration": 7, "velocity": 80}, {"time": 1628, "pitch": 64, "duration": 29, "velocity": 87}, {"time": 1634, "pitch": 59, "duration": 15, "velocity": 84}, {"time": 1640, "pitch": 56, "duration": 10, "velocity": 83}, {"time": 1646, "pitch": 52, "duration": 5, "velocity": 83}, {"time": 1652, "pitch": 47, "duration": 33, "velocity": 97}, {"time": 1658, "pitch": 59, "duration": 8, "velocity": 75}, {"time": 1664, "pitch": 54, "duration": 9, "velocity": 85}, {"time": 1670, "pitch": 59, "duration": 5, "velocity": 83}, {"time": 1676, "pitch": 63, "duration": 7, "velocity": 97}, {"time": 1682, "pitch": 59, "duration": 8, "velocity": 85}, {"time": 1688, "pitch": 54, "duration": 3, "velocity": 87}, {"time": 1700, "pitch": 37, "duration": 39, "velocity": 86}, {"time": 1700, "pitch": 56, "duration": 7, "velocity": 78}, {"time": 1700, "pitch": 64, "duration": 19, "velocity": 83}, {"time": 1706, "pitch": 44, "duration": 28, "velocity": 71}, {"time": 1712, "pitch": 56, "duration": 9, "velocity": 78}, {"time": 1718, "pitch": 61, "duration": 5, "velocity": 79}, {"time": 1724, "pitch": 64, "duration": 8, "velocity": 89}, {"time": 1730, "pitch": 61, "duration": 7, "velocity": 82}, {"time": 1736, "pitch": 56, "duration": 9, "velocity": 79}, {"time": 1742, "pitch": 61, "duration": 5, "velocity": 80}, {"time": 1748, "pitch": 47, "duration": 32, "velocity": 89}, {"time": 1748, "pitch": 54, "duration": 4, "velocity": 82}, {"time": 1748, "pitch": 59, "duration": 8, "velocity": 80}, {"time": 1754, "pitch": 54, "duration": 13, "velocity": 78}, {"time": 1760, "pitch": 59, "duration": 7, "velocity": 75}, {"time": 1766, "pitch": 63, "duration": 8, "velocity": 88}, {"time": 1772, "pitch": 59, "duration": 7, "velocity": 84}, {"time": 1778, "pitch": 54, "duration": 6, "velocity": 84}, {"time": 1784, "pitch": 59, "duration": 3, "velocity": 73}, {"time": 1796, "pitch": 45, "duration": 45, "velocity": 88}, {"time": 1796, "pitch": 52, "duration": 4, "velocity": 83}, {"time": 1796, "pitch": 57, "duration": 8, "velocity": 84}, {"time": 1802, "pitch": 52, "duration": 12, "velocity": 78}, {"time": 1808, "pitch": 57, "duration": 8, "velocity": 74}, {"time": 1814, "pitch": 61, "duration": 12, "velocity": 83}, {"time": 1820, "pitch": 57, "duration": 8, "velocity": 79}, {"time": 1826, "pitch": 52, "duration": 8, "velocity": 85}, {"time": 1832, "pitch": 57, "duration": 7, "velocity": 92}, {"time": 1838, "pitch": 52, "duration": 4, "velocity": 84}, {"time": 1844, "pitch": 40, "duration": 20, "velocity": 83}, {"time": 1844, "pitch": 52, "duration": 5, "velocity": 87}, {"time": 1844, "pitch": 56, "duration": 13, "velocity": 86}, {"time": 1850, "pitch": 47, "duration": 14, "velocity": 73}, {"time": 1856, "pitch": 52, "duration": 8, "velocity": 84}, {"time": 1862, "pitch": 56, "duration": 4, "velocity": 87}, {"time": 1868, "pitch": 49, "duration": 15, "velocity": 84}, {"time": 1868, "pitch": 56, "duration": 4, "velocity": 77}, {"time": 1868, "pitch": 61, "duration": 8, "velocity": 84}, {"time": 1874, "pitch": 56, "duration": 7, "velocity": 77}, {"time": 1880, "pitch": 61, "duration": 4, "velocity": 84}, {"time": 1886, "pitch": 56, "duration": 3, "velocity": 43}, {"time": 1892, "pitch": 42, "duration": 45, "velocity": 84}, {"time": 1892, "pitch": 54, "duration": 6, "velocity": 83}, {"time": 1892, "pitch": 57, "duration": 15, "velocity": 75}, {"time": 1898, "pitch": 49, "duration": 37, "velocity": 75}, {"time": 1904, "pitch": 54, "duration": 8, "velocity": 86}, {"time": 1910, "pitch": 61, "duration": 6, "velocity": 84}, {"time": 1916, "pitch": 66, "duration": 13, "velocity": 86}, {"time": 1922, "pitch": 61, "duration": 8, "velocity": 87}, {"time": 1928, "pitch": 57, "duration": 7, "velocity": 85}, {"time": 1934, "pitch": 54, "duration": 4, "velocity": 82}, {"time": 1940, "pitch": 47, "duration": 39, "velocity": 87}, {"time": 1940, "pitch": 54, "duration": 5, "velocity": 83}, {"time": 1940, "pitch": 59, "duration": 12, "velocity": 83}, {"time": 1946, "pitch": 51, "duration": 32, "velocity": 73}, {"time": 1952, "pitch": 54, "duration": 9, "velocity": 88}, {"time": 1958, "pitch": 61, "duration": 5, "velocity": 85}, {"time": 1964, "pitch": 63, "duration": 7, "velocity": 83}, {"time": 1970, "pitch": 61, "duration": 7, "velocity": 86}, {"time": 1976, "pitch": 59, "duration": 5, "velocity": 85}, {"time": 1988, "pitch": 40, "duration": 45, "velocity": 78}, {"time": 1988, "pitch": 52, "duration": 8, "velocity": 81}, {"time": 1988, "pitch": 56, "duration": 13, "velocity": 75}, {"time": 1994, "pitch": 47, "duration": 39, "velocity": 79}, {"time": 2000, "pitch": 59, "duration": 13, "velocity": 86}, {"time": 2012, "pitch": 64, "duration": 8, "velocity": 92}, {"time": 2018, "pitch": 59, "duration": 8, "velocity": 85}, {"time": 2024, "pitch": 56, "duration": 7, "velocity": 84}, {"time": 2030, "pitch": 59, "duration": 4, "velocity": 84}, {"time": 2036, "pitch": 47, "duration": 41, "velocity": 94}, {"time": 2036, "pitch": 54, "duration": 2, "velocity": 78}, {"time": 2036, "pitch": 59, "duration": 7, "velocity": 87}, {"time": 2042, "pitch": 54, "duration": 6, "velocity": 85}, {"time": 2048, "pitch": 59, "duration": 13, "velocity": 84}, {"time": 2054, "pitch": 54, "duration": 7, "velocity": 83}, {"time": 2060, "pitch": 63, "duration": 7, "velocity": 89}, {"time": 2066, "pitch": 59, "duration": 7, "velocity": 85}, {"time": 2072, "pitch": 54, "duration": 8, "velocity": 82}, {"time": 2078, "pitch": 59, "duration": 7, "velocity": 83}, {"time": 2084, "pitch": 37, "duration": 41, "velocity": 86}, {"time": 2084, "pitch": 61, "duration": 8, "velocity": 83}, {"time": 2090, "pitch": 56, "duration": 9, "velocity": 78}, {"time": 2096, "pitch": 61, "duration": 7, "velocity": 79}, {"time": 2102, "pitch": 64, "duration": 8, "velocity": 86}, {"time": 2108, "pitch": 44, "duration": 18, "velocity": 64}, {"time": 2108, "pitch": 61, "duration": 8, "velocity": 84}, {"time": 2114, "pitch": 56, "duration": 8, "velocity": 82}, {"time": 2120, "pitch": 61, "duration": 7, "velocity": 84}, {"time": 2126, "pitch": 64, "duration": 5, "velocity": 79}, {"time": 2126, "pitch": 66, "duration": 5, "velocity": 78}, {"time": 2132, "pitch": 47, "duration": 41, "velocity": 85}, {"time": 2132, "pitch": 59, "duration": 8, "velocity": 83}, {"time": 2138, "pitch": 54, "duration": 9, "velocity": 84}, {"time": 2144, "pitch": 59, "duration": 6, "velocity": 83}, {"time": 2150, "pitch": 63, "duration": 7, "velocity": 94}, {"time": 2156, "pitch": 59, "duration": 8, "velocity": 84}, {"time": 2162, "pitch": 54, "duration": 6, "velocity": 81}, {"time": 2168, "pitch": 66, "duration": 14, "velocity": 87}, {"time": 2174, "pitch": 54, "duration": 5, "velocity": 85}, {"time": 2180, "pitch": 45, "duration": 44, "velocity": 97}, {"time": 2186, "pitch": 52, "duration": 35, "velocity": 75}, {"time": 2192, "pitch": 57, "duration": 14, "velocity": 83}, {"time": 2198, "pitch": 61, "duration": 7, "velocity": 83}, {"time": 2204, "pitch": 64, "duration": 8, "velocity": 89}, {"time": 2210, "pitch": 61, "duration": 7, "velocity": 85}, {"time": 2216, "pitch": 57, "duration": 7, "velocity": 83}, {"time": 2222, "pitch": 61, "duration": 6, "velocity": 75}, {"time": 2228, "pitch": 44, "duration": 37, "velocity": 84}, {"time": 2228, "pitch": 56, "duration": 8, "velocity": 74}, {"time": 2228, "pitch": 59, "duration": 13, "velocity": 82}, {"time": 2234, "pitch": 51, "duration": 24, "velocity": 78}, {"time": 2240, "pitch": 56, "duration": 10, "velocity": 84}, {"time": 2246, "pitch": 59, "duration": 6, "velocity": 89}, {"time": 2252, "pitch": 63, "duration": 7, "velocity": 94}, {"time": 2258, "pitch": 59, "duration": 7, "velocity": 89}, {"time": 2264, "pitch": 56, "duration": 7, "velocity": 86}, {"time": 2270, "pitch": 59, "duration": 3, "velocity": 84}, {"time": 2276, "pitch": 42, "duration": 46, "velocity": 83}, {"time": 2276, "pitch": 54, "duration": 16, "velocity": 77}, {"time": 2276, "pitch": 57, "duration": 22, "velocity": 79}, {"time": 2282, "pitch": 49, "duration": 34, "velocity": 73}, {"time": 2288, "pitch": 61, "duration": 7, "velocity": 84}, {"time": 2294, "pitch": 66, "duration": 10, "velocity": 85}, {"time": 2300, "pitch": 61, "duration": 8, "velocity": 89}, {"time": 2306, "pitch": 57, "duration": 8, "velocity": 86}, {"time": 2312, "pitch": 54, "duration": 8, "velocity": 84}, {"time": 2318, "pitch": 57, "duration": 4, "velocity": 85}, {"time": 2324, "pitch": 47, "duration": 34, "velocity": 92}, {"time": 2324, "pitch": 54, "duration": 6, "velocity": 80}, {"time": 2324, "pitch": 59, "duration": 13, "velocity": 84}, {"time": 2330, "pitch": 51, "duration": 26, "velocity": 75}, {"time": 2336, "pitch": 54, "duration": 10, "velocity": 87}, {"time": 2342, "pitch": 59, "duration": 6, "velocity": 87}, {"time": 2348, "pitch": 63, "duration": 6, "velocity": 97}, {"time": 2354, "pitch": 59, "duration": 8, "velocity": 84}, {"time": 2360, "pitch": 54, "duration": 3, "velocity": 84}, {"time": 2372, "pitch": 40, "duration": 45, "velocity": 84}, {"time": 2372, "pitch": 56, "duration": 6, "velocity": 76}, {"time": 2372, "pitch": 64, "duration": 16, "velocity": 80}, {"time": 2378, "pitch": 47, "duration": 39, "velocity": 74}, {"time": 2384, "pitch": 56, "duration": 8, "velocity": 76}, {"time": 2390, "pitch": 59, "duration": 7, "velocity": 84}, {"time": 2396, "pitch": 64, "duration": 8, "velocity": 85}, {"time": 2402, "pitch": 59, "duration": 8, "velocity": 85}, {"time": 2408, "pitch": 56, "duration": 19, "velocity": 83}, {"time": 2414, "pitch": 64, "duration": 20, "velocity": 83}, {"time": 2420, "pitch": 40, "duration": 38, "velocity": 78}, {"time": 2426, "pitch": 47, "duration": 31, "velocity": 75}, {"time": 2432, "pitch": 59, "duration": 9, "velocity": 81}, {"time": 2438, "pitch": 56, "duration": 8, "velocity": 79}, {"time": 2444, "pitch": 64, "duration": 15, "velocity": 86}, {"time": 2450, "pitch": 59, "duration": 7, "velocity": 85}, {"time": 2456, "pitch": 56, "duration": 8, "velocity": 89}, {"time": 2462, "pitch": 59, "duration": 6, "velocity": 87}, {"time": 2468, "pitch": 48, "duration": 18, "velocity": 86}, {"time": 2468, "pitch": 60, "duration": 10, "velocity": 72}, {"time": 2468, "pitch": 67, "duration": 10, "velocity": 73}, {"time": 2480, "pitch": 60, "duration": 3, "velocity": 72}, {"time": 2480, "pitch": 64, "duration": 2, "velocity": 72}, {"time": 2480, "pitch": 67, "duration": 3, "velocity": 75}, {"time": 2492, "pitch": 48, "duration": 2, "velocity": 92}, {"time": 2492, "pitch": 55, "duration": 2, "velocity": 83}, {"time": 2492, "pitch": 60, "duration": 2, "velocity": 78}, {"time": 2492, "pitch": 64, "duration": 2, "velocity": 82}, {"time": 2492, "pitch": 67, "duration": 3, "velocity": 84}, {"time": 2504, "pitch": 48, "duration": 3, "velocity": 81}, {"time": 2504, "pitch": 55, "duration": 4, "velocity": 74}, {"time": 2504, "pitch": 60, "duration": 3, "velocity": 73}, {"time": 2504, "pitch": 64, "duration": 2, "velocity": 71}, {"time": 2504, "pitch": 67, "duration": 3, "velocity": 74}, {"time": 2516, "pitch": 47, "duration": 32, "velocity": 81}, {"time": 2516, "pitch": 59, "duration": 9, "velocity": 77}, {"time": 2516, "pitch": 62, "duration": 9, "velocity": 79}, {"time": 2528, "pitch": 59, "duration": 2, "velocity": 69}, {"time": 2528, "pitch": 62, "duration": 2, "velocity": 74}, {"time": 2528, "pitch": 66, "duration": 2, "velocity": 61}, {"time": 2540, "pitch": 59, "duration": 2, "velocity": 87}, {"time": 2540, "pitch": 62, "duration": 2, "velocity": 89}, {"time": 2540, "pitch": 66, "duration": 3, "velocity": 84}, {"time": 2552, "pitch": 47, "duration": 3, "velocity": 85}, {"time": 2552, "pitch": 59, "duration": 2, "velocity": 78}, {"time": 2552, "pitch": 62, "duration": 2, "velocity": 84}, {"time": 2552, "pitch": 66, "duration": 3, "velocity": 79}, {"time": 2564, "pitch": 48, "duration": 17, "velocity": 90}, {"time": 2564, "pitch": 60, "duration": 8, "velocity": 74}, {"time": 2564, "pitch": 64, "duration": 8, "velocity": 79}, {"time": 2564, "pitch": 67, "duration": 8, "velocity": 76}, {"time": 2576, "pitch": 60, "duration": 3, "velocity": 81}, {"time": 2576, "pitch": 64, "duration": 2, "velocity": 79}, {"time": 2576, "pitch": 67, "duration": 3, "velocity": 83}, {"time": 2588, "pitch": 48, "duration": 4, "velocity": 90}, {"time": 2588, "pitch": 55, "duration": 4, "velocity": 84}, {"time": 2588, "pitch": 60, "duration": 4, "velocity": 79}, {"time": 2588, "pitch": 64, "duration": 4, "velocity": 77}, {"time": 2588, "pitch": 67, "duration": 5, "velocity": 79}, {"time": 2600, "pitch": 60, "duration": 2, "velocity": 78}, {"time": 2600, "pitch": 67, "duration": 2, "velocity": 77}, {"time": 2612, "pitch": 47, "duration": 33, "velocity": 85}, {"time": 2612, "pitch": 59, "duration": 5, "velocity": 74}, {"time": 2612, "pitch": 62, "duration": 5, "velocity": 77}, {"time": 2612, "pitch": 66, "duration": 5, "velocity": 76}, {"time": 2624, "pitch": 59, "duration": 2, "velocity": 59}, {"time": 2624, "pitch": 62, "duration": 3, "velocity": 72}, {"time": 2624, "pitch": 66, "duration": 3, "velocity": 71}, {"time": 2636, "pitch": 59, "duration": 4, "velocity": 85}, {"time": 2636, "pitch": 62, "duration": 4, "velocity": 90}, {"time": 2636, "pitch": 66, "duration": 5, "velocity": 84}, {"time": 2648, "pitch": 59, "duration": 2, "velocity": 75}, {"time": 2648, "pitch": 62, "duration": 2, "velocity": 84}, {"time": 2648, "pitch": 66, "duration": 2, "velocity": 78}, {"time": 2660, "pitch": 46, "duration": 45, "velocity": 84}, {"time": 2660, "pitch": 58, "duration": 8, "velocity": 81}, {"time": 2660, "pitch": 62, "duration": 11, "velocity": 83}, {"time": 2660, "pitch": 65, "duration": 9, "velocity": 84}, {"time": 2666, "pitch": 53, "duration": 35, "velocity": 74}, {"time": 2672, "pitch": 58, "duration": 18, "velocity": 84}, {"time": 2678, "pitch": 62, "duration": 8, "velocity": 90}, {"time": 2684, "pitch": 65, "duration": 7, "velocity": 97}, {"time": 2690, "pitch": 70, "duration": 12, "velocity": 88}, {"time": 2696, "pitch": 65, "duration": 9, "velocity": 97}, {"time": 2702, "pitch": 58, "duration": 5, "velocity": 92}, {"time": 2708, "pitch": 45, "duration": 40, "velocity": 100}, {"time": 2714, "pitch": 57, "duration": 13, "velocity": 76}, {"time": 2720, "pitch": 60, "duration": 8, "velocity": 68}, {"time": 2726, "pitch": 64, "duration": 7, "velocity": 84}, {"time": 2732, "pitch": 60, "duration": 8, "velocity": 76}, {"time": 2738, "pitch": 57, "duration": 13, "velocity": 89}, {"time": 2744, "pitch": 60, "duration": 8, "velocity": 85}, {"time": 2750, "pitch": 64, "duration": 10, "velocity": 85}, {"time": 2756, "pitch": 44, "duration": 49, "velocity": 85}, {"time": 2762, "pitch": 50, "duration": 42, "velocity": 84}, {"time": 2768, "pitch": 56, "duration": 15, "velocity": 85}, {"time": 2774, "pitch": 59, "duration": 12, "velocity": 83}, {"time": 2780, "pitch": 62, "duration": 7, "velocity": 88}, {"time": 2786, "pitch": 65, "duration": 12, "velocity": 79}, {"time": 2792, "pitch": 62, "duration": 12, "velocity": 94}, {"time": 2798, "pitch": 56, "duration": 7, "velocity": 84}, {"time": 2804, "pitch": 45, "duration": 38, "velocity": 94}, {"time": 2810, "pitch": 52, "duration": 26, "velocity": 79}, {"time": 2816, "pitch": 57, "duration": 14, "velocity": 85}, {"time": 2822, "pitch": 61, "duration": 7, "velocity": 85}, {"time": 2828, "pitch": 64, "duration": 26, "velocity": 92}, {"time": 2834, "pitch": 57, "duration": 16, "velocity": 88}, {"time": 2840, "pitch": 52, "duration": 5, "velocity": 84}, {"time": 2846, "pitch": 61, "duration": 6, "velocity": 88}, {"time": 2852, "pitch": 38, "duration": 30, "velocity": 97}, {"time": 2858, "pitch": 45, "duration": 22, "velocity": 72}, {"time": 2864, "pitch": 50, "duration": 8, "velocity": 89}, {"time": 2870, "pitch": 54, "duration": 3, "velocity": 84}, {"time": 2876, "pitch": 50, "duration": 6, "velocity": 88}, {"time": 2876, "pitch": 54, "duration": 7, "velocity": 97}, {"time": 2876, "pitch": 57, "duration": 7, "velocity": 90}, {"time": 2876, "pitch": 62, "duration": 10, "velocity": 84}, {"time": 2882, "pitch": 45, "duration": 3, "velocity": 84}, {"time": 2888, "pitch": 50, "duration": 3, "velocity": 99}, {"time": 2900, "pitch": 40, "duration": 37, "velocity": 85}, {"time": 2900, "pitch": 52, "duration": 20, "velocity": 81}, {"time": 2906, "pitch": 47, "duration": 21, "velocity": 84}, {"time": 2912, "pitch": 55, "duration": 8, "velocity": 88}, {"time": 2918, "pitch": 59, "duration": 4, "velocity": 83}, {"time": 2924, "pitch": 52, "duration": 7, "velocity": 84}, {"time": 2924, "pitch": 55, "duration": 9, "velocity": 87}, {"time": 2924, "pitch": 59, "duration": 10, "velocity": 84}, {"time": 2924, "pitch": 64, "duration": 13, "velocity": 85}, {"time": 2930, "pitch": 47, "duration": 7, "velocity": 86}, {"time": 2936, "pitch": 52, "duration": 3, "velocity": 94}, {"time": 2948, "pitch": 37, "duration": 11, "velocity": 85}, {"time": 2948, "pitch": 55, "duration": 8, "velocity": 94}, {"time": 2954, "pitch": 49, "duration": 12, "velocity": 86}, {"time": 2960, "pitch": 52, "duration": 7, "velocity": 83}, {"time": 2966, "pitch": 55, "duration": 4, "velocity": 90}, {"time": 2972, "pitch": 42, "duration": 18, "velocity": 84}, {"time": 2972, "pitch": 61, "duration": 12, "velocity": 85}, {"time": 2978, "pitch": 49, "duration": 13, "velocity": 84}, {"time": 2984, "pitch": 54, "duration": 7, "velocity": 92}, {"time": 2990, "pitch": 61, "duration": 5, "velocity": 86}, {"time": 2996, "pitch": 47, "duration": 24, "velocity": 94}, {"time": 2996, "pitch": 62, "duration": 12, "velocity": 87}, {"time": 3002, "pitch": 54, "duration": 8, "velocity": 84}, {"time": 3008, "pitch": 59, "duration": 8, "velocity": 87}, {"time": 3014, "pitch": 54, "duration": 7, "velocity": 87}, {"time": 3020, "pitch": 45, "duration": 21, "velocity": 84}, {"time": 3020, "pitch": 57, "duration": 8, "velocity": 88}, {"time": 3026, "pitch": 54, "duration": 8, "velocity": 85}, {"time": 3032, "pitch": 57, "duration": 6, "velocity": 94}, {"time": 3038, "pitch": 54, "duration": 3, "velocity": 83}, {"time": 3044, "pitch": 44, "duration": 49, "velocity": 90}, {"time": 3044, "pitch": 56, "duration": 12, "velocity": 85}, {"time": 3050, "pitch": 59, "duration": 14, "velocity": 84}, {"time": 3056, "pitch": 62, "duration": 6, "velocity": 99}, {"time": 3062, "pitch": 66, "duration": 10, "velocity": 87}, {"time": 3068, "pitch": 62, "duration": 8, "velocity": 99}, {"time": 3074, "pitch": 59, "duration": 15, "velocity": 84}, {"time": 3080, "pitch": 56, "duration": 12, "velocity": 79}, {"time": 3092, "pitch": 35, "duration": 33, "velocity": 84}, {"time": 3092, "pitch": 54, "duration": 7, "velocity": 83}, {"time": 3092, "pitch": 62, "duration": 12, "velocity": 79}, {"time": 3104, "pitch": 54, "duration": 5, "velocity": 74}, {"time": 3104, "pitch": 59, "duration": 5, "velocity": 74}, {"time": 3116, "pitch": 54, "duration": 6, "velocity": 84}, {"time": 3116, "pitch": 59, "duration": 7, "velocity": 86}, {"time": 3116, "pitch": 62, "duration": 13, "velocity": 87}, {"time": 3128, "pitch": 54, "duration": 3, "velocity": 88}, {"time": 3140, "pitch": 42, "duration": 43, "velocity": 83}, {"time": 3140, "pitch": 54, "duration": 9, "velocity": 77}, {"time": 3140, "pitch": 57, "duration": 8, "velocity": 63}, {"time": 3140, "pitch": 61, "duration": 9, "velocity": 78}, {"time": 3152, "pitch": 54, "duration": 4, "velocity": 68}, {"time": 3152, "pitch": 57, "duration": 6, "velocity": 71}, {"time": 3164, "pitch": 66, "duration": 7, "velocity": 85}, {"time": 3170, "pitch": 61, "duration": 8, "velocity": 85}, {"time": 3176, "pitch": 57, "duration": 6, "velocity": 85}, {"time": 3182, "pitch": 54, "duration": 3, "velocity": 84}, {"time": 3188, "pitch": 35, "duration": 3, "velocity": 84}, {"time": 3188, "pitch": 54, "duration": 4, "velocity": 81}, {"time": 3188, "pitch": 59, "duration": 8, "velocity": 83}, {"time": 3188, "pitch": 64, "duration": 13, "velocity": 84}, {"time": 3194, "pitch": 54, "duration": 8, "velocity": 82}, {"time": 3200, "pitch": 59, "duration": 4, "velocity": 82}, {"time": 3206, "pitch": 64, "duration": 10, "velocity": 94}, {"time": 3212, "pitch": 54, "duration": 20, "velocity": 84}, {"time": 3218, "pitch": 59, "duration": 6, "velocity": 86}, {"time": 3224, "pitch": 64, "duration": 7, "velocity": 90}, {"time": 3230, "pitch": 59, "duration": 4, "velocity": 84}, {"time": 3236, "pitch": 47, "duration": 45, "velocity": 85}, {"time": 3236, "pitch": 59, "duration": 7, "velocity": 83}, {"time": 3236, "pitch": 63, "duration": 9, "velocity": 84}, {"time": 3242, "pitch": 54, "duration": 39, "velocity": 72}, {"time": 3248, "pitch": 59, "duration": 8, "velocity": 75}, {"time": 3254, "pitch": 66, "duration": 8, "velocity": 70}, {"time": 3260, "pitch": 63, "duration": 6, "velocity": 84}, {"time": 3266, "pitch": 59, "duration": 8, "velocity": 85}, {"time": 3272, "pitch": 71, "duration": 8, "velocity": 86}, {"time": 3278, "pitch": 59, "duration": 23, "velocity": 76}, {"time": 3284, "pitch": 47, "duration": 43, "velocity": 86}, {"time": 3284, "pitch": 63, "duration": 15, "velocity": 79}, {"time": 3284, "pitch": 66, "duration": 15, "velocity": 74}, {"time": 3296, "pitch": 54, "duration": 17, "velocity": 69}, {"time": 3308, "pitch": 59, "duration": 14, "velocity": 67}, {"time": 3308, "pitch": 63, "duration": 13, "velocity": 78}, {"time": 3320, "pitch": 54, "duration": 7, "velocity": 70}, {"time": 3332, "pitch": 47, "duration": 19, "velocity": 85}, {"time": 3332, "pitch": 59, "duration": 23, "velocity": 77}, {"time": 3332, "pitch": 71, "duration": 23, "velocity": 78}, {"time": 3380, "pitch": 40, "duration": 81, "velocity": 83}, {"time": 3380, "pitch": 52, "duration": 7, "velocity": 75}, {"time": 3380, "pitch": 59, "duration": 13, "velocity": 78}, {"time": 3386, "pitch": 47, "duration": 76, "velocity": 70}, {"time": 3392, "pitch": 52, "duration": 66, "velocity": 73}, {"time": 3398, "pitch": 59, "duration": 65, "velocity": 76}, {"time": 3404, "pitch": 64, "duration": 37, "velocity": 83}, {"time": 3464, "pitch": 52, "duration": 7, "velocity": 83}, {"time": 3470, "pitch": 59, "duration": 14, "velocity": 78}, {"time": 3476, "pitch": 47, "duration": 76, "velocity": 84}, {"time": 3482, "pitch": 54, "duration": 65, "velocity": 78}, {"time": 3488, "pitch": 59, "duration": 7, "velocity": 74}, {"time": 3494, "pitch": 63, "duration": 55, "velocity": 85}, {"time": 3500, "pitch": 59, "duration": 54, "velocity": 77}, {"time": 3512, "pitch": 66, "duration": 38, "velocity": 80}, {"time": 3554, "pitch": 54, "duration": 8, "velocity": 83}, {"time": 3560, "pitch": 63, "duration": 13, "velocity": 84}, {"time": 3566, "pitch": 54, "duration": 5, "velocity": 84}, {"time": 3572, "pitch": 49, "duration": 42, "velocity": 84}, {"time": 3578, "pitch": 61, "duration": 31, "velocity": 73}, {"time": 3584, "pitch": 56, "duration": 28, "velocity": 77}, {"time": 3590, "pitch": 64, "duration": 25, "velocity": 82}, {"time": 3614, "pitch": 56, "duration": 7, "velocity": 75}, {"time": 3620, "pitch": 47, "duration": 36, "velocity": 84}, {"time": 3626, "pitch": 59, "duration": 23, "velocity": 73}, {"time": 3632, "pitch": 54, "duration": 23, "velocity": 82}, {"time": 3638, "pitch": 63, "duration": 11, "velocity": 84}, {"time": 3662, "pitch": 54, "duration": 8, "velocity": 73}, {"time": 3668, "pitch": 42, "duration": 46, "velocity": 83}, {"time": 3674, "pitch": 49, "duration": 39, "velocity": 76}, {"time": 3680, "pitch": 61, "duration": 13, "velocity": 77}, {"time": 3692, "pitch": 66, "duration": 15, "velocity": 85}, {"time": 3710, "pitch": 61, "duration": 13, "velocity": 83}, {"time": 3716, "pitch": 47, "duration": 42, "velocity": 94}, {"time": 3722, "pitch": 59, "duration": 7, "velocity": 83}, {"time": 3728, "pitch": 54, "duration": 23, "velocity": 84}, {"time": 3734, "pitch": 59, "duration": 21, "velocity": 83}, {"time": 3752, "pitch": 54, "duration": 6, "velocity": 84}, {"time": 3764, "pitch": 44, "duration": 70, "velocity": 84}, {"time": 3764, "pitch": 56, "duration": 7, "velocity": 76}, {"time": 3764, "pitch": 59, "duration": 66, "velocity": 78}, {"time": 3770, "pitch": 51, "duration": 58, "velocity": 75}, {"time": 3776, "pitch": 56, "duration": 56, "velocity": 84}, {"time": 3782, "pitch": 63, "duration": 70, "velocity": 84}, {"time": 3836, "pitch": 56, "duration": 6, "velocity": 78}, {"time": 3836, "pitch": 44, "duration": 6, "velocity": 78}, {"time": 3845, "pitch": 57, "duration": 6, "velocity": 87}, {"time": 3845, "pitch": 45, "duration": 6, "velocity": 87}, {"time": 3854, "pitch": 59, "duration": 4, "velocity": 91}, {"time": 3854, "pitch": 47, "duration": 4, "velocity": 91}, {"time": 3860, "pitch": 49, "duration": 48, "velocity": 102}, {"time": 3866, "pitch": 52, "duration": 36, "velocity": 72}, {"time": 3872, "pitch": 61, "duration": 28, "velocity": 80}, {"time": 3878, "pitch": 56, "duration": 21, "velocity": 77}, {"time": 3908, "pitch": 47, "duration": 44, "velocity": 87}, {"time": 3914, "pitch": 54, "duration": 29, "velocity": 84}, {"time": 3920, "pitch": 63, "duration": 23, "velocity": 84}, {"time": 3944, "pitch": 64, "duration": 25, "velocity": 84}, {"time": 3950, "pitch": 54, "duration": 6, "velocity": 83}, {"time": 3956, "pitch": 42, "duration": 84, "velocity": 85}, {"time": 3962, "pitch": 49, "duration": 78, "velocity": 71}, {"time": 3968, "pitch": 61, "duration": 64, "velocity": 77}, {"time": 3974, "pitch": 57, "duration": 57, "velocity": 65}, {"time": 3980, "pitch": 66, "duration": 13, "velocity": 85}, {"time": 4028, "pitch": 66, "duration": 8, "velocity": 87}, {"time": 4034, "pitch": 61, "duration": 7, "velocity": 85}, {"time": 4040, "pitch": 57, "duration": 7, "velocity": 83}, {"time": 4046, "pitch": 61, "duration": 7, "velocity": 78}, {"time": 4052, "pitch": 45, "duration": 46, "velocity": 85}, {"time": 4052, "pitch": 57, "duration": 7, "velocity": 81}, {"time": 4058, "pitch": 52, "duration": 6, "velocity": 82}, {"time": 4064, "pitch": 57, "duration": 8, "velocity": 75}, {"time": 4070, "pitch": 52, "duration": 7, "velocity": 80}, {"time": 4076, "pitch": 61, "duration": 13, "velocity": 83}, {"time": 4082, "pitch": 52, "duration": 7, "velocity": 85}, {"time": 4088, "pitch": 57, "duration": 7, "velocity": 86}, {"time": 4094, "pitch": 52, "duration": 5, "velocity": 85}, {"time": 4100, "pitch": 47, "duration": 29, "velocity": 92}, {"time": 4100, "pitch": 63, "duration": 13, "velocity": 87}, {"time": 4101, "pitch": 54, "duration": 6, "velocity": 84}, {"time": 4148, "pitch": 40, "duration": 41, "velocity": 83}, {"time": 4148, "pitch": 56, "duration": 20, "velocity": 78}, {"time": 4154, "pitch": 47, "duration": 34, "velocity": 71}, {"time": 4160, "pitch": 52, "duration": 8, "velocity": 83}, {"time": 4166, "pitch": 59, "duration": 7, "velocity": 80}, {"time": 4172, "pitch": 64, "duration": 29, "velocity": 87}, {"time": 4178, "pitch": 59, "duration": 15, "velocity": 84}, {"time": 4184, "pitch": 56, "duration": 10, "velocity": 83}, {"time": 4190, "pitch": 52, "duration": 5, "velocity": 83}, {"time": 4196, "pitch": 47, "duration": 33, "velocity": 97}, {"time": 4202, "pitch": 59, "duration": 8, "velocity": 75}, {"time": 4208, "pitch": 54, "duration": 9, "velocity": 85}, {"time": 4214, "pitch": 59, "duration": 5, "velocity": 83}, {"time": 4220, "pitch": 63, "duration": 7, "velocity": 97}, {"time": 4226, "pitch": 59, "duration": 8, "velocity": 85}, {"time": 4232, "pitch": 54, "duration": 3, "velocity": 87}, {"time": 4244, "pitch": 37, "duration": 39, "velocity": 86}, {"time": 4244, "pitch": 56, "duration": 7, "velocity": 78}, {"time": 4244, "pitch": 64, "duration": 19, "velocity": 83}, {"time": 4250, "pitch": 44, "duration": 28, "velocity": 71}, {"time": 4256, "pitch": 56, "duration": 9, "velocity": 78}, {"time": 4262, "pitch": 61, "duration": 5, "velocity": 79}, {"time": 4268, "pitch": 64, "duration": 8, "velocity": 89}, {"time": 4274, "pitch": 61, "duration": 7, "velocity": 82}, {"time": 4280, "pitch": 56, "duration": 9, "velocity": 79}, {"time": 4286, "pitch": 61, "duration": 5, "velocity": 80}, {"time": 4292, "pitch": 47, "duration": 32, "velocity": 89}, {"time": 4292, "pitch": 54, "duration": 4, "velocity": 82}, {"time": 4292, "pitch": 59, "duration": 8, "velocity": 80}, {"time": 4298, "pitch": 54, "duration": 13, "velocity": 78}, {"time": 4304, "pitch": 59, "duration": 7, "velocity": 75}, {"time": 4310, "pitch": 63, "duration": 8, "velocity": 88}, {"time": 4316, "pitch": 59, "duration": 7, "velocity": 84}, {"time": 4322, "pitch": 54, "duration": 6, "velocity": 84}, {"time": 4328, "pitch": 59, "duration": 3, "velocity": 73}, {"time": 4340, "pitch": 45, "duration": 45, "velocity": 88}, {"time": 4340, "pitch": 52, "duration": 4, "velocity": 83}, {"time": 4340, "pitch": 57, "duration": 8, "velocity": 84}, {"time": 4346, "pitch": 52, "duration": 12, "velocity": 78}, {"time": 4352, "pitch": 57, "duration": 8, "velocity": 74}, {"time": 4358, "pitch": 61, "duration": 12, "velocity": 83}, {"time": 4364, "pitch": 57, "duration": 8, "velocity": 79}, {"time": 4370, "pitch": 52, "duration": 8, "velocity": 85}, {"time": 4376, "pitch": 57, "duration": 7, "velocity": 92}, {"time": 4382, "pitch": 52, "duration": 4, "velocity": 84}, {"time": 4388, "pitch": 40, "duration": 20, "velocity": 83}, {"time": 4388, "pitch": 52, "duration": 5, "velocity": 87}, {"time": 4388, "pitch": 56, "duration": 13, "velocity": 86}, {"time": 4394, "pitch": 47, "duration": 14, "velocity": 73}, {"time": 4400, "pitch": 52, "duration": 8, "velocity": 84}, {"time": 4406, "pitch": 56, "duration": 4, "velocity": 87}, {"time": 4412, "pitch": 49, "duration": 15, "velocity": 84}, {"time": 4412, "pitch": 56, "duration": 4, "velocity": 77}, {"time": 4412, "pitch": 61, "duration": 8, "velocity": 84}, {"time": 4418, "pitch": 56, "duration": 7, "velocity": 77}, {"time": 4424, "pitch": 61, "duration": 4, "velocity": 84}, {"time": 4430, "pitch": 56, "duration": 3, "velocity": 43}, {"time": 4436, "pitch": 42, "duration": 45, "velocity": 84}, {"time": 4436, "pitch": 54, "duration": 6, "velocity": 83}, {"time": 4436, "pitch": 57, "duration": 15, "velocity": 75}, {"time": 4442, "pitch": 49, "duration": 37, "velocity": 75}, {"time": 4448, "pitch": 54, "duration": 8, "velocity": 86}, {"time": 4454, "pitch": 61, "duration": 6, "velocity": 84}, {"time": 4460, "pitch": 66, "duration": 13, "velocity": 86}, {"time": 4466, "pitch": 61, "duration": 8, "velocity": 87}, {"time": 4472, "pitch": 57, "duration": 7, "velocity": 85}, {"time": 4478, "pitch": 54, "duration": 4, "velocity": 82}, {"time": 4484, "pitch": 47, "duration": 39, "velocity": 87}, {"time": 4484, "pitch": 54, "duration": 5, "velocity": 83}, {"time": 4484, "pitch": 59, "duration": 12, "velocity": 83}, {"time": 4490, "pitch": 51, "duration": 32, "velocity": 73}, {"time": 4496, "pitch": 54, "duration": 9, "velocity": 88}, {"time": 4502, "pitch": 61, "duration": 5, "velocity": 85}, {"time": 4508, "pitch": 63, "duration": 7, "velocity": 83}, {"time": 4514, "pitch": 61, "duration": 7, "velocity": 86}, {"time": 4520, "pitch": 59, "duration": 5, "velocity": 85}, {"time": 4532, "pitch": 40, "duration": 45, "velocity": 78}, {"time": 4532, "pitch": 52, "duration": 8, "velocity": 81}, {"time": 4532, "pitch": 56, "duration": 13, "velocity": 75}, {"time": 4538, "pitch": 47, "duration": 39, "velocity": 79}, {"time": 4544, "pitch": 59, "duration": 13, "velocity": 86}, {"time": 4556, "pitch": 64, "duration": 8, "velocity": 92}, {"time": 4562, "pitch": 59, "duration": 8, "velocity": 85}, {"time": 4568, "pitch": 56, "duration": 7, "velocity": 84}, {"time": 4574, "pitch": 59, "duration": 4, "velocity": 84}, {"time": 4580, "pitch": 47, "duration": 41, "velocity": 94}, {"time": 4580, "pitch": 54, "duration": 2, "velocity": 78}, {"time": 4580, "pitch": 59, "duration": 7, "velocity": 87}, {"time": 4586, "pitch": 54, "duration": 6, "velocity": 85}, {"time": 4592, "pitch": 59, "duration": 13, "velocity": 84}, {"time": 4598, "pitch": 54, "duration": 7, "velocity": 83}, {"time": 4604, "pitch": 63, "duration": 7, "velocity": 89}, {"time": 4610, "pitch": 59, "duration": 7, "velocity": 85}, {"time": 4616, "pitch": 54, "duration": 8, "velocity": 82}, {"time": 4622, "pitch": 59, "duration": 7, "velocity": 83}, {"time": 4628, "pitch": 37, "duration": 41, "velocity": 86}, {"time": 4628, "pitch": 61, "duration": 8, "velocity": 83}, {"time": 4634, "pitch": 56, "duration": 9, "velocity": 78}, {"time": 4640, "pitch": 61, "duration": 7, "velocity": 79}, {"time": 4646, "pitch": 64, "duration": 8, "velocity": 86}, {"time": 4652, "pitch": 44, "duration": 18, "velocity": 64}, {"time": 4652, "pitch": 61, "duration": 8, "velocity": 84}, {"time": 4658, "pitch": 56, "duration": 8, "velocity": 82}, {"time": 4664, "pitch": 61, "duration": 7, "velocity": 84}, {"time": 4670, "pitch": 64, "duration": 5, "velocity": 79}, {"time": 4670, "pitch": 66, "duration": 5, "velocity": 78}, {"time": 4676, "pitch": 47, "duration": 41, "velocity": 85}, {"time": 4676, "pitch": 59, "duration": 8, "velocity": 83}, {"time": 4682, "pitch": 54, "duration": 9, "velocity": 84}, {"time": 4688, "pitch": 59, "duration": 6, "velocity": 83}, {"time": 4694, "pitch": 63, "duration": 7, "velocity": 94}, {"time": 4700, "pitch": 59, "duration": 8, "velocity": 84}, {"time": 4706, "pitch": 54, "duration": 6, "velocity": 81}, {"time": 4712, "pitch": 66, "duration": 14, "velocity": 87}, {"time": 4718, "pitch": 54, "duration": 5, "velocity": 85}, {"time": 4724, "pitch": 45, "duration": 44, "velocity": 97}, {"time": 4730, "pitch": 52, "duration": 35, "velocity": 75}, {"time": 4736, "pitch": 57, "duration": 14, "velocity": 83}, {"time": 4742, "pitch": 61, "duration": 7, "velocity": 83}, {"time": 4748, "pitch": 64, "duration": 8, "velocity": 89}, {"time": 4754, "pitch": 61, "duration": 7, "velocity": 85}, {"time": 4760, "pitch": 57, "duration": 7, "velocity": 83}, {"time": 4766, "pitch": 61, "duration": 6, "velocity": 75}, {"time": 4772, "pitch": 44, "duration": 37, "velocity": 84}, {"time": 4772, "pitch": 56, "duration": 8, "velocity": 74}, {"time": 4772, "pitch": 59, "duration": 13, "velocity": 82}, {"time": 4778, "pitch": 51, "duration": 24, "velocity": 78}, {"time": 4784, "pitch": 56, "duration": 10, "velocity": 84}, {"time": 4790, "pitch": 59, "duration": 6, "velocity": 89}, {"time": 4796, "pitch": 63, "duration": 7, "velocity": 94}, {"time": 4802, "pitch": 59, "duration": 7, "velocity": 89}, {"time": 4808, "pitch": 56, "duration": 7, "velocity": 86}, {"time": 4814, "pitch": 59, "duration": 3, "velocity": 84}, {"time": 4820, "pitch": 42, "duration": 46, "velocity": 83}, {"time": 4820, "pitch": 54, "duration": 16, "velocity": 77}, {"time": 4820, "pitch": 57, "duration": 22, "velocity": 79}, {"time": 4826, "pitch": 49, "duration": 34, "velocity": 73}, {"time": 4832, "pitch": 61, "duration": 7, "velocity": 84}, {"time": 4838, "pitch": 66, "duration": 10, "velocity": 85}, {"time": 4844, "pitch": 61, "duration": 8, "velocity": 89}, {"time": 4850, "pitch": 57, "duration": 8, "velocity": 86}, {"time": 4856, "pitch": 54, "duration": 8, "velocity": 84}, {"time": 4862, "pitch": 57, "duration": 4, "velocity": 85}, {"time": 4868, "pitch": 47, "duration": 34, "velocity": 92}, {"time": 4868, "pitch": 54, "duration": 6, "velocity": 80}, {"time": 4868, "pitch": 59, "duration": 13, "velocity": 84}, {"time": 4874, "pitch": 51, "duration": 26, "velocity": 75}, {"time": 4880, "pitch": 54, "duration": 10, "velocity": 87}, {"time": 4886, "pitch": 59, "duration": 6, "velocity": 87}, {"time": 4892, "pitch": 63, "duration": 6, "velocity": 97}, {"time": 4898, "pitch": 59, "duration": 8, "velocity": 84}, {"time": 4904, "pitch": 54, "duration": 3, "velocity": 84}, {"time": 4916, "pitch": 40, "duration": 44, "velocity": 85}, {"time": 4916, "pitch": 52, "duration": 8, "velocity": 80}, {"time": 4916, "pitch": 64, "duration": 14, "velocity": 83}, {"time": 4922, "pitch": 47, "duration": 37, "velocity": 77}, {"time": 4928, "pitch": 52, "duration": 10, "velocity": 72}, {"time": 4934, "pitch": 59, "duration": 13, "velocity": 90}, {"time": 4946, "pitch": 56, "duration": 7, "velocity": 83}, {"time": 4952, "pitch": 59, "duration": 8, "velocity": 87}, {"time": 4958, "pitch": 52, "duration": 3, "velocity": 83}, {"time": 4964, "pitch": 66, "duration": 7, "velocity": 88}, {"time": 4964, "pitch": 47, "duration": 22, "velocity": 99}, {"time": 4964, "pitch": 54, "duration": 4, "velocity": 85}, {"time": 4964, "pitch": 59, "duration": 7, "velocity": 88}, {"time": 4964, "pitch": 35, "duration": 22, "velocity": 97}, {"time": 4988, "pitch": 66, "duration": 7, "velocity": 88}, {"time": 4988, "pitch": 47, "duration": 22, "velocity": 99}, {"time": 4988, "pitch": 54, "duration": 4, "velocity": 85}, {"time": 4988, "pitch": 59, "duration": 7, "velocity": 88}, {"time": 4988, "pitch": 35, "duration": 22, "velocity": 97}, {"time": 5012, "pitch": 52, "duration": 21, "velocity": 83}, {"time": 5012, "pitch": 40, "duration": 20, "velocity": 83}, {"time": 5018, "pitch": 47, "duration": 9, "velocity": 77}, {"time": 5024, "pitch": 56, "duration": 8, "velocity": 78}, {"time": 5030, "pitch": 59, "duration": 7, "velocity": 80}, {"time": 5036, "pitch": 52, "duration": 16, "velocity": 83}, {"time": 5036, "pitch": 40, "duration": 20, "velocity": 83}, {"time": 5036, "pitch": 64, "duration": 29, "velocity": 87}, {"time": 5042, "pitch": 59, "duration": 9, "velocity": 84}, {"time": 5048, "pitch": 56, "duration": 10, "velocity": 83}, {"time": 5053, "pitch": 52, "duration": 8, "velocity": 74}, {"time": 5060, "pitch": 47, "duration": 21, "velocity": 83}, {"time": 5061, "pitch": 35, "duration": 20, "velocity": 83}, {"time": 5066, "pitch": 59, "duration": 8, "velocity": 75}, {"time": 5072, "pitch": 54, "duration": 9, "velocity": 85}, {"time": 5078, "pitch": 59, "duration": 5, "velocity": 83}, {"time": 5084, "pitch": 47, "duration": 21, "velocity": 83}, {"time": 5084, "pitch": 63, "duration": 7, "velocity": 97}, {"time": 5084, "pitch": 35, "duration": 21, "velocity": 83}, {"time": 5090, "pitch": 59, "duration": 8, "velocity": 85}, {"time": 5096, "pitch": 54, "duration": 3, "velocity": 87}, {"time": 5101, "pitch": 59, "duration": 6, "velocity": 82}, {"time": 5108, "pitch": 49, "duration": 21, "velocity": 83}, {"time": 5108, "pitch": 56, "duration": 7, "velocity": 78}, {"time": 5108, "pitch": 64, "duration": 19, "velocity": 83}, {"time": 5109, "pitch": 37, "duration": 20, "velocity": 83}, {"time": 5114, "pitch": 52, "duration": 8, "velocity": 79}, {"time": 5120, "pitch": 56, "duration": 9, "velocity": 78}, {"time": 5126, "pitch": 61, "duration": 5, "velocity": 79}, {"time": 5132, "pitch": 49, "duration": 21, "velocity": 83}, {"time": 5132, "pitch": 64, "duration": 8, "velocity": 89}, {"time": 5132, "pitch": 37, "duration": 21, "velocity": 83}, {"time": 5138, "pitch": 61, "duration": 7, "velocity": 82}, {"time": 5144, "pitch": 56, "duration": 9, "velocity": 79}, {"time": 5150, "pitch": 61, "duration": 5, "velocity": 80}, {"time": 5156, "pitch": 47, "duration": 21, "velocity": 83}, {"time": 5156, "pitch": 54, "duration": 4, "velocity": 82}, {"time": 5156, "pitch": 59, "duration": 8, "velocity": 80}, {"time": 5156, "pitch": 35, "duration": 21, "velocity": 83}, {"time": 5162, "pitch": 54, "duration": 13, "velocity": 78}, {"time": 5168, "pitch": 59, "duration": 7, "velocity": 75}, {"time": 5174, "pitch": 63, "duration": 8, "velocity": 88}, {"time": 5180, "pitch": 47, "duration": 21, "velocity": 83}, {"time": 5180, "pitch": 59, "duration": 7, "velocity": 84}, {"time": 5180, "pitch": 35, "duration": 21, "velocity": 83}, {"time": 5186, "pitch": 54, "duration": 6, "velocity": 84}, {"time": 5192, "pitch": 59, "duration": 3, "velocity": 73}, {"time": 5197, "pitch": 54, "duration": 5, "velocity": 71}, {"time": 5204, "pitch": 52, "duration": 4, "velocity": 83}, {"time": 5204, "pitch": 57, "duration": 8, "velocity": 84}, {"time": 5204, "pitch": 45, "duration": 21, "velocity": 83}, {"time": 5205, "pitch": 33, "duration": 20, "velocity": 83}, {"time": 5210, "pitch": 52, "duration": 12, "velocity": 78}, {"time": 5216, "pitch": 57, "duration": 8, "velocity": 74}, {"time": 5222, "pitch": 61, "duration": 12, "velocity": 83}, {"time": 5228, "pitch": 45, "duration": 21, "velocity": 83}, {"time": 5228, "pitch": 57, "duration": 8, "velocity": 79}, {"time": 5228, "pitch": 33, "duration": 21, "velocity": 83}, {"time": 5234, "pitch": 52, "duration": 8, "velocity": 85}, {"time": 5240, "pitch": 57, "duration": 7, "velocity": 92}, {"time": 5246, "pitch": 52, "duration": 4, "velocity": 84}, {"time": 5252, "pitch": 52, "duration": 8, "velocity": 87}, {"time": 5252, "pitch": 56, "duration": 13, "velocity": 86}, {"time": 5253, "pitch": 40, "duration": 7, "velocity": 83}, {"time": 5258, "pitch": 47, "duration": 14, "velocity": 73}, {"time": 5264, "pitch": 52, "duration": 8, "velocity": 84}, {"time": 5270, "pitch": 56, "duration": 4, "velocity": 87}, {"time": 5276, "pitch": 49, "duration": 15, "velocity": 84}, {"time": 5276, "pitch": 56, "duration": 4, "velocity": 77}, {"time": 5276, "pitch": 61, "duration": 8, "velocity": 84}, {"time": 5276, "pitch": 37, "duration": 15, "velocity": 97}, {"time": 5282, "pitch": 56, "duration": 7, "velocity": 77}, {"time": 5288, "pitch": 61, "duration": 4, "velocity": 84}, {"time": 5294, "pitch": 56, "duration": 3, "velocity": 43}, {"time": 5300, "pitch": 54, "duration": 6, "velocity": 83}, {"time": 5300, "pitch": 57, "duration": 15, "velocity": 75}, {"time": 5300, "pitch": 42, "duration": 21, "velocity": 83}, {"time": 5301, "pitch": 30, "duration": 20, "velocity": 83}, {"time": 5306, "pitch": 49, "duration": 37, "velocity": 75}, {"time": 5312, "pitch": 54, "duration": 8, "velocity": 86}, {"time": 5318, "pitch": 61, "duration": 6, "velocity": 84}, {"time": 5324, "pitch": 42, "duration": 21, "velocity": 83}, {"time": 5324, "pitch": 66, "duration": 13, "velocity": 86}, {"time": 5324, "pitch": 30, "duration": 21, "velocity": 83}, {"time": 5330, "pitch": 61, "duration": 8, "velocity": 87}, {"time": 5336, "pitch": 57, "duration": 7, "velocity": 85}, {"time": 5342, "pitch": 54, "duration": 4, "velocity": 82}, {"time": 5348, "pitch": 47, "duration": 21, "velocity": 83}, {"time": 5348, "pitch": 54, "duration": 5, "velocity": 83}, {"time": 5348, "pitch": 59, "duration": 12, "velocity": 83}, {"time": 5349, "pitch": 35, "duration": 20, "velocity": 83}, {"time": 5354, "pitch": 51, "duration": 32, "velocity": 73}, {"time": 5360, "pitch": 54, "duration": 9, "velocity": 88}, {"time": 5366, "pitch": 61, "duration": 5, "velocity": 85}, {"time": 5372, "pitch": 47, "duration": 21, "velocity": 83}, {"time": 5372, "pitch": 63, "duration": 7, "velocity": 83}, {"time": 5372, "pitch": 35, "duration": 21, "velocity": 83}, {"time": 5378, "pitch": 61, "duration": 7, "velocity": 86}, {"time": 5384, "pitch": 59, "duration": 5, "velocity": 85}, {"time": 5396, "pitch": 40, "duration": 45, "velocity": 78}, {"time": 5396, "pitch": 52, "duration": 8, "velocity": 81}, {"time": 5396, "pitch": 56, "duration": 13, "velocity": 75}, {"time": 5402, "pitch": 47, "duration": 39, "velocity": 79}, {"time": 5408, "pitch": 59, "duration": 13, "velocity": 86}, {"time": 5420, "pitch": 64, "duration": 8, "velocity": 92}, {"time": 5426, "pitch": 59, "duration": 8, "velocity": 85}, {"time": 5432, "pitch": 56, "duration": 7, "velocity": 84}, {"time": 5438, "pitch": 59, "duration": 4, "velocity": 84}, {"time": 5444, "pitch": 47, "duration": 41, "velocity": 94}, {"time": 5444, "pitch": 54, "duration": 2, "velocity": 78}, {"time": 5444, "pitch": 59, "duration": 7, "velocity": 87}, {"time": 5450, "pitch": 54, "duration": 6, "velocity": 85}, {"time": 5456, "pitch": 59, "duration": 13, "velocity": 84}, {"time": 5462, "pitch": 54, "duration": 7, "velocity": 83}, {"time": 5468, "pitch": 63, "duration": 7, "velocity": 89}, {"time": 5474, "pitch": 59, "duration": 7, "velocity": 85}, {"time": 5480, "pitch": 54, "duration": 8, "velocity": 82}, {"time": 5486, "pitch": 59, "duration": 7, "velocity": 83}, {"time": 5492, "pitch": 37, "duration": 41, "velocity": 86}, {"time": 5492, "pitch": 61, "duration": 8, "velocity": 83}, {"time": 5498, "pitch": 56, "duration": 9, "velocity": 78}, {"time": 5504, "pitch": 61, "duration": 7, "velocity": 79}, {"time": 5510, "pitch": 64, "duration": 8, "velocity": 86}, {"time": 5516, "pitch": 44, "duration": 18, "velocity": 64}, {"time": 5516, "pitch": 61, "duration": 8, "velocity": 84}, {"time": 5522, "pitch": 56, "duration": 8, "velocity": 82}, {"time": 5528, "pitch": 61, "duration": 7, "velocity": 84}, {"time": 5534, "pitch": 64, "duration": 5, "velocity": 79}, {"time": 5534, "pitch": 66, "duration": 5, "velocity": 78}, {"time": 5540, "pitch": 47, "duration": 41, "velocity": 85}, {"time": 5540, "pitch": 59, "duration": 8, "velocity": 83}, {"time": 5546, "pitch": 54, "duration": 9, "velocity": 84}, {"time": 5552, "pitch": 59, "duration": 6, "velocity": 83}, {"time": 5558, "pitch": 63, "duration": 7, "velocity": 94}, {"time": 5564, "pitch": 59, "duration": 8, "velocity": 84}, {"time": 5570, "pitch": 54, "duration": 6, "velocity": 81}, {"time": 5576, "pitch": 66, "duration": 14, "velocity": 87}, {"time": 5582, "pitch": 54, "duration": 5, "velocity": 85}, {"time": 5588, "pitch": 45, "duration": 44, "velocity": 97}, {"time": 5594, "pitch": 52, "duration": 35, "velocity": 75}, {"time": 5600, "pitch": 57, "duration": 14, "velocity": 83}, {"time": 5606, "pitch": 61, "duration": 7, "velocity": 83}, {"time": 5612, "pitch": 64, "duration": 8, "velocity": 89}, {"time": 5618, "pitch": 61, "duration": 7, "velocity": 85}, {"time": 5624, "pitch": 57, "duration": 7, "velocity": 83}, {"time": 5630, "pitch": 61, "duration": 6, "velocity": 75}, {"time": 5636, "pitch": 44, "duration": 37, "velocity": 84}, {"time": 5636, "pitch": 56, "duration": 8, "velocity": 74}, {"time": 5636, "pitch": 59, "duration": 13, "velocity": 82}, {"time": 5642, "pitch": 51, "duration": 24, "velocity": 78}, {"time": 5648, "pitch": 56, "duration": 10, "velocity": 84}, {"time": 5654, "pitch": 59, "duration": 6, "velocity": 89}, {"time": 5660, "pitch": 63, "duration": 7, "velocity": 94}, {"time": 5666, "pitch": 59, "duration": 7, "velocity": 89}, {"time": 5672, "pitch": 56, "duration": 7, "velocity": 86}, {"time": 5678, "pitch": 59, "duration": 3, "velocity": 84}, {"time": 5684, "pitch": 42, "duration": 46, "velocity": 83}, {"time": 5684, "pitch": 54, "duration": 16, "velocity": 77}, {"time": 5684, "pitch": 57, "duration": 22, "velocity": 79}, {"time": 5690, "pitch": 49, "duration": 34, "velocity": 73}, {"time": 5696, "pitch": 61, "duration": 7, "velocity": 84}, {"time": 5702, "pitch": 66, "duration": 10, "velocity": 85}, {"time": 5708, "pitch": 61, "duration": 8, "velocity": 89}, {"time": 5714, "pitch": 57, "duration": 8, "velocity": 86}, {"time": 5720, "pitch": 54, "duration": 8, "velocity": 84}, {"time": 5726, "pitch": 57, "duration": 4, "velocity": 85}, {"time": 5732, "pitch": 47, "duration": 34, "velocity": 92}, {"time": 5732, "pitch": 54, "duration": 6, "velocity": 80}, {"time": 5732, "pitch": 59, "duration": 13, "velocity": 84}, {"time": 5738, "pitch": 51, "duration": 26, "velocity": 75}, {"time": 5744, "pitch": 54, "duration": 10, "velocity": 87}, {"time": 5750, "pitch": 59, "duration": 6, "velocity": 87}, {"time": 5756, "pitch": 63, "duration": 6, "velocity": 97}, {"time": 5762, "pitch": 59, "duration": 8, "velocity": 84}, {"time": 5768, "pitch": 54, "duration": 3, "velocity": 84}, {"time": 5778, "pitch": 56, "duration": 11, "velocity": 70}, {"time": 5779, "pitch": 61, "duration": 16, "velocity": 76}, {"time": 5780, "pitch": 37, "duration": 4, "velocity": 85}, {"time": 5781, "pitch": 64, "duration": 16, "velocity": 78}, {"time": 5793, "pitch": 49, "duration": 90, "velocity": 71}, {"time": 5799, "pitch": 56, "duration": 43, "velocity": 74}, {"time": 5805, "pitch": 61, "duration": 23, "velocity": 77}, {"time": 5811, "pitch": 64, "duration": 16, "velocity": 85}, {"time": 5817, "pitch": 68, "duration": 10, "velocity": 83}, {"time": 5824, "pitch": 73, "duration": 66, "velocity": 92}, {"time": 5831, "pitch": 68, "duration": 2, "velocity": 70}, {"time": 5839, "pitch": 61, "duration": 35, "velocity": 76}, {"time": 5840, "pitch": 68, "duration": 1, "velocity": 62}, {"time": 5848, "pitch": 56, "duration": 31, "velocity": 58}, {"time": 5862, "pitch": 64, "duration": 3, "velocity": 73}, {"time": 5862, "pitch": 68, "duration": 29, "velocity": 78}, {"time": 5874, "pitch": 64, "duration": 17, "velocity": 67}, {"time": 5923, "pitch": 42, "duration": 18, "velocity": 83}, {"time": 5929, "pitch": 49, "duration": 12, "velocity": 77}, {"time": 5933, "pitch": 54, "duration": 52, "velocity": 76}, {"time": 5937, "pitch": 57, "duration": 49, "velocity": 78}, {"time": 5941, "pitch": 61, "duration": 46, "velocity": 76}, {"time": 5947, "pitch": 66, "duration": 40, "velocity": 70}, {"time": 5985, "pitch": 35, "duration": 12, "velocity": 82}, {"time": 5995, "pitch": 47, "duration": 73, "velocity": 83}, {"time": 6001, "pitch": 54, "duration": 65, "velocity": 73}, {"time": 6004, "pitch": 59, "duration": 4, "velocity": 71}, {"time": 6008, "pitch": 61, "duration": 3, "velocity": 75}, {"time": 6012, "pitch": 63, "duration": 6, "velocity": 82}, {"time": 6017, "pitch": 66, "duration": 6, "velocity": 73}, {"time": 6022, "pitch": 71, "duration": 5, "velocity": 76}, {"time": 6028, "pitch": 73, "duration": 29, "velocity": 79}, {"time": 6060, "pitch": 75, "duration": 12, "velocity": 79}, {"time": 6104, "pitch": 72, "duration": 6, "velocity": 69}, {"time": 6106, "pitch": 75, "duration": 4, "velocity": 83}, {"time": 6106, "pitch": 36, "duration": 60, "velocity": 84}, {"time": 6107, "pitch": 79, "duration": 3, "velocity": 72}, {"time": 6108, "pitch": 84, "duration": 5, "velocity": 76}, {"time": 6115, "pitch": 43, "duration": 51, "velocity": 84}, {"time": 6123, "pitch": 48, "duration": 14, "velocity": 84}, {"time": 6129, "pitch": 52, "duration": 11, "velocity": 76}, {"time": 6136, "pitch": 55, "duration": 7, "velocity": 72}, {"time": 6142, "pitch": 60, "duration": 14, "velocity": 75}, {"time": 6149, "pitch": 52, "duration": 15, "velocity": 71}, {"time": 6155, "pitch": 48, "duration": 8, "velocity": 83}, {"time": 6161, "pitch": 60, "duration": 18, "velocity": 79}, {"time": 6167, "pitch": 48, "duration": 13, "velocity": 77}, {"time": 6172, "pitch": 52, "duration": 20, "velocity": 80}, {"time": 6178, "pitch": 55, "duration": 7, "velocity": 73}, {"time": 6184, "pitch": 60, "duration": 25, "velocity": 76}, {"time": 6191, "pitch": 48, "duration": 13, "velocity": 65}, {"time": 6199, "pitch": 52, "duration": 7, "velocity": 64}, {"time": 6231, "pitch": 40, "duration": 96, "velocity": 85}, {"time": 6238, "pitch": 47, "duration": 86, "velocity": 65}, {"time": 6242, "pitch": 52, "duration": 4, "velocity": 73}, {"time": 6246, "pitch": 54, "duration": 3, "velocity": 73}, {"time": 6250, "pitch": 56, "duration": 4, "velocity": 74}, {"time": 6255, "pitch": 59, "duration": 4, "velocity": 79}, {"time": 6259, "pitch": 64, "duration": 3, "velocity": 79}, {"time": 6263, "pitch": 66, "duration": 3, "velocity": 77}, {"time": 6269, "pitch": 68, "duration": 5, "velocity": 78}, {"time": 6274, "pitch": 71, "duration": 5, "velocity": 71}, {"time": 6280, "pitch": 76, "duration": 6, "velocity": 58}, {"time": 6286, "pitch": 71, "duration": 8, "velocity": 69}, {"time": 6293, "pitch": 68, "duration": 6, "velocity": 57}, {"time": 6304, "pitch": 64, "duration": 4, "velocity": 57}, {"time": 6339, "pitch": 40, "duration": 30, "velocity": 47}, {"time": 6344, "pitch": 47, "duration": 24, "velocity": 49}, {"time": 6346, "pitch": 52, "duration": 25, "velocity": 51}, {"time": 6349, "pitch": 59, "duration": 23, "velocity": 60}, {"time": 6350, "pitch": 56, "duration": 21, "velocity": 60}], "annotations": [{"time": 82, "annotation": {"number": 64, "value": 127}, "group": "control_change"}, {"time": 117, "annotation": {"number": 64, "value": 0}, "group": "control_change"}, {"time": 121, "annotation": {"number": 64, "value": 127}, "group": "control_change"}, {"time": 163, "annotation": {"number": 64, "value": 0}, "group": "control_change"}, {"time": 166, "annotation": {"number": 64, "value": 127}, "group": "control_change"}, {"time": 209, "annotation": {"number": 64, "value": 0}, "group": "control_change"}, {"time": 212, "annotation": {"number": 64, "value": 127}, "group": "control_change"}, {"time": 260, "annotation": {"number": 64, "value": 0}, "group": "control_change"}, {"time": 263, "annotation": {"number": 64, "value": 127}, "group": "control_change"}, {"time": 307, "annotation": {"number": 64, "value": 0}, "group": "control_change"}, {"time": 309, "annotation": {"number": 64, "value": 127}, "group": "control_change"}, {"time": 361, "annotation": {"number": 64, "value": 127}, "group": "control_change"}, {"time": 401, "annotation": {"number": 64, "value": 0}, "group": "control_change"}, {"time": 406, "annotation": {"number": 64, "value": 127}, "group": "control_change"}, {"time": 406, "annotation": {"number": 64, "value": 0}, "group": "control_change"}, {"time": 448, "annotation": {"number": 64, "value": 0}, "group": "control_change"}, {"time": 451, "annotation": {"number": 64, "value": 127}, "group": "control_change"}, {"time": 498, "annotation": {"number": 64, "value": 0}, "group": "control_change"}, {"time": 499, "annotation": {"number": 64, "value": 127}, "group": "control_change"}, {"time": 549, "annotation": {"number": 64, "value": 0}, "group": "control_change"}, {"time": 552, "annotation": {"number": 64, "value": 127}, "group": "control_change"}, {"time": 595, "annotation": {"number": 64, "value": 0}, "group": "control_change"}, {"time": 601, "annotation": {"number": 64, "value": 127}, "group": "control_change"}, {"time": 641, "annotation": {"number": 64, "value": 0}, "group": "control_change"}, {"time": 646, "annotation": {"number": 64, "value": 127}, "group": "control_change"}, {"time": 691, "annotation": {"number": 64, "value": 0}, "group": "control_change"}, {"time": 693, "annotation": {"number": 64, "value": 127}, "group": "control_change"}, {"time": 737, "annotation": {"number": 64, "value": 0}, "group": "control_change"}, {"time": 745, "annotation": {"number": 64, "value": 127}, "group": "control_change"}, {"time": 786, "annotation": {"number": 64, "value": 0}, "group": "control_change"}, {"time": 790, "annotation": {"number": 64, "value": 127}, "group": "control_change"}, {"time": 836, "annotation": {"number": 64, "value": 0}, "group": "control_change"}, {"time": 840, "annotation": {"number": 64, "value": 127}, "group": "control_change"}, {"time": 883, "annotation": {"number": 64, "value": 0}, "group": "control_change"}, {"time": 887, "annotation": {"number": 64, "value": 127}, "group": "control_change"}, {"time": 931, "annotation": {"number": 64, "value": 0}, "group": "control_change"}, {"time": 934, "annotation": {"number": 64, "value": 127}, "group": "control_change"}, {"time": 976, "annotation": {"number": 64, "value": 0}, "group": "control_change"}, {"time": 979, "annotation": {"number": 64, "value": 127}, "group": "control_change"}, {"time": 1026, "annotation": {"number": 64, "value": 0}, "group": "control_change"}, {"time": 1030, "annotation": {"number": 64, "value": 127}, "group": "control_change"}, {"time": 1073, "annotation": {"number": 64, "value": 0}, "group": "control_change"}, {"time": 1076, "annotation": {"number": 64, "value": 127}, "group": "control_change"}, {"time": 1121, "annotation": {"number": 64, "value": 0}, "group": "control_change"}, {"time": 1125, "annotation": {"number": 64, "value": 127}, "group": "control_change"}, {"time": 1170, "annotation": {"number": 64, "value": 0}, "group": "control_change"}, {"time": 1175, "annotation": {"number": 64, "value": 127}, "group": "control_change"}, {"time": 1219, "annotation": {"number": 64, "value": 0}, "group": "control_change"}, {"time": 1224, "annotation": {"number": 64, "value": 127}, "group": "control_change"}, {"time": 1268, "annotation": {"number": 64, "value": 0}, "group": "control_change"}, {"time": 1270, "annotation": {"number": 64, "value": 127}, "group": "control_change"}, {"time": 1314, "annotation": {"number": 64, "value": 0}, "group": "control_change"}, {"time": 1317, "annotation": {"number": 64, "value": 127}, "group": "control_change"}, {"time": 1363, "annotation": {"number": 64, "value": 0}, "group": "control_change"}, {"time": 1366, "annotation": {"number": 64, "value": 127}, "group": "control_change"}, {"time": 1410, "annotation": {"number": 64, "value": 0}, "group": "control_change"}, {"time": 1414, "annotation": {"number": 64, "value": 127}, "group": "control_change"}, {"time": 1459, "annotation": {"number": 64, "value": 0}, "group": "control_change"}, {"time": 1466, "annotation": {"number": 64, "value": 127}, "group": "control_change"}, {"time": 1506, "annotation": {"number": 64, "value": 0}, "group": "control_change"}, {"time": 1509, "annotation": {"number": 64, "value": 127}, "group": "control_change"}, {"time": 1555, "annotation": {"number": 64, "value": 0}, "group": "control_change"}, {"time": 1557, "annotation": {"number": 64, "value": 127}, "group": "control_change"}, {"time": 1602, "annotation": {"number": 64, "value": 0}, "group": "control_change"}, {"time": 1612, "annotation": {"number": 64, "value": 127}, "group": "control_change"}, {"time": 1650, "annotation": {"number": 64, "value": 0}, "group": "control_change"}, {"time": 1653, "annotation": {"number": 64, "value": 127}, "group": "control_change"}, {"time": 1698, "annotation": {"number": 64, "value": 0}, "group": "control_change"}, {"time": 1702, "annotation": {"number": 64, "value": 127}, "group": "control_change"}, {"time": 1746, "annotation": {"number": 64, "value": 0}, "group": "control_change"}, {"time": 1749, "annotation": {"number": 64, "value": 127}, "group": "control_change"}, {"time": 1794, "annotation": {"number": 64, "value": 0}, "group": "control_change"}, {"time": 1798, "annotation": {"number": 64, "value": 127}, "group": "control_change"}, {"time": 1844, "annotation": {"number": 64, "value": 0}, "group": "control_change"}, {"time": 1848, "annotation": {"number": 64, "value": 127}, "group": "control_change"}, {"time": 1868, "annotation": {"number": 64, "value": 0}, "group": "control_change"}, {"time": 1869, "annotation": {"number": 64, "value": 127}, "group": "control_change"}, {"time": 1892, "annotation": {"number": 64, "value": 0}, "group": "control_change"}, {"time": 1897, "annotation": {"number": 64, "value": 127}, "group": "control_change"}, {"time": 1938, "annotation": {"number": 64, "value": 0}, "group": "control_change"}, {"time": 1942, "annotation": {"number": 64, "value": 127}, "group": "control_change"}, {"time": 1988, "annotation": {"number": 64, "value": 0}, "group": "control_change"}, {"time": 1996, "annotation": {"number": 64, "value": 127}, "group": "control_change"}, {"time": 2035, "annotation": {"number": 64, "value": 0}, "group": "control_change"}, {"time": 2038, "annotation": {"number": 64, "value": 127}, "group": "control_change"}, {"time": 2082, "annotation": {"number": 64, "value": 0}, "group": "control_change"}, {"time": 2085, "annotation": {"number": 64, "value": 127}, "group": "control_change"}, {"time": 2131, "annotation": {"number": 64, "value": 0}, "group": "control_change"}, {"time": 2132, "annotation": {"number": 64, "value": 127}, "group": "control_change"}, {"time": 2177, "annotation": {"number": 64, "value": 0}, "group": "control_change"}, {"time": 2181, "annotation": {"number": 64, "value": 127}, "group": "control_change"}, {"time": 2226, "annotation": {"number": 64, "value": 0}, "group": "control_change"}, {"time": 2230, "annotation": {"number": 64, "value": 127}, "group": "control_change"}, {"time": 2273, "annotation": {"number": 64, "value": 0}, "group": "control_change"}, {"time": 2277, "annotation": {"number": 64, "value": 127}, "group": "control_change"}, {"time": 2322, "annotation": {"number": 64, "value": 0}, "group": "control_change"}, {"time": 2325, "annotation": {"number": 64, "value": 127}, "group": "control_change"}, {"time": 2369, "annotation": {"number": 64, "value": 0}, "group": "control_change"}, {"time": 2373, "annotation": {"number": 64, "value": 127}, "group": "control_change"}, {"time": 2424, "annotation": {"number": 64, "value": 0}, "group": "control_change"}, {"time": 2426, "annotation": {"number": 64, "value": 127}, "group": "control_change"}, {"time": 2463, "annotation": {"number": 64, "value": 0}, "group": "control_change"}, {"time": 2466, "annotation": {"number": 64, "value": 127}, "group": "control_change"}, {"time": 2471, "annotation": {"number": 64, "value": 127}, "group": "control_change"}, {"time": 2471, "annotation": {"number": 64, "value": 0}, "group": "control_change"}, {"time": 2494, "annotation": {"number": 64, "value": 0}, "group": "control_change"}, {"time": 2523, "annotation": {"number": 64, "value": 127}, "group": "control_change"}, {"time": 2561, "annotation": {"number": 64, "value": 0}, "group": "control_change"}, {"time": 2566, "annotation": {"number": 64, "value": 127}, "group": "control_change"}, {"time": 2608, "annotation": {"number": 64, "value": 0}, "group": "control_change"}, {"time": 2612, "annotation": {"number": 64, "value": 127}, "group": "control_change"}, {"time": 2656, "annotation": {"number": 64, "value": 0}, "group": "control_change"}, {"time": 2661, "annotation": {"number": 64, "value": 127}, "group": "control_change"}, {"time": 2706, "annotation": {"number": 64, "value": 0}, "group": "control_change"}, {"time": 2708, "annotation": {"number": 64, "value": 127}, "group": "control_change"}, {"time": 2754, "annotation": {"number": 64, "value": 0}, "group": "control_change"}, {"time": 2758, "annotation": {"number": 64, "value": 127}, "group": "control_change"}, {"time": 2799, "annotation": {"number": 64, "value": 0}, "group": "control_change"}, {"time": 2808, "annotation": {"number": 64, "value": 127}, "group": "control_change"}, {"time": 2848, "annotation": {"number": 64, "value": 0}, "group": "control_change"}, {"time": 2852, "annotation": {"number": 64, "value": 127}, "group": "control_change"}, {"time": 2899, "annotation": {"number": 64, "value": 0}, "group": "control_change"}, {"time": 2903, "annotation": {"number": 64, "value": 127}, "group": "control_change"}, {"time": 2946, "annotation": {"number": 64, "value": 0}, "group": "control_change"}, {"time": 2949, "annotation": {"number": 64, "value": 127}, "group": "control_change"}, {"time": 2971, "annotation": {"number": 64, "value": 0}, "group": "control_change"}, {"time": 2975, "annotation": {"number": 64, "value": 127}, "group": "control_change"}, {"time": 2993, "annotation": {"number": 64, "value": 0}, "group": "control_change"}, {"time": 2996, "annotation": {"number": 64, "value": 127}, "group": "control_change"}, {"time": 3019, "annotation": {"number": 64, "value": 0}, "group": "control_change"}, {"time": 3023, "annotation": {"number": 64, "value": 127}, "group": "control_change"}, {"time": 3042, "annotation": {"number": 64, "value": 0}, "group": "control_change"}, {"time": 3046, "annotation": {"number": 64, "value": 127}, "group": "control_change"}, {"time": 3091, "annotation": {"number": 64, "value": 0}, "group": "control_change"}, {"time": 3093, "annotation": {"number": 64, "value": 127}, "group": "control_change"}, {"time": 3137, "annotation": {"number": 64, "value": 0}, "group": "control_change"}, {"time": 3141, "annotation": {"number": 64, "value": 127}, "group": "control_change"}, {"time": 3186, "annotation": {"number": 64, "value": 0}, "group": "control_change"}, {"time": 3188, "annotation": {"number": 64, "value": 127}, "group": "control_change"}, {"time": 3234, "annotation": {"number": 64, "value": 0}, "group": "control_change"}, {"time": 3237, "annotation": {"number": 64, "value": 127}, "group": "control_change"}, {"time": 3377, "annotation": {"number": 64, "value": 0}, "group": "control_change"}, {"time": 3384, "annotation": {"number": 64, "value": 127}, "group": "control_change"}, {"time": 3427, "annotation": {"number": 64, "value": 0}, "group": "control_change"}, {"time": 3431, "annotation": {"number": 64, "value": 127}, "group": "control_change"}, {"time": 3475, "annotation": {"number": 64, "value": 0}, "group": "control_change"}, {"time": 3478, "annotation": {"number": 64, "value": 127}, "group": "control_change"}, {"time": 3520, "annotation": {"number": 64, "value": 0}, "group": "control_change"}, {"time": 3523, "annotation": {"number": 64, "value": 127}, "group": "control_change"}, {"time": 3570, "annotation": {"number": 64, "value": 0}, "group": "control_change"}, {"time": 3574, "annotation": {"number": 64, "value": 127}, "group": "control_change"}, {"time": 3617, "annotation": {"number": 64, "value": 0}, "group": "control_change"}, {"time": 3620, "annotation": {"number": 64, "value": 127}, "group": "control_change"}, {"time": 3665, "annotation": {"number": 64, "value": 0}, "group": "control_change"}, {"time": 3669, "annotation": {"number": 64, "value": 127}, "group": "control_change"}, {"time": 3714, "annotation": {"number": 64, "value": 0}, "group": "control_change"}, {"time": 3719, "annotation": {"number": 64, "value": 127}, "group": "control_change"}, {"time": 3763, "annotation": {"number": 64, "value": 0}, "group": "control_change"}, {"time": 3768, "annotation": {"number": 64, "value": 127}, "group": "control_change"}, {"time": 3812, "annotation": {"number": 64, "value": 0}, "group": "control_change"}, {"time": 3814, "annotation": {"number": 64, "value": 127}, "group": "control_change"}, {"time": 3858, "annotation": {"number": 64, "value": 0}, "group": "control_change"}, {"time": 3861, "annotation": {"number": 64, "value": 127}, "group": "control_change"}, {"time": 3907, "annotation": {"number": 64, "value": 0}, "group": "control_change"}, {"time": 3910, "annotation": {"number": 64, "value": 127}, "group": "control_change"}, {"time": 3954, "annotation": {"number": 64, "value": 0}, "group": "control_change"}, {"time": 3958, "annotation": {"number": 64, "value": 127}, "group": "control_change"}, {"time": 4003, "annotation": {"number": 64, "value": 0}, "group": "control_change"}, {"time": 4010, "annotation": {"number": 64, "value": 127}, "group": "control_change"}, {"time": 4050, "annotation": {"number": 64, "value": 0}, "group": "control_change"}, {"time": 4053, "annotation": {"number": 64, "value": 127}, "group": "control_change"}, {"time": 4099, "annotation": {"number": 64, "value": 0}, "group": "control_change"}, {"time": 4101, "annotation": {"number": 64, "value": 127}, "group": "control_change"}, {"time": 4146, "annotation": {"number": 64, "value": 0}, "group": "control_change"}, {"time": 4156, "annotation": {"number": 64, "value": 127}, "group": "control_change"}, {"time": 4194, "annotation": {"number": 64, "value": 0}, "group": "control_change"}, {"time": 4197, "annotation": {"number": 64, "value": 127}, "group": "control_change"}, {"time": 4242, "annotation": {"number": 64, "value": 0}, "group": "control_change"}, {"time": 4246, "annotation": {"number": 64, "value": 127}, "group": "control_change"}, {"time": 4290, "annotation": {"number": 64, "value": 0}, "group": "control_change"}, {"time": 4293, "annotation": {"number": 64, "value": 127}, "group": "control_change"}, {"time": 4338, "annotation": {"number": 64, "value": 0}, "group": "control_change"}, {"time": 4342, "annotation": {"number": 64, "value": 127}, "group": "control_change"}, {"time": 4388, "annotation": {"number": 64, "value": 0}, "group": "control_change"}, {"time": 4392, "annotation": {"number": 64, "value": 127}, "group": "control_change"}, {"time": 4412, "annotation": {"number": 64, "value": 0}, "group": "control_change"}, {"time": 4413, "annotation": {"number": 64, "value": 127}, "group": "control_change"}, {"time": 4436, "annotation": {"number": 64, "value": 0}, "group": "control_change"}, {"time": 4441, "annotation": {"number": 64, "value": 127}, "group": "control_change"}, {"time": 4482, "annotation": {"number": 64, "value": 0}, "group": "control_change"}, {"time": 4486, "annotation": {"number": 64, "value": 127}, "group": "control_change"}, {"time": 4532, "annotation": {"number": 64, "value": 0}, "group": "control_change"}, {"time": 4540, "annotation": {"number": 64, "value": 127}, "group": "control_change"}, {"time": 4579, "annotation": {"number": 64, "value": 0}, "group": "control_change"}, {"time": 4582, "annotation": {"number": 64, "value": 127}, "group": "control_change"}, {"time": 4626, "annotation": {"number": 64, "value": 0}, "group": "control_change"}, {"time": 4629, "annotation": {"number": 64, "value": 127}, "group": "control_change"}, {"time": 4675, "annotation": {"number": 64, "value": 0}, "group": "control_change"}, {"time": 4676, "annotation": {"number": 64, "value": 127}, "group": "control_change"}, {"time": 4721, "annotation": {"number": 64, "value": 0}, "group": "control_change"}, {"time": 4725, "annotation": {"number": 64, "value": 127}, "group": "control_change"}, {"time": 4770, "annotation": {"number": 64, "value": 0}, "group": "control_change"}, {"time": 4774, "annotation": {"number": 64, "value": 127}, "group": "control_change"}, {"time": 4817, "annotation": {"number": 64, "value": 0}, "group": "control_change"}, {"time": 4821, "annotation": {"number": 64, "value": 127}, "group": "control_change"}, {"time": 4866, "annotation": {"number": 64, "value": 0}, "group": "control_change"}, {"time": 4869, "annotation": {"number": 64, "value": 127}, "group": "control_change"}, {"time": 4913, "annotation": {"number": 64, "value": 0}, "group": "control_change"}, {"time": 4915, "annotation": {"number": 64, "value": 127}, "group": "control_change"}, {"time": 4962, "annotation": {"number": 64, "value": 0}, "group": "control_change"}, {"time": 4964, "annotation": {"number": 64, "value": 127}, "group": "control_change"}, {"time": 5007, "annotation": {"number": 64, "value": 0}, "group": "control_change"}, {"time": 5020, "annotation": {"number": 64, "value": 127}, "group": "control_change"}, {"time": 5058, "annotation": {"number": 64, "value": 0}, "group": "control_change"}, {"time": 5061, "annotation": {"number": 64, "value": 127}, "group": "control_change"}, {"time": 5106, "annotation": {"number": 64, "value": 0}, "group": "control_change"}, {"time": 5110, "annotation": {"number": 64, "value": 127}, "group": "control_change"}, {"time": 5154, "annotation": {"number": 64, "value": 0}, "group": "control_change"}, {"time": 5157, "annotation": {"number": 64, "value": 127}, "group": "control_change"}, {"time": 5202, "annotation": {"number": 64, "value": 0}, "group": "control_change"}, {"time": 5206, "annotation": {"number": 64, "value": 127}, "group": "control_change"}, {"time": 5252, "annotation": {"number": 64, "value": 0}, "group": "control_change"}, {"time": 5256, "annotation": {"number": 64, "value": 127}, "group": "control_change"}, {"time": 5276, "annotation": {"number": 64, "value": 0}, "group": "control_change"}, {"time": 5277, "annotation": {"number": 64, "value": 127}, "group": "control_change"}, {"time": 5300, "annotation": {"number": 64, "value": 0}, "group": "control_change"}, {"time": 5305, "annotation": {"number": 64, "value": 127}, "group": "control_change"}, {"time": 5346, "annotation": {"number": 64, "value": 0}, "group": "control_change"}, {"time": 5350, "annotation": {"number": 64, "value": 127}, "group": "control_change"}, {"time": 5396, "annotation": {"number": 64, "value": 0}, "group": "control_change"}, {"time": 5404, "annotation": {"number": 64, "value": 127}, "group": "control_change"}, {"time": 5443, "annotation": {"number": 64, "value": 0}, "group": "control_change"}, {"time": 5446, "annotation": {"number": 64, "value": 127}, "group": "control_change"}, {"time": 5490, "annotation": {"number": 64, "value": 0}, "group": "control_change"}, {"time": 5493, "annotation": {"number": 64, "value": 127}, "group": "control_change"}, {"time": 5539, "annotation": {"number": 64, "value": 0}, "group": "control_change"}, {"time": 5540, "annotation": {"number": 64, "value": 127}, "group": "control_change"}, {"time": 5585, "annotation": {"number": 64, "value": 0}, "group": "control_change"}, {"time": 5589, "annotation": {"number": 64, "value": 127}, "group": "control_change"}, {"time": 5634, "annotation": {"number": 64, "value": 0}, "group": "control_change"}, {"time": 5638, "annotation": {"number": 64, "value": 127}, "group": "control_change"}, {"time": 5681, "annotation": {"number": 64, "value": 0}, "group": "control_change"}, {"time": 5685, "annotation": {"number": 64, "value": 127}, "group": "control_change"}, {"time": 5730, "annotation": {"number": 64, "value": 0}, "group": "control_change"}, {"time": 5733, "annotation": {"number": 64, "value": 127}, "group": "control_change"}, {"time": 5777, "annotation": {"number": 64, "value": 0}, "group": "control_change"}, {"time": 5779, "annotation": {"number": 64, "value": 127}, "group": "control_change"}, {"time": 5924, "annotation": {"number": 64, "value": 0}, "group": "control_change"}, {"time": 5932, "annotation": {"number": 64, "value": 127}, "group": "control_change"}, {"time": 5987, "annotation": {"number": 64, "value": 0}, "group": "control_change"}, {"time": 5989, "annotation": {"number": 64, "value": 127}, "group": "control_change"}, {"time": 6102, "annotation": {"number": 64, "value": 0}, "group": "control_change"}, {"time": 6108, "annotation": {"number": 64, "value": 127}, "group": "control_change"}, {"time": 6231, "annotation": {"number": 64, "value": 0}, "group": "control_change"}, {"time": 6241, "annotation": {"number": 64, "value": 127}, "group": "control_change"}, {"time": 6426, "annotation": {"number": 64, "value": 0}, "group": "control_change"}]}]}