{"metadata": {"schema_version": "0.2", "title": "None", "source_filename": "671.mid", "source_format": "midi"}, "resolution": 12, "tempos": [{"time": 0, "qpm": 70.00007000007}, {"time": 2502, "qpm": 70.25020782353148}, {"time": 2686, "qpm": 70.00007000007}, {"time": 2728, "qpm": 69.75008544385467}, {"time": 2733, "qpm": 69.50010888350391}, {"time": 2759, "qpm": 70.00007000007}, {"time": 2766, "qpm": 70.25020782353148}, {"time": 2770, "qpm": 70.50006873756702}, {"time": 2786, "qpm": 69.75008544385467}, {"time": 2789, "qpm": 68.75010026056287}, {"time": 2793, "qpm": 67.5000675000675}, {"time": 2807, "qpm": 67.00002903334591}, {"time": 2811, "qpm": 66.50004710420004}, {"time": 2817, "qpm": 65.50003820835562}, {"time": 2839, "qpm": 68.25006825006825}, {"time": 2844, "qpm": 70.00007000007}], "time_signatures": [{"time": 0, "numerator": 1, "denominator": 4}], "tracks": [{"program": 0, "is_drum": false, "name": "MELODY", "notes": [{"time": 631, "pitch": 61, "duration": 12, "velocity": 87}, {"time": 643, "pitch": 63, "duration": 7, "velocity": 82}, {"time": 649, "pitch": 66, "duration": 6, "velocity": 87}, {"time": 655, "pitch": 68, "duration": 10, "velocity": 81}, {"time": 667, "pitch": 68, "duration": 7, "velocity": 81}, {"time": 673, "pitch": 70, "duration": 7, "velocity": 82}, {"time": 679, "pitch": 68, "duration": 24, "velocity": 81}, {"time": 703, "pitch": 66, "duration": 6, "velocity": 83}, {"time": 709, "pitch": 63, "duration": 5, "velocity": 67}, {"time": 715, "pitch": 63, "duration": 10, "velocity": 82}, {"time": 727, "pitch": 63, "duration": 5, "velocity": 82}, {"time": 733, "pitch": 63, "duration": 5, "velocity": 81}, {"time": 739, "pitch": 66, "duration": 5, "velocity": 81}, {"time": 745, "pitch": 68, "duration": 5, "velocity": 81}, {"time": 751, "pitch": 70, "duration": 11, "velocity": 80}, {"time": 763, "pitch": 70, "duration": 6, "velocity": 84}, {"time": 769, "pitch": 68, "duration": 5, "velocity": 67}, {"time": 775, "pitch": 68, "duration": 45, "velocity": 76}, {"time": 823, "pitch": 61, "duration": 12, "velocity": 87}, {"time": 835, "pitch": 63, "duration": 7, "velocity": 82}, {"time": 841, "pitch": 66, "duration": 6, "velocity": 87}, {"time": 847, "pitch": 68, "duration": 10, "velocity": 81}, {"time": 859, "pitch": 68, "duration": 7, "velocity": 81}, {"time": 865, "pitch": 73, "duration": 7, "velocity": 82}, {"time": 871, "pitch": 70, "duration": 24, "velocity": 81}, {"time": 895, "pitch": 68, "duration": 5, "velocity": 83}, {"time": 901, "pitch": 66, "duration": 5, "velocity": 77}, {"time": 907, "pitch": 66, "duration": 10, "velocity": 82}, {"time": 919, "pitch": 63, "duration": 12, "velocity": 82}, {"time": 931, "pitch": 63, "duration": 5, "velocity": 81}, {"time": 937, "pitch": 66, "duration": 5, "velocity": 81}, {"time": 943, "pitch": 66, "duration": 11, "velocity": 80}, {"time": 955, "pitch": 66, "duration": 13, "velocity": 84}, {"time": 967, "pitch": 63, "duration": 45, "velocity": 76}, {"time": 1015, "pitch": 61, "duration": 12, "velocity": 87}, {"time": 1027, "pitch": 63, "duration": 7, "velocity": 82}, {"time": 1033, "pitch": 66, "duration": 6, "velocity": 87}, {"time": 1039, "pitch": 68, "duration": 10, "velocity": 81}, {"time": 1051, "pitch": 68, "duration": 7, "velocity": 81}, {"time": 1057, "pitch": 70, "duration": 7, "velocity": 82}, {"time": 1063, "pitch": 68, "duration": 24, "velocity": 81}, {"time": 1087, "pitch": 66, "duration": 7, "velocity": 83}, {"time": 1094, "pitch": 63, "duration": 4, "velocity": 67}, {"time": 1099, "pitch": 63, "duration": 10, "velocity": 82}, {"time": 1111, "pitch": 63, "duration": 5, "velocity": 82}, {"time": 1117, "pitch": 63, "duration": 5, "velocity": 81}, {"time": 1123, "pitch": 66, "duration": 5, "velocity": 81}, {"time": 1129, "pitch": 68, "duration": 5, "velocity": 81}, {"time": 1135, "pitch": 70, "duration": 11, "velocity": 80}, {"time": 1147, "pitch": 70, "duration": 6, "velocity": 84}, {"time": 1153, "pitch": 68, "duration": 5, "velocity": 70}, {"time": 1159, "pitch": 68, "duration": 45, "velocity": 76}, {"time": 1207, "pitch": 61, "duration": 12, "velocity": 87}, {"time": 1219, "pitch": 63, "duration": 7, "velocity": 82}, {"time": 1225, "pitch": 66, "duration": 6, "velocity": 87}, {"time": 1231, "pitch": 68, "duration": 10, "velocity": 81}, {"time": 1243, "pitch": 68, "duration": 7, "velocity": 81}, {"time": 1249, "pitch": 73, "duration": 7, "velocity": 82}, {"time": 1255, "pitch": 70, "duration": 24, "velocity": 81}, {"time": 1279, "pitch": 68, "duration": 5, "velocity": 83}, {"time": 1285, "pitch": 66, "duration": 4, "velocity": 74}, {"time": 1291, "pitch": 66, "duration": 10, "velocity": 82}, {"time": 1303, "pitch": 63, "duration": 12, "velocity": 82}, {"time": 1315, "pitch": 63, "duration": 5, "velocity": 81}, {"time": 1321, "pitch": 66, "duration": 5, "velocity": 81}, {"time": 1327, "pitch": 66, "duration": 11, "velocity": 80}, {"time": 1339, "pitch": 66, "duration": 6, "velocity": 84}, {"time": 1345, "pitch": 63, "duration": 5, "velocity": 65}, {"time": 1351, "pitch": 63, "duration": 45, "velocity": 76}, {"time": 1927, "pitch": 61, "duration": 12, "velocity": 87}, {"time": 1939, "pitch": 63, "duration": 7, "velocity": 82}, {"time": 1945, "pitch": 66, "duration": 6, "velocity": 87}, {"time": 1951, "pitch": 68, "duration": 10, "velocity": 81}, {"time": 1963, "pitch": 68, "duration": 7, "velocity": 81}, {"time": 1969, "pitch": 70, "duration": 7, "velocity": 82}, {"time": 1975, "pitch": 68, "duration": 24, "velocity": 81}, {"time": 1999, "pitch": 66, "duration": 7, "velocity": 83}, {"time": 2006, "pitch": 63, "duration": 4, "velocity": 70}, {"time": 2011, "pitch": 63, "duration": 10, "velocity": 82}, {"time": 2023, "pitch": 63, "duration": 5, "velocity": 82}, {"time": 2029, "pitch": 63, "duration": 5, "velocity": 81}, {"time": 2035, "pitch": 66, "duration": 5, "velocity": 81}, {"time": 2041, "pitch": 68, "duration": 5, "velocity": 81}, {"time": 2047, "pitch": 70, "duration": 11, "velocity": 80}, {"time": 2059, "pitch": 70, "duration": 7, "velocity": 84}, {"time": 2065, "pitch": 68, "duration": 5, "velocity": 70}, {"time": 2071, "pitch": 68, "duration": 45, "velocity": 76}, {"time": 2119, "pitch": 61, "duration": 12, "velocity": 87}, {"time": 2131, "pitch": 63, "duration": 7, "velocity": 82}, {"time": 2137, "pitch": 66, "duration": 6, "velocity": 87}, {"time": 2143, "pitch": 68, "duration": 10, "velocity": 81}, {"time": 2155, "pitch": 68, "duration": 7, "velocity": 81}, {"time": 2161, "pitch": 73, "duration": 7, "velocity": 82}, {"time": 2167, "pitch": 70, "duration": 24, "velocity": 81}, {"time": 2191, "pitch": 68, "duration": 6, "velocity": 83}, {"time": 2197, "pitch": 66, "duration": 6, "velocity": 74}, {"time": 2203, "pitch": 66, "duration": 10, "velocity": 82}, {"time": 2215, "pitch": 63, "duration": 12, "velocity": 82}, {"time": 2227, "pitch": 63, "duration": 5, "velocity": 81}, {"time": 2233, "pitch": 66, "duration": 5, "velocity": 81}, {"time": 2239, "pitch": 66, "duration": 11, "velocity": 80}, {"time": 2251, "pitch": 66, "duration": 6, "velocity": 84}, {"time": 2257, "pitch": 63, "duration": 5, "velocity": 70}, {"time": 2263, "pitch": 63, "duration": 45, "velocity": 76}, {"time": 2311, "pitch": 61, "duration": 12, "velocity": 87}, {"time": 2323, "pitch": 63, "duration": 7, "velocity": 82}, {"time": 2329, "pitch": 66, "duration": 6, "velocity": 87}, {"time": 2335, "pitch": 68, "duration": 10, "velocity": 81}, {"time": 2347, "pitch": 68, "duration": 7, "velocity": 81}, {"time": 2353, "pitch": 70, "duration": 7, "velocity": 82}, {"time": 2359, "pitch": 68, "duration": 24, "velocity": 81}, {"time": 2383, "pitch": 66, "duration": 7, "velocity": 83}, {"time": 2389, "pitch": 63, "duration": 5, "velocity": 79}, {"time": 2395, "pitch": 63, "duration": 10, "velocity": 82}, {"time": 2407, "pitch": 63, "duration": 5, "velocity": 82}, {"time": 2413, "pitch": 63, "duration": 5, "velocity": 81}, {"time": 2419, "pitch": 66, "duration": 5, "velocity": 81}, {"time": 2425, "pitch": 68, "duration": 5, "velocity": 81}, {"time": 2431, "pitch": 70, "duration": 11, "velocity": 80}, {"time": 2443, "pitch": 70, "duration": 7, "velocity": 84}, {"time": 2450, "pitch": 68, "duration": 4, "velocity": 71}, {"time": 2455, "pitch": 68, "duration": 45, "velocity": 76}, {"time": 2503, "pitch": 61, "duration": 12, "velocity": 87}, {"time": 2515, "pitch": 63, "duration": 7, "velocity": 82}, {"time": 2521, "pitch": 66, "duration": 6, "velocity": 87}, {"time": 2527, "pitch": 68, "duration": 10, "velocity": 81}, {"time": 2539, "pitch": 68, "duration": 7, "velocity": 81}, {"time": 2545, "pitch": 73, "duration": 7, "velocity": 82}, {"time": 2551, "pitch": 70, "duration": 24, "velocity": 81}, {"time": 2575, "pitch": 68, "duration": 7, "velocity": 83}, {"time": 2581, "pitch": 66, "duration": 6, "velocity": 76}, {"time": 2587, "pitch": 66, "duration": 10, "velocity": 82}, {"time": 2599, "pitch": 63, "duration": 12, "velocity": 82}, {"time": 2611, "pitch": 63, "duration": 5, "velocity": 81}, {"time": 2617, "pitch": 66, "duration": 5, "velocity": 81}, {"time": 2623, "pitch": 66, "duration": 11, "velocity": 80}, {"time": 2635, "pitch": 66, "duration": 7, "velocity": 84}, {"time": 2641, "pitch": 63, "duration": 5, "velocity": 78}, {"time": 2647, "pitch": 63, "duration": 45, "velocity": 76}, {"time": 2839, "pitch": 61, "duration": 12, "velocity": 87}, {"time": 2851, "pitch": 63, "duration": 7, "velocity": 82}, {"time": 2857, "pitch": 66, "duration": 6, "velocity": 87}, {"time": 2863, "pitch": 68, "duration": 10, "velocity": 81}, {"time": 2875, "pitch": 68, "duration": 7, "velocity": 81}, {"time": 2881, "pitch": 70, "duration": 7, "velocity": 82}, {"time": 2887, "pitch": 68, "duration": 24, "velocity": 81}, {"time": 2911, "pitch": 66, "duration": 6, "velocity": 83}, {"time": 2918, "pitch": 63, "duration": 4, "velocity": 73}, {"time": 2923, "pitch": 63, "duration": 10, "velocity": 82}, {"time": 2935, "pitch": 63, "duration": 5, "velocity": 82}, {"time": 2941, "pitch": 63, "duration": 5, "velocity": 81}, {"time": 2947, "pitch": 66, "duration": 5, "velocity": 81}, {"time": 2953, "pitch": 68, "duration": 5, "velocity": 81}, {"time": 2959, "pitch": 70, "duration": 11, "velocity": 80}, {"time": 2971, "pitch": 70, "duration": 7, "velocity": 84}, {"time": 2977, "pitch": 68, "duration": 5, "velocity": 79}, {"time": 2983, "pitch": 68, "duration": 45, "velocity": 76}, {"time": 3031, "pitch": 61, "duration": 12, "velocity": 87}, {"time": 3043, "pitch": 63, "duration": 7, "velocity": 82}, {"time": 3049, "pitch": 66, "duration": 6, "velocity": 87}, {"time": 3055, "pitch": 68, "duration": 10, "velocity": 81}, {"time": 3067, "pitch": 68, "duration": 7, "velocity": 81}, {"time": 3073, "pitch": 73, "duration": 7, "velocity": 82}, {"time": 3079, "pitch": 70, "duration": 24, "velocity": 81}, {"time": 3103, "pitch": 68, "duration": 7, "velocity": 83}, {"time": 3109, "pitch": 66, "duration": 4, "velocity": 71}, {"time": 3115, "pitch": 66, "duration": 10, "velocity": 82}, {"time": 3127, "pitch": 63, "duration": 12, "velocity": 82}, {"time": 3139, "pitch": 63, "duration": 5, "velocity": 81}, {"time": 3145, "pitch": 66, "duration": 5, "velocity": 81}, {"time": 3151, "pitch": 66, "duration": 11, "velocity": 80}, {"time": 3163, "pitch": 66, "duration": 6, "velocity": 84}, {"time": 3169, "pitch": 63, "duration": 5, "velocity": 97}, {"time": 3175, "pitch": 63, "duration": 45, "velocity": 76}, {"time": 3223, "pitch": 61, "duration": 12, "velocity": 87}, {"time": 3235, "pitch": 63, "duration": 7, "velocity": 82}, {"time": 3241, "pitch": 66, "duration": 6, "velocity": 87}, {"time": 3247, "pitch": 68, "duration": 10, "velocity": 81}, {"time": 3259, "pitch": 68, "duration": 7, "velocity": 81}, {"time": 3265, "pitch": 73, "duration": 7, "velocity": 82}, {"time": 3271, "pitch": 70, "duration": 24, "velocity": 81}, {"time": 3295, "pitch": 68, "duration": 6, "velocity": 83}, {"time": 3301, "pitch": 66, "duration": 5, "velocity": 65}, {"time": 3307, "pitch": 66, "duration": 10, "velocity": 82}, {"time": 3319, "pitch": 63, "duration": 12, "velocity": 82}, {"time": 3331, "pitch": 63, "duration": 5, "velocity": 81}, {"time": 3337, "pitch": 66, "duration": 5, "velocity": 81}, {"time": 3345, "pitch": 66, "duration": 10, "velocity": 84}, {"time": 3358, "pitch": 66, "duration": 6, "velocity": 85}, {"time": 3364, "pitch": 63, "duration": 3, "velocity": 81}, {"time": 3369, "pitch": 63, "duration": 46, "velocity": 81}]}, {"program": 0, "is_drum": false, "name": "PIANO", "notes": [{"time": 197, "pitch": 61, "duration": 4, "velocity": 63}, {"time": 198, "pitch": 66, "duration": 5, "velocity": 71}, {"time": 198, "pitch": 42, "duration": 6, "velocity": 72}, {"time": 199, "pitch": 70, "duration": 6, "velocity": 66}, {"time": 210, "pitch": 61, "duration": 9, "velocity": 68}, {"time": 211, "pitch": 65, "duration": 10, "velocity": 73}, {"time": 211, "pitch": 41, "duration": 7, "velocity": 75}, {"time": 213, "pitch": 68, "duration": 7, "velocity": 53}, {"time": 223, "pitch": 63, "duration": 4, "velocity": 67}, {"time": 223, "pitch": 39, "duration": 14, "velocity": 78}, {"time": 223, "pitch": 66, "duration": 7, "velocity": 73}, {"time": 229, "pitch": 63, "duration": 13, "velocity": 65}, {"time": 236, "pitch": 66, "duration": 6, "velocity": 67}, {"time": 236, "pitch": 70, "duration": 7, "velocity": 69}, {"time": 247, "pitch": 44, "duration": 18, "velocity": 80}, {"time": 253, "pitch": 56, "duration": 9, "velocity": 80}, {"time": 258, "pitch": 59, "duration": 4, "velocity": 64}, {"time": 258, "pitch": 63, "duration": 5, "velocity": 67}, {"time": 259, "pitch": 68, "duration": 5, "velocity": 67}, {"time": 270, "pitch": 58, "duration": 2, "velocity": 60}, {"time": 271, "pitch": 63, "duration": 7, "velocity": 67}, {"time": 271, "pitch": 39, "duration": 11, "velocity": 71}, {"time": 271, "pitch": 66, "duration": 8, "velocity": 73}, {"time": 277, "pitch": 58, "duration": 8, "velocity": 67}, {"time": 283, "pitch": 66, "duration": 3, "velocity": 67}, {"time": 283, "pitch": 63, "duration": 2, "velocity": 62}, {"time": 293, "pitch": 59, "duration": 10, "velocity": 65}, {"time": 294, "pitch": 63, "duration": 14, "velocity": 72}, {"time": 295, "pitch": 47, "duration": 41, "velocity": 71}, {"time": 295, "pitch": 66, "duration": 13, "velocity": 60}, {"time": 301, "pitch": 54, "duration": 35, "velocity": 67}, {"time": 307, "pitch": 59, "duration": 21, "velocity": 74}, {"time": 312, "pitch": 63, "duration": 16, "velocity": 77}, {"time": 318, "pitch": 66, "duration": 9, "velocity": 66}, {"time": 331, "pitch": 66, "duration": 5, "velocity": 67}, {"time": 331, "pitch": 63, "duration": 3, "velocity": 71}, {"time": 331, "pitch": 59, "duration": 3, "velocity": 56}, {"time": 343, "pitch": 51, "duration": 46, "velocity": 80}, {"time": 343, "pitch": 66, "duration": 13, "velocity": 68}, {"time": 343, "pitch": 63, "duration": 9, "velocity": 63}, {"time": 349, "pitch": 58, "duration": 9, "velocity": 65}, {"time": 355, "pitch": 63, "duration": 9, "velocity": 81}, {"time": 361, "pitch": 58, "duration": 7, "velocity": 64}, {"time": 367, "pitch": 63, "duration": 8, "velocity": 69}, {"time": 367, "pitch": 66, "duration": 7, "velocity": 67}, {"time": 373, "pitch": 58, "duration": 15, "velocity": 59}, {"time": 379, "pitch": 70, "duration": 10, "velocity": 79}, {"time": 379, "pitch": 63, "duration": 10, "velocity": 71}, {"time": 391, "pitch": 42, "duration": 8, "velocity": 81}, {"time": 391, "pitch": 58, "duration": 6, "velocity": 69}, {"time": 391, "pitch": 61, "duration": 6, "velocity": 75}, {"time": 391, "pitch": 66, "duration": 11, "velocity": 75}, {"time": 403, "pitch": 41, "duration": 8, "velocity": 82}, {"time": 403, "pitch": 56, "duration": 6, "velocity": 72}, {"time": 403, "pitch": 61, "duration": 7, "velocity": 79}, {"time": 403, "pitch": 65, "duration": 7, "velocity": 80}, {"time": 415, "pitch": 39, "duration": 15, "velocity": 76}, {"time": 415, "pitch": 58, "duration": 4, "velocity": 71}, {"time": 415, "pitch": 63, "duration": 8, "velocity": 75}, {"time": 421, "pitch": 58, "duration": 8, "velocity": 68}, {"time": 427, "pitch": 63, "duration": 4, "velocity": 80}, {"time": 427, "pitch": 66, "duration": 6, "velocity": 79}, {"time": 439, "pitch": 44, "duration": 18, "velocity": 77}, {"time": 439, "pitch": 56, "duration": 13, "velocity": 74}, {"time": 439, "pitch": 63, "duration": 9, "velocity": 74}, {"time": 445, "pitch": 51, "duration": 11, "velocity": 70}, {"time": 451, "pitch": 59, "duration": 6, "velocity": 74}, {"time": 451, "pitch": 63, "duration": 7, "velocity": 78}, {"time": 451, "pitch": 68, "duration": 6, "velocity": 74}, {"time": 457, "pitch": 56, "duration": 1, "velocity": 81}, {"time": 463, "pitch": 51, "duration": 15, "velocity": 78}, {"time": 463, "pitch": 58, "duration": 4, "velocity": 69}, {"time": 463, "pitch": 63, "duration": 9, "velocity": 76}, {"time": 469, "pitch": 58, "duration": 7, "velocity": 72}, {"time": 475, "pitch": 63, "duration": 4, "velocity": 80}, {"time": 475, "pitch": 66, "duration": 6, "velocity": 77}, {"time": 487, "pitch": 42, "duration": 23, "velocity": 80}, {"time": 487, "pitch": 58, "duration": 4, "velocity": 74}, {"time": 487, "pitch": 61, "duration": 9, "velocity": 74}, {"time": 493, "pitch": 49, "duration": 16, "velocity": 72}, {"time": 499, "pitch": 61, "duration": 9, "velocity": 80}, {"time": 499, "pitch": 66, "duration": 8, "velocity": 80}, {"time": 505, "pitch": 58, "duration": 7, "velocity": 64}, {"time": 511, "pitch": 42, "duration": 20, "velocity": 75}, {"time": 511, "pitch": 61, "duration": 10, "velocity": 72}, {"time": 511, "pitch": 66, "duration": 11, "velocity": 76}, {"time": 517, "pitch": 58, "duration": 7, "velocity": 76}, {"time": 523, "pitch": 65, "duration": 11, "velocity": 86}, {"time": 529, "pitch": 58, "duration": 4, "velocity": 81}, {"time": 533, "pitch": 58, "duration": 19, "velocity": 53}, {"time": 534, "pitch": 63, "duration": 18, "velocity": 69}, {"time": 534, "pitch": 39, "duration": 44, "velocity": 82}, {"time": 535, "pitch": 66, "duration": 18, "velocity": 73}, {"time": 577, "pitch": 58, "duration": 44, "velocity": 82}, {"time": 582, "pitch": 63, "duration": 46, "velocity": 72}, {"time": 583, "pitch": 39, "duration": 41, "velocity": 82}, {"time": 583, "pitch": 66, "duration": 37, "velocity": 76}, {"time": 625, "pitch": 58, "duration": 5, "velocity": 70}, {"time": 631, "pitch": 42, "duration": 18, "velocity": 78}, {"time": 631, "pitch": 61, "duration": 9, "velocity": 75}, {"time": 637, "pitch": 49, "duration": 11, "velocity": 61}, {"time": 643, "pitch": 58, "duration": 7, "velocity": 74}, {"time": 643, "pitch": 61, "duration": 7, "velocity": 73}, {"time": 649, "pitch": 54, "duration": 6, "velocity": 81}, {"time": 655, "pitch": 49, "duration": 14, "velocity": 82}, {"time": 655, "pitch": 61, "duration": 9, "velocity": 80}, {"time": 661, "pitch": 56, "duration": 8, "velocity": 71}, {"time": 667, "pitch": 65, "duration": 3, "velocity": 80}, {"time": 679, "pitch": 44, "duration": 16, "velocity": 78}, {"time": 679, "pitch": 63, "duration": 14, "velocity": 75}, {"time": 685, "pitch": 51, "duration": 9, "velocity": 73}, {"time": 691, "pitch": 59, "duration": 5, "velocity": 81}, {"time": 703, "pitch": 51, "duration": 13, "velocity": 80}, {"time": 703, "pitch": 63, "duration": 13, "velocity": 75}, {"time": 709, "pitch": 58, "duration": 7, "velocity": 75}, {"time": 715, "pitch": 66, "duration": 7, "velocity": 80}, {"time": 721, "pitch": 58, "duration": 5, "velocity": 75}, {"time": 727, "pitch": 47, "duration": 15, "velocity": 77}, {"time": 727, "pitch": 59, "duration": 1, "velocity": 55}, {"time": 727, "pitch": 63, "duration": 13, "velocity": 74}, {"time": 733, "pitch": 54, "duration": 9, "velocity": 71}, {"time": 739, "pitch": 59, "duration": 4, "velocity": 81}, {"time": 751, "pitch": 42, "duration": 15, "velocity": 80}, {"time": 751, "pitch": 58, "duration": 12, "velocity": 71}, {"time": 751, "pitch": 61, "duration": 19, "velocity": 76}, {"time": 757, "pitch": 49, "duration": 8, "velocity": 71}, {"time": 763, "pitch": 66, "duration": 13, "velocity": 80}, {"time": 769, "pitch": 58, "duration": 4, "velocity": 80}, {"time": 775, "pitch": 49, "duration": 19, "velocity": 80}, {"time": 775, "pitch": 65, "duration": 12, "velocity": 81}, {"time": 781, "pitch": 56, "duration": 7, "velocity": 81}, {"time": 787, "pitch": 63, "duration": 8, "velocity": 81}, {"time": 793, "pitch": 56, "duration": 4, "velocity": 82}, {"time": 799, "pitch": 49, "duration": 15, "velocity": 80}, {"time": 799, "pitch": 61, "duration": 7, "velocity": 75}, {"time": 805, "pitch": 56, "duration": 3, "velocity": 67}, {"time": 811, "pitch": 56, "duration": 3, "velocity": 79}, {"time": 811, "pitch": 61, "duration": 4, "velocity": 78}, {"time": 811, "pitch": 65, "duration": 4, "velocity": 80}, {"time": 823, "pitch": 42, "duration": 16, "velocity": 80}, {"time": 823, "pitch": 58, "duration": 11, "velocity": 77}, {"time": 823, "pitch": 66, "duration": 8, "velocity": 77}, {"time": 829, "pitch": 49, "duration": 9, "velocity": 66}, {"time": 835, "pitch": 61, "duration": 7, "velocity": 81}, {"time": 835, "pitch": 66, "duration": 6, "velocity": 79}, {"time": 841, "pitch": 58, "duration": 2, "velocity": 75}, {"time": 847, "pitch": 49, "duration": 14, "velocity": 80}, {"time": 847, "pitch": 56, "duration": 4, "velocity": 78}, {"time": 847, "pitch": 61, "duration": 8, "velocity": 75}, {"time": 847, "pitch": 65, "duration": 9, "velocity": 81}, {"time": 853, "pitch": 56, "duration": 4, "velocity": 72}, {"time": 859, "pitch": 56, "duration": 2, "velocity": 81}, {"time": 859, "pitch": 61, "duration": 2, "velocity": 77}, {"time": 871, "pitch": 39, "duration": 16, "velocity": 81}, {"time": 871, "pitch": 63, "duration": 7, "velocity": 80}, {"time": 871, "pitch": 66, "duration": 8, "velocity": 76}, {"time": 877, "pitch": 58, "duration": 7, "velocity": 74}, {"time": 883, "pitch": 63, "duration": 6, "velocity": 82}, {"time": 883, "pitch": 66, "duration": 9, "velocity": 80}, {"time": 889, "pitch": 58, "duration": 2, "velocity": 72}, {"time": 895, "pitch": 44, "duration": 17, "velocity": 73}, {"time": 895, "pitch": 59, "duration": 9, "velocity": 71}, {"time": 895, "pitch": 63, "duration": 9, "velocity": 74}, {"time": 901, "pitch": 51, "duration": 11, "velocity": 71}, {"time": 907, "pitch": 59, "duration": 7, "velocity": 74}, {"time": 907, "pitch": 63, "duration": 5, "velocity": 76}, {"time": 913, "pitch": 56, "duration": 2, "velocity": 80}, {"time": 919, "pitch": 47, "duration": 21, "velocity": 80}, {"time": 919, "pitch": 59, "duration": 7, "velocity": 75}, {"time": 925, "pitch": 54, "duration": 7, "velocity": 84}, {"time": 931, "pitch": 63, "duration": 7, "velocity": 81}, {"time": 937, "pitch": 54, "duration": 19, "velocity": 84}, {"time": 943, "pitch": 47, "duration": 20, "velocity": 77}, {"time": 943, "pitch": 61, "duration": 3, "velocity": 72}, {"time": 943, "pitch": 63, "duration": 8, "velocity": 73}, {"time": 949, "pitch": 59, "duration": 7, "velocity": 78}, {"time": 955, "pitch": 63, "duration": 10, "velocity": 80}, {"time": 961, "pitch": 54, "duration": 3, "velocity": 82}, {"time": 967, "pitch": 39, "duration": 36, "velocity": 82}, {"time": 967, "pitch": 58, "duration": 3, "velocity": 78}, {"time": 967, "pitch": 66, "duration": 7, "velocity": 76}, {"time": 973, "pitch": 58, "duration": 7, "velocity": 79}, {"time": 979, "pitch": 63, "duration": 7, "velocity": 82}, {"time": 979, "pitch": 66, "duration": 7, "velocity": 85}, {"time": 985, "pitch": 58, "duration": 7, "velocity": 74}, {"time": 991, "pitch": 63, "duration": 8, "velocity": 80}, {"time": 991, "pitch": 66, "duration": 8, "velocity": 81}, {"time": 997, "pitch": 58, "duration": 7, "velocity": 79}, {"time": 1003, "pitch": 41, "duration": 12, "velocity": 84}, {"time": 1003, "pitch": 63, "duration": 11, "velocity": 80}, {"time": 1003, "pitch": 66, "duration": 11, "velocity": 83}, {"time": 1009, "pitch": 58, "duration": 6, "velocity": 84}, {"time": 1015, "pitch": 42, "duration": 18, "velocity": 78}, {"time": 1015, "pitch": 61, "duration": 9, "velocity": 75}, {"time": 1021, "pitch": 49, "duration": 11, "velocity": 61}, {"time": 1027, "pitch": 58, "duration": 7, "velocity": 74}, {"time": 1027, "pitch": 61, "duration": 7, "velocity": 73}, {"time": 1033, "pitch": 54, "duration": 6, "velocity": 81}, {"time": 1039, "pitch": 49, "duration": 14, "velocity": 82}, {"time": 1039, "pitch": 61, "duration": 9, "velocity": 80}, {"time": 1045, "pitch": 56, "duration": 8, "velocity": 71}, {"time": 1051, "pitch": 65, "duration": 3, "velocity": 80}, {"time": 1063, "pitch": 44, "duration": 16, "velocity": 78}, {"time": 1063, "pitch": 63, "duration": 14, "velocity": 75}, {"time": 1069, "pitch": 51, "duration": 9, "velocity": 73}, {"time": 1075, "pitch": 59, "duration": 5, "velocity": 81}, {"time": 1087, "pitch": 51, "duration": 13, "velocity": 80}, {"time": 1087, "pitch": 63, "duration": 13, "velocity": 75}, {"time": 1093, "pitch": 58, "duration": 7, "velocity": 75}, {"time": 1099, "pitch": 66, "duration": 7, "velocity": 80}, {"time": 1105, "pitch": 58, "duration": 5, "velocity": 75}, {"time": 1111, "pitch": 47, "duration": 15, "velocity": 77}, {"time": 1111, "pitch": 59, "duration": 1, "velocity": 55}, {"time": 1111, "pitch": 63, "duration": 13, "velocity": 74}, {"time": 1117, "pitch": 54, "duration": 9, "velocity": 71}, {"time": 1123, "pitch": 59, "duration": 4, "velocity": 81}, {"time": 1135, "pitch": 42, "duration": 15, "velocity": 80}, {"time": 1135, "pitch": 58, "duration": 12, "velocity": 71}, {"time": 1135, "pitch": 61, "duration": 19, "velocity": 76}, {"time": 1141, "pitch": 49, "duration": 8, "velocity": 71}, {"time": 1147, "pitch": 66, "duration": 13, "velocity": 80}, {"time": 1153, "pitch": 58, "duration": 4, "velocity": 80}, {"time": 1159, "pitch": 49, "duration": 19, "velocity": 80}, {"time": 1159, "pitch": 65, "duration": 12, "velocity": 81}, {"time": 1165, "pitch": 56, "duration": 7, "velocity": 81}, {"time": 1171, "pitch": 63, "duration": 8, "velocity": 81}, {"time": 1177, "pitch": 56, "duration": 4, "velocity": 82}, {"time": 1183, "pitch": 49, "duration": 15, "velocity": 80}, {"time": 1183, "pitch": 61, "duration": 7, "velocity": 75}, {"time": 1189, "pitch": 56, "duration": 3, "velocity": 67}, {"time": 1195, "pitch": 56, "duration": 3, "velocity": 79}, {"time": 1195, "pitch": 61, "duration": 4, "velocity": 78}, {"time": 1195, "pitch": 65, "duration": 4, "velocity": 80}, {"time": 1207, "pitch": 42, "duration": 16, "velocity": 80}, {"time": 1207, "pitch": 58, "duration": 11, "velocity": 77}, {"time": 1207, "pitch": 66, "duration": 8, "velocity": 77}, {"time": 1213, "pitch": 49, "duration": 9, "velocity": 66}, {"time": 1219, "pitch": 61, "duration": 7, "velocity": 81}, {"time": 1219, "pitch": 66, "duration": 6, "velocity": 79}, {"time": 1225, "pitch": 58, "duration": 2, "velocity": 75}, {"time": 1231, "pitch": 44, "duration": 24, "velocity": 80}, {"time": 1237, "pitch": 51, "duration": 18, "velocity": 80}, {"time": 1243, "pitch": 59, "duration": 11, "velocity": 80}, {"time": 1243, "pitch": 63, "duration": 11, "velocity": 84}, {"time": 1249, "pitch": 56, "duration": 6, "velocity": 87}, {"time": 1255, "pitch": 39, "duration": 16, "velocity": 81}, {"time": 1255, "pitch": 63, "duration": 7, "velocity": 80}, {"time": 1255, "pitch": 66, "duration": 8, "velocity": 76}, {"time": 1261, "pitch": 58, "duration": 7, "velocity": 74}, {"time": 1267, "pitch": 63, "duration": 6, "velocity": 82}, {"time": 1267, "pitch": 66, "duration": 9, "velocity": 80}, {"time": 1273, "pitch": 58, "duration": 2, "velocity": 72}, {"time": 1279, "pitch": 44, "duration": 17, "velocity": 73}, {"time": 1279, "pitch": 59, "duration": 9, "velocity": 71}, {"time": 1279, "pitch": 63, "duration": 9, "velocity": 74}, {"time": 1285, "pitch": 51, "duration": 11, "velocity": 71}, {"time": 1291, "pitch": 59, "duration": 7, "velocity": 74}, {"time": 1291, "pitch": 63, "duration": 5, "velocity": 76}, {"time": 1297, "pitch": 56, "duration": 2, "velocity": 80}, {"time": 1303, "pitch": 47, "duration": 21, "velocity": 80}, {"time": 1303, "pitch": 59, "duration": 7, "velocity": 75}, {"time": 1309, "pitch": 54, "duration": 7, "velocity": 84}, {"time": 1315, "pitch": 63, "duration": 7, "velocity": 81}, {"time": 1321, "pitch": 54, "duration": 19, "velocity": 84}, {"time": 1327, "pitch": 47, "duration": 20, "velocity": 77}, {"time": 1327, "pitch": 61, "duration": 3, "velocity": 72}, {"time": 1327, "pitch": 63, "duration": 8, "velocity": 73}, {"time": 1333, "pitch": 59, "duration": 7, "velocity": 78}, {"time": 1339, "pitch": 63, "duration": 10, "velocity": 80}, {"time": 1345, "pitch": 54, "duration": 3, "velocity": 82}, {"time": 1351, "pitch": 39, "duration": 36, "velocity": 82}, {"time": 1351, "pitch": 58, "duration": 3, "velocity": 78}, {"time": 1351, "pitch": 66, "duration": 7, "velocity": 76}, {"time": 1357, "pitch": 58, "duration": 7, "velocity": 79}, {"time": 1363, "pitch": 63, "duration": 7, "velocity": 82}, {"time": 1363, "pitch": 66, "duration": 7, "velocity": 85}, {"time": 1369, "pitch": 58, "duration": 7, "velocity": 74}, {"time": 1375, "pitch": 63, "duration": 8, "velocity": 80}, {"time": 1375, "pitch": 66, "duration": 8, "velocity": 81}, {"time": 1381, "pitch": 58, "duration": 7, "velocity": 79}, {"time": 1387, "pitch": 41, "duration": 12, "velocity": 84}, {"time": 1387, "pitch": 63, "duration": 11, "velocity": 80}, {"time": 1387, "pitch": 66, "duration": 11, "velocity": 83}, {"time": 1393, "pitch": 58, "duration": 6, "velocity": 84}, {"time": 1399, "pitch": 39, "duration": 40, "velocity": 82}, {"time": 1399, "pitch": 58, "duration": 4, "velocity": 74}, {"time": 1399, "pitch": 63, "duration": 8, "velocity": 75}, {"time": 1399, "pitch": 66, "duration": 8, "velocity": 77}, {"time": 1405, "pitch": 58, "duration": 5, "velocity": 66}, {"time": 1411, "pitch": 63, "duration": 3, "velocity": 82}, {"time": 1411, "pitch": 66, "duration": 5, "velocity": 86}, {"time": 1417, "pitch": 58, "duration": 3, "velocity": 80}, {"time": 1423, "pitch": 58, "duration": 2, "velocity": 80}, {"time": 1423, "pitch": 63, "duration": 8, "velocity": 83}, {"time": 1423, "pitch": 66, "duration": 8, "velocity": 80}, {"time": 1429, "pitch": 58, "duration": 4, "velocity": 79}, {"time": 1435, "pitch": 58, "duration": 3, "velocity": 81}, {"time": 1435, "pitch": 63, "duration": 3, "velocity": 87}, {"time": 1435, "pitch": 66, "duration": 5, "velocity": 80}, {"time": 1441, "pitch": 37, "duration": 7, "velocity": 79}, {"time": 1441, "pitch": 56, "duration": 6, "velocity": 80}, {"time": 1441, "pitch": 61, "duration": 6, "velocity": 77}, {"time": 1447, "pitch": 47, "duration": 22, "velocity": 84}, {"time": 1447, "pitch": 59, "duration": 10, "velocity": 74}, {"time": 1447, "pitch": 63, "duration": 10, "velocity": 77}, {"time": 1453, "pitch": 54, "duration": 10, "velocity": 46}, {"time": 1459, "pitch": 59, "duration": 7, "velocity": 80}, {"time": 1459, "pitch": 63, "duration": 7, "velocity": 81}, {"time": 1459, "pitch": 66, "duration": 7, "velocity": 80}, {"time": 1465, "pitch": 54, "duration": 5, "velocity": 65}, {"time": 1468, "pitch": 59, "duration": 5, "velocity": 81}, {"time": 1468, "pitch": 63, "duration": 7, "velocity": 82}, {"time": 1471, "pitch": 47, "duration": 15, "velocity": 81}, {"time": 1474, "pitch": 54, "duration": 12, "velocity": 69}, {"time": 1477, "pitch": 59, "duration": 4, "velocity": 81}, {"time": 1483, "pitch": 59, "duration": 4, "velocity": 82}, {"time": 1483, "pitch": 63, "duration": 5, "velocity": 82}, {"time": 1483, "pitch": 66, "duration": 5, "velocity": 78}, {"time": 1489, "pitch": 47, "duration": 3, "velocity": 81}, {"time": 1495, "pitch": 46, "duration": 22, "velocity": 80}, {"time": 1495, "pitch": 58, "duration": 10, "velocity": 74}, {"time": 1495, "pitch": 61, "duration": 10, "velocity": 77}, {"time": 1501, "pitch": 53, "duration": 17, "velocity": 66}, {"time": 1507, "pitch": 58, "duration": 3, "velocity": 81}, {"time": 1507, "pitch": 65, "duration": 3, "velocity": 84}, {"time": 1516, "pitch": 66, "duration": 4, "velocity": 79}, {"time": 1519, "pitch": 46, "duration": 21, "velocity": 80}, {"time": 1519, "pitch": 65, "duration": 4, "velocity": 81}, {"time": 1522, "pitch": 61, "duration": 5, "velocity": 80}, {"time": 1525, "pitch": 58, "duration": 5, "velocity": 83}, {"time": 1531, "pitch": 58, "duration": 6, "velocity": 81}, {"time": 1531, "pitch": 61, "duration": 5, "velocity": 83}, {"time": 1531, "pitch": 65, "duration": 6, "velocity": 85}, {"time": 1537, "pitch": 53, "duration": 4, "velocity": 76}, {"time": 1543, "pitch": 47, "duration": 22, "velocity": 81}, {"time": 1543, "pitch": 59, "duration": 10, "velocity": 74}, {"time": 1543, "pitch": 63, "duration": 9, "velocity": 76}, {"time": 1549, "pitch": 54, "duration": 15, "velocity": 55}, {"time": 1555, "pitch": 59, "duration": 5, "velocity": 81}, {"time": 1555, "pitch": 63, "duration": 6, "velocity": 81}, {"time": 1555, "pitch": 66, "duration": 6, "velocity": 78}, {"time": 1564, "pitch": 59, "duration": 2, "velocity": 68}, {"time": 1567, "pitch": 47, "duration": 20, "velocity": 80}, {"time": 1567, "pitch": 59, "duration": 8, "velocity": 75}, {"time": 1567, "pitch": 63, "duration": 10, "velocity": 80}, {"time": 1567, "pitch": 66, "duration": 9, "velocity": 77}, {"time": 1573, "pitch": 54, "duration": 8, "velocity": 64}, {"time": 1576, "pitch": 59, "duration": 2, "velocity": 75}, {"time": 1579, "pitch": 59, "duration": 5, "velocity": 80}, {"time": 1579, "pitch": 63, "duration": 6, "velocity": 83}, {"time": 1579, "pitch": 66, "duration": 6, "velocity": 81}, {"time": 1585, "pitch": 54, "duration": 3, "velocity": 67}, {"time": 1585, "pitch": 65, "duration": 6, "velocity": 68}, {"time": 1591, "pitch": 46, "duration": 22, "velocity": 81}, {"time": 1591, "pitch": 58, "duration": 8, "velocity": 73}, {"time": 1591, "pitch": 61, "duration": 7, "velocity": 75}, {"time": 1597, "pitch": 53, "duration": 8, "velocity": 67}, {"time": 1603, "pitch": 58, "duration": 6, "velocity": 81}, {"time": 1603, "pitch": 61, "duration": 7, "velocity": 83}, {"time": 1603, "pitch": 65, "duration": 7, "velocity": 84}, {"time": 1609, "pitch": 53, "duration": 4, "velocity": 62}, {"time": 1612, "pitch": 58, "duration": 2, "velocity": 72}, {"time": 1615, "pitch": 46, "duration": 18, "velocity": 81}, {"time": 1615, "pitch": 58, "duration": 3, "velocity": 75}, {"time": 1615, "pitch": 61, "duration": 4, "velocity": 74}, {"time": 1618, "pitch": 53, "duration": 7, "velocity": 76}, {"time": 1621, "pitch": 58, "duration": 2, "velocity": 80}, {"time": 1624, "pitch": 58, "duration": 4, "velocity": 83}, {"time": 1624, "pitch": 65, "duration": 6, "velocity": 82}, {"time": 1627, "pitch": 53, "duration": 6, "velocity": 84}, {"time": 1630, "pitch": 61, "duration": 3, "velocity": 85}, {"time": 1633, "pitch": 58, "duration": 2, "velocity": 80}, {"time": 1639, "pitch": 44, "duration": 22, "velocity": 80}, {"time": 1639, "pitch": 56, "duration": 8, "velocity": 80}, {"time": 1639, "pitch": 59, "duration": 7, "velocity": 61}, {"time": 1639, "pitch": 63, "duration": 7, "velocity": 79}, {"time": 1645, "pitch": 51, "duration": 15, "velocity": 59}, {"time": 1651, "pitch": 56, "duration": 3, "velocity": 80}, {"time": 1651, "pitch": 68, "duration": 3, "velocity": 80}, {"time": 1654, "pitch": 63, "duration": 3, "velocity": 78}, {"time": 1657, "pitch": 59, "duration": 4, "velocity": 78}, {"time": 1660, "pitch": 56, "duration": 2, "velocity": 81}, {"time": 1663, "pitch": 44, "duration": 18, "velocity": 80}, {"time": 1663, "pitch": 56, "duration": 3, "velocity": 72}, {"time": 1663, "pitch": 59, "duration": 7, "velocity": 72}, {"time": 1663, "pitch": 63, "duration": 7, "velocity": 79}, {"time": 1666, "pitch": 51, "duration": 8, "velocity": 70}, {"time": 1669, "pitch": 56, "duration": 2, "velocity": 75}, {"time": 1672, "pitch": 56, "duration": 3, "velocity": 82}, {"time": 1672, "pitch": 59, "duration": 5, "velocity": 83}, {"time": 1672, "pitch": 63, "duration": 6, "velocity": 81}, {"time": 1675, "pitch": 51, "duration": 6, "velocity": 75}, {"time": 1678, "pitch": 56, "duration": 3, "velocity": 85}, {"time": 1678, "pitch": 63, "duration": 1, "velocity": 51}, {"time": 1681, "pitch": 59, "duration": 2, "velocity": 81}, {"time": 1687, "pitch": 51, "duration": 18, "velocity": 81}, {"time": 1687, "pitch": 58, "duration": 3, "velocity": 76}, {"time": 1687, "pitch": 63, "duration": 7, "velocity": 80}, {"time": 1693, "pitch": 58, "duration": 2, "velocity": 69}, {"time": 1699, "pitch": 58, "duration": 5, "velocity": 82}, {"time": 1699, "pitch": 66, "duration": 5, "velocity": 83}, {"time": 1705, "pitch": 65, "duration": 2, "velocity": 81}, {"time": 1708, "pitch": 66, "duration": 4, "velocity": 81}, {"time": 1711, "pitch": 51, "duration": 9, "velocity": 85}, {"time": 1711, "pitch": 65, "duration": 4, "velocity": 85}, {"time": 1714, "pitch": 63, "duration": 4, "velocity": 79}, {"time": 1717, "pitch": 58, "duration": 3, "velocity": 76}, {"time": 1723, "pitch": 51, "duration": 5, "velocity": 86}, {"time": 1723, "pitch": 58, "duration": 3, "velocity": 82}, {"time": 1723, "pitch": 63, "duration": 5, "velocity": 82}, {"time": 1726, "pitch": 58, "duration": 1, "velocity": 73}, {"time": 1735, "pitch": 47, "duration": 23, "velocity": 83}, {"time": 1735, "pitch": 59, "duration": 7, "velocity": 80}, {"time": 1735, "pitch": 63, "duration": 10, "velocity": 80}, {"time": 1741, "pitch": 54, "duration": 16, "velocity": 69}, {"time": 1744, "pitch": 59, "duration": 2, "velocity": 80}, {"time": 1747, "pitch": 66, "duration": 3, "velocity": 82}, {"time": 1750, "pitch": 63, "duration": 4, "velocity": 80}, {"time": 1753, "pitch": 59, "duration": 4, "velocity": 81}, {"time": 1759, "pitch": 47, "duration": 15, "velocity": 81}, {"time": 1759, "pitch": 59, "duration": 9, "velocity": 75}, {"time": 1759, "pitch": 63, "duration": 9, "velocity": 80}, {"time": 1765, "pitch": 54, "duration": 10, "velocity": 73}, {"time": 1771, "pitch": 59, "duration": 3, "velocity": 82}, {"time": 1771, "pitch": 63, "duration": 3, "velocity": 81}, {"time": 1771, "pitch": 66, "duration": 4, "velocity": 80}, {"time": 1783, "pitch": 47, "duration": 23, "velocity": 89}, {"time": 1783, "pitch": 66, "duration": 7, "velocity": 76}, {"time": 1783, "pitch": 71, "duration": 4, "velocity": 81}, {"time": 1789, "pitch": 54, "duration": 16, "velocity": 71}, {"time": 1795, "pitch": 66, "duration": 4, "velocity": 80}, {"time": 1795, "pitch": 71, "duration": 5, "velocity": 89}, {"time": 1795, "pitch": 75, "duration": 5, "velocity": 82}, {"time": 1804, "pitch": 66, "duration": 2, "velocity": 73}, {"time": 1804, "pitch": 71, "duration": 2, "velocity": 65}, {"time": 1804, "pitch": 78, "duration": 2, "velocity": 69}, {"time": 1807, "pitch": 47, "duration": 15, "velocity": 83}, {"time": 1807, "pitch": 66, "duration": 5, "velocity": 77}, {"time": 1807, "pitch": 71, "duration": 6, "velocity": 81}, {"time": 1807, "pitch": 78, "duration": 7, "velocity": 81}, {"time": 1813, "pitch": 54, "duration": 8, "velocity": 71}, {"time": 1819, "pitch": 66, "duration": 4, "velocity": 84}, {"time": 1819, "pitch": 71, "duration": 4, "velocity": 84}, {"time": 1819, "pitch": 75, "duration": 5, "velocity": 89}, {"time": 1825, "pitch": 47, "duration": 2, "velocity": 91}, {"time": 1831, "pitch": 37, "duration": 1, "velocity": 81}, {"time": 1831, "pitch": 68, "duration": 7, "velocity": 79}, {"time": 1831, "pitch": 73, "duration": 7, "velocity": 80}, {"time": 1837, "pitch": 49, "duration": 39, "velocity": 80}, {"time": 1843, "pitch": 56, "duration": 32, "velocity": 83}, {"time": 1846, "pitch": 61, "duration": 4, "velocity": 80}, {"time": 1849, "pitch": 63, "duration": 3, "velocity": 82}, {"time": 1852, "pitch": 65, "duration": 2, "velocity": 81}, {"time": 1855, "pitch": 68, "duration": 3, "velocity": 84}, {"time": 1858, "pitch": 65, "duration": 3, "velocity": 81}, {"time": 1861, "pitch": 73, "duration": 3, "velocity": 80}, {"time": 1864, "pitch": 65, "duration": 3, "velocity": 82}, {"time": 1867, "pitch": 75, "duration": 3, "velocity": 89}, {"time": 1870, "pitch": 65, "duration": 3, "velocity": 84}, {"time": 1873, "pitch": 77, "duration": 4, "velocity": 82}, {"time": 1876, "pitch": 65, "duration": 1, "velocity": 80}, {"time": 1879, "pitch": 49, "duration": 48, "velocity": 86}, {"time": 1885, "pitch": 65, "duration": 5, "velocity": 71}, {"time": 1891, "pitch": 68, "duration": 6, "velocity": 74}, {"time": 1891, "pitch": 73, "duration": 5, "velocity": 76}, {"time": 1897, "pitch": 65, "duration": 4, "velocity": 60}, {"time": 1903, "pitch": 56, "duration": 24, "velocity": 62}, {"time": 1903, "pitch": 65, "duration": 10, "velocity": 74}, {"time": 1903, "pitch": 68, "duration": 10, "velocity": 73}, {"time": 1903, "pitch": 73, "duration": 9, "velocity": 74}, {"time": 1915, "pitch": 68, "duration": 11, "velocity": 69}, {"time": 1915, "pitch": 73, "duration": 12, "velocity": 75}, {"time": 1921, "pitch": 65, "duration": 6, "velocity": 76}, {"time": 1927, "pitch": 42, "duration": 18, "velocity": 78}, {"time": 1927, "pitch": 61, "duration": 9, "velocity": 75}, {"time": 1933, "pitch": 49, "duration": 11, "velocity": 61}, {"time": 1939, "pitch": 58, "duration": 7, "velocity": 74}, {"time": 1939, "pitch": 61, "duration": 7, "velocity": 73}, {"time": 1945, "pitch": 54, "duration": 6, "velocity": 81}, {"time": 1951, "pitch": 49, "duration": 14, "velocity": 82}, {"time": 1951, "pitch": 61, "duration": 9, "velocity": 80}, {"time": 1957, "pitch": 56, "duration": 8, "velocity": 71}, {"time": 1963, "pitch": 65, "duration": 3, "velocity": 80}, {"time": 1975, "pitch": 44, "duration": 16, "velocity": 78}, {"time": 1975, "pitch": 63, "duration": 14, "velocity": 75}, {"time": 1981, "pitch": 51, "duration": 9, "velocity": 73}, {"time": 1987, "pitch": 59, "duration": 5, "velocity": 81}, {"time": 1999, "pitch": 51, "duration": 13, "velocity": 80}, {"time": 1999, "pitch": 63, "duration": 13, "velocity": 75}, {"time": 2005, "pitch": 58, "duration": 7, "velocity": 75}, {"time": 2011, "pitch": 66, "duration": 7, "velocity": 80}, {"time": 2017, "pitch": 58, "duration": 5, "velocity": 75}, {"time": 2023, "pitch": 47, "duration": 15, "velocity": 77}, {"time": 2023, "pitch": 59, "duration": 1, "velocity": 55}, {"time": 2023, "pitch": 63, "duration": 13, "velocity": 74}, {"time": 2029, "pitch": 54, "duration": 9, "velocity": 71}, {"time": 2035, "pitch": 59, "duration": 4, "velocity": 81}, {"time": 2047, "pitch": 42, "duration": 15, "velocity": 80}, {"time": 2047, "pitch": 58, "duration": 12, "velocity": 71}, {"time": 2047, "pitch": 61, "duration": 19, "velocity": 76}, {"time": 2053, "pitch": 49, "duration": 8, "velocity": 71}, {"time": 2059, "pitch": 66, "duration": 13, "velocity": 80}, {"time": 2065, "pitch": 58, "duration": 4, "velocity": 80}, {"time": 2071, "pitch": 49, "duration": 19, "velocity": 80}, {"time": 2071, "pitch": 65, "duration": 12, "velocity": 81}, {"time": 2077, "pitch": 56, "duration": 7, "velocity": 81}, {"time": 2083, "pitch": 63, "duration": 8, "velocity": 81}, {"time": 2089, "pitch": 56, "duration": 4, "velocity": 82}, {"time": 2095, "pitch": 49, "duration": 15, "velocity": 80}, {"time": 2095, "pitch": 61, "duration": 7, "velocity": 75}, {"time": 2101, "pitch": 56, "duration": 3, "velocity": 67}, {"time": 2107, "pitch": 56, "duration": 3, "velocity": 79}, {"time": 2107, "pitch": 61, "duration": 4, "velocity": 78}, {"time": 2107, "pitch": 65, "duration": 4, "velocity": 80}, {"time": 2119, "pitch": 42, "duration": 16, "velocity": 80}, {"time": 2119, "pitch": 58, "duration": 11, "velocity": 77}, {"time": 2119, "pitch": 66, "duration": 8, "velocity": 77}, {"time": 2125, "pitch": 49, "duration": 9, "velocity": 66}, {"time": 2131, "pitch": 61, "duration": 7, "velocity": 81}, {"time": 2131, "pitch": 66, "duration": 6, "velocity": 79}, {"time": 2137, "pitch": 58, "duration": 2, "velocity": 75}, {"time": 2143, "pitch": 49, "duration": 14, "velocity": 80}, {"time": 2143, "pitch": 56, "duration": 4, "velocity": 78}, {"time": 2143, "pitch": 61, "duration": 8, "velocity": 75}, {"time": 2143, "pitch": 65, "duration": 9, "velocity": 81}, {"time": 2149, "pitch": 56, "duration": 4, "velocity": 72}, {"time": 2155, "pitch": 56, "duration": 2, "velocity": 81}, {"time": 2155, "pitch": 61, "duration": 2, "velocity": 77}, {"time": 2167, "pitch": 39, "duration": 16, "velocity": 81}, {"time": 2167, "pitch": 63, "duration": 7, "velocity": 80}, {"time": 2167, "pitch": 66, "duration": 8, "velocity": 76}, {"time": 2173, "pitch": 58, "duration": 7, "velocity": 74}, {"time": 2179, "pitch": 63, "duration": 6, "velocity": 82}, {"time": 2179, "pitch": 66, "duration": 9, "velocity": 80}, {"time": 2185, "pitch": 58, "duration": 2, "velocity": 72}, {"time": 2191, "pitch": 44, "duration": 17, "velocity": 73}, {"time": 2191, "pitch": 59, "duration": 9, "velocity": 71}, {"time": 2191, "pitch": 63, "duration": 9, "velocity": 74}, {"time": 2197, "pitch": 51, "duration": 11, "velocity": 71}, {"time": 2203, "pitch": 59, "duration": 7, "velocity": 74}, {"time": 2203, "pitch": 63, "duration": 5, "velocity": 76}, {"time": 2209, "pitch": 56, "duration": 2, "velocity": 80}, {"time": 2215, "pitch": 47, "duration": 21, "velocity": 80}, {"time": 2215, "pitch": 59, "duration": 7, "velocity": 75}, {"time": 2221, "pitch": 54, "duration": 7, "velocity": 84}, {"time": 2227, "pitch": 63, "duration": 7, "velocity": 81}, {"time": 2233, "pitch": 54, "duration": 19, "velocity": 84}, {"time": 2239, "pitch": 47, "duration": 20, "velocity": 77}, {"time": 2239, "pitch": 61, "duration": 3, "velocity": 72}, {"time": 2239, "pitch": 63, "duration": 8, "velocity": 73}, {"time": 2245, "pitch": 59, "duration": 7, "velocity": 78}, {"time": 2251, "pitch": 63, "duration": 10, "velocity": 80}, {"time": 2257, "pitch": 54, "duration": 3, "velocity": 82}, {"time": 2263, "pitch": 39, "duration": 36, "velocity": 82}, {"time": 2263, "pitch": 58, "duration": 3, "velocity": 78}, {"time": 2263, "pitch": 66, "duration": 7, "velocity": 76}, {"time": 2269, "pitch": 58, "duration": 7, "velocity": 79}, {"time": 2275, "pitch": 63, "duration": 7, "velocity": 82}, {"time": 2275, "pitch": 66, "duration": 7, "velocity": 85}, {"time": 2281, "pitch": 58, "duration": 7, "velocity": 74}, {"time": 2287, "pitch": 63, "duration": 8, "velocity": 80}, {"time": 2287, "pitch": 66, "duration": 8, "velocity": 81}, {"time": 2293, "pitch": 58, "duration": 7, "velocity": 79}, {"time": 2299, "pitch": 41, "duration": 12, "velocity": 84}, {"time": 2299, "pitch": 63, "duration": 11, "velocity": 80}, {"time": 2299, "pitch": 66, "duration": 11, "velocity": 83}, {"time": 2305, "pitch": 58, "duration": 6, "velocity": 84}, {"time": 2311, "pitch": 42, "duration": 18, "velocity": 78}, {"time": 2311, "pitch": 61, "duration": 9, "velocity": 75}, {"time": 2317, "pitch": 49, "duration": 11, "velocity": 61}, {"time": 2323, "pitch": 58, "duration": 7, "velocity": 74}, {"time": 2323, "pitch": 61, "duration": 7, "velocity": 73}, {"time": 2329, "pitch": 54, "duration": 6, "velocity": 81}, {"time": 2335, "pitch": 49, "duration": 14, "velocity": 82}, {"time": 2335, "pitch": 61, "duration": 9, "velocity": 80}, {"time": 2341, "pitch": 56, "duration": 8, "velocity": 71}, {"time": 2347, "pitch": 65, "duration": 3, "velocity": 80}, {"time": 2359, "pitch": 44, "duration": 16, "velocity": 78}, {"time": 2359, "pitch": 63, "duration": 14, "velocity": 75}, {"time": 2365, "pitch": 51, "duration": 9, "velocity": 73}, {"time": 2371, "pitch": 59, "duration": 5, "velocity": 81}, {"time": 2383, "pitch": 51, "duration": 13, "velocity": 80}, {"time": 2383, "pitch": 63, "duration": 13, "velocity": 75}, {"time": 2389, "pitch": 58, "duration": 7, "velocity": 75}, {"time": 2395, "pitch": 66, "duration": 7, "velocity": 80}, {"time": 2401, "pitch": 58, "duration": 5, "velocity": 75}, {"time": 2407, "pitch": 47, "duration": 15, "velocity": 77}, {"time": 2407, "pitch": 59, "duration": 1, "velocity": 55}, {"time": 2407, "pitch": 63, "duration": 13, "velocity": 74}, {"time": 2413, "pitch": 54, "duration": 9, "velocity": 71}, {"time": 2419, "pitch": 59, "duration": 4, "velocity": 81}, {"time": 2431, "pitch": 42, "duration": 15, "velocity": 80}, {"time": 2431, "pitch": 58, "duration": 12, "velocity": 71}, {"time": 2431, "pitch": 61, "duration": 19, "velocity": 76}, {"time": 2437, "pitch": 49, "duration": 8, "velocity": 71}, {"time": 2443, "pitch": 66, "duration": 13, "velocity": 80}, {"time": 2449, "pitch": 58, "duration": 4, "velocity": 80}, {"time": 2455, "pitch": 49, "duration": 19, "velocity": 80}, {"time": 2455, "pitch": 65, "duration": 12, "velocity": 81}, {"time": 2461, "pitch": 56, "duration": 7, "velocity": 81}, {"time": 2467, "pitch": 63, "duration": 8, "velocity": 81}, {"time": 2473, "pitch": 56, "duration": 4, "velocity": 82}, {"time": 2479, "pitch": 49, "duration": 15, "velocity": 80}, {"time": 2479, "pitch": 61, "duration": 7, "velocity": 75}, {"time": 2485, "pitch": 56, "duration": 3, "velocity": 67}, {"time": 2491, "pitch": 56, "duration": 3, "velocity": 79}, {"time": 2491, "pitch": 61, "duration": 4, "velocity": 78}, {"time": 2491, "pitch": 65, "duration": 4, "velocity": 80}, {"time": 2503, "pitch": 42, "duration": 16, "velocity": 80}, {"time": 2503, "pitch": 58, "duration": 11, "velocity": 77}, {"time": 2503, "pitch": 66, "duration": 8, "velocity": 77}, {"time": 2509, "pitch": 49, "duration": 9, "velocity": 66}, {"time": 2515, "pitch": 61, "duration": 7, "velocity": 81}, {"time": 2515, "pitch": 66, "duration": 6, "velocity": 79}, {"time": 2521, "pitch": 58, "duration": 2, "velocity": 75}, {"time": 2527, "pitch": 44, "duration": 24, "velocity": 80}, {"time": 2533, "pitch": 51, "duration": 18, "velocity": 80}, {"time": 2539, "pitch": 59, "duration": 11, "velocity": 80}, {"time": 2539, "pitch": 63, "duration": 11, "velocity": 84}, {"time": 2545, "pitch": 56, "duration": 6, "velocity": 87}, {"time": 2551, "pitch": 39, "duration": 16, "velocity": 81}, {"time": 2551, "pitch": 63, "duration": 7, "velocity": 80}, {"time": 2551, "pitch": 66, "duration": 8, "velocity": 76}, {"time": 2557, "pitch": 58, "duration": 7, "velocity": 74}, {"time": 2563, "pitch": 63, "duration": 6, "velocity": 82}, {"time": 2563, "pitch": 66, "duration": 9, "velocity": 80}, {"time": 2569, "pitch": 58, "duration": 2, "velocity": 72}, {"time": 2575, "pitch": 44, "duration": 17, "velocity": 73}, {"time": 2575, "pitch": 59, "duration": 9, "velocity": 71}, {"time": 2575, "pitch": 63, "duration": 9, "velocity": 74}, {"time": 2581, "pitch": 51, "duration": 11, "velocity": 71}, {"time": 2587, "pitch": 59, "duration": 7, "velocity": 74}, {"time": 2587, "pitch": 63, "duration": 5, "velocity": 76}, {"time": 2593, "pitch": 56, "duration": 2, "velocity": 80}, {"time": 2599, "pitch": 47, "duration": 21, "velocity": 80}, {"time": 2599, "pitch": 59, "duration": 7, "velocity": 75}, {"time": 2605, "pitch": 54, "duration": 7, "velocity": 84}, {"time": 2611, "pitch": 63, "duration": 7, "velocity": 81}, {"time": 2617, "pitch": 54, "duration": 19, "velocity": 84}, {"time": 2623, "pitch": 47, "duration": 20, "velocity": 77}, {"time": 2623, "pitch": 61, "duration": 3, "velocity": 72}, {"time": 2623, "pitch": 63, "duration": 8, "velocity": 73}, {"time": 2629, "pitch": 59, "duration": 7, "velocity": 78}, {"time": 2635, "pitch": 63, "duration": 10, "velocity": 80}, {"time": 2641, "pitch": 54, "duration": 3, "velocity": 82}, {"time": 2647, "pitch": 39, "duration": 21, "velocity": 83}, {"time": 2647, "pitch": 63, "duration": 4, "velocity": 81}, {"time": 2647, "pitch": 66, "duration": 7, "velocity": 84}, {"time": 2659, "pitch": 63, "duration": 7, "velocity": 83}, {"time": 2659, "pitch": 66, "duration": 7, "velocity": 83}, {"time": 2665, "pitch": 58, "duration": 4, "velocity": 80}, {"time": 2671, "pitch": 63, "duration": 3, "velocity": 80}, {"time": 2671, "pitch": 66, "duration": 7, "velocity": 76}, {"time": 2677, "pitch": 58, "duration": 3, "velocity": 70}, {"time": 2683, "pitch": 58, "duration": 5, "velocity": 80}, {"time": 2683, "pitch": 63, "duration": 5, "velocity": 83}, {"time": 2683, "pitch": 66, "duration": 6, "velocity": 80}, {"time": 2689, "pitch": 46, "duration": 2, "velocity": 82}, {"time": 2695, "pitch": 47, "duration": 15, "velocity": 89}, {"time": 2695, "pitch": 59, "duration": 5, "velocity": 81}, {"time": 2695, "pitch": 63, "duration": 7, "velocity": 81}, {"time": 2707, "pitch": 59, "duration": 2, "velocity": 81}, {"time": 2707, "pitch": 63, "duration": 2, "velocity": 80}, {"time": 2707, "pitch": 66, "duration": 4, "velocity": 78}, {"time": 2719, "pitch": 59, "duration": 2, "velocity": 77}, {"time": 2719, "pitch": 63, "duration": 2, "velocity": 77}, {"time": 2719, "pitch": 66, "duration": 4, "velocity": 76}, {"time": 2731, "pitch": 59, "duration": 6, "velocity": 86}, {"time": 2731, "pitch": 63, "duration": 6, "velocity": 84}, {"time": 2731, "pitch": 66, "duration": 6, "velocity": 81}, {"time": 2737, "pitch": 47, "duration": 1, "velocity": 94}, {"time": 2743, "pitch": 44, "duration": 26, "velocity": 82}, {"time": 2743, "pitch": 56, "duration": 6, "velocity": 79}, {"time": 2743, "pitch": 59, "duration": 6, "velocity": 75}, {"time": 2743, "pitch": 63, "duration": 5, "velocity": 80}, {"time": 2749, "pitch": 51, "duration": 19, "velocity": 67}, {"time": 2755, "pitch": 56, "duration": 3, "velocity": 82}, {"time": 2755, "pitch": 59, "duration": 3, "velocity": 82}, {"time": 2755, "pitch": 63, "duration": 4, "velocity": 84}, {"time": 2761, "pitch": 56, "duration": 4, "velocity": 71}, {"time": 2767, "pitch": 56, "duration": 1, "velocity": 70}, {"time": 2767, "pitch": 59, "duration": 8, "velocity": 81}, {"time": 2767, "pitch": 63, "duration": 8, "velocity": 82}, {"time": 2767, "pitch": 68, "duration": 7, "velocity": 76}, {"time": 2773, "pitch": 56, "duration": 4, "velocity": 74}, {"time": 2779, "pitch": 56, "duration": 3, "velocity": 82}, {"time": 2779, "pitch": 59, "duration": 3, "velocity": 83}, {"time": 2779, "pitch": 63, "duration": 4, "velocity": 82}, {"time": 2779, "pitch": 68, "duration": 3, "velocity": 78}, {"time": 2791, "pitch": 65, "duration": 6, "velocity": 82}, {"time": 2791, "pitch": 56, "duration": 5, "velocity": 80}, {"time": 2791, "pitch": 61, "duration": 5, "velocity": 78}, {"time": 2791, "pitch": 37, "duration": 1, "velocity": 81}, {"time": 2796, "pitch": 49, "duration": 10, "velocity": 81}, {"time": 2803, "pitch": 68, "duration": 3, "velocity": 81}, {"time": 2803, "pitch": 61, "duration": 2, "velocity": 84}, {"time": 2803, "pitch": 65, "duration": 2, "velocity": 91}, {"time": 2809, "pitch": 61, "duration": 4, "velocity": 81}, {"time": 2815, "pitch": 61, "duration": 3, "velocity": 80}, {"time": 2815, "pitch": 65, "duration": 4, "velocity": 86}, {"time": 2815, "pitch": 68, "duration": 5, "velocity": 81}, {"time": 2815, "pitch": 73, "duration": 6, "velocity": 80}, {"time": 2815, "pitch": 49, "duration": 11, "velocity": 89}, {"time": 2815, "pitch": 56, "duration": 11, "velocity": 85}, {"time": 2821, "pitch": 61, "duration": 6, "velocity": 82}, {"time": 2827, "pitch": 61, "duration": 12, "velocity": 84}, {"time": 2827, "pitch": 65, "duration": 12, "velocity": 94}, {"time": 2827, "pitch": 68, "duration": 12, "velocity": 82}, {"time": 2827, "pitch": 49, "duration": 12, "velocity": 85}, {"time": 2827, "pitch": 56, "duration": 12, "velocity": 85}, {"time": 2828, "pitch": 73, "duration": 12, "velocity": 79}, {"time": 2839, "pitch": 42, "duration": 18, "velocity": 78}, {"time": 2839, "pitch": 61, "duration": 9, "velocity": 75}, {"time": 2845, "pitch": 49, "duration": 11, "velocity": 61}, {"time": 2851, "pitch": 58, "duration": 7, "velocity": 74}, {"time": 2851, "pitch": 61, "duration": 7, "velocity": 73}, {"time": 2857, "pitch": 54, "duration": 6, "velocity": 81}, {"time": 2863, "pitch": 49, "duration": 14, "velocity": 82}, {"time": 2863, "pitch": 61, "duration": 9, "velocity": 80}, {"time": 2869, "pitch": 56, "duration": 8, "velocity": 71}, {"time": 2875, "pitch": 65, "duration": 3, "velocity": 80}, {"time": 2887, "pitch": 44, "duration": 16, "velocity": 78}, {"time": 2887, "pitch": 63, "duration": 14, "velocity": 75}, {"time": 2893, "pitch": 51, "duration": 9, "velocity": 73}, {"time": 2899, "pitch": 59, "duration": 5, "velocity": 81}, {"time": 2911, "pitch": 51, "duration": 13, "velocity": 80}, {"time": 2911, "pitch": 63, "duration": 13, "velocity": 75}, {"time": 2917, "pitch": 58, "duration": 7, "velocity": 75}, {"time": 2923, "pitch": 66, "duration": 7, "velocity": 80}, {"time": 2929, "pitch": 58, "duration": 5, "velocity": 75}, {"time": 2935, "pitch": 47, "duration": 15, "velocity": 77}, {"time": 2935, "pitch": 59, "duration": 1, "velocity": 55}, {"time": 2935, "pitch": 63, "duration": 13, "velocity": 74}, {"time": 2941, "pitch": 54, "duration": 9, "velocity": 71}, {"time": 2947, "pitch": 59, "duration": 4, "velocity": 81}, {"time": 2959, "pitch": 42, "duration": 15, "velocity": 80}, {"time": 2959, "pitch": 58, "duration": 12, "velocity": 71}, {"time": 2959, "pitch": 61, "duration": 19, "velocity": 76}, {"time": 2965, "pitch": 49, "duration": 8, "velocity": 71}, {"time": 2971, "pitch": 66, "duration": 13, "velocity": 80}, {"time": 2977, "pitch": 58, "duration": 4, "velocity": 80}, {"time": 2983, "pitch": 49, "duration": 19, "velocity": 80}, {"time": 2983, "pitch": 65, "duration": 12, "velocity": 81}, {"time": 2989, "pitch": 56, "duration": 7, "velocity": 81}, {"time": 2995, "pitch": 63, "duration": 8, "velocity": 81}, {"time": 3001, "pitch": 56, "duration": 4, "velocity": 82}, {"time": 3007, "pitch": 49, "duration": 15, "velocity": 80}, {"time": 3007, "pitch": 61, "duration": 7, "velocity": 75}, {"time": 3013, "pitch": 56, "duration": 3, "velocity": 67}, {"time": 3019, "pitch": 56, "duration": 3, "velocity": 79}, {"time": 3019, "pitch": 61, "duration": 4, "velocity": 78}, {"time": 3019, "pitch": 65, "duration": 4, "velocity": 80}, {"time": 3031, "pitch": 42, "duration": 16, "velocity": 80}, {"time": 3031, "pitch": 58, "duration": 11, "velocity": 77}, {"time": 3031, "pitch": 66, "duration": 8, "velocity": 77}, {"time": 3037, "pitch": 49, "duration": 9, "velocity": 66}, {"time": 3043, "pitch": 61, "duration": 7, "velocity": 81}, {"time": 3043, "pitch": 66, "duration": 6, "velocity": 79}, {"time": 3049, "pitch": 58, "duration": 2, "velocity": 75}, {"time": 3055, "pitch": 49, "duration": 14, "velocity": 80}, {"time": 3055, "pitch": 56, "duration": 4, "velocity": 78}, {"time": 3055, "pitch": 61, "duration": 8, "velocity": 75}, {"time": 3055, "pitch": 65, "duration": 9, "velocity": 81}, {"time": 3061, "pitch": 56, "duration": 4, "velocity": 72}, {"time": 3067, "pitch": 56, "duration": 2, "velocity": 81}, {"time": 3067, "pitch": 61, "duration": 2, "velocity": 77}, {"time": 3079, "pitch": 39, "duration": 16, "velocity": 81}, {"time": 3079, "pitch": 63, "duration": 7, "velocity": 80}, {"time": 3079, "pitch": 66, "duration": 8, "velocity": 76}, {"time": 3085, "pitch": 58, "duration": 7, "velocity": 74}, {"time": 3091, "pitch": 63, "duration": 6, "velocity": 82}, {"time": 3091, "pitch": 66, "duration": 9, "velocity": 80}, {"time": 3097, "pitch": 58, "duration": 2, "velocity": 72}, {"time": 3103, "pitch": 44, "duration": 17, "velocity": 73}, {"time": 3103, "pitch": 59, "duration": 9, "velocity": 71}, {"time": 3103, "pitch": 63, "duration": 9, "velocity": 74}, {"time": 3109, "pitch": 51, "duration": 11, "velocity": 71}, {"time": 3115, "pitch": 59, "duration": 7, "velocity": 74}, {"time": 3115, "pitch": 63, "duration": 5, "velocity": 76}, {"time": 3121, "pitch": 56, "duration": 2, "velocity": 80}, {"time": 3127, "pitch": 47, "duration": 21, "velocity": 80}, {"time": 3127, "pitch": 59, "duration": 7, "velocity": 75}, {"time": 3133, "pitch": 54, "duration": 7, "velocity": 84}, {"time": 3139, "pitch": 63, "duration": 7, "velocity": 81}, {"time": 3145, "pitch": 54, "duration": 19, "velocity": 84}, {"time": 3151, "pitch": 47, "duration": 20, "velocity": 77}, {"time": 3151, "pitch": 61, "duration": 3, "velocity": 72}, {"time": 3151, "pitch": 63, "duration": 8, "velocity": 73}, {"time": 3157, "pitch": 59, "duration": 7, "velocity": 78}, {"time": 3163, "pitch": 63, "duration": 10, "velocity": 80}, {"time": 3169, "pitch": 54, "duration": 3, "velocity": 82}, {"time": 3175, "pitch": 39, "duration": 36, "velocity": 82}, {"time": 3175, "pitch": 58, "duration": 3, "velocity": 78}, {"time": 3175, "pitch": 66, "duration": 7, "velocity": 76}, {"time": 3181, "pitch": 58, "duration": 7, "velocity": 79}, {"time": 3187, "pitch": 63, "duration": 7, "velocity": 82}, {"time": 3187, "pitch": 66, "duration": 7, "velocity": 85}, {"time": 3193, "pitch": 58, "duration": 7, "velocity": 74}, {"time": 3199, "pitch": 63, "duration": 8, "velocity": 80}, {"time": 3199, "pitch": 66, "duration": 8, "velocity": 81}, {"time": 3205, "pitch": 58, "duration": 7, "velocity": 79}, {"time": 3211, "pitch": 41, "duration": 12, "velocity": 84}, {"time": 3211, "pitch": 63, "duration": 11, "velocity": 80}, {"time": 3211, "pitch": 66, "duration": 11, "velocity": 83}, {"time": 3217, "pitch": 58, "duration": 6, "velocity": 84}, {"time": 3223, "pitch": 42, "duration": 16, "velocity": 80}, {"time": 3223, "pitch": 58, "duration": 11, "velocity": 77}, {"time": 3223, "pitch": 66, "duration": 8, "velocity": 77}, {"time": 3229, "pitch": 49, "duration": 9, "velocity": 66}, {"time": 3235, "pitch": 61, "duration": 7, "velocity": 81}, {"time": 3235, "pitch": 66, "duration": 6, "velocity": 79}, {"time": 3241, "pitch": 58, "duration": 2, "velocity": 75}, {"time": 3247, "pitch": 49, "duration": 14, "velocity": 80}, {"time": 3247, "pitch": 56, "duration": 4, "velocity": 78}, {"time": 3247, "pitch": 61, "duration": 8, "velocity": 75}, {"time": 3247, "pitch": 65, "duration": 9, "velocity": 81}, {"time": 3253, "pitch": 56, "duration": 4, "velocity": 72}, {"time": 3259, "pitch": 56, "duration": 2, "velocity": 81}, {"time": 3259, "pitch": 61, "duration": 2, "velocity": 77}, {"time": 3271, "pitch": 39, "duration": 16, "velocity": 81}, {"time": 3271, "pitch": 63, "duration": 7, "velocity": 80}, {"time": 3271, "pitch": 66, "duration": 8, "velocity": 76}, {"time": 3277, "pitch": 58, "duration": 7, "velocity": 74}, {"time": 3283, "pitch": 63, "duration": 6, "velocity": 82}, {"time": 3283, "pitch": 66, "duration": 9, "velocity": 80}, {"time": 3289, "pitch": 58, "duration": 2, "velocity": 72}, {"time": 3295, "pitch": 44, "duration": 17, "velocity": 73}, {"time": 3295, "pitch": 59, "duration": 9, "velocity": 71}, {"time": 3295, "pitch": 63, "duration": 9, "velocity": 74}, {"time": 3301, "pitch": 51, "duration": 11, "velocity": 71}, {"time": 3307, "pitch": 59, "duration": 7, "velocity": 74}, {"time": 3307, "pitch": 63, "duration": 5, "velocity": 76}, {"time": 3313, "pitch": 56, "duration": 2, "velocity": 80}, {"time": 3319, "pitch": 47, "duration": 21, "velocity": 80}, {"time": 3319, "pitch": 59, "duration": 7, "velocity": 75}, {"time": 3325, "pitch": 54, "duration": 7, "velocity": 84}, {"time": 3331, "pitch": 63, "duration": 7, "velocity": 81}, {"time": 3338, "pitch": 54, "duration": 19, "velocity": 84}, {"time": 3345, "pitch": 47, "duration": 20, "velocity": 77}, {"time": 3345, "pitch": 61, "duration": 3, "velocity": 72}, {"time": 3345, "pitch": 63, "duration": 7, "velocity": 73}, {"time": 3352, "pitch": 59, "duration": 6, "velocity": 78}, {"time": 3358, "pitch": 63, "duration": 8, "velocity": 80}, {"time": 3369, "pitch": 39, "duration": 36, "velocity": 82}, {"time": 3369, "pitch": 58, "duration": 3, "velocity": 78}, {"time": 3369, "pitch": 66, "duration": 7, "velocity": 76}, {"time": 3375, "pitch": 58, "duration": 8, "velocity": 79}, {"time": 3381, "pitch": 63, "duration": 6, "velocity": 82}, {"time": 3381, "pitch": 66, "duration": 7, "velocity": 85}, {"time": 3387, "pitch": 58, "duration": 7, "velocity": 74}, {"time": 3393, "pitch": 63, "duration": 8, "velocity": 80}, {"time": 3393, "pitch": 66, "duration": 7, "velocity": 81}, {"time": 3399, "pitch": 58, "duration": 7, "velocity": 79}, {"time": 3405, "pitch": 63, "duration": 11, "velocity": 80}, {"time": 3405, "pitch": 66, "duration": 11, "velocity": 83}, {"time": 3405, "pitch": 41, "duration": 10, "velocity": 84}, {"time": 3411, "pitch": 58, "duration": 5, "velocity": 84}, {"time": 3417, "pitch": 63, "duration": 8, "velocity": 76}, {"time": 3417, "pitch": 39, "duration": 34, "velocity": 83}, {"time": 3417, "pitch": 58, "duration": 3, "velocity": 65}, {"time": 3417, "pitch": 66, "duration": 9, "velocity": 76}, {"time": 3422, "pitch": 58, "duration": 7, "velocity": 67}, {"time": 3429, "pitch": 66, "duration": 8, "velocity": 74}, {"time": 3429, "pitch": 63, "duration": 7, "velocity": 72}, {"time": 3435, "pitch": 58, "duration": 8, "velocity": 63}, {"time": 3442, "pitch": 66, "duration": 10, "velocity": 79}, {"time": 3442, "pitch": 63, "duration": 7, "velocity": 80}, {"time": 3448, "pitch": 58, "duration": 8, "velocity": 81}, {"time": 3455, "pitch": 37, "duration": 12, "velocity": 77}, {"time": 3455, "pitch": 61, "duration": 12, "velocity": 74}, {"time": 3465, "pitch": 61, "duration": 2, "velocity": 63}, {"time": 3465, "pitch": 66, "duration": 5, "velocity": 71}, {"time": 3466, "pitch": 42, "duration": 6, "velocity": 72}, {"time": 3467, "pitch": 70, "duration": 5, "velocity": 66}, {"time": 3478, "pitch": 61, "duration": 8, "velocity": 68}, {"time": 3478, "pitch": 65, "duration": 11, "velocity": 73}, {"time": 3479, "pitch": 41, "duration": 7, "velocity": 75}, {"time": 3480, "pitch": 68, "duration": 7, "velocity": 53}, {"time": 3490, "pitch": 63, "duration": 4, "velocity": 67}, {"time": 3490, "pitch": 39, "duration": 14, "velocity": 78}, {"time": 3490, "pitch": 66, "duration": 7, "velocity": 73}, {"time": 3497, "pitch": 63, "duration": 12, "velocity": 65}, {"time": 3503, "pitch": 66, "duration": 6, "velocity": 67}, {"time": 3503, "pitch": 70, "duration": 7, "velocity": 69}, {"time": 3514, "pitch": 44, "duration": 18, "velocity": 80}, {"time": 3520, "pitch": 56, "duration": 9, "velocity": 80}, {"time": 3525, "pitch": 59, "duration": 4, "velocity": 64}, {"time": 3526, "pitch": 63, "duration": 5, "velocity": 67}, {"time": 3527, "pitch": 68, "duration": 4, "velocity": 67}, {"time": 3537, "pitch": 58, "duration": 2, "velocity": 60}, {"time": 3538, "pitch": 63, "duration": 7, "velocity": 67}, {"time": 3538, "pitch": 39, "duration": 11, "velocity": 71}, {"time": 3538, "pitch": 66, "duration": 8, "velocity": 73}, {"time": 3544, "pitch": 58, "duration": 8, "velocity": 67}, {"time": 3550, "pitch": 66, "duration": 3, "velocity": 67}, {"time": 3551, "pitch": 63, "duration": 2, "velocity": 62}, {"time": 3560, "pitch": 56, "duration": 9, "velocity": 68}, {"time": 3561, "pitch": 59, "duration": 11, "velocity": 67}, {"time": 3562, "pitch": 63, "duration": 10, "velocity": 69}, {"time": 3562, "pitch": 44, "duration": 44, "velocity": 80}, {"time": 3563, "pitch": 68, "duration": 8, "velocity": 71}, {"time": 3569, "pitch": 51, "duration": 9, "velocity": 60}, {"time": 3575, "pitch": 59, "duration": 9, "velocity": 67}, {"time": 3580, "pitch": 51, "duration": 25, "velocity": 70}, {"time": 3586, "pitch": 59, "duration": 6, "velocity": 62}, {"time": 3586, "pitch": 63, "duration": 6, "velocity": 73}, {"time": 3598, "pitch": 59, "duration": 4, "velocity": 79}, {"time": 3598, "pitch": 63, "duration": 6, "velocity": 81}, {"time": 3598, "pitch": 56, "duration": 6, "velocity": 80}, {"time": 3608, "pitch": 54, "duration": 3, "velocity": 65}, {"time": 3609, "pitch": 58, "duration": 7, "velocity": 73}, {"time": 3610, "pitch": 61, "duration": 7, "velocity": 69}, {"time": 3610, "pitch": 42, "duration": 38, "velocity": 79}, {"time": 3610, "pitch": 66, "duration": 6, "velocity": 80}, {"time": 3616, "pitch": 49, "duration": 32, "velocity": 67}, {"time": 3622, "pitch": 61, "duration": 9, "velocity": 76}, {"time": 3628, "pitch": 54, "duration": 6, "velocity": 76}, {"time": 3634, "pitch": 61, "duration": 21, "velocity": 65}, {"time": 3634, "pitch": 58, "duration": 20, "velocity": 65}, {"time": 3659, "pitch": 42, "duration": 7, "velocity": 81}, {"time": 3659, "pitch": 58, "duration": 5, "velocity": 69}, {"time": 3659, "pitch": 61, "duration": 6, "velocity": 75}, {"time": 3659, "pitch": 66, "duration": 11, "velocity": 75}, {"time": 3671, "pitch": 41, "duration": 7, "velocity": 82}, {"time": 3671, "pitch": 56, "duration": 6, "velocity": 72}, {"time": 3671, "pitch": 61, "duration": 6, "velocity": 79}, {"time": 3671, "pitch": 65, "duration": 6, "velocity": 80}, {"time": 3683, "pitch": 39, "duration": 14, "velocity": 76}, {"time": 3683, "pitch": 58, "duration": 3, "velocity": 71}, {"time": 3683, "pitch": 63, "duration": 7, "velocity": 75}, {"time": 3689, "pitch": 58, "duration": 7, "velocity": 68}, {"time": 3695, "pitch": 63, "duration": 4, "velocity": 80}, {"time": 3695, "pitch": 66, "duration": 5, "velocity": 79}, {"time": 3707, "pitch": 44, "duration": 17, "velocity": 77}, {"time": 3707, "pitch": 56, "duration": 12, "velocity": 74}, {"time": 3707, "pitch": 63, "duration": 8, "velocity": 74}, {"time": 3713, "pitch": 51, "duration": 10, "velocity": 70}, {"time": 3719, "pitch": 59, "duration": 5, "velocity": 74}, {"time": 3719, "pitch": 63, "duration": 6, "velocity": 78}, {"time": 3719, "pitch": 68, "duration": 5, "velocity": 74}, {"time": 3725, "pitch": 56, "duration": 1, "velocity": 81}, {"time": 3731, "pitch": 51, "duration": 14, "velocity": 78}, {"time": 3731, "pitch": 58, "duration": 3, "velocity": 69}, {"time": 3731, "pitch": 63, "duration": 8, "velocity": 76}, {"time": 3737, "pitch": 58, "duration": 7, "velocity": 72}, {"time": 3743, "pitch": 63, "duration": 3, "velocity": 80}, {"time": 3743, "pitch": 66, "duration": 5, "velocity": 77}, {"time": 3755, "pitch": 54, "duration": 14, "velocity": 66}, {"time": 3756, "pitch": 58, "duration": 12, "velocity": 72}, {"time": 3756, "pitch": 42, "duration": 37, "velocity": 80}, {"time": 3757, "pitch": 61, "duration": 11, "velocity": 70}, {"time": 3757, "pitch": 66, "duration": 10, "velocity": 75}, {"time": 3764, "pitch": 49, "duration": 27, "velocity": 69}, {"time": 3771, "pitch": 66, "duration": 6, "velocity": 79}, {"time": 3771, "pitch": 58, "duration": 7, "velocity": 77}, {"time": 3772, "pitch": 61, "duration": 6, "velocity": 77}, {"time": 3778, "pitch": 54, "duration": 3, "velocity": 63}, {"time": 3783, "pitch": 54, "duration": 3, "velocity": 69}, {"time": 3785, "pitch": 58, "duration": 1, "velocity": 74}, {"time": 3786, "pitch": 61, "duration": 1, "velocity": 75}, {"time": 3786, "pitch": 66, "duration": 2, "velocity": 80}, {"time": 3799, "pitch": 61, "duration": 10, "velocity": 62}, {"time": 3801, "pitch": 65, "duration": 8, "velocity": 76}, {"time": 3801, "pitch": 37, "duration": 2, "velocity": 78}, {"time": 3802, "pitch": 68, "duration": 8, "velocity": 72}, {"time": 3818, "pitch": 39, "duration": 52, "velocity": 87}, {"time": 3821, "pitch": 46, "duration": 48, "velocity": 69}, {"time": 3824, "pitch": 51, "duration": 11, "velocity": 74}, {"time": 3827, "pitch": 54, "duration": 8, "velocity": 75}, {"time": 3830, "pitch": 58, "duration": 5, "velocity": 70}, {"time": 3834, "pitch": 61, "duration": 2, "velocity": 69}, {"time": 3838, "pitch": 63, "duration": 2, "velocity": 72}, {"time": 3842, "pitch": 66, "duration": 3, "velocity": 68}, {"time": 3847, "pitch": 68, "duration": 6, "velocity": 63}, {"time": 3853, "pitch": 70, "duration": 1, "velocity": 72}, {"time": 3860, "pitch": 70, "duration": 14, "velocity": 53}, {"time": 3862, "pitch": 75, "duration": 12, "velocity": 76}], "annotations": [{"time": 199, "annotation": {"number": 64, "value": 127}, "group": "control_change"}, {"time": 211, "annotation": {"number": 64, "value": 0}, "group": "control_change"}, {"time": 212, "annotation": {"number": 64, "value": 127}, "group": "control_change"}, {"time": 223, "annotation": {"number": 64, "value": 0}, "group": "control_change"}, {"time": 225, "annotation": {"number": 64, "value": 127}, "group": "control_change"}, {"time": 249, "annotation": {"number": 64, "value": 0}, "group": "control_change"}, {"time": 251, "annotation": {"number": 64, "value": 127}, "group": "control_change"}, {"time": 271, "annotation": {"number": 64, "value": 0}, "group": "control_change"}, {"time": 272, "annotation": {"number": 64, "value": 127}, "group": "control_change"}, {"time": 294, "annotation": {"number": 64, "value": 0}, "group": "control_change"}, {"time": 296, "annotation": {"number": 64, "value": 127}, "group": "control_change"}, {"time": 344, "annotation": {"number": 64, "value": 0}, "group": "control_change"}, {"time": 347, "annotation": {"number": 64, "value": 127}, "group": "control_change"}, {"time": 388, "annotation": {"number": 64, "value": 0}, "group": "control_change"}, {"time": 392, "annotation": {"number": 64, "value": 127}, "group": "control_change"}, {"time": 392, "annotation": {"number": 64, "value": 0}, "group": "control_change"}, {"time": 403, "annotation": {"number": 64, "value": 0}, "group": "control_change"}, {"time": 404, "annotation": {"number": 64, "value": 127}, "group": "control_change"}, {"time": 414, "annotation": {"number": 64, "value": 0}, "group": "control_change"}, {"time": 417, "annotation": {"number": 64, "value": 127}, "group": "control_change"}, {"time": 437, "annotation": {"number": 64, "value": 0}, "group": "control_change"}, {"time": 442, "annotation": {"number": 64, "value": 127}, "group": "control_change"}, {"time": 442, "annotation": {"number": 64, "value": 0}, "group": "control_change"}, {"time": 463, "annotation": {"number": 64, "value": 0}, "group": "control_change"}, {"time": 468, "annotation": {"number": 64, "value": 127}, "group": "control_change"}, {"time": 486, "annotation": {"number": 64, "value": 0}, "group": "control_change"}, {"time": 489, "annotation": {"number": 64, "value": 127}, "group": "control_change"}, {"time": 534, "annotation": {"number": 64, "value": 0}, "group": "control_change"}, {"time": 536, "annotation": {"number": 64, "value": 127}, "group": "control_change"}, {"time": 583, "annotation": {"number": 64, "value": 0}, "group": "control_change"}, {"time": 610, "annotation": {"number": 64, "value": 127}, "group": "control_change"}, {"time": 626, "annotation": {"number": 64, "value": 0}, "group": "control_change"}, {"time": 631, "annotation": {"number": 64, "value": 127}, "group": "control_change"}, {"time": 632, "annotation": {"number": 64, "value": 0}, "group": "control_change"}, {"time": 632, "annotation": {"number": 64, "value": 127}, "group": "control_change"}, {"time": 655, "annotation": {"number": 64, "value": 0}, "group": "control_change"}, {"time": 660, "annotation": {"number": 64, "value": 127}, "group": "control_change"}, {"time": 678, "annotation": {"number": 64, "value": 0}, "group": "control_change"}, {"time": 684, "annotation": {"number": 64, "value": 127}, "group": "control_change"}, {"time": 703, "annotation": {"number": 64, "value": 0}, "group": "control_change"}, {"time": 708, "annotation": {"number": 64, "value": 127}, "group": "control_change"}, {"time": 708, "annotation": {"number": 64, "value": 0}, "group": "control_change"}, {"time": 726, "annotation": {"number": 64, "value": 0}, "group": "control_change"}, {"time": 732, "annotation": {"number": 64, "value": 127}, "group": "control_change"}, {"time": 750, "annotation": {"number": 64, "value": 0}, "group": "control_change"}, {"time": 755, "annotation": {"number": 64, "value": 127}, "group": "control_change"}, {"time": 774, "annotation": {"number": 64, "value": 0}, "group": "control_change"}, {"time": 778, "annotation": {"number": 64, "value": 127}, "group": "control_change"}, {"time": 821, "annotation": {"number": 64, "value": 0}, "group": "control_change"}, {"time": 825, "annotation": {"number": 64, "value": 127}, "group": "control_change"}, {"time": 845, "annotation": {"number": 64, "value": 0}, "group": "control_change"}, {"time": 848, "annotation": {"number": 64, "value": 127}, "group": "control_change"}, {"time": 870, "annotation": {"number": 64, "value": 0}, "group": "control_change"}, {"time": 872, "annotation": {"number": 64, "value": 127}, "group": "control_change"}, {"time": 895, "annotation": {"number": 64, "value": 0}, "group": "control_change"}, {"time": 899, "annotation": {"number": 64, "value": 127}, "group": "control_change"}, {"time": 900, "annotation": {"number": 64, "value": 0}, "group": "control_change"}, {"time": 900, "annotation": {"number": 64, "value": 127}, "group": "control_change"}, {"time": 918, "annotation": {"number": 64, "value": 0}, "group": "control_change"}, {"time": 920, "annotation": {"number": 64, "value": 127}, "group": "control_change"}, {"time": 942, "annotation": {"number": 64, "value": 0}, "group": "control_change"}, {"time": 943, "annotation": {"number": 64, "value": 127}, "group": "control_change"}, {"time": 967, "annotation": {"number": 64, "value": 0}, "group": "control_change"}, {"time": 967, "annotation": {"number": 64, "value": 127}, "group": "control_change"}, {"time": 1013, "annotation": {"number": 64, "value": 0}, "group": "control_change"}, {"time": 1015, "annotation": {"number": 64, "value": 127}, "group": "control_change"}, {"time": 1016, "annotation": {"number": 64, "value": 0}, "group": "control_change"}, {"time": 1016, "annotation": {"number": 64, "value": 127}, "group": "control_change"}, {"time": 1039, "annotation": {"number": 64, "value": 0}, "group": "control_change"}, {"time": 1044, "annotation": {"number": 64, "value": 127}, "group": "control_change"}, {"time": 1062, "annotation": {"number": 64, "value": 0}, "group": "control_change"}, {"time": 1068, "annotation": {"number": 64, "value": 127}, "group": "control_change"}, {"time": 1087, "annotation": {"number": 64, "value": 0}, "group": "control_change"}, {"time": 1092, "annotation": {"number": 64, "value": 127}, "group": "control_change"}, {"time": 1092, "annotation": {"number": 64, "value": 0}, "group": "control_change"}, {"time": 1110, "annotation": {"number": 64, "value": 0}, "group": "control_change"}, {"time": 1116, "annotation": {"number": 64, "value": 127}, "group": "control_change"}, {"time": 1134, "annotation": {"number": 64, "value": 0}, "group": "control_change"}, {"time": 1139, "annotation": {"number": 64, "value": 127}, "group": "control_change"}, {"time": 1158, "annotation": {"number": 64, "value": 0}, "group": "control_change"}, {"time": 1162, "annotation": {"number": 64, "value": 127}, "group": "control_change"}, {"time": 1205, "annotation": {"number": 64, "value": 0}, "group": "control_change"}, {"time": 1209, "annotation": {"number": 64, "value": 127}, "group": "control_change"}, {"time": 1229, "annotation": {"number": 64, "value": 0}, "group": "control_change"}, {"time": 1231, "annotation": {"number": 64, "value": 127}, "group": "control_change"}, {"time": 1231, "annotation": {"number": 64, "value": 0}, "group": "control_change"}, {"time": 1251, "annotation": {"number": 64, "value": 0}, "group": "control_change"}, {"time": 1256, "annotation": {"number": 64, "value": 127}, "group": "control_change"}, {"time": 1279, "annotation": {"number": 64, "value": 0}, "group": "control_change"}, {"time": 1283, "annotation": {"number": 64, "value": 127}, "group": "control_change"}, {"time": 1284, "annotation": {"number": 64, "value": 0}, "group": "control_change"}, {"time": 1284, "annotation": {"number": 64, "value": 127}, "group": "control_change"}, {"time": 1302, "annotation": {"number": 64, "value": 0}, "group": "control_change"}, {"time": 1304, "annotation": {"number": 64, "value": 127}, "group": "control_change"}, {"time": 1326, "annotation": {"number": 64, "value": 0}, "group": "control_change"}, {"time": 1327, "annotation": {"number": 64, "value": 127}, "group": "control_change"}, {"time": 1351, "annotation": {"number": 64, "value": 0}, "group": "control_change"}, {"time": 1351, "annotation": {"number": 64, "value": 127}, "group": "control_change"}, {"time": 1397, "annotation": {"number": 64, "value": 0}, "group": "control_change"}, {"time": 1444, "annotation": {"number": 64, "value": 0}, "group": "control_change"}, {"time": 1448, "annotation": {"number": 64, "value": 127}, "group": "control_change"}, {"time": 1448, "annotation": {"number": 64, "value": 0}, "group": "control_change"}, {"time": 1493, "annotation": {"number": 64, "value": 0}, "group": "control_change"}, {"time": 1496, "annotation": {"number": 64, "value": 127}, "group": "control_change"}, {"time": 1541, "annotation": {"number": 64, "value": 0}, "group": "control_change"}, {"time": 1545, "annotation": {"number": 64, "value": 127}, "group": "control_change"}, {"time": 1567, "annotation": {"number": 64, "value": 0}, "group": "control_change"}, {"time": 1568, "annotation": {"number": 64, "value": 127}, "group": "control_change"}, {"time": 1590, "annotation": {"number": 64, "value": 0}, "group": "control_change"}, {"time": 1593, "annotation": {"number": 64, "value": 127}, "group": "control_change"}, {"time": 1614, "annotation": {"number": 64, "value": 0}, "group": "control_change"}, {"time": 1616, "annotation": {"number": 64, "value": 127}, "group": "control_change"}, {"time": 1638, "annotation": {"number": 64, "value": 0}, "group": "control_change"}, {"time": 1640, "annotation": {"number": 64, "value": 127}, "group": "control_change"}, {"time": 1662, "annotation": {"number": 64, "value": 0}, "group": "control_change"}, {"time": 1664, "annotation": {"number": 64, "value": 127}, "group": "control_change"}, {"time": 1686, "annotation": {"number": 64, "value": 0}, "group": "control_change"}, {"time": 1689, "annotation": {"number": 64, "value": 127}, "group": "control_change"}, {"time": 1709, "annotation": {"number": 64, "value": 0}, "group": "control_change"}, {"time": 1711, "annotation": {"number": 64, "value": 127}, "group": "control_change"}, {"time": 1733, "annotation": {"number": 64, "value": 0}, "group": "control_change"}, {"time": 1736, "annotation": {"number": 64, "value": 127}, "group": "control_change"}, {"time": 1759, "annotation": {"number": 64, "value": 0}, "group": "control_change"}, {"time": 1760, "annotation": {"number": 64, "value": 127}, "group": "control_change"}, {"time": 1781, "annotation": {"number": 64, "value": 0}, "group": "control_change"}, {"time": 1783, "annotation": {"number": 64, "value": 127}, "group": "control_change"}, {"time": 1807, "annotation": {"number": 64, "value": 0}, "group": "control_change"}, {"time": 1808, "annotation": {"number": 64, "value": 127}, "group": "control_change"}, {"time": 1829, "annotation": {"number": 64, "value": 0}, "group": "control_change"}, {"time": 1830, "annotation": {"number": 64, "value": 127}, "group": "control_change"}, {"time": 1878, "annotation": {"number": 64, "value": 0}, "group": "control_change"}, {"time": 1879, "annotation": {"number": 64, "value": 127}, "group": "control_change"}, {"time": 1921, "annotation": {"number": 64, "value": 0}, "group": "control_change"}, {"time": 1927, "annotation": {"number": 64, "value": 127}, "group": "control_change"}, {"time": 1928, "annotation": {"number": 64, "value": 0}, "group": "control_change"}, {"time": 1928, "annotation": {"number": 64, "value": 127}, "group": "control_change"}, {"time": 1951, "annotation": {"number": 64, "value": 0}, "group": "control_change"}, {"time": 1956, "annotation": {"number": 64, "value": 127}, "group": "control_change"}, {"time": 1974, "annotation": {"number": 64, "value": 0}, "group": "control_change"}, {"time": 1980, "annotation": {"number": 64, "value": 127}, "group": "control_change"}, {"time": 1999, "annotation": {"number": 64, "value": 0}, "group": "control_change"}, {"time": 2004, "annotation": {"number": 64, "value": 127}, "group": "control_change"}, {"time": 2004, "annotation": {"number": 64, "value": 0}, "group": "control_change"}, {"time": 2022, "annotation": {"number": 64, "value": 0}, "group": "control_change"}, {"time": 2028, "annotation": {"number": 64, "value": 127}, "group": "control_change"}, {"time": 2046, "annotation": {"number": 64, "value": 0}, "group": "control_change"}, {"time": 2051, "annotation": {"number": 64, "value": 127}, "group": "control_change"}, {"time": 2070, "annotation": {"number": 64, "value": 0}, "group": "control_change"}, {"time": 2074, "annotation": {"number": 64, "value": 127}, "group": "control_change"}, {"time": 2117, "annotation": {"number": 64, "value": 0}, "group": "control_change"}, {"time": 2121, "annotation": {"number": 64, "value": 127}, "group": "control_change"}, {"time": 2141, "annotation": {"number": 64, "value": 0}, "group": "control_change"}, {"time": 2144, "annotation": {"number": 64, "value": 127}, "group": "control_change"}, {"time": 2166, "annotation": {"number": 64, "value": 0}, "group": "control_change"}, {"time": 2168, "annotation": {"number": 64, "value": 127}, "group": "control_change"}, {"time": 2191, "annotation": {"number": 64, "value": 0}, "group": "control_change"}, {"time": 2195, "annotation": {"number": 64, "value": 127}, "group": "control_change"}, {"time": 2196, "annotation": {"number": 64, "value": 0}, "group": "control_change"}, {"time": 2196, "annotation": {"number": 64, "value": 127}, "group": "control_change"}, {"time": 2214, "annotation": {"number": 64, "value": 0}, "group": "control_change"}, {"time": 2216, "annotation": {"number": 64, "value": 127}, "group": "control_change"}, {"time": 2238, "annotation": {"number": 64, "value": 0}, "group": "control_change"}, {"time": 2239, "annotation": {"number": 64, "value": 127}, "group": "control_change"}, {"time": 2263, "annotation": {"number": 64, "value": 0}, "group": "control_change"}, {"time": 2263, "annotation": {"number": 64, "value": 127}, "group": "control_change"}, {"time": 2309, "annotation": {"number": 64, "value": 0}, "group": "control_change"}, {"time": 2311, "annotation": {"number": 64, "value": 127}, "group": "control_change"}, {"time": 2312, "annotation": {"number": 64, "value": 0}, "group": "control_change"}, {"time": 2312, "annotation": {"number": 64, "value": 127}, "group": "control_change"}, {"time": 2335, "annotation": {"number": 64, "value": 0}, "group": "control_change"}, {"time": 2340, "annotation": {"number": 64, "value": 127}, "group": "control_change"}, {"time": 2358, "annotation": {"number": 64, "value": 0}, "group": "control_change"}, {"time": 2364, "annotation": {"number": 64, "value": 127}, "group": "control_change"}, {"time": 2383, "annotation": {"number": 64, "value": 0}, "group": "control_change"}, {"time": 2388, "annotation": {"number": 64, "value": 127}, "group": "control_change"}, {"time": 2388, "annotation": {"number": 64, "value": 0}, "group": "control_change"}, {"time": 2406, "annotation": {"number": 64, "value": 0}, "group": "control_change"}, {"time": 2412, "annotation": {"number": 64, "value": 127}, "group": "control_change"}, {"time": 2430, "annotation": {"number": 64, "value": 0}, "group": "control_change"}, {"time": 2435, "annotation": {"number": 64, "value": 127}, "group": "control_change"}, {"time": 2454, "annotation": {"number": 64, "value": 0}, "group": "control_change"}, {"time": 2458, "annotation": {"number": 64, "value": 127}, "group": "control_change"}, {"time": 2501, "annotation": {"number": 64, "value": 0}, "group": "control_change"}, {"time": 2505, "annotation": {"number": 64, "value": 127}, "group": "control_change"}, {"time": 2525, "annotation": {"number": 64, "value": 0}, "group": "control_change"}, {"time": 2527, "annotation": {"number": 64, "value": 127}, "group": "control_change"}, {"time": 2527, "annotation": {"number": 64, "value": 0}, "group": "control_change"}, {"time": 2547, "annotation": {"number": 64, "value": 0}, "group": "control_change"}, {"time": 2552, "annotation": {"number": 64, "value": 127}, "group": "control_change"}, {"time": 2575, "annotation": {"number": 64, "value": 0}, "group": "control_change"}, {"time": 2579, "annotation": {"number": 64, "value": 127}, "group": "control_change"}, {"time": 2580, "annotation": {"number": 64, "value": 0}, "group": "control_change"}, {"time": 2580, "annotation": {"number": 64, "value": 127}, "group": "control_change"}, {"time": 2598, "annotation": {"number": 64, "value": 0}, "group": "control_change"}, {"time": 2600, "annotation": {"number": 64, "value": 127}, "group": "control_change"}, {"time": 2622, "annotation": {"number": 64, "value": 0}, "group": "control_change"}, {"time": 2623, "annotation": {"number": 64, "value": 127}, "group": "control_change"}, {"time": 2646, "annotation": {"number": 64, "value": 127}, "group": "control_change"}, {"time": 2647, "annotation": {"number": 64, "value": 0}, "group": "control_change"}, {"time": 2647, "annotation": {"number": 64, "value": 127}, "group": "control_change"}, {"time": 2694, "annotation": {"number": 64, "value": 0}, "group": "control_change"}, {"time": 2695, "annotation": {"number": 64, "value": 127}, "group": "control_change"}, {"time": 2742, "annotation": {"number": 64, "value": 0}, "group": "control_change"}, {"time": 2744, "annotation": {"number": 64, "value": 127}, "group": "control_change"}, {"time": 2788, "annotation": {"number": 64, "value": 0}, "group": "control_change"}, {"time": 2790, "annotation": {"number": 64, "value": 127}, "group": "control_change"}, {"time": 2814, "annotation": {"number": 64, "value": 0}, "group": "control_change"}, {"time": 2815, "annotation": {"number": 64, "value": 127}, "group": "control_change"}, {"time": 2839, "annotation": {"number": 64, "value": 127}, "group": "control_change"}, {"time": 2840, "annotation": {"number": 64, "value": 0}, "group": "control_change"}, {"time": 2840, "annotation": {"number": 64, "value": 127}, "group": "control_change"}, {"time": 2863, "annotation": {"number": 64, "value": 0}, "group": "control_change"}, {"time": 2868, "annotation": {"number": 64, "value": 127}, "group": "control_change"}, {"time": 2886, "annotation": {"number": 64, "value": 0}, "group": "control_change"}, {"time": 2892, "annotation": {"number": 64, "value": 127}, "group": "control_change"}, {"time": 2911, "annotation": {"number": 64, "value": 0}, "group": "control_change"}, {"time": 2916, "annotation": {"number": 64, "value": 127}, "group": "control_change"}, {"time": 2916, "annotation": {"number": 64, "value": 0}, "group": "control_change"}, {"time": 2934, "annotation": {"number": 64, "value": 0}, "group": "control_change"}, {"time": 2940, "annotation": {"number": 64, "value": 127}, "group": "control_change"}, {"time": 2958, "annotation": {"number": 64, "value": 0}, "group": "control_change"}, {"time": 2963, "annotation": {"number": 64, "value": 127}, "group": "control_change"}, {"time": 2982, "annotation": {"number": 64, "value": 0}, "group": "control_change"}, {"time": 2986, "annotation": {"number": 64, "value": 127}, "group": "control_change"}, {"time": 3029, "annotation": {"number": 64, "value": 0}, "group": "control_change"}, {"time": 3033, "annotation": {"number": 64, "value": 127}, "group": "control_change"}, {"time": 3053, "annotation": {"number": 64, "value": 0}, "group": "control_change"}, {"time": 3056, "annotation": {"number": 64, "value": 127}, "group": "control_change"}, {"time": 3078, "annotation": {"number": 64, "value": 0}, "group": "control_change"}, {"time": 3080, "annotation": {"number": 64, "value": 127}, "group": "control_change"}, {"time": 3103, "annotation": {"number": 64, "value": 0}, "group": "control_change"}, {"time": 3107, "annotation": {"number": 64, "value": 127}, "group": "control_change"}, {"time": 3108, "annotation": {"number": 64, "value": 0}, "group": "control_change"}, {"time": 3108, "annotation": {"number": 64, "value": 127}, "group": "control_change"}, {"time": 3126, "annotation": {"number": 64, "value": 0}, "group": "control_change"}, {"time": 3128, "annotation": {"number": 64, "value": 127}, "group": "control_change"}, {"time": 3150, "annotation": {"number": 64, "value": 0}, "group": "control_change"}, {"time": 3151, "annotation": {"number": 64, "value": 127}, "group": "control_change"}, {"time": 3175, "annotation": {"number": 64, "value": 0}, "group": "control_change"}, {"time": 3175, "annotation": {"number": 64, "value": 127}, "group": "control_change"}, {"time": 3221, "annotation": {"number": 64, "value": 0}, "group": "control_change"}, {"time": 3225, "annotation": {"number": 64, "value": 127}, "group": "control_change"}, {"time": 3245, "annotation": {"number": 64, "value": 0}, "group": "control_change"}, {"time": 3248, "annotation": {"number": 64, "value": 127}, "group": "control_change"}, {"time": 3270, "annotation": {"number": 64, "value": 0}, "group": "control_change"}, {"time": 3272, "annotation": {"number": 64, "value": 127}, "group": "control_change"}, {"time": 3295, "annotation": {"number": 64, "value": 0}, "group": "control_change"}, {"time": 3299, "annotation": {"number": 64, "value": 127}, "group": "control_change"}, {"time": 3300, "annotation": {"number": 64, "value": 0}, "group": "control_change"}, {"time": 3300, "annotation": {"number": 64, "value": 127}, "group": "control_change"}, {"time": 3318, "annotation": {"number": 64, "value": 0}, "group": "control_change"}, {"time": 3320, "annotation": {"number": 64, "value": 127}, "group": "control_change"}, {"time": 3342, "annotation": {"number": 64, "value": 0}, "group": "control_change"}, {"time": 3343, "annotation": {"number": 64, "value": 127}, "group": "control_change"}, {"time": 3367, "annotation": {"number": 64, "value": 0}, "group": "control_change"}, {"time": 3367, "annotation": {"number": 64, "value": 127}, "group": "control_change"}, {"time": 3413, "annotation": {"number": 64, "value": 0}, "group": "control_change"}, {"time": 3416, "annotation": {"number": 64, "value": 127}, "group": "control_change"}, {"time": 3465, "annotation": {"number": 64, "value": 0}, "group": "control_change"}, {"time": 3466, "annotation": {"number": 64, "value": 127}, "group": "control_change"}, {"time": 3478, "annotation": {"number": 64, "value": 0}, "group": "control_change"}, {"time": 3479, "annotation": {"number": 64, "value": 127}, "group": "control_change"}, {"time": 3490, "annotation": {"number": 64, "value": 0}, "group": "control_change"}, {"time": 3492, "annotation": {"number": 64, "value": 127}, "group": "control_change"}, {"time": 3516, "annotation": {"number": 64, "value": 0}, "group": "control_change"}, {"time": 3518, "annotation": {"number": 64, "value": 127}, "group": "control_change"}, {"time": 3538, "annotation": {"number": 64, "value": 0}, "group": "control_change"}, {"time": 3540, "annotation": {"number": 64, "value": 127}, "group": "control_change"}, {"time": 3564, "annotation": {"number": 64, "value": 127}, "group": "control_change"}, {"time": 3611, "annotation": {"number": 64, "value": 127}, "group": "control_change"}, {"time": 3611, "annotation": {"number": 64, "value": 0}, "group": "control_change"}, {"time": 3654, "annotation": {"number": 64, "value": 0}, "group": "control_change"}, {"time": 3659, "annotation": {"number": 64, "value": 127}, "group": "control_change"}, {"time": 3659, "annotation": {"number": 64, "value": 0}, "group": "control_change"}, {"time": 3670, "annotation": {"number": 64, "value": 0}, "group": "control_change"}, {"time": 3672, "annotation": {"number": 64, "value": 127}, "group": "control_change"}, {"time": 3681, "annotation": {"number": 64, "value": 0}, "group": "control_change"}, {"time": 3684, "annotation": {"number": 64, "value": 127}, "group": "control_change"}, {"time": 3704, "annotation": {"number": 64, "value": 0}, "group": "control_change"}, {"time": 3709, "annotation": {"number": 64, "value": 127}, "group": "control_change"}, {"time": 3710, "annotation": {"number": 64, "value": 0}, "group": "control_change"}, {"time": 3710, "annotation": {"number": 64, "value": 127}, "group": "control_change"}, {"time": 3730, "annotation": {"number": 64, "value": 0}, "group": "control_change"}, {"time": 3735, "annotation": {"number": 64, "value": 127}, "group": "control_change"}, {"time": 3760, "annotation": {"number": 64, "value": 127}, "group": "control_change"}, {"time": 3799, "annotation": {"number": 64, "value": 0}, "group": "control_change"}, {"time": 3801, "annotation": {"number": 64, "value": 127}, "group": "control_change"}, {"time": 3818, "annotation": {"number": 64, "value": 0}, "group": "control_change"}, {"time": 3820, "annotation": {"number": 64, "value": 127}, "group": "control_change"}, {"time": 3916, "annotation": {"number": 64, "value": 0}, "group": "control_change"}]}]}