{"metadata": {"schema_version": "0.2", "title": "None", "source_filename": "673.mid", "source_format": "midi"}, "resolution": 12, "tempos": [{"time": 0, "qpm": 66.000066000066}, {"time": 977, "qpm": 65.25001631250407}, {"time": 984, "qpm": 63.750031875015935}, {"time": 997, "qpm": 62.75001960938113}, {"time": 1008, "qpm": 62.25002723438691}, {"time": 1011, "qpm": 62.00005993339127}, {"time": 1013, "qpm": 61.00003456668625}, {"time": 1016, "qpm": 60.250037656273534}, {"time": 1017, "qpm": 59.250013331253}, {"time": 1020, "qpm": 56.75009245535896}, {"time": 1032, "qpm": 66.000066000066}, {"time": 1368, "qpm": 65.00013541694878}, {"time": 1392, "qpm": 66.000066000066}], "time_signatures": [{"time": 0, "numerator": 1, "denominator": 4}], "tracks": [{"program": 4, "is_drum": false, "name": "MELODY", "notes": [{"time": 206, "pitch": 66, "duration": 5, "velocity": 89}, {"time": 212, "pitch": 69, "duration": 5, "velocity": 87}, {"time": 218, "pitch": 69, "duration": 5, "velocity": 87}, {"time": 224, "pitch": 66, "duration": 2, "velocity": 86}, {"time": 227, "pitch": 69, "duration": 22, "velocity": 87}, {"time": 254, "pitch": 66, "duration": 5, "velocity": 90}, {"time": 260, "pitch": 62, "duration": 5, "velocity": 87}, {"time": 266, "pitch": 62, "duration": 5, "velocity": 89}, {"time": 272, "pitch": 59, "duration": 2, "velocity": 87}, {"time": 275, "pitch": 62, "duration": 23, "velocity": 86}, {"time": 302, "pitch": 66, "duration": 5, "velocity": 85}, {"time": 308, "pitch": 69, "duration": 5, "velocity": 87}, {"time": 314, "pitch": 71, "duration": 8, "velocity": 85}, {"time": 323, "pitch": 69, "duration": 22, "velocity": 86}, {"time": 350, "pitch": 64, "duration": 5, "velocity": 89}, {"time": 356, "pitch": 66, "duration": 5, "velocity": 86}, {"time": 362, "pitch": 69, "duration": 5, "velocity": 86}, {"time": 368, "pitch": 66, "duration": 3, "velocity": 86}, {"time": 371, "pitch": 64, "duration": 21, "velocity": 76}, {"time": 398, "pitch": 66, "duration": 5, "velocity": 86}, {"time": 404, "pitch": 62, "duration": 4, "velocity": 86}, {"time": 410, "pitch": 62, "duration": 6, "velocity": 89}, {"time": 416, "pitch": 59, "duration": 2, "velocity": 86}, {"time": 419, "pitch": 66, "duration": 15, "velocity": 85}, {"time": 440, "pitch": 57, "duration": 2, "velocity": 85}, {"time": 443, "pitch": 59, "duration": 2, "velocity": 86}, {"time": 446, "pitch": 66, "duration": 4, "velocity": 87}, {"time": 452, "pitch": 62, "duration": 4, "velocity": 86}, {"time": 458, "pitch": 62, "duration": 5, "velocity": 86}, {"time": 464, "pitch": 59, "duration": 3, "velocity": 85}, {"time": 467, "pitch": 66, "duration": 18, "velocity": 79}, {"time": 494, "pitch": 66, "duration": 5, "velocity": 85}, {"time": 500, "pitch": 64, "duration": 2, "velocity": 86}, {"time": 503, "pitch": 64, "duration": 5, "velocity": 86}, {"time": 509, "pitch": 62, "duration": 4, "velocity": 85}, {"time": 515, "pitch": 59, "duration": 2, "velocity": 85}, {"time": 518, "pitch": 66, "duration": 5, "velocity": 78}, {"time": 524, "pitch": 64, "duration": 2, "velocity": 85}, {"time": 527, "pitch": 64, "duration": 8, "velocity": 85}, {"time": 542, "pitch": 57, "duration": 4, "velocity": 81}, {"time": 548, "pitch": 69, "duration": 2, "velocity": 87}, {"time": 551, "pitch": 69, "duration": 2, "velocity": 85}, {"time": 554, "pitch": 64, "duration": 5, "velocity": 80}, {"time": 560, "pitch": 66, "duration": 2, "velocity": 81}, {"time": 563, "pitch": 62, "duration": 24, "velocity": 81}, {"time": 590, "pitch": 66, "duration": 5, "velocity": 89}, {"time": 596, "pitch": 69, "duration": 5, "velocity": 87}, {"time": 602, "pitch": 69, "duration": 5, "velocity": 87}, {"time": 608, "pitch": 66, "duration": 2, "velocity": 86}, {"time": 611, "pitch": 69, "duration": 22, "velocity": 87}, {"time": 635, "pitch": 66, "duration": 3, "velocity": 90}, {"time": 638, "pitch": 66, "duration": 5, "velocity": 90}, {"time": 644, "pitch": 62, "duration": 5, "velocity": 87}, {"time": 650, "pitch": 62, "duration": 5, "velocity": 89}, {"time": 656, "pitch": 59, "duration": 2, "velocity": 87}, {"time": 659, "pitch": 62, "duration": 23, "velocity": 86}, {"time": 686, "pitch": 66, "duration": 5, "velocity": 85}, {"time": 692, "pitch": 69, "duration": 5, "velocity": 87}, {"time": 698, "pitch": 71, "duration": 8, "velocity": 85}, {"time": 707, "pitch": 69, "duration": 22, "velocity": 86}, {"time": 731, "pitch": 66, "duration": 5, "velocity": 89}, {"time": 734, "pitch": 64, "duration": 5, "velocity": 89}, {"time": 740, "pitch": 66, "duration": 5, "velocity": 86}, {"time": 746, "pitch": 69, "duration": 5, "velocity": 86}, {"time": 752, "pitch": 66, "duration": 3, "velocity": 86}, {"time": 755, "pitch": 64, "duration": 21, "velocity": 76}, {"time": 782, "pitch": 66, "duration": 5, "velocity": 86}, {"time": 788, "pitch": 62, "duration": 4, "velocity": 86}, {"time": 794, "pitch": 62, "duration": 6, "velocity": 89}, {"time": 800, "pitch": 59, "duration": 2, "velocity": 86}, {"time": 803, "pitch": 66, "duration": 15, "velocity": 85}, {"time": 824, "pitch": 57, "duration": 2, "velocity": 85}, {"time": 827, "pitch": 59, "duration": 2, "velocity": 86}, {"time": 830, "pitch": 66, "duration": 4, "velocity": 87}, {"time": 836, "pitch": 62, "duration": 4, "velocity": 86}, {"time": 842, "pitch": 62, "duration": 5, "velocity": 86}, {"time": 848, "pitch": 59, "duration": 3, "velocity": 85}, {"time": 851, "pitch": 66, "duration": 18, "velocity": 79}, {"time": 878, "pitch": 66, "duration": 5, "velocity": 85}, {"time": 884, "pitch": 64, "duration": 2, "velocity": 86}, {"time": 887, "pitch": 64, "duration": 5, "velocity": 86}, {"time": 893, "pitch": 62, "duration": 4, "velocity": 85}, {"time": 899, "pitch": 59, "duration": 2, "velocity": 85}, {"time": 902, "pitch": 66, "duration": 5, "velocity": 78}, {"time": 908, "pitch": 64, "duration": 2, "velocity": 85}, {"time": 911, "pitch": 64, "duration": 8, "velocity": 85}, {"time": 926, "pitch": 57, "duration": 4, "velocity": 81}, {"time": 932, "pitch": 69, "duration": 2, "velocity": 87}, {"time": 935, "pitch": 69, "duration": 2, "velocity": 85}, {"time": 938, "pitch": 64, "duration": 5, "velocity": 80}, {"time": 944, "pitch": 66, "duration": 2, "velocity": 81}, {"time": 947, "pitch": 62, "duration": 24, "velocity": 81}, {"time": 1022, "pitch": 74, "duration": 4, "velocity": 92}, {"time": 1028, "pitch": 74, "duration": 4, "velocity": 92}, {"time": 1034, "pitch": 66, "duration": 4, "velocity": 88}, {"time": 1040, "pitch": 69, "duration": 20, "velocity": 87}, {"time": 1064, "pitch": 66, "duration": 2, "velocity": 94}, {"time": 1067, "pitch": 64, "duration": 2, "velocity": 87}, {"time": 1070, "pitch": 62, "duration": 4, "velocity": 89}, {"time": 1076, "pitch": 62, "duration": 5, "velocity": 91}, {"time": 1082, "pitch": 71, "duration": 5, "velocity": 89}, {"time": 1088, "pitch": 69, "duration": 20, "velocity": 94}, {"time": 1118, "pitch": 71, "duration": 5, "velocity": 86}, {"time": 1124, "pitch": 71, "duration": 5, "velocity": 87}, {"time": 1130, "pitch": 71, "duration": 5, "velocity": 86}, {"time": 1136, "pitch": 62, "duration": 19, "velocity": 87}, {"time": 1160, "pitch": 59, "duration": 3, "velocity": 89}, {"time": 1163, "pitch": 62, "duration": 3, "velocity": 86}, {"time": 1166, "pitch": 69, "duration": 5, "velocity": 88}, {"time": 1172, "pitch": 66, "duration": 5, "velocity": 85}, {"time": 1178, "pitch": 66, "duration": 4, "velocity": 86}, {"time": 1184, "pitch": 64, "duration": 28, "velocity": 91}, {"time": 1214, "pitch": 74, "duration": 4, "velocity": 92}, {"time": 1220, "pitch": 74, "duration": 4, "velocity": 92}, {"time": 1226, "pitch": 66, "duration": 4, "velocity": 88}, {"time": 1232, "pitch": 69, "duration": 20, "velocity": 87}, {"time": 1256, "pitch": 66, "duration": 2, "velocity": 94}, {"time": 1259, "pitch": 64, "duration": 2, "velocity": 87}, {"time": 1262, "pitch": 62, "duration": 4, "velocity": 89}, {"time": 1268, "pitch": 62, "duration": 5, "velocity": 91}, {"time": 1274, "pitch": 71, "duration": 5, "velocity": 89}, {"time": 1280, "pitch": 69, "duration": 20, "velocity": 94}, {"time": 1310, "pitch": 66, "duration": 5, "velocity": 91}, {"time": 1316, "pitch": 62, "duration": 2, "velocity": 88}, {"time": 1319, "pitch": 62, "duration": 7, "velocity": 88}, {"time": 1328, "pitch": 59, "duration": 2, "velocity": 86}, {"time": 1331, "pitch": 59, "duration": 3, "velocity": 86}, {"time": 1334, "pitch": 66, "duration": 5, "velocity": 86}, {"time": 1340, "pitch": 64, "duration": 2, "velocity": 85}, {"time": 1343, "pitch": 64, "duration": 10, "velocity": 89}, {"time": 1358, "pitch": 57, "duration": 2, "velocity": 87}, {"time": 1361, "pitch": 57, "duration": 2, "velocity": 86}, {"time": 1364, "pitch": 69, "duration": 3, "velocity": 89}, {"time": 1367, "pitch": 69, "duration": 3, "velocity": 89}, {"time": 1370, "pitch": 64, "duration": 3, "velocity": 87}, {"time": 1373, "pitch": 66, "duration": 6, "velocity": 86}, {"time": 1379, "pitch": 62, "duration": 26, "velocity": 86}, {"time": 1790, "pitch": 66, "duration": 5, "velocity": 89}, {"time": 1796, "pitch": 69, "duration": 5, "velocity": 87}, {"time": 1802, "pitch": 69, "duration": 5, "velocity": 87}, {"time": 1808, "pitch": 66, "duration": 2, "velocity": 86}, {"time": 1811, "pitch": 69, "duration": 22, "velocity": 87}, {"time": 1835, "pitch": 66, "duration": 3, "velocity": 90}, {"time": 1838, "pitch": 66, "duration": 5, "velocity": 90}, {"time": 1844, "pitch": 62, "duration": 5, "velocity": 87}, {"time": 1850, "pitch": 62, "duration": 5, "velocity": 89}, {"time": 1856, "pitch": 59, "duration": 2, "velocity": 87}, {"time": 1859, "pitch": 62, "duration": 23, "velocity": 86}, {"time": 1886, "pitch": 66, "duration": 5, "velocity": 85}, {"time": 1892, "pitch": 69, "duration": 5, "velocity": 87}, {"time": 1898, "pitch": 71, "duration": 8, "velocity": 85}, {"time": 1907, "pitch": 69, "duration": 22, "velocity": 86}, {"time": 1931, "pitch": 66, "duration": 5, "velocity": 89}, {"time": 1934, "pitch": 64, "duration": 5, "velocity": 89}, {"time": 1940, "pitch": 66, "duration": 5, "velocity": 86}, {"time": 1946, "pitch": 69, "duration": 5, "velocity": 86}, {"time": 1952, "pitch": 66, "duration": 3, "velocity": 86}, {"time": 1955, "pitch": 64, "duration": 21, "velocity": 76}, {"time": 1982, "pitch": 66, "duration": 5, "velocity": 86}, {"time": 1988, "pitch": 62, "duration": 4, "velocity": 86}, {"time": 1994, "pitch": 62, "duration": 6, "velocity": 89}, {"time": 2000, "pitch": 59, "duration": 2, "velocity": 86}, {"time": 2003, "pitch": 66, "duration": 15, "velocity": 85}, {"time": 2024, "pitch": 57, "duration": 2, "velocity": 85}, {"time": 2027, "pitch": 59, "duration": 2, "velocity": 86}, {"time": 2030, "pitch": 66, "duration": 4, "velocity": 87}, {"time": 2036, "pitch": 62, "duration": 4, "velocity": 86}, {"time": 2042, "pitch": 62, "duration": 5, "velocity": 86}, {"time": 2048, "pitch": 59, "duration": 3, "velocity": 85}, {"time": 2051, "pitch": 66, "duration": 18, "velocity": 79}, {"time": 2078, "pitch": 66, "duration": 5, "velocity": 85}, {"time": 2084, "pitch": 64, "duration": 2, "velocity": 86}, {"time": 2087, "pitch": 64, "duration": 5, "velocity": 86}, {"time": 2093, "pitch": 62, "duration": 4, "velocity": 85}, {"time": 2099, "pitch": 59, "duration": 2, "velocity": 85}, {"time": 2102, "pitch": 66, "duration": 5, "velocity": 78}, {"time": 2108, "pitch": 64, "duration": 2, "velocity": 85}, {"time": 2111, "pitch": 64, "duration": 8, "velocity": 85}, {"time": 2126, "pitch": 57, "duration": 4, "velocity": 81}, {"time": 2132, "pitch": 69, "duration": 2, "velocity": 87}, {"time": 2135, "pitch": 69, "duration": 2, "velocity": 85}, {"time": 2138, "pitch": 64, "duration": 5, "velocity": 80}, {"time": 2144, "pitch": 66, "duration": 2, "velocity": 81}, {"time": 2147, "pitch": 62, "duration": 24, "velocity": 81}, {"time": 2174, "pitch": 74, "duration": 4, "velocity": 92}, {"time": 2180, "pitch": 74, "duration": 4, "velocity": 92}, {"time": 2186, "pitch": 66, "duration": 4, "velocity": 88}, {"time": 2192, "pitch": 69, "duration": 20, "velocity": 87}, {"time": 2216, "pitch": 66, "duration": 2, "velocity": 94}, {"time": 2219, "pitch": 64, "duration": 2, "velocity": 87}, {"time": 2222, "pitch": 62, "duration": 4, "velocity": 89}, {"time": 2228, "pitch": 62, "duration": 5, "velocity": 91}, {"time": 2234, "pitch": 71, "duration": 5, "velocity": 89}, {"time": 2240, "pitch": 69, "duration": 20, "velocity": 94}, {"time": 2270, "pitch": 71, "duration": 5, "velocity": 86}, {"time": 2276, "pitch": 71, "duration": 5, "velocity": 87}, {"time": 2282, "pitch": 71, "duration": 5, "velocity": 86}, {"time": 2288, "pitch": 62, "duration": 19, "velocity": 87}, {"time": 2312, "pitch": 59, "duration": 3, "velocity": 89}, {"time": 2315, "pitch": 62, "duration": 3, "velocity": 86}, {"time": 2318, "pitch": 69, "duration": 5, "velocity": 88}, {"time": 2324, "pitch": 66, "duration": 5, "velocity": 85}, {"time": 2330, "pitch": 66, "duration": 4, "velocity": 86}, {"time": 2336, "pitch": 64, "duration": 28, "velocity": 91}, {"time": 2366, "pitch": 74, "duration": 4, "velocity": 92}, {"time": 2372, "pitch": 74, "duration": 4, "velocity": 92}, {"time": 2378, "pitch": 66, "duration": 4, "velocity": 88}, {"time": 2384, "pitch": 69, "duration": 20, "velocity": 87}, {"time": 2408, "pitch": 66, "duration": 2, "velocity": 94}, {"time": 2411, "pitch": 64, "duration": 2, "velocity": 87}, {"time": 2414, "pitch": 62, "duration": 4, "velocity": 89}, {"time": 2420, "pitch": 62, "duration": 5, "velocity": 91}, {"time": 2426, "pitch": 71, "duration": 5, "velocity": 89}, {"time": 2432, "pitch": 69, "duration": 20, "velocity": 94}, {"time": 2462, "pitch": 66, "duration": 5, "velocity": 91}, {"time": 2468, "pitch": 62, "duration": 2, "velocity": 88}, {"time": 2471, "pitch": 62, "duration": 7, "velocity": 88}, {"time": 2480, "pitch": 59, "duration": 2, "velocity": 86}, {"time": 2483, "pitch": 59, "duration": 3, "velocity": 86}, {"time": 2486, "pitch": 66, "duration": 5, "velocity": 86}, {"time": 2492, "pitch": 64, "duration": 2, "velocity": 85}, {"time": 2495, "pitch": 64, "duration": 10, "velocity": 89}, {"time": 2510, "pitch": 57, "duration": 2, "velocity": 87}, {"time": 2513, "pitch": 57, "duration": 2, "velocity": 86}, {"time": 2516, "pitch": 69, "duration": 3, "velocity": 89}, {"time": 2519, "pitch": 69, "duration": 3, "velocity": 89}, {"time": 2522, "pitch": 64, "duration": 3, "velocity": 87}, {"time": 2525, "pitch": 66, "duration": 6, "velocity": 86}, {"time": 2531, "pitch": 62, "duration": 26, "velocity": 86}, {"time": 2558, "pitch": 74, "duration": 4, "velocity": 92}, {"time": 2564, "pitch": 74, "duration": 4, "velocity": 92}, {"time": 2570, "pitch": 66, "duration": 4, "velocity": 88}, {"time": 2576, "pitch": 69, "duration": 20, "velocity": 87}, {"time": 2600, "pitch": 66, "duration": 2, "velocity": 94}, {"time": 2603, "pitch": 64, "duration": 2, "velocity": 87}, {"time": 2606, "pitch": 62, "duration": 4, "velocity": 89}, {"time": 2612, "pitch": 62, "duration": 5, "velocity": 91}, {"time": 2618, "pitch": 71, "duration": 5, "velocity": 89}, {"time": 2624, "pitch": 69, "duration": 20, "velocity": 94}, {"time": 2654, "pitch": 71, "duration": 5, "velocity": 86}, {"time": 2660, "pitch": 71, "duration": 5, "velocity": 87}, {"time": 2666, "pitch": 71, "duration": 5, "velocity": 86}, {"time": 2672, "pitch": 62, "duration": 19, "velocity": 87}, {"time": 2696, "pitch": 59, "duration": 3, "velocity": 89}, {"time": 2699, "pitch": 62, "duration": 3, "velocity": 86}, {"time": 2702, "pitch": 69, "duration": 5, "velocity": 88}, {"time": 2708, "pitch": 66, "duration": 5, "velocity": 85}, {"time": 2714, "pitch": 66, "duration": 4, "velocity": 86}, {"time": 2720, "pitch": 64, "duration": 28, "velocity": 91}, {"time": 2750, "pitch": 74, "duration": 4, "velocity": 92}, {"time": 2756, "pitch": 74, "duration": 4, "velocity": 92}, {"time": 2762, "pitch": 66, "duration": 4, "velocity": 88}, {"time": 2768, "pitch": 69, "duration": 20, "velocity": 87}, {"time": 2792, "pitch": 66, "duration": 2, "velocity": 94}, {"time": 2795, "pitch": 64, "duration": 2, "velocity": 87}, {"time": 2798, "pitch": 62, "duration": 4, "velocity": 89}, {"time": 2804, "pitch": 62, "duration": 5, "velocity": 91}, {"time": 2810, "pitch": 71, "duration": 5, "velocity": 89}, {"time": 2816, "pitch": 69, "duration": 20, "velocity": 94}, {"time": 2846, "pitch": 66, "duration": 5, "velocity": 91}, {"time": 2852, "pitch": 62, "duration": 2, "velocity": 88}, {"time": 2855, "pitch": 62, "duration": 7, "velocity": 88}, {"time": 2864, "pitch": 59, "duration": 2, "velocity": 86}, {"time": 2867, "pitch": 59, "duration": 3, "velocity": 86}, {"time": 2870, "pitch": 66, "duration": 5, "velocity": 86}, {"time": 2876, "pitch": 64, "duration": 2, "velocity": 85}, {"time": 2879, "pitch": 64, "duration": 10, "velocity": 89}, {"time": 2894, "pitch": 57, "duration": 2, "velocity": 87}, {"time": 2897, "pitch": 57, "duration": 2, "velocity": 86}, {"time": 2900, "pitch": 69, "duration": 3, "velocity": 89}, {"time": 2903, "pitch": 69, "duration": 3, "velocity": 89}, {"time": 2906, "pitch": 64, "duration": 3, "velocity": 87}, {"time": 2909, "pitch": 66, "duration": 9, "velocity": 86}, {"time": 2918, "pitch": 62, "duration": 45, "velocity": 86}]}, {"program": 0, "is_drum": false, "name": "PIANO", "notes": [{"time": 21, "pitch": 57, "duration": 34, "velocity": 77}, {"time": 22, "pitch": 38, "duration": 49, "velocity": 88}, {"time": 22, "pitch": 62, "duration": 35, "velocity": 79}, {"time": 23, "pitch": 66, "duration": 35, "velocity": 81}, {"time": 55, "pitch": 45, "duration": 13, "velocity": 48}, {"time": 62, "pitch": 57, "duration": 5, "velocity": 74}, {"time": 62, "pitch": 66, "duration": 6, "velocity": 74}, {"time": 62, "pitch": 62, "duration": 5, "velocity": 79}, {"time": 86, "pitch": 74, "duration": 2, "velocity": 88}, {"time": 92, "pitch": 57, "duration": 5, "velocity": 52}, {"time": 95, "pitch": 69, "duration": 4, "velocity": 80}, {"time": 95, "pitch": 62, "duration": 4, "velocity": 78}, {"time": 109, "pitch": 62, "duration": 8, "velocity": 69}, {"time": 109, "pitch": 66, "duration": 7, "velocity": 72}, {"time": 110, "pitch": 57, "duration": 59, "velocity": 78}, {"time": 110, "pitch": 50, "duration": 97, "velocity": 82}, {"time": 110, "pitch": 69, "duration": 6, "velocity": 74}, {"time": 128, "pitch": 62, "duration": 3, "velocity": 75}, {"time": 134, "pitch": 62, "duration": 2, "velocity": 78}, {"time": 134, "pitch": 74, "duration": 1, "velocity": 86}, {"time": 143, "pitch": 69, "duration": 2, "velocity": 73}, {"time": 143, "pitch": 62, "duration": 2, "velocity": 69}, {"time": 176, "pitch": 57, "duration": 11, "velocity": 57}, {"time": 191, "pitch": 57, "duration": 5, "velocity": 71}, {"time": 194, "pitch": 62, "duration": 3, "velocity": 80}, {"time": 197, "pitch": 57, "duration": 11, "velocity": 75}, {"time": 200, "pitch": 64, "duration": 4, "velocity": 77}, {"time": 206, "pitch": 50, "duration": 1, "velocity": 87}, {"time": 206, "pitch": 62, "duration": 12, "velocity": 82}, {"time": 212, "pitch": 57, "duration": 20, "velocity": 74}, {"time": 218, "pitch": 64, "duration": 7, "velocity": 86}, {"time": 224, "pitch": 66, "duration": 15, "velocity": 89}, {"time": 230, "pitch": 49, "duration": 18, "velocity": 83}, {"time": 236, "pitch": 57, "duration": 11, "velocity": 64}, {"time": 242, "pitch": 61, "duration": 5, "velocity": 78}, {"time": 242, "pitch": 69, "duration": 7, "velocity": 83}, {"time": 254, "pitch": 47, "duration": 20, "velocity": 81}, {"time": 254, "pitch": 59, "duration": 10, "velocity": 72}, {"time": 254, "pitch": 62, "duration": 8, "velocity": 75}, {"time": 260, "pitch": 54, "duration": 22, "velocity": 57}, {"time": 266, "pitch": 62, "duration": 21, "velocity": 85}, {"time": 266, "pitch": 66, "duration": 21, "velocity": 86}, {"time": 272, "pitch": 59, "duration": 8, "velocity": 80}, {"time": 278, "pitch": 45, "duration": 18, "velocity": 85}, {"time": 284, "pitch": 57, "duration": 13, "velocity": 79}, {"time": 290, "pitch": 62, "duration": 5, "velocity": 79}, {"time": 290, "pitch": 66, "duration": 4, "velocity": 73}, {"time": 302, "pitch": 43, "duration": 15, "velocity": 83}, {"time": 302, "pitch": 55, "duration": 11, "velocity": 77}, {"time": 302, "pitch": 62, "duration": 8, "velocity": 82}, {"time": 308, "pitch": 50, "duration": 9, "velocity": 72}, {"time": 314, "pitch": 55, "duration": 1, "velocity": 70}, {"time": 314, "pitch": 59, "duration": 2, "velocity": 86}, {"time": 314, "pitch": 62, "duration": 3, "velocity": 85}, {"time": 326, "pitch": 42, "duration": 16, "velocity": 71}, {"time": 326, "pitch": 61, "duration": 10, "velocity": 77}, {"time": 326, "pitch": 66, "duration": 14, "velocity": 78}, {"time": 332, "pitch": 49, "duration": 10, "velocity": 57}, {"time": 338, "pitch": 57, "duration": 5, "velocity": 85}, {"time": 350, "pitch": 40, "duration": 17, "velocity": 86}, {"time": 350, "pitch": 59, "duration": 10, "velocity": 79}, {"time": 350, "pitch": 64, "duration": 10, "velocity": 85}, {"time": 356, "pitch": 47, "duration": 11, "velocity": 78}, {"time": 362, "pitch": 59, "duration": 5, "velocity": 82}, {"time": 362, "pitch": 67, "duration": 6, "velocity": 80}, {"time": 374, "pitch": 45, "duration": 20, "velocity": 79}, {"time": 374, "pitch": 57, "duration": 13, "velocity": 75}, {"time": 374, "pitch": 64, "duration": 7, "velocity": 84}, {"time": 380, "pitch": 52, "duration": 15, "velocity": 80}, {"time": 386, "pitch": 61, "duration": 6, "velocity": 86}, {"time": 386, "pitch": 69, "duration": 12, "velocity": 86}, {"time": 392, "pitch": 57, "duration": 2, "velocity": 88}, {"time": 398, "pitch": 47, "duration": 20, "velocity": 87}, {"time": 398, "pitch": 59, "duration": 13, "velocity": 80}, {"time": 398, "pitch": 62, "duration": 9, "velocity": 83}, {"time": 404, "pitch": 54, "duration": 22, "velocity": 71}, {"time": 410, "pitch": 62, "duration": 7, "velocity": 85}, {"time": 410, "pitch": 66, "duration": 8, "velocity": 87}, {"time": 416, "pitch": 59, "duration": 2, "velocity": 77}, {"time": 422, "pitch": 46, "duration": 18, "velocity": 84}, {"time": 422, "pitch": 58, "duration": 11, "velocity": 77}, {"time": 422, "pitch": 62, "duration": 7, "velocity": 85}, {"time": 422, "pitch": 66, "duration": 7, "velocity": 76}, {"time": 428, "pitch": 54, "duration": 18, "velocity": 66}, {"time": 434, "pitch": 62, "duration": 5, "velocity": 86}, {"time": 434, "pitch": 66, "duration": 4, "velocity": 85}, {"time": 446, "pitch": 45, "duration": 18, "velocity": 83}, {"time": 446, "pitch": 62, "duration": 9, "velocity": 85}, {"time": 446, "pitch": 66, "duration": 9, "velocity": 79}, {"time": 452, "pitch": 54, "duration": 11, "velocity": 65}, {"time": 452, "pitch": 57, "duration": 8, "velocity": 73}, {"time": 458, "pitch": 62, "duration": 6, "velocity": 86}, {"time": 458, "pitch": 66, "duration": 6, "velocity": 87}, {"time": 464, "pitch": 57, "duration": 3, "velocity": 85}, {"time": 470, "pitch": 43, "duration": 15, "velocity": 82}, {"time": 470, "pitch": 55, "duration": 8, "velocity": 78}, {"time": 470, "pitch": 59, "duration": 7, "velocity": 75}, {"time": 470, "pitch": 62, "duration": 7, "velocity": 81}, {"time": 476, "pitch": 50, "duration": 9, "velocity": 63}, {"time": 482, "pitch": 55, "duration": 2, "velocity": 86}, {"time": 482, "pitch": 59, "duration": 2, "velocity": 87}, {"time": 482, "pitch": 62, "duration": 3, "velocity": 86}, {"time": 494, "pitch": 42, "duration": 14, "velocity": 80}, {"time": 494, "pitch": 61, "duration": 9, "velocity": 85}, {"time": 494, "pitch": 66, "duration": 10, "velocity": 80}, {"time": 500, "pitch": 49, "duration": 8, "velocity": 62}, {"time": 506, "pitch": 57, "duration": 2, "velocity": 84}, {"time": 506, "pitch": 61, "duration": 2, "velocity": 86}, {"time": 506, "pitch": 66, "duration": 3, "velocity": 80}, {"time": 518, "pitch": 52, "duration": 13, "velocity": 86}, {"time": 518, "pitch": 59, "duration": 3, "velocity": 81}, {"time": 518, "pitch": 64, "duration": 7, "velocity": 85}, {"time": 518, "pitch": 67, "duration": 7, "velocity": 79}, {"time": 524, "pitch": 59, "duration": 3, "velocity": 78}, {"time": 530, "pitch": 59, "duration": 2, "velocity": 85}, {"time": 530, "pitch": 64, "duration": 2, "velocity": 88}, {"time": 530, "pitch": 67, "duration": 3, "velocity": 81}, {"time": 542, "pitch": 45, "duration": 16, "velocity": 85}, {"time": 542, "pitch": 57, "duration": 13, "velocity": 78}, {"time": 542, "pitch": 64, "duration": 12, "velocity": 84}, {"time": 548, "pitch": 52, "duration": 10, "velocity": 82}, {"time": 554, "pitch": 61, "duration": 6, "velocity": 94}, {"time": 560, "pitch": 57, "duration": 7, "velocity": 92}, {"time": 566, "pitch": 38, "duration": 19, "velocity": 86}, {"time": 566, "pitch": 62, "duration": 8, "velocity": 86}, {"time": 572, "pitch": 57, "duration": 7, "velocity": 86}, {"time": 578, "pitch": 64, "duration": 4, "velocity": 91}, {"time": 581, "pitch": 57, "duration": 4, "velocity": 83}, {"time": 584, "pitch": 62, "duration": 3, "velocity": 80}, {"time": 590, "pitch": 50, "duration": 23, "velocity": 85}, {"time": 590, "pitch": 57, "duration": 4, "velocity": 73}, {"time": 590, "pitch": 62, "duration": 8, "velocity": 81}, {"time": 590, "pitch": 66, "duration": 8, "velocity": 76}, {"time": 596, "pitch": 57, "duration": 8, "velocity": 71}, {"time": 602, "pitch": 62, "duration": 7, "velocity": 85}, {"time": 602, "pitch": 66, "duration": 7, "velocity": 85}, {"time": 608, "pitch": 57, "duration": 7, "velocity": 84}, {"time": 614, "pitch": 49, "duration": 15, "velocity": 86}, {"time": 614, "pitch": 61, "duration": 7, "velocity": 80}, {"time": 614, "pitch": 66, "duration": 7, "velocity": 79}, {"time": 620, "pitch": 57, "duration": 5, "velocity": 76}, {"time": 626, "pitch": 61, "duration": 6, "velocity": 92}, {"time": 626, "pitch": 66, "duration": 9, "velocity": 85}, {"time": 632, "pitch": 49, "duration": 6, "velocity": 86}, {"time": 638, "pitch": 47, "duration": 20, "velocity": 88}, {"time": 638, "pitch": 59, "duration": 10, "velocity": 78}, {"time": 638, "pitch": 62, "duration": 9, "velocity": 82}, {"time": 638, "pitch": 66, "duration": 10, "velocity": 77}, {"time": 644, "pitch": 54, "duration": 11, "velocity": 53}, {"time": 650, "pitch": 59, "duration": 6, "velocity": 85}, {"time": 650, "pitch": 62, "duration": 7, "velocity": 88}, {"time": 650, "pitch": 66, "duration": 9, "velocity": 86}, {"time": 656, "pitch": 54, "duration": 5, "velocity": 77}, {"time": 662, "pitch": 45, "duration": 18, "velocity": 86}, {"time": 662, "pitch": 57, "duration": 11, "velocity": 78}, {"time": 662, "pitch": 61, "duration": 10, "velocity": 75}, {"time": 668, "pitch": 52, "duration": 9, "velocity": 73}, {"time": 674, "pitch": 61, "duration": 6, "velocity": 87}, {"time": 674, "pitch": 66, "duration": 6, "velocity": 86}, {"time": 680, "pitch": 57, "duration": 2, "velocity": 88}, {"time": 686, "pitch": 43, "duration": 16, "velocity": 85}, {"time": 686, "pitch": 55, "duration": 7, "velocity": 78}, {"time": 686, "pitch": 59, "duration": 6, "velocity": 80}, {"time": 692, "pitch": 50, "duration": 9, "velocity": 73}, {"time": 698, "pitch": 55, "duration": 7, "velocity": 86}, {"time": 698, "pitch": 59, "duration": 7, "velocity": 86}, {"time": 698, "pitch": 62, "duration": 8, "velocity": 86}, {"time": 704, "pitch": 43, "duration": 3, "velocity": 87}, {"time": 710, "pitch": 42, "duration": 15, "velocity": 90}, {"time": 710, "pitch": 57, "duration": 7, "velocity": 73}, {"time": 710, "pitch": 61, "duration": 8, "velocity": 82}, {"time": 716, "pitch": 49, "duration": 10, "velocity": 73}, {"time": 722, "pitch": 57, "duration": 5, "velocity": 85}, {"time": 722, "pitch": 61, "duration": 4, "velocity": 94}, {"time": 722, "pitch": 66, "duration": 5, "velocity": 85}, {"time": 728, "pitch": 42, "duration": 2, "velocity": 85}, {"time": 734, "pitch": 40, "duration": 15, "velocity": 88}, {"time": 734, "pitch": 59, "duration": 6, "velocity": 83}, {"time": 734, "pitch": 67, "duration": 8, "velocity": 81}, {"time": 740, "pitch": 47, "duration": 8, "velocity": 70}, {"time": 746, "pitch": 59, "duration": 7, "velocity": 87}, {"time": 746, "pitch": 64, "duration": 7, "velocity": 94}, {"time": 746, "pitch": 67, "duration": 7, "velocity": 86}, {"time": 752, "pitch": 43, "duration": 2, "velocity": 86}, {"time": 758, "pitch": 45, "duration": 21, "velocity": 87}, {"time": 758, "pitch": 57, "duration": 6, "velocity": 80}, {"time": 758, "pitch": 61, "duration": 6, "velocity": 80}, {"time": 758, "pitch": 64, "duration": 6, "velocity": 86}, {"time": 764, "pitch": 52, "duration": 8, "velocity": 81}, {"time": 767, "pitch": 57, "duration": 2, "velocity": 82}, {"time": 770, "pitch": 57, "duration": 3, "velocity": 88}, {"time": 770, "pitch": 61, "duration": 4, "velocity": 91}, {"time": 770, "pitch": 69, "duration": 5, "velocity": 85}, {"time": 773, "pitch": 52, "duration": 7, "velocity": 90}, {"time": 776, "pitch": 57, "duration": 3, "velocity": 91}, {"time": 782, "pitch": 47, "duration": 20, "velocity": 84}, {"time": 782, "pitch": 59, "duration": 7, "velocity": 81}, {"time": 782, "pitch": 62, "duration": 8, "velocity": 81}, {"time": 782, "pitch": 66, "duration": 8, "velocity": 80}, {"time": 788, "pitch": 54, "duration": 10, "velocity": 69}, {"time": 794, "pitch": 59, "duration": 8, "velocity": 86}, {"time": 794, "pitch": 62, "duration": 7, "velocity": 86}, {"time": 794, "pitch": 66, "duration": 8, "velocity": 85}, {"time": 800, "pitch": 54, "duration": 8, "velocity": 77}, {"time": 806, "pitch": 46, "duration": 16, "velocity": 86}, {"time": 806, "pitch": 58, "duration": 8, "velocity": 75}, {"time": 806, "pitch": 62, "duration": 7, "velocity": 86}, {"time": 806, "pitch": 66, "duration": 7, "velocity": 85}, {"time": 812, "pitch": 54, "duration": 8, "velocity": 69}, {"time": 818, "pitch": 58, "duration": 7, "velocity": 83}, {"time": 818, "pitch": 62, "duration": 8, "velocity": 86}, {"time": 818, "pitch": 66, "duration": 7, "velocity": 83}, {"time": 824, "pitch": 54, "duration": 7, "velocity": 83}, {"time": 830, "pitch": 45, "duration": 23, "velocity": 86}, {"time": 830, "pitch": 57, "duration": 7, "velocity": 78}, {"time": 830, "pitch": 62, "duration": 7, "velocity": 84}, {"time": 830, "pitch": 66, "duration": 7, "velocity": 79}, {"time": 836, "pitch": 54, "duration": 9, "velocity": 76}, {"time": 842, "pitch": 57, "duration": 10, "velocity": 83}, {"time": 842, "pitch": 62, "duration": 8, "velocity": 87}, {"time": 842, "pitch": 66, "duration": 8, "velocity": 83}, {"time": 848, "pitch": 54, "duration": 4, "velocity": 74}, {"time": 854, "pitch": 43, "duration": 15, "velocity": 86}, {"time": 854, "pitch": 55, "duration": 8, "velocity": 81}, {"time": 854, "pitch": 62, "duration": 5, "velocity": 83}, {"time": 860, "pitch": 50, "duration": 8, "velocity": 78}, {"time": 866, "pitch": 55, "duration": 3, "velocity": 87}, {"time": 866, "pitch": 59, "duration": 3, "velocity": 88}, {"time": 866, "pitch": 62, "duration": 4, "velocity": 87}, {"time": 872, "pitch": 43, "duration": 2, "velocity": 85}, {"time": 878, "pitch": 42, "duration": 14, "velocity": 83}, {"time": 878, "pitch": 57, "duration": 8, "velocity": 84}, {"time": 878, "pitch": 61, "duration": 8, "velocity": 85}, {"time": 878, "pitch": 66, "duration": 8, "velocity": 78}, {"time": 884, "pitch": 49, "duration": 10, "velocity": 67}, {"time": 890, "pitch": 57, "duration": 3, "velocity": 86}, {"time": 890, "pitch": 61, "duration": 3, "velocity": 99}, {"time": 890, "pitch": 66, "duration": 4, "velocity": 85}, {"time": 896, "pitch": 42, "duration": 2, "velocity": 88}, {"time": 902, "pitch": 40, "duration": 14, "velocity": 86}, {"time": 902, "pitch": 59, "duration": 4, "velocity": 82}, {"time": 902, "pitch": 64, "duration": 7, "velocity": 86}, {"time": 908, "pitch": 59, "duration": 3, "velocity": 86}, {"time": 914, "pitch": 59, "duration": 3, "velocity": 86}, {"time": 914, "pitch": 64, "duration": 6, "velocity": 91}, {"time": 914, "pitch": 67, "duration": 6, "velocity": 85}, {"time": 920, "pitch": 59, "duration": 2, "velocity": 85}, {"time": 926, "pitch": 45, "duration": 15, "velocity": 85}, {"time": 926, "pitch": 57, "duration": 7, "velocity": 80}, {"time": 926, "pitch": 61, "duration": 7, "velocity": 84}, {"time": 926, "pitch": 64, "duration": 8, "velocity": 85}, {"time": 932, "pitch": 52, "duration": 9, "velocity": 75}, {"time": 938, "pitch": 57, "duration": 5, "velocity": 81}, {"time": 938, "pitch": 61, "duration": 5, "velocity": 86}, {"time": 938, "pitch": 64, "duration": 5, "velocity": 87}, {"time": 944, "pitch": 45, "duration": 5, "velocity": 86}, {"time": 950, "pitch": 50, "duration": 14, "velocity": 88}, {"time": 950, "pitch": 57, "duration": 3, "velocity": 81}, {"time": 950, "pitch": 62, "duration": 9, "velocity": 85}, {"time": 950, "pitch": 66, "duration": 7, "velocity": 85}, {"time": 956, "pitch": 57, "duration": 4, "velocity": 69}, {"time": 962, "pitch": 57, "duration": 4, "velocity": 87}, {"time": 962, "pitch": 62, "duration": 4, "velocity": 92}, {"time": 962, "pitch": 66, "duration": 5, "velocity": 86}, {"time": 965, "pitch": 50, "duration": 3, "velocity": 89}, {"time": 968, "pitch": 57, "duration": 5, "velocity": 89}, {"time": 971, "pitch": 62, "duration": 2, "velocity": 81}, {"time": 974, "pitch": 38, "duration": 13, "velocity": 88}, {"time": 975, "pitch": 66, "duration": 7, "velocity": 81}, {"time": 975, "pitch": 62, "duration": 7, "velocity": 86}, {"time": 986, "pitch": 66, "duration": 6, "velocity": 81}, {"time": 986, "pitch": 62, "duration": 7, "velocity": 86}, {"time": 986, "pitch": 57, "duration": 3, "velocity": 81}, {"time": 992, "pitch": 57, "duration": 4, "velocity": 69}, {"time": 998, "pitch": 57, "duration": 3, "velocity": 77}, {"time": 998, "pitch": 38, "duration": 1, "velocity": 87}, {"time": 998, "pitch": 62, "duration": 4, "velocity": 81}, {"time": 998, "pitch": 66, "duration": 5, "velocity": 75}, {"time": 1003, "pitch": 57, "duration": 3, "velocity": 86}, {"time": 1004, "pitch": 62, "duration": 1, "velocity": 50}, {"time": 1009, "pitch": 57, "duration": 3, "velocity": 86}, {"time": 1009, "pitch": 66, "duration": 11, "velocity": 87}, {"time": 1009, "pitch": 62, "duration": 4, "velocity": 92}, {"time": 1015, "pitch": 57, "duration": 7, "velocity": 87}, {"time": 1015, "pitch": 62, "duration": 5, "velocity": 65}, {"time": 1022, "pitch": 38, "duration": 13, "velocity": 92}, {"time": 1022, "pitch": 57, "duration": 4, "velocity": 80}, {"time": 1022, "pitch": 62, "duration": 7, "velocity": 86}, {"time": 1022, "pitch": 66, "duration": 7, "velocity": 85}, {"time": 1028, "pitch": 57, "duration": 3, "velocity": 74}, {"time": 1034, "pitch": 57, "duration": 2, "velocity": 87}, {"time": 1034, "pitch": 62, "duration": 1, "velocity": 86}, {"time": 1034, "pitch": 66, "duration": 2, "velocity": 80}, {"time": 1040, "pitch": 45, "duration": 24, "velocity": 86}, {"time": 1040, "pitch": 57, "duration": 9, "velocity": 80}, {"time": 1040, "pitch": 61, "duration": 9, "velocity": 80}, {"time": 1052, "pitch": 64, "duration": 2, "velocity": 83}, {"time": 1058, "pitch": 57, "duration": 4, "velocity": 86}, {"time": 1058, "pitch": 61, "duration": 4, "velocity": 90}, {"time": 1058, "pitch": 64, "duration": 4, "velocity": 94}, {"time": 1058, "pitch": 69, "duration": 6, "velocity": 86}, {"time": 1061, "pitch": 52, "duration": 4, "velocity": 86}, {"time": 1064, "pitch": 57, "duration": 2, "velocity": 92}, {"time": 1070, "pitch": 47, "duration": 15, "velocity": 86}, {"time": 1070, "pitch": 59, "duration": 6, "velocity": 84}, {"time": 1070, "pitch": 62, "duration": 7, "velocity": 84}, {"time": 1076, "pitch": 54, "duration": 8, "velocity": 60}, {"time": 1082, "pitch": 59, "duration": 2, "velocity": 84}, {"time": 1082, "pitch": 62, "duration": 2, "velocity": 86}, {"time": 1082, "pitch": 66, "duration": 3, "velocity": 92}, {"time": 1088, "pitch": 45, "duration": 23, "velocity": 85}, {"time": 1088, "pitch": 57, "duration": 15, "velocity": 85}, {"time": 1088, "pitch": 61, "duration": 13, "velocity": 86}, {"time": 1100, "pitch": 64, "duration": 3, "velocity": 87}, {"time": 1106, "pitch": 57, "duration": 4, "velocity": 86}, {"time": 1106, "pitch": 61, "duration": 4, "velocity": 96}, {"time": 1106, "pitch": 64, "duration": 4, "velocity": 94}, {"time": 1106, "pitch": 69, "duration": 5, "velocity": 86}, {"time": 1109, "pitch": 52, "duration": 2, "velocity": 90}, {"time": 1112, "pitch": 57, "duration": 2, "velocity": 89}, {"time": 1118, "pitch": 43, "duration": 16, "velocity": 86}, {"time": 1118, "pitch": 55, "duration": 7, "velocity": 80}, {"time": 1118, "pitch": 59, "duration": 7, "velocity": 81}, {"time": 1124, "pitch": 50, "duration": 8, "velocity": 69}, {"time": 1130, "pitch": 55, "duration": 3, "velocity": 85}, {"time": 1130, "pitch": 59, "duration": 7, "velocity": 91}, {"time": 1130, "pitch": 62, "duration": 7, "velocity": 89}, {"time": 1136, "pitch": 55, "duration": 4, "velocity": 85}, {"time": 1142, "pitch": 43, "duration": 17, "velocity": 84}, {"time": 1142, "pitch": 55, "duration": 5, "velocity": 75}, {"time": 1142, "pitch": 59, "duration": 6, "velocity": 78}, {"time": 1142, "pitch": 62, "duration": 6, "velocity": 75}, {"time": 1148, "pitch": 50, "duration": 7, "velocity": 68}, {"time": 1154, "pitch": 55, "duration": 3, "velocity": 92}, {"time": 1154, "pitch": 62, "duration": 4, "velocity": 90}, {"time": 1157, "pitch": 50, "duration": 3, "velocity": 87}, {"time": 1160, "pitch": 55, "duration": 5, "velocity": 87}, {"time": 1163, "pitch": 59, "duration": 2, "velocity": 80}, {"time": 1166, "pitch": 40, "duration": 16, "velocity": 86}, {"time": 1166, "pitch": 52, "duration": 7, "velocity": 78}, {"time": 1166, "pitch": 55, "duration": 7, "velocity": 86}, {"time": 1172, "pitch": 47, "duration": 8, "velocity": 70}, {"time": 1178, "pitch": 52, "duration": 4, "velocity": 89}, {"time": 1178, "pitch": 55, "duration": 4, "velocity": 90}, {"time": 1178, "pitch": 59, "duration": 4, "velocity": 89}, {"time": 1181, "pitch": 47, "duration": 2, "velocity": 91}, {"time": 1184, "pitch": 52, "duration": 2, "velocity": 89}, {"time": 1190, "pitch": 45, "duration": 20, "velocity": 88}, {"time": 1190, "pitch": 57, "duration": 3, "velocity": 85}, {"time": 1190, "pitch": 61, "duration": 4, "velocity": 81}, {"time": 1193, "pitch": 52, "duration": 10, "velocity": 82}, {"time": 1196, "pitch": 57, "duration": 4, "velocity": 87}, {"time": 1199, "pitch": 61, "duration": 2, "velocity": 96}, {"time": 1202, "pitch": 57, "duration": 3, "velocity": 87}, {"time": 1202, "pitch": 61, "duration": 4, "velocity": 111}, {"time": 1202, "pitch": 69, "duration": 4, "velocity": 87}, {"time": 1205, "pitch": 52, "duration": 5, "velocity": 88}, {"time": 1208, "pitch": 57, "duration": 4, "velocity": 90}, {"time": 1214, "pitch": 38, "duration": 13, "velocity": 92}, {"time": 1214, "pitch": 57, "duration": 4, "velocity": 80}, {"time": 1214, "pitch": 62, "duration": 7, "velocity": 86}, {"time": 1214, "pitch": 66, "duration": 7, "velocity": 85}, {"time": 1220, "pitch": 57, "duration": 3, "velocity": 74}, {"time": 1226, "pitch": 57, "duration": 2, "velocity": 87}, {"time": 1226, "pitch": 62, "duration": 1, "velocity": 86}, {"time": 1226, "pitch": 66, "duration": 2, "velocity": 80}, {"time": 1232, "pitch": 45, "duration": 24, "velocity": 86}, {"time": 1232, "pitch": 57, "duration": 9, "velocity": 80}, {"time": 1232, "pitch": 61, "duration": 9, "velocity": 80}, {"time": 1244, "pitch": 64, "duration": 2, "velocity": 83}, {"time": 1250, "pitch": 57, "duration": 4, "velocity": 86}, {"time": 1250, "pitch": 61, "duration": 4, "velocity": 90}, {"time": 1250, "pitch": 64, "duration": 4, "velocity": 94}, {"time": 1250, "pitch": 69, "duration": 6, "velocity": 86}, {"time": 1253, "pitch": 52, "duration": 4, "velocity": 86}, {"time": 1256, "pitch": 57, "duration": 2, "velocity": 92}, {"time": 1262, "pitch": 47, "duration": 15, "velocity": 86}, {"time": 1262, "pitch": 59, "duration": 6, "velocity": 84}, {"time": 1262, "pitch": 62, "duration": 7, "velocity": 84}, {"time": 1268, "pitch": 54, "duration": 8, "velocity": 60}, {"time": 1274, "pitch": 59, "duration": 2, "velocity": 84}, {"time": 1274, "pitch": 62, "duration": 2, "velocity": 86}, {"time": 1274, "pitch": 66, "duration": 3, "velocity": 92}, {"time": 1280, "pitch": 45, "duration": 23, "velocity": 85}, {"time": 1280, "pitch": 57, "duration": 15, "velocity": 85}, {"time": 1280, "pitch": 61, "duration": 13, "velocity": 86}, {"time": 1292, "pitch": 64, "duration": 3, "velocity": 87}, {"time": 1298, "pitch": 57, "duration": 4, "velocity": 86}, {"time": 1298, "pitch": 61, "duration": 4, "velocity": 96}, {"time": 1298, "pitch": 64, "duration": 4, "velocity": 94}, {"time": 1298, "pitch": 69, "duration": 5, "velocity": 86}, {"time": 1301, "pitch": 52, "duration": 2, "velocity": 90}, {"time": 1304, "pitch": 57, "duration": 2, "velocity": 89}, {"time": 1310, "pitch": 43, "duration": 16, "velocity": 86}, {"time": 1310, "pitch": 55, "duration": 7, "velocity": 80}, {"time": 1310, "pitch": 59, "duration": 7, "velocity": 81}, {"time": 1316, "pitch": 50, "duration": 8, "velocity": 69}, {"time": 1322, "pitch": 55, "duration": 3, "velocity": 85}, {"time": 1322, "pitch": 59, "duration": 7, "velocity": 91}, {"time": 1322, "pitch": 62, "duration": 7, "velocity": 89}, {"time": 1328, "pitch": 55, "duration": 4, "velocity": 85}, {"time": 1334, "pitch": 40, "duration": 15, "velocity": 87}, {"time": 1334, "pitch": 59, "duration": 5, "velocity": 82}, {"time": 1334, "pitch": 67, "duration": 7, "velocity": 80}, {"time": 1340, "pitch": 47, "duration": 9, "velocity": 68}, {"time": 1346, "pitch": 59, "duration": 2, "velocity": 85}, {"time": 1346, "pitch": 64, "duration": 4, "velocity": 89}, {"time": 1346, "pitch": 67, "duration": 6, "velocity": 86}, {"time": 1352, "pitch": 59, "duration": 2, "velocity": 87}, {"time": 1358, "pitch": 45, "duration": 20, "velocity": 86}, {"time": 1358, "pitch": 57, "duration": 5, "velocity": 81}, {"time": 1358, "pitch": 61, "duration": 5, "velocity": 85}, {"time": 1358, "pitch": 64, "duration": 4, "velocity": 86}, {"time": 1364, "pitch": 52, "duration": 7, "velocity": 76}, {"time": 1367, "pitch": 57, "duration": 2, "velocity": 82}, {"time": 1370, "pitch": 57, "duration": 3, "velocity": 86}, {"time": 1370, "pitch": 61, "duration": 4, "velocity": 90}, {"time": 1370, "pitch": 64, "duration": 4, "velocity": 89}, {"time": 1370, "pitch": 69, "duration": 4, "velocity": 85}, {"time": 1373, "pitch": 52, "duration": 4, "velocity": 84}, {"time": 1376, "pitch": 57, "duration": 3, "velocity": 86}, {"time": 1382, "pitch": 50, "duration": 25, "velocity": 85}, {"time": 1382, "pitch": 57, "duration": 3, "velocity": 81}, {"time": 1382, "pitch": 62, "duration": 8, "velocity": 84}, {"time": 1388, "pitch": 57, "duration": 3, "velocity": 79}, {"time": 1394, "pitch": 57, "duration": 2, "velocity": 86}, {"time": 1394, "pitch": 66, "duration": 4, "velocity": 88}, {"time": 1397, "pitch": 57, "duration": 3, "velocity": 82}, {"time": 1400, "pitch": 64, "duration": 6, "velocity": 85}, {"time": 1403, "pitch": 57, "duration": 3, "velocity": 80}, {"time": 1790, "pitch": 50, "duration": 23, "velocity": 85}, {"time": 1790, "pitch": 57, "duration": 4, "velocity": 73}, {"time": 1790, "pitch": 62, "duration": 8, "velocity": 81}, {"time": 1790, "pitch": 66, "duration": 8, "velocity": 76}, {"time": 1796, "pitch": 57, "duration": 8, "velocity": 71}, {"time": 1802, "pitch": 62, "duration": 7, "velocity": 85}, {"time": 1802, "pitch": 66, "duration": 7, "velocity": 85}, {"time": 1808, "pitch": 57, "duration": 7, "velocity": 84}, {"time": 1814, "pitch": 49, "duration": 15, "velocity": 86}, {"time": 1814, "pitch": 61, "duration": 7, "velocity": 80}, {"time": 1814, "pitch": 66, "duration": 7, "velocity": 79}, {"time": 1820, "pitch": 57, "duration": 5, "velocity": 76}, {"time": 1826, "pitch": 61, "duration": 6, "velocity": 92}, {"time": 1826, "pitch": 66, "duration": 9, "velocity": 85}, {"time": 1832, "pitch": 49, "duration": 6, "velocity": 86}, {"time": 1838, "pitch": 47, "duration": 20, "velocity": 88}, {"time": 1838, "pitch": 59, "duration": 10, "velocity": 78}, {"time": 1838, "pitch": 62, "duration": 9, "velocity": 82}, {"time": 1838, "pitch": 66, "duration": 10, "velocity": 77}, {"time": 1844, "pitch": 54, "duration": 11, "velocity": 53}, {"time": 1850, "pitch": 59, "duration": 6, "velocity": 85}, {"time": 1850, "pitch": 62, "duration": 7, "velocity": 88}, {"time": 1850, "pitch": 66, "duration": 9, "velocity": 86}, {"time": 1856, "pitch": 54, "duration": 5, "velocity": 77}, {"time": 1862, "pitch": 45, "duration": 18, "velocity": 86}, {"time": 1862, "pitch": 57, "duration": 11, "velocity": 78}, {"time": 1862, "pitch": 61, "duration": 10, "velocity": 75}, {"time": 1868, "pitch": 52, "duration": 9, "velocity": 73}, {"time": 1874, "pitch": 61, "duration": 6, "velocity": 87}, {"time": 1874, "pitch": 66, "duration": 6, "velocity": 86}, {"time": 1880, "pitch": 57, "duration": 2, "velocity": 88}, {"time": 1886, "pitch": 43, "duration": 16, "velocity": 85}, {"time": 1886, "pitch": 55, "duration": 7, "velocity": 78}, {"time": 1886, "pitch": 59, "duration": 6, "velocity": 80}, {"time": 1892, "pitch": 50, "duration": 9, "velocity": 73}, {"time": 1898, "pitch": 55, "duration": 7, "velocity": 86}, {"time": 1898, "pitch": 59, "duration": 7, "velocity": 86}, {"time": 1898, "pitch": 62, "duration": 8, "velocity": 86}, {"time": 1904, "pitch": 43, "duration": 3, "velocity": 87}, {"time": 1910, "pitch": 42, "duration": 15, "velocity": 90}, {"time": 1910, "pitch": 57, "duration": 7, "velocity": 73}, {"time": 1910, "pitch": 61, "duration": 8, "velocity": 82}, {"time": 1916, "pitch": 49, "duration": 10, "velocity": 73}, {"time": 1922, "pitch": 57, "duration": 5, "velocity": 85}, {"time": 1922, "pitch": 61, "duration": 4, "velocity": 94}, {"time": 1922, "pitch": 66, "duration": 5, "velocity": 85}, {"time": 1928, "pitch": 42, "duration": 2, "velocity": 85}, {"time": 1934, "pitch": 40, "duration": 15, "velocity": 88}, {"time": 1934, "pitch": 59, "duration": 6, "velocity": 83}, {"time": 1934, "pitch": 67, "duration": 8, "velocity": 81}, {"time": 1940, "pitch": 47, "duration": 8, "velocity": 70}, {"time": 1946, "pitch": 59, "duration": 7, "velocity": 87}, {"time": 1946, "pitch": 64, "duration": 7, "velocity": 94}, {"time": 1946, "pitch": 67, "duration": 7, "velocity": 86}, {"time": 1952, "pitch": 43, "duration": 2, "velocity": 86}, {"time": 1958, "pitch": 45, "duration": 21, "velocity": 87}, {"time": 1958, "pitch": 57, "duration": 6, "velocity": 80}, {"time": 1958, "pitch": 61, "duration": 6, "velocity": 80}, {"time": 1958, "pitch": 64, "duration": 6, "velocity": 86}, {"time": 1964, "pitch": 52, "duration": 8, "velocity": 81}, {"time": 1967, "pitch": 57, "duration": 2, "velocity": 82}, {"time": 1970, "pitch": 57, "duration": 3, "velocity": 88}, {"time": 1970, "pitch": 61, "duration": 4, "velocity": 91}, {"time": 1970, "pitch": 69, "duration": 5, "velocity": 85}, {"time": 1973, "pitch": 52, "duration": 7, "velocity": 90}, {"time": 1976, "pitch": 57, "duration": 3, "velocity": 91}, {"time": 1982, "pitch": 47, "duration": 20, "velocity": 84}, {"time": 1982, "pitch": 59, "duration": 7, "velocity": 81}, {"time": 1982, "pitch": 62, "duration": 8, "velocity": 81}, {"time": 1982, "pitch": 66, "duration": 8, "velocity": 80}, {"time": 1988, "pitch": 54, "duration": 10, "velocity": 69}, {"time": 1994, "pitch": 59, "duration": 8, "velocity": 86}, {"time": 1994, "pitch": 62, "duration": 7, "velocity": 86}, {"time": 1994, "pitch": 66, "duration": 8, "velocity": 85}, {"time": 2000, "pitch": 54, "duration": 8, "velocity": 77}, {"time": 2006, "pitch": 46, "duration": 16, "velocity": 86}, {"time": 2006, "pitch": 58, "duration": 8, "velocity": 75}, {"time": 2006, "pitch": 62, "duration": 7, "velocity": 86}, {"time": 2006, "pitch": 66, "duration": 7, "velocity": 85}, {"time": 2012, "pitch": 54, "duration": 8, "velocity": 69}, {"time": 2018, "pitch": 58, "duration": 7, "velocity": 83}, {"time": 2018, "pitch": 62, "duration": 8, "velocity": 86}, {"time": 2018, "pitch": 66, "duration": 7, "velocity": 83}, {"time": 2024, "pitch": 54, "duration": 7, "velocity": 83}, {"time": 2030, "pitch": 45, "duration": 23, "velocity": 86}, {"time": 2030, "pitch": 57, "duration": 7, "velocity": 78}, {"time": 2030, "pitch": 62, "duration": 7, "velocity": 84}, {"time": 2030, "pitch": 66, "duration": 7, "velocity": 79}, {"time": 2036, "pitch": 54, "duration": 9, "velocity": 76}, {"time": 2042, "pitch": 57, "duration": 10, "velocity": 83}, {"time": 2042, "pitch": 62, "duration": 8, "velocity": 87}, {"time": 2042, "pitch": 66, "duration": 8, "velocity": 83}, {"time": 2048, "pitch": 54, "duration": 4, "velocity": 74}, {"time": 2054, "pitch": 43, "duration": 15, "velocity": 86}, {"time": 2054, "pitch": 55, "duration": 8, "velocity": 81}, {"time": 2054, "pitch": 62, "duration": 5, "velocity": 83}, {"time": 2060, "pitch": 50, "duration": 8, "velocity": 78}, {"time": 2066, "pitch": 55, "duration": 3, "velocity": 87}, {"time": 2066, "pitch": 59, "duration": 3, "velocity": 88}, {"time": 2066, "pitch": 62, "duration": 4, "velocity": 87}, {"time": 2072, "pitch": 43, "duration": 2, "velocity": 85}, {"time": 2078, "pitch": 42, "duration": 14, "velocity": 83}, {"time": 2078, "pitch": 57, "duration": 8, "velocity": 84}, {"time": 2078, "pitch": 61, "duration": 8, "velocity": 85}, {"time": 2078, "pitch": 66, "duration": 8, "velocity": 78}, {"time": 2084, "pitch": 49, "duration": 10, "velocity": 67}, {"time": 2090, "pitch": 57, "duration": 3, "velocity": 86}, {"time": 2090, "pitch": 61, "duration": 3, "velocity": 99}, {"time": 2090, "pitch": 66, "duration": 4, "velocity": 85}, {"time": 2096, "pitch": 42, "duration": 2, "velocity": 88}, {"time": 2102, "pitch": 40, "duration": 14, "velocity": 86}, {"time": 2102, "pitch": 59, "duration": 4, "velocity": 82}, {"time": 2102, "pitch": 64, "duration": 7, "velocity": 86}, {"time": 2108, "pitch": 59, "duration": 3, "velocity": 86}, {"time": 2114, "pitch": 59, "duration": 3, "velocity": 86}, {"time": 2114, "pitch": 64, "duration": 6, "velocity": 91}, {"time": 2114, "pitch": 67, "duration": 6, "velocity": 85}, {"time": 2120, "pitch": 59, "duration": 2, "velocity": 85}, {"time": 2126, "pitch": 45, "duration": 15, "velocity": 85}, {"time": 2126, "pitch": 57, "duration": 7, "velocity": 80}, {"time": 2126, "pitch": 61, "duration": 7, "velocity": 84}, {"time": 2126, "pitch": 64, "duration": 8, "velocity": 85}, {"time": 2132, "pitch": 52, "duration": 9, "velocity": 75}, {"time": 2138, "pitch": 57, "duration": 5, "velocity": 81}, {"time": 2138, "pitch": 61, "duration": 5, "velocity": 86}, {"time": 2138, "pitch": 64, "duration": 5, "velocity": 87}, {"time": 2144, "pitch": 45, "duration": 5, "velocity": 86}, {"time": 2150, "pitch": 50, "duration": 14, "velocity": 88}, {"time": 2150, "pitch": 57, "duration": 3, "velocity": 81}, {"time": 2150, "pitch": 62, "duration": 9, "velocity": 85}, {"time": 2150, "pitch": 66, "duration": 7, "velocity": 85}, {"time": 2156, "pitch": 57, "duration": 4, "velocity": 69}, {"time": 2162, "pitch": 57, "duration": 4, "velocity": 87}, {"time": 2162, "pitch": 62, "duration": 4, "velocity": 92}, {"time": 2162, "pitch": 66, "duration": 5, "velocity": 86}, {"time": 2165, "pitch": 50, "duration": 3, "velocity": 89}, {"time": 2168, "pitch": 57, "duration": 5, "velocity": 89}, {"time": 2171, "pitch": 62, "duration": 2, "velocity": 81}, {"time": 2174, "pitch": 38, "duration": 13, "velocity": 88}, {"time": 2174, "pitch": 38, "duration": 13, "velocity": 92}, {"time": 2174, "pitch": 57, "duration": 4, "velocity": 80}, {"time": 2174, "pitch": 62, "duration": 7, "velocity": 86}, {"time": 2174, "pitch": 66, "duration": 7, "velocity": 85}, {"time": 2180, "pitch": 57, "duration": 3, "velocity": 74}, {"time": 2186, "pitch": 57, "duration": 2, "velocity": 87}, {"time": 2186, "pitch": 62, "duration": 1, "velocity": 86}, {"time": 2186, "pitch": 66, "duration": 2, "velocity": 80}, {"time": 2192, "pitch": 45, "duration": 24, "velocity": 86}, {"time": 2192, "pitch": 57, "duration": 9, "velocity": 80}, {"time": 2192, "pitch": 61, "duration": 9, "velocity": 80}, {"time": 2204, "pitch": 64, "duration": 2, "velocity": 83}, {"time": 2210, "pitch": 57, "duration": 4, "velocity": 86}, {"time": 2210, "pitch": 61, "duration": 4, "velocity": 90}, {"time": 2210, "pitch": 64, "duration": 4, "velocity": 94}, {"time": 2210, "pitch": 69, "duration": 6, "velocity": 86}, {"time": 2213, "pitch": 52, "duration": 4, "velocity": 86}, {"time": 2216, "pitch": 57, "duration": 2, "velocity": 92}, {"time": 2222, "pitch": 47, "duration": 15, "velocity": 86}, {"time": 2222, "pitch": 59, "duration": 6, "velocity": 84}, {"time": 2222, "pitch": 62, "duration": 7, "velocity": 84}, {"time": 2228, "pitch": 54, "duration": 8, "velocity": 60}, {"time": 2234, "pitch": 59, "duration": 2, "velocity": 84}, {"time": 2234, "pitch": 62, "duration": 2, "velocity": 86}, {"time": 2234, "pitch": 66, "duration": 3, "velocity": 92}, {"time": 2240, "pitch": 45, "duration": 23, "velocity": 85}, {"time": 2240, "pitch": 57, "duration": 15, "velocity": 85}, {"time": 2240, "pitch": 61, "duration": 13, "velocity": 86}, {"time": 2252, "pitch": 64, "duration": 3, "velocity": 87}, {"time": 2258, "pitch": 57, "duration": 4, "velocity": 86}, {"time": 2258, "pitch": 61, "duration": 4, "velocity": 96}, {"time": 2258, "pitch": 64, "duration": 4, "velocity": 94}, {"time": 2258, "pitch": 69, "duration": 5, "velocity": 86}, {"time": 2261, "pitch": 52, "duration": 2, "velocity": 90}, {"time": 2264, "pitch": 57, "duration": 2, "velocity": 89}, {"time": 2270, "pitch": 43, "duration": 16, "velocity": 86}, {"time": 2270, "pitch": 55, "duration": 7, "velocity": 80}, {"time": 2270, "pitch": 59, "duration": 7, "velocity": 81}, {"time": 2276, "pitch": 50, "duration": 8, "velocity": 69}, {"time": 2282, "pitch": 55, "duration": 3, "velocity": 85}, {"time": 2282, "pitch": 59, "duration": 7, "velocity": 91}, {"time": 2282, "pitch": 62, "duration": 7, "velocity": 89}, {"time": 2288, "pitch": 55, "duration": 4, "velocity": 85}, {"time": 2294, "pitch": 43, "duration": 17, "velocity": 84}, {"time": 2294, "pitch": 55, "duration": 5, "velocity": 75}, {"time": 2294, "pitch": 59, "duration": 6, "velocity": 78}, {"time": 2294, "pitch": 62, "duration": 6, "velocity": 75}, {"time": 2300, "pitch": 50, "duration": 7, "velocity": 68}, {"time": 2306, "pitch": 55, "duration": 3, "velocity": 92}, {"time": 2306, "pitch": 62, "duration": 4, "velocity": 90}, {"time": 2309, "pitch": 50, "duration": 3, "velocity": 87}, {"time": 2312, "pitch": 55, "duration": 5, "velocity": 87}, {"time": 2315, "pitch": 59, "duration": 2, "velocity": 80}, {"time": 2318, "pitch": 40, "duration": 16, "velocity": 86}, {"time": 2318, "pitch": 52, "duration": 7, "velocity": 78}, {"time": 2318, "pitch": 55, "duration": 7, "velocity": 86}, {"time": 2324, "pitch": 47, "duration": 8, "velocity": 70}, {"time": 2330, "pitch": 52, "duration": 4, "velocity": 89}, {"time": 2330, "pitch": 55, "duration": 4, "velocity": 90}, {"time": 2330, "pitch": 59, "duration": 4, "velocity": 89}, {"time": 2333, "pitch": 47, "duration": 2, "velocity": 91}, {"time": 2336, "pitch": 52, "duration": 2, "velocity": 89}, {"time": 2342, "pitch": 45, "duration": 20, "velocity": 88}, {"time": 2342, "pitch": 57, "duration": 3, "velocity": 85}, {"time": 2342, "pitch": 61, "duration": 4, "velocity": 81}, {"time": 2345, "pitch": 52, "duration": 10, "velocity": 82}, {"time": 2348, "pitch": 57, "duration": 4, "velocity": 87}, {"time": 2351, "pitch": 61, "duration": 2, "velocity": 96}, {"time": 2354, "pitch": 57, "duration": 3, "velocity": 87}, {"time": 2354, "pitch": 61, "duration": 4, "velocity": 111}, {"time": 2354, "pitch": 69, "duration": 4, "velocity": 87}, {"time": 2357, "pitch": 52, "duration": 5, "velocity": 88}, {"time": 2360, "pitch": 57, "duration": 4, "velocity": 90}, {"time": 2366, "pitch": 38, "duration": 13, "velocity": 92}, {"time": 2366, "pitch": 57, "duration": 4, "velocity": 80}, {"time": 2366, "pitch": 62, "duration": 7, "velocity": 86}, {"time": 2366, "pitch": 66, "duration": 7, "velocity": 85}, {"time": 2372, "pitch": 57, "duration": 3, "velocity": 74}, {"time": 2378, "pitch": 57, "duration": 2, "velocity": 87}, {"time": 2378, "pitch": 62, "duration": 1, "velocity": 86}, {"time": 2378, "pitch": 66, "duration": 2, "velocity": 80}, {"time": 2384, "pitch": 45, "duration": 24, "velocity": 86}, {"time": 2384, "pitch": 57, "duration": 9, "velocity": 80}, {"time": 2384, "pitch": 61, "duration": 9, "velocity": 80}, {"time": 2396, "pitch": 64, "duration": 2, "velocity": 83}, {"time": 2402, "pitch": 57, "duration": 4, "velocity": 86}, {"time": 2402, "pitch": 61, "duration": 4, "velocity": 90}, {"time": 2402, "pitch": 64, "duration": 4, "velocity": 94}, {"time": 2402, "pitch": 69, "duration": 6, "velocity": 86}, {"time": 2405, "pitch": 52, "duration": 4, "velocity": 86}, {"time": 2408, "pitch": 57, "duration": 2, "velocity": 92}, {"time": 2414, "pitch": 47, "duration": 15, "velocity": 86}, {"time": 2414, "pitch": 59, "duration": 6, "velocity": 84}, {"time": 2414, "pitch": 62, "duration": 7, "velocity": 84}, {"time": 2420, "pitch": 54, "duration": 8, "velocity": 60}, {"time": 2426, "pitch": 59, "duration": 2, "velocity": 84}, {"time": 2426, "pitch": 62, "duration": 2, "velocity": 86}, {"time": 2426, "pitch": 66, "duration": 3, "velocity": 92}, {"time": 2432, "pitch": 45, "duration": 23, "velocity": 85}, {"time": 2432, "pitch": 57, "duration": 15, "velocity": 85}, {"time": 2432, "pitch": 61, "duration": 13, "velocity": 86}, {"time": 2444, "pitch": 64, "duration": 3, "velocity": 87}, {"time": 2450, "pitch": 57, "duration": 4, "velocity": 86}, {"time": 2450, "pitch": 61, "duration": 4, "velocity": 96}, {"time": 2450, "pitch": 64, "duration": 4, "velocity": 94}, {"time": 2450, "pitch": 69, "duration": 5, "velocity": 86}, {"time": 2453, "pitch": 52, "duration": 2, "velocity": 90}, {"time": 2456, "pitch": 57, "duration": 2, "velocity": 89}, {"time": 2462, "pitch": 43, "duration": 16, "velocity": 86}, {"time": 2462, "pitch": 55, "duration": 7, "velocity": 80}, {"time": 2462, "pitch": 59, "duration": 7, "velocity": 81}, {"time": 2468, "pitch": 50, "duration": 8, "velocity": 69}, {"time": 2474, "pitch": 55, "duration": 3, "velocity": 85}, {"time": 2474, "pitch": 59, "duration": 7, "velocity": 91}, {"time": 2474, "pitch": 62, "duration": 7, "velocity": 89}, {"time": 2480, "pitch": 55, "duration": 4, "velocity": 85}, {"time": 2486, "pitch": 40, "duration": 15, "velocity": 87}, {"time": 2486, "pitch": 59, "duration": 5, "velocity": 82}, {"time": 2486, "pitch": 67, "duration": 7, "velocity": 80}, {"time": 2492, "pitch": 47, "duration": 9, "velocity": 68}, {"time": 2498, "pitch": 59, "duration": 2, "velocity": 85}, {"time": 2498, "pitch": 64, "duration": 4, "velocity": 89}, {"time": 2498, "pitch": 67, "duration": 6, "velocity": 86}, {"time": 2504, "pitch": 59, "duration": 2, "velocity": 87}, {"time": 2510, "pitch": 45, "duration": 20, "velocity": 86}, {"time": 2510, "pitch": 57, "duration": 5, "velocity": 81}, {"time": 2510, "pitch": 61, "duration": 5, "velocity": 85}, {"time": 2510, "pitch": 64, "duration": 4, "velocity": 86}, {"time": 2516, "pitch": 52, "duration": 7, "velocity": 76}, {"time": 2519, "pitch": 57, "duration": 2, "velocity": 82}, {"time": 2522, "pitch": 57, "duration": 3, "velocity": 86}, {"time": 2522, "pitch": 61, "duration": 4, "velocity": 90}, {"time": 2522, "pitch": 64, "duration": 4, "velocity": 89}, {"time": 2522, "pitch": 69, "duration": 4, "velocity": 85}, {"time": 2525, "pitch": 52, "duration": 4, "velocity": 84}, {"time": 2528, "pitch": 57, "duration": 3, "velocity": 86}, {"time": 2534, "pitch": 50, "duration": 25, "velocity": 85}, {"time": 2534, "pitch": 57, "duration": 3, "velocity": 81}, {"time": 2534, "pitch": 62, "duration": 8, "velocity": 84}, {"time": 2540, "pitch": 57, "duration": 3, "velocity": 79}, {"time": 2546, "pitch": 57, "duration": 2, "velocity": 86}, {"time": 2546, "pitch": 66, "duration": 4, "velocity": 88}, {"time": 2549, "pitch": 57, "duration": 3, "velocity": 82}, {"time": 2552, "pitch": 64, "duration": 6, "velocity": 85}, {"time": 2555, "pitch": 57, "duration": 3, "velocity": 80}, {"time": 2558, "pitch": 38, "duration": 13, "velocity": 92}, {"time": 2558, "pitch": 57, "duration": 4, "velocity": 80}, {"time": 2558, "pitch": 62, "duration": 7, "velocity": 86}, {"time": 2558, "pitch": 66, "duration": 7, "velocity": 85}, {"time": 2564, "pitch": 57, "duration": 3, "velocity": 74}, {"time": 2570, "pitch": 57, "duration": 2, "velocity": 87}, {"time": 2570, "pitch": 62, "duration": 1, "velocity": 86}, {"time": 2570, "pitch": 66, "duration": 2, "velocity": 80}, {"time": 2576, "pitch": 45, "duration": 24, "velocity": 86}, {"time": 2576, "pitch": 57, "duration": 9, "velocity": 80}, {"time": 2576, "pitch": 61, "duration": 9, "velocity": 80}, {"time": 2588, "pitch": 64, "duration": 2, "velocity": 83}, {"time": 2594, "pitch": 57, "duration": 4, "velocity": 86}, {"time": 2594, "pitch": 61, "duration": 4, "velocity": 90}, {"time": 2594, "pitch": 64, "duration": 4, "velocity": 94}, {"time": 2594, "pitch": 69, "duration": 6, "velocity": 86}, {"time": 2597, "pitch": 52, "duration": 4, "velocity": 86}, {"time": 2600, "pitch": 57, "duration": 2, "velocity": 92}, {"time": 2606, "pitch": 47, "duration": 15, "velocity": 86}, {"time": 2606, "pitch": 59, "duration": 6, "velocity": 84}, {"time": 2606, "pitch": 62, "duration": 7, "velocity": 84}, {"time": 2612, "pitch": 54, "duration": 8, "velocity": 60}, {"time": 2618, "pitch": 59, "duration": 2, "velocity": 84}, {"time": 2618, "pitch": 62, "duration": 2, "velocity": 86}, {"time": 2618, "pitch": 66, "duration": 3, "velocity": 92}, {"time": 2624, "pitch": 45, "duration": 23, "velocity": 85}, {"time": 2624, "pitch": 57, "duration": 15, "velocity": 85}, {"time": 2624, "pitch": 61, "duration": 13, "velocity": 86}, {"time": 2636, "pitch": 64, "duration": 3, "velocity": 87}, {"time": 2642, "pitch": 57, "duration": 4, "velocity": 86}, {"time": 2642, "pitch": 61, "duration": 4, "velocity": 96}, {"time": 2642, "pitch": 64, "duration": 4, "velocity": 94}, {"time": 2642, "pitch": 69, "duration": 5, "velocity": 86}, {"time": 2645, "pitch": 52, "duration": 2, "velocity": 90}, {"time": 2648, "pitch": 57, "duration": 2, "velocity": 89}, {"time": 2654, "pitch": 43, "duration": 16, "velocity": 86}, {"time": 2654, "pitch": 55, "duration": 7, "velocity": 80}, {"time": 2654, "pitch": 59, "duration": 7, "velocity": 81}, {"time": 2660, "pitch": 50, "duration": 8, "velocity": 69}, {"time": 2666, "pitch": 55, "duration": 3, "velocity": 85}, {"time": 2666, "pitch": 59, "duration": 7, "velocity": 91}, {"time": 2666, "pitch": 62, "duration": 7, "velocity": 89}, {"time": 2672, "pitch": 55, "duration": 4, "velocity": 85}, {"time": 2678, "pitch": 43, "duration": 17, "velocity": 84}, {"time": 2678, "pitch": 55, "duration": 5, "velocity": 75}, {"time": 2678, "pitch": 59, "duration": 6, "velocity": 78}, {"time": 2678, "pitch": 62, "duration": 6, "velocity": 75}, {"time": 2684, "pitch": 50, "duration": 7, "velocity": 68}, {"time": 2690, "pitch": 55, "duration": 3, "velocity": 92}, {"time": 2690, "pitch": 62, "duration": 4, "velocity": 90}, {"time": 2693, "pitch": 50, "duration": 3, "velocity": 87}, {"time": 2696, "pitch": 55, "duration": 5, "velocity": 87}, {"time": 2699, "pitch": 59, "duration": 2, "velocity": 80}, {"time": 2702, "pitch": 40, "duration": 16, "velocity": 86}, {"time": 2702, "pitch": 52, "duration": 7, "velocity": 78}, {"time": 2702, "pitch": 55, "duration": 7, "velocity": 86}, {"time": 2708, "pitch": 47, "duration": 8, "velocity": 70}, {"time": 2714, "pitch": 52, "duration": 4, "velocity": 89}, {"time": 2714, "pitch": 55, "duration": 4, "velocity": 90}, {"time": 2714, "pitch": 59, "duration": 4, "velocity": 89}, {"time": 2717, "pitch": 47, "duration": 2, "velocity": 91}, {"time": 2720, "pitch": 52, "duration": 2, "velocity": 89}, {"time": 2726, "pitch": 45, "duration": 20, "velocity": 88}, {"time": 2726, "pitch": 57, "duration": 3, "velocity": 85}, {"time": 2726, "pitch": 61, "duration": 4, "velocity": 81}, {"time": 2729, "pitch": 52, "duration": 10, "velocity": 82}, {"time": 2732, "pitch": 57, "duration": 4, "velocity": 87}, {"time": 2735, "pitch": 61, "duration": 2, "velocity": 96}, {"time": 2738, "pitch": 57, "duration": 3, "velocity": 87}, {"time": 2738, "pitch": 61, "duration": 4, "velocity": 111}, {"time": 2738, "pitch": 69, "duration": 4, "velocity": 87}, {"time": 2741, "pitch": 52, "duration": 5, "velocity": 88}, {"time": 2744, "pitch": 57, "duration": 4, "velocity": 90}, {"time": 2750, "pitch": 38, "duration": 13, "velocity": 92}, {"time": 2750, "pitch": 57, "duration": 4, "velocity": 80}, {"time": 2750, "pitch": 62, "duration": 7, "velocity": 86}, {"time": 2750, "pitch": 66, "duration": 7, "velocity": 85}, {"time": 2756, "pitch": 57, "duration": 3, "velocity": 74}, {"time": 2762, "pitch": 57, "duration": 2, "velocity": 87}, {"time": 2762, "pitch": 62, "duration": 1, "velocity": 86}, {"time": 2762, "pitch": 66, "duration": 2, "velocity": 80}, {"time": 2768, "pitch": 45, "duration": 24, "velocity": 86}, {"time": 2768, "pitch": 57, "duration": 9, "velocity": 80}, {"time": 2768, "pitch": 61, "duration": 9, "velocity": 80}, {"time": 2780, "pitch": 64, "duration": 2, "velocity": 83}, {"time": 2786, "pitch": 57, "duration": 4, "velocity": 86}, {"time": 2786, "pitch": 61, "duration": 4, "velocity": 90}, {"time": 2786, "pitch": 64, "duration": 4, "velocity": 94}, {"time": 2786, "pitch": 69, "duration": 6, "velocity": 86}, {"time": 2789, "pitch": 52, "duration": 4, "velocity": 86}, {"time": 2792, "pitch": 57, "duration": 2, "velocity": 92}, {"time": 2798, "pitch": 47, "duration": 15, "velocity": 86}, {"time": 2798, "pitch": 59, "duration": 6, "velocity": 84}, {"time": 2798, "pitch": 62, "duration": 7, "velocity": 84}, {"time": 2804, "pitch": 54, "duration": 8, "velocity": 60}, {"time": 2810, "pitch": 59, "duration": 2, "velocity": 84}, {"time": 2810, "pitch": 62, "duration": 2, "velocity": 86}, {"time": 2810, "pitch": 66, "duration": 3, "velocity": 92}, {"time": 2816, "pitch": 45, "duration": 23, "velocity": 85}, {"time": 2816, "pitch": 57, "duration": 15, "velocity": 85}, {"time": 2816, "pitch": 61, "duration": 13, "velocity": 86}, {"time": 2828, "pitch": 64, "duration": 3, "velocity": 87}, {"time": 2834, "pitch": 57, "duration": 4, "velocity": 86}, {"time": 2834, "pitch": 61, "duration": 4, "velocity": 96}, {"time": 2834, "pitch": 64, "duration": 4, "velocity": 94}, {"time": 2834, "pitch": 69, "duration": 5, "velocity": 86}, {"time": 2837, "pitch": 52, "duration": 2, "velocity": 90}, {"time": 2840, "pitch": 57, "duration": 2, "velocity": 89}, {"time": 2846, "pitch": 43, "duration": 16, "velocity": 86}, {"time": 2846, "pitch": 55, "duration": 7, "velocity": 80}, {"time": 2846, "pitch": 59, "duration": 7, "velocity": 81}, {"time": 2852, "pitch": 50, "duration": 8, "velocity": 69}, {"time": 2858, "pitch": 55, "duration": 3, "velocity": 85}, {"time": 2858, "pitch": 59, "duration": 7, "velocity": 91}, {"time": 2858, "pitch": 62, "duration": 7, "velocity": 89}, {"time": 2864, "pitch": 55, "duration": 4, "velocity": 85}, {"time": 2870, "pitch": 40, "duration": 15, "velocity": 87}, {"time": 2870, "pitch": 59, "duration": 5, "velocity": 82}, {"time": 2870, "pitch": 67, "duration": 7, "velocity": 80}, {"time": 2876, "pitch": 47, "duration": 9, "velocity": 68}, {"time": 2882, "pitch": 59, "duration": 2, "velocity": 85}, {"time": 2882, "pitch": 64, "duration": 4, "velocity": 89}, {"time": 2882, "pitch": 67, "duration": 6, "velocity": 86}, {"time": 2888, "pitch": 59, "duration": 2, "velocity": 87}, {"time": 2894, "pitch": 45, "duration": 20, "velocity": 86}, {"time": 2894, "pitch": 57, "duration": 5, "velocity": 81}, {"time": 2894, "pitch": 61, "duration": 5, "velocity": 85}, {"time": 2894, "pitch": 64, "duration": 4, "velocity": 86}, {"time": 2900, "pitch": 52, "duration": 7, "velocity": 76}, {"time": 2903, "pitch": 57, "duration": 2, "velocity": 82}, {"time": 2906, "pitch": 57, "duration": 3, "velocity": 86}, {"time": 2906, "pitch": 61, "duration": 4, "velocity": 90}, {"time": 2906, "pitch": 64, "duration": 4, "velocity": 89}, {"time": 2906, "pitch": 69, "duration": 4, "velocity": 85}, {"time": 2909, "pitch": 52, "duration": 4, "velocity": 84}, {"time": 2912, "pitch": 57, "duration": 3, "velocity": 86}, {"time": 2916, "pitch": 50, "duration": 2, "velocity": 57}, {"time": 2917, "pitch": 54, "duration": 2, "velocity": 73}, {"time": 2918, "pitch": 57, "duration": 2, "velocity": 73}, {"time": 2918, "pitch": 38, "duration": 37, "velocity": 85}, {"time": 2919, "pitch": 62, "duration": 3, "velocity": 85}, {"time": 2924, "pitch": 45, "duration": 31, "velocity": 71}, {"time": 2936, "pitch": 57, "duration": 3, "velocity": 82}, {"time": 2942, "pitch": 57, "duration": 7, "velocity": 72}, {"time": 2942, "pitch": 62, "duration": 7, "velocity": 76}, {"time": 2964, "pitch": 62, "duration": 39, "velocity": 67}, {"time": 2964, "pitch": 66, "duration": 39, "velocity": 65}, {"time": 2965, "pitch": 38, "duration": 47, "velocity": 83}, {"time": 2965, "pitch": 69, "duration": 39, "velocity": 73}, {"time": 2966, "pitch": 74, "duration": 37, "velocity": 85}, {"time": 3002, "pitch": 45, "duration": 8, "velocity": 65}, {"time": 3005, "pitch": 62, "duration": 2, "velocity": 74}, {"time": 3008, "pitch": 64, "duration": 5, "velocity": 76}, {"time": 3014, "pitch": 66, "duration": 38, "velocity": 76}, {"time": 3014, "pitch": 62, "duration": 38, "velocity": 73}, {"time": 3061, "pitch": 62, "duration": 4, "velocity": 66}, {"time": 3062, "pitch": 66, "duration": 4, "velocity": 61}, {"time": 3063, "pitch": 38, "duration": 2, "velocity": 77}, {"time": 3064, "pitch": 69, "duration": 9, "velocity": 76}, {"time": 3070, "pitch": 50, "duration": 50, "velocity": 65}, {"time": 3073, "pitch": 57, "duration": 47, "velocity": 71}, {"time": 3076, "pitch": 64, "duration": 4, "velocity": 74}, {"time": 3079, "pitch": 66, "duration": 42, "velocity": 64}], "annotations": [{"time": 22, "annotation": {"number": 64, "value": 127}, "group": "control_change"}, {"time": 109, "annotation": {"number": 64, "value": 0}, "group": "control_change"}, {"time": 111, "annotation": {"number": 64, "value": 127}, "group": "control_change"}, {"time": 208, "annotation": {"number": 64, "value": 127}, "group": "control_change"}, {"time": 208, "annotation": {"number": 64, "value": 0}, "group": "control_change"}, {"time": 231, "annotation": {"number": 64, "value": 0}, "group": "control_change"}, {"time": 233, "annotation": {"number": 64, "value": 127}, "group": "control_change"}, {"time": 254, "annotation": {"number": 64, "value": 0}, "group": "control_change"}, {"time": 258, "annotation": {"number": 64, "value": 127}, "group": "control_change"}, {"time": 279, "annotation": {"number": 64, "value": 0}, "group": "control_change"}, {"time": 282, "annotation": {"number": 64, "value": 127}, "group": "control_change"}, {"time": 302, "annotation": {"number": 64, "value": 0}, "group": "control_change"}, {"time": 308, "annotation": {"number": 64, "value": 127}, "group": "control_change"}, {"time": 308, "annotation": {"number": 64, "value": 0}, "group": "control_change"}, {"time": 326, "annotation": {"number": 64, "value": 0}, "group": "control_change"}, {"time": 328, "annotation": {"number": 64, "value": 127}, "group": "control_change"}, {"time": 350, "annotation": {"number": 64, "value": 0}, "group": "control_change"}, {"time": 352, "annotation": {"number": 64, "value": 127}, "group": "control_change"}, {"time": 374, "annotation": {"number": 64, "value": 0}, "group": "control_change"}, {"time": 380, "annotation": {"number": 64, "value": 127}, "group": "control_change"}, {"time": 398, "annotation": {"number": 64, "value": 0}, "group": "control_change"}, {"time": 403, "annotation": {"number": 64, "value": 127}, "group": "control_change"}, {"time": 423, "annotation": {"number": 64, "value": 0}, "group": "control_change"}, {"time": 425, "annotation": {"number": 64, "value": 127}, "group": "control_change"}, {"time": 446, "annotation": {"number": 64, "value": 0}, "group": "control_change"}, {"time": 449, "annotation": {"number": 64, "value": 127}, "group": "control_change"}, {"time": 470, "annotation": {"number": 64, "value": 0}, "group": "control_change"}, {"time": 473, "annotation": {"number": 64, "value": 127}, "group": "control_change"}, {"time": 494, "annotation": {"number": 64, "value": 0}, "group": "control_change"}, {"time": 498, "annotation": {"number": 64, "value": 127}, "group": "control_change"}, {"time": 518, "annotation": {"number": 64, "value": 0}, "group": "control_change"}, {"time": 520, "annotation": {"number": 64, "value": 127}, "group": "control_change"}, {"time": 543, "annotation": {"number": 64, "value": 0}, "group": "control_change"}, {"time": 549, "annotation": {"number": 64, "value": 127}, "group": "control_change"}, {"time": 566, "annotation": {"number": 64, "value": 0}, "group": "control_change"}, {"time": 568, "annotation": {"number": 64, "value": 127}, "group": "control_change"}, {"time": 590, "annotation": {"number": 64, "value": 0}, "group": "control_change"}, {"time": 593, "annotation": {"number": 64, "value": 127}, "group": "control_change"}, {"time": 613, "annotation": {"number": 64, "value": 0}, "group": "control_change"}, {"time": 615, "annotation": {"number": 64, "value": 127}, "group": "control_change"}, {"time": 638, "annotation": {"number": 64, "value": 0}, "group": "control_change"}, {"time": 641, "annotation": {"number": 64, "value": 127}, "group": "control_change"}, {"time": 663, "annotation": {"number": 64, "value": 0}, "group": "control_change"}, {"time": 665, "annotation": {"number": 64, "value": 127}, "group": "control_change"}, {"time": 686, "annotation": {"number": 64, "value": 0}, "group": "control_change"}, {"time": 689, "annotation": {"number": 64, "value": 127}, "group": "control_change"}, {"time": 711, "annotation": {"number": 64, "value": 0}, "group": "control_change"}, {"time": 713, "annotation": {"number": 64, "value": 127}, "group": "control_change"}, {"time": 734, "annotation": {"number": 64, "value": 0}, "group": "control_change"}, {"time": 736, "annotation": {"number": 64, "value": 127}, "group": "control_change"}, {"time": 758, "annotation": {"number": 64, "value": 0}, "group": "control_change"}, {"time": 762, "annotation": {"number": 64, "value": 127}, "group": "control_change"}, {"time": 783, "annotation": {"number": 64, "value": 0}, "group": "control_change"}, {"time": 783, "annotation": {"number": 64, "value": 127}, "group": "control_change"}, {"time": 805, "annotation": {"number": 64, "value": 0}, "group": "control_change"}, {"time": 807, "annotation": {"number": 64, "value": 127}, "group": "control_change"}, {"time": 830, "annotation": {"number": 64, "value": 0}, "group": "control_change"}, {"time": 832, "annotation": {"number": 64, "value": 127}, "group": "control_change"}, {"time": 855, "annotation": {"number": 64, "value": 127}, "group": "control_change"}, {"time": 877, "annotation": {"number": 64, "value": 0}, "group": "control_change"}, {"time": 880, "annotation": {"number": 64, "value": 127}, "group": "control_change"}, {"time": 902, "annotation": {"number": 64, "value": 0}, "group": "control_change"}, {"time": 904, "annotation": {"number": 64, "value": 127}, "group": "control_change"}, {"time": 926, "annotation": {"number": 64, "value": 0}, "group": "control_change"}, {"time": 931, "annotation": {"number": 64, "value": 127}, "group": "control_change"}, {"time": 948, "annotation": {"number": 64, "value": 0}, "group": "control_change"}, {"time": 950, "annotation": {"number": 64, "value": 127}, "group": "control_change"}, {"time": 976, "annotation": {"number": 64, "value": 127}, "group": "control_change"}, {"time": 997, "annotation": {"number": 64, "value": 0}, "group": "control_change"}, {"time": 998, "annotation": {"number": 64, "value": 127}, "group": "control_change"}, {"time": 1021, "annotation": {"number": 64, "value": 0}, "group": "control_change"}, {"time": 1023, "annotation": {"number": 64, "value": 127}, "group": "control_change"}, {"time": 1039, "annotation": {"number": 64, "value": 0}, "group": "control_change"}, {"time": 1041, "annotation": {"number": 64, "value": 127}, "group": "control_change"}, {"time": 1069, "annotation": {"number": 64, "value": 0}, "group": "control_change"}, {"time": 1071, "annotation": {"number": 64, "value": 127}, "group": "control_change"}, {"time": 1091, "annotation": {"number": 64, "value": 0}, "group": "control_change"}, {"time": 1093, "annotation": {"number": 64, "value": 127}, "group": "control_change"}, {"time": 1117, "annotation": {"number": 64, "value": 0}, "group": "control_change"}, {"time": 1119, "annotation": {"number": 64, "value": 127}, "group": "control_change"}, {"time": 1141, "annotation": {"number": 64, "value": 0}, "group": "control_change"}, {"time": 1143, "annotation": {"number": 64, "value": 127}, "group": "control_change"}, {"time": 1167, "annotation": {"number": 64, "value": 0}, "group": "control_change"}, {"time": 1170, "annotation": {"number": 64, "value": 127}, "group": "control_change"}, {"time": 1190, "annotation": {"number": 64, "value": 0}, "group": "control_change"}, {"time": 1191, "annotation": {"number": 64, "value": 127}, "group": "control_change"}, {"time": 1215, "annotation": {"number": 64, "value": 127}, "group": "control_change"}, {"time": 1231, "annotation": {"number": 64, "value": 0}, "group": "control_change"}, {"time": 1233, "annotation": {"number": 64, "value": 127}, "group": "control_change"}, {"time": 1261, "annotation": {"number": 64, "value": 0}, "group": "control_change"}, {"time": 1263, "annotation": {"number": 64, "value": 127}, "group": "control_change"}, {"time": 1283, "annotation": {"number": 64, "value": 0}, "group": "control_change"}, {"time": 1285, "annotation": {"number": 64, "value": 127}, "group": "control_change"}, {"time": 1309, "annotation": {"number": 64, "value": 0}, "group": "control_change"}, {"time": 1311, "annotation": {"number": 64, "value": 127}, "group": "control_change"}, {"time": 1333, "annotation": {"number": 64, "value": 0}, "group": "control_change"}, {"time": 1334, "annotation": {"number": 64, "value": 127}, "group": "control_change"}, {"time": 1357, "annotation": {"number": 64, "value": 0}, "group": "control_change"}, {"time": 1360, "annotation": {"number": 64, "value": 127}, "group": "control_change"}, {"time": 1381, "annotation": {"number": 64, "value": 0}, "group": "control_change"}, {"time": 1384, "annotation": {"number": 64, "value": 127}, "group": "control_change"}, {"time": 1404, "annotation": {"number": 64, "value": 0}, "group": "control_change"}, {"time": 1790, "annotation": {"number": 64, "value": 0}, "group": "control_change"}, {"time": 1793, "annotation": {"number": 64, "value": 127}, "group": "control_change"}, {"time": 1813, "annotation": {"number": 64, "value": 0}, "group": "control_change"}, {"time": 1815, "annotation": {"number": 64, "value": 127}, "group": "control_change"}, {"time": 1838, "annotation": {"number": 64, "value": 0}, "group": "control_change"}, {"time": 1841, "annotation": {"number": 64, "value": 127}, "group": "control_change"}, {"time": 1863, "annotation": {"number": 64, "value": 0}, "group": "control_change"}, {"time": 1865, "annotation": {"number": 64, "value": 127}, "group": "control_change"}, {"time": 1886, "annotation": {"number": 64, "value": 0}, "group": "control_change"}, {"time": 1889, "annotation": {"number": 64, "value": 127}, "group": "control_change"}, {"time": 1911, "annotation": {"number": 64, "value": 0}, "group": "control_change"}, {"time": 1913, "annotation": {"number": 64, "value": 127}, "group": "control_change"}, {"time": 1934, "annotation": {"number": 64, "value": 0}, "group": "control_change"}, {"time": 1936, "annotation": {"number": 64, "value": 127}, "group": "control_change"}, {"time": 1958, "annotation": {"number": 64, "value": 0}, "group": "control_change"}, {"time": 1962, "annotation": {"number": 64, "value": 127}, "group": "control_change"}, {"time": 1983, "annotation": {"number": 64, "value": 0}, "group": "control_change"}, {"time": 1983, "annotation": {"number": 64, "value": 127}, "group": "control_change"}, {"time": 2005, "annotation": {"number": 64, "value": 0}, "group": "control_change"}, {"time": 2007, "annotation": {"number": 64, "value": 127}, "group": "control_change"}, {"time": 2030, "annotation": {"number": 64, "value": 0}, "group": "control_change"}, {"time": 2032, "annotation": {"number": 64, "value": 127}, "group": "control_change"}, {"time": 2055, "annotation": {"number": 64, "value": 127}, "group": "control_change"}, {"time": 2077, "annotation": {"number": 64, "value": 0}, "group": "control_change"}, {"time": 2080, "annotation": {"number": 64, "value": 127}, "group": "control_change"}, {"time": 2102, "annotation": {"number": 64, "value": 0}, "group": "control_change"}, {"time": 2104, "annotation": {"number": 64, "value": 127}, "group": "control_change"}, {"time": 2126, "annotation": {"number": 64, "value": 0}, "group": "control_change"}, {"time": 2131, "annotation": {"number": 64, "value": 127}, "group": "control_change"}, {"time": 2148, "annotation": {"number": 64, "value": 0}, "group": "control_change"}, {"time": 2150, "annotation": {"number": 64, "value": 127}, "group": "control_change"}, {"time": 2175, "annotation": {"number": 64, "value": 127}, "group": "control_change"}, {"time": 2191, "annotation": {"number": 64, "value": 0}, "group": "control_change"}, {"time": 2193, "annotation": {"number": 64, "value": 127}, "group": "control_change"}, {"time": 2221, "annotation": {"number": 64, "value": 0}, "group": "control_change"}, {"time": 2223, "annotation": {"number": 64, "value": 127}, "group": "control_change"}, {"time": 2243, "annotation": {"number": 64, "value": 0}, "group": "control_change"}, {"time": 2245, "annotation": {"number": 64, "value": 127}, "group": "control_change"}, {"time": 2269, "annotation": {"number": 64, "value": 0}, "group": "control_change"}, {"time": 2271, "annotation": {"number": 64, "value": 127}, "group": "control_change"}, {"time": 2293, "annotation": {"number": 64, "value": 0}, "group": "control_change"}, {"time": 2295, "annotation": {"number": 64, "value": 127}, "group": "control_change"}, {"time": 2319, "annotation": {"number": 64, "value": 0}, "group": "control_change"}, {"time": 2322, "annotation": {"number": 64, "value": 127}, "group": "control_change"}, {"time": 2342, "annotation": {"number": 64, "value": 0}, "group": "control_change"}, {"time": 2343, "annotation": {"number": 64, "value": 127}, "group": "control_change"}, {"time": 2367, "annotation": {"number": 64, "value": 127}, "group": "control_change"}, {"time": 2383, "annotation": {"number": 64, "value": 0}, "group": "control_change"}, {"time": 2385, "annotation": {"number": 64, "value": 127}, "group": "control_change"}, {"time": 2413, "annotation": {"number": 64, "value": 0}, "group": "control_change"}, {"time": 2415, "annotation": {"number": 64, "value": 127}, "group": "control_change"}, {"time": 2435, "annotation": {"number": 64, "value": 0}, "group": "control_change"}, {"time": 2437, "annotation": {"number": 64, "value": 127}, "group": "control_change"}, {"time": 2461, "annotation": {"number": 64, "value": 0}, "group": "control_change"}, {"time": 2463, "annotation": {"number": 64, "value": 127}, "group": "control_change"}, {"time": 2485, "annotation": {"number": 64, "value": 0}, "group": "control_change"}, {"time": 2486, "annotation": {"number": 64, "value": 127}, "group": "control_change"}, {"time": 2509, "annotation": {"number": 64, "value": 0}, "group": "control_change"}, {"time": 2512, "annotation": {"number": 64, "value": 127}, "group": "control_change"}, {"time": 2533, "annotation": {"number": 64, "value": 0}, "group": "control_change"}, {"time": 2536, "annotation": {"number": 64, "value": 127}, "group": "control_change"}, {"time": 2556, "annotation": {"number": 64, "value": 0}, "group": "control_change"}, {"time": 2559, "annotation": {"number": 64, "value": 127}, "group": "control_change"}, {"time": 2575, "annotation": {"number": 64, "value": 0}, "group": "control_change"}, {"time": 2577, "annotation": {"number": 64, "value": 127}, "group": "control_change"}, {"time": 2605, "annotation": {"number": 64, "value": 0}, "group": "control_change"}, {"time": 2607, "annotation": {"number": 64, "value": 127}, "group": "control_change"}, {"time": 2627, "annotation": {"number": 64, "value": 0}, "group": "control_change"}, {"time": 2629, "annotation": {"number": 64, "value": 127}, "group": "control_change"}, {"time": 2653, "annotation": {"number": 64, "value": 0}, "group": "control_change"}, {"time": 2655, "annotation": {"number": 64, "value": 127}, "group": "control_change"}, {"time": 2677, "annotation": {"number": 64, "value": 0}, "group": "control_change"}, {"time": 2679, "annotation": {"number": 64, "value": 127}, "group": "control_change"}, {"time": 2703, "annotation": {"number": 64, "value": 0}, "group": "control_change"}, {"time": 2706, "annotation": {"number": 64, "value": 127}, "group": "control_change"}, {"time": 2726, "annotation": {"number": 64, "value": 0}, "group": "control_change"}, {"time": 2727, "annotation": {"number": 64, "value": 127}, "group": "control_change"}, {"time": 2751, "annotation": {"number": 64, "value": 127}, "group": "control_change"}, {"time": 2767, "annotation": {"number": 64, "value": 0}, "group": "control_change"}, {"time": 2769, "annotation": {"number": 64, "value": 127}, "group": "control_change"}, {"time": 2797, "annotation": {"number": 64, "value": 0}, "group": "control_change"}, {"time": 2799, "annotation": {"number": 64, "value": 127}, "group": "control_change"}, {"time": 2819, "annotation": {"number": 64, "value": 0}, "group": "control_change"}, {"time": 2821, "annotation": {"number": 64, "value": 127}, "group": "control_change"}, {"time": 2845, "annotation": {"number": 64, "value": 0}, "group": "control_change"}, {"time": 2847, "annotation": {"number": 64, "value": 127}, "group": "control_change"}, {"time": 2869, "annotation": {"number": 64, "value": 0}, "group": "control_change"}, {"time": 2870, "annotation": {"number": 64, "value": 127}, "group": "control_change"}, {"time": 2893, "annotation": {"number": 64, "value": 0}, "group": "control_change"}, {"time": 2896, "annotation": {"number": 64, "value": 127}, "group": "control_change"}, {"time": 2917, "annotation": {"number": 64, "value": 0}, "group": "control_change"}, {"time": 2919, "annotation": {"number": 64, "value": 127}, "group": "control_change"}, {"time": 2963, "annotation": {"number": 64, "value": 0}, "group": "control_change"}, {"time": 2966, "annotation": {"number": 64, "value": 127}, "group": "control_change"}, {"time": 3061, "annotation": {"number": 64, "value": 0}, "group": "control_change"}, {"time": 3063, "annotation": {"number": 64, "value": 127}, "group": "control_change"}]}]}