{"metadata": {"schema_version": "0.2", "title": "None", "source_filename": "674.mid", "source_format": "midi"}, "resolution": 12, "tempos": [{"time": 0, "qpm": 74.000074000074}, {"time": 924, "qpm": 73.00007178340392}, {"time": 936, "qpm": 72.00002880001152}, {"time": 940, "qpm": 71.00003550001774}, {"time": 949, "qpm": 70.25004332086004}, {"time": 957, "qpm": 69.00009660013524}, {"time": 964, "qpm": 70.50006873756702}, {"time": 971, "qpm": 74.000074000074}, {"time": 2265, "qpm": 73.00007178340392}, {"time": 2277, "qpm": 72.00002880001152}, {"time": 2281, "qpm": 71.00003550001774}, {"time": 2290, "qpm": 70.25004332086004}, {"time": 2298, "qpm": 69.00009660013524}, {"time": 2305, "qpm": 70.50006873756702}, {"time": 2312, "qpm": 74.000074000074}, {"time": 3127, "qpm": 73.00007178340392}, {"time": 3132, "qpm": 72.25007194902999}, {"time": 3142, "qpm": 71.5000715000715}, {"time": 3147, "qpm": 71.00003550001774}, {"time": 3154, "qpm": 69.75008544385467}, {"time": 3158, "qpm": 69.24999942291667}, {"time": 3168, "qpm": 69.75008544385467}, {"time": 3172, "qpm": 70.25004332086004}, {"time": 3175, "qpm": 71.25002226563196}, {"time": 3178, "qpm": 71.7500801209228}, {"time": 3180, "qpm": 74.000074000074}], "time_signatures": [{"time": 0, "numerator": 1, "denominator": 4}], "tracks": [{"program": 4, "is_drum": false, "name": "MELODY", "notes": [{"time": 201, "pitch": 76, "duration": 5, "velocity": 86}, {"time": 207, "pitch": 76, "duration": 4, "velocity": 89}, {"time": 213, "pitch": 76, "duration": 4, "velocity": 89}, {"time": 219, "pitch": 76, "duration": 5, "velocity": 87}, {"time": 225, "pitch": 76, "duration": 4, "velocity": 85}, {"time": 231, "pitch": 76, "duration": 4, "velocity": 84}, {"time": 237, "pitch": 76, "duration": 4, "velocity": 88}, {"time": 243, "pitch": 75, "duration": 5, "velocity": 91}, {"time": 249, "pitch": 71, "duration": 5, "velocity": 90}, {"time": 255, "pitch": 71, "duration": 5, "velocity": 84}, {"time": 261, "pitch": 76, "duration": 11, "velocity": 93}, {"time": 279, "pitch": 71, "duration": 6, "velocity": 91}, {"time": 285, "pitch": 76, "duration": 12, "velocity": 91}, {"time": 303, "pitch": 76, "duration": 4, "velocity": 89}, {"time": 309, "pitch": 76, "duration": 4, "velocity": 89}, {"time": 315, "pitch": 76, "duration": 5, "velocity": 91}, {"time": 321, "pitch": 75, "duration": 5, "velocity": 93}, {"time": 327, "pitch": 73, "duration": 5, "velocity": 91}, {"time": 333, "pitch": 71, "duration": 30, "velocity": 88}, {"time": 375, "pitch": 75, "duration": 5, "velocity": 91}, {"time": 381, "pitch": 76, "duration": 10, "velocity": 89}, {"time": 393, "pitch": 76, "duration": 4, "velocity": 83}, {"time": 399, "pitch": 76, "duration": 4, "velocity": 90}, {"time": 405, "pitch": 76, "duration": 4, "velocity": 88}, {"time": 411, "pitch": 76, "duration": 5, "velocity": 91}, {"time": 417, "pitch": 78, "duration": 6, "velocity": 90}, {"time": 423, "pitch": 76, "duration": 6, "velocity": 90}, {"time": 429, "pitch": 80, "duration": 12, "velocity": 90}, {"time": 441, "pitch": 78, "duration": 4, "velocity": 89}, {"time": 447, "pitch": 80, "duration": 7, "velocity": 91}, {"time": 456, "pitch": 73, "duration": 17, "velocity": 90}, {"time": 477, "pitch": 73, "duration": 2, "velocity": 96}, {"time": 480, "pitch": 75, "duration": 2, "velocity": 93}, {"time": 483, "pitch": 76, "duration": 4, "velocity": 87}, {"time": 489, "pitch": 76, "duration": 4, "velocity": 86}, {"time": 495, "pitch": 76, "duration": 4, "velocity": 85}, {"time": 501, "pitch": 76, "duration": 9, "velocity": 85}, {"time": 513, "pitch": 76, "duration": 4, "velocity": 91}, {"time": 519, "pitch": 78, "duration": 6, "velocity": 91}, {"time": 525, "pitch": 76, "duration": 4, "velocity": 89}, {"time": 531, "pitch": 78, "duration": 43, "velocity": 90}, {"time": 585, "pitch": 76, "duration": 5, "velocity": 86}, {"time": 591, "pitch": 76, "duration": 4, "velocity": 89}, {"time": 597, "pitch": 76, "duration": 4, "velocity": 89}, {"time": 603, "pitch": 76, "duration": 5, "velocity": 87}, {"time": 609, "pitch": 76, "duration": 4, "velocity": 85}, {"time": 615, "pitch": 76, "duration": 4, "velocity": 84}, {"time": 621, "pitch": 76, "duration": 4, "velocity": 88}, {"time": 627, "pitch": 75, "duration": 5, "velocity": 91}, {"time": 633, "pitch": 71, "duration": 5, "velocity": 90}, {"time": 639, "pitch": 71, "duration": 5, "velocity": 84}, {"time": 645, "pitch": 76, "duration": 11, "velocity": 93}, {"time": 663, "pitch": 71, "duration": 6, "velocity": 91}, {"time": 669, "pitch": 76, "duration": 12, "velocity": 91}, {"time": 687, "pitch": 76, "duration": 4, "velocity": 89}, {"time": 693, "pitch": 76, "duration": 4, "velocity": 89}, {"time": 699, "pitch": 76, "duration": 5, "velocity": 91}, {"time": 705, "pitch": 75, "duration": 5, "velocity": 93}, {"time": 711, "pitch": 73, "duration": 5, "velocity": 91}, {"time": 717, "pitch": 71, "duration": 30, "velocity": 88}, {"time": 759, "pitch": 75, "duration": 12, "velocity": 91}, {"time": 777, "pitch": 76, "duration": 4, "velocity": 83}, {"time": 783, "pitch": 76, "duration": 4, "velocity": 90}, {"time": 789, "pitch": 76, "duration": 4, "velocity": 88}, {"time": 795, "pitch": 76, "duration": 5, "velocity": 91}, {"time": 801, "pitch": 78, "duration": 6, "velocity": 90}, {"time": 807, "pitch": 76, "duration": 6, "velocity": 90}, {"time": 813, "pitch": 80, "duration": 12, "velocity": 90}, {"time": 825, "pitch": 78, "duration": 4, "velocity": 89}, {"time": 831, "pitch": 80, "duration": 7, "velocity": 91}, {"time": 840, "pitch": 73, "duration": 17, "velocity": 90}, {"time": 861, "pitch": 73, "duration": 2, "velocity": 96}, {"time": 864, "pitch": 75, "duration": 2, "velocity": 93}, {"time": 867, "pitch": 76, "duration": 4, "velocity": 87}, {"time": 873, "pitch": 76, "duration": 4, "velocity": 86}, {"time": 879, "pitch": 76, "duration": 4, "velocity": 85}, {"time": 885, "pitch": 80, "duration": 9, "velocity": 85}, {"time": 897, "pitch": 81, "duration": 5, "velocity": 92}, {"time": 903, "pitch": 80, "duration": 4, "velocity": 89}, {"time": 909, "pitch": 80, "duration": 12, "velocity": 90}, {"time": 921, "pitch": 78, "duration": 17, "velocity": 91}, {"time": 939, "pitch": 68, "duration": 4, "velocity": 96}, {"time": 945, "pitch": 69, "duration": 4, "velocity": 100}, {"time": 951, "pitch": 71, "duration": 4, "velocity": 95}, {"time": 957, "pitch": 80, "duration": 27, "velocity": 95}, {"time": 987, "pitch": 80, "duration": 5, "velocity": 92}, {"time": 993, "pitch": 78, "duration": 6, "velocity": 95}, {"time": 999, "pitch": 76, "duration": 6, "velocity": 90}, {"time": 1005, "pitch": 80, "duration": 13, "velocity": 93}, {"time": 1017, "pitch": 78, "duration": 16, "velocity": 91}, {"time": 1035, "pitch": 68, "duration": 4, "velocity": 91}, {"time": 1041, "pitch": 69, "duration": 4, "velocity": 91}, {"time": 1047, "pitch": 71, "duration": 5, "velocity": 87}, {"time": 1053, "pitch": 76, "duration": 26, "velocity": 90}, {"time": 1083, "pitch": 76, "duration": 5, "velocity": 89}, {"time": 1089, "pitch": 75, "duration": 5, "velocity": 91}, {"time": 1095, "pitch": 73, "duration": 4, "velocity": 95}, {"time": 1101, "pitch": 75, "duration": 22, "velocity": 90}, {"time": 1131, "pitch": 68, "duration": 5, "velocity": 93}, {"time": 1137, "pitch": 69, "duration": 4, "velocity": 95}, {"time": 1143, "pitch": 71, "duration": 5, "velocity": 92}, {"time": 1149, "pitch": 80, "duration": 27, "velocity": 91}, {"time": 1179, "pitch": 80, "duration": 4, "velocity": 90}, {"time": 1185, "pitch": 78, "duration": 6, "velocity": 90}, {"time": 1191, "pitch": 76, "duration": 5, "velocity": 90}, {"time": 1197, "pitch": 76, "duration": 24, "velocity": 95}, {"time": 1227, "pitch": 68, "duration": 4, "velocity": 89}, {"time": 1233, "pitch": 69, "duration": 4, "velocity": 92}, {"time": 1239, "pitch": 71, "duration": 5, "velocity": 89}, {"time": 1245, "pitch": 80, "duration": 12, "velocity": 93}, {"time": 1257, "pitch": 78, "duration": 6, "velocity": 90}, {"time": 1263, "pitch": 76, "duration": 6, "velocity": 90}, {"time": 1269, "pitch": 80, "duration": 10, "velocity": 90}, {"time": 1281, "pitch": 78, "duration": 5, "velocity": 90}, {"time": 1287, "pitch": 76, "duration": 7, "velocity": 84}, {"time": 1293, "pitch": 80, "duration": 12, "velocity": 90}, {"time": 1305, "pitch": 81, "duration": 6, "velocity": 91}, {"time": 1311, "pitch": 80, "duration": 6, "velocity": 91}, {"time": 1317, "pitch": 78, "duration": 11, "velocity": 90}, {"time": 1329, "pitch": 76, "duration": 5, "velocity": 89}, {"time": 1335, "pitch": 78, "duration": 6, "velocity": 91}, {"time": 1341, "pitch": 76, "duration": 3, "velocity": 90}, {"time": 1344, "pitch": 80, "duration": 24, "velocity": 90}, {"time": 1371, "pitch": 80, "duration": 7, "velocity": 90}, {"time": 1377, "pitch": 78, "duration": 7, "velocity": 89}, {"time": 1383, "pitch": 76, "duration": 6, "velocity": 90}, {"time": 1389, "pitch": 80, "duration": 12, "velocity": 91}, {"time": 1401, "pitch": 78, "duration": 15, "velocity": 89}, {"time": 1419, "pitch": 68, "duration": 5, "velocity": 90}, {"time": 1425, "pitch": 69, "duration": 6, "velocity": 90}, {"time": 1431, "pitch": 71, "duration": 6, "velocity": 87}, {"time": 1437, "pitch": 76, "duration": 27, "velocity": 90}, {"time": 1467, "pitch": 76, "duration": 5, "velocity": 91}, {"time": 1473, "pitch": 75, "duration": 7, "velocity": 93}, {"time": 1479, "pitch": 73, "duration": 6, "velocity": 93}, {"time": 1485, "pitch": 75, "duration": 18, "velocity": 91}, {"time": 1515, "pitch": 68, "duration": 5, "velocity": 90}, {"time": 1521, "pitch": 69, "duration": 5, "velocity": 92}, {"time": 1527, "pitch": 71, "duration": 5, "velocity": 88}, {"time": 1533, "pitch": 80, "duration": 26, "velocity": 90}, {"time": 1563, "pitch": 80, "duration": 6, "velocity": 90}, {"time": 1569, "pitch": 78, "duration": 6, "velocity": 91}, {"time": 1575, "pitch": 76, "duration": 4, "velocity": 89}, {"time": 1581, "pitch": 76, "duration": 22, "velocity": 92}, {"time": 1611, "pitch": 68, "duration": 5, "velocity": 89}, {"time": 1617, "pitch": 69, "duration": 5, "velocity": 93}, {"time": 1623, "pitch": 71, "duration": 5, "velocity": 91}, {"time": 1629, "pitch": 76, "duration": 43, "velocity": 90}, {"time": 1677, "pitch": 75, "duration": 9, "velocity": 92}, {"time": 1686, "pitch": 73, "duration": 2, "velocity": 90}, {"time": 1689, "pitch": 71, "duration": 29, "velocity": 89}, {"time": 1719, "pitch": 75, "duration": 5, "velocity": 90}, {"time": 1725, "pitch": 76, "duration": 26, "velocity": 90}, {"time": 1929, "pitch": 76, "duration": 5, "velocity": 86}, {"time": 1935, "pitch": 76, "duration": 4, "velocity": 89}, {"time": 1941, "pitch": 76, "duration": 4, "velocity": 89}, {"time": 1947, "pitch": 76, "duration": 5, "velocity": 87}, {"time": 1953, "pitch": 76, "duration": 4, "velocity": 85}, {"time": 1959, "pitch": 76, "duration": 4, "velocity": 84}, {"time": 1965, "pitch": 76, "duration": 4, "velocity": 88}, {"time": 1971, "pitch": 75, "duration": 5, "velocity": 91}, {"time": 1977, "pitch": 71, "duration": 5, "velocity": 90}, {"time": 1983, "pitch": 71, "duration": 5, "velocity": 84}, {"time": 1989, "pitch": 76, "duration": 11, "velocity": 93}, {"time": 2007, "pitch": 71, "duration": 6, "velocity": 91}, {"time": 2013, "pitch": 76, "duration": 12, "velocity": 91}, {"time": 2031, "pitch": 76, "duration": 4, "velocity": 89}, {"time": 2037, "pitch": 76, "duration": 4, "velocity": 89}, {"time": 2043, "pitch": 76, "duration": 5, "velocity": 91}, {"time": 2049, "pitch": 75, "duration": 5, "velocity": 93}, {"time": 2055, "pitch": 73, "duration": 5, "velocity": 91}, {"time": 2061, "pitch": 71, "duration": 30, "velocity": 88}, {"time": 2103, "pitch": 75, "duration": 12, "velocity": 91}, {"time": 2121, "pitch": 76, "duration": 4, "velocity": 83}, {"time": 2127, "pitch": 76, "duration": 4, "velocity": 90}, {"time": 2133, "pitch": 76, "duration": 4, "velocity": 88}, {"time": 2139, "pitch": 76, "duration": 5, "velocity": 91}, {"time": 2145, "pitch": 78, "duration": 6, "velocity": 90}, {"time": 2151, "pitch": 76, "duration": 6, "velocity": 90}, {"time": 2157, "pitch": 80, "duration": 12, "velocity": 90}, {"time": 2169, "pitch": 78, "duration": 4, "velocity": 89}, {"time": 2175, "pitch": 80, "duration": 7, "velocity": 91}, {"time": 2184, "pitch": 73, "duration": 17, "velocity": 90}, {"time": 2205, "pitch": 73, "duration": 2, "velocity": 96}, {"time": 2208, "pitch": 75, "duration": 2, "velocity": 93}, {"time": 2211, "pitch": 76, "duration": 4, "velocity": 87}, {"time": 2217, "pitch": 76, "duration": 4, "velocity": 86}, {"time": 2223, "pitch": 76, "duration": 4, "velocity": 85}, {"time": 2229, "pitch": 80, "duration": 9, "velocity": 85}, {"time": 2241, "pitch": 81, "duration": 5, "velocity": 92}, {"time": 2247, "pitch": 80, "duration": 4, "velocity": 89}, {"time": 2253, "pitch": 80, "duration": 12, "velocity": 90}, {"time": 2265, "pitch": 78, "duration": 17, "velocity": 91}, {"time": 2283, "pitch": 68, "duration": 4, "velocity": 96}, {"time": 2289, "pitch": 69, "duration": 4, "velocity": 100}, {"time": 2295, "pitch": 71, "duration": 4, "velocity": 95}, {"time": 2301, "pitch": 80, "duration": 27, "velocity": 95}, {"time": 2331, "pitch": 80, "duration": 5, "velocity": 92}, {"time": 2337, "pitch": 78, "duration": 6, "velocity": 95}, {"time": 2343, "pitch": 76, "duration": 6, "velocity": 90}, {"time": 2349, "pitch": 80, "duration": 13, "velocity": 93}, {"time": 2361, "pitch": 78, "duration": 16, "velocity": 91}, {"time": 2379, "pitch": 68, "duration": 4, "velocity": 91}, {"time": 2385, "pitch": 69, "duration": 4, "velocity": 91}, {"time": 2391, "pitch": 71, "duration": 5, "velocity": 87}, {"time": 2397, "pitch": 76, "duration": 26, "velocity": 90}, {"time": 2427, "pitch": 76, "duration": 5, "velocity": 89}, {"time": 2433, "pitch": 75, "duration": 5, "velocity": 91}, {"time": 2439, "pitch": 73, "duration": 4, "velocity": 95}, {"time": 2445, "pitch": 75, "duration": 22, "velocity": 90}, {"time": 2475, "pitch": 68, "duration": 5, "velocity": 93}, {"time": 2481, "pitch": 69, "duration": 4, "velocity": 95}, {"time": 2487, "pitch": 71, "duration": 5, "velocity": 92}, {"time": 2493, "pitch": 80, "duration": 27, "velocity": 91}, {"time": 2523, "pitch": 80, "duration": 4, "velocity": 90}, {"time": 2529, "pitch": 78, "duration": 6, "velocity": 90}, {"time": 2535, "pitch": 76, "duration": 5, "velocity": 90}, {"time": 2541, "pitch": 76, "duration": 24, "velocity": 95}, {"time": 2571, "pitch": 68, "duration": 4, "velocity": 89}, {"time": 2577, "pitch": 69, "duration": 4, "velocity": 92}, {"time": 2583, "pitch": 71, "duration": 5, "velocity": 89}, {"time": 2589, "pitch": 80, "duration": 12, "velocity": 93}, {"time": 2601, "pitch": 78, "duration": 6, "velocity": 90}, {"time": 2607, "pitch": 76, "duration": 6, "velocity": 90}, {"time": 2613, "pitch": 80, "duration": 10, "velocity": 90}, {"time": 2625, "pitch": 78, "duration": 5, "velocity": 90}, {"time": 2631, "pitch": 76, "duration": 7, "velocity": 84}, {"time": 2637, "pitch": 80, "duration": 12, "velocity": 90}, {"time": 2649, "pitch": 81, "duration": 6, "velocity": 91}, {"time": 2655, "pitch": 80, "duration": 6, "velocity": 91}, {"time": 2661, "pitch": 78, "duration": 11, "velocity": 90}, {"time": 2673, "pitch": 76, "duration": 5, "velocity": 89}, {"time": 2679, "pitch": 78, "duration": 6, "velocity": 91}, {"time": 2685, "pitch": 76, "duration": 3, "velocity": 90}, {"time": 2688, "pitch": 80, "duration": 24, "velocity": 90}, {"time": 2715, "pitch": 80, "duration": 7, "velocity": 90}, {"time": 2721, "pitch": 78, "duration": 7, "velocity": 89}, {"time": 2727, "pitch": 76, "duration": 6, "velocity": 90}, {"time": 2733, "pitch": 80, "duration": 12, "velocity": 91}, {"time": 2745, "pitch": 78, "duration": 15, "velocity": 89}, {"time": 2763, "pitch": 68, "duration": 5, "velocity": 90}, {"time": 2769, "pitch": 69, "duration": 6, "velocity": 90}, {"time": 2775, "pitch": 71, "duration": 6, "velocity": 87}, {"time": 2781, "pitch": 76, "duration": 27, "velocity": 90}, {"time": 2811, "pitch": 76, "duration": 5, "velocity": 91}, {"time": 2817, "pitch": 75, "duration": 7, "velocity": 93}, {"time": 2823, "pitch": 73, "duration": 6, "velocity": 93}, {"time": 2829, "pitch": 75, "duration": 18, "velocity": 91}, {"time": 2859, "pitch": 68, "duration": 5, "velocity": 90}, {"time": 2865, "pitch": 69, "duration": 5, "velocity": 92}, {"time": 2871, "pitch": 71, "duration": 5, "velocity": 88}, {"time": 2877, "pitch": 80, "duration": 26, "velocity": 90}, {"time": 2907, "pitch": 80, "duration": 6, "velocity": 90}, {"time": 2913, "pitch": 78, "duration": 6, "velocity": 91}, {"time": 2919, "pitch": 76, "duration": 4, "velocity": 89}, {"time": 2925, "pitch": 76, "duration": 22, "velocity": 92}, {"time": 2955, "pitch": 68, "duration": 5, "velocity": 89}, {"time": 2961, "pitch": 69, "duration": 5, "velocity": 93}, {"time": 2967, "pitch": 71, "duration": 5, "velocity": 91}, {"time": 2973, "pitch": 76, "duration": 43, "velocity": 90}, {"time": 3021, "pitch": 75, "duration": 9, "velocity": 92}, {"time": 3030, "pitch": 73, "duration": 2, "velocity": 90}, {"time": 3033, "pitch": 71, "duration": 29, "velocity": 89}, {"time": 3063, "pitch": 75, "duration": 5, "velocity": 90}, {"time": 3069, "pitch": 76, "duration": 26, "velocity": 90}, {"time": 3153, "pitch": 77, "duration": 5, "velocity": 89}, {"time": 3159, "pitch": 79, "duration": 6, "velocity": 91}, {"time": 3165, "pitch": 77, "duration": 3, "velocity": 90}, {"time": 3168, "pitch": 81, "duration": 24, "velocity": 90}, {"time": 3195, "pitch": 81, "duration": 7, "velocity": 90}, {"time": 3201, "pitch": 79, "duration": 7, "velocity": 89}, {"time": 3207, "pitch": 77, "duration": 6, "velocity": 90}, {"time": 3213, "pitch": 81, "duration": 12, "velocity": 91}, {"time": 3225, "pitch": 79, "duration": 15, "velocity": 89}, {"time": 3243, "pitch": 69, "duration": 5, "velocity": 90}, {"time": 3249, "pitch": 70, "duration": 6, "velocity": 90}, {"time": 3255, "pitch": 72, "duration": 6, "velocity": 87}, {"time": 3261, "pitch": 77, "duration": 27, "velocity": 90}, {"time": 3291, "pitch": 77, "duration": 5, "velocity": 91}, {"time": 3297, "pitch": 76, "duration": 7, "velocity": 93}, {"time": 3303, "pitch": 74, "duration": 6, "velocity": 93}, {"time": 3309, "pitch": 76, "duration": 18, "velocity": 91}, {"time": 3339, "pitch": 69, "duration": 5, "velocity": 90}, {"time": 3345, "pitch": 70, "duration": 5, "velocity": 92}, {"time": 3351, "pitch": 72, "duration": 5, "velocity": 88}, {"time": 3357, "pitch": 81, "duration": 26, "velocity": 90}, {"time": 3387, "pitch": 81, "duration": 6, "velocity": 90}, {"time": 3393, "pitch": 79, "duration": 6, "velocity": 91}, {"time": 3399, "pitch": 77, "duration": 4, "velocity": 89}, {"time": 3405, "pitch": 77, "duration": 22, "velocity": 92}, {"time": 3435, "pitch": 69, "duration": 5, "velocity": 89}, {"time": 3441, "pitch": 70, "duration": 5, "velocity": 93}, {"time": 3447, "pitch": 72, "duration": 5, "velocity": 91}, {"time": 3453, "pitch": 77, "duration": 43, "velocity": 90}, {"time": 3501, "pitch": 76, "duration": 9, "velocity": 92}, {"time": 3510, "pitch": 74, "duration": 2, "velocity": 90}, {"time": 3513, "pitch": 72, "duration": 29, "velocity": 89}, {"time": 3543, "pitch": 76, "duration": 5, "velocity": 90}, {"time": 3549, "pitch": 77, "duration": 26, "velocity": 90}]}, {"program": 0, "is_drum": false, "name": "PIANO", "notes": [{"time": 3, "pitch": 52, "duration": 42, "velocity": 83}, {"time": 3, "pitch": 64, "duration": 10, "velocity": 88}, {"time": 9, "pitch": 59, "duration": 8, "velocity": 84}, {"time": 15, "pitch": 66, "duration": 8, "velocity": 79}, {"time": 21, "pitch": 59, "duration": 7, "velocity": 72}, {"time": 27, "pitch": 64, "duration": 8, "velocity": 85}, {"time": 27, "pitch": 68, "duration": 8, "velocity": 83}, {"time": 33, "pitch": 59, "duration": 7, "velocity": 75}, {"time": 39, "pitch": 66, "duration": 9, "velocity": 80}, {"time": 45, "pitch": 59, "duration": 5, "velocity": 76}, {"time": 51, "pitch": 48, "duration": 49, "velocity": 83}, {"time": 51, "pitch": 59, "duration": 1, "velocity": 62}, {"time": 51, "pitch": 64, "duration": 13, "velocity": 85}, {"time": 57, "pitch": 59, "duration": 7, "velocity": 78}, {"time": 63, "pitch": 66, "duration": 7, "velocity": 81}, {"time": 69, "pitch": 59, "duration": 4, "velocity": 74}, {"time": 75, "pitch": 59, "duration": 3, "velocity": 83}, {"time": 75, "pitch": 64, "duration": 9, "velocity": 84}, {"time": 75, "pitch": 68, "duration": 10, "velocity": 84}, {"time": 81, "pitch": 59, "duration": 3, "velocity": 76}, {"time": 87, "pitch": 59, "duration": 11, "velocity": 90}, {"time": 87, "pitch": 66, "duration": 8, "velocity": 85}, {"time": 99, "pitch": 47, "duration": 45, "velocity": 87}, {"time": 99, "pitch": 59, "duration": 3, "velocity": 84}, {"time": 99, "pitch": 64, "duration": 8, "velocity": 84}, {"time": 105, "pitch": 59, "duration": 7, "velocity": 84}, {"time": 111, "pitch": 66, "duration": 7, "velocity": 80}, {"time": 117, "pitch": 59, "duration": 3, "velocity": 83}, {"time": 123, "pitch": 59, "duration": 3, "velocity": 82}, {"time": 123, "pitch": 64, "duration": 8, "velocity": 86}, {"time": 123, "pitch": 68, "duration": 10, "velocity": 85}, {"time": 129, "pitch": 59, "duration": 3, "velocity": 75}, {"time": 135, "pitch": 59, "duration": 11, "velocity": 90}, {"time": 135, "pitch": 66, "duration": 7, "velocity": 86}, {"time": 141, "pitch": 64, "duration": 7, "velocity": 87}, {"time": 145, "pitch": 54, "duration": 15, "velocity": 70}, {"time": 146, "pitch": 58, "duration": 19, "velocity": 85}, {"time": 146, "pitch": 61, "duration": 19, "velocity": 74}, {"time": 147, "pitch": 42, "duration": 20, "velocity": 87}, {"time": 147, "pitch": 66, "duration": 18, "velocity": 83}, {"time": 159, "pitch": 49, "duration": 8, "velocity": 87}, {"time": 165, "pitch": 54, "duration": 1, "velocity": 83}, {"time": 168, "pitch": 54, "duration": 26, "velocity": 73}, {"time": 170, "pitch": 58, "duration": 24, "velocity": 82}, {"time": 170, "pitch": 42, "duration": 13, "velocity": 74}, {"time": 171, "pitch": 61, "duration": 23, "velocity": 74}, {"time": 172, "pitch": 66, "duration": 22, "velocity": 69}, {"time": 195, "pitch": 42, "duration": 38, "velocity": 90}, {"time": 195, "pitch": 54, "duration": 6, "velocity": 64}, {"time": 195, "pitch": 57, "duration": 11, "velocity": 74}, {"time": 195, "pitch": 61, "duration": 12, "velocity": 75}, {"time": 201, "pitch": 49, "duration": 32, "velocity": 81}, {"time": 207, "pitch": 54, "duration": 8, "velocity": 89}, {"time": 213, "pitch": 61, "duration": 3, "velocity": 83}, {"time": 219, "pitch": 54, "duration": 4, "velocity": 83}, {"time": 219, "pitch": 66, "duration": 5, "velocity": 83}, {"time": 231, "pitch": 54, "duration": 3, "velocity": 87}, {"time": 231, "pitch": 57, "duration": 4, "velocity": 84}, {"time": 231, "pitch": 61, "duration": 5, "velocity": 90}, {"time": 237, "pitch": 42, "duration": 3, "velocity": 89}, {"time": 243, "pitch": 44, "duration": 19, "velocity": 89}, {"time": 243, "pitch": 56, "duration": 8, "velocity": 79}, {"time": 243, "pitch": 59, "duration": 8, "velocity": 85}, {"time": 249, "pitch": 51, "duration": 12, "velocity": 73}, {"time": 255, "pitch": 56, "duration": 4, "velocity": 84}, {"time": 255, "pitch": 63, "duration": 4, "velocity": 89}, {"time": 267, "pitch": 49, "duration": 12, "velocity": 89}, {"time": 267, "pitch": 56, "duration": 6, "velocity": 84}, {"time": 267, "pitch": 61, "duration": 5, "velocity": 86}, {"time": 267, "pitch": 64, "duration": 13, "velocity": 84}, {"time": 279, "pitch": 47, "duration": 6, "velocity": 85}, {"time": 279, "pitch": 54, "duration": 6, "velocity": 78}, {"time": 279, "pitch": 63, "duration": 12, "velocity": 89}, {"time": 291, "pitch": 45, "duration": 19, "velocity": 80}, {"time": 291, "pitch": 57, "duration": 5, "velocity": 77}, {"time": 291, "pitch": 61, "duration": 9, "velocity": 87}, {"time": 297, "pitch": 52, "duration": 12, "velocity": 53}, {"time": 303, "pitch": 57, "duration": 2, "velocity": 85}, {"time": 303, "pitch": 61, "duration": 6, "velocity": 90}, {"time": 309, "pitch": 57, "duration": 2, "velocity": 84}, {"time": 315, "pitch": 47, "duration": 13, "velocity": 88}, {"time": 315, "pitch": 54, "duration": 3, "velocity": 80}, {"time": 315, "pitch": 59, "duration": 7, "velocity": 79}, {"time": 321, "pitch": 54, "duration": 7, "velocity": 83}, {"time": 327, "pitch": 59, "duration": 1, "velocity": 85}, {"time": 327, "pitch": 63, "duration": 2, "velocity": 90}, {"time": 339, "pitch": 40, "duration": 32, "velocity": 88}, {"time": 339, "pitch": 56, "duration": 7, "velocity": 77}, {"time": 339, "pitch": 64, "duration": 8, "velocity": 82}, {"time": 345, "pitch": 47, "duration": 25, "velocity": 79}, {"time": 351, "pitch": 59, "duration": 7, "velocity": 85}, {"time": 351, "pitch": 64, "duration": 7, "velocity": 84}, {"time": 357, "pitch": 56, "duration": 3, "velocity": 73}, {"time": 363, "pitch": 56, "duration": 2, "velocity": 87}, {"time": 363, "pitch": 59, "duration": 6, "velocity": 90}, {"time": 363, "pitch": 64, "duration": 12, "velocity": 87}, {"time": 375, "pitch": 39, "duration": 10, "velocity": 88}, {"time": 375, "pitch": 63, "duration": 12, "velocity": 91}, {"time": 375, "pitch": 71, "duration": 9, "velocity": 84}, {"time": 375, "pitch": 75, "duration": 9, "velocity": 88}, {"time": 387, "pitch": 37, "duration": 8, "velocity": 90}, {"time": 387, "pitch": 61, "duration": 3, "velocity": 83}, {"time": 387, "pitch": 64, "duration": 7, "velocity": 83}, {"time": 387, "pitch": 68, "duration": 7, "velocity": 84}, {"time": 393, "pitch": 61, "duration": 3, "velocity": 72}, {"time": 399, "pitch": 61, "duration": 3, "velocity": 87}, {"time": 399, "pitch": 64, "duration": 3, "velocity": 87}, {"time": 399, "pitch": 68, "duration": 6, "velocity": 88}, {"time": 411, "pitch": 48, "duration": 15, "velocity": 81}, {"time": 411, "pitch": 60, "duration": 3, "velocity": 78}, {"time": 411, "pitch": 64, "duration": 7, "velocity": 81}, {"time": 411, "pitch": 68, "duration": 7, "velocity": 75}, {"time": 417, "pitch": 60, "duration": 3, "velocity": 78}, {"time": 423, "pitch": 60, "duration": 7, "velocity": 90}, {"time": 423, "pitch": 64, "duration": 10, "velocity": 85}, {"time": 423, "pitch": 68, "duration": 10, "velocity": 84}, {"time": 429, "pitch": 48, "duration": 3, "velocity": 83}, {"time": 435, "pitch": 47, "duration": 22, "velocity": 90}, {"time": 435, "pitch": 59, "duration": 3, "velocity": 81}, {"time": 435, "pitch": 64, "duration": 9, "velocity": 85}, {"time": 435, "pitch": 68, "duration": 7, "velocity": 84}, {"time": 441, "pitch": 59, "duration": 4, "velocity": 76}, {"time": 447, "pitch": 59, "duration": 2, "velocity": 89}, {"time": 447, "pitch": 64, "duration": 8, "velocity": 89}, {"time": 447, "pitch": 68, "duration": 9, "velocity": 89}, {"time": 453, "pitch": 59, "duration": 3, "velocity": 89}, {"time": 459, "pitch": 46, "duration": 18, "velocity": 89}, {"time": 459, "pitch": 58, "duration": 10, "velocity": 83}, {"time": 459, "pitch": 61, "duration": 7, "velocity": 83}, {"time": 465, "pitch": 52, "duration": 11, "velocity": 75}, {"time": 471, "pitch": 61, "duration": 8, "velocity": 78}, {"time": 471, "pitch": 64, "duration": 25, "velocity": 82}, {"time": 483, "pitch": 42, "duration": 38, "velocity": 88}, {"time": 489, "pitch": 49, "duration": 32, "velocity": 79}, {"time": 495, "pitch": 57, "duration": 7, "velocity": 93}, {"time": 501, "pitch": 61, "duration": 7, "velocity": 89}, {"time": 507, "pitch": 66, "duration": 7, "velocity": 86}, {"time": 513, "pitch": 54, "duration": 3, "velocity": 74}, {"time": 519, "pitch": 54, "duration": 3, "velocity": 90}, {"time": 519, "pitch": 57, "duration": 3, "velocity": 89}, {"time": 519, "pitch": 61, "duration": 6, "velocity": 90}, {"time": 531, "pitch": 35, "duration": 1, "velocity": 87}, {"time": 531, "pitch": 54, "duration": 5, "velocity": 84}, {"time": 531, "pitch": 59, "duration": 7, "velocity": 87}, {"time": 537, "pitch": 47, "duration": 34, "velocity": 81}, {"time": 543, "pitch": 54, "duration": 14, "velocity": 89}, {"time": 549, "pitch": 61, "duration": 3, "velocity": 83}, {"time": 555, "pitch": 59, "duration": 5, "velocity": 85}, {"time": 555, "pitch": 63, "duration": 6, "velocity": 91}, {"time": 561, "pitch": 54, "duration": 7, "velocity": 79}, {"time": 567, "pitch": 59, "duration": 8, "velocity": 84}, {"time": 567, "pitch": 63, "duration": 7, "velocity": 90}, {"time": 567, "pitch": 66, "duration": 8, "velocity": 88}, {"time": 573, "pitch": 54, "duration": 2, "velocity": 80}, {"time": 579, "pitch": 42, "duration": 38, "velocity": 90}, {"time": 579, "pitch": 54, "duration": 6, "velocity": 64}, {"time": 579, "pitch": 57, "duration": 11, "velocity": 74}, {"time": 579, "pitch": 61, "duration": 12, "velocity": 75}, {"time": 585, "pitch": 49, "duration": 32, "velocity": 81}, {"time": 591, "pitch": 54, "duration": 8, "velocity": 89}, {"time": 597, "pitch": 61, "duration": 3, "velocity": 83}, {"time": 603, "pitch": 54, "duration": 4, "velocity": 83}, {"time": 603, "pitch": 66, "duration": 5, "velocity": 83}, {"time": 615, "pitch": 54, "duration": 3, "velocity": 87}, {"time": 615, "pitch": 57, "duration": 4, "velocity": 84}, {"time": 615, "pitch": 61, "duration": 5, "velocity": 90}, {"time": 621, "pitch": 42, "duration": 3, "velocity": 89}, {"time": 627, "pitch": 44, "duration": 19, "velocity": 89}, {"time": 627, "pitch": 56, "duration": 8, "velocity": 79}, {"time": 627, "pitch": 59, "duration": 8, "velocity": 85}, {"time": 633, "pitch": 51, "duration": 12, "velocity": 73}, {"time": 639, "pitch": 56, "duration": 4, "velocity": 84}, {"time": 639, "pitch": 63, "duration": 4, "velocity": 89}, {"time": 651, "pitch": 49, "duration": 12, "velocity": 89}, {"time": 651, "pitch": 56, "duration": 6, "velocity": 84}, {"time": 651, "pitch": 61, "duration": 5, "velocity": 86}, {"time": 651, "pitch": 64, "duration": 13, "velocity": 84}, {"time": 663, "pitch": 47, "duration": 6, "velocity": 85}, {"time": 663, "pitch": 54, "duration": 6, "velocity": 78}, {"time": 663, "pitch": 63, "duration": 12, "velocity": 89}, {"time": 675, "pitch": 45, "duration": 19, "velocity": 80}, {"time": 675, "pitch": 57, "duration": 5, "velocity": 77}, {"time": 675, "pitch": 61, "duration": 9, "velocity": 87}, {"time": 681, "pitch": 52, "duration": 12, "velocity": 53}, {"time": 687, "pitch": 57, "duration": 2, "velocity": 85}, {"time": 687, "pitch": 61, "duration": 6, "velocity": 90}, {"time": 693, "pitch": 57, "duration": 2, "velocity": 84}, {"time": 699, "pitch": 47, "duration": 13, "velocity": 88}, {"time": 699, "pitch": 54, "duration": 3, "velocity": 80}, {"time": 699, "pitch": 59, "duration": 7, "velocity": 79}, {"time": 705, "pitch": 54, "duration": 7, "velocity": 83}, {"time": 711, "pitch": 59, "duration": 1, "velocity": 85}, {"time": 711, "pitch": 63, "duration": 2, "velocity": 90}, {"time": 723, "pitch": 40, "duration": 32, "velocity": 88}, {"time": 723, "pitch": 56, "duration": 7, "velocity": 77}, {"time": 723, "pitch": 64, "duration": 8, "velocity": 82}, {"time": 729, "pitch": 47, "duration": 25, "velocity": 79}, {"time": 735, "pitch": 59, "duration": 7, "velocity": 85}, {"time": 735, "pitch": 64, "duration": 7, "velocity": 84}, {"time": 741, "pitch": 56, "duration": 3, "velocity": 73}, {"time": 747, "pitch": 56, "duration": 2, "velocity": 87}, {"time": 747, "pitch": 59, "duration": 6, "velocity": 90}, {"time": 747, "pitch": 64, "duration": 12, "velocity": 87}, {"time": 759, "pitch": 39, "duration": 10, "velocity": 88}, {"time": 759, "pitch": 63, "duration": 12, "velocity": 91}, {"time": 759, "pitch": 71, "duration": 9, "velocity": 84}, {"time": 759, "pitch": 75, "duration": 9, "velocity": 88}, {"time": 771, "pitch": 37, "duration": 8, "velocity": 90}, {"time": 771, "pitch": 61, "duration": 3, "velocity": 83}, {"time": 771, "pitch": 64, "duration": 7, "velocity": 83}, {"time": 771, "pitch": 68, "duration": 7, "velocity": 84}, {"time": 777, "pitch": 61, "duration": 3, "velocity": 72}, {"time": 783, "pitch": 61, "duration": 3, "velocity": 87}, {"time": 783, "pitch": 64, "duration": 3, "velocity": 87}, {"time": 783, "pitch": 68, "duration": 6, "velocity": 88}, {"time": 795, "pitch": 48, "duration": 15, "velocity": 81}, {"time": 795, "pitch": 60, "duration": 3, "velocity": 78}, {"time": 795, "pitch": 64, "duration": 7, "velocity": 81}, {"time": 795, "pitch": 68, "duration": 7, "velocity": 75}, {"time": 801, "pitch": 60, "duration": 3, "velocity": 78}, {"time": 807, "pitch": 60, "duration": 7, "velocity": 90}, {"time": 807, "pitch": 64, "duration": 10, "velocity": 85}, {"time": 807, "pitch": 68, "duration": 10, "velocity": 84}, {"time": 813, "pitch": 48, "duration": 3, "velocity": 83}, {"time": 819, "pitch": 47, "duration": 22, "velocity": 90}, {"time": 819, "pitch": 59, "duration": 3, "velocity": 81}, {"time": 819, "pitch": 64, "duration": 9, "velocity": 85}, {"time": 819, "pitch": 68, "duration": 7, "velocity": 84}, {"time": 825, "pitch": 59, "duration": 4, "velocity": 76}, {"time": 831, "pitch": 59, "duration": 2, "velocity": 89}, {"time": 831, "pitch": 64, "duration": 8, "velocity": 89}, {"time": 831, "pitch": 68, "duration": 9, "velocity": 89}, {"time": 837, "pitch": 59, "duration": 3, "velocity": 89}, {"time": 843, "pitch": 46, "duration": 18, "velocity": 89}, {"time": 843, "pitch": 58, "duration": 10, "velocity": 83}, {"time": 843, "pitch": 61, "duration": 7, "velocity": 83}, {"time": 849, "pitch": 52, "duration": 11, "velocity": 75}, {"time": 855, "pitch": 61, "duration": 8, "velocity": 78}, {"time": 855, "pitch": 64, "duration": 25, "velocity": 82}, {"time": 867, "pitch": 42, "duration": 38, "velocity": 88}, {"time": 873, "pitch": 49, "duration": 32, "velocity": 79}, {"time": 879, "pitch": 57, "duration": 7, "velocity": 93}, {"time": 885, "pitch": 61, "duration": 7, "velocity": 89}, {"time": 891, "pitch": 66, "duration": 7, "velocity": 86}, {"time": 897, "pitch": 54, "duration": 3, "velocity": 74}, {"time": 903, "pitch": 54, "duration": 3, "velocity": 90}, {"time": 903, "pitch": 57, "duration": 3, "velocity": 89}, {"time": 903, "pitch": 61, "duration": 6, "velocity": 90}, {"time": 915, "pitch": 35, "duration": 1, "velocity": 87}, {"time": 915, "pitch": 54, "duration": 5, "velocity": 84}, {"time": 915, "pitch": 59, "duration": 7, "velocity": 87}, {"time": 921, "pitch": 47, "duration": 34, "velocity": 81}, {"time": 927, "pitch": 54, "duration": 14, "velocity": 89}, {"time": 933, "pitch": 61, "duration": 3, "velocity": 83}, {"time": 939, "pitch": 59, "duration": 5, "velocity": 85}, {"time": 939, "pitch": 63, "duration": 6, "velocity": 91}, {"time": 945, "pitch": 54, "duration": 7, "velocity": 79}, {"time": 951, "pitch": 59, "duration": 8, "velocity": 84}, {"time": 951, "pitch": 63, "duration": 7, "velocity": 90}, {"time": 951, "pitch": 66, "duration": 8, "velocity": 88}, {"time": 957, "pitch": 54, "duration": 2, "velocity": 80}, {"time": 963, "pitch": 40, "duration": 38, "velocity": 89}, {"time": 963, "pitch": 56, "duration": 8, "velocity": 81}, {"time": 963, "pitch": 59, "duration": 8, "velocity": 84}, {"time": 969, "pitch": 47, "duration": 32, "velocity": 78}, {"time": 975, "pitch": 59, "duration": 7, "velocity": 89}, {"time": 975, "pitch": 64, "duration": 5, "velocity": 90}, {"time": 981, "pitch": 56, "duration": 3, "velocity": 80}, {"time": 987, "pitch": 56, "duration": 2, "velocity": 77}, {"time": 987, "pitch": 59, "duration": 3, "velocity": 81}, {"time": 993, "pitch": 56, "duration": 3, "velocity": 67}, {"time": 999, "pitch": 56, "duration": 5, "velocity": 90}, {"time": 999, "pitch": 59, "duration": 7, "velocity": 94}, {"time": 999, "pitch": 64, "duration": 11, "velocity": 90}, {"time": 1005, "pitch": 40, "duration": 3, "velocity": 90}, {"time": 1011, "pitch": 39, "duration": 25, "velocity": 89}, {"time": 1011, "pitch": 54, "duration": 3, "velocity": 88}, {"time": 1011, "pitch": 59, "duration": 8, "velocity": 84}, {"time": 1011, "pitch": 63, "duration": 8, "velocity": 90}, {"time": 1017, "pitch": 54, "duration": 7, "velocity": 81}, {"time": 1023, "pitch": 59, "duration": 2, "velocity": 90}, {"time": 1023, "pitch": 63, "duration": 5, "velocity": 93}, {"time": 1029, "pitch": 54, "duration": 3, "velocity": 77}, {"time": 1035, "pitch": 54, "duration": 2, "velocity": 84}, {"time": 1035, "pitch": 59, "duration": 3, "velocity": 89}, {"time": 1035, "pitch": 63, "duration": 7, "velocity": 89}, {"time": 1041, "pitch": 54, "duration": 3, "velocity": 76}, {"time": 1047, "pitch": 54, "duration": 4, "velocity": 90}, {"time": 1047, "pitch": 59, "duration": 5, "velocity": 93}, {"time": 1047, "pitch": 63, "duration": 6, "velocity": 92}, {"time": 1053, "pitch": 35, "duration": 3, "velocity": 96}, {"time": 1059, "pitch": 37, "duration": 11, "velocity": 91}, {"time": 1059, "pitch": 56, "duration": 3, "velocity": 82}, {"time": 1059, "pitch": 61, "duration": 8, "velocity": 85}, {"time": 1059, "pitch": 64, "duration": 7, "velocity": 83}, {"time": 1065, "pitch": 56, "duration": 7, "velocity": 77}, {"time": 1071, "pitch": 61, "duration": 2, "velocity": 90}, {"time": 1071, "pitch": 64, "duration": 5, "velocity": 90}, {"time": 1077, "pitch": 56, "duration": 4, "velocity": 82}, {"time": 1083, "pitch": 61, "duration": 3, "velocity": 91}, {"time": 1083, "pitch": 64, "duration": 7, "velocity": 88}, {"time": 1089, "pitch": 56, "duration": 5, "velocity": 81}, {"time": 1095, "pitch": 61, "duration": 4, "velocity": 90}, {"time": 1095, "pitch": 64, "duration": 4, "velocity": 85}, {"time": 1101, "pitch": 37, "duration": 3, "velocity": 93}, {"time": 1101, "pitch": 56, "duration": 3, "velocity": 81}, {"time": 1101, "pitch": 61, "duration": 3, "velocity": 89}, {"time": 1101, "pitch": 64, "duration": 3, "velocity": 87}, {"time": 1107, "pitch": 35, "duration": 19, "velocity": 90}, {"time": 1107, "pitch": 54, "duration": 3, "velocity": 86}, {"time": 1107, "pitch": 59, "duration": 7, "velocity": 87}, {"time": 1107, "pitch": 63, "duration": 7, "velocity": 91}, {"time": 1113, "pitch": 54, "duration": 4, "velocity": 79}, {"time": 1119, "pitch": 59, "duration": 2, "velocity": 85}, {"time": 1119, "pitch": 63, "duration": 2, "velocity": 89}, {"time": 1125, "pitch": 54, "duration": 3, "velocity": 75}, {"time": 1131, "pitch": 54, "duration": 2, "velocity": 84}, {"time": 1131, "pitch": 59, "duration": 3, "velocity": 85}, {"time": 1131, "pitch": 63, "duration": 7, "velocity": 90}, {"time": 1137, "pitch": 54, "duration": 2, "velocity": 82}, {"time": 1143, "pitch": 54, "duration": 4, "velocity": 90}, {"time": 1143, "pitch": 59, "duration": 4, "velocity": 93}, {"time": 1143, "pitch": 63, "duration": 5, "velocity": 92}, {"time": 1149, "pitch": 35, "duration": 1, "velocity": 90}, {"time": 1155, "pitch": 45, "duration": 22, "velocity": 98}, {"time": 1155, "pitch": 52, "duration": 3, "velocity": 86}, {"time": 1155, "pitch": 57, "duration": 7, "velocity": 80}, {"time": 1155, "pitch": 61, "duration": 7, "velocity": 89}, {"time": 1161, "pitch": 52, "duration": 5, "velocity": 87}, {"time": 1167, "pitch": 57, "duration": 2, "velocity": 90}, {"time": 1167, "pitch": 61, "duration": 2, "velocity": 90}, {"time": 1173, "pitch": 52, "duration": 7, "velocity": 89}, {"time": 1179, "pitch": 45, "duration": 15, "velocity": 83}, {"time": 1179, "pitch": 57, "duration": 7, "velocity": 85}, {"time": 1179, "pitch": 64, "duration": 9, "velocity": 89}, {"time": 1185, "pitch": 52, "duration": 5, "velocity": 89}, {"time": 1191, "pitch": 57, "duration": 6, "velocity": 89}, {"time": 1191, "pitch": 61, "duration": 8, "velocity": 89}, {"time": 1197, "pitch": 45, "duration": 4, "velocity": 95}, {"time": 1203, "pitch": 44, "duration": 39, "velocity": 90}, {"time": 1203, "pitch": 56, "duration": 4, "velocity": 85}, {"time": 1203, "pitch": 59, "duration": 8, "velocity": 90}, {"time": 1203, "pitch": 64, "duration": 7, "velocity": 90}, {"time": 1209, "pitch": 56, "duration": 5, "velocity": 81}, {"time": 1215, "pitch": 56, "duration": 2, "velocity": 87}, {"time": 1215, "pitch": 59, "duration": 3, "velocity": 94}, {"time": 1215, "pitch": 64, "duration": 4, "velocity": 89}, {"time": 1221, "pitch": 56, "duration": 3, "velocity": 74}, {"time": 1227, "pitch": 56, "duration": 2, "velocity": 82}, {"time": 1227, "pitch": 59, "duration": 4, "velocity": 87}, {"time": 1227, "pitch": 64, "duration": 7, "velocity": 83}, {"time": 1230, "pitch": 59, "duration": 1, "velocity": 60}, {"time": 1233, "pitch": 56, "duration": 3, "velocity": 75}, {"time": 1239, "pitch": 56, "duration": 6, "velocity": 89}, {"time": 1239, "pitch": 59, "duration": 6, "velocity": 96}, {"time": 1239, "pitch": 64, "duration": 10, "velocity": 89}, {"time": 1245, "pitch": 44, "duration": 3, "velocity": 92}, {"time": 1251, "pitch": 42, "duration": 15, "velocity": 90}, {"time": 1251, "pitch": 54, "duration": 4, "velocity": 82}, {"time": 1251, "pitch": 57, "duration": 6, "velocity": 78}, {"time": 1251, "pitch": 61, "duration": 7, "velocity": 86}, {"time": 1257, "pitch": 49, "duration": 8, "velocity": 78}, {"time": 1263, "pitch": 54, "duration": 2, "velocity": 80}, {"time": 1263, "pitch": 57, "duration": 4, "velocity": 90}, {"time": 1263, "pitch": 61, "duration": 4, "velocity": 89}, {"time": 1269, "pitch": 49, "duration": 20, "velocity": 77}, {"time": 1275, "pitch": 54, "duration": 3, "velocity": 89}, {"time": 1275, "pitch": 57, "duration": 7, "velocity": 90}, {"time": 1275, "pitch": 61, "duration": 7, "velocity": 91}, {"time": 1275, "pitch": 66, "duration": 5, "velocity": 87}, {"time": 1281, "pitch": 54, "duration": 3, "velocity": 78}, {"time": 1287, "pitch": 54, "duration": 5, "velocity": 89}, {"time": 1287, "pitch": 57, "duration": 5, "velocity": 92}, {"time": 1287, "pitch": 61, "duration": 7, "velocity": 91}, {"time": 1293, "pitch": 42, "duration": 5, "velocity": 93}, {"time": 1299, "pitch": 47, "duration": 13, "velocity": 98}, {"time": 1299, "pitch": 54, "duration": 3, "velocity": 85}, {"time": 1299, "pitch": 59, "duration": 7, "velocity": 90}, {"time": 1305, "pitch": 54, "duration": 3, "velocity": 81}, {"time": 1311, "pitch": 54, "duration": 2, "velocity": 89}, {"time": 1311, "pitch": 59, "duration": 7, "velocity": 92}, {"time": 1311, "pitch": 63, "duration": 7, "velocity": 92}, {"time": 1317, "pitch": 54, "duration": 4, "velocity": 90}, {"time": 1323, "pitch": 35, "duration": 13, "velocity": 90}, {"time": 1323, "pitch": 35, "duration": 13, "velocity": 91}, {"time": 1323, "pitch": 54, "duration": 3, "velocity": 91}, {"time": 1323, "pitch": 59, "duration": 7, "velocity": 90}, {"time": 1329, "pitch": 54, "duration": 3, "velocity": 83}, {"time": 1335, "pitch": 54, "duration": 2, "velocity": 87}, {"time": 1335, "pitch": 59, "duration": 10, "velocity": 93}, {"time": 1335, "pitch": 63, "duration": 10, "velocity": 93}, {"time": 1341, "pitch": 54, "duration": 4, "velocity": 91}, {"time": 1347, "pitch": 40, "duration": 38, "velocity": 89}, {"time": 1347, "pitch": 56, "duration": 8, "velocity": 81}, {"time": 1347, "pitch": 59, "duration": 8, "velocity": 84}, {"time": 1353, "pitch": 47, "duration": 32, "velocity": 78}, {"time": 1359, "pitch": 59, "duration": 7, "velocity": 89}, {"time": 1359, "pitch": 64, "duration": 5, "velocity": 90}, {"time": 1365, "pitch": 56, "duration": 3, "velocity": 80}, {"time": 1371, "pitch": 56, "duration": 2, "velocity": 77}, {"time": 1371, "pitch": 59, "duration": 3, "velocity": 81}, {"time": 1377, "pitch": 56, "duration": 3, "velocity": 67}, {"time": 1383, "pitch": 56, "duration": 5, "velocity": 90}, {"time": 1383, "pitch": 59, "duration": 7, "velocity": 94}, {"time": 1383, "pitch": 64, "duration": 11, "velocity": 90}, {"time": 1389, "pitch": 40, "duration": 3, "velocity": 90}, {"time": 1395, "pitch": 39, "duration": 25, "velocity": 89}, {"time": 1395, "pitch": 54, "duration": 3, "velocity": 88}, {"time": 1395, "pitch": 59, "duration": 8, "velocity": 84}, {"time": 1395, "pitch": 63, "duration": 8, "velocity": 90}, {"time": 1401, "pitch": 54, "duration": 7, "velocity": 81}, {"time": 1407, "pitch": 59, "duration": 2, "velocity": 90}, {"time": 1407, "pitch": 63, "duration": 5, "velocity": 93}, {"time": 1413, "pitch": 54, "duration": 3, "velocity": 77}, {"time": 1419, "pitch": 54, "duration": 2, "velocity": 84}, {"time": 1419, "pitch": 59, "duration": 3, "velocity": 89}, {"time": 1419, "pitch": 63, "duration": 7, "velocity": 89}, {"time": 1425, "pitch": 54, "duration": 3, "velocity": 76}, {"time": 1431, "pitch": 54, "duration": 4, "velocity": 90}, {"time": 1431, "pitch": 59, "duration": 5, "velocity": 93}, {"time": 1431, "pitch": 63, "duration": 6, "velocity": 92}, {"time": 1437, "pitch": 35, "duration": 3, "velocity": 96}, {"time": 1443, "pitch": 37, "duration": 11, "velocity": 91}, {"time": 1443, "pitch": 56, "duration": 3, "velocity": 82}, {"time": 1443, "pitch": 61, "duration": 8, "velocity": 85}, {"time": 1443, "pitch": 64, "duration": 7, "velocity": 83}, {"time": 1449, "pitch": 56, "duration": 7, "velocity": 77}, {"time": 1455, "pitch": 61, "duration": 2, "velocity": 90}, {"time": 1455, "pitch": 64, "duration": 5, "velocity": 90}, {"time": 1461, "pitch": 56, "duration": 4, "velocity": 82}, {"time": 1467, "pitch": 61, "duration": 3, "velocity": 91}, {"time": 1467, "pitch": 64, "duration": 7, "velocity": 88}, {"time": 1473, "pitch": 56, "duration": 5, "velocity": 81}, {"time": 1479, "pitch": 61, "duration": 4, "velocity": 90}, {"time": 1479, "pitch": 64, "duration": 4, "velocity": 85}, {"time": 1485, "pitch": 37, "duration": 3, "velocity": 93}, {"time": 1485, "pitch": 56, "duration": 3, "velocity": 81}, {"time": 1485, "pitch": 61, "duration": 3, "velocity": 89}, {"time": 1485, "pitch": 64, "duration": 3, "velocity": 87}, {"time": 1491, "pitch": 35, "duration": 19, "velocity": 90}, {"time": 1491, "pitch": 54, "duration": 3, "velocity": 86}, {"time": 1491, "pitch": 59, "duration": 7, "velocity": 87}, {"time": 1491, "pitch": 63, "duration": 7, "velocity": 91}, {"time": 1497, "pitch": 54, "duration": 4, "velocity": 79}, {"time": 1503, "pitch": 59, "duration": 2, "velocity": 85}, {"time": 1503, "pitch": 63, "duration": 2, "velocity": 89}, {"time": 1509, "pitch": 54, "duration": 3, "velocity": 75}, {"time": 1515, "pitch": 54, "duration": 2, "velocity": 84}, {"time": 1515, "pitch": 59, "duration": 3, "velocity": 85}, {"time": 1515, "pitch": 63, "duration": 7, "velocity": 90}, {"time": 1521, "pitch": 54, "duration": 2, "velocity": 82}, {"time": 1527, "pitch": 54, "duration": 4, "velocity": 90}, {"time": 1527, "pitch": 59, "duration": 4, "velocity": 93}, {"time": 1527, "pitch": 63, "duration": 5, "velocity": 92}, {"time": 1533, "pitch": 35, "duration": 1, "velocity": 90}, {"time": 1539, "pitch": 45, "duration": 22, "velocity": 98}, {"time": 1539, "pitch": 52, "duration": 3, "velocity": 86}, {"time": 1539, "pitch": 57, "duration": 7, "velocity": 80}, {"time": 1539, "pitch": 61, "duration": 7, "velocity": 89}, {"time": 1545, "pitch": 52, "duration": 5, "velocity": 87}, {"time": 1551, "pitch": 57, "duration": 2, "velocity": 90}, {"time": 1551, "pitch": 61, "duration": 2, "velocity": 90}, {"time": 1557, "pitch": 52, "duration": 7, "velocity": 89}, {"time": 1563, "pitch": 45, "duration": 15, "velocity": 83}, {"time": 1563, "pitch": 57, "duration": 7, "velocity": 85}, {"time": 1563, "pitch": 64, "duration": 9, "velocity": 89}, {"time": 1569, "pitch": 52, "duration": 5, "velocity": 89}, {"time": 1575, "pitch": 57, "duration": 6, "velocity": 89}, {"time": 1575, "pitch": 61, "duration": 8, "velocity": 89}, {"time": 1581, "pitch": 45, "duration": 4, "velocity": 95}, {"time": 1587, "pitch": 44, "duration": 39, "velocity": 90}, {"time": 1587, "pitch": 56, "duration": 4, "velocity": 85}, {"time": 1587, "pitch": 59, "duration": 8, "velocity": 90}, {"time": 1587, "pitch": 64, "duration": 7, "velocity": 90}, {"time": 1593, "pitch": 56, "duration": 5, "velocity": 81}, {"time": 1599, "pitch": 56, "duration": 2, "velocity": 87}, {"time": 1599, "pitch": 59, "duration": 3, "velocity": 94}, {"time": 1599, "pitch": 64, "duration": 4, "velocity": 89}, {"time": 1605, "pitch": 56, "duration": 3, "velocity": 74}, {"time": 1611, "pitch": 56, "duration": 2, "velocity": 82}, {"time": 1611, "pitch": 59, "duration": 4, "velocity": 87}, {"time": 1611, "pitch": 64, "duration": 7, "velocity": 83}, {"time": 1614, "pitch": 59, "duration": 1, "velocity": 60}, {"time": 1617, "pitch": 56, "duration": 3, "velocity": 75}, {"time": 1623, "pitch": 56, "duration": 6, "velocity": 89}, {"time": 1623, "pitch": 59, "duration": 6, "velocity": 96}, {"time": 1623, "pitch": 64, "duration": 10, "velocity": 89}, {"time": 1629, "pitch": 44, "duration": 3, "velocity": 92}, {"time": 1635, "pitch": 42, "duration": 15, "velocity": 90}, {"time": 1635, "pitch": 54, "duration": 4, "velocity": 82}, {"time": 1635, "pitch": 57, "duration": 6, "velocity": 78}, {"time": 1635, "pitch": 61, "duration": 7, "velocity": 86}, {"time": 1641, "pitch": 49, "duration": 8, "velocity": 78}, {"time": 1647, "pitch": 54, "duration": 2, "velocity": 80}, {"time": 1647, "pitch": 57, "duration": 4, "velocity": 90}, {"time": 1647, "pitch": 61, "duration": 4, "velocity": 89}, {"time": 1653, "pitch": 49, "duration": 20, "velocity": 77}, {"time": 1659, "pitch": 54, "duration": 3, "velocity": 89}, {"time": 1659, "pitch": 57, "duration": 7, "velocity": 90}, {"time": 1659, "pitch": 61, "duration": 7, "velocity": 91}, {"time": 1659, "pitch": 66, "duration": 5, "velocity": 87}, {"time": 1665, "pitch": 54, "duration": 3, "velocity": 78}, {"time": 1671, "pitch": 54, "duration": 5, "velocity": 89}, {"time": 1671, "pitch": 57, "duration": 5, "velocity": 92}, {"time": 1671, "pitch": 61, "duration": 7, "velocity": 91}, {"time": 1677, "pitch": 42, "duration": 5, "velocity": 93}, {"time": 1683, "pitch": 47, "duration": 13, "velocity": 98}, {"time": 1683, "pitch": 54, "duration": 3, "velocity": 85}, {"time": 1683, "pitch": 59, "duration": 7, "velocity": 90}, {"time": 1689, "pitch": 54, "duration": 3, "velocity": 81}, {"time": 1695, "pitch": 54, "duration": 2, "velocity": 89}, {"time": 1695, "pitch": 59, "duration": 7, "velocity": 92}, {"time": 1695, "pitch": 63, "duration": 7, "velocity": 92}, {"time": 1701, "pitch": 54, "duration": 4, "velocity": 90}, {"time": 1707, "pitch": 35, "duration": 13, "velocity": 90}, {"time": 1707, "pitch": 35, "duration": 13, "velocity": 91}, {"time": 1707, "pitch": 54, "duration": 3, "velocity": 91}, {"time": 1707, "pitch": 59, "duration": 7, "velocity": 90}, {"time": 1713, "pitch": 54, "duration": 3, "velocity": 83}, {"time": 1719, "pitch": 54, "duration": 2, "velocity": 87}, {"time": 1719, "pitch": 59, "duration": 10, "velocity": 93}, {"time": 1719, "pitch": 63, "duration": 10, "velocity": 93}, {"time": 1725, "pitch": 54, "duration": 4, "velocity": 91}, {"time": 1731, "pitch": 52, "duration": 42, "velocity": 83}, {"time": 1731, "pitch": 64, "duration": 10, "velocity": 88}, {"time": 1737, "pitch": 59, "duration": 8, "velocity": 84}, {"time": 1743, "pitch": 66, "duration": 8, "velocity": 79}, {"time": 1749, "pitch": 59, "duration": 7, "velocity": 72}, {"time": 1755, "pitch": 64, "duration": 8, "velocity": 85}, {"time": 1755, "pitch": 68, "duration": 8, "velocity": 83}, {"time": 1761, "pitch": 59, "duration": 7, "velocity": 75}, {"time": 1767, "pitch": 66, "duration": 9, "velocity": 80}, {"time": 1773, "pitch": 59, "duration": 5, "velocity": 76}, {"time": 1779, "pitch": 48, "duration": 49, "velocity": 83}, {"time": 1779, "pitch": 59, "duration": 1, "velocity": 62}, {"time": 1779, "pitch": 64, "duration": 13, "velocity": 85}, {"time": 1785, "pitch": 59, "duration": 7, "velocity": 78}, {"time": 1791, "pitch": 66, "duration": 7, "velocity": 81}, {"time": 1797, "pitch": 59, "duration": 4, "velocity": 74}, {"time": 1803, "pitch": 59, "duration": 3, "velocity": 83}, {"time": 1803, "pitch": 64, "duration": 9, "velocity": 84}, {"time": 1803, "pitch": 68, "duration": 10, "velocity": 84}, {"time": 1809, "pitch": 59, "duration": 3, "velocity": 76}, {"time": 1815, "pitch": 59, "duration": 11, "velocity": 90}, {"time": 1815, "pitch": 66, "duration": 8, "velocity": 85}, {"time": 1827, "pitch": 47, "duration": 45, "velocity": 87}, {"time": 1827, "pitch": 59, "duration": 3, "velocity": 84}, {"time": 1827, "pitch": 64, "duration": 8, "velocity": 84}, {"time": 1833, "pitch": 59, "duration": 7, "velocity": 84}, {"time": 1839, "pitch": 66, "duration": 7, "velocity": 80}, {"time": 1845, "pitch": 59, "duration": 3, "velocity": 83}, {"time": 1851, "pitch": 59, "duration": 3, "velocity": 82}, {"time": 1851, "pitch": 64, "duration": 8, "velocity": 86}, {"time": 1851, "pitch": 68, "duration": 10, "velocity": 85}, {"time": 1857, "pitch": 59, "duration": 3, "velocity": 75}, {"time": 1863, "pitch": 59, "duration": 11, "velocity": 90}, {"time": 1863, "pitch": 66, "duration": 7, "velocity": 86}, {"time": 1869, "pitch": 64, "duration": 7, "velocity": 87}, {"time": 1873, "pitch": 54, "duration": 15, "velocity": 70}, {"time": 1874, "pitch": 58, "duration": 19, "velocity": 85}, {"time": 1874, "pitch": 61, "duration": 19, "velocity": 74}, {"time": 1875, "pitch": 42, "duration": 20, "velocity": 87}, {"time": 1875, "pitch": 66, "duration": 18, "velocity": 83}, {"time": 1887, "pitch": 49, "duration": 8, "velocity": 87}, {"time": 1893, "pitch": 54, "duration": 1, "velocity": 83}, {"time": 1896, "pitch": 54, "duration": 26, "velocity": 73}, {"time": 1898, "pitch": 58, "duration": 24, "velocity": 82}, {"time": 1898, "pitch": 42, "duration": 13, "velocity": 74}, {"time": 1899, "pitch": 61, "duration": 23, "velocity": 74}, {"time": 1900, "pitch": 66, "duration": 22, "velocity": 69}, {"time": 1923, "pitch": 42, "duration": 38, "velocity": 90}, {"time": 1923, "pitch": 54, "duration": 6, "velocity": 64}, {"time": 1923, "pitch": 57, "duration": 11, "velocity": 74}, {"time": 1923, "pitch": 61, "duration": 12, "velocity": 75}, {"time": 1929, "pitch": 49, "duration": 32, "velocity": 81}, {"time": 1935, "pitch": 54, "duration": 8, "velocity": 89}, {"time": 1941, "pitch": 61, "duration": 3, "velocity": 83}, {"time": 1947, "pitch": 54, "duration": 4, "velocity": 83}, {"time": 1947, "pitch": 66, "duration": 5, "velocity": 83}, {"time": 1959, "pitch": 54, "duration": 3, "velocity": 87}, {"time": 1959, "pitch": 57, "duration": 4, "velocity": 84}, {"time": 1959, "pitch": 61, "duration": 5, "velocity": 90}, {"time": 1965, "pitch": 42, "duration": 3, "velocity": 89}, {"time": 1971, "pitch": 44, "duration": 19, "velocity": 89}, {"time": 1971, "pitch": 56, "duration": 8, "velocity": 79}, {"time": 1971, "pitch": 59, "duration": 8, "velocity": 85}, {"time": 1977, "pitch": 51, "duration": 12, "velocity": 73}, {"time": 1983, "pitch": 56, "duration": 4, "velocity": 84}, {"time": 1983, "pitch": 63, "duration": 4, "velocity": 89}, {"time": 1995, "pitch": 49, "duration": 12, "velocity": 89}, {"time": 1995, "pitch": 56, "duration": 6, "velocity": 84}, {"time": 1995, "pitch": 61, "duration": 5, "velocity": 86}, {"time": 1995, "pitch": 64, "duration": 13, "velocity": 84}, {"time": 2007, "pitch": 47, "duration": 6, "velocity": 85}, {"time": 2007, "pitch": 54, "duration": 6, "velocity": 78}, {"time": 2007, "pitch": 63, "duration": 12, "velocity": 89}, {"time": 2019, "pitch": 45, "duration": 19, "velocity": 80}, {"time": 2019, "pitch": 57, "duration": 5, "velocity": 77}, {"time": 2019, "pitch": 61, "duration": 9, "velocity": 87}, {"time": 2025, "pitch": 52, "duration": 12, "velocity": 53}, {"time": 2031, "pitch": 57, "duration": 2, "velocity": 85}, {"time": 2031, "pitch": 61, "duration": 6, "velocity": 90}, {"time": 2037, "pitch": 57, "duration": 2, "velocity": 84}, {"time": 2043, "pitch": 47, "duration": 13, "velocity": 88}, {"time": 2043, "pitch": 54, "duration": 3, "velocity": 80}, {"time": 2043, "pitch": 59, "duration": 7, "velocity": 79}, {"time": 2049, "pitch": 54, "duration": 7, "velocity": 83}, {"time": 2055, "pitch": 59, "duration": 1, "velocity": 85}, {"time": 2055, "pitch": 63, "duration": 2, "velocity": 90}, {"time": 2067, "pitch": 40, "duration": 32, "velocity": 88}, {"time": 2067, "pitch": 56, "duration": 7, "velocity": 77}, {"time": 2067, "pitch": 64, "duration": 8, "velocity": 82}, {"time": 2073, "pitch": 47, "duration": 25, "velocity": 79}, {"time": 2079, "pitch": 59, "duration": 7, "velocity": 85}, {"time": 2079, "pitch": 64, "duration": 7, "velocity": 84}, {"time": 2085, "pitch": 56, "duration": 3, "velocity": 73}, {"time": 2091, "pitch": 56, "duration": 2, "velocity": 87}, {"time": 2091, "pitch": 59, "duration": 6, "velocity": 90}, {"time": 2091, "pitch": 64, "duration": 12, "velocity": 87}, {"time": 2103, "pitch": 39, "duration": 10, "velocity": 88}, {"time": 2103, "pitch": 63, "duration": 12, "velocity": 91}, {"time": 2103, "pitch": 71, "duration": 9, "velocity": 84}, {"time": 2103, "pitch": 75, "duration": 9, "velocity": 88}, {"time": 2115, "pitch": 37, "duration": 8, "velocity": 90}, {"time": 2115, "pitch": 61, "duration": 3, "velocity": 83}, {"time": 2115, "pitch": 64, "duration": 7, "velocity": 83}, {"time": 2115, "pitch": 68, "duration": 7, "velocity": 84}, {"time": 2121, "pitch": 61, "duration": 3, "velocity": 72}, {"time": 2127, "pitch": 61, "duration": 3, "velocity": 87}, {"time": 2127, "pitch": 64, "duration": 3, "velocity": 87}, {"time": 2127, "pitch": 68, "duration": 6, "velocity": 88}, {"time": 2139, "pitch": 48, "duration": 15, "velocity": 81}, {"time": 2139, "pitch": 60, "duration": 3, "velocity": 78}, {"time": 2139, "pitch": 64, "duration": 7, "velocity": 81}, {"time": 2139, "pitch": 68, "duration": 7, "velocity": 75}, {"time": 2145, "pitch": 60, "duration": 3, "velocity": 78}, {"time": 2151, "pitch": 60, "duration": 7, "velocity": 90}, {"time": 2151, "pitch": 64, "duration": 10, "velocity": 85}, {"time": 2151, "pitch": 68, "duration": 10, "velocity": 84}, {"time": 2157, "pitch": 48, "duration": 3, "velocity": 83}, {"time": 2163, "pitch": 47, "duration": 22, "velocity": 90}, {"time": 2163, "pitch": 59, "duration": 3, "velocity": 81}, {"time": 2163, "pitch": 64, "duration": 9, "velocity": 85}, {"time": 2163, "pitch": 68, "duration": 7, "velocity": 84}, {"time": 2169, "pitch": 59, "duration": 4, "velocity": 76}, {"time": 2175, "pitch": 59, "duration": 2, "velocity": 89}, {"time": 2175, "pitch": 64, "duration": 8, "velocity": 89}, {"time": 2175, "pitch": 68, "duration": 9, "velocity": 89}, {"time": 2181, "pitch": 59, "duration": 3, "velocity": 89}, {"time": 2187, "pitch": 46, "duration": 18, "velocity": 89}, {"time": 2187, "pitch": 58, "duration": 10, "velocity": 83}, {"time": 2187, "pitch": 61, "duration": 7, "velocity": 83}, {"time": 2193, "pitch": 52, "duration": 11, "velocity": 75}, {"time": 2199, "pitch": 61, "duration": 8, "velocity": 78}, {"time": 2199, "pitch": 64, "duration": 25, "velocity": 82}, {"time": 2211, "pitch": 42, "duration": 38, "velocity": 88}, {"time": 2217, "pitch": 49, "duration": 32, "velocity": 79}, {"time": 2223, "pitch": 57, "duration": 7, "velocity": 93}, {"time": 2229, "pitch": 61, "duration": 7, "velocity": 89}, {"time": 2235, "pitch": 66, "duration": 7, "velocity": 86}, {"time": 2241, "pitch": 54, "duration": 3, "velocity": 74}, {"time": 2247, "pitch": 54, "duration": 3, "velocity": 90}, {"time": 2247, "pitch": 57, "duration": 3, "velocity": 89}, {"time": 2247, "pitch": 61, "duration": 6, "velocity": 90}, {"time": 2259, "pitch": 35, "duration": 1, "velocity": 87}, {"time": 2259, "pitch": 54, "duration": 5, "velocity": 84}, {"time": 2259, "pitch": 59, "duration": 7, "velocity": 87}, {"time": 2265, "pitch": 47, "duration": 34, "velocity": 81}, {"time": 2271, "pitch": 54, "duration": 14, "velocity": 89}, {"time": 2277, "pitch": 61, "duration": 3, "velocity": 83}, {"time": 2283, "pitch": 59, "duration": 5, "velocity": 85}, {"time": 2283, "pitch": 63, "duration": 6, "velocity": 91}, {"time": 2289, "pitch": 54, "duration": 7, "velocity": 79}, {"time": 2295, "pitch": 59, "duration": 8, "velocity": 84}, {"time": 2295, "pitch": 63, "duration": 7, "velocity": 90}, {"time": 2295, "pitch": 66, "duration": 8, "velocity": 88}, {"time": 2301, "pitch": 54, "duration": 2, "velocity": 80}, {"time": 2307, "pitch": 40, "duration": 38, "velocity": 89}, {"time": 2307, "pitch": 56, "duration": 8, "velocity": 81}, {"time": 2307, "pitch": 59, "duration": 8, "velocity": 84}, {"time": 2313, "pitch": 47, "duration": 32, "velocity": 78}, {"time": 2319, "pitch": 59, "duration": 7, "velocity": 89}, {"time": 2319, "pitch": 64, "duration": 5, "velocity": 90}, {"time": 2325, "pitch": 56, "duration": 3, "velocity": 80}, {"time": 2331, "pitch": 56, "duration": 2, "velocity": 77}, {"time": 2331, "pitch": 59, "duration": 3, "velocity": 81}, {"time": 2337, "pitch": 56, "duration": 3, "velocity": 67}, {"time": 2343, "pitch": 56, "duration": 5, "velocity": 90}, {"time": 2343, "pitch": 59, "duration": 7, "velocity": 94}, {"time": 2343, "pitch": 64, "duration": 11, "velocity": 90}, {"time": 2349, "pitch": 40, "duration": 3, "velocity": 90}, {"time": 2355, "pitch": 39, "duration": 25, "velocity": 89}, {"time": 2355, "pitch": 54, "duration": 3, "velocity": 88}, {"time": 2355, "pitch": 59, "duration": 8, "velocity": 84}, {"time": 2355, "pitch": 63, "duration": 8, "velocity": 90}, {"time": 2361, "pitch": 54, "duration": 7, "velocity": 81}, {"time": 2367, "pitch": 59, "duration": 2, "velocity": 90}, {"time": 2367, "pitch": 63, "duration": 5, "velocity": 93}, {"time": 2373, "pitch": 54, "duration": 3, "velocity": 77}, {"time": 2379, "pitch": 54, "duration": 2, "velocity": 84}, {"time": 2379, "pitch": 59, "duration": 3, "velocity": 89}, {"time": 2379, "pitch": 63, "duration": 7, "velocity": 89}, {"time": 2385, "pitch": 54, "duration": 3, "velocity": 76}, {"time": 2391, "pitch": 54, "duration": 4, "velocity": 90}, {"time": 2391, "pitch": 59, "duration": 5, "velocity": 93}, {"time": 2391, "pitch": 63, "duration": 6, "velocity": 92}, {"time": 2397, "pitch": 35, "duration": 3, "velocity": 96}, {"time": 2403, "pitch": 37, "duration": 11, "velocity": 91}, {"time": 2403, "pitch": 56, "duration": 3, "velocity": 82}, {"time": 2403, "pitch": 61, "duration": 8, "velocity": 85}, {"time": 2403, "pitch": 64, "duration": 7, "velocity": 83}, {"time": 2409, "pitch": 56, "duration": 7, "velocity": 77}, {"time": 2415, "pitch": 61, "duration": 2, "velocity": 90}, {"time": 2415, "pitch": 64, "duration": 5, "velocity": 90}, {"time": 2421, "pitch": 56, "duration": 4, "velocity": 82}, {"time": 2427, "pitch": 61, "duration": 3, "velocity": 91}, {"time": 2427, "pitch": 64, "duration": 7, "velocity": 88}, {"time": 2433, "pitch": 56, "duration": 5, "velocity": 81}, {"time": 2439, "pitch": 61, "duration": 4, "velocity": 90}, {"time": 2439, "pitch": 64, "duration": 4, "velocity": 85}, {"time": 2445, "pitch": 37, "duration": 3, "velocity": 93}, {"time": 2445, "pitch": 56, "duration": 3, "velocity": 81}, {"time": 2445, "pitch": 61, "duration": 3, "velocity": 89}, {"time": 2445, "pitch": 64, "duration": 3, "velocity": 87}, {"time": 2451, "pitch": 35, "duration": 19, "velocity": 90}, {"time": 2451, "pitch": 54, "duration": 3, "velocity": 86}, {"time": 2451, "pitch": 59, "duration": 7, "velocity": 87}, {"time": 2451, "pitch": 63, "duration": 7, "velocity": 91}, {"time": 2457, "pitch": 54, "duration": 4, "velocity": 79}, {"time": 2463, "pitch": 59, "duration": 2, "velocity": 85}, {"time": 2463, "pitch": 63, "duration": 2, "velocity": 89}, {"time": 2469, "pitch": 54, "duration": 3, "velocity": 75}, {"time": 2475, "pitch": 54, "duration": 2, "velocity": 84}, {"time": 2475, "pitch": 59, "duration": 3, "velocity": 85}, {"time": 2475, "pitch": 63, "duration": 7, "velocity": 90}, {"time": 2481, "pitch": 54, "duration": 2, "velocity": 82}, {"time": 2487, "pitch": 54, "duration": 4, "velocity": 90}, {"time": 2487, "pitch": 59, "duration": 4, "velocity": 93}, {"time": 2487, "pitch": 63, "duration": 5, "velocity": 92}, {"time": 2493, "pitch": 35, "duration": 1, "velocity": 90}, {"time": 2499, "pitch": 45, "duration": 22, "velocity": 98}, {"time": 2499, "pitch": 52, "duration": 3, "velocity": 86}, {"time": 2499, "pitch": 57, "duration": 7, "velocity": 80}, {"time": 2499, "pitch": 61, "duration": 7, "velocity": 89}, {"time": 2505, "pitch": 52, "duration": 5, "velocity": 87}, {"time": 2511, "pitch": 57, "duration": 2, "velocity": 90}, {"time": 2511, "pitch": 61, "duration": 2, "velocity": 90}, {"time": 2517, "pitch": 52, "duration": 7, "velocity": 89}, {"time": 2523, "pitch": 45, "duration": 15, "velocity": 83}, {"time": 2523, "pitch": 57, "duration": 7, "velocity": 85}, {"time": 2523, "pitch": 64, "duration": 9, "velocity": 89}, {"time": 2529, "pitch": 52, "duration": 5, "velocity": 89}, {"time": 2535, "pitch": 57, "duration": 6, "velocity": 89}, {"time": 2535, "pitch": 61, "duration": 8, "velocity": 89}, {"time": 2541, "pitch": 45, "duration": 4, "velocity": 95}, {"time": 2547, "pitch": 44, "duration": 39, "velocity": 90}, {"time": 2547, "pitch": 56, "duration": 4, "velocity": 85}, {"time": 2547, "pitch": 59, "duration": 8, "velocity": 90}, {"time": 2547, "pitch": 64, "duration": 7, "velocity": 90}, {"time": 2553, "pitch": 56, "duration": 5, "velocity": 81}, {"time": 2559, "pitch": 56, "duration": 2, "velocity": 87}, {"time": 2559, "pitch": 59, "duration": 3, "velocity": 94}, {"time": 2559, "pitch": 64, "duration": 4, "velocity": 89}, {"time": 2565, "pitch": 56, "duration": 3, "velocity": 74}, {"time": 2571, "pitch": 56, "duration": 2, "velocity": 82}, {"time": 2571, "pitch": 59, "duration": 4, "velocity": 87}, {"time": 2571, "pitch": 64, "duration": 7, "velocity": 83}, {"time": 2574, "pitch": 59, "duration": 1, "velocity": 60}, {"time": 2577, "pitch": 56, "duration": 3, "velocity": 75}, {"time": 2583, "pitch": 56, "duration": 6, "velocity": 89}, {"time": 2583, "pitch": 59, "duration": 6, "velocity": 96}, {"time": 2583, "pitch": 64, "duration": 10, "velocity": 89}, {"time": 2589, "pitch": 44, "duration": 3, "velocity": 92}, {"time": 2595, "pitch": 42, "duration": 15, "velocity": 90}, {"time": 2595, "pitch": 54, "duration": 4, "velocity": 82}, {"time": 2595, "pitch": 57, "duration": 6, "velocity": 78}, {"time": 2595, "pitch": 61, "duration": 7, "velocity": 86}, {"time": 2601, "pitch": 49, "duration": 8, "velocity": 78}, {"time": 2607, "pitch": 54, "duration": 2, "velocity": 80}, {"time": 2607, "pitch": 57, "duration": 4, "velocity": 90}, {"time": 2607, "pitch": 61, "duration": 4, "velocity": 89}, {"time": 2613, "pitch": 49, "duration": 20, "velocity": 77}, {"time": 2619, "pitch": 54, "duration": 3, "velocity": 89}, {"time": 2619, "pitch": 57, "duration": 7, "velocity": 90}, {"time": 2619, "pitch": 61, "duration": 7, "velocity": 91}, {"time": 2619, "pitch": 66, "duration": 5, "velocity": 87}, {"time": 2625, "pitch": 54, "duration": 3, "velocity": 78}, {"time": 2631, "pitch": 54, "duration": 5, "velocity": 89}, {"time": 2631, "pitch": 57, "duration": 5, "velocity": 92}, {"time": 2631, "pitch": 61, "duration": 7, "velocity": 91}, {"time": 2637, "pitch": 42, "duration": 5, "velocity": 93}, {"time": 2643, "pitch": 47, "duration": 13, "velocity": 98}, {"time": 2643, "pitch": 54, "duration": 3, "velocity": 85}, {"time": 2643, "pitch": 59, "duration": 7, "velocity": 90}, {"time": 2649, "pitch": 54, "duration": 3, "velocity": 81}, {"time": 2655, "pitch": 54, "duration": 2, "velocity": 89}, {"time": 2655, "pitch": 59, "duration": 7, "velocity": 92}, {"time": 2655, "pitch": 63, "duration": 7, "velocity": 92}, {"time": 2661, "pitch": 54, "duration": 4, "velocity": 90}, {"time": 2667, "pitch": 35, "duration": 13, "velocity": 90}, {"time": 2667, "pitch": 35, "duration": 13, "velocity": 91}, {"time": 2667, "pitch": 54, "duration": 3, "velocity": 91}, {"time": 2667, "pitch": 59, "duration": 7, "velocity": 90}, {"time": 2673, "pitch": 54, "duration": 3, "velocity": 83}, {"time": 2679, "pitch": 54, "duration": 2, "velocity": 87}, {"time": 2679, "pitch": 59, "duration": 10, "velocity": 93}, {"time": 2679, "pitch": 63, "duration": 10, "velocity": 93}, {"time": 2685, "pitch": 54, "duration": 4, "velocity": 91}, {"time": 2691, "pitch": 40, "duration": 38, "velocity": 89}, {"time": 2691, "pitch": 56, "duration": 8, "velocity": 81}, {"time": 2691, "pitch": 59, "duration": 8, "velocity": 84}, {"time": 2697, "pitch": 47, "duration": 32, "velocity": 78}, {"time": 2703, "pitch": 59, "duration": 7, "velocity": 89}, {"time": 2703, "pitch": 64, "duration": 5, "velocity": 90}, {"time": 2709, "pitch": 56, "duration": 3, "velocity": 80}, {"time": 2715, "pitch": 56, "duration": 2, "velocity": 77}, {"time": 2715, "pitch": 59, "duration": 3, "velocity": 81}, {"time": 2721, "pitch": 56, "duration": 3, "velocity": 67}, {"time": 2727, "pitch": 56, "duration": 5, "velocity": 90}, {"time": 2727, "pitch": 59, "duration": 7, "velocity": 94}, {"time": 2727, "pitch": 64, "duration": 11, "velocity": 90}, {"time": 2733, "pitch": 40, "duration": 3, "velocity": 90}, {"time": 2739, "pitch": 39, "duration": 25, "velocity": 89}, {"time": 2739, "pitch": 54, "duration": 3, "velocity": 88}, {"time": 2739, "pitch": 59, "duration": 8, "velocity": 84}, {"time": 2739, "pitch": 63, "duration": 8, "velocity": 90}, {"time": 2745, "pitch": 54, "duration": 7, "velocity": 81}, {"time": 2751, "pitch": 59, "duration": 2, "velocity": 90}, {"time": 2751, "pitch": 63, "duration": 5, "velocity": 93}, {"time": 2757, "pitch": 54, "duration": 3, "velocity": 77}, {"time": 2763, "pitch": 54, "duration": 2, "velocity": 84}, {"time": 2763, "pitch": 59, "duration": 3, "velocity": 89}, {"time": 2763, "pitch": 63, "duration": 7, "velocity": 89}, {"time": 2769, "pitch": 54, "duration": 3, "velocity": 76}, {"time": 2775, "pitch": 54, "duration": 4, "velocity": 90}, {"time": 2775, "pitch": 59, "duration": 5, "velocity": 93}, {"time": 2775, "pitch": 63, "duration": 6, "velocity": 92}, {"time": 2781, "pitch": 35, "duration": 3, "velocity": 96}, {"time": 2787, "pitch": 37, "duration": 11, "velocity": 91}, {"time": 2787, "pitch": 56, "duration": 3, "velocity": 82}, {"time": 2787, "pitch": 61, "duration": 8, "velocity": 85}, {"time": 2787, "pitch": 64, "duration": 7, "velocity": 83}, {"time": 2793, "pitch": 56, "duration": 7, "velocity": 77}, {"time": 2799, "pitch": 61, "duration": 2, "velocity": 90}, {"time": 2799, "pitch": 64, "duration": 5, "velocity": 90}, {"time": 2805, "pitch": 56, "duration": 4, "velocity": 82}, {"time": 2811, "pitch": 61, "duration": 3, "velocity": 91}, {"time": 2811, "pitch": 64, "duration": 7, "velocity": 88}, {"time": 2817, "pitch": 56, "duration": 5, "velocity": 81}, {"time": 2823, "pitch": 61, "duration": 4, "velocity": 90}, {"time": 2823, "pitch": 64, "duration": 4, "velocity": 85}, {"time": 2829, "pitch": 37, "duration": 3, "velocity": 93}, {"time": 2829, "pitch": 56, "duration": 3, "velocity": 81}, {"time": 2829, "pitch": 61, "duration": 3, "velocity": 89}, {"time": 2829, "pitch": 64, "duration": 3, "velocity": 87}, {"time": 2835, "pitch": 35, "duration": 19, "velocity": 90}, {"time": 2835, "pitch": 54, "duration": 3, "velocity": 86}, {"time": 2835, "pitch": 59, "duration": 7, "velocity": 87}, {"time": 2835, "pitch": 63, "duration": 7, "velocity": 91}, {"time": 2841, "pitch": 54, "duration": 4, "velocity": 79}, {"time": 2847, "pitch": 59, "duration": 2, "velocity": 85}, {"time": 2847, "pitch": 63, "duration": 2, "velocity": 89}, {"time": 2853, "pitch": 54, "duration": 3, "velocity": 75}, {"time": 2859, "pitch": 54, "duration": 2, "velocity": 84}, {"time": 2859, "pitch": 59, "duration": 3, "velocity": 85}, {"time": 2859, "pitch": 63, "duration": 7, "velocity": 90}, {"time": 2865, "pitch": 54, "duration": 2, "velocity": 82}, {"time": 2871, "pitch": 54, "duration": 4, "velocity": 90}, {"time": 2871, "pitch": 59, "duration": 4, "velocity": 93}, {"time": 2871, "pitch": 63, "duration": 5, "velocity": 92}, {"time": 2877, "pitch": 35, "duration": 1, "velocity": 90}, {"time": 2883, "pitch": 45, "duration": 22, "velocity": 98}, {"time": 2883, "pitch": 52, "duration": 3, "velocity": 86}, {"time": 2883, "pitch": 57, "duration": 7, "velocity": 80}, {"time": 2883, "pitch": 61, "duration": 7, "velocity": 89}, {"time": 2889, "pitch": 52, "duration": 5, "velocity": 87}, {"time": 2895, "pitch": 57, "duration": 2, "velocity": 90}, {"time": 2895, "pitch": 61, "duration": 2, "velocity": 90}, {"time": 2901, "pitch": 52, "duration": 7, "velocity": 89}, {"time": 2907, "pitch": 45, "duration": 15, "velocity": 83}, {"time": 2907, "pitch": 57, "duration": 7, "velocity": 85}, {"time": 2907, "pitch": 64, "duration": 9, "velocity": 89}, {"time": 2913, "pitch": 52, "duration": 5, "velocity": 89}, {"time": 2919, "pitch": 57, "duration": 6, "velocity": 89}, {"time": 2919, "pitch": 61, "duration": 8, "velocity": 89}, {"time": 2925, "pitch": 45, "duration": 4, "velocity": 95}, {"time": 2931, "pitch": 44, "duration": 39, "velocity": 90}, {"time": 2931, "pitch": 56, "duration": 4, "velocity": 85}, {"time": 2931, "pitch": 59, "duration": 8, "velocity": 90}, {"time": 2931, "pitch": 64, "duration": 7, "velocity": 90}, {"time": 2937, "pitch": 56, "duration": 5, "velocity": 81}, {"time": 2943, "pitch": 56, "duration": 2, "velocity": 87}, {"time": 2943, "pitch": 59, "duration": 3, "velocity": 94}, {"time": 2943, "pitch": 64, "duration": 4, "velocity": 89}, {"time": 2949, "pitch": 56, "duration": 3, "velocity": 74}, {"time": 2955, "pitch": 56, "duration": 2, "velocity": 82}, {"time": 2955, "pitch": 59, "duration": 4, "velocity": 87}, {"time": 2955, "pitch": 64, "duration": 7, "velocity": 83}, {"time": 2958, "pitch": 59, "duration": 1, "velocity": 60}, {"time": 2961, "pitch": 56, "duration": 3, "velocity": 75}, {"time": 2967, "pitch": 56, "duration": 6, "velocity": 89}, {"time": 2967, "pitch": 59, "duration": 6, "velocity": 96}, {"time": 2967, "pitch": 64, "duration": 10, "velocity": 89}, {"time": 2973, "pitch": 44, "duration": 3, "velocity": 92}, {"time": 2979, "pitch": 42, "duration": 15, "velocity": 90}, {"time": 2979, "pitch": 54, "duration": 4, "velocity": 82}, {"time": 2979, "pitch": 57, "duration": 6, "velocity": 78}, {"time": 2979, "pitch": 61, "duration": 7, "velocity": 86}, {"time": 2985, "pitch": 49, "duration": 8, "velocity": 78}, {"time": 2991, "pitch": 54, "duration": 2, "velocity": 80}, {"time": 2991, "pitch": 57, "duration": 4, "velocity": 90}, {"time": 2991, "pitch": 61, "duration": 4, "velocity": 89}, {"time": 2997, "pitch": 49, "duration": 20, "velocity": 77}, {"time": 3003, "pitch": 54, "duration": 3, "velocity": 89}, {"time": 3003, "pitch": 57, "duration": 7, "velocity": 90}, {"time": 3003, "pitch": 61, "duration": 7, "velocity": 91}, {"time": 3003, "pitch": 66, "duration": 5, "velocity": 87}, {"time": 3009, "pitch": 54, "duration": 3, "velocity": 78}, {"time": 3015, "pitch": 54, "duration": 5, "velocity": 89}, {"time": 3015, "pitch": 57, "duration": 5, "velocity": 92}, {"time": 3015, "pitch": 61, "duration": 7, "velocity": 91}, {"time": 3021, "pitch": 42, "duration": 5, "velocity": 93}, {"time": 3027, "pitch": 47, "duration": 13, "velocity": 98}, {"time": 3027, "pitch": 54, "duration": 3, "velocity": 85}, {"time": 3027, "pitch": 59, "duration": 7, "velocity": 90}, {"time": 3033, "pitch": 54, "duration": 3, "velocity": 81}, {"time": 3039, "pitch": 54, "duration": 2, "velocity": 89}, {"time": 3039, "pitch": 59, "duration": 7, "velocity": 92}, {"time": 3039, "pitch": 63, "duration": 7, "velocity": 92}, {"time": 3045, "pitch": 54, "duration": 4, "velocity": 90}, {"time": 3051, "pitch": 35, "duration": 13, "velocity": 90}, {"time": 3051, "pitch": 35, "duration": 13, "velocity": 91}, {"time": 3051, "pitch": 54, "duration": 3, "velocity": 91}, {"time": 3051, "pitch": 59, "duration": 7, "velocity": 90}, {"time": 3057, "pitch": 54, "duration": 3, "velocity": 83}, {"time": 3063, "pitch": 54, "duration": 2, "velocity": 87}, {"time": 3063, "pitch": 59, "duration": 10, "velocity": 93}, {"time": 3063, "pitch": 63, "duration": 10, "velocity": 93}, {"time": 3069, "pitch": 54, "duration": 4, "velocity": 91}, {"time": 3075, "pitch": 40, "duration": 39, "velocity": 90}, {"time": 3075, "pitch": 52, "duration": 7, "velocity": 89}, {"time": 3075, "pitch": 56, "duration": 7, "velocity": 90}, {"time": 3081, "pitch": 47, "duration": 32, "velocity": 80}, {"time": 3087, "pitch": 56, "duration": 7, "velocity": 89}, {"time": 3087, "pitch": 59, "duration": 8, "velocity": 89}, {"time": 3093, "pitch": 52, "duration": 7, "velocity": 84}, {"time": 3099, "pitch": 56, "duration": 7, "velocity": 86}, {"time": 3099, "pitch": 59, "duration": 8, "velocity": 89}, {"time": 3099, "pitch": 64, "duration": 7, "velocity": 85}, {"time": 3105, "pitch": 52, "duration": 4, "velocity": 79}, {"time": 3111, "pitch": 52, "duration": 2, "velocity": 94}, {"time": 3111, "pitch": 56, "duration": 2, "velocity": 94}, {"time": 3111, "pitch": 59, "duration": 2, "velocity": 91}, {"time": 3111, "pitch": 64, "duration": 3, "velocity": 89}, {"time": 3117, "pitch": 40, "duration": 1, "velocity": 89}, {"time": 3123, "pitch": 36, "duration": 21, "velocity": 98}, {"time": 3123, "pitch": 60, "duration": 4, "velocity": 90}, {"time": 3123, "pitch": 72, "duration": 5, "velocity": 81}, {"time": 3129, "pitch": 43, "duration": 15, "velocity": 90}, {"time": 3129, "pitch": 60, "duration": 3, "velocity": 73}, {"time": 3135, "pitch": 60, "duration": 3, "velocity": 91}, {"time": 3135, "pitch": 64, "duration": 4, "velocity": 90}, {"time": 3135, "pitch": 67, "duration": 5, "velocity": 89}, {"time": 3135, "pitch": 72, "duration": 5, "velocity": 83}, {"time": 3141, "pitch": 60, "duration": 4, "velocity": 95}, {"time": 3147, "pitch": 36, "duration": 24, "velocity": 96}, {"time": 3147, "pitch": 60, "duration": 9, "velocity": 90}, {"time": 3147, "pitch": 64, "duration": 7, "velocity": 90}, {"time": 3147, "pitch": 67, "duration": 8, "velocity": 88}, {"time": 3147, "pitch": 72, "duration": 8, "velocity": 86}, {"time": 3159, "pitch": 60, "duration": 12, "velocity": 90}, {"time": 3159, "pitch": 64, "duration": 11, "velocity": 94}, {"time": 3159, "pitch": 67, "duration": 12, "velocity": 92}, {"time": 3159, "pitch": 72, "duration": 12, "velocity": 89}, {"time": 3171, "pitch": 41, "duration": 38, "velocity": 89}, {"time": 3171, "pitch": 57, "duration": 8, "velocity": 81}, {"time": 3171, "pitch": 60, "duration": 8, "velocity": 84}, {"time": 3177, "pitch": 48, "duration": 32, "velocity": 78}, {"time": 3183, "pitch": 60, "duration": 7, "velocity": 89}, {"time": 3183, "pitch": 65, "duration": 5, "velocity": 90}, {"time": 3189, "pitch": 57, "duration": 3, "velocity": 80}, {"time": 3195, "pitch": 57, "duration": 2, "velocity": 77}, {"time": 3195, "pitch": 60, "duration": 3, "velocity": 81}, {"time": 3201, "pitch": 57, "duration": 3, "velocity": 67}, {"time": 3207, "pitch": 57, "duration": 5, "velocity": 90}, {"time": 3207, "pitch": 60, "duration": 7, "velocity": 94}, {"time": 3207, "pitch": 65, "duration": 11, "velocity": 90}, {"time": 3213, "pitch": 41, "duration": 3, "velocity": 90}, {"time": 3219, "pitch": 40, "duration": 25, "velocity": 89}, {"time": 3219, "pitch": 55, "duration": 3, "velocity": 88}, {"time": 3219, "pitch": 60, "duration": 8, "velocity": 84}, {"time": 3219, "pitch": 64, "duration": 8, "velocity": 90}, {"time": 3225, "pitch": 55, "duration": 7, "velocity": 81}, {"time": 3231, "pitch": 60, "duration": 2, "velocity": 90}, {"time": 3231, "pitch": 64, "duration": 5, "velocity": 93}, {"time": 3237, "pitch": 55, "duration": 3, "velocity": 77}, {"time": 3243, "pitch": 55, "duration": 2, "velocity": 84}, {"time": 3243, "pitch": 60, "duration": 3, "velocity": 89}, {"time": 3243, "pitch": 64, "duration": 7, "velocity": 89}, {"time": 3249, "pitch": 55, "duration": 3, "velocity": 76}, {"time": 3255, "pitch": 55, "duration": 4, "velocity": 90}, {"time": 3255, "pitch": 60, "duration": 5, "velocity": 93}, {"time": 3255, "pitch": 64, "duration": 6, "velocity": 92}, {"time": 3261, "pitch": 36, "duration": 3, "velocity": 96}, {"time": 3267, "pitch": 38, "duration": 11, "velocity": 91}, {"time": 3267, "pitch": 57, "duration": 3, "velocity": 82}, {"time": 3267, "pitch": 62, "duration": 8, "velocity": 85}, {"time": 3267, "pitch": 65, "duration": 7, "velocity": 83}, {"time": 3273, "pitch": 57, "duration": 7, "velocity": 77}, {"time": 3279, "pitch": 62, "duration": 2, "velocity": 90}, {"time": 3279, "pitch": 65, "duration": 5, "velocity": 90}, {"time": 3285, "pitch": 57, "duration": 4, "velocity": 82}, {"time": 3291, "pitch": 62, "duration": 3, "velocity": 91}, {"time": 3291, "pitch": 65, "duration": 7, "velocity": 88}, {"time": 3297, "pitch": 57, "duration": 5, "velocity": 81}, {"time": 3303, "pitch": 62, "duration": 4, "velocity": 90}, {"time": 3303, "pitch": 65, "duration": 4, "velocity": 85}, {"time": 3309, "pitch": 38, "duration": 3, "velocity": 93}, {"time": 3309, "pitch": 57, "duration": 3, "velocity": 81}, {"time": 3309, "pitch": 62, "duration": 3, "velocity": 89}, {"time": 3309, "pitch": 65, "duration": 3, "velocity": 87}, {"time": 3315, "pitch": 36, "duration": 19, "velocity": 90}, {"time": 3315, "pitch": 55, "duration": 3, "velocity": 86}, {"time": 3315, "pitch": 60, "duration": 7, "velocity": 87}, {"time": 3315, "pitch": 64, "duration": 7, "velocity": 91}, {"time": 3321, "pitch": 55, "duration": 4, "velocity": 79}, {"time": 3327, "pitch": 60, "duration": 2, "velocity": 85}, {"time": 3327, "pitch": 64, "duration": 2, "velocity": 89}, {"time": 3333, "pitch": 55, "duration": 3, "velocity": 75}, {"time": 3339, "pitch": 55, "duration": 2, "velocity": 84}, {"time": 3339, "pitch": 60, "duration": 3, "velocity": 85}, {"time": 3339, "pitch": 64, "duration": 7, "velocity": 90}, {"time": 3345, "pitch": 55, "duration": 2, "velocity": 82}, {"time": 3351, "pitch": 55, "duration": 4, "velocity": 90}, {"time": 3351, "pitch": 60, "duration": 4, "velocity": 93}, {"time": 3351, "pitch": 64, "duration": 5, "velocity": 92}, {"time": 3357, "pitch": 36, "duration": 1, "velocity": 90}, {"time": 3363, "pitch": 46, "duration": 22, "velocity": 98}, {"time": 3363, "pitch": 53, "duration": 3, "velocity": 86}, {"time": 3363, "pitch": 58, "duration": 7, "velocity": 80}, {"time": 3363, "pitch": 62, "duration": 7, "velocity": 89}, {"time": 3369, "pitch": 53, "duration": 5, "velocity": 87}, {"time": 3375, "pitch": 58, "duration": 2, "velocity": 90}, {"time": 3375, "pitch": 62, "duration": 2, "velocity": 90}, {"time": 3381, "pitch": 53, "duration": 7, "velocity": 89}, {"time": 3387, "pitch": 46, "duration": 15, "velocity": 83}, {"time": 3387, "pitch": 58, "duration": 7, "velocity": 85}, {"time": 3387, "pitch": 65, "duration": 9, "velocity": 89}, {"time": 3393, "pitch": 53, "duration": 5, "velocity": 89}, {"time": 3399, "pitch": 58, "duration": 6, "velocity": 89}, {"time": 3399, "pitch": 62, "duration": 8, "velocity": 89}, {"time": 3405, "pitch": 46, "duration": 4, "velocity": 95}, {"time": 3411, "pitch": 45, "duration": 39, "velocity": 90}, {"time": 3411, "pitch": 57, "duration": 4, "velocity": 85}, {"time": 3411, "pitch": 60, "duration": 8, "velocity": 90}, {"time": 3411, "pitch": 65, "duration": 7, "velocity": 90}, {"time": 3417, "pitch": 57, "duration": 5, "velocity": 81}, {"time": 3423, "pitch": 57, "duration": 2, "velocity": 87}, {"time": 3423, "pitch": 60, "duration": 3, "velocity": 94}, {"time": 3423, "pitch": 65, "duration": 4, "velocity": 89}, {"time": 3429, "pitch": 57, "duration": 3, "velocity": 74}, {"time": 3435, "pitch": 57, "duration": 2, "velocity": 82}, {"time": 3435, "pitch": 60, "duration": 4, "velocity": 87}, {"time": 3435, "pitch": 65, "duration": 7, "velocity": 83}, {"time": 3438, "pitch": 60, "duration": 1, "velocity": 60}, {"time": 3441, "pitch": 57, "duration": 3, "velocity": 75}, {"time": 3447, "pitch": 57, "duration": 6, "velocity": 89}, {"time": 3447, "pitch": 60, "duration": 6, "velocity": 96}, {"time": 3447, "pitch": 65, "duration": 10, "velocity": 89}, {"time": 3453, "pitch": 45, "duration": 3, "velocity": 92}, {"time": 3459, "pitch": 43, "duration": 15, "velocity": 90}, {"time": 3459, "pitch": 55, "duration": 4, "velocity": 82}, {"time": 3459, "pitch": 58, "duration": 6, "velocity": 78}, {"time": 3459, "pitch": 62, "duration": 7, "velocity": 86}, {"time": 3465, "pitch": 50, "duration": 8, "velocity": 78}, {"time": 3471, "pitch": 55, "duration": 2, "velocity": 80}, {"time": 3471, "pitch": 58, "duration": 4, "velocity": 90}, {"time": 3471, "pitch": 62, "duration": 4, "velocity": 89}, {"time": 3477, "pitch": 50, "duration": 20, "velocity": 77}, {"time": 3483, "pitch": 55, "duration": 3, "velocity": 89}, {"time": 3483, "pitch": 58, "duration": 7, "velocity": 90}, {"time": 3483, "pitch": 62, "duration": 7, "velocity": 91}, {"time": 3483, "pitch": 67, "duration": 5, "velocity": 87}, {"time": 3489, "pitch": 55, "duration": 3, "velocity": 78}, {"time": 3495, "pitch": 55, "duration": 5, "velocity": 89}, {"time": 3495, "pitch": 58, "duration": 5, "velocity": 92}, {"time": 3495, "pitch": 62, "duration": 7, "velocity": 91}, {"time": 3501, "pitch": 43, "duration": 5, "velocity": 93}, {"time": 3507, "pitch": 48, "duration": 13, "velocity": 98}, {"time": 3507, "pitch": 55, "duration": 3, "velocity": 85}, {"time": 3507, "pitch": 60, "duration": 7, "velocity": 90}, {"time": 3513, "pitch": 55, "duration": 3, "velocity": 81}, {"time": 3519, "pitch": 55, "duration": 2, "velocity": 89}, {"time": 3519, "pitch": 60, "duration": 7, "velocity": 92}, {"time": 3519, "pitch": 64, "duration": 7, "velocity": 92}, {"time": 3525, "pitch": 55, "duration": 4, "velocity": 90}, {"time": 3531, "pitch": 36, "duration": 13, "velocity": 90}, {"time": 3531, "pitch": 36, "duration": 13, "velocity": 91}, {"time": 3531, "pitch": 55, "duration": 3, "velocity": 91}, {"time": 3531, "pitch": 60, "duration": 7, "velocity": 90}, {"time": 3537, "pitch": 55, "duration": 3, "velocity": 83}, {"time": 3543, "pitch": 55, "duration": 2, "velocity": 87}, {"time": 3543, "pitch": 60, "duration": 10, "velocity": 93}, {"time": 3543, "pitch": 64, "duration": 10, "velocity": 93}, {"time": 3549, "pitch": 55, "duration": 4, "velocity": 91}, {"time": 3554, "pitch": 46, "duration": 39, "velocity": 76}, {"time": 3554, "pitch": 58, "duration": 9, "velocity": 77}, {"time": 3554, "pitch": 62, "duration": 13, "velocity": 83}, {"time": 3560, "pitch": 53, "duration": 33, "velocity": 63}, {"time": 3566, "pitch": 58, "duration": 13, "velocity": 76}, {"time": 3572, "pitch": 62, "duration": 7, "velocity": 85}, {"time": 3578, "pitch": 65, "duration": 8, "velocity": 87}, {"time": 3590, "pitch": 62, "duration": 2, "velocity": 78}, {"time": 3590, "pitch": 58, "duration": 2, "velocity": 77}, {"time": 3590, "pitch": 65, "duration": 3, "velocity": 74}, {"time": 3602, "pitch": 60, "duration": 9, "velocity": 79}, {"time": 3603, "pitch": 55, "duration": 8, "velocity": 77}, {"time": 3603, "pitch": 45, "duration": 22, "velocity": 89}, {"time": 3608, "pitch": 52, "duration": 16, "velocity": 72}, {"time": 3614, "pitch": 60, "duration": 13, "velocity": 83}, {"time": 3614, "pitch": 64, "duration": 14, "velocity": 86}, {"time": 3621, "pitch": 55, "duration": 5, "velocity": 74}, {"time": 3626, "pitch": 50, "duration": 14, "velocity": 86}, {"time": 3632, "pitch": 57, "duration": 8, "velocity": 79}, {"time": 3639, "pitch": 62, "duration": 2, "velocity": 84}, {"time": 3639, "pitch": 65, "duration": 3, "velocity": 85}, {"time": 3650, "pitch": 55, "duration": 2, "velocity": 73}, {"time": 3650, "pitch": 58, "duration": 8, "velocity": 77}, {"time": 3651, "pitch": 43, "duration": 15, "velocity": 85}, {"time": 3651, "pitch": 62, "duration": 25, "velocity": 78}, {"time": 3657, "pitch": 50, "duration": 7, "velocity": 79}, {"time": 3663, "pitch": 55, "duration": 9, "velocity": 90}, {"time": 3669, "pitch": 58, "duration": 3, "velocity": 75}, {"time": 3675, "pitch": 55, "duration": 3, "velocity": 76}, {"time": 3675, "pitch": 36, "duration": 16, "velocity": 85}, {"time": 3675, "pitch": 60, "duration": 9, "velocity": 83}, {"time": 3681, "pitch": 55, "duration": 5, "velocity": 90}, {"time": 3688, "pitch": 55, "duration": 4, "velocity": 89}, {"time": 3688, "pitch": 60, "duration": 10, "velocity": 89}, {"time": 3696, "pitch": 55, "duration": 4, "velocity": 84}, {"time": 3704, "pitch": 41, "duration": 64, "velocity": 88}, {"time": 3708, "pitch": 48, "duration": 59, "velocity": 75}, {"time": 3711, "pitch": 53, "duration": 3, "velocity": 81}, {"time": 3713, "pitch": 55, "duration": 3, "velocity": 84}, {"time": 3716, "pitch": 57, "duration": 3, "velocity": 82}, {"time": 3720, "pitch": 60, "duration": 3, "velocity": 80}, {"time": 3723, "pitch": 65, "duration": 3, "velocity": 78}, {"time": 3727, "pitch": 67, "duration": 1, "velocity": 52}, {"time": 3730, "pitch": 69, "duration": 5, "velocity": 74}, {"time": 3734, "pitch": 72, "duration": 3, "velocity": 77}, {"time": 3739, "pitch": 72, "duration": 1, "velocity": 77}, {"time": 3739, "pitch": 77, "duration": 2, "velocity": 83}, {"time": 3744, "pitch": 79, "duration": 3, "velocity": 74}, {"time": 3755, "pitch": 77, "duration": 3, "velocity": 36}, {"time": 3756, "pitch": 81, "duration": 10, "velocity": 65}, {"time": 3756, "pitch": 84, "duration": 12, "velocity": 74}], "annotations": [{"time": 4, "annotation": {"number": 64, "value": 127}, "group": "control_change"}, {"time": 50, "annotation": {"number": 64, "value": 0}, "group": "control_change"}, {"time": 51, "annotation": {"number": 64, "value": 127}, "group": "control_change"}, {"time": 97, "annotation": {"number": 64, "value": 0}, "group": "control_change"}, {"time": 99, "annotation": {"number": 64, "value": 127}, "group": "control_change"}, {"time": 146, "annotation": {"number": 64, "value": 0}, "group": "control_change"}, {"time": 148, "annotation": {"number": 64, "value": 127}, "group": "control_change"}, {"time": 192, "annotation": {"number": 64, "value": 0}, "group": "control_change"}, {"time": 198, "annotation": {"number": 64, "value": 127}, "group": "control_change"}, {"time": 242, "annotation": {"number": 64, "value": 0}, "group": "control_change"}, {"time": 244, "annotation": {"number": 64, "value": 127}, "group": "control_change"}, {"time": 265, "annotation": {"number": 64, "value": 0}, "group": "control_change"}, {"time": 267, "annotation": {"number": 64, "value": 127}, "group": "control_change"}, {"time": 278, "annotation": {"number": 64, "value": 0}, "group": "control_change"}, {"time": 279, "annotation": {"number": 64, "value": 127}, "group": "control_change"}, {"time": 290, "annotation": {"number": 64, "value": 0}, "group": "control_change"}, {"time": 293, "annotation": {"number": 64, "value": 127}, "group": "control_change"}, {"time": 315, "annotation": {"number": 64, "value": 0}, "group": "control_change"}, {"time": 318, "annotation": {"number": 64, "value": 127}, "group": "control_change"}, {"time": 339, "annotation": {"number": 64, "value": 0}, "group": "control_change"}, {"time": 342, "annotation": {"number": 64, "value": 127}, "group": "control_change"}, {"time": 375, "annotation": {"number": 64, "value": 0}, "group": "control_change"}, {"time": 376, "annotation": {"number": 64, "value": 127}, "group": "control_change"}, {"time": 385, "annotation": {"number": 64, "value": 0}, "group": "control_change"}, {"time": 387, "annotation": {"number": 64, "value": 127}, "group": "control_change"}, {"time": 410, "annotation": {"number": 64, "value": 0}, "group": "control_change"}, {"time": 412, "annotation": {"number": 64, "value": 127}, "group": "control_change"}, {"time": 434, "annotation": {"number": 64, "value": 0}, "group": "control_change"}, {"time": 436, "annotation": {"number": 64, "value": 127}, "group": "control_change"}, {"time": 458, "annotation": {"number": 64, "value": 0}, "group": "control_change"}, {"time": 461, "annotation": {"number": 64, "value": 127}, "group": "control_change"}, {"time": 482, "annotation": {"number": 64, "value": 0}, "group": "control_change"}, {"time": 488, "annotation": {"number": 64, "value": 127}, "group": "control_change"}, {"time": 530, "annotation": {"number": 64, "value": 0}, "group": "control_change"}, {"time": 532, "annotation": {"number": 64, "value": 127}, "group": "control_change"}, {"time": 578, "annotation": {"number": 64, "value": 0}, "group": "control_change"}, {"time": 582, "annotation": {"number": 64, "value": 127}, "group": "control_change"}, {"time": 626, "annotation": {"number": 64, "value": 0}, "group": "control_change"}, {"time": 628, "annotation": {"number": 64, "value": 127}, "group": "control_change"}, {"time": 649, "annotation": {"number": 64, "value": 0}, "group": "control_change"}, {"time": 651, "annotation": {"number": 64, "value": 127}, "group": "control_change"}, {"time": 662, "annotation": {"number": 64, "value": 0}, "group": "control_change"}, {"time": 663, "annotation": {"number": 64, "value": 127}, "group": "control_change"}, {"time": 674, "annotation": {"number": 64, "value": 0}, "group": "control_change"}, {"time": 677, "annotation": {"number": 64, "value": 127}, "group": "control_change"}, {"time": 699, "annotation": {"number": 64, "value": 0}, "group": "control_change"}, {"time": 702, "annotation": {"number": 64, "value": 127}, "group": "control_change"}, {"time": 723, "annotation": {"number": 64, "value": 0}, "group": "control_change"}, {"time": 726, "annotation": {"number": 64, "value": 127}, "group": "control_change"}, {"time": 759, "annotation": {"number": 64, "value": 0}, "group": "control_change"}, {"time": 760, "annotation": {"number": 64, "value": 127}, "group": "control_change"}, {"time": 769, "annotation": {"number": 64, "value": 0}, "group": "control_change"}, {"time": 771, "annotation": {"number": 64, "value": 127}, "group": "control_change"}, {"time": 794, "annotation": {"number": 64, "value": 0}, "group": "control_change"}, {"time": 796, "annotation": {"number": 64, "value": 127}, "group": "control_change"}, {"time": 818, "annotation": {"number": 64, "value": 0}, "group": "control_change"}, {"time": 820, "annotation": {"number": 64, "value": 127}, "group": "control_change"}, {"time": 842, "annotation": {"number": 64, "value": 0}, "group": "control_change"}, {"time": 845, "annotation": {"number": 64, "value": 127}, "group": "control_change"}, {"time": 866, "annotation": {"number": 64, "value": 0}, "group": "control_change"}, {"time": 872, "annotation": {"number": 64, "value": 127}, "group": "control_change"}, {"time": 914, "annotation": {"number": 64, "value": 0}, "group": "control_change"}, {"time": 916, "annotation": {"number": 64, "value": 127}, "group": "control_change"}, {"time": 962, "annotation": {"number": 64, "value": 0}, "group": "control_change"}, {"time": 965, "annotation": {"number": 64, "value": 127}, "group": "control_change"}, {"time": 1010, "annotation": {"number": 64, "value": 0}, "group": "control_change"}, {"time": 1012, "annotation": {"number": 64, "value": 127}, "group": "control_change"}, {"time": 1057, "annotation": {"number": 64, "value": 0}, "group": "control_change"}, {"time": 1060, "annotation": {"number": 64, "value": 127}, "group": "control_change"}, {"time": 1107, "annotation": {"number": 64, "value": 0}, "group": "control_change"}, {"time": 1109, "annotation": {"number": 64, "value": 127}, "group": "control_change"}, {"time": 1155, "annotation": {"number": 64, "value": 0}, "group": "control_change"}, {"time": 1156, "annotation": {"number": 64, "value": 127}, "group": "control_change"}, {"time": 1203, "annotation": {"number": 64, "value": 0}, "group": "control_change"}, {"time": 1204, "annotation": {"number": 64, "value": 127}, "group": "control_change"}, {"time": 1250, "annotation": {"number": 64, "value": 0}, "group": "control_change"}, {"time": 1253, "annotation": {"number": 64, "value": 127}, "group": "control_change"}, {"time": 1297, "annotation": {"number": 64, "value": 0}, "group": "control_change"}, {"time": 1299, "annotation": {"number": 64, "value": 127}, "group": "control_change"}, {"time": 1320, "annotation": {"number": 64, "value": 0}, "group": "control_change"}, {"time": 1322, "annotation": {"number": 64, "value": 127}, "group": "control_change"}, {"time": 1343, "annotation": {"number": 64, "value": 0}, "group": "control_change"}, {"time": 1349, "annotation": {"number": 64, "value": 127}, "group": "control_change"}, {"time": 1394, "annotation": {"number": 64, "value": 0}, "group": "control_change"}, {"time": 1396, "annotation": {"number": 64, "value": 127}, "group": "control_change"}, {"time": 1441, "annotation": {"number": 64, "value": 0}, "group": "control_change"}, {"time": 1444, "annotation": {"number": 64, "value": 127}, "group": "control_change"}, {"time": 1491, "annotation": {"number": 64, "value": 0}, "group": "control_change"}, {"time": 1493, "annotation": {"number": 64, "value": 127}, "group": "control_change"}, {"time": 1539, "annotation": {"number": 64, "value": 0}, "group": "control_change"}, {"time": 1540, "annotation": {"number": 64, "value": 127}, "group": "control_change"}, {"time": 1587, "annotation": {"number": 64, "value": 0}, "group": "control_change"}, {"time": 1588, "annotation": {"number": 64, "value": 127}, "group": "control_change"}, {"time": 1634, "annotation": {"number": 64, "value": 0}, "group": "control_change"}, {"time": 1637, "annotation": {"number": 64, "value": 127}, "group": "control_change"}, {"time": 1681, "annotation": {"number": 64, "value": 0}, "group": "control_change"}, {"time": 1683, "annotation": {"number": 64, "value": 127}, "group": "control_change"}, {"time": 1704, "annotation": {"number": 64, "value": 0}, "group": "control_change"}, {"time": 1706, "annotation": {"number": 64, "value": 127}, "group": "control_change"}, {"time": 1727, "annotation": {"number": 64, "value": 0}, "group": "control_change"}, {"time": 1732, "annotation": {"number": 64, "value": 127}, "group": "control_change"}, {"time": 1778, "annotation": {"number": 64, "value": 0}, "group": "control_change"}, {"time": 1779, "annotation": {"number": 64, "value": 127}, "group": "control_change"}, {"time": 1825, "annotation": {"number": 64, "value": 0}, "group": "control_change"}, {"time": 1827, "annotation": {"number": 64, "value": 127}, "group": "control_change"}, {"time": 1874, "annotation": {"number": 64, "value": 0}, "group": "control_change"}, {"time": 1876, "annotation": {"number": 64, "value": 127}, "group": "control_change"}, {"time": 1920, "annotation": {"number": 64, "value": 0}, "group": "control_change"}, {"time": 1926, "annotation": {"number": 64, "value": 127}, "group": "control_change"}, {"time": 1970, "annotation": {"number": 64, "value": 0}, "group": "control_change"}, {"time": 1972, "annotation": {"number": 64, "value": 127}, "group": "control_change"}, {"time": 1993, "annotation": {"number": 64, "value": 0}, "group": "control_change"}, {"time": 1995, "annotation": {"number": 64, "value": 127}, "group": "control_change"}, {"time": 2006, "annotation": {"number": 64, "value": 0}, "group": "control_change"}, {"time": 2007, "annotation": {"number": 64, "value": 127}, "group": "control_change"}, {"time": 2018, "annotation": {"number": 64, "value": 0}, "group": "control_change"}, {"time": 2021, "annotation": {"number": 64, "value": 127}, "group": "control_change"}, {"time": 2043, "annotation": {"number": 64, "value": 0}, "group": "control_change"}, {"time": 2046, "annotation": {"number": 64, "value": 127}, "group": "control_change"}, {"time": 2067, "annotation": {"number": 64, "value": 0}, "group": "control_change"}, {"time": 2070, "annotation": {"number": 64, "value": 127}, "group": "control_change"}, {"time": 2103, "annotation": {"number": 64, "value": 0}, "group": "control_change"}, {"time": 2104, "annotation": {"number": 64, "value": 127}, "group": "control_change"}, {"time": 2113, "annotation": {"number": 64, "value": 0}, "group": "control_change"}, {"time": 2115, "annotation": {"number": 64, "value": 127}, "group": "control_change"}, {"time": 2138, "annotation": {"number": 64, "value": 0}, "group": "control_change"}, {"time": 2140, "annotation": {"number": 64, "value": 127}, "group": "control_change"}, {"time": 2162, "annotation": {"number": 64, "value": 0}, "group": "control_change"}, {"time": 2164, "annotation": {"number": 64, "value": 127}, "group": "control_change"}, {"time": 2186, "annotation": {"number": 64, "value": 0}, "group": "control_change"}, {"time": 2189, "annotation": {"number": 64, "value": 127}, "group": "control_change"}, {"time": 2210, "annotation": {"number": 64, "value": 0}, "group": "control_change"}, {"time": 2216, "annotation": {"number": 64, "value": 127}, "group": "control_change"}, {"time": 2258, "annotation": {"number": 64, "value": 0}, "group": "control_change"}, {"time": 2260, "annotation": {"number": 64, "value": 127}, "group": "control_change"}, {"time": 2306, "annotation": {"number": 64, "value": 0}, "group": "control_change"}, {"time": 2309, "annotation": {"number": 64, "value": 127}, "group": "control_change"}, {"time": 2354, "annotation": {"number": 64, "value": 0}, "group": "control_change"}, {"time": 2356, "annotation": {"number": 64, "value": 127}, "group": "control_change"}, {"time": 2401, "annotation": {"number": 64, "value": 0}, "group": "control_change"}, {"time": 2404, "annotation": {"number": 64, "value": 127}, "group": "control_change"}, {"time": 2451, "annotation": {"number": 64, "value": 0}, "group": "control_change"}, {"time": 2453, "annotation": {"number": 64, "value": 127}, "group": "control_change"}, {"time": 2499, "annotation": {"number": 64, "value": 0}, "group": "control_change"}, {"time": 2500, "annotation": {"number": 64, "value": 127}, "group": "control_change"}, {"time": 2547, "annotation": {"number": 64, "value": 0}, "group": "control_change"}, {"time": 2548, "annotation": {"number": 64, "value": 127}, "group": "control_change"}, {"time": 2594, "annotation": {"number": 64, "value": 0}, "group": "control_change"}, {"time": 2597, "annotation": {"number": 64, "value": 127}, "group": "control_change"}, {"time": 2641, "annotation": {"number": 64, "value": 0}, "group": "control_change"}, {"time": 2643, "annotation": {"number": 64, "value": 127}, "group": "control_change"}, {"time": 2664, "annotation": {"number": 64, "value": 0}, "group": "control_change"}, {"time": 2666, "annotation": {"number": 64, "value": 127}, "group": "control_change"}, {"time": 2687, "annotation": {"number": 64, "value": 0}, "group": "control_change"}, {"time": 2693, "annotation": {"number": 64, "value": 127}, "group": "control_change"}, {"time": 2738, "annotation": {"number": 64, "value": 0}, "group": "control_change"}, {"time": 2740, "annotation": {"number": 64, "value": 127}, "group": "control_change"}, {"time": 2785, "annotation": {"number": 64, "value": 0}, "group": "control_change"}, {"time": 2788, "annotation": {"number": 64, "value": 127}, "group": "control_change"}, {"time": 2835, "annotation": {"number": 64, "value": 0}, "group": "control_change"}, {"time": 2837, "annotation": {"number": 64, "value": 127}, "group": "control_change"}, {"time": 2883, "annotation": {"number": 64, "value": 0}, "group": "control_change"}, {"time": 2884, "annotation": {"number": 64, "value": 127}, "group": "control_change"}, {"time": 2931, "annotation": {"number": 64, "value": 0}, "group": "control_change"}, {"time": 2932, "annotation": {"number": 64, "value": 127}, "group": "control_change"}, {"time": 2978, "annotation": {"number": 64, "value": 0}, "group": "control_change"}, {"time": 2981, "annotation": {"number": 64, "value": 127}, "group": "control_change"}, {"time": 3025, "annotation": {"number": 64, "value": 0}, "group": "control_change"}, {"time": 3027, "annotation": {"number": 64, "value": 127}, "group": "control_change"}, {"time": 3048, "annotation": {"number": 64, "value": 0}, "group": "control_change"}, {"time": 3050, "annotation": {"number": 64, "value": 127}, "group": "control_change"}, {"time": 3071, "annotation": {"number": 64, "value": 0}, "group": "control_change"}, {"time": 3076, "annotation": {"number": 64, "value": 127}, "group": "control_change"}, {"time": 3121, "annotation": {"number": 64, "value": 0}, "group": "control_change"}, {"time": 3123, "annotation": {"number": 64, "value": 127}, "group": "control_change"}, {"time": 3170, "annotation": {"number": 64, "value": 0}, "group": "control_change"}, {"time": 3173, "annotation": {"number": 64, "value": 127}, "group": "control_change"}, {"time": 3218, "annotation": {"number": 64, "value": 0}, "group": "control_change"}, {"time": 3220, "annotation": {"number": 64, "value": 127}, "group": "control_change"}, {"time": 3265, "annotation": {"number": 64, "value": 0}, "group": "control_change"}, {"time": 3268, "annotation": {"number": 64, "value": 127}, "group": "control_change"}, {"time": 3315, "annotation": {"number": 64, "value": 0}, "group": "control_change"}, {"time": 3317, "annotation": {"number": 64, "value": 127}, "group": "control_change"}, {"time": 3363, "annotation": {"number": 64, "value": 0}, "group": "control_change"}, {"time": 3364, "annotation": {"number": 64, "value": 127}, "group": "control_change"}, {"time": 3411, "annotation": {"number": 64, "value": 0}, "group": "control_change"}, {"time": 3412, "annotation": {"number": 64, "value": 127}, "group": "control_change"}, {"time": 3458, "annotation": {"number": 64, "value": 0}, "group": "control_change"}, {"time": 3461, "annotation": {"number": 64, "value": 127}, "group": "control_change"}, {"time": 3505, "annotation": {"number": 64, "value": 0}, "group": "control_change"}, {"time": 3507, "annotation": {"number": 64, "value": 127}, "group": "control_change"}, {"time": 3528, "annotation": {"number": 64, "value": 0}, "group": "control_change"}, {"time": 3530, "annotation": {"number": 64, "value": 127}, "group": "control_change"}, {"time": 3551, "annotation": {"number": 64, "value": 0}, "group": "control_change"}, {"time": 3556, "annotation": {"number": 64, "value": 127}, "group": "control_change"}, {"time": 3556, "annotation": {"number": 64, "value": 0}, "group": "control_change"}, {"time": 3557, "annotation": {"number": 64, "value": 127}, "group": "control_change"}, {"time": 3602, "annotation": {"number": 64, "value": 0}, "group": "control_change"}, {"time": 3604, "annotation": {"number": 64, "value": 127}, "group": "control_change"}, {"time": 3627, "annotation": {"number": 64, "value": 0}, "group": "control_change"}, {"time": 3629, "annotation": {"number": 64, "value": 127}, "group": "control_change"}, {"time": 3650, "annotation": {"number": 64, "value": 0}, "group": "control_change"}, {"time": 3653, "annotation": {"number": 64, "value": 127}, "group": "control_change"}, {"time": 3674, "annotation": {"number": 64, "value": 0}, "group": "control_change"}, {"time": 3676, "annotation": {"number": 64, "value": 127}, "group": "control_change"}, {"time": 3708, "annotation": {"number": 64, "value": 0}, "group": "control_change"}, {"time": 3710, "annotation": {"number": 64, "value": 127}, "group": "control_change"}]}]}