{"metadata": {"schema_version": "0.2", "title": "None", "source_filename": "675.mid", "source_format": "midi"}, "resolution": 12, "tempos": [{"time": 0, "qpm": 68.00014960032912}, {"time": 1380, "qpm": 67.5000675000675}, {"time": 1440, "qpm": 68.00014960032912}, {"time": 1787, "qpm": 67.75006549172997}, {"time": 1943, "qpm": 68.00014960032912}, {"time": 2527, "qpm": 67.75006549172997}, {"time": 2739, "qpm": 68.00014960032912}, {"time": 3138, "qpm": 67.75006549172997}, {"time": 3348, "qpm": 68.00014960032912}, {"time": 3744, "qpm": 67.75006549172997}], "time_signatures": [{"time": 0, "numerator": 1, "denominator": 4}], "tracks": [{"program": 0, "is_drum": false, "name": "MELODY", "notes": [{"time": 676, "pitch": 72, "duration": 3, "velocity": 86}, {"time": 679, "pitch": 77, "duration": 5, "velocity": 82}, {"time": 685, "pitch": 77, "duration": 2, "velocity": 86}, {"time": 688, "pitch": 77, "duration": 9, "velocity": 86}, {"time": 697, "pitch": 80, "duration": 5, "velocity": 81}, {"time": 703, "pitch": 77, "duration": 8, "velocity": 89}, {"time": 712, "pitch": 77, "duration": 7, "velocity": 86}, {"time": 721, "pitch": 75, "duration": 2, "velocity": 86}, {"time": 723, "pitch": 72, "duration": 3, "velocity": 85}, {"time": 727, "pitch": 77, "duration": 37, "velocity": 87}, {"time": 768, "pitch": 72, "duration": 2, "velocity": 86}, {"time": 771, "pitch": 72, "duration": 2, "velocity": 87}, {"time": 775, "pitch": 77, "duration": 7, "velocity": 90}, {"time": 783, "pitch": 80, "duration": 8, "velocity": 86}, {"time": 792, "pitch": 87, "duration": 5, "velocity": 87}, {"time": 799, "pitch": 84, "duration": 7, "velocity": 87}, {"time": 807, "pitch": 82, "duration": 8, "velocity": 84}, {"time": 816, "pitch": 80, "duration": 2, "velocity": 83}, {"time": 819, "pitch": 77, "duration": 2, "velocity": 87}, {"time": 822, "pitch": 84, "duration": 39, "velocity": 86}, {"time": 868, "pitch": 72, "duration": 3, "velocity": 86}, {"time": 871, "pitch": 77, "duration": 5, "velocity": 82}, {"time": 877, "pitch": 77, "duration": 2, "velocity": 86}, {"time": 880, "pitch": 77, "duration": 9, "velocity": 86}, {"time": 889, "pitch": 80, "duration": 5, "velocity": 81}, {"time": 895, "pitch": 77, "duration": 8, "velocity": 89}, {"time": 904, "pitch": 77, "duration": 7, "velocity": 86}, {"time": 913, "pitch": 75, "duration": 2, "velocity": 86}, {"time": 915, "pitch": 72, "duration": 3, "velocity": 85}, {"time": 919, "pitch": 77, "duration": 37, "velocity": 87}, {"time": 958, "pitch": 77, "duration": 1, "velocity": 88}, {"time": 961, "pitch": 77, "duration": 2, "velocity": 89}, {"time": 964, "pitch": 80, "duration": 2, "velocity": 87}, {"time": 967, "pitch": 84, "duration": 8, "velocity": 87}, {"time": 976, "pitch": 84, "duration": 7, "velocity": 87}, {"time": 984, "pitch": 87, "duration": 5, "velocity": 89}, {"time": 991, "pitch": 82, "duration": 7, "velocity": 89}, {"time": 1000, "pitch": 82, "duration": 7, "velocity": 87}, {"time": 1008, "pitch": 80, "duration": 3, "velocity": 86}, {"time": 1011, "pitch": 77, "duration": 3, "velocity": 90}, {"time": 1015, "pitch": 84, "duration": 2, "velocity": 82}, {"time": 1017, "pitch": 87, "duration": 3, "velocity": 87}, {"time": 1020, "pitch": 84, "duration": 31, "velocity": 83}, {"time": 1054, "pitch": 84, "duration": 1, "velocity": 87}, {"time": 1057, "pitch": 84, "duration": 2, "velocity": 89}, {"time": 1060, "pitch": 87, "duration": 2, "velocity": 86}, {"time": 1063, "pitch": 89, "duration": 8, "velocity": 87}, {"time": 1072, "pitch": 89, "duration": 7, "velocity": 90}, {"time": 1081, "pitch": 87, "duration": 6, "velocity": 88}, {"time": 1087, "pitch": 84, "duration": 3, "velocity": 84}, {"time": 1090, "pitch": 87, "duration": 3, "velocity": 86}, {"time": 1093, "pitch": 84, "duration": 9, "velocity": 80}, {"time": 1105, "pitch": 82, "duration": 3, "velocity": 87}, {"time": 1108, "pitch": 80, "duration": 3, "velocity": 81}, {"time": 1111, "pitch": 82, "duration": 7, "velocity": 86}, {"time": 1120, "pitch": 84, "duration": 3, "velocity": 88}, {"time": 1123, "pitch": 87, "duration": 5, "velocity": 90}, {"time": 1129, "pitch": 89, "duration": 3, "velocity": 88}, {"time": 1132, "pitch": 87, "duration": 3, "velocity": 90}, {"time": 1135, "pitch": 84, "duration": 14, "velocity": 86}, {"time": 1150, "pitch": 84, "duration": 1, "velocity": 90}, {"time": 1152, "pitch": 84, "duration": 3, "velocity": 87}, {"time": 1155, "pitch": 87, "duration": 3, "velocity": 86}, {"time": 1159, "pitch": 89, "duration": 8, "velocity": 87}, {"time": 1168, "pitch": 89, "duration": 9, "velocity": 90}, {"time": 1177, "pitch": 92, "duration": 6, "velocity": 90}, {"time": 1183, "pitch": 89, "duration": 11, "velocity": 87}, {"time": 1201, "pitch": 87, "duration": 2, "velocity": 87}, {"time": 1203, "pitch": 84, "duration": 3, "velocity": 86}, {"time": 1207, "pitch": 82, "duration": 7, "velocity": 86}, {"time": 1215, "pitch": 84, "duration": 3, "velocity": 79}, {"time": 1218, "pitch": 82, "duration": 6, "velocity": 87}, {"time": 1224, "pitch": 80, "duration": 7, "velocity": 86}, {"time": 1231, "pitch": 77, "duration": 18, "velocity": 88}, {"time": 1251, "pitch": 84, "duration": 3, "velocity": 85}, {"time": 1255, "pitch": 89, "duration": 18, "velocity": 90}, {"time": 1273, "pitch": 87, "duration": 2, "velocity": 87}, {"time": 1275, "pitch": 84, "duration": 3, "velocity": 86}, {"time": 1279, "pitch": 89, "duration": 4, "velocity": 92}, {"time": 1285, "pitch": 89, "duration": 4, "velocity": 90}, {"time": 1291, "pitch": 89, "duration": 2, "velocity": 93}, {"time": 1297, "pitch": 92, "duration": 3, "velocity": 87}, {"time": 1300, "pitch": 91, "duration": 3, "velocity": 84}, {"time": 1303, "pitch": 89, "duration": 14, "velocity": 88}, {"time": 1324, "pitch": 84, "duration": 3, "velocity": 86}, {"time": 1327, "pitch": 89, "duration": 18, "velocity": 91}, {"time": 1345, "pitch": 87, "duration": 3, "velocity": 85}, {"time": 1348, "pitch": 84, "duration": 3, "velocity": 81}, {"time": 1351, "pitch": 89, "duration": 4, "velocity": 88}, {"time": 1357, "pitch": 89, "duration": 1, "velocity": 86}, {"time": 1360, "pitch": 89, "duration": 1, "velocity": 86}, {"time": 1363, "pitch": 89, "duration": 2, "velocity": 88}, {"time": 1366, "pitch": 92, "duration": 2, "velocity": 87}, {"time": 1369, "pitch": 89, "duration": 2, "velocity": 89}, {"time": 1372, "pitch": 87, "duration": 1, "velocity": 85}, {"time": 1375, "pitch": 84, "duration": 14, "velocity": 86}, {"time": 1393, "pitch": 84, "duration": 4, "velocity": 93}, {"time": 1399, "pitch": 89, "duration": 9, "velocity": 90}, {"time": 1408, "pitch": 92, "duration": 3, "velocity": 88}, {"time": 1411, "pitch": 89, "duration": 5, "velocity": 92}, {"time": 1417, "pitch": 84, "duration": 3, "velocity": 88}, {"time": 1420, "pitch": 87, "duration": 3, "velocity": 83}, {"time": 1423, "pitch": 82, "duration": 9, "velocity": 87}, {"time": 1432, "pitch": 82, "duration": 5, "velocity": 86}, {"time": 1441, "pitch": 80, "duration": 2, "velocity": 89}, {"time": 1443, "pitch": 82, "duration": 3, "velocity": 81}, {"time": 1447, "pitch": 84, "duration": 8, "velocity": 87}, {"time": 1455, "pitch": 84, "duration": 4, "velocity": 87}, {"time": 1458, "pitch": 82, "duration": 6, "velocity": 87}, {"time": 1465, "pitch": 80, "duration": 5, "velocity": 88}, {"time": 1471, "pitch": 84, "duration": 13, "velocity": 87}, {"time": 1491, "pitch": 84, "duration": 3, "velocity": 85}, {"time": 1495, "pitch": 89, "duration": 18, "velocity": 90}, {"time": 1513, "pitch": 87, "duration": 2, "velocity": 87}, {"time": 1515, "pitch": 84, "duration": 3, "velocity": 86}, {"time": 1519, "pitch": 89, "duration": 4, "velocity": 92}, {"time": 1525, "pitch": 89, "duration": 4, "velocity": 90}, {"time": 1531, "pitch": 89, "duration": 2, "velocity": 93}, {"time": 1537, "pitch": 92, "duration": 3, "velocity": 87}, {"time": 1540, "pitch": 91, "duration": 3, "velocity": 84}, {"time": 1543, "pitch": 89, "duration": 14, "velocity": 88}, {"time": 1564, "pitch": 84, "duration": 3, "velocity": 86}, {"time": 1567, "pitch": 89, "duration": 18, "velocity": 91}, {"time": 1585, "pitch": 87, "duration": 3, "velocity": 85}, {"time": 1588, "pitch": 84, "duration": 3, "velocity": 81}, {"time": 1591, "pitch": 89, "duration": 4, "velocity": 88}, {"time": 1597, "pitch": 89, "duration": 1, "velocity": 86}, {"time": 1600, "pitch": 89, "duration": 1, "velocity": 86}, {"time": 1603, "pitch": 89, "duration": 2, "velocity": 88}, {"time": 1606, "pitch": 92, "duration": 2, "velocity": 87}, {"time": 1609, "pitch": 89, "duration": 2, "velocity": 89}, {"time": 1612, "pitch": 87, "duration": 1, "velocity": 85}, {"time": 1615, "pitch": 84, "duration": 14, "velocity": 86}, {"time": 1633, "pitch": 84, "duration": 4, "velocity": 93}, {"time": 1639, "pitch": 89, "duration": 9, "velocity": 90}, {"time": 1648, "pitch": 92, "duration": 3, "velocity": 88}, {"time": 1651, "pitch": 89, "duration": 5, "velocity": 92}, {"time": 1657, "pitch": 84, "duration": 3, "velocity": 88}, {"time": 1660, "pitch": 87, "duration": 3, "velocity": 83}, {"time": 1663, "pitch": 82, "duration": 9, "velocity": 87}, {"time": 1672, "pitch": 82, "duration": 5, "velocity": 86}, {"time": 1681, "pitch": 80, "duration": 2, "velocity": 89}, {"time": 1683, "pitch": 82, "duration": 3, "velocity": 81}, {"time": 1687, "pitch": 84, "duration": 8, "velocity": 87}, {"time": 1695, "pitch": 84, "duration": 4, "velocity": 87}, {"time": 1698, "pitch": 82, "duration": 6, "velocity": 87}, {"time": 1705, "pitch": 80, "duration": 5, "velocity": 88}, {"time": 1711, "pitch": 84, "duration": 13, "velocity": 87}, {"time": 1723, "pitch": 75, "duration": 3, "velocity": 88}, {"time": 1728, "pitch": 77, "duration": 4, "velocity": 88}, {"time": 1735, "pitch": 82, "duration": 6, "velocity": 89}, {"time": 1744, "pitch": 84, "duration": 3, "velocity": 86}, {"time": 1747, "pitch": 82, "duration": 6, "velocity": 86}, {"time": 1753, "pitch": 80, "duration": 3, "velocity": 81}, {"time": 1756, "pitch": 82, "duration": 3, "velocity": 82}, {"time": 1759, "pitch": 77, "duration": 42, "velocity": 85}, {"time": 2212, "pitch": 72, "duration": 3, "velocity": 86}, {"time": 2215, "pitch": 77, "duration": 5, "velocity": 82}, {"time": 2221, "pitch": 77, "duration": 2, "velocity": 86}, {"time": 2224, "pitch": 77, "duration": 9, "velocity": 86}, {"time": 2233, "pitch": 80, "duration": 5, "velocity": 81}, {"time": 2239, "pitch": 77, "duration": 8, "velocity": 89}, {"time": 2248, "pitch": 77, "duration": 7, "velocity": 86}, {"time": 2257, "pitch": 75, "duration": 2, "velocity": 86}, {"time": 2259, "pitch": 72, "duration": 3, "velocity": 85}, {"time": 2263, "pitch": 77, "duration": 37, "velocity": 87}, {"time": 2304, "pitch": 72, "duration": 2, "velocity": 86}, {"time": 2307, "pitch": 72, "duration": 2, "velocity": 87}, {"time": 2311, "pitch": 77, "duration": 7, "velocity": 90}, {"time": 2319, "pitch": 80, "duration": 8, "velocity": 86}, {"time": 2328, "pitch": 87, "duration": 5, "velocity": 87}, {"time": 2335, "pitch": 84, "duration": 7, "velocity": 87}, {"time": 2343, "pitch": 82, "duration": 8, "velocity": 84}, {"time": 2352, "pitch": 80, "duration": 2, "velocity": 83}, {"time": 2355, "pitch": 77, "duration": 2, "velocity": 87}, {"time": 2358, "pitch": 84, "duration": 39, "velocity": 86}, {"time": 2404, "pitch": 72, "duration": 3, "velocity": 86}, {"time": 2407, "pitch": 77, "duration": 5, "velocity": 82}, {"time": 2413, "pitch": 77, "duration": 2, "velocity": 86}, {"time": 2416, "pitch": 77, "duration": 9, "velocity": 86}, {"time": 2425, "pitch": 80, "duration": 5, "velocity": 81}, {"time": 2431, "pitch": 77, "duration": 8, "velocity": 89}, {"time": 2440, "pitch": 77, "duration": 7, "velocity": 86}, {"time": 2449, "pitch": 75, "duration": 2, "velocity": 86}, {"time": 2451, "pitch": 72, "duration": 3, "velocity": 85}, {"time": 2455, "pitch": 77, "duration": 37, "velocity": 87}, {"time": 2494, "pitch": 77, "duration": 1, "velocity": 88}, {"time": 2497, "pitch": 77, "duration": 2, "velocity": 89}, {"time": 2500, "pitch": 80, "duration": 2, "velocity": 87}, {"time": 2503, "pitch": 84, "duration": 8, "velocity": 87}, {"time": 2512, "pitch": 84, "duration": 7, "velocity": 87}, {"time": 2520, "pitch": 87, "duration": 5, "velocity": 89}, {"time": 2527, "pitch": 82, "duration": 7, "velocity": 89}, {"time": 2536, "pitch": 82, "duration": 7, "velocity": 87}, {"time": 2544, "pitch": 80, "duration": 3, "velocity": 86}, {"time": 2547, "pitch": 77, "duration": 3, "velocity": 90}, {"time": 2551, "pitch": 84, "duration": 2, "velocity": 82}, {"time": 2553, "pitch": 87, "duration": 3, "velocity": 87}, {"time": 2556, "pitch": 84, "duration": 31, "velocity": 83}, {"time": 2590, "pitch": 84, "duration": 1, "velocity": 87}, {"time": 2593, "pitch": 84, "duration": 2, "velocity": 89}, {"time": 2596, "pitch": 87, "duration": 2, "velocity": 86}, {"time": 2599, "pitch": 89, "duration": 8, "velocity": 87}, {"time": 2608, "pitch": 89, "duration": 7, "velocity": 90}, {"time": 2617, "pitch": 87, "duration": 6, "velocity": 88}, {"time": 2623, "pitch": 84, "duration": 3, "velocity": 84}, {"time": 2626, "pitch": 87, "duration": 3, "velocity": 86}, {"time": 2629, "pitch": 84, "duration": 9, "velocity": 80}, {"time": 2641, "pitch": 82, "duration": 3, "velocity": 87}, {"time": 2644, "pitch": 80, "duration": 3, "velocity": 81}, {"time": 2647, "pitch": 82, "duration": 7, "velocity": 86}, {"time": 2656, "pitch": 84, "duration": 3, "velocity": 88}, {"time": 2659, "pitch": 87, "duration": 5, "velocity": 90}, {"time": 2665, "pitch": 89, "duration": 3, "velocity": 88}, {"time": 2668, "pitch": 87, "duration": 3, "velocity": 90}, {"time": 2671, "pitch": 84, "duration": 14, "velocity": 86}, {"time": 2686, "pitch": 84, "duration": 1, "velocity": 90}, {"time": 2688, "pitch": 84, "duration": 3, "velocity": 87}, {"time": 2691, "pitch": 87, "duration": 3, "velocity": 86}, {"time": 2695, "pitch": 89, "duration": 8, "velocity": 87}, {"time": 2704, "pitch": 89, "duration": 9, "velocity": 90}, {"time": 2713, "pitch": 92, "duration": 6, "velocity": 90}, {"time": 2719, "pitch": 89, "duration": 11, "velocity": 87}, {"time": 2737, "pitch": 87, "duration": 2, "velocity": 87}, {"time": 2739, "pitch": 84, "duration": 3, "velocity": 86}, {"time": 2743, "pitch": 82, "duration": 7, "velocity": 86}, {"time": 2751, "pitch": 84, "duration": 3, "velocity": 79}, {"time": 2754, "pitch": 82, "duration": 6, "velocity": 87}, {"time": 2760, "pitch": 80, "duration": 7, "velocity": 86}, {"time": 2767, "pitch": 77, "duration": 18, "velocity": 88}, {"time": 2787, "pitch": 84, "duration": 3, "velocity": 85}, {"time": 2791, "pitch": 89, "duration": 18, "velocity": 90}, {"time": 2809, "pitch": 87, "duration": 2, "velocity": 87}, {"time": 2811, "pitch": 84, "duration": 3, "velocity": 86}, {"time": 2815, "pitch": 89, "duration": 4, "velocity": 92}, {"time": 2821, "pitch": 89, "duration": 4, "velocity": 90}, {"time": 2827, "pitch": 89, "duration": 2, "velocity": 93}, {"time": 2833, "pitch": 92, "duration": 3, "velocity": 87}, {"time": 2836, "pitch": 91, "duration": 3, "velocity": 84}, {"time": 2839, "pitch": 89, "duration": 14, "velocity": 88}, {"time": 2860, "pitch": 84, "duration": 3, "velocity": 86}, {"time": 2863, "pitch": 89, "duration": 18, "velocity": 91}, {"time": 2881, "pitch": 87, "duration": 3, "velocity": 85}, {"time": 2884, "pitch": 84, "duration": 3, "velocity": 81}, {"time": 2887, "pitch": 89, "duration": 4, "velocity": 88}, {"time": 2893, "pitch": 89, "duration": 1, "velocity": 86}, {"time": 2896, "pitch": 89, "duration": 1, "velocity": 86}, {"time": 2899, "pitch": 89, "duration": 2, "velocity": 88}, {"time": 2902, "pitch": 92, "duration": 2, "velocity": 87}, {"time": 2905, "pitch": 89, "duration": 2, "velocity": 89}, {"time": 2908, "pitch": 87, "duration": 1, "velocity": 85}, {"time": 2911, "pitch": 84, "duration": 14, "velocity": 86}, {"time": 2929, "pitch": 84, "duration": 4, "velocity": 93}, {"time": 2935, "pitch": 89, "duration": 9, "velocity": 90}, {"time": 2944, "pitch": 92, "duration": 3, "velocity": 88}, {"time": 2947, "pitch": 89, "duration": 5, "velocity": 92}, {"time": 2953, "pitch": 84, "duration": 3, "velocity": 88}, {"time": 2956, "pitch": 87, "duration": 3, "velocity": 83}, {"time": 2959, "pitch": 82, "duration": 9, "velocity": 87}, {"time": 2968, "pitch": 82, "duration": 5, "velocity": 86}, {"time": 2977, "pitch": 80, "duration": 2, "velocity": 89}, {"time": 2979, "pitch": 82, "duration": 3, "velocity": 81}, {"time": 2983, "pitch": 84, "duration": 8, "velocity": 87}, {"time": 2991, "pitch": 84, "duration": 4, "velocity": 87}, {"time": 2994, "pitch": 82, "duration": 6, "velocity": 87}, {"time": 3001, "pitch": 80, "duration": 5, "velocity": 88}, {"time": 3007, "pitch": 84, "duration": 13, "velocity": 87}, {"time": 3027, "pitch": 84, "duration": 3, "velocity": 85}, {"time": 3031, "pitch": 89, "duration": 18, "velocity": 90}, {"time": 3049, "pitch": 87, "duration": 2, "velocity": 87}, {"time": 3051, "pitch": 84, "duration": 3, "velocity": 86}, {"time": 3055, "pitch": 89, "duration": 4, "velocity": 92}, {"time": 3061, "pitch": 89, "duration": 4, "velocity": 90}, {"time": 3067, "pitch": 89, "duration": 2, "velocity": 93}, {"time": 3073, "pitch": 92, "duration": 3, "velocity": 87}, {"time": 3076, "pitch": 91, "duration": 3, "velocity": 84}, {"time": 3079, "pitch": 89, "duration": 14, "velocity": 88}, {"time": 3100, "pitch": 84, "duration": 3, "velocity": 86}, {"time": 3103, "pitch": 89, "duration": 18, "velocity": 91}, {"time": 3121, "pitch": 87, "duration": 3, "velocity": 85}, {"time": 3124, "pitch": 84, "duration": 3, "velocity": 81}, {"time": 3127, "pitch": 89, "duration": 4, "velocity": 88}, {"time": 3133, "pitch": 89, "duration": 1, "velocity": 86}, {"time": 3136, "pitch": 89, "duration": 1, "velocity": 86}, {"time": 3139, "pitch": 89, "duration": 2, "velocity": 88}, {"time": 3142, "pitch": 92, "duration": 2, "velocity": 87}, {"time": 3145, "pitch": 89, "duration": 2, "velocity": 89}, {"time": 3148, "pitch": 87, "duration": 1, "velocity": 85}, {"time": 3151, "pitch": 84, "duration": 14, "velocity": 86}, {"time": 3169, "pitch": 84, "duration": 4, "velocity": 93}, {"time": 3175, "pitch": 89, "duration": 9, "velocity": 90}, {"time": 3184, "pitch": 92, "duration": 3, "velocity": 88}, {"time": 3187, "pitch": 89, "duration": 5, "velocity": 92}, {"time": 3193, "pitch": 84, "duration": 3, "velocity": 88}, {"time": 3196, "pitch": 87, "duration": 3, "velocity": 83}, {"time": 3199, "pitch": 82, "duration": 9, "velocity": 87}, {"time": 3208, "pitch": 82, "duration": 5, "velocity": 86}, {"time": 3217, "pitch": 80, "duration": 2, "velocity": 89}, {"time": 3219, "pitch": 82, "duration": 3, "velocity": 81}, {"time": 3223, "pitch": 84, "duration": 8, "velocity": 87}, {"time": 3231, "pitch": 84, "duration": 4, "velocity": 87}, {"time": 3234, "pitch": 82, "duration": 6, "velocity": 87}, {"time": 3241, "pitch": 80, "duration": 5, "velocity": 88}, {"time": 3247, "pitch": 84, "duration": 13, "velocity": 87}, {"time": 3259, "pitch": 75, "duration": 3, "velocity": 88}, {"time": 3264, "pitch": 77, "duration": 4, "velocity": 88}, {"time": 3271, "pitch": 82, "duration": 6, "velocity": 89}, {"time": 3280, "pitch": 84, "duration": 3, "velocity": 86}, {"time": 3283, "pitch": 82, "duration": 6, "velocity": 86}, {"time": 3289, "pitch": 80, "duration": 3, "velocity": 81}, {"time": 3292, "pitch": 82, "duration": 3, "velocity": 82}, {"time": 3295, "pitch": 77, "duration": 42, "velocity": 85}, {"time": 3339, "pitch": 84, "duration": 3, "velocity": 85}, {"time": 3343, "pitch": 89, "duration": 18, "velocity": 90}, {"time": 3361, "pitch": 87, "duration": 2, "velocity": 87}, {"time": 3363, "pitch": 84, "duration": 3, "velocity": 86}, {"time": 3367, "pitch": 89, "duration": 4, "velocity": 92}, {"time": 3373, "pitch": 89, "duration": 4, "velocity": 90}, {"time": 3379, "pitch": 89, "duration": 2, "velocity": 93}, {"time": 3385, "pitch": 92, "duration": 3, "velocity": 87}, {"time": 3388, "pitch": 91, "duration": 3, "velocity": 84}, {"time": 3391, "pitch": 89, "duration": 14, "velocity": 88}, {"time": 3412, "pitch": 84, "duration": 3, "velocity": 86}, {"time": 3415, "pitch": 89, "duration": 18, "velocity": 91}, {"time": 3433, "pitch": 87, "duration": 3, "velocity": 85}, {"time": 3436, "pitch": 84, "duration": 3, "velocity": 81}, {"time": 3439, "pitch": 89, "duration": 4, "velocity": 88}, {"time": 3445, "pitch": 89, "duration": 1, "velocity": 86}, {"time": 3448, "pitch": 89, "duration": 1, "velocity": 86}, {"time": 3451, "pitch": 89, "duration": 2, "velocity": 88}, {"time": 3454, "pitch": 92, "duration": 2, "velocity": 87}, {"time": 3457, "pitch": 89, "duration": 2, "velocity": 89}, {"time": 3460, "pitch": 87, "duration": 1, "velocity": 85}, {"time": 3463, "pitch": 84, "duration": 14, "velocity": 86}, {"time": 3481, "pitch": 84, "duration": 4, "velocity": 93}, {"time": 3487, "pitch": 89, "duration": 9, "velocity": 90}, {"time": 3496, "pitch": 92, "duration": 3, "velocity": 88}, {"time": 3499, "pitch": 89, "duration": 5, "velocity": 92}, {"time": 3505, "pitch": 84, "duration": 3, "velocity": 88}, {"time": 3508, "pitch": 87, "duration": 3, "velocity": 83}, {"time": 3511, "pitch": 82, "duration": 9, "velocity": 87}, {"time": 3520, "pitch": 82, "duration": 5, "velocity": 86}, {"time": 3529, "pitch": 80, "duration": 2, "velocity": 89}, {"time": 3531, "pitch": 82, "duration": 3, "velocity": 81}, {"time": 3535, "pitch": 84, "duration": 8, "velocity": 87}, {"time": 3543, "pitch": 84, "duration": 4, "velocity": 87}, {"time": 3546, "pitch": 82, "duration": 6, "velocity": 87}, {"time": 3553, "pitch": 80, "duration": 5, "velocity": 88}, {"time": 3559, "pitch": 84, "duration": 13, "velocity": 87}, {"time": 3579, "pitch": 84, "duration": 3, "velocity": 85}, {"time": 3583, "pitch": 89, "duration": 18, "velocity": 90}, {"time": 3601, "pitch": 87, "duration": 2, "velocity": 87}, {"time": 3603, "pitch": 84, "duration": 3, "velocity": 86}, {"time": 3607, "pitch": 89, "duration": 4, "velocity": 92}, {"time": 3613, "pitch": 89, "duration": 4, "velocity": 90}, {"time": 3619, "pitch": 89, "duration": 2, "velocity": 93}, {"time": 3625, "pitch": 92, "duration": 3, "velocity": 87}, {"time": 3628, "pitch": 91, "duration": 3, "velocity": 84}, {"time": 3631, "pitch": 89, "duration": 14, "velocity": 88}, {"time": 3652, "pitch": 84, "duration": 3, "velocity": 86}, {"time": 3655, "pitch": 89, "duration": 18, "velocity": 91}, {"time": 3673, "pitch": 87, "duration": 3, "velocity": 85}, {"time": 3676, "pitch": 84, "duration": 3, "velocity": 81}, {"time": 3679, "pitch": 89, "duration": 4, "velocity": 88}, {"time": 3685, "pitch": 89, "duration": 1, "velocity": 86}, {"time": 3688, "pitch": 89, "duration": 1, "velocity": 86}, {"time": 3691, "pitch": 89, "duration": 2, "velocity": 88}, {"time": 3694, "pitch": 92, "duration": 2, "velocity": 87}, {"time": 3697, "pitch": 89, "duration": 2, "velocity": 89}, {"time": 3700, "pitch": 87, "duration": 1, "velocity": 85}, {"time": 3703, "pitch": 84, "duration": 14, "velocity": 86}, {"time": 3721, "pitch": 84, "duration": 4, "velocity": 93}, {"time": 3727, "pitch": 89, "duration": 9, "velocity": 90}, {"time": 3736, "pitch": 92, "duration": 3, "velocity": 88}, {"time": 3739, "pitch": 89, "duration": 5, "velocity": 92}, {"time": 3745, "pitch": 84, "duration": 3, "velocity": 88}, {"time": 3748, "pitch": 87, "duration": 3, "velocity": 83}, {"time": 3751, "pitch": 82, "duration": 9, "velocity": 87}, {"time": 3760, "pitch": 82, "duration": 5, "velocity": 86}, {"time": 3769, "pitch": 80, "duration": 2, "velocity": 89}, {"time": 3771, "pitch": 82, "duration": 3, "velocity": 81}, {"time": 3775, "pitch": 84, "duration": 8, "velocity": 87}, {"time": 3783, "pitch": 84, "duration": 4, "velocity": 87}, {"time": 3786, "pitch": 82, "duration": 6, "velocity": 87}, {"time": 3793, "pitch": 80, "duration": 5, "velocity": 88}, {"time": 3799, "pitch": 84, "duration": 13, "velocity": 87}, {"time": 3811, "pitch": 75, "duration": 3, "velocity": 88}, {"time": 3816, "pitch": 77, "duration": 4, "velocity": 88}, {"time": 3823, "pitch": 82, "duration": 6, "velocity": 89}, {"time": 3832, "pitch": 84, "duration": 3, "velocity": 86}, {"time": 3835, "pitch": 82, "duration": 6, "velocity": 86}, {"time": 3841, "pitch": 80, "duration": 3, "velocity": 81}, {"time": 3844, "pitch": 82, "duration": 3, "velocity": 82}, {"time": 3847, "pitch": 77, "duration": 28, "velocity": 85}, {"time": 3879, "pitch": 72, "duration": 5, "velocity": 88}, {"time": 3883, "pitch": 75, "duration": 6, "velocity": 87}, {"time": 3889, "pitch": 77, "duration": 5, "velocity": 87}, {"time": 3895, "pitch": 82, "duration": 4, "velocity": 87}, {"time": 3901, "pitch": 82, "duration": 3, "velocity": 86}, {"time": 3904, "pitch": 84, "duration": 4, "velocity": 82}, {"time": 3907, "pitch": 82, "duration": 3, "velocity": 90}, {"time": 3910, "pitch": 80, "duration": 3, "velocity": 84}, {"time": 3913, "pitch": 82, "duration": 3, "velocity": 80}, {"time": 3916, "pitch": 80, "duration": 2, "velocity": 79}, {"time": 3919, "pitch": 77, "duration": 21, "velocity": 88}, {"time": 3942, "pitch": 82, "duration": 8, "velocity": 86}, {"time": 3951, "pitch": 84, "duration": 4, "velocity": 86}, {"time": 3954, "pitch": 82, "duration": 4, "velocity": 82}, {"time": 3957, "pitch": 80, "duration": 3, "velocity": 85}, {"time": 3960, "pitch": 82, "duration": 2, "velocity": 82}, {"time": 3962, "pitch": 80, "duration": 1, "velocity": 75}, {"time": 3963, "pitch": 77, "duration": 3, "velocity": 86}, {"time": 3967, "pitch": 77, "duration": 22, "velocity": 86}, {"time": 3991, "pitch": 82, "duration": 6, "velocity": 82}, {"time": 3999, "pitch": 84, "duration": 4, "velocity": 82}, {"time": 4003, "pitch": 82, "duration": 2, "velocity": 81}, {"time": 4005, "pitch": 80, "duration": 3, "velocity": 77}, {"time": 4008, "pitch": 82, "duration": 2, "velocity": 76}, {"time": 4010, "pitch": 80, "duration": 1, "velocity": 79}, {"time": 4011, "pitch": 77, "duration": 2, "velocity": 85}, {"time": 4015, "pitch": 77, "duration": 20, "velocity": 86}, {"time": 4038, "pitch": 82, "duration": 7, "velocity": 80}, {"time": 4047, "pitch": 84, "duration": 4, "velocity": 81}, {"time": 4050, "pitch": 82, "duration": 3, "velocity": 82}, {"time": 4053, "pitch": 80, "duration": 2, "velocity": 80}, {"time": 4056, "pitch": 82, "duration": 2, "velocity": 86}, {"time": 4057, "pitch": 80, "duration": 2, "velocity": 77}, {"time": 4059, "pitch": 77, "duration": 2, "velocity": 83}, {"time": 4063, "pitch": 77, "duration": 23, "velocity": 84}]}, {"program": 0, "is_drum": false, "name": "BRIDGE", "notes": [{"time": 99, "pitch": 65, "duration": 43, "velocity": 102}, {"time": 144, "pitch": 63, "duration": 3, "velocity": 81}, {"time": 146, "pitch": 65, "duration": 3, "velocity": 84}, {"time": 148, "pitch": 68, "duration": 3, "velocity": 83}, {"time": 151, "pitch": 70, "duration": 3, "velocity": 75}, {"time": 153, "pitch": 68, "duration": 3, "velocity": 82}, {"time": 155, "pitch": 70, "duration": 3, "velocity": 86}, {"time": 158, "pitch": 72, "duration": 2, "velocity": 84}, {"time": 160, "pitch": 75, "duration": 2, "velocity": 86}, {"time": 162, "pitch": 72, "duration": 3, "velocity": 90}, {"time": 165, "pitch": 75, "duration": 2, "velocity": 89}, {"time": 167, "pitch": 77, "duration": 2, "velocity": 86}, {"time": 169, "pitch": 79, "duration": 2, "velocity": 83}, {"time": 171, "pitch": 77, "duration": 2, "velocity": 88}, {"time": 173, "pitch": 75, "duration": 1, "velocity": 87}, {"time": 174, "pitch": 77, "duration": 42, "velocity": 89}, {"time": 198, "pitch": 89, "duration": 2, "velocity": 86}, {"time": 201, "pitch": 91, "duration": 1, "velocity": 92}, {"time": 203, "pitch": 87, "duration": 2, "velocity": 80}, {"time": 206, "pitch": 89, "duration": 1, "velocity": 80}, {"time": 218, "pitch": 77, "duration": 2, "velocity": 79}, {"time": 220, "pitch": 79, "duration": 2, "velocity": 72}, {"time": 222, "pitch": 75, "duration": 2, "velocity": 77}, {"time": 224, "pitch": 77, "duration": 22, "velocity": 78}, {"time": 247, "pitch": 72, "duration": 13, "velocity": 95}, {"time": 259, "pitch": 84, "duration": 40, "velocity": 87}, {"time": 302, "pitch": 82, "duration": 2, "velocity": 88}, {"time": 304, "pitch": 84, "duration": 3, "velocity": 79}, {"time": 306, "pitch": 82, "duration": 2, "velocity": 79}, {"time": 308, "pitch": 80, "duration": 2, "velocity": 78}, {"time": 310, "pitch": 82, "duration": 2, "velocity": 87}, {"time": 311, "pitch": 80, "duration": 3, "velocity": 86}, {"time": 314, "pitch": 79, "duration": 3, "velocity": 91}, {"time": 317, "pitch": 80, "duration": 2, "velocity": 74}, {"time": 318, "pitch": 79, "duration": 2, "velocity": 82}, {"time": 320, "pitch": 77, "duration": 2, "velocity": 85}, {"time": 322, "pitch": 79, "duration": 2, "velocity": 84}, {"time": 324, "pitch": 77, "duration": 2, "velocity": 86}, {"time": 326, "pitch": 75, "duration": 2, "velocity": 88}, {"time": 328, "pitch": 77, "duration": 2, "velocity": 86}, {"time": 329, "pitch": 75, "duration": 3, "velocity": 80}, {"time": 332, "pitch": 72, "duration": 39, "velocity": 93}, {"time": 350, "pitch": 89, "duration": 2, "velocity": 86}, {"time": 352, "pitch": 91, "duration": 3, "velocity": 82}, {"time": 355, "pitch": 87, "duration": 2, "velocity": 78}, {"time": 357, "pitch": 84, "duration": 8, "velocity": 82}, {"time": 365, "pitch": 77, "duration": 2, "velocity": 82}, {"time": 367, "pitch": 79, "duration": 3, "velocity": 58}, {"time": 370, "pitch": 75, "duration": 2, "velocity": 79}, {"time": 372, "pitch": 72, "duration": 18, "velocity": 77}, {"time": 391, "pitch": 77, "duration": 28, "velocity": 86}, {"time": 420, "pitch": 80, "duration": 3, "velocity": 82}, {"time": 423, "pitch": 82, "duration": 2, "velocity": 85}, {"time": 425, "pitch": 84, "duration": 5, "velocity": 86}, {"time": 429, "pitch": 89, "duration": 4, "velocity": 88}, {"time": 432, "pitch": 91, "duration": 5, "velocity": 90}, {"time": 437, "pitch": 89, "duration": 2, "velocity": 91}, {"time": 439, "pitch": 91, "duration": 2, "velocity": 88}, {"time": 441, "pitch": 89, "duration": 2, "velocity": 87}, {"time": 443, "pitch": 87, "duration": 2, "velocity": 86}, {"time": 444, "pitch": 89, "duration": 2, "velocity": 84}, {"time": 446, "pitch": 87, "duration": 2, "velocity": 82}, {"time": 448, "pitch": 84, "duration": 2, "velocity": 88}, {"time": 450, "pitch": 87, "duration": 2, "velocity": 88}, {"time": 452, "pitch": 84, "duration": 2, "velocity": 85}, {"time": 454, "pitch": 82, "duration": 2, "velocity": 81}, {"time": 456, "pitch": 84, "duration": 2, "velocity": 78}, {"time": 458, "pitch": 82, "duration": 1, "velocity": 81}, {"time": 460, "pitch": 80, "duration": 3, "velocity": 79}, {"time": 463, "pitch": 82, "duration": 23, "velocity": 81}, {"time": 489, "pitch": 80, "duration": 5, "velocity": 87}, {"time": 493, "pitch": 82, "duration": 5, "velocity": 91}, {"time": 498, "pitch": 84, "duration": 34, "velocity": 84}, {"time": 536, "pitch": 82, "duration": 10, "velocity": 86}, {"time": 545, "pitch": 84, "duration": 4, "velocity": 88}, {"time": 548, "pitch": 82, "duration": 4, "velocity": 92}, {"time": 551, "pitch": 80, "duration": 8, "velocity": 89}, {"time": 559, "pitch": 77, "duration": 72, "velocity": 87}, {"time": 738, "pitch": 75, "duration": 13, "velocity": 103}, {"time": 751, "pitch": 77, "duration": 18, "velocity": 106}, {"time": 834, "pitch": 84, "duration": 11, "velocity": 86}, {"time": 834, "pitch": 87, "duration": 13, "velocity": 90}, {"time": 847, "pitch": 84, "duration": 23, "velocity": 87}, {"time": 931, "pitch": 68, "duration": 34, "velocity": 88}, {"time": 943, "pitch": 65, "duration": 22, "velocity": 87}, {"time": 1027, "pitch": 68, "duration": 12, "velocity": 82}, {"time": 1027, "pitch": 80, "duration": 12, "velocity": 86}, {"time": 1038, "pitch": 72, "duration": 23, "velocity": 84}, {"time": 1039, "pitch": 84, "duration": 22, "velocity": 82}, {"time": 1063, "pitch": 77, "duration": 28, "velocity": 83}, {"time": 1087, "pitch": 79, "duration": 22, "velocity": 92}, {"time": 1099, "pitch": 72, "duration": 6, "velocity": 92}, {"time": 1105, "pitch": 75, "duration": 6, "velocity": 92}, {"time": 1111, "pitch": 77, "duration": 23, "velocity": 92}, {"time": 1111, "pitch": 70, "duration": 21, "velocity": 92}, {"time": 1135, "pitch": 72, "duration": 21, "velocity": 92}, {"time": 1135, "pitch": 75, "duration": 21, "velocity": 92}, {"time": 1135, "pitch": 68, "duration": 19, "velocity": 92}, {"time": 1159, "pitch": 77, "duration": 22, "velocity": 92}, {"time": 1159, "pitch": 72, "duration": 13, "velocity": 92}, {"time": 1171, "pitch": 70, "duration": 12, "velocity": 92}, {"time": 1182, "pitch": 68, "duration": 13, "velocity": 92}, {"time": 1183, "pitch": 80, "duration": 23, "velocity": 92}, {"time": 1195, "pitch": 65, "duration": 6, "velocity": 92}, {"time": 1201, "pitch": 68, "duration": 6, "velocity": 92}, {"time": 1207, "pitch": 70, "duration": 21, "velocity": 92}, {"time": 1207, "pitch": 82, "duration": 24, "velocity": 92}, {"time": 1231, "pitch": 84, "duration": 20, "velocity": 92}, {"time": 1231, "pitch": 65, "duration": 24, "velocity": 92}, {"time": 1231, "pitch": 68, "duration": 23, "velocity": 92}, {"time": 1243, "pitch": 77, "duration": 4, "velocity": 92}, {"time": 1246, "pitch": 80, "duration": 3, "velocity": 92}, {"time": 1249, "pitch": 84, "duration": 2, "velocity": 92}, {"time": 1251, "pitch": 87, "duration": 3, "velocity": 92}, {"time": 1255, "pitch": 89, "duration": 47, "velocity": 92}, {"time": 1303, "pitch": 92, "duration": 18, "velocity": 88}, {"time": 1320, "pitch": 91, "duration": 7, "velocity": 88}, {"time": 1327, "pitch": 89, "duration": 25, "velocity": 93}, {"time": 1351, "pitch": 89, "duration": 1, "velocity": 87}, {"time": 1363, "pitch": 89, "duration": 7, "velocity": 88}, {"time": 1369, "pitch": 87, "duration": 4, "velocity": 88}, {"time": 1372, "pitch": 89, "duration": 3, "velocity": 87}, {"time": 1375, "pitch": 84, "duration": 22, "velocity": 87}, {"time": 1399, "pitch": 89, "duration": 21, "velocity": 86}, {"time": 1423, "pitch": 85, "duration": 22, "velocity": 85}, {"time": 1423, "pitch": 82, "duration": 21, "velocity": 78}, {"time": 1446, "pitch": 84, "duration": 12, "velocity": 86}, {"time": 1446, "pitch": 80, "duration": 10, "velocity": 81}, {"time": 1458, "pitch": 80, "duration": 7, "velocity": 88}, {"time": 1464, "pitch": 82, "duration": 7, "velocity": 88}, {"time": 1470, "pitch": 84, "duration": 21, "velocity": 85}, {"time": 1495, "pitch": 89, "duration": 34, "velocity": 87}, {"time": 1495, "pitch": 84, "duration": 34, "velocity": 76}, {"time": 1531, "pitch": 89, "duration": 3, "velocity": 86}, {"time": 1534, "pitch": 92, "duration": 3, "velocity": 82}, {"time": 1537, "pitch": 91, "duration": 2, "velocity": 89}, {"time": 1539, "pitch": 87, "duration": 4, "velocity": 86}, {"time": 1543, "pitch": 89, "duration": 18, "velocity": 88}, {"time": 1561, "pitch": 87, "duration": 5, "velocity": 84}, {"time": 1567, "pitch": 89, "duration": 13, "velocity": 87}, {"time": 1579, "pitch": 87, "duration": 11, "velocity": 86}, {"time": 1592, "pitch": 89, "duration": 17, "velocity": 86}, {"time": 1609, "pitch": 87, "duration": 6, "velocity": 87}, {"time": 1615, "pitch": 84, "duration": 22, "velocity": 86}, {"time": 1639, "pitch": 84, "duration": 22, "velocity": 87}, {"time": 1663, "pitch": 85, "duration": 21, "velocity": 84}, {"time": 1663, "pitch": 82, "duration": 21, "velocity": 74}, {"time": 1687, "pitch": 84, "duration": 12, "velocity": 86}, {"time": 1698, "pitch": 80, "duration": 8, "velocity": 84}, {"time": 1705, "pitch": 82, "duration": 6, "velocity": 87}, {"time": 1711, "pitch": 84, "duration": 20, "velocity": 87}, {"time": 1735, "pitch": 77, "duration": 14, "velocity": 82}, {"time": 1735, "pitch": 82, "duration": 14, "velocity": 82}, {"time": 1758, "pitch": 80, "duration": 14, "velocity": 80}, {"time": 1758, "pitch": 77, "duration": 17, "velocity": 80}, {"time": 1766, "pitch": 82, "duration": 2, "velocity": 87}, {"time": 1768, "pitch": 84, "duration": 3, "velocity": 82}, {"time": 1771, "pitch": 82, "duration": 4, "velocity": 90}, {"time": 1774, "pitch": 80, "duration": 6, "velocity": 92}, {"time": 1780, "pitch": 77, "duration": 2, "velocity": 87}, {"time": 1783, "pitch": 77, "duration": 12, "velocity": 88}, {"time": 1791, "pitch": 65, "duration": 1, "velocity": 85}, {"time": 1793, "pitch": 67, "duration": 1, "velocity": 85}, {"time": 1795, "pitch": 68, "duration": 1, "velocity": 82}, {"time": 1796, "pitch": 70, "duration": 2, "velocity": 80}, {"time": 1798, "pitch": 72, "duration": 3, "velocity": 78}, {"time": 1800, "pitch": 73, "duration": 2, "velocity": 81}, {"time": 1801, "pitch": 75, "duration": 1, "velocity": 85}, {"time": 1802, "pitch": 84, "duration": 3, "velocity": 89}, {"time": 1803, "pitch": 77, "duration": 2, "velocity": 90}, {"time": 1804, "pitch": 87, "duration": 4, "velocity": 92}, {"time": 1805, "pitch": 79, "duration": 2, "velocity": 90}, {"time": 1807, "pitch": 80, "duration": 24, "velocity": 90}, {"time": 1807, "pitch": 89, "duration": 9, "velocity": 90}, {"time": 1816, "pitch": 91, "duration": 4, "velocity": 97}, {"time": 1819, "pitch": 89, "duration": 6, "velocity": 90}, {"time": 1825, "pitch": 84, "duration": 4, "velocity": 89}, {"time": 1828, "pitch": 87, "duration": 3, "velocity": 89}, {"time": 1831, "pitch": 65, "duration": 7, "velocity": 89}, {"time": 1831, "pitch": 89, "duration": 24, "velocity": 90}, {"time": 1837, "pitch": 67, "duration": 8, "velocity": 85}, {"time": 1843, "pitch": 65, "duration": 7, "velocity": 88}, {"time": 1849, "pitch": 63, "duration": 3, "velocity": 87}, {"time": 1852, "pitch": 65, "duration": 3, "velocity": 86}, {"time": 1855, "pitch": 84, "duration": 9, "velocity": 90}, {"time": 1855, "pitch": 60, "duration": 24, "velocity": 87}, {"time": 1864, "pitch": 91, "duration": 3, "velocity": 86}, {"time": 1866, "pitch": 89, "duration": 4, "velocity": 87}, {"time": 1869, "pitch": 91, "duration": 4, "velocity": 86}, {"time": 1873, "pitch": 87, "duration": 6, "velocity": 91}, {"time": 1879, "pitch": 89, "duration": 23, "velocity": 93}, {"time": 1884, "pitch": 53, "duration": 7, "velocity": 86}, {"time": 1890, "pitch": 56, "duration": 4, "velocity": 82}, {"time": 1894, "pitch": 53, "duration": 4, "velocity": 86}, {"time": 1897, "pitch": 56, "duration": 4, "velocity": 83}, {"time": 1900, "pitch": 58, "duration": 4, "velocity": 78}, {"time": 1903, "pitch": 60, "duration": 24, "velocity": 85}, {"time": 1904, "pitch": 84, "duration": 11, "velocity": 92}, {"time": 1914, "pitch": 89, "duration": 10, "velocity": 92}, {"time": 1923, "pitch": 91, "duration": 4, "velocity": 95}, {"time": 1927, "pitch": 89, "duration": 5, "velocity": 92}, {"time": 1927, "pitch": 60, "duration": 6, "velocity": 86}, {"time": 1932, "pitch": 87, "duration": 3, "velocity": 90}, {"time": 1933, "pitch": 56, "duration": 7, "velocity": 81}, {"time": 1935, "pitch": 89, "duration": 4, "velocity": 90}, {"time": 1938, "pitch": 87, "duration": 5, "velocity": 90}, {"time": 1938, "pitch": 58, "duration": 7, "velocity": 82}, {"time": 1944, "pitch": 84, "duration": 6, "velocity": 87}, {"time": 1945, "pitch": 60, "duration": 6, "velocity": 81}, {"time": 1950, "pitch": 82, "duration": 10, "velocity": 89}, {"time": 1951, "pitch": 61, "duration": 23, "velocity": 80}, {"time": 1957, "pitch": 77, "duration": 6, "velocity": 92}, {"time": 1963, "pitch": 82, "duration": 4, "velocity": 91}, {"time": 1969, "pitch": 87, "duration": 2, "velocity": 89}, {"time": 1972, "pitch": 89, "duration": 3, "velocity": 82}, {"time": 1974, "pitch": 87, "duration": 4, "velocity": 81}, {"time": 1975, "pitch": 63, "duration": 7, "velocity": 87}, {"time": 1978, "pitch": 84, "duration": 19, "velocity": 88}, {"time": 1981, "pitch": 67, "duration": 6, "velocity": 79}, {"time": 1986, "pitch": 65, "duration": 7, "velocity": 87}, {"time": 1992, "pitch": 63, "duration": 6, "velocity": 86}, {"time": 1994, "pitch": 84, "duration": 3, "velocity": 89}, {"time": 1996, "pitch": 87, "duration": 4, "velocity": 92}, {"time": 1999, "pitch": 60, "duration": 13, "velocity": 81}, {"time": 1999, "pitch": 89, "duration": 9, "velocity": 90}, {"time": 2008, "pitch": 91, "duration": 4, "velocity": 97}, {"time": 2011, "pitch": 65, "duration": 10, "velocity": 85}, {"time": 2011, "pitch": 89, "duration": 6, "velocity": 90}, {"time": 2017, "pitch": 84, "duration": 4, "velocity": 89}, {"time": 2020, "pitch": 87, "duration": 3, "velocity": 89}, {"time": 2023, "pitch": 65, "duration": 7, "velocity": 89}, {"time": 2023, "pitch": 89, "duration": 24, "velocity": 90}, {"time": 2029, "pitch": 67, "duration": 8, "velocity": 85}, {"time": 2035, "pitch": 65, "duration": 7, "velocity": 88}, {"time": 2041, "pitch": 63, "duration": 3, "velocity": 87}, {"time": 2044, "pitch": 65, "duration": 3, "velocity": 86}, {"time": 2047, "pitch": 84, "duration": 9, "velocity": 90}, {"time": 2047, "pitch": 60, "duration": 24, "velocity": 87}, {"time": 2056, "pitch": 91, "duration": 3, "velocity": 86}, {"time": 2058, "pitch": 89, "duration": 4, "velocity": 87}, {"time": 2061, "pitch": 91, "duration": 4, "velocity": 86}, {"time": 2065, "pitch": 87, "duration": 6, "velocity": 91}, {"time": 2071, "pitch": 89, "duration": 23, "velocity": 93}, {"time": 2076, "pitch": 53, "duration": 7, "velocity": 86}, {"time": 2082, "pitch": 56, "duration": 4, "velocity": 82}, {"time": 2086, "pitch": 53, "duration": 4, "velocity": 86}, {"time": 2089, "pitch": 56, "duration": 4, "velocity": 83}, {"time": 2092, "pitch": 58, "duration": 4, "velocity": 78}, {"time": 2095, "pitch": 60, "duration": 24, "velocity": 85}, {"time": 2096, "pitch": 84, "duration": 11, "velocity": 92}, {"time": 2106, "pitch": 89, "duration": 10, "velocity": 92}, {"time": 2115, "pitch": 91, "duration": 4, "velocity": 95}, {"time": 2119, "pitch": 89, "duration": 7, "velocity": 92}, {"time": 2119, "pitch": 60, "duration": 6, "velocity": 86}, {"time": 2125, "pitch": 56, "duration": 7, "velocity": 81}, {"time": 2125, "pitch": 84, "duration": 3, "velocity": 88}, {"time": 2128, "pitch": 82, "duration": 8, "velocity": 87}, {"time": 2130, "pitch": 58, "duration": 7, "velocity": 82}, {"time": 2137, "pitch": 80, "duration": 3, "velocity": 87}, {"time": 2137, "pitch": 60, "duration": 6, "velocity": 81}, {"time": 2140, "pitch": 82, "duration": 3, "velocity": 87}, {"time": 2143, "pitch": 84, "duration": 6, "velocity": 90}, {"time": 2143, "pitch": 58, "duration": 18, "velocity": 80}, {"time": 2149, "pitch": 82, "duration": 3, "velocity": 89}, {"time": 2151, "pitch": 84, "duration": 5, "velocity": 89}, {"time": 2155, "pitch": 82, "duration": 3, "velocity": 88}, {"time": 2158, "pitch": 80, "duration": 3, "velocity": 82}, {"time": 2161, "pitch": 56, "duration": 6, "velocity": 83}, {"time": 2162, "pitch": 77, "duration": 2, "velocity": 92}, {"time": 2164, "pitch": 80, "duration": 3, "velocity": 88}, {"time": 2167, "pitch": 77, "duration": 47, "velocity": 88}, {"time": 2168, "pitch": 53, "duration": 42, "velocity": 79}, {"time": 2275, "pitch": 75, "duration": 11, "velocity": 99}, {"time": 2287, "pitch": 77, "duration": 19, "velocity": 112}, {"time": 2287, "pitch": 77, "duration": 19, "velocity": 96}, {"time": 2359, "pitch": 84, "duration": 22, "velocity": 127}, {"time": 2370, "pitch": 84, "duration": 11, "velocity": 86}, {"time": 2370, "pitch": 87, "duration": 13, "velocity": 90}, {"time": 2383, "pitch": 84, "duration": 23, "velocity": 102}, {"time": 2455, "pitch": 85, "duration": 47, "velocity": 97}, {"time": 2467, "pitch": 80, "duration": 34, "velocity": 97}, {"time": 2479, "pitch": 77, "duration": 22, "velocity": 96}, {"time": 2504, "pitch": 84, "duration": 24, "velocity": 96}, {"time": 2528, "pitch": 82, "duration": 23, "velocity": 95}, {"time": 2539, "pitch": 70, "duration": 6, "velocity": 95}, {"time": 2545, "pitch": 68, "duration": 6, "velocity": 95}, {"time": 2551, "pitch": 79, "duration": 43, "velocity": 95}, {"time": 2551, "pitch": 72, "duration": 13, "velocity": 95}, {"time": 2563, "pitch": 56, "duration": 12, "velocity": 95}, {"time": 2563, "pitch": 68, "duration": 12, "velocity": 95}, {"time": 2574, "pitch": 60, "duration": 23, "velocity": 95}, {"time": 2575, "pitch": 72, "duration": 22, "velocity": 94}, {"time": 2599, "pitch": 84, "duration": 48, "velocity": 94}, {"time": 2599, "pitch": 77, "duration": 28, "velocity": 94}, {"time": 2635, "pitch": 72, "duration": 6, "velocity": 94}, {"time": 2641, "pitch": 75, "duration": 6, "velocity": 94}, {"time": 2647, "pitch": 82, "duration": 49, "velocity": 94}, {"time": 2647, "pitch": 70, "duration": 21, "velocity": 94}, {"time": 2671, "pitch": 72, "duration": 21, "velocity": 94}, {"time": 2671, "pitch": 68, "duration": 19, "velocity": 94}, {"time": 2695, "pitch": 72, "duration": 13, "velocity": 94}, {"time": 2695, "pitch": 89, "duration": 37, "velocity": 94}, {"time": 2707, "pitch": 70, "duration": 12, "velocity": 94}, {"time": 2718, "pitch": 68, "duration": 13, "velocity": 94}, {"time": 2719, "pitch": 85, "duration": 24, "velocity": 94}, {"time": 2731, "pitch": 65, "duration": 6, "velocity": 94}, {"time": 2737, "pitch": 68, "duration": 6, "velocity": 94}, {"time": 2743, "pitch": 70, "duration": 21, "velocity": 94}, {"time": 2767, "pitch": 65, "duration": 24, "velocity": 94}, {"time": 2767, "pitch": 68, "duration": 23, "velocity": 94}, {"time": 2779, "pitch": 77, "duration": 4, "velocity": 94}, {"time": 2782, "pitch": 80, "duration": 3, "velocity": 94}, {"time": 2785, "pitch": 84, "duration": 2, "velocity": 94}, {"time": 2787, "pitch": 87, "duration": 3, "velocity": 94}, {"time": 2791, "pitch": 89, "duration": 47, "velocity": 94}, {"time": 2839, "pitch": 92, "duration": 18, "velocity": 94}, {"time": 2856, "pitch": 91, "duration": 7, "velocity": 94}, {"time": 2863, "pitch": 89, "duration": 25, "velocity": 94}, {"time": 2887, "pitch": 89, "duration": 1, "velocity": 94}, {"time": 2899, "pitch": 89, "duration": 7, "velocity": 94}, {"time": 2905, "pitch": 87, "duration": 4, "velocity": 94}, {"time": 2908, "pitch": 89, "duration": 3, "velocity": 94}, {"time": 2911, "pitch": 84, "duration": 22, "velocity": 94}, {"time": 2935, "pitch": 89, "duration": 21, "velocity": 94}, {"time": 2959, "pitch": 85, "duration": 22, "velocity": 94}, {"time": 2959, "pitch": 82, "duration": 21, "velocity": 94}, {"time": 2982, "pitch": 84, "duration": 12, "velocity": 94}, {"time": 2982, "pitch": 80, "duration": 10, "velocity": 94}, {"time": 2994, "pitch": 80, "duration": 7, "velocity": 94}, {"time": 3000, "pitch": 82, "duration": 7, "velocity": 94}, {"time": 3006, "pitch": 84, "duration": 21, "velocity": 94}, {"time": 3031, "pitch": 89, "duration": 34, "velocity": 94}, {"time": 3031, "pitch": 84, "duration": 34, "velocity": 94}, {"time": 3067, "pitch": 89, "duration": 3, "velocity": 86}, {"time": 3070, "pitch": 92, "duration": 3, "velocity": 82}, {"time": 3073, "pitch": 91, "duration": 2, "velocity": 89}, {"time": 3075, "pitch": 87, "duration": 4, "velocity": 86}, {"time": 3079, "pitch": 89, "duration": 18, "velocity": 88}, {"time": 3097, "pitch": 87, "duration": 5, "velocity": 84}, {"time": 3103, "pitch": 89, "duration": 13, "velocity": 87}, {"time": 3115, "pitch": 87, "duration": 11, "velocity": 86}, {"time": 3128, "pitch": 89, "duration": 17, "velocity": 86}, {"time": 3145, "pitch": 87, "duration": 6, "velocity": 87}, {"time": 3151, "pitch": 84, "duration": 22, "velocity": 86}, {"time": 3175, "pitch": 84, "duration": 22, "velocity": 87}, {"time": 3199, "pitch": 85, "duration": 21, "velocity": 84}, {"time": 3199, "pitch": 82, "duration": 21, "velocity": 74}, {"time": 3223, "pitch": 84, "duration": 12, "velocity": 86}, {"time": 3234, "pitch": 80, "duration": 8, "velocity": 84}, {"time": 3241, "pitch": 82, "duration": 6, "velocity": 87}, {"time": 3247, "pitch": 84, "duration": 20, "velocity": 87}, {"time": 3271, "pitch": 77, "duration": 14, "velocity": 82}, {"time": 3271, "pitch": 82, "duration": 14, "velocity": 82}, {"time": 3294, "pitch": 80, "duration": 14, "velocity": 80}, {"time": 3294, "pitch": 77, "duration": 17, "velocity": 80}, {"time": 3302, "pitch": 82, "duration": 2, "velocity": 87}, {"time": 3304, "pitch": 84, "duration": 3, "velocity": 82}, {"time": 3307, "pitch": 82, "duration": 4, "velocity": 90}, {"time": 3310, "pitch": 80, "duration": 6, "velocity": 92}, {"time": 3316, "pitch": 77, "duration": 2, "velocity": 87}, {"time": 3319, "pitch": 77, "duration": 4, "velocity": 97}, {"time": 3325, "pitch": 77, "duration": 3, "velocity": 92}, {"time": 3327, "pitch": 79, "duration": 3, "velocity": 88}, {"time": 3331, "pitch": 80, "duration": 3, "velocity": 85}, {"time": 3334, "pitch": 82, "duration": 3, "velocity": 86}, {"time": 3336, "pitch": 84, "duration": 3, "velocity": 89}, {"time": 3339, "pitch": 87, "duration": 3, "velocity": 87}, {"time": 3344, "pitch": 89, "duration": 17, "velocity": 89}, {"time": 3360, "pitch": 87, "duration": 7, "velocity": 88}, {"time": 3367, "pitch": 77, "duration": 21, "velocity": 89}, {"time": 3367, "pitch": 89, "duration": 21, "velocity": 87}, {"time": 3390, "pitch": 89, "duration": 19, "velocity": 87}, {"time": 3390, "pitch": 73, "duration": 21, "velocity": 79}, {"time": 3390, "pitch": 85, "duration": 19, "velocity": 82}, {"time": 3408, "pitch": 87, "duration": 7, "velocity": 87}, {"time": 3415, "pitch": 89, "duration": 18, "velocity": 86}, {"time": 3415, "pitch": 77, "duration": 18, "velocity": 85}, {"time": 3432, "pitch": 87, "duration": 7, "velocity": 87}, {"time": 3439, "pitch": 89, "duration": 19, "velocity": 87}, {"time": 3439, "pitch": 77, "duration": 21, "velocity": 87}, {"time": 3457, "pitch": 87, "duration": 6, "velocity": 87}, {"time": 3463, "pitch": 84, "duration": 24, "velocity": 83}, {"time": 3463, "pitch": 72, "duration": 19, "velocity": 81}, {"time": 3499, "pitch": 89, "duration": 6, "velocity": 84}, {"time": 3499, "pitch": 77, "duration": 6, "velocity": 83}, {"time": 3505, "pitch": 87, "duration": 3, "velocity": 84}, {"time": 3505, "pitch": 75, "duration": 3, "velocity": 87}, {"time": 3508, "pitch": 84, "duration": 4, "velocity": 74}, {"time": 3511, "pitch": 82, "duration": 22, "velocity": 86}, {"time": 3512, "pitch": 70, "duration": 21, "velocity": 84}, {"time": 3535, "pitch": 84, "duration": 17, "velocity": 81}, {"time": 3535, "pitch": 72, "duration": 17, "velocity": 86}, {"time": 3553, "pitch": 80, "duration": 3, "velocity": 76}, {"time": 3553, "pitch": 68, "duration": 3, "velocity": 86}, {"time": 3555, "pitch": 70, "duration": 4, "velocity": 87}, {"time": 3556, "pitch": 82, "duration": 3, "velocity": 81}, {"time": 3559, "pitch": 72, "duration": 22, "velocity": 87}, {"time": 3559, "pitch": 84, "duration": 22, "velocity": 85}, {"time": 3584, "pitch": 89, "duration": 17, "velocity": 89}, {"time": 3600, "pitch": 87, "duration": 7, "velocity": 88}, {"time": 3607, "pitch": 77, "duration": 21, "velocity": 89}, {"time": 3607, "pitch": 89, "duration": 21, "velocity": 87}, {"time": 3630, "pitch": 89, "duration": 19, "velocity": 87}, {"time": 3630, "pitch": 73, "duration": 21, "velocity": 79}, {"time": 3630, "pitch": 85, "duration": 19, "velocity": 82}, {"time": 3648, "pitch": 87, "duration": 7, "velocity": 87}, {"time": 3655, "pitch": 89, "duration": 18, "velocity": 86}, {"time": 3655, "pitch": 77, "duration": 18, "velocity": 85}, {"time": 3672, "pitch": 87, "duration": 7, "velocity": 87}, {"time": 3679, "pitch": 89, "duration": 19, "velocity": 87}, {"time": 3679, "pitch": 77, "duration": 21, "velocity": 87}, {"time": 3697, "pitch": 87, "duration": 6, "velocity": 87}, {"time": 3703, "pitch": 84, "duration": 24, "velocity": 83}, {"time": 3703, "pitch": 72, "duration": 19, "velocity": 81}, {"time": 3739, "pitch": 89, "duration": 6, "velocity": 84}, {"time": 3739, "pitch": 77, "duration": 6, "velocity": 83}, {"time": 3745, "pitch": 87, "duration": 3, "velocity": 84}, {"time": 3745, "pitch": 75, "duration": 3, "velocity": 87}, {"time": 3748, "pitch": 84, "duration": 4, "velocity": 74}, {"time": 3751, "pitch": 82, "duration": 22, "velocity": 86}, {"time": 3752, "pitch": 70, "duration": 21, "velocity": 84}, {"time": 3775, "pitch": 84, "duration": 17, "velocity": 81}, {"time": 3775, "pitch": 72, "duration": 17, "velocity": 86}, {"time": 3793, "pitch": 80, "duration": 3, "velocity": 76}, {"time": 3793, "pitch": 68, "duration": 3, "velocity": 86}, {"time": 3795, "pitch": 70, "duration": 4, "velocity": 87}, {"time": 3796, "pitch": 82, "duration": 3, "velocity": 81}, {"time": 3799, "pitch": 72, "duration": 22, "velocity": 87}, {"time": 3799, "pitch": 84, "duration": 22, "velocity": 85}, {"time": 3823, "pitch": 82, "duration": 25, "velocity": 86}, {"time": 3850, "pitch": 84, "duration": 3, "velocity": 82}, {"time": 3853, "pitch": 82, "duration": 3, "velocity": 86}, {"time": 3856, "pitch": 80, "duration": 3, "velocity": 86}, {"time": 3858, "pitch": 82, "duration": 4, "velocity": 87}, {"time": 3862, "pitch": 80, "duration": 3, "velocity": 89}, {"time": 3865, "pitch": 77, "duration": 25, "velocity": 87}, {"time": 3895, "pitch": 82, "duration": 18, "velocity": 78}, {"time": 3896, "pitch": 70, "duration": 16, "velocity": 82}, {"time": 3913, "pitch": 68, "duration": 5, "velocity": 81}, {"time": 3913, "pitch": 80, "duration": 6, "velocity": 78}, {"time": 3919, "pitch": 65, "duration": 9, "velocity": 84}, {"time": 3919, "pitch": 77, "duration": 11, "velocity": 78}, {"time": 3931, "pitch": 75, "duration": 6, "velocity": 86}, {"time": 3931, "pitch": 63, "duration": 6, "velocity": 86}, {"time": 3936, "pitch": 65, "duration": 5, "velocity": 82}, {"time": 3936, "pitch": 77, "duration": 7, "velocity": 85}, {"time": 3943, "pitch": 82, "duration": 18, "velocity": 83}, {"time": 3943, "pitch": 70, "duration": 18, "velocity": 86}, {"time": 3961, "pitch": 80, "duration": 6, "velocity": 82}, {"time": 3961, "pitch": 68, "duration": 4, "velocity": 79}, {"time": 3967, "pitch": 77, "duration": 21, "velocity": 75}, {"time": 3967, "pitch": 65, "duration": 20, "velocity": 79}, {"time": 3990, "pitch": 70, "duration": 19, "velocity": 73}, {"time": 3990, "pitch": 82, "duration": 15, "velocity": 74}, {"time": 3991, "pitch": 77, "duration": 16, "velocity": 78}, {"time": 4008, "pitch": 68, "duration": 5, "velocity": 77}, {"time": 4008, "pitch": 80, "duration": 7, "velocity": 69}, {"time": 4014, "pitch": 65, "duration": 10, "velocity": 86}, {"time": 4015, "pitch": 77, "duration": 8, "velocity": 74}, {"time": 4026, "pitch": 75, "duration": 7, "velocity": 84}, {"time": 4026, "pitch": 63, "duration": 6, "velocity": 81}, {"time": 4032, "pitch": 65, "duration": 8, "velocity": 84}, {"time": 4032, "pitch": 77, "duration": 8, "velocity": 82}, {"time": 4039, "pitch": 70, "duration": 18, "velocity": 75}, {"time": 4039, "pitch": 82, "duration": 18, "velocity": 73}, {"time": 4056, "pitch": 80, "duration": 7, "velocity": 73}, {"time": 4056, "pitch": 68, "duration": 4, "velocity": 66}, {"time": 4062, "pitch": 65, "duration": 21, "velocity": 65}, {"time": 4062, "pitch": 77, "duration": 23, "velocity": 68}, {"time": 4086, "pitch": 70, "duration": 20, "velocity": 71}, {"time": 4086, "pitch": 82, "duration": 19, "velocity": 66}, {"time": 4105, "pitch": 80, "duration": 7, "velocity": 77}, {"time": 4105, "pitch": 68, "duration": 4, "velocity": 71}, {"time": 4111, "pitch": 65, "duration": 59, "velocity": 74}, {"time": 4112, "pitch": 77, "duration": 59, "velocity": 68}]}, {"program": 0, "is_drum": false, "name": "PIANO", "notes": [{"time": 19, "pitch": 41, "duration": 23, "velocity": 88}, {"time": 26, "pitch": 48, "duration": 15, "velocity": 70}, {"time": 30, "pitch": 60, "duration": 7, "velocity": 76}, {"time": 33, "pitch": 65, "duration": 6, "velocity": 80}, {"time": 35, "pitch": 53, "duration": 4, "velocity": 76}, {"time": 38, "pitch": 60, "duration": 5, "velocity": 75}, {"time": 42, "pitch": 65, "duration": 4, "velocity": 79}, {"time": 48, "pitch": 53, "duration": 71, "velocity": 67}, {"time": 51, "pitch": 56, "duration": 3, "velocity": 64}, {"time": 53, "pitch": 60, "duration": 21, "velocity": 75}, {"time": 56, "pitch": 65, "duration": 3, "velocity": 78}, {"time": 58, "pitch": 72, "duration": 5, "velocity": 82}, {"time": 61, "pitch": 65, "duration": 2, "velocity": 86}, {"time": 63, "pitch": 77, "duration": 5, "velocity": 86}, {"time": 66, "pitch": 65, "duration": 4, "velocity": 76}, {"time": 68, "pitch": 72, "duration": 4, "velocity": 58}, {"time": 71, "pitch": 77, "duration": 3, "velocity": 75}, {"time": 74, "pitch": 60, "duration": 44, "velocity": 66}, {"time": 79, "pitch": 77, "duration": 5, "velocity": 72}, {"time": 82, "pitch": 84, "duration": 10, "velocity": 73}, {"time": 85, "pitch": 77, "duration": 6, "velocity": 73}, {"time": 90, "pitch": 89, "duration": 5, "velocity": 78}, {"time": 94, "pitch": 77, "duration": 10, "velocity": 72}, {"time": 98, "pitch": 84, "duration": 13, "velocity": 47}, {"time": 104, "pitch": 89, "duration": 7, "velocity": 44}, {"time": 109, "pitch": 77, "duration": 10, "velocity": 61}, {"time": 115, "pitch": 84, "duration": 11, "velocity": 45}, {"time": 120, "pitch": 89, "duration": 5, "velocity": 45}, {"time": 128, "pitch": 41, "duration": 1, "velocity": 73}, {"time": 134, "pitch": 53, "duration": 96, "velocity": 77}, {"time": 137, "pitch": 60, "duration": 73, "velocity": 72}, {"time": 140, "pitch": 65, "duration": 4, "velocity": 77}, {"time": 143, "pitch": 67, "duration": 3, "velocity": 57}, {"time": 164, "pitch": 70, "duration": 5, "velocity": 75}, {"time": 167, "pitch": 72, "duration": 4, "velocity": 81}, {"time": 171, "pitch": 75, "duration": 2, "velocity": 86}, {"time": 176, "pitch": 77, "duration": 7, "velocity": 82}, {"time": 188, "pitch": 79, "duration": 8, "velocity": 69}, {"time": 194, "pitch": 77, "duration": 4, "velocity": 72}, {"time": 198, "pitch": 75, "duration": 4, "velocity": 59}, {"time": 203, "pitch": 77, "duration": 3, "velocity": 58}, {"time": 214, "pitch": 56, "duration": 14, "velocity": 54}, {"time": 217, "pitch": 60, "duration": 12, "velocity": 61}, {"time": 218, "pitch": 65, "duration": 33, "velocity": 67}, {"time": 220, "pitch": 68, "duration": 31, "velocity": 58}, {"time": 220, "pitch": 72, "duration": 31, "velocity": 69}, {"time": 223, "pitch": 77, "duration": 28, "velocity": 81}, {"time": 253, "pitch": 41, "duration": 19, "velocity": 84}, {"time": 257, "pitch": 48, "duration": 14, "velocity": 60}, {"time": 260, "pitch": 53, "duration": 11, "velocity": 63}, {"time": 283, "pitch": 60, "duration": 6, "velocity": 59}, {"time": 284, "pitch": 65, "duration": 6, "velocity": 76}, {"time": 299, "pitch": 53, "duration": 42, "velocity": 77}, {"time": 301, "pitch": 60, "duration": 1, "velocity": 71}, {"time": 302, "pitch": 65, "duration": 1, "velocity": 84}, {"time": 303, "pitch": 72, "duration": 2, "velocity": 84}, {"time": 309, "pitch": 72, "duration": 2, "velocity": 72}, {"time": 309, "pitch": 77, "duration": 3, "velocity": 78}, {"time": 314, "pitch": 72, "duration": 2, "velocity": 72}, {"time": 314, "pitch": 80, "duration": 3, "velocity": 80}, {"time": 322, "pitch": 72, "duration": 2, "velocity": 57}, {"time": 323, "pitch": 77, "duration": 1, "velocity": 80}, {"time": 324, "pitch": 84, "duration": 1, "velocity": 85}, {"time": 359, "pitch": 41, "duration": 43, "velocity": 56}, {"time": 363, "pitch": 48, "duration": 38, "velocity": 62}, {"time": 367, "pitch": 53, "duration": 4, "velocity": 78}, {"time": 370, "pitch": 60, "duration": 6, "velocity": 78}, {"time": 372, "pitch": 53, "duration": 4, "velocity": 79}, {"time": 375, "pitch": 56, "duration": 3, "velocity": 74}, {"time": 378, "pitch": 53, "duration": 3, "velocity": 80}, {"time": 381, "pitch": 65, "duration": 10, "velocity": 84}, {"time": 384, "pitch": 53, "duration": 4, "velocity": 76}, {"time": 387, "pitch": 56, "duration": 5, "velocity": 68}, {"time": 390, "pitch": 53, "duration": 5, "velocity": 73}, {"time": 395, "pitch": 65, "duration": 9, "velocity": 41}, {"time": 398, "pitch": 53, "duration": 7, "velocity": 62}, {"time": 406, "pitch": 41, "duration": 29, "velocity": 30}, {"time": 411, "pitch": 48, "duration": 23, "velocity": 48}, {"time": 416, "pitch": 53, "duration": 13, "velocity": 61}, {"time": 423, "pitch": 60, "duration": 10, "velocity": 70}, {"time": 428, "pitch": 56, "duration": 4, "velocity": 76}, {"time": 433, "pitch": 65, "duration": 1, "velocity": 87}, {"time": 438, "pitch": 60, "duration": 10, "velocity": 78}, {"time": 442, "pitch": 65, "duration": 9, "velocity": 82}, {"time": 448, "pitch": 53, "duration": 35, "velocity": 68}, {"time": 453, "pitch": 60, "duration": 29, "velocity": 67}, {"time": 458, "pitch": 65, "duration": 19, "velocity": 74}, {"time": 462, "pitch": 72, "duration": 24, "velocity": 80}, {"time": 468, "pitch": 68, "duration": 18, "velocity": 71}, {"time": 474, "pitch": 77, "duration": 11, "velocity": 64}, {"time": 480, "pitch": 65, "duration": 7, "velocity": 73}, {"time": 489, "pitch": 46, "duration": 93, "velocity": 68}, {"time": 492, "pitch": 53, "duration": 23, "velocity": 65}, {"time": 495, "pitch": 58, "duration": 37, "velocity": 62}, {"time": 497, "pitch": 61, "duration": 37, "velocity": 65}, {"time": 499, "pitch": 65, "duration": 37, "velocity": 60}, {"time": 504, "pitch": 70, "duration": 32, "velocity": 34}, {"time": 530, "pitch": 53, "duration": 52, "velocity": 71}, {"time": 534, "pitch": 58, "duration": 18, "velocity": 60}, {"time": 539, "pitch": 65, "duration": 43, "velocity": 66}, {"time": 544, "pitch": 61, "duration": 38, "velocity": 75}, {"time": 549, "pitch": 70, "duration": 33, "velocity": 67}, {"time": 555, "pitch": 58, "duration": 27, "velocity": 69}, {"time": 583, "pitch": 41, "duration": 23, "velocity": 86}, {"time": 586, "pitch": 48, "duration": 19, "velocity": 71}, {"time": 589, "pitch": 53, "duration": 10, "velocity": 78}, {"time": 592, "pitch": 56, "duration": 7, "velocity": 81}, {"time": 598, "pitch": 60, "duration": 5, "velocity": 80}, {"time": 601, "pitch": 56, "duration": 4, "velocity": 81}, {"time": 604, "pitch": 53, "duration": 4, "velocity": 80}, {"time": 607, "pitch": 41, "duration": 21, "velocity": 87}, {"time": 607, "pitch": 56, "duration": 2, "velocity": 64}, {"time": 607, "pitch": 60, "duration": 1, "velocity": 56}, {"time": 607, "pitch": 65, "duration": 4, "velocity": 83}, {"time": 610, "pitch": 48, "duration": 17, "velocity": 75}, {"time": 613, "pitch": 68, "duration": 2, "velocity": 80}, {"time": 616, "pitch": 63, "duration": 3, "velocity": 77}, {"time": 622, "pitch": 65, "duration": 1, "velocity": 86}, {"time": 631, "pitch": 41, "duration": 22, "velocity": 87}, {"time": 634, "pitch": 48, "duration": 18, "velocity": 70}, {"time": 637, "pitch": 53, "duration": 8, "velocity": 80}, {"time": 640, "pitch": 60, "duration": 9, "velocity": 81}, {"time": 646, "pitch": 65, "duration": 6, "velocity": 87}, {"time": 649, "pitch": 53, "duration": 4, "velocity": 82}, {"time": 652, "pitch": 60, "duration": 4, "velocity": 77}, {"time": 655, "pitch": 41, "duration": 25, "velocity": 87}, {"time": 658, "pitch": 48, "duration": 21, "velocity": 74}, {"time": 661, "pitch": 68, "duration": 2, "velocity": 81}, {"time": 664, "pitch": 63, "duration": 3, "velocity": 79}, {"time": 670, "pitch": 65, "duration": 2, "velocity": 78}, {"time": 673, "pitch": 60, "duration": 6, "velocity": 72}, {"time": 678, "pitch": 53, "duration": 8, "velocity": 79}, {"time": 679, "pitch": 56, "duration": 7, "velocity": 75}, {"time": 679, "pitch": 41, "duration": 1, "velocity": 88}, {"time": 679, "pitch": 60, "duration": 8, "velocity": 72}, {"time": 684, "pitch": 48, "duration": 39, "velocity": 67}, {"time": 691, "pitch": 60, "duration": 8, "velocity": 80}, {"time": 700, "pitch": 53, "duration": 2, "velocity": 71}, {"time": 701, "pitch": 56, "duration": 2, "velocity": 73}, {"time": 702, "pitch": 60, "duration": 2, "velocity": 79}, {"time": 703, "pitch": 65, "duration": 4, "velocity": 88}, {"time": 715, "pitch": 60, "duration": 7, "velocity": 80}, {"time": 726, "pitch": 53, "duration": 4, "velocity": 73}, {"time": 727, "pitch": 60, "duration": 13, "velocity": 78}, {"time": 727, "pitch": 41, "duration": 22, "velocity": 87}, {"time": 727, "pitch": 65, "duration": 13, "velocity": 79}, {"time": 733, "pitch": 48, "duration": 16, "velocity": 70}, {"time": 738, "pitch": 53, "duration": 8, "velocity": 84}, {"time": 745, "pitch": 56, "duration": 7, "velocity": 69}, {"time": 751, "pitch": 53, "duration": 12, "velocity": 82}, {"time": 751, "pitch": 41, "duration": 21, "velocity": 81}, {"time": 757, "pitch": 48, "duration": 13, "velocity": 63}, {"time": 762, "pitch": 60, "duration": 3, "velocity": 76}, {"time": 763, "pitch": 56, "duration": 2, "velocity": 74}, {"time": 773, "pitch": 53, "duration": 2, "velocity": 70}, {"time": 773, "pitch": 56, "duration": 3, "velocity": 77}, {"time": 774, "pitch": 60, "duration": 8, "velocity": 73}, {"time": 774, "pitch": 41, "duration": 14, "velocity": 86}, {"time": 775, "pitch": 65, "duration": 13, "velocity": 87}, {"time": 780, "pitch": 48, "duration": 8, "velocity": 66}, {"time": 787, "pitch": 53, "duration": 1, "velocity": 78}, {"time": 797, "pitch": 58, "duration": 8, "velocity": 62}, {"time": 798, "pitch": 61, "duration": 12, "velocity": 74}, {"time": 798, "pitch": 46, "duration": 15, "velocity": 84}, {"time": 804, "pitch": 53, "duration": 9, "velocity": 73}, {"time": 810, "pitch": 58, "duration": 1, "velocity": 81}, {"time": 821, "pitch": 60, "duration": 6, "velocity": 66}, {"time": 822, "pitch": 63, "duration": 13, "velocity": 77}, {"time": 822, "pitch": 48, "duration": 40, "velocity": 87}, {"time": 823, "pitch": 67, "duration": 13, "velocity": 76}, {"time": 828, "pitch": 55, "duration": 25, "velocity": 67}, {"time": 834, "pitch": 60, "duration": 8, "velocity": 88}, {"time": 840, "pitch": 67, "duration": 8, "velocity": 87}, {"time": 847, "pitch": 63, "duration": 12, "velocity": 81}, {"time": 853, "pitch": 60, "duration": 9, "velocity": 73}, {"time": 859, "pitch": 55, "duration": 2, "velocity": 68}, {"time": 869, "pitch": 60, "duration": 10, "velocity": 74}, {"time": 871, "pitch": 41, "duration": 43, "velocity": 88}, {"time": 871, "pitch": 65, "duration": 12, "velocity": 82}, {"time": 877, "pitch": 48, "duration": 37, "velocity": 68}, {"time": 883, "pitch": 60, "duration": 9, "velocity": 90}, {"time": 889, "pitch": 65, "duration": 7, "velocity": 90}, {"time": 895, "pitch": 68, "duration": 7, "velocity": 87}, {"time": 901, "pitch": 65, "duration": 4, "velocity": 78}, {"time": 907, "pitch": 63, "duration": 9, "velocity": 90}, {"time": 918, "pitch": 61, "duration": 8, "velocity": 71}, {"time": 919, "pitch": 65, "duration": 18, "velocity": 84}, {"time": 919, "pitch": 49, "duration": 37, "velocity": 87}, {"time": 924, "pitch": 56, "duration": 30, "velocity": 74}, {"time": 931, "pitch": 61, "duration": 7, "velocity": 87}, {"time": 937, "pitch": 68, "duration": 6, "velocity": 84}, {"time": 943, "pitch": 65, "duration": 6, "velocity": 87}, {"time": 948, "pitch": 63, "duration": 6, "velocity": 83}, {"time": 954, "pitch": 60, "duration": 6, "velocity": 75}, {"time": 960, "pitch": 58, "duration": 2, "velocity": 77}, {"time": 966, "pitch": 44, "duration": 18, "velocity": 86}, {"time": 966, "pitch": 60, "duration": 13, "velocity": 79}, {"time": 966, "pitch": 56, "duration": 8, "velocity": 74}, {"time": 972, "pitch": 51, "duration": 12, "velocity": 76}, {"time": 978, "pitch": 56, "duration": 5, "velocity": 87}, {"time": 989, "pitch": 58, "duration": 10, "velocity": 72}, {"time": 990, "pitch": 61, "duration": 12, "velocity": 81}, {"time": 990, "pitch": 46, "duration": 16, "velocity": 87}, {"time": 996, "pitch": 53, "duration": 10, "velocity": 79}, {"time": 1002, "pitch": 58, "duration": 2, "velocity": 87}, {"time": 1014, "pitch": 60, "duration": 8, "velocity": 74}, {"time": 1014, "pitch": 63, "duration": 13, "velocity": 86}, {"time": 1015, "pitch": 48, "duration": 40, "velocity": 87}, {"time": 1015, "pitch": 67, "duration": 21, "velocity": 69}, {"time": 1020, "pitch": 55, "duration": 33, "velocity": 76}, {"time": 1026, "pitch": 60, "duration": 8, "velocity": 88}, {"time": 1032, "pitch": 63, "duration": 3, "velocity": 88}, {"time": 1036, "pitch": 60, "duration": 3, "velocity": 77}, {"time": 1038, "pitch": 63, "duration": 1, "velocity": 81}, {"time": 1038, "pitch": 67, "duration": 1, "velocity": 57}, {"time": 1039, "pitch": 72, "duration": 6, "velocity": 88}, {"time": 1044, "pitch": 70, "duration": 5, "velocity": 89}, {"time": 1051, "pitch": 67, "duration": 5, "velocity": 88}, {"time": 1063, "pitch": 68, "duration": 5, "velocity": 80}, {"time": 1063, "pitch": 65, "duration": 4, "velocity": 86}, {"time": 1063, "pitch": 41, "duration": 14, "velocity": 89}, {"time": 1069, "pitch": 48, "duration": 8, "velocity": 79}, {"time": 1075, "pitch": 53, "duration": 3, "velocity": 87}, {"time": 1075, "pitch": 60, "duration": 4, "velocity": 87}, {"time": 1075, "pitch": 56, "duration": 3, "velocity": 87}, {"time": 1086, "pitch": 60, "duration": 9, "velocity": 77}, {"time": 1086, "pitch": 63, "duration": 10, "velocity": 82}, {"time": 1086, "pitch": 48, "duration": 17, "velocity": 87}, {"time": 1087, "pitch": 67, "duration": 12, "velocity": 76}, {"time": 1092, "pitch": 55, "duration": 9, "velocity": 75}, {"time": 1098, "pitch": 60, "duration": 4, "velocity": 90}, {"time": 1109, "pitch": 58, "duration": 3, "velocity": 76}, {"time": 1110, "pitch": 61, "duration": 12, "velocity": 75}, {"time": 1111, "pitch": 46, "duration": 16, "velocity": 86}, {"time": 1111, "pitch": 65, "duration": 12, "velocity": 83}, {"time": 1116, "pitch": 53, "duration": 9, "velocity": 78}, {"time": 1122, "pitch": 58, "duration": 8, "velocity": 91}, {"time": 1128, "pitch": 61, "duration": 2, "velocity": 87}, {"time": 1134, "pitch": 44, "duration": 16, "velocity": 86}, {"time": 1134, "pitch": 60, "duration": 10, "velocity": 84}, {"time": 1135, "pitch": 56, "duration": 9, "velocity": 82}, {"time": 1140, "pitch": 51, "duration": 10, "velocity": 77}, {"time": 1146, "pitch": 56, "duration": 4, "velocity": 86}, {"time": 1146, "pitch": 63, "duration": 4, "velocity": 84}, {"time": 1146, "pitch": 60, "duration": 4, "velocity": 87}, {"time": 1158, "pitch": 60, "duration": 13, "velocity": 81}, {"time": 1158, "pitch": 56, "duration": 9, "velocity": 80}, {"time": 1158, "pitch": 65, "duration": 13, "velocity": 87}, {"time": 1158, "pitch": 41, "duration": 15, "velocity": 87}, {"time": 1164, "pitch": 48, "duration": 9, "velocity": 73}, {"time": 1170, "pitch": 56, "duration": 7, "velocity": 90}, {"time": 1176, "pitch": 60, "duration": 2, "velocity": 87}, {"time": 1182, "pitch": 49, "duration": 14, "velocity": 87}, {"time": 1182, "pitch": 61, "duration": 9, "velocity": 80}, {"time": 1182, "pitch": 56, "duration": 4, "velocity": 82}, {"time": 1188, "pitch": 56, "duration": 9, "velocity": 84}, {"time": 1194, "pitch": 61, "duration": 3, "velocity": 86}, {"time": 1195, "pitch": 65, "duration": 3, "velocity": 86}, {"time": 1205, "pitch": 58, "duration": 17, "velocity": 70}, {"time": 1205, "pitch": 62, "duration": 17, "velocity": 73}, {"time": 1207, "pitch": 65, "duration": 16, "velocity": 80}, {"time": 1207, "pitch": 46, "duration": 17, "velocity": 87}, {"time": 1207, "pitch": 70, "duration": 16, "velocity": 82}, {"time": 1230, "pitch": 60, "duration": 13, "velocity": 70}, {"time": 1231, "pitch": 65, "duration": 13, "velocity": 80}, {"time": 1231, "pitch": 41, "duration": 20, "velocity": 88}, {"time": 1237, "pitch": 48, "duration": 13, "velocity": 74}, {"time": 1243, "pitch": 68, "duration": 6, "velocity": 85}, {"time": 1249, "pitch": 60, "duration": 3, "velocity": 95}, {"time": 1254, "pitch": 60, "duration": 3, "velocity": 87}, {"time": 1254, "pitch": 65, "duration": 4, "velocity": 91}, {"time": 1254, "pitch": 41, "duration": 11, "velocity": 97}, {"time": 1260, "pitch": 65, "duration": 1, "velocity": 63}, {"time": 1260, "pitch": 60, "duration": 2, "velocity": 78}, {"time": 1267, "pitch": 60, "duration": 2, "velocity": 91}, {"time": 1267, "pitch": 68, "duration": 6, "velocity": 88}, {"time": 1267, "pitch": 65, "duration": 3, "velocity": 103}, {"time": 1272, "pitch": 60, "duration": 5, "velocity": 86}, {"time": 1275, "pitch": 65, "duration": 2, "velocity": 86}, {"time": 1278, "pitch": 68, "duration": 7, "velocity": 86}, {"time": 1279, "pitch": 53, "duration": 13, "velocity": 97}, {"time": 1279, "pitch": 60, "duration": 2, "velocity": 86}, {"time": 1279, "pitch": 65, "duration": 6, "velocity": 88}, {"time": 1284, "pitch": 60, "duration": 3, "velocity": 84}, {"time": 1291, "pitch": 60, "duration": 2, "velocity": 89}, {"time": 1291, "pitch": 68, "duration": 4, "velocity": 89}, {"time": 1291, "pitch": 65, "duration": 3, "velocity": 100}, {"time": 1293, "pitch": 53, "duration": 2, "velocity": 90}, {"time": 1297, "pitch": 60, "duration": 3, "velocity": 93}, {"time": 1297, "pitch": 68, "duration": 1, "velocity": 58}, {"time": 1300, "pitch": 65, "duration": 2, "velocity": 83}, {"time": 1303, "pitch": 61, "duration": 3, "velocity": 80}, {"time": 1303, "pitch": 49, "duration": 16, "velocity": 89}, {"time": 1303, "pitch": 65, "duration": 4, "velocity": 88}, {"time": 1306, "pitch": 56, "duration": 10, "velocity": 80}, {"time": 1309, "pitch": 61, "duration": 3, "velocity": 88}, {"time": 1312, "pitch": 65, "duration": 1, "velocity": 87}, {"time": 1315, "pitch": 65, "duration": 5, "velocity": 100}, {"time": 1315, "pitch": 68, "duration": 5, "velocity": 90}, {"time": 1315, "pitch": 61, "duration": 3, "velocity": 87}, {"time": 1317, "pitch": 56, "duration": 3, "velocity": 85}, {"time": 1321, "pitch": 49, "duration": 1, "velocity": 88}, {"time": 1327, "pitch": 65, "duration": 6, "velocity": 86}, {"time": 1327, "pitch": 60, "duration": 2, "velocity": 86}, {"time": 1327, "pitch": 41, "duration": 21, "velocity": 88}, {"time": 1330, "pitch": 48, "duration": 16, "velocity": 83}, {"time": 1333, "pitch": 60, "duration": 4, "velocity": 84}, {"time": 1336, "pitch": 65, "duration": 1, "velocity": 86}, {"time": 1339, "pitch": 69, "duration": 3, "velocity": 100}, {"time": 1342, "pitch": 65, "duration": 2, "velocity": 88}, {"time": 1345, "pitch": 60, "duration": 4, "velocity": 87}, {"time": 1351, "pitch": 65, "duration": 8, "velocity": 88}, {"time": 1351, "pitch": 60, "duration": 5, "velocity": 87}, {"time": 1351, "pitch": 41, "duration": 15, "velocity": 91}, {"time": 1356, "pitch": 48, "duration": 7, "velocity": 78}, {"time": 1362, "pitch": 69, "duration": 7, "velocity": 88}, {"time": 1363, "pitch": 65, "duration": 3, "velocity": 93}, {"time": 1363, "pitch": 60, "duration": 2, "velocity": 88}, {"time": 1365, "pitch": 48, "duration": 2, "velocity": 87}, {"time": 1368, "pitch": 60, "duration": 2, "velocity": 91}, {"time": 1375, "pitch": 48, "duration": 17, "velocity": 88}, {"time": 1375, "pitch": 60, "duration": 6, "velocity": 88}, {"time": 1375, "pitch": 63, "duration": 7, "velocity": 87}, {"time": 1381, "pitch": 55, "duration": 7, "velocity": 80}, {"time": 1384, "pitch": 60, "duration": 2, "velocity": 87}, {"time": 1387, "pitch": 67, "duration": 6, "velocity": 90}, {"time": 1389, "pitch": 55, "duration": 3, "velocity": 82}, {"time": 1393, "pitch": 63, "duration": 4, "velocity": 82}, {"time": 1399, "pitch": 41, "duration": 18, "velocity": 90}, {"time": 1399, "pitch": 65, "duration": 9, "velocity": 86}, {"time": 1399, "pitch": 60, "duration": 4, "velocity": 85}, {"time": 1404, "pitch": 48, "duration": 9, "velocity": 30}, {"time": 1410, "pitch": 60, "duration": 5, "velocity": 87}, {"time": 1410, "pitch": 65, "duration": 7, "velocity": 91}, {"time": 1411, "pitch": 68, "duration": 6, "velocity": 86}, {"time": 1416, "pitch": 48, "duration": 1, "velocity": 92}, {"time": 1422, "pitch": 61, "duration": 6, "velocity": 82}, {"time": 1422, "pitch": 58, "duration": 4, "velocity": 79}, {"time": 1422, "pitch": 46, "duration": 20, "velocity": 86}, {"time": 1425, "pitch": 53, "duration": 11, "velocity": 79}, {"time": 1428, "pitch": 58, "duration": 4, "velocity": 81}, {"time": 1431, "pitch": 61, "duration": 2, "velocity": 85}, {"time": 1434, "pitch": 65, "duration": 6, "velocity": 88}, {"time": 1437, "pitch": 61, "duration": 3, "velocity": 86}, {"time": 1440, "pitch": 58, "duration": 2, "velocity": 82}, {"time": 1447, "pitch": 56, "duration": 3, "velocity": 82}, {"time": 1447, "pitch": 60, "duration": 5, "velocity": 82}, {"time": 1447, "pitch": 44, "duration": 18, "velocity": 87}, {"time": 1450, "pitch": 51, "duration": 15, "velocity": 77}, {"time": 1452, "pitch": 56, "duration": 5, "velocity": 87}, {"time": 1455, "pitch": 63, "duration": 3, "velocity": 83}, {"time": 1458, "pitch": 68, "duration": 4, "velocity": 87}, {"time": 1461, "pitch": 63, "duration": 4, "velocity": 87}, {"time": 1464, "pitch": 60, "duration": 4, "velocity": 82}, {"time": 1467, "pitch": 56, "duration": 1, "velocity": 86}, {"time": 1470, "pitch": 48, "duration": 16, "velocity": 88}, {"time": 1470, "pitch": 60, "duration": 4, "velocity": 85}, {"time": 1470, "pitch": 63, "duration": 7, "velocity": 86}, {"time": 1477, "pitch": 55, "duration": 6, "velocity": 85}, {"time": 1479, "pitch": 60, "duration": 2, "velocity": 87}, {"time": 1482, "pitch": 63, "duration": 5, "velocity": 93}, {"time": 1482, "pitch": 67, "duration": 6, "velocity": 91}, {"time": 1483, "pitch": 60, "duration": 3, "velocity": 91}, {"time": 1485, "pitch": 55, "duration": 2, "velocity": 92}, {"time": 1489, "pitch": 48, "duration": 1, "velocity": 88}, {"time": 1495, "pitch": 41, "duration": 22, "velocity": 92}, {"time": 1495, "pitch": 65, "duration": 2, "velocity": 88}, {"time": 1495, "pitch": 60, "duration": 2, "velocity": 87}, {"time": 1498, "pitch": 48, "duration": 19, "velocity": 85}, {"time": 1501, "pitch": 53, "duration": 4, "velocity": 88}, {"time": 1504, "pitch": 56, "duration": 1, "velocity": 86}, {"time": 1507, "pitch": 60, "duration": 4, "velocity": 85}, {"time": 1510, "pitch": 56, "duration": 2, "velocity": 88}, {"time": 1512, "pitch": 53, "duration": 5, "velocity": 95}, {"time": 1515, "pitch": 56, "duration": 4, "velocity": 87}, {"time": 1518, "pitch": 65, "duration": 11, "velocity": 92}, {"time": 1518, "pitch": 41, "duration": 19, "velocity": 88}, {"time": 1521, "pitch": 48, "duration": 11, "velocity": 87}, {"time": 1524, "pitch": 60, "duration": 5, "velocity": 84}, {"time": 1528, "pitch": 53, "duration": 4, "velocity": 90}, {"time": 1531, "pitch": 56, "duration": 3, "velocity": 89}, {"time": 1533, "pitch": 53, "duration": 3, "velocity": 92}, {"time": 1537, "pitch": 48, "duration": 1, "velocity": 92}, {"time": 1542, "pitch": 56, "duration": 2, "velocity": 80}, {"time": 1543, "pitch": 65, "duration": 5, "velocity": 87}, {"time": 1543, "pitch": 49, "duration": 18, "velocity": 92}, {"time": 1546, "pitch": 56, "duration": 3, "velocity": 83}, {"time": 1548, "pitch": 61, "duration": 4, "velocity": 85}, {"time": 1551, "pitch": 65, "duration": 4, "velocity": 89}, {"time": 1555, "pitch": 61, "duration": 2, "velocity": 91}, {"time": 1557, "pitch": 56, "duration": 4, "velocity": 89}, {"time": 1561, "pitch": 61, "duration": 1, "velocity": 87}, {"time": 1567, "pitch": 41, "duration": 18, "velocity": 92}, {"time": 1567, "pitch": 65, "duration": 4, "velocity": 87}, {"time": 1567, "pitch": 60, "duration": 4, "velocity": 84}, {"time": 1573, "pitch": 48, "duration": 8, "velocity": 82}, {"time": 1579, "pitch": 60, "duration": 3, "velocity": 84}, {"time": 1579, "pitch": 65, "duration": 6, "velocity": 87}, {"time": 1579, "pitch": 69, "duration": 9, "velocity": 88}, {"time": 1584, "pitch": 60, "duration": 4, "velocity": 81}, {"time": 1591, "pitch": 41, "duration": 12, "velocity": 84}, {"time": 1591, "pitch": 60, "duration": 3, "velocity": 86}, {"time": 1591, "pitch": 69, "duration": 7, "velocity": 86}, {"time": 1591, "pitch": 65, "duration": 7, "velocity": 88}, {"time": 1596, "pitch": 60, "duration": 3, "velocity": 86}, {"time": 1602, "pitch": 69, "duration": 3, "velocity": 78}, {"time": 1602, "pitch": 60, "duration": 3, "velocity": 85}, {"time": 1602, "pitch": 65, "duration": 3, "velocity": 86}, {"time": 1613, "pitch": 60, "duration": 3, "velocity": 73}, {"time": 1614, "pitch": 63, "duration": 5, "velocity": 76}, {"time": 1614, "pitch": 48, "duration": 17, "velocity": 87}, {"time": 1615, "pitch": 67, "duration": 4, "velocity": 75}, {"time": 1618, "pitch": 55, "duration": 11, "velocity": 73}, {"time": 1621, "pitch": 60, "duration": 7, "velocity": 87}, {"time": 1624, "pitch": 63, "duration": 5, "velocity": 81}, {"time": 1627, "pitch": 72, "duration": 4, "velocity": 86}, {"time": 1639, "pitch": 41, "duration": 18, "velocity": 91}, {"time": 1642, "pitch": 48, "duration": 14, "velocity": 78}, {"time": 1644, "pitch": 53, "duration": 3, "velocity": 87}, {"time": 1647, "pitch": 55, "duration": 2, "velocity": 87}, {"time": 1650, "pitch": 56, "duration": 5, "velocity": 87}, {"time": 1653, "pitch": 60, "duration": 4, "velocity": 87}, {"time": 1656, "pitch": 65, "duration": 8, "velocity": 86}, {"time": 1660, "pitch": 56, "duration": 2, "velocity": 86}, {"time": 1663, "pitch": 46, "duration": 21, "velocity": 87}, {"time": 1665, "pitch": 53, "duration": 19, "velocity": 79}, {"time": 1668, "pitch": 58, "duration": 4, "velocity": 82}, {"time": 1671, "pitch": 61, "duration": 2, "velocity": 79}, {"time": 1675, "pitch": 61, "duration": 8, "velocity": 87}, {"time": 1675, "pitch": 65, "duration": 8, "velocity": 88}, {"time": 1675, "pitch": 58, "duration": 8, "velocity": 85}, {"time": 1687, "pitch": 56, "duration": 4, "velocity": 79}, {"time": 1687, "pitch": 60, "duration": 7, "velocity": 80}, {"time": 1687, "pitch": 44, "duration": 21, "velocity": 86}, {"time": 1692, "pitch": 51, "duration": 9, "velocity": 79}, {"time": 1699, "pitch": 60, "duration": 5, "velocity": 87}, {"time": 1699, "pitch": 63, "duration": 6, "velocity": 83}, {"time": 1699, "pitch": 56, "duration": 5, "velocity": 85}, {"time": 1705, "pitch": 51, "duration": 4, "velocity": 75}, {"time": 1710, "pitch": 60, "duration": 9, "velocity": 75}, {"time": 1710, "pitch": 48, "duration": 15, "velocity": 87}, {"time": 1710, "pitch": 63, "duration": 10, "velocity": 81}, {"time": 1711, "pitch": 67, "duration": 12, "velocity": 81}, {"time": 1716, "pitch": 55, "duration": 8, "velocity": 67}, {"time": 1723, "pitch": 60, "duration": 2, "velocity": 80}, {"time": 1733, "pitch": 58, "duration": 17, "velocity": 74}, {"time": 1733, "pitch": 62, "duration": 15, "velocity": 73}, {"time": 1734, "pitch": 65, "duration": 16, "velocity": 79}, {"time": 1734, "pitch": 46, "duration": 16, "velocity": 89}, {"time": 1735, "pitch": 70, "duration": 13, "velocity": 86}, {"time": 1758, "pitch": 60, "duration": 6, "velocity": 79}, {"time": 1758, "pitch": 65, "duration": 7, "velocity": 86}, {"time": 1759, "pitch": 41, "duration": 1, "velocity": 88}, {"time": 1765, "pitch": 53, "duration": 15, "velocity": 87}, {"time": 1768, "pitch": 60, "duration": 4, "velocity": 87}, {"time": 1771, "pitch": 65, "duration": 3, "velocity": 97}, {"time": 1774, "pitch": 60, "duration": 5, "velocity": 92}, {"time": 1777, "pitch": 68, "duration": 3, "velocity": 87}, {"time": 1777, "pitch": 65, "duration": 1, "velocity": 88}, {"time": 1780, "pitch": 65, "duration": 2, "velocity": 90}, {"time": 1783, "pitch": 53, "duration": 15, "velocity": 91}, {"time": 1783, "pitch": 68, "duration": 6, "velocity": 87}, {"time": 1783, "pitch": 65, "duration": 6, "velocity": 89}, {"time": 1789, "pitch": 60, "duration": 8, "velocity": 86}, {"time": 1792, "pitch": 72, "duration": 1, "velocity": 77}, {"time": 1792, "pitch": 68, "duration": 1, "velocity": 75}, {"time": 1792, "pitch": 65, "duration": 1, "velocity": 74}, {"time": 1795, "pitch": 68, "duration": 4, "velocity": 91}, {"time": 1795, "pitch": 65, "duration": 2, "velocity": 91}, {"time": 1795, "pitch": 72, "duration": 4, "velocity": 90}, {"time": 1798, "pitch": 60, "duration": 1, "velocity": 87}, {"time": 1801, "pitch": 65, "duration": 2, "velocity": 93}, {"time": 1807, "pitch": 68, "duration": 3, "velocity": 83}, {"time": 1807, "pitch": 41, "duration": 20, "velocity": 91}, {"time": 1807, "pitch": 65, "duration": 3, "velocity": 88}, {"time": 1813, "pitch": 48, "duration": 6, "velocity": 74}, {"time": 1819, "pitch": 56, "duration": 3, "velocity": 87}, {"time": 1819, "pitch": 53, "duration": 3, "velocity": 90}, {"time": 1819, "pitch": 60, "duration": 3, "velocity": 90}, {"time": 1822, "pitch": 48, "duration": 5, "velocity": 87}, {"time": 1825, "pitch": 53, "duration": 7, "velocity": 87}, {"time": 1828, "pitch": 56, "duration": 7, "velocity": 86}, {"time": 1831, "pitch": 41, "duration": 15, "velocity": 90}, {"time": 1833, "pitch": 48, "duration": 13, "velocity": 79}, {"time": 1836, "pitch": 53, "duration": 9, "velocity": 87}, {"time": 1839, "pitch": 56, "duration": 5, "velocity": 88}, {"time": 1842, "pitch": 65, "duration": 7, "velocity": 91}, {"time": 1845, "pitch": 60, "duration": 4, "velocity": 87}, {"time": 1849, "pitch": 56, "duration": 1, "velocity": 87}, {"time": 1855, "pitch": 48, "duration": 19, "velocity": 88}, {"time": 1855, "pitch": 63, "duration": 4, "velocity": 90}, {"time": 1855, "pitch": 60, "duration": 2, "velocity": 87}, {"time": 1859, "pitch": 60, "duration": 6, "velocity": 87}, {"time": 1861, "pitch": 63, "duration": 3, "velocity": 88}, {"time": 1864, "pitch": 67, "duration": 8, "velocity": 88}, {"time": 1867, "pitch": 55, "duration": 6, "velocity": 88}, {"time": 1869, "pitch": 60, "duration": 4, "velocity": 87}, {"time": 1872, "pitch": 63, "duration": 4, "velocity": 84}, {"time": 1875, "pitch": 67, "duration": 3, "velocity": 87}, {"time": 1878, "pitch": 41, "duration": 18, "velocity": 88}, {"time": 1878, "pitch": 65, "duration": 6, "velocity": 87}, {"time": 1881, "pitch": 48, "duration": 14, "velocity": 90}, {"time": 1884, "pitch": 60, "duration": 5, "velocity": 90}, {"time": 1887, "pitch": 65, "duration": 3, "velocity": 87}, {"time": 1890, "pitch": 68, "duration": 4, "velocity": 90}, {"time": 1893, "pitch": 65, "duration": 3, "velocity": 90}, {"time": 1896, "pitch": 60, "duration": 2, "velocity": 91}, {"time": 1902, "pitch": 48, "duration": 16, "velocity": 88}, {"time": 1903, "pitch": 63, "duration": 5, "velocity": 86}, {"time": 1903, "pitch": 60, "duration": 3, "velocity": 82}, {"time": 1905, "pitch": 55, "duration": 11, "velocity": 79}, {"time": 1908, "pitch": 60, "duration": 4, "velocity": 87}, {"time": 1911, "pitch": 63, "duration": 3, "velocity": 87}, {"time": 1914, "pitch": 67, "duration": 5, "velocity": 92}, {"time": 1918, "pitch": 63, "duration": 3, "velocity": 87}, {"time": 1921, "pitch": 60, "duration": 4, "velocity": 88}, {"time": 1923, "pitch": 63, "duration": 3, "velocity": 83}, {"time": 1927, "pitch": 41, "duration": 15, "velocity": 88}, {"time": 1927, "pitch": 65, "duration": 6, "velocity": 87}, {"time": 1929, "pitch": 48, "duration": 10, "velocity": 82}, {"time": 1932, "pitch": 60, "duration": 5, "velocity": 86}, {"time": 1935, "pitch": 65, "duration": 2, "velocity": 83}, {"time": 1938, "pitch": 68, "duration": 7, "velocity": 86}, {"time": 1938, "pitch": 60, "duration": 4, "velocity": 88}, {"time": 1938, "pitch": 65, "duration": 3, "velocity": 93}, {"time": 1941, "pitch": 48, "duration": 2, "velocity": 87}, {"time": 1944, "pitch": 60, "duration": 4, "velocity": 88}, {"time": 1948, "pitch": 65, "duration": 1, "velocity": 77}, {"time": 1950, "pitch": 46, "duration": 19, "velocity": 87}, {"time": 1951, "pitch": 61, "duration": 5, "velocity": 87}, {"time": 1951, "pitch": 58, "duration": 3, "velocity": 83}, {"time": 1953, "pitch": 53, "duration": 16, "velocity": 82}, {"time": 1956, "pitch": 58, "duration": 5, "velocity": 78}, {"time": 1959, "pitch": 61, "duration": 3, "velocity": 86}, {"time": 1962, "pitch": 65, "duration": 4, "velocity": 87}, {"time": 1965, "pitch": 61, "duration": 4, "velocity": 87}, {"time": 1968, "pitch": 58, "duration": 2, "velocity": 89}, {"time": 1974, "pitch": 60, "duration": 3, "velocity": 83}, {"time": 1974, "pitch": 63, "duration": 5, "velocity": 85}, {"time": 1974, "pitch": 48, "duration": 18, "velocity": 89}, {"time": 1977, "pitch": 55, "duration": 13, "velocity": 81}, {"time": 1980, "pitch": 60, "duration": 7, "velocity": 88}, {"time": 1983, "pitch": 63, "duration": 3, "velocity": 80}, {"time": 1986, "pitch": 67, "duration": 6, "velocity": 84}, {"time": 1989, "pitch": 63, "duration": 4, "velocity": 80}, {"time": 1992, "pitch": 60, "duration": 3, "velocity": 80}, {"time": 1998, "pitch": 60, "duration": 3, "velocity": 80}, {"time": 1998, "pitch": 65, "duration": 2, "velocity": 87}, {"time": 1998, "pitch": 41, "duration": 23, "velocity": 91}, {"time": 2001, "pitch": 48, "duration": 19, "velocity": 82}, {"time": 2005, "pitch": 53, "duration": 9, "velocity": 85}, {"time": 2007, "pitch": 56, "duration": 4, "velocity": 82}, {"time": 2011, "pitch": 65, "duration": 3, "velocity": 91}, {"time": 2014, "pitch": 60, "duration": 3, "velocity": 86}, {"time": 2017, "pitch": 56, "duration": 3, "velocity": 87}, {"time": 2020, "pitch": 53, "duration": 6, "velocity": 90}, {"time": 2023, "pitch": 41, "duration": 15, "velocity": 91}, {"time": 2025, "pitch": 48, "duration": 10, "velocity": 81}, {"time": 2028, "pitch": 53, "duration": 4, "velocity": 88}, {"time": 2031, "pitch": 56, "duration": 2, "velocity": 87}, {"time": 2034, "pitch": 65, "duration": 6, "velocity": 91}, {"time": 2034, "pitch": 56, "duration": 5, "velocity": 93}, {"time": 2035, "pitch": 53, "duration": 3, "velocity": 91}, {"time": 2037, "pitch": 48, "duration": 2, "velocity": 89}, {"time": 2040, "pitch": 53, "duration": 2, "velocity": 100}, {"time": 2047, "pitch": 48, "duration": 15, "velocity": 89}, {"time": 2047, "pitch": 63, "duration": 4, "velocity": 80}, {"time": 2047, "pitch": 60, "duration": 2, "velocity": 74}, {"time": 2050, "pitch": 60, "duration": 4, "velocity": 84}, {"time": 2053, "pitch": 63, "duration": 3, "velocity": 81}, {"time": 2056, "pitch": 67, "duration": 9, "velocity": 100}, {"time": 2059, "pitch": 55, "duration": 4, "velocity": 87}, {"time": 2061, "pitch": 60, "duration": 4, "velocity": 87}, {"time": 2065, "pitch": 63, "duration": 3, "velocity": 86}, {"time": 2068, "pitch": 60, "duration": 4, "velocity": 87}, {"time": 2070, "pitch": 41, "duration": 17, "velocity": 91}, {"time": 2070, "pitch": 65, "duration": 7, "velocity": 86}, {"time": 2073, "pitch": 48, "duration": 11, "velocity": 86}, {"time": 2076, "pitch": 60, "duration": 5, "velocity": 87}, {"time": 2080, "pitch": 68, "duration": 3, "velocity": 86}, {"time": 2083, "pitch": 65, "duration": 3, "velocity": 97}, {"time": 2086, "pitch": 60, "duration": 3, "velocity": 92}, {"time": 2088, "pitch": 48, "duration": 2, "velocity": 88}, {"time": 2095, "pitch": 63, "duration": 4, "velocity": 84}, {"time": 2095, "pitch": 48, "duration": 21, "velocity": 82}, {"time": 2095, "pitch": 60, "duration": 2, "velocity": 85}, {"time": 2098, "pitch": 55, "duration": 11, "velocity": 87}, {"time": 2101, "pitch": 60, "duration": 4, "velocity": 92}, {"time": 2104, "pitch": 63, "duration": 1, "velocity": 88}, {"time": 2107, "pitch": 67, "duration": 7, "velocity": 95}, {"time": 2110, "pitch": 63, "duration": 3, "velocity": 88}, {"time": 2113, "pitch": 60, "duration": 4, "velocity": 92}, {"time": 2113, "pitch": 55, "duration": 3, "velocity": 75}, {"time": 2116, "pitch": 63, "duration": 2, "velocity": 92}, {"time": 2119, "pitch": 46, "duration": 19, "velocity": 87}, {"time": 2122, "pitch": 53, "duration": 10, "velocity": 87}, {"time": 2124, "pitch": 58, "duration": 5, "velocity": 88}, {"time": 2127, "pitch": 61, "duration": 3, "velocity": 88}, {"time": 2131, "pitch": 65, "duration": 6, "velocity": 102}, {"time": 2133, "pitch": 53, "duration": 5, "velocity": 87}, {"time": 2137, "pitch": 58, "duration": 1, "velocity": 87}, {"time": 2143, "pitch": 60, "duration": 21, "velocity": 90}, {"time": 2143, "pitch": 48, "duration": 19, "velocity": 90}, {"time": 2155, "pitch": 72, "duration": 8, "velocity": 82}, {"time": 2155, "pitch": 64, "duration": 6, "velocity": 76}, {"time": 2155, "pitch": 67, "duration": 9, "velocity": 76}, {"time": 2155, "pitch": 55, "duration": 6, "velocity": 76}, {"time": 2167, "pitch": 60, "duration": 4, "velocity": 79}, {"time": 2167, "pitch": 65, "duration": 3, "velocity": 86}, {"time": 2167, "pitch": 41, "duration": 45, "velocity": 90}, {"time": 2173, "pitch": 48, "duration": 38, "velocity": 79}, {"time": 2179, "pitch": 56, "duration": 5, "velocity": 83}, {"time": 2179, "pitch": 53, "duration": 6, "velocity": 84}, {"time": 2189, "pitch": 53, "duration": 1, "velocity": 72}, {"time": 2190, "pitch": 56, "duration": 1, "velocity": 75}, {"time": 2190, "pitch": 60, "duration": 1, "velocity": 72}, {"time": 2191, "pitch": 65, "duration": 2, "velocity": 86}, {"time": 2202, "pitch": 68, "duration": 13, "velocity": 54}, {"time": 2202, "pitch": 72, "duration": 13, "velocity": 75}, {"time": 2203, "pitch": 77, "duration": 12, "velocity": 77}, {"time": 2204, "pitch": 65, "duration": 11, "velocity": 50}, {"time": 2214, "pitch": 53, "duration": 8, "velocity": 79}, {"time": 2215, "pitch": 56, "duration": 7, "velocity": 75}, {"time": 2215, "pitch": 41, "duration": 45, "velocity": 88}, {"time": 2215, "pitch": 60, "duration": 8, "velocity": 72}, {"time": 2220, "pitch": 48, "duration": 39, "velocity": 67}, {"time": 2227, "pitch": 60, "duration": 8, "velocity": 80}, {"time": 2236, "pitch": 53, "duration": 2, "velocity": 71}, {"time": 2237, "pitch": 56, "duration": 2, "velocity": 73}, {"time": 2238, "pitch": 60, "duration": 2, "velocity": 79}, {"time": 2239, "pitch": 65, "duration": 4, "velocity": 88}, {"time": 2251, "pitch": 60, "duration": 7, "velocity": 80}, {"time": 2262, "pitch": 53, "duration": 4, "velocity": 73}, {"time": 2263, "pitch": 60, "duration": 13, "velocity": 78}, {"time": 2263, "pitch": 41, "duration": 22, "velocity": 87}, {"time": 2263, "pitch": 65, "duration": 13, "velocity": 79}, {"time": 2269, "pitch": 48, "duration": 16, "velocity": 70}, {"time": 2274, "pitch": 53, "duration": 8, "velocity": 84}, {"time": 2281, "pitch": 56, "duration": 7, "velocity": 69}, {"time": 2287, "pitch": 53, "duration": 12, "velocity": 82}, {"time": 2287, "pitch": 41, "duration": 21, "velocity": 81}, {"time": 2293, "pitch": 48, "duration": 13, "velocity": 63}, {"time": 2298, "pitch": 60, "duration": 3, "velocity": 76}, {"time": 2299, "pitch": 56, "duration": 2, "velocity": 74}, {"time": 2309, "pitch": 53, "duration": 2, "velocity": 70}, {"time": 2309, "pitch": 56, "duration": 3, "velocity": 77}, {"time": 2310, "pitch": 60, "duration": 8, "velocity": 73}, {"time": 2310, "pitch": 41, "duration": 14, "velocity": 86}, {"time": 2311, "pitch": 65, "duration": 13, "velocity": 87}, {"time": 2316, "pitch": 48, "duration": 8, "velocity": 66}, {"time": 2323, "pitch": 53, "duration": 1, "velocity": 78}, {"time": 2333, "pitch": 58, "duration": 8, "velocity": 62}, {"time": 2334, "pitch": 61, "duration": 12, "velocity": 74}, {"time": 2334, "pitch": 46, "duration": 15, "velocity": 84}, {"time": 2340, "pitch": 53, "duration": 9, "velocity": 73}, {"time": 2346, "pitch": 58, "duration": 1, "velocity": 81}, {"time": 2357, "pitch": 60, "duration": 6, "velocity": 66}, {"time": 2358, "pitch": 63, "duration": 13, "velocity": 77}, {"time": 2358, "pitch": 48, "duration": 40, "velocity": 87}, {"time": 2359, "pitch": 67, "duration": 13, "velocity": 76}, {"time": 2364, "pitch": 55, "duration": 25, "velocity": 67}, {"time": 2370, "pitch": 60, "duration": 8, "velocity": 88}, {"time": 2376, "pitch": 67, "duration": 8, "velocity": 87}, {"time": 2383, "pitch": 63, "duration": 12, "velocity": 81}, {"time": 2389, "pitch": 60, "duration": 9, "velocity": 73}, {"time": 2395, "pitch": 55, "duration": 2, "velocity": 68}, {"time": 2405, "pitch": 60, "duration": 10, "velocity": 74}, {"time": 2407, "pitch": 41, "duration": 43, "velocity": 88}, {"time": 2407, "pitch": 65, "duration": 12, "velocity": 82}, {"time": 2413, "pitch": 48, "duration": 37, "velocity": 68}, {"time": 2419, "pitch": 60, "duration": 9, "velocity": 90}, {"time": 2425, "pitch": 65, "duration": 7, "velocity": 90}, {"time": 2431, "pitch": 68, "duration": 7, "velocity": 87}, {"time": 2437, "pitch": 65, "duration": 4, "velocity": 78}, {"time": 2443, "pitch": 63, "duration": 9, "velocity": 90}, {"time": 2454, "pitch": 61, "duration": 8, "velocity": 71}, {"time": 2455, "pitch": 65, "duration": 18, "velocity": 84}, {"time": 2455, "pitch": 49, "duration": 37, "velocity": 87}, {"time": 2460, "pitch": 56, "duration": 30, "velocity": 74}, {"time": 2467, "pitch": 61, "duration": 7, "velocity": 87}, {"time": 2473, "pitch": 68, "duration": 6, "velocity": 84}, {"time": 2479, "pitch": 65, "duration": 6, "velocity": 87}, {"time": 2484, "pitch": 63, "duration": 6, "velocity": 83}, {"time": 2490, "pitch": 60, "duration": 6, "velocity": 75}, {"time": 2496, "pitch": 58, "duration": 2, "velocity": 77}, {"time": 2502, "pitch": 44, "duration": 18, "velocity": 86}, {"time": 2502, "pitch": 60, "duration": 13, "velocity": 79}, {"time": 2502, "pitch": 56, "duration": 8, "velocity": 74}, {"time": 2508, "pitch": 51, "duration": 12, "velocity": 76}, {"time": 2514, "pitch": 56, "duration": 5, "velocity": 87}, {"time": 2525, "pitch": 58, "duration": 10, "velocity": 72}, {"time": 2526, "pitch": 61, "duration": 12, "velocity": 81}, {"time": 2526, "pitch": 46, "duration": 16, "velocity": 87}, {"time": 2532, "pitch": 53, "duration": 10, "velocity": 79}, {"time": 2538, "pitch": 58, "duration": 2, "velocity": 87}, {"time": 2550, "pitch": 60, "duration": 8, "velocity": 74}, {"time": 2550, "pitch": 63, "duration": 13, "velocity": 86}, {"time": 2551, "pitch": 48, "duration": 40, "velocity": 87}, {"time": 2551, "pitch": 67, "duration": 21, "velocity": 69}, {"time": 2556, "pitch": 55, "duration": 33, "velocity": 76}, {"time": 2562, "pitch": 60, "duration": 8, "velocity": 88}, {"time": 2568, "pitch": 63, "duration": 3, "velocity": 88}, {"time": 2572, "pitch": 60, "duration": 3, "velocity": 77}, {"time": 2574, "pitch": 63, "duration": 1, "velocity": 81}, {"time": 2574, "pitch": 67, "duration": 1, "velocity": 57}, {"time": 2575, "pitch": 72, "duration": 6, "velocity": 88}, {"time": 2580, "pitch": 70, "duration": 5, "velocity": 89}, {"time": 2587, "pitch": 67, "duration": 5, "velocity": 88}, {"time": 2599, "pitch": 68, "duration": 5, "velocity": 80}, {"time": 2599, "pitch": 65, "duration": 4, "velocity": 86}, {"time": 2599, "pitch": 41, "duration": 14, "velocity": 89}, {"time": 2605, "pitch": 48, "duration": 8, "velocity": 79}, {"time": 2611, "pitch": 53, "duration": 3, "velocity": 87}, {"time": 2611, "pitch": 60, "duration": 4, "velocity": 87}, {"time": 2611, "pitch": 56, "duration": 3, "velocity": 87}, {"time": 2622, "pitch": 60, "duration": 9, "velocity": 77}, {"time": 2622, "pitch": 63, "duration": 10, "velocity": 82}, {"time": 2622, "pitch": 48, "duration": 17, "velocity": 87}, {"time": 2623, "pitch": 67, "duration": 12, "velocity": 76}, {"time": 2628, "pitch": 55, "duration": 9, "velocity": 75}, {"time": 2634, "pitch": 60, "duration": 4, "velocity": 90}, {"time": 2645, "pitch": 58, "duration": 3, "velocity": 76}, {"time": 2646, "pitch": 61, "duration": 12, "velocity": 75}, {"time": 2647, "pitch": 46, "duration": 16, "velocity": 86}, {"time": 2647, "pitch": 65, "duration": 12, "velocity": 83}, {"time": 2652, "pitch": 53, "duration": 9, "velocity": 78}, {"time": 2658, "pitch": 58, "duration": 8, "velocity": 91}, {"time": 2664, "pitch": 61, "duration": 2, "velocity": 87}, {"time": 2670, "pitch": 44, "duration": 16, "velocity": 86}, {"time": 2670, "pitch": 60, "duration": 10, "velocity": 84}, {"time": 2671, "pitch": 56, "duration": 9, "velocity": 82}, {"time": 2676, "pitch": 51, "duration": 10, "velocity": 77}, {"time": 2682, "pitch": 56, "duration": 4, "velocity": 86}, {"time": 2682, "pitch": 63, "duration": 4, "velocity": 84}, {"time": 2682, "pitch": 60, "duration": 4, "velocity": 87}, {"time": 2694, "pitch": 60, "duration": 13, "velocity": 81}, {"time": 2694, "pitch": 56, "duration": 9, "velocity": 80}, {"time": 2694, "pitch": 65, "duration": 13, "velocity": 87}, {"time": 2694, "pitch": 41, "duration": 15, "velocity": 87}, {"time": 2700, "pitch": 48, "duration": 9, "velocity": 73}, {"time": 2706, "pitch": 56, "duration": 7, "velocity": 90}, {"time": 2712, "pitch": 60, "duration": 2, "velocity": 87}, {"time": 2718, "pitch": 49, "duration": 14, "velocity": 87}, {"time": 2718, "pitch": 61, "duration": 9, "velocity": 80}, {"time": 2718, "pitch": 56, "duration": 4, "velocity": 82}, {"time": 2724, "pitch": 56, "duration": 9, "velocity": 84}, {"time": 2730, "pitch": 61, "duration": 3, "velocity": 86}, {"time": 2731, "pitch": 65, "duration": 3, "velocity": 86}, {"time": 2741, "pitch": 58, "duration": 17, "velocity": 70}, {"time": 2741, "pitch": 62, "duration": 17, "velocity": 73}, {"time": 2743, "pitch": 65, "duration": 16, "velocity": 80}, {"time": 2743, "pitch": 46, "duration": 17, "velocity": 87}, {"time": 2743, "pitch": 70, "duration": 16, "velocity": 82}, {"time": 2766, "pitch": 60, "duration": 13, "velocity": 70}, {"time": 2767, "pitch": 65, "duration": 13, "velocity": 80}, {"time": 2767, "pitch": 41, "duration": 20, "velocity": 88}, {"time": 2773, "pitch": 48, "duration": 13, "velocity": 74}, {"time": 2779, "pitch": 68, "duration": 6, "velocity": 85}, {"time": 2785, "pitch": 60, "duration": 3, "velocity": 95}, {"time": 2790, "pitch": 60, "duration": 3, "velocity": 87}, {"time": 2790, "pitch": 65, "duration": 4, "velocity": 91}, {"time": 2790, "pitch": 41, "duration": 11, "velocity": 97}, {"time": 2796, "pitch": 65, "duration": 1, "velocity": 63}, {"time": 2796, "pitch": 60, "duration": 2, "velocity": 78}, {"time": 2803, "pitch": 60, "duration": 2, "velocity": 91}, {"time": 2803, "pitch": 68, "duration": 6, "velocity": 88}, {"time": 2803, "pitch": 65, "duration": 3, "velocity": 103}, {"time": 2808, "pitch": 60, "duration": 5, "velocity": 86}, {"time": 2811, "pitch": 65, "duration": 2, "velocity": 86}, {"time": 2814, "pitch": 68, "duration": 7, "velocity": 86}, {"time": 2815, "pitch": 53, "duration": 13, "velocity": 97}, {"time": 2815, "pitch": 60, "duration": 2, "velocity": 86}, {"time": 2815, "pitch": 65, "duration": 6, "velocity": 88}, {"time": 2820, "pitch": 60, "duration": 3, "velocity": 84}, {"time": 2827, "pitch": 60, "duration": 2, "velocity": 89}, {"time": 2827, "pitch": 68, "duration": 4, "velocity": 89}, {"time": 2827, "pitch": 65, "duration": 3, "velocity": 100}, {"time": 2829, "pitch": 53, "duration": 2, "velocity": 90}, {"time": 2833, "pitch": 60, "duration": 3, "velocity": 93}, {"time": 2833, "pitch": 68, "duration": 1, "velocity": 58}, {"time": 2836, "pitch": 65, "duration": 2, "velocity": 83}, {"time": 2839, "pitch": 61, "duration": 3, "velocity": 80}, {"time": 2839, "pitch": 49, "duration": 16, "velocity": 89}, {"time": 2839, "pitch": 65, "duration": 4, "velocity": 88}, {"time": 2842, "pitch": 56, "duration": 10, "velocity": 80}, {"time": 2845, "pitch": 61, "duration": 3, "velocity": 88}, {"time": 2848, "pitch": 65, "duration": 1, "velocity": 87}, {"time": 2851, "pitch": 65, "duration": 5, "velocity": 100}, {"time": 2851, "pitch": 68, "duration": 5, "velocity": 90}, {"time": 2851, "pitch": 61, "duration": 3, "velocity": 87}, {"time": 2853, "pitch": 56, "duration": 3, "velocity": 85}, {"time": 2857, "pitch": 49, "duration": 1, "velocity": 88}, {"time": 2863, "pitch": 65, "duration": 6, "velocity": 86}, {"time": 2863, "pitch": 60, "duration": 2, "velocity": 86}, {"time": 2863, "pitch": 41, "duration": 21, "velocity": 88}, {"time": 2866, "pitch": 48, "duration": 16, "velocity": 83}, {"time": 2869, "pitch": 60, "duration": 4, "velocity": 84}, {"time": 2872, "pitch": 65, "duration": 1, "velocity": 86}, {"time": 2875, "pitch": 69, "duration": 3, "velocity": 100}, {"time": 2878, "pitch": 65, "duration": 2, "velocity": 88}, {"time": 2881, "pitch": 60, "duration": 4, "velocity": 87}, {"time": 2887, "pitch": 65, "duration": 8, "velocity": 88}, {"time": 2887, "pitch": 60, "duration": 5, "velocity": 87}, {"time": 2887, "pitch": 41, "duration": 15, "velocity": 91}, {"time": 2892, "pitch": 48, "duration": 7, "velocity": 78}, {"time": 2898, "pitch": 69, "duration": 7, "velocity": 88}, {"time": 2899, "pitch": 65, "duration": 3, "velocity": 93}, {"time": 2899, "pitch": 60, "duration": 2, "velocity": 88}, {"time": 2901, "pitch": 48, "duration": 2, "velocity": 87}, {"time": 2904, "pitch": 60, "duration": 2, "velocity": 91}, {"time": 2911, "pitch": 48, "duration": 17, "velocity": 88}, {"time": 2911, "pitch": 60, "duration": 6, "velocity": 88}, {"time": 2911, "pitch": 63, "duration": 7, "velocity": 87}, {"time": 2917, "pitch": 55, "duration": 7, "velocity": 80}, {"time": 2920, "pitch": 60, "duration": 2, "velocity": 87}, {"time": 2923, "pitch": 67, "duration": 6, "velocity": 90}, {"time": 2925, "pitch": 55, "duration": 3, "velocity": 82}, {"time": 2929, "pitch": 63, "duration": 4, "velocity": 82}, {"time": 2935, "pitch": 41, "duration": 18, "velocity": 90}, {"time": 2935, "pitch": 65, "duration": 9, "velocity": 86}, {"time": 2935, "pitch": 60, "duration": 4, "velocity": 85}, {"time": 2940, "pitch": 48, "duration": 9, "velocity": 30}, {"time": 2946, "pitch": 60, "duration": 5, "velocity": 87}, {"time": 2946, "pitch": 65, "duration": 7, "velocity": 91}, {"time": 2947, "pitch": 68, "duration": 6, "velocity": 86}, {"time": 2952, "pitch": 48, "duration": 1, "velocity": 92}, {"time": 2958, "pitch": 61, "duration": 6, "velocity": 82}, {"time": 2958, "pitch": 58, "duration": 4, "velocity": 79}, {"time": 2958, "pitch": 46, "duration": 20, "velocity": 86}, {"time": 2961, "pitch": 53, "duration": 11, "velocity": 79}, {"time": 2964, "pitch": 58, "duration": 4, "velocity": 81}, {"time": 2967, "pitch": 61, "duration": 2, "velocity": 85}, {"time": 2970, "pitch": 65, "duration": 6, "velocity": 88}, {"time": 2973, "pitch": 61, "duration": 3, "velocity": 86}, {"time": 2976, "pitch": 58, "duration": 2, "velocity": 82}, {"time": 2983, "pitch": 56, "duration": 3, "velocity": 82}, {"time": 2983, "pitch": 60, "duration": 5, "velocity": 82}, {"time": 2983, "pitch": 44, "duration": 18, "velocity": 87}, {"time": 2986, "pitch": 51, "duration": 15, "velocity": 77}, {"time": 2988, "pitch": 56, "duration": 5, "velocity": 87}, {"time": 2991, "pitch": 63, "duration": 3, "velocity": 83}, {"time": 2994, "pitch": 68, "duration": 4, "velocity": 87}, {"time": 2997, "pitch": 63, "duration": 4, "velocity": 87}, {"time": 3000, "pitch": 60, "duration": 4, "velocity": 82}, {"time": 3003, "pitch": 56, "duration": 1, "velocity": 86}, {"time": 3006, "pitch": 48, "duration": 16, "velocity": 88}, {"time": 3006, "pitch": 60, "duration": 4, "velocity": 85}, {"time": 3006, "pitch": 63, "duration": 7, "velocity": 86}, {"time": 3013, "pitch": 55, "duration": 6, "velocity": 85}, {"time": 3015, "pitch": 60, "duration": 2, "velocity": 87}, {"time": 3018, "pitch": 63, "duration": 5, "velocity": 93}, {"time": 3018, "pitch": 67, "duration": 6, "velocity": 91}, {"time": 3019, "pitch": 60, "duration": 3, "velocity": 91}, {"time": 3021, "pitch": 55, "duration": 2, "velocity": 92}, {"time": 3025, "pitch": 48, "duration": 1, "velocity": 88}, {"time": 3031, "pitch": 41, "duration": 22, "velocity": 92}, {"time": 3031, "pitch": 65, "duration": 2, "velocity": 88}, {"time": 3031, "pitch": 60, "duration": 2, "velocity": 87}, {"time": 3034, "pitch": 48, "duration": 19, "velocity": 85}, {"time": 3037, "pitch": 53, "duration": 4, "velocity": 88}, {"time": 3040, "pitch": 56, "duration": 1, "velocity": 86}, {"time": 3043, "pitch": 60, "duration": 4, "velocity": 85}, {"time": 3046, "pitch": 56, "duration": 2, "velocity": 88}, {"time": 3048, "pitch": 53, "duration": 5, "velocity": 95}, {"time": 3051, "pitch": 56, "duration": 4, "velocity": 87}, {"time": 3054, "pitch": 65, "duration": 11, "velocity": 92}, {"time": 3054, "pitch": 41, "duration": 19, "velocity": 88}, {"time": 3057, "pitch": 48, "duration": 11, "velocity": 87}, {"time": 3060, "pitch": 60, "duration": 5, "velocity": 84}, {"time": 3064, "pitch": 53, "duration": 4, "velocity": 90}, {"time": 3067, "pitch": 56, "duration": 3, "velocity": 89}, {"time": 3069, "pitch": 53, "duration": 3, "velocity": 92}, {"time": 3073, "pitch": 48, "duration": 1, "velocity": 92}, {"time": 3078, "pitch": 56, "duration": 2, "velocity": 80}, {"time": 3079, "pitch": 65, "duration": 5, "velocity": 87}, {"time": 3079, "pitch": 49, "duration": 18, "velocity": 92}, {"time": 3082, "pitch": 56, "duration": 3, "velocity": 83}, {"time": 3084, "pitch": 61, "duration": 4, "velocity": 85}, {"time": 3087, "pitch": 65, "duration": 4, "velocity": 89}, {"time": 3091, "pitch": 61, "duration": 2, "velocity": 91}, {"time": 3093, "pitch": 56, "duration": 4, "velocity": 89}, {"time": 3097, "pitch": 61, "duration": 1, "velocity": 87}, {"time": 3103, "pitch": 41, "duration": 18, "velocity": 92}, {"time": 3103, "pitch": 65, "duration": 4, "velocity": 87}, {"time": 3103, "pitch": 60, "duration": 4, "velocity": 84}, {"time": 3109, "pitch": 48, "duration": 8, "velocity": 82}, {"time": 3115, "pitch": 60, "duration": 3, "velocity": 84}, {"time": 3115, "pitch": 65, "duration": 6, "velocity": 87}, {"time": 3115, "pitch": 69, "duration": 9, "velocity": 88}, {"time": 3120, "pitch": 60, "duration": 4, "velocity": 81}, {"time": 3127, "pitch": 41, "duration": 12, "velocity": 84}, {"time": 3127, "pitch": 60, "duration": 3, "velocity": 86}, {"time": 3127, "pitch": 69, "duration": 7, "velocity": 86}, {"time": 3127, "pitch": 65, "duration": 7, "velocity": 88}, {"time": 3132, "pitch": 60, "duration": 3, "velocity": 86}, {"time": 3138, "pitch": 69, "duration": 3, "velocity": 78}, {"time": 3138, "pitch": 60, "duration": 3, "velocity": 85}, {"time": 3138, "pitch": 65, "duration": 3, "velocity": 86}, {"time": 3149, "pitch": 60, "duration": 3, "velocity": 73}, {"time": 3150, "pitch": 63, "duration": 5, "velocity": 76}, {"time": 3150, "pitch": 48, "duration": 17, "velocity": 87}, {"time": 3151, "pitch": 67, "duration": 4, "velocity": 75}, {"time": 3154, "pitch": 55, "duration": 11, "velocity": 73}, {"time": 3157, "pitch": 60, "duration": 7, "velocity": 87}, {"time": 3160, "pitch": 63, "duration": 5, "velocity": 81}, {"time": 3163, "pitch": 72, "duration": 4, "velocity": 86}, {"time": 3175, "pitch": 41, "duration": 18, "velocity": 91}, {"time": 3178, "pitch": 48, "duration": 14, "velocity": 78}, {"time": 3180, "pitch": 53, "duration": 3, "velocity": 87}, {"time": 3183, "pitch": 55, "duration": 2, "velocity": 87}, {"time": 3186, "pitch": 56, "duration": 5, "velocity": 87}, {"time": 3189, "pitch": 60, "duration": 4, "velocity": 87}, {"time": 3192, "pitch": 65, "duration": 8, "velocity": 86}, {"time": 3196, "pitch": 56, "duration": 2, "velocity": 86}, {"time": 3199, "pitch": 46, "duration": 21, "velocity": 87}, {"time": 3201, "pitch": 53, "duration": 19, "velocity": 79}, {"time": 3204, "pitch": 58, "duration": 4, "velocity": 82}, {"time": 3207, "pitch": 61, "duration": 2, "velocity": 79}, {"time": 3211, "pitch": 61, "duration": 8, "velocity": 87}, {"time": 3211, "pitch": 65, "duration": 8, "velocity": 88}, {"time": 3211, "pitch": 58, "duration": 8, "velocity": 85}, {"time": 3223, "pitch": 56, "duration": 4, "velocity": 79}, {"time": 3223, "pitch": 60, "duration": 7, "velocity": 80}, {"time": 3223, "pitch": 44, "duration": 21, "velocity": 86}, {"time": 3228, "pitch": 51, "duration": 9, "velocity": 79}, {"time": 3235, "pitch": 60, "duration": 5, "velocity": 87}, {"time": 3235, "pitch": 63, "duration": 6, "velocity": 83}, {"time": 3235, "pitch": 56, "duration": 5, "velocity": 85}, {"time": 3241, "pitch": 51, "duration": 4, "velocity": 75}, {"time": 3246, "pitch": 60, "duration": 9, "velocity": 75}, {"time": 3246, "pitch": 48, "duration": 15, "velocity": 87}, {"time": 3246, "pitch": 63, "duration": 10, "velocity": 81}, {"time": 3247, "pitch": 67, "duration": 12, "velocity": 81}, {"time": 3252, "pitch": 55, "duration": 8, "velocity": 67}, {"time": 3259, "pitch": 60, "duration": 2, "velocity": 80}, {"time": 3269, "pitch": 58, "duration": 17, "velocity": 74}, {"time": 3269, "pitch": 62, "duration": 15, "velocity": 73}, {"time": 3270, "pitch": 65, "duration": 16, "velocity": 79}, {"time": 3270, "pitch": 46, "duration": 16, "velocity": 89}, {"time": 3271, "pitch": 70, "duration": 13, "velocity": 86}, {"time": 3294, "pitch": 60, "duration": 6, "velocity": 79}, {"time": 3294, "pitch": 65, "duration": 7, "velocity": 86}, {"time": 3295, "pitch": 41, "duration": 1, "velocity": 88}, {"time": 3301, "pitch": 53, "duration": 15, "velocity": 87}, {"time": 3304, "pitch": 60, "duration": 4, "velocity": 87}, {"time": 3307, "pitch": 65, "duration": 3, "velocity": 97}, {"time": 3310, "pitch": 60, "duration": 5, "velocity": 92}, {"time": 3313, "pitch": 68, "duration": 3, "velocity": 87}, {"time": 3313, "pitch": 65, "duration": 1, "velocity": 88}, {"time": 3316, "pitch": 65, "duration": 2, "velocity": 90}, {"time": 3319, "pitch": 53, "duration": 15, "velocity": 91}, {"time": 3319, "pitch": 68, "duration": 6, "velocity": 87}, {"time": 3319, "pitch": 65, "duration": 6, "velocity": 89}, {"time": 3325, "pitch": 60, "duration": 8, "velocity": 86}, {"time": 3328, "pitch": 72, "duration": 1, "velocity": 77}, {"time": 3328, "pitch": 68, "duration": 1, "velocity": 75}, {"time": 3328, "pitch": 65, "duration": 1, "velocity": 74}, {"time": 3331, "pitch": 68, "duration": 4, "velocity": 91}, {"time": 3331, "pitch": 65, "duration": 2, "velocity": 91}, {"time": 3331, "pitch": 72, "duration": 4, "velocity": 90}, {"time": 3334, "pitch": 60, "duration": 1, "velocity": 87}, {"time": 3337, "pitch": 65, "duration": 2, "velocity": 93}, {"time": 3343, "pitch": 60, "duration": 3, "velocity": 86}, {"time": 3343, "pitch": 68, "duration": 4, "velocity": 83}, {"time": 3343, "pitch": 65, "duration": 4, "velocity": 87}, {"time": 3343, "pitch": 41, "duration": 22, "velocity": 90}, {"time": 3346, "pitch": 48, "duration": 19, "velocity": 81}, {"time": 3349, "pitch": 60, "duration": 4, "velocity": 92}, {"time": 3352, "pitch": 65, "duration": 1, "velocity": 86}, {"time": 3355, "pitch": 60, "duration": 2, "velocity": 91}, {"time": 3355, "pitch": 68, "duration": 4, "velocity": 89}, {"time": 3358, "pitch": 60, "duration": 2, "velocity": 87}, {"time": 3361, "pitch": 65, "duration": 3, "velocity": 87}, {"time": 3364, "pitch": 68, "duration": 6, "velocity": 86}, {"time": 3367, "pitch": 41, "duration": 16, "velocity": 91}, {"time": 3367, "pitch": 60, "duration": 4, "velocity": 89}, {"time": 3370, "pitch": 48, "duration": 10, "velocity": 81}, {"time": 3373, "pitch": 60, "duration": 4, "velocity": 90}, {"time": 3376, "pitch": 65, "duration": 1, "velocity": 83}, {"time": 3379, "pitch": 68, "duration": 7, "velocity": 88}, {"time": 3379, "pitch": 60, "duration": 3, "velocity": 90}, {"time": 3379, "pitch": 65, "duration": 4, "velocity": 95}, {"time": 3381, "pitch": 48, "duration": 2, "velocity": 82}, {"time": 3385, "pitch": 60, "duration": 2, "velocity": 93}, {"time": 3391, "pitch": 61, "duration": 3, "velocity": 84}, {"time": 3391, "pitch": 65, "duration": 4, "velocity": 88}, {"time": 3391, "pitch": 49, "duration": 16, "velocity": 91}, {"time": 3394, "pitch": 56, "duration": 10, "velocity": 80}, {"time": 3396, "pitch": 61, "duration": 4, "velocity": 87}, {"time": 3399, "pitch": 65, "duration": 2, "velocity": 87}, {"time": 3402, "pitch": 61, "duration": 4, "velocity": 88}, {"time": 3403, "pitch": 65, "duration": 4, "velocity": 97}, {"time": 3403, "pitch": 68, "duration": 5, "velocity": 86}, {"time": 3405, "pitch": 56, "duration": 4, "velocity": 84}, {"time": 3409, "pitch": 49, "duration": 2, "velocity": 86}, {"time": 3412, "pitch": 61, "duration": 3, "velocity": 93}, {"time": 3415, "pitch": 41, "duration": 21, "velocity": 92}, {"time": 3418, "pitch": 48, "duration": 18, "velocity": 82}, {"time": 3421, "pitch": 53, "duration": 9, "velocity": 78}, {"time": 3423, "pitch": 57, "duration": 5, "velocity": 88}, {"time": 3426, "pitch": 60, "duration": 4, "velocity": 81}, {"time": 3429, "pitch": 65, "duration": 11, "velocity": 91}, {"time": 3433, "pitch": 53, "duration": 7, "velocity": 97}, {"time": 3435, "pitch": 57, "duration": 9, "velocity": 93}, {"time": 3438, "pitch": 41, "duration": 17, "velocity": 93}, {"time": 3441, "pitch": 48, "duration": 13, "velocity": 83}, {"time": 3444, "pitch": 53, "duration": 10, "velocity": 89}, {"time": 3447, "pitch": 57, "duration": 4, "velocity": 92}, {"time": 3450, "pitch": 65, "duration": 7, "velocity": 93}, {"time": 3453, "pitch": 60, "duration": 4, "velocity": 86}, {"time": 3456, "pitch": 57, "duration": 4, "velocity": 100}, {"time": 3459, "pitch": 53, "duration": 2, "velocity": 95}, {"time": 3463, "pitch": 48, "duration": 20, "velocity": 92}, {"time": 3466, "pitch": 60, "duration": 6, "velocity": 79}, {"time": 3468, "pitch": 63, "duration": 4, "velocity": 80}, {"time": 3471, "pitch": 67, "duration": 8, "velocity": 90}, {"time": 3475, "pitch": 55, "duration": 5, "velocity": 77}, {"time": 3477, "pitch": 60, "duration": 8, "velocity": 90}, {"time": 3480, "pitch": 63, "duration": 5, "velocity": 84}, {"time": 3483, "pitch": 67, "duration": 3, "velocity": 87}, {"time": 3487, "pitch": 41, "duration": 16, "velocity": 90}, {"time": 3490, "pitch": 48, "duration": 10, "velocity": 84}, {"time": 3493, "pitch": 60, "duration": 4, "velocity": 90}, {"time": 3495, "pitch": 65, "duration": 2, "velocity": 87}, {"time": 3499, "pitch": 68, "duration": 7, "velocity": 88}, {"time": 3499, "pitch": 60, "duration": 3, "velocity": 88}, {"time": 3499, "pitch": 65, "duration": 4, "velocity": 88}, {"time": 3502, "pitch": 48, "duration": 1, "velocity": 88}, {"time": 3505, "pitch": 60, "duration": 2, "velocity": 90}, {"time": 3511, "pitch": 58, "duration": 3, "velocity": 78}, {"time": 3511, "pitch": 61, "duration": 5, "velocity": 80}, {"time": 3511, "pitch": 46, "duration": 18, "velocity": 87}, {"time": 3514, "pitch": 53, "duration": 13, "velocity": 81}, {"time": 3516, "pitch": 58, "duration": 5, "velocity": 80}, {"time": 3519, "pitch": 61, "duration": 5, "velocity": 86}, {"time": 3522, "pitch": 70, "duration": 5, "velocity": 87}, {"time": 3526, "pitch": 65, "duration": 3, "velocity": 86}, {"time": 3529, "pitch": 58, "duration": 2, "velocity": 87}, {"time": 3535, "pitch": 56, "duration": 3, "velocity": 80}, {"time": 3535, "pitch": 60, "duration": 5, "velocity": 80}, {"time": 3535, "pitch": 44, "duration": 15, "velocity": 87}, {"time": 3538, "pitch": 51, "duration": 12, "velocity": 76}, {"time": 3540, "pitch": 56, "duration": 7, "velocity": 86}, {"time": 3543, "pitch": 60, "duration": 5, "velocity": 85}, {"time": 3547, "pitch": 68, "duration": 8, "velocity": 86}, {"time": 3550, "pitch": 63, "duration": 4, "velocity": 81}, {"time": 3553, "pitch": 60, "duration": 4, "velocity": 76}, {"time": 3556, "pitch": 56, "duration": 1, "velocity": 86}, {"time": 3559, "pitch": 48, "duration": 14, "velocity": 88}, {"time": 3559, "pitch": 60, "duration": 2, "velocity": 88}, {"time": 3559, "pitch": 63, "duration": 4, "velocity": 88}, {"time": 3563, "pitch": 60, "duration": 4, "velocity": 82}, {"time": 3565, "pitch": 63, "duration": 3, "velocity": 81}, {"time": 3568, "pitch": 67, "duration": 7, "velocity": 90}, {"time": 3571, "pitch": 55, "duration": 4, "velocity": 85}, {"time": 3574, "pitch": 60, "duration": 4, "velocity": 87}, {"time": 3577, "pitch": 63, "duration": 4, "velocity": 84}, {"time": 3580, "pitch": 60, "duration": 3, "velocity": 84}, {"time": 3583, "pitch": 60, "duration": 1, "velocity": 86}, {"time": 3583, "pitch": 68, "duration": 4, "velocity": 83}, {"time": 3583, "pitch": 65, "duration": 4, "velocity": 87}, {"time": 3583, "pitch": 41, "duration": 22, "velocity": 90}, {"time": 3586, "pitch": 48, "duration": 19, "velocity": 81}, {"time": 3589, "pitch": 60, "duration": 4, "velocity": 92}, {"time": 3592, "pitch": 65, "duration": 1, "velocity": 86}, {"time": 3595, "pitch": 60, "duration": 2, "velocity": 91}, {"time": 3595, "pitch": 68, "duration": 4, "velocity": 89}, {"time": 3598, "pitch": 60, "duration": 2, "velocity": 87}, {"time": 3601, "pitch": 65, "duration": 3, "velocity": 87}, {"time": 3604, "pitch": 68, "duration": 6, "velocity": 86}, {"time": 3607, "pitch": 41, "duration": 16, "velocity": 91}, {"time": 3607, "pitch": 60, "duration": 4, "velocity": 89}, {"time": 3610, "pitch": 48, "duration": 10, "velocity": 81}, {"time": 3613, "pitch": 60, "duration": 4, "velocity": 90}, {"time": 3616, "pitch": 65, "duration": 1, "velocity": 83}, {"time": 3619, "pitch": 68, "duration": 7, "velocity": 88}, {"time": 3619, "pitch": 60, "duration": 3, "velocity": 90}, {"time": 3619, "pitch": 65, "duration": 4, "velocity": 95}, {"time": 3621, "pitch": 48, "duration": 2, "velocity": 82}, {"time": 3625, "pitch": 60, "duration": 2, "velocity": 93}, {"time": 3631, "pitch": 61, "duration": 3, "velocity": 84}, {"time": 3631, "pitch": 65, "duration": 4, "velocity": 88}, {"time": 3631, "pitch": 49, "duration": 16, "velocity": 91}, {"time": 3634, "pitch": 56, "duration": 10, "velocity": 80}, {"time": 3636, "pitch": 61, "duration": 4, "velocity": 87}, {"time": 3639, "pitch": 65, "duration": 2, "velocity": 87}, {"time": 3642, "pitch": 61, "duration": 4, "velocity": 88}, {"time": 3643, "pitch": 65, "duration": 4, "velocity": 97}, {"time": 3643, "pitch": 68, "duration": 5, "velocity": 86}, {"time": 3645, "pitch": 56, "duration": 4, "velocity": 84}, {"time": 3649, "pitch": 49, "duration": 2, "velocity": 86}, {"time": 3652, "pitch": 61, "duration": 3, "velocity": 93}, {"time": 3655, "pitch": 41, "duration": 21, "velocity": 92}, {"time": 3658, "pitch": 48, "duration": 18, "velocity": 82}, {"time": 3661, "pitch": 53, "duration": 9, "velocity": 78}, {"time": 3663, "pitch": 57, "duration": 5, "velocity": 88}, {"time": 3666, "pitch": 60, "duration": 4, "velocity": 81}, {"time": 3669, "pitch": 65, "duration": 11, "velocity": 91}, {"time": 3673, "pitch": 53, "duration": 7, "velocity": 97}, {"time": 3675, "pitch": 57, "duration": 9, "velocity": 93}, {"time": 3678, "pitch": 41, "duration": 17, "velocity": 93}, {"time": 3681, "pitch": 48, "duration": 13, "velocity": 83}, {"time": 3684, "pitch": 53, "duration": 10, "velocity": 89}, {"time": 3687, "pitch": 57, "duration": 4, "velocity": 92}, {"time": 3690, "pitch": 65, "duration": 7, "velocity": 93}, {"time": 3693, "pitch": 60, "duration": 4, "velocity": 86}, {"time": 3696, "pitch": 57, "duration": 4, "velocity": 100}, {"time": 3699, "pitch": 53, "duration": 2, "velocity": 95}, {"time": 3703, "pitch": 48, "duration": 20, "velocity": 92}, {"time": 3706, "pitch": 60, "duration": 6, "velocity": 79}, {"time": 3708, "pitch": 63, "duration": 4, "velocity": 80}, {"time": 3711, "pitch": 67, "duration": 8, "velocity": 90}, {"time": 3715, "pitch": 55, "duration": 5, "velocity": 77}, {"time": 3717, "pitch": 60, "duration": 8, "velocity": 90}, {"time": 3720, "pitch": 63, "duration": 5, "velocity": 84}, {"time": 3723, "pitch": 67, "duration": 3, "velocity": 87}, {"time": 3727, "pitch": 41, "duration": 16, "velocity": 90}, {"time": 3730, "pitch": 48, "duration": 10, "velocity": 84}, {"time": 3733, "pitch": 60, "duration": 4, "velocity": 90}, {"time": 3735, "pitch": 65, "duration": 2, "velocity": 87}, {"time": 3739, "pitch": 68, "duration": 7, "velocity": 88}, {"time": 3739, "pitch": 60, "duration": 3, "velocity": 88}, {"time": 3739, "pitch": 65, "duration": 4, "velocity": 88}, {"time": 3742, "pitch": 48, "duration": 1, "velocity": 88}, {"time": 3745, "pitch": 60, "duration": 2, "velocity": 90}, {"time": 3751, "pitch": 58, "duration": 3, "velocity": 78}, {"time": 3751, "pitch": 61, "duration": 5, "velocity": 80}, {"time": 3751, "pitch": 46, "duration": 18, "velocity": 87}, {"time": 3754, "pitch": 53, "duration": 13, "velocity": 81}, {"time": 3756, "pitch": 58, "duration": 5, "velocity": 80}, {"time": 3759, "pitch": 61, "duration": 5, "velocity": 86}, {"time": 3762, "pitch": 70, "duration": 5, "velocity": 87}, {"time": 3766, "pitch": 65, "duration": 3, "velocity": 86}, {"time": 3769, "pitch": 58, "duration": 2, "velocity": 87}, {"time": 3775, "pitch": 56, "duration": 3, "velocity": 80}, {"time": 3775, "pitch": 60, "duration": 5, "velocity": 80}, {"time": 3775, "pitch": 44, "duration": 15, "velocity": 87}, {"time": 3778, "pitch": 51, "duration": 12, "velocity": 76}, {"time": 3780, "pitch": 56, "duration": 7, "velocity": 86}, {"time": 3783, "pitch": 60, "duration": 5, "velocity": 85}, {"time": 3787, "pitch": 68, "duration": 8, "velocity": 86}, {"time": 3790, "pitch": 63, "duration": 4, "velocity": 81}, {"time": 3793, "pitch": 60, "duration": 4, "velocity": 76}, {"time": 3796, "pitch": 56, "duration": 1, "velocity": 86}, {"time": 3799, "pitch": 48, "duration": 14, "velocity": 88}, {"time": 3799, "pitch": 60, "duration": 2, "velocity": 88}, {"time": 3799, "pitch": 63, "duration": 4, "velocity": 88}, {"time": 3803, "pitch": 60, "duration": 4, "velocity": 82}, {"time": 3805, "pitch": 63, "duration": 3, "velocity": 81}, {"time": 3808, "pitch": 67, "duration": 7, "velocity": 90}, {"time": 3811, "pitch": 55, "duration": 4, "velocity": 85}, {"time": 3814, "pitch": 60, "duration": 4, "velocity": 87}, {"time": 3817, "pitch": 63, "duration": 4, "velocity": 84}, {"time": 3820, "pitch": 60, "duration": 3, "velocity": 84}, {"time": 3821, "pitch": 58, "duration": 3, "velocity": 69}, {"time": 3822, "pitch": 62, "duration": 3, "velocity": 78}, {"time": 3823, "pitch": 65, "duration": 16, "velocity": 86}, {"time": 3823, "pitch": 46, "duration": 17, "velocity": 88}, {"time": 3824, "pitch": 70, "duration": 14, "velocity": 86}, {"time": 3829, "pitch": 53, "duration": 10, "velocity": 78}, {"time": 3835, "pitch": 58, "duration": 3, "velocity": 70}, {"time": 3845, "pitch": 60, "duration": 10, "velocity": 70}, {"time": 3845, "pitch": 65, "duration": 11, "velocity": 82}, {"time": 3846, "pitch": 41, "duration": 22, "velocity": 86}, {"time": 3846, "pitch": 68, "duration": 10, "velocity": 83}, {"time": 3852, "pitch": 48, "duration": 10, "velocity": 75}, {"time": 3859, "pitch": 68, "duration": 9, "velocity": 86}, {"time": 3859, "pitch": 65, "duration": 9, "velocity": 88}, {"time": 3859, "pitch": 60, "duration": 4, "velocity": 87}, {"time": 3865, "pitch": 48, "duration": 5, "velocity": 86}, {"time": 3871, "pitch": 41, "duration": 13, "velocity": 88}, {"time": 3871, "pitch": 60, "duration": 7, "velocity": 80}, {"time": 3871, "pitch": 65, "duration": 8, "velocity": 87}, {"time": 3876, "pitch": 48, "duration": 8, "velocity": 78}, {"time": 3883, "pitch": 60, "duration": 2, "velocity": 87}, {"time": 3883, "pitch": 65, "duration": 3, "velocity": 89}, {"time": 3883, "pitch": 68, "duration": 3, "velocity": 84}, {"time": 3892, "pitch": 58, "duration": 15, "velocity": 71}, {"time": 3893, "pitch": 62, "duration": 14, "velocity": 77}, {"time": 3894, "pitch": 65, "duration": 14, "velocity": 79}, {"time": 3895, "pitch": 46, "duration": 15, "velocity": 87}, {"time": 3895, "pitch": 70, "duration": 12, "velocity": 79}, {"time": 3915, "pitch": 53, "duration": 8, "velocity": 71}, {"time": 3917, "pitch": 56, "duration": 6, "velocity": 75}, {"time": 3918, "pitch": 60, "duration": 11, "velocity": 81}, {"time": 3918, "pitch": 41, "duration": 17, "velocity": 88}, {"time": 3925, "pitch": 48, "duration": 10, "velocity": 78}, {"time": 3928, "pitch": 53, "duration": 5, "velocity": 82}, {"time": 3931, "pitch": 56, "duration": 3, "velocity": 84}, {"time": 3931, "pitch": 60, "duration": 3, "velocity": 80}, {"time": 3931, "pitch": 65, "duration": 5, "velocity": 83}, {"time": 3941, "pitch": 58, "duration": 11, "velocity": 72}, {"time": 3942, "pitch": 62, "duration": 10, "velocity": 73}, {"time": 3943, "pitch": 65, "duration": 9, "velocity": 78}, {"time": 3943, "pitch": 46, "duration": 15, "velocity": 87}, {"time": 3943, "pitch": 70, "duration": 7, "velocity": 79}, {"time": 3949, "pitch": 53, "duration": 8, "velocity": 74}, {"time": 3955, "pitch": 62, "duration": 6, "velocity": 81}, {"time": 3955, "pitch": 65, "duration": 7, "velocity": 85}, {"time": 3955, "pitch": 58, "duration": 2, "velocity": 76}, {"time": 3961, "pitch": 58, "duration": 1, "velocity": 79}, {"time": 3966, "pitch": 60, "duration": 8, "velocity": 72}, {"time": 3966, "pitch": 65, "duration": 8, "velocity": 77}, {"time": 3967, "pitch": 41, "duration": 14, "velocity": 84}, {"time": 3972, "pitch": 48, "duration": 8, "velocity": 62}, {"time": 3978, "pitch": 60, "duration": 2, "velocity": 79}, {"time": 3978, "pitch": 65, "duration": 2, "velocity": 87}, {"time": 3978, "pitch": 68, "duration": 3, "velocity": 83}, {"time": 3989, "pitch": 58, "duration": 4, "velocity": 64}, {"time": 3989, "pitch": 62, "duration": 7, "velocity": 71}, {"time": 3990, "pitch": 65, "duration": 7, "velocity": 81}, {"time": 3990, "pitch": 46, "duration": 16, "velocity": 87}, {"time": 3991, "pitch": 70, "duration": 5, "velocity": 86}, {"time": 3996, "pitch": 53, "duration": 8, "velocity": 73}, {"time": 4002, "pitch": 62, "duration": 6, "velocity": 63}, {"time": 4003, "pitch": 65, "duration": 6, "velocity": 64}, {"time": 4003, "pitch": 58, "duration": 1, "velocity": 49}, {"time": 4003, "pitch": 70, "duration": 5, "velocity": 49}, {"time": 4008, "pitch": 58, "duration": 2, "velocity": 68}, {"time": 4015, "pitch": 41, "duration": 14, "velocity": 87}, {"time": 4021, "pitch": 53, "duration": 7, "velocity": 81}, {"time": 4026, "pitch": 60, "duration": 4, "velocity": 70}, {"time": 4027, "pitch": 56, "duration": 1, "velocity": 63}, {"time": 4038, "pitch": 62, "duration": 10, "velocity": 78}, {"time": 4038, "pitch": 46, "duration": 17, "velocity": 76}, {"time": 4044, "pitch": 53, "duration": 9, "velocity": 69}, {"time": 4050, "pitch": 62, "duration": 5, "velocity": 68}, {"time": 4050, "pitch": 65, "duration": 6, "velocity": 77}, {"time": 4062, "pitch": 41, "duration": 15, "velocity": 71}, {"time": 4062, "pitch": 65, "duration": 14, "velocity": 73}, {"time": 4068, "pitch": 48, "duration": 8, "velocity": 56}, {"time": 4075, "pitch": 68, "duration": 23, "velocity": 71}, {"time": 4080, "pitch": 60, "duration": 6, "velocity": 60}, {"time": 4086, "pitch": 46, "duration": 18, "velocity": 63}, {"time": 4092, "pitch": 62, "duration": 14, "velocity": 74}, {"time": 4099, "pitch": 65, "duration": 12, "velocity": 72}, {"time": 4105, "pitch": 58, "duration": 7, "velocity": 54}, {"time": 4111, "pitch": 41, "duration": 20, "velocity": 69}, {"time": 4117, "pitch": 56, "duration": 7, "velocity": 80}, {"time": 4123, "pitch": 60, "duration": 8, "velocity": 76}, {"time": 4134, "pitch": 41, "duration": 11, "velocity": 54}, {"time": 4135, "pitch": 53, "duration": 12, "velocity": 75}, {"time": 4136, "pitch": 56, "duration": 11, "velocity": 74}, {"time": 4138, "pitch": 60, "duration": 9, "velocity": 68}, {"time": 4139, "pitch": 65, "duration": 9, "velocity": 51}], "annotations": [{"time": 9, "annotation": {"number": 64, "value": 127}, "group": "control_change"}, {"time": 9, "annotation": {"number": 64, "value": 0}, "group": "control_change"}, {"time": 10, "annotation": {"number": 64, "value": 0}, "group": "control_change"}, {"time": 22, "annotation": {"number": 64, "value": 127}, "group": "control_change"}, {"time": 22, "annotation": {"number": 64, "value": 0}, "group": "control_change"}, {"time": 168, "annotation": {"number": 64, "value": 0}, "group": "control_change"}, {"time": 169, "annotation": {"number": 64, "value": 127}, "group": "control_change"}, {"time": 461, "annotation": {"number": 64, "value": 0}, "group": "control_change"}, {"time": 465, "annotation": {"number": 64, "value": 127}, "group": "control_change"}, {"time": 557, "annotation": {"number": 64, "value": 0}, "group": "control_change"}, {"time": 583, "annotation": {"number": 64, "value": 127}, "group": "control_change"}, {"time": 583, "annotation": {"number": 64, "value": 0}, "group": "control_change"}, {"time": 584, "annotation": {"number": 64, "value": 127}, "group": "control_change"}, {"time": 607, "annotation": {"number": 64, "value": 0}, "group": "control_change"}, {"time": 607, "annotation": {"number": 64, "value": 127}, "group": "control_change"}, {"time": 631, "annotation": {"number": 64, "value": 0}, "group": "control_change"}, {"time": 632, "annotation": {"number": 64, "value": 127}, "group": "control_change"}, {"time": 676, "annotation": {"number": 64, "value": 0}, "group": "control_change"}, {"time": 680, "annotation": {"number": 64, "value": 127}, "group": "control_change"}, {"time": 727, "annotation": {"number": 64, "value": 0}, "group": "control_change"}, {"time": 727, "annotation": {"number": 64, "value": 127}, "group": "control_change"}, {"time": 774, "annotation": {"number": 64, "value": 0}, "group": "control_change"}, {"time": 777, "annotation": {"number": 64, "value": 127}, "group": "control_change"}, {"time": 797, "annotation": {"number": 64, "value": 0}, "group": "control_change"}, {"time": 801, "annotation": {"number": 64, "value": 127}, "group": "control_change"}, {"time": 821, "annotation": {"number": 64, "value": 0}, "group": "control_change"}, {"time": 824, "annotation": {"number": 64, "value": 127}, "group": "control_change"}, {"time": 870, "annotation": {"number": 64, "value": 0}, "group": "control_change"}, {"time": 873, "annotation": {"number": 64, "value": 127}, "group": "control_change"}, {"time": 919, "annotation": {"number": 64, "value": 0}, "group": "control_change"}, {"time": 921, "annotation": {"number": 64, "value": 127}, "group": "control_change"}, {"time": 966, "annotation": {"number": 64, "value": 0}, "group": "control_change"}, {"time": 971, "annotation": {"number": 64, "value": 127}, "group": "control_change"}, {"time": 989, "annotation": {"number": 64, "value": 0}, "group": "control_change"}, {"time": 992, "annotation": {"number": 64, "value": 127}, "group": "control_change"}, {"time": 1013, "annotation": {"number": 64, "value": 0}, "group": "control_change"}, {"time": 1016, "annotation": {"number": 64, "value": 127}, "group": "control_change"}, {"time": 1062, "annotation": {"number": 64, "value": 0}, "group": "control_change"}, {"time": 1065, "annotation": {"number": 64, "value": 127}, "group": "control_change"}, {"time": 1087, "annotation": {"number": 64, "value": 0}, "group": "control_change"}, {"time": 1089, "annotation": {"number": 64, "value": 127}, "group": "control_change"}, {"time": 1109, "annotation": {"number": 64, "value": 0}, "group": "control_change"}, {"time": 1115, "annotation": {"number": 64, "value": 127}, "group": "control_change"}, {"time": 1135, "annotation": {"number": 64, "value": 0}, "group": "control_change"}, {"time": 1138, "annotation": {"number": 64, "value": 127}, "group": "control_change"}, {"time": 1158, "annotation": {"number": 64, "value": 0}, "group": "control_change"}, {"time": 1162, "annotation": {"number": 64, "value": 127}, "group": "control_change"}, {"time": 1182, "annotation": {"number": 64, "value": 0}, "group": "control_change"}, {"time": 1184, "annotation": {"number": 64, "value": 127}, "group": "control_change"}, {"time": 1205, "annotation": {"number": 64, "value": 0}, "group": "control_change"}, {"time": 1209, "annotation": {"number": 64, "value": 127}, "group": "control_change"}, {"time": 1230, "annotation": {"number": 64, "value": 0}, "group": "control_change"}, {"time": 1237, "annotation": {"number": 64, "value": 127}, "group": "control_change"}, {"time": 1255, "annotation": {"number": 64, "value": 127}, "group": "control_change"}, {"time": 1277, "annotation": {"number": 64, "value": 0}, "group": "control_change"}, {"time": 1279, "annotation": {"number": 64, "value": 127}, "group": "control_change"}, {"time": 1302, "annotation": {"number": 64, "value": 0}, "group": "control_change"}, {"time": 1305, "annotation": {"number": 64, "value": 127}, "group": "control_change"}, {"time": 1326, "annotation": {"number": 64, "value": 0}, "group": "control_change"}, {"time": 1327, "annotation": {"number": 64, "value": 127}, "group": "control_change"}, {"time": 1350, "annotation": {"number": 64, "value": 0}, "group": "control_change"}, {"time": 1351, "annotation": {"number": 64, "value": 127}, "group": "control_change"}, {"time": 1374, "annotation": {"number": 64, "value": 0}, "group": "control_change"}, {"time": 1376, "annotation": {"number": 64, "value": 127}, "group": "control_change"}, {"time": 1398, "annotation": {"number": 64, "value": 0}, "group": "control_change"}, {"time": 1399, "annotation": {"number": 64, "value": 127}, "group": "control_change"}, {"time": 1423, "annotation": {"number": 64, "value": 0}, "group": "control_change"}, {"time": 1425, "annotation": {"number": 64, "value": 127}, "group": "control_change"}, {"time": 1446, "annotation": {"number": 64, "value": 0}, "group": "control_change"}, {"time": 1448, "annotation": {"number": 64, "value": 127}, "group": "control_change"}, {"time": 1470, "annotation": {"number": 64, "value": 0}, "group": "control_change"}, {"time": 1471, "annotation": {"number": 64, "value": 127}, "group": "control_change"}, {"time": 1494, "annotation": {"number": 64, "value": 0}, "group": "control_change"}, {"time": 1495, "annotation": {"number": 64, "value": 127}, "group": "control_change"}, {"time": 1518, "annotation": {"number": 64, "value": 0}, "group": "control_change"}, {"time": 1519, "annotation": {"number": 64, "value": 127}, "group": "control_change"}, {"time": 1542, "annotation": {"number": 64, "value": 0}, "group": "control_change"}, {"time": 1544, "annotation": {"number": 64, "value": 127}, "group": "control_change"}, {"time": 1566, "annotation": {"number": 64, "value": 0}, "group": "control_change"}, {"time": 1568, "annotation": {"number": 64, "value": 127}, "group": "control_change"}, {"time": 1591, "annotation": {"number": 64, "value": 0}, "group": "control_change"}, {"time": 1592, "annotation": {"number": 64, "value": 127}, "group": "control_change"}, {"time": 1614, "annotation": {"number": 64, "value": 0}, "group": "control_change"}, {"time": 1616, "annotation": {"number": 64, "value": 127}, "group": "control_change"}, {"time": 1639, "annotation": {"number": 64, "value": 0}, "group": "control_change"}, {"time": 1640, "annotation": {"number": 64, "value": 127}, "group": "control_change"}, {"time": 1662, "annotation": {"number": 64, "value": 0}, "group": "control_change"}, {"time": 1664, "annotation": {"number": 64, "value": 127}, "group": "control_change"}, {"time": 1687, "annotation": {"number": 64, "value": 0}, "group": "control_change"}, {"time": 1689, "annotation": {"number": 64, "value": 127}, "group": "control_change"}, {"time": 1711, "annotation": {"number": 64, "value": 127}, "group": "control_change"}, {"time": 1731, "annotation": {"number": 64, "value": 0}, "group": "control_change"}, {"time": 1735, "annotation": {"number": 64, "value": 127}, "group": "control_change"}, {"time": 1758, "annotation": {"number": 64, "value": 0}, "group": "control_change"}, {"time": 1759, "annotation": {"number": 64, "value": 127}, "group": "control_change"}, {"time": 1783, "annotation": {"number": 64, "value": 0}, "group": "control_change"}, {"time": 1784, "annotation": {"number": 64, "value": 127}, "group": "control_change"}, {"time": 1806, "annotation": {"number": 64, "value": 0}, "group": "control_change"}, {"time": 1808, "annotation": {"number": 64, "value": 127}, "group": "control_change"}, {"time": 1830, "annotation": {"number": 64, "value": 0}, "group": "control_change"}, {"time": 1832, "annotation": {"number": 64, "value": 127}, "group": "control_change"}, {"time": 1855, "annotation": {"number": 64, "value": 0}, "group": "control_change"}, {"time": 1856, "annotation": {"number": 64, "value": 127}, "group": "control_change"}, {"time": 1878, "annotation": {"number": 64, "value": 0}, "group": "control_change"}, {"time": 1879, "annotation": {"number": 64, "value": 127}, "group": "control_change"}, {"time": 1902, "annotation": {"number": 64, "value": 0}, "group": "control_change"}, {"time": 1903, "annotation": {"number": 64, "value": 127}, "group": "control_change"}, {"time": 1926, "annotation": {"number": 64, "value": 0}, "group": "control_change"}, {"time": 1928, "annotation": {"number": 64, "value": 127}, "group": "control_change"}, {"time": 1950, "annotation": {"number": 64, "value": 0}, "group": "control_change"}, {"time": 1952, "annotation": {"number": 64, "value": 127}, "group": "control_change"}, {"time": 1974, "annotation": {"number": 64, "value": 0}, "group": "control_change"}, {"time": 1976, "annotation": {"number": 64, "value": 127}, "group": "control_change"}, {"time": 1997, "annotation": {"number": 64, "value": 0}, "group": "control_change"}, {"time": 1999, "annotation": {"number": 64, "value": 127}, "group": "control_change"}, {"time": 2022, "annotation": {"number": 64, "value": 0}, "group": "control_change"}, {"time": 2024, "annotation": {"number": 64, "value": 127}, "group": "control_change"}, {"time": 2046, "annotation": {"number": 64, "value": 0}, "group": "control_change"}, {"time": 2048, "annotation": {"number": 64, "value": 127}, "group": "control_change"}, {"time": 2070, "annotation": {"number": 64, "value": 0}, "group": "control_change"}, {"time": 2072, "annotation": {"number": 64, "value": 127}, "group": "control_change"}, {"time": 2094, "annotation": {"number": 64, "value": 0}, "group": "control_change"}, {"time": 2096, "annotation": {"number": 64, "value": 127}, "group": "control_change"}, {"time": 2118, "annotation": {"number": 64, "value": 0}, "group": "control_change"}, {"time": 2120, "annotation": {"number": 64, "value": 127}, "group": "control_change"}, {"time": 2142, "annotation": {"number": 64, "value": 0}, "group": "control_change"}, {"time": 2143, "annotation": {"number": 64, "value": 127}, "group": "control_change"}, {"time": 2166, "annotation": {"number": 64, "value": 0}, "group": "control_change"}, {"time": 2168, "annotation": {"number": 64, "value": 127}, "group": "control_change"}, {"time": 2211, "annotation": {"number": 64, "value": 0}, "group": "control_change"}, {"time": 2216, "annotation": {"number": 64, "value": 127}, "group": "control_change"}, {"time": 2263, "annotation": {"number": 64, "value": 0}, "group": "control_change"}, {"time": 2263, "annotation": {"number": 64, "value": 127}, "group": "control_change"}, {"time": 2310, "annotation": {"number": 64, "value": 0}, "group": "control_change"}, {"time": 2313, "annotation": {"number": 64, "value": 127}, "group": "control_change"}, {"time": 2333, "annotation": {"number": 64, "value": 0}, "group": "control_change"}, {"time": 2337, "annotation": {"number": 64, "value": 127}, "group": "control_change"}, {"time": 2357, "annotation": {"number": 64, "value": 0}, "group": "control_change"}, {"time": 2360, "annotation": {"number": 64, "value": 127}, "group": "control_change"}, {"time": 2406, "annotation": {"number": 64, "value": 0}, "group": "control_change"}, {"time": 2409, "annotation": {"number": 64, "value": 127}, "group": "control_change"}, {"time": 2455, "annotation": {"number": 64, "value": 0}, "group": "control_change"}, {"time": 2457, "annotation": {"number": 64, "value": 127}, "group": "control_change"}, {"time": 2502, "annotation": {"number": 64, "value": 0}, "group": "control_change"}, {"time": 2507, "annotation": {"number": 64, "value": 127}, "group": "control_change"}, {"time": 2525, "annotation": {"number": 64, "value": 0}, "group": "control_change"}, {"time": 2528, "annotation": {"number": 64, "value": 127}, "group": "control_change"}, {"time": 2549, "annotation": {"number": 64, "value": 0}, "group": "control_change"}, {"time": 2552, "annotation": {"number": 64, "value": 127}, "group": "control_change"}, {"time": 2598, "annotation": {"number": 64, "value": 0}, "group": "control_change"}, {"time": 2601, "annotation": {"number": 64, "value": 127}, "group": "control_change"}, {"time": 2623, "annotation": {"number": 64, "value": 0}, "group": "control_change"}, {"time": 2625, "annotation": {"number": 64, "value": 127}, "group": "control_change"}, {"time": 2645, "annotation": {"number": 64, "value": 0}, "group": "control_change"}, {"time": 2651, "annotation": {"number": 64, "value": 127}, "group": "control_change"}, {"time": 2671, "annotation": {"number": 64, "value": 0}, "group": "control_change"}, {"time": 2674, "annotation": {"number": 64, "value": 127}, "group": "control_change"}, {"time": 2694, "annotation": {"number": 64, "value": 0}, "group": "control_change"}, {"time": 2698, "annotation": {"number": 64, "value": 127}, "group": "control_change"}, {"time": 2718, "annotation": {"number": 64, "value": 0}, "group": "control_change"}, {"time": 2720, "annotation": {"number": 64, "value": 127}, "group": "control_change"}, {"time": 2741, "annotation": {"number": 64, "value": 0}, "group": "control_change"}, {"time": 2745, "annotation": {"number": 64, "value": 127}, "group": "control_change"}, {"time": 2766, "annotation": {"number": 64, "value": 0}, "group": "control_change"}, {"time": 2773, "annotation": {"number": 64, "value": 127}, "group": "control_change"}, {"time": 2791, "annotation": {"number": 64, "value": 127}, "group": "control_change"}, {"time": 2813, "annotation": {"number": 64, "value": 0}, "group": "control_change"}, {"time": 2815, "annotation": {"number": 64, "value": 127}, "group": "control_change"}, {"time": 2838, "annotation": {"number": 64, "value": 0}, "group": "control_change"}, {"time": 2841, "annotation": {"number": 64, "value": 127}, "group": "control_change"}, {"time": 2862, "annotation": {"number": 64, "value": 0}, "group": "control_change"}, {"time": 2863, "annotation": {"number": 64, "value": 127}, "group": "control_change"}, {"time": 2886, "annotation": {"number": 64, "value": 0}, "group": "control_change"}, {"time": 2887, "annotation": {"number": 64, "value": 127}, "group": "control_change"}, {"time": 2910, "annotation": {"number": 64, "value": 0}, "group": "control_change"}, {"time": 2912, "annotation": {"number": 64, "value": 127}, "group": "control_change"}, {"time": 2934, "annotation": {"number": 64, "value": 0}, "group": "control_change"}, {"time": 2935, "annotation": {"number": 64, "value": 127}, "group": "control_change"}, {"time": 2959, "annotation": {"number": 64, "value": 0}, "group": "control_change"}, {"time": 2961, "annotation": {"number": 64, "value": 127}, "group": "control_change"}, {"time": 2982, "annotation": {"number": 64, "value": 0}, "group": "control_change"}, {"time": 2984, "annotation": {"number": 64, "value": 127}, "group": "control_change"}, {"time": 3006, "annotation": {"number": 64, "value": 0}, "group": "control_change"}, {"time": 3007, "annotation": {"number": 64, "value": 127}, "group": "control_change"}, {"time": 3030, "annotation": {"number": 64, "value": 0}, "group": "control_change"}, {"time": 3031, "annotation": {"number": 64, "value": 127}, "group": "control_change"}, {"time": 3054, "annotation": {"number": 64, "value": 0}, "group": "control_change"}, {"time": 3055, "annotation": {"number": 64, "value": 127}, "group": "control_change"}, {"time": 3078, "annotation": {"number": 64, "value": 0}, "group": "control_change"}, {"time": 3080, "annotation": {"number": 64, "value": 127}, "group": "control_change"}, {"time": 3102, "annotation": {"number": 64, "value": 0}, "group": "control_change"}, {"time": 3104, "annotation": {"number": 64, "value": 127}, "group": "control_change"}, {"time": 3127, "annotation": {"number": 64, "value": 0}, "group": "control_change"}, {"time": 3128, "annotation": {"number": 64, "value": 127}, "group": "control_change"}, {"time": 3150, "annotation": {"number": 64, "value": 0}, "group": "control_change"}, {"time": 3152, "annotation": {"number": 64, "value": 127}, "group": "control_change"}, {"time": 3175, "annotation": {"number": 64, "value": 0}, "group": "control_change"}, {"time": 3176, "annotation": {"number": 64, "value": 127}, "group": "control_change"}, {"time": 3198, "annotation": {"number": 64, "value": 0}, "group": "control_change"}, {"time": 3200, "annotation": {"number": 64, "value": 127}, "group": "control_change"}, {"time": 3223, "annotation": {"number": 64, "value": 0}, "group": "control_change"}, {"time": 3225, "annotation": {"number": 64, "value": 127}, "group": "control_change"}, {"time": 3247, "annotation": {"number": 64, "value": 127}, "group": "control_change"}, {"time": 3267, "annotation": {"number": 64, "value": 0}, "group": "control_change"}, {"time": 3271, "annotation": {"number": 64, "value": 127}, "group": "control_change"}, {"time": 3294, "annotation": {"number": 64, "value": 0}, "group": "control_change"}, {"time": 3295, "annotation": {"number": 64, "value": 127}, "group": "control_change"}, {"time": 3319, "annotation": {"number": 64, "value": 0}, "group": "control_change"}, {"time": 3320, "annotation": {"number": 64, "value": 127}, "group": "control_change"}, {"time": 3343, "annotation": {"number": 64, "value": 127}, "group": "control_change"}, {"time": 3366, "annotation": {"number": 64, "value": 0}, "group": "control_change"}, {"time": 3367, "annotation": {"number": 64, "value": 127}, "group": "control_change"}, {"time": 3390, "annotation": {"number": 64, "value": 0}, "group": "control_change"}, {"time": 3392, "annotation": {"number": 64, "value": 127}, "group": "control_change"}, {"time": 3413, "annotation": {"number": 64, "value": 0}, "group": "control_change"}, {"time": 3415, "annotation": {"number": 64, "value": 127}, "group": "control_change"}, {"time": 3437, "annotation": {"number": 64, "value": 0}, "group": "control_change"}, {"time": 3439, "annotation": {"number": 64, "value": 127}, "group": "control_change"}, {"time": 3461, "annotation": {"number": 64, "value": 0}, "group": "control_change"}, {"time": 3463, "annotation": {"number": 64, "value": 127}, "group": "control_change"}, {"time": 3485, "annotation": {"number": 64, "value": 0}, "group": "control_change"}, {"time": 3487, "annotation": {"number": 64, "value": 127}, "group": "control_change"}, {"time": 3511, "annotation": {"number": 64, "value": 0}, "group": "control_change"}, {"time": 3513, "annotation": {"number": 64, "value": 127}, "group": "control_change"}, {"time": 3534, "annotation": {"number": 64, "value": 0}, "group": "control_change"}, {"time": 3536, "annotation": {"number": 64, "value": 127}, "group": "control_change"}, {"time": 3558, "annotation": {"number": 64, "value": 0}, "group": "control_change"}, {"time": 3560, "annotation": {"number": 64, "value": 127}, "group": "control_change"}, {"time": 3583, "annotation": {"number": 64, "value": 0}, "group": "control_change"}, {"time": 3583, "annotation": {"number": 64, "value": 127}, "group": "control_change"}, {"time": 3606, "annotation": {"number": 64, "value": 0}, "group": "control_change"}, {"time": 3607, "annotation": {"number": 64, "value": 127}, "group": "control_change"}, {"time": 3630, "annotation": {"number": 64, "value": 0}, "group": "control_change"}, {"time": 3632, "annotation": {"number": 64, "value": 127}, "group": "control_change"}, {"time": 3653, "annotation": {"number": 64, "value": 0}, "group": "control_change"}, {"time": 3655, "annotation": {"number": 64, "value": 127}, "group": "control_change"}, {"time": 3677, "annotation": {"number": 64, "value": 0}, "group": "control_change"}, {"time": 3679, "annotation": {"number": 64, "value": 127}, "group": "control_change"}, {"time": 3701, "annotation": {"number": 64, "value": 0}, "group": "control_change"}, {"time": 3703, "annotation": {"number": 64, "value": 127}, "group": "control_change"}, {"time": 3725, "annotation": {"number": 64, "value": 0}, "group": "control_change"}, {"time": 3727, "annotation": {"number": 64, "value": 127}, "group": "control_change"}, {"time": 3751, "annotation": {"number": 64, "value": 0}, "group": "control_change"}, {"time": 3753, "annotation": {"number": 64, "value": 127}, "group": "control_change"}, {"time": 3774, "annotation": {"number": 64, "value": 0}, "group": "control_change"}, {"time": 3776, "annotation": {"number": 64, "value": 127}, "group": "control_change"}, {"time": 3798, "annotation": {"number": 64, "value": 0}, "group": "control_change"}, {"time": 3800, "annotation": {"number": 64, "value": 127}, "group": "control_change"}, {"time": 3823, "annotation": {"number": 64, "value": 0}, "group": "control_change"}, {"time": 3824, "annotation": {"number": 64, "value": 127}, "group": "control_change"}, {"time": 3846, "annotation": {"number": 64, "value": 0}, "group": "control_change"}, {"time": 3849, "annotation": {"number": 64, "value": 127}, "group": "control_change"}, {"time": 3871, "annotation": {"number": 64, "value": 0}, "group": "control_change"}, {"time": 3872, "annotation": {"number": 64, "value": 127}, "group": "control_change"}, {"time": 3893, "annotation": {"number": 64, "value": 0}, "group": "control_change"}, {"time": 3896, "annotation": {"number": 64, "value": 127}, "group": "control_change"}, {"time": 3916, "annotation": {"number": 64, "value": 0}, "group": "control_change"}, {"time": 3920, "annotation": {"number": 64, "value": 127}, "group": "control_change"}, {"time": 3941, "annotation": {"number": 64, "value": 0}, "group": "control_change"}, {"time": 3945, "annotation": {"number": 64, "value": 127}, "group": "control_change"}, {"time": 3966, "annotation": {"number": 64, "value": 0}, "group": "control_change"}, {"time": 3969, "annotation": {"number": 64, "value": 127}, "group": "control_change"}, {"time": 3988, "annotation": {"number": 64, "value": 0}, "group": "control_change"}, {"time": 3991, "annotation": {"number": 64, "value": 127}, "group": "control_change"}, {"time": 4015, "annotation": {"number": 64, "value": 0}, "group": "control_change"}, {"time": 4016, "annotation": {"number": 64, "value": 127}, "group": "control_change"}, {"time": 4037, "annotation": {"number": 64, "value": 0}, "group": "control_change"}, {"time": 4039, "annotation": {"number": 64, "value": 127}, "group": "control_change"}, {"time": 4062, "annotation": {"number": 64, "value": 0}, "group": "control_change"}, {"time": 4065, "annotation": {"number": 64, "value": 127}, "group": "control_change"}, {"time": 4086, "annotation": {"number": 64, "value": 0}, "group": "control_change"}, {"time": 4089, "annotation": {"number": 64, "value": 127}, "group": "control_change"}, {"time": 4110, "annotation": {"number": 64, "value": 0}, "group": "control_change"}, {"time": 4113, "annotation": {"number": 64, "value": 127}, "group": "control_change"}, {"time": 4166, "annotation": {"number": 64, "value": 0}, "group": "control_change"}]}]}