{"metadata": {"schema_version": "0.2", "title": "None", "source_filename": "676.mid", "source_format": "midi"}, "resolution": 12, "tempos": [{"time": 0, "qpm": 75.0}], "time_signatures": [{"time": 0, "numerator": 1, "denominator": 4}], "tracks": [{"program": 0, "is_drum": false, "name": "MELODY", "notes": [{"time": 421, "pitch": 67, "duration": 5, "velocity": 83}, {"time": 427, "pitch": 70, "duration": 6, "velocity": 86}, {"time": 433, "pitch": 72, "duration": 5, "velocity": 84}, {"time": 439, "pitch": 70, "duration": 6, "velocity": 83}, {"time": 445, "pitch": 72, "duration": 6, "velocity": 80}, {"time": 451, "pitch": 75, "duration": 5, "velocity": 86}, {"time": 457, "pitch": 74, "duration": 6, "velocity": 84}, {"time": 463, "pitch": 75, "duration": 5, "velocity": 84}, {"time": 469, "pitch": 74, "duration": 8, "velocity": 90}, {"time": 481, "pitch": 70, "duration": 6, "velocity": 83}, {"time": 487, "pitch": 67, "duration": 20, "velocity": 78}, {"time": 517, "pitch": 67, "duration": 5, "velocity": 82}, {"time": 523, "pitch": 70, "duration": 5, "velocity": 80}, {"time": 529, "pitch": 72, "duration": 5, "velocity": 81}, {"time": 535, "pitch": 70, "duration": 6, "velocity": 84}, {"time": 541, "pitch": 72, "duration": 4, "velocity": 80}, {"time": 547, "pitch": 75, "duration": 5, "velocity": 86}, {"time": 553, "pitch": 74, "duration": 4, "velocity": 85}, {"time": 559, "pitch": 72, "duration": 5, "velocity": 86}, {"time": 565, "pitch": 72, "duration": 5, "velocity": 79}, {"time": 571, "pitch": 70, "duration": 12, "velocity": 90}, {"time": 583, "pitch": 79, "duration": 24, "velocity": 81}, {"time": 619, "pitch": 70, "duration": 5, "velocity": 86}, {"time": 625, "pitch": 79, "duration": 7, "velocity": 84}, {"time": 634, "pitch": 77, "duration": 8, "velocity": 82}, {"time": 643, "pitch": 75, "duration": 5, "velocity": 84}, {"time": 649, "pitch": 77, "duration": 13, "velocity": 81}, {"time": 667, "pitch": 70, "duration": 5, "velocity": 85}, {"time": 673, "pitch": 77, "duration": 7, "velocity": 83}, {"time": 682, "pitch": 77, "duration": 7, "velocity": 80}, {"time": 691, "pitch": 72, "duration": 4, "velocity": 90}, {"time": 697, "pitch": 75, "duration": 12, "velocity": 83}, {"time": 715, "pitch": 70, "duration": 5, "velocity": 88}, {"time": 721, "pitch": 72, "duration": 7, "velocity": 67}, {"time": 730, "pitch": 79, "duration": 6, "velocity": 83}, {"time": 739, "pitch": 70, "duration": 4, "velocity": 80}, {"time": 745, "pitch": 72, "duration": 8, "velocity": 82}, {"time": 754, "pitch": 79, "duration": 7, "velocity": 83}, {"time": 763, "pitch": 70, "duration": 5, "velocity": 80}, {"time": 769, "pitch": 72, "duration": 36, "velocity": 72}, {"time": 805, "pitch": 67, "duration": 5, "velocity": 83}, {"time": 811, "pitch": 70, "duration": 6, "velocity": 86}, {"time": 817, "pitch": 72, "duration": 5, "velocity": 84}, {"time": 823, "pitch": 70, "duration": 6, "velocity": 83}, {"time": 829, "pitch": 72, "duration": 6, "velocity": 80}, {"time": 835, "pitch": 75, "duration": 5, "velocity": 86}, {"time": 841, "pitch": 74, "duration": 6, "velocity": 84}, {"time": 847, "pitch": 75, "duration": 5, "velocity": 84}, {"time": 853, "pitch": 74, "duration": 8, "velocity": 90}, {"time": 865, "pitch": 70, "duration": 6, "velocity": 83}, {"time": 871, "pitch": 67, "duration": 20, "velocity": 78}, {"time": 901, "pitch": 67, "duration": 5, "velocity": 82}, {"time": 907, "pitch": 70, "duration": 5, "velocity": 80}, {"time": 913, "pitch": 72, "duration": 5, "velocity": 81}, {"time": 919, "pitch": 70, "duration": 6, "velocity": 84}, {"time": 925, "pitch": 72, "duration": 4, "velocity": 80}, {"time": 931, "pitch": 75, "duration": 5, "velocity": 86}, {"time": 937, "pitch": 74, "duration": 4, "velocity": 85}, {"time": 943, "pitch": 72, "duration": 5, "velocity": 86}, {"time": 949, "pitch": 72, "duration": 5, "velocity": 79}, {"time": 955, "pitch": 70, "duration": 12, "velocity": 90}, {"time": 967, "pitch": 79, "duration": 24, "velocity": 81}, {"time": 1003, "pitch": 70, "duration": 5, "velocity": 86}, {"time": 1009, "pitch": 79, "duration": 7, "velocity": 84}, {"time": 1018, "pitch": 77, "duration": 8, "velocity": 82}, {"time": 1027, "pitch": 75, "duration": 5, "velocity": 84}, {"time": 1033, "pitch": 77, "duration": 13, "velocity": 81}, {"time": 1051, "pitch": 70, "duration": 5, "velocity": 85}, {"time": 1057, "pitch": 77, "duration": 7, "velocity": 83}, {"time": 1066, "pitch": 77, "duration": 7, "velocity": 80}, {"time": 1075, "pitch": 72, "duration": 4, "velocity": 90}, {"time": 1081, "pitch": 75, "duration": 12, "velocity": 83}, {"time": 1099, "pitch": 70, "duration": 5, "velocity": 88}, {"time": 1105, "pitch": 72, "duration": 7, "velocity": 67}, {"time": 1114, "pitch": 79, "duration": 6, "velocity": 83}, {"time": 1123, "pitch": 70, "duration": 4, "velocity": 80}, {"time": 1129, "pitch": 72, "duration": 8, "velocity": 82}, {"time": 1138, "pitch": 79, "duration": 7, "velocity": 83}, {"time": 1147, "pitch": 75, "duration": 5, "velocity": 80}, {"time": 1153, "pitch": 72, "duration": 24, "velocity": 72}, {"time": 1183, "pitch": 75, "duration": 5, "velocity": 90}, {"time": 1189, "pitch": 72, "duration": 4, "velocity": 85}, {"time": 1195, "pitch": 72, "duration": 5, "velocity": 88}, {"time": 1201, "pitch": 82, "duration": 7, "velocity": 85}, {"time": 1210, "pitch": 79, "duration": 7, "velocity": 83}, {"time": 1219, "pitch": 75, "duration": 5, "velocity": 90}, {"time": 1225, "pitch": 77, "duration": 13, "velocity": 80}, {"time": 1243, "pitch": 70, "duration": 5, "velocity": 86}, {"time": 1249, "pitch": 82, "duration": 7, "velocity": 80}, {"time": 1258, "pitch": 82, "duration": 6, "velocity": 79}, {"time": 1267, "pitch": 75, "duration": 5, "velocity": 82}, {"time": 1273, "pitch": 72, "duration": 13, "velocity": 86}, {"time": 1291, "pitch": 70, "duration": 4, "velocity": 86}, {"time": 1297, "pitch": 72, "duration": 8, "velocity": 85}, {"time": 1306, "pitch": 82, "duration": 6, "velocity": 80}, {"time": 1315, "pitch": 70, "duration": 4, "velocity": 83}, {"time": 1321, "pitch": 72, "duration": 8, "velocity": 86}, {"time": 1330, "pitch": 82, "duration": 6, "velocity": 85}, {"time": 1339, "pitch": 77, "duration": 11, "velocity": 84}, {"time": 1351, "pitch": 79, "duration": 23, "velocity": 82}, {"time": 1375, "pitch": 75, "duration": 5, "velocity": 82}, {"time": 1381, "pitch": 72, "duration": 4, "velocity": 86}, {"time": 1387, "pitch": 72, "duration": 4, "velocity": 85}, {"time": 1393, "pitch": 82, "duration": 7, "velocity": 83}, {"time": 1402, "pitch": 79, "duration": 7, "velocity": 80}, {"time": 1411, "pitch": 75, "duration": 5, "velocity": 83}, {"time": 1417, "pitch": 77, "duration": 14, "velocity": 79}, {"time": 1435, "pitch": 70, "duration": 5, "velocity": 86}, {"time": 1441, "pitch": 82, "duration": 7, "velocity": 81}, {"time": 1450, "pitch": 82, "duration": 7, "velocity": 80}, {"time": 1459, "pitch": 70, "duration": 4, "velocity": 79}, {"time": 1465, "pitch": 72, "duration": 14, "velocity": 80}, {"time": 1483, "pitch": 70, "duration": 5, "velocity": 84}, {"time": 1489, "pitch": 72, "duration": 7, "velocity": 83}, {"time": 1498, "pitch": 79, "duration": 6, "velocity": 81}, {"time": 1507, "pitch": 70, "duration": 5, "velocity": 82}, {"time": 1513, "pitch": 72, "duration": 8, "velocity": 82}, {"time": 1522, "pitch": 79, "duration": 6, "velocity": 83}, {"time": 1531, "pitch": 70, "duration": 12, "velocity": 84}, {"time": 1543, "pitch": 72, "duration": 37, "velocity": 88}, {"time": 1957, "pitch": 67, "duration": 5, "velocity": 83}, {"time": 1963, "pitch": 70, "duration": 6, "velocity": 86}, {"time": 1969, "pitch": 72, "duration": 5, "velocity": 84}, {"time": 1975, "pitch": 70, "duration": 6, "velocity": 83}, {"time": 1981, "pitch": 72, "duration": 6, "velocity": 80}, {"time": 1987, "pitch": 75, "duration": 5, "velocity": 86}, {"time": 1993, "pitch": 74, "duration": 6, "velocity": 84}, {"time": 1999, "pitch": 75, "duration": 5, "velocity": 84}, {"time": 2005, "pitch": 74, "duration": 8, "velocity": 90}, {"time": 2017, "pitch": 70, "duration": 6, "velocity": 83}, {"time": 2023, "pitch": 67, "duration": 20, "velocity": 78}, {"time": 2053, "pitch": 67, "duration": 5, "velocity": 82}, {"time": 2059, "pitch": 70, "duration": 5, "velocity": 80}, {"time": 2065, "pitch": 72, "duration": 5, "velocity": 81}, {"time": 2071, "pitch": 70, "duration": 6, "velocity": 84}, {"time": 2077, "pitch": 72, "duration": 4, "velocity": 80}, {"time": 2083, "pitch": 75, "duration": 5, "velocity": 86}, {"time": 2089, "pitch": 74, "duration": 4, "velocity": 85}, {"time": 2095, "pitch": 72, "duration": 5, "velocity": 86}, {"time": 2101, "pitch": 72, "duration": 5, "velocity": 79}, {"time": 2107, "pitch": 70, "duration": 12, "velocity": 90}, {"time": 2119, "pitch": 79, "duration": 24, "velocity": 81}, {"time": 2155, "pitch": 70, "duration": 5, "velocity": 86}, {"time": 2161, "pitch": 79, "duration": 7, "velocity": 84}, {"time": 2170, "pitch": 77, "duration": 8, "velocity": 82}, {"time": 2179, "pitch": 75, "duration": 5, "velocity": 84}, {"time": 2185, "pitch": 77, "duration": 13, "velocity": 81}, {"time": 2203, "pitch": 70, "duration": 5, "velocity": 85}, {"time": 2209, "pitch": 77, "duration": 7, "velocity": 83}, {"time": 2218, "pitch": 77, "duration": 7, "velocity": 80}, {"time": 2227, "pitch": 72, "duration": 4, "velocity": 90}, {"time": 2233, "pitch": 75, "duration": 12, "velocity": 83}, {"time": 2251, "pitch": 70, "duration": 5, "velocity": 88}, {"time": 2257, "pitch": 72, "duration": 7, "velocity": 67}, {"time": 2266, "pitch": 79, "duration": 6, "velocity": 83}, {"time": 2275, "pitch": 70, "duration": 4, "velocity": 80}, {"time": 2281, "pitch": 72, "duration": 8, "velocity": 82}, {"time": 2290, "pitch": 79, "duration": 7, "velocity": 83}, {"time": 2299, "pitch": 75, "duration": 5, "velocity": 80}, {"time": 2305, "pitch": 72, "duration": 24, "velocity": 72}, {"time": 2335, "pitch": 75, "duration": 5, "velocity": 90}, {"time": 2341, "pitch": 72, "duration": 4, "velocity": 85}, {"time": 2347, "pitch": 72, "duration": 5, "velocity": 88}, {"time": 2353, "pitch": 82, "duration": 7, "velocity": 85}, {"time": 2362, "pitch": 79, "duration": 7, "velocity": 83}, {"time": 2371, "pitch": 75, "duration": 5, "velocity": 90}, {"time": 2377, "pitch": 77, "duration": 13, "velocity": 80}, {"time": 2395, "pitch": 70, "duration": 5, "velocity": 86}, {"time": 2401, "pitch": 82, "duration": 7, "velocity": 80}, {"time": 2410, "pitch": 82, "duration": 6, "velocity": 79}, {"time": 2419, "pitch": 75, "duration": 5, "velocity": 82}, {"time": 2425, "pitch": 72, "duration": 13, "velocity": 86}, {"time": 2443, "pitch": 70, "duration": 4, "velocity": 86}, {"time": 2449, "pitch": 72, "duration": 8, "velocity": 85}, {"time": 2458, "pitch": 82, "duration": 6, "velocity": 80}, {"time": 2467, "pitch": 70, "duration": 4, "velocity": 83}, {"time": 2473, "pitch": 72, "duration": 8, "velocity": 86}, {"time": 2482, "pitch": 82, "duration": 6, "velocity": 85}, {"time": 2491, "pitch": 77, "duration": 11, "velocity": 84}, {"time": 2503, "pitch": 79, "duration": 23, "velocity": 82}, {"time": 2527, "pitch": 75, "duration": 5, "velocity": 82}, {"time": 2533, "pitch": 72, "duration": 4, "velocity": 86}, {"time": 2539, "pitch": 72, "duration": 4, "velocity": 85}, {"time": 2545, "pitch": 82, "duration": 7, "velocity": 83}, {"time": 2554, "pitch": 79, "duration": 7, "velocity": 80}, {"time": 2563, "pitch": 75, "duration": 5, "velocity": 83}, {"time": 2569, "pitch": 77, "duration": 14, "velocity": 79}, {"time": 2587, "pitch": 70, "duration": 5, "velocity": 86}, {"time": 2593, "pitch": 82, "duration": 7, "velocity": 81}, {"time": 2602, "pitch": 82, "duration": 7, "velocity": 80}, {"time": 2611, "pitch": 70, "duration": 4, "velocity": 79}, {"time": 2617, "pitch": 72, "duration": 14, "velocity": 80}, {"time": 2635, "pitch": 70, "duration": 5, "velocity": 84}, {"time": 2641, "pitch": 72, "duration": 7, "velocity": 83}, {"time": 2650, "pitch": 79, "duration": 6, "velocity": 81}, {"time": 2659, "pitch": 70, "duration": 5, "velocity": 82}, {"time": 2665, "pitch": 72, "duration": 8, "velocity": 82}, {"time": 2674, "pitch": 79, "duration": 6, "velocity": 83}, {"time": 2683, "pitch": 70, "duration": 6, "velocity": 84}, {"time": 2689, "pitch": 72, "duration": 24, "velocity": 88}, {"time": 2719, "pitch": 75, "duration": 5, "velocity": 90}, {"time": 2725, "pitch": 72, "duration": 4, "velocity": 85}, {"time": 2731, "pitch": 72, "duration": 5, "velocity": 88}, {"time": 2737, "pitch": 82, "duration": 7, "velocity": 85}, {"time": 2746, "pitch": 79, "duration": 7, "velocity": 83}, {"time": 2755, "pitch": 75, "duration": 5, "velocity": 90}, {"time": 2761, "pitch": 77, "duration": 13, "velocity": 80}, {"time": 2779, "pitch": 70, "duration": 5, "velocity": 86}, {"time": 2785, "pitch": 82, "duration": 7, "velocity": 80}, {"time": 2794, "pitch": 82, "duration": 6, "velocity": 79}, {"time": 2803, "pitch": 75, "duration": 5, "velocity": 82}, {"time": 2809, "pitch": 72, "duration": 13, "velocity": 86}, {"time": 2827, "pitch": 70, "duration": 4, "velocity": 86}, {"time": 2833, "pitch": 72, "duration": 8, "velocity": 85}, {"time": 2842, "pitch": 82, "duration": 6, "velocity": 80}, {"time": 2851, "pitch": 70, "duration": 4, "velocity": 83}, {"time": 2857, "pitch": 72, "duration": 8, "velocity": 86}, {"time": 2866, "pitch": 82, "duration": 6, "velocity": 85}, {"time": 2875, "pitch": 77, "duration": 11, "velocity": 84}, {"time": 2887, "pitch": 79, "duration": 23, "velocity": 82}, {"time": 2911, "pitch": 75, "duration": 5, "velocity": 82}, {"time": 2917, "pitch": 72, "duration": 4, "velocity": 86}, {"time": 2923, "pitch": 72, "duration": 4, "velocity": 85}, {"time": 2929, "pitch": 82, "duration": 7, "velocity": 83}, {"time": 2938, "pitch": 79, "duration": 7, "velocity": 80}, {"time": 2947, "pitch": 75, "duration": 5, "velocity": 83}, {"time": 2953, "pitch": 77, "duration": 14, "velocity": 79}, {"time": 2971, "pitch": 70, "duration": 5, "velocity": 86}, {"time": 2977, "pitch": 82, "duration": 7, "velocity": 81}, {"time": 2986, "pitch": 82, "duration": 7, "velocity": 80}, {"time": 2995, "pitch": 70, "duration": 4, "velocity": 79}, {"time": 3001, "pitch": 72, "duration": 14, "velocity": 80}, {"time": 3019, "pitch": 70, "duration": 5, "velocity": 84}, {"time": 3025, "pitch": 72, "duration": 7, "velocity": 83}, {"time": 3034, "pitch": 79, "duration": 6, "velocity": 81}, {"time": 3043, "pitch": 70, "duration": 5, "velocity": 82}, {"time": 3049, "pitch": 72, "duration": 8, "velocity": 82}, {"time": 3058, "pitch": 79, "duration": 6, "velocity": 83}, {"time": 3067, "pitch": 70, "duration": 6, "velocity": 84}, {"time": 3073, "pitch": 72, "duration": 30, "velocity": 88}, {"time": 3115, "pitch": 70, "duration": 5, "velocity": 84}, {"time": 3121, "pitch": 72, "duration": 7, "velocity": 83}, {"time": 3130, "pitch": 79, "duration": 6, "velocity": 81}, {"time": 3139, "pitch": 70, "duration": 5, "velocity": 82}, {"time": 3145, "pitch": 72, "duration": 8, "velocity": 82}, {"time": 3154, "pitch": 79, "duration": 6, "velocity": 83}, {"time": 3163, "pitch": 70, "duration": 6, "velocity": 84}, {"time": 3169, "pitch": 72, "duration": 30, "velocity": 88}]}, {"program": 0, "is_drum": false, "name": "BRIDGE", "notes": [{"time": 37, "pitch": 75, "duration": 6, "velocity": 95}, {"time": 43, "pitch": 74, "duration": 6, "velocity": 90}, {"time": 49, "pitch": 72, "duration": 9, "velocity": 93}, {"time": 58, "pitch": 79, "duration": 13, "velocity": 86}, {"time": 67, "pitch": 75, "duration": 5, "velocity": 82}, {"time": 73, "pitch": 74, "duration": 12, "velocity": 96}, {"time": 85, "pitch": 75, "duration": 5, "velocity": 82}, {"time": 91, "pitch": 74, "duration": 5, "velocity": 95}, {"time": 97, "pitch": 75, "duration": 12, "velocity": 95}, {"time": 109, "pitch": 74, "duration": 6, "velocity": 95}, {"time": 115, "pitch": 75, "duration": 3, "velocity": 86}, {"time": 118, "pitch": 74, "duration": 2, "velocity": 82}, {"time": 121, "pitch": 72, "duration": 12, "velocity": 83}, {"time": 139, "pitch": 67, "duration": 3, "velocity": 86}, {"time": 142, "pitch": 70, "duration": 2, "velocity": 83}, {"time": 145, "pitch": 72, "duration": 8, "velocity": 82}, {"time": 154, "pitch": 79, "duration": 7, "velocity": 86}, {"time": 163, "pitch": 75, "duration": 6, "velocity": 85}, {"time": 169, "pitch": 74, "duration": 8, "velocity": 90}, {"time": 178, "pitch": 70, "duration": 3, "velocity": 85}, {"time": 181, "pitch": 67, "duration": 6, "velocity": 85}, {"time": 187, "pitch": 65, "duration": 6, "velocity": 83}, {"time": 193, "pitch": 67, "duration": 31, "velocity": 81}, {"time": 229, "pitch": 58, "duration": 7, "velocity": 79}, {"time": 229, "pitch": 67, "duration": 6, "velocity": 93}, {"time": 235, "pitch": 60, "duration": 7, "velocity": 79}, {"time": 235, "pitch": 70, "duration": 6, "velocity": 83}, {"time": 241, "pitch": 67, "duration": 24, "velocity": 75}, {"time": 241, "pitch": 72, "duration": 30, "velocity": 88}, {"time": 265, "pitch": 65, "duration": 24, "velocity": 80}, {"time": 274, "pitch": 74, "duration": 1, "velocity": 69}, {"time": 275, "pitch": 72, "duration": 3, "velocity": 75}, {"time": 277, "pitch": 70, "duration": 6, "velocity": 100}, {"time": 283, "pitch": 72, "duration": 5, "velocity": 83}, {"time": 289, "pitch": 55, "duration": 13, "velocity": 75}, {"time": 289, "pitch": 75, "duration": 12, "velocity": 86}, {"time": 301, "pitch": 58, "duration": 12, "velocity": 77}, {"time": 301, "pitch": 77, "duration": 5, "velocity": 85}, {"time": 307, "pitch": 79, "duration": 5, "velocity": 85}, {"time": 313, "pitch": 60, "duration": 24, "velocity": 75}, {"time": 313, "pitch": 75, "duration": 24, "velocity": 93}, {"time": 337, "pitch": 63, "duration": 25, "velocity": 74}, {"time": 337, "pitch": 72, "duration": 22, "velocity": 95}, {"time": 361, "pitch": 62, "duration": 24, "velocity": 70}, {"time": 361, "pitch": 74, "duration": 11, "velocity": 96}, {"time": 373, "pitch": 75, "duration": 5, "velocity": 90}, {"time": 379, "pitch": 70, "duration": 5, "velocity": 88}, {"time": 385, "pitch": 60, "duration": 46, "velocity": 73}, {"time": 385, "pitch": 72, "duration": 46, "velocity": 88}, {"time": 787, "pitch": 67, "duration": 8, "velocity": 66}, {"time": 793, "pitch": 75, "duration": 12, "velocity": 79}, {"time": 799, "pitch": 67, "duration": 9, "velocity": 60}, {"time": 805, "pitch": 74, "duration": 12, "velocity": 75}, {"time": 817, "pitch": 72, "duration": 23, "velocity": 77}, {"time": 841, "pitch": 70, "duration": 22, "velocity": 63}, {"time": 841, "pitch": 74, "duration": 22, "velocity": 75}, {"time": 865, "pitch": 72, "duration": 18, "velocity": 79}, {"time": 883, "pitch": 74, "duration": 6, "velocity": 73}, {"time": 889, "pitch": 75, "duration": 21, "velocity": 75}, {"time": 913, "pitch": 72, "duration": 20, "velocity": 75}, {"time": 937, "pitch": 74, "duration": 12, "velocity": 80}, {"time": 949, "pitch": 70, "duration": 12, "velocity": 69}, {"time": 961, "pitch": 67, "duration": 18, "velocity": 71}, {"time": 979, "pitch": 65, "duration": 7, "velocity": 75}, {"time": 985, "pitch": 67, "duration": 25, "velocity": 75}, {"time": 1009, "pitch": 72, "duration": 23, "velocity": 77}, {"time": 1033, "pitch": 70, "duration": 13, "velocity": 77}, {"time": 1057, "pitch": 67, "duration": 26, "velocity": 66}, {"time": 1057, "pitch": 70, "duration": 25, "velocity": 71}, {"time": 1081, "pitch": 75, "duration": 7, "velocity": 80}, {"time": 1087, "pitch": 67, "duration": 13, "velocity": 73}, {"time": 1093, "pitch": 74, "duration": 12, "velocity": 80}, {"time": 1105, "pitch": 72, "duration": 19, "velocity": 74}, {"time": 1129, "pitch": 70, "duration": 20, "velocity": 67}, {"time": 1129, "pitch": 74, "duration": 23, "velocity": 79}, {"time": 1153, "pitch": 67, "duration": 43, "velocity": 70}, {"time": 1153, "pitch": 72, "duration": 44, "velocity": 72}, {"time": 1201, "pitch": 79, "duration": 24, "velocity": 80}, {"time": 1225, "pitch": 77, "duration": 22, "velocity": 82}, {"time": 1249, "pitch": 79, "duration": 19, "velocity": 88}, {"time": 1267, "pitch": 82, "duration": 6, "velocity": 83}, {"time": 1273, "pitch": 84, "duration": 13, "velocity": 82}, {"time": 1285, "pitch": 79, "duration": 6, "velocity": 79}, {"time": 1291, "pitch": 77, "duration": 7, "velocity": 73}, {"time": 1297, "pitch": 75, "duration": 12, "velocity": 80}, {"time": 1309, "pitch": 72, "duration": 11, "velocity": 80}, {"time": 1321, "pitch": 74, "duration": 17, "velocity": 86}, {"time": 1339, "pitch": 77, "duration": 7, "velocity": 79}, {"time": 1345, "pitch": 75, "duration": 12, "velocity": 88}, {"time": 1357, "pitch": 77, "duration": 7, "velocity": 80}, {"time": 1363, "pitch": 75, "duration": 6, "velocity": 85}, {"time": 1369, "pitch": 79, "duration": 25, "velocity": 82}, {"time": 1393, "pitch": 75, "duration": 12, "velocity": 81}, {"time": 1405, "pitch": 72, "duration": 6, "velocity": 80}, {"time": 1411, "pitch": 75, "duration": 6, "velocity": 81}, {"time": 1417, "pitch": 77, "duration": 25, "velocity": 81}, {"time": 1441, "pitch": 82, "duration": 12, "velocity": 81}, {"time": 1453, "pitch": 79, "duration": 7, "velocity": 81}, {"time": 1459, "pitch": 82, "duration": 6, "velocity": 81}, {"time": 1465, "pitch": 84, "duration": 20, "velocity": 83}, {"time": 1501, "pitch": 75, "duration": 11, "velocity": 80}, {"time": 1513, "pitch": 77, "duration": 12, "velocity": 75}, {"time": 1525, "pitch": 74, "duration": 10, "velocity": 85}, {"time": 1537, "pitch": 72, "duration": 44, "velocity": 80}, {"time": 1585, "pitch": 67, "duration": 5, "velocity": 83}, {"time": 1591, "pitch": 68, "duration": 3, "velocity": 83}, {"time": 1594, "pitch": 67, "duration": 7, "velocity": 83}, {"time": 1603, "pitch": 72, "duration": 5, "velocity": 85}, {"time": 1609, "pitch": 67, "duration": 4, "velocity": 80}, {"time": 1615, "pitch": 65, "duration": 3, "velocity": 85}, {"time": 1618, "pitch": 67, "duration": 7, "velocity": 83}, {"time": 1627, "pitch": 75, "duration": 5, "velocity": 86}, {"time": 1633, "pitch": 67, "duration": 5, "velocity": 90}, {"time": 1639, "pitch": 65, "duration": 2, "velocity": 85}, {"time": 1642, "pitch": 67, "duration": 7, "velocity": 83}, {"time": 1651, "pitch": 75, "duration": 3, "velocity": 86}, {"time": 1654, "pitch": 74, "duration": 2, "velocity": 84}, {"time": 1657, "pitch": 72, "duration": 9, "velocity": 90}, {"time": 1666, "pitch": 65, "duration": 3, "velocity": 80}, {"time": 1669, "pitch": 63, "duration": 2, "velocity": 84}, {"time": 1672, "pitch": 65, "duration": 2, "velocity": 78}, {"time": 1675, "pitch": 67, "duration": 2, "velocity": 80}, {"time": 1678, "pitch": 70, "duration": 2, "velocity": 83}, {"time": 1681, "pitch": 72, "duration": 6, "velocity": 80}, {"time": 1687, "pitch": 67, "duration": 2, "velocity": 78}, {"time": 1690, "pitch": 65, "duration": 7, "velocity": 82}, {"time": 1699, "pitch": 67, "duration": 5, "velocity": 83}, {"time": 1705, "pitch": 75, "duration": 5, "velocity": 85}, {"time": 1711, "pitch": 74, "duration": 2, "velocity": 88}, {"time": 1714, "pitch": 70, "duration": 7, "velocity": 90}, {"time": 1723, "pitch": 72, "duration": 2, "velocity": 80}, {"time": 1726, "pitch": 70, "duration": 3, "velocity": 83}, {"time": 1729, "pitch": 67, "duration": 36, "velocity": 81}, {"time": 1777, "pitch": 84, "duration": 32, "velocity": 95}, {"time": 1810, "pitch": 79, "duration": 3, "velocity": 81}, {"time": 1813, "pitch": 82, "duration": 6, "velocity": 86}, {"time": 1819, "pitch": 77, "duration": 6, "velocity": 86}, {"time": 1825, "pitch": 82, "duration": 18, "velocity": 100}, {"time": 1843, "pitch": 79, "duration": 6, "velocity": 86}, {"time": 1849, "pitch": 75, "duration": 18, "velocity": 86}, {"time": 1864, "pitch": 77, "duration": 4, "velocity": 81}, {"time": 1867, "pitch": 79, "duration": 3, "velocity": 84}, {"time": 1870, "pitch": 82, "duration": 2, "velocity": 86}, {"time": 1873, "pitch": 84, "duration": 12, "velocity": 85}, {"time": 1888, "pitch": 79, "duration": 3, "velocity": 81}, {"time": 1891, "pitch": 77, "duration": 3, "velocity": 84}, {"time": 1894, "pitch": 79, "duration": 3, "velocity": 85}, {"time": 1897, "pitch": 86, "duration": 14, "velocity": 86}, {"time": 1912, "pitch": 77, "duration": 3, "velocity": 85}, {"time": 1915, "pitch": 79, "duration": 3, "velocity": 88}, {"time": 1918, "pitch": 87, "duration": 3, "velocity": 81}, {"time": 1921, "pitch": 84, "duration": 36, "velocity": 80}, {"time": 1969, "pitch": 72, "duration": 23, "velocity": 77}, {"time": 1993, "pitch": 70, "duration": 22, "velocity": 63}, {"time": 1993, "pitch": 74, "duration": 22, "velocity": 75}, {"time": 2017, "pitch": 72, "duration": 18, "velocity": 79}, {"time": 2035, "pitch": 74, "duration": 6, "velocity": 73}, {"time": 2041, "pitch": 75, "duration": 21, "velocity": 75}, {"time": 2065, "pitch": 72, "duration": 20, "velocity": 75}, {"time": 2089, "pitch": 74, "duration": 12, "velocity": 80}, {"time": 2101, "pitch": 70, "duration": 12, "velocity": 69}, {"time": 2113, "pitch": 67, "duration": 18, "velocity": 71}, {"time": 2131, "pitch": 65, "duration": 7, "velocity": 75}, {"time": 2137, "pitch": 67, "duration": 25, "velocity": 75}, {"time": 2161, "pitch": 72, "duration": 23, "velocity": 77}, {"time": 2185, "pitch": 70, "duration": 13, "velocity": 77}, {"time": 2209, "pitch": 67, "duration": 26, "velocity": 66}, {"time": 2209, "pitch": 70, "duration": 25, "velocity": 71}, {"time": 2233, "pitch": 75, "duration": 7, "velocity": 80}, {"time": 2239, "pitch": 67, "duration": 13, "velocity": 73}, {"time": 2245, "pitch": 74, "duration": 12, "velocity": 80}, {"time": 2257, "pitch": 72, "duration": 19, "velocity": 74}, {"time": 2281, "pitch": 70, "duration": 20, "velocity": 67}, {"time": 2281, "pitch": 74, "duration": 23, "velocity": 79}, {"time": 2305, "pitch": 67, "duration": 43, "velocity": 70}, {"time": 2305, "pitch": 72, "duration": 44, "velocity": 72}, {"time": 2353, "pitch": 79, "duration": 24, "velocity": 80}, {"time": 2377, "pitch": 77, "duration": 22, "velocity": 82}, {"time": 2401, "pitch": 79, "duration": 19, "velocity": 88}, {"time": 2419, "pitch": 82, "duration": 6, "velocity": 83}, {"time": 2425, "pitch": 84, "duration": 13, "velocity": 82}, {"time": 2437, "pitch": 79, "duration": 6, "velocity": 79}, {"time": 2443, "pitch": 77, "duration": 7, "velocity": 73}, {"time": 2449, "pitch": 75, "duration": 12, "velocity": 80}, {"time": 2461, "pitch": 72, "duration": 11, "velocity": 80}, {"time": 2473, "pitch": 74, "duration": 17, "velocity": 86}, {"time": 2491, "pitch": 77, "duration": 7, "velocity": 79}, {"time": 2497, "pitch": 75, "duration": 12, "velocity": 88}, {"time": 2509, "pitch": 77, "duration": 7, "velocity": 80}, {"time": 2515, "pitch": 75, "duration": 6, "velocity": 85}, {"time": 2521, "pitch": 79, "duration": 25, "velocity": 82}, {"time": 2545, "pitch": 75, "duration": 12, "velocity": 81}, {"time": 2557, "pitch": 72, "duration": 6, "velocity": 80}, {"time": 2563, "pitch": 75, "duration": 6, "velocity": 81}, {"time": 2569, "pitch": 77, "duration": 25, "velocity": 81}, {"time": 2593, "pitch": 82, "duration": 12, "velocity": 81}, {"time": 2605, "pitch": 79, "duration": 7, "velocity": 81}, {"time": 2611, "pitch": 82, "duration": 6, "velocity": 81}, {"time": 2617, "pitch": 84, "duration": 20, "velocity": 83}, {"time": 2653, "pitch": 75, "duration": 11, "velocity": 80}, {"time": 2665, "pitch": 77, "duration": 12, "velocity": 75}, {"time": 2677, "pitch": 74, "duration": 10, "velocity": 85}, {"time": 2689, "pitch": 72, "duration": 44, "velocity": 80}, {"time": 2737, "pitch": 67, "duration": 5, "velocity": 83}, {"time": 2743, "pitch": 68, "duration": 3, "velocity": 83}, {"time": 2746, "pitch": 67, "duration": 7, "velocity": 83}, {"time": 2755, "pitch": 72, "duration": 5, "velocity": 85}, {"time": 2761, "pitch": 67, "duration": 4, "velocity": 80}, {"time": 2767, "pitch": 65, "duration": 3, "velocity": 85}, {"time": 2770, "pitch": 67, "duration": 7, "velocity": 83}, {"time": 2779, "pitch": 75, "duration": 5, "velocity": 86}, {"time": 2785, "pitch": 67, "duration": 5, "velocity": 90}, {"time": 2791, "pitch": 65, "duration": 2, "velocity": 85}, {"time": 2794, "pitch": 67, "duration": 7, "velocity": 83}, {"time": 2803, "pitch": 75, "duration": 3, "velocity": 86}, {"time": 2806, "pitch": 74, "duration": 2, "velocity": 84}, {"time": 2809, "pitch": 72, "duration": 9, "velocity": 90}, {"time": 2818, "pitch": 65, "duration": 3, "velocity": 80}, {"time": 2821, "pitch": 63, "duration": 2, "velocity": 84}, {"time": 2824, "pitch": 65, "duration": 2, "velocity": 78}, {"time": 2827, "pitch": 67, "duration": 2, "velocity": 80}, {"time": 2830, "pitch": 70, "duration": 2, "velocity": 83}, {"time": 2833, "pitch": 72, "duration": 6, "velocity": 80}, {"time": 2839, "pitch": 67, "duration": 2, "velocity": 78}, {"time": 2842, "pitch": 65, "duration": 7, "velocity": 82}, {"time": 2851, "pitch": 67, "duration": 5, "velocity": 83}, {"time": 2857, "pitch": 75, "duration": 5, "velocity": 85}, {"time": 2863, "pitch": 74, "duration": 2, "velocity": 88}, {"time": 2866, "pitch": 70, "duration": 7, "velocity": 90}, {"time": 2875, "pitch": 72, "duration": 2, "velocity": 80}, {"time": 2878, "pitch": 70, "duration": 3, "velocity": 83}, {"time": 2881, "pitch": 67, "duration": 36, "velocity": 81}, {"time": 2929, "pitch": 84, "duration": 32, "velocity": 95}, {"time": 2962, "pitch": 79, "duration": 3, "velocity": 81}, {"time": 2965, "pitch": 82, "duration": 6, "velocity": 86}, {"time": 2971, "pitch": 77, "duration": 6, "velocity": 86}, {"time": 2977, "pitch": 82, "duration": 18, "velocity": 100}, {"time": 2995, "pitch": 79, "duration": 6, "velocity": 86}, {"time": 3001, "pitch": 75, "duration": 18, "velocity": 86}, {"time": 3016, "pitch": 77, "duration": 4, "velocity": 81}, {"time": 3019, "pitch": 79, "duration": 3, "velocity": 84}, {"time": 3022, "pitch": 82, "duration": 2, "velocity": 86}, {"time": 3025, "pitch": 84, "duration": 12, "velocity": 85}, {"time": 3040, "pitch": 79, "duration": 3, "velocity": 81}, {"time": 3043, "pitch": 77, "duration": 3, "velocity": 84}, {"time": 3046, "pitch": 79, "duration": 3, "velocity": 85}, {"time": 3049, "pitch": 86, "duration": 14, "velocity": 86}, {"time": 3064, "pitch": 77, "duration": 3, "velocity": 85}, {"time": 3067, "pitch": 79, "duration": 3, "velocity": 88}, {"time": 3070, "pitch": 87, "duration": 3, "velocity": 81}, {"time": 3073, "pitch": 84, "duration": 36, "velocity": 80}, {"time": 3121, "pitch": 75, "duration": 13, "velocity": 75}, {"time": 3133, "pitch": 72, "duration": 7, "velocity": 80}, {"time": 3139, "pitch": 79, "duration": 7, "velocity": 78}, {"time": 3145, "pitch": 77, "duration": 12, "velocity": 79}, {"time": 3157, "pitch": 74, "duration": 12, "velocity": 79}, {"time": 3169, "pitch": 72, "duration": 47, "velocity": 76}, {"time": 3205, "pitch": 75, "duration": 6, "velocity": 95}, {"time": 3211, "pitch": 74, "duration": 6, "velocity": 90}, {"time": 3217, "pitch": 72, "duration": 9, "velocity": 93}, {"time": 3226, "pitch": 79, "duration": 13, "velocity": 86}, {"time": 3235, "pitch": 75, "duration": 5, "velocity": 82}, {"time": 3241, "pitch": 74, "duration": 12, "velocity": 96}, {"time": 3253, "pitch": 75, "duration": 5, "velocity": 82}, {"time": 3259, "pitch": 74, "duration": 5, "velocity": 95}, {"time": 3265, "pitch": 75, "duration": 12, "velocity": 95}, {"time": 3277, "pitch": 74, "duration": 6, "velocity": 95}, {"time": 3283, "pitch": 75, "duration": 3, "velocity": 86}, {"time": 3286, "pitch": 74, "duration": 2, "velocity": 82}, {"time": 3289, "pitch": 72, "duration": 12, "velocity": 83}, {"time": 3307, "pitch": 67, "duration": 3, "velocity": 86}, {"time": 3310, "pitch": 70, "duration": 2, "velocity": 83}, {"time": 3313, "pitch": 72, "duration": 8, "velocity": 82}, {"time": 3322, "pitch": 79, "duration": 7, "velocity": 86}, {"time": 3331, "pitch": 75, "duration": 6, "velocity": 85}, {"time": 3337, "pitch": 74, "duration": 8, "velocity": 90}, {"time": 3346, "pitch": 75, "duration": 4, "velocity": 81}, {"time": 3349, "pitch": 74, "duration": 4, "velocity": 90}, {"time": 3355, "pitch": 70, "duration": 26, "velocity": 84}, {"time": 3385, "pitch": 72, "duration": 53, "velocity": 79}]}, {"program": 0, "is_drum": false, "name": "PIANO", "notes": [{"time": 49, "pitch": 44, "duration": 14, "velocity": 73}, {"time": 49, "pitch": 56, "duration": 1, "velocity": 62}, {"time": 49, "pitch": 63, "duration": 13, "velocity": 67}, {"time": 55, "pitch": 51, "duration": 9, "velocity": 69}, {"time": 61, "pitch": 56, "duration": 6, "velocity": 80}, {"time": 67, "pitch": 63, "duration": 2, "velocity": 81}, {"time": 73, "pitch": 46, "duration": 13, "velocity": 72}, {"time": 73, "pitch": 62, "duration": 12, "velocity": 72}, {"time": 79, "pitch": 53, "duration": 7, "velocity": 66}, {"time": 85, "pitch": 58, "duration": 2, "velocity": 80}, {"time": 97, "pitch": 39, "duration": 7, "velocity": 82}, {"time": 97, "pitch": 58, "duration": 17, "velocity": 58}, {"time": 97, "pitch": 63, "duration": 18, "velocity": 72}, {"time": 103, "pitch": 46, "duration": 2, "velocity": 67}, {"time": 109, "pitch": 38, "duration": 4, "velocity": 81}, {"time": 121, "pitch": 48, "duration": 15, "velocity": 78}, {"time": 121, "pitch": 55, "duration": 3, "velocity": 70}, {"time": 121, "pitch": 60, "duration": 9, "velocity": 73}, {"time": 127, "pitch": 55, "duration": 7, "velocity": 72}, {"time": 133, "pitch": 60, "duration": 4, "velocity": 80}, {"time": 133, "pitch": 63, "duration": 6, "velocity": 79}, {"time": 145, "pitch": 44, "duration": 20, "velocity": 81}, {"time": 145, "pitch": 63, "duration": 13, "velocity": 71}, {"time": 151, "pitch": 51, "duration": 14, "velocity": 69}, {"time": 157, "pitch": 56, "duration": 6, "velocity": 86}, {"time": 163, "pitch": 63, "duration": 7, "velocity": 82}, {"time": 169, "pitch": 46, "duration": 14, "velocity": 72}, {"time": 169, "pitch": 62, "duration": 12, "velocity": 79}, {"time": 175, "pitch": 53, "duration": 7, "velocity": 70}, {"time": 181, "pitch": 58, "duration": 2, "velocity": 81}, {"time": 193, "pitch": 39, "duration": 39, "velocity": 78}, {"time": 193, "pitch": 63, "duration": 13, "velocity": 71}, {"time": 199, "pitch": 46, "duration": 32, "velocity": 55}, {"time": 205, "pitch": 55, "duration": 13, "velocity": 79}, {"time": 211, "pitch": 58, "duration": 7, "velocity": 84}, {"time": 217, "pitch": 63, "duration": 12, "velocity": 79}, {"time": 223, "pitch": 58, "duration": 6, "velocity": 68}, {"time": 229, "pitch": 67, "duration": 2, "velocity": 83}, {"time": 241, "pitch": 44, "duration": 15, "velocity": 80}, {"time": 241, "pitch": 56, "duration": 7, "velocity": 67}, {"time": 241, "pitch": 60, "duration": 8, "velocity": 73}, {"time": 247, "pitch": 51, "duration": 9, "velocity": 77}, {"time": 253, "pitch": 56, "duration": 7, "velocity": 81}, {"time": 259, "pitch": 63, "duration": 2, "velocity": 80}, {"time": 265, "pitch": 46, "duration": 19, "velocity": 79}, {"time": 265, "pitch": 62, "duration": 12, "velocity": 75}, {"time": 271, "pitch": 53, "duration": 11, "velocity": 67}, {"time": 277, "pitch": 58, "duration": 10, "velocity": 81}, {"time": 289, "pitch": 39, "duration": 18, "velocity": 77}, {"time": 295, "pitch": 46, "duration": 12, "velocity": 76}, {"time": 301, "pitch": 51, "duration": 5, "velocity": 82}, {"time": 307, "pitch": 50, "duration": 4, "velocity": 81}, {"time": 313, "pitch": 36, "duration": 15, "velocity": 76}, {"time": 313, "pitch": 48, "duration": 13, "velocity": 79}, {"time": 313, "pitch": 51, "duration": 10, "velocity": 80}, {"time": 319, "pitch": 43, "duration": 9, "velocity": 66}, {"time": 325, "pitch": 51, "duration": 2, "velocity": 76}, {"time": 325, "pitch": 55, "duration": 2, "velocity": 79}, {"time": 337, "pitch": 44, "duration": 14, "velocity": 88}, {"time": 343, "pitch": 51, "duration": 8, "velocity": 83}, {"time": 349, "pitch": 56, "duration": 4, "velocity": 79}, {"time": 349, "pitch": 63, "duration": 4, "velocity": 77}, {"time": 361, "pitch": 46, "duration": 15, "velocity": 77}, {"time": 361, "pitch": 58, "duration": 9, "velocity": 68}, {"time": 361, "pitch": 62, "duration": 14, "velocity": 74}, {"time": 367, "pitch": 53, "duration": 9, "velocity": 66}, {"time": 373, "pitch": 58, "duration": 2, "velocity": 84}, {"time": 385, "pitch": 48, "duration": 37, "velocity": 81}, {"time": 385, "pitch": 60, "duration": 13, "velocity": 80}, {"time": 391, "pitch": 55, "duration": 31, "velocity": 76}, {"time": 397, "pitch": 62, "duration": 7, "velocity": 81}, {"time": 403, "pitch": 63, "duration": 3, "velocity": 88}, {"time": 409, "pitch": 60, "duration": 12, "velocity": 71}, {"time": 409, "pitch": 67, "duration": 13, "velocity": 75}, {"time": 433, "pitch": 44, "duration": 12, "velocity": 81}, {"time": 433, "pitch": 63, "duration": 13, "velocity": 73}, {"time": 439, "pitch": 51, "duration": 7, "velocity": 79}, {"time": 445, "pitch": 56, "duration": 2, "velocity": 84}, {"time": 457, "pitch": 46, "duration": 18, "velocity": 71}, {"time": 457, "pitch": 58, "duration": 9, "velocity": 65}, {"time": 457, "pitch": 62, "duration": 13, "velocity": 76}, {"time": 463, "pitch": 53, "duration": 11, "velocity": 68}, {"time": 469, "pitch": 58, "duration": 4, "velocity": 79}, {"time": 481, "pitch": 48, "duration": 38, "velocity": 80}, {"time": 481, "pitch": 63, "duration": 12, "velocity": 72}, {"time": 487, "pitch": 55, "duration": 8, "velocity": 69}, {"time": 493, "pitch": 62, "duration": 6, "velocity": 71}, {"time": 499, "pitch": 55, "duration": 20, "velocity": 70}, {"time": 505, "pitch": 60, "duration": 6, "velocity": 73}, {"time": 505, "pitch": 63, "duration": 4, "velocity": 69}, {"time": 505, "pitch": 67, "duration": 6, "velocity": 74}, {"time": 517, "pitch": 60, "duration": 4, "velocity": 72}, {"time": 517, "pitch": 63, "duration": 4, "velocity": 81}, {"time": 523, "pitch": 62, "duration": 2, "velocity": 81}, {"time": 529, "pitch": 44, "duration": 13, "velocity": 79}, {"time": 529, "pitch": 60, "duration": 12, "velocity": 77}, {"time": 535, "pitch": 51, "duration": 7, "velocity": 70}, {"time": 541, "pitch": 56, "duration": 1, "velocity": 83}, {"time": 553, "pitch": 46, "duration": 14, "velocity": 74}, {"time": 553, "pitch": 58, "duration": 7, "velocity": 67}, {"time": 553, "pitch": 62, "duration": 7, "velocity": 74}, {"time": 559, "pitch": 53, "duration": 7, "velocity": 76}, {"time": 565, "pitch": 58, "duration": 1, "velocity": 81}, {"time": 577, "pitch": 39, "duration": 39, "velocity": 74}, {"time": 577, "pitch": 58, "duration": 12, "velocity": 70}, {"time": 577, "pitch": 63, "duration": 12, "velocity": 73}, {"time": 583, "pitch": 46, "duration": 32, "velocity": 71}, {"time": 589, "pitch": 55, "duration": 11, "velocity": 80}, {"time": 595, "pitch": 58, "duration": 2, "velocity": 85}, {"time": 601, "pitch": 63, "duration": 4, "velocity": 81}, {"time": 613, "pitch": 55, "duration": 3, "velocity": 79}, {"time": 613, "pitch": 58, "duration": 3, "velocity": 75}, {"time": 625, "pitch": 44, "duration": 9, "velocity": 80}, {"time": 625, "pitch": 56, "duration": 12, "velocity": 72}, {"time": 625, "pitch": 63, "duration": 12, "velocity": 73}, {"time": 631, "pitch": 51, "duration": 4, "velocity": 77}, {"time": 637, "pitch": 60, "duration": 3, "velocity": 74}, {"time": 649, "pitch": 46, "duration": 15, "velocity": 72}, {"time": 649, "pitch": 58, "duration": 10, "velocity": 65}, {"time": 649, "pitch": 62, "duration": 10, "velocity": 73}, {"time": 655, "pitch": 53, "duration": 8, "velocity": 67}, {"time": 661, "pitch": 58, "duration": 3, "velocity": 72}, {"time": 661, "pitch": 62, "duration": 3, "velocity": 78}, {"time": 661, "pitch": 65, "duration": 4, "velocity": 74}, {"time": 673, "pitch": 43, "duration": 23, "velocity": 79}, {"time": 673, "pitch": 62, "duration": 13, "velocity": 77}, {"time": 679, "pitch": 50, "duration": 13, "velocity": 69}, {"time": 685, "pitch": 58, "duration": 6, "velocity": 81}, {"time": 691, "pitch": 55, "duration": 7, "velocity": 86}, {"time": 697, "pitch": 48, "duration": 13, "velocity": 79}, {"time": 697, "pitch": 63, "duration": 7, "velocity": 81}, {"time": 703, "pitch": 55, "duration": 7, "velocity": 85}, {"time": 709, "pitch": 62, "duration": 13, "velocity": 82}, {"time": 721, "pitch": 44, "duration": 14, "velocity": 78}, {"time": 721, "pitch": 60, "duration": 13, "velocity": 73}, {"time": 727, "pitch": 51, "duration": 9, "velocity": 71}, {"time": 733, "pitch": 56, "duration": 6, "velocity": 88}, {"time": 745, "pitch": 46, "duration": 18, "velocity": 73}, {"time": 745, "pitch": 62, "duration": 12, "velocity": 79}, {"time": 751, "pitch": 53, "duration": 12, "velocity": 65}, {"time": 757, "pitch": 58, "duration": 7, "velocity": 83}, {"time": 763, "pitch": 62, "duration": 6, "velocity": 79}, {"time": 769, "pitch": 36, "duration": 23, "velocity": 77}, {"time": 769, "pitch": 60, "duration": 12, "velocity": 75}, {"time": 775, "pitch": 43, "duration": 17, "velocity": 65}, {"time": 781, "pitch": 55, "duration": 10, "velocity": 70}, {"time": 793, "pitch": 36, "duration": 16, "velocity": 67}, {"time": 793, "pitch": 55, "duration": 7, "velocity": 66}, {"time": 793, "pitch": 60, "duration": 5, "velocity": 71}, {"time": 799, "pitch": 43, "duration": 8, "velocity": 51}, {"time": 805, "pitch": 55, "duration": 4, "velocity": 79}, {"time": 805, "pitch": 63, "duration": 10, "velocity": 82}, {"time": 817, "pitch": 44, "duration": 12, "velocity": 81}, {"time": 817, "pitch": 63, "duration": 13, "velocity": 73}, {"time": 823, "pitch": 51, "duration": 7, "velocity": 79}, {"time": 829, "pitch": 56, "duration": 2, "velocity": 84}, {"time": 841, "pitch": 46, "duration": 18, "velocity": 71}, {"time": 841, "pitch": 58, "duration": 9, "velocity": 65}, {"time": 841, "pitch": 62, "duration": 13, "velocity": 76}, {"time": 847, "pitch": 53, "duration": 11, "velocity": 68}, {"time": 853, "pitch": 58, "duration": 4, "velocity": 79}, {"time": 865, "pitch": 48, "duration": 38, "velocity": 80}, {"time": 865, "pitch": 63, "duration": 12, "velocity": 72}, {"time": 871, "pitch": 55, "duration": 8, "velocity": 69}, {"time": 877, "pitch": 62, "duration": 6, "velocity": 71}, {"time": 883, "pitch": 55, "duration": 20, "velocity": 70}, {"time": 889, "pitch": 60, "duration": 6, "velocity": 73}, {"time": 889, "pitch": 63, "duration": 4, "velocity": 69}, {"time": 889, "pitch": 67, "duration": 6, "velocity": 74}, {"time": 901, "pitch": 60, "duration": 4, "velocity": 72}, {"time": 901, "pitch": 63, "duration": 4, "velocity": 81}, {"time": 907, "pitch": 62, "duration": 2, "velocity": 81}, {"time": 913, "pitch": 44, "duration": 13, "velocity": 79}, {"time": 913, "pitch": 60, "duration": 12, "velocity": 77}, {"time": 919, "pitch": 51, "duration": 7, "velocity": 70}, {"time": 925, "pitch": 56, "duration": 1, "velocity": 83}, {"time": 937, "pitch": 46, "duration": 14, "velocity": 74}, {"time": 937, "pitch": 58, "duration": 7, "velocity": 67}, {"time": 937, "pitch": 62, "duration": 7, "velocity": 74}, {"time": 943, "pitch": 53, "duration": 7, "velocity": 76}, {"time": 949, "pitch": 58, "duration": 1, "velocity": 81}, {"time": 961, "pitch": 39, "duration": 39, "velocity": 74}, {"time": 961, "pitch": 58, "duration": 12, "velocity": 70}, {"time": 961, "pitch": 63, "duration": 12, "velocity": 73}, {"time": 967, "pitch": 46, "duration": 32, "velocity": 71}, {"time": 973, "pitch": 55, "duration": 11, "velocity": 80}, {"time": 979, "pitch": 58, "duration": 2, "velocity": 85}, {"time": 985, "pitch": 63, "duration": 4, "velocity": 81}, {"time": 997, "pitch": 55, "duration": 3, "velocity": 79}, {"time": 997, "pitch": 58, "duration": 3, "velocity": 75}, {"time": 1009, "pitch": 44, "duration": 9, "velocity": 80}, {"time": 1009, "pitch": 56, "duration": 12, "velocity": 72}, {"time": 1009, "pitch": 63, "duration": 12, "velocity": 73}, {"time": 1015, "pitch": 51, "duration": 4, "velocity": 77}, {"time": 1021, "pitch": 60, "duration": 3, "velocity": 74}, {"time": 1033, "pitch": 46, "duration": 15, "velocity": 72}, {"time": 1033, "pitch": 58, "duration": 10, "velocity": 65}, {"time": 1033, "pitch": 62, "duration": 10, "velocity": 73}, {"time": 1039, "pitch": 53, "duration": 8, "velocity": 67}, {"time": 1045, "pitch": 58, "duration": 3, "velocity": 72}, {"time": 1045, "pitch": 62, "duration": 3, "velocity": 78}, {"time": 1045, "pitch": 65, "duration": 4, "velocity": 74}, {"time": 1057, "pitch": 43, "duration": 23, "velocity": 79}, {"time": 1057, "pitch": 62, "duration": 13, "velocity": 77}, {"time": 1063, "pitch": 50, "duration": 13, "velocity": 69}, {"time": 1069, "pitch": 58, "duration": 6, "velocity": 81}, {"time": 1075, "pitch": 55, "duration": 7, "velocity": 86}, {"time": 1081, "pitch": 48, "duration": 13, "velocity": 79}, {"time": 1081, "pitch": 63, "duration": 7, "velocity": 81}, {"time": 1087, "pitch": 55, "duration": 7, "velocity": 85}, {"time": 1093, "pitch": 62, "duration": 13, "velocity": 82}, {"time": 1105, "pitch": 44, "duration": 14, "velocity": 78}, {"time": 1105, "pitch": 60, "duration": 13, "velocity": 73}, {"time": 1111, "pitch": 51, "duration": 9, "velocity": 71}, {"time": 1117, "pitch": 56, "duration": 6, "velocity": 88}, {"time": 1129, "pitch": 46, "duration": 18, "velocity": 73}, {"time": 1129, "pitch": 62, "duration": 12, "velocity": 79}, {"time": 1135, "pitch": 53, "duration": 12, "velocity": 65}, {"time": 1141, "pitch": 58, "duration": 7, "velocity": 83}, {"time": 1147, "pitch": 62, "duration": 6, "velocity": 79}, {"time": 1153, "pitch": 36, "duration": 23, "velocity": 77}, {"time": 1153, "pitch": 60, "duration": 12, "velocity": 75}, {"time": 1159, "pitch": 43, "duration": 17, "velocity": 65}, {"time": 1165, "pitch": 55, "duration": 10, "velocity": 70}, {"time": 1177, "pitch": 36, "duration": 16, "velocity": 67}, {"time": 1177, "pitch": 55, "duration": 7, "velocity": 66}, {"time": 1177, "pitch": 60, "duration": 5, "velocity": 71}, {"time": 1183, "pitch": 43, "duration": 8, "velocity": 51}, {"time": 1189, "pitch": 55, "duration": 4, "velocity": 79}, {"time": 1189, "pitch": 63, "duration": 10, "velocity": 82}, {"time": 1201, "pitch": 44, "duration": 17, "velocity": 83}, {"time": 1201, "pitch": 56, "duration": 4, "velocity": 70}, {"time": 1201, "pitch": 63, "duration": 7, "velocity": 70}, {"time": 1204, "pitch": 51, "duration": 10, "velocity": 66}, {"time": 1207, "pitch": 56, "duration": 4, "velocity": 80}, {"time": 1210, "pitch": 63, "duration": 10, "velocity": 85}, {"time": 1219, "pitch": 51, "duration": 2, "velocity": 75}, {"time": 1222, "pitch": 56, "duration": 2, "velocity": 84}, {"time": 1225, "pitch": 46, "duration": 14, "velocity": 79}, {"time": 1225, "pitch": 62, "duration": 5, "velocity": 74}, {"time": 1228, "pitch": 53, "duration": 14, "velocity": 77}, {"time": 1231, "pitch": 58, "duration": 2, "velocity": 83}, {"time": 1234, "pitch": 58, "duration": 9, "velocity": 70}, {"time": 1234, "pitch": 62, "duration": 10, "velocity": 80}, {"time": 1243, "pitch": 46, "duration": 2, "velocity": 80}, {"time": 1249, "pitch": 43, "duration": 21, "velocity": 79}, {"time": 1249, "pitch": 55, "duration": 4, "velocity": 77}, {"time": 1249, "pitch": 62, "duration": 8, "velocity": 79}, {"time": 1252, "pitch": 50, "duration": 11, "velocity": 73}, {"time": 1255, "pitch": 55, "duration": 4, "velocity": 81}, {"time": 1258, "pitch": 58, "duration": 6, "velocity": 83}, {"time": 1264, "pitch": 55, "duration": 4, "velocity": 85}, {"time": 1267, "pitch": 50, "duration": 3, "velocity": 78}, {"time": 1270, "pitch": 55, "duration": 2, "velocity": 82}, {"time": 1273, "pitch": 48, "duration": 17, "velocity": 77}, {"time": 1273, "pitch": 55, "duration": 3, "velocity": 74}, {"time": 1273, "pitch": 63, "duration": 7, "velocity": 80}, {"time": 1279, "pitch": 55, "duration": 3, "velocity": 79}, {"time": 1285, "pitch": 55, "duration": 4, "velocity": 79}, {"time": 1285, "pitch": 60, "duration": 3, "velocity": 81}, {"time": 1285, "pitch": 63, "duration": 4, "velocity": 81}, {"time": 1291, "pitch": 62, "duration": 2, "velocity": 80}, {"time": 1297, "pitch": 44, "duration": 19, "velocity": 85}, {"time": 1297, "pitch": 60, "duration": 11, "velocity": 78}, {"time": 1303, "pitch": 51, "duration": 13, "velocity": 80}, {"time": 1309, "pitch": 56, "duration": 6, "velocity": 85}, {"time": 1315, "pitch": 60, "duration": 4, "velocity": 82}, {"time": 1321, "pitch": 46, "duration": 14, "velocity": 79}, {"time": 1321, "pitch": 58, "duration": 7, "velocity": 81}, {"time": 1327, "pitch": 53, "duration": 4, "velocity": 82}, {"time": 1333, "pitch": 53, "duration": 2, "velocity": 80}, {"time": 1333, "pitch": 58, "duration": 2, "velocity": 80}, {"time": 1333, "pitch": 62, "duration": 3, "velocity": 79}, {"time": 1345, "pitch": 39, "duration": 23, "velocity": 82}, {"time": 1345, "pitch": 63, "duration": 7, "velocity": 84}, {"time": 1348, "pitch": 46, "duration": 19, "velocity": 75}, {"time": 1351, "pitch": 55, "duration": 7, "velocity": 75}, {"time": 1354, "pitch": 58, "duration": 4, "velocity": 85}, {"time": 1357, "pitch": 67, "duration": 4, "velocity": 82}, {"time": 1360, "pitch": 63, "duration": 4, "velocity": 88}, {"time": 1363, "pitch": 58, "duration": 2, "velocity": 84}, {"time": 1366, "pitch": 55, "duration": 2, "velocity": 79}, {"time": 1369, "pitch": 39, "duration": 13, "velocity": 84}, {"time": 1369, "pitch": 55, "duration": 3, "velocity": 75}, {"time": 1369, "pitch": 58, "duration": 5, "velocity": 72}, {"time": 1369, "pitch": 63, "duration": 6, "velocity": 74}, {"time": 1372, "pitch": 46, "duration": 8, "velocity": 81}, {"time": 1375, "pitch": 55, "duration": 2, "velocity": 78}, {"time": 1378, "pitch": 55, "duration": 4, "velocity": 80}, {"time": 1378, "pitch": 58, "duration": 6, "velocity": 83}, {"time": 1378, "pitch": 63, "duration": 6, "velocity": 81}, {"time": 1378, "pitch": 67, "duration": 7, "velocity": 79}, {"time": 1381, "pitch": 46, "duration": 4, "velocity": 82}, {"time": 1384, "pitch": 55, "duration": 4, "velocity": 82}, {"time": 1387, "pitch": 58, "duration": 1, "velocity": 82}, {"time": 1393, "pitch": 44, "duration": 13, "velocity": 84}, {"time": 1393, "pitch": 56, "duration": 6, "velocity": 72}, {"time": 1393, "pitch": 63, "duration": 6, "velocity": 75}, {"time": 1399, "pitch": 51, "duration": 7, "velocity": 69}, {"time": 1402, "pitch": 56, "duration": 9, "velocity": 83}, {"time": 1411, "pitch": 63, "duration": 1, "velocity": 83}, {"time": 1417, "pitch": 46, "duration": 19, "velocity": 82}, {"time": 1417, "pitch": 58, "duration": 3, "velocity": 45}, {"time": 1417, "pitch": 62, "duration": 6, "velocity": 66}, {"time": 1420, "pitch": 53, "duration": 15, "velocity": 74}, {"time": 1423, "pitch": 58, "duration": 11, "velocity": 85}, {"time": 1426, "pitch": 65, "duration": 12, "velocity": 81}, {"time": 1435, "pitch": 62, "duration": 4, "velocity": 74}, {"time": 1438, "pitch": 58, "duration": 3, "velocity": 79}, {"time": 1441, "pitch": 43, "duration": 22, "velocity": 80}, {"time": 1444, "pitch": 50, "duration": 17, "velocity": 74}, {"time": 1447, "pitch": 55, "duration": 4, "velocity": 81}, {"time": 1450, "pitch": 58, "duration": 8, "velocity": 88}, {"time": 1465, "pitch": 48, "duration": 18, "velocity": 83}, {"time": 1465, "pitch": 55, "duration": 2, "velocity": 79}, {"time": 1465, "pitch": 60, "duration": 4, "velocity": 79}, {"time": 1468, "pitch": 55, "duration": 4, "velocity": 76}, {"time": 1471, "pitch": 60, "duration": 2, "velocity": 76}, {"time": 1474, "pitch": 63, "duration": 5, "velocity": 88}, {"time": 1480, "pitch": 62, "duration": 3, "velocity": 86}, {"time": 1483, "pitch": 60, "duration": 2, "velocity": 84}, {"time": 1489, "pitch": 44, "duration": 13, "velocity": 84}, {"time": 1489, "pitch": 60, "duration": 6, "velocity": 80}, {"time": 1492, "pitch": 51, "duration": 10, "velocity": 72}, {"time": 1495, "pitch": 56, "duration": 4, "velocity": 81}, {"time": 1498, "pitch": 60, "duration": 9, "velocity": 79}, {"time": 1507, "pitch": 56, "duration": 2, "velocity": 68}, {"time": 1513, "pitch": 46, "duration": 19, "velocity": 81}, {"time": 1513, "pitch": 53, "duration": 2, "velocity": 72}, {"time": 1513, "pitch": 58, "duration": 4, "velocity": 72}, {"time": 1516, "pitch": 53, "duration": 5, "velocity": 74}, {"time": 1519, "pitch": 58, "duration": 4, "velocity": 74}, {"time": 1522, "pitch": 62, "duration": 11, "velocity": 81}, {"time": 1531, "pitch": 58, "duration": 2, "velocity": 88}, {"time": 1537, "pitch": 48, "duration": 22, "velocity": 73}, {"time": 1537, "pitch": 55, "duration": 4, "velocity": 79}, {"time": 1537, "pitch": 60, "duration": 6, "velocity": 75}, {"time": 1543, "pitch": 55, "duration": 6, "velocity": 80}, {"time": 1549, "pitch": 63, "duration": 3, "velocity": 85}, {"time": 1555, "pitch": 55, "duration": 2, "velocity": 80}, {"time": 1561, "pitch": 48, "duration": 15, "velocity": 80}, {"time": 1561, "pitch": 55, "duration": 3, "velocity": 78}, {"time": 1561, "pitch": 60, "duration": 5, "velocity": 74}, {"time": 1567, "pitch": 55, "duration": 1, "velocity": 67}, {"time": 1573, "pitch": 55, "duration": 5, "velocity": 75}, {"time": 1573, "pitch": 63, "duration": 4, "velocity": 68}, {"time": 1585, "pitch": 44, "duration": 11, "velocity": 80}, {"time": 1588, "pitch": 51, "duration": 9, "velocity": 67}, {"time": 1591, "pitch": 56, "duration": 7, "velocity": 73}, {"time": 1594, "pitch": 63, "duration": 4, "velocity": 73}, {"time": 1609, "pitch": 46, "duration": 12, "velocity": 73}, {"time": 1612, "pitch": 53, "duration": 9, "velocity": 65}, {"time": 1615, "pitch": 58, "duration": 5, "velocity": 77}, {"time": 1618, "pitch": 62, "duration": 3, "velocity": 75}, {"time": 1633, "pitch": 43, "duration": 17, "velocity": 75}, {"time": 1633, "pitch": 62, "duration": 6, "velocity": 74}, {"time": 1636, "pitch": 50, "duration": 13, "velocity": 72}, {"time": 1639, "pitch": 55, "duration": 7, "velocity": 75}, {"time": 1642, "pitch": 58, "duration": 5, "velocity": 85}, {"time": 1657, "pitch": 48, "duration": 18, "velocity": 79}, {"time": 1657, "pitch": 63, "duration": 5, "velocity": 80}, {"time": 1660, "pitch": 55, "duration": 4, "velocity": 80}, {"time": 1663, "pitch": 60, "duration": 6, "velocity": 75}, {"time": 1669, "pitch": 62, "duration": 6, "velocity": 80}, {"time": 1675, "pitch": 55, "duration": 2, "velocity": 71}, {"time": 1681, "pitch": 44, "duration": 13, "velocity": 81}, {"time": 1681, "pitch": 60, "duration": 6, "velocity": 79}, {"time": 1684, "pitch": 51, "duration": 10, "velocity": 71}, {"time": 1687, "pitch": 56, "duration": 4, "velocity": 73}, {"time": 1690, "pitch": 60, "duration": 5, "velocity": 80}, {"time": 1705, "pitch": 46, "duration": 17, "velocity": 78}, {"time": 1705, "pitch": 58, "duration": 2, "velocity": 70}, {"time": 1705, "pitch": 62, "duration": 5, "velocity": 79}, {"time": 1708, "pitch": 53, "duration": 14, "velocity": 69}, {"time": 1711, "pitch": 58, "duration": 4, "velocity": 82}, {"time": 1714, "pitch": 65, "duration": 9, "velocity": 80}, {"time": 1723, "pitch": 62, "duration": 5, "velocity": 74}, {"time": 1729, "pitch": 39, "duration": 15, "velocity": 85}, {"time": 1732, "pitch": 46, "duration": 13, "velocity": 68}, {"time": 1735, "pitch": 51, "duration": 9, "velocity": 75}, {"time": 1738, "pitch": 55, "duration": 7, "velocity": 69}, {"time": 1744, "pitch": 63, "duration": 6, "velocity": 80}, {"time": 1747, "pitch": 51, "duration": 6, "velocity": 83}, {"time": 1750, "pitch": 55, "duration": 8, "velocity": 75}, {"time": 1753, "pitch": 39, "duration": 14, "velocity": 80}, {"time": 1753, "pitch": 46, "duration": 10, "velocity": 72}, {"time": 1756, "pitch": 51, "duration": 4, "velocity": 90}, {"time": 1759, "pitch": 55, "duration": 2, "velocity": 82}, {"time": 1765, "pitch": 51, "duration": 4, "velocity": 93}, {"time": 1765, "pitch": 55, "duration": 5, "velocity": 96}, {"time": 1765, "pitch": 63, "duration": 6, "velocity": 85}, {"time": 1768, "pitch": 46, "duration": 2, "velocity": 88}, {"time": 1771, "pitch": 51, "duration": 4, "velocity": 95}, {"time": 1774, "pitch": 63, "duration": 3, "velocity": 80}, {"time": 1777, "pitch": 44, "duration": 16, "velocity": 95}, {"time": 1777, "pitch": 51, "duration": 13, "velocity": 79}, {"time": 1783, "pitch": 56, "duration": 10, "velocity": 81}, {"time": 1786, "pitch": 63, "duration": 10, "velocity": 80}, {"time": 1792, "pitch": 60, "duration": 4, "velocity": 74}, {"time": 1795, "pitch": 56, "duration": 4, "velocity": 83}, {"time": 1798, "pitch": 60, "duration": 3, "velocity": 72}, {"time": 1801, "pitch": 46, "duration": 19, "velocity": 86}, {"time": 1804, "pitch": 53, "duration": 16, "velocity": 79}, {"time": 1807, "pitch": 58, "duration": 5, "velocity": 80}, {"time": 1810, "pitch": 62, "duration": 7, "velocity": 85}, {"time": 1816, "pitch": 58, "duration": 4, "velocity": 79}, {"time": 1819, "pitch": 62, "duration": 4, "velocity": 72}, {"time": 1822, "pitch": 58, "duration": 3, "velocity": 61}, {"time": 1825, "pitch": 43, "duration": 22, "velocity": 82}, {"time": 1828, "pitch": 50, "duration": 18, "velocity": 69}, {"time": 1831, "pitch": 55, "duration": 8, "velocity": 77}, {"time": 1834, "pitch": 58, "duration": 6, "velocity": 90}, {"time": 1840, "pitch": 62, "duration": 4, "velocity": 84}, {"time": 1843, "pitch": 58, "duration": 2, "velocity": 83}, {"time": 1846, "pitch": 55, "duration": 3, "velocity": 79}, {"time": 1849, "pitch": 48, "duration": 17, "velocity": 81}, {"time": 1849, "pitch": 63, "duration": 4, "velocity": 85}, {"time": 1852, "pitch": 55, "duration": 4, "velocity": 80}, {"time": 1855, "pitch": 60, "duration": 4, "velocity": 83}, {"time": 1858, "pitch": 55, "duration": 3, "velocity": 79}, {"time": 1861, "pitch": 62, "duration": 5, "velocity": 83}, {"time": 1864, "pitch": 55, "duration": 3, "velocity": 77}, {"time": 1867, "pitch": 60, "duration": 4, "velocity": 79}, {"time": 1870, "pitch": 55, "duration": 3, "velocity": 79}, {"time": 1873, "pitch": 44, "duration": 16, "velocity": 81}, {"time": 1873, "pitch": 63, "duration": 5, "velocity": 74}, {"time": 1876, "pitch": 51, "duration": 10, "velocity": 75}, {"time": 1879, "pitch": 56, "duration": 4, "velocity": 79}, {"time": 1882, "pitch": 63, "duration": 9, "velocity": 79}, {"time": 1888, "pitch": 51, "duration": 3, "velocity": 72}, {"time": 1891, "pitch": 56, "duration": 4, "velocity": 83}, {"time": 1894, "pitch": 63, "duration": 3, "velocity": 71}, {"time": 1897, "pitch": 46, "duration": 18, "velocity": 80}, {"time": 1897, "pitch": 62, "duration": 8, "velocity": 82}, {"time": 1903, "pitch": 53, "duration": 9, "velocity": 76}, {"time": 1906, "pitch": 58, "duration": 3, "velocity": 85}, {"time": 1909, "pitch": 62, "duration": 3, "velocity": 83}, {"time": 1912, "pitch": 58, "duration": 2, "velocity": 93}, {"time": 1915, "pitch": 53, "duration": 2, "velocity": 78}, {"time": 1921, "pitch": 36, "duration": 1, "velocity": 79}, {"time": 1921, "pitch": 55, "duration": 5, "velocity": 74}, {"time": 1921, "pitch": 60, "duration": 6, "velocity": 73}, {"time": 1927, "pitch": 48, "duration": 15, "velocity": 79}, {"time": 1933, "pitch": 60, "duration": 3, "velocity": 72}, {"time": 1933, "pitch": 63, "duration": 3, "velocity": 75}, {"time": 1939, "pitch": 62, "duration": 6, "velocity": 77}, {"time": 1945, "pitch": 48, "duration": 19, "velocity": 81}, {"time": 1945, "pitch": 60, "duration": 14, "velocity": 76}, {"time": 1951, "pitch": 55, "duration": 13, "velocity": 61}, {"time": 1957, "pitch": 63, "duration": 11, "velocity": 69}, {"time": 1957, "pitch": 67, "duration": 12, "velocity": 66}, {"time": 1969, "pitch": 44, "duration": 12, "velocity": 81}, {"time": 1969, "pitch": 63, "duration": 13, "velocity": 73}, {"time": 1975, "pitch": 51, "duration": 7, "velocity": 79}, {"time": 1981, "pitch": 56, "duration": 2, "velocity": 84}, {"time": 1993, "pitch": 46, "duration": 18, "velocity": 71}, {"time": 1993, "pitch": 58, "duration": 9, "velocity": 65}, {"time": 1993, "pitch": 62, "duration": 13, "velocity": 76}, {"time": 1999, "pitch": 53, "duration": 11, "velocity": 68}, {"time": 2005, "pitch": 58, "duration": 4, "velocity": 79}, {"time": 2017, "pitch": 48, "duration": 38, "velocity": 80}, {"time": 2017, "pitch": 63, "duration": 12, "velocity": 72}, {"time": 2023, "pitch": 55, "duration": 8, "velocity": 69}, {"time": 2029, "pitch": 62, "duration": 6, "velocity": 71}, {"time": 2035, "pitch": 55, "duration": 20, "velocity": 70}, {"time": 2041, "pitch": 60, "duration": 6, "velocity": 73}, {"time": 2041, "pitch": 63, "duration": 4, "velocity": 69}, {"time": 2041, "pitch": 67, "duration": 6, "velocity": 74}, {"time": 2053, "pitch": 60, "duration": 4, "velocity": 72}, {"time": 2053, "pitch": 63, "duration": 4, "velocity": 81}, {"time": 2059, "pitch": 62, "duration": 2, "velocity": 81}, {"time": 2065, "pitch": 44, "duration": 13, "velocity": 79}, {"time": 2065, "pitch": 60, "duration": 12, "velocity": 77}, {"time": 2071, "pitch": 51, "duration": 7, "velocity": 70}, {"time": 2077, "pitch": 56, "duration": 1, "velocity": 83}, {"time": 2089, "pitch": 46, "duration": 14, "velocity": 74}, {"time": 2089, "pitch": 58, "duration": 7, "velocity": 67}, {"time": 2089, "pitch": 62, "duration": 7, "velocity": 74}, {"time": 2095, "pitch": 53, "duration": 7, "velocity": 76}, {"time": 2101, "pitch": 58, "duration": 1, "velocity": 81}, {"time": 2113, "pitch": 39, "duration": 39, "velocity": 74}, {"time": 2113, "pitch": 58, "duration": 12, "velocity": 70}, {"time": 2113, "pitch": 63, "duration": 12, "velocity": 73}, {"time": 2119, "pitch": 46, "duration": 32, "velocity": 71}, {"time": 2125, "pitch": 55, "duration": 11, "velocity": 80}, {"time": 2131, "pitch": 58, "duration": 2, "velocity": 85}, {"time": 2137, "pitch": 63, "duration": 4, "velocity": 81}, {"time": 2149, "pitch": 55, "duration": 3, "velocity": 79}, {"time": 2149, "pitch": 58, "duration": 3, "velocity": 75}, {"time": 2161, "pitch": 44, "duration": 9, "velocity": 80}, {"time": 2161, "pitch": 56, "duration": 12, "velocity": 72}, {"time": 2161, "pitch": 63, "duration": 12, "velocity": 73}, {"time": 2167, "pitch": 51, "duration": 4, "velocity": 77}, {"time": 2173, "pitch": 60, "duration": 3, "velocity": 74}, {"time": 2185, "pitch": 46, "duration": 15, "velocity": 72}, {"time": 2185, "pitch": 58, "duration": 10, "velocity": 65}, {"time": 2185, "pitch": 62, "duration": 10, "velocity": 73}, {"time": 2191, "pitch": 53, "duration": 8, "velocity": 67}, {"time": 2197, "pitch": 58, "duration": 3, "velocity": 72}, {"time": 2197, "pitch": 62, "duration": 3, "velocity": 78}, {"time": 2197, "pitch": 65, "duration": 4, "velocity": 74}, {"time": 2209, "pitch": 43, "duration": 23, "velocity": 79}, {"time": 2209, "pitch": 62, "duration": 13, "velocity": 77}, {"time": 2215, "pitch": 50, "duration": 13, "velocity": 69}, {"time": 2221, "pitch": 58, "duration": 6, "velocity": 81}, {"time": 2227, "pitch": 55, "duration": 7, "velocity": 86}, {"time": 2233, "pitch": 48, "duration": 13, "velocity": 79}, {"time": 2233, "pitch": 63, "duration": 7, "velocity": 81}, {"time": 2239, "pitch": 55, "duration": 7, "velocity": 85}, {"time": 2245, "pitch": 62, "duration": 13, "velocity": 82}, {"time": 2257, "pitch": 44, "duration": 14, "velocity": 78}, {"time": 2257, "pitch": 60, "duration": 13, "velocity": 73}, {"time": 2263, "pitch": 51, "duration": 9, "velocity": 71}, {"time": 2269, "pitch": 56, "duration": 6, "velocity": 88}, {"time": 2281, "pitch": 46, "duration": 18, "velocity": 73}, {"time": 2281, "pitch": 62, "duration": 12, "velocity": 79}, {"time": 2287, "pitch": 53, "duration": 12, "velocity": 65}, {"time": 2293, "pitch": 58, "duration": 7, "velocity": 83}, {"time": 2299, "pitch": 62, "duration": 6, "velocity": 79}, {"time": 2305, "pitch": 36, "duration": 23, "velocity": 77}, {"time": 2305, "pitch": 60, "duration": 12, "velocity": 75}, {"time": 2311, "pitch": 43, "duration": 17, "velocity": 65}, {"time": 2317, "pitch": 55, "duration": 10, "velocity": 70}, {"time": 2329, "pitch": 36, "duration": 16, "velocity": 67}, {"time": 2329, "pitch": 55, "duration": 7, "velocity": 66}, {"time": 2329, "pitch": 60, "duration": 5, "velocity": 71}, {"time": 2335, "pitch": 43, "duration": 8, "velocity": 51}, {"time": 2341, "pitch": 55, "duration": 4, "velocity": 79}, {"time": 2341, "pitch": 63, "duration": 10, "velocity": 82}, {"time": 2353, "pitch": 44, "duration": 17, "velocity": 83}, {"time": 2353, "pitch": 56, "duration": 4, "velocity": 70}, {"time": 2353, "pitch": 63, "duration": 7, "velocity": 70}, {"time": 2356, "pitch": 51, "duration": 10, "velocity": 66}, {"time": 2359, "pitch": 56, "duration": 4, "velocity": 80}, {"time": 2362, "pitch": 63, "duration": 10, "velocity": 85}, {"time": 2371, "pitch": 51, "duration": 2, "velocity": 75}, {"time": 2374, "pitch": 56, "duration": 2, "velocity": 84}, {"time": 2377, "pitch": 46, "duration": 14, "velocity": 79}, {"time": 2377, "pitch": 62, "duration": 5, "velocity": 74}, {"time": 2380, "pitch": 53, "duration": 14, "velocity": 77}, {"time": 2383, "pitch": 58, "duration": 2, "velocity": 83}, {"time": 2386, "pitch": 58, "duration": 9, "velocity": 70}, {"time": 2386, "pitch": 62, "duration": 10, "velocity": 80}, {"time": 2395, "pitch": 46, "duration": 2, "velocity": 80}, {"time": 2401, "pitch": 43, "duration": 21, "velocity": 79}, {"time": 2401, "pitch": 55, "duration": 4, "velocity": 77}, {"time": 2401, "pitch": 62, "duration": 8, "velocity": 79}, {"time": 2404, "pitch": 50, "duration": 11, "velocity": 73}, {"time": 2407, "pitch": 55, "duration": 4, "velocity": 81}, {"time": 2410, "pitch": 58, "duration": 6, "velocity": 83}, {"time": 2416, "pitch": 55, "duration": 4, "velocity": 85}, {"time": 2419, "pitch": 50, "duration": 3, "velocity": 78}, {"time": 2422, "pitch": 55, "duration": 2, "velocity": 82}, {"time": 2425, "pitch": 48, "duration": 17, "velocity": 77}, {"time": 2425, "pitch": 55, "duration": 3, "velocity": 74}, {"time": 2425, "pitch": 63, "duration": 7, "velocity": 80}, {"time": 2431, "pitch": 55, "duration": 3, "velocity": 79}, {"time": 2437, "pitch": 55, "duration": 4, "velocity": 79}, {"time": 2437, "pitch": 60, "duration": 3, "velocity": 81}, {"time": 2437, "pitch": 63, "duration": 4, "velocity": 81}, {"time": 2443, "pitch": 62, "duration": 2, "velocity": 80}, {"time": 2449, "pitch": 44, "duration": 19, "velocity": 85}, {"time": 2449, "pitch": 60, "duration": 11, "velocity": 78}, {"time": 2455, "pitch": 51, "duration": 13, "velocity": 80}, {"time": 2461, "pitch": 56, "duration": 6, "velocity": 85}, {"time": 2467, "pitch": 60, "duration": 4, "velocity": 82}, {"time": 2473, "pitch": 46, "duration": 14, "velocity": 79}, {"time": 2473, "pitch": 58, "duration": 7, "velocity": 81}, {"time": 2479, "pitch": 53, "duration": 4, "velocity": 82}, {"time": 2485, "pitch": 53, "duration": 2, "velocity": 80}, {"time": 2485, "pitch": 58, "duration": 2, "velocity": 80}, {"time": 2485, "pitch": 62, "duration": 3, "velocity": 79}, {"time": 2497, "pitch": 39, "duration": 23, "velocity": 82}, {"time": 2497, "pitch": 63, "duration": 7, "velocity": 84}, {"time": 2500, "pitch": 46, "duration": 19, "velocity": 75}, {"time": 2503, "pitch": 55, "duration": 7, "velocity": 75}, {"time": 2506, "pitch": 58, "duration": 4, "velocity": 85}, {"time": 2509, "pitch": 67, "duration": 4, "velocity": 82}, {"time": 2512, "pitch": 63, "duration": 4, "velocity": 88}, {"time": 2515, "pitch": 58, "duration": 2, "velocity": 84}, {"time": 2518, "pitch": 55, "duration": 2, "velocity": 79}, {"time": 2521, "pitch": 39, "duration": 13, "velocity": 84}, {"time": 2521, "pitch": 55, "duration": 3, "velocity": 75}, {"time": 2521, "pitch": 58, "duration": 5, "velocity": 72}, {"time": 2521, "pitch": 63, "duration": 6, "velocity": 74}, {"time": 2524, "pitch": 46, "duration": 8, "velocity": 81}, {"time": 2527, "pitch": 55, "duration": 2, "velocity": 78}, {"time": 2530, "pitch": 55, "duration": 4, "velocity": 80}, {"time": 2530, "pitch": 58, "duration": 6, "velocity": 83}, {"time": 2530, "pitch": 63, "duration": 6, "velocity": 81}, {"time": 2530, "pitch": 67, "duration": 7, "velocity": 79}, {"time": 2533, "pitch": 46, "duration": 4, "velocity": 82}, {"time": 2536, "pitch": 55, "duration": 4, "velocity": 82}, {"time": 2539, "pitch": 58, "duration": 1, "velocity": 82}, {"time": 2545, "pitch": 44, "duration": 13, "velocity": 84}, {"time": 2545, "pitch": 56, "duration": 6, "velocity": 72}, {"time": 2545, "pitch": 63, "duration": 6, "velocity": 75}, {"time": 2551, "pitch": 51, "duration": 7, "velocity": 69}, {"time": 2554, "pitch": 56, "duration": 9, "velocity": 83}, {"time": 2563, "pitch": 63, "duration": 1, "velocity": 83}, {"time": 2569, "pitch": 46, "duration": 19, "velocity": 82}, {"time": 2569, "pitch": 58, "duration": 3, "velocity": 45}, {"time": 2569, "pitch": 62, "duration": 6, "velocity": 66}, {"time": 2572, "pitch": 53, "duration": 15, "velocity": 74}, {"time": 2575, "pitch": 58, "duration": 11, "velocity": 85}, {"time": 2578, "pitch": 65, "duration": 12, "velocity": 81}, {"time": 2587, "pitch": 62, "duration": 4, "velocity": 74}, {"time": 2590, "pitch": 58, "duration": 3, "velocity": 79}, {"time": 2593, "pitch": 43, "duration": 22, "velocity": 80}, {"time": 2596, "pitch": 50, "duration": 17, "velocity": 74}, {"time": 2599, "pitch": 55, "duration": 4, "velocity": 81}, {"time": 2602, "pitch": 58, "duration": 8, "velocity": 88}, {"time": 2617, "pitch": 48, "duration": 18, "velocity": 83}, {"time": 2617, "pitch": 55, "duration": 2, "velocity": 79}, {"time": 2617, "pitch": 60, "duration": 4, "velocity": 79}, {"time": 2620, "pitch": 55, "duration": 4, "velocity": 76}, {"time": 2623, "pitch": 60, "duration": 2, "velocity": 76}, {"time": 2626, "pitch": 63, "duration": 5, "velocity": 88}, {"time": 2632, "pitch": 62, "duration": 3, "velocity": 86}, {"time": 2635, "pitch": 60, "duration": 2, "velocity": 84}, {"time": 2641, "pitch": 44, "duration": 13, "velocity": 84}, {"time": 2641, "pitch": 60, "duration": 6, "velocity": 80}, {"time": 2644, "pitch": 51, "duration": 10, "velocity": 72}, {"time": 2647, "pitch": 56, "duration": 4, "velocity": 81}, {"time": 2650, "pitch": 60, "duration": 9, "velocity": 79}, {"time": 2659, "pitch": 56, "duration": 2, "velocity": 68}, {"time": 2665, "pitch": 46, "duration": 19, "velocity": 81}, {"time": 2665, "pitch": 53, "duration": 2, "velocity": 72}, {"time": 2665, "pitch": 58, "duration": 4, "velocity": 72}, {"time": 2668, "pitch": 53, "duration": 5, "velocity": 74}, {"time": 2671, "pitch": 58, "duration": 4, "velocity": 74}, {"time": 2674, "pitch": 62, "duration": 11, "velocity": 81}, {"time": 2683, "pitch": 58, "duration": 2, "velocity": 88}, {"time": 2689, "pitch": 48, "duration": 22, "velocity": 73}, {"time": 2689, "pitch": 55, "duration": 4, "velocity": 79}, {"time": 2689, "pitch": 60, "duration": 6, "velocity": 75}, {"time": 2695, "pitch": 55, "duration": 6, "velocity": 80}, {"time": 2701, "pitch": 63, "duration": 3, "velocity": 85}, {"time": 2707, "pitch": 55, "duration": 2, "velocity": 80}, {"time": 2713, "pitch": 48, "duration": 15, "velocity": 80}, {"time": 2713, "pitch": 55, "duration": 3, "velocity": 78}, {"time": 2713, "pitch": 60, "duration": 5, "velocity": 74}, {"time": 2719, "pitch": 55, "duration": 1, "velocity": 67}, {"time": 2725, "pitch": 55, "duration": 5, "velocity": 75}, {"time": 2725, "pitch": 63, "duration": 4, "velocity": 68}, {"time": 2737, "pitch": 44, "duration": 11, "velocity": 80}, {"time": 2740, "pitch": 51, "duration": 9, "velocity": 67}, {"time": 2743, "pitch": 56, "duration": 7, "velocity": 73}, {"time": 2746, "pitch": 63, "duration": 4, "velocity": 73}, {"time": 2761, "pitch": 46, "duration": 12, "velocity": 73}, {"time": 2764, "pitch": 53, "duration": 9, "velocity": 65}, {"time": 2767, "pitch": 58, "duration": 5, "velocity": 77}, {"time": 2770, "pitch": 62, "duration": 3, "velocity": 75}, {"time": 2785, "pitch": 43, "duration": 17, "velocity": 75}, {"time": 2785, "pitch": 62, "duration": 6, "velocity": 74}, {"time": 2788, "pitch": 50, "duration": 13, "velocity": 72}, {"time": 2791, "pitch": 55, "duration": 7, "velocity": 75}, {"time": 2794, "pitch": 58, "duration": 5, "velocity": 85}, {"time": 2809, "pitch": 48, "duration": 18, "velocity": 79}, {"time": 2809, "pitch": 63, "duration": 5, "velocity": 80}, {"time": 2812, "pitch": 55, "duration": 4, "velocity": 80}, {"time": 2815, "pitch": 60, "duration": 6, "velocity": 75}, {"time": 2821, "pitch": 62, "duration": 6, "velocity": 80}, {"time": 2827, "pitch": 55, "duration": 2, "velocity": 71}, {"time": 2833, "pitch": 44, "duration": 13, "velocity": 81}, {"time": 2833, "pitch": 60, "duration": 6, "velocity": 79}, {"time": 2836, "pitch": 51, "duration": 10, "velocity": 71}, {"time": 2839, "pitch": 56, "duration": 4, "velocity": 73}, {"time": 2842, "pitch": 60, "duration": 5, "velocity": 80}, {"time": 2857, "pitch": 46, "duration": 17, "velocity": 78}, {"time": 2857, "pitch": 58, "duration": 2, "velocity": 70}, {"time": 2857, "pitch": 62, "duration": 5, "velocity": 79}, {"time": 2860, "pitch": 53, "duration": 14, "velocity": 69}, {"time": 2863, "pitch": 58, "duration": 4, "velocity": 82}, {"time": 2866, "pitch": 65, "duration": 9, "velocity": 80}, {"time": 2875, "pitch": 62, "duration": 5, "velocity": 74}, {"time": 2881, "pitch": 39, "duration": 15, "velocity": 85}, {"time": 2884, "pitch": 46, "duration": 13, "velocity": 68}, {"time": 2887, "pitch": 51, "duration": 9, "velocity": 75}, {"time": 2890, "pitch": 55, "duration": 7, "velocity": 69}, {"time": 2896, "pitch": 63, "duration": 6, "velocity": 80}, {"time": 2899, "pitch": 51, "duration": 6, "velocity": 83}, {"time": 2902, "pitch": 55, "duration": 8, "velocity": 75}, {"time": 2905, "pitch": 39, "duration": 14, "velocity": 80}, {"time": 2905, "pitch": 46, "duration": 10, "velocity": 72}, {"time": 2908, "pitch": 51, "duration": 4, "velocity": 90}, {"time": 2911, "pitch": 55, "duration": 2, "velocity": 82}, {"time": 2917, "pitch": 51, "duration": 4, "velocity": 93}, {"time": 2917, "pitch": 55, "duration": 5, "velocity": 96}, {"time": 2917, "pitch": 63, "duration": 6, "velocity": 85}, {"time": 2920, "pitch": 46, "duration": 2, "velocity": 88}, {"time": 2923, "pitch": 51, "duration": 4, "velocity": 95}, {"time": 2926, "pitch": 63, "duration": 3, "velocity": 80}, {"time": 2929, "pitch": 44, "duration": 16, "velocity": 95}, {"time": 2929, "pitch": 51, "duration": 13, "velocity": 79}, {"time": 2935, "pitch": 56, "duration": 10, "velocity": 81}, {"time": 2938, "pitch": 63, "duration": 10, "velocity": 80}, {"time": 2944, "pitch": 60, "duration": 4, "velocity": 74}, {"time": 2947, "pitch": 56, "duration": 4, "velocity": 83}, {"time": 2950, "pitch": 60, "duration": 3, "velocity": 72}, {"time": 2953, "pitch": 46, "duration": 19, "velocity": 86}, {"time": 2956, "pitch": 53, "duration": 16, "velocity": 79}, {"time": 2959, "pitch": 58, "duration": 5, "velocity": 80}, {"time": 2962, "pitch": 62, "duration": 7, "velocity": 85}, {"time": 2968, "pitch": 58, "duration": 4, "velocity": 79}, {"time": 2971, "pitch": 62, "duration": 4, "velocity": 72}, {"time": 2974, "pitch": 58, "duration": 3, "velocity": 61}, {"time": 2977, "pitch": 43, "duration": 22, "velocity": 82}, {"time": 2980, "pitch": 50, "duration": 18, "velocity": 69}, {"time": 2983, "pitch": 55, "duration": 8, "velocity": 77}, {"time": 2986, "pitch": 58, "duration": 6, "velocity": 90}, {"time": 2992, "pitch": 62, "duration": 4, "velocity": 84}, {"time": 2995, "pitch": 58, "duration": 2, "velocity": 83}, {"time": 2998, "pitch": 55, "duration": 3, "velocity": 79}, {"time": 3001, "pitch": 48, "duration": 17, "velocity": 81}, {"time": 3001, "pitch": 63, "duration": 4, "velocity": 85}, {"time": 3004, "pitch": 55, "duration": 4, "velocity": 80}, {"time": 3007, "pitch": 60, "duration": 4, "velocity": 83}, {"time": 3010, "pitch": 55, "duration": 3, "velocity": 79}, {"time": 3013, "pitch": 62, "duration": 5, "velocity": 83}, {"time": 3016, "pitch": 55, "duration": 3, "velocity": 77}, {"time": 3019, "pitch": 60, "duration": 4, "velocity": 79}, {"time": 3022, "pitch": 55, "duration": 3, "velocity": 79}, {"time": 3025, "pitch": 44, "duration": 16, "velocity": 81}, {"time": 3025, "pitch": 63, "duration": 5, "velocity": 74}, {"time": 3028, "pitch": 51, "duration": 10, "velocity": 75}, {"time": 3031, "pitch": 56, "duration": 4, "velocity": 79}, {"time": 3034, "pitch": 63, "duration": 9, "velocity": 79}, {"time": 3040, "pitch": 51, "duration": 3, "velocity": 72}, {"time": 3043, "pitch": 56, "duration": 4, "velocity": 83}, {"time": 3046, "pitch": 63, "duration": 3, "velocity": 71}, {"time": 3049, "pitch": 46, "duration": 18, "velocity": 80}, {"time": 3049, "pitch": 62, "duration": 8, "velocity": 82}, {"time": 3055, "pitch": 53, "duration": 9, "velocity": 76}, {"time": 3058, "pitch": 58, "duration": 3, "velocity": 85}, {"time": 3061, "pitch": 62, "duration": 3, "velocity": 83}, {"time": 3064, "pitch": 58, "duration": 2, "velocity": 93}, {"time": 3067, "pitch": 53, "duration": 2, "velocity": 78}, {"time": 3073, "pitch": 36, "duration": 1, "velocity": 79}, {"time": 3073, "pitch": 55, "duration": 5, "velocity": 74}, {"time": 3073, "pitch": 60, "duration": 6, "velocity": 73}, {"time": 3079, "pitch": 48, "duration": 15, "velocity": 79}, {"time": 3085, "pitch": 60, "duration": 3, "velocity": 72}, {"time": 3085, "pitch": 63, "duration": 3, "velocity": 75}, {"time": 3091, "pitch": 62, "duration": 6, "velocity": 77}, {"time": 3097, "pitch": 48, "duration": 19, "velocity": 81}, {"time": 3097, "pitch": 60, "duration": 14, "velocity": 76}, {"time": 3103, "pitch": 55, "duration": 13, "velocity": 61}, {"time": 3109, "pitch": 63, "duration": 11, "velocity": 69}, {"time": 3109, "pitch": 67, "duration": 12, "velocity": 66}, {"time": 3121, "pitch": 44, "duration": 14, "velocity": 79}, {"time": 3121, "pitch": 63, "duration": 13, "velocity": 71}, {"time": 3127, "pitch": 51, "duration": 9, "velocity": 72}, {"time": 3133, "pitch": 56, "duration": 5, "velocity": 84}, {"time": 3139, "pitch": 63, "duration": 2, "velocity": 81}, {"time": 3145, "pitch": 46, "duration": 19, "velocity": 73}, {"time": 3145, "pitch": 62, "duration": 13, "velocity": 79}, {"time": 3151, "pitch": 53, "duration": 12, "velocity": 78}, {"time": 3157, "pitch": 58, "duration": 6, "velocity": 83}, {"time": 3163, "pitch": 62, "duration": 5, "velocity": 80}, {"time": 3169, "pitch": 48, "duration": 48, "velocity": 83}, {"time": 3169, "pitch": 60, "duration": 14, "velocity": 80}, {"time": 3175, "pitch": 55, "duration": 20, "velocity": 72}, {"time": 3181, "pitch": 67, "duration": 8, "velocity": 74}, {"time": 3187, "pitch": 60, "duration": 1, "velocity": 23}, {"time": 3187, "pitch": 63, "duration": 2, "velocity": 68}, {"time": 3193, "pitch": 60, "duration": 7, "velocity": 80}, {"time": 3193, "pitch": 72, "duration": 6, "velocity": 79}, {"time": 3199, "pitch": 55, "duration": 18, "velocity": 71}, {"time": 3205, "pitch": 63, "duration": 11, "velocity": 71}, {"time": 3205, "pitch": 67, "duration": 12, "velocity": 74}, {"time": 3211, "pitch": 60, "duration": 6, "velocity": 75}, {"time": 3217, "pitch": 44, "duration": 14, "velocity": 73}, {"time": 3217, "pitch": 56, "duration": 1, "velocity": 62}, {"time": 3217, "pitch": 63, "duration": 13, "velocity": 67}, {"time": 3223, "pitch": 51, "duration": 9, "velocity": 69}, {"time": 3229, "pitch": 56, "duration": 6, "velocity": 80}, {"time": 3235, "pitch": 63, "duration": 2, "velocity": 81}, {"time": 3241, "pitch": 46, "duration": 13, "velocity": 72}, {"time": 3241, "pitch": 62, "duration": 12, "velocity": 72}, {"time": 3247, "pitch": 53, "duration": 7, "velocity": 66}, {"time": 3253, "pitch": 58, "duration": 2, "velocity": 80}, {"time": 3265, "pitch": 39, "duration": 7, "velocity": 82}, {"time": 3265, "pitch": 58, "duration": 17, "velocity": 58}, {"time": 3265, "pitch": 63, "duration": 18, "velocity": 72}, {"time": 3271, "pitch": 46, "duration": 2, "velocity": 67}, {"time": 3277, "pitch": 38, "duration": 4, "velocity": 81}, {"time": 3289, "pitch": 48, "duration": 15, "velocity": 78}, {"time": 3289, "pitch": 55, "duration": 3, "velocity": 70}, {"time": 3289, "pitch": 60, "duration": 9, "velocity": 73}, {"time": 3295, "pitch": 55, "duration": 7, "velocity": 72}, {"time": 3301, "pitch": 60, "duration": 4, "velocity": 80}, {"time": 3301, "pitch": 63, "duration": 6, "velocity": 79}, {"time": 3313, "pitch": 44, "duration": 20, "velocity": 81}, {"time": 3313, "pitch": 63, "duration": 13, "velocity": 71}, {"time": 3319, "pitch": 51, "duration": 14, "velocity": 69}, {"time": 3325, "pitch": 56, "duration": 6, "velocity": 86}, {"time": 3331, "pitch": 63, "duration": 7, "velocity": 82}, {"time": 3337, "pitch": 46, "duration": 18, "velocity": 73}, {"time": 3337, "pitch": 58, "duration": 13, "velocity": 69}, {"time": 3343, "pitch": 53, "duration": 6, "velocity": 79}, {"time": 3349, "pitch": 65, "duration": 7, "velocity": 79}, {"time": 3359, "pitch": 46, "duration": 8, "velocity": 63}, {"time": 3360, "pitch": 53, "duration": 11, "velocity": 65}, {"time": 3361, "pitch": 58, "duration": 13, "velocity": 62}, {"time": 3362, "pitch": 62, "duration": 12, "velocity": 75}, {"time": 3383, "pitch": 48, "duration": 3, "velocity": 73}, {"time": 3384, "pitch": 36, "duration": 3, "velocity": 74}, {"time": 3384, "pitch": 52, "duration": 5, "velocity": 74}, {"time": 3386, "pitch": 55, "duration": 4, "velocity": 66}, {"time": 3387, "pitch": 60, "duration": 5, "velocity": 71}], "annotations": [{"time": 49, "annotation": {"number": 64, "value": 127}, "group": "control_change"}, {"time": 50, "annotation": {"number": 64, "value": 0}, "group": "control_change"}, {"time": 50, "annotation": {"number": 64, "value": 127}, "group": "control_change"}, {"time": 72, "annotation": {"number": 64, "value": 0}, "group": "control_change"}, {"time": 78, "annotation": {"number": 64, "value": 127}, "group": "control_change"}, {"time": 96, "annotation": {"number": 64, "value": 0}, "group": "control_change"}, {"time": 98, "annotation": {"number": 64, "value": 127}, "group": "control_change"}, {"time": 120, "annotation": {"number": 64, "value": 0}, "group": "control_change"}, {"time": 123, "annotation": {"number": 64, "value": 127}, "group": "control_change"}, {"time": 162, "annotation": {"number": 64, "value": 127}, "group": "control_change"}, {"time": 169, "annotation": {"number": 64, "value": 0}, "group": "control_change"}, {"time": 176, "annotation": {"number": 64, "value": 127}, "group": "control_change"}, {"time": 191, "annotation": {"number": 64, "value": 0}, "group": "control_change"}, {"time": 195, "annotation": {"number": 64, "value": 127}, "group": "control_change"}, {"time": 240, "annotation": {"number": 64, "value": 0}, "group": "control_change"}, {"time": 243, "annotation": {"number": 64, "value": 127}, "group": "control_change"}, {"time": 266, "annotation": {"number": 64, "value": 0}, "group": "control_change"}, {"time": 272, "annotation": {"number": 64, "value": 127}, "group": "control_change"}, {"time": 288, "annotation": {"number": 64, "value": 0}, "group": "control_change"}, {"time": 291, "annotation": {"number": 64, "value": 127}, "group": "control_change"}, {"time": 312, "annotation": {"number": 64, "value": 0}, "group": "control_change"}, {"time": 316, "annotation": {"number": 64, "value": 127}, "group": "control_change"}, {"time": 336, "annotation": {"number": 64, "value": 0}, "group": "control_change"}, {"time": 338, "annotation": {"number": 64, "value": 127}, "group": "control_change"}, {"time": 360, "annotation": {"number": 64, "value": 0}, "group": "control_change"}, {"time": 363, "annotation": {"number": 64, "value": 127}, "group": "control_change"}, {"time": 383, "annotation": {"number": 64, "value": 0}, "group": "control_change"}, {"time": 385, "annotation": {"number": 64, "value": 127}, "group": "control_change"}, {"time": 432, "annotation": {"number": 64, "value": 0}, "group": "control_change"}, {"time": 437, "annotation": {"number": 64, "value": 127}, "group": "control_change"}, {"time": 456, "annotation": {"number": 64, "value": 0}, "group": "control_change"}, {"time": 460, "annotation": {"number": 64, "value": 127}, "group": "control_change"}, {"time": 480, "annotation": {"number": 64, "value": 0}, "group": "control_change"}, {"time": 482, "annotation": {"number": 64, "value": 127}, "group": "control_change"}, {"time": 528, "annotation": {"number": 64, "value": 0}, "group": "control_change"}, {"time": 532, "annotation": {"number": 64, "value": 127}, "group": "control_change"}, {"time": 552, "annotation": {"number": 64, "value": 0}, "group": "control_change"}, {"time": 554, "annotation": {"number": 64, "value": 127}, "group": "control_change"}, {"time": 575, "annotation": {"number": 64, "value": 0}, "group": "control_change"}, {"time": 579, "annotation": {"number": 64, "value": 127}, "group": "control_change"}, {"time": 624, "annotation": {"number": 64, "value": 0}, "group": "control_change"}, {"time": 627, "annotation": {"number": 64, "value": 127}, "group": "control_change"}, {"time": 648, "annotation": {"number": 64, "value": 0}, "group": "control_change"}, {"time": 652, "annotation": {"number": 64, "value": 127}, "group": "control_change"}, {"time": 674, "annotation": {"number": 64, "value": 0}, "group": "control_change"}, {"time": 681, "annotation": {"number": 64, "value": 127}, "group": "control_change"}, {"time": 696, "annotation": {"number": 64, "value": 0}, "group": "control_change"}, {"time": 700, "annotation": {"number": 64, "value": 127}, "group": "control_change"}, {"time": 719, "annotation": {"number": 64, "value": 0}, "group": "control_change"}, {"time": 723, "annotation": {"number": 64, "value": 127}, "group": "control_change"}, {"time": 745, "annotation": {"number": 64, "value": 0}, "group": "control_change"}, {"time": 749, "annotation": {"number": 64, "value": 127}, "group": "control_change"}, {"time": 767, "annotation": {"number": 64, "value": 0}, "group": "control_change"}, {"time": 770, "annotation": {"number": 64, "value": 127}, "group": "control_change"}, {"time": 815, "annotation": {"number": 64, "value": 0}, "group": "control_change"}, {"time": 821, "annotation": {"number": 64, "value": 127}, "group": "control_change"}, {"time": 840, "annotation": {"number": 64, "value": 0}, "group": "control_change"}, {"time": 844, "annotation": {"number": 64, "value": 127}, "group": "control_change"}, {"time": 864, "annotation": {"number": 64, "value": 0}, "group": "control_change"}, {"time": 866, "annotation": {"number": 64, "value": 127}, "group": "control_change"}, {"time": 912, "annotation": {"number": 64, "value": 0}, "group": "control_change"}, {"time": 916, "annotation": {"number": 64, "value": 127}, "group": "control_change"}, {"time": 936, "annotation": {"number": 64, "value": 0}, "group": "control_change"}, {"time": 938, "annotation": {"number": 64, "value": 127}, "group": "control_change"}, {"time": 959, "annotation": {"number": 64, "value": 0}, "group": "control_change"}, {"time": 963, "annotation": {"number": 64, "value": 127}, "group": "control_change"}, {"time": 1008, "annotation": {"number": 64, "value": 0}, "group": "control_change"}, {"time": 1011, "annotation": {"number": 64, "value": 127}, "group": "control_change"}, {"time": 1032, "annotation": {"number": 64, "value": 0}, "group": "control_change"}, {"time": 1036, "annotation": {"number": 64, "value": 127}, "group": "control_change"}, {"time": 1058, "annotation": {"number": 64, "value": 0}, "group": "control_change"}, {"time": 1065, "annotation": {"number": 64, "value": 127}, "group": "control_change"}, {"time": 1080, "annotation": {"number": 64, "value": 0}, "group": "control_change"}, {"time": 1084, "annotation": {"number": 64, "value": 127}, "group": "control_change"}, {"time": 1103, "annotation": {"number": 64, "value": 0}, "group": "control_change"}, {"time": 1107, "annotation": {"number": 64, "value": 127}, "group": "control_change"}, {"time": 1129, "annotation": {"number": 64, "value": 0}, "group": "control_change"}, {"time": 1133, "annotation": {"number": 64, "value": 127}, "group": "control_change"}, {"time": 1151, "annotation": {"number": 64, "value": 0}, "group": "control_change"}, {"time": 1154, "annotation": {"number": 64, "value": 127}, "group": "control_change"}, {"time": 1199, "annotation": {"number": 64, "value": 0}, "group": "control_change"}, {"time": 1202, "annotation": {"number": 64, "value": 127}, "group": "control_change"}, {"time": 1223, "annotation": {"number": 64, "value": 0}, "group": "control_change"}, {"time": 1226, "annotation": {"number": 64, "value": 127}, "group": "control_change"}, {"time": 1248, "annotation": {"number": 64, "value": 0}, "group": "control_change"}, {"time": 1250, "annotation": {"number": 64, "value": 127}, "group": "control_change"}, {"time": 1272, "annotation": {"number": 64, "value": 0}, "group": "control_change"}, {"time": 1274, "annotation": {"number": 64, "value": 127}, "group": "control_change"}, {"time": 1296, "annotation": {"number": 64, "value": 0}, "group": "control_change"}, {"time": 1298, "annotation": {"number": 64, "value": 127}, "group": "control_change"}, {"time": 1320, "annotation": {"number": 64, "value": 0}, "group": "control_change"}, {"time": 1322, "annotation": {"number": 64, "value": 127}, "group": "control_change"}, {"time": 1342, "annotation": {"number": 64, "value": 0}, "group": "control_change"}, {"time": 1345, "annotation": {"number": 64, "value": 127}, "group": "control_change"}, {"time": 1368, "annotation": {"number": 64, "value": 0}, "group": "control_change"}, {"time": 1369, "annotation": {"number": 64, "value": 127}, "group": "control_change"}, {"time": 1392, "annotation": {"number": 64, "value": 0}, "group": "control_change"}, {"time": 1395, "annotation": {"number": 64, "value": 127}, "group": "control_change"}, {"time": 1416, "annotation": {"number": 64, "value": 0}, "group": "control_change"}, {"time": 1418, "annotation": {"number": 64, "value": 127}, "group": "control_change"}, {"time": 1440, "annotation": {"number": 64, "value": 0}, "group": "control_change"}, {"time": 1442, "annotation": {"number": 64, "value": 127}, "group": "control_change"}, {"time": 1463, "annotation": {"number": 64, "value": 0}, "group": "control_change"}, {"time": 1465, "annotation": {"number": 64, "value": 127}, "group": "control_change"}, {"time": 1487, "annotation": {"number": 64, "value": 0}, "group": "control_change"}, {"time": 1489, "annotation": {"number": 64, "value": 127}, "group": "control_change"}, {"time": 1511, "annotation": {"number": 64, "value": 0}, "group": "control_change"}, {"time": 1514, "annotation": {"number": 64, "value": 127}, "group": "control_change"}, {"time": 1535, "annotation": {"number": 64, "value": 0}, "group": "control_change"}, {"time": 1537, "annotation": {"number": 64, "value": 127}, "group": "control_change"}, {"time": 1582, "annotation": {"number": 64, "value": 0}, "group": "control_change"}, {"time": 1586, "annotation": {"number": 64, "value": 127}, "group": "control_change"}, {"time": 1608, "annotation": {"number": 64, "value": 0}, "group": "control_change"}, {"time": 1611, "annotation": {"number": 64, "value": 127}, "group": "control_change"}, {"time": 1632, "annotation": {"number": 64, "value": 0}, "group": "control_change"}, {"time": 1635, "annotation": {"number": 64, "value": 127}, "group": "control_change"}, {"time": 1655, "annotation": {"number": 64, "value": 0}, "group": "control_change"}, {"time": 1657, "annotation": {"number": 64, "value": 127}, "group": "control_change"}, {"time": 1680, "annotation": {"number": 64, "value": 0}, "group": "control_change"}, {"time": 1682, "annotation": {"number": 64, "value": 127}, "group": "control_change"}, {"time": 1703, "annotation": {"number": 64, "value": 0}, "group": "control_change"}, {"time": 1705, "annotation": {"number": 64, "value": 127}, "group": "control_change"}, {"time": 1727, "annotation": {"number": 64, "value": 0}, "group": "control_change"}, {"time": 1729, "annotation": {"number": 64, "value": 127}, "group": "control_change"}, {"time": 1774, "annotation": {"number": 64, "value": 0}, "group": "control_change"}, {"time": 1776, "annotation": {"number": 64, "value": 127}, "group": "control_change"}, {"time": 1799, "annotation": {"number": 64, "value": 0}, "group": "control_change"}, {"time": 1801, "annotation": {"number": 64, "value": 127}, "group": "control_change"}, {"time": 1823, "annotation": {"number": 64, "value": 0}, "group": "control_change"}, {"time": 1824, "annotation": {"number": 64, "value": 127}, "group": "control_change"}, {"time": 1847, "annotation": {"number": 64, "value": 0}, "group": "control_change"}, {"time": 1848, "annotation": {"number": 64, "value": 127}, "group": "control_change"}, {"time": 1871, "annotation": {"number": 64, "value": 0}, "group": "control_change"}, {"time": 1873, "annotation": {"number": 64, "value": 127}, "group": "control_change"}, {"time": 1895, "annotation": {"number": 64, "value": 0}, "group": "control_change"}, {"time": 1897, "annotation": {"number": 64, "value": 127}, "group": "control_change"}, {"time": 1918, "annotation": {"number": 64, "value": 0}, "group": "control_change"}, {"time": 1920, "annotation": {"number": 64, "value": 127}, "group": "control_change"}, {"time": 1944, "annotation": {"number": 64, "value": 0}, "group": "control_change"}, {"time": 1946, "annotation": {"number": 64, "value": 127}, "group": "control_change"}, {"time": 1967, "annotation": {"number": 64, "value": 0}, "group": "control_change"}, {"time": 1973, "annotation": {"number": 64, "value": 127}, "group": "control_change"}, {"time": 1992, "annotation": {"number": 64, "value": 0}, "group": "control_change"}, {"time": 1996, "annotation": {"number": 64, "value": 127}, "group": "control_change"}, {"time": 2016, "annotation": {"number": 64, "value": 0}, "group": "control_change"}, {"time": 2018, "annotation": {"number": 64, "value": 127}, "group": "control_change"}, {"time": 2064, "annotation": {"number": 64, "value": 0}, "group": "control_change"}, {"time": 2068, "annotation": {"number": 64, "value": 127}, "group": "control_change"}, {"time": 2088, "annotation": {"number": 64, "value": 0}, "group": "control_change"}, {"time": 2090, "annotation": {"number": 64, "value": 127}, "group": "control_change"}, {"time": 2111, "annotation": {"number": 64, "value": 0}, "group": "control_change"}, {"time": 2115, "annotation": {"number": 64, "value": 127}, "group": "control_change"}, {"time": 2160, "annotation": {"number": 64, "value": 0}, "group": "control_change"}, {"time": 2163, "annotation": {"number": 64, "value": 127}, "group": "control_change"}, {"time": 2184, "annotation": {"number": 64, "value": 0}, "group": "control_change"}, {"time": 2188, "annotation": {"number": 64, "value": 127}, "group": "control_change"}, {"time": 2210, "annotation": {"number": 64, "value": 0}, "group": "control_change"}, {"time": 2217, "annotation": {"number": 64, "value": 127}, "group": "control_change"}, {"time": 2232, "annotation": {"number": 64, "value": 0}, "group": "control_change"}, {"time": 2236, "annotation": {"number": 64, "value": 127}, "group": "control_change"}, {"time": 2255, "annotation": {"number": 64, "value": 0}, "group": "control_change"}, {"time": 2259, "annotation": {"number": 64, "value": 127}, "group": "control_change"}, {"time": 2281, "annotation": {"number": 64, "value": 0}, "group": "control_change"}, {"time": 2285, "annotation": {"number": 64, "value": 127}, "group": "control_change"}, {"time": 2303, "annotation": {"number": 64, "value": 0}, "group": "control_change"}, {"time": 2306, "annotation": {"number": 64, "value": 127}, "group": "control_change"}, {"time": 2351, "annotation": {"number": 64, "value": 0}, "group": "control_change"}, {"time": 2354, "annotation": {"number": 64, "value": 127}, "group": "control_change"}, {"time": 2375, "annotation": {"number": 64, "value": 0}, "group": "control_change"}, {"time": 2378, "annotation": {"number": 64, "value": 127}, "group": "control_change"}, {"time": 2400, "annotation": {"number": 64, "value": 0}, "group": "control_change"}, {"time": 2402, "annotation": {"number": 64, "value": 127}, "group": "control_change"}, {"time": 2424, "annotation": {"number": 64, "value": 0}, "group": "control_change"}, {"time": 2426, "annotation": {"number": 64, "value": 127}, "group": "control_change"}, {"time": 2448, "annotation": {"number": 64, "value": 0}, "group": "control_change"}, {"time": 2450, "annotation": {"number": 64, "value": 127}, "group": "control_change"}, {"time": 2472, "annotation": {"number": 64, "value": 0}, "group": "control_change"}, {"time": 2474, "annotation": {"number": 64, "value": 127}, "group": "control_change"}, {"time": 2494, "annotation": {"number": 64, "value": 0}, "group": "control_change"}, {"time": 2497, "annotation": {"number": 64, "value": 127}, "group": "control_change"}, {"time": 2520, "annotation": {"number": 64, "value": 0}, "group": "control_change"}, {"time": 2521, "annotation": {"number": 64, "value": 127}, "group": "control_change"}, {"time": 2544, "annotation": {"number": 64, "value": 0}, "group": "control_change"}, {"time": 2547, "annotation": {"number": 64, "value": 127}, "group": "control_change"}, {"time": 2568, "annotation": {"number": 64, "value": 0}, "group": "control_change"}, {"time": 2570, "annotation": {"number": 64, "value": 127}, "group": "control_change"}, {"time": 2592, "annotation": {"number": 64, "value": 0}, "group": "control_change"}, {"time": 2594, "annotation": {"number": 64, "value": 127}, "group": "control_change"}, {"time": 2615, "annotation": {"number": 64, "value": 0}, "group": "control_change"}, {"time": 2617, "annotation": {"number": 64, "value": 127}, "group": "control_change"}, {"time": 2639, "annotation": {"number": 64, "value": 0}, "group": "control_change"}, {"time": 2641, "annotation": {"number": 64, "value": 127}, "group": "control_change"}, {"time": 2663, "annotation": {"number": 64, "value": 0}, "group": "control_change"}, {"time": 2666, "annotation": {"number": 64, "value": 127}, "group": "control_change"}, {"time": 2687, "annotation": {"number": 64, "value": 0}, "group": "control_change"}, {"time": 2689, "annotation": {"number": 64, "value": 127}, "group": "control_change"}, {"time": 2734, "annotation": {"number": 64, "value": 0}, "group": "control_change"}, {"time": 2738, "annotation": {"number": 64, "value": 127}, "group": "control_change"}, {"time": 2760, "annotation": {"number": 64, "value": 0}, "group": "control_change"}, {"time": 2763, "annotation": {"number": 64, "value": 127}, "group": "control_change"}, {"time": 2784, "annotation": {"number": 64, "value": 0}, "group": "control_change"}, {"time": 2787, "annotation": {"number": 64, "value": 127}, "group": "control_change"}, {"time": 2807, "annotation": {"number": 64, "value": 0}, "group": "control_change"}, {"time": 2809, "annotation": {"number": 64, "value": 127}, "group": "control_change"}, {"time": 2832, "annotation": {"number": 64, "value": 0}, "group": "control_change"}, {"time": 2834, "annotation": {"number": 64, "value": 127}, "group": "control_change"}, {"time": 2855, "annotation": {"number": 64, "value": 0}, "group": "control_change"}, {"time": 2857, "annotation": {"number": 64, "value": 127}, "group": "control_change"}, {"time": 2879, "annotation": {"number": 64, "value": 0}, "group": "control_change"}, {"time": 2881, "annotation": {"number": 64, "value": 127}, "group": "control_change"}, {"time": 2926, "annotation": {"number": 64, "value": 0}, "group": "control_change"}, {"time": 2928, "annotation": {"number": 64, "value": 127}, "group": "control_change"}, {"time": 2951, "annotation": {"number": 64, "value": 0}, "group": "control_change"}, {"time": 2953, "annotation": {"number": 64, "value": 127}, "group": "control_change"}, {"time": 2975, "annotation": {"number": 64, "value": 0}, "group": "control_change"}, {"time": 2976, "annotation": {"number": 64, "value": 127}, "group": "control_change"}, {"time": 2999, "annotation": {"number": 64, "value": 0}, "group": "control_change"}, {"time": 3000, "annotation": {"number": 64, "value": 127}, "group": "control_change"}, {"time": 3023, "annotation": {"number": 64, "value": 0}, "group": "control_change"}, {"time": 3025, "annotation": {"number": 64, "value": 127}, "group": "control_change"}, {"time": 3047, "annotation": {"number": 64, "value": 0}, "group": "control_change"}, {"time": 3049, "annotation": {"number": 64, "value": 127}, "group": "control_change"}, {"time": 3070, "annotation": {"number": 64, "value": 0}, "group": "control_change"}, {"time": 3072, "annotation": {"number": 64, "value": 127}, "group": "control_change"}, {"time": 3096, "annotation": {"number": 64, "value": 0}, "group": "control_change"}, {"time": 3098, "annotation": {"number": 64, "value": 127}, "group": "control_change"}, {"time": 3119, "annotation": {"number": 64, "value": 0}, "group": "control_change"}, {"time": 3122, "annotation": {"number": 64, "value": 127}, "group": "control_change"}, {"time": 3122, "annotation": {"number": 64, "value": 0}, "group": "control_change"}, {"time": 3143, "annotation": {"number": 64, "value": 0}, "group": "control_change"}, {"time": 3147, "annotation": {"number": 64, "value": 127}, "group": "control_change"}, {"time": 3166, "annotation": {"number": 64, "value": 0}, "group": "control_change"}, {"time": 3170, "annotation": {"number": 64, "value": 127}, "group": "control_change"}, {"time": 3212, "annotation": {"number": 64, "value": 0}, "group": "control_change"}, {"time": 3217, "annotation": {"number": 64, "value": 127}, "group": "control_change"}, {"time": 3218, "annotation": {"number": 64, "value": 0}, "group": "control_change"}, {"time": 3218, "annotation": {"number": 64, "value": 127}, "group": "control_change"}, {"time": 3240, "annotation": {"number": 64, "value": 0}, "group": "control_change"}, {"time": 3246, "annotation": {"number": 64, "value": 127}, "group": "control_change"}, {"time": 3264, "annotation": {"number": 64, "value": 0}, "group": "control_change"}, {"time": 3266, "annotation": {"number": 64, "value": 127}, "group": "control_change"}, {"time": 3288, "annotation": {"number": 64, "value": 0}, "group": "control_change"}, {"time": 3291, "annotation": {"number": 64, "value": 127}, "group": "control_change"}, {"time": 3330, "annotation": {"number": 64, "value": 127}, "group": "control_change"}, {"time": 3337, "annotation": {"number": 64, "value": 0}, "group": "control_change"}, {"time": 3339, "annotation": {"number": 64, "value": 127}, "group": "control_change"}, {"time": 3383, "annotation": {"number": 64, "value": 0}, "group": "control_change"}, {"time": 3385, "annotation": {"number": 64, "value": 127}, "group": "control_change"}, {"time": 3443, "annotation": {"number": 64, "value": 0}, "group": "control_change"}]}]}