{"metadata": {"schema_version": "0.2", "title": "None", "source_filename": "677.mid", "source_format": "midi"}, "resolution": 12, "tempos": [{"time": 0, "qpm": 67.00010385016097}], "time_signatures": [{"time": 0, "numerator": 1, "denominator": 4}], "tracks": [{"program": 4, "is_drum": false, "name": "MELODY", "notes": [{"time": 199, "pitch": 69, "duration": 2, "velocity": 85}, {"time": 202, "pitch": 71, "duration": 2, "velocity": 92}, {"time": 205, "pitch": 72, "duration": 5, "velocity": 83}, {"time": 211, "pitch": 71, "duration": 2, "velocity": 92}, {"time": 214, "pitch": 69, "duration": 2, "velocity": 81}, {"time": 217, "pitch": 69, "duration": 4, "velocity": 87}, {"time": 223, "pitch": 71, "duration": 2, "velocity": 82}, {"time": 226, "pitch": 69, "duration": 16, "velocity": 88}, {"time": 247, "pitch": 72, "duration": 2, "velocity": 90}, {"time": 250, "pitch": 74, "duration": 2, "velocity": 95}, {"time": 253, "pitch": 76, "duration": 4, "velocity": 86}, {"time": 259, "pitch": 74, "duration": 2, "velocity": 98}, {"time": 262, "pitch": 72, "duration": 2, "velocity": 85}, {"time": 265, "pitch": 71, "duration": 5, "velocity": 82}, {"time": 271, "pitch": 72, "duration": 2, "velocity": 69}, {"time": 274, "pitch": 71, "duration": 8, "velocity": 95}, {"time": 283, "pitch": 69, "duration": 8, "velocity": 85}, {"time": 298, "pitch": 69, "duration": 2, "velocity": 83}, {"time": 301, "pitch": 71, "duration": 17, "velocity": 86}, {"time": 319, "pitch": 69, "duration": 7, "velocity": 87}, {"time": 325, "pitch": 67, "duration": 5, "velocity": 77}, {"time": 331, "pitch": 69, "duration": 2, "velocity": 85}, {"time": 334, "pitch": 71, "duration": 8, "velocity": 82}, {"time": 343, "pitch": 67, "duration": 6, "velocity": 83}, {"time": 349, "pitch": 64, "duration": 12, "velocity": 82}, {"time": 361, "pitch": 62, "duration": 5, "velocity": 83}, {"time": 367, "pitch": 64, "duration": 3, "velocity": 83}, {"time": 373, "pitch": 64, "duration": 14, "velocity": 82}, {"time": 391, "pitch": 69, "duration": 2, "velocity": 85}, {"time": 394, "pitch": 71, "duration": 2, "velocity": 92}, {"time": 397, "pitch": 72, "duration": 5, "velocity": 83}, {"time": 403, "pitch": 71, "duration": 2, "velocity": 92}, {"time": 406, "pitch": 69, "duration": 2, "velocity": 81}, {"time": 409, "pitch": 69, "duration": 4, "velocity": 87}, {"time": 415, "pitch": 71, "duration": 2, "velocity": 82}, {"time": 418, "pitch": 69, "duration": 16, "velocity": 88}, {"time": 439, "pitch": 72, "duration": 2, "velocity": 90}, {"time": 442, "pitch": 74, "duration": 2, "velocity": 95}, {"time": 445, "pitch": 76, "duration": 4, "velocity": 86}, {"time": 451, "pitch": 74, "duration": 2, "velocity": 98}, {"time": 454, "pitch": 72, "duration": 2, "velocity": 85}, {"time": 457, "pitch": 71, "duration": 5, "velocity": 82}, {"time": 463, "pitch": 72, "duration": 2, "velocity": 69}, {"time": 466, "pitch": 71, "duration": 8, "velocity": 95}, {"time": 475, "pitch": 69, "duration": 8, "velocity": 85}, {"time": 493, "pitch": 74, "duration": 4, "velocity": 98}, {"time": 499, "pitch": 74, "duration": 3, "velocity": 98}, {"time": 505, "pitch": 74, "duration": 4, "velocity": 98}, {"time": 511, "pitch": 76, "duration": 4, "velocity": 90}, {"time": 517, "pitch": 77, "duration": 5, "velocity": 86}, {"time": 523, "pitch": 76, "duration": 5, "velocity": 86}, {"time": 529, "pitch": 74, "duration": 5, "velocity": 95}, {"time": 535, "pitch": 72, "duration": 5, "velocity": 83}, {"time": 541, "pitch": 77, "duration": 4, "velocity": 84}, {"time": 547, "pitch": 76, "duration": 5, "velocity": 88}, {"time": 553, "pitch": 74, "duration": 5, "velocity": 97}, {"time": 559, "pitch": 77, "duration": 2, "velocity": 83}, {"time": 562, "pitch": 76, "duration": 20, "velocity": 97}, {"time": 586, "pitch": 76, "duration": 2, "velocity": 92}, {"time": 589, "pitch": 81, "duration": 4, "velocity": 87}, {"time": 595, "pitch": 81, "duration": 3, "velocity": 86}, {"time": 601, "pitch": 81, "duration": 5, "velocity": 88}, {"time": 607, "pitch": 76, "duration": 4, "velocity": 92}, {"time": 613, "pitch": 74, "duration": 13, "velocity": 95}, {"time": 634, "pitch": 74, "duration": 2, "velocity": 95}, {"time": 637, "pitch": 79, "duration": 3, "velocity": 83}, {"time": 643, "pitch": 79, "duration": 3, "velocity": 87}, {"time": 649, "pitch": 79, "duration": 4, "velocity": 92}, {"time": 655, "pitch": 74, "duration": 2, "velocity": 90}, {"time": 658, "pitch": 76, "duration": 15, "velocity": 86}, {"time": 673, "pitch": 74, "duration": 2, "velocity": 97}, {"time": 676, "pitch": 72, "duration": 7, "velocity": 88}, {"time": 685, "pitch": 81, "duration": 4, "velocity": 87}, {"time": 691, "pitch": 81, "duration": 3, "velocity": 85}, {"time": 697, "pitch": 81, "duration": 4, "velocity": 88}, {"time": 703, "pitch": 76, "duration": 5, "velocity": 88}, {"time": 709, "pitch": 74, "duration": 13, "velocity": 95}, {"time": 730, "pitch": 74, "duration": 2, "velocity": 92}, {"time": 733, "pitch": 79, "duration": 4, "velocity": 87}, {"time": 739, "pitch": 79, "duration": 3, "velocity": 85}, {"time": 745, "pitch": 79, "duration": 5, "velocity": 85}, {"time": 751, "pitch": 74, "duration": 4, "velocity": 90}, {"time": 757, "pitch": 76, "duration": 13, "velocity": 85}, {"time": 775, "pitch": 74, "duration": 2, "velocity": 88}, {"time": 778, "pitch": 76, "duration": 2, "velocity": 88}, {"time": 781, "pitch": 77, "duration": 4, "velocity": 83}, {"time": 787, "pitch": 76, "duration": 4, "velocity": 90}, {"time": 793, "pitch": 74, "duration": 10, "velocity": 92}, {"time": 805, "pitch": 76, "duration": 4, "velocity": 85}, {"time": 811, "pitch": 74, "duration": 5, "velocity": 85}, {"time": 817, "pitch": 72, "duration": 6, "velocity": 85}, {"time": 823, "pitch": 74, "duration": 1, "velocity": 90}, {"time": 826, "pitch": 76, "duration": 2, "velocity": 88}, {"time": 829, "pitch": 77, "duration": 4, "velocity": 85}, {"time": 835, "pitch": 76, "duration": 4, "velocity": 97}, {"time": 841, "pitch": 74, "duration": 6, "velocity": 98}, {"time": 847, "pitch": 77, "duration": 4, "velocity": 81}, {"time": 853, "pitch": 76, "duration": 4, "velocity": 88}, {"time": 859, "pitch": 76, "duration": 4, "velocity": 86}, {"time": 865, "pitch": 76, "duration": 4, "velocity": 85}, {"time": 871, "pitch": 76, "duration": 4, "velocity": 83}, {"time": 877, "pitch": 76, "duration": 4, "velocity": 86}, {"time": 883, "pitch": 74, "duration": 5, "velocity": 24}, {"time": 889, "pitch": 72, "duration": 4, "velocity": 85}, {"time": 895, "pitch": 71, "duration": 6, "velocity": 83}, {"time": 901, "pitch": 69, "duration": 11, "velocity": 82}, {"time": 913, "pitch": 76, "duration": 10, "velocity": 87}, {"time": 925, "pitch": 74, "duration": 13, "velocity": 87}, {"time": 937, "pitch": 71, "duration": 5, "velocity": 80}, {"time": 943, "pitch": 67, "duration": 5, "velocity": 84}, {"time": 949, "pitch": 69, "duration": 10, "velocity": 85}, {"time": 961, "pitch": 76, "duration": 10, "velocity": 88}, {"time": 973, "pitch": 74, "duration": 11, "velocity": 92}, {"time": 985, "pitch": 71, "duration": 5, "velocity": 83}, {"time": 991, "pitch": 67, "duration": 5, "velocity": 84}, {"time": 997, "pitch": 69, "duration": 23, "velocity": 86}, {"time": 1033, "pitch": 67, "duration": 5, "velocity": 86}, {"time": 1039, "pitch": 64, "duration": 5, "velocity": 92}, {"time": 1045, "pitch": 69, "duration": 36, "velocity": 82}, {"time": 1081, "pitch": 72, "duration": 6, "velocity": 87}, {"time": 1087, "pitch": 71, "duration": 6, "velocity": 82}, {"time": 1093, "pitch": 69, "duration": 29, "velocity": 82}, {"time": 1519, "pitch": 69, "duration": 2, "velocity": 85}, {"time": 1522, "pitch": 71, "duration": 2, "velocity": 92}, {"time": 1525, "pitch": 72, "duration": 5, "velocity": 83}, {"time": 1531, "pitch": 71, "duration": 2, "velocity": 92}, {"time": 1534, "pitch": 69, "duration": 2, "velocity": 81}, {"time": 1537, "pitch": 69, "duration": 4, "velocity": 87}, {"time": 1543, "pitch": 71, "duration": 2, "velocity": 82}, {"time": 1546, "pitch": 69, "duration": 16, "velocity": 88}, {"time": 1567, "pitch": 72, "duration": 2, "velocity": 90}, {"time": 1570, "pitch": 74, "duration": 2, "velocity": 95}, {"time": 1573, "pitch": 76, "duration": 4, "velocity": 86}, {"time": 1579, "pitch": 74, "duration": 2, "velocity": 98}, {"time": 1582, "pitch": 72, "duration": 2, "velocity": 85}, {"time": 1585, "pitch": 71, "duration": 5, "velocity": 82}, {"time": 1591, "pitch": 72, "duration": 2, "velocity": 69}, {"time": 1594, "pitch": 71, "duration": 8, "velocity": 95}, {"time": 1603, "pitch": 69, "duration": 8, "velocity": 85}, {"time": 1618, "pitch": 69, "duration": 2, "velocity": 83}, {"time": 1621, "pitch": 71, "duration": 17, "velocity": 86}, {"time": 1639, "pitch": 69, "duration": 7, "velocity": 87}, {"time": 1645, "pitch": 67, "duration": 5, "velocity": 77}, {"time": 1651, "pitch": 69, "duration": 2, "velocity": 85}, {"time": 1654, "pitch": 71, "duration": 8, "velocity": 82}, {"time": 1663, "pitch": 67, "duration": 6, "velocity": 83}, {"time": 1669, "pitch": 64, "duration": 12, "velocity": 82}, {"time": 1681, "pitch": 62, "duration": 5, "velocity": 83}, {"time": 1687, "pitch": 64, "duration": 3, "velocity": 83}, {"time": 1693, "pitch": 64, "duration": 14, "velocity": 82}, {"time": 1711, "pitch": 69, "duration": 2, "velocity": 85}, {"time": 1714, "pitch": 71, "duration": 2, "velocity": 92}, {"time": 1717, "pitch": 72, "duration": 5, "velocity": 83}, {"time": 1723, "pitch": 71, "duration": 2, "velocity": 92}, {"time": 1726, "pitch": 69, "duration": 2, "velocity": 81}, {"time": 1729, "pitch": 69, "duration": 4, "velocity": 87}, {"time": 1735, "pitch": 71, "duration": 2, "velocity": 82}, {"time": 1738, "pitch": 69, "duration": 16, "velocity": 88}, {"time": 1759, "pitch": 72, "duration": 2, "velocity": 90}, {"time": 1762, "pitch": 74, "duration": 2, "velocity": 95}, {"time": 1765, "pitch": 76, "duration": 4, "velocity": 86}, {"time": 1771, "pitch": 74, "duration": 2, "velocity": 98}, {"time": 1774, "pitch": 72, "duration": 2, "velocity": 85}, {"time": 1777, "pitch": 71, "duration": 5, "velocity": 82}, {"time": 1783, "pitch": 72, "duration": 2, "velocity": 69}, {"time": 1786, "pitch": 71, "duration": 8, "velocity": 95}, {"time": 1795, "pitch": 69, "duration": 8, "velocity": 85}, {"time": 1813, "pitch": 74, "duration": 4, "velocity": 98}, {"time": 1819, "pitch": 74, "duration": 3, "velocity": 98}, {"time": 1825, "pitch": 74, "duration": 4, "velocity": 98}, {"time": 1831, "pitch": 76, "duration": 4, "velocity": 90}, {"time": 1837, "pitch": 77, "duration": 5, "velocity": 86}, {"time": 1843, "pitch": 76, "duration": 5, "velocity": 86}, {"time": 1849, "pitch": 74, "duration": 5, "velocity": 95}, {"time": 1855, "pitch": 72, "duration": 5, "velocity": 83}, {"time": 1861, "pitch": 77, "duration": 4, "velocity": 84}, {"time": 1867, "pitch": 76, "duration": 5, "velocity": 88}, {"time": 1873, "pitch": 74, "duration": 5, "velocity": 97}, {"time": 1879, "pitch": 77, "duration": 2, "velocity": 83}, {"time": 1882, "pitch": 76, "duration": 20, "velocity": 97}, {"time": 1906, "pitch": 76, "duration": 2, "velocity": 92}, {"time": 1909, "pitch": 81, "duration": 4, "velocity": 87}, {"time": 1915, "pitch": 81, "duration": 3, "velocity": 86}, {"time": 1921, "pitch": 81, "duration": 5, "velocity": 88}, {"time": 1927, "pitch": 76, "duration": 4, "velocity": 92}, {"time": 1933, "pitch": 74, "duration": 13, "velocity": 95}, {"time": 1954, "pitch": 74, "duration": 2, "velocity": 95}, {"time": 1957, "pitch": 79, "duration": 3, "velocity": 83}, {"time": 1963, "pitch": 79, "duration": 3, "velocity": 87}, {"time": 1969, "pitch": 79, "duration": 4, "velocity": 92}, {"time": 1975, "pitch": 74, "duration": 2, "velocity": 90}, {"time": 1978, "pitch": 76, "duration": 15, "velocity": 86}, {"time": 1993, "pitch": 74, "duration": 2, "velocity": 97}, {"time": 1996, "pitch": 72, "duration": 7, "velocity": 88}, {"time": 2005, "pitch": 81, "duration": 4, "velocity": 87}, {"time": 2011, "pitch": 81, "duration": 3, "velocity": 85}, {"time": 2017, "pitch": 81, "duration": 4, "velocity": 88}, {"time": 2023, "pitch": 76, "duration": 5, "velocity": 88}, {"time": 2029, "pitch": 74, "duration": 13, "velocity": 95}, {"time": 2050, "pitch": 74, "duration": 2, "velocity": 92}, {"time": 2053, "pitch": 79, "duration": 4, "velocity": 87}, {"time": 2059, "pitch": 79, "duration": 3, "velocity": 85}, {"time": 2065, "pitch": 79, "duration": 5, "velocity": 85}, {"time": 2071, "pitch": 74, "duration": 4, "velocity": 90}, {"time": 2077, "pitch": 76, "duration": 13, "velocity": 85}, {"time": 2095, "pitch": 74, "duration": 2, "velocity": 88}, {"time": 2098, "pitch": 76, "duration": 2, "velocity": 88}, {"time": 2101, "pitch": 77, "duration": 4, "velocity": 83}, {"time": 2107, "pitch": 76, "duration": 4, "velocity": 90}, {"time": 2113, "pitch": 74, "duration": 10, "velocity": 92}, {"time": 2125, "pitch": 76, "duration": 4, "velocity": 85}, {"time": 2131, "pitch": 74, "duration": 5, "velocity": 85}, {"time": 2137, "pitch": 72, "duration": 6, "velocity": 85}, {"time": 2143, "pitch": 74, "duration": 1, "velocity": 90}, {"time": 2146, "pitch": 76, "duration": 2, "velocity": 88}, {"time": 2149, "pitch": 77, "duration": 4, "velocity": 85}, {"time": 2155, "pitch": 76, "duration": 4, "velocity": 97}, {"time": 2161, "pitch": 74, "duration": 6, "velocity": 98}, {"time": 2167, "pitch": 77, "duration": 4, "velocity": 81}, {"time": 2173, "pitch": 76, "duration": 4, "velocity": 88}, {"time": 2179, "pitch": 76, "duration": 4, "velocity": 86}, {"time": 2185, "pitch": 76, "duration": 4, "velocity": 85}, {"time": 2191, "pitch": 76, "duration": 4, "velocity": 83}, {"time": 2197, "pitch": 76, "duration": 4, "velocity": 86}, {"time": 2233, "pitch": 76, "duration": 10, "velocity": 87}, {"time": 2245, "pitch": 74, "duration": 13, "velocity": 87}, {"time": 2266, "pitch": 76, "duration": 2, "velocity": 92}, {"time": 2269, "pitch": 81, "duration": 4, "velocity": 87}, {"time": 2275, "pitch": 81, "duration": 3, "velocity": 86}, {"time": 2281, "pitch": 81, "duration": 5, "velocity": 88}, {"time": 2287, "pitch": 76, "duration": 4, "velocity": 92}, {"time": 2293, "pitch": 74, "duration": 13, "velocity": 95}, {"time": 2314, "pitch": 74, "duration": 2, "velocity": 95}, {"time": 2317, "pitch": 79, "duration": 3, "velocity": 83}, {"time": 2323, "pitch": 79, "duration": 3, "velocity": 87}, {"time": 2329, "pitch": 79, "duration": 4, "velocity": 92}, {"time": 2335, "pitch": 74, "duration": 2, "velocity": 90}, {"time": 2338, "pitch": 76, "duration": 15, "velocity": 86}, {"time": 2353, "pitch": 74, "duration": 2, "velocity": 97}, {"time": 2356, "pitch": 72, "duration": 7, "velocity": 88}, {"time": 2365, "pitch": 81, "duration": 4, "velocity": 87}, {"time": 2371, "pitch": 81, "duration": 3, "velocity": 85}, {"time": 2377, "pitch": 81, "duration": 4, "velocity": 88}, {"time": 2383, "pitch": 76, "duration": 5, "velocity": 88}, {"time": 2389, "pitch": 74, "duration": 13, "velocity": 95}, {"time": 2410, "pitch": 74, "duration": 2, "velocity": 92}, {"time": 2413, "pitch": 79, "duration": 4, "velocity": 87}, {"time": 2419, "pitch": 79, "duration": 3, "velocity": 85}, {"time": 2425, "pitch": 79, "duration": 5, "velocity": 85}, {"time": 2431, "pitch": 74, "duration": 4, "velocity": 90}, {"time": 2437, "pitch": 76, "duration": 13, "velocity": 85}, {"time": 2455, "pitch": 74, "duration": 2, "velocity": 88}, {"time": 2458, "pitch": 76, "duration": 2, "velocity": 88}, {"time": 2461, "pitch": 77, "duration": 4, "velocity": 83}, {"time": 2467, "pitch": 76, "duration": 4, "velocity": 90}, {"time": 2473, "pitch": 74, "duration": 10, "velocity": 92}, {"time": 2485, "pitch": 76, "duration": 4, "velocity": 85}, {"time": 2491, "pitch": 74, "duration": 5, "velocity": 85}, {"time": 2497, "pitch": 72, "duration": 6, "velocity": 85}, {"time": 2503, "pitch": 74, "duration": 1, "velocity": 90}, {"time": 2506, "pitch": 76, "duration": 2, "velocity": 88}, {"time": 2509, "pitch": 77, "duration": 4, "velocity": 85}, {"time": 2515, "pitch": 76, "duration": 4, "velocity": 97}, {"time": 2521, "pitch": 74, "duration": 6, "velocity": 98}, {"time": 2527, "pitch": 77, "duration": 4, "velocity": 81}, {"time": 2533, "pitch": 76, "duration": 4, "velocity": 88}, {"time": 2539, "pitch": 76, "duration": 4, "velocity": 86}, {"time": 2545, "pitch": 76, "duration": 4, "velocity": 85}, {"time": 2551, "pitch": 76, "duration": 4, "velocity": 83}, {"time": 2557, "pitch": 76, "duration": 4, "velocity": 86}, {"time": 2563, "pitch": 74, "duration": 5, "velocity": 24}, {"time": 2569, "pitch": 72, "duration": 4, "velocity": 85}, {"time": 2575, "pitch": 71, "duration": 6, "velocity": 83}, {"time": 2581, "pitch": 69, "duration": 11, "velocity": 82}, {"time": 2593, "pitch": 76, "duration": 10, "velocity": 87}, {"time": 2605, "pitch": 74, "duration": 13, "velocity": 87}, {"time": 2617, "pitch": 71, "duration": 5, "velocity": 80}, {"time": 2623, "pitch": 67, "duration": 5, "velocity": 84}, {"time": 2629, "pitch": 69, "duration": 10, "velocity": 85}, {"time": 2641, "pitch": 76, "duration": 10, "velocity": 88}, {"time": 2653, "pitch": 74, "duration": 11, "velocity": 92}, {"time": 2665, "pitch": 71, "duration": 5, "velocity": 83}, {"time": 2671, "pitch": 67, "duration": 5, "velocity": 84}, {"time": 2677, "pitch": 69, "duration": 23, "velocity": 86}, {"time": 2713, "pitch": 67, "duration": 5, "velocity": 86}, {"time": 2719, "pitch": 64, "duration": 5, "velocity": 92}, {"time": 2725, "pitch": 69, "duration": 36, "velocity": 82}, {"time": 2761, "pitch": 72, "duration": 6, "velocity": 87}, {"time": 2767, "pitch": 71, "duration": 6, "velocity": 82}, {"time": 2773, "pitch": 69, "duration": 29, "velocity": 82}]}, {"program": 0, "is_drum": false, "name": "PIANO", "notes": [{"time": 12, "pitch": 45, "duration": 21, "velocity": 83}, {"time": 19, "pitch": 52, "duration": 14, "velocity": 77}, {"time": 25, "pitch": 60, "duration": 5, "velocity": 84}, {"time": 30, "pitch": 57, "duration": 2, "velocity": 75}, {"time": 34, "pitch": 57, "duration": 6, "velocity": 62}, {"time": 36, "pitch": 60, "duration": 6, "velocity": 78}, {"time": 36, "pitch": 64, "duration": 7, "velocity": 76}, {"time": 37, "pitch": 45, "duration": 15, "velocity": 66}, {"time": 37, "pitch": 69, "duration": 6, "velocity": 81}, {"time": 42, "pitch": 52, "duration": 8, "velocity": 59}, {"time": 49, "pitch": 64, "duration": 2, "velocity": 77}, {"time": 49, "pitch": 60, "duration": 2, "velocity": 74}, {"time": 60, "pitch": 55, "duration": 13, "velocity": 70}, {"time": 60, "pitch": 43, "duration": 40, "velocity": 78}, {"time": 60, "pitch": 59, "duration": 12, "velocity": 77}, {"time": 66, "pitch": 50, "duration": 33, "velocity": 55}, {"time": 72, "pitch": 62, "duration": 7, "velocity": 81}, {"time": 78, "pitch": 55, "duration": 2, "velocity": 76}, {"time": 82, "pitch": 55, "duration": 1, "velocity": 61}, {"time": 83, "pitch": 59, "duration": 1, "velocity": 72}, {"time": 83, "pitch": 62, "duration": 2, "velocity": 73}, {"time": 84, "pitch": 67, "duration": 2, "velocity": 77}, {"time": 90, "pitch": 55, "duration": 4, "velocity": 75}, {"time": 96, "pitch": 62, "duration": 3, "velocity": 79}, {"time": 96, "pitch": 55, "duration": 3, "velocity": 83}, {"time": 109, "pitch": 41, "duration": 40, "velocity": 81}, {"time": 109, "pitch": 57, "duration": 8, "velocity": 73}, {"time": 109, "pitch": 60, "duration": 7, "velocity": 78}, {"time": 115, "pitch": 48, "duration": 33, "velocity": 66}, {"time": 121, "pitch": 65, "duration": 2, "velocity": 77}, {"time": 121, "pitch": 57, "duration": 2, "velocity": 82}, {"time": 133, "pitch": 57, "duration": 3, "velocity": 69}, {"time": 133, "pitch": 60, "duration": 3, "velocity": 71}, {"time": 145, "pitch": 57, "duration": 1, "velocity": 80}, {"time": 145, "pitch": 60, "duration": 1, "velocity": 80}, {"time": 145, "pitch": 65, "duration": 2, "velocity": 80}, {"time": 156, "pitch": 64, "duration": 7, "velocity": 81}, {"time": 156, "pitch": 59, "duration": 6, "velocity": 81}, {"time": 156, "pitch": 40, "duration": 1, "velocity": 83}, {"time": 162, "pitch": 52, "duration": 25, "velocity": 79}, {"time": 169, "pitch": 59, "duration": 17, "velocity": 84}, {"time": 174, "pitch": 64, "duration": 4, "velocity": 77}, {"time": 174, "pitch": 71, "duration": 4, "velocity": 74}, {"time": 180, "pitch": 76, "duration": 3, "velocity": 82}, {"time": 180, "pitch": 64, "duration": 3, "velocity": 79}, {"time": 186, "pitch": 64, "duration": 3, "velocity": 50}, {"time": 192, "pitch": 68, "duration": 2, "velocity": 66}, {"time": 192, "pitch": 71, "duration": 3, "velocity": 76}, {"time": 192, "pitch": 64, "duration": 2, "velocity": 76}, {"time": 205, "pitch": 45, "duration": 32, "velocity": 81}, {"time": 205, "pitch": 57, "duration": 8, "velocity": 70}, {"time": 205, "pitch": 64, "duration": 6, "velocity": 81}, {"time": 211, "pitch": 52, "duration": 25, "velocity": 74}, {"time": 217, "pitch": 69, "duration": 5, "velocity": 84}, {"time": 223, "pitch": 57, "duration": 3, "velocity": 80}, {"time": 229, "pitch": 60, "duration": 6, "velocity": 82}, {"time": 229, "pitch": 64, "duration": 8, "velocity": 82}, {"time": 241, "pitch": 43, "duration": 6, "velocity": 77}, {"time": 241, "pitch": 59, "duration": 7, "velocity": 81}, {"time": 241, "pitch": 62, "duration": 8, "velocity": 81}, {"time": 253, "pitch": 36, "duration": 3, "velocity": 79}, {"time": 253, "pitch": 55, "duration": 5, "velocity": 77}, {"time": 253, "pitch": 64, "duration": 8, "velocity": 81}, {"time": 259, "pitch": 48, "duration": 13, "velocity": 78}, {"time": 265, "pitch": 55, "duration": 6, "velocity": 77}, {"time": 265, "pitch": 60, "duration": 7, "velocity": 81}, {"time": 265, "pitch": 64, "duration": 6, "velocity": 86}, {"time": 277, "pitch": 45, "duration": 21, "velocity": 81}, {"time": 277, "pitch": 57, "duration": 9, "velocity": 63}, {"time": 277, "pitch": 60, "duration": 9, "velocity": 77}, {"time": 283, "pitch": 52, "duration": 12, "velocity": 70}, {"time": 289, "pitch": 57, "duration": 9, "velocity": 81}, {"time": 289, "pitch": 60, "duration": 8, "velocity": 83}, {"time": 301, "pitch": 43, "duration": 39, "velocity": 81}, {"time": 301, "pitch": 55, "duration": 12, "velocity": 75}, {"time": 301, "pitch": 59, "duration": 10, "velocity": 75}, {"time": 307, "pitch": 50, "duration": 32, "velocity": 65}, {"time": 313, "pitch": 62, "duration": 13, "velocity": 82}, {"time": 319, "pitch": 55, "duration": 7, "velocity": 74}, {"time": 325, "pitch": 67, "duration": 3, "velocity": 79}, {"time": 331, "pitch": 55, "duration": 3, "velocity": 73}, {"time": 337, "pitch": 55, "duration": 2, "velocity": 83}, {"time": 337, "pitch": 62, "duration": 2, "velocity": 81}, {"time": 349, "pitch": 40, "duration": 39, "velocity": 82}, {"time": 349, "pitch": 59, "duration": 3, "velocity": 76}, {"time": 349, "pitch": 64, "duration": 17, "velocity": 81}, {"time": 355, "pitch": 47, "duration": 33, "velocity": 67}, {"time": 356, "pitch": 52, "duration": 2, "velocity": 75}, {"time": 358, "pitch": 57, "duration": 4, "velocity": 75}, {"time": 361, "pitch": 52, "duration": 7, "velocity": 75}, {"time": 361, "pitch": 59, "duration": 6, "velocity": 75}, {"time": 364, "pitch": 62, "duration": 3, "velocity": 76}, {"time": 367, "pitch": 59, "duration": 1, "velocity": 76}, {"time": 367, "pitch": 64, "duration": 4, "velocity": 80}, {"time": 373, "pitch": 57, "duration": 13, "velocity": 81}, {"time": 373, "pitch": 52, "duration": 1, "velocity": 81}, {"time": 373, "pitch": 59, "duration": 13, "velocity": 81}, {"time": 375, "pitch": 64, "duration": 11, "velocity": 96}, {"time": 397, "pitch": 45, "duration": 20, "velocity": 82}, {"time": 397, "pitch": 57, "duration": 6, "velocity": 79}, {"time": 397, "pitch": 60, "duration": 6, "velocity": 83}, {"time": 403, "pitch": 52, "duration": 14, "velocity": 66}, {"time": 409, "pitch": 60, "duration": 5, "velocity": 83}, {"time": 409, "pitch": 64, "duration": 4, "velocity": 83}, {"time": 415, "pitch": 57, "duration": 4, "velocity": 77}, {"time": 421, "pitch": 45, "duration": 19, "velocity": 77}, {"time": 421, "pitch": 60, "duration": 6, "velocity": 75}, {"time": 421, "pitch": 64, "duration": 5, "velocity": 78}, {"time": 427, "pitch": 52, "duration": 9, "velocity": 60}, {"time": 433, "pitch": 57, "duration": 9, "velocity": 82}, {"time": 433, "pitch": 60, "duration": 9, "velocity": 87}, {"time": 439, "pitch": 52, "duration": 4, "velocity": 76}, {"time": 445, "pitch": 48, "duration": 19, "velocity": 82}, {"time": 445, "pitch": 55, "duration": 3, "velocity": 82}, {"time": 445, "pitch": 60, "duration": 7, "velocity": 82}, {"time": 451, "pitch": 55, "duration": 3, "velocity": 81}, {"time": 457, "pitch": 55, "duration": 2, "velocity": 86}, {"time": 457, "pitch": 60, "duration": 7, "velocity": 84}, {"time": 457, "pitch": 64, "duration": 6, "velocity": 82}, {"time": 463, "pitch": 55, "duration": 2, "velocity": 76}, {"time": 469, "pitch": 45, "duration": 15, "velocity": 82}, {"time": 469, "pitch": 57, "duration": 6, "velocity": 77}, {"time": 469, "pitch": 60, "duration": 6, "velocity": 77}, {"time": 475, "pitch": 52, "duration": 9, "velocity": 72}, {"time": 481, "pitch": 57, "duration": 3, "velocity": 81}, {"time": 481, "pitch": 60, "duration": 3, "velocity": 83}, {"time": 481, "pitch": 64, "duration": 3, "velocity": 83}, {"time": 493, "pitch": 38, "duration": 14, "velocity": 84}, {"time": 493, "pitch": 57, "duration": 4, "velocity": 80}, {"time": 493, "pitch": 62, "duration": 6, "velocity": 83}, {"time": 493, "pitch": 65, "duration": 5, "velocity": 81}, {"time": 499, "pitch": 45, "duration": 8, "velocity": 66}, {"time": 505, "pitch": 62, "duration": 2, "velocity": 85}, {"time": 505, "pitch": 65, "duration": 2, "velocity": 87}, {"time": 511, "pitch": 57, "duration": 4, "velocity": 87}, {"time": 517, "pitch": 50, "duration": 11, "velocity": 79}, {"time": 517, "pitch": 57, "duration": 2, "velocity": 82}, {"time": 517, "pitch": 62, "duration": 8, "velocity": 82}, {"time": 523, "pitch": 57, "duration": 3, "velocity": 68}, {"time": 529, "pitch": 57, "duration": 3, "velocity": 78}, {"time": 529, "pitch": 62, "duration": 9, "velocity": 82}, {"time": 529, "pitch": 65, "duration": 7, "velocity": 79}, {"time": 535, "pitch": 57, "duration": 4, "velocity": 78}, {"time": 541, "pitch": 50, "duration": 13, "velocity": 85}, {"time": 541, "pitch": 57, "duration": 3, "velocity": 81}, {"time": 541, "pitch": 62, "duration": 7, "velocity": 82}, {"time": 547, "pitch": 57, "duration": 3, "velocity": 81}, {"time": 553, "pitch": 57, "duration": 3, "velocity": 82}, {"time": 553, "pitch": 62, "duration": 2, "velocity": 88}, {"time": 553, "pitch": 65, "duration": 4, "velocity": 83}, {"time": 559, "pitch": 62, "duration": 3, "velocity": 85}, {"time": 565, "pitch": 40, "duration": 19, "velocity": 87}, {"time": 565, "pitch": 59, "duration": 2, "velocity": 81}, {"time": 565, "pitch": 64, "duration": 2, "velocity": 85}, {"time": 571, "pitch": 52, "duration": 2, "velocity": 80}, {"time": 571, "pitch": 56, "duration": 3, "velocity": 69}, {"time": 577, "pitch": 52, "duration": 3, "velocity": 88}, {"time": 577, "pitch": 56, "duration": 3, "velocity": 92}, {"time": 577, "pitch": 59, "duration": 4, "velocity": 90}, {"time": 583, "pitch": 59, "duration": 1, "velocity": 77}, {"time": 583, "pitch": 62, "duration": 1, "velocity": 82}, {"time": 586, "pitch": 52, "duration": 1, "velocity": 85}, {"time": 589, "pitch": 45, "duration": 22, "velocity": 82}, {"time": 589, "pitch": 57, "duration": 3, "velocity": 81}, {"time": 589, "pitch": 60, "duration": 4, "velocity": 87}, {"time": 592, "pitch": 52, "duration": 10, "velocity": 74}, {"time": 595, "pitch": 57, "duration": 3, "velocity": 77}, {"time": 598, "pitch": 60, "duration": 1, "velocity": 70}, {"time": 601, "pitch": 57, "duration": 4, "velocity": 83}, {"time": 601, "pitch": 60, "duration": 5, "velocity": 88}, {"time": 601, "pitch": 64, "duration": 5, "velocity": 95}, {"time": 604, "pitch": 52, "duration": 7, "velocity": 81}, {"time": 607, "pitch": 57, "duration": 4, "velocity": 86}, {"time": 610, "pitch": 60, "duration": 1, "velocity": 75}, {"time": 613, "pitch": 43, "duration": 16, "velocity": 81}, {"time": 613, "pitch": 55, "duration": 7, "velocity": 86}, {"time": 613, "pitch": 59, "duration": 7, "velocity": 95}, {"time": 619, "pitch": 50, "duration": 7, "velocity": 78}, {"time": 625, "pitch": 55, "duration": 3, "velocity": 86}, {"time": 625, "pitch": 59, "duration": 4, "velocity": 95}, {"time": 625, "pitch": 62, "duration": 4, "velocity": 90}, {"time": 628, "pitch": 50, "duration": 2, "velocity": 81}, {"time": 631, "pitch": 55, "duration": 4, "velocity": 85}, {"time": 637, "pitch": 43, "duration": 21, "velocity": 83}, {"time": 637, "pitch": 55, "duration": 3, "velocity": 80}, {"time": 637, "pitch": 59, "duration": 3, "velocity": 83}, {"time": 637, "pitch": 62, "duration": 3, "velocity": 81}, {"time": 640, "pitch": 50, "duration": 16, "velocity": 76}, {"time": 643, "pitch": 55, "duration": 7, "velocity": 87}, {"time": 646, "pitch": 59, "duration": 4, "velocity": 76}, {"time": 649, "pitch": 62, "duration": 7, "velocity": 76}, {"time": 655, "pitch": 55, "duration": 4, "velocity": 82}, {"time": 658, "pitch": 59, "duration": 1, "velocity": 81}, {"time": 661, "pitch": 48, "duration": 6, "velocity": 97}, {"time": 661, "pitch": 55, "duration": 3, "velocity": 83}, {"time": 661, "pitch": 60, "duration": 6, "velocity": 87}, {"time": 667, "pitch": 55, "duration": 4, "velocity": 82}, {"time": 670, "pitch": 60, "duration": 2, "velocity": 77}, {"time": 673, "pitch": 40, "duration": 7, "velocity": 82}, {"time": 673, "pitch": 64, "duration": 5, "velocity": 86}, {"time": 676, "pitch": 47, "duration": 4, "velocity": 82}, {"time": 679, "pitch": 59, "duration": 2, "velocity": 90}, {"time": 682, "pitch": 64, "duration": 1, "velocity": 88}, {"time": 685, "pitch": 45, "duration": 17, "velocity": 83}, {"time": 685, "pitch": 57, "duration": 6, "velocity": 82}, {"time": 685, "pitch": 60, "duration": 6, "velocity": 90}, {"time": 691, "pitch": 52, "duration": 7, "velocity": 74}, {"time": 697, "pitch": 57, "duration": 3, "velocity": 82}, {"time": 697, "pitch": 60, "duration": 3, "velocity": 95}, {"time": 697, "pitch": 64, "duration": 3, "velocity": 87}, {"time": 700, "pitch": 52, "duration": 2, "velocity": 81}, {"time": 703, "pitch": 57, "duration": 3, "velocity": 84}, {"time": 709, "pitch": 43, "duration": 21, "velocity": 82}, {"time": 709, "pitch": 55, "duration": 3, "velocity": 81}, {"time": 709, "pitch": 59, "duration": 5, "velocity": 81}, {"time": 712, "pitch": 50, "duration": 10, "velocity": 70}, {"time": 715, "pitch": 55, "duration": 6, "velocity": 86}, {"time": 721, "pitch": 62, "duration": 7, "velocity": 86}, {"time": 724, "pitch": 50, "duration": 5, "velocity": 86}, {"time": 727, "pitch": 55, "duration": 4, "velocity": 88}, {"time": 733, "pitch": 43, "duration": 15, "velocity": 87}, {"time": 733, "pitch": 55, "duration": 7, "velocity": 83}, {"time": 733, "pitch": 62, "duration": 7, "velocity": 81}, {"time": 739, "pitch": 50, "duration": 6, "velocity": 83}, {"time": 745, "pitch": 55, "duration": 3, "velocity": 86}, {"time": 745, "pitch": 59, "duration": 3, "velocity": 88}, {"time": 745, "pitch": 62, "duration": 4, "velocity": 86}, {"time": 748, "pitch": 50, "duration": 3, "velocity": 83}, {"time": 751, "pitch": 55, "duration": 4, "velocity": 88}, {"time": 754, "pitch": 59, "duration": 2, "velocity": 79}, {"time": 757, "pitch": 48, "duration": 13, "velocity": 90}, {"time": 757, "pitch": 55, "duration": 6, "velocity": 82}, {"time": 757, "pitch": 60, "duration": 7, "velocity": 82}, {"time": 763, "pitch": 52, "duration": 7, "velocity": 71}, {"time": 766, "pitch": 55, "duration": 1, "velocity": 83}, {"time": 769, "pitch": 55, "duration": 3, "velocity": 87}, {"time": 769, "pitch": 60, "duration": 3, "velocity": 90}, {"time": 769, "pitch": 64, "duration": 4, "velocity": 86}, {"time": 772, "pitch": 52, "duration": 2, "velocity": 82}, {"time": 775, "pitch": 48, "duration": 1, "velocity": 92}, {"time": 781, "pitch": 38, "duration": 16, "velocity": 84}, {"time": 781, "pitch": 57, "duration": 4, "velocity": 79}, {"time": 781, "pitch": 62, "duration": 5, "velocity": 82}, {"time": 781, "pitch": 65, "duration": 5, "velocity": 81}, {"time": 787, "pitch": 45, "duration": 8, "velocity": 69}, {"time": 787, "pitch": 57, "duration": 2, "velocity": 60}, {"time": 793, "pitch": 57, "duration": 2, "velocity": 83}, {"time": 793, "pitch": 62, "duration": 6, "velocity": 85}, {"time": 793, "pitch": 65, "duration": 7, "velocity": 88}, {"time": 799, "pitch": 57, "duration": 2, "velocity": 86}, {"time": 805, "pitch": 45, "duration": 15, "velocity": 81}, {"time": 805, "pitch": 57, "duration": 6, "velocity": 75}, {"time": 805, "pitch": 60, "duration": 6, "velocity": 78}, {"time": 805, "pitch": 64, "duration": 5, "velocity": 82}, {"time": 811, "pitch": 52, "duration": 8, "velocity": 71}, {"time": 817, "pitch": 57, "duration": 4, "velocity": 82}, {"time": 817, "pitch": 60, "duration": 4, "velocity": 85}, {"time": 817, "pitch": 64, "duration": 5, "velocity": 83}, {"time": 823, "pitch": 45, "duration": 1, "velocity": 82}, {"time": 829, "pitch": 38, "duration": 1, "velocity": 83}, {"time": 829, "pitch": 57, "duration": 3, "velocity": 81}, {"time": 829, "pitch": 62, "duration": 8, "velocity": 81}, {"time": 829, "pitch": 65, "duration": 7, "velocity": 81}, {"time": 835, "pitch": 57, "duration": 2, "velocity": 74}, {"time": 841, "pitch": 57, "duration": 3, "velocity": 85}, {"time": 841, "pitch": 62, "duration": 4, "velocity": 87}, {"time": 841, "pitch": 65, "duration": 7, "velocity": 85}, {"time": 847, "pitch": 57, "duration": 1, "velocity": 82}, {"time": 853, "pitch": 40, "duration": 3, "velocity": 83}, {"time": 853, "pitch": 59, "duration": 3, "velocity": 81}, {"time": 853, "pitch": 64, "duration": 3, "velocity": 81}, {"time": 859, "pitch": 40, "duration": 1, "velocity": 74}, {"time": 859, "pitch": 59, "duration": 2, "velocity": 70}, {"time": 859, "pitch": 64, "duration": 2, "velocity": 73}, {"time": 865, "pitch": 40, "duration": 3, "velocity": 85}, {"time": 865, "pitch": 59, "duration": 3, "velocity": 84}, {"time": 865, "pitch": 64, "duration": 3, "velocity": 85}, {"time": 871, "pitch": 59, "duration": 4, "velocity": 87}, {"time": 871, "pitch": 64, "duration": 4, "velocity": 87}, {"time": 877, "pitch": 40, "duration": 15, "velocity": 83}, {"time": 877, "pitch": 59, "duration": 4, "velocity": 83}, {"time": 877, "pitch": 64, "duration": 9, "velocity": 86}, {"time": 877, "pitch": 68, "duration": 8, "velocity": 87}, {"time": 883, "pitch": 47, "duration": 8, "velocity": 66}, {"time": 883, "pitch": 59, "duration": 4, "velocity": 76}, {"time": 889, "pitch": 59, "duration": 2, "velocity": 88}, {"time": 889, "pitch": 64, "duration": 6, "velocity": 92}, {"time": 895, "pitch": 59, "duration": 1, "velocity": 90}, {"time": 901, "pitch": 45, "duration": 18, "velocity": 83}, {"time": 901, "pitch": 57, "duration": 6, "velocity": 81}, {"time": 901, "pitch": 60, "duration": 5, "velocity": 82}, {"time": 907, "pitch": 52, "duration": 7, "velocity": 71}, {"time": 913, "pitch": 57, "duration": 3, "velocity": 83}, {"time": 913, "pitch": 60, "duration": 4, "velocity": 87}, {"time": 913, "pitch": 64, "duration": 5, "velocity": 90}, {"time": 919, "pitch": 57, "duration": 2, "velocity": 83}, {"time": 922, "pitch": 60, "duration": 2, "velocity": 82}, {"time": 925, "pitch": 43, "duration": 17, "velocity": 81}, {"time": 925, "pitch": 55, "duration": 9, "velocity": 84}, {"time": 925, "pitch": 59, "duration": 7, "velocity": 87}, {"time": 931, "pitch": 50, "duration": 7, "velocity": 75}, {"time": 937, "pitch": 55, "duration": 4, "velocity": 83}, {"time": 937, "pitch": 59, "duration": 3, "velocity": 85}, {"time": 937, "pitch": 62, "duration": 5, "velocity": 82}, {"time": 943, "pitch": 60, "duration": 3, "velocity": 82}, {"time": 946, "pitch": 59, "duration": 3, "velocity": 85}, {"time": 949, "pitch": 45, "duration": 18, "velocity": 82}, {"time": 949, "pitch": 57, "duration": 6, "velocity": 83}, {"time": 955, "pitch": 52, "duration": 7, "velocity": 77}, {"time": 961, "pitch": 57, "duration": 3, "velocity": 82}, {"time": 961, "pitch": 60, "duration": 3, "velocity": 84}, {"time": 961, "pitch": 64, "duration": 5, "velocity": 87}, {"time": 964, "pitch": 52, "duration": 2, "velocity": 74}, {"time": 967, "pitch": 62, "duration": 3, "velocity": 84}, {"time": 970, "pitch": 60, "duration": 2, "velocity": 83}, {"time": 973, "pitch": 43, "duration": 18, "velocity": 81}, {"time": 973, "pitch": 62, "duration": 5, "velocity": 83}, {"time": 979, "pitch": 50, "duration": 7, "velocity": 74}, {"time": 985, "pitch": 55, "duration": 3, "velocity": 82}, {"time": 985, "pitch": 62, "duration": 5, "velocity": 84}, {"time": 988, "pitch": 50, "duration": 3, "velocity": 81}, {"time": 991, "pitch": 55, "duration": 3, "velocity": 76}, {"time": 991, "pitch": 60, "duration": 4, "velocity": 82}, {"time": 997, "pitch": 41, "duration": 22, "velocity": 83}, {"time": 997, "pitch": 53, "duration": 6, "velocity": 80}, {"time": 997, "pitch": 60, "duration": 8, "velocity": 78}, {"time": 1003, "pitch": 48, "duration": 16, "velocity": 80}, {"time": 1006, "pitch": 53, "duration": 4, "velocity": 81}, {"time": 1009, "pitch": 57, "duration": 3, "velocity": 83}, {"time": 1012, "pitch": 60, "duration": 2, "velocity": 97}, {"time": 1015, "pitch": 53, "duration": 3, "velocity": 86}, {"time": 1021, "pitch": 41, "duration": 7, "velocity": 83}, {"time": 1021, "pitch": 53, "duration": 5, "velocity": 80}, {"time": 1021, "pitch": 57, "duration": 5, "velocity": 80}, {"time": 1021, "pitch": 60, "duration": 6, "velocity": 80}, {"time": 1033, "pitch": 43, "duration": 8, "velocity": 82}, {"time": 1033, "pitch": 55, "duration": 6, "velocity": 81}, {"time": 1033, "pitch": 59, "duration": 8, "velocity": 81}, {"time": 1045, "pitch": 45, "duration": 22, "velocity": 83}, {"time": 1045, "pitch": 57, "duration": 5, "velocity": 76}, {"time": 1045, "pitch": 60, "duration": 5, "velocity": 82}, {"time": 1051, "pitch": 52, "duration": 8, "velocity": 79}, {"time": 1057, "pitch": 57, "duration": 5, "velocity": 84}, {"time": 1057, "pitch": 60, "duration": 5, "velocity": 95}, {"time": 1057, "pitch": 64, "duration": 6, "velocity": 95}, {"time": 1063, "pitch": 52, "duration": 4, "velocity": 77}, {"time": 1066, "pitch": 57, "duration": 2, "velocity": 76}, {"time": 1069, "pitch": 45, "duration": 16, "velocity": 83}, {"time": 1069, "pitch": 57, "duration": 6, "velocity": 81}, {"time": 1069, "pitch": 60, "duration": 7, "velocity": 80}, {"time": 1075, "pitch": 52, "duration": 7, "velocity": 78}, {"time": 1078, "pitch": 57, "duration": 1, "velocity": 80}, {"time": 1081, "pitch": 57, "duration": 3, "velocity": 84}, {"time": 1081, "pitch": 64, "duration": 3, "velocity": 88}, {"time": 1084, "pitch": 52, "duration": 2, "velocity": 97}, {"time": 1087, "pitch": 57, "duration": 2, "velocity": 85}, {"time": 1093, "pitch": 45, "duration": 21, "velocity": 83}, {"time": 1093, "pitch": 57, "duration": 6, "velocity": 82}, {"time": 1093, "pitch": 60, "duration": 6, "velocity": 83}, {"time": 1099, "pitch": 52, "duration": 7, "velocity": 78}, {"time": 1105, "pitch": 57, "duration": 5, "velocity": 83}, {"time": 1105, "pitch": 60, "duration": 5, "velocity": 95}, {"time": 1105, "pitch": 64, "duration": 5, "velocity": 95}, {"time": 1111, "pitch": 52, "duration": 4, "velocity": 73}, {"time": 1114, "pitch": 57, "duration": 2, "velocity": 81}, {"time": 1117, "pitch": 45, "duration": 10, "velocity": 83}, {"time": 1117, "pitch": 57, "duration": 5, "velocity": 79}, {"time": 1117, "pitch": 60, "duration": 6, "velocity": 83}, {"time": 1117, "pitch": 64, "duration": 6, "velocity": 82}, {"time": 1123, "pitch": 52, "duration": 5, "velocity": 70}, {"time": 1129, "pitch": 57, "duration": 3, "velocity": 86}, {"time": 1129, "pitch": 60, "duration": 7, "velocity": 92}, {"time": 1135, "pitch": 57, "duration": 3, "velocity": 74}, {"time": 1141, "pitch": 45, "duration": 15, "velocity": 84}, {"time": 1141, "pitch": 57, "duration": 7, "velocity": 85}, {"time": 1141, "pitch": 60, "duration": 7, "velocity": 85}, {"time": 1147, "pitch": 52, "duration": 8, "velocity": 74}, {"time": 1153, "pitch": 57, "duration": 4, "velocity": 84}, {"time": 1153, "pitch": 60, "duration": 5, "velocity": 98}, {"time": 1153, "pitch": 64, "duration": 5, "velocity": 90}, {"time": 1159, "pitch": 52, "duration": 3, "velocity": 78}, {"time": 1162, "pitch": 57, "duration": 1, "velocity": 87}, {"time": 1165, "pitch": 45, "duration": 15, "velocity": 83}, {"time": 1165, "pitch": 57, "duration": 3, "velocity": 86}, {"time": 1165, "pitch": 60, "duration": 4, "velocity": 84}, {"time": 1168, "pitch": 52, "duration": 12, "velocity": 77}, {"time": 1171, "pitch": 57, "duration": 2, "velocity": 77}, {"time": 1177, "pitch": 57, "duration": 4, "velocity": 87}, {"time": 1177, "pitch": 60, "duration": 3, "velocity": 97}, {"time": 1177, "pitch": 64, "duration": 4, "velocity": 88}, {"time": 1183, "pitch": 47, "duration": 4, "velocity": 78}, {"time": 1183, "pitch": 59, "duration": 5, "velocity": 90}, {"time": 1189, "pitch": 48, "duration": 15, "velocity": 102}, {"time": 1189, "pitch": 55, "duration": 3, "velocity": 81}, {"time": 1189, "pitch": 60, "duration": 6, "velocity": 82}, {"time": 1195, "pitch": 55, "duration": 2, "velocity": 73}, {"time": 1201, "pitch": 55, "duration": 3, "velocity": 86}, {"time": 1201, "pitch": 60, "duration": 4, "velocity": 88}, {"time": 1201, "pitch": 64, "duration": 5, "velocity": 86}, {"time": 1210, "pitch": 55, "duration": 2, "velocity": 81}, {"time": 1213, "pitch": 48, "duration": 13, "velocity": 97}, {"time": 1213, "pitch": 55, "duration": 2, "velocity": 82}, {"time": 1213, "pitch": 60, "duration": 7, "velocity": 81}, {"time": 1213, "pitch": 64, "duration": 5, "velocity": 83}, {"time": 1219, "pitch": 55, "duration": 2, "velocity": 82}, {"time": 1225, "pitch": 55, "duration": 3, "velocity": 85}, {"time": 1225, "pitch": 60, "duration": 4, "velocity": 92}, {"time": 1225, "pitch": 64, "duration": 7, "velocity": 90}, {"time": 1228, "pitch": 48, "duration": 3, "velocity": 86}, {"time": 1231, "pitch": 55, "duration": 3, "velocity": 86}, {"time": 1234, "pitch": 60, "duration": 1, "velocity": 84}, {"time": 1237, "pitch": 50, "duration": 16, "velocity": 86}, {"time": 1237, "pitch": 57, "duration": 3, "velocity": 75}, {"time": 1237, "pitch": 62, "duration": 5, "velocity": 81}, {"time": 1243, "pitch": 57, "duration": 4, "velocity": 84}, {"time": 1249, "pitch": 57, "duration": 3, "velocity": 83}, {"time": 1249, "pitch": 62, "duration": 5, "velocity": 83}, {"time": 1249, "pitch": 65, "duration": 5, "velocity": 81}, {"time": 1255, "pitch": 57, "duration": 4, "velocity": 85}, {"time": 1261, "pitch": 38, "duration": 15, "velocity": 83}, {"time": 1261, "pitch": 57, "duration": 3, "velocity": 82}, {"time": 1261, "pitch": 62, "duration": 7, "velocity": 81}, {"time": 1267, "pitch": 57, "duration": 2, "velocity": 75}, {"time": 1273, "pitch": 57, "duration": 2, "velocity": 83}, {"time": 1273, "pitch": 62, "duration": 4, "velocity": 86}, {"time": 1273, "pitch": 65, "duration": 6, "velocity": 83}, {"time": 1279, "pitch": 57, "duration": 1, "velocity": 83}, {"time": 1285, "pitch": 40, "duration": 15, "velocity": 87}, {"time": 1285, "pitch": 64, "duration": 6, "velocity": 82}, {"time": 1285, "pitch": 67, "duration": 2, "velocity": 77}, {"time": 1285, "pitch": 69, "duration": 7, "velocity": 71}, {"time": 1291, "pitch": 47, "duration": 7, "velocity": 82}, {"time": 1294, "pitch": 64, "duration": 1, "velocity": 82}, {"time": 1297, "pitch": 64, "duration": 3, "velocity": 98}, {"time": 1297, "pitch": 69, "duration": 4, "velocity": 95}, {"time": 1300, "pitch": 47, "duration": 2, "velocity": 82}, {"time": 1303, "pitch": 64, "duration": 2, "velocity": 88}, {"time": 1306, "pitch": 69, "duration": 2, "velocity": 75}, {"time": 1309, "pitch": 40, "duration": 1, "velocity": 84}, {"time": 1309, "pitch": 64, "duration": 5, "velocity": 85}, {"time": 1309, "pitch": 68, "duration": 7, "velocity": 90}, {"time": 1312, "pitch": 52, "duration": 10, "velocity": 80}, {"time": 1315, "pitch": 59, "duration": 6, "velocity": 90}, {"time": 1318, "pitch": 64, "duration": 1, "velocity": 90}, {"time": 1321, "pitch": 64, "duration": 3, "velocity": 98}, {"time": 1321, "pitch": 68, "duration": 4, "velocity": 102}, {"time": 1321, "pitch": 71, "duration": 6, "velocity": 90}, {"time": 1321, "pitch": 76, "duration": 4, "velocity": 86}, {"time": 1324, "pitch": 59, "duration": 1, "velocity": 92}, {"time": 1327, "pitch": 64, "duration": 4, "velocity": 95}, {"time": 1327, "pitch": 71, "duration": 1, "velocity": 64}, {"time": 1330, "pitch": 68, "duration": 1, "velocity": 86}, {"time": 1333, "pitch": 45, "duration": 21, "velocity": 84}, {"time": 1333, "pitch": 57, "duration": 7, "velocity": 81}, {"time": 1333, "pitch": 60, "duration": 7, "velocity": 83}, {"time": 1339, "pitch": 52, "duration": 7, "velocity": 83}, {"time": 1345, "pitch": 57, "duration": 3, "velocity": 83}, {"time": 1345, "pitch": 60, "duration": 3, "velocity": 92}, {"time": 1345, "pitch": 64, "duration": 3, "velocity": 90}, {"time": 1348, "pitch": 52, "duration": 6, "velocity": 83}, {"time": 1351, "pitch": 57, "duration": 4, "velocity": 81}, {"time": 1354, "pitch": 60, "duration": 2, "velocity": 78}, {"time": 1357, "pitch": 45, "duration": 10, "velocity": 86}, {"time": 1357, "pitch": 57, "duration": 6, "velocity": 75}, {"time": 1357, "pitch": 60, "duration": 10, "velocity": 84}, {"time": 1357, "pitch": 64, "duration": 10, "velocity": 84}, {"time": 1363, "pitch": 52, "duration": 4, "velocity": 87}, {"time": 1366, "pitch": 57, "duration": 1, "velocity": 83}, {"time": 1369, "pitch": 47, "duration": 6, "velocity": 87}, {"time": 1369, "pitch": 59, "duration": 4, "velocity": 90}, {"time": 1369, "pitch": 62, "duration": 6, "velocity": 84}, {"time": 1375, "pitch": 59, "duration": 1, "velocity": 87}, {"time": 1381, "pitch": 48, "duration": 22, "velocity": 102}, {"time": 1381, "pitch": 55, "duration": 3, "velocity": 83}, {"time": 1381, "pitch": 60, "duration": 6, "velocity": 82}, {"time": 1381, "pitch": 64, "duration": 5, "velocity": 83}, {"time": 1387, "pitch": 55, "duration": 2, "velocity": 73}, {"time": 1393, "pitch": 55, "duration": 1, "velocity": 85}, {"time": 1393, "pitch": 60, "duration": 3, "velocity": 88}, {"time": 1393, "pitch": 64, "duration": 3, "velocity": 88}, {"time": 1396, "pitch": 55, "duration": 2, "velocity": 81}, {"time": 1399, "pitch": 60, "duration": 3, "velocity": 83}, {"time": 1402, "pitch": 55, "duration": 2, "velocity": 81}, {"time": 1405, "pitch": 48, "duration": 13, "velocity": 87}, {"time": 1405, "pitch": 55, "duration": 3, "velocity": 83}, {"time": 1405, "pitch": 60, "duration": 6, "velocity": 84}, {"time": 1405, "pitch": 64, "duration": 6, "velocity": 83}, {"time": 1411, "pitch": 55, "duration": 2, "velocity": 83}, {"time": 1417, "pitch": 55, "duration": 3, "velocity": 87}, {"time": 1417, "pitch": 60, "duration": 4, "velocity": 95}, {"time": 1417, "pitch": 64, "duration": 4, "velocity": 95}, {"time": 1420, "pitch": 48, "duration": 1, "velocity": 90}, {"time": 1423, "pitch": 55, "duration": 4, "velocity": 88}, {"time": 1426, "pitch": 60, "duration": 2, "velocity": 83}, {"time": 1429, "pitch": 38, "duration": 1, "velocity": 86}, {"time": 1429, "pitch": 57, "duration": 5, "velocity": 81}, {"time": 1429, "pitch": 62, "duration": 6, "velocity": 81}, {"time": 1435, "pitch": 50, "duration": 16, "velocity": 82}, {"time": 1441, "pitch": 57, "duration": 10, "velocity": 90}, {"time": 1444, "pitch": 62, "duration": 2, "velocity": 95}, {"time": 1447, "pitch": 65, "duration": 4, "velocity": 87}, {"time": 1450, "pitch": 62, "duration": 2, "velocity": 81}, {"time": 1453, "pitch": 50, "duration": 15, "velocity": 87}, {"time": 1453, "pitch": 62, "duration": 7, "velocity": 83}, {"time": 1453, "pitch": 65, "duration": 7, "velocity": 83}, {"time": 1453, "pitch": 69, "duration": 7, "velocity": 84}, {"time": 1459, "pitch": 57, "duration": 6, "velocity": 83}, {"time": 1465, "pitch": 62, "duration": 2, "velocity": 84}, {"time": 1465, "pitch": 65, "duration": 3, "velocity": 95}, {"time": 1465, "pitch": 69, "duration": 4, "velocity": 87}, {"time": 1468, "pitch": 57, "duration": 1, "velocity": 83}, {"time": 1471, "pitch": 50, "duration": 1, "velocity": 85}, {"time": 1477, "pitch": 40, "duration": 1, "velocity": 87}, {"time": 1477, "pitch": 64, "duration": 7, "velocity": 86}, {"time": 1477, "pitch": 69, "duration": 9, "velocity": 87}, {"time": 1480, "pitch": 52, "duration": 16, "velocity": 70}, {"time": 1483, "pitch": 59, "duration": 7, "velocity": 86}, {"time": 1486, "pitch": 64, "duration": 1, "velocity": 95}, {"time": 1489, "pitch": 64, "duration": 3, "velocity": 98}, {"time": 1489, "pitch": 69, "duration": 4, "velocity": 92}, {"time": 1492, "pitch": 59, "duration": 4, "velocity": 85}, {"time": 1495, "pitch": 64, "duration": 2, "velocity": 95}, {"time": 1498, "pitch": 64, "duration": 1, "velocity": 81}, {"time": 1498, "pitch": 69, "duration": 2, "velocity": 82}, {"time": 1501, "pitch": 52, "duration": 16, "velocity": 87}, {"time": 1501, "pitch": 64, "duration": 6, "velocity": 87}, {"time": 1501, "pitch": 68, "duration": 7, "velocity": 86}, {"time": 1507, "pitch": 59, "duration": 7, "velocity": 83}, {"time": 1513, "pitch": 64, "duration": 3, "velocity": 83}, {"time": 1513, "pitch": 68, "duration": 3, "velocity": 90}, {"time": 1513, "pitch": 71, "duration": 3, "velocity": 83}, {"time": 1516, "pitch": 59, "duration": 2, "velocity": 81}, {"time": 1519, "pitch": 64, "duration": 3, "velocity": 85}, {"time": 1525, "pitch": 45, "duration": 32, "velocity": 81}, {"time": 1525, "pitch": 57, "duration": 8, "velocity": 70}, {"time": 1525, "pitch": 64, "duration": 6, "velocity": 81}, {"time": 1531, "pitch": 52, "duration": 25, "velocity": 74}, {"time": 1537, "pitch": 69, "duration": 5, "velocity": 84}, {"time": 1543, "pitch": 57, "duration": 3, "velocity": 80}, {"time": 1549, "pitch": 60, "duration": 6, "velocity": 82}, {"time": 1549, "pitch": 64, "duration": 8, "velocity": 82}, {"time": 1561, "pitch": 43, "duration": 6, "velocity": 77}, {"time": 1561, "pitch": 59, "duration": 7, "velocity": 81}, {"time": 1561, "pitch": 62, "duration": 8, "velocity": 81}, {"time": 1573, "pitch": 36, "duration": 3, "velocity": 79}, {"time": 1573, "pitch": 55, "duration": 5, "velocity": 77}, {"time": 1573, "pitch": 64, "duration": 8, "velocity": 81}, {"time": 1579, "pitch": 48, "duration": 13, "velocity": 78}, {"time": 1585, "pitch": 55, "duration": 6, "velocity": 77}, {"time": 1585, "pitch": 60, "duration": 7, "velocity": 81}, {"time": 1585, "pitch": 64, "duration": 6, "velocity": 86}, {"time": 1597, "pitch": 45, "duration": 21, "velocity": 81}, {"time": 1597, "pitch": 57, "duration": 9, "velocity": 63}, {"time": 1597, "pitch": 60, "duration": 9, "velocity": 77}, {"time": 1603, "pitch": 52, "duration": 12, "velocity": 70}, {"time": 1609, "pitch": 57, "duration": 9, "velocity": 81}, {"time": 1609, "pitch": 60, "duration": 8, "velocity": 83}, {"time": 1621, "pitch": 43, "duration": 39, "velocity": 81}, {"time": 1621, "pitch": 55, "duration": 12, "velocity": 75}, {"time": 1621, "pitch": 59, "duration": 10, "velocity": 75}, {"time": 1627, "pitch": 50, "duration": 32, "velocity": 65}, {"time": 1633, "pitch": 62, "duration": 13, "velocity": 82}, {"time": 1639, "pitch": 55, "duration": 7, "velocity": 74}, {"time": 1645, "pitch": 67, "duration": 3, "velocity": 79}, {"time": 1651, "pitch": 55, "duration": 3, "velocity": 73}, {"time": 1657, "pitch": 55, "duration": 2, "velocity": 83}, {"time": 1657, "pitch": 62, "duration": 2, "velocity": 81}, {"time": 1669, "pitch": 40, "duration": 39, "velocity": 82}, {"time": 1669, "pitch": 59, "duration": 3, "velocity": 76}, {"time": 1669, "pitch": 64, "duration": 17, "velocity": 81}, {"time": 1675, "pitch": 47, "duration": 33, "velocity": 67}, {"time": 1681, "pitch": 52, "duration": 7, "velocity": 86}, {"time": 1687, "pitch": 59, "duration": 3, "velocity": 80}, {"time": 1693, "pitch": 52, "duration": 1, "velocity": 75}, {"time": 1693, "pitch": 64, "duration": 9, "velocity": 82}, {"time": 1699, "pitch": 52, "duration": 4, "velocity": 74}, {"time": 1705, "pitch": 52, "duration": 3, "velocity": 84}, {"time": 1705, "pitch": 56, "duration": 4, "velocity": 81}, {"time": 1705, "pitch": 59, "duration": 5, "velocity": 82}, {"time": 1717, "pitch": 45, "duration": 20, "velocity": 82}, {"time": 1717, "pitch": 57, "duration": 6, "velocity": 79}, {"time": 1717, "pitch": 60, "duration": 6, "velocity": 83}, {"time": 1723, "pitch": 52, "duration": 14, "velocity": 66}, {"time": 1729, "pitch": 60, "duration": 5, "velocity": 83}, {"time": 1729, "pitch": 64, "duration": 4, "velocity": 83}, {"time": 1735, "pitch": 57, "duration": 4, "velocity": 77}, {"time": 1741, "pitch": 45, "duration": 19, "velocity": 77}, {"time": 1741, "pitch": 60, "duration": 6, "velocity": 75}, {"time": 1741, "pitch": 64, "duration": 5, "velocity": 78}, {"time": 1747, "pitch": 52, "duration": 9, "velocity": 60}, {"time": 1753, "pitch": 57, "duration": 9, "velocity": 82}, {"time": 1753, "pitch": 60, "duration": 9, "velocity": 87}, {"time": 1759, "pitch": 52, "duration": 4, "velocity": 76}, {"time": 1765, "pitch": 48, "duration": 19, "velocity": 82}, {"time": 1765, "pitch": 55, "duration": 3, "velocity": 82}, {"time": 1765, "pitch": 60, "duration": 7, "velocity": 82}, {"time": 1771, "pitch": 55, "duration": 3, "velocity": 81}, {"time": 1777, "pitch": 55, "duration": 2, "velocity": 86}, {"time": 1777, "pitch": 60, "duration": 7, "velocity": 84}, {"time": 1777, "pitch": 64, "duration": 6, "velocity": 82}, {"time": 1783, "pitch": 55, "duration": 2, "velocity": 76}, {"time": 1789, "pitch": 45, "duration": 15, "velocity": 82}, {"time": 1789, "pitch": 57, "duration": 6, "velocity": 77}, {"time": 1789, "pitch": 60, "duration": 6, "velocity": 77}, {"time": 1795, "pitch": 52, "duration": 9, "velocity": 72}, {"time": 1801, "pitch": 57, "duration": 3, "velocity": 81}, {"time": 1801, "pitch": 60, "duration": 3, "velocity": 83}, {"time": 1801, "pitch": 64, "duration": 3, "velocity": 83}, {"time": 1813, "pitch": 38, "duration": 14, "velocity": 84}, {"time": 1813, "pitch": 57, "duration": 4, "velocity": 80}, {"time": 1813, "pitch": 62, "duration": 6, "velocity": 83}, {"time": 1813, "pitch": 65, "duration": 5, "velocity": 81}, {"time": 1819, "pitch": 45, "duration": 8, "velocity": 66}, {"time": 1825, "pitch": 62, "duration": 2, "velocity": 85}, {"time": 1825, "pitch": 65, "duration": 2, "velocity": 87}, {"time": 1831, "pitch": 57, "duration": 4, "velocity": 87}, {"time": 1837, "pitch": 50, "duration": 11, "velocity": 79}, {"time": 1837, "pitch": 57, "duration": 2, "velocity": 82}, {"time": 1837, "pitch": 62, "duration": 8, "velocity": 82}, {"time": 1843, "pitch": 57, "duration": 3, "velocity": 68}, {"time": 1849, "pitch": 57, "duration": 3, "velocity": 78}, {"time": 1849, "pitch": 62, "duration": 9, "velocity": 82}, {"time": 1849, "pitch": 65, "duration": 7, "velocity": 79}, {"time": 1855, "pitch": 57, "duration": 4, "velocity": 78}, {"time": 1861, "pitch": 50, "duration": 13, "velocity": 85}, {"time": 1861, "pitch": 57, "duration": 3, "velocity": 81}, {"time": 1861, "pitch": 62, "duration": 7, "velocity": 82}, {"time": 1867, "pitch": 57, "duration": 3, "velocity": 81}, {"time": 1873, "pitch": 57, "duration": 3, "velocity": 82}, {"time": 1873, "pitch": 62, "duration": 2, "velocity": 88}, {"time": 1873, "pitch": 65, "duration": 4, "velocity": 83}, {"time": 1879, "pitch": 62, "duration": 3, "velocity": 85}, {"time": 1885, "pitch": 40, "duration": 19, "velocity": 87}, {"time": 1885, "pitch": 59, "duration": 2, "velocity": 81}, {"time": 1885, "pitch": 64, "duration": 2, "velocity": 85}, {"time": 1891, "pitch": 52, "duration": 2, "velocity": 80}, {"time": 1891, "pitch": 56, "duration": 3, "velocity": 69}, {"time": 1897, "pitch": 52, "duration": 3, "velocity": 88}, {"time": 1897, "pitch": 56, "duration": 3, "velocity": 92}, {"time": 1897, "pitch": 59, "duration": 4, "velocity": 90}, {"time": 1903, "pitch": 59, "duration": 1, "velocity": 77}, {"time": 1903, "pitch": 62, "duration": 1, "velocity": 82}, {"time": 1906, "pitch": 52, "duration": 1, "velocity": 85}, {"time": 1909, "pitch": 45, "duration": 22, "velocity": 82}, {"time": 1909, "pitch": 57, "duration": 3, "velocity": 81}, {"time": 1909, "pitch": 60, "duration": 4, "velocity": 87}, {"time": 1912, "pitch": 52, "duration": 10, "velocity": 74}, {"time": 1915, "pitch": 57, "duration": 3, "velocity": 77}, {"time": 1918, "pitch": 60, "duration": 1, "velocity": 70}, {"time": 1921, "pitch": 57, "duration": 4, "velocity": 83}, {"time": 1921, "pitch": 60, "duration": 5, "velocity": 88}, {"time": 1921, "pitch": 64, "duration": 5, "velocity": 95}, {"time": 1924, "pitch": 52, "duration": 7, "velocity": 81}, {"time": 1927, "pitch": 57, "duration": 4, "velocity": 86}, {"time": 1930, "pitch": 60, "duration": 1, "velocity": 75}, {"time": 1933, "pitch": 43, "duration": 16, "velocity": 81}, {"time": 1933, "pitch": 55, "duration": 7, "velocity": 86}, {"time": 1933, "pitch": 59, "duration": 7, "velocity": 95}, {"time": 1939, "pitch": 50, "duration": 7, "velocity": 78}, {"time": 1945, "pitch": 55, "duration": 3, "velocity": 86}, {"time": 1945, "pitch": 59, "duration": 4, "velocity": 95}, {"time": 1945, "pitch": 62, "duration": 4, "velocity": 90}, {"time": 1948, "pitch": 50, "duration": 2, "velocity": 81}, {"time": 1951, "pitch": 55, "duration": 4, "velocity": 85}, {"time": 1957, "pitch": 43, "duration": 21, "velocity": 83}, {"time": 1957, "pitch": 55, "duration": 3, "velocity": 80}, {"time": 1957, "pitch": 59, "duration": 3, "velocity": 83}, {"time": 1957, "pitch": 62, "duration": 3, "velocity": 81}, {"time": 1960, "pitch": 50, "duration": 16, "velocity": 76}, {"time": 1963, "pitch": 55, "duration": 7, "velocity": 87}, {"time": 1966, "pitch": 59, "duration": 4, "velocity": 76}, {"time": 1969, "pitch": 62, "duration": 7, "velocity": 76}, {"time": 1975, "pitch": 55, "duration": 4, "velocity": 82}, {"time": 1978, "pitch": 59, "duration": 1, "velocity": 81}, {"time": 1981, "pitch": 48, "duration": 6, "velocity": 97}, {"time": 1981, "pitch": 55, "duration": 3, "velocity": 83}, {"time": 1981, "pitch": 60, "duration": 6, "velocity": 87}, {"time": 1987, "pitch": 55, "duration": 4, "velocity": 82}, {"time": 1990, "pitch": 60, "duration": 2, "velocity": 77}, {"time": 1993, "pitch": 40, "duration": 7, "velocity": 82}, {"time": 1993, "pitch": 64, "duration": 5, "velocity": 86}, {"time": 1996, "pitch": 47, "duration": 4, "velocity": 82}, {"time": 1999, "pitch": 59, "duration": 2, "velocity": 90}, {"time": 2002, "pitch": 64, "duration": 1, "velocity": 88}, {"time": 2005, "pitch": 45, "duration": 17, "velocity": 83}, {"time": 2005, "pitch": 57, "duration": 6, "velocity": 82}, {"time": 2005, "pitch": 60, "duration": 6, "velocity": 90}, {"time": 2011, "pitch": 52, "duration": 7, "velocity": 74}, {"time": 2017, "pitch": 57, "duration": 3, "velocity": 82}, {"time": 2017, "pitch": 60, "duration": 3, "velocity": 95}, {"time": 2017, "pitch": 64, "duration": 3, "velocity": 87}, {"time": 2020, "pitch": 52, "duration": 2, "velocity": 81}, {"time": 2023, "pitch": 57, "duration": 3, "velocity": 84}, {"time": 2029, "pitch": 43, "duration": 21, "velocity": 82}, {"time": 2029, "pitch": 55, "duration": 3, "velocity": 81}, {"time": 2029, "pitch": 59, "duration": 5, "velocity": 81}, {"time": 2032, "pitch": 50, "duration": 10, "velocity": 70}, {"time": 2035, "pitch": 55, "duration": 6, "velocity": 86}, {"time": 2041, "pitch": 62, "duration": 7, "velocity": 86}, {"time": 2044, "pitch": 50, "duration": 5, "velocity": 86}, {"time": 2047, "pitch": 55, "duration": 4, "velocity": 88}, {"time": 2053, "pitch": 43, "duration": 15, "velocity": 87}, {"time": 2053, "pitch": 55, "duration": 7, "velocity": 83}, {"time": 2053, "pitch": 62, "duration": 7, "velocity": 81}, {"time": 2059, "pitch": 50, "duration": 6, "velocity": 83}, {"time": 2065, "pitch": 55, "duration": 3, "velocity": 86}, {"time": 2065, "pitch": 59, "duration": 3, "velocity": 88}, {"time": 2065, "pitch": 62, "duration": 4, "velocity": 86}, {"time": 2068, "pitch": 50, "duration": 3, "velocity": 83}, {"time": 2071, "pitch": 55, "duration": 4, "velocity": 88}, {"time": 2074, "pitch": 59, "duration": 2, "velocity": 79}, {"time": 2077, "pitch": 48, "duration": 13, "velocity": 90}, {"time": 2077, "pitch": 55, "duration": 6, "velocity": 82}, {"time": 2077, "pitch": 60, "duration": 7, "velocity": 82}, {"time": 2083, "pitch": 52, "duration": 7, "velocity": 71}, {"time": 2086, "pitch": 55, "duration": 1, "velocity": 83}, {"time": 2089, "pitch": 55, "duration": 3, "velocity": 87}, {"time": 2089, "pitch": 60, "duration": 3, "velocity": 90}, {"time": 2089, "pitch": 64, "duration": 4, "velocity": 86}, {"time": 2092, "pitch": 52, "duration": 2, "velocity": 82}, {"time": 2095, "pitch": 48, "duration": 1, "velocity": 92}, {"time": 2101, "pitch": 38, "duration": 16, "velocity": 84}, {"time": 2101, "pitch": 57, "duration": 4, "velocity": 79}, {"time": 2101, "pitch": 62, "duration": 5, "velocity": 82}, {"time": 2101, "pitch": 65, "duration": 5, "velocity": 81}, {"time": 2107, "pitch": 45, "duration": 8, "velocity": 69}, {"time": 2107, "pitch": 57, "duration": 2, "velocity": 60}, {"time": 2113, "pitch": 57, "duration": 2, "velocity": 83}, {"time": 2113, "pitch": 62, "duration": 6, "velocity": 85}, {"time": 2113, "pitch": 65, "duration": 7, "velocity": 88}, {"time": 2119, "pitch": 57, "duration": 2, "velocity": 86}, {"time": 2125, "pitch": 45, "duration": 15, "velocity": 81}, {"time": 2125, "pitch": 57, "duration": 6, "velocity": 75}, {"time": 2125, "pitch": 60, "duration": 6, "velocity": 78}, {"time": 2125, "pitch": 64, "duration": 5, "velocity": 82}, {"time": 2131, "pitch": 52, "duration": 8, "velocity": 71}, {"time": 2137, "pitch": 57, "duration": 4, "velocity": 82}, {"time": 2137, "pitch": 60, "duration": 4, "velocity": 85}, {"time": 2137, "pitch": 64, "duration": 5, "velocity": 83}, {"time": 2143, "pitch": 45, "duration": 1, "velocity": 82}, {"time": 2149, "pitch": 38, "duration": 1, "velocity": 83}, {"time": 2149, "pitch": 57, "duration": 3, "velocity": 81}, {"time": 2149, "pitch": 62, "duration": 8, "velocity": 81}, {"time": 2149, "pitch": 65, "duration": 7, "velocity": 81}, {"time": 2155, "pitch": 57, "duration": 2, "velocity": 74}, {"time": 2161, "pitch": 57, "duration": 3, "velocity": 85}, {"time": 2161, "pitch": 62, "duration": 4, "velocity": 87}, {"time": 2161, "pitch": 65, "duration": 7, "velocity": 85}, {"time": 2167, "pitch": 57, "duration": 1, "velocity": 82}, {"time": 2173, "pitch": 40, "duration": 3, "velocity": 83}, {"time": 2173, "pitch": 59, "duration": 3, "velocity": 81}, {"time": 2173, "pitch": 64, "duration": 3, "velocity": 81}, {"time": 2179, "pitch": 40, "duration": 1, "velocity": 74}, {"time": 2179, "pitch": 59, "duration": 2, "velocity": 70}, {"time": 2179, "pitch": 64, "duration": 2, "velocity": 73}, {"time": 2185, "pitch": 40, "duration": 3, "velocity": 85}, {"time": 2185, "pitch": 59, "duration": 3, "velocity": 84}, {"time": 2185, "pitch": 64, "duration": 3, "velocity": 85}, {"time": 2191, "pitch": 59, "duration": 4, "velocity": 87}, {"time": 2191, "pitch": 64, "duration": 4, "velocity": 87}, {"time": 2197, "pitch": 40, "duration": 15, "velocity": 88}, {"time": 2197, "pitch": 52, "duration": 3, "velocity": 83}, {"time": 2197, "pitch": 56, "duration": 3, "velocity": 74}, {"time": 2197, "pitch": 59, "duration": 4, "velocity": 81}, {"time": 2203, "pitch": 52, "duration": 2, "velocity": 76}, {"time": 2203, "pitch": 56, "duration": 2, "velocity": 74}, {"time": 2203, "pitch": 59, "duration": 4, "velocity": 78}, {"time": 2209, "pitch": 52, "duration": 5, "velocity": 92}, {"time": 2209, "pitch": 56, "duration": 6, "velocity": 95}, {"time": 2209, "pitch": 59, "duration": 7, "velocity": 88}, {"time": 2209, "pitch": 64, "duration": 6, "velocity": 85}, {"time": 2215, "pitch": 47, "duration": 2, "velocity": 82}, {"time": 2218, "pitch": 52, "duration": 2, "velocity": 92}, {"time": 2221, "pitch": 40, "duration": 10, "velocity": 87}, {"time": 2221, "pitch": 52, "duration": 3, "velocity": 98}, {"time": 2221, "pitch": 56, "duration": 4, "velocity": 97}, {"time": 2221, "pitch": 59, "duration": 4, "velocity": 87}, {"time": 2227, "pitch": 52, "duration": 2, "velocity": 84}, {"time": 2227, "pitch": 56, "duration": 2, "velocity": 83}, {"time": 2227, "pitch": 59, "duration": 2, "velocity": 81}, {"time": 2227, "pitch": 64, "duration": 2, "velocity": 80}, {"time": 2233, "pitch": 40, "duration": 1, "velocity": 86}, {"time": 2233, "pitch": 47, "duration": 1, "velocity": 95}, {"time": 2233, "pitch": 52, "duration": 1, "velocity": 95}, {"time": 2233, "pitch": 56, "duration": 1, "velocity": 95}, {"time": 2233, "pitch": 59, "duration": 1, "velocity": 86}, {"time": 2233, "pitch": 64, "duration": 3, "velocity": 87}, {"time": 2236, "pitch": 40, "duration": 1, "velocity": 86}, {"time": 2239, "pitch": 40, "duration": 2, "velocity": 60}, {"time": 2239, "pitch": 47, "duration": 1, "velocity": 88}, {"time": 2242, "pitch": 64, "duration": 1, "velocity": 97}, {"time": 2245, "pitch": 40, "duration": 24, "velocity": 85}, {"time": 2245, "pitch": 64, "duration": 3, "velocity": 90}, {"time": 2245, "pitch": 68, "duration": 3, "velocity": 81}, {"time": 2248, "pitch": 47, "duration": 10, "velocity": 90}, {"time": 2251, "pitch": 64, "duration": 1, "velocity": 92}, {"time": 2254, "pitch": 64, "duration": 1, "velocity": 88}, {"time": 2254, "pitch": 71, "duration": 1, "velocity": 81}, {"time": 2257, "pitch": 64, "duration": 3, "velocity": 102}, {"time": 2257, "pitch": 71, "duration": 3, "velocity": 97}, {"time": 2260, "pitch": 47, "duration": 9, "velocity": 102}, {"time": 2263, "pitch": 64, "duration": 1, "velocity": 86}, {"time": 2263, "pitch": 68, "duration": 4, "velocity": 88}, {"time": 2266, "pitch": 64, "duration": 3, "velocity": 97}, {"time": 2266, "pitch": 72, "duration": 1, "velocity": 71}, {"time": 2269, "pitch": 45, "duration": 21, "velocity": 82}, {"time": 2269, "pitch": 57, "duration": 3, "velocity": 81}, {"time": 2269, "pitch": 60, "duration": 4, "velocity": 87}, {"time": 2272, "pitch": 52, "duration": 10, "velocity": 74}, {"time": 2275, "pitch": 57, "duration": 3, "velocity": 77}, {"time": 2278, "pitch": 60, "duration": 1, "velocity": 70}, {"time": 2281, "pitch": 57, "duration": 3, "velocity": 83}, {"time": 2281, "pitch": 60, "duration": 5, "velocity": 88}, {"time": 2281, "pitch": 64, "duration": 5, "velocity": 95}, {"time": 2284, "pitch": 52, "duration": 7, "velocity": 81}, {"time": 2287, "pitch": 57, "duration": 3, "velocity": 86}, {"time": 2290, "pitch": 60, "duration": 1, "velocity": 75}, {"time": 2293, "pitch": 43, "duration": 16, "velocity": 81}, {"time": 2293, "pitch": 55, "duration": 6, "velocity": 86}, {"time": 2293, "pitch": 59, "duration": 7, "velocity": 95}, {"time": 2299, "pitch": 50, "duration": 7, "velocity": 78}, {"time": 2305, "pitch": 55, "duration": 3, "velocity": 86}, {"time": 2305, "pitch": 59, "duration": 4, "velocity": 95}, {"time": 2305, "pitch": 62, "duration": 4, "velocity": 90}, {"time": 2308, "pitch": 50, "duration": 2, "velocity": 81}, {"time": 2311, "pitch": 55, "duration": 3, "velocity": 85}, {"time": 2317, "pitch": 43, "duration": 20, "velocity": 83}, {"time": 2317, "pitch": 55, "duration": 2, "velocity": 80}, {"time": 2317, "pitch": 59, "duration": 2, "velocity": 83}, {"time": 2317, "pitch": 62, "duration": 3, "velocity": 81}, {"time": 2320, "pitch": 50, "duration": 16, "velocity": 76}, {"time": 2323, "pitch": 55, "duration": 7, "velocity": 87}, {"time": 2326, "pitch": 59, "duration": 4, "velocity": 76}, {"time": 2329, "pitch": 62, "duration": 7, "velocity": 76}, {"time": 2335, "pitch": 55, "duration": 4, "velocity": 82}, {"time": 2338, "pitch": 59, "duration": 1, "velocity": 81}, {"time": 2341, "pitch": 48, "duration": 6, "velocity": 97}, {"time": 2341, "pitch": 55, "duration": 3, "velocity": 83}, {"time": 2341, "pitch": 60, "duration": 5, "velocity": 87}, {"time": 2347, "pitch": 55, "duration": 3, "velocity": 82}, {"time": 2350, "pitch": 60, "duration": 2, "velocity": 77}, {"time": 2353, "pitch": 40, "duration": 7, "velocity": 82}, {"time": 2353, "pitch": 64, "duration": 5, "velocity": 86}, {"time": 2356, "pitch": 47, "duration": 4, "velocity": 82}, {"time": 2359, "pitch": 59, "duration": 2, "velocity": 90}, {"time": 2362, "pitch": 64, "duration": 1, "velocity": 88}, {"time": 2365, "pitch": 45, "duration": 17, "velocity": 83}, {"time": 2365, "pitch": 57, "duration": 6, "velocity": 82}, {"time": 2365, "pitch": 60, "duration": 6, "velocity": 90}, {"time": 2371, "pitch": 52, "duration": 7, "velocity": 74}, {"time": 2377, "pitch": 57, "duration": 3, "velocity": 82}, {"time": 2377, "pitch": 60, "duration": 3, "velocity": 95}, {"time": 2377, "pitch": 64, "duration": 3, "velocity": 87}, {"time": 2380, "pitch": 52, "duration": 2, "velocity": 81}, {"time": 2383, "pitch": 57, "duration": 3, "velocity": 84}, {"time": 2389, "pitch": 43, "duration": 21, "velocity": 82}, {"time": 2389, "pitch": 55, "duration": 3, "velocity": 81}, {"time": 2389, "pitch": 59, "duration": 4, "velocity": 81}, {"time": 2392, "pitch": 50, "duration": 10, "velocity": 70}, {"time": 2395, "pitch": 55, "duration": 6, "velocity": 86}, {"time": 2401, "pitch": 62, "duration": 7, "velocity": 86}, {"time": 2404, "pitch": 50, "duration": 5, "velocity": 86}, {"time": 2407, "pitch": 55, "duration": 4, "velocity": 88}, {"time": 2413, "pitch": 43, "duration": 15, "velocity": 87}, {"time": 2413, "pitch": 55, "duration": 7, "velocity": 83}, {"time": 2413, "pitch": 62, "duration": 7, "velocity": 81}, {"time": 2419, "pitch": 50, "duration": 6, "velocity": 83}, {"time": 2425, "pitch": 55, "duration": 3, "velocity": 86}, {"time": 2425, "pitch": 59, "duration": 3, "velocity": 88}, {"time": 2425, "pitch": 62, "duration": 4, "velocity": 86}, {"time": 2428, "pitch": 50, "duration": 3, "velocity": 83}, {"time": 2431, "pitch": 55, "duration": 4, "velocity": 88}, {"time": 2434, "pitch": 59, "duration": 1, "velocity": 79}, {"time": 2437, "pitch": 48, "duration": 13, "velocity": 90}, {"time": 2437, "pitch": 55, "duration": 6, "velocity": 82}, {"time": 2437, "pitch": 60, "duration": 7, "velocity": 82}, {"time": 2443, "pitch": 52, "duration": 7, "velocity": 71}, {"time": 2446, "pitch": 55, "duration": 1, "velocity": 83}, {"time": 2449, "pitch": 55, "duration": 3, "velocity": 87}, {"time": 2449, "pitch": 60, "duration": 3, "velocity": 90}, {"time": 2449, "pitch": 64, "duration": 4, "velocity": 86}, {"time": 2452, "pitch": 52, "duration": 2, "velocity": 82}, {"time": 2455, "pitch": 48, "duration": 1, "velocity": 92}, {"time": 2461, "pitch": 38, "duration": 15, "velocity": 84}, {"time": 2461, "pitch": 57, "duration": 4, "velocity": 79}, {"time": 2461, "pitch": 62, "duration": 5, "velocity": 82}, {"time": 2461, "pitch": 65, "duration": 5, "velocity": 81}, {"time": 2467, "pitch": 45, "duration": 8, "velocity": 69}, {"time": 2467, "pitch": 57, "duration": 1, "velocity": 60}, {"time": 2473, "pitch": 57, "duration": 2, "velocity": 83}, {"time": 2473, "pitch": 62, "duration": 6, "velocity": 85}, {"time": 2473, "pitch": 65, "duration": 6, "velocity": 88}, {"time": 2479, "pitch": 57, "duration": 2, "velocity": 86}, {"time": 2485, "pitch": 45, "duration": 15, "velocity": 81}, {"time": 2485, "pitch": 57, "duration": 5, "velocity": 75}, {"time": 2485, "pitch": 60, "duration": 5, "velocity": 78}, {"time": 2485, "pitch": 64, "duration": 5, "velocity": 82}, {"time": 2491, "pitch": 52, "duration": 8, "velocity": 71}, {"time": 2497, "pitch": 57, "duration": 4, "velocity": 82}, {"time": 2497, "pitch": 60, "duration": 4, "velocity": 85}, {"time": 2497, "pitch": 64, "duration": 4, "velocity": 83}, {"time": 2503, "pitch": 45, "duration": 1, "velocity": 82}, {"time": 2509, "pitch": 38, "duration": 1, "velocity": 83}, {"time": 2509, "pitch": 57, "duration": 3, "velocity": 81}, {"time": 2509, "pitch": 62, "duration": 8, "velocity": 81}, {"time": 2509, "pitch": 65, "duration": 7, "velocity": 81}, {"time": 2515, "pitch": 57, "duration": 2, "velocity": 74}, {"time": 2521, "pitch": 57, "duration": 3, "velocity": 85}, {"time": 2521, "pitch": 62, "duration": 4, "velocity": 87}, {"time": 2521, "pitch": 65, "duration": 7, "velocity": 85}, {"time": 2527, "pitch": 57, "duration": 1, "velocity": 82}, {"time": 2533, "pitch": 40, "duration": 3, "velocity": 83}, {"time": 2533, "pitch": 59, "duration": 3, "velocity": 81}, {"time": 2533, "pitch": 64, "duration": 3, "velocity": 81}, {"time": 2539, "pitch": 40, "duration": 1, "velocity": 74}, {"time": 2539, "pitch": 59, "duration": 2, "velocity": 70}, {"time": 2539, "pitch": 64, "duration": 2, "velocity": 73}, {"time": 2545, "pitch": 40, "duration": 2, "velocity": 85}, {"time": 2545, "pitch": 59, "duration": 3, "velocity": 84}, {"time": 2545, "pitch": 64, "duration": 3, "velocity": 85}, {"time": 2551, "pitch": 59, "duration": 4, "velocity": 87}, {"time": 2551, "pitch": 64, "duration": 4, "velocity": 87}, {"time": 2557, "pitch": 40, "duration": 15, "velocity": 83}, {"time": 2557, "pitch": 59, "duration": 4, "velocity": 83}, {"time": 2557, "pitch": 64, "duration": 9, "velocity": 86}, {"time": 2557, "pitch": 68, "duration": 8, "velocity": 87}, {"time": 2563, "pitch": 47, "duration": 8, "velocity": 66}, {"time": 2563, "pitch": 59, "duration": 4, "velocity": 76}, {"time": 2569, "pitch": 59, "duration": 2, "velocity": 88}, {"time": 2569, "pitch": 64, "duration": 5, "velocity": 92}, {"time": 2575, "pitch": 59, "duration": 1, "velocity": 90}, {"time": 2581, "pitch": 45, "duration": 18, "velocity": 83}, {"time": 2581, "pitch": 57, "duration": 5, "velocity": 81}, {"time": 2581, "pitch": 60, "duration": 5, "velocity": 82}, {"time": 2587, "pitch": 52, "duration": 7, "velocity": 71}, {"time": 2593, "pitch": 57, "duration": 3, "velocity": 83}, {"time": 2593, "pitch": 60, "duration": 4, "velocity": 87}, {"time": 2593, "pitch": 64, "duration": 5, "velocity": 90}, {"time": 2599, "pitch": 57, "duration": 2, "velocity": 83}, {"time": 2602, "pitch": 60, "duration": 2, "velocity": 82}, {"time": 2605, "pitch": 43, "duration": 17, "velocity": 81}, {"time": 2605, "pitch": 55, "duration": 9, "velocity": 84}, {"time": 2605, "pitch": 59, "duration": 7, "velocity": 87}, {"time": 2611, "pitch": 50, "duration": 7, "velocity": 75}, {"time": 2617, "pitch": 55, "duration": 3, "velocity": 83}, {"time": 2617, "pitch": 59, "duration": 3, "velocity": 85}, {"time": 2617, "pitch": 62, "duration": 5, "velocity": 82}, {"time": 2623, "pitch": 60, "duration": 3, "velocity": 82}, {"time": 2626, "pitch": 59, "duration": 2, "velocity": 85}, {"time": 2629, "pitch": 45, "duration": 18, "velocity": 82}, {"time": 2629, "pitch": 57, "duration": 5, "velocity": 83}, {"time": 2635, "pitch": 52, "duration": 7, "velocity": 77}, {"time": 2641, "pitch": 57, "duration": 3, "velocity": 82}, {"time": 2641, "pitch": 60, "duration": 3, "velocity": 84}, {"time": 2641, "pitch": 64, "duration": 5, "velocity": 87}, {"time": 2644, "pitch": 52, "duration": 2, "velocity": 74}, {"time": 2647, "pitch": 62, "duration": 3, "velocity": 84}, {"time": 2650, "pitch": 60, "duration": 2, "velocity": 83}, {"time": 2653, "pitch": 43, "duration": 18, "velocity": 81}, {"time": 2653, "pitch": 62, "duration": 5, "velocity": 83}, {"time": 2659, "pitch": 50, "duration": 6, "velocity": 74}, {"time": 2665, "pitch": 55, "duration": 3, "velocity": 82}, {"time": 2665, "pitch": 62, "duration": 5, "velocity": 84}, {"time": 2668, "pitch": 50, "duration": 3, "velocity": 81}, {"time": 2671, "pitch": 55, "duration": 2, "velocity": 76}, {"time": 2671, "pitch": 60, "duration": 4, "velocity": 82}, {"time": 2677, "pitch": 41, "duration": 22, "velocity": 83}, {"time": 2677, "pitch": 53, "duration": 6, "velocity": 80}, {"time": 2677, "pitch": 60, "duration": 8, "velocity": 78}, {"time": 2683, "pitch": 48, "duration": 15, "velocity": 80}, {"time": 2686, "pitch": 53, "duration": 4, "velocity": 81}, {"time": 2689, "pitch": 57, "duration": 3, "velocity": 83}, {"time": 2692, "pitch": 60, "duration": 1, "velocity": 97}, {"time": 2695, "pitch": 53, "duration": 3, "velocity": 86}, {"time": 2701, "pitch": 41, "duration": 7, "velocity": 83}, {"time": 2701, "pitch": 53, "duration": 5, "velocity": 80}, {"time": 2701, "pitch": 57, "duration": 5, "velocity": 80}, {"time": 2701, "pitch": 60, "duration": 6, "velocity": 80}, {"time": 2713, "pitch": 43, "duration": 8, "velocity": 82}, {"time": 2713, "pitch": 55, "duration": 6, "velocity": 81}, {"time": 2713, "pitch": 59, "duration": 8, "velocity": 81}, {"time": 2725, "pitch": 45, "duration": 21, "velocity": 83}, {"time": 2725, "pitch": 57, "duration": 5, "velocity": 76}, {"time": 2725, "pitch": 60, "duration": 4, "velocity": 82}, {"time": 2731, "pitch": 52, "duration": 8, "velocity": 79}, {"time": 2737, "pitch": 57, "duration": 5, "velocity": 84}, {"time": 2737, "pitch": 60, "duration": 5, "velocity": 95}, {"time": 2737, "pitch": 64, "duration": 5, "velocity": 95}, {"time": 2743, "pitch": 52, "duration": 3, "velocity": 77}, {"time": 2746, "pitch": 57, "duration": 2, "velocity": 76}, {"time": 2749, "pitch": 45, "duration": 16, "velocity": 83}, {"time": 2749, "pitch": 57, "duration": 6, "velocity": 81}, {"time": 2749, "pitch": 60, "duration": 7, "velocity": 80}, {"time": 2755, "pitch": 52, "duration": 6, "velocity": 78}, {"time": 2758, "pitch": 57, "duration": 1, "velocity": 80}, {"time": 2761, "pitch": 57, "duration": 3, "velocity": 84}, {"time": 2761, "pitch": 64, "duration": 3, "velocity": 88}, {"time": 2764, "pitch": 52, "duration": 1, "velocity": 97}, {"time": 2767, "pitch": 57, "duration": 2, "velocity": 85}, {"time": 2773, "pitch": 45, "duration": 21, "velocity": 83}, {"time": 2773, "pitch": 57, "duration": 5, "velocity": 82}, {"time": 2773, "pitch": 60, "duration": 5, "velocity": 83}, {"time": 2779, "pitch": 52, "duration": 7, "velocity": 78}, {"time": 2785, "pitch": 57, "duration": 4, "velocity": 83}, {"time": 2785, "pitch": 60, "duration": 5, "velocity": 95}, {"time": 2785, "pitch": 64, "duration": 5, "velocity": 95}, {"time": 2791, "pitch": 52, "duration": 4, "velocity": 73}, {"time": 2794, "pitch": 57, "duration": 1, "velocity": 81}, {"time": 2797, "pitch": 45, "duration": 10, "velocity": 83}, {"time": 2797, "pitch": 57, "duration": 5, "velocity": 79}, {"time": 2797, "pitch": 60, "duration": 6, "velocity": 83}, {"time": 2797, "pitch": 64, "duration": 6, "velocity": 82}, {"time": 2803, "pitch": 52, "duration": 5, "velocity": 70}, {"time": 2809, "pitch": 57, "duration": 3, "velocity": 86}, {"time": 2809, "pitch": 60, "duration": 7, "velocity": 92}, {"time": 2815, "pitch": 57, "duration": 3, "velocity": 74}, {"time": 2821, "pitch": 45, "duration": 37, "velocity": 81}, {"time": 2821, "pitch": 57, "duration": 12, "velocity": 76}, {"time": 2821, "pitch": 60, "duration": 8, "velocity": 75}, {"time": 2827, "pitch": 52, "duration": 31, "velocity": 69}, {"time": 2833, "pitch": 60, "duration": 3, "velocity": 82}, {"time": 2833, "pitch": 64, "duration": 3, "velocity": 87}, {"time": 2845, "pitch": 60, "duration": 2, "velocity": 77}, {"time": 2845, "pitch": 64, "duration": 3, "velocity": 78}, {"time": 2851, "pitch": 57, "duration": 2, "velocity": 67}, {"time": 2857, "pitch": 57, "duration": 2, "velocity": 79}, {"time": 2857, "pitch": 60, "duration": 5, "velocity": 83}, {"time": 2857, "pitch": 64, "duration": 6, "velocity": 81}, {"time": 2869, "pitch": 43, "duration": 39, "velocity": 81}, {"time": 2869, "pitch": 55, "duration": 10, "velocity": 74}, {"time": 2869, "pitch": 59, "duration": 7, "velocity": 76}, {"time": 2875, "pitch": 50, "duration": 32, "velocity": 62}, {"time": 2881, "pitch": 59, "duration": 4, "velocity": 81}, {"time": 2881, "pitch": 62, "duration": 4, "velocity": 76}, {"time": 2893, "pitch": 59, "duration": 7, "velocity": 81}, {"time": 2893, "pitch": 62, "duration": 8, "velocity": 79}, {"time": 2899, "pitch": 55, "duration": 3, "velocity": 71}, {"time": 2905, "pitch": 55, "duration": 2, "velocity": 82}, {"time": 2905, "pitch": 59, "duration": 1, "velocity": 86}, {"time": 2905, "pitch": 62, "duration": 1, "velocity": 81}, {"time": 2917, "pitch": 40, "duration": 14, "velocity": 82}, {"time": 2917, "pitch": 52, "duration": 7, "velocity": 80}, {"time": 2917, "pitch": 59, "duration": 7, "velocity": 80}, {"time": 2923, "pitch": 47, "duration": 8, "velocity": 63}, {"time": 2929, "pitch": 52, "duration": 3, "velocity": 79}, {"time": 2929, "pitch": 59, "duration": 11, "velocity": 81}, {"time": 2935, "pitch": 52, "duration": 11, "velocity": 72}, {"time": 2941, "pitch": 59, "duration": 5, "velocity": 81}, {"time": 2941, "pitch": 64, "duration": 5, "velocity": 82}, {"time": 2965, "pitch": 45, "duration": 24, "velocity": 82}, {"time": 2971, "pitch": 52, "duration": 17, "velocity": 77}, {"time": 2977, "pitch": 57, "duration": 8, "velocity": 69}, {"time": 2985, "pitch": 59, "duration": 1, "velocity": 81}, {"time": 2994, "pitch": 45, "duration": 14, "velocity": 52}, {"time": 2996, "pitch": 52, "duration": 11, "velocity": 71}, {"time": 2997, "pitch": 57, "duration": 12, "velocity": 67}, {"time": 2998, "pitch": 60, "duration": 11, "velocity": 72}, {"time": 3000, "pitch": 64, "duration": 9, "velocity": 69}, {"time": 3001, "pitch": 69, "duration": 8, "velocity": 75}], "annotations": [{"time": 13, "annotation": {"number": 64, "value": 127}, "group": "control_change"}, {"time": 60, "annotation": {"number": 64, "value": 0}, "group": "control_change"}, {"time": 63, "annotation": {"number": 64, "value": 127}, "group": "control_change"}, {"time": 63, "annotation": {"number": 64, "value": 0}, "group": "control_change"}, {"time": 108, "annotation": {"number": 64, "value": 0}, "group": "control_change"}, {"time": 111, "annotation": {"number": 64, "value": 127}, "group": "control_change"}, {"time": 154, "annotation": {"number": 64, "value": 0}, "group": "control_change"}, {"time": 156, "annotation": {"number": 64, "value": 127}, "group": "control_change"}, {"time": 204, "annotation": {"number": 64, "value": 0}, "group": "control_change"}, {"time": 206, "annotation": {"number": 64, "value": 127}, "group": "control_change"}, {"time": 240, "annotation": {"number": 64, "value": 0}, "group": "control_change"}, {"time": 242, "annotation": {"number": 64, "value": 127}, "group": "control_change"}, {"time": 252, "annotation": {"number": 64, "value": 0}, "group": "control_change"}, {"time": 253, "annotation": {"number": 64, "value": 127}, "group": "control_change"}, {"time": 278, "annotation": {"number": 64, "value": 0}, "group": "control_change"}, {"time": 280, "annotation": {"number": 64, "value": 127}, "group": "control_change"}, {"time": 301, "annotation": {"number": 64, "value": 0}, "group": "control_change"}, {"time": 304, "annotation": {"number": 64, "value": 127}, "group": "control_change"}, {"time": 346, "annotation": {"number": 64, "value": 0}, "group": "control_change"}, {"time": 348, "annotation": {"number": 64, "value": 127}, "group": "control_change"}, {"time": 395, "annotation": {"number": 64, "value": 0}, "group": "control_change"}, {"time": 401, "annotation": {"number": 64, "value": 127}, "group": "control_change"}, {"time": 445, "annotation": {"number": 64, "value": 0}, "group": "control_change"}, {"time": 448, "annotation": {"number": 64, "value": 127}, "group": "control_change"}, {"time": 469, "annotation": {"number": 64, "value": 0}, "group": "control_change"}, {"time": 472, "annotation": {"number": 64, "value": 127}, "group": "control_change"}, {"time": 491, "annotation": {"number": 64, "value": 0}, "group": "control_change"}, {"time": 493, "annotation": {"number": 64, "value": 127}, "group": "control_change"}, {"time": 516, "annotation": {"number": 64, "value": 0}, "group": "control_change"}, {"time": 517, "annotation": {"number": 64, "value": 127}, "group": "control_change"}, {"time": 541, "annotation": {"number": 64, "value": 0}, "group": "control_change"}, {"time": 542, "annotation": {"number": 64, "value": 127}, "group": "control_change"}, {"time": 562, "annotation": {"number": 64, "value": 0}, "group": "control_change"}, {"time": 564, "annotation": {"number": 64, "value": 127}, "group": "control_change"}, {"time": 588, "annotation": {"number": 64, "value": 0}, "group": "control_change"}, {"time": 589, "annotation": {"number": 64, "value": 127}, "group": "control_change"}, {"time": 613, "annotation": {"number": 64, "value": 0}, "group": "control_change"}, {"time": 615, "annotation": {"number": 64, "value": 127}, "group": "control_change"}, {"time": 637, "annotation": {"number": 64, "value": 0}, "group": "control_change"}, {"time": 638, "annotation": {"number": 64, "value": 127}, "group": "control_change"}, {"time": 659, "annotation": {"number": 64, "value": 0}, "group": "control_change"}, {"time": 661, "annotation": {"number": 64, "value": 127}, "group": "control_change"}, {"time": 672, "annotation": {"number": 64, "value": 0}, "group": "control_change"}, {"time": 675, "annotation": {"number": 64, "value": 127}, "group": "control_change"}, {"time": 684, "annotation": {"number": 64, "value": 0}, "group": "control_change"}, {"time": 687, "annotation": {"number": 64, "value": 127}, "group": "control_change"}, {"time": 709, "annotation": {"number": 64, "value": 0}, "group": "control_change"}, {"time": 711, "annotation": {"number": 64, "value": 127}, "group": "control_change"}, {"time": 733, "annotation": {"number": 64, "value": 0}, "group": "control_change"}, {"time": 735, "annotation": {"number": 64, "value": 127}, "group": "control_change"}, {"time": 756, "annotation": {"number": 64, "value": 0}, "group": "control_change"}, {"time": 757, "annotation": {"number": 64, "value": 127}, "group": "control_change"}, {"time": 780, "annotation": {"number": 64, "value": 0}, "group": "control_change"}, {"time": 782, "annotation": {"number": 64, "value": 127}, "group": "control_change"}, {"time": 804, "annotation": {"number": 64, "value": 0}, "group": "control_change"}, {"time": 806, "annotation": {"number": 64, "value": 127}, "group": "control_change"}, {"time": 827, "annotation": {"number": 64, "value": 0}, "group": "control_change"}, {"time": 828, "annotation": {"number": 64, "value": 127}, "group": "control_change"}, {"time": 850, "annotation": {"number": 64, "value": 0}, "group": "control_change"}, {"time": 852, "annotation": {"number": 64, "value": 127}, "group": "control_change"}, {"time": 875, "annotation": {"number": 64, "value": 0}, "group": "control_change"}, {"time": 877, "annotation": {"number": 64, "value": 127}, "group": "control_change"}, {"time": 899, "annotation": {"number": 64, "value": 0}, "group": "control_change"}, {"time": 902, "annotation": {"number": 64, "value": 127}, "group": "control_change"}, {"time": 924, "annotation": {"number": 64, "value": 0}, "group": "control_change"}, {"time": 926, "annotation": {"number": 64, "value": 127}, "group": "control_change"}, {"time": 947, "annotation": {"number": 64, "value": 0}, "group": "control_change"}, {"time": 949, "annotation": {"number": 64, "value": 127}, "group": "control_change"}, {"time": 971, "annotation": {"number": 64, "value": 0}, "group": "control_change"}, {"time": 973, "annotation": {"number": 64, "value": 127}, "group": "control_change"}, {"time": 998, "annotation": {"number": 64, "value": 127}, "group": "control_change"}, {"time": 1021, "annotation": {"number": 64, "value": 0}, "group": "control_change"}, {"time": 1022, "annotation": {"number": 64, "value": 127}, "group": "control_change"}, {"time": 1032, "annotation": {"number": 64, "value": 0}, "group": "control_change"}, {"time": 1034, "annotation": {"number": 64, "value": 127}, "group": "control_change"}, {"time": 1044, "annotation": {"number": 64, "value": 0}, "group": "control_change"}, {"time": 1048, "annotation": {"number": 64, "value": 127}, "group": "control_change"}, {"time": 1048, "annotation": {"number": 64, "value": 0}, "group": "control_change"}, {"time": 1091, "annotation": {"number": 64, "value": 0}, "group": "control_change"}, {"time": 1095, "annotation": {"number": 64, "value": 127}, "group": "control_change"}, {"time": 1141, "annotation": {"number": 64, "value": 0}, "group": "control_change"}, {"time": 1145, "annotation": {"number": 64, "value": 127}, "group": "control_change"}, {"time": 1163, "annotation": {"number": 64, "value": 0}, "group": "control_change"}, {"time": 1165, "annotation": {"number": 64, "value": 127}, "group": "control_change"}, {"time": 1188, "annotation": {"number": 64, "value": 0}, "group": "control_change"}, {"time": 1189, "annotation": {"number": 64, "value": 127}, "group": "control_change"}, {"time": 1212, "annotation": {"number": 64, "value": 0}, "group": "control_change"}, {"time": 1213, "annotation": {"number": 64, "value": 127}, "group": "control_change"}, {"time": 1236, "annotation": {"number": 64, "value": 0}, "group": "control_change"}, {"time": 1237, "annotation": {"number": 64, "value": 127}, "group": "control_change"}, {"time": 1260, "annotation": {"number": 64, "value": 0}, "group": "control_change"}, {"time": 1261, "annotation": {"number": 64, "value": 127}, "group": "control_change"}, {"time": 1284, "annotation": {"number": 64, "value": 0}, "group": "control_change"}, {"time": 1285, "annotation": {"number": 64, "value": 127}, "group": "control_change"}, {"time": 1307, "annotation": {"number": 64, "value": 0}, "group": "control_change"}, {"time": 1309, "annotation": {"number": 64, "value": 127}, "group": "control_change"}, {"time": 1332, "annotation": {"number": 64, "value": 0}, "group": "control_change"}, {"time": 1335, "annotation": {"number": 64, "value": 127}, "group": "control_change"}, {"time": 1335, "annotation": {"number": 64, "value": 0}, "group": "control_change"}, {"time": 1356, "annotation": {"number": 64, "value": 0}, "group": "control_change"}, {"time": 1357, "annotation": {"number": 64, "value": 127}, "group": "control_change"}, {"time": 1368, "annotation": {"number": 64, "value": 0}, "group": "control_change"}, {"time": 1369, "annotation": {"number": 64, "value": 127}, "group": "control_change"}, {"time": 1379, "annotation": {"number": 64, "value": 0}, "group": "control_change"}, {"time": 1381, "annotation": {"number": 64, "value": 127}, "group": "control_change"}, {"time": 1404, "annotation": {"number": 64, "value": 0}, "group": "control_change"}, {"time": 1405, "annotation": {"number": 64, "value": 127}, "group": "control_change"}, {"time": 1428, "annotation": {"number": 64, "value": 0}, "group": "control_change"}, {"time": 1429, "annotation": {"number": 64, "value": 127}, "group": "control_change"}, {"time": 1452, "annotation": {"number": 64, "value": 0}, "group": "control_change"}, {"time": 1453, "annotation": {"number": 64, "value": 127}, "group": "control_change"}, {"time": 1475, "annotation": {"number": 64, "value": 0}, "group": "control_change"}, {"time": 1476, "annotation": {"number": 64, "value": 127}, "group": "control_change"}, {"time": 1499, "annotation": {"number": 64, "value": 0}, "group": "control_change"}, {"time": 1501, "annotation": {"number": 64, "value": 127}, "group": "control_change"}, {"time": 1523, "annotation": {"number": 64, "value": 0}, "group": "control_change"}, {"time": 1526, "annotation": {"number": 64, "value": 127}, "group": "control_change"}, {"time": 1560, "annotation": {"number": 64, "value": 0}, "group": "control_change"}, {"time": 1562, "annotation": {"number": 64, "value": 127}, "group": "control_change"}, {"time": 1572, "annotation": {"number": 64, "value": 0}, "group": "control_change"}, {"time": 1573, "annotation": {"number": 64, "value": 127}, "group": "control_change"}, {"time": 1598, "annotation": {"number": 64, "value": 0}, "group": "control_change"}, {"time": 1600, "annotation": {"number": 64, "value": 127}, "group": "control_change"}, {"time": 1621, "annotation": {"number": 64, "value": 0}, "group": "control_change"}, {"time": 1624, "annotation": {"number": 64, "value": 127}, "group": "control_change"}, {"time": 1666, "annotation": {"number": 64, "value": 0}, "group": "control_change"}, {"time": 1668, "annotation": {"number": 64, "value": 127}, "group": "control_change"}, {"time": 1715, "annotation": {"number": 64, "value": 0}, "group": "control_change"}, {"time": 1721, "annotation": {"number": 64, "value": 127}, "group": "control_change"}, {"time": 1765, "annotation": {"number": 64, "value": 0}, "group": "control_change"}, {"time": 1768, "annotation": {"number": 64, "value": 127}, "group": "control_change"}, {"time": 1789, "annotation": {"number": 64, "value": 0}, "group": "control_change"}, {"time": 1792, "annotation": {"number": 64, "value": 127}, "group": "control_change"}, {"time": 1811, "annotation": {"number": 64, "value": 0}, "group": "control_change"}, {"time": 1813, "annotation": {"number": 64, "value": 127}, "group": "control_change"}, {"time": 1836, "annotation": {"number": 64, "value": 0}, "group": "control_change"}, {"time": 1837, "annotation": {"number": 64, "value": 127}, "group": "control_change"}, {"time": 1861, "annotation": {"number": 64, "value": 0}, "group": "control_change"}, {"time": 1862, "annotation": {"number": 64, "value": 127}, "group": "control_change"}, {"time": 1882, "annotation": {"number": 64, "value": 0}, "group": "control_change"}, {"time": 1884, "annotation": {"number": 64, "value": 127}, "group": "control_change"}, {"time": 1908, "annotation": {"number": 64, "value": 0}, "group": "control_change"}, {"time": 1909, "annotation": {"number": 64, "value": 127}, "group": "control_change"}, {"time": 1933, "annotation": {"number": 64, "value": 0}, "group": "control_change"}, {"time": 1935, "annotation": {"number": 64, "value": 127}, "group": "control_change"}, {"time": 1957, "annotation": {"number": 64, "value": 0}, "group": "control_change"}, {"time": 1958, "annotation": {"number": 64, "value": 127}, "group": "control_change"}, {"time": 1979, "annotation": {"number": 64, "value": 0}, "group": "control_change"}, {"time": 1981, "annotation": {"number": 64, "value": 127}, "group": "control_change"}, {"time": 1992, "annotation": {"number": 64, "value": 0}, "group": "control_change"}, {"time": 1995, "annotation": {"number": 64, "value": 127}, "group": "control_change"}, {"time": 2004, "annotation": {"number": 64, "value": 0}, "group": "control_change"}, {"time": 2007, "annotation": {"number": 64, "value": 127}, "group": "control_change"}, {"time": 2029, "annotation": {"number": 64, "value": 0}, "group": "control_change"}, {"time": 2031, "annotation": {"number": 64, "value": 127}, "group": "control_change"}, {"time": 2053, "annotation": {"number": 64, "value": 0}, "group": "control_change"}, {"time": 2055, "annotation": {"number": 64, "value": 127}, "group": "control_change"}, {"time": 2076, "annotation": {"number": 64, "value": 0}, "group": "control_change"}, {"time": 2077, "annotation": {"number": 64, "value": 127}, "group": "control_change"}, {"time": 2100, "annotation": {"number": 64, "value": 0}, "group": "control_change"}, {"time": 2102, "annotation": {"number": 64, "value": 127}, "group": "control_change"}, {"time": 2124, "annotation": {"number": 64, "value": 0}, "group": "control_change"}, {"time": 2126, "annotation": {"number": 64, "value": 127}, "group": "control_change"}, {"time": 2147, "annotation": {"number": 64, "value": 0}, "group": "control_change"}, {"time": 2148, "annotation": {"number": 64, "value": 127}, "group": "control_change"}, {"time": 2170, "annotation": {"number": 64, "value": 0}, "group": "control_change"}, {"time": 2172, "annotation": {"number": 64, "value": 127}, "group": "control_change"}, {"time": 2195, "annotation": {"number": 64, "value": 0}, "group": "control_change"}, {"time": 2197, "annotation": {"number": 64, "value": 127}, "group": "control_change"}, {"time": 2198, "annotation": {"number": 64, "value": 127}, "group": "control_change"}, {"time": 2220, "annotation": {"number": 64, "value": 0}, "group": "control_change"}, {"time": 2222, "annotation": {"number": 64, "value": 127}, "group": "control_change"}, {"time": 2266, "annotation": {"number": 64, "value": 0}, "group": "control_change"}, {"time": 2269, "annotation": {"number": 64, "value": 127}, "group": "control_change"}, {"time": 2293, "annotation": {"number": 64, "value": 0}, "group": "control_change"}, {"time": 2295, "annotation": {"number": 64, "value": 127}, "group": "control_change"}, {"time": 2316, "annotation": {"number": 64, "value": 0}, "group": "control_change"}, {"time": 2318, "annotation": {"number": 64, "value": 127}, "group": "control_change"}, {"time": 2339, "annotation": {"number": 64, "value": 0}, "group": "control_change"}, {"time": 2341, "annotation": {"number": 64, "value": 127}, "group": "control_change"}, {"time": 2352, "annotation": {"number": 64, "value": 0}, "group": "control_change"}, {"time": 2354, "annotation": {"number": 64, "value": 127}, "group": "control_change"}, {"time": 2364, "annotation": {"number": 64, "value": 0}, "group": "control_change"}, {"time": 2367, "annotation": {"number": 64, "value": 127}, "group": "control_change"}, {"time": 2388, "annotation": {"number": 64, "value": 0}, "group": "control_change"}, {"time": 2391, "annotation": {"number": 64, "value": 127}, "group": "control_change"}, {"time": 2413, "annotation": {"number": 64, "value": 0}, "group": "control_change"}, {"time": 2414, "annotation": {"number": 64, "value": 127}, "group": "control_change"}, {"time": 2435, "annotation": {"number": 64, "value": 0}, "group": "control_change"}, {"time": 2437, "annotation": {"number": 64, "value": 127}, "group": "control_change"}, {"time": 2460, "annotation": {"number": 64, "value": 0}, "group": "control_change"}, {"time": 2461, "annotation": {"number": 64, "value": 127}, "group": "control_change"}, {"time": 2483, "annotation": {"number": 64, "value": 0}, "group": "control_change"}, {"time": 2486, "annotation": {"number": 64, "value": 127}, "group": "control_change"}, {"time": 2507, "annotation": {"number": 64, "value": 0}, "group": "control_change"}, {"time": 2508, "annotation": {"number": 64, "value": 127}, "group": "control_change"}, {"time": 2530, "annotation": {"number": 64, "value": 0}, "group": "control_change"}, {"time": 2532, "annotation": {"number": 64, "value": 127}, "group": "control_change"}, {"time": 2555, "annotation": {"number": 64, "value": 0}, "group": "control_change"}, {"time": 2556, "annotation": {"number": 64, "value": 127}, "group": "control_change"}, {"time": 2579, "annotation": {"number": 64, "value": 0}, "group": "control_change"}, {"time": 2582, "annotation": {"number": 64, "value": 127}, "group": "control_change"}, {"time": 2604, "annotation": {"number": 64, "value": 0}, "group": "control_change"}, {"time": 2606, "annotation": {"number": 64, "value": 127}, "group": "control_change"}, {"time": 2627, "annotation": {"number": 64, "value": 0}, "group": "control_change"}, {"time": 2629, "annotation": {"number": 64, "value": 127}, "group": "control_change"}, {"time": 2651, "annotation": {"number": 64, "value": 0}, "group": "control_change"}, {"time": 2653, "annotation": {"number": 64, "value": 127}, "group": "control_change"}, {"time": 2677, "annotation": {"number": 64, "value": 127}, "group": "control_change"}, {"time": 2700, "annotation": {"number": 64, "value": 0}, "group": "control_change"}, {"time": 2702, "annotation": {"number": 64, "value": 127}, "group": "control_change"}, {"time": 2712, "annotation": {"number": 64, "value": 0}, "group": "control_change"}, {"time": 2714, "annotation": {"number": 64, "value": 127}, "group": "control_change"}, {"time": 2724, "annotation": {"number": 64, "value": 0}, "group": "control_change"}, {"time": 2728, "annotation": {"number": 64, "value": 127}, "group": "control_change"}, {"time": 2728, "annotation": {"number": 64, "value": 0}, "group": "control_change"}, {"time": 2770, "annotation": {"number": 64, "value": 0}, "group": "control_change"}, {"time": 2774, "annotation": {"number": 64, "value": 127}, "group": "control_change"}, {"time": 2821, "annotation": {"number": 64, "value": 0}, "group": "control_change"}, {"time": 2823, "annotation": {"number": 64, "value": 127}, "group": "control_change"}, {"time": 2868, "annotation": {"number": 64, "value": 0}, "group": "control_change"}, {"time": 2874, "annotation": {"number": 64, "value": 127}, "group": "control_change"}, {"time": 2914, "annotation": {"number": 64, "value": 0}, "group": "control_change"}, {"time": 2918, "annotation": {"number": 64, "value": 127}, "group": "control_change"}, {"time": 2969, "annotation": {"number": 64, "value": 0}, "group": "control_change"}, {"time": 2971, "annotation": {"number": 64, "value": 127}, "group": "control_change"}, {"time": 3030, "annotation": {"number": 64, "value": 0}, "group": "control_change"}]}]}