{"metadata": {"schema_version": "0.2", "title": "None", "source_filename": "678.mid", "source_format": "midi"}, "resolution": 12, "tempos": [{"time": 0, "qpm": 66.70001667500416}, {"time": 821, "qpm": 66.25002760417817}, {"time": 884, "qpm": 66.75003003751351}, {"time": 1003, "qpm": 66.70001667500416}, {"time": 1505, "qpm": 66.50004710420004}, {"time": 1719, "qpm": 66.70001667500416}], "time_signatures": [{"time": 0, "numerator": 1, "denominator": 4}], "tracks": [{"program": 0, "is_drum": false, "name": "MELODY", "notes": [{"time": 417, "pitch": 68, "duration": 7, "velocity": 89}, {"time": 425, "pitch": 68, "duration": 3, "velocity": 89}, {"time": 429, "pitch": 68, "duration": 3, "velocity": 91}, {"time": 433, "pitch": 70, "duration": 3, "velocity": 88}, {"time": 437, "pitch": 71, "duration": 3, "velocity": 88}, {"time": 441, "pitch": 75, "duration": 21, "velocity": 86}, {"time": 465, "pitch": 73, "duration": 7, "velocity": 94}, {"time": 473, "pitch": 73, "duration": 3, "velocity": 93}, {"time": 477, "pitch": 73, "duration": 2, "velocity": 94}, {"time": 481, "pitch": 73, "duration": 4, "velocity": 94}, {"time": 485, "pitch": 71, "duration": 9, "velocity": 98}, {"time": 493, "pitch": 68, "duration": 18, "velocity": 88}, {"time": 513, "pitch": 66, "duration": 3, "velocity": 88}, {"time": 517, "pitch": 66, "duration": 3, "velocity": 89}, {"time": 521, "pitch": 66, "duration": 3, "velocity": 89}, {"time": 525, "pitch": 66, "duration": 3, "velocity": 87}, {"time": 529, "pitch": 66, "duration": 3, "velocity": 83}, {"time": 533, "pitch": 68, "duration": 3, "velocity": 88}, {"time": 537, "pitch": 70, "duration": 8, "velocity": 85}, {"time": 545, "pitch": 68, "duration": 11, "velocity": 89}, {"time": 557, "pitch": 66, "duration": 4, "velocity": 87}, {"time": 561, "pitch": 63, "duration": 35, "velocity": 78}, {"time": 609, "pitch": 68, "duration": 7, "velocity": 89}, {"time": 617, "pitch": 68, "duration": 3, "velocity": 89}, {"time": 621, "pitch": 68, "duration": 3, "velocity": 91}, {"time": 625, "pitch": 70, "duration": 3, "velocity": 88}, {"time": 629, "pitch": 71, "duration": 3, "velocity": 88}, {"time": 633, "pitch": 75, "duration": 21, "velocity": 86}, {"time": 657, "pitch": 73, "duration": 7, "velocity": 94}, {"time": 665, "pitch": 73, "duration": 3, "velocity": 93}, {"time": 669, "pitch": 73, "duration": 2, "velocity": 94}, {"time": 673, "pitch": 73, "duration": 4, "velocity": 94}, {"time": 677, "pitch": 71, "duration": 5, "velocity": 98}, {"time": 681, "pitch": 73, "duration": 18, "velocity": 88}, {"time": 705, "pitch": 66, "duration": 3, "velocity": 88}, {"time": 709, "pitch": 66, "duration": 3, "velocity": 89}, {"time": 713, "pitch": 66, "duration": 3, "velocity": 89}, {"time": 717, "pitch": 66, "duration": 3, "velocity": 87}, {"time": 721, "pitch": 68, "duration": 3, "velocity": 83}, {"time": 725, "pitch": 70, "duration": 3, "velocity": 88}, {"time": 729, "pitch": 70, "duration": 8, "velocity": 85}, {"time": 737, "pitch": 66, "duration": 11, "velocity": 89}, {"time": 749, "pitch": 70, "duration": 4, "velocity": 87}, {"time": 753, "pitch": 68, "duration": 35, "velocity": 78}, {"time": 801, "pitch": 73, "duration": 3, "velocity": 89}, {"time": 805, "pitch": 73, "duration": 3, "velocity": 93}, {"time": 809, "pitch": 73, "duration": 3, "velocity": 96}, {"time": 813, "pitch": 73, "duration": 3, "velocity": 93}, {"time": 817, "pitch": 73, "duration": 4, "velocity": 98}, {"time": 821, "pitch": 71, "duration": 5, "velocity": 96}, {"time": 825, "pitch": 68, "duration": 20, "velocity": 88}, {"time": 849, "pitch": 66, "duration": 3, "velocity": 89}, {"time": 853, "pitch": 66, "duration": 3, "velocity": 88}, {"time": 857, "pitch": 66, "duration": 3, "velocity": 88}, {"time": 861, "pitch": 66, "duration": 3, "velocity": 91}, {"time": 865, "pitch": 68, "duration": 4, "velocity": 91}, {"time": 869, "pitch": 70, "duration": 4, "velocity": 87}, {"time": 873, "pitch": 68, "duration": 23, "velocity": 91}, {"time": 897, "pitch": 73, "duration": 3, "velocity": 92}, {"time": 901, "pitch": 73, "duration": 3, "velocity": 93}, {"time": 905, "pitch": 73, "duration": 3, "velocity": 98}, {"time": 909, "pitch": 73, "duration": 3, "velocity": 98}, {"time": 913, "pitch": 73, "duration": 3, "velocity": 98}, {"time": 917, "pitch": 71, "duration": 3, "velocity": 91}, {"time": 921, "pitch": 73, "duration": 19, "velocity": 94}, {"time": 945, "pitch": 78, "duration": 3, "velocity": 87}, {"time": 949, "pitch": 78, "duration": 3, "velocity": 89}, {"time": 953, "pitch": 78, "duration": 3, "velocity": 91}, {"time": 957, "pitch": 78, "duration": 3, "velocity": 93}, {"time": 961, "pitch": 75, "duration": 3, "velocity": 89}, {"time": 965, "pitch": 73, "duration": 3, "velocity": 94}, {"time": 969, "pitch": 75, "duration": 51, "velocity": 91}, {"time": 1029, "pitch": 75, "duration": 3, "velocity": 101}, {"time": 1033, "pitch": 78, "duration": 3, "velocity": 91}, {"time": 1037, "pitch": 80, "duration": 3, "velocity": 89}, {"time": 1041, "pitch": 80, "duration": 10, "velocity": 92}, {"time": 1053, "pitch": 75, "duration": 4, "velocity": 96}, {"time": 1057, "pitch": 78, "duration": 3, "velocity": 89}, {"time": 1061, "pitch": 80, "duration": 3, "velocity": 89}, {"time": 1065, "pitch": 80, "duration": 10, "velocity": 89}, {"time": 1077, "pitch": 75, "duration": 3, "velocity": 96}, {"time": 1081, "pitch": 78, "duration": 3, "velocity": 92}, {"time": 1085, "pitch": 80, "duration": 3, "velocity": 89}, {"time": 1089, "pitch": 78, "duration": 4, "velocity": 96}, {"time": 1093, "pitch": 75, "duration": 3, "velocity": 92}, {"time": 1097, "pitch": 73, "duration": 4, "velocity": 98}, {"time": 1101, "pitch": 75, "duration": 22, "velocity": 90}, {"time": 1125, "pitch": 68, "duration": 3, "velocity": 90}, {"time": 1129, "pitch": 71, "duration": 3, "velocity": 93}, {"time": 1133, "pitch": 73, "duration": 3, "velocity": 91}, {"time": 1137, "pitch": 73, "duration": 11, "velocity": 98}, {"time": 1149, "pitch": 68, "duration": 4, "velocity": 91}, {"time": 1153, "pitch": 71, "duration": 3, "velocity": 91}, {"time": 1157, "pitch": 73, "duration": 3, "velocity": 94}, {"time": 1161, "pitch": 73, "duration": 10, "velocity": 94}, {"time": 1173, "pitch": 73, "duration": 4, "velocity": 94}, {"time": 1177, "pitch": 71, "duration": 4, "velocity": 91}, {"time": 1181, "pitch": 73, "duration": 4, "velocity": 94}, {"time": 1185, "pitch": 78, "duration": 4, "velocity": 91}, {"time": 1189, "pitch": 75, "duration": 4, "velocity": 91}, {"time": 1193, "pitch": 73, "duration": 4, "velocity": 92}, {"time": 1197, "pitch": 75, "duration": 23, "velocity": 89}, {"time": 1221, "pitch": 75, "duration": 4, "velocity": 91}, {"time": 1225, "pitch": 78, "duration": 3, "velocity": 89}, {"time": 1229, "pitch": 80, "duration": 3, "velocity": 89}, {"time": 1233, "pitch": 80, "duration": 12, "velocity": 92}, {"time": 1245, "pitch": 75, "duration": 3, "velocity": 96}, {"time": 1249, "pitch": 78, "duration": 3, "velocity": 91}, {"time": 1253, "pitch": 80, "duration": 3, "velocity": 89}, {"time": 1257, "pitch": 80, "duration": 12, "velocity": 88}, {"time": 1269, "pitch": 75, "duration": 3, "velocity": 89}, {"time": 1273, "pitch": 78, "duration": 3, "velocity": 93}, {"time": 1277, "pitch": 80, "duration": 4, "velocity": 91}, {"time": 1281, "pitch": 78, "duration": 5, "velocity": 96}, {"time": 1285, "pitch": 75, "duration": 3, "velocity": 91}, {"time": 1289, "pitch": 73, "duration": 3, "velocity": 98}, {"time": 1293, "pitch": 75, "duration": 22, "velocity": 90}, {"time": 1317, "pitch": 68, "duration": 4, "velocity": 93}, {"time": 1321, "pitch": 71, "duration": 3, "velocity": 92}, {"time": 1325, "pitch": 73, "duration": 3, "velocity": 91}, {"time": 1329, "pitch": 73, "duration": 12, "velocity": 94}, {"time": 1341, "pitch": 68, "duration": 3, "velocity": 93}, {"time": 1345, "pitch": 71, "duration": 3, "velocity": 91}, {"time": 1349, "pitch": 75, "duration": 3, "velocity": 94}, {"time": 1353, "pitch": 73, "duration": 11, "velocity": 101}, {"time": 1365, "pitch": 73, "duration": 3, "velocity": 94}, {"time": 1369, "pitch": 71, "duration": 3, "velocity": 94}, {"time": 1373, "pitch": 73, "duration": 3, "velocity": 94}, {"time": 1377, "pitch": 75, "duration": 7, "velocity": 96}, {"time": 1385, "pitch": 78, "duration": 4, "velocity": 91}, {"time": 1389, "pitch": 66, "duration": 8, "velocity": 89}, {"time": 1397, "pitch": 68, "duration": 31, "velocity": 87}, {"time": 1821, "pitch": 68, "duration": 7, "velocity": 89}, {"time": 1829, "pitch": 68, "duration": 3, "velocity": 89}, {"time": 1833, "pitch": 68, "duration": 3, "velocity": 91}, {"time": 1837, "pitch": 70, "duration": 3, "velocity": 88}, {"time": 1841, "pitch": 71, "duration": 3, "velocity": 88}, {"time": 1845, "pitch": 75, "duration": 21, "velocity": 86}, {"time": 1869, "pitch": 73, "duration": 7, "velocity": 94}, {"time": 1877, "pitch": 73, "duration": 3, "velocity": 93}, {"time": 1881, "pitch": 73, "duration": 2, "velocity": 94}, {"time": 1885, "pitch": 73, "duration": 4, "velocity": 94}, {"time": 1889, "pitch": 71, "duration": 5, "velocity": 98}, {"time": 1893, "pitch": 73, "duration": 18, "velocity": 88}, {"time": 1917, "pitch": 66, "duration": 3, "velocity": 88}, {"time": 1921, "pitch": 66, "duration": 3, "velocity": 89}, {"time": 1925, "pitch": 66, "duration": 3, "velocity": 89}, {"time": 1929, "pitch": 66, "duration": 3, "velocity": 87}, {"time": 1933, "pitch": 68, "duration": 3, "velocity": 83}, {"time": 1937, "pitch": 70, "duration": 3, "velocity": 88}, {"time": 1941, "pitch": 70, "duration": 8, "velocity": 85}, {"time": 1949, "pitch": 66, "duration": 11, "velocity": 89}, {"time": 1961, "pitch": 70, "duration": 4, "velocity": 87}, {"time": 1965, "pitch": 68, "duration": 35, "velocity": 78}, {"time": 2013, "pitch": 73, "duration": 3, "velocity": 89}, {"time": 2017, "pitch": 73, "duration": 3, "velocity": 93}, {"time": 2021, "pitch": 73, "duration": 3, "velocity": 96}, {"time": 2025, "pitch": 73, "duration": 3, "velocity": 93}, {"time": 2029, "pitch": 73, "duration": 4, "velocity": 98}, {"time": 2033, "pitch": 71, "duration": 5, "velocity": 96}, {"time": 2037, "pitch": 68, "duration": 20, "velocity": 88}, {"time": 2061, "pitch": 66, "duration": 3, "velocity": 89}, {"time": 2065, "pitch": 66, "duration": 3, "velocity": 88}, {"time": 2069, "pitch": 66, "duration": 3, "velocity": 88}, {"time": 2073, "pitch": 66, "duration": 3, "velocity": 91}, {"time": 2077, "pitch": 68, "duration": 4, "velocity": 91}, {"time": 2081, "pitch": 70, "duration": 4, "velocity": 87}, {"time": 2085, "pitch": 68, "duration": 23, "velocity": 91}, {"time": 2109, "pitch": 73, "duration": 3, "velocity": 92}, {"time": 2113, "pitch": 73, "duration": 3, "velocity": 93}, {"time": 2117, "pitch": 73, "duration": 3, "velocity": 98}, {"time": 2121, "pitch": 73, "duration": 3, "velocity": 98}, {"time": 2125, "pitch": 73, "duration": 3, "velocity": 98}, {"time": 2129, "pitch": 71, "duration": 3, "velocity": 91}, {"time": 2133, "pitch": 73, "duration": 19, "velocity": 94}, {"time": 2157, "pitch": 78, "duration": 3, "velocity": 87}, {"time": 2161, "pitch": 78, "duration": 3, "velocity": 89}, {"time": 2165, "pitch": 78, "duration": 3, "velocity": 91}, {"time": 2169, "pitch": 78, "duration": 3, "velocity": 93}, {"time": 2173, "pitch": 75, "duration": 3, "velocity": 89}, {"time": 2177, "pitch": 73, "duration": 3, "velocity": 94}, {"time": 2181, "pitch": 75, "duration": 51, "velocity": 91}, {"time": 2241, "pitch": 75, "duration": 3, "velocity": 101}, {"time": 2245, "pitch": 78, "duration": 3, "velocity": 91}, {"time": 2249, "pitch": 80, "duration": 3, "velocity": 89}, {"time": 2253, "pitch": 80, "duration": 10, "velocity": 92}, {"time": 2265, "pitch": 75, "duration": 4, "velocity": 96}, {"time": 2269, "pitch": 78, "duration": 3, "velocity": 89}, {"time": 2273, "pitch": 80, "duration": 3, "velocity": 89}, {"time": 2277, "pitch": 80, "duration": 10, "velocity": 89}, {"time": 2289, "pitch": 75, "duration": 3, "velocity": 96}, {"time": 2293, "pitch": 78, "duration": 3, "velocity": 92}, {"time": 2297, "pitch": 80, "duration": 3, "velocity": 89}, {"time": 2301, "pitch": 78, "duration": 4, "velocity": 96}, {"time": 2305, "pitch": 75, "duration": 3, "velocity": 92}, {"time": 2309, "pitch": 73, "duration": 4, "velocity": 98}, {"time": 2313, "pitch": 75, "duration": 22, "velocity": 90}, {"time": 2337, "pitch": 68, "duration": 3, "velocity": 90}, {"time": 2341, "pitch": 71, "duration": 3, "velocity": 93}, {"time": 2345, "pitch": 73, "duration": 3, "velocity": 91}, {"time": 2349, "pitch": 73, "duration": 11, "velocity": 98}, {"time": 2361, "pitch": 68, "duration": 4, "velocity": 91}, {"time": 2365, "pitch": 71, "duration": 3, "velocity": 91}, {"time": 2369, "pitch": 73, "duration": 3, "velocity": 94}, {"time": 2373, "pitch": 73, "duration": 10, "velocity": 94}, {"time": 2385, "pitch": 73, "duration": 4, "velocity": 94}, {"time": 2389, "pitch": 71, "duration": 4, "velocity": 91}, {"time": 2393, "pitch": 73, "duration": 4, "velocity": 94}, {"time": 2397, "pitch": 78, "duration": 4, "velocity": 91}, {"time": 2401, "pitch": 75, "duration": 4, "velocity": 91}, {"time": 2405, "pitch": 73, "duration": 4, "velocity": 92}, {"time": 2409, "pitch": 75, "duration": 23, "velocity": 89}, {"time": 2433, "pitch": 75, "duration": 4, "velocity": 91}, {"time": 2437, "pitch": 78, "duration": 3, "velocity": 89}, {"time": 2441, "pitch": 80, "duration": 3, "velocity": 89}, {"time": 2445, "pitch": 80, "duration": 12, "velocity": 92}, {"time": 2457, "pitch": 75, "duration": 3, "velocity": 96}, {"time": 2461, "pitch": 78, "duration": 3, "velocity": 91}, {"time": 2465, "pitch": 80, "duration": 3, "velocity": 89}, {"time": 2469, "pitch": 80, "duration": 12, "velocity": 88}, {"time": 2481, "pitch": 75, "duration": 3, "velocity": 89}, {"time": 2485, "pitch": 78, "duration": 3, "velocity": 93}, {"time": 2489, "pitch": 80, "duration": 4, "velocity": 91}, {"time": 2493, "pitch": 78, "duration": 5, "velocity": 96}, {"time": 2497, "pitch": 75, "duration": 3, "velocity": 91}, {"time": 2501, "pitch": 73, "duration": 3, "velocity": 98}, {"time": 2505, "pitch": 75, "duration": 22, "velocity": 90}, {"time": 2529, "pitch": 68, "duration": 4, "velocity": 93}, {"time": 2533, "pitch": 71, "duration": 3, "velocity": 92}, {"time": 2537, "pitch": 73, "duration": 3, "velocity": 91}, {"time": 2541, "pitch": 73, "duration": 12, "velocity": 94}, {"time": 2553, "pitch": 68, "duration": 3, "velocity": 93}, {"time": 2557, "pitch": 71, "duration": 3, "velocity": 91}, {"time": 2561, "pitch": 75, "duration": 3, "velocity": 94}, {"time": 2565, "pitch": 73, "duration": 11, "velocity": 101}, {"time": 2577, "pitch": 73, "duration": 3, "velocity": 94}, {"time": 2581, "pitch": 71, "duration": 3, "velocity": 94}, {"time": 2585, "pitch": 73, "duration": 3, "velocity": 94}, {"time": 2589, "pitch": 75, "duration": 7, "velocity": 96}, {"time": 2597, "pitch": 78, "duration": 4, "velocity": 91}, {"time": 2601, "pitch": 66, "duration": 8, "velocity": 89}, {"time": 2609, "pitch": 68, "duration": 28, "velocity": 87}, {"time": 2637, "pitch": 75, "duration": 3, "velocity": 101}, {"time": 2641, "pitch": 78, "duration": 3, "velocity": 91}, {"time": 2645, "pitch": 80, "duration": 3, "velocity": 89}, {"time": 2649, "pitch": 80, "duration": 10, "velocity": 92}, {"time": 2661, "pitch": 75, "duration": 4, "velocity": 96}, {"time": 2665, "pitch": 78, "duration": 3, "velocity": 89}, {"time": 2669, "pitch": 80, "duration": 3, "velocity": 89}, {"time": 2673, "pitch": 80, "duration": 10, "velocity": 89}, {"time": 2685, "pitch": 75, "duration": 3, "velocity": 96}, {"time": 2689, "pitch": 78, "duration": 3, "velocity": 92}, {"time": 2693, "pitch": 80, "duration": 3, "velocity": 89}, {"time": 2697, "pitch": 78, "duration": 4, "velocity": 96}, {"time": 2701, "pitch": 75, "duration": 3, "velocity": 92}, {"time": 2705, "pitch": 73, "duration": 4, "velocity": 98}, {"time": 2709, "pitch": 75, "duration": 22, "velocity": 90}, {"time": 2733, "pitch": 68, "duration": 3, "velocity": 90}, {"time": 2737, "pitch": 71, "duration": 3, "velocity": 93}, {"time": 2741, "pitch": 73, "duration": 3, "velocity": 91}, {"time": 2745, "pitch": 73, "duration": 11, "velocity": 98}, {"time": 2757, "pitch": 68, "duration": 4, "velocity": 91}, {"time": 2761, "pitch": 71, "duration": 3, "velocity": 91}, {"time": 2765, "pitch": 73, "duration": 3, "velocity": 94}, {"time": 2769, "pitch": 73, "duration": 10, "velocity": 94}, {"time": 2781, "pitch": 73, "duration": 4, "velocity": 94}, {"time": 2785, "pitch": 71, "duration": 4, "velocity": 91}, {"time": 2789, "pitch": 73, "duration": 4, "velocity": 94}, {"time": 2793, "pitch": 78, "duration": 4, "velocity": 91}, {"time": 2797, "pitch": 75, "duration": 4, "velocity": 91}, {"time": 2801, "pitch": 73, "duration": 4, "velocity": 92}, {"time": 2805, "pitch": 75, "duration": 23, "velocity": 89}, {"time": 2829, "pitch": 75, "duration": 4, "velocity": 91}, {"time": 2833, "pitch": 78, "duration": 3, "velocity": 89}, {"time": 2837, "pitch": 80, "duration": 3, "velocity": 89}, {"time": 2841, "pitch": 80, "duration": 12, "velocity": 92}, {"time": 2853, "pitch": 75, "duration": 3, "velocity": 96}, {"time": 2857, "pitch": 78, "duration": 3, "velocity": 91}, {"time": 2861, "pitch": 80, "duration": 3, "velocity": 89}, {"time": 2865, "pitch": 80, "duration": 12, "velocity": 88}, {"time": 2877, "pitch": 75, "duration": 3, "velocity": 89}, {"time": 2881, "pitch": 78, "duration": 3, "velocity": 93}, {"time": 2885, "pitch": 80, "duration": 4, "velocity": 91}, {"time": 2889, "pitch": 78, "duration": 5, "velocity": 96}, {"time": 2893, "pitch": 75, "duration": 3, "velocity": 91}, {"time": 2897, "pitch": 73, "duration": 3, "velocity": 98}, {"time": 2901, "pitch": 75, "duration": 22, "velocity": 90}, {"time": 2925, "pitch": 68, "duration": 4, "velocity": 93}, {"time": 2929, "pitch": 71, "duration": 3, "velocity": 92}, {"time": 2933, "pitch": 73, "duration": 3, "velocity": 91}, {"time": 2937, "pitch": 73, "duration": 12, "velocity": 94}, {"time": 2949, "pitch": 68, "duration": 3, "velocity": 93}, {"time": 2953, "pitch": 71, "duration": 3, "velocity": 91}, {"time": 2957, "pitch": 75, "duration": 3, "velocity": 94}, {"time": 2961, "pitch": 73, "duration": 11, "velocity": 101}, {"time": 2973, "pitch": 73, "duration": 3, "velocity": 94}, {"time": 2977, "pitch": 71, "duration": 3, "velocity": 94}, {"time": 2981, "pitch": 73, "duration": 3, "velocity": 94}, {"time": 2985, "pitch": 75, "duration": 7, "velocity": 96}, {"time": 2993, "pitch": 78, "duration": 4, "velocity": 91}, {"time": 2997, "pitch": 66, "duration": 8, "velocity": 89}, {"time": 3005, "pitch": 68, "duration": 28, "velocity": 87}, {"time": 3035, "pitch": 68, "duration": 7, "velocity": 94}, {"time": 3041, "pitch": 71, "duration": 4, "velocity": 93}, {"time": 3045, "pitch": 73, "duration": 3, "velocity": 90}, {"time": 3049, "pitch": 73, "duration": 13, "velocity": 91}, {"time": 3062, "pitch": 68, "duration": 6, "velocity": 91}, {"time": 3068, "pitch": 71, "duration": 4, "velocity": 94}, {"time": 3072, "pitch": 75, "duration": 5, "velocity": 92}, {"time": 3077, "pitch": 73, "duration": 11, "velocity": 92}, {"time": 3092, "pitch": 73, "duration": 8, "velocity": 93}, {"time": 3100, "pitch": 71, "duration": 6, "velocity": 87}, {"time": 3106, "pitch": 73, "duration": 6, "velocity": 92}, {"time": 3113, "pitch": 75, "duration": 8, "velocity": 88}, {"time": 3120, "pitch": 78, "duration": 30, "velocity": 89}, {"time": 3164, "pitch": 66, "duration": 14, "velocity": 86}, {"time": 3178, "pitch": 68, "duration": 45, "velocity": 89}, {"time": 3237, "pitch": 78, "duration": 40, "velocity": 87}, {"time": 3291, "pitch": 80, "duration": 31, "velocity": 80}]}, {"program": 0, "is_drum": false, "name": "PIANO", "notes": [{"time": 33, "pitch": 44, "duration": 24, "velocity": 87}, {"time": 37, "pitch": 51, "duration": 19, "velocity": 75}, {"time": 41, "pitch": 56, "duration": 5, "velocity": 87}, {"time": 45, "pitch": 58, "duration": 6, "velocity": 88}, {"time": 49, "pitch": 56, "duration": 6, "velocity": 68}, {"time": 53, "pitch": 59, "duration": 11, "velocity": 78}, {"time": 57, "pitch": 44, "duration": 16, "velocity": 82}, {"time": 57, "pitch": 63, "duration": 31, "velocity": 88}, {"time": 81, "pitch": 42, "duration": 42, "velocity": 87}, {"time": 85, "pitch": 49, "duration": 11, "velocity": 79}, {"time": 89, "pitch": 56, "duration": 5, "velocity": 87}, {"time": 93, "pitch": 58, "duration": 10, "velocity": 85}, {"time": 97, "pitch": 54, "duration": 25, "velocity": 91}, {"time": 101, "pitch": 49, "duration": 21, "velocity": 87}, {"time": 105, "pitch": 58, "duration": 16, "velocity": 86}, {"time": 105, "pitch": 61, "duration": 16, "velocity": 82}, {"time": 105, "pitch": 66, "duration": 15, "velocity": 80}, {"time": 129, "pitch": 40, "duration": 39, "velocity": 85}, {"time": 133, "pitch": 47, "duration": 34, "velocity": 82}, {"time": 137, "pitch": 54, "duration": 9, "velocity": 89}, {"time": 141, "pitch": 56, "duration": 6, "velocity": 82}, {"time": 145, "pitch": 59, "duration": 5, "velocity": 78}, {"time": 149, "pitch": 66, "duration": 18, "velocity": 85}, {"time": 153, "pitch": 68, "duration": 13, "velocity": 87}, {"time": 177, "pitch": 39, "duration": 20, "velocity": 89}, {"time": 177, "pitch": 58, "duration": 14, "velocity": 82}, {"time": 181, "pitch": 46, "duration": 13, "velocity": 81}, {"time": 185, "pitch": 49, "duration": 8, "velocity": 89}, {"time": 189, "pitch": 51, "duration": 9, "velocity": 101}, {"time": 193, "pitch": 49, "duration": 6, "velocity": 82}, {"time": 197, "pitch": 56, "duration": 3, "velocity": 87}, {"time": 201, "pitch": 39, "duration": 17, "velocity": 91}, {"time": 201, "pitch": 51, "duration": 10, "velocity": 89}, {"time": 201, "pitch": 55, "duration": 9, "velocity": 88}, {"time": 201, "pitch": 58, "duration": 10, "velocity": 88}, {"time": 213, "pitch": 51, "duration": 5, "velocity": 98}, {"time": 213, "pitch": 55, "duration": 1, "velocity": 87}, {"time": 213, "pitch": 58, "duration": 5, "velocity": 96}, {"time": 213, "pitch": 63, "duration": 5, "velocity": 92}, {"time": 217, "pitch": 46, "duration": 2, "velocity": 92}, {"time": 217, "pitch": 55, "duration": 2, "velocity": 44}, {"time": 221, "pitch": 51, "duration": 2, "velocity": 101}, {"time": 225, "pitch": 44, "duration": 43, "velocity": 89}, {"time": 225, "pitch": 56, "duration": 5, "velocity": 87}, {"time": 225, "pitch": 59, "duration": 7, "velocity": 89}, {"time": 229, "pitch": 51, "duration": 11, "velocity": 87}, {"time": 233, "pitch": 56, "duration": 2, "velocity": 81}, {"time": 237, "pitch": 56, "duration": 5, "velocity": 89}, {"time": 237, "pitch": 63, "duration": 5, "velocity": 89}, {"time": 241, "pitch": 51, "duration": 22, "velocity": 83}, {"time": 245, "pitch": 56, "duration": 12, "velocity": 81}, {"time": 249, "pitch": 59, "duration": 7, "velocity": 83}, {"time": 249, "pitch": 63, "duration": 6, "velocity": 88}, {"time": 249, "pitch": 68, "duration": 6, "velocity": 83}, {"time": 261, "pitch": 56, "duration": 4, "velocity": 89}, {"time": 261, "pitch": 63, "duration": 8, "velocity": 87}, {"time": 265, "pitch": 51, "duration": 4, "velocity": 84}, {"time": 269, "pitch": 56, "duration": 2, "velocity": 82}, {"time": 273, "pitch": 42, "duration": 22, "velocity": 87}, {"time": 273, "pitch": 54, "duration": 12, "velocity": 86}, {"time": 273, "pitch": 58, "duration": 10, "velocity": 79}, {"time": 277, "pitch": 49, "duration": 18, "velocity": 79}, {"time": 281, "pitch": 61, "duration": 5, "velocity": 83}, {"time": 285, "pitch": 66, "duration": 5, "velocity": 89}, {"time": 289, "pitch": 61, "duration": 7, "velocity": 84}, {"time": 293, "pitch": 54, "duration": 3, "velocity": 88}, {"time": 297, "pitch": 42, "duration": 17, "velocity": 85}, {"time": 297, "pitch": 54, "duration": 10, "velocity": 83}, {"time": 297, "pitch": 61, "duration": 10, "velocity": 82}, {"time": 309, "pitch": 54, "duration": 3, "velocity": 87}, {"time": 309, "pitch": 58, "duration": 3, "velocity": 88}, {"time": 321, "pitch": 40, "duration": 40, "velocity": 87}, {"time": 321, "pitch": 59, "duration": 8, "velocity": 84}, {"time": 325, "pitch": 47, "duration": 34, "velocity": 81}, {"time": 329, "pitch": 52, "duration": 12, "velocity": 90}, {"time": 333, "pitch": 56, "duration": 21, "velocity": 89}, {"time": 337, "pitch": 59, "duration": 18, "velocity": 88}, {"time": 341, "pitch": 64, "duration": 14, "velocity": 88}, {"time": 345, "pitch": 52, "duration": 13, "velocity": 90}, {"time": 357, "pitch": 56, "duration": 1, "velocity": 87}, {"time": 357, "pitch": 59, "duration": 2, "velocity": 87}, {"time": 369, "pitch": 39, "duration": 2, "velocity": 89}, {"time": 369, "pitch": 51, "duration": 3, "velocity": 87}, {"time": 369, "pitch": 63, "duration": 5, "velocity": 88}, {"time": 373, "pitch": 51, "duration": 17, "velocity": 88}, {"time": 377, "pitch": 58, "duration": 13, "velocity": 89}, {"time": 381, "pitch": 63, "duration": 5, "velocity": 101}, {"time": 385, "pitch": 68, "duration": 4, "velocity": 81}, {"time": 389, "pitch": 70, "duration": 3, "velocity": 72}, {"time": 393, "pitch": 51, "duration": 16, "velocity": 88}, {"time": 393, "pitch": 63, "duration": 17, "velocity": 83}, {"time": 393, "pitch": 67, "duration": 16, "velocity": 76}, {"time": 393, "pitch": 70, "duration": 16, "velocity": 74}, {"time": 417, "pitch": 44, "duration": 23, "velocity": 88}, {"time": 421, "pitch": 51, "duration": 19, "velocity": 70}, {"time": 425, "pitch": 56, "duration": 5, "velocity": 73}, {"time": 429, "pitch": 58, "duration": 5, "velocity": 93}, {"time": 433, "pitch": 59, "duration": 5, "velocity": 83}, {"time": 437, "pitch": 63, "duration": 21, "velocity": 83}, {"time": 441, "pitch": 44, "duration": 22, "velocity": 83}, {"time": 453, "pitch": 51, "duration": 9, "velocity": 79}, {"time": 457, "pitch": 56, "duration": 6, "velocity": 88}, {"time": 461, "pitch": 59, "duration": 13, "velocity": 90}, {"time": 465, "pitch": 40, "duration": 22, "velocity": 85}, {"time": 469, "pitch": 47, "duration": 17, "velocity": 80}, {"time": 473, "pitch": 52, "duration": 8, "velocity": 83}, {"time": 477, "pitch": 56, "duration": 6, "velocity": 91}, {"time": 489, "pitch": 40, "duration": 19, "velocity": 87}, {"time": 489, "pitch": 59, "duration": 14, "velocity": 81}, {"time": 493, "pitch": 47, "duration": 15, "velocity": 72}, {"time": 497, "pitch": 52, "duration": 5, "velocity": 78}, {"time": 501, "pitch": 64, "duration": 13, "velocity": 88}, {"time": 505, "pitch": 52, "duration": 5, "velocity": 84}, {"time": 509, "pitch": 59, "duration": 8, "velocity": 75}, {"time": 513, "pitch": 42, "duration": 21, "velocity": 88}, {"time": 517, "pitch": 49, "duration": 17, "velocity": 87}, {"time": 521, "pitch": 54, "duration": 6, "velocity": 83}, {"time": 525, "pitch": 61, "duration": 21, "velocity": 82}, {"time": 529, "pitch": 54, "duration": 13, "velocity": 80}, {"time": 533, "pitch": 58, "duration": 13, "velocity": 81}, {"time": 537, "pitch": 42, "duration": 17, "velocity": 87}, {"time": 541, "pitch": 49, "duration": 12, "velocity": 74}, {"time": 545, "pitch": 54, "duration": 4, "velocity": 82}, {"time": 549, "pitch": 54, "duration": 2, "velocity": 82}, {"time": 549, "pitch": 58, "duration": 2, "velocity": 84}, {"time": 549, "pitch": 61, "duration": 3, "velocity": 83}, {"time": 561, "pitch": 39, "duration": 6, "velocity": 91}, {"time": 561, "pitch": 63, "duration": 5, "velocity": 83}, {"time": 561, "pitch": 68, "duration": 16, "velocity": 81}, {"time": 565, "pitch": 46, "duration": 2, "velocity": 76}, {"time": 569, "pitch": 51, "duration": 13, "velocity": 88}, {"time": 573, "pitch": 58, "duration": 9, "velocity": 88}, {"time": 577, "pitch": 63, "duration": 6, "velocity": 96}, {"time": 581, "pitch": 68, "duration": 4, "velocity": 85}, {"time": 585, "pitch": 51, "duration": 11, "velocity": 90}, {"time": 585, "pitch": 63, "duration": 5, "velocity": 84}, {"time": 585, "pitch": 67, "duration": 9, "velocity": 76}, {"time": 589, "pitch": 58, "duration": 6, "velocity": 69}, {"time": 593, "pitch": 63, "duration": 3, "velocity": 83}, {"time": 597, "pitch": 70, "duration": 2, "velocity": 84}, {"time": 609, "pitch": 44, "duration": 22, "velocity": 87}, {"time": 609, "pitch": 71, "duration": 5, "velocity": 88}, {"time": 613, "pitch": 51, "duration": 17, "velocity": 82}, {"time": 613, "pitch": 70, "duration": 5, "velocity": 79}, {"time": 617, "pitch": 68, "duration": 4, "velocity": 89}, {"time": 621, "pitch": 63, "duration": 2, "velocity": 98}, {"time": 625, "pitch": 59, "duration": 4, "velocity": 49}, {"time": 629, "pitch": 58, "duration": 4, "velocity": 80}, {"time": 633, "pitch": 44, "duration": 22, "velocity": 88}, {"time": 633, "pitch": 56, "duration": 5, "velocity": 77}, {"time": 637, "pitch": 51, "duration": 17, "velocity": 76}, {"time": 641, "pitch": 56, "duration": 3, "velocity": 86}, {"time": 645, "pitch": 56, "duration": 5, "velocity": 79}, {"time": 645, "pitch": 59, "duration": 5, "velocity": 73}, {"time": 645, "pitch": 63, "duration": 8, "velocity": 85}, {"time": 657, "pitch": 49, "duration": 17, "velocity": 91}, {"time": 661, "pitch": 52, "duration": 14, "velocity": 76}, {"time": 665, "pitch": 56, "duration": 8, "velocity": 96}, {"time": 669, "pitch": 61, "duration": 5, "velocity": 89}, {"time": 673, "pitch": 64, "duration": 9, "velocity": 91}, {"time": 677, "pitch": 56, "duration": 6, "velocity": 88}, {"time": 681, "pitch": 37, "duration": 14, "velocity": 86}, {"time": 681, "pitch": 61, "duration": 9, "velocity": 82}, {"time": 685, "pitch": 44, "duration": 10, "velocity": 63}, {"time": 689, "pitch": 56, "duration": 11, "velocity": 87}, {"time": 693, "pitch": 61, "duration": 8, "velocity": 91}, {"time": 705, "pitch": 39, "duration": 22, "velocity": 87}, {"time": 705, "pitch": 58, "duration": 5, "velocity": 78}, {"time": 705, "pitch": 63, "duration": 9, "velocity": 87}, {"time": 709, "pitch": 46, "duration": 17, "velocity": 73}, {"time": 713, "pitch": 58, "duration": 5, "velocity": 87}, {"time": 717, "pitch": 66, "duration": 5, "velocity": 88}, {"time": 721, "pitch": 63, "duration": 6, "velocity": 85}, {"time": 725, "pitch": 58, "duration": 3, "velocity": 87}, {"time": 729, "pitch": 39, "duration": 16, "velocity": 88}, {"time": 729, "pitch": 58, "duration": 13, "velocity": 81}, {"time": 729, "pitch": 63, "duration": 17, "velocity": 82}, {"time": 741, "pitch": 46, "duration": 4, "velocity": 80}, {"time": 745, "pitch": 58, "duration": 5, "velocity": 86}, {"time": 749, "pitch": 63, "duration": 2, "velocity": 83}, {"time": 753, "pitch": 44, "duration": 23, "velocity": 87}, {"time": 753, "pitch": 56, "duration": 5, "velocity": 79}, {"time": 753, "pitch": 59, "duration": 9, "velocity": 78}, {"time": 757, "pitch": 51, "duration": 19, "velocity": 75}, {"time": 761, "pitch": 56, "duration": 5, "velocity": 81}, {"time": 765, "pitch": 63, "duration": 4, "velocity": 90}, {"time": 769, "pitch": 59, "duration": 5, "velocity": 80}, {"time": 773, "pitch": 58, "duration": 3, "velocity": 87}, {"time": 777, "pitch": 44, "duration": 17, "velocity": 88}, {"time": 777, "pitch": 56, "duration": 10, "velocity": 79}, {"time": 789, "pitch": 56, "duration": 4, "velocity": 88}, {"time": 789, "pitch": 59, "duration": 6, "velocity": 92}, {"time": 789, "pitch": 63, "duration": 6, "velocity": 93}, {"time": 793, "pitch": 51, "duration": 3, "velocity": 81}, {"time": 797, "pitch": 56, "duration": 3, "velocity": 91}, {"time": 801, "pitch": 49, "duration": 16, "velocity": 94}, {"time": 801, "pitch": 61, "duration": 5, "velocity": 89}, {"time": 805, "pitch": 56, "duration": 5, "velocity": 91}, {"time": 809, "pitch": 61, "duration": 2, "velocity": 92}, {"time": 813, "pitch": 56, "duration": 5, "velocity": 87}, {"time": 813, "pitch": 61, "duration": 5, "velocity": 91}, {"time": 813, "pitch": 64, "duration": 6, "velocity": 89}, {"time": 825, "pitch": 44, "duration": 15, "velocity": 87}, {"time": 825, "pitch": 56, "duration": 5, "velocity": 81}, {"time": 825, "pitch": 59, "duration": 8, "velocity": 82}, {"time": 829, "pitch": 51, "duration": 10, "velocity": 87}, {"time": 833, "pitch": 56, "duration": 3, "velocity": 90}, {"time": 837, "pitch": 56, "duration": 4, "velocity": 87}, {"time": 837, "pitch": 59, "duration": 4, "velocity": 87}, {"time": 837, "pitch": 63, "duration": 3, "velocity": 88}, {"time": 849, "pitch": 39, "duration": 16, "velocity": 87}, {"time": 849, "pitch": 54, "duration": 3, "velocity": 81}, {"time": 849, "pitch": 58, "duration": 13, "velocity": 83}, {"time": 853, "pitch": 46, "duration": 11, "velocity": 77}, {"time": 857, "pitch": 54, "duration": 6, "velocity": 89}, {"time": 861, "pitch": 63, "duration": 5, "velocity": 94}, {"time": 865, "pitch": 58, "duration": 5, "velocity": 90}, {"time": 869, "pitch": 54, "duration": 2, "velocity": 86}, {"time": 873, "pitch": 44, "duration": 22, "velocity": 87}, {"time": 873, "pitch": 56, "duration": 5, "velocity": 80}, {"time": 873, "pitch": 59, "duration": 9, "velocity": 81}, {"time": 877, "pitch": 51, "duration": 18, "velocity": 83}, {"time": 881, "pitch": 56, "duration": 2, "velocity": 87}, {"time": 885, "pitch": 56, "duration": 5, "velocity": 88}, {"time": 885, "pitch": 63, "duration": 5, "velocity": 89}, {"time": 889, "pitch": 61, "duration": 4, "velocity": 90}, {"time": 893, "pitch": 59, "duration": 3, "velocity": 88}, {"time": 897, "pitch": 49, "duration": 20, "velocity": 90}, {"time": 897, "pitch": 56, "duration": 1, "velocity": 74}, {"time": 897, "pitch": 64, "duration": 9, "velocity": 86}, {"time": 901, "pitch": 52, "duration": 15, "velocity": 87}, {"time": 905, "pitch": 56, "duration": 3, "velocity": 91}, {"time": 909, "pitch": 56, "duration": 9, "velocity": 89}, {"time": 909, "pitch": 61, "duration": 12, "velocity": 87}, {"time": 921, "pitch": 40, "duration": 19, "velocity": 84}, {"time": 921, "pitch": 59, "duration": 7, "velocity": 86}, {"time": 925, "pitch": 47, "duration": 15, "velocity": 84}, {"time": 929, "pitch": 52, "duration": 5, "velocity": 89}, {"time": 933, "pitch": 59, "duration": 5, "velocity": 90}, {"time": 937, "pitch": 56, "duration": 5, "velocity": 87}, {"time": 941, "pitch": 52, "duration": 2, "velocity": 88}, {"time": 945, "pitch": 42, "duration": 17, "velocity": 88}, {"time": 945, "pitch": 54, "duration": 10, "velocity": 88}, {"time": 945, "pitch": 58, "duration": 10, "velocity": 87}, {"time": 949, "pitch": 49, "duration": 12, "velocity": 84}, {"time": 953, "pitch": 61, "duration": 5, "velocity": 87}, {"time": 957, "pitch": 66, "duration": 5, "velocity": 91}, {"time": 961, "pitch": 61, "duration": 4, "velocity": 89}, {"time": 965, "pitch": 54, "duration": 2, "velocity": 88}, {"time": 969, "pitch": 39, "duration": 21, "velocity": 91}, {"time": 969, "pitch": 58, "duration": 4, "velocity": 91}, {"time": 969, "pitch": 63, "duration": 5, "velocity": 88}, {"time": 973, "pitch": 46, "duration": 10, "velocity": 88}, {"time": 977, "pitch": 58, "duration": 3, "velocity": 88}, {"time": 981, "pitch": 58, "duration": 2, "velocity": 93}, {"time": 981, "pitch": 67, "duration": 3, "velocity": 89}, {"time": 985, "pitch": 46, "duration": 6, "velocity": 88}, {"time": 989, "pitch": 63, "duration": 3, "velocity": 93}, {"time": 989, "pitch": 70, "duration": 3, "velocity": 87}, {"time": 993, "pitch": 39, "duration": 21, "velocity": 94}, {"time": 993, "pitch": 63, "duration": 5, "velocity": 94}, {"time": 993, "pitch": 70, "duration": 6, "velocity": 92}, {"time": 997, "pitch": 46, "duration": 10, "velocity": 86}, {"time": 1001, "pitch": 63, "duration": 2, "velocity": 74}, {"time": 1001, "pitch": 67, "duration": 2, "velocity": 79}, {"time": 1001, "pitch": 70, "duration": 2, "velocity": 70}, {"time": 1001, "pitch": 75, "duration": 3, "velocity": 81}, {"time": 1005, "pitch": 63, "duration": 4, "velocity": 101}, {"time": 1005, "pitch": 67, "duration": 5, "velocity": 108}, {"time": 1005, "pitch": 70, "duration": 10, "velocity": 96}, {"time": 1005, "pitch": 75, "duration": 7, "velocity": 92}, {"time": 1009, "pitch": 46, "duration": 5, "velocity": 88}, {"time": 1013, "pitch": 63, "duration": 3, "velocity": 94}, {"time": 1017, "pitch": 39, "duration": 11, "velocity": 93}, {"time": 1017, "pitch": 63, "duration": 10, "velocity": 96}, {"time": 1017, "pitch": 67, "duration": 10, "velocity": 96}, {"time": 1017, "pitch": 70, "duration": 9, "velocity": 91}, {"time": 1029, "pitch": 39, "duration": 5, "velocity": 93}, {"time": 1029, "pitch": 63, "duration": 5, "velocity": 91}, {"time": 1029, "pitch": 67, "duration": 6, "velocity": 89}, {"time": 1029, "pitch": 70, "duration": 9, "velocity": 89}, {"time": 1033, "pitch": 46, "duration": 2, "velocity": 94}, {"time": 1037, "pitch": 63, "duration": 3, "velocity": 96}, {"time": 1041, "pitch": 44, "duration": 18, "velocity": 88}, {"time": 1045, "pitch": 51, "duration": 13, "velocity": 90}, {"time": 1049, "pitch": 63, "duration": 2, "velocity": 96}, {"time": 1053, "pitch": 63, "duration": 2, "velocity": 93}, {"time": 1053, "pitch": 68, "duration": 3, "velocity": 89}, {"time": 1053, "pitch": 71, "duration": 5, "velocity": 90}, {"time": 1057, "pitch": 70, "duration": 5, "velocity": 90}, {"time": 1061, "pitch": 68, "duration": 3, "velocity": 91}, {"time": 1065, "pitch": 40, "duration": 14, "velocity": 88}, {"time": 1065, "pitch": 64, "duration": 4, "velocity": 87}, {"time": 1065, "pitch": 68, "duration": 4, "velocity": 87}, {"time": 1069, "pitch": 47, "duration": 9, "velocity": 81}, {"time": 1073, "pitch": 52, "duration": 3, "velocity": 89}, {"time": 1077, "pitch": 52, "duration": 3, "velocity": 93}, {"time": 1077, "pitch": 56, "duration": 3, "velocity": 90}, {"time": 1077, "pitch": 59, "duration": 5, "velocity": 92}, {"time": 1089, "pitch": 47, "duration": 20, "velocity": 98}, {"time": 1089, "pitch": 54, "duration": 5, "velocity": 89}, {"time": 1089, "pitch": 59, "duration": 9, "velocity": 88}, {"time": 1093, "pitch": 51, "duration": 15, "velocity": 83}, {"time": 1097, "pitch": 54, "duration": 3, "velocity": 89}, {"time": 1101, "pitch": 54, "duration": 3, "velocity": 92}, {"time": 1101, "pitch": 59, "duration": 3, "velocity": 96}, {"time": 1101, "pitch": 63, "duration": 5, "velocity": 98}, {"time": 1105, "pitch": 61, "duration": 5, "velocity": 91}, {"time": 1109, "pitch": 59, "duration": 3, "velocity": 93}, {"time": 1113, "pitch": 47, "duration": 16, "velocity": 91}, {"time": 1113, "pitch": 54, "duration": 3, "velocity": 88}, {"time": 1113, "pitch": 59, "duration": 5, "velocity": 87}, {"time": 1113, "pitch": 63, "duration": 6, "velocity": 88}, {"time": 1117, "pitch": 54, "duration": 5, "velocity": 89}, {"time": 1121, "pitch": 59, "duration": 2, "velocity": 91}, {"time": 1125, "pitch": 54, "duration": 4, "velocity": 92}, {"time": 1125, "pitch": 59, "duration": 6, "velocity": 89}, {"time": 1125, "pitch": 63, "duration": 6, "velocity": 90}, {"time": 1137, "pitch": 37, "duration": 14, "velocity": 91}, {"time": 1137, "pitch": 56, "duration": 5, "velocity": 83}, {"time": 1137, "pitch": 64, "duration": 10, "velocity": 87}, {"time": 1141, "pitch": 44, "duration": 10, "velocity": 83}, {"time": 1145, "pitch": 56, "duration": 5, "velocity": 89}, {"time": 1149, "pitch": 61, "duration": 4, "velocity": 91}, {"time": 1153, "pitch": 56, "duration": 4, "velocity": 87}, {"time": 1157, "pitch": 61, "duration": 2, "velocity": 88}, {"time": 1161, "pitch": 42, "duration": 21, "velocity": 87}, {"time": 1161, "pitch": 54, "duration": 9, "velocity": 88}, {"time": 1161, "pitch": 58, "duration": 9, "velocity": 88}, {"time": 1165, "pitch": 49, "duration": 16, "velocity": 85}, {"time": 1169, "pitch": 61, "duration": 3, "velocity": 87}, {"time": 1173, "pitch": 66, "duration": 5, "velocity": 88}, {"time": 1177, "pitch": 61, "duration": 9, "velocity": 88}, {"time": 1181, "pitch": 54, "duration": 5, "velocity": 90}, {"time": 1185, "pitch": 39, "duration": 22, "velocity": 89}, {"time": 1189, "pitch": 46, "duration": 18, "velocity": 85}, {"time": 1193, "pitch": 49, "duration": 4, "velocity": 79}, {"time": 1197, "pitch": 55, "duration": 4, "velocity": 90}, {"time": 1201, "pitch": 51, "duration": 6, "velocity": 103}, {"time": 1205, "pitch": 58, "duration": 3, "velocity": 88}, {"time": 1209, "pitch": 39, "duration": 16, "velocity": 91}, {"time": 1209, "pitch": 51, "duration": 4, "velocity": 91}, {"time": 1209, "pitch": 55, "duration": 5, "velocity": 87}, {"time": 1209, "pitch": 58, "duration": 5, "velocity": 87}, {"time": 1209, "pitch": 63, "duration": 5, "velocity": 90}, {"time": 1213, "pitch": 46, "duration": 11, "velocity": 87}, {"time": 1217, "pitch": 51, "duration": 2, "velocity": 89}, {"time": 1217, "pitch": 55, "duration": 2, "velocity": 83}, {"time": 1217, "pitch": 63, "duration": 2, "velocity": 87}, {"time": 1221, "pitch": 51, "duration": 3, "velocity": 103}, {"time": 1221, "pitch": 55, "duration": 3, "velocity": 103}, {"time": 1221, "pitch": 63, "duration": 4, "velocity": 98}, {"time": 1225, "pitch": 61, "duration": 5, "velocity": 87}, {"time": 1229, "pitch": 59, "duration": 4, "velocity": 91}, {"time": 1233, "pitch": 44, "duration": 18, "velocity": 90}, {"time": 1233, "pitch": 56, "duration": 5, "velocity": 88}, {"time": 1233, "pitch": 59, "duration": 5, "velocity": 90}, {"time": 1237, "pitch": 51, "duration": 14, "velocity": 88}, {"time": 1241, "pitch": 56, "duration": 3, "velocity": 87}, {"time": 1245, "pitch": 56, "duration": 2, "velocity": 90}, {"time": 1245, "pitch": 59, "duration": 3, "velocity": 93}, {"time": 1245, "pitch": 63, "duration": 4, "velocity": 93}, {"time": 1249, "pitch": 61, "duration": 5, "velocity": 92}, {"time": 1253, "pitch": 59, "duration": 3, "velocity": 91}, {"time": 1257, "pitch": 40, "duration": 19, "velocity": 88}, {"time": 1257, "pitch": 59, "duration": 7, "velocity": 88}, {"time": 1261, "pitch": 47, "duration": 14, "velocity": 84}, {"time": 1265, "pitch": 52, "duration": 6, "velocity": 87}, {"time": 1269, "pitch": 56, "duration": 5, "velocity": 89}, {"time": 1273, "pitch": 59, "duration": 4, "velocity": 96}, {"time": 1277, "pitch": 52, "duration": 1, "velocity": 89}, {"time": 1281, "pitch": 47, "duration": 15, "velocity": 93}, {"time": 1281, "pitch": 54, "duration": 3, "velocity": 89}, {"time": 1281, "pitch": 59, "duration": 5, "velocity": 88}, {"time": 1285, "pitch": 54, "duration": 5, "velocity": 91}, {"time": 1289, "pitch": 59, "duration": 2, "velocity": 88}, {"time": 1293, "pitch": 54, "duration": 2, "velocity": 88}, {"time": 1293, "pitch": 59, "duration": 2, "velocity": 92}, {"time": 1293, "pitch": 63, "duration": 5, "velocity": 93}, {"time": 1297, "pitch": 59, "duration": 5, "velocity": 87}, {"time": 1301, "pitch": 54, "duration": 4, "velocity": 91}, {"time": 1305, "pitch": 35, "duration": 2, "velocity": 87}, {"time": 1305, "pitch": 54, "duration": 4, "velocity": 87}, {"time": 1305, "pitch": 59, "duration": 5, "velocity": 86}, {"time": 1305, "pitch": 63, "duration": 6, "velocity": 88}, {"time": 1309, "pitch": 47, "duration": 11, "velocity": 83}, {"time": 1313, "pitch": 54, "duration": 6, "velocity": 89}, {"time": 1317, "pitch": 59, "duration": 2, "velocity": 87}, {"time": 1317, "pitch": 63, "duration": 5, "velocity": 92}, {"time": 1317, "pitch": 66, "duration": 7, "velocity": 88}, {"time": 1321, "pitch": 59, "duration": 5, "velocity": 89}, {"time": 1325, "pitch": 63, "duration": 4, "velocity": 89}, {"time": 1329, "pitch": 37, "duration": 2, "velocity": 87}, {"time": 1329, "pitch": 61, "duration": 9, "velocity": 87}, {"time": 1329, "pitch": 64, "duration": 9, "velocity": 87}, {"time": 1333, "pitch": 49, "duration": 12, "velocity": 80}, {"time": 1337, "pitch": 56, "duration": 8, "velocity": 87}, {"time": 1341, "pitch": 61, "duration": 5, "velocity": 91}, {"time": 1345, "pitch": 64, "duration": 7, "velocity": 98}, {"time": 1349, "pitch": 66, "duration": 12, "velocity": 72}, {"time": 1353, "pitch": 42, "duration": 18, "velocity": 88}, {"time": 1357, "pitch": 49, "duration": 10, "velocity": 86}, {"time": 1361, "pitch": 61, "duration": 3, "velocity": 92}, {"time": 1365, "pitch": 61, "duration": 7, "velocity": 93}, {"time": 1365, "pitch": 66, "duration": 8, "velocity": 92}, {"time": 1369, "pitch": 49, "duration": 3, "velocity": 86}, {"time": 1373, "pitch": 42, "duration": 2, "velocity": 83}, {"time": 1377, "pitch": 39, "duration": 3, "velocity": 91}, {"time": 1377, "pitch": 58, "duration": 5, "velocity": 87}, {"time": 1377, "pitch": 63, "duration": 5, "velocity": 89}, {"time": 1389, "pitch": 44, "duration": 21, "velocity": 88}, {"time": 1389, "pitch": 56, "duration": 5, "velocity": 87}, {"time": 1389, "pitch": 59, "duration": 8, "velocity": 87}, {"time": 1393, "pitch": 51, "duration": 10, "velocity": 80}, {"time": 1397, "pitch": 56, "duration": 3, "velocity": 88}, {"time": 1401, "pitch": 56, "duration": 5, "velocity": 89}, {"time": 1401, "pitch": 63, "duration": 5, "velocity": 91}, {"time": 1405, "pitch": 51, "duration": 6, "velocity": 88}, {"time": 1409, "pitch": 56, "duration": 3, "velocity": 90}, {"time": 1413, "pitch": 44, "duration": 24, "velocity": 90}, {"time": 1413, "pitch": 56, "duration": 5, "velocity": 91}, {"time": 1413, "pitch": 59, "duration": 9, "velocity": 93}, {"time": 1417, "pitch": 51, "duration": 19, "velocity": 81}, {"time": 1421, "pitch": 56, "duration": 2, "velocity": 84}, {"time": 1425, "pitch": 58, "duration": 11, "velocity": 83}, {"time": 1437, "pitch": 44, "duration": 24, "velocity": 87}, {"time": 1441, "pitch": 51, "duration": 19, "velocity": 75}, {"time": 1445, "pitch": 56, "duration": 5, "velocity": 87}, {"time": 1449, "pitch": 58, "duration": 6, "velocity": 88}, {"time": 1453, "pitch": 56, "duration": 6, "velocity": 68}, {"time": 1457, "pitch": 59, "duration": 11, "velocity": 78}, {"time": 1461, "pitch": 44, "duration": 16, "velocity": 82}, {"time": 1461, "pitch": 63, "duration": 31, "velocity": 88}, {"time": 1485, "pitch": 42, "duration": 42, "velocity": 87}, {"time": 1489, "pitch": 49, "duration": 11, "velocity": 79}, {"time": 1493, "pitch": 56, "duration": 5, "velocity": 87}, {"time": 1497, "pitch": 58, "duration": 10, "velocity": 85}, {"time": 1501, "pitch": 54, "duration": 25, "velocity": 91}, {"time": 1505, "pitch": 49, "duration": 21, "velocity": 87}, {"time": 1509, "pitch": 58, "duration": 16, "velocity": 86}, {"time": 1509, "pitch": 61, "duration": 16, "velocity": 82}, {"time": 1509, "pitch": 66, "duration": 15, "velocity": 80}, {"time": 1533, "pitch": 40, "duration": 39, "velocity": 85}, {"time": 1537, "pitch": 47, "duration": 34, "velocity": 82}, {"time": 1541, "pitch": 54, "duration": 9, "velocity": 89}, {"time": 1545, "pitch": 56, "duration": 6, "velocity": 82}, {"time": 1549, "pitch": 59, "duration": 5, "velocity": 78}, {"time": 1553, "pitch": 66, "duration": 18, "velocity": 85}, {"time": 1557, "pitch": 68, "duration": 13, "velocity": 87}, {"time": 1581, "pitch": 39, "duration": 20, "velocity": 89}, {"time": 1581, "pitch": 58, "duration": 14, "velocity": 82}, {"time": 1585, "pitch": 46, "duration": 13, "velocity": 81}, {"time": 1589, "pitch": 49, "duration": 8, "velocity": 89}, {"time": 1593, "pitch": 51, "duration": 9, "velocity": 101}, {"time": 1597, "pitch": 49, "duration": 5, "velocity": 82}, {"time": 1601, "pitch": 56, "duration": 3, "velocity": 87}, {"time": 1605, "pitch": 39, "duration": 17, "velocity": 91}, {"time": 1605, "pitch": 51, "duration": 10, "velocity": 89}, {"time": 1605, "pitch": 55, "duration": 9, "velocity": 88}, {"time": 1605, "pitch": 58, "duration": 10, "velocity": 88}, {"time": 1617, "pitch": 51, "duration": 5, "velocity": 98}, {"time": 1617, "pitch": 55, "duration": 1, "velocity": 87}, {"time": 1617, "pitch": 58, "duration": 5, "velocity": 96}, {"time": 1617, "pitch": 63, "duration": 5, "velocity": 92}, {"time": 1621, "pitch": 46, "duration": 2, "velocity": 92}, {"time": 1621, "pitch": 55, "duration": 2, "velocity": 44}, {"time": 1625, "pitch": 51, "duration": 2, "velocity": 101}, {"time": 1629, "pitch": 44, "duration": 43, "velocity": 89}, {"time": 1629, "pitch": 56, "duration": 5, "velocity": 87}, {"time": 1629, "pitch": 59, "duration": 7, "velocity": 89}, {"time": 1633, "pitch": 51, "duration": 11, "velocity": 87}, {"time": 1637, "pitch": 56, "duration": 2, "velocity": 81}, {"time": 1641, "pitch": 56, "duration": 5, "velocity": 89}, {"time": 1641, "pitch": 63, "duration": 5, "velocity": 89}, {"time": 1645, "pitch": 51, "duration": 22, "velocity": 83}, {"time": 1649, "pitch": 56, "duration": 12, "velocity": 81}, {"time": 1653, "pitch": 59, "duration": 7, "velocity": 83}, {"time": 1653, "pitch": 63, "duration": 6, "velocity": 88}, {"time": 1653, "pitch": 68, "duration": 6, "velocity": 83}, {"time": 1665, "pitch": 56, "duration": 4, "velocity": 89}, {"time": 1665, "pitch": 63, "duration": 8, "velocity": 87}, {"time": 1669, "pitch": 51, "duration": 4, "velocity": 84}, {"time": 1673, "pitch": 56, "duration": 2, "velocity": 82}, {"time": 1677, "pitch": 42, "duration": 22, "velocity": 87}, {"time": 1677, "pitch": 54, "duration": 12, "velocity": 86}, {"time": 1677, "pitch": 58, "duration": 10, "velocity": 79}, {"time": 1681, "pitch": 49, "duration": 18, "velocity": 79}, {"time": 1685, "pitch": 61, "duration": 5, "velocity": 83}, {"time": 1689, "pitch": 66, "duration": 5, "velocity": 89}, {"time": 1693, "pitch": 61, "duration": 7, "velocity": 84}, {"time": 1697, "pitch": 54, "duration": 3, "velocity": 88}, {"time": 1701, "pitch": 42, "duration": 17, "velocity": 85}, {"time": 1701, "pitch": 54, "duration": 10, "velocity": 83}, {"time": 1701, "pitch": 61, "duration": 10, "velocity": 82}, {"time": 1713, "pitch": 54, "duration": 3, "velocity": 87}, {"time": 1713, "pitch": 58, "duration": 3, "velocity": 88}, {"time": 1725, "pitch": 40, "duration": 40, "velocity": 87}, {"time": 1725, "pitch": 59, "duration": 8, "velocity": 84}, {"time": 1729, "pitch": 47, "duration": 34, "velocity": 81}, {"time": 1733, "pitch": 52, "duration": 12, "velocity": 90}, {"time": 1737, "pitch": 56, "duration": 21, "velocity": 89}, {"time": 1741, "pitch": 59, "duration": 18, "velocity": 88}, {"time": 1745, "pitch": 64, "duration": 14, "velocity": 88}, {"time": 1749, "pitch": 52, "duration": 13, "velocity": 90}, {"time": 1761, "pitch": 56, "duration": 1, "velocity": 87}, {"time": 1761, "pitch": 59, "duration": 2, "velocity": 87}, {"time": 1773, "pitch": 39, "duration": 2, "velocity": 89}, {"time": 1773, "pitch": 51, "duration": 3, "velocity": 87}, {"time": 1773, "pitch": 63, "duration": 5, "velocity": 88}, {"time": 1777, "pitch": 51, "duration": 17, "velocity": 88}, {"time": 1781, "pitch": 58, "duration": 13, "velocity": 89}, {"time": 1785, "pitch": 63, "duration": 5, "velocity": 101}, {"time": 1789, "pitch": 68, "duration": 4, "velocity": 81}, {"time": 1793, "pitch": 70, "duration": 3, "velocity": 72}, {"time": 1797, "pitch": 51, "duration": 16, "velocity": 88}, {"time": 1797, "pitch": 63, "duration": 17, "velocity": 83}, {"time": 1797, "pitch": 67, "duration": 16, "velocity": 76}, {"time": 1797, "pitch": 70, "duration": 16, "velocity": 74}, {"time": 1821, "pitch": 44, "duration": 22, "velocity": 87}, {"time": 1821, "pitch": 71, "duration": 5, "velocity": 88}, {"time": 1825, "pitch": 51, "duration": 17, "velocity": 82}, {"time": 1825, "pitch": 70, "duration": 5, "velocity": 79}, {"time": 1829, "pitch": 68, "duration": 4, "velocity": 89}, {"time": 1833, "pitch": 63, "duration": 2, "velocity": 98}, {"time": 1837, "pitch": 59, "duration": 4, "velocity": 49}, {"time": 1841, "pitch": 58, "duration": 4, "velocity": 80}, {"time": 1845, "pitch": 44, "duration": 22, "velocity": 88}, {"time": 1845, "pitch": 56, "duration": 5, "velocity": 77}, {"time": 1849, "pitch": 51, "duration": 17, "velocity": 76}, {"time": 1853, "pitch": 56, "duration": 3, "velocity": 86}, {"time": 1857, "pitch": 56, "duration": 5, "velocity": 79}, {"time": 1857, "pitch": 59, "duration": 5, "velocity": 73}, {"time": 1857, "pitch": 63, "duration": 8, "velocity": 85}, {"time": 1869, "pitch": 49, "duration": 17, "velocity": 91}, {"time": 1873, "pitch": 52, "duration": 14, "velocity": 76}, {"time": 1877, "pitch": 56, "duration": 8, "velocity": 96}, {"time": 1881, "pitch": 61, "duration": 5, "velocity": 89}, {"time": 1885, "pitch": 64, "duration": 9, "velocity": 91}, {"time": 1889, "pitch": 56, "duration": 6, "velocity": 88}, {"time": 1893, "pitch": 37, "duration": 14, "velocity": 86}, {"time": 1893, "pitch": 61, "duration": 9, "velocity": 82}, {"time": 1897, "pitch": 44, "duration": 10, "velocity": 63}, {"time": 1901, "pitch": 56, "duration": 11, "velocity": 87}, {"time": 1905, "pitch": 61, "duration": 8, "velocity": 91}, {"time": 1917, "pitch": 39, "duration": 22, "velocity": 87}, {"time": 1917, "pitch": 58, "duration": 5, "velocity": 78}, {"time": 1917, "pitch": 63, "duration": 9, "velocity": 87}, {"time": 1921, "pitch": 46, "duration": 17, "velocity": 73}, {"time": 1925, "pitch": 58, "duration": 5, "velocity": 87}, {"time": 1929, "pitch": 66, "duration": 5, "velocity": 88}, {"time": 1933, "pitch": 63, "duration": 6, "velocity": 85}, {"time": 1937, "pitch": 58, "duration": 3, "velocity": 87}, {"time": 1941, "pitch": 39, "duration": 16, "velocity": 88}, {"time": 1941, "pitch": 58, "duration": 13, "velocity": 81}, {"time": 1941, "pitch": 63, "duration": 17, "velocity": 82}, {"time": 1953, "pitch": 46, "duration": 4, "velocity": 80}, {"time": 1957, "pitch": 58, "duration": 5, "velocity": 86}, {"time": 1961, "pitch": 63, "duration": 2, "velocity": 83}, {"time": 1965, "pitch": 44, "duration": 23, "velocity": 87}, {"time": 1965, "pitch": 56, "duration": 5, "velocity": 79}, {"time": 1965, "pitch": 59, "duration": 9, "velocity": 78}, {"time": 1969, "pitch": 51, "duration": 19, "velocity": 75}, {"time": 1973, "pitch": 56, "duration": 5, "velocity": 81}, {"time": 1977, "pitch": 63, "duration": 4, "velocity": 90}, {"time": 1981, "pitch": 59, "duration": 5, "velocity": 80}, {"time": 1985, "pitch": 58, "duration": 3, "velocity": 87}, {"time": 1989, "pitch": 44, "duration": 17, "velocity": 88}, {"time": 1989, "pitch": 56, "duration": 10, "velocity": 79}, {"time": 2001, "pitch": 56, "duration": 4, "velocity": 88}, {"time": 2001, "pitch": 59, "duration": 6, "velocity": 92}, {"time": 2001, "pitch": 63, "duration": 6, "velocity": 93}, {"time": 2005, "pitch": 51, "duration": 3, "velocity": 81}, {"time": 2009, "pitch": 56, "duration": 3, "velocity": 91}, {"time": 2013, "pitch": 49, "duration": 16, "velocity": 94}, {"time": 2013, "pitch": 61, "duration": 5, "velocity": 89}, {"time": 2017, "pitch": 56, "duration": 5, "velocity": 91}, {"time": 2021, "pitch": 61, "duration": 2, "velocity": 92}, {"time": 2025, "pitch": 56, "duration": 5, "velocity": 87}, {"time": 2025, "pitch": 61, "duration": 5, "velocity": 91}, {"time": 2025, "pitch": 64, "duration": 6, "velocity": 89}, {"time": 2037, "pitch": 44, "duration": 15, "velocity": 87}, {"time": 2037, "pitch": 56, "duration": 5, "velocity": 81}, {"time": 2037, "pitch": 59, "duration": 8, "velocity": 82}, {"time": 2041, "pitch": 51, "duration": 10, "velocity": 87}, {"time": 2045, "pitch": 56, "duration": 3, "velocity": 90}, {"time": 2049, "pitch": 56, "duration": 4, "velocity": 87}, {"time": 2049, "pitch": 59, "duration": 4, "velocity": 87}, {"time": 2049, "pitch": 63, "duration": 3, "velocity": 88}, {"time": 2061, "pitch": 39, "duration": 16, "velocity": 87}, {"time": 2061, "pitch": 54, "duration": 3, "velocity": 81}, {"time": 2061, "pitch": 58, "duration": 13, "velocity": 83}, {"time": 2065, "pitch": 46, "duration": 11, "velocity": 77}, {"time": 2069, "pitch": 54, "duration": 6, "velocity": 89}, {"time": 2073, "pitch": 63, "duration": 5, "velocity": 94}, {"time": 2077, "pitch": 58, "duration": 5, "velocity": 90}, {"time": 2081, "pitch": 54, "duration": 2, "velocity": 86}, {"time": 2085, "pitch": 44, "duration": 22, "velocity": 87}, {"time": 2085, "pitch": 56, "duration": 5, "velocity": 80}, {"time": 2085, "pitch": 59, "duration": 9, "velocity": 81}, {"time": 2089, "pitch": 51, "duration": 18, "velocity": 83}, {"time": 2093, "pitch": 56, "duration": 2, "velocity": 87}, {"time": 2097, "pitch": 56, "duration": 5, "velocity": 88}, {"time": 2097, "pitch": 63, "duration": 5, "velocity": 89}, {"time": 2101, "pitch": 61, "duration": 4, "velocity": 90}, {"time": 2105, "pitch": 59, "duration": 3, "velocity": 88}, {"time": 2109, "pitch": 49, "duration": 20, "velocity": 90}, {"time": 2109, "pitch": 56, "duration": 1, "velocity": 74}, {"time": 2109, "pitch": 64, "duration": 9, "velocity": 86}, {"time": 2113, "pitch": 52, "duration": 15, "velocity": 87}, {"time": 2117, "pitch": 56, "duration": 3, "velocity": 91}, {"time": 2121, "pitch": 56, "duration": 9, "velocity": 89}, {"time": 2121, "pitch": 61, "duration": 12, "velocity": 87}, {"time": 2133, "pitch": 40, "duration": 19, "velocity": 84}, {"time": 2133, "pitch": 59, "duration": 7, "velocity": 86}, {"time": 2137, "pitch": 47, "duration": 15, "velocity": 84}, {"time": 2141, "pitch": 52, "duration": 5, "velocity": 89}, {"time": 2145, "pitch": 59, "duration": 5, "velocity": 90}, {"time": 2149, "pitch": 56, "duration": 5, "velocity": 87}, {"time": 2153, "pitch": 52, "duration": 2, "velocity": 88}, {"time": 2157, "pitch": 42, "duration": 17, "velocity": 88}, {"time": 2157, "pitch": 54, "duration": 10, "velocity": 88}, {"time": 2157, "pitch": 58, "duration": 10, "velocity": 87}, {"time": 2161, "pitch": 49, "duration": 12, "velocity": 84}, {"time": 2165, "pitch": 61, "duration": 5, "velocity": 87}, {"time": 2169, "pitch": 66, "duration": 5, "velocity": 91}, {"time": 2173, "pitch": 61, "duration": 4, "velocity": 89}, {"time": 2177, "pitch": 54, "duration": 2, "velocity": 88}, {"time": 2181, "pitch": 39, "duration": 21, "velocity": 91}, {"time": 2181, "pitch": 58, "duration": 4, "velocity": 91}, {"time": 2181, "pitch": 63, "duration": 5, "velocity": 88}, {"time": 2185, "pitch": 46, "duration": 10, "velocity": 88}, {"time": 2189, "pitch": 58, "duration": 3, "velocity": 88}, {"time": 2193, "pitch": 58, "duration": 2, "velocity": 93}, {"time": 2193, "pitch": 67, "duration": 3, "velocity": 89}, {"time": 2197, "pitch": 46, "duration": 6, "velocity": 88}, {"time": 2201, "pitch": 63, "duration": 3, "velocity": 93}, {"time": 2201, "pitch": 70, "duration": 3, "velocity": 87}, {"time": 2205, "pitch": 39, "duration": 21, "velocity": 94}, {"time": 2205, "pitch": 63, "duration": 5, "velocity": 94}, {"time": 2205, "pitch": 70, "duration": 6, "velocity": 92}, {"time": 2209, "pitch": 46, "duration": 10, "velocity": 86}, {"time": 2213, "pitch": 63, "duration": 2, "velocity": 74}, {"time": 2213, "pitch": 67, "duration": 2, "velocity": 79}, {"time": 2213, "pitch": 70, "duration": 2, "velocity": 70}, {"time": 2213, "pitch": 75, "duration": 3, "velocity": 81}, {"time": 2217, "pitch": 63, "duration": 4, "velocity": 101}, {"time": 2217, "pitch": 67, "duration": 5, "velocity": 108}, {"time": 2217, "pitch": 70, "duration": 10, "velocity": 96}, {"time": 2217, "pitch": 75, "duration": 7, "velocity": 92}, {"time": 2221, "pitch": 46, "duration": 5, "velocity": 88}, {"time": 2225, "pitch": 63, "duration": 3, "velocity": 94}, {"time": 2229, "pitch": 39, "duration": 11, "velocity": 93}, {"time": 2229, "pitch": 63, "duration": 10, "velocity": 96}, {"time": 2229, "pitch": 67, "duration": 10, "velocity": 96}, {"time": 2229, "pitch": 70, "duration": 9, "velocity": 91}, {"time": 2241, "pitch": 39, "duration": 5, "velocity": 93}, {"time": 2241, "pitch": 63, "duration": 5, "velocity": 91}, {"time": 2241, "pitch": 67, "duration": 6, "velocity": 89}, {"time": 2241, "pitch": 70, "duration": 9, "velocity": 89}, {"time": 2245, "pitch": 46, "duration": 2, "velocity": 94}, {"time": 2249, "pitch": 63, "duration": 3, "velocity": 96}, {"time": 2253, "pitch": 44, "duration": 18, "velocity": 88}, {"time": 2257, "pitch": 51, "duration": 13, "velocity": 90}, {"time": 2261, "pitch": 63, "duration": 2, "velocity": 96}, {"time": 2265, "pitch": 63, "duration": 2, "velocity": 93}, {"time": 2265, "pitch": 68, "duration": 3, "velocity": 89}, {"time": 2265, "pitch": 71, "duration": 5, "velocity": 90}, {"time": 2269, "pitch": 70, "duration": 5, "velocity": 90}, {"time": 2273, "pitch": 68, "duration": 3, "velocity": 91}, {"time": 2277, "pitch": 40, "duration": 14, "velocity": 88}, {"time": 2277, "pitch": 64, "duration": 4, "velocity": 87}, {"time": 2277, "pitch": 68, "duration": 4, "velocity": 87}, {"time": 2281, "pitch": 47, "duration": 9, "velocity": 81}, {"time": 2285, "pitch": 52, "duration": 3, "velocity": 89}, {"time": 2289, "pitch": 52, "duration": 3, "velocity": 93}, {"time": 2289, "pitch": 56, "duration": 3, "velocity": 90}, {"time": 2289, "pitch": 59, "duration": 5, "velocity": 92}, {"time": 2301, "pitch": 47, "duration": 20, "velocity": 98}, {"time": 2301, "pitch": 54, "duration": 5, "velocity": 89}, {"time": 2301, "pitch": 59, "duration": 9, "velocity": 88}, {"time": 2305, "pitch": 51, "duration": 15, "velocity": 83}, {"time": 2309, "pitch": 54, "duration": 3, "velocity": 89}, {"time": 2313, "pitch": 54, "duration": 3, "velocity": 92}, {"time": 2313, "pitch": 59, "duration": 3, "velocity": 96}, {"time": 2313, "pitch": 63, "duration": 5, "velocity": 98}, {"time": 2317, "pitch": 61, "duration": 5, "velocity": 91}, {"time": 2321, "pitch": 59, "duration": 3, "velocity": 93}, {"time": 2325, "pitch": 47, "duration": 16, "velocity": 91}, {"time": 2325, "pitch": 54, "duration": 3, "velocity": 88}, {"time": 2325, "pitch": 59, "duration": 5, "velocity": 87}, {"time": 2325, "pitch": 63, "duration": 6, "velocity": 88}, {"time": 2329, "pitch": 54, "duration": 5, "velocity": 89}, {"time": 2333, "pitch": 59, "duration": 2, "velocity": 91}, {"time": 2337, "pitch": 54, "duration": 4, "velocity": 92}, {"time": 2337, "pitch": 59, "duration": 6, "velocity": 89}, {"time": 2337, "pitch": 63, "duration": 6, "velocity": 90}, {"time": 2349, "pitch": 37, "duration": 14, "velocity": 91}, {"time": 2349, "pitch": 56, "duration": 5, "velocity": 83}, {"time": 2349, "pitch": 64, "duration": 10, "velocity": 87}, {"time": 2353, "pitch": 44, "duration": 10, "velocity": 83}, {"time": 2357, "pitch": 56, "duration": 5, "velocity": 89}, {"time": 2361, "pitch": 61, "duration": 4, "velocity": 91}, {"time": 2365, "pitch": 56, "duration": 4, "velocity": 87}, {"time": 2369, "pitch": 61, "duration": 2, "velocity": 88}, {"time": 2373, "pitch": 42, "duration": 21, "velocity": 87}, {"time": 2373, "pitch": 54, "duration": 9, "velocity": 88}, {"time": 2373, "pitch": 58, "duration": 9, "velocity": 88}, {"time": 2377, "pitch": 49, "duration": 16, "velocity": 85}, {"time": 2381, "pitch": 61, "duration": 3, "velocity": 87}, {"time": 2385, "pitch": 66, "duration": 5, "velocity": 88}, {"time": 2389, "pitch": 61, "duration": 9, "velocity": 88}, {"time": 2393, "pitch": 54, "duration": 5, "velocity": 90}, {"time": 2397, "pitch": 39, "duration": 22, "velocity": 89}, {"time": 2401, "pitch": 46, "duration": 18, "velocity": 85}, {"time": 2405, "pitch": 49, "duration": 4, "velocity": 79}, {"time": 2409, "pitch": 55, "duration": 4, "velocity": 90}, {"time": 2413, "pitch": 51, "duration": 6, "velocity": 103}, {"time": 2417, "pitch": 58, "duration": 3, "velocity": 88}, {"time": 2421, "pitch": 39, "duration": 16, "velocity": 91}, {"time": 2421, "pitch": 51, "duration": 4, "velocity": 91}, {"time": 2421, "pitch": 55, "duration": 5, "velocity": 87}, {"time": 2421, "pitch": 58, "duration": 5, "velocity": 87}, {"time": 2421, "pitch": 63, "duration": 5, "velocity": 90}, {"time": 2425, "pitch": 46, "duration": 11, "velocity": 87}, {"time": 2429, "pitch": 51, "duration": 2, "velocity": 89}, {"time": 2429, "pitch": 55, "duration": 2, "velocity": 83}, {"time": 2429, "pitch": 63, "duration": 2, "velocity": 87}, {"time": 2433, "pitch": 51, "duration": 3, "velocity": 103}, {"time": 2433, "pitch": 55, "duration": 3, "velocity": 103}, {"time": 2433, "pitch": 63, "duration": 4, "velocity": 98}, {"time": 2437, "pitch": 61, "duration": 5, "velocity": 87}, {"time": 2441, "pitch": 59, "duration": 4, "velocity": 91}, {"time": 2445, "pitch": 44, "duration": 18, "velocity": 90}, {"time": 2445, "pitch": 56, "duration": 5, "velocity": 88}, {"time": 2445, "pitch": 59, "duration": 5, "velocity": 90}, {"time": 2449, "pitch": 51, "duration": 14, "velocity": 88}, {"time": 2453, "pitch": 56, "duration": 3, "velocity": 87}, {"time": 2457, "pitch": 56, "duration": 2, "velocity": 90}, {"time": 2457, "pitch": 59, "duration": 3, "velocity": 93}, {"time": 2457, "pitch": 63, "duration": 4, "velocity": 93}, {"time": 2461, "pitch": 61, "duration": 5, "velocity": 92}, {"time": 2465, "pitch": 59, "duration": 3, "velocity": 91}, {"time": 2469, "pitch": 40, "duration": 19, "velocity": 88}, {"time": 2469, "pitch": 59, "duration": 7, "velocity": 88}, {"time": 2473, "pitch": 47, "duration": 14, "velocity": 84}, {"time": 2477, "pitch": 52, "duration": 6, "velocity": 87}, {"time": 2481, "pitch": 56, "duration": 5, "velocity": 89}, {"time": 2485, "pitch": 59, "duration": 4, "velocity": 96}, {"time": 2489, "pitch": 52, "duration": 1, "velocity": 89}, {"time": 2493, "pitch": 47, "duration": 15, "velocity": 93}, {"time": 2493, "pitch": 54, "duration": 3, "velocity": 89}, {"time": 2493, "pitch": 59, "duration": 5, "velocity": 88}, {"time": 2497, "pitch": 54, "duration": 5, "velocity": 91}, {"time": 2501, "pitch": 59, "duration": 2, "velocity": 88}, {"time": 2505, "pitch": 54, "duration": 2, "velocity": 88}, {"time": 2505, "pitch": 59, "duration": 2, "velocity": 92}, {"time": 2505, "pitch": 63, "duration": 5, "velocity": 93}, {"time": 2509, "pitch": 59, "duration": 5, "velocity": 87}, {"time": 2513, "pitch": 54, "duration": 4, "velocity": 91}, {"time": 2517, "pitch": 35, "duration": 2, "velocity": 87}, {"time": 2517, "pitch": 54, "duration": 4, "velocity": 87}, {"time": 2517, "pitch": 59, "duration": 5, "velocity": 86}, {"time": 2517, "pitch": 63, "duration": 6, "velocity": 88}, {"time": 2521, "pitch": 47, "duration": 11, "velocity": 83}, {"time": 2525, "pitch": 54, "duration": 6, "velocity": 89}, {"time": 2529, "pitch": 59, "duration": 2, "velocity": 87}, {"time": 2529, "pitch": 63, "duration": 5, "velocity": 92}, {"time": 2529, "pitch": 66, "duration": 7, "velocity": 88}, {"time": 2533, "pitch": 59, "duration": 5, "velocity": 89}, {"time": 2537, "pitch": 63, "duration": 4, "velocity": 89}, {"time": 2541, "pitch": 37, "duration": 2, "velocity": 87}, {"time": 2541, "pitch": 61, "duration": 9, "velocity": 87}, {"time": 2541, "pitch": 64, "duration": 9, "velocity": 87}, {"time": 2545, "pitch": 49, "duration": 12, "velocity": 80}, {"time": 2549, "pitch": 56, "duration": 8, "velocity": 87}, {"time": 2553, "pitch": 61, "duration": 5, "velocity": 91}, {"time": 2557, "pitch": 64, "duration": 7, "velocity": 98}, {"time": 2561, "pitch": 66, "duration": 12, "velocity": 72}, {"time": 2565, "pitch": 42, "duration": 18, "velocity": 88}, {"time": 2569, "pitch": 49, "duration": 10, "velocity": 86}, {"time": 2573, "pitch": 61, "duration": 3, "velocity": 92}, {"time": 2577, "pitch": 61, "duration": 7, "velocity": 93}, {"time": 2577, "pitch": 66, "duration": 8, "velocity": 92}, {"time": 2581, "pitch": 49, "duration": 3, "velocity": 86}, {"time": 2585, "pitch": 42, "duration": 2, "velocity": 83}, {"time": 2589, "pitch": 39, "duration": 3, "velocity": 91}, {"time": 2589, "pitch": 58, "duration": 5, "velocity": 87}, {"time": 2589, "pitch": 63, "duration": 5, "velocity": 89}, {"time": 2601, "pitch": 44, "duration": 21, "velocity": 88}, {"time": 2601, "pitch": 56, "duration": 5, "velocity": 87}, {"time": 2601, "pitch": 59, "duration": 8, "velocity": 87}, {"time": 2605, "pitch": 51, "duration": 10, "velocity": 80}, {"time": 2609, "pitch": 56, "duration": 3, "velocity": 88}, {"time": 2613, "pitch": 56, "duration": 5, "velocity": 89}, {"time": 2613, "pitch": 63, "duration": 5, "velocity": 91}, {"time": 2617, "pitch": 51, "duration": 6, "velocity": 88}, {"time": 2621, "pitch": 56, "duration": 3, "velocity": 90}, {"time": 2625, "pitch": 44, "duration": 24, "velocity": 90}, {"time": 2625, "pitch": 56, "duration": 5, "velocity": 91}, {"time": 2625, "pitch": 59, "duration": 9, "velocity": 93}, {"time": 2629, "pitch": 51, "duration": 19, "velocity": 81}, {"time": 2633, "pitch": 56, "duration": 2, "velocity": 84}, {"time": 2637, "pitch": 56, "duration": 11, "velocity": 80}, {"time": 2637, "pitch": 59, "duration": 11, "velocity": 83}, {"time": 2649, "pitch": 44, "duration": 18, "velocity": 88}, {"time": 2653, "pitch": 51, "duration": 13, "velocity": 90}, {"time": 2657, "pitch": 63, "duration": 2, "velocity": 96}, {"time": 2661, "pitch": 63, "duration": 2, "velocity": 93}, {"time": 2661, "pitch": 68, "duration": 3, "velocity": 89}, {"time": 2661, "pitch": 71, "duration": 5, "velocity": 90}, {"time": 2665, "pitch": 70, "duration": 5, "velocity": 90}, {"time": 2669, "pitch": 68, "duration": 3, "velocity": 91}, {"time": 2673, "pitch": 40, "duration": 14, "velocity": 88}, {"time": 2673, "pitch": 64, "duration": 4, "velocity": 87}, {"time": 2673, "pitch": 68, "duration": 4, "velocity": 87}, {"time": 2677, "pitch": 47, "duration": 9, "velocity": 81}, {"time": 2681, "pitch": 52, "duration": 3, "velocity": 89}, {"time": 2685, "pitch": 52, "duration": 3, "velocity": 93}, {"time": 2685, "pitch": 56, "duration": 3, "velocity": 90}, {"time": 2685, "pitch": 59, "duration": 5, "velocity": 92}, {"time": 2697, "pitch": 47, "duration": 20, "velocity": 98}, {"time": 2697, "pitch": 54, "duration": 5, "velocity": 89}, {"time": 2697, "pitch": 59, "duration": 9, "velocity": 88}, {"time": 2701, "pitch": 51, "duration": 15, "velocity": 83}, {"time": 2705, "pitch": 54, "duration": 3, "velocity": 89}, {"time": 2709, "pitch": 54, "duration": 3, "velocity": 92}, {"time": 2709, "pitch": 59, "duration": 3, "velocity": 96}, {"time": 2709, "pitch": 63, "duration": 5, "velocity": 98}, {"time": 2713, "pitch": 61, "duration": 5, "velocity": 91}, {"time": 2717, "pitch": 59, "duration": 3, "velocity": 93}, {"time": 2721, "pitch": 47, "duration": 16, "velocity": 91}, {"time": 2721, "pitch": 54, "duration": 3, "velocity": 88}, {"time": 2721, "pitch": 59, "duration": 5, "velocity": 87}, {"time": 2721, "pitch": 63, "duration": 6, "velocity": 88}, {"time": 2725, "pitch": 54, "duration": 5, "velocity": 89}, {"time": 2729, "pitch": 59, "duration": 2, "velocity": 91}, {"time": 2733, "pitch": 54, "duration": 4, "velocity": 92}, {"time": 2733, "pitch": 59, "duration": 6, "velocity": 89}, {"time": 2733, "pitch": 63, "duration": 6, "velocity": 90}, {"time": 2745, "pitch": 37, "duration": 14, "velocity": 91}, {"time": 2745, "pitch": 56, "duration": 5, "velocity": 83}, {"time": 2745, "pitch": 64, "duration": 10, "velocity": 87}, {"time": 2749, "pitch": 44, "duration": 10, "velocity": 83}, {"time": 2753, "pitch": 56, "duration": 5, "velocity": 89}, {"time": 2757, "pitch": 61, "duration": 4, "velocity": 91}, {"time": 2761, "pitch": 56, "duration": 4, "velocity": 87}, {"time": 2765, "pitch": 61, "duration": 2, "velocity": 88}, {"time": 2769, "pitch": 42, "duration": 21, "velocity": 87}, {"time": 2769, "pitch": 54, "duration": 9, "velocity": 88}, {"time": 2769, "pitch": 58, "duration": 9, "velocity": 88}, {"time": 2773, "pitch": 49, "duration": 16, "velocity": 85}, {"time": 2777, "pitch": 61, "duration": 3, "velocity": 87}, {"time": 2781, "pitch": 66, "duration": 5, "velocity": 88}, {"time": 2785, "pitch": 61, "duration": 9, "velocity": 88}, {"time": 2789, "pitch": 54, "duration": 5, "velocity": 90}, {"time": 2793, "pitch": 39, "duration": 22, "velocity": 89}, {"time": 2797, "pitch": 46, "duration": 18, "velocity": 85}, {"time": 2801, "pitch": 49, "duration": 4, "velocity": 79}, {"time": 2805, "pitch": 55, "duration": 4, "velocity": 90}, {"time": 2809, "pitch": 51, "duration": 6, "velocity": 103}, {"time": 2813, "pitch": 58, "duration": 3, "velocity": 88}, {"time": 2817, "pitch": 39, "duration": 16, "velocity": 91}, {"time": 2817, "pitch": 51, "duration": 4, "velocity": 91}, {"time": 2817, "pitch": 55, "duration": 5, "velocity": 87}, {"time": 2817, "pitch": 58, "duration": 5, "velocity": 87}, {"time": 2817, "pitch": 63, "duration": 5, "velocity": 90}, {"time": 2821, "pitch": 46, "duration": 11, "velocity": 87}, {"time": 2825, "pitch": 51, "duration": 2, "velocity": 89}, {"time": 2825, "pitch": 55, "duration": 2, "velocity": 83}, {"time": 2825, "pitch": 63, "duration": 2, "velocity": 87}, {"time": 2829, "pitch": 51, "duration": 3, "velocity": 103}, {"time": 2829, "pitch": 55, "duration": 3, "velocity": 103}, {"time": 2829, "pitch": 63, "duration": 4, "velocity": 98}, {"time": 2833, "pitch": 61, "duration": 5, "velocity": 87}, {"time": 2837, "pitch": 59, "duration": 4, "velocity": 91}, {"time": 2841, "pitch": 44, "duration": 18, "velocity": 90}, {"time": 2841, "pitch": 56, "duration": 5, "velocity": 88}, {"time": 2841, "pitch": 59, "duration": 5, "velocity": 90}, {"time": 2845, "pitch": 51, "duration": 14, "velocity": 88}, {"time": 2849, "pitch": 56, "duration": 3, "velocity": 87}, {"time": 2853, "pitch": 56, "duration": 2, "velocity": 90}, {"time": 2853, "pitch": 59, "duration": 3, "velocity": 93}, {"time": 2853, "pitch": 63, "duration": 4, "velocity": 93}, {"time": 2857, "pitch": 61, "duration": 5, "velocity": 92}, {"time": 2861, "pitch": 59, "duration": 3, "velocity": 91}, {"time": 2865, "pitch": 40, "duration": 19, "velocity": 88}, {"time": 2865, "pitch": 59, "duration": 7, "velocity": 88}, {"time": 2869, "pitch": 47, "duration": 14, "velocity": 84}, {"time": 2873, "pitch": 52, "duration": 6, "velocity": 87}, {"time": 2877, "pitch": 56, "duration": 5, "velocity": 89}, {"time": 2881, "pitch": 59, "duration": 4, "velocity": 96}, {"time": 2885, "pitch": 52, "duration": 1, "velocity": 89}, {"time": 2889, "pitch": 47, "duration": 15, "velocity": 93}, {"time": 2889, "pitch": 54, "duration": 3, "velocity": 89}, {"time": 2889, "pitch": 59, "duration": 5, "velocity": 88}, {"time": 2893, "pitch": 54, "duration": 5, "velocity": 91}, {"time": 2897, "pitch": 59, "duration": 2, "velocity": 88}, {"time": 2901, "pitch": 54, "duration": 2, "velocity": 88}, {"time": 2901, "pitch": 59, "duration": 2, "velocity": 92}, {"time": 2901, "pitch": 63, "duration": 5, "velocity": 93}, {"time": 2905, "pitch": 59, "duration": 5, "velocity": 87}, {"time": 2909, "pitch": 54, "duration": 4, "velocity": 91}, {"time": 2913, "pitch": 35, "duration": 2, "velocity": 87}, {"time": 2913, "pitch": 54, "duration": 4, "velocity": 87}, {"time": 2913, "pitch": 59, "duration": 5, "velocity": 86}, {"time": 2913, "pitch": 63, "duration": 6, "velocity": 88}, {"time": 2917, "pitch": 47, "duration": 11, "velocity": 83}, {"time": 2921, "pitch": 54, "duration": 6, "velocity": 89}, {"time": 2925, "pitch": 59, "duration": 2, "velocity": 87}, {"time": 2925, "pitch": 63, "duration": 5, "velocity": 92}, {"time": 2925, "pitch": 66, "duration": 7, "velocity": 88}, {"time": 2929, "pitch": 59, "duration": 5, "velocity": 89}, {"time": 2933, "pitch": 63, "duration": 4, "velocity": 89}, {"time": 2937, "pitch": 37, "duration": 2, "velocity": 87}, {"time": 2937, "pitch": 61, "duration": 9, "velocity": 87}, {"time": 2937, "pitch": 64, "duration": 9, "velocity": 87}, {"time": 2941, "pitch": 49, "duration": 12, "velocity": 80}, {"time": 2945, "pitch": 56, "duration": 8, "velocity": 87}, {"time": 2949, "pitch": 61, "duration": 5, "velocity": 91}, {"time": 2953, "pitch": 64, "duration": 7, "velocity": 98}, {"time": 2957, "pitch": 66, "duration": 12, "velocity": 72}, {"time": 2961, "pitch": 42, "duration": 18, "velocity": 88}, {"time": 2965, "pitch": 49, "duration": 10, "velocity": 86}, {"time": 2969, "pitch": 61, "duration": 3, "velocity": 92}, {"time": 2973, "pitch": 61, "duration": 7, "velocity": 93}, {"time": 2973, "pitch": 66, "duration": 8, "velocity": 92}, {"time": 2977, "pitch": 49, "duration": 3, "velocity": 86}, {"time": 2981, "pitch": 42, "duration": 2, "velocity": 83}, {"time": 2985, "pitch": 39, "duration": 3, "velocity": 91}, {"time": 2985, "pitch": 58, "duration": 5, "velocity": 87}, {"time": 2985, "pitch": 63, "duration": 5, "velocity": 89}, {"time": 2997, "pitch": 44, "duration": 21, "velocity": 88}, {"time": 2997, "pitch": 56, "duration": 5, "velocity": 87}, {"time": 2997, "pitch": 59, "duration": 8, "velocity": 87}, {"time": 3001, "pitch": 51, "duration": 10, "velocity": 80}, {"time": 3005, "pitch": 56, "duration": 3, "velocity": 88}, {"time": 3009, "pitch": 56, "duration": 5, "velocity": 89}, {"time": 3009, "pitch": 63, "duration": 5, "velocity": 91}, {"time": 3013, "pitch": 51, "duration": 6, "velocity": 88}, {"time": 3017, "pitch": 56, "duration": 3, "velocity": 90}, {"time": 3020, "pitch": 56, "duration": 26, "velocity": 67}, {"time": 3021, "pitch": 44, "duration": 26, "velocity": 88}, {"time": 3021, "pitch": 59, "duration": 23, "velocity": 81}, {"time": 3023, "pitch": 63, "duration": 24, "velocity": 75}, {"time": 3023, "pitch": 68, "duration": 22, "velocity": 74}, {"time": 3047, "pitch": 49, "duration": 15, "velocity": 89}, {"time": 3049, "pitch": 56, "duration": 25, "velocity": 83}, {"time": 3050, "pitch": 61, "duration": 24, "velocity": 84}, {"time": 3052, "pitch": 64, "duration": 31, "velocity": 80}, {"time": 3075, "pitch": 42, "duration": 20, "velocity": 82}, {"time": 3079, "pitch": 49, "duration": 15, "velocity": 80}, {"time": 3082, "pitch": 54, "duration": 22, "velocity": 83}, {"time": 3084, "pitch": 61, "duration": 20, "velocity": 79}, {"time": 3088, "pitch": 66, "duration": 15, "velocity": 71}, {"time": 3108, "pitch": 39, "duration": 53, "velocity": 91}, {"time": 3112, "pitch": 46, "duration": 22, "velocity": 76}, {"time": 3115, "pitch": 51, "duration": 20, "velocity": 79}, {"time": 3120, "pitch": 56, "duration": 8, "velocity": 45}, {"time": 3128, "pitch": 58, "duration": 9, "velocity": 75}, {"time": 3176, "pitch": 44, "duration": 49, "velocity": 84}, {"time": 3184, "pitch": 51, "duration": 40, "velocity": 79}, {"time": 3187, "pitch": 56, "duration": 6, "velocity": 81}, {"time": 3192, "pitch": 63, "duration": 9, "velocity": 83}, {"time": 3196, "pitch": 56, "duration": 37, "velocity": 72}, {"time": 3200, "pitch": 61, "duration": 33, "velocity": 70}, {"time": 3207, "pitch": 63, "duration": 27, "velocity": 71}, {"time": 3217, "pitch": 68, "duration": 17, "velocity": 61}, {"time": 3234, "pitch": 39, "duration": 52, "velocity": 91}, {"time": 3238, "pitch": 46, "duration": 48, "velocity": 76}, {"time": 3241, "pitch": 51, "duration": 6, "velocity": 88}, {"time": 3243, "pitch": 54, "duration": 4, "velocity": 83}, {"time": 3246, "pitch": 58, "duration": 7, "velocity": 79}, {"time": 3249, "pitch": 51, "duration": 4, "velocity": 87}, {"time": 3253, "pitch": 63, "duration": 3, "velocity": 91}, {"time": 3255, "pitch": 51, "duration": 2, "velocity": 93}, {"time": 3259, "pitch": 66, "duration": 5, "velocity": 73}, {"time": 3263, "pitch": 63, "duration": 2, "velocity": 69}, {"time": 3267, "pitch": 66, "duration": 3, "velocity": 81}, {"time": 3267, "pitch": 70, "duration": 4, "velocity": 87}, {"time": 3271, "pitch": 63, "duration": 4, "velocity": 86}, {"time": 3276, "pitch": 63, "duration": 2, "velocity": 79}, {"time": 3277, "pitch": 66, "duration": 1, "velocity": 73}, {"time": 3278, "pitch": 70, "duration": 1, "velocity": 73}, {"time": 3278, "pitch": 75, "duration": 2, "velocity": 86}, {"time": 3298, "pitch": 44, "duration": 83, "velocity": 91}, {"time": 3302, "pitch": 51, "duration": 79, "velocity": 84}, {"time": 3305, "pitch": 56, "duration": 2, "velocity": 76}, {"time": 3307, "pitch": 58, "duration": 2, "velocity": 83}, {"time": 3310, "pitch": 59, "duration": 3, "velocity": 85}, {"time": 3312, "pitch": 63, "duration": 3, "velocity": 80}, {"time": 3315, "pitch": 68, "duration": 2, "velocity": 81}, {"time": 3318, "pitch": 70, "duration": 1, "velocity": 75}, {"time": 3322, "pitch": 71, "duration": 4, "velocity": 60}, {"time": 3325, "pitch": 75, "duration": 5, "velocity": 85}, {"time": 3329, "pitch": 78, "duration": 2, "velocity": 78}, {"time": 3334, "pitch": 82, "duration": 1, "velocity": 88}, {"time": 3338, "pitch": 80, "duration": 2, "velocity": 76}, {"time": 3343, "pitch": 85, "duration": 1, "velocity": 87}, {"time": 3350, "pitch": 90, "duration": 3, "velocity": 67}, {"time": 3356, "pitch": 87, "duration": 2, "velocity": 74}, {"time": 3367, "pitch": 87, "duration": 1, "velocity": 81}, {"time": 3368, "pitch": 94, "duration": 1, "velocity": 83}], "annotations": [{"time": 40, "annotation": {"number": 64, "value": 127}, "group": "control_change"}, {"time": 81, "annotation": {"number": 64, "value": 0}, "group": "control_change"}, {"time": 86, "annotation": {"number": 64, "value": 127}, "group": "control_change"}, {"time": 129, "annotation": {"number": 64, "value": 0}, "group": "control_change"}, {"time": 133, "annotation": {"number": 64, "value": 127}, "group": "control_change"}, {"time": 177, "annotation": {"number": 64, "value": 0}, "group": "control_change"}, {"time": 182, "annotation": {"number": 64, "value": 127}, "group": "control_change"}, {"time": 226, "annotation": {"number": 64, "value": 0}, "group": "control_change"}, {"time": 229, "annotation": {"number": 64, "value": 127}, "group": "control_change"}, {"time": 274, "annotation": {"number": 64, "value": 0}, "group": "control_change"}, {"time": 279, "annotation": {"number": 64, "value": 127}, "group": "control_change"}, {"time": 280, "annotation": {"number": 64, "value": 0}, "group": "control_change"}, {"time": 280, "annotation": {"number": 64, "value": 127}, "group": "control_change"}, {"time": 320, "annotation": {"number": 64, "value": 0}, "group": "control_change"}, {"time": 327, "annotation": {"number": 64, "value": 127}, "group": "control_change"}, {"time": 342, "annotation": {"number": 64, "value": 0}, "group": "control_change"}, {"time": 346, "annotation": {"number": 64, "value": 127}, "group": "control_change"}, {"time": 367, "annotation": {"number": 64, "value": 0}, "group": "control_change"}, {"time": 369, "annotation": {"number": 64, "value": 127}, "group": "control_change"}, {"time": 393, "annotation": {"number": 64, "value": 0}, "group": "control_change"}, {"time": 406, "annotation": {"number": 64, "value": 127}, "group": "control_change"}, {"time": 417, "annotation": {"number": 64, "value": 0}, "group": "control_change"}, {"time": 420, "annotation": {"number": 64, "value": 127}, "group": "control_change"}, {"time": 442, "annotation": {"number": 64, "value": 0}, "group": "control_change"}, {"time": 449, "annotation": {"number": 64, "value": 127}, "group": "control_change"}, {"time": 466, "annotation": {"number": 64, "value": 0}, "group": "control_change"}, {"time": 472, "annotation": {"number": 64, "value": 127}, "group": "control_change"}, {"time": 490, "annotation": {"number": 64, "value": 0}, "group": "control_change"}, {"time": 496, "annotation": {"number": 64, "value": 127}, "group": "control_change"}, {"time": 512, "annotation": {"number": 64, "value": 0}, "group": "control_change"}, {"time": 517, "annotation": {"number": 64, "value": 127}, "group": "control_change"}, {"time": 536, "annotation": {"number": 64, "value": 0}, "group": "control_change"}, {"time": 541, "annotation": {"number": 64, "value": 127}, "group": "control_change"}, {"time": 561, "annotation": {"number": 64, "value": 0}, "group": "control_change"}, {"time": 564, "annotation": {"number": 64, "value": 127}, "group": "control_change"}, {"time": 584, "annotation": {"number": 64, "value": 0}, "group": "control_change"}, {"time": 588, "annotation": {"number": 64, "value": 127}, "group": "control_change"}, {"time": 608, "annotation": {"number": 64, "value": 0}, "group": "control_change"}, {"time": 611, "annotation": {"number": 64, "value": 127}, "group": "control_change"}, {"time": 633, "annotation": {"number": 64, "value": 0}, "group": "control_change"}, {"time": 635, "annotation": {"number": 64, "value": 127}, "group": "control_change"}, {"time": 657, "annotation": {"number": 64, "value": 0}, "group": "control_change"}, {"time": 660, "annotation": {"number": 64, "value": 127}, "group": "control_change"}, {"time": 680, "annotation": {"number": 64, "value": 0}, "group": "control_change"}, {"time": 682, "annotation": {"number": 64, "value": 127}, "group": "control_change"}, {"time": 705, "annotation": {"number": 64, "value": 0}, "group": "control_change"}, {"time": 708, "annotation": {"number": 64, "value": 127}, "group": "control_change"}, {"time": 728, "annotation": {"number": 64, "value": 0}, "group": "control_change"}, {"time": 730, "annotation": {"number": 64, "value": 127}, "group": "control_change"}, {"time": 753, "annotation": {"number": 64, "value": 0}, "group": "control_change"}, {"time": 759, "annotation": {"number": 64, "value": 127}, "group": "control_change"}, {"time": 777, "annotation": {"number": 64, "value": 0}, "group": "control_change"}, {"time": 779, "annotation": {"number": 64, "value": 127}, "group": "control_change"}, {"time": 800, "annotation": {"number": 64, "value": 0}, "group": "control_change"}, {"time": 804, "annotation": {"number": 64, "value": 127}, "group": "control_change"}, {"time": 825, "annotation": {"number": 64, "value": 0}, "group": "control_change"}, {"time": 831, "annotation": {"number": 64, "value": 127}, "group": "control_change"}, {"time": 850, "annotation": {"number": 64, "value": 0}, "group": "control_change"}, {"time": 852, "annotation": {"number": 64, "value": 127}, "group": "control_change"}, {"time": 873, "annotation": {"number": 64, "value": 0}, "group": "control_change"}, {"time": 877, "annotation": {"number": 64, "value": 127}, "group": "control_change"}, {"time": 897, "annotation": {"number": 64, "value": 0}, "group": "control_change"}, {"time": 899, "annotation": {"number": 64, "value": 127}, "group": "control_change"}, {"time": 921, "annotation": {"number": 64, "value": 0}, "group": "control_change"}, {"time": 924, "annotation": {"number": 64, "value": 127}, "group": "control_change"}, {"time": 944, "annotation": {"number": 64, "value": 0}, "group": "control_change"}, {"time": 949, "annotation": {"number": 64, "value": 127}, "group": "control_change"}, {"time": 968, "annotation": {"number": 64, "value": 0}, "group": "control_change"}, {"time": 972, "annotation": {"number": 64, "value": 127}, "group": "control_change"}, {"time": 1017, "annotation": {"number": 64, "value": 0}, "group": "control_change"}, {"time": 1019, "annotation": {"number": 64, "value": 127}, "group": "control_change"}, {"time": 1042, "annotation": {"number": 64, "value": 0}, "group": "control_change"}, {"time": 1045, "annotation": {"number": 64, "value": 127}, "group": "control_change"}, {"time": 1064, "annotation": {"number": 64, "value": 0}, "group": "control_change"}, {"time": 1067, "annotation": {"number": 64, "value": 127}, "group": "control_change"}, {"time": 1088, "annotation": {"number": 64, "value": 0}, "group": "control_change"}, {"time": 1091, "annotation": {"number": 64, "value": 127}, "group": "control_change"}, {"time": 1111, "annotation": {"number": 64, "value": 0}, "group": "control_change"}, {"time": 1116, "annotation": {"number": 64, "value": 127}, "group": "control_change"}, {"time": 1136, "annotation": {"number": 64, "value": 0}, "group": "control_change"}, {"time": 1141, "annotation": {"number": 64, "value": 127}, "group": "control_change"}, {"time": 1161, "annotation": {"number": 64, "value": 0}, "group": "control_change"}, {"time": 1166, "annotation": {"number": 64, "value": 127}, "group": "control_change"}, {"time": 1183, "annotation": {"number": 64, "value": 0}, "group": "control_change"}, {"time": 1186, "annotation": {"number": 64, "value": 127}, "group": "control_change"}, {"time": 1208, "annotation": {"number": 64, "value": 0}, "group": "control_change"}, {"time": 1210, "annotation": {"number": 64, "value": 127}, "group": "control_change"}, {"time": 1232, "annotation": {"number": 64, "value": 0}, "group": "control_change"}, {"time": 1237, "annotation": {"number": 64, "value": 127}, "group": "control_change"}, {"time": 1255, "annotation": {"number": 64, "value": 0}, "group": "control_change"}, {"time": 1260, "annotation": {"number": 64, "value": 127}, "group": "control_change"}, {"time": 1281, "annotation": {"number": 64, "value": 0}, "group": "control_change"}, {"time": 1285, "annotation": {"number": 64, "value": 127}, "group": "control_change"}, {"time": 1304, "annotation": {"number": 64, "value": 0}, "group": "control_change"}, {"time": 1306, "annotation": {"number": 64, "value": 127}, "group": "control_change"}, {"time": 1328, "annotation": {"number": 64, "value": 0}, "group": "control_change"}, {"time": 1330, "annotation": {"number": 64, "value": 127}, "group": "control_change"}, {"time": 1353, "annotation": {"number": 64, "value": 0}, "group": "control_change"}, {"time": 1355, "annotation": {"number": 64, "value": 127}, "group": "control_change"}, {"time": 1376, "annotation": {"number": 64, "value": 0}, "group": "control_change"}, {"time": 1378, "annotation": {"number": 64, "value": 127}, "group": "control_change"}, {"time": 1388, "annotation": {"number": 64, "value": 0}, "group": "control_change"}, {"time": 1394, "annotation": {"number": 64, "value": 127}, "group": "control_change"}, {"time": 1412, "annotation": {"number": 64, "value": 0}, "group": "control_change"}, {"time": 1414, "annotation": {"number": 64, "value": 127}, "group": "control_change"}, {"time": 1434, "annotation": {"number": 64, "value": 0}, "group": "control_change"}, {"time": 1444, "annotation": {"number": 64, "value": 127}, "group": "control_change"}, {"time": 1485, "annotation": {"number": 64, "value": 0}, "group": "control_change"}, {"time": 1490, "annotation": {"number": 64, "value": 127}, "group": "control_change"}, {"time": 1533, "annotation": {"number": 64, "value": 0}, "group": "control_change"}, {"time": 1537, "annotation": {"number": 64, "value": 127}, "group": "control_change"}, {"time": 1581, "annotation": {"number": 64, "value": 0}, "group": "control_change"}, {"time": 1586, "annotation": {"number": 64, "value": 127}, "group": "control_change"}, {"time": 1630, "annotation": {"number": 64, "value": 0}, "group": "control_change"}, {"time": 1633, "annotation": {"number": 64, "value": 127}, "group": "control_change"}, {"time": 1678, "annotation": {"number": 64, "value": 0}, "group": "control_change"}, {"time": 1683, "annotation": {"number": 64, "value": 127}, "group": "control_change"}, {"time": 1684, "annotation": {"number": 64, "value": 0}, "group": "control_change"}, {"time": 1684, "annotation": {"number": 64, "value": 127}, "group": "control_change"}, {"time": 1724, "annotation": {"number": 64, "value": 0}, "group": "control_change"}, {"time": 1731, "annotation": {"number": 64, "value": 127}, "group": "control_change"}, {"time": 1746, "annotation": {"number": 64, "value": 0}, "group": "control_change"}, {"time": 1750, "annotation": {"number": 64, "value": 127}, "group": "control_change"}, {"time": 1771, "annotation": {"number": 64, "value": 0}, "group": "control_change"}, {"time": 1773, "annotation": {"number": 64, "value": 127}, "group": "control_change"}, {"time": 1797, "annotation": {"number": 64, "value": 0}, "group": "control_change"}, {"time": 1810, "annotation": {"number": 64, "value": 127}, "group": "control_change"}, {"time": 1821, "annotation": {"number": 64, "value": 0}, "group": "control_change"}, {"time": 1823, "annotation": {"number": 64, "value": 127}, "group": "control_change"}, {"time": 1845, "annotation": {"number": 64, "value": 0}, "group": "control_change"}, {"time": 1847, "annotation": {"number": 64, "value": 127}, "group": "control_change"}, {"time": 1869, "annotation": {"number": 64, "value": 0}, "group": "control_change"}, {"time": 1872, "annotation": {"number": 64, "value": 127}, "group": "control_change"}, {"time": 1892, "annotation": {"number": 64, "value": 0}, "group": "control_change"}, {"time": 1894, "annotation": {"number": 64, "value": 127}, "group": "control_change"}, {"time": 1917, "annotation": {"number": 64, "value": 0}, "group": "control_change"}, {"time": 1920, "annotation": {"number": 64, "value": 127}, "group": "control_change"}, {"time": 1940, "annotation": {"number": 64, "value": 0}, "group": "control_change"}, {"time": 1942, "annotation": {"number": 64, "value": 127}, "group": "control_change"}, {"time": 1965, "annotation": {"number": 64, "value": 0}, "group": "control_change"}, {"time": 1971, "annotation": {"number": 64, "value": 127}, "group": "control_change"}, {"time": 1989, "annotation": {"number": 64, "value": 0}, "group": "control_change"}, {"time": 1991, "annotation": {"number": 64, "value": 127}, "group": "control_change"}, {"time": 2012, "annotation": {"number": 64, "value": 0}, "group": "control_change"}, {"time": 2016, "annotation": {"number": 64, "value": 127}, "group": "control_change"}, {"time": 2037, "annotation": {"number": 64, "value": 0}, "group": "control_change"}, {"time": 2043, "annotation": {"number": 64, "value": 127}, "group": "control_change"}, {"time": 2062, "annotation": {"number": 64, "value": 0}, "group": "control_change"}, {"time": 2064, "annotation": {"number": 64, "value": 127}, "group": "control_change"}, {"time": 2085, "annotation": {"number": 64, "value": 0}, "group": "control_change"}, {"time": 2089, "annotation": {"number": 64, "value": 127}, "group": "control_change"}, {"time": 2109, "annotation": {"number": 64, "value": 0}, "group": "control_change"}, {"time": 2111, "annotation": {"number": 64, "value": 127}, "group": "control_change"}, {"time": 2133, "annotation": {"number": 64, "value": 0}, "group": "control_change"}, {"time": 2136, "annotation": {"number": 64, "value": 127}, "group": "control_change"}, {"time": 2156, "annotation": {"number": 64, "value": 0}, "group": "control_change"}, {"time": 2161, "annotation": {"number": 64, "value": 127}, "group": "control_change"}, {"time": 2180, "annotation": {"number": 64, "value": 0}, "group": "control_change"}, {"time": 2184, "annotation": {"number": 64, "value": 127}, "group": "control_change"}, {"time": 2229, "annotation": {"number": 64, "value": 0}, "group": "control_change"}, {"time": 2231, "annotation": {"number": 64, "value": 127}, "group": "control_change"}, {"time": 2254, "annotation": {"number": 64, "value": 0}, "group": "control_change"}, {"time": 2257, "annotation": {"number": 64, "value": 127}, "group": "control_change"}, {"time": 2276, "annotation": {"number": 64, "value": 0}, "group": "control_change"}, {"time": 2279, "annotation": {"number": 64, "value": 127}, "group": "control_change"}, {"time": 2300, "annotation": {"number": 64, "value": 0}, "group": "control_change"}, {"time": 2303, "annotation": {"number": 64, "value": 127}, "group": "control_change"}, {"time": 2323, "annotation": {"number": 64, "value": 0}, "group": "control_change"}, {"time": 2328, "annotation": {"number": 64, "value": 127}, "group": "control_change"}, {"time": 2348, "annotation": {"number": 64, "value": 0}, "group": "control_change"}, {"time": 2353, "annotation": {"number": 64, "value": 127}, "group": "control_change"}, {"time": 2373, "annotation": {"number": 64, "value": 0}, "group": "control_change"}, {"time": 2378, "annotation": {"number": 64, "value": 127}, "group": "control_change"}, {"time": 2395, "annotation": {"number": 64, "value": 0}, "group": "control_change"}, {"time": 2398, "annotation": {"number": 64, "value": 127}, "group": "control_change"}, {"time": 2420, "annotation": {"number": 64, "value": 0}, "group": "control_change"}, {"time": 2422, "annotation": {"number": 64, "value": 127}, "group": "control_change"}, {"time": 2444, "annotation": {"number": 64, "value": 0}, "group": "control_change"}, {"time": 2449, "annotation": {"number": 64, "value": 127}, "group": "control_change"}, {"time": 2467, "annotation": {"number": 64, "value": 0}, "group": "control_change"}, {"time": 2472, "annotation": {"number": 64, "value": 127}, "group": "control_change"}, {"time": 2493, "annotation": {"number": 64, "value": 0}, "group": "control_change"}, {"time": 2497, "annotation": {"number": 64, "value": 127}, "group": "control_change"}, {"time": 2516, "annotation": {"number": 64, "value": 0}, "group": "control_change"}, {"time": 2518, "annotation": {"number": 64, "value": 127}, "group": "control_change"}, {"time": 2540, "annotation": {"number": 64, "value": 0}, "group": "control_change"}, {"time": 2542, "annotation": {"number": 64, "value": 127}, "group": "control_change"}, {"time": 2565, "annotation": {"number": 64, "value": 0}, "group": "control_change"}, {"time": 2567, "annotation": {"number": 64, "value": 127}, "group": "control_change"}, {"time": 2588, "annotation": {"number": 64, "value": 0}, "group": "control_change"}, {"time": 2590, "annotation": {"number": 64, "value": 127}, "group": "control_change"}, {"time": 2600, "annotation": {"number": 64, "value": 0}, "group": "control_change"}, {"time": 2606, "annotation": {"number": 64, "value": 127}, "group": "control_change"}, {"time": 2624, "annotation": {"number": 64, "value": 0}, "group": "control_change"}, {"time": 2626, "annotation": {"number": 64, "value": 127}, "group": "control_change"}, {"time": 2646, "annotation": {"number": 64, "value": 0}, "group": "control_change"}, {"time": 2650, "annotation": {"number": 64, "value": 0}, "group": "control_change"}, {"time": 2653, "annotation": {"number": 64, "value": 127}, "group": "control_change"}, {"time": 2672, "annotation": {"number": 64, "value": 0}, "group": "control_change"}, {"time": 2675, "annotation": {"number": 64, "value": 127}, "group": "control_change"}, {"time": 2696, "annotation": {"number": 64, "value": 0}, "group": "control_change"}, {"time": 2699, "annotation": {"number": 64, "value": 127}, "group": "control_change"}, {"time": 2719, "annotation": {"number": 64, "value": 0}, "group": "control_change"}, {"time": 2724, "annotation": {"number": 64, "value": 127}, "group": "control_change"}, {"time": 2744, "annotation": {"number": 64, "value": 0}, "group": "control_change"}, {"time": 2749, "annotation": {"number": 64, "value": 127}, "group": "control_change"}, {"time": 2769, "annotation": {"number": 64, "value": 0}, "group": "control_change"}, {"time": 2774, "annotation": {"number": 64, "value": 127}, "group": "control_change"}, {"time": 2791, "annotation": {"number": 64, "value": 0}, "group": "control_change"}, {"time": 2794, "annotation": {"number": 64, "value": 127}, "group": "control_change"}, {"time": 2816, "annotation": {"number": 64, "value": 0}, "group": "control_change"}, {"time": 2818, "annotation": {"number": 64, "value": 127}, "group": "control_change"}, {"time": 2840, "annotation": {"number": 64, "value": 0}, "group": "control_change"}, {"time": 2845, "annotation": {"number": 64, "value": 127}, "group": "control_change"}, {"time": 2863, "annotation": {"number": 64, "value": 0}, "group": "control_change"}, {"time": 2868, "annotation": {"number": 64, "value": 127}, "group": "control_change"}, {"time": 2889, "annotation": {"number": 64, "value": 0}, "group": "control_change"}, {"time": 2893, "annotation": {"number": 64, "value": 127}, "group": "control_change"}, {"time": 2912, "annotation": {"number": 64, "value": 0}, "group": "control_change"}, {"time": 2914, "annotation": {"number": 64, "value": 127}, "group": "control_change"}, {"time": 2936, "annotation": {"number": 64, "value": 0}, "group": "control_change"}, {"time": 2938, "annotation": {"number": 64, "value": 127}, "group": "control_change"}, {"time": 2961, "annotation": {"number": 64, "value": 0}, "group": "control_change"}, {"time": 2963, "annotation": {"number": 64, "value": 127}, "group": "control_change"}, {"time": 2984, "annotation": {"number": 64, "value": 0}, "group": "control_change"}, {"time": 2986, "annotation": {"number": 64, "value": 127}, "group": "control_change"}, {"time": 2996, "annotation": {"number": 64, "value": 0}, "group": "control_change"}, {"time": 3002, "annotation": {"number": 64, "value": 127}, "group": "control_change"}, {"time": 3020, "annotation": {"number": 64, "value": 0}, "group": "control_change"}, {"time": 3050, "annotation": {"number": 64, "value": 127}, "group": "control_change"}, {"time": 3076, "annotation": {"number": 64, "value": 0}, "group": "control_change"}, {"time": 3079, "annotation": {"number": 64, "value": 127}, "group": "control_change"}, {"time": 3109, "annotation": {"number": 64, "value": 0}, "group": "control_change"}, {"time": 3111, "annotation": {"number": 64, "value": 127}, "group": "control_change"}, {"time": 3169, "annotation": {"number": 64, "value": 0}, "group": "control_change"}, {"time": 3178, "annotation": {"number": 64, "value": 127}, "group": "control_change"}, {"time": 3235, "annotation": {"number": 64, "value": 0}, "group": "control_change"}, {"time": 3236, "annotation": {"number": 64, "value": 127}, "group": "control_change"}, {"time": 3299, "annotation": {"number": 64, "value": 0}, "group": "control_change"}, {"time": 3301, "annotation": {"number": 64, "value": 127}, "group": "control_change"}, {"time": 3401, "annotation": {"number": 64, "value": 0}, "group": "control_change"}]}]}