{"metadata": {"schema_version": "0.2", "title": "None", "source_filename": "679.mid", "source_format": "midi"}, "resolution": 12, "tempos": [{"time": 0, "qpm": 104.00001386666851}], "time_signatures": [{"time": 0, "numerator": 1, "denominator": 4}], "tracks": [{"program": 4, "is_drum": false, "name": "MELODY", "notes": [{"time": 670, "pitch": 65, "duration": 5, "velocity": 88}, {"time": 676, "pitch": 70, "duration": 4, "velocity": 77}, {"time": 682, "pitch": 70, "duration": 4, "velocity": 78}, {"time": 688, "pitch": 70, "duration": 5, "velocity": 78}, {"time": 694, "pitch": 68, "duration": 5, "velocity": 75}, {"time": 700, "pitch": 70, "duration": 5, "velocity": 77}, {"time": 706, "pitch": 73, "duration": 5, "velocity": 76}, {"time": 712, "pitch": 72, "duration": 5, "velocity": 73}, {"time": 718, "pitch": 70, "duration": 41, "velocity": 77}, {"time": 766, "pitch": 65, "duration": 5, "velocity": 85}, {"time": 772, "pitch": 70, "duration": 4, "velocity": 75}, {"time": 778, "pitch": 70, "duration": 4, "velocity": 75}, {"time": 784, "pitch": 70, "duration": 4, "velocity": 77}, {"time": 790, "pitch": 63, "duration": 5, "velocity": 75}, {"time": 796, "pitch": 65, "duration": 5, "velocity": 75}, {"time": 802, "pitch": 68, "duration": 5, "velocity": 74}, {"time": 808, "pitch": 67, "duration": 6, "velocity": 77}, {"time": 814, "pitch": 65, "duration": 39, "velocity": 78}, {"time": 862, "pitch": 65, "duration": 15, "velocity": 85}, {"time": 880, "pitch": 73, "duration": 4, "velocity": 71}, {"time": 886, "pitch": 68, "duration": 6, "velocity": 71}, {"time": 892, "pitch": 70, "duration": 5, "velocity": 65}, {"time": 898, "pitch": 73, "duration": 11, "velocity": 75}, {"time": 910, "pitch": 68, "duration": 7, "velocity": 66}, {"time": 916, "pitch": 70, "duration": 6, "velocity": 70}, {"time": 922, "pitch": 68, "duration": 7, "velocity": 71}, {"time": 928, "pitch": 66, "duration": 6, "velocity": 71}, {"time": 934, "pitch": 65, "duration": 18, "velocity": 71}, {"time": 958, "pitch": 63, "duration": 4, "velocity": 72}, {"time": 964, "pitch": 63, "duration": 4, "velocity": 70}, {"time": 970, "pitch": 63, "duration": 4, "velocity": 75}, {"time": 976, "pitch": 58, "duration": 5, "velocity": 76}, {"time": 982, "pitch": 68, "duration": 4, "velocity": 74}, {"time": 988, "pitch": 67, "duration": 5, "velocity": 75}, {"time": 994, "pitch": 65, "duration": 5, "velocity": 72}, {"time": 1000, "pitch": 63, "duration": 6, "velocity": 73}, {"time": 1006, "pitch": 65, "duration": 43, "velocity": 73}, {"time": 1054, "pitch": 65, "duration": 5, "velocity": 88}, {"time": 1060, "pitch": 70, "duration": 4, "velocity": 77}, {"time": 1066, "pitch": 70, "duration": 4, "velocity": 78}, {"time": 1072, "pitch": 70, "duration": 5, "velocity": 78}, {"time": 1078, "pitch": 68, "duration": 5, "velocity": 75}, {"time": 1084, "pitch": 70, "duration": 5, "velocity": 77}, {"time": 1090, "pitch": 73, "duration": 5, "velocity": 76}, {"time": 1096, "pitch": 72, "duration": 5, "velocity": 73}, {"time": 1102, "pitch": 70, "duration": 41, "velocity": 77}, {"time": 1150, "pitch": 65, "duration": 5, "velocity": 85}, {"time": 1156, "pitch": 70, "duration": 4, "velocity": 75}, {"time": 1162, "pitch": 70, "duration": 4, "velocity": 75}, {"time": 1168, "pitch": 70, "duration": 4, "velocity": 77}, {"time": 1174, "pitch": 63, "duration": 5, "velocity": 75}, {"time": 1180, "pitch": 65, "duration": 5, "velocity": 75}, {"time": 1186, "pitch": 68, "duration": 5, "velocity": 74}, {"time": 1192, "pitch": 67, "duration": 6, "velocity": 77}, {"time": 1198, "pitch": 65, "duration": 39, "velocity": 78}, {"time": 1246, "pitch": 65, "duration": 15, "velocity": 85}, {"time": 1264, "pitch": 73, "duration": 4, "velocity": 71}, {"time": 1270, "pitch": 68, "duration": 6, "velocity": 71}, {"time": 1276, "pitch": 70, "duration": 5, "velocity": 65}, {"time": 1282, "pitch": 73, "duration": 11, "velocity": 75}, {"time": 1294, "pitch": 68, "duration": 7, "velocity": 66}, {"time": 1300, "pitch": 70, "duration": 6, "velocity": 70}, {"time": 1306, "pitch": 70, "duration": 7, "velocity": 71}, {"time": 1312, "pitch": 68, "duration": 6, "velocity": 71}, {"time": 1318, "pitch": 65, "duration": 6, "velocity": 71}, {"time": 1324, "pitch": 63, "duration": 6, "velocity": 71}, {"time": 1330, "pitch": 61, "duration": 12, "velocity": 71}, {"time": 1342, "pitch": 75, "duration": 4, "velocity": 78}, {"time": 1348, "pitch": 75, "duration": 3, "velocity": 82}, {"time": 1354, "pitch": 75, "duration": 5, "velocity": 85}, {"time": 1360, "pitch": 73, "duration": 5, "velocity": 76}, {"time": 1366, "pitch": 72, "duration": 5, "velocity": 87}, {"time": 1372, "pitch": 70, "duration": 5, "velocity": 76}, {"time": 1378, "pitch": 68, "duration": 11, "velocity": 77}, {"time": 1390, "pitch": 70, "duration": 75, "velocity": 77}, {"time": 1486, "pitch": 70, "duration": 5, "velocity": 82}, {"time": 1492, "pitch": 77, "duration": 4, "velocity": 78}, {"time": 1498, "pitch": 77, "duration": 4, "velocity": 77}, {"time": 1504, "pitch": 77, "duration": 4, "velocity": 77}, {"time": 1510, "pitch": 77, "duration": 15, "velocity": 82}, {"time": 1528, "pitch": 73, "duration": 5, "velocity": 77}, {"time": 1534, "pitch": 75, "duration": 45, "velocity": 80}, {"time": 1582, "pitch": 75, "duration": 4, "velocity": 76}, {"time": 1588, "pitch": 75, "duration": 4, "velocity": 76}, {"time": 1594, "pitch": 75, "duration": 4, "velocity": 82}, {"time": 1600, "pitch": 77, "duration": 4, "velocity": 78}, {"time": 1606, "pitch": 72, "duration": 5, "velocity": 78}, {"time": 1612, "pitch": 70, "duration": 4, "velocity": 75}, {"time": 1618, "pitch": 68, "duration": 11, "velocity": 75}, {"time": 1630, "pitch": 70, "duration": 40, "velocity": 75}, {"time": 1678, "pitch": 70, "duration": 14, "velocity": 77}, {"time": 1696, "pitch": 75, "duration": 4, "velocity": 68}, {"time": 1702, "pitch": 75, "duration": 12, "velocity": 73}, {"time": 1714, "pitch": 73, "duration": 6, "velocity": 72}, {"time": 1720, "pitch": 70, "duration": 6, "velocity": 75}, {"time": 1726, "pitch": 68, "duration": 6, "velocity": 73}, {"time": 1732, "pitch": 70, "duration": 5, "velocity": 72}, {"time": 1738, "pitch": 68, "duration": 12, "velocity": 74}, {"time": 1750, "pitch": 65, "duration": 21, "velocity": 77}, {"time": 1774, "pitch": 75, "duration": 8, "velocity": 78}, {"time": 1786, "pitch": 75, "duration": 11, "velocity": 80}, {"time": 1798, "pitch": 73, "duration": 6, "velocity": 73}, {"time": 1804, "pitch": 70, "duration": 6, "velocity": 73}, {"time": 1810, "pitch": 73, "duration": 7, "velocity": 73}, {"time": 1816, "pitch": 75, "duration": 8, "velocity": 77}, {"time": 1822, "pitch": 77, "duration": 46, "velocity": 75}, {"time": 1870, "pitch": 70, "duration": 5, "velocity": 82}, {"time": 1876, "pitch": 77, "duration": 4, "velocity": 78}, {"time": 1882, "pitch": 77, "duration": 4, "velocity": 77}, {"time": 1888, "pitch": 77, "duration": 4, "velocity": 77}, {"time": 1894, "pitch": 77, "duration": 15, "velocity": 82}, {"time": 1912, "pitch": 73, "duration": 5, "velocity": 77}, {"time": 1918, "pitch": 75, "duration": 45, "velocity": 80}, {"time": 1966, "pitch": 75, "duration": 4, "velocity": 76}, {"time": 1972, "pitch": 75, "duration": 4, "velocity": 76}, {"time": 1978, "pitch": 75, "duration": 4, "velocity": 82}, {"time": 1984, "pitch": 77, "duration": 4, "velocity": 78}, {"time": 1990, "pitch": 72, "duration": 5, "velocity": 78}, {"time": 1996, "pitch": 70, "duration": 4, "velocity": 75}, {"time": 2002, "pitch": 68, "duration": 11, "velocity": 75}, {"time": 2014, "pitch": 70, "duration": 40, "velocity": 75}, {"time": 2062, "pitch": 70, "duration": 14, "velocity": 77}, {"time": 2080, "pitch": 75, "duration": 4, "velocity": 68}, {"time": 2086, "pitch": 75, "duration": 12, "velocity": 73}, {"time": 2098, "pitch": 73, "duration": 6, "velocity": 72}, {"time": 2104, "pitch": 70, "duration": 6, "velocity": 75}, {"time": 2110, "pitch": 68, "duration": 6, "velocity": 73}, {"time": 2116, "pitch": 70, "duration": 5, "velocity": 72}, {"time": 2122, "pitch": 68, "duration": 12, "velocity": 74}, {"time": 2134, "pitch": 65, "duration": 21, "velocity": 77}, {"time": 2158, "pitch": 75, "duration": 6, "velocity": 78}, {"time": 2164, "pitch": 75, "duration": 6, "velocity": 78}, {"time": 2170, "pitch": 75, "duration": 6, "velocity": 80}, {"time": 2176, "pitch": 77, "duration": 6, "velocity": 80}, {"time": 2182, "pitch": 73, "duration": 6, "velocity": 73}, {"time": 2188, "pitch": 70, "duration": 6, "velocity": 73}, {"time": 2194, "pitch": 70, "duration": 1, "velocity": 73}, {"time": 2200, "pitch": 68, "duration": 8, "velocity": 77}, {"time": 2206, "pitch": 70, "duration": 46, "velocity": 75}, {"time": 2734, "pitch": 65, "duration": 5, "velocity": 88}, {"time": 2740, "pitch": 70, "duration": 4, "velocity": 77}, {"time": 2746, "pitch": 70, "duration": 4, "velocity": 78}, {"time": 2752, "pitch": 70, "duration": 5, "velocity": 78}, {"time": 2758, "pitch": 68, "duration": 5, "velocity": 75}, {"time": 2764, "pitch": 70, "duration": 5, "velocity": 77}, {"time": 2770, "pitch": 73, "duration": 5, "velocity": 76}, {"time": 2776, "pitch": 72, "duration": 5, "velocity": 73}, {"time": 2782, "pitch": 70, "duration": 41, "velocity": 77}, {"time": 2830, "pitch": 65, "duration": 5, "velocity": 85}, {"time": 2836, "pitch": 70, "duration": 4, "velocity": 75}, {"time": 2842, "pitch": 70, "duration": 4, "velocity": 75}, {"time": 2848, "pitch": 70, "duration": 4, "velocity": 77}, {"time": 2854, "pitch": 63, "duration": 5, "velocity": 75}, {"time": 2860, "pitch": 65, "duration": 5, "velocity": 75}, {"time": 2866, "pitch": 68, "duration": 5, "velocity": 74}, {"time": 2872, "pitch": 67, "duration": 6, "velocity": 77}, {"time": 2878, "pitch": 65, "duration": 39, "velocity": 78}, {"time": 2926, "pitch": 65, "duration": 15, "velocity": 85}, {"time": 2944, "pitch": 73, "duration": 4, "velocity": 71}, {"time": 2950, "pitch": 68, "duration": 6, "velocity": 71}, {"time": 2956, "pitch": 70, "duration": 5, "velocity": 65}, {"time": 2962, "pitch": 73, "duration": 11, "velocity": 75}, {"time": 2974, "pitch": 68, "duration": 7, "velocity": 66}, {"time": 2980, "pitch": 70, "duration": 6, "velocity": 70}, {"time": 2986, "pitch": 70, "duration": 7, "velocity": 71}, {"time": 2992, "pitch": 68, "duration": 6, "velocity": 71}, {"time": 2998, "pitch": 65, "duration": 6, "velocity": 71}, {"time": 3004, "pitch": 63, "duration": 6, "velocity": 71}, {"time": 3010, "pitch": 61, "duration": 12, "velocity": 71}, {"time": 3022, "pitch": 75, "duration": 4, "velocity": 78}, {"time": 3028, "pitch": 75, "duration": 3, "velocity": 82}, {"time": 3034, "pitch": 75, "duration": 5, "velocity": 85}, {"time": 3040, "pitch": 73, "duration": 5, "velocity": 76}, {"time": 3046, "pitch": 72, "duration": 5, "velocity": 87}, {"time": 3052, "pitch": 70, "duration": 5, "velocity": 76}, {"time": 3058, "pitch": 68, "duration": 11, "velocity": 77}, {"time": 3070, "pitch": 70, "duration": 75, "velocity": 77}, {"time": 3166, "pitch": 70, "duration": 5, "velocity": 82}, {"time": 3172, "pitch": 77, "duration": 4, "velocity": 78}, {"time": 3178, "pitch": 77, "duration": 4, "velocity": 77}, {"time": 3184, "pitch": 77, "duration": 4, "velocity": 77}, {"time": 3190, "pitch": 77, "duration": 15, "velocity": 82}, {"time": 3208, "pitch": 73, "duration": 5, "velocity": 77}, {"time": 3214, "pitch": 75, "duration": 45, "velocity": 80}, {"time": 3262, "pitch": 75, "duration": 4, "velocity": 76}, {"time": 3268, "pitch": 75, "duration": 4, "velocity": 76}, {"time": 3274, "pitch": 75, "duration": 4, "velocity": 82}, {"time": 3280, "pitch": 77, "duration": 4, "velocity": 78}, {"time": 3286, "pitch": 72, "duration": 5, "velocity": 78}, {"time": 3292, "pitch": 70, "duration": 4, "velocity": 75}, {"time": 3298, "pitch": 68, "duration": 11, "velocity": 75}, {"time": 3310, "pitch": 70, "duration": 40, "velocity": 75}, {"time": 3358, "pitch": 70, "duration": 14, "velocity": 77}, {"time": 3376, "pitch": 75, "duration": 4, "velocity": 68}, {"time": 3382, "pitch": 75, "duration": 12, "velocity": 73}, {"time": 3394, "pitch": 73, "duration": 6, "velocity": 72}, {"time": 3400, "pitch": 70, "duration": 6, "velocity": 75}, {"time": 3406, "pitch": 68, "duration": 6, "velocity": 73}, {"time": 3412, "pitch": 70, "duration": 5, "velocity": 72}, {"time": 3418, "pitch": 68, "duration": 12, "velocity": 74}, {"time": 3430, "pitch": 65, "duration": 21, "velocity": 77}, {"time": 3454, "pitch": 75, "duration": 8, "velocity": 78}, {"time": 3466, "pitch": 75, "duration": 11, "velocity": 80}, {"time": 3478, "pitch": 73, "duration": 6, "velocity": 73}, {"time": 3484, "pitch": 70, "duration": 6, "velocity": 73}, {"time": 3490, "pitch": 73, "duration": 7, "velocity": 73}, {"time": 3496, "pitch": 75, "duration": 8, "velocity": 77}, {"time": 3502, "pitch": 77, "duration": 46, "velocity": 75}, {"time": 3550, "pitch": 70, "duration": 5, "velocity": 82}, {"time": 3556, "pitch": 77, "duration": 4, "velocity": 78}, {"time": 3562, "pitch": 77, "duration": 4, "velocity": 77}, {"time": 3568, "pitch": 77, "duration": 4, "velocity": 77}, {"time": 3574, "pitch": 77, "duration": 15, "velocity": 82}, {"time": 3592, "pitch": 73, "duration": 5, "velocity": 77}, {"time": 3598, "pitch": 75, "duration": 45, "velocity": 80}, {"time": 3646, "pitch": 75, "duration": 4, "velocity": 76}, {"time": 3652, "pitch": 75, "duration": 4, "velocity": 76}, {"time": 3658, "pitch": 75, "duration": 4, "velocity": 82}, {"time": 3664, "pitch": 77, "duration": 4, "velocity": 78}, {"time": 3670, "pitch": 72, "duration": 5, "velocity": 78}, {"time": 3676, "pitch": 70, "duration": 4, "velocity": 75}, {"time": 3682, "pitch": 68, "duration": 11, "velocity": 75}, {"time": 3694, "pitch": 70, "duration": 40, "velocity": 75}, {"time": 3742, "pitch": 70, "duration": 14, "velocity": 77}, {"time": 3760, "pitch": 75, "duration": 4, "velocity": 68}, {"time": 3766, "pitch": 75, "duration": 12, "velocity": 73}, {"time": 3778, "pitch": 73, "duration": 6, "velocity": 72}, {"time": 3784, "pitch": 70, "duration": 6, "velocity": 75}, {"time": 3790, "pitch": 68, "duration": 6, "velocity": 73}, {"time": 3796, "pitch": 70, "duration": 5, "velocity": 72}, {"time": 3802, "pitch": 68, "duration": 12, "velocity": 74}, {"time": 3814, "pitch": 65, "duration": 21, "velocity": 77}, {"time": 3838, "pitch": 75, "duration": 6, "velocity": 78}, {"time": 3844, "pitch": 75, "duration": 6, "velocity": 78}, {"time": 3850, "pitch": 75, "duration": 6, "velocity": 80}, {"time": 3856, "pitch": 77, "duration": 6, "velocity": 80}, {"time": 3862, "pitch": 73, "duration": 6, "velocity": 73}, {"time": 3868, "pitch": 70, "duration": 6, "velocity": 73}, {"time": 3874, "pitch": 70, "duration": 1, "velocity": 73}, {"time": 3880, "pitch": 68, "duration": 8, "velocity": 77}, {"time": 3886, "pitch": 70, "duration": 46, "velocity": 75}, {"time": 3934, "pitch": 70, "duration": 5, "velocity": 82}, {"time": 3940, "pitch": 77, "duration": 4, "velocity": 78}, {"time": 3946, "pitch": 77, "duration": 4, "velocity": 77}, {"time": 3952, "pitch": 77, "duration": 4, "velocity": 77}, {"time": 3958, "pitch": 77, "duration": 15, "velocity": 82}, {"time": 3976, "pitch": 73, "duration": 5, "velocity": 77}, {"time": 3982, "pitch": 75, "duration": 45, "velocity": 80}, {"time": 4030, "pitch": 75, "duration": 4, "velocity": 76}, {"time": 4036, "pitch": 75, "duration": 4, "velocity": 76}, {"time": 4042, "pitch": 75, "duration": 4, "velocity": 82}, {"time": 4048, "pitch": 77, "duration": 4, "velocity": 78}, {"time": 4054, "pitch": 72, "duration": 5, "velocity": 78}, {"time": 4060, "pitch": 70, "duration": 4, "velocity": 75}, {"time": 4066, "pitch": 68, "duration": 11, "velocity": 75}, {"time": 4078, "pitch": 70, "duration": 40, "velocity": 75}, {"time": 4126, "pitch": 70, "duration": 14, "velocity": 77}, {"time": 4144, "pitch": 75, "duration": 4, "velocity": 68}, {"time": 4150, "pitch": 75, "duration": 12, "velocity": 73}, {"time": 4162, "pitch": 73, "duration": 6, "velocity": 72}, {"time": 4168, "pitch": 70, "duration": 6, "velocity": 75}, {"time": 4174, "pitch": 68, "duration": 6, "velocity": 73}, {"time": 4180, "pitch": 70, "duration": 5, "velocity": 72}, {"time": 4186, "pitch": 68, "duration": 12, "velocity": 74}, {"time": 4198, "pitch": 65, "duration": 21, "velocity": 77}, {"time": 4222, "pitch": 75, "duration": 8, "velocity": 78}, {"time": 4234, "pitch": 75, "duration": 11, "velocity": 80}, {"time": 4246, "pitch": 73, "duration": 6, "velocity": 73}, {"time": 4252, "pitch": 70, "duration": 6, "velocity": 73}, {"time": 4258, "pitch": 73, "duration": 7, "velocity": 73}, {"time": 4264, "pitch": 75, "duration": 8, "velocity": 77}, {"time": 4270, "pitch": 77, "duration": 46, "velocity": 75}, {"time": 4318, "pitch": 70, "duration": 5, "velocity": 82}, {"time": 4324, "pitch": 77, "duration": 4, "velocity": 78}, {"time": 4330, "pitch": 77, "duration": 4, "velocity": 77}, {"time": 4336, "pitch": 77, "duration": 4, "velocity": 77}, {"time": 4342, "pitch": 77, "duration": 15, "velocity": 82}, {"time": 4360, "pitch": 73, "duration": 5, "velocity": 77}, {"time": 4366, "pitch": 75, "duration": 45, "velocity": 80}, {"time": 4414, "pitch": 75, "duration": 4, "velocity": 76}, {"time": 4420, "pitch": 75, "duration": 4, "velocity": 76}, {"time": 4426, "pitch": 75, "duration": 4, "velocity": 82}, {"time": 4432, "pitch": 77, "duration": 4, "velocity": 78}, {"time": 4438, "pitch": 72, "duration": 5, "velocity": 78}, {"time": 4444, "pitch": 70, "duration": 4, "velocity": 75}, {"time": 4450, "pitch": 68, "duration": 11, "velocity": 75}, {"time": 4462, "pitch": 70, "duration": 40, "velocity": 75}, {"time": 4510, "pitch": 70, "duration": 14, "velocity": 77}, {"time": 4528, "pitch": 75, "duration": 4, "velocity": 68}, {"time": 4534, "pitch": 75, "duration": 12, "velocity": 73}, {"time": 4546, "pitch": 73, "duration": 6, "velocity": 72}, {"time": 4552, "pitch": 70, "duration": 6, "velocity": 75}, {"time": 4558, "pitch": 68, "duration": 6, "velocity": 73}, {"time": 4564, "pitch": 70, "duration": 5, "velocity": 72}, {"time": 4570, "pitch": 68, "duration": 12, "velocity": 74}, {"time": 4582, "pitch": 65, "duration": 21, "velocity": 77}, {"time": 4606, "pitch": 75, "duration": 6, "velocity": 78}, {"time": 4612, "pitch": 75, "duration": 6, "velocity": 78}, {"time": 4618, "pitch": 75, "duration": 6, "velocity": 80}, {"time": 4624, "pitch": 77, "duration": 6, "velocity": 80}, {"time": 4630, "pitch": 73, "duration": 6, "velocity": 73}, {"time": 4636, "pitch": 70, "duration": 6, "velocity": 73}, {"time": 4642, "pitch": 70, "duration": 1, "velocity": 73}, {"time": 4648, "pitch": 68, "duration": 8, "velocity": 77}, {"time": 4654, "pitch": 70, "duration": 46, "velocity": 75}, {"time": 4702, "pitch": 70, "duration": 14, "velocity": 77}, {"time": 4720, "pitch": 75, "duration": 4, "velocity": 68}, {"time": 4726, "pitch": 75, "duration": 12, "velocity": 73}, {"time": 4738, "pitch": 73, "duration": 6, "velocity": 72}, {"time": 4744, "pitch": 70, "duration": 6, "velocity": 75}, {"time": 4750, "pitch": 68, "duration": 6, "velocity": 73}, {"time": 4756, "pitch": 70, "duration": 5, "velocity": 72}, {"time": 4762, "pitch": 68, "duration": 12, "velocity": 74}, {"time": 4774, "pitch": 65, "duration": 21, "velocity": 77}, {"time": 4809, "pitch": 75, "duration": 8, "velocity": 80}, {"time": 4820, "pitch": 75, "duration": 7, "velocity": 82}, {"time": 4829, "pitch": 75, "duration": 8, "velocity": 77}, {"time": 4840, "pitch": 77, "duration": 8, "velocity": 78}, {"time": 4850, "pitch": 72, "duration": 9, "velocity": 80}, {"time": 4859, "pitch": 70, "duration": 8, "velocity": 72}, {"time": 4869, "pitch": 70, "duration": 12, "velocity": 68}, {"time": 4881, "pitch": 68, "duration": 59, "velocity": 62}, {"time": 4939, "pitch": 70, "duration": 90, "velocity": 74}]}, {"program": 0, "is_drum": false, "name": "PIANO", "notes": [{"time": 43, "pitch": 70, "duration": 27, "velocity": 66}, {"time": 44, "pitch": 65, "duration": 28, "velocity": 60}, {"time": 44, "pitch": 61, "duration": 26, "velocity": 62}, {"time": 45, "pitch": 46, "duration": 30, "velocity": 72}, {"time": 46, "pitch": 58, "duration": 25, "velocity": 53}, {"time": 91, "pitch": 58, "duration": 7, "velocity": 64}, {"time": 93, "pitch": 39, "duration": 3, "velocity": 73}, {"time": 94, "pitch": 63, "duration": 8, "velocity": 65}, {"time": 140, "pitch": 53, "duration": 23, "velocity": 58}, {"time": 142, "pitch": 56, "duration": 22, "velocity": 61}, {"time": 142, "pitch": 41, "duration": 22, "velocity": 72}, {"time": 143, "pitch": 60, "duration": 21, "velocity": 63}, {"time": 144, "pitch": 65, "duration": 21, "velocity": 72}, {"time": 186, "pitch": 58, "duration": 21, "velocity": 63}, {"time": 188, "pitch": 61, "duration": 29, "velocity": 65}, {"time": 189, "pitch": 65, "duration": 28, "velocity": 72}, {"time": 189, "pitch": 46, "duration": 12, "velocity": 72}, {"time": 190, "pitch": 70, "duration": 27, "velocity": 71}, {"time": 232, "pitch": 58, "duration": 5, "velocity": 58}, {"time": 232, "pitch": 61, "duration": 11, "velocity": 65}, {"time": 238, "pitch": 46, "duration": 18, "velocity": 72}, {"time": 238, "pitch": 65, "duration": 9, "velocity": 65}, {"time": 238, "pitch": 70, "duration": 9, "velocity": 66}, {"time": 244, "pitch": 53, "duration": 10, "velocity": 60}, {"time": 250, "pitch": 58, "duration": 7, "velocity": 71}, {"time": 256, "pitch": 61, "duration": 2, "velocity": 69}, {"time": 262, "pitch": 44, "duration": 14, "velocity": 72}, {"time": 262, "pitch": 56, "duration": 12, "velocity": 71}, {"time": 262, "pitch": 60, "duration": 12, "velocity": 71}, {"time": 280, "pitch": 58, "duration": 5, "velocity": 56}, {"time": 280, "pitch": 61, "duration": 11, "velocity": 61}, {"time": 286, "pitch": 46, "duration": 45, "velocity": 71}, {"time": 286, "pitch": 65, "duration": 10, "velocity": 65}, {"time": 286, "pitch": 70, "duration": 14, "velocity": 66}, {"time": 292, "pitch": 53, "duration": 36, "velocity": 57}, {"time": 298, "pitch": 58, "duration": 12, "velocity": 67}, {"time": 304, "pitch": 61, "duration": 9, "velocity": 71}, {"time": 310, "pitch": 70, "duration": 13, "velocity": 76}, {"time": 316, "pitch": 58, "duration": 7, "velocity": 64}, {"time": 322, "pitch": 61, "duration": 4, "velocity": 66}, {"time": 334, "pitch": 46, "duration": 14, "velocity": 73}, {"time": 334, "pitch": 58, "duration": 13, "velocity": 58}, {"time": 334, "pitch": 61, "duration": 12, "velocity": 69}, {"time": 334, "pitch": 65, "duration": 12, "velocity": 69}, {"time": 346, "pitch": 53, "duration": 1, "velocity": 54}, {"time": 352, "pitch": 58, "duration": 4, "velocity": 65}, {"time": 358, "pitch": 39, "duration": 10, "velocity": 75}, {"time": 358, "pitch": 58, "duration": 5, "velocity": 72}, {"time": 358, "pitch": 63, "duration": 7, "velocity": 72}, {"time": 364, "pitch": 58, "duration": 6, "velocity": 66}, {"time": 370, "pitch": 67, "duration": 10, "velocity": 71}, {"time": 382, "pitch": 41, "duration": 35, "velocity": 74}, {"time": 388, "pitch": 48, "duration": 21, "velocity": 55}, {"time": 394, "pitch": 53, "duration": 9, "velocity": 72}, {"time": 400, "pitch": 56, "duration": 4, "velocity": 71}, {"time": 406, "pitch": 53, "duration": 8, "velocity": 76}, {"time": 406, "pitch": 56, "duration": 10, "velocity": 80}, {"time": 406, "pitch": 60, "duration": 11, "velocity": 76}, {"time": 412, "pitch": 48, "duration": 5, "velocity": 67}, {"time": 418, "pitch": 53, "duration": 2, "velocity": 82}, {"time": 430, "pitch": 46, "duration": 32, "velocity": 71}, {"time": 430, "pitch": 58, "duration": 29, "velocity": 65}, {"time": 430, "pitch": 61, "duration": 30, "velocity": 68}, {"time": 478, "pitch": 39, "duration": 6, "velocity": 73}, {"time": 478, "pitch": 63, "duration": 23, "velocity": 64}, {"time": 478, "pitch": 67, "duration": 22, "velocity": 60}, {"time": 478, "pitch": 75, "duration": 22, "velocity": 72}, {"time": 526, "pitch": 44, "duration": 13, "velocity": 72}, {"time": 526, "pitch": 60, "duration": 12, "velocity": 71}, {"time": 526, "pitch": 56, "duration": 13, "velocity": 72}, {"time": 526, "pitch": 68, "duration": 12, "velocity": 59}, {"time": 547, "pitch": 53, "duration": 10, "velocity": 63}, {"time": 549, "pitch": 56, "duration": 9, "velocity": 67}, {"time": 549, "pitch": 41, "duration": 10, "velocity": 74}, {"time": 550, "pitch": 60, "duration": 8, "velocity": 61}, {"time": 550, "pitch": 65, "duration": 10, "velocity": 73}, {"time": 569, "pitch": 58, "duration": 5, "velocity": 59}, {"time": 571, "pitch": 61, "duration": 6, "velocity": 65}, {"time": 572, "pitch": 65, "duration": 7, "velocity": 61}, {"time": 573, "pitch": 46, "duration": 10, "velocity": 72}, {"time": 573, "pitch": 70, "duration": 8, "velocity": 71}, {"time": 578, "pitch": 53, "duration": 5, "velocity": 61}, {"time": 584, "pitch": 58, "duration": 28, "velocity": 72}, {"time": 591, "pitch": 65, "duration": 22, "velocity": 67}, {"time": 598, "pitch": 70, "duration": 15, "velocity": 62}, {"time": 622, "pitch": 46, "duration": 44, "velocity": 72}, {"time": 622, "pitch": 58, "duration": 11, "velocity": 53}, {"time": 622, "pitch": 65, "duration": 14, "velocity": 70}, {"time": 628, "pitch": 53, "duration": 38, "velocity": 65}, {"time": 634, "pitch": 58, "duration": 34, "velocity": 73}, {"time": 640, "pitch": 65, "duration": 28, "velocity": 71}, {"time": 646, "pitch": 70, "duration": 22, "velocity": 70}, {"time": 670, "pitch": 46, "duration": 15, "velocity": 72}, {"time": 670, "pitch": 58, "duration": 8, "velocity": 66}, {"time": 670, "pitch": 61, "duration": 13, "velocity": 64}, {"time": 676, "pitch": 53, "duration": 9, "velocity": 66}, {"time": 682, "pitch": 58, "duration": 5, "velocity": 75}, {"time": 694, "pitch": 44, "duration": 17, "velocity": 71}, {"time": 694, "pitch": 56, "duration": 13, "velocity": 70}, {"time": 694, "pitch": 60, "duration": 19, "velocity": 66}, {"time": 706, "pitch": 51, "duration": 6, "velocity": 58}, {"time": 712, "pitch": 56, "duration": 3, "velocity": 70}, {"time": 718, "pitch": 46, "duration": 40, "velocity": 73}, {"time": 718, "pitch": 58, "duration": 7, "velocity": 71}, {"time": 718, "pitch": 61, "duration": 8, "velocity": 70}, {"time": 724, "pitch": 53, "duration": 33, "velocity": 64}, {"time": 730, "pitch": 58, "duration": 9, "velocity": 76}, {"time": 736, "pitch": 61, "duration": 4, "velocity": 77}, {"time": 742, "pitch": 65, "duration": 7, "velocity": 78}, {"time": 766, "pitch": 46, "duration": 17, "velocity": 71}, {"time": 766, "pitch": 70, "duration": 14, "velocity": 76}, {"time": 772, "pitch": 53, "duration": 11, "velocity": 68}, {"time": 778, "pitch": 58, "duration": 4, "velocity": 72}, {"time": 790, "pitch": 51, "duration": 15, "velocity": 74}, {"time": 790, "pitch": 58, "duration": 3, "velocity": 70}, {"time": 790, "pitch": 63, "duration": 8, "velocity": 70}, {"time": 796, "pitch": 58, "duration": 8, "velocity": 73}, {"time": 802, "pitch": 67, "duration": 5, "velocity": 67}, {"time": 814, "pitch": 41, "duration": 37, "velocity": 73}, {"time": 814, "pitch": 65, "duration": 13, "velocity": 71}, {"time": 820, "pitch": 48, "duration": 30, "velocity": 59}, {"time": 826, "pitch": 60, "duration": 8, "velocity": 73}, {"time": 832, "pitch": 65, "duration": 3, "velocity": 76}, {"time": 838, "pitch": 68, "duration": 7, "velocity": 72}, {"time": 844, "pitch": 65, "duration": 8, "velocity": 71}, {"time": 850, "pitch": 60, "duration": 2, "velocity": 71}, {"time": 862, "pitch": 46, "duration": 44, "velocity": 72}, {"time": 862, "pitch": 58, "duration": 7, "velocity": 63}, {"time": 862, "pitch": 61, "duration": 13, "velocity": 56}, {"time": 868, "pitch": 53, "duration": 37, "velocity": 68}, {"time": 874, "pitch": 58, "duration": 14, "velocity": 75}, {"time": 880, "pitch": 61, "duration": 8, "velocity": 75}, {"time": 886, "pitch": 65, "duration": 5, "velocity": 68}, {"time": 910, "pitch": 44, "duration": 37, "velocity": 72}, {"time": 910, "pitch": 56, "duration": 6, "velocity": 66}, {"time": 910, "pitch": 60, "duration": 13, "velocity": 65}, {"time": 916, "pitch": 51, "duration": 28, "velocity": 73}, {"time": 922, "pitch": 63, "duration": 19, "velocity": 69}, {"time": 928, "pitch": 56, "duration": 13, "velocity": 69}, {"time": 934, "pitch": 68, "duration": 10, "velocity": 71}, {"time": 958, "pitch": 39, "duration": 44, "velocity": 70}, {"time": 958, "pitch": 58, "duration": 7, "velocity": 63}, {"time": 958, "pitch": 63, "duration": 13, "velocity": 68}, {"time": 964, "pitch": 46, "duration": 39, "velocity": 71}, {"time": 970, "pitch": 58, "duration": 17, "velocity": 76}, {"time": 976, "pitch": 63, "duration": 27, "velocity": 76}, {"time": 982, "pitch": 66, "duration": 24, "velocity": 63}, {"time": 1006, "pitch": 41, "duration": 34, "velocity": 73}, {"time": 1006, "pitch": 65, "duration": 18, "velocity": 71}, {"time": 1012, "pitch": 48, "duration": 27, "velocity": 67}, {"time": 1018, "pitch": 53, "duration": 13, "velocity": 82}, {"time": 1024, "pitch": 56, "duration": 7, "velocity": 74}, {"time": 1030, "pitch": 60, "duration": 13, "velocity": 72}, {"time": 1036, "pitch": 56, "duration": 7, "velocity": 71}, {"time": 1042, "pitch": 53, "duration": 3, "velocity": 80}, {"time": 1054, "pitch": 46, "duration": 17, "velocity": 72}, {"time": 1054, "pitch": 58, "duration": 6, "velocity": 69}, {"time": 1054, "pitch": 61, "duration": 13, "velocity": 67}, {"time": 1060, "pitch": 53, "duration": 10, "velocity": 72}, {"time": 1066, "pitch": 58, "duration": 9, "velocity": 75}, {"time": 1072, "pitch": 61, "duration": 3, "velocity": 65}, {"time": 1078, "pitch": 44, "duration": 14, "velocity": 71}, {"time": 1078, "pitch": 56, "duration": 11, "velocity": 72}, {"time": 1078, "pitch": 60, "duration": 12, "velocity": 73}, {"time": 1102, "pitch": 46, "duration": 27, "velocity": 72}, {"time": 1102, "pitch": 58, "duration": 7, "velocity": 65}, {"time": 1102, "pitch": 61, "duration": 12, "velocity": 68}, {"time": 1108, "pitch": 53, "duration": 21, "velocity": 71}, {"time": 1114, "pitch": 58, "duration": 8, "velocity": 76}, {"time": 1120, "pitch": 61, "duration": 3, "velocity": 82}, {"time": 1126, "pitch": 58, "duration": 21, "velocity": 71}, {"time": 1126, "pitch": 61, "duration": 21, "velocity": 77}, {"time": 1126, "pitch": 65, "duration": 20, "velocity": 74}, {"time": 1150, "pitch": 46, "duration": 11, "velocity": 73}, {"time": 1150, "pitch": 58, "duration": 7, "velocity": 71}, {"time": 1150, "pitch": 61, "duration": 12, "velocity": 73}, {"time": 1156, "pitch": 53, "duration": 6, "velocity": 73}, {"time": 1162, "pitch": 58, "duration": 8, "velocity": 75}, {"time": 1168, "pitch": 61, "duration": 7, "velocity": 78}, {"time": 1174, "pitch": 39, "duration": 13, "velocity": 73}, {"time": 1174, "pitch": 63, "duration": 22, "velocity": 72}, {"time": 1198, "pitch": 41, "duration": 36, "velocity": 73}, {"time": 1198, "pitch": 65, "duration": 19, "velocity": 72}, {"time": 1204, "pitch": 48, "duration": 29, "velocity": 63}, {"time": 1210, "pitch": 53, "duration": 14, "velocity": 78}, {"time": 1216, "pitch": 60, "duration": 7, "velocity": 72}, {"time": 1222, "pitch": 65, "duration": 18, "velocity": 85}, {"time": 1228, "pitch": 60, "duration": 7, "velocity": 71}, {"time": 1234, "pitch": 53, "duration": 2, "velocity": 76}, {"time": 1246, "pitch": 46, "duration": 38, "velocity": 73}, {"time": 1246, "pitch": 58, "duration": 8, "velocity": 63}, {"time": 1246, "pitch": 61, "duration": 12, "velocity": 64}, {"time": 1252, "pitch": 53, "duration": 32, "velocity": 67}, {"time": 1258, "pitch": 58, "duration": 8, "velocity": 71}, {"time": 1264, "pitch": 61, "duration": 4, "velocity": 73}, {"time": 1270, "pitch": 58, "duration": 3, "velocity": 72}, {"time": 1270, "pitch": 65, "duration": 3, "velocity": 73}, {"time": 1294, "pitch": 44, "duration": 35, "velocity": 72}, {"time": 1294, "pitch": 63, "duration": 7, "velocity": 71}, {"time": 1294, "pitch": 72, "duration": 15, "velocity": 71}, {"time": 1300, "pitch": 51, "duration": 26, "velocity": 62}, {"time": 1306, "pitch": 63, "duration": 8, "velocity": 78}, {"time": 1312, "pitch": 68, "duration": 3, "velocity": 72}, {"time": 1318, "pitch": 63, "duration": 10, "velocity": 70}, {"time": 1318, "pitch": 68, "duration": 9, "velocity": 72}, {"time": 1318, "pitch": 72, "duration": 9, "velocity": 73}, {"time": 1342, "pitch": 39, "duration": 23, "velocity": 74}, {"time": 1342, "pitch": 58, "duration": 7, "velocity": 69}, {"time": 1342, "pitch": 66, "duration": 18, "velocity": 71}, {"time": 1348, "pitch": 46, "duration": 17, "velocity": 62}, {"time": 1354, "pitch": 58, "duration": 9, "velocity": 76}, {"time": 1360, "pitch": 63, "duration": 5, "velocity": 76}, {"time": 1366, "pitch": 41, "duration": 16, "velocity": 73}, {"time": 1366, "pitch": 65, "duration": 29, "velocity": 73}, {"time": 1390, "pitch": 46, "duration": 38, "velocity": 76}, {"time": 1396, "pitch": 53, "duration": 25, "velocity": 69}, {"time": 1402, "pitch": 58, "duration": 8, "velocity": 80}, {"time": 1408, "pitch": 61, "duration": 3, "velocity": 76}, {"time": 1414, "pitch": 61, "duration": 7, "velocity": 76}, {"time": 1414, "pitch": 65, "duration": 15, "velocity": 74}, {"time": 1420, "pitch": 58, "duration": 8, "velocity": 76}, {"time": 1426, "pitch": 53, "duration": 3, "velocity": 72}, {"time": 1432, "pitch": 58, "duration": 3, "velocity": 71}, {"time": 1438, "pitch": 46, "duration": 29, "velocity": 73}, {"time": 1438, "pitch": 58, "duration": 7, "velocity": 64}, {"time": 1438, "pitch": 61, "duration": 9, "velocity": 69}, {"time": 1438, "pitch": 65, "duration": 9, "velocity": 71}, {"time": 1438, "pitch": 70, "duration": 8, "velocity": 66}, {"time": 1444, "pitch": 53, "duration": 20, "velocity": 71}, {"time": 1450, "pitch": 58, "duration": 2, "velocity": 71}, {"time": 1456, "pitch": 58, "duration": 4, "velocity": 73}, {"time": 1456, "pitch": 61, "duration": 4, "velocity": 73}, {"time": 1462, "pitch": 58, "duration": 8, "velocity": 76}, {"time": 1462, "pitch": 61, "duration": 8, "velocity": 82}, {"time": 1468, "pitch": 46, "duration": 8, "velocity": 56}, {"time": 1468, "pitch": 53, "duration": 8, "velocity": 78}, {"time": 1474, "pitch": 58, "duration": 2, "velocity": 73}, {"time": 1474, "pitch": 61, "duration": 2, "velocity": 85}, {"time": 1474, "pitch": 65, "duration": 3, "velocity": 80}, {"time": 1486, "pitch": 46, "duration": 28, "velocity": 76}, {"time": 1486, "pitch": 58, "duration": 6, "velocity": 73}, {"time": 1486, "pitch": 70, "duration": 5, "velocity": 73}, {"time": 1492, "pitch": 53, "duration": 20, "velocity": 65}, {"time": 1498, "pitch": 58, "duration": 4, "velocity": 71}, {"time": 1504, "pitch": 61, "duration": 2, "velocity": 73}, {"time": 1510, "pitch": 58, "duration": 7, "velocity": 76}, {"time": 1510, "pitch": 61, "duration": 8, "velocity": 80}, {"time": 1510, "pitch": 65, "duration": 10, "velocity": 80}, {"time": 1516, "pitch": 53, "duration": 6, "velocity": 72}, {"time": 1522, "pitch": 58, "duration": 3, "velocity": 82}, {"time": 1534, "pitch": 39, "duration": 29, "velocity": 78}, {"time": 1534, "pitch": 58, "duration": 6, "velocity": 70}, {"time": 1534, "pitch": 63, "duration": 13, "velocity": 69}, {"time": 1540, "pitch": 46, "duration": 21, "velocity": 62}, {"time": 1546, "pitch": 58, "duration": 8, "velocity": 77}, {"time": 1552, "pitch": 63, "duration": 4, "velocity": 66}, {"time": 1558, "pitch": 58, "duration": 8, "velocity": 76}, {"time": 1558, "pitch": 63, "duration": 13, "velocity": 82}, {"time": 1564, "pitch": 46, "duration": 5, "velocity": 77}, {"time": 1570, "pitch": 58, "duration": 3, "velocity": 78}, {"time": 1582, "pitch": 41, "duration": 32, "velocity": 74}, {"time": 1582, "pitch": 60, "duration": 5, "velocity": 71}, {"time": 1582, "pitch": 65, "duration": 12, "velocity": 75}, {"time": 1588, "pitch": 48, "duration": 20, "velocity": 61}, {"time": 1594, "pitch": 60, "duration": 7, "velocity": 74}, {"time": 1600, "pitch": 65, "duration": 3, "velocity": 73}, {"time": 1606, "pitch": 60, "duration": 13, "velocity": 76}, {"time": 1606, "pitch": 68, "duration": 12, "velocity": 75}, {"time": 1612, "pitch": 48, "duration": 3, "velocity": 67}, {"time": 1618, "pitch": 65, "duration": 6, "velocity": 78}, {"time": 1624, "pitch": 60, "duration": 3, "velocity": 78}, {"time": 1630, "pitch": 46, "duration": 37, "velocity": 72}, {"time": 1630, "pitch": 58, "duration": 6, "velocity": 72}, {"time": 1630, "pitch": 61, "duration": 9, "velocity": 76}, {"time": 1636, "pitch": 53, "duration": 21, "velocity": 67}, {"time": 1642, "pitch": 58, "duration": 10, "velocity": 75}, {"time": 1654, "pitch": 61, "duration": 8, "velocity": 82}, {"time": 1660, "pitch": 53, "duration": 8, "velocity": 73}, {"time": 1666, "pitch": 58, "duration": 3, "velocity": 72}, {"time": 1666, "pitch": 61, "duration": 3, "velocity": 85}, {"time": 1666, "pitch": 65, "duration": 3, "velocity": 82}, {"time": 1672, "pitch": 58, "duration": 4, "velocity": 73}, {"time": 1678, "pitch": 46, "duration": 30, "velocity": 73}, {"time": 1678, "pitch": 70, "duration": 18, "velocity": 77}, {"time": 1684, "pitch": 53, "duration": 23, "velocity": 69}, {"time": 1690, "pitch": 58, "duration": 8, "velocity": 72}, {"time": 1696, "pitch": 65, "duration": 7, "velocity": 70}, {"time": 1702, "pitch": 61, "duration": 6, "velocity": 75}, {"time": 1708, "pitch": 58, "duration": 7, "velocity": 85}, {"time": 1714, "pitch": 53, "duration": 2, "velocity": 76}, {"time": 1726, "pitch": 41, "duration": 34, "velocity": 73}, {"time": 1726, "pitch": 60, "duration": 7, "velocity": 71}, {"time": 1726, "pitch": 65, "duration": 12, "velocity": 73}, {"time": 1732, "pitch": 48, "duration": 25, "velocity": 66}, {"time": 1738, "pitch": 60, "duration": 8, "velocity": 72}, {"time": 1744, "pitch": 65, "duration": 4, "velocity": 72}, {"time": 1750, "pitch": 68, "duration": 6, "velocity": 77}, {"time": 1756, "pitch": 65, "duration": 6, "velocity": 87}, {"time": 1762, "pitch": 60, "duration": 4, "velocity": 80}, {"time": 1774, "pitch": 39, "duration": 39, "velocity": 73}, {"time": 1774, "pitch": 58, "duration": 6, "velocity": 70}, {"time": 1774, "pitch": 63, "duration": 12, "velocity": 70}, {"time": 1780, "pitch": 46, "duration": 32, "velocity": 64}, {"time": 1786, "pitch": 58, "duration": 11, "velocity": 73}, {"time": 1792, "pitch": 63, "duration": 6, "velocity": 74}, {"time": 1798, "pitch": 66, "duration": 8, "velocity": 73}, {"time": 1804, "pitch": 63, "duration": 7, "velocity": 73}, {"time": 1810, "pitch": 58, "duration": 2, "velocity": 73}, {"time": 1822, "pitch": 41, "duration": 35, "velocity": 76}, {"time": 1822, "pitch": 60, "duration": 5, "velocity": 72}, {"time": 1822, "pitch": 65, "duration": 7, "velocity": 76}, {"time": 1828, "pitch": 48, "duration": 20, "velocity": 70}, {"time": 1834, "pitch": 60, "duration": 2, "velocity": 75}, {"time": 1840, "pitch": 60, "duration": 3, "velocity": 76}, {"time": 1840, "pitch": 72, "duration": 3, "velocity": 72}, {"time": 1846, "pitch": 60, "duration": 4, "velocity": 85}, {"time": 1846, "pitch": 72, "duration": 8, "velocity": 77}, {"time": 1852, "pitch": 48, "duration": 5, "velocity": 75}, {"time": 1852, "pitch": 70, "duration": 7, "velocity": 77}, {"time": 1858, "pitch": 68, "duration": 6, "velocity": 73}, {"time": 1864, "pitch": 65, "duration": 5, "velocity": 77}, {"time": 1870, "pitch": 46, "duration": 30, "velocity": 74}, {"time": 1870, "pitch": 70, "duration": 13, "velocity": 74}, {"time": 1876, "pitch": 53, "duration": 22, "velocity": 63}, {"time": 1882, "pitch": 58, "duration": 8, "velocity": 74}, {"time": 1888, "pitch": 65, "duration": 4, "velocity": 67}, {"time": 1894, "pitch": 58, "duration": 8, "velocity": 72}, {"time": 1894, "pitch": 61, "duration": 10, "velocity": 74}, {"time": 1894, "pitch": 65, "duration": 12, "velocity": 74}, {"time": 1900, "pitch": 53, "duration": 10, "velocity": 72}, {"time": 1906, "pitch": 58, "duration": 4, "velocity": 80}, {"time": 1918, "pitch": 51, "duration": 26, "velocity": 80}, {"time": 1918, "pitch": 58, "duration": 7, "velocity": 71}, {"time": 1918, "pitch": 63, "duration": 12, "velocity": 73}, {"time": 1924, "pitch": 54, "duration": 20, "velocity": 61}, {"time": 1930, "pitch": 58, "duration": 7, "velocity": 78}, {"time": 1936, "pitch": 63, "duration": 3, "velocity": 73}, {"time": 1942, "pitch": 58, "duration": 9, "velocity": 75}, {"time": 1942, "pitch": 66, "duration": 13, "velocity": 78}, {"time": 1948, "pitch": 54, "duration": 7, "velocity": 68}, {"time": 1954, "pitch": 63, "duration": 6, "velocity": 77}, {"time": 1960, "pitch": 58, "duration": 4, "velocity": 71}, {"time": 1966, "pitch": 41, "duration": 31, "velocity": 73}, {"time": 1966, "pitch": 65, "duration": 11, "velocity": 71}, {"time": 1972, "pitch": 48, "duration": 20, "velocity": 67}, {"time": 1978, "pitch": 60, "duration": 8, "velocity": 76}, {"time": 1984, "pitch": 65, "duration": 3, "velocity": 72}, {"time": 1990, "pitch": 60, "duration": 8, "velocity": 75}, {"time": 1990, "pitch": 68, "duration": 12, "velocity": 76}, {"time": 1996, "pitch": 48, "duration": 3, "velocity": 63}, {"time": 2002, "pitch": 65, "duration": 6, "velocity": 78}, {"time": 2008, "pitch": 60, "duration": 3, "velocity": 73}, {"time": 2014, "pitch": 46, "duration": 29, "velocity": 72}, {"time": 2014, "pitch": 58, "duration": 9, "velocity": 69}, {"time": 2014, "pitch": 61, "duration": 10, "velocity": 74}, {"time": 2020, "pitch": 53, "duration": 20, "velocity": 69}, {"time": 2032, "pitch": 58, "duration": 3, "velocity": 70}, {"time": 2038, "pitch": 58, "duration": 5, "velocity": 75}, {"time": 2038, "pitch": 65, "duration": 6, "velocity": 82}, {"time": 2044, "pitch": 46, "duration": 5, "velocity": 48}, {"time": 2044, "pitch": 53, "duration": 7, "velocity": 71}, {"time": 2050, "pitch": 58, "duration": 2, "velocity": 71}, {"time": 2050, "pitch": 61, "duration": 2, "velocity": 75}, {"time": 2062, "pitch": 46, "duration": 32, "velocity": 73}, {"time": 2062, "pitch": 58, "duration": 5, "velocity": 73}, {"time": 2062, "pitch": 70, "duration": 6, "velocity": 71}, {"time": 2068, "pitch": 53, "duration": 24, "velocity": 70}, {"time": 2074, "pitch": 58, "duration": 7, "velocity": 71}, {"time": 2080, "pitch": 65, "duration": 6, "velocity": 67}, {"time": 2086, "pitch": 61, "duration": 6, "velocity": 72}, {"time": 2092, "pitch": 58, "duration": 3, "velocity": 80}, {"time": 2098, "pitch": 53, "duration": 3, "velocity": 82}, {"time": 2104, "pitch": 46, "duration": 2, "velocity": 60}, {"time": 2110, "pitch": 41, "duration": 38, "velocity": 73}, {"time": 2110, "pitch": 60, "duration": 9, "velocity": 71}, {"time": 2110, "pitch": 68, "duration": 12, "velocity": 66}, {"time": 2116, "pitch": 48, "duration": 28, "velocity": 62}, {"time": 2122, "pitch": 65, "duration": 5, "velocity": 68}, {"time": 2128, "pitch": 60, "duration": 2, "velocity": 72}, {"time": 2134, "pitch": 60, "duration": 3, "velocity": 74}, {"time": 2134, "pitch": 68, "duration": 4, "velocity": 71}, {"time": 2140, "pitch": 65, "duration": 5, "velocity": 82}, {"time": 2146, "pitch": 60, "duration": 2, "velocity": 73}, {"time": 2158, "pitch": 39, "duration": 17, "velocity": 74}, {"time": 2158, "pitch": 58, "duration": 6, "velocity": 71}, {"time": 2158, "pitch": 63, "duration": 12, "velocity": 71}, {"time": 2164, "pitch": 46, "duration": 12, "velocity": 61}, {"time": 2170, "pitch": 58, "duration": 6, "velocity": 73}, {"time": 2182, "pitch": 41, "duration": 13, "velocity": 73}, {"time": 2182, "pitch": 60, "duration": 7, "velocity": 70}, {"time": 2182, "pitch": 65, "duration": 12, "velocity": 73}, {"time": 2188, "pitch": 48, "duration": 7, "velocity": 64}, {"time": 2194, "pitch": 60, "duration": 3, "velocity": 78}, {"time": 2206, "pitch": 46, "duration": 44, "velocity": 72}, {"time": 2206, "pitch": 58, "duration": 14, "velocity": 67}, {"time": 2206, "pitch": 61, "duration": 12, "velocity": 70}, {"time": 2212, "pitch": 53, "duration": 38, "velocity": 71}, {"time": 2218, "pitch": 65, "duration": 6, "velocity": 67}, {"time": 2224, "pitch": 61, "duration": 8, "velocity": 57}, {"time": 2230, "pitch": 70, "duration": 7, "velocity": 75}, {"time": 2236, "pitch": 58, "duration": 6, "velocity": 71}, {"time": 2242, "pitch": 65, "duration": 8, "velocity": 71}, {"time": 2248, "pitch": 58, "duration": 4, "velocity": 59}, {"time": 2254, "pitch": 46, "duration": 45, "velocity": 72}, {"time": 2254, "pitch": 58, "duration": 7, "velocity": 68}, {"time": 2254, "pitch": 61, "duration": 9, "velocity": 70}, {"time": 2260, "pitch": 53, "duration": 37, "velocity": 62}, {"time": 2266, "pitch": 65, "duration": 14, "velocity": 65}, {"time": 2272, "pitch": 58, "duration": 10, "velocity": 64}, {"time": 2278, "pitch": 70, "duration": 4, "velocity": 71}, {"time": 2302, "pitch": 46, "duration": 44, "velocity": 72}, {"time": 2302, "pitch": 58, "duration": 6, "velocity": 61}, {"time": 2302, "pitch": 61, "duration": 12, "velocity": 65}, {"time": 2308, "pitch": 53, "duration": 38, "velocity": 66}, {"time": 2314, "pitch": 58, "duration": 8, "velocity": 66}, {"time": 2320, "pitch": 65, "duration": 7, "velocity": 65}, {"time": 2326, "pitch": 70, "duration": 12, "velocity": 73}, {"time": 2332, "pitch": 65, "duration": 32, "velocity": 66}, {"time": 2338, "pitch": 58, "duration": 19, "velocity": 69}, {"time": 2350, "pitch": 46, "duration": 42, "velocity": 72}, {"time": 2356, "pitch": 53, "duration": 33, "velocity": 65}, {"time": 2362, "pitch": 61, "duration": 7, "velocity": 69}, {"time": 2368, "pitch": 58, "duration": 5, "velocity": 70}, {"time": 2374, "pitch": 58, "duration": 2, "velocity": 50}, {"time": 2374, "pitch": 61, "duration": 12, "velocity": 66}, {"time": 2374, "pitch": 70, "duration": 12, "velocity": 72}, {"time": 2398, "pitch": 42, "duration": 21, "velocity": 73}, {"time": 2404, "pitch": 49, "duration": 16, "velocity": 65}, {"time": 2410, "pitch": 54, "duration": 8, "velocity": 80}, {"time": 2416, "pitch": 58, "duration": 5, "velocity": 72}, {"time": 2422, "pitch": 44, "duration": 17, "velocity": 72}, {"time": 2422, "pitch": 56, "duration": 7, "velocity": 70}, {"time": 2422, "pitch": 60, "duration": 11, "velocity": 72}, {"time": 2428, "pitch": 51, "duration": 10, "velocity": 65}, {"time": 2434, "pitch": 56, "duration": 3, "velocity": 85}, {"time": 2446, "pitch": 49, "duration": 21, "velocity": 75}, {"time": 2446, "pitch": 56, "duration": 7, "velocity": 74}, {"time": 2446, "pitch": 65, "duration": 14, "velocity": 72}, {"time": 2452, "pitch": 53, "duration": 14, "velocity": 70}, {"time": 2458, "pitch": 56, "duration": 8, "velocity": 73}, {"time": 2464, "pitch": 61, "duration": 4, "velocity": 74}, {"time": 2470, "pitch": 56, "duration": 10, "velocity": 71}, {"time": 2470, "pitch": 61, "duration": 12, "velocity": 74}, {"time": 2470, "pitch": 65, "duration": 13, "velocity": 75}, {"time": 2494, "pitch": 46, "duration": 37, "velocity": 72}, {"time": 2494, "pitch": 58, "duration": 6, "velocity": 67}, {"time": 2494, "pitch": 61, "duration": 8, "velocity": 70}, {"time": 2500, "pitch": 53, "duration": 28, "velocity": 71}, {"time": 2506, "pitch": 58, "duration": 8, "velocity": 75}, {"time": 2512, "pitch": 65, "duration": 7, "velocity": 71}, {"time": 2518, "pitch": 70, "duration": 7, "velocity": 75}, {"time": 2524, "pitch": 65, "duration": 8, "velocity": 73}, {"time": 2530, "pitch": 58, "duration": 4, "velocity": 75}, {"time": 2542, "pitch": 39, "duration": 2, "velocity": 72}, {"time": 2542, "pitch": 63, "duration": 8, "velocity": 71}, {"time": 2548, "pitch": 51, "duration": 30, "velocity": 67}, {"time": 2554, "pitch": 58, "duration": 23, "velocity": 72}, {"time": 2560, "pitch": 63, "duration": 8, "velocity": 72}, {"time": 2566, "pitch": 70, "duration": 7, "velocity": 69}, {"time": 2572, "pitch": 75, "duration": 8, "velocity": 78}, {"time": 2578, "pitch": 70, "duration": 3, "velocity": 72}, {"time": 2590, "pitch": 41, "duration": 28, "velocity": 67}, {"time": 2590, "pitch": 53, "duration": 7, "velocity": 65}, {"time": 2590, "pitch": 56, "duration": 12, "velocity": 64}, {"time": 2596, "pitch": 48, "duration": 22, "velocity": 71}, {"time": 2602, "pitch": 53, "duration": 14, "velocity": 74}, {"time": 2608, "pitch": 56, "duration": 7, "velocity": 72}, {"time": 2614, "pitch": 60, "duration": 6, "velocity": 68}, {"time": 2638, "pitch": 46, "duration": 42, "velocity": 72}, {"time": 2638, "pitch": 58, "duration": 6, "velocity": 66}, {"time": 2638, "pitch": 61, "duration": 13, "velocity": 66}, {"time": 2644, "pitch": 53, "duration": 34, "velocity": 71}, {"time": 2650, "pitch": 65, "duration": 13, "velocity": 66}, {"time": 2656, "pitch": 58, "duration": 9, "velocity": 71}, {"time": 2662, "pitch": 70, "duration": 8, "velocity": 75}, {"time": 2668, "pitch": 65, "duration": 8, "velocity": 68}, {"time": 2674, "pitch": 58, "duration": 4, "velocity": 71}, {"time": 2686, "pitch": 46, "duration": 43, "velocity": 72}, {"time": 2686, "pitch": 58, "duration": 14, "velocity": 62}, {"time": 2686, "pitch": 61, "duration": 13, "velocity": 65}, {"time": 2692, "pitch": 53, "duration": 37, "velocity": 67}, {"time": 2698, "pitch": 65, "duration": 13, "velocity": 67}, {"time": 2704, "pitch": 61, "duration": 7, "velocity": 56}, {"time": 2710, "pitch": 70, "duration": 9, "velocity": 72}, {"time": 2716, "pitch": 65, "duration": 8, "velocity": 73}, {"time": 2722, "pitch": 61, "duration": 6, "velocity": 70}, {"time": 2734, "pitch": 46, "duration": 17, "velocity": 72}, {"time": 2734, "pitch": 58, "duration": 6, "velocity": 69}, {"time": 2734, "pitch": 61, "duration": 13, "velocity": 67}, {"time": 2740, "pitch": 53, "duration": 10, "velocity": 72}, {"time": 2746, "pitch": 58, "duration": 9, "velocity": 75}, {"time": 2752, "pitch": 61, "duration": 3, "velocity": 65}, {"time": 2758, "pitch": 44, "duration": 14, "velocity": 71}, {"time": 2758, "pitch": 56, "duration": 11, "velocity": 72}, {"time": 2758, "pitch": 60, "duration": 12, "velocity": 73}, {"time": 2782, "pitch": 46, "duration": 27, "velocity": 72}, {"time": 2782, "pitch": 58, "duration": 7, "velocity": 65}, {"time": 2782, "pitch": 61, "duration": 12, "velocity": 68}, {"time": 2788, "pitch": 53, "duration": 21, "velocity": 71}, {"time": 2794, "pitch": 58, "duration": 8, "velocity": 76}, {"time": 2800, "pitch": 61, "duration": 3, "velocity": 82}, {"time": 2806, "pitch": 58, "duration": 21, "velocity": 71}, {"time": 2806, "pitch": 61, "duration": 21, "velocity": 77}, {"time": 2806, "pitch": 65, "duration": 20, "velocity": 74}, {"time": 2830, "pitch": 46, "duration": 11, "velocity": 73}, {"time": 2830, "pitch": 58, "duration": 7, "velocity": 71}, {"time": 2830, "pitch": 61, "duration": 12, "velocity": 73}, {"time": 2836, "pitch": 53, "duration": 6, "velocity": 73}, {"time": 2842, "pitch": 58, "duration": 8, "velocity": 75}, {"time": 2848, "pitch": 61, "duration": 7, "velocity": 78}, {"time": 2854, "pitch": 39, "duration": 13, "velocity": 73}, {"time": 2854, "pitch": 63, "duration": 22, "velocity": 72}, {"time": 2878, "pitch": 41, "duration": 36, "velocity": 73}, {"time": 2878, "pitch": 65, "duration": 19, "velocity": 72}, {"time": 2884, "pitch": 48, "duration": 29, "velocity": 63}, {"time": 2890, "pitch": 53, "duration": 14, "velocity": 78}, {"time": 2896, "pitch": 60, "duration": 7, "velocity": 72}, {"time": 2902, "pitch": 65, "duration": 18, "velocity": 85}, {"time": 2908, "pitch": 60, "duration": 7, "velocity": 71}, {"time": 2914, "pitch": 53, "duration": 2, "velocity": 76}, {"time": 2926, "pitch": 46, "duration": 38, "velocity": 73}, {"time": 2926, "pitch": 58, "duration": 8, "velocity": 63}, {"time": 2926, "pitch": 61, "duration": 12, "velocity": 64}, {"time": 2932, "pitch": 53, "duration": 32, "velocity": 67}, {"time": 2938, "pitch": 58, "duration": 8, "velocity": 71}, {"time": 2944, "pitch": 61, "duration": 4, "velocity": 73}, {"time": 2950, "pitch": 58, "duration": 3, "velocity": 72}, {"time": 2950, "pitch": 65, "duration": 3, "velocity": 73}, {"time": 2974, "pitch": 44, "duration": 35, "velocity": 72}, {"time": 2974, "pitch": 63, "duration": 7, "velocity": 71}, {"time": 2974, "pitch": 72, "duration": 15, "velocity": 71}, {"time": 2980, "pitch": 51, "duration": 26, "velocity": 62}, {"time": 2986, "pitch": 63, "duration": 8, "velocity": 78}, {"time": 2992, "pitch": 68, "duration": 3, "velocity": 72}, {"time": 2998, "pitch": 63, "duration": 10, "velocity": 70}, {"time": 2998, "pitch": 68, "duration": 9, "velocity": 72}, {"time": 2998, "pitch": 72, "duration": 9, "velocity": 73}, {"time": 3022, "pitch": 39, "duration": 23, "velocity": 74}, {"time": 3022, "pitch": 58, "duration": 7, "velocity": 69}, {"time": 3022, "pitch": 66, "duration": 18, "velocity": 71}, {"time": 3028, "pitch": 46, "duration": 17, "velocity": 62}, {"time": 3034, "pitch": 58, "duration": 9, "velocity": 76}, {"time": 3040, "pitch": 63, "duration": 5, "velocity": 76}, {"time": 3046, "pitch": 41, "duration": 16, "velocity": 73}, {"time": 3046, "pitch": 65, "duration": 29, "velocity": 73}, {"time": 3070, "pitch": 46, "duration": 38, "velocity": 76}, {"time": 3076, "pitch": 53, "duration": 25, "velocity": 69}, {"time": 3082, "pitch": 58, "duration": 8, "velocity": 80}, {"time": 3088, "pitch": 61, "duration": 3, "velocity": 76}, {"time": 3094, "pitch": 61, "duration": 7, "velocity": 76}, {"time": 3094, "pitch": 65, "duration": 15, "velocity": 74}, {"time": 3100, "pitch": 58, "duration": 8, "velocity": 76}, {"time": 3106, "pitch": 53, "duration": 3, "velocity": 72}, {"time": 3112, "pitch": 58, "duration": 3, "velocity": 71}, {"time": 3118, "pitch": 46, "duration": 29, "velocity": 73}, {"time": 3118, "pitch": 58, "duration": 7, "velocity": 64}, {"time": 3118, "pitch": 61, "duration": 9, "velocity": 69}, {"time": 3118, "pitch": 65, "duration": 9, "velocity": 71}, {"time": 3118, "pitch": 70, "duration": 8, "velocity": 66}, {"time": 3124, "pitch": 53, "duration": 20, "velocity": 71}, {"time": 3130, "pitch": 58, "duration": 2, "velocity": 71}, {"time": 3136, "pitch": 58, "duration": 4, "velocity": 73}, {"time": 3136, "pitch": 61, "duration": 4, "velocity": 73}, {"time": 3142, "pitch": 58, "duration": 8, "velocity": 76}, {"time": 3142, "pitch": 61, "duration": 8, "velocity": 82}, {"time": 3148, "pitch": 46, "duration": 8, "velocity": 56}, {"time": 3148, "pitch": 53, "duration": 8, "velocity": 78}, {"time": 3154, "pitch": 58, "duration": 2, "velocity": 73}, {"time": 3154, "pitch": 61, "duration": 2, "velocity": 85}, {"time": 3154, "pitch": 65, "duration": 3, "velocity": 80}, {"time": 3166, "pitch": 46, "duration": 28, "velocity": 76}, {"time": 3166, "pitch": 58, "duration": 6, "velocity": 73}, {"time": 3166, "pitch": 70, "duration": 5, "velocity": 73}, {"time": 3172, "pitch": 53, "duration": 20, "velocity": 65}, {"time": 3178, "pitch": 58, "duration": 4, "velocity": 71}, {"time": 3184, "pitch": 61, "duration": 2, "velocity": 73}, {"time": 3190, "pitch": 58, "duration": 7, "velocity": 76}, {"time": 3190, "pitch": 61, "duration": 8, "velocity": 80}, {"time": 3190, "pitch": 65, "duration": 10, "velocity": 80}, {"time": 3196, "pitch": 53, "duration": 6, "velocity": 72}, {"time": 3202, "pitch": 58, "duration": 3, "velocity": 82}, {"time": 3214, "pitch": 39, "duration": 29, "velocity": 78}, {"time": 3214, "pitch": 58, "duration": 6, "velocity": 70}, {"time": 3214, "pitch": 63, "duration": 13, "velocity": 69}, {"time": 3220, "pitch": 46, "duration": 21, "velocity": 62}, {"time": 3226, "pitch": 58, "duration": 8, "velocity": 77}, {"time": 3232, "pitch": 63, "duration": 4, "velocity": 66}, {"time": 3238, "pitch": 58, "duration": 8, "velocity": 76}, {"time": 3238, "pitch": 63, "duration": 13, "velocity": 82}, {"time": 3244, "pitch": 46, "duration": 5, "velocity": 77}, {"time": 3250, "pitch": 58, "duration": 3, "velocity": 78}, {"time": 3262, "pitch": 41, "duration": 32, "velocity": 74}, {"time": 3262, "pitch": 60, "duration": 5, "velocity": 71}, {"time": 3262, "pitch": 65, "duration": 12, "velocity": 75}, {"time": 3268, "pitch": 48, "duration": 20, "velocity": 61}, {"time": 3274, "pitch": 60, "duration": 7, "velocity": 74}, {"time": 3280, "pitch": 65, "duration": 3, "velocity": 73}, {"time": 3286, "pitch": 60, "duration": 13, "velocity": 76}, {"time": 3286, "pitch": 68, "duration": 12, "velocity": 75}, {"time": 3292, "pitch": 48, "duration": 3, "velocity": 67}, {"time": 3298, "pitch": 65, "duration": 6, "velocity": 78}, {"time": 3304, "pitch": 60, "duration": 3, "velocity": 78}, {"time": 3310, "pitch": 46, "duration": 37, "velocity": 72}, {"time": 3310, "pitch": 58, "duration": 6, "velocity": 72}, {"time": 3310, "pitch": 61, "duration": 9, "velocity": 76}, {"time": 3316, "pitch": 53, "duration": 21, "velocity": 67}, {"time": 3322, "pitch": 58, "duration": 10, "velocity": 75}, {"time": 3334, "pitch": 61, "duration": 8, "velocity": 82}, {"time": 3340, "pitch": 53, "duration": 8, "velocity": 73}, {"time": 3346, "pitch": 58, "duration": 3, "velocity": 72}, {"time": 3346, "pitch": 61, "duration": 3, "velocity": 85}, {"time": 3346, "pitch": 65, "duration": 3, "velocity": 82}, {"time": 3352, "pitch": 58, "duration": 4, "velocity": 73}, {"time": 3358, "pitch": 46, "duration": 30, "velocity": 73}, {"time": 3358, "pitch": 70, "duration": 18, "velocity": 77}, {"time": 3364, "pitch": 53, "duration": 23, "velocity": 69}, {"time": 3370, "pitch": 58, "duration": 8, "velocity": 72}, {"time": 3376, "pitch": 65, "duration": 7, "velocity": 70}, {"time": 3382, "pitch": 61, "duration": 6, "velocity": 75}, {"time": 3388, "pitch": 58, "duration": 7, "velocity": 85}, {"time": 3394, "pitch": 53, "duration": 2, "velocity": 76}, {"time": 3406, "pitch": 41, "duration": 34, "velocity": 73}, {"time": 3406, "pitch": 60, "duration": 7, "velocity": 71}, {"time": 3406, "pitch": 65, "duration": 12, "velocity": 73}, {"time": 3412, "pitch": 48, "duration": 25, "velocity": 66}, {"time": 3418, "pitch": 60, "duration": 8, "velocity": 72}, {"time": 3424, "pitch": 65, "duration": 4, "velocity": 72}, {"time": 3430, "pitch": 68, "duration": 6, "velocity": 77}, {"time": 3436, "pitch": 65, "duration": 6, "velocity": 87}, {"time": 3442, "pitch": 60, "duration": 4, "velocity": 80}, {"time": 3454, "pitch": 39, "duration": 39, "velocity": 73}, {"time": 3454, "pitch": 58, "duration": 6, "velocity": 70}, {"time": 3454, "pitch": 63, "duration": 12, "velocity": 70}, {"time": 3460, "pitch": 46, "duration": 32, "velocity": 64}, {"time": 3466, "pitch": 58, "duration": 11, "velocity": 73}, {"time": 3472, "pitch": 63, "duration": 6, "velocity": 74}, {"time": 3478, "pitch": 66, "duration": 8, "velocity": 73}, {"time": 3484, "pitch": 63, "duration": 7, "velocity": 73}, {"time": 3490, "pitch": 58, "duration": 2, "velocity": 73}, {"time": 3502, "pitch": 41, "duration": 35, "velocity": 76}, {"time": 3502, "pitch": 60, "duration": 5, "velocity": 72}, {"time": 3502, "pitch": 65, "duration": 7, "velocity": 76}, {"time": 3508, "pitch": 48, "duration": 20, "velocity": 70}, {"time": 3514, "pitch": 60, "duration": 2, "velocity": 75}, {"time": 3520, "pitch": 60, "duration": 3, "velocity": 76}, {"time": 3520, "pitch": 72, "duration": 3, "velocity": 72}, {"time": 3526, "pitch": 60, "duration": 4, "velocity": 85}, {"time": 3526, "pitch": 72, "duration": 8, "velocity": 77}, {"time": 3532, "pitch": 48, "duration": 5, "velocity": 75}, {"time": 3532, "pitch": 70, "duration": 7, "velocity": 77}, {"time": 3538, "pitch": 68, "duration": 6, "velocity": 73}, {"time": 3544, "pitch": 65, "duration": 5, "velocity": 77}, {"time": 3550, "pitch": 46, "duration": 30, "velocity": 74}, {"time": 3550, "pitch": 70, "duration": 13, "velocity": 74}, {"time": 3556, "pitch": 53, "duration": 22, "velocity": 63}, {"time": 3562, "pitch": 58, "duration": 8, "velocity": 74}, {"time": 3568, "pitch": 65, "duration": 4, "velocity": 67}, {"time": 3574, "pitch": 58, "duration": 8, "velocity": 72}, {"time": 3574, "pitch": 61, "duration": 10, "velocity": 74}, {"time": 3574, "pitch": 65, "duration": 12, "velocity": 74}, {"time": 3580, "pitch": 53, "duration": 10, "velocity": 72}, {"time": 3586, "pitch": 58, "duration": 4, "velocity": 80}, {"time": 3598, "pitch": 51, "duration": 26, "velocity": 80}, {"time": 3598, "pitch": 58, "duration": 7, "velocity": 71}, {"time": 3598, "pitch": 63, "duration": 12, "velocity": 73}, {"time": 3604, "pitch": 54, "duration": 20, "velocity": 61}, {"time": 3610, "pitch": 58, "duration": 7, "velocity": 78}, {"time": 3616, "pitch": 63, "duration": 3, "velocity": 73}, {"time": 3622, "pitch": 58, "duration": 9, "velocity": 75}, {"time": 3622, "pitch": 66, "duration": 13, "velocity": 78}, {"time": 3628, "pitch": 54, "duration": 7, "velocity": 68}, {"time": 3634, "pitch": 63, "duration": 6, "velocity": 77}, {"time": 3640, "pitch": 58, "duration": 4, "velocity": 71}, {"time": 3646, "pitch": 41, "duration": 31, "velocity": 73}, {"time": 3646, "pitch": 65, "duration": 11, "velocity": 71}, {"time": 3652, "pitch": 48, "duration": 20, "velocity": 67}, {"time": 3658, "pitch": 60, "duration": 8, "velocity": 76}, {"time": 3664, "pitch": 65, "duration": 3, "velocity": 72}, {"time": 3670, "pitch": 60, "duration": 8, "velocity": 75}, {"time": 3670, "pitch": 68, "duration": 12, "velocity": 76}, {"time": 3676, "pitch": 48, "duration": 3, "velocity": 63}, {"time": 3682, "pitch": 65, "duration": 6, "velocity": 78}, {"time": 3688, "pitch": 60, "duration": 3, "velocity": 73}, {"time": 3694, "pitch": 46, "duration": 29, "velocity": 72}, {"time": 3694, "pitch": 58, "duration": 9, "velocity": 69}, {"time": 3694, "pitch": 61, "duration": 10, "velocity": 74}, {"time": 3700, "pitch": 53, "duration": 20, "velocity": 69}, {"time": 3712, "pitch": 58, "duration": 3, "velocity": 70}, {"time": 3718, "pitch": 58, "duration": 5, "velocity": 75}, {"time": 3718, "pitch": 65, "duration": 6, "velocity": 82}, {"time": 3724, "pitch": 46, "duration": 5, "velocity": 48}, {"time": 3724, "pitch": 53, "duration": 7, "velocity": 71}, {"time": 3730, "pitch": 58, "duration": 2, "velocity": 71}, {"time": 3730, "pitch": 61, "duration": 2, "velocity": 75}, {"time": 3742, "pitch": 46, "duration": 32, "velocity": 73}, {"time": 3742, "pitch": 58, "duration": 5, "velocity": 73}, {"time": 3742, "pitch": 70, "duration": 6, "velocity": 71}, {"time": 3748, "pitch": 53, "duration": 24, "velocity": 70}, {"time": 3754, "pitch": 58, "duration": 7, "velocity": 71}, {"time": 3760, "pitch": 65, "duration": 6, "velocity": 67}, {"time": 3766, "pitch": 61, "duration": 6, "velocity": 72}, {"time": 3772, "pitch": 58, "duration": 3, "velocity": 80}, {"time": 3778, "pitch": 53, "duration": 3, "velocity": 82}, {"time": 3784, "pitch": 46, "duration": 2, "velocity": 60}, {"time": 3790, "pitch": 41, "duration": 38, "velocity": 73}, {"time": 3790, "pitch": 60, "duration": 9, "velocity": 71}, {"time": 3790, "pitch": 68, "duration": 12, "velocity": 66}, {"time": 3796, "pitch": 48, "duration": 28, "velocity": 62}, {"time": 3802, "pitch": 65, "duration": 5, "velocity": 68}, {"time": 3808, "pitch": 60, "duration": 2, "velocity": 72}, {"time": 3814, "pitch": 60, "duration": 3, "velocity": 74}, {"time": 3814, "pitch": 68, "duration": 4, "velocity": 71}, {"time": 3820, "pitch": 65, "duration": 5, "velocity": 82}, {"time": 3826, "pitch": 60, "duration": 2, "velocity": 73}, {"time": 3838, "pitch": 39, "duration": 17, "velocity": 74}, {"time": 3838, "pitch": 58, "duration": 6, "velocity": 71}, {"time": 3838, "pitch": 63, "duration": 12, "velocity": 71}, {"time": 3844, "pitch": 46, "duration": 12, "velocity": 61}, {"time": 3850, "pitch": 58, "duration": 6, "velocity": 73}, {"time": 3862, "pitch": 41, "duration": 13, "velocity": 73}, {"time": 3862, "pitch": 60, "duration": 7, "velocity": 70}, {"time": 3862, "pitch": 65, "duration": 12, "velocity": 73}, {"time": 3868, "pitch": 48, "duration": 7, "velocity": 64}, {"time": 3874, "pitch": 60, "duration": 3, "velocity": 78}, {"time": 3886, "pitch": 46, "duration": 44, "velocity": 72}, {"time": 3886, "pitch": 58, "duration": 14, "velocity": 67}, {"time": 3886, "pitch": 61, "duration": 12, "velocity": 70}, {"time": 3892, "pitch": 53, "duration": 38, "velocity": 71}, {"time": 3898, "pitch": 65, "duration": 6, "velocity": 67}, {"time": 3904, "pitch": 61, "duration": 8, "velocity": 57}, {"time": 3910, "pitch": 70, "duration": 7, "velocity": 75}, {"time": 3916, "pitch": 58, "duration": 6, "velocity": 71}, {"time": 3922, "pitch": 65, "duration": 8, "velocity": 71}, {"time": 3928, "pitch": 58, "duration": 4, "velocity": 59}, {"time": 3934, "pitch": 61, "duration": 13, "velocity": 72}, {"time": 3934, "pitch": 65, "duration": 14, "velocity": 74}, {"time": 3934, "pitch": 58, "duration": 14, "velocity": 72}, {"time": 3934, "pitch": 46, "duration": 16, "velocity": 74}, {"time": 3958, "pitch": 70, "duration": 4, "velocity": 72}, {"time": 3958, "pitch": 61, "duration": 4, "velocity": 80}, {"time": 3958, "pitch": 58, "duration": 5, "velocity": 74}, {"time": 3981, "pitch": 66, "duration": 5, "velocity": 71}, {"time": 3982, "pitch": 63, "duration": 4, "velocity": 74}, {"time": 3982, "pitch": 58, "duration": 4, "velocity": 71}, {"time": 3982, "pitch": 39, "duration": 2, "velocity": 78}, {"time": 3989, "pitch": 66, "duration": 3, "velocity": 82}, {"time": 3989, "pitch": 63, "duration": 2, "velocity": 82}, {"time": 3989, "pitch": 58, "duration": 2, "velocity": 78}, {"time": 4005, "pitch": 66, "duration": 6, "velocity": 72}, {"time": 4005, "pitch": 75, "duration": 6, "velocity": 77}, {"time": 4005, "pitch": 63, "duration": 6, "velocity": 72}, {"time": 4006, "pitch": 39, "duration": 1, "velocity": 73}, {"time": 4014, "pitch": 66, "duration": 5, "velocity": 77}, {"time": 4014, "pitch": 63, "duration": 5, "velocity": 75}, {"time": 4015, "pitch": 75, "duration": 4, "velocity": 80}, {"time": 4023, "pitch": 66, "duration": 6, "velocity": 80}, {"time": 4023, "pitch": 75, "duration": 6, "velocity": 77}, {"time": 4023, "pitch": 63, "duration": 6, "velocity": 77}, {"time": 4030, "pitch": 41, "duration": 32, "velocity": 74}, {"time": 4030, "pitch": 60, "duration": 5, "velocity": 71}, {"time": 4030, "pitch": 65, "duration": 12, "velocity": 75}, {"time": 4036, "pitch": 48, "duration": 20, "velocity": 61}, {"time": 4042, "pitch": 60, "duration": 7, "velocity": 74}, {"time": 4048, "pitch": 65, "duration": 3, "velocity": 73}, {"time": 4054, "pitch": 60, "duration": 13, "velocity": 76}, {"time": 4054, "pitch": 68, "duration": 12, "velocity": 75}, {"time": 4060, "pitch": 48, "duration": 3, "velocity": 67}, {"time": 4066, "pitch": 65, "duration": 6, "velocity": 78}, {"time": 4072, "pitch": 60, "duration": 3, "velocity": 78}, {"time": 4078, "pitch": 46, "duration": 37, "velocity": 72}, {"time": 4078, "pitch": 58, "duration": 6, "velocity": 72}, {"time": 4078, "pitch": 61, "duration": 9, "velocity": 76}, {"time": 4084, "pitch": 53, "duration": 21, "velocity": 67}, {"time": 4090, "pitch": 58, "duration": 10, "velocity": 75}, {"time": 4102, "pitch": 61, "duration": 8, "velocity": 82}, {"time": 4108, "pitch": 53, "duration": 8, "velocity": 73}, {"time": 4114, "pitch": 58, "duration": 3, "velocity": 72}, {"time": 4114, "pitch": 61, "duration": 3, "velocity": 85}, {"time": 4114, "pitch": 65, "duration": 3, "velocity": 82}, {"time": 4120, "pitch": 58, "duration": 4, "velocity": 73}, {"time": 4126, "pitch": 46, "duration": 30, "velocity": 73}, {"time": 4126, "pitch": 70, "duration": 18, "velocity": 77}, {"time": 4132, "pitch": 53, "duration": 23, "velocity": 69}, {"time": 4138, "pitch": 58, "duration": 8, "velocity": 72}, {"time": 4144, "pitch": 65, "duration": 7, "velocity": 70}, {"time": 4150, "pitch": 61, "duration": 6, "velocity": 75}, {"time": 4156, "pitch": 58, "duration": 7, "velocity": 85}, {"time": 4162, "pitch": 53, "duration": 2, "velocity": 76}, {"time": 4174, "pitch": 41, "duration": 34, "velocity": 73}, {"time": 4174, "pitch": 60, "duration": 7, "velocity": 71}, {"time": 4174, "pitch": 65, "duration": 12, "velocity": 73}, {"time": 4180, "pitch": 48, "duration": 25, "velocity": 66}, {"time": 4186, "pitch": 60, "duration": 8, "velocity": 72}, {"time": 4192, "pitch": 65, "duration": 4, "velocity": 72}, {"time": 4198, "pitch": 68, "duration": 6, "velocity": 77}, {"time": 4204, "pitch": 65, "duration": 6, "velocity": 87}, {"time": 4210, "pitch": 60, "duration": 4, "velocity": 80}, {"time": 4222, "pitch": 39, "duration": 39, "velocity": 73}, {"time": 4222, "pitch": 58, "duration": 6, "velocity": 70}, {"time": 4222, "pitch": 63, "duration": 12, "velocity": 70}, {"time": 4228, "pitch": 46, "duration": 32, "velocity": 64}, {"time": 4234, "pitch": 58, "duration": 11, "velocity": 73}, {"time": 4240, "pitch": 63, "duration": 6, "velocity": 74}, {"time": 4246, "pitch": 66, "duration": 8, "velocity": 73}, {"time": 4252, "pitch": 63, "duration": 7, "velocity": 73}, {"time": 4258, "pitch": 58, "duration": 2, "velocity": 73}, {"time": 4270, "pitch": 41, "duration": 35, "velocity": 76}, {"time": 4270, "pitch": 60, "duration": 5, "velocity": 72}, {"time": 4270, "pitch": 65, "duration": 7, "velocity": 76}, {"time": 4276, "pitch": 48, "duration": 20, "velocity": 70}, {"time": 4282, "pitch": 60, "duration": 2, "velocity": 75}, {"time": 4288, "pitch": 60, "duration": 3, "velocity": 76}, {"time": 4288, "pitch": 72, "duration": 3, "velocity": 72}, {"time": 4294, "pitch": 60, "duration": 4, "velocity": 85}, {"time": 4294, "pitch": 72, "duration": 8, "velocity": 77}, {"time": 4300, "pitch": 48, "duration": 5, "velocity": 75}, {"time": 4300, "pitch": 70, "duration": 7, "velocity": 77}, {"time": 4306, "pitch": 68, "duration": 6, "velocity": 73}, {"time": 4312, "pitch": 65, "duration": 5, "velocity": 77}, {"time": 4318, "pitch": 46, "duration": 30, "velocity": 74}, {"time": 4318, "pitch": 70, "duration": 13, "velocity": 74}, {"time": 4324, "pitch": 53, "duration": 22, "velocity": 63}, {"time": 4330, "pitch": 58, "duration": 8, "velocity": 74}, {"time": 4336, "pitch": 65, "duration": 4, "velocity": 67}, {"time": 4342, "pitch": 58, "duration": 8, "velocity": 72}, {"time": 4342, "pitch": 61, "duration": 10, "velocity": 74}, {"time": 4342, "pitch": 65, "duration": 12, "velocity": 74}, {"time": 4348, "pitch": 53, "duration": 10, "velocity": 72}, {"time": 4354, "pitch": 58, "duration": 4, "velocity": 80}, {"time": 4366, "pitch": 51, "duration": 26, "velocity": 80}, {"time": 4366, "pitch": 58, "duration": 7, "velocity": 71}, {"time": 4366, "pitch": 63, "duration": 12, "velocity": 73}, {"time": 4372, "pitch": 54, "duration": 20, "velocity": 61}, {"time": 4378, "pitch": 58, "duration": 7, "velocity": 78}, {"time": 4384, "pitch": 63, "duration": 3, "velocity": 73}, {"time": 4390, "pitch": 58, "duration": 9, "velocity": 75}, {"time": 4390, "pitch": 66, "duration": 13, "velocity": 78}, {"time": 4396, "pitch": 54, "duration": 7, "velocity": 68}, {"time": 4402, "pitch": 63, "duration": 6, "velocity": 77}, {"time": 4408, "pitch": 58, "duration": 4, "velocity": 71}, {"time": 4414, "pitch": 41, "duration": 31, "velocity": 73}, {"time": 4414, "pitch": 65, "duration": 11, "velocity": 71}, {"time": 4420, "pitch": 48, "duration": 20, "velocity": 67}, {"time": 4426, "pitch": 60, "duration": 8, "velocity": 76}, {"time": 4432, "pitch": 65, "duration": 3, "velocity": 72}, {"time": 4438, "pitch": 60, "duration": 8, "velocity": 75}, {"time": 4438, "pitch": 68, "duration": 12, "velocity": 76}, {"time": 4444, "pitch": 48, "duration": 3, "velocity": 63}, {"time": 4450, "pitch": 65, "duration": 6, "velocity": 78}, {"time": 4456, "pitch": 60, "duration": 3, "velocity": 73}, {"time": 4462, "pitch": 46, "duration": 29, "velocity": 72}, {"time": 4462, "pitch": 58, "duration": 9, "velocity": 69}, {"time": 4462, "pitch": 61, "duration": 10, "velocity": 74}, {"time": 4468, "pitch": 53, "duration": 20, "velocity": 69}, {"time": 4480, "pitch": 58, "duration": 3, "velocity": 70}, {"time": 4486, "pitch": 58, "duration": 5, "velocity": 75}, {"time": 4486, "pitch": 65, "duration": 6, "velocity": 82}, {"time": 4492, "pitch": 46, "duration": 5, "velocity": 48}, {"time": 4492, "pitch": 53, "duration": 7, "velocity": 71}, {"time": 4498, "pitch": 58, "duration": 2, "velocity": 71}, {"time": 4498, "pitch": 61, "duration": 2, "velocity": 75}, {"time": 4510, "pitch": 46, "duration": 32, "velocity": 73}, {"time": 4510, "pitch": 58, "duration": 5, "velocity": 73}, {"time": 4510, "pitch": 70, "duration": 6, "velocity": 71}, {"time": 4516, "pitch": 53, "duration": 24, "velocity": 70}, {"time": 4522, "pitch": 58, "duration": 7, "velocity": 71}, {"time": 4528, "pitch": 65, "duration": 6, "velocity": 67}, {"time": 4534, "pitch": 61, "duration": 6, "velocity": 72}, {"time": 4540, "pitch": 58, "duration": 3, "velocity": 80}, {"time": 4546, "pitch": 53, "duration": 3, "velocity": 82}, {"time": 4552, "pitch": 46, "duration": 2, "velocity": 60}, {"time": 4558, "pitch": 41, "duration": 38, "velocity": 73}, {"time": 4558, "pitch": 60, "duration": 9, "velocity": 71}, {"time": 4558, "pitch": 68, "duration": 12, "velocity": 66}, {"time": 4564, "pitch": 48, "duration": 28, "velocity": 62}, {"time": 4570, "pitch": 65, "duration": 5, "velocity": 68}, {"time": 4576, "pitch": 60, "duration": 2, "velocity": 72}, {"time": 4582, "pitch": 60, "duration": 3, "velocity": 74}, {"time": 4582, "pitch": 68, "duration": 4, "velocity": 71}, {"time": 4588, "pitch": 65, "duration": 5, "velocity": 82}, {"time": 4594, "pitch": 60, "duration": 2, "velocity": 73}, {"time": 4606, "pitch": 39, "duration": 17, "velocity": 74}, {"time": 4606, "pitch": 58, "duration": 6, "velocity": 71}, {"time": 4606, "pitch": 63, "duration": 12, "velocity": 71}, {"time": 4612, "pitch": 46, "duration": 12, "velocity": 61}, {"time": 4618, "pitch": 58, "duration": 6, "velocity": 73}, {"time": 4630, "pitch": 41, "duration": 13, "velocity": 73}, {"time": 4630, "pitch": 60, "duration": 7, "velocity": 70}, {"time": 4630, "pitch": 65, "duration": 12, "velocity": 73}, {"time": 4636, "pitch": 48, "duration": 7, "velocity": 64}, {"time": 4642, "pitch": 60, "duration": 3, "velocity": 78}, {"time": 4654, "pitch": 46, "duration": 44, "velocity": 72}, {"time": 4654, "pitch": 58, "duration": 14, "velocity": 67}, {"time": 4654, "pitch": 61, "duration": 12, "velocity": 70}, {"time": 4660, "pitch": 53, "duration": 38, "velocity": 71}, {"time": 4666, "pitch": 65, "duration": 6, "velocity": 67}, {"time": 4672, "pitch": 61, "duration": 8, "velocity": 57}, {"time": 4678, "pitch": 70, "duration": 7, "velocity": 75}, {"time": 4684, "pitch": 58, "duration": 6, "velocity": 71}, {"time": 4690, "pitch": 65, "duration": 8, "velocity": 71}, {"time": 4696, "pitch": 58, "duration": 4, "velocity": 59}, {"time": 4702, "pitch": 46, "duration": 41, "velocity": 72}, {"time": 4708, "pitch": 53, "duration": 34, "velocity": 61}, {"time": 4714, "pitch": 65, "duration": 9, "velocity": 64}, {"time": 4720, "pitch": 70, "duration": 30, "velocity": 71}, {"time": 4726, "pitch": 58, "duration": 10, "velocity": 60}, {"time": 4733, "pitch": 65, "duration": 17, "velocity": 66}, {"time": 4740, "pitch": 58, "duration": 10, "velocity": 51}, {"time": 4751, "pitch": 41, "duration": 13, "velocity": 72}, {"time": 4758, "pitch": 48, "duration": 6, "velocity": 64}, {"time": 4763, "pitch": 53, "duration": 37, "velocity": 71}, {"time": 4770, "pitch": 56, "duration": 31, "velocity": 68}, {"time": 4778, "pitch": 60, "duration": 23, "velocity": 63}, {"time": 4801, "pitch": 39, "duration": 56, "velocity": 76}, {"time": 4810, "pitch": 46, "duration": 46, "velocity": 60}, {"time": 4816, "pitch": 51, "duration": 8, "velocity": 67}, {"time": 4820, "pitch": 58, "duration": 6, "velocity": 65}, {"time": 4825, "pitch": 63, "duration": 3, "velocity": 71}, {"time": 4833, "pitch": 68, "duration": 3, "velocity": 33}, {"time": 4841, "pitch": 70, "duration": 28, "velocity": 59}, {"time": 4856, "pitch": 41, "duration": 28, "velocity": 73}, {"time": 4860, "pitch": 48, "duration": 22, "velocity": 64}, {"time": 4860, "pitch": 53, "duration": 56, "velocity": 64}, {"time": 4862, "pitch": 56, "duration": 55, "velocity": 67}, {"time": 4863, "pitch": 60, "duration": 54, "velocity": 63}, {"time": 4864, "pitch": 65, "duration": 55, "velocity": 69}, {"time": 4937, "pitch": 46, "duration": 49, "velocity": 74}, {"time": 4944, "pitch": 53, "duration": 41, "velocity": 55}, {"time": 4951, "pitch": 58, "duration": 10, "velocity": 67}, {"time": 4958, "pitch": 65, "duration": 41, "velocity": 67}, {"time": 4969, "pitch": 70, "duration": 29, "velocity": 71}, {"time": 4993, "pitch": 39, "duration": 63, "velocity": 76}, {"time": 4999, "pitch": 46, "duration": 57, "velocity": 60}, {"time": 5006, "pitch": 55, "duration": 15, "velocity": 67}, {"time": 5013, "pitch": 51, "duration": 14, "velocity": 67}, {"time": 5020, "pitch": 58, "duration": 9, "velocity": 65}, {"time": 5029, "pitch": 63, "duration": 3, "velocity": 71}, {"time": 5037, "pitch": 67, "duration": 6, "velocity": 66}, {"time": 5046, "pitch": 70, "duration": 7, "velocity": 71}, {"time": 5047, "pitch": 67, "duration": 2, "velocity": 56}, {"time": 5055, "pitch": 63, "duration": 3, "velocity": 56}, {"time": 5056, "pitch": 67, "duration": 2, "velocity": 60}, {"time": 5056, "pitch": 70, "duration": 2, "velocity": 49}, {"time": 5057, "pitch": 75, "duration": 3, "velocity": 72}, {"time": 5078, "pitch": 58, "duration": 3, "velocity": 49}, {"time": 5079, "pitch": 61, "duration": 3, "velocity": 66}, {"time": 5081, "pitch": 65, "duration": 2, "velocity": 55}, {"time": 5082, "pitch": 46, "duration": 71, "velocity": 71}, {"time": 5083, "pitch": 70, "duration": 2, "velocity": 70}, {"time": 5090, "pitch": 53, "duration": 60, "velocity": 51}, {"time": 5094, "pitch": 70, "duration": 6, "velocity": 59}, {"time": 5098, "pitch": 77, "duration": 4, "velocity": 60}, {"time": 5102, "pitch": 82, "duration": 3, "velocity": 67}, {"time": 5108, "pitch": 85, "duration": 3, "velocity": 66}, {"time": 5114, "pitch": 87, "duration": 2, "velocity": 71}, {"time": 5121, "pitch": 89, "duration": 2, "velocity": 77}, {"time": 5130, "pitch": 92, "duration": 2, "velocity": 67}, {"time": 5140, "pitch": 94, "duration": 2, "velocity": 66}, {"time": 5161, "pitch": 46, "duration": 37, "velocity": 46}, {"time": 5164, "pitch": 53, "duration": 33, "velocity": 64}, {"time": 5166, "pitch": 89, "duration": 4, "velocity": 45}, {"time": 5170, "pitch": 97, "duration": 3, "velocity": 63}], "annotations": [{"time": 58, "annotation": {"number": 64, "value": 127}, "group": "control_change"}, {"time": 59, "annotation": {"number": 64, "value": 0}, "group": "control_change"}, {"time": 59, "annotation": {"number": 64, "value": 127}, "group": "control_change"}, {"time": 90, "annotation": {"number": 64, "value": 0}, "group": "control_change"}, {"time": 93, "annotation": {"number": 64, "value": 127}, "group": "control_change"}, {"time": 141, "annotation": {"number": 64, "value": 0}, "group": "control_change"}, {"time": 145, "annotation": {"number": 64, "value": 127}, "group": "control_change"}, {"time": 186, "annotation": {"number": 64, "value": 0}, "group": "control_change"}, {"time": 191, "annotation": {"number": 64, "value": 127}, "group": "control_change"}, {"time": 233, "annotation": {"number": 64, "value": 0}, "group": "control_change"}, {"time": 239, "annotation": {"number": 64, "value": 127}, "group": "control_change"}, {"time": 262, "annotation": {"number": 64, "value": 0}, "group": "control_change"}, {"time": 263, "annotation": {"number": 64, "value": 127}, "group": "control_change"}, {"time": 284, "annotation": {"number": 64, "value": 0}, "group": "control_change"}, {"time": 290, "annotation": {"number": 64, "value": 127}, "group": "control_change"}, {"time": 332, "annotation": {"number": 64, "value": 0}, "group": "control_change"}, {"time": 335, "annotation": {"number": 64, "value": 127}, "group": "control_change"}, {"time": 356, "annotation": {"number": 64, "value": 0}, "group": "control_change"}, {"time": 359, "annotation": {"number": 64, "value": 127}, "group": "control_change"}, {"time": 380, "annotation": {"number": 64, "value": 0}, "group": "control_change"}, {"time": 383, "annotation": {"number": 64, "value": 127}, "group": "control_change"}, {"time": 431, "annotation": {"number": 64, "value": 0}, "group": "control_change"}, {"time": 456, "annotation": {"number": 64, "value": 127}, "group": "control_change"}, {"time": 475, "annotation": {"number": 64, "value": 0}, "group": "control_change"}, {"time": 479, "annotation": {"number": 64, "value": 127}, "group": "control_change"}, {"time": 524, "annotation": {"number": 64, "value": 0}, "group": "control_change"}, {"time": 528, "annotation": {"number": 64, "value": 127}, "group": "control_change"}, {"time": 549, "annotation": {"number": 64, "value": 0}, "group": "control_change"}, {"time": 552, "annotation": {"number": 64, "value": 127}, "group": "control_change"}, {"time": 570, "annotation": {"number": 64, "value": 0}, "group": "control_change"}, {"time": 574, "annotation": {"number": 64, "value": 127}, "group": "control_change"}, {"time": 620, "annotation": {"number": 64, "value": 0}, "group": "control_change"}, {"time": 624, "annotation": {"number": 64, "value": 127}, "group": "control_change"}, {"time": 666, "annotation": {"number": 64, "value": 0}, "group": "control_change"}, {"time": 671, "annotation": {"number": 64, "value": 127}, "group": "control_change"}, {"time": 671, "annotation": {"number": 64, "value": 0}, "group": "control_change"}, {"time": 693, "annotation": {"number": 64, "value": 0}, "group": "control_change"}, {"time": 697, "annotation": {"number": 64, "value": 127}, "group": "control_change"}, {"time": 717, "annotation": {"number": 64, "value": 0}, "group": "control_change"}, {"time": 721, "annotation": {"number": 64, "value": 127}, "group": "control_change"}, {"time": 762, "annotation": {"number": 64, "value": 0}, "group": "control_change"}, {"time": 766, "annotation": {"number": 64, "value": 127}, "group": "control_change"}, {"time": 787, "annotation": {"number": 64, "value": 0}, "group": "control_change"}, {"time": 790, "annotation": {"number": 64, "value": 127}, "group": "control_change"}, {"time": 813, "annotation": {"number": 64, "value": 0}, "group": "control_change"}, {"time": 816, "annotation": {"number": 64, "value": 127}, "group": "control_change"}, {"time": 862, "annotation": {"number": 64, "value": 0}, "group": "control_change"}, {"time": 866, "annotation": {"number": 64, "value": 127}, "group": "control_change"}, {"time": 909, "annotation": {"number": 64, "value": 0}, "group": "control_change"}, {"time": 913, "annotation": {"number": 64, "value": 127}, "group": "control_change"}, {"time": 956, "annotation": {"number": 64, "value": 0}, "group": "control_change"}, {"time": 960, "annotation": {"number": 64, "value": 127}, "group": "control_change"}, {"time": 1005, "annotation": {"number": 64, "value": 0}, "group": "control_change"}, {"time": 1008, "annotation": {"number": 64, "value": 127}, "group": "control_change"}, {"time": 1053, "annotation": {"number": 64, "value": 0}, "group": "control_change"}, {"time": 1061, "annotation": {"number": 64, "value": 127}, "group": "control_change"}, {"time": 1078, "annotation": {"number": 64, "value": 0}, "group": "control_change"}, {"time": 1081, "annotation": {"number": 64, "value": 127}, "group": "control_change"}, {"time": 1101, "annotation": {"number": 64, "value": 0}, "group": "control_change"}, {"time": 1104, "annotation": {"number": 64, "value": 127}, "group": "control_change"}, {"time": 1148, "annotation": {"number": 64, "value": 0}, "group": "control_change"}, {"time": 1151, "annotation": {"number": 64, "value": 127}, "group": "control_change"}, {"time": 1170, "annotation": {"number": 64, "value": 0}, "group": "control_change"}, {"time": 1174, "annotation": {"number": 64, "value": 127}, "group": "control_change"}, {"time": 1193, "annotation": {"number": 64, "value": 0}, "group": "control_change"}, {"time": 1197, "annotation": {"number": 64, "value": 127}, "group": "control_change"}, {"time": 1220, "annotation": {"number": 64, "value": 0}, "group": "control_change"}, {"time": 1223, "annotation": {"number": 64, "value": 127}, "group": "control_change"}, {"time": 1247, "annotation": {"number": 64, "value": 0}, "group": "control_change"}, {"time": 1250, "annotation": {"number": 64, "value": 127}, "group": "control_change"}, {"time": 1293, "annotation": {"number": 64, "value": 0}, "group": "control_change"}, {"time": 1296, "annotation": {"number": 64, "value": 127}, "group": "control_change"}, {"time": 1340, "annotation": {"number": 64, "value": 0}, "group": "control_change"}, {"time": 1343, "annotation": {"number": 64, "value": 127}, "group": "control_change"}, {"time": 1367, "annotation": {"number": 64, "value": 0}, "group": "control_change"}, {"time": 1369, "annotation": {"number": 64, "value": 127}, "group": "control_change"}, {"time": 1388, "annotation": {"number": 64, "value": 0}, "group": "control_change"}, {"time": 1393, "annotation": {"number": 64, "value": 127}, "group": "control_change"}, {"time": 1436, "annotation": {"number": 64, "value": 0}, "group": "control_change"}, {"time": 1438, "annotation": {"number": 64, "value": 127}, "group": "control_change"}, {"time": 1483, "annotation": {"number": 64, "value": 0}, "group": "control_change"}, {"time": 1486, "annotation": {"number": 64, "value": 127}, "group": "control_change"}, {"time": 1531, "annotation": {"number": 64, "value": 0}, "group": "control_change"}, {"time": 1535, "annotation": {"number": 64, "value": 127}, "group": "control_change"}, {"time": 1579, "annotation": {"number": 64, "value": 0}, "group": "control_change"}, {"time": 1584, "annotation": {"number": 64, "value": 127}, "group": "control_change"}, {"time": 1629, "annotation": {"number": 64, "value": 0}, "group": "control_change"}, {"time": 1633, "annotation": {"number": 64, "value": 127}, "group": "control_change"}, {"time": 1676, "annotation": {"number": 64, "value": 0}, "group": "control_change"}, {"time": 1681, "annotation": {"number": 64, "value": 127}, "group": "control_change"}, {"time": 1725, "annotation": {"number": 64, "value": 0}, "group": "control_change"}, {"time": 1729, "annotation": {"number": 64, "value": 127}, "group": "control_change"}, {"time": 1770, "annotation": {"number": 64, "value": 0}, "group": "control_change"}, {"time": 1775, "annotation": {"number": 64, "value": 127}, "group": "control_change"}, {"time": 1819, "annotation": {"number": 64, "value": 0}, "group": "control_change"}, {"time": 1823, "annotation": {"number": 64, "value": 127}, "group": "control_change"}, {"time": 1868, "annotation": {"number": 64, "value": 0}, "group": "control_change"}, {"time": 1871, "annotation": {"number": 64, "value": 127}, "group": "control_change"}, {"time": 1916, "annotation": {"number": 64, "value": 0}, "group": "control_change"}, {"time": 1921, "annotation": {"number": 64, "value": 127}, "group": "control_change"}, {"time": 1965, "annotation": {"number": 64, "value": 0}, "group": "control_change"}, {"time": 1969, "annotation": {"number": 64, "value": 127}, "group": "control_change"}, {"time": 2012, "annotation": {"number": 64, "value": 0}, "group": "control_change"}, {"time": 2022, "annotation": {"number": 64, "value": 127}, "group": "control_change"}, {"time": 2060, "annotation": {"number": 64, "value": 0}, "group": "control_change"}, {"time": 2063, "annotation": {"number": 64, "value": 127}, "group": "control_change"}, {"time": 2107, "annotation": {"number": 64, "value": 0}, "group": "control_change"}, {"time": 2111, "annotation": {"number": 64, "value": 127}, "group": "control_change"}, {"time": 2157, "annotation": {"number": 64, "value": 0}, "group": "control_change"}, {"time": 2160, "annotation": {"number": 64, "value": 127}, "group": "control_change"}, {"time": 2180, "annotation": {"number": 64, "value": 0}, "group": "control_change"}, {"time": 2184, "annotation": {"number": 64, "value": 127}, "group": "control_change"}, {"time": 2204, "annotation": {"number": 64, "value": 0}, "group": "control_change"}, {"time": 2212, "annotation": {"number": 64, "value": 127}, "group": "control_change"}, {"time": 2252, "annotation": {"number": 64, "value": 0}, "group": "control_change"}, {"time": 2256, "annotation": {"number": 64, "value": 127}, "group": "control_change"}, {"time": 2301, "annotation": {"number": 64, "value": 0}, "group": "control_change"}, {"time": 2310, "annotation": {"number": 64, "value": 127}, "group": "control_change"}, {"time": 2350, "annotation": {"number": 64, "value": 0}, "group": "control_change"}, {"time": 2357, "annotation": {"number": 64, "value": 127}, "group": "control_change"}, {"time": 2398, "annotation": {"number": 64, "value": 0}, "group": "control_change"}, {"time": 2401, "annotation": {"number": 64, "value": 127}, "group": "control_change"}, {"time": 2423, "annotation": {"number": 64, "value": 0}, "group": "control_change"}, {"time": 2427, "annotation": {"number": 64, "value": 127}, "group": "control_change"}, {"time": 2444, "annotation": {"number": 64, "value": 0}, "group": "control_change"}, {"time": 2450, "annotation": {"number": 64, "value": 127}, "group": "control_change"}, {"time": 2492, "annotation": {"number": 64, "value": 0}, "group": "control_change"}, {"time": 2496, "annotation": {"number": 64, "value": 127}, "group": "control_change"}, {"time": 2540, "annotation": {"number": 64, "value": 0}, "group": "control_change"}, {"time": 2542, "annotation": {"number": 64, "value": 127}, "group": "control_change"}, {"time": 2591, "annotation": {"number": 64, "value": 0}, "group": "control_change"}, {"time": 2596, "annotation": {"number": 64, "value": 127}, "group": "control_change"}, {"time": 2636, "annotation": {"number": 64, "value": 0}, "group": "control_change"}, {"time": 2641, "annotation": {"number": 64, "value": 127}, "group": "control_change"}, {"time": 2684, "annotation": {"number": 64, "value": 0}, "group": "control_change"}, {"time": 2687, "annotation": {"number": 64, "value": 127}, "group": "control_change"}, {"time": 2732, "annotation": {"number": 64, "value": 0}, "group": "control_change"}, {"time": 2741, "annotation": {"number": 64, "value": 127}, "group": "control_change"}, {"time": 2758, "annotation": {"number": 64, "value": 0}, "group": "control_change"}, {"time": 2761, "annotation": {"number": 64, "value": 127}, "group": "control_change"}, {"time": 2781, "annotation": {"number": 64, "value": 0}, "group": "control_change"}, {"time": 2784, "annotation": {"number": 64, "value": 127}, "group": "control_change"}, {"time": 2828, "annotation": {"number": 64, "value": 0}, "group": "control_change"}, {"time": 2831, "annotation": {"number": 64, "value": 127}, "group": "control_change"}, {"time": 2850, "annotation": {"number": 64, "value": 0}, "group": "control_change"}, {"time": 2854, "annotation": {"number": 64, "value": 127}, "group": "control_change"}, {"time": 2873, "annotation": {"number": 64, "value": 0}, "group": "control_change"}, {"time": 2877, "annotation": {"number": 64, "value": 127}, "group": "control_change"}, {"time": 2900, "annotation": {"number": 64, "value": 0}, "group": "control_change"}, {"time": 2903, "annotation": {"number": 64, "value": 127}, "group": "control_change"}, {"time": 2927, "annotation": {"number": 64, "value": 0}, "group": "control_change"}, {"time": 2930, "annotation": {"number": 64, "value": 127}, "group": "control_change"}, {"time": 2973, "annotation": {"number": 64, "value": 0}, "group": "control_change"}, {"time": 2976, "annotation": {"number": 64, "value": 127}, "group": "control_change"}, {"time": 3020, "annotation": {"number": 64, "value": 0}, "group": "control_change"}, {"time": 3023, "annotation": {"number": 64, "value": 127}, "group": "control_change"}, {"time": 3047, "annotation": {"number": 64, "value": 0}, "group": "control_change"}, {"time": 3049, "annotation": {"number": 64, "value": 127}, "group": "control_change"}, {"time": 3068, "annotation": {"number": 64, "value": 0}, "group": "control_change"}, {"time": 3073, "annotation": {"number": 64, "value": 127}, "group": "control_change"}, {"time": 3116, "annotation": {"number": 64, "value": 0}, "group": "control_change"}, {"time": 3118, "annotation": {"number": 64, "value": 127}, "group": "control_change"}, {"time": 3163, "annotation": {"number": 64, "value": 0}, "group": "control_change"}, {"time": 3166, "annotation": {"number": 64, "value": 127}, "group": "control_change"}, {"time": 3211, "annotation": {"number": 64, "value": 0}, "group": "control_change"}, {"time": 3215, "annotation": {"number": 64, "value": 127}, "group": "control_change"}, {"time": 3259, "annotation": {"number": 64, "value": 0}, "group": "control_change"}, {"time": 3264, "annotation": {"number": 64, "value": 127}, "group": "control_change"}, {"time": 3309, "annotation": {"number": 64, "value": 0}, "group": "control_change"}, {"time": 3313, "annotation": {"number": 64, "value": 127}, "group": "control_change"}, {"time": 3356, "annotation": {"number": 64, "value": 0}, "group": "control_change"}, {"time": 3361, "annotation": {"number": 64, "value": 127}, "group": "control_change"}, {"time": 3405, "annotation": {"number": 64, "value": 0}, "group": "control_change"}, {"time": 3409, "annotation": {"number": 64, "value": 127}, "group": "control_change"}, {"time": 3450, "annotation": {"number": 64, "value": 0}, "group": "control_change"}, {"time": 3455, "annotation": {"number": 64, "value": 127}, "group": "control_change"}, {"time": 3499, "annotation": {"number": 64, "value": 0}, "group": "control_change"}, {"time": 3503, "annotation": {"number": 64, "value": 127}, "group": "control_change"}, {"time": 3548, "annotation": {"number": 64, "value": 0}, "group": "control_change"}, {"time": 3551, "annotation": {"number": 64, "value": 127}, "group": "control_change"}, {"time": 3596, "annotation": {"number": 64, "value": 0}, "group": "control_change"}, {"time": 3601, "annotation": {"number": 64, "value": 127}, "group": "control_change"}, {"time": 3645, "annotation": {"number": 64, "value": 0}, "group": "control_change"}, {"time": 3649, "annotation": {"number": 64, "value": 127}, "group": "control_change"}, {"time": 3692, "annotation": {"number": 64, "value": 0}, "group": "control_change"}, {"time": 3702, "annotation": {"number": 64, "value": 127}, "group": "control_change"}, {"time": 3740, "annotation": {"number": 64, "value": 0}, "group": "control_change"}, {"time": 3743, "annotation": {"number": 64, "value": 127}, "group": "control_change"}, {"time": 3787, "annotation": {"number": 64, "value": 0}, "group": "control_change"}, {"time": 3791, "annotation": {"number": 64, "value": 127}, "group": "control_change"}, {"time": 3837, "annotation": {"number": 64, "value": 0}, "group": "control_change"}, {"time": 3840, "annotation": {"number": 64, "value": 127}, "group": "control_change"}, {"time": 3860, "annotation": {"number": 64, "value": 0}, "group": "control_change"}, {"time": 3864, "annotation": {"number": 64, "value": 127}, "group": "control_change"}, {"time": 3884, "annotation": {"number": 64, "value": 0}, "group": "control_change"}, {"time": 3892, "annotation": {"number": 64, "value": 127}, "group": "control_change"}, {"time": 3932, "annotation": {"number": 64, "value": 0}, "group": "control_change"}, {"time": 3934, "annotation": {"number": 64, "value": 127}, "group": "control_change"}, {"time": 3978, "annotation": {"number": 64, "value": 0}, "group": "control_change"}, {"time": 3981, "annotation": {"number": 64, "value": 127}, "group": "control_change"}, {"time": 4001, "annotation": {"number": 64, "value": 0}, "group": "control_change"}, {"time": 4004, "annotation": {"number": 64, "value": 127}, "group": "control_change"}, {"time": 4026, "annotation": {"number": 64, "value": 0}, "group": "control_change"}, {"time": 4032, "annotation": {"number": 64, "value": 127}, "group": "control_change"}, {"time": 4077, "annotation": {"number": 64, "value": 0}, "group": "control_change"}, {"time": 4081, "annotation": {"number": 64, "value": 127}, "group": "control_change"}, {"time": 4124, "annotation": {"number": 64, "value": 0}, "group": "control_change"}, {"time": 4129, "annotation": {"number": 64, "value": 127}, "group": "control_change"}, {"time": 4173, "annotation": {"number": 64, "value": 0}, "group": "control_change"}, {"time": 4177, "annotation": {"number": 64, "value": 127}, "group": "control_change"}, {"time": 4218, "annotation": {"number": 64, "value": 0}, "group": "control_change"}, {"time": 4223, "annotation": {"number": 64, "value": 127}, "group": "control_change"}, {"time": 4267, "annotation": {"number": 64, "value": 0}, "group": "control_change"}, {"time": 4271, "annotation": {"number": 64, "value": 127}, "group": "control_change"}, {"time": 4316, "annotation": {"number": 64, "value": 0}, "group": "control_change"}, {"time": 4319, "annotation": {"number": 64, "value": 127}, "group": "control_change"}, {"time": 4364, "annotation": {"number": 64, "value": 0}, "group": "control_change"}, {"time": 4369, "annotation": {"number": 64, "value": 127}, "group": "control_change"}, {"time": 4413, "annotation": {"number": 64, "value": 0}, "group": "control_change"}, {"time": 4417, "annotation": {"number": 64, "value": 127}, "group": "control_change"}, {"time": 4460, "annotation": {"number": 64, "value": 0}, "group": "control_change"}, {"time": 4470, "annotation": {"number": 64, "value": 127}, "group": "control_change"}, {"time": 4508, "annotation": {"number": 64, "value": 0}, "group": "control_change"}, {"time": 4511, "annotation": {"number": 64, "value": 127}, "group": "control_change"}, {"time": 4555, "annotation": {"number": 64, "value": 0}, "group": "control_change"}, {"time": 4559, "annotation": {"number": 64, "value": 127}, "group": "control_change"}, {"time": 4605, "annotation": {"number": 64, "value": 0}, "group": "control_change"}, {"time": 4608, "annotation": {"number": 64, "value": 127}, "group": "control_change"}, {"time": 4628, "annotation": {"number": 64, "value": 0}, "group": "control_change"}, {"time": 4632, "annotation": {"number": 64, "value": 127}, "group": "control_change"}, {"time": 4652, "annotation": {"number": 64, "value": 0}, "group": "control_change"}, {"time": 4660, "annotation": {"number": 64, "value": 127}, "group": "control_change"}, {"time": 4700, "annotation": {"number": 64, "value": 0}, "group": "control_change"}, {"time": 4709, "annotation": {"number": 64, "value": 127}, "group": "control_change"}, {"time": 4753, "annotation": {"number": 64, "value": 0}, "group": "control_change"}, {"time": 4755, "annotation": {"number": 64, "value": 127}, "group": "control_change"}, {"time": 4798, "annotation": {"number": 64, "value": 0}, "group": "control_change"}, {"time": 4805, "annotation": {"number": 64, "value": 127}, "group": "control_change"}, {"time": 4860, "annotation": {"number": 64, "value": 127}, "group": "control_change"}, {"time": 4926, "annotation": {"number": 64, "value": 0}, "group": "control_change"}, {"time": 4952, "annotation": {"number": 64, "value": 127}, "group": "control_change"}, {"time": 4994, "annotation": {"number": 64, "value": 0}, "group": "control_change"}, {"time": 4996, "annotation": {"number": 64, "value": 127}, "group": "control_change"}, {"time": 5077, "annotation": {"number": 64, "value": 0}, "group": "control_change"}, {"time": 5080, "annotation": {"number": 64, "value": 127}, "group": "control_change"}, {"time": 5243, "annotation": {"number": 64, "value": 0}, "group": "control_change"}]}]}