{"metadata": {"schema_version": "0.2", "title": "None", "source_filename": "680.mid", "source_format": "midi"}, "resolution": 12, "tempos": [{"time": 0, "qpm": 78.00017940041262}], "time_signatures": [{"time": 0, "numerator": 1, "denominator": 4}], "tracks": [{"program": 0, "is_drum": false, "name": "MELODY", "notes": [{"time": 240, "pitch": 59, "duration": 2, "velocity": 84}, {"time": 243, "pitch": 67, "duration": 4, "velocity": 90}, {"time": 249, "pitch": 67, "duration": 2, "velocity": 88}, {"time": 252, "pitch": 67, "duration": 7, "velocity": 90}, {"time": 264, "pitch": 59, "duration": 2, "velocity": 86}, {"time": 267, "pitch": 66, "duration": 4, "velocity": 91}, {"time": 273, "pitch": 66, "duration": 1, "velocity": 91}, {"time": 276, "pitch": 66, "duration": 9, "velocity": 91}, {"time": 288, "pitch": 62, "duration": 2, "velocity": 87}, {"time": 291, "pitch": 64, "duration": 4, "velocity": 92}, {"time": 297, "pitch": 64, "duration": 4, "velocity": 92}, {"time": 303, "pitch": 62, "duration": 5, "velocity": 92}, {"time": 309, "pitch": 60, "duration": 5, "velocity": 92}, {"time": 315, "pitch": 62, "duration": 18, "velocity": 91}, {"time": 336, "pitch": 59, "duration": 2, "velocity": 90}, {"time": 339, "pitch": 67, "duration": 4, "velocity": 91}, {"time": 345, "pitch": 67, "duration": 2, "velocity": 90}, {"time": 348, "pitch": 67, "duration": 6, "velocity": 91}, {"time": 360, "pitch": 59, "duration": 2, "velocity": 86}, {"time": 363, "pitch": 66, "duration": 4, "velocity": 91}, {"time": 369, "pitch": 66, "duration": 2, "velocity": 82}, {"time": 372, "pitch": 66, "duration": 8, "velocity": 91}, {"time": 384, "pitch": 62, "duration": 2, "velocity": 86}, {"time": 387, "pitch": 64, "duration": 4, "velocity": 94}, {"time": 393, "pitch": 67, "duration": 4, "velocity": 94}, {"time": 399, "pitch": 69, "duration": 4, "velocity": 92}, {"time": 405, "pitch": 71, "duration": 3, "velocity": 90}, {"time": 411, "pitch": 71, "duration": 18, "velocity": 91}, {"time": 432, "pitch": 59, "duration": 2, "velocity": 84}, {"time": 435, "pitch": 67, "duration": 4, "velocity": 90}, {"time": 441, "pitch": 67, "duration": 2, "velocity": 88}, {"time": 444, "pitch": 67, "duration": 7, "velocity": 90}, {"time": 456, "pitch": 59, "duration": 2, "velocity": 86}, {"time": 459, "pitch": 66, "duration": 4, "velocity": 91}, {"time": 465, "pitch": 66, "duration": 1, "velocity": 91}, {"time": 468, "pitch": 66, "duration": 9, "velocity": 91}, {"time": 480, "pitch": 62, "duration": 2, "velocity": 87}, {"time": 483, "pitch": 64, "duration": 4, "velocity": 92}, {"time": 489, "pitch": 64, "duration": 4, "velocity": 92}, {"time": 495, "pitch": 62, "duration": 5, "velocity": 92}, {"time": 501, "pitch": 60, "duration": 5, "velocity": 92}, {"time": 507, "pitch": 62, "duration": 18, "velocity": 91}, {"time": 528, "pitch": 59, "duration": 2, "velocity": 90}, {"time": 531, "pitch": 67, "duration": 4, "velocity": 91}, {"time": 537, "pitch": 67, "duration": 2, "velocity": 90}, {"time": 540, "pitch": 67, "duration": 6, "velocity": 91}, {"time": 552, "pitch": 59, "duration": 2, "velocity": 86}, {"time": 555, "pitch": 66, "duration": 4, "velocity": 91}, {"time": 561, "pitch": 66, "duration": 2, "velocity": 82}, {"time": 564, "pitch": 66, "duration": 8, "velocity": 91}, {"time": 576, "pitch": 62, "duration": 2, "velocity": 86}, {"time": 579, "pitch": 64, "duration": 4, "velocity": 94}, {"time": 585, "pitch": 67, "duration": 4, "velocity": 94}, {"time": 591, "pitch": 69, "duration": 4, "velocity": 92}, {"time": 597, "pitch": 67, "duration": 3, "velocity": 90}, {"time": 603, "pitch": 67, "duration": 15, "velocity": 91}, {"time": 621, "pitch": 67, "duration": 2, "velocity": 94}, {"time": 624, "pitch": 69, "duration": 1, "velocity": 95}, {"time": 627, "pitch": 71, "duration": 10, "velocity": 92}, {"time": 639, "pitch": 67, "duration": 5, "velocity": 92}, {"time": 645, "pitch": 67, "duration": 2, "velocity": 90}, {"time": 648, "pitch": 69, "duration": 2, "velocity": 91}, {"time": 651, "pitch": 71, "duration": 13, "velocity": 91}, {"time": 669, "pitch": 67, "duration": 2, "velocity": 87}, {"time": 672, "pitch": 69, "duration": 1, "velocity": 91}, {"time": 675, "pitch": 71, "duration": 4, "velocity": 96}, {"time": 681, "pitch": 76, "duration": 4, "velocity": 96}, {"time": 687, "pitch": 71, "duration": 4, "velocity": 92}, {"time": 693, "pitch": 69, "duration": 2, "velocity": 94}, {"time": 696, "pitch": 67, "duration": 2, "velocity": 92}, {"time": 699, "pitch": 69, "duration": 5, "velocity": 96}, {"time": 705, "pitch": 67, "duration": 2, "velocity": 91}, {"time": 708, "pitch": 64, "duration": 7, "velocity": 97}, {"time": 735, "pitch": 76, "duration": 4, "velocity": 95}, {"time": 741, "pitch": 76, "duration": 2, "velocity": 99}, {"time": 744, "pitch": 74, "duration": 1, "velocity": 96}, {"time": 747, "pitch": 76, "duration": 5, "velocity": 99}, {"time": 753, "pitch": 74, "duration": 1, "velocity": 91}, {"time": 756, "pitch": 74, "duration": 8, "velocity": 96}, {"time": 765, "pitch": 69, "duration": 5, "velocity": 96}, {"time": 771, "pitch": 71, "duration": 37, "velocity": 92}, {"time": 813, "pitch": 67, "duration": 2, "velocity": 94}, {"time": 816, "pitch": 69, "duration": 1, "velocity": 95}, {"time": 819, "pitch": 71, "duration": 10, "velocity": 92}, {"time": 837, "pitch": 67, "duration": 2, "velocity": 90}, {"time": 840, "pitch": 69, "duration": 2, "velocity": 91}, {"time": 843, "pitch": 71, "duration": 13, "velocity": 91}, {"time": 861, "pitch": 67, "duration": 2, "velocity": 87}, {"time": 864, "pitch": 69, "duration": 1, "velocity": 91}, {"time": 867, "pitch": 71, "duration": 4, "velocity": 96}, {"time": 873, "pitch": 76, "duration": 4, "velocity": 96}, {"time": 879, "pitch": 78, "duration": 12, "velocity": 92}, {"time": 891, "pitch": 76, "duration": 27, "velocity": 96}, {"time": 927, "pitch": 76, "duration": 10, "velocity": 94}, {"time": 939, "pitch": 76, "duration": 5, "velocity": 94}, {"time": 945, "pitch": 74, "duration": 4, "velocity": 96}, {"time": 951, "pitch": 74, "duration": 6, "velocity": 101}, {"time": 957, "pitch": 71, "duration": 6, "velocity": 91}, {"time": 963, "pitch": 76, "duration": 39, "velocity": 96}, {"time": 1005, "pitch": 76, "duration": 2, "velocity": 99}, {"time": 1008, "pitch": 78, "duration": 2, "velocity": 85}, {"time": 1011, "pitch": 79, "duration": 5, "velocity": 91}, {"time": 1017, "pitch": 78, "duration": 2, "velocity": 95}, {"time": 1020, "pitch": 79, "duration": 5, "velocity": 94}, {"time": 1026, "pitch": 79, "duration": 7, "velocity": 92}, {"time": 1035, "pitch": 78, "duration": 5, "velocity": 99}, {"time": 1041, "pitch": 78, "duration": 2, "velocity": 91}, {"time": 1044, "pitch": 76, "duration": 5, "velocity": 97}, {"time": 1050, "pitch": 74, "duration": 7, "velocity": 97}, {"time": 1059, "pitch": 76, "duration": 4, "velocity": 92}, {"time": 1065, "pitch": 76, "duration": 5, "velocity": 95}, {"time": 1071, "pitch": 74, "duration": 3, "velocity": 101}, {"time": 1074, "pitch": 72, "duration": 8, "velocity": 92}, {"time": 1083, "pitch": 74, "duration": 14, "velocity": 94}, {"time": 1101, "pitch": 76, "duration": 2, "velocity": 96}, {"time": 1104, "pitch": 78, "duration": 2, "velocity": 95}, {"time": 1107, "pitch": 79, "duration": 4, "velocity": 92}, {"time": 1113, "pitch": 79, "duration": 2, "velocity": 91}, {"time": 1116, "pitch": 79, "duration": 4, "velocity": 90}, {"time": 1122, "pitch": 79, "duration": 6, "velocity": 91}, {"time": 1131, "pitch": 78, "duration": 4, "velocity": 97}, {"time": 1137, "pitch": 76, "duration": 2, "velocity": 94}, {"time": 1140, "pitch": 74, "duration": 7, "velocity": 101}, {"time": 1155, "pitch": 76, "duration": 5, "velocity": 97}, {"time": 1161, "pitch": 79, "duration": 3, "velocity": 91}, {"time": 1167, "pitch": 78, "duration": 5, "velocity": 96}, {"time": 1173, "pitch": 74, "duration": 5, "velocity": 96}, {"time": 1179, "pitch": 76, "duration": 12, "velocity": 91}, {"time": 1197, "pitch": 76, "duration": 2, "velocity": 99}, {"time": 1200, "pitch": 78, "duration": 2, "velocity": 85}, {"time": 1203, "pitch": 79, "duration": 5, "velocity": 91}, {"time": 1209, "pitch": 78, "duration": 2, "velocity": 95}, {"time": 1212, "pitch": 79, "duration": 5, "velocity": 94}, {"time": 1218, "pitch": 79, "duration": 7, "velocity": 92}, {"time": 1227, "pitch": 78, "duration": 5, "velocity": 99}, {"time": 1233, "pitch": 78, "duration": 2, "velocity": 91}, {"time": 1236, "pitch": 76, "duration": 5, "velocity": 97}, {"time": 1242, "pitch": 74, "duration": 7, "velocity": 97}, {"time": 1251, "pitch": 76, "duration": 4, "velocity": 92}, {"time": 1257, "pitch": 76, "duration": 5, "velocity": 95}, {"time": 1263, "pitch": 74, "duration": 3, "velocity": 101}, {"time": 1266, "pitch": 72, "duration": 8, "velocity": 92}, {"time": 1275, "pitch": 74, "duration": 14, "velocity": 94}, {"time": 1293, "pitch": 76, "duration": 2, "velocity": 96}, {"time": 1296, "pitch": 78, "duration": 2, "velocity": 95}, {"time": 1299, "pitch": 79, "duration": 4, "velocity": 92}, {"time": 1305, "pitch": 79, "duration": 2, "velocity": 91}, {"time": 1308, "pitch": 79, "duration": 4, "velocity": 90}, {"time": 1314, "pitch": 79, "duration": 6, "velocity": 91}, {"time": 1323, "pitch": 78, "duration": 4, "velocity": 97}, {"time": 1329, "pitch": 76, "duration": 2, "velocity": 94}, {"time": 1332, "pitch": 74, "duration": 9, "velocity": 101}, {"time": 1341, "pitch": 74, "duration": 6, "velocity": 101}, {"time": 1347, "pitch": 76, "duration": 5, "velocity": 97}, {"time": 1353, "pitch": 79, "duration": 3, "velocity": 91}, {"time": 1359, "pitch": 78, "duration": 5, "velocity": 96}, {"time": 1365, "pitch": 74, "duration": 5, "velocity": 96}, {"time": 1371, "pitch": 76, "duration": 17, "velocity": 91}, {"time": 1407, "pitch": 79, "duration": 4, "velocity": 90}, {"time": 1413, "pitch": 78, "duration": 5, "velocity": 92}, {"time": 1419, "pitch": 76, "duration": 36, "velocity": 92}, {"time": 1920, "pitch": 59, "duration": 2, "velocity": 84}, {"time": 1923, "pitch": 67, "duration": 4, "velocity": 90}, {"time": 1929, "pitch": 67, "duration": 2, "velocity": 88}, {"time": 1932, "pitch": 67, "duration": 7, "velocity": 90}, {"time": 1944, "pitch": 59, "duration": 2, "velocity": 86}, {"time": 1947, "pitch": 66, "duration": 4, "velocity": 91}, {"time": 1953, "pitch": 66, "duration": 1, "velocity": 91}, {"time": 1956, "pitch": 66, "duration": 9, "velocity": 91}, {"time": 1968, "pitch": 62, "duration": 2, "velocity": 87}, {"time": 1971, "pitch": 64, "duration": 4, "velocity": 92}, {"time": 1977, "pitch": 64, "duration": 4, "velocity": 92}, {"time": 1983, "pitch": 62, "duration": 5, "velocity": 92}, {"time": 1989, "pitch": 60, "duration": 5, "velocity": 92}, {"time": 1995, "pitch": 62, "duration": 18, "velocity": 91}, {"time": 2016, "pitch": 59, "duration": 2, "velocity": 90}, {"time": 2019, "pitch": 67, "duration": 4, "velocity": 91}, {"time": 2025, "pitch": 67, "duration": 2, "velocity": 90}, {"time": 2028, "pitch": 67, "duration": 6, "velocity": 91}, {"time": 2040, "pitch": 59, "duration": 2, "velocity": 86}, {"time": 2043, "pitch": 66, "duration": 4, "velocity": 91}, {"time": 2049, "pitch": 66, "duration": 2, "velocity": 82}, {"time": 2052, "pitch": 66, "duration": 8, "velocity": 91}, {"time": 2064, "pitch": 62, "duration": 2, "velocity": 86}, {"time": 2067, "pitch": 64, "duration": 4, "velocity": 94}, {"time": 2073, "pitch": 67, "duration": 4, "velocity": 94}, {"time": 2079, "pitch": 69, "duration": 4, "velocity": 92}, {"time": 2085, "pitch": 67, "duration": 3, "velocity": 90}, {"time": 2091, "pitch": 67, "duration": 15, "velocity": 91}, {"time": 2109, "pitch": 67, "duration": 2, "velocity": 94}, {"time": 2112, "pitch": 69, "duration": 1, "velocity": 95}, {"time": 2115, "pitch": 71, "duration": 10, "velocity": 92}, {"time": 2127, "pitch": 67, "duration": 5, "velocity": 92}, {"time": 2133, "pitch": 67, "duration": 2, "velocity": 90}, {"time": 2136, "pitch": 69, "duration": 2, "velocity": 91}, {"time": 2139, "pitch": 71, "duration": 13, "velocity": 91}, {"time": 2157, "pitch": 67, "duration": 2, "velocity": 87}, {"time": 2160, "pitch": 69, "duration": 1, "velocity": 91}, {"time": 2163, "pitch": 71, "duration": 4, "velocity": 96}, {"time": 2169, "pitch": 76, "duration": 4, "velocity": 96}, {"time": 2175, "pitch": 71, "duration": 4, "velocity": 92}, {"time": 2181, "pitch": 69, "duration": 2, "velocity": 94}, {"time": 2184, "pitch": 67, "duration": 2, "velocity": 92}, {"time": 2187, "pitch": 69, "duration": 5, "velocity": 96}, {"time": 2193, "pitch": 67, "duration": 2, "velocity": 91}, {"time": 2196, "pitch": 64, "duration": 7, "velocity": 97}, {"time": 2223, "pitch": 76, "duration": 4, "velocity": 95}, {"time": 2229, "pitch": 76, "duration": 2, "velocity": 99}, {"time": 2232, "pitch": 74, "duration": 1, "velocity": 96}, {"time": 2235, "pitch": 76, "duration": 5, "velocity": 99}, {"time": 2241, "pitch": 74, "duration": 1, "velocity": 91}, {"time": 2244, "pitch": 74, "duration": 8, "velocity": 96}, {"time": 2253, "pitch": 69, "duration": 5, "velocity": 96}, {"time": 2259, "pitch": 71, "duration": 37, "velocity": 92}, {"time": 2301, "pitch": 67, "duration": 2, "velocity": 94}, {"time": 2304, "pitch": 69, "duration": 1, "velocity": 95}, {"time": 2307, "pitch": 71, "duration": 10, "velocity": 92}, {"time": 2325, "pitch": 67, "duration": 2, "velocity": 90}, {"time": 2328, "pitch": 69, "duration": 2, "velocity": 91}, {"time": 2331, "pitch": 71, "duration": 13, "velocity": 91}, {"time": 2349, "pitch": 67, "duration": 2, "velocity": 87}, {"time": 2352, "pitch": 69, "duration": 1, "velocity": 91}, {"time": 2355, "pitch": 71, "duration": 4, "velocity": 96}, {"time": 2361, "pitch": 76, "duration": 4, "velocity": 96}, {"time": 2367, "pitch": 78, "duration": 12, "velocity": 92}, {"time": 2379, "pitch": 76, "duration": 27, "velocity": 96}, {"time": 2415, "pitch": 76, "duration": 10, "velocity": 94}, {"time": 2427, "pitch": 76, "duration": 5, "velocity": 94}, {"time": 2433, "pitch": 74, "duration": 4, "velocity": 96}, {"time": 2439, "pitch": 74, "duration": 6, "velocity": 101}, {"time": 2445, "pitch": 71, "duration": 6, "velocity": 91}, {"time": 2451, "pitch": 76, "duration": 39, "velocity": 96}, {"time": 2493, "pitch": 76, "duration": 2, "velocity": 99}, {"time": 2496, "pitch": 78, "duration": 2, "velocity": 85}, {"time": 2499, "pitch": 79, "duration": 5, "velocity": 91}, {"time": 2505, "pitch": 78, "duration": 2, "velocity": 95}, {"time": 2508, "pitch": 79, "duration": 5, "velocity": 94}, {"time": 2514, "pitch": 79, "duration": 7, "velocity": 92}, {"time": 2523, "pitch": 78, "duration": 5, "velocity": 99}, {"time": 2529, "pitch": 78, "duration": 2, "velocity": 91}, {"time": 2532, "pitch": 76, "duration": 5, "velocity": 97}, {"time": 2538, "pitch": 74, "duration": 7, "velocity": 97}, {"time": 2547, "pitch": 76, "duration": 4, "velocity": 92}, {"time": 2553, "pitch": 76, "duration": 5, "velocity": 95}, {"time": 2559, "pitch": 74, "duration": 3, "velocity": 101}, {"time": 2562, "pitch": 72, "duration": 8, "velocity": 92}, {"time": 2571, "pitch": 74, "duration": 14, "velocity": 94}, {"time": 2589, "pitch": 76, "duration": 2, "velocity": 96}, {"time": 2592, "pitch": 78, "duration": 2, "velocity": 95}, {"time": 2595, "pitch": 79, "duration": 4, "velocity": 92}, {"time": 2601, "pitch": 79, "duration": 2, "velocity": 91}, {"time": 2604, "pitch": 79, "duration": 4, "velocity": 90}, {"time": 2610, "pitch": 79, "duration": 6, "velocity": 91}, {"time": 2619, "pitch": 78, "duration": 4, "velocity": 97}, {"time": 2625, "pitch": 76, "duration": 2, "velocity": 94}, {"time": 2628, "pitch": 74, "duration": 7, "velocity": 101}, {"time": 2643, "pitch": 76, "duration": 5, "velocity": 97}, {"time": 2649, "pitch": 79, "duration": 3, "velocity": 91}, {"time": 2655, "pitch": 78, "duration": 5, "velocity": 96}, {"time": 2661, "pitch": 74, "duration": 5, "velocity": 96}, {"time": 2667, "pitch": 76, "duration": 12, "velocity": 91}, {"time": 2685, "pitch": 76, "duration": 2, "velocity": 99}, {"time": 2688, "pitch": 78, "duration": 2, "velocity": 85}, {"time": 2691, "pitch": 79, "duration": 5, "velocity": 91}, {"time": 2697, "pitch": 78, "duration": 2, "velocity": 95}, {"time": 2700, "pitch": 79, "duration": 5, "velocity": 94}, {"time": 2706, "pitch": 79, "duration": 7, "velocity": 92}, {"time": 2715, "pitch": 78, "duration": 5, "velocity": 99}, {"time": 2721, "pitch": 78, "duration": 2, "velocity": 91}, {"time": 2724, "pitch": 76, "duration": 5, "velocity": 97}, {"time": 2730, "pitch": 74, "duration": 7, "velocity": 97}, {"time": 2739, "pitch": 76, "duration": 4, "velocity": 92}, {"time": 2745, "pitch": 76, "duration": 5, "velocity": 95}, {"time": 2751, "pitch": 74, "duration": 3, "velocity": 101}, {"time": 2754, "pitch": 72, "duration": 8, "velocity": 92}, {"time": 2763, "pitch": 74, "duration": 14, "velocity": 94}, {"time": 2781, "pitch": 76, "duration": 2, "velocity": 96}, {"time": 2784, "pitch": 78, "duration": 2, "velocity": 95}, {"time": 2787, "pitch": 79, "duration": 4, "velocity": 92}, {"time": 2793, "pitch": 79, "duration": 2, "velocity": 91}, {"time": 2796, "pitch": 79, "duration": 4, "velocity": 90}, {"time": 2802, "pitch": 79, "duration": 6, "velocity": 91}, {"time": 2811, "pitch": 78, "duration": 4, "velocity": 97}, {"time": 2817, "pitch": 76, "duration": 2, "velocity": 94}, {"time": 2820, "pitch": 74, "duration": 9, "velocity": 101}, {"time": 2829, "pitch": 74, "duration": 6, "velocity": 101}, {"time": 2835, "pitch": 76, "duration": 5, "velocity": 97}, {"time": 2841, "pitch": 79, "duration": 3, "velocity": 91}, {"time": 2847, "pitch": 78, "duration": 5, "velocity": 96}, {"time": 2853, "pitch": 74, "duration": 5, "velocity": 96}, {"time": 2859, "pitch": 76, "duration": 17, "velocity": 91}, {"time": 2895, "pitch": 76, "duration": 2, "velocity": 99}, {"time": 2898, "pitch": 78, "duration": 6, "velocity": 85}, {"time": 2907, "pitch": 79, "duration": 5, "velocity": 91}, {"time": 2913, "pitch": 78, "duration": 2, "velocity": 95}, {"time": 2916, "pitch": 79, "duration": 5, "velocity": 94}, {"time": 2922, "pitch": 79, "duration": 7, "velocity": 92}, {"time": 2931, "pitch": 78, "duration": 5, "velocity": 99}, {"time": 2937, "pitch": 78, "duration": 2, "velocity": 91}, {"time": 2940, "pitch": 76, "duration": 5, "velocity": 97}, {"time": 2946, "pitch": 74, "duration": 7, "velocity": 97}, {"time": 2955, "pitch": 76, "duration": 4, "velocity": 92}, {"time": 2961, "pitch": 76, "duration": 5, "velocity": 95}, {"time": 2967, "pitch": 74, "duration": 3, "velocity": 101}, {"time": 2970, "pitch": 72, "duration": 8, "velocity": 92}, {"time": 2979, "pitch": 74, "duration": 14, "velocity": 94}, {"time": 2997, "pitch": 76, "duration": 2, "velocity": 96}, {"time": 3000, "pitch": 78, "duration": 2, "velocity": 95}, {"time": 3003, "pitch": 79, "duration": 4, "velocity": 92}, {"time": 3009, "pitch": 79, "duration": 2, "velocity": 91}, {"time": 3012, "pitch": 79, "duration": 4, "velocity": 90}, {"time": 3018, "pitch": 79, "duration": 6, "velocity": 91}, {"time": 3027, "pitch": 78, "duration": 4, "velocity": 97}, {"time": 3033, "pitch": 76, "duration": 2, "velocity": 94}, {"time": 3036, "pitch": 74, "duration": 7, "velocity": 101}, {"time": 3051, "pitch": 76, "duration": 5, "velocity": 97}, {"time": 3057, "pitch": 79, "duration": 3, "velocity": 91}, {"time": 3063, "pitch": 78, "duration": 5, "velocity": 96}, {"time": 3069, "pitch": 74, "duration": 5, "velocity": 96}, {"time": 3075, "pitch": 76, "duration": 12, "velocity": 91}, {"time": 3093, "pitch": 76, "duration": 2, "velocity": 99}, {"time": 3096, "pitch": 78, "duration": 2, "velocity": 85}, {"time": 3099, "pitch": 79, "duration": 5, "velocity": 91}, {"time": 3105, "pitch": 78, "duration": 2, "velocity": 95}, {"time": 3108, "pitch": 79, "duration": 5, "velocity": 94}, {"time": 3114, "pitch": 79, "duration": 7, "velocity": 92}, {"time": 3123, "pitch": 78, "duration": 5, "velocity": 99}, {"time": 3129, "pitch": 78, "duration": 2, "velocity": 91}, {"time": 3132, "pitch": 76, "duration": 5, "velocity": 97}, {"time": 3138, "pitch": 74, "duration": 7, "velocity": 97}, {"time": 3147, "pitch": 76, "duration": 4, "velocity": 92}, {"time": 3153, "pitch": 76, "duration": 5, "velocity": 95}, {"time": 3159, "pitch": 74, "duration": 3, "velocity": 101}, {"time": 3162, "pitch": 72, "duration": 8, "velocity": 92}, {"time": 3171, "pitch": 74, "duration": 14, "velocity": 94}, {"time": 3189, "pitch": 76, "duration": 2, "velocity": 96}, {"time": 3192, "pitch": 78, "duration": 2, "velocity": 95}, {"time": 3195, "pitch": 79, "duration": 4, "velocity": 92}, {"time": 3201, "pitch": 79, "duration": 2, "velocity": 91}, {"time": 3204, "pitch": 79, "duration": 4, "velocity": 90}, {"time": 3210, "pitch": 79, "duration": 6, "velocity": 91}, {"time": 3219, "pitch": 78, "duration": 4, "velocity": 97}, {"time": 3225, "pitch": 76, "duration": 2, "velocity": 94}, {"time": 3228, "pitch": 74, "duration": 9, "velocity": 101}, {"time": 3237, "pitch": 74, "duration": 6, "velocity": 101}, {"time": 3243, "pitch": 76, "duration": 5, "velocity": 97}, {"time": 3249, "pitch": 79, "duration": 3, "velocity": 91}, {"time": 3255, "pitch": 78, "duration": 5, "velocity": 96}, {"time": 3261, "pitch": 74, "duration": 5, "velocity": 96}, {"time": 3267, "pitch": 76, "duration": 17, "velocity": 91}, {"time": 3303, "pitch": 79, "duration": 4, "velocity": 90}, {"time": 3309, "pitch": 78, "duration": 5, "velocity": 92}, {"time": 3315, "pitch": 76, "duration": 36, "velocity": 92}, {"time": 3351, "pitch": 76, "duration": 2, "velocity": 99}, {"time": 3354, "pitch": 78, "duration": 9, "velocity": 85}, {"time": 3363, "pitch": 79, "duration": 5, "velocity": 91}, {"time": 3369, "pitch": 78, "duration": 2, "velocity": 95}, {"time": 3372, "pitch": 79, "duration": 5, "velocity": 94}, {"time": 3378, "pitch": 79, "duration": 7, "velocity": 92}, {"time": 3387, "pitch": 78, "duration": 5, "velocity": 99}, {"time": 3393, "pitch": 78, "duration": 2, "velocity": 91}, {"time": 3396, "pitch": 76, "duration": 5, "velocity": 97}, {"time": 3402, "pitch": 74, "duration": 7, "velocity": 97}, {"time": 3411, "pitch": 76, "duration": 4, "velocity": 92}, {"time": 3417, "pitch": 76, "duration": 5, "velocity": 95}, {"time": 3423, "pitch": 74, "duration": 3, "velocity": 101}, {"time": 3426, "pitch": 72, "duration": 8, "velocity": 92}, {"time": 3435, "pitch": 74, "duration": 14, "velocity": 94}, {"time": 3453, "pitch": 76, "duration": 2, "velocity": 96}, {"time": 3456, "pitch": 78, "duration": 2, "velocity": 95}, {"time": 3459, "pitch": 79, "duration": 4, "velocity": 92}, {"time": 3465, "pitch": 79, "duration": 2, "velocity": 91}, {"time": 3468, "pitch": 79, "duration": 4, "velocity": 90}, {"time": 3474, "pitch": 79, "duration": 6, "velocity": 91}, {"time": 3483, "pitch": 78, "duration": 4, "velocity": 97}, {"time": 3489, "pitch": 76, "duration": 2, "velocity": 94}, {"time": 3492, "pitch": 74, "duration": 21, "velocity": 101}, {"time": 3519, "pitch": 76, "duration": 8, "velocity": 94}, {"time": 3526, "pitch": 79, "duration": 9, "velocity": 91}, {"time": 3535, "pitch": 78, "duration": 19, "velocity": 94}, {"time": 3554, "pitch": 74, "duration": 25, "velocity": 86}, {"time": 3579, "pitch": 76, "duration": 43, "velocity": 95}]}, {"program": 0, "is_drum": false, "name": "PIANO", "notes": [{"time": 51, "pitch": 40, "duration": 14, "velocity": 93}, {"time": 51, "pitch": 52, "duration": 10, "velocity": 91}, {"time": 51, "pitch": 59, "duration": 6, "velocity": 89}, {"time": 57, "pitch": 47, "duration": 10, "velocity": 82}, {"time": 63, "pitch": 55, "duration": 3, "velocity": 92}, {"time": 63, "pitch": 59, "duration": 3, "velocity": 90}, {"time": 75, "pitch": 39, "duration": 16, "velocity": 90}, {"time": 75, "pitch": 51, "duration": 8, "velocity": 84}, {"time": 75, "pitch": 59, "duration": 7, "velocity": 90}, {"time": 81, "pitch": 47, "duration": 8, "velocity": 71}, {"time": 87, "pitch": 51, "duration": 3, "velocity": 84}, {"time": 87, "pitch": 59, "duration": 8, "velocity": 91}, {"time": 99, "pitch": 38, "duration": 16, "velocity": 90}, {"time": 99, "pitch": 50, "duration": 7, "velocity": 87}, {"time": 99, "pitch": 59, "duration": 7, "velocity": 90}, {"time": 105, "pitch": 47, "duration": 10, "velocity": 76}, {"time": 111, "pitch": 50, "duration": 3, "velocity": 91}, {"time": 111, "pitch": 59, "duration": 5, "velocity": 90}, {"time": 123, "pitch": 37, "duration": 11, "velocity": 83}, {"time": 123, "pitch": 52, "duration": 4, "velocity": 84}, {"time": 123, "pitch": 57, "duration": 9, "velocity": 84}, {"time": 129, "pitch": 52, "duration": 4, "velocity": 84}, {"time": 135, "pitch": 52, "duration": 10, "velocity": 91}, {"time": 135, "pitch": 57, "duration": 10, "velocity": 89}, {"time": 135, "pitch": 61, "duration": 10, "velocity": 84}, {"time": 147, "pitch": 48, "duration": 18, "velocity": 92}, {"time": 147, "pitch": 60, "duration": 7, "velocity": 84}, {"time": 147, "pitch": 64, "duration": 9, "velocity": 90}, {"time": 153, "pitch": 55, "duration": 13, "velocity": 85}, {"time": 159, "pitch": 60, "duration": 7, "velocity": 94}, {"time": 165, "pitch": 64, "duration": 6, "velocity": 96}, {"time": 171, "pitch": 50, "duration": 13, "velocity": 91}, {"time": 171, "pitch": 62, "duration": 7, "velocity": 90}, {"time": 171, "pitch": 66, "duration": 12, "velocity": 86}, {"time": 177, "pitch": 57, "duration": 7, "velocity": 83}, {"time": 183, "pitch": 62, "duration": 6, "velocity": 92}, {"time": 189, "pitch": 66, "duration": 5, "velocity": 92}, {"time": 195, "pitch": 40, "duration": 2, "velocity": 90}, {"time": 195, "pitch": 64, "duration": 13, "velocity": 85}, {"time": 195, "pitch": 67, "duration": 17, "velocity": 83}, {"time": 201, "pitch": 52, "duration": 23, "velocity": 88}, {"time": 207, "pitch": 59, "duration": 16, "velocity": 86}, {"time": 213, "pitch": 64, "duration": 3, "velocity": 92}, {"time": 219, "pitch": 64, "duration": 14, "velocity": 90}, {"time": 219, "pitch": 71, "duration": 13, "velocity": 90}, {"time": 243, "pitch": 40, "duration": 14, "velocity": 91}, {"time": 243, "pitch": 59, "duration": 12, "velocity": 84}, {"time": 243, "pitch": 67, "duration": 12, "velocity": 86}, {"time": 249, "pitch": 47, "duration": 7, "velocity": 74}, {"time": 255, "pitch": 64, "duration": 5, "velocity": 91}, {"time": 267, "pitch": 50, "duration": 14, "velocity": 90}, {"time": 267, "pitch": 57, "duration": 3, "velocity": 81}, {"time": 267, "pitch": 66, "duration": 13, "velocity": 81}, {"time": 273, "pitch": 57, "duration": 8, "velocity": 83}, {"time": 279, "pitch": 62, "duration": 1, "velocity": 90}, {"time": 291, "pitch": 48, "duration": 3, "velocity": 89}, {"time": 291, "pitch": 55, "duration": 3, "velocity": 87}, {"time": 291, "pitch": 64, "duration": 4, "velocity": 91}, {"time": 303, "pitch": 50, "duration": 7, "velocity": 91}, {"time": 303, "pitch": 57, "duration": 9, "velocity": 69}, {"time": 303, "pitch": 62, "duration": 6, "velocity": 83}, {"time": 315, "pitch": 43, "duration": 20, "velocity": 89}, {"time": 315, "pitch": 55, "duration": 12, "velocity": 81}, {"time": 315, "pitch": 59, "duration": 12, "velocity": 85}, {"time": 321, "pitch": 50, "duration": 14, "velocity": 79}, {"time": 327, "pitch": 62, "duration": 7, "velocity": 91}, {"time": 333, "pitch": 55, "duration": 2, "velocity": 87}, {"time": 339, "pitch": 40, "duration": 17, "velocity": 91}, {"time": 339, "pitch": 59, "duration": 1, "velocity": 75}, {"time": 339, "pitch": 64, "duration": 11, "velocity": 90}, {"time": 339, "pitch": 67, "duration": 11, "velocity": 84}, {"time": 345, "pitch": 47, "duration": 11, "velocity": 78}, {"time": 351, "pitch": 59, "duration": 7, "velocity": 91}, {"time": 357, "pitch": 64, "duration": 1, "velocity": 93}, {"time": 363, "pitch": 50, "duration": 13, "velocity": 85}, {"time": 363, "pitch": 57, "duration": 3, "velocity": 81}, {"time": 363, "pitch": 62, "duration": 7, "velocity": 86}, {"time": 369, "pitch": 57, "duration": 4, "velocity": 84}, {"time": 375, "pitch": 57, "duration": 3, "velocity": 90}, {"time": 375, "pitch": 62, "duration": 3, "velocity": 90}, {"time": 375, "pitch": 66, "duration": 3, "velocity": 84}, {"time": 387, "pitch": 48, "duration": 3, "velocity": 90}, {"time": 387, "pitch": 55, "duration": 3, "velocity": 83}, {"time": 387, "pitch": 60, "duration": 3, "velocity": 82}, {"time": 387, "pitch": 64, "duration": 4, "velocity": 90}, {"time": 399, "pitch": 38, "duration": 3, "velocity": 91}, {"time": 399, "pitch": 57, "duration": 7, "velocity": 82}, {"time": 399, "pitch": 62, "duration": 6, "velocity": 86}, {"time": 399, "pitch": 66, "duration": 6, "velocity": 81}, {"time": 411, "pitch": 43, "duration": 16, "velocity": 90}, {"time": 411, "pitch": 55, "duration": 9, "velocity": 85}, {"time": 411, "pitch": 62, "duration": 9, "velocity": 86}, {"time": 417, "pitch": 50, "duration": 8, "velocity": 90}, {"time": 423, "pitch": 55, "duration": 2, "velocity": 85}, {"time": 423, "pitch": 62, "duration": 12, "velocity": 90}, {"time": 423, "pitch": 67, "duration": 11, "velocity": 85}, {"time": 429, "pitch": 55, "duration": 5, "velocity": 99}, {"time": 435, "pitch": 40, "duration": 14, "velocity": 91}, {"time": 435, "pitch": 59, "duration": 12, "velocity": 84}, {"time": 435, "pitch": 67, "duration": 12, "velocity": 86}, {"time": 441, "pitch": 47, "duration": 7, "velocity": 74}, {"time": 447, "pitch": 64, "duration": 5, "velocity": 91}, {"time": 459, "pitch": 50, "duration": 14, "velocity": 90}, {"time": 459, "pitch": 57, "duration": 3, "velocity": 81}, {"time": 459, "pitch": 66, "duration": 13, "velocity": 81}, {"time": 465, "pitch": 57, "duration": 8, "velocity": 83}, {"time": 471, "pitch": 62, "duration": 1, "velocity": 90}, {"time": 483, "pitch": 48, "duration": 3, "velocity": 89}, {"time": 483, "pitch": 55, "duration": 3, "velocity": 87}, {"time": 483, "pitch": 64, "duration": 4, "velocity": 91}, {"time": 495, "pitch": 50, "duration": 7, "velocity": 91}, {"time": 495, "pitch": 57, "duration": 9, "velocity": 69}, {"time": 495, "pitch": 62, "duration": 6, "velocity": 83}, {"time": 507, "pitch": 43, "duration": 20, "velocity": 89}, {"time": 507, "pitch": 55, "duration": 12, "velocity": 81}, {"time": 507, "pitch": 59, "duration": 12, "velocity": 85}, {"time": 513, "pitch": 50, "duration": 14, "velocity": 79}, {"time": 519, "pitch": 62, "duration": 7, "velocity": 91}, {"time": 525, "pitch": 55, "duration": 2, "velocity": 87}, {"time": 531, "pitch": 40, "duration": 17, "velocity": 91}, {"time": 531, "pitch": 59, "duration": 1, "velocity": 75}, {"time": 531, "pitch": 64, "duration": 11, "velocity": 90}, {"time": 531, "pitch": 67, "duration": 11, "velocity": 84}, {"time": 537, "pitch": 47, "duration": 11, "velocity": 78}, {"time": 543, "pitch": 59, "duration": 7, "velocity": 91}, {"time": 549, "pitch": 64, "duration": 1, "velocity": 93}, {"time": 555, "pitch": 50, "duration": 13, "velocity": 85}, {"time": 555, "pitch": 57, "duration": 3, "velocity": 81}, {"time": 555, "pitch": 62, "duration": 7, "velocity": 86}, {"time": 561, "pitch": 57, "duration": 4, "velocity": 84}, {"time": 567, "pitch": 57, "duration": 3, "velocity": 90}, {"time": 567, "pitch": 62, "duration": 3, "velocity": 90}, {"time": 567, "pitch": 66, "duration": 3, "velocity": 84}, {"time": 579, "pitch": 48, "duration": 3, "velocity": 90}, {"time": 579, "pitch": 55, "duration": 3, "velocity": 83}, {"time": 579, "pitch": 60, "duration": 3, "velocity": 82}, {"time": 579, "pitch": 64, "duration": 4, "velocity": 90}, {"time": 591, "pitch": 38, "duration": 3, "velocity": 91}, {"time": 591, "pitch": 57, "duration": 7, "velocity": 82}, {"time": 591, "pitch": 62, "duration": 6, "velocity": 86}, {"time": 591, "pitch": 66, "duration": 6, "velocity": 81}, {"time": 603, "pitch": 43, "duration": 16, "velocity": 90}, {"time": 603, "pitch": 55, "duration": 9, "velocity": 85}, {"time": 603, "pitch": 62, "duration": 9, "velocity": 86}, {"time": 609, "pitch": 50, "duration": 8, "velocity": 90}, {"time": 615, "pitch": 55, "duration": 2, "velocity": 85}, {"time": 615, "pitch": 62, "duration": 12, "velocity": 90}, {"time": 615, "pitch": 67, "duration": 11, "velocity": 85}, {"time": 621, "pitch": 55, "duration": 5, "velocity": 99}, {"time": 627, "pitch": 52, "duration": 20, "velocity": 92}, {"time": 627, "pitch": 64, "duration": 7, "velocity": 90}, {"time": 627, "pitch": 67, "duration": 9, "velocity": 86}, {"time": 633, "pitch": 59, "duration": 19, "velocity": 78}, {"time": 639, "pitch": 71, "duration": 9, "velocity": 90}, {"time": 645, "pitch": 64, "duration": 6, "velocity": 93}, {"time": 651, "pitch": 51, "duration": 21, "velocity": 95}, {"time": 657, "pitch": 63, "duration": 4, "velocity": 89}, {"time": 663, "pitch": 63, "duration": 7, "velocity": 92}, {"time": 663, "pitch": 71, "duration": 13, "velocity": 91}, {"time": 669, "pitch": 59, "duration": 8, "velocity": 84}, {"time": 675, "pitch": 50, "duration": 18, "velocity": 92}, {"time": 675, "pitch": 62, "duration": 13, "velocity": 90}, {"time": 681, "pitch": 59, "duration": 13, "velocity": 86}, {"time": 687, "pitch": 67, "duration": 6, "velocity": 85}, {"time": 687, "pitch": 71, "duration": 7, "velocity": 92}, {"time": 693, "pitch": 62, "duration": 3, "velocity": 92}, {"time": 699, "pitch": 49, "duration": 23, "velocity": 87}, {"time": 699, "pitch": 61, "duration": 7, "velocity": 92}, {"time": 705, "pitch": 57, "duration": 7, "velocity": 91}, {"time": 711, "pitch": 61, "duration": 11, "velocity": 76}, {"time": 711, "pitch": 64, "duration": 12, "velocity": 86}, {"time": 711, "pitch": 69, "duration": 12, "velocity": 85}, {"time": 717, "pitch": 57, "duration": 5, "velocity": 86}, {"time": 723, "pitch": 48, "duration": 17, "velocity": 92}, {"time": 723, "pitch": 60, "duration": 9, "velocity": 83}, {"time": 723, "pitch": 64, "duration": 8, "velocity": 90}, {"time": 729, "pitch": 55, "duration": 11, "velocity": 83}, {"time": 735, "pitch": 60, "duration": 2, "velocity": 91}, {"time": 735, "pitch": 64, "duration": 6, "velocity": 94}, {"time": 735, "pitch": 67, "duration": 6, "velocity": 90}, {"time": 741, "pitch": 60, "duration": 2, "velocity": 85}, {"time": 747, "pitch": 50, "duration": 14, "velocity": 92}, {"time": 747, "pitch": 62, "duration": 7, "velocity": 87}, {"time": 747, "pitch": 66, "duration": 8, "velocity": 91}, {"time": 753, "pitch": 57, "duration": 7, "velocity": 85}, {"time": 759, "pitch": 62, "duration": 9, "velocity": 94}, {"time": 765, "pitch": 66, "duration": 5, "velocity": 91}, {"time": 771, "pitch": 43, "duration": 22, "velocity": 90}, {"time": 771, "pitch": 62, "duration": 4, "velocity": 88}, {"time": 771, "pitch": 67, "duration": 4, "velocity": 86}, {"time": 777, "pitch": 50, "duration": 15, "velocity": 82}, {"time": 783, "pitch": 55, "duration": 7, "velocity": 90}, {"time": 789, "pitch": 57, "duration": 5, "velocity": 96}, {"time": 795, "pitch": 55, "duration": 8, "velocity": 90}, {"time": 795, "pitch": 59, "duration": 7, "velocity": 92}, {"time": 801, "pitch": 43, "duration": 9, "velocity": 87}, {"time": 807, "pitch": 55, "duration": 3, "velocity": 91}, {"time": 807, "pitch": 59, "duration": 4, "velocity": 95}, {"time": 807, "pitch": 62, "duration": 4, "velocity": 92}, {"time": 819, "pitch": 40, "duration": 13, "velocity": 92}, {"time": 819, "pitch": 59, "duration": 7, "velocity": 87}, {"time": 819, "pitch": 64, "duration": 7, "velocity": 90}, {"time": 825, "pitch": 47, "duration": 7, "velocity": 78}, {"time": 831, "pitch": 59, "duration": 2, "velocity": 91}, {"time": 831, "pitch": 64, "duration": 3, "velocity": 93}, {"time": 831, "pitch": 67, "duration": 3, "velocity": 90}, {"time": 843, "pitch": 51, "duration": 23, "velocity": 84}, {"time": 843, "pitch": 63, "duration": 3, "velocity": 84}, {"time": 843, "pitch": 66, "duration": 7, "velocity": 86}, {"time": 843, "pitch": 69, "duration": 8, "velocity": 81}, {"time": 849, "pitch": 63, "duration": 3, "velocity": 78}, {"time": 855, "pitch": 63, "duration": 5, "velocity": 90}, {"time": 855, "pitch": 66, "duration": 5, "velocity": 90}, {"time": 855, "pitch": 69, "duration": 6, "velocity": 90}, {"time": 867, "pitch": 50, "duration": 19, "velocity": 92}, {"time": 867, "pitch": 62, "duration": 7, "velocity": 89}, {"time": 867, "pitch": 66, "duration": 8, "velocity": 89}, {"time": 873, "pitch": 57, "duration": 19, "velocity": 80}, {"time": 879, "pitch": 66, "duration": 6, "velocity": 92}, {"time": 879, "pitch": 69, "duration": 7, "velocity": 90}, {"time": 885, "pitch": 62, "duration": 2, "velocity": 88}, {"time": 891, "pitch": 49, "duration": 18, "velocity": 84}, {"time": 891, "pitch": 61, "duration": 13, "velocity": 82}, {"time": 891, "pitch": 64, "duration": 4, "velocity": 69}, {"time": 897, "pitch": 57, "duration": 12, "velocity": 85}, {"time": 903, "pitch": 64, "duration": 6, "velocity": 91}, {"time": 903, "pitch": 69, "duration": 6, "velocity": 90}, {"time": 915, "pitch": 48, "duration": 20, "velocity": 92}, {"time": 915, "pitch": 60, "duration": 8, "velocity": 78}, {"time": 915, "pitch": 64, "duration": 8, "velocity": 92}, {"time": 921, "pitch": 55, "duration": 13, "velocity": 85}, {"time": 927, "pitch": 60, "duration": 3, "velocity": 90}, {"time": 927, "pitch": 64, "duration": 7, "velocity": 92}, {"time": 927, "pitch": 67, "duration": 6, "velocity": 87}, {"time": 933, "pitch": 60, "duration": 3, "velocity": 83}, {"time": 939, "pitch": 50, "duration": 18, "velocity": 80}, {"time": 939, "pitch": 57, "duration": 4, "velocity": 70}, {"time": 939, "pitch": 62, "duration": 7, "velocity": 82}, {"time": 945, "pitch": 57, "duration": 7, "velocity": 90}, {"time": 951, "pitch": 62, "duration": 6, "velocity": 92}, {"time": 951, "pitch": 66, "duration": 7, "velocity": 92}, {"time": 957, "pitch": 57, "duration": 2, "velocity": 90}, {"time": 963, "pitch": 40, "duration": 21, "velocity": 91}, {"time": 963, "pitch": 59, "duration": 4, "velocity": 82}, {"time": 963, "pitch": 64, "duration": 6, "velocity": 88}, {"time": 969, "pitch": 47, "duration": 14, "velocity": 78}, {"time": 975, "pitch": 54, "duration": 1, "velocity": 96}, {"time": 981, "pitch": 55, "duration": 2, "velocity": 96}, {"time": 987, "pitch": 40, "duration": 25, "velocity": 95}, {"time": 987, "pitch": 55, "duration": 3, "velocity": 91}, {"time": 987, "pitch": 59, "duration": 4, "velocity": 96}, {"time": 987, "pitch": 64, "duration": 5, "velocity": 92}, {"time": 993, "pitch": 47, "duration": 20, "velocity": 90}, {"time": 999, "pitch": 64, "duration": 2, "velocity": 104}, {"time": 1002, "pitch": 66, "duration": 2, "velocity": 94}, {"time": 1005, "pitch": 67, "duration": 3, "velocity": 92}, {"time": 1008, "pitch": 69, "duration": 2, "velocity": 91}, {"time": 1011, "pitch": 40, "duration": 1, "velocity": 92}, {"time": 1011, "pitch": 67, "duration": 4, "velocity": 92}, {"time": 1014, "pitch": 47, "duration": 13, "velocity": 77}, {"time": 1014, "pitch": 59, "duration": 4, "velocity": 86}, {"time": 1017, "pitch": 64, "duration": 3, "velocity": 90}, {"time": 1020, "pitch": 67, "duration": 6, "velocity": 91}, {"time": 1026, "pitch": 59, "duration": 4, "velocity": 91}, {"time": 1029, "pitch": 64, "duration": 3, "velocity": 90}, {"time": 1032, "pitch": 67, "duration": 1, "velocity": 86}, {"time": 1035, "pitch": 47, "duration": 16, "velocity": 92}, {"time": 1035, "pitch": 66, "duration": 7, "velocity": 101}, {"time": 1041, "pitch": 59, "duration": 7, "velocity": 93}, {"time": 1044, "pitch": 62, "duration": 4, "velocity": 93}, {"time": 1047, "pitch": 54, "duration": 4, "velocity": 91}, {"time": 1050, "pitch": 59, "duration": 2, "velocity": 91}, {"time": 1050, "pitch": 62, "duration": 4, "velocity": 92}, {"time": 1050, "pitch": 66, "duration": 5, "velocity": 89}, {"time": 1053, "pitch": 59, "duration": 2, "velocity": 92}, {"time": 1059, "pitch": 48, "duration": 6, "velocity": 95}, {"time": 1059, "pitch": 55, "duration": 2, "velocity": 84}, {"time": 1059, "pitch": 60, "duration": 4, "velocity": 90}, {"time": 1062, "pitch": 55, "duration": 4, "velocity": 90}, {"time": 1065, "pitch": 60, "duration": 4, "velocity": 90}, {"time": 1071, "pitch": 38, "duration": 6, "velocity": 96}, {"time": 1071, "pitch": 57, "duration": 3, "velocity": 86}, {"time": 1071, "pitch": 62, "duration": 5, "velocity": 86}, {"time": 1074, "pitch": 45, "duration": 3, "velocity": 82}, {"time": 1077, "pitch": 57, "duration": 3, "velocity": 93}, {"time": 1080, "pitch": 62, "duration": 1, "velocity": 87}, {"time": 1083, "pitch": 43, "duration": 17, "velocity": 91}, {"time": 1083, "pitch": 55, "duration": 3, "velocity": 92}, {"time": 1083, "pitch": 59, "duration": 5, "velocity": 92}, {"time": 1086, "pitch": 50, "duration": 7, "velocity": 86}, {"time": 1089, "pitch": 55, "duration": 3, "velocity": 92}, {"time": 1092, "pitch": 55, "duration": 2, "velocity": 84}, {"time": 1092, "pitch": 62, "duration": 6, "velocity": 99}, {"time": 1095, "pitch": 50, "duration": 5, "velocity": 90}, {"time": 1098, "pitch": 55, "duration": 4, "velocity": 95}, {"time": 1101, "pitch": 59, "duration": 1, "velocity": 92}, {"time": 1107, "pitch": 40, "duration": 18, "velocity": 93}, {"time": 1107, "pitch": 59, "duration": 3, "velocity": 90}, {"time": 1107, "pitch": 64, "duration": 5, "velocity": 92}, {"time": 1110, "pitch": 47, "duration": 13, "velocity": 84}, {"time": 1113, "pitch": 59, "duration": 4, "velocity": 92}, {"time": 1116, "pitch": 64, "duration": 6, "velocity": 94}, {"time": 1122, "pitch": 67, "duration": 3, "velocity": 94}, {"time": 1125, "pitch": 64, "duration": 3, "velocity": 90}, {"time": 1128, "pitch": 59, "duration": 1, "velocity": 91}, {"time": 1131, "pitch": 47, "duration": 12, "velocity": 94}, {"time": 1131, "pitch": 59, "duration": 3, "velocity": 85}, {"time": 1131, "pitch": 62, "duration": 6, "velocity": 86}, {"time": 1137, "pitch": 59, "duration": 1, "velocity": 90}, {"time": 1140, "pitch": 59, "duration": 3, "velocity": 93}, {"time": 1140, "pitch": 66, "duration": 4, "velocity": 94}, {"time": 1143, "pitch": 54, "duration": 4, "velocity": 91}, {"time": 1146, "pitch": 59, "duration": 1, "velocity": 76}, {"time": 1146, "pitch": 62, "duration": 3, "velocity": 104}, {"time": 1149, "pitch": 59, "duration": 1, "velocity": 92}, {"time": 1155, "pitch": 48, "duration": 6, "velocity": 99}, {"time": 1155, "pitch": 55, "duration": 3, "velocity": 91}, {"time": 1155, "pitch": 60, "duration": 6, "velocity": 89}, {"time": 1161, "pitch": 55, "duration": 4, "velocity": 91}, {"time": 1164, "pitch": 60, "duration": 2, "velocity": 93}, {"time": 1167, "pitch": 38, "duration": 7, "velocity": 92}, {"time": 1167, "pitch": 57, "duration": 3, "velocity": 85}, {"time": 1167, "pitch": 62, "duration": 5, "velocity": 88}, {"time": 1170, "pitch": 45, "duration": 4, "velocity": 90}, {"time": 1173, "pitch": 57, "duration": 4, "velocity": 92}, {"time": 1176, "pitch": 62, "duration": 3, "velocity": 92}, {"time": 1179, "pitch": 40, "duration": 22, "velocity": 95}, {"time": 1182, "pitch": 47, "duration": 17, "velocity": 82}, {"time": 1185, "pitch": 52, "duration": 2, "velocity": 99}, {"time": 1188, "pitch": 54, "duration": 1, "velocity": 96}, {"time": 1191, "pitch": 55, "duration": 4, "velocity": 92}, {"time": 1194, "pitch": 59, "duration": 3, "velocity": 96}, {"time": 1197, "pitch": 64, "duration": 4, "velocity": 97}, {"time": 1200, "pitch": 55, "duration": 2, "velocity": 89}, {"time": 1203, "pitch": 40, "duration": 14, "velocity": 96}, {"time": 1203, "pitch": 55, "duration": 5, "velocity": 92}, {"time": 1203, "pitch": 64, "duration": 7, "velocity": 93}, {"time": 1209, "pitch": 47, "duration": 8, "velocity": 85}, {"time": 1212, "pitch": 55, "duration": 1, "velocity": 86}, {"time": 1215, "pitch": 59, "duration": 3, "velocity": 96}, {"time": 1215, "pitch": 64, "duration": 4, "velocity": 97}, {"time": 1218, "pitch": 55, "duration": 3, "velocity": 92}, {"time": 1221, "pitch": 59, "duration": 1, "velocity": 91}, {"time": 1227, "pitch": 47, "duration": 15, "velocity": 92}, {"time": 1227, "pitch": 59, "duration": 3, "velocity": 85}, {"time": 1227, "pitch": 62, "duration": 5, "velocity": 90}, {"time": 1230, "pitch": 54, "duration": 7, "velocity": 74}, {"time": 1233, "pitch": 59, "duration": 4, "velocity": 96}, {"time": 1236, "pitch": 62, "duration": 4, "velocity": 106}, {"time": 1239, "pitch": 54, "duration": 3, "velocity": 91}, {"time": 1242, "pitch": 66, "duration": 3, "velocity": 101}, {"time": 1245, "pitch": 62, "duration": 4, "velocity": 90}, {"time": 1248, "pitch": 59, "duration": 1, "velocity": 92}, {"time": 1251, "pitch": 48, "duration": 5, "velocity": 93}, {"time": 1251, "pitch": 60, "duration": 3, "velocity": 91}, {"time": 1251, "pitch": 64, "duration": 5, "velocity": 92}, {"time": 1254, "pitch": 55, "duration": 2, "velocity": 85}, {"time": 1257, "pitch": 60, "duration": 2, "velocity": 91}, {"time": 1263, "pitch": 38, "duration": 5, "velocity": 93}, {"time": 1263, "pitch": 57, "duration": 3, "velocity": 92}, {"time": 1263, "pitch": 62, "duration": 5, "velocity": 90}, {"time": 1266, "pitch": 45, "duration": 3, "velocity": 83}, {"time": 1269, "pitch": 57, "duration": 3, "velocity": 92}, {"time": 1272, "pitch": 62, "duration": 2, "velocity": 87}, {"time": 1275, "pitch": 43, "duration": 17, "velocity": 91}, {"time": 1275, "pitch": 55, "duration": 3, "velocity": 82}, {"time": 1275, "pitch": 59, "duration": 5, "velocity": 95}, {"time": 1278, "pitch": 50, "duration": 7, "velocity": 90}, {"time": 1281, "pitch": 55, "duration": 2, "velocity": 93}, {"time": 1284, "pitch": 62, "duration": 4, "velocity": 99}, {"time": 1287, "pitch": 50, "duration": 5, "velocity": 91}, {"time": 1290, "pitch": 55, "duration": 2, "velocity": 96}, {"time": 1293, "pitch": 62, "duration": 1, "velocity": 92}, {"time": 1299, "pitch": 40, "duration": 17, "velocity": 93}, {"time": 1299, "pitch": 59, "duration": 3, "velocity": 84}, {"time": 1299, "pitch": 64, "duration": 5, "velocity": 87}, {"time": 1302, "pitch": 47, "duration": 14, "velocity": 86}, {"time": 1305, "pitch": 59, "duration": 2, "velocity": 92}, {"time": 1308, "pitch": 67, "duration": 6, "velocity": 92}, {"time": 1314, "pitch": 59, "duration": 3, "velocity": 99}, {"time": 1317, "pitch": 64, "duration": 2, "velocity": 91}, {"time": 1320, "pitch": 59, "duration": 2, "velocity": 86}, {"time": 1323, "pitch": 47, "duration": 17, "velocity": 92}, {"time": 1323, "pitch": 59, "duration": 3, "velocity": 91}, {"time": 1323, "pitch": 62, "duration": 7, "velocity": 91}, {"time": 1329, "pitch": 54, "duration": 4, "velocity": 88}, {"time": 1332, "pitch": 59, "duration": 4, "velocity": 99}, {"time": 1335, "pitch": 54, "duration": 3, "velocity": 92}, {"time": 1338, "pitch": 66, "duration": 4, "velocity": 101}, {"time": 1341, "pitch": 59, "duration": 3, "velocity": 92}, {"time": 1347, "pitch": 48, "duration": 4, "velocity": 92}, {"time": 1347, "pitch": 60, "duration": 5, "velocity": 90}, {"time": 1347, "pitch": 64, "duration": 7, "velocity": 93}, {"time": 1359, "pitch": 38, "duration": 2, "velocity": 92}, {"time": 1359, "pitch": 62, "duration": 5, "velocity": 87}, {"time": 1359, "pitch": 66, "duration": 4, "velocity": 86}, {"time": 1371, "pitch": 45, "duration": 40, "velocity": 91}, {"time": 1371, "pitch": 57, "duration": 6, "velocity": 85}, {"time": 1371, "pitch": 61, "duration": 6, "velocity": 86}, {"time": 1371, "pitch": 64, "duration": 6, "velocity": 91}, {"time": 1371, "pitch": 69, "duration": 5, "velocity": 86}, {"time": 1377, "pitch": 52, "duration": 11, "velocity": 78}, {"time": 1380, "pitch": 57, "duration": 4, "velocity": 96}, {"time": 1380, "pitch": 69, "duration": 4, "velocity": 87}, {"time": 1386, "pitch": 57, "duration": 3, "velocity": 93}, {"time": 1386, "pitch": 69, "duration": 4, "velocity": 88}, {"time": 1389, "pitch": 52, "duration": 7, "velocity": 91}, {"time": 1392, "pitch": 57, "duration": 1, "velocity": 99}, {"time": 1395, "pitch": 57, "duration": 6, "velocity": 94}, {"time": 1395, "pitch": 64, "duration": 7, "velocity": 93}, {"time": 1401, "pitch": 52, "duration": 6, "velocity": 90}, {"time": 1404, "pitch": 57, "duration": 2, "velocity": 92}, {"time": 1407, "pitch": 57, "duration": 3, "velocity": 92}, {"time": 1407, "pitch": 61, "duration": 2, "velocity": 90}, {"time": 1407, "pitch": 64, "duration": 3, "velocity": 94}, {"time": 1410, "pitch": 52, "duration": 2, "velocity": 91}, {"time": 1413, "pitch": 45, "duration": 1, "velocity": 92}, {"time": 1419, "pitch": 36, "duration": 1, "velocity": 90}, {"time": 1419, "pitch": 55, "duration": 4, "velocity": 91}, {"time": 1419, "pitch": 64, "duration": 5, "velocity": 92}, {"time": 1425, "pitch": 48, "duration": 20, "velocity": 86}, {"time": 1428, "pitch": 55, "duration": 8, "velocity": 92}, {"time": 1431, "pitch": 60, "duration": 1, "velocity": 96}, {"time": 1434, "pitch": 60, "duration": 3, "velocity": 99}, {"time": 1434, "pitch": 67, "duration": 5, "velocity": 93}, {"time": 1437, "pitch": 55, "duration": 7, "velocity": 84}, {"time": 1443, "pitch": 60, "duration": 3, "velocity": 97}, {"time": 1443, "pitch": 64, "duration": 3, "velocity": 106}, {"time": 1455, "pitch": 47, "duration": 12, "velocity": 94}, {"time": 1455, "pitch": 59, "duration": 11, "velocity": 91}, {"time": 1455, "pitch": 66, "duration": 12, "velocity": 89}, {"time": 1467, "pitch": 40, "duration": 17, "velocity": 92}, {"time": 1467, "pitch": 67, "duration": 4, "velocity": 92}, {"time": 1470, "pitch": 47, "duration": 13, "velocity": 77}, {"time": 1470, "pitch": 59, "duration": 4, "velocity": 86}, {"time": 1473, "pitch": 64, "duration": 3, "velocity": 90}, {"time": 1476, "pitch": 67, "duration": 6, "velocity": 91}, {"time": 1482, "pitch": 59, "duration": 4, "velocity": 91}, {"time": 1485, "pitch": 64, "duration": 3, "velocity": 90}, {"time": 1488, "pitch": 67, "duration": 1, "velocity": 86}, {"time": 1491, "pitch": 47, "duration": 16, "velocity": 92}, {"time": 1491, "pitch": 66, "duration": 7, "velocity": 101}, {"time": 1497, "pitch": 59, "duration": 7, "velocity": 93}, {"time": 1500, "pitch": 62, "duration": 4, "velocity": 93}, {"time": 1503, "pitch": 54, "duration": 4, "velocity": 91}, {"time": 1506, "pitch": 59, "duration": 2, "velocity": 91}, {"time": 1506, "pitch": 62, "duration": 4, "velocity": 92}, {"time": 1506, "pitch": 66, "duration": 5, "velocity": 89}, {"time": 1509, "pitch": 59, "duration": 2, "velocity": 92}, {"time": 1515, "pitch": 48, "duration": 6, "velocity": 95}, {"time": 1515, "pitch": 55, "duration": 2, "velocity": 84}, {"time": 1515, "pitch": 60, "duration": 4, "velocity": 90}, {"time": 1518, "pitch": 55, "duration": 4, "velocity": 90}, {"time": 1521, "pitch": 60, "duration": 4, "velocity": 90}, {"time": 1527, "pitch": 38, "duration": 6, "velocity": 96}, {"time": 1527, "pitch": 57, "duration": 3, "velocity": 86}, {"time": 1527, "pitch": 62, "duration": 5, "velocity": 86}, {"time": 1530, "pitch": 45, "duration": 3, "velocity": 82}, {"time": 1533, "pitch": 57, "duration": 3, "velocity": 93}, {"time": 1536, "pitch": 62, "duration": 1, "velocity": 87}, {"time": 1539, "pitch": 43, "duration": 17, "velocity": 91}, {"time": 1539, "pitch": 55, "duration": 3, "velocity": 92}, {"time": 1539, "pitch": 59, "duration": 5, "velocity": 92}, {"time": 1542, "pitch": 50, "duration": 7, "velocity": 86}, {"time": 1545, "pitch": 55, "duration": 3, "velocity": 92}, {"time": 1548, "pitch": 55, "duration": 2, "velocity": 84}, {"time": 1548, "pitch": 62, "duration": 6, "velocity": 99}, {"time": 1551, "pitch": 50, "duration": 5, "velocity": 90}, {"time": 1554, "pitch": 55, "duration": 4, "velocity": 95}, {"time": 1557, "pitch": 59, "duration": 1, "velocity": 92}, {"time": 1563, "pitch": 40, "duration": 18, "velocity": 93}, {"time": 1563, "pitch": 59, "duration": 3, "velocity": 90}, {"time": 1563, "pitch": 64, "duration": 5, "velocity": 92}, {"time": 1566, "pitch": 47, "duration": 13, "velocity": 84}, {"time": 1569, "pitch": 59, "duration": 4, "velocity": 92}, {"time": 1572, "pitch": 64, "duration": 6, "velocity": 94}, {"time": 1578, "pitch": 67, "duration": 3, "velocity": 94}, {"time": 1581, "pitch": 64, "duration": 3, "velocity": 90}, {"time": 1584, "pitch": 59, "duration": 1, "velocity": 91}, {"time": 1587, "pitch": 47, "duration": 12, "velocity": 94}, {"time": 1587, "pitch": 59, "duration": 3, "velocity": 85}, {"time": 1587, "pitch": 62, "duration": 6, "velocity": 86}, {"time": 1593, "pitch": 59, "duration": 1, "velocity": 90}, {"time": 1596, "pitch": 59, "duration": 3, "velocity": 93}, {"time": 1596, "pitch": 66, "duration": 4, "velocity": 94}, {"time": 1599, "pitch": 54, "duration": 4, "velocity": 91}, {"time": 1602, "pitch": 59, "duration": 1, "velocity": 76}, {"time": 1602, "pitch": 62, "duration": 3, "velocity": 104}, {"time": 1605, "pitch": 59, "duration": 1, "velocity": 92}, {"time": 1611, "pitch": 48, "duration": 6, "velocity": 99}, {"time": 1611, "pitch": 55, "duration": 3, "velocity": 91}, {"time": 1611, "pitch": 60, "duration": 6, "velocity": 89}, {"time": 1617, "pitch": 55, "duration": 4, "velocity": 91}, {"time": 1620, "pitch": 60, "duration": 2, "velocity": 93}, {"time": 1623, "pitch": 38, "duration": 7, "velocity": 92}, {"time": 1623, "pitch": 57, "duration": 3, "velocity": 85}, {"time": 1623, "pitch": 62, "duration": 5, "velocity": 88}, {"time": 1626, "pitch": 45, "duration": 4, "velocity": 90}, {"time": 1629, "pitch": 57, "duration": 4, "velocity": 92}, {"time": 1632, "pitch": 62, "duration": 3, "velocity": 92}, {"time": 1635, "pitch": 40, "duration": 22, "velocity": 95}, {"time": 1638, "pitch": 47, "duration": 17, "velocity": 82}, {"time": 1641, "pitch": 52, "duration": 2, "velocity": 99}, {"time": 1644, "pitch": 54, "duration": 1, "velocity": 96}, {"time": 1647, "pitch": 55, "duration": 4, "velocity": 92}, {"time": 1650, "pitch": 59, "duration": 3, "velocity": 96}, {"time": 1653, "pitch": 64, "duration": 4, "velocity": 97}, {"time": 1656, "pitch": 55, "duration": 2, "velocity": 89}, {"time": 1659, "pitch": 40, "duration": 14, "velocity": 96}, {"time": 1659, "pitch": 55, "duration": 5, "velocity": 92}, {"time": 1659, "pitch": 64, "duration": 7, "velocity": 93}, {"time": 1665, "pitch": 47, "duration": 8, "velocity": 85}, {"time": 1668, "pitch": 55, "duration": 1, "velocity": 86}, {"time": 1671, "pitch": 59, "duration": 3, "velocity": 96}, {"time": 1671, "pitch": 64, "duration": 4, "velocity": 97}, {"time": 1674, "pitch": 55, "duration": 3, "velocity": 92}, {"time": 1677, "pitch": 59, "duration": 1, "velocity": 91}, {"time": 1683, "pitch": 47, "duration": 15, "velocity": 92}, {"time": 1683, "pitch": 59, "duration": 3, "velocity": 85}, {"time": 1683, "pitch": 62, "duration": 5, "velocity": 90}, {"time": 1686, "pitch": 54, "duration": 7, "velocity": 74}, {"time": 1689, "pitch": 59, "duration": 4, "velocity": 96}, {"time": 1692, "pitch": 62, "duration": 4, "velocity": 106}, {"time": 1695, "pitch": 54, "duration": 3, "velocity": 91}, {"time": 1698, "pitch": 66, "duration": 3, "velocity": 101}, {"time": 1701, "pitch": 62, "duration": 4, "velocity": 90}, {"time": 1704, "pitch": 59, "duration": 1, "velocity": 92}, {"time": 1707, "pitch": 48, "duration": 5, "velocity": 93}, {"time": 1707, "pitch": 60, "duration": 3, "velocity": 91}, {"time": 1707, "pitch": 64, "duration": 5, "velocity": 92}, {"time": 1710, "pitch": 55, "duration": 2, "velocity": 85}, {"time": 1713, "pitch": 60, "duration": 2, "velocity": 91}, {"time": 1719, "pitch": 38, "duration": 5, "velocity": 93}, {"time": 1719, "pitch": 57, "duration": 3, "velocity": 92}, {"time": 1719, "pitch": 62, "duration": 5, "velocity": 90}, {"time": 1722, "pitch": 45, "duration": 3, "velocity": 83}, {"time": 1725, "pitch": 57, "duration": 3, "velocity": 92}, {"time": 1728, "pitch": 62, "duration": 2, "velocity": 87}, {"time": 1731, "pitch": 43, "duration": 17, "velocity": 91}, {"time": 1731, "pitch": 55, "duration": 3, "velocity": 82}, {"time": 1731, "pitch": 59, "duration": 5, "velocity": 95}, {"time": 1734, "pitch": 50, "duration": 7, "velocity": 90}, {"time": 1737, "pitch": 55, "duration": 2, "velocity": 93}, {"time": 1740, "pitch": 62, "duration": 4, "velocity": 99}, {"time": 1743, "pitch": 50, "duration": 5, "velocity": 91}, {"time": 1746, "pitch": 55, "duration": 2, "velocity": 96}, {"time": 1749, "pitch": 62, "duration": 1, "velocity": 92}, {"time": 1755, "pitch": 40, "duration": 17, "velocity": 93}, {"time": 1755, "pitch": 59, "duration": 3, "velocity": 84}, {"time": 1755, "pitch": 64, "duration": 5, "velocity": 87}, {"time": 1758, "pitch": 47, "duration": 14, "velocity": 86}, {"time": 1761, "pitch": 59, "duration": 2, "velocity": 92}, {"time": 1764, "pitch": 67, "duration": 6, "velocity": 92}, {"time": 1770, "pitch": 59, "duration": 3, "velocity": 99}, {"time": 1773, "pitch": 64, "duration": 2, "velocity": 91}, {"time": 1776, "pitch": 59, "duration": 2, "velocity": 86}, {"time": 1779, "pitch": 47, "duration": 17, "velocity": 92}, {"time": 1779, "pitch": 59, "duration": 3, "velocity": 91}, {"time": 1779, "pitch": 62, "duration": 7, "velocity": 91}, {"time": 1785, "pitch": 54, "duration": 4, "velocity": 88}, {"time": 1788, "pitch": 59, "duration": 4, "velocity": 99}, {"time": 1791, "pitch": 54, "duration": 3, "velocity": 92}, {"time": 1794, "pitch": 66, "duration": 4, "velocity": 101}, {"time": 1797, "pitch": 59, "duration": 3, "velocity": 92}, {"time": 1803, "pitch": 48, "duration": 4, "velocity": 92}, {"time": 1803, "pitch": 60, "duration": 5, "velocity": 90}, {"time": 1803, "pitch": 64, "duration": 7, "velocity": 93}, {"time": 1815, "pitch": 38, "duration": 2, "velocity": 92}, {"time": 1815, "pitch": 62, "duration": 5, "velocity": 87}, {"time": 1815, "pitch": 66, "duration": 4, "velocity": 86}, {"time": 1827, "pitch": 45, "duration": 40, "velocity": 91}, {"time": 1827, "pitch": 57, "duration": 6, "velocity": 85}, {"time": 1827, "pitch": 61, "duration": 6, "velocity": 86}, {"time": 1827, "pitch": 64, "duration": 6, "velocity": 91}, {"time": 1827, "pitch": 69, "duration": 5, "velocity": 86}, {"time": 1833, "pitch": 52, "duration": 11, "velocity": 78}, {"time": 1836, "pitch": 57, "duration": 4, "velocity": 96}, {"time": 1836, "pitch": 69, "duration": 4, "velocity": 87}, {"time": 1842, "pitch": 57, "duration": 3, "velocity": 93}, {"time": 1842, "pitch": 69, "duration": 4, "velocity": 88}, {"time": 1845, "pitch": 52, "duration": 7, "velocity": 91}, {"time": 1848, "pitch": 57, "duration": 1, "velocity": 99}, {"time": 1851, "pitch": 57, "duration": 6, "velocity": 94}, {"time": 1851, "pitch": 64, "duration": 7, "velocity": 93}, {"time": 1857, "pitch": 52, "duration": 6, "velocity": 90}, {"time": 1860, "pitch": 57, "duration": 2, "velocity": 92}, {"time": 1863, "pitch": 57, "duration": 3, "velocity": 92}, {"time": 1863, "pitch": 61, "duration": 2, "velocity": 90}, {"time": 1863, "pitch": 64, "duration": 3, "velocity": 94}, {"time": 1866, "pitch": 52, "duration": 2, "velocity": 91}, {"time": 1869, "pitch": 45, "duration": 1, "velocity": 92}, {"time": 1875, "pitch": 36, "duration": 1, "velocity": 90}, {"time": 1875, "pitch": 55, "duration": 4, "velocity": 91}, {"time": 1875, "pitch": 64, "duration": 5, "velocity": 92}, {"time": 1881, "pitch": 48, "duration": 20, "velocity": 86}, {"time": 1884, "pitch": 55, "duration": 8, "velocity": 92}, {"time": 1887, "pitch": 60, "duration": 1, "velocity": 96}, {"time": 1890, "pitch": 60, "duration": 3, "velocity": 99}, {"time": 1890, "pitch": 67, "duration": 5, "velocity": 93}, {"time": 1893, "pitch": 55, "duration": 7, "velocity": 84}, {"time": 1899, "pitch": 60, "duration": 3, "velocity": 97}, {"time": 1899, "pitch": 64, "duration": 3, "velocity": 106}, {"time": 1911, "pitch": 47, "duration": 12, "velocity": 94}, {"time": 1911, "pitch": 59, "duration": 11, "velocity": 91}, {"time": 1911, "pitch": 66, "duration": 12, "velocity": 89}, {"time": 1923, "pitch": 40, "duration": 14, "velocity": 91}, {"time": 1923, "pitch": 59, "duration": 12, "velocity": 84}, {"time": 1923, "pitch": 67, "duration": 12, "velocity": 86}, {"time": 1929, "pitch": 47, "duration": 7, "velocity": 74}, {"time": 1935, "pitch": 64, "duration": 5, "velocity": 91}, {"time": 1947, "pitch": 50, "duration": 14, "velocity": 90}, {"time": 1947, "pitch": 57, "duration": 3, "velocity": 81}, {"time": 1947, "pitch": 66, "duration": 13, "velocity": 81}, {"time": 1953, "pitch": 57, "duration": 8, "velocity": 83}, {"time": 1959, "pitch": 62, "duration": 1, "velocity": 90}, {"time": 1971, "pitch": 48, "duration": 3, "velocity": 89}, {"time": 1971, "pitch": 55, "duration": 3, "velocity": 87}, {"time": 1971, "pitch": 64, "duration": 4, "velocity": 91}, {"time": 1983, "pitch": 50, "duration": 7, "velocity": 91}, {"time": 1983, "pitch": 57, "duration": 9, "velocity": 69}, {"time": 1983, "pitch": 62, "duration": 6, "velocity": 83}, {"time": 1995, "pitch": 43, "duration": 20, "velocity": 89}, {"time": 1995, "pitch": 55, "duration": 12, "velocity": 81}, {"time": 1995, "pitch": 59, "duration": 12, "velocity": 85}, {"time": 2001, "pitch": 50, "duration": 14, "velocity": 79}, {"time": 2007, "pitch": 62, "duration": 7, "velocity": 91}, {"time": 2013, "pitch": 55, "duration": 2, "velocity": 87}, {"time": 2019, "pitch": 40, "duration": 17, "velocity": 91}, {"time": 2019, "pitch": 59, "duration": 1, "velocity": 75}, {"time": 2019, "pitch": 64, "duration": 11, "velocity": 90}, {"time": 2019, "pitch": 67, "duration": 11, "velocity": 84}, {"time": 2025, "pitch": 47, "duration": 11, "velocity": 78}, {"time": 2031, "pitch": 59, "duration": 7, "velocity": 91}, {"time": 2037, "pitch": 64, "duration": 1, "velocity": 93}, {"time": 2043, "pitch": 50, "duration": 13, "velocity": 85}, {"time": 2043, "pitch": 57, "duration": 3, "velocity": 81}, {"time": 2043, "pitch": 62, "duration": 7, "velocity": 86}, {"time": 2049, "pitch": 57, "duration": 4, "velocity": 84}, {"time": 2055, "pitch": 57, "duration": 3, "velocity": 90}, {"time": 2055, "pitch": 62, "duration": 3, "velocity": 90}, {"time": 2055, "pitch": 66, "duration": 3, "velocity": 84}, {"time": 2067, "pitch": 48, "duration": 3, "velocity": 90}, {"time": 2067, "pitch": 55, "duration": 3, "velocity": 83}, {"time": 2067, "pitch": 60, "duration": 3, "velocity": 82}, {"time": 2067, "pitch": 64, "duration": 4, "velocity": 90}, {"time": 2079, "pitch": 38, "duration": 3, "velocity": 91}, {"time": 2079, "pitch": 57, "duration": 7, "velocity": 82}, {"time": 2079, "pitch": 62, "duration": 6, "velocity": 86}, {"time": 2079, "pitch": 66, "duration": 6, "velocity": 81}, {"time": 2091, "pitch": 43, "duration": 16, "velocity": 90}, {"time": 2091, "pitch": 55, "duration": 9, "velocity": 85}, {"time": 2091, "pitch": 62, "duration": 9, "velocity": 86}, {"time": 2097, "pitch": 50, "duration": 8, "velocity": 90}, {"time": 2103, "pitch": 55, "duration": 2, "velocity": 85}, {"time": 2103, "pitch": 62, "duration": 12, "velocity": 90}, {"time": 2103, "pitch": 67, "duration": 11, "velocity": 85}, {"time": 2109, "pitch": 55, "duration": 5, "velocity": 99}, {"time": 2115, "pitch": 52, "duration": 20, "velocity": 92}, {"time": 2115, "pitch": 64, "duration": 7, "velocity": 90}, {"time": 2115, "pitch": 67, "duration": 9, "velocity": 86}, {"time": 2121, "pitch": 59, "duration": 19, "velocity": 78}, {"time": 2127, "pitch": 71, "duration": 9, "velocity": 90}, {"time": 2133, "pitch": 64, "duration": 6, "velocity": 93}, {"time": 2139, "pitch": 51, "duration": 21, "velocity": 95}, {"time": 2145, "pitch": 63, "duration": 4, "velocity": 89}, {"time": 2151, "pitch": 63, "duration": 7, "velocity": 92}, {"time": 2151, "pitch": 71, "duration": 13, "velocity": 91}, {"time": 2157, "pitch": 59, "duration": 8, "velocity": 84}, {"time": 2163, "pitch": 50, "duration": 18, "velocity": 92}, {"time": 2163, "pitch": 62, "duration": 13, "velocity": 90}, {"time": 2169, "pitch": 59, "duration": 13, "velocity": 86}, {"time": 2175, "pitch": 67, "duration": 6, "velocity": 85}, {"time": 2175, "pitch": 71, "duration": 7, "velocity": 92}, {"time": 2181, "pitch": 62, "duration": 3, "velocity": 92}, {"time": 2187, "pitch": 49, "duration": 23, "velocity": 87}, {"time": 2187, "pitch": 61, "duration": 7, "velocity": 92}, {"time": 2193, "pitch": 57, "duration": 7, "velocity": 91}, {"time": 2199, "pitch": 61, "duration": 11, "velocity": 76}, {"time": 2199, "pitch": 64, "duration": 12, "velocity": 86}, {"time": 2199, "pitch": 69, "duration": 12, "velocity": 85}, {"time": 2205, "pitch": 57, "duration": 5, "velocity": 86}, {"time": 2211, "pitch": 48, "duration": 17, "velocity": 92}, {"time": 2211, "pitch": 60, "duration": 9, "velocity": 83}, {"time": 2211, "pitch": 64, "duration": 8, "velocity": 90}, {"time": 2217, "pitch": 55, "duration": 11, "velocity": 83}, {"time": 2223, "pitch": 60, "duration": 2, "velocity": 91}, {"time": 2223, "pitch": 64, "duration": 6, "velocity": 94}, {"time": 2223, "pitch": 67, "duration": 6, "velocity": 90}, {"time": 2229, "pitch": 60, "duration": 2, "velocity": 85}, {"time": 2235, "pitch": 50, "duration": 14, "velocity": 92}, {"time": 2235, "pitch": 62, "duration": 7, "velocity": 87}, {"time": 2235, "pitch": 66, "duration": 8, "velocity": 91}, {"time": 2241, "pitch": 57, "duration": 7, "velocity": 85}, {"time": 2247, "pitch": 62, "duration": 9, "velocity": 94}, {"time": 2253, "pitch": 66, "duration": 5, "velocity": 91}, {"time": 2259, "pitch": 43, "duration": 22, "velocity": 90}, {"time": 2259, "pitch": 62, "duration": 4, "velocity": 88}, {"time": 2259, "pitch": 67, "duration": 4, "velocity": 86}, {"time": 2265, "pitch": 50, "duration": 15, "velocity": 82}, {"time": 2271, "pitch": 55, "duration": 7, "velocity": 90}, {"time": 2277, "pitch": 57, "duration": 5, "velocity": 96}, {"time": 2283, "pitch": 55, "duration": 8, "velocity": 90}, {"time": 2283, "pitch": 59, "duration": 7, "velocity": 92}, {"time": 2289, "pitch": 43, "duration": 9, "velocity": 87}, {"time": 2295, "pitch": 55, "duration": 3, "velocity": 91}, {"time": 2295, "pitch": 59, "duration": 4, "velocity": 95}, {"time": 2295, "pitch": 62, "duration": 4, "velocity": 92}, {"time": 2307, "pitch": 40, "duration": 13, "velocity": 92}, {"time": 2307, "pitch": 59, "duration": 7, "velocity": 87}, {"time": 2307, "pitch": 64, "duration": 7, "velocity": 90}, {"time": 2313, "pitch": 47, "duration": 7, "velocity": 78}, {"time": 2319, "pitch": 59, "duration": 2, "velocity": 91}, {"time": 2319, "pitch": 64, "duration": 3, "velocity": 93}, {"time": 2319, "pitch": 67, "duration": 3, "velocity": 90}, {"time": 2331, "pitch": 51, "duration": 23, "velocity": 84}, {"time": 2331, "pitch": 63, "duration": 3, "velocity": 84}, {"time": 2331, "pitch": 66, "duration": 7, "velocity": 86}, {"time": 2331, "pitch": 69, "duration": 8, "velocity": 81}, {"time": 2337, "pitch": 63, "duration": 3, "velocity": 78}, {"time": 2343, "pitch": 63, "duration": 5, "velocity": 90}, {"time": 2343, "pitch": 66, "duration": 5, "velocity": 90}, {"time": 2343, "pitch": 69, "duration": 6, "velocity": 90}, {"time": 2355, "pitch": 50, "duration": 19, "velocity": 92}, {"time": 2355, "pitch": 62, "duration": 7, "velocity": 89}, {"time": 2355, "pitch": 66, "duration": 8, "velocity": 89}, {"time": 2361, "pitch": 57, "duration": 19, "velocity": 80}, {"time": 2367, "pitch": 66, "duration": 6, "velocity": 92}, {"time": 2367, "pitch": 69, "duration": 7, "velocity": 90}, {"time": 2373, "pitch": 62, "duration": 2, "velocity": 88}, {"time": 2379, "pitch": 49, "duration": 18, "velocity": 84}, {"time": 2379, "pitch": 61, "duration": 13, "velocity": 82}, {"time": 2379, "pitch": 64, "duration": 4, "velocity": 69}, {"time": 2385, "pitch": 57, "duration": 12, "velocity": 85}, {"time": 2391, "pitch": 64, "duration": 6, "velocity": 91}, {"time": 2391, "pitch": 69, "duration": 6, "velocity": 90}, {"time": 2403, "pitch": 48, "duration": 20, "velocity": 92}, {"time": 2403, "pitch": 60, "duration": 8, "velocity": 78}, {"time": 2403, "pitch": 64, "duration": 8, "velocity": 92}, {"time": 2409, "pitch": 55, "duration": 13, "velocity": 85}, {"time": 2415, "pitch": 60, "duration": 3, "velocity": 90}, {"time": 2415, "pitch": 64, "duration": 7, "velocity": 92}, {"time": 2415, "pitch": 67, "duration": 6, "velocity": 87}, {"time": 2421, "pitch": 60, "duration": 3, "velocity": 83}, {"time": 2427, "pitch": 50, "duration": 18, "velocity": 80}, {"time": 2427, "pitch": 57, "duration": 4, "velocity": 70}, {"time": 2427, "pitch": 62, "duration": 7, "velocity": 82}, {"time": 2433, "pitch": 57, "duration": 7, "velocity": 90}, {"time": 2439, "pitch": 62, "duration": 6, "velocity": 92}, {"time": 2439, "pitch": 66, "duration": 7, "velocity": 92}, {"time": 2445, "pitch": 57, "duration": 2, "velocity": 90}, {"time": 2451, "pitch": 40, "duration": 21, "velocity": 91}, {"time": 2451, "pitch": 59, "duration": 4, "velocity": 82}, {"time": 2451, "pitch": 64, "duration": 6, "velocity": 88}, {"time": 2457, "pitch": 47, "duration": 14, "velocity": 78}, {"time": 2463, "pitch": 54, "duration": 1, "velocity": 96}, {"time": 2469, "pitch": 55, "duration": 2, "velocity": 96}, {"time": 2475, "pitch": 40, "duration": 25, "velocity": 95}, {"time": 2475, "pitch": 55, "duration": 3, "velocity": 91}, {"time": 2475, "pitch": 59, "duration": 4, "velocity": 96}, {"time": 2475, "pitch": 64, "duration": 5, "velocity": 92}, {"time": 2481, "pitch": 47, "duration": 20, "velocity": 90}, {"time": 2487, "pitch": 64, "duration": 2, "velocity": 104}, {"time": 2490, "pitch": 66, "duration": 2, "velocity": 94}, {"time": 2493, "pitch": 67, "duration": 3, "velocity": 92}, {"time": 2496, "pitch": 69, "duration": 2, "velocity": 91}, {"time": 2499, "pitch": 40, "duration": 1, "velocity": 92}, {"time": 2499, "pitch": 67, "duration": 4, "velocity": 92}, {"time": 2502, "pitch": 47, "duration": 13, "velocity": 77}, {"time": 2502, "pitch": 59, "duration": 4, "velocity": 86}, {"time": 2505, "pitch": 64, "duration": 3, "velocity": 90}, {"time": 2508, "pitch": 67, "duration": 6, "velocity": 91}, {"time": 2514, "pitch": 59, "duration": 4, "velocity": 91}, {"time": 2517, "pitch": 64, "duration": 3, "velocity": 90}, {"time": 2520, "pitch": 67, "duration": 1, "velocity": 86}, {"time": 2523, "pitch": 47, "duration": 16, "velocity": 92}, {"time": 2523, "pitch": 66, "duration": 7, "velocity": 101}, {"time": 2529, "pitch": 59, "duration": 7, "velocity": 93}, {"time": 2532, "pitch": 62, "duration": 4, "velocity": 93}, {"time": 2535, "pitch": 54, "duration": 4, "velocity": 91}, {"time": 2538, "pitch": 59, "duration": 2, "velocity": 91}, {"time": 2538, "pitch": 62, "duration": 4, "velocity": 92}, {"time": 2538, "pitch": 66, "duration": 5, "velocity": 89}, {"time": 2541, "pitch": 59, "duration": 2, "velocity": 92}, {"time": 2547, "pitch": 48, "duration": 6, "velocity": 95}, {"time": 2547, "pitch": 55, "duration": 2, "velocity": 84}, {"time": 2547, "pitch": 60, "duration": 4, "velocity": 90}, {"time": 2550, "pitch": 55, "duration": 4, "velocity": 90}, {"time": 2553, "pitch": 60, "duration": 4, "velocity": 90}, {"time": 2559, "pitch": 38, "duration": 6, "velocity": 96}, {"time": 2559, "pitch": 57, "duration": 3, "velocity": 86}, {"time": 2559, "pitch": 62, "duration": 5, "velocity": 86}, {"time": 2562, "pitch": 45, "duration": 3, "velocity": 82}, {"time": 2565, "pitch": 57, "duration": 3, "velocity": 93}, {"time": 2568, "pitch": 62, "duration": 1, "velocity": 87}, {"time": 2571, "pitch": 43, "duration": 17, "velocity": 91}, {"time": 2571, "pitch": 55, "duration": 3, "velocity": 92}, {"time": 2571, "pitch": 59, "duration": 5, "velocity": 92}, {"time": 2574, "pitch": 50, "duration": 7, "velocity": 86}, {"time": 2577, "pitch": 55, "duration": 3, "velocity": 92}, {"time": 2580, "pitch": 55, "duration": 2, "velocity": 84}, {"time": 2580, "pitch": 62, "duration": 6, "velocity": 99}, {"time": 2583, "pitch": 50, "duration": 5, "velocity": 90}, {"time": 2586, "pitch": 55, "duration": 4, "velocity": 95}, {"time": 2589, "pitch": 59, "duration": 1, "velocity": 92}, {"time": 2595, "pitch": 40, "duration": 18, "velocity": 93}, {"time": 2595, "pitch": 59, "duration": 3, "velocity": 90}, {"time": 2595, "pitch": 64, "duration": 5, "velocity": 92}, {"time": 2598, "pitch": 47, "duration": 13, "velocity": 84}, {"time": 2601, "pitch": 59, "duration": 4, "velocity": 92}, {"time": 2604, "pitch": 64, "duration": 6, "velocity": 94}, {"time": 2610, "pitch": 67, "duration": 3, "velocity": 94}, {"time": 2613, "pitch": 64, "duration": 3, "velocity": 90}, {"time": 2616, "pitch": 59, "duration": 1, "velocity": 91}, {"time": 2619, "pitch": 47, "duration": 12, "velocity": 94}, {"time": 2619, "pitch": 59, "duration": 3, "velocity": 85}, {"time": 2619, "pitch": 62, "duration": 6, "velocity": 86}, {"time": 2625, "pitch": 59, "duration": 1, "velocity": 90}, {"time": 2628, "pitch": 59, "duration": 3, "velocity": 93}, {"time": 2628, "pitch": 66, "duration": 4, "velocity": 94}, {"time": 2631, "pitch": 54, "duration": 4, "velocity": 91}, {"time": 2634, "pitch": 59, "duration": 1, "velocity": 76}, {"time": 2634, "pitch": 62, "duration": 3, "velocity": 104}, {"time": 2637, "pitch": 59, "duration": 1, "velocity": 92}, {"time": 2643, "pitch": 48, "duration": 6, "velocity": 99}, {"time": 2643, "pitch": 55, "duration": 3, "velocity": 91}, {"time": 2643, "pitch": 60, "duration": 6, "velocity": 89}, {"time": 2649, "pitch": 55, "duration": 4, "velocity": 91}, {"time": 2652, "pitch": 60, "duration": 2, "velocity": 93}, {"time": 2655, "pitch": 38, "duration": 7, "velocity": 92}, {"time": 2655, "pitch": 57, "duration": 3, "velocity": 85}, {"time": 2655, "pitch": 62, "duration": 5, "velocity": 88}, {"time": 2658, "pitch": 45, "duration": 4, "velocity": 90}, {"time": 2661, "pitch": 57, "duration": 4, "velocity": 92}, {"time": 2664, "pitch": 62, "duration": 3, "velocity": 92}, {"time": 2667, "pitch": 40, "duration": 22, "velocity": 95}, {"time": 2670, "pitch": 47, "duration": 17, "velocity": 82}, {"time": 2673, "pitch": 52, "duration": 2, "velocity": 99}, {"time": 2676, "pitch": 54, "duration": 1, "velocity": 96}, {"time": 2679, "pitch": 55, "duration": 4, "velocity": 92}, {"time": 2682, "pitch": 59, "duration": 3, "velocity": 96}, {"time": 2685, "pitch": 64, "duration": 4, "velocity": 97}, {"time": 2688, "pitch": 55, "duration": 2, "velocity": 89}, {"time": 2691, "pitch": 40, "duration": 14, "velocity": 96}, {"time": 2691, "pitch": 55, "duration": 5, "velocity": 92}, {"time": 2691, "pitch": 64, "duration": 7, "velocity": 93}, {"time": 2697, "pitch": 47, "duration": 8, "velocity": 85}, {"time": 2700, "pitch": 55, "duration": 1, "velocity": 86}, {"time": 2703, "pitch": 59, "duration": 3, "velocity": 96}, {"time": 2703, "pitch": 64, "duration": 4, "velocity": 97}, {"time": 2706, "pitch": 55, "duration": 3, "velocity": 92}, {"time": 2709, "pitch": 59, "duration": 1, "velocity": 91}, {"time": 2715, "pitch": 47, "duration": 15, "velocity": 92}, {"time": 2715, "pitch": 59, "duration": 3, "velocity": 85}, {"time": 2715, "pitch": 62, "duration": 5, "velocity": 90}, {"time": 2718, "pitch": 54, "duration": 7, "velocity": 74}, {"time": 2721, "pitch": 59, "duration": 4, "velocity": 96}, {"time": 2724, "pitch": 62, "duration": 4, "velocity": 106}, {"time": 2727, "pitch": 54, "duration": 3, "velocity": 91}, {"time": 2730, "pitch": 66, "duration": 3, "velocity": 101}, {"time": 2733, "pitch": 62, "duration": 4, "velocity": 90}, {"time": 2736, "pitch": 59, "duration": 1, "velocity": 92}, {"time": 2739, "pitch": 48, "duration": 5, "velocity": 93}, {"time": 2739, "pitch": 60, "duration": 3, "velocity": 91}, {"time": 2739, "pitch": 64, "duration": 5, "velocity": 92}, {"time": 2742, "pitch": 55, "duration": 2, "velocity": 85}, {"time": 2745, "pitch": 60, "duration": 2, "velocity": 91}, {"time": 2751, "pitch": 38, "duration": 5, "velocity": 93}, {"time": 2751, "pitch": 57, "duration": 3, "velocity": 92}, {"time": 2751, "pitch": 62, "duration": 5, "velocity": 90}, {"time": 2754, "pitch": 45, "duration": 3, "velocity": 83}, {"time": 2757, "pitch": 57, "duration": 3, "velocity": 92}, {"time": 2760, "pitch": 62, "duration": 2, "velocity": 87}, {"time": 2763, "pitch": 43, "duration": 17, "velocity": 91}, {"time": 2763, "pitch": 55, "duration": 3, "velocity": 82}, {"time": 2763, "pitch": 59, "duration": 5, "velocity": 95}, {"time": 2766, "pitch": 50, "duration": 7, "velocity": 90}, {"time": 2769, "pitch": 55, "duration": 2, "velocity": 93}, {"time": 2772, "pitch": 62, "duration": 4, "velocity": 99}, {"time": 2775, "pitch": 50, "duration": 5, "velocity": 91}, {"time": 2778, "pitch": 55, "duration": 2, "velocity": 96}, {"time": 2781, "pitch": 62, "duration": 1, "velocity": 92}, {"time": 2787, "pitch": 40, "duration": 17, "velocity": 93}, {"time": 2787, "pitch": 59, "duration": 3, "velocity": 84}, {"time": 2787, "pitch": 64, "duration": 5, "velocity": 87}, {"time": 2790, "pitch": 47, "duration": 14, "velocity": 86}, {"time": 2793, "pitch": 59, "duration": 2, "velocity": 92}, {"time": 2796, "pitch": 67, "duration": 6, "velocity": 92}, {"time": 2802, "pitch": 59, "duration": 3, "velocity": 99}, {"time": 2805, "pitch": 64, "duration": 2, "velocity": 91}, {"time": 2808, "pitch": 59, "duration": 2, "velocity": 86}, {"time": 2811, "pitch": 47, "duration": 17, "velocity": 92}, {"time": 2811, "pitch": 59, "duration": 3, "velocity": 91}, {"time": 2811, "pitch": 62, "duration": 7, "velocity": 91}, {"time": 2817, "pitch": 54, "duration": 4, "velocity": 88}, {"time": 2820, "pitch": 59, "duration": 4, "velocity": 99}, {"time": 2823, "pitch": 54, "duration": 3, "velocity": 92}, {"time": 2826, "pitch": 66, "duration": 4, "velocity": 101}, {"time": 2829, "pitch": 59, "duration": 3, "velocity": 92}, {"time": 2835, "pitch": 48, "duration": 4, "velocity": 92}, {"time": 2835, "pitch": 60, "duration": 5, "velocity": 90}, {"time": 2835, "pitch": 64, "duration": 7, "velocity": 93}, {"time": 2847, "pitch": 38, "duration": 2, "velocity": 92}, {"time": 2847, "pitch": 62, "duration": 5, "velocity": 87}, {"time": 2847, "pitch": 66, "duration": 4, "velocity": 86}, {"time": 2859, "pitch": 45, "duration": 40, "velocity": 91}, {"time": 2859, "pitch": 57, "duration": 6, "velocity": 85}, {"time": 2859, "pitch": 61, "duration": 6, "velocity": 86}, {"time": 2859, "pitch": 64, "duration": 6, "velocity": 91}, {"time": 2859, "pitch": 69, "duration": 5, "velocity": 86}, {"time": 2865, "pitch": 52, "duration": 11, "velocity": 78}, {"time": 2868, "pitch": 57, "duration": 4, "velocity": 96}, {"time": 2868, "pitch": 69, "duration": 4, "velocity": 87}, {"time": 2874, "pitch": 57, "duration": 3, "velocity": 93}, {"time": 2874, "pitch": 69, "duration": 4, "velocity": 88}, {"time": 2877, "pitch": 52, "duration": 7, "velocity": 91}, {"time": 2880, "pitch": 57, "duration": 1, "velocity": 99}, {"time": 2883, "pitch": 57, "duration": 6, "velocity": 94}, {"time": 2883, "pitch": 64, "duration": 7, "velocity": 93}, {"time": 2889, "pitch": 52, "duration": 6, "velocity": 90}, {"time": 2892, "pitch": 57, "duration": 2, "velocity": 92}, {"time": 2895, "pitch": 57, "duration": 3, "velocity": 92}, {"time": 2895, "pitch": 61, "duration": 2, "velocity": 90}, {"time": 2895, "pitch": 64, "duration": 3, "velocity": 94}, {"time": 2898, "pitch": 52, "duration": 2, "velocity": 91}, {"time": 2901, "pitch": 45, "duration": 1, "velocity": 92}, {"time": 2907, "pitch": 40, "duration": 17, "velocity": 92}, {"time": 2907, "pitch": 67, "duration": 4, "velocity": 92}, {"time": 2910, "pitch": 47, "duration": 13, "velocity": 77}, {"time": 2910, "pitch": 59, "duration": 4, "velocity": 86}, {"time": 2913, "pitch": 64, "duration": 3, "velocity": 90}, {"time": 2916, "pitch": 67, "duration": 6, "velocity": 91}, {"time": 2922, "pitch": 59, "duration": 4, "velocity": 91}, {"time": 2925, "pitch": 64, "duration": 3, "velocity": 90}, {"time": 2928, "pitch": 67, "duration": 1, "velocity": 86}, {"time": 2931, "pitch": 47, "duration": 16, "velocity": 92}, {"time": 2931, "pitch": 66, "duration": 7, "velocity": 101}, {"time": 2937, "pitch": 59, "duration": 7, "velocity": 93}, {"time": 2940, "pitch": 62, "duration": 4, "velocity": 93}, {"time": 2943, "pitch": 54, "duration": 4, "velocity": 91}, {"time": 2946, "pitch": 59, "duration": 2, "velocity": 91}, {"time": 2946, "pitch": 62, "duration": 4, "velocity": 92}, {"time": 2946, "pitch": 66, "duration": 5, "velocity": 89}, {"time": 2949, "pitch": 59, "duration": 2, "velocity": 92}, {"time": 2955, "pitch": 48, "duration": 6, "velocity": 95}, {"time": 2955, "pitch": 55, "duration": 2, "velocity": 84}, {"time": 2955, "pitch": 60, "duration": 4, "velocity": 90}, {"time": 2958, "pitch": 55, "duration": 4, "velocity": 90}, {"time": 2961, "pitch": 60, "duration": 4, "velocity": 90}, {"time": 2967, "pitch": 38, "duration": 6, "velocity": 96}, {"time": 2967, "pitch": 57, "duration": 3, "velocity": 86}, {"time": 2967, "pitch": 62, "duration": 5, "velocity": 86}, {"time": 2970, "pitch": 45, "duration": 3, "velocity": 82}, {"time": 2973, "pitch": 57, "duration": 3, "velocity": 93}, {"time": 2976, "pitch": 62, "duration": 1, "velocity": 87}, {"time": 2979, "pitch": 43, "duration": 17, "velocity": 91}, {"time": 2979, "pitch": 55, "duration": 3, "velocity": 92}, {"time": 2979, "pitch": 59, "duration": 5, "velocity": 92}, {"time": 2982, "pitch": 50, "duration": 7, "velocity": 86}, {"time": 2985, "pitch": 55, "duration": 3, "velocity": 92}, {"time": 2988, "pitch": 55, "duration": 2, "velocity": 84}, {"time": 2988, "pitch": 62, "duration": 6, "velocity": 99}, {"time": 2991, "pitch": 50, "duration": 5, "velocity": 90}, {"time": 2994, "pitch": 55, "duration": 4, "velocity": 95}, {"time": 2997, "pitch": 59, "duration": 1, "velocity": 92}, {"time": 3003, "pitch": 40, "duration": 18, "velocity": 93}, {"time": 3003, "pitch": 59, "duration": 3, "velocity": 90}, {"time": 3003, "pitch": 64, "duration": 5, "velocity": 92}, {"time": 3006, "pitch": 47, "duration": 13, "velocity": 84}, {"time": 3009, "pitch": 59, "duration": 4, "velocity": 92}, {"time": 3012, "pitch": 64, "duration": 6, "velocity": 94}, {"time": 3018, "pitch": 67, "duration": 3, "velocity": 94}, {"time": 3021, "pitch": 64, "duration": 3, "velocity": 90}, {"time": 3024, "pitch": 59, "duration": 1, "velocity": 91}, {"time": 3027, "pitch": 47, "duration": 12, "velocity": 94}, {"time": 3027, "pitch": 59, "duration": 3, "velocity": 85}, {"time": 3027, "pitch": 62, "duration": 6, "velocity": 86}, {"time": 3033, "pitch": 59, "duration": 1, "velocity": 90}, {"time": 3036, "pitch": 59, "duration": 3, "velocity": 93}, {"time": 3036, "pitch": 66, "duration": 4, "velocity": 94}, {"time": 3039, "pitch": 54, "duration": 4, "velocity": 91}, {"time": 3042, "pitch": 59, "duration": 1, "velocity": 76}, {"time": 3042, "pitch": 62, "duration": 3, "velocity": 104}, {"time": 3045, "pitch": 59, "duration": 1, "velocity": 92}, {"time": 3051, "pitch": 48, "duration": 6, "velocity": 99}, {"time": 3051, "pitch": 55, "duration": 3, "velocity": 91}, {"time": 3051, "pitch": 60, "duration": 6, "velocity": 89}, {"time": 3057, "pitch": 55, "duration": 4, "velocity": 91}, {"time": 3060, "pitch": 60, "duration": 2, "velocity": 93}, {"time": 3063, "pitch": 38, "duration": 7, "velocity": 92}, {"time": 3063, "pitch": 57, "duration": 3, "velocity": 85}, {"time": 3063, "pitch": 62, "duration": 5, "velocity": 88}, {"time": 3066, "pitch": 45, "duration": 4, "velocity": 90}, {"time": 3069, "pitch": 57, "duration": 4, "velocity": 92}, {"time": 3072, "pitch": 62, "duration": 3, "velocity": 92}, {"time": 3075, "pitch": 40, "duration": 22, "velocity": 95}, {"time": 3078, "pitch": 47, "duration": 17, "velocity": 82}, {"time": 3081, "pitch": 52, "duration": 2, "velocity": 99}, {"time": 3084, "pitch": 54, "duration": 1, "velocity": 96}, {"time": 3087, "pitch": 55, "duration": 4, "velocity": 92}, {"time": 3090, "pitch": 59, "duration": 3, "velocity": 96}, {"time": 3093, "pitch": 64, "duration": 4, "velocity": 97}, {"time": 3096, "pitch": 55, "duration": 2, "velocity": 89}, {"time": 3099, "pitch": 40, "duration": 14, "velocity": 96}, {"time": 3099, "pitch": 55, "duration": 5, "velocity": 92}, {"time": 3099, "pitch": 64, "duration": 7, "velocity": 93}, {"time": 3105, "pitch": 47, "duration": 8, "velocity": 85}, {"time": 3108, "pitch": 55, "duration": 1, "velocity": 86}, {"time": 3111, "pitch": 59, "duration": 3, "velocity": 96}, {"time": 3111, "pitch": 64, "duration": 4, "velocity": 97}, {"time": 3114, "pitch": 55, "duration": 3, "velocity": 92}, {"time": 3117, "pitch": 59, "duration": 1, "velocity": 91}, {"time": 3123, "pitch": 47, "duration": 15, "velocity": 92}, {"time": 3123, "pitch": 59, "duration": 3, "velocity": 85}, {"time": 3123, "pitch": 62, "duration": 5, "velocity": 90}, {"time": 3126, "pitch": 54, "duration": 7, "velocity": 74}, {"time": 3129, "pitch": 59, "duration": 4, "velocity": 96}, {"time": 3132, "pitch": 62, "duration": 4, "velocity": 106}, {"time": 3135, "pitch": 54, "duration": 3, "velocity": 91}, {"time": 3138, "pitch": 66, "duration": 3, "velocity": 101}, {"time": 3141, "pitch": 62, "duration": 4, "velocity": 90}, {"time": 3144, "pitch": 59, "duration": 1, "velocity": 92}, {"time": 3147, "pitch": 48, "duration": 5, "velocity": 93}, {"time": 3147, "pitch": 60, "duration": 3, "velocity": 91}, {"time": 3147, "pitch": 64, "duration": 5, "velocity": 92}, {"time": 3150, "pitch": 55, "duration": 2, "velocity": 85}, {"time": 3153, "pitch": 60, "duration": 2, "velocity": 91}, {"time": 3159, "pitch": 38, "duration": 5, "velocity": 93}, {"time": 3159, "pitch": 57, "duration": 3, "velocity": 92}, {"time": 3159, "pitch": 62, "duration": 5, "velocity": 90}, {"time": 3162, "pitch": 45, "duration": 3, "velocity": 83}, {"time": 3165, "pitch": 57, "duration": 3, "velocity": 92}, {"time": 3168, "pitch": 62, "duration": 2, "velocity": 87}, {"time": 3171, "pitch": 43, "duration": 17, "velocity": 91}, {"time": 3171, "pitch": 55, "duration": 3, "velocity": 82}, {"time": 3171, "pitch": 59, "duration": 5, "velocity": 95}, {"time": 3174, "pitch": 50, "duration": 7, "velocity": 90}, {"time": 3177, "pitch": 55, "duration": 2, "velocity": 93}, {"time": 3180, "pitch": 62, "duration": 4, "velocity": 99}, {"time": 3183, "pitch": 50, "duration": 5, "velocity": 91}, {"time": 3186, "pitch": 55, "duration": 2, "velocity": 96}, {"time": 3189, "pitch": 62, "duration": 1, "velocity": 92}, {"time": 3195, "pitch": 40, "duration": 17, "velocity": 93}, {"time": 3195, "pitch": 59, "duration": 3, "velocity": 84}, {"time": 3195, "pitch": 64, "duration": 5, "velocity": 87}, {"time": 3198, "pitch": 47, "duration": 14, "velocity": 86}, {"time": 3201, "pitch": 59, "duration": 2, "velocity": 92}, {"time": 3204, "pitch": 67, "duration": 6, "velocity": 92}, {"time": 3210, "pitch": 59, "duration": 3, "velocity": 99}, {"time": 3213, "pitch": 64, "duration": 2, "velocity": 91}, {"time": 3216, "pitch": 59, "duration": 2, "velocity": 86}, {"time": 3219, "pitch": 47, "duration": 17, "velocity": 92}, {"time": 3219, "pitch": 59, "duration": 3, "velocity": 91}, {"time": 3219, "pitch": 62, "duration": 7, "velocity": 91}, {"time": 3225, "pitch": 54, "duration": 4, "velocity": 88}, {"time": 3228, "pitch": 59, "duration": 4, "velocity": 99}, {"time": 3231, "pitch": 54, "duration": 3, "velocity": 92}, {"time": 3234, "pitch": 66, "duration": 4, "velocity": 101}, {"time": 3237, "pitch": 59, "duration": 3, "velocity": 92}, {"time": 3243, "pitch": 48, "duration": 4, "velocity": 92}, {"time": 3243, "pitch": 60, "duration": 5, "velocity": 90}, {"time": 3243, "pitch": 64, "duration": 7, "velocity": 93}, {"time": 3255, "pitch": 38, "duration": 2, "velocity": 92}, {"time": 3255, "pitch": 62, "duration": 5, "velocity": 87}, {"time": 3255, "pitch": 66, "duration": 4, "velocity": 86}, {"time": 3267, "pitch": 45, "duration": 40, "velocity": 91}, {"time": 3267, "pitch": 57, "duration": 6, "velocity": 85}, {"time": 3267, "pitch": 61, "duration": 6, "velocity": 86}, {"time": 3267, "pitch": 64, "duration": 6, "velocity": 91}, {"time": 3267, "pitch": 69, "duration": 5, "velocity": 86}, {"time": 3273, "pitch": 52, "duration": 11, "velocity": 78}, {"time": 3276, "pitch": 57, "duration": 4, "velocity": 96}, {"time": 3276, "pitch": 69, "duration": 4, "velocity": 87}, {"time": 3282, "pitch": 57, "duration": 3, "velocity": 93}, {"time": 3282, "pitch": 69, "duration": 4, "velocity": 88}, {"time": 3285, "pitch": 52, "duration": 7, "velocity": 91}, {"time": 3288, "pitch": 57, "duration": 1, "velocity": 99}, {"time": 3291, "pitch": 57, "duration": 6, "velocity": 94}, {"time": 3291, "pitch": 64, "duration": 7, "velocity": 93}, {"time": 3297, "pitch": 52, "duration": 6, "velocity": 90}, {"time": 3300, "pitch": 57, "duration": 2, "velocity": 92}, {"time": 3303, "pitch": 57, "duration": 3, "velocity": 92}, {"time": 3303, "pitch": 61, "duration": 2, "velocity": 90}, {"time": 3303, "pitch": 64, "duration": 3, "velocity": 94}, {"time": 3306, "pitch": 52, "duration": 2, "velocity": 91}, {"time": 3309, "pitch": 45, "duration": 1, "velocity": 92}, {"time": 3315, "pitch": 36, "duration": 1, "velocity": 90}, {"time": 3315, "pitch": 55, "duration": 4, "velocity": 91}, {"time": 3315, "pitch": 64, "duration": 5, "velocity": 92}, {"time": 3321, "pitch": 48, "duration": 20, "velocity": 86}, {"time": 3324, "pitch": 55, "duration": 8, "velocity": 92}, {"time": 3327, "pitch": 60, "duration": 1, "velocity": 96}, {"time": 3330, "pitch": 60, "duration": 3, "velocity": 99}, {"time": 3330, "pitch": 67, "duration": 5, "velocity": 93}, {"time": 3333, "pitch": 55, "duration": 7, "velocity": 84}, {"time": 3339, "pitch": 60, "duration": 3, "velocity": 97}, {"time": 3339, "pitch": 64, "duration": 3, "velocity": 106}, {"time": 3351, "pitch": 47, "duration": 12, "velocity": 94}, {"time": 3351, "pitch": 59, "duration": 11, "velocity": 91}, {"time": 3351, "pitch": 66, "duration": 12, "velocity": 89}, {"time": 3363, "pitch": 52, "duration": 12, "velocity": 84}, {"time": 3363, "pitch": 67, "duration": 12, "velocity": 88}, {"time": 3369, "pitch": 59, "duration": 7, "velocity": 81}, {"time": 3375, "pitch": 64, "duration": 3, "velocity": 86}, {"time": 3387, "pitch": 47, "duration": 15, "velocity": 85}, {"time": 3387, "pitch": 66, "duration": 13, "velocity": 79}, {"time": 3393, "pitch": 54, "duration": 7, "velocity": 66}, {"time": 3399, "pitch": 62, "duration": 6, "velocity": 90}, {"time": 3411, "pitch": 48, "duration": 6, "velocity": 90}, {"time": 3411, "pitch": 60, "duration": 5, "velocity": 82}, {"time": 3411, "pitch": 64, "duration": 5, "velocity": 89}, {"time": 3423, "pitch": 38, "duration": 3, "velocity": 79}, {"time": 3423, "pitch": 62, "duration": 6, "velocity": 79}, {"time": 3423, "pitch": 66, "duration": 5, "velocity": 83}, {"time": 3435, "pitch": 43, "duration": 18, "velocity": 84}, {"time": 3435, "pitch": 62, "duration": 6, "velocity": 81}, {"time": 3435, "pitch": 67, "duration": 7, "velocity": 82}, {"time": 3441, "pitch": 50, "duration": 11, "velocity": 72}, {"time": 3447, "pitch": 62, "duration": 4, "velocity": 88}, {"time": 3447, "pitch": 71, "duration": 3, "velocity": 87}, {"time": 3453, "pitch": 66, "duration": 5, "velocity": 90}, {"time": 3459, "pitch": 40, "duration": 18, "velocity": 91}, {"time": 3459, "pitch": 64, "duration": 9, "velocity": 90}, {"time": 3459, "pitch": 67, "duration": 10, "velocity": 83}, {"time": 3465, "pitch": 52, "duration": 8, "velocity": 91}, {"time": 3471, "pitch": 64, "duration": 2, "velocity": 91}, {"time": 3471, "pitch": 71, "duration": 4, "velocity": 88}, {"time": 3477, "pitch": 64, "duration": 2, "velocity": 76}, {"time": 3482, "pitch": 71, "duration": 13, "velocity": 89}, {"time": 3483, "pitch": 59, "duration": 12, "velocity": 83}, {"time": 3483, "pitch": 47, "duration": 14, "velocity": 83}, {"time": 3488, "pitch": 54, "duration": 8, "velocity": 75}, {"time": 3495, "pitch": 66, "duration": 6, "velocity": 96}, {"time": 3501, "pitch": 59, "duration": 1, "velocity": 90}, {"time": 3507, "pitch": 36, "duration": 3, "velocity": 87}, {"time": 3508, "pitch": 60, "duration": 17, "velocity": 70}, {"time": 3510, "pitch": 64, "duration": 20, "velocity": 86}, {"time": 3518, "pitch": 48, "duration": 16, "velocity": 50}, {"time": 3523, "pitch": 55, "duration": 12, "velocity": 72}, {"time": 3529, "pitch": 60, "duration": 7, "velocity": 81}, {"time": 3536, "pitch": 64, "duration": 11, "velocity": 90}, {"time": 3544, "pitch": 38, "duration": 17, "velocity": 74}, {"time": 3547, "pitch": 45, "duration": 13, "velocity": 68}, {"time": 3548, "pitch": 62, "duration": 32, "velocity": 73}, {"time": 3549, "pitch": 66, "duration": 30, "velocity": 65}, {"time": 3551, "pitch": 69, "duration": 29, "velocity": 82}, {"time": 3577, "pitch": 67, "duration": 9, "velocity": 83}, {"time": 3577, "pitch": 64, "duration": 9, "velocity": 84}, {"time": 3577, "pitch": 52, "duration": 17, "velocity": 91}, {"time": 3584, "pitch": 59, "duration": 9, "velocity": 75}, {"time": 3590, "pitch": 64, "duration": 2, "velocity": 90}, {"time": 3590, "pitch": 71, "duration": 8, "velocity": 77}, {"time": 3596, "pitch": 64, "duration": 2, "velocity": 74}, {"time": 3602, "pitch": 50, "duration": 14, "velocity": 91}, {"time": 3602, "pitch": 62, "duration": 12, "velocity": 78}, {"time": 3602, "pitch": 66, "duration": 8, "velocity": 78}, {"time": 3608, "pitch": 57, "duration": 7, "velocity": 66}, {"time": 3615, "pitch": 66, "duration": 2, "velocity": 78}, {"time": 3615, "pitch": 69, "duration": 3, "velocity": 81}, {"time": 3627, "pitch": 60, "duration": 8, "velocity": 79}, {"time": 3627, "pitch": 67, "duration": 12, "velocity": 83}, {"time": 3627, "pitch": 48, "duration": 15, "velocity": 90}, {"time": 3632, "pitch": 55, "duration": 8, "velocity": 77}, {"time": 3639, "pitch": 64, "duration": 5, "velocity": 90}, {"time": 3650, "pitch": 43, "duration": 17, "velocity": 86}, {"time": 3650, "pitch": 67, "duration": 10, "velocity": 78}, {"time": 3650, "pitch": 62, "duration": 10, "velocity": 73}, {"time": 3656, "pitch": 50, "duration": 10, "velocity": 76}, {"time": 3663, "pitch": 67, "duration": 3, "velocity": 86}, {"time": 3663, "pitch": 71, "duration": 6, "velocity": 91}, {"time": 3663, "pitch": 62, "duration": 3, "velocity": 86}, {"time": 3668, "pitch": 69, "duration": 7, "velocity": 89}, {"time": 3675, "pitch": 52, "duration": 13, "velocity": 91}, {"time": 3675, "pitch": 67, "duration": 11, "velocity": 81}, {"time": 3680, "pitch": 59, "duration": 8, "velocity": 80}, {"time": 3686, "pitch": 64, "duration": 7, "velocity": 92}, {"time": 3692, "pitch": 67, "duration": 7, "velocity": 84}, {"time": 3698, "pitch": 50, "duration": 19, "velocity": 86}, {"time": 3699, "pitch": 66, "duration": 13, "velocity": 88}, {"time": 3704, "pitch": 57, "duration": 12, "velocity": 80}, {"time": 3711, "pitch": 62, "duration": 8, "velocity": 93}, {"time": 3717, "pitch": 66, "duration": 7, "velocity": 83}, {"time": 3724, "pitch": 48, "duration": 23, "velocity": 91}, {"time": 3724, "pitch": 67, "duration": 15, "velocity": 84}, {"time": 3731, "pitch": 55, "duration": 15, "velocity": 82}, {"time": 3738, "pitch": 60, "duration": 8, "velocity": 91}, {"time": 3745, "pitch": 67, "duration": 9, "velocity": 74}, {"time": 3762, "pitch": 62, "duration": 9, "velocity": 72}, {"time": 3763, "pitch": 66, "duration": 7, "velocity": 78}, {"time": 3764, "pitch": 38, "duration": 3, "velocity": 92}, {"time": 3765, "pitch": 69, "duration": 8, "velocity": 84}, {"time": 3783, "pitch": 64, "duration": 2, "velocity": 79}, {"time": 3784, "pitch": 40, "duration": 3, "velocity": 90}, {"time": 3784, "pitch": 67, "duration": 2, "velocity": 84}, {"time": 3786, "pitch": 71, "duration": 1, "velocity": 79}, {"time": 3787, "pitch": 76, "duration": 36, "velocity": 90}], "annotations": [{"time": 51, "annotation": {"number": 64, "value": 127}, "group": "control_change"}, {"time": 51, "annotation": {"number": 64, "value": 0}, "group": "control_change"}, {"time": 74, "annotation": {"number": 64, "value": 0}, "group": "control_change"}, {"time": 76, "annotation": {"number": 64, "value": 127}, "group": "control_change"}, {"time": 98, "annotation": {"number": 64, "value": 0}, "group": "control_change"}, {"time": 100, "annotation": {"number": 64, "value": 127}, "group": "control_change"}, {"time": 123, "annotation": {"number": 64, "value": 0}, "group": "control_change"}, {"time": 124, "annotation": {"number": 64, "value": 127}, "group": "control_change"}, {"time": 143, "annotation": {"number": 64, "value": 0}, "group": "control_change"}, {"time": 147, "annotation": {"number": 64, "value": 127}, "group": "control_change"}, {"time": 169, "annotation": {"number": 64, "value": 0}, "group": "control_change"}, {"time": 171, "annotation": {"number": 64, "value": 127}, "group": "control_change"}, {"time": 191, "annotation": {"number": 64, "value": 0}, "group": "control_change"}, {"time": 194, "annotation": {"number": 64, "value": 127}, "group": "control_change"}, {"time": 243, "annotation": {"number": 64, "value": 127}, "group": "control_change"}, {"time": 243, "annotation": {"number": 64, "value": 0}, "group": "control_change"}, {"time": 244, "annotation": {"number": 64, "value": 127}, "group": "control_change"}, {"time": 266, "annotation": {"number": 64, "value": 0}, "group": "control_change"}, {"time": 269, "annotation": {"number": 64, "value": 127}, "group": "control_change"}, {"time": 289, "annotation": {"number": 64, "value": 0}, "group": "control_change"}, {"time": 291, "annotation": {"number": 64, "value": 127}, "group": "control_change"}, {"time": 301, "annotation": {"number": 64, "value": 0}, "group": "control_change"}, {"time": 303, "annotation": {"number": 64, "value": 127}, "group": "control_change"}, {"time": 314, "annotation": {"number": 64, "value": 0}, "group": "control_change"}, {"time": 320, "annotation": {"number": 64, "value": 127}, "group": "control_change"}, {"time": 339, "annotation": {"number": 64, "value": 0}, "group": "control_change"}, {"time": 339, "annotation": {"number": 64, "value": 127}, "group": "control_change"}, {"time": 363, "annotation": {"number": 64, "value": 0}, "group": "control_change"}, {"time": 365, "annotation": {"number": 64, "value": 127}, "group": "control_change"}, {"time": 385, "annotation": {"number": 64, "value": 0}, "group": "control_change"}, {"time": 387, "annotation": {"number": 64, "value": 127}, "group": "control_change"}, {"time": 397, "annotation": {"number": 64, "value": 0}, "group": "control_change"}, {"time": 399, "annotation": {"number": 64, "value": 127}, "group": "control_change"}, {"time": 410, "annotation": {"number": 64, "value": 0}, "group": "control_change"}, {"time": 412, "annotation": {"number": 64, "value": 127}, "group": "control_change"}, {"time": 432, "annotation": {"number": 64, "value": 0}, "group": "control_change"}, {"time": 435, "annotation": {"number": 64, "value": 127}, "group": "control_change"}, {"time": 435, "annotation": {"number": 64, "value": 0}, "group": "control_change"}, {"time": 436, "annotation": {"number": 64, "value": 127}, "group": "control_change"}, {"time": 458, "annotation": {"number": 64, "value": 0}, "group": "control_change"}, {"time": 461, "annotation": {"number": 64, "value": 127}, "group": "control_change"}, {"time": 481, "annotation": {"number": 64, "value": 0}, "group": "control_change"}, {"time": 483, "annotation": {"number": 64, "value": 127}, "group": "control_change"}, {"time": 493, "annotation": {"number": 64, "value": 0}, "group": "control_change"}, {"time": 495, "annotation": {"number": 64, "value": 127}, "group": "control_change"}, {"time": 506, "annotation": {"number": 64, "value": 0}, "group": "control_change"}, {"time": 512, "annotation": {"number": 64, "value": 127}, "group": "control_change"}, {"time": 531, "annotation": {"number": 64, "value": 0}, "group": "control_change"}, {"time": 531, "annotation": {"number": 64, "value": 127}, "group": "control_change"}, {"time": 555, "annotation": {"number": 64, "value": 0}, "group": "control_change"}, {"time": 557, "annotation": {"number": 64, "value": 127}, "group": "control_change"}, {"time": 577, "annotation": {"number": 64, "value": 0}, "group": "control_change"}, {"time": 579, "annotation": {"number": 64, "value": 127}, "group": "control_change"}, {"time": 589, "annotation": {"number": 64, "value": 0}, "group": "control_change"}, {"time": 591, "annotation": {"number": 64, "value": 127}, "group": "control_change"}, {"time": 602, "annotation": {"number": 64, "value": 0}, "group": "control_change"}, {"time": 604, "annotation": {"number": 64, "value": 127}, "group": "control_change"}, {"time": 624, "annotation": {"number": 64, "value": 0}, "group": "control_change"}, {"time": 627, "annotation": {"number": 64, "value": 127}, "group": "control_change"}, {"time": 649, "annotation": {"number": 64, "value": 0}, "group": "control_change"}, {"time": 651, "annotation": {"number": 64, "value": 127}, "group": "control_change"}, {"time": 673, "annotation": {"number": 64, "value": 0}, "group": "control_change"}, {"time": 676, "annotation": {"number": 64, "value": 127}, "group": "control_change"}, {"time": 698, "annotation": {"number": 64, "value": 0}, "group": "control_change"}, {"time": 700, "annotation": {"number": 64, "value": 127}, "group": "control_change"}, {"time": 718, "annotation": {"number": 64, "value": 0}, "group": "control_change"}, {"time": 723, "annotation": {"number": 64, "value": 127}, "group": "control_change"}, {"time": 723, "annotation": {"number": 64, "value": 0}, "group": "control_change"}, {"time": 746, "annotation": {"number": 64, "value": 0}, "group": "control_change"}, {"time": 751, "annotation": {"number": 64, "value": 127}, "group": "control_change"}, {"time": 768, "annotation": {"number": 64, "value": 0}, "group": "control_change"}, {"time": 771, "annotation": {"number": 64, "value": 127}, "group": "control_change"}, {"time": 819, "annotation": {"number": 64, "value": 0}, "group": "control_change"}, {"time": 822, "annotation": {"number": 64, "value": 127}, "group": "control_change"}, {"time": 842, "annotation": {"number": 64, "value": 0}, "group": "control_change"}, {"time": 844, "annotation": {"number": 64, "value": 127}, "group": "control_change"}, {"time": 866, "annotation": {"number": 64, "value": 0}, "group": "control_change"}, {"time": 869, "annotation": {"number": 64, "value": 127}, "group": "control_change"}, {"time": 891, "annotation": {"number": 64, "value": 0}, "group": "control_change"}, {"time": 894, "annotation": {"number": 64, "value": 127}, "group": "control_change"}, {"time": 913, "annotation": {"number": 64, "value": 0}, "group": "control_change"}, {"time": 917, "annotation": {"number": 64, "value": 127}, "group": "control_change"}, {"time": 941, "annotation": {"number": 64, "value": 0}, "group": "control_change"}, {"time": 943, "annotation": {"number": 64, "value": 127}, "group": "control_change"}, {"time": 962, "annotation": {"number": 64, "value": 0}, "group": "control_change"}, {"time": 965, "annotation": {"number": 64, "value": 127}, "group": "control_change"}, {"time": 986, "annotation": {"number": 64, "value": 0}, "group": "control_change"}, {"time": 987, "annotation": {"number": 64, "value": 127}, "group": "control_change"}, {"time": 1009, "annotation": {"number": 64, "value": 0}, "group": "control_change"}, {"time": 1011, "annotation": {"number": 64, "value": 127}, "group": "control_change"}, {"time": 1034, "annotation": {"number": 64, "value": 0}, "group": "control_change"}, {"time": 1036, "annotation": {"number": 64, "value": 127}, "group": "control_change"}, {"time": 1058, "annotation": {"number": 64, "value": 0}, "group": "control_change"}, {"time": 1060, "annotation": {"number": 64, "value": 127}, "group": "control_change"}, {"time": 1070, "annotation": {"number": 64, "value": 0}, "group": "control_change"}, {"time": 1072, "annotation": {"number": 64, "value": 127}, "group": "control_change"}, {"time": 1083, "annotation": {"number": 64, "value": 0}, "group": "control_change"}, {"time": 1085, "annotation": {"number": 64, "value": 127}, "group": "control_change"}, {"time": 1107, "annotation": {"number": 64, "value": 0}, "group": "control_change"}, {"time": 1109, "annotation": {"number": 64, "value": 127}, "group": "control_change"}, {"time": 1130, "annotation": {"number": 64, "value": 0}, "group": "control_change"}, {"time": 1132, "annotation": {"number": 64, "value": 127}, "group": "control_change"}, {"time": 1154, "annotation": {"number": 64, "value": 0}, "group": "control_change"}, {"time": 1155, "annotation": {"number": 64, "value": 127}, "group": "control_change"}, {"time": 1166, "annotation": {"number": 64, "value": 0}, "group": "control_change"}, {"time": 1167, "annotation": {"number": 64, "value": 127}, "group": "control_change"}, {"time": 1178, "annotation": {"number": 64, "value": 0}, "group": "control_change"}, {"time": 1180, "annotation": {"number": 64, "value": 127}, "group": "control_change"}, {"time": 1201, "annotation": {"number": 64, "value": 0}, "group": "control_change"}, {"time": 1203, "annotation": {"number": 64, "value": 127}, "group": "control_change"}, {"time": 1225, "annotation": {"number": 64, "value": 0}, "group": "control_change"}, {"time": 1228, "annotation": {"number": 64, "value": 127}, "group": "control_change"}, {"time": 1250, "annotation": {"number": 64, "value": 0}, "group": "control_change"}, {"time": 1252, "annotation": {"number": 64, "value": 127}, "group": "control_change"}, {"time": 1262, "annotation": {"number": 64, "value": 0}, "group": "control_change"}, {"time": 1264, "annotation": {"number": 64, "value": 127}, "group": "control_change"}, {"time": 1275, "annotation": {"number": 64, "value": 0}, "group": "control_change"}, {"time": 1277, "annotation": {"number": 64, "value": 127}, "group": "control_change"}, {"time": 1298, "annotation": {"number": 64, "value": 0}, "group": "control_change"}, {"time": 1300, "annotation": {"number": 64, "value": 127}, "group": "control_change"}, {"time": 1322, "annotation": {"number": 64, "value": 0}, "group": "control_change"}, {"time": 1324, "annotation": {"number": 64, "value": 127}, "group": "control_change"}, {"time": 1346, "annotation": {"number": 64, "value": 0}, "group": "control_change"}, {"time": 1348, "annotation": {"number": 64, "value": 127}, "group": "control_change"}, {"time": 1357, "annotation": {"number": 64, "value": 0}, "group": "control_change"}, {"time": 1359, "annotation": {"number": 64, "value": 127}, "group": "control_change"}, {"time": 1371, "annotation": {"number": 64, "value": 127}, "group": "control_change"}, {"time": 1416, "annotation": {"number": 64, "value": 0}, "group": "control_change"}, {"time": 1418, "annotation": {"number": 64, "value": 127}, "group": "control_change"}, {"time": 1419, "annotation": {"number": 64, "value": 127}, "group": "control_change"}, {"time": 1453, "annotation": {"number": 64, "value": 0}, "group": "control_change"}, {"time": 1455, "annotation": {"number": 64, "value": 127}, "group": "control_change"}, {"time": 1464, "annotation": {"number": 64, "value": 0}, "group": "control_change"}, {"time": 1467, "annotation": {"number": 64, "value": 127}, "group": "control_change"}, {"time": 1490, "annotation": {"number": 64, "value": 0}, "group": "control_change"}, {"time": 1492, "annotation": {"number": 64, "value": 127}, "group": "control_change"}, {"time": 1514, "annotation": {"number": 64, "value": 0}, "group": "control_change"}, {"time": 1516, "annotation": {"number": 64, "value": 127}, "group": "control_change"}, {"time": 1526, "annotation": {"number": 64, "value": 0}, "group": "control_change"}, {"time": 1528, "annotation": {"number": 64, "value": 127}, "group": "control_change"}, {"time": 1539, "annotation": {"number": 64, "value": 0}, "group": "control_change"}, {"time": 1541, "annotation": {"number": 64, "value": 127}, "group": "control_change"}, {"time": 1563, "annotation": {"number": 64, "value": 0}, "group": "control_change"}, {"time": 1565, "annotation": {"number": 64, "value": 127}, "group": "control_change"}, {"time": 1586, "annotation": {"number": 64, "value": 0}, "group": "control_change"}, {"time": 1588, "annotation": {"number": 64, "value": 127}, "group": "control_change"}, {"time": 1610, "annotation": {"number": 64, "value": 0}, "group": "control_change"}, {"time": 1611, "annotation": {"number": 64, "value": 127}, "group": "control_change"}, {"time": 1622, "annotation": {"number": 64, "value": 0}, "group": "control_change"}, {"time": 1623, "annotation": {"number": 64, "value": 127}, "group": "control_change"}, {"time": 1634, "annotation": {"number": 64, "value": 0}, "group": "control_change"}, {"time": 1636, "annotation": {"number": 64, "value": 127}, "group": "control_change"}, {"time": 1657, "annotation": {"number": 64, "value": 0}, "group": "control_change"}, {"time": 1659, "annotation": {"number": 64, "value": 127}, "group": "control_change"}, {"time": 1681, "annotation": {"number": 64, "value": 0}, "group": "control_change"}, {"time": 1684, "annotation": {"number": 64, "value": 127}, "group": "control_change"}, {"time": 1706, "annotation": {"number": 64, "value": 0}, "group": "control_change"}, {"time": 1708, "annotation": {"number": 64, "value": 127}, "group": "control_change"}, {"time": 1718, "annotation": {"number": 64, "value": 0}, "group": "control_change"}, {"time": 1720, "annotation": {"number": 64, "value": 127}, "group": "control_change"}, {"time": 1731, "annotation": {"number": 64, "value": 0}, "group": "control_change"}, {"time": 1733, "annotation": {"number": 64, "value": 127}, "group": "control_change"}, {"time": 1754, "annotation": {"number": 64, "value": 0}, "group": "control_change"}, {"time": 1756, "annotation": {"number": 64, "value": 127}, "group": "control_change"}, {"time": 1778, "annotation": {"number": 64, "value": 0}, "group": "control_change"}, {"time": 1780, "annotation": {"number": 64, "value": 127}, "group": "control_change"}, {"time": 1802, "annotation": {"number": 64, "value": 0}, "group": "control_change"}, {"time": 1804, "annotation": {"number": 64, "value": 127}, "group": "control_change"}, {"time": 1813, "annotation": {"number": 64, "value": 0}, "group": "control_change"}, {"time": 1815, "annotation": {"number": 64, "value": 127}, "group": "control_change"}, {"time": 1827, "annotation": {"number": 64, "value": 127}, "group": "control_change"}, {"time": 1872, "annotation": {"number": 64, "value": 0}, "group": "control_change"}, {"time": 1874, "annotation": {"number": 64, "value": 127}, "group": "control_change"}, {"time": 1875, "annotation": {"number": 64, "value": 127}, "group": "control_change"}, {"time": 1909, "annotation": {"number": 64, "value": 0}, "group": "control_change"}, {"time": 1911, "annotation": {"number": 64, "value": 127}, "group": "control_change"}, {"time": 1920, "annotation": {"number": 64, "value": 0}, "group": "control_change"}, {"time": 1923, "annotation": {"number": 64, "value": 127}, "group": "control_change"}, {"time": 1923, "annotation": {"number": 64, "value": 0}, "group": "control_change"}, {"time": 1924, "annotation": {"number": 64, "value": 127}, "group": "control_change"}, {"time": 1946, "annotation": {"number": 64, "value": 0}, "group": "control_change"}, {"time": 1949, "annotation": {"number": 64, "value": 127}, "group": "control_change"}, {"time": 1969, "annotation": {"number": 64, "value": 0}, "group": "control_change"}, {"time": 1971, "annotation": {"number": 64, "value": 127}, "group": "control_change"}, {"time": 1981, "annotation": {"number": 64, "value": 0}, "group": "control_change"}, {"time": 1983, "annotation": {"number": 64, "value": 127}, "group": "control_change"}, {"time": 1994, "annotation": {"number": 64, "value": 0}, "group": "control_change"}, {"time": 2000, "annotation": {"number": 64, "value": 127}, "group": "control_change"}, {"time": 2019, "annotation": {"number": 64, "value": 0}, "group": "control_change"}, {"time": 2019, "annotation": {"number": 64, "value": 127}, "group": "control_change"}, {"time": 2043, "annotation": {"number": 64, "value": 0}, "group": "control_change"}, {"time": 2045, "annotation": {"number": 64, "value": 127}, "group": "control_change"}, {"time": 2065, "annotation": {"number": 64, "value": 0}, "group": "control_change"}, {"time": 2067, "annotation": {"number": 64, "value": 127}, "group": "control_change"}, {"time": 2077, "annotation": {"number": 64, "value": 0}, "group": "control_change"}, {"time": 2079, "annotation": {"number": 64, "value": 127}, "group": "control_change"}, {"time": 2090, "annotation": {"number": 64, "value": 0}, "group": "control_change"}, {"time": 2092, "annotation": {"number": 64, "value": 127}, "group": "control_change"}, {"time": 2112, "annotation": {"number": 64, "value": 0}, "group": "control_change"}, {"time": 2115, "annotation": {"number": 64, "value": 127}, "group": "control_change"}, {"time": 2137, "annotation": {"number": 64, "value": 0}, "group": "control_change"}, {"time": 2139, "annotation": {"number": 64, "value": 127}, "group": "control_change"}, {"time": 2161, "annotation": {"number": 64, "value": 0}, "group": "control_change"}, {"time": 2164, "annotation": {"number": 64, "value": 127}, "group": "control_change"}, {"time": 2186, "annotation": {"number": 64, "value": 0}, "group": "control_change"}, {"time": 2188, "annotation": {"number": 64, "value": 127}, "group": "control_change"}, {"time": 2206, "annotation": {"number": 64, "value": 0}, "group": "control_change"}, {"time": 2211, "annotation": {"number": 64, "value": 127}, "group": "control_change"}, {"time": 2211, "annotation": {"number": 64, "value": 0}, "group": "control_change"}, {"time": 2234, "annotation": {"number": 64, "value": 0}, "group": "control_change"}, {"time": 2239, "annotation": {"number": 64, "value": 127}, "group": "control_change"}, {"time": 2256, "annotation": {"number": 64, "value": 0}, "group": "control_change"}, {"time": 2259, "annotation": {"number": 64, "value": 127}, "group": "control_change"}, {"time": 2307, "annotation": {"number": 64, "value": 0}, "group": "control_change"}, {"time": 2310, "annotation": {"number": 64, "value": 127}, "group": "control_change"}, {"time": 2330, "annotation": {"number": 64, "value": 0}, "group": "control_change"}, {"time": 2332, "annotation": {"number": 64, "value": 127}, "group": "control_change"}, {"time": 2354, "annotation": {"number": 64, "value": 0}, "group": "control_change"}, {"time": 2357, "annotation": {"number": 64, "value": 127}, "group": "control_change"}, {"time": 2379, "annotation": {"number": 64, "value": 0}, "group": "control_change"}, {"time": 2382, "annotation": {"number": 64, "value": 127}, "group": "control_change"}, {"time": 2401, "annotation": {"number": 64, "value": 0}, "group": "control_change"}, {"time": 2405, "annotation": {"number": 64, "value": 127}, "group": "control_change"}, {"time": 2429, "annotation": {"number": 64, "value": 0}, "group": "control_change"}, {"time": 2431, "annotation": {"number": 64, "value": 127}, "group": "control_change"}, {"time": 2450, "annotation": {"number": 64, "value": 0}, "group": "control_change"}, {"time": 2453, "annotation": {"number": 64, "value": 127}, "group": "control_change"}, {"time": 2474, "annotation": {"number": 64, "value": 0}, "group": "control_change"}, {"time": 2475, "annotation": {"number": 64, "value": 127}, "group": "control_change"}, {"time": 2497, "annotation": {"number": 64, "value": 0}, "group": "control_change"}, {"time": 2499, "annotation": {"number": 64, "value": 127}, "group": "control_change"}, {"time": 2522, "annotation": {"number": 64, "value": 0}, "group": "control_change"}, {"time": 2524, "annotation": {"number": 64, "value": 127}, "group": "control_change"}, {"time": 2546, "annotation": {"number": 64, "value": 0}, "group": "control_change"}, {"time": 2548, "annotation": {"number": 64, "value": 127}, "group": "control_change"}, {"time": 2558, "annotation": {"number": 64, "value": 0}, "group": "control_change"}, {"time": 2560, "annotation": {"number": 64, "value": 127}, "group": "control_change"}, {"time": 2571, "annotation": {"number": 64, "value": 0}, "group": "control_change"}, {"time": 2573, "annotation": {"number": 64, "value": 127}, "group": "control_change"}, {"time": 2595, "annotation": {"number": 64, "value": 0}, "group": "control_change"}, {"time": 2597, "annotation": {"number": 64, "value": 127}, "group": "control_change"}, {"time": 2618, "annotation": {"number": 64, "value": 0}, "group": "control_change"}, {"time": 2620, "annotation": {"number": 64, "value": 127}, "group": "control_change"}, {"time": 2642, "annotation": {"number": 64, "value": 0}, "group": "control_change"}, {"time": 2643, "annotation": {"number": 64, "value": 127}, "group": "control_change"}, {"time": 2654, "annotation": {"number": 64, "value": 0}, "group": "control_change"}, {"time": 2655, "annotation": {"number": 64, "value": 127}, "group": "control_change"}, {"time": 2666, "annotation": {"number": 64, "value": 0}, "group": "control_change"}, {"time": 2668, "annotation": {"number": 64, "value": 127}, "group": "control_change"}, {"time": 2689, "annotation": {"number": 64, "value": 0}, "group": "control_change"}, {"time": 2691, "annotation": {"number": 64, "value": 127}, "group": "control_change"}, {"time": 2713, "annotation": {"number": 64, "value": 0}, "group": "control_change"}, {"time": 2716, "annotation": {"number": 64, "value": 127}, "group": "control_change"}, {"time": 2738, "annotation": {"number": 64, "value": 0}, "group": "control_change"}, {"time": 2740, "annotation": {"number": 64, "value": 127}, "group": "control_change"}, {"time": 2750, "annotation": {"number": 64, "value": 0}, "group": "control_change"}, {"time": 2752, "annotation": {"number": 64, "value": 127}, "group": "control_change"}, {"time": 2763, "annotation": {"number": 64, "value": 0}, "group": "control_change"}, {"time": 2765, "annotation": {"number": 64, "value": 127}, "group": "control_change"}, {"time": 2786, "annotation": {"number": 64, "value": 0}, "group": "control_change"}, {"time": 2788, "annotation": {"number": 64, "value": 127}, "group": "control_change"}, {"time": 2810, "annotation": {"number": 64, "value": 0}, "group": "control_change"}, {"time": 2812, "annotation": {"number": 64, "value": 127}, "group": "control_change"}, {"time": 2834, "annotation": {"number": 64, "value": 0}, "group": "control_change"}, {"time": 2836, "annotation": {"number": 64, "value": 127}, "group": "control_change"}, {"time": 2845, "annotation": {"number": 64, "value": 0}, "group": "control_change"}, {"time": 2847, "annotation": {"number": 64, "value": 127}, "group": "control_change"}, {"time": 2859, "annotation": {"number": 64, "value": 127}, "group": "control_change"}, {"time": 2904, "annotation": {"number": 64, "value": 0}, "group": "control_change"}, {"time": 2906, "annotation": {"number": 64, "value": 127}, "group": "control_change"}, {"time": 2907, "annotation": {"number": 64, "value": 127}, "group": "control_change"}, {"time": 2930, "annotation": {"number": 64, "value": 0}, "group": "control_change"}, {"time": 2932, "annotation": {"number": 64, "value": 127}, "group": "control_change"}, {"time": 2954, "annotation": {"number": 64, "value": 0}, "group": "control_change"}, {"time": 2956, "annotation": {"number": 64, "value": 127}, "group": "control_change"}, {"time": 2966, "annotation": {"number": 64, "value": 0}, "group": "control_change"}, {"time": 2968, "annotation": {"number": 64, "value": 127}, "group": "control_change"}, {"time": 2979, "annotation": {"number": 64, "value": 0}, "group": "control_change"}, {"time": 2981, "annotation": {"number": 64, "value": 127}, "group": "control_change"}, {"time": 3003, "annotation": {"number": 64, "value": 0}, "group": "control_change"}, {"time": 3005, "annotation": {"number": 64, "value": 127}, "group": "control_change"}, {"time": 3026, "annotation": {"number": 64, "value": 0}, "group": "control_change"}, {"time": 3028, "annotation": {"number": 64, "value": 127}, "group": "control_change"}, {"time": 3050, "annotation": {"number": 64, "value": 0}, "group": "control_change"}, {"time": 3051, "annotation": {"number": 64, "value": 127}, "group": "control_change"}, {"time": 3062, "annotation": {"number": 64, "value": 0}, "group": "control_change"}, {"time": 3063, "annotation": {"number": 64, "value": 127}, "group": "control_change"}, {"time": 3074, "annotation": {"number": 64, "value": 0}, "group": "control_change"}, {"time": 3076, "annotation": {"number": 64, "value": 127}, "group": "control_change"}, {"time": 3097, "annotation": {"number": 64, "value": 0}, "group": "control_change"}, {"time": 3099, "annotation": {"number": 64, "value": 127}, "group": "control_change"}, {"time": 3121, "annotation": {"number": 64, "value": 0}, "group": "control_change"}, {"time": 3124, "annotation": {"number": 64, "value": 127}, "group": "control_change"}, {"time": 3146, "annotation": {"number": 64, "value": 0}, "group": "control_change"}, {"time": 3148, "annotation": {"number": 64, "value": 127}, "group": "control_change"}, {"time": 3158, "annotation": {"number": 64, "value": 0}, "group": "control_change"}, {"time": 3160, "annotation": {"number": 64, "value": 127}, "group": "control_change"}, {"time": 3171, "annotation": {"number": 64, "value": 0}, "group": "control_change"}, {"time": 3173, "annotation": {"number": 64, "value": 127}, "group": "control_change"}, {"time": 3194, "annotation": {"number": 64, "value": 0}, "group": "control_change"}, {"time": 3196, "annotation": {"number": 64, "value": 127}, "group": "control_change"}, {"time": 3218, "annotation": {"number": 64, "value": 0}, "group": "control_change"}, {"time": 3220, "annotation": {"number": 64, "value": 127}, "group": "control_change"}, {"time": 3242, "annotation": {"number": 64, "value": 0}, "group": "control_change"}, {"time": 3244, "annotation": {"number": 64, "value": 127}, "group": "control_change"}, {"time": 3253, "annotation": {"number": 64, "value": 0}, "group": "control_change"}, {"time": 3255, "annotation": {"number": 64, "value": 127}, "group": "control_change"}, {"time": 3267, "annotation": {"number": 64, "value": 127}, "group": "control_change"}, {"time": 3312, "annotation": {"number": 64, "value": 0}, "group": "control_change"}, {"time": 3314, "annotation": {"number": 64, "value": 127}, "group": "control_change"}, {"time": 3315, "annotation": {"number": 64, "value": 127}, "group": "control_change"}, {"time": 3349, "annotation": {"number": 64, "value": 0}, "group": "control_change"}, {"time": 3351, "annotation": {"number": 64, "value": 127}, "group": "control_change"}, {"time": 3360, "annotation": {"number": 64, "value": 0}, "group": "control_change"}, {"time": 3387, "annotation": {"number": 64, "value": 0}, "group": "control_change"}, {"time": 3391, "annotation": {"number": 64, "value": 127}, "group": "control_change"}, {"time": 3410, "annotation": {"number": 64, "value": 0}, "group": "control_change"}, {"time": 3412, "annotation": {"number": 64, "value": 127}, "group": "control_change"}, {"time": 3422, "annotation": {"number": 64, "value": 0}, "group": "control_change"}, {"time": 3423, "annotation": {"number": 64, "value": 127}, "group": "control_change"}, {"time": 3434, "annotation": {"number": 64, "value": 0}, "group": "control_change"}, {"time": 3436, "annotation": {"number": 64, "value": 127}, "group": "control_change"}, {"time": 3463, "annotation": {"number": 64, "value": 0}, "group": "control_change"}, {"time": 3465, "annotation": {"number": 64, "value": 127}, "group": "control_change"}, {"time": 3483, "annotation": {"number": 64, "value": 0}, "group": "control_change"}, {"time": 3484, "annotation": {"number": 64, "value": 127}, "group": "control_change"}, {"time": 3485, "annotation": {"number": 64, "value": 127}, "group": "control_change"}, {"time": 3506, "annotation": {"number": 64, "value": 0}, "group": "control_change"}, {"time": 3508, "annotation": {"number": 64, "value": 127}, "group": "control_change"}, {"time": 3518, "annotation": {"number": 64, "value": 0}, "group": "control_change"}, {"time": 3546, "annotation": {"number": 64, "value": 0}, "group": "control_change"}, {"time": 3548, "annotation": {"number": 64, "value": 127}, "group": "control_change"}, {"time": 3571, "annotation": {"number": 64, "value": 0}, "group": "control_change"}, {"time": 3579, "annotation": {"number": 64, "value": 127}, "group": "control_change"}, {"time": 3579, "annotation": {"number": 64, "value": 0}, "group": "control_change"}, {"time": 3602, "annotation": {"number": 64, "value": 0}, "group": "control_change"}, {"time": 3609, "annotation": {"number": 64, "value": 127}, "group": "control_change"}, {"time": 3626, "annotation": {"number": 64, "value": 0}, "group": "control_change"}, {"time": 3632, "annotation": {"number": 64, "value": 127}, "group": "control_change"}, {"time": 3652, "annotation": {"number": 64, "value": 0}, "group": "control_change"}, {"time": 3657, "annotation": {"number": 64, "value": 127}, "group": "control_change"}, {"time": 3674, "annotation": {"number": 64, "value": 0}, "group": "control_change"}, {"time": 3678, "annotation": {"number": 64, "value": 127}, "group": "control_change"}, {"time": 3697, "annotation": {"number": 64, "value": 0}, "group": "control_change"}, {"time": 3701, "annotation": {"number": 64, "value": 127}, "group": "control_change"}, {"time": 3722, "annotation": {"number": 64, "value": 0}, "group": "control_change"}, {"time": 3729, "annotation": {"number": 64, "value": 127}, "group": "control_change"}, {"time": 3763, "annotation": {"number": 64, "value": 0}, "group": "control_change"}, {"time": 3765, "annotation": {"number": 64, "value": 127}, "group": "control_change"}, {"time": 3783, "annotation": {"number": 64, "value": 0}, "group": "control_change"}, {"time": 3786, "annotation": {"number": 64, "value": 127}, "group": "control_change"}, {"time": 3883, "annotation": {"number": 64, "value": 0}, "group": "control_change"}]}]}