{"metadata": {"schema_version": "0.2", "title": "None", "source_filename": "681.mid", "source_format": "midi"}, "resolution": 12, "tempos": [{"time": 0, "qpm": 112.00005973336519}], "time_signatures": [{"time": 0, "numerator": 1, "denominator": 4}], "tracks": [{"program": 0, "is_drum": false, "name": "MELODY", "notes": [{"time": 577, "pitch": 72, "duration": 5, "velocity": 90}, {"time": 583, "pitch": 67, "duration": 4, "velocity": 94}, {"time": 589, "pitch": 70, "duration": 4, "velocity": 99}, {"time": 595, "pitch": 72, "duration": 4, "velocity": 92}, {"time": 601, "pitch": 72, "duration": 4, "velocity": 93}, {"time": 607, "pitch": 75, "duration": 4, "velocity": 98}, {"time": 613, "pitch": 75, "duration": 5, "velocity": 94}, {"time": 619, "pitch": 72, "duration": 4, "velocity": 93}, {"time": 625, "pitch": 70, "duration": 5, "velocity": 94}, {"time": 631, "pitch": 72, "duration": 15, "velocity": 93}, {"time": 673, "pitch": 70, "duration": 4, "velocity": 92}, {"time": 679, "pitch": 70, "duration": 5, "velocity": 92}, {"time": 685, "pitch": 72, "duration": 5, "velocity": 92}, {"time": 691, "pitch": 70, "duration": 7, "velocity": 99}, {"time": 703, "pitch": 70, "duration": 6, "velocity": 88}, {"time": 709, "pitch": 67, "duration": 4, "velocity": 92}, {"time": 715, "pitch": 65, "duration": 5, "velocity": 88}, {"time": 721, "pitch": 63, "duration": 4, "velocity": 95}, {"time": 727, "pitch": 67, "duration": 18, "velocity": 92}, {"time": 745, "pitch": 60, "duration": 5, "velocity": 93}, {"time": 751, "pitch": 63, "duration": 4, "velocity": 93}, {"time": 757, "pitch": 65, "duration": 18, "velocity": 90}, {"time": 781, "pitch": 65, "duration": 10, "velocity": 93}, {"time": 793, "pitch": 63, "duration": 4, "velocity": 92}, {"time": 799, "pitch": 65, "duration": 4, "velocity": 90}, {"time": 805, "pitch": 67, "duration": 4, "velocity": 86}, {"time": 811, "pitch": 67, "duration": 4, "velocity": 89}, {"time": 817, "pitch": 65, "duration": 4, "velocity": 89}, {"time": 823, "pitch": 67, "duration": 12, "velocity": 92}, {"time": 841, "pitch": 67, "duration": 4, "velocity": 93}, {"time": 847, "pitch": 70, "duration": 4, "velocity": 93}, {"time": 853, "pitch": 72, "duration": 4, "velocity": 95}, {"time": 859, "pitch": 72, "duration": 10, "velocity": 94}, {"time": 871, "pitch": 70, "duration": 5, "velocity": 97}, {"time": 877, "pitch": 72, "duration": 9, "velocity": 93}, {"time": 889, "pitch": 75, "duration": 10, "velocity": 96}, {"time": 901, "pitch": 74, "duration": 6, "velocity": 94}, {"time": 907, "pitch": 72, "duration": 11, "velocity": 97}, {"time": 919, "pitch": 70, "duration": 16, "velocity": 99}, {"time": 961, "pitch": 72, "duration": 5, "velocity": 90}, {"time": 967, "pitch": 67, "duration": 4, "velocity": 94}, {"time": 973, "pitch": 70, "duration": 4, "velocity": 99}, {"time": 979, "pitch": 72, "duration": 4, "velocity": 92}, {"time": 985, "pitch": 72, "duration": 4, "velocity": 93}, {"time": 991, "pitch": 75, "duration": 4, "velocity": 98}, {"time": 997, "pitch": 75, "duration": 5, "velocity": 94}, {"time": 1003, "pitch": 72, "duration": 4, "velocity": 93}, {"time": 1009, "pitch": 70, "duration": 5, "velocity": 94}, {"time": 1015, "pitch": 72, "duration": 15, "velocity": 93}, {"time": 1051, "pitch": 70, "duration": 4, "velocity": 92}, {"time": 1057, "pitch": 70, "duration": 4, "velocity": 92}, {"time": 1063, "pitch": 70, "duration": 5, "velocity": 92}, {"time": 1069, "pitch": 72, "duration": 5, "velocity": 92}, {"time": 1075, "pitch": 70, "duration": 7, "velocity": 99}, {"time": 1087, "pitch": 70, "duration": 6, "velocity": 88}, {"time": 1093, "pitch": 67, "duration": 4, "velocity": 92}, {"time": 1099, "pitch": 65, "duration": 5, "velocity": 88}, {"time": 1105, "pitch": 63, "duration": 4, "velocity": 95}, {"time": 1111, "pitch": 67, "duration": 18, "velocity": 92}, {"time": 1129, "pitch": 60, "duration": 5, "velocity": 93}, {"time": 1135, "pitch": 63, "duration": 4, "velocity": 93}, {"time": 1141, "pitch": 65, "duration": 12, "velocity": 90}, {"time": 1153, "pitch": 65, "duration": 6, "velocity": 90}, {"time": 1159, "pitch": 65, "duration": 6, "velocity": 90}, {"time": 1165, "pitch": 65, "duration": 10, "velocity": 93}, {"time": 1177, "pitch": 63, "duration": 4, "velocity": 92}, {"time": 1183, "pitch": 65, "duration": 4, "velocity": 90}, {"time": 1189, "pitch": 67, "duration": 4, "velocity": 86}, {"time": 1195, "pitch": 67, "duration": 4, "velocity": 89}, {"time": 1201, "pitch": 70, "duration": 4, "velocity": 89}, {"time": 1207, "pitch": 67, "duration": 6, "velocity": 92}, {"time": 1219, "pitch": 67, "duration": 6, "velocity": 92}, {"time": 1225, "pitch": 70, "duration": 4, "velocity": 93}, {"time": 1231, "pitch": 67, "duration": 4, "velocity": 93}, {"time": 1237, "pitch": 72, "duration": 4, "velocity": 95}, {"time": 1243, "pitch": 72, "duration": 6, "velocity": 94}, {"time": 1249, "pitch": 72, "duration": 6, "velocity": 94}, {"time": 1255, "pitch": 75, "duration": 5, "velocity": 97}, {"time": 1261, "pitch": 77, "duration": 9, "velocity": 93}, {"time": 1273, "pitch": 75, "duration": 6, "velocity": 96}, {"time": 1279, "pitch": 72, "duration": 6, "velocity": 94}, {"time": 1285, "pitch": 74, "duration": 36, "velocity": 97}, {"time": 1357, "pitch": 67, "duration": 11, "velocity": 96}, {"time": 1369, "pitch": 70, "duration": 9, "velocity": 97}, {"time": 1381, "pitch": 72, "duration": 4, "velocity": 95}, {"time": 1387, "pitch": 72, "duration": 4, "velocity": 92}, {"time": 1393, "pitch": 72, "duration": 5, "velocity": 94}, {"time": 1399, "pitch": 70, "duration": 5, "velocity": 98}, {"time": 1405, "pitch": 72, "duration": 5, "velocity": 96}, {"time": 1411, "pitch": 79, "duration": 5, "velocity": 96}, {"time": 1417, "pitch": 77, "duration": 4, "velocity": 93}, {"time": 1423, "pitch": 75, "duration": 5, "velocity": 90}, {"time": 1429, "pitch": 77, "duration": 10, "velocity": 94}, {"time": 1441, "pitch": 77, "duration": 4, "velocity": 93}, {"time": 1447, "pitch": 75, "duration": 11, "velocity": 96}, {"time": 1459, "pitch": 72, "duration": 12, "velocity": 95}, {"time": 1471, "pitch": 72, "duration": 4, "velocity": 94}, {"time": 1477, "pitch": 74, "duration": 4, "velocity": 103}, {"time": 1483, "pitch": 74, "duration": 4, "velocity": 96}, {"time": 1489, "pitch": 74, "duration": 4, "velocity": 98}, {"time": 1495, "pitch": 75, "duration": 4, "velocity": 96}, {"time": 1501, "pitch": 77, "duration": 4, "velocity": 88}, {"time": 1507, "pitch": 75, "duration": 4, "velocity": 96}, {"time": 1513, "pitch": 77, "duration": 3, "velocity": 93}, {"time": 1519, "pitch": 80, "duration": 10, "velocity": 96}, {"time": 1531, "pitch": 79, "duration": 15, "velocity": 94}, {"time": 1573, "pitch": 79, "duration": 3, "velocity": 93}, {"time": 1579, "pitch": 79, "duration": 3, "velocity": 93}, {"time": 1585, "pitch": 79, "duration": 3, "velocity": 93}, {"time": 1591, "pitch": 79, "duration": 3, "velocity": 92}, {"time": 1597, "pitch": 79, "duration": 4, "velocity": 93}, {"time": 1603, "pitch": 77, "duration": 4, "velocity": 93}, {"time": 1609, "pitch": 77, "duration": 4, "velocity": 91}, {"time": 1615, "pitch": 75, "duration": 4, "velocity": 94}, {"time": 1621, "pitch": 75, "duration": 4, "velocity": 93}, {"time": 1627, "pitch": 77, "duration": 3, "velocity": 85}, {"time": 1633, "pitch": 77, "duration": 4, "velocity": 87}, {"time": 1639, "pitch": 75, "duration": 12, "velocity": 93}, {"time": 1651, "pitch": 72, "duration": 14, "velocity": 93}, {"time": 1669, "pitch": 74, "duration": 3, "velocity": 92}, {"time": 1675, "pitch": 74, "duration": 4, "velocity": 94}, {"time": 1681, "pitch": 74, "duration": 3, "velocity": 99}, {"time": 1687, "pitch": 72, "duration": 4, "velocity": 93}, {"time": 1693, "pitch": 70, "duration": 5, "velocity": 95}, {"time": 1699, "pitch": 67, "duration": 4, "velocity": 91}, {"time": 1705, "pitch": 70, "duration": 5, "velocity": 92}, {"time": 1711, "pitch": 72, "duration": 9, "velocity": 93}, {"time": 1723, "pitch": 72, "duration": 30, "velocity": 93}, {"time": 1753, "pitch": 67, "duration": 6, "velocity": 96}, {"time": 1759, "pitch": 70, "duration": 6, "velocity": 97}, {"time": 1765, "pitch": 72, "duration": 4, "velocity": 95}, {"time": 1771, "pitch": 72, "duration": 4, "velocity": 92}, {"time": 1777, "pitch": 72, "duration": 5, "velocity": 94}, {"time": 1783, "pitch": 70, "duration": 5, "velocity": 98}, {"time": 1789, "pitch": 72, "duration": 5, "velocity": 96}, {"time": 1795, "pitch": 79, "duration": 5, "velocity": 96}, {"time": 1801, "pitch": 77, "duration": 4, "velocity": 93}, {"time": 1807, "pitch": 75, "duration": 5, "velocity": 90}, {"time": 1813, "pitch": 77, "duration": 10, "velocity": 94}, {"time": 1825, "pitch": 77, "duration": 4, "velocity": 93}, {"time": 1831, "pitch": 75, "duration": 11, "velocity": 96}, {"time": 1843, "pitch": 72, "duration": 12, "velocity": 95}, {"time": 1855, "pitch": 72, "duration": 4, "velocity": 94}, {"time": 1861, "pitch": 74, "duration": 4, "velocity": 103}, {"time": 1867, "pitch": 74, "duration": 4, "velocity": 96}, {"time": 1873, "pitch": 74, "duration": 4, "velocity": 98}, {"time": 1879, "pitch": 75, "duration": 4, "velocity": 96}, {"time": 1885, "pitch": 77, "duration": 4, "velocity": 88}, {"time": 1891, "pitch": 75, "duration": 4, "velocity": 96}, {"time": 1897, "pitch": 77, "duration": 3, "velocity": 93}, {"time": 1903, "pitch": 80, "duration": 10, "velocity": 96}, {"time": 1915, "pitch": 79, "duration": 15, "velocity": 94}, {"time": 1957, "pitch": 79, "duration": 3, "velocity": 93}, {"time": 1963, "pitch": 79, "duration": 3, "velocity": 93}, {"time": 1969, "pitch": 79, "duration": 3, "velocity": 93}, {"time": 1975, "pitch": 79, "duration": 3, "velocity": 92}, {"time": 1981, "pitch": 79, "duration": 4, "velocity": 93}, {"time": 1987, "pitch": 77, "duration": 4, "velocity": 93}, {"time": 1993, "pitch": 77, "duration": 4, "velocity": 91}, {"time": 1999, "pitch": 75, "duration": 4, "velocity": 94}, {"time": 2005, "pitch": 77, "duration": 6, "velocity": 93}, {"time": 2017, "pitch": 77, "duration": 4, "velocity": 87}, {"time": 2023, "pitch": 75, "duration": 12, "velocity": 93}, {"time": 2035, "pitch": 72, "duration": 12, "velocity": 93}, {"time": 2047, "pitch": 72, "duration": 6, "velocity": 93}, {"time": 2053, "pitch": 74, "duration": 3, "velocity": 92}, {"time": 2059, "pitch": 74, "duration": 4, "velocity": 94}, {"time": 2065, "pitch": 74, "duration": 3, "velocity": 99}, {"time": 2071, "pitch": 72, "duration": 4, "velocity": 93}, {"time": 2077, "pitch": 70, "duration": 5, "velocity": 95}, {"time": 2083, "pitch": 67, "duration": 4, "velocity": 91}, {"time": 2089, "pitch": 70, "duration": 5, "velocity": 92}, {"time": 2095, "pitch": 72, "duration": 9, "velocity": 93}, {"time": 2107, "pitch": 72, "duration": 30, "velocity": 93}, {"time": 2593, "pitch": 72, "duration": 5, "velocity": 90}, {"time": 2599, "pitch": 67, "duration": 4, "velocity": 94}, {"time": 2605, "pitch": 70, "duration": 4, "velocity": 99}, {"time": 2611, "pitch": 72, "duration": 4, "velocity": 92}, {"time": 2617, "pitch": 72, "duration": 4, "velocity": 93}, {"time": 2623, "pitch": 75, "duration": 4, "velocity": 98}, {"time": 2629, "pitch": 75, "duration": 5, "velocity": 94}, {"time": 2635, "pitch": 72, "duration": 4, "velocity": 93}, {"time": 2641, "pitch": 70, "duration": 5, "velocity": 94}, {"time": 2647, "pitch": 72, "duration": 15, "velocity": 93}, {"time": 2683, "pitch": 70, "duration": 4, "velocity": 92}, {"time": 2689, "pitch": 70, "duration": 4, "velocity": 92}, {"time": 2695, "pitch": 70, "duration": 5, "velocity": 92}, {"time": 2701, "pitch": 72, "duration": 5, "velocity": 92}, {"time": 2707, "pitch": 70, "duration": 7, "velocity": 99}, {"time": 2719, "pitch": 70, "duration": 6, "velocity": 88}, {"time": 2725, "pitch": 67, "duration": 4, "velocity": 92}, {"time": 2731, "pitch": 65, "duration": 5, "velocity": 88}, {"time": 2737, "pitch": 63, "duration": 4, "velocity": 95}, {"time": 2743, "pitch": 67, "duration": 18, "velocity": 92}, {"time": 2761, "pitch": 60, "duration": 5, "velocity": 93}, {"time": 2767, "pitch": 63, "duration": 4, "velocity": 93}, {"time": 2773, "pitch": 65, "duration": 12, "velocity": 90}, {"time": 2785, "pitch": 65, "duration": 6, "velocity": 90}, {"time": 2791, "pitch": 65, "duration": 6, "velocity": 90}, {"time": 2797, "pitch": 65, "duration": 10, "velocity": 93}, {"time": 2809, "pitch": 63, "duration": 4, "velocity": 92}, {"time": 2815, "pitch": 65, "duration": 4, "velocity": 90}, {"time": 2821, "pitch": 67, "duration": 4, "velocity": 86}, {"time": 2827, "pitch": 67, "duration": 4, "velocity": 89}, {"time": 2833, "pitch": 70, "duration": 4, "velocity": 89}, {"time": 2839, "pitch": 67, "duration": 6, "velocity": 92}, {"time": 2851, "pitch": 67, "duration": 6, "velocity": 92}, {"time": 2857, "pitch": 70, "duration": 4, "velocity": 93}, {"time": 2863, "pitch": 67, "duration": 4, "velocity": 93}, {"time": 2869, "pitch": 72, "duration": 4, "velocity": 95}, {"time": 2875, "pitch": 72, "duration": 6, "velocity": 94}, {"time": 2881, "pitch": 72, "duration": 6, "velocity": 94}, {"time": 2887, "pitch": 75, "duration": 5, "velocity": 97}, {"time": 2893, "pitch": 77, "duration": 9, "velocity": 93}, {"time": 2905, "pitch": 75, "duration": 6, "velocity": 96}, {"time": 2911, "pitch": 72, "duration": 6, "velocity": 94}, {"time": 2917, "pitch": 74, "duration": 36, "velocity": 97}, {"time": 2989, "pitch": 67, "duration": 11, "velocity": 96}, {"time": 3001, "pitch": 70, "duration": 9, "velocity": 97}, {"time": 3013, "pitch": 72, "duration": 4, "velocity": 95}, {"time": 3019, "pitch": 72, "duration": 4, "velocity": 92}, {"time": 3025, "pitch": 72, "duration": 5, "velocity": 94}, {"time": 3031, "pitch": 70, "duration": 5, "velocity": 98}, {"time": 3037, "pitch": 72, "duration": 5, "velocity": 96}, {"time": 3043, "pitch": 79, "duration": 5, "velocity": 96}, {"time": 3049, "pitch": 77, "duration": 4, "velocity": 93}, {"time": 3055, "pitch": 75, "duration": 5, "velocity": 90}, {"time": 3061, "pitch": 77, "duration": 10, "velocity": 94}, {"time": 3073, "pitch": 77, "duration": 4, "velocity": 93}, {"time": 3079, "pitch": 75, "duration": 11, "velocity": 96}, {"time": 3091, "pitch": 72, "duration": 12, "velocity": 95}, {"time": 3103, "pitch": 72, "duration": 4, "velocity": 94}, {"time": 3109, "pitch": 74, "duration": 4, "velocity": 103}, {"time": 3115, "pitch": 74, "duration": 4, "velocity": 96}, {"time": 3121, "pitch": 74, "duration": 4, "velocity": 98}, {"time": 3127, "pitch": 75, "duration": 4, "velocity": 96}, {"time": 3133, "pitch": 77, "duration": 4, "velocity": 88}, {"time": 3139, "pitch": 75, "duration": 4, "velocity": 96}, {"time": 3145, "pitch": 77, "duration": 3, "velocity": 93}, {"time": 3151, "pitch": 80, "duration": 10, "velocity": 96}, {"time": 3163, "pitch": 79, "duration": 15, "velocity": 94}, {"time": 3205, "pitch": 79, "duration": 3, "velocity": 93}, {"time": 3211, "pitch": 79, "duration": 3, "velocity": 93}, {"time": 3217, "pitch": 79, "duration": 3, "velocity": 93}, {"time": 3223, "pitch": 79, "duration": 3, "velocity": 92}, {"time": 3229, "pitch": 79, "duration": 4, "velocity": 93}, {"time": 3235, "pitch": 77, "duration": 4, "velocity": 93}, {"time": 3241, "pitch": 77, "duration": 4, "velocity": 91}, {"time": 3247, "pitch": 75, "duration": 4, "velocity": 94}, {"time": 3253, "pitch": 75, "duration": 4, "velocity": 93}, {"time": 3259, "pitch": 77, "duration": 3, "velocity": 85}, {"time": 3265, "pitch": 77, "duration": 4, "velocity": 87}, {"time": 3271, "pitch": 75, "duration": 12, "velocity": 93}, {"time": 3283, "pitch": 72, "duration": 14, "velocity": 93}, {"time": 3301, "pitch": 74, "duration": 3, "velocity": 92}, {"time": 3307, "pitch": 74, "duration": 4, "velocity": 94}, {"time": 3313, "pitch": 74, "duration": 3, "velocity": 99}, {"time": 3319, "pitch": 72, "duration": 4, "velocity": 93}, {"time": 3325, "pitch": 70, "duration": 5, "velocity": 95}, {"time": 3331, "pitch": 67, "duration": 4, "velocity": 91}, {"time": 3337, "pitch": 70, "duration": 5, "velocity": 92}, {"time": 3343, "pitch": 72, "duration": 9, "velocity": 93}, {"time": 3355, "pitch": 72, "duration": 30, "velocity": 93}, {"time": 3385, "pitch": 67, "duration": 6, "velocity": 96}, {"time": 3391, "pitch": 70, "duration": 6, "velocity": 97}, {"time": 3397, "pitch": 72, "duration": 4, "velocity": 95}, {"time": 3403, "pitch": 72, "duration": 4, "velocity": 92}, {"time": 3409, "pitch": 72, "duration": 5, "velocity": 94}, {"time": 3415, "pitch": 70, "duration": 5, "velocity": 98}, {"time": 3421, "pitch": 72, "duration": 5, "velocity": 96}, {"time": 3427, "pitch": 79, "duration": 5, "velocity": 96}, {"time": 3433, "pitch": 77, "duration": 4, "velocity": 93}, {"time": 3439, "pitch": 75, "duration": 5, "velocity": 90}, {"time": 3445, "pitch": 77, "duration": 10, "velocity": 94}, {"time": 3457, "pitch": 77, "duration": 4, "velocity": 93}, {"time": 3463, "pitch": 75, "duration": 11, "velocity": 96}, {"time": 3475, "pitch": 72, "duration": 12, "velocity": 95}, {"time": 3487, "pitch": 72, "duration": 4, "velocity": 94}, {"time": 3493, "pitch": 74, "duration": 4, "velocity": 103}, {"time": 3499, "pitch": 74, "duration": 4, "velocity": 96}, {"time": 3505, "pitch": 74, "duration": 4, "velocity": 98}, {"time": 3511, "pitch": 75, "duration": 4, "velocity": 96}, {"time": 3517, "pitch": 77, "duration": 4, "velocity": 88}, {"time": 3523, "pitch": 75, "duration": 4, "velocity": 96}, {"time": 3529, "pitch": 77, "duration": 3, "velocity": 93}, {"time": 3535, "pitch": 80, "duration": 10, "velocity": 96}, {"time": 3547, "pitch": 79, "duration": 15, "velocity": 94}, {"time": 3589, "pitch": 79, "duration": 3, "velocity": 93}, {"time": 3595, "pitch": 79, "duration": 3, "velocity": 93}, {"time": 3601, "pitch": 79, "duration": 3, "velocity": 93}, {"time": 3607, "pitch": 79, "duration": 3, "velocity": 92}, {"time": 3613, "pitch": 79, "duration": 4, "velocity": 93}, {"time": 3619, "pitch": 77, "duration": 4, "velocity": 93}, {"time": 3625, "pitch": 77, "duration": 4, "velocity": 91}, {"time": 3631, "pitch": 75, "duration": 4, "velocity": 94}, {"time": 3637, "pitch": 77, "duration": 6, "velocity": 93}, {"time": 3649, "pitch": 77, "duration": 4, "velocity": 87}, {"time": 3655, "pitch": 75, "duration": 12, "velocity": 93}, {"time": 3667, "pitch": 72, "duration": 12, "velocity": 93}, {"time": 3679, "pitch": 72, "duration": 6, "velocity": 93}, {"time": 3685, "pitch": 74, "duration": 3, "velocity": 92}, {"time": 3691, "pitch": 74, "duration": 4, "velocity": 94}, {"time": 3697, "pitch": 74, "duration": 3, "velocity": 99}, {"time": 3703, "pitch": 72, "duration": 4, "velocity": 93}, {"time": 3709, "pitch": 70, "duration": 5, "velocity": 95}, {"time": 3715, "pitch": 67, "duration": 4, "velocity": 91}, {"time": 3721, "pitch": 70, "duration": 5, "velocity": 92}, {"time": 3727, "pitch": 72, "duration": 9, "velocity": 93}, {"time": 3739, "pitch": 72, "duration": 30, "velocity": 93}, {"time": 3781, "pitch": 79, "duration": 29, "velocity": 94}, {"time": 3811, "pitch": 79, "duration": 6, "velocity": 94}, {"time": 3817, "pitch": 77, "duration": 7, "velocity": 87}, {"time": 3823, "pitch": 75, "duration": 3, "velocity": 93}, {"time": 3829, "pitch": 77, "duration": 6, "velocity": 92}, {"time": 3835, "pitch": 79, "duration": 12, "velocity": 96}, {"time": 3847, "pitch": 72, "duration": 18, "velocity": 94}, {"time": 3871, "pitch": 72, "duration": 5, "velocity": 94}, {"time": 3877, "pitch": 74, "duration": 3, "velocity": 103}, {"time": 3883, "pitch": 74, "duration": 4, "velocity": 96}, {"time": 3889, "pitch": 74, "duration": 5, "velocity": 99}, {"time": 3895, "pitch": 75, "duration": 4, "velocity": 96}, {"time": 3901, "pitch": 77, "duration": 4, "velocity": 92}, {"time": 3907, "pitch": 75, "duration": 6, "velocity": 94}, {"time": 3913, "pitch": 77, "duration": 3, "velocity": 93}, {"time": 3919, "pitch": 80, "duration": 9, "velocity": 94}, {"time": 3931, "pitch": 79, "duration": 35, "velocity": 95}, {"time": 3973, "pitch": 79, "duration": 29, "velocity": 94}, {"time": 4003, "pitch": 79, "duration": 6, "velocity": 94}, {"time": 4009, "pitch": 77, "duration": 7, "velocity": 87}, {"time": 4015, "pitch": 75, "duration": 3, "velocity": 93}, {"time": 4021, "pitch": 77, "duration": 6, "velocity": 92}, {"time": 4027, "pitch": 79, "duration": 12, "velocity": 96}, {"time": 4039, "pitch": 72, "duration": 18, "velocity": 94}, {"time": 4063, "pitch": 72, "duration": 5, "velocity": 94}, {"time": 4069, "pitch": 74, "duration": 3, "velocity": 103}, {"time": 4075, "pitch": 74, "duration": 4, "velocity": 96}, {"time": 4081, "pitch": 74, "duration": 5, "velocity": 99}, {"time": 4087, "pitch": 75, "duration": 4, "velocity": 96}, {"time": 4093, "pitch": 74, "duration": 4, "velocity": 92}, {"time": 4099, "pitch": 72, "duration": 12, "velocity": 94}, {"time": 4111, "pitch": 70, "duration": 6, "velocity": 94}, {"time": 4117, "pitch": 72, "duration": 12, "velocity": 95}, {"time": 4129, "pitch": 72, "duration": 23, "velocity": 95}, {"time": 4158, "pitch": 72, "duration": 5, "velocity": 94}, {"time": 4165, "pitch": 74, "duration": 3, "velocity": 98}, {"time": 4171, "pitch": 74, "duration": 3, "velocity": 96}, {"time": 4177, "pitch": 74, "duration": 4, "velocity": 96}, {"time": 4183, "pitch": 75, "duration": 6, "velocity": 94}, {"time": 4190, "pitch": 74, "duration": 6, "velocity": 103}, {"time": 4199, "pitch": 72, "duration": 6, "velocity": 93}, {"time": 4208, "pitch": 70, "duration": 45, "velocity": 94}, {"time": 4273, "pitch": 72, "duration": 18, "velocity": 92}, {"time": 4311, "pitch": 72, "duration": 41, "velocity": 93}]}, {"program": 0, "is_drum": false, "name": "PIANO", "notes": [{"time": 85, "pitch": 36, "duration": 30, "velocity": 87}, {"time": 91, "pitch": 43, "duration": 23, "velocity": 75}, {"time": 97, "pitch": 48, "duration": 15, "velocity": 82}, {"time": 103, "pitch": 55, "duration": 22, "velocity": 83}, {"time": 133, "pitch": 44, "duration": 25, "velocity": 91}, {"time": 139, "pitch": 51, "duration": 19, "velocity": 75}, {"time": 145, "pitch": 56, "duration": 19, "velocity": 75}, {"time": 151, "pitch": 60, "duration": 13, "velocity": 83}, {"time": 181, "pitch": 46, "duration": 31, "velocity": 89}, {"time": 187, "pitch": 53, "duration": 19, "velocity": 84}, {"time": 193, "pitch": 58, "duration": 21, "velocity": 80}, {"time": 199, "pitch": 62, "duration": 20, "velocity": 87}, {"time": 229, "pitch": 39, "duration": 26, "velocity": 89}, {"time": 235, "pitch": 46, "duration": 20, "velocity": 78}, {"time": 241, "pitch": 51, "duration": 18, "velocity": 88}, {"time": 247, "pitch": 58, "duration": 12, "velocity": 86}, {"time": 259, "pitch": 55, "duration": 4, "velocity": 86}, {"time": 277, "pitch": 36, "duration": 36, "velocity": 86}, {"time": 277, "pitch": 55, "duration": 9, "velocity": 78}, {"time": 277, "pitch": 60, "duration": 11, "velocity": 74}, {"time": 283, "pitch": 43, "duration": 29, "velocity": 80}, {"time": 289, "pitch": 55, "duration": 4, "velocity": 80}, {"time": 295, "pitch": 55, "duration": 25, "velocity": 85}, {"time": 295, "pitch": 63, "duration": 15, "velocity": 89}, {"time": 325, "pitch": 44, "duration": 26, "velocity": 106}, {"time": 325, "pitch": 60, "duration": 13, "velocity": 91}, {"time": 331, "pitch": 51, "duration": 16, "velocity": 81}, {"time": 337, "pitch": 56, "duration": 4, "velocity": 87}, {"time": 343, "pitch": 56, "duration": 13, "velocity": 87}, {"time": 343, "pitch": 60, "duration": 14, "velocity": 90}, {"time": 355, "pitch": 51, "duration": 5, "velocity": 84}, {"time": 361, "pitch": 56, "duration": 7, "velocity": 89}, {"time": 373, "pitch": 46, "duration": 27, "velocity": 96}, {"time": 379, "pitch": 53, "duration": 16, "velocity": 90}, {"time": 385, "pitch": 58, "duration": 4, "velocity": 93}, {"time": 391, "pitch": 58, "duration": 15, "velocity": 86}, {"time": 391, "pitch": 62, "duration": 20, "velocity": 91}, {"time": 403, "pitch": 53, "duration": 8, "velocity": 85}, {"time": 409, "pitch": 58, "duration": 7, "velocity": 94}, {"time": 415, "pitch": 62, "duration": 15, "velocity": 91}, {"time": 421, "pitch": 43, "duration": 39, "velocity": 91}, {"time": 427, "pitch": 50, "duration": 27, "velocity": 80}, {"time": 433, "pitch": 55, "duration": 3, "velocity": 92}, {"time": 439, "pitch": 55, "duration": 8, "velocity": 90}, {"time": 439, "pitch": 59, "duration": 8, "velocity": 92}, {"time": 439, "pitch": 62, "duration": 8, "velocity": 90}, {"time": 451, "pitch": 55, "duration": 8, "velocity": 90}, {"time": 451, "pitch": 59, "duration": 10, "velocity": 96}, {"time": 451, "pitch": 62, "duration": 11, "velocity": 91}, {"time": 451, "pitch": 67, "duration": 9, "velocity": 77}, {"time": 457, "pitch": 50, "duration": 7, "velocity": 88}, {"time": 469, "pitch": 43, "duration": 46, "velocity": 90}, {"time": 469, "pitch": 55, "duration": 9, "velocity": 82}, {"time": 469, "pitch": 62, "duration": 26, "velocity": 85}, {"time": 475, "pitch": 50, "duration": 38, "velocity": 79}, {"time": 481, "pitch": 55, "duration": 13, "velocity": 78}, {"time": 487, "pitch": 67, "duration": 8, "velocity": 87}, {"time": 499, "pitch": 55, "duration": 4, "velocity": 75}, {"time": 499, "pitch": 62, "duration": 3, "velocity": 78}, {"time": 517, "pitch": 43, "duration": 45, "velocity": 88}, {"time": 517, "pitch": 55, "duration": 20, "velocity": 78}, {"time": 517, "pitch": 62, "duration": 18, "velocity": 78}, {"time": 541, "pitch": 55, "duration": 8, "velocity": 81}, {"time": 541, "pitch": 59, "duration": 9, "velocity": 76}, {"time": 541, "pitch": 62, "duration": 22, "velocity": 85}, {"time": 547, "pitch": 50, "duration": 19, "velocity": 88}, {"time": 553, "pitch": 55, "duration": 10, "velocity": 85}, {"time": 565, "pitch": 36, "duration": 33, "velocity": 90}, {"time": 571, "pitch": 43, "duration": 28, "velocity": 77}, {"time": 577, "pitch": 55, "duration": 4, "velocity": 95}, {"time": 583, "pitch": 55, "duration": 5, "velocity": 93}, {"time": 583, "pitch": 63, "duration": 7, "velocity": 91}, {"time": 595, "pitch": 55, "duration": 5, "velocity": 93}, {"time": 595, "pitch": 62, "duration": 7, "velocity": 90}, {"time": 607, "pitch": 60, "duration": 12, "velocity": 99}, {"time": 613, "pitch": 44, "duration": 32, "velocity": 102}, {"time": 619, "pitch": 51, "duration": 14, "velocity": 80}, {"time": 625, "pitch": 56, "duration": 3, "velocity": 90}, {"time": 631, "pitch": 56, "duration": 7, "velocity": 95}, {"time": 631, "pitch": 63, "duration": 5, "velocity": 89}, {"time": 637, "pitch": 51, "duration": 10, "velocity": 74}, {"time": 643, "pitch": 56, "duration": 7, "velocity": 88}, {"time": 643, "pitch": 62, "duration": 18, "velocity": 89}, {"time": 661, "pitch": 46, "duration": 37, "velocity": 99}, {"time": 661, "pitch": 58, "duration": 8, "velocity": 80}, {"time": 667, "pitch": 53, "duration": 21, "velocity": 81}, {"time": 673, "pitch": 58, "duration": 4, "velocity": 97}, {"time": 679, "pitch": 58, "duration": 14, "velocity": 90}, {"time": 679, "pitch": 62, "duration": 19, "velocity": 94}, {"time": 691, "pitch": 53, "duration": 6, "velocity": 89}, {"time": 697, "pitch": 58, "duration": 7, "velocity": 94}, {"time": 703, "pitch": 62, "duration": 16, "velocity": 87}, {"time": 709, "pitch": 39, "duration": 34, "velocity": 99}, {"time": 715, "pitch": 46, "duration": 29, "velocity": 76}, {"time": 721, "pitch": 58, "duration": 8, "velocity": 91}, {"time": 727, "pitch": 55, "duration": 9, "velocity": 88}, {"time": 739, "pitch": 58, "duration": 14, "velocity": 93}, {"time": 739, "pitch": 63, "duration": 17, "velocity": 95}, {"time": 751, "pitch": 55, "duration": 7, "velocity": 90}, {"time": 757, "pitch": 41, "duration": 44, "velocity": 93}, {"time": 763, "pitch": 48, "duration": 37, "velocity": 89}, {"time": 769, "pitch": 56, "duration": 5, "velocity": 91}, {"time": 775, "pitch": 60, "duration": 9, "velocity": 90}, {"time": 787, "pitch": 53, "duration": 11, "velocity": 89}, {"time": 787, "pitch": 65, "duration": 18, "velocity": 90}, {"time": 799, "pitch": 60, "duration": 8, "velocity": 88}, {"time": 805, "pitch": 48, "duration": 37, "velocity": 105}, {"time": 811, "pitch": 60, "duration": 7, "velocity": 89}, {"time": 817, "pitch": 55, "duration": 4, "velocity": 89}, {"time": 823, "pitch": 55, "duration": 8, "velocity": 86}, {"time": 823, "pitch": 63, "duration": 9, "velocity": 90}, {"time": 835, "pitch": 60, "duration": 7, "velocity": 99}, {"time": 841, "pitch": 55, "duration": 8, "velocity": 88}, {"time": 847, "pitch": 63, "duration": 10, "velocity": 83}, {"time": 853, "pitch": 44, "duration": 33, "velocity": 95}, {"time": 859, "pitch": 51, "duration": 27, "velocity": 82}, {"time": 865, "pitch": 56, "duration": 3, "velocity": 81}, {"time": 871, "pitch": 56, "duration": 9, "velocity": 90}, {"time": 871, "pitch": 63, "duration": 8, "velocity": 89}, {"time": 883, "pitch": 56, "duration": 4, "velocity": 83}, {"time": 883, "pitch": 60, "duration": 12, "velocity": 89}, {"time": 883, "pitch": 63, "duration": 13, "velocity": 90}, {"time": 895, "pitch": 56, "duration": 2, "velocity": 88}, {"time": 901, "pitch": 46, "duration": 47, "velocity": 90}, {"time": 901, "pitch": 53, "duration": 5, "velocity": 78}, {"time": 901, "pitch": 58, "duration": 8, "velocity": 84}, {"time": 901, "pitch": 62, "duration": 2, "velocity": 77}, {"time": 907, "pitch": 53, "duration": 9, "velocity": 73}, {"time": 913, "pitch": 58, "duration": 3, "velocity": 76}, {"time": 919, "pitch": 53, "duration": 9, "velocity": 84}, {"time": 919, "pitch": 62, "duration": 11, "velocity": 87}, {"time": 931, "pitch": 58, "duration": 7, "velocity": 102}, {"time": 937, "pitch": 53, "duration": 9, "velocity": 88}, {"time": 943, "pitch": 58, "duration": 6, "velocity": 89}, {"time": 949, "pitch": 48, "duration": 34, "velocity": 90}, {"time": 949, "pitch": 60, "duration": 8, "velocity": 87}, {"time": 949, "pitch": 67, "duration": 15, "velocity": 88}, {"time": 955, "pitch": 55, "duration": 26, "velocity": 82}, {"time": 961, "pitch": 60, "duration": 4, "velocity": 91}, {"time": 967, "pitch": 63, "duration": 8, "velocity": 104}, {"time": 979, "pitch": 60, "duration": 7, "velocity": 90}, {"time": 979, "pitch": 63, "duration": 13, "velocity": 106}, {"time": 979, "pitch": 67, "duration": 14, "velocity": 90}, {"time": 991, "pitch": 60, "duration": 5, "velocity": 90}, {"time": 997, "pitch": 44, "duration": 32, "velocity": 99}, {"time": 997, "pitch": 63, "duration": 13, "velocity": 91}, {"time": 997, "pitch": 67, "duration": 13, "velocity": 90}, {"time": 1003, "pitch": 51, "duration": 26, "velocity": 81}, {"time": 1009, "pitch": 60, "duration": 7, "velocity": 89}, {"time": 1015, "pitch": 63, "duration": 8, "velocity": 97}, {"time": 1027, "pitch": 60, "duration": 5, "velocity": 90}, {"time": 1027, "pitch": 63, "duration": 8, "velocity": 101}, {"time": 1027, "pitch": 67, "duration": 9, "velocity": 91}, {"time": 1045, "pitch": 46, "duration": 36, "velocity": 92}, {"time": 1045, "pitch": 58, "duration": 7, "velocity": 90}, {"time": 1045, "pitch": 62, "duration": 14, "velocity": 90}, {"time": 1051, "pitch": 53, "duration": 29, "velocity": 78}, {"time": 1057, "pitch": 58, "duration": 3, "velocity": 85}, {"time": 1063, "pitch": 58, "duration": 8, "velocity": 95}, {"time": 1063, "pitch": 65, "duration": 9, "velocity": 91}, {"time": 1075, "pitch": 58, "duration": 6, "velocity": 92}, {"time": 1075, "pitch": 62, "duration": 9, "velocity": 91}, {"time": 1093, "pitch": 39, "duration": 31, "velocity": 97}, {"time": 1093, "pitch": 63, "duration": 12, "velocity": 83}, {"time": 1099, "pitch": 46, "duration": 25, "velocity": 80}, {"time": 1105, "pitch": 55, "duration": 14, "velocity": 89}, {"time": 1111, "pitch": 58, "duration": 4, "velocity": 96}, {"time": 1123, "pitch": 55, "duration": 4, "velocity": 90}, {"time": 1123, "pitch": 58, "duration": 7, "velocity": 96}, {"time": 1123, "pitch": 63, "duration": 7, "velocity": 91}, {"time": 1141, "pitch": 41, "duration": 33, "velocity": 91}, {"time": 1141, "pitch": 53, "duration": 8, "velocity": 80}, {"time": 1141, "pitch": 60, "duration": 14, "velocity": 86}, {"time": 1147, "pitch": 48, "duration": 26, "velocity": 90}, {"time": 1153, "pitch": 53, "duration": 18, "velocity": 90}, {"time": 1159, "pitch": 60, "duration": 8, "velocity": 86}, {"time": 1165, "pitch": 65, "duration": 16, "velocity": 95}, {"time": 1171, "pitch": 60, "duration": 8, "velocity": 88}, {"time": 1177, "pitch": 53, "duration": 3, "velocity": 93}, {"time": 1189, "pitch": 48, "duration": 36, "velocity": 94}, {"time": 1189, "pitch": 60, "duration": 7, "velocity": 85}, {"time": 1189, "pitch": 63, "duration": 12, "velocity": 83}, {"time": 1195, "pitch": 55, "duration": 30, "velocity": 89}, {"time": 1201, "pitch": 60, "duration": 3, "velocity": 88}, {"time": 1207, "pitch": 60, "duration": 10, "velocity": 92}, {"time": 1207, "pitch": 63, "duration": 3, "velocity": 92}, {"time": 1207, "pitch": 67, "duration": 12, "velocity": 90}, {"time": 1219, "pitch": 63, "duration": 7, "velocity": 104}, {"time": 1225, "pitch": 60, "duration": 7, "velocity": 90}, {"time": 1237, "pitch": 44, "duration": 30, "velocity": 92}, {"time": 1237, "pitch": 63, "duration": 8, "velocity": 97}, {"time": 1243, "pitch": 51, "duration": 15, "velocity": 83}, {"time": 1249, "pitch": 56, "duration": 3, "velocity": 94}, {"time": 1255, "pitch": 56, "duration": 9, "velocity": 96}, {"time": 1255, "pitch": 63, "duration": 9, "velocity": 90}, {"time": 1267, "pitch": 56, "duration": 6, "velocity": 95}, {"time": 1267, "pitch": 63, "duration": 6, "velocity": 91}, {"time": 1285, "pitch": 43, "duration": 41, "velocity": 97}, {"time": 1291, "pitch": 50, "duration": 31, "velocity": 90}, {"time": 1297, "pitch": 55, "duration": 4, "velocity": 94}, {"time": 1303, "pitch": 55, "duration": 10, "velocity": 85}, {"time": 1303, "pitch": 62, "duration": 10, "velocity": 93}, {"time": 1315, "pitch": 55, "duration": 3, "velocity": 93}, {"time": 1315, "pitch": 62, "duration": 3, "velocity": 90}, {"time": 1315, "pitch": 67, "duration": 5, "velocity": 90}, {"time": 1333, "pitch": 43, "duration": 13, "velocity": 96}, {"time": 1333, "pitch": 67, "duration": 6, "velocity": 91}, {"time": 1333, "pitch": 71, "duration": 6, "velocity": 91}, {"time": 1333, "pitch": 74, "duration": 7, "velocity": 99}, {"time": 1339, "pitch": 50, "duration": 7, "velocity": 88}, {"time": 1345, "pitch": 67, "duration": 3, "velocity": 90}, {"time": 1351, "pitch": 43, "duration": 31, "velocity": 92}, {"time": 1351, "pitch": 67, "duration": 8, "velocity": 90}, {"time": 1351, "pitch": 71, "duration": 7, "velocity": 99}, {"time": 1351, "pitch": 74, "duration": 7, "velocity": 106}, {"time": 1351, "pitch": 79, "duration": 6, "velocity": 90}, {"time": 1363, "pitch": 67, "duration": 2, "velocity": 84}, {"time": 1363, "pitch": 74, "duration": 2, "velocity": 93}, {"time": 1369, "pitch": 67, "duration": 3, "velocity": 95}, {"time": 1369, "pitch": 74, "duration": 4, "velocity": 104}, {"time": 1375, "pitch": 67, "duration": 6, "velocity": 93}, {"time": 1381, "pitch": 36, "duration": 20, "velocity": 90}, {"time": 1381, "pitch": 60, "duration": 7, "velocity": 90}, {"time": 1381, "pitch": 67, "duration": 8, "velocity": 91}, {"time": 1387, "pitch": 43, "duration": 15, "velocity": 78}, {"time": 1393, "pitch": 60, "duration": 3, "velocity": 99}, {"time": 1399, "pitch": 60, "duration": 15, "velocity": 95}, {"time": 1399, "pitch": 63, "duration": 15, "velocity": 104}, {"time": 1411, "pitch": 48, "duration": 7, "velocity": 91}, {"time": 1417, "pitch": 60, "duration": 2, "velocity": 95}, {"time": 1417, "pitch": 63, "duration": 7, "velocity": 106}, {"time": 1417, "pitch": 67, "duration": 8, "velocity": 90}, {"time": 1423, "pitch": 60, "duration": 7, "velocity": 91}, {"time": 1429, "pitch": 44, "duration": 23, "velocity": 97}, {"time": 1429, "pitch": 63, "duration": 6, "velocity": 95}, {"time": 1435, "pitch": 51, "duration": 15, "velocity": 83}, {"time": 1441, "pitch": 56, "duration": 3, "velocity": 92}, {"time": 1447, "pitch": 56, "duration": 8, "velocity": 96}, {"time": 1447, "pitch": 63, "duration": 8, "velocity": 92}, {"time": 1453, "pitch": 51, "duration": 9, "velocity": 90}, {"time": 1459, "pitch": 56, "duration": 6, "velocity": 104}, {"time": 1465, "pitch": 63, "duration": 6, "velocity": 95}, {"time": 1471, "pitch": 56, "duration": 3, "velocity": 92}, {"time": 1477, "pitch": 46, "duration": 32, "velocity": 99}, {"time": 1477, "pitch": 53, "duration": 5, "velocity": 95}, {"time": 1477, "pitch": 58, "duration": 8, "velocity": 87}, {"time": 1483, "pitch": 53, "duration": 8, "velocity": 91}, {"time": 1489, "pitch": 65, "duration": 11, "velocity": 92}, {"time": 1495, "pitch": 53, "duration": 8, "velocity": 93}, {"time": 1501, "pitch": 58, "duration": 2, "velocity": 92}, {"time": 1507, "pitch": 53, "duration": 5, "velocity": 88}, {"time": 1507, "pitch": 58, "duration": 12, "velocity": 96}, {"time": 1507, "pitch": 62, "duration": 13, "velocity": 94}, {"time": 1513, "pitch": 46, "duration": 3, "velocity": 86}, {"time": 1519, "pitch": 53, "duration": 3, "velocity": 90}, {"time": 1525, "pitch": 39, "duration": 38, "velocity": 94}, {"time": 1525, "pitch": 55, "duration": 7, "velocity": 87}, {"time": 1525, "pitch": 58, "duration": 13, "velocity": 96}, {"time": 1531, "pitch": 46, "duration": 16, "velocity": 81}, {"time": 1537, "pitch": 55, "duration": 3, "velocity": 91}, {"time": 1543, "pitch": 55, "duration": 7, "velocity": 95}, {"time": 1543, "pitch": 58, "duration": 13, "velocity": 99}, {"time": 1543, "pitch": 63, "duration": 12, "velocity": 92}, {"time": 1549, "pitch": 46, "duration": 14, "velocity": 91}, {"time": 1555, "pitch": 55, "duration": 7, "velocity": 92}, {"time": 1561, "pitch": 58, "duration": 8, "velocity": 79}, {"time": 1561, "pitch": 62, "duration": 8, "velocity": 92}, {"time": 1567, "pitch": 55, "duration": 4, "velocity": 91}, {"time": 1573, "pitch": 48, "duration": 37, "velocity": 96}, {"time": 1573, "pitch": 63, "duration": 12, "velocity": 101}, {"time": 1579, "pitch": 55, "duration": 14, "velocity": 90}, {"time": 1585, "pitch": 60, "duration": 3, "velocity": 92}, {"time": 1591, "pitch": 60, "duration": 7, "velocity": 92}, {"time": 1591, "pitch": 63, "duration": 8, "velocity": 95}, {"time": 1591, "pitch": 67, "duration": 11, "velocity": 90}, {"time": 1597, "pitch": 55, "duration": 15, "velocity": 88}, {"time": 1603, "pitch": 60, "duration": 4, "velocity": 90}, {"time": 1609, "pitch": 65, "duration": 9, "velocity": 99}, {"time": 1615, "pitch": 60, "duration": 6, "velocity": 91}, {"time": 1621, "pitch": 44, "duration": 22, "velocity": 99}, {"time": 1621, "pitch": 63, "duration": 8, "velocity": 94}, {"time": 1627, "pitch": 51, "duration": 15, "velocity": 82}, {"time": 1633, "pitch": 56, "duration": 3, "velocity": 93}, {"time": 1639, "pitch": 56, "duration": 8, "velocity": 99}, {"time": 1639, "pitch": 63, "duration": 11, "velocity": 93}, {"time": 1645, "pitch": 51, "duration": 13, "velocity": 87}, {"time": 1651, "pitch": 56, "duration": 4, "velocity": 96}, {"time": 1657, "pitch": 63, "duration": 6, "velocity": 96}, {"time": 1663, "pitch": 56, "duration": 3, "velocity": 95}, {"time": 1669, "pitch": 46, "duration": 21, "velocity": 91}, {"time": 1669, "pitch": 62, "duration": 11, "velocity": 91}, {"time": 1675, "pitch": 53, "duration": 8, "velocity": 90}, {"time": 1681, "pitch": 58, "duration": 3, "velocity": 91}, {"time": 1687, "pitch": 53, "duration": 7, "velocity": 90}, {"time": 1687, "pitch": 58, "duration": 9, "velocity": 95}, {"time": 1687, "pitch": 62, "duration": 11, "velocity": 93}, {"time": 1693, "pitch": 46, "duration": 8, "velocity": 86}, {"time": 1699, "pitch": 53, "duration": 4, "velocity": 95}, {"time": 1705, "pitch": 58, "duration": 4, "velocity": 104}, {"time": 1717, "pitch": 48, "duration": 41, "velocity": 99}, {"time": 1717, "pitch": 55, "duration": 4, "velocity": 79}, {"time": 1717, "pitch": 60, "duration": 8, "velocity": 91}, {"time": 1723, "pitch": 55, "duration": 8, "velocity": 90}, {"time": 1729, "pitch": 60, "duration": 3, "velocity": 84}, {"time": 1735, "pitch": 55, "duration": 5, "velocity": 90}, {"time": 1735, "pitch": 60, "duration": 13, "velocity": 95}, {"time": 1735, "pitch": 63, "duration": 14, "velocity": 92}, {"time": 1747, "pitch": 55, "duration": 4, "velocity": 91}, {"time": 1753, "pitch": 60, "duration": 13, "velocity": 92}, {"time": 1753, "pitch": 63, "duration": 14, "velocity": 95}, {"time": 1759, "pitch": 55, "duration": 7, "velocity": 93}, {"time": 1765, "pitch": 36, "duration": 20, "velocity": 90}, {"time": 1765, "pitch": 60, "duration": 1, "velocity": 90}, {"time": 1765, "pitch": 67, "duration": 8, "velocity": 91}, {"time": 1771, "pitch": 43, "duration": 15, "velocity": 78}, {"time": 1777, "pitch": 60, "duration": 3, "velocity": 99}, {"time": 1783, "pitch": 60, "duration": 15, "velocity": 95}, {"time": 1783, "pitch": 63, "duration": 15, "velocity": 104}, {"time": 1795, "pitch": 48, "duration": 7, "velocity": 91}, {"time": 1801, "pitch": 60, "duration": 2, "velocity": 95}, {"time": 1801, "pitch": 63, "duration": 7, "velocity": 106}, {"time": 1801, "pitch": 67, "duration": 8, "velocity": 90}, {"time": 1807, "pitch": 60, "duration": 7, "velocity": 91}, {"time": 1813, "pitch": 44, "duration": 23, "velocity": 97}, {"time": 1813, "pitch": 63, "duration": 6, "velocity": 95}, {"time": 1819, "pitch": 51, "duration": 15, "velocity": 83}, {"time": 1825, "pitch": 56, "duration": 3, "velocity": 92}, {"time": 1831, "pitch": 56, "duration": 8, "velocity": 96}, {"time": 1831, "pitch": 63, "duration": 8, "velocity": 92}, {"time": 1837, "pitch": 51, "duration": 9, "velocity": 90}, {"time": 1843, "pitch": 56, "duration": 6, "velocity": 104}, {"time": 1849, "pitch": 63, "duration": 6, "velocity": 95}, {"time": 1855, "pitch": 56, "duration": 3, "velocity": 92}, {"time": 1861, "pitch": 46, "duration": 32, "velocity": 99}, {"time": 1861, "pitch": 53, "duration": 5, "velocity": 95}, {"time": 1861, "pitch": 58, "duration": 8, "velocity": 87}, {"time": 1867, "pitch": 53, "duration": 8, "velocity": 91}, {"time": 1873, "pitch": 65, "duration": 11, "velocity": 92}, {"time": 1879, "pitch": 53, "duration": 8, "velocity": 93}, {"time": 1885, "pitch": 58, "duration": 2, "velocity": 92}, {"time": 1891, "pitch": 53, "duration": 5, "velocity": 88}, {"time": 1891, "pitch": 58, "duration": 12, "velocity": 96}, {"time": 1891, "pitch": 62, "duration": 13, "velocity": 94}, {"time": 1897, "pitch": 46, "duration": 3, "velocity": 86}, {"time": 1903, "pitch": 53, "duration": 3, "velocity": 90}, {"time": 1909, "pitch": 39, "duration": 38, "velocity": 94}, {"time": 1909, "pitch": 55, "duration": 7, "velocity": 87}, {"time": 1909, "pitch": 58, "duration": 13, "velocity": 96}, {"time": 1915, "pitch": 46, "duration": 16, "velocity": 81}, {"time": 1921, "pitch": 55, "duration": 3, "velocity": 91}, {"time": 1927, "pitch": 55, "duration": 7, "velocity": 95}, {"time": 1927, "pitch": 58, "duration": 13, "velocity": 99}, {"time": 1927, "pitch": 63, "duration": 12, "velocity": 92}, {"time": 1933, "pitch": 46, "duration": 14, "velocity": 91}, {"time": 1939, "pitch": 55, "duration": 7, "velocity": 92}, {"time": 1945, "pitch": 58, "duration": 8, "velocity": 79}, {"time": 1945, "pitch": 62, "duration": 8, "velocity": 92}, {"time": 1951, "pitch": 55, "duration": 4, "velocity": 91}, {"time": 1957, "pitch": 48, "duration": 37, "velocity": 96}, {"time": 1957, "pitch": 63, "duration": 12, "velocity": 101}, {"time": 1963, "pitch": 55, "duration": 14, "velocity": 90}, {"time": 1969, "pitch": 60, "duration": 3, "velocity": 92}, {"time": 1975, "pitch": 60, "duration": 7, "velocity": 92}, {"time": 1975, "pitch": 63, "duration": 8, "velocity": 95}, {"time": 1975, "pitch": 67, "duration": 11, "velocity": 90}, {"time": 1981, "pitch": 55, "duration": 15, "velocity": 88}, {"time": 1987, "pitch": 60, "duration": 4, "velocity": 90}, {"time": 1993, "pitch": 65, "duration": 9, "velocity": 99}, {"time": 1999, "pitch": 60, "duration": 6, "velocity": 91}, {"time": 2005, "pitch": 44, "duration": 22, "velocity": 99}, {"time": 2005, "pitch": 63, "duration": 8, "velocity": 94}, {"time": 2011, "pitch": 51, "duration": 15, "velocity": 82}, {"time": 2017, "pitch": 56, "duration": 3, "velocity": 93}, {"time": 2023, "pitch": 56, "duration": 8, "velocity": 99}, {"time": 2023, "pitch": 63, "duration": 11, "velocity": 93}, {"time": 2029, "pitch": 51, "duration": 13, "velocity": 87}, {"time": 2035, "pitch": 56, "duration": 4, "velocity": 96}, {"time": 2041, "pitch": 63, "duration": 6, "velocity": 96}, {"time": 2047, "pitch": 56, "duration": 3, "velocity": 95}, {"time": 2053, "pitch": 46, "duration": 21, "velocity": 91}, {"time": 2053, "pitch": 62, "duration": 11, "velocity": 91}, {"time": 2059, "pitch": 53, "duration": 8, "velocity": 90}, {"time": 2065, "pitch": 58, "duration": 3, "velocity": 91}, {"time": 2071, "pitch": 53, "duration": 7, "velocity": 90}, {"time": 2071, "pitch": 58, "duration": 9, "velocity": 95}, {"time": 2071, "pitch": 62, "duration": 11, "velocity": 93}, {"time": 2077, "pitch": 46, "duration": 8, "velocity": 86}, {"time": 2083, "pitch": 53, "duration": 4, "velocity": 95}, {"time": 2089, "pitch": 58, "duration": 4, "velocity": 104}, {"time": 2101, "pitch": 48, "duration": 41, "velocity": 99}, {"time": 2101, "pitch": 55, "duration": 4, "velocity": 79}, {"time": 2101, "pitch": 60, "duration": 8, "velocity": 91}, {"time": 2107, "pitch": 55, "duration": 8, "velocity": 90}, {"time": 2113, "pitch": 60, "duration": 3, "velocity": 84}, {"time": 2119, "pitch": 55, "duration": 5, "velocity": 90}, {"time": 2119, "pitch": 60, "duration": 13, "velocity": 95}, {"time": 2119, "pitch": 63, "duration": 14, "velocity": 92}, {"time": 2131, "pitch": 55, "duration": 4, "velocity": 91}, {"time": 2137, "pitch": 60, "duration": 13, "velocity": 92}, {"time": 2137, "pitch": 63, "duration": 14, "velocity": 95}, {"time": 2143, "pitch": 55, "duration": 7, "velocity": 93}, {"time": 2149, "pitch": 48, "duration": 26, "velocity": 87}, {"time": 2149, "pitch": 55, "duration": 1, "velocity": 85}, {"time": 2149, "pitch": 60, "duration": 1, "velocity": 85}, {"time": 2197, "pitch": 44, "duration": 29, "velocity": 87}, {"time": 2197, "pitch": 63, "duration": 14, "velocity": 79}, {"time": 2203, "pitch": 51, "duration": 23, "velocity": 78}, {"time": 2209, "pitch": 56, "duration": 17, "velocity": 74}, {"time": 2215, "pitch": 63, "duration": 12, "velocity": 78}, {"time": 2245, "pitch": 46, "duration": 37, "velocity": 86}, {"time": 2245, "pitch": 62, "duration": 19, "velocity": 86}, {"time": 2251, "pitch": 53, "duration": 29, "velocity": 69}, {"time": 2257, "pitch": 58, "duration": 8, "velocity": 85}, {"time": 2263, "pitch": 65, "duration": 13, "velocity": 88}, {"time": 2275, "pitch": 62, "duration": 7, "velocity": 88}, {"time": 2281, "pitch": 58, "duration": 4, "velocity": 83}, {"time": 2293, "pitch": 39, "duration": 27, "velocity": 86}, {"time": 2293, "pitch": 58, "duration": 12, "velocity": 87}, {"time": 2299, "pitch": 46, "duration": 21, "velocity": 76}, {"time": 2305, "pitch": 55, "duration": 8, "velocity": 87}, {"time": 2311, "pitch": 58, "duration": 3, "velocity": 89}, {"time": 2317, "pitch": 55, "duration": 8, "velocity": 88}, {"time": 2317, "pitch": 58, "duration": 9, "velocity": 97}, {"time": 2317, "pitch": 63, "duration": 7, "velocity": 100}, {"time": 2323, "pitch": 46, "duration": 4, "velocity": 90}, {"time": 2329, "pitch": 55, "duration": 6, "velocity": 82}, {"time": 2329, "pitch": 62, "duration": 7, "velocity": 89}, {"time": 2341, "pitch": 41, "duration": 35, "velocity": 89}, {"time": 2341, "pitch": 53, "duration": 6, "velocity": 84}, {"time": 2341, "pitch": 56, "duration": 12, "velocity": 86}, {"time": 2347, "pitch": 48, "duration": 14, "velocity": 78}, {"time": 2353, "pitch": 53, "duration": 4, "velocity": 86}, {"time": 2359, "pitch": 53, "duration": 10, "velocity": 93}, {"time": 2359, "pitch": 60, "duration": 9, "velocity": 89}, {"time": 2365, "pitch": 48, "duration": 8, "velocity": 86}, {"time": 2371, "pitch": 56, "duration": 7, "velocity": 88}, {"time": 2371, "pitch": 60, "duration": 8, "velocity": 90}, {"time": 2371, "pitch": 65, "duration": 10, "velocity": 87}, {"time": 2377, "pitch": 53, "duration": 3, "velocity": 87}, {"time": 2389, "pitch": 48, "duration": 26, "velocity": 88}, {"time": 2389, "pitch": 55, "duration": 3, "velocity": 86}, {"time": 2389, "pitch": 63, "duration": 11, "velocity": 89}, {"time": 2395, "pitch": 55, "duration": 7, "velocity": 86}, {"time": 2401, "pitch": 60, "duration": 7, "velocity": 86}, {"time": 2407, "pitch": 55, "duration": 3, "velocity": 82}, {"time": 2413, "pitch": 55, "duration": 5, "velocity": 92}, {"time": 2413, "pitch": 62, "duration": 7, "velocity": 92}, {"time": 2419, "pitch": 48, "duration": 4, "velocity": 87}, {"time": 2425, "pitch": 63, "duration": 9, "velocity": 103}, {"time": 2431, "pitch": 55, "duration": 3, "velocity": 85}, {"time": 2437, "pitch": 38, "duration": 28, "velocity": 92}, {"time": 2443, "pitch": 62, "duration": 11, "velocity": 91}, {"time": 2449, "pitch": 65, "duration": 7, "velocity": 87}, {"time": 2455, "pitch": 68, "duration": 3, "velocity": 100}, {"time": 2461, "pitch": 62, "duration": 5, "velocity": 86}, {"time": 2461, "pitch": 68, "duration": 6, "velocity": 80}, {"time": 2461, "pitch": 72, "duration": 9, "velocity": 59}, {"time": 2467, "pitch": 38, "duration": 3, "velocity": 91}, {"time": 2473, "pitch": 62, "duration": 3, "velocity": 88}, {"time": 2473, "pitch": 68, "duration": 11, "velocity": 88}, {"time": 2479, "pitch": 62, "duration": 7, "velocity": 87}, {"time": 2485, "pitch": 43, "duration": 40, "velocity": 91}, {"time": 2491, "pitch": 50, "duration": 32, "velocity": 81}, {"time": 2497, "pitch": 55, "duration": 8, "velocity": 92}, {"time": 2503, "pitch": 62, "duration": 13, "velocity": 88}, {"time": 2515, "pitch": 67, "duration": 9, "velocity": 88}, {"time": 2521, "pitch": 55, "duration": 4, "velocity": 93}, {"time": 2533, "pitch": 43, "duration": 47, "velocity": 86}, {"time": 2533, "pitch": 55, "duration": 47, "velocity": 76}, {"time": 2533, "pitch": 59, "duration": 47, "velocity": 76}, {"time": 2533, "pitch": 62, "duration": 47, "velocity": 81}, {"time": 2581, "pitch": 48, "duration": 34, "velocity": 90}, {"time": 2581, "pitch": 60, "duration": 8, "velocity": 87}, {"time": 2581, "pitch": 67, "duration": 15, "velocity": 88}, {"time": 2587, "pitch": 55, "duration": 26, "velocity": 82}, {"time": 2593, "pitch": 60, "duration": 4, "velocity": 91}, {"time": 2599, "pitch": 63, "duration": 8, "velocity": 104}, {"time": 2611, "pitch": 60, "duration": 7, "velocity": 90}, {"time": 2611, "pitch": 63, "duration": 13, "velocity": 106}, {"time": 2611, "pitch": 67, "duration": 14, "velocity": 90}, {"time": 2623, "pitch": 60, "duration": 5, "velocity": 90}, {"time": 2629, "pitch": 44, "duration": 32, "velocity": 99}, {"time": 2629, "pitch": 63, "duration": 13, "velocity": 91}, {"time": 2629, "pitch": 67, "duration": 13, "velocity": 90}, {"time": 2635, "pitch": 51, "duration": 26, "velocity": 81}, {"time": 2641, "pitch": 60, "duration": 7, "velocity": 89}, {"time": 2647, "pitch": 63, "duration": 8, "velocity": 97}, {"time": 2659, "pitch": 60, "duration": 5, "velocity": 90}, {"time": 2659, "pitch": 63, "duration": 8, "velocity": 101}, {"time": 2659, "pitch": 67, "duration": 9, "velocity": 91}, {"time": 2677, "pitch": 46, "duration": 36, "velocity": 92}, {"time": 2677, "pitch": 58, "duration": 7, "velocity": 90}, {"time": 2677, "pitch": 62, "duration": 14, "velocity": 90}, {"time": 2683, "pitch": 53, "duration": 29, "velocity": 78}, {"time": 2689, "pitch": 58, "duration": 3, "velocity": 85}, {"time": 2695, "pitch": 58, "duration": 8, "velocity": 95}, {"time": 2695, "pitch": 65, "duration": 9, "velocity": 91}, {"time": 2707, "pitch": 58, "duration": 6, "velocity": 92}, {"time": 2707, "pitch": 62, "duration": 9, "velocity": 91}, {"time": 2725, "pitch": 39, "duration": 31, "velocity": 97}, {"time": 2725, "pitch": 63, "duration": 12, "velocity": 83}, {"time": 2731, "pitch": 46, "duration": 25, "velocity": 80}, {"time": 2737, "pitch": 55, "duration": 14, "velocity": 89}, {"time": 2743, "pitch": 58, "duration": 4, "velocity": 96}, {"time": 2755, "pitch": 55, "duration": 4, "velocity": 90}, {"time": 2755, "pitch": 58, "duration": 7, "velocity": 96}, {"time": 2755, "pitch": 63, "duration": 7, "velocity": 91}, {"time": 2773, "pitch": 41, "duration": 33, "velocity": 91}, {"time": 2773, "pitch": 53, "duration": 8, "velocity": 80}, {"time": 2773, "pitch": 60, "duration": 14, "velocity": 86}, {"time": 2779, "pitch": 48, "duration": 26, "velocity": 90}, {"time": 2785, "pitch": 53, "duration": 18, "velocity": 90}, {"time": 2791, "pitch": 60, "duration": 8, "velocity": 86}, {"time": 2797, "pitch": 65, "duration": 16, "velocity": 95}, {"time": 2803, "pitch": 60, "duration": 8, "velocity": 88}, {"time": 2809, "pitch": 53, "duration": 3, "velocity": 93}, {"time": 2821, "pitch": 48, "duration": 36, "velocity": 94}, {"time": 2821, "pitch": 60, "duration": 7, "velocity": 85}, {"time": 2821, "pitch": 63, "duration": 12, "velocity": 83}, {"time": 2827, "pitch": 55, "duration": 30, "velocity": 89}, {"time": 2833, "pitch": 60, "duration": 3, "velocity": 88}, {"time": 2839, "pitch": 60, "duration": 10, "velocity": 92}, {"time": 2839, "pitch": 63, "duration": 3, "velocity": 92}, {"time": 2839, "pitch": 67, "duration": 12, "velocity": 90}, {"time": 2851, "pitch": 63, "duration": 7, "velocity": 104}, {"time": 2857, "pitch": 60, "duration": 7, "velocity": 90}, {"time": 2869, "pitch": 44, "duration": 30, "velocity": 92}, {"time": 2869, "pitch": 63, "duration": 8, "velocity": 97}, {"time": 2875, "pitch": 51, "duration": 15, "velocity": 83}, {"time": 2881, "pitch": 56, "duration": 3, "velocity": 94}, {"time": 2887, "pitch": 56, "duration": 9, "velocity": 96}, {"time": 2887, "pitch": 63, "duration": 9, "velocity": 90}, {"time": 2899, "pitch": 56, "duration": 6, "velocity": 95}, {"time": 2899, "pitch": 63, "duration": 6, "velocity": 91}, {"time": 2917, "pitch": 43, "duration": 41, "velocity": 97}, {"time": 2923, "pitch": 50, "duration": 31, "velocity": 90}, {"time": 2929, "pitch": 55, "duration": 4, "velocity": 94}, {"time": 2935, "pitch": 55, "duration": 10, "velocity": 85}, {"time": 2935, "pitch": 62, "duration": 10, "velocity": 93}, {"time": 2947, "pitch": 55, "duration": 3, "velocity": 93}, {"time": 2947, "pitch": 62, "duration": 3, "velocity": 90}, {"time": 2947, "pitch": 67, "duration": 5, "velocity": 90}, {"time": 2965, "pitch": 43, "duration": 13, "velocity": 96}, {"time": 2965, "pitch": 67, "duration": 6, "velocity": 91}, {"time": 2965, "pitch": 71, "duration": 6, "velocity": 91}, {"time": 2965, "pitch": 74, "duration": 7, "velocity": 99}, {"time": 2971, "pitch": 50, "duration": 7, "velocity": 88}, {"time": 2977, "pitch": 67, "duration": 3, "velocity": 90}, {"time": 2983, "pitch": 43, "duration": 31, "velocity": 92}, {"time": 2983, "pitch": 67, "duration": 8, "velocity": 90}, {"time": 2983, "pitch": 71, "duration": 7, "velocity": 99}, {"time": 2983, "pitch": 74, "duration": 7, "velocity": 106}, {"time": 2983, "pitch": 79, "duration": 6, "velocity": 90}, {"time": 2995, "pitch": 67, "duration": 2, "velocity": 84}, {"time": 2995, "pitch": 74, "duration": 2, "velocity": 93}, {"time": 3001, "pitch": 67, "duration": 3, "velocity": 95}, {"time": 3001, "pitch": 74, "duration": 4, "velocity": 104}, {"time": 3007, "pitch": 67, "duration": 6, "velocity": 93}, {"time": 3013, "pitch": 36, "duration": 20, "velocity": 90}, {"time": 3013, "pitch": 60, "duration": 7, "velocity": 90}, {"time": 3013, "pitch": 67, "duration": 8, "velocity": 91}, {"time": 3019, "pitch": 43, "duration": 15, "velocity": 78}, {"time": 3025, "pitch": 60, "duration": 3, "velocity": 99}, {"time": 3031, "pitch": 60, "duration": 15, "velocity": 95}, {"time": 3031, "pitch": 63, "duration": 15, "velocity": 104}, {"time": 3043, "pitch": 48, "duration": 7, "velocity": 91}, {"time": 3049, "pitch": 60, "duration": 2, "velocity": 95}, {"time": 3049, "pitch": 63, "duration": 7, "velocity": 106}, {"time": 3049, "pitch": 67, "duration": 8, "velocity": 90}, {"time": 3055, "pitch": 60, "duration": 7, "velocity": 91}, {"time": 3061, "pitch": 44, "duration": 23, "velocity": 97}, {"time": 3061, "pitch": 63, "duration": 6, "velocity": 95}, {"time": 3067, "pitch": 51, "duration": 15, "velocity": 83}, {"time": 3073, "pitch": 56, "duration": 3, "velocity": 92}, {"time": 3079, "pitch": 56, "duration": 8, "velocity": 96}, {"time": 3079, "pitch": 63, "duration": 8, "velocity": 92}, {"time": 3085, "pitch": 51, "duration": 9, "velocity": 90}, {"time": 3091, "pitch": 56, "duration": 6, "velocity": 104}, {"time": 3097, "pitch": 63, "duration": 6, "velocity": 95}, {"time": 3103, "pitch": 56, "duration": 3, "velocity": 92}, {"time": 3109, "pitch": 46, "duration": 32, "velocity": 99}, {"time": 3109, "pitch": 53, "duration": 5, "velocity": 95}, {"time": 3109, "pitch": 58, "duration": 8, "velocity": 87}, {"time": 3115, "pitch": 53, "duration": 8, "velocity": 91}, {"time": 3121, "pitch": 65, "duration": 11, "velocity": 92}, {"time": 3127, "pitch": 53, "duration": 8, "velocity": 93}, {"time": 3133, "pitch": 58, "duration": 2, "velocity": 92}, {"time": 3139, "pitch": 53, "duration": 5, "velocity": 88}, {"time": 3139, "pitch": 58, "duration": 12, "velocity": 96}, {"time": 3139, "pitch": 62, "duration": 13, "velocity": 94}, {"time": 3145, "pitch": 46, "duration": 3, "velocity": 86}, {"time": 3151, "pitch": 53, "duration": 3, "velocity": 90}, {"time": 3157, "pitch": 39, "duration": 38, "velocity": 94}, {"time": 3157, "pitch": 55, "duration": 7, "velocity": 87}, {"time": 3157, "pitch": 58, "duration": 13, "velocity": 96}, {"time": 3163, "pitch": 46, "duration": 16, "velocity": 81}, {"time": 3169, "pitch": 55, "duration": 3, "velocity": 91}, {"time": 3175, "pitch": 55, "duration": 7, "velocity": 95}, {"time": 3175, "pitch": 58, "duration": 13, "velocity": 99}, {"time": 3175, "pitch": 63, "duration": 12, "velocity": 92}, {"time": 3181, "pitch": 46, "duration": 14, "velocity": 91}, {"time": 3187, "pitch": 55, "duration": 7, "velocity": 92}, {"time": 3193, "pitch": 58, "duration": 8, "velocity": 79}, {"time": 3193, "pitch": 62, "duration": 8, "velocity": 92}, {"time": 3199, "pitch": 55, "duration": 4, "velocity": 91}, {"time": 3205, "pitch": 48, "duration": 37, "velocity": 96}, {"time": 3205, "pitch": 63, "duration": 12, "velocity": 101}, {"time": 3211, "pitch": 55, "duration": 14, "velocity": 90}, {"time": 3217, "pitch": 60, "duration": 3, "velocity": 92}, {"time": 3223, "pitch": 60, "duration": 7, "velocity": 92}, {"time": 3223, "pitch": 63, "duration": 8, "velocity": 95}, {"time": 3223, "pitch": 67, "duration": 11, "velocity": 90}, {"time": 3229, "pitch": 55, "duration": 15, "velocity": 88}, {"time": 3235, "pitch": 60, "duration": 4, "velocity": 90}, {"time": 3241, "pitch": 65, "duration": 9, "velocity": 99}, {"time": 3247, "pitch": 60, "duration": 6, "velocity": 91}, {"time": 3253, "pitch": 44, "duration": 22, "velocity": 99}, {"time": 3253, "pitch": 63, "duration": 8, "velocity": 94}, {"time": 3259, "pitch": 51, "duration": 15, "velocity": 82}, {"time": 3265, "pitch": 56, "duration": 3, "velocity": 93}, {"time": 3271, "pitch": 56, "duration": 8, "velocity": 99}, {"time": 3271, "pitch": 63, "duration": 11, "velocity": 93}, {"time": 3277, "pitch": 51, "duration": 13, "velocity": 87}, {"time": 3283, "pitch": 56, "duration": 4, "velocity": 96}, {"time": 3289, "pitch": 63, "duration": 6, "velocity": 96}, {"time": 3295, "pitch": 56, "duration": 3, "velocity": 95}, {"time": 3301, "pitch": 46, "duration": 21, "velocity": 91}, {"time": 3301, "pitch": 62, "duration": 11, "velocity": 91}, {"time": 3307, "pitch": 53, "duration": 8, "velocity": 90}, {"time": 3313, "pitch": 58, "duration": 3, "velocity": 91}, {"time": 3319, "pitch": 53, "duration": 7, "velocity": 90}, {"time": 3319, "pitch": 58, "duration": 9, "velocity": 95}, {"time": 3319, "pitch": 62, "duration": 11, "velocity": 93}, {"time": 3325, "pitch": 46, "duration": 8, "velocity": 86}, {"time": 3331, "pitch": 53, "duration": 4, "velocity": 95}, {"time": 3337, "pitch": 58, "duration": 4, "velocity": 104}, {"time": 3349, "pitch": 48, "duration": 41, "velocity": 99}, {"time": 3349, "pitch": 55, "duration": 4, "velocity": 79}, {"time": 3349, "pitch": 60, "duration": 8, "velocity": 91}, {"time": 3355, "pitch": 55, "duration": 8, "velocity": 90}, {"time": 3361, "pitch": 60, "duration": 3, "velocity": 84}, {"time": 3367, "pitch": 55, "duration": 5, "velocity": 90}, {"time": 3367, "pitch": 60, "duration": 13, "velocity": 95}, {"time": 3367, "pitch": 63, "duration": 14, "velocity": 92}, {"time": 3379, "pitch": 55, "duration": 4, "velocity": 91}, {"time": 3385, "pitch": 60, "duration": 13, "velocity": 92}, {"time": 3385, "pitch": 63, "duration": 14, "velocity": 95}, {"time": 3391, "pitch": 55, "duration": 7, "velocity": 93}, {"time": 3397, "pitch": 36, "duration": 20, "velocity": 90}, {"time": 3397, "pitch": 60, "duration": 1, "velocity": 90}, {"time": 3397, "pitch": 67, "duration": 8, "velocity": 91}, {"time": 3403, "pitch": 43, "duration": 15, "velocity": 78}, {"time": 3409, "pitch": 60, "duration": 3, "velocity": 99}, {"time": 3415, "pitch": 60, "duration": 15, "velocity": 95}, {"time": 3415, "pitch": 63, "duration": 15, "velocity": 104}, {"time": 3427, "pitch": 48, "duration": 7, "velocity": 91}, {"time": 3433, "pitch": 60, "duration": 2, "velocity": 95}, {"time": 3433, "pitch": 63, "duration": 7, "velocity": 106}, {"time": 3433, "pitch": 67, "duration": 8, "velocity": 90}, {"time": 3439, "pitch": 60, "duration": 7, "velocity": 91}, {"time": 3445, "pitch": 44, "duration": 23, "velocity": 97}, {"time": 3445, "pitch": 63, "duration": 6, "velocity": 95}, {"time": 3451, "pitch": 51, "duration": 15, "velocity": 83}, {"time": 3457, "pitch": 56, "duration": 3, "velocity": 92}, {"time": 3463, "pitch": 56, "duration": 8, "velocity": 96}, {"time": 3463, "pitch": 63, "duration": 8, "velocity": 92}, {"time": 3469, "pitch": 51, "duration": 9, "velocity": 90}, {"time": 3475, "pitch": 56, "duration": 6, "velocity": 104}, {"time": 3481, "pitch": 63, "duration": 6, "velocity": 95}, {"time": 3487, "pitch": 56, "duration": 3, "velocity": 92}, {"time": 3493, "pitch": 46, "duration": 32, "velocity": 99}, {"time": 3493, "pitch": 53, "duration": 5, "velocity": 95}, {"time": 3493, "pitch": 58, "duration": 8, "velocity": 87}, {"time": 3499, "pitch": 53, "duration": 8, "velocity": 91}, {"time": 3505, "pitch": 65, "duration": 11, "velocity": 92}, {"time": 3511, "pitch": 53, "duration": 8, "velocity": 93}, {"time": 3517, "pitch": 58, "duration": 2, "velocity": 92}, {"time": 3523, "pitch": 53, "duration": 5, "velocity": 88}, {"time": 3523, "pitch": 58, "duration": 12, "velocity": 96}, {"time": 3523, "pitch": 62, "duration": 13, "velocity": 94}, {"time": 3529, "pitch": 46, "duration": 3, "velocity": 86}, {"time": 3535, "pitch": 53, "duration": 3, "velocity": 90}, {"time": 3541, "pitch": 39, "duration": 38, "velocity": 94}, {"time": 3541, "pitch": 55, "duration": 7, "velocity": 87}, {"time": 3541, "pitch": 58, "duration": 13, "velocity": 96}, {"time": 3547, "pitch": 46, "duration": 16, "velocity": 81}, {"time": 3553, "pitch": 55, "duration": 3, "velocity": 91}, {"time": 3559, "pitch": 55, "duration": 7, "velocity": 95}, {"time": 3559, "pitch": 58, "duration": 13, "velocity": 99}, {"time": 3559, "pitch": 63, "duration": 12, "velocity": 92}, {"time": 3565, "pitch": 46, "duration": 14, "velocity": 91}, {"time": 3571, "pitch": 55, "duration": 7, "velocity": 92}, {"time": 3577, "pitch": 58, "duration": 8, "velocity": 79}, {"time": 3577, "pitch": 62, "duration": 8, "velocity": 92}, {"time": 3583, "pitch": 55, "duration": 4, "velocity": 91}, {"time": 3589, "pitch": 48, "duration": 37, "velocity": 96}, {"time": 3589, "pitch": 63, "duration": 12, "velocity": 101}, {"time": 3595, "pitch": 55, "duration": 14, "velocity": 90}, {"time": 3601, "pitch": 60, "duration": 3, "velocity": 92}, {"time": 3607, "pitch": 60, "duration": 7, "velocity": 92}, {"time": 3607, "pitch": 63, "duration": 8, "velocity": 95}, {"time": 3607, "pitch": 67, "duration": 11, "velocity": 90}, {"time": 3613, "pitch": 55, "duration": 15, "velocity": 88}, {"time": 3619, "pitch": 60, "duration": 4, "velocity": 90}, {"time": 3625, "pitch": 65, "duration": 9, "velocity": 99}, {"time": 3631, "pitch": 60, "duration": 6, "velocity": 91}, {"time": 3637, "pitch": 44, "duration": 22, "velocity": 99}, {"time": 3637, "pitch": 63, "duration": 8, "velocity": 94}, {"time": 3643, "pitch": 51, "duration": 15, "velocity": 82}, {"time": 3649, "pitch": 56, "duration": 3, "velocity": 93}, {"time": 3655, "pitch": 56, "duration": 8, "velocity": 99}, {"time": 3655, "pitch": 63, "duration": 11, "velocity": 93}, {"time": 3661, "pitch": 51, "duration": 13, "velocity": 87}, {"time": 3667, "pitch": 56, "duration": 4, "velocity": 96}, {"time": 3673, "pitch": 63, "duration": 6, "velocity": 96}, {"time": 3679, "pitch": 56, "duration": 3, "velocity": 95}, {"time": 3685, "pitch": 46, "duration": 21, "velocity": 91}, {"time": 3685, "pitch": 62, "duration": 11, "velocity": 91}, {"time": 3691, "pitch": 53, "duration": 8, "velocity": 90}, {"time": 3697, "pitch": 58, "duration": 3, "velocity": 91}, {"time": 3703, "pitch": 53, "duration": 7, "velocity": 90}, {"time": 3703, "pitch": 58, "duration": 9, "velocity": 95}, {"time": 3703, "pitch": 62, "duration": 11, "velocity": 93}, {"time": 3709, "pitch": 46, "duration": 8, "velocity": 86}, {"time": 3715, "pitch": 53, "duration": 4, "velocity": 95}, {"time": 3721, "pitch": 58, "duration": 4, "velocity": 104}, {"time": 3733, "pitch": 48, "duration": 41, "velocity": 99}, {"time": 3733, "pitch": 55, "duration": 4, "velocity": 79}, {"time": 3733, "pitch": 60, "duration": 8, "velocity": 91}, {"time": 3739, "pitch": 55, "duration": 8, "velocity": 90}, {"time": 3745, "pitch": 60, "duration": 3, "velocity": 84}, {"time": 3751, "pitch": 55, "duration": 5, "velocity": 90}, {"time": 3751, "pitch": 60, "duration": 13, "velocity": 95}, {"time": 3751, "pitch": 63, "duration": 14, "velocity": 92}, {"time": 3763, "pitch": 55, "duration": 4, "velocity": 91}, {"time": 3769, "pitch": 60, "duration": 13, "velocity": 92}, {"time": 3769, "pitch": 63, "duration": 14, "velocity": 95}, {"time": 3775, "pitch": 55, "duration": 7, "velocity": 93}, {"time": 3781, "pitch": 36, "duration": 34, "velocity": 90}, {"time": 3781, "pitch": 63, "duration": 2, "velocity": 99}, {"time": 3787, "pitch": 43, "duration": 25, "velocity": 85}, {"time": 3793, "pitch": 55, "duration": 5, "velocity": 95}, {"time": 3799, "pitch": 62, "duration": 7, "velocity": 90}, {"time": 3811, "pitch": 63, "duration": 12, "velocity": 104}, {"time": 3817, "pitch": 43, "duration": 3, "velocity": 95}, {"time": 3823, "pitch": 55, "duration": 5, "velocity": 96}, {"time": 3829, "pitch": 44, "duration": 33, "velocity": 101}, {"time": 3829, "pitch": 60, "duration": 12, "velocity": 91}, {"time": 3835, "pitch": 51, "duration": 27, "velocity": 87}, {"time": 3841, "pitch": 56, "duration": 3, "velocity": 90}, {"time": 3847, "pitch": 63, "duration": 3, "velocity": 101}, {"time": 3859, "pitch": 56, "duration": 8, "velocity": 94}, {"time": 3865, "pitch": 51, "duration": 3, "velocity": 95}, {"time": 3871, "pitch": 56, "duration": 3, "velocity": 93}, {"time": 3877, "pitch": 46, "duration": 32, "velocity": 95}, {"time": 3877, "pitch": 58, "duration": 6, "velocity": 87}, {"time": 3883, "pitch": 53, "duration": 15, "velocity": 92}, {"time": 3889, "pitch": 58, "duration": 3, "velocity": 95}, {"time": 3895, "pitch": 58, "duration": 14, "velocity": 91}, {"time": 3895, "pitch": 62, "duration": 18, "velocity": 92}, {"time": 3907, "pitch": 53, "duration": 7, "velocity": 87}, {"time": 3913, "pitch": 46, "duration": 3, "velocity": 101}, {"time": 3925, "pitch": 39, "duration": 32, "velocity": 96}, {"time": 3925, "pitch": 55, "duration": 7, "velocity": 86}, {"time": 3925, "pitch": 58, "duration": 13, "velocity": 80}, {"time": 3931, "pitch": 46, "duration": 22, "velocity": 78}, {"time": 3937, "pitch": 55, "duration": 8, "velocity": 90}, {"time": 3943, "pitch": 58, "duration": 3, "velocity": 95}, {"time": 3949, "pitch": 58, "duration": 8, "velocity": 90}, {"time": 3949, "pitch": 63, "duration": 7, "velocity": 99}, {"time": 3955, "pitch": 55, "duration": 4, "velocity": 93}, {"time": 3961, "pitch": 62, "duration": 7, "velocity": 106}, {"time": 3967, "pitch": 55, "duration": 4, "velocity": 91}, {"time": 3973, "pitch": 48, "duration": 34, "velocity": 94}, {"time": 3973, "pitch": 55, "duration": 4, "velocity": 85}, {"time": 3973, "pitch": 63, "duration": 9, "velocity": 97}, {"time": 3979, "pitch": 55, "duration": 8, "velocity": 83}, {"time": 3985, "pitch": 60, "duration": 5, "velocity": 86}, {"time": 3991, "pitch": 62, "duration": 4, "velocity": 94}, {"time": 4003, "pitch": 63, "duration": 3, "velocity": 99}, {"time": 4015, "pitch": 55, "duration": 5, "velocity": 91}, {"time": 4021, "pitch": 44, "duration": 34, "velocity": 96}, {"time": 4021, "pitch": 63, "duration": 7, "velocity": 93}, {"time": 4027, "pitch": 51, "duration": 26, "velocity": 88}, {"time": 4033, "pitch": 56, "duration": 3, "velocity": 84}, {"time": 4039, "pitch": 62, "duration": 3, "velocity": 92}, {"time": 4051, "pitch": 63, "duration": 3, "velocity": 97}, {"time": 4057, "pitch": 51, "duration": 3, "velocity": 91}, {"time": 4069, "pitch": 46, "duration": 25, "velocity": 95}, {"time": 4069, "pitch": 58, "duration": 7, "velocity": 84}, {"time": 4069, "pitch": 62, "duration": 10, "velocity": 92}, {"time": 4075, "pitch": 53, "duration": 16, "velocity": 87}, {"time": 4081, "pitch": 58, "duration": 3, "velocity": 99}, {"time": 4087, "pitch": 58, "duration": 15, "velocity": 96}, {"time": 4087, "pitch": 62, "duration": 18, "velocity": 96}, {"time": 4099, "pitch": 53, "duration": 5, "velocity": 86}, {"time": 4105, "pitch": 58, "duration": 7, "velocity": 97}, {"time": 4111, "pitch": 62, "duration": 4, "velocity": 90}, {"time": 4117, "pitch": 36, "duration": 2, "velocity": 91}, {"time": 4117, "pitch": 55, "duration": 7, "velocity": 87}, {"time": 4117, "pitch": 60, "duration": 9, "velocity": 91}, {"time": 4123, "pitch": 48, "duration": 42, "velocity": 86}, {"time": 4129, "pitch": 55, "duration": 9, "velocity": 90}, {"time": 4135, "pitch": 60, "duration": 9, "velocity": 91}, {"time": 4135, "pitch": 63, "duration": 8, "velocity": 91}, {"time": 4141, "pitch": 55, "duration": 25, "velocity": 88}, {"time": 4147, "pitch": 62, "duration": 7, "velocity": 92}, {"time": 4153, "pitch": 63, "duration": 7, "velocity": 99}, {"time": 4159, "pitch": 62, "duration": 5, "velocity": 94}, {"time": 4165, "pitch": 46, "duration": 43, "velocity": 89}, {"time": 4170, "pitch": 53, "duration": 39, "velocity": 66}, {"time": 4176, "pitch": 58, "duration": 5, "velocity": 80}, {"time": 4182, "pitch": 65, "duration": 121, "velocity": 75}, {"time": 4182, "pitch": 58, "duration": 8, "velocity": 59}, {"time": 4312, "pitch": 48, "duration": 31, "velocity": 89}, {"time": 4317, "pitch": 55, "duration": 25, "velocity": 80}, {"time": 4323, "pitch": 60, "duration": 7, "velocity": 84}, {"time": 4329, "pitch": 62, "duration": 11, "velocity": 85}, {"time": 4340, "pitch": 63, "duration": 6, "velocity": 75}, {"time": 4357, "pitch": 44, "duration": 34, "velocity": 86}, {"time": 4362, "pitch": 51, "duration": 28, "velocity": 78}, {"time": 4367, "pitch": 56, "duration": 21, "velocity": 78}, {"time": 4374, "pitch": 60, "duration": 15, "velocity": 77}, {"time": 4387, "pitch": 63, "duration": 32, "velocity": 74}, {"time": 4407, "pitch": 43, "duration": 46, "velocity": 83}, {"time": 4413, "pitch": 50, "duration": 36, "velocity": 74}, {"time": 4419, "pitch": 55, "duration": 23, "velocity": 79}, {"time": 4427, "pitch": 59, "duration": 9, "velocity": 81}, {"time": 4434, "pitch": 62, "duration": 34, "velocity": 75}, {"time": 4442, "pitch": 67, "duration": 39, "velocity": 75}, {"time": 4466, "pitch": 36, "duration": 4, "velocity": 83}, {"time": 4476, "pitch": 48, "duration": 86, "velocity": 81}, {"time": 4482, "pitch": 55, "duration": 80, "velocity": 73}, {"time": 4485, "pitch": 60, "duration": 3, "velocity": 51}, {"time": 4488, "pitch": 62, "duration": 3, "velocity": 68}, {"time": 4491, "pitch": 63, "duration": 3, "velocity": 77}, {"time": 4496, "pitch": 67, "duration": 4, "velocity": 71}, {"time": 4500, "pitch": 74, "duration": 6, "velocity": 83}, {"time": 4505, "pitch": 72, "duration": 5, "velocity": 70}, {"time": 4510, "pitch": 67, "duration": 6, "velocity": 76}, {"time": 4516, "pitch": 79, "duration": 4, "velocity": 77}, {"time": 4524, "pitch": 86, "duration": 3, "velocity": 81}, {"time": 4534, "pitch": 84, "duration": 3, "velocity": 72}, {"time": 4543, "pitch": 79, "duration": 3, "velocity": 51}, {"time": 4545, "pitch": 84, "duration": 2, "velocity": 73}, {"time": 4546, "pitch": 91, "duration": 2, "velocity": 74}], "annotations": [{"time": 90, "annotation": {"number": 64, "value": 127}, "group": "control_change"}, {"time": 90, "annotation": {"number": 64, "value": 0}, "group": "control_change"}, {"time": 91, "annotation": {"number": 64, "value": 0}, "group": "control_change"}, {"time": 91, "annotation": {"number": 64, "value": 127}, "group": "control_change"}, {"time": 92, "annotation": {"number": 64, "value": 0}, "group": "control_change"}, {"time": 92, "annotation": {"number": 64, "value": 127}, "group": "control_change"}, {"time": 133, "annotation": {"number": 64, "value": 0}, "group": "control_change"}, {"time": 138, "annotation": {"number": 64, "value": 127}, "group": "control_change"}, {"time": 181, "annotation": {"number": 64, "value": 0}, "group": "control_change"}, {"time": 185, "annotation": {"number": 64, "value": 127}, "group": "control_change"}, {"time": 232, "annotation": {"number": 64, "value": 0}, "group": "control_change"}, {"time": 236, "annotation": {"number": 64, "value": 127}, "group": "control_change"}, {"time": 277, "annotation": {"number": 64, "value": 0}, "group": "control_change"}, {"time": 280, "annotation": {"number": 64, "value": 127}, "group": "control_change"}, {"time": 325, "annotation": {"number": 64, "value": 0}, "group": "control_change"}, {"time": 328, "annotation": {"number": 64, "value": 127}, "group": "control_change"}, {"time": 373, "annotation": {"number": 64, "value": 0}, "group": "control_change"}, {"time": 376, "annotation": {"number": 64, "value": 127}, "group": "control_change"}, {"time": 418, "annotation": {"number": 64, "value": 0}, "group": "control_change"}, {"time": 422, "annotation": {"number": 64, "value": 127}, "group": "control_change"}, {"time": 467, "annotation": {"number": 64, "value": 0}, "group": "control_change"}, {"time": 474, "annotation": {"number": 64, "value": 127}, "group": "control_change"}, {"time": 568, "annotation": {"number": 64, "value": 127}, "group": "control_change"}, {"time": 569, "annotation": {"number": 64, "value": 0}, "group": "control_change"}, {"time": 569, "annotation": {"number": 64, "value": 127}, "group": "control_change"}, {"time": 608, "annotation": {"number": 64, "value": 0}, "group": "control_change"}, {"time": 612, "annotation": {"number": 64, "value": 127}, "group": "control_change"}, {"time": 657, "annotation": {"number": 64, "value": 0}, "group": "control_change"}, {"time": 660, "annotation": {"number": 64, "value": 127}, "group": "control_change"}, {"time": 707, "annotation": {"number": 64, "value": 0}, "group": "control_change"}, {"time": 710, "annotation": {"number": 64, "value": 127}, "group": "control_change"}, {"time": 755, "annotation": {"number": 64, "value": 0}, "group": "control_change"}, {"time": 761, "annotation": {"number": 64, "value": 127}, "group": "control_change"}, {"time": 803, "annotation": {"number": 64, "value": 0}, "group": "control_change"}, {"time": 806, "annotation": {"number": 64, "value": 127}, "group": "control_change"}, {"time": 848, "annotation": {"number": 64, "value": 0}, "group": "control_change"}, {"time": 852, "annotation": {"number": 64, "value": 127}, "group": "control_change"}, {"time": 899, "annotation": {"number": 64, "value": 0}, "group": "control_change"}, {"time": 903, "annotation": {"number": 64, "value": 127}, "group": "control_change"}, {"time": 944, "annotation": {"number": 64, "value": 0}, "group": "control_change"}, {"time": 950, "annotation": {"number": 64, "value": 127}, "group": "control_change"}, {"time": 994, "annotation": {"number": 64, "value": 0}, "group": "control_change"}, {"time": 998, "annotation": {"number": 64, "value": 127}, "group": "control_change"}, {"time": 1044, "annotation": {"number": 64, "value": 0}, "group": "control_change"}, {"time": 1047, "annotation": {"number": 64, "value": 127}, "group": "control_change"}, {"time": 1093, "annotation": {"number": 64, "value": 0}, "group": "control_change"}, {"time": 1095, "annotation": {"number": 64, "value": 127}, "group": "control_change"}, {"time": 1140, "annotation": {"number": 64, "value": 0}, "group": "control_change"}, {"time": 1143, "annotation": {"number": 64, "value": 127}, "group": "control_change"}, {"time": 1188, "annotation": {"number": 64, "value": 0}, "group": "control_change"}, {"time": 1192, "annotation": {"number": 64, "value": 127}, "group": "control_change"}, {"time": 1235, "annotation": {"number": 64, "value": 0}, "group": "control_change"}, {"time": 1238, "annotation": {"number": 64, "value": 127}, "group": "control_change"}, {"time": 1284, "annotation": {"number": 64, "value": 0}, "group": "control_change"}, {"time": 1287, "annotation": {"number": 64, "value": 127}, "group": "control_change"}, {"time": 1330, "annotation": {"number": 64, "value": 0}, "group": "control_change"}, {"time": 1333, "annotation": {"number": 64, "value": 127}, "group": "control_change"}, {"time": 1378, "annotation": {"number": 64, "value": 0}, "group": "control_change"}, {"time": 1381, "annotation": {"number": 64, "value": 127}, "group": "control_change"}, {"time": 1426, "annotation": {"number": 64, "value": 0}, "group": "control_change"}, {"time": 1429, "annotation": {"number": 64, "value": 127}, "group": "control_change"}, {"time": 1474, "annotation": {"number": 64, "value": 0}, "group": "control_change"}, {"time": 1478, "annotation": {"number": 64, "value": 127}, "group": "control_change"}, {"time": 1523, "annotation": {"number": 64, "value": 0}, "group": "control_change"}, {"time": 1526, "annotation": {"number": 64, "value": 127}, "group": "control_change"}, {"time": 1571, "annotation": {"number": 64, "value": 0}, "group": "control_change"}, {"time": 1574, "annotation": {"number": 64, "value": 127}, "group": "control_change"}, {"time": 1619, "annotation": {"number": 64, "value": 0}, "group": "control_change"}, {"time": 1622, "annotation": {"number": 64, "value": 127}, "group": "control_change"}, {"time": 1668, "annotation": {"number": 64, "value": 0}, "group": "control_change"}, {"time": 1672, "annotation": {"number": 64, "value": 127}, "group": "control_change"}, {"time": 1715, "annotation": {"number": 64, "value": 0}, "group": "control_change"}, {"time": 1718, "annotation": {"number": 64, "value": 127}, "group": "control_change"}, {"time": 1762, "annotation": {"number": 64, "value": 0}, "group": "control_change"}, {"time": 1765, "annotation": {"number": 64, "value": 127}, "group": "control_change"}, {"time": 1810, "annotation": {"number": 64, "value": 0}, "group": "control_change"}, {"time": 1813, "annotation": {"number": 64, "value": 127}, "group": "control_change"}, {"time": 1858, "annotation": {"number": 64, "value": 0}, "group": "control_change"}, {"time": 1862, "annotation": {"number": 64, "value": 127}, "group": "control_change"}, {"time": 1907, "annotation": {"number": 64, "value": 0}, "group": "control_change"}, {"time": 1910, "annotation": {"number": 64, "value": 127}, "group": "control_change"}, {"time": 1955, "annotation": {"number": 64, "value": 0}, "group": "control_change"}, {"time": 1958, "annotation": {"number": 64, "value": 127}, "group": "control_change"}, {"time": 2003, "annotation": {"number": 64, "value": 0}, "group": "control_change"}, {"time": 2006, "annotation": {"number": 64, "value": 127}, "group": "control_change"}, {"time": 2052, "annotation": {"number": 64, "value": 0}, "group": "control_change"}, {"time": 2056, "annotation": {"number": 64, "value": 127}, "group": "control_change"}, {"time": 2099, "annotation": {"number": 64, "value": 0}, "group": "control_change"}, {"time": 2102, "annotation": {"number": 64, "value": 127}, "group": "control_change"}, {"time": 2146, "annotation": {"number": 64, "value": 0}, "group": "control_change"}, {"time": 2152, "annotation": {"number": 64, "value": 127}, "group": "control_change"}, {"time": 2195, "annotation": {"number": 64, "value": 0}, "group": "control_change"}, {"time": 2211, "annotation": {"number": 64, "value": 127}, "group": "control_change"}, {"time": 2245, "annotation": {"number": 64, "value": 0}, "group": "control_change"}, {"time": 2249, "annotation": {"number": 64, "value": 127}, "group": "control_change"}, {"time": 2293, "annotation": {"number": 64, "value": 0}, "group": "control_change"}, {"time": 2297, "annotation": {"number": 64, "value": 127}, "group": "control_change"}, {"time": 2340, "annotation": {"number": 64, "value": 0}, "group": "control_change"}, {"time": 2343, "annotation": {"number": 64, "value": 127}, "group": "control_change"}, {"time": 2387, "annotation": {"number": 64, "value": 0}, "group": "control_change"}, {"time": 2391, "annotation": {"number": 64, "value": 127}, "group": "control_change"}, {"time": 2437, "annotation": {"number": 64, "value": 0}, "group": "control_change"}, {"time": 2440, "annotation": {"number": 64, "value": 127}, "group": "control_change"}, {"time": 2481, "annotation": {"number": 64, "value": 0}, "group": "control_change"}, {"time": 2485, "annotation": {"number": 64, "value": 127}, "group": "control_change"}, {"time": 2532, "annotation": {"number": 64, "value": 0}, "group": "control_change"}, {"time": 2582, "annotation": {"number": 64, "value": 127}, "group": "control_change"}, {"time": 2626, "annotation": {"number": 64, "value": 0}, "group": "control_change"}, {"time": 2630, "annotation": {"number": 64, "value": 127}, "group": "control_change"}, {"time": 2676, "annotation": {"number": 64, "value": 0}, "group": "control_change"}, {"time": 2679, "annotation": {"number": 64, "value": 127}, "group": "control_change"}, {"time": 2725, "annotation": {"number": 64, "value": 0}, "group": "control_change"}, {"time": 2727, "annotation": {"number": 64, "value": 127}, "group": "control_change"}, {"time": 2772, "annotation": {"number": 64, "value": 0}, "group": "control_change"}, {"time": 2775, "annotation": {"number": 64, "value": 127}, "group": "control_change"}, {"time": 2820, "annotation": {"number": 64, "value": 0}, "group": "control_change"}, {"time": 2824, "annotation": {"number": 64, "value": 127}, "group": "control_change"}, {"time": 2867, "annotation": {"number": 64, "value": 0}, "group": "control_change"}, {"time": 2870, "annotation": {"number": 64, "value": 127}, "group": "control_change"}, {"time": 2916, "annotation": {"number": 64, "value": 0}, "group": "control_change"}, {"time": 2919, "annotation": {"number": 64, "value": 127}, "group": "control_change"}, {"time": 2962, "annotation": {"number": 64, "value": 0}, "group": "control_change"}, {"time": 2965, "annotation": {"number": 64, "value": 127}, "group": "control_change"}, {"time": 3010, "annotation": {"number": 64, "value": 0}, "group": "control_change"}, {"time": 3013, "annotation": {"number": 64, "value": 127}, "group": "control_change"}, {"time": 3058, "annotation": {"number": 64, "value": 0}, "group": "control_change"}, {"time": 3061, "annotation": {"number": 64, "value": 127}, "group": "control_change"}, {"time": 3106, "annotation": {"number": 64, "value": 0}, "group": "control_change"}, {"time": 3110, "annotation": {"number": 64, "value": 127}, "group": "control_change"}, {"time": 3155, "annotation": {"number": 64, "value": 0}, "group": "control_change"}, {"time": 3158, "annotation": {"number": 64, "value": 127}, "group": "control_change"}, {"time": 3203, "annotation": {"number": 64, "value": 0}, "group": "control_change"}, {"time": 3206, "annotation": {"number": 64, "value": 127}, "group": "control_change"}, {"time": 3251, "annotation": {"number": 64, "value": 0}, "group": "control_change"}, {"time": 3254, "annotation": {"number": 64, "value": 127}, "group": "control_change"}, {"time": 3300, "annotation": {"number": 64, "value": 0}, "group": "control_change"}, {"time": 3304, "annotation": {"number": 64, "value": 127}, "group": "control_change"}, {"time": 3347, "annotation": {"number": 64, "value": 0}, "group": "control_change"}, {"time": 3350, "annotation": {"number": 64, "value": 127}, "group": "control_change"}, {"time": 3394, "annotation": {"number": 64, "value": 0}, "group": "control_change"}, {"time": 3397, "annotation": {"number": 64, "value": 127}, "group": "control_change"}, {"time": 3442, "annotation": {"number": 64, "value": 0}, "group": "control_change"}, {"time": 3445, "annotation": {"number": 64, "value": 127}, "group": "control_change"}, {"time": 3490, "annotation": {"number": 64, "value": 0}, "group": "control_change"}, {"time": 3494, "annotation": {"number": 64, "value": 127}, "group": "control_change"}, {"time": 3539, "annotation": {"number": 64, "value": 0}, "group": "control_change"}, {"time": 3542, "annotation": {"number": 64, "value": 127}, "group": "control_change"}, {"time": 3587, "annotation": {"number": 64, "value": 0}, "group": "control_change"}, {"time": 3590, "annotation": {"number": 64, "value": 127}, "group": "control_change"}, {"time": 3635, "annotation": {"number": 64, "value": 0}, "group": "control_change"}, {"time": 3638, "annotation": {"number": 64, "value": 127}, "group": "control_change"}, {"time": 3684, "annotation": {"number": 64, "value": 0}, "group": "control_change"}, {"time": 3688, "annotation": {"number": 64, "value": 127}, "group": "control_change"}, {"time": 3731, "annotation": {"number": 64, "value": 0}, "group": "control_change"}, {"time": 3734, "annotation": {"number": 64, "value": 127}, "group": "control_change"}, {"time": 3778, "annotation": {"number": 64, "value": 0}, "group": "control_change"}, {"time": 3782, "annotation": {"number": 64, "value": 127}, "group": "control_change"}, {"time": 3827, "annotation": {"number": 64, "value": 0}, "group": "control_change"}, {"time": 3830, "annotation": {"number": 64, "value": 127}, "group": "control_change"}, {"time": 3876, "annotation": {"number": 64, "value": 0}, "group": "control_change"}, {"time": 3880, "annotation": {"number": 64, "value": 127}, "group": "control_change"}, {"time": 3923, "annotation": {"number": 64, "value": 0}, "group": "control_change"}, {"time": 3927, "annotation": {"number": 64, "value": 127}, "group": "control_change"}, {"time": 3971, "annotation": {"number": 64, "value": 0}, "group": "control_change"}, {"time": 3974, "annotation": {"number": 64, "value": 127}, "group": "control_change"}, {"time": 4018, "annotation": {"number": 64, "value": 0}, "group": "control_change"}, {"time": 4022, "annotation": {"number": 64, "value": 127}, "group": "control_change"}, {"time": 4068, "annotation": {"number": 64, "value": 0}, "group": "control_change"}, {"time": 4071, "annotation": {"number": 64, "value": 127}, "group": "control_change"}, {"time": 4115, "annotation": {"number": 64, "value": 0}, "group": "control_change"}, {"time": 4118, "annotation": {"number": 64, "value": 127}, "group": "control_change"}, {"time": 4158, "annotation": {"number": 64, "value": 0}, "group": "control_change"}, {"time": 4166, "annotation": {"number": 64, "value": 127}, "group": "control_change"}, {"time": 4166, "annotation": {"number": 64, "value": 0}, "group": "control_change"}, {"time": 4167, "annotation": {"number": 64, "value": 127}, "group": "control_change"}, {"time": 4315, "annotation": {"number": 64, "value": 127}, "group": "control_change"}, {"time": 4356, "annotation": {"number": 64, "value": 0}, "group": "control_change"}, {"time": 4362, "annotation": {"number": 64, "value": 127}, "group": "control_change"}, {"time": 4404, "annotation": {"number": 64, "value": 0}, "group": "control_change"}, {"time": 4410, "annotation": {"number": 64, "value": 127}, "group": "control_change"}, {"time": 4462, "annotation": {"number": 64, "value": 0}, "group": "control_change"}, {"time": 4466, "annotation": {"number": 64, "value": 127}, "group": "control_change"}]}]}