{"metadata": {"schema_version": "0.2", "title": "None", "source_filename": "682.mid", "source_format": "midi"}, "resolution": 12, "tempos": [{"time": 0, "qpm": 71.00011951686785}], "time_signatures": [{"time": 0, "numerator": 1, "denominator": 4}], "tracks": [{"program": 0, "is_drum": false, "name": "MELODY", "notes": [{"time": 317, "pitch": 62, "duration": 5, "velocity": 88}, {"time": 323, "pitch": 64, "duration": 6, "velocity": 91}, {"time": 329, "pitch": 65, "duration": 5, "velocity": 85}, {"time": 335, "pitch": 67, "duration": 7, "velocity": 82}, {"time": 344, "pitch": 67, "duration": 3, "velocity": 85}, {"time": 347, "pitch": 64, "duration": 6, "velocity": 88}, {"time": 353, "pitch": 62, "duration": 6, "velocity": 84}, {"time": 359, "pitch": 60, "duration": 7, "velocity": 84}, {"time": 365, "pitch": 62, "duration": 25, "velocity": 88}, {"time": 413, "pitch": 62, "duration": 6, "velocity": 88}, {"time": 419, "pitch": 64, "duration": 6, "velocity": 88}, {"time": 425, "pitch": 65, "duration": 7, "velocity": 84}, {"time": 431, "pitch": 67, "duration": 8, "velocity": 84}, {"time": 440, "pitch": 67, "duration": 2, "velocity": 84}, {"time": 443, "pitch": 67, "duration": 5, "velocity": 86}, {"time": 449, "pitch": 72, "duration": 4, "velocity": 90}, {"time": 455, "pitch": 74, "duration": 7, "velocity": 91}, {"time": 461, "pitch": 72, "duration": 3, "velocity": 88}, {"time": 464, "pitch": 69, "duration": 28, "velocity": 85}, {"time": 509, "pitch": 74, "duration": 2, "velocity": 85}, {"time": 512, "pitch": 74, "duration": 2, "velocity": 88}, {"time": 515, "pitch": 74, "duration": 4, "velocity": 89}, {"time": 521, "pitch": 72, "duration": 2, "velocity": 84}, {"time": 524, "pitch": 74, "duration": 9, "velocity": 88}, {"time": 533, "pitch": 72, "duration": 18, "velocity": 84}, {"time": 557, "pitch": 69, "duration": 2, "velocity": 84}, {"time": 560, "pitch": 69, "duration": 2, "velocity": 84}, {"time": 563, "pitch": 67, "duration": 6, "velocity": 86}, {"time": 569, "pitch": 65, "duration": 6, "velocity": 83}, {"time": 575, "pitch": 67, "duration": 6, "velocity": 84}, {"time": 581, "pitch": 69, "duration": 18, "velocity": 83}, {"time": 605, "pitch": 62, "duration": 2, "velocity": 85}, {"time": 608, "pitch": 62, "duration": 2, "velocity": 84}, {"time": 611, "pitch": 64, "duration": 5, "velocity": 88}, {"time": 617, "pitch": 65, "duration": 4, "velocity": 84}, {"time": 623, "pitch": 67, "duration": 8, "velocity": 80}, {"time": 632, "pitch": 67, "duration": 3, "velocity": 85}, {"time": 635, "pitch": 64, "duration": 6, "velocity": 86}, {"time": 641, "pitch": 62, "duration": 7, "velocity": 85}, {"time": 647, "pitch": 60, "duration": 6, "velocity": 87}, {"time": 653, "pitch": 62, "duration": 41, "velocity": 81}, {"time": 701, "pitch": 62, "duration": 5, "velocity": 88}, {"time": 707, "pitch": 64, "duration": 6, "velocity": 91}, {"time": 713, "pitch": 65, "duration": 5, "velocity": 85}, {"time": 719, "pitch": 67, "duration": 12, "velocity": 82}, {"time": 731, "pitch": 64, "duration": 6, "velocity": 88}, {"time": 737, "pitch": 62, "duration": 6, "velocity": 84}, {"time": 743, "pitch": 60, "duration": 7, "velocity": 84}, {"time": 749, "pitch": 62, "duration": 25, "velocity": 88}, {"time": 797, "pitch": 62, "duration": 6, "velocity": 88}, {"time": 803, "pitch": 64, "duration": 6, "velocity": 88}, {"time": 809, "pitch": 65, "duration": 7, "velocity": 84}, {"time": 815, "pitch": 67, "duration": 8, "velocity": 84}, {"time": 824, "pitch": 67, "duration": 2, "velocity": 84}, {"time": 827, "pitch": 67, "duration": 5, "velocity": 86}, {"time": 833, "pitch": 72, "duration": 4, "velocity": 90}, {"time": 839, "pitch": 74, "duration": 7, "velocity": 91}, {"time": 845, "pitch": 72, "duration": 3, "velocity": 88}, {"time": 848, "pitch": 69, "duration": 28, "velocity": 85}, {"time": 893, "pitch": 74, "duration": 2, "velocity": 85}, {"time": 896, "pitch": 74, "duration": 2, "velocity": 88}, {"time": 899, "pitch": 74, "duration": 4, "velocity": 89}, {"time": 905, "pitch": 72, "duration": 2, "velocity": 84}, {"time": 908, "pitch": 74, "duration": 9, "velocity": 88}, {"time": 917, "pitch": 72, "duration": 18, "velocity": 84}, {"time": 941, "pitch": 69, "duration": 2, "velocity": 84}, {"time": 944, "pitch": 69, "duration": 2, "velocity": 84}, {"time": 947, "pitch": 67, "duration": 6, "velocity": 86}, {"time": 953, "pitch": 65, "duration": 6, "velocity": 83}, {"time": 959, "pitch": 67, "duration": 6, "velocity": 84}, {"time": 965, "pitch": 69, "duration": 18, "velocity": 83}, {"time": 989, "pitch": 62, "duration": 2, "velocity": 85}, {"time": 992, "pitch": 62, "duration": 2, "velocity": 84}, {"time": 995, "pitch": 64, "duration": 5, "velocity": 88}, {"time": 1001, "pitch": 65, "duration": 4, "velocity": 84}, {"time": 1007, "pitch": 67, "duration": 8, "velocity": 80}, {"time": 1016, "pitch": 67, "duration": 3, "velocity": 85}, {"time": 1019, "pitch": 64, "duration": 6, "velocity": 86}, {"time": 1025, "pitch": 62, "duration": 7, "velocity": 85}, {"time": 1031, "pitch": 60, "duration": 6, "velocity": 87}, {"time": 1037, "pitch": 62, "duration": 41, "velocity": 81}, {"time": 1085, "pitch": 67, "duration": 2, "velocity": 84}, {"time": 1088, "pitch": 67, "duration": 2, "velocity": 84}, {"time": 1091, "pitch": 67, "duration": 6, "velocity": 87}, {"time": 1097, "pitch": 65, "duration": 6, "velocity": 85}, {"time": 1103, "pitch": 67, "duration": 23, "velocity": 85}, {"time": 1133, "pitch": 67, "duration": 3, "velocity": 85}, {"time": 1136, "pitch": 67, "duration": 3, "velocity": 85}, {"time": 1139, "pitch": 64, "duration": 6, "velocity": 86}, {"time": 1145, "pitch": 62, "duration": 2, "velocity": 84}, {"time": 1148, "pitch": 60, "duration": 7, "velocity": 80}, {"time": 1154, "pitch": 62, "duration": 21, "velocity": 85}, {"time": 1181, "pitch": 67, "duration": 2, "velocity": 85}, {"time": 1184, "pitch": 67, "duration": 2, "velocity": 84}, {"time": 1187, "pitch": 67, "duration": 6, "velocity": 88}, {"time": 1193, "pitch": 65, "duration": 7, "velocity": 90}, {"time": 1199, "pitch": 67, "duration": 12, "velocity": 88}, {"time": 1211, "pitch": 72, "duration": 2, "velocity": 91}, {"time": 1214, "pitch": 69, "duration": 2, "velocity": 86}, {"time": 1217, "pitch": 69, "duration": 3, "velocity": 88}, {"time": 1220, "pitch": 72, "duration": 2, "velocity": 90}, {"time": 1223, "pitch": 76, "duration": 32, "velocity": 93}, {"time": 1268, "pitch": 69, "duration": 3, "velocity": 88}, {"time": 1271, "pitch": 74, "duration": 3, "velocity": 88}, {"time": 1274, "pitch": 72, "duration": 3, "velocity": 88}, {"time": 1277, "pitch": 74, "duration": 3, "velocity": 87}, {"time": 1280, "pitch": 72, "duration": 3, "velocity": 87}, {"time": 1283, "pitch": 74, "duration": 3, "velocity": 89}, {"time": 1286, "pitch": 77, "duration": 6, "velocity": 88}, {"time": 1295, "pitch": 74, "duration": 2, "velocity": 88}, {"time": 1298, "pitch": 72, "duration": 2, "velocity": 88}, {"time": 1301, "pitch": 72, "duration": 3, "velocity": 87}, {"time": 1304, "pitch": 72, "duration": 2, "velocity": 86}, {"time": 1307, "pitch": 74, "duration": 5, "velocity": 86}, {"time": 1313, "pitch": 72, "duration": 5, "velocity": 85}, {"time": 1319, "pitch": 65, "duration": 2, "velocity": 90}, {"time": 1322, "pitch": 65, "duration": 2, "velocity": 85}, {"time": 1325, "pitch": 65, "duration": 2, "velocity": 86}, {"time": 1328, "pitch": 65, "duration": 2, "velocity": 86}, {"time": 1331, "pitch": 67, "duration": 6, "velocity": 90}, {"time": 1337, "pitch": 65, "duration": 2, "velocity": 86}, {"time": 1340, "pitch": 69, "duration": 16, "velocity": 86}, {"time": 1364, "pitch": 69, "duration": 3, "velocity": 84}, {"time": 1367, "pitch": 74, "duration": 3, "velocity": 91}, {"time": 1370, "pitch": 72, "duration": 3, "velocity": 87}, {"time": 1373, "pitch": 74, "duration": 3, "velocity": 86}, {"time": 1376, "pitch": 72, "duration": 3, "velocity": 86}, {"time": 1379, "pitch": 74, "duration": 3, "velocity": 93}, {"time": 1382, "pitch": 77, "duration": 7, "velocity": 91}, {"time": 1388, "pitch": 79, "duration": 5, "velocity": 86}, {"time": 1394, "pitch": 79, "duration": 2, "velocity": 84}, {"time": 1397, "pitch": 79, "duration": 2, "velocity": 85}, {"time": 1400, "pitch": 76, "duration": 2, "velocity": 84}, {"time": 1403, "pitch": 74, "duration": 2, "velocity": 88}, {"time": 1406, "pitch": 72, "duration": 8, "velocity": 91}, {"time": 1415, "pitch": 74, "duration": 2, "velocity": 84}, {"time": 1418, "pitch": 74, "duration": 2, "velocity": 88}, {"time": 1421, "pitch": 74, "duration": 1, "velocity": 86}, {"time": 1424, "pitch": 74, "duration": 2, "velocity": 91}, {"time": 1427, "pitch": 74, "duration": 2, "velocity": 95}, {"time": 1430, "pitch": 77, "duration": 9, "velocity": 86}, {"time": 1439, "pitch": 76, "duration": 18, "velocity": 88}, {"time": 1460, "pitch": 69, "duration": 3, "velocity": 88}, {"time": 1463, "pitch": 74, "duration": 3, "velocity": 88}, {"time": 1466, "pitch": 72, "duration": 3, "velocity": 88}, {"time": 1469, "pitch": 74, "duration": 3, "velocity": 87}, {"time": 1472, "pitch": 72, "duration": 3, "velocity": 87}, {"time": 1475, "pitch": 74, "duration": 3, "velocity": 89}, {"time": 1478, "pitch": 77, "duration": 6, "velocity": 88}, {"time": 1487, "pitch": 74, "duration": 2, "velocity": 88}, {"time": 1490, "pitch": 72, "duration": 2, "velocity": 88}, {"time": 1493, "pitch": 72, "duration": 3, "velocity": 87}, {"time": 1496, "pitch": 72, "duration": 2, "velocity": 86}, {"time": 1499, "pitch": 74, "duration": 5, "velocity": 86}, {"time": 1505, "pitch": 72, "duration": 5, "velocity": 85}, {"time": 1511, "pitch": 65, "duration": 2, "velocity": 90}, {"time": 1514, "pitch": 65, "duration": 2, "velocity": 85}, {"time": 1517, "pitch": 65, "duration": 2, "velocity": 86}, {"time": 1520, "pitch": 65, "duration": 2, "velocity": 86}, {"time": 1523, "pitch": 67, "duration": 6, "velocity": 90}, {"time": 1529, "pitch": 65, "duration": 2, "velocity": 86}, {"time": 1532, "pitch": 67, "duration": 6, "velocity": 86}, {"time": 1538, "pitch": 69, "duration": 10, "velocity": 86}, {"time": 1556, "pitch": 69, "duration": 3, "velocity": 84}, {"time": 1559, "pitch": 74, "duration": 3, "velocity": 91}, {"time": 1562, "pitch": 72, "duration": 3, "velocity": 87}, {"time": 1565, "pitch": 74, "duration": 3, "velocity": 86}, {"time": 1568, "pitch": 72, "duration": 3, "velocity": 86}, {"time": 1571, "pitch": 74, "duration": 3, "velocity": 93}, {"time": 1574, "pitch": 77, "duration": 7, "velocity": 91}, {"time": 1580, "pitch": 79, "duration": 5, "velocity": 86}, {"time": 1586, "pitch": 79, "duration": 2, "velocity": 84}, {"time": 1589, "pitch": 79, "duration": 2, "velocity": 85}, {"time": 1592, "pitch": 76, "duration": 2, "velocity": 84}, {"time": 1595, "pitch": 74, "duration": 2, "velocity": 88}, {"time": 1598, "pitch": 72, "duration": 8, "velocity": 91}, {"time": 1607, "pitch": 74, "duration": 2, "velocity": 84}, {"time": 1610, "pitch": 74, "duration": 2, "velocity": 88}, {"time": 1613, "pitch": 74, "duration": 1, "velocity": 86}, {"time": 1616, "pitch": 74, "duration": 2, "velocity": 91}, {"time": 1619, "pitch": 74, "duration": 2, "velocity": 95}, {"time": 1622, "pitch": 77, "duration": 9, "velocity": 86}, {"time": 1631, "pitch": 76, "duration": 12, "velocity": 88}, {"time": 1643, "pitch": 77, "duration": 6, "velocity": 87}, {"time": 1649, "pitch": 76, "duration": 6, "velocity": 87}, {"time": 1655, "pitch": 72, "duration": 6, "velocity": 84}, {"time": 1661, "pitch": 74, "duration": 41, "velocity": 91}, {"time": 1901, "pitch": 62, "duration": 5, "velocity": 88}, {"time": 1907, "pitch": 64, "duration": 6, "velocity": 91}, {"time": 1913, "pitch": 65, "duration": 5, "velocity": 85}, {"time": 1919, "pitch": 67, "duration": 12, "velocity": 82}, {"time": 1931, "pitch": 64, "duration": 6, "velocity": 88}, {"time": 1937, "pitch": 62, "duration": 6, "velocity": 84}, {"time": 1943, "pitch": 60, "duration": 7, "velocity": 84}, {"time": 1949, "pitch": 62, "duration": 25, "velocity": 88}, {"time": 1997, "pitch": 62, "duration": 6, "velocity": 88}, {"time": 2003, "pitch": 64, "duration": 6, "velocity": 88}, {"time": 2009, "pitch": 65, "duration": 7, "velocity": 84}, {"time": 2015, "pitch": 67, "duration": 8, "velocity": 84}, {"time": 2024, "pitch": 67, "duration": 2, "velocity": 84}, {"time": 2027, "pitch": 67, "duration": 5, "velocity": 86}, {"time": 2033, "pitch": 72, "duration": 4, "velocity": 90}, {"time": 2039, "pitch": 74, "duration": 7, "velocity": 91}, {"time": 2045, "pitch": 72, "duration": 3, "velocity": 88}, {"time": 2048, "pitch": 69, "duration": 28, "velocity": 85}, {"time": 2093, "pitch": 74, "duration": 2, "velocity": 85}, {"time": 2096, "pitch": 74, "duration": 2, "velocity": 88}, {"time": 2099, "pitch": 74, "duration": 4, "velocity": 89}, {"time": 2105, "pitch": 72, "duration": 2, "velocity": 84}, {"time": 2108, "pitch": 74, "duration": 9, "velocity": 88}, {"time": 2117, "pitch": 72, "duration": 18, "velocity": 84}, {"time": 2141, "pitch": 69, "duration": 2, "velocity": 84}, {"time": 2144, "pitch": 69, "duration": 2, "velocity": 84}, {"time": 2147, "pitch": 67, "duration": 6, "velocity": 86}, {"time": 2153, "pitch": 65, "duration": 6, "velocity": 83}, {"time": 2159, "pitch": 67, "duration": 6, "velocity": 84}, {"time": 2165, "pitch": 69, "duration": 18, "velocity": 83}, {"time": 2189, "pitch": 62, "duration": 2, "velocity": 85}, {"time": 2192, "pitch": 62, "duration": 2, "velocity": 84}, {"time": 2195, "pitch": 64, "duration": 5, "velocity": 88}, {"time": 2201, "pitch": 65, "duration": 4, "velocity": 84}, {"time": 2207, "pitch": 67, "duration": 8, "velocity": 80}, {"time": 2216, "pitch": 67, "duration": 3, "velocity": 85}, {"time": 2219, "pitch": 64, "duration": 6, "velocity": 86}, {"time": 2225, "pitch": 62, "duration": 7, "velocity": 85}, {"time": 2231, "pitch": 60, "duration": 6, "velocity": 87}, {"time": 2237, "pitch": 62, "duration": 41, "velocity": 81}, {"time": 2285, "pitch": 67, "duration": 2, "velocity": 84}, {"time": 2288, "pitch": 67, "duration": 2, "velocity": 84}, {"time": 2291, "pitch": 67, "duration": 6, "velocity": 87}, {"time": 2297, "pitch": 65, "duration": 6, "velocity": 85}, {"time": 2303, "pitch": 67, "duration": 23, "velocity": 85}, {"time": 2333, "pitch": 67, "duration": 3, "velocity": 85}, {"time": 2336, "pitch": 67, "duration": 3, "velocity": 85}, {"time": 2339, "pitch": 64, "duration": 6, "velocity": 86}, {"time": 2345, "pitch": 62, "duration": 2, "velocity": 84}, {"time": 2348, "pitch": 60, "duration": 7, "velocity": 80}, {"time": 2354, "pitch": 62, "duration": 21, "velocity": 85}, {"time": 2381, "pitch": 67, "duration": 2, "velocity": 85}, {"time": 2384, "pitch": 67, "duration": 2, "velocity": 84}, {"time": 2387, "pitch": 67, "duration": 6, "velocity": 88}, {"time": 2393, "pitch": 65, "duration": 7, "velocity": 90}, {"time": 2399, "pitch": 67, "duration": 12, "velocity": 88}, {"time": 2411, "pitch": 72, "duration": 2, "velocity": 91}, {"time": 2414, "pitch": 69, "duration": 2, "velocity": 86}, {"time": 2417, "pitch": 69, "duration": 3, "velocity": 88}, {"time": 2420, "pitch": 72, "duration": 2, "velocity": 90}, {"time": 2423, "pitch": 76, "duration": 32, "velocity": 93}, {"time": 2468, "pitch": 69, "duration": 3, "velocity": 88}, {"time": 2471, "pitch": 74, "duration": 3, "velocity": 88}, {"time": 2474, "pitch": 72, "duration": 3, "velocity": 88}, {"time": 2477, "pitch": 74, "duration": 3, "velocity": 87}, {"time": 2480, "pitch": 72, "duration": 3, "velocity": 87}, {"time": 2483, "pitch": 74, "duration": 3, "velocity": 89}, {"time": 2486, "pitch": 77, "duration": 6, "velocity": 88}, {"time": 2495, "pitch": 74, "duration": 2, "velocity": 88}, {"time": 2498, "pitch": 72, "duration": 2, "velocity": 88}, {"time": 2501, "pitch": 72, "duration": 3, "velocity": 87}, {"time": 2504, "pitch": 72, "duration": 2, "velocity": 86}, {"time": 2507, "pitch": 74, "duration": 5, "velocity": 86}, {"time": 2513, "pitch": 72, "duration": 5, "velocity": 85}, {"time": 2519, "pitch": 65, "duration": 2, "velocity": 90}, {"time": 2522, "pitch": 65, "duration": 2, "velocity": 85}, {"time": 2525, "pitch": 65, "duration": 2, "velocity": 86}, {"time": 2528, "pitch": 65, "duration": 2, "velocity": 86}, {"time": 2531, "pitch": 67, "duration": 6, "velocity": 90}, {"time": 2537, "pitch": 65, "duration": 2, "velocity": 86}, {"time": 2540, "pitch": 69, "duration": 16, "velocity": 86}, {"time": 2564, "pitch": 69, "duration": 3, "velocity": 84}, {"time": 2567, "pitch": 74, "duration": 3, "velocity": 91}, {"time": 2570, "pitch": 72, "duration": 3, "velocity": 87}, {"time": 2573, "pitch": 74, "duration": 3, "velocity": 86}, {"time": 2576, "pitch": 72, "duration": 3, "velocity": 86}, {"time": 2579, "pitch": 74, "duration": 3, "velocity": 93}, {"time": 2582, "pitch": 77, "duration": 7, "velocity": 91}, {"time": 2588, "pitch": 79, "duration": 5, "velocity": 86}, {"time": 2594, "pitch": 79, "duration": 2, "velocity": 84}, {"time": 2597, "pitch": 79, "duration": 2, "velocity": 85}, {"time": 2600, "pitch": 76, "duration": 2, "velocity": 84}, {"time": 2603, "pitch": 74, "duration": 2, "velocity": 88}, {"time": 2606, "pitch": 72, "duration": 8, "velocity": 91}, {"time": 2615, "pitch": 74, "duration": 2, "velocity": 84}, {"time": 2618, "pitch": 74, "duration": 2, "velocity": 88}, {"time": 2621, "pitch": 74, "duration": 1, "velocity": 86}, {"time": 2624, "pitch": 74, "duration": 2, "velocity": 91}, {"time": 2627, "pitch": 74, "duration": 2, "velocity": 95}, {"time": 2630, "pitch": 77, "duration": 9, "velocity": 86}, {"time": 2639, "pitch": 76, "duration": 18, "velocity": 88}, {"time": 2660, "pitch": 69, "duration": 3, "velocity": 88}, {"time": 2663, "pitch": 74, "duration": 3, "velocity": 88}, {"time": 2666, "pitch": 72, "duration": 3, "velocity": 88}, {"time": 2669, "pitch": 74, "duration": 3, "velocity": 87}, {"time": 2672, "pitch": 72, "duration": 3, "velocity": 87}, {"time": 2675, "pitch": 74, "duration": 3, "velocity": 89}, {"time": 2678, "pitch": 77, "duration": 6, "velocity": 88}, {"time": 2687, "pitch": 74, "duration": 2, "velocity": 88}, {"time": 2690, "pitch": 72, "duration": 2, "velocity": 88}, {"time": 2693, "pitch": 72, "duration": 3, "velocity": 87}, {"time": 2696, "pitch": 72, "duration": 2, "velocity": 86}, {"time": 2699, "pitch": 74, "duration": 5, "velocity": 86}, {"time": 2705, "pitch": 72, "duration": 5, "velocity": 85}, {"time": 2711, "pitch": 65, "duration": 2, "velocity": 90}, {"time": 2714, "pitch": 65, "duration": 2, "velocity": 85}, {"time": 2717, "pitch": 65, "duration": 2, "velocity": 86}, {"time": 2720, "pitch": 65, "duration": 2, "velocity": 86}, {"time": 2723, "pitch": 67, "duration": 6, "velocity": 90}, {"time": 2729, "pitch": 65, "duration": 2, "velocity": 86}, {"time": 2732, "pitch": 67, "duration": 6, "velocity": 86}, {"time": 2738, "pitch": 69, "duration": 10, "velocity": 86}, {"time": 2756, "pitch": 69, "duration": 3, "velocity": 84}, {"time": 2759, "pitch": 74, "duration": 3, "velocity": 91}, {"time": 2762, "pitch": 72, "duration": 3, "velocity": 87}, {"time": 2765, "pitch": 74, "duration": 3, "velocity": 86}, {"time": 2768, "pitch": 72, "duration": 3, "velocity": 86}, {"time": 2771, "pitch": 74, "duration": 3, "velocity": 93}, {"time": 2774, "pitch": 77, "duration": 7, "velocity": 91}, {"time": 2780, "pitch": 79, "duration": 5, "velocity": 86}, {"time": 2786, "pitch": 79, "duration": 2, "velocity": 84}, {"time": 2789, "pitch": 79, "duration": 2, "velocity": 85}, {"time": 2792, "pitch": 76, "duration": 2, "velocity": 84}, {"time": 2795, "pitch": 74, "duration": 2, "velocity": 88}, {"time": 2798, "pitch": 72, "duration": 8, "velocity": 91}, {"time": 2807, "pitch": 74, "duration": 2, "velocity": 84}, {"time": 2810, "pitch": 74, "duration": 2, "velocity": 88}, {"time": 2813, "pitch": 74, "duration": 1, "velocity": 86}, {"time": 2816, "pitch": 74, "duration": 2, "velocity": 91}, {"time": 2819, "pitch": 74, "duration": 2, "velocity": 95}, {"time": 2822, "pitch": 77, "duration": 9, "velocity": 86}, {"time": 2831, "pitch": 76, "duration": 12, "velocity": 88}, {"time": 2843, "pitch": 77, "duration": 6, "velocity": 87}, {"time": 2849, "pitch": 76, "duration": 6, "velocity": 87}, {"time": 2855, "pitch": 72, "duration": 6, "velocity": 84}, {"time": 2861, "pitch": 74, "duration": 41, "velocity": 91}, {"time": 2924, "pitch": 69, "duration": 3, "velocity": 88}, {"time": 2927, "pitch": 74, "duration": 3, "velocity": 88}, {"time": 2930, "pitch": 72, "duration": 3, "velocity": 88}, {"time": 2933, "pitch": 74, "duration": 3, "velocity": 87}, {"time": 2936, "pitch": 72, "duration": 3, "velocity": 87}, {"time": 2939, "pitch": 74, "duration": 3, "velocity": 89}, {"time": 2942, "pitch": 77, "duration": 6, "velocity": 88}, {"time": 2951, "pitch": 74, "duration": 2, "velocity": 88}, {"time": 2954, "pitch": 72, "duration": 2, "velocity": 88}, {"time": 2957, "pitch": 72, "duration": 3, "velocity": 87}, {"time": 2960, "pitch": 72, "duration": 2, "velocity": 86}, {"time": 2963, "pitch": 74, "duration": 5, "velocity": 86}, {"time": 2969, "pitch": 72, "duration": 5, "velocity": 85}, {"time": 2975, "pitch": 65, "duration": 2, "velocity": 90}, {"time": 2978, "pitch": 65, "duration": 2, "velocity": 85}, {"time": 2981, "pitch": 65, "duration": 2, "velocity": 86}, {"time": 2984, "pitch": 65, "duration": 2, "velocity": 86}, {"time": 2987, "pitch": 67, "duration": 6, "velocity": 90}, {"time": 2993, "pitch": 65, "duration": 2, "velocity": 86}, {"time": 2996, "pitch": 69, "duration": 16, "velocity": 86}, {"time": 3020, "pitch": 69, "duration": 3, "velocity": 84}, {"time": 3023, "pitch": 74, "duration": 3, "velocity": 91}, {"time": 3026, "pitch": 72, "duration": 3, "velocity": 87}, {"time": 3029, "pitch": 74, "duration": 3, "velocity": 86}, {"time": 3032, "pitch": 72, "duration": 3, "velocity": 86}, {"time": 3035, "pitch": 74, "duration": 3, "velocity": 93}, {"time": 3038, "pitch": 77, "duration": 7, "velocity": 91}, {"time": 3044, "pitch": 79, "duration": 5, "velocity": 86}, {"time": 3050, "pitch": 79, "duration": 2, "velocity": 84}, {"time": 3053, "pitch": 79, "duration": 2, "velocity": 85}, {"time": 3056, "pitch": 76, "duration": 2, "velocity": 84}, {"time": 3059, "pitch": 74, "duration": 2, "velocity": 88}, {"time": 3062, "pitch": 72, "duration": 8, "velocity": 91}, {"time": 3071, "pitch": 74, "duration": 2, "velocity": 84}, {"time": 3074, "pitch": 74, "duration": 2, "velocity": 88}, {"time": 3077, "pitch": 74, "duration": 1, "velocity": 86}, {"time": 3080, "pitch": 74, "duration": 2, "velocity": 91}, {"time": 3083, "pitch": 74, "duration": 2, "velocity": 95}, {"time": 3086, "pitch": 77, "duration": 9, "velocity": 86}, {"time": 3095, "pitch": 76, "duration": 18, "velocity": 88}, {"time": 3116, "pitch": 69, "duration": 3, "velocity": 88}, {"time": 3119, "pitch": 74, "duration": 3, "velocity": 88}, {"time": 3122, "pitch": 72, "duration": 3, "velocity": 88}, {"time": 3125, "pitch": 74, "duration": 3, "velocity": 87}, {"time": 3128, "pitch": 72, "duration": 3, "velocity": 87}, {"time": 3131, "pitch": 74, "duration": 3, "velocity": 89}, {"time": 3134, "pitch": 77, "duration": 6, "velocity": 88}, {"time": 3143, "pitch": 74, "duration": 2, "velocity": 88}, {"time": 3146, "pitch": 72, "duration": 2, "velocity": 88}, {"time": 3149, "pitch": 72, "duration": 3, "velocity": 87}, {"time": 3152, "pitch": 72, "duration": 2, "velocity": 86}, {"time": 3155, "pitch": 74, "duration": 5, "velocity": 86}, {"time": 3161, "pitch": 72, "duration": 5, "velocity": 85}, {"time": 3167, "pitch": 65, "duration": 2, "velocity": 90}, {"time": 3170, "pitch": 65, "duration": 2, "velocity": 85}, {"time": 3173, "pitch": 65, "duration": 2, "velocity": 86}, {"time": 3176, "pitch": 65, "duration": 2, "velocity": 86}, {"time": 3179, "pitch": 67, "duration": 6, "velocity": 90}, {"time": 3185, "pitch": 65, "duration": 2, "velocity": 86}, {"time": 3188, "pitch": 67, "duration": 6, "velocity": 86}, {"time": 3194, "pitch": 69, "duration": 10, "velocity": 86}, {"time": 3212, "pitch": 69, "duration": 3, "velocity": 84}, {"time": 3215, "pitch": 74, "duration": 3, "velocity": 91}, {"time": 3218, "pitch": 72, "duration": 3, "velocity": 87}, {"time": 3221, "pitch": 74, "duration": 3, "velocity": 86}, {"time": 3224, "pitch": 72, "duration": 3, "velocity": 86}, {"time": 3227, "pitch": 74, "duration": 3, "velocity": 93}, {"time": 3230, "pitch": 77, "duration": 7, "velocity": 91}, {"time": 3236, "pitch": 79, "duration": 5, "velocity": 86}, {"time": 3242, "pitch": 79, "duration": 2, "velocity": 84}, {"time": 3245, "pitch": 79, "duration": 2, "velocity": 85}, {"time": 3248, "pitch": 76, "duration": 2, "velocity": 84}, {"time": 3251, "pitch": 74, "duration": 2, "velocity": 88}, {"time": 3254, "pitch": 72, "duration": 8, "velocity": 91}, {"time": 3263, "pitch": 74, "duration": 2, "velocity": 84}, {"time": 3266, "pitch": 74, "duration": 2, "velocity": 88}, {"time": 3269, "pitch": 74, "duration": 1, "velocity": 86}, {"time": 3272, "pitch": 74, "duration": 2, "velocity": 91}, {"time": 3275, "pitch": 74, "duration": 2, "velocity": 95}, {"time": 3278, "pitch": 77, "duration": 9, "velocity": 86}, {"time": 3287, "pitch": 76, "duration": 12, "velocity": 88}, {"time": 3310, "pitch": 77, "duration": 8, "velocity": 90}, {"time": 3319, "pitch": 76, "duration": 10, "velocity": 90}, {"time": 3329, "pitch": 72, "duration": 6, "velocity": 88}, {"time": 3335, "pitch": 74, "duration": 58, "velocity": 90}]}, {"program": 0, "is_drum": false, "name": "PIANO", "notes": [{"time": 119, "pitch": 50, "duration": 22, "velocity": 88}, {"time": 122, "pitch": 57, "duration": 19, "velocity": 75}, {"time": 125, "pitch": 62, "duration": 4, "velocity": 85}, {"time": 128, "pitch": 65, "duration": 3, "velocity": 84}, {"time": 134, "pitch": 69, "duration": 2, "velocity": 85}, {"time": 140, "pitch": 62, "duration": 5, "velocity": 78}, {"time": 143, "pitch": 50, "duration": 19, "velocity": 84}, {"time": 146, "pitch": 57, "duration": 17, "velocity": 73}, {"time": 149, "pitch": 62, "duration": 4, "velocity": 85}, {"time": 152, "pitch": 69, "duration": 4, "velocity": 88}, {"time": 158, "pitch": 65, "duration": 2, "velocity": 87}, {"time": 161, "pitch": 62, "duration": 6, "velocity": 82}, {"time": 167, "pitch": 48, "duration": 22, "velocity": 85}, {"time": 170, "pitch": 55, "duration": 19, "velocity": 71}, {"time": 173, "pitch": 60, "duration": 10, "velocity": 86}, {"time": 176, "pitch": 69, "duration": 7, "velocity": 84}, {"time": 182, "pitch": 64, "duration": 13, "velocity": 84}, {"time": 188, "pitch": 60, "duration": 6, "velocity": 80}, {"time": 191, "pitch": 48, "duration": 15, "velocity": 84}, {"time": 194, "pitch": 55, "duration": 12, "velocity": 75}, {"time": 197, "pitch": 60, "duration": 4, "velocity": 84}, {"time": 200, "pitch": 64, "duration": 7, "velocity": 86}, {"time": 206, "pitch": 69, "duration": 10, "velocity": 85}, {"time": 209, "pitch": 60, "duration": 5, "velocity": 84}, {"time": 215, "pitch": 46, "duration": 22, "velocity": 86}, {"time": 218, "pitch": 53, "duration": 20, "velocity": 83}, {"time": 221, "pitch": 58, "duration": 5, "velocity": 72}, {"time": 224, "pitch": 65, "duration": 7, "velocity": 84}, {"time": 230, "pitch": 58, "duration": 9, "velocity": 76}, {"time": 233, "pitch": 62, "duration": 7, "velocity": 80}, {"time": 239, "pitch": 45, "duration": 23, "velocity": 77}, {"time": 242, "pitch": 52, "duration": 19, "velocity": 74}, {"time": 245, "pitch": 57, "duration": 4, "velocity": 85}, {"time": 248, "pitch": 64, "duration": 7, "velocity": 89}, {"time": 254, "pitch": 61, "duration": 3, "velocity": 90}, {"time": 257, "pitch": 57, "duration": 7, "velocity": 86}, {"time": 263, "pitch": 50, "duration": 17, "velocity": 95}, {"time": 266, "pitch": 57, "duration": 6, "velocity": 86}, {"time": 269, "pitch": 62, "duration": 4, "velocity": 83}, {"time": 272, "pitch": 65, "duration": 8, "velocity": 84}, {"time": 278, "pitch": 57, "duration": 6, "velocity": 81}, {"time": 281, "pitch": 62, "duration": 12, "velocity": 78}, {"time": 284, "pitch": 69, "duration": 10, "velocity": 79}, {"time": 287, "pitch": 38, "duration": 17, "velocity": 86}, {"time": 290, "pitch": 45, "duration": 13, "velocity": 71}, {"time": 293, "pitch": 57, "duration": 8, "velocity": 84}, {"time": 296, "pitch": 69, "duration": 22, "velocity": 85}, {"time": 302, "pitch": 62, "duration": 8, "velocity": 74}, {"time": 305, "pitch": 57, "duration": 6, "velocity": 69}, {"time": 311, "pitch": 38, "duration": 15, "velocity": 87}, {"time": 314, "pitch": 45, "duration": 11, "velocity": 70}, {"time": 317, "pitch": 57, "duration": 5, "velocity": 77}, {"time": 320, "pitch": 62, "duration": 8, "velocity": 79}, {"time": 326, "pitch": 69, "duration": 15, "velocity": 82}, {"time": 329, "pitch": 57, "duration": 3, "velocity": 74}, {"time": 335, "pitch": 48, "duration": 18, "velocity": 87}, {"time": 338, "pitch": 55, "duration": 16, "velocity": 75}, {"time": 341, "pitch": 60, "duration": 10, "velocity": 75}, {"time": 344, "pitch": 69, "duration": 20, "velocity": 78}, {"time": 353, "pitch": 60, "duration": 6, "velocity": 73}, {"time": 359, "pitch": 50, "duration": 21, "velocity": 87}, {"time": 362, "pitch": 57, "duration": 13, "velocity": 74}, {"time": 365, "pitch": 62, "duration": 4, "velocity": 74}, {"time": 368, "pitch": 69, "duration": 24, "velocity": 84}, {"time": 377, "pitch": 57, "duration": 4, "velocity": 72}, {"time": 380, "pitch": 62, "duration": 4, "velocity": 71}, {"time": 383, "pitch": 50, "duration": 20, "velocity": 86}, {"time": 383, "pitch": 67, "duration": 1, "velocity": 68}, {"time": 389, "pitch": 57, "duration": 8, "velocity": 78}, {"time": 392, "pitch": 65, "duration": 10, "velocity": 85}, {"time": 398, "pitch": 57, "duration": 6, "velocity": 78}, {"time": 401, "pitch": 64, "duration": 6, "velocity": 88}, {"time": 407, "pitch": 50, "duration": 21, "velocity": 89}, {"time": 407, "pitch": 65, "duration": 7, "velocity": 76}, {"time": 410, "pitch": 57, "duration": 13, "velocity": 78}, {"time": 413, "pitch": 62, "duration": 4, "velocity": 77}, {"time": 416, "pitch": 69, "duration": 20, "velocity": 85}, {"time": 425, "pitch": 57, "duration": 4, "velocity": 74}, {"time": 428, "pitch": 62, "duration": 4, "velocity": 79}, {"time": 431, "pitch": 48, "duration": 21, "velocity": 87}, {"time": 434, "pitch": 55, "duration": 12, "velocity": 77}, {"time": 437, "pitch": 60, "duration": 12, "velocity": 82}, {"time": 440, "pitch": 69, "duration": 21, "velocity": 84}, {"time": 449, "pitch": 55, "duration": 4, "velocity": 78}, {"time": 452, "pitch": 60, "duration": 3, "velocity": 76}, {"time": 455, "pitch": 50, "duration": 21, "velocity": 91}, {"time": 458, "pitch": 57, "duration": 10, "velocity": 75}, {"time": 461, "pitch": 62, "duration": 4, "velocity": 79}, {"time": 464, "pitch": 69, "duration": 9, "velocity": 85}, {"time": 470, "pitch": 57, "duration": 8, "velocity": 79}, {"time": 473, "pitch": 62, "duration": 4, "velocity": 83}, {"time": 476, "pitch": 69, "duration": 10, "velocity": 84}, {"time": 479, "pitch": 50, "duration": 20, "velocity": 85}, {"time": 482, "pitch": 57, "duration": 17, "velocity": 75}, {"time": 485, "pitch": 62, "duration": 4, "velocity": 80}, {"time": 488, "pitch": 69, "duration": 10, "velocity": 85}, {"time": 497, "pitch": 67, "duration": 7, "velocity": 86}, {"time": 503, "pitch": 46, "duration": 22, "velocity": 91}, {"time": 503, "pitch": 65, "duration": 6, "velocity": 81}, {"time": 506, "pitch": 53, "duration": 13, "velocity": 85}, {"time": 509, "pitch": 58, "duration": 11, "velocity": 76}, {"time": 512, "pitch": 65, "duration": 13, "velocity": 89}, {"time": 521, "pitch": 53, "duration": 5, "velocity": 83}, {"time": 524, "pitch": 58, "duration": 4, "velocity": 86}, {"time": 527, "pitch": 48, "duration": 21, "velocity": 89}, {"time": 530, "pitch": 60, "duration": 5, "velocity": 85}, {"time": 533, "pitch": 64, "duration": 2, "velocity": 80}, {"time": 536, "pitch": 67, "duration": 5, "velocity": 87}, {"time": 542, "pitch": 64, "duration": 3, "velocity": 84}, {"time": 545, "pitch": 60, "duration": 7, "velocity": 77}, {"time": 551, "pitch": 45, "duration": 20, "velocity": 85}, {"time": 554, "pitch": 52, "duration": 10, "velocity": 79}, {"time": 557, "pitch": 57, "duration": 4, "velocity": 85}, {"time": 560, "pitch": 64, "duration": 10, "velocity": 85}, {"time": 566, "pitch": 52, "duration": 5, "velocity": 84}, {"time": 569, "pitch": 57, "duration": 6, "velocity": 77}, {"time": 575, "pitch": 50, "duration": 18, "velocity": 86}, {"time": 575, "pitch": 65, "duration": 7, "velocity": 86}, {"time": 578, "pitch": 53, "duration": 15, "velocity": 73}, {"time": 581, "pitch": 57, "duration": 4, "velocity": 87}, {"time": 584, "pitch": 65, "duration": 10, "velocity": 87}, {"time": 590, "pitch": 57, "duration": 4, "velocity": 85}, {"time": 593, "pitch": 64, "duration": 7, "velocity": 85}, {"time": 596, "pitch": 57, "duration": 3, "velocity": 80}, {"time": 599, "pitch": 46, "duration": 21, "velocity": 86}, {"time": 599, "pitch": 62, "duration": 6, "velocity": 84}, {"time": 602, "pitch": 53, "duration": 19, "velocity": 79}, {"time": 605, "pitch": 58, "duration": 5, "velocity": 84}, {"time": 608, "pitch": 65, "duration": 7, "velocity": 86}, {"time": 614, "pitch": 58, "duration": 4, "velocity": 86}, {"time": 617, "pitch": 65, "duration": 4, "velocity": 85}, {"time": 620, "pitch": 58, "duration": 3, "velocity": 85}, {"time": 623, "pitch": 48, "duration": 20, "velocity": 90}, {"time": 626, "pitch": 55, "duration": 10, "velocity": 80}, {"time": 629, "pitch": 60, "duration": 4, "velocity": 88}, {"time": 632, "pitch": 64, "duration": 11, "velocity": 91}, {"time": 638, "pitch": 55, "duration": 4, "velocity": 75}, {"time": 641, "pitch": 60, "duration": 5, "velocity": 84}, {"time": 647, "pitch": 50, "duration": 22, "velocity": 89}, {"time": 650, "pitch": 57, "duration": 4, "velocity": 86}, {"time": 653, "pitch": 62, "duration": 4, "velocity": 80}, {"time": 656, "pitch": 69, "duration": 8, "velocity": 88}, {"time": 662, "pitch": 57, "duration": 6, "velocity": 83}, {"time": 665, "pitch": 62, "duration": 9, "velocity": 84}, {"time": 668, "pitch": 69, "duration": 6, "velocity": 87}, {"time": 671, "pitch": 50, "duration": 25, "velocity": 87}, {"time": 674, "pitch": 57, "duration": 5, "velocity": 85}, {"time": 677, "pitch": 62, "duration": 4, "velocity": 85}, {"time": 680, "pitch": 67, "duration": 10, "velocity": 85}, {"time": 686, "pitch": 57, "duration": 3, "velocity": 85}, {"time": 689, "pitch": 65, "duration": 4, "velocity": 84}, {"time": 692, "pitch": 64, "duration": 3, "velocity": 86}, {"time": 695, "pitch": 38, "duration": 15, "velocity": 87}, {"time": 698, "pitch": 45, "duration": 11, "velocity": 70}, {"time": 701, "pitch": 57, "duration": 5, "velocity": 77}, {"time": 704, "pitch": 62, "duration": 8, "velocity": 79}, {"time": 710, "pitch": 69, "duration": 15, "velocity": 82}, {"time": 713, "pitch": 57, "duration": 3, "velocity": 74}, {"time": 719, "pitch": 48, "duration": 18, "velocity": 87}, {"time": 722, "pitch": 55, "duration": 16, "velocity": 75}, {"time": 725, "pitch": 60, "duration": 10, "velocity": 75}, {"time": 728, "pitch": 69, "duration": 20, "velocity": 78}, {"time": 737, "pitch": 60, "duration": 6, "velocity": 73}, {"time": 743, "pitch": 50, "duration": 21, "velocity": 87}, {"time": 746, "pitch": 57, "duration": 13, "velocity": 74}, {"time": 749, "pitch": 62, "duration": 4, "velocity": 74}, {"time": 752, "pitch": 69, "duration": 24, "velocity": 84}, {"time": 761, "pitch": 57, "duration": 4, "velocity": 72}, {"time": 764, "pitch": 62, "duration": 4, "velocity": 71}, {"time": 767, "pitch": 50, "duration": 20, "velocity": 86}, {"time": 767, "pitch": 67, "duration": 1, "velocity": 68}, {"time": 773, "pitch": 57, "duration": 8, "velocity": 78}, {"time": 776, "pitch": 65, "duration": 10, "velocity": 85}, {"time": 782, "pitch": 57, "duration": 6, "velocity": 78}, {"time": 785, "pitch": 64, "duration": 6, "velocity": 88}, {"time": 791, "pitch": 50, "duration": 21, "velocity": 89}, {"time": 791, "pitch": 65, "duration": 7, "velocity": 76}, {"time": 794, "pitch": 57, "duration": 13, "velocity": 78}, {"time": 797, "pitch": 62, "duration": 4, "velocity": 77}, {"time": 800, "pitch": 69, "duration": 20, "velocity": 85}, {"time": 809, "pitch": 57, "duration": 4, "velocity": 74}, {"time": 812, "pitch": 62, "duration": 4, "velocity": 79}, {"time": 815, "pitch": 48, "duration": 21, "velocity": 87}, {"time": 818, "pitch": 55, "duration": 12, "velocity": 77}, {"time": 821, "pitch": 60, "duration": 12, "velocity": 82}, {"time": 824, "pitch": 69, "duration": 21, "velocity": 84}, {"time": 833, "pitch": 55, "duration": 4, "velocity": 78}, {"time": 836, "pitch": 60, "duration": 3, "velocity": 76}, {"time": 839, "pitch": 50, "duration": 21, "velocity": 91}, {"time": 842, "pitch": 57, "duration": 10, "velocity": 75}, {"time": 845, "pitch": 62, "duration": 4, "velocity": 79}, {"time": 848, "pitch": 69, "duration": 9, "velocity": 85}, {"time": 854, "pitch": 57, "duration": 8, "velocity": 79}, {"time": 857, "pitch": 62, "duration": 4, "velocity": 83}, {"time": 860, "pitch": 69, "duration": 10, "velocity": 84}, {"time": 863, "pitch": 50, "duration": 20, "velocity": 85}, {"time": 866, "pitch": 57, "duration": 17, "velocity": 75}, {"time": 869, "pitch": 62, "duration": 4, "velocity": 80}, {"time": 872, "pitch": 69, "duration": 10, "velocity": 85}, {"time": 881, "pitch": 67, "duration": 7, "velocity": 86}, {"time": 887, "pitch": 46, "duration": 22, "velocity": 91}, {"time": 887, "pitch": 65, "duration": 6, "velocity": 81}, {"time": 890, "pitch": 53, "duration": 13, "velocity": 85}, {"time": 893, "pitch": 58, "duration": 11, "velocity": 76}, {"time": 896, "pitch": 65, "duration": 13, "velocity": 89}, {"time": 905, "pitch": 53, "duration": 5, "velocity": 83}, {"time": 908, "pitch": 58, "duration": 4, "velocity": 86}, {"time": 911, "pitch": 48, "duration": 21, "velocity": 89}, {"time": 914, "pitch": 60, "duration": 5, "velocity": 85}, {"time": 917, "pitch": 64, "duration": 2, "velocity": 80}, {"time": 920, "pitch": 67, "duration": 5, "velocity": 87}, {"time": 926, "pitch": 64, "duration": 3, "velocity": 84}, {"time": 929, "pitch": 60, "duration": 7, "velocity": 77}, {"time": 935, "pitch": 45, "duration": 20, "velocity": 85}, {"time": 938, "pitch": 52, "duration": 10, "velocity": 79}, {"time": 941, "pitch": 57, "duration": 4, "velocity": 85}, {"time": 944, "pitch": 64, "duration": 10, "velocity": 85}, {"time": 950, "pitch": 52, "duration": 5, "velocity": 84}, {"time": 953, "pitch": 57, "duration": 6, "velocity": 77}, {"time": 959, "pitch": 50, "duration": 18, "velocity": 86}, {"time": 959, "pitch": 65, "duration": 7, "velocity": 86}, {"time": 962, "pitch": 53, "duration": 15, "velocity": 73}, {"time": 965, "pitch": 57, "duration": 4, "velocity": 87}, {"time": 968, "pitch": 65, "duration": 10, "velocity": 87}, {"time": 974, "pitch": 57, "duration": 4, "velocity": 85}, {"time": 977, "pitch": 64, "duration": 7, "velocity": 85}, {"time": 980, "pitch": 57, "duration": 3, "velocity": 80}, {"time": 983, "pitch": 46, "duration": 21, "velocity": 86}, {"time": 983, "pitch": 62, "duration": 6, "velocity": 84}, {"time": 986, "pitch": 53, "duration": 19, "velocity": 79}, {"time": 989, "pitch": 58, "duration": 5, "velocity": 84}, {"time": 992, "pitch": 65, "duration": 7, "velocity": 86}, {"time": 998, "pitch": 58, "duration": 4, "velocity": 86}, {"time": 1001, "pitch": 65, "duration": 4, "velocity": 85}, {"time": 1004, "pitch": 58, "duration": 3, "velocity": 85}, {"time": 1007, "pitch": 48, "duration": 20, "velocity": 90}, {"time": 1010, "pitch": 55, "duration": 10, "velocity": 80}, {"time": 1013, "pitch": 60, "duration": 4, "velocity": 88}, {"time": 1016, "pitch": 64, "duration": 11, "velocity": 91}, {"time": 1022, "pitch": 55, "duration": 4, "velocity": 75}, {"time": 1025, "pitch": 60, "duration": 5, "velocity": 84}, {"time": 1031, "pitch": 50, "duration": 22, "velocity": 89}, {"time": 1034, "pitch": 57, "duration": 4, "velocity": 86}, {"time": 1037, "pitch": 62, "duration": 4, "velocity": 80}, {"time": 1040, "pitch": 69, "duration": 8, "velocity": 88}, {"time": 1046, "pitch": 57, "duration": 6, "velocity": 83}, {"time": 1049, "pitch": 62, "duration": 9, "velocity": 84}, {"time": 1052, "pitch": 69, "duration": 6, "velocity": 87}, {"time": 1055, "pitch": 50, "duration": 25, "velocity": 87}, {"time": 1058, "pitch": 57, "duration": 5, "velocity": 85}, {"time": 1061, "pitch": 62, "duration": 4, "velocity": 85}, {"time": 1064, "pitch": 67, "duration": 9, "velocity": 85}, {"time": 1070, "pitch": 57, "duration": 3, "velocity": 85}, {"time": 1073, "pitch": 67, "duration": 4, "velocity": 84}, {"time": 1076, "pitch": 65, "duration": 3, "velocity": 86}, {"time": 1079, "pitch": 43, "duration": 44, "velocity": 85}, {"time": 1079, "pitch": 55, "duration": 4, "velocity": 76}, {"time": 1079, "pitch": 58, "duration": 6, "velocity": 74}, {"time": 1079, "pitch": 62, "duration": 8, "velocity": 82}, {"time": 1082, "pitch": 50, "duration": 22, "velocity": 76}, {"time": 1085, "pitch": 55, "duration": 14, "velocity": 82}, {"time": 1088, "pitch": 67, "duration": 13, "velocity": 86}, {"time": 1103, "pitch": 58, "duration": 7, "velocity": 86}, {"time": 1103, "pitch": 62, "duration": 7, "velocity": 86}, {"time": 1106, "pitch": 50, "duration": 11, "velocity": 79}, {"time": 1109, "pitch": 55, "duration": 12, "velocity": 86}, {"time": 1112, "pitch": 58, "duration": 10, "velocity": 86}, {"time": 1112, "pitch": 62, "duration": 11, "velocity": 87}, {"time": 1121, "pitch": 50, "duration": 4, "velocity": 84}, {"time": 1127, "pitch": 45, "duration": 19, "velocity": 86}, {"time": 1127, "pitch": 57, "duration": 6, "velocity": 75}, {"time": 1127, "pitch": 64, "duration": 9, "velocity": 84}, {"time": 1133, "pitch": 52, "duration": 12, "velocity": 80}, {"time": 1136, "pitch": 57, "duration": 6, "velocity": 90}, {"time": 1142, "pitch": 60, "duration": 3, "velocity": 91}, {"time": 1145, "pitch": 57, "duration": 3, "velocity": 85}, {"time": 1151, "pitch": 38, "duration": 18, "velocity": 86}, {"time": 1151, "pitch": 57, "duration": 4, "velocity": 79}, {"time": 1151, "pitch": 65, "duration": 7, "velocity": 84}, {"time": 1154, "pitch": 45, "duration": 14, "velocity": 78}, {"time": 1157, "pitch": 57, "duration": 3, "velocity": 80}, {"time": 1160, "pitch": 65, "duration": 9, "velocity": 86}, {"time": 1169, "pitch": 64, "duration": 7, "velocity": 85}, {"time": 1175, "pitch": 43, "duration": 22, "velocity": 85}, {"time": 1175, "pitch": 62, "duration": 6, "velocity": 84}, {"time": 1178, "pitch": 50, "duration": 18, "velocity": 75}, {"time": 1181, "pitch": 55, "duration": 13, "velocity": 84}, {"time": 1184, "pitch": 58, "duration": 9, "velocity": 85}, {"time": 1184, "pitch": 62, "duration": 10, "velocity": 85}, {"time": 1199, "pitch": 43, "duration": 20, "velocity": 85}, {"time": 1199, "pitch": 55, "duration": 4, "velocity": 84}, {"time": 1199, "pitch": 67, "duration": 10, "velocity": 80}, {"time": 1202, "pitch": 50, "duration": 17, "velocity": 82}, {"time": 1205, "pitch": 55, "duration": 4, "velocity": 88}, {"time": 1208, "pitch": 62, "duration": 7, "velocity": 85}, {"time": 1214, "pitch": 58, "duration": 4, "velocity": 76}, {"time": 1217, "pitch": 55, "duration": 2, "velocity": 88}, {"time": 1223, "pitch": 45, "duration": 20, "velocity": 86}, {"time": 1223, "pitch": 57, "duration": 6, "velocity": 80}, {"time": 1223, "pitch": 61, "duration": 8, "velocity": 75}, {"time": 1229, "pitch": 52, "duration": 11, "velocity": 79}, {"time": 1232, "pitch": 57, "duration": 4, "velocity": 87}, {"time": 1238, "pitch": 57, "duration": 1, "velocity": 85}, {"time": 1238, "pitch": 61, "duration": 4, "velocity": 91}, {"time": 1238, "pitch": 64, "duration": 5, "velocity": 88}, {"time": 1247, "pitch": 45, "duration": 2, "velocity": 89}, {"time": 1247, "pitch": 57, "duration": 2, "velocity": 81}, {"time": 1247, "pitch": 61, "duration": 2, "velocity": 80}, {"time": 1247, "pitch": 64, "duration": 2, "velocity": 86}, {"time": 1247, "pitch": 69, "duration": 2, "velocity": 78}, {"time": 1250, "pitch": 45, "duration": 2, "velocity": 88}, {"time": 1250, "pitch": 57, "duration": 3, "velocity": 86}, {"time": 1250, "pitch": 61, "duration": 2, "velocity": 89}, {"time": 1250, "pitch": 64, "duration": 3, "velocity": 89}, {"time": 1250, "pitch": 69, "duration": 2, "velocity": 85}, {"time": 1259, "pitch": 45, "duration": 6, "velocity": 90}, {"time": 1259, "pitch": 52, "duration": 6, "velocity": 85}, {"time": 1259, "pitch": 57, "duration": 6, "velocity": 77}, {"time": 1259, "pitch": 61, "duration": 7, "velocity": 73}, {"time": 1259, "pitch": 64, "duration": 9, "velocity": 83}, {"time": 1271, "pitch": 50, "duration": 16, "velocity": 85}, {"time": 1271, "pitch": 57, "duration": 2, "velocity": 79}, {"time": 1271, "pitch": 62, "duration": 4, "velocity": 81}, {"time": 1274, "pitch": 57, "duration": 4, "velocity": 84}, {"time": 1277, "pitch": 62, "duration": 4, "velocity": 81}, {"time": 1280, "pitch": 57, "duration": 1, "velocity": 72}, {"time": 1283, "pitch": 65, "duration": 4, "velocity": 100}, {"time": 1286, "pitch": 57, "duration": 3, "velocity": 81}, {"time": 1289, "pitch": 62, "duration": 2, "velocity": 91}, {"time": 1295, "pitch": 48, "duration": 16, "velocity": 93}, {"time": 1295, "pitch": 55, "duration": 2, "velocity": 86}, {"time": 1295, "pitch": 60, "duration": 4, "velocity": 86}, {"time": 1298, "pitch": 55, "duration": 3, "velocity": 81}, {"time": 1301, "pitch": 60, "duration": 3, "velocity": 73}, {"time": 1304, "pitch": 55, "duration": 2, "velocity": 78}, {"time": 1307, "pitch": 55, "duration": 2, "velocity": 91}, {"time": 1307, "pitch": 64, "duration": 4, "velocity": 87}, {"time": 1310, "pitch": 55, "duration": 2, "velocity": 89}, {"time": 1313, "pitch": 60, "duration": 1, "velocity": 87}, {"time": 1319, "pitch": 46, "duration": 3, "velocity": 98}, {"time": 1319, "pitch": 53, "duration": 2, "velocity": 84}, {"time": 1319, "pitch": 58, "duration": 3, "velocity": 84}, {"time": 1322, "pitch": 53, "duration": 3, "velocity": 83}, {"time": 1325, "pitch": 58, "duration": 3, "velocity": 84}, {"time": 1328, "pitch": 53, "duration": 2, "velocity": 85}, {"time": 1331, "pitch": 48, "duration": 9, "velocity": 87}, {"time": 1331, "pitch": 55, "duration": 2, "velocity": 85}, {"time": 1331, "pitch": 60, "duration": 4, "velocity": 84}, {"time": 1334, "pitch": 55, "duration": 3, "velocity": 84}, {"time": 1337, "pitch": 60, "duration": 4, "velocity": 81}, {"time": 1340, "pitch": 55, "duration": 2, "velocity": 77}, {"time": 1343, "pitch": 41, "duration": 7, "velocity": 88}, {"time": 1343, "pitch": 53, "duration": 3, "velocity": 86}, {"time": 1343, "pitch": 57, "duration": 5, "velocity": 85}, {"time": 1346, "pitch": 48, "duration": 4, "velocity": 84}, {"time": 1349, "pitch": 53, "duration": 4, "velocity": 86}, {"time": 1352, "pitch": 57, "duration": 2, "velocity": 86}, {"time": 1355, "pitch": 45, "duration": 10, "velocity": 91}, {"time": 1355, "pitch": 57, "duration": 4, "velocity": 82}, {"time": 1355, "pitch": 61, "duration": 5, "velocity": 89}, {"time": 1358, "pitch": 52, "duration": 7, "velocity": 85}, {"time": 1361, "pitch": 57, "duration": 4, "velocity": 90}, {"time": 1364, "pitch": 61, "duration": 1, "velocity": 93}, {"time": 1367, "pitch": 50, "duration": 13, "velocity": 98}, {"time": 1367, "pitch": 57, "duration": 2, "velocity": 85}, {"time": 1367, "pitch": 62, "duration": 3, "velocity": 88}, {"time": 1370, "pitch": 57, "duration": 3, "velocity": 80}, {"time": 1373, "pitch": 62, "duration": 2, "velocity": 76}, {"time": 1376, "pitch": 57, "duration": 1, "velocity": 75}, {"time": 1379, "pitch": 57, "duration": 1, "velocity": 85}, {"time": 1379, "pitch": 62, "duration": 3, "velocity": 89}, {"time": 1379, "pitch": 65, "duration": 5, "velocity": 91}, {"time": 1382, "pitch": 57, "duration": 3, "velocity": 78}, {"time": 1385, "pitch": 62, "duration": 3, "velocity": 76}, {"time": 1388, "pitch": 57, "duration": 2, "velocity": 76}, {"time": 1391, "pitch": 48, "duration": 15, "velocity": 90}, {"time": 1391, "pitch": 55, "duration": 2, "velocity": 85}, {"time": 1391, "pitch": 60, "duration": 4, "velocity": 85}, {"time": 1394, "pitch": 55, "duration": 3, "velocity": 83}, {"time": 1397, "pitch": 60, "duration": 2, "velocity": 74}, {"time": 1400, "pitch": 55, "duration": 2, "velocity": 74}, {"time": 1403, "pitch": 55, "duration": 2, "velocity": 85}, {"time": 1403, "pitch": 64, "duration": 4, "velocity": 86}, {"time": 1406, "pitch": 55, "duration": 2, "velocity": 85}, {"time": 1409, "pitch": 60, "duration": 3, "velocity": 84}, {"time": 1412, "pitch": 55, "duration": 2, "velocity": 84}, {"time": 1415, "pitch": 46, "duration": 15, "velocity": 90}, {"time": 1415, "pitch": 53, "duration": 2, "velocity": 86}, {"time": 1415, "pitch": 58, "duration": 4, "velocity": 84}, {"time": 1418, "pitch": 53, "duration": 2, "velocity": 77}, {"time": 1421, "pitch": 58, "duration": 3, "velocity": 70}, {"time": 1424, "pitch": 53, "duration": 2, "velocity": 85}, {"time": 1427, "pitch": 53, "duration": 1, "velocity": 88}, {"time": 1427, "pitch": 58, "duration": 3, "velocity": 91}, {"time": 1427, "pitch": 62, "duration": 4, "velocity": 87}, {"time": 1430, "pitch": 53, "duration": 3, "velocity": 84}, {"time": 1433, "pitch": 58, "duration": 3, "velocity": 76}, {"time": 1436, "pitch": 53, "duration": 1, "velocity": 73}, {"time": 1439, "pitch": 45, "duration": 15, "velocity": 88}, {"time": 1439, "pitch": 57, "duration": 2, "velocity": 84}, {"time": 1439, "pitch": 61, "duration": 3, "velocity": 86}, {"time": 1442, "pitch": 52, "duration": 10, "velocity": 86}, {"time": 1445, "pitch": 57, "duration": 2, "velocity": 93}, {"time": 1448, "pitch": 61, "duration": 1, "velocity": 85}, {"time": 1448, "pitch": 64, "duration": 1, "velocity": 86}, {"time": 1451, "pitch": 57, "duration": 3, "velocity": 93}, {"time": 1451, "pitch": 61, "duration": 4, "velocity": 98}, {"time": 1451, "pitch": 64, "duration": 4, "velocity": 95}, {"time": 1451, "pitch": 69, "duration": 4, "velocity": 89}, {"time": 1454, "pitch": 52, "duration": 2, "velocity": 105}, {"time": 1457, "pitch": 57, "duration": 4, "velocity": 91}, {"time": 1460, "pitch": 61, "duration": 1, "velocity": 81}, {"time": 1463, "pitch": 50, "duration": 14, "velocity": 93}, {"time": 1463, "pitch": 57, "duration": 2, "velocity": 83}, {"time": 1463, "pitch": 62, "duration": 3, "velocity": 85}, {"time": 1466, "pitch": 57, "duration": 2, "velocity": 82}, {"time": 1469, "pitch": 62, "duration": 2, "velocity": 77}, {"time": 1472, "pitch": 57, "duration": 1, "velocity": 82}, {"time": 1475, "pitch": 57, "duration": 1, "velocity": 85}, {"time": 1475, "pitch": 65, "duration": 5, "velocity": 84}, {"time": 1478, "pitch": 57, "duration": 3, "velocity": 85}, {"time": 1481, "pitch": 62, "duration": 3, "velocity": 85}, {"time": 1484, "pitch": 57, "duration": 2, "velocity": 85}, {"time": 1487, "pitch": 48, "duration": 15, "velocity": 90}, {"time": 1487, "pitch": 60, "duration": 3, "velocity": 86}, {"time": 1490, "pitch": 55, "duration": 2, "velocity": 86}, {"time": 1493, "pitch": 60, "duration": 3, "velocity": 78}, {"time": 1496, "pitch": 55, "duration": 2, "velocity": 85}, {"time": 1499, "pitch": 55, "duration": 1, "velocity": 88}, {"time": 1499, "pitch": 60, "duration": 2, "velocity": 91}, {"time": 1499, "pitch": 64, "duration": 4, "velocity": 91}, {"time": 1502, "pitch": 55, "duration": 3, "velocity": 84}, {"time": 1505, "pitch": 60, "duration": 3, "velocity": 80}, {"time": 1508, "pitch": 55, "duration": 2, "velocity": 84}, {"time": 1511, "pitch": 46, "duration": 10, "velocity": 87}, {"time": 1511, "pitch": 58, "duration": 4, "velocity": 84}, {"time": 1511, "pitch": 62, "duration": 3, "velocity": 84}, {"time": 1514, "pitch": 53, "duration": 3, "velocity": 86}, {"time": 1517, "pitch": 58, "duration": 4, "velocity": 85}, {"time": 1520, "pitch": 53, "duration": 1, "velocity": 84}, {"time": 1523, "pitch": 48, "duration": 5, "velocity": 91}, {"time": 1523, "pitch": 55, "duration": 2, "velocity": 86}, {"time": 1523, "pitch": 60, "duration": 4, "velocity": 84}, {"time": 1526, "pitch": 55, "duration": 2, "velocity": 85}, {"time": 1529, "pitch": 60, "duration": 3, "velocity": 84}, {"time": 1532, "pitch": 55, "duration": 2, "velocity": 84}, {"time": 1535, "pitch": 41, "duration": 16, "velocity": 85}, {"time": 1535, "pitch": 53, "duration": 3, "velocity": 86}, {"time": 1535, "pitch": 57, "duration": 3, "velocity": 86}, {"time": 1538, "pitch": 48, "duration": 12, "velocity": 85}, {"time": 1541, "pitch": 53, "duration": 4, "velocity": 91}, {"time": 1544, "pitch": 57, "duration": 2, "velocity": 80}, {"time": 1547, "pitch": 57, "duration": 1, "velocity": 73}, {"time": 1547, "pitch": 65, "duration": 4, "velocity": 93}, {"time": 1550, "pitch": 60, "duration": 4, "velocity": 88}, {"time": 1553, "pitch": 53, "duration": 4, "velocity": 91}, {"time": 1556, "pitch": 57, "duration": 2, "velocity": 84}, {"time": 1559, "pitch": 50, "duration": 15, "velocity": 93}, {"time": 1562, "pitch": 57, "duration": 4, "velocity": 86}, {"time": 1565, "pitch": 62, "duration": 2, "velocity": 84}, {"time": 1568, "pitch": 57, "duration": 1, "velocity": 74}, {"time": 1571, "pitch": 57, "duration": 1, "velocity": 85}, {"time": 1571, "pitch": 62, "duration": 3, "velocity": 91}, {"time": 1571, "pitch": 65, "duration": 4, "velocity": 89}, {"time": 1574, "pitch": 57, "duration": 4, "velocity": 81}, {"time": 1577, "pitch": 62, "duration": 3, "velocity": 81}, {"time": 1580, "pitch": 57, "duration": 1, "velocity": 78}, {"time": 1583, "pitch": 48, "duration": 16, "velocity": 91}, {"time": 1583, "pitch": 55, "duration": 2, "velocity": 88}, {"time": 1583, "pitch": 60, "duration": 3, "velocity": 86}, {"time": 1586, "pitch": 55, "duration": 3, "velocity": 85}, {"time": 1589, "pitch": 60, "duration": 2, "velocity": 76}, {"time": 1592, "pitch": 55, "duration": 2, "velocity": 80}, {"time": 1595, "pitch": 55, "duration": 1, "velocity": 79}, {"time": 1595, "pitch": 60, "duration": 2, "velocity": 95}, {"time": 1595, "pitch": 64, "duration": 4, "velocity": 91}, {"time": 1598, "pitch": 55, "duration": 3, "velocity": 86}, {"time": 1601, "pitch": 60, "duration": 2, "velocity": 84}, {"time": 1607, "pitch": 46, "duration": 18, "velocity": 87}, {"time": 1607, "pitch": 53, "duration": 2, "velocity": 85}, {"time": 1607, "pitch": 58, "duration": 3, "velocity": 88}, {"time": 1607, "pitch": 62, "duration": 4, "velocity": 87}, {"time": 1610, "pitch": 53, "duration": 3, "velocity": 79}, {"time": 1613, "pitch": 58, "duration": 3, "velocity": 76}, {"time": 1616, "pitch": 53, "duration": 3, "velocity": 84}, {"time": 1619, "pitch": 53, "duration": 3, "velocity": 88}, {"time": 1619, "pitch": 58, "duration": 3, "velocity": 85}, {"time": 1619, "pitch": 62, "duration": 4, "velocity": 88}, {"time": 1625, "pitch": 53, "duration": 2, "velocity": 80}, {"time": 1625, "pitch": 58, "duration": 3, "velocity": 73}, {"time": 1631, "pitch": 45, "duration": 22, "velocity": 87}, {"time": 1631, "pitch": 57, "duration": 3, "velocity": 80}, {"time": 1631, "pitch": 61, "duration": 4, "velocity": 87}, {"time": 1634, "pitch": 52, "duration": 19, "velocity": 89}, {"time": 1637, "pitch": 57, "duration": 5, "velocity": 90}, {"time": 1640, "pitch": 61, "duration": 4, "velocity": 88}, {"time": 1643, "pitch": 64, "duration": 4, "velocity": 85}, {"time": 1646, "pitch": 69, "duration": 7, "velocity": 88}, {"time": 1649, "pitch": 57, "duration": 3, "velocity": 87}, {"time": 1655, "pitch": 50, "duration": 15, "velocity": 98}, {"time": 1655, "pitch": 57, "duration": 3, "velocity": 86}, {"time": 1655, "pitch": 62, "duration": 4, "velocity": 90}, {"time": 1658, "pitch": 53, "duration": 12, "velocity": 78}, {"time": 1661, "pitch": 57, "duration": 3, "velocity": 89}, {"time": 1664, "pitch": 65, "duration": 10, "velocity": 89}, {"time": 1670, "pitch": 57, "duration": 4, "velocity": 79}, {"time": 1673, "pitch": 62, "duration": 4, "velocity": 77}, {"time": 1676, "pitch": 57, "duration": 3, "velocity": 86}, {"time": 1679, "pitch": 38, "duration": 25, "velocity": 89}, {"time": 1682, "pitch": 45, "duration": 22, "velocity": 79}, {"time": 1685, "pitch": 50, "duration": 5, "velocity": 86}, {"time": 1688, "pitch": 53, "duration": 3, "velocity": 85}, {"time": 1691, "pitch": 62, "duration": 3, "velocity": 90}, {"time": 1694, "pitch": 57, "duration": 4, "velocity": 84}, {"time": 1697, "pitch": 53, "duration": 4, "velocity": 83}, {"time": 1700, "pitch": 50, "duration": 3, "velocity": 89}, {"time": 1703, "pitch": 50, "duration": 22, "velocity": 88}, {"time": 1706, "pitch": 57, "duration": 19, "velocity": 75}, {"time": 1709, "pitch": 62, "duration": 4, "velocity": 85}, {"time": 1712, "pitch": 65, "duration": 3, "velocity": 84}, {"time": 1718, "pitch": 69, "duration": 2, "velocity": 85}, {"time": 1724, "pitch": 62, "duration": 5, "velocity": 78}, {"time": 1727, "pitch": 50, "duration": 19, "velocity": 84}, {"time": 1730, "pitch": 57, "duration": 17, "velocity": 73}, {"time": 1733, "pitch": 62, "duration": 4, "velocity": 85}, {"time": 1736, "pitch": 69, "duration": 4, "velocity": 88}, {"time": 1742, "pitch": 65, "duration": 2, "velocity": 87}, {"time": 1745, "pitch": 62, "duration": 6, "velocity": 82}, {"time": 1751, "pitch": 48, "duration": 22, "velocity": 85}, {"time": 1754, "pitch": 55, "duration": 19, "velocity": 71}, {"time": 1757, "pitch": 60, "duration": 10, "velocity": 86}, {"time": 1760, "pitch": 69, "duration": 7, "velocity": 84}, {"time": 1766, "pitch": 64, "duration": 13, "velocity": 84}, {"time": 1772, "pitch": 60, "duration": 6, "velocity": 80}, {"time": 1775, "pitch": 48, "duration": 15, "velocity": 84}, {"time": 1778, "pitch": 55, "duration": 12, "velocity": 75}, {"time": 1781, "pitch": 60, "duration": 4, "velocity": 84}, {"time": 1784, "pitch": 64, "duration": 7, "velocity": 86}, {"time": 1790, "pitch": 69, "duration": 10, "velocity": 85}, {"time": 1793, "pitch": 60, "duration": 5, "velocity": 84}, {"time": 1799, "pitch": 46, "duration": 22, "velocity": 86}, {"time": 1802, "pitch": 53, "duration": 20, "velocity": 83}, {"time": 1805, "pitch": 58, "duration": 5, "velocity": 72}, {"time": 1808, "pitch": 65, "duration": 7, "velocity": 84}, {"time": 1814, "pitch": 58, "duration": 9, "velocity": 76}, {"time": 1817, "pitch": 62, "duration": 7, "velocity": 80}, {"time": 1823, "pitch": 45, "duration": 23, "velocity": 77}, {"time": 1826, "pitch": 52, "duration": 19, "velocity": 74}, {"time": 1829, "pitch": 57, "duration": 4, "velocity": 85}, {"time": 1832, "pitch": 64, "duration": 7, "velocity": 89}, {"time": 1838, "pitch": 61, "duration": 3, "velocity": 90}, {"time": 1841, "pitch": 57, "duration": 7, "velocity": 86}, {"time": 1847, "pitch": 50, "duration": 17, "velocity": 95}, {"time": 1850, "pitch": 57, "duration": 6, "velocity": 86}, {"time": 1853, "pitch": 62, "duration": 4, "velocity": 83}, {"time": 1856, "pitch": 65, "duration": 8, "velocity": 84}, {"time": 1862, "pitch": 57, "duration": 6, "velocity": 81}, {"time": 1865, "pitch": 62, "duration": 12, "velocity": 78}, {"time": 1868, "pitch": 69, "duration": 10, "velocity": 79}, {"time": 1871, "pitch": 38, "duration": 17, "velocity": 86}, {"time": 1874, "pitch": 45, "duration": 13, "velocity": 71}, {"time": 1877, "pitch": 57, "duration": 8, "velocity": 84}, {"time": 1880, "pitch": 69, "duration": 22, "velocity": 85}, {"time": 1886, "pitch": 62, "duration": 8, "velocity": 74}, {"time": 1889, "pitch": 57, "duration": 6, "velocity": 69}, {"time": 1895, "pitch": 38, "duration": 15, "velocity": 87}, {"time": 1898, "pitch": 45, "duration": 11, "velocity": 70}, {"time": 1901, "pitch": 57, "duration": 5, "velocity": 77}, {"time": 1904, "pitch": 62, "duration": 8, "velocity": 79}, {"time": 1910, "pitch": 69, "duration": 15, "velocity": 82}, {"time": 1913, "pitch": 57, "duration": 3, "velocity": 74}, {"time": 1919, "pitch": 48, "duration": 18, "velocity": 87}, {"time": 1922, "pitch": 55, "duration": 16, "velocity": 75}, {"time": 1925, "pitch": 60, "duration": 10, "velocity": 75}, {"time": 1928, "pitch": 69, "duration": 20, "velocity": 78}, {"time": 1937, "pitch": 60, "duration": 6, "velocity": 73}, {"time": 1943, "pitch": 50, "duration": 21, "velocity": 87}, {"time": 1946, "pitch": 57, "duration": 13, "velocity": 74}, {"time": 1949, "pitch": 62, "duration": 4, "velocity": 74}, {"time": 1952, "pitch": 69, "duration": 24, "velocity": 84}, {"time": 1961, "pitch": 57, "duration": 4, "velocity": 72}, {"time": 1964, "pitch": 62, "duration": 4, "velocity": 71}, {"time": 1967, "pitch": 50, "duration": 20, "velocity": 86}, {"time": 1967, "pitch": 67, "duration": 1, "velocity": 68}, {"time": 1973, "pitch": 57, "duration": 8, "velocity": 78}, {"time": 1976, "pitch": 65, "duration": 10, "velocity": 85}, {"time": 1982, "pitch": 57, "duration": 6, "velocity": 78}, {"time": 1985, "pitch": 64, "duration": 6, "velocity": 88}, {"time": 1991, "pitch": 50, "duration": 21, "velocity": 89}, {"time": 1991, "pitch": 65, "duration": 7, "velocity": 76}, {"time": 1994, "pitch": 57, "duration": 13, "velocity": 78}, {"time": 1997, "pitch": 62, "duration": 4, "velocity": 77}, {"time": 2000, "pitch": 69, "duration": 20, "velocity": 85}, {"time": 2009, "pitch": 57, "duration": 4, "velocity": 74}, {"time": 2012, "pitch": 62, "duration": 4, "velocity": 79}, {"time": 2015, "pitch": 48, "duration": 21, "velocity": 87}, {"time": 2018, "pitch": 55, "duration": 12, "velocity": 77}, {"time": 2021, "pitch": 60, "duration": 12, "velocity": 82}, {"time": 2024, "pitch": 69, "duration": 21, "velocity": 84}, {"time": 2033, "pitch": 55, "duration": 4, "velocity": 78}, {"time": 2036, "pitch": 60, "duration": 3, "velocity": 76}, {"time": 2039, "pitch": 50, "duration": 21, "velocity": 91}, {"time": 2042, "pitch": 57, "duration": 10, "velocity": 75}, {"time": 2045, "pitch": 62, "duration": 4, "velocity": 79}, {"time": 2048, "pitch": 69, "duration": 9, "velocity": 85}, {"time": 2054, "pitch": 57, "duration": 8, "velocity": 79}, {"time": 2057, "pitch": 62, "duration": 4, "velocity": 83}, {"time": 2060, "pitch": 69, "duration": 10, "velocity": 84}, {"time": 2063, "pitch": 50, "duration": 20, "velocity": 85}, {"time": 2066, "pitch": 57, "duration": 17, "velocity": 75}, {"time": 2069, "pitch": 62, "duration": 4, "velocity": 80}, {"time": 2072, "pitch": 69, "duration": 10, "velocity": 85}, {"time": 2081, "pitch": 67, "duration": 7, "velocity": 86}, {"time": 2087, "pitch": 46, "duration": 22, "velocity": 91}, {"time": 2087, "pitch": 65, "duration": 6, "velocity": 81}, {"time": 2090, "pitch": 53, "duration": 13, "velocity": 85}, {"time": 2093, "pitch": 58, "duration": 11, "velocity": 76}, {"time": 2096, "pitch": 65, "duration": 13, "velocity": 89}, {"time": 2105, "pitch": 53, "duration": 5, "velocity": 83}, {"time": 2108, "pitch": 58, "duration": 4, "velocity": 86}, {"time": 2111, "pitch": 48, "duration": 21, "velocity": 89}, {"time": 2114, "pitch": 60, "duration": 5, "velocity": 85}, {"time": 2117, "pitch": 64, "duration": 2, "velocity": 80}, {"time": 2120, "pitch": 67, "duration": 5, "velocity": 87}, {"time": 2126, "pitch": 64, "duration": 3, "velocity": 84}, {"time": 2129, "pitch": 60, "duration": 7, "velocity": 77}, {"time": 2135, "pitch": 45, "duration": 20, "velocity": 85}, {"time": 2138, "pitch": 52, "duration": 10, "velocity": 79}, {"time": 2141, "pitch": 57, "duration": 4, "velocity": 85}, {"time": 2144, "pitch": 64, "duration": 10, "velocity": 85}, {"time": 2150, "pitch": 52, "duration": 5, "velocity": 84}, {"time": 2153, "pitch": 57, "duration": 6, "velocity": 77}, {"time": 2159, "pitch": 50, "duration": 18, "velocity": 86}, {"time": 2159, "pitch": 65, "duration": 7, "velocity": 86}, {"time": 2162, "pitch": 53, "duration": 15, "velocity": 73}, {"time": 2165, "pitch": 57, "duration": 4, "velocity": 87}, {"time": 2168, "pitch": 65, "duration": 10, "velocity": 87}, {"time": 2174, "pitch": 57, "duration": 4, "velocity": 85}, {"time": 2177, "pitch": 64, "duration": 7, "velocity": 85}, {"time": 2180, "pitch": 57, "duration": 3, "velocity": 80}, {"time": 2183, "pitch": 46, "duration": 21, "velocity": 86}, {"time": 2183, "pitch": 62, "duration": 6, "velocity": 84}, {"time": 2186, "pitch": 53, "duration": 19, "velocity": 79}, {"time": 2189, "pitch": 58, "duration": 5, "velocity": 84}, {"time": 2192, "pitch": 65, "duration": 7, "velocity": 86}, {"time": 2198, "pitch": 58, "duration": 4, "velocity": 86}, {"time": 2201, "pitch": 65, "duration": 4, "velocity": 85}, {"time": 2204, "pitch": 58, "duration": 3, "velocity": 85}, {"time": 2207, "pitch": 48, "duration": 20, "velocity": 90}, {"time": 2210, "pitch": 55, "duration": 10, "velocity": 80}, {"time": 2213, "pitch": 60, "duration": 4, "velocity": 88}, {"time": 2216, "pitch": 64, "duration": 11, "velocity": 91}, {"time": 2222, "pitch": 55, "duration": 4, "velocity": 75}, {"time": 2225, "pitch": 60, "duration": 5, "velocity": 84}, {"time": 2231, "pitch": 50, "duration": 22, "velocity": 89}, {"time": 2234, "pitch": 57, "duration": 4, "velocity": 86}, {"time": 2237, "pitch": 62, "duration": 4, "velocity": 80}, {"time": 2240, "pitch": 69, "duration": 8, "velocity": 88}, {"time": 2246, "pitch": 57, "duration": 6, "velocity": 83}, {"time": 2249, "pitch": 62, "duration": 9, "velocity": 84}, {"time": 2252, "pitch": 69, "duration": 6, "velocity": 87}, {"time": 2255, "pitch": 50, "duration": 25, "velocity": 87}, {"time": 2258, "pitch": 57, "duration": 5, "velocity": 85}, {"time": 2261, "pitch": 62, "duration": 4, "velocity": 85}, {"time": 2264, "pitch": 67, "duration": 9, "velocity": 85}, {"time": 2270, "pitch": 57, "duration": 3, "velocity": 85}, {"time": 2273, "pitch": 67, "duration": 4, "velocity": 84}, {"time": 2276, "pitch": 65, "duration": 3, "velocity": 86}, {"time": 2279, "pitch": 43, "duration": 44, "velocity": 85}, {"time": 2279, "pitch": 55, "duration": 4, "velocity": 76}, {"time": 2279, "pitch": 58, "duration": 6, "velocity": 74}, {"time": 2279, "pitch": 62, "duration": 8, "velocity": 82}, {"time": 2282, "pitch": 50, "duration": 22, "velocity": 76}, {"time": 2285, "pitch": 55, "duration": 14, "velocity": 82}, {"time": 2288, "pitch": 67, "duration": 13, "velocity": 86}, {"time": 2303, "pitch": 58, "duration": 7, "velocity": 86}, {"time": 2303, "pitch": 62, "duration": 7, "velocity": 86}, {"time": 2306, "pitch": 50, "duration": 11, "velocity": 79}, {"time": 2309, "pitch": 55, "duration": 12, "velocity": 86}, {"time": 2312, "pitch": 58, "duration": 10, "velocity": 86}, {"time": 2312, "pitch": 62, "duration": 11, "velocity": 87}, {"time": 2321, "pitch": 50, "duration": 4, "velocity": 84}, {"time": 2327, "pitch": 45, "duration": 19, "velocity": 86}, {"time": 2327, "pitch": 57, "duration": 6, "velocity": 75}, {"time": 2327, "pitch": 64, "duration": 9, "velocity": 84}, {"time": 2333, "pitch": 52, "duration": 12, "velocity": 80}, {"time": 2336, "pitch": 57, "duration": 6, "velocity": 90}, {"time": 2342, "pitch": 60, "duration": 3, "velocity": 91}, {"time": 2345, "pitch": 57, "duration": 3, "velocity": 85}, {"time": 2351, "pitch": 38, "duration": 18, "velocity": 86}, {"time": 2351, "pitch": 57, "duration": 4, "velocity": 79}, {"time": 2351, "pitch": 65, "duration": 7, "velocity": 84}, {"time": 2354, "pitch": 45, "duration": 14, "velocity": 78}, {"time": 2357, "pitch": 57, "duration": 3, "velocity": 80}, {"time": 2360, "pitch": 65, "duration": 9, "velocity": 86}, {"time": 2369, "pitch": 64, "duration": 7, "velocity": 85}, {"time": 2375, "pitch": 43, "duration": 22, "velocity": 85}, {"time": 2375, "pitch": 62, "duration": 6, "velocity": 84}, {"time": 2378, "pitch": 50, "duration": 18, "velocity": 75}, {"time": 2381, "pitch": 55, "duration": 13, "velocity": 84}, {"time": 2384, "pitch": 58, "duration": 9, "velocity": 85}, {"time": 2384, "pitch": 62, "duration": 10, "velocity": 85}, {"time": 2399, "pitch": 43, "duration": 20, "velocity": 85}, {"time": 2399, "pitch": 55, "duration": 4, "velocity": 84}, {"time": 2399, "pitch": 67, "duration": 10, "velocity": 80}, {"time": 2402, "pitch": 50, "duration": 17, "velocity": 82}, {"time": 2405, "pitch": 55, "duration": 4, "velocity": 88}, {"time": 2408, "pitch": 62, "duration": 7, "velocity": 85}, {"time": 2414, "pitch": 58, "duration": 4, "velocity": 76}, {"time": 2417, "pitch": 55, "duration": 2, "velocity": 88}, {"time": 2423, "pitch": 45, "duration": 20, "velocity": 86}, {"time": 2423, "pitch": 57, "duration": 6, "velocity": 80}, {"time": 2423, "pitch": 61, "duration": 8, "velocity": 75}, {"time": 2429, "pitch": 52, "duration": 11, "velocity": 79}, {"time": 2432, "pitch": 57, "duration": 4, "velocity": 87}, {"time": 2438, "pitch": 57, "duration": 1, "velocity": 85}, {"time": 2438, "pitch": 61, "duration": 4, "velocity": 91}, {"time": 2438, "pitch": 64, "duration": 5, "velocity": 88}, {"time": 2447, "pitch": 45, "duration": 2, "velocity": 89}, {"time": 2447, "pitch": 57, "duration": 2, "velocity": 81}, {"time": 2447, "pitch": 61, "duration": 2, "velocity": 80}, {"time": 2447, "pitch": 64, "duration": 2, "velocity": 86}, {"time": 2447, "pitch": 69, "duration": 2, "velocity": 78}, {"time": 2450, "pitch": 45, "duration": 2, "velocity": 88}, {"time": 2450, "pitch": 57, "duration": 3, "velocity": 86}, {"time": 2450, "pitch": 61, "duration": 2, "velocity": 89}, {"time": 2450, "pitch": 64, "duration": 3, "velocity": 89}, {"time": 2450, "pitch": 69, "duration": 2, "velocity": 85}, {"time": 2459, "pitch": 45, "duration": 6, "velocity": 90}, {"time": 2459, "pitch": 52, "duration": 6, "velocity": 85}, {"time": 2459, "pitch": 57, "duration": 6, "velocity": 77}, {"time": 2459, "pitch": 61, "duration": 7, "velocity": 73}, {"time": 2459, "pitch": 64, "duration": 9, "velocity": 83}, {"time": 2471, "pitch": 50, "duration": 16, "velocity": 85}, {"time": 2471, "pitch": 57, "duration": 2, "velocity": 79}, {"time": 2471, "pitch": 62, "duration": 4, "velocity": 81}, {"time": 2474, "pitch": 57, "duration": 4, "velocity": 84}, {"time": 2477, "pitch": 62, "duration": 4, "velocity": 81}, {"time": 2480, "pitch": 57, "duration": 1, "velocity": 72}, {"time": 2483, "pitch": 65, "duration": 4, "velocity": 100}, {"time": 2486, "pitch": 57, "duration": 3, "velocity": 81}, {"time": 2489, "pitch": 62, "duration": 2, "velocity": 91}, {"time": 2495, "pitch": 48, "duration": 16, "velocity": 93}, {"time": 2495, "pitch": 55, "duration": 2, "velocity": 86}, {"time": 2495, "pitch": 60, "duration": 4, "velocity": 86}, {"time": 2498, "pitch": 55, "duration": 3, "velocity": 81}, {"time": 2501, "pitch": 60, "duration": 3, "velocity": 73}, {"time": 2504, "pitch": 55, "duration": 2, "velocity": 78}, {"time": 2507, "pitch": 55, "duration": 2, "velocity": 91}, {"time": 2507, "pitch": 64, "duration": 4, "velocity": 87}, {"time": 2510, "pitch": 55, "duration": 2, "velocity": 89}, {"time": 2513, "pitch": 60, "duration": 1, "velocity": 87}, {"time": 2519, "pitch": 46, "duration": 3, "velocity": 98}, {"time": 2519, "pitch": 53, "duration": 2, "velocity": 84}, {"time": 2519, "pitch": 58, "duration": 3, "velocity": 84}, {"time": 2522, "pitch": 53, "duration": 3, "velocity": 83}, {"time": 2525, "pitch": 58, "duration": 3, "velocity": 84}, {"time": 2528, "pitch": 53, "duration": 2, "velocity": 85}, {"time": 2531, "pitch": 48, "duration": 9, "velocity": 87}, {"time": 2531, "pitch": 55, "duration": 2, "velocity": 85}, {"time": 2531, "pitch": 60, "duration": 4, "velocity": 84}, {"time": 2534, "pitch": 55, "duration": 3, "velocity": 84}, {"time": 2537, "pitch": 60, "duration": 4, "velocity": 81}, {"time": 2540, "pitch": 55, "duration": 2, "velocity": 77}, {"time": 2543, "pitch": 41, "duration": 7, "velocity": 88}, {"time": 2543, "pitch": 53, "duration": 3, "velocity": 86}, {"time": 2543, "pitch": 57, "duration": 5, "velocity": 85}, {"time": 2546, "pitch": 48, "duration": 4, "velocity": 84}, {"time": 2549, "pitch": 53, "duration": 4, "velocity": 86}, {"time": 2552, "pitch": 57, "duration": 2, "velocity": 86}, {"time": 2555, "pitch": 45, "duration": 10, "velocity": 91}, {"time": 2555, "pitch": 57, "duration": 4, "velocity": 82}, {"time": 2555, "pitch": 61, "duration": 5, "velocity": 89}, {"time": 2558, "pitch": 52, "duration": 7, "velocity": 85}, {"time": 2561, "pitch": 57, "duration": 4, "velocity": 90}, {"time": 2564, "pitch": 61, "duration": 1, "velocity": 93}, {"time": 2567, "pitch": 50, "duration": 13, "velocity": 98}, {"time": 2567, "pitch": 57, "duration": 2, "velocity": 85}, {"time": 2567, "pitch": 62, "duration": 3, "velocity": 88}, {"time": 2570, "pitch": 57, "duration": 3, "velocity": 80}, {"time": 2573, "pitch": 62, "duration": 2, "velocity": 76}, {"time": 2576, "pitch": 57, "duration": 1, "velocity": 75}, {"time": 2579, "pitch": 57, "duration": 1, "velocity": 85}, {"time": 2579, "pitch": 62, "duration": 3, "velocity": 89}, {"time": 2579, "pitch": 65, "duration": 5, "velocity": 91}, {"time": 2582, "pitch": 57, "duration": 3, "velocity": 78}, {"time": 2585, "pitch": 62, "duration": 3, "velocity": 76}, {"time": 2588, "pitch": 57, "duration": 2, "velocity": 76}, {"time": 2591, "pitch": 48, "duration": 15, "velocity": 90}, {"time": 2591, "pitch": 55, "duration": 2, "velocity": 85}, {"time": 2591, "pitch": 60, "duration": 4, "velocity": 85}, {"time": 2594, "pitch": 55, "duration": 3, "velocity": 83}, {"time": 2597, "pitch": 60, "duration": 2, "velocity": 74}, {"time": 2600, "pitch": 55, "duration": 2, "velocity": 74}, {"time": 2603, "pitch": 55, "duration": 2, "velocity": 85}, {"time": 2603, "pitch": 64, "duration": 4, "velocity": 86}, {"time": 2606, "pitch": 55, "duration": 2, "velocity": 85}, {"time": 2609, "pitch": 60, "duration": 3, "velocity": 84}, {"time": 2612, "pitch": 55, "duration": 2, "velocity": 84}, {"time": 2615, "pitch": 46, "duration": 15, "velocity": 90}, {"time": 2615, "pitch": 53, "duration": 2, "velocity": 86}, {"time": 2615, "pitch": 58, "duration": 4, "velocity": 84}, {"time": 2618, "pitch": 53, "duration": 2, "velocity": 77}, {"time": 2621, "pitch": 58, "duration": 3, "velocity": 70}, {"time": 2624, "pitch": 53, "duration": 2, "velocity": 85}, {"time": 2627, "pitch": 53, "duration": 1, "velocity": 88}, {"time": 2627, "pitch": 58, "duration": 3, "velocity": 91}, {"time": 2627, "pitch": 62, "duration": 4, "velocity": 87}, {"time": 2630, "pitch": 53, "duration": 3, "velocity": 84}, {"time": 2633, "pitch": 58, "duration": 3, "velocity": 76}, {"time": 2636, "pitch": 53, "duration": 1, "velocity": 73}, {"time": 2639, "pitch": 45, "duration": 15, "velocity": 88}, {"time": 2639, "pitch": 57, "duration": 2, "velocity": 84}, {"time": 2639, "pitch": 61, "duration": 3, "velocity": 86}, {"time": 2642, "pitch": 52, "duration": 10, "velocity": 86}, {"time": 2645, "pitch": 57, "duration": 2, "velocity": 93}, {"time": 2648, "pitch": 61, "duration": 1, "velocity": 85}, {"time": 2648, "pitch": 64, "duration": 1, "velocity": 86}, {"time": 2651, "pitch": 57, "duration": 3, "velocity": 93}, {"time": 2651, "pitch": 61, "duration": 4, "velocity": 98}, {"time": 2651, "pitch": 64, "duration": 4, "velocity": 95}, {"time": 2651, "pitch": 69, "duration": 4, "velocity": 89}, {"time": 2654, "pitch": 52, "duration": 2, "velocity": 105}, {"time": 2657, "pitch": 57, "duration": 4, "velocity": 91}, {"time": 2660, "pitch": 61, "duration": 1, "velocity": 81}, {"time": 2663, "pitch": 50, "duration": 14, "velocity": 93}, {"time": 2663, "pitch": 57, "duration": 2, "velocity": 83}, {"time": 2663, "pitch": 62, "duration": 3, "velocity": 85}, {"time": 2666, "pitch": 57, "duration": 2, "velocity": 82}, {"time": 2669, "pitch": 62, "duration": 2, "velocity": 77}, {"time": 2672, "pitch": 57, "duration": 1, "velocity": 82}, {"time": 2675, "pitch": 57, "duration": 1, "velocity": 85}, {"time": 2675, "pitch": 65, "duration": 5, "velocity": 84}, {"time": 2678, "pitch": 57, "duration": 3, "velocity": 85}, {"time": 2681, "pitch": 62, "duration": 3, "velocity": 85}, {"time": 2684, "pitch": 57, "duration": 2, "velocity": 85}, {"time": 2687, "pitch": 48, "duration": 15, "velocity": 90}, {"time": 2687, "pitch": 60, "duration": 3, "velocity": 86}, {"time": 2690, "pitch": 55, "duration": 2, "velocity": 86}, {"time": 2693, "pitch": 60, "duration": 3, "velocity": 78}, {"time": 2696, "pitch": 55, "duration": 2, "velocity": 85}, {"time": 2699, "pitch": 55, "duration": 1, "velocity": 88}, {"time": 2699, "pitch": 60, "duration": 2, "velocity": 91}, {"time": 2699, "pitch": 64, "duration": 4, "velocity": 91}, {"time": 2702, "pitch": 55, "duration": 3, "velocity": 84}, {"time": 2705, "pitch": 60, "duration": 3, "velocity": 80}, {"time": 2708, "pitch": 55, "duration": 2, "velocity": 84}, {"time": 2711, "pitch": 46, "duration": 10, "velocity": 87}, {"time": 2711, "pitch": 58, "duration": 4, "velocity": 84}, {"time": 2711, "pitch": 62, "duration": 3, "velocity": 84}, {"time": 2714, "pitch": 53, "duration": 3, "velocity": 86}, {"time": 2717, "pitch": 58, "duration": 4, "velocity": 85}, {"time": 2720, "pitch": 53, "duration": 1, "velocity": 84}, {"time": 2723, "pitch": 48, "duration": 5, "velocity": 91}, {"time": 2723, "pitch": 55, "duration": 2, "velocity": 86}, {"time": 2723, "pitch": 60, "duration": 4, "velocity": 84}, {"time": 2726, "pitch": 55, "duration": 2, "velocity": 85}, {"time": 2729, "pitch": 60, "duration": 3, "velocity": 84}, {"time": 2732, "pitch": 55, "duration": 2, "velocity": 84}, {"time": 2735, "pitch": 41, "duration": 16, "velocity": 85}, {"time": 2735, "pitch": 53, "duration": 3, "velocity": 86}, {"time": 2735, "pitch": 57, "duration": 3, "velocity": 86}, {"time": 2738, "pitch": 48, "duration": 12, "velocity": 85}, {"time": 2741, "pitch": 53, "duration": 4, "velocity": 91}, {"time": 2744, "pitch": 57, "duration": 2, "velocity": 80}, {"time": 2747, "pitch": 57, "duration": 1, "velocity": 73}, {"time": 2747, "pitch": 65, "duration": 4, "velocity": 93}, {"time": 2750, "pitch": 60, "duration": 4, "velocity": 88}, {"time": 2753, "pitch": 53, "duration": 4, "velocity": 91}, {"time": 2756, "pitch": 57, "duration": 2, "velocity": 84}, {"time": 2759, "pitch": 50, "duration": 15, "velocity": 93}, {"time": 2762, "pitch": 57, "duration": 4, "velocity": 86}, {"time": 2765, "pitch": 62, "duration": 2, "velocity": 84}, {"time": 2768, "pitch": 57, "duration": 1, "velocity": 74}, {"time": 2771, "pitch": 57, "duration": 1, "velocity": 85}, {"time": 2771, "pitch": 62, "duration": 3, "velocity": 91}, {"time": 2771, "pitch": 65, "duration": 4, "velocity": 89}, {"time": 2774, "pitch": 57, "duration": 4, "velocity": 81}, {"time": 2777, "pitch": 62, "duration": 3, "velocity": 81}, {"time": 2780, "pitch": 57, "duration": 1, "velocity": 78}, {"time": 2783, "pitch": 48, "duration": 16, "velocity": 91}, {"time": 2783, "pitch": 55, "duration": 2, "velocity": 88}, {"time": 2783, "pitch": 60, "duration": 3, "velocity": 86}, {"time": 2786, "pitch": 55, "duration": 3, "velocity": 85}, {"time": 2789, "pitch": 60, "duration": 2, "velocity": 76}, {"time": 2792, "pitch": 55, "duration": 2, "velocity": 80}, {"time": 2795, "pitch": 55, "duration": 1, "velocity": 79}, {"time": 2795, "pitch": 60, "duration": 2, "velocity": 95}, {"time": 2795, "pitch": 64, "duration": 4, "velocity": 91}, {"time": 2798, "pitch": 55, "duration": 3, "velocity": 86}, {"time": 2801, "pitch": 60, "duration": 2, "velocity": 84}, {"time": 2807, "pitch": 46, "duration": 18, "velocity": 87}, {"time": 2807, "pitch": 53, "duration": 2, "velocity": 85}, {"time": 2807, "pitch": 58, "duration": 3, "velocity": 88}, {"time": 2807, "pitch": 62, "duration": 4, "velocity": 87}, {"time": 2810, "pitch": 53, "duration": 3, "velocity": 79}, {"time": 2813, "pitch": 58, "duration": 3, "velocity": 76}, {"time": 2816, "pitch": 53, "duration": 3, "velocity": 84}, {"time": 2819, "pitch": 53, "duration": 3, "velocity": 88}, {"time": 2819, "pitch": 58, "duration": 3, "velocity": 85}, {"time": 2819, "pitch": 62, "duration": 4, "velocity": 88}, {"time": 2825, "pitch": 53, "duration": 2, "velocity": 80}, {"time": 2825, "pitch": 58, "duration": 3, "velocity": 73}, {"time": 2831, "pitch": 45, "duration": 22, "velocity": 87}, {"time": 2831, "pitch": 57, "duration": 3, "velocity": 80}, {"time": 2831, "pitch": 61, "duration": 4, "velocity": 87}, {"time": 2834, "pitch": 52, "duration": 19, "velocity": 89}, {"time": 2837, "pitch": 57, "duration": 5, "velocity": 90}, {"time": 2840, "pitch": 61, "duration": 4, "velocity": 88}, {"time": 2843, "pitch": 64, "duration": 4, "velocity": 85}, {"time": 2846, "pitch": 69, "duration": 7, "velocity": 88}, {"time": 2849, "pitch": 57, "duration": 3, "velocity": 87}, {"time": 2855, "pitch": 38, "duration": 5, "velocity": 85}, {"time": 2855, "pitch": 57, "duration": 5, "velocity": 78}, {"time": 2855, "pitch": 62, "duration": 5, "velocity": 79}, {"time": 2855, "pitch": 65, "duration": 5, "velocity": 81}, {"time": 2861, "pitch": 38, "duration": 3, "velocity": 87}, {"time": 2861, "pitch": 57, "duration": 3, "velocity": 79}, {"time": 2861, "pitch": 62, "duration": 3, "velocity": 81}, {"time": 2861, "pitch": 65, "duration": 3, "velocity": 83}, {"time": 2867, "pitch": 38, "duration": 3, "velocity": 87}, {"time": 2867, "pitch": 57, "duration": 2, "velocity": 78}, {"time": 2867, "pitch": 62, "duration": 2, "velocity": 85}, {"time": 2867, "pitch": 65, "duration": 2, "velocity": 80}, {"time": 2873, "pitch": 38, "duration": 3, "velocity": 86}, {"time": 2873, "pitch": 57, "duration": 3, "velocity": 83}, {"time": 2873, "pitch": 62, "duration": 3, "velocity": 86}, {"time": 2873, "pitch": 65, "duration": 3, "velocity": 84}, {"time": 2879, "pitch": 38, "duration": 2, "velocity": 101}, {"time": 2879, "pitch": 57, "duration": 2, "velocity": 86}, {"time": 2879, "pitch": 62, "duration": 2, "velocity": 90}, {"time": 2879, "pitch": 65, "duration": 2, "velocity": 85}, {"time": 2882, "pitch": 43, "duration": 2, "velocity": 87}, {"time": 2882, "pitch": 55, "duration": 2, "velocity": 87}, {"time": 2885, "pitch": 45, "duration": 2, "velocity": 85}, {"time": 2885, "pitch": 57, "duration": 2, "velocity": 85}, {"time": 2888, "pitch": 46, "duration": 3, "velocity": 90}, {"time": 2888, "pitch": 58, "duration": 3, "velocity": 90}, {"time": 2894, "pitch": 46, "duration": 2, "velocity": 90}, {"time": 2894, "pitch": 58, "duration": 2, "velocity": 90}, {"time": 2897, "pitch": 48, "duration": 2, "velocity": 87}, {"time": 2897, "pitch": 60, "duration": 2, "velocity": 87}, {"time": 2900, "pitch": 50, "duration": 2, "velocity": 91}, {"time": 2900, "pitch": 62, "duration": 2, "velocity": 91}, {"time": 2906, "pitch": 45, "duration": 3, "velocity": 88}, {"time": 2906, "pitch": 57, "duration": 3, "velocity": 82}, {"time": 2906, "pitch": 61, "duration": 3, "velocity": 86}, {"time": 2906, "pitch": 64, "duration": 3, "velocity": 86}, {"time": 2912, "pitch": 45, "duration": 3, "velocity": 85}, {"time": 2912, "pitch": 57, "duration": 3, "velocity": 75}, {"time": 2912, "pitch": 61, "duration": 3, "velocity": 77}, {"time": 2912, "pitch": 64, "duration": 3, "velocity": 84}, {"time": 2918, "pitch": 45, "duration": 2, "velocity": 86}, {"time": 2918, "pitch": 57, "duration": 2, "velocity": 81}, {"time": 2918, "pitch": 61, "duration": 2, "velocity": 84}, {"time": 2918, "pitch": 69, "duration": 2, "velocity": 85}, {"time": 2921, "pitch": 45, "duration": 5, "velocity": 90}, {"time": 2921, "pitch": 57, "duration": 5, "velocity": 89}, {"time": 2921, "pitch": 61, "duration": 5, "velocity": 98}, {"time": 2921, "pitch": 69, "duration": 6, "velocity": 87}, {"time": 2927, "pitch": 50, "duration": 16, "velocity": 85}, {"time": 2927, "pitch": 57, "duration": 2, "velocity": 79}, {"time": 2927, "pitch": 62, "duration": 4, "velocity": 81}, {"time": 2930, "pitch": 57, "duration": 4, "velocity": 84}, {"time": 2933, "pitch": 62, "duration": 4, "velocity": 81}, {"time": 2936, "pitch": 57, "duration": 1, "velocity": 72}, {"time": 2939, "pitch": 65, "duration": 4, "velocity": 100}, {"time": 2942, "pitch": 57, "duration": 3, "velocity": 81}, {"time": 2945, "pitch": 62, "duration": 2, "velocity": 91}, {"time": 2951, "pitch": 48, "duration": 16, "velocity": 93}, {"time": 2951, "pitch": 55, "duration": 2, "velocity": 86}, {"time": 2951, "pitch": 60, "duration": 4, "velocity": 86}, {"time": 2954, "pitch": 55, "duration": 3, "velocity": 81}, {"time": 2957, "pitch": 60, "duration": 3, "velocity": 73}, {"time": 2960, "pitch": 55, "duration": 2, "velocity": 78}, {"time": 2963, "pitch": 55, "duration": 2, "velocity": 91}, {"time": 2963, "pitch": 64, "duration": 4, "velocity": 87}, {"time": 2966, "pitch": 55, "duration": 2, "velocity": 89}, {"time": 2969, "pitch": 60, "duration": 1, "velocity": 87}, {"time": 2975, "pitch": 46, "duration": 3, "velocity": 98}, {"time": 2975, "pitch": 53, "duration": 2, "velocity": 84}, {"time": 2975, "pitch": 58, "duration": 3, "velocity": 84}, {"time": 2978, "pitch": 53, "duration": 3, "velocity": 83}, {"time": 2981, "pitch": 58, "duration": 3, "velocity": 84}, {"time": 2984, "pitch": 53, "duration": 2, "velocity": 85}, {"time": 2987, "pitch": 48, "duration": 9, "velocity": 87}, {"time": 2987, "pitch": 55, "duration": 2, "velocity": 85}, {"time": 2987, "pitch": 60, "duration": 4, "velocity": 84}, {"time": 2990, "pitch": 55, "duration": 3, "velocity": 84}, {"time": 2993, "pitch": 60, "duration": 4, "velocity": 81}, {"time": 2996, "pitch": 55, "duration": 2, "velocity": 77}, {"time": 2999, "pitch": 41, "duration": 7, "velocity": 88}, {"time": 2999, "pitch": 53, "duration": 3, "velocity": 86}, {"time": 2999, "pitch": 57, "duration": 5, "velocity": 85}, {"time": 3002, "pitch": 48, "duration": 4, "velocity": 84}, {"time": 3005, "pitch": 53, "duration": 4, "velocity": 86}, {"time": 3008, "pitch": 57, "duration": 2, "velocity": 86}, {"time": 3011, "pitch": 45, "duration": 10, "velocity": 91}, {"time": 3011, "pitch": 57, "duration": 4, "velocity": 82}, {"time": 3011, "pitch": 61, "duration": 5, "velocity": 89}, {"time": 3014, "pitch": 52, "duration": 7, "velocity": 85}, {"time": 3017, "pitch": 57, "duration": 4, "velocity": 90}, {"time": 3020, "pitch": 61, "duration": 1, "velocity": 93}, {"time": 3023, "pitch": 50, "duration": 13, "velocity": 98}, {"time": 3023, "pitch": 57, "duration": 2, "velocity": 85}, {"time": 3023, "pitch": 62, "duration": 3, "velocity": 88}, {"time": 3026, "pitch": 57, "duration": 3, "velocity": 80}, {"time": 3029, "pitch": 62, "duration": 2, "velocity": 76}, {"time": 3032, "pitch": 57, "duration": 1, "velocity": 75}, {"time": 3035, "pitch": 57, "duration": 1, "velocity": 85}, {"time": 3035, "pitch": 62, "duration": 3, "velocity": 89}, {"time": 3035, "pitch": 65, "duration": 5, "velocity": 91}, {"time": 3038, "pitch": 57, "duration": 3, "velocity": 78}, {"time": 3041, "pitch": 62, "duration": 3, "velocity": 76}, {"time": 3044, "pitch": 57, "duration": 2, "velocity": 76}, {"time": 3047, "pitch": 48, "duration": 15, "velocity": 90}, {"time": 3047, "pitch": 55, "duration": 2, "velocity": 85}, {"time": 3047, "pitch": 60, "duration": 4, "velocity": 85}, {"time": 3050, "pitch": 55, "duration": 3, "velocity": 83}, {"time": 3053, "pitch": 60, "duration": 2, "velocity": 74}, {"time": 3056, "pitch": 55, "duration": 2, "velocity": 74}, {"time": 3059, "pitch": 55, "duration": 2, "velocity": 85}, {"time": 3059, "pitch": 64, "duration": 4, "velocity": 86}, {"time": 3062, "pitch": 55, "duration": 2, "velocity": 85}, {"time": 3065, "pitch": 60, "duration": 3, "velocity": 84}, {"time": 3068, "pitch": 55, "duration": 2, "velocity": 84}, {"time": 3071, "pitch": 46, "duration": 15, "velocity": 90}, {"time": 3071, "pitch": 53, "duration": 2, "velocity": 86}, {"time": 3071, "pitch": 58, "duration": 4, "velocity": 84}, {"time": 3074, "pitch": 53, "duration": 2, "velocity": 77}, {"time": 3077, "pitch": 58, "duration": 3, "velocity": 70}, {"time": 3080, "pitch": 53, "duration": 2, "velocity": 85}, {"time": 3083, "pitch": 53, "duration": 1, "velocity": 88}, {"time": 3083, "pitch": 58, "duration": 3, "velocity": 91}, {"time": 3083, "pitch": 62, "duration": 4, "velocity": 87}, {"time": 3086, "pitch": 53, "duration": 3, "velocity": 84}, {"time": 3089, "pitch": 58, "duration": 3, "velocity": 76}, {"time": 3092, "pitch": 53, "duration": 1, "velocity": 73}, {"time": 3095, "pitch": 45, "duration": 15, "velocity": 88}, {"time": 3095, "pitch": 57, "duration": 2, "velocity": 84}, {"time": 3095, "pitch": 61, "duration": 3, "velocity": 86}, {"time": 3098, "pitch": 52, "duration": 10, "velocity": 86}, {"time": 3101, "pitch": 57, "duration": 2, "velocity": 93}, {"time": 3104, "pitch": 61, "duration": 1, "velocity": 85}, {"time": 3104, "pitch": 64, "duration": 1, "velocity": 86}, {"time": 3107, "pitch": 57, "duration": 3, "velocity": 93}, {"time": 3107, "pitch": 61, "duration": 4, "velocity": 98}, {"time": 3107, "pitch": 64, "duration": 4, "velocity": 95}, {"time": 3107, "pitch": 69, "duration": 4, "velocity": 89}, {"time": 3110, "pitch": 52, "duration": 2, "velocity": 105}, {"time": 3113, "pitch": 57, "duration": 4, "velocity": 91}, {"time": 3116, "pitch": 61, "duration": 1, "velocity": 81}, {"time": 3119, "pitch": 50, "duration": 14, "velocity": 93}, {"time": 3119, "pitch": 57, "duration": 2, "velocity": 83}, {"time": 3119, "pitch": 62, "duration": 3, "velocity": 85}, {"time": 3122, "pitch": 57, "duration": 2, "velocity": 82}, {"time": 3125, "pitch": 62, "duration": 2, "velocity": 77}, {"time": 3128, "pitch": 57, "duration": 1, "velocity": 82}, {"time": 3131, "pitch": 57, "duration": 1, "velocity": 85}, {"time": 3131, "pitch": 65, "duration": 5, "velocity": 84}, {"time": 3134, "pitch": 57, "duration": 3, "velocity": 85}, {"time": 3137, "pitch": 62, "duration": 3, "velocity": 85}, {"time": 3140, "pitch": 57, "duration": 2, "velocity": 85}, {"time": 3143, "pitch": 48, "duration": 15, "velocity": 90}, {"time": 3143, "pitch": 60, "duration": 3, "velocity": 86}, {"time": 3146, "pitch": 55, "duration": 2, "velocity": 86}, {"time": 3149, "pitch": 60, "duration": 3, "velocity": 78}, {"time": 3152, "pitch": 55, "duration": 2, "velocity": 85}, {"time": 3155, "pitch": 55, "duration": 1, "velocity": 88}, {"time": 3155, "pitch": 60, "duration": 2, "velocity": 91}, {"time": 3155, "pitch": 64, "duration": 4, "velocity": 91}, {"time": 3158, "pitch": 55, "duration": 3, "velocity": 84}, {"time": 3161, "pitch": 60, "duration": 3, "velocity": 80}, {"time": 3164, "pitch": 55, "duration": 2, "velocity": 84}, {"time": 3167, "pitch": 46, "duration": 10, "velocity": 87}, {"time": 3167, "pitch": 58, "duration": 4, "velocity": 84}, {"time": 3167, "pitch": 62, "duration": 3, "velocity": 84}, {"time": 3170, "pitch": 53, "duration": 3, "velocity": 86}, {"time": 3173, "pitch": 58, "duration": 4, "velocity": 85}, {"time": 3176, "pitch": 53, "duration": 1, "velocity": 84}, {"time": 3179, "pitch": 48, "duration": 5, "velocity": 91}, {"time": 3179, "pitch": 55, "duration": 2, "velocity": 86}, {"time": 3179, "pitch": 60, "duration": 4, "velocity": 84}, {"time": 3182, "pitch": 55, "duration": 2, "velocity": 85}, {"time": 3185, "pitch": 60, "duration": 3, "velocity": 84}, {"time": 3188, "pitch": 55, "duration": 2, "velocity": 84}, {"time": 3191, "pitch": 41, "duration": 16, "velocity": 85}, {"time": 3191, "pitch": 53, "duration": 3, "velocity": 86}, {"time": 3191, "pitch": 57, "duration": 3, "velocity": 86}, {"time": 3194, "pitch": 48, "duration": 12, "velocity": 85}, {"time": 3197, "pitch": 53, "duration": 4, "velocity": 91}, {"time": 3200, "pitch": 57, "duration": 2, "velocity": 80}, {"time": 3203, "pitch": 57, "duration": 1, "velocity": 73}, {"time": 3203, "pitch": 65, "duration": 4, "velocity": 93}, {"time": 3206, "pitch": 60, "duration": 4, "velocity": 88}, {"time": 3209, "pitch": 53, "duration": 4, "velocity": 91}, {"time": 3212, "pitch": 57, "duration": 2, "velocity": 84}, {"time": 3215, "pitch": 50, "duration": 15, "velocity": 93}, {"time": 3218, "pitch": 57, "duration": 4, "velocity": 86}, {"time": 3221, "pitch": 62, "duration": 2, "velocity": 84}, {"time": 3224, "pitch": 57, "duration": 1, "velocity": 74}, {"time": 3227, "pitch": 57, "duration": 1, "velocity": 85}, {"time": 3227, "pitch": 62, "duration": 3, "velocity": 91}, {"time": 3227, "pitch": 65, "duration": 4, "velocity": 89}, {"time": 3230, "pitch": 57, "duration": 4, "velocity": 81}, {"time": 3233, "pitch": 62, "duration": 3, "velocity": 81}, {"time": 3236, "pitch": 57, "duration": 1, "velocity": 78}, {"time": 3239, "pitch": 48, "duration": 16, "velocity": 91}, {"time": 3239, "pitch": 55, "duration": 2, "velocity": 88}, {"time": 3239, "pitch": 60, "duration": 3, "velocity": 86}, {"time": 3242, "pitch": 55, "duration": 3, "velocity": 85}, {"time": 3245, "pitch": 60, "duration": 2, "velocity": 76}, {"time": 3248, "pitch": 55, "duration": 2, "velocity": 80}, {"time": 3251, "pitch": 55, "duration": 1, "velocity": 79}, {"time": 3251, "pitch": 60, "duration": 2, "velocity": 95}, {"time": 3251, "pitch": 64, "duration": 4, "velocity": 91}, {"time": 3254, "pitch": 55, "duration": 3, "velocity": 86}, {"time": 3257, "pitch": 60, "duration": 2, "velocity": 84}, {"time": 3263, "pitch": 46, "duration": 18, "velocity": 87}, {"time": 3263, "pitch": 53, "duration": 2, "velocity": 85}, {"time": 3263, "pitch": 58, "duration": 3, "velocity": 88}, {"time": 3263, "pitch": 62, "duration": 4, "velocity": 87}, {"time": 3266, "pitch": 53, "duration": 3, "velocity": 79}, {"time": 3269, "pitch": 58, "duration": 3, "velocity": 76}, {"time": 3272, "pitch": 53, "duration": 3, "velocity": 84}, {"time": 3275, "pitch": 53, "duration": 3, "velocity": 88}, {"time": 3275, "pitch": 58, "duration": 3, "velocity": 85}, {"time": 3275, "pitch": 62, "duration": 4, "velocity": 88}, {"time": 3281, "pitch": 53, "duration": 2, "velocity": 80}, {"time": 3281, "pitch": 58, "duration": 3, "velocity": 73}, {"time": 3287, "pitch": 45, "duration": 22, "velocity": 87}, {"time": 3287, "pitch": 57, "duration": 3, "velocity": 80}, {"time": 3287, "pitch": 61, "duration": 4, "velocity": 87}, {"time": 3290, "pitch": 52, "duration": 19, "velocity": 89}, {"time": 3293, "pitch": 57, "duration": 5, "velocity": 90}, {"time": 3296, "pitch": 61, "duration": 4, "velocity": 88}, {"time": 3299, "pitch": 64, "duration": 4, "velocity": 85}, {"time": 3302, "pitch": 69, "duration": 7, "velocity": 88}, {"time": 3305, "pitch": 57, "duration": 3, "velocity": 87}, {"time": 3308, "pitch": 57, "duration": 1, "velocity": 68}, {"time": 3309, "pitch": 61, "duration": 25, "velocity": 74}, {"time": 3310, "pitch": 45, "duration": 24, "velocity": 89}, {"time": 3310, "pitch": 64, "duration": 24, "velocity": 82}, {"time": 3335, "pitch": 50, "duration": 22, "velocity": 88}, {"time": 3338, "pitch": 57, "duration": 19, "velocity": 75}, {"time": 3341, "pitch": 62, "duration": 4, "velocity": 85}, {"time": 3344, "pitch": 65, "duration": 3, "velocity": 84}, {"time": 3350, "pitch": 69, "duration": 2, "velocity": 85}, {"time": 3356, "pitch": 62, "duration": 5, "velocity": 78}, {"time": 3359, "pitch": 50, "duration": 19, "velocity": 84}, {"time": 3362, "pitch": 57, "duration": 17, "velocity": 73}, {"time": 3365, "pitch": 62, "duration": 4, "velocity": 85}, {"time": 3368, "pitch": 69, "duration": 4, "velocity": 88}, {"time": 3374, "pitch": 65, "duration": 2, "velocity": 87}, {"time": 3377, "pitch": 62, "duration": 6, "velocity": 82}, {"time": 3383, "pitch": 48, "duration": 22, "velocity": 85}, {"time": 3386, "pitch": 55, "duration": 19, "velocity": 71}, {"time": 3389, "pitch": 60, "duration": 10, "velocity": 86}, {"time": 3392, "pitch": 69, "duration": 7, "velocity": 84}, {"time": 3398, "pitch": 64, "duration": 13, "velocity": 84}, {"time": 3404, "pitch": 60, "duration": 6, "velocity": 80}, {"time": 3407, "pitch": 48, "duration": 15, "velocity": 84}, {"time": 3410, "pitch": 55, "duration": 12, "velocity": 75}, {"time": 3413, "pitch": 60, "duration": 4, "velocity": 84}, {"time": 3416, "pitch": 64, "duration": 7, "velocity": 86}, {"time": 3422, "pitch": 69, "duration": 10, "velocity": 85}, {"time": 3425, "pitch": 60, "duration": 5, "velocity": 84}, {"time": 3431, "pitch": 46, "duration": 22, "velocity": 86}, {"time": 3434, "pitch": 53, "duration": 20, "velocity": 83}, {"time": 3437, "pitch": 58, "duration": 5, "velocity": 72}, {"time": 3440, "pitch": 65, "duration": 7, "velocity": 84}, {"time": 3446, "pitch": 58, "duration": 9, "velocity": 76}, {"time": 3449, "pitch": 62, "duration": 7, "velocity": 80}, {"time": 3455, "pitch": 45, "duration": 23, "velocity": 77}, {"time": 3458, "pitch": 52, "duration": 19, "velocity": 74}, {"time": 3461, "pitch": 57, "duration": 4, "velocity": 85}, {"time": 3464, "pitch": 64, "duration": 7, "velocity": 89}, {"time": 3470, "pitch": 61, "duration": 3, "velocity": 90}, {"time": 3473, "pitch": 57, "duration": 7, "velocity": 86}, {"time": 3479, "pitch": 38, "duration": 49, "velocity": 62}, {"time": 3479, "pitch": 50, "duration": 17, "velocity": 44}, {"time": 3479, "pitch": 50, "duration": 17, "velocity": 95}, {"time": 3481, "pitch": 53, "duration": 47, "velocity": 52}, {"time": 3482, "pitch": 57, "duration": 47, "velocity": 47}, {"time": 3483, "pitch": 62, "duration": 46, "velocity": 48}], "annotations": [{"time": 121, "annotation": {"number": 64, "value": 127}, "group": "control_change"}, {"time": 146, "annotation": {"number": 64, "value": 0}, "group": "control_change"}, {"time": 148, "annotation": {"number": 64, "value": 127}, "group": "control_change"}, {"time": 166, "annotation": {"number": 64, "value": 0}, "group": "control_change"}, {"time": 168, "annotation": {"number": 64, "value": 127}, "group": "control_change"}, {"time": 190, "annotation": {"number": 64, "value": 0}, "group": "control_change"}, {"time": 192, "annotation": {"number": 64, "value": 127}, "group": "control_change"}, {"time": 213, "annotation": {"number": 64, "value": 0}, "group": "control_change"}, {"time": 215, "annotation": {"number": 64, "value": 127}, "group": "control_change"}, {"time": 238, "annotation": {"number": 64, "value": 0}, "group": "control_change"}, {"time": 240, "annotation": {"number": 64, "value": 127}, "group": "control_change"}, {"time": 262, "annotation": {"number": 64, "value": 0}, "group": "control_change"}, {"time": 265, "annotation": {"number": 64, "value": 127}, "group": "control_change"}, {"time": 287, "annotation": {"number": 64, "value": 0}, "group": "control_change"}, {"time": 288, "annotation": {"number": 64, "value": 127}, "group": "control_change"}, {"time": 309, "annotation": {"number": 64, "value": 0}, "group": "control_change"}, {"time": 312, "annotation": {"number": 64, "value": 127}, "group": "control_change"}, {"time": 334, "annotation": {"number": 64, "value": 0}, "group": "control_change"}, {"time": 337, "annotation": {"number": 64, "value": 127}, "group": "control_change"}, {"time": 359, "annotation": {"number": 64, "value": 0}, "group": "control_change"}, {"time": 361, "annotation": {"number": 64, "value": 127}, "group": "control_change"}, {"time": 406, "annotation": {"number": 64, "value": 0}, "group": "control_change"}, {"time": 409, "annotation": {"number": 64, "value": 127}, "group": "control_change"}, {"time": 430, "annotation": {"number": 64, "value": 0}, "group": "control_change"}, {"time": 433, "annotation": {"number": 64, "value": 127}, "group": "control_change"}, {"time": 454, "annotation": {"number": 64, "value": 0}, "group": "control_change"}, {"time": 456, "annotation": {"number": 64, "value": 127}, "group": "control_change"}, {"time": 478, "annotation": {"number": 64, "value": 0}, "group": "control_change"}, {"time": 480, "annotation": {"number": 64, "value": 127}, "group": "control_change"}, {"time": 502, "annotation": {"number": 64, "value": 0}, "group": "control_change"}, {"time": 505, "annotation": {"number": 64, "value": 127}, "group": "control_change"}, {"time": 527, "annotation": {"number": 64, "value": 0}, "group": "control_change"}, {"time": 528, "annotation": {"number": 64, "value": 127}, "group": "control_change"}, {"time": 528, "annotation": {"number": 64, "value": 0}, "group": "control_change"}, {"time": 550, "annotation": {"number": 64, "value": 0}, "group": "control_change"}, {"time": 553, "annotation": {"number": 64, "value": 127}, "group": "control_change"}, {"time": 575, "annotation": {"number": 64, "value": 0}, "group": "control_change"}, {"time": 577, "annotation": {"number": 64, "value": 127}, "group": "control_change"}, {"time": 598, "annotation": {"number": 64, "value": 0}, "group": "control_change"}, {"time": 601, "annotation": {"number": 64, "value": 127}, "group": "control_change"}, {"time": 622, "annotation": {"number": 64, "value": 0}, "group": "control_change"}, {"time": 624, "annotation": {"number": 64, "value": 127}, "group": "control_change"}, {"time": 646, "annotation": {"number": 64, "value": 0}, "group": "control_change"}, {"time": 648, "annotation": {"number": 64, "value": 127}, "group": "control_change"}, {"time": 692, "annotation": {"number": 64, "value": 0}, "group": "control_change"}, {"time": 696, "annotation": {"number": 64, "value": 127}, "group": "control_change"}, {"time": 718, "annotation": {"number": 64, "value": 0}, "group": "control_change"}, {"time": 721, "annotation": {"number": 64, "value": 127}, "group": "control_change"}, {"time": 743, "annotation": {"number": 64, "value": 0}, "group": "control_change"}, {"time": 745, "annotation": {"number": 64, "value": 127}, "group": "control_change"}, {"time": 790, "annotation": {"number": 64, "value": 0}, "group": "control_change"}, {"time": 793, "annotation": {"number": 64, "value": 127}, "group": "control_change"}, {"time": 814, "annotation": {"number": 64, "value": 0}, "group": "control_change"}, {"time": 817, "annotation": {"number": 64, "value": 127}, "group": "control_change"}, {"time": 838, "annotation": {"number": 64, "value": 0}, "group": "control_change"}, {"time": 840, "annotation": {"number": 64, "value": 127}, "group": "control_change"}, {"time": 862, "annotation": {"number": 64, "value": 0}, "group": "control_change"}, {"time": 864, "annotation": {"number": 64, "value": 127}, "group": "control_change"}, {"time": 886, "annotation": {"number": 64, "value": 0}, "group": "control_change"}, {"time": 889, "annotation": {"number": 64, "value": 127}, "group": "control_change"}, {"time": 911, "annotation": {"number": 64, "value": 0}, "group": "control_change"}, {"time": 912, "annotation": {"number": 64, "value": 127}, "group": "control_change"}, {"time": 912, "annotation": {"number": 64, "value": 0}, "group": "control_change"}, {"time": 934, "annotation": {"number": 64, "value": 0}, "group": "control_change"}, {"time": 937, "annotation": {"number": 64, "value": 127}, "group": "control_change"}, {"time": 959, "annotation": {"number": 64, "value": 0}, "group": "control_change"}, {"time": 961, "annotation": {"number": 64, "value": 127}, "group": "control_change"}, {"time": 982, "annotation": {"number": 64, "value": 0}, "group": "control_change"}, {"time": 985, "annotation": {"number": 64, "value": 127}, "group": "control_change"}, {"time": 1006, "annotation": {"number": 64, "value": 0}, "group": "control_change"}, {"time": 1008, "annotation": {"number": 64, "value": 127}, "group": "control_change"}, {"time": 1030, "annotation": {"number": 64, "value": 0}, "group": "control_change"}, {"time": 1032, "annotation": {"number": 64, "value": 127}, "group": "control_change"}, {"time": 1076, "annotation": {"number": 64, "value": 0}, "group": "control_change"}, {"time": 1080, "annotation": {"number": 64, "value": 127}, "group": "control_change"}, {"time": 1127, "annotation": {"number": 64, "value": 0}, "group": "control_change"}, {"time": 1130, "annotation": {"number": 64, "value": 127}, "group": "control_change"}, {"time": 1151, "annotation": {"number": 64, "value": 0}, "group": "control_change"}, {"time": 1154, "annotation": {"number": 64, "value": 127}, "group": "control_change"}, {"time": 1174, "annotation": {"number": 64, "value": 0}, "group": "control_change"}, {"time": 1177, "annotation": {"number": 64, "value": 127}, "group": "control_change"}, {"time": 1198, "annotation": {"number": 64, "value": 0}, "group": "control_change"}, {"time": 1202, "annotation": {"number": 64, "value": 127}, "group": "control_change"}, {"time": 1222, "annotation": {"number": 64, "value": 0}, "group": "control_change"}, {"time": 1225, "annotation": {"number": 64, "value": 127}, "group": "control_change"}, {"time": 1246, "annotation": {"number": 64, "value": 0}, "group": "control_change"}, {"time": 1247, "annotation": {"number": 64, "value": 127}, "group": "control_change"}, {"time": 1254, "annotation": {"number": 64, "value": 0}, "group": "control_change"}, {"time": 1261, "annotation": {"number": 64, "value": 127}, "group": "control_change"}, {"time": 1269, "annotation": {"number": 64, "value": 0}, "group": "control_change"}, {"time": 1272, "annotation": {"number": 64, "value": 127}, "group": "control_change"}, {"time": 1294, "annotation": {"number": 64, "value": 0}, "group": "control_change"}, {"time": 1296, "annotation": {"number": 64, "value": 127}, "group": "control_change"}, {"time": 1317, "annotation": {"number": 64, "value": 0}, "group": "control_change"}, {"time": 1319, "annotation": {"number": 64, "value": 127}, "group": "control_change"}, {"time": 1330, "annotation": {"number": 64, "value": 0}, "group": "control_change"}, {"time": 1332, "annotation": {"number": 64, "value": 127}, "group": "control_change"}, {"time": 1342, "annotation": {"number": 64, "value": 0}, "group": "control_change"}, {"time": 1344, "annotation": {"number": 64, "value": 127}, "group": "control_change"}, {"time": 1354, "annotation": {"number": 64, "value": 0}, "group": "control_change"}, {"time": 1356, "annotation": {"number": 64, "value": 127}, "group": "control_change"}, {"time": 1365, "annotation": {"number": 64, "value": 0}, "group": "control_change"}, {"time": 1367, "annotation": {"number": 64, "value": 127}, "group": "control_change"}, {"time": 1389, "annotation": {"number": 64, "value": 0}, "group": "control_change"}, {"time": 1391, "annotation": {"number": 64, "value": 127}, "group": "control_change"}, {"time": 1414, "annotation": {"number": 64, "value": 0}, "group": "control_change"}, {"time": 1416, "annotation": {"number": 64, "value": 127}, "group": "control_change"}, {"time": 1437, "annotation": {"number": 64, "value": 0}, "group": "control_change"}, {"time": 1439, "annotation": {"number": 64, "value": 127}, "group": "control_change"}, {"time": 1461, "annotation": {"number": 64, "value": 0}, "group": "control_change"}, {"time": 1464, "annotation": {"number": 64, "value": 127}, "group": "control_change"}, {"time": 1487, "annotation": {"number": 64, "value": 0}, "group": "control_change"}, {"time": 1489, "annotation": {"number": 64, "value": 127}, "group": "control_change"}, {"time": 1509, "annotation": {"number": 64, "value": 0}, "group": "control_change"}, {"time": 1511, "annotation": {"number": 64, "value": 127}, "group": "control_change"}, {"time": 1521, "annotation": {"number": 64, "value": 0}, "group": "control_change"}, {"time": 1523, "annotation": {"number": 64, "value": 127}, "group": "control_change"}, {"time": 1534, "annotation": {"number": 64, "value": 0}, "group": "control_change"}, {"time": 1536, "annotation": {"number": 64, "value": 127}, "group": "control_change"}, {"time": 1557, "annotation": {"number": 64, "value": 0}, "group": "control_change"}, {"time": 1559, "annotation": {"number": 64, "value": 127}, "group": "control_change"}, {"time": 1582, "annotation": {"number": 64, "value": 0}, "group": "control_change"}, {"time": 1583, "annotation": {"number": 64, "value": 127}, "group": "control_change"}, {"time": 1605, "annotation": {"number": 64, "value": 0}, "group": "control_change"}, {"time": 1607, "annotation": {"number": 64, "value": 127}, "group": "control_change"}, {"time": 1629, "annotation": {"number": 64, "value": 0}, "group": "control_change"}, {"time": 1632, "annotation": {"number": 64, "value": 127}, "group": "control_change"}, {"time": 1653, "annotation": {"number": 64, "value": 0}, "group": "control_change"}, {"time": 1655, "annotation": {"number": 64, "value": 127}, "group": "control_change"}, {"time": 1677, "annotation": {"number": 64, "value": 0}, "group": "control_change"}, {"time": 1679, "annotation": {"number": 64, "value": 127}, "group": "control_change"}, {"time": 1698, "annotation": {"number": 64, "value": 0}, "group": "control_change"}, {"time": 1705, "annotation": {"number": 64, "value": 127}, "group": "control_change"}, {"time": 1730, "annotation": {"number": 64, "value": 0}, "group": "control_change"}, {"time": 1732, "annotation": {"number": 64, "value": 127}, "group": "control_change"}, {"time": 1750, "annotation": {"number": 64, "value": 0}, "group": "control_change"}, {"time": 1752, "annotation": {"number": 64, "value": 127}, "group": "control_change"}, {"time": 1774, "annotation": {"number": 64, "value": 0}, "group": "control_change"}, {"time": 1776, "annotation": {"number": 64, "value": 127}, "group": "control_change"}, {"time": 1797, "annotation": {"number": 64, "value": 0}, "group": "control_change"}, {"time": 1799, "annotation": {"number": 64, "value": 127}, "group": "control_change"}, {"time": 1822, "annotation": {"number": 64, "value": 0}, "group": "control_change"}, {"time": 1824, "annotation": {"number": 64, "value": 127}, "group": "control_change"}, {"time": 1846, "annotation": {"number": 64, "value": 0}, "group": "control_change"}, {"time": 1849, "annotation": {"number": 64, "value": 127}, "group": "control_change"}, {"time": 1871, "annotation": {"number": 64, "value": 0}, "group": "control_change"}, {"time": 1872, "annotation": {"number": 64, "value": 127}, "group": "control_change"}, {"time": 1893, "annotation": {"number": 64, "value": 0}, "group": "control_change"}, {"time": 1896, "annotation": {"number": 64, "value": 127}, "group": "control_change"}, {"time": 1918, "annotation": {"number": 64, "value": 0}, "group": "control_change"}, {"time": 1921, "annotation": {"number": 64, "value": 127}, "group": "control_change"}, {"time": 1943, "annotation": {"number": 64, "value": 0}, "group": "control_change"}, {"time": 1945, "annotation": {"number": 64, "value": 127}, "group": "control_change"}, {"time": 1990, "annotation": {"number": 64, "value": 0}, "group": "control_change"}, {"time": 1993, "annotation": {"number": 64, "value": 127}, "group": "control_change"}, {"time": 2014, "annotation": {"number": 64, "value": 0}, "group": "control_change"}, {"time": 2017, "annotation": {"number": 64, "value": 127}, "group": "control_change"}, {"time": 2038, "annotation": {"number": 64, "value": 0}, "group": "control_change"}, {"time": 2040, "annotation": {"number": 64, "value": 127}, "group": "control_change"}, {"time": 2062, "annotation": {"number": 64, "value": 0}, "group": "control_change"}, {"time": 2064, "annotation": {"number": 64, "value": 127}, "group": "control_change"}, {"time": 2086, "annotation": {"number": 64, "value": 0}, "group": "control_change"}, {"time": 2089, "annotation": {"number": 64, "value": 127}, "group": "control_change"}, {"time": 2111, "annotation": {"number": 64, "value": 0}, "group": "control_change"}, {"time": 2112, "annotation": {"number": 64, "value": 127}, "group": "control_change"}, {"time": 2112, "annotation": {"number": 64, "value": 0}, "group": "control_change"}, {"time": 2134, "annotation": {"number": 64, "value": 0}, "group": "control_change"}, {"time": 2137, "annotation": {"number": 64, "value": 127}, "group": "control_change"}, {"time": 2159, "annotation": {"number": 64, "value": 0}, "group": "control_change"}, {"time": 2161, "annotation": {"number": 64, "value": 127}, "group": "control_change"}, {"time": 2182, "annotation": {"number": 64, "value": 0}, "group": "control_change"}, {"time": 2185, "annotation": {"number": 64, "value": 127}, "group": "control_change"}, {"time": 2206, "annotation": {"number": 64, "value": 0}, "group": "control_change"}, {"time": 2208, "annotation": {"number": 64, "value": 127}, "group": "control_change"}, {"time": 2230, "annotation": {"number": 64, "value": 0}, "group": "control_change"}, {"time": 2232, "annotation": {"number": 64, "value": 127}, "group": "control_change"}, {"time": 2276, "annotation": {"number": 64, "value": 0}, "group": "control_change"}, {"time": 2280, "annotation": {"number": 64, "value": 127}, "group": "control_change"}, {"time": 2327, "annotation": {"number": 64, "value": 0}, "group": "control_change"}, {"time": 2330, "annotation": {"number": 64, "value": 127}, "group": "control_change"}, {"time": 2351, "annotation": {"number": 64, "value": 0}, "group": "control_change"}, {"time": 2354, "annotation": {"number": 64, "value": 127}, "group": "control_change"}, {"time": 2374, "annotation": {"number": 64, "value": 0}, "group": "control_change"}, {"time": 2377, "annotation": {"number": 64, "value": 127}, "group": "control_change"}, {"time": 2398, "annotation": {"number": 64, "value": 0}, "group": "control_change"}, {"time": 2402, "annotation": {"number": 64, "value": 127}, "group": "control_change"}, {"time": 2422, "annotation": {"number": 64, "value": 0}, "group": "control_change"}, {"time": 2425, "annotation": {"number": 64, "value": 127}, "group": "control_change"}, {"time": 2446, "annotation": {"number": 64, "value": 0}, "group": "control_change"}, {"time": 2447, "annotation": {"number": 64, "value": 127}, "group": "control_change"}, {"time": 2454, "annotation": {"number": 64, "value": 0}, "group": "control_change"}, {"time": 2461, "annotation": {"number": 64, "value": 127}, "group": "control_change"}, {"time": 2469, "annotation": {"number": 64, "value": 0}, "group": "control_change"}, {"time": 2472, "annotation": {"number": 64, "value": 127}, "group": "control_change"}, {"time": 2494, "annotation": {"number": 64, "value": 0}, "group": "control_change"}, {"time": 2496, "annotation": {"number": 64, "value": 127}, "group": "control_change"}, {"time": 2517, "annotation": {"number": 64, "value": 0}, "group": "control_change"}, {"time": 2519, "annotation": {"number": 64, "value": 127}, "group": "control_change"}, {"time": 2530, "annotation": {"number": 64, "value": 0}, "group": "control_change"}, {"time": 2532, "annotation": {"number": 64, "value": 127}, "group": "control_change"}, {"time": 2542, "annotation": {"number": 64, "value": 0}, "group": "control_change"}, {"time": 2544, "annotation": {"number": 64, "value": 127}, "group": "control_change"}, {"time": 2554, "annotation": {"number": 64, "value": 0}, "group": "control_change"}, {"time": 2556, "annotation": {"number": 64, "value": 127}, "group": "control_change"}, {"time": 2565, "annotation": {"number": 64, "value": 0}, "group": "control_change"}, {"time": 2567, "annotation": {"number": 64, "value": 127}, "group": "control_change"}, {"time": 2589, "annotation": {"number": 64, "value": 0}, "group": "control_change"}, {"time": 2591, "annotation": {"number": 64, "value": 127}, "group": "control_change"}, {"time": 2614, "annotation": {"number": 64, "value": 0}, "group": "control_change"}, {"time": 2616, "annotation": {"number": 64, "value": 127}, "group": "control_change"}, {"time": 2637, "annotation": {"number": 64, "value": 0}, "group": "control_change"}, {"time": 2639, "annotation": {"number": 64, "value": 127}, "group": "control_change"}, {"time": 2661, "annotation": {"number": 64, "value": 0}, "group": "control_change"}, {"time": 2664, "annotation": {"number": 64, "value": 127}, "group": "control_change"}, {"time": 2687, "annotation": {"number": 64, "value": 0}, "group": "control_change"}, {"time": 2689, "annotation": {"number": 64, "value": 127}, "group": "control_change"}, {"time": 2709, "annotation": {"number": 64, "value": 0}, "group": "control_change"}, {"time": 2711, "annotation": {"number": 64, "value": 127}, "group": "control_change"}, {"time": 2721, "annotation": {"number": 64, "value": 0}, "group": "control_change"}, {"time": 2723, "annotation": {"number": 64, "value": 127}, "group": "control_change"}, {"time": 2734, "annotation": {"number": 64, "value": 0}, "group": "control_change"}, {"time": 2736, "annotation": {"number": 64, "value": 127}, "group": "control_change"}, {"time": 2757, "annotation": {"number": 64, "value": 0}, "group": "control_change"}, {"time": 2759, "annotation": {"number": 64, "value": 127}, "group": "control_change"}, {"time": 2782, "annotation": {"number": 64, "value": 0}, "group": "control_change"}, {"time": 2783, "annotation": {"number": 64, "value": 127}, "group": "control_change"}, {"time": 2805, "annotation": {"number": 64, "value": 0}, "group": "control_change"}, {"time": 2807, "annotation": {"number": 64, "value": 127}, "group": "control_change"}, {"time": 2829, "annotation": {"number": 64, "value": 0}, "group": "control_change"}, {"time": 2832, "annotation": {"number": 64, "value": 127}, "group": "control_change"}, {"time": 2853, "annotation": {"number": 64, "value": 0}, "group": "control_change"}, {"time": 2928, "annotation": {"number": 64, "value": 127}, "group": "control_change"}, {"time": 2950, "annotation": {"number": 64, "value": 0}, "group": "control_change"}, {"time": 2952, "annotation": {"number": 64, "value": 127}, "group": "control_change"}, {"time": 2973, "annotation": {"number": 64, "value": 0}, "group": "control_change"}, {"time": 2975, "annotation": {"number": 64, "value": 127}, "group": "control_change"}, {"time": 2986, "annotation": {"number": 64, "value": 0}, "group": "control_change"}, {"time": 2988, "annotation": {"number": 64, "value": 127}, "group": "control_change"}, {"time": 2998, "annotation": {"number": 64, "value": 0}, "group": "control_change"}, {"time": 3000, "annotation": {"number": 64, "value": 127}, "group": "control_change"}, {"time": 3010, "annotation": {"number": 64, "value": 0}, "group": "control_change"}, {"time": 3012, "annotation": {"number": 64, "value": 127}, "group": "control_change"}, {"time": 3021, "annotation": {"number": 64, "value": 0}, "group": "control_change"}, {"time": 3023, "annotation": {"number": 64, "value": 127}, "group": "control_change"}, {"time": 3045, "annotation": {"number": 64, "value": 0}, "group": "control_change"}, {"time": 3047, "annotation": {"number": 64, "value": 127}, "group": "control_change"}, {"time": 3070, "annotation": {"number": 64, "value": 0}, "group": "control_change"}, {"time": 3072, "annotation": {"number": 64, "value": 127}, "group": "control_change"}, {"time": 3093, "annotation": {"number": 64, "value": 0}, "group": "control_change"}, {"time": 3095, "annotation": {"number": 64, "value": 127}, "group": "control_change"}, {"time": 3117, "annotation": {"number": 64, "value": 0}, "group": "control_change"}, {"time": 3120, "annotation": {"number": 64, "value": 127}, "group": "control_change"}, {"time": 3143, "annotation": {"number": 64, "value": 0}, "group": "control_change"}, {"time": 3145, "annotation": {"number": 64, "value": 127}, "group": "control_change"}, {"time": 3165, "annotation": {"number": 64, "value": 0}, "group": "control_change"}, {"time": 3167, "annotation": {"number": 64, "value": 127}, "group": "control_change"}, {"time": 3177, "annotation": {"number": 64, "value": 0}, "group": "control_change"}, {"time": 3179, "annotation": {"number": 64, "value": 127}, "group": "control_change"}, {"time": 3190, "annotation": {"number": 64, "value": 0}, "group": "control_change"}, {"time": 3192, "annotation": {"number": 64, "value": 127}, "group": "control_change"}, {"time": 3213, "annotation": {"number": 64, "value": 0}, "group": "control_change"}, {"time": 3215, "annotation": {"number": 64, "value": 127}, "group": "control_change"}, {"time": 3238, "annotation": {"number": 64, "value": 0}, "group": "control_change"}, {"time": 3239, "annotation": {"number": 64, "value": 127}, "group": "control_change"}, {"time": 3261, "annotation": {"number": 64, "value": 0}, "group": "control_change"}, {"time": 3263, "annotation": {"number": 64, "value": 127}, "group": "control_change"}, {"time": 3285, "annotation": {"number": 64, "value": 0}, "group": "control_change"}, {"time": 3288, "annotation": {"number": 64, "value": 127}, "group": "control_change"}, {"time": 3309, "annotation": {"number": 64, "value": 0}, "group": "control_change"}, {"time": 3337, "annotation": {"number": 64, "value": 127}, "group": "control_change"}, {"time": 3362, "annotation": {"number": 64, "value": 0}, "group": "control_change"}, {"time": 3364, "annotation": {"number": 64, "value": 127}, "group": "control_change"}, {"time": 3382, "annotation": {"number": 64, "value": 0}, "group": "control_change"}, {"time": 3384, "annotation": {"number": 64, "value": 127}, "group": "control_change"}, {"time": 3406, "annotation": {"number": 64, "value": 0}, "group": "control_change"}, {"time": 3408, "annotation": {"number": 64, "value": 127}, "group": "control_change"}, {"time": 3429, "annotation": {"number": 64, "value": 0}, "group": "control_change"}, {"time": 3431, "annotation": {"number": 64, "value": 127}, "group": "control_change"}, {"time": 3454, "annotation": {"number": 64, "value": 0}, "group": "control_change"}, {"time": 3456, "annotation": {"number": 64, "value": 127}, "group": "control_change"}, {"time": 3478, "annotation": {"number": 64, "value": 0}, "group": "control_change"}]}]}