{"metadata": {"schema_version": "0.2", "title": "None", "source_filename": "683.mid", "source_format": "midi"}, "resolution": 12, "tempos": [{"time": 0, "qpm": 65.49996670418359}], "key_signatures": [{"time": 0, "root": 0, "mode": "major"}], "time_signatures": [{"time": 0, "numerator": 4, "denominator": 4}, {"time": 0, "numerator": 1, "denominator": 4}], "tracks": [{"program": 4, "is_drum": false, "name": "MELODY", "notes": [{"time": 414, "pitch": 63, "duration": 2, "velocity": 85}, {"time": 417, "pitch": 62, "duration": 2, "velocity": 80}, {"time": 420, "pitch": 63, "duration": 5, "velocity": 85}, {"time": 426, "pitch": 62, "duration": 2, "velocity": 84}, {"time": 429, "pitch": 63, "duration": 15, "velocity": 84}, {"time": 450, "pitch": 63, "duration": 3, "velocity": 87}, {"time": 453, "pitch": 65, "duration": 3, "velocity": 85}, {"time": 456, "pitch": 67, "duration": 5, "velocity": 84}, {"time": 462, "pitch": 65, "duration": 3, "velocity": 77}, {"time": 465, "pitch": 67, "duration": 6, "velocity": 87}, {"time": 471, "pitch": 70, "duration": 6, "velocity": 86}, {"time": 477, "pitch": 67, "duration": 6, "velocity": 84}, {"time": 483, "pitch": 65, "duration": 18, "velocity": 81}, {"time": 510, "pitch": 72, "duration": 3, "velocity": 84}, {"time": 513, "pitch": 70, "duration": 3, "velocity": 88}, {"time": 516, "pitch": 72, "duration": 6, "velocity": 90}, {"time": 522, "pitch": 70, "duration": 3, "velocity": 88}, {"time": 525, "pitch": 72, "duration": 8, "velocity": 86}, {"time": 534, "pitch": 70, "duration": 10, "velocity": 88}, {"time": 546, "pitch": 68, "duration": 3, "velocity": 85}, {"time": 549, "pitch": 70, "duration": 3, "velocity": 86}, {"time": 552, "pitch": 67, "duration": 21, "velocity": 77}, {"time": 606, "pitch": 63, "duration": 2, "velocity": 85}, {"time": 609, "pitch": 62, "duration": 2, "velocity": 80}, {"time": 612, "pitch": 63, "duration": 5, "velocity": 85}, {"time": 618, "pitch": 62, "duration": 2, "velocity": 84}, {"time": 621, "pitch": 63, "duration": 15, "velocity": 84}, {"time": 642, "pitch": 63, "duration": 3, "velocity": 87}, {"time": 645, "pitch": 65, "duration": 3, "velocity": 85}, {"time": 648, "pitch": 67, "duration": 5, "velocity": 84}, {"time": 654, "pitch": 65, "duration": 3, "velocity": 77}, {"time": 657, "pitch": 67, "duration": 6, "velocity": 87}, {"time": 663, "pitch": 70, "duration": 6, "velocity": 86}, {"time": 669, "pitch": 67, "duration": 6, "velocity": 84}, {"time": 675, "pitch": 65, "duration": 18, "velocity": 81}, {"time": 702, "pitch": 72, "duration": 3, "velocity": 84}, {"time": 705, "pitch": 70, "duration": 3, "velocity": 88}, {"time": 708, "pitch": 72, "duration": 6, "velocity": 90}, {"time": 714, "pitch": 70, "duration": 3, "velocity": 88}, {"time": 717, "pitch": 72, "duration": 8, "velocity": 86}, {"time": 726, "pitch": 70, "duration": 10, "velocity": 88}, {"time": 738, "pitch": 70, "duration": 3, "velocity": 85}, {"time": 741, "pitch": 68, "duration": 6, "velocity": 86}, {"time": 747, "pitch": 70, "duration": 3, "velocity": 86}, {"time": 750, "pitch": 67, "duration": 15, "velocity": 77}, {"time": 798, "pitch": 75, "duration": 2, "velocity": 85}, {"time": 801, "pitch": 75, "duration": 8, "velocity": 84}, {"time": 810, "pitch": 74, "duration": 3, "velocity": 86}, {"time": 813, "pitch": 75, "duration": 16, "velocity": 93}, {"time": 837, "pitch": 75, "duration": 4, "velocity": 87}, {"time": 840, "pitch": 74, "duration": 8, "velocity": 86}, {"time": 846, "pitch": 70, "duration": 2, "velocity": 80}, {"time": 852, "pitch": 70, "duration": 6, "velocity": 90}, {"time": 858, "pitch": 67, "duration": 3, "velocity": 81}, {"time": 861, "pitch": 70, "duration": 20, "velocity": 91}, {"time": 882, "pitch": 63, "duration": 3, "velocity": 88}, {"time": 885, "pitch": 62, "duration": 3, "velocity": 85}, {"time": 888, "pitch": 63, "duration": 12, "velocity": 90}, {"time": 906, "pitch": 63, "duration": 3, "velocity": 87}, {"time": 909, "pitch": 62, "duration": 3, "velocity": 85}, {"time": 912, "pitch": 63, "duration": 11, "velocity": 87}, {"time": 930, "pitch": 67, "duration": 2, "velocity": 85}, {"time": 933, "pitch": 70, "duration": 2, "velocity": 91}, {"time": 936, "pitch": 72, "duration": 6, "velocity": 84}, {"time": 942, "pitch": 70, "duration": 3, "velocity": 89}, {"time": 948, "pitch": 70, "duration": 6, "velocity": 88}, {"time": 954, "pitch": 67, "duration": 3, "velocity": 81}, {"time": 957, "pitch": 70, "duration": 17, "velocity": 90}, {"time": 981, "pitch": 75, "duration": 1, "velocity": 95}, {"time": 984, "pitch": 82, "duration": 4, "velocity": 95}, {"time": 990, "pitch": 82, "duration": 4, "velocity": 90}, {"time": 996, "pitch": 75, "duration": 5, "velocity": 93}, {"time": 1002, "pitch": 72, "duration": 2, "velocity": 88}, {"time": 1005, "pitch": 75, "duration": 16, "velocity": 88}, {"time": 1029, "pitch": 70, "duration": 1, "velocity": 86}, {"time": 1032, "pitch": 70, "duration": 5, "velocity": 89}, {"time": 1038, "pitch": 79, "duration": 2, "velocity": 88}, {"time": 1040, "pitch": 79, "duration": 3, "velocity": 88}, {"time": 1044, "pitch": 79, "duration": 4, "velocity": 90}, {"time": 1050, "pitch": 77, "duration": 1, "velocity": 85}, {"time": 1053, "pitch": 77, "duration": 15, "velocity": 85}, {"time": 1077, "pitch": 75, "duration": 1, "velocity": 95}, {"time": 1080, "pitch": 82, "duration": 4, "velocity": 95}, {"time": 1086, "pitch": 82, "duration": 4, "velocity": 90}, {"time": 1092, "pitch": 75, "duration": 5, "velocity": 93}, {"time": 1098, "pitch": 72, "duration": 2, "velocity": 88}, {"time": 1101, "pitch": 75, "duration": 16, "velocity": 88}, {"time": 1125, "pitch": 70, "duration": 1, "velocity": 86}, {"time": 1128, "pitch": 70, "duration": 5, "velocity": 89}, {"time": 1134, "pitch": 79, "duration": 4, "velocity": 88}, {"time": 1140, "pitch": 79, "duration": 4, "velocity": 90}, {"time": 1146, "pitch": 77, "duration": 1, "velocity": 85}, {"time": 1149, "pitch": 77, "duration": 15, "velocity": 85}, {"time": 1173, "pitch": 75, "duration": 1, "velocity": 95}, {"time": 1176, "pitch": 82, "duration": 4, "velocity": 95}, {"time": 1182, "pitch": 82, "duration": 4, "velocity": 90}, {"time": 1188, "pitch": 75, "duration": 5, "velocity": 93}, {"time": 1194, "pitch": 72, "duration": 2, "velocity": 88}, {"time": 1197, "pitch": 75, "duration": 16, "velocity": 88}, {"time": 1221, "pitch": 70, "duration": 1, "velocity": 86}, {"time": 1224, "pitch": 70, "duration": 5, "velocity": 89}, {"time": 1230, "pitch": 79, "duration": 2, "velocity": 88}, {"time": 1232, "pitch": 79, "duration": 3, "velocity": 88}, {"time": 1236, "pitch": 79, "duration": 4, "velocity": 90}, {"time": 1241, "pitch": 77, "duration": 1, "velocity": 85}, {"time": 1244, "pitch": 77, "duration": 15, "velocity": 85}, {"time": 1266, "pitch": 75, "duration": 2, "velocity": 91}, {"time": 1269, "pitch": 75, "duration": 31, "velocity": 88}, {"time": 1314, "pitch": 75, "duration": 2, "velocity": 88}, {"time": 1317, "pitch": 75, "duration": 2, "velocity": 88}, {"time": 1320, "pitch": 79, "duration": 4, "velocity": 88}, {"time": 1326, "pitch": 79, "duration": 4, "velocity": 88}, {"time": 1332, "pitch": 79, "duration": 4, "velocity": 88}, {"time": 1336, "pitch": 77, "duration": 2, "velocity": 83}, {"time": 1340, "pitch": 77, "duration": 22, "velocity": 83}, {"time": 1566, "pitch": 63, "duration": 2, "velocity": 85}, {"time": 1569, "pitch": 62, "duration": 2, "velocity": 80}, {"time": 1572, "pitch": 63, "duration": 5, "velocity": 85}, {"time": 1578, "pitch": 62, "duration": 2, "velocity": 84}, {"time": 1581, "pitch": 63, "duration": 15, "velocity": 84}, {"time": 1602, "pitch": 63, "duration": 3, "velocity": 87}, {"time": 1605, "pitch": 65, "duration": 3, "velocity": 85}, {"time": 1608, "pitch": 67, "duration": 5, "velocity": 84}, {"time": 1614, "pitch": 65, "duration": 3, "velocity": 77}, {"time": 1617, "pitch": 67, "duration": 6, "velocity": 87}, {"time": 1623, "pitch": 70, "duration": 6, "velocity": 86}, {"time": 1629, "pitch": 67, "duration": 6, "velocity": 84}, {"time": 1635, "pitch": 65, "duration": 18, "velocity": 81}, {"time": 1662, "pitch": 72, "duration": 3, "velocity": 84}, {"time": 1665, "pitch": 70, "duration": 3, "velocity": 88}, {"time": 1668, "pitch": 72, "duration": 6, "velocity": 90}, {"time": 1674, "pitch": 70, "duration": 3, "velocity": 88}, {"time": 1677, "pitch": 72, "duration": 8, "velocity": 86}, {"time": 1686, "pitch": 70, "duration": 10, "velocity": 88}, {"time": 1698, "pitch": 68, "duration": 3, "velocity": 85}, {"time": 1701, "pitch": 70, "duration": 3, "velocity": 86}, {"time": 1704, "pitch": 67, "duration": 21, "velocity": 77}, {"time": 1758, "pitch": 75, "duration": 2, "velocity": 85}, {"time": 1761, "pitch": 75, "duration": 8, "velocity": 84}, {"time": 1770, "pitch": 74, "duration": 3, "velocity": 86}, {"time": 1773, "pitch": 75, "duration": 16, "velocity": 93}, {"time": 1797, "pitch": 75, "duration": 4, "velocity": 87}, {"time": 1800, "pitch": 74, "duration": 8, "velocity": 86}, {"time": 1806, "pitch": 70, "duration": 2, "velocity": 80}, {"time": 1812, "pitch": 70, "duration": 6, "velocity": 90}, {"time": 1818, "pitch": 67, "duration": 3, "velocity": 81}, {"time": 1821, "pitch": 70, "duration": 20, "velocity": 91}, {"time": 1842, "pitch": 63, "duration": 3, "velocity": 88}, {"time": 1845, "pitch": 62, "duration": 3, "velocity": 85}, {"time": 1848, "pitch": 63, "duration": 12, "velocity": 90}, {"time": 1866, "pitch": 63, "duration": 3, "velocity": 87}, {"time": 1869, "pitch": 62, "duration": 3, "velocity": 85}, {"time": 1872, "pitch": 63, "duration": 11, "velocity": 87}, {"time": 1890, "pitch": 67, "duration": 2, "velocity": 85}, {"time": 1893, "pitch": 70, "duration": 2, "velocity": 91}, {"time": 1896, "pitch": 72, "duration": 6, "velocity": 84}, {"time": 1902, "pitch": 70, "duration": 3, "velocity": 89}, {"time": 1908, "pitch": 70, "duration": 6, "velocity": 88}, {"time": 1914, "pitch": 67, "duration": 3, "velocity": 81}, {"time": 1917, "pitch": 70, "duration": 17, "velocity": 90}, {"time": 1941, "pitch": 75, "duration": 1, "velocity": 95}, {"time": 1944, "pitch": 82, "duration": 4, "velocity": 95}, {"time": 1950, "pitch": 82, "duration": 4, "velocity": 90}, {"time": 1956, "pitch": 75, "duration": 5, "velocity": 93}, {"time": 1962, "pitch": 72, "duration": 2, "velocity": 88}, {"time": 1965, "pitch": 75, "duration": 16, "velocity": 88}, {"time": 1989, "pitch": 70, "duration": 1, "velocity": 86}, {"time": 1992, "pitch": 70, "duration": 5, "velocity": 89}, {"time": 1998, "pitch": 79, "duration": 2, "velocity": 88}, {"time": 2000, "pitch": 79, "duration": 3, "velocity": 88}, {"time": 2004, "pitch": 79, "duration": 4, "velocity": 90}, {"time": 2010, "pitch": 77, "duration": 1, "velocity": 85}, {"time": 2013, "pitch": 77, "duration": 15, "velocity": 85}, {"time": 2037, "pitch": 75, "duration": 1, "velocity": 95}, {"time": 2040, "pitch": 82, "duration": 4, "velocity": 95}, {"time": 2046, "pitch": 82, "duration": 4, "velocity": 90}, {"time": 2052, "pitch": 75, "duration": 5, "velocity": 93}, {"time": 2058, "pitch": 72, "duration": 2, "velocity": 88}, {"time": 2061, "pitch": 75, "duration": 16, "velocity": 88}, {"time": 2085, "pitch": 70, "duration": 1, "velocity": 86}, {"time": 2088, "pitch": 70, "duration": 5, "velocity": 89}, {"time": 2094, "pitch": 79, "duration": 4, "velocity": 88}, {"time": 2100, "pitch": 79, "duration": 4, "velocity": 90}, {"time": 2106, "pitch": 77, "duration": 1, "velocity": 85}, {"time": 2109, "pitch": 77, "duration": 15, "velocity": 85}, {"time": 2133, "pitch": 75, "duration": 1, "velocity": 95}, {"time": 2136, "pitch": 82, "duration": 4, "velocity": 95}, {"time": 2142, "pitch": 82, "duration": 4, "velocity": 90}, {"time": 2148, "pitch": 75, "duration": 5, "velocity": 93}, {"time": 2154, "pitch": 72, "duration": 2, "velocity": 88}, {"time": 2157, "pitch": 75, "duration": 16, "velocity": 88}, {"time": 2181, "pitch": 70, "duration": 1, "velocity": 86}, {"time": 2184, "pitch": 70, "duration": 5, "velocity": 89}, {"time": 2190, "pitch": 79, "duration": 2, "velocity": 88}, {"time": 2192, "pitch": 79, "duration": 3, "velocity": 88}, {"time": 2196, "pitch": 79, "duration": 4, "velocity": 90}, {"time": 2202, "pitch": 77, "duration": 1, "velocity": 85}, {"time": 2205, "pitch": 77, "duration": 15, "velocity": 85}, {"time": 2226, "pitch": 75, "duration": 2, "velocity": 91}, {"time": 2229, "pitch": 75, "duration": 31, "velocity": 88}, {"time": 2277, "pitch": 75, "duration": 2, "velocity": 88}, {"time": 2280, "pitch": 79, "duration": 4, "velocity": 88}, {"time": 2286, "pitch": 79, "duration": 2, "velocity": 88}, {"time": 2289, "pitch": 79, "duration": 2, "velocity": 88}, {"time": 2292, "pitch": 79, "duration": 4, "velocity": 88}, {"time": 2296, "pitch": 77, "duration": 3, "velocity": 83}, {"time": 2301, "pitch": 77, "duration": 23, "velocity": 83}, {"time": 2517, "pitch": 75, "duration": 1, "velocity": 95}, {"time": 2520, "pitch": 82, "duration": 4, "velocity": 95}, {"time": 2526, "pitch": 82, "duration": 4, "velocity": 90}, {"time": 2532, "pitch": 75, "duration": 5, "velocity": 93}, {"time": 2538, "pitch": 72, "duration": 2, "velocity": 88}, {"time": 2541, "pitch": 75, "duration": 16, "velocity": 88}, {"time": 2565, "pitch": 70, "duration": 1, "velocity": 86}, {"time": 2568, "pitch": 70, "duration": 5, "velocity": 89}, {"time": 2574, "pitch": 79, "duration": 3, "velocity": 88}, {"time": 2577, "pitch": 79, "duration": 3, "velocity": 88}, {"time": 2580, "pitch": 79, "duration": 4, "velocity": 90}, {"time": 2586, "pitch": 77, "duration": 1, "velocity": 85}, {"time": 2589, "pitch": 77, "duration": 15, "velocity": 85}, {"time": 2613, "pitch": 75, "duration": 1, "velocity": 95}, {"time": 2616, "pitch": 82, "duration": 4, "velocity": 95}, {"time": 2622, "pitch": 82, "duration": 4, "velocity": 90}, {"time": 2628, "pitch": 75, "duration": 5, "velocity": 93}, {"time": 2634, "pitch": 72, "duration": 2, "velocity": 88}, {"time": 2637, "pitch": 75, "duration": 16, "velocity": 88}, {"time": 2661, "pitch": 70, "duration": 1, "velocity": 86}, {"time": 2664, "pitch": 70, "duration": 5, "velocity": 89}, {"time": 2670, "pitch": 79, "duration": 4, "velocity": 88}, {"time": 2676, "pitch": 79, "duration": 4, "velocity": 90}, {"time": 2682, "pitch": 77, "duration": 1, "velocity": 85}, {"time": 2685, "pitch": 77, "duration": 15, "velocity": 85}, {"time": 2709, "pitch": 75, "duration": 1, "velocity": 95}, {"time": 2712, "pitch": 82, "duration": 4, "velocity": 95}, {"time": 2718, "pitch": 82, "duration": 4, "velocity": 90}, {"time": 2724, "pitch": 75, "duration": 5, "velocity": 93}, {"time": 2730, "pitch": 72, "duration": 2, "velocity": 88}, {"time": 2733, "pitch": 75, "duration": 16, "velocity": 88}, {"time": 2757, "pitch": 70, "duration": 1, "velocity": 86}, {"time": 2760, "pitch": 70, "duration": 5, "velocity": 89}, {"time": 2766, "pitch": 79, "duration": 2, "velocity": 88}, {"time": 2768, "pitch": 79, "duration": 2, "velocity": 88}, {"time": 2772, "pitch": 79, "duration": 4, "velocity": 90}, {"time": 2778, "pitch": 77, "duration": 1, "velocity": 85}, {"time": 2781, "pitch": 77, "duration": 15, "velocity": 85}, {"time": 2802, "pitch": 75, "duration": 2, "velocity": 91}, {"time": 2805, "pitch": 75, "duration": 31, "velocity": 88}, {"time": 2853, "pitch": 75, "duration": 2, "velocity": 88}, {"time": 2856, "pitch": 79, "duration": 4, "velocity": 88}, {"time": 2862, "pitch": 79, "duration": 4, "velocity": 88}, {"time": 2868, "pitch": 79, "duration": 4, "velocity": 88}, {"time": 2872, "pitch": 77, "duration": 1, "velocity": 83}, {"time": 2877, "pitch": 77, "duration": 15, "velocity": 83}, {"time": 2901, "pitch": 76, "duration": 1, "velocity": 95}, {"time": 2904, "pitch": 83, "duration": 4, "velocity": 95}, {"time": 2910, "pitch": 83, "duration": 4, "velocity": 90}, {"time": 2916, "pitch": 76, "duration": 5, "velocity": 93}, {"time": 2922, "pitch": 73, "duration": 2, "velocity": 88}, {"time": 2925, "pitch": 76, "duration": 16, "velocity": 88}, {"time": 2949, "pitch": 71, "duration": 1, "velocity": 86}, {"time": 2952, "pitch": 71, "duration": 5, "velocity": 89}, {"time": 2958, "pitch": 80, "duration": 3, "velocity": 88}, {"time": 2961, "pitch": 80, "duration": 2, "velocity": 88}, {"time": 2964, "pitch": 80, "duration": 4, "velocity": 90}, {"time": 2967, "pitch": 78, "duration": 3, "velocity": 85}, {"time": 2972, "pitch": 78, "duration": 16, "velocity": 85}, {"time": 2997, "pitch": 76, "duration": 1, "velocity": 95}, {"time": 3000, "pitch": 83, "duration": 4, "velocity": 95}, {"time": 3006, "pitch": 83, "duration": 4, "velocity": 90}, {"time": 3012, "pitch": 76, "duration": 5, "velocity": 93}, {"time": 3018, "pitch": 73, "duration": 2, "velocity": 88}, {"time": 3021, "pitch": 76, "duration": 5, "velocity": 88}, {"time": 3027, "pitch": 76, "duration": 7, "velocity": 88}, {"time": 3045, "pitch": 71, "duration": 1, "velocity": 86}, {"time": 3048, "pitch": 71, "duration": 5, "velocity": 89}, {"time": 3054, "pitch": 80, "duration": 4, "velocity": 88}, {"time": 3060, "pitch": 80, "duration": 4, "velocity": 90}, {"time": 3066, "pitch": 78, "duration": 1, "velocity": 85}, {"time": 3069, "pitch": 78, "duration": 15, "velocity": 85}, {"time": 3093, "pitch": 76, "duration": 1, "velocity": 95}, {"time": 3096, "pitch": 83, "duration": 4, "velocity": 95}, {"time": 3102, "pitch": 83, "duration": 4, "velocity": 90}, {"time": 3108, "pitch": 76, "duration": 5, "velocity": 93}, {"time": 3114, "pitch": 73, "duration": 2, "velocity": 88}, {"time": 3117, "pitch": 76, "duration": 6, "velocity": 88}, {"time": 3123, "pitch": 78, "duration": 9, "velocity": 88}, {"time": 3141, "pitch": 71, "duration": 1, "velocity": 86}, {"time": 3144, "pitch": 71, "duration": 5, "velocity": 89}, {"time": 3150, "pitch": 80, "duration": 4, "velocity": 88}, {"time": 3156, "pitch": 80, "duration": 4, "velocity": 90}, {"time": 3162, "pitch": 78, "duration": 1, "velocity": 85}, {"time": 3165, "pitch": 78, "duration": 15, "velocity": 85}, {"time": 3186, "pitch": 76, "duration": 2, "velocity": 91}, {"time": 3189, "pitch": 76, "duration": 31, "velocity": 88}, {"time": 3237, "pitch": 76, "duration": 2, "velocity": 88}, {"time": 3240, "pitch": 80, "duration": 4, "velocity": 88}, {"time": 3246, "pitch": 80, "duration": 4, "velocity": 88}, {"time": 3252, "pitch": 80, "duration": 4, "velocity": 88}, {"time": 3258, "pitch": 78, "duration": 1, "velocity": 83}, {"time": 3261, "pitch": 78, "duration": 23, "velocity": 83}]}, {"program": 0, "is_drum": false, "name": "PIANO", "notes": [{"time": 24, "pitch": 48, "duration": 15, "velocity": 88}, {"time": 27, "pitch": 55, "duration": 11, "velocity": 75}, {"time": 30, "pitch": 60, "duration": 2, "velocity": 78}, {"time": 33, "pitch": 62, "duration": 3, "velocity": 79}, {"time": 39, "pitch": 63, "duration": 6, "velocity": 76}, {"time": 45, "pitch": 67, "duration": 4, "velocity": 79}, {"time": 48, "pitch": 44, "duration": 15, "velocity": 85}, {"time": 51, "pitch": 51, "duration": 10, "velocity": 72}, {"time": 54, "pitch": 56, "duration": 9, "velocity": 78}, {"time": 57, "pitch": 63, "duration": 9, "velocity": 84}, {"time": 63, "pitch": 51, "duration": 3, "velocity": 76}, {"time": 66, "pitch": 56, "duration": 5, "velocity": 73}, {"time": 72, "pitch": 39, "duration": 12, "velocity": 90}, {"time": 75, "pitch": 46, "duration": 9, "velocity": 73}, {"time": 78, "pitch": 51, "duration": 9, "velocity": 80}, {"time": 81, "pitch": 55, "duration": 7, "velocity": 81}, {"time": 87, "pitch": 63, "duration": 3, "velocity": 85}, {"time": 90, "pitch": 51, "duration": 3, "velocity": 85}, {"time": 93, "pitch": 63, "duration": 3, "velocity": 79}, {"time": 96, "pitch": 46, "duration": 18, "velocity": 81}, {"time": 99, "pitch": 53, "duration": 10, "velocity": 76}, {"time": 102, "pitch": 58, "duration": 2, "velocity": 75}, {"time": 105, "pitch": 65, "duration": 9, "velocity": 86}, {"time": 111, "pitch": 53, "duration": 4, "velocity": 78}, {"time": 114, "pitch": 58, "duration": 3, "velocity": 79}, {"time": 117, "pitch": 65, "duration": 5, "velocity": 85}, {"time": 120, "pitch": 48, "duration": 17, "velocity": 89}, {"time": 123, "pitch": 55, "duration": 10, "velocity": 80}, {"time": 126, "pitch": 60, "duration": 1, "velocity": 77}, {"time": 129, "pitch": 63, "duration": 11, "velocity": 88}, {"time": 135, "pitch": 55, "duration": 2, "velocity": 78}, {"time": 138, "pitch": 60, "duration": 3, "velocity": 75}, {"time": 141, "pitch": 67, "duration": 4, "velocity": 77}, {"time": 144, "pitch": 44, "duration": 16, "velocity": 89}, {"time": 147, "pitch": 51, "duration": 13, "velocity": 84}, {"time": 150, "pitch": 56, "duration": 4, "velocity": 79}, {"time": 153, "pitch": 63, "duration": 9, "velocity": 80}, {"time": 159, "pitch": 60, "duration": 3, "velocity": 76}, {"time": 162, "pitch": 56, "duration": 5, "velocity": 81}, {"time": 168, "pitch": 39, "duration": 13, "velocity": 85}, {"time": 171, "pitch": 46, "duration": 10, "velocity": 76}, {"time": 174, "pitch": 51, "duration": 4, "velocity": 84}, {"time": 177, "pitch": 63, "duration": 6, "velocity": 84}, {"time": 183, "pitch": 58, "duration": 6, "velocity": 80}, {"time": 186, "pitch": 51, "duration": 2, "velocity": 84}, {"time": 189, "pitch": 63, "duration": 3, "velocity": 79}, {"time": 192, "pitch": 46, "duration": 19, "velocity": 84}, {"time": 195, "pitch": 53, "duration": 16, "velocity": 63}, {"time": 198, "pitch": 58, "duration": 13, "velocity": 72}, {"time": 201, "pitch": 65, "duration": 12, "velocity": 86}, {"time": 216, "pitch": 48, "duration": 19, "velocity": 85}, {"time": 218, "pitch": 55, "duration": 16, "velocity": 57}, {"time": 222, "pitch": 62, "duration": 2, "velocity": 59}, {"time": 224, "pitch": 60, "duration": 7, "velocity": 79}, {"time": 224, "pitch": 63, "duration": 7, "velocity": 85}, {"time": 230, "pitch": 62, "duration": 4, "velocity": 64}, {"time": 234, "pitch": 60, "duration": 2, "velocity": 68}, {"time": 234, "pitch": 63, "duration": 3, "velocity": 81}, {"time": 236, "pitch": 62, "duration": 4, "velocity": 63}, {"time": 240, "pitch": 44, "duration": 18, "velocity": 92}, {"time": 242, "pitch": 51, "duration": 16, "velocity": 64}, {"time": 246, "pitch": 58, "duration": 3, "velocity": 71}, {"time": 248, "pitch": 60, "duration": 6, "velocity": 77}, {"time": 248, "pitch": 63, "duration": 6, "velocity": 83}, {"time": 254, "pitch": 58, "duration": 4, "velocity": 67}, {"time": 258, "pitch": 60, "duration": 2, "velocity": 68}, {"time": 258, "pitch": 63, "duration": 4, "velocity": 71}, {"time": 260, "pitch": 58, "duration": 3, "velocity": 68}, {"time": 264, "pitch": 39, "duration": 18, "velocity": 92}, {"time": 266, "pitch": 46, "duration": 16, "velocity": 63}, {"time": 270, "pitch": 53, "duration": 2, "velocity": 71}, {"time": 272, "pitch": 55, "duration": 7, "velocity": 91}, {"time": 272, "pitch": 58, "duration": 7, "velocity": 88}, {"time": 278, "pitch": 53, "duration": 4, "velocity": 61}, {"time": 282, "pitch": 55, "duration": 3, "velocity": 83}, {"time": 282, "pitch": 58, "duration": 5, "velocity": 87}, {"time": 284, "pitch": 53, "duration": 2, "velocity": 61}, {"time": 288, "pitch": 46, "duration": 18, "velocity": 88}, {"time": 290, "pitch": 53, "duration": 16, "velocity": 59}, {"time": 294, "pitch": 60, "duration": 3, "velocity": 71}, {"time": 296, "pitch": 62, "duration": 6, "velocity": 79}, {"time": 296, "pitch": 65, "duration": 3, "velocity": 95}, {"time": 302, "pitch": 60, "duration": 3, "velocity": 80}, {"time": 306, "pitch": 62, "duration": 3, "velocity": 90}, {"time": 306, "pitch": 65, "duration": 3, "velocity": 92}, {"time": 308, "pitch": 60, "duration": 2, "velocity": 63}, {"time": 312, "pitch": 48, "duration": 16, "velocity": 84}, {"time": 314, "pitch": 55, "duration": 14, "velocity": 67}, {"time": 318, "pitch": 62, "duration": 3, "velocity": 71}, {"time": 320, "pitch": 60, "duration": 7, "velocity": 83}, {"time": 320, "pitch": 63, "duration": 7, "velocity": 87}, {"time": 326, "pitch": 62, "duration": 4, "velocity": 76}, {"time": 330, "pitch": 60, "duration": 2, "velocity": 79}, {"time": 330, "pitch": 63, "duration": 3, "velocity": 84}, {"time": 332, "pitch": 62, "duration": 3, "velocity": 65}, {"time": 336, "pitch": 44, "duration": 16, "velocity": 88}, {"time": 338, "pitch": 51, "duration": 13, "velocity": 64}, {"time": 342, "pitch": 58, "duration": 3, "velocity": 67}, {"time": 344, "pitch": 60, "duration": 6, "velocity": 79}, {"time": 344, "pitch": 63, "duration": 6, "velocity": 84}, {"time": 350, "pitch": 58, "duration": 4, "velocity": 69}, {"time": 354, "pitch": 60, "duration": 3, "velocity": 72}, {"time": 354, "pitch": 63, "duration": 3, "velocity": 80}, {"time": 356, "pitch": 58, "duration": 2, "velocity": 56}, {"time": 360, "pitch": 39, "duration": 18, "velocity": 88}, {"time": 362, "pitch": 46, "duration": 16, "velocity": 65}, {"time": 366, "pitch": 53, "duration": 3, "velocity": 63}, {"time": 368, "pitch": 55, "duration": 7, "velocity": 90}, {"time": 368, "pitch": 58, "duration": 7, "velocity": 95}, {"time": 374, "pitch": 53, "duration": 4, "velocity": 61}, {"time": 378, "pitch": 55, "duration": 3, "velocity": 72}, {"time": 378, "pitch": 58, "duration": 5, "velocity": 81}, {"time": 380, "pitch": 53, "duration": 2, "velocity": 67}, {"time": 384, "pitch": 46, "duration": 19, "velocity": 85}, {"time": 386, "pitch": 53, "duration": 17, "velocity": 58}, {"time": 390, "pitch": 60, "duration": 3, "velocity": 64}, {"time": 392, "pitch": 62, "duration": 11, "velocity": 80}, {"time": 392, "pitch": 65, "duration": 11, "velocity": 79}, {"time": 408, "pitch": 48, "duration": 10, "velocity": 88}, {"time": 411, "pitch": 55, "duration": 11, "velocity": 75}, {"time": 414, "pitch": 60, "duration": 2, "velocity": 78}, {"time": 417, "pitch": 62, "duration": 3, "velocity": 79}, {"time": 423, "pitch": 63, "duration": 6, "velocity": 76}, {"time": 429, "pitch": 67, "duration": 4, "velocity": 79}, {"time": 432, "pitch": 44, "duration": 15, "velocity": 85}, {"time": 435, "pitch": 51, "duration": 10, "velocity": 72}, {"time": 438, "pitch": 56, "duration": 9, "velocity": 78}, {"time": 441, "pitch": 63, "duration": 9, "velocity": 84}, {"time": 447, "pitch": 51, "duration": 3, "velocity": 76}, {"time": 450, "pitch": 56, "duration": 5, "velocity": 73}, {"time": 456, "pitch": 39, "duration": 12, "velocity": 90}, {"time": 459, "pitch": 46, "duration": 9, "velocity": 73}, {"time": 462, "pitch": 51, "duration": 9, "velocity": 80}, {"time": 465, "pitch": 55, "duration": 7, "velocity": 81}, {"time": 471, "pitch": 63, "duration": 3, "velocity": 85}, {"time": 474, "pitch": 51, "duration": 3, "velocity": 85}, {"time": 477, "pitch": 63, "duration": 3, "velocity": 79}, {"time": 480, "pitch": 46, "duration": 18, "velocity": 81}, {"time": 483, "pitch": 53, "duration": 10, "velocity": 76}, {"time": 486, "pitch": 58, "duration": 2, "velocity": 75}, {"time": 489, "pitch": 65, "duration": 9, "velocity": 86}, {"time": 495, "pitch": 53, "duration": 4, "velocity": 78}, {"time": 498, "pitch": 58, "duration": 3, "velocity": 79}, {"time": 501, "pitch": 65, "duration": 5, "velocity": 85}, {"time": 504, "pitch": 48, "duration": 15, "velocity": 88}, {"time": 507, "pitch": 55, "duration": 11, "velocity": 75}, {"time": 510, "pitch": 60, "duration": 2, "velocity": 78}, {"time": 513, "pitch": 62, "duration": 3, "velocity": 79}, {"time": 519, "pitch": 63, "duration": 6, "velocity": 76}, {"time": 525, "pitch": 67, "duration": 4, "velocity": 79}, {"time": 528, "pitch": 44, "duration": 15, "velocity": 85}, {"time": 531, "pitch": 51, "duration": 10, "velocity": 72}, {"time": 534, "pitch": 56, "duration": 9, "velocity": 78}, {"time": 537, "pitch": 63, "duration": 9, "velocity": 84}, {"time": 543, "pitch": 51, "duration": 3, "velocity": 76}, {"time": 546, "pitch": 56, "duration": 5, "velocity": 73}, {"time": 552, "pitch": 39, "duration": 12, "velocity": 90}, {"time": 555, "pitch": 46, "duration": 9, "velocity": 73}, {"time": 558, "pitch": 51, "duration": 9, "velocity": 80}, {"time": 561, "pitch": 55, "duration": 7, "velocity": 81}, {"time": 567, "pitch": 63, "duration": 3, "velocity": 85}, {"time": 570, "pitch": 51, "duration": 3, "velocity": 85}, {"time": 573, "pitch": 63, "duration": 3, "velocity": 79}, {"time": 576, "pitch": 46, "duration": 18, "velocity": 81}, {"time": 579, "pitch": 53, "duration": 10, "velocity": 76}, {"time": 582, "pitch": 58, "duration": 2, "velocity": 75}, {"time": 585, "pitch": 65, "duration": 9, "velocity": 86}, {"time": 591, "pitch": 53, "duration": 4, "velocity": 78}, {"time": 594, "pitch": 58, "duration": 3, "velocity": 79}, {"time": 597, "pitch": 65, "duration": 5, "velocity": 85}, {"time": 600, "pitch": 48, "duration": 15, "velocity": 88}, {"time": 603, "pitch": 55, "duration": 11, "velocity": 75}, {"time": 606, "pitch": 60, "duration": 2, "velocity": 78}, {"time": 609, "pitch": 62, "duration": 3, "velocity": 79}, {"time": 615, "pitch": 63, "duration": 6, "velocity": 76}, {"time": 621, "pitch": 67, "duration": 4, "velocity": 79}, {"time": 624, "pitch": 44, "duration": 15, "velocity": 85}, {"time": 627, "pitch": 51, "duration": 10, "velocity": 72}, {"time": 630, "pitch": 56, "duration": 9, "velocity": 78}, {"time": 633, "pitch": 63, "duration": 9, "velocity": 84}, {"time": 639, "pitch": 51, "duration": 3, "velocity": 76}, {"time": 642, "pitch": 56, "duration": 5, "velocity": 73}, {"time": 648, "pitch": 39, "duration": 12, "velocity": 90}, {"time": 651, "pitch": 46, "duration": 9, "velocity": 73}, {"time": 654, "pitch": 51, "duration": 9, "velocity": 80}, {"time": 657, "pitch": 55, "duration": 7, "velocity": 81}, {"time": 663, "pitch": 63, "duration": 3, "velocity": 85}, {"time": 666, "pitch": 51, "duration": 3, "velocity": 85}, {"time": 669, "pitch": 63, "duration": 3, "velocity": 79}, {"time": 672, "pitch": 46, "duration": 18, "velocity": 81}, {"time": 675, "pitch": 53, "duration": 10, "velocity": 76}, {"time": 678, "pitch": 58, "duration": 2, "velocity": 75}, {"time": 681, "pitch": 65, "duration": 9, "velocity": 86}, {"time": 687, "pitch": 53, "duration": 4, "velocity": 78}, {"time": 690, "pitch": 58, "duration": 3, "velocity": 79}, {"time": 693, "pitch": 65, "duration": 5, "velocity": 85}, {"time": 696, "pitch": 48, "duration": 15, "velocity": 88}, {"time": 699, "pitch": 55, "duration": 11, "velocity": 75}, {"time": 702, "pitch": 60, "duration": 2, "velocity": 78}, {"time": 705, "pitch": 62, "duration": 3, "velocity": 79}, {"time": 711, "pitch": 63, "duration": 6, "velocity": 76}, {"time": 717, "pitch": 67, "duration": 4, "velocity": 79}, {"time": 720, "pitch": 44, "duration": 15, "velocity": 85}, {"time": 723, "pitch": 51, "duration": 10, "velocity": 72}, {"time": 726, "pitch": 56, "duration": 9, "velocity": 78}, {"time": 729, "pitch": 63, "duration": 9, "velocity": 84}, {"time": 735, "pitch": 51, "duration": 3, "velocity": 76}, {"time": 738, "pitch": 56, "duration": 5, "velocity": 73}, {"time": 744, "pitch": 39, "duration": 12, "velocity": 90}, {"time": 747, "pitch": 46, "duration": 9, "velocity": 73}, {"time": 750, "pitch": 51, "duration": 9, "velocity": 80}, {"time": 753, "pitch": 55, "duration": 7, "velocity": 81}, {"time": 759, "pitch": 63, "duration": 3, "velocity": 85}, {"time": 762, "pitch": 51, "duration": 3, "velocity": 85}, {"time": 765, "pitch": 63, "duration": 3, "velocity": 79}, {"time": 768, "pitch": 46, "duration": 18, "velocity": 81}, {"time": 771, "pitch": 53, "duration": 10, "velocity": 76}, {"time": 774, "pitch": 58, "duration": 2, "velocity": 75}, {"time": 777, "pitch": 65, "duration": 9, "velocity": 86}, {"time": 783, "pitch": 53, "duration": 4, "velocity": 78}, {"time": 786, "pitch": 58, "duration": 3, "velocity": 79}, {"time": 789, "pitch": 65, "duration": 5, "velocity": 85}, {"time": 792, "pitch": 48, "duration": 15, "velocity": 88}, {"time": 795, "pitch": 55, "duration": 11, "velocity": 75}, {"time": 798, "pitch": 60, "duration": 2, "velocity": 78}, {"time": 801, "pitch": 62, "duration": 3, "velocity": 79}, {"time": 807, "pitch": 63, "duration": 6, "velocity": 76}, {"time": 813, "pitch": 67, "duration": 4, "velocity": 79}, {"time": 816, "pitch": 44, "duration": 15, "velocity": 85}, {"time": 819, "pitch": 51, "duration": 10, "velocity": 72}, {"time": 822, "pitch": 56, "duration": 9, "velocity": 78}, {"time": 825, "pitch": 63, "duration": 9, "velocity": 84}, {"time": 831, "pitch": 51, "duration": 3, "velocity": 76}, {"time": 834, "pitch": 56, "duration": 5, "velocity": 73}, {"time": 840, "pitch": 39, "duration": 12, "velocity": 90}, {"time": 843, "pitch": 46, "duration": 9, "velocity": 73}, {"time": 846, "pitch": 51, "duration": 9, "velocity": 80}, {"time": 849, "pitch": 55, "duration": 7, "velocity": 81}, {"time": 855, "pitch": 63, "duration": 3, "velocity": 85}, {"time": 858, "pitch": 51, "duration": 3, "velocity": 85}, {"time": 861, "pitch": 63, "duration": 3, "velocity": 79}, {"time": 864, "pitch": 46, "duration": 18, "velocity": 81}, {"time": 867, "pitch": 53, "duration": 10, "velocity": 76}, {"time": 870, "pitch": 58, "duration": 2, "velocity": 75}, {"time": 873, "pitch": 65, "duration": 9, "velocity": 86}, {"time": 879, "pitch": 53, "duration": 4, "velocity": 78}, {"time": 882, "pitch": 58, "duration": 3, "velocity": 79}, {"time": 885, "pitch": 65, "duration": 5, "velocity": 85}, {"time": 888, "pitch": 48, "duration": 15, "velocity": 88}, {"time": 891, "pitch": 55, "duration": 11, "velocity": 75}, {"time": 894, "pitch": 60, "duration": 2, "velocity": 78}, {"time": 897, "pitch": 62, "duration": 3, "velocity": 79}, {"time": 903, "pitch": 63, "duration": 6, "velocity": 76}, {"time": 909, "pitch": 67, "duration": 4, "velocity": 79}, {"time": 912, "pitch": 44, "duration": 15, "velocity": 85}, {"time": 915, "pitch": 51, "duration": 10, "velocity": 72}, {"time": 918, "pitch": 56, "duration": 9, "velocity": 78}, {"time": 921, "pitch": 63, "duration": 9, "velocity": 84}, {"time": 927, "pitch": 51, "duration": 3, "velocity": 76}, {"time": 930, "pitch": 56, "duration": 5, "velocity": 73}, {"time": 936, "pitch": 39, "duration": 12, "velocity": 90}, {"time": 939, "pitch": 46, "duration": 9, "velocity": 73}, {"time": 942, "pitch": 51, "duration": 9, "velocity": 80}, {"time": 945, "pitch": 55, "duration": 7, "velocity": 81}, {"time": 951, "pitch": 63, "duration": 3, "velocity": 85}, {"time": 954, "pitch": 51, "duration": 3, "velocity": 85}, {"time": 957, "pitch": 63, "duration": 3, "velocity": 79}, {"time": 960, "pitch": 46, "duration": 18, "velocity": 81}, {"time": 963, "pitch": 53, "duration": 10, "velocity": 76}, {"time": 966, "pitch": 58, "duration": 2, "velocity": 75}, {"time": 969, "pitch": 65, "duration": 9, "velocity": 86}, {"time": 975, "pitch": 53, "duration": 4, "velocity": 78}, {"time": 978, "pitch": 58, "duration": 3, "velocity": 79}, {"time": 981, "pitch": 65, "duration": 5, "velocity": 85}, {"time": 984, "pitch": 48, "duration": 18, "velocity": 97}, {"time": 987, "pitch": 55, "duration": 9, "velocity": 64}, {"time": 990, "pitch": 62, "duration": 1, "velocity": 72}, {"time": 993, "pitch": 60, "duration": 4, "velocity": 77}, {"time": 993, "pitch": 63, "duration": 6, "velocity": 102}, {"time": 999, "pitch": 55, "duration": 2, "velocity": 53}, {"time": 1002, "pitch": 62, "duration": 3, "velocity": 85}, {"time": 1005, "pitch": 60, "duration": 1, "velocity": 63}, {"time": 1005, "pitch": 63, "duration": 5, "velocity": 104}, {"time": 1008, "pitch": 44, "duration": 18, "velocity": 97}, {"time": 1011, "pitch": 51, "duration": 15, "velocity": 63}, {"time": 1014, "pitch": 58, "duration": 1, "velocity": 76}, {"time": 1017, "pitch": 60, "duration": 4, "velocity": 88}, {"time": 1017, "pitch": 63, "duration": 3, "velocity": 100}, {"time": 1023, "pitch": 58, "duration": 1, "velocity": 71}, {"time": 1026, "pitch": 60, "duration": 2, "velocity": 79}, {"time": 1026, "pitch": 63, "duration": 4, "velocity": 91}, {"time": 1029, "pitch": 51, "duration": 1, "velocity": 79}, {"time": 1032, "pitch": 39, "duration": 18, "velocity": 100}, {"time": 1035, "pitch": 46, "duration": 15, "velocity": 63}, {"time": 1038, "pitch": 53, "duration": 2, "velocity": 69}, {"time": 1041, "pitch": 55, "duration": 6, "velocity": 90}, {"time": 1041, "pitch": 58, "duration": 6, "velocity": 100}, {"time": 1047, "pitch": 53, "duration": 3, "velocity": 72}, {"time": 1050, "pitch": 55, "duration": 3, "velocity": 83}, {"time": 1050, "pitch": 58, "duration": 5, "velocity": 90}, {"time": 1053, "pitch": 53, "duration": 1, "velocity": 69}, {"time": 1056, "pitch": 50, "duration": 18, "velocity": 85}, {"time": 1059, "pitch": 58, "duration": 15, "velocity": 62}, {"time": 1062, "pitch": 60, "duration": 2, "velocity": 80}, {"time": 1065, "pitch": 62, "duration": 1, "velocity": 77}, {"time": 1065, "pitch": 65, "duration": 5, "velocity": 88}, {"time": 1071, "pitch": 58, "duration": 3, "velocity": 69}, {"time": 1074, "pitch": 60, "duration": 3, "velocity": 74}, {"time": 1077, "pitch": 62, "duration": 1, "velocity": 76}, {"time": 1077, "pitch": 65, "duration": 3, "velocity": 92}, {"time": 1080, "pitch": 48, "duration": 19, "velocity": 95}, {"time": 1083, "pitch": 55, "duration": 16, "velocity": 76}, {"time": 1086, "pitch": 60, "duration": 2, "velocity": 61}, {"time": 1089, "pitch": 63, "duration": 6, "velocity": 104}, {"time": 1095, "pitch": 60, "duration": 2, "velocity": 67}, {"time": 1098, "pitch": 62, "duration": 3, "velocity": 84}, {"time": 1101, "pitch": 63, "duration": 3, "velocity": 97}, {"time": 1104, "pitch": 44, "duration": 18, "velocity": 94}, {"time": 1107, "pitch": 51, "duration": 15, "velocity": 69}, {"time": 1110, "pitch": 58, "duration": 1, "velocity": 72}, {"time": 1113, "pitch": 60, "duration": 4, "velocity": 81}, {"time": 1113, "pitch": 63, "duration": 4, "velocity": 92}, {"time": 1119, "pitch": 58, "duration": 2, "velocity": 84}, {"time": 1122, "pitch": 60, "duration": 3, "velocity": 80}, {"time": 1122, "pitch": 63, "duration": 2, "velocity": 90}, {"time": 1125, "pitch": 58, "duration": 2, "velocity": 80}, {"time": 1128, "pitch": 39, "duration": 17, "velocity": 102}, {"time": 1131, "pitch": 46, "duration": 14, "velocity": 74}, {"time": 1134, "pitch": 53, "duration": 1, "velocity": 55}, {"time": 1137, "pitch": 55, "duration": 6, "velocity": 87}, {"time": 1137, "pitch": 58, "duration": 6, "velocity": 92}, {"time": 1137, "pitch": 63, "duration": 5, "velocity": 95}, {"time": 1143, "pitch": 53, "duration": 3, "velocity": 64}, {"time": 1146, "pitch": 55, "duration": 3, "velocity": 72}, {"time": 1146, "pitch": 58, "duration": 4, "velocity": 85}, {"time": 1146, "pitch": 63, "duration": 3, "velocity": 84}, {"time": 1149, "pitch": 53, "duration": 1, "velocity": 67}, {"time": 1152, "pitch": 46, "duration": 19, "velocity": 84}, {"time": 1155, "pitch": 53, "duration": 9, "velocity": 57}, {"time": 1158, "pitch": 58, "duration": 2, "velocity": 63}, {"time": 1161, "pitch": 62, "duration": 5, "velocity": 90}, {"time": 1167, "pitch": 53, "duration": 3, "velocity": 54}, {"time": 1167, "pitch": 58, "duration": 3, "velocity": 50}, {"time": 1170, "pitch": 62, "duration": 2, "velocity": 67}, {"time": 1170, "pitch": 65, "duration": 2, "velocity": 79}, {"time": 1173, "pitch": 58, "duration": 1, "velocity": 81}, {"time": 1176, "pitch": 48, "duration": 18, "velocity": 97}, {"time": 1179, "pitch": 55, "duration": 9, "velocity": 64}, {"time": 1182, "pitch": 62, "duration": 1, "velocity": 72}, {"time": 1185, "pitch": 60, "duration": 4, "velocity": 77}, {"time": 1185, "pitch": 63, "duration": 6, "velocity": 102}, {"time": 1191, "pitch": 55, "duration": 2, "velocity": 53}, {"time": 1194, "pitch": 62, "duration": 3, "velocity": 85}, {"time": 1197, "pitch": 60, "duration": 1, "velocity": 63}, {"time": 1197, "pitch": 63, "duration": 5, "velocity": 104}, {"time": 1200, "pitch": 44, "duration": 18, "velocity": 97}, {"time": 1203, "pitch": 51, "duration": 15, "velocity": 63}, {"time": 1206, "pitch": 58, "duration": 1, "velocity": 76}, {"time": 1209, "pitch": 60, "duration": 4, "velocity": 88}, {"time": 1209, "pitch": 63, "duration": 3, "velocity": 100}, {"time": 1215, "pitch": 58, "duration": 1, "velocity": 71}, {"time": 1218, "pitch": 60, "duration": 2, "velocity": 79}, {"time": 1218, "pitch": 63, "duration": 4, "velocity": 91}, {"time": 1221, "pitch": 51, "duration": 1, "velocity": 79}, {"time": 1224, "pitch": 39, "duration": 18, "velocity": 100}, {"time": 1227, "pitch": 46, "duration": 15, "velocity": 63}, {"time": 1230, "pitch": 53, "duration": 2, "velocity": 69}, {"time": 1233, "pitch": 55, "duration": 6, "velocity": 90}, {"time": 1233, "pitch": 58, "duration": 6, "velocity": 100}, {"time": 1239, "pitch": 53, "duration": 3, "velocity": 72}, {"time": 1242, "pitch": 55, "duration": 3, "velocity": 83}, {"time": 1242, "pitch": 58, "duration": 5, "velocity": 90}, {"time": 1245, "pitch": 53, "duration": 1, "velocity": 69}, {"time": 1248, "pitch": 50, "duration": 18, "velocity": 85}, {"time": 1251, "pitch": 58, "duration": 15, "velocity": 62}, {"time": 1254, "pitch": 60, "duration": 2, "velocity": 80}, {"time": 1257, "pitch": 62, "duration": 1, "velocity": 77}, {"time": 1257, "pitch": 65, "duration": 5, "velocity": 88}, {"time": 1263, "pitch": 58, "duration": 3, "velocity": 69}, {"time": 1266, "pitch": 60, "duration": 3, "velocity": 74}, {"time": 1269, "pitch": 62, "duration": 1, "velocity": 76}, {"time": 1269, "pitch": 65, "duration": 3, "velocity": 92}, {"time": 1272, "pitch": 48, "duration": 19, "velocity": 95}, {"time": 1275, "pitch": 55, "duration": 16, "velocity": 76}, {"time": 1278, "pitch": 60, "duration": 2, "velocity": 61}, {"time": 1281, "pitch": 63, "duration": 6, "velocity": 104}, {"time": 1287, "pitch": 60, "duration": 2, "velocity": 67}, {"time": 1290, "pitch": 62, "duration": 3, "velocity": 84}, {"time": 1293, "pitch": 63, "duration": 3, "velocity": 97}, {"time": 1296, "pitch": 44, "duration": 18, "velocity": 94}, {"time": 1299, "pitch": 51, "duration": 15, "velocity": 69}, {"time": 1302, "pitch": 58, "duration": 1, "velocity": 72}, {"time": 1305, "pitch": 60, "duration": 4, "velocity": 81}, {"time": 1305, "pitch": 63, "duration": 4, "velocity": 92}, {"time": 1311, "pitch": 58, "duration": 2, "velocity": 84}, {"time": 1314, "pitch": 60, "duration": 3, "velocity": 80}, {"time": 1314, "pitch": 63, "duration": 2, "velocity": 90}, {"time": 1317, "pitch": 58, "duration": 2, "velocity": 80}, {"time": 1320, "pitch": 39, "duration": 17, "velocity": 102}, {"time": 1323, "pitch": 46, "duration": 14, "velocity": 74}, {"time": 1326, "pitch": 53, "duration": 1, "velocity": 55}, {"time": 1329, "pitch": 55, "duration": 6, "velocity": 87}, {"time": 1329, "pitch": 58, "duration": 6, "velocity": 92}, {"time": 1329, "pitch": 63, "duration": 5, "velocity": 95}, {"time": 1335, "pitch": 53, "duration": 3, "velocity": 64}, {"time": 1338, "pitch": 55, "duration": 3, "velocity": 72}, {"time": 1338, "pitch": 58, "duration": 4, "velocity": 85}, {"time": 1338, "pitch": 63, "duration": 3, "velocity": 84}, {"time": 1341, "pitch": 53, "duration": 1, "velocity": 67}, {"time": 1344, "pitch": 46, "duration": 19, "velocity": 84}, {"time": 1347, "pitch": 53, "duration": 9, "velocity": 57}, {"time": 1350, "pitch": 58, "duration": 2, "velocity": 63}, {"time": 1353, "pitch": 62, "duration": 5, "velocity": 90}, {"time": 1359, "pitch": 53, "duration": 3, "velocity": 54}, {"time": 1359, "pitch": 58, "duration": 3, "velocity": 50}, {"time": 1362, "pitch": 62, "duration": 2, "velocity": 67}, {"time": 1362, "pitch": 65, "duration": 2, "velocity": 79}, {"time": 1365, "pitch": 58, "duration": 1, "velocity": 81}, {"time": 1368, "pitch": 48, "duration": 1, "velocity": 88}, {"time": 1371, "pitch": 55, "duration": 11, "velocity": 75}, {"time": 1374, "pitch": 60, "duration": 2, "velocity": 78}, {"time": 1377, "pitch": 62, "duration": 3, "velocity": 79}, {"time": 1383, "pitch": 63, "duration": 6, "velocity": 76}, {"time": 1389, "pitch": 67, "duration": 4, "velocity": 79}, {"time": 1392, "pitch": 44, "duration": 15, "velocity": 85}, {"time": 1395, "pitch": 51, "duration": 10, "velocity": 72}, {"time": 1398, "pitch": 56, "duration": 9, "velocity": 78}, {"time": 1401, "pitch": 63, "duration": 9, "velocity": 84}, {"time": 1407, "pitch": 51, "duration": 3, "velocity": 76}, {"time": 1410, "pitch": 56, "duration": 5, "velocity": 73}, {"time": 1416, "pitch": 39, "duration": 12, "velocity": 90}, {"time": 1419, "pitch": 46, "duration": 9, "velocity": 73}, {"time": 1422, "pitch": 51, "duration": 9, "velocity": 80}, {"time": 1425, "pitch": 55, "duration": 7, "velocity": 81}, {"time": 1431, "pitch": 63, "duration": 3, "velocity": 85}, {"time": 1434, "pitch": 51, "duration": 3, "velocity": 85}, {"time": 1437, "pitch": 63, "duration": 3, "velocity": 79}, {"time": 1440, "pitch": 46, "duration": 18, "velocity": 81}, {"time": 1443, "pitch": 53, "duration": 10, "velocity": 76}, {"time": 1446, "pitch": 58, "duration": 2, "velocity": 75}, {"time": 1449, "pitch": 65, "duration": 9, "velocity": 86}, {"time": 1455, "pitch": 53, "duration": 4, "velocity": 78}, {"time": 1458, "pitch": 58, "duration": 3, "velocity": 79}, {"time": 1461, "pitch": 65, "duration": 5, "velocity": 85}, {"time": 1464, "pitch": 48, "duration": 17, "velocity": 89}, {"time": 1467, "pitch": 55, "duration": 10, "velocity": 80}, {"time": 1470, "pitch": 60, "duration": 1, "velocity": 77}, {"time": 1473, "pitch": 63, "duration": 11, "velocity": 88}, {"time": 1479, "pitch": 55, "duration": 2, "velocity": 78}, {"time": 1482, "pitch": 60, "duration": 3, "velocity": 75}, {"time": 1485, "pitch": 67, "duration": 4, "velocity": 77}, {"time": 1488, "pitch": 44, "duration": 16, "velocity": 89}, {"time": 1491, "pitch": 51, "duration": 13, "velocity": 84}, {"time": 1494, "pitch": 56, "duration": 4, "velocity": 79}, {"time": 1497, "pitch": 63, "duration": 9, "velocity": 80}, {"time": 1503, "pitch": 60, "duration": 3, "velocity": 76}, {"time": 1506, "pitch": 56, "duration": 5, "velocity": 81}, {"time": 1512, "pitch": 39, "duration": 13, "velocity": 85}, {"time": 1515, "pitch": 46, "duration": 10, "velocity": 76}, {"time": 1518, "pitch": 51, "duration": 4, "velocity": 84}, {"time": 1521, "pitch": 63, "duration": 6, "velocity": 84}, {"time": 1527, "pitch": 58, "duration": 6, "velocity": 80}, {"time": 1530, "pitch": 51, "duration": 2, "velocity": 84}, {"time": 1533, "pitch": 63, "duration": 3, "velocity": 79}, {"time": 1536, "pitch": 46, "duration": 19, "velocity": 84}, {"time": 1539, "pitch": 53, "duration": 16, "velocity": 63}, {"time": 1542, "pitch": 58, "duration": 13, "velocity": 72}, {"time": 1545, "pitch": 65, "duration": 12, "velocity": 86}, {"time": 1560, "pitch": 48, "duration": 15, "velocity": 88}, {"time": 1563, "pitch": 55, "duration": 11, "velocity": 75}, {"time": 1566, "pitch": 60, "duration": 2, "velocity": 78}, {"time": 1569, "pitch": 62, "duration": 3, "velocity": 79}, {"time": 1575, "pitch": 63, "duration": 6, "velocity": 76}, {"time": 1581, "pitch": 67, "duration": 4, "velocity": 79}, {"time": 1584, "pitch": 44, "duration": 15, "velocity": 85}, {"time": 1587, "pitch": 51, "duration": 10, "velocity": 72}, {"time": 1590, "pitch": 56, "duration": 9, "velocity": 78}, {"time": 1593, "pitch": 63, "duration": 9, "velocity": 84}, {"time": 1599, "pitch": 51, "duration": 3, "velocity": 76}, {"time": 1602, "pitch": 56, "duration": 5, "velocity": 73}, {"time": 1608, "pitch": 39, "duration": 12, "velocity": 90}, {"time": 1611, "pitch": 46, "duration": 9, "velocity": 73}, {"time": 1614, "pitch": 51, "duration": 9, "velocity": 80}, {"time": 1617, "pitch": 55, "duration": 7, "velocity": 81}, {"time": 1623, "pitch": 63, "duration": 3, "velocity": 85}, {"time": 1626, "pitch": 51, "duration": 3, "velocity": 85}, {"time": 1629, "pitch": 63, "duration": 3, "velocity": 79}, {"time": 1632, "pitch": 46, "duration": 18, "velocity": 81}, {"time": 1635, "pitch": 53, "duration": 10, "velocity": 76}, {"time": 1638, "pitch": 58, "duration": 2, "velocity": 75}, {"time": 1641, "pitch": 65, "duration": 9, "velocity": 86}, {"time": 1647, "pitch": 53, "duration": 4, "velocity": 78}, {"time": 1650, "pitch": 58, "duration": 3, "velocity": 79}, {"time": 1653, "pitch": 65, "duration": 5, "velocity": 85}, {"time": 1656, "pitch": 48, "duration": 15, "velocity": 88}, {"time": 1659, "pitch": 55, "duration": 11, "velocity": 75}, {"time": 1662, "pitch": 60, "duration": 2, "velocity": 78}, {"time": 1665, "pitch": 62, "duration": 3, "velocity": 79}, {"time": 1671, "pitch": 63, "duration": 6, "velocity": 76}, {"time": 1677, "pitch": 67, "duration": 4, "velocity": 79}, {"time": 1680, "pitch": 44, "duration": 15, "velocity": 85}, {"time": 1683, "pitch": 51, "duration": 10, "velocity": 72}, {"time": 1686, "pitch": 56, "duration": 9, "velocity": 78}, {"time": 1689, "pitch": 63, "duration": 9, "velocity": 84}, {"time": 1695, "pitch": 51, "duration": 3, "velocity": 76}, {"time": 1698, "pitch": 56, "duration": 5, "velocity": 73}, {"time": 1704, "pitch": 39, "duration": 12, "velocity": 90}, {"time": 1707, "pitch": 46, "duration": 9, "velocity": 73}, {"time": 1710, "pitch": 51, "duration": 9, "velocity": 80}, {"time": 1713, "pitch": 55, "duration": 7, "velocity": 81}, {"time": 1719, "pitch": 63, "duration": 3, "velocity": 85}, {"time": 1722, "pitch": 51, "duration": 3, "velocity": 85}, {"time": 1725, "pitch": 63, "duration": 3, "velocity": 79}, {"time": 1728, "pitch": 46, "duration": 18, "velocity": 81}, {"time": 1731, "pitch": 53, "duration": 10, "velocity": 76}, {"time": 1734, "pitch": 58, "duration": 2, "velocity": 75}, {"time": 1737, "pitch": 65, "duration": 9, "velocity": 86}, {"time": 1743, "pitch": 53, "duration": 4, "velocity": 78}, {"time": 1746, "pitch": 58, "duration": 3, "velocity": 79}, {"time": 1749, "pitch": 65, "duration": 5, "velocity": 85}, {"time": 1752, "pitch": 48, "duration": 15, "velocity": 88}, {"time": 1755, "pitch": 55, "duration": 11, "velocity": 75}, {"time": 1758, "pitch": 60, "duration": 2, "velocity": 78}, {"time": 1761, "pitch": 62, "duration": 3, "velocity": 79}, {"time": 1767, "pitch": 63, "duration": 6, "velocity": 76}, {"time": 1773, "pitch": 67, "duration": 4, "velocity": 79}, {"time": 1776, "pitch": 44, "duration": 15, "velocity": 85}, {"time": 1779, "pitch": 51, "duration": 10, "velocity": 72}, {"time": 1782, "pitch": 56, "duration": 9, "velocity": 78}, {"time": 1785, "pitch": 63, "duration": 9, "velocity": 84}, {"time": 1791, "pitch": 51, "duration": 3, "velocity": 76}, {"time": 1794, "pitch": 56, "duration": 5, "velocity": 73}, {"time": 1800, "pitch": 39, "duration": 12, "velocity": 90}, {"time": 1803, "pitch": 46, "duration": 9, "velocity": 73}, {"time": 1806, "pitch": 51, "duration": 9, "velocity": 80}, {"time": 1809, "pitch": 55, "duration": 7, "velocity": 81}, {"time": 1815, "pitch": 63, "duration": 3, "velocity": 85}, {"time": 1818, "pitch": 51, "duration": 3, "velocity": 85}, {"time": 1821, "pitch": 63, "duration": 3, "velocity": 79}, {"time": 1824, "pitch": 46, "duration": 18, "velocity": 81}, {"time": 1827, "pitch": 53, "duration": 10, "velocity": 76}, {"time": 1830, "pitch": 58, "duration": 2, "velocity": 75}, {"time": 1833, "pitch": 65, "duration": 9, "velocity": 86}, {"time": 1839, "pitch": 53, "duration": 4, "velocity": 78}, {"time": 1842, "pitch": 58, "duration": 3, "velocity": 79}, {"time": 1845, "pitch": 65, "duration": 5, "velocity": 85}, {"time": 1848, "pitch": 48, "duration": 15, "velocity": 88}, {"time": 1851, "pitch": 55, "duration": 11, "velocity": 75}, {"time": 1854, "pitch": 60, "duration": 2, "velocity": 78}, {"time": 1857, "pitch": 62, "duration": 3, "velocity": 79}, {"time": 1863, "pitch": 63, "duration": 6, "velocity": 76}, {"time": 1869, "pitch": 67, "duration": 4, "velocity": 79}, {"time": 1872, "pitch": 44, "duration": 15, "velocity": 85}, {"time": 1875, "pitch": 51, "duration": 10, "velocity": 72}, {"time": 1878, "pitch": 56, "duration": 9, "velocity": 78}, {"time": 1881, "pitch": 63, "duration": 9, "velocity": 84}, {"time": 1887, "pitch": 51, "duration": 3, "velocity": 76}, {"time": 1890, "pitch": 56, "duration": 5, "velocity": 73}, {"time": 1896, "pitch": 39, "duration": 12, "velocity": 90}, {"time": 1899, "pitch": 46, "duration": 9, "velocity": 73}, {"time": 1902, "pitch": 51, "duration": 9, "velocity": 80}, {"time": 1905, "pitch": 55, "duration": 7, "velocity": 81}, {"time": 1911, "pitch": 63, "duration": 3, "velocity": 85}, {"time": 1914, "pitch": 51, "duration": 3, "velocity": 85}, {"time": 1917, "pitch": 63, "duration": 3, "velocity": 79}, {"time": 1920, "pitch": 46, "duration": 18, "velocity": 81}, {"time": 1923, "pitch": 53, "duration": 10, "velocity": 76}, {"time": 1926, "pitch": 58, "duration": 2, "velocity": 75}, {"time": 1929, "pitch": 65, "duration": 9, "velocity": 86}, {"time": 1935, "pitch": 53, "duration": 4, "velocity": 78}, {"time": 1938, "pitch": 58, "duration": 3, "velocity": 79}, {"time": 1941, "pitch": 65, "duration": 3, "velocity": 85}, {"time": 1943, "pitch": 48, "duration": 19, "velocity": 97}, {"time": 1946, "pitch": 55, "duration": 10, "velocity": 64}, {"time": 1949, "pitch": 62, "duration": 2, "velocity": 72}, {"time": 1952, "pitch": 60, "duration": 4, "velocity": 77}, {"time": 1952, "pitch": 63, "duration": 6, "velocity": 102}, {"time": 1958, "pitch": 55, "duration": 2, "velocity": 53}, {"time": 1961, "pitch": 62, "duration": 4, "velocity": 85}, {"time": 1964, "pitch": 60, "duration": 1, "velocity": 63}, {"time": 1964, "pitch": 63, "duration": 6, "velocity": 104}, {"time": 1967, "pitch": 44, "duration": 19, "velocity": 97}, {"time": 1970, "pitch": 51, "duration": 16, "velocity": 63}, {"time": 1973, "pitch": 58, "duration": 1, "velocity": 76}, {"time": 1976, "pitch": 60, "duration": 5, "velocity": 88}, {"time": 1976, "pitch": 63, "duration": 4, "velocity": 100}, {"time": 1982, "pitch": 58, "duration": 1, "velocity": 71}, {"time": 1985, "pitch": 60, "duration": 3, "velocity": 79}, {"time": 1985, "pitch": 63, "duration": 4, "velocity": 91}, {"time": 1988, "pitch": 51, "duration": 1, "velocity": 79}, {"time": 1991, "pitch": 39, "duration": 19, "velocity": 100}, {"time": 1994, "pitch": 46, "duration": 16, "velocity": 63}, {"time": 1997, "pitch": 53, "duration": 2, "velocity": 69}, {"time": 2000, "pitch": 55, "duration": 7, "velocity": 90}, {"time": 2000, "pitch": 58, "duration": 7, "velocity": 100}, {"time": 2006, "pitch": 53, "duration": 3, "velocity": 72}, {"time": 2009, "pitch": 55, "duration": 4, "velocity": 83}, {"time": 2009, "pitch": 58, "duration": 6, "velocity": 90}, {"time": 2012, "pitch": 53, "duration": 2, "velocity": 69}, {"time": 2015, "pitch": 50, "duration": 19, "velocity": 85}, {"time": 2018, "pitch": 58, "duration": 16, "velocity": 62}, {"time": 2021, "pitch": 60, "duration": 2, "velocity": 80}, {"time": 2024, "pitch": 62, "duration": 1, "velocity": 77}, {"time": 2024, "pitch": 65, "duration": 6, "velocity": 88}, {"time": 2030, "pitch": 58, "duration": 4, "velocity": 69}, {"time": 2033, "pitch": 60, "duration": 3, "velocity": 74}, {"time": 2036, "pitch": 62, "duration": 1, "velocity": 76}, {"time": 2036, "pitch": 65, "duration": 4, "velocity": 92}, {"time": 2039, "pitch": 48, "duration": 20, "velocity": 95}, {"time": 2042, "pitch": 55, "duration": 16, "velocity": 76}, {"time": 2045, "pitch": 60, "duration": 2, "velocity": 61}, {"time": 2048, "pitch": 63, "duration": 6, "velocity": 104}, {"time": 2054, "pitch": 60, "duration": 3, "velocity": 67}, {"time": 2057, "pitch": 62, "duration": 4, "velocity": 84}, {"time": 2060, "pitch": 63, "duration": 4, "velocity": 97}, {"time": 2063, "pitch": 44, "duration": 19, "velocity": 94}, {"time": 2066, "pitch": 51, "duration": 15, "velocity": 69}, {"time": 2069, "pitch": 58, "duration": 1, "velocity": 72}, {"time": 2072, "pitch": 60, "duration": 5, "velocity": 81}, {"time": 2072, "pitch": 63, "duration": 4, "velocity": 92}, {"time": 2078, "pitch": 58, "duration": 3, "velocity": 84}, {"time": 2081, "pitch": 60, "duration": 3, "velocity": 80}, {"time": 2081, "pitch": 63, "duration": 3, "velocity": 90}, {"time": 2084, "pitch": 58, "duration": 3, "velocity": 80}, {"time": 2087, "pitch": 39, "duration": 17, "velocity": 102}, {"time": 2090, "pitch": 46, "duration": 15, "velocity": 74}, {"time": 2093, "pitch": 53, "duration": 2, "velocity": 55}, {"time": 2096, "pitch": 55, "duration": 6, "velocity": 87}, {"time": 2096, "pitch": 58, "duration": 6, "velocity": 92}, {"time": 2096, "pitch": 63, "duration": 6, "velocity": 95}, {"time": 2102, "pitch": 53, "duration": 4, "velocity": 64}, {"time": 2105, "pitch": 55, "duration": 4, "velocity": 72}, {"time": 2105, "pitch": 58, "duration": 5, "velocity": 85}, {"time": 2105, "pitch": 63, "duration": 4, "velocity": 84}, {"time": 2108, "pitch": 53, "duration": 1, "velocity": 67}, {"time": 2111, "pitch": 46, "duration": 19, "velocity": 84}, {"time": 2114, "pitch": 53, "duration": 10, "velocity": 57}, {"time": 2117, "pitch": 58, "duration": 2, "velocity": 63}, {"time": 2120, "pitch": 62, "duration": 6, "velocity": 90}, {"time": 2126, "pitch": 53, "duration": 3, "velocity": 54}, {"time": 2126, "pitch": 58, "duration": 3, "velocity": 50}, {"time": 2129, "pitch": 62, "duration": 2, "velocity": 67}, {"time": 2129, "pitch": 65, "duration": 2, "velocity": 79}, {"time": 2132, "pitch": 58, "duration": 1, "velocity": 81}, {"time": 2135, "pitch": 48, "duration": 19, "velocity": 97}, {"time": 2138, "pitch": 55, "duration": 10, "velocity": 64}, {"time": 2141, "pitch": 62, "duration": 2, "velocity": 72}, {"time": 2144, "pitch": 60, "duration": 4, "velocity": 77}, {"time": 2144, "pitch": 63, "duration": 6, "velocity": 102}, {"time": 2150, "pitch": 55, "duration": 2, "velocity": 53}, {"time": 2153, "pitch": 62, "duration": 4, "velocity": 85}, {"time": 2156, "pitch": 60, "duration": 1, "velocity": 63}, {"time": 2156, "pitch": 63, "duration": 6, "velocity": 104}, {"time": 2159, "pitch": 44, "duration": 19, "velocity": 97}, {"time": 2162, "pitch": 51, "duration": 16, "velocity": 63}, {"time": 2165, "pitch": 58, "duration": 1, "velocity": 76}, {"time": 2168, "pitch": 60, "duration": 5, "velocity": 88}, {"time": 2168, "pitch": 63, "duration": 4, "velocity": 100}, {"time": 2174, "pitch": 58, "duration": 1, "velocity": 71}, {"time": 2177, "pitch": 60, "duration": 3, "velocity": 79}, {"time": 2177, "pitch": 63, "duration": 4, "velocity": 91}, {"time": 2180, "pitch": 51, "duration": 1, "velocity": 79}, {"time": 2183, "pitch": 39, "duration": 19, "velocity": 100}, {"time": 2186, "pitch": 46, "duration": 16, "velocity": 63}, {"time": 2189, "pitch": 53, "duration": 2, "velocity": 69}, {"time": 2192, "pitch": 55, "duration": 7, "velocity": 90}, {"time": 2192, "pitch": 58, "duration": 7, "velocity": 100}, {"time": 2198, "pitch": 53, "duration": 3, "velocity": 72}, {"time": 2201, "pitch": 55, "duration": 4, "velocity": 83}, {"time": 2201, "pitch": 58, "duration": 6, "velocity": 90}, {"time": 2204, "pitch": 53, "duration": 2, "velocity": 69}, {"time": 2207, "pitch": 50, "duration": 19, "velocity": 85}, {"time": 2210, "pitch": 58, "duration": 16, "velocity": 62}, {"time": 2213, "pitch": 60, "duration": 2, "velocity": 80}, {"time": 2216, "pitch": 62, "duration": 1, "velocity": 77}, {"time": 2216, "pitch": 65, "duration": 6, "velocity": 88}, {"time": 2222, "pitch": 58, "duration": 4, "velocity": 69}, {"time": 2225, "pitch": 60, "duration": 3, "velocity": 74}, {"time": 2228, "pitch": 62, "duration": 1, "velocity": 76}, {"time": 2228, "pitch": 65, "duration": 4, "velocity": 92}, {"time": 2231, "pitch": 48, "duration": 20, "velocity": 95}, {"time": 2234, "pitch": 55, "duration": 16, "velocity": 76}, {"time": 2237, "pitch": 60, "duration": 2, "velocity": 61}, {"time": 2240, "pitch": 63, "duration": 6, "velocity": 104}, {"time": 2246, "pitch": 60, "duration": 3, "velocity": 67}, {"time": 2249, "pitch": 62, "duration": 4, "velocity": 84}, {"time": 2252, "pitch": 63, "duration": 4, "velocity": 97}, {"time": 2255, "pitch": 44, "duration": 19, "velocity": 94}, {"time": 2258, "pitch": 51, "duration": 15, "velocity": 69}, {"time": 2261, "pitch": 58, "duration": 1, "velocity": 72}, {"time": 2264, "pitch": 60, "duration": 5, "velocity": 81}, {"time": 2264, "pitch": 63, "duration": 4, "velocity": 92}, {"time": 2270, "pitch": 58, "duration": 3, "velocity": 84}, {"time": 2273, "pitch": 60, "duration": 3, "velocity": 80}, {"time": 2273, "pitch": 63, "duration": 3, "velocity": 90}, {"time": 2276, "pitch": 58, "duration": 3, "velocity": 80}, {"time": 2279, "pitch": 39, "duration": 17, "velocity": 102}, {"time": 2282, "pitch": 46, "duration": 15, "velocity": 74}, {"time": 2285, "pitch": 53, "duration": 2, "velocity": 55}, {"time": 2288, "pitch": 55, "duration": 6, "velocity": 87}, {"time": 2288, "pitch": 58, "duration": 6, "velocity": 92}, {"time": 2288, "pitch": 63, "duration": 6, "velocity": 95}, {"time": 2294, "pitch": 53, "duration": 4, "velocity": 64}, {"time": 2297, "pitch": 55, "duration": 4, "velocity": 72}, {"time": 2297, "pitch": 58, "duration": 5, "velocity": 85}, {"time": 2297, "pitch": 63, "duration": 4, "velocity": 84}, {"time": 2300, "pitch": 53, "duration": 1, "velocity": 67}, {"time": 2303, "pitch": 46, "duration": 19, "velocity": 84}, {"time": 2306, "pitch": 53, "duration": 10, "velocity": 57}, {"time": 2309, "pitch": 58, "duration": 2, "velocity": 63}, {"time": 2312, "pitch": 62, "duration": 6, "velocity": 90}, {"time": 2318, "pitch": 53, "duration": 3, "velocity": 54}, {"time": 2318, "pitch": 58, "duration": 3, "velocity": 50}, {"time": 2319, "pitch": 62, "duration": 3, "velocity": 86}, {"time": 2321, "pitch": 62, "duration": 2, "velocity": 67}, {"time": 2321, "pitch": 65, "duration": 2, "velocity": 79}, {"time": 2322, "pitch": 58, "duration": 3, "velocity": 83}, {"time": 2324, "pitch": 58, "duration": 3, "velocity": 81}, {"time": 2328, "pitch": 44, "duration": 11, "velocity": 105}, {"time": 2328, "pitch": 56, "duration": 3, "velocity": 80}, {"time": 2328, "pitch": 60, "duration": 4, "velocity": 84}, {"time": 2328, "pitch": 63, "duration": 4, "velocity": 79}, {"time": 2331, "pitch": 51, "duration": 7, "velocity": 67}, {"time": 2334, "pitch": 56, "duration": 1, "velocity": 85}, {"time": 2337, "pitch": 56, "duration": 3, "velocity": 85}, {"time": 2337, "pitch": 68, "duration": 2, "velocity": 81}, {"time": 2340, "pitch": 51, "duration": 1, "velocity": 67}, {"time": 2343, "pitch": 56, "duration": 1, "velocity": 70}, {"time": 2343, "pitch": 60, "duration": 1, "velocity": 85}, {"time": 2343, "pitch": 63, "duration": 1, "velocity": 83}, {"time": 2349, "pitch": 56, "duration": 5, "velocity": 89}, {"time": 2349, "pitch": 68, "duration": 5, "velocity": 84}, {"time": 2352, "pitch": 44, "duration": 9, "velocity": 101}, {"time": 2355, "pitch": 51, "duration": 6, "velocity": 85}, {"time": 2358, "pitch": 56, "duration": 1, "velocity": 85}, {"time": 2361, "pitch": 56, "duration": 2, "velocity": 86}, {"time": 2361, "pitch": 60, "duration": 1, "velocity": 86}, {"time": 2361, "pitch": 63, "duration": 2, "velocity": 85}, {"time": 2364, "pitch": 51, "duration": 1, "velocity": 78}, {"time": 2367, "pitch": 56, "duration": 1, "velocity": 85}, {"time": 2367, "pitch": 60, "duration": 1, "velocity": 64}, {"time": 2367, "pitch": 63, "duration": 1, "velocity": 85}, {"time": 2376, "pitch": 43, "duration": 16, "velocity": 86}, {"time": 2376, "pitch": 55, "duration": 3, "velocity": 84}, {"time": 2376, "pitch": 62, "duration": 4, "velocity": 84}, {"time": 2379, "pitch": 50, "duration": 12, "velocity": 76}, {"time": 2382, "pitch": 58, "duration": 1, "velocity": 86}, {"time": 2385, "pitch": 67, "duration": 2, "velocity": 85}, {"time": 2391, "pitch": 58, "duration": 2, "velocity": 83}, {"time": 2391, "pitch": 62, "duration": 2, "velocity": 86}, {"time": 2397, "pitch": 55, "duration": 5, "velocity": 78}, {"time": 2397, "pitch": 58, "duration": 5, "velocity": 75}, {"time": 2397, "pitch": 62, "duration": 6, "velocity": 82}, {"time": 2400, "pitch": 43, "duration": 10, "velocity": 87}, {"time": 2403, "pitch": 50, "duration": 6, "velocity": 71}, {"time": 2406, "pitch": 55, "duration": 1, "velocity": 84}, {"time": 2409, "pitch": 55, "duration": 3, "velocity": 84}, {"time": 2409, "pitch": 58, "duration": 3, "velocity": 90}, {"time": 2409, "pitch": 62, "duration": 3, "velocity": 91}, {"time": 2409, "pitch": 67, "duration": 3, "velocity": 84}, {"time": 2412, "pitch": 50, "duration": 1, "velocity": 86}, {"time": 2415, "pitch": 55, "duration": 2, "velocity": 87}, {"time": 2415, "pitch": 58, "duration": 2, "velocity": 93}, {"time": 2415, "pitch": 62, "duration": 2, "velocity": 98}, {"time": 2415, "pitch": 67, "duration": 1, "velocity": 79}, {"time": 2424, "pitch": 41, "duration": 16, "velocity": 86}, {"time": 2424, "pitch": 53, "duration": 3, "velocity": 80}, {"time": 2424, "pitch": 60, "duration": 4, "velocity": 84}, {"time": 2427, "pitch": 48, "duration": 13, "velocity": 80}, {"time": 2430, "pitch": 53, "duration": 1, "velocity": 78}, {"time": 2433, "pitch": 53, "duration": 2, "velocity": 87}, {"time": 2433, "pitch": 65, "duration": 3, "velocity": 86}, {"time": 2439, "pitch": 53, "duration": 1, "velocity": 91}, {"time": 2439, "pitch": 65, "duration": 1, "velocity": 86}, {"time": 2448, "pitch": 41, "duration": 13, "velocity": 87}, {"time": 2448, "pitch": 60, "duration": 3, "velocity": 84}, {"time": 2448, "pitch": 68, "duration": 3, "velocity": 85}, {"time": 2451, "pitch": 48, "duration": 7, "velocity": 83}, {"time": 2454, "pitch": 60, "duration": 1, "velocity": 85}, {"time": 2457, "pitch": 60, "duration": 4, "velocity": 85}, {"time": 2457, "pitch": 65, "duration": 4, "velocity": 89}, {"time": 2457, "pitch": 68, "duration": 4, "velocity": 88}, {"time": 2460, "pitch": 48, "duration": 1, "velocity": 84}, {"time": 2463, "pitch": 60, "duration": 2, "velocity": 89}, {"time": 2463, "pitch": 65, "duration": 1, "velocity": 90}, {"time": 2463, "pitch": 68, "duration": 2, "velocity": 91}, {"time": 2472, "pitch": 46, "duration": 11, "velocity": 90}, {"time": 2472, "pitch": 58, "duration": 3, "velocity": 82}, {"time": 2472, "pitch": 62, "duration": 5, "velocity": 85}, {"time": 2475, "pitch": 53, "duration": 7, "velocity": 85}, {"time": 2478, "pitch": 58, "duration": 1, "velocity": 77}, {"time": 2481, "pitch": 58, "duration": 4, "velocity": 79}, {"time": 2481, "pitch": 62, "duration": 4, "velocity": 87}, {"time": 2481, "pitch": 65, "duration": 3, "velocity": 85}, {"time": 2484, "pitch": 53, "duration": 2, "velocity": 82}, {"time": 2487, "pitch": 58, "duration": 2, "velocity": 87}, {"time": 2487, "pitch": 62, "duration": 2, "velocity": 90}, {"time": 2487, "pitch": 65, "duration": 3, "velocity": 85}, {"time": 2496, "pitch": 43, "duration": 21, "velocity": 86}, {"time": 2496, "pitch": 55, "duration": 2, "velocity": 84}, {"time": 2496, "pitch": 59, "duration": 3, "velocity": 85}, {"time": 2496, "pitch": 62, "duration": 3, "velocity": 86}, {"time": 2499, "pitch": 50, "duration": 7, "velocity": 84}, {"time": 2502, "pitch": 55, "duration": 1, "velocity": 84}, {"time": 2505, "pitch": 55, "duration": 2, "velocity": 88}, {"time": 2505, "pitch": 59, "duration": 2, "velocity": 100}, {"time": 2505, "pitch": 62, "duration": 2, "velocity": 90}, {"time": 2505, "pitch": 67, "duration": 3, "velocity": 84}, {"time": 2508, "pitch": 50, "duration": 3, "velocity": 90}, {"time": 2511, "pitch": 67, "duration": 5, "velocity": 85}, {"time": 2511, "pitch": 71, "duration": 5, "velocity": 90}, {"time": 2514, "pitch": 50, "duration": 3, "velocity": 85}, {"time": 2517, "pitch": 67, "duration": 3, "velocity": 77}, {"time": 2517, "pitch": 71, "duration": 3, "velocity": 81}, {"time": 2517, "pitch": 74, "duration": 3, "velocity": 81}, {"time": 2520, "pitch": 36, "duration": 13, "velocity": 87}, {"time": 2520, "pitch": 60, "duration": 2, "velocity": 82}, {"time": 2520, "pitch": 63, "duration": 6, "velocity": 85}, {"time": 2520, "pitch": 67, "duration": 1, "velocity": 79}, {"time": 2526, "pitch": 60, "duration": 2, "velocity": 73}, {"time": 2532, "pitch": 60, "duration": 2, "velocity": 85}, {"time": 2532, "pitch": 63, "duration": 3, "velocity": 95}, {"time": 2535, "pitch": 36, "duration": 1, "velocity": 84}, {"time": 2538, "pitch": 60, "duration": 3, "velocity": 91}, {"time": 2541, "pitch": 62, "duration": 3, "velocity": 87}, {"time": 2544, "pitch": 44, "duration": 13, "velocity": 98}, {"time": 2544, "pitch": 63, "duration": 5, "velocity": 87}, {"time": 2550, "pitch": 51, "duration": 8, "velocity": 84}, {"time": 2556, "pitch": 56, "duration": 4, "velocity": 87}, {"time": 2556, "pitch": 63, "duration": 5, "velocity": 86}, {"time": 2562, "pitch": 44, "duration": 1, "velocity": 93}, {"time": 2568, "pitch": 39, "duration": 15, "velocity": 93}, {"time": 2568, "pitch": 58, "duration": 7, "velocity": 80}, {"time": 2568, "pitch": 63, "duration": 6, "velocity": 79}, {"time": 2574, "pitch": 46, "duration": 7, "velocity": 71}, {"time": 2577, "pitch": 55, "duration": 1, "velocity": 76}, {"time": 2580, "pitch": 55, "duration": 3, "velocity": 86}, {"time": 2580, "pitch": 63, "duration": 7, "velocity": 90}, {"time": 2583, "pitch": 46, "duration": 1, "velocity": 90}, {"time": 2586, "pitch": 55, "duration": 4, "velocity": 85}, {"time": 2592, "pitch": 50, "duration": 12, "velocity": 84}, {"time": 2592, "pitch": 58, "duration": 5, "velocity": 85}, {"time": 2592, "pitch": 62, "duration": 5, "velocity": 85}, {"time": 2598, "pitch": 53, "duration": 6, "velocity": 77}, {"time": 2601, "pitch": 58, "duration": 1, "velocity": 79}, {"time": 2604, "pitch": 58, "duration": 2, "velocity": 88}, {"time": 2604, "pitch": 65, "duration": 3, "velocity": 86}, {"time": 2604, "pitch": 46, "duration": 12, "velocity": 84}, {"time": 2607, "pitch": 53, "duration": 1, "velocity": 89}, {"time": 2610, "pitch": 63, "duration": 3, "velocity": 95}, {"time": 2613, "pitch": 62, "duration": 1, "velocity": 85}, {"time": 2616, "pitch": 48, "duration": 16, "velocity": 89}, {"time": 2616, "pitch": 60, "duration": 5, "velocity": 77}, {"time": 2616, "pitch": 63, "duration": 4, "velocity": 90}, {"time": 2622, "pitch": 55, "duration": 7, "velocity": 84}, {"time": 2628, "pitch": 60, "duration": 2, "velocity": 87}, {"time": 2628, "pitch": 63, "duration": 1, "velocity": 95}, {"time": 2628, "pitch": 67, "duration": 2, "velocity": 86}, {"time": 2631, "pitch": 55, "duration": 1, "velocity": 86}, {"time": 2634, "pitch": 60, "duration": 2, "velocity": 84}, {"time": 2637, "pitch": 62, "duration": 3, "velocity": 84}, {"time": 2640, "pitch": 44, "duration": 13, "velocity": 90}, {"time": 2640, "pitch": 63, "duration": 4, "velocity": 85}, {"time": 2646, "pitch": 51, "duration": 9, "velocity": 80}, {"time": 2652, "pitch": 56, "duration": 4, "velocity": 86}, {"time": 2652, "pitch": 63, "duration": 5, "velocity": 83}, {"time": 2658, "pitch": 44, "duration": 1, "velocity": 91}, {"time": 2664, "pitch": 39, "duration": 12, "velocity": 100}, {"time": 2670, "pitch": 55, "duration": 6, "velocity": 95}, {"time": 2676, "pitch": 58, "duration": 5, "velocity": 88}, {"time": 2676, "pitch": 63, "duration": 5, "velocity": 86}, {"time": 2682, "pitch": 55, "duration": 4, "velocity": 85}, {"time": 2688, "pitch": 46, "duration": 20, "velocity": 90}, {"time": 2688, "pitch": 58, "duration": 5, "velocity": 88}, {"time": 2688, "pitch": 62, "duration": 5, "velocity": 84}, {"time": 2694, "pitch": 53, "duration": 6, "velocity": 84}, {"time": 2700, "pitch": 65, "duration": 3, "velocity": 88}, {"time": 2703, "pitch": 53, "duration": 2, "velocity": 86}, {"time": 2706, "pitch": 63, "duration": 1, "velocity": 95}, {"time": 2709, "pitch": 62, "duration": 3, "velocity": 80}, {"time": 2712, "pitch": 48, "duration": 15, "velocity": 89}, {"time": 2712, "pitch": 60, "duration": 9, "velocity": 84}, {"time": 2718, "pitch": 55, "duration": 7, "velocity": 84}, {"time": 2724, "pitch": 63, "duration": 4, "velocity": 91}, {"time": 2724, "pitch": 67, "duration": 4, "velocity": 83}, {"time": 2727, "pitch": 55, "duration": 1, "velocity": 84}, {"time": 2730, "pitch": 60, "duration": 3, "velocity": 86}, {"time": 2733, "pitch": 62, "duration": 3, "velocity": 85}, {"time": 2736, "pitch": 44, "duration": 14, "velocity": 91}, {"time": 2736, "pitch": 63, "duration": 5, "velocity": 84}, {"time": 2742, "pitch": 51, "duration": 8, "velocity": 81}, {"time": 2748, "pitch": 56, "duration": 4, "velocity": 87}, {"time": 2748, "pitch": 63, "duration": 5, "velocity": 85}, {"time": 2754, "pitch": 44, "duration": 1, "velocity": 84}, {"time": 2760, "pitch": 39, "duration": 14, "velocity": 88}, {"time": 2760, "pitch": 58, "duration": 6, "velocity": 81}, {"time": 2760, "pitch": 63, "duration": 6, "velocity": 79}, {"time": 2766, "pitch": 46, "duration": 8, "velocity": 70}, {"time": 2766, "pitch": 55, "duration": 5, "velocity": 81}, {"time": 2772, "pitch": 58, "duration": 6, "velocity": 95}, {"time": 2772, "pitch": 63, "duration": 7, "velocity": 89}, {"time": 2784, "pitch": 50, "duration": 15, "velocity": 88}, {"time": 2784, "pitch": 58, "duration": 6, "velocity": 84}, {"time": 2784, "pitch": 62, "duration": 6, "velocity": 84}, {"time": 2790, "pitch": 53, "duration": 4, "velocity": 85}, {"time": 2796, "pitch": 58, "duration": 3, "velocity": 86}, {"time": 2796, "pitch": 62, "duration": 6, "velocity": 86}, {"time": 2802, "pitch": 60, "duration": 5, "velocity": 84}, {"time": 2808, "pitch": 48, "duration": 15, "velocity": 88}, {"time": 2814, "pitch": 55, "duration": 6, "velocity": 89}, {"time": 2820, "pitch": 60, "duration": 2, "velocity": 83}, {"time": 2820, "pitch": 63, "duration": 3, "velocity": 100}, {"time": 2820, "pitch": 67, "duration": 4, "velocity": 85}, {"time": 2823, "pitch": 55, "duration": 1, "velocity": 84}, {"time": 2826, "pitch": 60, "duration": 2, "velocity": 84}, {"time": 2829, "pitch": 62, "duration": 3, "velocity": 85}, {"time": 2832, "pitch": 44, "duration": 14, "velocity": 85}, {"time": 2832, "pitch": 63, "duration": 6, "velocity": 84}, {"time": 2838, "pitch": 51, "duration": 8, "velocity": 85}, {"time": 2844, "pitch": 56, "duration": 4, "velocity": 85}, {"time": 2844, "pitch": 63, "duration": 5, "velocity": 84}, {"time": 2850, "pitch": 44, "duration": 1, "velocity": 85}, {"time": 2856, "pitch": 39, "duration": 13, "velocity": 89}, {"time": 2856, "pitch": 55, "duration": 4, "velocity": 79}, {"time": 2856, "pitch": 58, "duration": 6, "velocity": 77}, {"time": 2856, "pitch": 63, "duration": 6, "velocity": 82}, {"time": 2862, "pitch": 46, "duration": 7, "velocity": 51}, {"time": 2862, "pitch": 55, "duration": 6, "velocity": 79}, {"time": 2868, "pitch": 58, "duration": 5, "velocity": 89}, {"time": 2868, "pitch": 63, "duration": 5, "velocity": 87}, {"time": 2874, "pitch": 55, "duration": 2, "velocity": 84}, {"time": 2880, "pitch": 46, "duration": 8, "velocity": 101}, {"time": 2880, "pitch": 58, "duration": 3, "velocity": 87}, {"time": 2880, "pitch": 62, "duration": 6, "velocity": 93}, {"time": 2880, "pitch": 65, "duration": 7, "velocity": 86}, {"time": 2886, "pitch": 58, "duration": 3, "velocity": 85}, {"time": 2889, "pitch": 62, "duration": 1, "velocity": 85}, {"time": 2892, "pitch": 47, "duration": 10, "velocity": 90}, {"time": 2892, "pitch": 59, "duration": 2, "velocity": 82}, {"time": 2892, "pitch": 63, "duration": 5, "velocity": 88}, {"time": 2898, "pitch": 59, "duration": 1, "velocity": 90}, {"time": 2901, "pitch": 59, "duration": 3, "velocity": 87}, {"time": 2901, "pitch": 63, "duration": 3, "velocity": 85}, {"time": 2901, "pitch": 66, "duration": 3, "velocity": 79}, {"time": 2904, "pitch": 49, "duration": 18, "velocity": 97}, {"time": 2907, "pitch": 56, "duration": 9, "velocity": 64}, {"time": 2910, "pitch": 63, "duration": 1, "velocity": 72}, {"time": 2913, "pitch": 61, "duration": 4, "velocity": 77}, {"time": 2913, "pitch": 64, "duration": 6, "velocity": 102}, {"time": 2919, "pitch": 56, "duration": 2, "velocity": 53}, {"time": 2922, "pitch": 63, "duration": 3, "velocity": 85}, {"time": 2925, "pitch": 61, "duration": 1, "velocity": 63}, {"time": 2925, "pitch": 64, "duration": 5, "velocity": 104}, {"time": 2928, "pitch": 45, "duration": 18, "velocity": 97}, {"time": 2931, "pitch": 52, "duration": 15, "velocity": 63}, {"time": 2934, "pitch": 59, "duration": 1, "velocity": 76}, {"time": 2937, "pitch": 61, "duration": 4, "velocity": 88}, {"time": 2937, "pitch": 64, "duration": 3, "velocity": 100}, {"time": 2943, "pitch": 59, "duration": 1, "velocity": 71}, {"time": 2946, "pitch": 61, "duration": 2, "velocity": 79}, {"time": 2946, "pitch": 64, "duration": 4, "velocity": 91}, {"time": 2949, "pitch": 52, "duration": 1, "velocity": 79}, {"time": 2952, "pitch": 40, "duration": 18, "velocity": 100}, {"time": 2955, "pitch": 47, "duration": 15, "velocity": 63}, {"time": 2958, "pitch": 54, "duration": 2, "velocity": 69}, {"time": 2961, "pitch": 56, "duration": 6, "velocity": 90}, {"time": 2961, "pitch": 59, "duration": 6, "velocity": 100}, {"time": 2967, "pitch": 54, "duration": 3, "velocity": 72}, {"time": 2970, "pitch": 56, "duration": 3, "velocity": 83}, {"time": 2970, "pitch": 59, "duration": 5, "velocity": 90}, {"time": 2973, "pitch": 54, "duration": 1, "velocity": 69}, {"time": 2976, "pitch": 51, "duration": 18, "velocity": 85}, {"time": 2979, "pitch": 59, "duration": 15, "velocity": 62}, {"time": 2982, "pitch": 61, "duration": 2, "velocity": 80}, {"time": 2985, "pitch": 63, "duration": 1, "velocity": 77}, {"time": 2985, "pitch": 66, "duration": 5, "velocity": 88}, {"time": 2991, "pitch": 59, "duration": 3, "velocity": 69}, {"time": 2994, "pitch": 61, "duration": 3, "velocity": 74}, {"time": 2997, "pitch": 63, "duration": 1, "velocity": 76}, {"time": 2997, "pitch": 66, "duration": 3, "velocity": 92}, {"time": 3000, "pitch": 49, "duration": 19, "velocity": 95}, {"time": 3003, "pitch": 56, "duration": 16, "velocity": 76}, {"time": 3006, "pitch": 61, "duration": 2, "velocity": 61}, {"time": 3009, "pitch": 64, "duration": 6, "velocity": 104}, {"time": 3015, "pitch": 61, "duration": 2, "velocity": 67}, {"time": 3018, "pitch": 63, "duration": 3, "velocity": 84}, {"time": 3021, "pitch": 64, "duration": 3, "velocity": 97}, {"time": 3024, "pitch": 45, "duration": 18, "velocity": 94}, {"time": 3027, "pitch": 52, "duration": 15, "velocity": 69}, {"time": 3030, "pitch": 59, "duration": 1, "velocity": 72}, {"time": 3033, "pitch": 61, "duration": 4, "velocity": 81}, {"time": 3033, "pitch": 64, "duration": 4, "velocity": 92}, {"time": 3039, "pitch": 59, "duration": 2, "velocity": 84}, {"time": 3042, "pitch": 61, "duration": 3, "velocity": 80}, {"time": 3042, "pitch": 64, "duration": 2, "velocity": 90}, {"time": 3045, "pitch": 59, "duration": 2, "velocity": 80}, {"time": 3048, "pitch": 40, "duration": 17, "velocity": 102}, {"time": 3051, "pitch": 47, "duration": 14, "velocity": 74}, {"time": 3054, "pitch": 54, "duration": 1, "velocity": 55}, {"time": 3057, "pitch": 56, "duration": 6, "velocity": 87}, {"time": 3057, "pitch": 59, "duration": 6, "velocity": 92}, {"time": 3057, "pitch": 64, "duration": 5, "velocity": 95}, {"time": 3063, "pitch": 54, "duration": 3, "velocity": 64}, {"time": 3066, "pitch": 56, "duration": 3, "velocity": 72}, {"time": 3066, "pitch": 59, "duration": 4, "velocity": 85}, {"time": 3066, "pitch": 64, "duration": 3, "velocity": 84}, {"time": 3069, "pitch": 54, "duration": 1, "velocity": 67}, {"time": 3072, "pitch": 47, "duration": 19, "velocity": 84}, {"time": 3075, "pitch": 54, "duration": 9, "velocity": 57}, {"time": 3078, "pitch": 59, "duration": 2, "velocity": 63}, {"time": 3081, "pitch": 63, "duration": 5, "velocity": 90}, {"time": 3087, "pitch": 54, "duration": 3, "velocity": 54}, {"time": 3087, "pitch": 59, "duration": 2, "velocity": 50}, {"time": 3090, "pitch": 63, "duration": 2, "velocity": 67}, {"time": 3090, "pitch": 66, "duration": 2, "velocity": 79}, {"time": 3093, "pitch": 59, "duration": 1, "velocity": 81}, {"time": 3096, "pitch": 49, "duration": 18, "velocity": 97}, {"time": 3099, "pitch": 56, "duration": 9, "velocity": 64}, {"time": 3102, "pitch": 63, "duration": 1, "velocity": 72}, {"time": 3105, "pitch": 61, "duration": 4, "velocity": 77}, {"time": 3105, "pitch": 64, "duration": 6, "velocity": 102}, {"time": 3111, "pitch": 56, "duration": 2, "velocity": 53}, {"time": 3114, "pitch": 63, "duration": 3, "velocity": 85}, {"time": 3117, "pitch": 61, "duration": 1, "velocity": 63}, {"time": 3117, "pitch": 64, "duration": 5, "velocity": 104}, {"time": 3120, "pitch": 45, "duration": 18, "velocity": 97}, {"time": 3123, "pitch": 52, "duration": 15, "velocity": 63}, {"time": 3126, "pitch": 59, "duration": 1, "velocity": 76}, {"time": 3129, "pitch": 61, "duration": 4, "velocity": 88}, {"time": 3129, "pitch": 64, "duration": 3, "velocity": 100}, {"time": 3135, "pitch": 59, "duration": 1, "velocity": 71}, {"time": 3138, "pitch": 61, "duration": 2, "velocity": 79}, {"time": 3138, "pitch": 64, "duration": 4, "velocity": 91}, {"time": 3141, "pitch": 52, "duration": 1, "velocity": 79}, {"time": 3144, "pitch": 40, "duration": 18, "velocity": 100}, {"time": 3147, "pitch": 47, "duration": 15, "velocity": 63}, {"time": 3150, "pitch": 54, "duration": 2, "velocity": 69}, {"time": 3153, "pitch": 56, "duration": 6, "velocity": 90}, {"time": 3153, "pitch": 59, "duration": 6, "velocity": 100}, {"time": 3159, "pitch": 54, "duration": 3, "velocity": 72}, {"time": 3162, "pitch": 56, "duration": 3, "velocity": 83}, {"time": 3162, "pitch": 59, "duration": 5, "velocity": 90}, {"time": 3165, "pitch": 54, "duration": 1, "velocity": 69}, {"time": 3168, "pitch": 51, "duration": 18, "velocity": 85}, {"time": 3171, "pitch": 59, "duration": 15, "velocity": 62}, {"time": 3174, "pitch": 61, "duration": 2, "velocity": 80}, {"time": 3177, "pitch": 63, "duration": 1, "velocity": 77}, {"time": 3177, "pitch": 66, "duration": 5, "velocity": 88}, {"time": 3183, "pitch": 59, "duration": 3, "velocity": 69}, {"time": 3186, "pitch": 61, "duration": 3, "velocity": 74}, {"time": 3189, "pitch": 63, "duration": 1, "velocity": 76}, {"time": 3189, "pitch": 66, "duration": 3, "velocity": 92}, {"time": 3192, "pitch": 49, "duration": 19, "velocity": 95}, {"time": 3195, "pitch": 56, "duration": 16, "velocity": 76}, {"time": 3198, "pitch": 61, "duration": 2, "velocity": 61}, {"time": 3201, "pitch": 64, "duration": 6, "velocity": 104}, {"time": 3207, "pitch": 61, "duration": 2, "velocity": 67}, {"time": 3210, "pitch": 63, "duration": 3, "velocity": 84}, {"time": 3213, "pitch": 64, "duration": 3, "velocity": 97}, {"time": 3216, "pitch": 45, "duration": 18, "velocity": 94}, {"time": 3219, "pitch": 52, "duration": 15, "velocity": 69}, {"time": 3222, "pitch": 59, "duration": 1, "velocity": 72}, {"time": 3225, "pitch": 61, "duration": 4, "velocity": 81}, {"time": 3225, "pitch": 64, "duration": 4, "velocity": 92}, {"time": 3231, "pitch": 59, "duration": 2, "velocity": 84}, {"time": 3234, "pitch": 61, "duration": 3, "velocity": 80}, {"time": 3234, "pitch": 64, "duration": 2, "velocity": 90}, {"time": 3237, "pitch": 59, "duration": 2, "velocity": 80}, {"time": 3240, "pitch": 40, "duration": 17, "velocity": 102}, {"time": 3243, "pitch": 47, "duration": 14, "velocity": 74}, {"time": 3246, "pitch": 54, "duration": 1, "velocity": 55}, {"time": 3249, "pitch": 56, "duration": 6, "velocity": 87}, {"time": 3249, "pitch": 59, "duration": 6, "velocity": 92}, {"time": 3249, "pitch": 64, "duration": 5, "velocity": 95}, {"time": 3255, "pitch": 54, "duration": 3, "velocity": 64}, {"time": 3258, "pitch": 56, "duration": 3, "velocity": 72}, {"time": 3258, "pitch": 59, "duration": 4, "velocity": 85}, {"time": 3258, "pitch": 64, "duration": 3, "velocity": 84}, {"time": 3261, "pitch": 54, "duration": 1, "velocity": 67}, {"time": 3264, "pitch": 47, "duration": 19, "velocity": 84}, {"time": 3264, "pitch": 63, "duration": 7, "velocity": 86}, {"time": 3267, "pitch": 54, "duration": 9, "velocity": 57}, {"time": 3270, "pitch": 59, "duration": 2, "velocity": 63}, {"time": 3273, "pitch": 66, "duration": 5, "velocity": 85}, {"time": 3279, "pitch": 71, "duration": 5, "velocity": 89}, {"time": 3288, "pitch": 47, "duration": 46, "velocity": 84}, {"time": 3291, "pitch": 54, "duration": 42, "velocity": 60}, {"time": 3294, "pitch": 59, "duration": 6, "velocity": 78}, {"time": 3297, "pitch": 63, "duration": 2, "velocity": 78}, {"time": 3303, "pitch": 59, "duration": 31, "velocity": 77}, {"time": 3303, "pitch": 63, "duration": 31, "velocity": 74}, {"time": 3303, "pitch": 66, "duration": 31, "velocity": 71}, {"time": 3336, "pitch": 49, "duration": 15, "velocity": 88}, {"time": 3339, "pitch": 56, "duration": 11, "velocity": 75}, {"time": 3342, "pitch": 61, "duration": 2, "velocity": 78}, {"time": 3345, "pitch": 63, "duration": 3, "velocity": 79}, {"time": 3351, "pitch": 64, "duration": 6, "velocity": 76}, {"time": 3357, "pitch": 68, "duration": 4, "velocity": 79}, {"time": 3360, "pitch": 45, "duration": 15, "velocity": 85}, {"time": 3363, "pitch": 52, "duration": 10, "velocity": 72}, {"time": 3366, "pitch": 57, "duration": 9, "velocity": 78}, {"time": 3369, "pitch": 64, "duration": 9, "velocity": 84}, {"time": 3375, "pitch": 52, "duration": 3, "velocity": 76}, {"time": 3378, "pitch": 57, "duration": 5, "velocity": 73}, {"time": 3384, "pitch": 40, "duration": 12, "velocity": 90}, {"time": 3387, "pitch": 47, "duration": 9, "velocity": 73}, {"time": 3390, "pitch": 52, "duration": 9, "velocity": 80}, {"time": 3393, "pitch": 56, "duration": 7, "velocity": 81}, {"time": 3399, "pitch": 64, "duration": 3, "velocity": 85}, {"time": 3402, "pitch": 52, "duration": 3, "velocity": 85}, {"time": 3405, "pitch": 64, "duration": 3, "velocity": 79}, {"time": 3408, "pitch": 47, "duration": 18, "velocity": 81}, {"time": 3411, "pitch": 54, "duration": 10, "velocity": 76}, {"time": 3414, "pitch": 59, "duration": 2, "velocity": 75}, {"time": 3417, "pitch": 66, "duration": 9, "velocity": 86}, {"time": 3423, "pitch": 54, "duration": 4, "velocity": 78}, {"time": 3426, "pitch": 59, "duration": 3, "velocity": 79}, {"time": 3429, "pitch": 66, "duration": 5, "velocity": 85}, {"time": 3432, "pitch": 49, "duration": 17, "velocity": 89}, {"time": 3435, "pitch": 56, "duration": 10, "velocity": 80}, {"time": 3438, "pitch": 61, "duration": 1, "velocity": 77}, {"time": 3441, "pitch": 64, "duration": 11, "velocity": 88}, {"time": 3447, "pitch": 56, "duration": 2, "velocity": 78}, {"time": 3450, "pitch": 61, "duration": 3, "velocity": 75}, {"time": 3453, "pitch": 68, "duration": 4, "velocity": 77}, {"time": 3456, "pitch": 45, "duration": 16, "velocity": 89}, {"time": 3459, "pitch": 52, "duration": 13, "velocity": 84}, {"time": 3462, "pitch": 57, "duration": 4, "velocity": 79}, {"time": 3465, "pitch": 64, "duration": 9, "velocity": 80}, {"time": 3471, "pitch": 61, "duration": 3, "velocity": 76}, {"time": 3474, "pitch": 57, "duration": 5, "velocity": 81}, {"time": 3480, "pitch": 40, "duration": 13, "velocity": 85}, {"time": 3483, "pitch": 47, "duration": 10, "velocity": 76}, {"time": 3486, "pitch": 52, "duration": 4, "velocity": 84}, {"time": 3489, "pitch": 64, "duration": 6, "velocity": 84}, {"time": 3495, "pitch": 59, "duration": 6, "velocity": 80}, {"time": 3498, "pitch": 52, "duration": 2, "velocity": 84}, {"time": 3501, "pitch": 64, "duration": 3, "velocity": 79}, {"time": 3504, "pitch": 47, "duration": 13, "velocity": 84}, {"time": 3506, "pitch": 59, "duration": 7, "velocity": 79}, {"time": 3509, "pitch": 63, "duration": 4, "velocity": 72}, {"time": 3512, "pitch": 66, "duration": 10, "velocity": 79}, {"time": 3518, "pitch": 54, "duration": 7, "velocity": 77}, {"time": 3521, "pitch": 59, "duration": 3, "velocity": 82}, {"time": 3524, "pitch": 71, "duration": 8, "velocity": 83}, {"time": 3527, "pitch": 47, "duration": 28, "velocity": 79}, {"time": 3531, "pitch": 54, "duration": 25, "velocity": 70}, {"time": 3534, "pitch": 59, "duration": 10, "velocity": 72}, {"time": 3538, "pitch": 63, "duration": 5, "velocity": 71}, {"time": 3543, "pitch": 66, "duration": 6, "velocity": 74}, {"time": 3548, "pitch": 71, "duration": 6, "velocity": 54}, {"time": 3554, "pitch": 59, "duration": 20, "velocity": 72}], "annotations": [{"time": 26, "annotation": {"number": 64, "value": 127}, "group": "control_change"}, {"time": 26, "annotation": {"number": 64, "value": 0}, "group": "control_change"}, {"time": 45, "annotation": {"number": 64, "value": 0}, "group": "control_change"}, {"time": 49, "annotation": {"number": 64, "value": 127}, "group": "control_change"}, {"time": 70, "annotation": {"number": 64, "value": 0}, "group": "control_change"}, {"time": 73, "annotation": {"number": 64, "value": 127}, "group": "control_change"}, {"time": 94, "annotation": {"number": 64, "value": 0}, "group": "control_change"}, {"time": 96, "annotation": {"number": 64, "value": 127}, "group": "control_change"}, {"time": 117, "annotation": {"number": 64, "value": 0}, "group": "control_change"}, {"time": 123, "annotation": {"number": 64, "value": 127}, "group": "control_change"}, {"time": 142, "annotation": {"number": 64, "value": 0}, "group": "control_change"}, {"time": 145, "annotation": {"number": 64, "value": 127}, "group": "control_change"}, {"time": 167, "annotation": {"number": 64, "value": 0}, "group": "control_change"}, {"time": 169, "annotation": {"number": 64, "value": 127}, "group": "control_change"}, {"time": 189, "annotation": {"number": 64, "value": 0}, "group": "control_change"}, {"time": 192, "annotation": {"number": 64, "value": 127}, "group": "control_change"}, {"time": 213, "annotation": {"number": 64, "value": 0}, "group": "control_change"}, {"time": 220, "annotation": {"number": 64, "value": 71}, "group": "control_change"}, {"time": 225, "annotation": {"number": 64, "value": 0}, "group": "control_change"}, {"time": 231, "annotation": {"number": 64, "value": 71}, "group": "control_change"}, {"time": 232, "annotation": {"number": 64, "value": 127}, "group": "control_change"}, {"time": 239, "annotation": {"number": 64, "value": 71}, "group": "control_change"}, {"time": 240, "annotation": {"number": 64, "value": 0}, "group": "control_change"}, {"time": 252, "annotation": {"number": 64, "value": 71}, "group": "control_change"}, {"time": 252, "annotation": {"number": 64, "value": 127}, "group": "control_change"}, {"time": 264, "annotation": {"number": 64, "value": 71}, "group": "control_change"}, {"time": 264, "annotation": {"number": 64, "value": 0}, "group": "control_change"}, {"time": 277, "annotation": {"number": 64, "value": 71}, "group": "control_change"}, {"time": 279, "annotation": {"number": 64, "value": 127}, "group": "control_change"}, {"time": 288, "annotation": {"number": 64, "value": 71}, "group": "control_change"}, {"time": 288, "annotation": {"number": 64, "value": 0}, "group": "control_change"}, {"time": 300, "annotation": {"number": 64, "value": 71}, "group": "control_change"}, {"time": 301, "annotation": {"number": 64, "value": 127}, "group": "control_change"}, {"time": 311, "annotation": {"number": 64, "value": 71}, "group": "control_change"}, {"time": 312, "annotation": {"number": 64, "value": 0}, "group": "control_change"}, {"time": 324, "annotation": {"number": 64, "value": 71}, "group": "control_change"}, {"time": 325, "annotation": {"number": 64, "value": 127}, "group": "control_change"}, {"time": 335, "annotation": {"number": 64, "value": 71}, "group": "control_change"}, {"time": 336, "annotation": {"number": 64, "value": 0}, "group": "control_change"}, {"time": 347, "annotation": {"number": 64, "value": 71}, "group": "control_change"}, {"time": 348, "annotation": {"number": 64, "value": 127}, "group": "control_change"}, {"time": 360, "annotation": {"number": 64, "value": 71}, "group": "control_change"}, {"time": 360, "annotation": {"number": 64, "value": 0}, "group": "control_change"}, {"time": 370, "annotation": {"number": 64, "value": 71}, "group": "control_change"}, {"time": 371, "annotation": {"number": 64, "value": 127}, "group": "control_change"}, {"time": 384, "annotation": {"number": 64, "value": 71}, "group": "control_change"}, {"time": 384, "annotation": {"number": 64, "value": 0}, "group": "control_change"}, {"time": 410, "annotation": {"number": 64, "value": 127}, "group": "control_change"}, {"time": 410, "annotation": {"number": 64, "value": 0}, "group": "control_change"}, {"time": 429, "annotation": {"number": 64, "value": 0}, "group": "control_change"}, {"time": 433, "annotation": {"number": 64, "value": 127}, "group": "control_change"}, {"time": 454, "annotation": {"number": 64, "value": 0}, "group": "control_change"}, {"time": 457, "annotation": {"number": 64, "value": 127}, "group": "control_change"}, {"time": 478, "annotation": {"number": 64, "value": 0}, "group": "control_change"}, {"time": 480, "annotation": {"number": 64, "value": 127}, "group": "control_change"}, {"time": 501, "annotation": {"number": 64, "value": 0}, "group": "control_change"}, {"time": 506, "annotation": {"number": 64, "value": 127}, "group": "control_change"}, {"time": 506, "annotation": {"number": 64, "value": 0}, "group": "control_change"}, {"time": 525, "annotation": {"number": 64, "value": 0}, "group": "control_change"}, {"time": 529, "annotation": {"number": 64, "value": 127}, "group": "control_change"}, {"time": 550, "annotation": {"number": 64, "value": 0}, "group": "control_change"}, {"time": 553, "annotation": {"number": 64, "value": 127}, "group": "control_change"}, {"time": 574, "annotation": {"number": 64, "value": 0}, "group": "control_change"}, {"time": 576, "annotation": {"number": 64, "value": 127}, "group": "control_change"}, {"time": 597, "annotation": {"number": 64, "value": 0}, "group": "control_change"}, {"time": 602, "annotation": {"number": 64, "value": 127}, "group": "control_change"}, {"time": 602, "annotation": {"number": 64, "value": 0}, "group": "control_change"}, {"time": 621, "annotation": {"number": 64, "value": 0}, "group": "control_change"}, {"time": 625, "annotation": {"number": 64, "value": 127}, "group": "control_change"}, {"time": 646, "annotation": {"number": 64, "value": 0}, "group": "control_change"}, {"time": 649, "annotation": {"number": 64, "value": 127}, "group": "control_change"}, {"time": 670, "annotation": {"number": 64, "value": 0}, "group": "control_change"}, {"time": 672, "annotation": {"number": 64, "value": 127}, "group": "control_change"}, {"time": 693, "annotation": {"number": 64, "value": 0}, "group": "control_change"}, {"time": 698, "annotation": {"number": 64, "value": 127}, "group": "control_change"}, {"time": 698, "annotation": {"number": 64, "value": 0}, "group": "control_change"}, {"time": 717, "annotation": {"number": 64, "value": 0}, "group": "control_change"}, {"time": 721, "annotation": {"number": 64, "value": 127}, "group": "control_change"}, {"time": 742, "annotation": {"number": 64, "value": 0}, "group": "control_change"}, {"time": 745, "annotation": {"number": 64, "value": 127}, "group": "control_change"}, {"time": 766, "annotation": {"number": 64, "value": 0}, "group": "control_change"}, {"time": 768, "annotation": {"number": 64, "value": 127}, "group": "control_change"}, {"time": 789, "annotation": {"number": 64, "value": 0}, "group": "control_change"}, {"time": 794, "annotation": {"number": 64, "value": 127}, "group": "control_change"}, {"time": 794, "annotation": {"number": 64, "value": 0}, "group": "control_change"}, {"time": 813, "annotation": {"number": 64, "value": 0}, "group": "control_change"}, {"time": 817, "annotation": {"number": 64, "value": 127}, "group": "control_change"}, {"time": 838, "annotation": {"number": 64, "value": 0}, "group": "control_change"}, {"time": 841, "annotation": {"number": 64, "value": 127}, "group": "control_change"}, {"time": 862, "annotation": {"number": 64, "value": 0}, "group": "control_change"}, {"time": 864, "annotation": {"number": 64, "value": 127}, "group": "control_change"}, {"time": 885, "annotation": {"number": 64, "value": 0}, "group": "control_change"}, {"time": 890, "annotation": {"number": 64, "value": 127}, "group": "control_change"}, {"time": 890, "annotation": {"number": 64, "value": 0}, "group": "control_change"}, {"time": 909, "annotation": {"number": 64, "value": 0}, "group": "control_change"}, {"time": 913, "annotation": {"number": 64, "value": 127}, "group": "control_change"}, {"time": 934, "annotation": {"number": 64, "value": 0}, "group": "control_change"}, {"time": 937, "annotation": {"number": 64, "value": 127}, "group": "control_change"}, {"time": 958, "annotation": {"number": 64, "value": 0}, "group": "control_change"}, {"time": 960, "annotation": {"number": 64, "value": 127}, "group": "control_change"}, {"time": 981, "annotation": {"number": 64, "value": 0}, "group": "control_change"}, {"time": 986, "annotation": {"number": 64, "value": 71}, "group": "control_change"}, {"time": 989, "annotation": {"number": 64, "value": 127}, "group": "control_change"}, {"time": 1007, "annotation": {"number": 64, "value": 71}, "group": "control_change"}, {"time": 1008, "annotation": {"number": 64, "value": 0}, "group": "control_change"}, {"time": 1013, "annotation": {"number": 64, "value": 71}, "group": "control_change"}, {"time": 1014, "annotation": {"number": 64, "value": 127}, "group": "control_change"}, {"time": 1031, "annotation": {"number": 64, "value": 71}, "group": "control_change"}, {"time": 1032, "annotation": {"number": 64, "value": 0}, "group": "control_change"}, {"time": 1043, "annotation": {"number": 64, "value": 71}, "group": "control_change"}, {"time": 1043, "annotation": {"number": 64, "value": 127}, "group": "control_change"}, {"time": 1056, "annotation": {"number": 64, "value": 71}, "group": "control_change"}, {"time": 1056, "annotation": {"number": 64, "value": 0}, "group": "control_change"}, {"time": 1066, "annotation": {"number": 64, "value": 71}, "group": "control_change"}, {"time": 1067, "annotation": {"number": 64, "value": 127}, "group": "control_change"}, {"time": 1079, "annotation": {"number": 64, "value": 71}, "group": "control_change"}, {"time": 1080, "annotation": {"number": 64, "value": 0}, "group": "control_change"}, {"time": 1086, "annotation": {"number": 64, "value": 71}, "group": "control_change"}, {"time": 1089, "annotation": {"number": 64, "value": 127}, "group": "control_change"}, {"time": 1103, "annotation": {"number": 64, "value": 71}, "group": "control_change"}, {"time": 1104, "annotation": {"number": 64, "value": 0}, "group": "control_change"}, {"time": 1109, "annotation": {"number": 64, "value": 71}, "group": "control_change"}, {"time": 1111, "annotation": {"number": 64, "value": 127}, "group": "control_change"}, {"time": 1127, "annotation": {"number": 64, "value": 71}, "group": "control_change"}, {"time": 1127, "annotation": {"number": 64, "value": 0}, "group": "control_change"}, {"time": 1133, "annotation": {"number": 64, "value": 71}, "group": "control_change"}, {"time": 1136, "annotation": {"number": 64, "value": 0}, "group": "control_change"}, {"time": 1139, "annotation": {"number": 64, "value": 71}, "group": "control_change"}, {"time": 1139, "annotation": {"number": 64, "value": 127}, "group": "control_change"}, {"time": 1141, "annotation": {"number": 64, "value": 71}, "group": "control_change"}, {"time": 1141, "annotation": {"number": 64, "value": 127}, "group": "control_change"}, {"time": 1151, "annotation": {"number": 64, "value": 71}, "group": "control_change"}, {"time": 1151, "annotation": {"number": 64, "value": 0}, "group": "control_change"}, {"time": 1160, "annotation": {"number": 64, "value": 71}, "group": "control_change"}, {"time": 1161, "annotation": {"number": 64, "value": 127}, "group": "control_change"}, {"time": 1175, "annotation": {"number": 64, "value": 71}, "group": "control_change"}, {"time": 1176, "annotation": {"number": 64, "value": 0}, "group": "control_change"}, {"time": 1178, "annotation": {"number": 64, "value": 71}, "group": "control_change"}, {"time": 1181, "annotation": {"number": 64, "value": 127}, "group": "control_change"}, {"time": 1199, "annotation": {"number": 64, "value": 71}, "group": "control_change"}, {"time": 1200, "annotation": {"number": 64, "value": 0}, "group": "control_change"}, {"time": 1205, "annotation": {"number": 64, "value": 71}, "group": "control_change"}, {"time": 1206, "annotation": {"number": 64, "value": 127}, "group": "control_change"}, {"time": 1223, "annotation": {"number": 64, "value": 71}, "group": "control_change"}, {"time": 1224, "annotation": {"number": 64, "value": 0}, "group": "control_change"}, {"time": 1235, "annotation": {"number": 64, "value": 71}, "group": "control_change"}, {"time": 1235, "annotation": {"number": 64, "value": 127}, "group": "control_change"}, {"time": 1248, "annotation": {"number": 64, "value": 71}, "group": "control_change"}, {"time": 1248, "annotation": {"number": 64, "value": 0}, "group": "control_change"}, {"time": 1258, "annotation": {"number": 64, "value": 71}, "group": "control_change"}, {"time": 1259, "annotation": {"number": 64, "value": 127}, "group": "control_change"}, {"time": 1271, "annotation": {"number": 64, "value": 71}, "group": "control_change"}, {"time": 1272, "annotation": {"number": 64, "value": 0}, "group": "control_change"}, {"time": 1278, "annotation": {"number": 64, "value": 71}, "group": "control_change"}, {"time": 1281, "annotation": {"number": 64, "value": 127}, "group": "control_change"}, {"time": 1295, "annotation": {"number": 64, "value": 71}, "group": "control_change"}, {"time": 1296, "annotation": {"number": 64, "value": 0}, "group": "control_change"}, {"time": 1301, "annotation": {"number": 64, "value": 71}, "group": "control_change"}, {"time": 1303, "annotation": {"number": 64, "value": 127}, "group": "control_change"}, {"time": 1319, "annotation": {"number": 64, "value": 71}, "group": "control_change"}, {"time": 1319, "annotation": {"number": 64, "value": 0}, "group": "control_change"}, {"time": 1325, "annotation": {"number": 64, "value": 71}, "group": "control_change"}, {"time": 1328, "annotation": {"number": 64, "value": 0}, "group": "control_change"}, {"time": 1331, "annotation": {"number": 64, "value": 71}, "group": "control_change"}, {"time": 1331, "annotation": {"number": 64, "value": 127}, "group": "control_change"}, {"time": 1333, "annotation": {"number": 64, "value": 71}, "group": "control_change"}, {"time": 1333, "annotation": {"number": 64, "value": 127}, "group": "control_change"}, {"time": 1343, "annotation": {"number": 64, "value": 71}, "group": "control_change"}, {"time": 1343, "annotation": {"number": 64, "value": 0}, "group": "control_change"}, {"time": 1352, "annotation": {"number": 64, "value": 71}, "group": "control_change"}, {"time": 1353, "annotation": {"number": 64, "value": 127}, "group": "control_change"}, {"time": 1367, "annotation": {"number": 64, "value": 71}, "group": "control_change"}, {"time": 1368, "annotation": {"number": 64, "value": 0}, "group": "control_change"}, {"time": 1370, "annotation": {"number": 64, "value": 127}, "group": "control_change"}, {"time": 1370, "annotation": {"number": 64, "value": 0}, "group": "control_change"}, {"time": 1389, "annotation": {"number": 64, "value": 0}, "group": "control_change"}, {"time": 1393, "annotation": {"number": 64, "value": 127}, "group": "control_change"}, {"time": 1414, "annotation": {"number": 64, "value": 0}, "group": "control_change"}, {"time": 1417, "annotation": {"number": 64, "value": 127}, "group": "control_change"}, {"time": 1438, "annotation": {"number": 64, "value": 0}, "group": "control_change"}, {"time": 1440, "annotation": {"number": 64, "value": 127}, "group": "control_change"}, {"time": 1461, "annotation": {"number": 64, "value": 0}, "group": "control_change"}, {"time": 1467, "annotation": {"number": 64, "value": 127}, "group": "control_change"}, {"time": 1486, "annotation": {"number": 64, "value": 0}, "group": "control_change"}, {"time": 1489, "annotation": {"number": 64, "value": 127}, "group": "control_change"}, {"time": 1511, "annotation": {"number": 64, "value": 0}, "group": "control_change"}, {"time": 1513, "annotation": {"number": 64, "value": 127}, "group": "control_change"}, {"time": 1533, "annotation": {"number": 64, "value": 0}, "group": "control_change"}, {"time": 1536, "annotation": {"number": 64, "value": 127}, "group": "control_change"}, {"time": 1557, "annotation": {"number": 64, "value": 0}, "group": "control_change"}, {"time": 1562, "annotation": {"number": 64, "value": 127}, "group": "control_change"}, {"time": 1562, "annotation": {"number": 64, "value": 0}, "group": "control_change"}, {"time": 1581, "annotation": {"number": 64, "value": 0}, "group": "control_change"}, {"time": 1585, "annotation": {"number": 64, "value": 127}, "group": "control_change"}, {"time": 1606, "annotation": {"number": 64, "value": 0}, "group": "control_change"}, {"time": 1609, "annotation": {"number": 64, "value": 127}, "group": "control_change"}, {"time": 1630, "annotation": {"number": 64, "value": 0}, "group": "control_change"}, {"time": 1632, "annotation": {"number": 64, "value": 127}, "group": "control_change"}, {"time": 1653, "annotation": {"number": 64, "value": 0}, "group": "control_change"}, {"time": 1658, "annotation": {"number": 64, "value": 127}, "group": "control_change"}, {"time": 1658, "annotation": {"number": 64, "value": 0}, "group": "control_change"}, {"time": 1677, "annotation": {"number": 64, "value": 0}, "group": "control_change"}, {"time": 1681, "annotation": {"number": 64, "value": 127}, "group": "control_change"}, {"time": 1702, "annotation": {"number": 64, "value": 0}, "group": "control_change"}, {"time": 1705, "annotation": {"number": 64, "value": 127}, "group": "control_change"}, {"time": 1726, "annotation": {"number": 64, "value": 0}, "group": "control_change"}, {"time": 1728, "annotation": {"number": 64, "value": 127}, "group": "control_change"}, {"time": 1749, "annotation": {"number": 64, "value": 0}, "group": "control_change"}, {"time": 1754, "annotation": {"number": 64, "value": 127}, "group": "control_change"}, {"time": 1754, "annotation": {"number": 64, "value": 0}, "group": "control_change"}, {"time": 1773, "annotation": {"number": 64, "value": 0}, "group": "control_change"}, {"time": 1777, "annotation": {"number": 64, "value": 127}, "group": "control_change"}, {"time": 1798, "annotation": {"number": 64, "value": 0}, "group": "control_change"}, {"time": 1801, "annotation": {"number": 64, "value": 127}, "group": "control_change"}, {"time": 1822, "annotation": {"number": 64, "value": 0}, "group": "control_change"}, {"time": 1824, "annotation": {"number": 64, "value": 127}, "group": "control_change"}, {"time": 1845, "annotation": {"number": 64, "value": 0}, "group": "control_change"}, {"time": 1850, "annotation": {"number": 64, "value": 127}, "group": "control_change"}, {"time": 1850, "annotation": {"number": 64, "value": 0}, "group": "control_change"}, {"time": 1869, "annotation": {"number": 64, "value": 0}, "group": "control_change"}, {"time": 1873, "annotation": {"number": 64, "value": 127}, "group": "control_change"}, {"time": 1894, "annotation": {"number": 64, "value": 0}, "group": "control_change"}, {"time": 1897, "annotation": {"number": 64, "value": 127}, "group": "control_change"}, {"time": 1918, "annotation": {"number": 64, "value": 0}, "group": "control_change"}, {"time": 1920, "annotation": {"number": 64, "value": 127}, "group": "control_change"}, {"time": 1941, "annotation": {"number": 64, "value": 0}, "group": "control_change"}, {"time": 1944, "annotation": {"number": 64, "value": 127}, "group": "control_change"}, {"time": 1966, "annotation": {"number": 64, "value": 0}, "group": "control_change"}, {"time": 1969, "annotation": {"number": 64, "value": 127}, "group": "control_change"}, {"time": 1990, "annotation": {"number": 64, "value": 0}, "group": "control_change"}, {"time": 1992, "annotation": {"number": 64, "value": 127}, "group": "control_change"}, {"time": 2015, "annotation": {"number": 64, "value": 0}, "group": "control_change"}, {"time": 2017, "annotation": {"number": 64, "value": 127}, "group": "control_change"}, {"time": 2038, "annotation": {"number": 64, "value": 0}, "group": "control_change"}, {"time": 2040, "annotation": {"number": 64, "value": 127}, "group": "control_change"}, {"time": 2061, "annotation": {"number": 64, "value": 0}, "group": "control_change"}, {"time": 2064, "annotation": {"number": 64, "value": 127}, "group": "control_change"}, {"time": 2086, "annotation": {"number": 64, "value": 0}, "group": "control_change"}, {"time": 2088, "annotation": {"number": 64, "value": 127}, "group": "control_change"}, {"time": 2109, "annotation": {"number": 64, "value": 0}, "group": "control_change"}, {"time": 2112, "annotation": {"number": 64, "value": 127}, "group": "control_change"}, {"time": 2133, "annotation": {"number": 64, "value": 0}, "group": "control_change"}, {"time": 2139, "annotation": {"number": 64, "value": 127}, "group": "control_change"}, {"time": 2158, "annotation": {"number": 64, "value": 0}, "group": "control_change"}, {"time": 2161, "annotation": {"number": 64, "value": 127}, "group": "control_change"}, {"time": 2181, "annotation": {"number": 64, "value": 0}, "group": "control_change"}, {"time": 2183, "annotation": {"number": 64, "value": 127}, "group": "control_change"}, {"time": 2206, "annotation": {"number": 64, "value": 0}, "group": "control_change"}, {"time": 2209, "annotation": {"number": 64, "value": 127}, "group": "control_change"}, {"time": 2230, "annotation": {"number": 64, "value": 0}, "group": "control_change"}, {"time": 2236, "annotation": {"number": 64, "value": 127}, "group": "control_change"}, {"time": 2253, "annotation": {"number": 64, "value": 0}, "group": "control_change"}, {"time": 2257, "annotation": {"number": 64, "value": 127}, "group": "control_change"}, {"time": 2279, "annotation": {"number": 64, "value": 0}, "group": "control_change"}, {"time": 2281, "annotation": {"number": 64, "value": 127}, "group": "control_change"}, {"time": 2302, "annotation": {"number": 64, "value": 0}, "group": "control_change"}, {"time": 2305, "annotation": {"number": 64, "value": 127}, "group": "control_change"}, {"time": 2324, "annotation": {"number": 64, "value": 0}, "group": "control_change"}, {"time": 2329, "annotation": {"number": 64, "value": 127}, "group": "control_change"}, {"time": 2351, "annotation": {"number": 64, "value": 0}, "group": "control_change"}, {"time": 2353, "annotation": {"number": 64, "value": 127}, "group": "control_change"}, {"time": 2374, "annotation": {"number": 64, "value": 0}, "group": "control_change"}, {"time": 2376, "annotation": {"number": 64, "value": 127}, "group": "control_change"}, {"time": 2398, "annotation": {"number": 64, "value": 0}, "group": "control_change"}, {"time": 2401, "annotation": {"number": 64, "value": 127}, "group": "control_change"}, {"time": 2422, "annotation": {"number": 64, "value": 0}, "group": "control_change"}, {"time": 2425, "annotation": {"number": 64, "value": 127}, "group": "control_change"}, {"time": 2446, "annotation": {"number": 64, "value": 0}, "group": "control_change"}, {"time": 2448, "annotation": {"number": 64, "value": 127}, "group": "control_change"}, {"time": 2471, "annotation": {"number": 64, "value": 0}, "group": "control_change"}, {"time": 2473, "annotation": {"number": 64, "value": 127}, "group": "control_change"}, {"time": 2494, "annotation": {"number": 64, "value": 0}, "group": "control_change"}, {"time": 2496, "annotation": {"number": 64, "value": 127}, "group": "control_change"}, {"time": 2517, "annotation": {"number": 64, "value": 0}, "group": "control_change"}, {"time": 2520, "annotation": {"number": 64, "value": 127}, "group": "control_change"}, {"time": 2542, "annotation": {"number": 64, "value": 0}, "group": "control_change"}, {"time": 2545, "annotation": {"number": 64, "value": 127}, "group": "control_change"}, {"time": 2566, "annotation": {"number": 64, "value": 0}, "group": "control_change"}, {"time": 2568, "annotation": {"number": 64, "value": 127}, "group": "control_change"}, {"time": 2591, "annotation": {"number": 64, "value": 0}, "group": "control_change"}, {"time": 2593, "annotation": {"number": 64, "value": 127}, "group": "control_change"}, {"time": 2614, "annotation": {"number": 64, "value": 0}, "group": "control_change"}, {"time": 2616, "annotation": {"number": 64, "value": 127}, "group": "control_change"}, {"time": 2637, "annotation": {"number": 64, "value": 0}, "group": "control_change"}, {"time": 2640, "annotation": {"number": 64, "value": 127}, "group": "control_change"}, {"time": 2662, "annotation": {"number": 64, "value": 0}, "group": "control_change"}, {"time": 2664, "annotation": {"number": 64, "value": 127}, "group": "control_change"}, {"time": 2685, "annotation": {"number": 64, "value": 0}, "group": "control_change"}, {"time": 2688, "annotation": {"number": 64, "value": 127}, "group": "control_change"}, {"time": 2709, "annotation": {"number": 64, "value": 0}, "group": "control_change"}, {"time": 2715, "annotation": {"number": 64, "value": 127}, "group": "control_change"}, {"time": 2734, "annotation": {"number": 64, "value": 0}, "group": "control_change"}, {"time": 2737, "annotation": {"number": 64, "value": 127}, "group": "control_change"}, {"time": 2757, "annotation": {"number": 64, "value": 0}, "group": "control_change"}, {"time": 2759, "annotation": {"number": 64, "value": 127}, "group": "control_change"}, {"time": 2782, "annotation": {"number": 64, "value": 0}, "group": "control_change"}, {"time": 2785, "annotation": {"number": 64, "value": 127}, "group": "control_change"}, {"time": 2806, "annotation": {"number": 64, "value": 0}, "group": "control_change"}, {"time": 2812, "annotation": {"number": 64, "value": 127}, "group": "control_change"}, {"time": 2829, "annotation": {"number": 64, "value": 0}, "group": "control_change"}, {"time": 2833, "annotation": {"number": 64, "value": 127}, "group": "control_change"}, {"time": 2855, "annotation": {"number": 64, "value": 0}, "group": "control_change"}, {"time": 2857, "annotation": {"number": 64, "value": 127}, "group": "control_change"}, {"time": 2878, "annotation": {"number": 64, "value": 0}, "group": "control_change"}, {"time": 2880, "annotation": {"number": 64, "value": 127}, "group": "control_change"}, {"time": 2890, "annotation": {"number": 64, "value": 0}, "group": "control_change"}, {"time": 2892, "annotation": {"number": 64, "value": 127}, "group": "control_change"}, {"time": 2901, "annotation": {"number": 64, "value": 0}, "group": "control_change"}, {"time": 2904, "annotation": {"number": 64, "value": 127}, "group": "control_change"}, {"time": 2926, "annotation": {"number": 64, "value": 0}, "group": "control_change"}, {"time": 2929, "annotation": {"number": 64, "value": 127}, "group": "control_change"}, {"time": 2950, "annotation": {"number": 64, "value": 0}, "group": "control_change"}, {"time": 2952, "annotation": {"number": 64, "value": 127}, "group": "control_change"}, {"time": 2975, "annotation": {"number": 64, "value": 0}, "group": "control_change"}, {"time": 2977, "annotation": {"number": 64, "value": 127}, "group": "control_change"}, {"time": 2998, "annotation": {"number": 64, "value": 0}, "group": "control_change"}, {"time": 3000, "annotation": {"number": 64, "value": 127}, "group": "control_change"}, {"time": 3021, "annotation": {"number": 64, "value": 0}, "group": "control_change"}, {"time": 3024, "annotation": {"number": 64, "value": 127}, "group": "control_change"}, {"time": 3046, "annotation": {"number": 64, "value": 0}, "group": "control_change"}, {"time": 3048, "annotation": {"number": 64, "value": 127}, "group": "control_change"}, {"time": 3069, "annotation": {"number": 64, "value": 0}, "group": "control_change"}, {"time": 3072, "annotation": {"number": 64, "value": 127}, "group": "control_change"}, {"time": 3093, "annotation": {"number": 64, "value": 0}, "group": "control_change"}, {"time": 3099, "annotation": {"number": 64, "value": 127}, "group": "control_change"}, {"time": 3118, "annotation": {"number": 64, "value": 0}, "group": "control_change"}, {"time": 3121, "annotation": {"number": 64, "value": 127}, "group": "control_change"}, {"time": 3141, "annotation": {"number": 64, "value": 0}, "group": "control_change"}, {"time": 3143, "annotation": {"number": 64, "value": 127}, "group": "control_change"}, {"time": 3166, "annotation": {"number": 64, "value": 0}, "group": "control_change"}, {"time": 3169, "annotation": {"number": 64, "value": 127}, "group": "control_change"}, {"time": 3190, "annotation": {"number": 64, "value": 0}, "group": "control_change"}, {"time": 3196, "annotation": {"number": 64, "value": 127}, "group": "control_change"}, {"time": 3213, "annotation": {"number": 64, "value": 0}, "group": "control_change"}, {"time": 3217, "annotation": {"number": 64, "value": 127}, "group": "control_change"}, {"time": 3239, "annotation": {"number": 64, "value": 0}, "group": "control_change"}, {"time": 3241, "annotation": {"number": 64, "value": 127}, "group": "control_change"}, {"time": 3262, "annotation": {"number": 64, "value": 0}, "group": "control_change"}, {"time": 3265, "annotation": {"number": 64, "value": 127}, "group": "control_change"}, {"time": 3311, "annotation": {"number": 64, "value": 0}, "group": "control_change"}, {"time": 3313, "annotation": {"number": 64, "value": 127}, "group": "control_change"}, {"time": 3330, "annotation": {"number": 64, "value": 0}, "group": "control_change"}, {"time": 3338, "annotation": {"number": 64, "value": 127}, "group": "control_change"}, {"time": 3338, "annotation": {"number": 64, "value": 0}, "group": "control_change"}, {"time": 3357, "annotation": {"number": 64, "value": 0}, "group": "control_change"}, {"time": 3361, "annotation": {"number": 64, "value": 127}, "group": "control_change"}, {"time": 3382, "annotation": {"number": 64, "value": 0}, "group": "control_change"}, {"time": 3385, "annotation": {"number": 64, "value": 127}, "group": "control_change"}, {"time": 3406, "annotation": {"number": 64, "value": 0}, "group": "control_change"}, {"time": 3408, "annotation": {"number": 64, "value": 127}, "group": "control_change"}, {"time": 3429, "annotation": {"number": 64, "value": 0}, "group": "control_change"}, {"time": 3435, "annotation": {"number": 64, "value": 127}, "group": "control_change"}, {"time": 3454, "annotation": {"number": 64, "value": 0}, "group": "control_change"}, {"time": 3457, "annotation": {"number": 64, "value": 127}, "group": "control_change"}, {"time": 3479, "annotation": {"number": 64, "value": 0}, "group": "control_change"}, {"time": 3481, "annotation": {"number": 64, "value": 127}, "group": "control_change"}, {"time": 3501, "annotation": {"number": 64, "value": 0}, "group": "control_change"}, {"time": 3509, "annotation": {"number": 64, "value": 127}, "group": "control_change"}, {"time": 3509, "annotation": {"number": 64, "value": 0}, "group": "control_change"}, {"time": 3510, "annotation": {"number": 64, "value": 127}, "group": "control_change"}]}]}