{"metadata": {"schema_version": "0.2", "title": "None", "source_filename": "684.mid", "source_format": "midi"}, "resolution": 12, "tempos": [{"time": 0, "qpm": 69.99998833333528}], "key_signatures": [{"time": 0, "root": 0, "mode": "major"}], "time_signatures": [{"time": 0, "numerator": 4, "denominator": 4}, {"time": 0, "numerator": 1, "denominator": 4}], "tracks": [{"program": 4, "is_drum": false, "name": "MELODY", "notes": [{"time": 260, "pitch": 57, "duration": 5, "velocity": 88}, {"time": 266, "pitch": 66, "duration": 9, "velocity": 94}, {"time": 278, "pitch": 66, "duration": 5, "velocity": 94}, {"time": 284, "pitch": 62, "duration": 4, "velocity": 83}, {"time": 290, "pitch": 64, "duration": 4, "velocity": 90}, {"time": 296, "pitch": 62, "duration": 5, "velocity": 90}, {"time": 302, "pitch": 61, "duration": 8, "velocity": 94}, {"time": 311, "pitch": 62, "duration": 30, "velocity": 89}, {"time": 356, "pitch": 62, "duration": 4, "velocity": 89}, {"time": 362, "pitch": 67, "duration": 9, "velocity": 86}, {"time": 374, "pitch": 67, "duration": 5, "velocity": 88}, {"time": 380, "pitch": 66, "duration": 6, "velocity": 93}, {"time": 386, "pitch": 67, "duration": 5, "velocity": 87}, {"time": 392, "pitch": 66, "duration": 6, "velocity": 94}, {"time": 398, "pitch": 67, "duration": 2, "velocity": 90}, {"time": 401, "pitch": 69, "duration": 9, "velocity": 93}, {"time": 410, "pitch": 64, "duration": 29, "velocity": 91}, {"time": 440, "pitch": 62, "duration": 4, "velocity": 93}, {"time": 446, "pitch": 61, "duration": 4, "velocity": 94}, {"time": 452, "pitch": 62, "duration": 4, "velocity": 94}, {"time": 458, "pitch": 71, "duration": 9, "velocity": 87}, {"time": 470, "pitch": 71, "duration": 5, "velocity": 95}, {"time": 476, "pitch": 73, "duration": 2, "velocity": 94}, {"time": 479, "pitch": 76, "duration": 7, "velocity": 94}, {"time": 488, "pitch": 74, "duration": 4, "velocity": 94}, {"time": 494, "pitch": 73, "duration": 5, "velocity": 86}, {"time": 500, "pitch": 71, "duration": 5, "velocity": 92}, {"time": 506, "pitch": 69, "duration": 9, "velocity": 82}, {"time": 518, "pitch": 69, "duration": 2, "velocity": 91}, {"time": 521, "pitch": 71, "duration": 6, "velocity": 90}, {"time": 530, "pitch": 66, "duration": 4, "velocity": 88}, {"time": 536, "pitch": 62, "duration": 6, "velocity": 93}, {"time": 542, "pitch": 61, "duration": 6, "velocity": 81}, {"time": 548, "pitch": 62, "duration": 6, "velocity": 92}, {"time": 554, "pitch": 69, "duration": 9, "velocity": 88}, {"time": 575, "pitch": 69, "duration": 1, "velocity": 86}, {"time": 578, "pitch": 69, "duration": 3, "velocity": 89}, {"time": 584, "pitch": 67, "duration": 4, "velocity": 85}, {"time": 590, "pitch": 59, "duration": 4, "velocity": 93}, {"time": 596, "pitch": 61, "duration": 4, "velocity": 95}, {"time": 602, "pitch": 62, "duration": 21, "velocity": 85}, {"time": 644, "pitch": 57, "duration": 5, "velocity": 88}, {"time": 650, "pitch": 66, "duration": 9, "velocity": 94}, {"time": 662, "pitch": 66, "duration": 5, "velocity": 94}, {"time": 668, "pitch": 62, "duration": 4, "velocity": 83}, {"time": 674, "pitch": 64, "duration": 4, "velocity": 90}, {"time": 680, "pitch": 62, "duration": 5, "velocity": 90}, {"time": 686, "pitch": 61, "duration": 8, "velocity": 94}, {"time": 695, "pitch": 62, "duration": 30, "velocity": 89}, {"time": 740, "pitch": 62, "duration": 4, "velocity": 89}, {"time": 746, "pitch": 67, "duration": 9, "velocity": 86}, {"time": 758, "pitch": 67, "duration": 5, "velocity": 88}, {"time": 764, "pitch": 66, "duration": 6, "velocity": 93}, {"time": 770, "pitch": 67, "duration": 5, "velocity": 87}, {"time": 776, "pitch": 66, "duration": 6, "velocity": 94}, {"time": 782, "pitch": 67, "duration": 2, "velocity": 90}, {"time": 785, "pitch": 69, "duration": 9, "velocity": 93}, {"time": 794, "pitch": 64, "duration": 29, "velocity": 91}, {"time": 824, "pitch": 62, "duration": 4, "velocity": 93}, {"time": 830, "pitch": 61, "duration": 4, "velocity": 94}, {"time": 836, "pitch": 62, "duration": 4, "velocity": 94}, {"time": 842, "pitch": 71, "duration": 9, "velocity": 87}, {"time": 854, "pitch": 71, "duration": 5, "velocity": 95}, {"time": 860, "pitch": 73, "duration": 2, "velocity": 94}, {"time": 863, "pitch": 76, "duration": 7, "velocity": 94}, {"time": 872, "pitch": 74, "duration": 4, "velocity": 94}, {"time": 878, "pitch": 73, "duration": 5, "velocity": 86}, {"time": 884, "pitch": 71, "duration": 5, "velocity": 92}, {"time": 890, "pitch": 69, "duration": 9, "velocity": 82}, {"time": 902, "pitch": 69, "duration": 2, "velocity": 91}, {"time": 905, "pitch": 71, "duration": 6, "velocity": 90}, {"time": 914, "pitch": 66, "duration": 4, "velocity": 88}, {"time": 920, "pitch": 62, "duration": 6, "velocity": 93}, {"time": 926, "pitch": 61, "duration": 6, "velocity": 81}, {"time": 932, "pitch": 62, "duration": 6, "velocity": 92}, {"time": 938, "pitch": 69, "duration": 15, "velocity": 88}, {"time": 959, "pitch": 69, "duration": 1, "velocity": 86}, {"time": 962, "pitch": 69, "duration": 3, "velocity": 89}, {"time": 968, "pitch": 67, "duration": 4, "velocity": 85}, {"time": 974, "pitch": 59, "duration": 4, "velocity": 93}, {"time": 980, "pitch": 61, "duration": 4, "velocity": 95}, {"time": 986, "pitch": 62, "duration": 21, "velocity": 85}, {"time": 1022, "pitch": 71, "duration": 4, "velocity": 94}, {"time": 1028, "pitch": 73, "duration": 4, "velocity": 93}, {"time": 1034, "pitch": 74, "duration": 10, "velocity": 95}, {"time": 1046, "pitch": 78, "duration": 9, "velocity": 99}, {"time": 1058, "pitch": 76, "duration": 5, "velocity": 97}, {"time": 1070, "pitch": 74, "duration": 5, "velocity": 90}, {"time": 1076, "pitch": 76, "duration": 3, "velocity": 95}, {"time": 1082, "pitch": 69, "duration": 10, "velocity": 95}, {"time": 1094, "pitch": 76, "duration": 10, "velocity": 94}, {"time": 1106, "pitch": 74, "duration": 11, "velocity": 95}, {"time": 1118, "pitch": 71, "duration": 5, "velocity": 94}, {"time": 1124, "pitch": 73, "duration": 5, "velocity": 93}, {"time": 1130, "pitch": 74, "duration": 10, "velocity": 97}, {"time": 1142, "pitch": 78, "duration": 11, "velocity": 98}, {"time": 1154, "pitch": 76, "duration": 11, "velocity": 95}, {"time": 1166, "pitch": 74, "duration": 10, "velocity": 102}, {"time": 1178, "pitch": 78, "duration": 32, "velocity": 93}, {"time": 1214, "pitch": 71, "duration": 4, "velocity": 94}, {"time": 1220, "pitch": 73, "duration": 4, "velocity": 93}, {"time": 1226, "pitch": 74, "duration": 10, "velocity": 95}, {"time": 1238, "pitch": 78, "duration": 10, "velocity": 96}, {"time": 1250, "pitch": 76, "duration": 10, "velocity": 94}, {"time": 1262, "pitch": 81, "duration": 4, "velocity": 95}, {"time": 1268, "pitch": 76, "duration": 4, "velocity": 95}, {"time": 1274, "pitch": 79, "duration": 4, "velocity": 94}, {"time": 1280, "pitch": 78, "duration": 2, "velocity": 93}, {"time": 1283, "pitch": 76, "duration": 4, "velocity": 93}, {"time": 1289, "pitch": 78, "duration": 8, "velocity": 94}, {"time": 1298, "pitch": 74, "duration": 9, "velocity": 97}, {"time": 1310, "pitch": 71, "duration": 4, "velocity": 95}, {"time": 1316, "pitch": 73, "duration": 5, "velocity": 92}, {"time": 1322, "pitch": 74, "duration": 9, "velocity": 94}, {"time": 1334, "pitch": 78, "duration": 12, "velocity": 93}, {"time": 1346, "pitch": 76, "duration": 10, "velocity": 94}, {"time": 1358, "pitch": 74, "duration": 9, "velocity": 95}, {"time": 1370, "pitch": 74, "duration": 33, "velocity": 96}, {"time": 1412, "pitch": 57, "duration": 5, "velocity": 99}, {"time": 1418, "pitch": 66, "duration": 9, "velocity": 90}, {"time": 1430, "pitch": 66, "duration": 4, "velocity": 94}, {"time": 1436, "pitch": 66, "duration": 2, "velocity": 86}, {"time": 1439, "pitch": 62, "duration": 1, "velocity": 91}, {"time": 1442, "pitch": 64, "duration": 4, "velocity": 93}, {"time": 1448, "pitch": 66, "duration": 2, "velocity": 92}, {"time": 1451, "pitch": 67, "duration": 2, "velocity": 89}, {"time": 1454, "pitch": 66, "duration": 4, "velocity": 95}, {"time": 1460, "pitch": 61, "duration": 6, "velocity": 97}, {"time": 1466, "pitch": 62, "duration": 12, "velocity": 89}, {"time": 1508, "pitch": 62, "duration": 4, "velocity": 94}, {"time": 1514, "pitch": 67, "duration": 10, "velocity": 89}, {"time": 1526, "pitch": 67, "duration": 5, "velocity": 90}, {"time": 1532, "pitch": 66, "duration": 2, "velocity": 89}, {"time": 1535, "pitch": 67, "duration": 8, "velocity": 88}, {"time": 1544, "pitch": 66, "duration": 4, "velocity": 94}, {"time": 1550, "pitch": 67, "duration": 4, "velocity": 86}, {"time": 1556, "pitch": 69, "duration": 6, "velocity": 91}, {"time": 1562, "pitch": 64, "duration": 22, "velocity": 94}, {"time": 1592, "pitch": 62, "duration": 4, "velocity": 94}, {"time": 1598, "pitch": 61, "duration": 4, "velocity": 93}, {"time": 1604, "pitch": 62, "duration": 2, "velocity": 93}, {"time": 1607, "pitch": 71, "duration": 12, "velocity": 94}, {"time": 1622, "pitch": 71, "duration": 4, "velocity": 94}, {"time": 1628, "pitch": 73, "duration": 1, "velocity": 88}, {"time": 1631, "pitch": 76, "duration": 7, "velocity": 94}, {"time": 1640, "pitch": 74, "duration": 5, "velocity": 93}, {"time": 1646, "pitch": 73, "duration": 3, "velocity": 94}, {"time": 1649, "pitch": 71, "duration": 9, "velocity": 94}, {"time": 1658, "pitch": 69, "duration": 9, "velocity": 91}, {"time": 1670, "pitch": 69, "duration": 1, "velocity": 88}, {"time": 1673, "pitch": 71, "duration": 8, "velocity": 93}, {"time": 1682, "pitch": 66, "duration": 5, "velocity": 89}, {"time": 1688, "pitch": 62, "duration": 4, "velocity": 87}, {"time": 1694, "pitch": 61, "duration": 4, "velocity": 94}, {"time": 1700, "pitch": 62, "duration": 5, "velocity": 87}, {"time": 1706, "pitch": 69, "duration": 17, "velocity": 93}, {"time": 1727, "pitch": 69, "duration": 1, "velocity": 83}, {"time": 1730, "pitch": 69, "duration": 5, "velocity": 93}, {"time": 1736, "pitch": 67, "duration": 4, "velocity": 94}, {"time": 1742, "pitch": 78, "duration": 4, "velocity": 94}, {"time": 1748, "pitch": 78, "duration": 4, "velocity": 93}, {"time": 1754, "pitch": 74, "duration": 46, "velocity": 99}, {"time": 2162, "pitch": 74, "duration": 12, "velocity": 104}, {"time": 2174, "pitch": 76, "duration": 13, "velocity": 97}, {"time": 2192, "pitch": 78, "duration": 1, "velocity": 99}, {"time": 2195, "pitch": 78, "duration": 1, "velocity": 95}, {"time": 2198, "pitch": 78, "duration": 4, "velocity": 97}, {"time": 2204, "pitch": 74, "duration": 1, "velocity": 94}, {"time": 2207, "pitch": 74, "duration": 1, "velocity": 97}, {"time": 2210, "pitch": 74, "duration": 4, "velocity": 104}, {"time": 2216, "pitch": 71, "duration": 1, "velocity": 97}, {"time": 2219, "pitch": 71, "duration": 1, "velocity": 94}, {"time": 2222, "pitch": 71, "duration": 1, "velocity": 100}, {"time": 2225, "pitch": 78, "duration": 12, "velocity": 95}, {"time": 2240, "pitch": 76, "duration": 1, "velocity": 94}, {"time": 2243, "pitch": 76, "duration": 1, "velocity": 94}, {"time": 2246, "pitch": 76, "duration": 4, "velocity": 98}, {"time": 2252, "pitch": 76, "duration": 1, "velocity": 93}, {"time": 2255, "pitch": 76, "duration": 1, "velocity": 88}, {"time": 2258, "pitch": 76, "duration": 3, "velocity": 89}, {"time": 2264, "pitch": 79, "duration": 2, "velocity": 94}, {"time": 2267, "pitch": 78, "duration": 8, "velocity": 99}, {"time": 2276, "pitch": 73, "duration": 5, "velocity": 96}, {"time": 2282, "pitch": 74, "duration": 15, "velocity": 98}, {"time": 2297, "pitch": 71, "duration": 1, "velocity": 95}, {"time": 2300, "pitch": 71, "duration": 2, "velocity": 95}, {"time": 2303, "pitch": 73, "duration": 2, "velocity": 94}, {"time": 2306, "pitch": 74, "duration": 13, "velocity": 97}, {"time": 2321, "pitch": 71, "duration": 1, "velocity": 98}, {"time": 2324, "pitch": 71, "duration": 2, "velocity": 94}, {"time": 2327, "pitch": 74, "duration": 2, "velocity": 94}, {"time": 2330, "pitch": 78, "duration": 4, "velocity": 98}, {"time": 2336, "pitch": 76, "duration": 3, "velocity": 89}, {"time": 2342, "pitch": 76, "duration": 4, "velocity": 94}, {"time": 2348, "pitch": 74, "duration": 3, "velocity": 99}, {"time": 2351, "pitch": 78, "duration": 9, "velocity": 95}, {"time": 2360, "pitch": 76, "duration": 4, "velocity": 93}, {"time": 2366, "pitch": 76, "duration": 4, "velocity": 95}, {"time": 2372, "pitch": 74, "duration": 4, "velocity": 99}, {"time": 2378, "pitch": 78, "duration": 4, "velocity": 95}, {"time": 2384, "pitch": 76, "duration": 4, "velocity": 95}, {"time": 2390, "pitch": 76, "duration": 5, "velocity": 95}, {"time": 2396, "pitch": 74, "duration": 2, "velocity": 99}, {"time": 2399, "pitch": 76, "duration": 15, "velocity": 95}, {"time": 2414, "pitch": 71, "duration": 4, "velocity": 94}, {"time": 2420, "pitch": 73, "duration": 4, "velocity": 93}, {"time": 2426, "pitch": 74, "duration": 10, "velocity": 95}, {"time": 2438, "pitch": 78, "duration": 9, "velocity": 99}, {"time": 2450, "pitch": 76, "duration": 5, "velocity": 97}, {"time": 2462, "pitch": 74, "duration": 5, "velocity": 90}, {"time": 2468, "pitch": 76, "duration": 3, "velocity": 95}, {"time": 2474, "pitch": 69, "duration": 10, "velocity": 95}, {"time": 2486, "pitch": 76, "duration": 10, "velocity": 94}, {"time": 2498, "pitch": 74, "duration": 11, "velocity": 95}, {"time": 2510, "pitch": 71, "duration": 5, "velocity": 94}, {"time": 2516, "pitch": 73, "duration": 5, "velocity": 93}, {"time": 2522, "pitch": 74, "duration": 10, "velocity": 97}, {"time": 2534, "pitch": 78, "duration": 11, "velocity": 98}, {"time": 2546, "pitch": 76, "duration": 11, "velocity": 95}, {"time": 2558, "pitch": 74, "duration": 10, "velocity": 102}, {"time": 2570, "pitch": 78, "duration": 32, "velocity": 93}, {"time": 2606, "pitch": 71, "duration": 4, "velocity": 94}, {"time": 2612, "pitch": 73, "duration": 4, "velocity": 93}, {"time": 2618, "pitch": 74, "duration": 10, "velocity": 95}, {"time": 2630, "pitch": 78, "duration": 10, "velocity": 96}, {"time": 2642, "pitch": 76, "duration": 10, "velocity": 94}, {"time": 2654, "pitch": 81, "duration": 4, "velocity": 95}, {"time": 2660, "pitch": 76, "duration": 4, "velocity": 95}, {"time": 2666, "pitch": 79, "duration": 4, "velocity": 94}, {"time": 2672, "pitch": 78, "duration": 2, "velocity": 93}, {"time": 2675, "pitch": 76, "duration": 4, "velocity": 93}, {"time": 2681, "pitch": 78, "duration": 8, "velocity": 94}, {"time": 2690, "pitch": 74, "duration": 9, "velocity": 97}, {"time": 2702, "pitch": 71, "duration": 4, "velocity": 95}, {"time": 2708, "pitch": 73, "duration": 5, "velocity": 92}, {"time": 2714, "pitch": 74, "duration": 9, "velocity": 94}, {"time": 2726, "pitch": 78, "duration": 12, "velocity": 93}, {"time": 2738, "pitch": 76, "duration": 10, "velocity": 94}, {"time": 2750, "pitch": 74, "duration": 9, "velocity": 95}, {"time": 2762, "pitch": 74, "duration": 33, "velocity": 96}, {"time": 2804, "pitch": 57, "duration": 5, "velocity": 88}, {"time": 2810, "pitch": 66, "duration": 9, "velocity": 94}, {"time": 2822, "pitch": 66, "duration": 5, "velocity": 94}, {"time": 2828, "pitch": 62, "duration": 4, "velocity": 83}, {"time": 2834, "pitch": 64, "duration": 4, "velocity": 90}, {"time": 2840, "pitch": 62, "duration": 5, "velocity": 90}, {"time": 2846, "pitch": 61, "duration": 8, "velocity": 94}, {"time": 2855, "pitch": 62, "duration": 30, "velocity": 89}, {"time": 2900, "pitch": 62, "duration": 4, "velocity": 89}, {"time": 2906, "pitch": 67, "duration": 9, "velocity": 86}, {"time": 2918, "pitch": 67, "duration": 5, "velocity": 88}, {"time": 2924, "pitch": 66, "duration": 6, "velocity": 93}, {"time": 2930, "pitch": 67, "duration": 5, "velocity": 87}, {"time": 2936, "pitch": 66, "duration": 6, "velocity": 94}, {"time": 2942, "pitch": 67, "duration": 2, "velocity": 90}, {"time": 2945, "pitch": 69, "duration": 9, "velocity": 93}, {"time": 2954, "pitch": 64, "duration": 29, "velocity": 91}, {"time": 2984, "pitch": 62, "duration": 4, "velocity": 93}, {"time": 2990, "pitch": 61, "duration": 4, "velocity": 94}, {"time": 2996, "pitch": 62, "duration": 4, "velocity": 94}, {"time": 3002, "pitch": 71, "duration": 9, "velocity": 87}, {"time": 3014, "pitch": 71, "duration": 5, "velocity": 95}, {"time": 3020, "pitch": 73, "duration": 2, "velocity": 94}, {"time": 3023, "pitch": 76, "duration": 7, "velocity": 94}, {"time": 3032, "pitch": 74, "duration": 4, "velocity": 94}, {"time": 3038, "pitch": 73, "duration": 5, "velocity": 86}, {"time": 3044, "pitch": 71, "duration": 5, "velocity": 92}, {"time": 3050, "pitch": 69, "duration": 9, "velocity": 82}, {"time": 3062, "pitch": 69, "duration": 2, "velocity": 91}, {"time": 3065, "pitch": 71, "duration": 6, "velocity": 90}, {"time": 3074, "pitch": 66, "duration": 4, "velocity": 88}, {"time": 3080, "pitch": 62, "duration": 6, "velocity": 93}, {"time": 3086, "pitch": 61, "duration": 6, "velocity": 81}, {"time": 3092, "pitch": 62, "duration": 6, "velocity": 92}, {"time": 3098, "pitch": 69, "duration": 15, "velocity": 88}, {"time": 3119, "pitch": 69, "duration": 1, "velocity": 86}, {"time": 3122, "pitch": 69, "duration": 3, "velocity": 89}, {"time": 3128, "pitch": 67, "duration": 4, "velocity": 85}, {"time": 3134, "pitch": 59, "duration": 4, "velocity": 93}, {"time": 3140, "pitch": 61, "duration": 4, "velocity": 95}, {"time": 3146, "pitch": 62, "duration": 21, "velocity": 85}, {"time": 3176, "pitch": 62, "duration": 4, "velocity": 93}, {"time": 3182, "pitch": 61, "duration": 4, "velocity": 94}, {"time": 3188, "pitch": 62, "duration": 4, "velocity": 94}, {"time": 3194, "pitch": 71, "duration": 9, "velocity": 87}, {"time": 3206, "pitch": 71, "duration": 5, "velocity": 95}, {"time": 3212, "pitch": 73, "duration": 2, "velocity": 94}, {"time": 3215, "pitch": 76, "duration": 7, "velocity": 94}, {"time": 3224, "pitch": 74, "duration": 4, "velocity": 94}, {"time": 3230, "pitch": 73, "duration": 5, "velocity": 86}, {"time": 3236, "pitch": 71, "duration": 5, "velocity": 92}, {"time": 3242, "pitch": 69, "duration": 9, "velocity": 82}, {"time": 3254, "pitch": 69, "duration": 2, "velocity": 91}, {"time": 3257, "pitch": 71, "duration": 6, "velocity": 90}, {"time": 3266, "pitch": 66, "duration": 4, "velocity": 88}, {"time": 3272, "pitch": 62, "duration": 6, "velocity": 93}, {"time": 3278, "pitch": 61, "duration": 6, "velocity": 81}, {"time": 3284, "pitch": 62, "duration": 6, "velocity": 92}, {"time": 3290, "pitch": 69, "duration": 15, "velocity": 88}, {"time": 3311, "pitch": 69, "duration": 4, "velocity": 94}, {"time": 3317, "pitch": 69, "duration": 6, "velocity": 97}, {"time": 3323, "pitch": 67, "duration": 9, "velocity": 94}, {"time": 3334, "pitch": 59, "duration": 25, "velocity": 94}, {"time": 3360, "pitch": 61, "duration": 14, "velocity": 89}, {"time": 3374, "pitch": 62, "duration": 47, "velocity": 91}]}, {"program": 0, "is_drum": false, "name": "PIANO", "notes": [{"time": 74, "pitch": 50, "duration": 21, "velocity": 94}, {"time": 77, "pitch": 57, "duration": 19, "velocity": 80}, {"time": 80, "pitch": 62, "duration": 4, "velocity": 85}, {"time": 83, "pitch": 64, "duration": 6, "velocity": 93}, {"time": 89, "pitch": 66, "duration": 10, "velocity": 86}, {"time": 98, "pitch": 50, "duration": 19, "velocity": 91}, {"time": 98, "pitch": 69, "duration": 10, "velocity": 89}, {"time": 104, "pitch": 57, "duration": 19, "velocity": 64}, {"time": 107, "pitch": 62, "duration": 5, "velocity": 87}, {"time": 113, "pitch": 66, "duration": 4, "velocity": 96}, {"time": 122, "pitch": 49, "duration": 17, "velocity": 86}, {"time": 122, "pitch": 64, "duration": 9, "velocity": 94}, {"time": 128, "pitch": 57, "duration": 10, "velocity": 78}, {"time": 131, "pitch": 64, "duration": 12, "velocity": 86}, {"time": 137, "pitch": 67, "duration": 9, "velocity": 86}, {"time": 146, "pitch": 42, "duration": 16, "velocity": 89}, {"time": 149, "pitch": 49, "duration": 13, "velocity": 76}, {"time": 152, "pitch": 54, "duration": 1, "velocity": 79}, {"time": 155, "pitch": 58, "duration": 6, "velocity": 87}, {"time": 161, "pitch": 61, "duration": 4, "velocity": 91}, {"time": 170, "pitch": 47, "duration": 17, "velocity": 94}, {"time": 170, "pitch": 59, "duration": 6, "velocity": 75}, {"time": 170, "pitch": 62, "duration": 9, "velocity": 71}, {"time": 176, "pitch": 54, "duration": 9, "velocity": 72}, {"time": 179, "pitch": 59, "duration": 6, "velocity": 89}, {"time": 185, "pitch": 66, "duration": 7, "velocity": 95}, {"time": 188, "pitch": 59, "duration": 4, "velocity": 86}, {"time": 191, "pitch": 62, "duration": 7, "velocity": 84}, {"time": 194, "pitch": 45, "duration": 20, "velocity": 92}, {"time": 197, "pitch": 52, "duration": 15, "velocity": 81}, {"time": 200, "pitch": 57, "duration": 4, "velocity": 84}, {"time": 203, "pitch": 62, "duration": 5, "velocity": 89}, {"time": 209, "pitch": 64, "duration": 3, "velocity": 89}, {"time": 212, "pitch": 62, "duration": 5, "velocity": 85}, {"time": 218, "pitch": 43, "duration": 21, "velocity": 92}, {"time": 221, "pitch": 50, "duration": 18, "velocity": 79}, {"time": 224, "pitch": 55, "duration": 8, "velocity": 84}, {"time": 227, "pitch": 58, "duration": 8, "velocity": 85}, {"time": 233, "pitch": 62, "duration": 8, "velocity": 89}, {"time": 236, "pitch": 67, "duration": 9, "velocity": 87}, {"time": 239, "pitch": 55, "duration": 2, "velocity": 86}, {"time": 242, "pitch": 45, "duration": 20, "velocity": 94}, {"time": 245, "pitch": 52, "duration": 15, "velocity": 81}, {"time": 248, "pitch": 57, "duration": 6, "velocity": 87}, {"time": 251, "pitch": 62, "duration": 6, "velocity": 91}, {"time": 257, "pitch": 64, "duration": 2, "velocity": 89}, {"time": 266, "pitch": 50, "duration": 19, "velocity": 95}, {"time": 272, "pitch": 57, "duration": 19, "velocity": 78}, {"time": 275, "pitch": 62, "duration": 6, "velocity": 89}, {"time": 281, "pitch": 64, "duration": 6, "velocity": 94}, {"time": 287, "pitch": 66, "duration": 3, "velocity": 75}, {"time": 290, "pitch": 49, "duration": 15, "velocity": 86}, {"time": 290, "pitch": 64, "duration": 3, "velocity": 92}, {"time": 296, "pitch": 57, "duration": 8, "velocity": 77}, {"time": 302, "pitch": 61, "duration": 2, "velocity": 89}, {"time": 302, "pitch": 64, "duration": 5, "velocity": 89}, {"time": 314, "pitch": 47, "duration": 16, "velocity": 89}, {"time": 314, "pitch": 59, "duration": 6, "velocity": 80}, {"time": 314, "pitch": 62, "duration": 9, "velocity": 85}, {"time": 320, "pitch": 54, "duration": 9, "velocity": 79}, {"time": 323, "pitch": 59, "duration": 6, "velocity": 93}, {"time": 329, "pitch": 66, "duration": 2, "velocity": 92}, {"time": 338, "pitch": 45, "duration": 18, "velocity": 89}, {"time": 338, "pitch": 57, "duration": 10, "velocity": 80}, {"time": 338, "pitch": 61, "duration": 8, "velocity": 81}, {"time": 338, "pitch": 64, "duration": 9, "velocity": 81}, {"time": 344, "pitch": 52, "duration": 9, "velocity": 75}, {"time": 350, "pitch": 61, "duration": 5, "velocity": 83}, {"time": 350, "pitch": 64, "duration": 6, "velocity": 94}, {"time": 350, "pitch": 69, "duration": 5, "velocity": 93}, {"time": 356, "pitch": 57, "duration": 1, "velocity": 95}, {"time": 362, "pitch": 43, "duration": 15, "velocity": 93}, {"time": 362, "pitch": 55, "duration": 10, "velocity": 83}, {"time": 362, "pitch": 59, "duration": 9, "velocity": 85}, {"time": 368, "pitch": 50, "duration": 9, "velocity": 85}, {"time": 371, "pitch": 62, "duration": 7, "velocity": 91}, {"time": 377, "pitch": 67, "duration": 5, "velocity": 93}, {"time": 380, "pitch": 55, "duration": 2, "velocity": 94}, {"time": 386, "pitch": 42, "duration": 15, "velocity": 94}, {"time": 389, "pitch": 49, "duration": 12, "velocity": 81}, {"time": 392, "pitch": 54, "duration": 4, "velocity": 79}, {"time": 395, "pitch": 57, "duration": 6, "velocity": 88}, {"time": 401, "pitch": 61, "duration": 2, "velocity": 94}, {"time": 410, "pitch": 40, "duration": 14, "velocity": 89}, {"time": 413, "pitch": 47, "duration": 11, "velocity": 81}, {"time": 416, "pitch": 52, "duration": 8, "velocity": 90}, {"time": 419, "pitch": 59, "duration": 7, "velocity": 93}, {"time": 425, "pitch": 64, "duration": 3, "velocity": 97}, {"time": 428, "pitch": 52, "duration": 3, "velocity": 97}, {"time": 428, "pitch": 59, "duration": 1, "velocity": 57}, {"time": 431, "pitch": 64, "duration": 6, "velocity": 94}, {"time": 434, "pitch": 45, "duration": 19, "velocity": 94}, {"time": 437, "pitch": 52, "duration": 14, "velocity": 89}, {"time": 440, "pitch": 57, "duration": 3, "velocity": 94}, {"time": 443, "pitch": 59, "duration": 2, "velocity": 89}, {"time": 446, "pitch": 61, "duration": 2, "velocity": 97}, {"time": 449, "pitch": 62, "duration": 2, "velocity": 94}, {"time": 452, "pitch": 64, "duration": 3, "velocity": 95}, {"time": 458, "pitch": 43, "duration": 22, "velocity": 93}, {"time": 458, "pitch": 62, "duration": 6, "velocity": 84}, {"time": 458, "pitch": 67, "duration": 8, "velocity": 84}, {"time": 464, "pitch": 50, "duration": 15, "velocity": 79}, {"time": 467, "pitch": 62, "duration": 7, "velocity": 89}, {"time": 473, "pitch": 67, "duration": 4, "velocity": 81}, {"time": 476, "pitch": 71, "duration": 4, "velocity": 89}, {"time": 479, "pitch": 62, "duration": 2, "velocity": 71}, {"time": 482, "pitch": 45, "duration": 18, "velocity": 94}, {"time": 485, "pitch": 52, "duration": 15, "velocity": 85}, {"time": 488, "pitch": 57, "duration": 9, "velocity": 89}, {"time": 491, "pitch": 61, "duration": 7, "velocity": 100}, {"time": 497, "pitch": 69, "duration": 4, "velocity": 95}, {"time": 500, "pitch": 61, "duration": 4, "velocity": 85}, {"time": 506, "pitch": 42, "duration": 15, "velocity": 93}, {"time": 506, "pitch": 57, "duration": 3, "velocity": 82}, {"time": 506, "pitch": 61, "duration": 6, "velocity": 87}, {"time": 509, "pitch": 49, "duration": 12, "velocity": 79}, {"time": 512, "pitch": 57, "duration": 7, "velocity": 84}, {"time": 515, "pitch": 61, "duration": 6, "velocity": 94}, {"time": 521, "pitch": 66, "duration": 6, "velocity": 95}, {"time": 524, "pitch": 57, "duration": 3, "velocity": 87}, {"time": 527, "pitch": 61, "duration": 1, "velocity": 90}, {"time": 530, "pitch": 47, "duration": 15, "velocity": 93}, {"time": 530, "pitch": 59, "duration": 7, "velocity": 86}, {"time": 530, "pitch": 62, "duration": 7, "velocity": 91}, {"time": 536, "pitch": 54, "duration": 7, "velocity": 76}, {"time": 542, "pitch": 59, "duration": 2, "velocity": 88}, {"time": 542, "pitch": 62, "duration": 5, "velocity": 92}, {"time": 542, "pitch": 66, "duration": 4, "velocity": 88}, {"time": 554, "pitch": 40, "duration": 21, "velocity": 94}, {"time": 554, "pitch": 67, "duration": 5, "velocity": 89}, {"time": 557, "pitch": 47, "duration": 16, "velocity": 78}, {"time": 560, "pitch": 59, "duration": 8, "velocity": 92}, {"time": 563, "pitch": 64, "duration": 5, "velocity": 94}, {"time": 569, "pitch": 67, "duration": 5, "velocity": 94}, {"time": 572, "pitch": 59, "duration": 2, "velocity": 92}, {"time": 578, "pitch": 45, "duration": 22, "velocity": 88}, {"time": 578, "pitch": 57, "duration": 3, "velocity": 84}, {"time": 578, "pitch": 64, "duration": 9, "velocity": 87}, {"time": 581, "pitch": 52, "duration": 18, "velocity": 82}, {"time": 584, "pitch": 57, "duration": 8, "velocity": 92}, {"time": 587, "pitch": 61, "duration": 7, "velocity": 94}, {"time": 593, "pitch": 69, "duration": 7, "velocity": 94}, {"time": 596, "pitch": 57, "duration": 3, "velocity": 93}, {"time": 602, "pitch": 43, "duration": 18, "velocity": 94}, {"time": 602, "pitch": 59, "duration": 5, "velocity": 88}, {"time": 602, "pitch": 62, "duration": 6, "velocity": 90}, {"time": 602, "pitch": 67, "duration": 8, "velocity": 91}, {"time": 608, "pitch": 50, "duration": 11, "velocity": 76}, {"time": 611, "pitch": 59, "duration": 1, "velocity": 94}, {"time": 614, "pitch": 62, "duration": 3, "velocity": 86}, {"time": 614, "pitch": 66, "duration": 3, "velocity": 94}, {"time": 620, "pitch": 64, "duration": 5, "velocity": 95}, {"time": 626, "pitch": 38, "duration": 1, "velocity": 97}, {"time": 626, "pitch": 62, "duration": 9, "velocity": 91}, {"time": 632, "pitch": 50, "duration": 20, "velocity": 93}, {"time": 635, "pitch": 57, "duration": 17, "velocity": 93}, {"time": 638, "pitch": 62, "duration": 3, "velocity": 91}, {"time": 641, "pitch": 64, "duration": 2, "velocity": 91}, {"time": 644, "pitch": 66, "duration": 4, "velocity": 92}, {"time": 650, "pitch": 50, "duration": 2, "velocity": 95}, {"time": 656, "pitch": 57, "duration": 19, "velocity": 78}, {"time": 659, "pitch": 62, "duration": 6, "velocity": 89}, {"time": 665, "pitch": 64, "duration": 6, "velocity": 94}, {"time": 671, "pitch": 66, "duration": 3, "velocity": 75}, {"time": 674, "pitch": 49, "duration": 15, "velocity": 86}, {"time": 674, "pitch": 64, "duration": 3, "velocity": 92}, {"time": 680, "pitch": 57, "duration": 8, "velocity": 77}, {"time": 686, "pitch": 61, "duration": 2, "velocity": 89}, {"time": 686, "pitch": 64, "duration": 5, "velocity": 89}, {"time": 698, "pitch": 47, "duration": 16, "velocity": 89}, {"time": 698, "pitch": 59, "duration": 6, "velocity": 80}, {"time": 698, "pitch": 62, "duration": 9, "velocity": 85}, {"time": 704, "pitch": 54, "duration": 9, "velocity": 79}, {"time": 707, "pitch": 59, "duration": 6, "velocity": 93}, {"time": 713, "pitch": 66, "duration": 2, "velocity": 92}, {"time": 722, "pitch": 45, "duration": 18, "velocity": 89}, {"time": 722, "pitch": 57, "duration": 10, "velocity": 80}, {"time": 722, "pitch": 61, "duration": 8, "velocity": 81}, {"time": 722, "pitch": 64, "duration": 9, "velocity": 81}, {"time": 728, "pitch": 52, "duration": 9, "velocity": 75}, {"time": 734, "pitch": 61, "duration": 5, "velocity": 83}, {"time": 734, "pitch": 64, "duration": 6, "velocity": 94}, {"time": 734, "pitch": 69, "duration": 5, "velocity": 93}, {"time": 740, "pitch": 57, "duration": 1, "velocity": 95}, {"time": 746, "pitch": 43, "duration": 15, "velocity": 93}, {"time": 746, "pitch": 55, "duration": 10, "velocity": 83}, {"time": 746, "pitch": 59, "duration": 9, "velocity": 85}, {"time": 752, "pitch": 50, "duration": 9, "velocity": 85}, {"time": 755, "pitch": 62, "duration": 7, "velocity": 91}, {"time": 761, "pitch": 67, "duration": 5, "velocity": 93}, {"time": 764, "pitch": 55, "duration": 2, "velocity": 94}, {"time": 770, "pitch": 42, "duration": 15, "velocity": 94}, {"time": 773, "pitch": 49, "duration": 12, "velocity": 81}, {"time": 776, "pitch": 54, "duration": 4, "velocity": 79}, {"time": 779, "pitch": 57, "duration": 6, "velocity": 88}, {"time": 785, "pitch": 61, "duration": 2, "velocity": 94}, {"time": 794, "pitch": 40, "duration": 14, "velocity": 89}, {"time": 797, "pitch": 47, "duration": 11, "velocity": 81}, {"time": 800, "pitch": 52, "duration": 8, "velocity": 90}, {"time": 803, "pitch": 59, "duration": 7, "velocity": 93}, {"time": 809, "pitch": 64, "duration": 3, "velocity": 97}, {"time": 812, "pitch": 52, "duration": 3, "velocity": 97}, {"time": 812, "pitch": 59, "duration": 1, "velocity": 57}, {"time": 815, "pitch": 64, "duration": 6, "velocity": 94}, {"time": 818, "pitch": 45, "duration": 19, "velocity": 94}, {"time": 821, "pitch": 52, "duration": 14, "velocity": 89}, {"time": 824, "pitch": 57, "duration": 3, "velocity": 94}, {"time": 827, "pitch": 59, "duration": 2, "velocity": 89}, {"time": 830, "pitch": 61, "duration": 2, "velocity": 97}, {"time": 833, "pitch": 62, "duration": 2, "velocity": 94}, {"time": 836, "pitch": 64, "duration": 3, "velocity": 95}, {"time": 842, "pitch": 43, "duration": 22, "velocity": 93}, {"time": 842, "pitch": 62, "duration": 6, "velocity": 84}, {"time": 842, "pitch": 67, "duration": 8, "velocity": 84}, {"time": 848, "pitch": 50, "duration": 15, "velocity": 79}, {"time": 851, "pitch": 62, "duration": 7, "velocity": 89}, {"time": 857, "pitch": 67, "duration": 4, "velocity": 81}, {"time": 860, "pitch": 71, "duration": 4, "velocity": 89}, {"time": 863, "pitch": 62, "duration": 2, "velocity": 71}, {"time": 866, "pitch": 45, "duration": 18, "velocity": 94}, {"time": 869, "pitch": 52, "duration": 15, "velocity": 85}, {"time": 872, "pitch": 57, "duration": 9, "velocity": 89}, {"time": 875, "pitch": 61, "duration": 7, "velocity": 100}, {"time": 881, "pitch": 69, "duration": 4, "velocity": 95}, {"time": 884, "pitch": 61, "duration": 4, "velocity": 85}, {"time": 890, "pitch": 42, "duration": 15, "velocity": 93}, {"time": 890, "pitch": 57, "duration": 3, "velocity": 82}, {"time": 890, "pitch": 61, "duration": 6, "velocity": 87}, {"time": 893, "pitch": 49, "duration": 12, "velocity": 79}, {"time": 896, "pitch": 57, "duration": 7, "velocity": 84}, {"time": 899, "pitch": 61, "duration": 6, "velocity": 94}, {"time": 905, "pitch": 66, "duration": 6, "velocity": 95}, {"time": 908, "pitch": 57, "duration": 3, "velocity": 87}, {"time": 911, "pitch": 61, "duration": 1, "velocity": 90}, {"time": 914, "pitch": 47, "duration": 15, "velocity": 93}, {"time": 914, "pitch": 59, "duration": 7, "velocity": 86}, {"time": 914, "pitch": 62, "duration": 7, "velocity": 91}, {"time": 920, "pitch": 54, "duration": 7, "velocity": 76}, {"time": 926, "pitch": 59, "duration": 2, "velocity": 88}, {"time": 926, "pitch": 62, "duration": 5, "velocity": 92}, {"time": 926, "pitch": 66, "duration": 4, "velocity": 88}, {"time": 938, "pitch": 40, "duration": 21, "velocity": 94}, {"time": 938, "pitch": 67, "duration": 5, "velocity": 89}, {"time": 941, "pitch": 47, "duration": 16, "velocity": 78}, {"time": 944, "pitch": 59, "duration": 8, "velocity": 92}, {"time": 947, "pitch": 64, "duration": 5, "velocity": 94}, {"time": 953, "pitch": 67, "duration": 5, "velocity": 94}, {"time": 956, "pitch": 59, "duration": 2, "velocity": 92}, {"time": 962, "pitch": 45, "duration": 22, "velocity": 88}, {"time": 962, "pitch": 57, "duration": 3, "velocity": 84}, {"time": 962, "pitch": 64, "duration": 9, "velocity": 87}, {"time": 965, "pitch": 52, "duration": 18, "velocity": 82}, {"time": 968, "pitch": 57, "duration": 8, "velocity": 92}, {"time": 971, "pitch": 61, "duration": 7, "velocity": 94}, {"time": 977, "pitch": 69, "duration": 7, "velocity": 94}, {"time": 980, "pitch": 57, "duration": 3, "velocity": 93}, {"time": 986, "pitch": 38, "duration": 3, "velocity": 99}, {"time": 986, "pitch": 62, "duration": 2, "velocity": 91}, {"time": 986, "pitch": 74, "duration": 2, "velocity": 95}, {"time": 992, "pitch": 38, "duration": 1, "velocity": 74}, {"time": 992, "pitch": 45, "duration": 2, "velocity": 76}, {"time": 992, "pitch": 61, "duration": 2, "velocity": 90}, {"time": 992, "pitch": 73, "duration": 2, "velocity": 79}, {"time": 998, "pitch": 38, "duration": 2, "velocity": 96}, {"time": 998, "pitch": 45, "duration": 2, "velocity": 92}, {"time": 998, "pitch": 62, "duration": 3, "velocity": 91}, {"time": 998, "pitch": 74, "duration": 3, "velocity": 100}, {"time": 1004, "pitch": 36, "duration": 1, "velocity": 87}, {"time": 1004, "pitch": 38, "duration": 2, "velocity": 94}, {"time": 1004, "pitch": 45, "duration": 2, "velocity": 92}, {"time": 1004, "pitch": 64, "duration": 1, "velocity": 95}, {"time": 1004, "pitch": 76, "duration": 1, "velocity": 95}, {"time": 1010, "pitch": 38, "duration": 3, "velocity": 102}, {"time": 1010, "pitch": 66, "duration": 3, "velocity": 93}, {"time": 1010, "pitch": 78, "duration": 2, "velocity": 93}, {"time": 1016, "pitch": 38, "duration": 2, "velocity": 94}, {"time": 1016, "pitch": 45, "duration": 2, "velocity": 90}, {"time": 1016, "pitch": 67, "duration": 2, "velocity": 93}, {"time": 1016, "pitch": 79, "duration": 3, "velocity": 93}, {"time": 1022, "pitch": 38, "duration": 3, "velocity": 100}, {"time": 1022, "pitch": 45, "duration": 3, "velocity": 96}, {"time": 1022, "pitch": 69, "duration": 2, "velocity": 100}, {"time": 1022, "pitch": 81, "duration": 2, "velocity": 97}, {"time": 1028, "pitch": 38, "duration": 1, "velocity": 95}, {"time": 1028, "pitch": 45, "duration": 1, "velocity": 93}, {"time": 1028, "pitch": 62, "duration": 2, "velocity": 95}, {"time": 1028, "pitch": 74, "duration": 2, "velocity": 99}, {"time": 1034, "pitch": 43, "duration": 22, "velocity": 94}, {"time": 1034, "pitch": 55, "duration": 3, "velocity": 92}, {"time": 1034, "pitch": 67, "duration": 6, "velocity": 90}, {"time": 1037, "pitch": 50, "duration": 18, "velocity": 86}, {"time": 1040, "pitch": 55, "duration": 4, "velocity": 89}, {"time": 1043, "pitch": 62, "duration": 2, "velocity": 94}, {"time": 1049, "pitch": 55, "duration": 2, "velocity": 94}, {"time": 1049, "pitch": 67, "duration": 3, "velocity": 93}, {"time": 1052, "pitch": 62, "duration": 3, "velocity": 91}, {"time": 1055, "pitch": 55, "duration": 2, "velocity": 84}, {"time": 1058, "pitch": 43, "duration": 17, "velocity": 91}, {"time": 1058, "pitch": 55, "duration": 3, "velocity": 94}, {"time": 1058, "pitch": 62, "duration": 6, "velocity": 93}, {"time": 1058, "pitch": 67, "duration": 2, "velocity": 74}, {"time": 1061, "pitch": 50, "duration": 13, "velocity": 92}, {"time": 1064, "pitch": 55, "duration": 4, "velocity": 89}, {"time": 1067, "pitch": 62, "duration": 4, "velocity": 89}, {"time": 1073, "pitch": 55, "duration": 1, "velocity": 91}, {"time": 1073, "pitch": 62, "duration": 2, "velocity": 94}, {"time": 1073, "pitch": 67, "duration": 3, "velocity": 90}, {"time": 1082, "pitch": 42, "duration": 16, "velocity": 94}, {"time": 1082, "pitch": 57, "duration": 2, "velocity": 86}, {"time": 1082, "pitch": 61, "duration": 5, "velocity": 88}, {"time": 1085, "pitch": 49, "duration": 13, "velocity": 83}, {"time": 1088, "pitch": 57, "duration": 4, "velocity": 90}, {"time": 1091, "pitch": 61, "duration": 2, "velocity": 99}, {"time": 1097, "pitch": 57, "duration": 2, "velocity": 93}, {"time": 1097, "pitch": 61, "duration": 1, "velocity": 93}, {"time": 1097, "pitch": 66, "duration": 7, "velocity": 96}, {"time": 1100, "pitch": 57, "duration": 2, "velocity": 81}, {"time": 1106, "pitch": 47, "duration": 16, "velocity": 94}, {"time": 1106, "pitch": 59, "duration": 7, "velocity": 88}, {"time": 1106, "pitch": 62, "duration": 7, "velocity": 89}, {"time": 1112, "pitch": 54, "duration": 7, "velocity": 91}, {"time": 1118, "pitch": 59, "duration": 3, "velocity": 94}, {"time": 1118, "pitch": 62, "duration": 3, "velocity": 97}, {"time": 1118, "pitch": 66, "duration": 4, "velocity": 95}, {"time": 1121, "pitch": 54, "duration": 1, "velocity": 94}, {"time": 1124, "pitch": 59, "duration": 4, "velocity": 95}, {"time": 1127, "pitch": 62, "duration": 1, "velocity": 81}, {"time": 1130, "pitch": 40, "duration": 17, "velocity": 95}, {"time": 1130, "pitch": 59, "duration": 2, "velocity": 88}, {"time": 1130, "pitch": 64, "duration": 4, "velocity": 93}, {"time": 1133, "pitch": 47, "duration": 13, "velocity": 91}, {"time": 1136, "pitch": 59, "duration": 6, "velocity": 93}, {"time": 1139, "pitch": 64, "duration": 4, "velocity": 91}, {"time": 1145, "pitch": 59, "duration": 2, "velocity": 94}, {"time": 1145, "pitch": 67, "duration": 3, "velocity": 92}, {"time": 1148, "pitch": 64, "duration": 3, "velocity": 89}, {"time": 1151, "pitch": 59, "duration": 2, "velocity": 95}, {"time": 1154, "pitch": 45, "duration": 22, "velocity": 94}, {"time": 1157, "pitch": 52, "duration": 17, "velocity": 86}, {"time": 1160, "pitch": 57, "duration": 6, "velocity": 93}, {"time": 1163, "pitch": 61, "duration": 4, "velocity": 97}, {"time": 1169, "pitch": 62, "duration": 2, "velocity": 93}, {"time": 1172, "pitch": 64, "duration": 2, "velocity": 93}, {"time": 1178, "pitch": 50, "duration": 7, "velocity": 98}, {"time": 1178, "pitch": 66, "duration": 7, "velocity": 96}, {"time": 1184, "pitch": 54, "duration": 6, "velocity": 97}, {"time": 1187, "pitch": 57, "duration": 4, "velocity": 93}, {"time": 1190, "pitch": 50, "duration": 2, "velocity": 95}, {"time": 1193, "pitch": 57, "duration": 1, "velocity": 86}, {"time": 1193, "pitch": 62, "duration": 4, "velocity": 97}, {"time": 1193, "pitch": 66, "duration": 7, "velocity": 95}, {"time": 1199, "pitch": 57, "duration": 1, "velocity": 90}, {"time": 1202, "pitch": 38, "duration": 14, "velocity": 98}, {"time": 1202, "pitch": 57, "duration": 3, "velocity": 88}, {"time": 1202, "pitch": 60, "duration": 6, "velocity": 93}, {"time": 1202, "pitch": 66, "duration": 7, "velocity": 96}, {"time": 1208, "pitch": 57, "duration": 1, "velocity": 85}, {"time": 1211, "pitch": 57, "duration": 3, "velocity": 94}, {"time": 1211, "pitch": 60, "duration": 3, "velocity": 100}, {"time": 1211, "pitch": 66, "duration": 7, "velocity": 96}, {"time": 1214, "pitch": 45, "duration": 3, "velocity": 94}, {"time": 1217, "pitch": 57, "duration": 2, "velocity": 97}, {"time": 1220, "pitch": 62, "duration": 1, "velocity": 82}, {"time": 1226, "pitch": 43, "duration": 17, "velocity": 93}, {"time": 1226, "pitch": 55, "duration": 3, "velocity": 93}, {"time": 1226, "pitch": 59, "duration": 4, "velocity": 94}, {"time": 1229, "pitch": 50, "duration": 6, "velocity": 93}, {"time": 1232, "pitch": 55, "duration": 1, "velocity": 94}, {"time": 1235, "pitch": 55, "duration": 4, "velocity": 94}, {"time": 1235, "pitch": 62, "duration": 4, "velocity": 94}, {"time": 1238, "pitch": 50, "duration": 4, "velocity": 88}, {"time": 1241, "pitch": 55, "duration": 1, "velocity": 90}, {"time": 1241, "pitch": 59, "duration": 2, "velocity": 90}, {"time": 1241, "pitch": 62, "duration": 2, "velocity": 93}, {"time": 1250, "pitch": 43, "duration": 18, "velocity": 94}, {"time": 1250, "pitch": 55, "duration": 3, "velocity": 93}, {"time": 1250, "pitch": 67, "duration": 4, "velocity": 90}, {"time": 1253, "pitch": 50, "duration": 12, "velocity": 87}, {"time": 1256, "pitch": 55, "duration": 6, "velocity": 93}, {"time": 1259, "pitch": 59, "duration": 4, "velocity": 94}, {"time": 1265, "pitch": 55, "duration": 3, "velocity": 94}, {"time": 1265, "pitch": 62, "duration": 4, "velocity": 96}, {"time": 1268, "pitch": 50, "duration": 1, "velocity": 94}, {"time": 1274, "pitch": 42, "duration": 12, "velocity": 104}, {"time": 1274, "pitch": 57, "duration": 5, "velocity": 87}, {"time": 1274, "pitch": 61, "duration": 6, "velocity": 86}, {"time": 1280, "pitch": 49, "duration": 4, "velocity": 81}, {"time": 1283, "pitch": 57, "duration": 4, "velocity": 93}, {"time": 1283, "pitch": 66, "duration": 5, "velocity": 90}, {"time": 1286, "pitch": 49, "duration": 2, "velocity": 88}, {"time": 1289, "pitch": 61, "duration": 3, "velocity": 110}, {"time": 1292, "pitch": 57, "duration": 2, "velocity": 94}, {"time": 1298, "pitch": 47, "duration": 17, "velocity": 93}, {"time": 1298, "pitch": 59, "duration": 3, "velocity": 87}, {"time": 1298, "pitch": 62, "duration": 4, "velocity": 90}, {"time": 1301, "pitch": 54, "duration": 12, "velocity": 88}, {"time": 1304, "pitch": 59, "duration": 4, "velocity": 95}, {"time": 1307, "pitch": 62, "duration": 1, "velocity": 80}, {"time": 1307, "pitch": 66, "duration": 3, "velocity": 100}, {"time": 1310, "pitch": 71, "duration": 6, "velocity": 95}, {"time": 1313, "pitch": 66, "duration": 3, "velocity": 104}, {"time": 1316, "pitch": 59, "duration": 4, "velocity": 96}, {"time": 1322, "pitch": 40, "duration": 15, "velocity": 94}, {"time": 1322, "pitch": 59, "duration": 3, "velocity": 86}, {"time": 1322, "pitch": 64, "duration": 4, "velocity": 92}, {"time": 1325, "pitch": 47, "duration": 11, "velocity": 87}, {"time": 1328, "pitch": 59, "duration": 4, "velocity": 93}, {"time": 1331, "pitch": 64, "duration": 3, "velocity": 95}, {"time": 1337, "pitch": 59, "duration": 1, "velocity": 91}, {"time": 1337, "pitch": 64, "duration": 3, "velocity": 95}, {"time": 1337, "pitch": 67, "duration": 5, "velocity": 92}, {"time": 1340, "pitch": 59, "duration": 5, "velocity": 94}, {"time": 1343, "pitch": 64, "duration": 3, "velocity": 89}, {"time": 1346, "pitch": 45, "duration": 11, "velocity": 94}, {"time": 1349, "pitch": 52, "duration": 7, "velocity": 87}, {"time": 1352, "pitch": 57, "duration": 4, "velocity": 93}, {"time": 1355, "pitch": 61, "duration": 1, "velocity": 94}, {"time": 1358, "pitch": 49, "duration": 3, "velocity": 110}, {"time": 1358, "pitch": 61, "duration": 5, "velocity": 90}, {"time": 1361, "pitch": 52, "duration": 3, "velocity": 94}, {"time": 1364, "pitch": 57, "duration": 4, "velocity": 94}, {"time": 1367, "pitch": 61, "duration": 2, "velocity": 95}, {"time": 1370, "pitch": 43, "duration": 20, "velocity": 95}, {"time": 1370, "pitch": 62, "duration": 6, "velocity": 93}, {"time": 1373, "pitch": 50, "duration": 16, "velocity": 84}, {"time": 1376, "pitch": 55, "duration": 6, "velocity": 95}, {"time": 1379, "pitch": 58, "duration": 4, "velocity": 95}, {"time": 1385, "pitch": 55, "duration": 2, "velocity": 89}, {"time": 1385, "pitch": 58, "duration": 4, "velocity": 89}, {"time": 1385, "pitch": 62, "duration": 4, "velocity": 93}, {"time": 1394, "pitch": 50, "duration": 23, "velocity": 93}, {"time": 1394, "pitch": 57, "duration": 4, "velocity": 85}, {"time": 1394, "pitch": 62, "duration": 5, "velocity": 88}, {"time": 1406, "pitch": 62, "duration": 11, "velocity": 91}, {"time": 1406, "pitch": 66, "duration": 11, "velocity": 82}, {"time": 1412, "pitch": 57, "duration": 5, "velocity": 85}, {"time": 1418, "pitch": 50, "duration": 19, "velocity": 95}, {"time": 1424, "pitch": 57, "duration": 19, "velocity": 78}, {"time": 1427, "pitch": 62, "duration": 6, "velocity": 89}, {"time": 1433, "pitch": 64, "duration": 6, "velocity": 94}, {"time": 1439, "pitch": 66, "duration": 3, "velocity": 75}, {"time": 1442, "pitch": 49, "duration": 15, "velocity": 86}, {"time": 1442, "pitch": 64, "duration": 3, "velocity": 92}, {"time": 1448, "pitch": 57, "duration": 8, "velocity": 77}, {"time": 1454, "pitch": 61, "duration": 2, "velocity": 89}, {"time": 1454, "pitch": 64, "duration": 5, "velocity": 89}, {"time": 1466, "pitch": 47, "duration": 16, "velocity": 89}, {"time": 1466, "pitch": 59, "duration": 6, "velocity": 80}, {"time": 1466, "pitch": 62, "duration": 9, "velocity": 85}, {"time": 1472, "pitch": 54, "duration": 9, "velocity": 79}, {"time": 1475, "pitch": 59, "duration": 6, "velocity": 93}, {"time": 1481, "pitch": 66, "duration": 2, "velocity": 92}, {"time": 1490, "pitch": 45, "duration": 18, "velocity": 89}, {"time": 1490, "pitch": 57, "duration": 10, "velocity": 80}, {"time": 1490, "pitch": 61, "duration": 8, "velocity": 81}, {"time": 1490, "pitch": 64, "duration": 9, "velocity": 81}, {"time": 1496, "pitch": 52, "duration": 9, "velocity": 75}, {"time": 1502, "pitch": 61, "duration": 5, "velocity": 83}, {"time": 1502, "pitch": 64, "duration": 6, "velocity": 94}, {"time": 1502, "pitch": 69, "duration": 5, "velocity": 93}, {"time": 1508, "pitch": 57, "duration": 1, "velocity": 95}, {"time": 1514, "pitch": 43, "duration": 15, "velocity": 93}, {"time": 1514, "pitch": 55, "duration": 10, "velocity": 83}, {"time": 1514, "pitch": 59, "duration": 9, "velocity": 85}, {"time": 1520, "pitch": 50, "duration": 9, "velocity": 85}, {"time": 1523, "pitch": 62, "duration": 7, "velocity": 91}, {"time": 1529, "pitch": 67, "duration": 5, "velocity": 93}, {"time": 1532, "pitch": 55, "duration": 2, "velocity": 94}, {"time": 1538, "pitch": 42, "duration": 15, "velocity": 94}, {"time": 1541, "pitch": 49, "duration": 12, "velocity": 81}, {"time": 1544, "pitch": 54, "duration": 4, "velocity": 79}, {"time": 1547, "pitch": 57, "duration": 6, "velocity": 88}, {"time": 1553, "pitch": 61, "duration": 2, "velocity": 94}, {"time": 1562, "pitch": 40, "duration": 14, "velocity": 89}, {"time": 1565, "pitch": 47, "duration": 11, "velocity": 81}, {"time": 1568, "pitch": 52, "duration": 8, "velocity": 90}, {"time": 1571, "pitch": 59, "duration": 7, "velocity": 93}, {"time": 1577, "pitch": 64, "duration": 3, "velocity": 97}, {"time": 1580, "pitch": 52, "duration": 3, "velocity": 97}, {"time": 1580, "pitch": 59, "duration": 1, "velocity": 57}, {"time": 1583, "pitch": 64, "duration": 6, "velocity": 94}, {"time": 1586, "pitch": 45, "duration": 19, "velocity": 94}, {"time": 1589, "pitch": 52, "duration": 14, "velocity": 89}, {"time": 1592, "pitch": 57, "duration": 3, "velocity": 94}, {"time": 1595, "pitch": 59, "duration": 2, "velocity": 89}, {"time": 1598, "pitch": 61, "duration": 2, "velocity": 97}, {"time": 1601, "pitch": 62, "duration": 2, "velocity": 94}, {"time": 1604, "pitch": 64, "duration": 3, "velocity": 95}, {"time": 1610, "pitch": 43, "duration": 22, "velocity": 93}, {"time": 1610, "pitch": 62, "duration": 6, "velocity": 84}, {"time": 1610, "pitch": 67, "duration": 8, "velocity": 84}, {"time": 1616, "pitch": 50, "duration": 15, "velocity": 79}, {"time": 1619, "pitch": 62, "duration": 7, "velocity": 89}, {"time": 1625, "pitch": 67, "duration": 4, "velocity": 81}, {"time": 1628, "pitch": 71, "duration": 4, "velocity": 89}, {"time": 1631, "pitch": 62, "duration": 2, "velocity": 71}, {"time": 1634, "pitch": 45, "duration": 18, "velocity": 94}, {"time": 1637, "pitch": 52, "duration": 15, "velocity": 85}, {"time": 1640, "pitch": 57, "duration": 9, "velocity": 89}, {"time": 1643, "pitch": 61, "duration": 7, "velocity": 100}, {"time": 1649, "pitch": 69, "duration": 4, "velocity": 95}, {"time": 1652, "pitch": 61, "duration": 4, "velocity": 85}, {"time": 1658, "pitch": 42, "duration": 15, "velocity": 93}, {"time": 1658, "pitch": 57, "duration": 3, "velocity": 82}, {"time": 1658, "pitch": 61, "duration": 6, "velocity": 87}, {"time": 1661, "pitch": 49, "duration": 12, "velocity": 79}, {"time": 1664, "pitch": 57, "duration": 7, "velocity": 84}, {"time": 1667, "pitch": 61, "duration": 6, "velocity": 94}, {"time": 1673, "pitch": 66, "duration": 6, "velocity": 95}, {"time": 1676, "pitch": 57, "duration": 3, "velocity": 87}, {"time": 1679, "pitch": 61, "duration": 1, "velocity": 90}, {"time": 1682, "pitch": 47, "duration": 15, "velocity": 93}, {"time": 1682, "pitch": 59, "duration": 7, "velocity": 86}, {"time": 1682, "pitch": 62, "duration": 7, "velocity": 91}, {"time": 1688, "pitch": 54, "duration": 7, "velocity": 76}, {"time": 1694, "pitch": 59, "duration": 2, "velocity": 88}, {"time": 1694, "pitch": 62, "duration": 5, "velocity": 92}, {"time": 1694, "pitch": 66, "duration": 4, "velocity": 88}, {"time": 1706, "pitch": 40, "duration": 21, "velocity": 94}, {"time": 1706, "pitch": 67, "duration": 5, "velocity": 89}, {"time": 1709, "pitch": 47, "duration": 16, "velocity": 78}, {"time": 1712, "pitch": 59, "duration": 8, "velocity": 92}, {"time": 1715, "pitch": 64, "duration": 5, "velocity": 94}, {"time": 1721, "pitch": 67, "duration": 5, "velocity": 94}, {"time": 1724, "pitch": 59, "duration": 2, "velocity": 92}, {"time": 1730, "pitch": 45, "duration": 22, "velocity": 88}, {"time": 1730, "pitch": 57, "duration": 3, "velocity": 84}, {"time": 1730, "pitch": 64, "duration": 9, "velocity": 87}, {"time": 1733, "pitch": 52, "duration": 18, "velocity": 82}, {"time": 1736, "pitch": 57, "duration": 8, "velocity": 92}, {"time": 1739, "pitch": 61, "duration": 7, "velocity": 94}, {"time": 1745, "pitch": 69, "duration": 7, "velocity": 94}, {"time": 1748, "pitch": 57, "duration": 3, "velocity": 93}, {"time": 1754, "pitch": 43, "duration": 18, "velocity": 94}, {"time": 1754, "pitch": 59, "duration": 5, "velocity": 88}, {"time": 1754, "pitch": 62, "duration": 6, "velocity": 90}, {"time": 1754, "pitch": 67, "duration": 8, "velocity": 91}, {"time": 1760, "pitch": 50, "duration": 11, "velocity": 76}, {"time": 1763, "pitch": 59, "duration": 1, "velocity": 94}, {"time": 1766, "pitch": 62, "duration": 3, "velocity": 86}, {"time": 1766, "pitch": 66, "duration": 3, "velocity": 94}, {"time": 1772, "pitch": 64, "duration": 5, "velocity": 95}, {"time": 1778, "pitch": 38, "duration": 1, "velocity": 97}, {"time": 1778, "pitch": 62, "duration": 9, "velocity": 91}, {"time": 1784, "pitch": 50, "duration": 18, "velocity": 93}, {"time": 1787, "pitch": 57, "duration": 15, "velocity": 93}, {"time": 1790, "pitch": 62, "duration": 3, "velocity": 91}, {"time": 1793, "pitch": 64, "duration": 2, "velocity": 91}, {"time": 1796, "pitch": 66, "duration": 4, "velocity": 92}, {"time": 1802, "pitch": 36, "duration": 3, "velocity": 93}, {"time": 1802, "pitch": 55, "duration": 3, "velocity": 89}, {"time": 1802, "pitch": 60, "duration": 3, "velocity": 93}, {"time": 1802, "pitch": 64, "duration": 3, "velocity": 95}, {"time": 1808, "pitch": 36, "duration": 2, "velocity": 80}, {"time": 1808, "pitch": 64, "duration": 3, "velocity": 91}, {"time": 1811, "pitch": 55, "duration": 2, "velocity": 86}, {"time": 1814, "pitch": 36, "duration": 2, "velocity": 89}, {"time": 1814, "pitch": 60, "duration": 2, "velocity": 94}, {"time": 1814, "pitch": 64, "duration": 3, "velocity": 99}, {"time": 1817, "pitch": 55, "duration": 1, "velocity": 80}, {"time": 1820, "pitch": 60, "duration": 2, "velocity": 92}, {"time": 1823, "pitch": 55, "duration": 1, "velocity": 93}, {"time": 1826, "pitch": 36, "duration": 3, "velocity": 92}, {"time": 1826, "pitch": 60, "duration": 2, "velocity": 94}, {"time": 1826, "pitch": 64, "duration": 2, "velocity": 95}, {"time": 1829, "pitch": 55, "duration": 1, "velocity": 84}, {"time": 1832, "pitch": 60, "duration": 3, "velocity": 85}, {"time": 1835, "pitch": 55, "duration": 1, "velocity": 88}, {"time": 1838, "pitch": 36, "duration": 1, "velocity": 92}, {"time": 1838, "pitch": 60, "duration": 2, "velocity": 98}, {"time": 1838, "pitch": 64, "duration": 2, "velocity": 102}, {"time": 1841, "pitch": 55, "duration": 2, "velocity": 94}, {"time": 1844, "pitch": 60, "duration": 2, "velocity": 96}, {"time": 1847, "pitch": 55, "duration": 1, "velocity": 89}, {"time": 1850, "pitch": 47, "duration": 10, "velocity": 94}, {"time": 1850, "pitch": 62, "duration": 3, "velocity": 86}, {"time": 1850, "pitch": 66, "duration": 3, "velocity": 80}, {"time": 1853, "pitch": 59, "duration": 2, "velocity": 85}, {"time": 1856, "pitch": 62, "duration": 2, "velocity": 88}, {"time": 1859, "pitch": 59, "duration": 1, "velocity": 86}, {"time": 1862, "pitch": 47, "duration": 7, "velocity": 80}, {"time": 1862, "pitch": 54, "duration": 7, "velocity": 93}, {"time": 1862, "pitch": 59, "duration": 1, "velocity": 93}, {"time": 1862, "pitch": 62, "duration": 3, "velocity": 95}, {"time": 1862, "pitch": 66, "duration": 4, "velocity": 93}, {"time": 1865, "pitch": 59, "duration": 1, "velocity": 89}, {"time": 1868, "pitch": 62, "duration": 2, "velocity": 87}, {"time": 1871, "pitch": 59, "duration": 1, "velocity": 82}, {"time": 1874, "pitch": 47, "duration": 10, "velocity": 94}, {"time": 1874, "pitch": 59, "duration": 2, "velocity": 88}, {"time": 1874, "pitch": 62, "duration": 4, "velocity": 94}, {"time": 1874, "pitch": 66, "duration": 3, "velocity": 93}, {"time": 1877, "pitch": 54, "duration": 6, "velocity": 73}, {"time": 1877, "pitch": 59, "duration": 1, "velocity": 84}, {"time": 1880, "pitch": 62, "duration": 3, "velocity": 87}, {"time": 1883, "pitch": 59, "duration": 1, "velocity": 78}, {"time": 1886, "pitch": 47, "duration": 4, "velocity": 93}, {"time": 1886, "pitch": 54, "duration": 3, "velocity": 95}, {"time": 1886, "pitch": 59, "duration": 1, "velocity": 83}, {"time": 1886, "pitch": 62, "duration": 3, "velocity": 94}, {"time": 1886, "pitch": 66, "duration": 4, "velocity": 95}, {"time": 1889, "pitch": 59, "duration": 1, "velocity": 89}, {"time": 1892, "pitch": 62, "duration": 3, "velocity": 93}, {"time": 1892, "pitch": 66, "duration": 2, "velocity": 90}, {"time": 1895, "pitch": 59, "duration": 1, "velocity": 89}, {"time": 1898, "pitch": 45, "duration": 20, "velocity": 92}, {"time": 1898, "pitch": 60, "duration": 3, "velocity": 95}, {"time": 1898, "pitch": 67, "duration": 9, "velocity": 90}, {"time": 1901, "pitch": 57, "duration": 3, "velocity": 92}, {"time": 1904, "pitch": 52, "duration": 11, "velocity": 87}, {"time": 1904, "pitch": 60, "duration": 4, "velocity": 92}, {"time": 1907, "pitch": 57, "duration": 4, "velocity": 94}, {"time": 1910, "pitch": 60, "duration": 3, "velocity": 98}, {"time": 1910, "pitch": 67, "duration": 9, "velocity": 94}, {"time": 1913, "pitch": 57, "duration": 3, "velocity": 95}, {"time": 1916, "pitch": 60, "duration": 2, "velocity": 94}, {"time": 1919, "pitch": 57, "duration": 1, "velocity": 88}, {"time": 1922, "pitch": 50, "duration": 10, "velocity": 93}, {"time": 1922, "pitch": 57, "duration": 1, "velocity": 70}, {"time": 1922, "pitch": 62, "duration": 2, "velocity": 87}, {"time": 1922, "pitch": 66, "duration": 7, "velocity": 95}, {"time": 1925, "pitch": 57, "duration": 3, "velocity": 92}, {"time": 1928, "pitch": 60, "duration": 3, "velocity": 89}, {"time": 1931, "pitch": 57, "duration": 1, "velocity": 87}, {"time": 1934, "pitch": 50, "duration": 9, "velocity": 100}, {"time": 1934, "pitch": 57, "duration": 1, "velocity": 93}, {"time": 1934, "pitch": 60, "duration": 2, "velocity": 109}, {"time": 1934, "pitch": 66, "duration": 4, "velocity": 98}, {"time": 1937, "pitch": 57, "duration": 2, "velocity": 94}, {"time": 1940, "pitch": 60, "duration": 2, "velocity": 94}, {"time": 1943, "pitch": 57, "duration": 1, "velocity": 95}, {"time": 1946, "pitch": 43, "duration": 14, "velocity": 95}, {"time": 1946, "pitch": 55, "duration": 3, "velocity": 93}, {"time": 1946, "pitch": 59, "duration": 3, "velocity": 94}, {"time": 1949, "pitch": 50, "duration": 10, "velocity": 86}, {"time": 1952, "pitch": 55, "duration": 1, "velocity": 94}, {"time": 1958, "pitch": 55, "duration": 1, "velocity": 93}, {"time": 1958, "pitch": 59, "duration": 1, "velocity": 97}, {"time": 1958, "pitch": 62, "duration": 1, "velocity": 94}, {"time": 1961, "pitch": 55, "duration": 2, "velocity": 98}, {"time": 1961, "pitch": 59, "duration": 2, "velocity": 102}, {"time": 1961, "pitch": 62, "duration": 2, "velocity": 100}, {"time": 1961, "pitch": 67, "duration": 3, "velocity": 95}, {"time": 1964, "pitch": 50, "duration": 1, "velocity": 93}, {"time": 1967, "pitch": 55, "duration": 4, "velocity": 95}, {"time": 1967, "pitch": 59, "duration": 1, "velocity": 72}, {"time": 1967, "pitch": 62, "duration": 1, "velocity": 82}, {"time": 1973, "pitch": 59, "duration": 2, "velocity": 93}, {"time": 1973, "pitch": 62, "duration": 2, "velocity": 93}, {"time": 1973, "pitch": 67, "duration": 2, "velocity": 89}, {"time": 1976, "pitch": 43, "duration": 10, "velocity": 94}, {"time": 1979, "pitch": 55, "duration": 1, "velocity": 99}, {"time": 1979, "pitch": 59, "duration": 1, "velocity": 70}, {"time": 1979, "pitch": 62, "duration": 1, "velocity": 71}, {"time": 1982, "pitch": 55, "duration": 2, "velocity": 97}, {"time": 1982, "pitch": 59, "duration": 3, "velocity": 102}, {"time": 1982, "pitch": 62, "duration": 3, "velocity": 102}, {"time": 1982, "pitch": 67, "duration": 3, "velocity": 94}, {"time": 1985, "pitch": 50, "duration": 5, "velocity": 93}, {"time": 1988, "pitch": 55, "duration": 3, "velocity": 94}, {"time": 1991, "pitch": 59, "duration": 1, "velocity": 94}, {"time": 1991, "pitch": 62, "duration": 1, "velocity": 89}, {"time": 1994, "pitch": 46, "duration": 10, "velocity": 97}, {"time": 1994, "pitch": 58, "duration": 2, "velocity": 86}, {"time": 1994, "pitch": 62, "duration": 2, "velocity": 93}, {"time": 1994, "pitch": 65, "duration": 3, "velocity": 94}, {"time": 2000, "pitch": 53, "duration": 3, "velocity": 76}, {"time": 2003, "pitch": 65, "duration": 1, "velocity": 88}, {"time": 2003, "pitch": 70, "duration": 1, "velocity": 94}, {"time": 2006, "pitch": 46, "duration": 1, "velocity": 91}, {"time": 2006, "pitch": 53, "duration": 5, "velocity": 95}, {"time": 2006, "pitch": 65, "duration": 2, "velocity": 94}, {"time": 2006, "pitch": 70, "duration": 2, "velocity": 100}, {"time": 2012, "pitch": 46, "duration": 1, "velocity": 95}, {"time": 2015, "pitch": 60, "duration": 1, "velocity": 94}, {"time": 2018, "pitch": 48, "duration": 16, "velocity": 99}, {"time": 2018, "pitch": 60, "duration": 2, "velocity": 96}, {"time": 2018, "pitch": 64, "duration": 3, "velocity": 109}, {"time": 2021, "pitch": 55, "duration": 6, "velocity": 90}, {"time": 2024, "pitch": 60, "duration": 1, "velocity": 93}, {"time": 2027, "pitch": 60, "duration": 3, "velocity": 98}, {"time": 2027, "pitch": 64, "duration": 3, "velocity": 107}, {"time": 2027, "pitch": 67, "duration": 3, "velocity": 96}, {"time": 2030, "pitch": 55, "duration": 4, "velocity": 95}, {"time": 2033, "pitch": 60, "duration": 1, "velocity": 94}, {"time": 2033, "pitch": 64, "duration": 4, "velocity": 100}, {"time": 2033, "pitch": 67, "duration": 7, "velocity": 93}, {"time": 2039, "pitch": 60, "duration": 2, "velocity": 102}, {"time": 2042, "pitch": 41, "duration": 15, "velocity": 95}, {"time": 2045, "pitch": 48, "duration": 7, "velocity": 92}, {"time": 2048, "pitch": 53, "duration": 1, "velocity": 99}, {"time": 2051, "pitch": 53, "duration": 2, "velocity": 97}, {"time": 2051, "pitch": 57, "duration": 2, "velocity": 97}, {"time": 2051, "pitch": 60, "duration": 2, "velocity": 98}, {"time": 2054, "pitch": 48, "duration": 3, "velocity": 93}, {"time": 2057, "pitch": 53, "duration": 2, "velocity": 96}, {"time": 2057, "pitch": 65, "duration": 3, "velocity": 94}, {"time": 2060, "pitch": 41, "duration": 3, "velocity": 93}, {"time": 2063, "pitch": 53, "duration": 1, "velocity": 83}, {"time": 2063, "pitch": 57, "duration": 1, "velocity": 88}, {"time": 2063, "pitch": 60, "duration": 1, "velocity": 93}, {"time": 2066, "pitch": 41, "duration": 15, "velocity": 95}, {"time": 2066, "pitch": 53, "duration": 3, "velocity": 95}, {"time": 2066, "pitch": 57, "duration": 3, "velocity": 95}, {"time": 2066, "pitch": 60, "duration": 3, "velocity": 96}, {"time": 2069, "pitch": 48, "duration": 6, "velocity": 94}, {"time": 2072, "pitch": 53, "duration": 1, "velocity": 94}, {"time": 2075, "pitch": 53, "duration": 3, "velocity": 95}, {"time": 2075, "pitch": 57, "duration": 2, "velocity": 98}, {"time": 2075, "pitch": 65, "duration": 3, "velocity": 94}, {"time": 2078, "pitch": 48, "duration": 4, "velocity": 94}, {"time": 2081, "pitch": 53, "duration": 1, "velocity": 95}, {"time": 2081, "pitch": 57, "duration": 1, "velocity": 98}, {"time": 2081, "pitch": 65, "duration": 2, "velocity": 94}, {"time": 2084, "pitch": 41, "duration": 1, "velocity": 93}, {"time": 2090, "pitch": 40, "duration": 15, "velocity": 95}, {"time": 2090, "pitch": 59, "duration": 1, "velocity": 91}, {"time": 2090, "pitch": 67, "duration": 3, "velocity": 90}, {"time": 2093, "pitch": 59, "duration": 1, "velocity": 89}, {"time": 2096, "pitch": 64, "duration": 1, "velocity": 95}, {"time": 2099, "pitch": 59, "duration": 1, "velocity": 93}, {"time": 2102, "pitch": 47, "duration": 3, "velocity": 94}, {"time": 2102, "pitch": 59, "duration": 1, "velocity": 98}, {"time": 2102, "pitch": 64, "duration": 1, "velocity": 109}, {"time": 2102, "pitch": 67, "duration": 3, "velocity": 100}, {"time": 2105, "pitch": 59, "duration": 1, "velocity": 92}, {"time": 2108, "pitch": 64, "duration": 1, "velocity": 94}, {"time": 2111, "pitch": 59, "duration": 1, "velocity": 93}, {"time": 2114, "pitch": 40, "duration": 10, "velocity": 98}, {"time": 2114, "pitch": 59, "duration": 1, "velocity": 96}, {"time": 2114, "pitch": 67, "duration": 3, "velocity": 95}, {"time": 2117, "pitch": 59, "duration": 2, "velocity": 94}, {"time": 2120, "pitch": 64, "duration": 3, "velocity": 92}, {"time": 2123, "pitch": 59, "duration": 1, "velocity": 87}, {"time": 2126, "pitch": 40, "duration": 3, "velocity": 97}, {"time": 2126, "pitch": 47, "duration": 3, "velocity": 93}, {"time": 2126, "pitch": 59, "duration": 1, "velocity": 91}, {"time": 2126, "pitch": 64, "duration": 3, "velocity": 100}, {"time": 2129, "pitch": 59, "duration": 2, "velocity": 94}, {"time": 2132, "pitch": 64, "duration": 2, "velocity": 93}, {"time": 2138, "pitch": 45, "duration": 16, "velocity": 94}, {"time": 2138, "pitch": 64, "duration": 2, "velocity": 92}, {"time": 2138, "pitch": 69, "duration": 4, "velocity": 93}, {"time": 2144, "pitch": 52, "duration": 9, "velocity": 97}, {"time": 2147, "pitch": 64, "duration": 1, "velocity": 95}, {"time": 2153, "pitch": 64, "duration": 1, "velocity": 99}, {"time": 2153, "pitch": 69, "duration": 1, "velocity": 97}, {"time": 2156, "pitch": 52, "duration": 1, "velocity": 76}, {"time": 2159, "pitch": 57, "duration": 1, "velocity": 94}, {"time": 2162, "pitch": 45, "duration": 16, "velocity": 95}, {"time": 2162, "pitch": 57, "duration": 2, "velocity": 86}, {"time": 2162, "pitch": 61, "duration": 2, "velocity": 82}, {"time": 2162, "pitch": 69, "duration": 2, "velocity": 94}, {"time": 2165, "pitch": 52, "duration": 6, "velocity": 92}, {"time": 2168, "pitch": 57, "duration": 1, "velocity": 86}, {"time": 2171, "pitch": 57, "duration": 2, "velocity": 92}, {"time": 2171, "pitch": 61, "duration": 2, "velocity": 96}, {"time": 2171, "pitch": 64, "duration": 2, "velocity": 95}, {"time": 2174, "pitch": 52, "duration": 3, "velocity": 93}, {"time": 2177, "pitch": 57, "duration": 1, "velocity": 93}, {"time": 2177, "pitch": 61, "duration": 9, "velocity": 100}, {"time": 2177, "pitch": 64, "duration": 9, "velocity": 98}, {"time": 2177, "pitch": 69, "duration": 9, "velocity": 93}, {"time": 2180, "pitch": 57, "duration": 5, "velocity": 81}, {"time": 2186, "pitch": 47, "duration": 10, "velocity": 95}, {"time": 2186, "pitch": 59, "duration": 2, "velocity": 87}, {"time": 2186, "pitch": 62, "duration": 2, "velocity": 86}, {"time": 2186, "pitch": 66, "duration": 3, "velocity": 81}, {"time": 2192, "pitch": 59, "duration": 1, "velocity": 88}, {"time": 2192, "pitch": 62, "duration": 1, "velocity": 91}, {"time": 2192, "pitch": 66, "duration": 1, "velocity": 88}, {"time": 2198, "pitch": 47, "duration": 2, "velocity": 83}, {"time": 2198, "pitch": 54, "duration": 1, "velocity": 97}, {"time": 2198, "pitch": 59, "duration": 1, "velocity": 96}, {"time": 2198, "pitch": 62, "duration": 1, "velocity": 96}, {"time": 2198, "pitch": 66, "duration": 1, "velocity": 94}, {"time": 2204, "pitch": 47, "duration": 2, "velocity": 83}, {"time": 2204, "pitch": 54, "duration": 1, "velocity": 82}, {"time": 2204, "pitch": 59, "duration": 1, "velocity": 69}, {"time": 2204, "pitch": 62, "duration": 1, "velocity": 82}, {"time": 2204, "pitch": 66, "duration": 1, "velocity": 81}, {"time": 2210, "pitch": 47, "duration": 7, "velocity": 94}, {"time": 2210, "pitch": 59, "duration": 3, "velocity": 94}, {"time": 2210, "pitch": 62, "duration": 3, "velocity": 95}, {"time": 2210, "pitch": 66, "duration": 3, "velocity": 93}, {"time": 2216, "pitch": 59, "duration": 1, "velocity": 78}, {"time": 2216, "pitch": 62, "duration": 1, "velocity": 81}, {"time": 2216, "pitch": 66, "duration": 1, "velocity": 82}, {"time": 2222, "pitch": 47, "duration": 5, "velocity": 88}, {"time": 2222, "pitch": 54, "duration": 5, "velocity": 87}, {"time": 2222, "pitch": 59, "duration": 1, "velocity": 95}, {"time": 2222, "pitch": 62, "duration": 2, "velocity": 94}, {"time": 2222, "pitch": 66, "duration": 2, "velocity": 93}, {"time": 2225, "pitch": 59, "duration": 1, "velocity": 94}, {"time": 2225, "pitch": 62, "duration": 1, "velocity": 94}, {"time": 2225, "pitch": 66, "duration": 2, "velocity": 95}, {"time": 2234, "pitch": 42, "duration": 9, "velocity": 95}, {"time": 2234, "pitch": 57, "duration": 3, "velocity": 87}, {"time": 2234, "pitch": 61, "duration": 3, "velocity": 84}, {"time": 2234, "pitch": 66, "duration": 3, "velocity": 87}, {"time": 2240, "pitch": 57, "duration": 1, "velocity": 85}, {"time": 2240, "pitch": 61, "duration": 1, "velocity": 87}, {"time": 2240, "pitch": 66, "duration": 1, "velocity": 81}, {"time": 2246, "pitch": 42, "duration": 2, "velocity": 94}, {"time": 2246, "pitch": 49, "duration": 2, "velocity": 82}, {"time": 2246, "pitch": 57, "duration": 1, "velocity": 94}, {"time": 2246, "pitch": 61, "duration": 1, "velocity": 98}, {"time": 2246, "pitch": 66, "duration": 2, "velocity": 89}, {"time": 2252, "pitch": 57, "duration": 1, "velocity": 77}, {"time": 2252, "pitch": 61, "duration": 1, "velocity": 85}, {"time": 2252, "pitch": 66, "duration": 2, "velocity": 80}, {"time": 2258, "pitch": 42, "duration": 8, "velocity": 86}, {"time": 2258, "pitch": 57, "duration": 3, "velocity": 84}, {"time": 2258, "pitch": 61, "duration": 3, "velocity": 93}, {"time": 2258, "pitch": 66, "duration": 3, "velocity": 86}, {"time": 2264, "pitch": 57, "duration": 2, "velocity": 86}, {"time": 2264, "pitch": 61, "duration": 2, "velocity": 91}, {"time": 2264, "pitch": 66, "duration": 2, "velocity": 86}, {"time": 2270, "pitch": 42, "duration": 1, "velocity": 89}, {"time": 2270, "pitch": 57, "duration": 1, "velocity": 84}, {"time": 2270, "pitch": 61, "duration": 1, "velocity": 91}, {"time": 2270, "pitch": 66, "duration": 1, "velocity": 85}, {"time": 2273, "pitch": 42, "duration": 1, "velocity": 95}, {"time": 2273, "pitch": 57, "duration": 2, "velocity": 93}, {"time": 2273, "pitch": 61, "duration": 1, "velocity": 102}, {"time": 2273, "pitch": 66, "duration": 2, "velocity": 97}, {"time": 2282, "pitch": 55, "duration": 2, "velocity": 87}, {"time": 2282, "pitch": 59, "duration": 3, "velocity": 85}, {"time": 2282, "pitch": 62, "duration": 3, "velocity": 92}, {"time": 2282, "pitch": 43, "duration": 17, "velocity": 94}, {"time": 2288, "pitch": 55, "duration": 2, "velocity": 85}, {"time": 2294, "pitch": 55, "duration": 1, "velocity": 95}, {"time": 2294, "pitch": 62, "duration": 2, "velocity": 94}, {"time": 2300, "pitch": 43, "duration": 2, "velocity": 100}, {"time": 2300, "pitch": 55, "duration": 1, "velocity": 85}, {"time": 2300, "pitch": 59, "duration": 1, "velocity": 93}, {"time": 2302, "pitch": 45, "duration": 3, "velocity": 100}, {"time": 2303, "pitch": 55, "duration": 1, "velocity": 80}, {"time": 2306, "pitch": 62, "duration": 4, "velocity": 94}, {"time": 2306, "pitch": 65, "duration": 4, "velocity": 94}, {"time": 2306, "pitch": 70, "duration": 4, "velocity": 87}, {"time": 2306, "pitch": 46, "duration": 4, "velocity": 94}, {"time": 2312, "pitch": 45, "duration": 3, "velocity": 84}, {"time": 2312, "pitch": 62, "duration": 3, "velocity": 89}, {"time": 2312, "pitch": 65, "duration": 3, "velocity": 88}, {"time": 2312, "pitch": 69, "duration": 3, "velocity": 87}, {"time": 2318, "pitch": 67, "duration": 9, "velocity": 87}, {"time": 2318, "pitch": 43, "duration": 5, "velocity": 99}, {"time": 2318, "pitch": 58, "duration": 11, "velocity": 86}, {"time": 2318, "pitch": 62, "duration": 11, "velocity": 91}, {"time": 2318, "pitch": 70, "duration": 10, "velocity": 87}, {"time": 2324, "pitch": 40, "duration": 5, "velocity": 97}, {"time": 2330, "pitch": 45, "duration": 19, "velocity": 89}, {"time": 2330, "pitch": 57, "duration": 6, "velocity": 81}, {"time": 2330, "pitch": 64, "duration": 7, "velocity": 85}, {"time": 2336, "pitch": 52, "duration": 7, "velocity": 84}, {"time": 2342, "pitch": 52, "duration": 1, "velocity": 86}, {"time": 2342, "pitch": 57, "duration": 3, "velocity": 86}, {"time": 2342, "pitch": 61, "duration": 4, "velocity": 90}, {"time": 2342, "pitch": 64, "duration": 4, "velocity": 90}, {"time": 2348, "pitch": 57, "duration": 3, "velocity": 86}, {"time": 2354, "pitch": 45, "duration": 20, "velocity": 86}, {"time": 2354, "pitch": 57, "duration": 7, "velocity": 84}, {"time": 2354, "pitch": 61, "duration": 6, "velocity": 85}, {"time": 2354, "pitch": 64, "duration": 7, "velocity": 85}, {"time": 2360, "pitch": 52, "duration": 13, "velocity": 76}, {"time": 2366, "pitch": 57, "duration": 3, "velocity": 85}, {"time": 2366, "pitch": 61, "duration": 4, "velocity": 87}, {"time": 2366, "pitch": 64, "duration": 5, "velocity": 88}, {"time": 2366, "pitch": 69, "duration": 3, "velocity": 80}, {"time": 2372, "pitch": 57, "duration": 3, "velocity": 85}, {"time": 2378, "pitch": 45, "duration": 4, "velocity": 86}, {"time": 2378, "pitch": 57, "duration": 3, "velocity": 82}, {"time": 2378, "pitch": 61, "duration": 3, "velocity": 77}, {"time": 2378, "pitch": 64, "duration": 3, "velocity": 84}, {"time": 2384, "pitch": 45, "duration": 3, "velocity": 97}, {"time": 2384, "pitch": 61, "duration": 2, "velocity": 73}, {"time": 2384, "pitch": 64, "duration": 3, "velocity": 82}, {"time": 2390, "pitch": 45, "duration": 3, "velocity": 97}, {"time": 2390, "pitch": 57, "duration": 3, "velocity": 85}, {"time": 2390, "pitch": 61, "duration": 7, "velocity": 85}, {"time": 2390, "pitch": 64, "duration": 7, "velocity": 86}, {"time": 2396, "pitch": 45, "duration": 3, "velocity": 97}, {"time": 2402, "pitch": 45, "duration": 15, "velocity": 85}, {"time": 2402, "pitch": 57, "duration": 3, "velocity": 85}, {"time": 2402, "pitch": 61, "duration": 7, "velocity": 79}, {"time": 2402, "pitch": 64, "duration": 7, "velocity": 84}, {"time": 2402, "pitch": 69, "duration": 5, "velocity": 77}, {"time": 2414, "pitch": 57, "duration": 9, "velocity": 86}, {"time": 2414, "pitch": 61, "duration": 9, "velocity": 88}, {"time": 2414, "pitch": 64, "duration": 9, "velocity": 85}, {"time": 2414, "pitch": 69, "duration": 9, "velocity": 81}, {"time": 2426, "pitch": 43, "duration": 23, "velocity": 92}, {"time": 2426, "pitch": 55, "duration": 8, "velocity": 89}, {"time": 2426, "pitch": 62, "duration": 7, "velocity": 87}, {"time": 2432, "pitch": 50, "duration": 7, "velocity": 75}, {"time": 2438, "pitch": 55, "duration": 3, "velocity": 93}, {"time": 2438, "pitch": 59, "duration": 4, "velocity": 96}, {"time": 2438, "pitch": 62, "duration": 6, "velocity": 92}, {"time": 2444, "pitch": 50, "duration": 7, "velocity": 87}, {"time": 2444, "pitch": 55, "duration": 3, "velocity": 91}, {"time": 2450, "pitch": 43, "duration": 17, "velocity": 90}, {"time": 2450, "pitch": 57, "duration": 4, "velocity": 88}, {"time": 2450, "pitch": 61, "duration": 7, "velocity": 91}, {"time": 2450, "pitch": 64, "duration": 7, "velocity": 91}, {"time": 2456, "pitch": 57, "duration": 3, "velocity": 82}, {"time": 2462, "pitch": 57, "duration": 2, "velocity": 89}, {"time": 2462, "pitch": 61, "duration": 6, "velocity": 89}, {"time": 2462, "pitch": 64, "duration": 5, "velocity": 89}, {"time": 2468, "pitch": 57, "duration": 4, "velocity": 83}, {"time": 2474, "pitch": 42, "duration": 15, "velocity": 90}, {"time": 2474, "pitch": 57, "duration": 5, "velocity": 88}, {"time": 2474, "pitch": 61, "duration": 9, "velocity": 89}, {"time": 2480, "pitch": 49, "duration": 10, "velocity": 77}, {"time": 2480, "pitch": 57, "duration": 1, "velocity": 82}, {"time": 2486, "pitch": 57, "duration": 3, "velocity": 91}, {"time": 2486, "pitch": 61, "duration": 5, "velocity": 95}, {"time": 2486, "pitch": 66, "duration": 9, "velocity": 88}, {"time": 2492, "pitch": 57, "duration": 2, "velocity": 92}, {"time": 2498, "pitch": 47, "duration": 16, "velocity": 91}, {"time": 2498, "pitch": 59, "duration": 8, "velocity": 89}, {"time": 2498, "pitch": 62, "duration": 8, "velocity": 89}, {"time": 2504, "pitch": 54, "duration": 6, "velocity": 79}, {"time": 2510, "pitch": 59, "duration": 3, "velocity": 93}, {"time": 2510, "pitch": 62, "duration": 4, "velocity": 98}, {"time": 2510, "pitch": 66, "duration": 7, "velocity": 96}, {"time": 2516, "pitch": 54, "duration": 2, "velocity": 88}, {"time": 2516, "pitch": 59, "duration": 3, "velocity": 92}, {"time": 2522, "pitch": 40, "duration": 17, "velocity": 93}, {"time": 2522, "pitch": 59, "duration": 8, "velocity": 90}, {"time": 2522, "pitch": 64, "duration": 8, "velocity": 90}, {"time": 2528, "pitch": 47, "duration": 11, "velocity": 76}, {"time": 2534, "pitch": 64, "duration": 5, "velocity": 97}, {"time": 2534, "pitch": 59, "duration": 3, "velocity": 92}, {"time": 2534, "pitch": 67, "duration": 5, "velocity": 90}, {"time": 2540, "pitch": 59, "duration": 1, "velocity": 88}, {"time": 2546, "pitch": 45, "duration": 16, "velocity": 91}, {"time": 2546, "pitch": 57, "duration": 5, "velocity": 83}, {"time": 2546, "pitch": 64, "duration": 7, "velocity": 89}, {"time": 2552, "pitch": 52, "duration": 6, "velocity": 81}, {"time": 2552, "pitch": 57, "duration": 1, "velocity": 88}, {"time": 2558, "pitch": 52, "duration": 1, "velocity": 91}, {"time": 2558, "pitch": 57, "duration": 3, "velocity": 95}, {"time": 2558, "pitch": 61, "duration": 4, "velocity": 96}, {"time": 2564, "pitch": 57, "duration": 4, "velocity": 93}, {"time": 2564, "pitch": 61, "duration": 2, "velocity": 90}, {"time": 2570, "pitch": 50, "duration": 7, "velocity": 98}, {"time": 2570, "pitch": 57, "duration": 4, "velocity": 93}, {"time": 2578, "pitch": 50, "duration": 3, "velocity": 95}, {"time": 2578, "pitch": 69, "duration": 5, "velocity": 97}, {"time": 2579, "pitch": 66, "duration": 6, "velocity": 97}, {"time": 2588, "pitch": 62, "duration": 4, "velocity": 97}, {"time": 2588, "pitch": 66, "duration": 4, "velocity": 95}, {"time": 2588, "pitch": 57, "duration": 1, "velocity": 86}, {"time": 2594, "pitch": 38, "duration": 14, "velocity": 98}, {"time": 2594, "pitch": 57, "duration": 3, "velocity": 88}, {"time": 2594, "pitch": 60, "duration": 6, "velocity": 93}, {"time": 2594, "pitch": 66, "duration": 7, "velocity": 96}, {"time": 2600, "pitch": 57, "duration": 1, "velocity": 85}, {"time": 2603, "pitch": 57, "duration": 3, "velocity": 94}, {"time": 2603, "pitch": 60, "duration": 3, "velocity": 100}, {"time": 2603, "pitch": 66, "duration": 7, "velocity": 96}, {"time": 2606, "pitch": 45, "duration": 3, "velocity": 94}, {"time": 2609, "pitch": 57, "duration": 2, "velocity": 97}, {"time": 2612, "pitch": 62, "duration": 1, "velocity": 82}, {"time": 2618, "pitch": 43, "duration": 23, "velocity": 89}, {"time": 2618, "pitch": 55, "duration": 9, "velocity": 85}, {"time": 2618, "pitch": 62, "duration": 9, "velocity": 85}, {"time": 2624, "pitch": 50, "duration": 6, "velocity": 79}, {"time": 2630, "pitch": 55, "duration": 3, "velocity": 89}, {"time": 2630, "pitch": 62, "duration": 5, "velocity": 87}, {"time": 2636, "pitch": 50, "duration": 8, "velocity": 88}, {"time": 2642, "pitch": 43, "duration": 15, "velocity": 86}, {"time": 2642, "pitch": 55, "duration": 7, "velocity": 90}, {"time": 2642, "pitch": 62, "duration": 8, "velocity": 87}, {"time": 2648, "pitch": 50, "duration": 5, "velocity": 97}, {"time": 2654, "pitch": 57, "duration": 6, "velocity": 89}, {"time": 2654, "pitch": 61, "duration": 8, "velocity": 88}, {"time": 2660, "pitch": 43, "duration": 2, "velocity": 88}, {"time": 2660, "pitch": 57, "duration": 1, "velocity": 86}, {"time": 2666, "pitch": 42, "duration": 15, "velocity": 94}, {"time": 2666, "pitch": 57, "duration": 5, "velocity": 85}, {"time": 2666, "pitch": 61, "duration": 4, "velocity": 81}, {"time": 2672, "pitch": 49, "duration": 7, "velocity": 78}, {"time": 2672, "pitch": 57, "duration": 1, "velocity": 85}, {"time": 2678, "pitch": 49, "duration": 1, "velocity": 70}, {"time": 2678, "pitch": 57, "duration": 4, "velocity": 87}, {"time": 2678, "pitch": 61, "duration": 4, "velocity": 92}, {"time": 2678, "pitch": 66, "duration": 7, "velocity": 86}, {"time": 2684, "pitch": 42, "duration": 1, "velocity": 86}, {"time": 2684, "pitch": 57, "duration": 2, "velocity": 85}, {"time": 2690, "pitch": 47, "duration": 14, "velocity": 88}, {"time": 2690, "pitch": 59, "duration": 7, "velocity": 86}, {"time": 2690, "pitch": 62, "duration": 7, "velocity": 86}, {"time": 2696, "pitch": 54, "duration": 7, "velocity": 81}, {"time": 2702, "pitch": 59, "duration": 4, "velocity": 87}, {"time": 2702, "pitch": 62, "duration": 5, "velocity": 91}, {"time": 2702, "pitch": 66, "duration": 5, "velocity": 90}, {"time": 2714, "pitch": 40, "duration": 17, "velocity": 87}, {"time": 2714, "pitch": 59, "duration": 8, "velocity": 83}, {"time": 2714, "pitch": 64, "duration": 9, "velocity": 86}, {"time": 2720, "pitch": 47, "duration": 10, "velocity": 76}, {"time": 2726, "pitch": 59, "duration": 4, "velocity": 94}, {"time": 2726, "pitch": 64, "duration": 3, "velocity": 86}, {"time": 2726, "pitch": 67, "duration": 3, "velocity": 85}, {"time": 2738, "pitch": 45, "duration": 21, "velocity": 89}, {"time": 2738, "pitch": 67, "duration": 8, "velocity": 85}, {"time": 2744, "pitch": 52, "duration": 14, "velocity": 82}, {"time": 2750, "pitch": 57, "duration": 4, "velocity": 79}, {"time": 2750, "pitch": 61, "duration": 5, "velocity": 86}, {"time": 2750, "pitch": 67, "duration": 6, "velocity": 97}, {"time": 2756, "pitch": 57, "duration": 4, "velocity": 79}, {"time": 2762, "pitch": 38, "duration": 15, "velocity": 92}, {"time": 2762, "pitch": 62, "duration": 3, "velocity": 87}, {"time": 2762, "pitch": 67, "duration": 7, "velocity": 86}, {"time": 2768, "pitch": 62, "duration": 2, "velocity": 84}, {"time": 2774, "pitch": 62, "duration": 1, "velocity": 87}, {"time": 2774, "pitch": 67, "duration": 4, "velocity": 88}, {"time": 2780, "pitch": 62, "duration": 2, "velocity": 91}, {"time": 2786, "pitch": 38, "duration": 13, "velocity": 90}, {"time": 2786, "pitch": 62, "duration": 7, "velocity": 86}, {"time": 2786, "pitch": 66, "duration": 8, "velocity": 88}, {"time": 2798, "pitch": 62, "duration": 3, "velocity": 80}, {"time": 2798, "pitch": 66, "duration": 11, "velocity": 88}, {"time": 2798, "pitch": 69, "duration": 11, "velocity": 83}, {"time": 2804, "pitch": 62, "duration": 5, "velocity": 79}, {"time": 2810, "pitch": 50, "duration": 19, "velocity": 95}, {"time": 2816, "pitch": 57, "duration": 19, "velocity": 78}, {"time": 2819, "pitch": 62, "duration": 6, "velocity": 89}, {"time": 2825, "pitch": 64, "duration": 6, "velocity": 94}, {"time": 2831, "pitch": 66, "duration": 3, "velocity": 75}, {"time": 2834, "pitch": 49, "duration": 15, "velocity": 86}, {"time": 2834, "pitch": 64, "duration": 3, "velocity": 92}, {"time": 2840, "pitch": 57, "duration": 8, "velocity": 77}, {"time": 2846, "pitch": 61, "duration": 2, "velocity": 89}, {"time": 2846, "pitch": 64, "duration": 5, "velocity": 89}, {"time": 2858, "pitch": 47, "duration": 16, "velocity": 89}, {"time": 2858, "pitch": 59, "duration": 6, "velocity": 80}, {"time": 2858, "pitch": 62, "duration": 9, "velocity": 85}, {"time": 2864, "pitch": 54, "duration": 9, "velocity": 79}, {"time": 2867, "pitch": 59, "duration": 6, "velocity": 93}, {"time": 2873, "pitch": 66, "duration": 2, "velocity": 92}, {"time": 2882, "pitch": 45, "duration": 18, "velocity": 89}, {"time": 2882, "pitch": 57, "duration": 10, "velocity": 80}, {"time": 2882, "pitch": 61, "duration": 8, "velocity": 81}, {"time": 2882, "pitch": 64, "duration": 9, "velocity": 81}, {"time": 2888, "pitch": 52, "duration": 9, "velocity": 75}, {"time": 2894, "pitch": 61, "duration": 5, "velocity": 83}, {"time": 2894, "pitch": 64, "duration": 6, "velocity": 94}, {"time": 2894, "pitch": 69, "duration": 5, "velocity": 93}, {"time": 2900, "pitch": 57, "duration": 1, "velocity": 95}, {"time": 2906, "pitch": 43, "duration": 15, "velocity": 93}, {"time": 2906, "pitch": 55, "duration": 10, "velocity": 83}, {"time": 2906, "pitch": 59, "duration": 9, "velocity": 85}, {"time": 2912, "pitch": 50, "duration": 9, "velocity": 85}, {"time": 2915, "pitch": 62, "duration": 7, "velocity": 91}, {"time": 2921, "pitch": 67, "duration": 5, "velocity": 93}, {"time": 2924, "pitch": 55, "duration": 2, "velocity": 94}, {"time": 2930, "pitch": 42, "duration": 15, "velocity": 94}, {"time": 2933, "pitch": 49, "duration": 12, "velocity": 81}, {"time": 2936, "pitch": 54, "duration": 4, "velocity": 79}, {"time": 2939, "pitch": 57, "duration": 6, "velocity": 88}, {"time": 2945, "pitch": 61, "duration": 2, "velocity": 94}, {"time": 2954, "pitch": 40, "duration": 14, "velocity": 89}, {"time": 2957, "pitch": 47, "duration": 11, "velocity": 81}, {"time": 2960, "pitch": 52, "duration": 8, "velocity": 90}, {"time": 2963, "pitch": 59, "duration": 7, "velocity": 93}, {"time": 2969, "pitch": 64, "duration": 3, "velocity": 97}, {"time": 2972, "pitch": 52, "duration": 3, "velocity": 97}, {"time": 2975, "pitch": 64, "duration": 6, "velocity": 94}, {"time": 2978, "pitch": 45, "duration": 19, "velocity": 94}, {"time": 2981, "pitch": 52, "duration": 14, "velocity": 89}, {"time": 2984, "pitch": 57, "duration": 3, "velocity": 94}, {"time": 2987, "pitch": 59, "duration": 2, "velocity": 89}, {"time": 2990, "pitch": 61, "duration": 2, "velocity": 97}, {"time": 3002, "pitch": 43, "duration": 22, "velocity": 93}, {"time": 3002, "pitch": 62, "duration": 6, "velocity": 84}, {"time": 3002, "pitch": 67, "duration": 8, "velocity": 84}, {"time": 3008, "pitch": 50, "duration": 15, "velocity": 79}, {"time": 3011, "pitch": 62, "duration": 7, "velocity": 89}, {"time": 3017, "pitch": 67, "duration": 4, "velocity": 81}, {"time": 3023, "pitch": 62, "duration": 2, "velocity": 71}, {"time": 3026, "pitch": 45, "duration": 18, "velocity": 94}, {"time": 3029, "pitch": 52, "duration": 15, "velocity": 85}, {"time": 3032, "pitch": 57, "duration": 9, "velocity": 89}, {"time": 3035, "pitch": 61, "duration": 7, "velocity": 100}, {"time": 3041, "pitch": 69, "duration": 4, "velocity": 95}, {"time": 3044, "pitch": 61, "duration": 4, "velocity": 85}, {"time": 3050, "pitch": 42, "duration": 15, "velocity": 93}, {"time": 3050, "pitch": 57, "duration": 3, "velocity": 82}, {"time": 3050, "pitch": 61, "duration": 6, "velocity": 87}, {"time": 3053, "pitch": 49, "duration": 12, "velocity": 79}, {"time": 3056, "pitch": 57, "duration": 7, "velocity": 84}, {"time": 3059, "pitch": 61, "duration": 6, "velocity": 94}, {"time": 3065, "pitch": 66, "duration": 6, "velocity": 95}, {"time": 3068, "pitch": 57, "duration": 3, "velocity": 87}, {"time": 3071, "pitch": 61, "duration": 1, "velocity": 90}, {"time": 3074, "pitch": 47, "duration": 15, "velocity": 93}, {"time": 3074, "pitch": 59, "duration": 7, "velocity": 86}, {"time": 3074, "pitch": 62, "duration": 7, "velocity": 91}, {"time": 3080, "pitch": 54, "duration": 7, "velocity": 76}, {"time": 3086, "pitch": 59, "duration": 2, "velocity": 88}, {"time": 3086, "pitch": 66, "duration": 4, "velocity": 88}, {"time": 3098, "pitch": 40, "duration": 21, "velocity": 94}, {"time": 3101, "pitch": 47, "duration": 16, "velocity": 78}, {"time": 3104, "pitch": 59, "duration": 8, "velocity": 92}, {"time": 3107, "pitch": 64, "duration": 5, "velocity": 94}, {"time": 3113, "pitch": 67, "duration": 5, "velocity": 94}, {"time": 3116, "pitch": 59, "duration": 2, "velocity": 92}, {"time": 3122, "pitch": 45, "duration": 22, "velocity": 88}, {"time": 3122, "pitch": 57, "duration": 3, "velocity": 84}, {"time": 3122, "pitch": 64, "duration": 9, "velocity": 87}, {"time": 3125, "pitch": 52, "duration": 18, "velocity": 82}, {"time": 3128, "pitch": 57, "duration": 8, "velocity": 92}, {"time": 3131, "pitch": 61, "duration": 7, "velocity": 94}, {"time": 3137, "pitch": 69, "duration": 7, "velocity": 94}, {"time": 3140, "pitch": 57, "duration": 3, "velocity": 93}, {"time": 3146, "pitch": 38, "duration": 3, "velocity": 99}, {"time": 3146, "pitch": 62, "duration": 2, "velocity": 91}, {"time": 3146, "pitch": 74, "duration": 2, "velocity": 95}, {"time": 3152, "pitch": 38, "duration": 1, "velocity": 74}, {"time": 3152, "pitch": 45, "duration": 2, "velocity": 76}, {"time": 3152, "pitch": 61, "duration": 2, "velocity": 90}, {"time": 3152, "pitch": 73, "duration": 2, "velocity": 79}, {"time": 3158, "pitch": 38, "duration": 2, "velocity": 96}, {"time": 3158, "pitch": 45, "duration": 2, "velocity": 92}, {"time": 3158, "pitch": 62, "duration": 3, "velocity": 91}, {"time": 3158, "pitch": 74, "duration": 3, "velocity": 100}, {"time": 3164, "pitch": 38, "duration": 2, "velocity": 94}, {"time": 3164, "pitch": 45, "duration": 2, "velocity": 92}, {"time": 3164, "pitch": 64, "duration": 1, "velocity": 95}, {"time": 3164, "pitch": 76, "duration": 1, "velocity": 95}, {"time": 3170, "pitch": 38, "duration": 3, "velocity": 102}, {"time": 3170, "pitch": 66, "duration": 3, "velocity": 93}, {"time": 3170, "pitch": 78, "duration": 2, "velocity": 93}, {"time": 3170, "pitch": 45, "duration": 2, "velocity": 97}, {"time": 3173, "pitch": 57, "duration": 2, "velocity": 97}, {"time": 3176, "pitch": 38, "duration": 2, "velocity": 94}, {"time": 3176, "pitch": 45, "duration": 2, "velocity": 90}, {"time": 3176, "pitch": 67, "duration": 2, "velocity": 93}, {"time": 3176, "pitch": 79, "duration": 3, "velocity": 93}, {"time": 3182, "pitch": 38, "duration": 3, "velocity": 100}, {"time": 3182, "pitch": 45, "duration": 3, "velocity": 96}, {"time": 3182, "pitch": 69, "duration": 2, "velocity": 100}, {"time": 3182, "pitch": 81, "duration": 2, "velocity": 97}, {"time": 3188, "pitch": 38, "duration": 1, "velocity": 95}, {"time": 3188, "pitch": 45, "duration": 1, "velocity": 93}, {"time": 3188, "pitch": 62, "duration": 2, "velocity": 95}, {"time": 3188, "pitch": 74, "duration": 2, "velocity": 99}, {"time": 3194, "pitch": 43, "duration": 22, "velocity": 93}, {"time": 3194, "pitch": 62, "duration": 6, "velocity": 84}, {"time": 3194, "pitch": 67, "duration": 8, "velocity": 84}, {"time": 3200, "pitch": 50, "duration": 15, "velocity": 79}, {"time": 3203, "pitch": 62, "duration": 7, "velocity": 89}, {"time": 3209, "pitch": 67, "duration": 4, "velocity": 81}, {"time": 3212, "pitch": 71, "duration": 4, "velocity": 89}, {"time": 3215, "pitch": 62, "duration": 2, "velocity": 71}, {"time": 3218, "pitch": 43, "duration": 18, "velocity": 94}, {"time": 3221, "pitch": 52, "duration": 15, "velocity": 85}, {"time": 3224, "pitch": 57, "duration": 9, "velocity": 89}, {"time": 3227, "pitch": 61, "duration": 7, "velocity": 100}, {"time": 3233, "pitch": 69, "duration": 4, "velocity": 95}, {"time": 3236, "pitch": 61, "duration": 4, "velocity": 85}, {"time": 3242, "pitch": 42, "duration": 15, "velocity": 93}, {"time": 3242, "pitch": 57, "duration": 3, "velocity": 82}, {"time": 3242, "pitch": 61, "duration": 6, "velocity": 87}, {"time": 3245, "pitch": 49, "duration": 12, "velocity": 79}, {"time": 3248, "pitch": 57, "duration": 7, "velocity": 84}, {"time": 3251, "pitch": 61, "duration": 6, "velocity": 94}, {"time": 3257, "pitch": 66, "duration": 6, "velocity": 95}, {"time": 3260, "pitch": 57, "duration": 3, "velocity": 87}, {"time": 3263, "pitch": 61, "duration": 1, "velocity": 90}, {"time": 3266, "pitch": 47, "duration": 15, "velocity": 93}, {"time": 3266, "pitch": 59, "duration": 7, "velocity": 86}, {"time": 3266, "pitch": 62, "duration": 7, "velocity": 91}, {"time": 3272, "pitch": 54, "duration": 7, "velocity": 76}, {"time": 3278, "pitch": 59, "duration": 2, "velocity": 88}, {"time": 3278, "pitch": 66, "duration": 4, "velocity": 88}, {"time": 3289, "pitch": 52, "duration": 9, "velocity": 82}, {"time": 3290, "pitch": 55, "duration": 12, "velocity": 82}, {"time": 3290, "pitch": 40, "duration": 14, "velocity": 94}, {"time": 3291, "pitch": 59, "duration": 12, "velocity": 82}, {"time": 3295, "pitch": 47, "duration": 8, "velocity": 74}, {"time": 3302, "pitch": 52, "duration": 5, "velocity": 93}, {"time": 3315, "pitch": 45, "duration": 23, "velocity": 93}, {"time": 3320, "pitch": 52, "duration": 17, "velocity": 87}, {"time": 3323, "pitch": 57, "duration": 26, "velocity": 76}, {"time": 3327, "pitch": 61, "duration": 22, "velocity": 84}, {"time": 3331, "pitch": 64, "duration": 19, "velocity": 74}, {"time": 3336, "pitch": 69, "duration": 14, "velocity": 68}, {"time": 3398, "pitch": 50, "duration": 21, "velocity": 94}, {"time": 3401, "pitch": 57, "duration": 19, "velocity": 80}, {"time": 3404, "pitch": 62, "duration": 4, "velocity": 85}, {"time": 3407, "pitch": 64, "duration": 6, "velocity": 93}, {"time": 3413, "pitch": 66, "duration": 10, "velocity": 86}, {"time": 3422, "pitch": 50, "duration": 19, "velocity": 91}, {"time": 3422, "pitch": 69, "duration": 10, "velocity": 89}, {"time": 3428, "pitch": 57, "duration": 19, "velocity": 64}, {"time": 3431, "pitch": 62, "duration": 5, "velocity": 87}, {"time": 3437, "pitch": 66, "duration": 4, "velocity": 96}, {"time": 3446, "pitch": 49, "duration": 17, "velocity": 86}, {"time": 3446, "pitch": 64, "duration": 9, "velocity": 94}, {"time": 3452, "pitch": 57, "duration": 10, "velocity": 78}, {"time": 3455, "pitch": 64, "duration": 12, "velocity": 86}, {"time": 3461, "pitch": 67, "duration": 9, "velocity": 86}, {"time": 3470, "pitch": 42, "duration": 16, "velocity": 89}, {"time": 3473, "pitch": 49, "duration": 13, "velocity": 76}, {"time": 3476, "pitch": 54, "duration": 1, "velocity": 79}, {"time": 3479, "pitch": 58, "duration": 6, "velocity": 87}, {"time": 3485, "pitch": 61, "duration": 4, "velocity": 91}, {"time": 3494, "pitch": 47, "duration": 17, "velocity": 94}, {"time": 3494, "pitch": 59, "duration": 6, "velocity": 75}, {"time": 3494, "pitch": 62, "duration": 9, "velocity": 71}, {"time": 3500, "pitch": 54, "duration": 9, "velocity": 72}, {"time": 3503, "pitch": 59, "duration": 6, "velocity": 89}, {"time": 3509, "pitch": 66, "duration": 7, "velocity": 95}, {"time": 3512, "pitch": 59, "duration": 4, "velocity": 86}, {"time": 3515, "pitch": 62, "duration": 7, "velocity": 84}, {"time": 3518, "pitch": 45, "duration": 20, "velocity": 92}, {"time": 3521, "pitch": 52, "duration": 15, "velocity": 81}, {"time": 3524, "pitch": 57, "duration": 4, "velocity": 84}, {"time": 3527, "pitch": 62, "duration": 5, "velocity": 89}, {"time": 3533, "pitch": 64, "duration": 3, "velocity": 89}, {"time": 3536, "pitch": 62, "duration": 5, "velocity": 85}, {"time": 3542, "pitch": 43, "duration": 21, "velocity": 92}, {"time": 3545, "pitch": 50, "duration": 18, "velocity": 79}, {"time": 3548, "pitch": 55, "duration": 8, "velocity": 84}, {"time": 3551, "pitch": 58, "duration": 8, "velocity": 85}, {"time": 3557, "pitch": 62, "duration": 8, "velocity": 89}, {"time": 3560, "pitch": 67, "duration": 9, "velocity": 87}, {"time": 3563, "pitch": 55, "duration": 2, "velocity": 86}, {"time": 3566, "pitch": 45, "duration": 20, "velocity": 94}, {"time": 3569, "pitch": 52, "duration": 15, "velocity": 81}, {"time": 3572, "pitch": 57, "duration": 6, "velocity": 87}, {"time": 3575, "pitch": 62, "duration": 6, "velocity": 91}, {"time": 3581, "pitch": 64, "duration": 2, "velocity": 89}, {"time": 3590, "pitch": 38, "duration": 49, "velocity": 94}, {"time": 3593, "pitch": 45, "duration": 45, "velocity": 78}, {"time": 3596, "pitch": 50, "duration": 4, "velocity": 91}, {"time": 3600, "pitch": 52, "duration": 3, "velocity": 92}, {"time": 3603, "pitch": 54, "duration": 3, "velocity": 93}, {"time": 3608, "pitch": 57, "duration": 3, "velocity": 85}, {"time": 3612, "pitch": 62, "duration": 4, "velocity": 87}, {"time": 3618, "pitch": 64, "duration": 2, "velocity": 87}, {"time": 3623, "pitch": 66, "duration": 3, "velocity": 83}, {"time": 3624, "pitch": 62, "duration": 2, "velocity": 79}, {"time": 3630, "pitch": 62, "duration": 3, "velocity": 79}, {"time": 3630, "pitch": 69, "duration": 3, "velocity": 68}, {"time": 3644, "pitch": 38, "duration": 12, "velocity": 62}, {"time": 3646, "pitch": 62, "duration": 10, "velocity": 70}, {"time": 3646, "pitch": 66, "duration": 10, "velocity": 79}, {"time": 3647, "pitch": 69, "duration": 10, "velocity": 81}, {"time": 3648, "pitch": 74, "duration": 8, "velocity": 89}], "annotations": [{"time": 79, "annotation": {"number": 64, "value": 127}, "group": "control_change"}, {"time": 121, "annotation": {"number": 64, "value": 0}, "group": "control_change"}, {"time": 124, "annotation": {"number": 64, "value": 127}, "group": "control_change"}, {"time": 144, "annotation": {"number": 64, "value": 0}, "group": "control_change"}, {"time": 146, "annotation": {"number": 64, "value": 127}, "group": "control_change"}, {"time": 170, "annotation": {"number": 64, "value": 0}, "group": "control_change"}, {"time": 173, "annotation": {"number": 64, "value": 127}, "group": "control_change"}, {"time": 193, "annotation": {"number": 64, "value": 0}, "group": "control_change"}, {"time": 195, "annotation": {"number": 64, "value": 127}, "group": "control_change"}, {"time": 218, "annotation": {"number": 64, "value": 0}, "group": "control_change"}, {"time": 219, "annotation": {"number": 64, "value": 127}, "group": "control_change"}, {"time": 241, "annotation": {"number": 64, "value": 0}, "group": "control_change"}, {"time": 244, "annotation": {"number": 64, "value": 127}, "group": "control_change"}, {"time": 270, "annotation": {"number": 64, "value": 127}, "group": "control_change"}, {"time": 270, "annotation": {"number": 64, "value": 0}, "group": "control_change"}, {"time": 288, "annotation": {"number": 64, "value": 0}, "group": "control_change"}, {"time": 291, "annotation": {"number": 64, "value": 127}, "group": "control_change"}, {"time": 312, "annotation": {"number": 64, "value": 0}, "group": "control_change"}, {"time": 314, "annotation": {"number": 64, "value": 127}, "group": "control_change"}, {"time": 337, "annotation": {"number": 64, "value": 0}, "group": "control_change"}, {"time": 338, "annotation": {"number": 64, "value": 127}, "group": "control_change"}, {"time": 361, "annotation": {"number": 64, "value": 0}, "group": "control_change"}, {"time": 365, "annotation": {"number": 64, "value": 127}, "group": "control_change"}, {"time": 385, "annotation": {"number": 64, "value": 0}, "group": "control_change"}, {"time": 387, "annotation": {"number": 64, "value": 127}, "group": "control_change"}, {"time": 410, "annotation": {"number": 64, "value": 127}, "group": "control_change"}, {"time": 431, "annotation": {"number": 64, "value": 0}, "group": "control_change"}, {"time": 435, "annotation": {"number": 64, "value": 127}, "group": "control_change"}, {"time": 456, "annotation": {"number": 64, "value": 0}, "group": "control_change"}, {"time": 458, "annotation": {"number": 64, "value": 127}, "group": "control_change"}, {"time": 481, "annotation": {"number": 64, "value": 0}, "group": "control_change"}, {"time": 481, "annotation": {"number": 64, "value": 127}, "group": "control_change"}, {"time": 484, "annotation": {"number": 64, "value": 127}, "group": "control_change"}, {"time": 505, "annotation": {"number": 64, "value": 0}, "group": "control_change"}, {"time": 507, "annotation": {"number": 64, "value": 127}, "group": "control_change"}, {"time": 529, "annotation": {"number": 64, "value": 0}, "group": "control_change"}, {"time": 531, "annotation": {"number": 64, "value": 127}, "group": "control_change"}, {"time": 553, "annotation": {"number": 64, "value": 0}, "group": "control_change"}, {"time": 555, "annotation": {"number": 64, "value": 127}, "group": "control_change"}, {"time": 578, "annotation": {"number": 64, "value": 127}, "group": "control_change"}, {"time": 601, "annotation": {"number": 64, "value": 0}, "group": "control_change"}, {"time": 603, "annotation": {"number": 64, "value": 127}, "group": "control_change"}, {"time": 603, "annotation": {"number": 64, "value": 0}, "group": "control_change"}, {"time": 624, "annotation": {"number": 64, "value": 0}, "group": "control_change"}, {"time": 626, "annotation": {"number": 64, "value": 127}, "group": "control_change"}, {"time": 654, "annotation": {"number": 64, "value": 127}, "group": "control_change"}, {"time": 654, "annotation": {"number": 64, "value": 0}, "group": "control_change"}, {"time": 672, "annotation": {"number": 64, "value": 0}, "group": "control_change"}, {"time": 675, "annotation": {"number": 64, "value": 127}, "group": "control_change"}, {"time": 696, "annotation": {"number": 64, "value": 0}, "group": "control_change"}, {"time": 698, "annotation": {"number": 64, "value": 127}, "group": "control_change"}, {"time": 721, "annotation": {"number": 64, "value": 0}, "group": "control_change"}, {"time": 722, "annotation": {"number": 64, "value": 127}, "group": "control_change"}, {"time": 745, "annotation": {"number": 64, "value": 0}, "group": "control_change"}, {"time": 749, "annotation": {"number": 64, "value": 127}, "group": "control_change"}, {"time": 769, "annotation": {"number": 64, "value": 0}, "group": "control_change"}, {"time": 771, "annotation": {"number": 64, "value": 127}, "group": "control_change"}, {"time": 794, "annotation": {"number": 64, "value": 127}, "group": "control_change"}, {"time": 815, "annotation": {"number": 64, "value": 0}, "group": "control_change"}, {"time": 819, "annotation": {"number": 64, "value": 127}, "group": "control_change"}, {"time": 840, "annotation": {"number": 64, "value": 0}, "group": "control_change"}, {"time": 842, "annotation": {"number": 64, "value": 127}, "group": "control_change"}, {"time": 865, "annotation": {"number": 64, "value": 0}, "group": "control_change"}, {"time": 865, "annotation": {"number": 64, "value": 127}, "group": "control_change"}, {"time": 868, "annotation": {"number": 64, "value": 127}, "group": "control_change"}, {"time": 889, "annotation": {"number": 64, "value": 0}, "group": "control_change"}, {"time": 891, "annotation": {"number": 64, "value": 127}, "group": "control_change"}, {"time": 913, "annotation": {"number": 64, "value": 0}, "group": "control_change"}, {"time": 915, "annotation": {"number": 64, "value": 127}, "group": "control_change"}, {"time": 937, "annotation": {"number": 64, "value": 0}, "group": "control_change"}, {"time": 939, "annotation": {"number": 64, "value": 127}, "group": "control_change"}, {"time": 962, "annotation": {"number": 64, "value": 127}, "group": "control_change"}, {"time": 985, "annotation": {"number": 64, "value": 0}, "group": "control_change"}, {"time": 996, "annotation": {"number": 64, "value": 0}, "group": "control_change"}, {"time": 998, "annotation": {"number": 64, "value": 127}, "group": "control_change"}, {"time": 1008, "annotation": {"number": 64, "value": 0}, "group": "control_change"}, {"time": 1009, "annotation": {"number": 64, "value": 127}, "group": "control_change"}, {"time": 1033, "annotation": {"number": 64, "value": 0}, "group": "control_change"}, {"time": 1034, "annotation": {"number": 64, "value": 127}, "group": "control_change"}, {"time": 1057, "annotation": {"number": 64, "value": 0}, "group": "control_change"}, {"time": 1058, "annotation": {"number": 64, "value": 127}, "group": "control_change"}, {"time": 1080, "annotation": {"number": 64, "value": 0}, "group": "control_change"}, {"time": 1082, "annotation": {"number": 64, "value": 127}, "group": "control_change"}, {"time": 1106, "annotation": {"number": 64, "value": 0}, "group": "control_change"}, {"time": 1107, "annotation": {"number": 64, "value": 127}, "group": "control_change"}, {"time": 1129, "annotation": {"number": 64, "value": 0}, "group": "control_change"}, {"time": 1131, "annotation": {"number": 64, "value": 127}, "group": "control_change"}, {"time": 1152, "annotation": {"number": 64, "value": 0}, "group": "control_change"}, {"time": 1154, "annotation": {"number": 64, "value": 127}, "group": "control_change"}, {"time": 1176, "annotation": {"number": 64, "value": 0}, "group": "control_change"}, {"time": 1178, "annotation": {"number": 64, "value": 127}, "group": "control_change"}, {"time": 1201, "annotation": {"number": 64, "value": 0}, "group": "control_change"}, {"time": 1203, "annotation": {"number": 64, "value": 127}, "group": "control_change"}, {"time": 1226, "annotation": {"number": 64, "value": 0}, "group": "control_change"}, {"time": 1228, "annotation": {"number": 64, "value": 127}, "group": "control_change"}, {"time": 1249, "annotation": {"number": 64, "value": 0}, "group": "control_change"}, {"time": 1251, "annotation": {"number": 64, "value": 127}, "group": "control_change"}, {"time": 1273, "annotation": {"number": 64, "value": 0}, "group": "control_change"}, {"time": 1275, "annotation": {"number": 64, "value": 127}, "group": "control_change"}, {"time": 1297, "annotation": {"number": 64, "value": 0}, "group": "control_change"}, {"time": 1299, "annotation": {"number": 64, "value": 127}, "group": "control_change"}, {"time": 1320, "annotation": {"number": 64, "value": 0}, "group": "control_change"}, {"time": 1322, "annotation": {"number": 64, "value": 127}, "group": "control_change"}, {"time": 1344, "annotation": {"number": 64, "value": 0}, "group": "control_change"}, {"time": 1346, "annotation": {"number": 64, "value": 127}, "group": "control_change"}, {"time": 1370, "annotation": {"number": 64, "value": 0}, "group": "control_change"}, {"time": 1372, "annotation": {"number": 64, "value": 127}, "group": "control_change"}, {"time": 1394, "annotation": {"number": 64, "value": 0}, "group": "control_change"}, {"time": 1397, "annotation": {"number": 64, "value": 127}, "group": "control_change"}, {"time": 1415, "annotation": {"number": 64, "value": 0}, "group": "control_change"}, {"time": 1422, "annotation": {"number": 64, "value": 127}, "group": "control_change"}, {"time": 1422, "annotation": {"number": 64, "value": 0}, "group": "control_change"}, {"time": 1440, "annotation": {"number": 64, "value": 0}, "group": "control_change"}, {"time": 1443, "annotation": {"number": 64, "value": 127}, "group": "control_change"}, {"time": 1464, "annotation": {"number": 64, "value": 0}, "group": "control_change"}, {"time": 1466, "annotation": {"number": 64, "value": 127}, "group": "control_change"}, {"time": 1489, "annotation": {"number": 64, "value": 0}, "group": "control_change"}, {"time": 1490, "annotation": {"number": 64, "value": 127}, "group": "control_change"}, {"time": 1513, "annotation": {"number": 64, "value": 0}, "group": "control_change"}, {"time": 1517, "annotation": {"number": 64, "value": 127}, "group": "control_change"}, {"time": 1537, "annotation": {"number": 64, "value": 0}, "group": "control_change"}, {"time": 1539, "annotation": {"number": 64, "value": 127}, "group": "control_change"}, {"time": 1562, "annotation": {"number": 64, "value": 127}, "group": "control_change"}, {"time": 1583, "annotation": {"number": 64, "value": 0}, "group": "control_change"}, {"time": 1587, "annotation": {"number": 64, "value": 127}, "group": "control_change"}, {"time": 1608, "annotation": {"number": 64, "value": 0}, "group": "control_change"}, {"time": 1610, "annotation": {"number": 64, "value": 127}, "group": "control_change"}, {"time": 1633, "annotation": {"number": 64, "value": 0}, "group": "control_change"}, {"time": 1633, "annotation": {"number": 64, "value": 127}, "group": "control_change"}, {"time": 1636, "annotation": {"number": 64, "value": 127}, "group": "control_change"}, {"time": 1657, "annotation": {"number": 64, "value": 0}, "group": "control_change"}, {"time": 1659, "annotation": {"number": 64, "value": 127}, "group": "control_change"}, {"time": 1681, "annotation": {"number": 64, "value": 0}, "group": "control_change"}, {"time": 1683, "annotation": {"number": 64, "value": 127}, "group": "control_change"}, {"time": 1705, "annotation": {"number": 64, "value": 0}, "group": "control_change"}, {"time": 1707, "annotation": {"number": 64, "value": 127}, "group": "control_change"}, {"time": 1730, "annotation": {"number": 64, "value": 127}, "group": "control_change"}, {"time": 1753, "annotation": {"number": 64, "value": 0}, "group": "control_change"}, {"time": 1755, "annotation": {"number": 64, "value": 127}, "group": "control_change"}, {"time": 1755, "annotation": {"number": 64, "value": 0}, "group": "control_change"}, {"time": 1776, "annotation": {"number": 64, "value": 0}, "group": "control_change"}, {"time": 1778, "annotation": {"number": 64, "value": 127}, "group": "control_change"}, {"time": 1836, "annotation": {"number": 64, "value": 0}, "group": "control_change"}, {"time": 1838, "annotation": {"number": 64, "value": 127}, "group": "control_change"}, {"time": 1849, "annotation": {"number": 64, "value": 0}, "group": "control_change"}, {"time": 1850, "annotation": {"number": 64, "value": 127}, "group": "control_change"}, {"time": 1873, "annotation": {"number": 64, "value": 0}, "group": "control_change"}, {"time": 1874, "annotation": {"number": 64, "value": 127}, "group": "control_change"}, {"time": 1897, "annotation": {"number": 64, "value": 0}, "group": "control_change"}, {"time": 1911, "annotation": {"number": 64, "value": 127}, "group": "control_change"}, {"time": 1920, "annotation": {"number": 64, "value": 0}, "group": "control_change"}, {"time": 1922, "annotation": {"number": 64, "value": 127}, "group": "control_change"}, {"time": 1944, "annotation": {"number": 64, "value": 0}, "group": "control_change"}, {"time": 1947, "annotation": {"number": 64, "value": 127}, "group": "control_change"}, {"time": 1969, "annotation": {"number": 64, "value": 0}, "group": "control_change"}, {"time": 1970, "annotation": {"number": 64, "value": 127}, "group": "control_change"}, {"time": 1992, "annotation": {"number": 64, "value": 0}, "group": "control_change"}, {"time": 1994, "annotation": {"number": 64, "value": 127}, "group": "control_change"}, {"time": 2017, "annotation": {"number": 64, "value": 0}, "group": "control_change"}, {"time": 2018, "annotation": {"number": 64, "value": 127}, "group": "control_change"}, {"time": 2040, "annotation": {"number": 64, "value": 0}, "group": "control_change"}, {"time": 2042, "annotation": {"number": 64, "value": 127}, "group": "control_change"}, {"time": 2064, "annotation": {"number": 64, "value": 0}, "group": "control_change"}, {"time": 2065, "annotation": {"number": 64, "value": 127}, "group": "control_change"}, {"time": 2088, "annotation": {"number": 64, "value": 0}, "group": "control_change"}, {"time": 2090, "annotation": {"number": 64, "value": 127}, "group": "control_change"}, {"time": 2137, "annotation": {"number": 64, "value": 0}, "group": "control_change"}, {"time": 2138, "annotation": {"number": 64, "value": 127}, "group": "control_change"}, {"time": 2161, "annotation": {"number": 64, "value": 0}, "group": "control_change"}, {"time": 2162, "annotation": {"number": 64, "value": 127}, "group": "control_change"}, {"time": 2186, "annotation": {"number": 64, "value": 0}, "group": "control_change"}, {"time": 2186, "annotation": {"number": 64, "value": 127}, "group": "control_change"}, {"time": 2202, "annotation": {"number": 64, "value": 0}, "group": "control_change"}, {"time": 2203, "annotation": {"number": 64, "value": 127}, "group": "control_change"}, {"time": 2233, "annotation": {"number": 64, "value": 0}, "group": "control_change"}, {"time": 2235, "annotation": {"number": 64, "value": 127}, "group": "control_change"}, {"time": 2281, "annotation": {"number": 64, "value": 0}, "group": "control_change"}, {"time": 2283, "annotation": {"number": 64, "value": 127}, "group": "control_change"}, {"time": 2305, "annotation": {"number": 64, "value": 0}, "group": "control_change"}, {"time": 2306, "annotation": {"number": 64, "value": 127}, "group": "control_change"}, {"time": 2316, "annotation": {"number": 64, "value": 0}, "group": "control_change"}, {"time": 2318, "annotation": {"number": 64, "value": 127}, "group": "control_change"}, {"time": 2324, "annotation": {"number": 64, "value": 0}, "group": "control_change"}, {"time": 2325, "annotation": {"number": 64, "value": 127}, "group": "control_change"}, {"time": 2330, "annotation": {"number": 64, "value": 0}, "group": "control_change"}, {"time": 2331, "annotation": {"number": 64, "value": 127}, "group": "control_change"}, {"time": 2353, "annotation": {"number": 64, "value": 0}, "group": "control_change"}, {"time": 2355, "annotation": {"number": 64, "value": 127}, "group": "control_change"}, {"time": 2375, "annotation": {"number": 64, "value": 0}, "group": "control_change"}, {"time": 2378, "annotation": {"number": 64, "value": 127}, "group": "control_change"}, {"time": 2400, "annotation": {"number": 64, "value": 0}, "group": "control_change"}, {"time": 2402, "annotation": {"number": 64, "value": 127}, "group": "control_change"}, {"time": 2421, "annotation": {"number": 64, "value": 0}, "group": "control_change"}, {"time": 2427, "annotation": {"number": 64, "value": 127}, "group": "control_change"}, {"time": 2449, "annotation": {"number": 64, "value": 0}, "group": "control_change"}, {"time": 2454, "annotation": {"number": 64, "value": 127}, "group": "control_change"}, {"time": 2472, "annotation": {"number": 64, "value": 0}, "group": "control_change"}, {"time": 2477, "annotation": {"number": 64, "value": 127}, "group": "control_change"}, {"time": 2497, "annotation": {"number": 64, "value": 0}, "group": "control_change"}, {"time": 2500, "annotation": {"number": 64, "value": 127}, "group": "control_change"}, {"time": 2521, "annotation": {"number": 64, "value": 0}, "group": "control_change"}, {"time": 2524, "annotation": {"number": 64, "value": 127}, "group": "control_change"}, {"time": 2545, "annotation": {"number": 64, "value": 0}, "group": "control_change"}, {"time": 2551, "annotation": {"number": 64, "value": 127}, "group": "control_change"}, {"time": 2568, "annotation": {"number": 64, "value": 0}, "group": "control_change"}, {"time": 2570, "annotation": {"number": 64, "value": 127}, "group": "control_change"}, {"time": 2593, "annotation": {"number": 64, "value": 0}, "group": "control_change"}, {"time": 2595, "annotation": {"number": 64, "value": 127}, "group": "control_change"}, {"time": 2611, "annotation": {"number": 64, "value": 127}, "group": "control_change"}, {"time": 2614, "annotation": {"number": 64, "value": 0}, "group": "control_change"}, {"time": 2617, "annotation": {"number": 64, "value": 127}, "group": "control_change"}, {"time": 2619, "annotation": {"number": 64, "value": 127}, "group": "control_change"}, {"time": 2640, "annotation": {"number": 64, "value": 0}, "group": "control_change"}, {"time": 2642, "annotation": {"number": 64, "value": 0}, "group": "control_change"}, {"time": 2647, "annotation": {"number": 64, "value": 127}, "group": "control_change"}, {"time": 2664, "annotation": {"number": 64, "value": 0}, "group": "control_change"}, {"time": 2666, "annotation": {"number": 64, "value": 127}, "group": "control_change"}, {"time": 2690, "annotation": {"number": 64, "value": 0}, "group": "control_change"}, {"time": 2694, "annotation": {"number": 64, "value": 127}, "group": "control_change"}, {"time": 2713, "annotation": {"number": 64, "value": 0}, "group": "control_change"}, {"time": 2716, "annotation": {"number": 64, "value": 127}, "group": "control_change"}, {"time": 2736, "annotation": {"number": 64, "value": 0}, "group": "control_change"}, {"time": 2739, "annotation": {"number": 64, "value": 127}, "group": "control_change"}, {"time": 2763, "annotation": {"number": 64, "value": 127}, "group": "control_change"}, {"time": 2785, "annotation": {"number": 64, "value": 0}, "group": "control_change"}, {"time": 2787, "annotation": {"number": 64, "value": 127}, "group": "control_change"}, {"time": 2807, "annotation": {"number": 64, "value": 0}, "group": "control_change"}, {"time": 2814, "annotation": {"number": 64, "value": 127}, "group": "control_change"}, {"time": 2814, "annotation": {"number": 64, "value": 0}, "group": "control_change"}, {"time": 2832, "annotation": {"number": 64, "value": 0}, "group": "control_change"}, {"time": 2835, "annotation": {"number": 64, "value": 127}, "group": "control_change"}, {"time": 2856, "annotation": {"number": 64, "value": 0}, "group": "control_change"}, {"time": 2858, "annotation": {"number": 64, "value": 127}, "group": "control_change"}, {"time": 2881, "annotation": {"number": 64, "value": 0}, "group": "control_change"}, {"time": 2882, "annotation": {"number": 64, "value": 127}, "group": "control_change"}, {"time": 2905, "annotation": {"number": 64, "value": 0}, "group": "control_change"}, {"time": 2909, "annotation": {"number": 64, "value": 127}, "group": "control_change"}, {"time": 2929, "annotation": {"number": 64, "value": 0}, "group": "control_change"}, {"time": 2931, "annotation": {"number": 64, "value": 127}, "group": "control_change"}, {"time": 2954, "annotation": {"number": 64, "value": 127}, "group": "control_change"}, {"time": 2975, "annotation": {"number": 64, "value": 0}, "group": "control_change"}, {"time": 2979, "annotation": {"number": 64, "value": 127}, "group": "control_change"}, {"time": 3000, "annotation": {"number": 64, "value": 0}, "group": "control_change"}, {"time": 3002, "annotation": {"number": 64, "value": 127}, "group": "control_change"}, {"time": 3025, "annotation": {"number": 64, "value": 0}, "group": "control_change"}, {"time": 3025, "annotation": {"number": 64, "value": 127}, "group": "control_change"}, {"time": 3028, "annotation": {"number": 64, "value": 127}, "group": "control_change"}, {"time": 3049, "annotation": {"number": 64, "value": 0}, "group": "control_change"}, {"time": 3051, "annotation": {"number": 64, "value": 127}, "group": "control_change"}, {"time": 3073, "annotation": {"number": 64, "value": 0}, "group": "control_change"}, {"time": 3075, "annotation": {"number": 64, "value": 127}, "group": "control_change"}, {"time": 3097, "annotation": {"number": 64, "value": 0}, "group": "control_change"}, {"time": 3099, "annotation": {"number": 64, "value": 127}, "group": "control_change"}, {"time": 3122, "annotation": {"number": 64, "value": 127}, "group": "control_change"}, {"time": 3145, "annotation": {"number": 64, "value": 0}, "group": "control_change"}, {"time": 3156, "annotation": {"number": 64, "value": 0}, "group": "control_change"}, {"time": 3158, "annotation": {"number": 64, "value": 127}, "group": "control_change"}, {"time": 3168, "annotation": {"number": 64, "value": 0}, "group": "control_change"}, {"time": 3169, "annotation": {"number": 64, "value": 127}, "group": "control_change"}, {"time": 3193, "annotation": {"number": 64, "value": 0}, "group": "control_change"}, {"time": 3217, "annotation": {"number": 64, "value": 0}, "group": "control_change"}, {"time": 3217, "annotation": {"number": 64, "value": 127}, "group": "control_change"}, {"time": 3220, "annotation": {"number": 64, "value": 127}, "group": "control_change"}, {"time": 3241, "annotation": {"number": 64, "value": 0}, "group": "control_change"}, {"time": 3243, "annotation": {"number": 64, "value": 127}, "group": "control_change"}, {"time": 3265, "annotation": {"number": 64, "value": 0}, "group": "control_change"}, {"time": 3267, "annotation": {"number": 64, "value": 127}, "group": "control_change"}, {"time": 3289, "annotation": {"number": 64, "value": 0}, "group": "control_change"}, {"time": 3295, "annotation": {"number": 64, "value": 127}, "group": "control_change"}, {"time": 3316, "annotation": {"number": 64, "value": 0}, "group": "control_change"}, {"time": 3317, "annotation": {"number": 64, "value": 127}, "group": "control_change"}, {"time": 3403, "annotation": {"number": 64, "value": 127}, "group": "control_change"}, {"time": 3445, "annotation": {"number": 64, "value": 0}, "group": "control_change"}, {"time": 3448, "annotation": {"number": 64, "value": 127}, "group": "control_change"}, {"time": 3468, "annotation": {"number": 64, "value": 0}, "group": "control_change"}, {"time": 3470, "annotation": {"number": 64, "value": 127}, "group": "control_change"}, {"time": 3494, "annotation": {"number": 64, "value": 0}, "group": "control_change"}, {"time": 3497, "annotation": {"number": 64, "value": 127}, "group": "control_change"}, {"time": 3517, "annotation": {"number": 64, "value": 0}, "group": "control_change"}, {"time": 3519, "annotation": {"number": 64, "value": 127}, "group": "control_change"}, {"time": 3542, "annotation": {"number": 64, "value": 0}, "group": "control_change"}, {"time": 3543, "annotation": {"number": 64, "value": 127}, "group": "control_change"}, {"time": 3565, "annotation": {"number": 64, "value": 0}, "group": "control_change"}, {"time": 3568, "annotation": {"number": 64, "value": 127}, "group": "control_change"}, {"time": 3592, "annotation": {"number": 64, "value": 127}, "group": "control_change"}, {"time": 3690, "annotation": {"number": 64, "value": 0}, "group": "control_change"}]}]}