{"metadata": {"schema_version": "0.2", "title": "None", "source_filename": "685.mid", "source_format": "midi"}, "resolution": 12, "tempos": [{"time": 0, "qpm": 100.0}], "time_signatures": [{"time": 0, "numerator": 1, "denominator": 4}], "tracks": [{"program": 4, "is_drum": false, "name": "MELODY", "notes": [{"time": 665, "pitch": 64, "duration": 5, "velocity": 85}, {"time": 671, "pitch": 64, "duration": 4, "velocity": 85}, {"time": 677, "pitch": 69, "duration": 4, "velocity": 82}, {"time": 683, "pitch": 71, "duration": 9, "velocity": 83}, {"time": 695, "pitch": 69, "duration": 11, "velocity": 84}, {"time": 707, "pitch": 67, "duration": 11, "velocity": 83}, {"time": 719, "pitch": 64, "duration": 11, "velocity": 83}, {"time": 761, "pitch": 69, "duration": 5, "velocity": 81}, {"time": 767, "pitch": 64, "duration": 4, "velocity": 86}, {"time": 773, "pitch": 69, "duration": 4, "velocity": 82}, {"time": 779, "pitch": 71, "duration": 7, "velocity": 78}, {"time": 791, "pitch": 72, "duration": 8, "velocity": 82}, {"time": 803, "pitch": 71, "duration": 9, "velocity": 83}, {"time": 815, "pitch": 69, "duration": 6, "velocity": 82}, {"time": 821, "pitch": 69, "duration": 6, "velocity": 82}, {"time": 827, "pitch": 64, "duration": 6, "velocity": 82}, {"time": 833, "pitch": 69, "duration": 4, "velocity": 81}, {"time": 839, "pitch": 67, "duration": 20, "velocity": 82}, {"time": 875, "pitch": 69, "duration": 12, "velocity": 81}, {"time": 887, "pitch": 64, "duration": 32, "velocity": 83}, {"time": 923, "pitch": 62, "duration": 5, "velocity": 81}, {"time": 929, "pitch": 64, "duration": 4, "velocity": 83}, {"time": 935, "pitch": 65, "duration": 10, "velocity": 81}, {"time": 947, "pitch": 64, "duration": 20, "velocity": 83}, {"time": 1049, "pitch": 64, "duration": 5, "velocity": 85}, {"time": 1055, "pitch": 64, "duration": 4, "velocity": 85}, {"time": 1061, "pitch": 69, "duration": 4, "velocity": 82}, {"time": 1067, "pitch": 71, "duration": 9, "velocity": 83}, {"time": 1079, "pitch": 69, "duration": 11, "velocity": 84}, {"time": 1091, "pitch": 67, "duration": 11, "velocity": 83}, {"time": 1103, "pitch": 64, "duration": 11, "velocity": 83}, {"time": 1139, "pitch": 69, "duration": 4, "velocity": 77}, {"time": 1145, "pitch": 69, "duration": 5, "velocity": 81}, {"time": 1151, "pitch": 67, "duration": 5, "velocity": 81}, {"time": 1157, "pitch": 69, "duration": 5, "velocity": 81}, {"time": 1163, "pitch": 67, "duration": 4, "velocity": 81}, {"time": 1169, "pitch": 69, "duration": 4, "velocity": 79}, {"time": 1175, "pitch": 71, "duration": 4, "velocity": 81}, {"time": 1181, "pitch": 72, "duration": 15, "velocity": 81}, {"time": 1199, "pitch": 71, "duration": 6, "velocity": 82}, {"time": 1205, "pitch": 69, "duration": 5, "velocity": 81}, {"time": 1211, "pitch": 71, "duration": 17, "velocity": 80}, {"time": 1235, "pitch": 67, "duration": 18, "velocity": 75}, {"time": 1259, "pitch": 69, "duration": 12, "velocity": 81}, {"time": 1271, "pitch": 64, "duration": 32, "velocity": 83}, {"time": 1307, "pitch": 67, "duration": 4, "velocity": 80}, {"time": 1313, "pitch": 69, "duration": 5, "velocity": 81}, {"time": 1319, "pitch": 72, "duration": 11, "velocity": 82}, {"time": 1331, "pitch": 71, "duration": 6, "velocity": 79}, {"time": 1337, "pitch": 69, "duration": 34, "velocity": 76}, {"time": 1397, "pitch": 69, "duration": 4, "velocity": 81}, {"time": 1403, "pitch": 71, "duration": 6, "velocity": 81}, {"time": 1409, "pitch": 72, "duration": 4, "velocity": 81}, {"time": 1415, "pitch": 74, "duration": 5, "velocity": 81}, {"time": 1421, "pitch": 76, "duration": 10, "velocity": 81}, {"time": 1433, "pitch": 72, "duration": 5, "velocity": 78}, {"time": 1439, "pitch": 69, "duration": 6, "velocity": 76}, {"time": 1445, "pitch": 76, "duration": 10, "velocity": 77}, {"time": 1457, "pitch": 72, "duration": 5, "velocity": 82}, {"time": 1463, "pitch": 69, "duration": 6, "velocity": 82}, {"time": 1469, "pitch": 79, "duration": 4, "velocity": 85}, {"time": 1475, "pitch": 79, "duration": 6, "velocity": 81}, {"time": 1481, "pitch": 79, "duration": 6, "velocity": 72}, {"time": 1487, "pitch": 74, "duration": 12, "velocity": 81}, {"time": 1499, "pitch": 72, "duration": 5, "velocity": 83}, {"time": 1505, "pitch": 71, "duration": 5, "velocity": 79}, {"time": 1511, "pitch": 72, "duration": 5, "velocity": 81}, {"time": 1517, "pitch": 74, "duration": 12, "velocity": 83}, {"time": 1529, "pitch": 71, "duration": 5, "velocity": 81}, {"time": 1535, "pitch": 67, "duration": 4, "velocity": 82}, {"time": 1541, "pitch": 79, "duration": 4, "velocity": 82}, {"time": 1547, "pitch": 77, "duration": 5, "velocity": 79}, {"time": 1553, "pitch": 76, "duration": 5, "velocity": 82}, {"time": 1559, "pitch": 74, "duration": 5, "velocity": 86}, {"time": 1565, "pitch": 74, "duration": 5, "velocity": 85}, {"time": 1571, "pitch": 76, "duration": 4, "velocity": 77}, {"time": 1577, "pitch": 74, "duration": 4, "velocity": 85}, {"time": 1583, "pitch": 73, "duration": 12, "velocity": 77}, {"time": 1595, "pitch": 73, "duration": 4, "velocity": 81}, {"time": 1601, "pitch": 74, "duration": 4, "velocity": 85}, {"time": 1607, "pitch": 76, "duration": 4, "velocity": 82}, {"time": 1613, "pitch": 77, "duration": 9, "velocity": 82}, {"time": 1625, "pitch": 72, "duration": 4, "velocity": 77}, {"time": 1631, "pitch": 69, "duration": 5, "velocity": 75}, {"time": 1637, "pitch": 76, "duration": 8, "velocity": 81}, {"time": 1649, "pitch": 72, "duration": 10, "velocity": 76}, {"time": 1661, "pitch": 71, "duration": 4, "velocity": 81}, {"time": 1667, "pitch": 71, "duration": 5, "velocity": 82}, {"time": 1673, "pitch": 72, "duration": 5, "velocity": 79}, {"time": 1679, "pitch": 71, "duration": 4, "velocity": 82}, {"time": 1691, "pitch": 74, "duration": 4, "velocity": 85}, {"time": 1697, "pitch": 74, "duration": 5, "velocity": 83}, {"time": 1703, "pitch": 72, "duration": 6, "velocity": 81}, {"time": 1709, "pitch": 77, "duration": 10, "velocity": 75}, {"time": 1721, "pitch": 74, "duration": 10, "velocity": 82}, {"time": 1733, "pitch": 74, "duration": 5, "velocity": 82}, {"time": 1739, "pitch": 72, "duration": 4, "velocity": 82}, {"time": 1745, "pitch": 74, "duration": 6, "velocity": 90}, {"time": 1751, "pitch": 72, "duration": 5, "velocity": 83}, {"time": 1757, "pitch": 77, "duration": 5, "velocity": 81}, {"time": 1763, "pitch": 76, "duration": 5, "velocity": 83}, {"time": 1769, "pitch": 74, "duration": 4, "velocity": 85}, {"time": 1775, "pitch": 76, "duration": 9, "velocity": 83}, {"time": 1787, "pitch": 69, "duration": 4, "velocity": 82}, {"time": 1793, "pitch": 72, "duration": 4, "velocity": 81}, {"time": 1799, "pitch": 74, "duration": 4, "velocity": 81}, {"time": 1805, "pitch": 76, "duration": 9, "velocity": 81}, {"time": 1817, "pitch": 72, "duration": 4, "velocity": 82}, {"time": 1823, "pitch": 69, "duration": 4, "velocity": 78}, {"time": 1829, "pitch": 76, "duration": 10, "velocity": 82}, {"time": 1841, "pitch": 72, "duration": 4, "velocity": 82}, {"time": 1847, "pitch": 69, "duration": 5, "velocity": 81}, {"time": 1853, "pitch": 79, "duration": 4, "velocity": 81}, {"time": 1859, "pitch": 79, "duration": 4, "velocity": 77}, {"time": 1865, "pitch": 79, "duration": 5, "velocity": 79}, {"time": 1871, "pitch": 74, "duration": 9, "velocity": 83}, {"time": 1883, "pitch": 72, "duration": 3, "velocity": 77}, {"time": 1889, "pitch": 71, "duration": 4, "velocity": 78}, {"time": 1895, "pitch": 72, "duration": 4, "velocity": 79}, {"time": 1901, "pitch": 74, "duration": 9, "velocity": 82}, {"time": 1913, "pitch": 71, "duration": 5, "velocity": 81}, {"time": 1919, "pitch": 67, "duration": 5, "velocity": 77}, {"time": 1925, "pitch": 79, "duration": 4, "velocity": 83}, {"time": 1931, "pitch": 77, "duration": 4, "velocity": 81}, {"time": 1937, "pitch": 76, "duration": 3, "velocity": 87}, {"time": 1943, "pitch": 74, "duration": 4, "velocity": 83}, {"time": 1949, "pitch": 74, "duration": 5, "velocity": 83}, {"time": 1955, "pitch": 76, "duration": 5, "velocity": 82}, {"time": 1961, "pitch": 74, "duration": 4, "velocity": 82}, {"time": 1967, "pitch": 73, "duration": 10, "velocity": 81}, {"time": 1979, "pitch": 74, "duration": 4, "velocity": 85}, {"time": 1985, "pitch": 74, "duration": 4, "velocity": 83}, {"time": 1991, "pitch": 76, "duration": 4, "velocity": 81}, {"time": 1997, "pitch": 77, "duration": 10, "velocity": 81}, {"time": 2009, "pitch": 72, "duration": 12, "velocity": 80}, {"time": 2021, "pitch": 69, "duration": 11, "velocity": 81}, {"time": 2033, "pitch": 76, "duration": 4, "velocity": 82}, {"time": 2039, "pitch": 74, "duration": 9, "velocity": 81}, {"time": 2051, "pitch": 71, "duration": 9, "velocity": 80}, {"time": 2063, "pitch": 67, "duration": 4, "velocity": 62}, {"time": 2069, "pitch": 67, "duration": 6, "velocity": 82}, {"time": 2075, "pitch": 76, "duration": 10, "velocity": 82}, {"time": 2087, "pitch": 74, "duration": 19, "velocity": 86}, {"time": 2105, "pitch": 72, "duration": 30, "velocity": 77}, {"time": 2135, "pitch": 71, "duration": 19, "velocity": 81}, {"time": 2153, "pitch": 69, "duration": 7, "velocity": 70}, {"time": 2159, "pitch": 71, "duration": 28, "velocity": 80}, {"time": 2393, "pitch": 64, "duration": 5, "velocity": 85}, {"time": 2399, "pitch": 64, "duration": 4, "velocity": 85}, {"time": 2405, "pitch": 69, "duration": 4, "velocity": 82}, {"time": 2411, "pitch": 71, "duration": 9, "velocity": 83}, {"time": 2423, "pitch": 69, "duration": 11, "velocity": 84}, {"time": 2435, "pitch": 67, "duration": 11, "velocity": 83}, {"time": 2447, "pitch": 64, "duration": 11, "velocity": 83}, {"time": 2483, "pitch": 69, "duration": 4, "velocity": 77}, {"time": 2489, "pitch": 69, "duration": 5, "velocity": 81}, {"time": 2495, "pitch": 67, "duration": 5, "velocity": 81}, {"time": 2501, "pitch": 69, "duration": 5, "velocity": 81}, {"time": 2507, "pitch": 67, "duration": 4, "velocity": 81}, {"time": 2513, "pitch": 69, "duration": 4, "velocity": 79}, {"time": 2519, "pitch": 71, "duration": 4, "velocity": 81}, {"time": 2525, "pitch": 72, "duration": 15, "velocity": 81}, {"time": 2543, "pitch": 71, "duration": 6, "velocity": 82}, {"time": 2549, "pitch": 69, "duration": 5, "velocity": 81}, {"time": 2555, "pitch": 71, "duration": 17, "velocity": 80}, {"time": 2579, "pitch": 67, "duration": 18, "velocity": 75}, {"time": 2603, "pitch": 69, "duration": 12, "velocity": 81}, {"time": 2615, "pitch": 65, "duration": 32, "velocity": 83}, {"time": 2651, "pitch": 67, "duration": 4, "velocity": 80}, {"time": 2657, "pitch": 69, "duration": 5, "velocity": 81}, {"time": 2663, "pitch": 72, "duration": 11, "velocity": 82}, {"time": 2675, "pitch": 71, "duration": 6, "velocity": 79}, {"time": 2681, "pitch": 69, "duration": 34, "velocity": 76}, {"time": 2741, "pitch": 69, "duration": 4, "velocity": 81}, {"time": 2747, "pitch": 71, "duration": 6, "velocity": 81}, {"time": 2753, "pitch": 72, "duration": 4, "velocity": 81}, {"time": 2759, "pitch": 74, "duration": 5, "velocity": 81}, {"time": 2765, "pitch": 76, "duration": 10, "velocity": 81}, {"time": 2777, "pitch": 72, "duration": 5, "velocity": 78}, {"time": 2783, "pitch": 69, "duration": 6, "velocity": 76}, {"time": 2789, "pitch": 76, "duration": 10, "velocity": 77}, {"time": 2801, "pitch": 72, "duration": 5, "velocity": 82}, {"time": 2807, "pitch": 69, "duration": 6, "velocity": 82}, {"time": 2813, "pitch": 79, "duration": 4, "velocity": 85}, {"time": 2819, "pitch": 79, "duration": 6, "velocity": 81}, {"time": 2825, "pitch": 79, "duration": 6, "velocity": 72}, {"time": 2831, "pitch": 74, "duration": 12, "velocity": 81}, {"time": 2843, "pitch": 72, "duration": 5, "velocity": 83}, {"time": 2849, "pitch": 71, "duration": 5, "velocity": 79}, {"time": 2855, "pitch": 72, "duration": 5, "velocity": 81}, {"time": 2861, "pitch": 74, "duration": 12, "velocity": 83}, {"time": 2873, "pitch": 71, "duration": 5, "velocity": 81}, {"time": 2879, "pitch": 67, "duration": 4, "velocity": 82}, {"time": 2885, "pitch": 79, "duration": 4, "velocity": 82}, {"time": 2891, "pitch": 77, "duration": 5, "velocity": 79}, {"time": 2897, "pitch": 76, "duration": 5, "velocity": 82}, {"time": 2903, "pitch": 74, "duration": 5, "velocity": 86}, {"time": 2909, "pitch": 74, "duration": 5, "velocity": 85}, {"time": 2915, "pitch": 76, "duration": 4, "velocity": 77}, {"time": 2921, "pitch": 74, "duration": 4, "velocity": 85}, {"time": 2927, "pitch": 73, "duration": 12, "velocity": 77}, {"time": 2939, "pitch": 73, "duration": 4, "velocity": 81}, {"time": 2945, "pitch": 74, "duration": 4, "velocity": 85}, {"time": 2951, "pitch": 76, "duration": 4, "velocity": 82}, {"time": 2957, "pitch": 77, "duration": 9, "velocity": 82}, {"time": 2969, "pitch": 72, "duration": 4, "velocity": 77}, {"time": 2975, "pitch": 69, "duration": 5, "velocity": 75}, {"time": 2981, "pitch": 76, "duration": 8, "velocity": 81}, {"time": 2993, "pitch": 72, "duration": 10, "velocity": 76}, {"time": 3005, "pitch": 71, "duration": 4, "velocity": 81}, {"time": 3011, "pitch": 71, "duration": 5, "velocity": 82}, {"time": 3017, "pitch": 72, "duration": 5, "velocity": 79}, {"time": 3023, "pitch": 71, "duration": 4, "velocity": 82}, {"time": 3035, "pitch": 74, "duration": 4, "velocity": 85}, {"time": 3041, "pitch": 74, "duration": 5, "velocity": 83}, {"time": 3047, "pitch": 72, "duration": 6, "velocity": 81}, {"time": 3053, "pitch": 77, "duration": 10, "velocity": 75}, {"time": 3065, "pitch": 74, "duration": 10, "velocity": 82}, {"time": 3077, "pitch": 74, "duration": 5, "velocity": 82}, {"time": 3083, "pitch": 72, "duration": 4, "velocity": 82}, {"time": 3089, "pitch": 74, "duration": 6, "velocity": 90}, {"time": 3095, "pitch": 72, "duration": 5, "velocity": 83}, {"time": 3101, "pitch": 77, "duration": 5, "velocity": 81}, {"time": 3107, "pitch": 76, "duration": 5, "velocity": 83}, {"time": 3113, "pitch": 74, "duration": 4, "velocity": 85}, {"time": 3119, "pitch": 76, "duration": 9, "velocity": 83}, {"time": 3131, "pitch": 69, "duration": 4, "velocity": 82}, {"time": 3137, "pitch": 72, "duration": 4, "velocity": 81}, {"time": 3143, "pitch": 74, "duration": 4, "velocity": 81}, {"time": 3149, "pitch": 76, "duration": 9, "velocity": 81}, {"time": 3161, "pitch": 72, "duration": 4, "velocity": 82}, {"time": 3167, "pitch": 69, "duration": 4, "velocity": 78}, {"time": 3173, "pitch": 76, "duration": 10, "velocity": 82}, {"time": 3185, "pitch": 72, "duration": 4, "velocity": 82}, {"time": 3191, "pitch": 69, "duration": 5, "velocity": 81}, {"time": 3197, "pitch": 79, "duration": 4, "velocity": 81}, {"time": 3203, "pitch": 79, "duration": 4, "velocity": 77}, {"time": 3209, "pitch": 79, "duration": 5, "velocity": 79}, {"time": 3215, "pitch": 74, "duration": 9, "velocity": 83}, {"time": 3227, "pitch": 72, "duration": 3, "velocity": 77}, {"time": 3233, "pitch": 71, "duration": 4, "velocity": 78}, {"time": 3239, "pitch": 72, "duration": 4, "velocity": 79}, {"time": 3245, "pitch": 74, "duration": 9, "velocity": 82}, {"time": 3257, "pitch": 71, "duration": 5, "velocity": 81}, {"time": 3263, "pitch": 67, "duration": 5, "velocity": 77}, {"time": 3269, "pitch": 79, "duration": 4, "velocity": 83}, {"time": 3275, "pitch": 77, "duration": 4, "velocity": 81}, {"time": 3281, "pitch": 76, "duration": 3, "velocity": 87}, {"time": 3287, "pitch": 74, "duration": 4, "velocity": 83}, {"time": 3293, "pitch": 74, "duration": 5, "velocity": 83}, {"time": 3299, "pitch": 76, "duration": 5, "velocity": 82}, {"time": 3305, "pitch": 74, "duration": 4, "velocity": 82}, {"time": 3311, "pitch": 73, "duration": 10, "velocity": 81}, {"time": 3323, "pitch": 74, "duration": 4, "velocity": 85}, {"time": 3329, "pitch": 74, "duration": 4, "velocity": 83}, {"time": 3335, "pitch": 76, "duration": 4, "velocity": 81}, {"time": 3341, "pitch": 77, "duration": 10, "velocity": 81}, {"time": 3353, "pitch": 72, "duration": 12, "velocity": 80}, {"time": 3365, "pitch": 69, "duration": 11, "velocity": 81}, {"time": 3377, "pitch": 76, "duration": 4, "velocity": 82}, {"time": 3383, "pitch": 74, "duration": 9, "velocity": 81}, {"time": 3395, "pitch": 71, "duration": 9, "velocity": 80}, {"time": 3407, "pitch": 67, "duration": 4, "velocity": 62}, {"time": 3413, "pitch": 67, "duration": 6, "velocity": 82}, {"time": 3419, "pitch": 76, "duration": 10, "velocity": 82}, {"time": 3431, "pitch": 74, "duration": 19, "velocity": 86}, {"time": 3449, "pitch": 72, "duration": 30, "velocity": 77}, {"time": 3479, "pitch": 71, "duration": 19, "velocity": 81}, {"time": 3497, "pitch": 69, "duration": 7, "velocity": 70}, {"time": 3503, "pitch": 71, "duration": 28, "velocity": 80}, {"time": 3893, "pitch": 69, "duration": 4, "velocity": 81}, {"time": 3899, "pitch": 71, "duration": 6, "velocity": 81}, {"time": 3905, "pitch": 72, "duration": 4, "velocity": 81}, {"time": 3911, "pitch": 74, "duration": 5, "velocity": 81}, {"time": 3917, "pitch": 76, "duration": 10, "velocity": 81}, {"time": 3929, "pitch": 72, "duration": 5, "velocity": 78}, {"time": 3935, "pitch": 69, "duration": 6, "velocity": 76}, {"time": 3941, "pitch": 76, "duration": 10, "velocity": 77}, {"time": 3953, "pitch": 72, "duration": 5, "velocity": 82}, {"time": 3959, "pitch": 69, "duration": 6, "velocity": 82}, {"time": 3965, "pitch": 79, "duration": 4, "velocity": 85}, {"time": 3971, "pitch": 79, "duration": 6, "velocity": 81}, {"time": 3977, "pitch": 79, "duration": 6, "velocity": 72}, {"time": 3983, "pitch": 74, "duration": 12, "velocity": 81}, {"time": 3995, "pitch": 72, "duration": 5, "velocity": 83}, {"time": 4001, "pitch": 71, "duration": 5, "velocity": 79}, {"time": 4007, "pitch": 72, "duration": 5, "velocity": 81}, {"time": 4013, "pitch": 74, "duration": 12, "velocity": 83}, {"time": 4025, "pitch": 71, "duration": 5, "velocity": 81}, {"time": 4031, "pitch": 67, "duration": 4, "velocity": 82}, {"time": 4037, "pitch": 79, "duration": 4, "velocity": 82}, {"time": 4043, "pitch": 77, "duration": 5, "velocity": 79}, {"time": 4049, "pitch": 76, "duration": 5, "velocity": 82}, {"time": 4055, "pitch": 74, "duration": 5, "velocity": 86}, {"time": 4061, "pitch": 74, "duration": 5, "velocity": 85}, {"time": 4067, "pitch": 76, "duration": 4, "velocity": 77}, {"time": 4073, "pitch": 74, "duration": 4, "velocity": 85}, {"time": 4079, "pitch": 73, "duration": 12, "velocity": 77}, {"time": 4091, "pitch": 73, "duration": 4, "velocity": 81}, {"time": 4097, "pitch": 74, "duration": 4, "velocity": 85}, {"time": 4103, "pitch": 76, "duration": 4, "velocity": 82}, {"time": 4109, "pitch": 77, "duration": 9, "velocity": 82}, {"time": 4121, "pitch": 72, "duration": 4, "velocity": 77}, {"time": 4127, "pitch": 69, "duration": 5, "velocity": 75}, {"time": 4133, "pitch": 76, "duration": 8, "velocity": 81}, {"time": 4145, "pitch": 72, "duration": 10, "velocity": 76}, {"time": 4157, "pitch": 71, "duration": 4, "velocity": 81}, {"time": 4163, "pitch": 71, "duration": 5, "velocity": 82}, {"time": 4169, "pitch": 72, "duration": 5, "velocity": 79}, {"time": 4175, "pitch": 71, "duration": 4, "velocity": 82}, {"time": 4187, "pitch": 74, "duration": 4, "velocity": 85}, {"time": 4193, "pitch": 74, "duration": 5, "velocity": 83}, {"time": 4199, "pitch": 72, "duration": 6, "velocity": 81}, {"time": 4205, "pitch": 77, "duration": 10, "velocity": 75}, {"time": 4217, "pitch": 74, "duration": 10, "velocity": 82}, {"time": 4229, "pitch": 74, "duration": 5, "velocity": 82}, {"time": 4235, "pitch": 72, "duration": 4, "velocity": 82}, {"time": 4241, "pitch": 74, "duration": 6, "velocity": 90}, {"time": 4247, "pitch": 72, "duration": 5, "velocity": 83}, {"time": 4253, "pitch": 77, "duration": 5, "velocity": 81}, {"time": 4259, "pitch": 76, "duration": 5, "velocity": 83}, {"time": 4265, "pitch": 74, "duration": 4, "velocity": 85}, {"time": 4271, "pitch": 76, "duration": 9, "velocity": 83}, {"time": 4283, "pitch": 69, "duration": 4, "velocity": 82}, {"time": 4289, "pitch": 72, "duration": 4, "velocity": 81}, {"time": 4295, "pitch": 74, "duration": 4, "velocity": 81}, {"time": 4301, "pitch": 76, "duration": 9, "velocity": 81}, {"time": 4313, "pitch": 72, "duration": 4, "velocity": 82}, {"time": 4319, "pitch": 69, "duration": 4, "velocity": 78}, {"time": 4325, "pitch": 76, "duration": 10, "velocity": 82}, {"time": 4337, "pitch": 72, "duration": 4, "velocity": 82}, {"time": 4343, "pitch": 69, "duration": 5, "velocity": 81}, {"time": 4349, "pitch": 79, "duration": 4, "velocity": 81}, {"time": 4355, "pitch": 79, "duration": 4, "velocity": 77}, {"time": 4361, "pitch": 79, "duration": 5, "velocity": 79}, {"time": 4367, "pitch": 74, "duration": 9, "velocity": 83}, {"time": 4379, "pitch": 72, "duration": 3, "velocity": 77}, {"time": 4385, "pitch": 71, "duration": 4, "velocity": 78}, {"time": 4391, "pitch": 72, "duration": 4, "velocity": 79}, {"time": 4397, "pitch": 74, "duration": 9, "velocity": 82}, {"time": 4409, "pitch": 71, "duration": 5, "velocity": 81}, {"time": 4415, "pitch": 67, "duration": 5, "velocity": 77}, {"time": 4421, "pitch": 79, "duration": 4, "velocity": 83}, {"time": 4427, "pitch": 77, "duration": 4, "velocity": 81}, {"time": 4433, "pitch": 76, "duration": 3, "velocity": 87}, {"time": 4439, "pitch": 74, "duration": 4, "velocity": 83}, {"time": 4445, "pitch": 74, "duration": 5, "velocity": 83}, {"time": 4451, "pitch": 76, "duration": 5, "velocity": 82}, {"time": 4457, "pitch": 74, "duration": 4, "velocity": 82}, {"time": 4463, "pitch": 73, "duration": 10, "velocity": 81}, {"time": 4475, "pitch": 74, "duration": 4, "velocity": 85}, {"time": 4481, "pitch": 74, "duration": 4, "velocity": 83}, {"time": 4487, "pitch": 76, "duration": 4, "velocity": 81}, {"time": 4493, "pitch": 77, "duration": 10, "velocity": 81}, {"time": 4505, "pitch": 72, "duration": 12, "velocity": 80}, {"time": 4517, "pitch": 69, "duration": 11, "velocity": 81}, {"time": 4529, "pitch": 76, "duration": 4, "velocity": 82}, {"time": 4535, "pitch": 74, "duration": 9, "velocity": 81}, {"time": 4547, "pitch": 71, "duration": 9, "velocity": 80}, {"time": 4559, "pitch": 67, "duration": 4, "velocity": 62}, {"time": 4565, "pitch": 67, "duration": 6, "velocity": 82}, {"time": 4571, "pitch": 76, "duration": 10, "velocity": 82}, {"time": 4583, "pitch": 74, "duration": 19, "velocity": 86}, {"time": 4601, "pitch": 72, "duration": 30, "velocity": 77}, {"time": 4631, "pitch": 71, "duration": 19, "velocity": 81}, {"time": 4649, "pitch": 69, "duration": 7, "velocity": 70}, {"time": 4655, "pitch": 71, "duration": 28, "velocity": 80}]}, {"program": 0, "is_drum": false, "name": "PIANO", "notes": [{"time": 77, "pitch": 45, "duration": 13, "velocity": 81}, {"time": 77, "pitch": 57, "duration": 7, "velocity": 74}, {"time": 77, "pitch": 60, "duration": 7, "velocity": 76}, {"time": 86, "pitch": 55, "duration": 2, "velocity": 86}, {"time": 86, "pitch": 60, "duration": 2, "velocity": 85}, {"time": 95, "pitch": 55, "duration": 8, "velocity": 82}, {"time": 95, "pitch": 60, "duration": 7, "velocity": 82}, {"time": 101, "pitch": 43, "duration": 20, "velocity": 81}, {"time": 119, "pitch": 55, "duration": 4, "velocity": 83}, {"time": 119, "pitch": 59, "duration": 4, "velocity": 83}, {"time": 119, "pitch": 62, "duration": 4, "velocity": 82}, {"time": 125, "pitch": 45, "duration": 13, "velocity": 82}, {"time": 125, "pitch": 57, "duration": 7, "velocity": 74}, {"time": 125, "pitch": 60, "duration": 7, "velocity": 81}, {"time": 134, "pitch": 57, "duration": 2, "velocity": 73}, {"time": 134, "pitch": 60, "duration": 2, "velocity": 75}, {"time": 134, "pitch": 64, "duration": 2, "velocity": 78}, {"time": 143, "pitch": 57, "duration": 7, "velocity": 70}, {"time": 143, "pitch": 60, "duration": 7, "velocity": 71}, {"time": 143, "pitch": 64, "duration": 12, "velocity": 81}, {"time": 146, "pitch": 43, "duration": 18, "velocity": 71}, {"time": 155, "pitch": 55, "duration": 7, "velocity": 76}, {"time": 155, "pitch": 59, "duration": 7, "velocity": 77}, {"time": 155, "pitch": 62, "duration": 7, "velocity": 78}, {"time": 161, "pitch": 50, "duration": 4, "velocity": 70}, {"time": 164, "pitch": 55, "duration": 3, "velocity": 81}, {"time": 164, "pitch": 59, "duration": 3, "velocity": 82}, {"time": 164, "pitch": 62, "duration": 3, "velocity": 82}, {"time": 173, "pitch": 45, "duration": 14, "velocity": 82}, {"time": 173, "pitch": 57, "duration": 7, "velocity": 70}, {"time": 173, "pitch": 60, "duration": 7, "velocity": 78}, {"time": 182, "pitch": 57, "duration": 3, "velocity": 74}, {"time": 182, "pitch": 60, "duration": 2, "velocity": 78}, {"time": 191, "pitch": 57, "duration": 4, "velocity": 75}, {"time": 191, "pitch": 60, "duration": 4, "velocity": 76}, {"time": 197, "pitch": 43, "duration": 21, "velocity": 66}, {"time": 197, "pitch": 55, "duration": 14, "velocity": 74}, {"time": 197, "pitch": 59, "duration": 14, "velocity": 75}, {"time": 212, "pitch": 55, "duration": 4, "velocity": 80}, {"time": 215, "pitch": 59, "duration": 4, "velocity": 81}, {"time": 221, "pitch": 45, "duration": 13, "velocity": 81}, {"time": 221, "pitch": 57, "duration": 7, "velocity": 75}, {"time": 221, "pitch": 60, "duration": 7, "velocity": 83}, {"time": 230, "pitch": 57, "duration": 2, "velocity": 75}, {"time": 230, "pitch": 60, "duration": 2, "velocity": 82}, {"time": 239, "pitch": 57, "duration": 8, "velocity": 76}, {"time": 239, "pitch": 60, "duration": 9, "velocity": 80}, {"time": 245, "pitch": 43, "duration": 10, "velocity": 80}, {"time": 251, "pitch": 55, "duration": 7, "velocity": 82}, {"time": 251, "pitch": 59, "duration": 7, "velocity": 83}, {"time": 251, "pitch": 62, "duration": 7, "velocity": 85}, {"time": 257, "pitch": 50, "duration": 3, "velocity": 79}, {"time": 260, "pitch": 55, "duration": 4, "velocity": 82}, {"time": 260, "pitch": 59, "duration": 5, "velocity": 86}, {"time": 260, "pitch": 62, "duration": 5, "velocity": 86}, {"time": 263, "pitch": 43, "duration": 5, "velocity": 77}, {"time": 266, "pitch": 55, "duration": 2, "velocity": 82}, {"time": 269, "pitch": 45, "duration": 23, "velocity": 83}, {"time": 269, "pitch": 55, "duration": 7, "velocity": 82}, {"time": 269, "pitch": 60, "duration": 7, "velocity": 83}, {"time": 278, "pitch": 55, "duration": 2, "velocity": 81}, {"time": 278, "pitch": 60, "duration": 2, "velocity": 82}, {"time": 287, "pitch": 55, "duration": 7, "velocity": 84}, {"time": 287, "pitch": 60, "duration": 7, "velocity": 85}, {"time": 293, "pitch": 43, "duration": 18, "velocity": 82}, {"time": 296, "pitch": 55, "duration": 4, "velocity": 82}, {"time": 296, "pitch": 59, "duration": 4, "velocity": 86}, {"time": 305, "pitch": 55, "duration": 6, "velocity": 82}, {"time": 305, "pitch": 59, "duration": 6, "velocity": 82}, {"time": 317, "pitch": 45, "duration": 21, "velocity": 83}, {"time": 317, "pitch": 57, "duration": 8, "velocity": 81}, {"time": 317, "pitch": 60, "duration": 8, "velocity": 83}, {"time": 326, "pitch": 57, "duration": 2, "velocity": 82}, {"time": 326, "pitch": 60, "duration": 2, "velocity": 83}, {"time": 335, "pitch": 57, "duration": 7, "velocity": 83}, {"time": 335, "pitch": 60, "duration": 7, "velocity": 87}, {"time": 341, "pitch": 43, "duration": 22, "velocity": 82}, {"time": 344, "pitch": 55, "duration": 5, "velocity": 82}, {"time": 344, "pitch": 59, "duration": 6, "velocity": 90}, {"time": 350, "pitch": 55, "duration": 4, "velocity": 84}, {"time": 353, "pitch": 50, "duration": 10, "velocity": 85}, {"time": 359, "pitch": 55, "duration": 3, "velocity": 80}, {"time": 365, "pitch": 45, "duration": 20, "velocity": 83}, {"time": 365, "pitch": 57, "duration": 7, "velocity": 82}, {"time": 365, "pitch": 60, "duration": 7, "velocity": 82}, {"time": 374, "pitch": 57, "duration": 2, "velocity": 78}, {"time": 374, "pitch": 60, "duration": 2, "velocity": 80}, {"time": 383, "pitch": 57, "duration": 9, "velocity": 75}, {"time": 383, "pitch": 60, "duration": 10, "velocity": 79}, {"time": 389, "pitch": 43, "duration": 22, "velocity": 82}, {"time": 398, "pitch": 55, "duration": 3, "velocity": 81}, {"time": 398, "pitch": 59, "duration": 3, "velocity": 82}, {"time": 401, "pitch": 50, "duration": 10, "velocity": 77}, {"time": 407, "pitch": 55, "duration": 5, "velocity": 83}, {"time": 407, "pitch": 59, "duration": 5, "velocity": 84}, {"time": 413, "pitch": 45, "duration": 23, "velocity": 83}, {"time": 413, "pitch": 55, "duration": 7, "velocity": 82}, {"time": 413, "pitch": 60, "duration": 7, "velocity": 83}, {"time": 422, "pitch": 55, "duration": 2, "velocity": 81}, {"time": 422, "pitch": 60, "duration": 2, "velocity": 82}, {"time": 431, "pitch": 55, "duration": 7, "velocity": 84}, {"time": 431, "pitch": 60, "duration": 7, "velocity": 85}, {"time": 437, "pitch": 43, "duration": 18, "velocity": 82}, {"time": 440, "pitch": 55, "duration": 4, "velocity": 82}, {"time": 440, "pitch": 59, "duration": 4, "velocity": 86}, {"time": 449, "pitch": 55, "duration": 6, "velocity": 82}, {"time": 449, "pitch": 59, "duration": 6, "velocity": 82}, {"time": 461, "pitch": 45, "duration": 21, "velocity": 83}, {"time": 461, "pitch": 57, "duration": 8, "velocity": 81}, {"time": 461, "pitch": 60, "duration": 8, "velocity": 83}, {"time": 470, "pitch": 57, "duration": 2, "velocity": 82}, {"time": 470, "pitch": 60, "duration": 2, "velocity": 83}, {"time": 479, "pitch": 57, "duration": 7, "velocity": 83}, {"time": 479, "pitch": 60, "duration": 7, "velocity": 87}, {"time": 485, "pitch": 43, "duration": 22, "velocity": 82}, {"time": 488, "pitch": 55, "duration": 5, "velocity": 82}, {"time": 488, "pitch": 59, "duration": 6, "velocity": 90}, {"time": 494, "pitch": 55, "duration": 4, "velocity": 84}, {"time": 497, "pitch": 50, "duration": 10, "velocity": 85}, {"time": 503, "pitch": 55, "duration": 3, "velocity": 80}, {"time": 509, "pitch": 45, "duration": 20, "velocity": 83}, {"time": 509, "pitch": 57, "duration": 7, "velocity": 82}, {"time": 509, "pitch": 60, "duration": 7, "velocity": 82}, {"time": 518, "pitch": 57, "duration": 2, "velocity": 78}, {"time": 518, "pitch": 60, "duration": 2, "velocity": 80}, {"time": 527, "pitch": 57, "duration": 9, "velocity": 75}, {"time": 527, "pitch": 60, "duration": 10, "velocity": 79}, {"time": 533, "pitch": 43, "duration": 22, "velocity": 82}, {"time": 542, "pitch": 55, "duration": 3, "velocity": 81}, {"time": 542, "pitch": 59, "duration": 3, "velocity": 82}, {"time": 545, "pitch": 50, "duration": 10, "velocity": 77}, {"time": 551, "pitch": 55, "duration": 5, "velocity": 83}, {"time": 551, "pitch": 59, "duration": 5, "velocity": 84}, {"time": 557, "pitch": 45, "duration": 23, "velocity": 83}, {"time": 557, "pitch": 55, "duration": 7, "velocity": 82}, {"time": 557, "pitch": 60, "duration": 7, "velocity": 83}, {"time": 566, "pitch": 55, "duration": 2, "velocity": 81}, {"time": 566, "pitch": 60, "duration": 2, "velocity": 82}, {"time": 575, "pitch": 55, "duration": 7, "velocity": 84}, {"time": 575, "pitch": 60, "duration": 7, "velocity": 85}, {"time": 581, "pitch": 43, "duration": 18, "velocity": 82}, {"time": 584, "pitch": 55, "duration": 4, "velocity": 82}, {"time": 584, "pitch": 59, "duration": 4, "velocity": 86}, {"time": 593, "pitch": 55, "duration": 6, "velocity": 82}, {"time": 593, "pitch": 59, "duration": 6, "velocity": 82}, {"time": 605, "pitch": 45, "duration": 21, "velocity": 83}, {"time": 605, "pitch": 57, "duration": 8, "velocity": 81}, {"time": 605, "pitch": 60, "duration": 8, "velocity": 83}, {"time": 614, "pitch": 57, "duration": 2, "velocity": 82}, {"time": 614, "pitch": 60, "duration": 2, "velocity": 83}, {"time": 623, "pitch": 57, "duration": 7, "velocity": 83}, {"time": 623, "pitch": 60, "duration": 7, "velocity": 87}, {"time": 629, "pitch": 43, "duration": 22, "velocity": 82}, {"time": 632, "pitch": 55, "duration": 5, "velocity": 82}, {"time": 632, "pitch": 59, "duration": 6, "velocity": 90}, {"time": 638, "pitch": 55, "duration": 4, "velocity": 84}, {"time": 641, "pitch": 50, "duration": 10, "velocity": 85}, {"time": 647, "pitch": 55, "duration": 3, "velocity": 80}, {"time": 653, "pitch": 45, "duration": 23, "velocity": 83}, {"time": 653, "pitch": 55, "duration": 7, "velocity": 82}, {"time": 653, "pitch": 60, "duration": 7, "velocity": 83}, {"time": 662, "pitch": 55, "duration": 2, "velocity": 81}, {"time": 662, "pitch": 60, "duration": 2, "velocity": 82}, {"time": 671, "pitch": 55, "duration": 7, "velocity": 84}, {"time": 671, "pitch": 60, "duration": 7, "velocity": 85}, {"time": 677, "pitch": 43, "duration": 18, "velocity": 82}, {"time": 680, "pitch": 55, "duration": 4, "velocity": 82}, {"time": 680, "pitch": 59, "duration": 4, "velocity": 86}, {"time": 689, "pitch": 55, "duration": 6, "velocity": 82}, {"time": 689, "pitch": 59, "duration": 6, "velocity": 82}, {"time": 701, "pitch": 45, "duration": 21, "velocity": 83}, {"time": 701, "pitch": 57, "duration": 8, "velocity": 81}, {"time": 701, "pitch": 60, "duration": 8, "velocity": 83}, {"time": 710, "pitch": 57, "duration": 2, "velocity": 82}, {"time": 710, "pitch": 60, "duration": 2, "velocity": 83}, {"time": 719, "pitch": 57, "duration": 7, "velocity": 83}, {"time": 719, "pitch": 60, "duration": 7, "velocity": 87}, {"time": 725, "pitch": 43, "duration": 22, "velocity": 82}, {"time": 728, "pitch": 55, "duration": 5, "velocity": 82}, {"time": 728, "pitch": 59, "duration": 6, "velocity": 90}, {"time": 734, "pitch": 55, "duration": 4, "velocity": 84}, {"time": 737, "pitch": 50, "duration": 10, "velocity": 85}, {"time": 743, "pitch": 55, "duration": 3, "velocity": 80}, {"time": 749, "pitch": 45, "duration": 20, "velocity": 83}, {"time": 749, "pitch": 57, "duration": 7, "velocity": 82}, {"time": 749, "pitch": 60, "duration": 7, "velocity": 82}, {"time": 758, "pitch": 57, "duration": 2, "velocity": 78}, {"time": 758, "pitch": 60, "duration": 2, "velocity": 80}, {"time": 767, "pitch": 57, "duration": 9, "velocity": 75}, {"time": 767, "pitch": 60, "duration": 10, "velocity": 79}, {"time": 773, "pitch": 43, "duration": 22, "velocity": 82}, {"time": 782, "pitch": 55, "duration": 3, "velocity": 81}, {"time": 782, "pitch": 59, "duration": 3, "velocity": 82}, {"time": 785, "pitch": 50, "duration": 10, "velocity": 77}, {"time": 791, "pitch": 55, "duration": 5, "velocity": 83}, {"time": 791, "pitch": 59, "duration": 5, "velocity": 84}, {"time": 797, "pitch": 45, "duration": 23, "velocity": 83}, {"time": 797, "pitch": 55, "duration": 7, "velocity": 82}, {"time": 797, "pitch": 60, "duration": 7, "velocity": 83}, {"time": 806, "pitch": 55, "duration": 2, "velocity": 81}, {"time": 806, "pitch": 60, "duration": 2, "velocity": 82}, {"time": 815, "pitch": 55, "duration": 7, "velocity": 84}, {"time": 815, "pitch": 60, "duration": 7, "velocity": 85}, {"time": 821, "pitch": 43, "duration": 6, "velocity": 82}, {"time": 824, "pitch": 55, "duration": 4, "velocity": 82}, {"time": 824, "pitch": 59, "duration": 4, "velocity": 86}, {"time": 827, "pitch": 45, "duration": 5, "velocity": 81}, {"time": 833, "pitch": 47, "duration": 4, "velocity": 82}, {"time": 833, "pitch": 55, "duration": 6, "velocity": 82}, {"time": 833, "pitch": 59, "duration": 6, "velocity": 82}, {"time": 839, "pitch": 48, "duration": 5, "velocity": 82}, {"time": 845, "pitch": 38, "duration": 12, "velocity": 82}, {"time": 845, "pitch": 57, "duration": 7, "velocity": 76}, {"time": 845, "pitch": 62, "duration": 7, "velocity": 81}, {"time": 845, "pitch": 65, "duration": 7, "velocity": 81}, {"time": 854, "pitch": 57, "duration": 2, "velocity": 79}, {"time": 854, "pitch": 62, "duration": 2, "velocity": 82}, {"time": 854, "pitch": 65, "duration": 2, "velocity": 81}, {"time": 863, "pitch": 57, "duration": 7, "velocity": 81}, {"time": 863, "pitch": 62, "duration": 7, "velocity": 82}, {"time": 863, "pitch": 65, "duration": 8, "velocity": 81}, {"time": 869, "pitch": 38, "duration": 14, "velocity": 85}, {"time": 872, "pitch": 57, "duration": 3, "velocity": 81}, {"time": 872, "pitch": 62, "duration": 3, "velocity": 84}, {"time": 878, "pitch": 57, "duration": 5, "velocity": 82}, {"time": 881, "pitch": 62, "duration": 3, "velocity": 83}, {"time": 881, "pitch": 65, "duration": 4, "velocity": 82}, {"time": 887, "pitch": 57, "duration": 4, "velocity": 78}, {"time": 893, "pitch": 45, "duration": 19, "velocity": 82}, {"time": 893, "pitch": 57, "duration": 7, "velocity": 73}, {"time": 893, "pitch": 60, "duration": 7, "velocity": 79}, {"time": 902, "pitch": 57, "duration": 2, "velocity": 75}, {"time": 902, "pitch": 60, "duration": 2, "velocity": 76}, {"time": 902, "pitch": 64, "duration": 2, "velocity": 81}, {"time": 911, "pitch": 57, "duration": 12, "velocity": 81}, {"time": 911, "pitch": 60, "duration": 12, "velocity": 82}, {"time": 911, "pitch": 64, "duration": 11, "velocity": 85}, {"time": 917, "pitch": 43, "duration": 14, "velocity": 81}, {"time": 926, "pitch": 57, "duration": 2, "velocity": 81}, {"time": 926, "pitch": 60, "duration": 2, "velocity": 85}, {"time": 926, "pitch": 64, "duration": 3, "velocity": 86}, {"time": 935, "pitch": 40, "duration": 6, "velocity": 88}, {"time": 935, "pitch": 55, "duration": 8, "velocity": 81}, {"time": 935, "pitch": 59, "duration": 7, "velocity": 81}, {"time": 941, "pitch": 45, "duration": 19, "velocity": 82}, {"time": 941, "pitch": 57, "duration": 7, "velocity": 73}, {"time": 941, "pitch": 60, "duration": 7, "velocity": 79}, {"time": 950, "pitch": 57, "duration": 2, "velocity": 75}, {"time": 950, "pitch": 60, "duration": 2, "velocity": 76}, {"time": 950, "pitch": 64, "duration": 2, "velocity": 81}, {"time": 959, "pitch": 57, "duration": 12, "velocity": 81}, {"time": 959, "pitch": 60, "duration": 12, "velocity": 82}, {"time": 959, "pitch": 64, "duration": 11, "velocity": 85}, {"time": 965, "pitch": 43, "duration": 14, "velocity": 81}, {"time": 974, "pitch": 57, "duration": 2, "velocity": 81}, {"time": 974, "pitch": 60, "duration": 2, "velocity": 85}, {"time": 974, "pitch": 64, "duration": 3, "velocity": 86}, {"time": 983, "pitch": 40, "duration": 6, "velocity": 88}, {"time": 983, "pitch": 55, "duration": 8, "velocity": 81}, {"time": 983, "pitch": 59, "duration": 7, "velocity": 81}, {"time": 989, "pitch": 45, "duration": 19, "velocity": 82}, {"time": 989, "pitch": 57, "duration": 7, "velocity": 73}, {"time": 989, "pitch": 60, "duration": 7, "velocity": 79}, {"time": 998, "pitch": 57, "duration": 2, "velocity": 75}, {"time": 998, "pitch": 60, "duration": 2, "velocity": 76}, {"time": 998, "pitch": 64, "duration": 2, "velocity": 81}, {"time": 1007, "pitch": 57, "duration": 12, "velocity": 81}, {"time": 1007, "pitch": 60, "duration": 12, "velocity": 82}, {"time": 1007, "pitch": 64, "duration": 11, "velocity": 85}, {"time": 1013, "pitch": 43, "duration": 14, "velocity": 81}, {"time": 1022, "pitch": 57, "duration": 2, "velocity": 81}, {"time": 1022, "pitch": 60, "duration": 2, "velocity": 85}, {"time": 1022, "pitch": 64, "duration": 3, "velocity": 86}, {"time": 1031, "pitch": 40, "duration": 6, "velocity": 88}, {"time": 1031, "pitch": 55, "duration": 8, "velocity": 81}, {"time": 1031, "pitch": 59, "duration": 7, "velocity": 81}, {"time": 1037, "pitch": 45, "duration": 23, "velocity": 83}, {"time": 1037, "pitch": 55, "duration": 2, "velocity": 82}, {"time": 1037, "pitch": 60, "duration": 7, "velocity": 83}, {"time": 1046, "pitch": 55, "duration": 2, "velocity": 81}, {"time": 1046, "pitch": 60, "duration": 2, "velocity": 82}, {"time": 1055, "pitch": 55, "duration": 7, "velocity": 84}, {"time": 1055, "pitch": 60, "duration": 7, "velocity": 85}, {"time": 1061, "pitch": 43, "duration": 18, "velocity": 82}, {"time": 1064, "pitch": 55, "duration": 4, "velocity": 82}, {"time": 1064, "pitch": 59, "duration": 4, "velocity": 86}, {"time": 1073, "pitch": 55, "duration": 6, "velocity": 82}, {"time": 1073, "pitch": 59, "duration": 6, "velocity": 82}, {"time": 1085, "pitch": 45, "duration": 21, "velocity": 83}, {"time": 1085, "pitch": 57, "duration": 8, "velocity": 81}, {"time": 1085, "pitch": 60, "duration": 8, "velocity": 83}, {"time": 1094, "pitch": 57, "duration": 2, "velocity": 82}, {"time": 1094, "pitch": 60, "duration": 2, "velocity": 83}, {"time": 1103, "pitch": 57, "duration": 7, "velocity": 83}, {"time": 1103, "pitch": 60, "duration": 7, "velocity": 87}, {"time": 1109, "pitch": 43, "duration": 22, "velocity": 82}, {"time": 1112, "pitch": 55, "duration": 5, "velocity": 82}, {"time": 1112, "pitch": 59, "duration": 6, "velocity": 90}, {"time": 1118, "pitch": 55, "duration": 4, "velocity": 84}, {"time": 1121, "pitch": 50, "duration": 10, "velocity": 85}, {"time": 1127, "pitch": 55, "duration": 3, "velocity": 80}, {"time": 1133, "pitch": 45, "duration": 20, "velocity": 83}, {"time": 1133, "pitch": 57, "duration": 7, "velocity": 82}, {"time": 1133, "pitch": 60, "duration": 7, "velocity": 82}, {"time": 1142, "pitch": 57, "duration": 2, "velocity": 78}, {"time": 1142, "pitch": 60, "duration": 2, "velocity": 80}, {"time": 1151, "pitch": 57, "duration": 9, "velocity": 75}, {"time": 1151, "pitch": 60, "duration": 10, "velocity": 79}, {"time": 1157, "pitch": 43, "duration": 22, "velocity": 82}, {"time": 1166, "pitch": 55, "duration": 3, "velocity": 81}, {"time": 1166, "pitch": 59, "duration": 3, "velocity": 82}, {"time": 1169, "pitch": 50, "duration": 10, "velocity": 77}, {"time": 1175, "pitch": 55, "duration": 5, "velocity": 83}, {"time": 1175, "pitch": 59, "duration": 5, "velocity": 84}, {"time": 1181, "pitch": 45, "duration": 23, "velocity": 83}, {"time": 1181, "pitch": 55, "duration": 7, "velocity": 82}, {"time": 1181, "pitch": 60, "duration": 7, "velocity": 83}, {"time": 1190, "pitch": 55, "duration": 2, "velocity": 81}, {"time": 1190, "pitch": 60, "duration": 2, "velocity": 82}, {"time": 1199, "pitch": 55, "duration": 7, "velocity": 84}, {"time": 1199, "pitch": 60, "duration": 7, "velocity": 85}, {"time": 1205, "pitch": 43, "duration": 6, "velocity": 82}, {"time": 1208, "pitch": 55, "duration": 4, "velocity": 82}, {"time": 1208, "pitch": 59, "duration": 4, "velocity": 86}, {"time": 1211, "pitch": 45, "duration": 5, "velocity": 81}, {"time": 1217, "pitch": 47, "duration": 4, "velocity": 82}, {"time": 1217, "pitch": 55, "duration": 6, "velocity": 82}, {"time": 1217, "pitch": 59, "duration": 6, "velocity": 82}, {"time": 1223, "pitch": 48, "duration": 5, "velocity": 82}, {"time": 1229, "pitch": 38, "duration": 12, "velocity": 82}, {"time": 1229, "pitch": 57, "duration": 7, "velocity": 76}, {"time": 1229, "pitch": 62, "duration": 7, "velocity": 81}, {"time": 1229, "pitch": 65, "duration": 7, "velocity": 81}, {"time": 1238, "pitch": 57, "duration": 2, "velocity": 79}, {"time": 1238, "pitch": 62, "duration": 2, "velocity": 82}, {"time": 1238, "pitch": 65, "duration": 2, "velocity": 81}, {"time": 1247, "pitch": 57, "duration": 7, "velocity": 81}, {"time": 1247, "pitch": 62, "duration": 7, "velocity": 82}, {"time": 1247, "pitch": 65, "duration": 8, "velocity": 81}, {"time": 1253, "pitch": 38, "duration": 14, "velocity": 85}, {"time": 1256, "pitch": 57, "duration": 3, "velocity": 81}, {"time": 1256, "pitch": 62, "duration": 3, "velocity": 84}, {"time": 1262, "pitch": 57, "duration": 5, "velocity": 82}, {"time": 1265, "pitch": 62, "duration": 3, "velocity": 83}, {"time": 1265, "pitch": 65, "duration": 4, "velocity": 82}, {"time": 1271, "pitch": 57, "duration": 4, "velocity": 78}, {"time": 1277, "pitch": 45, "duration": 19, "velocity": 82}, {"time": 1277, "pitch": 57, "duration": 7, "velocity": 73}, {"time": 1277, "pitch": 60, "duration": 7, "velocity": 79}, {"time": 1286, "pitch": 57, "duration": 2, "velocity": 75}, {"time": 1286, "pitch": 60, "duration": 2, "velocity": 76}, {"time": 1286, "pitch": 64, "duration": 2, "velocity": 81}, {"time": 1295, "pitch": 57, "duration": 12, "velocity": 81}, {"time": 1295, "pitch": 60, "duration": 12, "velocity": 82}, {"time": 1295, "pitch": 64, "duration": 11, "velocity": 85}, {"time": 1301, "pitch": 43, "duration": 14, "velocity": 81}, {"time": 1310, "pitch": 57, "duration": 2, "velocity": 81}, {"time": 1310, "pitch": 60, "duration": 2, "velocity": 85}, {"time": 1310, "pitch": 64, "duration": 3, "velocity": 86}, {"time": 1319, "pitch": 40, "duration": 6, "velocity": 88}, {"time": 1319, "pitch": 55, "duration": 8, "velocity": 81}, {"time": 1319, "pitch": 59, "duration": 7, "velocity": 81}, {"time": 1325, "pitch": 45, "duration": 19, "velocity": 82}, {"time": 1325, "pitch": 57, "duration": 7, "velocity": 73}, {"time": 1325, "pitch": 60, "duration": 7, "velocity": 79}, {"time": 1334, "pitch": 57, "duration": 2, "velocity": 75}, {"time": 1334, "pitch": 60, "duration": 2, "velocity": 76}, {"time": 1334, "pitch": 64, "duration": 2, "velocity": 81}, {"time": 1343, "pitch": 57, "duration": 12, "velocity": 81}, {"time": 1343, "pitch": 60, "duration": 12, "velocity": 82}, {"time": 1343, "pitch": 64, "duration": 11, "velocity": 85}, {"time": 1349, "pitch": 43, "duration": 14, "velocity": 81}, {"time": 1358, "pitch": 57, "duration": 2, "velocity": 81}, {"time": 1358, "pitch": 60, "duration": 2, "velocity": 85}, {"time": 1358, "pitch": 64, "duration": 3, "velocity": 86}, {"time": 1367, "pitch": 40, "duration": 6, "velocity": 88}, {"time": 1367, "pitch": 55, "duration": 8, "velocity": 81}, {"time": 1367, "pitch": 59, "duration": 7, "velocity": 81}, {"time": 1373, "pitch": 45, "duration": 19, "velocity": 82}, {"time": 1373, "pitch": 57, "duration": 7, "velocity": 73}, {"time": 1373, "pitch": 60, "duration": 7, "velocity": 79}, {"time": 1382, "pitch": 57, "duration": 2, "velocity": 75}, {"time": 1382, "pitch": 60, "duration": 2, "velocity": 76}, {"time": 1382, "pitch": 64, "duration": 2, "velocity": 81}, {"time": 1391, "pitch": 57, "duration": 12, "velocity": 81}, {"time": 1391, "pitch": 60, "duration": 12, "velocity": 82}, {"time": 1391, "pitch": 64, "duration": 11, "velocity": 85}, {"time": 1397, "pitch": 43, "duration": 14, "velocity": 81}, {"time": 1406, "pitch": 57, "duration": 2, "velocity": 81}, {"time": 1406, "pitch": 60, "duration": 2, "velocity": 85}, {"time": 1406, "pitch": 64, "duration": 3, "velocity": 86}, {"time": 1415, "pitch": 40, "duration": 6, "velocity": 88}, {"time": 1415, "pitch": 55, "duration": 8, "velocity": 81}, {"time": 1415, "pitch": 59, "duration": 7, "velocity": 81}, {"time": 1421, "pitch": 41, "duration": 21, "velocity": 83}, {"time": 1421, "pitch": 53, "duration": 7, "velocity": 76}, {"time": 1421, "pitch": 60, "duration": 6, "velocity": 79}, {"time": 1427, "pitch": 48, "duration": 10, "velocity": 81}, {"time": 1433, "pitch": 53, "duration": 7, "velocity": 82}, {"time": 1433, "pitch": 57, "duration": 6, "velocity": 84}, {"time": 1433, "pitch": 60, "duration": 7, "velocity": 83}, {"time": 1439, "pitch": 48, "duration": 3, "velocity": 62}, {"time": 1442, "pitch": 53, "duration": 3, "velocity": 82}, {"time": 1442, "pitch": 57, "duration": 3, "velocity": 85}, {"time": 1442, "pitch": 60, "duration": 3, "velocity": 83}, {"time": 1445, "pitch": 41, "duration": 4, "velocity": 82}, {"time": 1448, "pitch": 53, "duration": 3, "velocity": 82}, {"time": 1448, "pitch": 57, "duration": 3, "velocity": 86}, {"time": 1448, "pitch": 60, "duration": 3, "velocity": 82}, {"time": 1451, "pitch": 41, "duration": 10, "velocity": 69}, {"time": 1451, "pitch": 48, "duration": 8, "velocity": 78}, {"time": 1457, "pitch": 53, "duration": 4, "velocity": 87}, {"time": 1457, "pitch": 57, "duration": 5, "velocity": 90}, {"time": 1457, "pitch": 60, "duration": 6, "velocity": 90}, {"time": 1463, "pitch": 41, "duration": 3, "velocity": 56}, {"time": 1463, "pitch": 48, "duration": 3, "velocity": 82}, {"time": 1469, "pitch": 43, "duration": 15, "velocity": 83}, {"time": 1469, "pitch": 55, "duration": 6, "velocity": 79}, {"time": 1469, "pitch": 59, "duration": 5, "velocity": 81}, {"time": 1475, "pitch": 50, "duration": 8, "velocity": 72}, {"time": 1481, "pitch": 55, "duration": 5, "velocity": 83}, {"time": 1481, "pitch": 59, "duration": 5, "velocity": 90}, {"time": 1481, "pitch": 62, "duration": 4, "velocity": 85}, {"time": 1481, "pitch": 67, "duration": 5, "velocity": 80}, {"time": 1490, "pitch": 55, "duration": 3, "velocity": 79}, {"time": 1490, "pitch": 59, "duration": 3, "velocity": 83}, {"time": 1490, "pitch": 62, "duration": 2, "velocity": 79}, {"time": 1493, "pitch": 43, "duration": 15, "velocity": 82}, {"time": 1496, "pitch": 55, "duration": 3, "velocity": 74}, {"time": 1496, "pitch": 59, "duration": 3, "velocity": 82}, {"time": 1496, "pitch": 62, "duration": 3, "velocity": 81}, {"time": 1499, "pitch": 50, "duration": 8, "velocity": 78}, {"time": 1505, "pitch": 55, "duration": 3, "velocity": 86}, {"time": 1505, "pitch": 59, "duration": 4, "velocity": 88}, {"time": 1505, "pitch": 62, "duration": 4, "velocity": 86}, {"time": 1511, "pitch": 43, "duration": 3, "velocity": 81}, {"time": 1517, "pitch": 40, "duration": 20, "velocity": 81}, {"time": 1517, "pitch": 52, "duration": 6, "velocity": 67}, {"time": 1517, "pitch": 55, "duration": 5, "velocity": 74}, {"time": 1523, "pitch": 47, "duration": 9, "velocity": 81}, {"time": 1529, "pitch": 52, "duration": 3, "velocity": 84}, {"time": 1529, "pitch": 64, "duration": 3, "velocity": 83}, {"time": 1535, "pitch": 47, "duration": 3, "velocity": 70}, {"time": 1538, "pitch": 52, "duration": 2, "velocity": 76}, {"time": 1538, "pitch": 59, "duration": 3, "velocity": 78}, {"time": 1541, "pitch": 40, "duration": 4, "velocity": 83}, {"time": 1544, "pitch": 52, "duration": 3, "velocity": 84}, {"time": 1547, "pitch": 40, "duration": 9, "velocity": 76}, {"time": 1547, "pitch": 47, "duration": 8, "velocity": 82}, {"time": 1553, "pitch": 52, "duration": 5, "velocity": 88}, {"time": 1553, "pitch": 55, "duration": 5, "velocity": 92}, {"time": 1559, "pitch": 40, "duration": 3, "velocity": 83}, {"time": 1565, "pitch": 45, "duration": 15, "velocity": 83}, {"time": 1565, "pitch": 55, "duration": 3, "velocity": 66}, {"time": 1565, "pitch": 57, "duration": 3, "velocity": 64}, {"time": 1571, "pitch": 52, "duration": 9, "velocity": 75}, {"time": 1577, "pitch": 57, "duration": 4, "velocity": 84}, {"time": 1577, "pitch": 60, "duration": 5, "velocity": 88}, {"time": 1583, "pitch": 45, "duration": 3, "velocity": 77}, {"time": 1586, "pitch": 57, "duration": 3, "velocity": 82}, {"time": 1589, "pitch": 45, "duration": 14, "velocity": 83}, {"time": 1592, "pitch": 57, "duration": 3, "velocity": 83}, {"time": 1592, "pitch": 61, "duration": 3, "velocity": 88}, {"time": 1595, "pitch": 52, "duration": 7, "velocity": 82}, {"time": 1601, "pitch": 57, "duration": 6, "velocity": 81}, {"time": 1601, "pitch": 61, "duration": 6, "velocity": 84}, {"time": 1601, "pitch": 64, "duration": 7, "velocity": 83}, {"time": 1607, "pitch": 45, "duration": 3, "velocity": 82}, {"time": 1607, "pitch": 52, "duration": 3, "velocity": 87}, {"time": 1613, "pitch": 41, "duration": 20, "velocity": 83}, {"time": 1613, "pitch": 57, "duration": 4, "velocity": 76}, {"time": 1613, "pitch": 60, "duration": 8, "velocity": 81}, {"time": 1613, "pitch": 65, "duration": 5, "velocity": 82}, {"time": 1619, "pitch": 57, "duration": 2, "velocity": 58}, {"time": 1625, "pitch": 57, "duration": 3, "velocity": 83}, {"time": 1625, "pitch": 60, "duration": 3, "velocity": 85}, {"time": 1634, "pitch": 57, "duration": 3, "velocity": 77}, {"time": 1634, "pitch": 60, "duration": 2, "velocity": 81}, {"time": 1634, "pitch": 65, "duration": 3, "velocity": 73}, {"time": 1637, "pitch": 41, "duration": 3, "velocity": 79}, {"time": 1640, "pitch": 57, "duration": 3, "velocity": 76}, {"time": 1640, "pitch": 60, "duration": 3, "velocity": 82}, {"time": 1643, "pitch": 41, "duration": 10, "velocity": 81}, {"time": 1649, "pitch": 57, "duration": 5, "velocity": 84}, {"time": 1649, "pitch": 60, "duration": 9, "velocity": 90}, {"time": 1649, "pitch": 65, "duration": 10, "velocity": 83}, {"time": 1655, "pitch": 57, "duration": 5, "velocity": 77}, {"time": 1661, "pitch": 43, "duration": 17, "velocity": 82}, {"time": 1661, "pitch": 55, "duration": 9, "velocity": 82}, {"time": 1661, "pitch": 59, "duration": 9, "velocity": 81}, {"time": 1673, "pitch": 55, "duration": 5, "velocity": 82}, {"time": 1673, "pitch": 59, "duration": 5, "velocity": 83}, {"time": 1673, "pitch": 62, "duration": 4, "velocity": 82}, {"time": 1682, "pitch": 55, "duration": 3, "velocity": 74}, {"time": 1682, "pitch": 59, "duration": 3, "velocity": 75}, {"time": 1682, "pitch": 62, "duration": 3, "velocity": 79}, {"time": 1682, "pitch": 67, "duration": 4, "velocity": 70}, {"time": 1685, "pitch": 43, "duration": 3, "velocity": 80}, {"time": 1688, "pitch": 55, "duration": 3, "velocity": 75}, {"time": 1688, "pitch": 59, "duration": 3, "velocity": 78}, {"time": 1688, "pitch": 62, "duration": 3, "velocity": 80}, {"time": 1691, "pitch": 43, "duration": 9, "velocity": 77}, {"time": 1697, "pitch": 55, "duration": 4, "velocity": 85}, {"time": 1697, "pitch": 59, "duration": 6, "velocity": 88}, {"time": 1697, "pitch": 62, "duration": 8, "velocity": 85}, {"time": 1703, "pitch": 55, "duration": 4, "velocity": 82}, {"time": 1709, "pitch": 47, "duration": 15, "velocity": 83}, {"time": 1709, "pitch": 59, "duration": 9, "velocity": 74}, {"time": 1709, "pitch": 62, "duration": 9, "velocity": 74}, {"time": 1709, "pitch": 69, "duration": 8, "velocity": 76}, {"time": 1721, "pitch": 59, "duration": 6, "velocity": 82}, {"time": 1721, "pitch": 62, "duration": 6, "velocity": 87}, {"time": 1721, "pitch": 69, "duration": 5, "velocity": 83}, {"time": 1727, "pitch": 53, "duration": 2, "velocity": 71}, {"time": 1730, "pitch": 59, "duration": 3, "velocity": 81}, {"time": 1730, "pitch": 62, "duration": 2, "velocity": 82}, {"time": 1730, "pitch": 69, "duration": 3, "velocity": 80}, {"time": 1733, "pitch": 47, "duration": 3, "velocity": 79}, {"time": 1736, "pitch": 59, "duration": 3, "velocity": 81}, {"time": 1736, "pitch": 62, "duration": 3, "velocity": 82}, {"time": 1736, "pitch": 69, "duration": 3, "velocity": 79}, {"time": 1739, "pitch": 47, "duration": 11, "velocity": 81}, {"time": 1739, "pitch": 53, "duration": 9, "velocity": 76}, {"time": 1745, "pitch": 59, "duration": 2, "velocity": 82}, {"time": 1745, "pitch": 62, "duration": 3, "velocity": 85}, {"time": 1745, "pitch": 69, "duration": 10, "velocity": 82}, {"time": 1751, "pitch": 59, "duration": 4, "velocity": 76}, {"time": 1757, "pitch": 40, "duration": 3, "velocity": 83}, {"time": 1763, "pitch": 40, "duration": 3, "velocity": 77}, {"time": 1763, "pitch": 59, "duration": 3, "velocity": 67}, {"time": 1763, "pitch": 64, "duration": 3, "velocity": 75}, {"time": 1769, "pitch": 40, "duration": 3, "velocity": 83}, {"time": 1769, "pitch": 59, "duration": 6, "velocity": 82}, {"time": 1769, "pitch": 64, "duration": 7, "velocity": 86}, {"time": 1772, "pitch": 69, "duration": 1, "velocity": 69}, {"time": 1775, "pitch": 40, "duration": 2, "velocity": 73}, {"time": 1778, "pitch": 59, "duration": 3, "velocity": 84}, {"time": 1778, "pitch": 64, "duration": 3, "velocity": 87}, {"time": 1778, "pitch": 68, "duration": 3, "velocity": 83}, {"time": 1781, "pitch": 40, "duration": 2, "velocity": 78}, {"time": 1784, "pitch": 59, "duration": 3, "velocity": 81}, {"time": 1784, "pitch": 64, "duration": 3, "velocity": 83}, {"time": 1784, "pitch": 68, "duration": 4, "velocity": 78}, {"time": 1787, "pitch": 40, "duration": 11, "velocity": 82}, {"time": 1793, "pitch": 59, "duration": 4, "velocity": 85}, {"time": 1793, "pitch": 64, "duration": 5, "velocity": 88}, {"time": 1793, "pitch": 68, "duration": 13, "velocity": 85}, {"time": 1799, "pitch": 59, "duration": 6, "velocity": 87}, {"time": 1799, "pitch": 64, "duration": 7, "velocity": 56}, {"time": 1805, "pitch": 41, "duration": 21, "velocity": 83}, {"time": 1805, "pitch": 53, "duration": 7, "velocity": 76}, {"time": 1805, "pitch": 60, "duration": 6, "velocity": 79}, {"time": 1811, "pitch": 48, "duration": 10, "velocity": 81}, {"time": 1817, "pitch": 53, "duration": 7, "velocity": 82}, {"time": 1817, "pitch": 57, "duration": 6, "velocity": 84}, {"time": 1817, "pitch": 60, "duration": 7, "velocity": 83}, {"time": 1823, "pitch": 48, "duration": 3, "velocity": 62}, {"time": 1826, "pitch": 53, "duration": 3, "velocity": 82}, {"time": 1826, "pitch": 57, "duration": 3, "velocity": 85}, {"time": 1826, "pitch": 60, "duration": 3, "velocity": 83}, {"time": 1829, "pitch": 41, "duration": 4, "velocity": 82}, {"time": 1832, "pitch": 53, "duration": 3, "velocity": 82}, {"time": 1832, "pitch": 57, "duration": 3, "velocity": 86}, {"time": 1832, "pitch": 60, "duration": 3, "velocity": 82}, {"time": 1835, "pitch": 41, "duration": 10, "velocity": 69}, {"time": 1835, "pitch": 48, "duration": 8, "velocity": 78}, {"time": 1841, "pitch": 53, "duration": 4, "velocity": 87}, {"time": 1841, "pitch": 57, "duration": 5, "velocity": 90}, {"time": 1841, "pitch": 60, "duration": 6, "velocity": 90}, {"time": 1847, "pitch": 41, "duration": 3, "velocity": 56}, {"time": 1847, "pitch": 48, "duration": 3, "velocity": 82}, {"time": 1853, "pitch": 43, "duration": 15, "velocity": 83}, {"time": 1853, "pitch": 55, "duration": 6, "velocity": 79}, {"time": 1853, "pitch": 59, "duration": 5, "velocity": 81}, {"time": 1859, "pitch": 50, "duration": 8, "velocity": 72}, {"time": 1865, "pitch": 55, "duration": 5, "velocity": 83}, {"time": 1865, "pitch": 59, "duration": 5, "velocity": 90}, {"time": 1865, "pitch": 62, "duration": 4, "velocity": 85}, {"time": 1865, "pitch": 67, "duration": 5, "velocity": 80}, {"time": 1874, "pitch": 55, "duration": 3, "velocity": 79}, {"time": 1874, "pitch": 59, "duration": 3, "velocity": 83}, {"time": 1874, "pitch": 62, "duration": 2, "velocity": 79}, {"time": 1877, "pitch": 43, "duration": 15, "velocity": 82}, {"time": 1880, "pitch": 55, "duration": 3, "velocity": 74}, {"time": 1880, "pitch": 59, "duration": 3, "velocity": 82}, {"time": 1880, "pitch": 62, "duration": 3, "velocity": 81}, {"time": 1883, "pitch": 50, "duration": 8, "velocity": 78}, {"time": 1889, "pitch": 55, "duration": 3, "velocity": 86}, {"time": 1889, "pitch": 59, "duration": 4, "velocity": 88}, {"time": 1889, "pitch": 62, "duration": 4, "velocity": 86}, {"time": 1895, "pitch": 43, "duration": 3, "velocity": 81}, {"time": 1901, "pitch": 40, "duration": 20, "velocity": 81}, {"time": 1901, "pitch": 52, "duration": 6, "velocity": 67}, {"time": 1901, "pitch": 55, "duration": 5, "velocity": 74}, {"time": 1907, "pitch": 47, "duration": 9, "velocity": 81}, {"time": 1913, "pitch": 52, "duration": 3, "velocity": 84}, {"time": 1913, "pitch": 64, "duration": 3, "velocity": 83}, {"time": 1919, "pitch": 47, "duration": 3, "velocity": 70}, {"time": 1922, "pitch": 52, "duration": 2, "velocity": 76}, {"time": 1922, "pitch": 59, "duration": 3, "velocity": 78}, {"time": 1925, "pitch": 40, "duration": 4, "velocity": 83}, {"time": 1928, "pitch": 52, "duration": 3, "velocity": 84}, {"time": 1931, "pitch": 40, "duration": 9, "velocity": 76}, {"time": 1931, "pitch": 47, "duration": 8, "velocity": 82}, {"time": 1937, "pitch": 52, "duration": 5, "velocity": 88}, {"time": 1937, "pitch": 55, "duration": 5, "velocity": 92}, {"time": 1943, "pitch": 40, "duration": 3, "velocity": 83}, {"time": 1949, "pitch": 45, "duration": 15, "velocity": 83}, {"time": 1949, "pitch": 57, "duration": 3, "velocity": 64}, {"time": 1955, "pitch": 52, "duration": 9, "velocity": 75}, {"time": 1961, "pitch": 57, "duration": 4, "velocity": 84}, {"time": 1961, "pitch": 61, "duration": 5, "velocity": 88}, {"time": 1967, "pitch": 45, "duration": 3, "velocity": 77}, {"time": 1970, "pitch": 57, "duration": 3, "velocity": 82}, {"time": 1973, "pitch": 45, "duration": 14, "velocity": 83}, {"time": 1976, "pitch": 57, "duration": 3, "velocity": 83}, {"time": 1976, "pitch": 61, "duration": 3, "velocity": 88}, {"time": 1979, "pitch": 52, "duration": 7, "velocity": 82}, {"time": 1985, "pitch": 57, "duration": 6, "velocity": 81}, {"time": 1985, "pitch": 61, "duration": 6, "velocity": 84}, {"time": 1985, "pitch": 64, "duration": 7, "velocity": 83}, {"time": 1991, "pitch": 45, "duration": 3, "velocity": 82}, {"time": 1991, "pitch": 52, "duration": 3, "velocity": 87}, {"time": 1997, "pitch": 41, "duration": 20, "velocity": 83}, {"time": 1997, "pitch": 57, "duration": 4, "velocity": 76}, {"time": 1997, "pitch": 60, "duration": 8, "velocity": 81}, {"time": 1997, "pitch": 65, "duration": 5, "velocity": 82}, {"time": 2003, "pitch": 57, "duration": 2, "velocity": 58}, {"time": 2009, "pitch": 57, "duration": 3, "velocity": 83}, {"time": 2009, "pitch": 60, "duration": 3, "velocity": 85}, {"time": 2018, "pitch": 57, "duration": 3, "velocity": 77}, {"time": 2018, "pitch": 60, "duration": 2, "velocity": 81}, {"time": 2018, "pitch": 65, "duration": 3, "velocity": 73}, {"time": 2021, "pitch": 41, "duration": 3, "velocity": 79}, {"time": 2024, "pitch": 57, "duration": 3, "velocity": 76}, {"time": 2024, "pitch": 60, "duration": 3, "velocity": 82}, {"time": 2027, "pitch": 41, "duration": 10, "velocity": 81}, {"time": 2033, "pitch": 57, "duration": 5, "velocity": 84}, {"time": 2033, "pitch": 60, "duration": 9, "velocity": 90}, {"time": 2033, "pitch": 65, "duration": 10, "velocity": 83}, {"time": 2039, "pitch": 57, "duration": 5, "velocity": 77}, {"time": 2045, "pitch": 43, "duration": 17, "velocity": 82}, {"time": 2045, "pitch": 55, "duration": 9, "velocity": 82}, {"time": 2045, "pitch": 59, "duration": 9, "velocity": 81}, {"time": 2057, "pitch": 55, "duration": 5, "velocity": 82}, {"time": 2057, "pitch": 59, "duration": 5, "velocity": 83}, {"time": 2057, "pitch": 62, "duration": 4, "velocity": 82}, {"time": 2066, "pitch": 55, "duration": 3, "velocity": 74}, {"time": 2066, "pitch": 59, "duration": 3, "velocity": 75}, {"time": 2066, "pitch": 62, "duration": 3, "velocity": 79}, {"time": 2066, "pitch": 67, "duration": 4, "velocity": 70}, {"time": 2069, "pitch": 43, "duration": 3, "velocity": 80}, {"time": 2072, "pitch": 55, "duration": 3, "velocity": 75}, {"time": 2072, "pitch": 59, "duration": 3, "velocity": 78}, {"time": 2072, "pitch": 62, "duration": 3, "velocity": 80}, {"time": 2075, "pitch": 43, "duration": 9, "velocity": 77}, {"time": 2081, "pitch": 55, "duration": 4, "velocity": 85}, {"time": 2081, "pitch": 59, "duration": 6, "velocity": 88}, {"time": 2081, "pitch": 62, "duration": 8, "velocity": 85}, {"time": 2087, "pitch": 55, "duration": 4, "velocity": 82}, {"time": 2093, "pitch": 50, "duration": 11, "velocity": 84}, {"time": 2093, "pitch": 57, "duration": 2, "velocity": 71}, {"time": 2093, "pitch": 62, "duration": 4, "velocity": 81}, {"time": 2093, "pitch": 65, "duration": 5, "velocity": 82}, {"time": 2099, "pitch": 57, "duration": 3, "velocity": 79}, {"time": 2105, "pitch": 57, "duration": 3, "velocity": 82}, {"time": 2105, "pitch": 62, "duration": 3, "velocity": 84}, {"time": 2105, "pitch": 65, "duration": 4, "velocity": 83}, {"time": 2114, "pitch": 57, "duration": 3, "velocity": 82}, {"time": 2114, "pitch": 62, "duration": 3, "velocity": 82}, {"time": 2114, "pitch": 65, "duration": 3, "velocity": 81}, {"time": 2117, "pitch": 38, "duration": 6, "velocity": 82}, {"time": 2120, "pitch": 57, "duration": 3, "velocity": 82}, {"time": 2120, "pitch": 62, "duration": 3, "velocity": 81}, {"time": 2120, "pitch": 65, "duration": 4, "velocity": 81}, {"time": 2123, "pitch": 38, "duration": 3, "velocity": 82}, {"time": 2129, "pitch": 57, "duration": 3, "velocity": 83}, {"time": 2129, "pitch": 62, "duration": 4, "velocity": 85}, {"time": 2129, "pitch": 65, "duration": 6, "velocity": 86}, {"time": 2135, "pitch": 57, "duration": 3, "velocity": 82}, {"time": 2141, "pitch": 40, "duration": 14, "velocity": 84}, {"time": 2141, "pitch": 52, "duration": 6, "velocity": 83}, {"time": 2141, "pitch": 56, "duration": 6, "velocity": 85}, {"time": 2141, "pitch": 59, "duration": 6, "velocity": 83}, {"time": 2147, "pitch": 47, "duration": 8, "velocity": 78}, {"time": 2153, "pitch": 52, "duration": 3, "velocity": 83}, {"time": 2153, "pitch": 56, "duration": 2, "velocity": 82}, {"time": 2153, "pitch": 64, "duration": 3, "velocity": 85}, {"time": 2162, "pitch": 52, "duration": 3, "velocity": 81}, {"time": 2162, "pitch": 64, "duration": 3, "velocity": 82}, {"time": 2165, "pitch": 40, "duration": 3, "velocity": 82}, {"time": 2168, "pitch": 52, "duration": 2, "velocity": 84}, {"time": 2168, "pitch": 56, "duration": 3, "velocity": 80}, {"time": 2168, "pitch": 59, "duration": 3, "velocity": 86}, {"time": 2171, "pitch": 40, "duration": 12, "velocity": 72}, {"time": 2171, "pitch": 47, "duration": 8, "velocity": 83}, {"time": 2177, "pitch": 52, "duration": 4, "velocity": 84}, {"time": 2177, "pitch": 56, "duration": 12, "velocity": 85}, {"time": 2177, "pitch": 59, "duration": 13, "velocity": 84}, {"time": 2177, "pitch": 64, "duration": 13, "velocity": 86}, {"time": 2183, "pitch": 52, "duration": 6, "velocity": 87}, {"time": 2189, "pitch": 45, "duration": 12, "velocity": 84}, {"time": 2189, "pitch": 55, "duration": 7, "velocity": 82}, {"time": 2189, "pitch": 60, "duration": 7, "velocity": 83}, {"time": 2198, "pitch": 55, "duration": 2, "velocity": 81}, {"time": 2198, "pitch": 60, "duration": 2, "velocity": 82}, {"time": 2207, "pitch": 40, "duration": 6, "velocity": 87}, {"time": 2207, "pitch": 55, "duration": 7, "velocity": 84}, {"time": 2207, "pitch": 60, "duration": 7, "velocity": 85}, {"time": 2213, "pitch": 43, "duration": 16, "velocity": 88}, {"time": 2216, "pitch": 55, "duration": 4, "velocity": 82}, {"time": 2216, "pitch": 59, "duration": 4, "velocity": 86}, {"time": 2225, "pitch": 55, "duration": 6, "velocity": 82}, {"time": 2225, "pitch": 59, "duration": 6, "velocity": 82}, {"time": 2237, "pitch": 45, "duration": 8, "velocity": 83}, {"time": 2237, "pitch": 57, "duration": 8, "velocity": 81}, {"time": 2237, "pitch": 60, "duration": 8, "velocity": 83}, {"time": 2246, "pitch": 45, "duration": 3, "velocity": 85}, {"time": 2246, "pitch": 57, "duration": 2, "velocity": 82}, {"time": 2246, "pitch": 60, "duration": 2, "velocity": 83}, {"time": 2255, "pitch": 40, "duration": 5, "velocity": 80}, {"time": 2255, "pitch": 57, "duration": 7, "velocity": 83}, {"time": 2255, "pitch": 60, "duration": 7, "velocity": 87}, {"time": 2261, "pitch": 43, "duration": 8, "velocity": 86}, {"time": 2264, "pitch": 55, "duration": 5, "velocity": 82}, {"time": 2264, "pitch": 59, "duration": 6, "velocity": 90}, {"time": 2270, "pitch": 43, "duration": 4, "velocity": 83}, {"time": 2270, "pitch": 55, "duration": 4, "velocity": 84}, {"time": 2273, "pitch": 50, "duration": 10, "velocity": 85}, {"time": 2279, "pitch": 40, "duration": 6, "velocity": 83}, {"time": 2279, "pitch": 55, "duration": 3, "velocity": 80}, {"time": 2285, "pitch": 45, "duration": 7, "velocity": 85}, {"time": 2285, "pitch": 57, "duration": 7, "velocity": 82}, {"time": 2285, "pitch": 60, "duration": 7, "velocity": 82}, {"time": 2294, "pitch": 45, "duration": 3, "velocity": 86}, {"time": 2294, "pitch": 57, "duration": 2, "velocity": 78}, {"time": 2294, "pitch": 60, "duration": 2, "velocity": 80}, {"time": 2303, "pitch": 40, "duration": 5, "velocity": 85}, {"time": 2303, "pitch": 57, "duration": 9, "velocity": 75}, {"time": 2303, "pitch": 60, "duration": 10, "velocity": 79}, {"time": 2309, "pitch": 43, "duration": 7, "velocity": 87}, {"time": 2318, "pitch": 43, "duration": 4, "velocity": 85}, {"time": 2318, "pitch": 55, "duration": 3, "velocity": 81}, {"time": 2318, "pitch": 59, "duration": 3, "velocity": 82}, {"time": 2321, "pitch": 50, "duration": 10, "velocity": 77}, {"time": 2327, "pitch": 40, "duration": 5, "velocity": 87}, {"time": 2327, "pitch": 55, "duration": 5, "velocity": 83}, {"time": 2327, "pitch": 59, "duration": 5, "velocity": 84}, {"time": 2333, "pitch": 45, "duration": 12, "velocity": 84}, {"time": 2333, "pitch": 55, "duration": 7, "velocity": 82}, {"time": 2333, "pitch": 60, "duration": 7, "velocity": 83}, {"time": 2342, "pitch": 55, "duration": 2, "velocity": 81}, {"time": 2342, "pitch": 60, "duration": 2, "velocity": 82}, {"time": 2351, "pitch": 40, "duration": 6, "velocity": 87}, {"time": 2351, "pitch": 55, "duration": 7, "velocity": 84}, {"time": 2351, "pitch": 60, "duration": 7, "velocity": 85}, {"time": 2357, "pitch": 43, "duration": 16, "velocity": 88}, {"time": 2360, "pitch": 55, "duration": 4, "velocity": 82}, {"time": 2360, "pitch": 59, "duration": 4, "velocity": 86}, {"time": 2369, "pitch": 55, "duration": 6, "velocity": 82}, {"time": 2369, "pitch": 59, "duration": 6, "velocity": 82}, {"time": 2381, "pitch": 45, "duration": 23, "velocity": 83}, {"time": 2381, "pitch": 55, "duration": 7, "velocity": 82}, {"time": 2381, "pitch": 60, "duration": 7, "velocity": 83}, {"time": 2390, "pitch": 55, "duration": 2, "velocity": 81}, {"time": 2390, "pitch": 60, "duration": 2, "velocity": 82}, {"time": 2399, "pitch": 55, "duration": 7, "velocity": 84}, {"time": 2399, "pitch": 60, "duration": 7, "velocity": 85}, {"time": 2405, "pitch": 43, "duration": 18, "velocity": 82}, {"time": 2408, "pitch": 55, "duration": 4, "velocity": 82}, {"time": 2408, "pitch": 59, "duration": 4, "velocity": 86}, {"time": 2417, "pitch": 55, "duration": 6, "velocity": 82}, {"time": 2417, "pitch": 59, "duration": 6, "velocity": 82}, {"time": 2429, "pitch": 45, "duration": 21, "velocity": 83}, {"time": 2429, "pitch": 57, "duration": 8, "velocity": 81}, {"time": 2429, "pitch": 60, "duration": 8, "velocity": 83}, {"time": 2438, "pitch": 57, "duration": 2, "velocity": 82}, {"time": 2438, "pitch": 60, "duration": 2, "velocity": 83}, {"time": 2447, "pitch": 57, "duration": 7, "velocity": 83}, {"time": 2447, "pitch": 60, "duration": 7, "velocity": 87}, {"time": 2453, "pitch": 43, "duration": 22, "velocity": 82}, {"time": 2456, "pitch": 55, "duration": 5, "velocity": 82}, {"time": 2456, "pitch": 59, "duration": 6, "velocity": 90}, {"time": 2462, "pitch": 55, "duration": 4, "velocity": 84}, {"time": 2465, "pitch": 50, "duration": 10, "velocity": 85}, {"time": 2471, "pitch": 55, "duration": 3, "velocity": 80}, {"time": 2477, "pitch": 45, "duration": 20, "velocity": 83}, {"time": 2477, "pitch": 57, "duration": 7, "velocity": 82}, {"time": 2477, "pitch": 60, "duration": 7, "velocity": 82}, {"time": 2486, "pitch": 57, "duration": 2, "velocity": 78}, {"time": 2486, "pitch": 60, "duration": 2, "velocity": 80}, {"time": 2495, "pitch": 57, "duration": 9, "velocity": 75}, {"time": 2495, "pitch": 60, "duration": 10, "velocity": 79}, {"time": 2501, "pitch": 43, "duration": 22, "velocity": 82}, {"time": 2510, "pitch": 55, "duration": 3, "velocity": 81}, {"time": 2510, "pitch": 59, "duration": 3, "velocity": 82}, {"time": 2513, "pitch": 50, "duration": 10, "velocity": 77}, {"time": 2519, "pitch": 55, "duration": 5, "velocity": 83}, {"time": 2519, "pitch": 59, "duration": 5, "velocity": 84}, {"time": 2525, "pitch": 45, "duration": 23, "velocity": 83}, {"time": 2525, "pitch": 55, "duration": 7, "velocity": 82}, {"time": 2525, "pitch": 60, "duration": 7, "velocity": 83}, {"time": 2534, "pitch": 55, "duration": 2, "velocity": 81}, {"time": 2534, "pitch": 60, "duration": 2, "velocity": 82}, {"time": 2543, "pitch": 55, "duration": 7, "velocity": 84}, {"time": 2543, "pitch": 60, "duration": 7, "velocity": 85}, {"time": 2549, "pitch": 43, "duration": 6, "velocity": 82}, {"time": 2552, "pitch": 55, "duration": 4, "velocity": 82}, {"time": 2552, "pitch": 59, "duration": 4, "velocity": 86}, {"time": 2555, "pitch": 45, "duration": 5, "velocity": 81}, {"time": 2561, "pitch": 47, "duration": 4, "velocity": 82}, {"time": 2561, "pitch": 55, "duration": 6, "velocity": 82}, {"time": 2561, "pitch": 59, "duration": 6, "velocity": 82}, {"time": 2567, "pitch": 48, "duration": 5, "velocity": 82}, {"time": 2573, "pitch": 38, "duration": 12, "velocity": 82}, {"time": 2573, "pitch": 57, "duration": 7, "velocity": 76}, {"time": 2573, "pitch": 62, "duration": 7, "velocity": 81}, {"time": 2573, "pitch": 65, "duration": 7, "velocity": 81}, {"time": 2582, "pitch": 57, "duration": 2, "velocity": 79}, {"time": 2582, "pitch": 62, "duration": 2, "velocity": 82}, {"time": 2582, "pitch": 65, "duration": 2, "velocity": 81}, {"time": 2591, "pitch": 57, "duration": 7, "velocity": 81}, {"time": 2591, "pitch": 62, "duration": 7, "velocity": 82}, {"time": 2591, "pitch": 65, "duration": 8, "velocity": 81}, {"time": 2597, "pitch": 38, "duration": 14, "velocity": 85}, {"time": 2600, "pitch": 57, "duration": 3, "velocity": 81}, {"time": 2600, "pitch": 62, "duration": 3, "velocity": 84}, {"time": 2606, "pitch": 57, "duration": 5, "velocity": 82}, {"time": 2609, "pitch": 62, "duration": 3, "velocity": 83}, {"time": 2609, "pitch": 65, "duration": 4, "velocity": 82}, {"time": 2615, "pitch": 57, "duration": 4, "velocity": 78}, {"time": 2621, "pitch": 45, "duration": 19, "velocity": 82}, {"time": 2621, "pitch": 57, "duration": 7, "velocity": 73}, {"time": 2621, "pitch": 60, "duration": 7, "velocity": 79}, {"time": 2630, "pitch": 57, "duration": 2, "velocity": 75}, {"time": 2630, "pitch": 60, "duration": 2, "velocity": 76}, {"time": 2630, "pitch": 64, "duration": 2, "velocity": 81}, {"time": 2639, "pitch": 57, "duration": 12, "velocity": 81}, {"time": 2639, "pitch": 60, "duration": 12, "velocity": 82}, {"time": 2639, "pitch": 64, "duration": 11, "velocity": 85}, {"time": 2645, "pitch": 43, "duration": 14, "velocity": 81}, {"time": 2654, "pitch": 57, "duration": 2, "velocity": 81}, {"time": 2654, "pitch": 60, "duration": 2, "velocity": 85}, {"time": 2654, "pitch": 64, "duration": 3, "velocity": 86}, {"time": 2663, "pitch": 40, "duration": 6, "velocity": 88}, {"time": 2663, "pitch": 55, "duration": 8, "velocity": 81}, {"time": 2663, "pitch": 59, "duration": 7, "velocity": 81}, {"time": 2669, "pitch": 45, "duration": 19, "velocity": 82}, {"time": 2669, "pitch": 57, "duration": 7, "velocity": 73}, {"time": 2669, "pitch": 60, "duration": 7, "velocity": 79}, {"time": 2678, "pitch": 57, "duration": 2, "velocity": 75}, {"time": 2678, "pitch": 60, "duration": 2, "velocity": 76}, {"time": 2678, "pitch": 64, "duration": 2, "velocity": 81}, {"time": 2687, "pitch": 57, "duration": 12, "velocity": 81}, {"time": 2687, "pitch": 60, "duration": 12, "velocity": 82}, {"time": 2687, "pitch": 64, "duration": 11, "velocity": 85}, {"time": 2693, "pitch": 43, "duration": 14, "velocity": 81}, {"time": 2702, "pitch": 57, "duration": 2, "velocity": 81}, {"time": 2702, "pitch": 60, "duration": 2, "velocity": 85}, {"time": 2702, "pitch": 64, "duration": 3, "velocity": 86}, {"time": 2711, "pitch": 40, "duration": 6, "velocity": 88}, {"time": 2711, "pitch": 55, "duration": 8, "velocity": 81}, {"time": 2711, "pitch": 59, "duration": 7, "velocity": 81}, {"time": 2717, "pitch": 45, "duration": 19, "velocity": 82}, {"time": 2717, "pitch": 57, "duration": 7, "velocity": 73}, {"time": 2717, "pitch": 60, "duration": 7, "velocity": 79}, {"time": 2726, "pitch": 57, "duration": 2, "velocity": 75}, {"time": 2726, "pitch": 60, "duration": 2, "velocity": 76}, {"time": 2726, "pitch": 64, "duration": 2, "velocity": 81}, {"time": 2735, "pitch": 57, "duration": 12, "velocity": 81}, {"time": 2735, "pitch": 60, "duration": 12, "velocity": 82}, {"time": 2735, "pitch": 64, "duration": 11, "velocity": 85}, {"time": 2741, "pitch": 43, "duration": 14, "velocity": 81}, {"time": 2750, "pitch": 57, "duration": 2, "velocity": 81}, {"time": 2750, "pitch": 60, "duration": 2, "velocity": 85}, {"time": 2750, "pitch": 64, "duration": 3, "velocity": 86}, {"time": 2759, "pitch": 40, "duration": 6, "velocity": 88}, {"time": 2759, "pitch": 55, "duration": 8, "velocity": 81}, {"time": 2759, "pitch": 59, "duration": 7, "velocity": 81}, {"time": 2765, "pitch": 41, "duration": 21, "velocity": 83}, {"time": 2765, "pitch": 53, "duration": 7, "velocity": 76}, {"time": 2765, "pitch": 60, "duration": 6, "velocity": 79}, {"time": 2771, "pitch": 48, "duration": 10, "velocity": 81}, {"time": 2777, "pitch": 53, "duration": 7, "velocity": 82}, {"time": 2777, "pitch": 57, "duration": 6, "velocity": 84}, {"time": 2777, "pitch": 60, "duration": 7, "velocity": 83}, {"time": 2783, "pitch": 48, "duration": 3, "velocity": 62}, {"time": 2786, "pitch": 53, "duration": 3, "velocity": 82}, {"time": 2786, "pitch": 57, "duration": 3, "velocity": 85}, {"time": 2786, "pitch": 60, "duration": 3, "velocity": 83}, {"time": 2789, "pitch": 41, "duration": 4, "velocity": 82}, {"time": 2792, "pitch": 53, "duration": 3, "velocity": 82}, {"time": 2792, "pitch": 57, "duration": 3, "velocity": 86}, {"time": 2792, "pitch": 60, "duration": 3, "velocity": 82}, {"time": 2795, "pitch": 41, "duration": 10, "velocity": 69}, {"time": 2795, "pitch": 48, "duration": 8, "velocity": 78}, {"time": 2801, "pitch": 53, "duration": 4, "velocity": 87}, {"time": 2801, "pitch": 57, "duration": 5, "velocity": 90}, {"time": 2801, "pitch": 60, "duration": 6, "velocity": 90}, {"time": 2807, "pitch": 41, "duration": 3, "velocity": 56}, {"time": 2807, "pitch": 48, "duration": 3, "velocity": 82}, {"time": 2813, "pitch": 43, "duration": 15, "velocity": 83}, {"time": 2813, "pitch": 55, "duration": 6, "velocity": 79}, {"time": 2813, "pitch": 59, "duration": 5, "velocity": 81}, {"time": 2819, "pitch": 50, "duration": 8, "velocity": 72}, {"time": 2825, "pitch": 55, "duration": 5, "velocity": 83}, {"time": 2825, "pitch": 59, "duration": 5, "velocity": 90}, {"time": 2825, "pitch": 62, "duration": 4, "velocity": 85}, {"time": 2825, "pitch": 67, "duration": 5, "velocity": 80}, {"time": 2834, "pitch": 55, "duration": 3, "velocity": 79}, {"time": 2834, "pitch": 59, "duration": 3, "velocity": 83}, {"time": 2834, "pitch": 62, "duration": 2, "velocity": 79}, {"time": 2837, "pitch": 43, "duration": 15, "velocity": 82}, {"time": 2840, "pitch": 55, "duration": 3, "velocity": 74}, {"time": 2840, "pitch": 59, "duration": 3, "velocity": 82}, {"time": 2840, "pitch": 62, "duration": 3, "velocity": 81}, {"time": 2843, "pitch": 50, "duration": 8, "velocity": 78}, {"time": 2849, "pitch": 55, "duration": 3, "velocity": 86}, {"time": 2849, "pitch": 59, "duration": 4, "velocity": 88}, {"time": 2849, "pitch": 62, "duration": 4, "velocity": 86}, {"time": 2855, "pitch": 43, "duration": 3, "velocity": 81}, {"time": 2861, "pitch": 40, "duration": 20, "velocity": 81}, {"time": 2861, "pitch": 52, "duration": 6, "velocity": 67}, {"time": 2861, "pitch": 55, "duration": 5, "velocity": 74}, {"time": 2867, "pitch": 47, "duration": 9, "velocity": 81}, {"time": 2873, "pitch": 52, "duration": 3, "velocity": 84}, {"time": 2873, "pitch": 64, "duration": 3, "velocity": 83}, {"time": 2879, "pitch": 47, "duration": 3, "velocity": 70}, {"time": 2882, "pitch": 52, "duration": 2, "velocity": 76}, {"time": 2882, "pitch": 59, "duration": 3, "velocity": 78}, {"time": 2885, "pitch": 40, "duration": 4, "velocity": 83}, {"time": 2888, "pitch": 52, "duration": 3, "velocity": 84}, {"time": 2891, "pitch": 40, "duration": 9, "velocity": 76}, {"time": 2891, "pitch": 47, "duration": 8, "velocity": 82}, {"time": 2897, "pitch": 52, "duration": 5, "velocity": 88}, {"time": 2897, "pitch": 55, "duration": 5, "velocity": 92}, {"time": 2903, "pitch": 40, "duration": 3, "velocity": 83}, {"time": 2909, "pitch": 45, "duration": 15, "velocity": 83}, {"time": 2909, "pitch": 57, "duration": 3, "velocity": 64}, {"time": 2915, "pitch": 52, "duration": 9, "velocity": 75}, {"time": 2921, "pitch": 57, "duration": 4, "velocity": 84}, {"time": 2921, "pitch": 61, "duration": 5, "velocity": 88}, {"time": 2927, "pitch": 45, "duration": 3, "velocity": 77}, {"time": 2930, "pitch": 57, "duration": 3, "velocity": 82}, {"time": 2933, "pitch": 45, "duration": 14, "velocity": 83}, {"time": 2936, "pitch": 57, "duration": 3, "velocity": 83}, {"time": 2936, "pitch": 61, "duration": 3, "velocity": 88}, {"time": 2939, "pitch": 52, "duration": 7, "velocity": 82}, {"time": 2945, "pitch": 57, "duration": 6, "velocity": 81}, {"time": 2945, "pitch": 61, "duration": 6, "velocity": 84}, {"time": 2945, "pitch": 64, "duration": 7, "velocity": 83}, {"time": 2951, "pitch": 45, "duration": 3, "velocity": 82}, {"time": 2951, "pitch": 52, "duration": 3, "velocity": 87}, {"time": 2957, "pitch": 41, "duration": 20, "velocity": 83}, {"time": 2957, "pitch": 57, "duration": 4, "velocity": 76}, {"time": 2957, "pitch": 60, "duration": 8, "velocity": 81}, {"time": 2957, "pitch": 65, "duration": 5, "velocity": 82}, {"time": 2963, "pitch": 57, "duration": 2, "velocity": 58}, {"time": 2969, "pitch": 57, "duration": 3, "velocity": 83}, {"time": 2969, "pitch": 60, "duration": 3, "velocity": 85}, {"time": 2978, "pitch": 57, "duration": 3, "velocity": 77}, {"time": 2978, "pitch": 60, "duration": 2, "velocity": 81}, {"time": 2978, "pitch": 65, "duration": 3, "velocity": 73}, {"time": 2981, "pitch": 41, "duration": 3, "velocity": 79}, {"time": 2984, "pitch": 57, "duration": 3, "velocity": 76}, {"time": 2984, "pitch": 60, "duration": 3, "velocity": 82}, {"time": 2987, "pitch": 41, "duration": 10, "velocity": 81}, {"time": 2993, "pitch": 57, "duration": 5, "velocity": 84}, {"time": 2993, "pitch": 60, "duration": 9, "velocity": 90}, {"time": 2993, "pitch": 65, "duration": 10, "velocity": 83}, {"time": 2999, "pitch": 57, "duration": 5, "velocity": 77}, {"time": 3005, "pitch": 43, "duration": 17, "velocity": 82}, {"time": 3005, "pitch": 55, "duration": 9, "velocity": 82}, {"time": 3005, "pitch": 59, "duration": 9, "velocity": 81}, {"time": 3017, "pitch": 55, "duration": 5, "velocity": 82}, {"time": 3017, "pitch": 59, "duration": 5, "velocity": 83}, {"time": 3017, "pitch": 62, "duration": 4, "velocity": 82}, {"time": 3026, "pitch": 55, "duration": 3, "velocity": 74}, {"time": 3026, "pitch": 59, "duration": 3, "velocity": 75}, {"time": 3026, "pitch": 62, "duration": 3, "velocity": 79}, {"time": 3026, "pitch": 67, "duration": 4, "velocity": 70}, {"time": 3029, "pitch": 43, "duration": 3, "velocity": 80}, {"time": 3032, "pitch": 55, "duration": 3, "velocity": 75}, {"time": 3032, "pitch": 59, "duration": 3, "velocity": 78}, {"time": 3032, "pitch": 62, "duration": 3, "velocity": 80}, {"time": 3035, "pitch": 43, "duration": 9, "velocity": 77}, {"time": 3041, "pitch": 55, "duration": 4, "velocity": 85}, {"time": 3041, "pitch": 59, "duration": 6, "velocity": 88}, {"time": 3041, "pitch": 62, "duration": 8, "velocity": 85}, {"time": 3047, "pitch": 55, "duration": 4, "velocity": 82}, {"time": 3053, "pitch": 47, "duration": 15, "velocity": 83}, {"time": 3053, "pitch": 59, "duration": 9, "velocity": 74}, {"time": 3053, "pitch": 62, "duration": 9, "velocity": 74}, {"time": 3053, "pitch": 65, "duration": 8, "velocity": 76}, {"time": 3065, "pitch": 59, "duration": 6, "velocity": 82}, {"time": 3065, "pitch": 62, "duration": 6, "velocity": 87}, {"time": 3065, "pitch": 65, "duration": 5, "velocity": 83}, {"time": 3071, "pitch": 53, "duration": 2, "velocity": 71}, {"time": 3074, "pitch": 59, "duration": 3, "velocity": 81}, {"time": 3074, "pitch": 62, "duration": 2, "velocity": 82}, {"time": 3074, "pitch": 65, "duration": 3, "velocity": 80}, {"time": 3077, "pitch": 47, "duration": 3, "velocity": 79}, {"time": 3080, "pitch": 59, "duration": 3, "velocity": 81}, {"time": 3080, "pitch": 62, "duration": 3, "velocity": 82}, {"time": 3080, "pitch": 65, "duration": 3, "velocity": 79}, {"time": 3083, "pitch": 47, "duration": 11, "velocity": 81}, {"time": 3083, "pitch": 53, "duration": 9, "velocity": 76}, {"time": 3089, "pitch": 59, "duration": 2, "velocity": 82}, {"time": 3089, "pitch": 62, "duration": 3, "velocity": 85}, {"time": 3089, "pitch": 65, "duration": 10, "velocity": 82}, {"time": 3095, "pitch": 59, "duration": 4, "velocity": 76}, {"time": 3101, "pitch": 40, "duration": 3, "velocity": 83}, {"time": 3107, "pitch": 40, "duration": 3, "velocity": 77}, {"time": 3107, "pitch": 59, "duration": 3, "velocity": 67}, {"time": 3107, "pitch": 64, "duration": 3, "velocity": 75}, {"time": 3113, "pitch": 40, "duration": 3, "velocity": 83}, {"time": 3113, "pitch": 59, "duration": 6, "velocity": 82}, {"time": 3113, "pitch": 64, "duration": 7, "velocity": 86}, {"time": 3119, "pitch": 40, "duration": 2, "velocity": 73}, {"time": 3122, "pitch": 59, "duration": 3, "velocity": 84}, {"time": 3122, "pitch": 64, "duration": 3, "velocity": 87}, {"time": 3122, "pitch": 68, "duration": 3, "velocity": 83}, {"time": 3125, "pitch": 40, "duration": 2, "velocity": 78}, {"time": 3128, "pitch": 59, "duration": 3, "velocity": 81}, {"time": 3128, "pitch": 64, "duration": 3, "velocity": 83}, {"time": 3128, "pitch": 68, "duration": 4, "velocity": 78}, {"time": 3131, "pitch": 40, "duration": 11, "velocity": 82}, {"time": 3137, "pitch": 59, "duration": 4, "velocity": 85}, {"time": 3137, "pitch": 64, "duration": 5, "velocity": 88}, {"time": 3137, "pitch": 68, "duration": 13, "velocity": 85}, {"time": 3143, "pitch": 59, "duration": 6, "velocity": 87}, {"time": 3143, "pitch": 64, "duration": 7, "velocity": 56}, {"time": 3149, "pitch": 41, "duration": 21, "velocity": 83}, {"time": 3149, "pitch": 53, "duration": 7, "velocity": 76}, {"time": 3149, "pitch": 60, "duration": 6, "velocity": 79}, {"time": 3155, "pitch": 48, "duration": 10, "velocity": 81}, {"time": 3161, "pitch": 53, "duration": 7, "velocity": 82}, {"time": 3161, "pitch": 57, "duration": 6, "velocity": 84}, {"time": 3161, "pitch": 60, "duration": 7, "velocity": 83}, {"time": 3167, "pitch": 48, "duration": 3, "velocity": 62}, {"time": 3170, "pitch": 53, "duration": 3, "velocity": 82}, {"time": 3170, "pitch": 57, "duration": 3, "velocity": 85}, {"time": 3170, "pitch": 60, "duration": 3, "velocity": 83}, {"time": 3173, "pitch": 41, "duration": 4, "velocity": 82}, {"time": 3176, "pitch": 53, "duration": 3, "velocity": 82}, {"time": 3176, "pitch": 57, "duration": 3, "velocity": 86}, {"time": 3176, "pitch": 60, "duration": 3, "velocity": 82}, {"time": 3179, "pitch": 41, "duration": 10, "velocity": 69}, {"time": 3179, "pitch": 48, "duration": 8, "velocity": 78}, {"time": 3185, "pitch": 53, "duration": 4, "velocity": 87}, {"time": 3185, "pitch": 57, "duration": 5, "velocity": 90}, {"time": 3185, "pitch": 60, "duration": 6, "velocity": 90}, {"time": 3191, "pitch": 41, "duration": 3, "velocity": 56}, {"time": 3191, "pitch": 48, "duration": 3, "velocity": 82}, {"time": 3197, "pitch": 43, "duration": 15, "velocity": 83}, {"time": 3197, "pitch": 55, "duration": 6, "velocity": 79}, {"time": 3197, "pitch": 59, "duration": 5, "velocity": 81}, {"time": 3203, "pitch": 50, "duration": 8, "velocity": 72}, {"time": 3209, "pitch": 55, "duration": 5, "velocity": 83}, {"time": 3209, "pitch": 59, "duration": 5, "velocity": 90}, {"time": 3209, "pitch": 62, "duration": 4, "velocity": 85}, {"time": 3209, "pitch": 67, "duration": 5, "velocity": 80}, {"time": 3218, "pitch": 55, "duration": 3, "velocity": 79}, {"time": 3218, "pitch": 59, "duration": 3, "velocity": 83}, {"time": 3218, "pitch": 62, "duration": 2, "velocity": 79}, {"time": 3221, "pitch": 43, "duration": 15, "velocity": 82}, {"time": 3224, "pitch": 55, "duration": 3, "velocity": 74}, {"time": 3224, "pitch": 59, "duration": 3, "velocity": 82}, {"time": 3224, "pitch": 62, "duration": 3, "velocity": 81}, {"time": 3227, "pitch": 50, "duration": 8, "velocity": 78}, {"time": 3233, "pitch": 55, "duration": 3, "velocity": 86}, {"time": 3233, "pitch": 59, "duration": 4, "velocity": 88}, {"time": 3233, "pitch": 62, "duration": 4, "velocity": 86}, {"time": 3239, "pitch": 43, "duration": 3, "velocity": 81}, {"time": 3245, "pitch": 40, "duration": 20, "velocity": 81}, {"time": 3245, "pitch": 52, "duration": 6, "velocity": 67}, {"time": 3245, "pitch": 55, "duration": 5, "velocity": 74}, {"time": 3251, "pitch": 47, "duration": 9, "velocity": 81}, {"time": 3257, "pitch": 52, "duration": 3, "velocity": 84}, {"time": 3257, "pitch": 64, "duration": 3, "velocity": 83}, {"time": 3263, "pitch": 47, "duration": 3, "velocity": 70}, {"time": 3266, "pitch": 52, "duration": 2, "velocity": 76}, {"time": 3266, "pitch": 59, "duration": 3, "velocity": 78}, {"time": 3269, "pitch": 40, "duration": 4, "velocity": 83}, {"time": 3272, "pitch": 52, "duration": 3, "velocity": 84}, {"time": 3275, "pitch": 40, "duration": 9, "velocity": 76}, {"time": 3275, "pitch": 47, "duration": 8, "velocity": 82}, {"time": 3281, "pitch": 52, "duration": 5, "velocity": 88}, {"time": 3281, "pitch": 55, "duration": 5, "velocity": 92}, {"time": 3287, "pitch": 40, "duration": 3, "velocity": 83}, {"time": 3293, "pitch": 45, "duration": 15, "velocity": 83}, {"time": 3293, "pitch": 55, "duration": 3, "velocity": 66}, {"time": 3293, "pitch": 57, "duration": 3, "velocity": 64}, {"time": 3299, "pitch": 52, "duration": 9, "velocity": 75}, {"time": 3305, "pitch": 57, "duration": 4, "velocity": 84}, {"time": 3305, "pitch": 60, "duration": 5, "velocity": 88}, {"time": 3311, "pitch": 45, "duration": 3, "velocity": 77}, {"time": 3314, "pitch": 57, "duration": 3, "velocity": 82}, {"time": 3317, "pitch": 45, "duration": 14, "velocity": 83}, {"time": 3320, "pitch": 57, "duration": 3, "velocity": 83}, {"time": 3320, "pitch": 61, "duration": 3, "velocity": 88}, {"time": 3323, "pitch": 52, "duration": 7, "velocity": 82}, {"time": 3329, "pitch": 57, "duration": 6, "velocity": 81}, {"time": 3329, "pitch": 61, "duration": 6, "velocity": 84}, {"time": 3329, "pitch": 64, "duration": 7, "velocity": 83}, {"time": 3335, "pitch": 45, "duration": 3, "velocity": 82}, {"time": 3335, "pitch": 52, "duration": 3, "velocity": 87}, {"time": 3341, "pitch": 41, "duration": 20, "velocity": 83}, {"time": 3341, "pitch": 57, "duration": 4, "velocity": 76}, {"time": 3341, "pitch": 60, "duration": 8, "velocity": 81}, {"time": 3341, "pitch": 65, "duration": 5, "velocity": 82}, {"time": 3347, "pitch": 57, "duration": 2, "velocity": 58}, {"time": 3353, "pitch": 57, "duration": 3, "velocity": 83}, {"time": 3353, "pitch": 60, "duration": 3, "velocity": 85}, {"time": 3362, "pitch": 57, "duration": 3, "velocity": 77}, {"time": 3362, "pitch": 60, "duration": 2, "velocity": 81}, {"time": 3362, "pitch": 65, "duration": 3, "velocity": 73}, {"time": 3365, "pitch": 41, "duration": 3, "velocity": 79}, {"time": 3368, "pitch": 57, "duration": 3, "velocity": 76}, {"time": 3368, "pitch": 60, "duration": 3, "velocity": 82}, {"time": 3371, "pitch": 41, "duration": 10, "velocity": 81}, {"time": 3377, "pitch": 57, "duration": 5, "velocity": 84}, {"time": 3377, "pitch": 60, "duration": 9, "velocity": 90}, {"time": 3377, "pitch": 65, "duration": 10, "velocity": 83}, {"time": 3383, "pitch": 57, "duration": 5, "velocity": 77}, {"time": 3389, "pitch": 43, "duration": 17, "velocity": 82}, {"time": 3389, "pitch": 55, "duration": 9, "velocity": 82}, {"time": 3389, "pitch": 59, "duration": 9, "velocity": 81}, {"time": 3401, "pitch": 55, "duration": 5, "velocity": 82}, {"time": 3401, "pitch": 59, "duration": 5, "velocity": 83}, {"time": 3401, "pitch": 62, "duration": 4, "velocity": 82}, {"time": 3410, "pitch": 55, "duration": 3, "velocity": 74}, {"time": 3410, "pitch": 59, "duration": 3, "velocity": 75}, {"time": 3410, "pitch": 62, "duration": 3, "velocity": 79}, {"time": 3410, "pitch": 67, "duration": 4, "velocity": 70}, {"time": 3413, "pitch": 43, "duration": 3, "velocity": 80}, {"time": 3416, "pitch": 55, "duration": 3, "velocity": 75}, {"time": 3416, "pitch": 59, "duration": 3, "velocity": 78}, {"time": 3416, "pitch": 62, "duration": 3, "velocity": 80}, {"time": 3419, "pitch": 43, "duration": 9, "velocity": 77}, {"time": 3425, "pitch": 55, "duration": 4, "velocity": 85}, {"time": 3425, "pitch": 59, "duration": 6, "velocity": 88}, {"time": 3425, "pitch": 62, "duration": 8, "velocity": 85}, {"time": 3431, "pitch": 55, "duration": 4, "velocity": 82}, {"time": 3437, "pitch": 50, "duration": 11, "velocity": 84}, {"time": 3437, "pitch": 57, "duration": 2, "velocity": 71}, {"time": 3437, "pitch": 62, "duration": 4, "velocity": 81}, {"time": 3437, "pitch": 65, "duration": 5, "velocity": 82}, {"time": 3443, "pitch": 57, "duration": 3, "velocity": 79}, {"time": 3449, "pitch": 57, "duration": 3, "velocity": 82}, {"time": 3449, "pitch": 62, "duration": 3, "velocity": 84}, {"time": 3449, "pitch": 65, "duration": 4, "velocity": 83}, {"time": 3458, "pitch": 57, "duration": 3, "velocity": 82}, {"time": 3458, "pitch": 62, "duration": 3, "velocity": 82}, {"time": 3458, "pitch": 65, "duration": 3, "velocity": 81}, {"time": 3461, "pitch": 38, "duration": 6, "velocity": 82}, {"time": 3464, "pitch": 57, "duration": 3, "velocity": 82}, {"time": 3464, "pitch": 62, "duration": 3, "velocity": 81}, {"time": 3464, "pitch": 65, "duration": 4, "velocity": 81}, {"time": 3467, "pitch": 38, "duration": 3, "velocity": 82}, {"time": 3473, "pitch": 57, "duration": 3, "velocity": 83}, {"time": 3473, "pitch": 62, "duration": 4, "velocity": 85}, {"time": 3473, "pitch": 65, "duration": 6, "velocity": 86}, {"time": 3479, "pitch": 57, "duration": 3, "velocity": 82}, {"time": 3485, "pitch": 40, "duration": 14, "velocity": 84}, {"time": 3485, "pitch": 52, "duration": 6, "velocity": 83}, {"time": 3485, "pitch": 56, "duration": 6, "velocity": 85}, {"time": 3485, "pitch": 59, "duration": 6, "velocity": 83}, {"time": 3491, "pitch": 47, "duration": 8, "velocity": 78}, {"time": 3497, "pitch": 52, "duration": 3, "velocity": 83}, {"time": 3497, "pitch": 56, "duration": 2, "velocity": 82}, {"time": 3497, "pitch": 64, "duration": 3, "velocity": 85}, {"time": 3506, "pitch": 52, "duration": 3, "velocity": 81}, {"time": 3506, "pitch": 64, "duration": 3, "velocity": 82}, {"time": 3509, "pitch": 40, "duration": 3, "velocity": 82}, {"time": 3512, "pitch": 52, "duration": 2, "velocity": 84}, {"time": 3512, "pitch": 56, "duration": 3, "velocity": 80}, {"time": 3512, "pitch": 59, "duration": 3, "velocity": 86}, {"time": 3515, "pitch": 40, "duration": 12, "velocity": 72}, {"time": 3515, "pitch": 47, "duration": 8, "velocity": 83}, {"time": 3521, "pitch": 52, "duration": 4, "velocity": 84}, {"time": 3521, "pitch": 56, "duration": 12, "velocity": 85}, {"time": 3521, "pitch": 59, "duration": 13, "velocity": 84}, {"time": 3521, "pitch": 64, "duration": 13, "velocity": 86}, {"time": 3527, "pitch": 52, "duration": 6, "velocity": 87}, {"time": 3533, "pitch": 45, "duration": 12, "velocity": 84}, {"time": 3533, "pitch": 55, "duration": 7, "velocity": 82}, {"time": 3533, "pitch": 60, "duration": 7, "velocity": 83}, {"time": 3542, "pitch": 55, "duration": 2, "velocity": 81}, {"time": 3542, "pitch": 60, "duration": 2, "velocity": 82}, {"time": 3551, "pitch": 40, "duration": 6, "velocity": 87}, {"time": 3551, "pitch": 55, "duration": 7, "velocity": 84}, {"time": 3551, "pitch": 60, "duration": 7, "velocity": 85}, {"time": 3557, "pitch": 43, "duration": 16, "velocity": 88}, {"time": 3560, "pitch": 55, "duration": 4, "velocity": 82}, {"time": 3560, "pitch": 59, "duration": 4, "velocity": 86}, {"time": 3569, "pitch": 55, "duration": 6, "velocity": 82}, {"time": 3569, "pitch": 59, "duration": 6, "velocity": 82}, {"time": 3581, "pitch": 45, "duration": 8, "velocity": 83}, {"time": 3581, "pitch": 57, "duration": 8, "velocity": 81}, {"time": 3581, "pitch": 60, "duration": 8, "velocity": 83}, {"time": 3590, "pitch": 45, "duration": 3, "velocity": 85}, {"time": 3590, "pitch": 57, "duration": 2, "velocity": 82}, {"time": 3590, "pitch": 60, "duration": 2, "velocity": 83}, {"time": 3599, "pitch": 40, "duration": 5, "velocity": 80}, {"time": 3599, "pitch": 57, "duration": 7, "velocity": 83}, {"time": 3599, "pitch": 60, "duration": 7, "velocity": 87}, {"time": 3605, "pitch": 43, "duration": 8, "velocity": 86}, {"time": 3608, "pitch": 55, "duration": 5, "velocity": 82}, {"time": 3608, "pitch": 59, "duration": 6, "velocity": 90}, {"time": 3614, "pitch": 43, "duration": 4, "velocity": 83}, {"time": 3614, "pitch": 55, "duration": 4, "velocity": 84}, {"time": 3617, "pitch": 50, "duration": 10, "velocity": 85}, {"time": 3623, "pitch": 40, "duration": 6, "velocity": 83}, {"time": 3623, "pitch": 55, "duration": 3, "velocity": 80}, {"time": 3629, "pitch": 45, "duration": 7, "velocity": 85}, {"time": 3629, "pitch": 57, "duration": 7, "velocity": 82}, {"time": 3629, "pitch": 60, "duration": 7, "velocity": 82}, {"time": 3638, "pitch": 45, "duration": 3, "velocity": 86}, {"time": 3638, "pitch": 57, "duration": 2, "velocity": 78}, {"time": 3638, "pitch": 60, "duration": 2, "velocity": 80}, {"time": 3647, "pitch": 40, "duration": 5, "velocity": 85}, {"time": 3647, "pitch": 57, "duration": 9, "velocity": 75}, {"time": 3647, "pitch": 60, "duration": 10, "velocity": 79}, {"time": 3653, "pitch": 43, "duration": 7, "velocity": 87}, {"time": 3662, "pitch": 43, "duration": 4, "velocity": 85}, {"time": 3662, "pitch": 55, "duration": 3, "velocity": 81}, {"time": 3662, "pitch": 59, "duration": 3, "velocity": 82}, {"time": 3665, "pitch": 50, "duration": 10, "velocity": 77}, {"time": 3671, "pitch": 40, "duration": 5, "velocity": 87}, {"time": 3671, "pitch": 55, "duration": 5, "velocity": 83}, {"time": 3671, "pitch": 59, "duration": 5, "velocity": 84}, {"time": 3677, "pitch": 45, "duration": 12, "velocity": 84}, {"time": 3677, "pitch": 55, "duration": 7, "velocity": 82}, {"time": 3677, "pitch": 60, "duration": 7, "velocity": 83}, {"time": 3686, "pitch": 55, "duration": 2, "velocity": 81}, {"time": 3686, "pitch": 60, "duration": 2, "velocity": 82}, {"time": 3695, "pitch": 40, "duration": 6, "velocity": 87}, {"time": 3695, "pitch": 55, "duration": 7, "velocity": 84}, {"time": 3695, "pitch": 60, "duration": 7, "velocity": 85}, {"time": 3701, "pitch": 43, "duration": 16, "velocity": 88}, {"time": 3704, "pitch": 55, "duration": 4, "velocity": 82}, {"time": 3704, "pitch": 59, "duration": 4, "velocity": 86}, {"time": 3713, "pitch": 55, "duration": 6, "velocity": 82}, {"time": 3713, "pitch": 59, "duration": 6, "velocity": 82}, {"time": 3725, "pitch": 45, "duration": 12, "velocity": 84}, {"time": 3725, "pitch": 55, "duration": 7, "velocity": 82}, {"time": 3725, "pitch": 60, "duration": 7, "velocity": 83}, {"time": 3734, "pitch": 55, "duration": 2, "velocity": 81}, {"time": 3734, "pitch": 60, "duration": 2, "velocity": 82}, {"time": 3743, "pitch": 40, "duration": 6, "velocity": 87}, {"time": 3743, "pitch": 55, "duration": 7, "velocity": 84}, {"time": 3743, "pitch": 60, "duration": 7, "velocity": 85}, {"time": 3749, "pitch": 43, "duration": 16, "velocity": 88}, {"time": 3752, "pitch": 55, "duration": 4, "velocity": 82}, {"time": 3752, "pitch": 59, "duration": 4, "velocity": 86}, {"time": 3761, "pitch": 55, "duration": 6, "velocity": 82}, {"time": 3761, "pitch": 59, "duration": 6, "velocity": 82}, {"time": 3773, "pitch": 45, "duration": 8, "velocity": 83}, {"time": 3773, "pitch": 57, "duration": 8, "velocity": 81}, {"time": 3773, "pitch": 60, "duration": 8, "velocity": 83}, {"time": 3782, "pitch": 45, "duration": 3, "velocity": 85}, {"time": 3782, "pitch": 57, "duration": 2, "velocity": 82}, {"time": 3782, "pitch": 60, "duration": 2, "velocity": 83}, {"time": 3791, "pitch": 40, "duration": 5, "velocity": 80}, {"time": 3791, "pitch": 57, "duration": 7, "velocity": 83}, {"time": 3791, "pitch": 60, "duration": 7, "velocity": 87}, {"time": 3797, "pitch": 43, "duration": 8, "velocity": 86}, {"time": 3800, "pitch": 55, "duration": 5, "velocity": 82}, {"time": 3800, "pitch": 59, "duration": 6, "velocity": 90}, {"time": 3806, "pitch": 43, "duration": 4, "velocity": 83}, {"time": 3806, "pitch": 55, "duration": 4, "velocity": 84}, {"time": 3809, "pitch": 50, "duration": 10, "velocity": 85}, {"time": 3815, "pitch": 40, "duration": 6, "velocity": 83}, {"time": 3815, "pitch": 55, "duration": 3, "velocity": 80}, {"time": 3821, "pitch": 45, "duration": 7, "velocity": 85}, {"time": 3821, "pitch": 57, "duration": 7, "velocity": 82}, {"time": 3821, "pitch": 60, "duration": 7, "velocity": 82}, {"time": 3830, "pitch": 45, "duration": 3, "velocity": 86}, {"time": 3830, "pitch": 57, "duration": 2, "velocity": 78}, {"time": 3830, "pitch": 60, "duration": 2, "velocity": 80}, {"time": 3839, "pitch": 40, "duration": 5, "velocity": 85}, {"time": 3839, "pitch": 57, "duration": 9, "velocity": 75}, {"time": 3839, "pitch": 60, "duration": 10, "velocity": 79}, {"time": 3845, "pitch": 43, "duration": 7, "velocity": 87}, {"time": 3854, "pitch": 43, "duration": 4, "velocity": 85}, {"time": 3854, "pitch": 55, "duration": 3, "velocity": 81}, {"time": 3854, "pitch": 59, "duration": 3, "velocity": 82}, {"time": 3857, "pitch": 50, "duration": 10, "velocity": 77}, {"time": 3863, "pitch": 40, "duration": 5, "velocity": 87}, {"time": 3863, "pitch": 55, "duration": 5, "velocity": 83}, {"time": 3863, "pitch": 59, "duration": 5, "velocity": 84}, {"time": 3869, "pitch": 45, "duration": 12, "velocity": 84}, {"time": 3869, "pitch": 55, "duration": 7, "velocity": 82}, {"time": 3869, "pitch": 60, "duration": 7, "velocity": 83}, {"time": 3878, "pitch": 55, "duration": 2, "velocity": 81}, {"time": 3878, "pitch": 60, "duration": 2, "velocity": 82}, {"time": 3887, "pitch": 40, "duration": 6, "velocity": 87}, {"time": 3887, "pitch": 55, "duration": 7, "velocity": 84}, {"time": 3887, "pitch": 60, "duration": 7, "velocity": 85}, {"time": 3893, "pitch": 43, "duration": 16, "velocity": 88}, {"time": 3896, "pitch": 55, "duration": 4, "velocity": 82}, {"time": 3896, "pitch": 59, "duration": 4, "velocity": 86}, {"time": 3905, "pitch": 55, "duration": 6, "velocity": 82}, {"time": 3905, "pitch": 59, "duration": 6, "velocity": 82}, {"time": 3917, "pitch": 41, "duration": 40, "velocity": 82}, {"time": 3917, "pitch": 53, "duration": 10, "velocity": 77}, {"time": 3917, "pitch": 57, "duration": 9, "velocity": 77}, {"time": 3917, "pitch": 65, "duration": 10, "velocity": 81}, {"time": 3953, "pitch": 57, "duration": 4, "velocity": 83}, {"time": 3953, "pitch": 60, "duration": 7, "velocity": 82}, {"time": 3959, "pitch": 53, "duration": 3, "velocity": 81}, {"time": 3965, "pitch": 43, "duration": 16, "velocity": 83}, {"time": 3965, "pitch": 55, "duration": 7, "velocity": 81}, {"time": 3965, "pitch": 59, "duration": 6, "velocity": 83}, {"time": 3974, "pitch": 55, "duration": 2, "velocity": 73}, {"time": 3974, "pitch": 59, "duration": 2, "velocity": 75}, {"time": 3974, "pitch": 62, "duration": 3, "velocity": 77}, {"time": 3983, "pitch": 43, "duration": 17, "velocity": 84}, {"time": 3983, "pitch": 50, "duration": 16, "velocity": 82}, {"time": 3983, "pitch": 55, "duration": 16, "velocity": 82}, {"time": 3983, "pitch": 59, "duration": 16, "velocity": 82}, {"time": 3983, "pitch": 67, "duration": 15, "velocity": 81}, {"time": 4013, "pitch": 40, "duration": 8, "velocity": 87}, {"time": 4013, "pitch": 52, "duration": 8, "velocity": 81}, {"time": 4013, "pitch": 64, "duration": 8, "velocity": 81}, {"time": 4049, "pitch": 43, "duration": 3, "velocity": 92}, {"time": 4049, "pitch": 55, "duration": 5, "velocity": 88}, {"time": 4055, "pitch": 52, "duration": 2, "velocity": 85}, {"time": 4061, "pitch": 45, "duration": 7, "velocity": 88}, {"time": 4061, "pitch": 52, "duration": 7, "velocity": 87}, {"time": 4061, "pitch": 57, "duration": 7, "velocity": 81}, {"time": 4061, "pitch": 69, "duration": 7, "velocity": 82}, {"time": 4070, "pitch": 45, "duration": 2, "velocity": 81}, {"time": 4070, "pitch": 52, "duration": 2, "velocity": 85}, {"time": 4070, "pitch": 57, "duration": 2, "velocity": 82}, {"time": 4070, "pitch": 69, "duration": 2, "velocity": 75}, {"time": 4079, "pitch": 45, "duration": 29, "velocity": 86}, {"time": 4079, "pitch": 52, "duration": 29, "velocity": 90}, {"time": 4079, "pitch": 57, "duration": 6, "velocity": 74}, {"time": 4079, "pitch": 61, "duration": 8, "velocity": 74}, {"time": 4079, "pitch": 64, "duration": 14, "velocity": 81}, {"time": 4091, "pitch": 57, "duration": 4, "velocity": 81}, {"time": 4097, "pitch": 57, "duration": 4, "velocity": 83}, {"time": 4097, "pitch": 61, "duration": 11, "velocity": 88}, {"time": 4097, "pitch": 64, "duration": 12, "velocity": 88}, {"time": 4103, "pitch": 57, "duration": 5, "velocity": 82}, {"time": 4109, "pitch": 41, "duration": 20, "velocity": 83}, {"time": 4109, "pitch": 57, "duration": 4, "velocity": 76}, {"time": 4109, "pitch": 60, "duration": 8, "velocity": 81}, {"time": 4109, "pitch": 65, "duration": 5, "velocity": 82}, {"time": 4115, "pitch": 57, "duration": 2, "velocity": 58}, {"time": 4121, "pitch": 57, "duration": 3, "velocity": 83}, {"time": 4121, "pitch": 60, "duration": 3, "velocity": 85}, {"time": 4130, "pitch": 57, "duration": 3, "velocity": 77}, {"time": 4130, "pitch": 60, "duration": 2, "velocity": 81}, {"time": 4130, "pitch": 65, "duration": 3, "velocity": 73}, {"time": 4133, "pitch": 41, "duration": 3, "velocity": 79}, {"time": 4136, "pitch": 57, "duration": 3, "velocity": 76}, {"time": 4136, "pitch": 60, "duration": 3, "velocity": 82}, {"time": 4139, "pitch": 41, "duration": 10, "velocity": 81}, {"time": 4145, "pitch": 57, "duration": 5, "velocity": 84}, {"time": 4145, "pitch": 60, "duration": 9, "velocity": 90}, {"time": 4145, "pitch": 65, "duration": 10, "velocity": 83}, {"time": 4151, "pitch": 57, "duration": 5, "velocity": 77}, {"time": 4157, "pitch": 43, "duration": 17, "velocity": 82}, {"time": 4157, "pitch": 55, "duration": 9, "velocity": 82}, {"time": 4157, "pitch": 59, "duration": 9, "velocity": 81}, {"time": 4169, "pitch": 55, "duration": 5, "velocity": 82}, {"time": 4169, "pitch": 59, "duration": 5, "velocity": 83}, {"time": 4169, "pitch": 62, "duration": 4, "velocity": 82}, {"time": 4178, "pitch": 55, "duration": 3, "velocity": 74}, {"time": 4178, "pitch": 59, "duration": 3, "velocity": 75}, {"time": 4178, "pitch": 62, "duration": 3, "velocity": 79}, {"time": 4178, "pitch": 67, "duration": 4, "velocity": 70}, {"time": 4181, "pitch": 43, "duration": 3, "velocity": 80}, {"time": 4184, "pitch": 55, "duration": 3, "velocity": 75}, {"time": 4184, "pitch": 59, "duration": 3, "velocity": 78}, {"time": 4184, "pitch": 62, "duration": 3, "velocity": 80}, {"time": 4187, "pitch": 43, "duration": 9, "velocity": 77}, {"time": 4193, "pitch": 55, "duration": 4, "velocity": 85}, {"time": 4193, "pitch": 59, "duration": 6, "velocity": 88}, {"time": 4193, "pitch": 62, "duration": 8, "velocity": 85}, {"time": 4199, "pitch": 55, "duration": 4, "velocity": 82}, {"time": 4205, "pitch": 47, "duration": 15, "velocity": 83}, {"time": 4205, "pitch": 59, "duration": 9, "velocity": 74}, {"time": 4205, "pitch": 62, "duration": 9, "velocity": 74}, {"time": 4205, "pitch": 69, "duration": 8, "velocity": 76}, {"time": 4217, "pitch": 59, "duration": 6, "velocity": 82}, {"time": 4217, "pitch": 62, "duration": 6, "velocity": 87}, {"time": 4217, "pitch": 69, "duration": 5, "velocity": 83}, {"time": 4223, "pitch": 53, "duration": 2, "velocity": 71}, {"time": 4226, "pitch": 59, "duration": 3, "velocity": 81}, {"time": 4226, "pitch": 62, "duration": 2, "velocity": 82}, {"time": 4226, "pitch": 69, "duration": 3, "velocity": 80}, {"time": 4229, "pitch": 47, "duration": 3, "velocity": 79}, {"time": 4232, "pitch": 59, "duration": 3, "velocity": 81}, {"time": 4232, "pitch": 62, "duration": 3, "velocity": 82}, {"time": 4232, "pitch": 69, "duration": 3, "velocity": 79}, {"time": 4235, "pitch": 47, "duration": 11, "velocity": 81}, {"time": 4235, "pitch": 53, "duration": 9, "velocity": 76}, {"time": 4241, "pitch": 59, "duration": 2, "velocity": 82}, {"time": 4241, "pitch": 62, "duration": 3, "velocity": 85}, {"time": 4241, "pitch": 69, "duration": 10, "velocity": 82}, {"time": 4247, "pitch": 59, "duration": 4, "velocity": 76}, {"time": 4253, "pitch": 40, "duration": 3, "velocity": 83}, {"time": 4259, "pitch": 40, "duration": 3, "velocity": 77}, {"time": 4259, "pitch": 59, "duration": 3, "velocity": 67}, {"time": 4259, "pitch": 64, "duration": 3, "velocity": 75}, {"time": 4265, "pitch": 40, "duration": 3, "velocity": 83}, {"time": 4265, "pitch": 59, "duration": 6, "velocity": 82}, {"time": 4265, "pitch": 64, "duration": 7, "velocity": 86}, {"time": 4268, "pitch": 69, "duration": 1, "velocity": 69}, {"time": 4271, "pitch": 40, "duration": 2, "velocity": 73}, {"time": 4274, "pitch": 59, "duration": 3, "velocity": 84}, {"time": 4274, "pitch": 64, "duration": 3, "velocity": 87}, {"time": 4274, "pitch": 68, "duration": 3, "velocity": 83}, {"time": 4277, "pitch": 40, "duration": 2, "velocity": 78}, {"time": 4280, "pitch": 59, "duration": 3, "velocity": 81}, {"time": 4280, "pitch": 64, "duration": 3, "velocity": 83}, {"time": 4280, "pitch": 68, "duration": 4, "velocity": 78}, {"time": 4283, "pitch": 40, "duration": 11, "velocity": 82}, {"time": 4289, "pitch": 59, "duration": 4, "velocity": 85}, {"time": 4289, "pitch": 64, "duration": 5, "velocity": 88}, {"time": 4289, "pitch": 68, "duration": 13, "velocity": 85}, {"time": 4295, "pitch": 59, "duration": 6, "velocity": 87}, {"time": 4295, "pitch": 64, "duration": 7, "velocity": 56}, {"time": 4301, "pitch": 41, "duration": 21, "velocity": 83}, {"time": 4301, "pitch": 53, "duration": 7, "velocity": 76}, {"time": 4301, "pitch": 60, "duration": 6, "velocity": 79}, {"time": 4307, "pitch": 48, "duration": 10, "velocity": 81}, {"time": 4313, "pitch": 53, "duration": 7, "velocity": 82}, {"time": 4313, "pitch": 57, "duration": 6, "velocity": 84}, {"time": 4313, "pitch": 60, "duration": 7, "velocity": 83}, {"time": 4319, "pitch": 48, "duration": 3, "velocity": 62}, {"time": 4322, "pitch": 53, "duration": 3, "velocity": 82}, {"time": 4322, "pitch": 57, "duration": 3, "velocity": 85}, {"time": 4322, "pitch": 60, "duration": 3, "velocity": 83}, {"time": 4325, "pitch": 41, "duration": 4, "velocity": 82}, {"time": 4328, "pitch": 53, "duration": 3, "velocity": 82}, {"time": 4328, "pitch": 57, "duration": 3, "velocity": 86}, {"time": 4328, "pitch": 60, "duration": 3, "velocity": 82}, {"time": 4331, "pitch": 41, "duration": 10, "velocity": 69}, {"time": 4331, "pitch": 48, "duration": 8, "velocity": 78}, {"time": 4337, "pitch": 53, "duration": 4, "velocity": 87}, {"time": 4337, "pitch": 57, "duration": 5, "velocity": 90}, {"time": 4337, "pitch": 60, "duration": 6, "velocity": 90}, {"time": 4343, "pitch": 41, "duration": 3, "velocity": 56}, {"time": 4343, "pitch": 48, "duration": 3, "velocity": 82}, {"time": 4349, "pitch": 43, "duration": 15, "velocity": 83}, {"time": 4349, "pitch": 55, "duration": 6, "velocity": 79}, {"time": 4349, "pitch": 59, "duration": 5, "velocity": 81}, {"time": 4355, "pitch": 50, "duration": 8, "velocity": 72}, {"time": 4361, "pitch": 55, "duration": 5, "velocity": 83}, {"time": 4361, "pitch": 59, "duration": 5, "velocity": 90}, {"time": 4361, "pitch": 62, "duration": 4, "velocity": 85}, {"time": 4361, "pitch": 67, "duration": 5, "velocity": 80}, {"time": 4370, "pitch": 55, "duration": 3, "velocity": 79}, {"time": 4370, "pitch": 59, "duration": 3, "velocity": 83}, {"time": 4370, "pitch": 62, "duration": 2, "velocity": 79}, {"time": 4373, "pitch": 43, "duration": 15, "velocity": 82}, {"time": 4376, "pitch": 55, "duration": 3, "velocity": 74}, {"time": 4376, "pitch": 59, "duration": 3, "velocity": 82}, {"time": 4376, "pitch": 62, "duration": 3, "velocity": 81}, {"time": 4379, "pitch": 50, "duration": 8, "velocity": 78}, {"time": 4385, "pitch": 55, "duration": 3, "velocity": 86}, {"time": 4385, "pitch": 59, "duration": 4, "velocity": 88}, {"time": 4385, "pitch": 62, "duration": 4, "velocity": 86}, {"time": 4391, "pitch": 43, "duration": 3, "velocity": 81}, {"time": 4397, "pitch": 40, "duration": 20, "velocity": 81}, {"time": 4397, "pitch": 52, "duration": 6, "velocity": 67}, {"time": 4397, "pitch": 55, "duration": 5, "velocity": 74}, {"time": 4403, "pitch": 47, "duration": 9, "velocity": 81}, {"time": 4409, "pitch": 52, "duration": 3, "velocity": 84}, {"time": 4409, "pitch": 64, "duration": 3, "velocity": 83}, {"time": 4415, "pitch": 47, "duration": 3, "velocity": 70}, {"time": 4418, "pitch": 52, "duration": 2, "velocity": 76}, {"time": 4418, "pitch": 59, "duration": 3, "velocity": 78}, {"time": 4421, "pitch": 40, "duration": 4, "velocity": 83}, {"time": 4424, "pitch": 52, "duration": 3, "velocity": 84}, {"time": 4427, "pitch": 40, "duration": 9, "velocity": 76}, {"time": 4427, "pitch": 47, "duration": 8, "velocity": 82}, {"time": 4433, "pitch": 52, "duration": 5, "velocity": 88}, {"time": 4433, "pitch": 55, "duration": 5, "velocity": 92}, {"time": 4439, "pitch": 40, "duration": 3, "velocity": 83}, {"time": 4445, "pitch": 45, "duration": 15, "velocity": 83}, {"time": 4445, "pitch": 55, "duration": 3, "velocity": 66}, {"time": 4445, "pitch": 57, "duration": 3, "velocity": 64}, {"time": 4451, "pitch": 52, "duration": 9, "velocity": 75}, {"time": 4457, "pitch": 57, "duration": 4, "velocity": 84}, {"time": 4457, "pitch": 60, "duration": 5, "velocity": 88}, {"time": 4463, "pitch": 45, "duration": 3, "velocity": 77}, {"time": 4466, "pitch": 57, "duration": 3, "velocity": 82}, {"time": 4469, "pitch": 45, "duration": 14, "velocity": 83}, {"time": 4472, "pitch": 57, "duration": 3, "velocity": 83}, {"time": 4472, "pitch": 61, "duration": 3, "velocity": 88}, {"time": 4475, "pitch": 52, "duration": 7, "velocity": 82}, {"time": 4481, "pitch": 57, "duration": 6, "velocity": 81}, {"time": 4481, "pitch": 61, "duration": 6, "velocity": 84}, {"time": 4481, "pitch": 64, "duration": 7, "velocity": 83}, {"time": 4487, "pitch": 45, "duration": 3, "velocity": 82}, {"time": 4487, "pitch": 52, "duration": 3, "velocity": 87}, {"time": 4493, "pitch": 41, "duration": 20, "velocity": 83}, {"time": 4493, "pitch": 57, "duration": 4, "velocity": 76}, {"time": 4493, "pitch": 60, "duration": 8, "velocity": 81}, {"time": 4493, "pitch": 65, "duration": 5, "velocity": 82}, {"time": 4499, "pitch": 57, "duration": 2, "velocity": 58}, {"time": 4505, "pitch": 57, "duration": 3, "velocity": 83}, {"time": 4505, "pitch": 60, "duration": 3, "velocity": 85}, {"time": 4514, "pitch": 57, "duration": 3, "velocity": 77}, {"time": 4514, "pitch": 60, "duration": 2, "velocity": 81}, {"time": 4514, "pitch": 65, "duration": 3, "velocity": 73}, {"time": 4517, "pitch": 41, "duration": 3, "velocity": 79}, {"time": 4520, "pitch": 57, "duration": 3, "velocity": 76}, {"time": 4520, "pitch": 60, "duration": 3, "velocity": 82}, {"time": 4523, "pitch": 41, "duration": 10, "velocity": 81}, {"time": 4529, "pitch": 57, "duration": 5, "velocity": 84}, {"time": 4529, "pitch": 60, "duration": 9, "velocity": 90}, {"time": 4529, "pitch": 65, "duration": 10, "velocity": 83}, {"time": 4535, "pitch": 57, "duration": 5, "velocity": 77}, {"time": 4541, "pitch": 43, "duration": 17, "velocity": 82}, {"time": 4541, "pitch": 55, "duration": 9, "velocity": 82}, {"time": 4541, "pitch": 59, "duration": 9, "velocity": 81}, {"time": 4553, "pitch": 55, "duration": 5, "velocity": 82}, {"time": 4553, "pitch": 59, "duration": 5, "velocity": 83}, {"time": 4553, "pitch": 62, "duration": 4, "velocity": 82}, {"time": 4562, "pitch": 55, "duration": 3, "velocity": 74}, {"time": 4562, "pitch": 59, "duration": 3, "velocity": 75}, {"time": 4562, "pitch": 62, "duration": 3, "velocity": 79}, {"time": 4562, "pitch": 67, "duration": 4, "velocity": 70}, {"time": 4565, "pitch": 43, "duration": 3, "velocity": 80}, {"time": 4568, "pitch": 55, "duration": 3, "velocity": 75}, {"time": 4568, "pitch": 59, "duration": 3, "velocity": 78}, {"time": 4568, "pitch": 62, "duration": 3, "velocity": 80}, {"time": 4571, "pitch": 43, "duration": 9, "velocity": 77}, {"time": 4577, "pitch": 55, "duration": 4, "velocity": 85}, {"time": 4577, "pitch": 59, "duration": 6, "velocity": 88}, {"time": 4577, "pitch": 62, "duration": 8, "velocity": 85}, {"time": 4583, "pitch": 55, "duration": 4, "velocity": 82}, {"time": 4589, "pitch": 50, "duration": 11, "velocity": 84}, {"time": 4589, "pitch": 57, "duration": 2, "velocity": 71}, {"time": 4589, "pitch": 62, "duration": 4, "velocity": 81}, {"time": 4589, "pitch": 65, "duration": 5, "velocity": 82}, {"time": 4595, "pitch": 57, "duration": 3, "velocity": 79}, {"time": 4601, "pitch": 57, "duration": 3, "velocity": 82}, {"time": 4601, "pitch": 62, "duration": 3, "velocity": 84}, {"time": 4601, "pitch": 65, "duration": 4, "velocity": 83}, {"time": 4610, "pitch": 57, "duration": 3, "velocity": 82}, {"time": 4610, "pitch": 62, "duration": 3, "velocity": 82}, {"time": 4610, "pitch": 65, "duration": 3, "velocity": 81}, {"time": 4613, "pitch": 38, "duration": 6, "velocity": 82}, {"time": 4616, "pitch": 57, "duration": 3, "velocity": 82}, {"time": 4616, "pitch": 62, "duration": 3, "velocity": 81}, {"time": 4616, "pitch": 65, "duration": 4, "velocity": 81}, {"time": 4619, "pitch": 38, "duration": 3, "velocity": 82}, {"time": 4625, "pitch": 57, "duration": 3, "velocity": 83}, {"time": 4625, "pitch": 62, "duration": 4, "velocity": 85}, {"time": 4625, "pitch": 65, "duration": 6, "velocity": 86}, {"time": 4631, "pitch": 57, "duration": 3, "velocity": 82}, {"time": 4637, "pitch": 40, "duration": 14, "velocity": 84}, {"time": 4637, "pitch": 52, "duration": 6, "velocity": 83}, {"time": 4637, "pitch": 56, "duration": 6, "velocity": 85}, {"time": 4637, "pitch": 59, "duration": 6, "velocity": 83}, {"time": 4643, "pitch": 47, "duration": 8, "velocity": 78}, {"time": 4649, "pitch": 52, "duration": 3, "velocity": 83}, {"time": 4649, "pitch": 56, "duration": 2, "velocity": 82}, {"time": 4649, "pitch": 64, "duration": 3, "velocity": 85}, {"time": 4658, "pitch": 52, "duration": 3, "velocity": 81}, {"time": 4658, "pitch": 64, "duration": 3, "velocity": 82}, {"time": 4661, "pitch": 40, "duration": 3, "velocity": 82}, {"time": 4664, "pitch": 52, "duration": 2, "velocity": 84}, {"time": 4664, "pitch": 56, "duration": 3, "velocity": 80}, {"time": 4664, "pitch": 59, "duration": 3, "velocity": 86}, {"time": 4667, "pitch": 40, "duration": 12, "velocity": 72}, {"time": 4667, "pitch": 47, "duration": 8, "velocity": 83}, {"time": 4673, "pitch": 52, "duration": 4, "velocity": 84}, {"time": 4673, "pitch": 56, "duration": 12, "velocity": 85}, {"time": 4673, "pitch": 59, "duration": 13, "velocity": 84}, {"time": 4673, "pitch": 64, "duration": 13, "velocity": 86}, {"time": 4679, "pitch": 52, "duration": 6, "velocity": 87}, {"time": 4685, "pitch": 45, "duration": 13, "velocity": 81}, {"time": 4685, "pitch": 57, "duration": 7, "velocity": 74}, {"time": 4685, "pitch": 60, "duration": 7, "velocity": 76}, {"time": 4694, "pitch": 55, "duration": 2, "velocity": 86}, {"time": 4694, "pitch": 60, "duration": 2, "velocity": 85}, {"time": 4703, "pitch": 55, "duration": 8, "velocity": 82}, {"time": 4703, "pitch": 60, "duration": 7, "velocity": 82}, {"time": 4709, "pitch": 43, "duration": 20, "velocity": 81}, {"time": 4727, "pitch": 55, "duration": 4, "velocity": 83}, {"time": 4727, "pitch": 59, "duration": 4, "velocity": 83}, {"time": 4727, "pitch": 62, "duration": 4, "velocity": 82}, {"time": 4733, "pitch": 45, "duration": 13, "velocity": 82}, {"time": 4733, "pitch": 57, "duration": 7, "velocity": 74}, {"time": 4733, "pitch": 60, "duration": 7, "velocity": 81}, {"time": 4742, "pitch": 57, "duration": 2, "velocity": 73}, {"time": 4742, "pitch": 60, "duration": 2, "velocity": 75}, {"time": 4742, "pitch": 64, "duration": 2, "velocity": 78}, {"time": 4751, "pitch": 57, "duration": 7, "velocity": 70}, {"time": 4751, "pitch": 60, "duration": 7, "velocity": 71}, {"time": 4751, "pitch": 64, "duration": 12, "velocity": 81}, {"time": 4754, "pitch": 43, "duration": 18, "velocity": 71}, {"time": 4763, "pitch": 55, "duration": 7, "velocity": 76}, {"time": 4763, "pitch": 59, "duration": 7, "velocity": 77}, {"time": 4763, "pitch": 62, "duration": 7, "velocity": 78}, {"time": 4769, "pitch": 50, "duration": 4, "velocity": 70}, {"time": 4772, "pitch": 55, "duration": 3, "velocity": 81}, {"time": 4772, "pitch": 59, "duration": 3, "velocity": 82}, {"time": 4772, "pitch": 62, "duration": 3, "velocity": 82}, {"time": 4781, "pitch": 45, "duration": 14, "velocity": 82}, {"time": 4781, "pitch": 57, "duration": 7, "velocity": 70}, {"time": 4781, "pitch": 60, "duration": 7, "velocity": 78}, {"time": 4790, "pitch": 57, "duration": 3, "velocity": 74}, {"time": 4790, "pitch": 60, "duration": 2, "velocity": 78}, {"time": 4799, "pitch": 57, "duration": 4, "velocity": 75}, {"time": 4799, "pitch": 60, "duration": 4, "velocity": 76}, {"time": 4805, "pitch": 43, "duration": 21, "velocity": 66}, {"time": 4805, "pitch": 55, "duration": 14, "velocity": 74}, {"time": 4805, "pitch": 59, "duration": 14, "velocity": 75}, {"time": 4820, "pitch": 55, "duration": 4, "velocity": 80}, {"time": 4823, "pitch": 59, "duration": 4, "velocity": 81}, {"time": 4829, "pitch": 45, "duration": 13, "velocity": 81}, {"time": 4829, "pitch": 57, "duration": 7, "velocity": 75}, {"time": 4829, "pitch": 60, "duration": 7, "velocity": 83}, {"time": 4838, "pitch": 57, "duration": 2, "velocity": 75}, {"time": 4838, "pitch": 60, "duration": 2, "velocity": 82}, {"time": 4847, "pitch": 57, "duration": 8, "velocity": 76}, {"time": 4847, "pitch": 60, "duration": 9, "velocity": 80}, {"time": 4853, "pitch": 43, "duration": 10, "velocity": 80}, {"time": 4859, "pitch": 55, "duration": 7, "velocity": 82}, {"time": 4859, "pitch": 59, "duration": 7, "velocity": 83}, {"time": 4859, "pitch": 62, "duration": 7, "velocity": 85}, {"time": 4865, "pitch": 50, "duration": 3, "velocity": 79}, {"time": 4868, "pitch": 55, "duration": 4, "velocity": 82}, {"time": 4868, "pitch": 59, "duration": 5, "velocity": 86}, {"time": 4868, "pitch": 62, "duration": 5, "velocity": 86}, {"time": 4871, "pitch": 43, "duration": 5, "velocity": 77}, {"time": 4874, "pitch": 55, "duration": 2, "velocity": 82}, {"time": 4877, "pitch": 45, "duration": 23, "velocity": 83}, {"time": 4877, "pitch": 55, "duration": 7, "velocity": 82}, {"time": 4877, "pitch": 60, "duration": 7, "velocity": 83}, {"time": 4886, "pitch": 55, "duration": 2, "velocity": 81}, {"time": 4886, "pitch": 60, "duration": 2, "velocity": 82}, {"time": 4895, "pitch": 55, "duration": 7, "velocity": 84}, {"time": 4895, "pitch": 60, "duration": 7, "velocity": 85}, {"time": 4901, "pitch": 43, "duration": 18, "velocity": 82}, {"time": 4904, "pitch": 55, "duration": 4, "velocity": 82}, {"time": 4904, "pitch": 59, "duration": 4, "velocity": 86}, {"time": 4913, "pitch": 55, "duration": 6, "velocity": 82}, {"time": 4913, "pitch": 59, "duration": 6, "velocity": 82}, {"time": 4925, "pitch": 45, "duration": 21, "velocity": 83}, {"time": 4925, "pitch": 57, "duration": 8, "velocity": 81}, {"time": 4925, "pitch": 60, "duration": 8, "velocity": 83}, {"time": 4934, "pitch": 57, "duration": 2, "velocity": 82}, {"time": 4934, "pitch": 60, "duration": 2, "velocity": 83}, {"time": 4943, "pitch": 57, "duration": 7, "velocity": 83}, {"time": 4943, "pitch": 60, "duration": 7, "velocity": 87}, {"time": 4949, "pitch": 43, "duration": 22, "velocity": 82}, {"time": 4952, "pitch": 55, "duration": 5, "velocity": 82}, {"time": 4952, "pitch": 59, "duration": 6, "velocity": 90}, {"time": 4958, "pitch": 55, "duration": 4, "velocity": 84}, {"time": 4961, "pitch": 50, "duration": 10, "velocity": 85}, {"time": 4967, "pitch": 55, "duration": 3, "velocity": 80}, {"time": 4973, "pitch": 45, "duration": 20, "velocity": 83}, {"time": 4973, "pitch": 57, "duration": 7, "velocity": 82}, {"time": 4973, "pitch": 60, "duration": 7, "velocity": 82}, {"time": 4982, "pitch": 57, "duration": 2, "velocity": 78}, {"time": 4982, "pitch": 60, "duration": 2, "velocity": 80}, {"time": 4991, "pitch": 57, "duration": 9, "velocity": 75}, {"time": 4991, "pitch": 60, "duration": 10, "velocity": 79}, {"time": 4997, "pitch": 43, "duration": 22, "velocity": 82}, {"time": 5006, "pitch": 55, "duration": 3, "velocity": 81}, {"time": 5006, "pitch": 59, "duration": 3, "velocity": 82}, {"time": 5009, "pitch": 50, "duration": 10, "velocity": 77}, {"time": 5015, "pitch": 55, "duration": 5, "velocity": 83}, {"time": 5015, "pitch": 59, "duration": 5, "velocity": 84}, {"time": 5021, "pitch": 45, "duration": 23, "velocity": 83}, {"time": 5021, "pitch": 55, "duration": 7, "velocity": 82}, {"time": 5021, "pitch": 60, "duration": 7, "velocity": 83}, {"time": 5030, "pitch": 55, "duration": 2, "velocity": 81}, {"time": 5030, "pitch": 60, "duration": 2, "velocity": 82}, {"time": 5039, "pitch": 55, "duration": 7, "velocity": 84}, {"time": 5039, "pitch": 60, "duration": 7, "velocity": 85}, {"time": 5045, "pitch": 43, "duration": 18, "velocity": 82}, {"time": 5048, "pitch": 55, "duration": 4, "velocity": 82}, {"time": 5048, "pitch": 59, "duration": 4, "velocity": 86}, {"time": 5057, "pitch": 55, "duration": 6, "velocity": 82}, {"time": 5057, "pitch": 59, "duration": 6, "velocity": 82}, {"time": 5069, "pitch": 45, "duration": 21, "velocity": 83}, {"time": 5069, "pitch": 57, "duration": 8, "velocity": 81}, {"time": 5069, "pitch": 60, "duration": 8, "velocity": 83}, {"time": 5078, "pitch": 57, "duration": 2, "velocity": 82}, {"time": 5078, "pitch": 60, "duration": 2, "velocity": 83}, {"time": 5087, "pitch": 57, "duration": 7, "velocity": 83}, {"time": 5087, "pitch": 60, "duration": 7, "velocity": 87}, {"time": 5093, "pitch": 43, "duration": 22, "velocity": 82}, {"time": 5096, "pitch": 55, "duration": 5, "velocity": 82}, {"time": 5096, "pitch": 59, "duration": 6, "velocity": 90}, {"time": 5102, "pitch": 55, "duration": 4, "velocity": 84}, {"time": 5105, "pitch": 50, "duration": 10, "velocity": 85}, {"time": 5111, "pitch": 55, "duration": 3, "velocity": 80}, {"time": 5117, "pitch": 45, "duration": 20, "velocity": 83}, {"time": 5117, "pitch": 57, "duration": 7, "velocity": 82}, {"time": 5117, "pitch": 60, "duration": 7, "velocity": 82}, {"time": 5126, "pitch": 57, "duration": 2, "velocity": 78}, {"time": 5126, "pitch": 60, "duration": 2, "velocity": 80}, {"time": 5135, "pitch": 57, "duration": 9, "velocity": 75}, {"time": 5135, "pitch": 60, "duration": 10, "velocity": 79}, {"time": 5141, "pitch": 43, "duration": 22, "velocity": 82}, {"time": 5150, "pitch": 55, "duration": 3, "velocity": 81}, {"time": 5150, "pitch": 59, "duration": 3, "velocity": 82}, {"time": 5153, "pitch": 50, "duration": 10, "velocity": 77}, {"time": 5159, "pitch": 55, "duration": 5, "velocity": 83}, {"time": 5159, "pitch": 59, "duration": 5, "velocity": 84}, {"time": 5165, "pitch": 45, "duration": 23, "velocity": 83}, {"time": 5165, "pitch": 55, "duration": 7, "velocity": 82}, {"time": 5165, "pitch": 60, "duration": 7, "velocity": 83}, {"time": 5174, "pitch": 55, "duration": 2, "velocity": 81}, {"time": 5174, "pitch": 60, "duration": 2, "velocity": 82}, {"time": 5183, "pitch": 55, "duration": 7, "velocity": 84}, {"time": 5183, "pitch": 60, "duration": 7, "velocity": 85}, {"time": 5189, "pitch": 43, "duration": 18, "velocity": 82}, {"time": 5192, "pitch": 55, "duration": 4, "velocity": 82}, {"time": 5192, "pitch": 59, "duration": 4, "velocity": 86}, {"time": 5201, "pitch": 55, "duration": 6, "velocity": 82}, {"time": 5201, "pitch": 59, "duration": 6, "velocity": 82}, {"time": 5211, "pitch": 57, "duration": 14, "velocity": 67}, {"time": 5212, "pitch": 60, "duration": 12, "velocity": 72}, {"time": 5212, "pitch": 45, "duration": 13, "velocity": 83}, {"time": 5213, "pitch": 64, "duration": 11, "velocity": 75}, {"time": 5214, "pitch": 69, "duration": 9, "velocity": 76}, {"time": 5232, "pitch": 60, "duration": 6, "velocity": 85}, {"time": 5232, "pitch": 55, "duration": 6, "velocity": 84}, {"time": 5242, "pitch": 55, "duration": 4, "velocity": 79}, {"time": 5242, "pitch": 64, "duration": 4, "velocity": 82}, {"time": 5242, "pitch": 60, "duration": 3, "velocity": 81}, {"time": 5250, "pitch": 55, "duration": 2, "velocity": 67}, {"time": 5250, "pitch": 60, "duration": 2, "velocity": 75}, {"time": 5250, "pitch": 67, "duration": 4, "velocity": 70}, {"time": 5258, "pitch": 71, "duration": 7, "velocity": 70}, {"time": 5259, "pitch": 67, "duration": 4, "velocity": 61}, {"time": 5266, "pitch": 69, "duration": 5, "velocity": 73}, {"time": 5277, "pitch": 45, "duration": 107, "velocity": 64}, {"time": 5277, "pitch": 67, "duration": 4, "velocity": 49}, {"time": 5278, "pitch": 69, "duration": 5, "velocity": 68}, {"time": 5280, "pitch": 74, "duration": 3, "velocity": 79}, {"time": 5290, "pitch": 67, "duration": 2, "velocity": 54}, {"time": 5293, "pitch": 79, "duration": 2, "velocity": 62}, {"time": 5300, "pitch": 83, "duration": 3, "velocity": 72}, {"time": 5300, "pitch": 79, "duration": 3, "velocity": 66}, {"time": 5306, "pitch": 86, "duration": 6, "velocity": 72}, {"time": 5311, "pitch": 84, "duration": 5, "velocity": 65}, {"time": 5315, "pitch": 83, "duration": 6, "velocity": 68}, {"time": 5321, "pitch": 81, "duration": 5, "velocity": 66}, {"time": 5326, "pitch": 79, "duration": 5, "velocity": 68}, {"time": 5331, "pitch": 81, "duration": 4, "velocity": 48}, {"time": 5346, "pitch": 52, "duration": 37, "velocity": 62}, {"time": 5362, "pitch": 60, "duration": 21, "velocity": 71}, {"time": 5362, "pitch": 55, "duration": 20, "velocity": 28}, {"time": 5405, "pitch": 45, "duration": 40, "velocity": 63}, {"time": 5409, "pitch": 52, "duration": 35, "velocity": 69}, {"time": 5410, "pitch": 55, "duration": 3, "velocity": 63}, {"time": 5411, "pitch": 59, "duration": 10, "velocity": 73}, {"time": 5414, "pitch": 64, "duration": 18, "velocity": 67}, {"time": 5417, "pitch": 67, "duration": 18, "velocity": 67}], "annotations": [{"time": 79, "annotation": {"number": 64, "value": 127}, "group": "control_change"}, {"time": 89, "annotation": {"number": 64, "value": 0}, "group": "control_change"}, {"time": 102, "annotation": {"number": 64, "value": 127}, "group": "control_change"}, {"time": 120, "annotation": {"number": 64, "value": 0}, "group": "control_change"}, {"time": 126, "annotation": {"number": 64, "value": 127}, "group": "control_change"}, {"time": 144, "annotation": {"number": 64, "value": 0}, "group": "control_change"}, {"time": 152, "annotation": {"number": 64, "value": 127}, "group": "control_change"}, {"time": 168, "annotation": {"number": 64, "value": 0}, "group": "control_change"}, {"time": 175, "annotation": {"number": 64, "value": 127}, "group": "control_change"}, {"time": 186, "annotation": {"number": 64, "value": 0}, "group": "control_change"}, {"time": 198, "annotation": {"number": 64, "value": 127}, "group": "control_change"}, {"time": 217, "annotation": {"number": 64, "value": 0}, "group": "control_change"}, {"time": 222, "annotation": {"number": 64, "value": 127}, "group": "control_change"}, {"time": 234, "annotation": {"number": 64, "value": 0}, "group": "control_change"}, {"time": 246, "annotation": {"number": 64, "value": 127}, "group": "control_change"}, {"time": 246, "annotation": {"number": 64, "value": 0}, "group": "control_change"}, {"time": 264, "annotation": {"number": 64, "value": 0}, "group": "control_change"}, {"time": 270, "annotation": {"number": 64, "value": 127}, "group": "control_change"}, {"time": 280, "annotation": {"number": 64, "value": 0}, "group": "control_change"}, {"time": 307, "annotation": {"number": 64, "value": 127}, "group": "control_change"}, {"time": 314, "annotation": {"number": 64, "value": 0}, "group": "control_change"}, {"time": 318, "annotation": {"number": 64, "value": 127}, "group": "control_change"}, {"time": 336, "annotation": {"number": 64, "value": 0}, "group": "control_change"}, {"time": 342, "annotation": {"number": 64, "value": 127}, "group": "control_change"}, {"time": 363, "annotation": {"number": 64, "value": 0}, "group": "control_change"}, {"time": 367, "annotation": {"number": 64, "value": 127}, "group": "control_change"}, {"time": 377, "annotation": {"number": 64, "value": 0}, "group": "control_change"}, {"time": 389, "annotation": {"number": 64, "value": 127}, "group": "control_change"}, {"time": 405, "annotation": {"number": 64, "value": 0}, "group": "control_change"}, {"time": 414, "annotation": {"number": 64, "value": 127}, "group": "control_change"}, {"time": 424, "annotation": {"number": 64, "value": 0}, "group": "control_change"}, {"time": 451, "annotation": {"number": 64, "value": 127}, "group": "control_change"}, {"time": 458, "annotation": {"number": 64, "value": 0}, "group": "control_change"}, {"time": 462, "annotation": {"number": 64, "value": 127}, "group": "control_change"}, {"time": 480, "annotation": {"number": 64, "value": 0}, "group": "control_change"}, {"time": 486, "annotation": {"number": 64, "value": 127}, "group": "control_change"}, {"time": 507, "annotation": {"number": 64, "value": 0}, "group": "control_change"}, {"time": 511, "annotation": {"number": 64, "value": 127}, "group": "control_change"}, {"time": 521, "annotation": {"number": 64, "value": 0}, "group": "control_change"}, {"time": 533, "annotation": {"number": 64, "value": 127}, "group": "control_change"}, {"time": 549, "annotation": {"number": 64, "value": 0}, "group": "control_change"}, {"time": 558, "annotation": {"number": 64, "value": 127}, "group": "control_change"}, {"time": 568, "annotation": {"number": 64, "value": 0}, "group": "control_change"}, {"time": 595, "annotation": {"number": 64, "value": 127}, "group": "control_change"}, {"time": 602, "annotation": {"number": 64, "value": 0}, "group": "control_change"}, {"time": 606, "annotation": {"number": 64, "value": 127}, "group": "control_change"}, {"time": 624, "annotation": {"number": 64, "value": 0}, "group": "control_change"}, {"time": 630, "annotation": {"number": 64, "value": 127}, "group": "control_change"}, {"time": 651, "annotation": {"number": 64, "value": 0}, "group": "control_change"}, {"time": 654, "annotation": {"number": 64, "value": 127}, "group": "control_change"}, {"time": 664, "annotation": {"number": 64, "value": 0}, "group": "control_change"}, {"time": 691, "annotation": {"number": 64, "value": 127}, "group": "control_change"}, {"time": 698, "annotation": {"number": 64, "value": 0}, "group": "control_change"}, {"time": 702, "annotation": {"number": 64, "value": 127}, "group": "control_change"}, {"time": 720, "annotation": {"number": 64, "value": 0}, "group": "control_change"}, {"time": 726, "annotation": {"number": 64, "value": 127}, "group": "control_change"}, {"time": 747, "annotation": {"number": 64, "value": 0}, "group": "control_change"}, {"time": 751, "annotation": {"number": 64, "value": 127}, "group": "control_change"}, {"time": 761, "annotation": {"number": 64, "value": 0}, "group": "control_change"}, {"time": 773, "annotation": {"number": 64, "value": 127}, "group": "control_change"}, {"time": 789, "annotation": {"number": 64, "value": 0}, "group": "control_change"}, {"time": 798, "annotation": {"number": 64, "value": 127}, "group": "control_change"}, {"time": 808, "annotation": {"number": 64, "value": 0}, "group": "control_change"}, {"time": 835, "annotation": {"number": 64, "value": 127}, "group": "control_change"}, {"time": 842, "annotation": {"number": 64, "value": 0}, "group": "control_change"}, {"time": 845, "annotation": {"number": 64, "value": 127}, "group": "control_change"}, {"time": 857, "annotation": {"number": 64, "value": 0}, "group": "control_change"}, {"time": 869, "annotation": {"number": 64, "value": 127}, "group": "control_change"}, {"time": 869, "annotation": {"number": 64, "value": 0}, "group": "control_change"}, {"time": 891, "annotation": {"number": 64, "value": 0}, "group": "control_change"}, {"time": 896, "annotation": {"number": 64, "value": 127}, "group": "control_change"}, {"time": 907, "annotation": {"number": 64, "value": 0}, "group": "control_change"}, {"time": 918, "annotation": {"number": 64, "value": 127}, "group": "control_change"}, {"time": 929, "annotation": {"number": 64, "value": 0}, "group": "control_change"}, {"time": 944, "annotation": {"number": 64, "value": 127}, "group": "control_change"}, {"time": 955, "annotation": {"number": 64, "value": 0}, "group": "control_change"}, {"time": 966, "annotation": {"number": 64, "value": 127}, "group": "control_change"}, {"time": 977, "annotation": {"number": 64, "value": 0}, "group": "control_change"}, {"time": 992, "annotation": {"number": 64, "value": 127}, "group": "control_change"}, {"time": 1003, "annotation": {"number": 64, "value": 0}, "group": "control_change"}, {"time": 1014, "annotation": {"number": 64, "value": 127}, "group": "control_change"}, {"time": 1025, "annotation": {"number": 64, "value": 0}, "group": "control_change"}, {"time": 1038, "annotation": {"number": 64, "value": 127}, "group": "control_change"}, {"time": 1048, "annotation": {"number": 64, "value": 0}, "group": "control_change"}, {"time": 1075, "annotation": {"number": 64, "value": 127}, "group": "control_change"}, {"time": 1082, "annotation": {"number": 64, "value": 0}, "group": "control_change"}, {"time": 1086, "annotation": {"number": 64, "value": 127}, "group": "control_change"}, {"time": 1104, "annotation": {"number": 64, "value": 0}, "group": "control_change"}, {"time": 1110, "annotation": {"number": 64, "value": 127}, "group": "control_change"}, {"time": 1131, "annotation": {"number": 64, "value": 0}, "group": "control_change"}, {"time": 1135, "annotation": {"number": 64, "value": 127}, "group": "control_change"}, {"time": 1145, "annotation": {"number": 64, "value": 0}, "group": "control_change"}, {"time": 1157, "annotation": {"number": 64, "value": 127}, "group": "control_change"}, {"time": 1173, "annotation": {"number": 64, "value": 0}, "group": "control_change"}, {"time": 1182, "annotation": {"number": 64, "value": 127}, "group": "control_change"}, {"time": 1192, "annotation": {"number": 64, "value": 0}, "group": "control_change"}, {"time": 1219, "annotation": {"number": 64, "value": 127}, "group": "control_change"}, {"time": 1226, "annotation": {"number": 64, "value": 0}, "group": "control_change"}, {"time": 1229, "annotation": {"number": 64, "value": 127}, "group": "control_change"}, {"time": 1241, "annotation": {"number": 64, "value": 0}, "group": "control_change"}, {"time": 1253, "annotation": {"number": 64, "value": 127}, "group": "control_change"}, {"time": 1253, "annotation": {"number": 64, "value": 0}, "group": "control_change"}, {"time": 1275, "annotation": {"number": 64, "value": 0}, "group": "control_change"}, {"time": 1280, "annotation": {"number": 64, "value": 127}, "group": "control_change"}, {"time": 1291, "annotation": {"number": 64, "value": 0}, "group": "control_change"}, {"time": 1302, "annotation": {"number": 64, "value": 127}, "group": "control_change"}, {"time": 1313, "annotation": {"number": 64, "value": 0}, "group": "control_change"}, {"time": 1328, "annotation": {"number": 64, "value": 127}, "group": "control_change"}, {"time": 1339, "annotation": {"number": 64, "value": 0}, "group": "control_change"}, {"time": 1350, "annotation": {"number": 64, "value": 127}, "group": "control_change"}, {"time": 1361, "annotation": {"number": 64, "value": 0}, "group": "control_change"}, {"time": 1376, "annotation": {"number": 64, "value": 127}, "group": "control_change"}, {"time": 1387, "annotation": {"number": 64, "value": 0}, "group": "control_change"}, {"time": 1398, "annotation": {"number": 64, "value": 127}, "group": "control_change"}, {"time": 1409, "annotation": {"number": 64, "value": 0}, "group": "control_change"}, {"time": 1423, "annotation": {"number": 64, "value": 127}, "group": "control_change"}, {"time": 1443, "annotation": {"number": 64, "value": 0}, "group": "control_change"}, {"time": 1445, "annotation": {"number": 64, "value": 127}, "group": "control_change"}, {"time": 1467, "annotation": {"number": 64, "value": 0}, "group": "control_change"}, {"time": 1469, "annotation": {"number": 64, "value": 127}, "group": "control_change"}, {"time": 1492, "annotation": {"number": 64, "value": 0}, "group": "control_change"}, {"time": 1494, "annotation": {"number": 64, "value": 127}, "group": "control_change"}, {"time": 1516, "annotation": {"number": 64, "value": 0}, "group": "control_change"}, {"time": 1518, "annotation": {"number": 64, "value": 127}, "group": "control_change"}, {"time": 1541, "annotation": {"number": 64, "value": 0}, "group": "control_change"}, {"time": 1543, "annotation": {"number": 64, "value": 127}, "group": "control_change"}, {"time": 1564, "annotation": {"number": 64, "value": 0}, "group": "control_change"}, {"time": 1566, "annotation": {"number": 64, "value": 127}, "group": "control_change"}, {"time": 1588, "annotation": {"number": 64, "value": 0}, "group": "control_change"}, {"time": 1590, "annotation": {"number": 64, "value": 127}, "group": "control_change"}, {"time": 1612, "annotation": {"number": 64, "value": 0}, "group": "control_change"}, {"time": 1614, "annotation": {"number": 64, "value": 127}, "group": "control_change"}, {"time": 1617, "annotation": {"number": 64, "value": 0}, "group": "control_change"}, {"time": 1623, "annotation": {"number": 64, "value": 127}, "group": "control_change"}, {"time": 1623, "annotation": {"number": 64, "value": 0}, "group": "control_change"}, {"time": 1647, "annotation": {"number": 64, "value": 0}, "group": "control_change"}, {"time": 1649, "annotation": {"number": 64, "value": 127}, "group": "control_change"}, {"time": 1662, "annotation": {"number": 64, "value": 0}, "group": "control_change"}, {"time": 1664, "annotation": {"number": 64, "value": 0}, "group": "control_change"}, {"time": 1667, "annotation": {"number": 64, "value": 127}, "group": "control_change"}, {"time": 1672, "annotation": {"number": 64, "value": 127}, "group": "control_change"}, {"time": 1706, "annotation": {"number": 64, "value": 0}, "group": "control_change"}, {"time": 1708, "annotation": {"number": 64, "value": 0}, "group": "control_change"}, {"time": 1711, "annotation": {"number": 64, "value": 127}, "group": "control_change"}, {"time": 1734, "annotation": {"number": 64, "value": 0}, "group": "control_change"}, {"time": 1735, "annotation": {"number": 64, "value": 127}, "group": "control_change"}, {"time": 1756, "annotation": {"number": 64, "value": 0}, "group": "control_change"}, {"time": 1762, "annotation": {"number": 64, "value": 127}, "group": "control_change"}, {"time": 1802, "annotation": {"number": 64, "value": 0}, "group": "control_change"}, {"time": 1807, "annotation": {"number": 64, "value": 127}, "group": "control_change"}, {"time": 1827, "annotation": {"number": 64, "value": 0}, "group": "control_change"}, {"time": 1829, "annotation": {"number": 64, "value": 127}, "group": "control_change"}, {"time": 1851, "annotation": {"number": 64, "value": 0}, "group": "control_change"}, {"time": 1853, "annotation": {"number": 64, "value": 127}, "group": "control_change"}, {"time": 1876, "annotation": {"number": 64, "value": 0}, "group": "control_change"}, {"time": 1878, "annotation": {"number": 64, "value": 127}, "group": "control_change"}, {"time": 1900, "annotation": {"number": 64, "value": 0}, "group": "control_change"}, {"time": 1902, "annotation": {"number": 64, "value": 127}, "group": "control_change"}, {"time": 1925, "annotation": {"number": 64, "value": 0}, "group": "control_change"}, {"time": 1927, "annotation": {"number": 64, "value": 127}, "group": "control_change"}, {"time": 1948, "annotation": {"number": 64, "value": 0}, "group": "control_change"}, {"time": 1950, "annotation": {"number": 64, "value": 127}, "group": "control_change"}, {"time": 1972, "annotation": {"number": 64, "value": 0}, "group": "control_change"}, {"time": 1974, "annotation": {"number": 64, "value": 127}, "group": "control_change"}, {"time": 1996, "annotation": {"number": 64, "value": 0}, "group": "control_change"}, {"time": 1998, "annotation": {"number": 64, "value": 127}, "group": "control_change"}, {"time": 2001, "annotation": {"number": 64, "value": 0}, "group": "control_change"}, {"time": 2007, "annotation": {"number": 64, "value": 127}, "group": "control_change"}, {"time": 2007, "annotation": {"number": 64, "value": 0}, "group": "control_change"}, {"time": 2031, "annotation": {"number": 64, "value": 0}, "group": "control_change"}, {"time": 2033, "annotation": {"number": 64, "value": 127}, "group": "control_change"}, {"time": 2046, "annotation": {"number": 64, "value": 0}, "group": "control_change"}, {"time": 2048, "annotation": {"number": 64, "value": 0}, "group": "control_change"}, {"time": 2051, "annotation": {"number": 64, "value": 127}, "group": "control_change"}, {"time": 2056, "annotation": {"number": 64, "value": 127}, "group": "control_change"}, {"time": 2090, "annotation": {"number": 64, "value": 0}, "group": "control_change"}, {"time": 2092, "annotation": {"number": 64, "value": 0}, "group": "control_change"}, {"time": 2093, "annotation": {"number": 64, "value": 127}, "group": "control_change"}, {"time": 2116, "annotation": {"number": 64, "value": 0}, "group": "control_change"}, {"time": 2118, "annotation": {"number": 64, "value": 127}, "group": "control_change"}, {"time": 2140, "annotation": {"number": 64, "value": 0}, "group": "control_change"}, {"time": 2143, "annotation": {"number": 64, "value": 127}, "group": "control_change"}, {"time": 2164, "annotation": {"number": 64, "value": 0}, "group": "control_change"}, {"time": 2166, "annotation": {"number": 64, "value": 127}, "group": "control_change"}, {"time": 2185, "annotation": {"number": 64, "value": 0}, "group": "control_change"}, {"time": 2190, "annotation": {"number": 64, "value": 127}, "group": "control_change"}, {"time": 2200, "annotation": {"number": 64, "value": 0}, "group": "control_change"}, {"time": 2227, "annotation": {"number": 64, "value": 127}, "group": "control_change"}, {"time": 2234, "annotation": {"number": 64, "value": 0}, "group": "control_change"}, {"time": 2238, "annotation": {"number": 64, "value": 127}, "group": "control_change"}, {"time": 2256, "annotation": {"number": 64, "value": 0}, "group": "control_change"}, {"time": 2262, "annotation": {"number": 64, "value": 127}, "group": "control_change"}, {"time": 2283, "annotation": {"number": 64, "value": 0}, "group": "control_change"}, {"time": 2287, "annotation": {"number": 64, "value": 127}, "group": "control_change"}, {"time": 2297, "annotation": {"number": 64, "value": 0}, "group": "control_change"}, {"time": 2309, "annotation": {"number": 64, "value": 127}, "group": "control_change"}, {"time": 2325, "annotation": {"number": 64, "value": 0}, "group": "control_change"}, {"time": 2334, "annotation": {"number": 64, "value": 127}, "group": "control_change"}, {"time": 2344, "annotation": {"number": 64, "value": 0}, "group": "control_change"}, {"time": 2371, "annotation": {"number": 64, "value": 127}, "group": "control_change"}, {"time": 2378, "annotation": {"number": 64, "value": 0}, "group": "control_change"}, {"time": 2382, "annotation": {"number": 64, "value": 127}, "group": "control_change"}, {"time": 2392, "annotation": {"number": 64, "value": 0}, "group": "control_change"}, {"time": 2419, "annotation": {"number": 64, "value": 127}, "group": "control_change"}, {"time": 2426, "annotation": {"number": 64, "value": 0}, "group": "control_change"}, {"time": 2430, "annotation": {"number": 64, "value": 127}, "group": "control_change"}, {"time": 2448, "annotation": {"number": 64, "value": 0}, "group": "control_change"}, {"time": 2454, "annotation": {"number": 64, "value": 127}, "group": "control_change"}, {"time": 2475, "annotation": {"number": 64, "value": 0}, "group": "control_change"}, {"time": 2479, "annotation": {"number": 64, "value": 127}, "group": "control_change"}, {"time": 2489, "annotation": {"number": 64, "value": 0}, "group": "control_change"}, {"time": 2501, "annotation": {"number": 64, "value": 127}, "group": "control_change"}, {"time": 2517, "annotation": {"number": 64, "value": 0}, "group": "control_change"}, {"time": 2526, "annotation": {"number": 64, "value": 127}, "group": "control_change"}, {"time": 2536, "annotation": {"number": 64, "value": 0}, "group": "control_change"}, {"time": 2563, "annotation": {"number": 64, "value": 127}, "group": "control_change"}, {"time": 2570, "annotation": {"number": 64, "value": 0}, "group": "control_change"}, {"time": 2573, "annotation": {"number": 64, "value": 127}, "group": "control_change"}, {"time": 2585, "annotation": {"number": 64, "value": 0}, "group": "control_change"}, {"time": 2597, "annotation": {"number": 64, "value": 127}, "group": "control_change"}, {"time": 2597, "annotation": {"number": 64, "value": 0}, "group": "control_change"}, {"time": 2619, "annotation": {"number": 64, "value": 0}, "group": "control_change"}, {"time": 2624, "annotation": {"number": 64, "value": 127}, "group": "control_change"}, {"time": 2635, "annotation": {"number": 64, "value": 0}, "group": "control_change"}, {"time": 2646, "annotation": {"number": 64, "value": 127}, "group": "control_change"}, {"time": 2657, "annotation": {"number": 64, "value": 0}, "group": "control_change"}, {"time": 2672, "annotation": {"number": 64, "value": 127}, "group": "control_change"}, {"time": 2683, "annotation": {"number": 64, "value": 0}, "group": "control_change"}, {"time": 2694, "annotation": {"number": 64, "value": 127}, "group": "control_change"}, {"time": 2705, "annotation": {"number": 64, "value": 0}, "group": "control_change"}, {"time": 2720, "annotation": {"number": 64, "value": 127}, "group": "control_change"}, {"time": 2731, "annotation": {"number": 64, "value": 0}, "group": "control_change"}, {"time": 2742, "annotation": {"number": 64, "value": 127}, "group": "control_change"}, {"time": 2753, "annotation": {"number": 64, "value": 0}, "group": "control_change"}, {"time": 2767, "annotation": {"number": 64, "value": 127}, "group": "control_change"}, {"time": 2787, "annotation": {"number": 64, "value": 0}, "group": "control_change"}, {"time": 2789, "annotation": {"number": 64, "value": 127}, "group": "control_change"}, {"time": 2811, "annotation": {"number": 64, "value": 0}, "group": "control_change"}, {"time": 2813, "annotation": {"number": 64, "value": 127}, "group": "control_change"}, {"time": 2836, "annotation": {"number": 64, "value": 0}, "group": "control_change"}, {"time": 2838, "annotation": {"number": 64, "value": 127}, "group": "control_change"}, {"time": 2860, "annotation": {"number": 64, "value": 0}, "group": "control_change"}, {"time": 2862, "annotation": {"number": 64, "value": 127}, "group": "control_change"}, {"time": 2885, "annotation": {"number": 64, "value": 0}, "group": "control_change"}, {"time": 2887, "annotation": {"number": 64, "value": 127}, "group": "control_change"}, {"time": 2908, "annotation": {"number": 64, "value": 0}, "group": "control_change"}, {"time": 2910, "annotation": {"number": 64, "value": 127}, "group": "control_change"}, {"time": 2932, "annotation": {"number": 64, "value": 0}, "group": "control_change"}, {"time": 2934, "annotation": {"number": 64, "value": 127}, "group": "control_change"}, {"time": 2956, "annotation": {"number": 64, "value": 0}, "group": "control_change"}, {"time": 2958, "annotation": {"number": 64, "value": 127}, "group": "control_change"}, {"time": 2961, "annotation": {"number": 64, "value": 0}, "group": "control_change"}, {"time": 2967, "annotation": {"number": 64, "value": 127}, "group": "control_change"}, {"time": 2967, "annotation": {"number": 64, "value": 0}, "group": "control_change"}, {"time": 2991, "annotation": {"number": 64, "value": 0}, "group": "control_change"}, {"time": 2993, "annotation": {"number": 64, "value": 127}, "group": "control_change"}, {"time": 3006, "annotation": {"number": 64, "value": 0}, "group": "control_change"}, {"time": 3008, "annotation": {"number": 64, "value": 0}, "group": "control_change"}, {"time": 3011, "annotation": {"number": 64, "value": 127}, "group": "control_change"}, {"time": 3016, "annotation": {"number": 64, "value": 127}, "group": "control_change"}, {"time": 3050, "annotation": {"number": 64, "value": 0}, "group": "control_change"}, {"time": 3052, "annotation": {"number": 64, "value": 0}, "group": "control_change"}, {"time": 3055, "annotation": {"number": 64, "value": 127}, "group": "control_change"}, {"time": 3078, "annotation": {"number": 64, "value": 0}, "group": "control_change"}, {"time": 3079, "annotation": {"number": 64, "value": 127}, "group": "control_change"}, {"time": 3100, "annotation": {"number": 64, "value": 0}, "group": "control_change"}, {"time": 3106, "annotation": {"number": 64, "value": 127}, "group": "control_change"}, {"time": 3146, "annotation": {"number": 64, "value": 0}, "group": "control_change"}, {"time": 3151, "annotation": {"number": 64, "value": 127}, "group": "control_change"}, {"time": 3171, "annotation": {"number": 64, "value": 0}, "group": "control_change"}, {"time": 3173, "annotation": {"number": 64, "value": 127}, "group": "control_change"}, {"time": 3195, "annotation": {"number": 64, "value": 0}, "group": "control_change"}, {"time": 3197, "annotation": {"number": 64, "value": 127}, "group": "control_change"}, {"time": 3220, "annotation": {"number": 64, "value": 0}, "group": "control_change"}, {"time": 3222, "annotation": {"number": 64, "value": 127}, "group": "control_change"}, {"time": 3244, "annotation": {"number": 64, "value": 0}, "group": "control_change"}, {"time": 3246, "annotation": {"number": 64, "value": 127}, "group": "control_change"}, {"time": 3269, "annotation": {"number": 64, "value": 0}, "group": "control_change"}, {"time": 3271, "annotation": {"number": 64, "value": 127}, "group": "control_change"}, {"time": 3292, "annotation": {"number": 64, "value": 0}, "group": "control_change"}, {"time": 3294, "annotation": {"number": 64, "value": 127}, "group": "control_change"}, {"time": 3316, "annotation": {"number": 64, "value": 0}, "group": "control_change"}, {"time": 3318, "annotation": {"number": 64, "value": 127}, "group": "control_change"}, {"time": 3340, "annotation": {"number": 64, "value": 0}, "group": "control_change"}, {"time": 3342, "annotation": {"number": 64, "value": 127}, "group": "control_change"}, {"time": 3345, "annotation": {"number": 64, "value": 0}, "group": "control_change"}, {"time": 3351, "annotation": {"number": 64, "value": 127}, "group": "control_change"}, {"time": 3351, "annotation": {"number": 64, "value": 0}, "group": "control_change"}, {"time": 3375, "annotation": {"number": 64, "value": 0}, "group": "control_change"}, {"time": 3377, "annotation": {"number": 64, "value": 127}, "group": "control_change"}, {"time": 3390, "annotation": {"number": 64, "value": 0}, "group": "control_change"}, {"time": 3392, "annotation": {"number": 64, "value": 0}, "group": "control_change"}, {"time": 3395, "annotation": {"number": 64, "value": 127}, "group": "control_change"}, {"time": 3400, "annotation": {"number": 64, "value": 127}, "group": "control_change"}, {"time": 3434, "annotation": {"number": 64, "value": 0}, "group": "control_change"}, {"time": 3436, "annotation": {"number": 64, "value": 0}, "group": "control_change"}, {"time": 3437, "annotation": {"number": 64, "value": 127}, "group": "control_change"}, {"time": 3460, "annotation": {"number": 64, "value": 0}, "group": "control_change"}, {"time": 3462, "annotation": {"number": 64, "value": 127}, "group": "control_change"}, {"time": 3484, "annotation": {"number": 64, "value": 0}, "group": "control_change"}, {"time": 3487, "annotation": {"number": 64, "value": 127}, "group": "control_change"}, {"time": 3508, "annotation": {"number": 64, "value": 0}, "group": "control_change"}, {"time": 3510, "annotation": {"number": 64, "value": 127}, "group": "control_change"}, {"time": 3529, "annotation": {"number": 64, "value": 0}, "group": "control_change"}, {"time": 3534, "annotation": {"number": 64, "value": 127}, "group": "control_change"}, {"time": 3544, "annotation": {"number": 64, "value": 0}, "group": "control_change"}, {"time": 3571, "annotation": {"number": 64, "value": 127}, "group": "control_change"}, {"time": 3578, "annotation": {"number": 64, "value": 0}, "group": "control_change"}, {"time": 3582, "annotation": {"number": 64, "value": 127}, "group": "control_change"}, {"time": 3600, "annotation": {"number": 64, "value": 0}, "group": "control_change"}, {"time": 3606, "annotation": {"number": 64, "value": 127}, "group": "control_change"}, {"time": 3627, "annotation": {"number": 64, "value": 0}, "group": "control_change"}, {"time": 3631, "annotation": {"number": 64, "value": 127}, "group": "control_change"}, {"time": 3641, "annotation": {"number": 64, "value": 0}, "group": "control_change"}, {"time": 3653, "annotation": {"number": 64, "value": 127}, "group": "control_change"}, {"time": 3669, "annotation": {"number": 64, "value": 0}, "group": "control_change"}, {"time": 3678, "annotation": {"number": 64, "value": 127}, "group": "control_change"}, {"time": 3688, "annotation": {"number": 64, "value": 0}, "group": "control_change"}, {"time": 3715, "annotation": {"number": 64, "value": 127}, "group": "control_change"}, {"time": 3722, "annotation": {"number": 64, "value": 0}, "group": "control_change"}, {"time": 3726, "annotation": {"number": 64, "value": 127}, "group": "control_change"}, {"time": 3736, "annotation": {"number": 64, "value": 0}, "group": "control_change"}, {"time": 3763, "annotation": {"number": 64, "value": 127}, "group": "control_change"}, {"time": 3770, "annotation": {"number": 64, "value": 0}, "group": "control_change"}, {"time": 3774, "annotation": {"number": 64, "value": 127}, "group": "control_change"}, {"time": 3792, "annotation": {"number": 64, "value": 0}, "group": "control_change"}, {"time": 3798, "annotation": {"number": 64, "value": 127}, "group": "control_change"}, {"time": 3819, "annotation": {"number": 64, "value": 0}, "group": "control_change"}, {"time": 3823, "annotation": {"number": 64, "value": 127}, "group": "control_change"}, {"time": 3833, "annotation": {"number": 64, "value": 0}, "group": "control_change"}, {"time": 3845, "annotation": {"number": 64, "value": 127}, "group": "control_change"}, {"time": 3861, "annotation": {"number": 64, "value": 0}, "group": "control_change"}, {"time": 3870, "annotation": {"number": 64, "value": 127}, "group": "control_change"}, {"time": 3880, "annotation": {"number": 64, "value": 0}, "group": "control_change"}, {"time": 3907, "annotation": {"number": 64, "value": 127}, "group": "control_change"}, {"time": 3914, "annotation": {"number": 64, "value": 0}, "group": "control_change"}, {"time": 3918, "annotation": {"number": 64, "value": 127}, "group": "control_change"}, {"time": 3918, "annotation": {"number": 64, "value": 0}, "group": "control_change"}, {"time": 3963, "annotation": {"number": 64, "value": 0}, "group": "control_change"}, {"time": 3966, "annotation": {"number": 64, "value": 127}, "group": "control_change"}, {"time": 4009, "annotation": {"number": 64, "value": 0}, "group": "control_change"}, {"time": 4051, "annotation": {"number": 64, "value": 127}, "group": "control_change"}, {"time": 4061, "annotation": {"number": 64, "value": 0}, "group": "control_change"}, {"time": 4064, "annotation": {"number": 64, "value": 127}, "group": "control_change"}, {"time": 4077, "annotation": {"number": 64, "value": 0}, "group": "control_change"}, {"time": 4080, "annotation": {"number": 64, "value": 127}, "group": "control_change"}, {"time": 4102, "annotation": {"number": 64, "value": 0}, "group": "control_change"}, {"time": 4110, "annotation": {"number": 64, "value": 127}, "group": "control_change"}, {"time": 4113, "annotation": {"number": 64, "value": 0}, "group": "control_change"}, {"time": 4119, "annotation": {"number": 64, "value": 127}, "group": "control_change"}, {"time": 4119, "annotation": {"number": 64, "value": 0}, "group": "control_change"}, {"time": 4143, "annotation": {"number": 64, "value": 0}, "group": "control_change"}, {"time": 4145, "annotation": {"number": 64, "value": 127}, "group": "control_change"}, {"time": 4158, "annotation": {"number": 64, "value": 0}, "group": "control_change"}, {"time": 4160, "annotation": {"number": 64, "value": 0}, "group": "control_change"}, {"time": 4163, "annotation": {"number": 64, "value": 127}, "group": "control_change"}, {"time": 4168, "annotation": {"number": 64, "value": 127}, "group": "control_change"}, {"time": 4202, "annotation": {"number": 64, "value": 0}, "group": "control_change"}, {"time": 4204, "annotation": {"number": 64, "value": 0}, "group": "control_change"}, {"time": 4207, "annotation": {"number": 64, "value": 127}, "group": "control_change"}, {"time": 4230, "annotation": {"number": 64, "value": 0}, "group": "control_change"}, {"time": 4231, "annotation": {"number": 64, "value": 127}, "group": "control_change"}, {"time": 4252, "annotation": {"number": 64, "value": 0}, "group": "control_change"}, {"time": 4258, "annotation": {"number": 64, "value": 127}, "group": "control_change"}, {"time": 4298, "annotation": {"number": 64, "value": 0}, "group": "control_change"}, {"time": 4303, "annotation": {"number": 64, "value": 127}, "group": "control_change"}, {"time": 4323, "annotation": {"number": 64, "value": 0}, "group": "control_change"}, {"time": 4325, "annotation": {"number": 64, "value": 127}, "group": "control_change"}, {"time": 4347, "annotation": {"number": 64, "value": 0}, "group": "control_change"}, {"time": 4349, "annotation": {"number": 64, "value": 127}, "group": "control_change"}, {"time": 4372, "annotation": {"number": 64, "value": 0}, "group": "control_change"}, {"time": 4374, "annotation": {"number": 64, "value": 127}, "group": "control_change"}, {"time": 4396, "annotation": {"number": 64, "value": 0}, "group": "control_change"}, {"time": 4398, "annotation": {"number": 64, "value": 127}, "group": "control_change"}, {"time": 4421, "annotation": {"number": 64, "value": 0}, "group": "control_change"}, {"time": 4423, "annotation": {"number": 64, "value": 127}, "group": "control_change"}, {"time": 4444, "annotation": {"number": 64, "value": 0}, "group": "control_change"}, {"time": 4446, "annotation": {"number": 64, "value": 127}, "group": "control_change"}, {"time": 4468, "annotation": {"number": 64, "value": 0}, "group": "control_change"}, {"time": 4470, "annotation": {"number": 64, "value": 127}, "group": "control_change"}, {"time": 4492, "annotation": {"number": 64, "value": 0}, "group": "control_change"}, {"time": 4494, "annotation": {"number": 64, "value": 127}, "group": "control_change"}, {"time": 4497, "annotation": {"number": 64, "value": 0}, "group": "control_change"}, {"time": 4503, "annotation": {"number": 64, "value": 127}, "group": "control_change"}, {"time": 4503, "annotation": {"number": 64, "value": 0}, "group": "control_change"}, {"time": 4527, "annotation": {"number": 64, "value": 0}, "group": "control_change"}, {"time": 4529, "annotation": {"number": 64, "value": 127}, "group": "control_change"}, {"time": 4542, "annotation": {"number": 64, "value": 0}, "group": "control_change"}, {"time": 4544, "annotation": {"number": 64, "value": 0}, "group": "control_change"}, {"time": 4547, "annotation": {"number": 64, "value": 127}, "group": "control_change"}, {"time": 4552, "annotation": {"number": 64, "value": 127}, "group": "control_change"}, {"time": 4586, "annotation": {"number": 64, "value": 0}, "group": "control_change"}, {"time": 4588, "annotation": {"number": 64, "value": 0}, "group": "control_change"}, {"time": 4589, "annotation": {"number": 64, "value": 127}, "group": "control_change"}, {"time": 4612, "annotation": {"number": 64, "value": 0}, "group": "control_change"}, {"time": 4614, "annotation": {"number": 64, "value": 127}, "group": "control_change"}, {"time": 4636, "annotation": {"number": 64, "value": 0}, "group": "control_change"}, {"time": 4639, "annotation": {"number": 64, "value": 127}, "group": "control_change"}, {"time": 4660, "annotation": {"number": 64, "value": 0}, "group": "control_change"}, {"time": 4662, "annotation": {"number": 64, "value": 127}, "group": "control_change"}, {"time": 4681, "annotation": {"number": 64, "value": 0}, "group": "control_change"}, {"time": 4687, "annotation": {"number": 64, "value": 127}, "group": "control_change"}, {"time": 4697, "annotation": {"number": 64, "value": 0}, "group": "control_change"}, {"time": 4710, "annotation": {"number": 64, "value": 127}, "group": "control_change"}, {"time": 4728, "annotation": {"number": 64, "value": 0}, "group": "control_change"}, {"time": 4734, "annotation": {"number": 64, "value": 127}, "group": "control_change"}, {"time": 4752, "annotation": {"number": 64, "value": 0}, "group": "control_change"}, {"time": 4760, "annotation": {"number": 64, "value": 127}, "group": "control_change"}, {"time": 4776, "annotation": {"number": 64, "value": 0}, "group": "control_change"}, {"time": 4783, "annotation": {"number": 64, "value": 127}, "group": "control_change"}, {"time": 4794, "annotation": {"number": 64, "value": 0}, "group": "control_change"}, {"time": 4806, "annotation": {"number": 64, "value": 127}, "group": "control_change"}, {"time": 4825, "annotation": {"number": 64, "value": 0}, "group": "control_change"}, {"time": 4830, "annotation": {"number": 64, "value": 127}, "group": "control_change"}, {"time": 4842, "annotation": {"number": 64, "value": 0}, "group": "control_change"}, {"time": 4854, "annotation": {"number": 64, "value": 127}, "group": "control_change"}, {"time": 4854, "annotation": {"number": 64, "value": 0}, "group": "control_change"}, {"time": 4872, "annotation": {"number": 64, "value": 0}, "group": "control_change"}, {"time": 4878, "annotation": {"number": 64, "value": 127}, "group": "control_change"}, {"time": 4888, "annotation": {"number": 64, "value": 0}, "group": "control_change"}, {"time": 4915, "annotation": {"number": 64, "value": 127}, "group": "control_change"}, {"time": 4922, "annotation": {"number": 64, "value": 0}, "group": "control_change"}, {"time": 4926, "annotation": {"number": 64, "value": 127}, "group": "control_change"}, {"time": 4944, "annotation": {"number": 64, "value": 0}, "group": "control_change"}, {"time": 4950, "annotation": {"number": 64, "value": 127}, "group": "control_change"}, {"time": 4971, "annotation": {"number": 64, "value": 0}, "group": "control_change"}, {"time": 4975, "annotation": {"number": 64, "value": 127}, "group": "control_change"}, {"time": 4985, "annotation": {"number": 64, "value": 0}, "group": "control_change"}, {"time": 4997, "annotation": {"number": 64, "value": 127}, "group": "control_change"}, {"time": 5013, "annotation": {"number": 64, "value": 0}, "group": "control_change"}, {"time": 5022, "annotation": {"number": 64, "value": 127}, "group": "control_change"}, {"time": 5032, "annotation": {"number": 64, "value": 0}, "group": "control_change"}, {"time": 5059, "annotation": {"number": 64, "value": 127}, "group": "control_change"}, {"time": 5066, "annotation": {"number": 64, "value": 0}, "group": "control_change"}, {"time": 5070, "annotation": {"number": 64, "value": 127}, "group": "control_change"}, {"time": 5088, "annotation": {"number": 64, "value": 0}, "group": "control_change"}, {"time": 5094, "annotation": {"number": 64, "value": 127}, "group": "control_change"}, {"time": 5115, "annotation": {"number": 64, "value": 0}, "group": "control_change"}, {"time": 5119, "annotation": {"number": 64, "value": 127}, "group": "control_change"}, {"time": 5129, "annotation": {"number": 64, "value": 0}, "group": "control_change"}, {"time": 5141, "annotation": {"number": 64, "value": 127}, "group": "control_change"}, {"time": 5157, "annotation": {"number": 64, "value": 0}, "group": "control_change"}, {"time": 5166, "annotation": {"number": 64, "value": 127}, "group": "control_change"}, {"time": 5176, "annotation": {"number": 64, "value": 0}, "group": "control_change"}, {"time": 5203, "annotation": {"number": 64, "value": 127}, "group": "control_change"}, {"time": 5210, "annotation": {"number": 64, "value": 0}, "group": "control_change"}, {"time": 5215, "annotation": {"number": 64, "value": 127}, "group": "control_change"}, {"time": 5457, "annotation": {"number": 64, "value": 0}, "group": "control_change"}]}]}