{"metadata": {"schema_version": "0.2", "title": "None", "source_filename": "686.mid", "source_format": "midi"}, "resolution": 12, "tempos": [{"time": 0, "qpm": 100.0}], "time_signatures": [{"time": 0, "numerator": 1, "denominator": 4}], "tracks": [{"program": 0, "is_drum": false, "name": "MELODY", "notes": [{"time": 412, "pitch": 65, "duration": 4, "velocity": 81}, {"time": 418, "pitch": 72, "duration": 3, "velocity": 82}, {"time": 424, "pitch": 72, "duration": 3, "velocity": 85}, {"time": 430, "pitch": 72, "duration": 3, "velocity": 81}, {"time": 436, "pitch": 77, "duration": 8, "velocity": 82}, {"time": 445, "pitch": 75, "duration": 2, "velocity": 74}, {"time": 448, "pitch": 72, "duration": 9, "velocity": 80}, {"time": 460, "pitch": 70, "duration": 4, "velocity": 74}, {"time": 466, "pitch": 72, "duration": 9, "velocity": 81}, {"time": 478, "pitch": 68, "duration": 5, "velocity": 75}, {"time": 484, "pitch": 65, "duration": 21, "velocity": 80}, {"time": 508, "pitch": 65, "duration": 5, "velocity": 81}, {"time": 514, "pitch": 68, "duration": 4, "velocity": 75}, {"time": 520, "pitch": 68, "duration": 6, "velocity": 80}, {"time": 526, "pitch": 65, "duration": 4, "velocity": 82}, {"time": 532, "pitch": 77, "duration": 12, "velocity": 84}, {"time": 544, "pitch": 75, "duration": 5, "velocity": 85}, {"time": 550, "pitch": 70, "duration": 6, "velocity": 81}, {"time": 556, "pitch": 72, "duration": 44, "velocity": 79}, {"time": 604, "pitch": 72, "duration": 6, "velocity": 84}, {"time": 610, "pitch": 77, "duration": 9, "velocity": 80}, {"time": 622, "pitch": 80, "duration": 4, "velocity": 81}, {"time": 628, "pitch": 77, "duration": 16, "velocity": 87}, {"time": 646, "pitch": 75, "duration": 4, "velocity": 82}, {"time": 652, "pitch": 77, "duration": 6, "velocity": 83}, {"time": 658, "pitch": 75, "duration": 10, "velocity": 84}, {"time": 670, "pitch": 68, "duration": 7, "velocity": 80}, {"time": 676, "pitch": 70, "duration": 19, "velocity": 81}, {"time": 700, "pitch": 70, "duration": 4, "velocity": 82}, {"time": 706, "pitch": 72, "duration": 4, "velocity": 81}, {"time": 712, "pitch": 75, "duration": 3, "velocity": 87}, {"time": 718, "pitch": 72, "duration": 3, "velocity": 83}, {"time": 724, "pitch": 70, "duration": 4, "velocity": 83}, {"time": 730, "pitch": 72, "duration": 9, "velocity": 81}, {"time": 742, "pitch": 68, "duration": 12, "velocity": 76}, {"time": 754, "pitch": 65, "duration": 31, "velocity": 81}, {"time": 796, "pitch": 65, "duration": 4, "velocity": 81}, {"time": 802, "pitch": 72, "duration": 3, "velocity": 82}, {"time": 808, "pitch": 72, "duration": 3, "velocity": 85}, {"time": 814, "pitch": 72, "duration": 3, "velocity": 81}, {"time": 820, "pitch": 77, "duration": 8, "velocity": 82}, {"time": 829, "pitch": 75, "duration": 2, "velocity": 74}, {"time": 832, "pitch": 72, "duration": 9, "velocity": 80}, {"time": 844, "pitch": 70, "duration": 4, "velocity": 74}, {"time": 850, "pitch": 72, "duration": 9, "velocity": 81}, {"time": 862, "pitch": 68, "duration": 5, "velocity": 75}, {"time": 868, "pitch": 65, "duration": 21, "velocity": 80}, {"time": 892, "pitch": 65, "duration": 5, "velocity": 81}, {"time": 898, "pitch": 68, "duration": 4, "velocity": 75}, {"time": 904, "pitch": 68, "duration": 6, "velocity": 80}, {"time": 910, "pitch": 65, "duration": 4, "velocity": 82}, {"time": 916, "pitch": 77, "duration": 12, "velocity": 84}, {"time": 928, "pitch": 75, "duration": 5, "velocity": 85}, {"time": 934, "pitch": 70, "duration": 6, "velocity": 81}, {"time": 940, "pitch": 72, "duration": 44, "velocity": 79}, {"time": 988, "pitch": 72, "duration": 6, "velocity": 84}, {"time": 994, "pitch": 77, "duration": 9, "velocity": 80}, {"time": 1006, "pitch": 80, "duration": 4, "velocity": 81}, {"time": 1012, "pitch": 77, "duration": 16, "velocity": 87}, {"time": 1030, "pitch": 75, "duration": 4, "velocity": 82}, {"time": 1036, "pitch": 77, "duration": 6, "velocity": 83}, {"time": 1042, "pitch": 75, "duration": 10, "velocity": 84}, {"time": 1054, "pitch": 68, "duration": 7, "velocity": 80}, {"time": 1060, "pitch": 70, "duration": 19, "velocity": 81}, {"time": 1084, "pitch": 70, "duration": 4, "velocity": 82}, {"time": 1090, "pitch": 72, "duration": 4, "velocity": 81}, {"time": 1096, "pitch": 75, "duration": 3, "velocity": 87}, {"time": 1102, "pitch": 72, "duration": 3, "velocity": 83}, {"time": 1108, "pitch": 70, "duration": 4, "velocity": 83}, {"time": 1114, "pitch": 72, "duration": 9, "velocity": 81}, {"time": 1126, "pitch": 68, "duration": 12, "velocity": 76}, {"time": 1138, "pitch": 65, "duration": 31, "velocity": 81}, {"time": 1180, "pitch": 77, "duration": 10, "velocity": 89}, {"time": 1192, "pitch": 77, "duration": 5, "velocity": 84}, {"time": 1198, "pitch": 75, "duration": 7, "velocity": 82}, {"time": 1204, "pitch": 77, "duration": 6, "velocity": 85}, {"time": 1210, "pitch": 80, "duration": 7, "velocity": 81}, {"time": 1216, "pitch": 82, "duration": 7, "velocity": 81}, {"time": 1222, "pitch": 84, "duration": 7, "velocity": 84}, {"time": 1228, "pitch": 82, "duration": 8, "velocity": 82}, {"time": 1234, "pitch": 80, "duration": 5, "velocity": 81}, {"time": 1240, "pitch": 77, "duration": 6, "velocity": 81}, {"time": 1246, "pitch": 75, "duration": 6, "velocity": 82}, {"time": 1252, "pitch": 72, "duration": 18, "velocity": 78}, {"time": 1276, "pitch": 77, "duration": 4, "velocity": 82}, {"time": 1282, "pitch": 77, "duration": 3, "velocity": 83}, {"time": 1288, "pitch": 77, "duration": 4, "velocity": 86}, {"time": 1294, "pitch": 80, "duration": 4, "velocity": 83}, {"time": 1300, "pitch": 77, "duration": 5, "velocity": 82}, {"time": 1306, "pitch": 75, "duration": 3, "velocity": 83}, {"time": 1312, "pitch": 70, "duration": 4, "velocity": 81}, {"time": 1318, "pitch": 75, "duration": 4, "velocity": 84}, {"time": 1324, "pitch": 72, "duration": 42, "velocity": 76}, {"time": 1372, "pitch": 72, "duration": 5, "velocity": 86}, {"time": 1378, "pitch": 77, "duration": 4, "velocity": 82}, {"time": 1384, "pitch": 77, "duration": 4, "velocity": 82}, {"time": 1390, "pitch": 80, "duration": 5, "velocity": 81}, {"time": 1396, "pitch": 77, "duration": 15, "velocity": 83}, {"time": 1414, "pitch": 75, "duration": 5, "velocity": 83}, {"time": 1420, "pitch": 77, "duration": 4, "velocity": 81}, {"time": 1426, "pitch": 80, "duration": 4, "velocity": 77}, {"time": 1432, "pitch": 82, "duration": 3, "velocity": 80}, {"time": 1438, "pitch": 84, "duration": 3, "velocity": 81}, {"time": 1444, "pitch": 82, "duration": 18, "velocity": 80}, {"time": 1468, "pitch": 72, "duration": 5, "velocity": 84}, {"time": 1474, "pitch": 75, "duration": 3, "velocity": 85}, {"time": 1480, "pitch": 75, "duration": 3, "velocity": 84}, {"time": 1486, "pitch": 84, "duration": 3, "velocity": 84}, {"time": 1492, "pitch": 82, "duration": 4, "velocity": 81}, {"time": 1498, "pitch": 80, "duration": 9, "velocity": 80}, {"time": 1510, "pitch": 75, "duration": 4, "velocity": 84}, {"time": 1516, "pitch": 77, "duration": 44, "velocity": 80}, {"time": 1564, "pitch": 77, "duration": 10, "velocity": 89}, {"time": 1576, "pitch": 77, "duration": 5, "velocity": 84}, {"time": 1582, "pitch": 75, "duration": 7, "velocity": 82}, {"time": 1588, "pitch": 77, "duration": 6, "velocity": 85}, {"time": 1594, "pitch": 80, "duration": 7, "velocity": 81}, {"time": 1600, "pitch": 82, "duration": 7, "velocity": 81}, {"time": 1606, "pitch": 84, "duration": 7, "velocity": 84}, {"time": 1612, "pitch": 82, "duration": 8, "velocity": 82}, {"time": 1618, "pitch": 80, "duration": 5, "velocity": 81}, {"time": 1624, "pitch": 77, "duration": 6, "velocity": 81}, {"time": 1630, "pitch": 75, "duration": 6, "velocity": 82}, {"time": 1636, "pitch": 72, "duration": 18, "velocity": 78}, {"time": 1660, "pitch": 77, "duration": 4, "velocity": 82}, {"time": 1666, "pitch": 77, "duration": 3, "velocity": 83}, {"time": 1672, "pitch": 77, "duration": 4, "velocity": 86}, {"time": 1678, "pitch": 80, "duration": 4, "velocity": 83}, {"time": 1684, "pitch": 77, "duration": 5, "velocity": 82}, {"time": 1690, "pitch": 75, "duration": 3, "velocity": 83}, {"time": 1696, "pitch": 70, "duration": 4, "velocity": 81}, {"time": 1702, "pitch": 75, "duration": 4, "velocity": 84}, {"time": 1708, "pitch": 72, "duration": 42, "velocity": 76}, {"time": 1756, "pitch": 72, "duration": 5, "velocity": 86}, {"time": 1762, "pitch": 77, "duration": 4, "velocity": 82}, {"time": 1768, "pitch": 77, "duration": 4, "velocity": 82}, {"time": 1774, "pitch": 80, "duration": 5, "velocity": 81}, {"time": 1780, "pitch": 77, "duration": 15, "velocity": 83}, {"time": 1798, "pitch": 75, "duration": 5, "velocity": 83}, {"time": 1804, "pitch": 77, "duration": 4, "velocity": 81}, {"time": 1810, "pitch": 80, "duration": 4, "velocity": 77}, {"time": 1816, "pitch": 82, "duration": 3, "velocity": 80}, {"time": 1822, "pitch": 84, "duration": 3, "velocity": 81}, {"time": 1828, "pitch": 82, "duration": 18, "velocity": 80}, {"time": 1852, "pitch": 72, "duration": 5, "velocity": 84}, {"time": 1858, "pitch": 75, "duration": 3, "velocity": 85}, {"time": 1864, "pitch": 75, "duration": 3, "velocity": 84}, {"time": 1870, "pitch": 84, "duration": 3, "velocity": 84}, {"time": 1876, "pitch": 82, "duration": 4, "velocity": 81}, {"time": 1882, "pitch": 80, "duration": 9, "velocity": 80}, {"time": 1894, "pitch": 75, "duration": 4, "velocity": 84}, {"time": 1900, "pitch": 77, "duration": 44, "velocity": 80}, {"time": 2332, "pitch": 65, "duration": 4, "velocity": 81}, {"time": 2338, "pitch": 72, "duration": 3, "velocity": 82}, {"time": 2344, "pitch": 72, "duration": 3, "velocity": 85}, {"time": 2350, "pitch": 72, "duration": 3, "velocity": 81}, {"time": 2356, "pitch": 77, "duration": 8, "velocity": 82}, {"time": 2365, "pitch": 75, "duration": 2, "velocity": 74}, {"time": 2368, "pitch": 72, "duration": 9, "velocity": 80}, {"time": 2380, "pitch": 70, "duration": 4, "velocity": 74}, {"time": 2386, "pitch": 72, "duration": 9, "velocity": 81}, {"time": 2398, "pitch": 68, "duration": 5, "velocity": 75}, {"time": 2404, "pitch": 65, "duration": 21, "velocity": 80}, {"time": 2428, "pitch": 65, "duration": 5, "velocity": 81}, {"time": 2434, "pitch": 68, "duration": 4, "velocity": 75}, {"time": 2440, "pitch": 68, "duration": 6, "velocity": 80}, {"time": 2446, "pitch": 65, "duration": 4, "velocity": 82}, {"time": 2452, "pitch": 77, "duration": 12, "velocity": 84}, {"time": 2464, "pitch": 75, "duration": 5, "velocity": 85}, {"time": 2470, "pitch": 70, "duration": 6, "velocity": 81}, {"time": 2476, "pitch": 72, "duration": 44, "velocity": 79}, {"time": 2524, "pitch": 72, "duration": 6, "velocity": 84}, {"time": 2530, "pitch": 77, "duration": 9, "velocity": 80}, {"time": 2542, "pitch": 80, "duration": 4, "velocity": 81}, {"time": 2548, "pitch": 77, "duration": 16, "velocity": 87}, {"time": 2566, "pitch": 75, "duration": 4, "velocity": 82}, {"time": 2572, "pitch": 77, "duration": 6, "velocity": 83}, {"time": 2578, "pitch": 75, "duration": 10, "velocity": 84}, {"time": 2590, "pitch": 68, "duration": 7, "velocity": 80}, {"time": 2596, "pitch": 70, "duration": 19, "velocity": 81}, {"time": 2620, "pitch": 70, "duration": 4, "velocity": 82}, {"time": 2626, "pitch": 72, "duration": 4, "velocity": 81}, {"time": 2632, "pitch": 75, "duration": 3, "velocity": 87}, {"time": 2638, "pitch": 72, "duration": 3, "velocity": 83}, {"time": 2644, "pitch": 70, "duration": 4, "velocity": 83}, {"time": 2650, "pitch": 72, "duration": 9, "velocity": 81}, {"time": 2662, "pitch": 68, "duration": 12, "velocity": 76}, {"time": 2674, "pitch": 65, "duration": 31, "velocity": 81}, {"time": 2716, "pitch": 65, "duration": 4, "velocity": 81}, {"time": 2722, "pitch": 72, "duration": 3, "velocity": 82}, {"time": 2728, "pitch": 72, "duration": 3, "velocity": 85}, {"time": 2734, "pitch": 72, "duration": 3, "velocity": 81}, {"time": 2740, "pitch": 77, "duration": 8, "velocity": 82}, {"time": 2749, "pitch": 75, "duration": 2, "velocity": 74}, {"time": 2752, "pitch": 72, "duration": 9, "velocity": 80}, {"time": 2764, "pitch": 70, "duration": 4, "velocity": 74}, {"time": 2770, "pitch": 72, "duration": 9, "velocity": 81}, {"time": 2782, "pitch": 68, "duration": 5, "velocity": 75}, {"time": 2788, "pitch": 65, "duration": 21, "velocity": 80}, {"time": 2812, "pitch": 65, "duration": 5, "velocity": 81}, {"time": 2818, "pitch": 68, "duration": 4, "velocity": 75}, {"time": 2824, "pitch": 68, "duration": 6, "velocity": 80}, {"time": 2830, "pitch": 65, "duration": 4, "velocity": 82}, {"time": 2836, "pitch": 77, "duration": 12, "velocity": 84}, {"time": 2848, "pitch": 75, "duration": 5, "velocity": 85}, {"time": 2854, "pitch": 70, "duration": 6, "velocity": 81}, {"time": 2860, "pitch": 72, "duration": 44, "velocity": 79}, {"time": 2908, "pitch": 72, "duration": 6, "velocity": 84}, {"time": 2914, "pitch": 77, "duration": 9, "velocity": 80}, {"time": 2926, "pitch": 80, "duration": 4, "velocity": 81}, {"time": 2932, "pitch": 77, "duration": 16, "velocity": 87}, {"time": 2950, "pitch": 75, "duration": 4, "velocity": 82}, {"time": 2956, "pitch": 77, "duration": 6, "velocity": 83}, {"time": 2962, "pitch": 75, "duration": 10, "velocity": 84}, {"time": 2974, "pitch": 68, "duration": 7, "velocity": 80}, {"time": 2980, "pitch": 70, "duration": 19, "velocity": 81}, {"time": 3004, "pitch": 70, "duration": 4, "velocity": 82}, {"time": 3010, "pitch": 72, "duration": 4, "velocity": 81}, {"time": 3016, "pitch": 75, "duration": 3, "velocity": 87}, {"time": 3022, "pitch": 72, "duration": 3, "velocity": 83}, {"time": 3028, "pitch": 70, "duration": 4, "velocity": 83}, {"time": 3034, "pitch": 72, "duration": 9, "velocity": 81}, {"time": 3046, "pitch": 68, "duration": 12, "velocity": 76}, {"time": 3058, "pitch": 65, "duration": 31, "velocity": 81}, {"time": 3100, "pitch": 77, "duration": 10, "velocity": 89}, {"time": 3112, "pitch": 77, "duration": 5, "velocity": 84}, {"time": 3118, "pitch": 75, "duration": 7, "velocity": 82}, {"time": 3124, "pitch": 77, "duration": 6, "velocity": 85}, {"time": 3130, "pitch": 80, "duration": 7, "velocity": 81}, {"time": 3136, "pitch": 82, "duration": 7, "velocity": 81}, {"time": 3142, "pitch": 84, "duration": 7, "velocity": 84}, {"time": 3148, "pitch": 82, "duration": 8, "velocity": 82}, {"time": 3154, "pitch": 80, "duration": 5, "velocity": 81}, {"time": 3160, "pitch": 77, "duration": 6, "velocity": 81}, {"time": 3166, "pitch": 75, "duration": 6, "velocity": 82}, {"time": 3172, "pitch": 72, "duration": 18, "velocity": 78}, {"time": 3196, "pitch": 77, "duration": 4, "velocity": 82}, {"time": 3202, "pitch": 77, "duration": 3, "velocity": 83}, {"time": 3208, "pitch": 77, "duration": 4, "velocity": 86}, {"time": 3214, "pitch": 80, "duration": 4, "velocity": 83}, {"time": 3220, "pitch": 77, "duration": 5, "velocity": 82}, {"time": 3226, "pitch": 75, "duration": 3, "velocity": 83}, {"time": 3232, "pitch": 70, "duration": 4, "velocity": 81}, {"time": 3238, "pitch": 75, "duration": 4, "velocity": 84}, {"time": 3244, "pitch": 72, "duration": 42, "velocity": 76}, {"time": 3292, "pitch": 72, "duration": 5, "velocity": 86}, {"time": 3298, "pitch": 77, "duration": 4, "velocity": 82}, {"time": 3304, "pitch": 77, "duration": 4, "velocity": 82}, {"time": 3310, "pitch": 80, "duration": 5, "velocity": 81}, {"time": 3316, "pitch": 77, "duration": 15, "velocity": 83}, {"time": 3334, "pitch": 75, "duration": 5, "velocity": 83}, {"time": 3340, "pitch": 77, "duration": 4, "velocity": 81}, {"time": 3346, "pitch": 80, "duration": 4, "velocity": 77}, {"time": 3352, "pitch": 82, "duration": 3, "velocity": 80}, {"time": 3358, "pitch": 84, "duration": 3, "velocity": 81}, {"time": 3364, "pitch": 82, "duration": 18, "velocity": 80}, {"time": 3388, "pitch": 72, "duration": 5, "velocity": 84}, {"time": 3394, "pitch": 75, "duration": 3, "velocity": 85}, {"time": 3400, "pitch": 75, "duration": 3, "velocity": 84}, {"time": 3406, "pitch": 84, "duration": 3, "velocity": 84}, {"time": 3412, "pitch": 82, "duration": 4, "velocity": 81}, {"time": 3418, "pitch": 80, "duration": 9, "velocity": 80}, {"time": 3430, "pitch": 75, "duration": 4, "velocity": 84}, {"time": 3436, "pitch": 77, "duration": 44, "velocity": 80}, {"time": 3484, "pitch": 77, "duration": 10, "velocity": 89}, {"time": 3496, "pitch": 77, "duration": 5, "velocity": 84}, {"time": 3502, "pitch": 75, "duration": 7, "velocity": 82}, {"time": 3508, "pitch": 77, "duration": 6, "velocity": 85}, {"time": 3514, "pitch": 80, "duration": 7, "velocity": 81}, {"time": 3520, "pitch": 82, "duration": 7, "velocity": 81}, {"time": 3526, "pitch": 84, "duration": 7, "velocity": 84}, {"time": 3532, "pitch": 82, "duration": 8, "velocity": 82}, {"time": 3538, "pitch": 80, "duration": 5, "velocity": 81}, {"time": 3544, "pitch": 77, "duration": 6, "velocity": 81}, {"time": 3550, "pitch": 75, "duration": 6, "velocity": 82}, {"time": 3556, "pitch": 72, "duration": 18, "velocity": 78}, {"time": 3580, "pitch": 77, "duration": 4, "velocity": 82}, {"time": 3586, "pitch": 77, "duration": 3, "velocity": 83}, {"time": 3592, "pitch": 77, "duration": 4, "velocity": 86}, {"time": 3598, "pitch": 80, "duration": 4, "velocity": 83}, {"time": 3604, "pitch": 77, "duration": 5, "velocity": 82}, {"time": 3610, "pitch": 75, "duration": 3, "velocity": 83}, {"time": 3616, "pitch": 70, "duration": 4, "velocity": 81}, {"time": 3622, "pitch": 75, "duration": 4, "velocity": 84}, {"time": 3628, "pitch": 72, "duration": 42, "velocity": 76}, {"time": 3676, "pitch": 72, "duration": 5, "velocity": 86}, {"time": 3682, "pitch": 77, "duration": 4, "velocity": 82}, {"time": 3688, "pitch": 77, "duration": 4, "velocity": 82}, {"time": 3694, "pitch": 80, "duration": 5, "velocity": 81}, {"time": 3700, "pitch": 77, "duration": 15, "velocity": 83}, {"time": 3718, "pitch": 75, "duration": 5, "velocity": 83}, {"time": 3724, "pitch": 77, "duration": 4, "velocity": 81}, {"time": 3730, "pitch": 80, "duration": 4, "velocity": 77}, {"time": 3736, "pitch": 82, "duration": 3, "velocity": 80}, {"time": 3742, "pitch": 84, "duration": 3, "velocity": 81}, {"time": 3748, "pitch": 82, "duration": 18, "velocity": 80}, {"time": 3772, "pitch": 72, "duration": 5, "velocity": 84}, {"time": 3778, "pitch": 75, "duration": 3, "velocity": 85}, {"time": 3784, "pitch": 75, "duration": 3, "velocity": 84}, {"time": 3790, "pitch": 84, "duration": 3, "velocity": 84}, {"time": 3796, "pitch": 82, "duration": 4, "velocity": 81}, {"time": 3802, "pitch": 80, "duration": 9, "velocity": 80}, {"time": 3814, "pitch": 75, "duration": 4, "velocity": 84}, {"time": 3820, "pitch": 77, "duration": 44, "velocity": 80}, {"time": 3868, "pitch": 77, "duration": 10, "velocity": 89}, {"time": 3880, "pitch": 77, "duration": 5, "velocity": 84}, {"time": 3886, "pitch": 75, "duration": 7, "velocity": 82}, {"time": 3892, "pitch": 77, "duration": 6, "velocity": 85}, {"time": 3898, "pitch": 80, "duration": 7, "velocity": 81}, {"time": 3904, "pitch": 82, "duration": 7, "velocity": 81}, {"time": 3910, "pitch": 84, "duration": 7, "velocity": 84}, {"time": 3916, "pitch": 82, "duration": 8, "velocity": 82}, {"time": 3922, "pitch": 80, "duration": 5, "velocity": 81}, {"time": 3928, "pitch": 77, "duration": 6, "velocity": 81}, {"time": 3934, "pitch": 75, "duration": 6, "velocity": 82}, {"time": 3940, "pitch": 72, "duration": 18, "velocity": 78}, {"time": 3964, "pitch": 77, "duration": 4, "velocity": 82}, {"time": 3970, "pitch": 77, "duration": 3, "velocity": 83}, {"time": 3976, "pitch": 77, "duration": 4, "velocity": 86}, {"time": 3982, "pitch": 80, "duration": 4, "velocity": 83}, {"time": 3988, "pitch": 77, "duration": 5, "velocity": 82}, {"time": 3994, "pitch": 75, "duration": 3, "velocity": 83}, {"time": 4000, "pitch": 70, "duration": 4, "velocity": 81}, {"time": 4006, "pitch": 75, "duration": 4, "velocity": 84}, {"time": 4012, "pitch": 72, "duration": 42, "velocity": 76}, {"time": 4060, "pitch": 72, "duration": 5, "velocity": 86}, {"time": 4066, "pitch": 77, "duration": 4, "velocity": 82}, {"time": 4072, "pitch": 77, "duration": 4, "velocity": 82}, {"time": 4078, "pitch": 80, "duration": 5, "velocity": 81}, {"time": 4084, "pitch": 77, "duration": 15, "velocity": 83}, {"time": 4102, "pitch": 75, "duration": 5, "velocity": 83}, {"time": 4108, "pitch": 77, "duration": 4, "velocity": 81}, {"time": 4114, "pitch": 80, "duration": 4, "velocity": 77}, {"time": 4120, "pitch": 82, "duration": 3, "velocity": 80}, {"time": 4126, "pitch": 84, "duration": 3, "velocity": 81}, {"time": 4132, "pitch": 82, "duration": 18, "velocity": 80}, {"time": 4156, "pitch": 72, "duration": 5, "velocity": 84}, {"time": 4162, "pitch": 75, "duration": 3, "velocity": 85}, {"time": 4168, "pitch": 75, "duration": 3, "velocity": 84}, {"time": 4174, "pitch": 84, "duration": 3, "velocity": 84}, {"time": 4180, "pitch": 82, "duration": 4, "velocity": 81}, {"time": 4186, "pitch": 80, "duration": 9, "velocity": 80}, {"time": 4198, "pitch": 75, "duration": 4, "velocity": 84}, {"time": 4204, "pitch": 77, "duration": 44, "velocity": 80}, {"time": 4252, "pitch": 77, "duration": 10, "velocity": 89}, {"time": 4264, "pitch": 77, "duration": 5, "velocity": 84}, {"time": 4270, "pitch": 75, "duration": 7, "velocity": 82}, {"time": 4276, "pitch": 77, "duration": 6, "velocity": 85}, {"time": 4282, "pitch": 80, "duration": 7, "velocity": 81}, {"time": 4288, "pitch": 82, "duration": 7, "velocity": 81}, {"time": 4294, "pitch": 84, "duration": 7, "velocity": 84}, {"time": 4300, "pitch": 82, "duration": 8, "velocity": 82}, {"time": 4306, "pitch": 80, "duration": 5, "velocity": 81}, {"time": 4312, "pitch": 77, "duration": 6, "velocity": 81}, {"time": 4318, "pitch": 75, "duration": 6, "velocity": 82}, {"time": 4324, "pitch": 72, "duration": 18, "velocity": 78}, {"time": 4348, "pitch": 77, "duration": 4, "velocity": 82}, {"time": 4354, "pitch": 77, "duration": 3, "velocity": 83}, {"time": 4360, "pitch": 77, "duration": 4, "velocity": 86}, {"time": 4366, "pitch": 80, "duration": 4, "velocity": 83}, {"time": 4372, "pitch": 77, "duration": 5, "velocity": 82}, {"time": 4378, "pitch": 75, "duration": 3, "velocity": 83}, {"time": 4384, "pitch": 70, "duration": 4, "velocity": 81}, {"time": 4390, "pitch": 75, "duration": 4, "velocity": 84}, {"time": 4396, "pitch": 72, "duration": 42, "velocity": 76}, {"time": 4444, "pitch": 72, "duration": 5, "velocity": 86}, {"time": 4450, "pitch": 77, "duration": 4, "velocity": 82}, {"time": 4456, "pitch": 77, "duration": 4, "velocity": 82}, {"time": 4462, "pitch": 80, "duration": 5, "velocity": 81}, {"time": 4468, "pitch": 77, "duration": 15, "velocity": 83}, {"time": 4486, "pitch": 75, "duration": 5, "velocity": 83}, {"time": 4492, "pitch": 77, "duration": 4, "velocity": 81}, {"time": 4498, "pitch": 80, "duration": 4, "velocity": 77}, {"time": 4504, "pitch": 82, "duration": 3, "velocity": 80}, {"time": 4510, "pitch": 84, "duration": 3, "velocity": 81}, {"time": 4516, "pitch": 82, "duration": 18, "velocity": 80}, {"time": 4540, "pitch": 72, "duration": 5, "velocity": 84}, {"time": 4546, "pitch": 75, "duration": 3, "velocity": 85}, {"time": 4552, "pitch": 75, "duration": 3, "velocity": 84}, {"time": 4558, "pitch": 84, "duration": 3, "velocity": 84}, {"time": 4564, "pitch": 82, "duration": 4, "velocity": 81}, {"time": 4570, "pitch": 80, "duration": 9, "velocity": 80}, {"time": 4582, "pitch": 75, "duration": 4, "velocity": 84}, {"time": 4588, "pitch": 77, "duration": 44, "velocity": 80}, {"time": 4636, "pitch": 72, "duration": 5, "velocity": 84}, {"time": 4642, "pitch": 75, "duration": 3, "velocity": 85}, {"time": 4648, "pitch": 75, "duration": 3, "velocity": 84}, {"time": 4654, "pitch": 84, "duration": 3, "velocity": 84}, {"time": 4660, "pitch": 82, "duration": 4, "velocity": 81}, {"time": 4666, "pitch": 80, "duration": 6, "velocity": 80}, {"time": 4672, "pitch": 75, "duration": 36, "velocity": 80}, {"time": 4720, "pitch": 75, "duration": 6, "velocity": 89}, {"time": 4726, "pitch": 80, "duration": 6, "velocity": 79}, {"time": 4732, "pitch": 77, "duration": 47, "velocity": 86}]}, {"program": 0, "is_drum": false, "name": "PIANO", "notes": [{"time": 28, "pitch": 41, "duration": 11, "velocity": 76}, {"time": 28, "pitch": 53, "duration": 8, "velocity": 81}, {"time": 28, "pitch": 60, "duration": 4, "velocity": 72}, {"time": 28, "pitch": 65, "duration": 3, "velocity": 75}, {"time": 28, "pitch": 68, "duration": 4, "velocity": 74}, {"time": 34, "pitch": 60, "duration": 2, "velocity": 68}, {"time": 34, "pitch": 65, "duration": 2, "velocity": 72}, {"time": 34, "pitch": 68, "duration": 2, "velocity": 71}, {"time": 40, "pitch": 60, "duration": 2, "velocity": 72}, {"time": 40, "pitch": 65, "duration": 2, "velocity": 76}, {"time": 40, "pitch": 68, "duration": 2, "velocity": 74}, {"time": 46, "pitch": 48, "duration": 5, "velocity": 83}, {"time": 46, "pitch": 60, "duration": 1, "velocity": 67}, {"time": 46, "pitch": 60, "duration": 1, "velocity": 80}, {"time": 46, "pitch": 65, "duration": 1, "velocity": 69}, {"time": 46, "pitch": 68, "duration": 2, "velocity": 72}, {"time": 52, "pitch": 49, "duration": 9, "velocity": 82}, {"time": 52, "pitch": 61, "duration": 3, "velocity": 74}, {"time": 52, "pitch": 61, "duration": 3, "velocity": 81}, {"time": 52, "pitch": 65, "duration": 3, "velocity": 77}, {"time": 52, "pitch": 68, "duration": 3, "velocity": 76}, {"time": 58, "pitch": 61, "duration": 2, "velocity": 68}, {"time": 58, "pitch": 65, "duration": 2, "velocity": 74}, {"time": 58, "pitch": 68, "duration": 2, "velocity": 68}, {"time": 64, "pitch": 61, "duration": 2, "velocity": 75}, {"time": 64, "pitch": 65, "duration": 2, "velocity": 79}, {"time": 64, "pitch": 68, "duration": 2, "velocity": 79}, {"time": 70, "pitch": 61, "duration": 2, "velocity": 70}, {"time": 70, "pitch": 65, "duration": 2, "velocity": 75}, {"time": 70, "pitch": 68, "duration": 2, "velocity": 73}, {"time": 76, "pitch": 39, "duration": 10, "velocity": 82}, {"time": 76, "pitch": 51, "duration": 9, "velocity": 82}, {"time": 76, "pitch": 63, "duration": 4, "velocity": 77}, {"time": 76, "pitch": 67, "duration": 4, "velocity": 80}, {"time": 82, "pitch": 63, "duration": 2, "velocity": 69}, {"time": 82, "pitch": 67, "duration": 2, "velocity": 70}, {"time": 88, "pitch": 63, "duration": 2, "velocity": 75}, {"time": 88, "pitch": 67, "duration": 2, "velocity": 75}, {"time": 94, "pitch": 39, "duration": 4, "velocity": 81}, {"time": 94, "pitch": 51, "duration": 5, "velocity": 75}, {"time": 94, "pitch": 63, "duration": 3, "velocity": 75}, {"time": 94, "pitch": 67, "duration": 3, "velocity": 75}, {"time": 100, "pitch": 41, "duration": 13, "velocity": 81}, {"time": 100, "pitch": 53, "duration": 13, "velocity": 80}, {"time": 100, "pitch": 60, "duration": 3, "velocity": 74}, {"time": 100, "pitch": 65, "duration": 3, "velocity": 76}, {"time": 100, "pitch": 68, "duration": 3, "velocity": 74}, {"time": 106, "pitch": 60, "duration": 2, "velocity": 67}, {"time": 106, "pitch": 65, "duration": 2, "velocity": 69}, {"time": 106, "pitch": 68, "duration": 2, "velocity": 69}, {"time": 112, "pitch": 60, "duration": 3, "velocity": 81}, {"time": 112, "pitch": 65, "duration": 3, "velocity": 83}, {"time": 112, "pitch": 68, "duration": 3, "velocity": 81}, {"time": 118, "pitch": 60, "duration": 3, "velocity": 80}, {"time": 118, "pitch": 65, "duration": 3, "velocity": 81}, {"time": 118, "pitch": 68, "duration": 3, "velocity": 78}, {"time": 124, "pitch": 37, "duration": 8, "velocity": 79}, {"time": 124, "pitch": 49, "duration": 7, "velocity": 80}, {"time": 124, "pitch": 61, "duration": 2, "velocity": 74}, {"time": 124, "pitch": 65, "duration": 2, "velocity": 75}, {"time": 124, "pitch": 68, "duration": 2, "velocity": 74}, {"time": 130, "pitch": 61, "duration": 2, "velocity": 71}, {"time": 130, "pitch": 65, "duration": 1, "velocity": 75}, {"time": 130, "pitch": 68, "duration": 2, "velocity": 72}, {"time": 136, "pitch": 61, "duration": 2, "velocity": 74}, {"time": 136, "pitch": 65, "duration": 2, "velocity": 76}, {"time": 136, "pitch": 68, "duration": 2, "velocity": 74}, {"time": 142, "pitch": 37, "duration": 4, "velocity": 69}, {"time": 142, "pitch": 49, "duration": 4, "velocity": 76}, {"time": 142, "pitch": 61, "duration": 2, "velocity": 72}, {"time": 142, "pitch": 65, "duration": 2, "velocity": 76}, {"time": 142, "pitch": 68, "duration": 3, "velocity": 74}, {"time": 148, "pitch": 39, "duration": 10, "velocity": 76}, {"time": 148, "pitch": 51, "duration": 9, "velocity": 80}, {"time": 148, "pitch": 63, "duration": 4, "velocity": 75}, {"time": 148, "pitch": 67, "duration": 5, "velocity": 79}, {"time": 154, "pitch": 63, "duration": 2, "velocity": 71}, {"time": 154, "pitch": 67, "duration": 2, "velocity": 72}, {"time": 160, "pitch": 63, "duration": 3, "velocity": 81}, {"time": 160, "pitch": 67, "duration": 3, "velocity": 84}, {"time": 166, "pitch": 63, "duration": 2, "velocity": 70}, {"time": 166, "pitch": 67, "duration": 3, "velocity": 77}, {"time": 172, "pitch": 44, "duration": 8, "velocity": 75}, {"time": 172, "pitch": 56, "duration": 8, "velocity": 75}, {"time": 172, "pitch": 60, "duration": 5, "velocity": 70}, {"time": 172, "pitch": 63, "duration": 4, "velocity": 72}, {"time": 172, "pitch": 68, "duration": 5, "velocity": 74}, {"time": 178, "pitch": 60, "duration": 2, "velocity": 67}, {"time": 178, "pitch": 63, "duration": 2, "velocity": 75}, {"time": 178, "pitch": 68, "duration": 1, "velocity": 68}, {"time": 184, "pitch": 60, "duration": 2, "velocity": 69}, {"time": 184, "pitch": 63, "duration": 2, "velocity": 70}, {"time": 184, "pitch": 68, "duration": 2, "velocity": 65}, {"time": 190, "pitch": 46, "duration": 4, "velocity": 73}, {"time": 190, "pitch": 58, "duration": 5, "velocity": 69}, {"time": 190, "pitch": 60, "duration": 2, "velocity": 65}, {"time": 190, "pitch": 63, "duration": 1, "velocity": 63}, {"time": 190, "pitch": 68, "duration": 2, "velocity": 69}, {"time": 196, "pitch": 48, "duration": 10, "velocity": 82}, {"time": 196, "pitch": 60, "duration": 4, "velocity": 75}, {"time": 196, "pitch": 64, "duration": 4, "velocity": 78}, {"time": 196, "pitch": 67, "duration": 4, "velocity": 78}, {"time": 202, "pitch": 60, "duration": 2, "velocity": 63}, {"time": 202, "pitch": 64, "duration": 2, "velocity": 69}, {"time": 202, "pitch": 67, "duration": 2, "velocity": 68}, {"time": 208, "pitch": 60, "duration": 1, "velocity": 75}, {"time": 208, "pitch": 64, "duration": 2, "velocity": 73}, {"time": 208, "pitch": 67, "duration": 3, "velocity": 74}, {"time": 214, "pitch": 60, "duration": 3, "velocity": 76}, {"time": 214, "pitch": 64, "duration": 2, "velocity": 76}, {"time": 214, "pitch": 67, "duration": 3, "velocity": 75}, {"time": 220, "pitch": 41, "duration": 12, "velocity": 80}, {"time": 220, "pitch": 53, "duration": 11, "velocity": 71}, {"time": 220, "pitch": 60, "duration": 5, "velocity": 73}, {"time": 220, "pitch": 65, "duration": 5, "velocity": 65}, {"time": 220, "pitch": 68, "duration": 5, "velocity": 56}, {"time": 226, "pitch": 60, "duration": 2, "velocity": 65}, {"time": 226, "pitch": 65, "duration": 2, "velocity": 71}, {"time": 226, "pitch": 68, "duration": 2, "velocity": 70}, {"time": 232, "pitch": 60, "duration": 3, "velocity": 73}, {"time": 232, "pitch": 65, "duration": 3, "velocity": 79}, {"time": 232, "pitch": 68, "duration": 3, "velocity": 75}, {"time": 238, "pitch": 39, "duration": 4, "velocity": 73}, {"time": 238, "pitch": 51, "duration": 5, "velocity": 75}, {"time": 238, "pitch": 60, "duration": 2, "velocity": 71}, {"time": 238, "pitch": 65, "duration": 2, "velocity": 74}, {"time": 238, "pitch": 68, "duration": 2, "velocity": 70}, {"time": 244, "pitch": 37, "duration": 11, "velocity": 74}, {"time": 244, "pitch": 49, "duration": 11, "velocity": 79}, {"time": 244, "pitch": 61, "duration": 4, "velocity": 72}, {"time": 244, "pitch": 65, "duration": 4, "velocity": 77}, {"time": 244, "pitch": 68, "duration": 4, "velocity": 75}, {"time": 250, "pitch": 61, "duration": 2, "velocity": 67}, {"time": 250, "pitch": 65, "duration": 2, "velocity": 74}, {"time": 250, "pitch": 68, "duration": 2, "velocity": 69}, {"time": 256, "pitch": 61, "duration": 9, "velocity": 80}, {"time": 256, "pitch": 65, "duration": 8, "velocity": 83}, {"time": 256, "pitch": 68, "duration": 9, "velocity": 81}, {"time": 268, "pitch": 44, "duration": 11, "velocity": 81}, {"time": 268, "pitch": 56, "duration": 11, "velocity": 76}, {"time": 268, "pitch": 63, "duration": 4, "velocity": 76}, {"time": 268, "pitch": 68, "duration": 4, "velocity": 73}, {"time": 268, "pitch": 72, "duration": 4, "velocity": 80}, {"time": 274, "pitch": 63, "duration": 2, "velocity": 68}, {"time": 274, "pitch": 68, "duration": 2, "velocity": 72}, {"time": 274, "pitch": 72, "duration": 2, "velocity": 72}, {"time": 280, "pitch": 63, "duration": 2, "velocity": 80}, {"time": 280, "pitch": 68, "duration": 3, "velocity": 80}, {"time": 280, "pitch": 72, "duration": 3, "velocity": 81}, {"time": 286, "pitch": 44, "duration": 4, "velocity": 74}, {"time": 286, "pitch": 56, "duration": 6, "velocity": 75}, {"time": 286, "pitch": 63, "duration": 3, "velocity": 75}, {"time": 286, "pitch": 68, "duration": 2, "velocity": 75}, {"time": 286, "pitch": 72, "duration": 3, "velocity": 78}, {"time": 292, "pitch": 39, "duration": 11, "velocity": 70}, {"time": 292, "pitch": 51, "duration": 11, "velocity": 72}, {"time": 292, "pitch": 63, "duration": 2, "velocity": 65}, {"time": 292, "pitch": 67, "duration": 3, "velocity": 68}, {"time": 298, "pitch": 63, "duration": 2, "velocity": 72}, {"time": 298, "pitch": 67, "duration": 2, "velocity": 74}, {"time": 304, "pitch": 63, "duration": 10, "velocity": 80}, {"time": 304, "pitch": 67, "duration": 10, "velocity": 85}, {"time": 316, "pitch": 48, "duration": 14, "velocity": 77}, {"time": 316, "pitch": 60, "duration": 3, "velocity": 74}, {"time": 316, "pitch": 60, "duration": 3, "velocity": 75}, {"time": 316, "pitch": 63, "duration": 3, "velocity": 81}, {"time": 316, "pitch": 67, "duration": 3, "velocity": 78}, {"time": 322, "pitch": 60, "duration": 1, "velocity": 58}, {"time": 322, "pitch": 63, "duration": 2, "velocity": 67}, {"time": 322, "pitch": 67, "duration": 2, "velocity": 63}, {"time": 328, "pitch": 60, "duration": 1, "velocity": 65}, {"time": 328, "pitch": 63, "duration": 2, "velocity": 73}, {"time": 328, "pitch": 67, "duration": 2, "velocity": 68}, {"time": 334, "pitch": 46, "duration": 4, "velocity": 76}, {"time": 334, "pitch": 58, "duration": 5, "velocity": 73}, {"time": 334, "pitch": 60, "duration": 2, "velocity": 61}, {"time": 334, "pitch": 63, "duration": 2, "velocity": 68}, {"time": 334, "pitch": 67, "duration": 2, "velocity": 66}, {"time": 340, "pitch": 48, "duration": 6, "velocity": 84}, {"time": 340, "pitch": 60, "duration": 6, "velocity": 80}, {"time": 340, "pitch": 60, "duration": 6, "velocity": 81}, {"time": 340, "pitch": 67, "duration": 18, "velocity": 82}, {"time": 364, "pitch": 41, "duration": 11, "velocity": 79}, {"time": 364, "pitch": 53, "duration": 10, "velocity": 81}, {"time": 364, "pitch": 60, "duration": 10, "velocity": 77}, {"time": 364, "pitch": 65, "duration": 9, "velocity": 81}, {"time": 376, "pitch": 65, "duration": 2, "velocity": 78}, {"time": 376, "pitch": 68, "duration": 2, "velocity": 74}, {"time": 382, "pitch": 39, "duration": 6, "velocity": 75}, {"time": 382, "pitch": 51, "duration": 6, "velocity": 78}, {"time": 382, "pitch": 60, "duration": 3, "velocity": 64}, {"time": 382, "pitch": 65, "duration": 3, "velocity": 68}, {"time": 382, "pitch": 68, "duration": 2, "velocity": 67}, {"time": 388, "pitch": 41, "duration": 15, "velocity": 80}, {"time": 388, "pitch": 53, "duration": 15, "velocity": 80}, {"time": 388, "pitch": 60, "duration": 2, "velocity": 66}, {"time": 388, "pitch": 65, "duration": 2, "velocity": 66}, {"time": 388, "pitch": 68, "duration": 2, "velocity": 66}, {"time": 394, "pitch": 60, "duration": 2, "velocity": 66}, {"time": 394, "pitch": 65, "duration": 2, "velocity": 70}, {"time": 394, "pitch": 68, "duration": 2, "velocity": 69}, {"time": 400, "pitch": 60, "duration": 9, "velocity": 80}, {"time": 400, "pitch": 65, "duration": 8, "velocity": 85}, {"time": 400, "pitch": 68, "duration": 8, "velocity": 80}, {"time": 412, "pitch": 41, "duration": 16, "velocity": 86}, {"time": 412, "pitch": 53, "duration": 16, "velocity": 86}, {"time": 412, "pitch": 60, "duration": 4, "velocity": 75}, {"time": 412, "pitch": 65, "duration": 7, "velocity": 79}, {"time": 418, "pitch": 60, "duration": 3, "velocity": 68}, {"time": 424, "pitch": 60, "duration": 2, "velocity": 81}, {"time": 424, "pitch": 65, "duration": 7, "velocity": 89}, {"time": 424, "pitch": 68, "duration": 8, "velocity": 82}, {"time": 430, "pitch": 60, "duration": 2, "velocity": 75}, {"time": 436, "pitch": 37, "duration": 16, "velocity": 82}, {"time": 436, "pitch": 49, "duration": 16, "velocity": 82}, {"time": 436, "pitch": 61, "duration": 5, "velocity": 71}, {"time": 436, "pitch": 65, "duration": 5, "velocity": 78}, {"time": 436, "pitch": 68, "duration": 5, "velocity": 74}, {"time": 442, "pitch": 56, "duration": 9, "velocity": 67}, {"time": 448, "pitch": 61, "duration": 2, "velocity": 82}, {"time": 448, "pitch": 68, "duration": 2, "velocity": 81}, {"time": 460, "pitch": 39, "duration": 18, "velocity": 81}, {"time": 460, "pitch": 51, "duration": 18, "velocity": 81}, {"time": 460, "pitch": 63, "duration": 4, "velocity": 74}, {"time": 460, "pitch": 67, "duration": 5, "velocity": 76}, {"time": 466, "pitch": 58, "duration": 14, "velocity": 65}, {"time": 472, "pitch": 63, "duration": 2, "velocity": 71}, {"time": 472, "pitch": 67, "duration": 4, "velocity": 82}, {"time": 472, "pitch": 70, "duration": 9, "velocity": 80}, {"time": 478, "pitch": 63, "duration": 3, "velocity": 72}, {"time": 484, "pitch": 41, "duration": 13, "velocity": 82}, {"time": 484, "pitch": 53, "duration": 13, "velocity": 82}, {"time": 484, "pitch": 65, "duration": 6, "velocity": 76}, {"time": 484, "pitch": 68, "duration": 6, "velocity": 70}, {"time": 490, "pitch": 60, "duration": 7, "velocity": 66}, {"time": 496, "pitch": 65, "duration": 2, "velocity": 81}, {"time": 496, "pitch": 68, "duration": 2, "velocity": 81}, {"time": 496, "pitch": 72, "duration": 2, "velocity": 81}, {"time": 508, "pitch": 37, "duration": 19, "velocity": 80}, {"time": 508, "pitch": 49, "duration": 19, "velocity": 80}, {"time": 508, "pitch": 61, "duration": 6, "velocity": 69}, {"time": 508, "pitch": 65, "duration": 6, "velocity": 77}, {"time": 514, "pitch": 56, "duration": 13, "velocity": 68}, {"time": 520, "pitch": 61, "duration": 6, "velocity": 82}, {"time": 526, "pitch": 65, "duration": 2, "velocity": 83}, {"time": 532, "pitch": 39, "duration": 17, "velocity": 82}, {"time": 532, "pitch": 51, "duration": 17, "velocity": 82}, {"time": 532, "pitch": 63, "duration": 5, "velocity": 72}, {"time": 532, "pitch": 67, "duration": 5, "velocity": 72}, {"time": 538, "pitch": 58, "duration": 11, "velocity": 65}, {"time": 544, "pitch": 63, "duration": 2, "velocity": 73}, {"time": 544, "pitch": 67, "duration": 4, "velocity": 76}, {"time": 544, "pitch": 70, "duration": 5, "velocity": 76}, {"time": 556, "pitch": 44, "duration": 11, "velocity": 82}, {"time": 556, "pitch": 56, "duration": 11, "velocity": 82}, {"time": 556, "pitch": 63, "duration": 8, "velocity": 76}, {"time": 556, "pitch": 68, "duration": 8, "velocity": 77}, {"time": 562, "pitch": 60, "duration": 6, "velocity": 66}, {"time": 568, "pitch": 63, "duration": 5, "velocity": 80}, {"time": 568, "pitch": 68, "duration": 12, "velocity": 80}, {"time": 574, "pitch": 34, "duration": 2, "velocity": 81}, {"time": 574, "pitch": 46, "duration": 2, "velocity": 81}, {"time": 580, "pitch": 36, "duration": 13, "velocity": 85}, {"time": 580, "pitch": 48, "duration": 13, "velocity": 85}, {"time": 586, "pitch": 60, "duration": 4, "velocity": 81}, {"time": 592, "pitch": 60, "duration": 3, "velocity": 80}, {"time": 592, "pitch": 64, "duration": 6, "velocity": 82}, {"time": 592, "pitch": 67, "duration": 7, "velocity": 81}, {"time": 598, "pitch": 60, "duration": 3, "velocity": 83}, {"time": 604, "pitch": 41, "duration": 14, "velocity": 85}, {"time": 604, "pitch": 53, "duration": 14, "velocity": 85}, {"time": 604, "pitch": 60, "duration": 3, "velocity": 80}, {"time": 604, "pitch": 65, "duration": 7, "velocity": 82}, {"time": 610, "pitch": 60, "duration": 2, "velocity": 72}, {"time": 616, "pitch": 60, "duration": 6, "velocity": 81}, {"time": 616, "pitch": 65, "duration": 10, "velocity": 82}, {"time": 616, "pitch": 68, "duration": 11, "velocity": 80}, {"time": 622, "pitch": 39, "duration": 3, "velocity": 86}, {"time": 622, "pitch": 51, "duration": 3, "velocity": 86}, {"time": 628, "pitch": 37, "duration": 21, "velocity": 85}, {"time": 628, "pitch": 49, "duration": 21, "velocity": 85}, {"time": 628, "pitch": 61, "duration": 6, "velocity": 79}, {"time": 628, "pitch": 65, "duration": 7, "velocity": 81}, {"time": 634, "pitch": 56, "duration": 14, "velocity": 74}, {"time": 640, "pitch": 61, "duration": 2, "velocity": 81}, {"time": 640, "pitch": 65, "duration": 11, "velocity": 89}, {"time": 640, "pitch": 68, "duration": 11, "velocity": 84}, {"time": 646, "pitch": 61, "duration": 5, "velocity": 72}, {"time": 652, "pitch": 32, "duration": 16, "velocity": 81}, {"time": 652, "pitch": 44, "duration": 16, "velocity": 81}, {"time": 652, "pitch": 56, "duration": 8, "velocity": 81}, {"time": 652, "pitch": 63, "duration": 8, "velocity": 82}, {"time": 658, "pitch": 39, "duration": 9, "velocity": 76}, {"time": 658, "pitch": 51, "duration": 9, "velocity": 76}, {"time": 664, "pitch": 56, "duration": 1, "velocity": 68}, {"time": 664, "pitch": 60, "duration": 11, "velocity": 81}, {"time": 664, "pitch": 63, "duration": 11, "velocity": 80}, {"time": 664, "pitch": 68, "duration": 11, "velocity": 70}, {"time": 670, "pitch": 37, "duration": 5, "velocity": 94}, {"time": 670, "pitch": 49, "duration": 5, "velocity": 94}, {"time": 676, "pitch": 39, "duration": 20, "velocity": 81}, {"time": 676, "pitch": 51, "duration": 20, "velocity": 81}, {"time": 676, "pitch": 63, "duration": 8, "velocity": 81}, {"time": 676, "pitch": 67, "duration": 9, "velocity": 80}, {"time": 682, "pitch": 58, "duration": 8, "velocity": 71}, {"time": 688, "pitch": 63, "duration": 4, "velocity": 80}, {"time": 694, "pitch": 58, "duration": 3, "velocity": 80}, {"time": 700, "pitch": 36, "duration": 21, "velocity": 80}, {"time": 700, "pitch": 48, "duration": 21, "velocity": 80}, {"time": 700, "pitch": 60, "duration": 7, "velocity": 76}, {"time": 700, "pitch": 63, "duration": 7, "velocity": 80}, {"time": 706, "pitch": 55, "duration": 14, "velocity": 46}, {"time": 712, "pitch": 60, "duration": 3, "velocity": 81}, {"time": 712, "pitch": 63, "duration": 3, "velocity": 87}, {"time": 712, "pitch": 67, "duration": 5, "velocity": 85}, {"time": 718, "pitch": 60, "duration": 2, "velocity": 67}, {"time": 724, "pitch": 36, "duration": 18, "velocity": 80}, {"time": 724, "pitch": 48, "duration": 18, "velocity": 80}, {"time": 724, "pitch": 60, "duration": 8, "velocity": 75}, {"time": 724, "pitch": 63, "duration": 8, "velocity": 74}, {"time": 730, "pitch": 55, "duration": 9, "velocity": 59}, {"time": 736, "pitch": 60, "duration": 2, "velocity": 81}, {"time": 736, "pitch": 63, "duration": 7, "velocity": 91}, {"time": 736, "pitch": 67, "duration": 7, "velocity": 86}, {"time": 742, "pitch": 60, "duration": 3, "velocity": 77}, {"time": 748, "pitch": 41, "duration": 18, "velocity": 79}, {"time": 748, "pitch": 53, "duration": 18, "velocity": 79}, {"time": 748, "pitch": 60, "duration": 4, "velocity": 80}, {"time": 748, "pitch": 65, "duration": 8, "velocity": 82}, {"time": 760, "pitch": 60, "duration": 2, "velocity": 81}, {"time": 760, "pitch": 65, "duration": 8, "velocity": 87}, {"time": 760, "pitch": 68, "duration": 7, "velocity": 82}, {"time": 766, "pitch": 46, "duration": 6, "velocity": 80}, {"time": 766, "pitch": 60, "duration": 4, "velocity": 74}, {"time": 772, "pitch": 48, "duration": 12, "velocity": 79}, {"time": 778, "pitch": 60, "duration": 2, "velocity": 74}, {"time": 784, "pitch": 60, "duration": 3, "velocity": 85}, {"time": 784, "pitch": 65, "duration": 12, "velocity": 89}, {"time": 784, "pitch": 68, "duration": 12, "velocity": 83}, {"time": 790, "pitch": 39, "duration": 5, "velocity": 91}, {"time": 790, "pitch": 51, "duration": 5, "velocity": 91}, {"time": 796, "pitch": 41, "duration": 16, "velocity": 86}, {"time": 796, "pitch": 53, "duration": 16, "velocity": 86}, {"time": 796, "pitch": 60, "duration": 4, "velocity": 75}, {"time": 796, "pitch": 65, "duration": 1, "velocity": 79}, {"time": 802, "pitch": 60, "duration": 3, "velocity": 68}, {"time": 808, "pitch": 60, "duration": 2, "velocity": 81}, {"time": 808, "pitch": 65, "duration": 7, "velocity": 89}, {"time": 808, "pitch": 68, "duration": 8, "velocity": 82}, {"time": 814, "pitch": 60, "duration": 2, "velocity": 75}, {"time": 820, "pitch": 37, "duration": 16, "velocity": 82}, {"time": 820, "pitch": 49, "duration": 16, "velocity": 82}, {"time": 820, "pitch": 61, "duration": 5, "velocity": 71}, {"time": 820, "pitch": 65, "duration": 5, "velocity": 78}, {"time": 820, "pitch": 68, "duration": 5, "velocity": 74}, {"time": 826, "pitch": 56, "duration": 9, "velocity": 67}, {"time": 832, "pitch": 61, "duration": 2, "velocity": 82}, {"time": 832, "pitch": 68, "duration": 2, "velocity": 81}, {"time": 844, "pitch": 39, "duration": 18, "velocity": 81}, {"time": 844, "pitch": 51, "duration": 18, "velocity": 81}, {"time": 844, "pitch": 63, "duration": 4, "velocity": 74}, {"time": 844, "pitch": 67, "duration": 5, "velocity": 76}, {"time": 850, "pitch": 58, "duration": 14, "velocity": 65}, {"time": 856, "pitch": 63, "duration": 2, "velocity": 71}, {"time": 856, "pitch": 67, "duration": 4, "velocity": 82}, {"time": 856, "pitch": 70, "duration": 9, "velocity": 80}, {"time": 862, "pitch": 63, "duration": 3, "velocity": 72}, {"time": 868, "pitch": 41, "duration": 13, "velocity": 82}, {"time": 868, "pitch": 53, "duration": 13, "velocity": 82}, {"time": 868, "pitch": 65, "duration": 6, "velocity": 76}, {"time": 868, "pitch": 68, "duration": 6, "velocity": 70}, {"time": 874, "pitch": 60, "duration": 7, "velocity": 66}, {"time": 880, "pitch": 65, "duration": 2, "velocity": 81}, {"time": 880, "pitch": 68, "duration": 2, "velocity": 81}, {"time": 880, "pitch": 72, "duration": 2, "velocity": 81}, {"time": 892, "pitch": 37, "duration": 19, "velocity": 80}, {"time": 892, "pitch": 49, "duration": 19, "velocity": 80}, {"time": 892, "pitch": 61, "duration": 6, "velocity": 69}, {"time": 892, "pitch": 65, "duration": 6, "velocity": 77}, {"time": 898, "pitch": 56, "duration": 13, "velocity": 68}, {"time": 904, "pitch": 61, "duration": 6, "velocity": 82}, {"time": 910, "pitch": 65, "duration": 2, "velocity": 83}, {"time": 916, "pitch": 39, "duration": 17, "velocity": 82}, {"time": 916, "pitch": 51, "duration": 17, "velocity": 82}, {"time": 916, "pitch": 63, "duration": 5, "velocity": 72}, {"time": 916, "pitch": 67, "duration": 5, "velocity": 72}, {"time": 922, "pitch": 58, "duration": 11, "velocity": 65}, {"time": 928, "pitch": 63, "duration": 2, "velocity": 73}, {"time": 928, "pitch": 67, "duration": 4, "velocity": 76}, {"time": 928, "pitch": 70, "duration": 5, "velocity": 76}, {"time": 940, "pitch": 44, "duration": 11, "velocity": 82}, {"time": 940, "pitch": 56, "duration": 11, "velocity": 82}, {"time": 940, "pitch": 63, "duration": 8, "velocity": 76}, {"time": 940, "pitch": 68, "duration": 8, "velocity": 77}, {"time": 946, "pitch": 60, "duration": 6, "velocity": 66}, {"time": 952, "pitch": 63, "duration": 5, "velocity": 80}, {"time": 952, "pitch": 68, "duration": 12, "velocity": 80}, {"time": 958, "pitch": 34, "duration": 2, "velocity": 81}, {"time": 958, "pitch": 46, "duration": 2, "velocity": 81}, {"time": 964, "pitch": 36, "duration": 13, "velocity": 85}, {"time": 964, "pitch": 48, "duration": 13, "velocity": 85}, {"time": 970, "pitch": 60, "duration": 4, "velocity": 81}, {"time": 976, "pitch": 60, "duration": 3, "velocity": 80}, {"time": 976, "pitch": 64, "duration": 6, "velocity": 82}, {"time": 976, "pitch": 67, "duration": 7, "velocity": 81}, {"time": 982, "pitch": 60, "duration": 3, "velocity": 83}, {"time": 988, "pitch": 41, "duration": 14, "velocity": 85}, {"time": 988, "pitch": 53, "duration": 14, "velocity": 85}, {"time": 988, "pitch": 60, "duration": 3, "velocity": 80}, {"time": 988, "pitch": 65, "duration": 7, "velocity": 82}, {"time": 994, "pitch": 60, "duration": 2, "velocity": 72}, {"time": 1000, "pitch": 60, "duration": 6, "velocity": 81}, {"time": 1000, "pitch": 65, "duration": 10, "velocity": 82}, {"time": 1000, "pitch": 68, "duration": 11, "velocity": 80}, {"time": 1006, "pitch": 39, "duration": 3, "velocity": 86}, {"time": 1006, "pitch": 51, "duration": 3, "velocity": 86}, {"time": 1012, "pitch": 37, "duration": 21, "velocity": 85}, {"time": 1012, "pitch": 49, "duration": 21, "velocity": 85}, {"time": 1012, "pitch": 61, "duration": 6, "velocity": 79}, {"time": 1012, "pitch": 65, "duration": 7, "velocity": 81}, {"time": 1018, "pitch": 56, "duration": 14, "velocity": 74}, {"time": 1024, "pitch": 61, "duration": 2, "velocity": 81}, {"time": 1024, "pitch": 65, "duration": 11, "velocity": 89}, {"time": 1024, "pitch": 68, "duration": 11, "velocity": 84}, {"time": 1030, "pitch": 61, "duration": 5, "velocity": 72}, {"time": 1036, "pitch": 32, "duration": 16, "velocity": 81}, {"time": 1036, "pitch": 44, "duration": 16, "velocity": 81}, {"time": 1036, "pitch": 56, "duration": 8, "velocity": 81}, {"time": 1036, "pitch": 63, "duration": 8, "velocity": 82}, {"time": 1042, "pitch": 39, "duration": 9, "velocity": 76}, {"time": 1042, "pitch": 51, "duration": 9, "velocity": 76}, {"time": 1048, "pitch": 56, "duration": 1, "velocity": 68}, {"time": 1048, "pitch": 60, "duration": 11, "velocity": 81}, {"time": 1048, "pitch": 63, "duration": 11, "velocity": 80}, {"time": 1048, "pitch": 68, "duration": 11, "velocity": 70}, {"time": 1054, "pitch": 37, "duration": 5, "velocity": 94}, {"time": 1054, "pitch": 49, "duration": 5, "velocity": 94}, {"time": 1060, "pitch": 39, "duration": 20, "velocity": 81}, {"time": 1060, "pitch": 51, "duration": 20, "velocity": 81}, {"time": 1060, "pitch": 63, "duration": 8, "velocity": 81}, {"time": 1060, "pitch": 67, "duration": 9, "velocity": 80}, {"time": 1066, "pitch": 58, "duration": 8, "velocity": 71}, {"time": 1072, "pitch": 63, "duration": 4, "velocity": 80}, {"time": 1078, "pitch": 58, "duration": 3, "velocity": 80}, {"time": 1084, "pitch": 36, "duration": 21, "velocity": 80}, {"time": 1084, "pitch": 48, "duration": 21, "velocity": 80}, {"time": 1084, "pitch": 60, "duration": 7, "velocity": 76}, {"time": 1084, "pitch": 63, "duration": 7, "velocity": 80}, {"time": 1090, "pitch": 55, "duration": 14, "velocity": 46}, {"time": 1096, "pitch": 60, "duration": 3, "velocity": 81}, {"time": 1096, "pitch": 63, "duration": 3, "velocity": 87}, {"time": 1096, "pitch": 67, "duration": 5, "velocity": 85}, {"time": 1102, "pitch": 60, "duration": 2, "velocity": 67}, {"time": 1108, "pitch": 36, "duration": 18, "velocity": 80}, {"time": 1108, "pitch": 48, "duration": 18, "velocity": 80}, {"time": 1108, "pitch": 60, "duration": 8, "velocity": 75}, {"time": 1108, "pitch": 63, "duration": 8, "velocity": 74}, {"time": 1114, "pitch": 55, "duration": 9, "velocity": 59}, {"time": 1120, "pitch": 60, "duration": 2, "velocity": 81}, {"time": 1120, "pitch": 63, "duration": 7, "velocity": 91}, {"time": 1120, "pitch": 67, "duration": 7, "velocity": 86}, {"time": 1126, "pitch": 60, "duration": 3, "velocity": 77}, {"time": 1132, "pitch": 41, "duration": 18, "velocity": 79}, {"time": 1132, "pitch": 53, "duration": 18, "velocity": 79}, {"time": 1132, "pitch": 60, "duration": 4, "velocity": 80}, {"time": 1132, "pitch": 65, "duration": 8, "velocity": 82}, {"time": 1144, "pitch": 60, "duration": 2, "velocity": 81}, {"time": 1144, "pitch": 65, "duration": 8, "velocity": 87}, {"time": 1144, "pitch": 68, "duration": 7, "velocity": 82}, {"time": 1150, "pitch": 46, "duration": 6, "velocity": 80}, {"time": 1150, "pitch": 60, "duration": 4, "velocity": 74}, {"time": 1156, "pitch": 48, "duration": 12, "velocity": 79}, {"time": 1162, "pitch": 60, "duration": 2, "velocity": 74}, {"time": 1168, "pitch": 60, "duration": 3, "velocity": 85}, {"time": 1168, "pitch": 65, "duration": 12, "velocity": 89}, {"time": 1168, "pitch": 68, "duration": 12, "velocity": 83}, {"time": 1174, "pitch": 39, "duration": 5, "velocity": 91}, {"time": 1174, "pitch": 51, "duration": 5, "velocity": 91}, {"time": 1180, "pitch": 41, "duration": 11, "velocity": 76}, {"time": 1180, "pitch": 53, "duration": 8, "velocity": 81}, {"time": 1180, "pitch": 60, "duration": 4, "velocity": 72}, {"time": 1180, "pitch": 65, "duration": 1, "velocity": 75}, {"time": 1180, "pitch": 68, "duration": 1, "velocity": 74}, {"time": 1186, "pitch": 60, "duration": 2, "velocity": 68}, {"time": 1186, "pitch": 65, "duration": 2, "velocity": 72}, {"time": 1186, "pitch": 68, "duration": 2, "velocity": 71}, {"time": 1192, "pitch": 60, "duration": 2, "velocity": 72}, {"time": 1192, "pitch": 65, "duration": 2, "velocity": 76}, {"time": 1192, "pitch": 68, "duration": 2, "velocity": 74}, {"time": 1198, "pitch": 48, "duration": 5, "velocity": 83}, {"time": 1198, "pitch": 60, "duration": 1, "velocity": 67}, {"time": 1198, "pitch": 60, "duration": 1, "velocity": 80}, {"time": 1198, "pitch": 65, "duration": 1, "velocity": 69}, {"time": 1198, "pitch": 68, "duration": 2, "velocity": 72}, {"time": 1204, "pitch": 49, "duration": 9, "velocity": 82}, {"time": 1204, "pitch": 61, "duration": 3, "velocity": 74}, {"time": 1204, "pitch": 61, "duration": 3, "velocity": 81}, {"time": 1204, "pitch": 65, "duration": 3, "velocity": 77}, {"time": 1204, "pitch": 68, "duration": 3, "velocity": 76}, {"time": 1210, "pitch": 61, "duration": 2, "velocity": 68}, {"time": 1210, "pitch": 65, "duration": 2, "velocity": 74}, {"time": 1210, "pitch": 68, "duration": 2, "velocity": 68}, {"time": 1216, "pitch": 61, "duration": 2, "velocity": 75}, {"time": 1216, "pitch": 65, "duration": 2, "velocity": 79}, {"time": 1216, "pitch": 68, "duration": 2, "velocity": 79}, {"time": 1222, "pitch": 61, "duration": 2, "velocity": 70}, {"time": 1222, "pitch": 65, "duration": 2, "velocity": 75}, {"time": 1222, "pitch": 68, "duration": 2, "velocity": 73}, {"time": 1228, "pitch": 39, "duration": 10, "velocity": 82}, {"time": 1228, "pitch": 51, "duration": 9, "velocity": 82}, {"time": 1228, "pitch": 63, "duration": 4, "velocity": 77}, {"time": 1228, "pitch": 67, "duration": 4, "velocity": 80}, {"time": 1234, "pitch": 63, "duration": 2, "velocity": 69}, {"time": 1234, "pitch": 67, "duration": 2, "velocity": 70}, {"time": 1240, "pitch": 63, "duration": 2, "velocity": 75}, {"time": 1240, "pitch": 67, "duration": 2, "velocity": 75}, {"time": 1246, "pitch": 39, "duration": 4, "velocity": 81}, {"time": 1246, "pitch": 51, "duration": 5, "velocity": 75}, {"time": 1246, "pitch": 63, "duration": 3, "velocity": 75}, {"time": 1246, "pitch": 67, "duration": 3, "velocity": 75}, {"time": 1252, "pitch": 41, "duration": 13, "velocity": 81}, {"time": 1252, "pitch": 53, "duration": 13, "velocity": 80}, {"time": 1252, "pitch": 60, "duration": 3, "velocity": 74}, {"time": 1252, "pitch": 65, "duration": 3, "velocity": 76}, {"time": 1252, "pitch": 68, "duration": 3, "velocity": 74}, {"time": 1258, "pitch": 60, "duration": 2, "velocity": 67}, {"time": 1258, "pitch": 65, "duration": 2, "velocity": 69}, {"time": 1258, "pitch": 68, "duration": 2, "velocity": 69}, {"time": 1264, "pitch": 60, "duration": 3, "velocity": 81}, {"time": 1264, "pitch": 65, "duration": 3, "velocity": 83}, {"time": 1264, "pitch": 68, "duration": 3, "velocity": 81}, {"time": 1270, "pitch": 60, "duration": 3, "velocity": 80}, {"time": 1270, "pitch": 65, "duration": 3, "velocity": 81}, {"time": 1270, "pitch": 68, "duration": 3, "velocity": 78}, {"time": 1276, "pitch": 37, "duration": 8, "velocity": 79}, {"time": 1276, "pitch": 49, "duration": 7, "velocity": 80}, {"time": 1276, "pitch": 61, "duration": 2, "velocity": 74}, {"time": 1276, "pitch": 65, "duration": 2, "velocity": 75}, {"time": 1276, "pitch": 68, "duration": 2, "velocity": 74}, {"time": 1282, "pitch": 61, "duration": 2, "velocity": 71}, {"time": 1282, "pitch": 65, "duration": 1, "velocity": 75}, {"time": 1282, "pitch": 68, "duration": 2, "velocity": 72}, {"time": 1288, "pitch": 61, "duration": 2, "velocity": 74}, {"time": 1288, "pitch": 65, "duration": 2, "velocity": 76}, {"time": 1288, "pitch": 68, "duration": 2, "velocity": 74}, {"time": 1294, "pitch": 37, "duration": 4, "velocity": 69}, {"time": 1294, "pitch": 49, "duration": 4, "velocity": 76}, {"time": 1294, "pitch": 61, "duration": 2, "velocity": 72}, {"time": 1294, "pitch": 65, "duration": 2, "velocity": 76}, {"time": 1294, "pitch": 68, "duration": 3, "velocity": 74}, {"time": 1300, "pitch": 39, "duration": 10, "velocity": 76}, {"time": 1300, "pitch": 51, "duration": 9, "velocity": 80}, {"time": 1300, "pitch": 63, "duration": 4, "velocity": 75}, {"time": 1300, "pitch": 67, "duration": 5, "velocity": 79}, {"time": 1306, "pitch": 63, "duration": 2, "velocity": 71}, {"time": 1306, "pitch": 67, "duration": 2, "velocity": 72}, {"time": 1312, "pitch": 63, "duration": 3, "velocity": 81}, {"time": 1312, "pitch": 67, "duration": 3, "velocity": 84}, {"time": 1318, "pitch": 63, "duration": 2, "velocity": 70}, {"time": 1318, "pitch": 67, "duration": 3, "velocity": 77}, {"time": 1324, "pitch": 44, "duration": 8, "velocity": 75}, {"time": 1324, "pitch": 56, "duration": 8, "velocity": 75}, {"time": 1324, "pitch": 60, "duration": 5, "velocity": 70}, {"time": 1324, "pitch": 63, "duration": 4, "velocity": 72}, {"time": 1324, "pitch": 68, "duration": 5, "velocity": 74}, {"time": 1330, "pitch": 60, "duration": 2, "velocity": 67}, {"time": 1330, "pitch": 63, "duration": 2, "velocity": 75}, {"time": 1330, "pitch": 68, "duration": 1, "velocity": 68}, {"time": 1336, "pitch": 60, "duration": 2, "velocity": 69}, {"time": 1336, "pitch": 63, "duration": 2, "velocity": 70}, {"time": 1336, "pitch": 68, "duration": 2, "velocity": 65}, {"time": 1342, "pitch": 46, "duration": 4, "velocity": 73}, {"time": 1342, "pitch": 58, "duration": 5, "velocity": 69}, {"time": 1342, "pitch": 60, "duration": 2, "velocity": 65}, {"time": 1342, "pitch": 63, "duration": 1, "velocity": 63}, {"time": 1342, "pitch": 68, "duration": 2, "velocity": 69}, {"time": 1348, "pitch": 48, "duration": 10, "velocity": 82}, {"time": 1348, "pitch": 60, "duration": 4, "velocity": 75}, {"time": 1348, "pitch": 64, "duration": 4, "velocity": 78}, {"time": 1348, "pitch": 67, "duration": 4, "velocity": 78}, {"time": 1354, "pitch": 60, "duration": 2, "velocity": 63}, {"time": 1354, "pitch": 64, "duration": 2, "velocity": 69}, {"time": 1354, "pitch": 67, "duration": 2, "velocity": 68}, {"time": 1360, "pitch": 60, "duration": 1, "velocity": 75}, {"time": 1360, "pitch": 64, "duration": 2, "velocity": 73}, {"time": 1360, "pitch": 67, "duration": 3, "velocity": 74}, {"time": 1366, "pitch": 60, "duration": 3, "velocity": 76}, {"time": 1366, "pitch": 64, "duration": 2, "velocity": 76}, {"time": 1366, "pitch": 67, "duration": 3, "velocity": 75}, {"time": 1372, "pitch": 41, "duration": 12, "velocity": 80}, {"time": 1372, "pitch": 53, "duration": 11, "velocity": 71}, {"time": 1372, "pitch": 60, "duration": 5, "velocity": 73}, {"time": 1372, "pitch": 65, "duration": 5, "velocity": 65}, {"time": 1372, "pitch": 68, "duration": 5, "velocity": 56}, {"time": 1378, "pitch": 60, "duration": 2, "velocity": 65}, {"time": 1378, "pitch": 65, "duration": 2, "velocity": 71}, {"time": 1378, "pitch": 68, "duration": 2, "velocity": 70}, {"time": 1384, "pitch": 60, "duration": 3, "velocity": 73}, {"time": 1384, "pitch": 65, "duration": 3, "velocity": 79}, {"time": 1384, "pitch": 68, "duration": 3, "velocity": 75}, {"time": 1390, "pitch": 39, "duration": 4, "velocity": 73}, {"time": 1390, "pitch": 51, "duration": 5, "velocity": 75}, {"time": 1390, "pitch": 60, "duration": 2, "velocity": 71}, {"time": 1390, "pitch": 65, "duration": 2, "velocity": 74}, {"time": 1390, "pitch": 68, "duration": 2, "velocity": 70}, {"time": 1396, "pitch": 37, "duration": 11, "velocity": 74}, {"time": 1396, "pitch": 49, "duration": 11, "velocity": 79}, {"time": 1396, "pitch": 61, "duration": 4, "velocity": 72}, {"time": 1396, "pitch": 65, "duration": 4, "velocity": 77}, {"time": 1396, "pitch": 68, "duration": 4, "velocity": 75}, {"time": 1402, "pitch": 61, "duration": 2, "velocity": 67}, {"time": 1402, "pitch": 65, "duration": 2, "velocity": 74}, {"time": 1402, "pitch": 68, "duration": 2, "velocity": 69}, {"time": 1408, "pitch": 61, "duration": 9, "velocity": 80}, {"time": 1408, "pitch": 65, "duration": 8, "velocity": 83}, {"time": 1408, "pitch": 68, "duration": 9, "velocity": 81}, {"time": 1420, "pitch": 44, "duration": 11, "velocity": 81}, {"time": 1420, "pitch": 56, "duration": 11, "velocity": 76}, {"time": 1420, "pitch": 63, "duration": 4, "velocity": 76}, {"time": 1420, "pitch": 68, "duration": 4, "velocity": 73}, {"time": 1420, "pitch": 72, "duration": 4, "velocity": 80}, {"time": 1426, "pitch": 63, "duration": 2, "velocity": 68}, {"time": 1426, "pitch": 68, "duration": 2, "velocity": 72}, {"time": 1426, "pitch": 72, "duration": 2, "velocity": 72}, {"time": 1432, "pitch": 63, "duration": 2, "velocity": 80}, {"time": 1432, "pitch": 68, "duration": 3, "velocity": 80}, {"time": 1432, "pitch": 72, "duration": 3, "velocity": 81}, {"time": 1438, "pitch": 44, "duration": 4, "velocity": 74}, {"time": 1438, "pitch": 56, "duration": 6, "velocity": 75}, {"time": 1438, "pitch": 63, "duration": 3, "velocity": 75}, {"time": 1438, "pitch": 68, "duration": 2, "velocity": 75}, {"time": 1438, "pitch": 72, "duration": 3, "velocity": 78}, {"time": 1444, "pitch": 39, "duration": 11, "velocity": 70}, {"time": 1444, "pitch": 51, "duration": 11, "velocity": 72}, {"time": 1444, "pitch": 63, "duration": 2, "velocity": 65}, {"time": 1444, "pitch": 67, "duration": 3, "velocity": 68}, {"time": 1450, "pitch": 63, "duration": 2, "velocity": 72}, {"time": 1450, "pitch": 67, "duration": 2, "velocity": 74}, {"time": 1456, "pitch": 63, "duration": 10, "velocity": 80}, {"time": 1456, "pitch": 67, "duration": 10, "velocity": 85}, {"time": 1468, "pitch": 48, "duration": 14, "velocity": 77}, {"time": 1468, "pitch": 60, "duration": 3, "velocity": 74}, {"time": 1468, "pitch": 60, "duration": 3, "velocity": 75}, {"time": 1468, "pitch": 63, "duration": 3, "velocity": 81}, {"time": 1468, "pitch": 67, "duration": 3, "velocity": 78}, {"time": 1474, "pitch": 60, "duration": 1, "velocity": 58}, {"time": 1474, "pitch": 63, "duration": 2, "velocity": 67}, {"time": 1474, "pitch": 67, "duration": 2, "velocity": 63}, {"time": 1480, "pitch": 60, "duration": 1, "velocity": 65}, {"time": 1480, "pitch": 63, "duration": 2, "velocity": 73}, {"time": 1480, "pitch": 67, "duration": 2, "velocity": 68}, {"time": 1486, "pitch": 46, "duration": 4, "velocity": 76}, {"time": 1486, "pitch": 58, "duration": 5, "velocity": 73}, {"time": 1486, "pitch": 60, "duration": 2, "velocity": 61}, {"time": 1486, "pitch": 63, "duration": 2, "velocity": 68}, {"time": 1486, "pitch": 67, "duration": 2, "velocity": 66}, {"time": 1492, "pitch": 48, "duration": 6, "velocity": 84}, {"time": 1492, "pitch": 60, "duration": 6, "velocity": 80}, {"time": 1492, "pitch": 60, "duration": 6, "velocity": 81}, {"time": 1492, "pitch": 67, "duration": 18, "velocity": 82}, {"time": 1516, "pitch": 41, "duration": 11, "velocity": 79}, {"time": 1516, "pitch": 53, "duration": 10, "velocity": 81}, {"time": 1516, "pitch": 60, "duration": 10, "velocity": 77}, {"time": 1516, "pitch": 65, "duration": 9, "velocity": 81}, {"time": 1528, "pitch": 65, "duration": 2, "velocity": 78}, {"time": 1528, "pitch": 68, "duration": 2, "velocity": 74}, {"time": 1534, "pitch": 39, "duration": 6, "velocity": 75}, {"time": 1534, "pitch": 51, "duration": 6, "velocity": 78}, {"time": 1534, "pitch": 60, "duration": 3, "velocity": 64}, {"time": 1534, "pitch": 65, "duration": 3, "velocity": 68}, {"time": 1534, "pitch": 68, "duration": 2, "velocity": 67}, {"time": 1540, "pitch": 41, "duration": 15, "velocity": 80}, {"time": 1540, "pitch": 53, "duration": 15, "velocity": 80}, {"time": 1540, "pitch": 60, "duration": 2, "velocity": 66}, {"time": 1540, "pitch": 65, "duration": 2, "velocity": 66}, {"time": 1540, "pitch": 68, "duration": 2, "velocity": 66}, {"time": 1546, "pitch": 60, "duration": 2, "velocity": 66}, {"time": 1546, "pitch": 65, "duration": 2, "velocity": 70}, {"time": 1546, "pitch": 68, "duration": 2, "velocity": 69}, {"time": 1552, "pitch": 60, "duration": 9, "velocity": 80}, {"time": 1552, "pitch": 65, "duration": 8, "velocity": 85}, {"time": 1552, "pitch": 68, "duration": 8, "velocity": 80}, {"time": 1564, "pitch": 41, "duration": 11, "velocity": 76}, {"time": 1564, "pitch": 53, "duration": 8, "velocity": 81}, {"time": 1564, "pitch": 60, "duration": 4, "velocity": 72}, {"time": 1564, "pitch": 65, "duration": 3, "velocity": 75}, {"time": 1564, "pitch": 68, "duration": 4, "velocity": 74}, {"time": 1570, "pitch": 60, "duration": 2, "velocity": 68}, {"time": 1570, "pitch": 65, "duration": 2, "velocity": 72}, {"time": 1570, "pitch": 68, "duration": 2, "velocity": 71}, {"time": 1576, "pitch": 60, "duration": 2, "velocity": 72}, {"time": 1576, "pitch": 65, "duration": 2, "velocity": 76}, {"time": 1576, "pitch": 68, "duration": 2, "velocity": 74}, {"time": 1582, "pitch": 48, "duration": 5, "velocity": 83}, {"time": 1582, "pitch": 60, "duration": 1, "velocity": 67}, {"time": 1582, "pitch": 60, "duration": 1, "velocity": 80}, {"time": 1582, "pitch": 65, "duration": 1, "velocity": 69}, {"time": 1582, "pitch": 68, "duration": 2, "velocity": 72}, {"time": 1588, "pitch": 49, "duration": 9, "velocity": 82}, {"time": 1588, "pitch": 61, "duration": 3, "velocity": 74}, {"time": 1588, "pitch": 61, "duration": 3, "velocity": 81}, {"time": 1588, "pitch": 65, "duration": 3, "velocity": 77}, {"time": 1588, "pitch": 68, "duration": 3, "velocity": 76}, {"time": 1594, "pitch": 61, "duration": 2, "velocity": 68}, {"time": 1594, "pitch": 65, "duration": 2, "velocity": 74}, {"time": 1594, "pitch": 68, "duration": 2, "velocity": 68}, {"time": 1600, "pitch": 61, "duration": 2, "velocity": 75}, {"time": 1600, "pitch": 65, "duration": 2, "velocity": 79}, {"time": 1600, "pitch": 68, "duration": 2, "velocity": 79}, {"time": 1606, "pitch": 61, "duration": 2, "velocity": 70}, {"time": 1606, "pitch": 65, "duration": 2, "velocity": 75}, {"time": 1606, "pitch": 68, "duration": 2, "velocity": 73}, {"time": 1612, "pitch": 39, "duration": 10, "velocity": 82}, {"time": 1612, "pitch": 51, "duration": 9, "velocity": 82}, {"time": 1612, "pitch": 63, "duration": 4, "velocity": 77}, {"time": 1612, "pitch": 67, "duration": 4, "velocity": 80}, {"time": 1618, "pitch": 63, "duration": 2, "velocity": 69}, {"time": 1618, "pitch": 67, "duration": 2, "velocity": 70}, {"time": 1624, "pitch": 63, "duration": 2, "velocity": 75}, {"time": 1624, "pitch": 67, "duration": 2, "velocity": 75}, {"time": 1630, "pitch": 39, "duration": 4, "velocity": 81}, {"time": 1630, "pitch": 51, "duration": 5, "velocity": 75}, {"time": 1630, "pitch": 63, "duration": 3, "velocity": 75}, {"time": 1630, "pitch": 67, "duration": 3, "velocity": 75}, {"time": 1636, "pitch": 41, "duration": 13, "velocity": 81}, {"time": 1636, "pitch": 53, "duration": 13, "velocity": 80}, {"time": 1636, "pitch": 60, "duration": 3, "velocity": 74}, {"time": 1636, "pitch": 65, "duration": 3, "velocity": 76}, {"time": 1636, "pitch": 68, "duration": 3, "velocity": 74}, {"time": 1642, "pitch": 60, "duration": 2, "velocity": 67}, {"time": 1642, "pitch": 65, "duration": 2, "velocity": 69}, {"time": 1642, "pitch": 68, "duration": 2, "velocity": 69}, {"time": 1648, "pitch": 60, "duration": 3, "velocity": 81}, {"time": 1648, "pitch": 65, "duration": 3, "velocity": 83}, {"time": 1648, "pitch": 68, "duration": 3, "velocity": 81}, {"time": 1654, "pitch": 60, "duration": 3, "velocity": 80}, {"time": 1654, "pitch": 65, "duration": 3, "velocity": 81}, {"time": 1654, "pitch": 68, "duration": 3, "velocity": 78}, {"time": 1660, "pitch": 37, "duration": 8, "velocity": 79}, {"time": 1660, "pitch": 49, "duration": 7, "velocity": 80}, {"time": 1660, "pitch": 61, "duration": 2, "velocity": 74}, {"time": 1660, "pitch": 65, "duration": 2, "velocity": 75}, {"time": 1660, "pitch": 68, "duration": 2, "velocity": 74}, {"time": 1666, "pitch": 61, "duration": 2, "velocity": 71}, {"time": 1666, "pitch": 65, "duration": 1, "velocity": 75}, {"time": 1666, "pitch": 68, "duration": 2, "velocity": 72}, {"time": 1672, "pitch": 61, "duration": 2, "velocity": 74}, {"time": 1672, "pitch": 65, "duration": 2, "velocity": 76}, {"time": 1672, "pitch": 68, "duration": 2, "velocity": 74}, {"time": 1678, "pitch": 37, "duration": 4, "velocity": 69}, {"time": 1678, "pitch": 49, "duration": 4, "velocity": 76}, {"time": 1678, "pitch": 61, "duration": 2, "velocity": 72}, {"time": 1678, "pitch": 65, "duration": 2, "velocity": 76}, {"time": 1678, "pitch": 68, "duration": 3, "velocity": 74}, {"time": 1684, "pitch": 39, "duration": 10, "velocity": 76}, {"time": 1684, "pitch": 51, "duration": 9, "velocity": 80}, {"time": 1684, "pitch": 63, "duration": 4, "velocity": 75}, {"time": 1684, "pitch": 67, "duration": 5, "velocity": 79}, {"time": 1690, "pitch": 63, "duration": 2, "velocity": 71}, {"time": 1690, "pitch": 67, "duration": 2, "velocity": 72}, {"time": 1696, "pitch": 63, "duration": 3, "velocity": 81}, {"time": 1696, "pitch": 67, "duration": 3, "velocity": 84}, {"time": 1702, "pitch": 63, "duration": 2, "velocity": 70}, {"time": 1702, "pitch": 67, "duration": 3, "velocity": 77}, {"time": 1708, "pitch": 44, "duration": 8, "velocity": 75}, {"time": 1708, "pitch": 56, "duration": 8, "velocity": 75}, {"time": 1708, "pitch": 60, "duration": 5, "velocity": 70}, {"time": 1708, "pitch": 63, "duration": 4, "velocity": 72}, {"time": 1708, "pitch": 68, "duration": 5, "velocity": 74}, {"time": 1714, "pitch": 60, "duration": 2, "velocity": 67}, {"time": 1714, "pitch": 63, "duration": 2, "velocity": 75}, {"time": 1714, "pitch": 68, "duration": 1, "velocity": 68}, {"time": 1720, "pitch": 60, "duration": 2, "velocity": 69}, {"time": 1720, "pitch": 63, "duration": 2, "velocity": 70}, {"time": 1720, "pitch": 68, "duration": 2, "velocity": 65}, {"time": 1726, "pitch": 46, "duration": 4, "velocity": 73}, {"time": 1726, "pitch": 58, "duration": 5, "velocity": 69}, {"time": 1726, "pitch": 60, "duration": 2, "velocity": 65}, {"time": 1726, "pitch": 63, "duration": 1, "velocity": 63}, {"time": 1726, "pitch": 68, "duration": 2, "velocity": 69}, {"time": 1732, "pitch": 48, "duration": 10, "velocity": 82}, {"time": 1732, "pitch": 60, "duration": 4, "velocity": 75}, {"time": 1732, "pitch": 64, "duration": 4, "velocity": 78}, {"time": 1732, "pitch": 67, "duration": 4, "velocity": 78}, {"time": 1738, "pitch": 60, "duration": 2, "velocity": 63}, {"time": 1738, "pitch": 64, "duration": 2, "velocity": 69}, {"time": 1738, "pitch": 67, "duration": 2, "velocity": 68}, {"time": 1744, "pitch": 60, "duration": 1, "velocity": 75}, {"time": 1744, "pitch": 64, "duration": 2, "velocity": 73}, {"time": 1744, "pitch": 67, "duration": 3, "velocity": 74}, {"time": 1750, "pitch": 60, "duration": 3, "velocity": 76}, {"time": 1750, "pitch": 64, "duration": 2, "velocity": 76}, {"time": 1750, "pitch": 67, "duration": 3, "velocity": 75}, {"time": 1756, "pitch": 41, "duration": 12, "velocity": 80}, {"time": 1756, "pitch": 53, "duration": 11, "velocity": 71}, {"time": 1756, "pitch": 60, "duration": 5, "velocity": 73}, {"time": 1756, "pitch": 65, "duration": 5, "velocity": 65}, {"time": 1756, "pitch": 68, "duration": 5, "velocity": 56}, {"time": 1762, "pitch": 60, "duration": 2, "velocity": 65}, {"time": 1762, "pitch": 65, "duration": 2, "velocity": 71}, {"time": 1762, "pitch": 68, "duration": 2, "velocity": 70}, {"time": 1768, "pitch": 60, "duration": 3, "velocity": 73}, {"time": 1768, "pitch": 65, "duration": 3, "velocity": 79}, {"time": 1768, "pitch": 68, "duration": 3, "velocity": 75}, {"time": 1774, "pitch": 39, "duration": 4, "velocity": 73}, {"time": 1774, "pitch": 51, "duration": 5, "velocity": 75}, {"time": 1774, "pitch": 60, "duration": 2, "velocity": 71}, {"time": 1774, "pitch": 65, "duration": 2, "velocity": 74}, {"time": 1774, "pitch": 68, "duration": 2, "velocity": 70}, {"time": 1780, "pitch": 37, "duration": 11, "velocity": 74}, {"time": 1780, "pitch": 49, "duration": 11, "velocity": 79}, {"time": 1780, "pitch": 61, "duration": 4, "velocity": 72}, {"time": 1780, "pitch": 65, "duration": 4, "velocity": 77}, {"time": 1780, "pitch": 68, "duration": 4, "velocity": 75}, {"time": 1786, "pitch": 61, "duration": 2, "velocity": 67}, {"time": 1786, "pitch": 65, "duration": 2, "velocity": 74}, {"time": 1786, "pitch": 68, "duration": 2, "velocity": 69}, {"time": 1792, "pitch": 61, "duration": 9, "velocity": 80}, {"time": 1792, "pitch": 65, "duration": 8, "velocity": 83}, {"time": 1792, "pitch": 68, "duration": 9, "velocity": 81}, {"time": 1804, "pitch": 44, "duration": 11, "velocity": 81}, {"time": 1804, "pitch": 56, "duration": 11, "velocity": 76}, {"time": 1804, "pitch": 63, "duration": 4, "velocity": 76}, {"time": 1804, "pitch": 68, "duration": 4, "velocity": 73}, {"time": 1804, "pitch": 72, "duration": 4, "velocity": 80}, {"time": 1810, "pitch": 63, "duration": 2, "velocity": 68}, {"time": 1810, "pitch": 68, "duration": 2, "velocity": 72}, {"time": 1810, "pitch": 72, "duration": 2, "velocity": 72}, {"time": 1816, "pitch": 63, "duration": 2, "velocity": 80}, {"time": 1816, "pitch": 68, "duration": 3, "velocity": 80}, {"time": 1816, "pitch": 72, "duration": 3, "velocity": 81}, {"time": 1822, "pitch": 44, "duration": 4, "velocity": 74}, {"time": 1822, "pitch": 56, "duration": 6, "velocity": 75}, {"time": 1822, "pitch": 63, "duration": 3, "velocity": 75}, {"time": 1822, "pitch": 68, "duration": 2, "velocity": 75}, {"time": 1822, "pitch": 72, "duration": 3, "velocity": 78}, {"time": 1828, "pitch": 39, "duration": 11, "velocity": 70}, {"time": 1828, "pitch": 51, "duration": 11, "velocity": 72}, {"time": 1828, "pitch": 63, "duration": 2, "velocity": 65}, {"time": 1828, "pitch": 67, "duration": 3, "velocity": 68}, {"time": 1834, "pitch": 63, "duration": 2, "velocity": 72}, {"time": 1834, "pitch": 67, "duration": 2, "velocity": 74}, {"time": 1840, "pitch": 63, "duration": 10, "velocity": 80}, {"time": 1840, "pitch": 67, "duration": 10, "velocity": 85}, {"time": 1852, "pitch": 48, "duration": 14, "velocity": 77}, {"time": 1852, "pitch": 60, "duration": 3, "velocity": 74}, {"time": 1852, "pitch": 60, "duration": 3, "velocity": 75}, {"time": 1852, "pitch": 63, "duration": 3, "velocity": 81}, {"time": 1852, "pitch": 67, "duration": 3, "velocity": 78}, {"time": 1858, "pitch": 60, "duration": 1, "velocity": 58}, {"time": 1858, "pitch": 63, "duration": 2, "velocity": 67}, {"time": 1858, "pitch": 67, "duration": 2, "velocity": 63}, {"time": 1864, "pitch": 60, "duration": 1, "velocity": 65}, {"time": 1864, "pitch": 63, "duration": 2, "velocity": 73}, {"time": 1864, "pitch": 67, "duration": 2, "velocity": 68}, {"time": 1870, "pitch": 46, "duration": 4, "velocity": 76}, {"time": 1870, "pitch": 58, "duration": 5, "velocity": 73}, {"time": 1870, "pitch": 60, "duration": 2, "velocity": 61}, {"time": 1870, "pitch": 63, "duration": 2, "velocity": 68}, {"time": 1870, "pitch": 67, "duration": 2, "velocity": 66}, {"time": 1876, "pitch": 48, "duration": 6, "velocity": 84}, {"time": 1876, "pitch": 60, "duration": 6, "velocity": 80}, {"time": 1876, "pitch": 60, "duration": 6, "velocity": 81}, {"time": 1876, "pitch": 67, "duration": 18, "velocity": 82}, {"time": 1900, "pitch": 41, "duration": 11, "velocity": 79}, {"time": 1900, "pitch": 53, "duration": 10, "velocity": 81}, {"time": 1900, "pitch": 60, "duration": 10, "velocity": 77}, {"time": 1900, "pitch": 65, "duration": 9, "velocity": 81}, {"time": 1912, "pitch": 65, "duration": 2, "velocity": 78}, {"time": 1912, "pitch": 68, "duration": 2, "velocity": 74}, {"time": 1918, "pitch": 39, "duration": 6, "velocity": 75}, {"time": 1918, "pitch": 51, "duration": 6, "velocity": 78}, {"time": 1918, "pitch": 60, "duration": 3, "velocity": 64}, {"time": 1918, "pitch": 65, "duration": 3, "velocity": 68}, {"time": 1918, "pitch": 68, "duration": 2, "velocity": 67}, {"time": 1924, "pitch": 41, "duration": 15, "velocity": 80}, {"time": 1924, "pitch": 53, "duration": 15, "velocity": 80}, {"time": 1924, "pitch": 60, "duration": 2, "velocity": 66}, {"time": 1924, "pitch": 65, "duration": 2, "velocity": 66}, {"time": 1924, "pitch": 68, "duration": 2, "velocity": 66}, {"time": 1930, "pitch": 60, "duration": 2, "velocity": 66}, {"time": 1930, "pitch": 65, "duration": 2, "velocity": 70}, {"time": 1930, "pitch": 68, "duration": 2, "velocity": 69}, {"time": 1936, "pitch": 60, "duration": 9, "velocity": 80}, {"time": 1936, "pitch": 65, "duration": 8, "velocity": 85}, {"time": 1936, "pitch": 68, "duration": 8, "velocity": 80}, {"time": 1948, "pitch": 41, "duration": 45, "velocity": 81}, {"time": 1948, "pitch": 60, "duration": 4, "velocity": 80}, {"time": 1948, "pitch": 68, "duration": 5, "velocity": 76}, {"time": 1954, "pitch": 48, "duration": 32, "velocity": 68}, {"time": 1960, "pitch": 60, "duration": 2, "velocity": 81}, {"time": 1960, "pitch": 68, "duration": 3, "velocity": 80}, {"time": 1966, "pitch": 60, "duration": 2, "velocity": 80}, {"time": 1972, "pitch": 60, "duration": 9, "velocity": 84}, {"time": 1972, "pitch": 65, "duration": 9, "velocity": 83}, {"time": 1984, "pitch": 60, "duration": 1, "velocity": 80}, {"time": 1984, "pitch": 65, "duration": 7, "velocity": 83}, {"time": 1984, "pitch": 68, "duration": 6, "velocity": 81}, {"time": 1990, "pitch": 60, "duration": 3, "velocity": 70}, {"time": 1996, "pitch": 41, "duration": 26, "velocity": 81}, {"time": 1996, "pitch": 60, "duration": 4, "velocity": 74}, {"time": 1996, "pitch": 65, "duration": 6, "velocity": 77}, {"time": 2002, "pitch": 48, "duration": 19, "velocity": 65}, {"time": 2008, "pitch": 60, "duration": 2, "velocity": 76}, {"time": 2008, "pitch": 68, "duration": 3, "velocity": 77}, {"time": 2014, "pitch": 60, "duration": 2, "velocity": 81}, {"time": 2020, "pitch": 60, "duration": 7, "velocity": 86}, {"time": 2020, "pitch": 65, "duration": 7, "velocity": 87}, {"time": 2020, "pitch": 68, "duration": 7, "velocity": 82}, {"time": 2026, "pitch": 41, "duration": 3, "velocity": 81}, {"time": 2026, "pitch": 48, "duration": 1, "velocity": 73}, {"time": 2032, "pitch": 60, "duration": 2, "velocity": 81}, {"time": 2032, "pitch": 65, "duration": 2, "velocity": 83}, {"time": 2032, "pitch": 68, "duration": 3, "velocity": 80}, {"time": 2044, "pitch": 37, "duration": 20, "velocity": 80}, {"time": 2044, "pitch": 61, "duration": 3, "velocity": 72}, {"time": 2044, "pitch": 65, "duration": 7, "velocity": 79}, {"time": 2050, "pitch": 61, "duration": 2, "velocity": 67}, {"time": 2056, "pitch": 61, "duration": 2, "velocity": 76}, {"time": 2056, "pitch": 65, "duration": 3, "velocity": 81}, {"time": 2056, "pitch": 68, "duration": 5, "velocity": 77}, {"time": 2068, "pitch": 39, "duration": 13, "velocity": 82}, {"time": 2068, "pitch": 63, "duration": 6, "velocity": 76}, {"time": 2068, "pitch": 67, "duration": 7, "velocity": 72}, {"time": 2074, "pitch": 46, "duration": 6, "velocity": 67}, {"time": 2080, "pitch": 63, "duration": 2, "velocity": 77}, {"time": 2080, "pitch": 67, "duration": 2, "velocity": 80}, {"time": 2092, "pitch": 44, "duration": 27, "velocity": 80}, {"time": 2092, "pitch": 63, "duration": 2, "velocity": 69}, {"time": 2092, "pitch": 68, "duration": 1, "velocity": 70}, {"time": 2098, "pitch": 51, "duration": 8, "velocity": 62}, {"time": 2104, "pitch": 56, "duration": 2, "velocity": 80}, {"time": 2104, "pitch": 63, "duration": 2, "velocity": 81}, {"time": 2110, "pitch": 56, "duration": 3, "velocity": 80}, {"time": 2116, "pitch": 56, "duration": 7, "velocity": 81}, {"time": 2116, "pitch": 60, "duration": 7, "velocity": 82}, {"time": 2116, "pitch": 63, "duration": 7, "velocity": 81}, {"time": 2122, "pitch": 51, "duration": 2, "velocity": 79}, {"time": 2128, "pitch": 56, "duration": 2, "velocity": 89}, {"time": 2128, "pitch": 60, "duration": 2, "velocity": 94}, {"time": 2128, "pitch": 63, "duration": 4, "velocity": 86}, {"time": 2140, "pitch": 41, "duration": 30, "velocity": 87}, {"time": 2146, "pitch": 60, "duration": 2, "velocity": 82}, {"time": 2152, "pitch": 60, "duration": 1, "velocity": 81}, {"time": 2152, "pitch": 65, "duration": 1, "velocity": 89}, {"time": 2152, "pitch": 68, "duration": 2, "velocity": 83}, {"time": 2158, "pitch": 60, "duration": 2, "velocity": 73}, {"time": 2164, "pitch": 60, "duration": 2, "velocity": 75}, {"time": 2164, "pitch": 65, "duration": 2, "velocity": 82}, {"time": 2164, "pitch": 68, "duration": 3, "velocity": 79}, {"time": 2176, "pitch": 60, "duration": 2, "velocity": 81}, {"time": 2176, "pitch": 65, "duration": 7, "velocity": 85}, {"time": 2176, "pitch": 68, "duration": 8, "velocity": 81}, {"time": 2182, "pitch": 60, "duration": 4, "velocity": 75}, {"time": 2188, "pitch": 46, "duration": 38, "velocity": 80}, {"time": 2188, "pitch": 58, "duration": 6, "velocity": 72}, {"time": 2188, "pitch": 61, "duration": 6, "velocity": 75}, {"time": 2194, "pitch": 53, "duration": 21, "velocity": 72}, {"time": 2200, "pitch": 58, "duration": 2, "velocity": 78}, {"time": 2200, "pitch": 65, "duration": 3, "velocity": 81}, {"time": 2206, "pitch": 58, "duration": 2, "velocity": 69}, {"time": 2206, "pitch": 61, "duration": 3, "velocity": 74}, {"time": 2212, "pitch": 58, "duration": 8, "velocity": 77}, {"time": 2212, "pitch": 61, "duration": 8, "velocity": 82}, {"time": 2218, "pitch": 53, "duration": 9, "velocity": 80}, {"time": 2224, "pitch": 58, "duration": 4, "velocity": 81}, {"time": 2224, "pitch": 61, "duration": 4, "velocity": 84}, {"time": 2224, "pitch": 65, "duration": 6, "velocity": 86}, {"time": 2236, "pitch": 48, "duration": 36, "velocity": 81}, {"time": 2236, "pitch": 60, "duration": 8, "velocity": 80}, {"time": 2236, "pitch": 63, "duration": 8, "velocity": 81}, {"time": 2242, "pitch": 55, "duration": 25, "velocity": 64}, {"time": 2248, "pitch": 60, "duration": 2, "velocity": 77}, {"time": 2248, "pitch": 63, "duration": 7, "velocity": 80}, {"time": 2248, "pitch": 67, "duration": 7, "velocity": 76}, {"time": 2254, "pitch": 60, "duration": 4, "velocity": 72}, {"time": 2260, "pitch": 67, "duration": 9, "velocity": 72}, {"time": 2266, "pitch": 60, "duration": 4, "velocity": 76}, {"time": 2272, "pitch": 60, "duration": 2, "velocity": 75}, {"time": 2272, "pitch": 63, "duration": 4, "velocity": 83}, {"time": 2272, "pitch": 67, "duration": 4, "velocity": 76}, {"time": 2272, "pitch": 72, "duration": 4, "velocity": 81}, {"time": 2284, "pitch": 41, "duration": 20, "velocity": 82}, {"time": 2284, "pitch": 53, "duration": 5, "velocity": 69}, {"time": 2284, "pitch": 56, "duration": 6, "velocity": 75}, {"time": 2290, "pitch": 48, "duration": 14, "velocity": 75}, {"time": 2296, "pitch": 55, "duration": 2, "velocity": 80}, {"time": 2302, "pitch": 56, "duration": 2, "velocity": 81}, {"time": 2308, "pitch": 41, "duration": 23, "velocity": 85}, {"time": 2308, "pitch": 56, "duration": 8, "velocity": 82}, {"time": 2308, "pitch": 60, "duration": 9, "velocity": 87}, {"time": 2314, "pitch": 48, "duration": 16, "velocity": 68}, {"time": 2320, "pitch": 56, "duration": 10, "velocity": 78}, {"time": 2320, "pitch": 60, "duration": 10, "velocity": 81}, {"time": 2320, "pitch": 65, "duration": 10, "velocity": 82}, {"time": 2332, "pitch": 41, "duration": 16, "velocity": 86}, {"time": 2332, "pitch": 53, "duration": 16, "velocity": 86}, {"time": 2332, "pitch": 60, "duration": 4, "velocity": 75}, {"time": 2332, "pitch": 65, "duration": 7, "velocity": 79}, {"time": 2338, "pitch": 60, "duration": 3, "velocity": 68}, {"time": 2344, "pitch": 60, "duration": 2, "velocity": 81}, {"time": 2344, "pitch": 65, "duration": 7, "velocity": 89}, {"time": 2344, "pitch": 68, "duration": 8, "velocity": 82}, {"time": 2350, "pitch": 60, "duration": 2, "velocity": 75}, {"time": 2356, "pitch": 37, "duration": 16, "velocity": 82}, {"time": 2356, "pitch": 49, "duration": 16, "velocity": 82}, {"time": 2356, "pitch": 61, "duration": 5, "velocity": 71}, {"time": 2356, "pitch": 65, "duration": 5, "velocity": 78}, {"time": 2356, "pitch": 68, "duration": 5, "velocity": 74}, {"time": 2362, "pitch": 56, "duration": 9, "velocity": 67}, {"time": 2368, "pitch": 61, "duration": 2, "velocity": 82}, {"time": 2368, "pitch": 68, "duration": 2, "velocity": 81}, {"time": 2380, "pitch": 39, "duration": 18, "velocity": 81}, {"time": 2380, "pitch": 51, "duration": 18, "velocity": 81}, {"time": 2380, "pitch": 63, "duration": 4, "velocity": 74}, {"time": 2380, "pitch": 67, "duration": 5, "velocity": 76}, {"time": 2386, "pitch": 58, "duration": 14, "velocity": 65}, {"time": 2392, "pitch": 63, "duration": 2, "velocity": 71}, {"time": 2392, "pitch": 67, "duration": 4, "velocity": 82}, {"time": 2392, "pitch": 70, "duration": 9, "velocity": 80}, {"time": 2398, "pitch": 63, "duration": 3, "velocity": 72}, {"time": 2404, "pitch": 41, "duration": 13, "velocity": 82}, {"time": 2404, "pitch": 53, "duration": 13, "velocity": 82}, {"time": 2404, "pitch": 65, "duration": 6, "velocity": 76}, {"time": 2404, "pitch": 68, "duration": 6, "velocity": 70}, {"time": 2410, "pitch": 60, "duration": 7, "velocity": 66}, {"time": 2416, "pitch": 65, "duration": 2, "velocity": 81}, {"time": 2416, "pitch": 68, "duration": 2, "velocity": 81}, {"time": 2416, "pitch": 72, "duration": 2, "velocity": 81}, {"time": 2428, "pitch": 37, "duration": 19, "velocity": 80}, {"time": 2428, "pitch": 49, "duration": 19, "velocity": 80}, {"time": 2428, "pitch": 61, "duration": 6, "velocity": 69}, {"time": 2428, "pitch": 65, "duration": 6, "velocity": 77}, {"time": 2434, "pitch": 56, "duration": 13, "velocity": 68}, {"time": 2440, "pitch": 61, "duration": 6, "velocity": 82}, {"time": 2446, "pitch": 65, "duration": 2, "velocity": 83}, {"time": 2452, "pitch": 39, "duration": 17, "velocity": 82}, {"time": 2452, "pitch": 51, "duration": 17, "velocity": 82}, {"time": 2452, "pitch": 63, "duration": 5, "velocity": 72}, {"time": 2452, "pitch": 67, "duration": 5, "velocity": 72}, {"time": 2458, "pitch": 58, "duration": 11, "velocity": 65}, {"time": 2464, "pitch": 63, "duration": 2, "velocity": 73}, {"time": 2464, "pitch": 67, "duration": 4, "velocity": 76}, {"time": 2464, "pitch": 70, "duration": 5, "velocity": 76}, {"time": 2476, "pitch": 44, "duration": 11, "velocity": 82}, {"time": 2476, "pitch": 56, "duration": 11, "velocity": 82}, {"time": 2476, "pitch": 63, "duration": 8, "velocity": 76}, {"time": 2476, "pitch": 68, "duration": 8, "velocity": 77}, {"time": 2482, "pitch": 60, "duration": 6, "velocity": 66}, {"time": 2488, "pitch": 63, "duration": 5, "velocity": 80}, {"time": 2488, "pitch": 68, "duration": 12, "velocity": 80}, {"time": 2494, "pitch": 34, "duration": 2, "velocity": 81}, {"time": 2494, "pitch": 46, "duration": 2, "velocity": 81}, {"time": 2500, "pitch": 36, "duration": 13, "velocity": 85}, {"time": 2500, "pitch": 48, "duration": 13, "velocity": 85}, {"time": 2506, "pitch": 60, "duration": 4, "velocity": 81}, {"time": 2512, "pitch": 60, "duration": 3, "velocity": 80}, {"time": 2512, "pitch": 64, "duration": 6, "velocity": 82}, {"time": 2512, "pitch": 67, "duration": 7, "velocity": 81}, {"time": 2518, "pitch": 60, "duration": 3, "velocity": 83}, {"time": 2524, "pitch": 41, "duration": 14, "velocity": 85}, {"time": 2524, "pitch": 53, "duration": 14, "velocity": 85}, {"time": 2524, "pitch": 60, "duration": 3, "velocity": 80}, {"time": 2524, "pitch": 65, "duration": 7, "velocity": 82}, {"time": 2530, "pitch": 60, "duration": 2, "velocity": 72}, {"time": 2536, "pitch": 60, "duration": 6, "velocity": 81}, {"time": 2536, "pitch": 65, "duration": 10, "velocity": 82}, {"time": 2536, "pitch": 68, "duration": 11, "velocity": 80}, {"time": 2542, "pitch": 39, "duration": 3, "velocity": 86}, {"time": 2542, "pitch": 51, "duration": 3, "velocity": 86}, {"time": 2548, "pitch": 37, "duration": 21, "velocity": 85}, {"time": 2548, "pitch": 49, "duration": 21, "velocity": 85}, {"time": 2548, "pitch": 61, "duration": 6, "velocity": 79}, {"time": 2548, "pitch": 65, "duration": 7, "velocity": 81}, {"time": 2554, "pitch": 56, "duration": 14, "velocity": 74}, {"time": 2560, "pitch": 61, "duration": 2, "velocity": 81}, {"time": 2560, "pitch": 65, "duration": 11, "velocity": 89}, {"time": 2560, "pitch": 68, "duration": 11, "velocity": 84}, {"time": 2566, "pitch": 61, "duration": 5, "velocity": 72}, {"time": 2572, "pitch": 32, "duration": 16, "velocity": 81}, {"time": 2572, "pitch": 44, "duration": 16, "velocity": 81}, {"time": 2572, "pitch": 56, "duration": 8, "velocity": 81}, {"time": 2572, "pitch": 63, "duration": 8, "velocity": 82}, {"time": 2578, "pitch": 39, "duration": 9, "velocity": 76}, {"time": 2578, "pitch": 51, "duration": 9, "velocity": 76}, {"time": 2584, "pitch": 56, "duration": 1, "velocity": 68}, {"time": 2584, "pitch": 60, "duration": 11, "velocity": 81}, {"time": 2584, "pitch": 63, "duration": 11, "velocity": 80}, {"time": 2584, "pitch": 68, "duration": 11, "velocity": 70}, {"time": 2590, "pitch": 37, "duration": 5, "velocity": 94}, {"time": 2590, "pitch": 49, "duration": 5, "velocity": 94}, {"time": 2596, "pitch": 39, "duration": 20, "velocity": 81}, {"time": 2596, "pitch": 51, "duration": 20, "velocity": 81}, {"time": 2596, "pitch": 63, "duration": 8, "velocity": 81}, {"time": 2596, "pitch": 67, "duration": 9, "velocity": 80}, {"time": 2602, "pitch": 58, "duration": 8, "velocity": 71}, {"time": 2608, "pitch": 63, "duration": 4, "velocity": 80}, {"time": 2614, "pitch": 58, "duration": 3, "velocity": 80}, {"time": 2620, "pitch": 36, "duration": 21, "velocity": 80}, {"time": 2620, "pitch": 48, "duration": 21, "velocity": 80}, {"time": 2620, "pitch": 60, "duration": 7, "velocity": 76}, {"time": 2620, "pitch": 63, "duration": 7, "velocity": 80}, {"time": 2626, "pitch": 55, "duration": 14, "velocity": 46}, {"time": 2632, "pitch": 60, "duration": 3, "velocity": 81}, {"time": 2632, "pitch": 63, "duration": 3, "velocity": 87}, {"time": 2632, "pitch": 67, "duration": 5, "velocity": 85}, {"time": 2638, "pitch": 60, "duration": 2, "velocity": 67}, {"time": 2644, "pitch": 36, "duration": 18, "velocity": 80}, {"time": 2644, "pitch": 48, "duration": 18, "velocity": 80}, {"time": 2644, "pitch": 60, "duration": 8, "velocity": 75}, {"time": 2644, "pitch": 63, "duration": 8, "velocity": 74}, {"time": 2650, "pitch": 55, "duration": 9, "velocity": 59}, {"time": 2656, "pitch": 60, "duration": 2, "velocity": 81}, {"time": 2656, "pitch": 63, "duration": 7, "velocity": 91}, {"time": 2656, "pitch": 67, "duration": 7, "velocity": 86}, {"time": 2662, "pitch": 60, "duration": 3, "velocity": 77}, {"time": 2668, "pitch": 41, "duration": 18, "velocity": 79}, {"time": 2668, "pitch": 53, "duration": 18, "velocity": 79}, {"time": 2668, "pitch": 60, "duration": 4, "velocity": 80}, {"time": 2668, "pitch": 65, "duration": 8, "velocity": 82}, {"time": 2680, "pitch": 60, "duration": 2, "velocity": 81}, {"time": 2680, "pitch": 65, "duration": 8, "velocity": 87}, {"time": 2680, "pitch": 68, "duration": 7, "velocity": 82}, {"time": 2686, "pitch": 46, "duration": 6, "velocity": 80}, {"time": 2686, "pitch": 60, "duration": 4, "velocity": 74}, {"time": 2692, "pitch": 48, "duration": 12, "velocity": 79}, {"time": 2698, "pitch": 60, "duration": 2, "velocity": 74}, {"time": 2704, "pitch": 60, "duration": 3, "velocity": 85}, {"time": 2704, "pitch": 65, "duration": 12, "velocity": 89}, {"time": 2704, "pitch": 68, "duration": 12, "velocity": 83}, {"time": 2710, "pitch": 39, "duration": 5, "velocity": 91}, {"time": 2710, "pitch": 51, "duration": 5, "velocity": 91}, {"time": 2716, "pitch": 41, "duration": 16, "velocity": 86}, {"time": 2716, "pitch": 53, "duration": 16, "velocity": 86}, {"time": 2716, "pitch": 60, "duration": 4, "velocity": 75}, {"time": 2716, "pitch": 65, "duration": 1, "velocity": 79}, {"time": 2722, "pitch": 60, "duration": 3, "velocity": 68}, {"time": 2728, "pitch": 60, "duration": 2, "velocity": 81}, {"time": 2728, "pitch": 65, "duration": 7, "velocity": 89}, {"time": 2728, "pitch": 68, "duration": 8, "velocity": 82}, {"time": 2734, "pitch": 60, "duration": 2, "velocity": 75}, {"time": 2740, "pitch": 37, "duration": 16, "velocity": 82}, {"time": 2740, "pitch": 49, "duration": 16, "velocity": 82}, {"time": 2740, "pitch": 61, "duration": 5, "velocity": 71}, {"time": 2740, "pitch": 65, "duration": 5, "velocity": 78}, {"time": 2740, "pitch": 68, "duration": 5, "velocity": 74}, {"time": 2746, "pitch": 56, "duration": 9, "velocity": 67}, {"time": 2752, "pitch": 61, "duration": 2, "velocity": 82}, {"time": 2752, "pitch": 68, "duration": 2, "velocity": 81}, {"time": 2764, "pitch": 39, "duration": 18, "velocity": 81}, {"time": 2764, "pitch": 51, "duration": 18, "velocity": 81}, {"time": 2764, "pitch": 63, "duration": 4, "velocity": 74}, {"time": 2764, "pitch": 67, "duration": 5, "velocity": 76}, {"time": 2770, "pitch": 58, "duration": 14, "velocity": 65}, {"time": 2776, "pitch": 63, "duration": 2, "velocity": 71}, {"time": 2776, "pitch": 67, "duration": 4, "velocity": 82}, {"time": 2776, "pitch": 70, "duration": 9, "velocity": 80}, {"time": 2782, "pitch": 63, "duration": 3, "velocity": 72}, {"time": 2788, "pitch": 41, "duration": 13, "velocity": 82}, {"time": 2788, "pitch": 53, "duration": 13, "velocity": 82}, {"time": 2788, "pitch": 65, "duration": 6, "velocity": 76}, {"time": 2788, "pitch": 68, "duration": 6, "velocity": 70}, {"time": 2794, "pitch": 60, "duration": 7, "velocity": 66}, {"time": 2800, "pitch": 65, "duration": 2, "velocity": 81}, {"time": 2800, "pitch": 68, "duration": 2, "velocity": 81}, {"time": 2800, "pitch": 72, "duration": 2, "velocity": 81}, {"time": 2812, "pitch": 37, "duration": 19, "velocity": 80}, {"time": 2812, "pitch": 49, "duration": 19, "velocity": 80}, {"time": 2812, "pitch": 61, "duration": 6, "velocity": 69}, {"time": 2812, "pitch": 65, "duration": 6, "velocity": 77}, {"time": 2818, "pitch": 56, "duration": 13, "velocity": 68}, {"time": 2824, "pitch": 61, "duration": 6, "velocity": 82}, {"time": 2830, "pitch": 65, "duration": 2, "velocity": 83}, {"time": 2836, "pitch": 39, "duration": 17, "velocity": 82}, {"time": 2836, "pitch": 51, "duration": 17, "velocity": 82}, {"time": 2836, "pitch": 63, "duration": 5, "velocity": 72}, {"time": 2836, "pitch": 67, "duration": 5, "velocity": 72}, {"time": 2842, "pitch": 58, "duration": 11, "velocity": 65}, {"time": 2848, "pitch": 63, "duration": 2, "velocity": 73}, {"time": 2848, "pitch": 67, "duration": 4, "velocity": 76}, {"time": 2848, "pitch": 70, "duration": 5, "velocity": 76}, {"time": 2860, "pitch": 44, "duration": 11, "velocity": 82}, {"time": 2860, "pitch": 56, "duration": 11, "velocity": 82}, {"time": 2860, "pitch": 63, "duration": 8, "velocity": 76}, {"time": 2860, "pitch": 68, "duration": 8, "velocity": 77}, {"time": 2866, "pitch": 60, "duration": 6, "velocity": 66}, {"time": 2872, "pitch": 63, "duration": 5, "velocity": 80}, {"time": 2872, "pitch": 68, "duration": 12, "velocity": 80}, {"time": 2878, "pitch": 34, "duration": 2, "velocity": 81}, {"time": 2878, "pitch": 46, "duration": 2, "velocity": 81}, {"time": 2884, "pitch": 36, "duration": 13, "velocity": 85}, {"time": 2884, "pitch": 48, "duration": 13, "velocity": 85}, {"time": 2890, "pitch": 60, "duration": 4, "velocity": 81}, {"time": 2896, "pitch": 60, "duration": 3, "velocity": 80}, {"time": 2896, "pitch": 64, "duration": 6, "velocity": 82}, {"time": 2896, "pitch": 67, "duration": 7, "velocity": 81}, {"time": 2902, "pitch": 60, "duration": 3, "velocity": 83}, {"time": 2908, "pitch": 41, "duration": 14, "velocity": 85}, {"time": 2908, "pitch": 53, "duration": 14, "velocity": 85}, {"time": 2908, "pitch": 60, "duration": 3, "velocity": 80}, {"time": 2908, "pitch": 65, "duration": 7, "velocity": 82}, {"time": 2914, "pitch": 60, "duration": 2, "velocity": 72}, {"time": 2920, "pitch": 60, "duration": 6, "velocity": 81}, {"time": 2920, "pitch": 65, "duration": 10, "velocity": 82}, {"time": 2920, "pitch": 68, "duration": 11, "velocity": 80}, {"time": 2926, "pitch": 39, "duration": 3, "velocity": 86}, {"time": 2926, "pitch": 51, "duration": 3, "velocity": 86}, {"time": 2932, "pitch": 37, "duration": 21, "velocity": 85}, {"time": 2932, "pitch": 49, "duration": 21, "velocity": 85}, {"time": 2932, "pitch": 61, "duration": 6, "velocity": 79}, {"time": 2932, "pitch": 65, "duration": 7, "velocity": 81}, {"time": 2938, "pitch": 56, "duration": 14, "velocity": 74}, {"time": 2944, "pitch": 61, "duration": 2, "velocity": 81}, {"time": 2944, "pitch": 65, "duration": 11, "velocity": 89}, {"time": 2944, "pitch": 68, "duration": 11, "velocity": 84}, {"time": 2950, "pitch": 61, "duration": 5, "velocity": 72}, {"time": 2956, "pitch": 32, "duration": 16, "velocity": 81}, {"time": 2956, "pitch": 44, "duration": 16, "velocity": 81}, {"time": 2956, "pitch": 56, "duration": 8, "velocity": 81}, {"time": 2956, "pitch": 63, "duration": 8, "velocity": 82}, {"time": 2962, "pitch": 39, "duration": 9, "velocity": 76}, {"time": 2962, "pitch": 51, "duration": 9, "velocity": 76}, {"time": 2968, "pitch": 56, "duration": 1, "velocity": 68}, {"time": 2968, "pitch": 60, "duration": 11, "velocity": 81}, {"time": 2968, "pitch": 63, "duration": 11, "velocity": 80}, {"time": 2968, "pitch": 68, "duration": 11, "velocity": 70}, {"time": 2974, "pitch": 37, "duration": 5, "velocity": 94}, {"time": 2974, "pitch": 49, "duration": 5, "velocity": 94}, {"time": 2980, "pitch": 39, "duration": 20, "velocity": 81}, {"time": 2980, "pitch": 51, "duration": 20, "velocity": 81}, {"time": 2980, "pitch": 63, "duration": 8, "velocity": 81}, {"time": 2980, "pitch": 67, "duration": 9, "velocity": 80}, {"time": 2986, "pitch": 58, "duration": 8, "velocity": 71}, {"time": 2992, "pitch": 63, "duration": 4, "velocity": 80}, {"time": 2998, "pitch": 58, "duration": 3, "velocity": 80}, {"time": 3004, "pitch": 36, "duration": 21, "velocity": 80}, {"time": 3004, "pitch": 48, "duration": 21, "velocity": 80}, {"time": 3004, "pitch": 60, "duration": 7, "velocity": 76}, {"time": 3004, "pitch": 63, "duration": 7, "velocity": 80}, {"time": 3010, "pitch": 55, "duration": 14, "velocity": 46}, {"time": 3016, "pitch": 60, "duration": 3, "velocity": 81}, {"time": 3016, "pitch": 63, "duration": 3, "velocity": 87}, {"time": 3016, "pitch": 67, "duration": 5, "velocity": 85}, {"time": 3022, "pitch": 60, "duration": 2, "velocity": 67}, {"time": 3028, "pitch": 36, "duration": 18, "velocity": 80}, {"time": 3028, "pitch": 48, "duration": 18, "velocity": 80}, {"time": 3028, "pitch": 60, "duration": 8, "velocity": 75}, {"time": 3028, "pitch": 63, "duration": 8, "velocity": 74}, {"time": 3034, "pitch": 55, "duration": 9, "velocity": 59}, {"time": 3040, "pitch": 60, "duration": 2, "velocity": 81}, {"time": 3040, "pitch": 63, "duration": 7, "velocity": 91}, {"time": 3040, "pitch": 67, "duration": 7, "velocity": 86}, {"time": 3046, "pitch": 60, "duration": 3, "velocity": 77}, {"time": 3052, "pitch": 41, "duration": 18, "velocity": 79}, {"time": 3052, "pitch": 53, "duration": 18, "velocity": 79}, {"time": 3052, "pitch": 60, "duration": 4, "velocity": 80}, {"time": 3052, "pitch": 65, "duration": 8, "velocity": 82}, {"time": 3064, "pitch": 60, "duration": 2, "velocity": 81}, {"time": 3064, "pitch": 65, "duration": 8, "velocity": 87}, {"time": 3064, "pitch": 68, "duration": 7, "velocity": 82}, {"time": 3070, "pitch": 46, "duration": 6, "velocity": 80}, {"time": 3070, "pitch": 60, "duration": 4, "velocity": 74}, {"time": 3076, "pitch": 48, "duration": 12, "velocity": 79}, {"time": 3082, "pitch": 60, "duration": 2, "velocity": 74}, {"time": 3088, "pitch": 60, "duration": 3, "velocity": 85}, {"time": 3088, "pitch": 65, "duration": 12, "velocity": 89}, {"time": 3088, "pitch": 68, "duration": 12, "velocity": 83}, {"time": 3094, "pitch": 39, "duration": 5, "velocity": 91}, {"time": 3094, "pitch": 51, "duration": 5, "velocity": 91}, {"time": 3100, "pitch": 41, "duration": 11, "velocity": 76}, {"time": 3100, "pitch": 53, "duration": 8, "velocity": 81}, {"time": 3100, "pitch": 60, "duration": 4, "velocity": 72}, {"time": 3100, "pitch": 65, "duration": 1, "velocity": 75}, {"time": 3100, "pitch": 68, "duration": 1, "velocity": 74}, {"time": 3106, "pitch": 60, "duration": 2, "velocity": 68}, {"time": 3106, "pitch": 65, "duration": 2, "velocity": 72}, {"time": 3106, "pitch": 68, "duration": 2, "velocity": 71}, {"time": 3112, "pitch": 60, "duration": 2, "velocity": 72}, {"time": 3112, "pitch": 65, "duration": 2, "velocity": 76}, {"time": 3112, "pitch": 68, "duration": 2, "velocity": 74}, {"time": 3118, "pitch": 48, "duration": 5, "velocity": 83}, {"time": 3118, "pitch": 60, "duration": 1, "velocity": 67}, {"time": 3118, "pitch": 60, "duration": 1, "velocity": 80}, {"time": 3118, "pitch": 65, "duration": 1, "velocity": 69}, {"time": 3118, "pitch": 68, "duration": 2, "velocity": 72}, {"time": 3124, "pitch": 49, "duration": 9, "velocity": 82}, {"time": 3124, "pitch": 61, "duration": 3, "velocity": 74}, {"time": 3124, "pitch": 61, "duration": 3, "velocity": 81}, {"time": 3124, "pitch": 65, "duration": 3, "velocity": 77}, {"time": 3124, "pitch": 68, "duration": 3, "velocity": 76}, {"time": 3130, "pitch": 61, "duration": 2, "velocity": 68}, {"time": 3130, "pitch": 65, "duration": 2, "velocity": 74}, {"time": 3130, "pitch": 68, "duration": 2, "velocity": 68}, {"time": 3136, "pitch": 61, "duration": 2, "velocity": 75}, {"time": 3136, "pitch": 65, "duration": 2, "velocity": 79}, {"time": 3136, "pitch": 68, "duration": 2, "velocity": 79}, {"time": 3142, "pitch": 61, "duration": 2, "velocity": 70}, {"time": 3142, "pitch": 65, "duration": 2, "velocity": 75}, {"time": 3142, "pitch": 68, "duration": 2, "velocity": 73}, {"time": 3148, "pitch": 39, "duration": 10, "velocity": 82}, {"time": 3148, "pitch": 51, "duration": 9, "velocity": 82}, {"time": 3148, "pitch": 63, "duration": 4, "velocity": 77}, {"time": 3148, "pitch": 67, "duration": 4, "velocity": 80}, {"time": 3154, "pitch": 63, "duration": 2, "velocity": 69}, {"time": 3154, "pitch": 67, "duration": 2, "velocity": 70}, {"time": 3160, "pitch": 63, "duration": 2, "velocity": 75}, {"time": 3160, "pitch": 67, "duration": 2, "velocity": 75}, {"time": 3166, "pitch": 39, "duration": 4, "velocity": 81}, {"time": 3166, "pitch": 51, "duration": 5, "velocity": 75}, {"time": 3166, "pitch": 63, "duration": 3, "velocity": 75}, {"time": 3166, "pitch": 67, "duration": 3, "velocity": 75}, {"time": 3172, "pitch": 41, "duration": 13, "velocity": 81}, {"time": 3172, "pitch": 53, "duration": 13, "velocity": 80}, {"time": 3172, "pitch": 60, "duration": 3, "velocity": 74}, {"time": 3172, "pitch": 65, "duration": 3, "velocity": 76}, {"time": 3172, "pitch": 68, "duration": 3, "velocity": 74}, {"time": 3178, "pitch": 60, "duration": 2, "velocity": 67}, {"time": 3178, "pitch": 65, "duration": 2, "velocity": 69}, {"time": 3178, "pitch": 68, "duration": 2, "velocity": 69}, {"time": 3184, "pitch": 60, "duration": 3, "velocity": 81}, {"time": 3184, "pitch": 65, "duration": 3, "velocity": 83}, {"time": 3184, "pitch": 68, "duration": 3, "velocity": 81}, {"time": 3190, "pitch": 60, "duration": 3, "velocity": 80}, {"time": 3190, "pitch": 65, "duration": 3, "velocity": 81}, {"time": 3190, "pitch": 68, "duration": 3, "velocity": 78}, {"time": 3196, "pitch": 37, "duration": 8, "velocity": 79}, {"time": 3196, "pitch": 49, "duration": 7, "velocity": 80}, {"time": 3196, "pitch": 61, "duration": 2, "velocity": 74}, {"time": 3196, "pitch": 65, "duration": 2, "velocity": 75}, {"time": 3196, "pitch": 68, "duration": 2, "velocity": 74}, {"time": 3202, "pitch": 61, "duration": 2, "velocity": 71}, {"time": 3202, "pitch": 65, "duration": 1, "velocity": 75}, {"time": 3202, "pitch": 68, "duration": 2, "velocity": 72}, {"time": 3208, "pitch": 61, "duration": 2, "velocity": 74}, {"time": 3208, "pitch": 65, "duration": 2, "velocity": 76}, {"time": 3208, "pitch": 68, "duration": 2, "velocity": 74}, {"time": 3214, "pitch": 37, "duration": 4, "velocity": 69}, {"time": 3214, "pitch": 49, "duration": 4, "velocity": 76}, {"time": 3214, "pitch": 61, "duration": 2, "velocity": 72}, {"time": 3214, "pitch": 65, "duration": 2, "velocity": 76}, {"time": 3214, "pitch": 68, "duration": 3, "velocity": 74}, {"time": 3220, "pitch": 39, "duration": 10, "velocity": 76}, {"time": 3220, "pitch": 51, "duration": 9, "velocity": 80}, {"time": 3220, "pitch": 63, "duration": 4, "velocity": 75}, {"time": 3220, "pitch": 67, "duration": 5, "velocity": 79}, {"time": 3226, "pitch": 63, "duration": 2, "velocity": 71}, {"time": 3226, "pitch": 67, "duration": 2, "velocity": 72}, {"time": 3232, "pitch": 63, "duration": 3, "velocity": 81}, {"time": 3232, "pitch": 67, "duration": 3, "velocity": 84}, {"time": 3238, "pitch": 63, "duration": 2, "velocity": 70}, {"time": 3238, "pitch": 67, "duration": 3, "velocity": 77}, {"time": 3244, "pitch": 44, "duration": 8, "velocity": 75}, {"time": 3244, "pitch": 56, "duration": 8, "velocity": 75}, {"time": 3244, "pitch": 60, "duration": 5, "velocity": 70}, {"time": 3244, "pitch": 63, "duration": 4, "velocity": 72}, {"time": 3244, "pitch": 68, "duration": 5, "velocity": 74}, {"time": 3250, "pitch": 60, "duration": 2, "velocity": 67}, {"time": 3250, "pitch": 63, "duration": 2, "velocity": 75}, {"time": 3250, "pitch": 68, "duration": 1, "velocity": 68}, {"time": 3256, "pitch": 60, "duration": 2, "velocity": 69}, {"time": 3256, "pitch": 63, "duration": 2, "velocity": 70}, {"time": 3256, "pitch": 68, "duration": 2, "velocity": 65}, {"time": 3262, "pitch": 46, "duration": 4, "velocity": 73}, {"time": 3262, "pitch": 58, "duration": 5, "velocity": 69}, {"time": 3262, "pitch": 60, "duration": 2, "velocity": 65}, {"time": 3262, "pitch": 63, "duration": 1, "velocity": 63}, {"time": 3262, "pitch": 68, "duration": 2, "velocity": 69}, {"time": 3268, "pitch": 48, "duration": 10, "velocity": 82}, {"time": 3268, "pitch": 60, "duration": 4, "velocity": 75}, {"time": 3268, "pitch": 64, "duration": 4, "velocity": 78}, {"time": 3268, "pitch": 67, "duration": 4, "velocity": 78}, {"time": 3274, "pitch": 60, "duration": 2, "velocity": 63}, {"time": 3274, "pitch": 64, "duration": 2, "velocity": 69}, {"time": 3274, "pitch": 67, "duration": 2, "velocity": 68}, {"time": 3280, "pitch": 60, "duration": 1, "velocity": 75}, {"time": 3280, "pitch": 64, "duration": 2, "velocity": 73}, {"time": 3280, "pitch": 67, "duration": 3, "velocity": 74}, {"time": 3286, "pitch": 60, "duration": 3, "velocity": 76}, {"time": 3286, "pitch": 64, "duration": 2, "velocity": 76}, {"time": 3286, "pitch": 67, "duration": 3, "velocity": 75}, {"time": 3292, "pitch": 41, "duration": 12, "velocity": 80}, {"time": 3292, "pitch": 53, "duration": 11, "velocity": 71}, {"time": 3292, "pitch": 60, "duration": 5, "velocity": 73}, {"time": 3292, "pitch": 65, "duration": 5, "velocity": 65}, {"time": 3292, "pitch": 68, "duration": 5, "velocity": 56}, {"time": 3298, "pitch": 60, "duration": 2, "velocity": 65}, {"time": 3298, "pitch": 65, "duration": 2, "velocity": 71}, {"time": 3298, "pitch": 68, "duration": 2, "velocity": 70}, {"time": 3304, "pitch": 60, "duration": 3, "velocity": 73}, {"time": 3304, "pitch": 65, "duration": 3, "velocity": 79}, {"time": 3304, "pitch": 68, "duration": 3, "velocity": 75}, {"time": 3310, "pitch": 39, "duration": 4, "velocity": 73}, {"time": 3310, "pitch": 51, "duration": 5, "velocity": 75}, {"time": 3310, "pitch": 60, "duration": 2, "velocity": 71}, {"time": 3310, "pitch": 65, "duration": 2, "velocity": 74}, {"time": 3310, "pitch": 68, "duration": 2, "velocity": 70}, {"time": 3316, "pitch": 37, "duration": 11, "velocity": 74}, {"time": 3316, "pitch": 49, "duration": 11, "velocity": 79}, {"time": 3316, "pitch": 61, "duration": 4, "velocity": 72}, {"time": 3316, "pitch": 65, "duration": 4, "velocity": 77}, {"time": 3316, "pitch": 68, "duration": 4, "velocity": 75}, {"time": 3322, "pitch": 61, "duration": 2, "velocity": 67}, {"time": 3322, "pitch": 65, "duration": 2, "velocity": 74}, {"time": 3322, "pitch": 68, "duration": 2, "velocity": 69}, {"time": 3328, "pitch": 61, "duration": 9, "velocity": 80}, {"time": 3328, "pitch": 65, "duration": 8, "velocity": 83}, {"time": 3328, "pitch": 68, "duration": 9, "velocity": 81}, {"time": 3340, "pitch": 44, "duration": 11, "velocity": 81}, {"time": 3340, "pitch": 56, "duration": 11, "velocity": 76}, {"time": 3340, "pitch": 63, "duration": 4, "velocity": 76}, {"time": 3340, "pitch": 68, "duration": 4, "velocity": 73}, {"time": 3340, "pitch": 72, "duration": 4, "velocity": 80}, {"time": 3346, "pitch": 63, "duration": 2, "velocity": 68}, {"time": 3346, "pitch": 68, "duration": 2, "velocity": 72}, {"time": 3346, "pitch": 72, "duration": 2, "velocity": 72}, {"time": 3352, "pitch": 63, "duration": 2, "velocity": 80}, {"time": 3352, "pitch": 68, "duration": 3, "velocity": 80}, {"time": 3352, "pitch": 72, "duration": 3, "velocity": 81}, {"time": 3358, "pitch": 44, "duration": 4, "velocity": 74}, {"time": 3358, "pitch": 56, "duration": 6, "velocity": 75}, {"time": 3358, "pitch": 63, "duration": 3, "velocity": 75}, {"time": 3358, "pitch": 68, "duration": 2, "velocity": 75}, {"time": 3358, "pitch": 72, "duration": 3, "velocity": 78}, {"time": 3364, "pitch": 39, "duration": 11, "velocity": 70}, {"time": 3364, "pitch": 51, "duration": 11, "velocity": 72}, {"time": 3364, "pitch": 63, "duration": 2, "velocity": 65}, {"time": 3364, "pitch": 67, "duration": 3, "velocity": 68}, {"time": 3370, "pitch": 63, "duration": 2, "velocity": 72}, {"time": 3370, "pitch": 67, "duration": 2, "velocity": 74}, {"time": 3376, "pitch": 63, "duration": 10, "velocity": 80}, {"time": 3376, "pitch": 67, "duration": 10, "velocity": 85}, {"time": 3388, "pitch": 48, "duration": 14, "velocity": 77}, {"time": 3388, "pitch": 60, "duration": 3, "velocity": 74}, {"time": 3388, "pitch": 60, "duration": 3, "velocity": 75}, {"time": 3388, "pitch": 63, "duration": 3, "velocity": 81}, {"time": 3388, "pitch": 67, "duration": 3, "velocity": 78}, {"time": 3394, "pitch": 60, "duration": 1, "velocity": 58}, {"time": 3394, "pitch": 63, "duration": 2, "velocity": 67}, {"time": 3394, "pitch": 67, "duration": 2, "velocity": 63}, {"time": 3400, "pitch": 60, "duration": 1, "velocity": 65}, {"time": 3400, "pitch": 63, "duration": 2, "velocity": 73}, {"time": 3400, "pitch": 67, "duration": 2, "velocity": 68}, {"time": 3406, "pitch": 46, "duration": 4, "velocity": 76}, {"time": 3406, "pitch": 58, "duration": 5, "velocity": 73}, {"time": 3406, "pitch": 60, "duration": 2, "velocity": 61}, {"time": 3406, "pitch": 63, "duration": 2, "velocity": 68}, {"time": 3406, "pitch": 67, "duration": 2, "velocity": 66}, {"time": 3412, "pitch": 48, "duration": 6, "velocity": 84}, {"time": 3412, "pitch": 60, "duration": 6, "velocity": 80}, {"time": 3412, "pitch": 60, "duration": 6, "velocity": 81}, {"time": 3412, "pitch": 67, "duration": 18, "velocity": 82}, {"time": 3436, "pitch": 41, "duration": 11, "velocity": 79}, {"time": 3436, "pitch": 53, "duration": 10, "velocity": 81}, {"time": 3436, "pitch": 60, "duration": 10, "velocity": 77}, {"time": 3436, "pitch": 65, "duration": 9, "velocity": 81}, {"time": 3448, "pitch": 65, "duration": 2, "velocity": 78}, {"time": 3448, "pitch": 68, "duration": 2, "velocity": 74}, {"time": 3454, "pitch": 39, "duration": 6, "velocity": 75}, {"time": 3454, "pitch": 51, "duration": 6, "velocity": 78}, {"time": 3454, "pitch": 60, "duration": 3, "velocity": 64}, {"time": 3454, "pitch": 65, "duration": 3, "velocity": 68}, {"time": 3454, "pitch": 68, "duration": 2, "velocity": 67}, {"time": 3460, "pitch": 41, "duration": 15, "velocity": 80}, {"time": 3460, "pitch": 53, "duration": 15, "velocity": 80}, {"time": 3460, "pitch": 60, "duration": 2, "velocity": 66}, {"time": 3460, "pitch": 65, "duration": 2, "velocity": 66}, {"time": 3460, "pitch": 68, "duration": 2, "velocity": 66}, {"time": 3466, "pitch": 60, "duration": 2, "velocity": 66}, {"time": 3466, "pitch": 65, "duration": 2, "velocity": 70}, {"time": 3466, "pitch": 68, "duration": 2, "velocity": 69}, {"time": 3472, "pitch": 60, "duration": 9, "velocity": 80}, {"time": 3472, "pitch": 65, "duration": 8, "velocity": 85}, {"time": 3472, "pitch": 68, "duration": 8, "velocity": 80}, {"time": 3484, "pitch": 41, "duration": 11, "velocity": 76}, {"time": 3484, "pitch": 53, "duration": 8, "velocity": 81}, {"time": 3484, "pitch": 60, "duration": 4, "velocity": 72}, {"time": 3484, "pitch": 65, "duration": 3, "velocity": 75}, {"time": 3484, "pitch": 68, "duration": 4, "velocity": 74}, {"time": 3490, "pitch": 60, "duration": 2, "velocity": 68}, {"time": 3490, "pitch": 65, "duration": 2, "velocity": 72}, {"time": 3490, "pitch": 68, "duration": 2, "velocity": 71}, {"time": 3496, "pitch": 60, "duration": 2, "velocity": 72}, {"time": 3496, "pitch": 65, "duration": 2, "velocity": 76}, {"time": 3496, "pitch": 68, "duration": 2, "velocity": 74}, {"time": 3502, "pitch": 48, "duration": 5, "velocity": 83}, {"time": 3502, "pitch": 60, "duration": 1, "velocity": 67}, {"time": 3502, "pitch": 60, "duration": 1, "velocity": 80}, {"time": 3502, "pitch": 65, "duration": 1, "velocity": 69}, {"time": 3502, "pitch": 68, "duration": 2, "velocity": 72}, {"time": 3508, "pitch": 49, "duration": 9, "velocity": 82}, {"time": 3508, "pitch": 61, "duration": 3, "velocity": 74}, {"time": 3508, "pitch": 61, "duration": 3, "velocity": 81}, {"time": 3508, "pitch": 65, "duration": 3, "velocity": 77}, {"time": 3508, "pitch": 68, "duration": 3, "velocity": 76}, {"time": 3514, "pitch": 61, "duration": 2, "velocity": 68}, {"time": 3514, "pitch": 65, "duration": 2, "velocity": 74}, {"time": 3514, "pitch": 68, "duration": 2, "velocity": 68}, {"time": 3520, "pitch": 61, "duration": 2, "velocity": 75}, {"time": 3520, "pitch": 65, "duration": 2, "velocity": 79}, {"time": 3520, "pitch": 68, "duration": 2, "velocity": 79}, {"time": 3526, "pitch": 61, "duration": 2, "velocity": 70}, {"time": 3526, "pitch": 65, "duration": 2, "velocity": 75}, {"time": 3526, "pitch": 68, "duration": 2, "velocity": 73}, {"time": 3532, "pitch": 39, "duration": 10, "velocity": 82}, {"time": 3532, "pitch": 51, "duration": 9, "velocity": 82}, {"time": 3532, "pitch": 63, "duration": 4, "velocity": 77}, {"time": 3532, "pitch": 67, "duration": 4, "velocity": 80}, {"time": 3538, "pitch": 63, "duration": 2, "velocity": 69}, {"time": 3538, "pitch": 67, "duration": 2, "velocity": 70}, {"time": 3544, "pitch": 63, "duration": 2, "velocity": 75}, {"time": 3544, "pitch": 67, "duration": 2, "velocity": 75}, {"time": 3550, "pitch": 39, "duration": 4, "velocity": 81}, {"time": 3550, "pitch": 51, "duration": 5, "velocity": 75}, {"time": 3550, "pitch": 63, "duration": 3, "velocity": 75}, {"time": 3550, "pitch": 67, "duration": 3, "velocity": 75}, {"time": 3556, "pitch": 41, "duration": 13, "velocity": 81}, {"time": 3556, "pitch": 53, "duration": 13, "velocity": 80}, {"time": 3556, "pitch": 60, "duration": 3, "velocity": 74}, {"time": 3556, "pitch": 65, "duration": 3, "velocity": 76}, {"time": 3556, "pitch": 68, "duration": 3, "velocity": 74}, {"time": 3562, "pitch": 60, "duration": 2, "velocity": 67}, {"time": 3562, "pitch": 65, "duration": 2, "velocity": 69}, {"time": 3562, "pitch": 68, "duration": 2, "velocity": 69}, {"time": 3568, "pitch": 60, "duration": 3, "velocity": 81}, {"time": 3568, "pitch": 65, "duration": 3, "velocity": 83}, {"time": 3568, "pitch": 68, "duration": 3, "velocity": 81}, {"time": 3574, "pitch": 60, "duration": 3, "velocity": 80}, {"time": 3574, "pitch": 65, "duration": 3, "velocity": 81}, {"time": 3574, "pitch": 68, "duration": 3, "velocity": 78}, {"time": 3580, "pitch": 37, "duration": 8, "velocity": 79}, {"time": 3580, "pitch": 49, "duration": 7, "velocity": 80}, {"time": 3580, "pitch": 61, "duration": 2, "velocity": 74}, {"time": 3580, "pitch": 65, "duration": 2, "velocity": 75}, {"time": 3580, "pitch": 68, "duration": 2, "velocity": 74}, {"time": 3586, "pitch": 61, "duration": 2, "velocity": 71}, {"time": 3586, "pitch": 65, "duration": 1, "velocity": 75}, {"time": 3586, "pitch": 68, "duration": 2, "velocity": 72}, {"time": 3592, "pitch": 61, "duration": 2, "velocity": 74}, {"time": 3592, "pitch": 65, "duration": 2, "velocity": 76}, {"time": 3592, "pitch": 68, "duration": 2, "velocity": 74}, {"time": 3598, "pitch": 37, "duration": 4, "velocity": 69}, {"time": 3598, "pitch": 49, "duration": 4, "velocity": 76}, {"time": 3598, "pitch": 61, "duration": 2, "velocity": 72}, {"time": 3598, "pitch": 65, "duration": 2, "velocity": 76}, {"time": 3598, "pitch": 68, "duration": 3, "velocity": 74}, {"time": 3604, "pitch": 39, "duration": 10, "velocity": 76}, {"time": 3604, "pitch": 51, "duration": 9, "velocity": 80}, {"time": 3604, "pitch": 63, "duration": 4, "velocity": 75}, {"time": 3604, "pitch": 67, "duration": 5, "velocity": 79}, {"time": 3610, "pitch": 63, "duration": 2, "velocity": 71}, {"time": 3610, "pitch": 67, "duration": 2, "velocity": 72}, {"time": 3616, "pitch": 63, "duration": 3, "velocity": 81}, {"time": 3616, "pitch": 67, "duration": 3, "velocity": 84}, {"time": 3622, "pitch": 63, "duration": 2, "velocity": 70}, {"time": 3622, "pitch": 67, "duration": 3, "velocity": 77}, {"time": 3628, "pitch": 44, "duration": 8, "velocity": 75}, {"time": 3628, "pitch": 56, "duration": 8, "velocity": 75}, {"time": 3628, "pitch": 60, "duration": 5, "velocity": 70}, {"time": 3628, "pitch": 63, "duration": 4, "velocity": 72}, {"time": 3628, "pitch": 68, "duration": 5, "velocity": 74}, {"time": 3634, "pitch": 60, "duration": 2, "velocity": 67}, {"time": 3634, "pitch": 63, "duration": 2, "velocity": 75}, {"time": 3634, "pitch": 68, "duration": 1, "velocity": 68}, {"time": 3640, "pitch": 60, "duration": 2, "velocity": 69}, {"time": 3640, "pitch": 63, "duration": 2, "velocity": 70}, {"time": 3640, "pitch": 68, "duration": 2, "velocity": 65}, {"time": 3646, "pitch": 46, "duration": 4, "velocity": 73}, {"time": 3646, "pitch": 58, "duration": 5, "velocity": 69}, {"time": 3646, "pitch": 60, "duration": 2, "velocity": 65}, {"time": 3646, "pitch": 63, "duration": 1, "velocity": 63}, {"time": 3646, "pitch": 68, "duration": 2, "velocity": 69}, {"time": 3652, "pitch": 48, "duration": 10, "velocity": 82}, {"time": 3652, "pitch": 60, "duration": 4, "velocity": 75}, {"time": 3652, "pitch": 64, "duration": 4, "velocity": 78}, {"time": 3652, "pitch": 67, "duration": 4, "velocity": 78}, {"time": 3658, "pitch": 60, "duration": 2, "velocity": 63}, {"time": 3658, "pitch": 64, "duration": 2, "velocity": 69}, {"time": 3658, "pitch": 67, "duration": 2, "velocity": 68}, {"time": 3664, "pitch": 60, "duration": 1, "velocity": 75}, {"time": 3664, "pitch": 64, "duration": 2, "velocity": 73}, {"time": 3664, "pitch": 67, "duration": 3, "velocity": 74}, {"time": 3670, "pitch": 60, "duration": 3, "velocity": 76}, {"time": 3670, "pitch": 64, "duration": 2, "velocity": 76}, {"time": 3670, "pitch": 67, "duration": 3, "velocity": 75}, {"time": 3676, "pitch": 41, "duration": 12, "velocity": 80}, {"time": 3676, "pitch": 53, "duration": 11, "velocity": 71}, {"time": 3676, "pitch": 60, "duration": 5, "velocity": 73}, {"time": 3676, "pitch": 65, "duration": 5, "velocity": 65}, {"time": 3676, "pitch": 68, "duration": 5, "velocity": 56}, {"time": 3682, "pitch": 60, "duration": 2, "velocity": 65}, {"time": 3682, "pitch": 65, "duration": 2, "velocity": 71}, {"time": 3682, "pitch": 68, "duration": 2, "velocity": 70}, {"time": 3688, "pitch": 60, "duration": 3, "velocity": 73}, {"time": 3688, "pitch": 65, "duration": 3, "velocity": 79}, {"time": 3688, "pitch": 68, "duration": 3, "velocity": 75}, {"time": 3694, "pitch": 39, "duration": 4, "velocity": 73}, {"time": 3694, "pitch": 51, "duration": 5, "velocity": 75}, {"time": 3694, "pitch": 60, "duration": 2, "velocity": 71}, {"time": 3694, "pitch": 65, "duration": 2, "velocity": 74}, {"time": 3694, "pitch": 68, "duration": 2, "velocity": 70}, {"time": 3700, "pitch": 37, "duration": 11, "velocity": 74}, {"time": 3700, "pitch": 49, "duration": 11, "velocity": 79}, {"time": 3700, "pitch": 61, "duration": 4, "velocity": 72}, {"time": 3700, "pitch": 65, "duration": 4, "velocity": 77}, {"time": 3700, "pitch": 68, "duration": 4, "velocity": 75}, {"time": 3706, "pitch": 61, "duration": 2, "velocity": 67}, {"time": 3706, "pitch": 65, "duration": 2, "velocity": 74}, {"time": 3706, "pitch": 68, "duration": 2, "velocity": 69}, {"time": 3712, "pitch": 61, "duration": 9, "velocity": 80}, {"time": 3712, "pitch": 65, "duration": 8, "velocity": 83}, {"time": 3712, "pitch": 68, "duration": 9, "velocity": 81}, {"time": 3724, "pitch": 44, "duration": 11, "velocity": 81}, {"time": 3724, "pitch": 56, "duration": 11, "velocity": 76}, {"time": 3724, "pitch": 63, "duration": 4, "velocity": 76}, {"time": 3724, "pitch": 68, "duration": 4, "velocity": 73}, {"time": 3724, "pitch": 72, "duration": 4, "velocity": 80}, {"time": 3730, "pitch": 63, "duration": 2, "velocity": 68}, {"time": 3730, "pitch": 68, "duration": 2, "velocity": 72}, {"time": 3730, "pitch": 72, "duration": 2, "velocity": 72}, {"time": 3736, "pitch": 63, "duration": 2, "velocity": 80}, {"time": 3736, "pitch": 68, "duration": 3, "velocity": 80}, {"time": 3736, "pitch": 72, "duration": 3, "velocity": 81}, {"time": 3742, "pitch": 44, "duration": 4, "velocity": 74}, {"time": 3742, "pitch": 56, "duration": 6, "velocity": 75}, {"time": 3742, "pitch": 63, "duration": 3, "velocity": 75}, {"time": 3742, "pitch": 68, "duration": 2, "velocity": 75}, {"time": 3742, "pitch": 72, "duration": 3, "velocity": 78}, {"time": 3748, "pitch": 39, "duration": 11, "velocity": 70}, {"time": 3748, "pitch": 51, "duration": 11, "velocity": 72}, {"time": 3748, "pitch": 63, "duration": 2, "velocity": 65}, {"time": 3748, "pitch": 67, "duration": 3, "velocity": 68}, {"time": 3754, "pitch": 63, "duration": 2, "velocity": 72}, {"time": 3754, "pitch": 67, "duration": 2, "velocity": 74}, {"time": 3760, "pitch": 63, "duration": 10, "velocity": 80}, {"time": 3760, "pitch": 67, "duration": 10, "velocity": 85}, {"time": 3772, "pitch": 48, "duration": 14, "velocity": 77}, {"time": 3772, "pitch": 60, "duration": 3, "velocity": 74}, {"time": 3772, "pitch": 60, "duration": 3, "velocity": 75}, {"time": 3772, "pitch": 63, "duration": 3, "velocity": 81}, {"time": 3772, "pitch": 67, "duration": 3, "velocity": 78}, {"time": 3778, "pitch": 60, "duration": 1, "velocity": 58}, {"time": 3778, "pitch": 63, "duration": 2, "velocity": 67}, {"time": 3778, "pitch": 67, "duration": 2, "velocity": 63}, {"time": 3784, "pitch": 60, "duration": 1, "velocity": 65}, {"time": 3784, "pitch": 63, "duration": 2, "velocity": 73}, {"time": 3784, "pitch": 67, "duration": 2, "velocity": 68}, {"time": 3790, "pitch": 46, "duration": 4, "velocity": 76}, {"time": 3790, "pitch": 58, "duration": 5, "velocity": 73}, {"time": 3790, "pitch": 60, "duration": 2, "velocity": 61}, {"time": 3790, "pitch": 63, "duration": 2, "velocity": 68}, {"time": 3790, "pitch": 67, "duration": 2, "velocity": 66}, {"time": 3796, "pitch": 48, "duration": 6, "velocity": 84}, {"time": 3796, "pitch": 60, "duration": 6, "velocity": 80}, {"time": 3796, "pitch": 60, "duration": 6, "velocity": 81}, {"time": 3796, "pitch": 67, "duration": 18, "velocity": 82}, {"time": 3820, "pitch": 41, "duration": 11, "velocity": 79}, {"time": 3820, "pitch": 53, "duration": 10, "velocity": 81}, {"time": 3820, "pitch": 60, "duration": 10, "velocity": 77}, {"time": 3820, "pitch": 65, "duration": 9, "velocity": 81}, {"time": 3832, "pitch": 65, "duration": 2, "velocity": 78}, {"time": 3832, "pitch": 68, "duration": 2, "velocity": 74}, {"time": 3838, "pitch": 39, "duration": 6, "velocity": 75}, {"time": 3838, "pitch": 51, "duration": 6, "velocity": 78}, {"time": 3838, "pitch": 60, "duration": 3, "velocity": 64}, {"time": 3838, "pitch": 65, "duration": 3, "velocity": 68}, {"time": 3838, "pitch": 68, "duration": 2, "velocity": 67}, {"time": 3844, "pitch": 41, "duration": 15, "velocity": 80}, {"time": 3844, "pitch": 53, "duration": 15, "velocity": 80}, {"time": 3844, "pitch": 60, "duration": 2, "velocity": 66}, {"time": 3844, "pitch": 65, "duration": 2, "velocity": 66}, {"time": 3844, "pitch": 68, "duration": 2, "velocity": 66}, {"time": 3850, "pitch": 60, "duration": 2, "velocity": 66}, {"time": 3850, "pitch": 65, "duration": 2, "velocity": 70}, {"time": 3850, "pitch": 68, "duration": 2, "velocity": 69}, {"time": 3856, "pitch": 60, "duration": 9, "velocity": 80}, {"time": 3856, "pitch": 65, "duration": 8, "velocity": 85}, {"time": 3856, "pitch": 68, "duration": 8, "velocity": 80}, {"time": 3868, "pitch": 41, "duration": 16, "velocity": 86}, {"time": 3868, "pitch": 53, "duration": 16, "velocity": 86}, {"time": 3868, "pitch": 60, "duration": 4, "velocity": 75}, {"time": 3868, "pitch": 65, "duration": 7, "velocity": 79}, {"time": 3874, "pitch": 60, "duration": 3, "velocity": 68}, {"time": 3880, "pitch": 60, "duration": 2, "velocity": 81}, {"time": 3880, "pitch": 65, "duration": 7, "velocity": 89}, {"time": 3880, "pitch": 68, "duration": 8, "velocity": 82}, {"time": 3886, "pitch": 60, "duration": 2, "velocity": 75}, {"time": 3892, "pitch": 37, "duration": 16, "velocity": 82}, {"time": 3892, "pitch": 49, "duration": 16, "velocity": 82}, {"time": 3892, "pitch": 61, "duration": 5, "velocity": 71}, {"time": 3892, "pitch": 65, "duration": 5, "velocity": 78}, {"time": 3892, "pitch": 68, "duration": 5, "velocity": 74}, {"time": 3898, "pitch": 56, "duration": 9, "velocity": 67}, {"time": 3904, "pitch": 61, "duration": 2, "velocity": 82}, {"time": 3904, "pitch": 68, "duration": 2, "velocity": 81}, {"time": 3916, "pitch": 39, "duration": 18, "velocity": 81}, {"time": 3916, "pitch": 51, "duration": 18, "velocity": 81}, {"time": 3916, "pitch": 63, "duration": 4, "velocity": 74}, {"time": 3916, "pitch": 67, "duration": 5, "velocity": 76}, {"time": 3922, "pitch": 58, "duration": 14, "velocity": 65}, {"time": 3928, "pitch": 63, "duration": 2, "velocity": 71}, {"time": 3928, "pitch": 67, "duration": 4, "velocity": 82}, {"time": 3928, "pitch": 70, "duration": 9, "velocity": 80}, {"time": 3934, "pitch": 63, "duration": 3, "velocity": 72}, {"time": 3940, "pitch": 41, "duration": 13, "velocity": 82}, {"time": 3940, "pitch": 53, "duration": 13, "velocity": 82}, {"time": 3940, "pitch": 65, "duration": 6, "velocity": 76}, {"time": 3940, "pitch": 68, "duration": 6, "velocity": 70}, {"time": 3946, "pitch": 60, "duration": 7, "velocity": 66}, {"time": 3952, "pitch": 65, "duration": 2, "velocity": 81}, {"time": 3952, "pitch": 68, "duration": 2, "velocity": 81}, {"time": 3952, "pitch": 72, "duration": 2, "velocity": 81}, {"time": 3964, "pitch": 37, "duration": 19, "velocity": 80}, {"time": 3964, "pitch": 49, "duration": 19, "velocity": 80}, {"time": 3964, "pitch": 61, "duration": 6, "velocity": 69}, {"time": 3964, "pitch": 65, "duration": 6, "velocity": 77}, {"time": 3970, "pitch": 56, "duration": 13, "velocity": 68}, {"time": 3976, "pitch": 61, "duration": 6, "velocity": 82}, {"time": 3982, "pitch": 65, "duration": 2, "velocity": 83}, {"time": 3988, "pitch": 39, "duration": 17, "velocity": 82}, {"time": 3988, "pitch": 51, "duration": 17, "velocity": 82}, {"time": 3988, "pitch": 63, "duration": 5, "velocity": 72}, {"time": 3988, "pitch": 67, "duration": 5, "velocity": 72}, {"time": 3994, "pitch": 58, "duration": 11, "velocity": 65}, {"time": 4000, "pitch": 63, "duration": 2, "velocity": 73}, {"time": 4000, "pitch": 67, "duration": 4, "velocity": 76}, {"time": 4000, "pitch": 70, "duration": 5, "velocity": 76}, {"time": 4012, "pitch": 44, "duration": 11, "velocity": 82}, {"time": 4012, "pitch": 56, "duration": 11, "velocity": 82}, {"time": 4012, "pitch": 63, "duration": 8, "velocity": 76}, {"time": 4012, "pitch": 68, "duration": 8, "velocity": 77}, {"time": 4018, "pitch": 60, "duration": 6, "velocity": 66}, {"time": 4024, "pitch": 63, "duration": 5, "velocity": 80}, {"time": 4024, "pitch": 68, "duration": 12, "velocity": 80}, {"time": 4030, "pitch": 34, "duration": 2, "velocity": 81}, {"time": 4030, "pitch": 46, "duration": 2, "velocity": 81}, {"time": 4036, "pitch": 36, "duration": 13, "velocity": 85}, {"time": 4036, "pitch": 48, "duration": 13, "velocity": 85}, {"time": 4042, "pitch": 60, "duration": 4, "velocity": 81}, {"time": 4048, "pitch": 60, "duration": 3, "velocity": 80}, {"time": 4048, "pitch": 64, "duration": 6, "velocity": 82}, {"time": 4048, "pitch": 67, "duration": 7, "velocity": 81}, {"time": 4054, "pitch": 60, "duration": 3, "velocity": 83}, {"time": 4060, "pitch": 41, "duration": 14, "velocity": 85}, {"time": 4060, "pitch": 53, "duration": 14, "velocity": 85}, {"time": 4060, "pitch": 60, "duration": 3, "velocity": 80}, {"time": 4060, "pitch": 65, "duration": 7, "velocity": 82}, {"time": 4066, "pitch": 60, "duration": 2, "velocity": 72}, {"time": 4072, "pitch": 60, "duration": 6, "velocity": 81}, {"time": 4072, "pitch": 65, "duration": 10, "velocity": 82}, {"time": 4072, "pitch": 68, "duration": 11, "velocity": 80}, {"time": 4078, "pitch": 39, "duration": 3, "velocity": 86}, {"time": 4078, "pitch": 51, "duration": 3, "velocity": 86}, {"time": 4084, "pitch": 37, "duration": 21, "velocity": 85}, {"time": 4084, "pitch": 49, "duration": 21, "velocity": 85}, {"time": 4084, "pitch": 61, "duration": 6, "velocity": 79}, {"time": 4084, "pitch": 65, "duration": 7, "velocity": 81}, {"time": 4090, "pitch": 56, "duration": 14, "velocity": 74}, {"time": 4096, "pitch": 61, "duration": 2, "velocity": 81}, {"time": 4096, "pitch": 65, "duration": 11, "velocity": 89}, {"time": 4096, "pitch": 68, "duration": 11, "velocity": 84}, {"time": 4102, "pitch": 61, "duration": 5, "velocity": 72}, {"time": 4108, "pitch": 32, "duration": 16, "velocity": 81}, {"time": 4108, "pitch": 44, "duration": 16, "velocity": 81}, {"time": 4108, "pitch": 56, "duration": 8, "velocity": 81}, {"time": 4108, "pitch": 63, "duration": 8, "velocity": 82}, {"time": 4114, "pitch": 39, "duration": 9, "velocity": 76}, {"time": 4114, "pitch": 51, "duration": 9, "velocity": 76}, {"time": 4120, "pitch": 56, "duration": 1, "velocity": 68}, {"time": 4120, "pitch": 60, "duration": 11, "velocity": 81}, {"time": 4120, "pitch": 63, "duration": 11, "velocity": 80}, {"time": 4120, "pitch": 68, "duration": 11, "velocity": 70}, {"time": 4126, "pitch": 37, "duration": 5, "velocity": 94}, {"time": 4126, "pitch": 49, "duration": 5, "velocity": 94}, {"time": 4132, "pitch": 39, "duration": 20, "velocity": 81}, {"time": 4132, "pitch": 51, "duration": 20, "velocity": 81}, {"time": 4132, "pitch": 63, "duration": 8, "velocity": 81}, {"time": 4132, "pitch": 67, "duration": 9, "velocity": 80}, {"time": 4138, "pitch": 58, "duration": 8, "velocity": 71}, {"time": 4144, "pitch": 63, "duration": 4, "velocity": 80}, {"time": 4150, "pitch": 58, "duration": 3, "velocity": 80}, {"time": 4156, "pitch": 36, "duration": 21, "velocity": 80}, {"time": 4156, "pitch": 48, "duration": 21, "velocity": 80}, {"time": 4156, "pitch": 60, "duration": 7, "velocity": 76}, {"time": 4156, "pitch": 63, "duration": 7, "velocity": 80}, {"time": 4162, "pitch": 55, "duration": 14, "velocity": 46}, {"time": 4168, "pitch": 60, "duration": 3, "velocity": 81}, {"time": 4168, "pitch": 63, "duration": 3, "velocity": 87}, {"time": 4168, "pitch": 67, "duration": 5, "velocity": 85}, {"time": 4174, "pitch": 60, "duration": 2, "velocity": 67}, {"time": 4180, "pitch": 36, "duration": 18, "velocity": 80}, {"time": 4180, "pitch": 48, "duration": 18, "velocity": 80}, {"time": 4180, "pitch": 60, "duration": 8, "velocity": 75}, {"time": 4180, "pitch": 63, "duration": 8, "velocity": 74}, {"time": 4186, "pitch": 55, "duration": 9, "velocity": 59}, {"time": 4192, "pitch": 60, "duration": 2, "velocity": 81}, {"time": 4192, "pitch": 63, "duration": 7, "velocity": 91}, {"time": 4192, "pitch": 67, "duration": 7, "velocity": 86}, {"time": 4198, "pitch": 60, "duration": 3, "velocity": 77}, {"time": 4204, "pitch": 41, "duration": 18, "velocity": 79}, {"time": 4204, "pitch": 53, "duration": 18, "velocity": 79}, {"time": 4204, "pitch": 60, "duration": 4, "velocity": 80}, {"time": 4204, "pitch": 65, "duration": 8, "velocity": 82}, {"time": 4216, "pitch": 60, "duration": 2, "velocity": 81}, {"time": 4216, "pitch": 65, "duration": 8, "velocity": 87}, {"time": 4216, "pitch": 68, "duration": 7, "velocity": 82}, {"time": 4222, "pitch": 46, "duration": 6, "velocity": 80}, {"time": 4222, "pitch": 60, "duration": 4, "velocity": 74}, {"time": 4228, "pitch": 48, "duration": 12, "velocity": 79}, {"time": 4234, "pitch": 60, "duration": 2, "velocity": 74}, {"time": 4240, "pitch": 60, "duration": 3, "velocity": 85}, {"time": 4240, "pitch": 65, "duration": 12, "velocity": 89}, {"time": 4240, "pitch": 68, "duration": 12, "velocity": 83}, {"time": 4246, "pitch": 39, "duration": 5, "velocity": 91}, {"time": 4246, "pitch": 51, "duration": 5, "velocity": 91}, {"time": 4252, "pitch": 41, "duration": 11, "velocity": 76}, {"time": 4252, "pitch": 53, "duration": 8, "velocity": 81}, {"time": 4252, "pitch": 60, "duration": 4, "velocity": 72}, {"time": 4252, "pitch": 65, "duration": 1, "velocity": 75}, {"time": 4252, "pitch": 68, "duration": 1, "velocity": 74}, {"time": 4258, "pitch": 60, "duration": 2, "velocity": 68}, {"time": 4258, "pitch": 65, "duration": 2, "velocity": 72}, {"time": 4258, "pitch": 68, "duration": 2, "velocity": 71}, {"time": 4264, "pitch": 60, "duration": 2, "velocity": 72}, {"time": 4264, "pitch": 65, "duration": 2, "velocity": 76}, {"time": 4264, "pitch": 68, "duration": 2, "velocity": 74}, {"time": 4270, "pitch": 48, "duration": 5, "velocity": 83}, {"time": 4270, "pitch": 60, "duration": 1, "velocity": 67}, {"time": 4270, "pitch": 60, "duration": 1, "velocity": 80}, {"time": 4270, "pitch": 65, "duration": 1, "velocity": 69}, {"time": 4270, "pitch": 68, "duration": 2, "velocity": 72}, {"time": 4276, "pitch": 49, "duration": 9, "velocity": 82}, {"time": 4276, "pitch": 61, "duration": 3, "velocity": 74}, {"time": 4276, "pitch": 61, "duration": 3, "velocity": 81}, {"time": 4276, "pitch": 65, "duration": 3, "velocity": 77}, {"time": 4276, "pitch": 68, "duration": 3, "velocity": 76}, {"time": 4282, "pitch": 61, "duration": 2, "velocity": 68}, {"time": 4282, "pitch": 65, "duration": 2, "velocity": 74}, {"time": 4282, "pitch": 68, "duration": 2, "velocity": 68}, {"time": 4288, "pitch": 61, "duration": 2, "velocity": 75}, {"time": 4288, "pitch": 65, "duration": 2, "velocity": 79}, {"time": 4288, "pitch": 68, "duration": 2, "velocity": 79}, {"time": 4294, "pitch": 61, "duration": 2, "velocity": 70}, {"time": 4294, "pitch": 65, "duration": 2, "velocity": 75}, {"time": 4294, "pitch": 68, "duration": 2, "velocity": 73}, {"time": 4300, "pitch": 39, "duration": 10, "velocity": 82}, {"time": 4300, "pitch": 51, "duration": 9, "velocity": 82}, {"time": 4300, "pitch": 63, "duration": 4, "velocity": 77}, {"time": 4300, "pitch": 67, "duration": 4, "velocity": 80}, {"time": 4306, "pitch": 63, "duration": 2, "velocity": 69}, {"time": 4306, "pitch": 67, "duration": 2, "velocity": 70}, {"time": 4312, "pitch": 63, "duration": 2, "velocity": 75}, {"time": 4312, "pitch": 67, "duration": 2, "velocity": 75}, {"time": 4318, "pitch": 39, "duration": 4, "velocity": 81}, {"time": 4318, "pitch": 51, "duration": 5, "velocity": 75}, {"time": 4318, "pitch": 63, "duration": 3, "velocity": 75}, {"time": 4318, "pitch": 67, "duration": 3, "velocity": 75}, {"time": 4324, "pitch": 41, "duration": 13, "velocity": 81}, {"time": 4324, "pitch": 53, "duration": 13, "velocity": 80}, {"time": 4324, "pitch": 60, "duration": 3, "velocity": 74}, {"time": 4324, "pitch": 65, "duration": 3, "velocity": 76}, {"time": 4324, "pitch": 68, "duration": 3, "velocity": 74}, {"time": 4330, "pitch": 60, "duration": 2, "velocity": 67}, {"time": 4330, "pitch": 65, "duration": 2, "velocity": 69}, {"time": 4330, "pitch": 68, "duration": 2, "velocity": 69}, {"time": 4336, "pitch": 60, "duration": 3, "velocity": 81}, {"time": 4336, "pitch": 65, "duration": 3, "velocity": 83}, {"time": 4336, "pitch": 68, "duration": 3, "velocity": 81}, {"time": 4342, "pitch": 60, "duration": 3, "velocity": 80}, {"time": 4342, "pitch": 65, "duration": 3, "velocity": 81}, {"time": 4342, "pitch": 68, "duration": 3, "velocity": 78}, {"time": 4348, "pitch": 37, "duration": 8, "velocity": 79}, {"time": 4348, "pitch": 49, "duration": 7, "velocity": 80}, {"time": 4348, "pitch": 61, "duration": 2, "velocity": 74}, {"time": 4348, "pitch": 65, "duration": 2, "velocity": 75}, {"time": 4348, "pitch": 68, "duration": 2, "velocity": 74}, {"time": 4354, "pitch": 61, "duration": 2, "velocity": 71}, {"time": 4354, "pitch": 65, "duration": 1, "velocity": 75}, {"time": 4354, "pitch": 68, "duration": 2, "velocity": 72}, {"time": 4360, "pitch": 61, "duration": 2, "velocity": 74}, {"time": 4360, "pitch": 65, "duration": 2, "velocity": 76}, {"time": 4360, "pitch": 68, "duration": 2, "velocity": 74}, {"time": 4366, "pitch": 37, "duration": 4, "velocity": 69}, {"time": 4366, "pitch": 49, "duration": 4, "velocity": 76}, {"time": 4366, "pitch": 61, "duration": 2, "velocity": 72}, {"time": 4366, "pitch": 65, "duration": 2, "velocity": 76}, {"time": 4366, "pitch": 68, "duration": 3, "velocity": 74}, {"time": 4372, "pitch": 39, "duration": 10, "velocity": 76}, {"time": 4372, "pitch": 51, "duration": 9, "velocity": 80}, {"time": 4372, "pitch": 63, "duration": 4, "velocity": 75}, {"time": 4372, "pitch": 67, "duration": 5, "velocity": 79}, {"time": 4378, "pitch": 63, "duration": 2, "velocity": 71}, {"time": 4378, "pitch": 67, "duration": 2, "velocity": 72}, {"time": 4384, "pitch": 63, "duration": 3, "velocity": 81}, {"time": 4384, "pitch": 67, "duration": 3, "velocity": 84}, {"time": 4390, "pitch": 63, "duration": 2, "velocity": 70}, {"time": 4390, "pitch": 67, "duration": 3, "velocity": 77}, {"time": 4396, "pitch": 44, "duration": 8, "velocity": 75}, {"time": 4396, "pitch": 56, "duration": 8, "velocity": 75}, {"time": 4396, "pitch": 60, "duration": 5, "velocity": 70}, {"time": 4396, "pitch": 63, "duration": 4, "velocity": 72}, {"time": 4396, "pitch": 68, "duration": 5, "velocity": 74}, {"time": 4402, "pitch": 60, "duration": 2, "velocity": 67}, {"time": 4402, "pitch": 63, "duration": 2, "velocity": 75}, {"time": 4402, "pitch": 68, "duration": 1, "velocity": 68}, {"time": 4408, "pitch": 60, "duration": 2, "velocity": 69}, {"time": 4408, "pitch": 63, "duration": 2, "velocity": 70}, {"time": 4408, "pitch": 68, "duration": 2, "velocity": 65}, {"time": 4414, "pitch": 46, "duration": 4, "velocity": 73}, {"time": 4414, "pitch": 58, "duration": 5, "velocity": 69}, {"time": 4414, "pitch": 60, "duration": 2, "velocity": 65}, {"time": 4414, "pitch": 63, "duration": 1, "velocity": 63}, {"time": 4414, "pitch": 68, "duration": 2, "velocity": 69}, {"time": 4420, "pitch": 48, "duration": 10, "velocity": 82}, {"time": 4420, "pitch": 60, "duration": 4, "velocity": 75}, {"time": 4420, "pitch": 64, "duration": 4, "velocity": 78}, {"time": 4420, "pitch": 67, "duration": 4, "velocity": 78}, {"time": 4426, "pitch": 60, "duration": 2, "velocity": 63}, {"time": 4426, "pitch": 64, "duration": 2, "velocity": 69}, {"time": 4426, "pitch": 67, "duration": 2, "velocity": 68}, {"time": 4432, "pitch": 60, "duration": 1, "velocity": 75}, {"time": 4432, "pitch": 64, "duration": 2, "velocity": 73}, {"time": 4432, "pitch": 67, "duration": 3, "velocity": 74}, {"time": 4438, "pitch": 60, "duration": 3, "velocity": 76}, {"time": 4438, "pitch": 64, "duration": 2, "velocity": 76}, {"time": 4438, "pitch": 67, "duration": 3, "velocity": 75}, {"time": 4444, "pitch": 41, "duration": 12, "velocity": 80}, {"time": 4444, "pitch": 53, "duration": 11, "velocity": 71}, {"time": 4444, "pitch": 60, "duration": 5, "velocity": 73}, {"time": 4444, "pitch": 65, "duration": 5, "velocity": 65}, {"time": 4444, "pitch": 68, "duration": 5, "velocity": 56}, {"time": 4450, "pitch": 60, "duration": 2, "velocity": 65}, {"time": 4450, "pitch": 65, "duration": 2, "velocity": 71}, {"time": 4450, "pitch": 68, "duration": 2, "velocity": 70}, {"time": 4456, "pitch": 60, "duration": 3, "velocity": 73}, {"time": 4456, "pitch": 65, "duration": 3, "velocity": 79}, {"time": 4456, "pitch": 68, "duration": 3, "velocity": 75}, {"time": 4462, "pitch": 39, "duration": 4, "velocity": 73}, {"time": 4462, "pitch": 51, "duration": 5, "velocity": 75}, {"time": 4462, "pitch": 60, "duration": 2, "velocity": 71}, {"time": 4462, "pitch": 65, "duration": 2, "velocity": 74}, {"time": 4462, "pitch": 68, "duration": 2, "velocity": 70}, {"time": 4468, "pitch": 37, "duration": 11, "velocity": 74}, {"time": 4468, "pitch": 49, "duration": 11, "velocity": 79}, {"time": 4468, "pitch": 61, "duration": 4, "velocity": 72}, {"time": 4468, "pitch": 65, "duration": 4, "velocity": 77}, {"time": 4468, "pitch": 68, "duration": 4, "velocity": 75}, {"time": 4474, "pitch": 61, "duration": 2, "velocity": 67}, {"time": 4474, "pitch": 65, "duration": 2, "velocity": 74}, {"time": 4474, "pitch": 68, "duration": 2, "velocity": 69}, {"time": 4480, "pitch": 61, "duration": 9, "velocity": 80}, {"time": 4480, "pitch": 65, "duration": 8, "velocity": 83}, {"time": 4480, "pitch": 68, "duration": 9, "velocity": 81}, {"time": 4492, "pitch": 44, "duration": 11, "velocity": 81}, {"time": 4492, "pitch": 56, "duration": 11, "velocity": 76}, {"time": 4492, "pitch": 63, "duration": 4, "velocity": 76}, {"time": 4492, "pitch": 68, "duration": 4, "velocity": 73}, {"time": 4492, "pitch": 72, "duration": 4, "velocity": 80}, {"time": 4498, "pitch": 63, "duration": 2, "velocity": 68}, {"time": 4498, "pitch": 68, "duration": 2, "velocity": 72}, {"time": 4498, "pitch": 72, "duration": 2, "velocity": 72}, {"time": 4504, "pitch": 63, "duration": 2, "velocity": 80}, {"time": 4504, "pitch": 68, "duration": 3, "velocity": 80}, {"time": 4504, "pitch": 72, "duration": 3, "velocity": 81}, {"time": 4510, "pitch": 44, "duration": 4, "velocity": 74}, {"time": 4510, "pitch": 56, "duration": 6, "velocity": 75}, {"time": 4510, "pitch": 63, "duration": 3, "velocity": 75}, {"time": 4510, "pitch": 68, "duration": 2, "velocity": 75}, {"time": 4510, "pitch": 72, "duration": 3, "velocity": 78}, {"time": 4516, "pitch": 39, "duration": 11, "velocity": 70}, {"time": 4516, "pitch": 51, "duration": 11, "velocity": 72}, {"time": 4516, "pitch": 63, "duration": 2, "velocity": 65}, {"time": 4516, "pitch": 67, "duration": 3, "velocity": 68}, {"time": 4522, "pitch": 63, "duration": 2, "velocity": 72}, {"time": 4522, "pitch": 67, "duration": 2, "velocity": 74}, {"time": 4528, "pitch": 63, "duration": 10, "velocity": 80}, {"time": 4528, "pitch": 67, "duration": 10, "velocity": 85}, {"time": 4540, "pitch": 48, "duration": 14, "velocity": 77}, {"time": 4540, "pitch": 60, "duration": 3, "velocity": 74}, {"time": 4540, "pitch": 60, "duration": 3, "velocity": 75}, {"time": 4540, "pitch": 63, "duration": 3, "velocity": 81}, {"time": 4540, "pitch": 67, "duration": 3, "velocity": 78}, {"time": 4546, "pitch": 60, "duration": 1, "velocity": 58}, {"time": 4546, "pitch": 63, "duration": 2, "velocity": 67}, {"time": 4546, "pitch": 67, "duration": 2, "velocity": 63}, {"time": 4552, "pitch": 60, "duration": 1, "velocity": 65}, {"time": 4552, "pitch": 63, "duration": 2, "velocity": 73}, {"time": 4552, "pitch": 67, "duration": 2, "velocity": 68}, {"time": 4558, "pitch": 46, "duration": 4, "velocity": 76}, {"time": 4558, "pitch": 58, "duration": 5, "velocity": 73}, {"time": 4558, "pitch": 60, "duration": 2, "velocity": 61}, {"time": 4558, "pitch": 63, "duration": 2, "velocity": 68}, {"time": 4558, "pitch": 67, "duration": 2, "velocity": 66}, {"time": 4564, "pitch": 48, "duration": 6, "velocity": 84}, {"time": 4564, "pitch": 60, "duration": 6, "velocity": 80}, {"time": 4564, "pitch": 60, "duration": 6, "velocity": 81}, {"time": 4564, "pitch": 67, "duration": 18, "velocity": 82}, {"time": 4588, "pitch": 41, "duration": 11, "velocity": 79}, {"time": 4588, "pitch": 53, "duration": 10, "velocity": 81}, {"time": 4588, "pitch": 60, "duration": 10, "velocity": 77}, {"time": 4588, "pitch": 65, "duration": 9, "velocity": 81}, {"time": 4600, "pitch": 65, "duration": 2, "velocity": 78}, {"time": 4600, "pitch": 68, "duration": 2, "velocity": 74}, {"time": 4606, "pitch": 39, "duration": 6, "velocity": 75}, {"time": 4606, "pitch": 51, "duration": 6, "velocity": 78}, {"time": 4606, "pitch": 60, "duration": 3, "velocity": 64}, {"time": 4606, "pitch": 65, "duration": 3, "velocity": 68}, {"time": 4606, "pitch": 68, "duration": 2, "velocity": 67}, {"time": 4612, "pitch": 41, "duration": 15, "velocity": 80}, {"time": 4612, "pitch": 53, "duration": 15, "velocity": 80}, {"time": 4612, "pitch": 60, "duration": 2, "velocity": 66}, {"time": 4612, "pitch": 65, "duration": 2, "velocity": 66}, {"time": 4612, "pitch": 68, "duration": 2, "velocity": 66}, {"time": 4618, "pitch": 60, "duration": 2, "velocity": 66}, {"time": 4618, "pitch": 65, "duration": 2, "velocity": 70}, {"time": 4618, "pitch": 68, "duration": 2, "velocity": 69}, {"time": 4624, "pitch": 60, "duration": 9, "velocity": 80}, {"time": 4624, "pitch": 65, "duration": 8, "velocity": 85}, {"time": 4624, "pitch": 68, "duration": 8, "velocity": 80}, {"time": 4635, "pitch": 48, "duration": 21, "velocity": 82}, {"time": 4635, "pitch": 67, "duration": 4, "velocity": 72}, {"time": 4635, "pitch": 63, "duration": 4, "velocity": 78}, {"time": 4635, "pitch": 60, "duration": 4, "velocity": 75}, {"time": 4641, "pitch": 63, "duration": 2, "velocity": 74}, {"time": 4641, "pitch": 67, "duration": 2, "velocity": 70}, {"time": 4641, "pitch": 60, "duration": 2, "velocity": 68}, {"time": 4647, "pitch": 67, "duration": 5, "velocity": 86}, {"time": 4647, "pitch": 63, "duration": 3, "velocity": 89}, {"time": 4647, "pitch": 60, "duration": 2, "velocity": 84}, {"time": 4652, "pitch": 60, "duration": 4, "velocity": 77}, {"time": 4653, "pitch": 63, "duration": 1, "velocity": 60}, {"time": 4659, "pitch": 67, "duration": 5, "velocity": 81}, {"time": 4659, "pitch": 63, "duration": 5, "velocity": 82}, {"time": 4659, "pitch": 60, "duration": 4, "velocity": 81}, {"time": 4659, "pitch": 48, "duration": 3, "velocity": 83}, {"time": 4671, "pitch": 39, "duration": 9, "velocity": 86}, {"time": 4671, "pitch": 67, "duration": 61, "velocity": 73}, {"time": 4671, "pitch": 58, "duration": 60, "velocity": 75}, {"time": 4671, "pitch": 63, "duration": 60, "velocity": 78}, {"time": 4732, "pitch": 48, "duration": 14, "velocity": 77}, {"time": 4732, "pitch": 60, "duration": 3, "velocity": 74}, {"time": 4732, "pitch": 60, "duration": 3, "velocity": 75}, {"time": 4732, "pitch": 63, "duration": 3, "velocity": 81}, {"time": 4732, "pitch": 67, "duration": 1, "velocity": 78}, {"time": 4738, "pitch": 60, "duration": 1, "velocity": 58}, {"time": 4738, "pitch": 63, "duration": 2, "velocity": 67}, {"time": 4738, "pitch": 67, "duration": 2, "velocity": 63}, {"time": 4744, "pitch": 60, "duration": 1, "velocity": 65}, {"time": 4744, "pitch": 63, "duration": 2, "velocity": 73}, {"time": 4744, "pitch": 67, "duration": 2, "velocity": 68}, {"time": 4750, "pitch": 46, "duration": 4, "velocity": 76}, {"time": 4750, "pitch": 58, "duration": 5, "velocity": 73}, {"time": 4750, "pitch": 60, "duration": 2, "velocity": 61}, {"time": 4750, "pitch": 63, "duration": 2, "velocity": 68}, {"time": 4750, "pitch": 67, "duration": 2, "velocity": 66}, {"time": 4756, "pitch": 48, "duration": 6, "velocity": 84}, {"time": 4756, "pitch": 60, "duration": 6, "velocity": 80}, {"time": 4756, "pitch": 60, "duration": 6, "velocity": 81}, {"time": 4756, "pitch": 67, "duration": 18, "velocity": 82}, {"time": 4780, "pitch": 41, "duration": 11, "velocity": 79}, {"time": 4780, "pitch": 53, "duration": 10, "velocity": 81}, {"time": 4780, "pitch": 60, "duration": 10, "velocity": 77}, {"time": 4780, "pitch": 65, "duration": 9, "velocity": 81}, {"time": 4792, "pitch": 65, "duration": 2, "velocity": 78}, {"time": 4792, "pitch": 68, "duration": 2, "velocity": 74}, {"time": 4798, "pitch": 39, "duration": 6, "velocity": 75}, {"time": 4798, "pitch": 51, "duration": 6, "velocity": 78}, {"time": 4798, "pitch": 60, "duration": 3, "velocity": 64}, {"time": 4798, "pitch": 65, "duration": 3, "velocity": 68}, {"time": 4798, "pitch": 68, "duration": 2, "velocity": 67}, {"time": 4804, "pitch": 41, "duration": 15, "velocity": 80}, {"time": 4804, "pitch": 53, "duration": 15, "velocity": 80}, {"time": 4804, "pitch": 60, "duration": 15, "velocity": 80}, {"time": 4804, "pitch": 65, "duration": 14, "velocity": 85}, {"time": 4804, "pitch": 68, "duration": 14, "velocity": 80}], "annotations": [{"time": 413, "annotation": {"number": 64, "value": 127}, "group": "control_change"}, {"time": 434, "annotation": {"number": 64, "value": 0}, "group": "control_change"}, {"time": 437, "annotation": {"number": 64, "value": 127}, "group": "control_change"}, {"time": 456, "annotation": {"number": 64, "value": 0}, "group": "control_change"}, {"time": 460, "annotation": {"number": 64, "value": 127}, "group": "control_change"}, {"time": 482, "annotation": {"number": 64, "value": 0}, "group": "control_change"}, {"time": 485, "annotation": {"number": 64, "value": 127}, "group": "control_change"}, {"time": 506, "annotation": {"number": 64, "value": 0}, "group": "control_change"}, {"time": 510, "annotation": {"number": 64, "value": 127}, "group": "control_change"}, {"time": 529, "annotation": {"number": 64, "value": 0}, "group": "control_change"}, {"time": 532, "annotation": {"number": 64, "value": 127}, "group": "control_change"}, {"time": 552, "annotation": {"number": 64, "value": 0}, "group": "control_change"}, {"time": 556, "annotation": {"number": 64, "value": 127}, "group": "control_change"}, {"time": 576, "annotation": {"number": 64, "value": 0}, "group": "control_change"}, {"time": 579, "annotation": {"number": 64, "value": 127}, "group": "control_change"}, {"time": 601, "annotation": {"number": 64, "value": 0}, "group": "control_change"}, {"time": 604, "annotation": {"number": 64, "value": 127}, "group": "control_change"}, {"time": 624, "annotation": {"number": 64, "value": 0}, "group": "control_change"}, {"time": 628, "annotation": {"number": 64, "value": 127}, "group": "control_change"}, {"time": 650, "annotation": {"number": 64, "value": 0}, "group": "control_change"}, {"time": 653, "annotation": {"number": 64, "value": 127}, "group": "control_change"}, {"time": 653, "annotation": {"number": 64, "value": 0}, "group": "control_change"}, {"time": 672, "annotation": {"number": 64, "value": 0}, "group": "control_change"}, {"time": 684, "annotation": {"number": 64, "value": 127}, "group": "control_change"}, {"time": 685, "annotation": {"number": 64, "value": 0}, "group": "control_change"}, {"time": 685, "annotation": {"number": 64, "value": 127}, "group": "control_change"}, {"time": 698, "annotation": {"number": 64, "value": 0}, "group": "control_change"}, {"time": 700, "annotation": {"number": 64, "value": 127}, "group": "control_change"}, {"time": 721, "annotation": {"number": 64, "value": 0}, "group": "control_change"}, {"time": 729, "annotation": {"number": 64, "value": 127}, "group": "control_change"}, {"time": 745, "annotation": {"number": 64, "value": 0}, "group": "control_change"}, {"time": 751, "annotation": {"number": 64, "value": 127}, "group": "control_change"}, {"time": 791, "annotation": {"number": 64, "value": 0}, "group": "control_change"}, {"time": 797, "annotation": {"number": 64, "value": 127}, "group": "control_change"}, {"time": 818, "annotation": {"number": 64, "value": 0}, "group": "control_change"}, {"time": 821, "annotation": {"number": 64, "value": 127}, "group": "control_change"}, {"time": 840, "annotation": {"number": 64, "value": 0}, "group": "control_change"}, {"time": 844, "annotation": {"number": 64, "value": 127}, "group": "control_change"}, {"time": 866, "annotation": {"number": 64, "value": 0}, "group": "control_change"}, {"time": 869, "annotation": {"number": 64, "value": 127}, "group": "control_change"}, {"time": 890, "annotation": {"number": 64, "value": 0}, "group": "control_change"}, {"time": 894, "annotation": {"number": 64, "value": 127}, "group": "control_change"}, {"time": 913, "annotation": {"number": 64, "value": 0}, "group": "control_change"}, {"time": 916, "annotation": {"number": 64, "value": 127}, "group": "control_change"}, {"time": 936, "annotation": {"number": 64, "value": 0}, "group": "control_change"}, {"time": 940, "annotation": {"number": 64, "value": 127}, "group": "control_change"}, {"time": 960, "annotation": {"number": 64, "value": 0}, "group": "control_change"}, {"time": 963, "annotation": {"number": 64, "value": 127}, "group": "control_change"}, {"time": 985, "annotation": {"number": 64, "value": 0}, "group": "control_change"}, {"time": 988, "annotation": {"number": 64, "value": 127}, "group": "control_change"}, {"time": 1008, "annotation": {"number": 64, "value": 0}, "group": "control_change"}, {"time": 1012, "annotation": {"number": 64, "value": 127}, "group": "control_change"}, {"time": 1034, "annotation": {"number": 64, "value": 0}, "group": "control_change"}, {"time": 1037, "annotation": {"number": 64, "value": 127}, "group": "control_change"}, {"time": 1037, "annotation": {"number": 64, "value": 0}, "group": "control_change"}, {"time": 1056, "annotation": {"number": 64, "value": 0}, "group": "control_change"}, {"time": 1068, "annotation": {"number": 64, "value": 127}, "group": "control_change"}, {"time": 1069, "annotation": {"number": 64, "value": 0}, "group": "control_change"}, {"time": 1069, "annotation": {"number": 64, "value": 127}, "group": "control_change"}, {"time": 1082, "annotation": {"number": 64, "value": 0}, "group": "control_change"}, {"time": 1084, "annotation": {"number": 64, "value": 127}, "group": "control_change"}, {"time": 1105, "annotation": {"number": 64, "value": 0}, "group": "control_change"}, {"time": 1113, "annotation": {"number": 64, "value": 127}, "group": "control_change"}, {"time": 1129, "annotation": {"number": 64, "value": 0}, "group": "control_change"}, {"time": 1135, "annotation": {"number": 64, "value": 127}, "group": "control_change"}, {"time": 1175, "annotation": {"number": 64, "value": 0}, "group": "control_change"}, {"time": 1993, "annotation": {"number": 64, "value": 0}, "group": "control_change"}, {"time": 1996, "annotation": {"number": 64, "value": 127}, "group": "control_change"}, {"time": 2040, "annotation": {"number": 64, "value": 0}, "group": "control_change"}, {"time": 2043, "annotation": {"number": 64, "value": 127}, "group": "control_change"}, {"time": 2065, "annotation": {"number": 64, "value": 0}, "group": "control_change"}, {"time": 2067, "annotation": {"number": 64, "value": 127}, "group": "control_change"}, {"time": 2088, "annotation": {"number": 64, "value": 0}, "group": "control_change"}, {"time": 2091, "annotation": {"number": 64, "value": 127}, "group": "control_change"}, {"time": 2137, "annotation": {"number": 64, "value": 0}, "group": "control_change"}, {"time": 2140, "annotation": {"number": 64, "value": 127}, "group": "control_change"}, {"time": 2185, "annotation": {"number": 64, "value": 0}, "group": "control_change"}, {"time": 2189, "annotation": {"number": 64, "value": 127}, "group": "control_change"}, {"time": 2234, "annotation": {"number": 64, "value": 0}, "group": "control_change"}, {"time": 2237, "annotation": {"number": 64, "value": 127}, "group": "control_change"}, {"time": 2282, "annotation": {"number": 64, "value": 0}, "group": "control_change"}, {"time": 2285, "annotation": {"number": 64, "value": 127}, "group": "control_change"}, {"time": 2306, "annotation": {"number": 64, "value": 0}, "group": "control_change"}, {"time": 2307, "annotation": {"number": 64, "value": 127}, "group": "control_change"}, {"time": 2326, "annotation": {"number": 64, "value": 0}, "group": "control_change"}, {"time": 2333, "annotation": {"number": 64, "value": 127}, "group": "control_change"}, {"time": 2354, "annotation": {"number": 64, "value": 0}, "group": "control_change"}, {"time": 2357, "annotation": {"number": 64, "value": 127}, "group": "control_change"}, {"time": 2376, "annotation": {"number": 64, "value": 0}, "group": "control_change"}, {"time": 2380, "annotation": {"number": 64, "value": 127}, "group": "control_change"}, {"time": 2402, "annotation": {"number": 64, "value": 0}, "group": "control_change"}, {"time": 2405, "annotation": {"number": 64, "value": 127}, "group": "control_change"}, {"time": 2426, "annotation": {"number": 64, "value": 0}, "group": "control_change"}, {"time": 2430, "annotation": {"number": 64, "value": 127}, "group": "control_change"}, {"time": 2449, "annotation": {"number": 64, "value": 0}, "group": "control_change"}, {"time": 2452, "annotation": {"number": 64, "value": 127}, "group": "control_change"}, {"time": 2472, "annotation": {"number": 64, "value": 0}, "group": "control_change"}, {"time": 2476, "annotation": {"number": 64, "value": 127}, "group": "control_change"}, {"time": 2496, "annotation": {"number": 64, "value": 0}, "group": "control_change"}, {"time": 2499, "annotation": {"number": 64, "value": 127}, "group": "control_change"}, {"time": 2521, "annotation": {"number": 64, "value": 0}, "group": "control_change"}, {"time": 2524, "annotation": {"number": 64, "value": 127}, "group": "control_change"}, {"time": 2544, "annotation": {"number": 64, "value": 0}, "group": "control_change"}, {"time": 2548, "annotation": {"number": 64, "value": 127}, "group": "control_change"}, {"time": 2570, "annotation": {"number": 64, "value": 0}, "group": "control_change"}, {"time": 2573, "annotation": {"number": 64, "value": 127}, "group": "control_change"}, {"time": 2573, "annotation": {"number": 64, "value": 0}, "group": "control_change"}, {"time": 2592, "annotation": {"number": 64, "value": 0}, "group": "control_change"}, {"time": 2604, "annotation": {"number": 64, "value": 127}, "group": "control_change"}, {"time": 2605, "annotation": {"number": 64, "value": 0}, "group": "control_change"}, {"time": 2605, "annotation": {"number": 64, "value": 127}, "group": "control_change"}, {"time": 2618, "annotation": {"number": 64, "value": 0}, "group": "control_change"}, {"time": 2620, "annotation": {"number": 64, "value": 127}, "group": "control_change"}, {"time": 2641, "annotation": {"number": 64, "value": 0}, "group": "control_change"}, {"time": 2649, "annotation": {"number": 64, "value": 127}, "group": "control_change"}, {"time": 2665, "annotation": {"number": 64, "value": 0}, "group": "control_change"}, {"time": 2671, "annotation": {"number": 64, "value": 127}, "group": "control_change"}, {"time": 2711, "annotation": {"number": 64, "value": 0}, "group": "control_change"}, {"time": 2717, "annotation": {"number": 64, "value": 127}, "group": "control_change"}, {"time": 2738, "annotation": {"number": 64, "value": 0}, "group": "control_change"}, {"time": 2741, "annotation": {"number": 64, "value": 127}, "group": "control_change"}, {"time": 2760, "annotation": {"number": 64, "value": 0}, "group": "control_change"}, {"time": 2764, "annotation": {"number": 64, "value": 127}, "group": "control_change"}, {"time": 2786, "annotation": {"number": 64, "value": 0}, "group": "control_change"}, {"time": 2789, "annotation": {"number": 64, "value": 127}, "group": "control_change"}, {"time": 2810, "annotation": {"number": 64, "value": 0}, "group": "control_change"}, {"time": 2814, "annotation": {"number": 64, "value": 127}, "group": "control_change"}, {"time": 2833, "annotation": {"number": 64, "value": 0}, "group": "control_change"}, {"time": 2836, "annotation": {"number": 64, "value": 127}, "group": "control_change"}, {"time": 2856, "annotation": {"number": 64, "value": 0}, "group": "control_change"}, {"time": 2860, "annotation": {"number": 64, "value": 127}, "group": "control_change"}, {"time": 2880, "annotation": {"number": 64, "value": 0}, "group": "control_change"}, {"time": 2883, "annotation": {"number": 64, "value": 127}, "group": "control_change"}, {"time": 2905, "annotation": {"number": 64, "value": 0}, "group": "control_change"}, {"time": 2908, "annotation": {"number": 64, "value": 127}, "group": "control_change"}, {"time": 2928, "annotation": {"number": 64, "value": 0}, "group": "control_change"}, {"time": 2932, "annotation": {"number": 64, "value": 127}, "group": "control_change"}, {"time": 2954, "annotation": {"number": 64, "value": 0}, "group": "control_change"}, {"time": 2957, "annotation": {"number": 64, "value": 127}, "group": "control_change"}, {"time": 2957, "annotation": {"number": 64, "value": 0}, "group": "control_change"}, {"time": 2976, "annotation": {"number": 64, "value": 0}, "group": "control_change"}, {"time": 2988, "annotation": {"number": 64, "value": 127}, "group": "control_change"}, {"time": 2989, "annotation": {"number": 64, "value": 0}, "group": "control_change"}, {"time": 2989, "annotation": {"number": 64, "value": 127}, "group": "control_change"}, {"time": 3002, "annotation": {"number": 64, "value": 0}, "group": "control_change"}, {"time": 3004, "annotation": {"number": 64, "value": 127}, "group": "control_change"}, {"time": 3025, "annotation": {"number": 64, "value": 0}, "group": "control_change"}, {"time": 3033, "annotation": {"number": 64, "value": 127}, "group": "control_change"}, {"time": 3049, "annotation": {"number": 64, "value": 0}, "group": "control_change"}, {"time": 3055, "annotation": {"number": 64, "value": 127}, "group": "control_change"}, {"time": 3095, "annotation": {"number": 64, "value": 0}, "group": "control_change"}, {"time": 3869, "annotation": {"number": 64, "value": 127}, "group": "control_change"}, {"time": 3890, "annotation": {"number": 64, "value": 0}, "group": "control_change"}, {"time": 3893, "annotation": {"number": 64, "value": 127}, "group": "control_change"}, {"time": 3912, "annotation": {"number": 64, "value": 0}, "group": "control_change"}, {"time": 3916, "annotation": {"number": 64, "value": 127}, "group": "control_change"}, {"time": 3938, "annotation": {"number": 64, "value": 0}, "group": "control_change"}, {"time": 3941, "annotation": {"number": 64, "value": 127}, "group": "control_change"}, {"time": 3962, "annotation": {"number": 64, "value": 0}, "group": "control_change"}, {"time": 3966, "annotation": {"number": 64, "value": 127}, "group": "control_change"}, {"time": 3985, "annotation": {"number": 64, "value": 0}, "group": "control_change"}, {"time": 3988, "annotation": {"number": 64, "value": 127}, "group": "control_change"}, {"time": 4008, "annotation": {"number": 64, "value": 0}, "group": "control_change"}, {"time": 4012, "annotation": {"number": 64, "value": 127}, "group": "control_change"}, {"time": 4032, "annotation": {"number": 64, "value": 0}, "group": "control_change"}, {"time": 4035, "annotation": {"number": 64, "value": 127}, "group": "control_change"}, {"time": 4057, "annotation": {"number": 64, "value": 0}, "group": "control_change"}, {"time": 4060, "annotation": {"number": 64, "value": 127}, "group": "control_change"}, {"time": 4080, "annotation": {"number": 64, "value": 0}, "group": "control_change"}, {"time": 4084, "annotation": {"number": 64, "value": 127}, "group": "control_change"}, {"time": 4106, "annotation": {"number": 64, "value": 0}, "group": "control_change"}, {"time": 4109, "annotation": {"number": 64, "value": 127}, "group": "control_change"}, {"time": 4109, "annotation": {"number": 64, "value": 0}, "group": "control_change"}, {"time": 4128, "annotation": {"number": 64, "value": 0}, "group": "control_change"}, {"time": 4140, "annotation": {"number": 64, "value": 127}, "group": "control_change"}, {"time": 4141, "annotation": {"number": 64, "value": 0}, "group": "control_change"}, {"time": 4141, "annotation": {"number": 64, "value": 127}, "group": "control_change"}, {"time": 4154, "annotation": {"number": 64, "value": 0}, "group": "control_change"}, {"time": 4156, "annotation": {"number": 64, "value": 127}, "group": "control_change"}, {"time": 4177, "annotation": {"number": 64, "value": 0}, "group": "control_change"}, {"time": 4185, "annotation": {"number": 64, "value": 127}, "group": "control_change"}, {"time": 4201, "annotation": {"number": 64, "value": 0}, "group": "control_change"}, {"time": 4207, "annotation": {"number": 64, "value": 127}, "group": "control_change"}, {"time": 4247, "annotation": {"number": 64, "value": 0}, "group": "control_change"}, {"time": 4637, "annotation": {"number": 64, "value": 127}, "group": "control_change"}, {"time": 4656, "annotation": {"number": 64, "value": 0}, "group": "control_change"}, {"time": 4659, "annotation": {"number": 64, "value": 127}, "group": "control_change"}, {"time": 4668, "annotation": {"number": 64, "value": 0}, "group": "control_change"}, {"time": 4672, "annotation": {"number": 64, "value": 127}, "group": "control_change"}, {"time": 4726, "annotation": {"number": 64, "value": 0}, "group": "control_change"}]}]}