{"metadata": {"schema_version": "0.2", "title": "None", "source_filename": "687.mid", "source_format": "midi"}, "resolution": 12, "tempos": [{"time": 0, "qpm": 117.0003451510182}, {"time": 167, "qpm": 116.50033008426857}, {"time": 240, "qpm": 116.00008506672904}, {"time": 360, "qpm": 116.50033008426857}, {"time": 1080, "qpm": 116.00008506672904}, {"time": 1644, "qpm": 116.4002071923688}, {"time": 2952, "qpm": 116.10019446782573}, {"time": 3432, "qpm": 116.30003081950817}, {"time": 3768, "qpm": 116.50033008426857}, {"time": 4745, "qpm": 116.30003081950817}], "time_signatures": [{"time": 0, "numerator": 1, "denominator": 4}], "tracks": [{"program": 0, "is_drum": false, "name": "MELODY", "notes": [{"time": 368, "pitch": 64, "duration": 4, "velocity": 83}, {"time": 374, "pitch": 64, "duration": 4, "velocity": 83}, {"time": 380, "pitch": 64, "duration": 14, "velocity": 86}, {"time": 398, "pitch": 61, "duration": 4, "velocity": 83}, {"time": 404, "pitch": 66, "duration": 3, "velocity": 88}, {"time": 410, "pitch": 68, "duration": 9, "velocity": 85}, {"time": 422, "pitch": 66, "duration": 10, "velocity": 85}, {"time": 434, "pitch": 66, "duration": 3, "velocity": 83}, {"time": 440, "pitch": 66, "duration": 4, "velocity": 81}, {"time": 446, "pitch": 64, "duration": 4, "velocity": 90}, {"time": 452, "pitch": 69, "duration": 8, "velocity": 85}, {"time": 464, "pitch": 69, "duration": 9, "velocity": 84}, {"time": 476, "pitch": 69, "duration": 4, "velocity": 87}, {"time": 482, "pitch": 66, "duration": 5, "velocity": 85}, {"time": 488, "pitch": 69, "duration": 6, "velocity": 83}, {"time": 494, "pitch": 66, "duration": 3, "velocity": 86}, {"time": 500, "pitch": 64, "duration": 29, "velocity": 87}, {"time": 560, "pitch": 61, "duration": 5, "velocity": 89}, {"time": 566, "pitch": 64, "duration": 3, "velocity": 85}, {"time": 572, "pitch": 64, "duration": 13, "velocity": 83}, {"time": 590, "pitch": 61, "duration": 4, "velocity": 84}, {"time": 596, "pitch": 66, "duration": 3, "velocity": 87}, {"time": 602, "pitch": 68, "duration": 9, "velocity": 85}, {"time": 614, "pitch": 66, "duration": 7, "velocity": 83}, {"time": 632, "pitch": 66, "duration": 4, "velocity": 89}, {"time": 638, "pitch": 64, "duration": 4, "velocity": 85}, {"time": 644, "pitch": 69, "duration": 8, "velocity": 84}, {"time": 656, "pitch": 69, "duration": 9, "velocity": 84}, {"time": 668, "pitch": 69, "duration": 5, "velocity": 84}, {"time": 674, "pitch": 66, "duration": 3, "velocity": 85}, {"time": 680, "pitch": 69, "duration": 9, "velocity": 85}, {"time": 692, "pitch": 71, "duration": 23, "velocity": 84}, {"time": 740, "pitch": 76, "duration": 4, "velocity": 84}, {"time": 746, "pitch": 76, "duration": 8, "velocity": 85}, {"time": 758, "pitch": 76, "duration": 9, "velocity": 89}, {"time": 770, "pitch": 76, "duration": 4, "velocity": 85}, {"time": 776, "pitch": 73, "duration": 5, "velocity": 86}, {"time": 782, "pitch": 71, "duration": 3, "velocity": 84}, {"time": 788, "pitch": 69, "duration": 4, "velocity": 85}, {"time": 794, "pitch": 69, "duration": 10, "velocity": 83}, {"time": 806, "pitch": 66, "duration": 8, "velocity": 84}, {"time": 818, "pitch": 69, "duration": 3, "velocity": 84}, {"time": 824, "pitch": 66, "duration": 4, "velocity": 84}, {"time": 830, "pitch": 69, "duration": 3, "velocity": 84}, {"time": 836, "pitch": 71, "duration": 3, "velocity": 84}, {"time": 842, "pitch": 71, "duration": 3, "velocity": 83}, {"time": 848, "pitch": 71, "duration": 3, "velocity": 84}, {"time": 854, "pitch": 71, "duration": 3, "velocity": 82}, {"time": 860, "pitch": 71, "duration": 4, "velocity": 84}, {"time": 866, "pitch": 69, "duration": 4, "velocity": 83}, {"time": 872, "pitch": 73, "duration": 9, "velocity": 79}, {"time": 884, "pitch": 71, "duration": 28, "velocity": 81}, {"time": 932, "pitch": 73, "duration": 4, "velocity": 87}, {"time": 938, "pitch": 73, "duration": 9, "velocity": 87}, {"time": 950, "pitch": 73, "duration": 3, "velocity": 85}, {"time": 956, "pitch": 73, "duration": 9, "velocity": 85}, {"time": 968, "pitch": 71, "duration": 9, "velocity": 85}, {"time": 980, "pitch": 69, "duration": 3, "velocity": 84}, {"time": 986, "pitch": 69, "duration": 8, "velocity": 83}, {"time": 998, "pitch": 69, "duration": 4, "velocity": 83}, {"time": 1004, "pitch": 71, "duration": 4, "velocity": 84}, {"time": 1010, "pitch": 69, "duration": 4, "velocity": 84}, {"time": 1016, "pitch": 66, "duration": 6, "velocity": 84}, {"time": 1022, "pitch": 64, "duration": 6, "velocity": 84}, {"time": 1028, "pitch": 64, "duration": 4, "velocity": 83}, {"time": 1034, "pitch": 64, "duration": 8, "velocity": 90}, {"time": 1046, "pitch": 64, "duration": 4, "velocity": 89}, {"time": 1052, "pitch": 66, "duration": 4, "velocity": 89}, {"time": 1058, "pitch": 64, "duration": 3, "velocity": 89}, {"time": 1064, "pitch": 71, "duration": 4, "velocity": 86}, {"time": 1070, "pitch": 73, "duration": 4, "velocity": 75}, {"time": 1076, "pitch": 69, "duration": 47, "velocity": 83}, {"time": 1184, "pitch": 61, "duration": 4, "velocity": 83}, {"time": 1190, "pitch": 64, "duration": 4, "velocity": 83}, {"time": 1196, "pitch": 64, "duration": 12, "velocity": 86}, {"time": 1208, "pitch": 64, "duration": 6, "velocity": 86}, {"time": 1214, "pitch": 61, "duration": 4, "velocity": 83}, {"time": 1220, "pitch": 66, "duration": 3, "velocity": 88}, {"time": 1226, "pitch": 66, "duration": 6, "velocity": 85}, {"time": 1232, "pitch": 68, "duration": 6, "velocity": 85}, {"time": 1238, "pitch": 66, "duration": 10, "velocity": 85}, {"time": 1256, "pitch": 66, "duration": 4, "velocity": 81}, {"time": 1262, "pitch": 64, "duration": 4, "velocity": 90}, {"time": 1268, "pitch": 69, "duration": 8, "velocity": 85}, {"time": 1280, "pitch": 69, "duration": 7, "velocity": 84}, {"time": 1287, "pitch": 69, "duration": 7, "velocity": 84}, {"time": 1292, "pitch": 69, "duration": 2, "velocity": 87}, {"time": 1298, "pitch": 66, "duration": 5, "velocity": 85}, {"time": 1304, "pitch": 69, "duration": 6, "velocity": 83}, {"time": 1310, "pitch": 66, "duration": 3, "velocity": 86}, {"time": 1316, "pitch": 64, "duration": 29, "velocity": 87}, {"time": 1376, "pitch": 61, "duration": 5, "velocity": 89}, {"time": 1382, "pitch": 64, "duration": 3, "velocity": 85}, {"time": 1388, "pitch": 64, "duration": 13, "velocity": 83}, {"time": 1406, "pitch": 61, "duration": 4, "velocity": 84}, {"time": 1412, "pitch": 66, "duration": 3, "velocity": 87}, {"time": 1418, "pitch": 68, "duration": 9, "velocity": 85}, {"time": 1430, "pitch": 66, "duration": 7, "velocity": 83}, {"time": 1448, "pitch": 66, "duration": 4, "velocity": 89}, {"time": 1454, "pitch": 64, "duration": 4, "velocity": 85}, {"time": 1460, "pitch": 69, "duration": 8, "velocity": 84}, {"time": 1472, "pitch": 69, "duration": 6, "velocity": 84}, {"time": 1478, "pitch": 69, "duration": 6, "velocity": 84}, {"time": 1484, "pitch": 69, "duration": 5, "velocity": 84}, {"time": 1490, "pitch": 66, "duration": 3, "velocity": 85}, {"time": 1496, "pitch": 66, "duration": 6, "velocity": 85}, {"time": 1502, "pitch": 69, "duration": 6, "velocity": 85}, {"time": 1508, "pitch": 71, "duration": 23, "velocity": 84}, {"time": 1556, "pitch": 76, "duration": 4, "velocity": 84}, {"time": 1562, "pitch": 76, "duration": 8, "velocity": 85}, {"time": 1574, "pitch": 76, "duration": 9, "velocity": 89}, {"time": 1586, "pitch": 76, "duration": 4, "velocity": 85}, {"time": 1592, "pitch": 73, "duration": 5, "velocity": 86}, {"time": 1598, "pitch": 71, "duration": 3, "velocity": 84}, {"time": 1604, "pitch": 69, "duration": 4, "velocity": 85}, {"time": 1610, "pitch": 69, "duration": 10, "velocity": 83}, {"time": 1622, "pitch": 66, "duration": 8, "velocity": 84}, {"time": 1634, "pitch": 69, "duration": 3, "velocity": 84}, {"time": 1640, "pitch": 66, "duration": 4, "velocity": 84}, {"time": 1646, "pitch": 69, "duration": 3, "velocity": 84}, {"time": 1652, "pitch": 71, "duration": 3, "velocity": 84}, {"time": 1658, "pitch": 71, "duration": 3, "velocity": 83}, {"time": 1664, "pitch": 71, "duration": 3, "velocity": 84}, {"time": 1670, "pitch": 71, "duration": 3, "velocity": 82}, {"time": 1676, "pitch": 71, "duration": 4, "velocity": 84}, {"time": 1682, "pitch": 69, "duration": 4, "velocity": 83}, {"time": 1688, "pitch": 73, "duration": 9, "velocity": 79}, {"time": 1700, "pitch": 71, "duration": 28, "velocity": 81}, {"time": 1748, "pitch": 73, "duration": 4, "velocity": 87}, {"time": 1754, "pitch": 73, "duration": 9, "velocity": 87}, {"time": 1766, "pitch": 73, "duration": 3, "velocity": 85}, {"time": 1772, "pitch": 73, "duration": 9, "velocity": 85}, {"time": 1784, "pitch": 71, "duration": 9, "velocity": 85}, {"time": 1796, "pitch": 69, "duration": 3, "velocity": 84}, {"time": 1802, "pitch": 69, "duration": 8, "velocity": 83}, {"time": 1814, "pitch": 69, "duration": 4, "velocity": 83}, {"time": 1820, "pitch": 71, "duration": 4, "velocity": 84}, {"time": 1826, "pitch": 69, "duration": 4, "velocity": 84}, {"time": 1832, "pitch": 66, "duration": 6, "velocity": 84}, {"time": 1838, "pitch": 64, "duration": 6, "velocity": 84}, {"time": 1844, "pitch": 64, "duration": 4, "velocity": 83}, {"time": 1850, "pitch": 64, "duration": 8, "velocity": 90}, {"time": 1862, "pitch": 64, "duration": 4, "velocity": 89}, {"time": 1868, "pitch": 66, "duration": 4, "velocity": 89}, {"time": 1874, "pitch": 64, "duration": 3, "velocity": 89}, {"time": 1880, "pitch": 71, "duration": 4, "velocity": 86}, {"time": 1886, "pitch": 73, "duration": 4, "velocity": 75}, {"time": 1892, "pitch": 69, "duration": 47, "velocity": 83}, {"time": 1952, "pitch": 61, "duration": 4, "velocity": 83}, {"time": 1958, "pitch": 64, "duration": 4, "velocity": 83}, {"time": 1964, "pitch": 64, "duration": 12, "velocity": 86}, {"time": 1976, "pitch": 61, "duration": 6, "velocity": 86}, {"time": 1982, "pitch": 64, "duration": 4, "velocity": 83}, {"time": 1988, "pitch": 66, "duration": 3, "velocity": 88}, {"time": 1994, "pitch": 66, "duration": 6, "velocity": 85}, {"time": 2000, "pitch": 68, "duration": 6, "velocity": 85}, {"time": 2006, "pitch": 66, "duration": 10, "velocity": 85}, {"time": 2018, "pitch": 66, "duration": 4, "velocity": 81}, {"time": 2024, "pitch": 66, "duration": 4, "velocity": 81}, {"time": 2030, "pitch": 64, "duration": 4, "velocity": 90}, {"time": 2036, "pitch": 69, "duration": 8, "velocity": 85}, {"time": 2048, "pitch": 69, "duration": 7, "velocity": 84}, {"time": 2054, "pitch": 66, "duration": 7, "velocity": 84}, {"time": 2060, "pitch": 69, "duration": 4, "velocity": 87}, {"time": 2066, "pitch": 66, "duration": 5, "velocity": 85}, {"time": 2072, "pitch": 69, "duration": 6, "velocity": 83}, {"time": 2078, "pitch": 66, "duration": 3, "velocity": 86}, {"time": 2084, "pitch": 64, "duration": 29, "velocity": 87}, {"time": 2144, "pitch": 61, "duration": 5, "velocity": 89}, {"time": 2150, "pitch": 64, "duration": 3, "velocity": 85}, {"time": 2156, "pitch": 64, "duration": 13, "velocity": 83}, {"time": 2168, "pitch": 61, "duration": 4, "velocity": 84}, {"time": 2174, "pitch": 64, "duration": 4, "velocity": 84}, {"time": 2180, "pitch": 66, "duration": 3, "velocity": 87}, {"time": 2186, "pitch": 68, "duration": 9, "velocity": 85}, {"time": 2198, "pitch": 66, "duration": 7, "velocity": 83}, {"time": 2210, "pitch": 66, "duration": 4, "velocity": 89}, {"time": 2216, "pitch": 66, "duration": 4, "velocity": 89}, {"time": 2222, "pitch": 64, "duration": 4, "velocity": 85}, {"time": 2228, "pitch": 69, "duration": 8, "velocity": 84}, {"time": 2240, "pitch": 69, "duration": 6, "velocity": 84}, {"time": 2246, "pitch": 69, "duration": 6, "velocity": 84}, {"time": 2252, "pitch": 69, "duration": 5, "velocity": 84}, {"time": 2258, "pitch": 66, "duration": 3, "velocity": 85}, {"time": 2264, "pitch": 66, "duration": 6, "velocity": 85}, {"time": 2270, "pitch": 69, "duration": 6, "velocity": 85}, {"time": 2276, "pitch": 71, "duration": 23, "velocity": 84}, {"time": 2324, "pitch": 76, "duration": 4, "velocity": 84}, {"time": 2330, "pitch": 76, "duration": 8, "velocity": 85}, {"time": 2342, "pitch": 76, "duration": 9, "velocity": 89}, {"time": 2354, "pitch": 76, "duration": 4, "velocity": 85}, {"time": 2360, "pitch": 73, "duration": 5, "velocity": 86}, {"time": 2366, "pitch": 71, "duration": 3, "velocity": 84}, {"time": 2372, "pitch": 69, "duration": 6, "velocity": 85}, {"time": 2384, "pitch": 69, "duration": 6, "velocity": 83}, {"time": 2390, "pitch": 69, "duration": 6, "velocity": 84}, {"time": 2396, "pitch": 66, "duration": 6, "velocity": 84}, {"time": 2402, "pitch": 69, "duration": 3, "velocity": 84}, {"time": 2408, "pitch": 66, "duration": 4, "velocity": 84}, {"time": 2414, "pitch": 69, "duration": 3, "velocity": 84}, {"time": 2420, "pitch": 71, "duration": 3, "velocity": 84}, {"time": 2426, "pitch": 71, "duration": 3, "velocity": 83}, {"time": 2432, "pitch": 71, "duration": 3, "velocity": 84}, {"time": 2438, "pitch": 71, "duration": 3, "velocity": 82}, {"time": 2444, "pitch": 71, "duration": 4, "velocity": 84}, {"time": 2450, "pitch": 69, "duration": 4, "velocity": 83}, {"time": 2456, "pitch": 73, "duration": 9, "velocity": 79}, {"time": 2468, "pitch": 71, "duration": 28, "velocity": 81}, {"time": 2516, "pitch": 73, "duration": 4, "velocity": 87}, {"time": 2522, "pitch": 73, "duration": 9, "velocity": 87}, {"time": 2534, "pitch": 73, "duration": 3, "velocity": 85}, {"time": 2540, "pitch": 73, "duration": 9, "velocity": 85}, {"time": 2552, "pitch": 71, "duration": 9, "velocity": 85}, {"time": 2564, "pitch": 69, "duration": 3, "velocity": 84}, {"time": 2570, "pitch": 69, "duration": 8, "velocity": 83}, {"time": 2582, "pitch": 69, "duration": 4, "velocity": 83}, {"time": 2588, "pitch": 71, "duration": 4, "velocity": 84}, {"time": 2594, "pitch": 69, "duration": 4, "velocity": 84}, {"time": 2600, "pitch": 66, "duration": 6, "velocity": 84}, {"time": 2606, "pitch": 64, "duration": 6, "velocity": 84}, {"time": 2612, "pitch": 64, "duration": 4, "velocity": 83}, {"time": 2618, "pitch": 64, "duration": 8, "velocity": 90}, {"time": 2630, "pitch": 64, "duration": 4, "velocity": 89}, {"time": 2636, "pitch": 66, "duration": 4, "velocity": 89}, {"time": 2642, "pitch": 64, "duration": 3, "velocity": 89}, {"time": 2648, "pitch": 71, "duration": 4, "velocity": 86}, {"time": 2654, "pitch": 73, "duration": 4, "velocity": 75}, {"time": 2660, "pitch": 69, "duration": 47, "velocity": 83}, {"time": 3584, "pitch": 64, "duration": 4, "velocity": 83}, {"time": 3590, "pitch": 64, "duration": 4, "velocity": 83}, {"time": 3596, "pitch": 64, "duration": 14, "velocity": 86}, {"time": 3614, "pitch": 61, "duration": 4, "velocity": 83}, {"time": 3620, "pitch": 66, "duration": 3, "velocity": 88}, {"time": 3626, "pitch": 68, "duration": 9, "velocity": 85}, {"time": 3638, "pitch": 66, "duration": 10, "velocity": 85}, {"time": 3650, "pitch": 66, "duration": 3, "velocity": 83}, {"time": 3656, "pitch": 66, "duration": 4, "velocity": 81}, {"time": 3662, "pitch": 64, "duration": 4, "velocity": 90}, {"time": 3668, "pitch": 69, "duration": 8, "velocity": 85}, {"time": 3680, "pitch": 69, "duration": 9, "velocity": 84}, {"time": 3692, "pitch": 69, "duration": 4, "velocity": 87}, {"time": 3698, "pitch": 66, "duration": 5, "velocity": 85}, {"time": 3704, "pitch": 69, "duration": 6, "velocity": 83}, {"time": 3710, "pitch": 66, "duration": 3, "velocity": 86}, {"time": 3716, "pitch": 64, "duration": 29, "velocity": 87}, {"time": 3776, "pitch": 61, "duration": 5, "velocity": 89}, {"time": 3782, "pitch": 64, "duration": 3, "velocity": 85}, {"time": 3788, "pitch": 64, "duration": 12, "velocity": 83}, {"time": 3800, "pitch": 64, "duration": 6, "velocity": 94}, {"time": 3806, "pitch": 61, "duration": 4, "velocity": 84}, {"time": 3812, "pitch": 66, "duration": 3, "velocity": 87}, {"time": 3818, "pitch": 68, "duration": 9, "velocity": 85}, {"time": 3830, "pitch": 66, "duration": 7, "velocity": 83}, {"time": 3842, "pitch": 66, "duration": 6, "velocity": 94}, {"time": 3848, "pitch": 66, "duration": 4, "velocity": 89}, {"time": 3854, "pitch": 64, "duration": 4, "velocity": 85}, {"time": 3860, "pitch": 69, "duration": 8, "velocity": 84}, {"time": 3872, "pitch": 69, "duration": 9, "velocity": 84}, {"time": 3884, "pitch": 69, "duration": 5, "velocity": 84}, {"time": 3890, "pitch": 66, "duration": 3, "velocity": 85}, {"time": 3896, "pitch": 69, "duration": 9, "velocity": 85}, {"time": 3908, "pitch": 71, "duration": 23, "velocity": 84}, {"time": 3956, "pitch": 76, "duration": 4, "velocity": 84}, {"time": 3962, "pitch": 76, "duration": 8, "velocity": 85}, {"time": 3974, "pitch": 76, "duration": 9, "velocity": 89}, {"time": 3986, "pitch": 76, "duration": 4, "velocity": 85}, {"time": 3992, "pitch": 73, "duration": 5, "velocity": 86}, {"time": 3998, "pitch": 71, "duration": 3, "velocity": 84}, {"time": 4004, "pitch": 69, "duration": 4, "velocity": 85}, {"time": 4010, "pitch": 69, "duration": 10, "velocity": 83}, {"time": 4022, "pitch": 66, "duration": 8, "velocity": 84}, {"time": 4034, "pitch": 69, "duration": 3, "velocity": 84}, {"time": 4040, "pitch": 66, "duration": 4, "velocity": 84}, {"time": 4046, "pitch": 69, "duration": 3, "velocity": 84}, {"time": 4052, "pitch": 71, "duration": 3, "velocity": 84}, {"time": 4058, "pitch": 71, "duration": 3, "velocity": 83}, {"time": 4064, "pitch": 71, "duration": 3, "velocity": 84}, {"time": 4070, "pitch": 71, "duration": 3, "velocity": 82}, {"time": 4076, "pitch": 71, "duration": 4, "velocity": 84}, {"time": 4082, "pitch": 69, "duration": 4, "velocity": 83}, {"time": 4088, "pitch": 73, "duration": 9, "velocity": 79}, {"time": 4100, "pitch": 71, "duration": 28, "velocity": 81}, {"time": 4148, "pitch": 73, "duration": 4, "velocity": 87}, {"time": 4154, "pitch": 73, "duration": 9, "velocity": 87}, {"time": 4166, "pitch": 73, "duration": 3, "velocity": 85}, {"time": 4172, "pitch": 73, "duration": 9, "velocity": 85}, {"time": 4184, "pitch": 71, "duration": 9, "velocity": 85}, {"time": 4196, "pitch": 69, "duration": 3, "velocity": 84}, {"time": 4202, "pitch": 69, "duration": 8, "velocity": 83}, {"time": 4214, "pitch": 69, "duration": 4, "velocity": 83}, {"time": 4220, "pitch": 71, "duration": 4, "velocity": 84}, {"time": 4226, "pitch": 69, "duration": 4, "velocity": 84}, {"time": 4232, "pitch": 66, "duration": 6, "velocity": 84}, {"time": 4238, "pitch": 64, "duration": 6, "velocity": 84}, {"time": 4244, "pitch": 64, "duration": 4, "velocity": 83}, {"time": 4250, "pitch": 64, "duration": 8, "velocity": 90}, {"time": 4262, "pitch": 64, "duration": 4, "velocity": 89}, {"time": 4268, "pitch": 66, "duration": 4, "velocity": 89}, {"time": 4274, "pitch": 64, "duration": 3, "velocity": 89}, {"time": 4280, "pitch": 71, "duration": 4, "velocity": 86}, {"time": 4286, "pitch": 73, "duration": 4, "velocity": 75}, {"time": 4292, "pitch": 69, "duration": 47, "velocity": 83}, {"time": 4400, "pitch": 61, "duration": 4, "velocity": 83}, {"time": 4406, "pitch": 64, "duration": 4, "velocity": 83}, {"time": 4412, "pitch": 64, "duration": 12, "velocity": 86}, {"time": 4424, "pitch": 64, "duration": 6, "velocity": 86}, {"time": 4430, "pitch": 61, "duration": 4, "velocity": 83}, {"time": 4436, "pitch": 66, "duration": 3, "velocity": 88}, {"time": 4442, "pitch": 66, "duration": 6, "velocity": 85}, {"time": 4448, "pitch": 68, "duration": 6, "velocity": 85}, {"time": 4454, "pitch": 66, "duration": 10, "velocity": 85}, {"time": 4466, "pitch": 66, "duration": 6, "velocity": 94}, {"time": 4472, "pitch": 66, "duration": 4, "velocity": 81}, {"time": 4478, "pitch": 64, "duration": 4, "velocity": 90}, {"time": 4484, "pitch": 69, "duration": 8, "velocity": 85}, {"time": 4496, "pitch": 69, "duration": 7, "velocity": 84}, {"time": 4503, "pitch": 69, "duration": 7, "velocity": 84}, {"time": 4514, "pitch": 66, "duration": 5, "velocity": 85}, {"time": 4520, "pitch": 69, "duration": 6, "velocity": 83}, {"time": 4526, "pitch": 66, "duration": 3, "velocity": 86}, {"time": 4532, "pitch": 64, "duration": 29, "velocity": 87}, {"time": 4592, "pitch": 61, "duration": 5, "velocity": 89}, {"time": 4598, "pitch": 64, "duration": 3, "velocity": 85}, {"time": 4604, "pitch": 64, "duration": 13, "velocity": 83}, {"time": 4616, "pitch": 61, "duration": 4, "velocity": 84}, {"time": 4622, "pitch": 64, "duration": 6, "velocity": 94}, {"time": 4628, "pitch": 66, "duration": 3, "velocity": 87}, {"time": 4634, "pitch": 68, "duration": 9, "velocity": 85}, {"time": 4646, "pitch": 66, "duration": 7, "velocity": 83}, {"time": 4664, "pitch": 66, "duration": 4, "velocity": 89}, {"time": 4670, "pitch": 64, "duration": 4, "velocity": 85}, {"time": 4676, "pitch": 69, "duration": 8, "velocity": 84}, {"time": 4688, "pitch": 69, "duration": 6, "velocity": 84}, {"time": 4694, "pitch": 69, "duration": 6, "velocity": 84}, {"time": 4700, "pitch": 69, "duration": 5, "velocity": 84}, {"time": 4706, "pitch": 66, "duration": 3, "velocity": 85}, {"time": 4712, "pitch": 66, "duration": 6, "velocity": 85}, {"time": 4718, "pitch": 69, "duration": 6, "velocity": 85}, {"time": 4724, "pitch": 71, "duration": 23, "velocity": 84}, {"time": 4772, "pitch": 76, "duration": 4, "velocity": 84}, {"time": 4778, "pitch": 76, "duration": 8, "velocity": 85}, {"time": 4790, "pitch": 76, "duration": 9, "velocity": 89}, {"time": 4802, "pitch": 76, "duration": 4, "velocity": 85}, {"time": 4808, "pitch": 73, "duration": 5, "velocity": 86}, {"time": 4814, "pitch": 71, "duration": 3, "velocity": 84}, {"time": 4820, "pitch": 69, "duration": 4, "velocity": 85}, {"time": 4826, "pitch": 69, "duration": 6, "velocity": 83}, {"time": 4832, "pitch": 69, "duration": 6, "velocity": 83}, {"time": 4838, "pitch": 69, "duration": 6, "velocity": 84}, {"time": 4844, "pitch": 66, "duration": 6, "velocity": 94}, {"time": 4850, "pitch": 69, "duration": 3, "velocity": 84}, {"time": 4856, "pitch": 66, "duration": 4, "velocity": 84}, {"time": 4862, "pitch": 69, "duration": 3, "velocity": 84}, {"time": 4868, "pitch": 71, "duration": 3, "velocity": 84}, {"time": 4880, "pitch": 71, "duration": 3, "velocity": 84}, {"time": 4886, "pitch": 71, "duration": 3, "velocity": 82}, {"time": 4892, "pitch": 71, "duration": 4, "velocity": 84}, {"time": 4898, "pitch": 69, "duration": 4, "velocity": 83}, {"time": 4904, "pitch": 73, "duration": 6, "velocity": 79}, {"time": 4910, "pitch": 71, "duration": 6, "velocity": 94}, {"time": 4916, "pitch": 71, "duration": 28, "velocity": 81}, {"time": 4964, "pitch": 73, "duration": 4, "velocity": 87}, {"time": 4970, "pitch": 73, "duration": 9, "velocity": 87}, {"time": 4982, "pitch": 73, "duration": 3, "velocity": 85}, {"time": 4988, "pitch": 73, "duration": 9, "velocity": 85}, {"time": 5000, "pitch": 71, "duration": 9, "velocity": 85}, {"time": 5012, "pitch": 69, "duration": 3, "velocity": 84}, {"time": 5018, "pitch": 69, "duration": 8, "velocity": 83}, {"time": 5030, "pitch": 69, "duration": 4, "velocity": 83}, {"time": 5036, "pitch": 71, "duration": 4, "velocity": 84}, {"time": 5042, "pitch": 69, "duration": 4, "velocity": 84}, {"time": 5048, "pitch": 66, "duration": 6, "velocity": 84}, {"time": 5054, "pitch": 64, "duration": 6, "velocity": 84}, {"time": 5060, "pitch": 64, "duration": 4, "velocity": 83}, {"time": 5066, "pitch": 64, "duration": 8, "velocity": 90}, {"time": 5078, "pitch": 64, "duration": 4, "velocity": 89}, {"time": 5084, "pitch": 66, "duration": 4, "velocity": 89}, {"time": 5090, "pitch": 64, "duration": 3, "velocity": 89}, {"time": 5096, "pitch": 71, "duration": 4, "velocity": 86}, {"time": 5102, "pitch": 73, "duration": 4, "velocity": 75}, {"time": 5108, "pitch": 69, "duration": 47, "velocity": 83}, {"time": 5156, "pitch": 73, "duration": 4, "velocity": 87}, {"time": 5162, "pitch": 73, "duration": 9, "velocity": 87}, {"time": 5174, "pitch": 73, "duration": 3, "velocity": 85}, {"time": 5180, "pitch": 73, "duration": 9, "velocity": 85}, {"time": 5192, "pitch": 71, "duration": 9, "velocity": 85}, {"time": 5204, "pitch": 69, "duration": 3, "velocity": 84}, {"time": 5210, "pitch": 69, "duration": 8, "velocity": 83}, {"time": 5222, "pitch": 69, "duration": 4, "velocity": 83}, {"time": 5228, "pitch": 71, "duration": 4, "velocity": 84}, {"time": 5234, "pitch": 69, "duration": 4, "velocity": 84}, {"time": 5240, "pitch": 66, "duration": 6, "velocity": 84}, {"time": 5246, "pitch": 64, "duration": 6, "velocity": 84}, {"time": 5252, "pitch": 64, "duration": 4, "velocity": 83}, {"time": 5258, "pitch": 64, "duration": 8, "velocity": 90}, {"time": 5270, "pitch": 64, "duration": 4, "velocity": 89}, {"time": 5276, "pitch": 66, "duration": 4, "velocity": 89}, {"time": 5282, "pitch": 64, "duration": 3, "velocity": 89}, {"time": 5288, "pitch": 71, "duration": 4, "velocity": 86}, {"time": 5294, "pitch": 73, "duration": 4, "velocity": 75}, {"time": 5300, "pitch": 69, "duration": 47, "velocity": 83}]}, {"program": 0, "is_drum": false, "name": "PIANO", "notes": [{"time": 20, "pitch": 45, "duration": 20, "velocity": 84}, {"time": 26, "pitch": 52, "duration": 14, "velocity": 80}, {"time": 32, "pitch": 61, "duration": 10, "velocity": 82}, {"time": 32, "pitch": 64, "duration": 13, "velocity": 84}, {"time": 44, "pitch": 52, "duration": 15, "velocity": 84}, {"time": 50, "pitch": 57, "duration": 4, "velocity": 77}, {"time": 56, "pitch": 61, "duration": 15, "velocity": 88}, {"time": 56, "pitch": 64, "duration": 3, "velocity": 90}, {"time": 56, "pitch": 69, "duration": 17, "velocity": 83}, {"time": 62, "pitch": 57, "duration": 8, "velocity": 69}, {"time": 62, "pitch": 64, "duration": 8, "velocity": 31}, {"time": 68, "pitch": 45, "duration": 20, "velocity": 84}, {"time": 74, "pitch": 52, "duration": 13, "velocity": 70}, {"time": 80, "pitch": 61, "duration": 16, "velocity": 88}, {"time": 80, "pitch": 64, "duration": 19, "velocity": 85}, {"time": 92, "pitch": 52, "duration": 8, "velocity": 84}, {"time": 98, "pitch": 57, "duration": 5, "velocity": 85}, {"time": 104, "pitch": 61, "duration": 4, "velocity": 92}, {"time": 104, "pitch": 64, "duration": 9, "velocity": 90}, {"time": 104, "pitch": 69, "duration": 8, "velocity": 80}, {"time": 110, "pitch": 57, "duration": 5, "velocity": 84}, {"time": 116, "pitch": 38, "duration": 18, "velocity": 82}, {"time": 122, "pitch": 57, "duration": 5, "velocity": 83}, {"time": 128, "pitch": 62, "duration": 10, "velocity": 87}, {"time": 128, "pitch": 66, "duration": 12, "velocity": 85}, {"time": 134, "pitch": 57, "duration": 4, "velocity": 84}, {"time": 140, "pitch": 40, "duration": 10, "velocity": 88}, {"time": 146, "pitch": 59, "duration": 4, "velocity": 80}, {"time": 152, "pitch": 64, "duration": 9, "velocity": 90}, {"time": 152, "pitch": 68, "duration": 10, "velocity": 83}, {"time": 158, "pitch": 59, "duration": 5, "velocity": 84}, {"time": 164, "pitch": 42, "duration": 24, "velocity": 86}, {"time": 170, "pitch": 49, "duration": 19, "velocity": 73}, {"time": 176, "pitch": 54, "duration": 2, "velocity": 67}, {"time": 176, "pitch": 57, "duration": 2, "velocity": 66}, {"time": 176, "pitch": 61, "duration": 2, "velocity": 75}, {"time": 182, "pitch": 54, "duration": 6, "velocity": 83}, {"time": 182, "pitch": 57, "duration": 6, "velocity": 79}, {"time": 182, "pitch": 61, "duration": 6, "velocity": 78}, {"time": 194, "pitch": 54, "duration": 4, "velocity": 77}, {"time": 194, "pitch": 66, "duration": 6, "velocity": 81}, {"time": 206, "pitch": 54, "duration": 5, "velocity": 85}, {"time": 212, "pitch": 38, "duration": 15, "velocity": 90}, {"time": 218, "pitch": 45, "duration": 8, "velocity": 71}, {"time": 224, "pitch": 50, "duration": 2, "velocity": 82}, {"time": 224, "pitch": 54, "duration": 6, "velocity": 84}, {"time": 224, "pitch": 57, "duration": 7, "velocity": 83}, {"time": 224, "pitch": 62, "duration": 8, "velocity": 79}, {"time": 230, "pitch": 50, "duration": 2, "velocity": 77}, {"time": 236, "pitch": 40, "duration": 11, "velocity": 86}, {"time": 236, "pitch": 52, "duration": 6, "velocity": 84}, {"time": 236, "pitch": 56, "duration": 7, "velocity": 84}, {"time": 236, "pitch": 59, "duration": 10, "velocity": 83}, {"time": 242, "pitch": 47, "duration": 4, "velocity": 71}, {"time": 248, "pitch": 52, "duration": 2, "velocity": 84}, {"time": 254, "pitch": 45, "duration": 48, "velocity": 85}, {"time": 254, "pitch": 57, "duration": 14, "velocity": 76}, {"time": 254, "pitch": 61, "duration": 14, "velocity": 78}, {"time": 266, "pitch": 64, "duration": 3, "velocity": 79}, {"time": 272, "pitch": 57, "duration": 5, "velocity": 85}, {"time": 272, "pitch": 61, "duration": 5, "velocity": 84}, {"time": 272, "pitch": 69, "duration": 7, "velocity": 84}, {"time": 278, "pitch": 52, "duration": 14, "velocity": 82}, {"time": 284, "pitch": 57, "duration": 2, "velocity": 81}, {"time": 290, "pitch": 57, "duration": 7, "velocity": 85}, {"time": 290, "pitch": 61, "duration": 7, "velocity": 88}, {"time": 290, "pitch": 64, "duration": 7, "velocity": 89}, {"time": 296, "pitch": 52, "duration": 8, "velocity": 79}, {"time": 302, "pitch": 57, "duration": 15, "velocity": 83}, {"time": 302, "pitch": 61, "duration": 14, "velocity": 78}, {"time": 302, "pitch": 64, "duration": 14, "velocity": 84}, {"time": 302, "pitch": 69, "duration": 14, "velocity": 80}, {"time": 308, "pitch": 45, "duration": 38, "velocity": 85}, {"time": 314, "pitch": 52, "duration": 14, "velocity": 77}, {"time": 320, "pitch": 61, "duration": 15, "velocity": 78}, {"time": 320, "pitch": 64, "duration": 19, "velocity": 81}, {"time": 326, "pitch": 57, "duration": 8, "velocity": 79}, {"time": 332, "pitch": 52, "duration": 15, "velocity": 78}, {"time": 338, "pitch": 57, "duration": 4, "velocity": 74}, {"time": 344, "pitch": 61, "duration": 16, "velocity": 85}, {"time": 344, "pitch": 64, "duration": 16, "velocity": 84}, {"time": 344, "pitch": 69, "duration": 15, "velocity": 78}, {"time": 356, "pitch": 45, "duration": 19, "velocity": 85}, {"time": 362, "pitch": 52, "duration": 13, "velocity": 80}, {"time": 368, "pitch": 61, "duration": 9, "velocity": 89}, {"time": 368, "pitch": 64, "duration": 13, "velocity": 88}, {"time": 374, "pitch": 57, "duration": 7, "velocity": 83}, {"time": 380, "pitch": 52, "duration": 13, "velocity": 83}, {"time": 386, "pitch": 57, "duration": 4, "velocity": 83}, {"time": 392, "pitch": 61, "duration": 7, "velocity": 88}, {"time": 392, "pitch": 64, "duration": 13, "velocity": 87}, {"time": 398, "pitch": 57, "duration": 5, "velocity": 83}, {"time": 404, "pitch": 42, "duration": 16, "velocity": 88}, {"time": 410, "pitch": 49, "duration": 11, "velocity": 61}, {"time": 416, "pitch": 57, "duration": 8, "velocity": 80}, {"time": 416, "pitch": 61, "duration": 7, "velocity": 80}, {"time": 422, "pitch": 54, "duration": 5, "velocity": 89}, {"time": 428, "pitch": 49, "duration": 9, "velocity": 73}, {"time": 434, "pitch": 54, "duration": 3, "velocity": 85}, {"time": 440, "pitch": 54, "duration": 1, "velocity": 84}, {"time": 440, "pitch": 57, "duration": 3, "velocity": 84}, {"time": 440, "pitch": 61, "duration": 4, "velocity": 77}, {"time": 452, "pitch": 38, "duration": 18, "velocity": 87}, {"time": 452, "pitch": 57, "duration": 5, "velocity": 80}, {"time": 452, "pitch": 62, "duration": 8, "velocity": 80}, {"time": 458, "pitch": 57, "duration": 3, "velocity": 74}, {"time": 464, "pitch": 57, "duration": 1, "velocity": 77}, {"time": 464, "pitch": 62, "duration": 9, "velocity": 87}, {"time": 464, "pitch": 66, "duration": 11, "velocity": 84}, {"time": 470, "pitch": 57, "duration": 6, "velocity": 84}, {"time": 476, "pitch": 45, "duration": 11, "velocity": 71}, {"time": 482, "pitch": 57, "duration": 2, "velocity": 74}, {"time": 488, "pitch": 57, "duration": 2, "velocity": 85}, {"time": 488, "pitch": 62, "duration": 6, "velocity": 85}, {"time": 494, "pitch": 57, "duration": 2, "velocity": 73}, {"time": 500, "pitch": 40, "duration": 17, "velocity": 85}, {"time": 500, "pitch": 59, "duration": 4, "velocity": 77}, {"time": 500, "pitch": 64, "duration": 8, "velocity": 84}, {"time": 506, "pitch": 59, "duration": 3, "velocity": 77}, {"time": 512, "pitch": 59, "duration": 2, "velocity": 83}, {"time": 512, "pitch": 64, "duration": 8, "velocity": 88}, {"time": 512, "pitch": 68, "duration": 11, "velocity": 79}, {"time": 518, "pitch": 59, "duration": 5, "velocity": 84}, {"time": 524, "pitch": 47, "duration": 6, "velocity": 67}, {"time": 530, "pitch": 59, "duration": 3, "velocity": 80}, {"time": 536, "pitch": 59, "duration": 2, "velocity": 87}, {"time": 536, "pitch": 64, "duration": 2, "velocity": 90}, {"time": 536, "pitch": 68, "duration": 7, "velocity": 83}, {"time": 542, "pitch": 59, "duration": 4, "velocity": 83}, {"time": 548, "pitch": 45, "duration": 15, "velocity": 84}, {"time": 548, "pitch": 57, "duration": 6, "velocity": 83}, {"time": 548, "pitch": 61, "duration": 7, "velocity": 84}, {"time": 554, "pitch": 52, "duration": 8, "velocity": 78}, {"time": 560, "pitch": 57, "duration": 2, "velocity": 79}, {"time": 560, "pitch": 61, "duration": 5, "velocity": 82}, {"time": 560, "pitch": 64, "duration": 5, "velocity": 85}, {"time": 566, "pitch": 57, "duration": 5, "velocity": 87}, {"time": 572, "pitch": 52, "duration": 14, "velocity": 76}, {"time": 578, "pitch": 57, "duration": 3, "velocity": 83}, {"time": 584, "pitch": 61, "duration": 4, "velocity": 87}, {"time": 584, "pitch": 64, "duration": 4, "velocity": 86}, {"time": 590, "pitch": 57, "duration": 3, "velocity": 83}, {"time": 596, "pitch": 42, "duration": 16, "velocity": 77}, {"time": 596, "pitch": 57, "duration": 4, "velocity": 78}, {"time": 596, "pitch": 61, "duration": 7, "velocity": 77}, {"time": 602, "pitch": 49, "duration": 10, "velocity": 50}, {"time": 608, "pitch": 61, "duration": 7, "velocity": 87}, {"time": 608, "pitch": 66, "duration": 7, "velocity": 81}, {"time": 614, "pitch": 57, "duration": 6, "velocity": 87}, {"time": 620, "pitch": 49, "duration": 5, "velocity": 72}, {"time": 626, "pitch": 57, "duration": 3, "velocity": 80}, {"time": 632, "pitch": 57, "duration": 2, "velocity": 83}, {"time": 632, "pitch": 61, "duration": 4, "velocity": 94}, {"time": 632, "pitch": 66, "duration": 9, "velocity": 83}, {"time": 638, "pitch": 57, "duration": 3, "velocity": 80}, {"time": 644, "pitch": 50, "duration": 20, "velocity": 84}, {"time": 644, "pitch": 57, "duration": 3, "velocity": 79}, {"time": 644, "pitch": 62, "duration": 7, "velocity": 83}, {"time": 650, "pitch": 57, "duration": 3, "velocity": 82}, {"time": 656, "pitch": 62, "duration": 4, "velocity": 87}, {"time": 656, "pitch": 66, "duration": 13, "velocity": 85}, {"time": 662, "pitch": 57, "duration": 7, "velocity": 84}, {"time": 662, "pitch": 62, "duration": 3, "velocity": 58}, {"time": 668, "pitch": 50, "duration": 7, "velocity": 77}, {"time": 674, "pitch": 57, "duration": 3, "velocity": 84}, {"time": 680, "pitch": 57, "duration": 2, "velocity": 85}, {"time": 680, "pitch": 62, "duration": 8, "velocity": 90}, {"time": 686, "pitch": 57, "duration": 3, "velocity": 78}, {"time": 692, "pitch": 40, "duration": 19, "velocity": 86}, {"time": 692, "pitch": 59, "duration": 5, "velocity": 83}, {"time": 692, "pitch": 64, "duration": 4, "velocity": 84}, {"time": 698, "pitch": 47, "duration": 12, "velocity": 67}, {"time": 704, "pitch": 56, "duration": 7, "velocity": 83}, {"time": 704, "pitch": 59, "duration": 12, "velocity": 83}, {"time": 710, "pitch": 52, "duration": 8, "velocity": 87}, {"time": 716, "pitch": 47, "duration": 12, "velocity": 77}, {"time": 722, "pitch": 52, "duration": 7, "velocity": 85}, {"time": 728, "pitch": 56, "duration": 7, "velocity": 85}, {"time": 728, "pitch": 59, "duration": 8, "velocity": 84}, {"time": 728, "pitch": 64, "duration": 12, "velocity": 83}, {"time": 734, "pitch": 52, "duration": 3, "velocity": 84}, {"time": 740, "pitch": 37, "duration": 19, "velocity": 76}, {"time": 740, "pitch": 56, "duration": 10, "velocity": 79}, {"time": 740, "pitch": 61, "duration": 8, "velocity": 82}, {"time": 752, "pitch": 61, "duration": 15, "velocity": 88}, {"time": 752, "pitch": 64, "duration": 9, "velocity": 88}, {"time": 758, "pitch": 56, "duration": 8, "velocity": 87}, {"time": 764, "pitch": 44, "duration": 8, "velocity": 86}, {"time": 770, "pitch": 56, "duration": 3, "velocity": 89}, {"time": 770, "pitch": 61, "duration": 1, "velocity": 63}, {"time": 776, "pitch": 56, "duration": 2, "velocity": 73}, {"time": 776, "pitch": 61, "duration": 6, "velocity": 83}, {"time": 776, "pitch": 64, "duration": 8, "velocity": 87}, {"time": 782, "pitch": 56, "duration": 2, "velocity": 84}, {"time": 788, "pitch": 42, "duration": 17, "velocity": 83}, {"time": 788, "pitch": 54, "duration": 8, "velocity": 84}, {"time": 788, "pitch": 57, "duration": 8, "velocity": 75}, {"time": 794, "pitch": 49, "duration": 14, "velocity": 73}, {"time": 800, "pitch": 57, "duration": 4, "velocity": 86}, {"time": 800, "pitch": 61, "duration": 5, "velocity": 85}, {"time": 806, "pitch": 54, "duration": 6, "velocity": 87}, {"time": 812, "pitch": 49, "duration": 10, "velocity": 71}, {"time": 818, "pitch": 54, "duration": 4, "velocity": 79}, {"time": 824, "pitch": 54, "duration": 2, "velocity": 87}, {"time": 824, "pitch": 57, "duration": 3, "velocity": 89}, {"time": 824, "pitch": 61, "duration": 2, "velocity": 77}, {"time": 824, "pitch": 66, "duration": 11, "velocity": 80}, {"time": 830, "pitch": 54, "duration": 3, "velocity": 88}, {"time": 836, "pitch": 47, "duration": 20, "velocity": 87}, {"time": 842, "pitch": 59, "duration": 8, "velocity": 86}, {"time": 848, "pitch": 63, "duration": 13, "velocity": 84}, {"time": 848, "pitch": 66, "duration": 8, "velocity": 83}, {"time": 854, "pitch": 59, "duration": 6, "velocity": 89}, {"time": 860, "pitch": 54, "duration": 10, "velocity": 84}, {"time": 866, "pitch": 59, "duration": 8, "velocity": 89}, {"time": 872, "pitch": 63, "duration": 5, "velocity": 89}, {"time": 872, "pitch": 66, "duration": 8, "velocity": 88}, {"time": 878, "pitch": 59, "duration": 3, "velocity": 85}, {"time": 884, "pitch": 40, "duration": 18, "velocity": 79}, {"time": 884, "pitch": 59, "duration": 5, "velocity": 83}, {"time": 884, "pitch": 64, "duration": 8, "velocity": 86}, {"time": 890, "pitch": 59, "duration": 4, "velocity": 85}, {"time": 896, "pitch": 64, "duration": 14, "velocity": 85}, {"time": 896, "pitch": 68, "duration": 14, "velocity": 81}, {"time": 902, "pitch": 59, "duration": 8, "velocity": 87}, {"time": 908, "pitch": 47, "duration": 9, "velocity": 79}, {"time": 914, "pitch": 59, "duration": 3, "velocity": 85}, {"time": 920, "pitch": 59, "duration": 3, "velocity": 86}, {"time": 920, "pitch": 64, "duration": 4, "velocity": 85}, {"time": 920, "pitch": 68, "duration": 4, "velocity": 82}, {"time": 932, "pitch": 45, "duration": 18, "velocity": 84}, {"time": 932, "pitch": 57, "duration": 5, "velocity": 77}, {"time": 932, "pitch": 61, "duration": 8, "velocity": 78}, {"time": 938, "pitch": 52, "duration": 9, "velocity": 75}, {"time": 944, "pitch": 61, "duration": 8, "velocity": 90}, {"time": 944, "pitch": 64, "duration": 8, "velocity": 85}, {"time": 950, "pitch": 57, "duration": 8, "velocity": 86}, {"time": 956, "pitch": 52, "duration": 13, "velocity": 78}, {"time": 962, "pitch": 57, "duration": 3, "velocity": 83}, {"time": 968, "pitch": 57, "duration": 2, "velocity": 79}, {"time": 968, "pitch": 61, "duration": 5, "velocity": 87}, {"time": 968, "pitch": 64, "duration": 7, "velocity": 85}, {"time": 974, "pitch": 57, "duration": 3, "velocity": 79}, {"time": 980, "pitch": 38, "duration": 12, "velocity": 75}, {"time": 980, "pitch": 57, "duration": 8, "velocity": 80}, {"time": 980, "pitch": 62, "duration": 9, "velocity": 83}, {"time": 992, "pitch": 57, "duration": 2, "velocity": 83}, {"time": 992, "pitch": 62, "duration": 13, "velocity": 86}, {"time": 992, "pitch": 66, "duration": 20, "velocity": 83}, {"time": 998, "pitch": 57, "duration": 6, "velocity": 84}, {"time": 1004, "pitch": 50, "duration": 8, "velocity": 84}, {"time": 1010, "pitch": 57, "duration": 3, "velocity": 84}, {"time": 1010, "pitch": 62, "duration": 1, "velocity": 57}, {"time": 1016, "pitch": 57, "duration": 4, "velocity": 90}, {"time": 1016, "pitch": 62, "duration": 4, "velocity": 89}, {"time": 1028, "pitch": 40, "duration": 19, "velocity": 85}, {"time": 1028, "pitch": 59, "duration": 8, "velocity": 79}, {"time": 1028, "pitch": 64, "duration": 9, "velocity": 84}, {"time": 1040, "pitch": 59, "duration": 3, "velocity": 83}, {"time": 1040, "pitch": 64, "duration": 6, "velocity": 87}, {"time": 1046, "pitch": 59, "duration": 7, "velocity": 90}, {"time": 1052, "pitch": 47, "duration": 5, "velocity": 80}, {"time": 1058, "pitch": 59, "duration": 3, "velocity": 84}, {"time": 1064, "pitch": 59, "duration": 3, "velocity": 87}, {"time": 1064, "pitch": 64, "duration": 3, "velocity": 90}, {"time": 1064, "pitch": 68, "duration": 3, "velocity": 83}, {"time": 1076, "pitch": 45, "duration": 20, "velocity": 84}, {"time": 1076, "pitch": 57, "duration": 10, "velocity": 75}, {"time": 1076, "pitch": 61, "duration": 9, "velocity": 70}, {"time": 1076, "pitch": 64, "duration": 9, "velocity": 75}, {"time": 1088, "pitch": 61, "duration": 4, "velocity": 84}, {"time": 1088, "pitch": 64, "duration": 8, "velocity": 87}, {"time": 1094, "pitch": 57, "duration": 6, "velocity": 88}, {"time": 1100, "pitch": 52, "duration": 19, "velocity": 75}, {"time": 1106, "pitch": 57, "duration": 2, "velocity": 76}, {"time": 1112, "pitch": 57, "duration": 1, "velocity": 78}, {"time": 1112, "pitch": 61, "duration": 13, "velocity": 89}, {"time": 1112, "pitch": 64, "duration": 15, "velocity": 86}, {"time": 1118, "pitch": 57, "duration": 7, "velocity": 84}, {"time": 1124, "pitch": 45, "duration": 20, "velocity": 86}, {"time": 1130, "pitch": 52, "duration": 10, "velocity": 76}, {"time": 1136, "pitch": 57, "duration": 2, "velocity": 83}, {"time": 1136, "pitch": 61, "duration": 11, "velocity": 94}, {"time": 1136, "pitch": 64, "duration": 13, "velocity": 89}, {"time": 1142, "pitch": 57, "duration": 6, "velocity": 83}, {"time": 1148, "pitch": 52, "duration": 7, "velocity": 83}, {"time": 1154, "pitch": 57, "duration": 4, "velocity": 88}, {"time": 1160, "pitch": 61, "duration": 10, "velocity": 90}, {"time": 1160, "pitch": 64, "duration": 10, "velocity": 88}, {"time": 1166, "pitch": 40, "duration": 5, "velocity": 89}, {"time": 1172, "pitch": 45, "duration": 19, "velocity": 85}, {"time": 1178, "pitch": 52, "duration": 13, "velocity": 80}, {"time": 1184, "pitch": 61, "duration": 9, "velocity": 89}, {"time": 1184, "pitch": 64, "duration": 13, "velocity": 88}, {"time": 1190, "pitch": 57, "duration": 7, "velocity": 83}, {"time": 1196, "pitch": 52, "duration": 13, "velocity": 83}, {"time": 1202, "pitch": 57, "duration": 4, "velocity": 83}, {"time": 1208, "pitch": 61, "duration": 7, "velocity": 88}, {"time": 1208, "pitch": 64, "duration": 13, "velocity": 87}, {"time": 1214, "pitch": 57, "duration": 5, "velocity": 83}, {"time": 1220, "pitch": 42, "duration": 16, "velocity": 88}, {"time": 1226, "pitch": 49, "duration": 11, "velocity": 61}, {"time": 1232, "pitch": 57, "duration": 8, "velocity": 80}, {"time": 1232, "pitch": 61, "duration": 7, "velocity": 80}, {"time": 1238, "pitch": 54, "duration": 5, "velocity": 89}, {"time": 1244, "pitch": 49, "duration": 9, "velocity": 73}, {"time": 1250, "pitch": 54, "duration": 3, "velocity": 85}, {"time": 1256, "pitch": 54, "duration": 1, "velocity": 84}, {"time": 1256, "pitch": 57, "duration": 3, "velocity": 84}, {"time": 1256, "pitch": 61, "duration": 4, "velocity": 77}, {"time": 1268, "pitch": 38, "duration": 18, "velocity": 87}, {"time": 1268, "pitch": 57, "duration": 5, "velocity": 80}, {"time": 1268, "pitch": 62, "duration": 8, "velocity": 80}, {"time": 1274, "pitch": 57, "duration": 3, "velocity": 74}, {"time": 1280, "pitch": 57, "duration": 1, "velocity": 77}, {"time": 1280, "pitch": 62, "duration": 9, "velocity": 87}, {"time": 1280, "pitch": 66, "duration": 11, "velocity": 84}, {"time": 1286, "pitch": 57, "duration": 6, "velocity": 84}, {"time": 1292, "pitch": 45, "duration": 11, "velocity": 71}, {"time": 1298, "pitch": 57, "duration": 2, "velocity": 74}, {"time": 1304, "pitch": 57, "duration": 2, "velocity": 85}, {"time": 1304, "pitch": 62, "duration": 6, "velocity": 85}, {"time": 1310, "pitch": 57, "duration": 2, "velocity": 73}, {"time": 1316, "pitch": 40, "duration": 17, "velocity": 85}, {"time": 1316, "pitch": 59, "duration": 4, "velocity": 77}, {"time": 1316, "pitch": 64, "duration": 8, "velocity": 84}, {"time": 1322, "pitch": 59, "duration": 3, "velocity": 77}, {"time": 1328, "pitch": 59, "duration": 2, "velocity": 83}, {"time": 1328, "pitch": 64, "duration": 8, "velocity": 88}, {"time": 1328, "pitch": 68, "duration": 11, "velocity": 79}, {"time": 1334, "pitch": 59, "duration": 5, "velocity": 84}, {"time": 1340, "pitch": 47, "duration": 6, "velocity": 67}, {"time": 1346, "pitch": 59, "duration": 3, "velocity": 80}, {"time": 1352, "pitch": 59, "duration": 2, "velocity": 87}, {"time": 1352, "pitch": 64, "duration": 2, "velocity": 90}, {"time": 1352, "pitch": 68, "duration": 7, "velocity": 83}, {"time": 1358, "pitch": 59, "duration": 4, "velocity": 83}, {"time": 1364, "pitch": 45, "duration": 15, "velocity": 84}, {"time": 1364, "pitch": 57, "duration": 6, "velocity": 83}, {"time": 1364, "pitch": 61, "duration": 7, "velocity": 84}, {"time": 1370, "pitch": 52, "duration": 8, "velocity": 78}, {"time": 1376, "pitch": 57, "duration": 2, "velocity": 79}, {"time": 1376, "pitch": 61, "duration": 5, "velocity": 82}, {"time": 1376, "pitch": 64, "duration": 5, "velocity": 85}, {"time": 1382, "pitch": 57, "duration": 5, "velocity": 87}, {"time": 1388, "pitch": 52, "duration": 14, "velocity": 76}, {"time": 1394, "pitch": 57, "duration": 3, "velocity": 83}, {"time": 1400, "pitch": 61, "duration": 4, "velocity": 87}, {"time": 1400, "pitch": 64, "duration": 4, "velocity": 86}, {"time": 1406, "pitch": 57, "duration": 3, "velocity": 83}, {"time": 1412, "pitch": 42, "duration": 16, "velocity": 77}, {"time": 1412, "pitch": 57, "duration": 4, "velocity": 78}, {"time": 1412, "pitch": 61, "duration": 7, "velocity": 77}, {"time": 1418, "pitch": 49, "duration": 10, "velocity": 50}, {"time": 1424, "pitch": 61, "duration": 7, "velocity": 87}, {"time": 1424, "pitch": 66, "duration": 7, "velocity": 81}, {"time": 1430, "pitch": 57, "duration": 6, "velocity": 87}, {"time": 1436, "pitch": 49, "duration": 5, "velocity": 72}, {"time": 1442, "pitch": 57, "duration": 3, "velocity": 80}, {"time": 1448, "pitch": 57, "duration": 2, "velocity": 83}, {"time": 1448, "pitch": 61, "duration": 4, "velocity": 94}, {"time": 1448, "pitch": 66, "duration": 9, "velocity": 83}, {"time": 1454, "pitch": 57, "duration": 3, "velocity": 80}, {"time": 1460, "pitch": 50, "duration": 20, "velocity": 84}, {"time": 1460, "pitch": 57, "duration": 3, "velocity": 79}, {"time": 1460, "pitch": 62, "duration": 7, "velocity": 83}, {"time": 1466, "pitch": 57, "duration": 3, "velocity": 82}, {"time": 1472, "pitch": 62, "duration": 4, "velocity": 87}, {"time": 1472, "pitch": 66, "duration": 13, "velocity": 85}, {"time": 1478, "pitch": 57, "duration": 7, "velocity": 84}, {"time": 1478, "pitch": 62, "duration": 3, "velocity": 58}, {"time": 1484, "pitch": 50, "duration": 7, "velocity": 77}, {"time": 1490, "pitch": 57, "duration": 3, "velocity": 84}, {"time": 1496, "pitch": 57, "duration": 2, "velocity": 85}, {"time": 1496, "pitch": 62, "duration": 8, "velocity": 90}, {"time": 1502, "pitch": 57, "duration": 3, "velocity": 78}, {"time": 1508, "pitch": 40, "duration": 19, "velocity": 86}, {"time": 1508, "pitch": 59, "duration": 5, "velocity": 83}, {"time": 1508, "pitch": 64, "duration": 4, "velocity": 84}, {"time": 1514, "pitch": 47, "duration": 12, "velocity": 67}, {"time": 1520, "pitch": 56, "duration": 7, "velocity": 83}, {"time": 1520, "pitch": 59, "duration": 12, "velocity": 83}, {"time": 1526, "pitch": 52, "duration": 8, "velocity": 87}, {"time": 1532, "pitch": 47, "duration": 12, "velocity": 77}, {"time": 1538, "pitch": 52, "duration": 7, "velocity": 85}, {"time": 1544, "pitch": 56, "duration": 7, "velocity": 85}, {"time": 1544, "pitch": 59, "duration": 8, "velocity": 84}, {"time": 1544, "pitch": 64, "duration": 12, "velocity": 83}, {"time": 1550, "pitch": 52, "duration": 3, "velocity": 84}, {"time": 1556, "pitch": 37, "duration": 19, "velocity": 76}, {"time": 1556, "pitch": 56, "duration": 10, "velocity": 79}, {"time": 1556, "pitch": 61, "duration": 8, "velocity": 82}, {"time": 1568, "pitch": 61, "duration": 15, "velocity": 88}, {"time": 1568, "pitch": 64, "duration": 9, "velocity": 88}, {"time": 1574, "pitch": 56, "duration": 8, "velocity": 87}, {"time": 1580, "pitch": 44, "duration": 8, "velocity": 86}, {"time": 1586, "pitch": 56, "duration": 3, "velocity": 89}, {"time": 1586, "pitch": 61, "duration": 1, "velocity": 63}, {"time": 1592, "pitch": 56, "duration": 2, "velocity": 73}, {"time": 1592, "pitch": 61, "duration": 6, "velocity": 83}, {"time": 1592, "pitch": 64, "duration": 8, "velocity": 87}, {"time": 1598, "pitch": 56, "duration": 2, "velocity": 84}, {"time": 1604, "pitch": 42, "duration": 17, "velocity": 83}, {"time": 1604, "pitch": 54, "duration": 8, "velocity": 84}, {"time": 1604, "pitch": 57, "duration": 8, "velocity": 75}, {"time": 1610, "pitch": 49, "duration": 14, "velocity": 73}, {"time": 1616, "pitch": 57, "duration": 4, "velocity": 86}, {"time": 1616, "pitch": 61, "duration": 5, "velocity": 85}, {"time": 1622, "pitch": 54, "duration": 6, "velocity": 87}, {"time": 1628, "pitch": 49, "duration": 10, "velocity": 71}, {"time": 1634, "pitch": 54, "duration": 4, "velocity": 79}, {"time": 1640, "pitch": 54, "duration": 2, "velocity": 87}, {"time": 1640, "pitch": 57, "duration": 3, "velocity": 89}, {"time": 1640, "pitch": 61, "duration": 2, "velocity": 77}, {"time": 1640, "pitch": 66, "duration": 11, "velocity": 80}, {"time": 1646, "pitch": 54, "duration": 3, "velocity": 88}, {"time": 1652, "pitch": 47, "duration": 20, "velocity": 87}, {"time": 1658, "pitch": 59, "duration": 8, "velocity": 86}, {"time": 1664, "pitch": 63, "duration": 13, "velocity": 84}, {"time": 1664, "pitch": 66, "duration": 8, "velocity": 83}, {"time": 1670, "pitch": 59, "duration": 6, "velocity": 89}, {"time": 1676, "pitch": 54, "duration": 10, "velocity": 84}, {"time": 1682, "pitch": 59, "duration": 8, "velocity": 89}, {"time": 1688, "pitch": 63, "duration": 5, "velocity": 89}, {"time": 1688, "pitch": 66, "duration": 8, "velocity": 88}, {"time": 1694, "pitch": 59, "duration": 3, "velocity": 85}, {"time": 1700, "pitch": 40, "duration": 18, "velocity": 79}, {"time": 1700, "pitch": 59, "duration": 5, "velocity": 83}, {"time": 1700, "pitch": 64, "duration": 8, "velocity": 86}, {"time": 1706, "pitch": 59, "duration": 4, "velocity": 85}, {"time": 1712, "pitch": 64, "duration": 14, "velocity": 85}, {"time": 1712, "pitch": 68, "duration": 14, "velocity": 81}, {"time": 1718, "pitch": 59, "duration": 8, "velocity": 87}, {"time": 1724, "pitch": 47, "duration": 9, "velocity": 79}, {"time": 1730, "pitch": 59, "duration": 3, "velocity": 85}, {"time": 1736, "pitch": 59, "duration": 3, "velocity": 86}, {"time": 1736, "pitch": 64, "duration": 4, "velocity": 85}, {"time": 1736, "pitch": 68, "duration": 4, "velocity": 82}, {"time": 1748, "pitch": 45, "duration": 18, "velocity": 84}, {"time": 1748, "pitch": 57, "duration": 5, "velocity": 77}, {"time": 1748, "pitch": 61, "duration": 8, "velocity": 78}, {"time": 1754, "pitch": 52, "duration": 9, "velocity": 75}, {"time": 1760, "pitch": 61, "duration": 8, "velocity": 90}, {"time": 1760, "pitch": 64, "duration": 8, "velocity": 85}, {"time": 1766, "pitch": 57, "duration": 8, "velocity": 86}, {"time": 1772, "pitch": 52, "duration": 13, "velocity": 78}, {"time": 1778, "pitch": 57, "duration": 3, "velocity": 83}, {"time": 1784, "pitch": 57, "duration": 2, "velocity": 79}, {"time": 1784, "pitch": 61, "duration": 5, "velocity": 87}, {"time": 1784, "pitch": 64, "duration": 7, "velocity": 85}, {"time": 1790, "pitch": 57, "duration": 3, "velocity": 79}, {"time": 1796, "pitch": 38, "duration": 12, "velocity": 75}, {"time": 1796, "pitch": 57, "duration": 8, "velocity": 80}, {"time": 1796, "pitch": 62, "duration": 9, "velocity": 83}, {"time": 1808, "pitch": 57, "duration": 2, "velocity": 83}, {"time": 1808, "pitch": 62, "duration": 13, "velocity": 86}, {"time": 1808, "pitch": 66, "duration": 20, "velocity": 83}, {"time": 1814, "pitch": 57, "duration": 6, "velocity": 84}, {"time": 1820, "pitch": 50, "duration": 8, "velocity": 84}, {"time": 1826, "pitch": 57, "duration": 3, "velocity": 84}, {"time": 1826, "pitch": 62, "duration": 1, "velocity": 57}, {"time": 1832, "pitch": 57, "duration": 4, "velocity": 90}, {"time": 1832, "pitch": 62, "duration": 4, "velocity": 89}, {"time": 1844, "pitch": 40, "duration": 19, "velocity": 85}, {"time": 1844, "pitch": 59, "duration": 8, "velocity": 79}, {"time": 1844, "pitch": 64, "duration": 9, "velocity": 84}, {"time": 1856, "pitch": 59, "duration": 3, "velocity": 83}, {"time": 1856, "pitch": 64, "duration": 6, "velocity": 87}, {"time": 1862, "pitch": 59, "duration": 7, "velocity": 90}, {"time": 1868, "pitch": 47, "duration": 5, "velocity": 80}, {"time": 1874, "pitch": 59, "duration": 3, "velocity": 84}, {"time": 1880, "pitch": 59, "duration": 3, "velocity": 87}, {"time": 1880, "pitch": 64, "duration": 3, "velocity": 90}, {"time": 1880, "pitch": 68, "duration": 3, "velocity": 83}, {"time": 1892, "pitch": 45, "duration": 20, "velocity": 84}, {"time": 1892, "pitch": 57, "duration": 10, "velocity": 75}, {"time": 1892, "pitch": 61, "duration": 9, "velocity": 70}, {"time": 1892, "pitch": 64, "duration": 9, "velocity": 75}, {"time": 1904, "pitch": 61, "duration": 4, "velocity": 84}, {"time": 1904, "pitch": 64, "duration": 8, "velocity": 87}, {"time": 1910, "pitch": 57, "duration": 6, "velocity": 88}, {"time": 1916, "pitch": 52, "duration": 19, "velocity": 75}, {"time": 1922, "pitch": 57, "duration": 2, "velocity": 76}, {"time": 1928, "pitch": 57, "duration": 1, "velocity": 78}, {"time": 1928, "pitch": 61, "duration": 13, "velocity": 89}, {"time": 1928, "pitch": 64, "duration": 15, "velocity": 86}, {"time": 1934, "pitch": 57, "duration": 7, "velocity": 84}, {"time": 1940, "pitch": 45, "duration": 19, "velocity": 85}, {"time": 1946, "pitch": 52, "duration": 13, "velocity": 80}, {"time": 1952, "pitch": 61, "duration": 9, "velocity": 89}, {"time": 1952, "pitch": 64, "duration": 13, "velocity": 88}, {"time": 1958, "pitch": 57, "duration": 7, "velocity": 83}, {"time": 1964, "pitch": 52, "duration": 13, "velocity": 83}, {"time": 1970, "pitch": 57, "duration": 4, "velocity": 83}, {"time": 1976, "pitch": 61, "duration": 7, "velocity": 88}, {"time": 1976, "pitch": 64, "duration": 13, "velocity": 87}, {"time": 1982, "pitch": 57, "duration": 5, "velocity": 83}, {"time": 1988, "pitch": 42, "duration": 16, "velocity": 88}, {"time": 1994, "pitch": 49, "duration": 11, "velocity": 61}, {"time": 2000, "pitch": 57, "duration": 8, "velocity": 80}, {"time": 2000, "pitch": 61, "duration": 7, "velocity": 80}, {"time": 2006, "pitch": 54, "duration": 5, "velocity": 89}, {"time": 2012, "pitch": 49, "duration": 9, "velocity": 73}, {"time": 2018, "pitch": 54, "duration": 3, "velocity": 85}, {"time": 2024, "pitch": 54, "duration": 1, "velocity": 84}, {"time": 2024, "pitch": 57, "duration": 3, "velocity": 84}, {"time": 2024, "pitch": 61, "duration": 4, "velocity": 77}, {"time": 2036, "pitch": 38, "duration": 18, "velocity": 87}, {"time": 2036, "pitch": 57, "duration": 5, "velocity": 80}, {"time": 2036, "pitch": 62, "duration": 8, "velocity": 80}, {"time": 2042, "pitch": 57, "duration": 3, "velocity": 74}, {"time": 2048, "pitch": 57, "duration": 1, "velocity": 77}, {"time": 2048, "pitch": 62, "duration": 9, "velocity": 87}, {"time": 2048, "pitch": 66, "duration": 11, "velocity": 84}, {"time": 2054, "pitch": 57, "duration": 6, "velocity": 84}, {"time": 2060, "pitch": 45, "duration": 11, "velocity": 71}, {"time": 2066, "pitch": 57, "duration": 2, "velocity": 74}, {"time": 2072, "pitch": 57, "duration": 2, "velocity": 85}, {"time": 2072, "pitch": 62, "duration": 6, "velocity": 85}, {"time": 2078, "pitch": 57, "duration": 2, "velocity": 73}, {"time": 2084, "pitch": 40, "duration": 17, "velocity": 85}, {"time": 2084, "pitch": 59, "duration": 4, "velocity": 77}, {"time": 2084, "pitch": 64, "duration": 8, "velocity": 84}, {"time": 2090, "pitch": 59, "duration": 3, "velocity": 77}, {"time": 2096, "pitch": 59, "duration": 2, "velocity": 83}, {"time": 2096, "pitch": 64, "duration": 8, "velocity": 88}, {"time": 2096, "pitch": 68, "duration": 11, "velocity": 79}, {"time": 2102, "pitch": 59, "duration": 5, "velocity": 84}, {"time": 2108, "pitch": 47, "duration": 6, "velocity": 67}, {"time": 2114, "pitch": 59, "duration": 3, "velocity": 80}, {"time": 2120, "pitch": 59, "duration": 2, "velocity": 87}, {"time": 2120, "pitch": 64, "duration": 2, "velocity": 90}, {"time": 2120, "pitch": 68, "duration": 7, "velocity": 83}, {"time": 2126, "pitch": 59, "duration": 4, "velocity": 83}, {"time": 2132, "pitch": 45, "duration": 15, "velocity": 84}, {"time": 2132, "pitch": 57, "duration": 6, "velocity": 83}, {"time": 2132, "pitch": 61, "duration": 7, "velocity": 84}, {"time": 2138, "pitch": 52, "duration": 8, "velocity": 78}, {"time": 2144, "pitch": 57, "duration": 2, "velocity": 79}, {"time": 2144, "pitch": 61, "duration": 5, "velocity": 82}, {"time": 2144, "pitch": 64, "duration": 5, "velocity": 85}, {"time": 2150, "pitch": 57, "duration": 5, "velocity": 87}, {"time": 2156, "pitch": 52, "duration": 14, "velocity": 76}, {"time": 2162, "pitch": 57, "duration": 3, "velocity": 83}, {"time": 2168, "pitch": 61, "duration": 4, "velocity": 87}, {"time": 2168, "pitch": 64, "duration": 4, "velocity": 86}, {"time": 2174, "pitch": 57, "duration": 3, "velocity": 83}, {"time": 2180, "pitch": 42, "duration": 16, "velocity": 77}, {"time": 2180, "pitch": 57, "duration": 4, "velocity": 78}, {"time": 2180, "pitch": 61, "duration": 7, "velocity": 77}, {"time": 2186, "pitch": 49, "duration": 10, "velocity": 50}, {"time": 2192, "pitch": 61, "duration": 7, "velocity": 87}, {"time": 2192, "pitch": 66, "duration": 7, "velocity": 81}, {"time": 2198, "pitch": 57, "duration": 6, "velocity": 87}, {"time": 2204, "pitch": 49, "duration": 5, "velocity": 72}, {"time": 2210, "pitch": 57, "duration": 3, "velocity": 80}, {"time": 2216, "pitch": 57, "duration": 2, "velocity": 83}, {"time": 2216, "pitch": 61, "duration": 4, "velocity": 94}, {"time": 2216, "pitch": 66, "duration": 9, "velocity": 83}, {"time": 2222, "pitch": 57, "duration": 3, "velocity": 80}, {"time": 2228, "pitch": 50, "duration": 20, "velocity": 84}, {"time": 2228, "pitch": 57, "duration": 3, "velocity": 79}, {"time": 2228, "pitch": 62, "duration": 7, "velocity": 83}, {"time": 2234, "pitch": 57, "duration": 3, "velocity": 82}, {"time": 2240, "pitch": 62, "duration": 4, "velocity": 87}, {"time": 2240, "pitch": 66, "duration": 13, "velocity": 85}, {"time": 2246, "pitch": 57, "duration": 7, "velocity": 84}, {"time": 2246, "pitch": 62, "duration": 3, "velocity": 58}, {"time": 2252, "pitch": 50, "duration": 7, "velocity": 77}, {"time": 2258, "pitch": 57, "duration": 3, "velocity": 84}, {"time": 2264, "pitch": 57, "duration": 2, "velocity": 85}, {"time": 2264, "pitch": 62, "duration": 8, "velocity": 90}, {"time": 2270, "pitch": 57, "duration": 3, "velocity": 78}, {"time": 2276, "pitch": 40, "duration": 19, "velocity": 86}, {"time": 2276, "pitch": 59, "duration": 5, "velocity": 83}, {"time": 2276, "pitch": 64, "duration": 4, "velocity": 84}, {"time": 2282, "pitch": 47, "duration": 12, "velocity": 67}, {"time": 2288, "pitch": 56, "duration": 7, "velocity": 83}, {"time": 2288, "pitch": 59, "duration": 12, "velocity": 83}, {"time": 2294, "pitch": 52, "duration": 8, "velocity": 87}, {"time": 2300, "pitch": 47, "duration": 12, "velocity": 77}, {"time": 2306, "pitch": 52, "duration": 7, "velocity": 85}, {"time": 2312, "pitch": 56, "duration": 7, "velocity": 85}, {"time": 2312, "pitch": 59, "duration": 8, "velocity": 84}, {"time": 2312, "pitch": 64, "duration": 12, "velocity": 83}, {"time": 2318, "pitch": 52, "duration": 3, "velocity": 84}, {"time": 2324, "pitch": 37, "duration": 19, "velocity": 76}, {"time": 2324, "pitch": 56, "duration": 10, "velocity": 79}, {"time": 2324, "pitch": 61, "duration": 8, "velocity": 82}, {"time": 2336, "pitch": 61, "duration": 15, "velocity": 88}, {"time": 2336, "pitch": 64, "duration": 9, "velocity": 88}, {"time": 2342, "pitch": 56, "duration": 8, "velocity": 87}, {"time": 2348, "pitch": 44, "duration": 8, "velocity": 86}, {"time": 2354, "pitch": 56, "duration": 3, "velocity": 89}, {"time": 2354, "pitch": 61, "duration": 1, "velocity": 63}, {"time": 2360, "pitch": 56, "duration": 2, "velocity": 73}, {"time": 2360, "pitch": 61, "duration": 6, "velocity": 83}, {"time": 2360, "pitch": 64, "duration": 8, "velocity": 87}, {"time": 2366, "pitch": 56, "duration": 2, "velocity": 84}, {"time": 2372, "pitch": 42, "duration": 17, "velocity": 83}, {"time": 2372, "pitch": 54, "duration": 8, "velocity": 84}, {"time": 2372, "pitch": 57, "duration": 8, "velocity": 75}, {"time": 2378, "pitch": 49, "duration": 14, "velocity": 73}, {"time": 2384, "pitch": 57, "duration": 4, "velocity": 86}, {"time": 2384, "pitch": 61, "duration": 5, "velocity": 85}, {"time": 2390, "pitch": 54, "duration": 6, "velocity": 87}, {"time": 2396, "pitch": 49, "duration": 10, "velocity": 71}, {"time": 2402, "pitch": 54, "duration": 4, "velocity": 79}, {"time": 2408, "pitch": 54, "duration": 2, "velocity": 87}, {"time": 2408, "pitch": 57, "duration": 3, "velocity": 89}, {"time": 2408, "pitch": 61, "duration": 2, "velocity": 77}, {"time": 2408, "pitch": 66, "duration": 11, "velocity": 80}, {"time": 2414, "pitch": 54, "duration": 3, "velocity": 88}, {"time": 2420, "pitch": 47, "duration": 20, "velocity": 87}, {"time": 2426, "pitch": 59, "duration": 8, "velocity": 86}, {"time": 2432, "pitch": 63, "duration": 13, "velocity": 84}, {"time": 2432, "pitch": 66, "duration": 8, "velocity": 83}, {"time": 2438, "pitch": 59, "duration": 6, "velocity": 89}, {"time": 2444, "pitch": 54, "duration": 10, "velocity": 84}, {"time": 2450, "pitch": 59, "duration": 8, "velocity": 89}, {"time": 2456, "pitch": 63, "duration": 5, "velocity": 89}, {"time": 2456, "pitch": 66, "duration": 8, "velocity": 88}, {"time": 2462, "pitch": 59, "duration": 3, "velocity": 85}, {"time": 2468, "pitch": 40, "duration": 18, "velocity": 79}, {"time": 2468, "pitch": 59, "duration": 5, "velocity": 83}, {"time": 2468, "pitch": 64, "duration": 8, "velocity": 86}, {"time": 2474, "pitch": 59, "duration": 4, "velocity": 85}, {"time": 2480, "pitch": 64, "duration": 14, "velocity": 85}, {"time": 2480, "pitch": 68, "duration": 14, "velocity": 81}, {"time": 2486, "pitch": 59, "duration": 8, "velocity": 87}, {"time": 2492, "pitch": 47, "duration": 9, "velocity": 79}, {"time": 2498, "pitch": 59, "duration": 3, "velocity": 85}, {"time": 2504, "pitch": 59, "duration": 3, "velocity": 86}, {"time": 2504, "pitch": 64, "duration": 4, "velocity": 85}, {"time": 2504, "pitch": 68, "duration": 4, "velocity": 82}, {"time": 2516, "pitch": 45, "duration": 18, "velocity": 84}, {"time": 2516, "pitch": 57, "duration": 5, "velocity": 77}, {"time": 2516, "pitch": 61, "duration": 8, "velocity": 78}, {"time": 2522, "pitch": 52, "duration": 9, "velocity": 75}, {"time": 2528, "pitch": 61, "duration": 8, "velocity": 90}, {"time": 2528, "pitch": 64, "duration": 8, "velocity": 85}, {"time": 2534, "pitch": 57, "duration": 8, "velocity": 86}, {"time": 2540, "pitch": 52, "duration": 13, "velocity": 78}, {"time": 2546, "pitch": 57, "duration": 3, "velocity": 83}, {"time": 2552, "pitch": 57, "duration": 2, "velocity": 79}, {"time": 2552, "pitch": 61, "duration": 5, "velocity": 87}, {"time": 2552, "pitch": 64, "duration": 7, "velocity": 85}, {"time": 2558, "pitch": 57, "duration": 3, "velocity": 79}, {"time": 2564, "pitch": 38, "duration": 12, "velocity": 75}, {"time": 2564, "pitch": 57, "duration": 8, "velocity": 80}, {"time": 2564, "pitch": 62, "duration": 9, "velocity": 83}, {"time": 2576, "pitch": 57, "duration": 2, "velocity": 83}, {"time": 2576, "pitch": 62, "duration": 13, "velocity": 86}, {"time": 2576, "pitch": 66, "duration": 20, "velocity": 83}, {"time": 2582, "pitch": 57, "duration": 6, "velocity": 84}, {"time": 2588, "pitch": 50, "duration": 8, "velocity": 84}, {"time": 2594, "pitch": 57, "duration": 3, "velocity": 84}, {"time": 2594, "pitch": 62, "duration": 1, "velocity": 57}, {"time": 2600, "pitch": 57, "duration": 4, "velocity": 90}, {"time": 2600, "pitch": 62, "duration": 4, "velocity": 89}, {"time": 2612, "pitch": 40, "duration": 19, "velocity": 85}, {"time": 2612, "pitch": 59, "duration": 8, "velocity": 79}, {"time": 2612, "pitch": 64, "duration": 9, "velocity": 84}, {"time": 2624, "pitch": 59, "duration": 3, "velocity": 83}, {"time": 2624, "pitch": 64, "duration": 6, "velocity": 87}, {"time": 2630, "pitch": 59, "duration": 7, "velocity": 90}, {"time": 2636, "pitch": 47, "duration": 5, "velocity": 80}, {"time": 2642, "pitch": 59, "duration": 3, "velocity": 84}, {"time": 2648, "pitch": 59, "duration": 3, "velocity": 87}, {"time": 2648, "pitch": 64, "duration": 3, "velocity": 90}, {"time": 2648, "pitch": 68, "duration": 3, "velocity": 83}, {"time": 2660, "pitch": 45, "duration": 20, "velocity": 84}, {"time": 2660, "pitch": 57, "duration": 10, "velocity": 75}, {"time": 2660, "pitch": 61, "duration": 9, "velocity": 70}, {"time": 2660, "pitch": 64, "duration": 9, "velocity": 75}, {"time": 2672, "pitch": 61, "duration": 4, "velocity": 84}, {"time": 2672, "pitch": 64, "duration": 8, "velocity": 87}, {"time": 2678, "pitch": 57, "duration": 6, "velocity": 88}, {"time": 2684, "pitch": 52, "duration": 19, "velocity": 75}, {"time": 2690, "pitch": 57, "duration": 2, "velocity": 76}, {"time": 2696, "pitch": 57, "duration": 1, "velocity": 78}, {"time": 2696, "pitch": 61, "duration": 13, "velocity": 89}, {"time": 2696, "pitch": 64, "duration": 15, "velocity": 86}, {"time": 2702, "pitch": 57, "duration": 7, "velocity": 84}, {"time": 2708, "pitch": 45, "duration": 20, "velocity": 86}, {"time": 2714, "pitch": 52, "duration": 10, "velocity": 76}, {"time": 2720, "pitch": 57, "duration": 2, "velocity": 83}, {"time": 2720, "pitch": 61, "duration": 11, "velocity": 94}, {"time": 2720, "pitch": 64, "duration": 13, "velocity": 89}, {"time": 2726, "pitch": 57, "duration": 6, "velocity": 83}, {"time": 2732, "pitch": 52, "duration": 7, "velocity": 83}, {"time": 2738, "pitch": 57, "duration": 4, "velocity": 88}, {"time": 2744, "pitch": 61, "duration": 10, "velocity": 90}, {"time": 2744, "pitch": 64, "duration": 10, "velocity": 88}, {"time": 2750, "pitch": 40, "duration": 5, "velocity": 89}, {"time": 2756, "pitch": 45, "duration": 19, "velocity": 85}, {"time": 2762, "pitch": 52, "duration": 13, "velocity": 80}, {"time": 2768, "pitch": 61, "duration": 9, "velocity": 89}, {"time": 2768, "pitch": 64, "duration": 13, "velocity": 88}, {"time": 2774, "pitch": 57, "duration": 7, "velocity": 83}, {"time": 2780, "pitch": 52, "duration": 13, "velocity": 83}, {"time": 2786, "pitch": 57, "duration": 4, "velocity": 83}, {"time": 2792, "pitch": 61, "duration": 7, "velocity": 88}, {"time": 2792, "pitch": 64, "duration": 13, "velocity": 87}, {"time": 2798, "pitch": 57, "duration": 5, "velocity": 83}, {"time": 2804, "pitch": 42, "duration": 16, "velocity": 88}, {"time": 2810, "pitch": 49, "duration": 11, "velocity": 61}, {"time": 2816, "pitch": 57, "duration": 8, "velocity": 80}, {"time": 2816, "pitch": 61, "duration": 7, "velocity": 80}, {"time": 2822, "pitch": 54, "duration": 5, "velocity": 89}, {"time": 2828, "pitch": 49, "duration": 9, "velocity": 73}, {"time": 2834, "pitch": 54, "duration": 3, "velocity": 85}, {"time": 2840, "pitch": 54, "duration": 1, "velocity": 84}, {"time": 2840, "pitch": 57, "duration": 3, "velocity": 84}, {"time": 2840, "pitch": 61, "duration": 4, "velocity": 77}, {"time": 2852, "pitch": 38, "duration": 18, "velocity": 87}, {"time": 2852, "pitch": 57, "duration": 5, "velocity": 80}, {"time": 2852, "pitch": 62, "duration": 8, "velocity": 80}, {"time": 2858, "pitch": 57, "duration": 3, "velocity": 74}, {"time": 2864, "pitch": 57, "duration": 1, "velocity": 77}, {"time": 2864, "pitch": 62, "duration": 9, "velocity": 87}, {"time": 2864, "pitch": 66, "duration": 11, "velocity": 84}, {"time": 2870, "pitch": 57, "duration": 6, "velocity": 84}, {"time": 2876, "pitch": 45, "duration": 11, "velocity": 71}, {"time": 2882, "pitch": 57, "duration": 2, "velocity": 74}, {"time": 2888, "pitch": 57, "duration": 2, "velocity": 85}, {"time": 2888, "pitch": 62, "duration": 6, "velocity": 85}, {"time": 2894, "pitch": 57, "duration": 2, "velocity": 73}, {"time": 2900, "pitch": 40, "duration": 17, "velocity": 85}, {"time": 2900, "pitch": 59, "duration": 4, "velocity": 77}, {"time": 2900, "pitch": 64, "duration": 8, "velocity": 84}, {"time": 2906, "pitch": 59, "duration": 3, "velocity": 77}, {"time": 2912, "pitch": 59, "duration": 2, "velocity": 83}, {"time": 2912, "pitch": 64, "duration": 8, "velocity": 88}, {"time": 2912, "pitch": 68, "duration": 11, "velocity": 79}, {"time": 2918, "pitch": 59, "duration": 5, "velocity": 84}, {"time": 2924, "pitch": 47, "duration": 6, "velocity": 67}, {"time": 2930, "pitch": 59, "duration": 3, "velocity": 80}, {"time": 2936, "pitch": 59, "duration": 2, "velocity": 87}, {"time": 2936, "pitch": 64, "duration": 2, "velocity": 90}, {"time": 2936, "pitch": 68, "duration": 7, "velocity": 83}, {"time": 2942, "pitch": 59, "duration": 4, "velocity": 83}, {"time": 2948, "pitch": 45, "duration": 15, "velocity": 84}, {"time": 2948, "pitch": 57, "duration": 6, "velocity": 83}, {"time": 2948, "pitch": 61, "duration": 7, "velocity": 84}, {"time": 2954, "pitch": 52, "duration": 8, "velocity": 78}, {"time": 2960, "pitch": 57, "duration": 2, "velocity": 79}, {"time": 2960, "pitch": 61, "duration": 5, "velocity": 82}, {"time": 2960, "pitch": 64, "duration": 5, "velocity": 85}, {"time": 2966, "pitch": 57, "duration": 5, "velocity": 87}, {"time": 2972, "pitch": 52, "duration": 14, "velocity": 76}, {"time": 2978, "pitch": 57, "duration": 3, "velocity": 83}, {"time": 2984, "pitch": 61, "duration": 4, "velocity": 87}, {"time": 2984, "pitch": 64, "duration": 4, "velocity": 86}, {"time": 2990, "pitch": 57, "duration": 3, "velocity": 83}, {"time": 2996, "pitch": 42, "duration": 16, "velocity": 77}, {"time": 2996, "pitch": 57, "duration": 4, "velocity": 78}, {"time": 2996, "pitch": 61, "duration": 7, "velocity": 77}, {"time": 3002, "pitch": 49, "duration": 10, "velocity": 50}, {"time": 3008, "pitch": 61, "duration": 7, "velocity": 87}, {"time": 3008, "pitch": 66, "duration": 7, "velocity": 81}, {"time": 3014, "pitch": 57, "duration": 6, "velocity": 87}, {"time": 3020, "pitch": 49, "duration": 5, "velocity": 72}, {"time": 3026, "pitch": 57, "duration": 3, "velocity": 80}, {"time": 3032, "pitch": 57, "duration": 2, "velocity": 83}, {"time": 3032, "pitch": 61, "duration": 4, "velocity": 94}, {"time": 3032, "pitch": 66, "duration": 9, "velocity": 83}, {"time": 3038, "pitch": 57, "duration": 3, "velocity": 80}, {"time": 3044, "pitch": 50, "duration": 20, "velocity": 84}, {"time": 3044, "pitch": 57, "duration": 3, "velocity": 79}, {"time": 3044, "pitch": 62, "duration": 7, "velocity": 83}, {"time": 3050, "pitch": 57, "duration": 3, "velocity": 82}, {"time": 3056, "pitch": 62, "duration": 4, "velocity": 87}, {"time": 3056, "pitch": 66, "duration": 13, "velocity": 85}, {"time": 3062, "pitch": 57, "duration": 7, "velocity": 84}, {"time": 3062, "pitch": 62, "duration": 3, "velocity": 58}, {"time": 3068, "pitch": 50, "duration": 7, "velocity": 77}, {"time": 3074, "pitch": 57, "duration": 3, "velocity": 84}, {"time": 3080, "pitch": 57, "duration": 2, "velocity": 85}, {"time": 3080, "pitch": 62, "duration": 8, "velocity": 90}, {"time": 3086, "pitch": 57, "duration": 3, "velocity": 78}, {"time": 3092, "pitch": 40, "duration": 19, "velocity": 86}, {"time": 3092, "pitch": 59, "duration": 5, "velocity": 83}, {"time": 3092, "pitch": 64, "duration": 4, "velocity": 84}, {"time": 3098, "pitch": 47, "duration": 12, "velocity": 67}, {"time": 3104, "pitch": 56, "duration": 7, "velocity": 83}, {"time": 3104, "pitch": 59, "duration": 12, "velocity": 83}, {"time": 3110, "pitch": 52, "duration": 8, "velocity": 87}, {"time": 3116, "pitch": 47, "duration": 12, "velocity": 77}, {"time": 3122, "pitch": 52, "duration": 7, "velocity": 85}, {"time": 3128, "pitch": 56, "duration": 7, "velocity": 85}, {"time": 3128, "pitch": 59, "duration": 8, "velocity": 84}, {"time": 3128, "pitch": 64, "duration": 12, "velocity": 83}, {"time": 3134, "pitch": 52, "duration": 3, "velocity": 84}, {"time": 3140, "pitch": 37, "duration": 19, "velocity": 76}, {"time": 3140, "pitch": 56, "duration": 10, "velocity": 79}, {"time": 3140, "pitch": 61, "duration": 8, "velocity": 82}, {"time": 3152, "pitch": 61, "duration": 15, "velocity": 88}, {"time": 3152, "pitch": 64, "duration": 9, "velocity": 88}, {"time": 3158, "pitch": 56, "duration": 8, "velocity": 87}, {"time": 3164, "pitch": 44, "duration": 8, "velocity": 86}, {"time": 3170, "pitch": 56, "duration": 3, "velocity": 89}, {"time": 3170, "pitch": 61, "duration": 1, "velocity": 63}, {"time": 3176, "pitch": 56, "duration": 2, "velocity": 73}, {"time": 3176, "pitch": 61, "duration": 6, "velocity": 83}, {"time": 3176, "pitch": 64, "duration": 8, "velocity": 87}, {"time": 3182, "pitch": 56, "duration": 2, "velocity": 84}, {"time": 3188, "pitch": 42, "duration": 17, "velocity": 83}, {"time": 3188, "pitch": 54, "duration": 8, "velocity": 84}, {"time": 3188, "pitch": 57, "duration": 8, "velocity": 75}, {"time": 3194, "pitch": 49, "duration": 14, "velocity": 73}, {"time": 3200, "pitch": 57, "duration": 4, "velocity": 86}, {"time": 3200, "pitch": 61, "duration": 5, "velocity": 85}, {"time": 3206, "pitch": 54, "duration": 6, "velocity": 87}, {"time": 3212, "pitch": 49, "duration": 10, "velocity": 71}, {"time": 3218, "pitch": 54, "duration": 4, "velocity": 79}, {"time": 3224, "pitch": 54, "duration": 2, "velocity": 87}, {"time": 3224, "pitch": 57, "duration": 3, "velocity": 89}, {"time": 3224, "pitch": 61, "duration": 2, "velocity": 77}, {"time": 3224, "pitch": 66, "duration": 11, "velocity": 80}, {"time": 3230, "pitch": 54, "duration": 3, "velocity": 88}, {"time": 3236, "pitch": 47, "duration": 20, "velocity": 87}, {"time": 3242, "pitch": 59, "duration": 8, "velocity": 86}, {"time": 3248, "pitch": 63, "duration": 13, "velocity": 84}, {"time": 3248, "pitch": 66, "duration": 8, "velocity": 83}, {"time": 3254, "pitch": 59, "duration": 6, "velocity": 89}, {"time": 3260, "pitch": 54, "duration": 10, "velocity": 84}, {"time": 3266, "pitch": 59, "duration": 8, "velocity": 89}, {"time": 3272, "pitch": 63, "duration": 5, "velocity": 89}, {"time": 3272, "pitch": 66, "duration": 8, "velocity": 88}, {"time": 3278, "pitch": 59, "duration": 3, "velocity": 85}, {"time": 3284, "pitch": 40, "duration": 18, "velocity": 79}, {"time": 3284, "pitch": 59, "duration": 5, "velocity": 83}, {"time": 3284, "pitch": 64, "duration": 8, "velocity": 86}, {"time": 3290, "pitch": 59, "duration": 4, "velocity": 85}, {"time": 3296, "pitch": 64, "duration": 14, "velocity": 85}, {"time": 3296, "pitch": 68, "duration": 14, "velocity": 81}, {"time": 3302, "pitch": 59, "duration": 8, "velocity": 87}, {"time": 3308, "pitch": 47, "duration": 9, "velocity": 79}, {"time": 3314, "pitch": 59, "duration": 3, "velocity": 85}, {"time": 3320, "pitch": 59, "duration": 3, "velocity": 86}, {"time": 3320, "pitch": 64, "duration": 4, "velocity": 85}, {"time": 3320, "pitch": 68, "duration": 4, "velocity": 82}, {"time": 3332, "pitch": 45, "duration": 18, "velocity": 84}, {"time": 3332, "pitch": 57, "duration": 5, "velocity": 77}, {"time": 3332, "pitch": 61, "duration": 8, "velocity": 78}, {"time": 3338, "pitch": 52, "duration": 9, "velocity": 75}, {"time": 3344, "pitch": 61, "duration": 8, "velocity": 90}, {"time": 3344, "pitch": 64, "duration": 8, "velocity": 85}, {"time": 3350, "pitch": 57, "duration": 8, "velocity": 86}, {"time": 3356, "pitch": 52, "duration": 13, "velocity": 78}, {"time": 3362, "pitch": 57, "duration": 3, "velocity": 83}, {"time": 3368, "pitch": 57, "duration": 2, "velocity": 79}, {"time": 3368, "pitch": 61, "duration": 5, "velocity": 87}, {"time": 3368, "pitch": 64, "duration": 7, "velocity": 85}, {"time": 3374, "pitch": 57, "duration": 3, "velocity": 79}, {"time": 3380, "pitch": 38, "duration": 12, "velocity": 75}, {"time": 3380, "pitch": 57, "duration": 8, "velocity": 80}, {"time": 3380, "pitch": 62, "duration": 9, "velocity": 83}, {"time": 3392, "pitch": 57, "duration": 2, "velocity": 83}, {"time": 3392, "pitch": 62, "duration": 13, "velocity": 86}, {"time": 3392, "pitch": 66, "duration": 20, "velocity": 83}, {"time": 3398, "pitch": 57, "duration": 6, "velocity": 84}, {"time": 3404, "pitch": 50, "duration": 8, "velocity": 84}, {"time": 3410, "pitch": 57, "duration": 3, "velocity": 84}, {"time": 3410, "pitch": 62, "duration": 1, "velocity": 57}, {"time": 3416, "pitch": 57, "duration": 4, "velocity": 90}, {"time": 3416, "pitch": 62, "duration": 4, "velocity": 89}, {"time": 3428, "pitch": 40, "duration": 19, "velocity": 85}, {"time": 3428, "pitch": 59, "duration": 8, "velocity": 79}, {"time": 3428, "pitch": 64, "duration": 9, "velocity": 84}, {"time": 3440, "pitch": 59, "duration": 3, "velocity": 83}, {"time": 3440, "pitch": 64, "duration": 6, "velocity": 87}, {"time": 3446, "pitch": 59, "duration": 7, "velocity": 90}, {"time": 3452, "pitch": 47, "duration": 5, "velocity": 80}, {"time": 3458, "pitch": 59, "duration": 3, "velocity": 84}, {"time": 3464, "pitch": 59, "duration": 3, "velocity": 87}, {"time": 3464, "pitch": 64, "duration": 3, "velocity": 90}, {"time": 3464, "pitch": 68, "duration": 3, "velocity": 83}, {"time": 3476, "pitch": 45, "duration": 20, "velocity": 84}, {"time": 3476, "pitch": 57, "duration": 10, "velocity": 75}, {"time": 3476, "pitch": 61, "duration": 9, "velocity": 70}, {"time": 3476, "pitch": 64, "duration": 9, "velocity": 75}, {"time": 3488, "pitch": 61, "duration": 4, "velocity": 84}, {"time": 3488, "pitch": 64, "duration": 8, "velocity": 87}, {"time": 3494, "pitch": 57, "duration": 6, "velocity": 88}, {"time": 3500, "pitch": 52, "duration": 19, "velocity": 75}, {"time": 3506, "pitch": 57, "duration": 2, "velocity": 76}, {"time": 3512, "pitch": 57, "duration": 1, "velocity": 78}, {"time": 3512, "pitch": 61, "duration": 13, "velocity": 89}, {"time": 3512, "pitch": 64, "duration": 15, "velocity": 86}, {"time": 3518, "pitch": 57, "duration": 7, "velocity": 84}, {"time": 3524, "pitch": 45, "duration": 20, "velocity": 86}, {"time": 3530, "pitch": 52, "duration": 10, "velocity": 76}, {"time": 3536, "pitch": 57, "duration": 2, "velocity": 83}, {"time": 3536, "pitch": 61, "duration": 11, "velocity": 94}, {"time": 3536, "pitch": 64, "duration": 13, "velocity": 89}, {"time": 3542, "pitch": 57, "duration": 6, "velocity": 83}, {"time": 3548, "pitch": 52, "duration": 7, "velocity": 83}, {"time": 3554, "pitch": 57, "duration": 4, "velocity": 88}, {"time": 3560, "pitch": 61, "duration": 10, "velocity": 90}, {"time": 3560, "pitch": 64, "duration": 10, "velocity": 88}, {"time": 3566, "pitch": 40, "duration": 5, "velocity": 89}, {"time": 3572, "pitch": 45, "duration": 19, "velocity": 85}, {"time": 3578, "pitch": 52, "duration": 13, "velocity": 80}, {"time": 3584, "pitch": 61, "duration": 9, "velocity": 89}, {"time": 3584, "pitch": 64, "duration": 13, "velocity": 88}, {"time": 3590, "pitch": 57, "duration": 7, "velocity": 83}, {"time": 3596, "pitch": 52, "duration": 13, "velocity": 83}, {"time": 3602, "pitch": 57, "duration": 4, "velocity": 83}, {"time": 3608, "pitch": 61, "duration": 7, "velocity": 88}, {"time": 3608, "pitch": 64, "duration": 13, "velocity": 87}, {"time": 3614, "pitch": 57, "duration": 5, "velocity": 83}, {"time": 3620, "pitch": 42, "duration": 16, "velocity": 88}, {"time": 3626, "pitch": 49, "duration": 11, "velocity": 61}, {"time": 3632, "pitch": 57, "duration": 8, "velocity": 80}, {"time": 3632, "pitch": 61, "duration": 7, "velocity": 80}, {"time": 3638, "pitch": 54, "duration": 5, "velocity": 89}, {"time": 3644, "pitch": 49, "duration": 9, "velocity": 73}, {"time": 3650, "pitch": 54, "duration": 3, "velocity": 85}, {"time": 3656, "pitch": 54, "duration": 1, "velocity": 84}, {"time": 3656, "pitch": 57, "duration": 3, "velocity": 84}, {"time": 3656, "pitch": 61, "duration": 4, "velocity": 77}, {"time": 3668, "pitch": 38, "duration": 18, "velocity": 87}, {"time": 3668, "pitch": 57, "duration": 5, "velocity": 80}, {"time": 3668, "pitch": 62, "duration": 8, "velocity": 80}, {"time": 3674, "pitch": 57, "duration": 3, "velocity": 74}, {"time": 3680, "pitch": 57, "duration": 1, "velocity": 77}, {"time": 3680, "pitch": 62, "duration": 9, "velocity": 87}, {"time": 3680, "pitch": 66, "duration": 11, "velocity": 84}, {"time": 3686, "pitch": 57, "duration": 6, "velocity": 84}, {"time": 3692, "pitch": 45, "duration": 11, "velocity": 71}, {"time": 3698, "pitch": 57, "duration": 2, "velocity": 74}, {"time": 3704, "pitch": 57, "duration": 2, "velocity": 85}, {"time": 3704, "pitch": 62, "duration": 6, "velocity": 85}, {"time": 3710, "pitch": 57, "duration": 2, "velocity": 73}, {"time": 3716, "pitch": 40, "duration": 17, "velocity": 85}, {"time": 3716, "pitch": 59, "duration": 4, "velocity": 77}, {"time": 3716, "pitch": 64, "duration": 8, "velocity": 84}, {"time": 3722, "pitch": 59, "duration": 3, "velocity": 77}, {"time": 3728, "pitch": 59, "duration": 2, "velocity": 83}, {"time": 3728, "pitch": 64, "duration": 8, "velocity": 88}, {"time": 3728, "pitch": 68, "duration": 11, "velocity": 79}, {"time": 3734, "pitch": 59, "duration": 5, "velocity": 84}, {"time": 3740, "pitch": 47, "duration": 6, "velocity": 67}, {"time": 3746, "pitch": 59, "duration": 3, "velocity": 80}, {"time": 3752, "pitch": 59, "duration": 2, "velocity": 87}, {"time": 3752, "pitch": 64, "duration": 2, "velocity": 90}, {"time": 3752, "pitch": 68, "duration": 7, "velocity": 83}, {"time": 3758, "pitch": 59, "duration": 4, "velocity": 83}, {"time": 3764, "pitch": 45, "duration": 15, "velocity": 84}, {"time": 3764, "pitch": 57, "duration": 6, "velocity": 83}, {"time": 3764, "pitch": 61, "duration": 7, "velocity": 84}, {"time": 3770, "pitch": 52, "duration": 8, "velocity": 78}, {"time": 3776, "pitch": 57, "duration": 2, "velocity": 79}, {"time": 3776, "pitch": 61, "duration": 5, "velocity": 82}, {"time": 3776, "pitch": 64, "duration": 5, "velocity": 85}, {"time": 3782, "pitch": 57, "duration": 5, "velocity": 87}, {"time": 3788, "pitch": 52, "duration": 14, "velocity": 76}, {"time": 3794, "pitch": 57, "duration": 3, "velocity": 83}, {"time": 3800, "pitch": 61, "duration": 4, "velocity": 87}, {"time": 3800, "pitch": 64, "duration": 4, "velocity": 86}, {"time": 3806, "pitch": 57, "duration": 3, "velocity": 83}, {"time": 3812, "pitch": 42, "duration": 16, "velocity": 77}, {"time": 3812, "pitch": 57, "duration": 4, "velocity": 78}, {"time": 3812, "pitch": 61, "duration": 7, "velocity": 77}, {"time": 3818, "pitch": 49, "duration": 10, "velocity": 50}, {"time": 3824, "pitch": 61, "duration": 7, "velocity": 87}, {"time": 3824, "pitch": 66, "duration": 7, "velocity": 81}, {"time": 3830, "pitch": 57, "duration": 6, "velocity": 87}, {"time": 3836, "pitch": 49, "duration": 5, "velocity": 72}, {"time": 3842, "pitch": 57, "duration": 3, "velocity": 80}, {"time": 3848, "pitch": 57, "duration": 2, "velocity": 83}, {"time": 3848, "pitch": 61, "duration": 4, "velocity": 94}, {"time": 3848, "pitch": 66, "duration": 9, "velocity": 83}, {"time": 3854, "pitch": 57, "duration": 3, "velocity": 80}, {"time": 3860, "pitch": 50, "duration": 20, "velocity": 84}, {"time": 3860, "pitch": 57, "duration": 3, "velocity": 79}, {"time": 3860, "pitch": 62, "duration": 7, "velocity": 83}, {"time": 3866, "pitch": 57, "duration": 3, "velocity": 82}, {"time": 3872, "pitch": 62, "duration": 4, "velocity": 87}, {"time": 3872, "pitch": 66, "duration": 13, "velocity": 85}, {"time": 3878, "pitch": 57, "duration": 7, "velocity": 84}, {"time": 3878, "pitch": 62, "duration": 3, "velocity": 58}, {"time": 3884, "pitch": 50, "duration": 7, "velocity": 77}, {"time": 3890, "pitch": 57, "duration": 3, "velocity": 84}, {"time": 3896, "pitch": 57, "duration": 2, "velocity": 85}, {"time": 3896, "pitch": 62, "duration": 8, "velocity": 90}, {"time": 3902, "pitch": 57, "duration": 3, "velocity": 78}, {"time": 3908, "pitch": 40, "duration": 19, "velocity": 86}, {"time": 3908, "pitch": 59, "duration": 5, "velocity": 83}, {"time": 3908, "pitch": 64, "duration": 4, "velocity": 84}, {"time": 3914, "pitch": 47, "duration": 12, "velocity": 67}, {"time": 3920, "pitch": 56, "duration": 7, "velocity": 83}, {"time": 3920, "pitch": 59, "duration": 12, "velocity": 83}, {"time": 3926, "pitch": 52, "duration": 8, "velocity": 87}, {"time": 3932, "pitch": 47, "duration": 12, "velocity": 77}, {"time": 3938, "pitch": 52, "duration": 7, "velocity": 85}, {"time": 3944, "pitch": 56, "duration": 7, "velocity": 85}, {"time": 3944, "pitch": 59, "duration": 8, "velocity": 84}, {"time": 3944, "pitch": 64, "duration": 12, "velocity": 83}, {"time": 3950, "pitch": 52, "duration": 3, "velocity": 84}, {"time": 3956, "pitch": 37, "duration": 19, "velocity": 76}, {"time": 3956, "pitch": 56, "duration": 10, "velocity": 79}, {"time": 3956, "pitch": 61, "duration": 8, "velocity": 82}, {"time": 3968, "pitch": 61, "duration": 15, "velocity": 88}, {"time": 3968, "pitch": 64, "duration": 9, "velocity": 88}, {"time": 3974, "pitch": 56, "duration": 8, "velocity": 87}, {"time": 3980, "pitch": 44, "duration": 8, "velocity": 86}, {"time": 3986, "pitch": 56, "duration": 3, "velocity": 89}, {"time": 3986, "pitch": 61, "duration": 1, "velocity": 63}, {"time": 3992, "pitch": 56, "duration": 2, "velocity": 73}, {"time": 3992, "pitch": 61, "duration": 6, "velocity": 83}, {"time": 3992, "pitch": 64, "duration": 8, "velocity": 87}, {"time": 3998, "pitch": 56, "duration": 2, "velocity": 84}, {"time": 4004, "pitch": 42, "duration": 17, "velocity": 83}, {"time": 4004, "pitch": 54, "duration": 8, "velocity": 84}, {"time": 4004, "pitch": 57, "duration": 8, "velocity": 75}, {"time": 4010, "pitch": 49, "duration": 14, "velocity": 73}, {"time": 4016, "pitch": 57, "duration": 4, "velocity": 86}, {"time": 4016, "pitch": 61, "duration": 5, "velocity": 85}, {"time": 4022, "pitch": 54, "duration": 6, "velocity": 87}, {"time": 4028, "pitch": 49, "duration": 10, "velocity": 71}, {"time": 4034, "pitch": 54, "duration": 4, "velocity": 79}, {"time": 4040, "pitch": 54, "duration": 2, "velocity": 87}, {"time": 4040, "pitch": 57, "duration": 3, "velocity": 89}, {"time": 4040, "pitch": 61, "duration": 2, "velocity": 77}, {"time": 4040, "pitch": 66, "duration": 11, "velocity": 80}, {"time": 4046, "pitch": 54, "duration": 3, "velocity": 88}, {"time": 4052, "pitch": 47, "duration": 20, "velocity": 87}, {"time": 4058, "pitch": 59, "duration": 8, "velocity": 86}, {"time": 4064, "pitch": 63, "duration": 13, "velocity": 84}, {"time": 4064, "pitch": 66, "duration": 8, "velocity": 83}, {"time": 4070, "pitch": 59, "duration": 6, "velocity": 89}, {"time": 4076, "pitch": 54, "duration": 10, "velocity": 84}, {"time": 4082, "pitch": 59, "duration": 8, "velocity": 89}, {"time": 4088, "pitch": 63, "duration": 5, "velocity": 89}, {"time": 4088, "pitch": 66, "duration": 8, "velocity": 88}, {"time": 4094, "pitch": 59, "duration": 3, "velocity": 85}, {"time": 4100, "pitch": 40, "duration": 18, "velocity": 79}, {"time": 4100, "pitch": 59, "duration": 5, "velocity": 83}, {"time": 4100, "pitch": 64, "duration": 8, "velocity": 86}, {"time": 4106, "pitch": 59, "duration": 4, "velocity": 85}, {"time": 4112, "pitch": 64, "duration": 14, "velocity": 85}, {"time": 4112, "pitch": 68, "duration": 14, "velocity": 81}, {"time": 4118, "pitch": 59, "duration": 8, "velocity": 87}, {"time": 4124, "pitch": 47, "duration": 9, "velocity": 79}, {"time": 4130, "pitch": 59, "duration": 3, "velocity": 85}, {"time": 4136, "pitch": 59, "duration": 3, "velocity": 86}, {"time": 4136, "pitch": 64, "duration": 4, "velocity": 85}, {"time": 4136, "pitch": 68, "duration": 4, "velocity": 82}, {"time": 4148, "pitch": 45, "duration": 18, "velocity": 84}, {"time": 4148, "pitch": 57, "duration": 5, "velocity": 77}, {"time": 4148, "pitch": 61, "duration": 8, "velocity": 78}, {"time": 4154, "pitch": 52, "duration": 9, "velocity": 75}, {"time": 4160, "pitch": 61, "duration": 8, "velocity": 90}, {"time": 4160, "pitch": 64, "duration": 8, "velocity": 85}, {"time": 4166, "pitch": 57, "duration": 8, "velocity": 86}, {"time": 4172, "pitch": 52, "duration": 13, "velocity": 78}, {"time": 4178, "pitch": 57, "duration": 3, "velocity": 83}, {"time": 4184, "pitch": 57, "duration": 2, "velocity": 79}, {"time": 4184, "pitch": 61, "duration": 5, "velocity": 87}, {"time": 4184, "pitch": 64, "duration": 7, "velocity": 85}, {"time": 4190, "pitch": 57, "duration": 3, "velocity": 79}, {"time": 4196, "pitch": 38, "duration": 12, "velocity": 75}, {"time": 4196, "pitch": 57, "duration": 8, "velocity": 80}, {"time": 4196, "pitch": 62, "duration": 9, "velocity": 83}, {"time": 4208, "pitch": 57, "duration": 2, "velocity": 83}, {"time": 4208, "pitch": 62, "duration": 13, "velocity": 86}, {"time": 4208, "pitch": 66, "duration": 20, "velocity": 83}, {"time": 4214, "pitch": 57, "duration": 6, "velocity": 84}, {"time": 4220, "pitch": 50, "duration": 8, "velocity": 84}, {"time": 4226, "pitch": 57, "duration": 3, "velocity": 84}, {"time": 4226, "pitch": 62, "duration": 1, "velocity": 57}, {"time": 4232, "pitch": 57, "duration": 4, "velocity": 90}, {"time": 4232, "pitch": 62, "duration": 4, "velocity": 89}, {"time": 4244, "pitch": 40, "duration": 19, "velocity": 85}, {"time": 4244, "pitch": 59, "duration": 8, "velocity": 79}, {"time": 4244, "pitch": 64, "duration": 9, "velocity": 84}, {"time": 4256, "pitch": 59, "duration": 3, "velocity": 83}, {"time": 4256, "pitch": 64, "duration": 6, "velocity": 87}, {"time": 4262, "pitch": 59, "duration": 7, "velocity": 90}, {"time": 4268, "pitch": 47, "duration": 5, "velocity": 80}, {"time": 4274, "pitch": 59, "duration": 3, "velocity": 84}, {"time": 4280, "pitch": 59, "duration": 3, "velocity": 87}, {"time": 4280, "pitch": 64, "duration": 3, "velocity": 90}, {"time": 4280, "pitch": 68, "duration": 3, "velocity": 83}, {"time": 4292, "pitch": 45, "duration": 20, "velocity": 84}, {"time": 4292, "pitch": 57, "duration": 10, "velocity": 75}, {"time": 4292, "pitch": 61, "duration": 9, "velocity": 70}, {"time": 4292, "pitch": 64, "duration": 9, "velocity": 75}, {"time": 4304, "pitch": 61, "duration": 4, "velocity": 84}, {"time": 4304, "pitch": 64, "duration": 8, "velocity": 87}, {"time": 4310, "pitch": 57, "duration": 6, "velocity": 88}, {"time": 4316, "pitch": 52, "duration": 19, "velocity": 75}, {"time": 4322, "pitch": 57, "duration": 2, "velocity": 76}, {"time": 4328, "pitch": 57, "duration": 1, "velocity": 78}, {"time": 4328, "pitch": 61, "duration": 13, "velocity": 89}, {"time": 4328, "pitch": 64, "duration": 15, "velocity": 86}, {"time": 4334, "pitch": 57, "duration": 7, "velocity": 84}, {"time": 4340, "pitch": 45, "duration": 20, "velocity": 86}, {"time": 4346, "pitch": 52, "duration": 10, "velocity": 76}, {"time": 4352, "pitch": 57, "duration": 2, "velocity": 83}, {"time": 4352, "pitch": 61, "duration": 11, "velocity": 94}, {"time": 4352, "pitch": 64, "duration": 13, "velocity": 89}, {"time": 4358, "pitch": 57, "duration": 6, "velocity": 83}, {"time": 4364, "pitch": 52, "duration": 7, "velocity": 83}, {"time": 4370, "pitch": 57, "duration": 4, "velocity": 88}, {"time": 4376, "pitch": 61, "duration": 10, "velocity": 90}, {"time": 4376, "pitch": 64, "duration": 10, "velocity": 88}, {"time": 4382, "pitch": 40, "duration": 5, "velocity": 89}, {"time": 4388, "pitch": 45, "duration": 19, "velocity": 85}, {"time": 4394, "pitch": 52, "duration": 13, "velocity": 80}, {"time": 4400, "pitch": 61, "duration": 9, "velocity": 89}, {"time": 4400, "pitch": 64, "duration": 13, "velocity": 88}, {"time": 4406, "pitch": 57, "duration": 7, "velocity": 83}, {"time": 4412, "pitch": 52, "duration": 13, "velocity": 83}, {"time": 4418, "pitch": 57, "duration": 4, "velocity": 83}, {"time": 4424, "pitch": 61, "duration": 7, "velocity": 88}, {"time": 4424, "pitch": 64, "duration": 13, "velocity": 87}, {"time": 4430, "pitch": 57, "duration": 5, "velocity": 83}, {"time": 4436, "pitch": 42, "duration": 16, "velocity": 88}, {"time": 4442, "pitch": 49, "duration": 11, "velocity": 61}, {"time": 4448, "pitch": 57, "duration": 8, "velocity": 80}, {"time": 4448, "pitch": 61, "duration": 7, "velocity": 80}, {"time": 4454, "pitch": 54, "duration": 5, "velocity": 89}, {"time": 4460, "pitch": 49, "duration": 9, "velocity": 73}, {"time": 4466, "pitch": 54, "duration": 3, "velocity": 85}, {"time": 4472, "pitch": 54, "duration": 1, "velocity": 84}, {"time": 4472, "pitch": 57, "duration": 3, "velocity": 84}, {"time": 4472, "pitch": 61, "duration": 4, "velocity": 77}, {"time": 4484, "pitch": 38, "duration": 18, "velocity": 87}, {"time": 4484, "pitch": 57, "duration": 5, "velocity": 80}, {"time": 4484, "pitch": 62, "duration": 8, "velocity": 80}, {"time": 4490, "pitch": 57, "duration": 3, "velocity": 74}, {"time": 4496, "pitch": 57, "duration": 1, "velocity": 77}, {"time": 4496, "pitch": 62, "duration": 9, "velocity": 87}, {"time": 4496, "pitch": 66, "duration": 11, "velocity": 84}, {"time": 4502, "pitch": 57, "duration": 6, "velocity": 84}, {"time": 4508, "pitch": 45, "duration": 11, "velocity": 71}, {"time": 4514, "pitch": 57, "duration": 2, "velocity": 74}, {"time": 4520, "pitch": 57, "duration": 2, "velocity": 85}, {"time": 4520, "pitch": 62, "duration": 6, "velocity": 85}, {"time": 4526, "pitch": 57, "duration": 2, "velocity": 73}, {"time": 4532, "pitch": 40, "duration": 17, "velocity": 85}, {"time": 4532, "pitch": 59, "duration": 4, "velocity": 77}, {"time": 4532, "pitch": 64, "duration": 8, "velocity": 84}, {"time": 4538, "pitch": 59, "duration": 3, "velocity": 77}, {"time": 4544, "pitch": 59, "duration": 2, "velocity": 83}, {"time": 4544, "pitch": 64, "duration": 8, "velocity": 88}, {"time": 4544, "pitch": 68, "duration": 11, "velocity": 79}, {"time": 4550, "pitch": 59, "duration": 5, "velocity": 84}, {"time": 4556, "pitch": 47, "duration": 6, "velocity": 67}, {"time": 4562, "pitch": 59, "duration": 3, "velocity": 80}, {"time": 4568, "pitch": 59, "duration": 2, "velocity": 87}, {"time": 4568, "pitch": 64, "duration": 2, "velocity": 90}, {"time": 4568, "pitch": 68, "duration": 7, "velocity": 83}, {"time": 4574, "pitch": 59, "duration": 4, "velocity": 83}, {"time": 4580, "pitch": 45, "duration": 15, "velocity": 84}, {"time": 4580, "pitch": 57, "duration": 6, "velocity": 83}, {"time": 4580, "pitch": 61, "duration": 7, "velocity": 84}, {"time": 4586, "pitch": 52, "duration": 8, "velocity": 78}, {"time": 4592, "pitch": 57, "duration": 2, "velocity": 79}, {"time": 4592, "pitch": 61, "duration": 5, "velocity": 82}, {"time": 4592, "pitch": 64, "duration": 5, "velocity": 85}, {"time": 4598, "pitch": 57, "duration": 5, "velocity": 87}, {"time": 4604, "pitch": 52, "duration": 14, "velocity": 76}, {"time": 4610, "pitch": 57, "duration": 3, "velocity": 83}, {"time": 4616, "pitch": 61, "duration": 4, "velocity": 87}, {"time": 4616, "pitch": 64, "duration": 4, "velocity": 86}, {"time": 4622, "pitch": 57, "duration": 3, "velocity": 83}, {"time": 4628, "pitch": 42, "duration": 16, "velocity": 77}, {"time": 4628, "pitch": 57, "duration": 4, "velocity": 78}, {"time": 4628, "pitch": 61, "duration": 7, "velocity": 77}, {"time": 4634, "pitch": 49, "duration": 10, "velocity": 50}, {"time": 4640, "pitch": 61, "duration": 7, "velocity": 87}, {"time": 4640, "pitch": 66, "duration": 7, "velocity": 81}, {"time": 4646, "pitch": 57, "duration": 6, "velocity": 87}, {"time": 4652, "pitch": 49, "duration": 5, "velocity": 72}, {"time": 4658, "pitch": 57, "duration": 3, "velocity": 80}, {"time": 4664, "pitch": 57, "duration": 2, "velocity": 83}, {"time": 4664, "pitch": 61, "duration": 4, "velocity": 94}, {"time": 4664, "pitch": 66, "duration": 9, "velocity": 83}, {"time": 4670, "pitch": 57, "duration": 3, "velocity": 80}, {"time": 4676, "pitch": 50, "duration": 20, "velocity": 84}, {"time": 4676, "pitch": 57, "duration": 3, "velocity": 79}, {"time": 4676, "pitch": 62, "duration": 7, "velocity": 83}, {"time": 4682, "pitch": 57, "duration": 3, "velocity": 82}, {"time": 4688, "pitch": 62, "duration": 4, "velocity": 87}, {"time": 4688, "pitch": 66, "duration": 13, "velocity": 85}, {"time": 4694, "pitch": 57, "duration": 7, "velocity": 84}, {"time": 4694, "pitch": 62, "duration": 3, "velocity": 58}, {"time": 4700, "pitch": 50, "duration": 7, "velocity": 77}, {"time": 4706, "pitch": 57, "duration": 3, "velocity": 84}, {"time": 4712, "pitch": 57, "duration": 2, "velocity": 85}, {"time": 4712, "pitch": 62, "duration": 8, "velocity": 90}, {"time": 4718, "pitch": 57, "duration": 3, "velocity": 78}, {"time": 4724, "pitch": 40, "duration": 19, "velocity": 86}, {"time": 4724, "pitch": 59, "duration": 5, "velocity": 83}, {"time": 4724, "pitch": 64, "duration": 4, "velocity": 84}, {"time": 4730, "pitch": 47, "duration": 12, "velocity": 67}, {"time": 4736, "pitch": 56, "duration": 7, "velocity": 83}, {"time": 4736, "pitch": 59, "duration": 12, "velocity": 83}, {"time": 4742, "pitch": 52, "duration": 8, "velocity": 87}, {"time": 4748, "pitch": 47, "duration": 12, "velocity": 77}, {"time": 4754, "pitch": 52, "duration": 7, "velocity": 85}, {"time": 4760, "pitch": 56, "duration": 7, "velocity": 85}, {"time": 4760, "pitch": 59, "duration": 8, "velocity": 84}, {"time": 4760, "pitch": 64, "duration": 12, "velocity": 83}, {"time": 4766, "pitch": 52, "duration": 3, "velocity": 84}, {"time": 4772, "pitch": 37, "duration": 19, "velocity": 76}, {"time": 4772, "pitch": 56, "duration": 10, "velocity": 79}, {"time": 4772, "pitch": 61, "duration": 8, "velocity": 82}, {"time": 4784, "pitch": 61, "duration": 15, "velocity": 88}, {"time": 4784, "pitch": 64, "duration": 9, "velocity": 88}, {"time": 4790, "pitch": 56, "duration": 8, "velocity": 87}, {"time": 4796, "pitch": 44, "duration": 8, "velocity": 86}, {"time": 4802, "pitch": 56, "duration": 3, "velocity": 89}, {"time": 4802, "pitch": 61, "duration": 1, "velocity": 63}, {"time": 4808, "pitch": 56, "duration": 2, "velocity": 73}, {"time": 4808, "pitch": 61, "duration": 6, "velocity": 83}, {"time": 4808, "pitch": 64, "duration": 8, "velocity": 87}, {"time": 4814, "pitch": 56, "duration": 2, "velocity": 84}, {"time": 4820, "pitch": 42, "duration": 17, "velocity": 83}, {"time": 4820, "pitch": 54, "duration": 8, "velocity": 84}, {"time": 4820, "pitch": 57, "duration": 8, "velocity": 75}, {"time": 4826, "pitch": 49, "duration": 14, "velocity": 73}, {"time": 4832, "pitch": 57, "duration": 4, "velocity": 86}, {"time": 4832, "pitch": 61, "duration": 5, "velocity": 85}, {"time": 4838, "pitch": 54, "duration": 6, "velocity": 87}, {"time": 4844, "pitch": 49, "duration": 10, "velocity": 71}, {"time": 4850, "pitch": 54, "duration": 4, "velocity": 79}, {"time": 4856, "pitch": 54, "duration": 2, "velocity": 87}, {"time": 4856, "pitch": 57, "duration": 3, "velocity": 89}, {"time": 4856, "pitch": 61, "duration": 2, "velocity": 77}, {"time": 4856, "pitch": 66, "duration": 11, "velocity": 80}, {"time": 4862, "pitch": 54, "duration": 3, "velocity": 88}, {"time": 4868, "pitch": 47, "duration": 20, "velocity": 87}, {"time": 4874, "pitch": 59, "duration": 8, "velocity": 86}, {"time": 4880, "pitch": 63, "duration": 13, "velocity": 84}, {"time": 4880, "pitch": 66, "duration": 8, "velocity": 83}, {"time": 4886, "pitch": 59, "duration": 6, "velocity": 89}, {"time": 4892, "pitch": 54, "duration": 10, "velocity": 84}, {"time": 4898, "pitch": 59, "duration": 8, "velocity": 89}, {"time": 4904, "pitch": 63, "duration": 5, "velocity": 89}, {"time": 4904, "pitch": 66, "duration": 8, "velocity": 88}, {"time": 4910, "pitch": 59, "duration": 3, "velocity": 85}, {"time": 4916, "pitch": 40, "duration": 18, "velocity": 79}, {"time": 4916, "pitch": 59, "duration": 5, "velocity": 83}, {"time": 4916, "pitch": 64, "duration": 8, "velocity": 86}, {"time": 4922, "pitch": 59, "duration": 4, "velocity": 85}, {"time": 4928, "pitch": 64, "duration": 14, "velocity": 85}, {"time": 4928, "pitch": 68, "duration": 14, "velocity": 81}, {"time": 4934, "pitch": 59, "duration": 8, "velocity": 87}, {"time": 4940, "pitch": 47, "duration": 9, "velocity": 79}, {"time": 4946, "pitch": 59, "duration": 3, "velocity": 85}, {"time": 4952, "pitch": 59, "duration": 3, "velocity": 86}, {"time": 4952, "pitch": 64, "duration": 4, "velocity": 85}, {"time": 4952, "pitch": 68, "duration": 4, "velocity": 82}, {"time": 4964, "pitch": 45, "duration": 18, "velocity": 84}, {"time": 4964, "pitch": 57, "duration": 5, "velocity": 77}, {"time": 4964, "pitch": 61, "duration": 8, "velocity": 78}, {"time": 4970, "pitch": 52, "duration": 9, "velocity": 75}, {"time": 4976, "pitch": 61, "duration": 8, "velocity": 90}, {"time": 4976, "pitch": 64, "duration": 8, "velocity": 85}, {"time": 4982, "pitch": 57, "duration": 8, "velocity": 86}, {"time": 4988, "pitch": 52, "duration": 13, "velocity": 78}, {"time": 4994, "pitch": 57, "duration": 3, "velocity": 83}, {"time": 5000, "pitch": 57, "duration": 2, "velocity": 79}, {"time": 5000, "pitch": 61, "duration": 5, "velocity": 87}, {"time": 5000, "pitch": 64, "duration": 7, "velocity": 85}, {"time": 5006, "pitch": 57, "duration": 3, "velocity": 79}, {"time": 5012, "pitch": 38, "duration": 12, "velocity": 75}, {"time": 5012, "pitch": 57, "duration": 8, "velocity": 80}, {"time": 5012, "pitch": 62, "duration": 9, "velocity": 83}, {"time": 5024, "pitch": 57, "duration": 2, "velocity": 83}, {"time": 5024, "pitch": 62, "duration": 13, "velocity": 86}, {"time": 5024, "pitch": 66, "duration": 20, "velocity": 83}, {"time": 5030, "pitch": 57, "duration": 6, "velocity": 84}, {"time": 5036, "pitch": 50, "duration": 8, "velocity": 84}, {"time": 5042, "pitch": 57, "duration": 3, "velocity": 84}, {"time": 5042, "pitch": 62, "duration": 1, "velocity": 57}, {"time": 5048, "pitch": 57, "duration": 4, "velocity": 90}, {"time": 5048, "pitch": 62, "duration": 4, "velocity": 89}, {"time": 5060, "pitch": 40, "duration": 19, "velocity": 85}, {"time": 5060, "pitch": 59, "duration": 8, "velocity": 79}, {"time": 5060, "pitch": 64, "duration": 9, "velocity": 84}, {"time": 5072, "pitch": 59, "duration": 3, "velocity": 83}, {"time": 5072, "pitch": 64, "duration": 6, "velocity": 87}, {"time": 5078, "pitch": 59, "duration": 7, "velocity": 90}, {"time": 5084, "pitch": 47, "duration": 5, "velocity": 80}, {"time": 5090, "pitch": 59, "duration": 3, "velocity": 84}, {"time": 5096, "pitch": 59, "duration": 3, "velocity": 87}, {"time": 5096, "pitch": 64, "duration": 3, "velocity": 90}, {"time": 5096, "pitch": 68, "duration": 3, "velocity": 83}, {"time": 5108, "pitch": 45, "duration": 20, "velocity": 84}, {"time": 5108, "pitch": 57, "duration": 10, "velocity": 75}, {"time": 5108, "pitch": 61, "duration": 9, "velocity": 70}, {"time": 5108, "pitch": 64, "duration": 9, "velocity": 75}, {"time": 5120, "pitch": 61, "duration": 4, "velocity": 84}, {"time": 5120, "pitch": 64, "duration": 8, "velocity": 87}, {"time": 5126, "pitch": 57, "duration": 6, "velocity": 88}, {"time": 5132, "pitch": 52, "duration": 19, "velocity": 75}, {"time": 5138, "pitch": 57, "duration": 2, "velocity": 76}, {"time": 5144, "pitch": 57, "duration": 1, "velocity": 78}, {"time": 5144, "pitch": 61, "duration": 13, "velocity": 89}, {"time": 5144, "pitch": 64, "duration": 15, "velocity": 86}, {"time": 5150, "pitch": 57, "duration": 7, "velocity": 84}, {"time": 5156, "pitch": 45, "duration": 18, "velocity": 84}, {"time": 5156, "pitch": 57, "duration": 1, "velocity": 77}, {"time": 5156, "pitch": 61, "duration": 1, "velocity": 78}, {"time": 5162, "pitch": 52, "duration": 9, "velocity": 75}, {"time": 5168, "pitch": 61, "duration": 8, "velocity": 90}, {"time": 5168, "pitch": 64, "duration": 8, "velocity": 85}, {"time": 5174, "pitch": 57, "duration": 8, "velocity": 86}, {"time": 5180, "pitch": 52, "duration": 13, "velocity": 78}, {"time": 5186, "pitch": 57, "duration": 3, "velocity": 83}, {"time": 5192, "pitch": 57, "duration": 2, "velocity": 79}, {"time": 5192, "pitch": 61, "duration": 5, "velocity": 87}, {"time": 5192, "pitch": 64, "duration": 7, "velocity": 85}, {"time": 5198, "pitch": 57, "duration": 3, "velocity": 79}, {"time": 5204, "pitch": 38, "duration": 12, "velocity": 75}, {"time": 5204, "pitch": 57, "duration": 8, "velocity": 80}, {"time": 5204, "pitch": 62, "duration": 9, "velocity": 83}, {"time": 5216, "pitch": 57, "duration": 2, "velocity": 83}, {"time": 5216, "pitch": 62, "duration": 13, "velocity": 86}, {"time": 5216, "pitch": 66, "duration": 20, "velocity": 83}, {"time": 5222, "pitch": 57, "duration": 6, "velocity": 84}, {"time": 5228, "pitch": 50, "duration": 8, "velocity": 84}, {"time": 5234, "pitch": 57, "duration": 3, "velocity": 84}, {"time": 5234, "pitch": 62, "duration": 1, "velocity": 57}, {"time": 5240, "pitch": 57, "duration": 4, "velocity": 90}, {"time": 5240, "pitch": 62, "duration": 4, "velocity": 89}, {"time": 5252, "pitch": 40, "duration": 19, "velocity": 85}, {"time": 5252, "pitch": 59, "duration": 8, "velocity": 79}, {"time": 5252, "pitch": 64, "duration": 9, "velocity": 84}, {"time": 5264, "pitch": 59, "duration": 3, "velocity": 83}, {"time": 5264, "pitch": 64, "duration": 6, "velocity": 87}, {"time": 5270, "pitch": 59, "duration": 7, "velocity": 90}, {"time": 5276, "pitch": 47, "duration": 5, "velocity": 80}, {"time": 5282, "pitch": 59, "duration": 3, "velocity": 84}, {"time": 5288, "pitch": 59, "duration": 3, "velocity": 87}, {"time": 5288, "pitch": 64, "duration": 3, "velocity": 90}, {"time": 5288, "pitch": 68, "duration": 3, "velocity": 83}, {"time": 5298, "pitch": 57, "duration": 69, "velocity": 70}, {"time": 5299, "pitch": 61, "duration": 68, "velocity": 74}, {"time": 5299, "pitch": 45, "duration": 68, "velocity": 84}, {"time": 5301, "pitch": 64, "duration": 67, "velocity": 72}], "annotations": [{"time": 23, "annotation": {"number": 64, "value": 127}, "group": "control_change"}, {"time": 68, "annotation": {"number": 64, "value": 0}, "group": "control_change"}, {"time": 72, "annotation": {"number": 64, "value": 127}, "group": "control_change"}, {"time": 115, "annotation": {"number": 64, "value": 0}, "group": "control_change"}, {"time": 118, "annotation": {"number": 64, "value": 127}, "group": "control_change"}, {"time": 138, "annotation": {"number": 64, "value": 0}, "group": "control_change"}, {"time": 141, "annotation": {"number": 64, "value": 127}, "group": "control_change"}, {"time": 161, "annotation": {"number": 64, "value": 0}, "group": "control_change"}, {"time": 165, "annotation": {"number": 64, "value": 127}, "group": "control_change"}, {"time": 209, "annotation": {"number": 64, "value": 0}, "group": "control_change"}, {"time": 212, "annotation": {"number": 64, "value": 127}, "group": "control_change"}, {"time": 232, "annotation": {"number": 64, "value": 0}, "group": "control_change"}, {"time": 235, "annotation": {"number": 64, "value": 127}, "group": "control_change"}, {"time": 252, "annotation": {"number": 64, "value": 0}, "group": "control_change"}, {"time": 255, "annotation": {"number": 64, "value": 127}, "group": "control_change"}, {"time": 305, "annotation": {"number": 64, "value": 0}, "group": "control_change"}, {"time": 314, "annotation": {"number": 64, "value": 127}, "group": "control_change"}, {"time": 351, "annotation": {"number": 64, "value": 0}, "group": "control_change"}, {"time": 358, "annotation": {"number": 64, "value": 127}, "group": "control_change"}, {"time": 399, "annotation": {"number": 64, "value": 0}, "group": "control_change"}, {"time": 404, "annotation": {"number": 64, "value": 127}, "group": "control_change"}, {"time": 451, "annotation": {"number": 64, "value": 0}, "group": "control_change"}, {"time": 454, "annotation": {"number": 64, "value": 127}, "group": "control_change"}, {"time": 498, "annotation": {"number": 64, "value": 0}, "group": "control_change"}, {"time": 501, "annotation": {"number": 64, "value": 127}, "group": "control_change"}, {"time": 545, "annotation": {"number": 64, "value": 0}, "group": "control_change"}, {"time": 548, "annotation": {"number": 64, "value": 127}, "group": "control_change"}, {"time": 592, "annotation": {"number": 64, "value": 0}, "group": "control_change"}, {"time": 597, "annotation": {"number": 64, "value": 127}, "group": "control_change"}, {"time": 640, "annotation": {"number": 64, "value": 0}, "group": "control_change"}, {"time": 645, "annotation": {"number": 64, "value": 127}, "group": "control_change"}, {"time": 689, "annotation": {"number": 64, "value": 0}, "group": "control_change"}, {"time": 692, "annotation": {"number": 64, "value": 127}, "group": "control_change"}, {"time": 713, "annotation": {"number": 64, "value": 0}, "group": "control_change"}, {"time": 716, "annotation": {"number": 64, "value": 127}, "group": "control_change"}, {"time": 736, "annotation": {"number": 64, "value": 0}, "group": "control_change"}, {"time": 741, "annotation": {"number": 64, "value": 127}, "group": "control_change"}, {"time": 741, "annotation": {"number": 64, "value": 0}, "group": "control_change"}, {"time": 761, "annotation": {"number": 64, "value": 0}, "group": "control_change"}, {"time": 764, "annotation": {"number": 64, "value": 127}, "group": "control_change"}, {"time": 787, "annotation": {"number": 64, "value": 0}, "group": "control_change"}, {"time": 790, "annotation": {"number": 64, "value": 127}, "group": "control_change"}, {"time": 832, "annotation": {"number": 64, "value": 0}, "group": "control_change"}, {"time": 836, "annotation": {"number": 64, "value": 127}, "group": "control_change"}, {"time": 861, "annotation": {"number": 64, "value": 0}, "group": "control_change"}, {"time": 863, "annotation": {"number": 64, "value": 127}, "group": "control_change"}, {"time": 882, "annotation": {"number": 64, "value": 0}, "group": "control_change"}, {"time": 886, "annotation": {"number": 64, "value": 127}, "group": "control_change"}, {"time": 931, "annotation": {"number": 64, "value": 0}, "group": "control_change"}, {"time": 936, "annotation": {"number": 64, "value": 127}, "group": "control_change"}, {"time": 953, "annotation": {"number": 64, "value": 0}, "group": "control_change"}, {"time": 956, "annotation": {"number": 64, "value": 127}, "group": "control_change"}, {"time": 978, "annotation": {"number": 64, "value": 0}, "group": "control_change"}, {"time": 981, "annotation": {"number": 64, "value": 127}, "group": "control_change"}, {"time": 1002, "annotation": {"number": 64, "value": 0}, "group": "control_change"}, {"time": 1004, "annotation": {"number": 64, "value": 127}, "group": "control_change"}, {"time": 1024, "annotation": {"number": 64, "value": 0}, "group": "control_change"}, {"time": 1028, "annotation": {"number": 64, "value": 127}, "group": "control_change"}, {"time": 1074, "annotation": {"number": 64, "value": 0}, "group": "control_change"}, {"time": 1082, "annotation": {"number": 64, "value": 127}, "group": "control_change"}, {"time": 1120, "annotation": {"number": 64, "value": 0}, "group": "control_change"}, {"time": 1125, "annotation": {"number": 64, "value": 127}, "group": "control_change"}, {"time": 1165, "annotation": {"number": 64, "value": 0}, "group": "control_change"}, {"time": 1174, "annotation": {"number": 64, "value": 127}, "group": "control_change"}, {"time": 1215, "annotation": {"number": 64, "value": 0}, "group": "control_change"}, {"time": 1220, "annotation": {"number": 64, "value": 127}, "group": "control_change"}, {"time": 1267, "annotation": {"number": 64, "value": 0}, "group": "control_change"}, {"time": 1270, "annotation": {"number": 64, "value": 127}, "group": "control_change"}, {"time": 1314, "annotation": {"number": 64, "value": 0}, "group": "control_change"}, {"time": 1317, "annotation": {"number": 64, "value": 127}, "group": "control_change"}, {"time": 1361, "annotation": {"number": 64, "value": 0}, "group": "control_change"}, {"time": 1364, "annotation": {"number": 64, "value": 127}, "group": "control_change"}, {"time": 1408, "annotation": {"number": 64, "value": 0}, "group": "control_change"}, {"time": 1413, "annotation": {"number": 64, "value": 127}, "group": "control_change"}, {"time": 1456, "annotation": {"number": 64, "value": 0}, "group": "control_change"}, {"time": 1461, "annotation": {"number": 64, "value": 127}, "group": "control_change"}, {"time": 1505, "annotation": {"number": 64, "value": 0}, "group": "control_change"}, {"time": 1508, "annotation": {"number": 64, "value": 127}, "group": "control_change"}, {"time": 1529, "annotation": {"number": 64, "value": 0}, "group": "control_change"}, {"time": 1532, "annotation": {"number": 64, "value": 127}, "group": "control_change"}, {"time": 1552, "annotation": {"number": 64, "value": 0}, "group": "control_change"}, {"time": 1557, "annotation": {"number": 64, "value": 127}, "group": "control_change"}, {"time": 1557, "annotation": {"number": 64, "value": 0}, "group": "control_change"}, {"time": 1577, "annotation": {"number": 64, "value": 0}, "group": "control_change"}, {"time": 1580, "annotation": {"number": 64, "value": 127}, "group": "control_change"}, {"time": 1603, "annotation": {"number": 64, "value": 0}, "group": "control_change"}, {"time": 1606, "annotation": {"number": 64, "value": 127}, "group": "control_change"}, {"time": 1648, "annotation": {"number": 64, "value": 0}, "group": "control_change"}, {"time": 1652, "annotation": {"number": 64, "value": 127}, "group": "control_change"}, {"time": 1677, "annotation": {"number": 64, "value": 0}, "group": "control_change"}, {"time": 1679, "annotation": {"number": 64, "value": 127}, "group": "control_change"}, {"time": 1698, "annotation": {"number": 64, "value": 0}, "group": "control_change"}, {"time": 1702, "annotation": {"number": 64, "value": 127}, "group": "control_change"}, {"time": 1747, "annotation": {"number": 64, "value": 0}, "group": "control_change"}, {"time": 1752, "annotation": {"number": 64, "value": 127}, "group": "control_change"}, {"time": 1769, "annotation": {"number": 64, "value": 0}, "group": "control_change"}, {"time": 1772, "annotation": {"number": 64, "value": 127}, "group": "control_change"}, {"time": 1794, "annotation": {"number": 64, "value": 0}, "group": "control_change"}, {"time": 1797, "annotation": {"number": 64, "value": 127}, "group": "control_change"}, {"time": 1818, "annotation": {"number": 64, "value": 0}, "group": "control_change"}, {"time": 1820, "annotation": {"number": 64, "value": 127}, "group": "control_change"}, {"time": 1840, "annotation": {"number": 64, "value": 0}, "group": "control_change"}, {"time": 1844, "annotation": {"number": 64, "value": 127}, "group": "control_change"}, {"time": 1890, "annotation": {"number": 64, "value": 0}, "group": "control_change"}, {"time": 1898, "annotation": {"number": 64, "value": 127}, "group": "control_change"}, {"time": 1936, "annotation": {"number": 64, "value": 0}, "group": "control_change"}, {"time": 1942, "annotation": {"number": 64, "value": 127}, "group": "control_change"}, {"time": 1983, "annotation": {"number": 64, "value": 0}, "group": "control_change"}, {"time": 1988, "annotation": {"number": 64, "value": 127}, "group": "control_change"}, {"time": 2035, "annotation": {"number": 64, "value": 0}, "group": "control_change"}, {"time": 2038, "annotation": {"number": 64, "value": 127}, "group": "control_change"}, {"time": 2082, "annotation": {"number": 64, "value": 0}, "group": "control_change"}, {"time": 2085, "annotation": {"number": 64, "value": 127}, "group": "control_change"}, {"time": 2129, "annotation": {"number": 64, "value": 0}, "group": "control_change"}, {"time": 2132, "annotation": {"number": 64, "value": 127}, "group": "control_change"}, {"time": 2176, "annotation": {"number": 64, "value": 0}, "group": "control_change"}, {"time": 2181, "annotation": {"number": 64, "value": 127}, "group": "control_change"}, {"time": 2224, "annotation": {"number": 64, "value": 0}, "group": "control_change"}, {"time": 2229, "annotation": {"number": 64, "value": 127}, "group": "control_change"}, {"time": 2273, "annotation": {"number": 64, "value": 0}, "group": "control_change"}, {"time": 2276, "annotation": {"number": 64, "value": 127}, "group": "control_change"}, {"time": 2297, "annotation": {"number": 64, "value": 0}, "group": "control_change"}, {"time": 2300, "annotation": {"number": 64, "value": 127}, "group": "control_change"}, {"time": 2320, "annotation": {"number": 64, "value": 0}, "group": "control_change"}, {"time": 2325, "annotation": {"number": 64, "value": 127}, "group": "control_change"}, {"time": 2325, "annotation": {"number": 64, "value": 0}, "group": "control_change"}, {"time": 2345, "annotation": {"number": 64, "value": 0}, "group": "control_change"}, {"time": 2348, "annotation": {"number": 64, "value": 127}, "group": "control_change"}, {"time": 2371, "annotation": {"number": 64, "value": 0}, "group": "control_change"}, {"time": 2374, "annotation": {"number": 64, "value": 127}, "group": "control_change"}, {"time": 2416, "annotation": {"number": 64, "value": 0}, "group": "control_change"}, {"time": 2420, "annotation": {"number": 64, "value": 127}, "group": "control_change"}, {"time": 2445, "annotation": {"number": 64, "value": 0}, "group": "control_change"}, {"time": 2447, "annotation": {"number": 64, "value": 127}, "group": "control_change"}, {"time": 2466, "annotation": {"number": 64, "value": 0}, "group": "control_change"}, {"time": 2470, "annotation": {"number": 64, "value": 127}, "group": "control_change"}, {"time": 2515, "annotation": {"number": 64, "value": 0}, "group": "control_change"}, {"time": 2520, "annotation": {"number": 64, "value": 127}, "group": "control_change"}, {"time": 2537, "annotation": {"number": 64, "value": 0}, "group": "control_change"}, {"time": 2540, "annotation": {"number": 64, "value": 127}, "group": "control_change"}, {"time": 2562, "annotation": {"number": 64, "value": 0}, "group": "control_change"}, {"time": 2565, "annotation": {"number": 64, "value": 127}, "group": "control_change"}, {"time": 2586, "annotation": {"number": 64, "value": 0}, "group": "control_change"}, {"time": 2588, "annotation": {"number": 64, "value": 127}, "group": "control_change"}, {"time": 2608, "annotation": {"number": 64, "value": 0}, "group": "control_change"}, {"time": 2612, "annotation": {"number": 64, "value": 127}, "group": "control_change"}, {"time": 2658, "annotation": {"number": 64, "value": 0}, "group": "control_change"}, {"time": 2666, "annotation": {"number": 64, "value": 127}, "group": "control_change"}, {"time": 2704, "annotation": {"number": 64, "value": 0}, "group": "control_change"}, {"time": 2709, "annotation": {"number": 64, "value": 127}, "group": "control_change"}, {"time": 2749, "annotation": {"number": 64, "value": 0}, "group": "control_change"}, {"time": 2758, "annotation": {"number": 64, "value": 127}, "group": "control_change"}, {"time": 2799, "annotation": {"number": 64, "value": 0}, "group": "control_change"}, {"time": 2804, "annotation": {"number": 64, "value": 127}, "group": "control_change"}, {"time": 2851, "annotation": {"number": 64, "value": 0}, "group": "control_change"}, {"time": 2854, "annotation": {"number": 64, "value": 127}, "group": "control_change"}, {"time": 2898, "annotation": {"number": 64, "value": 0}, "group": "control_change"}, {"time": 2901, "annotation": {"number": 64, "value": 127}, "group": "control_change"}, {"time": 2945, "annotation": {"number": 64, "value": 0}, "group": "control_change"}, {"time": 2948, "annotation": {"number": 64, "value": 127}, "group": "control_change"}, {"time": 2992, "annotation": {"number": 64, "value": 0}, "group": "control_change"}, {"time": 2997, "annotation": {"number": 64, "value": 127}, "group": "control_change"}, {"time": 3040, "annotation": {"number": 64, "value": 0}, "group": "control_change"}, {"time": 3045, "annotation": {"number": 64, "value": 127}, "group": "control_change"}, {"time": 3089, "annotation": {"number": 64, "value": 0}, "group": "control_change"}, {"time": 3092, "annotation": {"number": 64, "value": 127}, "group": "control_change"}, {"time": 3113, "annotation": {"number": 64, "value": 0}, "group": "control_change"}, {"time": 3116, "annotation": {"number": 64, "value": 127}, "group": "control_change"}, {"time": 3136, "annotation": {"number": 64, "value": 0}, "group": "control_change"}, {"time": 3141, "annotation": {"number": 64, "value": 127}, "group": "control_change"}, {"time": 3141, "annotation": {"number": 64, "value": 0}, "group": "control_change"}, {"time": 3161, "annotation": {"number": 64, "value": 0}, "group": "control_change"}, {"time": 3164, "annotation": {"number": 64, "value": 127}, "group": "control_change"}, {"time": 3187, "annotation": {"number": 64, "value": 0}, "group": "control_change"}, {"time": 3190, "annotation": {"number": 64, "value": 127}, "group": "control_change"}, {"time": 3232, "annotation": {"number": 64, "value": 0}, "group": "control_change"}, {"time": 3236, "annotation": {"number": 64, "value": 127}, "group": "control_change"}, {"time": 3261, "annotation": {"number": 64, "value": 0}, "group": "control_change"}, {"time": 3263, "annotation": {"number": 64, "value": 127}, "group": "control_change"}, {"time": 3282, "annotation": {"number": 64, "value": 0}, "group": "control_change"}, {"time": 3286, "annotation": {"number": 64, "value": 127}, "group": "control_change"}, {"time": 3331, "annotation": {"number": 64, "value": 0}, "group": "control_change"}, {"time": 3336, "annotation": {"number": 64, "value": 127}, "group": "control_change"}, {"time": 3353, "annotation": {"number": 64, "value": 0}, "group": "control_change"}, {"time": 3356, "annotation": {"number": 64, "value": 127}, "group": "control_change"}, {"time": 3378, "annotation": {"number": 64, "value": 0}, "group": "control_change"}, {"time": 3381, "annotation": {"number": 64, "value": 127}, "group": "control_change"}, {"time": 3402, "annotation": {"number": 64, "value": 0}, "group": "control_change"}, {"time": 3404, "annotation": {"number": 64, "value": 127}, "group": "control_change"}, {"time": 3424, "annotation": {"number": 64, "value": 0}, "group": "control_change"}, {"time": 3428, "annotation": {"number": 64, "value": 127}, "group": "control_change"}, {"time": 3474, "annotation": {"number": 64, "value": 0}, "group": "control_change"}, {"time": 3482, "annotation": {"number": 64, "value": 127}, "group": "control_change"}, {"time": 3520, "annotation": {"number": 64, "value": 0}, "group": "control_change"}, {"time": 3525, "annotation": {"number": 64, "value": 127}, "group": "control_change"}, {"time": 3565, "annotation": {"number": 64, "value": 0}, "group": "control_change"}, {"time": 3574, "annotation": {"number": 64, "value": 127}, "group": "control_change"}, {"time": 3615, "annotation": {"number": 64, "value": 0}, "group": "control_change"}, {"time": 3620, "annotation": {"number": 64, "value": 127}, "group": "control_change"}, {"time": 3667, "annotation": {"number": 64, "value": 0}, "group": "control_change"}, {"time": 3670, "annotation": {"number": 64, "value": 127}, "group": "control_change"}, {"time": 3714, "annotation": {"number": 64, "value": 0}, "group": "control_change"}, {"time": 3717, "annotation": {"number": 64, "value": 127}, "group": "control_change"}, {"time": 3761, "annotation": {"number": 64, "value": 0}, "group": "control_change"}, {"time": 3764, "annotation": {"number": 64, "value": 127}, "group": "control_change"}, {"time": 3808, "annotation": {"number": 64, "value": 0}, "group": "control_change"}, {"time": 3813, "annotation": {"number": 64, "value": 127}, "group": "control_change"}, {"time": 3856, "annotation": {"number": 64, "value": 0}, "group": "control_change"}, {"time": 3861, "annotation": {"number": 64, "value": 127}, "group": "control_change"}, {"time": 3905, "annotation": {"number": 64, "value": 0}, "group": "control_change"}, {"time": 3908, "annotation": {"number": 64, "value": 127}, "group": "control_change"}, {"time": 3929, "annotation": {"number": 64, "value": 0}, "group": "control_change"}, {"time": 3932, "annotation": {"number": 64, "value": 127}, "group": "control_change"}, {"time": 3952, "annotation": {"number": 64, "value": 0}, "group": "control_change"}, {"time": 3957, "annotation": {"number": 64, "value": 127}, "group": "control_change"}, {"time": 3957, "annotation": {"number": 64, "value": 0}, "group": "control_change"}, {"time": 3977, "annotation": {"number": 64, "value": 0}, "group": "control_change"}, {"time": 3980, "annotation": {"number": 64, "value": 127}, "group": "control_change"}, {"time": 4003, "annotation": {"number": 64, "value": 0}, "group": "control_change"}, {"time": 4006, "annotation": {"number": 64, "value": 127}, "group": "control_change"}, {"time": 4048, "annotation": {"number": 64, "value": 0}, "group": "control_change"}, {"time": 4052, "annotation": {"number": 64, "value": 127}, "group": "control_change"}, {"time": 4077, "annotation": {"number": 64, "value": 0}, "group": "control_change"}, {"time": 4079, "annotation": {"number": 64, "value": 127}, "group": "control_change"}, {"time": 4098, "annotation": {"number": 64, "value": 0}, "group": "control_change"}, {"time": 4102, "annotation": {"number": 64, "value": 127}, "group": "control_change"}, {"time": 4147, "annotation": {"number": 64, "value": 0}, "group": "control_change"}, {"time": 4152, "annotation": {"number": 64, "value": 127}, "group": "control_change"}, {"time": 4169, "annotation": {"number": 64, "value": 0}, "group": "control_change"}, {"time": 4172, "annotation": {"number": 64, "value": 127}, "group": "control_change"}, {"time": 4194, "annotation": {"number": 64, "value": 0}, "group": "control_change"}, {"time": 4197, "annotation": {"number": 64, "value": 127}, "group": "control_change"}, {"time": 4218, "annotation": {"number": 64, "value": 0}, "group": "control_change"}, {"time": 4220, "annotation": {"number": 64, "value": 127}, "group": "control_change"}, {"time": 4240, "annotation": {"number": 64, "value": 0}, "group": "control_change"}, {"time": 4244, "annotation": {"number": 64, "value": 127}, "group": "control_change"}, {"time": 4290, "annotation": {"number": 64, "value": 0}, "group": "control_change"}, {"time": 4298, "annotation": {"number": 64, "value": 127}, "group": "control_change"}, {"time": 4336, "annotation": {"number": 64, "value": 0}, "group": "control_change"}, {"time": 4341, "annotation": {"number": 64, "value": 127}, "group": "control_change"}, {"time": 4381, "annotation": {"number": 64, "value": 0}, "group": "control_change"}, {"time": 4390, "annotation": {"number": 64, "value": 127}, "group": "control_change"}, {"time": 4431, "annotation": {"number": 64, "value": 0}, "group": "control_change"}, {"time": 4436, "annotation": {"number": 64, "value": 127}, "group": "control_change"}, {"time": 4483, "annotation": {"number": 64, "value": 0}, "group": "control_change"}, {"time": 4486, "annotation": {"number": 64, "value": 127}, "group": "control_change"}, {"time": 4530, "annotation": {"number": 64, "value": 0}, "group": "control_change"}, {"time": 4533, "annotation": {"number": 64, "value": 127}, "group": "control_change"}, {"time": 4577, "annotation": {"number": 64, "value": 0}, "group": "control_change"}, {"time": 4580, "annotation": {"number": 64, "value": 127}, "group": "control_change"}, {"time": 4624, "annotation": {"number": 64, "value": 0}, "group": "control_change"}, {"time": 4629, "annotation": {"number": 64, "value": 127}, "group": "control_change"}, {"time": 4672, "annotation": {"number": 64, "value": 0}, "group": "control_change"}, {"time": 4677, "annotation": {"number": 64, "value": 127}, "group": "control_change"}, {"time": 4721, "annotation": {"number": 64, "value": 0}, "group": "control_change"}, {"time": 4724, "annotation": {"number": 64, "value": 127}, "group": "control_change"}, {"time": 4745, "annotation": {"number": 64, "value": 0}, "group": "control_change"}, {"time": 4748, "annotation": {"number": 64, "value": 127}, "group": "control_change"}, {"time": 4768, "annotation": {"number": 64, "value": 0}, "group": "control_change"}, {"time": 4773, "annotation": {"number": 64, "value": 127}, "group": "control_change"}, {"time": 4773, "annotation": {"number": 64, "value": 0}, "group": "control_change"}, {"time": 4793, "annotation": {"number": 64, "value": 0}, "group": "control_change"}, {"time": 4796, "annotation": {"number": 64, "value": 127}, "group": "control_change"}, {"time": 4819, "annotation": {"number": 64, "value": 0}, "group": "control_change"}, {"time": 4822, "annotation": {"number": 64, "value": 127}, "group": "control_change"}, {"time": 4864, "annotation": {"number": 64, "value": 0}, "group": "control_change"}, {"time": 4868, "annotation": {"number": 64, "value": 127}, "group": "control_change"}, {"time": 4893, "annotation": {"number": 64, "value": 0}, "group": "control_change"}, {"time": 4895, "annotation": {"number": 64, "value": 127}, "group": "control_change"}, {"time": 4914, "annotation": {"number": 64, "value": 0}, "group": "control_change"}, {"time": 4918, "annotation": {"number": 64, "value": 127}, "group": "control_change"}, {"time": 4963, "annotation": {"number": 64, "value": 0}, "group": "control_change"}, {"time": 4968, "annotation": {"number": 64, "value": 127}, "group": "control_change"}, {"time": 4985, "annotation": {"number": 64, "value": 0}, "group": "control_change"}, {"time": 4988, "annotation": {"number": 64, "value": 127}, "group": "control_change"}, {"time": 5010, "annotation": {"number": 64, "value": 0}, "group": "control_change"}, {"time": 5013, "annotation": {"number": 64, "value": 127}, "group": "control_change"}, {"time": 5034, "annotation": {"number": 64, "value": 0}, "group": "control_change"}, {"time": 5036, "annotation": {"number": 64, "value": 127}, "group": "control_change"}, {"time": 5056, "annotation": {"number": 64, "value": 0}, "group": "control_change"}, {"time": 5060, "annotation": {"number": 64, "value": 127}, "group": "control_change"}, {"time": 5106, "annotation": {"number": 64, "value": 0}, "group": "control_change"}, {"time": 5114, "annotation": {"number": 64, "value": 127}, "group": "control_change"}, {"time": 5152, "annotation": {"number": 64, "value": 0}, "group": "control_change"}, {"time": 5160, "annotation": {"number": 64, "value": 127}, "group": "control_change"}, {"time": 5177, "annotation": {"number": 64, "value": 0}, "group": "control_change"}, {"time": 5180, "annotation": {"number": 64, "value": 127}, "group": "control_change"}, {"time": 5202, "annotation": {"number": 64, "value": 0}, "group": "control_change"}, {"time": 5205, "annotation": {"number": 64, "value": 127}, "group": "control_change"}, {"time": 5226, "annotation": {"number": 64, "value": 0}, "group": "control_change"}, {"time": 5228, "annotation": {"number": 64, "value": 127}, "group": "control_change"}, {"time": 5248, "annotation": {"number": 64, "value": 0}, "group": "control_change"}, {"time": 5252, "annotation": {"number": 64, "value": 127}, "group": "control_change"}, {"time": 5298, "annotation": {"number": 64, "value": 0}, "group": "control_change"}]}]}