{"metadata": {"schema_version": "0.2", "title": "None", "source_filename": "688.mid", "source_format": "midi"}, "resolution": 12, "tempos": [{"time": 0, "qpm": 70.00007000007}, {"time": 572, "qpm": 69.80006933473554}, {"time": 708, "qpm": 70.00007000007}, {"time": 2002, "qpm": 69.50010888350391}, {"time": 2064, "qpm": 70.00007000007}], "time_signatures": [{"time": 0, "numerator": 1, "denominator": 4}], "tracks": [{"program": 4, "is_drum": false, "name": "MELODY", "notes": [{"time": 326, "pitch": 69, "duration": 2, "velocity": 86}, {"time": 329, "pitch": 71, "duration": 2, "velocity": 83}, {"time": 332, "pitch": 72, "duration": 2, "velocity": 85}, {"time": 335, "pitch": 71, "duration": 2, "velocity": 74}, {"time": 338, "pitch": 72, "duration": 2, "velocity": 79}, {"time": 341, "pitch": 71, "duration": 2, "velocity": 85}, {"time": 344, "pitch": 69, "duration": 5, "velocity": 84}, {"time": 350, "pitch": 76, "duration": 2, "velocity": 84}, {"time": 353, "pitch": 74, "duration": 14, "velocity": 86}, {"time": 374, "pitch": 69, "duration": 2, "velocity": 85}, {"time": 377, "pitch": 71, "duration": 2, "velocity": 82}, {"time": 380, "pitch": 72, "duration": 2, "velocity": 84}, {"time": 383, "pitch": 71, "duration": 2, "velocity": 83}, {"time": 386, "pitch": 72, "duration": 2, "velocity": 84}, {"time": 389, "pitch": 71, "duration": 2, "velocity": 84}, {"time": 392, "pitch": 69, "duration": 3, "velocity": 86}, {"time": 398, "pitch": 71, "duration": 2, "velocity": 83}, {"time": 401, "pitch": 64, "duration": 8, "velocity": 86}, {"time": 422, "pitch": 69, "duration": 2, "velocity": 83}, {"time": 425, "pitch": 71, "duration": 2, "velocity": 83}, {"time": 428, "pitch": 72, "duration": 2, "velocity": 83}, {"time": 431, "pitch": 71, "duration": 2, "velocity": 83}, {"time": 434, "pitch": 72, "duration": 2, "velocity": 81}, {"time": 437, "pitch": 71, "duration": 3, "velocity": 84}, {"time": 440, "pitch": 69, "duration": 3, "velocity": 84}, {"time": 446, "pitch": 76, "duration": 2, "velocity": 86}, {"time": 449, "pitch": 79, "duration": 6, "velocity": 83}, {"time": 470, "pitch": 76, "duration": 2, "velocity": 83}, {"time": 473, "pitch": 76, "duration": 2, "velocity": 82}, {"time": 476, "pitch": 74, "duration": 2, "velocity": 88}, {"time": 479, "pitch": 72, "duration": 2, "velocity": 84}, {"time": 482, "pitch": 74, "duration": 2, "velocity": 86}, {"time": 485, "pitch": 72, "duration": 1, "velocity": 73}, {"time": 488, "pitch": 74, "duration": 4, "velocity": 84}, {"time": 494, "pitch": 72, "duration": 2, "velocity": 80}, {"time": 497, "pitch": 71, "duration": 17, "velocity": 83}, {"time": 518, "pitch": 69, "duration": 2, "velocity": 78}, {"time": 521, "pitch": 71, "duration": 2, "velocity": 83}, {"time": 524, "pitch": 72, "duration": 2, "velocity": 79}, {"time": 527, "pitch": 71, "duration": 2, "velocity": 80}, {"time": 530, "pitch": 72, "duration": 2, "velocity": 83}, {"time": 533, "pitch": 71, "duration": 2, "velocity": 84}, {"time": 536, "pitch": 69, "duration": 4, "velocity": 84}, {"time": 542, "pitch": 76, "duration": 2, "velocity": 85}, {"time": 545, "pitch": 74, "duration": 16, "velocity": 85}, {"time": 566, "pitch": 69, "duration": 2, "velocity": 85}, {"time": 569, "pitch": 71, "duration": 2, "velocity": 83}, {"time": 572, "pitch": 72, "duration": 2, "velocity": 83}, {"time": 575, "pitch": 71, "duration": 2, "velocity": 83}, {"time": 578, "pitch": 72, "duration": 2, "velocity": 76}, {"time": 581, "pitch": 71, "duration": 2, "velocity": 82}, {"time": 584, "pitch": 69, "duration": 4, "velocity": 85}, {"time": 590, "pitch": 71, "duration": 2, "velocity": 81}, {"time": 593, "pitch": 64, "duration": 16, "velocity": 82}, {"time": 614, "pitch": 69, "duration": 2, "velocity": 83}, {"time": 617, "pitch": 71, "duration": 2, "velocity": 83}, {"time": 620, "pitch": 72, "duration": 2, "velocity": 81}, {"time": 623, "pitch": 71, "duration": 2, "velocity": 83}, {"time": 626, "pitch": 72, "duration": 3, "velocity": 81}, {"time": 629, "pitch": 71, "duration": 2, "velocity": 83}, {"time": 632, "pitch": 69, "duration": 4, "velocity": 84}, {"time": 638, "pitch": 76, "duration": 2, "velocity": 86}, {"time": 641, "pitch": 79, "duration": 12, "velocity": 82}, {"time": 659, "pitch": 76, "duration": 2, "velocity": 88}, {"time": 662, "pitch": 76, "duration": 2, "velocity": 83}, {"time": 665, "pitch": 79, "duration": 3, "velocity": 82}, {"time": 668, "pitch": 78, "duration": 2, "velocity": 98}, {"time": 671, "pitch": 78, "duration": 2, "velocity": 76}, {"time": 674, "pitch": 78, "duration": 2, "velocity": 82}, {"time": 677, "pitch": 78, "duration": 5, "velocity": 86}, {"time": 683, "pitch": 76, "duration": 2, "velocity": 87}, {"time": 686, "pitch": 78, "duration": 2, "velocity": 85}, {"time": 689, "pitch": 78, "duration": 5, "velocity": 82}, {"time": 695, "pitch": 76, "duration": 11, "velocity": 86}, {"time": 710, "pitch": 76, "duration": 2, "velocity": 87}, {"time": 713, "pitch": 76, "duration": 2, "velocity": 86}, {"time": 716, "pitch": 81, "duration": 2, "velocity": 83}, {"time": 719, "pitch": 79, "duration": 2, "velocity": 77}, {"time": 722, "pitch": 81, "duration": 2, "velocity": 84}, {"time": 725, "pitch": 79, "duration": 2, "velocity": 86}, {"time": 728, "pitch": 77, "duration": 4, "velocity": 84}, {"time": 734, "pitch": 81, "duration": 2, "velocity": 83}, {"time": 737, "pitch": 79, "duration": 15, "velocity": 83}, {"time": 755, "pitch": 76, "duration": 2, "velocity": 85}, {"time": 758, "pitch": 76, "duration": 2, "velocity": 85}, {"time": 761, "pitch": 76, "duration": 2, "velocity": 84}, {"time": 764, "pitch": 78, "duration": 2, "velocity": 83}, {"time": 767, "pitch": 78, "duration": 2, "velocity": 85}, {"time": 770, "pitch": 78, "duration": 2, "velocity": 88}, {"time": 773, "pitch": 76, "duration": 2, "velocity": 83}, {"time": 776, "pitch": 78, "duration": 2, "velocity": 91}, {"time": 779, "pitch": 76, "duration": 2, "velocity": 87}, {"time": 782, "pitch": 74, "duration": 2, "velocity": 84}, {"time": 785, "pitch": 78, "duration": 5, "velocity": 85}, {"time": 791, "pitch": 76, "duration": 9, "velocity": 86}, {"time": 806, "pitch": 76, "duration": 2, "velocity": 89}, {"time": 809, "pitch": 76, "duration": 2, "velocity": 84}, {"time": 812, "pitch": 81, "duration": 2, "velocity": 83}, {"time": 815, "pitch": 79, "duration": 2, "velocity": 88}, {"time": 818, "pitch": 81, "duration": 2, "velocity": 86}, {"time": 821, "pitch": 79, "duration": 2, "velocity": 86}, {"time": 824, "pitch": 77, "duration": 4, "velocity": 88}, {"time": 830, "pitch": 81, "duration": 2, "velocity": 86}, {"time": 833, "pitch": 79, "duration": 13, "velocity": 88}, {"time": 854, "pitch": 76, "duration": 2, "velocity": 85}, {"time": 857, "pitch": 76, "duration": 2, "velocity": 87}, {"time": 860, "pitch": 74, "duration": 4, "velocity": 84}, {"time": 866, "pitch": 74, "duration": 4, "velocity": 89}, {"time": 872, "pitch": 74, "duration": 5, "velocity": 88}, {"time": 878, "pitch": 72, "duration": 5, "velocity": 84}, {"time": 884, "pitch": 71, "duration": 9, "velocity": 84}, {"time": 896, "pitch": 76, "duration": 5, "velocity": 84}, {"time": 902, "pitch": 74, "duration": 4, "velocity": 86}, {"time": 908, "pitch": 72, "duration": 6, "velocity": 86}, {"time": 914, "pitch": 69, "duration": 5, "velocity": 85}, {"time": 920, "pitch": 72, "duration": 5, "velocity": 85}, {"time": 926, "pitch": 74, "duration": 4, "velocity": 86}, {"time": 932, "pitch": 76, "duration": 5, "velocity": 83}, {"time": 938, "pitch": 79, "duration": 6, "velocity": 84}, {"time": 944, "pitch": 76, "duration": 5, "velocity": 86}, {"time": 950, "pitch": 74, "duration": 5, "velocity": 87}, {"time": 956, "pitch": 72, "duration": 5, "velocity": 86}, {"time": 962, "pitch": 69, "duration": 4, "velocity": 84}, {"time": 968, "pitch": 69, "duration": 5, "velocity": 82}, {"time": 974, "pitch": 67, "duration": 5, "velocity": 84}, {"time": 980, "pitch": 64, "duration": 10, "velocity": 93}, {"time": 998, "pitch": 72, "duration": 2, "velocity": 84}, {"time": 1001, "pitch": 71, "duration": 3, "velocity": 86}, {"time": 1004, "pitch": 69, "duration": 5, "velocity": 85}, {"time": 1010, "pitch": 67, "duration": 4, "velocity": 83}, {"time": 1016, "pitch": 69, "duration": 5, "velocity": 84}, {"time": 1022, "pitch": 72, "duration": 5, "velocity": 84}, {"time": 1028, "pitch": 72, "duration": 5, "velocity": 86}, {"time": 1034, "pitch": 79, "duration": 4, "velocity": 85}, {"time": 1040, "pitch": 76, "duration": 5, "velocity": 83}, {"time": 1046, "pitch": 76, "duration": 3, "velocity": 86}, {"time": 1049, "pitch": 74, "duration": 2, "velocity": 78}, {"time": 1052, "pitch": 72, "duration": 5, "velocity": 86}, {"time": 1058, "pitch": 72, "duration": 5, "velocity": 83}, {"time": 1064, "pitch": 72, "duration": 5, "velocity": 84}, {"time": 1070, "pitch": 69, "duration": 5, "velocity": 83}, {"time": 1076, "pitch": 71, "duration": 18, "velocity": 84}, {"time": 1094, "pitch": 76, "duration": 2, "velocity": 86}, {"time": 1097, "pitch": 74, "duration": 2, "velocity": 85}, {"time": 1100, "pitch": 76, "duration": 6, "velocity": 86}, {"time": 1106, "pitch": 74, "duration": 5, "velocity": 86}, {"time": 1112, "pitch": 76, "duration": 5, "velocity": 83}, {"time": 1118, "pitch": 79, "duration": 5, "velocity": 86}, {"time": 1124, "pitch": 81, "duration": 5, "velocity": 83}, {"time": 1130, "pitch": 79, "duration": 5, "velocity": 83}, {"time": 1136, "pitch": 79, "duration": 3, "velocity": 83}, {"time": 1139, "pitch": 79, "duration": 4, "velocity": 84}, {"time": 1145, "pitch": 76, "duration": 4, "velocity": 83}, {"time": 1148, "pitch": 81, "duration": 4, "velocity": 88}, {"time": 1151, "pitch": 79, "duration": 4, "velocity": 86}, {"time": 1157, "pitch": 77, "duration": 5, "velocity": 84}, {"time": 1160, "pitch": 79, "duration": 5, "velocity": 83}, {"time": 1166, "pitch": 77, "duration": 5, "velocity": 83}, {"time": 1172, "pitch": 76, "duration": 14, "velocity": 89}, {"time": 1190, "pitch": 74, "duration": 3, "velocity": 89}, {"time": 1193, "pitch": 76, "duration": 2, "velocity": 84}, {"time": 1196, "pitch": 77, "duration": 5, "velocity": 84}, {"time": 1202, "pitch": 76, "duration": 5, "velocity": 89}, {"time": 1208, "pitch": 74, "duration": 7, "velocity": 93}, {"time": 1217, "pitch": 69, "duration": 2, "velocity": 84}, {"time": 1220, "pitch": 76, "duration": 5, "velocity": 86}, {"time": 1226, "pitch": 74, "duration": 3, "velocity": 89}, {"time": 1229, "pitch": 72, "duration": 5, "velocity": 87}, {"time": 1235, "pitch": 72, "duration": 2, "velocity": 82}, {"time": 1238, "pitch": 72, "duration": 2, "velocity": 83}, {"time": 1241, "pitch": 72, "duration": 2, "velocity": 84}, {"time": 1244, "pitch": 71, "duration": 2, "velocity": 85}, {"time": 1247, "pitch": 71, "duration": 5, "velocity": 86}, {"time": 1253, "pitch": 71, "duration": 2, "velocity": 84}, {"time": 1256, "pitch": 71, "duration": 3, "velocity": 88}, {"time": 1259, "pitch": 71, "duration": 3, "velocity": 88}, {"time": 1265, "pitch": 69, "duration": 3, "velocity": 86}, {"time": 1268, "pitch": 71, "duration": 16, "velocity": 88}, {"time": 1502, "pitch": 69, "duration": 2, "velocity": 86}, {"time": 1505, "pitch": 71, "duration": 2, "velocity": 83}, {"time": 1508, "pitch": 72, "duration": 2, "velocity": 85}, {"time": 1511, "pitch": 71, "duration": 2, "velocity": 74}, {"time": 1514, "pitch": 72, "duration": 2, "velocity": 79}, {"time": 1517, "pitch": 71, "duration": 2, "velocity": 85}, {"time": 1520, "pitch": 69, "duration": 5, "velocity": 84}, {"time": 1526, "pitch": 76, "duration": 2, "velocity": 84}, {"time": 1529, "pitch": 74, "duration": 14, "velocity": 86}, {"time": 1550, "pitch": 69, "duration": 2, "velocity": 85}, {"time": 1553, "pitch": 71, "duration": 2, "velocity": 82}, {"time": 1556, "pitch": 72, "duration": 2, "velocity": 84}, {"time": 1559, "pitch": 71, "duration": 2, "velocity": 83}, {"time": 1562, "pitch": 72, "duration": 2, "velocity": 84}, {"time": 1565, "pitch": 71, "duration": 2, "velocity": 84}, {"time": 1568, "pitch": 69, "duration": 3, "velocity": 86}, {"time": 1574, "pitch": 71, "duration": 2, "velocity": 83}, {"time": 1577, "pitch": 64, "duration": 8, "velocity": 86}, {"time": 1598, "pitch": 69, "duration": 2, "velocity": 83}, {"time": 1601, "pitch": 71, "duration": 2, "velocity": 83}, {"time": 1604, "pitch": 72, "duration": 2, "velocity": 83}, {"time": 1607, "pitch": 71, "duration": 2, "velocity": 83}, {"time": 1610, "pitch": 72, "duration": 2, "velocity": 81}, {"time": 1613, "pitch": 71, "duration": 3, "velocity": 84}, {"time": 1616, "pitch": 69, "duration": 3, "velocity": 84}, {"time": 1622, "pitch": 76, "duration": 2, "velocity": 86}, {"time": 1625, "pitch": 79, "duration": 6, "velocity": 83}, {"time": 1646, "pitch": 76, "duration": 2, "velocity": 83}, {"time": 1649, "pitch": 76, "duration": 2, "velocity": 82}, {"time": 1652, "pitch": 74, "duration": 2, "velocity": 88}, {"time": 1655, "pitch": 72, "duration": 2, "velocity": 84}, {"time": 1658, "pitch": 74, "duration": 2, "velocity": 86}, {"time": 1661, "pitch": 72, "duration": 1, "velocity": 73}, {"time": 1664, "pitch": 74, "duration": 4, "velocity": 84}, {"time": 1670, "pitch": 72, "duration": 2, "velocity": 80}, {"time": 1673, "pitch": 71, "duration": 17, "velocity": 83}, {"time": 1694, "pitch": 69, "duration": 2, "velocity": 78}, {"time": 1697, "pitch": 71, "duration": 2, "velocity": 83}, {"time": 1700, "pitch": 72, "duration": 2, "velocity": 79}, {"time": 1703, "pitch": 71, "duration": 2, "velocity": 80}, {"time": 1706, "pitch": 72, "duration": 2, "velocity": 83}, {"time": 1709, "pitch": 71, "duration": 2, "velocity": 84}, {"time": 1712, "pitch": 69, "duration": 4, "velocity": 84}, {"time": 1718, "pitch": 76, "duration": 2, "velocity": 85}, {"time": 1721, "pitch": 74, "duration": 16, "velocity": 85}, {"time": 1742, "pitch": 69, "duration": 2, "velocity": 85}, {"time": 1745, "pitch": 71, "duration": 2, "velocity": 83}, {"time": 1748, "pitch": 72, "duration": 2, "velocity": 83}, {"time": 1751, "pitch": 71, "duration": 2, "velocity": 83}, {"time": 1754, "pitch": 72, "duration": 2, "velocity": 76}, {"time": 1757, "pitch": 71, "duration": 2, "velocity": 82}, {"time": 1760, "pitch": 69, "duration": 4, "velocity": 85}, {"time": 1766, "pitch": 71, "duration": 2, "velocity": 81}, {"time": 1769, "pitch": 64, "duration": 16, "velocity": 82}, {"time": 1790, "pitch": 69, "duration": 2, "velocity": 83}, {"time": 1793, "pitch": 71, "duration": 2, "velocity": 83}, {"time": 1796, "pitch": 72, "duration": 2, "velocity": 81}, {"time": 1799, "pitch": 71, "duration": 2, "velocity": 83}, {"time": 1802, "pitch": 72, "duration": 3, "velocity": 81}, {"time": 1805, "pitch": 71, "duration": 2, "velocity": 83}, {"time": 1808, "pitch": 69, "duration": 4, "velocity": 84}, {"time": 1814, "pitch": 76, "duration": 2, "velocity": 86}, {"time": 1817, "pitch": 79, "duration": 12, "velocity": 82}, {"time": 1835, "pitch": 76, "duration": 2, "velocity": 88}, {"time": 1838, "pitch": 76, "duration": 2, "velocity": 83}, {"time": 1841, "pitch": 79, "duration": 3, "velocity": 82}, {"time": 1844, "pitch": 78, "duration": 2, "velocity": 98}, {"time": 1847, "pitch": 78, "duration": 2, "velocity": 76}, {"time": 1850, "pitch": 78, "duration": 2, "velocity": 82}, {"time": 1853, "pitch": 78, "duration": 5, "velocity": 86}, {"time": 1859, "pitch": 76, "duration": 2, "velocity": 87}, {"time": 1862, "pitch": 78, "duration": 2, "velocity": 85}, {"time": 1865, "pitch": 78, "duration": 5, "velocity": 82}, {"time": 1871, "pitch": 76, "duration": 11, "velocity": 86}, {"time": 1886, "pitch": 76, "duration": 2, "velocity": 87}, {"time": 1889, "pitch": 76, "duration": 2, "velocity": 86}, {"time": 1892, "pitch": 81, "duration": 2, "velocity": 83}, {"time": 1895, "pitch": 79, "duration": 2, "velocity": 77}, {"time": 1898, "pitch": 81, "duration": 2, "velocity": 84}, {"time": 1901, "pitch": 79, "duration": 2, "velocity": 86}, {"time": 1904, "pitch": 77, "duration": 4, "velocity": 84}, {"time": 1910, "pitch": 81, "duration": 2, "velocity": 83}, {"time": 1913, "pitch": 79, "duration": 15, "velocity": 83}, {"time": 1931, "pitch": 76, "duration": 2, "velocity": 85}, {"time": 1934, "pitch": 76, "duration": 2, "velocity": 85}, {"time": 1937, "pitch": 76, "duration": 2, "velocity": 84}, {"time": 1940, "pitch": 78, "duration": 2, "velocity": 83}, {"time": 1943, "pitch": 78, "duration": 2, "velocity": 85}, {"time": 1946, "pitch": 78, "duration": 2, "velocity": 88}, {"time": 1949, "pitch": 76, "duration": 2, "velocity": 83}, {"time": 1952, "pitch": 78, "duration": 2, "velocity": 91}, {"time": 1955, "pitch": 76, "duration": 2, "velocity": 87}, {"time": 1958, "pitch": 74, "duration": 2, "velocity": 84}, {"time": 1961, "pitch": 78, "duration": 5, "velocity": 85}, {"time": 1967, "pitch": 76, "duration": 9, "velocity": 86}, {"time": 1982, "pitch": 76, "duration": 2, "velocity": 89}, {"time": 1985, "pitch": 76, "duration": 2, "velocity": 84}, {"time": 1988, "pitch": 81, "duration": 2, "velocity": 83}, {"time": 1991, "pitch": 79, "duration": 2, "velocity": 88}, {"time": 1994, "pitch": 81, "duration": 2, "velocity": 86}, {"time": 1997, "pitch": 79, "duration": 2, "velocity": 86}, {"time": 2000, "pitch": 77, "duration": 4, "velocity": 88}, {"time": 2006, "pitch": 81, "duration": 2, "velocity": 86}, {"time": 2009, "pitch": 79, "duration": 13, "velocity": 88}, {"time": 2030, "pitch": 76, "duration": 2, "velocity": 85}, {"time": 2033, "pitch": 76, "duration": 2, "velocity": 87}, {"time": 2036, "pitch": 74, "duration": 4, "velocity": 84}, {"time": 2042, "pitch": 74, "duration": 4, "velocity": 89}, {"time": 2048, "pitch": 74, "duration": 5, "velocity": 88}, {"time": 2054, "pitch": 72, "duration": 5, "velocity": 84}, {"time": 2060, "pitch": 71, "duration": 9, "velocity": 84}, {"time": 2072, "pitch": 76, "duration": 5, "velocity": 84}, {"time": 2078, "pitch": 74, "duration": 4, "velocity": 86}, {"time": 2084, "pitch": 72, "duration": 6, "velocity": 86}, {"time": 2090, "pitch": 69, "duration": 5, "velocity": 85}, {"time": 2096, "pitch": 72, "duration": 5, "velocity": 85}, {"time": 2102, "pitch": 74, "duration": 4, "velocity": 86}, {"time": 2108, "pitch": 76, "duration": 5, "velocity": 83}, {"time": 2114, "pitch": 79, "duration": 6, "velocity": 84}, {"time": 2120, "pitch": 76, "duration": 5, "velocity": 86}, {"time": 2126, "pitch": 74, "duration": 5, "velocity": 87}, {"time": 2132, "pitch": 72, "duration": 5, "velocity": 86}, {"time": 2138, "pitch": 69, "duration": 4, "velocity": 84}, {"time": 2144, "pitch": 69, "duration": 5, "velocity": 82}, {"time": 2150, "pitch": 67, "duration": 5, "velocity": 84}, {"time": 2156, "pitch": 64, "duration": 10, "velocity": 93}, {"time": 2174, "pitch": 72, "duration": 2, "velocity": 84}, {"time": 2177, "pitch": 71, "duration": 3, "velocity": 86}, {"time": 2180, "pitch": 69, "duration": 5, "velocity": 85}, {"time": 2186, "pitch": 67, "duration": 4, "velocity": 83}, {"time": 2192, "pitch": 69, "duration": 5, "velocity": 84}, {"time": 2198, "pitch": 72, "duration": 5, "velocity": 84}, {"time": 2204, "pitch": 72, "duration": 5, "velocity": 86}, {"time": 2210, "pitch": 79, "duration": 4, "velocity": 85}, {"time": 2216, "pitch": 76, "duration": 5, "velocity": 83}, {"time": 2222, "pitch": 76, "duration": 3, "velocity": 86}, {"time": 2225, "pitch": 74, "duration": 2, "velocity": 78}, {"time": 2228, "pitch": 72, "duration": 5, "velocity": 86}, {"time": 2234, "pitch": 72, "duration": 5, "velocity": 83}, {"time": 2240, "pitch": 72, "duration": 5, "velocity": 84}, {"time": 2246, "pitch": 69, "duration": 5, "velocity": 83}, {"time": 2252, "pitch": 71, "duration": 18, "velocity": 84}, {"time": 2270, "pitch": 76, "duration": 2, "velocity": 86}, {"time": 2273, "pitch": 74, "duration": 2, "velocity": 85}, {"time": 2276, "pitch": 76, "duration": 6, "velocity": 86}, {"time": 2282, "pitch": 74, "duration": 5, "velocity": 86}, {"time": 2288, "pitch": 76, "duration": 5, "velocity": 83}, {"time": 2294, "pitch": 79, "duration": 5, "velocity": 86}, {"time": 2300, "pitch": 81, "duration": 5, "velocity": 83}, {"time": 2306, "pitch": 79, "duration": 5, "velocity": 83}, {"time": 2312, "pitch": 79, "duration": 3, "velocity": 83}, {"time": 2315, "pitch": 79, "duration": 4, "velocity": 84}, {"time": 2321, "pitch": 76, "duration": 4, "velocity": 83}, {"time": 2324, "pitch": 81, "duration": 4, "velocity": 88}, {"time": 2327, "pitch": 79, "duration": 4, "velocity": 86}, {"time": 2333, "pitch": 77, "duration": 5, "velocity": 84}, {"time": 2336, "pitch": 79, "duration": 5, "velocity": 83}, {"time": 2342, "pitch": 77, "duration": 5, "velocity": 83}, {"time": 2348, "pitch": 76, "duration": 14, "velocity": 89}, {"time": 2366, "pitch": 74, "duration": 3, "velocity": 89}, {"time": 2369, "pitch": 76, "duration": 2, "velocity": 84}, {"time": 2372, "pitch": 77, "duration": 5, "velocity": 84}, {"time": 2378, "pitch": 76, "duration": 5, "velocity": 89}, {"time": 2384, "pitch": 74, "duration": 7, "velocity": 93}, {"time": 2393, "pitch": 69, "duration": 2, "velocity": 84}, {"time": 2396, "pitch": 76, "duration": 5, "velocity": 86}, {"time": 2402, "pitch": 74, "duration": 3, "velocity": 89}, {"time": 2405, "pitch": 72, "duration": 5, "velocity": 87}, {"time": 2411, "pitch": 72, "duration": 2, "velocity": 82}, {"time": 2414, "pitch": 72, "duration": 2, "velocity": 83}, {"time": 2417, "pitch": 72, "duration": 2, "velocity": 84}, {"time": 2420, "pitch": 71, "duration": 2, "velocity": 85}, {"time": 2423, "pitch": 71, "duration": 5, "velocity": 86}, {"time": 2429, "pitch": 71, "duration": 2, "velocity": 84}, {"time": 2432, "pitch": 71, "duration": 3, "velocity": 88}, {"time": 2435, "pitch": 71, "duration": 3, "velocity": 88}, {"time": 2441, "pitch": 69, "duration": 3, "velocity": 86}, {"time": 2444, "pitch": 71, "duration": 16, "velocity": 88}, {"time": 2462, "pitch": 76, "duration": 5, "velocity": 84}, {"time": 2465, "pitch": 74, "duration": 3, "velocity": 86}, {"time": 2468, "pitch": 72, "duration": 6, "velocity": 86}, {"time": 2474, "pitch": 69, "duration": 5, "velocity": 85}, {"time": 2480, "pitch": 72, "duration": 5, "velocity": 85}, {"time": 2486, "pitch": 74, "duration": 4, "velocity": 86}, {"time": 2492, "pitch": 76, "duration": 5, "velocity": 83}, {"time": 2498, "pitch": 79, "duration": 6, "velocity": 84}, {"time": 2504, "pitch": 76, "duration": 5, "velocity": 86}, {"time": 2510, "pitch": 74, "duration": 5, "velocity": 87}, {"time": 2516, "pitch": 72, "duration": 5, "velocity": 86}, {"time": 2522, "pitch": 69, "duration": 4, "velocity": 84}, {"time": 2528, "pitch": 69, "duration": 5, "velocity": 82}, {"time": 2534, "pitch": 67, "duration": 5, "velocity": 84}, {"time": 2540, "pitch": 64, "duration": 10, "velocity": 93}, {"time": 2558, "pitch": 72, "duration": 2, "velocity": 84}, {"time": 2561, "pitch": 71, "duration": 3, "velocity": 86}, {"time": 2564, "pitch": 69, "duration": 5, "velocity": 85}, {"time": 2570, "pitch": 67, "duration": 4, "velocity": 83}, {"time": 2576, "pitch": 69, "duration": 5, "velocity": 84}, {"time": 2582, "pitch": 72, "duration": 5, "velocity": 84}, {"time": 2588, "pitch": 72, "duration": 5, "velocity": 86}, {"time": 2594, "pitch": 79, "duration": 4, "velocity": 85}, {"time": 2600, "pitch": 76, "duration": 5, "velocity": 83}, {"time": 2606, "pitch": 76, "duration": 3, "velocity": 86}, {"time": 2609, "pitch": 74, "duration": 2, "velocity": 78}, {"time": 2612, "pitch": 72, "duration": 5, "velocity": 86}, {"time": 2618, "pitch": 72, "duration": 5, "velocity": 83}, {"time": 2624, "pitch": 72, "duration": 5, "velocity": 84}, {"time": 2630, "pitch": 69, "duration": 5, "velocity": 83}, {"time": 2636, "pitch": 71, "duration": 18, "velocity": 84}, {"time": 2654, "pitch": 76, "duration": 2, "velocity": 86}, {"time": 2657, "pitch": 74, "duration": 2, "velocity": 85}, {"time": 2660, "pitch": 76, "duration": 6, "velocity": 86}, {"time": 2666, "pitch": 74, "duration": 5, "velocity": 86}, {"time": 2672, "pitch": 76, "duration": 5, "velocity": 83}, {"time": 2678, "pitch": 79, "duration": 5, "velocity": 86}, {"time": 2684, "pitch": 81, "duration": 5, "velocity": 83}, {"time": 2690, "pitch": 79, "duration": 5, "velocity": 83}, {"time": 2696, "pitch": 79, "duration": 3, "velocity": 83}, {"time": 2699, "pitch": 79, "duration": 4, "velocity": 84}, {"time": 2705, "pitch": 76, "duration": 4, "velocity": 83}, {"time": 2708, "pitch": 81, "duration": 4, "velocity": 88}, {"time": 2711, "pitch": 79, "duration": 4, "velocity": 86}, {"time": 2717, "pitch": 77, "duration": 5, "velocity": 84}, {"time": 2720, "pitch": 79, "duration": 5, "velocity": 83}, {"time": 2726, "pitch": 77, "duration": 5, "velocity": 83}, {"time": 2732, "pitch": 76, "duration": 14, "velocity": 89}, {"time": 2750, "pitch": 74, "duration": 3, "velocity": 89}, {"time": 2753, "pitch": 76, "duration": 2, "velocity": 84}, {"time": 2756, "pitch": 77, "duration": 5, "velocity": 84}, {"time": 2762, "pitch": 76, "duration": 5, "velocity": 89}, {"time": 2768, "pitch": 74, "duration": 7, "velocity": 93}, {"time": 2777, "pitch": 69, "duration": 2, "velocity": 84}, {"time": 2780, "pitch": 76, "duration": 5, "velocity": 86}, {"time": 2786, "pitch": 74, "duration": 3, "velocity": 89}, {"time": 2789, "pitch": 72, "duration": 5, "velocity": 87}, {"time": 2795, "pitch": 72, "duration": 2, "velocity": 82}, {"time": 2798, "pitch": 72, "duration": 2, "velocity": 83}, {"time": 2801, "pitch": 72, "duration": 2, "velocity": 84}, {"time": 2804, "pitch": 71, "duration": 2, "velocity": 85}, {"time": 2807, "pitch": 71, "duration": 5, "velocity": 86}, {"time": 2813, "pitch": 71, "duration": 2, "velocity": 84}, {"time": 2816, "pitch": 71, "duration": 3, "velocity": 88}, {"time": 2819, "pitch": 71, "duration": 3, "velocity": 88}, {"time": 2825, "pitch": 69, "duration": 3, "velocity": 86}, {"time": 2828, "pitch": 71, "duration": 12, "velocity": 88}, {"time": 2840, "pitch": 68, "duration": 5, "velocity": 86}, {"time": 2846, "pitch": 71, "duration": 5, "velocity": 87}, {"time": 2852, "pitch": 69, "duration": 21, "velocity": 89}]}, {"program": 0, "is_drum": false, "name": "PIANO", "notes": [{"time": 140, "pitch": 45, "duration": 20, "velocity": 83}, {"time": 143, "pitch": 52, "duration": 16, "velocity": 82}, {"time": 146, "pitch": 57, "duration": 18, "velocity": 80}, {"time": 149, "pitch": 64, "duration": 15, "velocity": 81}, {"time": 152, "pitch": 69, "duration": 12, "velocity": 81}, {"time": 164, "pitch": 40, "duration": 21, "velocity": 84}, {"time": 167, "pitch": 47, "duration": 16, "velocity": 78}, {"time": 170, "pitch": 52, "duration": 14, "velocity": 76}, {"time": 173, "pitch": 59, "duration": 13, "velocity": 77}, {"time": 176, "pitch": 64, "duration": 13, "velocity": 84}, {"time": 188, "pitch": 41, "duration": 21, "velocity": 82}, {"time": 191, "pitch": 48, "duration": 18, "velocity": 71}, {"time": 194, "pitch": 53, "duration": 10, "velocity": 74}, {"time": 197, "pitch": 60, "duration": 5, "velocity": 67}, {"time": 200, "pitch": 65, "duration": 4, "velocity": 72}, {"time": 203, "pitch": 60, "duration": 11, "velocity": 81}, {"time": 206, "pitch": 53, "duration": 8, "velocity": 73}, {"time": 212, "pitch": 40, "duration": 21, "velocity": 85}, {"time": 215, "pitch": 47, "duration": 19, "velocity": 72}, {"time": 218, "pitch": 52, "duration": 11, "velocity": 83}, {"time": 221, "pitch": 59, "duration": 4, "velocity": 78}, {"time": 224, "pitch": 64, "duration": 14, "velocity": 89}, {"time": 230, "pitch": 52, "duration": 5, "velocity": 83}, {"time": 236, "pitch": 45, "duration": 18, "velocity": 80}, {"time": 239, "pitch": 52, "duration": 15, "velocity": 73}, {"time": 242, "pitch": 57, "duration": 5, "velocity": 72}, {"time": 245, "pitch": 64, "duration": 10, "velocity": 81}, {"time": 248, "pitch": 57, "duration": 1, "velocity": 59}, {"time": 248, "pitch": 69, "duration": 13, "velocity": 83}, {"time": 254, "pitch": 57, "duration": 8, "velocity": 78}, {"time": 260, "pitch": 40, "duration": 21, "velocity": 84}, {"time": 263, "pitch": 47, "duration": 19, "velocity": 70}, {"time": 266, "pitch": 52, "duration": 7, "velocity": 80}, {"time": 269, "pitch": 59, "duration": 13, "velocity": 76}, {"time": 272, "pitch": 64, "duration": 12, "velocity": 83}, {"time": 278, "pitch": 52, "duration": 4, "velocity": 73}, {"time": 284, "pitch": 41, "duration": 19, "velocity": 83}, {"time": 287, "pitch": 48, "duration": 16, "velocity": 69}, {"time": 290, "pitch": 53, "duration": 6, "velocity": 79}, {"time": 293, "pitch": 60, "duration": 4, "velocity": 78}, {"time": 296, "pitch": 65, "duration": 12, "velocity": 82}, {"time": 302, "pitch": 53, "duration": 7, "velocity": 82}, {"time": 308, "pitch": 40, "duration": 24, "velocity": 84}, {"time": 311, "pitch": 47, "duration": 20, "velocity": 75}, {"time": 314, "pitch": 52, "duration": 4, "velocity": 83}, {"time": 317, "pitch": 59, "duration": 4, "velocity": 80}, {"time": 320, "pitch": 64, "duration": 12, "velocity": 85}, {"time": 326, "pitch": 52, "duration": 5, "velocity": 82}, {"time": 332, "pitch": 45, "duration": 20, "velocity": 83}, {"time": 335, "pitch": 52, "duration": 16, "velocity": 82}, {"time": 338, "pitch": 57, "duration": 18, "velocity": 80}, {"time": 341, "pitch": 64, "duration": 15, "velocity": 81}, {"time": 344, "pitch": 69, "duration": 12, "velocity": 81}, {"time": 356, "pitch": 40, "duration": 21, "velocity": 84}, {"time": 359, "pitch": 47, "duration": 16, "velocity": 78}, {"time": 362, "pitch": 52, "duration": 14, "velocity": 76}, {"time": 365, "pitch": 59, "duration": 13, "velocity": 77}, {"time": 368, "pitch": 64, "duration": 13, "velocity": 84}, {"time": 380, "pitch": 41, "duration": 21, "velocity": 82}, {"time": 383, "pitch": 48, "duration": 18, "velocity": 71}, {"time": 386, "pitch": 53, "duration": 10, "velocity": 74}, {"time": 389, "pitch": 60, "duration": 5, "velocity": 67}, {"time": 392, "pitch": 65, "duration": 4, "velocity": 72}, {"time": 395, "pitch": 60, "duration": 11, "velocity": 81}, {"time": 398, "pitch": 53, "duration": 8, "velocity": 73}, {"time": 404, "pitch": 40, "duration": 21, "velocity": 85}, {"time": 407, "pitch": 47, "duration": 19, "velocity": 72}, {"time": 410, "pitch": 52, "duration": 11, "velocity": 83}, {"time": 413, "pitch": 59, "duration": 4, "velocity": 78}, {"time": 416, "pitch": 64, "duration": 14, "velocity": 89}, {"time": 422, "pitch": 52, "duration": 5, "velocity": 83}, {"time": 428, "pitch": 45, "duration": 18, "velocity": 80}, {"time": 431, "pitch": 52, "duration": 15, "velocity": 73}, {"time": 434, "pitch": 57, "duration": 5, "velocity": 72}, {"time": 437, "pitch": 64, "duration": 10, "velocity": 81}, {"time": 440, "pitch": 57, "duration": 1, "velocity": 59}, {"time": 440, "pitch": 69, "duration": 13, "velocity": 83}, {"time": 446, "pitch": 57, "duration": 8, "velocity": 78}, {"time": 452, "pitch": 43, "duration": 24, "velocity": 83}, {"time": 455, "pitch": 50, "duration": 20, "velocity": 77}, {"time": 458, "pitch": 55, "duration": 7, "velocity": 86}, {"time": 461, "pitch": 62, "duration": 5, "velocity": 83}, {"time": 464, "pitch": 67, "duration": 12, "velocity": 83}, {"time": 470, "pitch": 55, "duration": 6, "velocity": 82}, {"time": 473, "pitch": 62, "duration": 3, "velocity": 76}, {"time": 476, "pitch": 41, "duration": 19, "velocity": 83}, {"time": 479, "pitch": 48, "duration": 16, "velocity": 69}, {"time": 482, "pitch": 53, "duration": 6, "velocity": 79}, {"time": 485, "pitch": 60, "duration": 4, "velocity": 78}, {"time": 488, "pitch": 65, "duration": 12, "velocity": 82}, {"time": 494, "pitch": 53, "duration": 7, "velocity": 82}, {"time": 500, "pitch": 40, "duration": 24, "velocity": 84}, {"time": 503, "pitch": 47, "duration": 20, "velocity": 75}, {"time": 506, "pitch": 52, "duration": 4, "velocity": 83}, {"time": 509, "pitch": 59, "duration": 4, "velocity": 80}, {"time": 512, "pitch": 64, "duration": 12, "velocity": 85}, {"time": 518, "pitch": 52, "duration": 5, "velocity": 82}, {"time": 524, "pitch": 45, "duration": 20, "velocity": 83}, {"time": 527, "pitch": 52, "duration": 16, "velocity": 82}, {"time": 530, "pitch": 57, "duration": 18, "velocity": 80}, {"time": 533, "pitch": 64, "duration": 15, "velocity": 81}, {"time": 536, "pitch": 69, "duration": 12, "velocity": 81}, {"time": 548, "pitch": 40, "duration": 21, "velocity": 84}, {"time": 551, "pitch": 47, "duration": 16, "velocity": 78}, {"time": 554, "pitch": 52, "duration": 14, "velocity": 76}, {"time": 557, "pitch": 59, "duration": 13, "velocity": 77}, {"time": 560, "pitch": 64, "duration": 13, "velocity": 84}, {"time": 572, "pitch": 41, "duration": 21, "velocity": 82}, {"time": 575, "pitch": 48, "duration": 18, "velocity": 71}, {"time": 578, "pitch": 53, "duration": 10, "velocity": 74}, {"time": 581, "pitch": 60, "duration": 5, "velocity": 67}, {"time": 584, "pitch": 65, "duration": 4, "velocity": 72}, {"time": 587, "pitch": 60, "duration": 11, "velocity": 81}, {"time": 590, "pitch": 53, "duration": 8, "velocity": 73}, {"time": 596, "pitch": 36, "duration": 24, "velocity": 82}, {"time": 599, "pitch": 43, "duration": 21, "velocity": 71}, {"time": 602, "pitch": 55, "duration": 7, "velocity": 82}, {"time": 605, "pitch": 64, "duration": 8, "velocity": 80}, {"time": 608, "pitch": 67, "duration": 12, "velocity": 81}, {"time": 611, "pitch": 55, "duration": 9, "velocity": 87}, {"time": 614, "pitch": 64, "duration": 5, "velocity": 81}, {"time": 620, "pitch": 45, "duration": 18, "velocity": 80}, {"time": 623, "pitch": 52, "duration": 15, "velocity": 73}, {"time": 626, "pitch": 57, "duration": 5, "velocity": 72}, {"time": 629, "pitch": 64, "duration": 10, "velocity": 81}, {"time": 632, "pitch": 57, "duration": 1, "velocity": 59}, {"time": 632, "pitch": 69, "duration": 13, "velocity": 83}, {"time": 638, "pitch": 57, "duration": 8, "velocity": 78}, {"time": 644, "pitch": 43, "duration": 24, "velocity": 83}, {"time": 647, "pitch": 50, "duration": 20, "velocity": 77}, {"time": 650, "pitch": 55, "duration": 7, "velocity": 86}, {"time": 653, "pitch": 62, "duration": 5, "velocity": 83}, {"time": 656, "pitch": 67, "duration": 12, "velocity": 83}, {"time": 662, "pitch": 55, "duration": 6, "velocity": 82}, {"time": 665, "pitch": 62, "duration": 3, "velocity": 76}, {"time": 668, "pitch": 38, "duration": 20, "velocity": 86}, {"time": 671, "pitch": 45, "duration": 17, "velocity": 78}, {"time": 674, "pitch": 57, "duration": 7, "velocity": 77}, {"time": 677, "pitch": 62, "duration": 4, "velocity": 82}, {"time": 680, "pitch": 66, "duration": 12, "velocity": 93}, {"time": 686, "pitch": 57, "duration": 6, "velocity": 77}, {"time": 689, "pitch": 62, "duration": 4, "velocity": 76}, {"time": 692, "pitch": 40, "duration": 24, "velocity": 89}, {"time": 695, "pitch": 47, "duration": 21, "velocity": 75}, {"time": 698, "pitch": 52, "duration": 6, "velocity": 76}, {"time": 701, "pitch": 59, "duration": 4, "velocity": 82}, {"time": 704, "pitch": 64, "duration": 11, "velocity": 87}, {"time": 707, "pitch": 52, "duration": 4, "velocity": 87}, {"time": 710, "pitch": 59, "duration": 5, "velocity": 79}, {"time": 713, "pitch": 52, "duration": 3, "velocity": 82}, {"time": 716, "pitch": 41, "duration": 22, "velocity": 84}, {"time": 719, "pitch": 48, "duration": 19, "velocity": 79}, {"time": 722, "pitch": 53, "duration": 11, "velocity": 84}, {"time": 725, "pitch": 60, "duration": 15, "velocity": 82}, {"time": 728, "pitch": 65, "duration": 17, "velocity": 83}, {"time": 740, "pitch": 48, "duration": 20, "velocity": 88}, {"time": 743, "pitch": 55, "duration": 4, "velocity": 82}, {"time": 746, "pitch": 60, "duration": 5, "velocity": 80}, {"time": 749, "pitch": 55, "duration": 4, "velocity": 84}, {"time": 752, "pitch": 64, "duration": 8, "velocity": 86}, {"time": 755, "pitch": 55, "duration": 4, "velocity": 77}, {"time": 758, "pitch": 60, "duration": 3, "velocity": 72}, {"time": 764, "pitch": 38, "duration": 16, "velocity": 84}, {"time": 764, "pitch": 57, "duration": 4, "velocity": 75}, {"time": 764, "pitch": 62, "duration": 5, "velocity": 78}, {"time": 767, "pitch": 45, "duration": 12, "velocity": 70}, {"time": 770, "pitch": 57, "duration": 4, "velocity": 82}, {"time": 773, "pitch": 62, "duration": 4, "velocity": 75}, {"time": 776, "pitch": 66, "duration": 9, "velocity": 80}, {"time": 782, "pitch": 57, "duration": 4, "velocity": 74}, {"time": 788, "pitch": 40, "duration": 19, "velocity": 85}, {"time": 788, "pitch": 59, "duration": 4, "velocity": 71}, {"time": 788, "pitch": 64, "duration": 4, "velocity": 79}, {"time": 791, "pitch": 47, "duration": 11, "velocity": 73}, {"time": 794, "pitch": 59, "duration": 5, "velocity": 76}, {"time": 800, "pitch": 64, "duration": 3, "velocity": 85}, {"time": 803, "pitch": 59, "duration": 4, "velocity": 84}, {"time": 806, "pitch": 47, "duration": 3, "velocity": 82}, {"time": 809, "pitch": 59, "duration": 1, "velocity": 68}, {"time": 812, "pitch": 41, "duration": 20, "velocity": 83}, {"time": 815, "pitch": 48, "duration": 17, "velocity": 80}, {"time": 818, "pitch": 53, "duration": 10, "velocity": 83}, {"time": 821, "pitch": 57, "duration": 4, "velocity": 68}, {"time": 824, "pitch": 65, "duration": 13, "velocity": 84}, {"time": 830, "pitch": 53, "duration": 3, "velocity": 82}, {"time": 836, "pitch": 48, "duration": 19, "velocity": 86}, {"time": 836, "pitch": 55, "duration": 3, "velocity": 71}, {"time": 836, "pitch": 60, "duration": 4, "velocity": 75}, {"time": 839, "pitch": 55, "duration": 3, "velocity": 83}, {"time": 842, "pitch": 60, "duration": 4, "velocity": 75}, {"time": 845, "pitch": 55, "duration": 2, "velocity": 82}, {"time": 848, "pitch": 55, "duration": 4, "velocity": 82}, {"time": 848, "pitch": 64, "duration": 6, "velocity": 85}, {"time": 854, "pitch": 60, "duration": 2, "velocity": 78}, {"time": 860, "pitch": 38, "duration": 20, "velocity": 85}, {"time": 860, "pitch": 57, "duration": 3, "velocity": 76}, {"time": 860, "pitch": 62, "duration": 4, "velocity": 78}, {"time": 863, "pitch": 45, "duration": 17, "velocity": 77}, {"time": 866, "pitch": 57, "duration": 4, "velocity": 86}, {"time": 869, "pitch": 62, "duration": 4, "velocity": 77}, {"time": 872, "pitch": 66, "duration": 6, "velocity": 85}, {"time": 878, "pitch": 62, "duration": 2, "velocity": 80}, {"time": 884, "pitch": 40, "duration": 24, "velocity": 85}, {"time": 884, "pitch": 64, "duration": 4, "velocity": 78}, {"time": 884, "pitch": 68, "duration": 5, "velocity": 82}, {"time": 887, "pitch": 47, "duration": 21, "velocity": 73}, {"time": 890, "pitch": 64, "duration": 4, "velocity": 88}, {"time": 893, "pitch": 68, "duration": 2, "velocity": 83}, {"time": 896, "pitch": 64, "duration": 3, "velocity": 87}, {"time": 896, "pitch": 71, "duration": 6, "velocity": 83}, {"time": 902, "pitch": 64, "duration": 6, "velocity": 87}, {"time": 908, "pitch": 45, "duration": 16, "velocity": 83}, {"time": 908, "pitch": 57, "duration": 6, "velocity": 77}, {"time": 908, "pitch": 64, "duration": 6, "velocity": 82}, {"time": 914, "pitch": 52, "duration": 7, "velocity": 75}, {"time": 920, "pitch": 57, "duration": 3, "velocity": 76}, {"time": 920, "pitch": 60, "duration": 3, "velocity": 85}, {"time": 920, "pitch": 64, "duration": 4, "velocity": 85}, {"time": 923, "pitch": 52, "duration": 2, "velocity": 82}, {"time": 926, "pitch": 57, "duration": 3, "velocity": 82}, {"time": 932, "pitch": 40, "duration": 17, "velocity": 84}, {"time": 932, "pitch": 59, "duration": 4, "velocity": 79}, {"time": 932, "pitch": 64, "duration": 4, "velocity": 82}, {"time": 935, "pitch": 47, "duration": 12, "velocity": 71}, {"time": 938, "pitch": 59, "duration": 4, "velocity": 82}, {"time": 941, "pitch": 64, "duration": 2, "velocity": 76}, {"time": 944, "pitch": 59, "duration": 3, "velocity": 82}, {"time": 944, "pitch": 64, "duration": 6, "velocity": 83}, {"time": 944, "pitch": 67, "duration": 6, "velocity": 77}, {"time": 950, "pitch": 59, "duration": 2, "velocity": 87}, {"time": 956, "pitch": 41, "duration": 15, "velocity": 83}, {"time": 956, "pitch": 53, "duration": 7, "velocity": 78}, {"time": 956, "pitch": 57, "duration": 6, "velocity": 77}, {"time": 962, "pitch": 48, "duration": 7, "velocity": 74}, {"time": 968, "pitch": 53, "duration": 4, "velocity": 80}, {"time": 968, "pitch": 57, "duration": 3, "velocity": 84}, {"time": 968, "pitch": 60, "duration": 4, "velocity": 83}, {"time": 974, "pitch": 41, "duration": 2, "velocity": 82}, {"time": 980, "pitch": 48, "duration": 17, "velocity": 85}, {"time": 980, "pitch": 55, "duration": 2, "velocity": 80}, {"time": 980, "pitch": 60, "duration": 4, "velocity": 82}, {"time": 983, "pitch": 55, "duration": 4, "velocity": 80}, {"time": 986, "pitch": 60, "duration": 3, "velocity": 78}, {"time": 992, "pitch": 55, "duration": 4, "velocity": 84}, {"time": 992, "pitch": 64, "duration": 4, "velocity": 86}, {"time": 998, "pitch": 55, "duration": 2, "velocity": 83}, {"time": 998, "pitch": 60, "duration": 2, "velocity": 83}, {"time": 1004, "pitch": 50, "duration": 14, "velocity": 78}, {"time": 1004, "pitch": 57, "duration": 4, "velocity": 76}, {"time": 1004, "pitch": 62, "duration": 7, "velocity": 78}, {"time": 1010, "pitch": 57, "duration": 4, "velocity": 77}, {"time": 1016, "pitch": 57, "duration": 3, "velocity": 82}, {"time": 1016, "pitch": 62, "duration": 4, "velocity": 85}, {"time": 1016, "pitch": 65, "duration": 5, "velocity": 83}, {"time": 1019, "pitch": 50, "duration": 1, "velocity": 84}, {"time": 1022, "pitch": 57, "duration": 5, "velocity": 83}, {"time": 1025, "pitch": 62, "duration": 2, "velocity": 78}, {"time": 1028, "pitch": 45, "duration": 17, "velocity": 83}, {"time": 1028, "pitch": 57, "duration": 6, "velocity": 77}, {"time": 1028, "pitch": 60, "duration": 5, "velocity": 82}, {"time": 1034, "pitch": 52, "duration": 7, "velocity": 78}, {"time": 1040, "pitch": 57, "duration": 4, "velocity": 84}, {"time": 1040, "pitch": 64, "duration": 3, "velocity": 87}, {"time": 1043, "pitch": 52, "duration": 2, "velocity": 84}, {"time": 1046, "pitch": 57, "duration": 2, "velocity": 83}, {"time": 1052, "pitch": 41, "duration": 16, "velocity": 78}, {"time": 1052, "pitch": 53, "duration": 7, "velocity": 77}, {"time": 1052, "pitch": 60, "duration": 10, "velocity": 78}, {"time": 1058, "pitch": 48, "duration": 8, "velocity": 80}, {"time": 1061, "pitch": 53, "duration": 2, "velocity": 82}, {"time": 1064, "pitch": 53, "duration": 5, "velocity": 84}, {"time": 1064, "pitch": 57, "duration": 4, "velocity": 87}, {"time": 1064, "pitch": 60, "duration": 6, "velocity": 85}, {"time": 1070, "pitch": 41, "duration": 1, "velocity": 43}, {"time": 1070, "pitch": 48, "duration": 2, "velocity": 77}, {"time": 1076, "pitch": 40, "duration": 24, "velocity": 84}, {"time": 1076, "pitch": 59, "duration": 6, "velocity": 83}, {"time": 1076, "pitch": 64, "duration": 8, "velocity": 85}, {"time": 1082, "pitch": 47, "duration": 7, "velocity": 78}, {"time": 1085, "pitch": 59, "duration": 2, "velocity": 80}, {"time": 1088, "pitch": 59, "duration": 4, "velocity": 83}, {"time": 1088, "pitch": 64, "duration": 7, "velocity": 86}, {"time": 1088, "pitch": 68, "duration": 11, "velocity": 84}, {"time": 1091, "pitch": 47, "duration": 10, "velocity": 77}, {"time": 1094, "pitch": 59, "duration": 6, "velocity": 82}, {"time": 1097, "pitch": 64, "duration": 3, "velocity": 80}, {"time": 1100, "pitch": 45, "duration": 16, "velocity": 83}, {"time": 1100, "pitch": 57, "duration": 6, "velocity": 77}, {"time": 1100, "pitch": 64, "duration": 6, "velocity": 82}, {"time": 1106, "pitch": 52, "duration": 7, "velocity": 75}, {"time": 1112, "pitch": 57, "duration": 3, "velocity": 76}, {"time": 1112, "pitch": 60, "duration": 3, "velocity": 85}, {"time": 1112, "pitch": 64, "duration": 4, "velocity": 85}, {"time": 1115, "pitch": 52, "duration": 2, "velocity": 82}, {"time": 1118, "pitch": 57, "duration": 3, "velocity": 82}, {"time": 1124, "pitch": 40, "duration": 17, "velocity": 84}, {"time": 1124, "pitch": 59, "duration": 4, "velocity": 79}, {"time": 1124, "pitch": 64, "duration": 4, "velocity": 82}, {"time": 1127, "pitch": 47, "duration": 12, "velocity": 71}, {"time": 1130, "pitch": 59, "duration": 4, "velocity": 82}, {"time": 1133, "pitch": 64, "duration": 2, "velocity": 76}, {"time": 1136, "pitch": 59, "duration": 3, "velocity": 82}, {"time": 1136, "pitch": 64, "duration": 6, "velocity": 83}, {"time": 1136, "pitch": 67, "duration": 6, "velocity": 77}, {"time": 1142, "pitch": 59, "duration": 2, "velocity": 87}, {"time": 1148, "pitch": 41, "duration": 15, "velocity": 83}, {"time": 1148, "pitch": 53, "duration": 7, "velocity": 78}, {"time": 1148, "pitch": 57, "duration": 6, "velocity": 77}, {"time": 1154, "pitch": 48, "duration": 7, "velocity": 74}, {"time": 1160, "pitch": 53, "duration": 4, "velocity": 80}, {"time": 1160, "pitch": 57, "duration": 3, "velocity": 84}, {"time": 1160, "pitch": 60, "duration": 4, "velocity": 83}, {"time": 1166, "pitch": 41, "duration": 2, "velocity": 82}, {"time": 1172, "pitch": 48, "duration": 17, "velocity": 85}, {"time": 1172, "pitch": 55, "duration": 2, "velocity": 80}, {"time": 1172, "pitch": 60, "duration": 4, "velocity": 82}, {"time": 1175, "pitch": 55, "duration": 4, "velocity": 80}, {"time": 1178, "pitch": 60, "duration": 3, "velocity": 78}, {"time": 1184, "pitch": 55, "duration": 4, "velocity": 84}, {"time": 1184, "pitch": 64, "duration": 4, "velocity": 86}, {"time": 1190, "pitch": 55, "duration": 2, "velocity": 83}, {"time": 1190, "pitch": 60, "duration": 2, "velocity": 83}, {"time": 1196, "pitch": 50, "duration": 14, "velocity": 78}, {"time": 1196, "pitch": 57, "duration": 4, "velocity": 76}, {"time": 1196, "pitch": 62, "duration": 7, "velocity": 78}, {"time": 1202, "pitch": 57, "duration": 4, "velocity": 77}, {"time": 1208, "pitch": 57, "duration": 3, "velocity": 82}, {"time": 1208, "pitch": 62, "duration": 4, "velocity": 85}, {"time": 1208, "pitch": 65, "duration": 5, "velocity": 83}, {"time": 1211, "pitch": 50, "duration": 1, "velocity": 84}, {"time": 1214, "pitch": 57, "duration": 5, "velocity": 83}, {"time": 1217, "pitch": 62, "duration": 2, "velocity": 78}, {"time": 1220, "pitch": 45, "duration": 17, "velocity": 83}, {"time": 1220, "pitch": 57, "duration": 6, "velocity": 77}, {"time": 1220, "pitch": 60, "duration": 5, "velocity": 82}, {"time": 1226, "pitch": 52, "duration": 7, "velocity": 78}, {"time": 1232, "pitch": 57, "duration": 4, "velocity": 84}, {"time": 1232, "pitch": 64, "duration": 3, "velocity": 87}, {"time": 1235, "pitch": 52, "duration": 2, "velocity": 84}, {"time": 1238, "pitch": 57, "duration": 2, "velocity": 83}, {"time": 1244, "pitch": 47, "duration": 18, "velocity": 83}, {"time": 1244, "pitch": 59, "duration": 7, "velocity": 82}, {"time": 1244, "pitch": 63, "duration": 7, "velocity": 79}, {"time": 1250, "pitch": 54, "duration": 8, "velocity": 77}, {"time": 1253, "pitch": 59, "duration": 2, "velocity": 83}, {"time": 1256, "pitch": 59, "duration": 5, "velocity": 87}, {"time": 1256, "pitch": 66, "duration": 5, "velocity": 82}, {"time": 1262, "pitch": 54, "duration": 2, "velocity": 75}, {"time": 1268, "pitch": 40, "duration": 21, "velocity": 85}, {"time": 1268, "pitch": 52, "duration": 5, "velocity": 80}, {"time": 1268, "pitch": 59, "duration": 7, "velocity": 78}, {"time": 1274, "pitch": 47, "duration": 15, "velocity": 84}, {"time": 1280, "pitch": 52, "duration": 4, "velocity": 83}, {"time": 1280, "pitch": 56, "duration": 4, "velocity": 80}, {"time": 1286, "pitch": 59, "duration": 2, "velocity": 84}, {"time": 1292, "pitch": 40, "duration": 24, "velocity": 82}, {"time": 1292, "pitch": 59, "duration": 24, "velocity": 82}, {"time": 1292, "pitch": 64, "duration": 24, "velocity": 83}, {"time": 1316, "pitch": 45, "duration": 18, "velocity": 82}, {"time": 1316, "pitch": 57, "duration": 8, "velocity": 73}, {"time": 1316, "pitch": 60, "duration": 7, "velocity": 78}, {"time": 1322, "pitch": 64, "duration": 3, "velocity": 82}, {"time": 1328, "pitch": 57, "duration": 3, "velocity": 79}, {"time": 1328, "pitch": 60, "duration": 3, "velocity": 86}, {"time": 1328, "pitch": 64, "duration": 3, "velocity": 84}, {"time": 1328, "pitch": 69, "duration": 4, "velocity": 77}, {"time": 1340, "pitch": 40, "duration": 17, "velocity": 88}, {"time": 1346, "pitch": 52, "duration": 4, "velocity": 81}, {"time": 1346, "pitch": 59, "duration": 4, "velocity": 76}, {"time": 1352, "pitch": 52, "duration": 3, "velocity": 83}, {"time": 1352, "pitch": 59, "duration": 4, "velocity": 83}, {"time": 1352, "pitch": 64, "duration": 4, "velocity": 84}, {"time": 1364, "pitch": 41, "duration": 19, "velocity": 83}, {"time": 1364, "pitch": 53, "duration": 7, "velocity": 75}, {"time": 1364, "pitch": 57, "duration": 7, "velocity": 75}, {"time": 1370, "pitch": 60, "duration": 2, "velocity": 78}, {"time": 1376, "pitch": 53, "duration": 3, "velocity": 79}, {"time": 1376, "pitch": 65, "duration": 5, "velocity": 78}, {"time": 1388, "pitch": 40, "duration": 15, "velocity": 84}, {"time": 1388, "pitch": 52, "duration": 7, "velocity": 78}, {"time": 1388, "pitch": 59, "duration": 7, "velocity": 75}, {"time": 1394, "pitch": 56, "duration": 2, "velocity": 83}, {"time": 1400, "pitch": 52, "duration": 4, "velocity": 82}, {"time": 1400, "pitch": 56, "duration": 4, "velocity": 84}, {"time": 1400, "pitch": 64, "duration": 5, "velocity": 84}, {"time": 1412, "pitch": 45, "duration": 17, "velocity": 84}, {"time": 1412, "pitch": 57, "duration": 8, "velocity": 77}, {"time": 1412, "pitch": 60, "duration": 8, "velocity": 82}, {"time": 1418, "pitch": 64, "duration": 3, "velocity": 78}, {"time": 1424, "pitch": 57, "duration": 3, "velocity": 76}, {"time": 1424, "pitch": 60, "duration": 4, "velocity": 82}, {"time": 1424, "pitch": 69, "duration": 4, "velocity": 76}, {"time": 1436, "pitch": 40, "duration": 16, "velocity": 86}, {"time": 1436, "pitch": 59, "duration": 8, "velocity": 75}, {"time": 1436, "pitch": 64, "duration": 9, "velocity": 82}, {"time": 1442, "pitch": 47, "duration": 9, "velocity": 79}, {"time": 1448, "pitch": 59, "duration": 3, "velocity": 81}, {"time": 1448, "pitch": 64, "duration": 6, "velocity": 83}, {"time": 1448, "pitch": 71, "duration": 5, "velocity": 81}, {"time": 1460, "pitch": 41, "duration": 17, "velocity": 83}, {"time": 1460, "pitch": 53, "duration": 8, "velocity": 77}, {"time": 1460, "pitch": 57, "duration": 8, "velocity": 76}, {"time": 1466, "pitch": 60, "duration": 3, "velocity": 77}, {"time": 1472, "pitch": 53, "duration": 4, "velocity": 82}, {"time": 1472, "pitch": 57, "duration": 5, "velocity": 82}, {"time": 1472, "pitch": 65, "duration": 6, "velocity": 80}, {"time": 1484, "pitch": 40, "duration": 23, "velocity": 84}, {"time": 1484, "pitch": 52, "duration": 7, "velocity": 77}, {"time": 1484, "pitch": 59, "duration": 7, "velocity": 76}, {"time": 1490, "pitch": 47, "duration": 17, "velocity": 71}, {"time": 1496, "pitch": 52, "duration": 2, "velocity": 79}, {"time": 1496, "pitch": 56, "duration": 11, "velocity": 69}, {"time": 1496, "pitch": 59, "duration": 11, "velocity": 73}, {"time": 1496, "pitch": 64, "duration": 11, "velocity": 82}, {"time": 1502, "pitch": 52, "duration": 5, "velocity": 83}, {"time": 1508, "pitch": 45, "duration": 20, "velocity": 83}, {"time": 1511, "pitch": 52, "duration": 16, "velocity": 82}, {"time": 1514, "pitch": 57, "duration": 18, "velocity": 80}, {"time": 1517, "pitch": 64, "duration": 15, "velocity": 81}, {"time": 1520, "pitch": 69, "duration": 12, "velocity": 81}, {"time": 1532, "pitch": 40, "duration": 21, "velocity": 84}, {"time": 1535, "pitch": 47, "duration": 16, "velocity": 78}, {"time": 1538, "pitch": 52, "duration": 14, "velocity": 76}, {"time": 1541, "pitch": 59, "duration": 13, "velocity": 77}, {"time": 1544, "pitch": 64, "duration": 13, "velocity": 84}, {"time": 1556, "pitch": 41, "duration": 21, "velocity": 82}, {"time": 1559, "pitch": 48, "duration": 18, "velocity": 71}, {"time": 1562, "pitch": 53, "duration": 10, "velocity": 74}, {"time": 1565, "pitch": 60, "duration": 5, "velocity": 67}, {"time": 1568, "pitch": 65, "duration": 4, "velocity": 72}, {"time": 1571, "pitch": 60, "duration": 11, "velocity": 81}, {"time": 1574, "pitch": 53, "duration": 8, "velocity": 73}, {"time": 1580, "pitch": 40, "duration": 21, "velocity": 85}, {"time": 1583, "pitch": 47, "duration": 19, "velocity": 72}, {"time": 1586, "pitch": 52, "duration": 11, "velocity": 83}, {"time": 1589, "pitch": 59, "duration": 4, "velocity": 78}, {"time": 1592, "pitch": 64, "duration": 14, "velocity": 89}, {"time": 1598, "pitch": 52, "duration": 5, "velocity": 83}, {"time": 1604, "pitch": 45, "duration": 18, "velocity": 80}, {"time": 1607, "pitch": 52, "duration": 15, "velocity": 73}, {"time": 1610, "pitch": 57, "duration": 5, "velocity": 72}, {"time": 1613, "pitch": 64, "duration": 10, "velocity": 81}, {"time": 1616, "pitch": 57, "duration": 1, "velocity": 59}, {"time": 1616, "pitch": 69, "duration": 13, "velocity": 83}, {"time": 1622, "pitch": 57, "duration": 8, "velocity": 78}, {"time": 1628, "pitch": 43, "duration": 24, "velocity": 83}, {"time": 1631, "pitch": 50, "duration": 20, "velocity": 77}, {"time": 1634, "pitch": 55, "duration": 7, "velocity": 86}, {"time": 1637, "pitch": 62, "duration": 5, "velocity": 83}, {"time": 1640, "pitch": 67, "duration": 12, "velocity": 83}, {"time": 1646, "pitch": 55, "duration": 6, "velocity": 82}, {"time": 1649, "pitch": 62, "duration": 3, "velocity": 76}, {"time": 1652, "pitch": 41, "duration": 19, "velocity": 83}, {"time": 1655, "pitch": 48, "duration": 16, "velocity": 69}, {"time": 1658, "pitch": 53, "duration": 6, "velocity": 79}, {"time": 1661, "pitch": 60, "duration": 4, "velocity": 78}, {"time": 1664, "pitch": 65, "duration": 12, "velocity": 82}, {"time": 1670, "pitch": 53, "duration": 7, "velocity": 82}, {"time": 1676, "pitch": 40, "duration": 24, "velocity": 84}, {"time": 1679, "pitch": 47, "duration": 20, "velocity": 75}, {"time": 1682, "pitch": 52, "duration": 4, "velocity": 83}, {"time": 1685, "pitch": 59, "duration": 4, "velocity": 80}, {"time": 1688, "pitch": 64, "duration": 12, "velocity": 85}, {"time": 1694, "pitch": 52, "duration": 5, "velocity": 82}, {"time": 1700, "pitch": 45, "duration": 20, "velocity": 83}, {"time": 1703, "pitch": 52, "duration": 16, "velocity": 82}, {"time": 1706, "pitch": 57, "duration": 18, "velocity": 80}, {"time": 1709, "pitch": 64, "duration": 15, "velocity": 81}, {"time": 1712, "pitch": 69, "duration": 12, "velocity": 81}, {"time": 1724, "pitch": 40, "duration": 21, "velocity": 84}, {"time": 1727, "pitch": 47, "duration": 16, "velocity": 78}, {"time": 1730, "pitch": 52, "duration": 14, "velocity": 76}, {"time": 1733, "pitch": 59, "duration": 13, "velocity": 77}, {"time": 1736, "pitch": 64, "duration": 13, "velocity": 84}, {"time": 1748, "pitch": 41, "duration": 21, "velocity": 82}, {"time": 1751, "pitch": 48, "duration": 18, "velocity": 71}, {"time": 1754, "pitch": 53, "duration": 10, "velocity": 74}, {"time": 1757, "pitch": 60, "duration": 5, "velocity": 67}, {"time": 1760, "pitch": 65, "duration": 4, "velocity": 72}, {"time": 1763, "pitch": 60, "duration": 11, "velocity": 81}, {"time": 1766, "pitch": 53, "duration": 8, "velocity": 73}, {"time": 1772, "pitch": 36, "duration": 24, "velocity": 82}, {"time": 1775, "pitch": 43, "duration": 21, "velocity": 71}, {"time": 1778, "pitch": 55, "duration": 7, "velocity": 82}, {"time": 1781, "pitch": 64, "duration": 8, "velocity": 80}, {"time": 1784, "pitch": 67, "duration": 12, "velocity": 81}, {"time": 1787, "pitch": 55, "duration": 9, "velocity": 87}, {"time": 1790, "pitch": 64, "duration": 5, "velocity": 81}, {"time": 1796, "pitch": 45, "duration": 18, "velocity": 80}, {"time": 1799, "pitch": 52, "duration": 15, "velocity": 73}, {"time": 1802, "pitch": 57, "duration": 5, "velocity": 72}, {"time": 1805, "pitch": 64, "duration": 10, "velocity": 81}, {"time": 1808, "pitch": 57, "duration": 1, "velocity": 59}, {"time": 1808, "pitch": 69, "duration": 13, "velocity": 83}, {"time": 1814, "pitch": 57, "duration": 8, "velocity": 78}, {"time": 1820, "pitch": 43, "duration": 24, "velocity": 83}, {"time": 1823, "pitch": 50, "duration": 20, "velocity": 77}, {"time": 1826, "pitch": 55, "duration": 7, "velocity": 86}, {"time": 1829, "pitch": 62, "duration": 5, "velocity": 83}, {"time": 1832, "pitch": 67, "duration": 12, "velocity": 83}, {"time": 1838, "pitch": 55, "duration": 6, "velocity": 82}, {"time": 1841, "pitch": 62, "duration": 3, "velocity": 76}, {"time": 1844, "pitch": 38, "duration": 20, "velocity": 86}, {"time": 1847, "pitch": 45, "duration": 17, "velocity": 78}, {"time": 1850, "pitch": 57, "duration": 7, "velocity": 77}, {"time": 1853, "pitch": 62, "duration": 4, "velocity": 82}, {"time": 1856, "pitch": 66, "duration": 12, "velocity": 93}, {"time": 1862, "pitch": 57, "duration": 6, "velocity": 77}, {"time": 1865, "pitch": 62, "duration": 4, "velocity": 76}, {"time": 1868, "pitch": 40, "duration": 24, "velocity": 89}, {"time": 1871, "pitch": 47, "duration": 21, "velocity": 75}, {"time": 1874, "pitch": 52, "duration": 6, "velocity": 76}, {"time": 1877, "pitch": 59, "duration": 4, "velocity": 82}, {"time": 1880, "pitch": 64, "duration": 11, "velocity": 87}, {"time": 1883, "pitch": 52, "duration": 4, "velocity": 87}, {"time": 1886, "pitch": 59, "duration": 5, "velocity": 79}, {"time": 1889, "pitch": 52, "duration": 3, "velocity": 82}, {"time": 1892, "pitch": 41, "duration": 22, "velocity": 84}, {"time": 1895, "pitch": 48, "duration": 19, "velocity": 79}, {"time": 1898, "pitch": 53, "duration": 11, "velocity": 84}, {"time": 1901, "pitch": 60, "duration": 15, "velocity": 82}, {"time": 1904, "pitch": 65, "duration": 17, "velocity": 83}, {"time": 1916, "pitch": 48, "duration": 20, "velocity": 88}, {"time": 1919, "pitch": 55, "duration": 4, "velocity": 82}, {"time": 1922, "pitch": 60, "duration": 5, "velocity": 80}, {"time": 1925, "pitch": 55, "duration": 4, "velocity": 84}, {"time": 1928, "pitch": 64, "duration": 8, "velocity": 86}, {"time": 1931, "pitch": 55, "duration": 4, "velocity": 77}, {"time": 1934, "pitch": 60, "duration": 3, "velocity": 72}, {"time": 1940, "pitch": 38, "duration": 16, "velocity": 84}, {"time": 1940, "pitch": 57, "duration": 4, "velocity": 75}, {"time": 1940, "pitch": 62, "duration": 5, "velocity": 78}, {"time": 1943, "pitch": 45, "duration": 12, "velocity": 70}, {"time": 1946, "pitch": 57, "duration": 4, "velocity": 82}, {"time": 1949, "pitch": 62, "duration": 4, "velocity": 75}, {"time": 1952, "pitch": 66, "duration": 9, "velocity": 80}, {"time": 1958, "pitch": 57, "duration": 4, "velocity": 74}, {"time": 1964, "pitch": 40, "duration": 19, "velocity": 85}, {"time": 1964, "pitch": 59, "duration": 4, "velocity": 71}, {"time": 1964, "pitch": 64, "duration": 4, "velocity": 79}, {"time": 1967, "pitch": 47, "duration": 11, "velocity": 73}, {"time": 1970, "pitch": 59, "duration": 5, "velocity": 76}, {"time": 1976, "pitch": 64, "duration": 3, "velocity": 85}, {"time": 1979, "pitch": 59, "duration": 4, "velocity": 84}, {"time": 1982, "pitch": 47, "duration": 3, "velocity": 82}, {"time": 1985, "pitch": 59, "duration": 1, "velocity": 68}, {"time": 1988, "pitch": 41, "duration": 20, "velocity": 83}, {"time": 1991, "pitch": 48, "duration": 17, "velocity": 80}, {"time": 1994, "pitch": 53, "duration": 10, "velocity": 83}, {"time": 1997, "pitch": 57, "duration": 4, "velocity": 68}, {"time": 2000, "pitch": 65, "duration": 13, "velocity": 84}, {"time": 2006, "pitch": 53, "duration": 3, "velocity": 82}, {"time": 2012, "pitch": 48, "duration": 19, "velocity": 86}, {"time": 2012, "pitch": 55, "duration": 3, "velocity": 71}, {"time": 2012, "pitch": 60, "duration": 4, "velocity": 75}, {"time": 2015, "pitch": 55, "duration": 3, "velocity": 83}, {"time": 2018, "pitch": 60, "duration": 4, "velocity": 75}, {"time": 2021, "pitch": 55, "duration": 2, "velocity": 82}, {"time": 2024, "pitch": 55, "duration": 4, "velocity": 82}, {"time": 2024, "pitch": 64, "duration": 6, "velocity": 85}, {"time": 2030, "pitch": 60, "duration": 2, "velocity": 78}, {"time": 2036, "pitch": 38, "duration": 20, "velocity": 85}, {"time": 2036, "pitch": 57, "duration": 3, "velocity": 76}, {"time": 2036, "pitch": 62, "duration": 4, "velocity": 78}, {"time": 2039, "pitch": 45, "duration": 17, "velocity": 77}, {"time": 2042, "pitch": 57, "duration": 4, "velocity": 86}, {"time": 2045, "pitch": 62, "duration": 4, "velocity": 77}, {"time": 2048, "pitch": 66, "duration": 6, "velocity": 85}, {"time": 2054, "pitch": 62, "duration": 2, "velocity": 80}, {"time": 2060, "pitch": 40, "duration": 24, "velocity": 85}, {"time": 2060, "pitch": 64, "duration": 4, "velocity": 78}, {"time": 2060, "pitch": 68, "duration": 5, "velocity": 82}, {"time": 2063, "pitch": 47, "duration": 21, "velocity": 73}, {"time": 2066, "pitch": 64, "duration": 4, "velocity": 88}, {"time": 2069, "pitch": 68, "duration": 2, "velocity": 83}, {"time": 2072, "pitch": 64, "duration": 3, "velocity": 87}, {"time": 2072, "pitch": 71, "duration": 6, "velocity": 83}, {"time": 2078, "pitch": 64, "duration": 6, "velocity": 87}, {"time": 2084, "pitch": 45, "duration": 16, "velocity": 83}, {"time": 2084, "pitch": 57, "duration": 6, "velocity": 77}, {"time": 2084, "pitch": 64, "duration": 6, "velocity": 82}, {"time": 2090, "pitch": 52, "duration": 7, "velocity": 75}, {"time": 2096, "pitch": 57, "duration": 3, "velocity": 76}, {"time": 2096, "pitch": 60, "duration": 3, "velocity": 85}, {"time": 2096, "pitch": 64, "duration": 4, "velocity": 85}, {"time": 2099, "pitch": 52, "duration": 2, "velocity": 82}, {"time": 2102, "pitch": 57, "duration": 3, "velocity": 82}, {"time": 2108, "pitch": 40, "duration": 17, "velocity": 84}, {"time": 2108, "pitch": 59, "duration": 4, "velocity": 79}, {"time": 2108, "pitch": 64, "duration": 4, "velocity": 82}, {"time": 2111, "pitch": 47, "duration": 12, "velocity": 71}, {"time": 2114, "pitch": 59, "duration": 4, "velocity": 82}, {"time": 2117, "pitch": 64, "duration": 2, "velocity": 76}, {"time": 2120, "pitch": 59, "duration": 3, "velocity": 82}, {"time": 2120, "pitch": 64, "duration": 6, "velocity": 83}, {"time": 2120, "pitch": 67, "duration": 6, "velocity": 77}, {"time": 2126, "pitch": 59, "duration": 2, "velocity": 87}, {"time": 2132, "pitch": 41, "duration": 15, "velocity": 83}, {"time": 2132, "pitch": 53, "duration": 7, "velocity": 78}, {"time": 2132, "pitch": 57, "duration": 6, "velocity": 77}, {"time": 2138, "pitch": 48, "duration": 7, "velocity": 74}, {"time": 2144, "pitch": 53, "duration": 4, "velocity": 80}, {"time": 2144, "pitch": 57, "duration": 3, "velocity": 84}, {"time": 2144, "pitch": 60, "duration": 4, "velocity": 83}, {"time": 2150, "pitch": 41, "duration": 2, "velocity": 82}, {"time": 2156, "pitch": 48, "duration": 17, "velocity": 85}, {"time": 2156, "pitch": 55, "duration": 2, "velocity": 80}, {"time": 2156, "pitch": 60, "duration": 4, "velocity": 82}, {"time": 2159, "pitch": 55, "duration": 4, "velocity": 80}, {"time": 2162, "pitch": 60, "duration": 3, "velocity": 78}, {"time": 2168, "pitch": 55, "duration": 4, "velocity": 84}, {"time": 2168, "pitch": 64, "duration": 4, "velocity": 86}, {"time": 2174, "pitch": 55, "duration": 2, "velocity": 83}, {"time": 2174, "pitch": 60, "duration": 2, "velocity": 83}, {"time": 2180, "pitch": 50, "duration": 14, "velocity": 78}, {"time": 2180, "pitch": 57, "duration": 4, "velocity": 76}, {"time": 2180, "pitch": 62, "duration": 7, "velocity": 78}, {"time": 2186, "pitch": 57, "duration": 4, "velocity": 77}, {"time": 2192, "pitch": 57, "duration": 3, "velocity": 82}, {"time": 2192, "pitch": 62, "duration": 4, "velocity": 85}, {"time": 2192, "pitch": 65, "duration": 5, "velocity": 83}, {"time": 2195, "pitch": 50, "duration": 1, "velocity": 84}, {"time": 2198, "pitch": 57, "duration": 5, "velocity": 83}, {"time": 2201, "pitch": 62, "duration": 2, "velocity": 78}, {"time": 2204, "pitch": 45, "duration": 17, "velocity": 83}, {"time": 2204, "pitch": 57, "duration": 6, "velocity": 77}, {"time": 2204, "pitch": 60, "duration": 5, "velocity": 82}, {"time": 2210, "pitch": 52, "duration": 7, "velocity": 78}, {"time": 2216, "pitch": 57, "duration": 4, "velocity": 84}, {"time": 2216, "pitch": 64, "duration": 3, "velocity": 87}, {"time": 2219, "pitch": 52, "duration": 2, "velocity": 84}, {"time": 2222, "pitch": 57, "duration": 2, "velocity": 83}, {"time": 2228, "pitch": 41, "duration": 16, "velocity": 78}, {"time": 2228, "pitch": 53, "duration": 7, "velocity": 77}, {"time": 2228, "pitch": 60, "duration": 10, "velocity": 78}, {"time": 2234, "pitch": 48, "duration": 8, "velocity": 80}, {"time": 2237, "pitch": 53, "duration": 2, "velocity": 82}, {"time": 2240, "pitch": 53, "duration": 5, "velocity": 84}, {"time": 2240, "pitch": 57, "duration": 4, "velocity": 87}, {"time": 2240, "pitch": 60, "duration": 6, "velocity": 85}, {"time": 2246, "pitch": 41, "duration": 1, "velocity": 43}, {"time": 2246, "pitch": 48, "duration": 2, "velocity": 77}, {"time": 2252, "pitch": 40, "duration": 24, "velocity": 84}, {"time": 2252, "pitch": 59, "duration": 6, "velocity": 83}, {"time": 2252, "pitch": 64, "duration": 8, "velocity": 85}, {"time": 2258, "pitch": 47, "duration": 7, "velocity": 78}, {"time": 2261, "pitch": 59, "duration": 2, "velocity": 80}, {"time": 2264, "pitch": 59, "duration": 4, "velocity": 83}, {"time": 2264, "pitch": 64, "duration": 7, "velocity": 86}, {"time": 2264, "pitch": 68, "duration": 11, "velocity": 84}, {"time": 2267, "pitch": 47, "duration": 10, "velocity": 77}, {"time": 2270, "pitch": 59, "duration": 6, "velocity": 82}, {"time": 2273, "pitch": 64, "duration": 3, "velocity": 80}, {"time": 2276, "pitch": 45, "duration": 16, "velocity": 83}, {"time": 2276, "pitch": 57, "duration": 6, "velocity": 77}, {"time": 2276, "pitch": 64, "duration": 6, "velocity": 82}, {"time": 2282, "pitch": 52, "duration": 7, "velocity": 75}, {"time": 2288, "pitch": 57, "duration": 3, "velocity": 76}, {"time": 2288, "pitch": 60, "duration": 3, "velocity": 85}, {"time": 2288, "pitch": 64, "duration": 4, "velocity": 85}, {"time": 2291, "pitch": 52, "duration": 2, "velocity": 82}, {"time": 2294, "pitch": 57, "duration": 3, "velocity": 82}, {"time": 2300, "pitch": 40, "duration": 17, "velocity": 84}, {"time": 2300, "pitch": 59, "duration": 4, "velocity": 79}, {"time": 2300, "pitch": 64, "duration": 4, "velocity": 82}, {"time": 2303, "pitch": 47, "duration": 12, "velocity": 71}, {"time": 2306, "pitch": 59, "duration": 4, "velocity": 82}, {"time": 2309, "pitch": 64, "duration": 2, "velocity": 76}, {"time": 2312, "pitch": 59, "duration": 3, "velocity": 82}, {"time": 2312, "pitch": 64, "duration": 6, "velocity": 83}, {"time": 2312, "pitch": 67, "duration": 6, "velocity": 77}, {"time": 2318, "pitch": 59, "duration": 2, "velocity": 87}, {"time": 2324, "pitch": 41, "duration": 15, "velocity": 83}, {"time": 2324, "pitch": 53, "duration": 7, "velocity": 78}, {"time": 2324, "pitch": 57, "duration": 6, "velocity": 77}, {"time": 2330, "pitch": 48, "duration": 7, "velocity": 74}, {"time": 2336, "pitch": 53, "duration": 4, "velocity": 80}, {"time": 2336, "pitch": 57, "duration": 3, "velocity": 84}, {"time": 2336, "pitch": 60, "duration": 4, "velocity": 83}, {"time": 2342, "pitch": 41, "duration": 2, "velocity": 82}, {"time": 2348, "pitch": 48, "duration": 17, "velocity": 85}, {"time": 2348, "pitch": 55, "duration": 2, "velocity": 80}, {"time": 2348, "pitch": 60, "duration": 4, "velocity": 82}, {"time": 2351, "pitch": 55, "duration": 4, "velocity": 80}, {"time": 2354, "pitch": 60, "duration": 3, "velocity": 78}, {"time": 2360, "pitch": 55, "duration": 4, "velocity": 84}, {"time": 2360, "pitch": 64, "duration": 4, "velocity": 86}, {"time": 2366, "pitch": 55, "duration": 2, "velocity": 83}, {"time": 2366, "pitch": 60, "duration": 2, "velocity": 83}, {"time": 2372, "pitch": 50, "duration": 14, "velocity": 78}, {"time": 2372, "pitch": 57, "duration": 4, "velocity": 76}, {"time": 2372, "pitch": 62, "duration": 7, "velocity": 78}, {"time": 2378, "pitch": 57, "duration": 4, "velocity": 77}, {"time": 2384, "pitch": 57, "duration": 3, "velocity": 82}, {"time": 2384, "pitch": 62, "duration": 4, "velocity": 85}, {"time": 2384, "pitch": 65, "duration": 5, "velocity": 83}, {"time": 2387, "pitch": 50, "duration": 1, "velocity": 84}, {"time": 2390, "pitch": 57, "duration": 5, "velocity": 83}, {"time": 2393, "pitch": 62, "duration": 2, "velocity": 78}, {"time": 2396, "pitch": 45, "duration": 17, "velocity": 83}, {"time": 2396, "pitch": 57, "duration": 6, "velocity": 77}, {"time": 2396, "pitch": 60, "duration": 5, "velocity": 82}, {"time": 2402, "pitch": 52, "duration": 7, "velocity": 78}, {"time": 2408, "pitch": 57, "duration": 4, "velocity": 84}, {"time": 2408, "pitch": 64, "duration": 3, "velocity": 87}, {"time": 2411, "pitch": 52, "duration": 2, "velocity": 84}, {"time": 2414, "pitch": 57, "duration": 2, "velocity": 83}, {"time": 2420, "pitch": 47, "duration": 18, "velocity": 83}, {"time": 2420, "pitch": 59, "duration": 7, "velocity": 82}, {"time": 2420, "pitch": 63, "duration": 7, "velocity": 79}, {"time": 2426, "pitch": 54, "duration": 8, "velocity": 77}, {"time": 2429, "pitch": 59, "duration": 2, "velocity": 83}, {"time": 2432, "pitch": 59, "duration": 5, "velocity": 87}, {"time": 2432, "pitch": 66, "duration": 5, "velocity": 82}, {"time": 2438, "pitch": 54, "duration": 2, "velocity": 75}, {"time": 2444, "pitch": 40, "duration": 21, "velocity": 85}, {"time": 2444, "pitch": 52, "duration": 5, "velocity": 80}, {"time": 2444, "pitch": 59, "duration": 7, "velocity": 78}, {"time": 2450, "pitch": 47, "duration": 15, "velocity": 84}, {"time": 2456, "pitch": 52, "duration": 4, "velocity": 83}, {"time": 2456, "pitch": 56, "duration": 4, "velocity": 80}, {"time": 2462, "pitch": 59, "duration": 2, "velocity": 84}, {"time": 2468, "pitch": 45, "duration": 16, "velocity": 83}, {"time": 2468, "pitch": 57, "duration": 6, "velocity": 77}, {"time": 2468, "pitch": 64, "duration": 6, "velocity": 82}, {"time": 2474, "pitch": 52, "duration": 7, "velocity": 75}, {"time": 2480, "pitch": 57, "duration": 3, "velocity": 76}, {"time": 2480, "pitch": 60, "duration": 3, "velocity": 85}, {"time": 2480, "pitch": 64, "duration": 4, "velocity": 85}, {"time": 2483, "pitch": 52, "duration": 2, "velocity": 82}, {"time": 2486, "pitch": 57, "duration": 3, "velocity": 82}, {"time": 2492, "pitch": 40, "duration": 17, "velocity": 84}, {"time": 2492, "pitch": 59, "duration": 4, "velocity": 79}, {"time": 2492, "pitch": 64, "duration": 4, "velocity": 82}, {"time": 2495, "pitch": 47, "duration": 12, "velocity": 71}, {"time": 2498, "pitch": 59, "duration": 4, "velocity": 82}, {"time": 2501, "pitch": 64, "duration": 2, "velocity": 76}, {"time": 2504, "pitch": 59, "duration": 3, "velocity": 82}, {"time": 2504, "pitch": 64, "duration": 6, "velocity": 83}, {"time": 2504, "pitch": 67, "duration": 6, "velocity": 77}, {"time": 2510, "pitch": 59, "duration": 2, "velocity": 87}, {"time": 2516, "pitch": 41, "duration": 15, "velocity": 83}, {"time": 2516, "pitch": 53, "duration": 7, "velocity": 78}, {"time": 2516, "pitch": 57, "duration": 6, "velocity": 77}, {"time": 2522, "pitch": 48, "duration": 7, "velocity": 74}, {"time": 2528, "pitch": 53, "duration": 4, "velocity": 80}, {"time": 2528, "pitch": 57, "duration": 3, "velocity": 84}, {"time": 2528, "pitch": 60, "duration": 4, "velocity": 83}, {"time": 2534, "pitch": 41, "duration": 2, "velocity": 82}, {"time": 2540, "pitch": 48, "duration": 17, "velocity": 85}, {"time": 2540, "pitch": 55, "duration": 2, "velocity": 80}, {"time": 2540, "pitch": 60, "duration": 4, "velocity": 82}, {"time": 2543, "pitch": 55, "duration": 4, "velocity": 80}, {"time": 2546, "pitch": 60, "duration": 3, "velocity": 78}, {"time": 2552, "pitch": 55, "duration": 4, "velocity": 84}, {"time": 2552, "pitch": 64, "duration": 4, "velocity": 86}, {"time": 2558, "pitch": 55, "duration": 2, "velocity": 83}, {"time": 2558, "pitch": 60, "duration": 2, "velocity": 83}, {"time": 2564, "pitch": 50, "duration": 14, "velocity": 78}, {"time": 2564, "pitch": 57, "duration": 4, "velocity": 76}, {"time": 2564, "pitch": 62, "duration": 7, "velocity": 78}, {"time": 2570, "pitch": 57, "duration": 4, "velocity": 77}, {"time": 2576, "pitch": 57, "duration": 3, "velocity": 82}, {"time": 2576, "pitch": 62, "duration": 4, "velocity": 85}, {"time": 2576, "pitch": 65, "duration": 5, "velocity": 83}, {"time": 2579, "pitch": 50, "duration": 1, "velocity": 84}, {"time": 2582, "pitch": 57, "duration": 5, "velocity": 83}, {"time": 2585, "pitch": 62, "duration": 2, "velocity": 78}, {"time": 2588, "pitch": 45, "duration": 17, "velocity": 83}, {"time": 2588, "pitch": 57, "duration": 6, "velocity": 77}, {"time": 2588, "pitch": 60, "duration": 5, "velocity": 82}, {"time": 2594, "pitch": 52, "duration": 7, "velocity": 78}, {"time": 2600, "pitch": 57, "duration": 4, "velocity": 84}, {"time": 2600, "pitch": 64, "duration": 3, "velocity": 87}, {"time": 2603, "pitch": 52, "duration": 2, "velocity": 84}, {"time": 2606, "pitch": 57, "duration": 2, "velocity": 83}, {"time": 2612, "pitch": 41, "duration": 16, "velocity": 78}, {"time": 2612, "pitch": 53, "duration": 7, "velocity": 77}, {"time": 2612, "pitch": 60, "duration": 10, "velocity": 78}, {"time": 2618, "pitch": 48, "duration": 8, "velocity": 80}, {"time": 2621, "pitch": 53, "duration": 2, "velocity": 82}, {"time": 2624, "pitch": 53, "duration": 5, "velocity": 84}, {"time": 2624, "pitch": 57, "duration": 4, "velocity": 87}, {"time": 2624, "pitch": 60, "duration": 6, "velocity": 85}, {"time": 2630, "pitch": 41, "duration": 1, "velocity": 43}, {"time": 2630, "pitch": 48, "duration": 2, "velocity": 77}, {"time": 2636, "pitch": 40, "duration": 24, "velocity": 84}, {"time": 2636, "pitch": 59, "duration": 6, "velocity": 83}, {"time": 2636, "pitch": 64, "duration": 8, "velocity": 85}, {"time": 2642, "pitch": 47, "duration": 7, "velocity": 78}, {"time": 2645, "pitch": 59, "duration": 2, "velocity": 80}, {"time": 2648, "pitch": 59, "duration": 4, "velocity": 83}, {"time": 2648, "pitch": 64, "duration": 7, "velocity": 86}, {"time": 2648, "pitch": 68, "duration": 11, "velocity": 84}, {"time": 2651, "pitch": 47, "duration": 10, "velocity": 77}, {"time": 2654, "pitch": 59, "duration": 6, "velocity": 82}, {"time": 2657, "pitch": 64, "duration": 3, "velocity": 80}, {"time": 2660, "pitch": 45, "duration": 16, "velocity": 83}, {"time": 2660, "pitch": 57, "duration": 6, "velocity": 77}, {"time": 2660, "pitch": 64, "duration": 6, "velocity": 82}, {"time": 2666, "pitch": 52, "duration": 7, "velocity": 75}, {"time": 2672, "pitch": 57, "duration": 3, "velocity": 76}, {"time": 2672, "pitch": 60, "duration": 3, "velocity": 85}, {"time": 2672, "pitch": 64, "duration": 4, "velocity": 85}, {"time": 2675, "pitch": 52, "duration": 2, "velocity": 82}, {"time": 2678, "pitch": 57, "duration": 3, "velocity": 82}, {"time": 2684, "pitch": 40, "duration": 17, "velocity": 84}, {"time": 2684, "pitch": 59, "duration": 4, "velocity": 79}, {"time": 2684, "pitch": 64, "duration": 4, "velocity": 82}, {"time": 2687, "pitch": 47, "duration": 12, "velocity": 71}, {"time": 2690, "pitch": 59, "duration": 4, "velocity": 82}, {"time": 2693, "pitch": 64, "duration": 2, "velocity": 76}, {"time": 2696, "pitch": 59, "duration": 3, "velocity": 82}, {"time": 2696, "pitch": 64, "duration": 6, "velocity": 83}, {"time": 2696, "pitch": 67, "duration": 6, "velocity": 77}, {"time": 2702, "pitch": 59, "duration": 2, "velocity": 87}, {"time": 2708, "pitch": 41, "duration": 15, "velocity": 83}, {"time": 2708, "pitch": 53, "duration": 7, "velocity": 78}, {"time": 2708, "pitch": 57, "duration": 6, "velocity": 77}, {"time": 2714, "pitch": 48, "duration": 7, "velocity": 74}, {"time": 2720, "pitch": 53, "duration": 4, "velocity": 80}, {"time": 2720, "pitch": 57, "duration": 3, "velocity": 84}, {"time": 2720, "pitch": 60, "duration": 4, "velocity": 83}, {"time": 2726, "pitch": 41, "duration": 2, "velocity": 82}, {"time": 2732, "pitch": 48, "duration": 17, "velocity": 85}, {"time": 2732, "pitch": 55, "duration": 2, "velocity": 80}, {"time": 2732, "pitch": 60, "duration": 4, "velocity": 82}, {"time": 2735, "pitch": 55, "duration": 4, "velocity": 80}, {"time": 2738, "pitch": 60, "duration": 3, "velocity": 78}, {"time": 2744, "pitch": 55, "duration": 4, "velocity": 84}, {"time": 2744, "pitch": 64, "duration": 4, "velocity": 86}, {"time": 2750, "pitch": 55, "duration": 2, "velocity": 83}, {"time": 2750, "pitch": 60, "duration": 2, "velocity": 83}, {"time": 2756, "pitch": 50, "duration": 14, "velocity": 78}, {"time": 2756, "pitch": 57, "duration": 4, "velocity": 76}, {"time": 2756, "pitch": 62, "duration": 7, "velocity": 78}, {"time": 2762, "pitch": 57, "duration": 4, "velocity": 77}, {"time": 2768, "pitch": 57, "duration": 3, "velocity": 82}, {"time": 2768, "pitch": 62, "duration": 4, "velocity": 85}, {"time": 2768, "pitch": 65, "duration": 5, "velocity": 83}, {"time": 2771, "pitch": 50, "duration": 1, "velocity": 84}, {"time": 2774, "pitch": 57, "duration": 5, "velocity": 83}, {"time": 2777, "pitch": 62, "duration": 2, "velocity": 78}, {"time": 2780, "pitch": 45, "duration": 17, "velocity": 83}, {"time": 2780, "pitch": 57, "duration": 6, "velocity": 77}, {"time": 2780, "pitch": 60, "duration": 5, "velocity": 82}, {"time": 2786, "pitch": 52, "duration": 7, "velocity": 78}, {"time": 2792, "pitch": 57, "duration": 4, "velocity": 84}, {"time": 2792, "pitch": 64, "duration": 3, "velocity": 87}, {"time": 2795, "pitch": 52, "duration": 2, "velocity": 84}, {"time": 2798, "pitch": 57, "duration": 2, "velocity": 83}, {"time": 2804, "pitch": 47, "duration": 18, "velocity": 83}, {"time": 2804, "pitch": 59, "duration": 7, "velocity": 82}, {"time": 2804, "pitch": 63, "duration": 7, "velocity": 79}, {"time": 2810, "pitch": 54, "duration": 8, "velocity": 77}, {"time": 2813, "pitch": 59, "duration": 2, "velocity": 83}, {"time": 2816, "pitch": 59, "duration": 5, "velocity": 87}, {"time": 2816, "pitch": 66, "duration": 5, "velocity": 82}, {"time": 2822, "pitch": 54, "duration": 2, "velocity": 75}, {"time": 2828, "pitch": 40, "duration": 21, "velocity": 85}, {"time": 2828, "pitch": 52, "duration": 5, "velocity": 80}, {"time": 2828, "pitch": 59, "duration": 7, "velocity": 78}, {"time": 2834, "pitch": 47, "duration": 15, "velocity": 84}, {"time": 2840, "pitch": 52, "duration": 4, "velocity": 83}, {"time": 2840, "pitch": 56, "duration": 4, "velocity": 80}, {"time": 2846, "pitch": 59, "duration": 2, "velocity": 84}, {"time": 2852, "pitch": 45, "duration": 18, "velocity": 84}, {"time": 2852, "pitch": 57, "duration": 4, "velocity": 74}, {"time": 2852, "pitch": 60, "duration": 4, "velocity": 76}, {"time": 2858, "pitch": 64, "duration": 3, "velocity": 82}, {"time": 2864, "pitch": 57, "duration": 3, "velocity": 79}, {"time": 2864, "pitch": 69, "duration": 4, "velocity": 82}, {"time": 2870, "pitch": 57, "duration": 2, "velocity": 72}, {"time": 2870, "pitch": 64, "duration": 2, "velocity": 74}, {"time": 2876, "pitch": 40, "duration": 15, "velocity": 84}, {"time": 2876, "pitch": 59, "duration": 4, "velocity": 75}, {"time": 2876, "pitch": 64, "duration": 7, "velocity": 78}, {"time": 2882, "pitch": 59, "duration": 4, "velocity": 87}, {"time": 2888, "pitch": 59, "duration": 3, "velocity": 83}, {"time": 2888, "pitch": 64, "duration": 4, "velocity": 85}, {"time": 2888, "pitch": 67, "duration": 6, "velocity": 82}, {"time": 2900, "pitch": 41, "duration": 18, "velocity": 83}, {"time": 2900, "pitch": 53, "duration": 7, "velocity": 76}, {"time": 2900, "pitch": 57, "duration": 7, "velocity": 73}, {"time": 2906, "pitch": 60, "duration": 3, "velocity": 77}, {"time": 2912, "pitch": 53, "duration": 3, "velocity": 78}, {"time": 2912, "pitch": 65, "duration": 6, "velocity": 81}, {"time": 2918, "pitch": 53, "duration": 2, "velocity": 77}, {"time": 2918, "pitch": 60, "duration": 2, "velocity": 75}, {"time": 2924, "pitch": 48, "duration": 15, "velocity": 84}, {"time": 2924, "pitch": 55, "duration": 3, "velocity": 75}, {"time": 2924, "pitch": 60, "duration": 7, "velocity": 75}, {"time": 2930, "pitch": 55, "duration": 3, "velocity": 82}, {"time": 2936, "pitch": 55, "duration": 2, "velocity": 82}, {"time": 2936, "pitch": 60, "duration": 4, "velocity": 84}, {"time": 2936, "pitch": 64, "duration": 5, "velocity": 83}, {"time": 2948, "pitch": 38, "duration": 14, "velocity": 84}, {"time": 2948, "pitch": 57, "duration": 3, "velocity": 78}, {"time": 2948, "pitch": 65, "duration": 7, "velocity": 80}, {"time": 2954, "pitch": 57, "duration": 3, "velocity": 80}, {"time": 2960, "pitch": 57, "duration": 2, "velocity": 82}, {"time": 2960, "pitch": 62, "duration": 7, "velocity": 82}, {"time": 2966, "pitch": 57, "duration": 2, "velocity": 82}, {"time": 2972, "pitch": 45, "duration": 18, "velocity": 82}, {"time": 2972, "pitch": 60, "duration": 5, "velocity": 74}, {"time": 2972, "pitch": 64, "duration": 6, "velocity": 81}, {"time": 2978, "pitch": 57, "duration": 3, "velocity": 78}, {"time": 2984, "pitch": 52, "duration": 5, "velocity": 82}, {"time": 2984, "pitch": 57, "duration": 3, "velocity": 79}, {"time": 2984, "pitch": 60, "duration": 6, "velocity": 78}, {"time": 2990, "pitch": 57, "duration": 2, "velocity": 82}, {"time": 2996, "pitch": 41, "duration": 18, "velocity": 83}, {"time": 2996, "pitch": 53, "duration": 4, "velocity": 77}, {"time": 2996, "pitch": 57, "duration": 4, "velocity": 74}, {"time": 3002, "pitch": 57, "duration": 1, "velocity": 73}, {"time": 3002, "pitch": 60, "duration": 4, "velocity": 81}, {"time": 3008, "pitch": 53, "duration": 4, "velocity": 83}, {"time": 3008, "pitch": 65, "duration": 7, "velocity": 82}, {"time": 3020, "pitch": 40, "duration": 24, "velocity": 86}, {"time": 3020, "pitch": 59, "duration": 4, "velocity": 83}, {"time": 3020, "pitch": 64, "duration": 5, "velocity": 83}, {"time": 3026, "pitch": 47, "duration": 17, "velocity": 82}, {"time": 3026, "pitch": 59, "duration": 4, "velocity": 86}, {"time": 3032, "pitch": 59, "duration": 2, "velocity": 84}, {"time": 3032, "pitch": 64, "duration": 3, "velocity": 86}, {"time": 3032, "pitch": 68, "duration": 5, "velocity": 83}, {"time": 3038, "pitch": 59, "duration": 6, "velocity": 82}, {"time": 3038, "pitch": 64, "duration": 6, "velocity": 83}, {"time": 3044, "pitch": 45, "duration": 18, "velocity": 84}, {"time": 3044, "pitch": 57, "duration": 4, "velocity": 74}, {"time": 3044, "pitch": 60, "duration": 4, "velocity": 76}, {"time": 3050, "pitch": 64, "duration": 3, "velocity": 82}, {"time": 3056, "pitch": 57, "duration": 3, "velocity": 79}, {"time": 3056, "pitch": 69, "duration": 4, "velocity": 82}, {"time": 3062, "pitch": 57, "duration": 2, "velocity": 72}, {"time": 3062, "pitch": 64, "duration": 2, "velocity": 74}, {"time": 3068, "pitch": 40, "duration": 15, "velocity": 84}, {"time": 3068, "pitch": 59, "duration": 4, "velocity": 75}, {"time": 3068, "pitch": 64, "duration": 7, "velocity": 78}, {"time": 3074, "pitch": 59, "duration": 4, "velocity": 87}, {"time": 3080, "pitch": 59, "duration": 3, "velocity": 83}, {"time": 3080, "pitch": 64, "duration": 4, "velocity": 85}, {"time": 3080, "pitch": 67, "duration": 6, "velocity": 82}, {"time": 3092, "pitch": 41, "duration": 18, "velocity": 83}, {"time": 3092, "pitch": 53, "duration": 7, "velocity": 76}, {"time": 3092, "pitch": 57, "duration": 7, "velocity": 73}, {"time": 3098, "pitch": 60, "duration": 3, "velocity": 77}, {"time": 3104, "pitch": 53, "duration": 3, "velocity": 78}, {"time": 3104, "pitch": 65, "duration": 6, "velocity": 81}, {"time": 3110, "pitch": 53, "duration": 2, "velocity": 77}, {"time": 3110, "pitch": 60, "duration": 2, "velocity": 75}, {"time": 3116, "pitch": 48, "duration": 15, "velocity": 84}, {"time": 3116, "pitch": 55, "duration": 3, "velocity": 75}, {"time": 3116, "pitch": 60, "duration": 7, "velocity": 75}, {"time": 3122, "pitch": 55, "duration": 3, "velocity": 82}, {"time": 3128, "pitch": 55, "duration": 2, "velocity": 82}, {"time": 3128, "pitch": 60, "duration": 4, "velocity": 84}, {"time": 3128, "pitch": 64, "duration": 5, "velocity": 83}, {"time": 3140, "pitch": 38, "duration": 14, "velocity": 84}, {"time": 3140, "pitch": 57, "duration": 3, "velocity": 78}, {"time": 3140, "pitch": 65, "duration": 7, "velocity": 80}, {"time": 3146, "pitch": 57, "duration": 3, "velocity": 80}, {"time": 3152, "pitch": 57, "duration": 2, "velocity": 82}, {"time": 3152, "pitch": 62, "duration": 7, "velocity": 82}, {"time": 3158, "pitch": 57, "duration": 2, "velocity": 82}, {"time": 3164, "pitch": 45, "duration": 18, "velocity": 82}, {"time": 3164, "pitch": 60, "duration": 5, "velocity": 74}, {"time": 3164, "pitch": 64, "duration": 6, "velocity": 81}, {"time": 3170, "pitch": 57, "duration": 3, "velocity": 78}, {"time": 3176, "pitch": 52, "duration": 5, "velocity": 82}, {"time": 3176, "pitch": 57, "duration": 3, "velocity": 79}, {"time": 3176, "pitch": 60, "duration": 6, "velocity": 78}, {"time": 3182, "pitch": 57, "duration": 2, "velocity": 82}, {"time": 3188, "pitch": 41, "duration": 18, "velocity": 83}, {"time": 3188, "pitch": 53, "duration": 4, "velocity": 77}, {"time": 3188, "pitch": 57, "duration": 4, "velocity": 74}, {"time": 3194, "pitch": 57, "duration": 1, "velocity": 73}, {"time": 3194, "pitch": 60, "duration": 4, "velocity": 81}, {"time": 3200, "pitch": 53, "duration": 4, "velocity": 83}, {"time": 3200, "pitch": 65, "duration": 7, "velocity": 82}, {"time": 3212, "pitch": 40, "duration": 24, "velocity": 86}, {"time": 3212, "pitch": 59, "duration": 4, "velocity": 83}, {"time": 3212, "pitch": 64, "duration": 5, "velocity": 83}, {"time": 3218, "pitch": 47, "duration": 17, "velocity": 82}, {"time": 3218, "pitch": 59, "duration": 4, "velocity": 86}, {"time": 3224, "pitch": 59, "duration": 2, "velocity": 84}, {"time": 3224, "pitch": 64, "duration": 3, "velocity": 86}, {"time": 3224, "pitch": 68, "duration": 5, "velocity": 83}, {"time": 3230, "pitch": 59, "duration": 6, "velocity": 82}, {"time": 3230, "pitch": 64, "duration": 6, "velocity": 83}, {"time": 3236, "pitch": 45, "duration": 18, "velocity": 84}, {"time": 3236, "pitch": 57, "duration": 4, "velocity": 74}, {"time": 3236, "pitch": 60, "duration": 4, "velocity": 76}, {"time": 3242, "pitch": 64, "duration": 3, "velocity": 82}, {"time": 3248, "pitch": 57, "duration": 3, "velocity": 79}, {"time": 3248, "pitch": 69, "duration": 4, "velocity": 82}, {"time": 3254, "pitch": 57, "duration": 2, "velocity": 72}, {"time": 3254, "pitch": 64, "duration": 2, "velocity": 74}, {"time": 3260, "pitch": 40, "duration": 15, "velocity": 84}, {"time": 3260, "pitch": 59, "duration": 4, "velocity": 75}, {"time": 3260, "pitch": 64, "duration": 7, "velocity": 78}, {"time": 3266, "pitch": 59, "duration": 4, "velocity": 87}, {"time": 3272, "pitch": 59, "duration": 3, "velocity": 83}, {"time": 3272, "pitch": 64, "duration": 4, "velocity": 85}, {"time": 3272, "pitch": 67, "duration": 6, "velocity": 82}, {"time": 3284, "pitch": 41, "duration": 18, "velocity": 83}, {"time": 3284, "pitch": 53, "duration": 7, "velocity": 76}, {"time": 3284, "pitch": 57, "duration": 7, "velocity": 73}, {"time": 3290, "pitch": 60, "duration": 3, "velocity": 77}, {"time": 3296, "pitch": 53, "duration": 3, "velocity": 78}, {"time": 3296, "pitch": 65, "duration": 6, "velocity": 81}, {"time": 3302, "pitch": 53, "duration": 2, "velocity": 77}, {"time": 3302, "pitch": 60, "duration": 2, "velocity": 75}, {"time": 3308, "pitch": 48, "duration": 15, "velocity": 84}, {"time": 3308, "pitch": 55, "duration": 3, "velocity": 75}, {"time": 3308, "pitch": 60, "duration": 7, "velocity": 75}, {"time": 3314, "pitch": 55, "duration": 3, "velocity": 82}, {"time": 3320, "pitch": 55, "duration": 2, "velocity": 82}, {"time": 3320, "pitch": 60, "duration": 4, "velocity": 84}, {"time": 3320, "pitch": 64, "duration": 5, "velocity": 83}, {"time": 3332, "pitch": 38, "duration": 14, "velocity": 84}, {"time": 3332, "pitch": 57, "duration": 3, "velocity": 78}, {"time": 3332, "pitch": 65, "duration": 7, "velocity": 80}, {"time": 3338, "pitch": 57, "duration": 3, "velocity": 80}, {"time": 3344, "pitch": 57, "duration": 2, "velocity": 82}, {"time": 3344, "pitch": 62, "duration": 7, "velocity": 82}, {"time": 3350, "pitch": 57, "duration": 2, "velocity": 82}, {"time": 3356, "pitch": 45, "duration": 18, "velocity": 82}, {"time": 3356, "pitch": 60, "duration": 5, "velocity": 74}, {"time": 3356, "pitch": 64, "duration": 6, "velocity": 81}, {"time": 3362, "pitch": 57, "duration": 3, "velocity": 78}, {"time": 3368, "pitch": 52, "duration": 5, "velocity": 82}, {"time": 3368, "pitch": 57, "duration": 3, "velocity": 79}, {"time": 3368, "pitch": 60, "duration": 6, "velocity": 78}, {"time": 3374, "pitch": 57, "duration": 2, "velocity": 82}, {"time": 3380, "pitch": 41, "duration": 18, "velocity": 83}, {"time": 3380, "pitch": 53, "duration": 4, "velocity": 77}, {"time": 3380, "pitch": 57, "duration": 4, "velocity": 74}, {"time": 3386, "pitch": 57, "duration": 1, "velocity": 73}, {"time": 3386, "pitch": 60, "duration": 4, "velocity": 81}, {"time": 3392, "pitch": 53, "duration": 4, "velocity": 83}, {"time": 3392, "pitch": 65, "duration": 7, "velocity": 82}, {"time": 3404, "pitch": 40, "duration": 24, "velocity": 86}, {"time": 3404, "pitch": 59, "duration": 4, "velocity": 83}, {"time": 3404, "pitch": 64, "duration": 5, "velocity": 83}, {"time": 3410, "pitch": 47, "duration": 17, "velocity": 82}, {"time": 3410, "pitch": 59, "duration": 4, "velocity": 86}, {"time": 3416, "pitch": 59, "duration": 2, "velocity": 84}, {"time": 3416, "pitch": 64, "duration": 3, "velocity": 86}, {"time": 3416, "pitch": 68, "duration": 5, "velocity": 83}, {"time": 3422, "pitch": 59, "duration": 6, "velocity": 82}, {"time": 3422, "pitch": 64, "duration": 6, "velocity": 83}, {"time": 3428, "pitch": 45, "duration": 18, "velocity": 84}, {"time": 3428, "pitch": 57, "duration": 4, "velocity": 74}, {"time": 3428, "pitch": 60, "duration": 4, "velocity": 76}, {"time": 3434, "pitch": 64, "duration": 3, "velocity": 82}, {"time": 3440, "pitch": 57, "duration": 3, "velocity": 79}, {"time": 3440, "pitch": 69, "duration": 4, "velocity": 82}, {"time": 3446, "pitch": 57, "duration": 2, "velocity": 72}, {"time": 3446, "pitch": 64, "duration": 2, "velocity": 74}, {"time": 3452, "pitch": 40, "duration": 15, "velocity": 84}, {"time": 3452, "pitch": 59, "duration": 4, "velocity": 75}, {"time": 3452, "pitch": 64, "duration": 7, "velocity": 78}, {"time": 3458, "pitch": 59, "duration": 4, "velocity": 87}, {"time": 3464, "pitch": 59, "duration": 3, "velocity": 83}, {"time": 3464, "pitch": 64, "duration": 4, "velocity": 85}, {"time": 3464, "pitch": 67, "duration": 6, "velocity": 82}, {"time": 3476, "pitch": 41, "duration": 18, "velocity": 83}, {"time": 3476, "pitch": 53, "duration": 7, "velocity": 76}, {"time": 3476, "pitch": 57, "duration": 7, "velocity": 73}, {"time": 3482, "pitch": 60, "duration": 3, "velocity": 77}, {"time": 3488, "pitch": 53, "duration": 3, "velocity": 78}, {"time": 3488, "pitch": 65, "duration": 6, "velocity": 81}, {"time": 3494, "pitch": 53, "duration": 2, "velocity": 77}, {"time": 3494, "pitch": 60, "duration": 2, "velocity": 75}, {"time": 3500, "pitch": 48, "duration": 15, "velocity": 84}, {"time": 3500, "pitch": 55, "duration": 3, "velocity": 75}, {"time": 3500, "pitch": 60, "duration": 7, "velocity": 75}, {"time": 3506, "pitch": 55, "duration": 3, "velocity": 82}, {"time": 3512, "pitch": 55, "duration": 2, "velocity": 82}, {"time": 3512, "pitch": 60, "duration": 4, "velocity": 84}, {"time": 3512, "pitch": 64, "duration": 5, "velocity": 83}, {"time": 3524, "pitch": 38, "duration": 14, "velocity": 84}, {"time": 3524, "pitch": 57, "duration": 3, "velocity": 78}, {"time": 3524, "pitch": 65, "duration": 7, "velocity": 80}, {"time": 3530, "pitch": 57, "duration": 3, "velocity": 80}, {"time": 3536, "pitch": 57, "duration": 2, "velocity": 82}, {"time": 3536, "pitch": 62, "duration": 7, "velocity": 82}, {"time": 3542, "pitch": 57, "duration": 2, "velocity": 82}, {"time": 3548, "pitch": 45, "duration": 18, "velocity": 82}, {"time": 3548, "pitch": 60, "duration": 5, "velocity": 74}, {"time": 3548, "pitch": 64, "duration": 6, "velocity": 81}, {"time": 3554, "pitch": 57, "duration": 3, "velocity": 78}, {"time": 3560, "pitch": 52, "duration": 5, "velocity": 82}, {"time": 3560, "pitch": 57, "duration": 3, "velocity": 79}, {"time": 3560, "pitch": 60, "duration": 6, "velocity": 78}, {"time": 3566, "pitch": 57, "duration": 2, "velocity": 82}, {"time": 3572, "pitch": 41, "duration": 18, "velocity": 83}, {"time": 3572, "pitch": 53, "duration": 4, "velocity": 77}, {"time": 3572, "pitch": 57, "duration": 4, "velocity": 74}, {"time": 3578, "pitch": 57, "duration": 1, "velocity": 73}, {"time": 3578, "pitch": 60, "duration": 4, "velocity": 81}, {"time": 3584, "pitch": 53, "duration": 4, "velocity": 83}, {"time": 3584, "pitch": 65, "duration": 7, "velocity": 82}, {"time": 3596, "pitch": 40, "duration": 24, "velocity": 86}, {"time": 3596, "pitch": 59, "duration": 4, "velocity": 83}, {"time": 3596, "pitch": 64, "duration": 5, "velocity": 83}, {"time": 3602, "pitch": 47, "duration": 17, "velocity": 82}, {"time": 3602, "pitch": 59, "duration": 4, "velocity": 86}, {"time": 3608, "pitch": 59, "duration": 2, "velocity": 84}, {"time": 3608, "pitch": 64, "duration": 3, "velocity": 86}, {"time": 3608, "pitch": 68, "duration": 5, "velocity": 83}, {"time": 3614, "pitch": 59, "duration": 6, "velocity": 82}, {"time": 3614, "pitch": 64, "duration": 6, "velocity": 83}], "annotations": [{"time": 157, "annotation": {"number": 64, "value": 127}, "group": "control_change"}, {"time": 164, "annotation": {"number": 64, "value": 0}, "group": "control_change"}, {"time": 170, "annotation": {"number": 64, "value": 127}, "group": "control_change"}, {"time": 187, "annotation": {"number": 64, "value": 0}, "group": "control_change"}, {"time": 192, "annotation": {"number": 64, "value": 127}, "group": "control_change"}, {"time": 192, "annotation": {"number": 64, "value": 0}, "group": "control_change"}, {"time": 211, "annotation": {"number": 64, "value": 0}, "group": "control_change"}, {"time": 214, "annotation": {"number": 64, "value": 127}, "group": "control_change"}, {"time": 223, "annotation": {"number": 64, "value": 0}, "group": "control_change"}, {"time": 230, "annotation": {"number": 64, "value": 127}, "group": "control_change"}, {"time": 236, "annotation": {"number": 64, "value": 0}, "group": "control_change"}, {"time": 239, "annotation": {"number": 64, "value": 127}, "group": "control_change"}, {"time": 258, "annotation": {"number": 64, "value": 0}, "group": "control_change"}, {"time": 262, "annotation": {"number": 64, "value": 127}, "group": "control_change"}, {"time": 270, "annotation": {"number": 64, "value": 0}, "group": "control_change"}, {"time": 278, "annotation": {"number": 64, "value": 127}, "group": "control_change"}, {"time": 283, "annotation": {"number": 64, "value": 0}, "group": "control_change"}, {"time": 287, "annotation": {"number": 64, "value": 127}, "group": "control_change"}, {"time": 305, "annotation": {"number": 64, "value": 0}, "group": "control_change"}, {"time": 309, "annotation": {"number": 64, "value": 127}, "group": "control_change"}, {"time": 328, "annotation": {"number": 64, "value": 0}, "group": "control_change"}, {"time": 349, "annotation": {"number": 64, "value": 127}, "group": "control_change"}, {"time": 356, "annotation": {"number": 64, "value": 0}, "group": "control_change"}, {"time": 362, "annotation": {"number": 64, "value": 127}, "group": "control_change"}, {"time": 379, "annotation": {"number": 64, "value": 0}, "group": "control_change"}, {"time": 384, "annotation": {"number": 64, "value": 127}, "group": "control_change"}, {"time": 384, "annotation": {"number": 64, "value": 0}, "group": "control_change"}, {"time": 403, "annotation": {"number": 64, "value": 0}, "group": "control_change"}, {"time": 406, "annotation": {"number": 64, "value": 127}, "group": "control_change"}, {"time": 415, "annotation": {"number": 64, "value": 0}, "group": "control_change"}, {"time": 422, "annotation": {"number": 64, "value": 127}, "group": "control_change"}, {"time": 428, "annotation": {"number": 64, "value": 0}, "group": "control_change"}, {"time": 431, "annotation": {"number": 64, "value": 127}, "group": "control_change"}, {"time": 450, "annotation": {"number": 64, "value": 0}, "group": "control_change"}, {"time": 479, "annotation": {"number": 64, "value": 127}, "group": "control_change"}, {"time": 497, "annotation": {"number": 64, "value": 0}, "group": "control_change"}, {"time": 501, "annotation": {"number": 64, "value": 127}, "group": "control_change"}, {"time": 520, "annotation": {"number": 64, "value": 0}, "group": "control_change"}, {"time": 541, "annotation": {"number": 64, "value": 127}, "group": "control_change"}, {"time": 548, "annotation": {"number": 64, "value": 0}, "group": "control_change"}, {"time": 554, "annotation": {"number": 64, "value": 127}, "group": "control_change"}, {"time": 571, "annotation": {"number": 64, "value": 0}, "group": "control_change"}, {"time": 576, "annotation": {"number": 64, "value": 127}, "group": "control_change"}, {"time": 576, "annotation": {"number": 64, "value": 0}, "group": "control_change"}, {"time": 595, "annotation": {"number": 64, "value": 0}, "group": "control_change"}, {"time": 623, "annotation": {"number": 64, "value": 127}, "group": "control_change"}, {"time": 642, "annotation": {"number": 64, "value": 0}, "group": "control_change"}, {"time": 671, "annotation": {"number": 64, "value": 127}, "group": "control_change"}, {"time": 679, "annotation": {"number": 64, "value": 0}, "group": "control_change"}, {"time": 685, "annotation": {"number": 64, "value": 127}, "group": "control_change"}, {"time": 690, "annotation": {"number": 64, "value": 0}, "group": "control_change"}, {"time": 695, "annotation": {"number": 64, "value": 127}, "group": "control_change"}, {"time": 703, "annotation": {"number": 64, "value": 0}, "group": "control_change"}, {"time": 706, "annotation": {"number": 64, "value": 127}, "group": "control_change"}, {"time": 711, "annotation": {"number": 64, "value": 0}, "group": "control_change"}, {"time": 718, "annotation": {"number": 64, "value": 127}, "group": "control_change"}, {"time": 727, "annotation": {"number": 64, "value": 0}, "group": "control_change"}, {"time": 757, "annotation": {"number": 64, "value": 127}, "group": "control_change"}, {"time": 763, "annotation": {"number": 64, "value": 0}, "group": "control_change"}, {"time": 767, "annotation": {"number": 64, "value": 127}, "group": "control_change"}, {"time": 787, "annotation": {"number": 64, "value": 0}, "group": "control_change"}, {"time": 790, "annotation": {"number": 64, "value": 127}, "group": "control_change"}, {"time": 811, "annotation": {"number": 64, "value": 0}, "group": "control_change"}, {"time": 814, "annotation": {"number": 64, "value": 127}, "group": "control_change"}, {"time": 824, "annotation": {"number": 64, "value": 0}, "group": "control_change"}, {"time": 825, "annotation": {"number": 64, "value": 127}, "group": "control_change"}, {"time": 834, "annotation": {"number": 64, "value": 0}, "group": "control_change"}, {"time": 836, "annotation": {"number": 64, "value": 127}, "group": "control_change"}, {"time": 859, "annotation": {"number": 64, "value": 0}, "group": "control_change"}, {"time": 861, "annotation": {"number": 64, "value": 127}, "group": "control_change"}, {"time": 884, "annotation": {"number": 64, "value": 0}, "group": "control_change"}, {"time": 886, "annotation": {"number": 64, "value": 127}, "group": "control_change"}, {"time": 906, "annotation": {"number": 64, "value": 0}, "group": "control_change"}, {"time": 931, "annotation": {"number": 64, "value": 0}, "group": "control_change"}, {"time": 933, "annotation": {"number": 64, "value": 127}, "group": "control_change"}, {"time": 956, "annotation": {"number": 64, "value": 0}, "group": "control_change"}, {"time": 958, "annotation": {"number": 64, "value": 127}, "group": "control_change"}, {"time": 978, "annotation": {"number": 64, "value": 0}, "group": "control_change"}, {"time": 980, "annotation": {"number": 64, "value": 127}, "group": "control_change"}, {"time": 1003, "annotation": {"number": 64, "value": 0}, "group": "control_change"}, {"time": 1005, "annotation": {"number": 64, "value": 127}, "group": "control_change"}, {"time": 1027, "annotation": {"number": 64, "value": 0}, "group": "control_change"}, {"time": 1029, "annotation": {"number": 64, "value": 127}, "group": "control_change"}, {"time": 1051, "annotation": {"number": 64, "value": 0}, "group": "control_change"}, {"time": 1055, "annotation": {"number": 64, "value": 127}, "group": "control_change"}, {"time": 1055, "annotation": {"number": 64, "value": 0}, "group": "control_change"}, {"time": 1075, "annotation": {"number": 64, "value": 0}, "group": "control_change"}, {"time": 1078, "annotation": {"number": 64, "value": 127}, "group": "control_change"}, {"time": 1095, "annotation": {"number": 64, "value": 0}, "group": "control_change"}, {"time": 1123, "annotation": {"number": 64, "value": 0}, "group": "control_change"}, {"time": 1125, "annotation": {"number": 64, "value": 127}, "group": "control_change"}, {"time": 1148, "annotation": {"number": 64, "value": 0}, "group": "control_change"}, {"time": 1150, "annotation": {"number": 64, "value": 127}, "group": "control_change"}, {"time": 1170, "annotation": {"number": 64, "value": 0}, "group": "control_change"}, {"time": 1172, "annotation": {"number": 64, "value": 127}, "group": "control_change"}, {"time": 1195, "annotation": {"number": 64, "value": 0}, "group": "control_change"}, {"time": 1197, "annotation": {"number": 64, "value": 127}, "group": "control_change"}, {"time": 1219, "annotation": {"number": 64, "value": 0}, "group": "control_change"}, {"time": 1221, "annotation": {"number": 64, "value": 127}, "group": "control_change"}, {"time": 1243, "annotation": {"number": 64, "value": 0}, "group": "control_change"}, {"time": 1245, "annotation": {"number": 64, "value": 127}, "group": "control_change"}, {"time": 1267, "annotation": {"number": 64, "value": 0}, "group": "control_change"}, {"time": 1268, "annotation": {"number": 64, "value": 127}, "group": "control_change"}, {"time": 1292, "annotation": {"number": 64, "value": 0}, "group": "control_change"}, {"time": 1295, "annotation": {"number": 64, "value": 127}, "group": "control_change"}, {"time": 1312, "annotation": {"number": 64, "value": 0}, "group": "control_change"}, {"time": 1317, "annotation": {"number": 64, "value": 127}, "group": "control_change"}, {"time": 1339, "annotation": {"number": 64, "value": 0}, "group": "control_change"}, {"time": 1342, "annotation": {"number": 64, "value": 127}, "group": "control_change"}, {"time": 1363, "annotation": {"number": 64, "value": 0}, "group": "control_change"}, {"time": 1368, "annotation": {"number": 64, "value": 127}, "group": "control_change"}, {"time": 1368, "annotation": {"number": 64, "value": 0}, "group": "control_change"}, {"time": 1386, "annotation": {"number": 64, "value": 0}, "group": "control_change"}, {"time": 1392, "annotation": {"number": 64, "value": 127}, "group": "control_change"}, {"time": 1409, "annotation": {"number": 64, "value": 0}, "group": "control_change"}, {"time": 1416, "annotation": {"number": 64, "value": 127}, "group": "control_change"}, {"time": 1435, "annotation": {"number": 64, "value": 0}, "group": "control_change"}, {"time": 1438, "annotation": {"number": 64, "value": 127}, "group": "control_change"}, {"time": 1459, "annotation": {"number": 64, "value": 0}, "group": "control_change"}, {"time": 1465, "annotation": {"number": 64, "value": 127}, "group": "control_change"}, {"time": 1482, "annotation": {"number": 64, "value": 0}, "group": "control_change"}, {"time": 1488, "annotation": {"number": 64, "value": 127}, "group": "control_change"}, {"time": 1501, "annotation": {"number": 64, "value": 0}, "group": "control_change"}, {"time": 1525, "annotation": {"number": 64, "value": 127}, "group": "control_change"}, {"time": 1532, "annotation": {"number": 64, "value": 0}, "group": "control_change"}, {"time": 1538, "annotation": {"number": 64, "value": 127}, "group": "control_change"}, {"time": 1555, "annotation": {"number": 64, "value": 0}, "group": "control_change"}, {"time": 1560, "annotation": {"number": 64, "value": 127}, "group": "control_change"}, {"time": 1560, "annotation": {"number": 64, "value": 0}, "group": "control_change"}, {"time": 1579, "annotation": {"number": 64, "value": 0}, "group": "control_change"}, {"time": 1582, "annotation": {"number": 64, "value": 127}, "group": "control_change"}, {"time": 1591, "annotation": {"number": 64, "value": 0}, "group": "control_change"}, {"time": 1598, "annotation": {"number": 64, "value": 127}, "group": "control_change"}, {"time": 1604, "annotation": {"number": 64, "value": 0}, "group": "control_change"}, {"time": 1607, "annotation": {"number": 64, "value": 127}, "group": "control_change"}, {"time": 1626, "annotation": {"number": 64, "value": 0}, "group": "control_change"}, {"time": 1655, "annotation": {"number": 64, "value": 127}, "group": "control_change"}, {"time": 1673, "annotation": {"number": 64, "value": 0}, "group": "control_change"}, {"time": 1677, "annotation": {"number": 64, "value": 127}, "group": "control_change"}, {"time": 1696, "annotation": {"number": 64, "value": 0}, "group": "control_change"}, {"time": 1717, "annotation": {"number": 64, "value": 127}, "group": "control_change"}, {"time": 1724, "annotation": {"number": 64, "value": 0}, "group": "control_change"}, {"time": 1730, "annotation": {"number": 64, "value": 127}, "group": "control_change"}, {"time": 1747, "annotation": {"number": 64, "value": 0}, "group": "control_change"}, {"time": 1752, "annotation": {"number": 64, "value": 127}, "group": "control_change"}, {"time": 1752, "annotation": {"number": 64, "value": 0}, "group": "control_change"}, {"time": 1771, "annotation": {"number": 64, "value": 0}, "group": "control_change"}, {"time": 1799, "annotation": {"number": 64, "value": 127}, "group": "control_change"}, {"time": 1818, "annotation": {"number": 64, "value": 0}, "group": "control_change"}, {"time": 1847, "annotation": {"number": 64, "value": 127}, "group": "control_change"}, {"time": 1855, "annotation": {"number": 64, "value": 0}, "group": "control_change"}, {"time": 1861, "annotation": {"number": 64, "value": 127}, "group": "control_change"}, {"time": 1866, "annotation": {"number": 64, "value": 0}, "group": "control_change"}, {"time": 1871, "annotation": {"number": 64, "value": 127}, "group": "control_change"}, {"time": 1879, "annotation": {"number": 64, "value": 0}, "group": "control_change"}, {"time": 1882, "annotation": {"number": 64, "value": 127}, "group": "control_change"}, {"time": 1887, "annotation": {"number": 64, "value": 0}, "group": "control_change"}, {"time": 1894, "annotation": {"number": 64, "value": 127}, "group": "control_change"}, {"time": 1903, "annotation": {"number": 64, "value": 0}, "group": "control_change"}, {"time": 1933, "annotation": {"number": 64, "value": 127}, "group": "control_change"}, {"time": 1939, "annotation": {"number": 64, "value": 0}, "group": "control_change"}, {"time": 1943, "annotation": {"number": 64, "value": 127}, "group": "control_change"}, {"time": 1963, "annotation": {"number": 64, "value": 0}, "group": "control_change"}, {"time": 1966, "annotation": {"number": 64, "value": 127}, "group": "control_change"}, {"time": 1987, "annotation": {"number": 64, "value": 0}, "group": "control_change"}, {"time": 1990, "annotation": {"number": 64, "value": 127}, "group": "control_change"}, {"time": 2000, "annotation": {"number": 64, "value": 0}, "group": "control_change"}, {"time": 2001, "annotation": {"number": 64, "value": 127}, "group": "control_change"}, {"time": 2010, "annotation": {"number": 64, "value": 0}, "group": "control_change"}, {"time": 2012, "annotation": {"number": 64, "value": 127}, "group": "control_change"}, {"time": 2035, "annotation": {"number": 64, "value": 0}, "group": "control_change"}, {"time": 2037, "annotation": {"number": 64, "value": 127}, "group": "control_change"}, {"time": 2060, "annotation": {"number": 64, "value": 0}, "group": "control_change"}, {"time": 2062, "annotation": {"number": 64, "value": 127}, "group": "control_change"}, {"time": 2082, "annotation": {"number": 64, "value": 0}, "group": "control_change"}, {"time": 2107, "annotation": {"number": 64, "value": 0}, "group": "control_change"}, {"time": 2109, "annotation": {"number": 64, "value": 127}, "group": "control_change"}, {"time": 2132, "annotation": {"number": 64, "value": 0}, "group": "control_change"}, {"time": 2134, "annotation": {"number": 64, "value": 127}, "group": "control_change"}, {"time": 2154, "annotation": {"number": 64, "value": 0}, "group": "control_change"}, {"time": 2156, "annotation": {"number": 64, "value": 127}, "group": "control_change"}, {"time": 2179, "annotation": {"number": 64, "value": 0}, "group": "control_change"}, {"time": 2181, "annotation": {"number": 64, "value": 127}, "group": "control_change"}, {"time": 2203, "annotation": {"number": 64, "value": 0}, "group": "control_change"}, {"time": 2205, "annotation": {"number": 64, "value": 127}, "group": "control_change"}, {"time": 2227, "annotation": {"number": 64, "value": 0}, "group": "control_change"}, {"time": 2231, "annotation": {"number": 64, "value": 127}, "group": "control_change"}, {"time": 2231, "annotation": {"number": 64, "value": 0}, "group": "control_change"}, {"time": 2251, "annotation": {"number": 64, "value": 0}, "group": "control_change"}, {"time": 2254, "annotation": {"number": 64, "value": 127}, "group": "control_change"}, {"time": 2271, "annotation": {"number": 64, "value": 0}, "group": "control_change"}, {"time": 2299, "annotation": {"number": 64, "value": 0}, "group": "control_change"}, {"time": 2301, "annotation": {"number": 64, "value": 127}, "group": "control_change"}, {"time": 2324, "annotation": {"number": 64, "value": 0}, "group": "control_change"}, {"time": 2326, "annotation": {"number": 64, "value": 127}, "group": "control_change"}, {"time": 2346, "annotation": {"number": 64, "value": 0}, "group": "control_change"}, {"time": 2348, "annotation": {"number": 64, "value": 127}, "group": "control_change"}, {"time": 2371, "annotation": {"number": 64, "value": 0}, "group": "control_change"}, {"time": 2373, "annotation": {"number": 64, "value": 127}, "group": "control_change"}, {"time": 2395, "annotation": {"number": 64, "value": 0}, "group": "control_change"}, {"time": 2397, "annotation": {"number": 64, "value": 127}, "group": "control_change"}, {"time": 2419, "annotation": {"number": 64, "value": 0}, "group": "control_change"}, {"time": 2421, "annotation": {"number": 64, "value": 127}, "group": "control_change"}, {"time": 2443, "annotation": {"number": 64, "value": 0}, "group": "control_change"}, {"time": 2444, "annotation": {"number": 64, "value": 127}, "group": "control_change"}, {"time": 2468, "annotation": {"number": 64, "value": 0}, "group": "control_change"}, {"time": 2491, "annotation": {"number": 64, "value": 0}, "group": "control_change"}, {"time": 2493, "annotation": {"number": 64, "value": 127}, "group": "control_change"}, {"time": 2516, "annotation": {"number": 64, "value": 0}, "group": "control_change"}, {"time": 2518, "annotation": {"number": 64, "value": 127}, "group": "control_change"}, {"time": 2538, "annotation": {"number": 64, "value": 0}, "group": "control_change"}, {"time": 2540, "annotation": {"number": 64, "value": 127}, "group": "control_change"}, {"time": 2563, "annotation": {"number": 64, "value": 0}, "group": "control_change"}, {"time": 2565, "annotation": {"number": 64, "value": 127}, "group": "control_change"}, {"time": 2587, "annotation": {"number": 64, "value": 0}, "group": "control_change"}, {"time": 2589, "annotation": {"number": 64, "value": 127}, "group": "control_change"}, {"time": 2611, "annotation": {"number": 64, "value": 0}, "group": "control_change"}, {"time": 2615, "annotation": {"number": 64, "value": 127}, "group": "control_change"}, {"time": 2615, "annotation": {"number": 64, "value": 0}, "group": "control_change"}, {"time": 2635, "annotation": {"number": 64, "value": 0}, "group": "control_change"}, {"time": 2638, "annotation": {"number": 64, "value": 127}, "group": "control_change"}, {"time": 2655, "annotation": {"number": 64, "value": 0}, "group": "control_change"}, {"time": 2683, "annotation": {"number": 64, "value": 0}, "group": "control_change"}, {"time": 2685, "annotation": {"number": 64, "value": 127}, "group": "control_change"}, {"time": 2708, "annotation": {"number": 64, "value": 0}, "group": "control_change"}, {"time": 2710, "annotation": {"number": 64, "value": 127}, "group": "control_change"}, {"time": 2730, "annotation": {"number": 64, "value": 0}, "group": "control_change"}, {"time": 2732, "annotation": {"number": 64, "value": 127}, "group": "control_change"}, {"time": 2755, "annotation": {"number": 64, "value": 0}, "group": "control_change"}, {"time": 2757, "annotation": {"number": 64, "value": 127}, "group": "control_change"}, {"time": 2779, "annotation": {"number": 64, "value": 0}, "group": "control_change"}, {"time": 2781, "annotation": {"number": 64, "value": 127}, "group": "control_change"}, {"time": 2803, "annotation": {"number": 64, "value": 0}, "group": "control_change"}, {"time": 2805, "annotation": {"number": 64, "value": 127}, "group": "control_change"}, {"time": 2827, "annotation": {"number": 64, "value": 0}, "group": "control_change"}, {"time": 2828, "annotation": {"number": 64, "value": 127}, "group": "control_change"}, {"time": 2852, "annotation": {"number": 64, "value": 0}, "group": "control_change"}, {"time": 2876, "annotation": {"number": 64, "value": 0}, "group": "control_change"}, {"time": 2878, "annotation": {"number": 64, "value": 127}, "group": "control_change"}, {"time": 2899, "annotation": {"number": 64, "value": 0}, "group": "control_change"}, {"time": 2903, "annotation": {"number": 64, "value": 127}, "group": "control_change"}, {"time": 2924, "annotation": {"number": 64, "value": 0}, "group": "control_change"}, {"time": 2926, "annotation": {"number": 64, "value": 127}, "group": "control_change"}, {"time": 2947, "annotation": {"number": 64, "value": 0}, "group": "control_change"}, {"time": 2950, "annotation": {"number": 64, "value": 127}, "group": "control_change"}, {"time": 2971, "annotation": {"number": 64, "value": 0}, "group": "control_change"}, {"time": 2974, "annotation": {"number": 64, "value": 127}, "group": "control_change"}, {"time": 2995, "annotation": {"number": 64, "value": 0}, "group": "control_change"}, {"time": 2998, "annotation": {"number": 64, "value": 127}, "group": "control_change"}, {"time": 3021, "annotation": {"number": 64, "value": 0}, "group": "control_change"}, {"time": 3023, "annotation": {"number": 64, "value": 127}, "group": "control_change"}, {"time": 3039, "annotation": {"number": 64, "value": 0}, "group": "control_change"}, {"time": 3068, "annotation": {"number": 64, "value": 0}, "group": "control_change"}, {"time": 3070, "annotation": {"number": 64, "value": 127}, "group": "control_change"}, {"time": 3091, "annotation": {"number": 64, "value": 0}, "group": "control_change"}, {"time": 3095, "annotation": {"number": 64, "value": 127}, "group": "control_change"}, {"time": 3116, "annotation": {"number": 64, "value": 0}, "group": "control_change"}, {"time": 3118, "annotation": {"number": 64, "value": 127}, "group": "control_change"}, {"time": 3139, "annotation": {"number": 64, "value": 0}, "group": "control_change"}, {"time": 3142, "annotation": {"number": 64, "value": 127}, "group": "control_change"}, {"time": 3163, "annotation": {"number": 64, "value": 0}, "group": "control_change"}, {"time": 3166, "annotation": {"number": 64, "value": 127}, "group": "control_change"}, {"time": 3187, "annotation": {"number": 64, "value": 0}, "group": "control_change"}, {"time": 3190, "annotation": {"number": 64, "value": 127}, "group": "control_change"}, {"time": 3213, "annotation": {"number": 64, "value": 0}, "group": "control_change"}, {"time": 3215, "annotation": {"number": 64, "value": 127}, "group": "control_change"}, {"time": 3231, "annotation": {"number": 64, "value": 0}, "group": "control_change"}, {"time": 3260, "annotation": {"number": 64, "value": 0}, "group": "control_change"}, {"time": 3262, "annotation": {"number": 64, "value": 127}, "group": "control_change"}, {"time": 3283, "annotation": {"number": 64, "value": 0}, "group": "control_change"}, {"time": 3287, "annotation": {"number": 64, "value": 127}, "group": "control_change"}, {"time": 3308, "annotation": {"number": 64, "value": 0}, "group": "control_change"}, {"time": 3310, "annotation": {"number": 64, "value": 127}, "group": "control_change"}, {"time": 3331, "annotation": {"number": 64, "value": 0}, "group": "control_change"}, {"time": 3334, "annotation": {"number": 64, "value": 127}, "group": "control_change"}, {"time": 3355, "annotation": {"number": 64, "value": 0}, "group": "control_change"}, {"time": 3358, "annotation": {"number": 64, "value": 127}, "group": "control_change"}, {"time": 3379, "annotation": {"number": 64, "value": 0}, "group": "control_change"}, {"time": 3382, "annotation": {"number": 64, "value": 127}, "group": "control_change"}, {"time": 3405, "annotation": {"number": 64, "value": 0}, "group": "control_change"}, {"time": 3407, "annotation": {"number": 64, "value": 127}, "group": "control_change"}, {"time": 3423, "annotation": {"number": 64, "value": 0}, "group": "control_change"}, {"time": 3452, "annotation": {"number": 64, "value": 0}, "group": "control_change"}, {"time": 3454, "annotation": {"number": 64, "value": 127}, "group": "control_change"}, {"time": 3475, "annotation": {"number": 64, "value": 0}, "group": "control_change"}, {"time": 3479, "annotation": {"number": 64, "value": 127}, "group": "control_change"}, {"time": 3500, "annotation": {"number": 64, "value": 0}, "group": "control_change"}, {"time": 3502, "annotation": {"number": 64, "value": 127}, "group": "control_change"}, {"time": 3523, "annotation": {"number": 64, "value": 0}, "group": "control_change"}, {"time": 3526, "annotation": {"number": 64, "value": 127}, "group": "control_change"}, {"time": 3547, "annotation": {"number": 64, "value": 0}, "group": "control_change"}, {"time": 3550, "annotation": {"number": 64, "value": 127}, "group": "control_change"}, {"time": 3571, "annotation": {"number": 64, "value": 0}, "group": "control_change"}, {"time": 3574, "annotation": {"number": 64, "value": 127}, "group": "control_change"}, {"time": 3597, "annotation": {"number": 64, "value": 0}, "group": "control_change"}, {"time": 3599, "annotation": {"number": 64, "value": 127}, "group": "control_change"}, {"time": 3615, "annotation": {"number": 64, "value": 0}, "group": "control_change"}]}]}