{"metadata": {"schema_version": "0.2", "title": "None", "source_filename": "689.mid", "source_format": "midi"}, "resolution": 12, "tempos": [{"time": 0, "qpm": 64.0}], "time_signatures": [{"time": 0, "numerator": 1, "denominator": 4}], "tracks": [{"program": 0, "is_drum": false, "name": "MELODY", "notes": [{"time": 217, "pitch": 69, "duration": 8, "velocity": 85}, {"time": 229, "pitch": 69, "duration": 4, "velocity": 83}, {"time": 233, "pitch": 65, "duration": 4, "velocity": 82}, {"time": 237, "pitch": 69, "duration": 4, "velocity": 83}, {"time": 241, "pitch": 67, "duration": 17, "velocity": 78}, {"time": 265, "pitch": 65, "duration": 3, "velocity": 78}, {"time": 269, "pitch": 65, "duration": 3, "velocity": 72}, {"time": 273, "pitch": 65, "duration": 3, "velocity": 83}, {"time": 277, "pitch": 65, "duration": 3, "velocity": 85}, {"time": 281, "pitch": 62, "duration": 3, "velocity": 83}, {"time": 285, "pitch": 65, "duration": 4, "velocity": 82}, {"time": 289, "pitch": 64, "duration": 16, "velocity": 83}, {"time": 313, "pitch": 65, "duration": 11, "velocity": 80}, {"time": 325, "pitch": 65, "duration": 3, "velocity": 80}, {"time": 329, "pitch": 64, "duration": 3, "velocity": 82}, {"time": 333, "pitch": 65, "duration": 3, "velocity": 79}, {"time": 337, "pitch": 65, "duration": 11, "velocity": 82}, {"time": 349, "pitch": 69, "duration": 10, "velocity": 84}, {"time": 361, "pitch": 67, "duration": 3, "velocity": 82}, {"time": 365, "pitch": 67, "duration": 2, "velocity": 75}, {"time": 369, "pitch": 67, "duration": 3, "velocity": 82}, {"time": 373, "pitch": 67, "duration": 3, "velocity": 82}, {"time": 377, "pitch": 65, "duration": 3, "velocity": 84}, {"time": 381, "pitch": 64, "duration": 4, "velocity": 86}, {"time": 385, "pitch": 69, "duration": 17, "velocity": 83}, {"time": 409, "pitch": 69, "duration": 12, "velocity": 84}, {"time": 421, "pitch": 69, "duration": 4, "velocity": 84}, {"time": 425, "pitch": 74, "duration": 4, "velocity": 83}, {"time": 429, "pitch": 65, "duration": 4, "velocity": 84}, {"time": 433, "pitch": 67, "duration": 19, "velocity": 80}, {"time": 457, "pitch": 69, "duration": 2, "velocity": 83}, {"time": 459, "pitch": 67, "duration": 2, "velocity": 78}, {"time": 461, "pitch": 69, "duration": 2, "velocity": 73}, {"time": 463, "pitch": 67, "duration": 2, "velocity": 72}, {"time": 465, "pitch": 69, "duration": 2, "velocity": 78}, {"time": 467, "pitch": 67, "duration": 2, "velocity": 79}, {"time": 469, "pitch": 69, "duration": 4, "velocity": 81}, {"time": 473, "pitch": 74, "duration": 5, "velocity": 87}, {"time": 477, "pitch": 65, "duration": 4, "velocity": 77}, {"time": 481, "pitch": 67, "duration": 15, "velocity": 78}, {"time": 505, "pitch": 65, "duration": 11, "velocity": 76}, {"time": 517, "pitch": 65, "duration": 4, "velocity": 80}, {"time": 521, "pitch": 64, "duration": 4, "velocity": 81}, {"time": 525, "pitch": 65, "duration": 3, "velocity": 84}, {"time": 529, "pitch": 65, "duration": 12, "velocity": 83}, {"time": 541, "pitch": 69, "duration": 10, "velocity": 79}, {"time": 553, "pitch": 67, "duration": 2, "velocity": 77}, {"time": 555, "pitch": 65, "duration": 2, "velocity": 76}, {"time": 557, "pitch": 67, "duration": 2, "velocity": 77}, {"time": 559, "pitch": 65, "duration": 2, "velocity": 75}, {"time": 561, "pitch": 67, "duration": 2, "velocity": 81}, {"time": 563, "pitch": 65, "duration": 2, "velocity": 82}, {"time": 565, "pitch": 67, "duration": 4, "velocity": 82}, {"time": 569, "pitch": 65, "duration": 3, "velocity": 82}, {"time": 573, "pitch": 64, "duration": 3, "velocity": 81}, {"time": 577, "pitch": 69, "duration": 16, "velocity": 76}, {"time": 601, "pitch": 62, "duration": 11, "velocity": 82}, {"time": 613, "pitch": 65, "duration": 10, "velocity": 77}, {"time": 625, "pitch": 65, "duration": 5, "velocity": 82}, {"time": 629, "pitch": 64, "duration": 4, "velocity": 83}, {"time": 633, "pitch": 62, "duration": 5, "velocity": 80}, {"time": 637, "pitch": 67, "duration": 8, "velocity": 76}, {"time": 649, "pitch": 69, "duration": 3, "velocity": 77}, {"time": 653, "pitch": 69, "duration": 3, "velocity": 75}, {"time": 657, "pitch": 69, "duration": 3, "velocity": 75}, {"time": 661, "pitch": 69, "duration": 3, "velocity": 77}, {"time": 665, "pitch": 67, "duration": 3, "velocity": 76}, {"time": 669, "pitch": 65, "duration": 4, "velocity": 81}, {"time": 673, "pitch": 69, "duration": 4, "velocity": 76}, {"time": 677, "pitch": 67, "duration": 4, "velocity": 78}, {"time": 681, "pitch": 65, "duration": 4, "velocity": 75}, {"time": 685, "pitch": 67, "duration": 9, "velocity": 82}, {"time": 697, "pitch": 62, "duration": 12, "velocity": 86}, {"time": 709, "pitch": 65, "duration": 10, "velocity": 82}, {"time": 721, "pitch": 65, "duration": 5, "velocity": 82}, {"time": 725, "pitch": 64, "duration": 4, "velocity": 79}, {"time": 729, "pitch": 62, "duration": 4, "velocity": 79}, {"time": 733, "pitch": 67, "duration": 9, "velocity": 76}, {"time": 745, "pitch": 69, "duration": 3, "velocity": 83}, {"time": 749, "pitch": 69, "duration": 3, "velocity": 80}, {"time": 753, "pitch": 69, "duration": 3, "velocity": 86}, {"time": 757, "pitch": 69, "duration": 3, "velocity": 83}, {"time": 761, "pitch": 72, "duration": 3, "velocity": 86}, {"time": 765, "pitch": 74, "duration": 3, "velocity": 87}, {"time": 769, "pitch": 74, "duration": 11, "velocity": 88}, {"time": 781, "pitch": 72, "duration": 8, "velocity": 83}, {"time": 793, "pitch": 72, "duration": 5, "velocity": 86}, {"time": 801, "pitch": 72, "duration": 3, "velocity": 83}, {"time": 805, "pitch": 72, "duration": 3, "velocity": 82}, {"time": 809, "pitch": 70, "duration": 3, "velocity": 86}, {"time": 813, "pitch": 69, "duration": 3, "velocity": 83}, {"time": 817, "pitch": 76, "duration": 6, "velocity": 83}, {"time": 825, "pitch": 76, "duration": 3, "velocity": 80}, {"time": 829, "pitch": 74, "duration": 3, "velocity": 83}, {"time": 833, "pitch": 74, "duration": 2, "velocity": 82}, {"time": 837, "pitch": 76, "duration": 3, "velocity": 75}, {"time": 841, "pitch": 77, "duration": 5, "velocity": 74}, {"time": 849, "pitch": 65, "duration": 3, "velocity": 82}, {"time": 853, "pitch": 65, "duration": 3, "velocity": 82}, {"time": 857, "pitch": 67, "duration": 2, "velocity": 83}, {"time": 861, "pitch": 69, "duration": 3, "velocity": 76}, {"time": 865, "pitch": 69, "duration": 10, "velocity": 80}, {"time": 877, "pitch": 69, "duration": 3, "velocity": 83}, {"time": 881, "pitch": 72, "duration": 3, "velocity": 78}, {"time": 885, "pitch": 69, "duration": 3, "velocity": 82}, {"time": 889, "pitch": 67, "duration": 4, "velocity": 79}, {"time": 893, "pitch": 65, "duration": 7, "velocity": 83}, {"time": 905, "pitch": 74, "duration": 5, "velocity": 88}, {"time": 911, "pitch": 69, "duration": 2, "velocity": 84}, {"time": 913, "pitch": 67, "duration": 4, "velocity": 75}, {"time": 917, "pitch": 65, "duration": 9, "velocity": 80}, {"time": 937, "pitch": 67, "duration": 3, "velocity": 73}, {"time": 941, "pitch": 67, "duration": 2, "velocity": 77}, {"time": 945, "pitch": 67, "duration": 2, "velocity": 78}, {"time": 949, "pitch": 67, "duration": 3, "velocity": 75}, {"time": 953, "pitch": 65, "duration": 3, "velocity": 83}, {"time": 957, "pitch": 62, "duration": 3, "velocity": 82}, {"time": 961, "pitch": 69, "duration": 12, "velocity": 81}, {"time": 973, "pitch": 67, "duration": 10, "velocity": 75}, {"time": 985, "pitch": 72, "duration": 5, "velocity": 86}, {"time": 993, "pitch": 72, "duration": 3, "velocity": 83}, {"time": 997, "pitch": 72, "duration": 3, "velocity": 82}, {"time": 1001, "pitch": 70, "duration": 3, "velocity": 86}, {"time": 1005, "pitch": 69, "duration": 3, "velocity": 83}, {"time": 1009, "pitch": 76, "duration": 6, "velocity": 83}, {"time": 1017, "pitch": 76, "duration": 3, "velocity": 80}, {"time": 1021, "pitch": 74, "duration": 3, "velocity": 83}, {"time": 1025, "pitch": 74, "duration": 2, "velocity": 82}, {"time": 1029, "pitch": 76, "duration": 3, "velocity": 75}, {"time": 1033, "pitch": 77, "duration": 5, "velocity": 74}, {"time": 1041, "pitch": 65, "duration": 3, "velocity": 82}, {"time": 1045, "pitch": 65, "duration": 3, "velocity": 82}, {"time": 1049, "pitch": 67, "duration": 2, "velocity": 83}, {"time": 1053, "pitch": 69, "duration": 3, "velocity": 76}, {"time": 1057, "pitch": 69, "duration": 10, "velocity": 80}, {"time": 1069, "pitch": 69, "duration": 3, "velocity": 83}, {"time": 1073, "pitch": 72, "duration": 3, "velocity": 78}, {"time": 1077, "pitch": 69, "duration": 3, "velocity": 82}, {"time": 1081, "pitch": 67, "duration": 4, "velocity": 79}, {"time": 1085, "pitch": 65, "duration": 7, "velocity": 83}, {"time": 1097, "pitch": 74, "duration": 5, "velocity": 88}, {"time": 1101, "pitch": 69, "duration": 4, "velocity": 84}, {"time": 1105, "pitch": 67, "duration": 6, "velocity": 75}, {"time": 1113, "pitch": 69, "duration": 4, "velocity": 80}, {"time": 1117, "pitch": 67, "duration": 7, "velocity": 75}, {"time": 1125, "pitch": 65, "duration": 4, "velocity": 82}, {"time": 1129, "pitch": 62, "duration": 23, "velocity": 81}, {"time": 1225, "pitch": 69, "duration": 8, "velocity": 85}, {"time": 1237, "pitch": 69, "duration": 4, "velocity": 83}, {"time": 1241, "pitch": 65, "duration": 4, "velocity": 82}, {"time": 1245, "pitch": 69, "duration": 4, "velocity": 83}, {"time": 1249, "pitch": 67, "duration": 17, "velocity": 78}, {"time": 1273, "pitch": 65, "duration": 3, "velocity": 78}, {"time": 1277, "pitch": 65, "duration": 3, "velocity": 72}, {"time": 1281, "pitch": 65, "duration": 3, "velocity": 83}, {"time": 1285, "pitch": 65, "duration": 3, "velocity": 85}, {"time": 1289, "pitch": 62, "duration": 3, "velocity": 83}, {"time": 1293, "pitch": 65, "duration": 4, "velocity": 82}, {"time": 1297, "pitch": 64, "duration": 16, "velocity": 83}, {"time": 1321, "pitch": 65, "duration": 11, "velocity": 80}, {"time": 1333, "pitch": 65, "duration": 3, "velocity": 80}, {"time": 1337, "pitch": 64, "duration": 3, "velocity": 82}, {"time": 1341, "pitch": 65, "duration": 3, "velocity": 79}, {"time": 1345, "pitch": 65, "duration": 11, "velocity": 82}, {"time": 1357, "pitch": 69, "duration": 10, "velocity": 84}, {"time": 1369, "pitch": 67, "duration": 3, "velocity": 82}, {"time": 1373, "pitch": 67, "duration": 2, "velocity": 75}, {"time": 1377, "pitch": 67, "duration": 3, "velocity": 82}, {"time": 1381, "pitch": 67, "duration": 3, "velocity": 82}, {"time": 1385, "pitch": 65, "duration": 3, "velocity": 84}, {"time": 1389, "pitch": 64, "duration": 4, "velocity": 86}, {"time": 1393, "pitch": 69, "duration": 17, "velocity": 83}, {"time": 1417, "pitch": 69, "duration": 12, "velocity": 84}, {"time": 1429, "pitch": 69, "duration": 4, "velocity": 84}, {"time": 1433, "pitch": 74, "duration": 4, "velocity": 83}, {"time": 1437, "pitch": 65, "duration": 4, "velocity": 84}, {"time": 1441, "pitch": 67, "duration": 19, "velocity": 80}, {"time": 1465, "pitch": 69, "duration": 2, "velocity": 83}, {"time": 1467, "pitch": 67, "duration": 2, "velocity": 78}, {"time": 1469, "pitch": 69, "duration": 2, "velocity": 73}, {"time": 1471, "pitch": 67, "duration": 2, "velocity": 72}, {"time": 1473, "pitch": 69, "duration": 2, "velocity": 78}, {"time": 1475, "pitch": 67, "duration": 2, "velocity": 79}, {"time": 1477, "pitch": 69, "duration": 4, "velocity": 81}, {"time": 1481, "pitch": 74, "duration": 5, "velocity": 87}, {"time": 1485, "pitch": 65, "duration": 4, "velocity": 77}, {"time": 1489, "pitch": 67, "duration": 15, "velocity": 78}, {"time": 1513, "pitch": 65, "duration": 11, "velocity": 76}, {"time": 1525, "pitch": 65, "duration": 4, "velocity": 80}, {"time": 1529, "pitch": 64, "duration": 4, "velocity": 81}, {"time": 1533, "pitch": 65, "duration": 3, "velocity": 84}, {"time": 1537, "pitch": 65, "duration": 12, "velocity": 83}, {"time": 1549, "pitch": 69, "duration": 10, "velocity": 79}, {"time": 1561, "pitch": 67, "duration": 2, "velocity": 77}, {"time": 1563, "pitch": 65, "duration": 2, "velocity": 76}, {"time": 1565, "pitch": 67, "duration": 2, "velocity": 77}, {"time": 1567, "pitch": 65, "duration": 2, "velocity": 75}, {"time": 1569, "pitch": 67, "duration": 2, "velocity": 81}, {"time": 1571, "pitch": 65, "duration": 2, "velocity": 82}, {"time": 1573, "pitch": 67, "duration": 4, "velocity": 82}, {"time": 1577, "pitch": 65, "duration": 3, "velocity": 82}, {"time": 1581, "pitch": 64, "duration": 3, "velocity": 81}, {"time": 1585, "pitch": 69, "duration": 16, "velocity": 76}, {"time": 1609, "pitch": 62, "duration": 11, "velocity": 82}, {"time": 1621, "pitch": 65, "duration": 10, "velocity": 77}, {"time": 1633, "pitch": 65, "duration": 5, "velocity": 82}, {"time": 1637, "pitch": 64, "duration": 4, "velocity": 83}, {"time": 1641, "pitch": 62, "duration": 5, "velocity": 80}, {"time": 1645, "pitch": 67, "duration": 8, "velocity": 76}, {"time": 1657, "pitch": 69, "duration": 3, "velocity": 77}, {"time": 1661, "pitch": 69, "duration": 3, "velocity": 75}, {"time": 1665, "pitch": 69, "duration": 3, "velocity": 75}, {"time": 1669, "pitch": 69, "duration": 3, "velocity": 77}, {"time": 1673, "pitch": 67, "duration": 3, "velocity": 76}, {"time": 1677, "pitch": 65, "duration": 4, "velocity": 81}, {"time": 1681, "pitch": 69, "duration": 4, "velocity": 76}, {"time": 1685, "pitch": 67, "duration": 4, "velocity": 78}, {"time": 1689, "pitch": 65, "duration": 4, "velocity": 75}, {"time": 1693, "pitch": 67, "duration": 9, "velocity": 82}, {"time": 1705, "pitch": 62, "duration": 12, "velocity": 86}, {"time": 1717, "pitch": 65, "duration": 10, "velocity": 82}, {"time": 1729, "pitch": 65, "duration": 5, "velocity": 82}, {"time": 1733, "pitch": 64, "duration": 4, "velocity": 79}, {"time": 1737, "pitch": 62, "duration": 4, "velocity": 79}, {"time": 1741, "pitch": 67, "duration": 9, "velocity": 76}, {"time": 1753, "pitch": 69, "duration": 3, "velocity": 83}, {"time": 1757, "pitch": 69, "duration": 3, "velocity": 80}, {"time": 1761, "pitch": 69, "duration": 3, "velocity": 86}, {"time": 1765, "pitch": 69, "duration": 3, "velocity": 83}, {"time": 1769, "pitch": 72, "duration": 3, "velocity": 86}, {"time": 1773, "pitch": 74, "duration": 3, "velocity": 87}, {"time": 1777, "pitch": 74, "duration": 11, "velocity": 88}, {"time": 1789, "pitch": 72, "duration": 8, "velocity": 83}, {"time": 1801, "pitch": 72, "duration": 5, "velocity": 86}, {"time": 1809, "pitch": 72, "duration": 3, "velocity": 83}, {"time": 1813, "pitch": 72, "duration": 3, "velocity": 82}, {"time": 1817, "pitch": 70, "duration": 3, "velocity": 86}, {"time": 1821, "pitch": 69, "duration": 3, "velocity": 83}, {"time": 1825, "pitch": 76, "duration": 6, "velocity": 83}, {"time": 1833, "pitch": 76, "duration": 3, "velocity": 80}, {"time": 1837, "pitch": 74, "duration": 3, "velocity": 83}, {"time": 1841, "pitch": 74, "duration": 2, "velocity": 82}, {"time": 1845, "pitch": 76, "duration": 3, "velocity": 75}, {"time": 1849, "pitch": 77, "duration": 5, "velocity": 74}, {"time": 1857, "pitch": 65, "duration": 3, "velocity": 82}, {"time": 1861, "pitch": 65, "duration": 3, "velocity": 82}, {"time": 1865, "pitch": 67, "duration": 2, "velocity": 83}, {"time": 1869, "pitch": 69, "duration": 3, "velocity": 76}, {"time": 1873, "pitch": 69, "duration": 10, "velocity": 80}, {"time": 1885, "pitch": 69, "duration": 3, "velocity": 83}, {"time": 1889, "pitch": 72, "duration": 3, "velocity": 78}, {"time": 1893, "pitch": 69, "duration": 3, "velocity": 82}, {"time": 1897, "pitch": 67, "duration": 4, "velocity": 79}, {"time": 1901, "pitch": 65, "duration": 7, "velocity": 83}, {"time": 1913, "pitch": 74, "duration": 5, "velocity": 88}, {"time": 1919, "pitch": 69, "duration": 2, "velocity": 84}, {"time": 1921, "pitch": 67, "duration": 4, "velocity": 75}, {"time": 1925, "pitch": 65, "duration": 9, "velocity": 80}, {"time": 1945, "pitch": 67, "duration": 3, "velocity": 73}, {"time": 1949, "pitch": 67, "duration": 2, "velocity": 77}, {"time": 1953, "pitch": 67, "duration": 2, "velocity": 78}, {"time": 1957, "pitch": 67, "duration": 3, "velocity": 75}, {"time": 1961, "pitch": 65, "duration": 3, "velocity": 83}, {"time": 1965, "pitch": 62, "duration": 3, "velocity": 82}, {"time": 1969, "pitch": 69, "duration": 12, "velocity": 81}, {"time": 1981, "pitch": 67, "duration": 10, "velocity": 75}, {"time": 1993, "pitch": 72, "duration": 5, "velocity": 86}, {"time": 2001, "pitch": 72, "duration": 3, "velocity": 83}, {"time": 2005, "pitch": 72, "duration": 3, "velocity": 82}, {"time": 2009, "pitch": 70, "duration": 3, "velocity": 86}, {"time": 2013, "pitch": 69, "duration": 3, "velocity": 83}, {"time": 2017, "pitch": 76, "duration": 6, "velocity": 83}, {"time": 2025, "pitch": 76, "duration": 3, "velocity": 80}, {"time": 2029, "pitch": 74, "duration": 3, "velocity": 83}, {"time": 2033, "pitch": 74, "duration": 2, "velocity": 82}, {"time": 2037, "pitch": 76, "duration": 3, "velocity": 75}, {"time": 2041, "pitch": 77, "duration": 5, "velocity": 74}, {"time": 2049, "pitch": 65, "duration": 3, "velocity": 82}, {"time": 2053, "pitch": 65, "duration": 3, "velocity": 82}, {"time": 2057, "pitch": 67, "duration": 2, "velocity": 83}, {"time": 2061, "pitch": 69, "duration": 3, "velocity": 76}, {"time": 2065, "pitch": 69, "duration": 10, "velocity": 80}, {"time": 2077, "pitch": 69, "duration": 3, "velocity": 83}, {"time": 2081, "pitch": 72, "duration": 3, "velocity": 78}, {"time": 2085, "pitch": 69, "duration": 3, "velocity": 82}, {"time": 2089, "pitch": 67, "duration": 4, "velocity": 79}, {"time": 2093, "pitch": 65, "duration": 7, "velocity": 83}, {"time": 2105, "pitch": 74, "duration": 5, "velocity": 88}, {"time": 2109, "pitch": 69, "duration": 4, "velocity": 84}, {"time": 2113, "pitch": 67, "duration": 6, "velocity": 75}, {"time": 2121, "pitch": 69, "duration": 4, "velocity": 80}, {"time": 2125, "pitch": 67, "duration": 7, "velocity": 75}, {"time": 2133, "pitch": 65, "duration": 4, "velocity": 82}, {"time": 2137, "pitch": 62, "duration": 23, "velocity": 81}, {"time": 2521, "pitch": 74, "duration": 3, "velocity": 85}, {"time": 2525, "pitch": 74, "duration": 2, "velocity": 84}, {"time": 2529, "pitch": 74, "duration": 3, "velocity": 88}, {"time": 2533, "pitch": 74, "duration": 3, "velocity": 89}, {"time": 2537, "pitch": 72, "duration": 3, "velocity": 86}, {"time": 2541, "pitch": 69, "duration": 4, "velocity": 84}, {"time": 2545, "pitch": 67, "duration": 22, "velocity": 82}, {"time": 2569, "pitch": 76, "duration": 3, "velocity": 84}, {"time": 2573, "pitch": 76, "duration": 2, "velocity": 82}, {"time": 2577, "pitch": 76, "duration": 3, "velocity": 83}, {"time": 2581, "pitch": 76, "duration": 3, "velocity": 83}, {"time": 2585, "pitch": 74, "duration": 3, "velocity": 87}, {"time": 2589, "pitch": 72, "duration": 3, "velocity": 84}, {"time": 2593, "pitch": 69, "duration": 12, "velocity": 83}, {"time": 2617, "pitch": 67, "duration": 3, "velocity": 80}, {"time": 2621, "pitch": 67, "duration": 3, "velocity": 78}, {"time": 2625, "pitch": 67, "duration": 3, "velocity": 81}, {"time": 2629, "pitch": 67, "duration": 4, "velocity": 82}, {"time": 2633, "pitch": 65, "duration": 3, "velocity": 85}, {"time": 2637, "pitch": 64, "duration": 3, "velocity": 85}, {"time": 2641, "pitch": 67, "duration": 3, "velocity": 83}, {"time": 2645, "pitch": 67, "duration": 2, "velocity": 81}, {"time": 2649, "pitch": 67, "duration": 3, "velocity": 82}, {"time": 2653, "pitch": 67, "duration": 2, "velocity": 83}, {"time": 2657, "pitch": 70, "duration": 2, "velocity": 88}, {"time": 2661, "pitch": 74, "duration": 3, "velocity": 83}, {"time": 2665, "pitch": 76, "duration": 4, "velocity": 89}, {"time": 2669, "pitch": 76, "duration": 2, "velocity": 80}, {"time": 2673, "pitch": 76, "duration": 2, "velocity": 83}, {"time": 2677, "pitch": 76, "duration": 4, "velocity": 87}, {"time": 2681, "pitch": 76, "duration": 2, "velocity": 93}, {"time": 2685, "pitch": 74, "duration": 3, "velocity": 86}, {"time": 2689, "pitch": 74, "duration": 11, "velocity": 83}, {"time": 2701, "pitch": 72, "duration": 10, "velocity": 82}, {"time": 2713, "pitch": 72, "duration": 5, "velocity": 86}, {"time": 2721, "pitch": 72, "duration": 3, "velocity": 83}, {"time": 2725, "pitch": 72, "duration": 3, "velocity": 82}, {"time": 2729, "pitch": 70, "duration": 3, "velocity": 86}, {"time": 2733, "pitch": 69, "duration": 3, "velocity": 83}, {"time": 2737, "pitch": 76, "duration": 6, "velocity": 83}, {"time": 2745, "pitch": 76, "duration": 3, "velocity": 80}, {"time": 2749, "pitch": 74, "duration": 3, "velocity": 83}, {"time": 2753, "pitch": 74, "duration": 2, "velocity": 82}, {"time": 2757, "pitch": 76, "duration": 3, "velocity": 75}, {"time": 2761, "pitch": 77, "duration": 5, "velocity": 74}, {"time": 2769, "pitch": 65, "duration": 3, "velocity": 82}, {"time": 2773, "pitch": 65, "duration": 3, "velocity": 82}, {"time": 2777, "pitch": 67, "duration": 2, "velocity": 83}, {"time": 2781, "pitch": 69, "duration": 3, "velocity": 76}, {"time": 2785, "pitch": 69, "duration": 10, "velocity": 80}, {"time": 2797, "pitch": 69, "duration": 3, "velocity": 83}, {"time": 2801, "pitch": 72, "duration": 3, "velocity": 78}, {"time": 2805, "pitch": 69, "duration": 3, "velocity": 82}, {"time": 2809, "pitch": 67, "duration": 4, "velocity": 79}, {"time": 2813, "pitch": 65, "duration": 7, "velocity": 83}, {"time": 2825, "pitch": 74, "duration": 5, "velocity": 88}, {"time": 2831, "pitch": 69, "duration": 2, "velocity": 84}, {"time": 2833, "pitch": 67, "duration": 4, "velocity": 75}, {"time": 2837, "pitch": 65, "duration": 9, "velocity": 80}, {"time": 2857, "pitch": 67, "duration": 3, "velocity": 73}, {"time": 2861, "pitch": 67, "duration": 2, "velocity": 77}, {"time": 2865, "pitch": 67, "duration": 2, "velocity": 78}, {"time": 2869, "pitch": 67, "duration": 3, "velocity": 75}, {"time": 2873, "pitch": 65, "duration": 3, "velocity": 83}, {"time": 2877, "pitch": 62, "duration": 3, "velocity": 82}, {"time": 2881, "pitch": 69, "duration": 12, "velocity": 81}, {"time": 2893, "pitch": 67, "duration": 10, "velocity": 75}, {"time": 2905, "pitch": 72, "duration": 5, "velocity": 86}, {"time": 2913, "pitch": 72, "duration": 3, "velocity": 83}, {"time": 2917, "pitch": 72, "duration": 3, "velocity": 82}, {"time": 2921, "pitch": 70, "duration": 3, "velocity": 86}, {"time": 2925, "pitch": 69, "duration": 3, "velocity": 83}, {"time": 2929, "pitch": 76, "duration": 6, "velocity": 83}, {"time": 2937, "pitch": 76, "duration": 3, "velocity": 80}, {"time": 2941, "pitch": 74, "duration": 3, "velocity": 83}, {"time": 2945, "pitch": 74, "duration": 2, "velocity": 82}, {"time": 2949, "pitch": 76, "duration": 3, "velocity": 75}, {"time": 2953, "pitch": 77, "duration": 5, "velocity": 74}, {"time": 2961, "pitch": 65, "duration": 3, "velocity": 82}, {"time": 2965, "pitch": 65, "duration": 3, "velocity": 82}, {"time": 2969, "pitch": 67, "duration": 2, "velocity": 83}, {"time": 2973, "pitch": 69, "duration": 3, "velocity": 76}, {"time": 2977, "pitch": 69, "duration": 10, "velocity": 80}, {"time": 2989, "pitch": 69, "duration": 3, "velocity": 83}, {"time": 2993, "pitch": 72, "duration": 3, "velocity": 78}, {"time": 2997, "pitch": 69, "duration": 3, "velocity": 82}, {"time": 3001, "pitch": 67, "duration": 4, "velocity": 79}, {"time": 3005, "pitch": 65, "duration": 7, "velocity": 83}, {"time": 3017, "pitch": 74, "duration": 5, "velocity": 88}, {"time": 3021, "pitch": 69, "duration": 4, "velocity": 84}, {"time": 3025, "pitch": 67, "duration": 6, "velocity": 75}, {"time": 3033, "pitch": 69, "duration": 4, "velocity": 80}, {"time": 3037, "pitch": 67, "duration": 7, "velocity": 75}, {"time": 3045, "pitch": 65, "duration": 4, "velocity": 82}, {"time": 3049, "pitch": 65, "duration": 1, "velocity": 81}]}, {"program": 0, "is_drum": false, "name": "PIANO", "notes": [{"time": 25, "pitch": 50, "duration": 18, "velocity": 84}, {"time": 29, "pitch": 57, "duration": 22, "velocity": 71}, {"time": 33, "pitch": 62, "duration": 20, "velocity": 75}, {"time": 37, "pitch": 65, "duration": 21, "velocity": 72}, {"time": 37, "pitch": 69, "duration": 22, "velocity": 77}, {"time": 49, "pitch": 48, "duration": 16, "velocity": 83}, {"time": 53, "pitch": 57, "duration": 11, "velocity": 75}, {"time": 57, "pitch": 60, "duration": 17, "velocity": 80}, {"time": 61, "pitch": 65, "duration": 11, "velocity": 71}, {"time": 61, "pitch": 69, "duration": 22, "velocity": 81}, {"time": 73, "pitch": 46, "duration": 22, "velocity": 70}, {"time": 77, "pitch": 53, "duration": 15, "velocity": 61}, {"time": 81, "pitch": 58, "duration": 15, "velocity": 72}, {"time": 81, "pitch": 62, "duration": 1, "velocity": 29}, {"time": 85, "pitch": 62, "duration": 11, "velocity": 78}, {"time": 85, "pitch": 69, "duration": 20, "velocity": 82}, {"time": 97, "pitch": 45, "duration": 21, "velocity": 80}, {"time": 101, "pitch": 52, "duration": 17, "velocity": 78}, {"time": 105, "pitch": 57, "duration": 13, "velocity": 77}, {"time": 109, "pitch": 61, "duration": 8, "velocity": 68}, {"time": 109, "pitch": 69, "duration": 21, "velocity": 81}, {"time": 121, "pitch": 50, "duration": 10, "velocity": 84}, {"time": 121, "pitch": 62, "duration": 6, "velocity": 78}, {"time": 125, "pitch": 57, "duration": 6, "velocity": 71}, {"time": 129, "pitch": 62, "duration": 3, "velocity": 76}, {"time": 133, "pitch": 43, "duration": 8, "velocity": 81}, {"time": 133, "pitch": 62, "duration": 10, "velocity": 78}, {"time": 133, "pitch": 67, "duration": 10, "velocity": 76}, {"time": 145, "pitch": 41, "duration": 16, "velocity": 80}, {"time": 145, "pitch": 65, "duration": 9, "velocity": 72}, {"time": 145, "pitch": 69, "duration": 9, "velocity": 78}, {"time": 149, "pitch": 48, "duration": 11, "velocity": 74}, {"time": 153, "pitch": 60, "duration": 7, "velocity": 81}, {"time": 157, "pitch": 65, "duration": 3, "velocity": 80}, {"time": 157, "pitch": 69, "duration": 4, "velocity": 82}, {"time": 169, "pitch": 40, "duration": 15, "velocity": 81}, {"time": 169, "pitch": 74, "duration": 8, "velocity": 84}, {"time": 173, "pitch": 64, "duration": 6, "velocity": 81}, {"time": 177, "pitch": 67, "duration": 2, "velocity": 74}, {"time": 181, "pitch": 64, "duration": 4, "velocity": 80}, {"time": 181, "pitch": 67, "duration": 4, "velocity": 77}, {"time": 181, "pitch": 70, "duration": 4, "velocity": 73}, {"time": 193, "pitch": 45, "duration": 23, "velocity": 80}, {"time": 193, "pitch": 64, "duration": 3, "velocity": 75}, {"time": 193, "pitch": 69, "duration": 4, "velocity": 74}, {"time": 197, "pitch": 52, "duration": 18, "velocity": 73}, {"time": 201, "pitch": 55, "duration": 4, "velocity": 81}, {"time": 205, "pitch": 61, "duration": 10, "velocity": 72}, {"time": 217, "pitch": 50, "duration": 17, "velocity": 82}, {"time": 217, "pitch": 62, "duration": 5, "velocity": 77}, {"time": 221, "pitch": 57, "duration": 12, "velocity": 83}, {"time": 225, "pitch": 62, "duration": 10, "velocity": 75}, {"time": 229, "pitch": 69, "duration": 21, "velocity": 79}, {"time": 241, "pitch": 48, "duration": 16, "velocity": 82}, {"time": 245, "pitch": 55, "duration": 18, "velocity": 68}, {"time": 249, "pitch": 60, "duration": 10, "velocity": 83}, {"time": 253, "pitch": 69, "duration": 23, "velocity": 83}, {"time": 265, "pitch": 46, "duration": 21, "velocity": 76}, {"time": 269, "pitch": 53, "duration": 14, "velocity": 64}, {"time": 273, "pitch": 57, "duration": 6, "velocity": 67}, {"time": 277, "pitch": 58, "duration": 5, "velocity": 82}, {"time": 281, "pitch": 62, "duration": 11, "velocity": 74}, {"time": 289, "pitch": 45, "duration": 16, "velocity": 80}, {"time": 293, "pitch": 52, "duration": 12, "velocity": 74}, {"time": 297, "pitch": 55, "duration": 3, "velocity": 86}, {"time": 301, "pitch": 55, "duration": 1, "velocity": 66}, {"time": 301, "pitch": 61, "duration": 3, "velocity": 72}, {"time": 301, "pitch": 64, "duration": 5, "velocity": 76}, {"time": 313, "pitch": 43, "duration": 21, "velocity": 82}, {"time": 313, "pitch": 55, "duration": 16, "velocity": 76}, {"time": 313, "pitch": 62, "duration": 10, "velocity": 78}, {"time": 317, "pitch": 50, "duration": 17, "velocity": 75}, {"time": 321, "pitch": 58, "duration": 5, "velocity": 77}, {"time": 325, "pitch": 62, "duration": 1, "velocity": 27}, {"time": 325, "pitch": 67, "duration": 8, "velocity": 82}, {"time": 333, "pitch": 55, "duration": 2, "velocity": 84}, {"time": 337, "pitch": 41, "duration": 19, "velocity": 82}, {"time": 337, "pitch": 53, "duration": 12, "velocity": 75}, {"time": 337, "pitch": 57, "duration": 13, "velocity": 72}, {"time": 341, "pitch": 48, "duration": 14, "velocity": 78}, {"time": 345, "pitch": 60, "duration": 5, "velocity": 77}, {"time": 349, "pitch": 65, "duration": 5, "velocity": 84}, {"time": 361, "pitch": 40, "duration": 13, "velocity": 78}, {"time": 361, "pitch": 52, "duration": 3, "velocity": 81}, {"time": 361, "pitch": 62, "duration": 9, "velocity": 82}, {"time": 365, "pitch": 58, "duration": 13, "velocity": 65}, {"time": 369, "pitch": 55, "duration": 9, "velocity": 82}, {"time": 373, "pitch": 46, "duration": 3, "velocity": 70}, {"time": 377, "pitch": 52, "duration": 5, "velocity": 84}, {"time": 381, "pitch": 55, "duration": 3, "velocity": 82}, {"time": 385, "pitch": 45, "duration": 22, "velocity": 84}, {"time": 385, "pitch": 57, "duration": 4, "velocity": 83}, {"time": 389, "pitch": 52, "duration": 18, "velocity": 83}, {"time": 393, "pitch": 55, "duration": 3, "velocity": 77}, {"time": 397, "pitch": 61, "duration": 3, "velocity": 91}, {"time": 401, "pitch": 62, "duration": 5, "velocity": 76}, {"time": 405, "pitch": 64, "duration": 3, "velocity": 91}, {"time": 409, "pitch": 50, "duration": 15, "velocity": 78}, {"time": 409, "pitch": 62, "duration": 3, "velocity": 79}, {"time": 409, "pitch": 65, "duration": 7, "velocity": 82}, {"time": 413, "pitch": 53, "duration": 11, "velocity": 73}, {"time": 413, "pitch": 62, "duration": 2, "velocity": 50}, {"time": 417, "pitch": 57, "duration": 3, "velocity": 71}, {"time": 421, "pitch": 57, "duration": 3, "velocity": 75}, {"time": 421, "pitch": 62, "duration": 3, "velocity": 76}, {"time": 421, "pitch": 65, "duration": 8, "velocity": 79}, {"time": 433, "pitch": 48, "duration": 17, "velocity": 77}, {"time": 433, "pitch": 60, "duration": 5, "velocity": 76}, {"time": 433, "pitch": 64, "duration": 9, "velocity": 83}, {"time": 437, "pitch": 55, "duration": 7, "velocity": 81}, {"time": 441, "pitch": 60, "duration": 4, "velocity": 76}, {"time": 445, "pitch": 62, "duration": 9, "velocity": 77}, {"time": 457, "pitch": 46, "duration": 17, "velocity": 80}, {"time": 457, "pitch": 62, "duration": 13, "velocity": 71}, {"time": 461, "pitch": 53, "duration": 13, "velocity": 69}, {"time": 465, "pitch": 58, "duration": 5, "velocity": 69}, {"time": 469, "pitch": 65, "duration": 8, "velocity": 78}, {"time": 481, "pitch": 45, "duration": 15, "velocity": 81}, {"time": 481, "pitch": 57, "duration": 5, "velocity": 62}, {"time": 481, "pitch": 64, "duration": 9, "velocity": 76}, {"time": 485, "pitch": 52, "duration": 10, "velocity": 74}, {"time": 489, "pitch": 57, "duration": 2, "velocity": 84}, {"time": 493, "pitch": 57, "duration": 4, "velocity": 77}, {"time": 493, "pitch": 64, "duration": 4, "velocity": 82}, {"time": 505, "pitch": 43, "duration": 19, "velocity": 78}, {"time": 505, "pitch": 55, "duration": 13, "velocity": 73}, {"time": 505, "pitch": 62, "duration": 13, "velocity": 75}, {"time": 509, "pitch": 50, "duration": 15, "velocity": 72}, {"time": 513, "pitch": 58, "duration": 5, "velocity": 79}, {"time": 517, "pitch": 67, "duration": 8, "velocity": 83}, {"time": 521, "pitch": 55, "duration": 6, "velocity": 75}, {"time": 525, "pitch": 58, "duration": 1, "velocity": 70}, {"time": 529, "pitch": 41, "duration": 15, "velocity": 80}, {"time": 529, "pitch": 53, "duration": 12, "velocity": 71}, {"time": 529, "pitch": 57, "duration": 12, "velocity": 74}, {"time": 533, "pitch": 48, "duration": 11, "velocity": 72}, {"time": 537, "pitch": 60, "duration": 5, "velocity": 73}, {"time": 541, "pitch": 65, "duration": 2, "velocity": 83}, {"time": 553, "pitch": 40, "duration": 15, "velocity": 84}, {"time": 553, "pitch": 64, "duration": 4, "velocity": 78}, {"time": 553, "pitch": 70, "duration": 13, "velocity": 73}, {"time": 557, "pitch": 67, "duration": 9, "velocity": 66}, {"time": 561, "pitch": 64, "duration": 5, "velocity": 76}, {"time": 565, "pitch": 74, "duration": 4, "velocity": 87}, {"time": 577, "pitch": 45, "duration": 22, "velocity": 83}, {"time": 577, "pitch": 55, "duration": 4, "velocity": 82}, {"time": 577, "pitch": 61, "duration": 5, "velocity": 77}, {"time": 581, "pitch": 52, "duration": 18, "velocity": 84}, {"time": 585, "pitch": 57, "duration": 2, "velocity": 81}, {"time": 589, "pitch": 57, "duration": 4, "velocity": 83}, {"time": 589, "pitch": 61, "duration": 3, "velocity": 82}, {"time": 593, "pitch": 62, "duration": 5, "velocity": 83}, {"time": 597, "pitch": 64, "duration": 2, "velocity": 83}, {"time": 601, "pitch": 50, "duration": 15, "velocity": 83}, {"time": 601, "pitch": 57, "duration": 5, "velocity": 74}, {"time": 601, "pitch": 62, "duration": 9, "velocity": 78}, {"time": 601, "pitch": 65, "duration": 8, "velocity": 80}, {"time": 605, "pitch": 53, "duration": 12, "velocity": 67}, {"time": 609, "pitch": 57, "duration": 4, "velocity": 73}, {"time": 613, "pitch": 62, "duration": 2, "velocity": 77}, {"time": 613, "pitch": 65, "duration": 3, "velocity": 78}, {"time": 625, "pitch": 47, "duration": 16, "velocity": 77}, {"time": 625, "pitch": 59, "duration": 5, "velocity": 72}, {"time": 625, "pitch": 62, "duration": 9, "velocity": 77}, {"time": 629, "pitch": 53, "duration": 12, "velocity": 72}, {"time": 633, "pitch": 59, "duration": 8, "velocity": 82}, {"time": 637, "pitch": 62, "duration": 4, "velocity": 75}, {"time": 637, "pitch": 65, "duration": 6, "velocity": 76}, {"time": 649, "pitch": 46, "duration": 14, "velocity": 75}, {"time": 649, "pitch": 58, "duration": 5, "velocity": 73}, {"time": 649, "pitch": 62, "duration": 9, "velocity": 82}, {"time": 649, "pitch": 65, "duration": 9, "velocity": 77}, {"time": 653, "pitch": 53, "duration": 10, "velocity": 57}, {"time": 657, "pitch": 58, "duration": 3, "velocity": 74}, {"time": 661, "pitch": 58, "duration": 2, "velocity": 71}, {"time": 661, "pitch": 62, "duration": 2, "velocity": 81}, {"time": 661, "pitch": 65, "duration": 3, "velocity": 78}, {"time": 673, "pitch": 45, "duration": 16, "velocity": 83}, {"time": 673, "pitch": 57, "duration": 5, "velocity": 72}, {"time": 673, "pitch": 64, "duration": 9, "velocity": 79}, {"time": 677, "pitch": 52, "duration": 12, "velocity": 76}, {"time": 681, "pitch": 57, "duration": 2, "velocity": 86}, {"time": 685, "pitch": 57, "duration": 4, "velocity": 82}, {"time": 685, "pitch": 64, "duration": 4, "velocity": 82}, {"time": 697, "pitch": 50, "duration": 15, "velocity": 78}, {"time": 697, "pitch": 57, "duration": 4, "velocity": 71}, {"time": 697, "pitch": 65, "duration": 9, "velocity": 78}, {"time": 701, "pitch": 53, "duration": 11, "velocity": 63}, {"time": 705, "pitch": 57, "duration": 3, "velocity": 70}, {"time": 709, "pitch": 62, "duration": 3, "velocity": 76}, {"time": 709, "pitch": 65, "duration": 4, "velocity": 80}, {"time": 721, "pitch": 48, "duration": 13, "velocity": 78}, {"time": 721, "pitch": 60, "duration": 4, "velocity": 73}, {"time": 721, "pitch": 64, "duration": 8, "velocity": 82}, {"time": 725, "pitch": 55, "duration": 10, "velocity": 75}, {"time": 729, "pitch": 60, "duration": 2, "velocity": 82}, {"time": 733, "pitch": 60, "duration": 2, "velocity": 82}, {"time": 733, "pitch": 64, "duration": 1, "velocity": 79}, {"time": 745, "pitch": 47, "duration": 15, "velocity": 83}, {"time": 745, "pitch": 59, "duration": 5, "velocity": 75}, {"time": 745, "pitch": 65, "duration": 10, "velocity": 76}, {"time": 749, "pitch": 53, "duration": 11, "velocity": 75}, {"time": 753, "pitch": 59, "duration": 5, "velocity": 83}, {"time": 757, "pitch": 62, "duration": 4, "velocity": 85}, {"time": 761, "pitch": 65, "duration": 4, "velocity": 74}, {"time": 765, "pitch": 59, "duration": 1, "velocity": 62}, {"time": 769, "pitch": 46, "duration": 5, "velocity": 83}, {"time": 769, "pitch": 58, "duration": 3, "velocity": 77}, {"time": 769, "pitch": 62, "duration": 4, "velocity": 81}, {"time": 773, "pitch": 58, "duration": 4, "velocity": 82}, {"time": 777, "pitch": 62, "duration": 2, "velocity": 73}, {"time": 781, "pitch": 48, "duration": 7, "velocity": 86}, {"time": 781, "pitch": 60, "duration": 5, "velocity": 77}, {"time": 781, "pitch": 64, "duration": 8, "velocity": 82}, {"time": 785, "pitch": 55, "duration": 4, "velocity": 78}, {"time": 789, "pitch": 60, "duration": 4, "velocity": 91}, {"time": 793, "pitch": 41, "duration": 16, "velocity": 82}, {"time": 793, "pitch": 60, "duration": 1, "velocity": 78}, {"time": 793, "pitch": 69, "duration": 10, "velocity": 77}, {"time": 797, "pitch": 48, "duration": 11, "velocity": 72}, {"time": 801, "pitch": 60, "duration": 3, "velocity": 84}, {"time": 805, "pitch": 60, "duration": 4, "velocity": 84}, {"time": 805, "pitch": 65, "duration": 4, "velocity": 83}, {"time": 805, "pitch": 69, "duration": 5, "velocity": 81}, {"time": 817, "pitch": 49, "duration": 13, "velocity": 82}, {"time": 817, "pitch": 61, "duration": 5, "velocity": 75}, {"time": 817, "pitch": 64, "duration": 9, "velocity": 87}, {"time": 821, "pitch": 55, "duration": 9, "velocity": 77}, {"time": 825, "pitch": 61, "duration": 3, "velocity": 83}, {"time": 829, "pitch": 61, "duration": 2, "velocity": 74}, {"time": 829, "pitch": 64, "duration": 1, "velocity": 82}, {"time": 829, "pitch": 67, "duration": 2, "velocity": 77}, {"time": 841, "pitch": 38, "duration": 15, "velocity": 80}, {"time": 841, "pitch": 62, "duration": 9, "velocity": 77}, {"time": 841, "pitch": 65, "duration": 9, "velocity": 75}, {"time": 845, "pitch": 45, "duration": 11, "velocity": 72}, {"time": 849, "pitch": 69, "duration": 3, "velocity": 79}, {"time": 853, "pitch": 62, "duration": 5, "velocity": 78}, {"time": 853, "pitch": 65, "duration": 5, "velocity": 82}, {"time": 853, "pitch": 69, "duration": 4, "velocity": 82}, {"time": 853, "pitch": 74, "duration": 4, "velocity": 86}, {"time": 865, "pitch": 45, "duration": 17, "velocity": 83}, {"time": 865, "pitch": 55, "duration": 5, "velocity": 71}, {"time": 865, "pitch": 60, "duration": 9, "velocity": 76}, {"time": 869, "pitch": 52, "duration": 13, "velocity": 82}, {"time": 873, "pitch": 55, "duration": 1, "velocity": 76}, {"time": 877, "pitch": 57, "duration": 5, "velocity": 71}, {"time": 877, "pitch": 60, "duration": 4, "velocity": 75}, {"time": 877, "pitch": 64, "duration": 5, "velocity": 83}, {"time": 889, "pitch": 43, "duration": 18, "velocity": 82}, {"time": 889, "pitch": 55, "duration": 10, "velocity": 72}, {"time": 889, "pitch": 62, "duration": 10, "velocity": 76}, {"time": 893, "pitch": 50, "duration": 14, "velocity": 71}, {"time": 897, "pitch": 58, "duration": 2, "velocity": 82}, {"time": 901, "pitch": 55, "duration": 5, "velocity": 77}, {"time": 901, "pitch": 58, "duration": 5, "velocity": 82}, {"time": 901, "pitch": 62, "duration": 6, "velocity": 82}, {"time": 901, "pitch": 67, "duration": 7, "velocity": 80}, {"time": 913, "pitch": 45, "duration": 19, "velocity": 81}, {"time": 913, "pitch": 57, "duration": 5, "velocity": 76}, {"time": 913, "pitch": 60, "duration": 6, "velocity": 79}, {"time": 917, "pitch": 52, "duration": 15, "velocity": 76}, {"time": 921, "pitch": 64, "duration": 3, "velocity": 80}, {"time": 925, "pitch": 57, "duration": 4, "velocity": 75}, {"time": 925, "pitch": 69, "duration": 6, "velocity": 81}, {"time": 929, "pitch": 64, "duration": 7, "velocity": 82}, {"time": 933, "pitch": 57, "duration": 2, "velocity": 83}, {"time": 937, "pitch": 47, "duration": 17, "velocity": 83}, {"time": 937, "pitch": 59, "duration": 9, "velocity": 82}, {"time": 937, "pitch": 62, "duration": 9, "velocity": 82}, {"time": 941, "pitch": 53, "duration": 12, "velocity": 79}, {"time": 945, "pitch": 65, "duration": 2, "velocity": 82}, {"time": 949, "pitch": 59, "duration": 2, "velocity": 73}, {"time": 949, "pitch": 62, "duration": 5, "velocity": 78}, {"time": 949, "pitch": 65, "duration": 5, "velocity": 79}, {"time": 949, "pitch": 71, "duration": 8, "velocity": 82}, {"time": 953, "pitch": 59, "duration": 5, "velocity": 86}, {"time": 957, "pitch": 65, "duration": 2, "velocity": 79}, {"time": 961, "pitch": 45, "duration": 14, "velocity": 83}, {"time": 961, "pitch": 57, "duration": 5, "velocity": 70}, {"time": 961, "pitch": 61, "duration": 5, "velocity": 68}, {"time": 961, "pitch": 64, "duration": 5, "velocity": 78}, {"time": 965, "pitch": 52, "duration": 9, "velocity": 84}, {"time": 969, "pitch": 57, "duration": 2, "velocity": 75}, {"time": 969, "pitch": 69, "duration": 2, "velocity": 78}, {"time": 973, "pitch": 57, "duration": 4, "velocity": 88}, {"time": 973, "pitch": 61, "duration": 4, "velocity": 96}, {"time": 973, "pitch": 69, "duration": 5, "velocity": 86}, {"time": 977, "pitch": 52, "duration": 1, "velocity": 87}, {"time": 981, "pitch": 57, "duration": 1, "velocity": 83}, {"time": 985, "pitch": 41, "duration": 16, "velocity": 82}, {"time": 985, "pitch": 60, "duration": 5, "velocity": 78}, {"time": 985, "pitch": 69, "duration": 10, "velocity": 77}, {"time": 989, "pitch": 48, "duration": 11, "velocity": 72}, {"time": 993, "pitch": 60, "duration": 3, "velocity": 84}, {"time": 997, "pitch": 60, "duration": 4, "velocity": 84}, {"time": 997, "pitch": 65, "duration": 4, "velocity": 83}, {"time": 997, "pitch": 69, "duration": 5, "velocity": 81}, {"time": 1009, "pitch": 49, "duration": 13, "velocity": 82}, {"time": 1009, "pitch": 61, "duration": 5, "velocity": 75}, {"time": 1009, "pitch": 64, "duration": 9, "velocity": 87}, {"time": 1013, "pitch": 55, "duration": 9, "velocity": 77}, {"time": 1017, "pitch": 61, "duration": 3, "velocity": 83}, {"time": 1021, "pitch": 61, "duration": 2, "velocity": 74}, {"time": 1021, "pitch": 64, "duration": 1, "velocity": 82}, {"time": 1021, "pitch": 67, "duration": 2, "velocity": 77}, {"time": 1033, "pitch": 38, "duration": 15, "velocity": 80}, {"time": 1033, "pitch": 62, "duration": 9, "velocity": 77}, {"time": 1033, "pitch": 65, "duration": 9, "velocity": 75}, {"time": 1037, "pitch": 45, "duration": 11, "velocity": 72}, {"time": 1041, "pitch": 69, "duration": 3, "velocity": 79}, {"time": 1045, "pitch": 62, "duration": 5, "velocity": 78}, {"time": 1045, "pitch": 65, "duration": 5, "velocity": 82}, {"time": 1045, "pitch": 69, "duration": 4, "velocity": 82}, {"time": 1045, "pitch": 74, "duration": 4, "velocity": 86}, {"time": 1057, "pitch": 36, "duration": 2, "velocity": 75}, {"time": 1057, "pitch": 60, "duration": 5, "velocity": 79}, {"time": 1057, "pitch": 64, "duration": 8, "velocity": 76}, {"time": 1061, "pitch": 55, "duration": 6, "velocity": 82}, {"time": 1065, "pitch": 48, "duration": 6, "velocity": 59}, {"time": 1065, "pitch": 60, "duration": 2, "velocity": 75}, {"time": 1069, "pitch": 55, "duration": 5, "velocity": 83}, {"time": 1069, "pitch": 60, "duration": 6, "velocity": 85}, {"time": 1069, "pitch": 64, "duration": 7, "velocity": 87}, {"time": 1081, "pitch": 47, "duration": 16, "velocity": 84}, {"time": 1081, "pitch": 59, "duration": 13, "velocity": 78}, {"time": 1081, "pitch": 62, "duration": 16, "velocity": 82}, {"time": 1085, "pitch": 53, "duration": 11, "velocity": 75}, {"time": 1089, "pitch": 65, "duration": 9, "velocity": 71}, {"time": 1093, "pitch": 71, "duration": 8, "velocity": 83}, {"time": 1097, "pitch": 59, "duration": 6, "velocity": 78}, {"time": 1101, "pitch": 62, "duration": 2, "velocity": 75}, {"time": 1105, "pitch": 49, "duration": 17, "velocity": 82}, {"time": 1105, "pitch": 61, "duration": 5, "velocity": 82}, {"time": 1105, "pitch": 64, "duration": 6, "velocity": 82}, {"time": 1109, "pitch": 57, "duration": 10, "velocity": 71}, {"time": 1113, "pitch": 61, "duration": 15, "velocity": 78}, {"time": 1117, "pitch": 69, "duration": 12, "velocity": 78}, {"time": 1129, "pitch": 50, "duration": 15, "velocity": 85}, {"time": 1129, "pitch": 57, "duration": 2, "velocity": 81}, {"time": 1129, "pitch": 62, "duration": 5, "velocity": 82}, {"time": 1133, "pitch": 57, "duration": 5, "velocity": 61}, {"time": 1137, "pitch": 62, "duration": 3, "velocity": 82}, {"time": 1141, "pitch": 57, "duration": 4, "velocity": 76}, {"time": 1141, "pitch": 62, "duration": 4, "velocity": 82}, {"time": 1141, "pitch": 65, "duration": 12, "velocity": 75}, {"time": 1153, "pitch": 48, "duration": 18, "velocity": 82}, {"time": 1153, "pitch": 55, "duration": 2, "velocity": 76}, {"time": 1153, "pitch": 60, "duration": 5, "velocity": 75}, {"time": 1157, "pitch": 55, "duration": 10, "velocity": 74}, {"time": 1161, "pitch": 64, "duration": 5, "velocity": 82}, {"time": 1165, "pitch": 60, "duration": 5, "velocity": 80}, {"time": 1169, "pitch": 55, "duration": 4, "velocity": 64}, {"time": 1177, "pitch": 46, "duration": 14, "velocity": 83}, {"time": 1177, "pitch": 53, "duration": 2, "velocity": 76}, {"time": 1177, "pitch": 58, "duration": 5, "velocity": 68}, {"time": 1181, "pitch": 53, "duration": 3, "velocity": 67}, {"time": 1185, "pitch": 58, "duration": 2, "velocity": 68}, {"time": 1185, "pitch": 62, "duration": 2, "velocity": 74}, {"time": 1189, "pitch": 53, "duration": 3, "velocity": 84}, {"time": 1189, "pitch": 58, "duration": 3, "velocity": 88}, {"time": 1189, "pitch": 62, "duration": 4, "velocity": 83}, {"time": 1201, "pitch": 45, "duration": 24, "velocity": 83}, {"time": 1201, "pitch": 55, "duration": 4, "velocity": 83}, {"time": 1201, "pitch": 61, "duration": 5, "velocity": 82}, {"time": 1205, "pitch": 52, "duration": 20, "velocity": 78}, {"time": 1209, "pitch": 57, "duration": 3, "velocity": 83}, {"time": 1213, "pitch": 57, "duration": 1, "velocity": 70}, {"time": 1213, "pitch": 61, "duration": 11, "velocity": 83}, {"time": 1213, "pitch": 64, "duration": 11, "velocity": 84}, {"time": 1213, "pitch": 69, "duration": 12, "velocity": 83}, {"time": 1225, "pitch": 50, "duration": 17, "velocity": 82}, {"time": 1225, "pitch": 62, "duration": 5, "velocity": 77}, {"time": 1229, "pitch": 57, "duration": 12, "velocity": 83}, {"time": 1233, "pitch": 62, "duration": 10, "velocity": 75}, {"time": 1237, "pitch": 69, "duration": 21, "velocity": 79}, {"time": 1249, "pitch": 48, "duration": 16, "velocity": 82}, {"time": 1253, "pitch": 55, "duration": 18, "velocity": 68}, {"time": 1257, "pitch": 60, "duration": 10, "velocity": 83}, {"time": 1261, "pitch": 69, "duration": 23, "velocity": 83}, {"time": 1273, "pitch": 46, "duration": 21, "velocity": 76}, {"time": 1277, "pitch": 53, "duration": 14, "velocity": 64}, {"time": 1281, "pitch": 57, "duration": 6, "velocity": 67}, {"time": 1285, "pitch": 58, "duration": 5, "velocity": 82}, {"time": 1289, "pitch": 62, "duration": 11, "velocity": 74}, {"time": 1297, "pitch": 45, "duration": 16, "velocity": 80}, {"time": 1301, "pitch": 52, "duration": 12, "velocity": 74}, {"time": 1305, "pitch": 55, "duration": 3, "velocity": 86}, {"time": 1309, "pitch": 55, "duration": 1, "velocity": 66}, {"time": 1309, "pitch": 61, "duration": 3, "velocity": 72}, {"time": 1309, "pitch": 64, "duration": 5, "velocity": 76}, {"time": 1321, "pitch": 43, "duration": 21, "velocity": 82}, {"time": 1321, "pitch": 55, "duration": 16, "velocity": 76}, {"time": 1321, "pitch": 62, "duration": 10, "velocity": 78}, {"time": 1325, "pitch": 50, "duration": 17, "velocity": 75}, {"time": 1329, "pitch": 58, "duration": 5, "velocity": 77}, {"time": 1333, "pitch": 62, "duration": 1, "velocity": 27}, {"time": 1333, "pitch": 67, "duration": 8, "velocity": 82}, {"time": 1341, "pitch": 55, "duration": 2, "velocity": 84}, {"time": 1345, "pitch": 41, "duration": 19, "velocity": 82}, {"time": 1345, "pitch": 53, "duration": 12, "velocity": 75}, {"time": 1345, "pitch": 57, "duration": 13, "velocity": 72}, {"time": 1349, "pitch": 48, "duration": 14, "velocity": 78}, {"time": 1353, "pitch": 60, "duration": 5, "velocity": 77}, {"time": 1357, "pitch": 65, "duration": 5, "velocity": 84}, {"time": 1369, "pitch": 40, "duration": 13, "velocity": 78}, {"time": 1369, "pitch": 52, "duration": 3, "velocity": 81}, {"time": 1369, "pitch": 62, "duration": 9, "velocity": 82}, {"time": 1373, "pitch": 58, "duration": 13, "velocity": 65}, {"time": 1377, "pitch": 55, "duration": 9, "velocity": 82}, {"time": 1381, "pitch": 46, "duration": 3, "velocity": 70}, {"time": 1385, "pitch": 52, "duration": 5, "velocity": 84}, {"time": 1389, "pitch": 55, "duration": 3, "velocity": 82}, {"time": 1393, "pitch": 45, "duration": 22, "velocity": 84}, {"time": 1393, "pitch": 57, "duration": 4, "velocity": 83}, {"time": 1397, "pitch": 52, "duration": 18, "velocity": 83}, {"time": 1401, "pitch": 55, "duration": 3, "velocity": 77}, {"time": 1405, "pitch": 61, "duration": 3, "velocity": 91}, {"time": 1409, "pitch": 62, "duration": 5, "velocity": 76}, {"time": 1413, "pitch": 64, "duration": 3, "velocity": 91}, {"time": 1417, "pitch": 50, "duration": 15, "velocity": 78}, {"time": 1417, "pitch": 62, "duration": 3, "velocity": 79}, {"time": 1417, "pitch": 65, "duration": 7, "velocity": 82}, {"time": 1421, "pitch": 53, "duration": 11, "velocity": 73}, {"time": 1421, "pitch": 62, "duration": 2, "velocity": 50}, {"time": 1425, "pitch": 57, "duration": 3, "velocity": 71}, {"time": 1429, "pitch": 57, "duration": 3, "velocity": 75}, {"time": 1429, "pitch": 62, "duration": 3, "velocity": 76}, {"time": 1429, "pitch": 65, "duration": 8, "velocity": 79}, {"time": 1441, "pitch": 48, "duration": 17, "velocity": 77}, {"time": 1441, "pitch": 60, "duration": 5, "velocity": 76}, {"time": 1441, "pitch": 64, "duration": 9, "velocity": 83}, {"time": 1445, "pitch": 55, "duration": 7, "velocity": 81}, {"time": 1449, "pitch": 60, "duration": 4, "velocity": 76}, {"time": 1453, "pitch": 62, "duration": 9, "velocity": 77}, {"time": 1465, "pitch": 46, "duration": 17, "velocity": 80}, {"time": 1465, "pitch": 62, "duration": 13, "velocity": 71}, {"time": 1469, "pitch": 53, "duration": 13, "velocity": 69}, {"time": 1473, "pitch": 58, "duration": 5, "velocity": 69}, {"time": 1477, "pitch": 65, "duration": 8, "velocity": 78}, {"time": 1489, "pitch": 45, "duration": 15, "velocity": 81}, {"time": 1489, "pitch": 57, "duration": 5, "velocity": 62}, {"time": 1489, "pitch": 64, "duration": 9, "velocity": 76}, {"time": 1493, "pitch": 52, "duration": 10, "velocity": 74}, {"time": 1497, "pitch": 57, "duration": 2, "velocity": 84}, {"time": 1501, "pitch": 57, "duration": 4, "velocity": 77}, {"time": 1501, "pitch": 64, "duration": 4, "velocity": 82}, {"time": 1513, "pitch": 43, "duration": 19, "velocity": 78}, {"time": 1513, "pitch": 55, "duration": 13, "velocity": 73}, {"time": 1513, "pitch": 62, "duration": 13, "velocity": 75}, {"time": 1517, "pitch": 50, "duration": 15, "velocity": 72}, {"time": 1521, "pitch": 58, "duration": 5, "velocity": 79}, {"time": 1525, "pitch": 67, "duration": 8, "velocity": 83}, {"time": 1529, "pitch": 55, "duration": 6, "velocity": 75}, {"time": 1533, "pitch": 58, "duration": 1, "velocity": 70}, {"time": 1537, "pitch": 41, "duration": 15, "velocity": 80}, {"time": 1537, "pitch": 53, "duration": 12, "velocity": 71}, {"time": 1537, "pitch": 57, "duration": 12, "velocity": 74}, {"time": 1541, "pitch": 48, "duration": 11, "velocity": 72}, {"time": 1545, "pitch": 60, "duration": 5, "velocity": 73}, {"time": 1549, "pitch": 65, "duration": 2, "velocity": 83}, {"time": 1561, "pitch": 40, "duration": 15, "velocity": 84}, {"time": 1561, "pitch": 64, "duration": 4, "velocity": 78}, {"time": 1561, "pitch": 70, "duration": 13, "velocity": 73}, {"time": 1565, "pitch": 67, "duration": 9, "velocity": 66}, {"time": 1569, "pitch": 64, "duration": 5, "velocity": 76}, {"time": 1573, "pitch": 74, "duration": 4, "velocity": 87}, {"time": 1585, "pitch": 45, "duration": 22, "velocity": 83}, {"time": 1585, "pitch": 55, "duration": 4, "velocity": 82}, {"time": 1585, "pitch": 61, "duration": 5, "velocity": 77}, {"time": 1589, "pitch": 52, "duration": 18, "velocity": 84}, {"time": 1593, "pitch": 57, "duration": 2, "velocity": 81}, {"time": 1597, "pitch": 57, "duration": 4, "velocity": 83}, {"time": 1597, "pitch": 61, "duration": 3, "velocity": 82}, {"time": 1601, "pitch": 62, "duration": 5, "velocity": 83}, {"time": 1605, "pitch": 64, "duration": 2, "velocity": 83}, {"time": 1609, "pitch": 50, "duration": 15, "velocity": 83}, {"time": 1609, "pitch": 57, "duration": 5, "velocity": 74}, {"time": 1609, "pitch": 62, "duration": 9, "velocity": 78}, {"time": 1609, "pitch": 65, "duration": 8, "velocity": 80}, {"time": 1613, "pitch": 53, "duration": 12, "velocity": 67}, {"time": 1617, "pitch": 57, "duration": 4, "velocity": 73}, {"time": 1621, "pitch": 62, "duration": 2, "velocity": 77}, {"time": 1621, "pitch": 65, "duration": 3, "velocity": 78}, {"time": 1633, "pitch": 47, "duration": 16, "velocity": 77}, {"time": 1633, "pitch": 59, "duration": 5, "velocity": 72}, {"time": 1633, "pitch": 62, "duration": 9, "velocity": 77}, {"time": 1637, "pitch": 53, "duration": 12, "velocity": 72}, {"time": 1641, "pitch": 59, "duration": 8, "velocity": 82}, {"time": 1645, "pitch": 62, "duration": 4, "velocity": 75}, {"time": 1645, "pitch": 65, "duration": 6, "velocity": 76}, {"time": 1657, "pitch": 46, "duration": 14, "velocity": 75}, {"time": 1657, "pitch": 58, "duration": 5, "velocity": 73}, {"time": 1657, "pitch": 62, "duration": 9, "velocity": 82}, {"time": 1657, "pitch": 65, "duration": 9, "velocity": 77}, {"time": 1661, "pitch": 53, "duration": 10, "velocity": 57}, {"time": 1665, "pitch": 58, "duration": 3, "velocity": 74}, {"time": 1669, "pitch": 58, "duration": 2, "velocity": 71}, {"time": 1669, "pitch": 62, "duration": 2, "velocity": 81}, {"time": 1669, "pitch": 65, "duration": 3, "velocity": 78}, {"time": 1681, "pitch": 45, "duration": 16, "velocity": 83}, {"time": 1681, "pitch": 57, "duration": 5, "velocity": 72}, {"time": 1681, "pitch": 64, "duration": 9, "velocity": 79}, {"time": 1685, "pitch": 52, "duration": 12, "velocity": 76}, {"time": 1689, "pitch": 57, "duration": 2, "velocity": 86}, {"time": 1693, "pitch": 57, "duration": 4, "velocity": 82}, {"time": 1693, "pitch": 64, "duration": 4, "velocity": 82}, {"time": 1705, "pitch": 50, "duration": 15, "velocity": 78}, {"time": 1705, "pitch": 57, "duration": 4, "velocity": 71}, {"time": 1705, "pitch": 65, "duration": 9, "velocity": 78}, {"time": 1709, "pitch": 53, "duration": 11, "velocity": 63}, {"time": 1713, "pitch": 57, "duration": 3, "velocity": 70}, {"time": 1717, "pitch": 62, "duration": 3, "velocity": 76}, {"time": 1717, "pitch": 65, "duration": 4, "velocity": 80}, {"time": 1729, "pitch": 48, "duration": 13, "velocity": 78}, {"time": 1729, "pitch": 60, "duration": 4, "velocity": 73}, {"time": 1729, "pitch": 64, "duration": 8, "velocity": 82}, {"time": 1733, "pitch": 55, "duration": 10, "velocity": 75}, {"time": 1737, "pitch": 60, "duration": 2, "velocity": 82}, {"time": 1741, "pitch": 60, "duration": 2, "velocity": 82}, {"time": 1741, "pitch": 64, "duration": 1, "velocity": 79}, {"time": 1753, "pitch": 47, "duration": 15, "velocity": 83}, {"time": 1753, "pitch": 59, "duration": 5, "velocity": 75}, {"time": 1753, "pitch": 65, "duration": 10, "velocity": 76}, {"time": 1757, "pitch": 53, "duration": 11, "velocity": 75}, {"time": 1761, "pitch": 59, "duration": 5, "velocity": 83}, {"time": 1765, "pitch": 62, "duration": 4, "velocity": 85}, {"time": 1769, "pitch": 65, "duration": 4, "velocity": 74}, {"time": 1773, "pitch": 59, "duration": 1, "velocity": 62}, {"time": 1777, "pitch": 46, "duration": 5, "velocity": 83}, {"time": 1777, "pitch": 58, "duration": 3, "velocity": 77}, {"time": 1777, "pitch": 62, "duration": 4, "velocity": 81}, {"time": 1781, "pitch": 58, "duration": 4, "velocity": 82}, {"time": 1785, "pitch": 62, "duration": 2, "velocity": 73}, {"time": 1789, "pitch": 48, "duration": 7, "velocity": 86}, {"time": 1789, "pitch": 60, "duration": 5, "velocity": 77}, {"time": 1789, "pitch": 64, "duration": 8, "velocity": 82}, {"time": 1793, "pitch": 55, "duration": 4, "velocity": 78}, {"time": 1797, "pitch": 60, "duration": 4, "velocity": 91}, {"time": 1801, "pitch": 41, "duration": 16, "velocity": 82}, {"time": 1801, "pitch": 60, "duration": 1, "velocity": 78}, {"time": 1801, "pitch": 69, "duration": 10, "velocity": 77}, {"time": 1805, "pitch": 48, "duration": 11, "velocity": 72}, {"time": 1809, "pitch": 60, "duration": 3, "velocity": 84}, {"time": 1813, "pitch": 60, "duration": 4, "velocity": 84}, {"time": 1813, "pitch": 65, "duration": 4, "velocity": 83}, {"time": 1813, "pitch": 69, "duration": 5, "velocity": 81}, {"time": 1825, "pitch": 49, "duration": 13, "velocity": 82}, {"time": 1825, "pitch": 61, "duration": 5, "velocity": 75}, {"time": 1825, "pitch": 64, "duration": 9, "velocity": 87}, {"time": 1829, "pitch": 55, "duration": 9, "velocity": 77}, {"time": 1833, "pitch": 61, "duration": 3, "velocity": 83}, {"time": 1837, "pitch": 61, "duration": 2, "velocity": 74}, {"time": 1837, "pitch": 64, "duration": 1, "velocity": 82}, {"time": 1837, "pitch": 67, "duration": 2, "velocity": 77}, {"time": 1849, "pitch": 38, "duration": 15, "velocity": 80}, {"time": 1849, "pitch": 62, "duration": 9, "velocity": 77}, {"time": 1849, "pitch": 65, "duration": 9, "velocity": 75}, {"time": 1853, "pitch": 45, "duration": 11, "velocity": 72}, {"time": 1857, "pitch": 69, "duration": 3, "velocity": 79}, {"time": 1861, "pitch": 62, "duration": 5, "velocity": 78}, {"time": 1861, "pitch": 65, "duration": 5, "velocity": 82}, {"time": 1861, "pitch": 69, "duration": 4, "velocity": 82}, {"time": 1861, "pitch": 74, "duration": 4, "velocity": 86}, {"time": 1873, "pitch": 45, "duration": 17, "velocity": 83}, {"time": 1873, "pitch": 55, "duration": 5, "velocity": 71}, {"time": 1873, "pitch": 60, "duration": 9, "velocity": 76}, {"time": 1877, "pitch": 52, "duration": 13, "velocity": 82}, {"time": 1881, "pitch": 55, "duration": 1, "velocity": 76}, {"time": 1885, "pitch": 57, "duration": 5, "velocity": 71}, {"time": 1885, "pitch": 60, "duration": 4, "velocity": 75}, {"time": 1885, "pitch": 64, "duration": 5, "velocity": 83}, {"time": 1897, "pitch": 43, "duration": 18, "velocity": 82}, {"time": 1897, "pitch": 55, "duration": 10, "velocity": 72}, {"time": 1897, "pitch": 62, "duration": 10, "velocity": 76}, {"time": 1901, "pitch": 50, "duration": 14, "velocity": 71}, {"time": 1905, "pitch": 58, "duration": 2, "velocity": 82}, {"time": 1909, "pitch": 55, "duration": 5, "velocity": 77}, {"time": 1909, "pitch": 58, "duration": 5, "velocity": 82}, {"time": 1909, "pitch": 62, "duration": 6, "velocity": 82}, {"time": 1909, "pitch": 67, "duration": 7, "velocity": 80}, {"time": 1921, "pitch": 45, "duration": 19, "velocity": 81}, {"time": 1921, "pitch": 57, "duration": 5, "velocity": 76}, {"time": 1921, "pitch": 60, "duration": 6, "velocity": 79}, {"time": 1925, "pitch": 52, "duration": 15, "velocity": 76}, {"time": 1929, "pitch": 64, "duration": 3, "velocity": 80}, {"time": 1933, "pitch": 57, "duration": 4, "velocity": 75}, {"time": 1933, "pitch": 69, "duration": 6, "velocity": 81}, {"time": 1937, "pitch": 64, "duration": 7, "velocity": 82}, {"time": 1941, "pitch": 57, "duration": 2, "velocity": 83}, {"time": 1945, "pitch": 47, "duration": 17, "velocity": 83}, {"time": 1945, "pitch": 59, "duration": 9, "velocity": 82}, {"time": 1945, "pitch": 62, "duration": 9, "velocity": 82}, {"time": 1949, "pitch": 53, "duration": 12, "velocity": 79}, {"time": 1953, "pitch": 65, "duration": 2, "velocity": 82}, {"time": 1957, "pitch": 59, "duration": 2, "velocity": 73}, {"time": 1957, "pitch": 62, "duration": 5, "velocity": 78}, {"time": 1957, "pitch": 65, "duration": 5, "velocity": 79}, {"time": 1957, "pitch": 71, "duration": 8, "velocity": 82}, {"time": 1961, "pitch": 59, "duration": 5, "velocity": 86}, {"time": 1965, "pitch": 65, "duration": 2, "velocity": 79}, {"time": 1969, "pitch": 45, "duration": 14, "velocity": 83}, {"time": 1969, "pitch": 57, "duration": 5, "velocity": 70}, {"time": 1969, "pitch": 61, "duration": 5, "velocity": 68}, {"time": 1969, "pitch": 64, "duration": 5, "velocity": 78}, {"time": 1973, "pitch": 52, "duration": 9, "velocity": 84}, {"time": 1977, "pitch": 57, "duration": 2, "velocity": 75}, {"time": 1977, "pitch": 69, "duration": 2, "velocity": 78}, {"time": 1981, "pitch": 57, "duration": 4, "velocity": 88}, {"time": 1981, "pitch": 61, "duration": 4, "velocity": 96}, {"time": 1981, "pitch": 69, "duration": 5, "velocity": 86}, {"time": 1985, "pitch": 52, "duration": 1, "velocity": 87}, {"time": 1989, "pitch": 57, "duration": 1, "velocity": 83}, {"time": 1993, "pitch": 41, "duration": 16, "velocity": 82}, {"time": 1993, "pitch": 60, "duration": 5, "velocity": 78}, {"time": 1993, "pitch": 69, "duration": 10, "velocity": 77}, {"time": 1997, "pitch": 48, "duration": 11, "velocity": 72}, {"time": 2001, "pitch": 60, "duration": 3, "velocity": 84}, {"time": 2005, "pitch": 60, "duration": 4, "velocity": 84}, {"time": 2005, "pitch": 65, "duration": 4, "velocity": 83}, {"time": 2005, "pitch": 69, "duration": 5, "velocity": 81}, {"time": 2017, "pitch": 49, "duration": 13, "velocity": 82}, {"time": 2017, "pitch": 61, "duration": 5, "velocity": 75}, {"time": 2017, "pitch": 64, "duration": 9, "velocity": 87}, {"time": 2021, "pitch": 55, "duration": 9, "velocity": 77}, {"time": 2025, "pitch": 61, "duration": 3, "velocity": 83}, {"time": 2029, "pitch": 61, "duration": 2, "velocity": 74}, {"time": 2029, "pitch": 64, "duration": 1, "velocity": 82}, {"time": 2029, "pitch": 67, "duration": 2, "velocity": 77}, {"time": 2041, "pitch": 38, "duration": 15, "velocity": 80}, {"time": 2041, "pitch": 62, "duration": 9, "velocity": 77}, {"time": 2041, "pitch": 65, "duration": 9, "velocity": 75}, {"time": 2045, "pitch": 45, "duration": 11, "velocity": 72}, {"time": 2049, "pitch": 69, "duration": 3, "velocity": 79}, {"time": 2053, "pitch": 62, "duration": 5, "velocity": 78}, {"time": 2053, "pitch": 65, "duration": 5, "velocity": 82}, {"time": 2053, "pitch": 69, "duration": 4, "velocity": 82}, {"time": 2053, "pitch": 74, "duration": 4, "velocity": 86}, {"time": 2065, "pitch": 36, "duration": 2, "velocity": 75}, {"time": 2065, "pitch": 60, "duration": 5, "velocity": 79}, {"time": 2065, "pitch": 64, "duration": 8, "velocity": 76}, {"time": 2069, "pitch": 55, "duration": 6, "velocity": 82}, {"time": 2073, "pitch": 48, "duration": 6, "velocity": 59}, {"time": 2073, "pitch": 60, "duration": 2, "velocity": 75}, {"time": 2077, "pitch": 55, "duration": 5, "velocity": 83}, {"time": 2077, "pitch": 60, "duration": 6, "velocity": 85}, {"time": 2077, "pitch": 64, "duration": 7, "velocity": 87}, {"time": 2089, "pitch": 47, "duration": 16, "velocity": 84}, {"time": 2089, "pitch": 59, "duration": 13, "velocity": 78}, {"time": 2089, "pitch": 62, "duration": 16, "velocity": 82}, {"time": 2093, "pitch": 53, "duration": 11, "velocity": 75}, {"time": 2097, "pitch": 65, "duration": 9, "velocity": 71}, {"time": 2101, "pitch": 71, "duration": 8, "velocity": 83}, {"time": 2105, "pitch": 59, "duration": 6, "velocity": 78}, {"time": 2109, "pitch": 62, "duration": 2, "velocity": 75}, {"time": 2113, "pitch": 49, "duration": 17, "velocity": 82}, {"time": 2113, "pitch": 61, "duration": 5, "velocity": 82}, {"time": 2113, "pitch": 64, "duration": 6, "velocity": 82}, {"time": 2117, "pitch": 57, "duration": 10, "velocity": 71}, {"time": 2121, "pitch": 61, "duration": 15, "velocity": 78}, {"time": 2125, "pitch": 69, "duration": 12, "velocity": 78}, {"time": 2137, "pitch": 50, "duration": 15, "velocity": 85}, {"time": 2137, "pitch": 57, "duration": 2, "velocity": 81}, {"time": 2137, "pitch": 62, "duration": 5, "velocity": 82}, {"time": 2141, "pitch": 57, "duration": 5, "velocity": 61}, {"time": 2145, "pitch": 62, "duration": 3, "velocity": 82}, {"time": 2149, "pitch": 57, "duration": 4, "velocity": 76}, {"time": 2149, "pitch": 62, "duration": 4, "velocity": 82}, {"time": 2149, "pitch": 65, "duration": 12, "velocity": 75}, {"time": 2161, "pitch": 48, "duration": 18, "velocity": 82}, {"time": 2161, "pitch": 55, "duration": 2, "velocity": 76}, {"time": 2161, "pitch": 60, "duration": 5, "velocity": 75}, {"time": 2165, "pitch": 55, "duration": 10, "velocity": 74}, {"time": 2169, "pitch": 64, "duration": 5, "velocity": 82}, {"time": 2173, "pitch": 60, "duration": 5, "velocity": 80}, {"time": 2177, "pitch": 55, "duration": 4, "velocity": 64}, {"time": 2185, "pitch": 46, "duration": 14, "velocity": 83}, {"time": 2185, "pitch": 53, "duration": 2, "velocity": 76}, {"time": 2185, "pitch": 58, "duration": 5, "velocity": 68}, {"time": 2189, "pitch": 53, "duration": 3, "velocity": 67}, {"time": 2193, "pitch": 58, "duration": 2, "velocity": 68}, {"time": 2193, "pitch": 62, "duration": 2, "velocity": 74}, {"time": 2197, "pitch": 53, "duration": 3, "velocity": 84}, {"time": 2197, "pitch": 58, "duration": 3, "velocity": 88}, {"time": 2197, "pitch": 62, "duration": 4, "velocity": 83}, {"time": 2209, "pitch": 45, "duration": 24, "velocity": 83}, {"time": 2209, "pitch": 55, "duration": 4, "velocity": 83}, {"time": 2209, "pitch": 61, "duration": 5, "velocity": 82}, {"time": 2213, "pitch": 52, "duration": 20, "velocity": 78}, {"time": 2217, "pitch": 57, "duration": 3, "velocity": 83}, {"time": 2221, "pitch": 57, "duration": 1, "velocity": 70}, {"time": 2221, "pitch": 61, "duration": 11, "velocity": 83}, {"time": 2221, "pitch": 64, "duration": 11, "velocity": 84}, {"time": 2221, "pitch": 69, "duration": 12, "velocity": 83}, {"time": 2233, "pitch": 50, "duration": 15, "velocity": 85}, {"time": 2233, "pitch": 57, "duration": 2, "velocity": 81}, {"time": 2233, "pitch": 62, "duration": 5, "velocity": 82}, {"time": 2237, "pitch": 57, "duration": 5, "velocity": 61}, {"time": 2241, "pitch": 62, "duration": 3, "velocity": 82}, {"time": 2245, "pitch": 57, "duration": 4, "velocity": 76}, {"time": 2245, "pitch": 62, "duration": 4, "velocity": 82}, {"time": 2245, "pitch": 65, "duration": 12, "velocity": 75}, {"time": 2257, "pitch": 48, "duration": 18, "velocity": 82}, {"time": 2257, "pitch": 55, "duration": 2, "velocity": 76}, {"time": 2257, "pitch": 60, "duration": 5, "velocity": 75}, {"time": 2261, "pitch": 55, "duration": 10, "velocity": 74}, {"time": 2265, "pitch": 64, "duration": 5, "velocity": 82}, {"time": 2269, "pitch": 60, "duration": 5, "velocity": 80}, {"time": 2273, "pitch": 55, "duration": 4, "velocity": 64}, {"time": 2281, "pitch": 46, "duration": 14, "velocity": 83}, {"time": 2281, "pitch": 53, "duration": 2, "velocity": 76}, {"time": 2281, "pitch": 58, "duration": 5, "velocity": 68}, {"time": 2285, "pitch": 53, "duration": 3, "velocity": 67}, {"time": 2289, "pitch": 58, "duration": 2, "velocity": 68}, {"time": 2289, "pitch": 62, "duration": 2, "velocity": 74}, {"time": 2293, "pitch": 53, "duration": 3, "velocity": 84}, {"time": 2293, "pitch": 58, "duration": 3, "velocity": 88}, {"time": 2293, "pitch": 62, "duration": 4, "velocity": 83}, {"time": 2305, "pitch": 45, "duration": 24, "velocity": 83}, {"time": 2305, "pitch": 55, "duration": 4, "velocity": 83}, {"time": 2305, "pitch": 61, "duration": 5, "velocity": 82}, {"time": 2309, "pitch": 52, "duration": 20, "velocity": 78}, {"time": 2313, "pitch": 57, "duration": 3, "velocity": 83}, {"time": 2317, "pitch": 57, "duration": 1, "velocity": 70}, {"time": 2317, "pitch": 61, "duration": 11, "velocity": 83}, {"time": 2317, "pitch": 64, "duration": 11, "velocity": 84}, {"time": 2317, "pitch": 69, "duration": 12, "velocity": 83}, {"time": 2329, "pitch": 50, "duration": 15, "velocity": 85}, {"time": 2329, "pitch": 57, "duration": 2, "velocity": 81}, {"time": 2329, "pitch": 62, "duration": 5, "velocity": 82}, {"time": 2333, "pitch": 57, "duration": 5, "velocity": 61}, {"time": 2337, "pitch": 62, "duration": 3, "velocity": 82}, {"time": 2341, "pitch": 57, "duration": 4, "velocity": 76}, {"time": 2341, "pitch": 62, "duration": 4, "velocity": 82}, {"time": 2341, "pitch": 65, "duration": 12, "velocity": 75}, {"time": 2353, "pitch": 48, "duration": 18, "velocity": 82}, {"time": 2353, "pitch": 55, "duration": 2, "velocity": 76}, {"time": 2353, "pitch": 60, "duration": 5, "velocity": 75}, {"time": 2357, "pitch": 55, "duration": 10, "velocity": 74}, {"time": 2361, "pitch": 64, "duration": 5, "velocity": 82}, {"time": 2365, "pitch": 60, "duration": 5, "velocity": 80}, {"time": 2369, "pitch": 55, "duration": 4, "velocity": 64}, {"time": 2377, "pitch": 46, "duration": 14, "velocity": 83}, {"time": 2377, "pitch": 53, "duration": 2, "velocity": 76}, {"time": 2377, "pitch": 58, "duration": 5, "velocity": 68}, {"time": 2381, "pitch": 53, "duration": 3, "velocity": 67}, {"time": 2385, "pitch": 58, "duration": 2, "velocity": 68}, {"time": 2385, "pitch": 62, "duration": 2, "velocity": 74}, {"time": 2389, "pitch": 53, "duration": 3, "velocity": 84}, {"time": 2389, "pitch": 58, "duration": 3, "velocity": 88}, {"time": 2389, "pitch": 62, "duration": 4, "velocity": 83}, {"time": 2401, "pitch": 45, "duration": 24, "velocity": 83}, {"time": 2401, "pitch": 55, "duration": 4, "velocity": 83}, {"time": 2401, "pitch": 61, "duration": 5, "velocity": 82}, {"time": 2405, "pitch": 52, "duration": 20, "velocity": 78}, {"time": 2409, "pitch": 57, "duration": 3, "velocity": 83}, {"time": 2413, "pitch": 57, "duration": 1, "velocity": 70}, {"time": 2413, "pitch": 61, "duration": 11, "velocity": 83}, {"time": 2413, "pitch": 64, "duration": 11, "velocity": 84}, {"time": 2413, "pitch": 69, "duration": 12, "velocity": 83}, {"time": 2425, "pitch": 50, "duration": 15, "velocity": 85}, {"time": 2425, "pitch": 57, "duration": 2, "velocity": 81}, {"time": 2425, "pitch": 62, "duration": 5, "velocity": 82}, {"time": 2429, "pitch": 57, "duration": 5, "velocity": 61}, {"time": 2433, "pitch": 62, "duration": 3, "velocity": 82}, {"time": 2437, "pitch": 57, "duration": 4, "velocity": 76}, {"time": 2437, "pitch": 62, "duration": 4, "velocity": 82}, {"time": 2437, "pitch": 65, "duration": 12, "velocity": 75}, {"time": 2449, "pitch": 48, "duration": 18, "velocity": 82}, {"time": 2449, "pitch": 55, "duration": 2, "velocity": 76}, {"time": 2449, "pitch": 60, "duration": 5, "velocity": 75}, {"time": 2453, "pitch": 55, "duration": 10, "velocity": 74}, {"time": 2457, "pitch": 64, "duration": 5, "velocity": 82}, {"time": 2461, "pitch": 60, "duration": 5, "velocity": 80}, {"time": 2465, "pitch": 55, "duration": 4, "velocity": 64}, {"time": 2473, "pitch": 46, "duration": 14, "velocity": 83}, {"time": 2473, "pitch": 53, "duration": 2, "velocity": 76}, {"time": 2473, "pitch": 58, "duration": 5, "velocity": 68}, {"time": 2477, "pitch": 53, "duration": 3, "velocity": 67}, {"time": 2481, "pitch": 58, "duration": 2, "velocity": 68}, {"time": 2481, "pitch": 62, "duration": 2, "velocity": 74}, {"time": 2485, "pitch": 53, "duration": 3, "velocity": 84}, {"time": 2485, "pitch": 58, "duration": 3, "velocity": 88}, {"time": 2485, "pitch": 62, "duration": 4, "velocity": 83}, {"time": 2497, "pitch": 45, "duration": 24, "velocity": 83}, {"time": 2497, "pitch": 55, "duration": 4, "velocity": 83}, {"time": 2497, "pitch": 61, "duration": 5, "velocity": 82}, {"time": 2501, "pitch": 52, "duration": 20, "velocity": 78}, {"time": 2505, "pitch": 57, "duration": 3, "velocity": 83}, {"time": 2509, "pitch": 57, "duration": 1, "velocity": 70}, {"time": 2509, "pitch": 61, "duration": 11, "velocity": 83}, {"time": 2509, "pitch": 64, "duration": 11, "velocity": 84}, {"time": 2509, "pitch": 69, "duration": 12, "velocity": 83}, {"time": 2521, "pitch": 46, "duration": 14, "velocity": 80}, {"time": 2521, "pitch": 58, "duration": 1, "velocity": 57}, {"time": 2521, "pitch": 62, "duration": 5, "velocity": 83}, {"time": 2521, "pitch": 65, "duration": 5, "velocity": 83}, {"time": 2525, "pitch": 53, "duration": 10, "velocity": 68}, {"time": 2529, "pitch": 58, "duration": 2, "velocity": 88}, {"time": 2533, "pitch": 58, "duration": 4, "velocity": 86}, {"time": 2533, "pitch": 62, "duration": 5, "velocity": 85}, {"time": 2533, "pitch": 65, "duration": 6, "velocity": 83}, {"time": 2537, "pitch": 53, "duration": 2, "velocity": 81}, {"time": 2541, "pitch": 58, "duration": 1, "velocity": 73}, {"time": 2545, "pitch": 48, "duration": 21, "velocity": 85}, {"time": 2545, "pitch": 55, "duration": 2, "velocity": 70}, {"time": 2545, "pitch": 60, "duration": 5, "velocity": 71}, {"time": 2545, "pitch": 64, "duration": 5, "velocity": 82}, {"time": 2549, "pitch": 55, "duration": 2, "velocity": 83}, {"time": 2553, "pitch": 55, "duration": 2, "velocity": 83}, {"time": 2553, "pitch": 64, "duration": 2, "velocity": 84}, {"time": 2557, "pitch": 55, "duration": 2, "velocity": 88}, {"time": 2557, "pitch": 60, "duration": 5, "velocity": 86}, {"time": 2561, "pitch": 55, "duration": 2, "velocity": 87}, {"time": 2565, "pitch": 55, "duration": 1, "velocity": 88}, {"time": 2565, "pitch": 60, "duration": 1, "velocity": 83}, {"time": 2569, "pitch": 45, "duration": 17, "velocity": 84}, {"time": 2569, "pitch": 57, "duration": 4, "velocity": 83}, {"time": 2569, "pitch": 61, "duration": 6, "velocity": 83}, {"time": 2573, "pitch": 52, "duration": 10, "velocity": 83}, {"time": 2577, "pitch": 57, "duration": 3, "velocity": 82}, {"time": 2577, "pitch": 61, "duration": 2, "velocity": 61}, {"time": 2581, "pitch": 57, "duration": 2, "velocity": 83}, {"time": 2581, "pitch": 61, "duration": 3, "velocity": 82}, {"time": 2581, "pitch": 64, "duration": 3, "velocity": 84}, {"time": 2585, "pitch": 61, "duration": 2, "velocity": 71}, {"time": 2585, "pitch": 64, "duration": 2, "velocity": 80}, {"time": 2585, "pitch": 69, "duration": 3, "velocity": 80}, {"time": 2589, "pitch": 57, "duration": 2, "velocity": 87}, {"time": 2589, "pitch": 61, "duration": 1, "velocity": 62}, {"time": 2589, "pitch": 64, "duration": 3, "velocity": 70}, {"time": 2593, "pitch": 50, "duration": 17, "velocity": 87}, {"time": 2593, "pitch": 62, "duration": 5, "velocity": 81}, {"time": 2593, "pitch": 65, "duration": 4, "velocity": 84}, {"time": 2597, "pitch": 57, "duration": 1, "velocity": 82}, {"time": 2601, "pitch": 57, "duration": 1, "velocity": 79}, {"time": 2601, "pitch": 65, "duration": 2, "velocity": 76}, {"time": 2605, "pitch": 57, "duration": 2, "velocity": 82}, {"time": 2605, "pitch": 65, "duration": 5, "velocity": 83}, {"time": 2609, "pitch": 64, "duration": 5, "velocity": 85}, {"time": 2613, "pitch": 62, "duration": 3, "velocity": 80}, {"time": 2617, "pitch": 40, "duration": 10, "velocity": 83}, {"time": 2617, "pitch": 52, "duration": 3, "velocity": 83}, {"time": 2617, "pitch": 62, "duration": 6, "velocity": 78}, {"time": 2621, "pitch": 58, "duration": 4, "velocity": 84}, {"time": 2625, "pitch": 52, "duration": 3, "velocity": 82}, {"time": 2629, "pitch": 52, "duration": 2, "velocity": 86}, {"time": 2629, "pitch": 55, "duration": 4, "velocity": 88}, {"time": 2629, "pitch": 58, "duration": 4, "velocity": 83}, {"time": 2629, "pitch": 62, "duration": 4, "velocity": 83}, {"time": 2633, "pitch": 46, "duration": 6, "velocity": 68}, {"time": 2637, "pitch": 52, "duration": 3, "velocity": 86}, {"time": 2641, "pitch": 40, "duration": 17, "velocity": 84}, {"time": 2641, "pitch": 52, "duration": 4, "velocity": 83}, {"time": 2641, "pitch": 55, "duration": 6, "velocity": 83}, {"time": 2641, "pitch": 58, "duration": 6, "velocity": 77}, {"time": 2645, "pitch": 46, "duration": 10, "velocity": 73}, {"time": 2649, "pitch": 52, "duration": 2, "velocity": 83}, {"time": 2653, "pitch": 52, "duration": 3, "velocity": 84}, {"time": 2653, "pitch": 55, "duration": 5, "velocity": 88}, {"time": 2653, "pitch": 62, "duration": 5, "velocity": 82}, {"time": 2657, "pitch": 46, "duration": 2, "velocity": 77}, {"time": 2661, "pitch": 52, "duration": 1, "velocity": 82}, {"time": 2665, "pitch": 45, "duration": 22, "velocity": 84}, {"time": 2665, "pitch": 57, "duration": 5, "velocity": 82}, {"time": 2665, "pitch": 61, "duration": 5, "velocity": 79}, {"time": 2669, "pitch": 52, "duration": 18, "velocity": 83}, {"time": 2673, "pitch": 57, "duration": 2, "velocity": 69}, {"time": 2673, "pitch": 61, "duration": 2, "velocity": 73}, {"time": 2673, "pitch": 64, "duration": 2, "velocity": 75}, {"time": 2677, "pitch": 57, "duration": 1, "velocity": 84}, {"time": 2677, "pitch": 69, "duration": 2, "velocity": 84}, {"time": 2681, "pitch": 57, "duration": 2, "velocity": 81}, {"time": 2681, "pitch": 64, "duration": 2, "velocity": 84}, {"time": 2685, "pitch": 57, "duration": 2, "velocity": 80}, {"time": 2689, "pitch": 46, "duration": 5, "velocity": 93}, {"time": 2689, "pitch": 53, "duration": 2, "velocity": 82}, {"time": 2689, "pitch": 58, "duration": 5, "velocity": 85}, {"time": 2689, "pitch": 62, "duration": 5, "velocity": 82}, {"time": 2693, "pitch": 53, "duration": 2, "velocity": 84}, {"time": 2697, "pitch": 53, "duration": 1, "velocity": 70}, {"time": 2697, "pitch": 58, "duration": 1, "velocity": 84}, {"time": 2697, "pitch": 62, "duration": 2, "velocity": 81}, {"time": 2701, "pitch": 48, "duration": 11, "velocity": 96}, {"time": 2701, "pitch": 55, "duration": 2, "velocity": 84}, {"time": 2701, "pitch": 60, "duration": 5, "velocity": 87}, {"time": 2701, "pitch": 64, "duration": 5, "velocity": 84}, {"time": 2705, "pitch": 55, "duration": 2, "velocity": 84}, {"time": 2709, "pitch": 55, "duration": 1, "velocity": 82}, {"time": 2709, "pitch": 60, "duration": 3, "velocity": 83}, {"time": 2709, "pitch": 64, "duration": 3, "velocity": 83}, {"time": 2713, "pitch": 41, "duration": 16, "velocity": 83}, {"time": 2713, "pitch": 53, "duration": 13, "velocity": 77}, {"time": 2713, "pitch": 60, "duration": 13, "velocity": 79}, {"time": 2737, "pitch": 45, "duration": 4, "velocity": 86}, {"time": 2737, "pitch": 57, "duration": 3, "velocity": 82}, {"time": 2737, "pitch": 61, "duration": 3, "velocity": 84}, {"time": 2737, "pitch": 69, "duration": 4, "velocity": 83}, {"time": 2743, "pitch": 47, "duration": 2, "velocity": 83}, {"time": 2743, "pitch": 59, "duration": 2, "velocity": 83}, {"time": 2743, "pitch": 71, "duration": 2, "velocity": 83}, {"time": 2749, "pitch": 49, "duration": 3, "velocity": 98}, {"time": 2749, "pitch": 61, "duration": 3, "velocity": 85}, {"time": 2749, "pitch": 73, "duration": 4, "velocity": 82}, {"time": 2755, "pitch": 52, "duration": 2, "velocity": 79}, {"time": 2755, "pitch": 55, "duration": 3, "velocity": 76}, {"time": 2755, "pitch": 64, "duration": 3, "velocity": 96}, {"time": 2755, "pitch": 69, "duration": 2, "velocity": 84}, {"time": 2755, "pitch": 76, "duration": 4, "velocity": 82}, {"time": 2761, "pitch": 50, "duration": 10, "velocity": 91}, {"time": 2761, "pitch": 57, "duration": 2, "velocity": 83}, {"time": 2761, "pitch": 62, "duration": 4, "velocity": 86}, {"time": 2761, "pitch": 65, "duration": 4, "velocity": 87}, {"time": 2765, "pitch": 57, "duration": 1, "velocity": 83}, {"time": 2769, "pitch": 57, "duration": 6, "velocity": 83}, {"time": 2769, "pitch": 65, "duration": 7, "velocity": 84}, {"time": 2773, "pitch": 50, "duration": 8, "velocity": 83}, {"time": 2777, "pitch": 57, "duration": 2, "velocity": 79}, {"time": 2777, "pitch": 64, "duration": 4, "velocity": 83}, {"time": 2781, "pitch": 57, "duration": 1, "velocity": 65}, {"time": 2781, "pitch": 62, "duration": 3, "velocity": 82}, {"time": 2785, "pitch": 45, "duration": 17, "velocity": 83}, {"time": 2785, "pitch": 64, "duration": 4, "velocity": 86}, {"time": 2789, "pitch": 52, "duration": 11, "velocity": 77}, {"time": 2793, "pitch": 57, "duration": 2, "velocity": 82}, {"time": 2793, "pitch": 64, "duration": 2, "velocity": 84}, {"time": 2797, "pitch": 57, "duration": 2, "velocity": 85}, {"time": 2797, "pitch": 64, "duration": 2, "velocity": 85}, {"time": 2801, "pitch": 57, "duration": 2, "velocity": 83}, {"time": 2801, "pitch": 60, "duration": 3, "velocity": 91}, {"time": 2805, "pitch": 57, "duration": 1, "velocity": 75}, {"time": 2809, "pitch": 43, "duration": 10, "velocity": 81}, {"time": 2809, "pitch": 55, "duration": 5, "velocity": 84}, {"time": 2809, "pitch": 62, "duration": 4, "velocity": 82}, {"time": 2817, "pitch": 55, "duration": 5, "velocity": 84}, {"time": 2817, "pitch": 58, "duration": 3, "velocity": 84}, {"time": 2817, "pitch": 62, "duration": 3, "velocity": 84}, {"time": 2821, "pitch": 50, "duration": 6, "velocity": 86}, {"time": 2825, "pitch": 55, "duration": 1, "velocity": 87}, {"time": 2825, "pitch": 58, "duration": 4, "velocity": 91}, {"time": 2825, "pitch": 62, "duration": 5, "velocity": 85}, {"time": 2825, "pitch": 67, "duration": 6, "velocity": 78}, {"time": 2829, "pitch": 55, "duration": 1, "velocity": 82}, {"time": 2833, "pitch": 45, "duration": 10, "velocity": 83}, {"time": 2833, "pitch": 57, "duration": 5, "velocity": 80}, {"time": 2833, "pitch": 64, "duration": 4, "velocity": 85}, {"time": 2837, "pitch": 52, "duration": 6, "velocity": 80}, {"time": 2841, "pitch": 57, "duration": 5, "velocity": 83}, {"time": 2841, "pitch": 60, "duration": 4, "velocity": 82}, {"time": 2841, "pitch": 64, "duration": 4, "velocity": 82}, {"time": 2845, "pitch": 52, "duration": 8, "velocity": 82}, {"time": 2849, "pitch": 57, "duration": 2, "velocity": 84}, {"time": 2849, "pitch": 60, "duration": 4, "velocity": 86}, {"time": 2853, "pitch": 57, "duration": 1, "velocity": 82}, {"time": 2857, "pitch": 47, "duration": 14, "velocity": 85}, {"time": 2857, "pitch": 59, "duration": 2, "velocity": 88}, {"time": 2857, "pitch": 62, "duration": 2, "velocity": 87}, {"time": 2861, "pitch": 59, "duration": 2, "velocity": 76}, {"time": 2861, "pitch": 65, "duration": 2, "velocity": 78}, {"time": 2865, "pitch": 59, "duration": 3, "velocity": 78}, {"time": 2865, "pitch": 65, "duration": 3, "velocity": 77}, {"time": 2869, "pitch": 59, "duration": 4, "velocity": 83}, {"time": 2869, "pitch": 62, "duration": 5, "velocity": 86}, {"time": 2869, "pitch": 65, "duration": 5, "velocity": 84}, {"time": 2869, "pitch": 71, "duration": 4, "velocity": 84}, {"time": 2873, "pitch": 53, "duration": 1, "velocity": 84}, {"time": 2877, "pitch": 59, "duration": 1, "velocity": 83}, {"time": 2881, "pitch": 45, "duration": 14, "velocity": 84}, {"time": 2881, "pitch": 52, "duration": 14, "velocity": 84}, {"time": 2881, "pitch": 57, "duration": 3, "velocity": 83}, {"time": 2881, "pitch": 61, "duration": 2, "velocity": 84}, {"time": 2881, "pitch": 64, "duration": 3, "velocity": 86}, {"time": 2885, "pitch": 57, "duration": 6, "velocity": 82}, {"time": 2885, "pitch": 61, "duration": 1, "velocity": 78}, {"time": 2885, "pitch": 64, "duration": 1, "velocity": 81}, {"time": 2885, "pitch": 69, "duration": 5, "velocity": 83}, {"time": 2893, "pitch": 57, "duration": 5, "velocity": 83}, {"time": 2893, "pitch": 61, "duration": 5, "velocity": 84}, {"time": 2893, "pitch": 64, "duration": 10, "velocity": 85}, {"time": 2897, "pitch": 52, "duration": 2, "velocity": 84}, {"time": 2901, "pitch": 57, "duration": 3, "velocity": 84}, {"time": 2905, "pitch": 41, "duration": 13, "velocity": 85}, {"time": 2905, "pitch": 53, "duration": 10, "velocity": 83}, {"time": 2905, "pitch": 60, "duration": 10, "velocity": 80}, {"time": 2921, "pitch": 43, "duration": 2, "velocity": 84}, {"time": 2921, "pitch": 55, "duration": 2, "velocity": 75}, {"time": 2921, "pitch": 57, "duration": 1, "velocity": 72}, {"time": 2921, "pitch": 67, "duration": 2, "velocity": 82}, {"time": 2925, "pitch": 44, "duration": 1, "velocity": 87}, {"time": 2925, "pitch": 56, "duration": 2, "velocity": 83}, {"time": 2925, "pitch": 68, "duration": 2, "velocity": 84}, {"time": 2929, "pitch": 45, "duration": 3, "velocity": 93}, {"time": 2929, "pitch": 57, "duration": 3, "velocity": 84}, {"time": 2929, "pitch": 69, "duration": 3, "velocity": 86}, {"time": 2941, "pitch": 45, "duration": 3, "velocity": 88}, {"time": 2941, "pitch": 52, "duration": 2, "velocity": 96}, {"time": 2941, "pitch": 57, "duration": 4, "velocity": 83}, {"time": 2941, "pitch": 61, "duration": 4, "velocity": 88}, {"time": 2941, "pitch": 69, "duration": 5, "velocity": 82}, {"time": 2945, "pitch": 45, "duration": 3, "velocity": 85}, {"time": 2945, "pitch": 52, "duration": 1, "velocity": 86}, {"time": 2949, "pitch": 57, "duration": 2, "velocity": 83}, {"time": 2949, "pitch": 61, "duration": 1, "velocity": 88}, {"time": 2949, "pitch": 69, "duration": 2, "velocity": 82}, {"time": 2953, "pitch": 50, "duration": 21, "velocity": 93}, {"time": 2953, "pitch": 57, "duration": 2, "velocity": 81}, {"time": 2953, "pitch": 62, "duration": 5, "velocity": 82}, {"time": 2953, "pitch": 65, "duration": 5, "velocity": 70}, {"time": 2957, "pitch": 57, "duration": 2, "velocity": 77}, {"time": 2961, "pitch": 57, "duration": 2, "velocity": 77}, {"time": 2961, "pitch": 62, "duration": 2, "velocity": 80}, {"time": 2961, "pitch": 65, "duration": 2, "velocity": 75}, {"time": 2965, "pitch": 57, "duration": 2, "velocity": 86}, {"time": 2965, "pitch": 62, "duration": 5, "velocity": 88}, {"time": 2965, "pitch": 65, "duration": 5, "velocity": 86}, {"time": 2969, "pitch": 57, "duration": 2, "velocity": 71}, {"time": 2973, "pitch": 57, "duration": 1, "velocity": 53}, {"time": 2973, "pitch": 62, "duration": 1, "velocity": 73}, {"time": 2973, "pitch": 65, "duration": 3, "velocity": 77}, {"time": 2977, "pitch": 48, "duration": 14, "velocity": 88}, {"time": 2977, "pitch": 55, "duration": 2, "velocity": 83}, {"time": 2977, "pitch": 64, "duration": 5, "velocity": 83}, {"time": 2981, "pitch": 55, "duration": 1, "velocity": 80}, {"time": 2985, "pitch": 55, "duration": 1, "velocity": 78}, {"time": 2985, "pitch": 60, "duration": 1, "velocity": 78}, {"time": 2985, "pitch": 64, "duration": 1, "velocity": 82}, {"time": 2989, "pitch": 55, "duration": 2, "velocity": 84}, {"time": 2989, "pitch": 60, "duration": 4, "velocity": 86}, {"time": 2989, "pitch": 64, "duration": 4, "velocity": 86}, {"time": 2993, "pitch": 48, "duration": 2, "velocity": 82}, {"time": 2997, "pitch": 55, "duration": 2, "velocity": 77}, {"time": 3001, "pitch": 46, "duration": 16, "velocity": 87}, {"time": 3001, "pitch": 53, "duration": 2, "velocity": 82}, {"time": 3001, "pitch": 58, "duration": 6, "velocity": 72}, {"time": 3005, "pitch": 53, "duration": 5, "velocity": 66}, {"time": 3009, "pitch": 58, "duration": 2, "velocity": 65}, {"time": 3013, "pitch": 53, "duration": 3, "velocity": 82}, {"time": 3013, "pitch": 58, "duration": 5, "velocity": 83}, {"time": 3013, "pitch": 62, "duration": 20, "velocity": 82}, {"time": 3017, "pitch": 53, "duration": 6, "velocity": 75}, {"time": 3021, "pitch": 58, "duration": 3, "velocity": 71}, {"time": 3025, "pitch": 48, "duration": 17, "velocity": 85}, {"time": 3025, "pitch": 55, "duration": 2, "velocity": 84}, {"time": 3025, "pitch": 64, "duration": 6, "velocity": 87}, {"time": 3029, "pitch": 55, "duration": 2, "velocity": 75}, {"time": 3033, "pitch": 55, "duration": 2, "velocity": 70}, {"time": 3033, "pitch": 64, "duration": 2, "velocity": 82}, {"time": 3037, "pitch": 55, "duration": 2, "velocity": 83}, {"time": 3037, "pitch": 64, "duration": 3, "velocity": 85}, {"time": 3041, "pitch": 55, "duration": 1, "velocity": 69}, {"time": 3041, "pitch": 60, "duration": 3, "velocity": 71}, {"time": 3049, "pitch": 41, "duration": 22, "velocity": 85}, {"time": 3049, "pitch": 53, "duration": 5, "velocity": 80}, {"time": 3049, "pitch": 57, "duration": 6, "velocity": 82}, {"time": 3053, "pitch": 48, "duration": 10, "velocity": 72}, {"time": 3057, "pitch": 53, "duration": 2, "velocity": 68}, {"time": 3057, "pitch": 57, "duration": 2, "velocity": 59}, {"time": 3061, "pitch": 53, "duration": 5, "velocity": 82}, {"time": 3061, "pitch": 57, "duration": 6, "velocity": 83}, {"time": 3061, "pitch": 62, "duration": 1, "velocity": 67}, {"time": 3065, "pitch": 48, "duration": 6, "velocity": 82}, {"time": 3069, "pitch": 53, "duration": 2, "velocity": 83}, {"time": 3069, "pitch": 57, "duration": 2, "velocity": 71}, {"time": 3073, "pitch": 41, "duration": 21, "velocity": 83}, {"time": 3073, "pitch": 53, "duration": 6, "velocity": 83}, {"time": 3073, "pitch": 58, "duration": 6, "velocity": 82}, {"time": 3077, "pitch": 48, "duration": 10, "velocity": 67}, {"time": 3081, "pitch": 53, "duration": 2, "velocity": 79}, {"time": 3081, "pitch": 58, "duration": 2, "velocity": 71}, {"time": 3085, "pitch": 53, "duration": 5, "velocity": 81}, {"time": 3085, "pitch": 58, "duration": 6, "velocity": 85}, {"time": 3089, "pitch": 48, "duration": 6, "velocity": 72}, {"time": 3093, "pitch": 53, "duration": 2, "velocity": 80}, {"time": 3093, "pitch": 58, "duration": 3, "velocity": 71}, {"time": 3097, "pitch": 41, "duration": 22, "velocity": 84}, {"time": 3097, "pitch": 53, "duration": 5, "velocity": 77}, {"time": 3097, "pitch": 59, "duration": 6, "velocity": 79}, {"time": 3101, "pitch": 48, "duration": 11, "velocity": 67}, {"time": 3105, "pitch": 53, "duration": 2, "velocity": 77}, {"time": 3105, "pitch": 59, "duration": 2, "velocity": 81}, {"time": 3109, "pitch": 53, "duration": 10, "velocity": 78}, {"time": 3109, "pitch": 59, "duration": 11, "velocity": 82}, {"time": 3117, "pitch": 48, "duration": 3, "velocity": 72}, {"time": 3121, "pitch": 41, "duration": 23, "velocity": 82}, {"time": 3121, "pitch": 53, "duration": 6, "velocity": 78}, {"time": 3121, "pitch": 60, "duration": 10, "velocity": 80}, {"time": 3125, "pitch": 48, "duration": 19, "velocity": 61}, {"time": 3129, "pitch": 53, "duration": 15, "velocity": 75}, {"time": 3133, "pitch": 60, "duration": 11, "velocity": 74}, {"time": 3145, "pitch": 50, "duration": 18, "velocity": 84}, {"time": 3149, "pitch": 57, "duration": 22, "velocity": 71}, {"time": 3153, "pitch": 62, "duration": 20, "velocity": 75}, {"time": 3157, "pitch": 65, "duration": 21, "velocity": 72}, {"time": 3157, "pitch": 69, "duration": 22, "velocity": 77}, {"time": 3169, "pitch": 48, "duration": 16, "velocity": 83}, {"time": 3173, "pitch": 57, "duration": 11, "velocity": 75}, {"time": 3177, "pitch": 60, "duration": 17, "velocity": 80}, {"time": 3181, "pitch": 65, "duration": 11, "velocity": 71}, {"time": 3181, "pitch": 69, "duration": 22, "velocity": 81}, {"time": 3192, "pitch": 53, "duration": 5, "velocity": 74}, {"time": 3193, "pitch": 58, "duration": 11, "velocity": 71}, {"time": 3193, "pitch": 46, "duration": 28, "velocity": 77}, {"time": 3193, "pitch": 62, "duration": 11, "velocity": 72}, {"time": 3194, "pitch": 65, "duration": 9, "velocity": 72}, {"time": 3207, "pitch": 58, "duration": 3, "velocity": 71}, {"time": 3207, "pitch": 62, "duration": 3, "velocity": 77}, {"time": 3213, "pitch": 53, "duration": 4, "velocity": 67}, {"time": 3221, "pitch": 62, "duration": 3, "velocity": 60}, {"time": 3221, "pitch": 58, "duration": 3, "velocity": 62}, {"time": 3235, "pitch": 39, "duration": 7, "velocity": 93}, {"time": 3237, "pitch": 46, "duration": 6, "velocity": 81}, {"time": 3239, "pitch": 51, "duration": 3, "velocity": 71}, {"time": 3241, "pitch": 55, "duration": 1, "velocity": 77}, {"time": 3241, "pitch": 58, "duration": 2, "velocity": 68}, {"time": 3242, "pitch": 63, "duration": 2, "velocity": 74}, {"time": 3251, "pitch": 58, "duration": 6, "velocity": 69}, {"time": 3255, "pitch": 70, "duration": 1, "velocity": 70}, {"time": 3255, "pitch": 63, "duration": 1, "velocity": 75}, {"time": 3258, "pitch": 67, "duration": 1, "velocity": 59}, {"time": 3258, "pitch": 63, "duration": 1, "velocity": 55}, {"time": 3261, "pitch": 70, "duration": 2, "velocity": 66}, {"time": 3265, "pitch": 75, "duration": 3, "velocity": 73}, {"time": 3266, "pitch": 63, "duration": 1, "velocity": 64}, {"time": 3271, "pitch": 75, "duration": 2, "velocity": 69}, {"time": 3276, "pitch": 75, "duration": 2, "velocity": 55}, {"time": 3276, "pitch": 79, "duration": 3, "velocity": 72}, {"time": 3283, "pitch": 75, "duration": 2, "velocity": 36}, {"time": 3283, "pitch": 82, "duration": 2, "velocity": 38}, {"time": 3291, "pitch": 82, "duration": 1, "velocity": 73}, {"time": 3291, "pitch": 87, "duration": 2, "velocity": 72}, {"time": 3300, "pitch": 91, "duration": 1, "velocity": 72}], "annotations": [{"time": 26, "annotation": {"number": 64, "value": 127}, "group": "control_change"}, {"time": 49, "annotation": {"number": 64, "value": 0}, "group": "control_change"}, {"time": 53, "annotation": {"number": 64, "value": 127}, "group": "control_change"}, {"time": 53, "annotation": {"number": 64, "value": 0}, "group": "control_change"}, {"time": 71, "annotation": {"number": 64, "value": 0}, "group": "control_change"}, {"time": 74, "annotation": {"number": 64, "value": 127}, "group": "control_change"}, {"time": 74, "annotation": {"number": 64, "value": 0}, "group": "control_change"}, {"time": 96, "annotation": {"number": 64, "value": 0}, "group": "control_change"}, {"time": 98, "annotation": {"number": 64, "value": 127}, "group": "control_change"}, {"time": 98, "annotation": {"number": 64, "value": 0}, "group": "control_change"}, {"time": 120, "annotation": {"number": 64, "value": 0}, "group": "control_change"}, {"time": 122, "annotation": {"number": 64, "value": 127}, "group": "control_change"}, {"time": 122, "annotation": {"number": 64, "value": 0}, "group": "control_change"}, {"time": 123, "annotation": {"number": 64, "value": 127}, "group": "control_change"}, {"time": 145, "annotation": {"number": 64, "value": 0}, "group": "control_change"}, {"time": 147, "annotation": {"number": 64, "value": 127}, "group": "control_change"}, {"time": 169, "annotation": {"number": 64, "value": 0}, "group": "control_change"}, {"time": 170, "annotation": {"number": 64, "value": 127}, "group": "control_change"}, {"time": 191, "annotation": {"number": 64, "value": 0}, "group": "control_change"}, {"time": 193, "annotation": {"number": 64, "value": 127}, "group": "control_change"}, {"time": 215, "annotation": {"number": 64, "value": 0}, "group": "control_change"}, {"time": 218, "annotation": {"number": 64, "value": 127}, "group": "control_change"}, {"time": 218, "annotation": {"number": 64, "value": 0}, "group": "control_change"}, {"time": 219, "annotation": {"number": 64, "value": 127}, "group": "control_change"}, {"time": 241, "annotation": {"number": 64, "value": 0}, "group": "control_change"}, {"time": 243, "annotation": {"number": 64, "value": 127}, "group": "control_change"}, {"time": 265, "annotation": {"number": 64, "value": 0}, "group": "control_change"}, {"time": 267, "annotation": {"number": 64, "value": 127}, "group": "control_change"}, {"time": 288, "annotation": {"number": 64, "value": 0}, "group": "control_change"}, {"time": 291, "annotation": {"number": 64, "value": 127}, "group": "control_change"}, {"time": 316, "annotation": {"number": 64, "value": 127}, "group": "control_change"}, {"time": 316, "annotation": {"number": 64, "value": 0}, "group": "control_change"}, {"time": 338, "annotation": {"number": 64, "value": 0}, "group": "control_change"}, {"time": 340, "annotation": {"number": 64, "value": 127}, "group": "control_change"}, {"time": 360, "annotation": {"number": 64, "value": 0}, "group": "control_change"}, {"time": 362, "annotation": {"number": 64, "value": 127}, "group": "control_change"}, {"time": 384, "annotation": {"number": 64, "value": 0}, "group": "control_change"}, {"time": 386, "annotation": {"number": 64, "value": 127}, "group": "control_change"}, {"time": 408, "annotation": {"number": 64, "value": 0}, "group": "control_change"}, {"time": 410, "annotation": {"number": 64, "value": 127}, "group": "control_change"}, {"time": 430, "annotation": {"number": 64, "value": 0}, "group": "control_change"}, {"time": 435, "annotation": {"number": 64, "value": 127}, "group": "control_change"}, {"time": 456, "annotation": {"number": 64, "value": 0}, "group": "control_change"}, {"time": 459, "annotation": {"number": 64, "value": 127}, "group": "control_change"}, {"time": 480, "annotation": {"number": 64, "value": 0}, "group": "control_change"}, {"time": 483, "annotation": {"number": 64, "value": 127}, "group": "control_change"}, {"time": 505, "annotation": {"number": 64, "value": 0}, "group": "control_change"}, {"time": 510, "annotation": {"number": 64, "value": 127}, "group": "control_change"}, {"time": 530, "annotation": {"number": 64, "value": 0}, "group": "control_change"}, {"time": 533, "annotation": {"number": 64, "value": 127}, "group": "control_change"}, {"time": 533, "annotation": {"number": 64, "value": 0}, "group": "control_change"}, {"time": 552, "annotation": {"number": 64, "value": 0}, "group": "control_change"}, {"time": 554, "annotation": {"number": 64, "value": 127}, "group": "control_change"}, {"time": 576, "annotation": {"number": 64, "value": 0}, "group": "control_change"}, {"time": 578, "annotation": {"number": 64, "value": 127}, "group": "control_change"}, {"time": 599, "annotation": {"number": 64, "value": 0}, "group": "control_change"}, {"time": 602, "annotation": {"number": 64, "value": 127}, "group": "control_change"}, {"time": 616, "annotation": {"number": 64, "value": 0}, "group": "control_change"}, {"time": 626, "annotation": {"number": 64, "value": 127}, "group": "control_change"}, {"time": 649, "annotation": {"number": 64, "value": 0}, "group": "control_change"}, {"time": 651, "annotation": {"number": 64, "value": 127}, "group": "control_change"}, {"time": 672, "annotation": {"number": 64, "value": 0}, "group": "control_change"}, {"time": 675, "annotation": {"number": 64, "value": 127}, "group": "control_change"}, {"time": 696, "annotation": {"number": 64, "value": 0}, "group": "control_change"}, {"time": 700, "annotation": {"number": 64, "value": 127}, "group": "control_change"}, {"time": 721, "annotation": {"number": 64, "value": 0}, "group": "control_change"}, {"time": 724, "annotation": {"number": 64, "value": 127}, "group": "control_change"}, {"time": 745, "annotation": {"number": 64, "value": 0}, "group": "control_change"}, {"time": 747, "annotation": {"number": 64, "value": 127}, "group": "control_change"}, {"time": 747, "annotation": {"number": 64, "value": 0}, "group": "control_change"}, {"time": 768, "annotation": {"number": 64, "value": 0}, "group": "control_change"}, {"time": 769, "annotation": {"number": 64, "value": 127}, "group": "control_change"}, {"time": 779, "annotation": {"number": 64, "value": 0}, "group": "control_change"}, {"time": 781, "annotation": {"number": 64, "value": 127}, "group": "control_change"}, {"time": 792, "annotation": {"number": 64, "value": 0}, "group": "control_change"}, {"time": 793, "annotation": {"number": 64, "value": 127}, "group": "control_change"}, {"time": 793, "annotation": {"number": 64, "value": 0}, "group": "control_change"}, {"time": 817, "annotation": {"number": 64, "value": 0}, "group": "control_change"}, {"time": 818, "annotation": {"number": 64, "value": 127}, "group": "control_change"}, {"time": 838, "annotation": {"number": 64, "value": 0}, "group": "control_change"}, {"time": 841, "annotation": {"number": 64, "value": 127}, "group": "control_change"}, {"time": 865, "annotation": {"number": 64, "value": 0}, "group": "control_change"}, {"time": 867, "annotation": {"number": 64, "value": 127}, "group": "control_change"}, {"time": 887, "annotation": {"number": 64, "value": 0}, "group": "control_change"}, {"time": 890, "annotation": {"number": 64, "value": 127}, "group": "control_change"}, {"time": 912, "annotation": {"number": 64, "value": 0}, "group": "control_change"}, {"time": 915, "annotation": {"number": 64, "value": 127}, "group": "control_change"}, {"time": 936, "annotation": {"number": 64, "value": 0}, "group": "control_change"}, {"time": 938, "annotation": {"number": 64, "value": 127}, "group": "control_change"}, {"time": 960, "annotation": {"number": 64, "value": 0}, "group": "control_change"}, {"time": 962, "annotation": {"number": 64, "value": 127}, "group": "control_change"}, {"time": 985, "annotation": {"number": 64, "value": 0}, "group": "control_change"}, {"time": 985, "annotation": {"number": 64, "value": 127}, "group": "control_change"}, {"time": 1009, "annotation": {"number": 64, "value": 0}, "group": "control_change"}, {"time": 1010, "annotation": {"number": 64, "value": 127}, "group": "control_change"}, {"time": 1030, "annotation": {"number": 64, "value": 0}, "group": "control_change"}, {"time": 1033, "annotation": {"number": 64, "value": 127}, "group": "control_change"}, {"time": 1057, "annotation": {"number": 64, "value": 0}, "group": "control_change"}, {"time": 1057, "annotation": {"number": 64, "value": 127}, "group": "control_change"}, {"time": 1080, "annotation": {"number": 64, "value": 0}, "group": "control_change"}, {"time": 1082, "annotation": {"number": 64, "value": 127}, "group": "control_change"}, {"time": 1105, "annotation": {"number": 64, "value": 0}, "group": "control_change"}, {"time": 1106, "annotation": {"number": 64, "value": 127}, "group": "control_change"}, {"time": 1106, "annotation": {"number": 64, "value": 0}, "group": "control_change"}, {"time": 1127, "annotation": {"number": 64, "value": 0}, "group": "control_change"}, {"time": 1131, "annotation": {"number": 64, "value": 127}, "group": "control_change"}, {"time": 1153, "annotation": {"number": 64, "value": 0}, "group": "control_change"}, {"time": 1155, "annotation": {"number": 64, "value": 127}, "group": "control_change"}, {"time": 1177, "annotation": {"number": 64, "value": 0}, "group": "control_change"}, {"time": 1178, "annotation": {"number": 64, "value": 127}, "group": "control_change"}, {"time": 1200, "annotation": {"number": 64, "value": 0}, "group": "control_change"}, {"time": 1202, "annotation": {"number": 64, "value": 127}, "group": "control_change"}, {"time": 1221, "annotation": {"number": 64, "value": 0}, "group": "control_change"}, {"time": 1226, "annotation": {"number": 64, "value": 127}, "group": "control_change"}, {"time": 1226, "annotation": {"number": 64, "value": 0}, "group": "control_change"}, {"time": 1227, "annotation": {"number": 64, "value": 127}, "group": "control_change"}, {"time": 1249, "annotation": {"number": 64, "value": 0}, "group": "control_change"}, {"time": 1251, "annotation": {"number": 64, "value": 127}, "group": "control_change"}, {"time": 1273, "annotation": {"number": 64, "value": 0}, "group": "control_change"}, {"time": 1275, "annotation": {"number": 64, "value": 127}, "group": "control_change"}, {"time": 1296, "annotation": {"number": 64, "value": 0}, "group": "control_change"}, {"time": 1299, "annotation": {"number": 64, "value": 127}, "group": "control_change"}, {"time": 1324, "annotation": {"number": 64, "value": 127}, "group": "control_change"}, {"time": 1324, "annotation": {"number": 64, "value": 0}, "group": "control_change"}, {"time": 1346, "annotation": {"number": 64, "value": 0}, "group": "control_change"}, {"time": 1348, "annotation": {"number": 64, "value": 127}, "group": "control_change"}, {"time": 1368, "annotation": {"number": 64, "value": 0}, "group": "control_change"}, {"time": 1370, "annotation": {"number": 64, "value": 127}, "group": "control_change"}, {"time": 1392, "annotation": {"number": 64, "value": 0}, "group": "control_change"}, {"time": 1394, "annotation": {"number": 64, "value": 127}, "group": "control_change"}, {"time": 1416, "annotation": {"number": 64, "value": 0}, "group": "control_change"}, {"time": 1418, "annotation": {"number": 64, "value": 127}, "group": "control_change"}, {"time": 1438, "annotation": {"number": 64, "value": 0}, "group": "control_change"}, {"time": 1443, "annotation": {"number": 64, "value": 127}, "group": "control_change"}, {"time": 1464, "annotation": {"number": 64, "value": 0}, "group": "control_change"}, {"time": 1467, "annotation": {"number": 64, "value": 127}, "group": "control_change"}, {"time": 1488, "annotation": {"number": 64, "value": 0}, "group": "control_change"}, {"time": 1491, "annotation": {"number": 64, "value": 127}, "group": "control_change"}, {"time": 1513, "annotation": {"number": 64, "value": 0}, "group": "control_change"}, {"time": 1518, "annotation": {"number": 64, "value": 127}, "group": "control_change"}, {"time": 1538, "annotation": {"number": 64, "value": 0}, "group": "control_change"}, {"time": 1541, "annotation": {"number": 64, "value": 127}, "group": "control_change"}, {"time": 1541, "annotation": {"number": 64, "value": 0}, "group": "control_change"}, {"time": 1560, "annotation": {"number": 64, "value": 0}, "group": "control_change"}, {"time": 1562, "annotation": {"number": 64, "value": 127}, "group": "control_change"}, {"time": 1584, "annotation": {"number": 64, "value": 0}, "group": "control_change"}, {"time": 1586, "annotation": {"number": 64, "value": 127}, "group": "control_change"}, {"time": 1607, "annotation": {"number": 64, "value": 0}, "group": "control_change"}, {"time": 1610, "annotation": {"number": 64, "value": 127}, "group": "control_change"}, {"time": 1624, "annotation": {"number": 64, "value": 0}, "group": "control_change"}, {"time": 1634, "annotation": {"number": 64, "value": 127}, "group": "control_change"}, {"time": 1657, "annotation": {"number": 64, "value": 0}, "group": "control_change"}, {"time": 1659, "annotation": {"number": 64, "value": 127}, "group": "control_change"}, {"time": 1680, "annotation": {"number": 64, "value": 0}, "group": "control_change"}, {"time": 1683, "annotation": {"number": 64, "value": 127}, "group": "control_change"}, {"time": 1704, "annotation": {"number": 64, "value": 0}, "group": "control_change"}, {"time": 1708, "annotation": {"number": 64, "value": 127}, "group": "control_change"}, {"time": 1729, "annotation": {"number": 64, "value": 0}, "group": "control_change"}, {"time": 1732, "annotation": {"number": 64, "value": 127}, "group": "control_change"}, {"time": 1753, "annotation": {"number": 64, "value": 0}, "group": "control_change"}, {"time": 1755, "annotation": {"number": 64, "value": 127}, "group": "control_change"}, {"time": 1755, "annotation": {"number": 64, "value": 0}, "group": "control_change"}, {"time": 1776, "annotation": {"number": 64, "value": 0}, "group": "control_change"}, {"time": 1777, "annotation": {"number": 64, "value": 127}, "group": "control_change"}, {"time": 1787, "annotation": {"number": 64, "value": 0}, "group": "control_change"}, {"time": 1789, "annotation": {"number": 64, "value": 127}, "group": "control_change"}, {"time": 1800, "annotation": {"number": 64, "value": 0}, "group": "control_change"}, {"time": 1801, "annotation": {"number": 64, "value": 127}, "group": "control_change"}, {"time": 1801, "annotation": {"number": 64, "value": 0}, "group": "control_change"}, {"time": 1825, "annotation": {"number": 64, "value": 0}, "group": "control_change"}, {"time": 1826, "annotation": {"number": 64, "value": 127}, "group": "control_change"}, {"time": 1846, "annotation": {"number": 64, "value": 0}, "group": "control_change"}, {"time": 1849, "annotation": {"number": 64, "value": 127}, "group": "control_change"}, {"time": 1873, "annotation": {"number": 64, "value": 0}, "group": "control_change"}, {"time": 1875, "annotation": {"number": 64, "value": 127}, "group": "control_change"}, {"time": 1895, "annotation": {"number": 64, "value": 0}, "group": "control_change"}, {"time": 1898, "annotation": {"number": 64, "value": 127}, "group": "control_change"}, {"time": 1920, "annotation": {"number": 64, "value": 0}, "group": "control_change"}, {"time": 1923, "annotation": {"number": 64, "value": 127}, "group": "control_change"}, {"time": 1944, "annotation": {"number": 64, "value": 0}, "group": "control_change"}, {"time": 1946, "annotation": {"number": 64, "value": 127}, "group": "control_change"}, {"time": 1968, "annotation": {"number": 64, "value": 0}, "group": "control_change"}, {"time": 1970, "annotation": {"number": 64, "value": 127}, "group": "control_change"}, {"time": 1993, "annotation": {"number": 64, "value": 0}, "group": "control_change"}, {"time": 1993, "annotation": {"number": 64, "value": 127}, "group": "control_change"}, {"time": 2017, "annotation": {"number": 64, "value": 0}, "group": "control_change"}, {"time": 2018, "annotation": {"number": 64, "value": 127}, "group": "control_change"}, {"time": 2038, "annotation": {"number": 64, "value": 0}, "group": "control_change"}, {"time": 2041, "annotation": {"number": 64, "value": 127}, "group": "control_change"}, {"time": 2065, "annotation": {"number": 64, "value": 0}, "group": "control_change"}, {"time": 2065, "annotation": {"number": 64, "value": 127}, "group": "control_change"}, {"time": 2088, "annotation": {"number": 64, "value": 0}, "group": "control_change"}, {"time": 2090, "annotation": {"number": 64, "value": 127}, "group": "control_change"}, {"time": 2113, "annotation": {"number": 64, "value": 0}, "group": "control_change"}, {"time": 2114, "annotation": {"number": 64, "value": 127}, "group": "control_change"}, {"time": 2114, "annotation": {"number": 64, "value": 0}, "group": "control_change"}, {"time": 2135, "annotation": {"number": 64, "value": 0}, "group": "control_change"}, {"time": 2139, "annotation": {"number": 64, "value": 127}, "group": "control_change"}, {"time": 2161, "annotation": {"number": 64, "value": 0}, "group": "control_change"}, {"time": 2163, "annotation": {"number": 64, "value": 127}, "group": "control_change"}, {"time": 2185, "annotation": {"number": 64, "value": 0}, "group": "control_change"}, {"time": 2186, "annotation": {"number": 64, "value": 127}, "group": "control_change"}, {"time": 2208, "annotation": {"number": 64, "value": 0}, "group": "control_change"}, {"time": 2210, "annotation": {"number": 64, "value": 127}, "group": "control_change"}, {"time": 2229, "annotation": {"number": 64, "value": 0}, "group": "control_change"}, {"time": 2235, "annotation": {"number": 64, "value": 127}, "group": "control_change"}, {"time": 2257, "annotation": {"number": 64, "value": 0}, "group": "control_change"}, {"time": 2259, "annotation": {"number": 64, "value": 127}, "group": "control_change"}, {"time": 2281, "annotation": {"number": 64, "value": 0}, "group": "control_change"}, {"time": 2282, "annotation": {"number": 64, "value": 127}, "group": "control_change"}, {"time": 2304, "annotation": {"number": 64, "value": 0}, "group": "control_change"}, {"time": 2306, "annotation": {"number": 64, "value": 127}, "group": "control_change"}, {"time": 2325, "annotation": {"number": 64, "value": 0}, "group": "control_change"}, {"time": 2331, "annotation": {"number": 64, "value": 127}, "group": "control_change"}, {"time": 2353, "annotation": {"number": 64, "value": 0}, "group": "control_change"}, {"time": 2355, "annotation": {"number": 64, "value": 127}, "group": "control_change"}, {"time": 2377, "annotation": {"number": 64, "value": 0}, "group": "control_change"}, {"time": 2378, "annotation": {"number": 64, "value": 127}, "group": "control_change"}, {"time": 2400, "annotation": {"number": 64, "value": 0}, "group": "control_change"}, {"time": 2402, "annotation": {"number": 64, "value": 127}, "group": "control_change"}, {"time": 2421, "annotation": {"number": 64, "value": 0}, "group": "control_change"}, {"time": 2427, "annotation": {"number": 64, "value": 127}, "group": "control_change"}, {"time": 2449, "annotation": {"number": 64, "value": 0}, "group": "control_change"}, {"time": 2451, "annotation": {"number": 64, "value": 127}, "group": "control_change"}, {"time": 2473, "annotation": {"number": 64, "value": 0}, "group": "control_change"}, {"time": 2474, "annotation": {"number": 64, "value": 127}, "group": "control_change"}, {"time": 2496, "annotation": {"number": 64, "value": 0}, "group": "control_change"}, {"time": 2498, "annotation": {"number": 64, "value": 127}, "group": "control_change"}, {"time": 2517, "annotation": {"number": 64, "value": 0}, "group": "control_change"}, {"time": 2522, "annotation": {"number": 64, "value": 127}, "group": "control_change"}, {"time": 2544, "annotation": {"number": 64, "value": 0}, "group": "control_change"}, {"time": 2546, "annotation": {"number": 64, "value": 127}, "group": "control_change"}, {"time": 2568, "annotation": {"number": 64, "value": 0}, "group": "control_change"}, {"time": 2570, "annotation": {"number": 64, "value": 127}, "group": "control_change"}, {"time": 2592, "annotation": {"number": 64, "value": 0}, "group": "control_change"}, {"time": 2594, "annotation": {"number": 64, "value": 127}, "group": "control_change"}, {"time": 2616, "annotation": {"number": 64, "value": 0}, "group": "control_change"}, {"time": 2618, "annotation": {"number": 64, "value": 127}, "group": "control_change"}, {"time": 2640, "annotation": {"number": 64, "value": 0}, "group": "control_change"}, {"time": 2642, "annotation": {"number": 64, "value": 127}, "group": "control_change"}, {"time": 2664, "annotation": {"number": 64, "value": 0}, "group": "control_change"}, {"time": 2666, "annotation": {"number": 64, "value": 127}, "group": "control_change"}, {"time": 2687, "annotation": {"number": 64, "value": 0}, "group": "control_change"}, {"time": 2689, "annotation": {"number": 64, "value": 127}, "group": "control_change"}, {"time": 2700, "annotation": {"number": 64, "value": 0}, "group": "control_change"}, {"time": 2701, "annotation": {"number": 64, "value": 127}, "group": "control_change"}, {"time": 2710, "annotation": {"number": 64, "value": 0}, "group": "control_change"}, {"time": 2714, "annotation": {"number": 64, "value": 127}, "group": "control_change"}, {"time": 2737, "annotation": {"number": 64, "value": 127}, "group": "control_change"}, {"time": 2737, "annotation": {"number": 64, "value": 0}, "group": "control_change"}, {"time": 2748, "annotation": {"number": 64, "value": 0}, "group": "control_change"}, {"time": 2749, "annotation": {"number": 64, "value": 127}, "group": "control_change"}, {"time": 2761, "annotation": {"number": 64, "value": 0}, "group": "control_change"}, {"time": 2784, "annotation": {"number": 64, "value": 0}, "group": "control_change"}, {"time": 2785, "annotation": {"number": 64, "value": 127}, "group": "control_change"}, {"time": 2807, "annotation": {"number": 64, "value": 0}, "group": "control_change"}, {"time": 2809, "annotation": {"number": 64, "value": 127}, "group": "control_change"}, {"time": 2831, "annotation": {"number": 64, "value": 0}, "group": "control_change"}, {"time": 2833, "annotation": {"number": 64, "value": 127}, "group": "control_change"}, {"time": 2855, "annotation": {"number": 64, "value": 0}, "group": "control_change"}, {"time": 2857, "annotation": {"number": 64, "value": 127}, "group": "control_change"}, {"time": 2879, "annotation": {"number": 64, "value": 0}, "group": "control_change"}, {"time": 2881, "annotation": {"number": 64, "value": 127}, "group": "control_change"}, {"time": 2903, "annotation": {"number": 64, "value": 0}, "group": "control_change"}, {"time": 2905, "annotation": {"number": 64, "value": 127}, "group": "control_change"}, {"time": 2918, "annotation": {"number": 64, "value": 0}, "group": "control_change"}, {"time": 2920, "annotation": {"number": 64, "value": 127}, "group": "control_change"}, {"time": 2927, "annotation": {"number": 64, "value": 0}, "group": "control_change"}, {"time": 2929, "annotation": {"number": 64, "value": 127}, "group": "control_change"}, {"time": 2932, "annotation": {"number": 64, "value": 0}, "group": "control_change"}, {"time": 2941, "annotation": {"number": 64, "value": 127}, "group": "control_change"}, {"time": 2951, "annotation": {"number": 64, "value": 0}, "group": "control_change"}, {"time": 2953, "annotation": {"number": 64, "value": 127}, "group": "control_change"}, {"time": 2975, "annotation": {"number": 64, "value": 0}, "group": "control_change"}, {"time": 2977, "annotation": {"number": 64, "value": 127}, "group": "control_change"}, {"time": 2998, "annotation": {"number": 64, "value": 0}, "group": "control_change"}, {"time": 3001, "annotation": {"number": 64, "value": 127}, "group": "control_change"}, {"time": 3024, "annotation": {"number": 64, "value": 0}, "group": "control_change"}, {"time": 3025, "annotation": {"number": 64, "value": 127}, "group": "control_change"}, {"time": 3048, "annotation": {"number": 64, "value": 0}, "group": "control_change"}, {"time": 3049, "annotation": {"number": 64, "value": 127}, "group": "control_change"}, {"time": 3072, "annotation": {"number": 64, "value": 0}, "group": "control_change"}, {"time": 3074, "annotation": {"number": 64, "value": 127}, "group": "control_change"}, {"time": 3096, "annotation": {"number": 64, "value": 0}, "group": "control_change"}, {"time": 3097, "annotation": {"number": 64, "value": 127}, "group": "control_change"}, {"time": 3120, "annotation": {"number": 64, "value": 0}, "group": "control_change"}, {"time": 3121, "annotation": {"number": 64, "value": 127}, "group": "control_change"}, {"time": 3142, "annotation": {"number": 64, "value": 0}, "group": "control_change"}, {"time": 3146, "annotation": {"number": 64, "value": 127}, "group": "control_change"}, {"time": 3169, "annotation": {"number": 64, "value": 0}, "group": "control_change"}, {"time": 3173, "annotation": {"number": 64, "value": 127}, "group": "control_change"}, {"time": 3173, "annotation": {"number": 64, "value": 0}, "group": "control_change"}, {"time": 3191, "annotation": {"number": 64, "value": 0}, "group": "control_change"}, {"time": 3194, "annotation": {"number": 64, "value": 127}, "group": "control_change"}, {"time": 3235, "annotation": {"number": 64, "value": 0}, "group": "control_change"}, {"time": 3237, "annotation": {"number": 64, "value": 127}, "group": "control_change"}]}]}