{"metadata": {"schema_version": "0.2", "title": "None", "source_filename": "690.mid", "source_format": "midi"}, "resolution": 12, "tempos": [{"time": 0, "qpm": 122.0000691333725}, {"time": 383, "qpm": 121.75003500313507}, {"time": 1521, "qpm": 122.0000691333725}, {"time": 1932, "qpm": 121.75003500313507}, {"time": 2146, "qpm": 122.0000691333725}, {"time": 3758, "qpm": 121.00043156820593}, {"time": 3863, "qpm": 122.0000691333725}, {"time": 4536, "qpm": 121.50003948751284}, {"time": 4954, "qpm": 122.0000691333725}], "time_signatures": [{"time": 0, "numerator": 1, "denominator": 4}], "tracks": [{"program": 0, "is_drum": false, "name": "MELODY", "notes": [{"time": 384, "pitch": 64, "duration": 4, "velocity": 63}, {"time": 390, "pitch": 67, "duration": 4, "velocity": 58}, {"time": 396, "pitch": 69, "duration": 8, "velocity": 60}, {"time": 408, "pitch": 64, "duration": 4, "velocity": 65}, {"time": 414, "pitch": 67, "duration": 13, "velocity": 64}, {"time": 432, "pitch": 64, "duration": 3, "velocity": 67}, {"time": 438, "pitch": 67, "duration": 3, "velocity": 58}, {"time": 444, "pitch": 69, "duration": 9, "velocity": 60}, {"time": 456, "pitch": 69, "duration": 4, "velocity": 63}, {"time": 462, "pitch": 67, "duration": 20, "velocity": 64}, {"time": 492, "pitch": 60, "duration": 4, "velocity": 62}, {"time": 498, "pitch": 62, "duration": 4, "velocity": 59}, {"time": 504, "pitch": 64, "duration": 4, "velocity": 60}, {"time": 510, "pitch": 62, "duration": 12, "velocity": 63}, {"time": 521, "pitch": 64, "duration": 6, "velocity": 60}, {"time": 534, "pitch": 57, "duration": 32, "velocity": 60}, {"time": 588, "pitch": 60, "duration": 4, "velocity": 69}, {"time": 594, "pitch": 62, "duration": 3, "velocity": 55}, {"time": 600, "pitch": 64, "duration": 4, "velocity": 56}, {"time": 606, "pitch": 62, "duration": 14, "velocity": 57}, {"time": 624, "pitch": 57, "duration": 3, "velocity": 60}, {"time": 630, "pitch": 60, "duration": 3, "velocity": 59}, {"time": 636, "pitch": 64, "duration": 4, "velocity": 60}, {"time": 642, "pitch": 62, "duration": 3, "velocity": 59}, {"time": 648, "pitch": 64, "duration": 3, "velocity": 59}, {"time": 654, "pitch": 62, "duration": 15, "velocity": 60}, {"time": 684, "pitch": 69, "duration": 4, "velocity": 59}, {"time": 690, "pitch": 67, "duration": 3, "velocity": 58}, {"time": 696, "pitch": 67, "duration": 3, "velocity": 59}, {"time": 702, "pitch": 67, "duration": 3, "velocity": 59}, {"time": 708, "pitch": 67, "duration": 8, "velocity": 60}, {"time": 720, "pitch": 67, "duration": 3, "velocity": 56}, {"time": 726, "pitch": 64, "duration": 8, "velocity": 63}, {"time": 738, "pitch": 62, "duration": 23, "velocity": 59}, {"time": 768, "pitch": 64, "duration": 3, "velocity": 63}, {"time": 774, "pitch": 67, "duration": 3, "velocity": 62}, {"time": 780, "pitch": 69, "duration": 10, "velocity": 64}, {"time": 792, "pitch": 64, "duration": 3, "velocity": 63}, {"time": 798, "pitch": 67, "duration": 13, "velocity": 60}, {"time": 816, "pitch": 64, "duration": 4, "velocity": 63}, {"time": 822, "pitch": 67, "duration": 3, "velocity": 60}, {"time": 828, "pitch": 69, "duration": 9, "velocity": 60}, {"time": 840, "pitch": 69, "duration": 4, "velocity": 58}, {"time": 846, "pitch": 67, "duration": 24, "velocity": 60}, {"time": 876, "pitch": 60, "duration": 3, "velocity": 60}, {"time": 882, "pitch": 62, "duration": 4, "velocity": 57}, {"time": 888, "pitch": 64, "duration": 4, "velocity": 59}, {"time": 894, "pitch": 62, "duration": 9, "velocity": 60}, {"time": 906, "pitch": 64, "duration": 9, "velocity": 60}, {"time": 918, "pitch": 57, "duration": 32, "velocity": 58}, {"time": 972, "pitch": 60, "duration": 4, "velocity": 59}, {"time": 978, "pitch": 62, "duration": 3, "velocity": 53}, {"time": 984, "pitch": 64, "duration": 4, "velocity": 58}, {"time": 990, "pitch": 62, "duration": 14, "velocity": 59}, {"time": 1008, "pitch": 57, "duration": 4, "velocity": 58}, {"time": 1014, "pitch": 60, "duration": 3, "velocity": 59}, {"time": 1020, "pitch": 64, "duration": 4, "velocity": 61}, {"time": 1026, "pitch": 62, "duration": 3, "velocity": 54}, {"time": 1032, "pitch": 64, "duration": 3, "velocity": 59}, {"time": 1038, "pitch": 62, "duration": 14, "velocity": 60}, {"time": 1068, "pitch": 69, "duration": 5, "velocity": 60}, {"time": 1074, "pitch": 67, "duration": 2, "velocity": 54}, {"time": 1080, "pitch": 67, "duration": 3, "velocity": 58}, {"time": 1086, "pitch": 67, "duration": 3, "velocity": 59}, {"time": 1092, "pitch": 67, "duration": 7, "velocity": 64}, {"time": 1104, "pitch": 67, "duration": 6, "velocity": 59}, {"time": 1110, "pitch": 64, "duration": 4, "velocity": 61}, {"time": 1116, "pitch": 69, "duration": 3, "velocity": 60}, {"time": 1122, "pitch": 71, "duration": 3, "velocity": 59}, {"time": 1128, "pitch": 69, "duration": 3, "velocity": 53}, {"time": 1134, "pitch": 67, "duration": 12, "velocity": 61}, {"time": 1152, "pitch": 67, "duration": 3, "velocity": 63}, {"time": 1158, "pitch": 69, "duration": 3, "velocity": 63}, {"time": 1164, "pitch": 72, "duration": 9, "velocity": 63}, {"time": 1176, "pitch": 72, "duration": 3, "velocity": 62}, {"time": 1182, "pitch": 69, "duration": 3, "velocity": 63}, {"time": 1188, "pitch": 67, "duration": 8, "velocity": 59}, {"time": 1200, "pitch": 67, "duration": 4, "velocity": 59}, {"time": 1206, "pitch": 69, "duration": 3, "velocity": 59}, {"time": 1212, "pitch": 72, "duration": 3, "velocity": 61}, {"time": 1218, "pitch": 74, "duration": 3, "velocity": 62}, {"time": 1224, "pitch": 72, "duration": 3, "velocity": 62}, {"time": 1230, "pitch": 69, "duration": 3, "velocity": 61}, {"time": 1236, "pitch": 67, "duration": 8, "velocity": 60}, {"time": 1248, "pitch": 67, "duration": 3, "velocity": 59}, {"time": 1254, "pitch": 69, "duration": 5, "velocity": 59}, {"time": 1260, "pitch": 67, "duration": 9, "velocity": 62}, {"time": 1272, "pitch": 62, "duration": 4, "velocity": 59}, {"time": 1278, "pitch": 64, "duration": 4, "velocity": 55}, {"time": 1284, "pitch": 62, "duration": 49, "velocity": 61}, {"time": 1344, "pitch": 62, "duration": 4, "velocity": 60}, {"time": 1350, "pitch": 64, "duration": 4, "velocity": 59}, {"time": 1356, "pitch": 67, "duration": 7, "velocity": 58}, {"time": 1368, "pitch": 67, "duration": 3, "velocity": 54}, {"time": 1374, "pitch": 64, "duration": 3, "velocity": 60}, {"time": 1380, "pitch": 62, "duration": 8, "velocity": 58}, {"time": 1392, "pitch": 62, "duration": 4, "velocity": 60}, {"time": 1398, "pitch": 64, "duration": 3, "velocity": 64}, {"time": 1404, "pitch": 67, "duration": 2, "velocity": 60}, {"time": 1410, "pitch": 69, "duration": 3, "velocity": 60}, {"time": 1416, "pitch": 67, "duration": 3, "velocity": 59}, {"time": 1422, "pitch": 64, "duration": 3, "velocity": 61}, {"time": 1428, "pitch": 62, "duration": 8, "velocity": 59}, {"time": 1440, "pitch": 62, "duration": 3, "velocity": 58}, {"time": 1446, "pitch": 55, "duration": 3, "velocity": 61}, {"time": 1452, "pitch": 57, "duration": 14, "velocity": 60}, {"time": 1470, "pitch": 64, "duration": 56, "velocity": 64}, {"time": 1536, "pitch": 67, "duration": 3, "velocity": 63}, {"time": 1542, "pitch": 69, "duration": 3, "velocity": 63}, {"time": 1548, "pitch": 72, "duration": 9, "velocity": 63}, {"time": 1560, "pitch": 72, "duration": 3, "velocity": 62}, {"time": 1566, "pitch": 69, "duration": 3, "velocity": 63}, {"time": 1572, "pitch": 67, "duration": 8, "velocity": 59}, {"time": 1584, "pitch": 67, "duration": 4, "velocity": 59}, {"time": 1590, "pitch": 69, "duration": 3, "velocity": 59}, {"time": 1596, "pitch": 72, "duration": 3, "velocity": 61}, {"time": 1602, "pitch": 74, "duration": 3, "velocity": 62}, {"time": 1608, "pitch": 72, "duration": 3, "velocity": 62}, {"time": 1614, "pitch": 69, "duration": 3, "velocity": 61}, {"time": 1620, "pitch": 67, "duration": 8, "velocity": 60}, {"time": 1632, "pitch": 67, "duration": 3, "velocity": 59}, {"time": 1638, "pitch": 69, "duration": 5, "velocity": 59}, {"time": 1644, "pitch": 67, "duration": 9, "velocity": 62}, {"time": 1656, "pitch": 62, "duration": 4, "velocity": 59}, {"time": 1662, "pitch": 64, "duration": 4, "velocity": 55}, {"time": 1668, "pitch": 62, "duration": 49, "velocity": 61}, {"time": 1728, "pitch": 62, "duration": 4, "velocity": 60}, {"time": 1734, "pitch": 64, "duration": 4, "velocity": 59}, {"time": 1740, "pitch": 67, "duration": 7, "velocity": 58}, {"time": 1752, "pitch": 67, "duration": 3, "velocity": 54}, {"time": 1758, "pitch": 64, "duration": 3, "velocity": 60}, {"time": 1764, "pitch": 62, "duration": 8, "velocity": 58}, {"time": 1776, "pitch": 62, "duration": 4, "velocity": 60}, {"time": 1782, "pitch": 64, "duration": 3, "velocity": 64}, {"time": 1788, "pitch": 67, "duration": 2, "velocity": 60}, {"time": 1794, "pitch": 69, "duration": 3, "velocity": 60}, {"time": 1800, "pitch": 67, "duration": 3, "velocity": 59}, {"time": 1806, "pitch": 64, "duration": 3, "velocity": 61}, {"time": 1812, "pitch": 62, "duration": 6, "velocity": 59}, {"time": 1818, "pitch": 62, "duration": 6, "velocity": 59}, {"time": 1824, "pitch": 62, "duration": 6, "velocity": 58}, {"time": 1830, "pitch": 64, "duration": 6, "velocity": 58}, {"time": 1836, "pitch": 62, "duration": 14, "velocity": 60}, {"time": 1854, "pitch": 60, "duration": 56, "velocity": 64}, {"time": 2304, "pitch": 64, "duration": 4, "velocity": 63}, {"time": 2310, "pitch": 67, "duration": 4, "velocity": 58}, {"time": 2316, "pitch": 69, "duration": 8, "velocity": 60}, {"time": 2328, "pitch": 64, "duration": 4, "velocity": 65}, {"time": 2334, "pitch": 67, "duration": 13, "velocity": 64}, {"time": 2352, "pitch": 64, "duration": 3, "velocity": 67}, {"time": 2358, "pitch": 67, "duration": 3, "velocity": 58}, {"time": 2364, "pitch": 69, "duration": 4, "velocity": 60}, {"time": 2369, "pitch": 69, "duration": 5, "velocity": 63}, {"time": 2382, "pitch": 67, "duration": 20, "velocity": 64}, {"time": 2412, "pitch": 60, "duration": 4, "velocity": 62}, {"time": 2418, "pitch": 62, "duration": 4, "velocity": 59}, {"time": 2424, "pitch": 64, "duration": 4, "velocity": 60}, {"time": 2430, "pitch": 62, "duration": 11, "velocity": 63}, {"time": 2441, "pitch": 64, "duration": 6, "velocity": 60}, {"time": 2454, "pitch": 57, "duration": 32, "velocity": 60}, {"time": 2508, "pitch": 60, "duration": 4, "velocity": 69}, {"time": 2514, "pitch": 62, "duration": 3, "velocity": 55}, {"time": 2520, "pitch": 64, "duration": 4, "velocity": 56}, {"time": 2526, "pitch": 62, "duration": 14, "velocity": 57}, {"time": 2544, "pitch": 57, "duration": 3, "velocity": 60}, {"time": 2550, "pitch": 60, "duration": 3, "velocity": 59}, {"time": 2556, "pitch": 64, "duration": 4, "velocity": 60}, {"time": 2562, "pitch": 62, "duration": 3, "velocity": 59}, {"time": 2568, "pitch": 64, "duration": 3, "velocity": 59}, {"time": 2574, "pitch": 62, "duration": 15, "velocity": 60}, {"time": 2604, "pitch": 69, "duration": 4, "velocity": 59}, {"time": 2610, "pitch": 67, "duration": 3, "velocity": 58}, {"time": 2616, "pitch": 67, "duration": 3, "velocity": 59}, {"time": 2622, "pitch": 67, "duration": 3, "velocity": 59}, {"time": 2628, "pitch": 67, "duration": 8, "velocity": 60}, {"time": 2640, "pitch": 67, "duration": 3, "velocity": 56}, {"time": 2646, "pitch": 64, "duration": 8, "velocity": 63}, {"time": 2658, "pitch": 62, "duration": 23, "velocity": 59}, {"time": 2688, "pitch": 64, "duration": 3, "velocity": 63}, {"time": 2694, "pitch": 67, "duration": 3, "velocity": 62}, {"time": 2700, "pitch": 69, "duration": 10, "velocity": 64}, {"time": 2712, "pitch": 64, "duration": 3, "velocity": 63}, {"time": 2718, "pitch": 67, "duration": 13, "velocity": 60}, {"time": 2736, "pitch": 64, "duration": 4, "velocity": 63}, {"time": 2742, "pitch": 67, "duration": 3, "velocity": 60}, {"time": 2748, "pitch": 69, "duration": 9, "velocity": 60}, {"time": 2760, "pitch": 69, "duration": 4, "velocity": 58}, {"time": 2766, "pitch": 67, "duration": 24, "velocity": 60}, {"time": 2796, "pitch": 60, "duration": 3, "velocity": 60}, {"time": 2802, "pitch": 62, "duration": 4, "velocity": 57}, {"time": 2808, "pitch": 64, "duration": 4, "velocity": 59}, {"time": 2814, "pitch": 62, "duration": 9, "velocity": 60}, {"time": 2826, "pitch": 64, "duration": 9, "velocity": 60}, {"time": 2838, "pitch": 57, "duration": 32, "velocity": 58}, {"time": 2892, "pitch": 60, "duration": 4, "velocity": 59}, {"time": 2898, "pitch": 62, "duration": 3, "velocity": 53}, {"time": 2904, "pitch": 64, "duration": 4, "velocity": 58}, {"time": 2910, "pitch": 62, "duration": 14, "velocity": 59}, {"time": 2928, "pitch": 57, "duration": 4, "velocity": 58}, {"time": 2934, "pitch": 60, "duration": 3, "velocity": 59}, {"time": 2940, "pitch": 64, "duration": 4, "velocity": 61}, {"time": 2946, "pitch": 62, "duration": 3, "velocity": 54}, {"time": 2952, "pitch": 64, "duration": 3, "velocity": 59}, {"time": 2958, "pitch": 62, "duration": 14, "velocity": 60}, {"time": 2988, "pitch": 69, "duration": 5, "velocity": 60}, {"time": 2994, "pitch": 67, "duration": 2, "velocity": 54}, {"time": 3000, "pitch": 67, "duration": 3, "velocity": 58}, {"time": 3006, "pitch": 67, "duration": 3, "velocity": 59}, {"time": 3012, "pitch": 67, "duration": 7, "velocity": 64}, {"time": 3024, "pitch": 67, "duration": 6, "velocity": 59}, {"time": 3030, "pitch": 64, "duration": 4, "velocity": 61}, {"time": 3036, "pitch": 69, "duration": 3, "velocity": 60}, {"time": 3042, "pitch": 71, "duration": 3, "velocity": 59}, {"time": 3048, "pitch": 69, "duration": 3, "velocity": 53}, {"time": 3054, "pitch": 67, "duration": 12, "velocity": 61}, {"time": 3072, "pitch": 67, "duration": 3, "velocity": 63}, {"time": 3078, "pitch": 69, "duration": 3, "velocity": 63}, {"time": 3084, "pitch": 72, "duration": 9, "velocity": 63}, {"time": 3096, "pitch": 72, "duration": 3, "velocity": 62}, {"time": 3102, "pitch": 69, "duration": 3, "velocity": 63}, {"time": 3108, "pitch": 67, "duration": 8, "velocity": 59}, {"time": 3120, "pitch": 67, "duration": 4, "velocity": 59}, {"time": 3126, "pitch": 69, "duration": 3, "velocity": 59}, {"time": 3132, "pitch": 72, "duration": 3, "velocity": 61}, {"time": 3138, "pitch": 74, "duration": 3, "velocity": 62}, {"time": 3144, "pitch": 72, "duration": 3, "velocity": 62}, {"time": 3150, "pitch": 69, "duration": 3, "velocity": 61}, {"time": 3156, "pitch": 67, "duration": 8, "velocity": 60}, {"time": 3168, "pitch": 67, "duration": 3, "velocity": 59}, {"time": 3174, "pitch": 69, "duration": 5, "velocity": 59}, {"time": 3180, "pitch": 67, "duration": 9, "velocity": 62}, {"time": 3192, "pitch": 62, "duration": 4, "velocity": 59}, {"time": 3198, "pitch": 64, "duration": 4, "velocity": 55}, {"time": 3204, "pitch": 62, "duration": 49, "velocity": 61}, {"time": 3264, "pitch": 62, "duration": 4, "velocity": 60}, {"time": 3270, "pitch": 64, "duration": 4, "velocity": 59}, {"time": 3276, "pitch": 67, "duration": 7, "velocity": 58}, {"time": 3288, "pitch": 67, "duration": 3, "velocity": 54}, {"time": 3294, "pitch": 64, "duration": 3, "velocity": 60}, {"time": 3300, "pitch": 62, "duration": 8, "velocity": 58}, {"time": 3312, "pitch": 62, "duration": 4, "velocity": 60}, {"time": 3318, "pitch": 64, "duration": 3, "velocity": 64}, {"time": 3324, "pitch": 67, "duration": 2, "velocity": 60}, {"time": 3330, "pitch": 69, "duration": 3, "velocity": 60}, {"time": 3336, "pitch": 67, "duration": 3, "velocity": 59}, {"time": 3342, "pitch": 64, "duration": 3, "velocity": 61}, {"time": 3348, "pitch": 62, "duration": 8, "velocity": 59}, {"time": 3360, "pitch": 62, "duration": 3, "velocity": 58}, {"time": 3366, "pitch": 55, "duration": 3, "velocity": 61}, {"time": 3372, "pitch": 57, "duration": 14, "velocity": 60}, {"time": 3390, "pitch": 64, "duration": 56, "velocity": 64}, {"time": 3456, "pitch": 67, "duration": 3, "velocity": 63}, {"time": 3462, "pitch": 69, "duration": 3, "velocity": 63}, {"time": 3468, "pitch": 72, "duration": 9, "velocity": 63}, {"time": 3480, "pitch": 72, "duration": 3, "velocity": 62}, {"time": 3486, "pitch": 69, "duration": 3, "velocity": 63}, {"time": 3492, "pitch": 67, "duration": 8, "velocity": 59}, {"time": 3504, "pitch": 67, "duration": 4, "velocity": 59}, {"time": 3510, "pitch": 69, "duration": 3, "velocity": 59}, {"time": 3516, "pitch": 72, "duration": 3, "velocity": 61}, {"time": 3522, "pitch": 74, "duration": 3, "velocity": 62}, {"time": 3528, "pitch": 72, "duration": 3, "velocity": 62}, {"time": 3534, "pitch": 69, "duration": 3, "velocity": 61}, {"time": 3540, "pitch": 67, "duration": 8, "velocity": 60}, {"time": 3552, "pitch": 67, "duration": 3, "velocity": 59}, {"time": 3558, "pitch": 69, "duration": 5, "velocity": 59}, {"time": 3564, "pitch": 67, "duration": 9, "velocity": 62}, {"time": 3576, "pitch": 62, "duration": 4, "velocity": 59}, {"time": 3582, "pitch": 64, "duration": 4, "velocity": 55}, {"time": 3588, "pitch": 62, "duration": 49, "velocity": 61}, {"time": 3648, "pitch": 62, "duration": 4, "velocity": 60}, {"time": 3654, "pitch": 64, "duration": 4, "velocity": 59}, {"time": 3660, "pitch": 67, "duration": 7, "velocity": 58}, {"time": 3672, "pitch": 67, "duration": 3, "velocity": 54}, {"time": 3678, "pitch": 64, "duration": 3, "velocity": 60}, {"time": 3684, "pitch": 62, "duration": 8, "velocity": 58}, {"time": 3696, "pitch": 62, "duration": 4, "velocity": 60}, {"time": 3702, "pitch": 64, "duration": 3, "velocity": 64}, {"time": 3708, "pitch": 67, "duration": 2, "velocity": 60}, {"time": 3714, "pitch": 69, "duration": 3, "velocity": 60}, {"time": 3720, "pitch": 67, "duration": 3, "velocity": 59}, {"time": 3726, "pitch": 64, "duration": 3, "velocity": 61}, {"time": 3732, "pitch": 62, "duration": 6, "velocity": 59}, {"time": 3738, "pitch": 62, "duration": 6, "velocity": 59}, {"time": 3744, "pitch": 62, "duration": 6, "velocity": 58}, {"time": 3750, "pitch": 64, "duration": 6, "velocity": 58}, {"time": 3756, "pitch": 62, "duration": 14, "velocity": 60}, {"time": 3774, "pitch": 60, "duration": 56, "velocity": 64}, {"time": 4608, "pitch": 67, "duration": 3, "velocity": 63}, {"time": 4614, "pitch": 69, "duration": 3, "velocity": 63}, {"time": 4620, "pitch": 72, "duration": 9, "velocity": 63}, {"time": 4632, "pitch": 72, "duration": 3, "velocity": 62}, {"time": 4638, "pitch": 69, "duration": 3, "velocity": 63}, {"time": 4644, "pitch": 67, "duration": 8, "velocity": 59}, {"time": 4656, "pitch": 67, "duration": 4, "velocity": 59}, {"time": 4662, "pitch": 69, "duration": 3, "velocity": 59}, {"time": 4668, "pitch": 72, "duration": 3, "velocity": 61}, {"time": 4674, "pitch": 74, "duration": 3, "velocity": 62}, {"time": 4680, "pitch": 72, "duration": 3, "velocity": 62}, {"time": 4686, "pitch": 69, "duration": 3, "velocity": 61}, {"time": 4692, "pitch": 67, "duration": 8, "velocity": 60}, {"time": 4704, "pitch": 67, "duration": 3, "velocity": 59}, {"time": 4710, "pitch": 69, "duration": 5, "velocity": 59}, {"time": 4716, "pitch": 67, "duration": 9, "velocity": 62}, {"time": 4728, "pitch": 62, "duration": 4, "velocity": 59}, {"time": 4734, "pitch": 64, "duration": 4, "velocity": 55}, {"time": 4740, "pitch": 62, "duration": 49, "velocity": 61}, {"time": 4800, "pitch": 62, "duration": 4, "velocity": 60}, {"time": 4806, "pitch": 64, "duration": 4, "velocity": 59}, {"time": 4812, "pitch": 67, "duration": 7, "velocity": 58}, {"time": 4824, "pitch": 67, "duration": 3, "velocity": 54}, {"time": 4830, "pitch": 64, "duration": 3, "velocity": 60}, {"time": 4836, "pitch": 62, "duration": 8, "velocity": 58}, {"time": 4848, "pitch": 62, "duration": 4, "velocity": 60}, {"time": 4854, "pitch": 64, "duration": 3, "velocity": 64}, {"time": 4860, "pitch": 67, "duration": 2, "velocity": 60}, {"time": 4866, "pitch": 69, "duration": 3, "velocity": 60}, {"time": 4872, "pitch": 67, "duration": 3, "velocity": 59}, {"time": 4878, "pitch": 64, "duration": 3, "velocity": 61}, {"time": 4884, "pitch": 62, "duration": 8, "velocity": 59}, {"time": 4896, "pitch": 62, "duration": 3, "velocity": 58}, {"time": 4902, "pitch": 55, "duration": 3, "velocity": 61}, {"time": 4908, "pitch": 57, "duration": 14, "velocity": 60}, {"time": 4926, "pitch": 64, "duration": 56, "velocity": 64}, {"time": 4992, "pitch": 67, "duration": 3, "velocity": 63}, {"time": 4998, "pitch": 69, "duration": 3, "velocity": 63}, {"time": 5004, "pitch": 72, "duration": 9, "velocity": 63}, {"time": 5016, "pitch": 72, "duration": 3, "velocity": 62}, {"time": 5022, "pitch": 69, "duration": 3, "velocity": 63}, {"time": 5028, "pitch": 67, "duration": 8, "velocity": 59}, {"time": 5040, "pitch": 67, "duration": 4, "velocity": 59}, {"time": 5046, "pitch": 69, "duration": 3, "velocity": 59}, {"time": 5052, "pitch": 72, "duration": 3, "velocity": 61}, {"time": 5058, "pitch": 74, "duration": 3, "velocity": 62}, {"time": 5064, "pitch": 72, "duration": 3, "velocity": 62}, {"time": 5070, "pitch": 69, "duration": 3, "velocity": 61}, {"time": 5076, "pitch": 67, "duration": 8, "velocity": 60}, {"time": 5088, "pitch": 67, "duration": 3, "velocity": 59}, {"time": 5094, "pitch": 69, "duration": 5, "velocity": 59}, {"time": 5100, "pitch": 67, "duration": 9, "velocity": 62}, {"time": 5112, "pitch": 62, "duration": 4, "velocity": 59}, {"time": 5118, "pitch": 64, "duration": 4, "velocity": 55}, {"time": 5124, "pitch": 62, "duration": 49, "velocity": 61}, {"time": 5184, "pitch": 62, "duration": 4, "velocity": 60}, {"time": 5190, "pitch": 64, "duration": 4, "velocity": 59}, {"time": 5196, "pitch": 67, "duration": 7, "velocity": 58}, {"time": 5208, "pitch": 67, "duration": 3, "velocity": 54}, {"time": 5214, "pitch": 64, "duration": 3, "velocity": 60}, {"time": 5220, "pitch": 62, "duration": 8, "velocity": 58}, {"time": 5232, "pitch": 62, "duration": 4, "velocity": 60}, {"time": 5238, "pitch": 64, "duration": 3, "velocity": 64}, {"time": 5244, "pitch": 67, "duration": 2, "velocity": 60}, {"time": 5250, "pitch": 69, "duration": 3, "velocity": 60}, {"time": 5256, "pitch": 67, "duration": 3, "velocity": 59}, {"time": 5262, "pitch": 64, "duration": 3, "velocity": 61}, {"time": 5268, "pitch": 62, "duration": 6, "velocity": 59}, {"time": 5274, "pitch": 62, "duration": 6, "velocity": 59}, {"time": 5280, "pitch": 62, "duration": 6, "velocity": 58}, {"time": 5286, "pitch": 64, "duration": 6, "velocity": 58}, {"time": 5292, "pitch": 62, "duration": 14, "velocity": 60}, {"time": 5310, "pitch": 60, "duration": 56, "velocity": 64}, {"time": 5376, "pitch": 67, "duration": 3, "velocity": 63}, {"time": 5382, "pitch": 69, "duration": 3, "velocity": 63}, {"time": 5388, "pitch": 72, "duration": 9, "velocity": 63}, {"time": 5400, "pitch": 72, "duration": 3, "velocity": 62}, {"time": 5406, "pitch": 69, "duration": 3, "velocity": 63}, {"time": 5412, "pitch": 67, "duration": 8, "velocity": 59}, {"time": 5424, "pitch": 67, "duration": 4, "velocity": 59}, {"time": 5430, "pitch": 69, "duration": 3, "velocity": 59}, {"time": 5436, "pitch": 72, "duration": 3, "velocity": 61}, {"time": 5442, "pitch": 74, "duration": 3, "velocity": 62}, {"time": 5448, "pitch": 72, "duration": 3, "velocity": 62}, {"time": 5454, "pitch": 69, "duration": 3, "velocity": 61}, {"time": 5460, "pitch": 67, "duration": 8, "velocity": 60}, {"time": 5472, "pitch": 67, "duration": 3, "velocity": 59}, {"time": 5478, "pitch": 69, "duration": 5, "velocity": 59}, {"time": 5484, "pitch": 67, "duration": 9, "velocity": 62}, {"time": 5496, "pitch": 62, "duration": 4, "velocity": 59}, {"time": 5502, "pitch": 64, "duration": 4, "velocity": 55}, {"time": 5508, "pitch": 62, "duration": 49, "velocity": 61}, {"time": 5568, "pitch": 62, "duration": 4, "velocity": 60}, {"time": 5574, "pitch": 64, "duration": 4, "velocity": 59}, {"time": 5580, "pitch": 67, "duration": 7, "velocity": 58}, {"time": 5592, "pitch": 67, "duration": 3, "velocity": 54}, {"time": 5598, "pitch": 64, "duration": 3, "velocity": 60}, {"time": 5604, "pitch": 62, "duration": 8, "velocity": 58}, {"time": 5616, "pitch": 62, "duration": 4, "velocity": 60}, {"time": 5622, "pitch": 64, "duration": 3, "velocity": 64}, {"time": 5628, "pitch": 67, "duration": 2, "velocity": 60}, {"time": 5634, "pitch": 69, "duration": 3, "velocity": 60}, {"time": 5640, "pitch": 67, "duration": 3, "velocity": 59}, {"time": 5646, "pitch": 64, "duration": 3, "velocity": 61}, {"time": 5652, "pitch": 62, "duration": 8, "velocity": 59}, {"time": 5664, "pitch": 62, "duration": 3, "velocity": 58}, {"time": 5670, "pitch": 55, "duration": 3, "velocity": 61}, {"time": 5676, "pitch": 57, "duration": 14, "velocity": 60}, {"time": 5694, "pitch": 64, "duration": 56, "velocity": 64}, {"time": 5760, "pitch": 67, "duration": 3, "velocity": 63}, {"time": 5766, "pitch": 69, "duration": 3, "velocity": 63}, {"time": 5772, "pitch": 72, "duration": 9, "velocity": 63}, {"time": 5784, "pitch": 72, "duration": 3, "velocity": 62}, {"time": 5790, "pitch": 69, "duration": 3, "velocity": 63}, {"time": 5796, "pitch": 67, "duration": 8, "velocity": 59}, {"time": 5808, "pitch": 67, "duration": 4, "velocity": 59}, {"time": 5814, "pitch": 69, "duration": 3, "velocity": 59}, {"time": 5820, "pitch": 72, "duration": 3, "velocity": 61}, {"time": 5826, "pitch": 74, "duration": 3, "velocity": 62}, {"time": 5832, "pitch": 72, "duration": 3, "velocity": 62}, {"time": 5838, "pitch": 69, "duration": 3, "velocity": 61}, {"time": 5844, "pitch": 67, "duration": 8, "velocity": 60}, {"time": 5856, "pitch": 67, "duration": 3, "velocity": 59}, {"time": 5862, "pitch": 69, "duration": 5, "velocity": 59}, {"time": 5868, "pitch": 67, "duration": 9, "velocity": 62}, {"time": 5880, "pitch": 62, "duration": 4, "velocity": 59}, {"time": 5886, "pitch": 64, "duration": 4, "velocity": 55}, {"time": 5892, "pitch": 62, "duration": 49, "velocity": 61}, {"time": 5952, "pitch": 62, "duration": 4, "velocity": 60}, {"time": 5958, "pitch": 64, "duration": 4, "velocity": 59}, {"time": 5964, "pitch": 67, "duration": 7, "velocity": 58}, {"time": 5976, "pitch": 67, "duration": 3, "velocity": 54}, {"time": 5982, "pitch": 64, "duration": 3, "velocity": 60}, {"time": 5988, "pitch": 62, "duration": 8, "velocity": 58}, {"time": 6000, "pitch": 62, "duration": 4, "velocity": 60}, {"time": 6006, "pitch": 64, "duration": 3, "velocity": 64}, {"time": 6012, "pitch": 67, "duration": 2, "velocity": 60}, {"time": 6018, "pitch": 69, "duration": 3, "velocity": 60}, {"time": 6024, "pitch": 67, "duration": 3, "velocity": 59}, {"time": 6030, "pitch": 64, "duration": 3, "velocity": 61}, {"time": 6036, "pitch": 62, "duration": 6, "velocity": 59}, {"time": 6042, "pitch": 62, "duration": 6, "velocity": 59}, {"time": 6048, "pitch": 62, "duration": 6, "velocity": 58}, {"time": 6054, "pitch": 64, "duration": 6, "velocity": 58}, {"time": 6060, "pitch": 62, "duration": 14, "velocity": 60}, {"time": 6078, "pitch": 60, "duration": 56, "velocity": 64}]}, {"program": 0, "is_drum": false, "name": "BRIDGE", "notes": [{"time": 108, "pitch": 64, "duration": 34, "velocity": 69}, {"time": 120, "pitch": 79, "duration": 3, "velocity": 52}, {"time": 126, "pitch": 81, "duration": 3, "velocity": 58}, {"time": 132, "pitch": 84, "duration": 3, "velocity": 62}, {"time": 138, "pitch": 86, "duration": 3, "velocity": 58}, {"time": 144, "pitch": 57, "duration": 7, "velocity": 67}, {"time": 144, "pitch": 84, "duration": 2, "velocity": 60}, {"time": 150, "pitch": 60, "duration": 6, "velocity": 65}, {"time": 150, "pitch": 81, "duration": 3, "velocity": 54}, {"time": 156, "pitch": 62, "duration": 6, "velocity": 62}, {"time": 156, "pitch": 79, "duration": 4, "velocity": 60}, {"time": 162, "pitch": 64, "duration": 7, "velocity": 60}, {"time": 168, "pitch": 62, "duration": 29, "velocity": 65}, {"time": 204, "pitch": 69, "duration": 7, "velocity": 62}, {"time": 210, "pitch": 67, "duration": 4, "velocity": 51}, {"time": 216, "pitch": 69, "duration": 6, "velocity": 54}, {"time": 216, "pitch": 81, "duration": 3, "velocity": 58}, {"time": 222, "pitch": 67, "duration": 6, "velocity": 61}, {"time": 222, "pitch": 84, "duration": 3, "velocity": 61}, {"time": 228, "pitch": 64, "duration": 7, "velocity": 60}, {"time": 228, "pitch": 86, "duration": 3, "velocity": 59}, {"time": 234, "pitch": 62, "duration": 6, "velocity": 59}, {"time": 234, "pitch": 88, "duration": 5, "velocity": 60}, {"time": 240, "pitch": 64, "duration": 6, "velocity": 58}, {"time": 240, "pitch": 86, "duration": 2, "velocity": 65}, {"time": 246, "pitch": 67, "duration": 6, "velocity": 58}, {"time": 246, "pitch": 81, "duration": 2, "velocity": 57}, {"time": 252, "pitch": 69, "duration": 18, "velocity": 59}, {"time": 252, "pitch": 79, "duration": 3, "velocity": 58}, {"time": 270, "pitch": 72, "duration": 6, "velocity": 59}, {"time": 276, "pitch": 71, "duration": 6, "velocity": 58}, {"time": 282, "pitch": 69, "duration": 7, "velocity": 56}, {"time": 288, "pitch": 67, "duration": 7, "velocity": 58}, {"time": 294, "pitch": 64, "duration": 6, "velocity": 60}, {"time": 300, "pitch": 69, "duration": 50, "velocity": 59}, {"time": 312, "pitch": 79, "duration": 2, "velocity": 60}, {"time": 318, "pitch": 81, "duration": 3, "velocity": 58}, {"time": 324, "pitch": 84, "duration": 4, "velocity": 62}, {"time": 330, "pitch": 86, "duration": 3, "velocity": 59}, {"time": 336, "pitch": 84, "duration": 3, "velocity": 57}, {"time": 342, "pitch": 79, "duration": 3, "velocity": 53}, {"time": 348, "pitch": 81, "duration": 16, "velocity": 56}, {"time": 365, "pitch": 84, "duration": 3, "velocity": 47}, {"time": 368, "pitch": 81, "duration": 3, "velocity": 58}, {"time": 371, "pitch": 79, "duration": 21, "velocity": 59}, {"time": 468, "pitch": 72, "duration": 4, "velocity": 74}, {"time": 474, "pitch": 74, "duration": 3, "velocity": 62}, {"time": 480, "pitch": 76, "duration": 12, "velocity": 64}, {"time": 492, "pitch": 74, "duration": 26, "velocity": 60}, {"time": 552, "pitch": 74, "duration": 6, "velocity": 62}, {"time": 558, "pitch": 72, "duration": 12, "velocity": 62}, {"time": 570, "pitch": 74, "duration": 6, "velocity": 60}, {"time": 576, "pitch": 72, "duration": 6, "velocity": 63}, {"time": 582, "pitch": 74, "duration": 33, "velocity": 64}, {"time": 660, "pitch": 74, "duration": 5, "velocity": 67}, {"time": 666, "pitch": 76, "duration": 7, "velocity": 62}, {"time": 672, "pitch": 79, "duration": 28, "velocity": 63}, {"time": 744, "pitch": 79, "duration": 4, "velocity": 65}, {"time": 750, "pitch": 76, "duration": 6, "velocity": 49}, {"time": 756, "pitch": 74, "duration": 6, "velocity": 60}, {"time": 762, "pitch": 76, "duration": 6, "velocity": 61}, {"time": 768, "pitch": 74, "duration": 5, "velocity": 60}, {"time": 774, "pitch": 72, "duration": 7, "velocity": 58}, {"time": 780, "pitch": 76, "duration": 20, "velocity": 58}, {"time": 804, "pitch": 79, "duration": 25, "velocity": 54}, {"time": 828, "pitch": 72, "duration": 44, "velocity": 49}, {"time": 828, "pitch": 76, "duration": 45, "velocity": 57}, {"time": 875, "pitch": 77, "duration": 45, "velocity": 45}, {"time": 875, "pitch": 81, "duration": 45, "velocity": 52}, {"time": 936, "pitch": 84, "duration": 5, "velocity": 62}, {"time": 942, "pitch": 81, "duration": 8, "velocity": 61}, {"time": 954, "pitch": 79, "duration": 6, "velocity": 62}, {"time": 960, "pitch": 76, "duration": 6, "velocity": 64}, {"time": 966, "pitch": 79, "duration": 12, "velocity": 52}, {"time": 1020, "pitch": 79, "duration": 42, "velocity": 59}, {"time": 1116, "pitch": 69, "duration": 6, "velocity": 55}, {"time": 1122, "pitch": 71, "duration": 7, "velocity": 53}, {"time": 1128, "pitch": 69, "duration": 5, "velocity": 55}, {"time": 1134, "pitch": 67, "duration": 28, "velocity": 54}, {"time": 1134, "pitch": 71, "duration": 28, "velocity": 57}, {"time": 1176, "pitch": 72, "duration": 7, "velocity": 58}, {"time": 1182, "pitch": 74, "duration": 6, "velocity": 59}, {"time": 1188, "pitch": 76, "duration": 32, "velocity": 56}, {"time": 1224, "pitch": 72, "duration": 6, "velocity": 53}, {"time": 1230, "pitch": 74, "duration": 7, "velocity": 59}, {"time": 1236, "pitch": 76, "duration": 12, "velocity": 60}, {"time": 1248, "pitch": 79, "duration": 7, "velocity": 58}, {"time": 1254, "pitch": 76, "duration": 7, "velocity": 55}, {"time": 1260, "pitch": 74, "duration": 43, "velocity": 58}, {"time": 1302, "pitch": 72, "duration": 6, "velocity": 52}, {"time": 1308, "pitch": 74, "duration": 38, "velocity": 60}, {"time": 1356, "pitch": 74, "duration": 33, "velocity": 60}, {"time": 1392, "pitch": 69, "duration": 12, "velocity": 56}, {"time": 1404, "pitch": 67, "duration": 23, "velocity": 56}, {"time": 1428, "pitch": 74, "duration": 7, "velocity": 60}, {"time": 1434, "pitch": 76, "duration": 6, "velocity": 55}, {"time": 1440, "pitch": 79, "duration": 11, "velocity": 59}, {"time": 1452, "pitch": 76, "duration": 36, "velocity": 60}, {"time": 1488, "pitch": 74, "duration": 12, "velocity": 59}, {"time": 1500, "pitch": 76, "duration": 19, "velocity": 60}, {"time": 1518, "pitch": 79, "duration": 7, "velocity": 57}, {"time": 1524, "pitch": 81, "duration": 6, "velocity": 62}, {"time": 1530, "pitch": 79, "duration": 6, "velocity": 64}, {"time": 1536, "pitch": 76, "duration": 7, "velocity": 60}, {"time": 1542, "pitch": 74, "duration": 6, "velocity": 63}, {"time": 1548, "pitch": 76, "duration": 37, "velocity": 58}, {"time": 1584, "pitch": 79, "duration": 13, "velocity": 62}, {"time": 1596, "pitch": 81, "duration": 11, "velocity": 58}, {"time": 1608, "pitch": 79, "duration": 14, "velocity": 53}, {"time": 1620, "pitch": 84, "duration": 7, "velocity": 60}, {"time": 1626, "pitch": 81, "duration": 7, "velocity": 50}, {"time": 1632, "pitch": 79, "duration": 6, "velocity": 57}, {"time": 1638, "pitch": 76, "duration": 7, "velocity": 59}, {"time": 1644, "pitch": 74, "duration": 37, "velocity": 67}, {"time": 1680, "pitch": 79, "duration": 13, "velocity": 59}, {"time": 1692, "pitch": 81, "duration": 14, "velocity": 58}, {"time": 1704, "pitch": 84, "duration": 12, "velocity": 61}, {"time": 1716, "pitch": 88, "duration": 24, "velocity": 61}, {"time": 1740, "pitch": 86, "duration": 57, "velocity": 58}, {"time": 1800, "pitch": 84, "duration": 12, "velocity": 60}, {"time": 1812, "pitch": 81, "duration": 12, "velocity": 59}, {"time": 1824, "pitch": 79, "duration": 13, "velocity": 58}, {"time": 1836, "pitch": 84, "duration": 93, "velocity": 59}, {"time": 1932, "pitch": 64, "duration": 34, "velocity": 69}, {"time": 1944, "pitch": 79, "duration": 3, "velocity": 52}, {"time": 1950, "pitch": 81, "duration": 3, "velocity": 58}, {"time": 1956, "pitch": 84, "duration": 3, "velocity": 62}, {"time": 1962, "pitch": 86, "duration": 3, "velocity": 58}, {"time": 1968, "pitch": 57, "duration": 7, "velocity": 67}, {"time": 1968, "pitch": 84, "duration": 2, "velocity": 60}, {"time": 1974, "pitch": 60, "duration": 6, "velocity": 65}, {"time": 1974, "pitch": 81, "duration": 3, "velocity": 54}, {"time": 1980, "pitch": 62, "duration": 6, "velocity": 62}, {"time": 1980, "pitch": 79, "duration": 4, "velocity": 60}, {"time": 1986, "pitch": 64, "duration": 7, "velocity": 60}, {"time": 1992, "pitch": 62, "duration": 29, "velocity": 65}, {"time": 2028, "pitch": 69, "duration": 7, "velocity": 62}, {"time": 2034, "pitch": 67, "duration": 4, "velocity": 51}, {"time": 2040, "pitch": 69, "duration": 6, "velocity": 54}, {"time": 2040, "pitch": 81, "duration": 3, "velocity": 58}, {"time": 2046, "pitch": 67, "duration": 11, "velocity": 61}, {"time": 2046, "pitch": 84, "duration": 3, "velocity": 61}, {"time": 2052, "pitch": 86, "duration": 3, "velocity": 59}, {"time": 2058, "pitch": 64, "duration": 7, "velocity": 60}, {"time": 2058, "pitch": 88, "duration": 5, "velocity": 60}, {"time": 2064, "pitch": 62, "duration": 6, "velocity": 59}, {"time": 2064, "pitch": 86, "duration": 2, "velocity": 65}, {"time": 2070, "pitch": 57, "duration": 6, "velocity": 58}, {"time": 2070, "pitch": 81, "duration": 2, "velocity": 57}, {"time": 2076, "pitch": 64, "duration": 42, "velocity": 59}, {"time": 2076, "pitch": 79, "duration": 3, "velocity": 58}, {"time": 2082, "pitch": 74, "duration": 5, "velocity": 55}, {"time": 2088, "pitch": 76, "duration": 6, "velocity": 56}, {"time": 2094, "pitch": 74, "duration": 6, "velocity": 60}, {"time": 2100, "pitch": 76, "duration": 6, "velocity": 58}, {"time": 2106, "pitch": 74, "duration": 7, "velocity": 62}, {"time": 2112, "pitch": 72, "duration": 7, "velocity": 57}, {"time": 2118, "pitch": 74, "duration": 7, "velocity": 64}, {"time": 2124, "pitch": 64, "duration": 30, "velocity": 69}, {"time": 2124, "pitch": 76, "duration": 24, "velocity": 56}, {"time": 2136, "pitch": 79, "duration": 2, "velocity": 60}, {"time": 2142, "pitch": 81, "duration": 3, "velocity": 58}, {"time": 2148, "pitch": 84, "duration": 4, "velocity": 62}, {"time": 2154, "pitch": 55, "duration": 6, "velocity": 61}, {"time": 2154, "pitch": 86, "duration": 3, "velocity": 59}, {"time": 2160, "pitch": 57, "duration": 6, "velocity": 60}, {"time": 2160, "pitch": 84, "duration": 3, "velocity": 57}, {"time": 2166, "pitch": 60, "duration": 7, "velocity": 59}, {"time": 2166, "pitch": 81, "duration": 3, "velocity": 53}, {"time": 2172, "pitch": 62, "duration": 12, "velocity": 58}, {"time": 2172, "pitch": 79, "duration": 16, "velocity": 56}, {"time": 2184, "pitch": 67, "duration": 6, "velocity": 59}, {"time": 2190, "pitch": 69, "duration": 6, "velocity": 60}, {"time": 2196, "pitch": 67, "duration": 12, "velocity": 59}, {"time": 2207, "pitch": 64, "duration": 12, "velocity": 65}, {"time": 2220, "pitch": 57, "duration": 6, "velocity": 60}, {"time": 2225, "pitch": 60, "duration": 4, "velocity": 63}, {"time": 2232, "pitch": 81, "duration": 3, "velocity": 58}, {"time": 2232, "pitch": 60, "duration": 3, "velocity": 65}, {"time": 2237, "pitch": 60, "duration": 13, "velocity": 63}, {"time": 2238, "pitch": 84, "duration": 3, "velocity": 58}, {"time": 2244, "pitch": 86, "duration": 3, "velocity": 56}, {"time": 2249, "pitch": 57, "duration": 6, "velocity": 62}, {"time": 2250, "pitch": 88, "duration": 5, "velocity": 58}, {"time": 2255, "pitch": 69, "duration": 12, "velocity": 67}, {"time": 2256, "pitch": 86, "duration": 3, "velocity": 58}, {"time": 2262, "pitch": 81, "duration": 2, "velocity": 56}, {"time": 2266, "pitch": 67, "duration": 47, "velocity": 62}, {"time": 2268, "pitch": 79, "duration": 42, "velocity": 58}, {"time": 2388, "pitch": 72, "duration": 4, "velocity": 74}, {"time": 2394, "pitch": 74, "duration": 3, "velocity": 62}, {"time": 2400, "pitch": 76, "duration": 12, "velocity": 64}, {"time": 2412, "pitch": 74, "duration": 26, "velocity": 60}, {"time": 2472, "pitch": 74, "duration": 6, "velocity": 62}, {"time": 2478, "pitch": 72, "duration": 12, "velocity": 62}, {"time": 2490, "pitch": 74, "duration": 6, "velocity": 60}, {"time": 2496, "pitch": 72, "duration": 6, "velocity": 63}, {"time": 2502, "pitch": 74, "duration": 33, "velocity": 64}, {"time": 2580, "pitch": 74, "duration": 5, "velocity": 67}, {"time": 2586, "pitch": 76, "duration": 7, "velocity": 62}, {"time": 2592, "pitch": 79, "duration": 28, "velocity": 63}, {"time": 2664, "pitch": 79, "duration": 4, "velocity": 65}, {"time": 2670, "pitch": 76, "duration": 6, "velocity": 49}, {"time": 2676, "pitch": 74, "duration": 6, "velocity": 60}, {"time": 2682, "pitch": 76, "duration": 6, "velocity": 61}, {"time": 2688, "pitch": 74, "duration": 5, "velocity": 60}, {"time": 2694, "pitch": 72, "duration": 7, "velocity": 58}, {"time": 2700, "pitch": 76, "duration": 20, "velocity": 58}, {"time": 2724, "pitch": 79, "duration": 25, "velocity": 54}, {"time": 2748, "pitch": 72, "duration": 44, "velocity": 49}, {"time": 2748, "pitch": 76, "duration": 45, "velocity": 57}, {"time": 2795, "pitch": 77, "duration": 45, "velocity": 45}, {"time": 2795, "pitch": 81, "duration": 45, "velocity": 52}, {"time": 2856, "pitch": 84, "duration": 5, "velocity": 62}, {"time": 2862, "pitch": 81, "duration": 8, "velocity": 61}, {"time": 2874, "pitch": 79, "duration": 6, "velocity": 62}, {"time": 2880, "pitch": 76, "duration": 6, "velocity": 64}, {"time": 2886, "pitch": 79, "duration": 12, "velocity": 52}, {"time": 2940, "pitch": 79, "duration": 42, "velocity": 59}, {"time": 3036, "pitch": 69, "duration": 6, "velocity": 55}, {"time": 3042, "pitch": 71, "duration": 7, "velocity": 53}, {"time": 3048, "pitch": 69, "duration": 5, "velocity": 55}, {"time": 3054, "pitch": 67, "duration": 28, "velocity": 54}, {"time": 3054, "pitch": 71, "duration": 28, "velocity": 57}, {"time": 3096, "pitch": 72, "duration": 7, "velocity": 58}, {"time": 3102, "pitch": 74, "duration": 6, "velocity": 59}, {"time": 3108, "pitch": 76, "duration": 32, "velocity": 56}, {"time": 3144, "pitch": 72, "duration": 6, "velocity": 53}, {"time": 3150, "pitch": 74, "duration": 7, "velocity": 59}, {"time": 3156, "pitch": 76, "duration": 12, "velocity": 60}, {"time": 3168, "pitch": 79, "duration": 7, "velocity": 58}, {"time": 3174, "pitch": 76, "duration": 7, "velocity": 55}, {"time": 3180, "pitch": 74, "duration": 43, "velocity": 58}, {"time": 3222, "pitch": 72, "duration": 6, "velocity": 52}, {"time": 3228, "pitch": 74, "duration": 38, "velocity": 60}, {"time": 3276, "pitch": 74, "duration": 33, "velocity": 60}, {"time": 3312, "pitch": 69, "duration": 12, "velocity": 56}, {"time": 3324, "pitch": 67, "duration": 23, "velocity": 56}, {"time": 3348, "pitch": 74, "duration": 7, "velocity": 60}, {"time": 3354, "pitch": 76, "duration": 6, "velocity": 55}, {"time": 3360, "pitch": 79, "duration": 11, "velocity": 59}, {"time": 3372, "pitch": 76, "duration": 36, "velocity": 60}, {"time": 3408, "pitch": 74, "duration": 12, "velocity": 59}, {"time": 3420, "pitch": 76, "duration": 19, "velocity": 60}, {"time": 3438, "pitch": 79, "duration": 7, "velocity": 57}, {"time": 3444, "pitch": 81, "duration": 6, "velocity": 62}, {"time": 3450, "pitch": 79, "duration": 6, "velocity": 64}, {"time": 3456, "pitch": 76, "duration": 7, "velocity": 60}, {"time": 3462, "pitch": 74, "duration": 6, "velocity": 63}, {"time": 3468, "pitch": 76, "duration": 37, "velocity": 58}, {"time": 3504, "pitch": 79, "duration": 13, "velocity": 62}, {"time": 3516, "pitch": 81, "duration": 11, "velocity": 58}, {"time": 3528, "pitch": 79, "duration": 14, "velocity": 53}, {"time": 3540, "pitch": 84, "duration": 7, "velocity": 60}, {"time": 3546, "pitch": 81, "duration": 7, "velocity": 50}, {"time": 3552, "pitch": 79, "duration": 6, "velocity": 57}, {"time": 3558, "pitch": 76, "duration": 7, "velocity": 59}, {"time": 3564, "pitch": 74, "duration": 37, "velocity": 67}, {"time": 3600, "pitch": 79, "duration": 13, "velocity": 59}, {"time": 3612, "pitch": 81, "duration": 14, "velocity": 58}, {"time": 3624, "pitch": 84, "duration": 12, "velocity": 61}, {"time": 3636, "pitch": 88, "duration": 24, "velocity": 61}, {"time": 3660, "pitch": 86, "duration": 57, "velocity": 58}, {"time": 3720, "pitch": 84, "duration": 12, "velocity": 60}, {"time": 3732, "pitch": 81, "duration": 12, "velocity": 59}, {"time": 3744, "pitch": 79, "duration": 13, "velocity": 58}, {"time": 3756, "pitch": 84, "duration": 93, "velocity": 59}, {"time": 3858, "pitch": 84, "duration": 8, "velocity": 63}, {"time": 3869, "pitch": 84, "duration": 5, "velocity": 64}, {"time": 3876, "pitch": 81, "duration": 26, "velocity": 63}, {"time": 3906, "pitch": 84, "duration": 8, "velocity": 69}, {"time": 3917, "pitch": 83, "duration": 3, "velocity": 69}, {"time": 3923, "pitch": 83, "duration": 8, "velocity": 64}, {"time": 3932, "pitch": 81, "duration": 8, "velocity": 64}, {"time": 3941, "pitch": 79, "duration": 6, "velocity": 65}, {"time": 3947, "pitch": 81, "duration": 10, "velocity": 59}, {"time": 3959, "pitch": 79, "duration": 3, "velocity": 69}, {"time": 3965, "pitch": 76, "duration": 5, "velocity": 64}, {"time": 3971, "pitch": 74, "duration": 7, "velocity": 67}, {"time": 3977, "pitch": 72, "duration": 5, "velocity": 67}, {"time": 3983, "pitch": 74, "duration": 45, "velocity": 72}, {"time": 4049, "pitch": 81, "duration": 7, "velocity": 64}, {"time": 4054, "pitch": 84, "duration": 7, "velocity": 69}, {"time": 4060, "pitch": 86, "duration": 3, "velocity": 67}, {"time": 4066, "pitch": 88, "duration": 7, "velocity": 79}, {"time": 4072, "pitch": 86, "duration": 3, "velocity": 58}, {"time": 4076, "pitch": 84, "duration": 3, "velocity": 59}, {"time": 4079, "pitch": 86, "duration": 16, "velocity": 67}, {"time": 4103, "pitch": 88, "duration": 5, "velocity": 69}, {"time": 4109, "pitch": 86, "duration": 5, "velocity": 65}, {"time": 4115, "pitch": 84, "duration": 5, "velocity": 84}, {"time": 4120, "pitch": 81, "duration": 8, "velocity": 59}, {"time": 4127, "pitch": 79, "duration": 7, "velocity": 67}, {"time": 4133, "pitch": 81, "duration": 2, "velocity": 59}, {"time": 4139, "pitch": 74, "duration": 3, "velocity": 60}, {"time": 4140, "pitch": 76, "duration": 12, "velocity": 65}, {"time": 4151, "pitch": 74, "duration": 3, "velocity": 72}, {"time": 4154, "pitch": 72, "duration": 4, "velocity": 54}, {"time": 4158, "pitch": 74, "duration": 3, "velocity": 74}, {"time": 4164, "pitch": 74, "duration": 7, "velocity": 75}, {"time": 4170, "pitch": 72, "duration": 42, "velocity": 53}, {"time": 4233, "pitch": 88, "duration": 4, "velocity": 54}, {"time": 4236, "pitch": 91, "duration": 22, "velocity": 63}, {"time": 4252, "pitch": 88, "duration": 3, "velocity": 58}, {"time": 4260, "pitch": 91, "duration": 8, "velocity": 64}, {"time": 4269, "pitch": 91, "duration": 9, "velocity": 59}, {"time": 4277, "pitch": 88, "duration": 8, "velocity": 58}, {"time": 4284, "pitch": 91, "duration": 8, "velocity": 60}, {"time": 4294, "pitch": 91, "duration": 10, "velocity": 60}, {"time": 4302, "pitch": 88, "duration": 7, "velocity": 58}, {"time": 4302, "pitch": 86, "duration": 1, "velocity": 52}, {"time": 4308, "pitch": 91, "duration": 10, "velocity": 67}, {"time": 4318, "pitch": 88, "duration": 8, "velocity": 67}, {"time": 4325, "pitch": 86, "duration": 3, "velocity": 59}, {"time": 4328, "pitch": 84, "duration": 3, "velocity": 61}, {"time": 4332, "pitch": 88, "duration": 16, "velocity": 65}, {"time": 4350, "pitch": 86, "duration": 37, "velocity": 65}, {"time": 4386, "pitch": 91, "duration": 7, "velocity": 72}, {"time": 4397, "pitch": 88, "duration": 6, "velocity": 67}, {"time": 4403, "pitch": 86, "duration": 6, "velocity": 67}, {"time": 4410, "pitch": 84, "duration": 3, "velocity": 64}, {"time": 4415, "pitch": 86, "duration": 4, "velocity": 60}, {"time": 4418, "pitch": 84, "duration": 3, "velocity": 65}, {"time": 4421, "pitch": 81, "duration": 4, "velocity": 61}, {"time": 4427, "pitch": 81, "duration": 18, "velocity": 69}, {"time": 4457, "pitch": 79, "duration": 3, "velocity": 65}, {"time": 4461, "pitch": 81, "duration": 4, "velocity": 59}, {"time": 4464, "pitch": 79, "duration": 5, "velocity": 69}, {"time": 4470, "pitch": 76, "duration": 5, "velocity": 58}, {"time": 4477, "pitch": 76, "duration": 9, "velocity": 61}, {"time": 4482, "pitch": 74, "duration": 6, "velocity": 67}, {"time": 4487, "pitch": 72, "duration": 7, "velocity": 60}, {"time": 4493, "pitch": 74, "duration": 8, "velocity": 67}, {"time": 4505, "pitch": 79, "duration": 4, "velocity": 58}, {"time": 4509, "pitch": 81, "duration": 3, "velocity": 64}, {"time": 4512, "pitch": 84, "duration": 7, "velocity": 56}, {"time": 4512, "pitch": 83, "duration": 1, "velocity": 51}, {"time": 4518, "pitch": 86, "duration": 6, "velocity": 69}, {"time": 4524, "pitch": 84, "duration": 89, "velocity": 75}, {"time": 4584, "pitch": 67, "duration": 6, "velocity": 53}, {"time": 4590, "pitch": 69, "duration": 6, "velocity": 59}, {"time": 4596, "pitch": 67, "duration": 5, "velocity": 65}, {"time": 4602, "pitch": 64, "duration": 6, "velocity": 62}, {"time": 4608, "pitch": 62, "duration": 7, "velocity": 60}, {"time": 4614, "pitch": 60, "duration": 5, "velocity": 50}, {"time": 4632, "pitch": 72, "duration": 7, "velocity": 58}, {"time": 4638, "pitch": 74, "duration": 6, "velocity": 59}, {"time": 4644, "pitch": 76, "duration": 32, "velocity": 56}, {"time": 4680, "pitch": 72, "duration": 6, "velocity": 53}, {"time": 4686, "pitch": 74, "duration": 7, "velocity": 59}, {"time": 4692, "pitch": 76, "duration": 12, "velocity": 60}, {"time": 4704, "pitch": 79, "duration": 7, "velocity": 58}, {"time": 4710, "pitch": 76, "duration": 7, "velocity": 55}, {"time": 4716, "pitch": 74, "duration": 43, "velocity": 58}, {"time": 4758, "pitch": 72, "duration": 6, "velocity": 52}, {"time": 4764, "pitch": 74, "duration": 38, "velocity": 60}, {"time": 4812, "pitch": 74, "duration": 33, "velocity": 60}, {"time": 4848, "pitch": 69, "duration": 12, "velocity": 56}, {"time": 4860, "pitch": 67, "duration": 23, "velocity": 56}, {"time": 4884, "pitch": 74, "duration": 7, "velocity": 60}, {"time": 4890, "pitch": 76, "duration": 6, "velocity": 55}, {"time": 4896, "pitch": 79, "duration": 11, "velocity": 59}, {"time": 4908, "pitch": 76, "duration": 36, "velocity": 60}, {"time": 4944, "pitch": 74, "duration": 12, "velocity": 59}, {"time": 4956, "pitch": 76, "duration": 19, "velocity": 60}, {"time": 4974, "pitch": 79, "duration": 7, "velocity": 57}, {"time": 4980, "pitch": 81, "duration": 6, "velocity": 62}, {"time": 4986, "pitch": 79, "duration": 6, "velocity": 64}, {"time": 4992, "pitch": 76, "duration": 7, "velocity": 60}, {"time": 4998, "pitch": 74, "duration": 6, "velocity": 63}, {"time": 5004, "pitch": 76, "duration": 37, "velocity": 58}, {"time": 5040, "pitch": 79, "duration": 13, "velocity": 62}, {"time": 5052, "pitch": 81, "duration": 11, "velocity": 58}, {"time": 5064, "pitch": 79, "duration": 14, "velocity": 53}, {"time": 5076, "pitch": 84, "duration": 7, "velocity": 60}, {"time": 5082, "pitch": 81, "duration": 7, "velocity": 50}, {"time": 5088, "pitch": 79, "duration": 6, "velocity": 57}, {"time": 5094, "pitch": 76, "duration": 7, "velocity": 59}, {"time": 5100, "pitch": 74, "duration": 37, "velocity": 67}, {"time": 5136, "pitch": 79, "duration": 13, "velocity": 59}, {"time": 5148, "pitch": 81, "duration": 14, "velocity": 58}, {"time": 5160, "pitch": 84, "duration": 12, "velocity": 61}, {"time": 5172, "pitch": 88, "duration": 24, "velocity": 61}, {"time": 5196, "pitch": 86, "duration": 57, "velocity": 58}, {"time": 5256, "pitch": 84, "duration": 12, "velocity": 60}, {"time": 5268, "pitch": 81, "duration": 12, "velocity": 59}, {"time": 5280, "pitch": 79, "duration": 13, "velocity": 58}, {"time": 5292, "pitch": 84, "duration": 93, "velocity": 59}, {"time": 5400, "pitch": 72, "duration": 7, "velocity": 58}, {"time": 5406, "pitch": 74, "duration": 6, "velocity": 59}, {"time": 5412, "pitch": 76, "duration": 32, "velocity": 56}, {"time": 5448, "pitch": 72, "duration": 6, "velocity": 53}, {"time": 5454, "pitch": 74, "duration": 7, "velocity": 59}, {"time": 5460, "pitch": 76, "duration": 12, "velocity": 60}, {"time": 5472, "pitch": 79, "duration": 7, "velocity": 58}, {"time": 5478, "pitch": 76, "duration": 7, "velocity": 55}, {"time": 5484, "pitch": 74, "duration": 43, "velocity": 58}, {"time": 5526, "pitch": 72, "duration": 6, "velocity": 52}, {"time": 5532, "pitch": 74, "duration": 38, "velocity": 60}, {"time": 5580, "pitch": 74, "duration": 33, "velocity": 60}, {"time": 5616, "pitch": 69, "duration": 12, "velocity": 56}, {"time": 5628, "pitch": 67, "duration": 23, "velocity": 56}, {"time": 5652, "pitch": 74, "duration": 7, "velocity": 60}, {"time": 5658, "pitch": 76, "duration": 6, "velocity": 55}, {"time": 5664, "pitch": 79, "duration": 11, "velocity": 59}, {"time": 5676, "pitch": 76, "duration": 36, "velocity": 60}, {"time": 5712, "pitch": 74, "duration": 12, "velocity": 59}, {"time": 5724, "pitch": 76, "duration": 19, "velocity": 60}, {"time": 5742, "pitch": 79, "duration": 7, "velocity": 57}, {"time": 5748, "pitch": 81, "duration": 6, "velocity": 62}, {"time": 5754, "pitch": 79, "duration": 6, "velocity": 64}, {"time": 5760, "pitch": 76, "duration": 7, "velocity": 60}, {"time": 5766, "pitch": 74, "duration": 6, "velocity": 63}, {"time": 5772, "pitch": 76, "duration": 37, "velocity": 58}, {"time": 5808, "pitch": 79, "duration": 13, "velocity": 62}, {"time": 5820, "pitch": 81, "duration": 11, "velocity": 58}, {"time": 5832, "pitch": 79, "duration": 14, "velocity": 53}, {"time": 5844, "pitch": 84, "duration": 7, "velocity": 60}, {"time": 5850, "pitch": 81, "duration": 7, "velocity": 50}, {"time": 5856, "pitch": 79, "duration": 6, "velocity": 57}, {"time": 5862, "pitch": 76, "duration": 7, "velocity": 59}, {"time": 5868, "pitch": 74, "duration": 37, "velocity": 67}, {"time": 5904, "pitch": 79, "duration": 13, "velocity": 59}, {"time": 5916, "pitch": 81, "duration": 14, "velocity": 58}, {"time": 5928, "pitch": 84, "duration": 12, "velocity": 61}, {"time": 5940, "pitch": 88, "duration": 24, "velocity": 61}, {"time": 5964, "pitch": 86, "duration": 57, "velocity": 58}, {"time": 6024, "pitch": 84, "duration": 12, "velocity": 60}, {"time": 6036, "pitch": 81, "duration": 12, "velocity": 59}, {"time": 6048, "pitch": 79, "duration": 13, "velocity": 58}, {"time": 6060, "pitch": 84, "duration": 93, "velocity": 59}]}, {"program": 0, "is_drum": false, "name": "PIANO", "notes": [{"time": 108, "pitch": 41, "duration": 36, "velocity": 60}, {"time": 108, "pitch": 53, "duration": 9, "velocity": 53}, {"time": 108, "pitch": 60, "duration": 14, "velocity": 59}, {"time": 114, "pitch": 48, "duration": 27, "velocity": 51}, {"time": 120, "pitch": 53, "duration": 17, "velocity": 59}, {"time": 126, "pitch": 57, "duration": 8, "velocity": 50}, {"time": 132, "pitch": 65, "duration": 12, "velocity": 59}, {"time": 138, "pitch": 60, "duration": 7, "velocity": 58}, {"time": 144, "pitch": 53, "duration": 3, "velocity": 58}, {"time": 156, "pitch": 40, "duration": 36, "velocity": 57}, {"time": 156, "pitch": 52, "duration": 23, "velocity": 54}, {"time": 156, "pitch": 55, "duration": 16, "velocity": 52}, {"time": 162, "pitch": 47, "duration": 28, "velocity": 49}, {"time": 168, "pitch": 59, "duration": 7, "velocity": 53}, {"time": 174, "pitch": 64, "duration": 19, "velocity": 62}, {"time": 180, "pitch": 59, "duration": 12, "velocity": 54}, {"time": 186, "pitch": 52, "duration": 7, "velocity": 51}, {"time": 192, "pitch": 55, "duration": 3, "velocity": 51}, {"time": 204, "pitch": 38, "duration": 16, "velocity": 58}, {"time": 204, "pitch": 50, "duration": 10, "velocity": 52}, {"time": 204, "pitch": 53, "duration": 13, "velocity": 53}, {"time": 210, "pitch": 45, "duration": 8, "velocity": 49}, {"time": 216, "pitch": 57, "duration": 3, "velocity": 58}, {"time": 228, "pitch": 36, "duration": 11, "velocity": 56}, {"time": 228, "pitch": 48, "duration": 6, "velocity": 51}, {"time": 228, "pitch": 52, "duration": 11, "velocity": 58}, {"time": 234, "pitch": 43, "duration": 6, "velocity": 50}, {"time": 240, "pitch": 48, "duration": 3, "velocity": 65}, {"time": 252, "pitch": 45, "duration": 18, "velocity": 58}, {"time": 252, "pitch": 57, "duration": 7, "velocity": 52}, {"time": 252, "pitch": 60, "duration": 12, "velocity": 51}, {"time": 258, "pitch": 52, "duration": 12, "velocity": 47}, {"time": 264, "pitch": 57, "duration": 8, "velocity": 60}, {"time": 270, "pitch": 60, "duration": 3, "velocity": 56}, {"time": 276, "pitch": 43, "duration": 12, "velocity": 59}, {"time": 276, "pitch": 55, "duration": 5, "velocity": 58}, {"time": 276, "pitch": 59, "duration": 11, "velocity": 59}, {"time": 282, "pitch": 50, "duration": 6, "velocity": 60}, {"time": 288, "pitch": 55, "duration": 3, "velocity": 60}, {"time": 300, "pitch": 41, "duration": 45, "velocity": 59}, {"time": 300, "pitch": 53, "duration": 14, "velocity": 53}, {"time": 300, "pitch": 57, "duration": 15, "velocity": 51}, {"time": 306, "pitch": 48, "duration": 39, "velocity": 50}, {"time": 312, "pitch": 60, "duration": 7, "velocity": 51}, {"time": 318, "pitch": 65, "duration": 12, "velocity": 60}, {"time": 324, "pitch": 53, "duration": 12, "velocity": 53}, {"time": 330, "pitch": 57, "duration": 8, "velocity": 55}, {"time": 336, "pitch": 60, "duration": 8, "velocity": 49}, {"time": 342, "pitch": 65, "duration": 21, "velocity": 55}, {"time": 348, "pitch": 41, "duration": 14, "velocity": 58}, {"time": 354, "pitch": 48, "duration": 9, "velocity": 47}, {"time": 360, "pitch": 53, "duration": 3, "velocity": 53}, {"time": 372, "pitch": 43, "duration": 13, "velocity": 60}, {"time": 372, "pitch": 55, "duration": 10, "velocity": 55}, {"time": 372, "pitch": 59, "duration": 10, "velocity": 52}, {"time": 372, "pitch": 62, "duration": 11, "velocity": 56}, {"time": 396, "pitch": 45, "duration": 43, "velocity": 59}, {"time": 396, "pitch": 57, "duration": 6, "velocity": 52}, {"time": 396, "pitch": 60, "duration": 20, "velocity": 50}, {"time": 402, "pitch": 52, "duration": 38, "velocity": 52}, {"time": 408, "pitch": 64, "duration": 8, "velocity": 54}, {"time": 414, "pitch": 69, "duration": 25, "velocity": 58}, {"time": 426, "pitch": 64, "duration": 9, "velocity": 49}, {"time": 432, "pitch": 57, "duration": 8, "velocity": 49}, {"time": 438, "pitch": 64, "duration": 19, "velocity": 57}, {"time": 444, "pitch": 45, "duration": 38, "velocity": 60}, {"time": 450, "pitch": 52, "duration": 26, "velocity": 58}, {"time": 456, "pitch": 57, "duration": 15, "velocity": 59}, {"time": 462, "pitch": 60, "duration": 8, "velocity": 58}, {"time": 474, "pitch": 57, "duration": 2, "velocity": 53}, {"time": 474, "pitch": 60, "duration": 10, "velocity": 59}, {"time": 474, "pitch": 64, "duration": 15, "velocity": 60}, {"time": 480, "pitch": 52, "duration": 8, "velocity": 64}, {"time": 486, "pitch": 57, "duration": 3, "velocity": 61}, {"time": 492, "pitch": 50, "duration": 43, "velocity": 64}, {"time": 492, "pitch": 57, "duration": 6, "velocity": 59}, {"time": 492, "pitch": 62, "duration": 12, "velocity": 58}, {"time": 498, "pitch": 53, "duration": 38, "velocity": 43}, {"time": 504, "pitch": 57, "duration": 3, "velocity": 58}, {"time": 510, "pitch": 57, "duration": 8, "velocity": 58}, {"time": 510, "pitch": 65, "duration": 13, "velocity": 54}, {"time": 522, "pitch": 62, "duration": 7, "velocity": 58}, {"time": 528, "pitch": 57, "duration": 14, "velocity": 46}, {"time": 534, "pitch": 65, "duration": 19, "velocity": 51}, {"time": 540, "pitch": 50, "duration": 33, "velocity": 58}, {"time": 546, "pitch": 57, "duration": 7, "velocity": 49}, {"time": 552, "pitch": 62, "duration": 7, "velocity": 58}, {"time": 558, "pitch": 57, "duration": 8, "velocity": 65}, {"time": 570, "pitch": 57, "duration": 5, "velocity": 45}, {"time": 576, "pitch": 62, "duration": 3, "velocity": 58}, {"time": 588, "pitch": 41, "duration": 36, "velocity": 58}, {"time": 588, "pitch": 53, "duration": 5, "velocity": 53}, {"time": 588, "pitch": 57, "duration": 11, "velocity": 55}, {"time": 594, "pitch": 48, "duration": 20, "velocity": 56}, {"time": 600, "pitch": 53, "duration": 8, "velocity": 60}, {"time": 606, "pitch": 60, "duration": 26, "velocity": 59}, {"time": 624, "pitch": 48, "duration": 7, "velocity": 59}, {"time": 630, "pitch": 53, "duration": 2, "velocity": 60}, {"time": 636, "pitch": 43, "duration": 40, "velocity": 61}, {"time": 636, "pitch": 55, "duration": 6, "velocity": 56}, {"time": 636, "pitch": 59, "duration": 12, "velocity": 54}, {"time": 642, "pitch": 50, "duration": 34, "velocity": 56}, {"time": 648, "pitch": 55, "duration": 18, "velocity": 64}, {"time": 654, "pitch": 62, "duration": 14, "velocity": 56}, {"time": 666, "pitch": 67, "duration": 10, "velocity": 59}, {"time": 672, "pitch": 55, "duration": 3, "velocity": 60}, {"time": 684, "pitch": 48, "duration": 42, "velocity": 65}, {"time": 684, "pitch": 55, "duration": 6, "velocity": 55}, {"time": 684, "pitch": 64, "duration": 15, "velocity": 59}, {"time": 690, "pitch": 52, "duration": 34, "velocity": 55}, {"time": 696, "pitch": 55, "duration": 7, "velocity": 60}, {"time": 702, "pitch": 62, "duration": 7, "velocity": 55}, {"time": 708, "pitch": 60, "duration": 7, "velocity": 54}, {"time": 714, "pitch": 55, "duration": 7, "velocity": 59}, {"time": 720, "pitch": 60, "duration": 4, "velocity": 53}, {"time": 732, "pitch": 43, "duration": 33, "velocity": 58}, {"time": 732, "pitch": 55, "duration": 14, "velocity": 53}, {"time": 732, "pitch": 59, "duration": 14, "velocity": 54}, {"time": 738, "pitch": 50, "duration": 20, "velocity": 59}, {"time": 744, "pitch": 62, "duration": 6, "velocity": 56}, {"time": 750, "pitch": 67, "duration": 20, "velocity": 60}, {"time": 756, "pitch": 55, "duration": 7, "velocity": 61}, {"time": 762, "pitch": 50, "duration": 6, "velocity": 63}, {"time": 768, "pitch": 55, "duration": 4, "velocity": 59}, {"time": 780, "pitch": 48, "duration": 41, "velocity": 61}, {"time": 780, "pitch": 55, "duration": 6, "velocity": 59}, {"time": 780, "pitch": 64, "duration": 14, "velocity": 60}, {"time": 786, "pitch": 52, "duration": 35, "velocity": 46}, {"time": 792, "pitch": 55, "duration": 7, "velocity": 60}, {"time": 798, "pitch": 62, "duration": 10, "velocity": 59}, {"time": 810, "pitch": 64, "duration": 7, "velocity": 62}, {"time": 816, "pitch": 62, "duration": 6, "velocity": 54}, {"time": 822, "pitch": 55, "duration": 5, "velocity": 60}, {"time": 828, "pitch": 48, "duration": 36, "velocity": 60}, {"time": 828, "pitch": 60, "duration": 13, "velocity": 59}, {"time": 834, "pitch": 52, "duration": 32, "velocity": 51}, {"time": 840, "pitch": 55, "duration": 8, "velocity": 58}, {"time": 846, "pitch": 62, "duration": 7, "velocity": 54}, {"time": 858, "pitch": 64, "duration": 7, "velocity": 54}, {"time": 864, "pitch": 60, "duration": 3, "velocity": 51}, {"time": 876, "pitch": 50, "duration": 22, "velocity": 58}, {"time": 876, "pitch": 57, "duration": 3, "velocity": 50}, {"time": 876, "pitch": 62, "duration": 7, "velocity": 54}, {"time": 882, "pitch": 57, "duration": 8, "velocity": 53}, {"time": 888, "pitch": 62, "duration": 7, "velocity": 52}, {"time": 894, "pitch": 65, "duration": 13, "velocity": 60}, {"time": 906, "pitch": 62, "duration": 7, "velocity": 60}, {"time": 912, "pitch": 57, "duration": 3, "velocity": 49}, {"time": 924, "pitch": 38, "duration": 30, "velocity": 60}, {"time": 924, "pitch": 57, "duration": 6, "velocity": 51}, {"time": 924, "pitch": 62, "duration": 12, "velocity": 52}, {"time": 930, "pitch": 45, "duration": 14, "velocity": 47}, {"time": 936, "pitch": 57, "duration": 2, "velocity": 53}, {"time": 942, "pitch": 57, "duration": 8, "velocity": 60}, {"time": 942, "pitch": 65, "duration": 9, "velocity": 59}, {"time": 948, "pitch": 45, "duration": 6, "velocity": 60}, {"time": 954, "pitch": 62, "duration": 6, "velocity": 62}, {"time": 960, "pitch": 57, "duration": 6, "velocity": 58}, {"time": 966, "pitch": 62, "duration": 2, "velocity": 54}, {"time": 972, "pitch": 41, "duration": 36, "velocity": 58}, {"time": 972, "pitch": 53, "duration": 6, "velocity": 55}, {"time": 972, "pitch": 57, "duration": 12, "velocity": 46}, {"time": 978, "pitch": 48, "duration": 29, "velocity": 54}, {"time": 984, "pitch": 53, "duration": 4, "velocity": 58}, {"time": 990, "pitch": 53, "duration": 8, "velocity": 49}, {"time": 990, "pitch": 60, "duration": 10, "velocity": 60}, {"time": 1002, "pitch": 57, "duration": 7, "velocity": 58}, {"time": 1002, "pitch": 60, "duration": 7, "velocity": 37}, {"time": 1008, "pitch": 53, "duration": 3, "velocity": 58}, {"time": 1020, "pitch": 43, "duration": 36, "velocity": 58}, {"time": 1020, "pitch": 55, "duration": 14, "velocity": 54}, {"time": 1020, "pitch": 59, "duration": 14, "velocity": 58}, {"time": 1026, "pitch": 50, "duration": 27, "velocity": 54}, {"time": 1032, "pitch": 62, "duration": 7, "velocity": 52}, {"time": 1038, "pitch": 67, "duration": 13, "velocity": 59}, {"time": 1050, "pitch": 62, "duration": 11, "velocity": 58}, {"time": 1056, "pitch": 55, "duration": 4, "velocity": 49}, {"time": 1068, "pitch": 48, "duration": 31, "velocity": 63}, {"time": 1068, "pitch": 55, "duration": 5, "velocity": 57}, {"time": 1068, "pitch": 60, "duration": 12, "velocity": 54}, {"time": 1074, "pitch": 52, "duration": 15, "velocity": 54}, {"time": 1080, "pitch": 55, "duration": 3, "velocity": 54}, {"time": 1086, "pitch": 55, "duration": 13, "velocity": 58}, {"time": 1086, "pitch": 60, "duration": 16, "velocity": 60}, {"time": 1086, "pitch": 64, "duration": 18, "velocity": 60}, {"time": 1098, "pitch": 52, "duration": 11, "velocity": 58}, {"time": 1104, "pitch": 55, "duration": 4, "velocity": 60}, {"time": 1116, "pitch": 43, "duration": 46, "velocity": 62}, {"time": 1116, "pitch": 55, "duration": 8, "velocity": 60}, {"time": 1116, "pitch": 59, "duration": 8, "velocity": 59}, {"time": 1122, "pitch": 50, "duration": 14, "velocity": 61}, {"time": 1128, "pitch": 59, "duration": 1, "velocity": 43}, {"time": 1128, "pitch": 62, "duration": 2, "velocity": 58}, {"time": 1134, "pitch": 55, "duration": 3, "velocity": 60}, {"time": 1134, "pitch": 59, "duration": 3, "velocity": 64}, {"time": 1134, "pitch": 62, "duration": 3, "velocity": 62}, {"time": 1134, "pitch": 67, "duration": 5, "velocity": 58}, {"time": 1140, "pitch": 50, "duration": 8, "velocity": 63}, {"time": 1146, "pitch": 67, "duration": 8, "velocity": 58}, {"time": 1146, "pitch": 71, "duration": 13, "velocity": 60}, {"time": 1152, "pitch": 50, "duration": 10, "velocity": 61}, {"time": 1158, "pitch": 67, "duration": 3, "velocity": 54}, {"time": 1164, "pitch": 36, "duration": 23, "velocity": 58}, {"time": 1164, "pitch": 55, "duration": 6, "velocity": 58}, {"time": 1164, "pitch": 64, "duration": 8, "velocity": 59}, {"time": 1170, "pitch": 43, "duration": 15, "velocity": 48}, {"time": 1176, "pitch": 55, "duration": 2, "velocity": 67}, {"time": 1182, "pitch": 55, "duration": 4, "velocity": 64}, {"time": 1182, "pitch": 64, "duration": 4, "velocity": 67}, {"time": 1188, "pitch": 43, "duration": 1, "velocity": 59}, {"time": 1194, "pitch": 55, "duration": 3, "velocity": 60}, {"time": 1194, "pitch": 60, "duration": 5, "velocity": 59}, {"time": 1200, "pitch": 55, "duration": 3, "velocity": 59}, {"time": 1212, "pitch": 36, "duration": 36, "velocity": 58}, {"time": 1212, "pitch": 55, "duration": 5, "velocity": 59}, {"time": 1212, "pitch": 60, "duration": 8, "velocity": 59}, {"time": 1218, "pitch": 43, "duration": 15, "velocity": 54}, {"time": 1224, "pitch": 55, "duration": 3, "velocity": 60}, {"time": 1230, "pitch": 55, "duration": 7, "velocity": 59}, {"time": 1230, "pitch": 62, "duration": 7, "velocity": 58}, {"time": 1236, "pitch": 43, "duration": 9, "velocity": 59}, {"time": 1242, "pitch": 60, "duration": 6, "velocity": 67}, {"time": 1248, "pitch": 57, "duration": 3, "velocity": 59}, {"time": 1254, "pitch": 55, "duration": 4, "velocity": 60}, {"time": 1260, "pitch": 38, "duration": 42, "velocity": 60}, {"time": 1260, "pitch": 57, "duration": 7, "velocity": 57}, {"time": 1266, "pitch": 45, "duration": 36, "velocity": 57}, {"time": 1272, "pitch": 50, "duration": 3, "velocity": 55}, {"time": 1278, "pitch": 50, "duration": 16, "velocity": 59}, {"time": 1278, "pitch": 57, "duration": 6, "velocity": 59}, {"time": 1296, "pitch": 62, "duration": 8, "velocity": 63}, {"time": 1302, "pitch": 50, "duration": 4, "velocity": 58}, {"time": 1308, "pitch": 38, "duration": 25, "velocity": 63}, {"time": 1308, "pitch": 50, "duration": 5, "velocity": 39}, {"time": 1308, "pitch": 57, "duration": 14, "velocity": 54}, {"time": 1308, "pitch": 62, "duration": 13, "velocity": 57}, {"time": 1314, "pitch": 45, "duration": 14, "velocity": 48}, {"time": 1320, "pitch": 50, "duration": 3, "velocity": 58}, {"time": 1326, "pitch": 50, "duration": 4, "velocity": 59}, {"time": 1326, "pitch": 57, "duration": 5, "velocity": 58}, {"time": 1326, "pitch": 62, "duration": 8, "velocity": 61}, {"time": 1332, "pitch": 45, "duration": 3, "velocity": 58}, {"time": 1338, "pitch": 38, "duration": 7, "velocity": 62}, {"time": 1344, "pitch": 62, "duration": 6, "velocity": 57}, {"time": 1350, "pitch": 57, "duration": 2, "velocity": 59}, {"time": 1356, "pitch": 43, "duration": 38, "velocity": 60}, {"time": 1356, "pitch": 55, "duration": 7, "velocity": 56}, {"time": 1356, "pitch": 59, "duration": 8, "velocity": 58}, {"time": 1362, "pitch": 50, "duration": 27, "velocity": 50}, {"time": 1368, "pitch": 62, "duration": 4, "velocity": 52}, {"time": 1374, "pitch": 67, "duration": 7, "velocity": 59}, {"time": 1386, "pitch": 55, "duration": 6, "velocity": 56}, {"time": 1386, "pitch": 62, "duration": 8, "velocity": 58}, {"time": 1392, "pitch": 50, "duration": 2, "velocity": 60}, {"time": 1398, "pitch": 55, "duration": 3, "velocity": 58}, {"time": 1404, "pitch": 43, "duration": 36, "velocity": 59}, {"time": 1404, "pitch": 55, "duration": 14, "velocity": 57}, {"time": 1404, "pitch": 59, "duration": 13, "velocity": 55}, {"time": 1410, "pitch": 50, "duration": 16, "velocity": 52}, {"time": 1416, "pitch": 62, "duration": 3, "velocity": 52}, {"time": 1422, "pitch": 55, "duration": 13, "velocity": 58}, {"time": 1422, "pitch": 62, "duration": 18, "velocity": 59}, {"time": 1422, "pitch": 67, "duration": 11, "velocity": 57}, {"time": 1434, "pitch": 50, "duration": 6, "velocity": 56}, {"time": 1440, "pitch": 55, "duration": 3, "velocity": 59}, {"time": 1452, "pitch": 48, "duration": 42, "velocity": 60}, {"time": 1452, "pitch": 55, "duration": 5, "velocity": 59}, {"time": 1452, "pitch": 64, "duration": 13, "velocity": 58}, {"time": 1458, "pitch": 52, "duration": 37, "velocity": 51}, {"time": 1464, "pitch": 55, "duration": 2, "velocity": 60}, {"time": 1470, "pitch": 55, "duration": 5, "velocity": 59}, {"time": 1470, "pitch": 62, "duration": 10, "velocity": 59}, {"time": 1482, "pitch": 60, "duration": 5, "velocity": 59}, {"time": 1488, "pitch": 57, "duration": 2, "velocity": 59}, {"time": 1494, "pitch": 55, "duration": 3, "velocity": 58}, {"time": 1500, "pitch": 48, "duration": 32, "velocity": 64}, {"time": 1500, "pitch": 55, "duration": 6, "velocity": 56}, {"time": 1500, "pitch": 60, "duration": 13, "velocity": 59}, {"time": 1506, "pitch": 52, "duration": 26, "velocity": 59}, {"time": 1512, "pitch": 55, "duration": 3, "velocity": 57}, {"time": 1518, "pitch": 55, "duration": 4, "velocity": 50}, {"time": 1518, "pitch": 62, "duration": 9, "velocity": 60}, {"time": 1530, "pitch": 55, "duration": 5, "velocity": 60}, {"time": 1530, "pitch": 64, "duration": 14, "velocity": 64}, {"time": 1536, "pitch": 52, "duration": 5, "velocity": 59}, {"time": 1542, "pitch": 55, "duration": 4, "velocity": 62}, {"time": 1548, "pitch": 48, "duration": 22, "velocity": 61}, {"time": 1548, "pitch": 55, "duration": 4, "velocity": 59}, {"time": 1548, "pitch": 60, "duration": 7, "velocity": 59}, {"time": 1554, "pitch": 55, "duration": 4, "velocity": 56}, {"time": 1560, "pitch": 60, "duration": 2, "velocity": 50}, {"time": 1566, "pitch": 55, "duration": 8, "velocity": 58}, {"time": 1566, "pitch": 60, "duration": 8, "velocity": 61}, {"time": 1566, "pitch": 64, "duration": 10, "velocity": 61}, {"time": 1578, "pitch": 55, "duration": 4, "velocity": 54}, {"time": 1578, "pitch": 60, "duration": 7, "velocity": 58}, {"time": 1584, "pitch": 55, "duration": 7, "velocity": 59}, {"time": 1596, "pitch": 36, "duration": 2, "velocity": 59}, {"time": 1596, "pitch": 55, "duration": 4, "velocity": 57}, {"time": 1596, "pitch": 60, "duration": 7, "velocity": 53}, {"time": 1602, "pitch": 55, "duration": 7, "velocity": 56}, {"time": 1608, "pitch": 60, "duration": 3, "velocity": 49}, {"time": 1614, "pitch": 55, "duration": 6, "velocity": 58}, {"time": 1614, "pitch": 64, "duration": 7, "velocity": 63}, {"time": 1626, "pitch": 55, "duration": 7, "velocity": 59}, {"time": 1626, "pitch": 60, "duration": 10, "velocity": 61}, {"time": 1632, "pitch": 48, "duration": 2, "velocity": 65}, {"time": 1638, "pitch": 55, "duration": 2, "velocity": 58}, {"time": 1644, "pitch": 38, "duration": 39, "velocity": 60}, {"time": 1644, "pitch": 57, "duration": 5, "velocity": 50}, {"time": 1644, "pitch": 62, "duration": 6, "velocity": 53}, {"time": 1650, "pitch": 45, "duration": 33, "velocity": 57}, {"time": 1656, "pitch": 57, "duration": 2, "velocity": 51}, {"time": 1662, "pitch": 57, "duration": 4, "velocity": 58}, {"time": 1662, "pitch": 65, "duration": 3, "velocity": 59}, {"time": 1674, "pitch": 62, "duration": 5, "velocity": 61}, {"time": 1680, "pitch": 57, "duration": 3, "velocity": 56}, {"time": 1692, "pitch": 38, "duration": 35, "velocity": 61}, {"time": 1692, "pitch": 57, "duration": 6, "velocity": 52}, {"time": 1692, "pitch": 62, "duration": 12, "velocity": 53}, {"time": 1698, "pitch": 45, "duration": 16, "velocity": 51}, {"time": 1704, "pitch": 57, "duration": 1, "velocity": 38}, {"time": 1710, "pitch": 57, "duration": 8, "velocity": 59}, {"time": 1710, "pitch": 65, "duration": 11, "velocity": 59}, {"time": 1716, "pitch": 45, "duration": 9, "velocity": 49}, {"time": 1722, "pitch": 62, "duration": 5, "velocity": 61}, {"time": 1728, "pitch": 57, "duration": 7, "velocity": 59}, {"time": 1734, "pitch": 62, "duration": 2, "velocity": 59}, {"time": 1740, "pitch": 43, "duration": 36, "velocity": 58}, {"time": 1740, "pitch": 55, "duration": 6, "velocity": 62}, {"time": 1746, "pitch": 50, "duration": 31, "velocity": 58}, {"time": 1752, "pitch": 62, "duration": 4, "velocity": 49}, {"time": 1758, "pitch": 55, "duration": 7, "velocity": 56}, {"time": 1758, "pitch": 67, "duration": 7, "velocity": 59}, {"time": 1770, "pitch": 55, "duration": 4, "velocity": 53}, {"time": 1770, "pitch": 62, "duration": 4, "velocity": 54}, {"time": 1788, "pitch": 43, "duration": 34, "velocity": 59}, {"time": 1788, "pitch": 55, "duration": 6, "velocity": 55}, {"time": 1788, "pitch": 59, "duration": 8, "velocity": 55}, {"time": 1794, "pitch": 50, "duration": 27, "velocity": 57}, {"time": 1800, "pitch": 62, "duration": 3, "velocity": 56}, {"time": 1806, "pitch": 55, "duration": 6, "velocity": 59}, {"time": 1806, "pitch": 67, "duration": 5, "velocity": 58}, {"time": 1818, "pitch": 55, "duration": 2, "velocity": 58}, {"time": 1818, "pitch": 62, "duration": 8, "velocity": 58}, {"time": 1824, "pitch": 55, "duration": 4, "velocity": 58}, {"time": 1836, "pitch": 36, "duration": 2, "velocity": 56}, {"time": 1836, "pitch": 55, "duration": 6, "velocity": 58}, {"time": 1836, "pitch": 60, "duration": 10, "velocity": 55}, {"time": 1848, "pitch": 48, "duration": 25, "velocity": 54}, {"time": 1848, "pitch": 55, "duration": 1, "velocity": 47}, {"time": 1854, "pitch": 55, "duration": 1, "velocity": 38}, {"time": 1854, "pitch": 64, "duration": 8, "velocity": 59}, {"time": 1866, "pitch": 60, "duration": 6, "velocity": 59}, {"time": 1872, "pitch": 55, "duration": 3, "velocity": 59}, {"time": 1884, "pitch": 48, "duration": 48, "velocity": 59}, {"time": 1884, "pitch": 55, "duration": 3, "velocity": 51}, {"time": 1884, "pitch": 60, "duration": 7, "velocity": 53}, {"time": 1890, "pitch": 55, "duration": 6, "velocity": 55}, {"time": 1896, "pitch": 60, "duration": 1, "velocity": 44}, {"time": 1902, "pitch": 55, "duration": 8, "velocity": 60}, {"time": 1902, "pitch": 64, "duration": 9, "velocity": 61}, {"time": 1914, "pitch": 55, "duration": 3, "velocity": 55}, {"time": 1914, "pitch": 60, "duration": 18, "velocity": 57}, {"time": 1920, "pitch": 55, "duration": 11, "velocity": 51}, {"time": 1932, "pitch": 41, "duration": 34, "velocity": 61}, {"time": 1932, "pitch": 53, "duration": 7, "velocity": 52}, {"time": 1932, "pitch": 60, "duration": 1, "velocity": 54}, {"time": 1938, "pitch": 48, "duration": 26, "velocity": 48}, {"time": 1944, "pitch": 57, "duration": 12, "velocity": 52}, {"time": 1950, "pitch": 65, "duration": 11, "velocity": 58}, {"time": 1980, "pitch": 40, "duration": 28, "velocity": 60}, {"time": 1980, "pitch": 52, "duration": 18, "velocity": 58}, {"time": 1980, "pitch": 55, "duration": 19, "velocity": 54}, {"time": 1986, "pitch": 47, "duration": 21, "velocity": 50}, {"time": 1992, "pitch": 59, "duration": 7, "velocity": 51}, {"time": 1998, "pitch": 64, "duration": 8, "velocity": 61}, {"time": 2028, "pitch": 50, "duration": 12, "velocity": 59}, {"time": 2028, "pitch": 65, "duration": 12, "velocity": 60}, {"time": 2034, "pitch": 57, "duration": 7, "velocity": 57}, {"time": 2040, "pitch": 62, "duration": 4, "velocity": 59}, {"time": 2076, "pitch": 48, "duration": 35, "velocity": 59}, {"time": 2076, "pitch": 55, "duration": 4, "velocity": 50}, {"time": 2076, "pitch": 60, "duration": 8, "velocity": 54}, {"time": 2082, "pitch": 55, "duration": 7, "velocity": 58}, {"time": 2088, "pitch": 60, "duration": 3, "velocity": 52}, {"time": 2094, "pitch": 64, "duration": 9, "velocity": 65}, {"time": 2106, "pitch": 60, "duration": 5, "velocity": 59}, {"time": 2124, "pitch": 41, "duration": 38, "velocity": 59}, {"time": 2124, "pitch": 53, "duration": 14, "velocity": 49}, {"time": 2124, "pitch": 57, "duration": 14, "velocity": 46}, {"time": 2130, "pitch": 48, "duration": 32, "velocity": 56}, {"time": 2136, "pitch": 60, "duration": 7, "velocity": 56}, {"time": 2142, "pitch": 65, "duration": 14, "velocity": 58}, {"time": 2172, "pitch": 40, "duration": 32, "velocity": 59}, {"time": 2172, "pitch": 52, "duration": 10, "velocity": 50}, {"time": 2172, "pitch": 55, "duration": 13, "velocity": 53}, {"time": 2178, "pitch": 47, "duration": 26, "velocity": 55}, {"time": 2184, "pitch": 59, "duration": 5, "velocity": 50}, {"time": 2190, "pitch": 64, "duration": 12, "velocity": 62}, {"time": 2202, "pitch": 59, "duration": 2, "velocity": 58}, {"time": 2220, "pitch": 38, "duration": 2, "velocity": 61}, {"time": 2220, "pitch": 57, "duration": 4, "velocity": 55}, {"time": 2220, "pitch": 65, "duration": 12, "velocity": 58}, {"time": 2226, "pitch": 57, "duration": 8, "velocity": 54}, {"time": 2232, "pitch": 62, "duration": 3, "velocity": 57}, {"time": 2238, "pitch": 65, "duration": 13, "velocity": 63}, {"time": 2250, "pitch": 57, "duration": 3, "velocity": 55}, {"time": 2256, "pitch": 62, "duration": 6, "velocity": 58}, {"time": 2262, "pitch": 57, "duration": 3, "velocity": 54}, {"time": 2268, "pitch": 43, "duration": 48, "velocity": 59}, {"time": 2268, "pitch": 55, "duration": 6, "velocity": 55}, {"time": 2268, "pitch": 62, "duration": 7, "velocity": 57}, {"time": 2274, "pitch": 50, "duration": 42, "velocity": 59}, {"time": 2280, "pitch": 55, "duration": 11, "velocity": 58}, {"time": 2286, "pitch": 62, "duration": 7, "velocity": 58}, {"time": 2292, "pitch": 67, "duration": 24, "velocity": 59}, {"time": 2298, "pitch": 55, "duration": 7, "velocity": 62}, {"time": 2304, "pitch": 62, "duration": 12, "velocity": 54}, {"time": 2310, "pitch": 55, "duration": 6, "velocity": 54}, {"time": 2316, "pitch": 45, "duration": 43, "velocity": 59}, {"time": 2316, "pitch": 57, "duration": 6, "velocity": 52}, {"time": 2316, "pitch": 60, "duration": 20, "velocity": 50}, {"time": 2322, "pitch": 52, "duration": 38, "velocity": 52}, {"time": 2328, "pitch": 64, "duration": 8, "velocity": 54}, {"time": 2334, "pitch": 69, "duration": 25, "velocity": 58}, {"time": 2346, "pitch": 64, "duration": 9, "velocity": 49}, {"time": 2352, "pitch": 57, "duration": 8, "velocity": 49}, {"time": 2358, "pitch": 64, "duration": 19, "velocity": 57}, {"time": 2364, "pitch": 45, "duration": 38, "velocity": 60}, {"time": 2370, "pitch": 52, "duration": 26, "velocity": 58}, {"time": 2376, "pitch": 57, "duration": 15, "velocity": 59}, {"time": 2382, "pitch": 60, "duration": 8, "velocity": 58}, {"time": 2394, "pitch": 57, "duration": 2, "velocity": 53}, {"time": 2394, "pitch": 60, "duration": 10, "velocity": 59}, {"time": 2394, "pitch": 64, "duration": 15, "velocity": 60}, {"time": 2400, "pitch": 52, "duration": 8, "velocity": 64}, {"time": 2406, "pitch": 57, "duration": 3, "velocity": 61}, {"time": 2412, "pitch": 50, "duration": 43, "velocity": 64}, {"time": 2412, "pitch": 57, "duration": 6, "velocity": 59}, {"time": 2412, "pitch": 62, "duration": 12, "velocity": 58}, {"time": 2418, "pitch": 53, "duration": 38, "velocity": 43}, {"time": 2424, "pitch": 57, "duration": 3, "velocity": 58}, {"time": 2430, "pitch": 57, "duration": 8, "velocity": 58}, {"time": 2430, "pitch": 65, "duration": 13, "velocity": 54}, {"time": 2442, "pitch": 62, "duration": 7, "velocity": 58}, {"time": 2448, "pitch": 57, "duration": 14, "velocity": 46}, {"time": 2454, "pitch": 65, "duration": 19, "velocity": 51}, {"time": 2460, "pitch": 50, "duration": 33, "velocity": 58}, {"time": 2466, "pitch": 57, "duration": 7, "velocity": 49}, {"time": 2472, "pitch": 62, "duration": 7, "velocity": 58}, {"time": 2478, "pitch": 57, "duration": 8, "velocity": 65}, {"time": 2490, "pitch": 57, "duration": 5, "velocity": 45}, {"time": 2496, "pitch": 62, "duration": 3, "velocity": 58}, {"time": 2508, "pitch": 41, "duration": 36, "velocity": 58}, {"time": 2508, "pitch": 53, "duration": 5, "velocity": 53}, {"time": 2508, "pitch": 57, "duration": 11, "velocity": 55}, {"time": 2514, "pitch": 48, "duration": 20, "velocity": 56}, {"time": 2520, "pitch": 53, "duration": 8, "velocity": 60}, {"time": 2526, "pitch": 60, "duration": 26, "velocity": 59}, {"time": 2544, "pitch": 48, "duration": 7, "velocity": 59}, {"time": 2550, "pitch": 53, "duration": 2, "velocity": 60}, {"time": 2556, "pitch": 43, "duration": 40, "velocity": 61}, {"time": 2556, "pitch": 55, "duration": 6, "velocity": 56}, {"time": 2556, "pitch": 59, "duration": 12, "velocity": 54}, {"time": 2562, "pitch": 50, "duration": 34, "velocity": 56}, {"time": 2568, "pitch": 55, "duration": 18, "velocity": 64}, {"time": 2574, "pitch": 62, "duration": 14, "velocity": 56}, {"time": 2586, "pitch": 67, "duration": 10, "velocity": 59}, {"time": 2592, "pitch": 55, "duration": 3, "velocity": 60}, {"time": 2604, "pitch": 48, "duration": 42, "velocity": 65}, {"time": 2604, "pitch": 55, "duration": 6, "velocity": 55}, {"time": 2604, "pitch": 64, "duration": 15, "velocity": 59}, {"time": 2610, "pitch": 52, "duration": 34, "velocity": 55}, {"time": 2616, "pitch": 55, "duration": 7, "velocity": 60}, {"time": 2622, "pitch": 62, "duration": 7, "velocity": 55}, {"time": 2628, "pitch": 60, "duration": 7, "velocity": 54}, {"time": 2634, "pitch": 55, "duration": 7, "velocity": 59}, {"time": 2640, "pitch": 60, "duration": 4, "velocity": 53}, {"time": 2652, "pitch": 43, "duration": 33, "velocity": 58}, {"time": 2652, "pitch": 55, "duration": 14, "velocity": 53}, {"time": 2652, "pitch": 59, "duration": 14, "velocity": 54}, {"time": 2658, "pitch": 50, "duration": 20, "velocity": 59}, {"time": 2664, "pitch": 62, "duration": 6, "velocity": 56}, {"time": 2670, "pitch": 67, "duration": 20, "velocity": 60}, {"time": 2676, "pitch": 55, "duration": 7, "velocity": 61}, {"time": 2682, "pitch": 50, "duration": 6, "velocity": 63}, {"time": 2688, "pitch": 55, "duration": 4, "velocity": 59}, {"time": 2700, "pitch": 48, "duration": 41, "velocity": 61}, {"time": 2700, "pitch": 55, "duration": 6, "velocity": 59}, {"time": 2700, "pitch": 64, "duration": 14, "velocity": 60}, {"time": 2706, "pitch": 52, "duration": 35, "velocity": 46}, {"time": 2712, "pitch": 55, "duration": 7, "velocity": 60}, {"time": 2718, "pitch": 62, "duration": 10, "velocity": 59}, {"time": 2730, "pitch": 64, "duration": 7, "velocity": 62}, {"time": 2736, "pitch": 62, "duration": 6, "velocity": 54}, {"time": 2742, "pitch": 55, "duration": 5, "velocity": 60}, {"time": 2748, "pitch": 48, "duration": 36, "velocity": 60}, {"time": 2748, "pitch": 60, "duration": 13, "velocity": 59}, {"time": 2754, "pitch": 52, "duration": 32, "velocity": 51}, {"time": 2760, "pitch": 55, "duration": 8, "velocity": 58}, {"time": 2766, "pitch": 62, "duration": 7, "velocity": 54}, {"time": 2778, "pitch": 64, "duration": 7, "velocity": 54}, {"time": 2784, "pitch": 60, "duration": 3, "velocity": 51}, {"time": 2796, "pitch": 50, "duration": 22, "velocity": 58}, {"time": 2796, "pitch": 57, "duration": 3, "velocity": 50}, {"time": 2796, "pitch": 62, "duration": 7, "velocity": 54}, {"time": 2802, "pitch": 57, "duration": 8, "velocity": 53}, {"time": 2808, "pitch": 62, "duration": 7, "velocity": 52}, {"time": 2814, "pitch": 65, "duration": 13, "velocity": 60}, {"time": 2826, "pitch": 62, "duration": 7, "velocity": 60}, {"time": 2832, "pitch": 57, "duration": 3, "velocity": 49}, {"time": 2844, "pitch": 38, "duration": 30, "velocity": 60}, {"time": 2844, "pitch": 57, "duration": 6, "velocity": 51}, {"time": 2844, "pitch": 62, "duration": 12, "velocity": 52}, {"time": 2850, "pitch": 45, "duration": 14, "velocity": 47}, {"time": 2856, "pitch": 57, "duration": 2, "velocity": 53}, {"time": 2862, "pitch": 57, "duration": 8, "velocity": 60}, {"time": 2862, "pitch": 65, "duration": 9, "velocity": 59}, {"time": 2868, "pitch": 45, "duration": 6, "velocity": 60}, {"time": 2874, "pitch": 62, "duration": 6, "velocity": 62}, {"time": 2880, "pitch": 57, "duration": 6, "velocity": 58}, {"time": 2886, "pitch": 62, "duration": 2, "velocity": 54}, {"time": 2892, "pitch": 41, "duration": 36, "velocity": 58}, {"time": 2892, "pitch": 53, "duration": 6, "velocity": 55}, {"time": 2892, "pitch": 57, "duration": 12, "velocity": 46}, {"time": 2898, "pitch": 48, "duration": 29, "velocity": 54}, {"time": 2904, "pitch": 53, "duration": 4, "velocity": 58}, {"time": 2910, "pitch": 53, "duration": 8, "velocity": 49}, {"time": 2910, "pitch": 60, "duration": 10, "velocity": 60}, {"time": 2922, "pitch": 57, "duration": 7, "velocity": 58}, {"time": 2922, "pitch": 60, "duration": 7, "velocity": 37}, {"time": 2928, "pitch": 53, "duration": 3, "velocity": 58}, {"time": 2940, "pitch": 43, "duration": 36, "velocity": 58}, {"time": 2940, "pitch": 55, "duration": 14, "velocity": 54}, {"time": 2940, "pitch": 59, "duration": 14, "velocity": 58}, {"time": 2946, "pitch": 50, "duration": 27, "velocity": 54}, {"time": 2952, "pitch": 62, "duration": 7, "velocity": 52}, {"time": 2958, "pitch": 67, "duration": 13, "velocity": 59}, {"time": 2970, "pitch": 62, "duration": 11, "velocity": 58}, {"time": 2976, "pitch": 55, "duration": 4, "velocity": 49}, {"time": 2988, "pitch": 48, "duration": 31, "velocity": 63}, {"time": 2988, "pitch": 55, "duration": 5, "velocity": 57}, {"time": 2988, "pitch": 60, "duration": 12, "velocity": 54}, {"time": 2994, "pitch": 52, "duration": 15, "velocity": 54}, {"time": 3000, "pitch": 55, "duration": 3, "velocity": 54}, {"time": 3006, "pitch": 55, "duration": 13, "velocity": 58}, {"time": 3006, "pitch": 60, "duration": 16, "velocity": 60}, {"time": 3006, "pitch": 64, "duration": 18, "velocity": 60}, {"time": 3018, "pitch": 52, "duration": 11, "velocity": 58}, {"time": 3024, "pitch": 55, "duration": 4, "velocity": 60}, {"time": 3036, "pitch": 43, "duration": 46, "velocity": 62}, {"time": 3036, "pitch": 55, "duration": 8, "velocity": 60}, {"time": 3036, "pitch": 59, "duration": 8, "velocity": 59}, {"time": 3042, "pitch": 50, "duration": 14, "velocity": 61}, {"time": 3048, "pitch": 59, "duration": 1, "velocity": 43}, {"time": 3048, "pitch": 62, "duration": 2, "velocity": 58}, {"time": 3054, "pitch": 55, "duration": 3, "velocity": 60}, {"time": 3054, "pitch": 59, "duration": 3, "velocity": 64}, {"time": 3054, "pitch": 62, "duration": 3, "velocity": 62}, {"time": 3054, "pitch": 67, "duration": 5, "velocity": 58}, {"time": 3060, "pitch": 50, "duration": 8, "velocity": 63}, {"time": 3066, "pitch": 67, "duration": 8, "velocity": 58}, {"time": 3066, "pitch": 71, "duration": 13, "velocity": 60}, {"time": 3072, "pitch": 50, "duration": 10, "velocity": 61}, {"time": 3078, "pitch": 67, "duration": 3, "velocity": 54}, {"time": 3084, "pitch": 36, "duration": 23, "velocity": 58}, {"time": 3084, "pitch": 55, "duration": 6, "velocity": 58}, {"time": 3084, "pitch": 64, "duration": 8, "velocity": 59}, {"time": 3090, "pitch": 43, "duration": 15, "velocity": 48}, {"time": 3096, "pitch": 55, "duration": 2, "velocity": 67}, {"time": 3102, "pitch": 55, "duration": 4, "velocity": 64}, {"time": 3102, "pitch": 64, "duration": 4, "velocity": 67}, {"time": 3108, "pitch": 43, "duration": 1, "velocity": 59}, {"time": 3114, "pitch": 55, "duration": 3, "velocity": 60}, {"time": 3114, "pitch": 60, "duration": 5, "velocity": 59}, {"time": 3120, "pitch": 55, "duration": 3, "velocity": 59}, {"time": 3132, "pitch": 36, "duration": 36, "velocity": 58}, {"time": 3132, "pitch": 55, "duration": 5, "velocity": 59}, {"time": 3132, "pitch": 60, "duration": 8, "velocity": 59}, {"time": 3138, "pitch": 43, "duration": 15, "velocity": 54}, {"time": 3144, "pitch": 55, "duration": 3, "velocity": 60}, {"time": 3150, "pitch": 55, "duration": 7, "velocity": 59}, {"time": 3150, "pitch": 62, "duration": 7, "velocity": 58}, {"time": 3156, "pitch": 43, "duration": 9, "velocity": 59}, {"time": 3162, "pitch": 60, "duration": 6, "velocity": 67}, {"time": 3168, "pitch": 57, "duration": 3, "velocity": 59}, {"time": 3174, "pitch": 55, "duration": 4, "velocity": 60}, {"time": 3180, "pitch": 38, "duration": 42, "velocity": 60}, {"time": 3180, "pitch": 57, "duration": 7, "velocity": 57}, {"time": 3186, "pitch": 45, "duration": 36, "velocity": 57}, {"time": 3192, "pitch": 50, "duration": 3, "velocity": 55}, {"time": 3198, "pitch": 50, "duration": 16, "velocity": 59}, {"time": 3198, "pitch": 57, "duration": 6, "velocity": 59}, {"time": 3216, "pitch": 62, "duration": 8, "velocity": 63}, {"time": 3222, "pitch": 50, "duration": 4, "velocity": 58}, {"time": 3228, "pitch": 38, "duration": 25, "velocity": 63}, {"time": 3228, "pitch": 50, "duration": 5, "velocity": 39}, {"time": 3228, "pitch": 57, "duration": 14, "velocity": 54}, {"time": 3228, "pitch": 62, "duration": 13, "velocity": 57}, {"time": 3234, "pitch": 45, "duration": 14, "velocity": 48}, {"time": 3240, "pitch": 50, "duration": 3, "velocity": 58}, {"time": 3246, "pitch": 50, "duration": 4, "velocity": 59}, {"time": 3246, "pitch": 57, "duration": 5, "velocity": 58}, {"time": 3246, "pitch": 62, "duration": 8, "velocity": 61}, {"time": 3252, "pitch": 45, "duration": 3, "velocity": 58}, {"time": 3258, "pitch": 38, "duration": 7, "velocity": 62}, {"time": 3264, "pitch": 62, "duration": 6, "velocity": 57}, {"time": 3270, "pitch": 57, "duration": 2, "velocity": 59}, {"time": 3276, "pitch": 43, "duration": 38, "velocity": 60}, {"time": 3276, "pitch": 55, "duration": 7, "velocity": 56}, {"time": 3276, "pitch": 59, "duration": 8, "velocity": 58}, {"time": 3282, "pitch": 50, "duration": 27, "velocity": 50}, {"time": 3288, "pitch": 62, "duration": 4, "velocity": 52}, {"time": 3294, "pitch": 67, "duration": 7, "velocity": 59}, {"time": 3306, "pitch": 55, "duration": 6, "velocity": 56}, {"time": 3306, "pitch": 62, "duration": 8, "velocity": 58}, {"time": 3312, "pitch": 50, "duration": 2, "velocity": 60}, {"time": 3318, "pitch": 55, "duration": 3, "velocity": 58}, {"time": 3324, "pitch": 43, "duration": 36, "velocity": 59}, {"time": 3324, "pitch": 55, "duration": 14, "velocity": 57}, {"time": 3324, "pitch": 59, "duration": 13, "velocity": 55}, {"time": 3330, "pitch": 50, "duration": 16, "velocity": 52}, {"time": 3336, "pitch": 62, "duration": 3, "velocity": 52}, {"time": 3342, "pitch": 55, "duration": 13, "velocity": 58}, {"time": 3342, "pitch": 62, "duration": 18, "velocity": 59}, {"time": 3342, "pitch": 67, "duration": 11, "velocity": 57}, {"time": 3354, "pitch": 50, "duration": 6, "velocity": 56}, {"time": 3360, "pitch": 55, "duration": 3, "velocity": 59}, {"time": 3372, "pitch": 48, "duration": 42, "velocity": 60}, {"time": 3372, "pitch": 55, "duration": 5, "velocity": 59}, {"time": 3372, "pitch": 64, "duration": 13, "velocity": 58}, {"time": 3378, "pitch": 52, "duration": 37, "velocity": 51}, {"time": 3384, "pitch": 55, "duration": 2, "velocity": 60}, {"time": 3390, "pitch": 55, "duration": 5, "velocity": 59}, {"time": 3390, "pitch": 62, "duration": 10, "velocity": 59}, {"time": 3402, "pitch": 60, "duration": 5, "velocity": 59}, {"time": 3408, "pitch": 57, "duration": 2, "velocity": 59}, {"time": 3414, "pitch": 55, "duration": 3, "velocity": 58}, {"time": 3420, "pitch": 48, "duration": 32, "velocity": 64}, {"time": 3420, "pitch": 55, "duration": 6, "velocity": 56}, {"time": 3420, "pitch": 60, "duration": 13, "velocity": 59}, {"time": 3426, "pitch": 52, "duration": 26, "velocity": 59}, {"time": 3432, "pitch": 55, "duration": 3, "velocity": 57}, {"time": 3438, "pitch": 55, "duration": 4, "velocity": 50}, {"time": 3438, "pitch": 62, "duration": 9, "velocity": 60}, {"time": 3450, "pitch": 55, "duration": 5, "velocity": 60}, {"time": 3450, "pitch": 64, "duration": 14, "velocity": 64}, {"time": 3456, "pitch": 52, "duration": 5, "velocity": 59}, {"time": 3462, "pitch": 55, "duration": 4, "velocity": 62}, {"time": 3468, "pitch": 48, "duration": 22, "velocity": 61}, {"time": 3468, "pitch": 55, "duration": 4, "velocity": 59}, {"time": 3468, "pitch": 60, "duration": 7, "velocity": 59}, {"time": 3474, "pitch": 55, "duration": 4, "velocity": 56}, {"time": 3480, "pitch": 60, "duration": 2, "velocity": 50}, {"time": 3486, "pitch": 55, "duration": 8, "velocity": 58}, {"time": 3486, "pitch": 60, "duration": 8, "velocity": 61}, {"time": 3486, "pitch": 64, "duration": 10, "velocity": 61}, {"time": 3498, "pitch": 55, "duration": 4, "velocity": 54}, {"time": 3498, "pitch": 60, "duration": 7, "velocity": 58}, {"time": 3504, "pitch": 55, "duration": 7, "velocity": 59}, {"time": 3516, "pitch": 36, "duration": 2, "velocity": 59}, {"time": 3516, "pitch": 55, "duration": 4, "velocity": 57}, {"time": 3516, "pitch": 60, "duration": 7, "velocity": 53}, {"time": 3522, "pitch": 55, "duration": 7, "velocity": 56}, {"time": 3528, "pitch": 60, "duration": 3, "velocity": 49}, {"time": 3534, "pitch": 55, "duration": 6, "velocity": 58}, {"time": 3534, "pitch": 64, "duration": 7, "velocity": 63}, {"time": 3546, "pitch": 55, "duration": 7, "velocity": 59}, {"time": 3546, "pitch": 60, "duration": 10, "velocity": 61}, {"time": 3552, "pitch": 48, "duration": 2, "velocity": 65}, {"time": 3558, "pitch": 55, "duration": 2, "velocity": 58}, {"time": 3564, "pitch": 38, "duration": 39, "velocity": 60}, {"time": 3564, "pitch": 57, "duration": 5, "velocity": 50}, {"time": 3564, "pitch": 62, "duration": 6, "velocity": 53}, {"time": 3570, "pitch": 45, "duration": 33, "velocity": 57}, {"time": 3576, "pitch": 57, "duration": 2, "velocity": 51}, {"time": 3582, "pitch": 57, "duration": 4, "velocity": 58}, {"time": 3582, "pitch": 65, "duration": 3, "velocity": 59}, {"time": 3594, "pitch": 62, "duration": 5, "velocity": 61}, {"time": 3600, "pitch": 57, "duration": 3, "velocity": 56}, {"time": 3612, "pitch": 38, "duration": 35, "velocity": 61}, {"time": 3612, "pitch": 57, "duration": 6, "velocity": 52}, {"time": 3612, "pitch": 62, "duration": 12, "velocity": 53}, {"time": 3618, "pitch": 45, "duration": 16, "velocity": 51}, {"time": 3624, "pitch": 57, "duration": 1, "velocity": 38}, {"time": 3630, "pitch": 57, "duration": 8, "velocity": 59}, {"time": 3630, "pitch": 65, "duration": 11, "velocity": 59}, {"time": 3636, "pitch": 45, "duration": 9, "velocity": 49}, {"time": 3642, "pitch": 62, "duration": 5, "velocity": 61}, {"time": 3648, "pitch": 57, "duration": 7, "velocity": 59}, {"time": 3654, "pitch": 62, "duration": 2, "velocity": 59}, {"time": 3660, "pitch": 43, "duration": 36, "velocity": 58}, {"time": 3660, "pitch": 55, "duration": 6, "velocity": 62}, {"time": 3666, "pitch": 50, "duration": 31, "velocity": 58}, {"time": 3672, "pitch": 62, "duration": 4, "velocity": 49}, {"time": 3678, "pitch": 55, "duration": 7, "velocity": 56}, {"time": 3678, "pitch": 67, "duration": 7, "velocity": 59}, {"time": 3690, "pitch": 55, "duration": 4, "velocity": 53}, {"time": 3690, "pitch": 62, "duration": 4, "velocity": 54}, {"time": 3708, "pitch": 43, "duration": 34, "velocity": 59}, {"time": 3708, "pitch": 55, "duration": 6, "velocity": 55}, {"time": 3708, "pitch": 59, "duration": 8, "velocity": 55}, {"time": 3714, "pitch": 50, "duration": 27, "velocity": 57}, {"time": 3720, "pitch": 62, "duration": 3, "velocity": 56}, {"time": 3726, "pitch": 55, "duration": 6, "velocity": 59}, {"time": 3726, "pitch": 67, "duration": 5, "velocity": 58}, {"time": 3738, "pitch": 55, "duration": 2, "velocity": 58}, {"time": 3738, "pitch": 62, "duration": 8, "velocity": 58}, {"time": 3744, "pitch": 55, "duration": 4, "velocity": 58}, {"time": 3756, "pitch": 36, "duration": 2, "velocity": 56}, {"time": 3756, "pitch": 55, "duration": 6, "velocity": 58}, {"time": 3756, "pitch": 60, "duration": 10, "velocity": 55}, {"time": 3768, "pitch": 48, "duration": 25, "velocity": 54}, {"time": 3768, "pitch": 55, "duration": 1, "velocity": 47}, {"time": 3774, "pitch": 55, "duration": 1, "velocity": 38}, {"time": 3774, "pitch": 64, "duration": 8, "velocity": 59}, {"time": 3786, "pitch": 60, "duration": 6, "velocity": 59}, {"time": 3792, "pitch": 55, "duration": 3, "velocity": 59}, {"time": 3804, "pitch": 48, "duration": 48, "velocity": 59}, {"time": 3804, "pitch": 55, "duration": 3, "velocity": 51}, {"time": 3804, "pitch": 60, "duration": 7, "velocity": 53}, {"time": 3810, "pitch": 55, "duration": 6, "velocity": 55}, {"time": 3816, "pitch": 60, "duration": 1, "velocity": 44}, {"time": 3822, "pitch": 55, "duration": 8, "velocity": 60}, {"time": 3822, "pitch": 64, "duration": 9, "velocity": 61}, {"time": 3834, "pitch": 55, "duration": 3, "velocity": 55}, {"time": 3834, "pitch": 60, "duration": 18, "velocity": 57}, {"time": 3840, "pitch": 55, "duration": 11, "velocity": 51}, {"time": 3864, "pitch": 36, "duration": 23, "velocity": 58}, {"time": 3864, "pitch": 55, "duration": 6, "velocity": 58}, {"time": 3864, "pitch": 64, "duration": 8, "velocity": 59}, {"time": 3870, "pitch": 43, "duration": 15, "velocity": 48}, {"time": 3876, "pitch": 55, "duration": 2, "velocity": 67}, {"time": 3882, "pitch": 55, "duration": 4, "velocity": 64}, {"time": 3882, "pitch": 64, "duration": 4, "velocity": 67}, {"time": 3888, "pitch": 43, "duration": 1, "velocity": 59}, {"time": 3894, "pitch": 55, "duration": 3, "velocity": 60}, {"time": 3894, "pitch": 60, "duration": 5, "velocity": 59}, {"time": 3900, "pitch": 55, "duration": 3, "velocity": 59}, {"time": 3912, "pitch": 36, "duration": 36, "velocity": 58}, {"time": 3912, "pitch": 55, "duration": 5, "velocity": 59}, {"time": 3912, "pitch": 60, "duration": 8, "velocity": 59}, {"time": 3918, "pitch": 43, "duration": 15, "velocity": 54}, {"time": 3924, "pitch": 55, "duration": 3, "velocity": 60}, {"time": 3930, "pitch": 55, "duration": 7, "velocity": 59}, {"time": 3930, "pitch": 62, "duration": 7, "velocity": 58}, {"time": 3936, "pitch": 43, "duration": 9, "velocity": 59}, {"time": 3942, "pitch": 60, "duration": 6, "velocity": 67}, {"time": 3948, "pitch": 57, "duration": 3, "velocity": 59}, {"time": 3954, "pitch": 55, "duration": 4, "velocity": 60}, {"time": 3960, "pitch": 38, "duration": 42, "velocity": 60}, {"time": 3960, "pitch": 57, "duration": 7, "velocity": 57}, {"time": 3966, "pitch": 45, "duration": 36, "velocity": 57}, {"time": 3972, "pitch": 50, "duration": 3, "velocity": 55}, {"time": 3978, "pitch": 50, "duration": 16, "velocity": 59}, {"time": 3978, "pitch": 57, "duration": 6, "velocity": 59}, {"time": 3996, "pitch": 62, "duration": 8, "velocity": 63}, {"time": 4002, "pitch": 50, "duration": 4, "velocity": 58}, {"time": 4008, "pitch": 38, "duration": 25, "velocity": 63}, {"time": 4008, "pitch": 50, "duration": 5, "velocity": 39}, {"time": 4008, "pitch": 57, "duration": 14, "velocity": 54}, {"time": 4008, "pitch": 62, "duration": 13, "velocity": 57}, {"time": 4014, "pitch": 45, "duration": 14, "velocity": 48}, {"time": 4020, "pitch": 50, "duration": 3, "velocity": 58}, {"time": 4026, "pitch": 50, "duration": 4, "velocity": 59}, {"time": 4026, "pitch": 57, "duration": 5, "velocity": 58}, {"time": 4026, "pitch": 62, "duration": 8, "velocity": 61}, {"time": 4032, "pitch": 45, "duration": 3, "velocity": 58}, {"time": 4038, "pitch": 38, "duration": 7, "velocity": 62}, {"time": 4044, "pitch": 62, "duration": 6, "velocity": 57}, {"time": 4050, "pitch": 57, "duration": 2, "velocity": 59}, {"time": 4056, "pitch": 43, "duration": 38, "velocity": 60}, {"time": 4056, "pitch": 55, "duration": 7, "velocity": 56}, {"time": 4056, "pitch": 59, "duration": 8, "velocity": 58}, {"time": 4062, "pitch": 50, "duration": 27, "velocity": 50}, {"time": 4068, "pitch": 62, "duration": 4, "velocity": 52}, {"time": 4074, "pitch": 67, "duration": 7, "velocity": 59}, {"time": 4086, "pitch": 55, "duration": 6, "velocity": 56}, {"time": 4086, "pitch": 62, "duration": 8, "velocity": 58}, {"time": 4092, "pitch": 50, "duration": 2, "velocity": 60}, {"time": 4098, "pitch": 55, "duration": 3, "velocity": 58}, {"time": 4104, "pitch": 43, "duration": 36, "velocity": 59}, {"time": 4104, "pitch": 55, "duration": 14, "velocity": 57}, {"time": 4104, "pitch": 59, "duration": 13, "velocity": 55}, {"time": 4110, "pitch": 50, "duration": 16, "velocity": 52}, {"time": 4116, "pitch": 62, "duration": 3, "velocity": 52}, {"time": 4122, "pitch": 55, "duration": 13, "velocity": 58}, {"time": 4122, "pitch": 62, "duration": 18, "velocity": 59}, {"time": 4122, "pitch": 67, "duration": 11, "velocity": 57}, {"time": 4134, "pitch": 50, "duration": 6, "velocity": 56}, {"time": 4140, "pitch": 55, "duration": 3, "velocity": 59}, {"time": 4152, "pitch": 48, "duration": 42, "velocity": 60}, {"time": 4152, "pitch": 55, "duration": 5, "velocity": 59}, {"time": 4152, "pitch": 64, "duration": 13, "velocity": 58}, {"time": 4158, "pitch": 52, "duration": 37, "velocity": 51}, {"time": 4164, "pitch": 55, "duration": 2, "velocity": 60}, {"time": 4170, "pitch": 55, "duration": 5, "velocity": 59}, {"time": 4170, "pitch": 62, "duration": 10, "velocity": 59}, {"time": 4182, "pitch": 60, "duration": 5, "velocity": 59}, {"time": 4188, "pitch": 57, "duration": 2, "velocity": 59}, {"time": 4194, "pitch": 55, "duration": 3, "velocity": 58}, {"time": 4200, "pitch": 48, "duration": 32, "velocity": 64}, {"time": 4200, "pitch": 55, "duration": 6, "velocity": 56}, {"time": 4200, "pitch": 60, "duration": 13, "velocity": 59}, {"time": 4206, "pitch": 52, "duration": 26, "velocity": 59}, {"time": 4212, "pitch": 55, "duration": 3, "velocity": 57}, {"time": 4218, "pitch": 55, "duration": 4, "velocity": 50}, {"time": 4218, "pitch": 62, "duration": 9, "velocity": 60}, {"time": 4230, "pitch": 55, "duration": 5, "velocity": 60}, {"time": 4230, "pitch": 64, "duration": 14, "velocity": 64}, {"time": 4236, "pitch": 52, "duration": 5, "velocity": 59}, {"time": 4242, "pitch": 55, "duration": 4, "velocity": 62}, {"time": 4248, "pitch": 48, "duration": 22, "velocity": 61}, {"time": 4248, "pitch": 55, "duration": 4, "velocity": 59}, {"time": 4248, "pitch": 60, "duration": 7, "velocity": 59}, {"time": 4254, "pitch": 55, "duration": 4, "velocity": 56}, {"time": 4260, "pitch": 60, "duration": 2, "velocity": 50}, {"time": 4266, "pitch": 55, "duration": 8, "velocity": 58}, {"time": 4266, "pitch": 60, "duration": 8, "velocity": 61}, {"time": 4266, "pitch": 64, "duration": 10, "velocity": 61}, {"time": 4278, "pitch": 55, "duration": 4, "velocity": 54}, {"time": 4278, "pitch": 60, "duration": 7, "velocity": 58}, {"time": 4284, "pitch": 55, "duration": 7, "velocity": 59}, {"time": 4296, "pitch": 36, "duration": 2, "velocity": 59}, {"time": 4296, "pitch": 55, "duration": 4, "velocity": 57}, {"time": 4296, "pitch": 60, "duration": 7, "velocity": 53}, {"time": 4302, "pitch": 55, "duration": 7, "velocity": 56}, {"time": 4308, "pitch": 60, "duration": 3, "velocity": 49}, {"time": 4314, "pitch": 55, "duration": 6, "velocity": 58}, {"time": 4314, "pitch": 64, "duration": 7, "velocity": 63}, {"time": 4326, "pitch": 55, "duration": 7, "velocity": 59}, {"time": 4326, "pitch": 60, "duration": 10, "velocity": 61}, {"time": 4332, "pitch": 48, "duration": 2, "velocity": 65}, {"time": 4338, "pitch": 55, "duration": 2, "velocity": 58}, {"time": 4344, "pitch": 38, "duration": 39, "velocity": 60}, {"time": 4344, "pitch": 57, "duration": 5, "velocity": 50}, {"time": 4344, "pitch": 62, "duration": 6, "velocity": 53}, {"time": 4350, "pitch": 45, "duration": 33, "velocity": 57}, {"time": 4356, "pitch": 57, "duration": 2, "velocity": 51}, {"time": 4362, "pitch": 57, "duration": 4, "velocity": 58}, {"time": 4362, "pitch": 65, "duration": 3, "velocity": 59}, {"time": 4374, "pitch": 62, "duration": 5, "velocity": 61}, {"time": 4380, "pitch": 57, "duration": 3, "velocity": 56}, {"time": 4392, "pitch": 38, "duration": 35, "velocity": 61}, {"time": 4392, "pitch": 57, "duration": 6, "velocity": 52}, {"time": 4392, "pitch": 62, "duration": 12, "velocity": 53}, {"time": 4398, "pitch": 45, "duration": 16, "velocity": 51}, {"time": 4404, "pitch": 57, "duration": 1, "velocity": 38}, {"time": 4410, "pitch": 57, "duration": 8, "velocity": 59}, {"time": 4410, "pitch": 65, "duration": 11, "velocity": 59}, {"time": 4416, "pitch": 45, "duration": 9, "velocity": 49}, {"time": 4422, "pitch": 62, "duration": 5, "velocity": 61}, {"time": 4428, "pitch": 57, "duration": 7, "velocity": 59}, {"time": 4434, "pitch": 62, "duration": 2, "velocity": 59}, {"time": 4440, "pitch": 43, "duration": 36, "velocity": 58}, {"time": 4440, "pitch": 55, "duration": 6, "velocity": 62}, {"time": 4446, "pitch": 50, "duration": 31, "velocity": 58}, {"time": 4452, "pitch": 62, "duration": 4, "velocity": 49}, {"time": 4458, "pitch": 55, "duration": 7, "velocity": 56}, {"time": 4458, "pitch": 67, "duration": 7, "velocity": 59}, {"time": 4470, "pitch": 55, "duration": 4, "velocity": 53}, {"time": 4470, "pitch": 62, "duration": 4, "velocity": 54}, {"time": 4488, "pitch": 43, "duration": 34, "velocity": 59}, {"time": 4488, "pitch": 55, "duration": 6, "velocity": 55}, {"time": 4488, "pitch": 59, "duration": 8, "velocity": 55}, {"time": 4494, "pitch": 50, "duration": 27, "velocity": 57}, {"time": 4500, "pitch": 62, "duration": 3, "velocity": 56}, {"time": 4506, "pitch": 55, "duration": 6, "velocity": 59}, {"time": 4506, "pitch": 67, "duration": 5, "velocity": 58}, {"time": 4518, "pitch": 55, "duration": 2, "velocity": 58}, {"time": 4518, "pitch": 62, "duration": 8, "velocity": 58}, {"time": 4524, "pitch": 55, "duration": 4, "velocity": 58}, {"time": 4536, "pitch": 36, "duration": 2, "velocity": 56}, {"time": 4536, "pitch": 55, "duration": 6, "velocity": 58}, {"time": 4536, "pitch": 60, "duration": 10, "velocity": 55}, {"time": 4548, "pitch": 48, "duration": 25, "velocity": 54}, {"time": 4548, "pitch": 55, "duration": 1, "velocity": 47}, {"time": 4554, "pitch": 55, "duration": 1, "velocity": 38}, {"time": 4554, "pitch": 64, "duration": 8, "velocity": 59}, {"time": 4566, "pitch": 60, "duration": 6, "velocity": 59}, {"time": 4572, "pitch": 55, "duration": 3, "velocity": 59}, {"time": 4584, "pitch": 48, "duration": 48, "velocity": 59}, {"time": 4584, "pitch": 55, "duration": 3, "velocity": 51}, {"time": 4584, "pitch": 60, "duration": 7, "velocity": 53}, {"time": 4590, "pitch": 55, "duration": 6, "velocity": 55}, {"time": 4596, "pitch": 60, "duration": 1, "velocity": 44}, {"time": 4602, "pitch": 55, "duration": 8, "velocity": 60}, {"time": 4602, "pitch": 64, "duration": 9, "velocity": 61}, {"time": 4614, "pitch": 55, "duration": 3, "velocity": 55}, {"time": 4614, "pitch": 60, "duration": 18, "velocity": 57}, {"time": 4620, "pitch": 36, "duration": 23, "velocity": 58}, {"time": 4620, "pitch": 55, "duration": 6, "velocity": 51}, {"time": 4620, "pitch": 55, "duration": 6, "velocity": 58}, {"time": 4620, "pitch": 64, "duration": 8, "velocity": 59}, {"time": 4626, "pitch": 43, "duration": 15, "velocity": 48}, {"time": 4632, "pitch": 55, "duration": 2, "velocity": 67}, {"time": 4638, "pitch": 55, "duration": 4, "velocity": 64}, {"time": 4638, "pitch": 64, "duration": 4, "velocity": 67}, {"time": 4644, "pitch": 43, "duration": 1, "velocity": 59}, {"time": 4650, "pitch": 55, "duration": 3, "velocity": 60}, {"time": 4650, "pitch": 60, "duration": 5, "velocity": 59}, {"time": 4656, "pitch": 55, "duration": 3, "velocity": 59}, {"time": 4668, "pitch": 36, "duration": 36, "velocity": 58}, {"time": 4668, "pitch": 55, "duration": 5, "velocity": 59}, {"time": 4668, "pitch": 60, "duration": 8, "velocity": 59}, {"time": 4674, "pitch": 43, "duration": 15, "velocity": 54}, {"time": 4680, "pitch": 55, "duration": 3, "velocity": 60}, {"time": 4686, "pitch": 55, "duration": 7, "velocity": 59}, {"time": 4686, "pitch": 62, "duration": 7, "velocity": 58}, {"time": 4692, "pitch": 43, "duration": 9, "velocity": 59}, {"time": 4698, "pitch": 60, "duration": 6, "velocity": 67}, {"time": 4704, "pitch": 57, "duration": 3, "velocity": 59}, {"time": 4710, "pitch": 55, "duration": 4, "velocity": 60}, {"time": 4716, "pitch": 38, "duration": 42, "velocity": 60}, {"time": 4716, "pitch": 57, "duration": 7, "velocity": 57}, {"time": 4722, "pitch": 45, "duration": 36, "velocity": 57}, {"time": 4728, "pitch": 50, "duration": 3, "velocity": 55}, {"time": 4734, "pitch": 50, "duration": 16, "velocity": 59}, {"time": 4734, "pitch": 57, "duration": 6, "velocity": 59}, {"time": 4752, "pitch": 62, "duration": 8, "velocity": 63}, {"time": 4758, "pitch": 50, "duration": 4, "velocity": 58}, {"time": 4764, "pitch": 38, "duration": 25, "velocity": 63}, {"time": 4764, "pitch": 50, "duration": 5, "velocity": 39}, {"time": 4764, "pitch": 57, "duration": 14, "velocity": 54}, {"time": 4764, "pitch": 62, "duration": 13, "velocity": 57}, {"time": 4770, "pitch": 45, "duration": 14, "velocity": 48}, {"time": 4776, "pitch": 50, "duration": 3, "velocity": 58}, {"time": 4782, "pitch": 50, "duration": 4, "velocity": 59}, {"time": 4782, "pitch": 57, "duration": 5, "velocity": 58}, {"time": 4782, "pitch": 62, "duration": 8, "velocity": 61}, {"time": 4788, "pitch": 45, "duration": 3, "velocity": 58}, {"time": 4794, "pitch": 38, "duration": 7, "velocity": 62}, {"time": 4800, "pitch": 62, "duration": 6, "velocity": 57}, {"time": 4806, "pitch": 57, "duration": 2, "velocity": 59}, {"time": 4812, "pitch": 43, "duration": 38, "velocity": 60}, {"time": 4812, "pitch": 55, "duration": 7, "velocity": 56}, {"time": 4812, "pitch": 59, "duration": 8, "velocity": 58}, {"time": 4818, "pitch": 50, "duration": 27, "velocity": 50}, {"time": 4824, "pitch": 62, "duration": 4, "velocity": 52}, {"time": 4830, "pitch": 67, "duration": 7, "velocity": 59}, {"time": 4842, "pitch": 55, "duration": 6, "velocity": 56}, {"time": 4842, "pitch": 62, "duration": 8, "velocity": 58}, {"time": 4848, "pitch": 50, "duration": 2, "velocity": 60}, {"time": 4854, "pitch": 55, "duration": 3, "velocity": 58}, {"time": 4860, "pitch": 43, "duration": 36, "velocity": 59}, {"time": 4860, "pitch": 55, "duration": 14, "velocity": 57}, {"time": 4860, "pitch": 59, "duration": 13, "velocity": 55}, {"time": 4866, "pitch": 50, "duration": 16, "velocity": 52}, {"time": 4872, "pitch": 62, "duration": 3, "velocity": 52}, {"time": 4878, "pitch": 55, "duration": 13, "velocity": 58}, {"time": 4878, "pitch": 62, "duration": 18, "velocity": 59}, {"time": 4878, "pitch": 67, "duration": 11, "velocity": 57}, {"time": 4890, "pitch": 50, "duration": 6, "velocity": 56}, {"time": 4896, "pitch": 55, "duration": 3, "velocity": 59}, {"time": 4908, "pitch": 48, "duration": 42, "velocity": 60}, {"time": 4908, "pitch": 55, "duration": 5, "velocity": 59}, {"time": 4908, "pitch": 64, "duration": 13, "velocity": 58}, {"time": 4914, "pitch": 52, "duration": 37, "velocity": 51}, {"time": 4920, "pitch": 55, "duration": 2, "velocity": 60}, {"time": 4926, "pitch": 55, "duration": 5, "velocity": 59}, {"time": 4926, "pitch": 62, "duration": 10, "velocity": 59}, {"time": 4938, "pitch": 60, "duration": 5, "velocity": 59}, {"time": 4944, "pitch": 57, "duration": 2, "velocity": 59}, {"time": 4950, "pitch": 55, "duration": 3, "velocity": 58}, {"time": 4956, "pitch": 48, "duration": 32, "velocity": 64}, {"time": 4956, "pitch": 55, "duration": 6, "velocity": 56}, {"time": 4956, "pitch": 60, "duration": 13, "velocity": 59}, {"time": 4962, "pitch": 52, "duration": 26, "velocity": 59}, {"time": 4968, "pitch": 55, "duration": 3, "velocity": 57}, {"time": 4974, "pitch": 55, "duration": 4, "velocity": 50}, {"time": 4974, "pitch": 62, "duration": 9, "velocity": 60}, {"time": 4986, "pitch": 55, "duration": 5, "velocity": 60}, {"time": 4986, "pitch": 64, "duration": 14, "velocity": 64}, {"time": 4992, "pitch": 52, "duration": 5, "velocity": 59}, {"time": 4998, "pitch": 55, "duration": 4, "velocity": 62}, {"time": 5004, "pitch": 48, "duration": 22, "velocity": 61}, {"time": 5004, "pitch": 55, "duration": 4, "velocity": 59}, {"time": 5004, "pitch": 60, "duration": 7, "velocity": 59}, {"time": 5010, "pitch": 55, "duration": 4, "velocity": 56}, {"time": 5016, "pitch": 60, "duration": 2, "velocity": 50}, {"time": 5022, "pitch": 55, "duration": 8, "velocity": 58}, {"time": 5022, "pitch": 60, "duration": 8, "velocity": 61}, {"time": 5022, "pitch": 64, "duration": 10, "velocity": 61}, {"time": 5034, "pitch": 55, "duration": 4, "velocity": 54}, {"time": 5034, "pitch": 60, "duration": 7, "velocity": 58}, {"time": 5040, "pitch": 55, "duration": 7, "velocity": 59}, {"time": 5052, "pitch": 36, "duration": 2, "velocity": 59}, {"time": 5052, "pitch": 55, "duration": 4, "velocity": 57}, {"time": 5052, "pitch": 60, "duration": 7, "velocity": 53}, {"time": 5058, "pitch": 55, "duration": 7, "velocity": 56}, {"time": 5064, "pitch": 60, "duration": 3, "velocity": 49}, {"time": 5070, "pitch": 55, "duration": 6, "velocity": 58}, {"time": 5070, "pitch": 64, "duration": 7, "velocity": 63}, {"time": 5082, "pitch": 55, "duration": 7, "velocity": 59}, {"time": 5082, "pitch": 60, "duration": 10, "velocity": 61}, {"time": 5088, "pitch": 48, "duration": 2, "velocity": 65}, {"time": 5094, "pitch": 55, "duration": 2, "velocity": 58}, {"time": 5100, "pitch": 38, "duration": 39, "velocity": 60}, {"time": 5100, "pitch": 57, "duration": 5, "velocity": 50}, {"time": 5100, "pitch": 62, "duration": 6, "velocity": 53}, {"time": 5106, "pitch": 45, "duration": 33, "velocity": 57}, {"time": 5112, "pitch": 57, "duration": 2, "velocity": 51}, {"time": 5118, "pitch": 57, "duration": 4, "velocity": 58}, {"time": 5118, "pitch": 65, "duration": 3, "velocity": 59}, {"time": 5130, "pitch": 62, "duration": 5, "velocity": 61}, {"time": 5136, "pitch": 57, "duration": 3, "velocity": 56}, {"time": 5148, "pitch": 38, "duration": 35, "velocity": 61}, {"time": 5148, "pitch": 57, "duration": 6, "velocity": 52}, {"time": 5148, "pitch": 62, "duration": 12, "velocity": 53}, {"time": 5154, "pitch": 45, "duration": 16, "velocity": 51}, {"time": 5160, "pitch": 57, "duration": 1, "velocity": 38}, {"time": 5166, "pitch": 57, "duration": 8, "velocity": 59}, {"time": 5166, "pitch": 65, "duration": 11, "velocity": 59}, {"time": 5172, "pitch": 45, "duration": 9, "velocity": 49}, {"time": 5178, "pitch": 62, "duration": 5, "velocity": 61}, {"time": 5184, "pitch": 57, "duration": 7, "velocity": 59}, {"time": 5190, "pitch": 62, "duration": 2, "velocity": 59}, {"time": 5196, "pitch": 43, "duration": 36, "velocity": 58}, {"time": 5196, "pitch": 55, "duration": 6, "velocity": 62}, {"time": 5202, "pitch": 50, "duration": 31, "velocity": 58}, {"time": 5208, "pitch": 62, "duration": 4, "velocity": 49}, {"time": 5214, "pitch": 55, "duration": 7, "velocity": 56}, {"time": 5214, "pitch": 67, "duration": 7, "velocity": 59}, {"time": 5226, "pitch": 55, "duration": 4, "velocity": 53}, {"time": 5226, "pitch": 62, "duration": 4, "velocity": 54}, {"time": 5244, "pitch": 43, "duration": 34, "velocity": 59}, {"time": 5244, "pitch": 55, "duration": 6, "velocity": 55}, {"time": 5244, "pitch": 59, "duration": 8, "velocity": 55}, {"time": 5250, "pitch": 50, "duration": 27, "velocity": 57}, {"time": 5256, "pitch": 62, "duration": 3, "velocity": 56}, {"time": 5262, "pitch": 55, "duration": 6, "velocity": 59}, {"time": 5262, "pitch": 67, "duration": 5, "velocity": 58}, {"time": 5274, "pitch": 55, "duration": 2, "velocity": 58}, {"time": 5274, "pitch": 62, "duration": 8, "velocity": 58}, {"time": 5280, "pitch": 55, "duration": 4, "velocity": 58}, {"time": 5292, "pitch": 36, "duration": 2, "velocity": 56}, {"time": 5292, "pitch": 55, "duration": 6, "velocity": 58}, {"time": 5292, "pitch": 60, "duration": 10, "velocity": 55}, {"time": 5304, "pitch": 48, "duration": 25, "velocity": 54}, {"time": 5304, "pitch": 55, "duration": 1, "velocity": 47}, {"time": 5310, "pitch": 55, "duration": 1, "velocity": 38}, {"time": 5310, "pitch": 64, "duration": 8, "velocity": 59}, {"time": 5322, "pitch": 60, "duration": 6, "velocity": 59}, {"time": 5328, "pitch": 55, "duration": 3, "velocity": 59}, {"time": 5340, "pitch": 48, "duration": 48, "velocity": 59}, {"time": 5340, "pitch": 55, "duration": 3, "velocity": 51}, {"time": 5340, "pitch": 60, "duration": 7, "velocity": 53}, {"time": 5346, "pitch": 55, "duration": 6, "velocity": 55}, {"time": 5352, "pitch": 60, "duration": 1, "velocity": 44}, {"time": 5358, "pitch": 55, "duration": 8, "velocity": 60}, {"time": 5358, "pitch": 64, "duration": 9, "velocity": 61}, {"time": 5370, "pitch": 55, "duration": 3, "velocity": 55}, {"time": 5370, "pitch": 60, "duration": 18, "velocity": 57}, {"time": 5376, "pitch": 55, "duration": 11, "velocity": 51}, {"time": 5388, "pitch": 36, "duration": 23, "velocity": 58}, {"time": 5388, "pitch": 55, "duration": 6, "velocity": 58}, {"time": 5388, "pitch": 64, "duration": 8, "velocity": 59}, {"time": 5394, "pitch": 43, "duration": 15, "velocity": 48}, {"time": 5400, "pitch": 55, "duration": 2, "velocity": 67}, {"time": 5406, "pitch": 55, "duration": 4, "velocity": 64}, {"time": 5406, "pitch": 64, "duration": 4, "velocity": 67}, {"time": 5412, "pitch": 43, "duration": 1, "velocity": 59}, {"time": 5418, "pitch": 55, "duration": 3, "velocity": 60}, {"time": 5418, "pitch": 60, "duration": 5, "velocity": 59}, {"time": 5424, "pitch": 55, "duration": 3, "velocity": 59}, {"time": 5436, "pitch": 36, "duration": 36, "velocity": 58}, {"time": 5436, "pitch": 55, "duration": 5, "velocity": 59}, {"time": 5436, "pitch": 60, "duration": 8, "velocity": 59}, {"time": 5442, "pitch": 43, "duration": 15, "velocity": 54}, {"time": 5448, "pitch": 55, "duration": 3, "velocity": 60}, {"time": 5454, "pitch": 55, "duration": 7, "velocity": 59}, {"time": 5454, "pitch": 62, "duration": 7, "velocity": 58}, {"time": 5460, "pitch": 43, "duration": 9, "velocity": 59}, {"time": 5466, "pitch": 60, "duration": 6, "velocity": 67}, {"time": 5472, "pitch": 57, "duration": 3, "velocity": 59}, {"time": 5478, "pitch": 55, "duration": 4, "velocity": 60}, {"time": 5484, "pitch": 38, "duration": 42, "velocity": 60}, {"time": 5484, "pitch": 57, "duration": 7, "velocity": 57}, {"time": 5490, "pitch": 45, "duration": 36, "velocity": 57}, {"time": 5496, "pitch": 50, "duration": 3, "velocity": 55}, {"time": 5502, "pitch": 50, "duration": 16, "velocity": 59}, {"time": 5502, "pitch": 57, "duration": 6, "velocity": 59}, {"time": 5520, "pitch": 62, "duration": 8, "velocity": 63}, {"time": 5526, "pitch": 50, "duration": 4, "velocity": 58}, {"time": 5532, "pitch": 38, "duration": 25, "velocity": 63}, {"time": 5532, "pitch": 50, "duration": 5, "velocity": 39}, {"time": 5532, "pitch": 57, "duration": 14, "velocity": 54}, {"time": 5532, "pitch": 62, "duration": 13, "velocity": 57}, {"time": 5538, "pitch": 45, "duration": 14, "velocity": 48}, {"time": 5544, "pitch": 50, "duration": 3, "velocity": 58}, {"time": 5550, "pitch": 50, "duration": 4, "velocity": 59}, {"time": 5550, "pitch": 57, "duration": 5, "velocity": 58}, {"time": 5550, "pitch": 62, "duration": 8, "velocity": 61}, {"time": 5556, "pitch": 45, "duration": 3, "velocity": 58}, {"time": 5562, "pitch": 38, "duration": 7, "velocity": 62}, {"time": 5568, "pitch": 62, "duration": 6, "velocity": 57}, {"time": 5574, "pitch": 57, "duration": 2, "velocity": 59}, {"time": 5580, "pitch": 43, "duration": 38, "velocity": 60}, {"time": 5580, "pitch": 55, "duration": 7, "velocity": 56}, {"time": 5580, "pitch": 59, "duration": 8, "velocity": 58}, {"time": 5586, "pitch": 50, "duration": 27, "velocity": 50}, {"time": 5592, "pitch": 62, "duration": 4, "velocity": 52}, {"time": 5598, "pitch": 67, "duration": 7, "velocity": 59}, {"time": 5610, "pitch": 55, "duration": 6, "velocity": 56}, {"time": 5610, "pitch": 62, "duration": 8, "velocity": 58}, {"time": 5616, "pitch": 50, "duration": 2, "velocity": 60}, {"time": 5622, "pitch": 55, "duration": 3, "velocity": 58}, {"time": 5628, "pitch": 43, "duration": 36, "velocity": 59}, {"time": 5628, "pitch": 55, "duration": 14, "velocity": 57}, {"time": 5628, "pitch": 59, "duration": 13, "velocity": 55}, {"time": 5634, "pitch": 50, "duration": 16, "velocity": 52}, {"time": 5640, "pitch": 62, "duration": 3, "velocity": 52}, {"time": 5646, "pitch": 55, "duration": 13, "velocity": 58}, {"time": 5646, "pitch": 62, "duration": 18, "velocity": 59}, {"time": 5646, "pitch": 67, "duration": 11, "velocity": 57}, {"time": 5658, "pitch": 50, "duration": 6, "velocity": 56}, {"time": 5664, "pitch": 55, "duration": 3, "velocity": 59}, {"time": 5676, "pitch": 48, "duration": 42, "velocity": 60}, {"time": 5676, "pitch": 55, "duration": 5, "velocity": 59}, {"time": 5676, "pitch": 64, "duration": 13, "velocity": 58}, {"time": 5682, "pitch": 52, "duration": 37, "velocity": 51}, {"time": 5688, "pitch": 55, "duration": 2, "velocity": 60}, {"time": 5694, "pitch": 55, "duration": 5, "velocity": 59}, {"time": 5694, "pitch": 62, "duration": 10, "velocity": 59}, {"time": 5706, "pitch": 60, "duration": 5, "velocity": 59}, {"time": 5712, "pitch": 57, "duration": 2, "velocity": 59}, {"time": 5718, "pitch": 55, "duration": 3, "velocity": 58}, {"time": 5724, "pitch": 48, "duration": 32, "velocity": 64}, {"time": 5724, "pitch": 55, "duration": 6, "velocity": 56}, {"time": 5724, "pitch": 60, "duration": 13, "velocity": 59}, {"time": 5730, "pitch": 52, "duration": 26, "velocity": 59}, {"time": 5736, "pitch": 55, "duration": 3, "velocity": 57}, {"time": 5742, "pitch": 55, "duration": 4, "velocity": 50}, {"time": 5742, "pitch": 62, "duration": 9, "velocity": 60}, {"time": 5754, "pitch": 55, "duration": 5, "velocity": 60}, {"time": 5754, "pitch": 64, "duration": 14, "velocity": 64}, {"time": 5760, "pitch": 52, "duration": 5, "velocity": 59}, {"time": 5766, "pitch": 55, "duration": 4, "velocity": 62}, {"time": 5772, "pitch": 48, "duration": 22, "velocity": 61}, {"time": 5772, "pitch": 55, "duration": 4, "velocity": 59}, {"time": 5772, "pitch": 60, "duration": 7, "velocity": 59}, {"time": 5778, "pitch": 55, "duration": 4, "velocity": 56}, {"time": 5784, "pitch": 60, "duration": 2, "velocity": 50}, {"time": 5790, "pitch": 55, "duration": 8, "velocity": 58}, {"time": 5790, "pitch": 60, "duration": 8, "velocity": 61}, {"time": 5790, "pitch": 64, "duration": 10, "velocity": 61}, {"time": 5802, "pitch": 55, "duration": 4, "velocity": 54}, {"time": 5802, "pitch": 60, "duration": 7, "velocity": 58}, {"time": 5808, "pitch": 55, "duration": 7, "velocity": 59}, {"time": 5820, "pitch": 36, "duration": 2, "velocity": 59}, {"time": 5820, "pitch": 55, "duration": 4, "velocity": 57}, {"time": 5820, "pitch": 60, "duration": 7, "velocity": 53}, {"time": 5826, "pitch": 55, "duration": 7, "velocity": 56}, {"time": 5832, "pitch": 60, "duration": 3, "velocity": 49}, {"time": 5838, "pitch": 55, "duration": 6, "velocity": 58}, {"time": 5838, "pitch": 64, "duration": 7, "velocity": 63}, {"time": 5850, "pitch": 55, "duration": 7, "velocity": 59}, {"time": 5850, "pitch": 60, "duration": 10, "velocity": 61}, {"time": 5856, "pitch": 48, "duration": 2, "velocity": 65}, {"time": 5862, "pitch": 55, "duration": 2, "velocity": 58}, {"time": 5868, "pitch": 38, "duration": 39, "velocity": 60}, {"time": 5868, "pitch": 57, "duration": 5, "velocity": 50}, {"time": 5868, "pitch": 62, "duration": 6, "velocity": 53}, {"time": 5874, "pitch": 45, "duration": 33, "velocity": 57}, {"time": 5880, "pitch": 57, "duration": 2, "velocity": 51}, {"time": 5886, "pitch": 57, "duration": 4, "velocity": 58}, {"time": 5886, "pitch": 65, "duration": 3, "velocity": 59}, {"time": 5898, "pitch": 62, "duration": 5, "velocity": 61}, {"time": 5904, "pitch": 57, "duration": 3, "velocity": 56}, {"time": 5916, "pitch": 38, "duration": 35, "velocity": 61}, {"time": 5916, "pitch": 57, "duration": 6, "velocity": 52}, {"time": 5916, "pitch": 62, "duration": 12, "velocity": 53}, {"time": 5922, "pitch": 45, "duration": 16, "velocity": 51}, {"time": 5928, "pitch": 57, "duration": 1, "velocity": 38}, {"time": 5934, "pitch": 57, "duration": 8, "velocity": 59}, {"time": 5934, "pitch": 65, "duration": 11, "velocity": 59}, {"time": 5940, "pitch": 45, "duration": 9, "velocity": 49}, {"time": 5946, "pitch": 62, "duration": 5, "velocity": 61}, {"time": 5952, "pitch": 57, "duration": 7, "velocity": 59}, {"time": 5958, "pitch": 62, "duration": 2, "velocity": 59}, {"time": 5964, "pitch": 43, "duration": 36, "velocity": 58}, {"time": 5964, "pitch": 55, "duration": 6, "velocity": 62}, {"time": 5970, "pitch": 50, "duration": 31, "velocity": 58}, {"time": 5976, "pitch": 62, "duration": 4, "velocity": 49}, {"time": 5982, "pitch": 55, "duration": 7, "velocity": 56}, {"time": 5982, "pitch": 67, "duration": 7, "velocity": 59}, {"time": 5994, "pitch": 55, "duration": 4, "velocity": 53}, {"time": 5994, "pitch": 62, "duration": 4, "velocity": 54}, {"time": 6012, "pitch": 43, "duration": 34, "velocity": 59}, {"time": 6012, "pitch": 55, "duration": 6, "velocity": 55}, {"time": 6012, "pitch": 59, "duration": 8, "velocity": 55}, {"time": 6018, "pitch": 50, "duration": 27, "velocity": 57}, {"time": 6024, "pitch": 62, "duration": 3, "velocity": 56}, {"time": 6030, "pitch": 55, "duration": 6, "velocity": 59}, {"time": 6030, "pitch": 67, "duration": 5, "velocity": 58}, {"time": 6042, "pitch": 55, "duration": 2, "velocity": 58}, {"time": 6042, "pitch": 62, "duration": 8, "velocity": 58}, {"time": 6048, "pitch": 55, "duration": 4, "velocity": 58}, {"time": 6060, "pitch": 36, "duration": 2, "velocity": 56}, {"time": 6060, "pitch": 55, "duration": 6, "velocity": 58}, {"time": 6060, "pitch": 60, "duration": 10, "velocity": 55}, {"time": 6072, "pitch": 48, "duration": 25, "velocity": 54}, {"time": 6072, "pitch": 55, "duration": 1, "velocity": 47}, {"time": 6078, "pitch": 55, "duration": 1, "velocity": 38}, {"time": 6078, "pitch": 64, "duration": 8, "velocity": 59}, {"time": 6090, "pitch": 60, "duration": 6, "velocity": 59}, {"time": 6096, "pitch": 55, "duration": 3, "velocity": 59}, {"time": 6105, "pitch": 48, "duration": 45, "velocity": 48}, {"time": 6106, "pitch": 36, "duration": 44, "velocity": 52}, {"time": 6107, "pitch": 52, "duration": 43, "velocity": 48}, {"time": 6108, "pitch": 55, "duration": 43, "velocity": 46}], "annotations": [{"time": 115, "annotation": {"number": 64, "value": 127}, "group": "control_change"}, {"time": 155, "annotation": {"number": 64, "value": 0}, "group": "control_change"}, {"time": 161, "annotation": {"number": 64, "value": 127}, "group": "control_change"}, {"time": 202, "annotation": {"number": 64, "value": 0}, "group": "control_change"}, {"time": 205, "annotation": {"number": 64, "value": 127}, "group": "control_change"}, {"time": 226, "annotation": {"number": 64, "value": 0}, "group": "control_change"}, {"time": 227, "annotation": {"number": 64, "value": 127}, "group": "control_change"}, {"time": 252, "annotation": {"number": 64, "value": 0}, "group": "control_change"}, {"time": 257, "annotation": {"number": 64, "value": 127}, "group": "control_change"}, {"time": 275, "annotation": {"number": 64, "value": 0}, "group": "control_change"}, {"time": 278, "annotation": {"number": 64, "value": 127}, "group": "control_change"}, {"time": 296, "annotation": {"number": 64, "value": 0}, "group": "control_change"}, {"time": 300, "annotation": {"number": 64, "value": 127}, "group": "control_change"}, {"time": 345, "annotation": {"number": 64, "value": 0}, "group": "control_change"}, {"time": 347, "annotation": {"number": 64, "value": 127}, "group": "control_change"}, {"time": 369, "annotation": {"number": 64, "value": 0}, "group": "control_change"}, {"time": 371, "annotation": {"number": 64, "value": 127}, "group": "control_change"}, {"time": 393, "annotation": {"number": 64, "value": 0}, "group": "control_change"}, {"time": 400, "annotation": {"number": 64, "value": 127}, "group": "control_change"}, {"time": 442, "annotation": {"number": 64, "value": 0}, "group": "control_change"}, {"time": 445, "annotation": {"number": 64, "value": 127}, "group": "control_change"}, {"time": 490, "annotation": {"number": 64, "value": 0}, "group": "control_change"}, {"time": 494, "annotation": {"number": 64, "value": 127}, "group": "control_change"}, {"time": 540, "annotation": {"number": 64, "value": 0}, "group": "control_change"}, {"time": 542, "annotation": {"number": 64, "value": 127}, "group": "control_change"}, {"time": 586, "annotation": {"number": 64, "value": 0}, "group": "control_change"}, {"time": 591, "annotation": {"number": 64, "value": 127}, "group": "control_change"}, {"time": 634, "annotation": {"number": 64, "value": 0}, "group": "control_change"}, {"time": 638, "annotation": {"number": 64, "value": 127}, "group": "control_change"}, {"time": 638, "annotation": {"number": 64, "value": 0}, "group": "control_change"}, {"time": 639, "annotation": {"number": 64, "value": 127}, "group": "control_change"}, {"time": 680, "annotation": {"number": 64, "value": 0}, "group": "control_change"}, {"time": 685, "annotation": {"number": 64, "value": 127}, "group": "control_change"}, {"time": 729, "annotation": {"number": 64, "value": 0}, "group": "control_change"}, {"time": 734, "annotation": {"number": 64, "value": 127}, "group": "control_change"}, {"time": 777, "annotation": {"number": 64, "value": 0}, "group": "control_change"}, {"time": 782, "annotation": {"number": 64, "value": 127}, "group": "control_change"}, {"time": 825, "annotation": {"number": 64, "value": 0}, "group": "control_change"}, {"time": 829, "annotation": {"number": 64, "value": 127}, "group": "control_change"}, {"time": 873, "annotation": {"number": 64, "value": 0}, "group": "control_change"}, {"time": 877, "annotation": {"number": 64, "value": 127}, "group": "control_change"}, {"time": 922, "annotation": {"number": 64, "value": 0}, "group": "control_change"}, {"time": 926, "annotation": {"number": 64, "value": 127}, "group": "control_change"}, {"time": 970, "annotation": {"number": 64, "value": 0}, "group": "control_change"}, {"time": 975, "annotation": {"number": 64, "value": 127}, "group": "control_change"}, {"time": 1015, "annotation": {"number": 64, "value": 0}, "group": "control_change"}, {"time": 1024, "annotation": {"number": 64, "value": 127}, "group": "control_change"}, {"time": 1024, "annotation": {"number": 64, "value": 0}, "group": "control_change"}, {"time": 1063, "annotation": {"number": 64, "value": 0}, "group": "control_change"}, {"time": 1068, "annotation": {"number": 64, "value": 127}, "group": "control_change"}, {"time": 1111, "annotation": {"number": 64, "value": 0}, "group": "control_change"}, {"time": 1115, "annotation": {"number": 64, "value": 127}, "group": "control_change"}, {"time": 1160, "annotation": {"number": 64, "value": 0}, "group": "control_change"}, {"time": 1163, "annotation": {"number": 64, "value": 127}, "group": "control_change"}, {"time": 1208, "annotation": {"number": 64, "value": 0}, "group": "control_change"}, {"time": 1212, "annotation": {"number": 64, "value": 127}, "group": "control_change"}, {"time": 1256, "annotation": {"number": 64, "value": 0}, "group": "control_change"}, {"time": 1260, "annotation": {"number": 64, "value": 127}, "group": "control_change"}, {"time": 1303, "annotation": {"number": 64, "value": 0}, "group": "control_change"}, {"time": 1307, "annotation": {"number": 64, "value": 127}, "group": "control_change"}, {"time": 1352, "annotation": {"number": 64, "value": 0}, "group": "control_change"}, {"time": 1356, "annotation": {"number": 64, "value": 127}, "group": "control_change"}, {"time": 1402, "annotation": {"number": 64, "value": 0}, "group": "control_change"}, {"time": 1408, "annotation": {"number": 64, "value": 127}, "group": "control_change"}, {"time": 1448, "annotation": {"number": 64, "value": 0}, "group": "control_change"}, {"time": 1452, "annotation": {"number": 64, "value": 127}, "group": "control_change"}, {"time": 1494, "annotation": {"number": 64, "value": 0}, "group": "control_change"}, {"time": 1498, "annotation": {"number": 64, "value": 127}, "group": "control_change"}, {"time": 1543, "annotation": {"number": 64, "value": 0}, "group": "control_change"}, {"time": 1548, "annotation": {"number": 64, "value": 127}, "group": "control_change"}, {"time": 1592, "annotation": {"number": 64, "value": 0}, "group": "control_change"}, {"time": 1595, "annotation": {"number": 64, "value": 127}, "group": "control_change"}, {"time": 1640, "annotation": {"number": 64, "value": 0}, "group": "control_change"}, {"time": 1644, "annotation": {"number": 64, "value": 127}, "group": "control_change"}, {"time": 1688, "annotation": {"number": 64, "value": 0}, "group": "control_change"}, {"time": 1692, "annotation": {"number": 64, "value": 127}, "group": "control_change"}, {"time": 1738, "annotation": {"number": 64, "value": 0}, "group": "control_change"}, {"time": 1742, "annotation": {"number": 64, "value": 127}, "group": "control_change"}, {"time": 1785, "annotation": {"number": 64, "value": 0}, "group": "control_change"}, {"time": 1790, "annotation": {"number": 64, "value": 127}, "group": "control_change"}, {"time": 1832, "annotation": {"number": 64, "value": 0}, "group": "control_change"}, {"time": 1835, "annotation": {"number": 64, "value": 127}, "group": "control_change"}, {"time": 1881, "annotation": {"number": 64, "value": 0}, "group": "control_change"}, {"time": 1885, "annotation": {"number": 64, "value": 127}, "group": "control_change"}, {"time": 1920, "annotation": {"number": 64, "value": 0}, "group": "control_change"}, {"time": 1935, "annotation": {"number": 64, "value": 127}, "group": "control_change"}, {"time": 1935, "annotation": {"number": 64, "value": 0}, "group": "control_change"}, {"time": 1978, "annotation": {"number": 64, "value": 0}, "group": "control_change"}, {"time": 1985, "annotation": {"number": 64, "value": 127}, "group": "control_change"}, {"time": 2025, "annotation": {"number": 64, "value": 0}, "group": "control_change"}, {"time": 2029, "annotation": {"number": 64, "value": 127}, "group": "control_change"}, {"time": 2076, "annotation": {"number": 64, "value": 0}, "group": "control_change"}, {"time": 2079, "annotation": {"number": 64, "value": 127}, "group": "control_change"}, {"time": 2120, "annotation": {"number": 64, "value": 0}, "group": "control_change"}, {"time": 2126, "annotation": {"number": 64, "value": 127}, "group": "control_change"}, {"time": 2171, "annotation": {"number": 64, "value": 0}, "group": "control_change"}, {"time": 2176, "annotation": {"number": 64, "value": 127}, "group": "control_change"}, {"time": 2218, "annotation": {"number": 64, "value": 0}, "group": "control_change"}, {"time": 2219, "annotation": {"number": 64, "value": 127}, "group": "control_change"}, {"time": 2266, "annotation": {"number": 64, "value": 0}, "group": "control_change"}, {"time": 2269, "annotation": {"number": 64, "value": 127}, "group": "control_change"}, {"time": 2304, "annotation": {"number": 64, "value": 0}, "group": "control_change"}, {"time": 2313, "annotation": {"number": 64, "value": 0}, "group": "control_change"}, {"time": 2320, "annotation": {"number": 64, "value": 127}, "group": "control_change"}, {"time": 2362, "annotation": {"number": 64, "value": 0}, "group": "control_change"}, {"time": 2365, "annotation": {"number": 64, "value": 127}, "group": "control_change"}, {"time": 2410, "annotation": {"number": 64, "value": 0}, "group": "control_change"}, {"time": 2414, "annotation": {"number": 64, "value": 127}, "group": "control_change"}, {"time": 2460, "annotation": {"number": 64, "value": 0}, "group": "control_change"}, {"time": 2462, "annotation": {"number": 64, "value": 127}, "group": "control_change"}, {"time": 2506, "annotation": {"number": 64, "value": 0}, "group": "control_change"}, {"time": 2511, "annotation": {"number": 64, "value": 127}, "group": "control_change"}, {"time": 2554, "annotation": {"number": 64, "value": 0}, "group": "control_change"}, {"time": 2558, "annotation": {"number": 64, "value": 127}, "group": "control_change"}, {"time": 2558, "annotation": {"number": 64, "value": 0}, "group": "control_change"}, {"time": 2559, "annotation": {"number": 64, "value": 127}, "group": "control_change"}, {"time": 2600, "annotation": {"number": 64, "value": 0}, "group": "control_change"}, {"time": 2605, "annotation": {"number": 64, "value": 127}, "group": "control_change"}, {"time": 2649, "annotation": {"number": 64, "value": 0}, "group": "control_change"}, {"time": 2654, "annotation": {"number": 64, "value": 127}, "group": "control_change"}, {"time": 2697, "annotation": {"number": 64, "value": 0}, "group": "control_change"}, {"time": 2702, "annotation": {"number": 64, "value": 127}, "group": "control_change"}, {"time": 2745, "annotation": {"number": 64, "value": 0}, "group": "control_change"}, {"time": 2749, "annotation": {"number": 64, "value": 127}, "group": "control_change"}, {"time": 2793, "annotation": {"number": 64, "value": 0}, "group": "control_change"}, {"time": 2797, "annotation": {"number": 64, "value": 127}, "group": "control_change"}, {"time": 2842, "annotation": {"number": 64, "value": 0}, "group": "control_change"}, {"time": 2846, "annotation": {"number": 64, "value": 127}, "group": "control_change"}, {"time": 2890, "annotation": {"number": 64, "value": 0}, "group": "control_change"}, {"time": 2895, "annotation": {"number": 64, "value": 127}, "group": "control_change"}, {"time": 2935, "annotation": {"number": 64, "value": 0}, "group": "control_change"}, {"time": 2944, "annotation": {"number": 64, "value": 127}, "group": "control_change"}, {"time": 2944, "annotation": {"number": 64, "value": 0}, "group": "control_change"}, {"time": 2983, "annotation": {"number": 64, "value": 0}, "group": "control_change"}, {"time": 2988, "annotation": {"number": 64, "value": 127}, "group": "control_change"}, {"time": 3031, "annotation": {"number": 64, "value": 0}, "group": "control_change"}, {"time": 3035, "annotation": {"number": 64, "value": 127}, "group": "control_change"}, {"time": 3080, "annotation": {"number": 64, "value": 0}, "group": "control_change"}, {"time": 3083, "annotation": {"number": 64, "value": 127}, "group": "control_change"}, {"time": 3128, "annotation": {"number": 64, "value": 0}, "group": "control_change"}, {"time": 3132, "annotation": {"number": 64, "value": 127}, "group": "control_change"}, {"time": 3176, "annotation": {"number": 64, "value": 0}, "group": "control_change"}, {"time": 3180, "annotation": {"number": 64, "value": 127}, "group": "control_change"}, {"time": 3223, "annotation": {"number": 64, "value": 0}, "group": "control_change"}, {"time": 3227, "annotation": {"number": 64, "value": 127}, "group": "control_change"}, {"time": 3272, "annotation": {"number": 64, "value": 0}, "group": "control_change"}, {"time": 3276, "annotation": {"number": 64, "value": 127}, "group": "control_change"}, {"time": 3322, "annotation": {"number": 64, "value": 0}, "group": "control_change"}, {"time": 3328, "annotation": {"number": 64, "value": 127}, "group": "control_change"}, {"time": 3368, "annotation": {"number": 64, "value": 0}, "group": "control_change"}, {"time": 3372, "annotation": {"number": 64, "value": 127}, "group": "control_change"}, {"time": 3414, "annotation": {"number": 64, "value": 0}, "group": "control_change"}, {"time": 3418, "annotation": {"number": 64, "value": 127}, "group": "control_change"}, {"time": 3463, "annotation": {"number": 64, "value": 0}, "group": "control_change"}, {"time": 3468, "annotation": {"number": 64, "value": 127}, "group": "control_change"}, {"time": 3512, "annotation": {"number": 64, "value": 0}, "group": "control_change"}, {"time": 3515, "annotation": {"number": 64, "value": 127}, "group": "control_change"}, {"time": 3560, "annotation": {"number": 64, "value": 0}, "group": "control_change"}, {"time": 3564, "annotation": {"number": 64, "value": 127}, "group": "control_change"}, {"time": 3608, "annotation": {"number": 64, "value": 0}, "group": "control_change"}, {"time": 3612, "annotation": {"number": 64, "value": 127}, "group": "control_change"}, {"time": 3658, "annotation": {"number": 64, "value": 0}, "group": "control_change"}, {"time": 3662, "annotation": {"number": 64, "value": 127}, "group": "control_change"}, {"time": 3705, "annotation": {"number": 64, "value": 0}, "group": "control_change"}, {"time": 3710, "annotation": {"number": 64, "value": 127}, "group": "control_change"}, {"time": 3752, "annotation": {"number": 64, "value": 0}, "group": "control_change"}, {"time": 3755, "annotation": {"number": 64, "value": 127}, "group": "control_change"}, {"time": 3801, "annotation": {"number": 64, "value": 0}, "group": "control_change"}, {"time": 3805, "annotation": {"number": 64, "value": 127}, "group": "control_change"}, {"time": 3840, "annotation": {"number": 64, "value": 0}, "group": "control_change"}, {"time": 3863, "annotation": {"number": 64, "value": 127}, "group": "control_change"}, {"time": 3908, "annotation": {"number": 64, "value": 0}, "group": "control_change"}, {"time": 3912, "annotation": {"number": 64, "value": 127}, "group": "control_change"}, {"time": 3956, "annotation": {"number": 64, "value": 0}, "group": "control_change"}, {"time": 3960, "annotation": {"number": 64, "value": 127}, "group": "control_change"}, {"time": 4003, "annotation": {"number": 64, "value": 0}, "group": "control_change"}, {"time": 4007, "annotation": {"number": 64, "value": 127}, "group": "control_change"}, {"time": 4052, "annotation": {"number": 64, "value": 0}, "group": "control_change"}, {"time": 4056, "annotation": {"number": 64, "value": 127}, "group": "control_change"}, {"time": 4102, "annotation": {"number": 64, "value": 0}, "group": "control_change"}, {"time": 4108, "annotation": {"number": 64, "value": 127}, "group": "control_change"}, {"time": 4148, "annotation": {"number": 64, "value": 0}, "group": "control_change"}, {"time": 4152, "annotation": {"number": 64, "value": 127}, "group": "control_change"}, {"time": 4194, "annotation": {"number": 64, "value": 0}, "group": "control_change"}, {"time": 4198, "annotation": {"number": 64, "value": 127}, "group": "control_change"}, {"time": 4243, "annotation": {"number": 64, "value": 0}, "group": "control_change"}, {"time": 4248, "annotation": {"number": 64, "value": 127}, "group": "control_change"}, {"time": 4292, "annotation": {"number": 64, "value": 0}, "group": "control_change"}, {"time": 4295, "annotation": {"number": 64, "value": 127}, "group": "control_change"}, {"time": 4340, "annotation": {"number": 64, "value": 0}, "group": "control_change"}, {"time": 4344, "annotation": {"number": 64, "value": 127}, "group": "control_change"}, {"time": 4388, "annotation": {"number": 64, "value": 0}, "group": "control_change"}, {"time": 4392, "annotation": {"number": 64, "value": 127}, "group": "control_change"}, {"time": 4438, "annotation": {"number": 64, "value": 0}, "group": "control_change"}, {"time": 4442, "annotation": {"number": 64, "value": 127}, "group": "control_change"}, {"time": 4485, "annotation": {"number": 64, "value": 0}, "group": "control_change"}, {"time": 4490, "annotation": {"number": 64, "value": 127}, "group": "control_change"}, {"time": 4532, "annotation": {"number": 64, "value": 0}, "group": "control_change"}, {"time": 4535, "annotation": {"number": 64, "value": 127}, "group": "control_change"}, {"time": 4581, "annotation": {"number": 64, "value": 0}, "group": "control_change"}, {"time": 4585, "annotation": {"number": 64, "value": 127}, "group": "control_change"}, {"time": 4619, "annotation": {"number": 64, "value": 127}, "group": "control_change"}, {"time": 4620, "annotation": {"number": 64, "value": 0}, "group": "control_change"}, {"time": 4664, "annotation": {"number": 64, "value": 0}, "group": "control_change"}, {"time": 4668, "annotation": {"number": 64, "value": 127}, "group": "control_change"}, {"time": 4712, "annotation": {"number": 64, "value": 0}, "group": "control_change"}, {"time": 4716, "annotation": {"number": 64, "value": 127}, "group": "control_change"}, {"time": 4759, "annotation": {"number": 64, "value": 0}, "group": "control_change"}, {"time": 4763, "annotation": {"number": 64, "value": 127}, "group": "control_change"}, {"time": 4808, "annotation": {"number": 64, "value": 0}, "group": "control_change"}, {"time": 4812, "annotation": {"number": 64, "value": 127}, "group": "control_change"}, {"time": 4858, "annotation": {"number": 64, "value": 0}, "group": "control_change"}, {"time": 4864, "annotation": {"number": 64, "value": 127}, "group": "control_change"}, {"time": 4904, "annotation": {"number": 64, "value": 0}, "group": "control_change"}, {"time": 4908, "annotation": {"number": 64, "value": 127}, "group": "control_change"}, {"time": 4950, "annotation": {"number": 64, "value": 0}, "group": "control_change"}, {"time": 4954, "annotation": {"number": 64, "value": 127}, "group": "control_change"}, {"time": 4999, "annotation": {"number": 64, "value": 0}, "group": "control_change"}, {"time": 5004, "annotation": {"number": 64, "value": 127}, "group": "control_change"}, {"time": 5048, "annotation": {"number": 64, "value": 0}, "group": "control_change"}, {"time": 5051, "annotation": {"number": 64, "value": 127}, "group": "control_change"}, {"time": 5096, "annotation": {"number": 64, "value": 0}, "group": "control_change"}, {"time": 5100, "annotation": {"number": 64, "value": 127}, "group": "control_change"}, {"time": 5144, "annotation": {"number": 64, "value": 0}, "group": "control_change"}, {"time": 5148, "annotation": {"number": 64, "value": 127}, "group": "control_change"}, {"time": 5194, "annotation": {"number": 64, "value": 0}, "group": "control_change"}, {"time": 5198, "annotation": {"number": 64, "value": 127}, "group": "control_change"}, {"time": 5241, "annotation": {"number": 64, "value": 0}, "group": "control_change"}, {"time": 5246, "annotation": {"number": 64, "value": 127}, "group": "control_change"}, {"time": 5288, "annotation": {"number": 64, "value": 0}, "group": "control_change"}, {"time": 5291, "annotation": {"number": 64, "value": 127}, "group": "control_change"}, {"time": 5337, "annotation": {"number": 64, "value": 0}, "group": "control_change"}, {"time": 5341, "annotation": {"number": 64, "value": 127}, "group": "control_change"}, {"time": 5376, "annotation": {"number": 64, "value": 0}, "group": "control_change"}, {"time": 5387, "annotation": {"number": 64, "value": 127}, "group": "control_change"}, {"time": 5432, "annotation": {"number": 64, "value": 0}, "group": "control_change"}, {"time": 5436, "annotation": {"number": 64, "value": 127}, "group": "control_change"}, {"time": 5480, "annotation": {"number": 64, "value": 0}, "group": "control_change"}, {"time": 5484, "annotation": {"number": 64, "value": 127}, "group": "control_change"}, {"time": 5527, "annotation": {"number": 64, "value": 0}, "group": "control_change"}, {"time": 5531, "annotation": {"number": 64, "value": 127}, "group": "control_change"}, {"time": 5576, "annotation": {"number": 64, "value": 0}, "group": "control_change"}, {"time": 5580, "annotation": {"number": 64, "value": 127}, "group": "control_change"}, {"time": 5626, "annotation": {"number": 64, "value": 0}, "group": "control_change"}, {"time": 5632, "annotation": {"number": 64, "value": 127}, "group": "control_change"}, {"time": 5672, "annotation": {"number": 64, "value": 0}, "group": "control_change"}, {"time": 5676, "annotation": {"number": 64, "value": 127}, "group": "control_change"}, {"time": 5718, "annotation": {"number": 64, "value": 0}, "group": "control_change"}, {"time": 5722, "annotation": {"number": 64, "value": 127}, "group": "control_change"}, {"time": 5767, "annotation": {"number": 64, "value": 0}, "group": "control_change"}, {"time": 5772, "annotation": {"number": 64, "value": 127}, "group": "control_change"}, {"time": 5816, "annotation": {"number": 64, "value": 0}, "group": "control_change"}, {"time": 5819, "annotation": {"number": 64, "value": 127}, "group": "control_change"}, {"time": 5864, "annotation": {"number": 64, "value": 0}, "group": "control_change"}, {"time": 5868, "annotation": {"number": 64, "value": 127}, "group": "control_change"}, {"time": 5912, "annotation": {"number": 64, "value": 0}, "group": "control_change"}, {"time": 5916, "annotation": {"number": 64, "value": 127}, "group": "control_change"}, {"time": 5962, "annotation": {"number": 64, "value": 0}, "group": "control_change"}, {"time": 5966, "annotation": {"number": 64, "value": 127}, "group": "control_change"}, {"time": 6009, "annotation": {"number": 64, "value": 0}, "group": "control_change"}, {"time": 6014, "annotation": {"number": 64, "value": 127}, "group": "control_change"}, {"time": 6056, "annotation": {"number": 64, "value": 0}, "group": "control_change"}, {"time": 6059, "annotation": {"number": 64, "value": 127}, "group": "control_change"}, {"time": 6105, "annotation": {"number": 64, "value": 0}, "group": "control_change"}]}]}