{"metadata": {"schema_version": "0.2", "title": "None", "source_filename": "691.mid", "source_format": "midi"}, "resolution": 12, "tempos": [{"time": 0, "qpm": 112.00005973336519}, {"time": 333, "qpm": 111.50012265013491}, {"time": 2219, "qpm": 112.00005973336519}, {"time": 2448, "qpm": 111.75015645021902}, {"time": 2465, "qpm": 111.50012265013491}, {"time": 3468, "qpm": 111.80013117882058}, {"time": 3785, "qpm": 111.65034090570757}, {"time": 4332, "qpm": 111.45020869051578}, {"time": 4668, "qpm": 111.60008481606447}], "time_signatures": [{"time": 0, "numerator": 1, "denominator": 4}], "tracks": [{"program": 0, "is_drum": false, "name": "MELODY", "notes": [{"time": 418, "pitch": 64, "duration": 3, "velocity": 88}, {"time": 424, "pitch": 66, "duration": 3, "velocity": 85}, {"time": 430, "pitch": 64, "duration": 3, "velocity": 85}, {"time": 436, "pitch": 73, "duration": 20, "velocity": 81}, {"time": 466, "pitch": 64, "duration": 4, "velocity": 86}, {"time": 472, "pitch": 66, "duration": 4, "velocity": 81}, {"time": 478, "pitch": 64, "duration": 4, "velocity": 86}, {"time": 484, "pitch": 71, "duration": 23, "velocity": 80}, {"time": 514, "pitch": 64, "duration": 3, "velocity": 84}, {"time": 520, "pitch": 66, "duration": 5, "velocity": 81}, {"time": 526, "pitch": 64, "duration": 3, "velocity": 83}, {"time": 532, "pitch": 69, "duration": 9, "velocity": 81}, {"time": 544, "pitch": 69, "duration": 9, "velocity": 80}, {"time": 556, "pitch": 71, "duration": 4, "velocity": 79}, {"time": 562, "pitch": 69, "duration": 4, "velocity": 80}, {"time": 568, "pitch": 66, "duration": 12, "velocity": 81}, {"time": 580, "pitch": 64, "duration": 25, "velocity": 83}, {"time": 610, "pitch": 64, "duration": 2, "velocity": 88}, {"time": 613, "pitch": 64, "duration": 2, "velocity": 81}, {"time": 616, "pitch": 66, "duration": 3, "velocity": 86}, {"time": 622, "pitch": 64, "duration": 3, "velocity": 86}, {"time": 628, "pitch": 76, "duration": 22, "velocity": 79}, {"time": 658, "pitch": 64, "duration": 4, "velocity": 82}, {"time": 664, "pitch": 66, "duration": 6, "velocity": 81}, {"time": 670, "pitch": 64, "duration": 3, "velocity": 83}, {"time": 676, "pitch": 74, "duration": 25, "velocity": 93}, {"time": 706, "pitch": 64, "duration": 4, "velocity": 90}, {"time": 712, "pitch": 66, "duration": 5, "velocity": 81}, {"time": 718, "pitch": 64, "duration": 3, "velocity": 83}, {"time": 724, "pitch": 73, "duration": 8, "velocity": 81}, {"time": 736, "pitch": 73, "duration": 8, "velocity": 82}, {"time": 748, "pitch": 73, "duration": 4, "velocity": 82}, {"time": 754, "pitch": 71, "duration": 3, "velocity": 81}, {"time": 760, "pitch": 69, "duration": 4, "velocity": 81}, {"time": 766, "pitch": 71, "duration": 28, "velocity": 79}, {"time": 802, "pitch": 64, "duration": 3, "velocity": 88}, {"time": 808, "pitch": 66, "duration": 3, "velocity": 85}, {"time": 814, "pitch": 64, "duration": 3, "velocity": 85}, {"time": 820, "pitch": 73, "duration": 20, "velocity": 81}, {"time": 850, "pitch": 64, "duration": 4, "velocity": 86}, {"time": 856, "pitch": 66, "duration": 4, "velocity": 81}, {"time": 862, "pitch": 64, "duration": 4, "velocity": 86}, {"time": 868, "pitch": 71, "duration": 23, "velocity": 80}, {"time": 898, "pitch": 64, "duration": 3, "velocity": 84}, {"time": 904, "pitch": 66, "duration": 5, "velocity": 81}, {"time": 910, "pitch": 64, "duration": 3, "velocity": 83}, {"time": 916, "pitch": 69, "duration": 9, "velocity": 81}, {"time": 928, "pitch": 69, "duration": 9, "velocity": 80}, {"time": 940, "pitch": 71, "duration": 4, "velocity": 79}, {"time": 946, "pitch": 69, "duration": 4, "velocity": 80}, {"time": 952, "pitch": 66, "duration": 12, "velocity": 81}, {"time": 964, "pitch": 64, "duration": 25, "velocity": 83}, {"time": 994, "pitch": 64, "duration": 2, "velocity": 88}, {"time": 997, "pitch": 64, "duration": 2, "velocity": 81}, {"time": 1000, "pitch": 66, "duration": 3, "velocity": 86}, {"time": 1006, "pitch": 64, "duration": 3, "velocity": 86}, {"time": 1012, "pitch": 76, "duration": 22, "velocity": 79}, {"time": 1042, "pitch": 64, "duration": 4, "velocity": 82}, {"time": 1048, "pitch": 66, "duration": 6, "velocity": 81}, {"time": 1054, "pitch": 64, "duration": 3, "velocity": 83}, {"time": 1060, "pitch": 74, "duration": 25, "velocity": 93}, {"time": 1108, "pitch": 73, "duration": 3, "velocity": 81}, {"time": 1114, "pitch": 73, "duration": 3, "velocity": 79}, {"time": 1120, "pitch": 73, "duration": 3, "velocity": 76}, {"time": 1126, "pitch": 73, "duration": 3, "velocity": 80}, {"time": 1132, "pitch": 73, "duration": 3, "velocity": 83}, {"time": 1138, "pitch": 71, "duration": 18, "velocity": 82}, {"time": 1156, "pitch": 69, "duration": 26, "velocity": 80}, {"time": 1204, "pitch": 78, "duration": 10, "velocity": 82}, {"time": 1216, "pitch": 76, "duration": 3, "velocity": 85}, {"time": 1222, "pitch": 74, "duration": 4, "velocity": 83}, {"time": 1228, "pitch": 78, "duration": 10, "velocity": 80}, {"time": 1240, "pitch": 76, "duration": 5, "velocity": 86}, {"time": 1246, "pitch": 74, "duration": 4, "velocity": 84}, {"time": 1252, "pitch": 78, "duration": 3, "velocity": 85}, {"time": 1258, "pitch": 78, "duration": 3, "velocity": 80}, {"time": 1264, "pitch": 78, "duration": 3, "velocity": 90}, {"time": 1270, "pitch": 76, "duration": 6, "velocity": 81}, {"time": 1276, "pitch": 73, "duration": 9, "velocity": 88}, {"time": 1288, "pitch": 76, "duration": 7, "velocity": 85}, {"time": 1300, "pitch": 78, "duration": 9, "velocity": 81}, {"time": 1312, "pitch": 76, "duration": 3, "velocity": 84}, {"time": 1318, "pitch": 74, "duration": 3, "velocity": 90}, {"time": 1324, "pitch": 78, "duration": 9, "velocity": 83}, {"time": 1336, "pitch": 76, "duration": 3, "velocity": 86}, {"time": 1342, "pitch": 74, "duration": 4, "velocity": 90}, {"time": 1348, "pitch": 78, "duration": 3, "velocity": 83}, {"time": 1354, "pitch": 78, "duration": 9, "velocity": 90}, {"time": 1366, "pitch": 76, "duration": 3, "velocity": 80}, {"time": 1372, "pitch": 73, "duration": 4, "velocity": 82}, {"time": 1378, "pitch": 73, "duration": 6, "velocity": 81}, {"time": 1384, "pitch": 71, "duration": 7, "velocity": 84}, {"time": 1396, "pitch": 71, "duration": 4, "velocity": 78}, {"time": 1402, "pitch": 71, "duration": 4, "velocity": 79}, {"time": 1408, "pitch": 71, "duration": 4, "velocity": 79}, {"time": 1414, "pitch": 69, "duration": 17, "velocity": 82}, {"time": 1432, "pitch": 71, "duration": 8, "velocity": 86}, {"time": 1444, "pitch": 73, "duration": 3, "velocity": 85}, {"time": 1450, "pitch": 73, "duration": 3, "velocity": 77}, {"time": 1456, "pitch": 73, "duration": 3, "velocity": 82}, {"time": 1459, "pitch": 71, "duration": 3, "velocity": 83}, {"time": 1465, "pitch": 73, "duration": 2, "velocity": 83}, {"time": 1471, "pitch": 73, "duration": 7, "velocity": 78}, {"time": 1480, "pitch": 76, "duration": 8, "velocity": 85}, {"time": 1492, "pitch": 78, "duration": 2, "velocity": 83}, {"time": 1495, "pitch": 78, "duration": 2, "velocity": 78}, {"time": 1501, "pitch": 78, "duration": 2, "velocity": 82}, {"time": 1504, "pitch": 78, "duration": 3, "velocity": 79}, {"time": 1510, "pitch": 76, "duration": 3, "velocity": 86}, {"time": 1516, "pitch": 78, "duration": 12, "velocity": 88}, {"time": 1540, "pitch": 78, "duration": 3, "velocity": 81}, {"time": 1546, "pitch": 78, "duration": 3, "velocity": 75}, {"time": 1552, "pitch": 78, "duration": 3, "velocity": 81}, {"time": 1558, "pitch": 78, "duration": 3, "velocity": 75}, {"time": 1564, "pitch": 78, "duration": 3, "velocity": 80}, {"time": 1570, "pitch": 73, "duration": 13, "velocity": 83}, {"time": 1582, "pitch": 76, "duration": 52, "velocity": 86}, {"time": 1666, "pitch": 64, "duration": 3, "velocity": 88}, {"time": 1672, "pitch": 66, "duration": 3, "velocity": 85}, {"time": 1678, "pitch": 64, "duration": 3, "velocity": 85}, {"time": 1684, "pitch": 73, "duration": 20, "velocity": 81}, {"time": 1714, "pitch": 64, "duration": 4, "velocity": 86}, {"time": 1720, "pitch": 66, "duration": 4, "velocity": 81}, {"time": 1726, "pitch": 64, "duration": 4, "velocity": 86}, {"time": 1732, "pitch": 71, "duration": 23, "velocity": 80}, {"time": 1762, "pitch": 64, "duration": 3, "velocity": 84}, {"time": 1768, "pitch": 66, "duration": 5, "velocity": 81}, {"time": 1774, "pitch": 64, "duration": 3, "velocity": 83}, {"time": 1780, "pitch": 69, "duration": 9, "velocity": 81}, {"time": 1792, "pitch": 69, "duration": 9, "velocity": 80}, {"time": 1804, "pitch": 71, "duration": 4, "velocity": 79}, {"time": 1810, "pitch": 69, "duration": 4, "velocity": 80}, {"time": 1816, "pitch": 71, "duration": 11, "velocity": 81}, {"time": 1828, "pitch": 69, "duration": 25, "velocity": 83}, {"time": 2242, "pitch": 64, "duration": 3, "velocity": 88}, {"time": 2248, "pitch": 66, "duration": 3, "velocity": 85}, {"time": 2254, "pitch": 64, "duration": 3, "velocity": 85}, {"time": 2260, "pitch": 73, "duration": 20, "velocity": 81}, {"time": 2290, "pitch": 64, "duration": 4, "velocity": 86}, {"time": 2296, "pitch": 66, "duration": 4, "velocity": 81}, {"time": 2302, "pitch": 64, "duration": 4, "velocity": 86}, {"time": 2308, "pitch": 71, "duration": 23, "velocity": 80}, {"time": 2338, "pitch": 64, "duration": 3, "velocity": 84}, {"time": 2344, "pitch": 66, "duration": 5, "velocity": 81}, {"time": 2350, "pitch": 64, "duration": 3, "velocity": 83}, {"time": 2356, "pitch": 69, "duration": 9, "velocity": 81}, {"time": 2368, "pitch": 69, "duration": 9, "velocity": 80}, {"time": 2380, "pitch": 71, "duration": 4, "velocity": 79}, {"time": 2386, "pitch": 69, "duration": 4, "velocity": 80}, {"time": 2392, "pitch": 66, "duration": 12, "velocity": 81}, {"time": 2404, "pitch": 64, "duration": 25, "velocity": 83}, {"time": 2434, "pitch": 64, "duration": 2, "velocity": 88}, {"time": 2437, "pitch": 64, "duration": 2, "velocity": 81}, {"time": 2440, "pitch": 66, "duration": 3, "velocity": 86}, {"time": 2446, "pitch": 64, "duration": 3, "velocity": 86}, {"time": 2452, "pitch": 76, "duration": 22, "velocity": 79}, {"time": 2482, "pitch": 64, "duration": 4, "velocity": 82}, {"time": 2488, "pitch": 66, "duration": 6, "velocity": 81}, {"time": 2494, "pitch": 64, "duration": 3, "velocity": 83}, {"time": 2500, "pitch": 74, "duration": 25, "velocity": 93}, {"time": 2530, "pitch": 64, "duration": 4, "velocity": 90}, {"time": 2536, "pitch": 66, "duration": 5, "velocity": 81}, {"time": 2542, "pitch": 64, "duration": 3, "velocity": 83}, {"time": 2548, "pitch": 73, "duration": 8, "velocity": 81}, {"time": 2560, "pitch": 73, "duration": 8, "velocity": 82}, {"time": 2572, "pitch": 73, "duration": 4, "velocity": 82}, {"time": 2578, "pitch": 71, "duration": 3, "velocity": 81}, {"time": 2584, "pitch": 69, "duration": 4, "velocity": 81}, {"time": 2590, "pitch": 71, "duration": 28, "velocity": 79}, {"time": 2626, "pitch": 64, "duration": 3, "velocity": 88}, {"time": 2632, "pitch": 66, "duration": 3, "velocity": 85}, {"time": 2638, "pitch": 64, "duration": 3, "velocity": 85}, {"time": 2644, "pitch": 73, "duration": 20, "velocity": 81}, {"time": 2674, "pitch": 64, "duration": 4, "velocity": 86}, {"time": 2680, "pitch": 66, "duration": 4, "velocity": 81}, {"time": 2686, "pitch": 64, "duration": 4, "velocity": 86}, {"time": 2692, "pitch": 71, "duration": 23, "velocity": 80}, {"time": 2722, "pitch": 64, "duration": 3, "velocity": 84}, {"time": 2728, "pitch": 66, "duration": 5, "velocity": 81}, {"time": 2734, "pitch": 64, "duration": 3, "velocity": 83}, {"time": 2740, "pitch": 69, "duration": 9, "velocity": 81}, {"time": 2752, "pitch": 69, "duration": 9, "velocity": 80}, {"time": 2764, "pitch": 71, "duration": 4, "velocity": 79}, {"time": 2770, "pitch": 69, "duration": 4, "velocity": 80}, {"time": 2776, "pitch": 66, "duration": 12, "velocity": 81}, {"time": 2788, "pitch": 64, "duration": 25, "velocity": 83}, {"time": 2818, "pitch": 64, "duration": 2, "velocity": 88}, {"time": 2821, "pitch": 64, "duration": 2, "velocity": 81}, {"time": 2824, "pitch": 66, "duration": 3, "velocity": 86}, {"time": 2830, "pitch": 64, "duration": 3, "velocity": 86}, {"time": 2836, "pitch": 76, "duration": 22, "velocity": 79}, {"time": 2866, "pitch": 64, "duration": 4, "velocity": 82}, {"time": 2872, "pitch": 66, "duration": 6, "velocity": 81}, {"time": 2878, "pitch": 64, "duration": 3, "velocity": 83}, {"time": 2884, "pitch": 74, "duration": 25, "velocity": 93}, {"time": 2932, "pitch": 73, "duration": 3, "velocity": 81}, {"time": 2938, "pitch": 73, "duration": 3, "velocity": 79}, {"time": 2944, "pitch": 73, "duration": 3, "velocity": 76}, {"time": 2950, "pitch": 73, "duration": 3, "velocity": 80}, {"time": 2956, "pitch": 73, "duration": 3, "velocity": 83}, {"time": 2962, "pitch": 71, "duration": 18, "velocity": 82}, {"time": 2980, "pitch": 69, "duration": 26, "velocity": 80}, {"time": 3028, "pitch": 78, "duration": 10, "velocity": 82}, {"time": 3040, "pitch": 76, "duration": 3, "velocity": 85}, {"time": 3046, "pitch": 74, "duration": 4, "velocity": 83}, {"time": 3052, "pitch": 78, "duration": 10, "velocity": 80}, {"time": 3064, "pitch": 76, "duration": 5, "velocity": 86}, {"time": 3070, "pitch": 74, "duration": 4, "velocity": 84}, {"time": 3076, "pitch": 78, "duration": 3, "velocity": 85}, {"time": 3082, "pitch": 78, "duration": 3, "velocity": 80}, {"time": 3088, "pitch": 78, "duration": 3, "velocity": 90}, {"time": 3094, "pitch": 76, "duration": 6, "velocity": 81}, {"time": 3100, "pitch": 73, "duration": 9, "velocity": 88}, {"time": 3112, "pitch": 76, "duration": 7, "velocity": 85}, {"time": 3124, "pitch": 78, "duration": 9, "velocity": 81}, {"time": 3136, "pitch": 76, "duration": 3, "velocity": 84}, {"time": 3142, "pitch": 74, "duration": 3, "velocity": 90}, {"time": 3148, "pitch": 78, "duration": 9, "velocity": 83}, {"time": 3160, "pitch": 76, "duration": 3, "velocity": 86}, {"time": 3166, "pitch": 74, "duration": 4, "velocity": 90}, {"time": 3172, "pitch": 78, "duration": 3, "velocity": 83}, {"time": 3178, "pitch": 78, "duration": 9, "velocity": 90}, {"time": 3190, "pitch": 76, "duration": 3, "velocity": 80}, {"time": 3196, "pitch": 73, "duration": 4, "velocity": 82}, {"time": 3202, "pitch": 73, "duration": 6, "velocity": 81}, {"time": 3208, "pitch": 71, "duration": 7, "velocity": 84}, {"time": 3220, "pitch": 71, "duration": 4, "velocity": 78}, {"time": 3226, "pitch": 71, "duration": 4, "velocity": 79}, {"time": 3232, "pitch": 71, "duration": 4, "velocity": 79}, {"time": 3238, "pitch": 69, "duration": 17, "velocity": 82}, {"time": 3256, "pitch": 71, "duration": 8, "velocity": 86}, {"time": 3268, "pitch": 73, "duration": 3, "velocity": 85}, {"time": 3274, "pitch": 73, "duration": 3, "velocity": 77}, {"time": 3280, "pitch": 73, "duration": 3, "velocity": 82}, {"time": 3283, "pitch": 71, "duration": 3, "velocity": 83}, {"time": 3289, "pitch": 73, "duration": 2, "velocity": 83}, {"time": 3295, "pitch": 73, "duration": 7, "velocity": 78}, {"time": 3304, "pitch": 76, "duration": 8, "velocity": 85}, {"time": 3316, "pitch": 78, "duration": 2, "velocity": 83}, {"time": 3319, "pitch": 78, "duration": 2, "velocity": 78}, {"time": 3325, "pitch": 78, "duration": 2, "velocity": 82}, {"time": 3328, "pitch": 78, "duration": 3, "velocity": 79}, {"time": 3334, "pitch": 76, "duration": 3, "velocity": 86}, {"time": 3340, "pitch": 78, "duration": 12, "velocity": 88}, {"time": 3364, "pitch": 78, "duration": 3, "velocity": 81}, {"time": 3370, "pitch": 78, "duration": 3, "velocity": 75}, {"time": 3376, "pitch": 78, "duration": 3, "velocity": 81}, {"time": 3382, "pitch": 78, "duration": 3, "velocity": 75}, {"time": 3388, "pitch": 78, "duration": 3, "velocity": 80}, {"time": 3394, "pitch": 73, "duration": 13, "velocity": 83}, {"time": 3406, "pitch": 76, "duration": 52, "velocity": 86}, {"time": 3490, "pitch": 64, "duration": 3, "velocity": 88}, {"time": 3496, "pitch": 66, "duration": 3, "velocity": 85}, {"time": 3502, "pitch": 64, "duration": 3, "velocity": 85}, {"time": 3508, "pitch": 73, "duration": 20, "velocity": 81}, {"time": 3538, "pitch": 64, "duration": 4, "velocity": 86}, {"time": 3544, "pitch": 66, "duration": 4, "velocity": 81}, {"time": 3550, "pitch": 64, "duration": 4, "velocity": 86}, {"time": 3556, "pitch": 71, "duration": 23, "velocity": 80}, {"time": 3586, "pitch": 64, "duration": 3, "velocity": 84}, {"time": 3592, "pitch": 66, "duration": 5, "velocity": 81}, {"time": 3598, "pitch": 64, "duration": 3, "velocity": 83}, {"time": 3604, "pitch": 69, "duration": 9, "velocity": 81}, {"time": 3616, "pitch": 69, "duration": 9, "velocity": 80}, {"time": 3628, "pitch": 71, "duration": 4, "velocity": 79}, {"time": 3634, "pitch": 69, "duration": 4, "velocity": 80}, {"time": 3640, "pitch": 66, "duration": 12, "velocity": 81}, {"time": 3652, "pitch": 64, "duration": 25, "velocity": 83}, {"time": 3682, "pitch": 64, "duration": 2, "velocity": 88}, {"time": 3685, "pitch": 64, "duration": 2, "velocity": 81}, {"time": 3688, "pitch": 66, "duration": 3, "velocity": 86}, {"time": 3694, "pitch": 64, "duration": 3, "velocity": 86}, {"time": 3700, "pitch": 76, "duration": 22, "velocity": 79}, {"time": 3730, "pitch": 64, "duration": 4, "velocity": 82}, {"time": 3736, "pitch": 66, "duration": 6, "velocity": 81}, {"time": 3742, "pitch": 64, "duration": 3, "velocity": 83}, {"time": 3748, "pitch": 74, "duration": 25, "velocity": 93}, {"time": 3778, "pitch": 64, "duration": 4, "velocity": 90}, {"time": 3784, "pitch": 66, "duration": 5, "velocity": 81}, {"time": 3790, "pitch": 64, "duration": 3, "velocity": 83}, {"time": 3796, "pitch": 73, "duration": 8, "velocity": 81}, {"time": 3808, "pitch": 73, "duration": 8, "velocity": 82}, {"time": 3820, "pitch": 73, "duration": 4, "velocity": 82}, {"time": 3826, "pitch": 71, "duration": 3, "velocity": 81}, {"time": 3832, "pitch": 69, "duration": 4, "velocity": 81}, {"time": 3838, "pitch": 71, "duration": 28, "velocity": 79}, {"time": 3874, "pitch": 64, "duration": 3, "velocity": 88}, {"time": 3880, "pitch": 66, "duration": 3, "velocity": 85}, {"time": 3886, "pitch": 64, "duration": 3, "velocity": 85}, {"time": 3892, "pitch": 73, "duration": 20, "velocity": 81}, {"time": 3922, "pitch": 64, "duration": 4, "velocity": 86}, {"time": 3928, "pitch": 66, "duration": 4, "velocity": 81}, {"time": 3934, "pitch": 64, "duration": 4, "velocity": 86}, {"time": 3940, "pitch": 71, "duration": 23, "velocity": 80}, {"time": 3970, "pitch": 64, "duration": 3, "velocity": 84}, {"time": 3976, "pitch": 66, "duration": 5, "velocity": 81}, {"time": 3982, "pitch": 64, "duration": 3, "velocity": 83}, {"time": 3988, "pitch": 69, "duration": 9, "velocity": 81}, {"time": 4000, "pitch": 69, "duration": 9, "velocity": 80}, {"time": 4012, "pitch": 71, "duration": 4, "velocity": 79}, {"time": 4018, "pitch": 69, "duration": 4, "velocity": 80}, {"time": 4024, "pitch": 66, "duration": 12, "velocity": 81}, {"time": 4036, "pitch": 64, "duration": 25, "velocity": 83}, {"time": 4066, "pitch": 64, "duration": 2, "velocity": 88}, {"time": 4069, "pitch": 64, "duration": 2, "velocity": 81}, {"time": 4072, "pitch": 66, "duration": 3, "velocity": 86}, {"time": 4078, "pitch": 64, "duration": 3, "velocity": 86}, {"time": 4084, "pitch": 76, "duration": 22, "velocity": 79}, {"time": 4114, "pitch": 64, "duration": 4, "velocity": 82}, {"time": 4120, "pitch": 66, "duration": 6, "velocity": 81}, {"time": 4126, "pitch": 64, "duration": 3, "velocity": 83}, {"time": 4132, "pitch": 74, "duration": 25, "velocity": 93}, {"time": 4180, "pitch": 73, "duration": 3, "velocity": 81}, {"time": 4186, "pitch": 73, "duration": 3, "velocity": 79}, {"time": 4192, "pitch": 73, "duration": 3, "velocity": 76}, {"time": 4198, "pitch": 73, "duration": 3, "velocity": 80}, {"time": 4204, "pitch": 73, "duration": 3, "velocity": 83}, {"time": 4210, "pitch": 71, "duration": 18, "velocity": 82}, {"time": 4228, "pitch": 69, "duration": 26, "velocity": 80}, {"time": 4660, "pitch": 78, "duration": 10, "velocity": 82}, {"time": 4672, "pitch": 76, "duration": 3, "velocity": 85}, {"time": 4678, "pitch": 74, "duration": 4, "velocity": 83}, {"time": 4684, "pitch": 78, "duration": 10, "velocity": 80}, {"time": 4696, "pitch": 76, "duration": 5, "velocity": 86}, {"time": 4702, "pitch": 74, "duration": 4, "velocity": 84}, {"time": 4708, "pitch": 78, "duration": 3, "velocity": 85}, {"time": 4714, "pitch": 78, "duration": 3, "velocity": 80}, {"time": 4720, "pitch": 78, "duration": 3, "velocity": 90}, {"time": 4726, "pitch": 76, "duration": 6, "velocity": 81}, {"time": 4732, "pitch": 73, "duration": 9, "velocity": 88}, {"time": 4744, "pitch": 76, "duration": 7, "velocity": 85}, {"time": 4756, "pitch": 78, "duration": 9, "velocity": 81}, {"time": 4768, "pitch": 76, "duration": 3, "velocity": 84}, {"time": 4774, "pitch": 74, "duration": 3, "velocity": 90}, {"time": 4780, "pitch": 78, "duration": 9, "velocity": 83}, {"time": 4792, "pitch": 76, "duration": 3, "velocity": 86}, {"time": 4798, "pitch": 74, "duration": 4, "velocity": 90}, {"time": 4804, "pitch": 78, "duration": 3, "velocity": 83}, {"time": 4810, "pitch": 78, "duration": 9, "velocity": 90}, {"time": 4822, "pitch": 76, "duration": 3, "velocity": 80}, {"time": 4828, "pitch": 73, "duration": 4, "velocity": 82}, {"time": 4834, "pitch": 73, "duration": 6, "velocity": 81}, {"time": 4840, "pitch": 71, "duration": 7, "velocity": 84}, {"time": 4852, "pitch": 71, "duration": 4, "velocity": 78}, {"time": 4858, "pitch": 71, "duration": 4, "velocity": 79}, {"time": 4864, "pitch": 71, "duration": 4, "velocity": 79}, {"time": 4870, "pitch": 69, "duration": 17, "velocity": 82}, {"time": 4888, "pitch": 71, "duration": 8, "velocity": 86}, {"time": 4900, "pitch": 73, "duration": 3, "velocity": 85}, {"time": 4906, "pitch": 73, "duration": 3, "velocity": 77}, {"time": 4912, "pitch": 73, "duration": 3, "velocity": 82}, {"time": 4915, "pitch": 71, "duration": 3, "velocity": 83}, {"time": 4921, "pitch": 73, "duration": 2, "velocity": 83}, {"time": 4927, "pitch": 73, "duration": 7, "velocity": 78}, {"time": 4936, "pitch": 76, "duration": 8, "velocity": 85}, {"time": 4948, "pitch": 78, "duration": 2, "velocity": 83}, {"time": 4951, "pitch": 78, "duration": 2, "velocity": 78}, {"time": 4957, "pitch": 78, "duration": 2, "velocity": 82}, {"time": 4960, "pitch": 78, "duration": 3, "velocity": 79}, {"time": 4966, "pitch": 76, "duration": 3, "velocity": 86}, {"time": 4972, "pitch": 78, "duration": 12, "velocity": 88}, {"time": 4996, "pitch": 78, "duration": 3, "velocity": 81}, {"time": 5002, "pitch": 78, "duration": 3, "velocity": 75}, {"time": 5008, "pitch": 78, "duration": 3, "velocity": 81}, {"time": 5014, "pitch": 78, "duration": 3, "velocity": 75}, {"time": 5020, "pitch": 78, "duration": 3, "velocity": 80}, {"time": 5026, "pitch": 73, "duration": 13, "velocity": 83}, {"time": 5038, "pitch": 76, "duration": 52, "velocity": 86}, {"time": 5122, "pitch": 64, "duration": 3, "velocity": 88}, {"time": 5128, "pitch": 66, "duration": 3, "velocity": 85}, {"time": 5134, "pitch": 64, "duration": 3, "velocity": 85}, {"time": 5140, "pitch": 73, "duration": 20, "velocity": 81}, {"time": 5170, "pitch": 64, "duration": 4, "velocity": 86}, {"time": 5176, "pitch": 66, "duration": 4, "velocity": 81}, {"time": 5182, "pitch": 64, "duration": 4, "velocity": 86}, {"time": 5188, "pitch": 71, "duration": 23, "velocity": 80}, {"time": 5218, "pitch": 64, "duration": 3, "velocity": 84}, {"time": 5224, "pitch": 66, "duration": 5, "velocity": 81}, {"time": 5230, "pitch": 64, "duration": 3, "velocity": 83}, {"time": 5236, "pitch": 69, "duration": 9, "velocity": 81}, {"time": 5248, "pitch": 69, "duration": 9, "velocity": 80}, {"time": 5260, "pitch": 71, "duration": 4, "velocity": 79}, {"time": 5266, "pitch": 69, "duration": 4, "velocity": 80}, {"time": 5272, "pitch": 71, "duration": 11, "velocity": 81}, {"time": 5284, "pitch": 69, "duration": 25, "velocity": 83}]}, {"program": 0, "is_drum": false, "name": "BRIDGE", "notes": [{"time": 34, "pitch": 64, "duration": 6, "velocity": 95}, {"time": 40, "pitch": 66, "duration": 7, "velocity": 81}, {"time": 46, "pitch": 64, "duration": 6, "velocity": 85}, {"time": 52, "pitch": 73, "duration": 16, "velocity": 68}, {"time": 82, "pitch": 73, "duration": 7, "velocity": 83}, {"time": 88, "pitch": 71, "duration": 6, "velocity": 86}, {"time": 94, "pitch": 69, "duration": 6, "velocity": 84}, {"time": 100, "pitch": 71, "duration": 26, "velocity": 88}, {"time": 130, "pitch": 73, "duration": 4, "velocity": 90}, {"time": 136, "pitch": 71, "duration": 5, "velocity": 88}, {"time": 142, "pitch": 69, "duration": 4, "velocity": 83}, {"time": 148, "pitch": 69, "duration": 26, "velocity": 81}, {"time": 184, "pitch": 68, "duration": 5, "velocity": 85}, {"time": 190, "pitch": 66, "duration": 5, "velocity": 88}, {"time": 196, "pitch": 64, "duration": 26, "velocity": 84}, {"time": 226, "pitch": 64, "duration": 3, "velocity": 84}, {"time": 232, "pitch": 66, "duration": 5, "velocity": 85}, {"time": 238, "pitch": 64, "duration": 4, "velocity": 86}, {"time": 244, "pitch": 76, "duration": 28, "velocity": 93}, {"time": 274, "pitch": 69, "duration": 6, "velocity": 86}, {"time": 280, "pitch": 78, "duration": 6, "velocity": 93}, {"time": 286, "pitch": 76, "duration": 2, "velocity": 93}, {"time": 292, "pitch": 78, "duration": 3, "velocity": 93}, {"time": 295, "pitch": 76, "duration": 3, "velocity": 95}, {"time": 298, "pitch": 74, "duration": 20, "velocity": 93}, {"time": 328, "pitch": 73, "duration": 7, "velocity": 86}, {"time": 334, "pitch": 74, "duration": 7, "velocity": 88}, {"time": 340, "pitch": 71, "duration": 10, "velocity": 88}, {"time": 352, "pitch": 71, "duration": 19, "velocity": 85}, {"time": 370, "pitch": 69, "duration": 6, "velocity": 84}, {"time": 376, "pitch": 73, "duration": 7, "velocity": 81}, {"time": 382, "pitch": 71, "duration": 6, "velocity": 95}, {"time": 388, "pitch": 69, "duration": 43, "velocity": 85}, {"time": 832, "pitch": 64, "duration": 35, "velocity": 71}, {"time": 838, "pitch": 73, "duration": 29, "velocity": 65}, {"time": 874, "pitch": 64, "duration": 41, "velocity": 68}, {"time": 880, "pitch": 69, "duration": 6, "velocity": 72}, {"time": 886, "pitch": 71, "duration": 31, "velocity": 77}, {"time": 928, "pitch": 69, "duration": 35, "velocity": 65}, {"time": 934, "pitch": 74, "duration": 26, "velocity": 79}, {"time": 976, "pitch": 64, "duration": 20, "velocity": 69}, {"time": 982, "pitch": 71, "duration": 31, "velocity": 78}, {"time": 994, "pitch": 68, "duration": 17, "velocity": 63}, {"time": 1000, "pitch": 64, "duration": 12, "velocity": 67}, {"time": 1024, "pitch": 69, "duration": 31, "velocity": 69}, {"time": 1030, "pitch": 76, "duration": 24, "velocity": 78}, {"time": 1066, "pitch": 62, "duration": 24, "velocity": 65}, {"time": 1072, "pitch": 69, "duration": 29, "velocity": 71}, {"time": 1078, "pitch": 74, "duration": 23, "velocity": 77}, {"time": 1114, "pitch": 64, "duration": 24, "velocity": 72}, {"time": 1120, "pitch": 71, "duration": 30, "velocity": 72}, {"time": 1126, "pitch": 76, "duration": 22, "velocity": 72}, {"time": 1162, "pitch": 64, "duration": 26, "velocity": 67}, {"time": 1168, "pitch": 69, "duration": 27, "velocity": 68}, {"time": 1174, "pitch": 73, "duration": 21, "velocity": 63}, {"time": 1204, "pitch": 74, "duration": 36, "velocity": 74}, {"time": 1204, "pitch": 78, "duration": 35, "velocity": 69}, {"time": 1249, "pitch": 74, "duration": 15, "velocity": 73}, {"time": 1249, "pitch": 78, "duration": 16, "velocity": 65}, {"time": 1276, "pitch": 73, "duration": 12, "velocity": 68}, {"time": 1288, "pitch": 76, "duration": 6, "velocity": 75}, {"time": 1300, "pitch": 74, "duration": 40, "velocity": 74}, {"time": 1300, "pitch": 78, "duration": 40, "velocity": 68}, {"time": 1348, "pitch": 74, "duration": 17, "velocity": 69}, {"time": 1348, "pitch": 78, "duration": 16, "velocity": 63}, {"time": 1372, "pitch": 73, "duration": 12, "velocity": 74}, {"time": 1384, "pitch": 71, "duration": 8, "velocity": 75}, {"time": 1396, "pitch": 71, "duration": 42, "velocity": 74}, {"time": 1396, "pitch": 74, "duration": 42, "velocity": 78}, {"time": 1444, "pitch": 73, "duration": 26, "velocity": 75}, {"time": 1468, "pitch": 76, "duration": 13, "velocity": 80}, {"time": 1480, "pitch": 73, "duration": 7, "velocity": 62}, {"time": 1492, "pitch": 69, "duration": 40, "velocity": 71}, {"time": 1492, "pitch": 74, "duration": 41, "velocity": 80}, {"time": 1540, "pitch": 71, "duration": 32, "velocity": 77}, {"time": 1540, "pitch": 75, "duration": 32, "velocity": 76}, {"time": 1576, "pitch": 71, "duration": 7, "velocity": 72}, {"time": 1576, "pitch": 75, "duration": 6, "velocity": 75}, {"time": 1588, "pitch": 71, "duration": 95, "velocity": 76}, {"time": 1588, "pitch": 76, "duration": 94, "velocity": 78}, {"time": 1684, "pitch": 73, "duration": 43, "velocity": 64}, {"time": 1714, "pitch": 69, "duration": 8, "velocity": 74}, {"time": 1720, "pitch": 64, "duration": 14, "velocity": 69}, {"time": 1732, "pitch": 71, "duration": 40, "velocity": 64}, {"time": 1780, "pitch": 69, "duration": 9, "velocity": 69}, {"time": 1786, "pitch": 62, "duration": 30, "velocity": 66}, {"time": 1792, "pitch": 69, "duration": 26, "velocity": 71}, {"time": 1798, "pitch": 74, "duration": 21, "velocity": 64}, {"time": 1828, "pitch": 73, "duration": 36, "velocity": 67}, {"time": 1876, "pitch": 73, "duration": 18, "velocity": 83}, {"time": 1894, "pitch": 64, "duration": 6, "velocity": 93}, {"time": 1900, "pitch": 69, "duration": 6, "velocity": 86}, {"time": 1906, "pitch": 71, "duration": 7, "velocity": 81}, {"time": 1912, "pitch": 73, "duration": 6, "velocity": 85}, {"time": 1918, "pitch": 74, "duration": 3, "velocity": 85}, {"time": 1921, "pitch": 73, "duration": 3, "velocity": 86}, {"time": 1924, "pitch": 71, "duration": 42, "velocity": 83}, {"time": 1971, "pitch": 76, "duration": 18, "velocity": 90}, {"time": 1990, "pitch": 78, "duration": 6, "velocity": 83}, {"time": 1996, "pitch": 76, "duration": 5, "velocity": 81}, {"time": 2002, "pitch": 71, "duration": 8, "velocity": 86}, {"time": 2008, "pitch": 73, "duration": 7, "velocity": 86}, {"time": 2014, "pitch": 74, "duration": 3, "velocity": 88}, {"time": 2017, "pitch": 76, "duration": 3, "velocity": 88}, {"time": 2020, "pitch": 73, "duration": 38, "velocity": 88}, {"time": 2068, "pitch": 74, "duration": 7, "velocity": 95}, {"time": 2074, "pitch": 73, "duration": 7, "velocity": 86}, {"time": 2080, "pitch": 71, "duration": 5, "velocity": 86}, {"time": 2086, "pitch": 69, "duration": 3, "velocity": 83}, {"time": 2092, "pitch": 69, "duration": 12, "velocity": 85}, {"time": 2104, "pitch": 66, "duration": 5, "velocity": 84}, {"time": 2110, "pitch": 69, "duration": 6, "velocity": 80}, {"time": 2116, "pitch": 74, "duration": 6, "velocity": 96}, {"time": 2122, "pitch": 73, "duration": 7, "velocity": 85}, {"time": 2128, "pitch": 71, "duration": 5, "velocity": 85}, {"time": 2134, "pitch": 69, "duration": 6, "velocity": 85}, {"time": 2140, "pitch": 69, "duration": 12, "velocity": 85}, {"time": 2152, "pitch": 71, "duration": 4, "velocity": 82}, {"time": 2156, "pitch": 69, "duration": 5, "velocity": 80}, {"time": 2160, "pitch": 71, "duration": 4, "velocity": 85}, {"time": 2164, "pitch": 73, "duration": 4, "velocity": 81}, {"time": 2168, "pitch": 71, "duration": 5, "velocity": 81}, {"time": 2172, "pitch": 73, "duration": 4, "velocity": 81}, {"time": 2176, "pitch": 74, "duration": 4, "velocity": 90}, {"time": 2179, "pitch": 73, "duration": 5, "velocity": 93}, {"time": 2183, "pitch": 74, "duration": 5, "velocity": 88}, {"time": 2187, "pitch": 76, "duration": 4, "velocity": 81}, {"time": 2191, "pitch": 74, "duration": 5, "velocity": 83}, {"time": 2195, "pitch": 76, "duration": 4, "velocity": 83}, {"time": 2199, "pitch": 78, "duration": 5, "velocity": 85}, {"time": 2203, "pitch": 76, "duration": 3, "velocity": 86}, {"time": 2207, "pitch": 78, "duration": 5, "velocity": 86}, {"time": 2211, "pitch": 76, "duration": 48, "velocity": 86}, {"time": 2656, "pitch": 64, "duration": 35, "velocity": 71}, {"time": 2662, "pitch": 73, "duration": 29, "velocity": 65}, {"time": 2698, "pitch": 64, "duration": 41, "velocity": 68}, {"time": 2704, "pitch": 69, "duration": 6, "velocity": 72}, {"time": 2710, "pitch": 71, "duration": 31, "velocity": 77}, {"time": 2752, "pitch": 69, "duration": 35, "velocity": 65}, {"time": 2758, "pitch": 74, "duration": 26, "velocity": 79}, {"time": 2800, "pitch": 64, "duration": 20, "velocity": 69}, {"time": 2806, "pitch": 71, "duration": 31, "velocity": 78}, {"time": 2818, "pitch": 68, "duration": 17, "velocity": 63}, {"time": 2824, "pitch": 64, "duration": 12, "velocity": 67}, {"time": 2848, "pitch": 69, "duration": 31, "velocity": 69}, {"time": 2854, "pitch": 76, "duration": 24, "velocity": 78}, {"time": 2890, "pitch": 62, "duration": 24, "velocity": 65}, {"time": 2896, "pitch": 69, "duration": 29, "velocity": 71}, {"time": 2902, "pitch": 74, "duration": 23, "velocity": 77}, {"time": 2938, "pitch": 64, "duration": 24, "velocity": 72}, {"time": 2944, "pitch": 71, "duration": 30, "velocity": 72}, {"time": 2950, "pitch": 76, "duration": 22, "velocity": 72}, {"time": 2986, "pitch": 64, "duration": 26, "velocity": 67}, {"time": 2992, "pitch": 69, "duration": 27, "velocity": 68}, {"time": 2998, "pitch": 73, "duration": 21, "velocity": 63}, {"time": 3028, "pitch": 74, "duration": 36, "velocity": 74}, {"time": 3028, "pitch": 78, "duration": 35, "velocity": 69}, {"time": 3073, "pitch": 74, "duration": 15, "velocity": 73}, {"time": 3073, "pitch": 78, "duration": 16, "velocity": 65}, {"time": 3100, "pitch": 73, "duration": 12, "velocity": 68}, {"time": 3112, "pitch": 76, "duration": 6, "velocity": 75}, {"time": 3124, "pitch": 74, "duration": 40, "velocity": 74}, {"time": 3124, "pitch": 78, "duration": 40, "velocity": 68}, {"time": 3172, "pitch": 74, "duration": 17, "velocity": 69}, {"time": 3172, "pitch": 78, "duration": 16, "velocity": 63}, {"time": 3196, "pitch": 73, "duration": 12, "velocity": 74}, {"time": 3208, "pitch": 71, "duration": 8, "velocity": 75}, {"time": 3220, "pitch": 71, "duration": 42, "velocity": 74}, {"time": 3220, "pitch": 74, "duration": 42, "velocity": 78}, {"time": 3268, "pitch": 73, "duration": 26, "velocity": 75}, {"time": 3292, "pitch": 76, "duration": 13, "velocity": 80}, {"time": 3304, "pitch": 73, "duration": 7, "velocity": 62}, {"time": 3316, "pitch": 69, "duration": 40, "velocity": 71}, {"time": 3316, "pitch": 74, "duration": 41, "velocity": 80}, {"time": 3364, "pitch": 71, "duration": 32, "velocity": 77}, {"time": 3364, "pitch": 75, "duration": 32, "velocity": 76}, {"time": 3400, "pitch": 71, "duration": 7, "velocity": 72}, {"time": 3400, "pitch": 75, "duration": 6, "velocity": 75}, {"time": 3412, "pitch": 71, "duration": 95, "velocity": 76}, {"time": 3412, "pitch": 76, "duration": 94, "velocity": 78}, {"time": 3508, "pitch": 76, "duration": 35, "velocity": 83}, {"time": 3544, "pitch": 73, "duration": 14, "velocity": 71}, {"time": 3556, "pitch": 71, "duration": 46, "velocity": 75}, {"time": 3604, "pitch": 69, "duration": 44, "velocity": 77}, {"time": 3652, "pitch": 73, "duration": 36, "velocity": 75}, {"time": 3688, "pitch": 64, "duration": 9, "velocity": 80}, {"time": 3700, "pitch": 69, "duration": 36, "velocity": 82}, {"time": 3736, "pitch": 73, "duration": 13, "velocity": 69}, {"time": 3748, "pitch": 74, "duration": 22, "velocity": 81}, {"time": 3796, "pitch": 73, "duration": 37, "velocity": 70}, {"time": 3832, "pitch": 71, "duration": 5, "velocity": 68}, {"time": 3838, "pitch": 69, "duration": 7, "velocity": 72}, {"time": 3844, "pitch": 71, "duration": 44, "velocity": 83}, {"time": 3904, "pitch": 64, "duration": 35, "velocity": 71}, {"time": 3910, "pitch": 73, "duration": 29, "velocity": 65}, {"time": 3946, "pitch": 64, "duration": 41, "velocity": 68}, {"time": 3952, "pitch": 69, "duration": 6, "velocity": 72}, {"time": 3958, "pitch": 71, "duration": 31, "velocity": 77}, {"time": 4000, "pitch": 69, "duration": 35, "velocity": 65}, {"time": 4006, "pitch": 74, "duration": 26, "velocity": 79}, {"time": 4048, "pitch": 64, "duration": 20, "velocity": 69}, {"time": 4054, "pitch": 71, "duration": 31, "velocity": 78}, {"time": 4066, "pitch": 68, "duration": 17, "velocity": 63}, {"time": 4072, "pitch": 64, "duration": 12, "velocity": 67}, {"time": 4096, "pitch": 69, "duration": 31, "velocity": 69}, {"time": 4102, "pitch": 76, "duration": 24, "velocity": 78}, {"time": 4138, "pitch": 62, "duration": 24, "velocity": 65}, {"time": 4144, "pitch": 69, "duration": 29, "velocity": 71}, {"time": 4150, "pitch": 74, "duration": 23, "velocity": 77}, {"time": 4186, "pitch": 64, "duration": 24, "velocity": 72}, {"time": 4192, "pitch": 71, "duration": 30, "velocity": 72}, {"time": 4198, "pitch": 76, "duration": 22, "velocity": 72}, {"time": 4234, "pitch": 64, "duration": 26, "velocity": 67}, {"time": 4240, "pitch": 69, "duration": 27, "velocity": 68}, {"time": 4246, "pitch": 73, "duration": 21, "velocity": 63}, {"time": 4276, "pitch": 76, "duration": 16, "velocity": 95}, {"time": 4294, "pitch": 64, "duration": 5, "velocity": 93}, {"time": 4300, "pitch": 76, "duration": 6, "velocity": 96}, {"time": 4306, "pitch": 78, "duration": 3, "velocity": 88}, {"time": 4309, "pitch": 76, "duration": 3, "velocity": 79}, {"time": 4312, "pitch": 73, "duration": 6, "velocity": 85}, {"time": 4318, "pitch": 74, "duration": 6, "velocity": 86}, {"time": 4323, "pitch": 76, "duration": 45, "velocity": 86}, {"time": 4372, "pitch": 76, "duration": 18, "velocity": 93}, {"time": 4390, "pitch": 64, "duration": 6, "velocity": 83}, {"time": 4396, "pitch": 76, "duration": 12, "velocity": 84}, {"time": 4408, "pitch": 78, "duration": 5, "velocity": 88}, {"time": 4413, "pitch": 79, "duration": 7, "velocity": 83}, {"time": 4419, "pitch": 78, "duration": 7, "velocity": 90}, {"time": 4426, "pitch": 76, "duration": 5, "velocity": 90}, {"time": 4432, "pitch": 74, "duration": 33, "velocity": 95}, {"time": 4467, "pitch": 74, "duration": 7, "velocity": 86}, {"time": 4473, "pitch": 73, "duration": 8, "velocity": 83}, {"time": 4480, "pitch": 71, "duration": 5, "velocity": 84}, {"time": 4485, "pitch": 69, "duration": 7, "velocity": 81}, {"time": 4491, "pitch": 71, "duration": 19, "velocity": 96}, {"time": 4510, "pitch": 76, "duration": 7, "velocity": 85}, {"time": 4516, "pitch": 74, "duration": 7, "velocity": 88}, {"time": 4522, "pitch": 73, "duration": 7, "velocity": 83}, {"time": 4528, "pitch": 71, "duration": 6, "velocity": 88}, {"time": 4534, "pitch": 69, "duration": 7, "velocity": 81}, {"time": 4540, "pitch": 71, "duration": 24, "velocity": 93}, {"time": 4564, "pitch": 71, "duration": 14, "velocity": 93}, {"time": 4576, "pitch": 73, "duration": 12, "velocity": 93}, {"time": 4588, "pitch": 80, "duration": 11, "velocity": 93}, {"time": 4600, "pitch": 78, "duration": 13, "velocity": 93}, {"time": 4612, "pitch": 76, "duration": 47, "velocity": 95}, {"time": 4660, "pitch": 74, "duration": 36, "velocity": 74}, {"time": 4660, "pitch": 78, "duration": 35, "velocity": 69}, {"time": 4705, "pitch": 74, "duration": 15, "velocity": 73}, {"time": 4705, "pitch": 78, "duration": 16, "velocity": 65}, {"time": 4732, "pitch": 73, "duration": 12, "velocity": 68}, {"time": 4744, "pitch": 76, "duration": 6, "velocity": 75}, {"time": 4756, "pitch": 74, "duration": 40, "velocity": 74}, {"time": 4756, "pitch": 78, "duration": 40, "velocity": 68}, {"time": 4804, "pitch": 74, "duration": 17, "velocity": 69}, {"time": 4804, "pitch": 78, "duration": 16, "velocity": 63}, {"time": 4828, "pitch": 73, "duration": 12, "velocity": 74}, {"time": 4840, "pitch": 71, "duration": 8, "velocity": 75}, {"time": 4852, "pitch": 71, "duration": 42, "velocity": 74}, {"time": 4852, "pitch": 74, "duration": 42, "velocity": 78}, {"time": 4900, "pitch": 73, "duration": 26, "velocity": 75}, {"time": 4924, "pitch": 76, "duration": 13, "velocity": 80}, {"time": 4936, "pitch": 73, "duration": 7, "velocity": 62}, {"time": 4948, "pitch": 69, "duration": 40, "velocity": 71}, {"time": 4948, "pitch": 74, "duration": 41, "velocity": 80}, {"time": 4996, "pitch": 71, "duration": 32, "velocity": 77}, {"time": 4996, "pitch": 75, "duration": 32, "velocity": 76}, {"time": 5032, "pitch": 71, "duration": 7, "velocity": 72}, {"time": 5032, "pitch": 75, "duration": 6, "velocity": 75}, {"time": 5044, "pitch": 71, "duration": 95, "velocity": 76}, {"time": 5044, "pitch": 76, "duration": 94, "velocity": 78}, {"time": 5140, "pitch": 73, "duration": 43, "velocity": 64}, {"time": 5170, "pitch": 69, "duration": 8, "velocity": 74}, {"time": 5176, "pitch": 64, "duration": 14, "velocity": 69}, {"time": 5188, "pitch": 71, "duration": 40, "velocity": 64}, {"time": 5236, "pitch": 69, "duration": 9, "velocity": 69}, {"time": 5242, "pitch": 62, "duration": 30, "velocity": 66}, {"time": 5248, "pitch": 69, "duration": 26, "velocity": 71}, {"time": 5254, "pitch": 74, "duration": 21, "velocity": 64}, {"time": 5284, "pitch": 73, "duration": 36, "velocity": 67}, {"time": 5333, "pitch": 73, "duration": 18, "velocity": 90}, {"time": 5350, "pitch": 64, "duration": 6, "velocity": 84}, {"time": 5355, "pitch": 69, "duration": 6, "velocity": 84}, {"time": 5361, "pitch": 71, "duration": 7, "velocity": 80}, {"time": 5367, "pitch": 73, "duration": 7, "velocity": 82}, {"time": 5374, "pitch": 74, "duration": 4, "velocity": 81}, {"time": 5377, "pitch": 73, "duration": 4, "velocity": 81}, {"time": 5381, "pitch": 71, "duration": 45, "velocity": 83}, {"time": 5425, "pitch": 69, "duration": 95, "velocity": 74}]}, {"program": 0, "is_drum": false, "name": "PIANO", "notes": [{"time": 52, "pitch": 45, "duration": 37, "velocity": 80}, {"time": 58, "pitch": 52, "duration": 41, "velocity": 78}, {"time": 64, "pitch": 59, "duration": 4, "velocity": 70}, {"time": 70, "pitch": 57, "duration": 27, "velocity": 73}, {"time": 70, "pitch": 64, "duration": 41, "velocity": 80}, {"time": 100, "pitch": 44, "duration": 29, "velocity": 75}, {"time": 106, "pitch": 52, "duration": 21, "velocity": 73}, {"time": 112, "pitch": 56, "duration": 20, "velocity": 80}, {"time": 118, "pitch": 59, "duration": 14, "velocity": 81}, {"time": 118, "pitch": 64, "duration": 15, "velocity": 82}, {"time": 148, "pitch": 38, "duration": 27, "velocity": 82}, {"time": 148, "pitch": 66, "duration": 16, "velocity": 74}, {"time": 154, "pitch": 45, "duration": 19, "velocity": 67}, {"time": 160, "pitch": 57, "duration": 5, "velocity": 76}, {"time": 166, "pitch": 57, "duration": 16, "velocity": 72}, {"time": 166, "pitch": 62, "duration": 17, "velocity": 81}, {"time": 196, "pitch": 40, "duration": 32, "velocity": 81}, {"time": 196, "pitch": 59, "duration": 5, "velocity": 70}, {"time": 196, "pitch": 64, "duration": 13, "velocity": 76}, {"time": 202, "pitch": 47, "duration": 25, "velocity": 69}, {"time": 208, "pitch": 59, "duration": 3, "velocity": 83}, {"time": 214, "pitch": 59, "duration": 4, "velocity": 79}, {"time": 214, "pitch": 68, "duration": 8, "velocity": 81}, {"time": 226, "pitch": 59, "duration": 4, "velocity": 79}, {"time": 226, "pitch": 64, "duration": 4, "velocity": 80}, {"time": 244, "pitch": 45, "duration": 39, "velocity": 78}, {"time": 244, "pitch": 57, "duration": 14, "velocity": 72}, {"time": 244, "pitch": 64, "duration": 12, "velocity": 80}, {"time": 250, "pitch": 52, "duration": 16, "velocity": 74}, {"time": 256, "pitch": 59, "duration": 3, "velocity": 81}, {"time": 262, "pitch": 57, "duration": 4, "velocity": 75}, {"time": 262, "pitch": 64, "duration": 6, "velocity": 84}, {"time": 268, "pitch": 52, "duration": 14, "velocity": 75}, {"time": 274, "pitch": 57, "duration": 5, "velocity": 74}, {"time": 274, "pitch": 61, "duration": 7, "velocity": 79}, {"time": 292, "pitch": 38, "duration": 36, "velocity": 77}, {"time": 292, "pitch": 57, "duration": 6, "velocity": 71}, {"time": 292, "pitch": 62, "duration": 13, "velocity": 74}, {"time": 298, "pitch": 45, "duration": 30, "velocity": 75}, {"time": 304, "pitch": 57, "duration": 10, "velocity": 77}, {"time": 310, "pitch": 62, "duration": 13, "velocity": 79}, {"time": 328, "pitch": 64, "duration": 5, "velocity": 74}, {"time": 340, "pitch": 47, "duration": 13, "velocity": 80}, {"time": 340, "pitch": 59, "duration": 7, "velocity": 75}, {"time": 340, "pitch": 62, "duration": 12, "velocity": 76}, {"time": 346, "pitch": 54, "duration": 6, "velocity": 67}, {"time": 352, "pitch": 59, "duration": 9, "velocity": 80}, {"time": 358, "pitch": 62, "duration": 6, "velocity": 80}, {"time": 364, "pitch": 40, "duration": 14, "velocity": 81}, {"time": 364, "pitch": 64, "duration": 24, "velocity": 80}, {"time": 370, "pitch": 47, "duration": 7, "velocity": 72}, {"time": 376, "pitch": 52, "duration": 5, "velocity": 80}, {"time": 388, "pitch": 45, "duration": 39, "velocity": 80}, {"time": 388, "pitch": 57, "duration": 15, "velocity": 72}, {"time": 394, "pitch": 52, "duration": 32, "velocity": 70}, {"time": 400, "pitch": 61, "duration": 3, "velocity": 64}, {"time": 406, "pitch": 57, "duration": 14, "velocity": 78}, {"time": 406, "pitch": 64, "duration": 14, "velocity": 81}, {"time": 436, "pitch": 45, "duration": 30, "velocity": 76}, {"time": 436, "pitch": 69, "duration": 13, "velocity": 81}, {"time": 442, "pitch": 52, "duration": 22, "velocity": 74}, {"time": 448, "pitch": 57, "duration": 13, "velocity": 80}, {"time": 454, "pitch": 64, "duration": 9, "velocity": 81}, {"time": 484, "pitch": 40, "duration": 35, "velocity": 81}, {"time": 484, "pitch": 59, "duration": 7, "velocity": 72}, {"time": 484, "pitch": 68, "duration": 13, "velocity": 70}, {"time": 490, "pitch": 47, "duration": 27, "velocity": 71}, {"time": 496, "pitch": 64, "duration": 17, "velocity": 80}, {"time": 502, "pitch": 59, "duration": 14, "velocity": 82}, {"time": 532, "pitch": 50, "duration": 32, "velocity": 79}, {"time": 532, "pitch": 66, "duration": 12, "velocity": 79}, {"time": 538, "pitch": 57, "duration": 9, "velocity": 73}, {"time": 544, "pitch": 62, "duration": 3, "velocity": 74}, {"time": 550, "pitch": 57, "duration": 5, "velocity": 75}, {"time": 550, "pitch": 64, "duration": 5, "velocity": 80}, {"time": 562, "pitch": 62, "duration": 3, "velocity": 74}, {"time": 580, "pitch": 40, "duration": 33, "velocity": 80}, {"time": 580, "pitch": 64, "duration": 19, "velocity": 79}, {"time": 586, "pitch": 47, "duration": 27, "velocity": 68}, {"time": 592, "pitch": 52, "duration": 8, "velocity": 77}, {"time": 598, "pitch": 59, "duration": 16, "velocity": 76}, {"time": 610, "pitch": 52, "duration": 4, "velocity": 81}, {"time": 628, "pitch": 45, "duration": 40, "velocity": 81}, {"time": 628, "pitch": 57, "duration": 6, "velocity": 75}, {"time": 628, "pitch": 61, "duration": 9, "velocity": 76}, {"time": 634, "pitch": 52, "duration": 31, "velocity": 78}, {"time": 640, "pitch": 59, "duration": 4, "velocity": 80}, {"time": 646, "pitch": 57, "duration": 9, "velocity": 71}, {"time": 646, "pitch": 64, "duration": 9, "velocity": 83}, {"time": 658, "pitch": 61, "duration": 5, "velocity": 81}, {"time": 664, "pitch": 57, "duration": 3, "velocity": 77}, {"time": 676, "pitch": 50, "duration": 38, "velocity": 82}, {"time": 676, "pitch": 57, "duration": 2, "velocity": 74}, {"time": 676, "pitch": 62, "duration": 7, "velocity": 75}, {"time": 682, "pitch": 57, "duration": 6, "velocity": 73}, {"time": 688, "pitch": 64, "duration": 6, "velocity": 72}, {"time": 694, "pitch": 62, "duration": 6, "velocity": 68}, {"time": 718, "pitch": 62, "duration": 5, "velocity": 71}, {"time": 724, "pitch": 45, "duration": 30, "velocity": 80}, {"time": 724, "pitch": 61, "duration": 11, "velocity": 80}, {"time": 730, "pitch": 52, "duration": 14, "velocity": 73}, {"time": 736, "pitch": 57, "duration": 2, "velocity": 80}, {"time": 742, "pitch": 57, "duration": 9, "velocity": 79}, {"time": 742, "pitch": 61, "duration": 12, "velocity": 80}, {"time": 754, "pitch": 59, "duration": 5, "velocity": 73}, {"time": 760, "pitch": 57, "duration": 6, "velocity": 80}, {"time": 772, "pitch": 40, "duration": 48, "velocity": 79}, {"time": 772, "pitch": 59, "duration": 13, "velocity": 74}, {"time": 778, "pitch": 47, "duration": 27, "velocity": 70}, {"time": 784, "pitch": 52, "duration": 8, "velocity": 85}, {"time": 790, "pitch": 59, "duration": 29, "velocity": 79}, {"time": 802, "pitch": 64, "duration": 18, "velocity": 82}, {"time": 808, "pitch": 47, "duration": 11, "velocity": 75}, {"time": 814, "pitch": 52, "duration": 5, "velocity": 84}, {"time": 820, "pitch": 45, "duration": 30, "velocity": 76}, {"time": 820, "pitch": 69, "duration": 13, "velocity": 81}, {"time": 826, "pitch": 52, "duration": 22, "velocity": 74}, {"time": 832, "pitch": 57, "duration": 13, "velocity": 80}, {"time": 838, "pitch": 64, "duration": 9, "velocity": 81}, {"time": 868, "pitch": 40, "duration": 35, "velocity": 81}, {"time": 868, "pitch": 59, "duration": 7, "velocity": 72}, {"time": 868, "pitch": 68, "duration": 13, "velocity": 70}, {"time": 874, "pitch": 47, "duration": 27, "velocity": 71}, {"time": 880, "pitch": 64, "duration": 17, "velocity": 80}, {"time": 886, "pitch": 59, "duration": 14, "velocity": 82}, {"time": 916, "pitch": 50, "duration": 32, "velocity": 79}, {"time": 916, "pitch": 66, "duration": 12, "velocity": 79}, {"time": 922, "pitch": 57, "duration": 9, "velocity": 73}, {"time": 928, "pitch": 62, "duration": 3, "velocity": 74}, {"time": 934, "pitch": 57, "duration": 5, "velocity": 75}, {"time": 934, "pitch": 64, "duration": 5, "velocity": 80}, {"time": 946, "pitch": 62, "duration": 3, "velocity": 74}, {"time": 964, "pitch": 40, "duration": 33, "velocity": 80}, {"time": 964, "pitch": 64, "duration": 19, "velocity": 79}, {"time": 970, "pitch": 47, "duration": 27, "velocity": 68}, {"time": 976, "pitch": 52, "duration": 8, "velocity": 77}, {"time": 982, "pitch": 59, "duration": 16, "velocity": 76}, {"time": 994, "pitch": 52, "duration": 4, "velocity": 81}, {"time": 1012, "pitch": 45, "duration": 40, "velocity": 81}, {"time": 1012, "pitch": 57, "duration": 6, "velocity": 75}, {"time": 1012, "pitch": 61, "duration": 9, "velocity": 76}, {"time": 1018, "pitch": 52, "duration": 31, "velocity": 78}, {"time": 1024, "pitch": 59, "duration": 4, "velocity": 80}, {"time": 1030, "pitch": 57, "duration": 9, "velocity": 71}, {"time": 1030, "pitch": 64, "duration": 9, "velocity": 83}, {"time": 1042, "pitch": 61, "duration": 5, "velocity": 81}, {"time": 1048, "pitch": 57, "duration": 3, "velocity": 77}, {"time": 1060, "pitch": 50, "duration": 38, "velocity": 82}, {"time": 1060, "pitch": 57, "duration": 2, "velocity": 74}, {"time": 1060, "pitch": 62, "duration": 7, "velocity": 75}, {"time": 1066, "pitch": 57, "duration": 6, "velocity": 73}, {"time": 1072, "pitch": 64, "duration": 6, "velocity": 72}, {"time": 1078, "pitch": 62, "duration": 6, "velocity": 68}, {"time": 1102, "pitch": 62, "duration": 5, "velocity": 71}, {"time": 1108, "pitch": 40, "duration": 37, "velocity": 83}, {"time": 1108, "pitch": 64, "duration": 13, "velocity": 84}, {"time": 1114, "pitch": 47, "duration": 16, "velocity": 74}, {"time": 1120, "pitch": 52, "duration": 3, "velocity": 83}, {"time": 1126, "pitch": 52, "duration": 9, "velocity": 83}, {"time": 1126, "pitch": 59, "duration": 17, "velocity": 80}, {"time": 1132, "pitch": 47, "duration": 13, "velocity": 74}, {"time": 1156, "pitch": 45, "duration": 33, "velocity": 79}, {"time": 1156, "pitch": 57, "duration": 8, "velocity": 78}, {"time": 1156, "pitch": 61, "duration": 9, "velocity": 72}, {"time": 1162, "pitch": 52, "duration": 14, "velocity": 80}, {"time": 1168, "pitch": 59, "duration": 4, "velocity": 81}, {"time": 1174, "pitch": 57, "duration": 7, "velocity": 75}, {"time": 1174, "pitch": 61, "duration": 8, "velocity": 86}, {"time": 1180, "pitch": 52, "duration": 9, "velocity": 83}, {"time": 1186, "pitch": 57, "duration": 4, "velocity": 79}, {"time": 1186, "pitch": 61, "duration": 4, "velocity": 85}, {"time": 1186, "pitch": 64, "duration": 5, "velocity": 83}, {"time": 1204, "pitch": 38, "duration": 15, "velocity": 85}, {"time": 1204, "pitch": 57, "duration": 5, "velocity": 78}, {"time": 1204, "pitch": 62, "duration": 7, "velocity": 79}, {"time": 1204, "pitch": 66, "duration": 7, "velocity": 72}, {"time": 1210, "pitch": 45, "duration": 8, "velocity": 69}, {"time": 1216, "pitch": 62, "duration": 4, "velocity": 84}, {"time": 1216, "pitch": 66, "duration": 8, "velocity": 85}, {"time": 1222, "pitch": 57, "duration": 4, "velocity": 83}, {"time": 1222, "pitch": 62, "duration": 2, "velocity": 55}, {"time": 1228, "pitch": 50, "duration": 19, "velocity": 80}, {"time": 1228, "pitch": 57, "duration": 3, "velocity": 74}, {"time": 1228, "pitch": 62, "duration": 8, "velocity": 79}, {"time": 1234, "pitch": 57, "duration": 2, "velocity": 74}, {"time": 1240, "pitch": 57, "duration": 2, "velocity": 77}, {"time": 1240, "pitch": 62, "duration": 7, "velocity": 84}, {"time": 1240, "pitch": 66, "duration": 9, "velocity": 81}, {"time": 1246, "pitch": 57, "duration": 3, "velocity": 78}, {"time": 1252, "pitch": 50, "duration": 20, "velocity": 86}, {"time": 1252, "pitch": 57, "duration": 3, "velocity": 82}, {"time": 1252, "pitch": 62, "duration": 7, "velocity": 84}, {"time": 1258, "pitch": 57, "duration": 2, "velocity": 73}, {"time": 1264, "pitch": 57, "duration": 2, "velocity": 77}, {"time": 1264, "pitch": 62, "duration": 6, "velocity": 74}, {"time": 1264, "pitch": 66, "duration": 7, "velocity": 67}, {"time": 1270, "pitch": 57, "duration": 3, "velocity": 81}, {"time": 1276, "pitch": 49, "duration": 19, "velocity": 90}, {"time": 1276, "pitch": 61, "duration": 7, "velocity": 68}, {"time": 1276, "pitch": 64, "duration": 9, "velocity": 80}, {"time": 1282, "pitch": 57, "duration": 3, "velocity": 73}, {"time": 1288, "pitch": 57, "duration": 2, "velocity": 79}, {"time": 1288, "pitch": 61, "duration": 10, "velocity": 88}, {"time": 1288, "pitch": 64, "duration": 10, "velocity": 84}, {"time": 1294, "pitch": 57, "duration": 5, "velocity": 74}, {"time": 1300, "pitch": 38, "duration": 15, "velocity": 85}, {"time": 1300, "pitch": 57, "duration": 5, "velocity": 78}, {"time": 1300, "pitch": 62, "duration": 7, "velocity": 79}, {"time": 1300, "pitch": 66, "duration": 7, "velocity": 72}, {"time": 1306, "pitch": 45, "duration": 8, "velocity": 69}, {"time": 1312, "pitch": 62, "duration": 4, "velocity": 84}, {"time": 1312, "pitch": 66, "duration": 8, "velocity": 85}, {"time": 1318, "pitch": 57, "duration": 4, "velocity": 83}, {"time": 1318, "pitch": 62, "duration": 2, "velocity": 55}, {"time": 1324, "pitch": 50, "duration": 19, "velocity": 80}, {"time": 1324, "pitch": 57, "duration": 3, "velocity": 74}, {"time": 1324, "pitch": 62, "duration": 8, "velocity": 79}, {"time": 1330, "pitch": 57, "duration": 2, "velocity": 74}, {"time": 1336, "pitch": 57, "duration": 2, "velocity": 77}, {"time": 1336, "pitch": 62, "duration": 7, "velocity": 84}, {"time": 1336, "pitch": 66, "duration": 9, "velocity": 81}, {"time": 1342, "pitch": 57, "duration": 3, "velocity": 78}, {"time": 1348, "pitch": 50, "duration": 20, "velocity": 86}, {"time": 1348, "pitch": 57, "duration": 3, "velocity": 82}, {"time": 1348, "pitch": 62, "duration": 7, "velocity": 84}, {"time": 1354, "pitch": 57, "duration": 2, "velocity": 73}, {"time": 1360, "pitch": 57, "duration": 2, "velocity": 77}, {"time": 1360, "pitch": 62, "duration": 6, "velocity": 74}, {"time": 1360, "pitch": 66, "duration": 7, "velocity": 67}, {"time": 1366, "pitch": 57, "duration": 3, "velocity": 81}, {"time": 1372, "pitch": 49, "duration": 19, "velocity": 90}, {"time": 1372, "pitch": 61, "duration": 7, "velocity": 68}, {"time": 1372, "pitch": 64, "duration": 9, "velocity": 80}, {"time": 1378, "pitch": 57, "duration": 3, "velocity": 73}, {"time": 1384, "pitch": 57, "duration": 2, "velocity": 79}, {"time": 1384, "pitch": 61, "duration": 10, "velocity": 88}, {"time": 1384, "pitch": 64, "duration": 10, "velocity": 84}, {"time": 1390, "pitch": 57, "duration": 5, "velocity": 74}, {"time": 1396, "pitch": 47, "duration": 35, "velocity": 80}, {"time": 1396, "pitch": 59, "duration": 3, "velocity": 81}, {"time": 1396, "pitch": 62, "duration": 6, "velocity": 82}, {"time": 1396, "pitch": 66, "duration": 7, "velocity": 81}, {"time": 1402, "pitch": 59, "duration": 2, "velocity": 79}, {"time": 1408, "pitch": 59, "duration": 4, "velocity": 83}, {"time": 1408, "pitch": 62, "duration": 6, "velocity": 83}, {"time": 1408, "pitch": 66, "duration": 6, "velocity": 83}, {"time": 1414, "pitch": 54, "duration": 9, "velocity": 67}, {"time": 1420, "pitch": 59, "duration": 7, "velocity": 82}, {"time": 1420, "pitch": 62, "duration": 7, "velocity": 79}, {"time": 1420, "pitch": 66, "duration": 8, "velocity": 74}, {"time": 1426, "pitch": 54, "duration": 5, "velocity": 72}, {"time": 1432, "pitch": 59, "duration": 2, "velocity": 84}, {"time": 1432, "pitch": 62, "duration": 4, "velocity": 81}, {"time": 1432, "pitch": 66, "duration": 5, "velocity": 80}, {"time": 1438, "pitch": 59, "duration": 3, "velocity": 81}, {"time": 1444, "pitch": 49, "duration": 21, "velocity": 85}, {"time": 1444, "pitch": 61, "duration": 6, "velocity": 74}, {"time": 1444, "pitch": 64, "duration": 8, "velocity": 79}, {"time": 1456, "pitch": 56, "duration": 1, "velocity": 75}, {"time": 1456, "pitch": 61, "duration": 3, "velocity": 81}, {"time": 1456, "pitch": 64, "duration": 3, "velocity": 80}, {"time": 1462, "pitch": 56, "duration": 3, "velocity": 80}, {"time": 1468, "pitch": 49, "duration": 13, "velocity": 77}, {"time": 1468, "pitch": 56, "duration": 3, "velocity": 80}, {"time": 1468, "pitch": 61, "duration": 10, "velocity": 80}, {"time": 1468, "pitch": 64, "duration": 9, "velocity": 82}, {"time": 1474, "pitch": 56, "duration": 5, "velocity": 80}, {"time": 1480, "pitch": 56, "duration": 1, "velocity": 80}, {"time": 1480, "pitch": 61, "duration": 3, "velocity": 80}, {"time": 1480, "pitch": 64, "duration": 3, "velocity": 86}, {"time": 1492, "pitch": 38, "duration": 13, "velocity": 83}, {"time": 1492, "pitch": 62, "duration": 7, "velocity": 75}, {"time": 1492, "pitch": 66, "duration": 7, "velocity": 74}, {"time": 1498, "pitch": 57, "duration": 2, "velocity": 67}, {"time": 1504, "pitch": 57, "duration": 2, "velocity": 80}, {"time": 1504, "pitch": 62, "duration": 3, "velocity": 84}, {"time": 1504, "pitch": 66, "duration": 4, "velocity": 83}, {"time": 1510, "pitch": 57, "duration": 3, "velocity": 73}, {"time": 1510, "pitch": 62, "duration": 2, "velocity": 65}, {"time": 1516, "pitch": 57, "duration": 3, "velocity": 74}, {"time": 1516, "pitch": 62, "duration": 8, "velocity": 80}, {"time": 1516, "pitch": 66, "duration": 8, "velocity": 79}, {"time": 1522, "pitch": 57, "duration": 3, "velocity": 73}, {"time": 1528, "pitch": 57, "duration": 2, "velocity": 74}, {"time": 1528, "pitch": 62, "duration": 7, "velocity": 82}, {"time": 1528, "pitch": 66, "duration": 9, "velocity": 81}, {"time": 1534, "pitch": 57, "duration": 2, "velocity": 74}, {"time": 1540, "pitch": 51, "duration": 5, "velocity": 88}, {"time": 1540, "pitch": 59, "duration": 1, "velocity": 62}, {"time": 1540, "pitch": 59, "duration": 1, "velocity": 79}, {"time": 1540, "pitch": 63, "duration": 7, "velocity": 79}, {"time": 1540, "pitch": 66, "duration": 7, "velocity": 76}, {"time": 1546, "pitch": 59, "duration": 2, "velocity": 77}, {"time": 1552, "pitch": 59, "duration": 2, "velocity": 79}, {"time": 1552, "pitch": 63, "duration": 3, "velocity": 88}, {"time": 1552, "pitch": 66, "duration": 3, "velocity": 82}, {"time": 1558, "pitch": 59, "duration": 3, "velocity": 81}, {"time": 1564, "pitch": 39, "duration": 3, "velocity": 83}, {"time": 1564, "pitch": 59, "duration": 2, "velocity": 75}, {"time": 1564, "pitch": 63, "duration": 3, "velocity": 86}, {"time": 1564, "pitch": 66, "duration": 7, "velocity": 82}, {"time": 1570, "pitch": 59, "duration": 2, "velocity": 75}, {"time": 1576, "pitch": 59, "duration": 2, "velocity": 82}, {"time": 1576, "pitch": 63, "duration": 2, "velocity": 90}, {"time": 1576, "pitch": 66, "duration": 4, "velocity": 84}, {"time": 1582, "pitch": 59, "duration": 3, "velocity": 80}, {"time": 1588, "pitch": 40, "duration": 32, "velocity": 83}, {"time": 1588, "pitch": 52, "duration": 6, "velocity": 79}, {"time": 1588, "pitch": 64, "duration": 12, "velocity": 83}, {"time": 1594, "pitch": 47, "duration": 14, "velocity": 72}, {"time": 1600, "pitch": 52, "duration": 3, "velocity": 81}, {"time": 1606, "pitch": 52, "duration": 5, "velocity": 81}, {"time": 1606, "pitch": 64, "duration": 5, "velocity": 84}, {"time": 1612, "pitch": 47, "duration": 8, "velocity": 80}, {"time": 1618, "pitch": 52, "duration": 3, "velocity": 79}, {"time": 1618, "pitch": 56, "duration": 4, "velocity": 71}, {"time": 1618, "pitch": 59, "duration": 5, "velocity": 78}, {"time": 1636, "pitch": 40, "duration": 39, "velocity": 78}, {"time": 1636, "pitch": 52, "duration": 6, "velocity": 79}, {"time": 1636, "pitch": 56, "duration": 6, "velocity": 67}, {"time": 1636, "pitch": 59, "duration": 7, "velocity": 76}, {"time": 1636, "pitch": 64, "duration": 9, "velocity": 73}, {"time": 1660, "pitch": 64, "duration": 4, "velocity": 80}, {"time": 1660, "pitch": 76, "duration": 13, "velocity": 78}, {"time": 1666, "pitch": 71, "duration": 16, "velocity": 69}, {"time": 1672, "pitch": 64, "duration": 11, "velocity": 73}, {"time": 1684, "pitch": 45, "duration": 37, "velocity": 79}, {"time": 1684, "pitch": 57, "duration": 8, "velocity": 72}, {"time": 1684, "pitch": 69, "duration": 8, "velocity": 78}, {"time": 1690, "pitch": 52, "duration": 27, "velocity": 73}, {"time": 1696, "pitch": 57, "duration": 4, "velocity": 79}, {"time": 1702, "pitch": 59, "duration": 4, "velocity": 80}, {"time": 1714, "pitch": 57, "duration": 4, "velocity": 72}, {"time": 1714, "pitch": 61, "duration": 4, "velocity": 76}, {"time": 1732, "pitch": 40, "duration": 35, "velocity": 72}, {"time": 1732, "pitch": 64, "duration": 11, "velocity": 82}, {"time": 1738, "pitch": 52, "duration": 34, "velocity": 72}, {"time": 1744, "pitch": 59, "duration": 3, "velocity": 80}, {"time": 1750, "pitch": 59, "duration": 10, "velocity": 80}, {"time": 1750, "pitch": 64, "duration": 10, "velocity": 84}, {"time": 1762, "pitch": 59, "duration": 5, "velocity": 79}, {"time": 1762, "pitch": 64, "duration": 6, "velocity": 81}, {"time": 1780, "pitch": 50, "duration": 37, "velocity": 73}, {"time": 1780, "pitch": 57, "duration": 4, "velocity": 69}, {"time": 1780, "pitch": 66, "duration": 12, "velocity": 74}, {"time": 1786, "pitch": 57, "duration": 9, "velocity": 72}, {"time": 1792, "pitch": 62, "duration": 4, "velocity": 76}, {"time": 1798, "pitch": 57, "duration": 10, "velocity": 80}, {"time": 1798, "pitch": 64, "duration": 16, "velocity": 81}, {"time": 1816, "pitch": 62, "duration": 5, "velocity": 78}, {"time": 1828, "pitch": 45, "duration": 48, "velocity": 78}, {"time": 1828, "pitch": 57, "duration": 8, "velocity": 72}, {"time": 1828, "pitch": 61, "duration": 6, "velocity": 73}, {"time": 1834, "pitch": 52, "duration": 27, "velocity": 78}, {"time": 1840, "pitch": 59, "duration": 3, "velocity": 74}, {"time": 1846, "pitch": 57, "duration": 4, "velocity": 70}, {"time": 1846, "pitch": 64, "duration": 6, "velocity": 80}, {"time": 1858, "pitch": 61, "duration": 18, "velocity": 68}, {"time": 1864, "pitch": 52, "duration": 12, "velocity": 72}, {"time": 1876, "pitch": 45, "duration": 1, "velocity": 79}, {"time": 1876, "pitch": 57, "duration": 7, "velocity": 69}, {"time": 1876, "pitch": 61, "duration": 1, "velocity": 60}, {"time": 1876, "pitch": 69, "duration": 11, "velocity": 78}, {"time": 1882, "pitch": 52, "duration": 27, "velocity": 79}, {"time": 1888, "pitch": 59, "duration": 6, "velocity": 80}, {"time": 1894, "pitch": 57, "duration": 6, "velocity": 73}, {"time": 1894, "pitch": 61, "duration": 7, "velocity": 74}, {"time": 1906, "pitch": 57, "duration": 4, "velocity": 75}, {"time": 1906, "pitch": 64, "duration": 6, "velocity": 82}, {"time": 1912, "pitch": 52, "duration": 3, "velocity": 71}, {"time": 1924, "pitch": 47, "duration": 32, "velocity": 80}, {"time": 1924, "pitch": 59, "duration": 7, "velocity": 75}, {"time": 1924, "pitch": 62, "duration": 11, "velocity": 75}, {"time": 1930, "pitch": 54, "duration": 21, "velocity": 74}, {"time": 1936, "pitch": 59, "duration": 2, "velocity": 81}, {"time": 1942, "pitch": 59, "duration": 4, "velocity": 79}, {"time": 1942, "pitch": 66, "duration": 6, "velocity": 75}, {"time": 1960, "pitch": 62, "duration": 8, "velocity": 77}, {"time": 1966, "pitch": 59, "duration": 6, "velocity": 71}, {"time": 1972, "pitch": 40, "duration": 35, "velocity": 80}, {"time": 1972, "pitch": 64, "duration": 31, "velocity": 80}, {"time": 1978, "pitch": 47, "duration": 27, "velocity": 77}, {"time": 1984, "pitch": 52, "duration": 8, "velocity": 82}, {"time": 1990, "pitch": 59, "duration": 14, "velocity": 80}, {"time": 2002, "pitch": 52, "duration": 4, "velocity": 78}, {"time": 2008, "pitch": 52, "duration": 3, "velocity": 72}, {"time": 2008, "pitch": 56, "duration": 4, "velocity": 67}, {"time": 2008, "pitch": 59, "duration": 4, "velocity": 72}, {"time": 2008, "pitch": 64, "duration": 6, "velocity": 71}, {"time": 2020, "pitch": 45, "duration": 37, "velocity": 80}, {"time": 2020, "pitch": 57, "duration": 12, "velocity": 72}, {"time": 2020, "pitch": 61, "duration": 7, "velocity": 72}, {"time": 2026, "pitch": 52, "duration": 16, "velocity": 81}, {"time": 2032, "pitch": 59, "duration": 7, "velocity": 79}, {"time": 2038, "pitch": 61, "duration": 9, "velocity": 85}, {"time": 2044, "pitch": 52, "duration": 9, "velocity": 77}, {"time": 2050, "pitch": 57, "duration": 3, "velocity": 73}, {"time": 2050, "pitch": 61, "duration": 5, "velocity": 79}, {"time": 2050, "pitch": 64, "duration": 6, "velocity": 79}, {"time": 2056, "pitch": 52, "duration": 2, "velocity": 78}, {"time": 2068, "pitch": 38, "duration": 31, "velocity": 82}, {"time": 2068, "pitch": 57, "duration": 6, "velocity": 73}, {"time": 2068, "pitch": 66, "duration": 13, "velocity": 72}, {"time": 2074, "pitch": 45, "duration": 23, "velocity": 75}, {"time": 2080, "pitch": 57, "duration": 13, "velocity": 76}, {"time": 2086, "pitch": 62, "duration": 6, "velocity": 79}, {"time": 2092, "pitch": 64, "duration": 7, "velocity": 81}, {"time": 2098, "pitch": 62, "duration": 6, "velocity": 78}, {"time": 2110, "pitch": 57, "duration": 3, "velocity": 72}, {"time": 2116, "pitch": 38, "duration": 33, "velocity": 82}, {"time": 2116, "pitch": 57, "duration": 4, "velocity": 74}, {"time": 2116, "pitch": 62, "duration": 8, "velocity": 79}, {"time": 2122, "pitch": 45, "duration": 16, "velocity": 72}, {"time": 2128, "pitch": 64, "duration": 6, "velocity": 73}, {"time": 2134, "pitch": 62, "duration": 11, "velocity": 78}, {"time": 2140, "pitch": 45, "duration": 9, "velocity": 67}, {"time": 2146, "pitch": 57, "duration": 6, "velocity": 76}, {"time": 2152, "pitch": 62, "duration": 3, "velocity": 78}, {"time": 2164, "pitch": 45, "duration": 29, "velocity": 80}, {"time": 2164, "pitch": 57, "duration": 4, "velocity": 69}, {"time": 2164, "pitch": 64, "duration": 13, "velocity": 79}, {"time": 2170, "pitch": 52, "duration": 22, "velocity": 78}, {"time": 2176, "pitch": 57, "duration": 6, "velocity": 80}, {"time": 2182, "pitch": 59, "duration": 4, "velocity": 83}, {"time": 2188, "pitch": 57, "duration": 3, "velocity": 75}, {"time": 2188, "pitch": 61, "duration": 5, "velocity": 86}, {"time": 2194, "pitch": 64, "duration": 2, "velocity": 79}, {"time": 2212, "pitch": 40, "duration": 47, "velocity": 83}, {"time": 2212, "pitch": 52, "duration": 8, "velocity": 80}, {"time": 2212, "pitch": 64, "duration": 19, "velocity": 80}, {"time": 2218, "pitch": 47, "duration": 40, "velocity": 70}, {"time": 2224, "pitch": 56, "duration": 7, "velocity": 77}, {"time": 2230, "pitch": 59, "duration": 28, "velocity": 74}, {"time": 2236, "pitch": 64, "duration": 22, "velocity": 81}, {"time": 2254, "pitch": 56, "duration": 3, "velocity": 22}, {"time": 2260, "pitch": 45, "duration": 30, "velocity": 76}, {"time": 2260, "pitch": 69, "duration": 13, "velocity": 81}, {"time": 2266, "pitch": 52, "duration": 22, "velocity": 74}, {"time": 2272, "pitch": 57, "duration": 13, "velocity": 80}, {"time": 2278, "pitch": 64, "duration": 9, "velocity": 81}, {"time": 2308, "pitch": 40, "duration": 35, "velocity": 81}, {"time": 2308, "pitch": 59, "duration": 7, "velocity": 72}, {"time": 2308, "pitch": 68, "duration": 13, "velocity": 70}, {"time": 2314, "pitch": 47, "duration": 27, "velocity": 71}, {"time": 2320, "pitch": 64, "duration": 17, "velocity": 80}, {"time": 2326, "pitch": 59, "duration": 14, "velocity": 82}, {"time": 2356, "pitch": 50, "duration": 32, "velocity": 79}, {"time": 2356, "pitch": 66, "duration": 12, "velocity": 79}, {"time": 2362, "pitch": 57, "duration": 9, "velocity": 73}, {"time": 2368, "pitch": 62, "duration": 3, "velocity": 74}, {"time": 2374, "pitch": 57, "duration": 5, "velocity": 75}, {"time": 2374, "pitch": 64, "duration": 5, "velocity": 80}, {"time": 2386, "pitch": 62, "duration": 3, "velocity": 74}, {"time": 2404, "pitch": 40, "duration": 33, "velocity": 80}, {"time": 2404, "pitch": 64, "duration": 19, "velocity": 79}, {"time": 2410, "pitch": 47, "duration": 27, "velocity": 68}, {"time": 2416, "pitch": 52, "duration": 8, "velocity": 77}, {"time": 2422, "pitch": 59, "duration": 16, "velocity": 76}, {"time": 2434, "pitch": 52, "duration": 4, "velocity": 81}, {"time": 2452, "pitch": 45, "duration": 40, "velocity": 81}, {"time": 2452, "pitch": 57, "duration": 6, "velocity": 75}, {"time": 2452, "pitch": 61, "duration": 9, "velocity": 76}, {"time": 2458, "pitch": 52, "duration": 31, "velocity": 78}, {"time": 2464, "pitch": 59, "duration": 4, "velocity": 80}, {"time": 2470, "pitch": 57, "duration": 9, "velocity": 71}, {"time": 2470, "pitch": 64, "duration": 9, "velocity": 83}, {"time": 2482, "pitch": 61, "duration": 5, "velocity": 81}, {"time": 2488, "pitch": 57, "duration": 3, "velocity": 77}, {"time": 2500, "pitch": 50, "duration": 38, "velocity": 82}, {"time": 2500, "pitch": 57, "duration": 2, "velocity": 74}, {"time": 2500, "pitch": 62, "duration": 7, "velocity": 75}, {"time": 2506, "pitch": 57, "duration": 6, "velocity": 73}, {"time": 2512, "pitch": 64, "duration": 6, "velocity": 72}, {"time": 2518, "pitch": 62, "duration": 6, "velocity": 68}, {"time": 2542, "pitch": 62, "duration": 5, "velocity": 71}, {"time": 2548, "pitch": 45, "duration": 30, "velocity": 80}, {"time": 2548, "pitch": 61, "duration": 11, "velocity": 80}, {"time": 2554, "pitch": 52, "duration": 14, "velocity": 73}, {"time": 2560, "pitch": 57, "duration": 2, "velocity": 80}, {"time": 2566, "pitch": 57, "duration": 9, "velocity": 79}, {"time": 2566, "pitch": 61, "duration": 12, "velocity": 80}, {"time": 2578, "pitch": 59, "duration": 5, "velocity": 73}, {"time": 2584, "pitch": 57, "duration": 6, "velocity": 80}, {"time": 2596, "pitch": 40, "duration": 48, "velocity": 79}, {"time": 2596, "pitch": 59, "duration": 13, "velocity": 74}, {"time": 2602, "pitch": 47, "duration": 27, "velocity": 70}, {"time": 2608, "pitch": 52, "duration": 8, "velocity": 85}, {"time": 2614, "pitch": 59, "duration": 29, "velocity": 79}, {"time": 2626, "pitch": 64, "duration": 18, "velocity": 82}, {"time": 2632, "pitch": 47, "duration": 11, "velocity": 75}, {"time": 2638, "pitch": 52, "duration": 5, "velocity": 84}, {"time": 2644, "pitch": 45, "duration": 30, "velocity": 76}, {"time": 2644, "pitch": 69, "duration": 13, "velocity": 81}, {"time": 2650, "pitch": 52, "duration": 22, "velocity": 74}, {"time": 2656, "pitch": 57, "duration": 13, "velocity": 80}, {"time": 2662, "pitch": 64, "duration": 9, "velocity": 81}, {"time": 2692, "pitch": 40, "duration": 35, "velocity": 81}, {"time": 2692, "pitch": 59, "duration": 7, "velocity": 72}, {"time": 2692, "pitch": 68, "duration": 13, "velocity": 70}, {"time": 2698, "pitch": 47, "duration": 27, "velocity": 71}, {"time": 2704, "pitch": 64, "duration": 17, "velocity": 80}, {"time": 2710, "pitch": 59, "duration": 14, "velocity": 82}, {"time": 2740, "pitch": 50, "duration": 32, "velocity": 79}, {"time": 2740, "pitch": 66, "duration": 12, "velocity": 79}, {"time": 2746, "pitch": 57, "duration": 9, "velocity": 73}, {"time": 2752, "pitch": 62, "duration": 3, "velocity": 74}, {"time": 2758, "pitch": 57, "duration": 5, "velocity": 75}, {"time": 2758, "pitch": 64, "duration": 5, "velocity": 80}, {"time": 2770, "pitch": 62, "duration": 3, "velocity": 74}, {"time": 2788, "pitch": 40, "duration": 33, "velocity": 80}, {"time": 2788, "pitch": 64, "duration": 19, "velocity": 79}, {"time": 2794, "pitch": 47, "duration": 27, "velocity": 68}, {"time": 2800, "pitch": 52, "duration": 8, "velocity": 77}, {"time": 2806, "pitch": 59, "duration": 16, "velocity": 76}, {"time": 2818, "pitch": 52, "duration": 4, "velocity": 81}, {"time": 2836, "pitch": 45, "duration": 40, "velocity": 81}, {"time": 2836, "pitch": 57, "duration": 6, "velocity": 75}, {"time": 2836, "pitch": 61, "duration": 9, "velocity": 76}, {"time": 2842, "pitch": 52, "duration": 31, "velocity": 78}, {"time": 2848, "pitch": 59, "duration": 4, "velocity": 80}, {"time": 2854, "pitch": 57, "duration": 9, "velocity": 71}, {"time": 2854, "pitch": 64, "duration": 9, "velocity": 83}, {"time": 2866, "pitch": 61, "duration": 5, "velocity": 81}, {"time": 2872, "pitch": 57, "duration": 3, "velocity": 77}, {"time": 2884, "pitch": 50, "duration": 38, "velocity": 82}, {"time": 2884, "pitch": 57, "duration": 2, "velocity": 74}, {"time": 2884, "pitch": 62, "duration": 7, "velocity": 75}, {"time": 2890, "pitch": 57, "duration": 6, "velocity": 73}, {"time": 2896, "pitch": 64, "duration": 6, "velocity": 72}, {"time": 2902, "pitch": 62, "duration": 6, "velocity": 68}, {"time": 2926, "pitch": 62, "duration": 5, "velocity": 71}, {"time": 2932, "pitch": 40, "duration": 37, "velocity": 83}, {"time": 2932, "pitch": 64, "duration": 13, "velocity": 84}, {"time": 2938, "pitch": 47, "duration": 16, "velocity": 74}, {"time": 2944, "pitch": 52, "duration": 3, "velocity": 83}, {"time": 2950, "pitch": 52, "duration": 9, "velocity": 83}, {"time": 2950, "pitch": 59, "duration": 17, "velocity": 80}, {"time": 2956, "pitch": 47, "duration": 13, "velocity": 74}, {"time": 2980, "pitch": 45, "duration": 33, "velocity": 79}, {"time": 2980, "pitch": 57, "duration": 8, "velocity": 78}, {"time": 2980, "pitch": 61, "duration": 9, "velocity": 72}, {"time": 2986, "pitch": 52, "duration": 14, "velocity": 80}, {"time": 2992, "pitch": 59, "duration": 4, "velocity": 81}, {"time": 2998, "pitch": 57, "duration": 7, "velocity": 75}, {"time": 2998, "pitch": 61, "duration": 8, "velocity": 86}, {"time": 3004, "pitch": 52, "duration": 9, "velocity": 83}, {"time": 3010, "pitch": 57, "duration": 4, "velocity": 79}, {"time": 3010, "pitch": 61, "duration": 4, "velocity": 85}, {"time": 3010, "pitch": 64, "duration": 5, "velocity": 83}, {"time": 3028, "pitch": 38, "duration": 15, "velocity": 85}, {"time": 3028, "pitch": 57, "duration": 5, "velocity": 78}, {"time": 3028, "pitch": 62, "duration": 7, "velocity": 79}, {"time": 3028, "pitch": 66, "duration": 7, "velocity": 72}, {"time": 3034, "pitch": 45, "duration": 8, "velocity": 69}, {"time": 3040, "pitch": 62, "duration": 4, "velocity": 84}, {"time": 3040, "pitch": 66, "duration": 8, "velocity": 85}, {"time": 3046, "pitch": 57, "duration": 4, "velocity": 83}, {"time": 3046, "pitch": 62, "duration": 2, "velocity": 55}, {"time": 3052, "pitch": 50, "duration": 19, "velocity": 80}, {"time": 3052, "pitch": 57, "duration": 3, "velocity": 74}, {"time": 3052, "pitch": 62, "duration": 8, "velocity": 79}, {"time": 3058, "pitch": 57, "duration": 2, "velocity": 74}, {"time": 3064, "pitch": 57, "duration": 2, "velocity": 77}, {"time": 3064, "pitch": 62, "duration": 7, "velocity": 84}, {"time": 3064, "pitch": 66, "duration": 9, "velocity": 81}, {"time": 3070, "pitch": 57, "duration": 3, "velocity": 78}, {"time": 3076, "pitch": 50, "duration": 20, "velocity": 86}, {"time": 3076, "pitch": 57, "duration": 3, "velocity": 82}, {"time": 3076, "pitch": 62, "duration": 7, "velocity": 84}, {"time": 3082, "pitch": 57, "duration": 2, "velocity": 73}, {"time": 3088, "pitch": 57, "duration": 2, "velocity": 77}, {"time": 3088, "pitch": 62, "duration": 6, "velocity": 74}, {"time": 3088, "pitch": 66, "duration": 7, "velocity": 67}, {"time": 3094, "pitch": 57, "duration": 3, "velocity": 81}, {"time": 3100, "pitch": 49, "duration": 19, "velocity": 90}, {"time": 3100, "pitch": 61, "duration": 7, "velocity": 68}, {"time": 3100, "pitch": 64, "duration": 9, "velocity": 80}, {"time": 3106, "pitch": 57, "duration": 3, "velocity": 73}, {"time": 3112, "pitch": 57, "duration": 2, "velocity": 79}, {"time": 3112, "pitch": 61, "duration": 10, "velocity": 88}, {"time": 3112, "pitch": 64, "duration": 10, "velocity": 84}, {"time": 3118, "pitch": 57, "duration": 5, "velocity": 74}, {"time": 3124, "pitch": 38, "duration": 15, "velocity": 85}, {"time": 3124, "pitch": 57, "duration": 5, "velocity": 78}, {"time": 3124, "pitch": 62, "duration": 7, "velocity": 79}, {"time": 3124, "pitch": 66, "duration": 7, "velocity": 72}, {"time": 3130, "pitch": 45, "duration": 8, "velocity": 69}, {"time": 3136, "pitch": 62, "duration": 4, "velocity": 84}, {"time": 3136, "pitch": 66, "duration": 8, "velocity": 85}, {"time": 3142, "pitch": 57, "duration": 4, "velocity": 83}, {"time": 3142, "pitch": 62, "duration": 2, "velocity": 55}, {"time": 3148, "pitch": 50, "duration": 19, "velocity": 80}, {"time": 3148, "pitch": 57, "duration": 3, "velocity": 74}, {"time": 3148, "pitch": 62, "duration": 8, "velocity": 79}, {"time": 3154, "pitch": 57, "duration": 2, "velocity": 74}, {"time": 3160, "pitch": 57, "duration": 2, "velocity": 77}, {"time": 3160, "pitch": 62, "duration": 7, "velocity": 84}, {"time": 3160, "pitch": 66, "duration": 9, "velocity": 81}, {"time": 3166, "pitch": 57, "duration": 3, "velocity": 78}, {"time": 3172, "pitch": 50, "duration": 20, "velocity": 86}, {"time": 3172, "pitch": 57, "duration": 3, "velocity": 82}, {"time": 3172, "pitch": 62, "duration": 7, "velocity": 84}, {"time": 3178, "pitch": 57, "duration": 2, "velocity": 73}, {"time": 3184, "pitch": 57, "duration": 2, "velocity": 77}, {"time": 3184, "pitch": 62, "duration": 6, "velocity": 74}, {"time": 3184, "pitch": 66, "duration": 7, "velocity": 67}, {"time": 3190, "pitch": 57, "duration": 3, "velocity": 81}, {"time": 3196, "pitch": 49, "duration": 19, "velocity": 90}, {"time": 3196, "pitch": 61, "duration": 7, "velocity": 68}, {"time": 3196, "pitch": 64, "duration": 9, "velocity": 80}, {"time": 3202, "pitch": 57, "duration": 3, "velocity": 73}, {"time": 3208, "pitch": 57, "duration": 2, "velocity": 79}, {"time": 3208, "pitch": 61, "duration": 10, "velocity": 88}, {"time": 3208, "pitch": 64, "duration": 10, "velocity": 84}, {"time": 3214, "pitch": 57, "duration": 5, "velocity": 74}, {"time": 3220, "pitch": 47, "duration": 35, "velocity": 80}, {"time": 3220, "pitch": 59, "duration": 3, "velocity": 81}, {"time": 3220, "pitch": 62, "duration": 6, "velocity": 82}, {"time": 3220, "pitch": 66, "duration": 7, "velocity": 81}, {"time": 3226, "pitch": 59, "duration": 2, "velocity": 79}, {"time": 3232, "pitch": 59, "duration": 4, "velocity": 83}, {"time": 3232, "pitch": 62, "duration": 6, "velocity": 83}, {"time": 3232, "pitch": 66, "duration": 6, "velocity": 83}, {"time": 3238, "pitch": 54, "duration": 9, "velocity": 67}, {"time": 3244, "pitch": 59, "duration": 7, "velocity": 82}, {"time": 3244, "pitch": 62, "duration": 7, "velocity": 79}, {"time": 3244, "pitch": 66, "duration": 8, "velocity": 74}, {"time": 3250, "pitch": 54, "duration": 5, "velocity": 72}, {"time": 3256, "pitch": 59, "duration": 2, "velocity": 84}, {"time": 3256, "pitch": 62, "duration": 4, "velocity": 81}, {"time": 3256, "pitch": 66, "duration": 5, "velocity": 80}, {"time": 3262, "pitch": 59, "duration": 3, "velocity": 81}, {"time": 3268, "pitch": 49, "duration": 21, "velocity": 85}, {"time": 3268, "pitch": 61, "duration": 6, "velocity": 74}, {"time": 3268, "pitch": 64, "duration": 8, "velocity": 79}, {"time": 3280, "pitch": 56, "duration": 1, "velocity": 75}, {"time": 3280, "pitch": 61, "duration": 3, "velocity": 81}, {"time": 3280, "pitch": 64, "duration": 3, "velocity": 80}, {"time": 3286, "pitch": 56, "duration": 3, "velocity": 80}, {"time": 3292, "pitch": 49, "duration": 13, "velocity": 77}, {"time": 3292, "pitch": 56, "duration": 3, "velocity": 80}, {"time": 3292, "pitch": 61, "duration": 10, "velocity": 80}, {"time": 3292, "pitch": 64, "duration": 9, "velocity": 82}, {"time": 3298, "pitch": 56, "duration": 5, "velocity": 80}, {"time": 3304, "pitch": 56, "duration": 1, "velocity": 80}, {"time": 3304, "pitch": 61, "duration": 3, "velocity": 80}, {"time": 3304, "pitch": 64, "duration": 3, "velocity": 86}, {"time": 3316, "pitch": 38, "duration": 13, "velocity": 83}, {"time": 3316, "pitch": 62, "duration": 7, "velocity": 75}, {"time": 3316, "pitch": 66, "duration": 7, "velocity": 74}, {"time": 3322, "pitch": 57, "duration": 2, "velocity": 67}, {"time": 3328, "pitch": 57, "duration": 2, "velocity": 80}, {"time": 3328, "pitch": 62, "duration": 3, "velocity": 84}, {"time": 3328, "pitch": 66, "duration": 4, "velocity": 83}, {"time": 3334, "pitch": 57, "duration": 3, "velocity": 73}, {"time": 3334, "pitch": 62, "duration": 2, "velocity": 65}, {"time": 3340, "pitch": 57, "duration": 3, "velocity": 74}, {"time": 3340, "pitch": 62, "duration": 8, "velocity": 80}, {"time": 3340, "pitch": 66, "duration": 8, "velocity": 79}, {"time": 3346, "pitch": 57, "duration": 3, "velocity": 73}, {"time": 3352, "pitch": 57, "duration": 2, "velocity": 74}, {"time": 3352, "pitch": 62, "duration": 7, "velocity": 82}, {"time": 3352, "pitch": 66, "duration": 9, "velocity": 81}, {"time": 3358, "pitch": 57, "duration": 2, "velocity": 74}, {"time": 3364, "pitch": 51, "duration": 5, "velocity": 88}, {"time": 3364, "pitch": 59, "duration": 1, "velocity": 62}, {"time": 3364, "pitch": 59, "duration": 1, "velocity": 79}, {"time": 3364, "pitch": 63, "duration": 7, "velocity": 79}, {"time": 3364, "pitch": 66, "duration": 7, "velocity": 76}, {"time": 3370, "pitch": 59, "duration": 2, "velocity": 77}, {"time": 3376, "pitch": 59, "duration": 2, "velocity": 79}, {"time": 3376, "pitch": 63, "duration": 3, "velocity": 88}, {"time": 3376, "pitch": 66, "duration": 3, "velocity": 82}, {"time": 3382, "pitch": 59, "duration": 3, "velocity": 81}, {"time": 3388, "pitch": 39, "duration": 3, "velocity": 83}, {"time": 3388, "pitch": 59, "duration": 2, "velocity": 75}, {"time": 3388, "pitch": 63, "duration": 3, "velocity": 86}, {"time": 3388, "pitch": 66, "duration": 7, "velocity": 82}, {"time": 3394, "pitch": 59, "duration": 2, "velocity": 75}, {"time": 3400, "pitch": 59, "duration": 2, "velocity": 82}, {"time": 3400, "pitch": 63, "duration": 2, "velocity": 90}, {"time": 3400, "pitch": 66, "duration": 4, "velocity": 84}, {"time": 3406, "pitch": 59, "duration": 3, "velocity": 80}, {"time": 3412, "pitch": 40, "duration": 32, "velocity": 83}, {"time": 3412, "pitch": 52, "duration": 6, "velocity": 79}, {"time": 3412, "pitch": 64, "duration": 12, "velocity": 83}, {"time": 3418, "pitch": 47, "duration": 14, "velocity": 72}, {"time": 3424, "pitch": 52, "duration": 3, "velocity": 81}, {"time": 3430, "pitch": 52, "duration": 5, "velocity": 81}, {"time": 3430, "pitch": 64, "duration": 5, "velocity": 84}, {"time": 3436, "pitch": 47, "duration": 8, "velocity": 80}, {"time": 3442, "pitch": 52, "duration": 3, "velocity": 79}, {"time": 3442, "pitch": 56, "duration": 4, "velocity": 71}, {"time": 3442, "pitch": 59, "duration": 5, "velocity": 78}, {"time": 3460, "pitch": 40, "duration": 39, "velocity": 78}, {"time": 3460, "pitch": 52, "duration": 6, "velocity": 79}, {"time": 3460, "pitch": 56, "duration": 6, "velocity": 67}, {"time": 3460, "pitch": 59, "duration": 7, "velocity": 76}, {"time": 3460, "pitch": 64, "duration": 9, "velocity": 73}, {"time": 3484, "pitch": 64, "duration": 4, "velocity": 80}, {"time": 3484, "pitch": 76, "duration": 13, "velocity": 78}, {"time": 3490, "pitch": 71, "duration": 16, "velocity": 69}, {"time": 3496, "pitch": 64, "duration": 11, "velocity": 73}, {"time": 3508, "pitch": 45, "duration": 30, "velocity": 76}, {"time": 3508, "pitch": 69, "duration": 13, "velocity": 81}, {"time": 3514, "pitch": 52, "duration": 22, "velocity": 74}, {"time": 3520, "pitch": 57, "duration": 13, "velocity": 80}, {"time": 3526, "pitch": 64, "duration": 9, "velocity": 81}, {"time": 3556, "pitch": 40, "duration": 35, "velocity": 81}, {"time": 3556, "pitch": 59, "duration": 7, "velocity": 72}, {"time": 3556, "pitch": 68, "duration": 13, "velocity": 70}, {"time": 3562, "pitch": 47, "duration": 27, "velocity": 71}, {"time": 3568, "pitch": 64, "duration": 17, "velocity": 80}, {"time": 3574, "pitch": 59, "duration": 14, "velocity": 82}, {"time": 3604, "pitch": 50, "duration": 32, "velocity": 79}, {"time": 3604, "pitch": 66, "duration": 12, "velocity": 79}, {"time": 3610, "pitch": 57, "duration": 9, "velocity": 73}, {"time": 3616, "pitch": 62, "duration": 3, "velocity": 74}, {"time": 3622, "pitch": 57, "duration": 5, "velocity": 75}, {"time": 3622, "pitch": 64, "duration": 5, "velocity": 80}, {"time": 3634, "pitch": 62, "duration": 3, "velocity": 74}, {"time": 3652, "pitch": 40, "duration": 33, "velocity": 80}, {"time": 3652, "pitch": 64, "duration": 19, "velocity": 79}, {"time": 3658, "pitch": 47, "duration": 27, "velocity": 68}, {"time": 3664, "pitch": 52, "duration": 8, "velocity": 77}, {"time": 3670, "pitch": 59, "duration": 16, "velocity": 76}, {"time": 3682, "pitch": 52, "duration": 4, "velocity": 81}, {"time": 3700, "pitch": 45, "duration": 40, "velocity": 81}, {"time": 3700, "pitch": 57, "duration": 6, "velocity": 75}, {"time": 3700, "pitch": 61, "duration": 9, "velocity": 76}, {"time": 3706, "pitch": 52, "duration": 31, "velocity": 78}, {"time": 3712, "pitch": 59, "duration": 4, "velocity": 80}, {"time": 3718, "pitch": 57, "duration": 9, "velocity": 71}, {"time": 3718, "pitch": 64, "duration": 9, "velocity": 83}, {"time": 3730, "pitch": 61, "duration": 5, "velocity": 81}, {"time": 3736, "pitch": 57, "duration": 3, "velocity": 77}, {"time": 3748, "pitch": 50, "duration": 38, "velocity": 82}, {"time": 3748, "pitch": 57, "duration": 2, "velocity": 74}, {"time": 3748, "pitch": 62, "duration": 7, "velocity": 75}, {"time": 3754, "pitch": 57, "duration": 6, "velocity": 73}, {"time": 3760, "pitch": 64, "duration": 6, "velocity": 72}, {"time": 3766, "pitch": 62, "duration": 6, "velocity": 68}, {"time": 3790, "pitch": 62, "duration": 5, "velocity": 71}, {"time": 3796, "pitch": 45, "duration": 30, "velocity": 80}, {"time": 3796, "pitch": 61, "duration": 11, "velocity": 80}, {"time": 3802, "pitch": 52, "duration": 14, "velocity": 73}, {"time": 3808, "pitch": 57, "duration": 2, "velocity": 80}, {"time": 3814, "pitch": 57, "duration": 9, "velocity": 79}, {"time": 3814, "pitch": 61, "duration": 12, "velocity": 80}, {"time": 3826, "pitch": 59, "duration": 5, "velocity": 73}, {"time": 3832, "pitch": 57, "duration": 6, "velocity": 80}, {"time": 3844, "pitch": 40, "duration": 48, "velocity": 79}, {"time": 3844, "pitch": 59, "duration": 13, "velocity": 74}, {"time": 3850, "pitch": 47, "duration": 27, "velocity": 70}, {"time": 3856, "pitch": 52, "duration": 8, "velocity": 85}, {"time": 3862, "pitch": 59, "duration": 29, "velocity": 79}, {"time": 3874, "pitch": 64, "duration": 18, "velocity": 82}, {"time": 3880, "pitch": 47, "duration": 11, "velocity": 75}, {"time": 3886, "pitch": 52, "duration": 5, "velocity": 84}, {"time": 3892, "pitch": 45, "duration": 30, "velocity": 76}, {"time": 3892, "pitch": 69, "duration": 13, "velocity": 81}, {"time": 3898, "pitch": 52, "duration": 22, "velocity": 74}, {"time": 3904, "pitch": 57, "duration": 13, "velocity": 80}, {"time": 3910, "pitch": 64, "duration": 9, "velocity": 81}, {"time": 3940, "pitch": 40, "duration": 35, "velocity": 81}, {"time": 3940, "pitch": 59, "duration": 7, "velocity": 72}, {"time": 3940, "pitch": 68, "duration": 13, "velocity": 70}, {"time": 3946, "pitch": 47, "duration": 27, "velocity": 71}, {"time": 3952, "pitch": 64, "duration": 17, "velocity": 80}, {"time": 3958, "pitch": 59, "duration": 14, "velocity": 82}, {"time": 3988, "pitch": 50, "duration": 32, "velocity": 79}, {"time": 3988, "pitch": 66, "duration": 12, "velocity": 79}, {"time": 3994, "pitch": 57, "duration": 9, "velocity": 73}, {"time": 4000, "pitch": 62, "duration": 3, "velocity": 74}, {"time": 4006, "pitch": 57, "duration": 5, "velocity": 75}, {"time": 4006, "pitch": 64, "duration": 5, "velocity": 80}, {"time": 4018, "pitch": 62, "duration": 3, "velocity": 74}, {"time": 4036, "pitch": 40, "duration": 33, "velocity": 80}, {"time": 4036, "pitch": 64, "duration": 19, "velocity": 79}, {"time": 4042, "pitch": 47, "duration": 27, "velocity": 68}, {"time": 4048, "pitch": 52, "duration": 8, "velocity": 77}, {"time": 4054, "pitch": 59, "duration": 16, "velocity": 76}, {"time": 4066, "pitch": 52, "duration": 4, "velocity": 81}, {"time": 4084, "pitch": 45, "duration": 40, "velocity": 81}, {"time": 4084, "pitch": 57, "duration": 6, "velocity": 75}, {"time": 4084, "pitch": 61, "duration": 9, "velocity": 76}, {"time": 4090, "pitch": 52, "duration": 31, "velocity": 78}, {"time": 4096, "pitch": 59, "duration": 4, "velocity": 80}, {"time": 4102, "pitch": 57, "duration": 9, "velocity": 71}, {"time": 4102, "pitch": 64, "duration": 9, "velocity": 83}, {"time": 4114, "pitch": 61, "duration": 5, "velocity": 81}, {"time": 4120, "pitch": 57, "duration": 3, "velocity": 77}, {"time": 4132, "pitch": 50, "duration": 38, "velocity": 82}, {"time": 4132, "pitch": 57, "duration": 2, "velocity": 74}, {"time": 4132, "pitch": 62, "duration": 7, "velocity": 75}, {"time": 4138, "pitch": 57, "duration": 6, "velocity": 73}, {"time": 4144, "pitch": 64, "duration": 6, "velocity": 72}, {"time": 4150, "pitch": 62, "duration": 6, "velocity": 68}, {"time": 4174, "pitch": 62, "duration": 5, "velocity": 71}, {"time": 4180, "pitch": 40, "duration": 37, "velocity": 83}, {"time": 4180, "pitch": 64, "duration": 13, "velocity": 84}, {"time": 4186, "pitch": 47, "duration": 16, "velocity": 74}, {"time": 4192, "pitch": 52, "duration": 3, "velocity": 83}, {"time": 4198, "pitch": 52, "duration": 9, "velocity": 83}, {"time": 4198, "pitch": 59, "duration": 17, "velocity": 80}, {"time": 4204, "pitch": 47, "duration": 13, "velocity": 74}, {"time": 4228, "pitch": 45, "duration": 33, "velocity": 79}, {"time": 4228, "pitch": 57, "duration": 8, "velocity": 78}, {"time": 4228, "pitch": 61, "duration": 9, "velocity": 72}, {"time": 4234, "pitch": 52, "duration": 14, "velocity": 80}, {"time": 4240, "pitch": 59, "duration": 4, "velocity": 81}, {"time": 4246, "pitch": 57, "duration": 7, "velocity": 75}, {"time": 4246, "pitch": 61, "duration": 8, "velocity": 86}, {"time": 4252, "pitch": 52, "duration": 9, "velocity": 83}, {"time": 4258, "pitch": 57, "duration": 4, "velocity": 79}, {"time": 4258, "pitch": 61, "duration": 4, "velocity": 85}, {"time": 4258, "pitch": 64, "duration": 5, "velocity": 83}, {"time": 4276, "pitch": 45, "duration": 42, "velocity": 80}, {"time": 4276, "pitch": 57, "duration": 7, "velocity": 75}, {"time": 4276, "pitch": 69, "duration": 13, "velocity": 75}, {"time": 4282, "pitch": 52, "duration": 37, "velocity": 78}, {"time": 4288, "pitch": 57, "duration": 4, "velocity": 79}, {"time": 4294, "pitch": 57, "duration": 8, "velocity": 75}, {"time": 4294, "pitch": 64, "duration": 7, "velocity": 80}, {"time": 4306, "pitch": 61, "duration": 5, "velocity": 78}, {"time": 4306, "pitch": 64, "duration": 7, "velocity": 80}, {"time": 4324, "pitch": 49, "duration": 31, "velocity": 80}, {"time": 4324, "pitch": 61, "duration": 9, "velocity": 83}, {"time": 4330, "pitch": 56, "duration": 8, "velocity": 69}, {"time": 4336, "pitch": 61, "duration": 3, "velocity": 83}, {"time": 4342, "pitch": 56, "duration": 8, "velocity": 78}, {"time": 4342, "pitch": 61, "duration": 8, "velocity": 76}, {"time": 4342, "pitch": 64, "duration": 8, "velocity": 83}, {"time": 4354, "pitch": 56, "duration": 3, "velocity": 77}, {"time": 4354, "pitch": 61, "duration": 4, "velocity": 74}, {"time": 4372, "pitch": 45, "duration": 34, "velocity": 80}, {"time": 4372, "pitch": 55, "duration": 7, "velocity": 79}, {"time": 4372, "pitch": 61, "duration": 8, "velocity": 78}, {"time": 4378, "pitch": 52, "duration": 16, "velocity": 83}, {"time": 4384, "pitch": 55, "duration": 4, "velocity": 83}, {"time": 4390, "pitch": 57, "duration": 6, "velocity": 80}, {"time": 4396, "pitch": 52, "duration": 8, "velocity": 79}, {"time": 4402, "pitch": 55, "duration": 4, "velocity": 80}, {"time": 4402, "pitch": 61, "duration": 4, "velocity": 83}, {"time": 4420, "pitch": 47, "duration": 33, "velocity": 80}, {"time": 4420, "pitch": 59, "duration": 7, "velocity": 78}, {"time": 4420, "pitch": 62, "duration": 14, "velocity": 79}, {"time": 4426, "pitch": 54, "duration": 15, "velocity": 79}, {"time": 4432, "pitch": 59, "duration": 15, "velocity": 79}, {"time": 4438, "pitch": 71, "duration": 12, "velocity": 81}, {"time": 4444, "pitch": 54, "duration": 7, "velocity": 70}, {"time": 4450, "pitch": 66, "duration": 8, "velocity": 86}, {"time": 4456, "pitch": 62, "duration": 8, "velocity": 80}, {"time": 4462, "pitch": 59, "duration": 4, "velocity": 74}, {"time": 4468, "pitch": 47, "duration": 41, "velocity": 81}, {"time": 4468, "pitch": 59, "duration": 7, "velocity": 77}, {"time": 4468, "pitch": 62, "duration": 14, "velocity": 79}, {"time": 4474, "pitch": 54, "duration": 19, "velocity": 73}, {"time": 4480, "pitch": 59, "duration": 3, "velocity": 78}, {"time": 4486, "pitch": 59, "duration": 13, "velocity": 70}, {"time": 4486, "pitch": 62, "duration": 14, "velocity": 75}, {"time": 4486, "pitch": 66, "duration": 5, "velocity": 32}, {"time": 4486, "pitch": 71, "duration": 21, "velocity": 81}, {"time": 4498, "pitch": 54, "duration": 7, "velocity": 75}, {"time": 4504, "pitch": 59, "duration": 8, "velocity": 80}, {"time": 4516, "pitch": 47, "duration": 34, "velocity": 83}, {"time": 4516, "pitch": 59, "duration": 7, "velocity": 77}, {"time": 4516, "pitch": 62, "duration": 12, "velocity": 75}, {"time": 4522, "pitch": 54, "duration": 16, "velocity": 75}, {"time": 4528, "pitch": 59, "duration": 4, "velocity": 80}, {"time": 4534, "pitch": 59, "duration": 7, "velocity": 75}, {"time": 4534, "pitch": 66, "duration": 8, "velocity": 75}, {"time": 4540, "pitch": 54, "duration": 8, "velocity": 62}, {"time": 4546, "pitch": 62, "duration": 3, "velocity": 81}, {"time": 4564, "pitch": 47, "duration": 33, "velocity": 81}, {"time": 4564, "pitch": 59, "duration": 3, "velocity": 79}, {"time": 4564, "pitch": 63, "duration": 8, "velocity": 81}, {"time": 4564, "pitch": 66, "duration": 8, "velocity": 74}, {"time": 4570, "pitch": 59, "duration": 15, "velocity": 81}, {"time": 4576, "pitch": 63, "duration": 8, "velocity": 85}, {"time": 4582, "pitch": 66, "duration": 3, "velocity": 90}, {"time": 4594, "pitch": 59, "duration": 5, "velocity": 80}, {"time": 4594, "pitch": 63, "duration": 8, "velocity": 79}, {"time": 4594, "pitch": 66, "duration": 8, "velocity": 80}, {"time": 4594, "pitch": 69, "duration": 17, "velocity": 77}, {"time": 4600, "pitch": 54, "duration": 3, "velocity": 75}, {"time": 4606, "pitch": 59, "duration": 6, "velocity": 81}, {"time": 4606, "pitch": 63, "duration": 3, "velocity": 27}, {"time": 4612, "pitch": 40, "duration": 21, "velocity": 84}, {"time": 4618, "pitch": 52, "duration": 2, "velocity": 80}, {"time": 4624, "pitch": 52, "duration": 2, "velocity": 70}, {"time": 4624, "pitch": 56, "duration": 2, "velocity": 62}, {"time": 4624, "pitch": 59, "duration": 3, "velocity": 75}, {"time": 4630, "pitch": 47, "duration": 3, "velocity": 74}, {"time": 4630, "pitch": 52, "duration": 4, "velocity": 81}, {"time": 4630, "pitch": 56, "duration": 3, "velocity": 81}, {"time": 4630, "pitch": 59, "duration": 4, "velocity": 81}, {"time": 4630, "pitch": 64, "duration": 4, "velocity": 80}, {"time": 4636, "pitch": 40, "duration": 3, "velocity": 86}, {"time": 4636, "pitch": 47, "duration": 3, "velocity": 88}, {"time": 4636, "pitch": 52, "duration": 3, "velocity": 84}, {"time": 4636, "pitch": 56, "duration": 3, "velocity": 81}, {"time": 4636, "pitch": 59, "duration": 4, "velocity": 81}, {"time": 4636, "pitch": 64, "duration": 3, "velocity": 83}, {"time": 4642, "pitch": 40, "duration": 3, "velocity": 80}, {"time": 4642, "pitch": 47, "duration": 3, "velocity": 82}, {"time": 4642, "pitch": 52, "duration": 3, "velocity": 84}, {"time": 4642, "pitch": 56, "duration": 3, "velocity": 83}, {"time": 4642, "pitch": 59, "duration": 4, "velocity": 81}, {"time": 4642, "pitch": 64, "duration": 4, "velocity": 81}, {"time": 4648, "pitch": 40, "duration": 8, "velocity": 81}, {"time": 4648, "pitch": 47, "duration": 3, "velocity": 79}, {"time": 4648, "pitch": 52, "duration": 4, "velocity": 81}, {"time": 4648, "pitch": 56, "duration": 3, "velocity": 82}, {"time": 4648, "pitch": 59, "duration": 4, "velocity": 80}, {"time": 4648, "pitch": 64, "duration": 4, "velocity": 80}, {"time": 4654, "pitch": 52, "duration": 3, "velocity": 80}, {"time": 4654, "pitch": 56, "duration": 4, "velocity": 76}, {"time": 4654, "pitch": 59, "duration": 4, "velocity": 79}, {"time": 4654, "pitch": 64, "duration": 5, "velocity": 79}, {"time": 4660, "pitch": 38, "duration": 15, "velocity": 85}, {"time": 4660, "pitch": 57, "duration": 5, "velocity": 78}, {"time": 4660, "pitch": 62, "duration": 7, "velocity": 79}, {"time": 4660, "pitch": 66, "duration": 7, "velocity": 72}, {"time": 4666, "pitch": 45, "duration": 8, "velocity": 69}, {"time": 4672, "pitch": 62, "duration": 4, "velocity": 84}, {"time": 4672, "pitch": 66, "duration": 8, "velocity": 85}, {"time": 4678, "pitch": 57, "duration": 4, "velocity": 83}, {"time": 4678, "pitch": 62, "duration": 2, "velocity": 55}, {"time": 4684, "pitch": 50, "duration": 19, "velocity": 80}, {"time": 4684, "pitch": 57, "duration": 3, "velocity": 74}, {"time": 4684, "pitch": 62, "duration": 8, "velocity": 79}, {"time": 4690, "pitch": 57, "duration": 2, "velocity": 74}, {"time": 4696, "pitch": 57, "duration": 2, "velocity": 77}, {"time": 4696, "pitch": 62, "duration": 7, "velocity": 84}, {"time": 4696, "pitch": 66, "duration": 9, "velocity": 81}, {"time": 4702, "pitch": 57, "duration": 3, "velocity": 78}, {"time": 4708, "pitch": 50, "duration": 20, "velocity": 86}, {"time": 4708, "pitch": 57, "duration": 3, "velocity": 82}, {"time": 4708, "pitch": 62, "duration": 7, "velocity": 84}, {"time": 4714, "pitch": 57, "duration": 2, "velocity": 73}, {"time": 4720, "pitch": 57, "duration": 2, "velocity": 77}, {"time": 4720, "pitch": 62, "duration": 6, "velocity": 74}, {"time": 4720, "pitch": 66, "duration": 7, "velocity": 67}, {"time": 4726, "pitch": 57, "duration": 3, "velocity": 81}, {"time": 4732, "pitch": 49, "duration": 19, "velocity": 90}, {"time": 4732, "pitch": 61, "duration": 7, "velocity": 68}, {"time": 4732, "pitch": 64, "duration": 9, "velocity": 80}, {"time": 4738, "pitch": 57, "duration": 3, "velocity": 73}, {"time": 4744, "pitch": 57, "duration": 2, "velocity": 79}, {"time": 4744, "pitch": 61, "duration": 10, "velocity": 88}, {"time": 4744, "pitch": 64, "duration": 10, "velocity": 84}, {"time": 4750, "pitch": 57, "duration": 5, "velocity": 74}, {"time": 4756, "pitch": 38, "duration": 15, "velocity": 85}, {"time": 4756, "pitch": 57, "duration": 5, "velocity": 78}, {"time": 4756, "pitch": 62, "duration": 7, "velocity": 79}, {"time": 4756, "pitch": 66, "duration": 7, "velocity": 72}, {"time": 4762, "pitch": 45, "duration": 8, "velocity": 69}, {"time": 4768, "pitch": 62, "duration": 4, "velocity": 84}, {"time": 4768, "pitch": 66, "duration": 8, "velocity": 85}, {"time": 4774, "pitch": 57, "duration": 4, "velocity": 83}, {"time": 4774, "pitch": 62, "duration": 2, "velocity": 55}, {"time": 4780, "pitch": 50, "duration": 19, "velocity": 80}, {"time": 4780, "pitch": 57, "duration": 3, "velocity": 74}, {"time": 4780, "pitch": 62, "duration": 8, "velocity": 79}, {"time": 4786, "pitch": 57, "duration": 2, "velocity": 74}, {"time": 4792, "pitch": 57, "duration": 2, "velocity": 77}, {"time": 4792, "pitch": 62, "duration": 7, "velocity": 84}, {"time": 4792, "pitch": 66, "duration": 9, "velocity": 81}, {"time": 4798, "pitch": 57, "duration": 3, "velocity": 78}, {"time": 4804, "pitch": 50, "duration": 20, "velocity": 86}, {"time": 4804, "pitch": 57, "duration": 3, "velocity": 82}, {"time": 4804, "pitch": 62, "duration": 7, "velocity": 84}, {"time": 4810, "pitch": 57, "duration": 2, "velocity": 73}, {"time": 4816, "pitch": 57, "duration": 2, "velocity": 77}, {"time": 4816, "pitch": 62, "duration": 6, "velocity": 74}, {"time": 4816, "pitch": 66, "duration": 7, "velocity": 67}, {"time": 4822, "pitch": 57, "duration": 3, "velocity": 81}, {"time": 4828, "pitch": 49, "duration": 19, "velocity": 90}, {"time": 4828, "pitch": 61, "duration": 7, "velocity": 68}, {"time": 4828, "pitch": 64, "duration": 9, "velocity": 80}, {"time": 4834, "pitch": 57, "duration": 3, "velocity": 73}, {"time": 4840, "pitch": 57, "duration": 2, "velocity": 79}, {"time": 4840, "pitch": 61, "duration": 10, "velocity": 88}, {"time": 4840, "pitch": 64, "duration": 10, "velocity": 84}, {"time": 4846, "pitch": 57, "duration": 5, "velocity": 74}, {"time": 4852, "pitch": 47, "duration": 35, "velocity": 80}, {"time": 4852, "pitch": 59, "duration": 3, "velocity": 81}, {"time": 4852, "pitch": 62, "duration": 6, "velocity": 82}, {"time": 4852, "pitch": 66, "duration": 7, "velocity": 81}, {"time": 4858, "pitch": 59, "duration": 2, "velocity": 79}, {"time": 4864, "pitch": 59, "duration": 4, "velocity": 83}, {"time": 4864, "pitch": 62, "duration": 6, "velocity": 83}, {"time": 4864, "pitch": 66, "duration": 6, "velocity": 83}, {"time": 4870, "pitch": 54, "duration": 9, "velocity": 67}, {"time": 4876, "pitch": 59, "duration": 7, "velocity": 82}, {"time": 4876, "pitch": 62, "duration": 7, "velocity": 79}, {"time": 4876, "pitch": 66, "duration": 8, "velocity": 74}, {"time": 4882, "pitch": 54, "duration": 5, "velocity": 72}, {"time": 4888, "pitch": 59, "duration": 2, "velocity": 84}, {"time": 4888, "pitch": 62, "duration": 4, "velocity": 81}, {"time": 4888, "pitch": 66, "duration": 5, "velocity": 80}, {"time": 4894, "pitch": 59, "duration": 3, "velocity": 81}, {"time": 4900, "pitch": 49, "duration": 21, "velocity": 85}, {"time": 4900, "pitch": 61, "duration": 6, "velocity": 74}, {"time": 4900, "pitch": 64, "duration": 8, "velocity": 79}, {"time": 4912, "pitch": 56, "duration": 1, "velocity": 75}, {"time": 4912, "pitch": 61, "duration": 3, "velocity": 81}, {"time": 4912, "pitch": 64, "duration": 3, "velocity": 80}, {"time": 4918, "pitch": 56, "duration": 3, "velocity": 80}, {"time": 4924, "pitch": 49, "duration": 13, "velocity": 77}, {"time": 4924, "pitch": 56, "duration": 3, "velocity": 80}, {"time": 4924, "pitch": 61, "duration": 10, "velocity": 80}, {"time": 4924, "pitch": 64, "duration": 9, "velocity": 82}, {"time": 4930, "pitch": 56, "duration": 5, "velocity": 80}, {"time": 4936, "pitch": 56, "duration": 1, "velocity": 80}, {"time": 4936, "pitch": 61, "duration": 3, "velocity": 80}, {"time": 4936, "pitch": 64, "duration": 3, "velocity": 86}, {"time": 4948, "pitch": 38, "duration": 13, "velocity": 83}, {"time": 4948, "pitch": 62, "duration": 7, "velocity": 75}, {"time": 4948, "pitch": 66, "duration": 7, "velocity": 74}, {"time": 4954, "pitch": 57, "duration": 2, "velocity": 67}, {"time": 4960, "pitch": 57, "duration": 2, "velocity": 80}, {"time": 4960, "pitch": 62, "duration": 3, "velocity": 84}, {"time": 4960, "pitch": 66, "duration": 4, "velocity": 83}, {"time": 4966, "pitch": 57, "duration": 3, "velocity": 73}, {"time": 4966, "pitch": 62, "duration": 2, "velocity": 65}, {"time": 4972, "pitch": 57, "duration": 3, "velocity": 74}, {"time": 4972, "pitch": 62, "duration": 8, "velocity": 80}, {"time": 4972, "pitch": 66, "duration": 8, "velocity": 79}, {"time": 4978, "pitch": 57, "duration": 3, "velocity": 73}, {"time": 4984, "pitch": 57, "duration": 2, "velocity": 74}, {"time": 4984, "pitch": 62, "duration": 7, "velocity": 82}, {"time": 4984, "pitch": 66, "duration": 9, "velocity": 81}, {"time": 4990, "pitch": 57, "duration": 2, "velocity": 74}, {"time": 4996, "pitch": 51, "duration": 5, "velocity": 88}, {"time": 4996, "pitch": 59, "duration": 1, "velocity": 62}, {"time": 4996, "pitch": 59, "duration": 1, "velocity": 79}, {"time": 4996, "pitch": 63, "duration": 7, "velocity": 79}, {"time": 4996, "pitch": 66, "duration": 7, "velocity": 76}, {"time": 5002, "pitch": 59, "duration": 2, "velocity": 77}, {"time": 5008, "pitch": 59, "duration": 2, "velocity": 79}, {"time": 5008, "pitch": 63, "duration": 3, "velocity": 88}, {"time": 5008, "pitch": 66, "duration": 3, "velocity": 82}, {"time": 5014, "pitch": 59, "duration": 3, "velocity": 81}, {"time": 5020, "pitch": 39, "duration": 3, "velocity": 83}, {"time": 5020, "pitch": 59, "duration": 2, "velocity": 75}, {"time": 5020, "pitch": 63, "duration": 3, "velocity": 86}, {"time": 5020, "pitch": 66, "duration": 7, "velocity": 82}, {"time": 5026, "pitch": 59, "duration": 2, "velocity": 75}, {"time": 5032, "pitch": 59, "duration": 2, "velocity": 82}, {"time": 5032, "pitch": 63, "duration": 2, "velocity": 90}, {"time": 5032, "pitch": 66, "duration": 4, "velocity": 84}, {"time": 5038, "pitch": 59, "duration": 3, "velocity": 80}, {"time": 5044, "pitch": 40, "duration": 32, "velocity": 83}, {"time": 5044, "pitch": 52, "duration": 6, "velocity": 79}, {"time": 5044, "pitch": 64, "duration": 12, "velocity": 83}, {"time": 5050, "pitch": 47, "duration": 14, "velocity": 72}, {"time": 5056, "pitch": 52, "duration": 3, "velocity": 81}, {"time": 5062, "pitch": 52, "duration": 5, "velocity": 81}, {"time": 5062, "pitch": 64, "duration": 5, "velocity": 84}, {"time": 5068, "pitch": 47, "duration": 8, "velocity": 80}, {"time": 5074, "pitch": 52, "duration": 3, "velocity": 79}, {"time": 5074, "pitch": 56, "duration": 4, "velocity": 71}, {"time": 5074, "pitch": 59, "duration": 5, "velocity": 78}, {"time": 5092, "pitch": 40, "duration": 39, "velocity": 78}, {"time": 5092, "pitch": 52, "duration": 6, "velocity": 79}, {"time": 5092, "pitch": 56, "duration": 6, "velocity": 67}, {"time": 5092, "pitch": 59, "duration": 7, "velocity": 76}, {"time": 5092, "pitch": 64, "duration": 9, "velocity": 73}, {"time": 5116, "pitch": 64, "duration": 4, "velocity": 80}, {"time": 5116, "pitch": 76, "duration": 13, "velocity": 78}, {"time": 5122, "pitch": 71, "duration": 16, "velocity": 69}, {"time": 5128, "pitch": 64, "duration": 11, "velocity": 73}, {"time": 5140, "pitch": 45, "duration": 37, "velocity": 79}, {"time": 5140, "pitch": 57, "duration": 8, "velocity": 72}, {"time": 5140, "pitch": 69, "duration": 8, "velocity": 78}, {"time": 5146, "pitch": 52, "duration": 27, "velocity": 73}, {"time": 5152, "pitch": 57, "duration": 4, "velocity": 79}, {"time": 5158, "pitch": 59, "duration": 4, "velocity": 80}, {"time": 5170, "pitch": 57, "duration": 4, "velocity": 72}, {"time": 5170, "pitch": 61, "duration": 4, "velocity": 76}, {"time": 5188, "pitch": 40, "duration": 35, "velocity": 72}, {"time": 5188, "pitch": 64, "duration": 11, "velocity": 82}, {"time": 5194, "pitch": 52, "duration": 34, "velocity": 72}, {"time": 5200, "pitch": 59, "duration": 3, "velocity": 80}, {"time": 5206, "pitch": 59, "duration": 10, "velocity": 80}, {"time": 5206, "pitch": 64, "duration": 10, "velocity": 84}, {"time": 5218, "pitch": 59, "duration": 5, "velocity": 79}, {"time": 5218, "pitch": 64, "duration": 6, "velocity": 81}, {"time": 5236, "pitch": 50, "duration": 37, "velocity": 73}, {"time": 5236, "pitch": 57, "duration": 4, "velocity": 69}, {"time": 5236, "pitch": 66, "duration": 12, "velocity": 74}, {"time": 5242, "pitch": 57, "duration": 9, "velocity": 72}, {"time": 5248, "pitch": 62, "duration": 4, "velocity": 76}, {"time": 5254, "pitch": 57, "duration": 10, "velocity": 80}, {"time": 5254, "pitch": 64, "duration": 16, "velocity": 81}, {"time": 5272, "pitch": 62, "duration": 5, "velocity": 78}, {"time": 5284, "pitch": 45, "duration": 48, "velocity": 78}, {"time": 5284, "pitch": 57, "duration": 8, "velocity": 72}, {"time": 5284, "pitch": 61, "duration": 6, "velocity": 73}, {"time": 5290, "pitch": 52, "duration": 27, "velocity": 78}, {"time": 5296, "pitch": 59, "duration": 3, "velocity": 74}, {"time": 5302, "pitch": 57, "duration": 4, "velocity": 70}, {"time": 5302, "pitch": 64, "duration": 6, "velocity": 80}, {"time": 5314, "pitch": 61, "duration": 18, "velocity": 68}, {"time": 5320, "pitch": 52, "duration": 12, "velocity": 72}, {"time": 5327, "pitch": 57, "duration": 5, "velocity": 61}, {"time": 5328, "pitch": 61, "duration": 4, "velocity": 67}, {"time": 5330, "pitch": 64, "duration": 3, "velocity": 73}, {"time": 5331, "pitch": 45, "duration": 1, "velocity": 79}, {"time": 5331, "pitch": 69, "duration": 6, "velocity": 80}, {"time": 5337, "pitch": 52, "duration": 19, "velocity": 67}, {"time": 5343, "pitch": 59, "duration": 8, "velocity": 70}, {"time": 5349, "pitch": 61, "duration": 8, "velocity": 71}, {"time": 5376, "pitch": 52, "duration": 4, "velocity": 74}, {"time": 5378, "pitch": 56, "duration": 3, "velocity": 67}, {"time": 5379, "pitch": 59, "duration": 15, "velocity": 67}, {"time": 5380, "pitch": 40, "duration": 30, "velocity": 81}, {"time": 5381, "pitch": 64, "duration": 19, "velocity": 80}, {"time": 5386, "pitch": 47, "duration": 24, "velocity": 70}, {"time": 5393, "pitch": 52, "duration": 17, "velocity": 86}, {"time": 5401, "pitch": 59, "duration": 11, "velocity": 79}, {"time": 5422, "pitch": 45, "duration": 63, "velocity": 65}, {"time": 5425, "pitch": 52, "duration": 60, "velocity": 73}, {"time": 5430, "pitch": 57, "duration": 5, "velocity": 80}, {"time": 5434, "pitch": 59, "duration": 3, "velocity": 82}, {"time": 5438, "pitch": 61, "duration": 4, "velocity": 85}, {"time": 5443, "pitch": 64, "duration": 2, "velocity": 83}, {"time": 5449, "pitch": 69, "duration": 3, "velocity": 79}, {"time": 5455, "pitch": 71, "duration": 3, "velocity": 72}, {"time": 5471, "pitch": 69, "duration": 3, "velocity": 62}, {"time": 5473, "pitch": 73, "duration": 2, "velocity": 53}, {"time": 5474, "pitch": 76, "duration": 3, "velocity": 69}], "annotations": [{"time": 57, "annotation": {"number": 64, "value": 127}, "group": "control_change"}, {"time": 98, "annotation": {"number": 64, "value": 0}, "group": "control_change"}, {"time": 102, "annotation": {"number": 64, "value": 127}, "group": "control_change"}, {"time": 145, "annotation": {"number": 64, "value": 0}, "group": "control_change"}, {"time": 149, "annotation": {"number": 64, "value": 127}, "group": "control_change"}, {"time": 193, "annotation": {"number": 64, "value": 0}, "group": "control_change"}, {"time": 198, "annotation": {"number": 64, "value": 127}, "group": "control_change"}, {"time": 242, "annotation": {"number": 64, "value": 0}, "group": "control_change"}, {"time": 247, "annotation": {"number": 64, "value": 127}, "group": "control_change"}, {"time": 290, "annotation": {"number": 64, "value": 0}, "group": "control_change"}, {"time": 294, "annotation": {"number": 64, "value": 127}, "group": "control_change"}, {"time": 338, "annotation": {"number": 64, "value": 0}, "group": "control_change"}, {"time": 341, "annotation": {"number": 64, "value": 127}, "group": "control_change"}, {"time": 361, "annotation": {"number": 64, "value": 0}, "group": "control_change"}, {"time": 366, "annotation": {"number": 64, "value": 127}, "group": "control_change"}, {"time": 386, "annotation": {"number": 64, "value": 0}, "group": "control_change"}, {"time": 392, "annotation": {"number": 64, "value": 127}, "group": "control_change"}, {"time": 434, "annotation": {"number": 64, "value": 0}, "group": "control_change"}, {"time": 438, "annotation": {"number": 64, "value": 127}, "group": "control_change"}, {"time": 482, "annotation": {"number": 64, "value": 0}, "group": "control_change"}, {"time": 486, "annotation": {"number": 64, "value": 127}, "group": "control_change"}, {"time": 530, "annotation": {"number": 64, "value": 0}, "group": "control_change"}, {"time": 533, "annotation": {"number": 64, "value": 127}, "group": "control_change"}, {"time": 579, "annotation": {"number": 64, "value": 0}, "group": "control_change"}, {"time": 582, "annotation": {"number": 64, "value": 127}, "group": "control_change"}, {"time": 628, "annotation": {"number": 64, "value": 0}, "group": "control_change"}, {"time": 631, "annotation": {"number": 64, "value": 127}, "group": "control_change"}, {"time": 674, "annotation": {"number": 64, "value": 0}, "group": "control_change"}, {"time": 677, "annotation": {"number": 64, "value": 127}, "group": "control_change"}, {"time": 722, "annotation": {"number": 64, "value": 0}, "group": "control_change"}, {"time": 726, "annotation": {"number": 64, "value": 127}, "group": "control_change"}, {"time": 767, "annotation": {"number": 64, "value": 0}, "group": "control_change"}, {"time": 775, "annotation": {"number": 64, "value": 127}, "group": "control_change"}, {"time": 812, "annotation": {"number": 64, "value": 0}, "group": "control_change"}, {"time": 822, "annotation": {"number": 64, "value": 127}, "group": "control_change"}, {"time": 866, "annotation": {"number": 64, "value": 0}, "group": "control_change"}, {"time": 870, "annotation": {"number": 64, "value": 127}, "group": "control_change"}, {"time": 914, "annotation": {"number": 64, "value": 0}, "group": "control_change"}, {"time": 917, "annotation": {"number": 64, "value": 127}, "group": "control_change"}, {"time": 963, "annotation": {"number": 64, "value": 0}, "group": "control_change"}, {"time": 966, "annotation": {"number": 64, "value": 127}, "group": "control_change"}, {"time": 1012, "annotation": {"number": 64, "value": 0}, "group": "control_change"}, {"time": 1015, "annotation": {"number": 64, "value": 127}, "group": "control_change"}, {"time": 1058, "annotation": {"number": 64, "value": 0}, "group": "control_change"}, {"time": 1061, "annotation": {"number": 64, "value": 127}, "group": "control_change"}, {"time": 1106, "annotation": {"number": 64, "value": 0}, "group": "control_change"}, {"time": 1108, "annotation": {"number": 64, "value": 127}, "group": "control_change"}, {"time": 1153, "annotation": {"number": 64, "value": 0}, "group": "control_change"}, {"time": 1158, "annotation": {"number": 64, "value": 127}, "group": "control_change"}, {"time": 1204, "annotation": {"number": 64, "value": 127}, "group": "control_change"}, {"time": 1226, "annotation": {"number": 64, "value": 0}, "group": "control_change"}, {"time": 1228, "annotation": {"number": 64, "value": 127}, "group": "control_change"}, {"time": 1248, "annotation": {"number": 64, "value": 0}, "group": "control_change"}, {"time": 1251, "annotation": {"number": 64, "value": 127}, "group": "control_change"}, {"time": 1273, "annotation": {"number": 64, "value": 0}, "group": "control_change"}, {"time": 1276, "annotation": {"number": 64, "value": 127}, "group": "control_change"}, {"time": 1295, "annotation": {"number": 64, "value": 0}, "group": "control_change"}, {"time": 1300, "annotation": {"number": 64, "value": 127}, "group": "control_change"}, {"time": 1322, "annotation": {"number": 64, "value": 0}, "group": "control_change"}, {"time": 1324, "annotation": {"number": 64, "value": 127}, "group": "control_change"}, {"time": 1344, "annotation": {"number": 64, "value": 0}, "group": "control_change"}, {"time": 1347, "annotation": {"number": 64, "value": 127}, "group": "control_change"}, {"time": 1369, "annotation": {"number": 64, "value": 0}, "group": "control_change"}, {"time": 1372, "annotation": {"number": 64, "value": 127}, "group": "control_change"}, {"time": 1391, "annotation": {"number": 64, "value": 0}, "group": "control_change"}, {"time": 1396, "annotation": {"number": 64, "value": 127}, "group": "control_change"}, {"time": 1440, "annotation": {"number": 64, "value": 0}, "group": "control_change"}, {"time": 1444, "annotation": {"number": 64, "value": 127}, "group": "control_change"}, {"time": 1469, "annotation": {"number": 64, "value": 0}, "group": "control_change"}, {"time": 1472, "annotation": {"number": 64, "value": 127}, "group": "control_change"}, {"time": 1488, "annotation": {"number": 64, "value": 0}, "group": "control_change"}, {"time": 1491, "annotation": {"number": 64, "value": 127}, "group": "control_change"}, {"time": 1512, "annotation": {"number": 64, "value": 0}, "group": "control_change"}, {"time": 1514, "annotation": {"number": 64, "value": 127}, "group": "control_change"}, {"time": 1538, "annotation": {"number": 64, "value": 0}, "group": "control_change"}, {"time": 1540, "annotation": {"number": 64, "value": 127}, "group": "control_change"}, {"time": 1559, "annotation": {"number": 64, "value": 0}, "group": "control_change"}, {"time": 1562, "annotation": {"number": 64, "value": 127}, "group": "control_change"}, {"time": 1583, "annotation": {"number": 64, "value": 0}, "group": "control_change"}, {"time": 1588, "annotation": {"number": 64, "value": 127}, "group": "control_change"}, {"time": 1633, "annotation": {"number": 64, "value": 0}, "group": "control_change"}, {"time": 1636, "annotation": {"number": 64, "value": 127}, "group": "control_change"}, {"time": 1681, "annotation": {"number": 64, "value": 0}, "group": "control_change"}, {"time": 1687, "annotation": {"number": 64, "value": 127}, "group": "control_change"}, {"time": 1729, "annotation": {"number": 64, "value": 0}, "group": "control_change"}, {"time": 1734, "annotation": {"number": 64, "value": 127}, "group": "control_change"}, {"time": 1777, "annotation": {"number": 64, "value": 0}, "group": "control_change"}, {"time": 1781, "annotation": {"number": 64, "value": 127}, "group": "control_change"}, {"time": 1826, "annotation": {"number": 64, "value": 0}, "group": "control_change"}, {"time": 1831, "annotation": {"number": 64, "value": 127}, "group": "control_change"}, {"time": 1869, "annotation": {"number": 64, "value": 0}, "group": "control_change"}, {"time": 1880, "annotation": {"number": 64, "value": 127}, "group": "control_change"}, {"time": 1923, "annotation": {"number": 64, "value": 0}, "group": "control_change"}, {"time": 1927, "annotation": {"number": 64, "value": 127}, "group": "control_change"}, {"time": 1969, "annotation": {"number": 64, "value": 0}, "group": "control_change"}, {"time": 1973, "annotation": {"number": 64, "value": 127}, "group": "control_change"}, {"time": 1973, "annotation": {"number": 64, "value": 0}, "group": "control_change"}, {"time": 2019, "annotation": {"number": 64, "value": 0}, "group": "control_change"}, {"time": 2026, "annotation": {"number": 64, "value": 127}, "group": "control_change"}, {"time": 2065, "annotation": {"number": 64, "value": 0}, "group": "control_change"}, {"time": 2069, "annotation": {"number": 64, "value": 127}, "group": "control_change"}, {"time": 2113, "annotation": {"number": 64, "value": 0}, "group": "control_change"}, {"time": 2117, "annotation": {"number": 64, "value": 127}, "group": "control_change"}, {"time": 2161, "annotation": {"number": 64, "value": 0}, "group": "control_change"}, {"time": 2166, "annotation": {"number": 64, "value": 127}, "group": "control_change"}, {"time": 2208, "annotation": {"number": 64, "value": 0}, "group": "control_change"}, {"time": 2213, "annotation": {"number": 64, "value": 127}, "group": "control_change"}, {"time": 2252, "annotation": {"number": 64, "value": 0}, "group": "control_change"}, {"time": 2262, "annotation": {"number": 64, "value": 127}, "group": "control_change"}, {"time": 2306, "annotation": {"number": 64, "value": 0}, "group": "control_change"}, {"time": 2310, "annotation": {"number": 64, "value": 127}, "group": "control_change"}, {"time": 2354, "annotation": {"number": 64, "value": 0}, "group": "control_change"}, {"time": 2357, "annotation": {"number": 64, "value": 127}, "group": "control_change"}, {"time": 2403, "annotation": {"number": 64, "value": 0}, "group": "control_change"}, {"time": 2406, "annotation": {"number": 64, "value": 127}, "group": "control_change"}, {"time": 2452, "annotation": {"number": 64, "value": 0}, "group": "control_change"}, {"time": 2455, "annotation": {"number": 64, "value": 127}, "group": "control_change"}, {"time": 2498, "annotation": {"number": 64, "value": 0}, "group": "control_change"}, {"time": 2501, "annotation": {"number": 64, "value": 127}, "group": "control_change"}, {"time": 2546, "annotation": {"number": 64, "value": 0}, "group": "control_change"}, {"time": 2550, "annotation": {"number": 64, "value": 127}, "group": "control_change"}, {"time": 2591, "annotation": {"number": 64, "value": 0}, "group": "control_change"}, {"time": 2599, "annotation": {"number": 64, "value": 127}, "group": "control_change"}, {"time": 2636, "annotation": {"number": 64, "value": 0}, "group": "control_change"}, {"time": 2646, "annotation": {"number": 64, "value": 127}, "group": "control_change"}, {"time": 2690, "annotation": {"number": 64, "value": 0}, "group": "control_change"}, {"time": 2694, "annotation": {"number": 64, "value": 127}, "group": "control_change"}, {"time": 2738, "annotation": {"number": 64, "value": 0}, "group": "control_change"}, {"time": 2741, "annotation": {"number": 64, "value": 127}, "group": "control_change"}, {"time": 2787, "annotation": {"number": 64, "value": 0}, "group": "control_change"}, {"time": 2790, "annotation": {"number": 64, "value": 127}, "group": "control_change"}, {"time": 2836, "annotation": {"number": 64, "value": 0}, "group": "control_change"}, {"time": 2839, "annotation": {"number": 64, "value": 127}, "group": "control_change"}, {"time": 2882, "annotation": {"number": 64, "value": 0}, "group": "control_change"}, {"time": 2885, "annotation": {"number": 64, "value": 127}, "group": "control_change"}, {"time": 2930, "annotation": {"number": 64, "value": 0}, "group": "control_change"}, {"time": 2932, "annotation": {"number": 64, "value": 127}, "group": "control_change"}, {"time": 2977, "annotation": {"number": 64, "value": 0}, "group": "control_change"}, {"time": 2982, "annotation": {"number": 64, "value": 127}, "group": "control_change"}, {"time": 3028, "annotation": {"number": 64, "value": 127}, "group": "control_change"}, {"time": 3050, "annotation": {"number": 64, "value": 0}, "group": "control_change"}, {"time": 3052, "annotation": {"number": 64, "value": 127}, "group": "control_change"}, {"time": 3072, "annotation": {"number": 64, "value": 0}, "group": "control_change"}, {"time": 3075, "annotation": {"number": 64, "value": 127}, "group": "control_change"}, {"time": 3097, "annotation": {"number": 64, "value": 0}, "group": "control_change"}, {"time": 3100, "annotation": {"number": 64, "value": 127}, "group": "control_change"}, {"time": 3119, "annotation": {"number": 64, "value": 0}, "group": "control_change"}, {"time": 3124, "annotation": {"number": 64, "value": 127}, "group": "control_change"}, {"time": 3146, "annotation": {"number": 64, "value": 0}, "group": "control_change"}, {"time": 3148, "annotation": {"number": 64, "value": 127}, "group": "control_change"}, {"time": 3168, "annotation": {"number": 64, "value": 0}, "group": "control_change"}, {"time": 3171, "annotation": {"number": 64, "value": 127}, "group": "control_change"}, {"time": 3193, "annotation": {"number": 64, "value": 0}, "group": "control_change"}, {"time": 3196, "annotation": {"number": 64, "value": 127}, "group": "control_change"}, {"time": 3215, "annotation": {"number": 64, "value": 0}, "group": "control_change"}, {"time": 3220, "annotation": {"number": 64, "value": 127}, "group": "control_change"}, {"time": 3264, "annotation": {"number": 64, "value": 0}, "group": "control_change"}, {"time": 3268, "annotation": {"number": 64, "value": 127}, "group": "control_change"}, {"time": 3293, "annotation": {"number": 64, "value": 0}, "group": "control_change"}, {"time": 3296, "annotation": {"number": 64, "value": 127}, "group": "control_change"}, {"time": 3312, "annotation": {"number": 64, "value": 0}, "group": "control_change"}, {"time": 3315, "annotation": {"number": 64, "value": 127}, "group": "control_change"}, {"time": 3336, "annotation": {"number": 64, "value": 0}, "group": "control_change"}, {"time": 3338, "annotation": {"number": 64, "value": 127}, "group": "control_change"}, {"time": 3362, "annotation": {"number": 64, "value": 0}, "group": "control_change"}, {"time": 3364, "annotation": {"number": 64, "value": 127}, "group": "control_change"}, {"time": 3383, "annotation": {"number": 64, "value": 0}, "group": "control_change"}, {"time": 3386, "annotation": {"number": 64, "value": 127}, "group": "control_change"}, {"time": 3407, "annotation": {"number": 64, "value": 0}, "group": "control_change"}, {"time": 3412, "annotation": {"number": 64, "value": 127}, "group": "control_change"}, {"time": 3457, "annotation": {"number": 64, "value": 0}, "group": "control_change"}, {"time": 3460, "annotation": {"number": 64, "value": 127}, "group": "control_change"}, {"time": 3505, "annotation": {"number": 64, "value": 0}, "group": "control_change"}, {"time": 3510, "annotation": {"number": 64, "value": 127}, "group": "control_change"}, {"time": 3554, "annotation": {"number": 64, "value": 0}, "group": "control_change"}, {"time": 3558, "annotation": {"number": 64, "value": 127}, "group": "control_change"}, {"time": 3602, "annotation": {"number": 64, "value": 0}, "group": "control_change"}, {"time": 3605, "annotation": {"number": 64, "value": 127}, "group": "control_change"}, {"time": 3651, "annotation": {"number": 64, "value": 0}, "group": "control_change"}, {"time": 3654, "annotation": {"number": 64, "value": 127}, "group": "control_change"}, {"time": 3700, "annotation": {"number": 64, "value": 0}, "group": "control_change"}, {"time": 3703, "annotation": {"number": 64, "value": 127}, "group": "control_change"}, {"time": 3746, "annotation": {"number": 64, "value": 0}, "group": "control_change"}, {"time": 3749, "annotation": {"number": 64, "value": 127}, "group": "control_change"}, {"time": 3794, "annotation": {"number": 64, "value": 0}, "group": "control_change"}, {"time": 3798, "annotation": {"number": 64, "value": 127}, "group": "control_change"}, {"time": 3839, "annotation": {"number": 64, "value": 0}, "group": "control_change"}, {"time": 3847, "annotation": {"number": 64, "value": 127}, "group": "control_change"}, {"time": 3884, "annotation": {"number": 64, "value": 0}, "group": "control_change"}, {"time": 3894, "annotation": {"number": 64, "value": 127}, "group": "control_change"}, {"time": 3938, "annotation": {"number": 64, "value": 0}, "group": "control_change"}, {"time": 3942, "annotation": {"number": 64, "value": 127}, "group": "control_change"}, {"time": 3986, "annotation": {"number": 64, "value": 0}, "group": "control_change"}, {"time": 3989, "annotation": {"number": 64, "value": 127}, "group": "control_change"}, {"time": 4035, "annotation": {"number": 64, "value": 0}, "group": "control_change"}, {"time": 4038, "annotation": {"number": 64, "value": 127}, "group": "control_change"}, {"time": 4084, "annotation": {"number": 64, "value": 0}, "group": "control_change"}, {"time": 4087, "annotation": {"number": 64, "value": 127}, "group": "control_change"}, {"time": 4130, "annotation": {"number": 64, "value": 0}, "group": "control_change"}, {"time": 4133, "annotation": {"number": 64, "value": 127}, "group": "control_change"}, {"time": 4178, "annotation": {"number": 64, "value": 0}, "group": "control_change"}, {"time": 4180, "annotation": {"number": 64, "value": 127}, "group": "control_change"}, {"time": 4225, "annotation": {"number": 64, "value": 0}, "group": "control_change"}, {"time": 4230, "annotation": {"number": 64, "value": 127}, "group": "control_change"}, {"time": 4277, "annotation": {"number": 64, "value": 127}, "group": "control_change"}, {"time": 4324, "annotation": {"number": 64, "value": 0}, "group": "control_change"}, {"time": 4327, "annotation": {"number": 64, "value": 127}, "group": "control_change"}, {"time": 4369, "annotation": {"number": 64, "value": 0}, "group": "control_change"}, {"time": 4375, "annotation": {"number": 64, "value": 127}, "group": "control_change"}, {"time": 4419, "annotation": {"number": 64, "value": 0}, "group": "control_change"}, {"time": 4422, "annotation": {"number": 64, "value": 127}, "group": "control_change"}, {"time": 4465, "annotation": {"number": 64, "value": 0}, "group": "control_change"}, {"time": 4469, "annotation": {"number": 64, "value": 127}, "group": "control_change"}, {"time": 4515, "annotation": {"number": 64, "value": 0}, "group": "control_change"}, {"time": 4517, "annotation": {"number": 64, "value": 127}, "group": "control_change"}, {"time": 4564, "annotation": {"number": 64, "value": 0}, "group": "control_change"}, {"time": 4566, "annotation": {"number": 64, "value": 127}, "group": "control_change"}, {"time": 4608, "annotation": {"number": 64, "value": 0}, "group": "control_change"}, {"time": 4611, "annotation": {"number": 64, "value": 127}, "group": "control_change"}, {"time": 4634, "annotation": {"number": 64, "value": 0}, "group": "control_change"}, {"time": 4660, "annotation": {"number": 64, "value": 127}, "group": "control_change"}, {"time": 4682, "annotation": {"number": 64, "value": 0}, "group": "control_change"}, {"time": 4684, "annotation": {"number": 64, "value": 127}, "group": "control_change"}, {"time": 4704, "annotation": {"number": 64, "value": 0}, "group": "control_change"}, {"time": 4707, "annotation": {"number": 64, "value": 127}, "group": "control_change"}, {"time": 4729, "annotation": {"number": 64, "value": 0}, "group": "control_change"}, {"time": 4732, "annotation": {"number": 64, "value": 127}, "group": "control_change"}, {"time": 4751, "annotation": {"number": 64, "value": 0}, "group": "control_change"}, {"time": 4756, "annotation": {"number": 64, "value": 127}, "group": "control_change"}, {"time": 4778, "annotation": {"number": 64, "value": 0}, "group": "control_change"}, {"time": 4780, "annotation": {"number": 64, "value": 127}, "group": "control_change"}, {"time": 4800, "annotation": {"number": 64, "value": 0}, "group": "control_change"}, {"time": 4803, "annotation": {"number": 64, "value": 127}, "group": "control_change"}, {"time": 4825, "annotation": {"number": 64, "value": 0}, "group": "control_change"}, {"time": 4828, "annotation": {"number": 64, "value": 127}, "group": "control_change"}, {"time": 4847, "annotation": {"number": 64, "value": 0}, "group": "control_change"}, {"time": 4852, "annotation": {"number": 64, "value": 127}, "group": "control_change"}, {"time": 4896, "annotation": {"number": 64, "value": 0}, "group": "control_change"}, {"time": 4900, "annotation": {"number": 64, "value": 127}, "group": "control_change"}, {"time": 4925, "annotation": {"number": 64, "value": 0}, "group": "control_change"}, {"time": 4928, "annotation": {"number": 64, "value": 127}, "group": "control_change"}, {"time": 4944, "annotation": {"number": 64, "value": 0}, "group": "control_change"}, {"time": 4947, "annotation": {"number": 64, "value": 127}, "group": "control_change"}, {"time": 4968, "annotation": {"number": 64, "value": 0}, "group": "control_change"}, {"time": 4970, "annotation": {"number": 64, "value": 127}, "group": "control_change"}, {"time": 4994, "annotation": {"number": 64, "value": 0}, "group": "control_change"}, {"time": 4996, "annotation": {"number": 64, "value": 127}, "group": "control_change"}, {"time": 5015, "annotation": {"number": 64, "value": 0}, "group": "control_change"}, {"time": 5018, "annotation": {"number": 64, "value": 127}, "group": "control_change"}, {"time": 5039, "annotation": {"number": 64, "value": 0}, "group": "control_change"}, {"time": 5044, "annotation": {"number": 64, "value": 127}, "group": "control_change"}, {"time": 5089, "annotation": {"number": 64, "value": 0}, "group": "control_change"}, {"time": 5092, "annotation": {"number": 64, "value": 127}, "group": "control_change"}, {"time": 5137, "annotation": {"number": 64, "value": 0}, "group": "control_change"}, {"time": 5143, "annotation": {"number": 64, "value": 127}, "group": "control_change"}, {"time": 5185, "annotation": {"number": 64, "value": 0}, "group": "control_change"}, {"time": 5190, "annotation": {"number": 64, "value": 127}, "group": "control_change"}, {"time": 5233, "annotation": {"number": 64, "value": 0}, "group": "control_change"}, {"time": 5237, "annotation": {"number": 64, "value": 127}, "group": "control_change"}, {"time": 5282, "annotation": {"number": 64, "value": 0}, "group": "control_change"}, {"time": 5287, "annotation": {"number": 64, "value": 127}, "group": "control_change"}, {"time": 5325, "annotation": {"number": 64, "value": 0}, "group": "control_change"}, {"time": 5332, "annotation": {"number": 64, "value": 127}, "group": "control_change"}, {"time": 5380, "annotation": {"number": 64, "value": 0}, "group": "control_change"}, {"time": 5386, "annotation": {"number": 64, "value": 127}, "group": "control_change"}, {"time": 5425, "annotation": {"number": 64, "value": 0}, "group": "control_change"}, {"time": 5430, "annotation": {"number": 64, "value": 127}, "group": "control_change"}, {"time": 5535, "annotation": {"number": 64, "value": 0}, "group": "control_change"}]}]}