{"metadata": {"schema_version": "0.2", "title": "None", "source_filename": "692.mid", "source_format": "midi"}, "resolution": 12, "tempos": [{"time": 0, "qpm": 84.000084000084}], "time_signatures": [{"time": 0, "numerator": 1, "denominator": 4}], "tracks": [{"program": 0, "is_drum": false, "name": "MELODY", "notes": [{"time": 202, "pitch": 71, "duration": 2, "velocity": 85}, {"time": 205, "pitch": 73, "duration": 2, "velocity": 89}, {"time": 208, "pitch": 75, "duration": 21, "velocity": 86}, {"time": 232, "pitch": 73, "duration": 7, "velocity": 93}, {"time": 241, "pitch": 71, "duration": 8, "velocity": 84}, {"time": 250, "pitch": 70, "duration": 5, "velocity": 87}, {"time": 256, "pitch": 71, "duration": 21, "velocity": 80}, {"time": 301, "pitch": 66, "duration": 2, "velocity": 75}, {"time": 304, "pitch": 71, "duration": 3, "velocity": 84}, {"time": 310, "pitch": 71, "duration": 3, "velocity": 80}, {"time": 316, "pitch": 71, "duration": 3, "velocity": 83}, {"time": 322, "pitch": 71, "duration": 3, "velocity": 83}, {"time": 326, "pitch": 70, "duration": 4, "velocity": 84}, {"time": 334, "pitch": 70, "duration": 4, "velocity": 83}, {"time": 340, "pitch": 68, "duration": 6, "velocity": 86}, {"time": 346, "pitch": 68, "duration": 12, "velocity": 84}, {"time": 358, "pitch": 66, "duration": 19, "velocity": 78}, {"time": 394, "pitch": 71, "duration": 2, "velocity": 86}, {"time": 397, "pitch": 73, "duration": 2, "velocity": 88}, {"time": 400, "pitch": 75, "duration": 21, "velocity": 86}, {"time": 424, "pitch": 73, "duration": 8, "velocity": 84}, {"time": 433, "pitch": 71, "duration": 8, "velocity": 83}, {"time": 442, "pitch": 70, "duration": 5, "velocity": 83}, {"time": 448, "pitch": 71, "duration": 33, "velocity": 82}, {"time": 490, "pitch": 78, "duration": 2, "velocity": 85}, {"time": 493, "pitch": 75, "duration": 1, "velocity": 89}, {"time": 496, "pitch": 73, "duration": 5, "velocity": 91}, {"time": 502, "pitch": 71, "duration": 15, "velocity": 86}, {"time": 520, "pitch": 73, "duration": 4, "velocity": 84}, {"time": 526, "pitch": 73, "duration": 4, "velocity": 83}, {"time": 532, "pitch": 73, "duration": 4, "velocity": 82}, {"time": 538, "pitch": 75, "duration": 11, "velocity": 83}, {"time": 550, "pitch": 71, "duration": 21, "velocity": 83}, {"time": 574, "pitch": 71, "duration": 4, "velocity": 88}, {"time": 580, "pitch": 75, "duration": 4, "velocity": 89}, {"time": 586, "pitch": 78, "duration": 4, "velocity": 88}, {"time": 592, "pitch": 80, "duration": 16, "velocity": 84}, {"time": 610, "pitch": 80, "duration": 4, "velocity": 84}, {"time": 616, "pitch": 78, "duration": 5, "velocity": 82}, {"time": 622, "pitch": 73, "duration": 4, "velocity": 87}, {"time": 628, "pitch": 73, "duration": 4, "velocity": 89}, {"time": 634, "pitch": 76, "duration": 4, "velocity": 83}, {"time": 640, "pitch": 75, "duration": 28, "velocity": 85}, {"time": 670, "pitch": 71, "duration": 4, "velocity": 85}, {"time": 676, "pitch": 75, "duration": 4, "velocity": 88}, {"time": 682, "pitch": 78, "duration": 4, "velocity": 85}, {"time": 688, "pitch": 78, "duration": 5, "velocity": 86}, {"time": 688, "pitch": 78, "duration": 5, "velocity": 87}, {"time": 694, "pitch": 76, "duration": 1, "velocity": 84}, {"time": 697, "pitch": 76, "duration": 6, "velocity": 83}, {"time": 706, "pitch": 75, "duration": 4, "velocity": 83}, {"time": 712, "pitch": 76, "duration": 5, "velocity": 84}, {"time": 718, "pitch": 75, "duration": 4, "velocity": 89}, {"time": 724, "pitch": 73, "duration": 4, "velocity": 89}, {"time": 730, "pitch": 71, "duration": 9, "velocity": 91}, {"time": 742, "pitch": 75, "duration": 18, "velocity": 96}, {"time": 766, "pitch": 71, "duration": 5, "velocity": 88}, {"time": 772, "pitch": 75, "duration": 4, "velocity": 87}, {"time": 778, "pitch": 78, "duration": 4, "velocity": 86}, {"time": 784, "pitch": 80, "duration": 15, "velocity": 83}, {"time": 802, "pitch": 80, "duration": 5, "velocity": 87}, {"time": 808, "pitch": 82, "duration": 5, "velocity": 86}, {"time": 814, "pitch": 80, "duration": 6, "velocity": 87}, {"time": 820, "pitch": 82, "duration": 5, "velocity": 84}, {"time": 826, "pitch": 83, "duration": 4, "velocity": 87}, {"time": 832, "pitch": 83, "duration": 6, "velocity": 87}, {"time": 838, "pitch": 78, "duration": 4, "velocity": 79}, {"time": 844, "pitch": 78, "duration": 4, "velocity": 83}, {"time": 850, "pitch": 75, "duration": 6, "velocity": 86}, {"time": 856, "pitch": 71, "duration": 14, "velocity": 83}, {"time": 874, "pitch": 71, "duration": 4, "velocity": 87}, {"time": 880, "pitch": 80, "duration": 4, "velocity": 88}, {"time": 886, "pitch": 78, "duration": 2, "velocity": 83}, {"time": 889, "pitch": 78, "duration": 6, "velocity": 84}, {"time": 898, "pitch": 78, "duration": 3, "velocity": 83}, {"time": 904, "pitch": 78, "duration": 6, "velocity": 86}, {"time": 913, "pitch": 75, "duration": 3, "velocity": 83}, {"time": 922, "pitch": 75, "duration": 10, "velocity": 86}, {"time": 934, "pitch": 73, "duration": 26, "velocity": 89}, {"time": 964, "pitch": 78, "duration": 5, "velocity": 86}, {"time": 970, "pitch": 75, "duration": 4, "velocity": 83}, {"time": 976, "pitch": 73, "duration": 3, "velocity": 87}, {"time": 982, "pitch": 71, "duration": 12, "velocity": 86}, {"time": 994, "pitch": 75, "duration": 17, "velocity": 84}, {"time": 1012, "pitch": 78, "duration": 5, "velocity": 85}, {"time": 1018, "pitch": 75, "duration": 4, "velocity": 86}, {"time": 1024, "pitch": 73, "duration": 5, "velocity": 84}, {"time": 1030, "pitch": 71, "duration": 10, "velocity": 83}, {"time": 1042, "pitch": 73, "duration": 9, "velocity": 88}, {"time": 1054, "pitch": 73, "duration": 4, "velocity": 84}, {"time": 1060, "pitch": 73, "duration": 4, "velocity": 86}, {"time": 1066, "pitch": 75, "duration": 4, "velocity": 82}, {"time": 1072, "pitch": 73, "duration": 4, "velocity": 84}, {"time": 1078, "pitch": 71, "duration": 3, "velocity": 83}, {"time": 1084, "pitch": 71, "duration": 4, "velocity": 84}, {"time": 1090, "pitch": 83, "duration": 4, "velocity": 87}, {"time": 1096, "pitch": 83, "duration": 4, "velocity": 84}, {"time": 1102, "pitch": 82, "duration": 4, "velocity": 86}, {"time": 1108, "pitch": 80, "duration": 4, "velocity": 83}, {"time": 1114, "pitch": 78, "duration": 20, "velocity": 83}, {"time": 1138, "pitch": 71, "duration": 4, "velocity": 84}, {"time": 1144, "pitch": 71, "duration": 5, "velocity": 86}, {"time": 1150, "pitch": 70, "duration": 4, "velocity": 82}, {"time": 1156, "pitch": 71, "duration": 4, "velocity": 86}, {"time": 1162, "pitch": 80, "duration": 4, "velocity": 83}, {"time": 1168, "pitch": 80, "duration": 13, "velocity": 82}, {"time": 1186, "pitch": 80, "duration": 4, "velocity": 84}, {"time": 1192, "pitch": 80, "duration": 4, "velocity": 84}, {"time": 1198, "pitch": 78, "duration": 5, "velocity": 82}, {"time": 1204, "pitch": 75, "duration": 4, "velocity": 85}, {"time": 1210, "pitch": 78, "duration": 4, "velocity": 83}, {"time": 1216, "pitch": 78, "duration": 14, "velocity": 82}, {"time": 1234, "pitch": 75, "duration": 4, "velocity": 86}, {"time": 1240, "pitch": 75, "duration": 4, "velocity": 88}, {"time": 1246, "pitch": 76, "duration": 4, "velocity": 85}, {"time": 1252, "pitch": 78, "duration": 3, "velocity": 83}, {"time": 1258, "pitch": 75, "duration": 11, "velocity": 88}, {"time": 1270, "pitch": 71, "duration": 4, "velocity": 86}, {"time": 1276, "pitch": 80, "duration": 4, "velocity": 82}, {"time": 1282, "pitch": 78, "duration": 9, "velocity": 86}, {"time": 1294, "pitch": 75, "duration": 4, "velocity": 84}, {"time": 1300, "pitch": 75, "duration": 4, "velocity": 87}, {"time": 1306, "pitch": 73, "duration": 35, "velocity": 84}, {"time": 1348, "pitch": 78, "duration": 5, "velocity": 86}, {"time": 1354, "pitch": 75, "duration": 4, "velocity": 83}, {"time": 1360, "pitch": 73, "duration": 3, "velocity": 87}, {"time": 1366, "pitch": 71, "duration": 12, "velocity": 86}, {"time": 1378, "pitch": 75, "duration": 17, "velocity": 84}, {"time": 1396, "pitch": 78, "duration": 5, "velocity": 85}, {"time": 1402, "pitch": 75, "duration": 4, "velocity": 86}, {"time": 1408, "pitch": 73, "duration": 5, "velocity": 84}, {"time": 1414, "pitch": 71, "duration": 10, "velocity": 83}, {"time": 1426, "pitch": 73, "duration": 9, "velocity": 88}, {"time": 1438, "pitch": 73, "duration": 4, "velocity": 84}, {"time": 1444, "pitch": 73, "duration": 4, "velocity": 86}, {"time": 1450, "pitch": 75, "duration": 4, "velocity": 82}, {"time": 1456, "pitch": 73, "duration": 4, "velocity": 84}, {"time": 1462, "pitch": 71, "duration": 3, "velocity": 83}, {"time": 1468, "pitch": 71, "duration": 4, "velocity": 84}, {"time": 1474, "pitch": 83, "duration": 4, "velocity": 87}, {"time": 1480, "pitch": 83, "duration": 4, "velocity": 84}, {"time": 1486, "pitch": 82, "duration": 4, "velocity": 86}, {"time": 1492, "pitch": 80, "duration": 4, "velocity": 83}, {"time": 1498, "pitch": 78, "duration": 20, "velocity": 83}, {"time": 1522, "pitch": 71, "duration": 4, "velocity": 84}, {"time": 1528, "pitch": 71, "duration": 5, "velocity": 86}, {"time": 1534, "pitch": 70, "duration": 4, "velocity": 82}, {"time": 1540, "pitch": 71, "duration": 4, "velocity": 86}, {"time": 1546, "pitch": 80, "duration": 4, "velocity": 83}, {"time": 1552, "pitch": 80, "duration": 13, "velocity": 82}, {"time": 1570, "pitch": 80, "duration": 4, "velocity": 84}, {"time": 1576, "pitch": 80, "duration": 4, "velocity": 84}, {"time": 1582, "pitch": 78, "duration": 5, "velocity": 82}, {"time": 1588, "pitch": 75, "duration": 4, "velocity": 85}, {"time": 1594, "pitch": 78, "duration": 4, "velocity": 83}, {"time": 1600, "pitch": 78, "duration": 14, "velocity": 82}, {"time": 1618, "pitch": 75, "duration": 4, "velocity": 86}, {"time": 1624, "pitch": 75, "duration": 4, "velocity": 88}, {"time": 1630, "pitch": 76, "duration": 4, "velocity": 85}, {"time": 1636, "pitch": 78, "duration": 3, "velocity": 83}, {"time": 1642, "pitch": 75, "duration": 11, "velocity": 88}, {"time": 1654, "pitch": 71, "duration": 4, "velocity": 86}, {"time": 1660, "pitch": 80, "duration": 4, "velocity": 82}, {"time": 1666, "pitch": 78, "duration": 9, "velocity": 86}, {"time": 1678, "pitch": 75, "duration": 4, "velocity": 84}, {"time": 1684, "pitch": 73, "duration": 4, "velocity": 87}, {"time": 1690, "pitch": 73, "duration": 35, "velocity": 84}, {"time": 1732, "pitch": 71, "duration": 5, "velocity": 84}, {"time": 1738, "pitch": 71, "duration": 51, "velocity": 85}, {"time": 2122, "pitch": 71, "duration": 2, "velocity": 85}, {"time": 2125, "pitch": 73, "duration": 2, "velocity": 89}, {"time": 2128, "pitch": 75, "duration": 21, "velocity": 86}, {"time": 2152, "pitch": 73, "duration": 7, "velocity": 93}, {"time": 2161, "pitch": 71, "duration": 8, "velocity": 84}, {"time": 2170, "pitch": 70, "duration": 5, "velocity": 87}, {"time": 2176, "pitch": 71, "duration": 21, "velocity": 80}, {"time": 2221, "pitch": 66, "duration": 2, "velocity": 75}, {"time": 2224, "pitch": 71, "duration": 3, "velocity": 84}, {"time": 2230, "pitch": 71, "duration": 3, "velocity": 80}, {"time": 2236, "pitch": 71, "duration": 3, "velocity": 83}, {"time": 2242, "pitch": 71, "duration": 3, "velocity": 83}, {"time": 2245, "pitch": 70, "duration": 4, "velocity": 84}, {"time": 2254, "pitch": 70, "duration": 4, "velocity": 83}, {"time": 2260, "pitch": 68, "duration": 6, "velocity": 86}, {"time": 2266, "pitch": 70, "duration": 12, "velocity": 84}, {"time": 2278, "pitch": 66, "duration": 19, "velocity": 78}, {"time": 2314, "pitch": 71, "duration": 2, "velocity": 86}, {"time": 2317, "pitch": 73, "duration": 2, "velocity": 88}, {"time": 2320, "pitch": 75, "duration": 21, "velocity": 86}, {"time": 2344, "pitch": 78, "duration": 8, "velocity": 84}, {"time": 2353, "pitch": 73, "duration": 8, "velocity": 83}, {"time": 2362, "pitch": 75, "duration": 10, "velocity": 83}, {"time": 2374, "pitch": 73, "duration": 3, "velocity": 84}, {"time": 2377, "pitch": 71, "duration": 24, "velocity": 82}, {"time": 2410, "pitch": 78, "duration": 2, "velocity": 85}, {"time": 2413, "pitch": 75, "duration": 1, "velocity": 89}, {"time": 2416, "pitch": 73, "duration": 5, "velocity": 91}, {"time": 2422, "pitch": 71, "duration": 15, "velocity": 86}, {"time": 2440, "pitch": 73, "duration": 4, "velocity": 84}, {"time": 2446, "pitch": 73, "duration": 4, "velocity": 83}, {"time": 2452, "pitch": 73, "duration": 4, "velocity": 82}, {"time": 2458, "pitch": 75, "duration": 11, "velocity": 83}, {"time": 2470, "pitch": 71, "duration": 21, "velocity": 83}, {"time": 2494, "pitch": 71, "duration": 4, "velocity": 88}, {"time": 2500, "pitch": 75, "duration": 4, "velocity": 89}, {"time": 2506, "pitch": 78, "duration": 4, "velocity": 88}, {"time": 2512, "pitch": 80, "duration": 16, "velocity": 84}, {"time": 2530, "pitch": 80, "duration": 4, "velocity": 84}, {"time": 2536, "pitch": 78, "duration": 5, "velocity": 82}, {"time": 2542, "pitch": 73, "duration": 4, "velocity": 87}, {"time": 2548, "pitch": 73, "duration": 4, "velocity": 89}, {"time": 2554, "pitch": 76, "duration": 4, "velocity": 83}, {"time": 2560, "pitch": 75, "duration": 28, "velocity": 85}, {"time": 2590, "pitch": 71, "duration": 4, "velocity": 85}, {"time": 2596, "pitch": 75, "duration": 4, "velocity": 88}, {"time": 2602, "pitch": 78, "duration": 4, "velocity": 85}, {"time": 2608, "pitch": 78, "duration": 5, "velocity": 86}, {"time": 2608, "pitch": 78, "duration": 5, "velocity": 87}, {"time": 2614, "pitch": 76, "duration": 1, "velocity": 84}, {"time": 2617, "pitch": 76, "duration": 6, "velocity": 83}, {"time": 2626, "pitch": 75, "duration": 4, "velocity": 83}, {"time": 2632, "pitch": 76, "duration": 5, "velocity": 84}, {"time": 2638, "pitch": 75, "duration": 4, "velocity": 89}, {"time": 2644, "pitch": 73, "duration": 4, "velocity": 89}, {"time": 2650, "pitch": 71, "duration": 9, "velocity": 91}, {"time": 2662, "pitch": 75, "duration": 18, "velocity": 96}, {"time": 2686, "pitch": 71, "duration": 5, "velocity": 88}, {"time": 2692, "pitch": 75, "duration": 4, "velocity": 87}, {"time": 2698, "pitch": 78, "duration": 4, "velocity": 86}, {"time": 2704, "pitch": 80, "duration": 15, "velocity": 83}, {"time": 2722, "pitch": 80, "duration": 5, "velocity": 87}, {"time": 2728, "pitch": 82, "duration": 5, "velocity": 86}, {"time": 2734, "pitch": 80, "duration": 6, "velocity": 87}, {"time": 2740, "pitch": 82, "duration": 5, "velocity": 84}, {"time": 2746, "pitch": 83, "duration": 4, "velocity": 87}, {"time": 2752, "pitch": 83, "duration": 4, "velocity": 87}, {"time": 2759, "pitch": 78, "duration": 5, "velocity": 80}, {"time": 2764, "pitch": 78, "duration": 4, "velocity": 83}, {"time": 2770, "pitch": 75, "duration": 6, "velocity": 86}, {"time": 2776, "pitch": 71, "duration": 14, "velocity": 83}, {"time": 2794, "pitch": 71, "duration": 4, "velocity": 87}, {"time": 2800, "pitch": 80, "duration": 4, "velocity": 88}, {"time": 2806, "pitch": 78, "duration": 2, "velocity": 83}, {"time": 2809, "pitch": 78, "duration": 6, "velocity": 84}, {"time": 2818, "pitch": 78, "duration": 3, "velocity": 83}, {"time": 2824, "pitch": 78, "duration": 8, "velocity": 86}, {"time": 2833, "pitch": 75, "duration": 3, "velocity": 83}, {"time": 2842, "pitch": 75, "duration": 10, "velocity": 86}, {"time": 2854, "pitch": 73, "duration": 26, "velocity": 89}, {"time": 2884, "pitch": 78, "duration": 5, "velocity": 86}, {"time": 2890, "pitch": 75, "duration": 4, "velocity": 83}, {"time": 2896, "pitch": 73, "duration": 3, "velocity": 87}, {"time": 2902, "pitch": 71, "duration": 12, "velocity": 86}, {"time": 2914, "pitch": 75, "duration": 17, "velocity": 84}, {"time": 2932, "pitch": 78, "duration": 5, "velocity": 85}, {"time": 2938, "pitch": 75, "duration": 4, "velocity": 86}, {"time": 2944, "pitch": 73, "duration": 5, "velocity": 84}, {"time": 2950, "pitch": 71, "duration": 10, "velocity": 83}, {"time": 2962, "pitch": 73, "duration": 9, "velocity": 88}, {"time": 2974, "pitch": 73, "duration": 4, "velocity": 84}, {"time": 2980, "pitch": 73, "duration": 4, "velocity": 86}, {"time": 2986, "pitch": 75, "duration": 4, "velocity": 82}, {"time": 2992, "pitch": 73, "duration": 4, "velocity": 84}, {"time": 2998, "pitch": 71, "duration": 3, "velocity": 83}, {"time": 3004, "pitch": 71, "duration": 4, "velocity": 84}, {"time": 3010, "pitch": 83, "duration": 4, "velocity": 87}, {"time": 3016, "pitch": 83, "duration": 4, "velocity": 84}, {"time": 3022, "pitch": 82, "duration": 4, "velocity": 86}, {"time": 3028, "pitch": 80, "duration": 4, "velocity": 83}, {"time": 3034, "pitch": 78, "duration": 20, "velocity": 83}, {"time": 3058, "pitch": 71, "duration": 4, "velocity": 84}, {"time": 3064, "pitch": 71, "duration": 5, "velocity": 86}, {"time": 3070, "pitch": 70, "duration": 4, "velocity": 82}, {"time": 3076, "pitch": 71, "duration": 4, "velocity": 86}, {"time": 3082, "pitch": 80, "duration": 4, "velocity": 83}, {"time": 3088, "pitch": 80, "duration": 13, "velocity": 82}, {"time": 3106, "pitch": 80, "duration": 4, "velocity": 84}, {"time": 3112, "pitch": 80, "duration": 4, "velocity": 84}, {"time": 3118, "pitch": 78, "duration": 5, "velocity": 82}, {"time": 3124, "pitch": 75, "duration": 4, "velocity": 85}, {"time": 3130, "pitch": 78, "duration": 4, "velocity": 83}, {"time": 3136, "pitch": 78, "duration": 14, "velocity": 82}, {"time": 3154, "pitch": 75, "duration": 4, "velocity": 86}, {"time": 3160, "pitch": 75, "duration": 4, "velocity": 88}, {"time": 3166, "pitch": 76, "duration": 4, "velocity": 85}, {"time": 3172, "pitch": 78, "duration": 3, "velocity": 83}, {"time": 3178, "pitch": 75, "duration": 11, "velocity": 88}, {"time": 3190, "pitch": 71, "duration": 4, "velocity": 86}, {"time": 3196, "pitch": 80, "duration": 4, "velocity": 82}, {"time": 3202, "pitch": 78, "duration": 9, "velocity": 86}, {"time": 3214, "pitch": 75, "duration": 4, "velocity": 84}, {"time": 3220, "pitch": 75, "duration": 4, "velocity": 87}, {"time": 3226, "pitch": 73, "duration": 35, "velocity": 84}, {"time": 3268, "pitch": 78, "duration": 5, "velocity": 86}, {"time": 3274, "pitch": 75, "duration": 4, "velocity": 83}, {"time": 3280, "pitch": 73, "duration": 3, "velocity": 87}, {"time": 3286, "pitch": 71, "duration": 12, "velocity": 86}, {"time": 3298, "pitch": 75, "duration": 17, "velocity": 84}, {"time": 3316, "pitch": 78, "duration": 5, "velocity": 85}, {"time": 3322, "pitch": 75, "duration": 4, "velocity": 86}, {"time": 3328, "pitch": 73, "duration": 5, "velocity": 84}, {"time": 3334, "pitch": 71, "duration": 10, "velocity": 83}, {"time": 3346, "pitch": 73, "duration": 9, "velocity": 88}, {"time": 3358, "pitch": 73, "duration": 4, "velocity": 84}, {"time": 3364, "pitch": 73, "duration": 4, "velocity": 86}, {"time": 3370, "pitch": 75, "duration": 4, "velocity": 82}, {"time": 3376, "pitch": 73, "duration": 4, "velocity": 84}, {"time": 3382, "pitch": 71, "duration": 3, "velocity": 83}, {"time": 3388, "pitch": 71, "duration": 4, "velocity": 84}, {"time": 3394, "pitch": 83, "duration": 4, "velocity": 87}, {"time": 3400, "pitch": 83, "duration": 4, "velocity": 84}, {"time": 3406, "pitch": 82, "duration": 4, "velocity": 86}, {"time": 3412, "pitch": 80, "duration": 4, "velocity": 83}, {"time": 3418, "pitch": 78, "duration": 20, "velocity": 83}, {"time": 3442, "pitch": 71, "duration": 4, "velocity": 84}, {"time": 3448, "pitch": 71, "duration": 5, "velocity": 86}, {"time": 3454, "pitch": 70, "duration": 4, "velocity": 82}, {"time": 3460, "pitch": 71, "duration": 4, "velocity": 86}, {"time": 3466, "pitch": 80, "duration": 4, "velocity": 83}, {"time": 3472, "pitch": 80, "duration": 13, "velocity": 82}, {"time": 3490, "pitch": 80, "duration": 4, "velocity": 84}, {"time": 3496, "pitch": 80, "duration": 4, "velocity": 84}, {"time": 3502, "pitch": 78, "duration": 5, "velocity": 82}, {"time": 3508, "pitch": 75, "duration": 4, "velocity": 85}, {"time": 3514, "pitch": 78, "duration": 4, "velocity": 83}, {"time": 3520, "pitch": 78, "duration": 14, "velocity": 82}, {"time": 3538, "pitch": 75, "duration": 4, "velocity": 86}, {"time": 3544, "pitch": 75, "duration": 4, "velocity": 88}, {"time": 3550, "pitch": 76, "duration": 4, "velocity": 85}, {"time": 3556, "pitch": 78, "duration": 3, "velocity": 83}, {"time": 3562, "pitch": 75, "duration": 12, "velocity": 88}, {"time": 3574, "pitch": 71, "duration": 4, "velocity": 86}, {"time": 3580, "pitch": 80, "duration": 4, "velocity": 82}, {"time": 3586, "pitch": 78, "duration": 9, "velocity": 86}, {"time": 3598, "pitch": 75, "duration": 4, "velocity": 84}, {"time": 3604, "pitch": 73, "duration": 4, "velocity": 87}, {"time": 3610, "pitch": 73, "duration": 35, "velocity": 84}, {"time": 3652, "pitch": 71, "duration": 5, "velocity": 84}, {"time": 3658, "pitch": 71, "duration": 51, "velocity": 85}]}, {"program": 0, "is_drum": false, "name": "BRIDGE", "notes": [{"time": 3, "pitch": 71, "duration": 5, "velocity": 93}, {"time": 8, "pitch": 73, "duration": 2, "velocity": 89}, {"time": 10, "pitch": 75, "duration": 4, "velocity": 86}, {"time": 13, "pitch": 76, "duration": 3, "velocity": 78}, {"time": 16, "pitch": 78, "duration": 28, "velocity": 85}, {"time": 22, "pitch": 83, "duration": 2, "velocity": 82}, {"time": 28, "pitch": 85, "duration": 3, "velocity": 71}, {"time": 34, "pitch": 87, "duration": 2, "velocity": 74}, {"time": 40, "pitch": 87, "duration": 9, "velocity": 78}, {"time": 52, "pitch": 76, "duration": 12, "velocity": 86}, {"time": 52, "pitch": 85, "duration": 8, "velocity": 75}, {"time": 64, "pitch": 75, "duration": 48, "velocity": 89}, {"time": 64, "pitch": 80, "duration": 6, "velocity": 64}, {"time": 64, "pitch": 83, "duration": 6, "velocity": 74}, {"time": 82, "pitch": 85, "duration": 3, "velocity": 82}, {"time": 88, "pitch": 83, "duration": 6, "velocity": 82}, {"time": 106, "pitch": 83, "duration": 4, "velocity": 78}, {"time": 112, "pitch": 68, "duration": 22, "velocity": 82}, {"time": 112, "pitch": 71, "duration": 23, "velocity": 86}, {"time": 112, "pitch": 80, "duration": 13, "velocity": 75}, {"time": 112, "pitch": 83, "duration": 12, "velocity": 82}, {"time": 130, "pitch": 80, "duration": 3, "velocity": 69}, {"time": 130, "pitch": 83, "duration": 3, "velocity": 76}, {"time": 136, "pitch": 66, "duration": 21, "velocity": 81}, {"time": 136, "pitch": 70, "duration": 21, "velocity": 82}, {"time": 136, "pitch": 80, "duration": 9, "velocity": 68}, {"time": 136, "pitch": 83, "duration": 9, "velocity": 76}, {"time": 148, "pitch": 78, "duration": 9, "velocity": 75}, {"time": 148, "pitch": 82, "duration": 10, "velocity": 80}, {"time": 160, "pitch": 66, "duration": 47, "velocity": 77}, {"time": 160, "pitch": 71, "duration": 47, "velocity": 78}, {"time": 160, "pitch": 78, "duration": 37, "velocity": 70}, {"time": 160, "pitch": 83, "duration": 37, "velocity": 75}, {"time": 592, "pitch": 80, "duration": 24, "velocity": 76}, {"time": 616, "pitch": 78, "duration": 24, "velocity": 78}, {"time": 640, "pitch": 71, "duration": 25, "velocity": 71}, {"time": 640, "pitch": 75, "duration": 28, "velocity": 77}, {"time": 676, "pitch": 71, "duration": 10, "velocity": 82}, {"time": 688, "pitch": 64, "duration": 17, "velocity": 75}, {"time": 688, "pitch": 68, "duration": 20, "velocity": 65}, {"time": 712, "pitch": 66, "duration": 17, "velocity": 72}, {"time": 712, "pitch": 70, "duration": 16, "velocity": 77}, {"time": 736, "pitch": 66, "duration": 18, "velocity": 70}, {"time": 736, "pitch": 71, "duration": 19, "velocity": 69}, {"time": 754, "pitch": 73, "duration": 7, "velocity": 82}, {"time": 760, "pitch": 75, "duration": 21, "velocity": 82}, {"time": 784, "pitch": 71, "duration": 13, "velocity": 75}, {"time": 796, "pitch": 68, "duration": 12, "velocity": 77}, {"time": 808, "pitch": 70, "duration": 12, "velocity": 78}, {"time": 820, "pitch": 66, "duration": 11, "velocity": 64}, {"time": 832, "pitch": 71, "duration": 12, "velocity": 77}, {"time": 844, "pitch": 70, "duration": 12, "velocity": 78}, {"time": 856, "pitch": 68, "duration": 18, "velocity": 72}, {"time": 856, "pitch": 71, "duration": 18, "velocity": 74}, {"time": 880, "pitch": 68, "duration": 29, "velocity": 71}, {"time": 880, "pitch": 71, "duration": 30, "velocity": 75}, {"time": 910, "pitch": 64, "duration": 15, "velocity": 75}, {"time": 916, "pitch": 71, "duration": 10, "velocity": 77}, {"time": 928, "pitch": 66, "duration": 4, "velocity": 74}, {"time": 928, "pitch": 73, "duration": 7, "velocity": 82}, {"time": 934, "pitch": 66, "duration": 8, "velocity": 77}, {"time": 940, "pitch": 73, "duration": 31, "velocity": 82}, {"time": 946, "pitch": 66, "duration": 26, "velocity": 81}, {"time": 952, "pitch": 78, "duration": 19, "velocity": 73}, {"time": 976, "pitch": 82, "duration": 6, "velocity": 83}, {"time": 982, "pitch": 78, "duration": 7, "velocity": 79}, {"time": 988, "pitch": 75, "duration": 7, "velocity": 76}, {"time": 994, "pitch": 78, "duration": 31, "velocity": 78}, {"time": 1024, "pitch": 82, "duration": 28, "velocity": 82}, {"time": 1054, "pitch": 80, "duration": 6, "velocity": 76}, {"time": 1060, "pitch": 78, "duration": 7, "velocity": 81}, {"time": 1066, "pitch": 75, "duration": 6, "velocity": 79}, {"time": 1072, "pitch": 80, "duration": 35, "velocity": 76}, {"time": 1108, "pitch": 80, "duration": 1, "velocity": 73}, {"time": 1114, "pitch": 80, "duration": 6, "velocity": 85}, {"time": 1120, "pitch": 78, "duration": 31, "velocity": 84}, {"time": 1150, "pitch": 75, "duration": 6, "velocity": 82}, {"time": 1156, "pitch": 73, "duration": 6, "velocity": 83}, {"time": 1162, "pitch": 71, "duration": 25, "velocity": 73}, {"time": 1186, "pitch": 68, "duration": 25, "velocity": 79}, {"time": 1192, "pitch": 71, "duration": 20, "velocity": 67}, {"time": 1216, "pitch": 78, "duration": 12, "velocity": 84}, {"time": 1228, "pitch": 75, "duration": 12, "velocity": 82}, {"time": 1240, "pitch": 71, "duration": 18, "velocity": 76}, {"time": 1264, "pitch": 80, "duration": 11, "velocity": 84}, {"time": 1276, "pitch": 76, "duration": 12, "velocity": 78}, {"time": 1288, "pitch": 71, "duration": 13, "velocity": 77}, {"time": 1300, "pitch": 68, "duration": 10, "velocity": 79}, {"time": 1312, "pitch": 66, "duration": 12, "velocity": 73}, {"time": 1312, "pitch": 70, "duration": 12, "velocity": 81}, {"time": 1324, "pitch": 73, "duration": 13, "velocity": 83}, {"time": 1336, "pitch": 78, "duration": 20, "velocity": 77}, {"time": 1360, "pitch": 71, "duration": 13, "velocity": 76}, {"time": 1360, "pitch": 75, "duration": 13, "velocity": 84}, {"time": 1372, "pitch": 78, "duration": 18, "velocity": 78}, {"time": 1390, "pitch": 83, "duration": 7, "velocity": 84}, {"time": 1396, "pitch": 82, "duration": 7, "velocity": 86}, {"time": 1402, "pitch": 78, "duration": 4, "velocity": 77}, {"time": 1408, "pitch": 78, "duration": 34, "velocity": 78}, {"time": 1414, "pitch": 75, "duration": 30, "velocity": 71}, {"time": 1444, "pitch": 80, "duration": 11, "velocity": 82}, {"time": 1456, "pitch": 78, "duration": 10, "velocity": 76}, {"time": 1462, "pitch": 75, "duration": 9, "velocity": 73}, {"time": 1468, "pitch": 80, "duration": 6, "velocity": 82}, {"time": 1474, "pitch": 78, "duration": 28, "velocity": 80}, {"time": 1504, "pitch": 82, "duration": 13, "velocity": 83}, {"time": 1516, "pitch": 78, "duration": 8, "velocity": 79}, {"time": 1522, "pitch": 73, "duration": 26, "velocity": 80}, {"time": 1528, "pitch": 78, "duration": 19, "velocity": 73}, {"time": 1552, "pitch": 75, "duration": 16, "velocity": 83}, {"time": 1558, "pitch": 71, "duration": 9, "velocity": 75}, {"time": 1564, "pitch": 68, "duration": 26, "velocity": 67}, {"time": 1570, "pitch": 71, "duration": 21, "velocity": 73}, {"time": 1600, "pitch": 75, "duration": 25, "velocity": 78}, {"time": 1624, "pitch": 71, "duration": 20, "velocity": 74}, {"time": 1648, "pitch": 80, "duration": 11, "velocity": 79}, {"time": 1660, "pitch": 76, "duration": 26, "velocity": 73}, {"time": 1684, "pitch": 73, "duration": 6, "velocity": 82}, {"time": 1690, "pitch": 71, "duration": 6, "velocity": 81}, {"time": 1696, "pitch": 73, "duration": 42, "velocity": 83}, {"time": 1731, "pitch": 71, "duration": 5, "velocity": 93}, {"time": 1736, "pitch": 73, "duration": 2, "velocity": 89}, {"time": 1738, "pitch": 75, "duration": 4, "velocity": 86}, {"time": 1741, "pitch": 76, "duration": 3, "velocity": 78}, {"time": 1744, "pitch": 78, "duration": 28, "velocity": 85}, {"time": 1773, "pitch": 83, "duration": 11, "velocity": 103}, {"time": 1786, "pitch": 82, "duration": 12, "velocity": 98}, {"time": 1797, "pitch": 78, "duration": 24, "velocity": 84}, {"time": 1821, "pitch": 76, "duration": 6, "velocity": 87}, {"time": 1827, "pitch": 75, "duration": 7, "velocity": 91}, {"time": 1833, "pitch": 76, "duration": 7, "velocity": 93}, {"time": 1839, "pitch": 78, "duration": 25, "velocity": 93}, {"time": 1869, "pitch": 83, "duration": 9, "velocity": 99}, {"time": 1878, "pitch": 81, "duration": 3, "velocity": 83}, {"time": 1880, "pitch": 82, "duration": 9, "velocity": 82}, {"time": 1888, "pitch": 78, "duration": 24, "velocity": 89}, {"time": 1916, "pitch": 78, "duration": 1, "velocity": 51}, {"time": 1916, "pitch": 79, "duration": 2, "velocity": 74}, {"time": 1917, "pitch": 80, "duration": 7, "velocity": 82}, {"time": 1923, "pitch": 83, "duration": 7, "velocity": 99}, {"time": 1929, "pitch": 85, "duration": 3, "velocity": 91}, {"time": 1935, "pitch": 86, "duration": 1, "velocity": 88}, {"time": 1936, "pitch": 87, "duration": 5, "velocity": 84}, {"time": 1941, "pitch": 80, "duration": 8, "velocity": 83}, {"time": 1948, "pitch": 83, "duration": 6, "velocity": 96}, {"time": 1953, "pitch": 86, "duration": 2, "velocity": 71}, {"time": 1954, "pitch": 87, "duration": 12, "velocity": 91}, {"time": 1966, "pitch": 80, "duration": 8, "velocity": 88}, {"time": 1971, "pitch": 83, "duration": 6, "velocity": 96}, {"time": 1976, "pitch": 86, "duration": 2, "velocity": 82}, {"time": 1977, "pitch": 87, "duration": 13, "velocity": 88}, {"time": 1990, "pitch": 80, "duration": 6, "velocity": 87}, {"time": 1995, "pitch": 83, "duration": 14, "velocity": 89}, {"time": 2013, "pitch": 76, "duration": 2, "velocity": 98}, {"time": 2014, "pitch": 78, "duration": 16, "velocity": 77}, {"time": 2029, "pitch": 76, "duration": 3, "velocity": 78}, {"time": 2031, "pitch": 75, "duration": 2, "velocity": 83}, {"time": 2032, "pitch": 73, "duration": 21, "velocity": 88}, {"time": 2056, "pitch": 73, "duration": 6, "velocity": 96}, {"time": 2062, "pitch": 79, "duration": 1, "velocity": 83}, {"time": 2062, "pitch": 80, "duration": 12, "velocity": 91}, {"time": 2074, "pitch": 78, "duration": 21, "velocity": 91}, {"time": 2097, "pitch": 78, "duration": 12, "velocity": 83}, {"time": 2122, "pitch": 76, "duration": 2, "velocity": 49}, {"time": 2123, "pitch": 75, "duration": 2, "velocity": 60}, {"time": 2124, "pitch": 73, "duration": 1, "velocity": 68}, {"time": 2125, "pitch": 71, "duration": 1, "velocity": 66}, {"time": 2126, "pitch": 70, "duration": 1, "velocity": 62}, {"time": 2126, "pitch": 68, "duration": 1, "velocity": 64}, {"time": 2512, "pitch": 80, "duration": 24, "velocity": 76}, {"time": 2536, "pitch": 78, "duration": 24, "velocity": 78}, {"time": 2560, "pitch": 71, "duration": 25, "velocity": 71}, {"time": 2560, "pitch": 75, "duration": 28, "velocity": 77}, {"time": 2596, "pitch": 71, "duration": 10, "velocity": 82}, {"time": 2608, "pitch": 64, "duration": 17, "velocity": 75}, {"time": 2608, "pitch": 68, "duration": 20, "velocity": 65}, {"time": 2632, "pitch": 66, "duration": 17, "velocity": 72}, {"time": 2632, "pitch": 70, "duration": 16, "velocity": 77}, {"time": 2656, "pitch": 66, "duration": 18, "velocity": 70}, {"time": 2656, "pitch": 71, "duration": 19, "velocity": 69}, {"time": 2674, "pitch": 73, "duration": 7, "velocity": 82}, {"time": 2680, "pitch": 75, "duration": 21, "velocity": 82}, {"time": 2704, "pitch": 71, "duration": 13, "velocity": 75}, {"time": 2716, "pitch": 68, "duration": 12, "velocity": 77}, {"time": 2728, "pitch": 70, "duration": 12, "velocity": 78}, {"time": 2740, "pitch": 66, "duration": 11, "velocity": 64}, {"time": 2752, "pitch": 71, "duration": 12, "velocity": 77}, {"time": 2764, "pitch": 70, "duration": 12, "velocity": 78}, {"time": 2776, "pitch": 68, "duration": 18, "velocity": 72}, {"time": 2776, "pitch": 71, "duration": 18, "velocity": 74}, {"time": 2800, "pitch": 68, "duration": 29, "velocity": 71}, {"time": 2800, "pitch": 71, "duration": 30, "velocity": 75}, {"time": 2830, "pitch": 64, "duration": 15, "velocity": 75}, {"time": 2836, "pitch": 71, "duration": 10, "velocity": 77}, {"time": 2848, "pitch": 66, "duration": 4, "velocity": 74}, {"time": 2848, "pitch": 73, "duration": 7, "velocity": 82}, {"time": 2854, "pitch": 66, "duration": 8, "velocity": 77}, {"time": 2860, "pitch": 73, "duration": 31, "velocity": 82}, {"time": 2866, "pitch": 66, "duration": 26, "velocity": 81}, {"time": 2872, "pitch": 78, "duration": 19, "velocity": 73}, {"time": 2896, "pitch": 82, "duration": 6, "velocity": 83}, {"time": 2902, "pitch": 78, "duration": 7, "velocity": 79}, {"time": 2908, "pitch": 75, "duration": 7, "velocity": 76}, {"time": 2914, "pitch": 78, "duration": 31, "velocity": 78}, {"time": 2944, "pitch": 82, "duration": 28, "velocity": 82}, {"time": 2974, "pitch": 80, "duration": 6, "velocity": 76}, {"time": 2980, "pitch": 78, "duration": 7, "velocity": 81}, {"time": 2986, "pitch": 75, "duration": 6, "velocity": 79}, {"time": 2992, "pitch": 80, "duration": 35, "velocity": 76}, {"time": 3028, "pitch": 80, "duration": 1, "velocity": 73}, {"time": 3034, "pitch": 80, "duration": 6, "velocity": 85}, {"time": 3040, "pitch": 78, "duration": 31, "velocity": 84}, {"time": 3070, "pitch": 75, "duration": 6, "velocity": 82}, {"time": 3076, "pitch": 73, "duration": 6, "velocity": 83}, {"time": 3082, "pitch": 71, "duration": 25, "velocity": 73}, {"time": 3106, "pitch": 68, "duration": 25, "velocity": 79}, {"time": 3112, "pitch": 71, "duration": 20, "velocity": 67}, {"time": 3136, "pitch": 78, "duration": 12, "velocity": 84}, {"time": 3148, "pitch": 75, "duration": 12, "velocity": 82}, {"time": 3160, "pitch": 71, "duration": 18, "velocity": 76}, {"time": 3184, "pitch": 80, "duration": 11, "velocity": 84}, {"time": 3196, "pitch": 76, "duration": 12, "velocity": 78}, {"time": 3208, "pitch": 71, "duration": 13, "velocity": 77}, {"time": 3220, "pitch": 68, "duration": 10, "velocity": 79}, {"time": 3232, "pitch": 66, "duration": 12, "velocity": 73}, {"time": 3232, "pitch": 70, "duration": 12, "velocity": 81}, {"time": 3244, "pitch": 73, "duration": 13, "velocity": 83}, {"time": 3256, "pitch": 78, "duration": 20, "velocity": 77}, {"time": 3280, "pitch": 71, "duration": 13, "velocity": 76}, {"time": 3280, "pitch": 75, "duration": 13, "velocity": 84}, {"time": 3292, "pitch": 78, "duration": 18, "velocity": 78}, {"time": 3310, "pitch": 83, "duration": 7, "velocity": 84}, {"time": 3316, "pitch": 82, "duration": 7, "velocity": 86}, {"time": 3322, "pitch": 78, "duration": 4, "velocity": 77}, {"time": 3328, "pitch": 78, "duration": 34, "velocity": 78}, {"time": 3334, "pitch": 75, "duration": 30, "velocity": 71}, {"time": 3364, "pitch": 80, "duration": 11, "velocity": 82}, {"time": 3376, "pitch": 78, "duration": 10, "velocity": 76}, {"time": 3382, "pitch": 75, "duration": 9, "velocity": 73}, {"time": 3388, "pitch": 80, "duration": 6, "velocity": 82}, {"time": 3394, "pitch": 78, "duration": 28, "velocity": 80}, {"time": 3424, "pitch": 82, "duration": 13, "velocity": 83}, {"time": 3436, "pitch": 78, "duration": 8, "velocity": 79}, {"time": 3442, "pitch": 73, "duration": 26, "velocity": 80}, {"time": 3448, "pitch": 78, "duration": 19, "velocity": 73}, {"time": 3472, "pitch": 75, "duration": 16, "velocity": 83}, {"time": 3478, "pitch": 71, "duration": 9, "velocity": 75}, {"time": 3484, "pitch": 68, "duration": 26, "velocity": 67}, {"time": 3490, "pitch": 71, "duration": 21, "velocity": 73}, {"time": 3520, "pitch": 75, "duration": 25, "velocity": 78}, {"time": 3544, "pitch": 71, "duration": 20, "velocity": 74}, {"time": 3568, "pitch": 80, "duration": 11, "velocity": 79}, {"time": 3580, "pitch": 76, "duration": 26, "velocity": 73}, {"time": 3604, "pitch": 73, "duration": 6, "velocity": 82}, {"time": 3610, "pitch": 71, "duration": 6, "velocity": 81}, {"time": 3616, "pitch": 73, "duration": 42, "velocity": 83}, {"time": 3651, "pitch": 71, "duration": 5, "velocity": 86}, {"time": 3655, "pitch": 73, "duration": 3, "velocity": 83}, {"time": 3658, "pitch": 75, "duration": 4, "velocity": 88}, {"time": 3661, "pitch": 76, "duration": 4, "velocity": 80}, {"time": 3664, "pitch": 78, "duration": 5, "velocity": 88}, {"time": 3669, "pitch": 71, "duration": 6, "velocity": 85}, {"time": 3676, "pitch": 73, "duration": 4, "velocity": 87}, {"time": 3682, "pitch": 76, "duration": 5, "velocity": 84}, {"time": 3688, "pitch": 75, "duration": 9, "velocity": 83}, {"time": 3688, "pitch": 78, "duration": 10, "velocity": 83}, {"time": 3700, "pitch": 76, "duration": 10, "velocity": 83}, {"time": 3700, "pitch": 73, "duration": 9, "velocity": 86}, {"time": 3711, "pitch": 71, "duration": 12, "velocity": 82}, {"time": 3712, "pitch": 75, "duration": 11, "velocity": 84}, {"time": 3729, "pitch": 73, "duration": 5, "velocity": 83}, {"time": 3730, "pitch": 70, "duration": 4, "velocity": 83}, {"time": 3735, "pitch": 71, "duration": 12, "velocity": 84}, {"time": 3735, "pitch": 68, "duration": 11, "velocity": 84}, {"time": 3747, "pitch": 70, "duration": 6, "velocity": 86}, {"time": 3753, "pitch": 68, "duration": 5, "velocity": 78}, {"time": 3753, "pitch": 71, "duration": 5, "velocity": 78}, {"time": 3759, "pitch": 68, "duration": 18, "velocity": 81}, {"time": 3759, "pitch": 71, "duration": 18, "velocity": 83}, {"time": 3777, "pitch": 68, "duration": 1, "velocity": 82}, {"time": 3777, "pitch": 71, "duration": 5, "velocity": 83}, {"time": 3783, "pitch": 66, "duration": 4, "velocity": 77}, {"time": 3784, "pitch": 70, "duration": 4, "velocity": 80}, {"time": 3789, "pitch": 68, "duration": 5, "velocity": 82}, {"time": 3789, "pitch": 71, "duration": 4, "velocity": 83}, {"time": 3795, "pitch": 70, "duration": 6, "velocity": 82}, {"time": 3795, "pitch": 73, "duration": 6, "velocity": 86}, {"time": 3801, "pitch": 66, "duration": 8, "velocity": 87}, {"time": 3807, "pitch": 71, "duration": 36, "velocity": 87}, {"time": 3807, "pitch": 75, "duration": 36, "velocity": 86}, {"time": 3843, "pitch": 71, "duration": 5, "velocity": 86}, {"time": 3847, "pitch": 73, "duration": 3, "velocity": 83}, {"time": 3850, "pitch": 75, "duration": 4, "velocity": 88}, {"time": 3853, "pitch": 76, "duration": 4, "velocity": 80}, {"time": 3856, "pitch": 78, "duration": 5, "velocity": 88}, {"time": 3861, "pitch": 71, "duration": 6, "velocity": 85}, {"time": 3868, "pitch": 73, "duration": 4, "velocity": 87}, {"time": 3874, "pitch": 76, "duration": 5, "velocity": 84}, {"time": 3880, "pitch": 75, "duration": 9, "velocity": 83}, {"time": 3880, "pitch": 78, "duration": 10, "velocity": 83}, {"time": 3892, "pitch": 76, "duration": 10, "velocity": 83}, {"time": 3892, "pitch": 73, "duration": 9, "velocity": 86}, {"time": 3903, "pitch": 71, "duration": 12, "velocity": 82}, {"time": 3904, "pitch": 75, "duration": 11, "velocity": 84}, {"time": 3921, "pitch": 73, "duration": 5, "velocity": 83}, {"time": 3922, "pitch": 70, "duration": 4, "velocity": 83}, {"time": 3927, "pitch": 71, "duration": 12, "velocity": 84}, {"time": 3927, "pitch": 68, "duration": 11, "velocity": 84}, {"time": 3941, "pitch": 66, "duration": 11, "velocity": 77}, {"time": 3941, "pitch": 70, "duration": 9, "velocity": 78}, {"time": 3949, "pitch": 71, "duration": 8, "velocity": 82}, {"time": 3956, "pitch": 64, "duration": 21, "velocity": 75}, {"time": 3957, "pitch": 68, "duration": 20, "velocity": 73}, {"time": 3979, "pitch": 71, "duration": 15, "velocity": 79}, {"time": 3979, "pitch": 64, "duration": 12, "velocity": 75}, {"time": 3992, "pitch": 66, "duration": 10, "velocity": 75}, {"time": 3992, "pitch": 70, "duration": 9, "velocity": 75}, {"time": 4002, "pitch": 68, "duration": 9, "velocity": 75}, {"time": 4002, "pitch": 71, "duration": 9, "velocity": 78}, {"time": 4012, "pitch": 70, "duration": 21, "velocity": 76}, {"time": 4012, "pitch": 73, "duration": 23, "velocity": 82}, {"time": 4037, "pitch": 66, "duration": 57, "velocity": 66}, {"time": 4039, "pitch": 71, "duration": 55, "velocity": 65}, {"time": 4040, "pitch": 75, "duration": 54, "velocity": 77}, {"time": 4042, "pitch": 78, "duration": 54, "velocity": 77}]}, {"program": 0, "is_drum": false, "name": "PIANO", "notes": [{"time": 16, "pitch": 40, "duration": 19, "velocity": 84}, {"time": 16, "pitch": 59, "duration": 16, "velocity": 80}, {"time": 22, "pitch": 47, "duration": 14, "velocity": 77}, {"time": 28, "pitch": 52, "duration": 6, "velocity": 85}, {"time": 34, "pitch": 64, "duration": 3, "velocity": 82}, {"time": 40, "pitch": 42, "duration": 15, "velocity": 83}, {"time": 40, "pitch": 54, "duration": 12, "velocity": 78}, {"time": 40, "pitch": 58, "duration": 13, "velocity": 76}, {"time": 46, "pitch": 49, "duration": 9, "velocity": 76}, {"time": 52, "pitch": 61, "duration": 3, "velocity": 78}, {"time": 64, "pitch": 44, "duration": 39, "velocity": 83}, {"time": 64, "pitch": 56, "duration": 12, "velocity": 76}, {"time": 64, "pitch": 59, "duration": 12, "velocity": 78}, {"time": 70, "pitch": 51, "duration": 32, "velocity": 77}, {"time": 76, "pitch": 63, "duration": 2, "velocity": 86}, {"time": 82, "pitch": 56, "duration": 7, "velocity": 81}, {"time": 88, "pitch": 68, "duration": 7, "velocity": 84}, {"time": 94, "pitch": 56, "duration": 4, "velocity": 78}, {"time": 100, "pitch": 56, "duration": 4, "velocity": 76}, {"time": 100, "pitch": 63, "duration": 3, "velocity": 80}, {"time": 106, "pitch": 51, "duration": 2, "velocity": 83}, {"time": 112, "pitch": 40, "duration": 20, "velocity": 82}, {"time": 112, "pitch": 52, "duration": 13, "velocity": 73}, {"time": 112, "pitch": 56, "duration": 8, "velocity": 76}, {"time": 118, "pitch": 47, "duration": 14, "velocity": 75}, {"time": 124, "pitch": 59, "duration": 9, "velocity": 84}, {"time": 130, "pitch": 52, "duration": 2, "velocity": 83}, {"time": 136, "pitch": 42, "duration": 14, "velocity": 82}, {"time": 136, "pitch": 54, "duration": 9, "velocity": 82}, {"time": 136, "pitch": 58, "duration": 9, "velocity": 79}, {"time": 142, "pitch": 49, "duration": 8, "velocity": 76}, {"time": 148, "pitch": 54, "duration": 3, "velocity": 82}, {"time": 148, "pitch": 58, "duration": 8, "velocity": 78}, {"time": 154, "pitch": 54, "duration": 6, "velocity": 82}, {"time": 160, "pitch": 35, "duration": 2, "velocity": 82}, {"time": 160, "pitch": 59, "duration": 7, "velocity": 78}, {"time": 166, "pitch": 47, "duration": 30, "velocity": 83}, {"time": 172, "pitch": 61, "duration": 3, "velocity": 78}, {"time": 178, "pitch": 54, "duration": 8, "velocity": 82}, {"time": 184, "pitch": 59, "duration": 8, "velocity": 76}, {"time": 184, "pitch": 66, "duration": 10, "velocity": 74}, {"time": 190, "pitch": 54, "duration": 6, "velocity": 75}, {"time": 196, "pitch": 59, "duration": 2, "velocity": 72}, {"time": 196, "pitch": 63, "duration": 1, "velocity": 75}, {"time": 208, "pitch": 47, "duration": 23, "velocity": 81}, {"time": 208, "pitch": 54, "duration": 4, "velocity": 78}, {"time": 208, "pitch": 59, "duration": 7, "velocity": 77}, {"time": 214, "pitch": 54, "duration": 7, "velocity": 83}, {"time": 220, "pitch": 59, "duration": 3, "velocity": 83}, {"time": 220, "pitch": 63, "duration": 6, "velocity": 84}, {"time": 232, "pitch": 46, "duration": 22, "velocity": 83}, {"time": 232, "pitch": 54, "duration": 2, "velocity": 71}, {"time": 232, "pitch": 58, "duration": 8, "velocity": 78}, {"time": 232, "pitch": 63, "duration": 8, "velocity": 78}, {"time": 238, "pitch": 54, "duration": 7, "velocity": 75}, {"time": 244, "pitch": 58, "duration": 6, "velocity": 79}, {"time": 244, "pitch": 63, "duration": 11, "velocity": 84}, {"time": 256, "pitch": 44, "duration": 39, "velocity": 78}, {"time": 256, "pitch": 56, "duration": 12, "velocity": 69}, {"time": 256, "pitch": 59, "duration": 7, "velocity": 73}, {"time": 262, "pitch": 51, "duration": 32, "velocity": 70}, {"time": 268, "pitch": 59, "duration": 8, "velocity": 76}, {"time": 268, "pitch": 63, "duration": 8, "velocity": 83}, {"time": 274, "pitch": 56, "duration": 7, "velocity": 82}, {"time": 280, "pitch": 63, "duration": 5, "velocity": 80}, {"time": 292, "pitch": 56, "duration": 2, "velocity": 80}, {"time": 292, "pitch": 59, "duration": 4, "velocity": 88}, {"time": 292, "pitch": 63, "duration": 7, "velocity": 82}, {"time": 298, "pitch": 56, "duration": 2, "velocity": 83}, {"time": 304, "pitch": 40, "duration": 20, "velocity": 80}, {"time": 304, "pitch": 52, "duration": 11, "velocity": 75}, {"time": 304, "pitch": 59, "duration": 10, "velocity": 77}, {"time": 310, "pitch": 47, "duration": 15, "velocity": 70}, {"time": 316, "pitch": 56, "duration": 7, "velocity": 73}, {"time": 322, "pitch": 52, "duration": 3, "velocity": 83}, {"time": 328, "pitch": 42, "duration": 16, "velocity": 81}, {"time": 328, "pitch": 54, "duration": 8, "velocity": 78}, {"time": 328, "pitch": 58, "duration": 12, "velocity": 80}, {"time": 334, "pitch": 49, "duration": 10, "velocity": 73}, {"time": 340, "pitch": 54, "duration": 2, "velocity": 82}, {"time": 352, "pitch": 47, "duration": 20, "velocity": 78}, {"time": 352, "pitch": 63, "duration": 12, "velocity": 82}, {"time": 358, "pitch": 51, "duration": 13, "velocity": 74}, {"time": 364, "pitch": 61, "duration": 11, "velocity": 83}, {"time": 370, "pitch": 54, "duration": 4, "velocity": 76}, {"time": 376, "pitch": 47, "duration": 16, "velocity": 76}, {"time": 376, "pitch": 59, "duration": 7, "velocity": 65}, {"time": 382, "pitch": 54, "duration": 3, "velocity": 67}, {"time": 388, "pitch": 54, "duration": 1, "velocity": 70}, {"time": 388, "pitch": 59, "duration": 3, "velocity": 76}, {"time": 388, "pitch": 63, "duration": 4, "velocity": 83}, {"time": 400, "pitch": 47, "duration": 14, "velocity": 83}, {"time": 400, "pitch": 54, "duration": 3, "velocity": 76}, {"time": 400, "pitch": 63, "duration": 18, "velocity": 82}, {"time": 406, "pitch": 54, "duration": 7, "velocity": 71}, {"time": 412, "pitch": 59, "duration": 6, "velocity": 78}, {"time": 418, "pitch": 54, "duration": 4, "velocity": 79}, {"time": 424, "pitch": 42, "duration": 13, "velocity": 79}, {"time": 424, "pitch": 54, "duration": 3, "velocity": 77}, {"time": 424, "pitch": 58, "duration": 7, "velocity": 76}, {"time": 430, "pitch": 54, "duration": 7, "velocity": 77}, {"time": 436, "pitch": 58, "duration": 3, "velocity": 84}, {"time": 436, "pitch": 61, "duration": 5, "velocity": 83}, {"time": 448, "pitch": 44, "duration": 39, "velocity": 75}, {"time": 448, "pitch": 56, "duration": 12, "velocity": 70}, {"time": 448, "pitch": 59, "duration": 12, "velocity": 73}, {"time": 454, "pitch": 51, "duration": 32, "velocity": 73}, {"time": 460, "pitch": 63, "duration": 6, "velocity": 83}, {"time": 466, "pitch": 56, "duration": 8, "velocity": 82}, {"time": 472, "pitch": 68, "duration": 6, "velocity": 82}, {"time": 478, "pitch": 56, "duration": 4, "velocity": 75}, {"time": 484, "pitch": 56, "duration": 3, "velocity": 74}, {"time": 484, "pitch": 63, "duration": 2, "velocity": 79}, {"time": 496, "pitch": 40, "duration": 19, "velocity": 75}, {"time": 496, "pitch": 59, "duration": 13, "velocity": 74}, {"time": 502, "pitch": 47, "duration": 14, "velocity": 72}, {"time": 508, "pitch": 56, "duration": 7, "velocity": 80}, {"time": 514, "pitch": 52, "duration": 3, "velocity": 86}, {"time": 520, "pitch": 42, "duration": 19, "velocity": 80}, {"time": 520, "pitch": 58, "duration": 8, "velocity": 83}, {"time": 526, "pitch": 54, "duration": 7, "velocity": 82}, {"time": 532, "pitch": 61, "duration": 12, "velocity": 79}, {"time": 538, "pitch": 54, "duration": 6, "velocity": 83}, {"time": 544, "pitch": 47, "duration": 38, "velocity": 77}, {"time": 544, "pitch": 59, "duration": 12, "velocity": 79}, {"time": 550, "pitch": 51, "duration": 32, "velocity": 77}, {"time": 556, "pitch": 63, "duration": 19, "velocity": 83}, {"time": 562, "pitch": 54, "duration": 7, "velocity": 77}, {"time": 568, "pitch": 59, "duration": 7, "velocity": 73}, {"time": 574, "pitch": 54, "duration": 2, "velocity": 71}, {"time": 580, "pitch": 54, "duration": 2, "velocity": 81}, {"time": 580, "pitch": 59, "duration": 4, "velocity": 84}, {"time": 580, "pitch": 63, "duration": 7, "velocity": 84}, {"time": 586, "pitch": 54, "duration": 1, "velocity": 77}, {"time": 592, "pitch": 40, "duration": 20, "velocity": 82}, {"time": 592, "pitch": 52, "duration": 4, "velocity": 76}, {"time": 592, "pitch": 59, "duration": 14, "velocity": 77}, {"time": 598, "pitch": 47, "duration": 15, "velocity": 84}, {"time": 598, "pitch": 52, "duration": 2, "velocity": 75}, {"time": 604, "pitch": 56, "duration": 6, "velocity": 84}, {"time": 610, "pitch": 52, "duration": 3, "velocity": 83}, {"time": 616, "pitch": 42, "duration": 20, "velocity": 82}, {"time": 616, "pitch": 54, "duration": 11, "velocity": 76}, {"time": 616, "pitch": 58, "duration": 12, "velocity": 73}, {"time": 622, "pitch": 49, "duration": 14, "velocity": 73}, {"time": 628, "pitch": 61, "duration": 8, "velocity": 82}, {"time": 634, "pitch": 54, "duration": 6, "velocity": 82}, {"time": 640, "pitch": 47, "duration": 21, "velocity": 78}, {"time": 640, "pitch": 63, "duration": 9, "velocity": 84}, {"time": 646, "pitch": 51, "duration": 14, "velocity": 73}, {"time": 652, "pitch": 63, "duration": 10, "velocity": 85}, {"time": 658, "pitch": 54, "duration": 4, "velocity": 82}, {"time": 664, "pitch": 47, "duration": 21, "velocity": 80}, {"time": 664, "pitch": 54, "duration": 2, "velocity": 74}, {"time": 664, "pitch": 59, "duration": 7, "velocity": 71}, {"time": 664, "pitch": 61, "duration": 3, "velocity": 76}, {"time": 670, "pitch": 54, "duration": 4, "velocity": 75}, {"time": 676, "pitch": 54, "duration": 2, "velocity": 82}, {"time": 676, "pitch": 59, "duration": 3, "velocity": 82}, {"time": 676, "pitch": 63, "duration": 5, "velocity": 83}, {"time": 682, "pitch": 59, "duration": 2, "velocity": 76}, {"time": 688, "pitch": 40, "duration": 19, "velocity": 81}, {"time": 688, "pitch": 52, "duration": 4, "velocity": 78}, {"time": 688, "pitch": 56, "duration": 8, "velocity": 79}, {"time": 694, "pitch": 52, "duration": 7, "velocity": 82}, {"time": 700, "pitch": 59, "duration": 10, "velocity": 82}, {"time": 706, "pitch": 47, "duration": 5, "velocity": 82}, {"time": 712, "pitch": 42, "duration": 20, "velocity": 82}, {"time": 712, "pitch": 54, "duration": 13, "velocity": 78}, {"time": 712, "pitch": 58, "duration": 13, "velocity": 76}, {"time": 718, "pitch": 49, "duration": 14, "velocity": 77}, {"time": 724, "pitch": 61, "duration": 6, "velocity": 81}, {"time": 730, "pitch": 54, "duration": 8, "velocity": 76}, {"time": 736, "pitch": 47, "duration": 20, "velocity": 82}, {"time": 736, "pitch": 63, "duration": 12, "velocity": 82}, {"time": 742, "pitch": 51, "duration": 13, "velocity": 79}, {"time": 748, "pitch": 61, "duration": 7, "velocity": 82}, {"time": 754, "pitch": 54, "duration": 7, "velocity": 83}, {"time": 760, "pitch": 47, "duration": 14, "velocity": 83}, {"time": 760, "pitch": 59, "duration": 7, "velocity": 82}, {"time": 760, "pitch": 63, "duration": 11, "velocity": 85}, {"time": 766, "pitch": 54, "duration": 4, "velocity": 84}, {"time": 772, "pitch": 54, "duration": 3, "velocity": 82}, {"time": 772, "pitch": 59, "duration": 5, "velocity": 83}, {"time": 778, "pitch": 47, "duration": 2, "velocity": 79}, {"time": 784, "pitch": 40, "duration": 19, "velocity": 82}, {"time": 784, "pitch": 52, "duration": 12, "velocity": 77}, {"time": 784, "pitch": 56, "duration": 9, "velocity": 74}, {"time": 790, "pitch": 47, "duration": 14, "velocity": 77}, {"time": 796, "pitch": 59, "duration": 7, "velocity": 85}, {"time": 802, "pitch": 52, "duration": 3, "velocity": 88}, {"time": 808, "pitch": 42, "duration": 15, "velocity": 83}, {"time": 808, "pitch": 54, "duration": 10, "velocity": 79}, {"time": 808, "pitch": 58, "duration": 9, "velocity": 82}, {"time": 814, "pitch": 49, "duration": 8, "velocity": 76}, {"time": 820, "pitch": 54, "duration": 4, "velocity": 82}, {"time": 820, "pitch": 58, "duration": 5, "velocity": 82}, {"time": 826, "pitch": 42, "duration": 4, "velocity": 84}, {"time": 832, "pitch": 47, "duration": 15, "velocity": 89}, {"time": 832, "pitch": 54, "duration": 2, "velocity": 83}, {"time": 832, "pitch": 59, "duration": 7, "velocity": 82}, {"time": 838, "pitch": 54, "duration": 4, "velocity": 82}, {"time": 844, "pitch": 54, "duration": 3, "velocity": 77}, {"time": 844, "pitch": 58, "duration": 5, "velocity": 87}, {"time": 850, "pitch": 47, "duration": 4, "velocity": 88}, {"time": 856, "pitch": 44, "duration": 15, "velocity": 81}, {"time": 856, "pitch": 56, "duration": 9, "velocity": 76}, {"time": 856, "pitch": 59, "duration": 7, "velocity": 77}, {"time": 862, "pitch": 51, "duration": 8, "velocity": 77}, {"time": 868, "pitch": 56, "duration": 3, "velocity": 73}, {"time": 868, "pitch": 59, "duration": 3, "velocity": 78}, {"time": 868, "pitch": 63, "duration": 4, "velocity": 81}, {"time": 880, "pitch": 40, "duration": 38, "velocity": 83}, {"time": 880, "pitch": 52, "duration": 12, "velocity": 73}, {"time": 880, "pitch": 59, "duration": 12, "velocity": 77}, {"time": 886, "pitch": 47, "duration": 33, "velocity": 75}, {"time": 892, "pitch": 56, "duration": 5, "velocity": 83}, {"time": 898, "pitch": 52, "duration": 8, "velocity": 82}, {"time": 904, "pitch": 64, "duration": 7, "velocity": 82}, {"time": 910, "pitch": 52, "duration": 3, "velocity": 77}, {"time": 916, "pitch": 52, "duration": 3, "velocity": 80}, {"time": 916, "pitch": 56, "duration": 3, "velocity": 83}, {"time": 916, "pitch": 59, "duration": 4, "velocity": 83}, {"time": 922, "pitch": 40, "duration": 3, "velocity": 83}, {"time": 928, "pitch": 42, "duration": 13, "velocity": 83}, {"time": 928, "pitch": 54, "duration": 7, "velocity": 74}, {"time": 928, "pitch": 58, "duration": 7, "velocity": 78}, {"time": 928, "pitch": 61, "duration": 7, "velocity": 78}, {"time": 934, "pitch": 49, "duration": 7, "velocity": 82}, {"time": 940, "pitch": 54, "duration": 3, "velocity": 83}, {"time": 940, "pitch": 58, "duration": 7, "velocity": 86}, {"time": 940, "pitch": 61, "duration": 8, "velocity": 84}, {"time": 940, "pitch": 66, "duration": 6, "velocity": 79}, {"time": 946, "pitch": 54, "duration": 4, "velocity": 83}, {"time": 952, "pitch": 54, "duration": 3, "velocity": 87}, {"time": 952, "pitch": 58, "duration": 7, "velocity": 93}, {"time": 952, "pitch": 61, "duration": 8, "velocity": 88}, {"time": 952, "pitch": 66, "duration": 8, "velocity": 82}, {"time": 964, "pitch": 58, "duration": 3, "velocity": 82}, {"time": 964, "pitch": 61, "duration": 4, "velocity": 82}, {"time": 964, "pitch": 66, "duration": 4, "velocity": 80}, {"time": 976, "pitch": 35, "duration": 2, "velocity": 83}, {"time": 976, "pitch": 54, "duration": 5, "velocity": 78}, {"time": 976, "pitch": 59, "duration": 6, "velocity": 76}, {"time": 976, "pitch": 63, "duration": 6, "velocity": 78}, {"time": 988, "pitch": 54, "duration": 4, "velocity": 82}, {"time": 988, "pitch": 59, "duration": 5, "velocity": 83}, {"time": 988, "pitch": 63, "duration": 6, "velocity": 84}, {"time": 997, "pitch": 54, "duration": 1, "velocity": 88}, {"time": 1000, "pitch": 54, "duration": 6, "velocity": 84}, {"time": 1000, "pitch": 59, "duration": 6, "velocity": 88}, {"time": 1000, "pitch": 63, "duration": 7, "velocity": 87}, {"time": 1006, "pitch": 51, "duration": 11, "velocity": 75}, {"time": 1009, "pitch": 54, "duration": 1, "velocity": 82}, {"time": 1012, "pitch": 54, "duration": 6, "velocity": 85}, {"time": 1012, "pitch": 59, "duration": 5, "velocity": 84}, {"time": 1018, "pitch": 47, "duration": 3, "velocity": 70}, {"time": 1024, "pitch": 42, "duration": 23, "velocity": 82}, {"time": 1024, "pitch": 54, "duration": 7, "velocity": 78}, {"time": 1024, "pitch": 58, "duration": 5, "velocity": 77}, {"time": 1024, "pitch": 61, "duration": 7, "velocity": 81}, {"time": 1030, "pitch": 49, "duration": 8, "velocity": 73}, {"time": 1036, "pitch": 54, "duration": 3, "velocity": 82}, {"time": 1036, "pitch": 58, "duration": 2, "velocity": 82}, {"time": 1036, "pitch": 61, "duration": 2, "velocity": 82}, {"time": 1045, "pitch": 54, "duration": 9, "velocity": 82}, {"time": 1048, "pitch": 42, "duration": 14, "velocity": 82}, {"time": 1048, "pitch": 58, "duration": 6, "velocity": 87}, {"time": 1048, "pitch": 61, "duration": 6, "velocity": 84}, {"time": 1048, "pitch": 66, "duration": 6, "velocity": 82}, {"time": 1054, "pitch": 49, "duration": 7, "velocity": 79}, {"time": 1060, "pitch": 54, "duration": 4, "velocity": 86}, {"time": 1060, "pitch": 58, "duration": 5, "velocity": 96}, {"time": 1060, "pitch": 61, "duration": 5, "velocity": 85}, {"time": 1066, "pitch": 49, "duration": 2, "velocity": 84}, {"time": 1069, "pitch": 54, "duration": 1, "velocity": 82}, {"time": 1072, "pitch": 44, "duration": 16, "velocity": 77}, {"time": 1072, "pitch": 46, "duration": 1, "velocity": 52}, {"time": 1072, "pitch": 56, "duration": 7, "velocity": 77}, {"time": 1072, "pitch": 59, "duration": 6, "velocity": 75}, {"time": 1078, "pitch": 51, "duration": 7, "velocity": 75}, {"time": 1084, "pitch": 56, "duration": 3, "velocity": 83}, {"time": 1084, "pitch": 59, "duration": 3, "velocity": 84}, {"time": 1084, "pitch": 63, "duration": 4, "velocity": 84}, {"time": 1093, "pitch": 56, "duration": 1, "velocity": 84}, {"time": 1096, "pitch": 44, "duration": 18, "velocity": 82}, {"time": 1096, "pitch": 56, "duration": 6, "velocity": 77}, {"time": 1096, "pitch": 59, "duration": 5, "velocity": 84}, {"time": 1096, "pitch": 68, "duration": 5, "velocity": 83}, {"time": 1102, "pitch": 51, "duration": 7, "velocity": 73}, {"time": 1108, "pitch": 56, "duration": 4, "velocity": 77}, {"time": 1108, "pitch": 59, "duration": 5, "velocity": 82}, {"time": 1108, "pitch": 63, "duration": 5, "velocity": 83}, {"time": 1114, "pitch": 51, "duration": 2, "velocity": 82}, {"time": 1120, "pitch": 42, "duration": 16, "velocity": 83}, {"time": 1120, "pitch": 54, "duration": 7, "velocity": 80}, {"time": 1120, "pitch": 58, "duration": 6, "velocity": 77}, {"time": 1126, "pitch": 49, "duration": 8, "velocity": 70}, {"time": 1132, "pitch": 54, "duration": 3, "velocity": 83}, {"time": 1132, "pitch": 58, "duration": 5, "velocity": 89}, {"time": 1132, "pitch": 61, "duration": 5, "velocity": 86}, {"time": 1138, "pitch": 49, "duration": 4, "velocity": 80}, {"time": 1141, "pitch": 54, "duration": 4, "velocity": 86}, {"time": 1144, "pitch": 42, "duration": 15, "velocity": 84}, {"time": 1144, "pitch": 66, "duration": 9, "velocity": 87}, {"time": 1147, "pitch": 49, "duration": 9, "velocity": 85}, {"time": 1150, "pitch": 54, "duration": 3, "velocity": 87}, {"time": 1153, "pitch": 61, "duration": 6, "velocity": 82}, {"time": 1156, "pitch": 54, "duration": 4, "velocity": 89}, {"time": 1159, "pitch": 49, "duration": 3, "velocity": 89}, {"time": 1162, "pitch": 54, "duration": 4, "velocity": 84}, {"time": 1165, "pitch": 58, "duration": 1, "velocity": 81}, {"time": 1168, "pitch": 40, "duration": 20, "velocity": 83}, {"time": 1168, "pitch": 52, "duration": 7, "velocity": 83}, {"time": 1168, "pitch": 56, "duration": 6, "velocity": 83}, {"time": 1174, "pitch": 47, "duration": 7, "velocity": 69}, {"time": 1180, "pitch": 52, "duration": 4, "velocity": 84}, {"time": 1180, "pitch": 56, "duration": 4, "velocity": 83}, {"time": 1180, "pitch": 64, "duration": 3, "velocity": 76}, {"time": 1189, "pitch": 52, "duration": 1, "velocity": 78}, {"time": 1192, "pitch": 40, "duration": 14, "velocity": 83}, {"time": 1192, "pitch": 52, "duration": 8, "velocity": 78}, {"time": 1192, "pitch": 56, "duration": 8, "velocity": 78}, {"time": 1192, "pitch": 59, "duration": 9, "velocity": 81}, {"time": 1198, "pitch": 47, "duration": 8, "velocity": 69}, {"time": 1204, "pitch": 52, "duration": 3, "velocity": 83}, {"time": 1204, "pitch": 56, "duration": 2, "velocity": 84}, {"time": 1204, "pitch": 59, "duration": 3, "velocity": 84}, {"time": 1210, "pitch": 40, "duration": 2, "velocity": 82}, {"time": 1216, "pitch": 39, "duration": 14, "velocity": 84}, {"time": 1216, "pitch": 58, "duration": 7, "velocity": 83}, {"time": 1216, "pitch": 63, "duration": 7, "velocity": 83}, {"time": 1216, "pitch": 66, "duration": 7, "velocity": 80}, {"time": 1222, "pitch": 46, "duration": 8, "velocity": 68}, {"time": 1228, "pitch": 58, "duration": 2, "velocity": 85}, {"time": 1228, "pitch": 63, "duration": 2, "velocity": 93}, {"time": 1228, "pitch": 66, "duration": 3, "velocity": 84}, {"time": 1240, "pitch": 39, "duration": 9, "velocity": 98}, {"time": 1240, "pitch": 58, "duration": 7, "velocity": 87}, {"time": 1240, "pitch": 63, "duration": 10, "velocity": 85}, {"time": 1252, "pitch": 38, "duration": 10, "velocity": 91}, {"time": 1252, "pitch": 58, "duration": 9, "velocity": 83}, {"time": 1252, "pitch": 62, "duration": 10, "velocity": 82}, {"time": 1264, "pitch": 37, "duration": 9, "velocity": 88}, {"time": 1264, "pitch": 56, "duration": 4, "velocity": 83}, {"time": 1264, "pitch": 61, "duration": 5, "velocity": 82}, {"time": 1270, "pitch": 56, "duration": 2, "velocity": 84}, {"time": 1276, "pitch": 56, "duration": 3, "velocity": 84}, {"time": 1276, "pitch": 61, "duration": 3, "velocity": 84}, {"time": 1276, "pitch": 64, "duration": 4, "velocity": 85}, {"time": 1285, "pitch": 56, "duration": 2, "velocity": 83}, {"time": 1288, "pitch": 49, "duration": 8, "velocity": 84}, {"time": 1288, "pitch": 56, "duration": 3, "velocity": 80}, {"time": 1288, "pitch": 61, "duration": 5, "velocity": 82}, {"time": 1288, "pitch": 64, "duration": 7, "velocity": 82}, {"time": 1294, "pitch": 56, "duration": 2, "velocity": 82}, {"time": 1294, "pitch": 61, "duration": 1, "velocity": 53}, {"time": 1300, "pitch": 56, "duration": 2, "velocity": 85}, {"time": 1300, "pitch": 61, "duration": 3, "velocity": 88}, {"time": 1300, "pitch": 64, "duration": 5, "velocity": 86}, {"time": 1306, "pitch": 56, "duration": 1, "velocity": 79}, {"time": 1312, "pitch": 42, "duration": 22, "velocity": 83}, {"time": 1312, "pitch": 54, "duration": 7, "velocity": 82}, {"time": 1312, "pitch": 58, "duration": 7, "velocity": 84}, {"time": 1312, "pitch": 61, "duration": 7, "velocity": 83}, {"time": 1318, "pitch": 49, "duration": 16, "velocity": 78}, {"time": 1324, "pitch": 54, "duration": 3, "velocity": 89}, {"time": 1324, "pitch": 66, "duration": 3, "velocity": 87}, {"time": 1333, "pitch": 54, "duration": 9, "velocity": 83}, {"time": 1336, "pitch": 42, "duration": 24, "velocity": 84}, {"time": 1336, "pitch": 58, "duration": 6, "velocity": 88}, {"time": 1336, "pitch": 61, "duration": 7, "velocity": 85}, {"time": 1342, "pitch": 49, "duration": 8, "velocity": 81}, {"time": 1345, "pitch": 54, "duration": 2, "velocity": 84}, {"time": 1348, "pitch": 54, "duration": 1, "velocity": 76}, {"time": 1348, "pitch": 58, "duration": 7, "velocity": 93}, {"time": 1348, "pitch": 61, "duration": 11, "velocity": 88}, {"time": 1348, "pitch": 66, "duration": 11, "velocity": 83}, {"time": 1351, "pitch": 54, "duration": 4, "velocity": 84}, {"time": 1354, "pitch": 49, "duration": 6, "velocity": 87}, {"time": 1357, "pitch": 54, "duration": 2, "velocity": 86}, {"time": 1360, "pitch": 35, "duration": 2, "velocity": 83}, {"time": 1360, "pitch": 54, "duration": 5, "velocity": 78}, {"time": 1360, "pitch": 59, "duration": 6, "velocity": 76}, {"time": 1360, "pitch": 63, "duration": 6, "velocity": 78}, {"time": 1372, "pitch": 54, "duration": 4, "velocity": 82}, {"time": 1372, "pitch": 59, "duration": 5, "velocity": 83}, {"time": 1372, "pitch": 63, "duration": 6, "velocity": 84}, {"time": 1381, "pitch": 54, "duration": 1, "velocity": 88}, {"time": 1384, "pitch": 54, "duration": 6, "velocity": 84}, {"time": 1384, "pitch": 59, "duration": 6, "velocity": 88}, {"time": 1384, "pitch": 63, "duration": 7, "velocity": 87}, {"time": 1390, "pitch": 51, "duration": 11, "velocity": 75}, {"time": 1393, "pitch": 54, "duration": 1, "velocity": 82}, {"time": 1396, "pitch": 54, "duration": 6, "velocity": 85}, {"time": 1396, "pitch": 59, "duration": 5, "velocity": 84}, {"time": 1402, "pitch": 47, "duration": 3, "velocity": 70}, {"time": 1408, "pitch": 42, "duration": 23, "velocity": 82}, {"time": 1408, "pitch": 54, "duration": 7, "velocity": 78}, {"time": 1408, "pitch": 58, "duration": 5, "velocity": 77}, {"time": 1408, "pitch": 61, "duration": 7, "velocity": 81}, {"time": 1414, "pitch": 49, "duration": 8, "velocity": 73}, {"time": 1420, "pitch": 54, "duration": 3, "velocity": 82}, {"time": 1420, "pitch": 58, "duration": 2, "velocity": 82}, {"time": 1420, "pitch": 61, "duration": 2, "velocity": 82}, {"time": 1429, "pitch": 54, "duration": 9, "velocity": 82}, {"time": 1432, "pitch": 42, "duration": 14, "velocity": 82}, {"time": 1432, "pitch": 58, "duration": 6, "velocity": 87}, {"time": 1432, "pitch": 61, "duration": 6, "velocity": 84}, {"time": 1432, "pitch": 66, "duration": 6, "velocity": 82}, {"time": 1438, "pitch": 49, "duration": 7, "velocity": 79}, {"time": 1444, "pitch": 54, "duration": 4, "velocity": 86}, {"time": 1444, "pitch": 58, "duration": 5, "velocity": 96}, {"time": 1444, "pitch": 61, "duration": 5, "velocity": 85}, {"time": 1450, "pitch": 49, "duration": 2, "velocity": 84}, {"time": 1453, "pitch": 54, "duration": 1, "velocity": 82}, {"time": 1456, "pitch": 44, "duration": 16, "velocity": 77}, {"time": 1456, "pitch": 46, "duration": 1, "velocity": 52}, {"time": 1456, "pitch": 56, "duration": 7, "velocity": 77}, {"time": 1456, "pitch": 59, "duration": 6, "velocity": 75}, {"time": 1462, "pitch": 51, "duration": 7, "velocity": 75}, {"time": 1468, "pitch": 56, "duration": 3, "velocity": 83}, {"time": 1468, "pitch": 59, "duration": 3, "velocity": 84}, {"time": 1468, "pitch": 63, "duration": 4, "velocity": 84}, {"time": 1477, "pitch": 56, "duration": 1, "velocity": 84}, {"time": 1480, "pitch": 44, "duration": 18, "velocity": 82}, {"time": 1480, "pitch": 56, "duration": 6, "velocity": 77}, {"time": 1480, "pitch": 59, "duration": 5, "velocity": 84}, {"time": 1480, "pitch": 68, "duration": 5, "velocity": 83}, {"time": 1486, "pitch": 51, "duration": 7, "velocity": 73}, {"time": 1492, "pitch": 56, "duration": 4, "velocity": 77}, {"time": 1492, "pitch": 59, "duration": 5, "velocity": 82}, {"time": 1492, "pitch": 63, "duration": 5, "velocity": 83}, {"time": 1498, "pitch": 51, "duration": 2, "velocity": 82}, {"time": 1504, "pitch": 42, "duration": 16, "velocity": 83}, {"time": 1504, "pitch": 54, "duration": 7, "velocity": 80}, {"time": 1504, "pitch": 58, "duration": 6, "velocity": 77}, {"time": 1510, "pitch": 49, "duration": 8, "velocity": 70}, {"time": 1516, "pitch": 54, "duration": 3, "velocity": 83}, {"time": 1516, "pitch": 58, "duration": 5, "velocity": 89}, {"time": 1516, "pitch": 61, "duration": 5, "velocity": 86}, {"time": 1522, "pitch": 49, "duration": 4, "velocity": 80}, {"time": 1525, "pitch": 54, "duration": 4, "velocity": 86}, {"time": 1528, "pitch": 42, "duration": 15, "velocity": 84}, {"time": 1528, "pitch": 66, "duration": 9, "velocity": 87}, {"time": 1531, "pitch": 49, "duration": 9, "velocity": 85}, {"time": 1534, "pitch": 54, "duration": 3, "velocity": 87}, {"time": 1537, "pitch": 61, "duration": 6, "velocity": 82}, {"time": 1540, "pitch": 54, "duration": 4, "velocity": 89}, {"time": 1543, "pitch": 49, "duration": 3, "velocity": 89}, {"time": 1546, "pitch": 54, "duration": 4, "velocity": 84}, {"time": 1549, "pitch": 58, "duration": 1, "velocity": 81}, {"time": 1552, "pitch": 40, "duration": 20, "velocity": 83}, {"time": 1552, "pitch": 52, "duration": 7, "velocity": 83}, {"time": 1552, "pitch": 56, "duration": 6, "velocity": 83}, {"time": 1558, "pitch": 47, "duration": 7, "velocity": 69}, {"time": 1564, "pitch": 52, "duration": 4, "velocity": 84}, {"time": 1564, "pitch": 56, "duration": 4, "velocity": 83}, {"time": 1564, "pitch": 64, "duration": 3, "velocity": 76}, {"time": 1573, "pitch": 52, "duration": 1, "velocity": 78}, {"time": 1576, "pitch": 40, "duration": 14, "velocity": 83}, {"time": 1576, "pitch": 52, "duration": 8, "velocity": 78}, {"time": 1576, "pitch": 56, "duration": 8, "velocity": 78}, {"time": 1576, "pitch": 59, "duration": 9, "velocity": 81}, {"time": 1582, "pitch": 47, "duration": 8, "velocity": 69}, {"time": 1588, "pitch": 52, "duration": 3, "velocity": 83}, {"time": 1588, "pitch": 56, "duration": 2, "velocity": 84}, {"time": 1588, "pitch": 59, "duration": 3, "velocity": 84}, {"time": 1594, "pitch": 40, "duration": 2, "velocity": 82}, {"time": 1600, "pitch": 39, "duration": 14, "velocity": 84}, {"time": 1600, "pitch": 58, "duration": 7, "velocity": 83}, {"time": 1600, "pitch": 63, "duration": 7, "velocity": 83}, {"time": 1600, "pitch": 66, "duration": 7, "velocity": 80}, {"time": 1606, "pitch": 46, "duration": 8, "velocity": 68}, {"time": 1612, "pitch": 58, "duration": 2, "velocity": 85}, {"time": 1612, "pitch": 63, "duration": 2, "velocity": 93}, {"time": 1612, "pitch": 66, "duration": 3, "velocity": 84}, {"time": 1624, "pitch": 39, "duration": 9, "velocity": 98}, {"time": 1624, "pitch": 58, "duration": 7, "velocity": 87}, {"time": 1624, "pitch": 63, "duration": 10, "velocity": 85}, {"time": 1636, "pitch": 38, "duration": 10, "velocity": 91}, {"time": 1636, "pitch": 58, "duration": 9, "velocity": 83}, {"time": 1636, "pitch": 62, "duration": 10, "velocity": 82}, {"time": 1648, "pitch": 37, "duration": 9, "velocity": 88}, {"time": 1648, "pitch": 56, "duration": 4, "velocity": 83}, {"time": 1648, "pitch": 61, "duration": 5, "velocity": 82}, {"time": 1654, "pitch": 56, "duration": 2, "velocity": 84}, {"time": 1660, "pitch": 56, "duration": 3, "velocity": 84}, {"time": 1660, "pitch": 61, "duration": 3, "velocity": 84}, {"time": 1660, "pitch": 64, "duration": 4, "velocity": 85}, {"time": 1669, "pitch": 56, "duration": 2, "velocity": 83}, {"time": 1672, "pitch": 49, "duration": 8, "velocity": 84}, {"time": 1672, "pitch": 56, "duration": 3, "velocity": 80}, {"time": 1672, "pitch": 61, "duration": 5, "velocity": 82}, {"time": 1672, "pitch": 64, "duration": 7, "velocity": 82}, {"time": 1678, "pitch": 56, "duration": 2, "velocity": 82}, {"time": 1678, "pitch": 61, "duration": 1, "velocity": 53}, {"time": 1684, "pitch": 56, "duration": 2, "velocity": 85}, {"time": 1684, "pitch": 61, "duration": 3, "velocity": 88}, {"time": 1684, "pitch": 64, "duration": 5, "velocity": 86}, {"time": 1690, "pitch": 56, "duration": 1, "velocity": 79}, {"time": 1696, "pitch": 42, "duration": 22, "velocity": 83}, {"time": 1696, "pitch": 54, "duration": 7, "velocity": 82}, {"time": 1696, "pitch": 58, "duration": 7, "velocity": 84}, {"time": 1696, "pitch": 61, "duration": 7, "velocity": 83}, {"time": 1702, "pitch": 49, "duration": 16, "velocity": 78}, {"time": 1708, "pitch": 54, "duration": 3, "velocity": 89}, {"time": 1708, "pitch": 66, "duration": 3, "velocity": 87}, {"time": 1717, "pitch": 54, "duration": 9, "velocity": 83}, {"time": 1720, "pitch": 42, "duration": 24, "velocity": 84}, {"time": 1720, "pitch": 58, "duration": 6, "velocity": 88}, {"time": 1720, "pitch": 61, "duration": 7, "velocity": 85}, {"time": 1726, "pitch": 49, "duration": 8, "velocity": 81}, {"time": 1729, "pitch": 54, "duration": 2, "velocity": 84}, {"time": 1732, "pitch": 54, "duration": 1, "velocity": 76}, {"time": 1732, "pitch": 58, "duration": 7, "velocity": 93}, {"time": 1732, "pitch": 61, "duration": 11, "velocity": 88}, {"time": 1732, "pitch": 66, "duration": 11, "velocity": 83}, {"time": 1735, "pitch": 54, "duration": 4, "velocity": 84}, {"time": 1738, "pitch": 49, "duration": 6, "velocity": 87}, {"time": 1741, "pitch": 54, "duration": 2, "velocity": 86}, {"time": 1744, "pitch": 47, "duration": 27, "velocity": 86}, {"time": 1744, "pitch": 59, "duration": 8, "velocity": 75}, {"time": 1744, "pitch": 63, "duration": 8, "velocity": 82}, {"time": 1750, "pitch": 54, "duration": 3, "velocity": 75}, {"time": 1756, "pitch": 59, "duration": 6, "velocity": 82}, {"time": 1756, "pitch": 63, "duration": 5, "velocity": 83}, {"time": 1768, "pitch": 54, "duration": 1, "velocity": 70}, {"time": 1768, "pitch": 59, "duration": 9, "velocity": 81}, {"time": 1768, "pitch": 63, "duration": 8, "velocity": 83}, {"time": 1774, "pitch": 54, "duration": 3, "velocity": 70}, {"time": 1780, "pitch": 54, "duration": 2, "velocity": 82}, {"time": 1780, "pitch": 59, "duration": 4, "velocity": 83}, {"time": 1780, "pitch": 63, "duration": 8, "velocity": 83}, {"time": 1786, "pitch": 54, "duration": 4, "velocity": 82}, {"time": 1792, "pitch": 46, "duration": 14, "velocity": 78}, {"time": 1792, "pitch": 58, "duration": 8, "velocity": 79}, {"time": 1792, "pitch": 63, "duration": 7, "velocity": 83}, {"time": 1798, "pitch": 54, "duration": 3, "velocity": 69}, {"time": 1804, "pitch": 54, "duration": 2, "velocity": 82}, {"time": 1804, "pitch": 58, "duration": 3, "velocity": 83}, {"time": 1804, "pitch": 63, "duration": 4, "velocity": 83}, {"time": 1810, "pitch": 54, "duration": 2, "velocity": 75}, {"time": 1816, "pitch": 54, "duration": 2, "velocity": 76}, {"time": 1816, "pitch": 58, "duration": 2, "velocity": 80}, {"time": 1816, "pitch": 63, "duration": 3, "velocity": 80}, {"time": 1822, "pitch": 54, "duration": 2, "velocity": 60}, {"time": 1828, "pitch": 54, "duration": 2, "velocity": 82}, {"time": 1828, "pitch": 58, "duration": 2, "velocity": 86}, {"time": 1828, "pitch": 61, "duration": 2, "velocity": 81}, {"time": 1828, "pitch": 63, "duration": 2, "velocity": 83}, {"time": 1840, "pitch": 44, "duration": 41, "velocity": 82}, {"time": 1840, "pitch": 56, "duration": 5, "velocity": 71}, {"time": 1840, "pitch": 59, "duration": 5, "velocity": 69}, {"time": 1840, "pitch": 63, "duration": 5, "velocity": 82}, {"time": 1846, "pitch": 51, "duration": 21, "velocity": 65}, {"time": 1852, "pitch": 56, "duration": 2, "velocity": 74}, {"time": 1852, "pitch": 59, "duration": 2, "velocity": 82}, {"time": 1852, "pitch": 63, "duration": 3, "velocity": 83}, {"time": 1858, "pitch": 56, "duration": 2, "velocity": 61}, {"time": 1864, "pitch": 56, "duration": 8, "velocity": 77}, {"time": 1864, "pitch": 59, "duration": 8, "velocity": 77}, {"time": 1864, "pitch": 63, "duration": 8, "velocity": 82}, {"time": 1870, "pitch": 51, "duration": 8, "velocity": 74}, {"time": 1876, "pitch": 56, "duration": 2, "velocity": 83}, {"time": 1876, "pitch": 59, "duration": 4, "velocity": 84}, {"time": 1876, "pitch": 63, "duration": 11, "velocity": 83}, {"time": 1882, "pitch": 56, "duration": 3, "velocity": 81}, {"time": 1888, "pitch": 42, "duration": 16, "velocity": 81}, {"time": 1888, "pitch": 54, "duration": 6, "velocity": 66}, {"time": 1888, "pitch": 58, "duration": 4, "velocity": 61}, {"time": 1888, "pitch": 61, "duration": 5, "velocity": 72}, {"time": 1894, "pitch": 49, "duration": 8, "velocity": 66}, {"time": 1900, "pitch": 54, "duration": 5, "velocity": 79}, {"time": 1900, "pitch": 58, "duration": 5, "velocity": 86}, {"time": 1900, "pitch": 61, "duration": 5, "velocity": 83}, {"time": 1906, "pitch": 49, "duration": 9, "velocity": 75}, {"time": 1912, "pitch": 54, "duration": 3, "velocity": 86}, {"time": 1912, "pitch": 66, "duration": 5, "velocity": 79}, {"time": 1918, "pitch": 42, "duration": 8, "velocity": 83}, {"time": 1918, "pitch": 54, "duration": 2, "velocity": 56}, {"time": 1924, "pitch": 54, "duration": 1, "velocity": 78}, {"time": 1924, "pitch": 58, "duration": 2, "velocity": 86}, {"time": 1924, "pitch": 61, "duration": 3, "velocity": 83}, {"time": 1930, "pitch": 49, "duration": 2, "velocity": 78}, {"time": 1936, "pitch": 40, "duration": 22, "velocity": 82}, {"time": 1936, "pitch": 52, "duration": 7, "velocity": 73}, {"time": 1936, "pitch": 56, "duration": 6, "velocity": 71}, {"time": 1942, "pitch": 47, "duration": 16, "velocity": 70}, {"time": 1948, "pitch": 52, "duration": 2, "velocity": 85}, {"time": 1948, "pitch": 59, "duration": 2, "velocity": 83}, {"time": 1954, "pitch": 52, "duration": 3, "velocity": 71}, {"time": 1954, "pitch": 56, "duration": 1, "velocity": 77}, {"time": 1960, "pitch": 40, "duration": 15, "velocity": 79}, {"time": 1960, "pitch": 52, "duration": 6, "velocity": 74}, {"time": 1960, "pitch": 56, "duration": 7, "velocity": 74}, {"time": 1966, "pitch": 47, "duration": 8, "velocity": 70}, {"time": 1972, "pitch": 52, "duration": 3, "velocity": 81}, {"time": 1972, "pitch": 56, "duration": 5, "velocity": 84}, {"time": 1972, "pitch": 59, "duration": 5, "velocity": 82}, {"time": 1972, "pitch": 64, "duration": 6, "velocity": 79}, {"time": 1978, "pitch": 40, "duration": 3, "velocity": 82}, {"time": 1978, "pitch": 52, "duration": 3, "velocity": 83}, {"time": 1984, "pitch": 39, "duration": 14, "velocity": 84}, {"time": 1984, "pitch": 54, "duration": 3, "velocity": 79}, {"time": 1984, "pitch": 59, "duration": 4, "velocity": 77}, {"time": 1984, "pitch": 63, "duration": 5, "velocity": 83}, {"time": 1996, "pitch": 54, "duration": 2, "velocity": 79}, {"time": 1996, "pitch": 59, "duration": 2, "velocity": 85}, {"time": 1996, "pitch": 63, "duration": 2, "velocity": 85}, {"time": 2002, "pitch": 54, "duration": 4, "velocity": 76}, {"time": 2008, "pitch": 39, "duration": 15, "velocity": 82}, {"time": 2008, "pitch": 54, "duration": 1, "velocity": 68}, {"time": 2008, "pitch": 59, "duration": 8, "velocity": 75}, {"time": 2008, "pitch": 63, "duration": 7, "velocity": 80}, {"time": 2014, "pitch": 54, "duration": 3, "velocity": 68}, {"time": 2020, "pitch": 54, "duration": 2, "velocity": 82}, {"time": 2020, "pitch": 59, "duration": 3, "velocity": 83}, {"time": 2020, "pitch": 63, "duration": 4, "velocity": 83}, {"time": 2032, "pitch": 37, "duration": 5, "velocity": 85}, {"time": 2032, "pitch": 61, "duration": 7, "velocity": 80}, {"time": 2032, "pitch": 64, "duration": 6, "velocity": 81}, {"time": 2038, "pitch": 56, "duration": 2, "velocity": 76}, {"time": 2044, "pitch": 56, "duration": 2, "velocity": 82}, {"time": 2044, "pitch": 61, "duration": 2, "velocity": 85}, {"time": 2044, "pitch": 64, "duration": 3, "velocity": 85}, {"time": 2050, "pitch": 56, "duration": 5, "velocity": 71}, {"time": 2056, "pitch": 49, "duration": 16, "velocity": 82}, {"time": 2056, "pitch": 56, "duration": 1, "velocity": 53}, {"time": 2056, "pitch": 61, "duration": 6, "velocity": 77}, {"time": 2056, "pitch": 64, "duration": 6, "velocity": 77}, {"time": 2062, "pitch": 56, "duration": 3, "velocity": 70}, {"time": 2068, "pitch": 56, "duration": 2, "velocity": 83}, {"time": 2068, "pitch": 61, "duration": 6, "velocity": 86}, {"time": 2074, "pitch": 56, "duration": 2, "velocity": 78}, {"time": 2080, "pitch": 42, "duration": 17, "velocity": 83}, {"time": 2080, "pitch": 54, "duration": 4, "velocity": 78}, {"time": 2080, "pitch": 58, "duration": 4, "velocity": 78}, {"time": 2086, "pitch": 54, "duration": 1, "velocity": 64}, {"time": 2086, "pitch": 58, "duration": 1, "velocity": 69}, {"time": 2086, "pitch": 61, "duration": 3, "velocity": 79}, {"time": 2092, "pitch": 54, "duration": 6, "velocity": 82}, {"time": 2092, "pitch": 58, "duration": 6, "velocity": 87}, {"time": 2092, "pitch": 61, "duration": 6, "velocity": 83}, {"time": 2098, "pitch": 49, "duration": 3, "velocity": 84}, {"time": 2104, "pitch": 42, "duration": 24, "velocity": 84}, {"time": 2104, "pitch": 54, "duration": 7, "velocity": 81}, {"time": 2104, "pitch": 58, "duration": 7, "velocity": 78}, {"time": 2104, "pitch": 61, "duration": 7, "velocity": 82}, {"time": 2104, "pitch": 66, "duration": 6, "velocity": 80}, {"time": 2110, "pitch": 49, "duration": 18, "velocity": 81}, {"time": 2116, "pitch": 58, "duration": 12, "velocity": 88}, {"time": 2116, "pitch": 61, "duration": 12, "velocity": 86}, {"time": 2122, "pitch": 54, "duration": 6, "velocity": 82}, {"time": 2128, "pitch": 47, "duration": 23, "velocity": 81}, {"time": 2128, "pitch": 54, "duration": 4, "velocity": 78}, {"time": 2128, "pitch": 59, "duration": 7, "velocity": 77}, {"time": 2134, "pitch": 54, "duration": 7, "velocity": 83}, {"time": 2140, "pitch": 59, "duration": 3, "velocity": 83}, {"time": 2140, "pitch": 63, "duration": 6, "velocity": 84}, {"time": 2152, "pitch": 46, "duration": 22, "velocity": 83}, {"time": 2152, "pitch": 54, "duration": 2, "velocity": 71}, {"time": 2152, "pitch": 58, "duration": 8, "velocity": 78}, {"time": 2152, "pitch": 63, "duration": 8, "velocity": 78}, {"time": 2158, "pitch": 54, "duration": 7, "velocity": 75}, {"time": 2164, "pitch": 58, "duration": 6, "velocity": 79}, {"time": 2164, "pitch": 63, "duration": 11, "velocity": 84}, {"time": 2176, "pitch": 44, "duration": 39, "velocity": 78}, {"time": 2176, "pitch": 56, "duration": 12, "velocity": 69}, {"time": 2176, "pitch": 59, "duration": 7, "velocity": 73}, {"time": 2182, "pitch": 51, "duration": 32, "velocity": 70}, {"time": 2188, "pitch": 59, "duration": 8, "velocity": 76}, {"time": 2188, "pitch": 63, "duration": 8, "velocity": 83}, {"time": 2194, "pitch": 56, "duration": 7, "velocity": 82}, {"time": 2200, "pitch": 63, "duration": 5, "velocity": 80}, {"time": 2212, "pitch": 56, "duration": 2, "velocity": 80}, {"time": 2212, "pitch": 59, "duration": 4, "velocity": 88}, {"time": 2212, "pitch": 63, "duration": 7, "velocity": 82}, {"time": 2218, "pitch": 56, "duration": 2, "velocity": 83}, {"time": 2224, "pitch": 40, "duration": 20, "velocity": 80}, {"time": 2224, "pitch": 52, "duration": 11, "velocity": 75}, {"time": 2224, "pitch": 59, "duration": 10, "velocity": 77}, {"time": 2230, "pitch": 47, "duration": 15, "velocity": 70}, {"time": 2236, "pitch": 56, "duration": 7, "velocity": 73}, {"time": 2242, "pitch": 52, "duration": 3, "velocity": 83}, {"time": 2248, "pitch": 42, "duration": 16, "velocity": 81}, {"time": 2248, "pitch": 54, "duration": 8, "velocity": 78}, {"time": 2248, "pitch": 58, "duration": 12, "velocity": 80}, {"time": 2254, "pitch": 49, "duration": 10, "velocity": 73}, {"time": 2260, "pitch": 54, "duration": 2, "velocity": 82}, {"time": 2272, "pitch": 47, "duration": 20, "velocity": 78}, {"time": 2272, "pitch": 63, "duration": 12, "velocity": 82}, {"time": 2278, "pitch": 51, "duration": 13, "velocity": 74}, {"time": 2284, "pitch": 61, "duration": 11, "velocity": 83}, {"time": 2290, "pitch": 54, "duration": 4, "velocity": 76}, {"time": 2296, "pitch": 47, "duration": 16, "velocity": 76}, {"time": 2296, "pitch": 59, "duration": 7, "velocity": 65}, {"time": 2302, "pitch": 54, "duration": 3, "velocity": 67}, {"time": 2308, "pitch": 54, "duration": 1, "velocity": 70}, {"time": 2308, "pitch": 59, "duration": 3, "velocity": 76}, {"time": 2308, "pitch": 63, "duration": 4, "velocity": 83}, {"time": 2320, "pitch": 47, "duration": 14, "velocity": 83}, {"time": 2320, "pitch": 54, "duration": 3, "velocity": 76}, {"time": 2320, "pitch": 63, "duration": 18, "velocity": 82}, {"time": 2326, "pitch": 54, "duration": 7, "velocity": 71}, {"time": 2332, "pitch": 59, "duration": 6, "velocity": 78}, {"time": 2338, "pitch": 54, "duration": 4, "velocity": 79}, {"time": 2344, "pitch": 42, "duration": 13, "velocity": 79}, {"time": 2344, "pitch": 54, "duration": 3, "velocity": 77}, {"time": 2344, "pitch": 58, "duration": 7, "velocity": 76}, {"time": 2350, "pitch": 54, "duration": 7, "velocity": 77}, {"time": 2356, "pitch": 58, "duration": 3, "velocity": 84}, {"time": 2356, "pitch": 61, "duration": 5, "velocity": 83}, {"time": 2368, "pitch": 44, "duration": 39, "velocity": 75}, {"time": 2368, "pitch": 56, "duration": 12, "velocity": 70}, {"time": 2368, "pitch": 59, "duration": 12, "velocity": 73}, {"time": 2374, "pitch": 51, "duration": 32, "velocity": 73}, {"time": 2380, "pitch": 63, "duration": 6, "velocity": 83}, {"time": 2386, "pitch": 56, "duration": 8, "velocity": 82}, {"time": 2392, "pitch": 68, "duration": 6, "velocity": 82}, {"time": 2398, "pitch": 56, "duration": 4, "velocity": 75}, {"time": 2404, "pitch": 56, "duration": 3, "velocity": 74}, {"time": 2404, "pitch": 63, "duration": 2, "velocity": 79}, {"time": 2416, "pitch": 40, "duration": 19, "velocity": 75}, {"time": 2416, "pitch": 59, "duration": 13, "velocity": 74}, {"time": 2422, "pitch": 47, "duration": 14, "velocity": 72}, {"time": 2428, "pitch": 56, "duration": 7, "velocity": 80}, {"time": 2434, "pitch": 52, "duration": 3, "velocity": 86}, {"time": 2440, "pitch": 42, "duration": 19, "velocity": 80}, {"time": 2440, "pitch": 58, "duration": 8, "velocity": 83}, {"time": 2446, "pitch": 54, "duration": 7, "velocity": 82}, {"time": 2452, "pitch": 61, "duration": 12, "velocity": 79}, {"time": 2458, "pitch": 54, "duration": 6, "velocity": 83}, {"time": 2464, "pitch": 47, "duration": 38, "velocity": 77}, {"time": 2464, "pitch": 59, "duration": 12, "velocity": 79}, {"time": 2470, "pitch": 51, "duration": 32, "velocity": 77}, {"time": 2476, "pitch": 63, "duration": 19, "velocity": 83}, {"time": 2482, "pitch": 54, "duration": 7, "velocity": 77}, {"time": 2488, "pitch": 59, "duration": 7, "velocity": 73}, {"time": 2494, "pitch": 54, "duration": 2, "velocity": 71}, {"time": 2500, "pitch": 54, "duration": 2, "velocity": 81}, {"time": 2500, "pitch": 59, "duration": 4, "velocity": 84}, {"time": 2500, "pitch": 63, "duration": 7, "velocity": 84}, {"time": 2506, "pitch": 54, "duration": 1, "velocity": 77}, {"time": 2512, "pitch": 40, "duration": 20, "velocity": 82}, {"time": 2512, "pitch": 52, "duration": 4, "velocity": 76}, {"time": 2512, "pitch": 59, "duration": 14, "velocity": 77}, {"time": 2518, "pitch": 47, "duration": 15, "velocity": 84}, {"time": 2518, "pitch": 52, "duration": 2, "velocity": 75}, {"time": 2524, "pitch": 56, "duration": 6, "velocity": 84}, {"time": 2530, "pitch": 52, "duration": 3, "velocity": 83}, {"time": 2536, "pitch": 42, "duration": 20, "velocity": 82}, {"time": 2536, "pitch": 54, "duration": 11, "velocity": 76}, {"time": 2536, "pitch": 58, "duration": 12, "velocity": 73}, {"time": 2542, "pitch": 49, "duration": 14, "velocity": 73}, {"time": 2548, "pitch": 61, "duration": 8, "velocity": 82}, {"time": 2554, "pitch": 54, "duration": 6, "velocity": 82}, {"time": 2560, "pitch": 47, "duration": 21, "velocity": 78}, {"time": 2560, "pitch": 63, "duration": 9, "velocity": 84}, {"time": 2566, "pitch": 51, "duration": 14, "velocity": 73}, {"time": 2572, "pitch": 63, "duration": 10, "velocity": 85}, {"time": 2578, "pitch": 54, "duration": 4, "velocity": 82}, {"time": 2584, "pitch": 47, "duration": 21, "velocity": 80}, {"time": 2584, "pitch": 54, "duration": 2, "velocity": 74}, {"time": 2584, "pitch": 59, "duration": 7, "velocity": 71}, {"time": 2584, "pitch": 61, "duration": 3, "velocity": 76}, {"time": 2590, "pitch": 54, "duration": 4, "velocity": 75}, {"time": 2596, "pitch": 54, "duration": 2, "velocity": 82}, {"time": 2596, "pitch": 59, "duration": 3, "velocity": 82}, {"time": 2596, "pitch": 63, "duration": 5, "velocity": 83}, {"time": 2602, "pitch": 59, "duration": 2, "velocity": 76}, {"time": 2608, "pitch": 40, "duration": 19, "velocity": 81}, {"time": 2608, "pitch": 52, "duration": 4, "velocity": 78}, {"time": 2608, "pitch": 56, "duration": 8, "velocity": 79}, {"time": 2614, "pitch": 52, "duration": 7, "velocity": 82}, {"time": 2620, "pitch": 59, "duration": 10, "velocity": 82}, {"time": 2626, "pitch": 47, "duration": 5, "velocity": 82}, {"time": 2632, "pitch": 42, "duration": 20, "velocity": 82}, {"time": 2632, "pitch": 54, "duration": 13, "velocity": 78}, {"time": 2632, "pitch": 58, "duration": 13, "velocity": 76}, {"time": 2638, "pitch": 49, "duration": 14, "velocity": 77}, {"time": 2644, "pitch": 61, "duration": 6, "velocity": 81}, {"time": 2650, "pitch": 54, "duration": 8, "velocity": 76}, {"time": 2656, "pitch": 47, "duration": 20, "velocity": 82}, {"time": 2656, "pitch": 63, "duration": 12, "velocity": 82}, {"time": 2662, "pitch": 51, "duration": 13, "velocity": 79}, {"time": 2668, "pitch": 61, "duration": 7, "velocity": 82}, {"time": 2674, "pitch": 54, "duration": 7, "velocity": 83}, {"time": 2680, "pitch": 47, "duration": 14, "velocity": 83}, {"time": 2680, "pitch": 59, "duration": 7, "velocity": 82}, {"time": 2680, "pitch": 63, "duration": 11, "velocity": 85}, {"time": 2686, "pitch": 54, "duration": 4, "velocity": 84}, {"time": 2692, "pitch": 54, "duration": 3, "velocity": 82}, {"time": 2692, "pitch": 59, "duration": 5, "velocity": 83}, {"time": 2698, "pitch": 47, "duration": 2, "velocity": 79}, {"time": 2704, "pitch": 40, "duration": 19, "velocity": 82}, {"time": 2704, "pitch": 52, "duration": 12, "velocity": 77}, {"time": 2704, "pitch": 56, "duration": 9, "velocity": 74}, {"time": 2710, "pitch": 47, "duration": 14, "velocity": 77}, {"time": 2716, "pitch": 59, "duration": 7, "velocity": 85}, {"time": 2722, "pitch": 52, "duration": 3, "velocity": 88}, {"time": 2728, "pitch": 42, "duration": 15, "velocity": 83}, {"time": 2728, "pitch": 54, "duration": 10, "velocity": 79}, {"time": 2728, "pitch": 58, "duration": 9, "velocity": 82}, {"time": 2734, "pitch": 49, "duration": 8, "velocity": 76}, {"time": 2740, "pitch": 54, "duration": 4, "velocity": 82}, {"time": 2740, "pitch": 58, "duration": 5, "velocity": 82}, {"time": 2746, "pitch": 42, "duration": 4, "velocity": 84}, {"time": 2752, "pitch": 47, "duration": 15, "velocity": 89}, {"time": 2752, "pitch": 54, "duration": 2, "velocity": 83}, {"time": 2752, "pitch": 59, "duration": 7, "velocity": 82}, {"time": 2758, "pitch": 54, "duration": 4, "velocity": 82}, {"time": 2764, "pitch": 54, "duration": 3, "velocity": 77}, {"time": 2764, "pitch": 58, "duration": 5, "velocity": 87}, {"time": 2770, "pitch": 47, "duration": 4, "velocity": 88}, {"time": 2776, "pitch": 44, "duration": 15, "velocity": 81}, {"time": 2776, "pitch": 56, "duration": 9, "velocity": 76}, {"time": 2776, "pitch": 59, "duration": 7, "velocity": 77}, {"time": 2782, "pitch": 51, "duration": 8, "velocity": 77}, {"time": 2788, "pitch": 56, "duration": 3, "velocity": 73}, {"time": 2788, "pitch": 59, "duration": 3, "velocity": 78}, {"time": 2788, "pitch": 63, "duration": 4, "velocity": 81}, {"time": 2800, "pitch": 40, "duration": 38, "velocity": 83}, {"time": 2800, "pitch": 52, "duration": 12, "velocity": 73}, {"time": 2800, "pitch": 59, "duration": 12, "velocity": 77}, {"time": 2806, "pitch": 47, "duration": 33, "velocity": 75}, {"time": 2812, "pitch": 56, "duration": 5, "velocity": 83}, {"time": 2818, "pitch": 52, "duration": 8, "velocity": 82}, {"time": 2824, "pitch": 64, "duration": 7, "velocity": 82}, {"time": 2830, "pitch": 52, "duration": 3, "velocity": 77}, {"time": 2836, "pitch": 52, "duration": 3, "velocity": 80}, {"time": 2836, "pitch": 56, "duration": 3, "velocity": 83}, {"time": 2836, "pitch": 59, "duration": 4, "velocity": 83}, {"time": 2842, "pitch": 40, "duration": 3, "velocity": 83}, {"time": 2848, "pitch": 42, "duration": 13, "velocity": 83}, {"time": 2848, "pitch": 54, "duration": 7, "velocity": 74}, {"time": 2848, "pitch": 58, "duration": 7, "velocity": 78}, {"time": 2848, "pitch": 61, "duration": 7, "velocity": 78}, {"time": 2854, "pitch": 49, "duration": 7, "velocity": 82}, {"time": 2860, "pitch": 54, "duration": 3, "velocity": 83}, {"time": 2860, "pitch": 58, "duration": 7, "velocity": 86}, {"time": 2860, "pitch": 61, "duration": 8, "velocity": 84}, {"time": 2860, "pitch": 66, "duration": 6, "velocity": 79}, {"time": 2866, "pitch": 54, "duration": 4, "velocity": 83}, {"time": 2872, "pitch": 54, "duration": 3, "velocity": 87}, {"time": 2872, "pitch": 58, "duration": 7, "velocity": 93}, {"time": 2872, "pitch": 61, "duration": 8, "velocity": 88}, {"time": 2872, "pitch": 66, "duration": 8, "velocity": 82}, {"time": 2884, "pitch": 58, "duration": 3, "velocity": 82}, {"time": 2884, "pitch": 61, "duration": 4, "velocity": 82}, {"time": 2884, "pitch": 66, "duration": 4, "velocity": 80}, {"time": 2896, "pitch": 35, "duration": 2, "velocity": 83}, {"time": 2896, "pitch": 54, "duration": 5, "velocity": 78}, {"time": 2896, "pitch": 59, "duration": 6, "velocity": 76}, {"time": 2896, "pitch": 63, "duration": 6, "velocity": 78}, {"time": 2908, "pitch": 54, "duration": 4, "velocity": 82}, {"time": 2908, "pitch": 59, "duration": 5, "velocity": 83}, {"time": 2908, "pitch": 63, "duration": 6, "velocity": 84}, {"time": 2917, "pitch": 54, "duration": 1, "velocity": 88}, {"time": 2920, "pitch": 54, "duration": 6, "velocity": 84}, {"time": 2920, "pitch": 59, "duration": 6, "velocity": 88}, {"time": 2920, "pitch": 63, "duration": 7, "velocity": 87}, {"time": 2926, "pitch": 51, "duration": 11, "velocity": 75}, {"time": 2929, "pitch": 54, "duration": 1, "velocity": 82}, {"time": 2932, "pitch": 54, "duration": 6, "velocity": 85}, {"time": 2932, "pitch": 59, "duration": 5, "velocity": 84}, {"time": 2938, "pitch": 47, "duration": 3, "velocity": 70}, {"time": 2944, "pitch": 42, "duration": 23, "velocity": 82}, {"time": 2944, "pitch": 54, "duration": 7, "velocity": 78}, {"time": 2944, "pitch": 58, "duration": 5, "velocity": 77}, {"time": 2944, "pitch": 61, "duration": 7, "velocity": 81}, {"time": 2950, "pitch": 49, "duration": 8, "velocity": 73}, {"time": 2956, "pitch": 54, "duration": 3, "velocity": 82}, {"time": 2956, "pitch": 58, "duration": 2, "velocity": 82}, {"time": 2956, "pitch": 61, "duration": 2, "velocity": 82}, {"time": 2965, "pitch": 54, "duration": 9, "velocity": 82}, {"time": 2968, "pitch": 42, "duration": 14, "velocity": 82}, {"time": 2968, "pitch": 58, "duration": 6, "velocity": 87}, {"time": 2968, "pitch": 61, "duration": 6, "velocity": 84}, {"time": 2968, "pitch": 66, "duration": 6, "velocity": 82}, {"time": 2974, "pitch": 49, "duration": 7, "velocity": 79}, {"time": 2980, "pitch": 54, "duration": 4, "velocity": 86}, {"time": 2980, "pitch": 58, "duration": 5, "velocity": 96}, {"time": 2980, "pitch": 61, "duration": 5, "velocity": 85}, {"time": 2986, "pitch": 49, "duration": 2, "velocity": 84}, {"time": 2989, "pitch": 54, "duration": 1, "velocity": 82}, {"time": 2992, "pitch": 44, "duration": 16, "velocity": 77}, {"time": 2992, "pitch": 46, "duration": 1, "velocity": 52}, {"time": 2992, "pitch": 56, "duration": 7, "velocity": 77}, {"time": 2992, "pitch": 59, "duration": 6, "velocity": 75}, {"time": 2998, "pitch": 51, "duration": 7, "velocity": 75}, {"time": 3004, "pitch": 56, "duration": 3, "velocity": 83}, {"time": 3004, "pitch": 59, "duration": 3, "velocity": 84}, {"time": 3004, "pitch": 63, "duration": 4, "velocity": 84}, {"time": 3013, "pitch": 56, "duration": 1, "velocity": 84}, {"time": 3016, "pitch": 44, "duration": 18, "velocity": 82}, {"time": 3016, "pitch": 56, "duration": 6, "velocity": 77}, {"time": 3016, "pitch": 59, "duration": 5, "velocity": 84}, {"time": 3016, "pitch": 68, "duration": 5, "velocity": 83}, {"time": 3022, "pitch": 51, "duration": 7, "velocity": 73}, {"time": 3028, "pitch": 56, "duration": 4, "velocity": 77}, {"time": 3028, "pitch": 59, "duration": 5, "velocity": 82}, {"time": 3028, "pitch": 63, "duration": 5, "velocity": 83}, {"time": 3034, "pitch": 51, "duration": 2, "velocity": 82}, {"time": 3040, "pitch": 42, "duration": 16, "velocity": 83}, {"time": 3040, "pitch": 54, "duration": 7, "velocity": 80}, {"time": 3040, "pitch": 58, "duration": 6, "velocity": 77}, {"time": 3046, "pitch": 49, "duration": 8, "velocity": 70}, {"time": 3052, "pitch": 54, "duration": 3, "velocity": 83}, {"time": 3052, "pitch": 58, "duration": 5, "velocity": 89}, {"time": 3052, "pitch": 61, "duration": 5, "velocity": 86}, {"time": 3058, "pitch": 49, "duration": 4, "velocity": 80}, {"time": 3061, "pitch": 54, "duration": 4, "velocity": 86}, {"time": 3064, "pitch": 42, "duration": 15, "velocity": 84}, {"time": 3064, "pitch": 66, "duration": 9, "velocity": 87}, {"time": 3067, "pitch": 49, "duration": 9, "velocity": 85}, {"time": 3070, "pitch": 54, "duration": 3, "velocity": 87}, {"time": 3073, "pitch": 61, "duration": 6, "velocity": 82}, {"time": 3076, "pitch": 54, "duration": 4, "velocity": 89}, {"time": 3079, "pitch": 49, "duration": 3, "velocity": 89}, {"time": 3082, "pitch": 54, "duration": 4, "velocity": 84}, {"time": 3085, "pitch": 58, "duration": 1, "velocity": 81}, {"time": 3088, "pitch": 40, "duration": 20, "velocity": 83}, {"time": 3088, "pitch": 52, "duration": 7, "velocity": 83}, {"time": 3088, "pitch": 56, "duration": 6, "velocity": 83}, {"time": 3094, "pitch": 47, "duration": 7, "velocity": 69}, {"time": 3100, "pitch": 52, "duration": 4, "velocity": 84}, {"time": 3100, "pitch": 56, "duration": 4, "velocity": 83}, {"time": 3100, "pitch": 64, "duration": 3, "velocity": 76}, {"time": 3109, "pitch": 52, "duration": 1, "velocity": 78}, {"time": 3112, "pitch": 40, "duration": 14, "velocity": 83}, {"time": 3112, "pitch": 52, "duration": 8, "velocity": 78}, {"time": 3112, "pitch": 56, "duration": 8, "velocity": 78}, {"time": 3112, "pitch": 59, "duration": 9, "velocity": 81}, {"time": 3118, "pitch": 47, "duration": 8, "velocity": 69}, {"time": 3124, "pitch": 52, "duration": 3, "velocity": 83}, {"time": 3124, "pitch": 56, "duration": 2, "velocity": 84}, {"time": 3124, "pitch": 59, "duration": 3, "velocity": 84}, {"time": 3130, "pitch": 40, "duration": 2, "velocity": 82}, {"time": 3136, "pitch": 39, "duration": 14, "velocity": 84}, {"time": 3136, "pitch": 58, "duration": 7, "velocity": 83}, {"time": 3136, "pitch": 63, "duration": 7, "velocity": 83}, {"time": 3136, "pitch": 66, "duration": 7, "velocity": 80}, {"time": 3142, "pitch": 46, "duration": 8, "velocity": 68}, {"time": 3148, "pitch": 58, "duration": 2, "velocity": 85}, {"time": 3148, "pitch": 63, "duration": 2, "velocity": 93}, {"time": 3148, "pitch": 66, "duration": 3, "velocity": 84}, {"time": 3160, "pitch": 39, "duration": 9, "velocity": 98}, {"time": 3160, "pitch": 58, "duration": 7, "velocity": 87}, {"time": 3160, "pitch": 63, "duration": 10, "velocity": 85}, {"time": 3172, "pitch": 38, "duration": 10, "velocity": 91}, {"time": 3172, "pitch": 58, "duration": 9, "velocity": 83}, {"time": 3172, "pitch": 62, "duration": 10, "velocity": 82}, {"time": 3184, "pitch": 37, "duration": 9, "velocity": 88}, {"time": 3184, "pitch": 56, "duration": 4, "velocity": 83}, {"time": 3184, "pitch": 61, "duration": 5, "velocity": 82}, {"time": 3190, "pitch": 56, "duration": 2, "velocity": 84}, {"time": 3196, "pitch": 56, "duration": 3, "velocity": 84}, {"time": 3196, "pitch": 61, "duration": 3, "velocity": 84}, {"time": 3196, "pitch": 64, "duration": 4, "velocity": 85}, {"time": 3205, "pitch": 56, "duration": 2, "velocity": 83}, {"time": 3208, "pitch": 49, "duration": 8, "velocity": 84}, {"time": 3208, "pitch": 56, "duration": 3, "velocity": 80}, {"time": 3208, "pitch": 61, "duration": 5, "velocity": 82}, {"time": 3208, "pitch": 64, "duration": 7, "velocity": 82}, {"time": 3214, "pitch": 56, "duration": 2, "velocity": 82}, {"time": 3214, "pitch": 61, "duration": 1, "velocity": 53}, {"time": 3220, "pitch": 56, "duration": 2, "velocity": 85}, {"time": 3220, "pitch": 61, "duration": 3, "velocity": 88}, {"time": 3220, "pitch": 64, "duration": 5, "velocity": 86}, {"time": 3226, "pitch": 56, "duration": 1, "velocity": 79}, {"time": 3232, "pitch": 42, "duration": 22, "velocity": 83}, {"time": 3232, "pitch": 54, "duration": 7, "velocity": 82}, {"time": 3232, "pitch": 58, "duration": 7, "velocity": 84}, {"time": 3232, "pitch": 61, "duration": 7, "velocity": 83}, {"time": 3238, "pitch": 49, "duration": 16, "velocity": 78}, {"time": 3244, "pitch": 54, "duration": 3, "velocity": 89}, {"time": 3244, "pitch": 66, "duration": 3, "velocity": 87}, {"time": 3253, "pitch": 54, "duration": 9, "velocity": 83}, {"time": 3256, "pitch": 42, "duration": 24, "velocity": 84}, {"time": 3256, "pitch": 58, "duration": 6, "velocity": 88}, {"time": 3256, "pitch": 61, "duration": 7, "velocity": 85}, {"time": 3262, "pitch": 49, "duration": 8, "velocity": 81}, {"time": 3265, "pitch": 54, "duration": 2, "velocity": 84}, {"time": 3268, "pitch": 54, "duration": 1, "velocity": 76}, {"time": 3268, "pitch": 58, "duration": 7, "velocity": 93}, {"time": 3268, "pitch": 61, "duration": 11, "velocity": 88}, {"time": 3268, "pitch": 66, "duration": 11, "velocity": 83}, {"time": 3271, "pitch": 54, "duration": 4, "velocity": 84}, {"time": 3274, "pitch": 49, "duration": 6, "velocity": 87}, {"time": 3277, "pitch": 54, "duration": 2, "velocity": 86}, {"time": 3280, "pitch": 35, "duration": 2, "velocity": 83}, {"time": 3280, "pitch": 54, "duration": 5, "velocity": 78}, {"time": 3280, "pitch": 59, "duration": 6, "velocity": 76}, {"time": 3280, "pitch": 63, "duration": 6, "velocity": 78}, {"time": 3292, "pitch": 54, "duration": 4, "velocity": 82}, {"time": 3292, "pitch": 59, "duration": 5, "velocity": 83}, {"time": 3292, "pitch": 63, "duration": 6, "velocity": 84}, {"time": 3301, "pitch": 54, "duration": 1, "velocity": 88}, {"time": 3304, "pitch": 54, "duration": 6, "velocity": 84}, {"time": 3304, "pitch": 59, "duration": 6, "velocity": 88}, {"time": 3304, "pitch": 63, "duration": 7, "velocity": 87}, {"time": 3310, "pitch": 51, "duration": 11, "velocity": 75}, {"time": 3313, "pitch": 54, "duration": 1, "velocity": 82}, {"time": 3316, "pitch": 54, "duration": 6, "velocity": 85}, {"time": 3316, "pitch": 59, "duration": 5, "velocity": 84}, {"time": 3322, "pitch": 47, "duration": 3, "velocity": 70}, {"time": 3328, "pitch": 42, "duration": 23, "velocity": 82}, {"time": 3328, "pitch": 54, "duration": 7, "velocity": 78}, {"time": 3328, "pitch": 58, "duration": 5, "velocity": 77}, {"time": 3328, "pitch": 61, "duration": 7, "velocity": 81}, {"time": 3334, "pitch": 49, "duration": 8, "velocity": 73}, {"time": 3340, "pitch": 54, "duration": 3, "velocity": 82}, {"time": 3340, "pitch": 58, "duration": 2, "velocity": 82}, {"time": 3340, "pitch": 61, "duration": 2, "velocity": 82}, {"time": 3349, "pitch": 54, "duration": 9, "velocity": 82}, {"time": 3352, "pitch": 42, "duration": 14, "velocity": 82}, {"time": 3352, "pitch": 58, "duration": 6, "velocity": 87}, {"time": 3352, "pitch": 61, "duration": 6, "velocity": 84}, {"time": 3352, "pitch": 66, "duration": 6, "velocity": 82}, {"time": 3358, "pitch": 49, "duration": 7, "velocity": 79}, {"time": 3364, "pitch": 54, "duration": 4, "velocity": 86}, {"time": 3364, "pitch": 58, "duration": 5, "velocity": 96}, {"time": 3364, "pitch": 61, "duration": 5, "velocity": 85}, {"time": 3370, "pitch": 49, "duration": 2, "velocity": 84}, {"time": 3373, "pitch": 54, "duration": 1, "velocity": 82}, {"time": 3376, "pitch": 44, "duration": 16, "velocity": 77}, {"time": 3376, "pitch": 46, "duration": 1, "velocity": 52}, {"time": 3376, "pitch": 56, "duration": 7, "velocity": 77}, {"time": 3376, "pitch": 59, "duration": 6, "velocity": 75}, {"time": 3382, "pitch": 51, "duration": 7, "velocity": 75}, {"time": 3388, "pitch": 56, "duration": 3, "velocity": 83}, {"time": 3388, "pitch": 59, "duration": 3, "velocity": 84}, {"time": 3388, "pitch": 63, "duration": 4, "velocity": 84}, {"time": 3397, "pitch": 56, "duration": 1, "velocity": 84}, {"time": 3400, "pitch": 44, "duration": 18, "velocity": 82}, {"time": 3400, "pitch": 56, "duration": 6, "velocity": 77}, {"time": 3400, "pitch": 59, "duration": 5, "velocity": 84}, {"time": 3400, "pitch": 68, "duration": 5, "velocity": 83}, {"time": 3406, "pitch": 51, "duration": 7, "velocity": 73}, {"time": 3412, "pitch": 56, "duration": 4, "velocity": 77}, {"time": 3412, "pitch": 59, "duration": 5, "velocity": 82}, {"time": 3412, "pitch": 63, "duration": 5, "velocity": 83}, {"time": 3418, "pitch": 51, "duration": 2, "velocity": 82}, {"time": 3424, "pitch": 42, "duration": 16, "velocity": 83}, {"time": 3424, "pitch": 54, "duration": 7, "velocity": 80}, {"time": 3424, "pitch": 58, "duration": 6, "velocity": 77}, {"time": 3430, "pitch": 49, "duration": 8, "velocity": 70}, {"time": 3436, "pitch": 54, "duration": 3, "velocity": 83}, {"time": 3436, "pitch": 58, "duration": 5, "velocity": 89}, {"time": 3436, "pitch": 61, "duration": 5, "velocity": 86}, {"time": 3442, "pitch": 49, "duration": 4, "velocity": 80}, {"time": 3445, "pitch": 54, "duration": 4, "velocity": 86}, {"time": 3448, "pitch": 42, "duration": 15, "velocity": 84}, {"time": 3448, "pitch": 66, "duration": 9, "velocity": 87}, {"time": 3451, "pitch": 49, "duration": 9, "velocity": 85}, {"time": 3454, "pitch": 54, "duration": 3, "velocity": 87}, {"time": 3457, "pitch": 61, "duration": 6, "velocity": 82}, {"time": 3460, "pitch": 54, "duration": 4, "velocity": 89}, {"time": 3463, "pitch": 49, "duration": 3, "velocity": 89}, {"time": 3466, "pitch": 54, "duration": 4, "velocity": 84}, {"time": 3469, "pitch": 58, "duration": 1, "velocity": 81}, {"time": 3472, "pitch": 40, "duration": 20, "velocity": 83}, {"time": 3472, "pitch": 52, "duration": 7, "velocity": 83}, {"time": 3472, "pitch": 56, "duration": 6, "velocity": 83}, {"time": 3478, "pitch": 47, "duration": 7, "velocity": 69}, {"time": 3484, "pitch": 52, "duration": 4, "velocity": 84}, {"time": 3484, "pitch": 56, "duration": 4, "velocity": 83}, {"time": 3484, "pitch": 64, "duration": 3, "velocity": 76}, {"time": 3493, "pitch": 52, "duration": 1, "velocity": 78}, {"time": 3496, "pitch": 40, "duration": 14, "velocity": 83}, {"time": 3496, "pitch": 52, "duration": 8, "velocity": 78}, {"time": 3496, "pitch": 56, "duration": 8, "velocity": 78}, {"time": 3496, "pitch": 59, "duration": 9, "velocity": 81}, {"time": 3502, "pitch": 47, "duration": 8, "velocity": 69}, {"time": 3508, "pitch": 52, "duration": 3, "velocity": 83}, {"time": 3508, "pitch": 56, "duration": 2, "velocity": 84}, {"time": 3508, "pitch": 59, "duration": 3, "velocity": 84}, {"time": 3514, "pitch": 40, "duration": 2, "velocity": 82}, {"time": 3520, "pitch": 39, "duration": 14, "velocity": 84}, {"time": 3520, "pitch": 58, "duration": 7, "velocity": 83}, {"time": 3520, "pitch": 63, "duration": 7, "velocity": 83}, {"time": 3520, "pitch": 66, "duration": 7, "velocity": 80}, {"time": 3526, "pitch": 46, "duration": 8, "velocity": 68}, {"time": 3532, "pitch": 58, "duration": 2, "velocity": 85}, {"time": 3532, "pitch": 63, "duration": 2, "velocity": 93}, {"time": 3532, "pitch": 66, "duration": 3, "velocity": 84}, {"time": 3544, "pitch": 39, "duration": 9, "velocity": 98}, {"time": 3544, "pitch": 58, "duration": 7, "velocity": 87}, {"time": 3544, "pitch": 63, "duration": 10, "velocity": 85}, {"time": 3556, "pitch": 38, "duration": 10, "velocity": 91}, {"time": 3556, "pitch": 58, "duration": 9, "velocity": 83}, {"time": 3556, "pitch": 62, "duration": 10, "velocity": 82}, {"time": 3568, "pitch": 37, "duration": 9, "velocity": 88}, {"time": 3568, "pitch": 56, "duration": 4, "velocity": 83}, {"time": 3568, "pitch": 61, "duration": 5, "velocity": 82}, {"time": 3574, "pitch": 56, "duration": 2, "velocity": 84}, {"time": 3580, "pitch": 56, "duration": 3, "velocity": 84}, {"time": 3580, "pitch": 61, "duration": 3, "velocity": 84}, {"time": 3580, "pitch": 64, "duration": 4, "velocity": 85}, {"time": 3589, "pitch": 56, "duration": 2, "velocity": 83}, {"time": 3592, "pitch": 49, "duration": 8, "velocity": 84}, {"time": 3592, "pitch": 56, "duration": 3, "velocity": 80}, {"time": 3592, "pitch": 61, "duration": 5, "velocity": 82}, {"time": 3592, "pitch": 64, "duration": 7, "velocity": 82}, {"time": 3598, "pitch": 56, "duration": 2, "velocity": 82}, {"time": 3598, "pitch": 61, "duration": 1, "velocity": 53}, {"time": 3604, "pitch": 56, "duration": 2, "velocity": 85}, {"time": 3604, "pitch": 61, "duration": 3, "velocity": 88}, {"time": 3604, "pitch": 64, "duration": 5, "velocity": 86}, {"time": 3610, "pitch": 56, "duration": 1, "velocity": 79}, {"time": 3616, "pitch": 42, "duration": 22, "velocity": 83}, {"time": 3616, "pitch": 54, "duration": 7, "velocity": 82}, {"time": 3616, "pitch": 58, "duration": 7, "velocity": 84}, {"time": 3616, "pitch": 61, "duration": 7, "velocity": 83}, {"time": 3622, "pitch": 49, "duration": 16, "velocity": 78}, {"time": 3628, "pitch": 54, "duration": 3, "velocity": 89}, {"time": 3628, "pitch": 66, "duration": 3, "velocity": 87}, {"time": 3637, "pitch": 54, "duration": 9, "velocity": 83}, {"time": 3640, "pitch": 42, "duration": 24, "velocity": 84}, {"time": 3640, "pitch": 58, "duration": 6, "velocity": 88}, {"time": 3640, "pitch": 61, "duration": 7, "velocity": 85}, {"time": 3646, "pitch": 49, "duration": 8, "velocity": 81}, {"time": 3649, "pitch": 54, "duration": 2, "velocity": 84}, {"time": 3652, "pitch": 54, "duration": 1, "velocity": 76}, {"time": 3652, "pitch": 58, "duration": 7, "velocity": 93}, {"time": 3652, "pitch": 61, "duration": 11, "velocity": 88}, {"time": 3652, "pitch": 66, "duration": 11, "velocity": 83}, {"time": 3655, "pitch": 54, "duration": 4, "velocity": 84}, {"time": 3658, "pitch": 49, "duration": 6, "velocity": 87}, {"time": 3661, "pitch": 54, "duration": 2, "velocity": 86}, {"time": 3664, "pitch": 40, "duration": 19, "velocity": 84}, {"time": 3664, "pitch": 59, "duration": 16, "velocity": 80}, {"time": 3670, "pitch": 47, "duration": 14, "velocity": 77}, {"time": 3676, "pitch": 52, "duration": 6, "velocity": 85}, {"time": 3682, "pitch": 64, "duration": 3, "velocity": 82}, {"time": 3688, "pitch": 42, "duration": 15, "velocity": 83}, {"time": 3688, "pitch": 54, "duration": 12, "velocity": 78}, {"time": 3688, "pitch": 58, "duration": 13, "velocity": 76}, {"time": 3694, "pitch": 49, "duration": 9, "velocity": 76}, {"time": 3700, "pitch": 61, "duration": 3, "velocity": 78}, {"time": 3712, "pitch": 44, "duration": 39, "velocity": 83}, {"time": 3712, "pitch": 56, "duration": 12, "velocity": 76}, {"time": 3712, "pitch": 59, "duration": 12, "velocity": 78}, {"time": 3718, "pitch": 51, "duration": 32, "velocity": 77}, {"time": 3724, "pitch": 63, "duration": 2, "velocity": 86}, {"time": 3730, "pitch": 56, "duration": 7, "velocity": 81}, {"time": 3736, "pitch": 68, "duration": 7, "velocity": 84}, {"time": 3742, "pitch": 56, "duration": 4, "velocity": 78}, {"time": 3748, "pitch": 56, "duration": 4, "velocity": 76}, {"time": 3748, "pitch": 63, "duration": 3, "velocity": 80}, {"time": 3754, "pitch": 51, "duration": 2, "velocity": 83}, {"time": 3760, "pitch": 40, "duration": 20, "velocity": 82}, {"time": 3760, "pitch": 52, "duration": 13, "velocity": 73}, {"time": 3760, "pitch": 56, "duration": 8, "velocity": 76}, {"time": 3766, "pitch": 47, "duration": 14, "velocity": 75}, {"time": 3772, "pitch": 59, "duration": 9, "velocity": 84}, {"time": 3778, "pitch": 52, "duration": 2, "velocity": 83}, {"time": 3784, "pitch": 42, "duration": 14, "velocity": 82}, {"time": 3784, "pitch": 54, "duration": 9, "velocity": 82}, {"time": 3784, "pitch": 58, "duration": 9, "velocity": 79}, {"time": 3790, "pitch": 49, "duration": 8, "velocity": 76}, {"time": 3796, "pitch": 54, "duration": 3, "velocity": 82}, {"time": 3796, "pitch": 58, "duration": 8, "velocity": 78}, {"time": 3802, "pitch": 54, "duration": 6, "velocity": 82}, {"time": 3808, "pitch": 35, "duration": 2, "velocity": 82}, {"time": 3808, "pitch": 59, "duration": 7, "velocity": 78}, {"time": 3814, "pitch": 47, "duration": 30, "velocity": 83}, {"time": 3820, "pitch": 61, "duration": 3, "velocity": 78}, {"time": 3826, "pitch": 54, "duration": 8, "velocity": 82}, {"time": 3832, "pitch": 59, "duration": 8, "velocity": 76}, {"time": 3832, "pitch": 66, "duration": 10, "velocity": 74}, {"time": 3838, "pitch": 54, "duration": 6, "velocity": 75}, {"time": 3844, "pitch": 59, "duration": 2, "velocity": 72}, {"time": 3844, "pitch": 63, "duration": 1, "velocity": 75}, {"time": 3856, "pitch": 40, "duration": 19, "velocity": 84}, {"time": 3856, "pitch": 59, "duration": 16, "velocity": 80}, {"time": 3862, "pitch": 47, "duration": 14, "velocity": 77}, {"time": 3868, "pitch": 52, "duration": 6, "velocity": 85}, {"time": 3874, "pitch": 64, "duration": 3, "velocity": 82}, {"time": 3880, "pitch": 42, "duration": 15, "velocity": 83}, {"time": 3880, "pitch": 54, "duration": 12, "velocity": 78}, {"time": 3880, "pitch": 58, "duration": 13, "velocity": 76}, {"time": 3886, "pitch": 49, "duration": 9, "velocity": 76}, {"time": 3892, "pitch": 61, "duration": 3, "velocity": 78}, {"time": 3903, "pitch": 56, "duration": 12, "velocity": 71}, {"time": 3904, "pitch": 44, "duration": 42, "velocity": 81}, {"time": 3904, "pitch": 59, "duration": 8, "velocity": 75}, {"time": 3910, "pitch": 51, "duration": 34, "velocity": 75}, {"time": 3915, "pitch": 63, "duration": 4, "velocity": 83}, {"time": 3921, "pitch": 56, "duration": 7, "velocity": 82}, {"time": 3927, "pitch": 68, "duration": 9, "velocity": 83}, {"time": 3933, "pitch": 56, "duration": 7, "velocity": 74}, {"time": 3940, "pitch": 63, "duration": 5, "velocity": 82}, {"time": 3940, "pitch": 59, "duration": 5, "velocity": 77}, {"time": 3945, "pitch": 56, "duration": 3, "velocity": 73}, {"time": 3952, "pitch": 40, "duration": 23, "velocity": 78}, {"time": 3952, "pitch": 52, "duration": 21, "velocity": 73}, {"time": 3952, "pitch": 56, "duration": 19, "velocity": 75}, {"time": 3961, "pitch": 47, "duration": 16, "velocity": 76}, {"time": 3970, "pitch": 59, "duration": 6, "velocity": 80}, {"time": 3989, "pitch": 42, "duration": 39, "velocity": 68}, {"time": 3992, "pitch": 49, "duration": 36, "velocity": 75}, {"time": 3992, "pitch": 54, "duration": 32, "velocity": 71}, {"time": 3994, "pitch": 58, "duration": 30, "velocity": 75}, {"time": 3995, "pitch": 61, "duration": 29, "velocity": 77}, {"time": 4038, "pitch": 54, "duration": 7, "velocity": 69}, {"time": 4038, "pitch": 47, "duration": 13, "velocity": 76}, {"time": 4039, "pitch": 59, "duration": 19, "velocity": 74}, {"time": 4041, "pitch": 63, "duration": 25, "velocity": 83}, {"time": 4050, "pitch": 54, "duration": 6, "velocity": 64}], "annotations": [{"time": 18, "annotation": {"number": 64, "value": 127}, "group": "control_change"}, {"time": 38, "annotation": {"number": 64, "value": 0}, "group": "control_change"}, {"time": 41, "annotation": {"number": 64, "value": 127}, "group": "control_change"}, {"time": 65, "annotation": {"number": 64, "value": 0}, "group": "control_change"}, {"time": 70, "annotation": {"number": 64, "value": 127}, "group": "control_change"}, {"time": 112, "annotation": {"number": 64, "value": 0}, "group": "control_change"}, {"time": 117, "annotation": {"number": 64, "value": 127}, "group": "control_change"}, {"time": 135, "annotation": {"number": 64, "value": 0}, "group": "control_change"}, {"time": 140, "annotation": {"number": 64, "value": 127}, "group": "control_change"}, {"time": 157, "annotation": {"number": 64, "value": 0}, "group": "control_change"}, {"time": 160, "annotation": {"number": 64, "value": 127}, "group": "control_change"}, {"time": 208, "annotation": {"number": 64, "value": 0}, "group": "control_change"}, {"time": 212, "annotation": {"number": 64, "value": 127}, "group": "control_change"}, {"time": 230, "annotation": {"number": 64, "value": 0}, "group": "control_change"}, {"time": 233, "annotation": {"number": 64, "value": 127}, "group": "control_change"}, {"time": 254, "annotation": {"number": 64, "value": 0}, "group": "control_change"}, {"time": 259, "annotation": {"number": 64, "value": 127}, "group": "control_change"}, {"time": 303, "annotation": {"number": 64, "value": 0}, "group": "control_change"}, {"time": 307, "annotation": {"number": 64, "value": 127}, "group": "control_change"}, {"time": 327, "annotation": {"number": 64, "value": 0}, "group": "control_change"}, {"time": 334, "annotation": {"number": 64, "value": 127}, "group": "control_change"}, {"time": 351, "annotation": {"number": 64, "value": 0}, "group": "control_change"}, {"time": 354, "annotation": {"number": 64, "value": 127}, "group": "control_change"}, {"time": 398, "annotation": {"number": 64, "value": 0}, "group": "control_change"}, {"time": 401, "annotation": {"number": 64, "value": 127}, "group": "control_change"}, {"time": 423, "annotation": {"number": 64, "value": 0}, "group": "control_change"}, {"time": 425, "annotation": {"number": 64, "value": 127}, "group": "control_change"}, {"time": 447, "annotation": {"number": 64, "value": 0}, "group": "control_change"}, {"time": 454, "annotation": {"number": 64, "value": 127}, "group": "control_change"}, {"time": 495, "annotation": {"number": 64, "value": 0}, "group": "control_change"}, {"time": 500, "annotation": {"number": 64, "value": 127}, "group": "control_change"}, {"time": 519, "annotation": {"number": 64, "value": 0}, "group": "control_change"}, {"time": 523, "annotation": {"number": 64, "value": 127}, "group": "control_change"}, {"time": 542, "annotation": {"number": 64, "value": 0}, "group": "control_change"}, {"time": 545, "annotation": {"number": 64, "value": 127}, "group": "control_change"}, {"time": 590, "annotation": {"number": 64, "value": 0}, "group": "control_change"}, {"time": 594, "annotation": {"number": 64, "value": 127}, "group": "control_change"}, {"time": 615, "annotation": {"number": 64, "value": 0}, "group": "control_change"}, {"time": 619, "annotation": {"number": 64, "value": 127}, "group": "control_change"}, {"time": 638, "annotation": {"number": 64, "value": 0}, "group": "control_change"}, {"time": 641, "annotation": {"number": 64, "value": 127}, "group": "control_change"}, {"time": 662, "annotation": {"number": 64, "value": 0}, "group": "control_change"}, {"time": 664, "annotation": {"number": 64, "value": 127}, "group": "control_change"}, {"time": 688, "annotation": {"number": 64, "value": 0}, "group": "control_change"}, {"time": 692, "annotation": {"number": 64, "value": 127}, "group": "control_change"}, {"time": 711, "annotation": {"number": 64, "value": 0}, "group": "control_change"}, {"time": 719, "annotation": {"number": 64, "value": 127}, "group": "control_change"}, {"time": 736, "annotation": {"number": 64, "value": 0}, "group": "control_change"}, {"time": 740, "annotation": {"number": 64, "value": 127}, "group": "control_change"}, {"time": 759, "annotation": {"number": 64, "value": 0}, "group": "control_change"}, {"time": 761, "annotation": {"number": 64, "value": 127}, "group": "control_change"}, {"time": 784, "annotation": {"number": 64, "value": 0}, "group": "control_change"}, {"time": 788, "annotation": {"number": 64, "value": 127}, "group": "control_change"}, {"time": 808, "annotation": {"number": 64, "value": 0}, "group": "control_change"}, {"time": 812, "annotation": {"number": 64, "value": 127}, "group": "control_change"}, {"time": 830, "annotation": {"number": 64, "value": 0}, "group": "control_change"}, {"time": 833, "annotation": {"number": 64, "value": 127}, "group": "control_change"}, {"time": 854, "annotation": {"number": 64, "value": 0}, "group": "control_change"}, {"time": 858, "annotation": {"number": 64, "value": 127}, "group": "control_change"}, {"time": 880, "annotation": {"number": 64, "value": 0}, "group": "control_change"}, {"time": 887, "annotation": {"number": 64, "value": 127}, "group": "control_change"}, {"time": 926, "annotation": {"number": 64, "value": 0}, "group": "control_change"}, {"time": 929, "annotation": {"number": 64, "value": 127}, "group": "control_change"}, {"time": 973, "annotation": {"number": 64, "value": 0}, "group": "control_change"}, {"time": 976, "annotation": {"number": 64, "value": 127}, "group": "control_change"}, {"time": 1023, "annotation": {"number": 64, "value": 0}, "group": "control_change"}, {"time": 1025, "annotation": {"number": 64, "value": 127}, "group": "control_change"}, {"time": 1048, "annotation": {"number": 64, "value": 0}, "group": "control_change"}, {"time": 1049, "annotation": {"number": 64, "value": 127}, "group": "control_change"}, {"time": 1071, "annotation": {"number": 64, "value": 0}, "group": "control_change"}, {"time": 1074, "annotation": {"number": 64, "value": 127}, "group": "control_change"}, {"time": 1095, "annotation": {"number": 64, "value": 0}, "group": "control_change"}, {"time": 1096, "annotation": {"number": 64, "value": 127}, "group": "control_change"}, {"time": 1120, "annotation": {"number": 64, "value": 0}, "group": "control_change"}, {"time": 1122, "annotation": {"number": 64, "value": 127}, "group": "control_change"}, {"time": 1143, "annotation": {"number": 64, "value": 0}, "group": "control_change"}, {"time": 1148, "annotation": {"number": 64, "value": 127}, "group": "control_change"}, {"time": 1167, "annotation": {"number": 64, "value": 0}, "group": "control_change"}, {"time": 1170, "annotation": {"number": 64, "value": 127}, "group": "control_change"}, {"time": 1213, "annotation": {"number": 64, "value": 0}, "group": "control_change"}, {"time": 1217, "annotation": {"number": 64, "value": 127}, "group": "control_change"}, {"time": 1241, "annotation": {"number": 64, "value": 127}, "group": "control_change"}, {"time": 1251, "annotation": {"number": 64, "value": 0}, "group": "control_change"}, {"time": 1254, "annotation": {"number": 64, "value": 127}, "group": "control_change"}, {"time": 1262, "annotation": {"number": 64, "value": 0}, "group": "control_change"}, {"time": 1268, "annotation": {"number": 64, "value": 127}, "group": "control_change"}, {"time": 1287, "annotation": {"number": 64, "value": 0}, "group": "control_change"}, {"time": 1289, "annotation": {"number": 64, "value": 127}, "group": "control_change"}, {"time": 1310, "annotation": {"number": 64, "value": 0}, "group": "control_change"}, {"time": 1313, "annotation": {"number": 64, "value": 127}, "group": "control_change"}, {"time": 1357, "annotation": {"number": 64, "value": 0}, "group": "control_change"}, {"time": 1360, "annotation": {"number": 64, "value": 127}, "group": "control_change"}, {"time": 1407, "annotation": {"number": 64, "value": 0}, "group": "control_change"}, {"time": 1409, "annotation": {"number": 64, "value": 127}, "group": "control_change"}, {"time": 1432, "annotation": {"number": 64, "value": 0}, "group": "control_change"}, {"time": 1433, "annotation": {"number": 64, "value": 127}, "group": "control_change"}, {"time": 1455, "annotation": {"number": 64, "value": 0}, "group": "control_change"}, {"time": 1458, "annotation": {"number": 64, "value": 127}, "group": "control_change"}, {"time": 1479, "annotation": {"number": 64, "value": 0}, "group": "control_change"}, {"time": 1480, "annotation": {"number": 64, "value": 127}, "group": "control_change"}, {"time": 1504, "annotation": {"number": 64, "value": 0}, "group": "control_change"}, {"time": 1506, "annotation": {"number": 64, "value": 127}, "group": "control_change"}, {"time": 1527, "annotation": {"number": 64, "value": 0}, "group": "control_change"}, {"time": 1532, "annotation": {"number": 64, "value": 127}, "group": "control_change"}, {"time": 1551, "annotation": {"number": 64, "value": 0}, "group": "control_change"}, {"time": 1554, "annotation": {"number": 64, "value": 127}, "group": "control_change"}, {"time": 1597, "annotation": {"number": 64, "value": 0}, "group": "control_change"}, {"time": 1601, "annotation": {"number": 64, "value": 127}, "group": "control_change"}, {"time": 1625, "annotation": {"number": 64, "value": 127}, "group": "control_change"}, {"time": 1635, "annotation": {"number": 64, "value": 0}, "group": "control_change"}, {"time": 1638, "annotation": {"number": 64, "value": 127}, "group": "control_change"}, {"time": 1646, "annotation": {"number": 64, "value": 0}, "group": "control_change"}, {"time": 1652, "annotation": {"number": 64, "value": 127}, "group": "control_change"}, {"time": 1671, "annotation": {"number": 64, "value": 0}, "group": "control_change"}, {"time": 1673, "annotation": {"number": 64, "value": 127}, "group": "control_change"}, {"time": 1694, "annotation": {"number": 64, "value": 0}, "group": "control_change"}, {"time": 1697, "annotation": {"number": 64, "value": 127}, "group": "control_change"}, {"time": 1741, "annotation": {"number": 64, "value": 0}, "group": "control_change"}, {"time": 1745, "annotation": {"number": 64, "value": 127}, "group": "control_change"}, {"time": 1745, "annotation": {"number": 64, "value": 0}, "group": "control_change"}, {"time": 1790, "annotation": {"number": 64, "value": 0}, "group": "control_change"}, {"time": 1793, "annotation": {"number": 64, "value": 127}, "group": "control_change"}, {"time": 1838, "annotation": {"number": 64, "value": 0}, "group": "control_change"}, {"time": 1841, "annotation": {"number": 64, "value": 127}, "group": "control_change"}, {"time": 1861, "annotation": {"number": 64, "value": 0}, "group": "control_change"}, {"time": 1862, "annotation": {"number": 64, "value": 127}, "group": "control_change"}, {"time": 1885, "annotation": {"number": 64, "value": 0}, "group": "control_change"}, {"time": 1888, "annotation": {"number": 64, "value": 127}, "group": "control_change"}, {"time": 1933, "annotation": {"number": 64, "value": 0}, "group": "control_change"}, {"time": 1937, "annotation": {"number": 64, "value": 127}, "group": "control_change"}, {"time": 1958, "annotation": {"number": 64, "value": 0}, "group": "control_change"}, {"time": 1960, "annotation": {"number": 64, "value": 127}, "group": "control_change"}, {"time": 1983, "annotation": {"number": 64, "value": 0}, "group": "control_change"}, {"time": 1983, "annotation": {"number": 64, "value": 127}, "group": "control_change"}, {"time": 2007, "annotation": {"number": 64, "value": 0}, "group": "control_change"}, {"time": 2008, "annotation": {"number": 64, "value": 127}, "group": "control_change"}, {"time": 2030, "annotation": {"number": 64, "value": 0}, "group": "control_change"}, {"time": 2032, "annotation": {"number": 64, "value": 127}, "group": "control_change"}, {"time": 2053, "annotation": {"number": 64, "value": 0}, "group": "control_change"}, {"time": 2056, "annotation": {"number": 64, "value": 127}, "group": "control_change"}, {"time": 2078, "annotation": {"number": 64, "value": 0}, "group": "control_change"}, {"time": 2082, "annotation": {"number": 64, "value": 127}, "group": "control_change"}, {"time": 2102, "annotation": {"number": 64, "value": 0}, "group": "control_change"}, {"time": 2104, "annotation": {"number": 64, "value": 127}, "group": "control_change"}, {"time": 2124, "annotation": {"number": 64, "value": 0}, "group": "control_change"}, {"time": 2132, "annotation": {"number": 64, "value": 127}, "group": "control_change"}, {"time": 2150, "annotation": {"number": 64, "value": 0}, "group": "control_change"}, {"time": 2153, "annotation": {"number": 64, "value": 127}, "group": "control_change"}, {"time": 2174, "annotation": {"number": 64, "value": 0}, "group": "control_change"}, {"time": 2179, "annotation": {"number": 64, "value": 127}, "group": "control_change"}, {"time": 2223, "annotation": {"number": 64, "value": 0}, "group": "control_change"}, {"time": 2227, "annotation": {"number": 64, "value": 127}, "group": "control_change"}, {"time": 2247, "annotation": {"number": 64, "value": 0}, "group": "control_change"}, {"time": 2254, "annotation": {"number": 64, "value": 127}, "group": "control_change"}, {"time": 2271, "annotation": {"number": 64, "value": 0}, "group": "control_change"}, {"time": 2274, "annotation": {"number": 64, "value": 127}, "group": "control_change"}, {"time": 2318, "annotation": {"number": 64, "value": 0}, "group": "control_change"}, {"time": 2321, "annotation": {"number": 64, "value": 127}, "group": "control_change"}, {"time": 2343, "annotation": {"number": 64, "value": 0}, "group": "control_change"}, {"time": 2345, "annotation": {"number": 64, "value": 127}, "group": "control_change"}, {"time": 2367, "annotation": {"number": 64, "value": 0}, "group": "control_change"}, {"time": 2374, "annotation": {"number": 64, "value": 127}, "group": "control_change"}, {"time": 2415, "annotation": {"number": 64, "value": 0}, "group": "control_change"}, {"time": 2420, "annotation": {"number": 64, "value": 127}, "group": "control_change"}, {"time": 2439, "annotation": {"number": 64, "value": 0}, "group": "control_change"}, {"time": 2443, "annotation": {"number": 64, "value": 127}, "group": "control_change"}, {"time": 2462, "annotation": {"number": 64, "value": 0}, "group": "control_change"}, {"time": 2465, "annotation": {"number": 64, "value": 127}, "group": "control_change"}, {"time": 2510, "annotation": {"number": 64, "value": 0}, "group": "control_change"}, {"time": 2514, "annotation": {"number": 64, "value": 127}, "group": "control_change"}, {"time": 2535, "annotation": {"number": 64, "value": 0}, "group": "control_change"}, {"time": 2539, "annotation": {"number": 64, "value": 127}, "group": "control_change"}, {"time": 2558, "annotation": {"number": 64, "value": 0}, "group": "control_change"}, {"time": 2561, "annotation": {"number": 64, "value": 127}, "group": "control_change"}, {"time": 2582, "annotation": {"number": 64, "value": 0}, "group": "control_change"}, {"time": 2584, "annotation": {"number": 64, "value": 127}, "group": "control_change"}, {"time": 2608, "annotation": {"number": 64, "value": 0}, "group": "control_change"}, {"time": 2612, "annotation": {"number": 64, "value": 127}, "group": "control_change"}, {"time": 2631, "annotation": {"number": 64, "value": 0}, "group": "control_change"}, {"time": 2639, "annotation": {"number": 64, "value": 127}, "group": "control_change"}, {"time": 2656, "annotation": {"number": 64, "value": 0}, "group": "control_change"}, {"time": 2660, "annotation": {"number": 64, "value": 127}, "group": "control_change"}, {"time": 2679, "annotation": {"number": 64, "value": 0}, "group": "control_change"}, {"time": 2681, "annotation": {"number": 64, "value": 127}, "group": "control_change"}, {"time": 2704, "annotation": {"number": 64, "value": 0}, "group": "control_change"}, {"time": 2708, "annotation": {"number": 64, "value": 127}, "group": "control_change"}, {"time": 2728, "annotation": {"number": 64, "value": 0}, "group": "control_change"}, {"time": 2732, "annotation": {"number": 64, "value": 127}, "group": "control_change"}, {"time": 2750, "annotation": {"number": 64, "value": 0}, "group": "control_change"}, {"time": 2753, "annotation": {"number": 64, "value": 127}, "group": "control_change"}, {"time": 2774, "annotation": {"number": 64, "value": 0}, "group": "control_change"}, {"time": 2778, "annotation": {"number": 64, "value": 127}, "group": "control_change"}, {"time": 2800, "annotation": {"number": 64, "value": 0}, "group": "control_change"}, {"time": 2807, "annotation": {"number": 64, "value": 127}, "group": "control_change"}, {"time": 2846, "annotation": {"number": 64, "value": 0}, "group": "control_change"}, {"time": 2849, "annotation": {"number": 64, "value": 127}, "group": "control_change"}, {"time": 2893, "annotation": {"number": 64, "value": 0}, "group": "control_change"}, {"time": 2896, "annotation": {"number": 64, "value": 127}, "group": "control_change"}, {"time": 2943, "annotation": {"number": 64, "value": 0}, "group": "control_change"}, {"time": 2945, "annotation": {"number": 64, "value": 127}, "group": "control_change"}, {"time": 2968, "annotation": {"number": 64, "value": 0}, "group": "control_change"}, {"time": 2969, "annotation": {"number": 64, "value": 127}, "group": "control_change"}, {"time": 2991, "annotation": {"number": 64, "value": 0}, "group": "control_change"}, {"time": 2994, "annotation": {"number": 64, "value": 127}, "group": "control_change"}, {"time": 3015, "annotation": {"number": 64, "value": 0}, "group": "control_change"}, {"time": 3016, "annotation": {"number": 64, "value": 127}, "group": "control_change"}, {"time": 3040, "annotation": {"number": 64, "value": 0}, "group": "control_change"}, {"time": 3042, "annotation": {"number": 64, "value": 127}, "group": "control_change"}, {"time": 3063, "annotation": {"number": 64, "value": 0}, "group": "control_change"}, {"time": 3068, "annotation": {"number": 64, "value": 127}, "group": "control_change"}, {"time": 3087, "annotation": {"number": 64, "value": 0}, "group": "control_change"}, {"time": 3090, "annotation": {"number": 64, "value": 127}, "group": "control_change"}, {"time": 3133, "annotation": {"number": 64, "value": 0}, "group": "control_change"}, {"time": 3137, "annotation": {"number": 64, "value": 127}, "group": "control_change"}, {"time": 3161, "annotation": {"number": 64, "value": 127}, "group": "control_change"}, {"time": 3171, "annotation": {"number": 64, "value": 0}, "group": "control_change"}, {"time": 3174, "annotation": {"number": 64, "value": 127}, "group": "control_change"}, {"time": 3182, "annotation": {"number": 64, "value": 0}, "group": "control_change"}, {"time": 3188, "annotation": {"number": 64, "value": 127}, "group": "control_change"}, {"time": 3207, "annotation": {"number": 64, "value": 0}, "group": "control_change"}, {"time": 3209, "annotation": {"number": 64, "value": 127}, "group": "control_change"}, {"time": 3230, "annotation": {"number": 64, "value": 0}, "group": "control_change"}, {"time": 3233, "annotation": {"number": 64, "value": 127}, "group": "control_change"}, {"time": 3277, "annotation": {"number": 64, "value": 0}, "group": "control_change"}, {"time": 3280, "annotation": {"number": 64, "value": 127}, "group": "control_change"}, {"time": 3327, "annotation": {"number": 64, "value": 0}, "group": "control_change"}, {"time": 3329, "annotation": {"number": 64, "value": 127}, "group": "control_change"}, {"time": 3352, "annotation": {"number": 64, "value": 0}, "group": "control_change"}, {"time": 3353, "annotation": {"number": 64, "value": 127}, "group": "control_change"}, {"time": 3375, "annotation": {"number": 64, "value": 0}, "group": "control_change"}, {"time": 3378, "annotation": {"number": 64, "value": 127}, "group": "control_change"}, {"time": 3399, "annotation": {"number": 64, "value": 0}, "group": "control_change"}, {"time": 3400, "annotation": {"number": 64, "value": 127}, "group": "control_change"}, {"time": 3424, "annotation": {"number": 64, "value": 0}, "group": "control_change"}, {"time": 3426, "annotation": {"number": 64, "value": 127}, "group": "control_change"}, {"time": 3447, "annotation": {"number": 64, "value": 0}, "group": "control_change"}, {"time": 3452, "annotation": {"number": 64, "value": 127}, "group": "control_change"}, {"time": 3471, "annotation": {"number": 64, "value": 0}, "group": "control_change"}, {"time": 3474, "annotation": {"number": 64, "value": 127}, "group": "control_change"}, {"time": 3517, "annotation": {"number": 64, "value": 0}, "group": "control_change"}, {"time": 3521, "annotation": {"number": 64, "value": 127}, "group": "control_change"}, {"time": 3545, "annotation": {"number": 64, "value": 127}, "group": "control_change"}, {"time": 3555, "annotation": {"number": 64, "value": 0}, "group": "control_change"}, {"time": 3558, "annotation": {"number": 64, "value": 127}, "group": "control_change"}, {"time": 3566, "annotation": {"number": 64, "value": 0}, "group": "control_change"}, {"time": 3572, "annotation": {"number": 64, "value": 127}, "group": "control_change"}, {"time": 3591, "annotation": {"number": 64, "value": 0}, "group": "control_change"}, {"time": 3593, "annotation": {"number": 64, "value": 127}, "group": "control_change"}, {"time": 3614, "annotation": {"number": 64, "value": 0}, "group": "control_change"}, {"time": 3617, "annotation": {"number": 64, "value": 127}, "group": "control_change"}, {"time": 3661, "annotation": {"number": 64, "value": 0}, "group": "control_change"}, {"time": 3666, "annotation": {"number": 64, "value": 127}, "group": "control_change"}, {"time": 3686, "annotation": {"number": 64, "value": 0}, "group": "control_change"}, {"time": 3689, "annotation": {"number": 64, "value": 127}, "group": "control_change"}, {"time": 3713, "annotation": {"number": 64, "value": 0}, "group": "control_change"}, {"time": 3718, "annotation": {"number": 64, "value": 127}, "group": "control_change"}, {"time": 3760, "annotation": {"number": 64, "value": 0}, "group": "control_change"}, {"time": 3765, "annotation": {"number": 64, "value": 127}, "group": "control_change"}, {"time": 3783, "annotation": {"number": 64, "value": 0}, "group": "control_change"}, {"time": 3788, "annotation": {"number": 64, "value": 127}, "group": "control_change"}, {"time": 3805, "annotation": {"number": 64, "value": 0}, "group": "control_change"}, {"time": 3808, "annotation": {"number": 64, "value": 127}, "group": "control_change"}, {"time": 3856, "annotation": {"number": 64, "value": 0}, "group": "control_change"}, {"time": 3858, "annotation": {"number": 64, "value": 127}, "group": "control_change"}, {"time": 3878, "annotation": {"number": 64, "value": 0}, "group": "control_change"}, {"time": 3881, "annotation": {"number": 64, "value": 127}, "group": "control_change"}, {"time": 3906, "annotation": {"number": 64, "value": 127}, "group": "control_change"}, {"time": 3906, "annotation": {"number": 64, "value": 0}, "group": "control_change"}, {"time": 3907, "annotation": {"number": 64, "value": 127}, "group": "control_change"}, {"time": 3953, "annotation": {"number": 64, "value": 0}, "group": "control_change"}, {"time": 3969, "annotation": {"number": 64, "value": 127}, "group": "control_change"}, {"time": 4039, "annotation": {"number": 64, "value": 0}, "group": "control_change"}, {"time": 4041, "annotation": {"number": 64, "value": 127}, "group": "control_change"}]}]}