{"metadata": {"schema_version": "0.2", "title": "None", "source_filename": "693.mid", "source_format": "midi"}, "resolution": 12, "tempos": [{"time": 0, "qpm": 80.50006641255479}, {"time": 1892, "qpm": 80.25005918441865}, {"time": 1988, "qpm": 81.000081000081}, {"time": 2228, "qpm": 80.50006641255479}, {"time": 2348, "qpm": 80.0}, {"time": 2444, "qpm": 80.25005918441865}, {"time": 2564, "qpm": 80.75000605625046}, {"time": 2828, "qpm": 80.25005918441865}, {"time": 3044, "qpm": 79.75011630225293}, {"time": 3092, "qpm": 80.50006641255479}, {"time": 3104, "qpm": 81.25016927118598}, {"time": 3202, "qpm": 80.50006641255479}, {"time": 3206, "qpm": 79.75011630225293}, {"time": 3236, "qpm": 80.50006641255479}, {"time": 3332, "qpm": 81.000081000081}], "time_signatures": [{"time": 0, "numerator": 1, "denominator": 4}], "tracks": [{"program": 0, "is_drum": false, "name": "MELODY", "notes": [{"time": 392, "pitch": 64, "duration": 1, "velocity": 89}, {"time": 396, "pitch": 67, "duration": 3, "velocity": 69}, {"time": 400, "pitch": 69, "duration": 3, "velocity": 75}, {"time": 404, "pitch": 71, "duration": 2, "velocity": 76}, {"time": 408, "pitch": 71, "duration": 2, "velocity": 70}, {"time": 412, "pitch": 71, "duration": 2, "velocity": 69}, {"time": 416, "pitch": 71, "duration": 3, "velocity": 74}, {"time": 420, "pitch": 69, "duration": 2, "velocity": 73}, {"time": 424, "pitch": 67, "duration": 2, "velocity": 68}, {"time": 428, "pitch": 71, "duration": 2, "velocity": 74}, {"time": 432, "pitch": 71, "duration": 2, "velocity": 69}, {"time": 436, "pitch": 71, "duration": 2, "velocity": 72}, {"time": 440, "pitch": 71, "duration": 2, "velocity": 75}, {"time": 444, "pitch": 69, "duration": 2, "velocity": 75}, {"time": 448, "pitch": 67, "duration": 2, "velocity": 75}, {"time": 452, "pitch": 69, "duration": 2, "velocity": 71}, {"time": 456, "pitch": 69, "duration": 2, "velocity": 73}, {"time": 460, "pitch": 69, "duration": 2, "velocity": 72}, {"time": 464, "pitch": 69, "duration": 2, "velocity": 69}, {"time": 468, "pitch": 67, "duration": 2, "velocity": 71}, {"time": 472, "pitch": 69, "duration": 3, "velocity": 74}, {"time": 476, "pitch": 64, "duration": 13, "velocity": 74}, {"time": 500, "pitch": 76, "duration": 2, "velocity": 73}, {"time": 504, "pitch": 76, "duration": 2, "velocity": 73}, {"time": 508, "pitch": 76, "duration": 2, "velocity": 72}, {"time": 512, "pitch": 76, "duration": 2, "velocity": 75}, {"time": 516, "pitch": 74, "duration": 2, "velocity": 78}, {"time": 520, "pitch": 76, "duration": 2, "velocity": 77}, {"time": 524, "pitch": 69, "duration": 2, "velocity": 69}, {"time": 528, "pitch": 69, "duration": 2, "velocity": 69}, {"time": 532, "pitch": 69, "duration": 2, "velocity": 71}, {"time": 536, "pitch": 69, "duration": 2, "velocity": 69}, {"time": 540, "pitch": 67, "duration": 2, "velocity": 66}, {"time": 544, "pitch": 69, "duration": 2, "velocity": 68}, {"time": 548, "pitch": 69, "duration": 2, "velocity": 70}, {"time": 552, "pitch": 69, "duration": 2, "velocity": 68}, {"time": 556, "pitch": 69, "duration": 2, "velocity": 64}, {"time": 560, "pitch": 69, "duration": 2, "velocity": 67}, {"time": 564, "pitch": 67, "duration": 2, "velocity": 66}, {"time": 568, "pitch": 69, "duration": 3, "velocity": 67}, {"time": 572, "pitch": 71, "duration": 12, "velocity": 74}, {"time": 596, "pitch": 76, "duration": 9, "velocity": 74}, {"time": 608, "pitch": 76, "duration": 10, "velocity": 77}, {"time": 620, "pitch": 74, "duration": 9, "velocity": 77}, {"time": 632, "pitch": 74, "duration": 2, "velocity": 80}, {"time": 636, "pitch": 71, "duration": 3, "velocity": 71}, {"time": 640, "pitch": 67, "duration": 2, "velocity": 62}, {"time": 644, "pitch": 69, "duration": 2, "velocity": 65}, {"time": 648, "pitch": 69, "duration": 2, "velocity": 67}, {"time": 652, "pitch": 69, "duration": 2, "velocity": 66}, {"time": 656, "pitch": 69, "duration": 3, "velocity": 73}, {"time": 660, "pitch": 67, "duration": 2, "velocity": 68}, {"time": 664, "pitch": 69, "duration": 2, "velocity": 73}, {"time": 668, "pitch": 71, "duration": 5, "velocity": 71}, {"time": 676, "pitch": 64, "duration": 10, "velocity": 77}, {"time": 692, "pitch": 67, "duration": 7, "velocity": 74}, {"time": 704, "pitch": 71, "duration": 7, "velocity": 75}, {"time": 716, "pitch": 69, "duration": 8, "velocity": 74}, {"time": 736, "pitch": 74, "duration": 4, "velocity": 77}, {"time": 740, "pitch": 71, "duration": 28, "velocity": 74}, {"time": 776, "pitch": 64, "duration": 1, "velocity": 89}, {"time": 780, "pitch": 67, "duration": 3, "velocity": 69}, {"time": 784, "pitch": 69, "duration": 3, "velocity": 75}, {"time": 788, "pitch": 71, "duration": 2, "velocity": 76}, {"time": 792, "pitch": 71, "duration": 2, "velocity": 70}, {"time": 796, "pitch": 71, "duration": 2, "velocity": 69}, {"time": 800, "pitch": 71, "duration": 3, "velocity": 74}, {"time": 804, "pitch": 69, "duration": 2, "velocity": 73}, {"time": 808, "pitch": 67, "duration": 2, "velocity": 68}, {"time": 812, "pitch": 71, "duration": 2, "velocity": 74}, {"time": 816, "pitch": 71, "duration": 2, "velocity": 69}, {"time": 820, "pitch": 71, "duration": 2, "velocity": 72}, {"time": 824, "pitch": 71, "duration": 2, "velocity": 75}, {"time": 828, "pitch": 69, "duration": 2, "velocity": 75}, {"time": 832, "pitch": 67, "duration": 2, "velocity": 75}, {"time": 836, "pitch": 69, "duration": 2, "velocity": 71}, {"time": 840, "pitch": 69, "duration": 2, "velocity": 73}, {"time": 844, "pitch": 69, "duration": 2, "velocity": 72}, {"time": 848, "pitch": 69, "duration": 2, "velocity": 69}, {"time": 852, "pitch": 67, "duration": 2, "velocity": 71}, {"time": 856, "pitch": 69, "duration": 3, "velocity": 74}, {"time": 860, "pitch": 64, "duration": 13, "velocity": 74}, {"time": 884, "pitch": 76, "duration": 2, "velocity": 73}, {"time": 888, "pitch": 76, "duration": 2, "velocity": 73}, {"time": 892, "pitch": 76, "duration": 2, "velocity": 72}, {"time": 896, "pitch": 76, "duration": 2, "velocity": 75}, {"time": 900, "pitch": 74, "duration": 2, "velocity": 78}, {"time": 904, "pitch": 76, "duration": 2, "velocity": 77}, {"time": 908, "pitch": 69, "duration": 2, "velocity": 69}, {"time": 912, "pitch": 69, "duration": 2, "velocity": 69}, {"time": 916, "pitch": 69, "duration": 2, "velocity": 71}, {"time": 920, "pitch": 69, "duration": 2, "velocity": 69}, {"time": 924, "pitch": 67, "duration": 2, "velocity": 66}, {"time": 928, "pitch": 69, "duration": 2, "velocity": 68}, {"time": 932, "pitch": 69, "duration": 2, "velocity": 70}, {"time": 936, "pitch": 69, "duration": 2, "velocity": 68}, {"time": 940, "pitch": 69, "duration": 2, "velocity": 64}, {"time": 944, "pitch": 69, "duration": 2, "velocity": 67}, {"time": 948, "pitch": 67, "duration": 2, "velocity": 66}, {"time": 952, "pitch": 69, "duration": 3, "velocity": 67}, {"time": 956, "pitch": 71, "duration": 12, "velocity": 74}, {"time": 980, "pitch": 76, "duration": 9, "velocity": 74}, {"time": 992, "pitch": 76, "duration": 10, "velocity": 77}, {"time": 1004, "pitch": 74, "duration": 9, "velocity": 77}, {"time": 1016, "pitch": 74, "duration": 2, "velocity": 80}, {"time": 1020, "pitch": 71, "duration": 3, "velocity": 71}, {"time": 1024, "pitch": 67, "duration": 2, "velocity": 62}, {"time": 1028, "pitch": 69, "duration": 2, "velocity": 65}, {"time": 1032, "pitch": 69, "duration": 2, "velocity": 67}, {"time": 1036, "pitch": 69, "duration": 2, "velocity": 66}, {"time": 1040, "pitch": 69, "duration": 3, "velocity": 73}, {"time": 1044, "pitch": 67, "duration": 2, "velocity": 68}, {"time": 1048, "pitch": 69, "duration": 2, "velocity": 73}, {"time": 1052, "pitch": 71, "duration": 5, "velocity": 71}, {"time": 1060, "pitch": 76, "duration": 10, "velocity": 77}, {"time": 1076, "pitch": 67, "duration": 7, "velocity": 74}, {"time": 1088, "pitch": 71, "duration": 7, "velocity": 75}, {"time": 1100, "pitch": 69, "duration": 8, "velocity": 74}, {"time": 1112, "pitch": 74, "duration": 7, "velocity": 80}, {"time": 1120, "pitch": 71, "duration": 3, "velocity": 69}, {"time": 1124, "pitch": 71, "duration": 7, "velocity": 77}, {"time": 1132, "pitch": 76, "duration": 22, "velocity": 78}, {"time": 1160, "pitch": 79, "duration": 6, "velocity": 74}, {"time": 1168, "pitch": 78, "duration": 3, "velocity": 78}, {"time": 1172, "pitch": 76, "duration": 4, "velocity": 77}, {"time": 1180, "pitch": 76, "duration": 2, "velocity": 74}, {"time": 1184, "pitch": 76, "duration": 5, "velocity": 77}, {"time": 1192, "pitch": 76, "duration": 3, "velocity": 76}, {"time": 1196, "pitch": 78, "duration": 5, "velocity": 74}, {"time": 1204, "pitch": 78, "duration": 3, "velocity": 75}, {"time": 1208, "pitch": 78, "duration": 6, "velocity": 77}, {"time": 1216, "pitch": 76, "duration": 3, "velocity": 75}, {"time": 1220, "pitch": 74, "duration": 5, "velocity": 78}, {"time": 1228, "pitch": 74, "duration": 2, "velocity": 74}, {"time": 1232, "pitch": 71, "duration": 6, "velocity": 75}, {"time": 1240, "pitch": 69, "duration": 2, "velocity": 73}, {"time": 1244, "pitch": 71, "duration": 10, "velocity": 73}, {"time": 1268, "pitch": 67, "duration": 8, "velocity": 76}, {"time": 1280, "pitch": 76, "duration": 9, "velocity": 76}, {"time": 1292, "pitch": 74, "duration": 10, "velocity": 77}, {"time": 1304, "pitch": 71, "duration": 7, "velocity": 75}, {"time": 1312, "pitch": 69, "duration": 3, "velocity": 74}, {"time": 1316, "pitch": 71, "duration": 27, "velocity": 73}, {"time": 1352, "pitch": 79, "duration": 6, "velocity": 74}, {"time": 1360, "pitch": 78, "duration": 3, "velocity": 78}, {"time": 1364, "pitch": 76, "duration": 4, "velocity": 77}, {"time": 1372, "pitch": 76, "duration": 2, "velocity": 74}, {"time": 1376, "pitch": 76, "duration": 5, "velocity": 77}, {"time": 1384, "pitch": 76, "duration": 3, "velocity": 76}, {"time": 1388, "pitch": 78, "duration": 5, "velocity": 74}, {"time": 1396, "pitch": 78, "duration": 3, "velocity": 75}, {"time": 1400, "pitch": 78, "duration": 6, "velocity": 77}, {"time": 1408, "pitch": 76, "duration": 3, "velocity": 75}, {"time": 1412, "pitch": 74, "duration": 5, "velocity": 78}, {"time": 1424, "pitch": 71, "duration": 6, "velocity": 75}, {"time": 1432, "pitch": 74, "duration": 2, "velocity": 73}, {"time": 1436, "pitch": 76, "duration": 10, "velocity": 73}, {"time": 1460, "pitch": 72, "duration": 9, "velocity": 77}, {"time": 1472, "pitch": 79, "duration": 10, "velocity": 67}, {"time": 1484, "pitch": 78, "duration": 11, "velocity": 75}, {"time": 1496, "pitch": 76, "duration": 6, "velocity": 76}, {"time": 1504, "pitch": 74, "duration": 3, "velocity": 77}, {"time": 1508, "pitch": 76, "duration": 28, "velocity": 75}, {"time": 1976, "pitch": 64, "duration": 1, "velocity": 89}, {"time": 1980, "pitch": 67, "duration": 3, "velocity": 69}, {"time": 1984, "pitch": 69, "duration": 3, "velocity": 75}, {"time": 1988, "pitch": 71, "duration": 2, "velocity": 76}, {"time": 1992, "pitch": 71, "duration": 2, "velocity": 70}, {"time": 1996, "pitch": 71, "duration": 2, "velocity": 69}, {"time": 2000, "pitch": 71, "duration": 3, "velocity": 74}, {"time": 2004, "pitch": 69, "duration": 2, "velocity": 73}, {"time": 2008, "pitch": 67, "duration": 2, "velocity": 68}, {"time": 2012, "pitch": 71, "duration": 2, "velocity": 74}, {"time": 2016, "pitch": 71, "duration": 2, "velocity": 69}, {"time": 2020, "pitch": 71, "duration": 2, "velocity": 72}, {"time": 2024, "pitch": 71, "duration": 2, "velocity": 75}, {"time": 2028, "pitch": 69, "duration": 2, "velocity": 75}, {"time": 2032, "pitch": 67, "duration": 2, "velocity": 75}, {"time": 2036, "pitch": 69, "duration": 2, "velocity": 71}, {"time": 2040, "pitch": 69, "duration": 2, "velocity": 73}, {"time": 2044, "pitch": 69, "duration": 2, "velocity": 72}, {"time": 2048, "pitch": 69, "duration": 2, "velocity": 69}, {"time": 2052, "pitch": 67, "duration": 2, "velocity": 71}, {"time": 2056, "pitch": 69, "duration": 3, "velocity": 74}, {"time": 2060, "pitch": 64, "duration": 13, "velocity": 74}, {"time": 2084, "pitch": 76, "duration": 2, "velocity": 73}, {"time": 2088, "pitch": 76, "duration": 2, "velocity": 73}, {"time": 2092, "pitch": 76, "duration": 2, "velocity": 72}, {"time": 2096, "pitch": 76, "duration": 2, "velocity": 75}, {"time": 2100, "pitch": 74, "duration": 2, "velocity": 78}, {"time": 2104, "pitch": 76, "duration": 2, "velocity": 77}, {"time": 2108, "pitch": 69, "duration": 2, "velocity": 69}, {"time": 2112, "pitch": 69, "duration": 2, "velocity": 69}, {"time": 2116, "pitch": 69, "duration": 2, "velocity": 71}, {"time": 2120, "pitch": 69, "duration": 2, "velocity": 69}, {"time": 2124, "pitch": 67, "duration": 2, "velocity": 66}, {"time": 2128, "pitch": 69, "duration": 2, "velocity": 68}, {"time": 2132, "pitch": 69, "duration": 2, "velocity": 70}, {"time": 2136, "pitch": 69, "duration": 2, "velocity": 68}, {"time": 2140, "pitch": 69, "duration": 2, "velocity": 64}, {"time": 2144, "pitch": 69, "duration": 2, "velocity": 67}, {"time": 2148, "pitch": 67, "duration": 2, "velocity": 66}, {"time": 2152, "pitch": 69, "duration": 3, "velocity": 67}, {"time": 2156, "pitch": 71, "duration": 12, "velocity": 74}, {"time": 2180, "pitch": 76, "duration": 9, "velocity": 74}, {"time": 2192, "pitch": 76, "duration": 10, "velocity": 77}, {"time": 2204, "pitch": 74, "duration": 9, "velocity": 77}, {"time": 2216, "pitch": 74, "duration": 2, "velocity": 80}, {"time": 2220, "pitch": 71, "duration": 3, "velocity": 71}, {"time": 2224, "pitch": 67, "duration": 2, "velocity": 62}, {"time": 2228, "pitch": 69, "duration": 2, "velocity": 65}, {"time": 2232, "pitch": 69, "duration": 2, "velocity": 67}, {"time": 2236, "pitch": 69, "duration": 2, "velocity": 66}, {"time": 2240, "pitch": 69, "duration": 3, "velocity": 73}, {"time": 2244, "pitch": 67, "duration": 2, "velocity": 68}, {"time": 2248, "pitch": 69, "duration": 2, "velocity": 73}, {"time": 2252, "pitch": 71, "duration": 5, "velocity": 71}, {"time": 2260, "pitch": 76, "duration": 10, "velocity": 77}, {"time": 2268, "pitch": 64, "duration": 3, "velocity": 76}, {"time": 2272, "pitch": 66, "duration": 3, "velocity": 77}, {"time": 2276, "pitch": 67, "duration": 7, "velocity": 74}, {"time": 2288, "pitch": 71, "duration": 7, "velocity": 75}, {"time": 2300, "pitch": 69, "duration": 8, "velocity": 74}, {"time": 2312, "pitch": 74, "duration": 7, "velocity": 80}, {"time": 2320, "pitch": 71, "duration": 3, "velocity": 69}, {"time": 2324, "pitch": 71, "duration": 7, "velocity": 77}, {"time": 2332, "pitch": 76, "duration": 22, "velocity": 78}, {"time": 2360, "pitch": 79, "duration": 6, "velocity": 74}, {"time": 2368, "pitch": 78, "duration": 3, "velocity": 78}, {"time": 2372, "pitch": 76, "duration": 4, "velocity": 77}, {"time": 2380, "pitch": 76, "duration": 2, "velocity": 74}, {"time": 2384, "pitch": 76, "duration": 5, "velocity": 77}, {"time": 2392, "pitch": 76, "duration": 3, "velocity": 76}, {"time": 2396, "pitch": 78, "duration": 5, "velocity": 74}, {"time": 2404, "pitch": 78, "duration": 3, "velocity": 75}, {"time": 2408, "pitch": 78, "duration": 6, "velocity": 77}, {"time": 2416, "pitch": 76, "duration": 3, "velocity": 75}, {"time": 2420, "pitch": 74, "duration": 5, "velocity": 78}, {"time": 2428, "pitch": 74, "duration": 2, "velocity": 74}, {"time": 2432, "pitch": 71, "duration": 6, "velocity": 75}, {"time": 2440, "pitch": 69, "duration": 2, "velocity": 73}, {"time": 2444, "pitch": 71, "duration": 10, "velocity": 73}, {"time": 2468, "pitch": 67, "duration": 8, "velocity": 76}, {"time": 2480, "pitch": 76, "duration": 9, "velocity": 76}, {"time": 2492, "pitch": 74, "duration": 10, "velocity": 77}, {"time": 2504, "pitch": 71, "duration": 7, "velocity": 75}, {"time": 2512, "pitch": 69, "duration": 3, "velocity": 74}, {"time": 2516, "pitch": 71, "duration": 27, "velocity": 73}, {"time": 2552, "pitch": 79, "duration": 6, "velocity": 74}, {"time": 2560, "pitch": 78, "duration": 3, "velocity": 78}, {"time": 2564, "pitch": 76, "duration": 4, "velocity": 77}, {"time": 2572, "pitch": 76, "duration": 2, "velocity": 74}, {"time": 2576, "pitch": 76, "duration": 5, "velocity": 77}, {"time": 2584, "pitch": 76, "duration": 3, "velocity": 76}, {"time": 2588, "pitch": 78, "duration": 5, "velocity": 74}, {"time": 2596, "pitch": 78, "duration": 3, "velocity": 75}, {"time": 2600, "pitch": 78, "duration": 6, "velocity": 77}, {"time": 2608, "pitch": 76, "duration": 3, "velocity": 75}, {"time": 2612, "pitch": 74, "duration": 5, "velocity": 78}, {"time": 2624, "pitch": 71, "duration": 6, "velocity": 75}, {"time": 2632, "pitch": 74, "duration": 2, "velocity": 73}, {"time": 2636, "pitch": 76, "duration": 10, "velocity": 73}, {"time": 2660, "pitch": 72, "duration": 9, "velocity": 77}, {"time": 2672, "pitch": 79, "duration": 10, "velocity": 67}, {"time": 2684, "pitch": 78, "duration": 11, "velocity": 75}, {"time": 2696, "pitch": 76, "duration": 6, "velocity": 76}, {"time": 2704, "pitch": 74, "duration": 3, "velocity": 77}, {"time": 2708, "pitch": 76, "duration": 28, "velocity": 75}, {"time": 2744, "pitch": 79, "duration": 6, "velocity": 74}, {"time": 2752, "pitch": 78, "duration": 3, "velocity": 78}, {"time": 2756, "pitch": 76, "duration": 4, "velocity": 77}, {"time": 2764, "pitch": 76, "duration": 2, "velocity": 74}, {"time": 2768, "pitch": 76, "duration": 5, "velocity": 77}, {"time": 2776, "pitch": 76, "duration": 3, "velocity": 76}, {"time": 2780, "pitch": 78, "duration": 5, "velocity": 74}, {"time": 2788, "pitch": 78, "duration": 3, "velocity": 75}, {"time": 2792, "pitch": 78, "duration": 6, "velocity": 77}, {"time": 2800, "pitch": 76, "duration": 3, "velocity": 75}, {"time": 2804, "pitch": 74, "duration": 5, "velocity": 78}, {"time": 2812, "pitch": 74, "duration": 2, "velocity": 74}, {"time": 2816, "pitch": 71, "duration": 6, "velocity": 75}, {"time": 2824, "pitch": 69, "duration": 2, "velocity": 73}, {"time": 2828, "pitch": 71, "duration": 10, "velocity": 73}, {"time": 2852, "pitch": 67, "duration": 8, "velocity": 76}, {"time": 2864, "pitch": 76, "duration": 9, "velocity": 76}, {"time": 2876, "pitch": 74, "duration": 10, "velocity": 77}, {"time": 2888, "pitch": 71, "duration": 7, "velocity": 75}, {"time": 2896, "pitch": 69, "duration": 3, "velocity": 74}, {"time": 2900, "pitch": 71, "duration": 27, "velocity": 73}, {"time": 2936, "pitch": 79, "duration": 6, "velocity": 74}, {"time": 2944, "pitch": 78, "duration": 3, "velocity": 78}, {"time": 2948, "pitch": 76, "duration": 4, "velocity": 77}, {"time": 2956, "pitch": 76, "duration": 2, "velocity": 74}, {"time": 2960, "pitch": 76, "duration": 5, "velocity": 77}, {"time": 2968, "pitch": 76, "duration": 3, "velocity": 76}, {"time": 2972, "pitch": 78, "duration": 5, "velocity": 74}, {"time": 2980, "pitch": 78, "duration": 3, "velocity": 75}, {"time": 2984, "pitch": 78, "duration": 6, "velocity": 77}, {"time": 2992, "pitch": 76, "duration": 3, "velocity": 75}, {"time": 2996, "pitch": 74, "duration": 5, "velocity": 78}, {"time": 3008, "pitch": 71, "duration": 6, "velocity": 75}, {"time": 3016, "pitch": 74, "duration": 2, "velocity": 73}, {"time": 3020, "pitch": 76, "duration": 10, "velocity": 73}, {"time": 3044, "pitch": 72, "duration": 9, "velocity": 77}, {"time": 3056, "pitch": 79, "duration": 10, "velocity": 67}, {"time": 3068, "pitch": 78, "duration": 11, "velocity": 75}, {"time": 3080, "pitch": 76, "duration": 6, "velocity": 76}, {"time": 3088, "pitch": 74, "duration": 3, "velocity": 77}, {"time": 3092, "pitch": 76, "duration": 28, "velocity": 75}, {"time": 3140, "pitch": 72, "duration": 9, "velocity": 77}, {"time": 3152, "pitch": 79, "duration": 10, "velocity": 67}, {"time": 3164, "pitch": 78, "duration": 11, "velocity": 75}, {"time": 3176, "pitch": 76, "duration": 6, "velocity": 76}, {"time": 3184, "pitch": 74, "duration": 3, "velocity": 77}, {"time": 3188, "pitch": 76, "duration": 28, "velocity": 75}]}, {"program": 0, "is_drum": false, "name": "BRIDGE", "notes": [{"time": 7, "pitch": 71, "duration": 9, "velocity": 84}, {"time": 16, "pitch": 76, "duration": 37, "velocity": 87}, {"time": 55, "pitch": 73, "duration": 2, "velocity": 79}, {"time": 56, "pitch": 74, "duration": 7, "velocity": 79}, {"time": 64, "pitch": 73, "duration": 18, "velocity": 87}, {"time": 80, "pitch": 69, "duration": 8, "velocity": 87}, {"time": 88, "pitch": 64, "duration": 20, "velocity": 80}, {"time": 111, "pitch": 64, "duration": 5, "velocity": 80}, {"time": 115, "pitch": 70, "duration": 2, "velocity": 59}, {"time": 116, "pitch": 71, "duration": 22, "velocity": 78}, {"time": 151, "pitch": 66, "duration": 2, "velocity": 75}, {"time": 152, "pitch": 67, "duration": 9, "velocity": 66}, {"time": 160, "pitch": 66, "duration": 22, "velocity": 80}, {"time": 180, "pitch": 64, "duration": 4, "velocity": 80}, {"time": 184, "pitch": 69, "duration": 15, "velocity": 66}, {"time": 198, "pitch": 69, "duration": 1, "velocity": 63}, {"time": 199, "pitch": 71, "duration": 5, "velocity": 76}, {"time": 204, "pitch": 74, "duration": 4, "velocity": 79}, {"time": 208, "pitch": 76, "duration": 4, "velocity": 74}, {"time": 212, "pitch": 79, "duration": 8, "velocity": 76}, {"time": 221, "pitch": 74, "duration": 1, "velocity": 72}, {"time": 222, "pitch": 76, "duration": 22, "velocity": 74}, {"time": 247, "pitch": 69, "duration": 2, "velocity": 65}, {"time": 248, "pitch": 71, "duration": 4, "velocity": 74}, {"time": 251, "pitch": 74, "duration": 4, "velocity": 75}, {"time": 256, "pitch": 76, "duration": 2, "velocity": 77}, {"time": 260, "pitch": 81, "duration": 1, "velocity": 84}, {"time": 260, "pitch": 83, "duration": 6, "velocity": 59}, {"time": 268, "pitch": 81, "duration": 7, "velocity": 80}, {"time": 276, "pitch": 79, "duration": 3, "velocity": 80}, {"time": 280, "pitch": 76, "duration": 1, "velocity": 80}, {"time": 283, "pitch": 81, "duration": 2, "velocity": 84}, {"time": 284, "pitch": 83, "duration": 6, "velocity": 66}, {"time": 291, "pitch": 81, "duration": 8, "velocity": 80}, {"time": 299, "pitch": 74, "duration": 3, "velocity": 79}, {"time": 303, "pitch": 76, "duration": 2, "velocity": 78}, {"time": 307, "pitch": 79, "duration": 7, "velocity": 80}, {"time": 315, "pitch": 76, "duration": 7, "velocity": 87}, {"time": 328, "pitch": 71, "duration": 4, "velocity": 84}, {"time": 332, "pitch": 79, "duration": 10, "velocity": 87}, {"time": 343, "pitch": 74, "duration": 1, "velocity": 76}, {"time": 344, "pitch": 76, "duration": 4, "velocity": 77}, {"time": 347, "pitch": 74, "duration": 3, "velocity": 87}, {"time": 351, "pitch": 71, "duration": 3, "velocity": 84}, {"time": 356, "pitch": 70, "duration": 1, "velocity": 76}, {"time": 356, "pitch": 69, "duration": 17, "velocity": 71}, {"time": 375, "pitch": 67, "duration": 5, "velocity": 70}, {"time": 379, "pitch": 69, "duration": 2, "velocity": 56}, {"time": 380, "pitch": 71, "duration": 22, "velocity": 76}, {"time": 480, "pitch": 67, "duration": 4, "velocity": 73}, {"time": 484, "pitch": 64, "duration": 4, "velocity": 74}, {"time": 488, "pitch": 67, "duration": 8, "velocity": 70}, {"time": 496, "pitch": 64, "duration": 6, "velocity": 70}, {"time": 588, "pitch": 74, "duration": 5, "velocity": 74}, {"time": 592, "pitch": 71, "duration": 5, "velocity": 65}, {"time": 596, "pitch": 76, "duration": 19, "velocity": 73}, {"time": 744, "pitch": 76, "duration": 4, "velocity": 73}, {"time": 748, "pitch": 78, "duration": 4, "velocity": 82}, {"time": 752, "pitch": 83, "duration": 5, "velocity": 80}, {"time": 756, "pitch": 76, "duration": 4, "velocity": 80}, {"time": 760, "pitch": 78, "duration": 4, "velocity": 78}, {"time": 764, "pitch": 69, "duration": 20, "velocity": 65}, {"time": 764, "pitch": 71, "duration": 20, "velocity": 65}, {"time": 764, "pitch": 75, "duration": 21, "velocity": 79}, {"time": 804, "pitch": 71, "duration": 4, "velocity": 75}, {"time": 808, "pitch": 76, "duration": 4, "velocity": 73}, {"time": 812, "pitch": 74, "duration": 21, "velocity": 74}, {"time": 868, "pitch": 71, "duration": 5, "velocity": 65}, {"time": 872, "pitch": 74, "duration": 4, "velocity": 76}, {"time": 876, "pitch": 71, "duration": 5, "velocity": 70}, {"time": 880, "pitch": 74, "duration": 4, "velocity": 73}, {"time": 884, "pitch": 76, "duration": 18, "velocity": 73}, {"time": 960, "pitch": 69, "duration": 4, "velocity": 51}, {"time": 964, "pitch": 71, "duration": 4, "velocity": 73}, {"time": 968, "pitch": 74, "duration": 9, "velocity": 87}, {"time": 976, "pitch": 71, "duration": 4, "velocity": 62}, {"time": 980, "pitch": 76, "duration": 20, "velocity": 73}, {"time": 1064, "pitch": 79, "duration": 5, "velocity": 79}, {"time": 1068, "pitch": 76, "duration": 4, "velocity": 74}, {"time": 1072, "pitch": 74, "duration": 4, "velocity": 74}, {"time": 1076, "pitch": 76, "duration": 20, "velocity": 70}, {"time": 1140, "pitch": 74, "duration": 4, "velocity": 75}, {"time": 1144, "pitch": 71, "duration": 4, "velocity": 70}, {"time": 1148, "pitch": 76, "duration": 4, "velocity": 74}, {"time": 1172, "pitch": 72, "duration": 21, "velocity": 70}, {"time": 1172, "pitch": 76, "duration": 21, "velocity": 76}, {"time": 1196, "pitch": 69, "duration": 21, "velocity": 68}, {"time": 1196, "pitch": 74, "duration": 21, "velocity": 74}, {"time": 1216, "pitch": 72, "duration": 4, "velocity": 66}, {"time": 1220, "pitch": 67, "duration": 15, "velocity": 66}, {"time": 1220, "pitch": 71, "duration": 17, "velocity": 69}, {"time": 1236, "pitch": 69, "duration": 5, "velocity": 65}, {"time": 1240, "pitch": 67, "duration": 3, "velocity": 67}, {"time": 1244, "pitch": 67, "duration": 17, "velocity": 73}, {"time": 1244, "pitch": 71, "duration": 18, "velocity": 74}, {"time": 1268, "pitch": 72, "duration": 21, "velocity": 64}, {"time": 1268, "pitch": 76, "duration": 21, "velocity": 65}, {"time": 1292, "pitch": 74, "duration": 10, "velocity": 73}, {"time": 1292, "pitch": 78, "duration": 10, "velocity": 68}, {"time": 1304, "pitch": 71, "duration": 8, "velocity": 69}, {"time": 1304, "pitch": 74, "duration": 9, "velocity": 73}, {"time": 1316, "pitch": 67, "duration": 24, "velocity": 63}, {"time": 1316, "pitch": 71, "duration": 25, "velocity": 68}, {"time": 1352, "pitch": 71, "duration": 5, "velocity": 74}, {"time": 1356, "pitch": 69, "duration": 4, "velocity": 64}, {"time": 1360, "pitch": 67, "duration": 2, "velocity": 66}, {"time": 1364, "pitch": 67, "duration": 17, "velocity": 73}, {"time": 1364, "pitch": 72, "duration": 18, "velocity": 73}, {"time": 1384, "pitch": 67, "duration": 3, "velocity": 63}, {"time": 1384, "pitch": 72, "duration": 3, "velocity": 66}, {"time": 1388, "pitch": 69, "duration": 20, "velocity": 69}, {"time": 1388, "pitch": 74, "duration": 22, "velocity": 73}, {"time": 1412, "pitch": 67, "duration": 18, "velocity": 65}, {"time": 1412, "pitch": 71, "duration": 18, "velocity": 67}, {"time": 1432, "pitch": 74, "duration": 2, "velocity": 78}, {"time": 1436, "pitch": 76, "duration": 13, "velocity": 75}, {"time": 1452, "pitch": 71, "duration": 4, "velocity": 68}, {"time": 1456, "pitch": 69, "duration": 4, "velocity": 65}, {"time": 1460, "pitch": 67, "duration": 21, "velocity": 69}, {"time": 1484, "pitch": 69, "duration": 14, "velocity": 69}, {"time": 1484, "pitch": 74, "duration": 14, "velocity": 73}, {"time": 1500, "pitch": 71, "duration": 4, "velocity": 68}, {"time": 1504, "pitch": 74, "duration": 3, "velocity": 74}, {"time": 1508, "pitch": 76, "duration": 16, "velocity": 76}, {"time": 1524, "pitch": 74, "duration": 5, "velocity": 73}, {"time": 1528, "pitch": 71, "duration": 4, "velocity": 70}, {"time": 1532, "pitch": 76, "duration": 4, "velocity": 75}, {"time": 1540, "pitch": 71, "duration": 4, "velocity": 80}, {"time": 1544, "pitch": 74, "duration": 4, "velocity": 90}, {"time": 1548, "pitch": 76, "duration": 4, "velocity": 78}, {"time": 1552, "pitch": 71, "duration": 2, "velocity": 73}, {"time": 1556, "pitch": 79, "duration": 8, "velocity": 76}, {"time": 1564, "pitch": 76, "duration": 16, "velocity": 80}, {"time": 1596, "pitch": 83, "duration": 4, "velocity": 79}, {"time": 1599, "pitch": 86, "duration": 4, "velocity": 82}, {"time": 1604, "pitch": 85, "duration": 14, "velocity": 87}, {"time": 1619, "pitch": 83, "duration": 2, "velocity": 80}, {"time": 1623, "pitch": 86, "duration": 2, "velocity": 80}, {"time": 1626, "pitch": 85, "duration": 4, "velocity": 87}, {"time": 1630, "pitch": 83, "duration": 3, "velocity": 80}, {"time": 1633, "pitch": 81, "duration": 2, "velocity": 76}, {"time": 1635, "pitch": 83, "duration": 2, "velocity": 71}, {"time": 1637, "pitch": 81, "duration": 7, "velocity": 65}, {"time": 1644, "pitch": 79, "duration": 2, "velocity": 56}, {"time": 1646, "pitch": 81, "duration": 3, "velocity": 75}, {"time": 1649, "pitch": 79, "duration": 2, "velocity": 75}, {"time": 1652, "pitch": 81, "duration": 5, "velocity": 74}, {"time": 1657, "pitch": 79, "duration": 3, "velocity": 77}, {"time": 1661, "pitch": 76, "duration": 15, "velocity": 75}, {"time": 1680, "pitch": 76, "duration": 3, "velocity": 77}, {"time": 1684, "pitch": 79, "duration": 2, "velocity": 75}, {"time": 1688, "pitch": 79, "duration": 7, "velocity": 79}, {"time": 1696, "pitch": 79, "duration": 2, "velocity": 80}, {"time": 1700, "pitch": 81, "duration": 2, "velocity": 78}, {"time": 1702, "pitch": 82, "duration": 2, "velocity": 79}, {"time": 1705, "pitch": 81, "duration": 2, "velocity": 50}, {"time": 1706, "pitch": 79, "duration": 2, "velocity": 71}, {"time": 1709, "pitch": 81, "duration": 2, "velocity": 74}, {"time": 1712, "pitch": 81, "duration": 7, "velocity": 77}, {"time": 1721, "pitch": 81, "duration": 2, "velocity": 82}, {"time": 1723, "pitch": 82, "duration": 1, "velocity": 75}, {"time": 1724, "pitch": 81, "duration": 12, "velocity": 70}, {"time": 1734, "pitch": 69, "duration": 1, "velocity": 57}, {"time": 1734, "pitch": 70, "duration": 2, "velocity": 61}, {"time": 1736, "pitch": 71, "duration": 2, "velocity": 74}, {"time": 1740, "pitch": 71, "duration": 4, "velocity": 82}, {"time": 1744, "pitch": 76, "duration": 3, "velocity": 78}, {"time": 1748, "pitch": 76, "duration": 15, "velocity": 84}, {"time": 1767, "pitch": 74, "duration": 4, "velocity": 80}, {"time": 1772, "pitch": 74, "duration": 20, "velocity": 87}, {"time": 1802, "pitch": 75, "duration": 2, "velocity": 72}, {"time": 1804, "pitch": 76, "duration": 4, "velocity": 75}, {"time": 1808, "pitch": 71, "duration": 4, "velocity": 82}, {"time": 1812, "pitch": 69, "duration": 4, "velocity": 75}, {"time": 1817, "pitch": 71, "duration": 2, "velocity": 75}, {"time": 1821, "pitch": 71, "duration": 7, "velocity": 74}, {"time": 1828, "pitch": 67, "duration": 4, "velocity": 68}, {"time": 1832, "pitch": 71, "duration": 4, "velocity": 75}, {"time": 1835, "pitch": 69, "duration": 4, "velocity": 75}, {"time": 1839, "pitch": 67, "duration": 12, "velocity": 73}, {"time": 1852, "pitch": 68, "duration": 3, "velocity": 77}, {"time": 1852, "pitch": 69, "duration": 7, "velocity": 73}, {"time": 1863, "pitch": 69, "duration": 3, "velocity": 76}, {"time": 1867, "pitch": 69, "duration": 7, "velocity": 77}, {"time": 1876, "pitch": 64, "duration": 10, "velocity": 77}, {"time": 1887, "pitch": 74, "duration": 3, "velocity": 84}, {"time": 1892, "pitch": 75, "duration": 1, "velocity": 84}, {"time": 1893, "pitch": 76, "duration": 27, "velocity": 74}, {"time": 1939, "pitch": 74, "duration": 3, "velocity": 76}, {"time": 1939, "pitch": 76, "duration": 29, "velocity": 77}, {"time": 2004, "pitch": 71, "duration": 4, "velocity": 75}, {"time": 2008, "pitch": 76, "duration": 4, "velocity": 73}, {"time": 2012, "pitch": 74, "duration": 21, "velocity": 74}, {"time": 2068, "pitch": 71, "duration": 5, "velocity": 65}, {"time": 2072, "pitch": 74, "duration": 4, "velocity": 76}, {"time": 2076, "pitch": 71, "duration": 5, "velocity": 70}, {"time": 2080, "pitch": 74, "duration": 4, "velocity": 73}, {"time": 2084, "pitch": 76, "duration": 18, "velocity": 73}, {"time": 2160, "pitch": 69, "duration": 4, "velocity": 51}, {"time": 2164, "pitch": 71, "duration": 4, "velocity": 73}, {"time": 2168, "pitch": 74, "duration": 9, "velocity": 87}, {"time": 2176, "pitch": 71, "duration": 4, "velocity": 62}, {"time": 2180, "pitch": 76, "duration": 20, "velocity": 73}, {"time": 2264, "pitch": 79, "duration": 5, "velocity": 79}, {"time": 2268, "pitch": 76, "duration": 4, "velocity": 74}, {"time": 2272, "pitch": 74, "duration": 4, "velocity": 74}, {"time": 2276, "pitch": 76, "duration": 20, "velocity": 70}, {"time": 2340, "pitch": 74, "duration": 4, "velocity": 75}, {"time": 2344, "pitch": 71, "duration": 4, "velocity": 70}, {"time": 2348, "pitch": 76, "duration": 4, "velocity": 74}, {"time": 2372, "pitch": 72, "duration": 21, "velocity": 70}, {"time": 2372, "pitch": 76, "duration": 21, "velocity": 76}, {"time": 2396, "pitch": 69, "duration": 21, "velocity": 68}, {"time": 2396, "pitch": 74, "duration": 21, "velocity": 74}, {"time": 2416, "pitch": 72, "duration": 4, "velocity": 66}, {"time": 2420, "pitch": 67, "duration": 15, "velocity": 66}, {"time": 2420, "pitch": 71, "duration": 17, "velocity": 69}, {"time": 2436, "pitch": 69, "duration": 5, "velocity": 65}, {"time": 2440, "pitch": 67, "duration": 3, "velocity": 67}, {"time": 2444, "pitch": 67, "duration": 17, "velocity": 73}, {"time": 2444, "pitch": 71, "duration": 18, "velocity": 74}, {"time": 2468, "pitch": 72, "duration": 21, "velocity": 64}, {"time": 2468, "pitch": 76, "duration": 21, "velocity": 65}, {"time": 2492, "pitch": 74, "duration": 10, "velocity": 73}, {"time": 2492, "pitch": 78, "duration": 10, "velocity": 68}, {"time": 2504, "pitch": 71, "duration": 8, "velocity": 69}, {"time": 2504, "pitch": 74, "duration": 9, "velocity": 73}, {"time": 2516, "pitch": 67, "duration": 24, "velocity": 63}, {"time": 2516, "pitch": 71, "duration": 25, "velocity": 68}, {"time": 2552, "pitch": 71, "duration": 5, "velocity": 74}, {"time": 2556, "pitch": 69, "duration": 4, "velocity": 64}, {"time": 2560, "pitch": 67, "duration": 2, "velocity": 66}, {"time": 2564, "pitch": 67, "duration": 17, "velocity": 73}, {"time": 2564, "pitch": 72, "duration": 18, "velocity": 73}, {"time": 2584, "pitch": 67, "duration": 3, "velocity": 63}, {"time": 2584, "pitch": 72, "duration": 3, "velocity": 66}, {"time": 2588, "pitch": 69, "duration": 20, "velocity": 69}, {"time": 2588, "pitch": 74, "duration": 22, "velocity": 73}, {"time": 2612, "pitch": 67, "duration": 18, "velocity": 65}, {"time": 2612, "pitch": 71, "duration": 18, "velocity": 67}, {"time": 2632, "pitch": 74, "duration": 2, "velocity": 78}, {"time": 2636, "pitch": 76, "duration": 13, "velocity": 75}, {"time": 2652, "pitch": 71, "duration": 4, "velocity": 68}, {"time": 2656, "pitch": 69, "duration": 4, "velocity": 65}, {"time": 2660, "pitch": 67, "duration": 21, "velocity": 69}, {"time": 2684, "pitch": 69, "duration": 14, "velocity": 69}, {"time": 2684, "pitch": 74, "duration": 14, "velocity": 73}, {"time": 2700, "pitch": 71, "duration": 4, "velocity": 68}, {"time": 2704, "pitch": 74, "duration": 3, "velocity": 74}, {"time": 2708, "pitch": 76, "duration": 16, "velocity": 76}, {"time": 2724, "pitch": 74, "duration": 5, "velocity": 73}, {"time": 2728, "pitch": 71, "duration": 4, "velocity": 70}, {"time": 2732, "pitch": 76, "duration": 4, "velocity": 75}, {"time": 2756, "pitch": 72, "duration": 21, "velocity": 70}, {"time": 2756, "pitch": 76, "duration": 21, "velocity": 76}, {"time": 2780, "pitch": 69, "duration": 21, "velocity": 68}, {"time": 2780, "pitch": 74, "duration": 21, "velocity": 74}, {"time": 2800, "pitch": 72, "duration": 4, "velocity": 66}, {"time": 2804, "pitch": 67, "duration": 15, "velocity": 66}, {"time": 2804, "pitch": 71, "duration": 17, "velocity": 69}, {"time": 2820, "pitch": 69, "duration": 5, "velocity": 65}, {"time": 2824, "pitch": 67, "duration": 3, "velocity": 67}, {"time": 2828, "pitch": 67, "duration": 17, "velocity": 73}, {"time": 2828, "pitch": 71, "duration": 18, "velocity": 74}, {"time": 2852, "pitch": 72, "duration": 21, "velocity": 64}, {"time": 2852, "pitch": 76, "duration": 21, "velocity": 65}, {"time": 2876, "pitch": 74, "duration": 10, "velocity": 73}, {"time": 2876, "pitch": 78, "duration": 10, "velocity": 68}, {"time": 2888, "pitch": 71, "duration": 8, "velocity": 69}, {"time": 2888, "pitch": 74, "duration": 9, "velocity": 73}, {"time": 2900, "pitch": 67, "duration": 24, "velocity": 63}, {"time": 2900, "pitch": 71, "duration": 25, "velocity": 68}, {"time": 2936, "pitch": 71, "duration": 5, "velocity": 74}, {"time": 2940, "pitch": 69, "duration": 4, "velocity": 64}, {"time": 2944, "pitch": 67, "duration": 2, "velocity": 66}, {"time": 2948, "pitch": 67, "duration": 17, "velocity": 73}, {"time": 2948, "pitch": 72, "duration": 18, "velocity": 73}, {"time": 2968, "pitch": 67, "duration": 3, "velocity": 63}, {"time": 2968, "pitch": 72, "duration": 3, "velocity": 66}, {"time": 2972, "pitch": 69, "duration": 20, "velocity": 69}, {"time": 2972, "pitch": 74, "duration": 22, "velocity": 73}, {"time": 2996, "pitch": 67, "duration": 18, "velocity": 65}, {"time": 2996, "pitch": 71, "duration": 18, "velocity": 67}, {"time": 3016, "pitch": 74, "duration": 2, "velocity": 78}, {"time": 3020, "pitch": 76, "duration": 13, "velocity": 75}, {"time": 3036, "pitch": 71, "duration": 4, "velocity": 68}, {"time": 3040, "pitch": 69, "duration": 4, "velocity": 65}, {"time": 3044, "pitch": 67, "duration": 21, "velocity": 69}, {"time": 3068, "pitch": 69, "duration": 14, "velocity": 69}, {"time": 3068, "pitch": 74, "duration": 14, "velocity": 73}, {"time": 3084, "pitch": 71, "duration": 4, "velocity": 68}, {"time": 3088, "pitch": 74, "duration": 3, "velocity": 74}, {"time": 3092, "pitch": 76, "duration": 16, "velocity": 76}, {"time": 3108, "pitch": 74, "duration": 5, "velocity": 73}, {"time": 3112, "pitch": 71, "duration": 4, "velocity": 70}, {"time": 3116, "pitch": 76, "duration": 4, "velocity": 75}, {"time": 3164, "pitch": 74, "duration": 16, "velocity": 73}, {"time": 3164, "pitch": 78, "duration": 18, "velocity": 73}, {"time": 3180, "pitch": 76, "duration": 4, "velocity": 78}, {"time": 3184, "pitch": 74, "duration": 3, "velocity": 76}, {"time": 3188, "pitch": 76, "duration": 44, "velocity": 79}, {"time": 3220, "pitch": 71, "duration": 4, "velocity": 80}, {"time": 3224, "pitch": 74, "duration": 4, "velocity": 90}, {"time": 3228, "pitch": 76, "duration": 4, "velocity": 78}, {"time": 3232, "pitch": 71, "duration": 2, "velocity": 73}, {"time": 3236, "pitch": 79, "duration": 8, "velocity": 76}, {"time": 3244, "pitch": 76, "duration": 16, "velocity": 80}, {"time": 3276, "pitch": 83, "duration": 4, "velocity": 79}, {"time": 3279, "pitch": 86, "duration": 4, "velocity": 82}, {"time": 3284, "pitch": 85, "duration": 14, "velocity": 87}, {"time": 3299, "pitch": 83, "duration": 2, "velocity": 80}, {"time": 3303, "pitch": 86, "duration": 2, "velocity": 80}, {"time": 3306, "pitch": 85, "duration": 4, "velocity": 87}, {"time": 3310, "pitch": 83, "duration": 3, "velocity": 80}, {"time": 3313, "pitch": 81, "duration": 2, "velocity": 76}, {"time": 3315, "pitch": 83, "duration": 2, "velocity": 71}, {"time": 3317, "pitch": 81, "duration": 7, "velocity": 65}, {"time": 3324, "pitch": 79, "duration": 2, "velocity": 56}, {"time": 3326, "pitch": 81, "duration": 3, "velocity": 75}, {"time": 3329, "pitch": 79, "duration": 2, "velocity": 75}, {"time": 3332, "pitch": 81, "duration": 5, "velocity": 74}, {"time": 3337, "pitch": 79, "duration": 3, "velocity": 77}, {"time": 3341, "pitch": 76, "duration": 15, "velocity": 75}, {"time": 3360, "pitch": 76, "duration": 3, "velocity": 77}, {"time": 3364, "pitch": 79, "duration": 2, "velocity": 75}, {"time": 3368, "pitch": 79, "duration": 7, "velocity": 79}, {"time": 3376, "pitch": 79, "duration": 2, "velocity": 80}, {"time": 3380, "pitch": 81, "duration": 2, "velocity": 78}, {"time": 3382, "pitch": 82, "duration": 2, "velocity": 79}, {"time": 3385, "pitch": 81, "duration": 2, "velocity": 50}, {"time": 3386, "pitch": 79, "duration": 2, "velocity": 71}, {"time": 3389, "pitch": 81, "duration": 2, "velocity": 74}, {"time": 3392, "pitch": 81, "duration": 7, "velocity": 77}, {"time": 3401, "pitch": 81, "duration": 2, "velocity": 82}, {"time": 3403, "pitch": 82, "duration": 1, "velocity": 75}, {"time": 3404, "pitch": 81, "duration": 12, "velocity": 70}, {"time": 3414, "pitch": 69, "duration": 1, "velocity": 57}, {"time": 3414, "pitch": 70, "duration": 2, "velocity": 61}, {"time": 3416, "pitch": 71, "duration": 2, "velocity": 74}, {"time": 3420, "pitch": 71, "duration": 4, "velocity": 82}, {"time": 3424, "pitch": 76, "duration": 3, "velocity": 78}, {"time": 3428, "pitch": 76, "duration": 15, "velocity": 84}, {"time": 3447, "pitch": 74, "duration": 4, "velocity": 80}, {"time": 3452, "pitch": 74, "duration": 20, "velocity": 87}, {"time": 3482, "pitch": 75, "duration": 2, "velocity": 72}, {"time": 3484, "pitch": 76, "duration": 4, "velocity": 75}, {"time": 3488, "pitch": 71, "duration": 4, "velocity": 82}, {"time": 3492, "pitch": 69, "duration": 4, "velocity": 75}, {"time": 3497, "pitch": 71, "duration": 2, "velocity": 75}, {"time": 3501, "pitch": 71, "duration": 7, "velocity": 74}, {"time": 3508, "pitch": 67, "duration": 4, "velocity": 68}, {"time": 3512, "pitch": 71, "duration": 4, "velocity": 75}, {"time": 3515, "pitch": 69, "duration": 4, "velocity": 75}, {"time": 3519, "pitch": 67, "duration": 12, "velocity": 73}, {"time": 3532, "pitch": 68, "duration": 3, "velocity": 77}, {"time": 3532, "pitch": 69, "duration": 7, "velocity": 73}, {"time": 3543, "pitch": 69, "duration": 3, "velocity": 76}, {"time": 3547, "pitch": 69, "duration": 7, "velocity": 77}, {"time": 3556, "pitch": 64, "duration": 10, "velocity": 77}, {"time": 3567, "pitch": 74, "duration": 3, "velocity": 84}, {"time": 3572, "pitch": 75, "duration": 1, "velocity": 84}, {"time": 3573, "pitch": 76, "duration": 27, "velocity": 74}]}, {"program": 0, "is_drum": false, "name": "PIANO", "notes": [{"time": 18, "pitch": 52, "duration": 4, "velocity": 60}, {"time": 19, "pitch": 55, "duration": 3, "velocity": 67}, {"time": 20, "pitch": 59, "duration": 2, "velocity": 61}, {"time": 20, "pitch": 40, "duration": 33, "velocity": 75}, {"time": 20, "pitch": 64, "duration": 7, "velocity": 72}, {"time": 36, "pitch": 59, "duration": 2, "velocity": 68}, {"time": 36, "pitch": 52, "duration": 2, "velocity": 73}, {"time": 40, "pitch": 52, "duration": 1, "velocity": 59}, {"time": 44, "pitch": 55, "duration": 8, "velocity": 54}, {"time": 44, "pitch": 52, "duration": 7, "velocity": 64}, {"time": 65, "pitch": 69, "duration": 7, "velocity": 53}, {"time": 65, "pitch": 64, "duration": 8, "velocity": 68}, {"time": 66, "pitch": 61, "duration": 7, "velocity": 53}, {"time": 67, "pitch": 57, "duration": 6, "velocity": 61}, {"time": 67, "pitch": 52, "duration": 36, "velocity": 67}, {"time": 68, "pitch": 45, "duration": 37, "velocity": 66}, {"time": 83, "pitch": 64, "duration": 2, "velocity": 73}, {"time": 83, "pitch": 57, "duration": 3, "velocity": 72}, {"time": 91, "pitch": 69, "duration": 3, "velocity": 68}, {"time": 91, "pitch": 57, "duration": 3, "velocity": 71}, {"time": 92, "pitch": 61, "duration": 1, "velocity": 55}, {"time": 99, "pitch": 64, "duration": 2, "velocity": 73}, {"time": 99, "pitch": 57, "duration": 3, "velocity": 66}, {"time": 114, "pitch": 55, "duration": 4, "velocity": 55}, {"time": 115, "pitch": 60, "duration": 4, "velocity": 65}, {"time": 115, "pitch": 36, "duration": 2, "velocity": 69}, {"time": 115, "pitch": 64, "duration": 6, "velocity": 74}, {"time": 128, "pitch": 67, "duration": 1, "velocity": 71}, {"time": 128, "pitch": 60, "duration": 1, "velocity": 74}, {"time": 138, "pitch": 62, "duration": 2, "velocity": 57}, {"time": 139, "pitch": 66, "duration": 2, "velocity": 65}, {"time": 139, "pitch": 69, "duration": 5, "velocity": 53}, {"time": 140, "pitch": 74, "duration": 5, "velocity": 74}, {"time": 140, "pitch": 38, "duration": 12, "velocity": 75}, {"time": 148, "pitch": 62, "duration": 1, "velocity": 62}, {"time": 152, "pitch": 66, "duration": 2, "velocity": 74}, {"time": 152, "pitch": 69, "duration": 3, "velocity": 74}, {"time": 152, "pitch": 62, "duration": 2, "velocity": 74}, {"time": 164, "pitch": 40, "duration": 13, "velocity": 74}, {"time": 164, "pitch": 64, "duration": 2, "velocity": 66}, {"time": 164, "pitch": 67, "duration": 2, "velocity": 65}, {"time": 172, "pitch": 52, "duration": 1, "velocity": 65}, {"time": 176, "pitch": 55, "duration": 3, "velocity": 76}, {"time": 176, "pitch": 52, "duration": 3, "velocity": 79}, {"time": 187, "pitch": 55, "duration": 16, "velocity": 77}, {"time": 187, "pitch": 64, "duration": 16, "velocity": 75}, {"time": 187, "pitch": 59, "duration": 16, "velocity": 75}, {"time": 187, "pitch": 52, "duration": 16, "velocity": 75}, {"time": 212, "pitch": 40, "duration": 27, "velocity": 74}, {"time": 212, "pitch": 52, "duration": 4, "velocity": 73}, {"time": 212, "pitch": 55, "duration": 4, "velocity": 68}, {"time": 212, "pitch": 59, "duration": 4, "velocity": 69}, {"time": 224, "pitch": 52, "duration": 2, "velocity": 74}, {"time": 224, "pitch": 55, "duration": 2, "velocity": 75}, {"time": 224, "pitch": 59, "duration": 3, "velocity": 74}, {"time": 232, "pitch": 47, "duration": 7, "velocity": 71}, {"time": 236, "pitch": 52, "duration": 3, "velocity": 74}, {"time": 236, "pitch": 55, "duration": 2, "velocity": 74}, {"time": 236, "pitch": 59, "duration": 3, "velocity": 74}, {"time": 244, "pitch": 40, "duration": 10, "velocity": 56}, {"time": 248, "pitch": 52, "duration": 4, "velocity": 79}, {"time": 248, "pitch": 55, "duration": 4, "velocity": 79}, {"time": 248, "pitch": 59, "duration": 4, "velocity": 77}, {"time": 252, "pitch": 47, "duration": 3, "velocity": 71}, {"time": 256, "pitch": 52, "duration": 2, "velocity": 74}, {"time": 260, "pitch": 45, "duration": 4, "velocity": 69}, {"time": 260, "pitch": 52, "duration": 2, "velocity": 74}, {"time": 260, "pitch": 57, "duration": 3, "velocity": 67}, {"time": 268, "pitch": 45, "duration": 5, "velocity": 53}, {"time": 272, "pitch": 52, "duration": 2, "velocity": 75}, {"time": 272, "pitch": 57, "duration": 2, "velocity": 71}, {"time": 272, "pitch": 61, "duration": 2, "velocity": 74}, {"time": 280, "pitch": 45, "duration": 8, "velocity": 67}, {"time": 284, "pitch": 52, "duration": 8, "velocity": 75}, {"time": 284, "pitch": 57, "duration": 9, "velocity": 74}, {"time": 292, "pitch": 45, "duration": 4, "velocity": 60}, {"time": 296, "pitch": 52, "duration": 2, "velocity": 82}, {"time": 296, "pitch": 57, "duration": 2, "velocity": 79}, {"time": 296, "pitch": 61, "duration": 2, "velocity": 79}, {"time": 308, "pitch": 48, "duration": 13, "velocity": 76}, {"time": 308, "pitch": 55, "duration": 5, "velocity": 68}, {"time": 308, "pitch": 60, "duration": 9, "velocity": 68}, {"time": 308, "pitch": 64, "duration": 7, "velocity": 73}, {"time": 316, "pitch": 55, "duration": 1, "velocity": 51}, {"time": 320, "pitch": 55, "duration": 2, "velocity": 77}, {"time": 320, "pitch": 60, "duration": 2, "velocity": 79}, {"time": 320, "pitch": 64, "duration": 2, "velocity": 80}, {"time": 332, "pitch": 43, "duration": 9, "velocity": 64}, {"time": 336, "pitch": 55, "duration": 5, "velocity": 66}, {"time": 340, "pitch": 60, "duration": 2, "velocity": 74}, {"time": 344, "pitch": 48, "duration": 2, "velocity": 89}, {"time": 344, "pitch": 55, "duration": 3, "velocity": 77}, {"time": 344, "pitch": 60, "duration": 4, "velocity": 82}, {"time": 344, "pitch": 64, "duration": 5, "velocity": 82}, {"time": 356, "pitch": 47, "duration": 2, "velocity": 74}, {"time": 360, "pitch": 59, "duration": 2, "velocity": 62}, {"time": 360, "pitch": 63, "duration": 1, "velocity": 53}, {"time": 364, "pitch": 47, "duration": 2, "velocity": 70}, {"time": 364, "pitch": 59, "duration": 1, "velocity": 60}, {"time": 364, "pitch": 63, "duration": 1, "velocity": 58}, {"time": 364, "pitch": 66, "duration": 1, "velocity": 59}, {"time": 368, "pitch": 47, "duration": 2, "velocity": 74}, {"time": 368, "pitch": 59, "duration": 2, "velocity": 65}, {"time": 368, "pitch": 63, "duration": 2, "velocity": 60}, {"time": 368, "pitch": 66, "duration": 2, "velocity": 61}, {"time": 372, "pitch": 47, "duration": 2, "velocity": 74}, {"time": 372, "pitch": 59, "duration": 1, "velocity": 74}, {"time": 372, "pitch": 63, "duration": 1, "velocity": 73}, {"time": 372, "pitch": 66, "duration": 2, "velocity": 68}, {"time": 372, "pitch": 69, "duration": 2, "velocity": 73}, {"time": 376, "pitch": 47, "duration": 2, "velocity": 75}, {"time": 376, "pitch": 59, "duration": 2, "velocity": 78}, {"time": 376, "pitch": 63, "duration": 2, "velocity": 84}, {"time": 376, "pitch": 66, "duration": 2, "velocity": 75}, {"time": 376, "pitch": 69, "duration": 2, "velocity": 77}, {"time": 380, "pitch": 47, "duration": 2, "velocity": 79}, {"time": 380, "pitch": 59, "duration": 2, "velocity": 78}, {"time": 380, "pitch": 63, "duration": 2, "velocity": 80}, {"time": 380, "pitch": 66, "duration": 3, "velocity": 74}, {"time": 380, "pitch": 71, "duration": 3, "velocity": 71}, {"time": 404, "pitch": 40, "duration": 15, "velocity": 73}, {"time": 404, "pitch": 59, "duration": 8, "velocity": 67}, {"time": 404, "pitch": 64, "duration": 8, "velocity": 70}, {"time": 412, "pitch": 47, "duration": 6, "velocity": 48}, {"time": 416, "pitch": 59, "duration": 2, "velocity": 73}, {"time": 416, "pitch": 64, "duration": 1, "velocity": 73}, {"time": 416, "pitch": 67, "duration": 2, "velocity": 73}, {"time": 428, "pitch": 38, "duration": 10, "velocity": 74}, {"time": 428, "pitch": 57, "duration": 5, "velocity": 62}, {"time": 428, "pitch": 62, "duration": 9, "velocity": 69}, {"time": 428, "pitch": 66, "duration": 9, "velocity": 62}, {"time": 436, "pitch": 57, "duration": 2, "velocity": 60}, {"time": 440, "pitch": 57, "duration": 2, "velocity": 74}, {"time": 440, "pitch": 62, "duration": 2, "velocity": 75}, {"time": 440, "pitch": 66, "duration": 3, "velocity": 75}, {"time": 452, "pitch": 49, "duration": 13, "velocity": 65}, {"time": 452, "pitch": 61, "duration": 8, "velocity": 59}, {"time": 452, "pitch": 64, "duration": 8, "velocity": 69}, {"time": 452, "pitch": 67, "duration": 8, "velocity": 56}, {"time": 464, "pitch": 61, "duration": 2, "velocity": 71}, {"time": 464, "pitch": 64, "duration": 2, "velocity": 75}, {"time": 464, "pitch": 67, "duration": 2, "velocity": 73}, {"time": 476, "pitch": 52, "duration": 13, "velocity": 63}, {"time": 476, "pitch": 59, "duration": 5, "velocity": 64}, {"time": 476, "pitch": 64, "duration": 9, "velocity": 73}, {"time": 484, "pitch": 59, "duration": 2, "velocity": 69}, {"time": 488, "pitch": 59, "duration": 2, "velocity": 74}, {"time": 488, "pitch": 64, "duration": 3, "velocity": 78}, {"time": 488, "pitch": 67, "duration": 4, "velocity": 73}, {"time": 500, "pitch": 48, "duration": 11, "velocity": 72}, {"time": 500, "pitch": 55, "duration": 4, "velocity": 65}, {"time": 500, "pitch": 60, "duration": 8, "velocity": 68}, {"time": 508, "pitch": 55, "duration": 1, "velocity": 66}, {"time": 512, "pitch": 55, "duration": 1, "velocity": 74}, {"time": 512, "pitch": 60, "duration": 2, "velocity": 75}, {"time": 512, "pitch": 64, "duration": 2, "velocity": 75}, {"time": 516, "pitch": 55, "duration": 1, "velocity": 61}, {"time": 520, "pitch": 60, "duration": 4, "velocity": 68}, {"time": 524, "pitch": 38, "duration": 13, "velocity": 75}, {"time": 524, "pitch": 57, "duration": 6, "velocity": 64}, {"time": 524, "pitch": 62, "duration": 7, "velocity": 65}, {"time": 532, "pitch": 45, "duration": 5, "velocity": 62}, {"time": 536, "pitch": 57, "duration": 2, "velocity": 69}, {"time": 536, "pitch": 62, "duration": 3, "velocity": 73}, {"time": 536, "pitch": 66, "duration": 4, "velocity": 73}, {"time": 548, "pitch": 43, "duration": 14, "velocity": 73}, {"time": 548, "pitch": 55, "duration": 8, "velocity": 67}, {"time": 548, "pitch": 59, "duration": 7, "velocity": 67}, {"time": 556, "pitch": 50, "duration": 6, "velocity": 59}, {"time": 560, "pitch": 55, "duration": 1, "velocity": 74}, {"time": 560, "pitch": 59, "duration": 1, "velocity": 77}, {"time": 560, "pitch": 62, "duration": 2, "velocity": 75}, {"time": 564, "pitch": 57, "duration": 4, "velocity": 74}, {"time": 568, "pitch": 58, "duration": 4, "velocity": 61}, {"time": 572, "pitch": 47, "duration": 14, "velocity": 74}, {"time": 572, "pitch": 59, "duration": 7, "velocity": 72}, {"time": 580, "pitch": 54, "duration": 5, "velocity": 59}, {"time": 584, "pitch": 59, "duration": 4, "velocity": 75}, {"time": 584, "pitch": 63, "duration": 4, "velocity": 75}, {"time": 584, "pitch": 66, "duration": 5, "velocity": 76}, {"time": 588, "pitch": 51, "duration": 1, "velocity": 21}, {"time": 596, "pitch": 48, "duration": 14, "velocity": 73}, {"time": 596, "pitch": 55, "duration": 5, "velocity": 66}, {"time": 596, "pitch": 60, "duration": 9, "velocity": 67}, {"time": 596, "pitch": 64, "duration": 9, "velocity": 73}, {"time": 604, "pitch": 55, "duration": 3, "velocity": 66}, {"time": 608, "pitch": 55, "duration": 1, "velocity": 75}, {"time": 608, "pitch": 60, "duration": 2, "velocity": 77}, {"time": 608, "pitch": 64, "duration": 2, "velocity": 78}, {"time": 620, "pitch": 50, "duration": 13, "velocity": 74}, {"time": 620, "pitch": 57, "duration": 4, "velocity": 69}, {"time": 620, "pitch": 62, "duration": 9, "velocity": 72}, {"time": 620, "pitch": 66, "duration": 9, "velocity": 68}, {"time": 628, "pitch": 57, "duration": 2, "velocity": 61}, {"time": 632, "pitch": 57, "duration": 2, "velocity": 74}, {"time": 632, "pitch": 62, "duration": 4, "velocity": 79}, {"time": 632, "pitch": 66, "duration": 7, "velocity": 78}, {"time": 636, "pitch": 57, "duration": 4, "velocity": 68}, {"time": 640, "pitch": 62, "duration": 1, "velocity": 65}, {"time": 644, "pitch": 45, "duration": 14, "velocity": 74}, {"time": 644, "pitch": 57, "duration": 7, "velocity": 61}, {"time": 644, "pitch": 61, "duration": 8, "velocity": 60}, {"time": 652, "pitch": 52, "duration": 5, "velocity": 58}, {"time": 656, "pitch": 57, "duration": 10, "velocity": 73}, {"time": 656, "pitch": 61, "duration": 11, "velocity": 77}, {"time": 656, "pitch": 64, "duration": 10, "velocity": 77}, {"time": 668, "pitch": 55, "duration": 1, "velocity": 57}, {"time": 668, "pitch": 52, "duration": 20, "velocity": 68}, {"time": 668, "pitch": 64, "duration": 10, "velocity": 71}, {"time": 668, "pitch": 71, "duration": 3, "velocity": 61}, {"time": 676, "pitch": 59, "duration": 12, "velocity": 69}, {"time": 680, "pitch": 64, "duration": 8, "velocity": 79}, {"time": 680, "pitch": 67, "duration": 9, "velocity": 76}, {"time": 692, "pitch": 48, "duration": 13, "velocity": 75}, {"time": 692, "pitch": 55, "duration": 5, "velocity": 64}, {"time": 692, "pitch": 60, "duration": 9, "velocity": 67}, {"time": 700, "pitch": 55, "duration": 2, "velocity": 67}, {"time": 704, "pitch": 55, "duration": 2, "velocity": 79}, {"time": 704, "pitch": 60, "duration": 3, "velocity": 78}, {"time": 704, "pitch": 64, "duration": 3, "velocity": 77}, {"time": 716, "pitch": 38, "duration": 13, "velocity": 76}, {"time": 716, "pitch": 57, "duration": 9, "velocity": 66}, {"time": 716, "pitch": 62, "duration": 9, "velocity": 68}, {"time": 716, "pitch": 66, "duration": 10, "velocity": 64}, {"time": 724, "pitch": 45, "duration": 5, "velocity": 48}, {"time": 728, "pitch": 57, "duration": 2, "velocity": 74}, {"time": 728, "pitch": 62, "duration": 2, "velocity": 75}, {"time": 728, "pitch": 66, "duration": 3, "velocity": 75}, {"time": 740, "pitch": 47, "duration": 23, "velocity": 74}, {"time": 740, "pitch": 59, "duration": 5, "velocity": 66}, {"time": 740, "pitch": 63, "duration": 8, "velocity": 63}, {"time": 740, "pitch": 66, "duration": 8, "velocity": 63}, {"time": 748, "pitch": 54, "duration": 6, "velocity": 53}, {"time": 752, "pitch": 59, "duration": 5, "velocity": 72}, {"time": 752, "pitch": 63, "duration": 6, "velocity": 72}, {"time": 752, "pitch": 66, "duration": 6, "velocity": 64}, {"time": 752, "pitch": 71, "duration": 6, "velocity": 73}, {"time": 756, "pitch": 51, "duration": 4, "velocity": 66}, {"time": 760, "pitch": 54, "duration": 3, "velocity": 61}, {"time": 760, "pitch": 59, "duration": 3, "velocity": 71}, {"time": 764, "pitch": 47, "duration": 22, "velocity": 76}, {"time": 764, "pitch": 59, "duration": 22, "velocity": 74}, {"time": 764, "pitch": 63, "duration": 22, "velocity": 74}, {"time": 764, "pitch": 66, "duration": 22, "velocity": 71}, {"time": 764, "pitch": 71, "duration": 22, "velocity": 74}, {"time": 776, "pitch": 54, "duration": 9, "velocity": 68}, {"time": 788, "pitch": 40, "duration": 15, "velocity": 73}, {"time": 788, "pitch": 59, "duration": 8, "velocity": 67}, {"time": 788, "pitch": 64, "duration": 8, "velocity": 70}, {"time": 796, "pitch": 47, "duration": 6, "velocity": 48}, {"time": 800, "pitch": 59, "duration": 2, "velocity": 73}, {"time": 800, "pitch": 64, "duration": 1, "velocity": 73}, {"time": 800, "pitch": 67, "duration": 2, "velocity": 73}, {"time": 812, "pitch": 38, "duration": 10, "velocity": 74}, {"time": 812, "pitch": 57, "duration": 5, "velocity": 62}, {"time": 812, "pitch": 62, "duration": 9, "velocity": 69}, {"time": 812, "pitch": 66, "duration": 9, "velocity": 62}, {"time": 820, "pitch": 57, "duration": 2, "velocity": 60}, {"time": 824, "pitch": 57, "duration": 2, "velocity": 74}, {"time": 824, "pitch": 62, "duration": 2, "velocity": 75}, {"time": 824, "pitch": 66, "duration": 3, "velocity": 75}, {"time": 836, "pitch": 49, "duration": 13, "velocity": 65}, {"time": 836, "pitch": 61, "duration": 8, "velocity": 59}, {"time": 836, "pitch": 64, "duration": 8, "velocity": 69}, {"time": 836, "pitch": 67, "duration": 8, "velocity": 56}, {"time": 848, "pitch": 61, "duration": 2, "velocity": 71}, {"time": 848, "pitch": 64, "duration": 2, "velocity": 75}, {"time": 848, "pitch": 67, "duration": 2, "velocity": 73}, {"time": 860, "pitch": 52, "duration": 13, "velocity": 63}, {"time": 860, "pitch": 59, "duration": 5, "velocity": 64}, {"time": 860, "pitch": 64, "duration": 9, "velocity": 73}, {"time": 868, "pitch": 59, "duration": 2, "velocity": 69}, {"time": 872, "pitch": 59, "duration": 2, "velocity": 74}, {"time": 872, "pitch": 64, "duration": 3, "velocity": 78}, {"time": 872, "pitch": 67, "duration": 4, "velocity": 73}, {"time": 884, "pitch": 48, "duration": 11, "velocity": 72}, {"time": 884, "pitch": 55, "duration": 4, "velocity": 65}, {"time": 884, "pitch": 60, "duration": 8, "velocity": 68}, {"time": 892, "pitch": 55, "duration": 1, "velocity": 66}, {"time": 896, "pitch": 55, "duration": 1, "velocity": 74}, {"time": 896, "pitch": 60, "duration": 2, "velocity": 75}, {"time": 896, "pitch": 64, "duration": 2, "velocity": 75}, {"time": 900, "pitch": 55, "duration": 1, "velocity": 61}, {"time": 904, "pitch": 60, "duration": 4, "velocity": 68}, {"time": 908, "pitch": 38, "duration": 13, "velocity": 75}, {"time": 908, "pitch": 57, "duration": 6, "velocity": 64}, {"time": 908, "pitch": 62, "duration": 7, "velocity": 65}, {"time": 916, "pitch": 45, "duration": 5, "velocity": 62}, {"time": 920, "pitch": 57, "duration": 2, "velocity": 69}, {"time": 920, "pitch": 62, "duration": 3, "velocity": 73}, {"time": 920, "pitch": 66, "duration": 4, "velocity": 73}, {"time": 932, "pitch": 43, "duration": 14, "velocity": 73}, {"time": 932, "pitch": 55, "duration": 8, "velocity": 67}, {"time": 932, "pitch": 59, "duration": 7, "velocity": 67}, {"time": 940, "pitch": 50, "duration": 6, "velocity": 59}, {"time": 944, "pitch": 55, "duration": 1, "velocity": 74}, {"time": 944, "pitch": 59, "duration": 1, "velocity": 77}, {"time": 944, "pitch": 62, "duration": 2, "velocity": 75}, {"time": 948, "pitch": 57, "duration": 4, "velocity": 74}, {"time": 952, "pitch": 58, "duration": 4, "velocity": 61}, {"time": 956, "pitch": 47, "duration": 14, "velocity": 74}, {"time": 956, "pitch": 59, "duration": 7, "velocity": 72}, {"time": 964, "pitch": 54, "duration": 5, "velocity": 59}, {"time": 968, "pitch": 59, "duration": 4, "velocity": 75}, {"time": 968, "pitch": 63, "duration": 4, "velocity": 75}, {"time": 968, "pitch": 66, "duration": 5, "velocity": 76}, {"time": 972, "pitch": 51, "duration": 1, "velocity": 21}, {"time": 980, "pitch": 48, "duration": 14, "velocity": 73}, {"time": 980, "pitch": 55, "duration": 5, "velocity": 66}, {"time": 980, "pitch": 60, "duration": 9, "velocity": 67}, {"time": 980, "pitch": 64, "duration": 9, "velocity": 73}, {"time": 988, "pitch": 55, "duration": 3, "velocity": 66}, {"time": 992, "pitch": 55, "duration": 1, "velocity": 75}, {"time": 992, "pitch": 60, "duration": 2, "velocity": 77}, {"time": 992, "pitch": 64, "duration": 2, "velocity": 78}, {"time": 1004, "pitch": 50, "duration": 13, "velocity": 74}, {"time": 1004, "pitch": 57, "duration": 4, "velocity": 69}, {"time": 1004, "pitch": 62, "duration": 9, "velocity": 72}, {"time": 1004, "pitch": 66, "duration": 9, "velocity": 68}, {"time": 1012, "pitch": 57, "duration": 2, "velocity": 61}, {"time": 1016, "pitch": 57, "duration": 2, "velocity": 74}, {"time": 1016, "pitch": 62, "duration": 4, "velocity": 79}, {"time": 1016, "pitch": 66, "duration": 7, "velocity": 78}, {"time": 1020, "pitch": 57, "duration": 4, "velocity": 68}, {"time": 1024, "pitch": 62, "duration": 1, "velocity": 65}, {"time": 1028, "pitch": 45, "duration": 14, "velocity": 74}, {"time": 1028, "pitch": 57, "duration": 7, "velocity": 61}, {"time": 1028, "pitch": 61, "duration": 8, "velocity": 60}, {"time": 1036, "pitch": 52, "duration": 5, "velocity": 58}, {"time": 1040, "pitch": 57, "duration": 10, "velocity": 73}, {"time": 1040, "pitch": 61, "duration": 11, "velocity": 77}, {"time": 1040, "pitch": 64, "duration": 10, "velocity": 77}, {"time": 1052, "pitch": 55, "duration": 1, "velocity": 57}, {"time": 1052, "pitch": 52, "duration": 20, "velocity": 68}, {"time": 1052, "pitch": 64, "duration": 10, "velocity": 71}, {"time": 1052, "pitch": 71, "duration": 3, "velocity": 61}, {"time": 1060, "pitch": 59, "duration": 12, "velocity": 69}, {"time": 1064, "pitch": 64, "duration": 8, "velocity": 79}, {"time": 1064, "pitch": 67, "duration": 9, "velocity": 76}, {"time": 1076, "pitch": 48, "duration": 13, "velocity": 75}, {"time": 1076, "pitch": 55, "duration": 5, "velocity": 64}, {"time": 1076, "pitch": 60, "duration": 9, "velocity": 67}, {"time": 1084, "pitch": 55, "duration": 2, "velocity": 67}, {"time": 1088, "pitch": 55, "duration": 2, "velocity": 79}, {"time": 1088, "pitch": 60, "duration": 3, "velocity": 78}, {"time": 1088, "pitch": 64, "duration": 3, "velocity": 77}, {"time": 1100, "pitch": 38, "duration": 13, "velocity": 76}, {"time": 1100, "pitch": 57, "duration": 9, "velocity": 66}, {"time": 1100, "pitch": 62, "duration": 9, "velocity": 68}, {"time": 1100, "pitch": 66, "duration": 10, "velocity": 64}, {"time": 1108, "pitch": 45, "duration": 5, "velocity": 48}, {"time": 1112, "pitch": 57, "duration": 2, "velocity": 74}, {"time": 1112, "pitch": 62, "duration": 2, "velocity": 75}, {"time": 1112, "pitch": 66, "duration": 3, "velocity": 75}, {"time": 1124, "pitch": 40, "duration": 15, "velocity": 75}, {"time": 1124, "pitch": 55, "duration": 8, "velocity": 69}, {"time": 1124, "pitch": 59, "duration": 8, "velocity": 73}, {"time": 1124, "pitch": 64, "duration": 8, "velocity": 73}, {"time": 1132, "pitch": 47, "duration": 5, "velocity": 53}, {"time": 1136, "pitch": 55, "duration": 13, "velocity": 77}, {"time": 1136, "pitch": 59, "duration": 14, "velocity": 80}, {"time": 1136, "pitch": 64, "duration": 15, "velocity": 80}, {"time": 1140, "pitch": 47, "duration": 1, "velocity": 50}, {"time": 1144, "pitch": 38, "duration": 2, "velocity": 79}, {"time": 1148, "pitch": 40, "duration": 22, "velocity": 82}, {"time": 1156, "pitch": 55, "duration": 2, "velocity": 72}, {"time": 1160, "pitch": 55, "duration": 10, "velocity": 80}, {"time": 1160, "pitch": 59, "duration": 10, "velocity": 80}, {"time": 1160, "pitch": 64, "duration": 10, "velocity": 80}, {"time": 1172, "pitch": 36, "duration": 4, "velocity": 80}, {"time": 1172, "pitch": 55, "duration": 4, "velocity": 80}, {"time": 1172, "pitch": 60, "duration": 5, "velocity": 80}, {"time": 1172, "pitch": 64, "duration": 5, "velocity": 80}, {"time": 1180, "pitch": 36, "duration": 1, "velocity": 74}, {"time": 1180, "pitch": 55, "duration": 1, "velocity": 74}, {"time": 1184, "pitch": 36, "duration": 4, "velocity": 74}, {"time": 1184, "pitch": 55, "duration": 2, "velocity": 75}, {"time": 1184, "pitch": 60, "duration": 2, "velocity": 75}, {"time": 1184, "pitch": 64, "duration": 2, "velocity": 75}, {"time": 1192, "pitch": 36, "duration": 2, "velocity": 75}, {"time": 1192, "pitch": 55, "duration": 2, "velocity": 77}, {"time": 1192, "pitch": 60, "duration": 3, "velocity": 77}, {"time": 1196, "pitch": 38, "duration": 4, "velocity": 77}, {"time": 1196, "pitch": 57, "duration": 4, "velocity": 77}, {"time": 1196, "pitch": 62, "duration": 4, "velocity": 77}, {"time": 1204, "pitch": 38, "duration": 1, "velocity": 77}, {"time": 1204, "pitch": 57, "duration": 3, "velocity": 77}, {"time": 1208, "pitch": 38, "duration": 5, "velocity": 75}, {"time": 1208, "pitch": 57, "duration": 4, "velocity": 74}, {"time": 1208, "pitch": 62, "duration": 8, "velocity": 74}, {"time": 1208, "pitch": 66, "duration": 8, "velocity": 74}, {"time": 1216, "pitch": 38, "duration": 2, "velocity": 74}, {"time": 1216, "pitch": 57, "duration": 2, "velocity": 74}, {"time": 1220, "pitch": 43, "duration": 5, "velocity": 74}, {"time": 1220, "pitch": 55, "duration": 7, "velocity": 74}, {"time": 1220, "pitch": 59, "duration": 6, "velocity": 74}, {"time": 1228, "pitch": 43, "duration": 1, "velocity": 74}, {"time": 1228, "pitch": 50, "duration": 5, "velocity": 74}, {"time": 1232, "pitch": 43, "duration": 5, "velocity": 74}, {"time": 1232, "pitch": 55, "duration": 3, "velocity": 74}, {"time": 1232, "pitch": 59, "duration": 3, "velocity": 74}, {"time": 1232, "pitch": 62, "duration": 3, "velocity": 74}, {"time": 1236, "pitch": 50, "duration": 2, "velocity": 74}, {"time": 1240, "pitch": 43, "duration": 2, "velocity": 74}, {"time": 1240, "pitch": 54, "duration": 3, "velocity": 74}, {"time": 1244, "pitch": 40, "duration": 5, "velocity": 74}, {"time": 1244, "pitch": 52, "duration": 4, "velocity": 74}, {"time": 1244, "pitch": 55, "duration": 4, "velocity": 74}, {"time": 1252, "pitch": 40, "duration": 2, "velocity": 74}, {"time": 1256, "pitch": 40, "duration": 6, "velocity": 74}, {"time": 1256, "pitch": 52, "duration": 2, "velocity": 74}, {"time": 1256, "pitch": 55, "duration": 2, "velocity": 74}, {"time": 1256, "pitch": 59, "duration": 3, "velocity": 74}, {"time": 1264, "pitch": 40, "duration": 2, "velocity": 74}, {"time": 1268, "pitch": 36, "duration": 5, "velocity": 74}, {"time": 1268, "pitch": 55, "duration": 4, "velocity": 74}, {"time": 1268, "pitch": 60, "duration": 9, "velocity": 74}, {"time": 1276, "pitch": 36, "duration": 2, "velocity": 74}, {"time": 1276, "pitch": 55, "duration": 2, "velocity": 74}, {"time": 1280, "pitch": 36, "duration": 6, "velocity": 74}, {"time": 1280, "pitch": 55, "duration": 3, "velocity": 74}, {"time": 1280, "pitch": 60, "duration": 5, "velocity": 74}, {"time": 1280, "pitch": 64, "duration": 8, "velocity": 74}, {"time": 1288, "pitch": 36, "duration": 2, "velocity": 74}, {"time": 1288, "pitch": 55, "duration": 1, "velocity": 74}, {"time": 1292, "pitch": 38, "duration": 5, "velocity": 74}, {"time": 1292, "pitch": 57, "duration": 4, "velocity": 74}, {"time": 1292, "pitch": 62, "duration": 4, "velocity": 74}, {"time": 1300, "pitch": 38, "duration": 1, "velocity": 74}, {"time": 1300, "pitch": 57, "duration": 2, "velocity": 74}, {"time": 1304, "pitch": 38, "duration": 5, "velocity": 74}, {"time": 1304, "pitch": 57, "duration": 2, "velocity": 74}, {"time": 1304, "pitch": 62, "duration": 4, "velocity": 74}, {"time": 1304, "pitch": 66, "duration": 9, "velocity": 74}, {"time": 1308, "pitch": 57, "duration": 5, "velocity": 74}, {"time": 1312, "pitch": 38, "duration": 2, "velocity": 74}, {"time": 1312, "pitch": 62, "duration": 2, "velocity": 74}, {"time": 1316, "pitch": 40, "duration": 5, "velocity": 74}, {"time": 1316, "pitch": 59, "duration": 5, "velocity": 74}, {"time": 1316, "pitch": 64, "duration": 6, "velocity": 74}, {"time": 1324, "pitch": 40, "duration": 1, "velocity": 74}, {"time": 1324, "pitch": 59, "duration": 1, "velocity": 74}, {"time": 1328, "pitch": 40, "duration": 6, "velocity": 74}, {"time": 1328, "pitch": 59, "duration": 5, "velocity": 74}, {"time": 1328, "pitch": 67, "duration": 4, "velocity": 74}, {"time": 1332, "pitch": 66, "duration": 2, "velocity": 74}, {"time": 1336, "pitch": 40, "duration": 2, "velocity": 74}, {"time": 1340, "pitch": 40, "duration": 5, "velocity": 74}, {"time": 1340, "pitch": 59, "duration": 5, "velocity": 74}, {"time": 1340, "pitch": 64, "duration": 5, "velocity": 74}, {"time": 1344, "pitch": 47, "duration": 9, "velocity": 74}, {"time": 1348, "pitch": 40, "duration": 1, "velocity": 74}, {"time": 1348, "pitch": 59, "duration": 2, "velocity": 74}, {"time": 1352, "pitch": 40, "duration": 1, "velocity": 74}, {"time": 1352, "pitch": 59, "duration": 4, "velocity": 74}, {"time": 1352, "pitch": 64, "duration": 4, "velocity": 74}, {"time": 1356, "pitch": 40, "duration": 3, "velocity": 74}, {"time": 1356, "pitch": 47, "duration": 1, "velocity": 74}, {"time": 1360, "pitch": 38, "duration": 2, "velocity": 74}, {"time": 1364, "pitch": 36, "duration": 5, "velocity": 74}, {"time": 1364, "pitch": 48, "duration": 13, "velocity": 74}, {"time": 1364, "pitch": 55, "duration": 4, "velocity": 74}, {"time": 1364, "pitch": 60, "duration": 8, "velocity": 74}, {"time": 1372, "pitch": 36, "duration": 1, "velocity": 74}, {"time": 1372, "pitch": 55, "duration": 2, "velocity": 74}, {"time": 1376, "pitch": 36, "duration": 5, "velocity": 74}, {"time": 1376, "pitch": 55, "duration": 3, "velocity": 74}, {"time": 1376, "pitch": 60, "duration": 3, "velocity": 74}, {"time": 1376, "pitch": 64, "duration": 6, "velocity": 74}, {"time": 1384, "pitch": 36, "duration": 2, "velocity": 74}, {"time": 1384, "pitch": 55, "duration": 2, "velocity": 74}, {"time": 1388, "pitch": 38, "duration": 5, "velocity": 74}, {"time": 1388, "pitch": 57, "duration": 3, "velocity": 74}, {"time": 1388, "pitch": 62, "duration": 4, "velocity": 74}, {"time": 1396, "pitch": 38, "duration": 1, "velocity": 74}, {"time": 1396, "pitch": 57, "duration": 2, "velocity": 74}, {"time": 1400, "pitch": 38, "duration": 6, "velocity": 74}, {"time": 1400, "pitch": 57, "duration": 2, "velocity": 74}, {"time": 1400, "pitch": 62, "duration": 4, "velocity": 74}, {"time": 1400, "pitch": 66, "duration": 8, "velocity": 74}, {"time": 1404, "pitch": 57, "duration": 4, "velocity": 74}, {"time": 1408, "pitch": 38, "duration": 1, "velocity": 74}, {"time": 1408, "pitch": 62, "duration": 1, "velocity": 74}, {"time": 1412, "pitch": 43, "duration": 5, "velocity": 74}, {"time": 1412, "pitch": 55, "duration": 5, "velocity": 74}, {"time": 1412, "pitch": 59, "duration": 6, "velocity": 74}, {"time": 1420, "pitch": 43, "duration": 1, "velocity": 74}, {"time": 1420, "pitch": 55, "duration": 1, "velocity": 74}, {"time": 1424, "pitch": 43, "duration": 6, "velocity": 74}, {"time": 1424, "pitch": 55, "duration": 3, "velocity": 74}, {"time": 1424, "pitch": 59, "duration": 3, "velocity": 74}, {"time": 1424, "pitch": 62, "duration": 3, "velocity": 74}, {"time": 1428, "pitch": 50, "duration": 2, "velocity": 74}, {"time": 1432, "pitch": 43, "duration": 2, "velocity": 74}, {"time": 1432, "pitch": 54, "duration": 2, "velocity": 74}, {"time": 1436, "pitch": 40, "duration": 5, "velocity": 74}, {"time": 1436, "pitch": 52, "duration": 5, "velocity": 74}, {"time": 1436, "pitch": 55, "duration": 4, "velocity": 74}, {"time": 1444, "pitch": 40, "duration": 1, "velocity": 74}, {"time": 1444, "pitch": 47, "duration": 5, "velocity": 74}, {"time": 1448, "pitch": 40, "duration": 6, "velocity": 74}, {"time": 1448, "pitch": 52, "duration": 2, "velocity": 74}, {"time": 1448, "pitch": 55, "duration": 2, "velocity": 74}, {"time": 1448, "pitch": 59, "duration": 3, "velocity": 74}, {"time": 1456, "pitch": 40, "duration": 2, "velocity": 74}, {"time": 1460, "pitch": 36, "duration": 5, "velocity": 74}, {"time": 1460, "pitch": 48, "duration": 13, "velocity": 74}, {"time": 1460, "pitch": 55, "duration": 3, "velocity": 74}, {"time": 1460, "pitch": 60, "duration": 8, "velocity": 74}, {"time": 1468, "pitch": 36, "duration": 1, "velocity": 74}, {"time": 1468, "pitch": 55, "duration": 2, "velocity": 74}, {"time": 1472, "pitch": 36, "duration": 5, "velocity": 74}, {"time": 1472, "pitch": 55, "duration": 3, "velocity": 74}, {"time": 1472, "pitch": 60, "duration": 5, "velocity": 74}, {"time": 1472, "pitch": 64, "duration": 9, "velocity": 74}, {"time": 1480, "pitch": 36, "duration": 2, "velocity": 74}, {"time": 1480, "pitch": 55, "duration": 2, "velocity": 74}, {"time": 1484, "pitch": 38, "duration": 5, "velocity": 74}, {"time": 1484, "pitch": 50, "duration": 14, "velocity": 74}, {"time": 1484, "pitch": 57, "duration": 4, "velocity": 74}, {"time": 1484, "pitch": 62, "duration": 5, "velocity": 74}, {"time": 1492, "pitch": 38, "duration": 1, "velocity": 74}, {"time": 1492, "pitch": 57, "duration": 2, "velocity": 74}, {"time": 1496, "pitch": 38, "duration": 6, "velocity": 74}, {"time": 1496, "pitch": 57, "duration": 2, "velocity": 74}, {"time": 1496, "pitch": 62, "duration": 4, "velocity": 74}, {"time": 1496, "pitch": 66, "duration": 5, "velocity": 74}, {"time": 1504, "pitch": 38, "duration": 2, "velocity": 74}, {"time": 1508, "pitch": 40, "duration": 5, "velocity": 74}, {"time": 1508, "pitch": 59, "duration": 7, "velocity": 74}, {"time": 1508, "pitch": 64, "duration": 7, "velocity": 74}, {"time": 1516, "pitch": 40, "duration": 1, "velocity": 74}, {"time": 1516, "pitch": 47, "duration": 5, "velocity": 74}, {"time": 1520, "pitch": 40, "duration": 6, "velocity": 74}, {"time": 1520, "pitch": 59, "duration": 4, "velocity": 74}, {"time": 1520, "pitch": 64, "duration": 5, "velocity": 74}, {"time": 1520, "pitch": 67, "duration": 5, "velocity": 74}, {"time": 1524, "pitch": 47, "duration": 4, "velocity": 74}, {"time": 1528, "pitch": 40, "duration": 1, "velocity": 74}, {"time": 1528, "pitch": 62, "duration": 3, "velocity": 74}, {"time": 1532, "pitch": 40, "duration": 13, "velocity": 74}, {"time": 1532, "pitch": 59, "duration": 20, "velocity": 74}, {"time": 1532, "pitch": 64, "duration": 20, "velocity": 74}, {"time": 1556, "pitch": 40, "duration": 22, "velocity": 76}, {"time": 1556, "pitch": 52, "duration": 14, "velocity": 75}, {"time": 1556, "pitch": 59, "duration": 14, "velocity": 73}, {"time": 1572, "pitch": 59, "duration": 5, "velocity": 77}, {"time": 1572, "pitch": 64, "duration": 5, "velocity": 77}, {"time": 1576, "pitch": 47, "duration": 3, "velocity": 65}, {"time": 1580, "pitch": 40, "duration": 14, "velocity": 76}, {"time": 1580, "pitch": 52, "duration": 11, "velocity": 69}, {"time": 1580, "pitch": 59, "duration": 11, "velocity": 68}, {"time": 1592, "pitch": 52, "duration": 2, "velocity": 75}, {"time": 1592, "pitch": 59, "duration": 2, "velocity": 77}, {"time": 1592, "pitch": 64, "duration": 3, "velocity": 74}, {"time": 1604, "pitch": 37, "duration": 20, "velocity": 66}, {"time": 1604, "pitch": 61, "duration": 13, "velocity": 66}, {"time": 1604, "pitch": 64, "duration": 13, "velocity": 73}, {"time": 1620, "pitch": 61, "duration": 4, "velocity": 75}, {"time": 1620, "pitch": 64, "duration": 6, "velocity": 77}, {"time": 1624, "pitch": 57, "duration": 3, "velocity": 69}, {"time": 1628, "pitch": 37, "duration": 11, "velocity": 65}, {"time": 1628, "pitch": 57, "duration": 10, "velocity": 66}, {"time": 1628, "pitch": 61, "duration": 10, "velocity": 62}, {"time": 1628, "pitch": 64, "duration": 10, "velocity": 74}, {"time": 1640, "pitch": 57, "duration": 2, "velocity": 74}, {"time": 1640, "pitch": 61, "duration": 5, "velocity": 75}, {"time": 1640, "pitch": 64, "duration": 6, "velocity": 77}, {"time": 1644, "pitch": 57, "duration": 2, "velocity": 67}, {"time": 1652, "pitch": 48, "duration": 13, "velocity": 76}, {"time": 1652, "pitch": 55, "duration": 5, "velocity": 74}, {"time": 1652, "pitch": 60, "duration": 9, "velocity": 73}, {"time": 1652, "pitch": 64, "duration": 9, "velocity": 75}, {"time": 1664, "pitch": 55, "duration": 3, "velocity": 75}, {"time": 1664, "pitch": 60, "duration": 3, "velocity": 77}, {"time": 1664, "pitch": 64, "duration": 4, "velocity": 77}, {"time": 1676, "pitch": 55, "duration": 5, "velocity": 66}, {"time": 1676, "pitch": 60, "duration": 8, "velocity": 69}, {"time": 1676, "pitch": 64, "duration": 8, "velocity": 75}, {"time": 1684, "pitch": 55, "duration": 1, "velocity": 58}, {"time": 1692, "pitch": 48, "duration": 4, "velocity": 78}, {"time": 1696, "pitch": 55, "duration": 2, "velocity": 77}, {"time": 1696, "pitch": 60, "duration": 2, "velocity": 79}, {"time": 1696, "pitch": 64, "duration": 3, "velocity": 80}, {"time": 1700, "pitch": 43, "duration": 16, "velocity": 77}, {"time": 1700, "pitch": 55, "duration": 8, "velocity": 73}, {"time": 1700, "pitch": 59, "duration": 8, "velocity": 69}, {"time": 1708, "pitch": 50, "duration": 6, "velocity": 58}, {"time": 1712, "pitch": 55, "duration": 3, "velocity": 75}, {"time": 1712, "pitch": 59, "duration": 2, "velocity": 78}, {"time": 1712, "pitch": 62, "duration": 3, "velocity": 75}, {"time": 1720, "pitch": 57, "duration": 2, "velocity": 70}, {"time": 1724, "pitch": 47, "duration": 10, "velocity": 77}, {"time": 1724, "pitch": 59, "duration": 6, "velocity": 70}, {"time": 1732, "pitch": 59, "duration": 2, "velocity": 75}, {"time": 1736, "pitch": 59, "duration": 5, "velocity": 84}, {"time": 1736, "pitch": 63, "duration": 9, "velocity": 90}, {"time": 1736, "pitch": 66, "duration": 9, "velocity": 80}, {"time": 1740, "pitch": 54, "duration": 5, "velocity": 77}, {"time": 1744, "pitch": 59, "duration": 2, "velocity": 78}, {"time": 1748, "pitch": 40, "duration": 4, "velocity": 75}, {"time": 1748, "pitch": 52, "duration": 3, "velocity": 73}, {"time": 1748, "pitch": 55, "duration": 2, "velocity": 72}, {"time": 1748, "pitch": 59, "duration": 3, "velocity": 70}, {"time": 1748, "pitch": 64, "duration": 3, "velocity": 74}, {"time": 1756, "pitch": 40, "duration": 8, "velocity": 68}, {"time": 1760, "pitch": 52, "duration": 4, "velocity": 80}, {"time": 1760, "pitch": 55, "duration": 4, "velocity": 76}, {"time": 1760, "pitch": 59, "duration": 4, "velocity": 76}, {"time": 1760, "pitch": 64, "duration": 5, "velocity": 76}, {"time": 1764, "pitch": 47, "duration": 1, "velocity": 42}, {"time": 1768, "pitch": 40, "duration": 2, "velocity": 75}, {"time": 1772, "pitch": 38, "duration": 4, "velocity": 76}, {"time": 1772, "pitch": 50, "duration": 3, "velocity": 73}, {"time": 1772, "pitch": 54, "duration": 3, "velocity": 68}, {"time": 1772, "pitch": 57, "duration": 3, "velocity": 67}, {"time": 1780, "pitch": 38, "duration": 8, "velocity": 84}, {"time": 1784, "pitch": 50, "duration": 3, "velocity": 77}, {"time": 1784, "pitch": 54, "duration": 3, "velocity": 79}, {"time": 1784, "pitch": 57, "duration": 3, "velocity": 77}, {"time": 1784, "pitch": 62, "duration": 4, "velocity": 75}, {"time": 1788, "pitch": 45, "duration": 2, "velocity": 64}, {"time": 1792, "pitch": 38, "duration": 2, "velocity": 75}, {"time": 1796, "pitch": 37, "duration": 3, "velocity": 73}, {"time": 1796, "pitch": 61, "duration": 3, "velocity": 69}, {"time": 1796, "pitch": 64, "duration": 3, "velocity": 80}, {"time": 1796, "pitch": 67, "duration": 3, "velocity": 69}, {"time": 1804, "pitch": 37, "duration": 6, "velocity": 73}, {"time": 1808, "pitch": 61, "duration": 2, "velocity": 73}, {"time": 1808, "pitch": 64, "duration": 4, "velocity": 77}, {"time": 1808, "pitch": 67, "duration": 5, "velocity": 74}, {"time": 1812, "pitch": 61, "duration": 1, "velocity": 73}, {"time": 1820, "pitch": 48, "duration": 14, "velocity": 77}, {"time": 1820, "pitch": 55, "duration": 4, "velocity": 74}, {"time": 1820, "pitch": 60, "duration": 4, "velocity": 73}, {"time": 1828, "pitch": 55, "duration": 2, "velocity": 77}, {"time": 1832, "pitch": 55, "duration": 3, "velocity": 79}, {"time": 1832, "pitch": 60, "duration": 5, "velocity": 82}, {"time": 1832, "pitch": 64, "duration": 7, "velocity": 84}, {"time": 1844, "pitch": 45, "duration": 16, "velocity": 75}, {"time": 1844, "pitch": 57, "duration": 5, "velocity": 68}, {"time": 1844, "pitch": 61, "duration": 6, "velocity": 73}, {"time": 1844, "pitch": 64, "duration": 6, "velocity": 75}, {"time": 1852, "pitch": 52, "duration": 5, "velocity": 59}, {"time": 1856, "pitch": 57, "duration": 4, "velocity": 75}, {"time": 1856, "pitch": 61, "duration": 4, "velocity": 87}, {"time": 1856, "pitch": 64, "duration": 4, "velocity": 79}, {"time": 1856, "pitch": 69, "duration": 4, "velocity": 72}, {"time": 1860, "pitch": 52, "duration": 1, "velocity": 67}, {"time": 1864, "pitch": 45, "duration": 1, "velocity": 73}, {"time": 1868, "pitch": 38, "duration": 16, "velocity": 79}, {"time": 1876, "pitch": 50, "duration": 2, "velocity": 76}, {"time": 1880, "pitch": 50, "duration": 3, "velocity": 80}, {"time": 1880, "pitch": 54, "duration": 4, "velocity": 80}, {"time": 1880, "pitch": 57, "duration": 4, "velocity": 76}, {"time": 1880, "pitch": 62, "duration": 5, "velocity": 75}, {"time": 1884, "pitch": 45, "duration": 2, "velocity": 61}, {"time": 1892, "pitch": 40, "duration": 3, "velocity": 80}, {"time": 1892, "pitch": 52, "duration": 2, "velocity": 72}, {"time": 1892, "pitch": 55, "duration": 2, "velocity": 73}, {"time": 1892, "pitch": 64, "duration": 2, "velocity": 75}, {"time": 1900, "pitch": 40, "duration": 13, "velocity": 75}, {"time": 1904, "pitch": 52, "duration": 4, "velocity": 77}, {"time": 1904, "pitch": 55, "duration": 5, "velocity": 78}, {"time": 1904, "pitch": 64, "duration": 3, "velocity": 79}, {"time": 1908, "pitch": 47, "duration": 5, "velocity": 73}, {"time": 1912, "pitch": 52, "duration": 1, "velocity": 73}, {"time": 1912, "pitch": 55, "duration": 2, "velocity": 72}, {"time": 1912, "pitch": 62, "duration": 1, "velocity": 68}, {"time": 1916, "pitch": 40, "duration": 21, "velocity": 79}, {"time": 1916, "pitch": 52, "duration": 21, "velocity": 75}, {"time": 1916, "pitch": 55, "duration": 21, "velocity": 75}, {"time": 1916, "pitch": 64, "duration": 21, "velocity": 82}, {"time": 1940, "pitch": 40, "duration": 5, "velocity": 78}, {"time": 1940, "pitch": 52, "duration": 5, "velocity": 73}, {"time": 1940, "pitch": 55, "duration": 5, "velocity": 73}, {"time": 1940, "pitch": 59, "duration": 5, "velocity": 73}, {"time": 1940, "pitch": 64, "duration": 5, "velocity": 74}, {"time": 1948, "pitch": 40, "duration": 2, "velocity": 57}, {"time": 1948, "pitch": 52, "duration": 1, "velocity": 71}, {"time": 1948, "pitch": 64, "duration": 1, "velocity": 68}, {"time": 1952, "pitch": 40, "duration": 2, "velocity": 70}, {"time": 1952, "pitch": 52, "duration": 1, "velocity": 68}, {"time": 1952, "pitch": 55, "duration": 1, "velocity": 55}, {"time": 1952, "pitch": 64, "duration": 1, "velocity": 70}, {"time": 1956, "pitch": 40, "duration": 2, "velocity": 75}, {"time": 1956, "pitch": 52, "duration": 2, "velocity": 71}, {"time": 1956, "pitch": 55, "duration": 2, "velocity": 70}, {"time": 1956, "pitch": 64, "duration": 2, "velocity": 74}, {"time": 1960, "pitch": 40, "duration": 2, "velocity": 78}, {"time": 1960, "pitch": 52, "duration": 2, "velocity": 77}, {"time": 1960, "pitch": 55, "duration": 2, "velocity": 77}, {"time": 1960, "pitch": 64, "duration": 2, "velocity": 78}, {"time": 1964, "pitch": 40, "duration": 7, "velocity": 87}, {"time": 1964, "pitch": 52, "duration": 4, "velocity": 82}, {"time": 1964, "pitch": 55, "duration": 4, "velocity": 76}, {"time": 1964, "pitch": 64, "duration": 4, "velocity": 78}, {"time": 1988, "pitch": 40, "duration": 15, "velocity": 73}, {"time": 1988, "pitch": 59, "duration": 8, "velocity": 67}, {"time": 1988, "pitch": 64, "duration": 8, "velocity": 70}, {"time": 1996, "pitch": 47, "duration": 6, "velocity": 48}, {"time": 2000, "pitch": 59, "duration": 2, "velocity": 73}, {"time": 2000, "pitch": 64, "duration": 1, "velocity": 73}, {"time": 2000, "pitch": 67, "duration": 2, "velocity": 73}, {"time": 2012, "pitch": 38, "duration": 10, "velocity": 74}, {"time": 2012, "pitch": 57, "duration": 5, "velocity": 62}, {"time": 2012, "pitch": 62, "duration": 9, "velocity": 69}, {"time": 2012, "pitch": 66, "duration": 9, "velocity": 62}, {"time": 2020, "pitch": 57, "duration": 2, "velocity": 60}, {"time": 2024, "pitch": 57, "duration": 2, "velocity": 74}, {"time": 2024, "pitch": 62, "duration": 2, "velocity": 75}, {"time": 2024, "pitch": 66, "duration": 3, "velocity": 75}, {"time": 2036, "pitch": 49, "duration": 13, "velocity": 65}, {"time": 2036, "pitch": 61, "duration": 8, "velocity": 59}, {"time": 2036, "pitch": 64, "duration": 8, "velocity": 69}, {"time": 2036, "pitch": 67, "duration": 8, "velocity": 56}, {"time": 2048, "pitch": 61, "duration": 2, "velocity": 71}, {"time": 2048, "pitch": 64, "duration": 2, "velocity": 75}, {"time": 2048, "pitch": 67, "duration": 2, "velocity": 73}, {"time": 2060, "pitch": 52, "duration": 13, "velocity": 63}, {"time": 2060, "pitch": 59, "duration": 5, "velocity": 64}, {"time": 2060, "pitch": 64, "duration": 9, "velocity": 73}, {"time": 2068, "pitch": 59, "duration": 2, "velocity": 69}, {"time": 2072, "pitch": 59, "duration": 2, "velocity": 74}, {"time": 2072, "pitch": 64, "duration": 3, "velocity": 78}, {"time": 2072, "pitch": 67, "duration": 4, "velocity": 73}, {"time": 2084, "pitch": 48, "duration": 11, "velocity": 72}, {"time": 2084, "pitch": 55, "duration": 4, "velocity": 65}, {"time": 2084, "pitch": 60, "duration": 8, "velocity": 68}, {"time": 2092, "pitch": 55, "duration": 1, "velocity": 66}, {"time": 2096, "pitch": 55, "duration": 1, "velocity": 74}, {"time": 2096, "pitch": 60, "duration": 2, "velocity": 75}, {"time": 2096, "pitch": 64, "duration": 2, "velocity": 75}, {"time": 2100, "pitch": 55, "duration": 1, "velocity": 61}, {"time": 2104, "pitch": 60, "duration": 4, "velocity": 68}, {"time": 2108, "pitch": 38, "duration": 13, "velocity": 75}, {"time": 2108, "pitch": 57, "duration": 6, "velocity": 64}, {"time": 2108, "pitch": 62, "duration": 7, "velocity": 65}, {"time": 2116, "pitch": 45, "duration": 5, "velocity": 62}, {"time": 2120, "pitch": 57, "duration": 2, "velocity": 69}, {"time": 2120, "pitch": 62, "duration": 3, "velocity": 73}, {"time": 2120, "pitch": 66, "duration": 4, "velocity": 73}, {"time": 2132, "pitch": 43, "duration": 14, "velocity": 73}, {"time": 2132, "pitch": 55, "duration": 8, "velocity": 67}, {"time": 2132, "pitch": 59, "duration": 7, "velocity": 67}, {"time": 2140, "pitch": 50, "duration": 6, "velocity": 59}, {"time": 2144, "pitch": 55, "duration": 1, "velocity": 74}, {"time": 2144, "pitch": 59, "duration": 1, "velocity": 77}, {"time": 2144, "pitch": 62, "duration": 2, "velocity": 75}, {"time": 2148, "pitch": 57, "duration": 4, "velocity": 74}, {"time": 2152, "pitch": 58, "duration": 4, "velocity": 61}, {"time": 2156, "pitch": 47, "duration": 14, "velocity": 74}, {"time": 2156, "pitch": 59, "duration": 7, "velocity": 72}, {"time": 2164, "pitch": 54, "duration": 5, "velocity": 59}, {"time": 2168, "pitch": 59, "duration": 4, "velocity": 75}, {"time": 2168, "pitch": 63, "duration": 4, "velocity": 75}, {"time": 2168, "pitch": 66, "duration": 5, "velocity": 76}, {"time": 2172, "pitch": 51, "duration": 1, "velocity": 21}, {"time": 2180, "pitch": 48, "duration": 14, "velocity": 73}, {"time": 2180, "pitch": 55, "duration": 5, "velocity": 66}, {"time": 2180, "pitch": 60, "duration": 9, "velocity": 67}, {"time": 2180, "pitch": 64, "duration": 9, "velocity": 73}, {"time": 2188, "pitch": 55, "duration": 3, "velocity": 66}, {"time": 2192, "pitch": 55, "duration": 1, "velocity": 75}, {"time": 2192, "pitch": 60, "duration": 2, "velocity": 77}, {"time": 2192, "pitch": 64, "duration": 2, "velocity": 78}, {"time": 2204, "pitch": 50, "duration": 13, "velocity": 74}, {"time": 2204, "pitch": 57, "duration": 4, "velocity": 69}, {"time": 2204, "pitch": 62, "duration": 9, "velocity": 72}, {"time": 2204, "pitch": 66, "duration": 9, "velocity": 68}, {"time": 2212, "pitch": 57, "duration": 2, "velocity": 61}, {"time": 2216, "pitch": 57, "duration": 2, "velocity": 74}, {"time": 2216, "pitch": 62, "duration": 4, "velocity": 79}, {"time": 2216, "pitch": 66, "duration": 7, "velocity": 78}, {"time": 2220, "pitch": 57, "duration": 4, "velocity": 68}, {"time": 2224, "pitch": 62, "duration": 1, "velocity": 65}, {"time": 2228, "pitch": 45, "duration": 14, "velocity": 74}, {"time": 2228, "pitch": 57, "duration": 7, "velocity": 61}, {"time": 2228, "pitch": 61, "duration": 8, "velocity": 60}, {"time": 2236, "pitch": 52, "duration": 5, "velocity": 58}, {"time": 2240, "pitch": 57, "duration": 10, "velocity": 73}, {"time": 2240, "pitch": 61, "duration": 11, "velocity": 77}, {"time": 2240, "pitch": 64, "duration": 10, "velocity": 77}, {"time": 2252, "pitch": 55, "duration": 1, "velocity": 57}, {"time": 2252, "pitch": 52, "duration": 20, "velocity": 68}, {"time": 2252, "pitch": 64, "duration": 10, "velocity": 71}, {"time": 2252, "pitch": 71, "duration": 3, "velocity": 61}, {"time": 2260, "pitch": 59, "duration": 12, "velocity": 69}, {"time": 2264, "pitch": 64, "duration": 8, "velocity": 79}, {"time": 2264, "pitch": 67, "duration": 9, "velocity": 76}, {"time": 2276, "pitch": 48, "duration": 13, "velocity": 75}, {"time": 2276, "pitch": 55, "duration": 5, "velocity": 64}, {"time": 2276, "pitch": 60, "duration": 9, "velocity": 67}, {"time": 2284, "pitch": 55, "duration": 2, "velocity": 67}, {"time": 2288, "pitch": 55, "duration": 2, "velocity": 79}, {"time": 2288, "pitch": 60, "duration": 3, "velocity": 78}, {"time": 2288, "pitch": 64, "duration": 3, "velocity": 77}, {"time": 2300, "pitch": 38, "duration": 13, "velocity": 76}, {"time": 2300, "pitch": 57, "duration": 9, "velocity": 66}, {"time": 2300, "pitch": 62, "duration": 9, "velocity": 68}, {"time": 2300, "pitch": 66, "duration": 10, "velocity": 64}, {"time": 2308, "pitch": 45, "duration": 5, "velocity": 48}, {"time": 2312, "pitch": 57, "duration": 2, "velocity": 74}, {"time": 2312, "pitch": 62, "duration": 2, "velocity": 75}, {"time": 2312, "pitch": 66, "duration": 3, "velocity": 75}, {"time": 2324, "pitch": 40, "duration": 15, "velocity": 75}, {"time": 2324, "pitch": 55, "duration": 8, "velocity": 69}, {"time": 2324, "pitch": 59, "duration": 8, "velocity": 73}, {"time": 2324, "pitch": 64, "duration": 8, "velocity": 73}, {"time": 2332, "pitch": 47, "duration": 5, "velocity": 53}, {"time": 2336, "pitch": 55, "duration": 13, "velocity": 77}, {"time": 2336, "pitch": 59, "duration": 14, "velocity": 80}, {"time": 2336, "pitch": 64, "duration": 15, "velocity": 80}, {"time": 2340, "pitch": 47, "duration": 1, "velocity": 50}, {"time": 2344, "pitch": 38, "duration": 2, "velocity": 79}, {"time": 2348, "pitch": 40, "duration": 22, "velocity": 82}, {"time": 2356, "pitch": 55, "duration": 2, "velocity": 72}, {"time": 2360, "pitch": 55, "duration": 10, "velocity": 77}, {"time": 2360, "pitch": 59, "duration": 10, "velocity": 84}, {"time": 2360, "pitch": 64, "duration": 10, "velocity": 80}, {"time": 2372, "pitch": 36, "duration": 13, "velocity": 74}, {"time": 2372, "pitch": 55, "duration": 4, "velocity": 73}, {"time": 2372, "pitch": 60, "duration": 5, "velocity": 74}, {"time": 2372, "pitch": 64, "duration": 5, "velocity": 75}, {"time": 2380, "pitch": 55, "duration": 1, "velocity": 75}, {"time": 2384, "pitch": 55, "duration": 2, "velocity": 77}, {"time": 2384, "pitch": 60, "duration": 2, "velocity": 82}, {"time": 2384, "pitch": 64, "duration": 2, "velocity": 82}, {"time": 2392, "pitch": 36, "duration": 2, "velocity": 68}, {"time": 2392, "pitch": 55, "duration": 2, "velocity": 72}, {"time": 2392, "pitch": 60, "duration": 3, "velocity": 70}, {"time": 2396, "pitch": 38, "duration": 13, "velocity": 79}, {"time": 2396, "pitch": 57, "duration": 4, "velocity": 72}, {"time": 2396, "pitch": 62, "duration": 4, "velocity": 67}, {"time": 2404, "pitch": 57, "duration": 3, "velocity": 73}, {"time": 2408, "pitch": 57, "duration": 4, "velocity": 74}, {"time": 2408, "pitch": 62, "duration": 8, "velocity": 75}, {"time": 2408, "pitch": 66, "duration": 8, "velocity": 79}, {"time": 2416, "pitch": 57, "duration": 2, "velocity": 70}, {"time": 2420, "pitch": 43, "duration": 17, "velocity": 74}, {"time": 2420, "pitch": 55, "duration": 7, "velocity": 73}, {"time": 2420, "pitch": 59, "duration": 6, "velocity": 73}, {"time": 2428, "pitch": 50, "duration": 5, "velocity": 48}, {"time": 2432, "pitch": 55, "duration": 3, "velocity": 75}, {"time": 2432, "pitch": 59, "duration": 3, "velocity": 79}, {"time": 2432, "pitch": 62, "duration": 3, "velocity": 78}, {"time": 2436, "pitch": 50, "duration": 2, "velocity": 58}, {"time": 2440, "pitch": 54, "duration": 3, "velocity": 75}, {"time": 2444, "pitch": 40, "duration": 14, "velocity": 77}, {"time": 2444, "pitch": 52, "duration": 4, "velocity": 73}, {"time": 2444, "pitch": 55, "duration": 4, "velocity": 73}, {"time": 2452, "pitch": 47, "duration": 5, "velocity": 61}, {"time": 2456, "pitch": 52, "duration": 2, "velocity": 79}, {"time": 2456, "pitch": 55, "duration": 2, "velocity": 77}, {"time": 2456, "pitch": 59, "duration": 3, "velocity": 74}, {"time": 2460, "pitch": 40, "duration": 1, "velocity": 74}, {"time": 2468, "pitch": 48, "duration": 13, "velocity": 77}, {"time": 2468, "pitch": 55, "duration": 4, "velocity": 73}, {"time": 2468, "pitch": 60, "duration": 9, "velocity": 72}, {"time": 2476, "pitch": 55, "duration": 2, "velocity": 59}, {"time": 2480, "pitch": 55, "duration": 3, "velocity": 76}, {"time": 2480, "pitch": 60, "duration": 5, "velocity": 79}, {"time": 2480, "pitch": 64, "duration": 8, "velocity": 78}, {"time": 2488, "pitch": 55, "duration": 1, "velocity": 73}, {"time": 2492, "pitch": 38, "duration": 15, "velocity": 76}, {"time": 2492, "pitch": 57, "duration": 4, "velocity": 73}, {"time": 2492, "pitch": 62, "duration": 4, "velocity": 70}, {"time": 2500, "pitch": 57, "duration": 2, "velocity": 60}, {"time": 2504, "pitch": 57, "duration": 2, "velocity": 74}, {"time": 2504, "pitch": 62, "duration": 4, "velocity": 76}, {"time": 2504, "pitch": 66, "duration": 9, "velocity": 75}, {"time": 2508, "pitch": 57, "duration": 5, "velocity": 67}, {"time": 2512, "pitch": 62, "duration": 2, "velocity": 64}, {"time": 2516, "pitch": 40, "duration": 21, "velocity": 75}, {"time": 2516, "pitch": 59, "duration": 5, "velocity": 69}, {"time": 2516, "pitch": 64, "duration": 6, "velocity": 74}, {"time": 2524, "pitch": 59, "duration": 1, "velocity": 73}, {"time": 2528, "pitch": 59, "duration": 5, "velocity": 79}, {"time": 2528, "pitch": 67, "duration": 4, "velocity": 76}, {"time": 2532, "pitch": 66, "duration": 2, "velocity": 82}, {"time": 2540, "pitch": 40, "duration": 16, "velocity": 79}, {"time": 2540, "pitch": 59, "duration": 5, "velocity": 69}, {"time": 2540, "pitch": 64, "duration": 5, "velocity": 74}, {"time": 2544, "pitch": 47, "duration": 9, "velocity": 70}, {"time": 2548, "pitch": 59, "duration": 2, "velocity": 82}, {"time": 2552, "pitch": 59, "duration": 4, "velocity": 82}, {"time": 2552, "pitch": 64, "duration": 4, "velocity": 79}, {"time": 2556, "pitch": 47, "duration": 1, "velocity": 69}, {"time": 2564, "pitch": 48, "duration": 13, "velocity": 77}, {"time": 2564, "pitch": 55, "duration": 4, "velocity": 75}, {"time": 2564, "pitch": 60, "duration": 8, "velocity": 75}, {"time": 2572, "pitch": 55, "duration": 2, "velocity": 68}, {"time": 2576, "pitch": 55, "duration": 3, "velocity": 78}, {"time": 2576, "pitch": 60, "duration": 3, "velocity": 79}, {"time": 2576, "pitch": 64, "duration": 6, "velocity": 78}, {"time": 2584, "pitch": 55, "duration": 2, "velocity": 72}, {"time": 2588, "pitch": 38, "duration": 11, "velocity": 77}, {"time": 2588, "pitch": 57, "duration": 3, "velocity": 74}, {"time": 2588, "pitch": 62, "duration": 4, "velocity": 72}, {"time": 2596, "pitch": 57, "duration": 2, "velocity": 54}, {"time": 2600, "pitch": 57, "duration": 2, "velocity": 75}, {"time": 2600, "pitch": 62, "duration": 4, "velocity": 77}, {"time": 2600, "pitch": 66, "duration": 8, "velocity": 76}, {"time": 2604, "pitch": 57, "duration": 4, "velocity": 66}, {"time": 2608, "pitch": 62, "duration": 1, "velocity": 65}, {"time": 2612, "pitch": 43, "duration": 18, "velocity": 73}, {"time": 2612, "pitch": 55, "duration": 5, "velocity": 73}, {"time": 2612, "pitch": 59, "duration": 6, "velocity": 77}, {"time": 2620, "pitch": 55, "duration": 1, "velocity": 67}, {"time": 2624, "pitch": 55, "duration": 3, "velocity": 77}, {"time": 2624, "pitch": 59, "duration": 3, "velocity": 89}, {"time": 2624, "pitch": 62, "duration": 3, "velocity": 77}, {"time": 2628, "pitch": 50, "duration": 2, "velocity": 61}, {"time": 2632, "pitch": 54, "duration": 2, "velocity": 75}, {"time": 2636, "pitch": 40, "duration": 14, "velocity": 76}, {"time": 2636, "pitch": 52, "duration": 5, "velocity": 73}, {"time": 2636, "pitch": 55, "duration": 4, "velocity": 70}, {"time": 2644, "pitch": 47, "duration": 5, "velocity": 61}, {"time": 2648, "pitch": 52, "duration": 2, "velocity": 77}, {"time": 2648, "pitch": 55, "duration": 2, "velocity": 80}, {"time": 2648, "pitch": 59, "duration": 3, "velocity": 77}, {"time": 2660, "pitch": 48, "duration": 13, "velocity": 74}, {"time": 2660, "pitch": 55, "duration": 3, "velocity": 74}, {"time": 2660, "pitch": 60, "duration": 8, "velocity": 74}, {"time": 2668, "pitch": 55, "duration": 2, "velocity": 69}, {"time": 2672, "pitch": 55, "duration": 3, "velocity": 76}, {"time": 2672, "pitch": 60, "duration": 5, "velocity": 80}, {"time": 2672, "pitch": 64, "duration": 9, "velocity": 80}, {"time": 2680, "pitch": 55, "duration": 2, "velocity": 66}, {"time": 2684, "pitch": 50, "duration": 14, "velocity": 77}, {"time": 2684, "pitch": 57, "duration": 4, "velocity": 73}, {"time": 2684, "pitch": 62, "duration": 5, "velocity": 68}, {"time": 2692, "pitch": 57, "duration": 2, "velocity": 65}, {"time": 2696, "pitch": 57, "duration": 2, "velocity": 74}, {"time": 2696, "pitch": 62, "duration": 4, "velocity": 77}, {"time": 2696, "pitch": 66, "duration": 5, "velocity": 74}, {"time": 2708, "pitch": 40, "duration": 21, "velocity": 77}, {"time": 2708, "pitch": 59, "duration": 7, "velocity": 69}, {"time": 2708, "pitch": 64, "duration": 7, "velocity": 74}, {"time": 2716, "pitch": 47, "duration": 5, "velocity": 61}, {"time": 2720, "pitch": 59, "duration": 4, "velocity": 73}, {"time": 2720, "pitch": 64, "duration": 5, "velocity": 78}, {"time": 2720, "pitch": 67, "duration": 5, "velocity": 74}, {"time": 2724, "pitch": 47, "duration": 4, "velocity": 63}, {"time": 2728, "pitch": 62, "duration": 3, "velocity": 73}, {"time": 2732, "pitch": 40, "duration": 14, "velocity": 77}, {"time": 2732, "pitch": 55, "duration": 5, "velocity": 72}, {"time": 2732, "pitch": 59, "duration": 5, "velocity": 69}, {"time": 2732, "pitch": 64, "duration": 6, "velocity": 74}, {"time": 2740, "pitch": 55, "duration": 2, "velocity": 78}, {"time": 2744, "pitch": 55, "duration": 5, "velocity": 78}, {"time": 2744, "pitch": 59, "duration": 9, "velocity": 82}, {"time": 2744, "pitch": 64, "duration": 9, "velocity": 75}, {"time": 2748, "pitch": 40, "duration": 6, "velocity": 76}, {"time": 2752, "pitch": 55, "duration": 2, "velocity": 75}, {"time": 2756, "pitch": 36, "duration": 4, "velocity": 80}, {"time": 2756, "pitch": 55, "duration": 4, "velocity": 73}, {"time": 2756, "pitch": 60, "duration": 5, "velocity": 74}, {"time": 2756, "pitch": 64, "duration": 5, "velocity": 75}, {"time": 2764, "pitch": 36, "duration": 1, "velocity": 74}, {"time": 2764, "pitch": 55, "duration": 1, "velocity": 75}, {"time": 2768, "pitch": 36, "duration": 4, "velocity": 74}, {"time": 2768, "pitch": 55, "duration": 2, "velocity": 77}, {"time": 2768, "pitch": 60, "duration": 2, "velocity": 82}, {"time": 2768, "pitch": 64, "duration": 2, "velocity": 82}, {"time": 2776, "pitch": 36, "duration": 2, "velocity": 75}, {"time": 2776, "pitch": 55, "duration": 2, "velocity": 72}, {"time": 2776, "pitch": 60, "duration": 3, "velocity": 70}, {"time": 2780, "pitch": 38, "duration": 4, "velocity": 77}, {"time": 2780, "pitch": 57, "duration": 4, "velocity": 72}, {"time": 2780, "pitch": 62, "duration": 4, "velocity": 67}, {"time": 2788, "pitch": 38, "duration": 1, "velocity": 77}, {"time": 2788, "pitch": 57, "duration": 3, "velocity": 73}, {"time": 2792, "pitch": 38, "duration": 5, "velocity": 75}, {"time": 2792, "pitch": 57, "duration": 4, "velocity": 74}, {"time": 2792, "pitch": 62, "duration": 8, "velocity": 75}, {"time": 2792, "pitch": 66, "duration": 8, "velocity": 79}, {"time": 2800, "pitch": 38, "duration": 2, "velocity": 74}, {"time": 2800, "pitch": 57, "duration": 2, "velocity": 70}, {"time": 2804, "pitch": 43, "duration": 5, "velocity": 74}, {"time": 2804, "pitch": 55, "duration": 7, "velocity": 73}, {"time": 2804, "pitch": 59, "duration": 6, "velocity": 73}, {"time": 2812, "pitch": 43, "duration": 1, "velocity": 74}, {"time": 2812, "pitch": 50, "duration": 5, "velocity": 48}, {"time": 2816, "pitch": 43, "duration": 5, "velocity": 74}, {"time": 2816, "pitch": 55, "duration": 3, "velocity": 75}, {"time": 2816, "pitch": 59, "duration": 3, "velocity": 79}, {"time": 2816, "pitch": 62, "duration": 3, "velocity": 78}, {"time": 2820, "pitch": 50, "duration": 2, "velocity": 58}, {"time": 2824, "pitch": 43, "duration": 2, "velocity": 74}, {"time": 2824, "pitch": 54, "duration": 3, "velocity": 75}, {"time": 2828, "pitch": 40, "duration": 5, "velocity": 74}, {"time": 2828, "pitch": 52, "duration": 4, "velocity": 73}, {"time": 2828, "pitch": 55, "duration": 4, "velocity": 73}, {"time": 2836, "pitch": 40, "duration": 2, "velocity": 74}, {"time": 2836, "pitch": 47, "duration": 5, "velocity": 61}, {"time": 2840, "pitch": 40, "duration": 6, "velocity": 74}, {"time": 2840, "pitch": 52, "duration": 2, "velocity": 79}, {"time": 2840, "pitch": 55, "duration": 2, "velocity": 77}, {"time": 2840, "pitch": 59, "duration": 3, "velocity": 74}, {"time": 2848, "pitch": 40, "duration": 2, "velocity": 74}, {"time": 2852, "pitch": 36, "duration": 5, "velocity": 74}, {"time": 2852, "pitch": 48, "duration": 13, "velocity": 77}, {"time": 2852, "pitch": 55, "duration": 4, "velocity": 73}, {"time": 2852, "pitch": 60, "duration": 9, "velocity": 72}, {"time": 2860, "pitch": 36, "duration": 2, "velocity": 74}, {"time": 2860, "pitch": 55, "duration": 2, "velocity": 59}, {"time": 2864, "pitch": 36, "duration": 6, "velocity": 74}, {"time": 2864, "pitch": 55, "duration": 3, "velocity": 76}, {"time": 2864, "pitch": 60, "duration": 5, "velocity": 79}, {"time": 2864, "pitch": 64, "duration": 8, "velocity": 78}, {"time": 2872, "pitch": 36, "duration": 2, "velocity": 74}, {"time": 2872, "pitch": 55, "duration": 1, "velocity": 73}, {"time": 2876, "pitch": 38, "duration": 5, "velocity": 74}, {"time": 2876, "pitch": 57, "duration": 4, "velocity": 73}, {"time": 2876, "pitch": 62, "duration": 4, "velocity": 70}, {"time": 2884, "pitch": 38, "duration": 1, "velocity": 74}, {"time": 2884, "pitch": 57, "duration": 2, "velocity": 60}, {"time": 2888, "pitch": 38, "duration": 5, "velocity": 74}, {"time": 2888, "pitch": 57, "duration": 2, "velocity": 74}, {"time": 2888, "pitch": 62, "duration": 4, "velocity": 76}, {"time": 2888, "pitch": 66, "duration": 9, "velocity": 75}, {"time": 2892, "pitch": 57, "duration": 5, "velocity": 67}, {"time": 2896, "pitch": 38, "duration": 2, "velocity": 74}, {"time": 2896, "pitch": 62, "duration": 2, "velocity": 64}, {"time": 2900, "pitch": 40, "duration": 5, "velocity": 74}, {"time": 2900, "pitch": 59, "duration": 5, "velocity": 69}, {"time": 2900, "pitch": 64, "duration": 6, "velocity": 74}, {"time": 2908, "pitch": 40, "duration": 1, "velocity": 74}, {"time": 2908, "pitch": 59, "duration": 1, "velocity": 73}, {"time": 2912, "pitch": 40, "duration": 6, "velocity": 74}, {"time": 2912, "pitch": 59, "duration": 5, "velocity": 79}, {"time": 2912, "pitch": 67, "duration": 4, "velocity": 76}, {"time": 2916, "pitch": 66, "duration": 2, "velocity": 82}, {"time": 2920, "pitch": 40, "duration": 2, "velocity": 74}, {"time": 2924, "pitch": 40, "duration": 5, "velocity": 74}, {"time": 2924, "pitch": 59, "duration": 5, "velocity": 69}, {"time": 2924, "pitch": 64, "duration": 5, "velocity": 74}, {"time": 2928, "pitch": 47, "duration": 9, "velocity": 70}, {"time": 2932, "pitch": 40, "duration": 1, "velocity": 74}, {"time": 2932, "pitch": 59, "duration": 2, "velocity": 82}, {"time": 2936, "pitch": 40, "duration": 1, "velocity": 74}, {"time": 2936, "pitch": 59, "duration": 4, "velocity": 82}, {"time": 2936, "pitch": 64, "duration": 4, "velocity": 79}, {"time": 2940, "pitch": 40, "duration": 3, "velocity": 74}, {"time": 2940, "pitch": 47, "duration": 1, "velocity": 69}, {"time": 2944, "pitch": 38, "duration": 2, "velocity": 74}, {"time": 2948, "pitch": 36, "duration": 5, "velocity": 74}, {"time": 2948, "pitch": 48, "duration": 13, "velocity": 77}, {"time": 2948, "pitch": 55, "duration": 4, "velocity": 75}, {"time": 2948, "pitch": 60, "duration": 8, "velocity": 75}, {"time": 2956, "pitch": 36, "duration": 1, "velocity": 74}, {"time": 2956, "pitch": 55, "duration": 2, "velocity": 68}, {"time": 2960, "pitch": 36, "duration": 5, "velocity": 74}, {"time": 2960, "pitch": 55, "duration": 3, "velocity": 78}, {"time": 2960, "pitch": 60, "duration": 3, "velocity": 79}, {"time": 2960, "pitch": 64, "duration": 6, "velocity": 78}, {"time": 2968, "pitch": 36, "duration": 2, "velocity": 74}, {"time": 2968, "pitch": 55, "duration": 2, "velocity": 72}, {"time": 2972, "pitch": 38, "duration": 5, "velocity": 74}, {"time": 2972, "pitch": 57, "duration": 3, "velocity": 74}, {"time": 2972, "pitch": 62, "duration": 4, "velocity": 72}, {"time": 2980, "pitch": 38, "duration": 1, "velocity": 74}, {"time": 2980, "pitch": 57, "duration": 2, "velocity": 54}, {"time": 2984, "pitch": 38, "duration": 6, "velocity": 74}, {"time": 2984, "pitch": 57, "duration": 2, "velocity": 75}, {"time": 2984, "pitch": 62, "duration": 4, "velocity": 77}, {"time": 2984, "pitch": 66, "duration": 8, "velocity": 76}, {"time": 2988, "pitch": 57, "duration": 4, "velocity": 66}, {"time": 2992, "pitch": 38, "duration": 1, "velocity": 74}, {"time": 2992, "pitch": 62, "duration": 1, "velocity": 65}, {"time": 2996, "pitch": 43, "duration": 5, "velocity": 74}, {"time": 2996, "pitch": 55, "duration": 5, "velocity": 73}, {"time": 2996, "pitch": 59, "duration": 6, "velocity": 77}, {"time": 3004, "pitch": 43, "duration": 1, "velocity": 74}, {"time": 3004, "pitch": 55, "duration": 1, "velocity": 67}, {"time": 3008, "pitch": 43, "duration": 6, "velocity": 74}, {"time": 3008, "pitch": 55, "duration": 3, "velocity": 77}, {"time": 3008, "pitch": 59, "duration": 3, "velocity": 89}, {"time": 3008, "pitch": 62, "duration": 3, "velocity": 77}, {"time": 3012, "pitch": 50, "duration": 2, "velocity": 61}, {"time": 3016, "pitch": 43, "duration": 2, "velocity": 74}, {"time": 3016, "pitch": 54, "duration": 2, "velocity": 75}, {"time": 3020, "pitch": 40, "duration": 5, "velocity": 74}, {"time": 3020, "pitch": 52, "duration": 5, "velocity": 73}, {"time": 3020, "pitch": 55, "duration": 4, "velocity": 70}, {"time": 3028, "pitch": 40, "duration": 1, "velocity": 74}, {"time": 3028, "pitch": 47, "duration": 5, "velocity": 61}, {"time": 3032, "pitch": 40, "duration": 6, "velocity": 74}, {"time": 3032, "pitch": 52, "duration": 2, "velocity": 77}, {"time": 3032, "pitch": 55, "duration": 2, "velocity": 80}, {"time": 3032, "pitch": 59, "duration": 3, "velocity": 77}, {"time": 3040, "pitch": 40, "duration": 2, "velocity": 74}, {"time": 3044, "pitch": 36, "duration": 5, "velocity": 74}, {"time": 3044, "pitch": 48, "duration": 13, "velocity": 74}, {"time": 3044, "pitch": 55, "duration": 3, "velocity": 74}, {"time": 3044, "pitch": 60, "duration": 8, "velocity": 74}, {"time": 3052, "pitch": 36, "duration": 1, "velocity": 74}, {"time": 3052, "pitch": 55, "duration": 2, "velocity": 69}, {"time": 3056, "pitch": 36, "duration": 5, "velocity": 74}, {"time": 3056, "pitch": 55, "duration": 3, "velocity": 76}, {"time": 3056, "pitch": 60, "duration": 5, "velocity": 80}, {"time": 3056, "pitch": 64, "duration": 9, "velocity": 80}, {"time": 3064, "pitch": 36, "duration": 2, "velocity": 74}, {"time": 3064, "pitch": 55, "duration": 2, "velocity": 66}, {"time": 3068, "pitch": 38, "duration": 5, "velocity": 74}, {"time": 3068, "pitch": 50, "duration": 14, "velocity": 77}, {"time": 3068, "pitch": 57, "duration": 4, "velocity": 73}, {"time": 3068, "pitch": 62, "duration": 5, "velocity": 68}, {"time": 3076, "pitch": 38, "duration": 1, "velocity": 74}, {"time": 3076, "pitch": 57, "duration": 2, "velocity": 65}, {"time": 3080, "pitch": 38, "duration": 6, "velocity": 74}, {"time": 3080, "pitch": 57, "duration": 2, "velocity": 74}, {"time": 3080, "pitch": 62, "duration": 4, "velocity": 77}, {"time": 3080, "pitch": 66, "duration": 5, "velocity": 74}, {"time": 3088, "pitch": 38, "duration": 2, "velocity": 74}, {"time": 3092, "pitch": 40, "duration": 5, "velocity": 74}, {"time": 3092, "pitch": 59, "duration": 7, "velocity": 69}, {"time": 3092, "pitch": 64, "duration": 7, "velocity": 74}, {"time": 3100, "pitch": 40, "duration": 1, "velocity": 74}, {"time": 3100, "pitch": 47, "duration": 5, "velocity": 61}, {"time": 3104, "pitch": 40, "duration": 6, "velocity": 74}, {"time": 3104, "pitch": 59, "duration": 4, "velocity": 73}, {"time": 3104, "pitch": 64, "duration": 5, "velocity": 78}, {"time": 3104, "pitch": 67, "duration": 5, "velocity": 74}, {"time": 3108, "pitch": 47, "duration": 4, "velocity": 63}, {"time": 3112, "pitch": 40, "duration": 1, "velocity": 74}, {"time": 3112, "pitch": 62, "duration": 3, "velocity": 73}, {"time": 3116, "pitch": 40, "duration": 13, "velocity": 74}, {"time": 3116, "pitch": 52, "duration": 7, "velocity": 74}, {"time": 3116, "pitch": 55, "duration": 6, "velocity": 73}, {"time": 3124, "pitch": 47, "duration": 5, "velocity": 68}, {"time": 3128, "pitch": 52, "duration": 3, "velocity": 73}, {"time": 3128, "pitch": 55, "duration": 4, "velocity": 78}, {"time": 3128, "pitch": 59, "duration": 4, "velocity": 74}, {"time": 3128, "pitch": 64, "duration": 4, "velocity": 76}, {"time": 3132, "pitch": 47, "duration": 2, "velocity": 75}, {"time": 3140, "pitch": 48, "duration": 4, "velocity": 75}, {"time": 3140, "pitch": 52, "duration": 4, "velocity": 75}, {"time": 3148, "pitch": 48, "duration": 6, "velocity": 73}, {"time": 3152, "pitch": 60, "duration": 2, "velocity": 80}, {"time": 3152, "pitch": 64, "duration": 3, "velocity": 84}, {"time": 3156, "pitch": 55, "duration": 1, "velocity": 73}, {"time": 3160, "pitch": 48, "duration": 1, "velocity": 76}, {"time": 3164, "pitch": 62, "duration": 9, "velocity": 71}, {"time": 3164, "pitch": 66, "duration": 10, "velocity": 69}, {"time": 3172, "pitch": 50, "duration": 6, "velocity": 74}, {"time": 3176, "pitch": 62, "duration": 4, "velocity": 77}, {"time": 3176, "pitch": 66, "duration": 4, "velocity": 82}, {"time": 3180, "pitch": 57, "duration": 1, "velocity": 74}, {"time": 3188, "pitch": 64, "duration": 4, "velocity": 75}, {"time": 3188, "pitch": 67, "duration": 4, "velocity": 72}, {"time": 3196, "pitch": 47, "duration": 6, "velocity": 63}, {"time": 3200, "pitch": 55, "duration": 3, "velocity": 73}, {"time": 3200, "pitch": 59, "duration": 3, "velocity": 76}, {"time": 3200, "pitch": 64, "duration": 4, "velocity": 77}, {"time": 3204, "pitch": 47, "duration": 4, "velocity": 67}, {"time": 3208, "pitch": 55, "duration": 3, "velocity": 70}, {"time": 3212, "pitch": 55, "duration": 15, "velocity": 67}, {"time": 3212, "pitch": 59, "duration": 17, "velocity": 72}, {"time": 3212, "pitch": 64, "duration": 16, "velocity": 74}, {"time": 3236, "pitch": 40, "duration": 22, "velocity": 76}, {"time": 3236, "pitch": 52, "duration": 14, "velocity": 75}, {"time": 3236, "pitch": 59, "duration": 14, "velocity": 73}, {"time": 3252, "pitch": 59, "duration": 5, "velocity": 77}, {"time": 3252, "pitch": 64, "duration": 5, "velocity": 77}, {"time": 3256, "pitch": 47, "duration": 3, "velocity": 65}, {"time": 3260, "pitch": 40, "duration": 14, "velocity": 76}, {"time": 3260, "pitch": 52, "duration": 11, "velocity": 69}, {"time": 3260, "pitch": 59, "duration": 11, "velocity": 68}, {"time": 3272, "pitch": 52, "duration": 2, "velocity": 75}, {"time": 3272, "pitch": 59, "duration": 2, "velocity": 77}, {"time": 3272, "pitch": 64, "duration": 3, "velocity": 74}, {"time": 3284, "pitch": 37, "duration": 20, "velocity": 66}, {"time": 3284, "pitch": 61, "duration": 13, "velocity": 66}, {"time": 3284, "pitch": 64, "duration": 13, "velocity": 73}, {"time": 3300, "pitch": 61, "duration": 4, "velocity": 75}, {"time": 3300, "pitch": 64, "duration": 6, "velocity": 77}, {"time": 3304, "pitch": 57, "duration": 3, "velocity": 69}, {"time": 3308, "pitch": 37, "duration": 11, "velocity": 65}, {"time": 3308, "pitch": 57, "duration": 10, "velocity": 66}, {"time": 3308, "pitch": 61, "duration": 10, "velocity": 62}, {"time": 3308, "pitch": 64, "duration": 10, "velocity": 74}, {"time": 3320, "pitch": 57, "duration": 2, "velocity": 74}, {"time": 3320, "pitch": 61, "duration": 5, "velocity": 75}, {"time": 3320, "pitch": 64, "duration": 6, "velocity": 77}, {"time": 3324, "pitch": 57, "duration": 2, "velocity": 67}, {"time": 3332, "pitch": 48, "duration": 13, "velocity": 76}, {"time": 3332, "pitch": 55, "duration": 5, "velocity": 74}, {"time": 3332, "pitch": 60, "duration": 9, "velocity": 73}, {"time": 3332, "pitch": 64, "duration": 9, "velocity": 75}, {"time": 3344, "pitch": 55, "duration": 3, "velocity": 75}, {"time": 3344, "pitch": 60, "duration": 3, "velocity": 77}, {"time": 3344, "pitch": 64, "duration": 4, "velocity": 77}, {"time": 3356, "pitch": 55, "duration": 5, "velocity": 66}, {"time": 3356, "pitch": 60, "duration": 8, "velocity": 69}, {"time": 3356, "pitch": 64, "duration": 8, "velocity": 75}, {"time": 3364, "pitch": 55, "duration": 1, "velocity": 58}, {"time": 3372, "pitch": 48, "duration": 4, "velocity": 78}, {"time": 3376, "pitch": 55, "duration": 2, "velocity": 77}, {"time": 3376, "pitch": 60, "duration": 2, "velocity": 79}, {"time": 3376, "pitch": 64, "duration": 3, "velocity": 80}, {"time": 3380, "pitch": 43, "duration": 16, "velocity": 77}, {"time": 3380, "pitch": 55, "duration": 8, "velocity": 73}, {"time": 3380, "pitch": 59, "duration": 8, "velocity": 69}, {"time": 3388, "pitch": 50, "duration": 6, "velocity": 58}, {"time": 3392, "pitch": 55, "duration": 3, "velocity": 75}, {"time": 3392, "pitch": 59, "duration": 2, "velocity": 78}, {"time": 3392, "pitch": 62, "duration": 3, "velocity": 75}, {"time": 3400, "pitch": 57, "duration": 2, "velocity": 70}, {"time": 3404, "pitch": 47, "duration": 10, "velocity": 77}, {"time": 3404, "pitch": 59, "duration": 6, "velocity": 70}, {"time": 3412, "pitch": 59, "duration": 2, "velocity": 75}, {"time": 3416, "pitch": 59, "duration": 5, "velocity": 84}, {"time": 3416, "pitch": 63, "duration": 9, "velocity": 90}, {"time": 3416, "pitch": 66, "duration": 9, "velocity": 80}, {"time": 3420, "pitch": 54, "duration": 5, "velocity": 77}, {"time": 3424, "pitch": 59, "duration": 2, "velocity": 78}, {"time": 3428, "pitch": 40, "duration": 4, "velocity": 75}, {"time": 3428, "pitch": 52, "duration": 3, "velocity": 73}, {"time": 3428, "pitch": 55, "duration": 2, "velocity": 72}, {"time": 3428, "pitch": 59, "duration": 3, "velocity": 70}, {"time": 3428, "pitch": 64, "duration": 3, "velocity": 74}, {"time": 3436, "pitch": 40, "duration": 8, "velocity": 68}, {"time": 3440, "pitch": 52, "duration": 4, "velocity": 80}, {"time": 3440, "pitch": 55, "duration": 4, "velocity": 76}, {"time": 3440, "pitch": 59, "duration": 4, "velocity": 76}, {"time": 3440, "pitch": 64, "duration": 5, "velocity": 76}, {"time": 3444, "pitch": 47, "duration": 1, "velocity": 42}, {"time": 3448, "pitch": 40, "duration": 2, "velocity": 75}, {"time": 3452, "pitch": 38, "duration": 4, "velocity": 76}, {"time": 3452, "pitch": 50, "duration": 3, "velocity": 73}, {"time": 3452, "pitch": 54, "duration": 3, "velocity": 68}, {"time": 3452, "pitch": 57, "duration": 3, "velocity": 67}, {"time": 3460, "pitch": 38, "duration": 8, "velocity": 84}, {"time": 3464, "pitch": 50, "duration": 3, "velocity": 77}, {"time": 3464, "pitch": 54, "duration": 3, "velocity": 79}, {"time": 3464, "pitch": 57, "duration": 3, "velocity": 77}, {"time": 3464, "pitch": 62, "duration": 4, "velocity": 75}, {"time": 3468, "pitch": 45, "duration": 2, "velocity": 64}, {"time": 3472, "pitch": 38, "duration": 2, "velocity": 75}, {"time": 3476, "pitch": 37, "duration": 3, "velocity": 73}, {"time": 3476, "pitch": 61, "duration": 3, "velocity": 69}, {"time": 3476, "pitch": 64, "duration": 3, "velocity": 80}, {"time": 3476, "pitch": 67, "duration": 3, "velocity": 69}, {"time": 3484, "pitch": 37, "duration": 6, "velocity": 73}, {"time": 3488, "pitch": 61, "duration": 2, "velocity": 73}, {"time": 3488, "pitch": 64, "duration": 4, "velocity": 77}, {"time": 3488, "pitch": 67, "duration": 5, "velocity": 74}, {"time": 3492, "pitch": 61, "duration": 1, "velocity": 73}, {"time": 3500, "pitch": 48, "duration": 14, "velocity": 77}, {"time": 3500, "pitch": 55, "duration": 4, "velocity": 74}, {"time": 3500, "pitch": 60, "duration": 4, "velocity": 73}, {"time": 3508, "pitch": 55, "duration": 2, "velocity": 77}, {"time": 3512, "pitch": 55, "duration": 3, "velocity": 79}, {"time": 3512, "pitch": 60, "duration": 5, "velocity": 82}, {"time": 3512, "pitch": 64, "duration": 7, "velocity": 84}, {"time": 3524, "pitch": 45, "duration": 16, "velocity": 75}, {"time": 3524, "pitch": 57, "duration": 5, "velocity": 68}, {"time": 3524, "pitch": 61, "duration": 6, "velocity": 73}, {"time": 3524, "pitch": 64, "duration": 6, "velocity": 75}, {"time": 3532, "pitch": 52, "duration": 5, "velocity": 59}, {"time": 3536, "pitch": 57, "duration": 4, "velocity": 75}, {"time": 3536, "pitch": 61, "duration": 4, "velocity": 87}, {"time": 3536, "pitch": 64, "duration": 4, "velocity": 79}, {"time": 3536, "pitch": 69, "duration": 4, "velocity": 72}, {"time": 3540, "pitch": 52, "duration": 1, "velocity": 67}, {"time": 3544, "pitch": 45, "duration": 1, "velocity": 73}, {"time": 3548, "pitch": 38, "duration": 16, "velocity": 79}, {"time": 3556, "pitch": 50, "duration": 2, "velocity": 76}, {"time": 3560, "pitch": 50, "duration": 3, "velocity": 80}, {"time": 3560, "pitch": 54, "duration": 4, "velocity": 80}, {"time": 3560, "pitch": 57, "duration": 4, "velocity": 76}, {"time": 3560, "pitch": 62, "duration": 5, "velocity": 75}, {"time": 3564, "pitch": 45, "duration": 2, "velocity": 61}, {"time": 3572, "pitch": 40, "duration": 3, "velocity": 80}, {"time": 3572, "pitch": 52, "duration": 2, "velocity": 72}, {"time": 3572, "pitch": 55, "duration": 2, "velocity": 73}, {"time": 3572, "pitch": 64, "duration": 2, "velocity": 75}, {"time": 3580, "pitch": 40, "duration": 13, "velocity": 75}, {"time": 3584, "pitch": 52, "duration": 4, "velocity": 77}, {"time": 3584, "pitch": 55, "duration": 5, "velocity": 78}, {"time": 3584, "pitch": 64, "duration": 3, "velocity": 79}, {"time": 3588, "pitch": 47, "duration": 5, "velocity": 73}, {"time": 3592, "pitch": 52, "duration": 1, "velocity": 73}, {"time": 3592, "pitch": 55, "duration": 2, "velocity": 72}, {"time": 3592, "pitch": 62, "duration": 1, "velocity": 68}, {"time": 3596, "pitch": 40, "duration": 21, "velocity": 79}, {"time": 3596, "pitch": 52, "duration": 21, "velocity": 75}, {"time": 3596, "pitch": 55, "duration": 21, "velocity": 75}, {"time": 3596, "pitch": 64, "duration": 21, "velocity": 82}, {"time": 3628, "pitch": 76, "duration": 9, "velocity": 69}, {"time": 3629, "pitch": 71, "duration": 11, "velocity": 73}, {"time": 3630, "pitch": 67, "duration": 9, "velocity": 64}, {"time": 3632, "pitch": 40, "duration": 9, "velocity": 75}, {"time": 3632, "pitch": 64, "duration": 6, "velocity": 73}, {"time": 3636, "pitch": 47, "duration": 5, "velocity": 57}, {"time": 3640, "pitch": 64, "duration": 6, "velocity": 67}, {"time": 3644, "pitch": 67, "duration": 5, "velocity": 55}], "annotations": [{"time": 21, "annotation": {"number": 64, "value": 127}, "group": "control_change"}, {"time": 21, "annotation": {"number": 64, "value": 0}, "group": "control_change"}, {"time": 66, "annotation": {"number": 64, "value": 0}, "group": "control_change"}, {"time": 68, "annotation": {"number": 64, "value": 127}, "group": "control_change"}, {"time": 114, "annotation": {"number": 64, "value": 0}, "group": "control_change"}, {"time": 116, "annotation": {"number": 64, "value": 127}, "group": "control_change"}, {"time": 139, "annotation": {"number": 64, "value": 0}, "group": "control_change"}, {"time": 141, "annotation": {"number": 64, "value": 127}, "group": "control_change"}, {"time": 162, "annotation": {"number": 64, "value": 0}, "group": "control_change"}, {"time": 164, "annotation": {"number": 64, "value": 127}, "group": "control_change"}, {"time": 210, "annotation": {"number": 64, "value": 0}, "group": "control_change"}, {"time": 249, "annotation": {"number": 64, "value": 127}, "group": "control_change"}, {"time": 257, "annotation": {"number": 64, "value": 0}, "group": "control_change"}, {"time": 271, "annotation": {"number": 64, "value": 127}, "group": "control_change"}, {"time": 274, "annotation": {"number": 64, "value": 0}, "group": "control_change"}, {"time": 281, "annotation": {"number": 64, "value": 127}, "group": "control_change"}, {"time": 306, "annotation": {"number": 64, "value": 0}, "group": "control_change"}, {"time": 309, "annotation": {"number": 64, "value": 127}, "group": "control_change"}, {"time": 332, "annotation": {"number": 64, "value": 0}, "group": "control_change"}, {"time": 335, "annotation": {"number": 64, "value": 127}, "group": "control_change"}, {"time": 354, "annotation": {"number": 64, "value": 0}, "group": "control_change"}, {"time": 404, "annotation": {"number": 64, "value": 127}, "group": "control_change"}, {"time": 404, "annotation": {"number": 64, "value": 0}, "group": "control_change"}, {"time": 416, "annotation": {"number": 64, "value": 0}, "group": "control_change"}, {"time": 429, "annotation": {"number": 64, "value": 127}, "group": "control_change"}, {"time": 429, "annotation": {"number": 64, "value": 0}, "group": "control_change"}, {"time": 447, "annotation": {"number": 64, "value": 0}, "group": "control_change"}, {"time": 453, "annotation": {"number": 64, "value": 127}, "group": "control_change"}, {"time": 474, "annotation": {"number": 64, "value": 0}, "group": "control_change"}, {"time": 481, "annotation": {"number": 64, "value": 127}, "group": "control_change"}, {"time": 497, "annotation": {"number": 64, "value": 0}, "group": "control_change"}, {"time": 503, "annotation": {"number": 64, "value": 127}, "group": "control_change"}, {"time": 516, "annotation": {"number": 64, "value": 0}, "group": "control_change"}, {"time": 529, "annotation": {"number": 64, "value": 127}, "group": "control_change"}, {"time": 546, "annotation": {"number": 64, "value": 0}, "group": "control_change"}, {"time": 550, "annotation": {"number": 64, "value": 127}, "group": "control_change"}, {"time": 564, "annotation": {"number": 64, "value": 0}, "group": "control_change"}, {"time": 572, "annotation": {"number": 64, "value": 127}, "group": "control_change"}, {"time": 594, "annotation": {"number": 64, "value": 0}, "group": "control_change"}, {"time": 602, "annotation": {"number": 64, "value": 127}, "group": "control_change"}, {"time": 610, "annotation": {"number": 64, "value": 0}, "group": "control_change"}, {"time": 620, "annotation": {"number": 64, "value": 127}, "group": "control_change"}, {"time": 621, "annotation": {"number": 64, "value": 0}, "group": "control_change"}, {"time": 621, "annotation": {"number": 64, "value": 127}, "group": "control_change"}, {"time": 641, "annotation": {"number": 64, "value": 0}, "group": "control_change"}, {"time": 646, "annotation": {"number": 64, "value": 127}, "group": "control_change"}, {"time": 646, "annotation": {"number": 64, "value": 0}, "group": "control_change"}, {"time": 647, "annotation": {"number": 64, "value": 127}, "group": "control_change"}, {"time": 658, "annotation": {"number": 64, "value": 0}, "group": "control_change"}, {"time": 698, "annotation": {"number": 64, "value": 127}, "group": "control_change"}, {"time": 698, "annotation": {"number": 64, "value": 0}, "group": "control_change"}, {"time": 713, "annotation": {"number": 64, "value": 0}, "group": "control_change"}, {"time": 720, "annotation": {"number": 64, "value": 127}, "group": "control_change"}, {"time": 736, "annotation": {"number": 64, "value": 0}, "group": "control_change"}, {"time": 741, "annotation": {"number": 64, "value": 127}, "group": "control_change"}, {"time": 762, "annotation": {"number": 64, "value": 0}, "group": "control_change"}, {"time": 765, "annotation": {"number": 64, "value": 127}, "group": "control_change"}, {"time": 778, "annotation": {"number": 64, "value": 0}, "group": "control_change"}, {"time": 788, "annotation": {"number": 64, "value": 127}, "group": "control_change"}, {"time": 788, "annotation": {"number": 64, "value": 0}, "group": "control_change"}, {"time": 800, "annotation": {"number": 64, "value": 0}, "group": "control_change"}, {"time": 813, "annotation": {"number": 64, "value": 127}, "group": "control_change"}, {"time": 813, "annotation": {"number": 64, "value": 0}, "group": "control_change"}, {"time": 831, "annotation": {"number": 64, "value": 0}, "group": "control_change"}, {"time": 837, "annotation": {"number": 64, "value": 127}, "group": "control_change"}, {"time": 858, "annotation": {"number": 64, "value": 0}, "group": "control_change"}, {"time": 865, "annotation": {"number": 64, "value": 127}, "group": "control_change"}, {"time": 881, "annotation": {"number": 64, "value": 0}, "group": "control_change"}, {"time": 887, "annotation": {"number": 64, "value": 127}, "group": "control_change"}, {"time": 900, "annotation": {"number": 64, "value": 0}, "group": "control_change"}, {"time": 913, "annotation": {"number": 64, "value": 127}, "group": "control_change"}, {"time": 930, "annotation": {"number": 64, "value": 0}, "group": "control_change"}, {"time": 934, "annotation": {"number": 64, "value": 127}, "group": "control_change"}, {"time": 948, "annotation": {"number": 64, "value": 0}, "group": "control_change"}, {"time": 956, "annotation": {"number": 64, "value": 127}, "group": "control_change"}, {"time": 978, "annotation": {"number": 64, "value": 0}, "group": "control_change"}, {"time": 986, "annotation": {"number": 64, "value": 127}, "group": "control_change"}, {"time": 994, "annotation": {"number": 64, "value": 0}, "group": "control_change"}, {"time": 1004, "annotation": {"number": 64, "value": 127}, "group": "control_change"}, {"time": 1005, "annotation": {"number": 64, "value": 0}, "group": "control_change"}, {"time": 1005, "annotation": {"number": 64, "value": 127}, "group": "control_change"}, {"time": 1025, "annotation": {"number": 64, "value": 0}, "group": "control_change"}, {"time": 1030, "annotation": {"number": 64, "value": 127}, "group": "control_change"}, {"time": 1030, "annotation": {"number": 64, "value": 0}, "group": "control_change"}, {"time": 1031, "annotation": {"number": 64, "value": 127}, "group": "control_change"}, {"time": 1042, "annotation": {"number": 64, "value": 0}, "group": "control_change"}, {"time": 1082, "annotation": {"number": 64, "value": 127}, "group": "control_change"}, {"time": 1082, "annotation": {"number": 64, "value": 0}, "group": "control_change"}, {"time": 1097, "annotation": {"number": 64, "value": 0}, "group": "control_change"}, {"time": 1104, "annotation": {"number": 64, "value": 127}, "group": "control_change"}, {"time": 1120, "annotation": {"number": 64, "value": 0}, "group": "control_change"}, {"time": 1124, "annotation": {"number": 64, "value": 127}, "group": "control_change"}, {"time": 1146, "annotation": {"number": 64, "value": 0}, "group": "control_change"}, {"time": 1148, "annotation": {"number": 64, "value": 127}, "group": "control_change"}, {"time": 1166, "annotation": {"number": 64, "value": 0}, "group": "control_change"}, {"time": 1173, "annotation": {"number": 64, "value": 127}, "group": "control_change"}, {"time": 1188, "annotation": {"number": 64, "value": 0}, "group": "control_change"}, {"time": 1190, "annotation": {"number": 64, "value": 127}, "group": "control_change"}, {"time": 1193, "annotation": {"number": 64, "value": 0}, "group": "control_change"}, {"time": 1195, "annotation": {"number": 64, "value": 127}, "group": "control_change"}, {"time": 1218, "annotation": {"number": 64, "value": 0}, "group": "control_change"}, {"time": 1221, "annotation": {"number": 64, "value": 127}, "group": "control_change"}, {"time": 1242, "annotation": {"number": 64, "value": 0}, "group": "control_change"}, {"time": 1245, "annotation": {"number": 64, "value": 127}, "group": "control_change"}, {"time": 1267, "annotation": {"number": 64, "value": 0}, "group": "control_change"}, {"time": 1270, "annotation": {"number": 64, "value": 127}, "group": "control_change"}, {"time": 1290, "annotation": {"number": 64, "value": 0}, "group": "control_change"}, {"time": 1293, "annotation": {"number": 64, "value": 127}, "group": "control_change"}, {"time": 1315, "annotation": {"number": 64, "value": 0}, "group": "control_change"}, {"time": 1318, "annotation": {"number": 64, "value": 127}, "group": "control_change"}, {"time": 1338, "annotation": {"number": 64, "value": 0}, "group": "control_change"}, {"time": 1340, "annotation": {"number": 64, "value": 127}, "group": "control_change"}, {"time": 1363, "annotation": {"number": 64, "value": 0}, "group": "control_change"}, {"time": 1365, "annotation": {"number": 64, "value": 127}, "group": "control_change"}, {"time": 1386, "annotation": {"number": 64, "value": 0}, "group": "control_change"}, {"time": 1389, "annotation": {"number": 64, "value": 127}, "group": "control_change"}, {"time": 1411, "annotation": {"number": 64, "value": 0}, "group": "control_change"}, {"time": 1414, "annotation": {"number": 64, "value": 127}, "group": "control_change"}, {"time": 1433, "annotation": {"number": 64, "value": 0}, "group": "control_change"}, {"time": 1436, "annotation": {"number": 64, "value": 127}, "group": "control_change"}, {"time": 1459, "annotation": {"number": 64, "value": 0}, "group": "control_change"}, {"time": 1462, "annotation": {"number": 64, "value": 127}, "group": "control_change"}, {"time": 1482, "annotation": {"number": 64, "value": 0}, "group": "control_change"}, {"time": 1484, "annotation": {"number": 64, "value": 127}, "group": "control_change"}, {"time": 1506, "annotation": {"number": 64, "value": 0}, "group": "control_change"}, {"time": 1508, "annotation": {"number": 64, "value": 127}, "group": "control_change"}, {"time": 1530, "annotation": {"number": 64, "value": 0}, "group": "control_change"}, {"time": 1532, "annotation": {"number": 64, "value": 127}, "group": "control_change"}, {"time": 1546, "annotation": {"number": 64, "value": 0}, "group": "control_change"}, {"time": 1558, "annotation": {"number": 64, "value": 127}, "group": "control_change"}, {"time": 1558, "annotation": {"number": 64, "value": 0}, "group": "control_change"}, {"time": 1603, "annotation": {"number": 64, "value": 0}, "group": "control_change"}, {"time": 1605, "annotation": {"number": 64, "value": 127}, "group": "control_change"}, {"time": 1627, "annotation": {"number": 64, "value": 0}, "group": "control_change"}, {"time": 1628, "annotation": {"number": 64, "value": 127}, "group": "control_change"}, {"time": 1651, "annotation": {"number": 64, "value": 0}, "group": "control_change"}, {"time": 1653, "annotation": {"number": 64, "value": 127}, "group": "control_change"}, {"time": 1700, "annotation": {"number": 64, "value": 0}, "group": "control_change"}, {"time": 1702, "annotation": {"number": 64, "value": 127}, "group": "control_change"}, {"time": 1722, "annotation": {"number": 64, "value": 0}, "group": "control_change"}, {"time": 1724, "annotation": {"number": 64, "value": 127}, "group": "control_change"}, {"time": 1740, "annotation": {"number": 64, "value": 0}, "group": "control_change"}, {"time": 1749, "annotation": {"number": 64, "value": 127}, "group": "control_change"}, {"time": 1750, "annotation": {"number": 64, "value": 0}, "group": "control_change"}, {"time": 1758, "annotation": {"number": 64, "value": 127}, "group": "control_change"}, {"time": 1770, "annotation": {"number": 64, "value": 0}, "group": "control_change"}, {"time": 1784, "annotation": {"number": 64, "value": 127}, "group": "control_change"}, {"time": 1794, "annotation": {"number": 64, "value": 0}, "group": "control_change"}, {"time": 1796, "annotation": {"number": 64, "value": 127}, "group": "control_change"}, {"time": 1799, "annotation": {"number": 64, "value": 0}, "group": "control_change"}, {"time": 1804, "annotation": {"number": 64, "value": 127}, "group": "control_change"}, {"time": 1819, "annotation": {"number": 64, "value": 0}, "group": "control_change"}, {"time": 1823, "annotation": {"number": 64, "value": 127}, "group": "control_change"}, {"time": 1841, "annotation": {"number": 64, "value": 0}, "group": "control_change"}, {"time": 1846, "annotation": {"number": 64, "value": 127}, "group": "control_change"}, {"time": 1866, "annotation": {"number": 64, "value": 0}, "group": "control_change"}, {"time": 1872, "annotation": {"number": 64, "value": 127}, "group": "control_change"}, {"time": 1889, "annotation": {"number": 64, "value": 0}, "group": "control_change"}, {"time": 1893, "annotation": {"number": 64, "value": 127}, "group": "control_change"}, {"time": 1894, "annotation": {"number": 64, "value": 0}, "group": "control_change"}, {"time": 1902, "annotation": {"number": 64, "value": 127}, "group": "control_change"}, {"time": 1914, "annotation": {"number": 64, "value": 0}, "group": "control_change"}, {"time": 1939, "annotation": {"number": 64, "value": 127}, "group": "control_change"}, {"time": 1963, "annotation": {"number": 64, "value": 0}, "group": "control_change"}, {"time": 1988, "annotation": {"number": 64, "value": 127}, "group": "control_change"}, {"time": 1988, "annotation": {"number": 64, "value": 0}, "group": "control_change"}, {"time": 2000, "annotation": {"number": 64, "value": 0}, "group": "control_change"}, {"time": 2013, "annotation": {"number": 64, "value": 127}, "group": "control_change"}, {"time": 2013, "annotation": {"number": 64, "value": 0}, "group": "control_change"}, {"time": 2031, "annotation": {"number": 64, "value": 0}, "group": "control_change"}, {"time": 2037, "annotation": {"number": 64, "value": 127}, "group": "control_change"}, {"time": 2058, "annotation": {"number": 64, "value": 0}, "group": "control_change"}, {"time": 2065, "annotation": {"number": 64, "value": 127}, "group": "control_change"}, {"time": 2081, "annotation": {"number": 64, "value": 0}, "group": "control_change"}, {"time": 2087, "annotation": {"number": 64, "value": 127}, "group": "control_change"}, {"time": 2100, "annotation": {"number": 64, "value": 0}, "group": "control_change"}, {"time": 2113, "annotation": {"number": 64, "value": 127}, "group": "control_change"}, {"time": 2130, "annotation": {"number": 64, "value": 0}, "group": "control_change"}, {"time": 2134, "annotation": {"number": 64, "value": 127}, "group": "control_change"}, {"time": 2148, "annotation": {"number": 64, "value": 0}, "group": "control_change"}, {"time": 2156, "annotation": {"number": 64, "value": 127}, "group": "control_change"}, {"time": 2178, "annotation": {"number": 64, "value": 0}, "group": "control_change"}, {"time": 2186, "annotation": {"number": 64, "value": 127}, "group": "control_change"}, {"time": 2194, "annotation": {"number": 64, "value": 0}, "group": "control_change"}, {"time": 2204, "annotation": {"number": 64, "value": 127}, "group": "control_change"}, {"time": 2205, "annotation": {"number": 64, "value": 0}, "group": "control_change"}, {"time": 2205, "annotation": {"number": 64, "value": 127}, "group": "control_change"}, {"time": 2225, "annotation": {"number": 64, "value": 0}, "group": "control_change"}, {"time": 2230, "annotation": {"number": 64, "value": 127}, "group": "control_change"}, {"time": 2230, "annotation": {"number": 64, "value": 0}, "group": "control_change"}, {"time": 2231, "annotation": {"number": 64, "value": 127}, "group": "control_change"}, {"time": 2242, "annotation": {"number": 64, "value": 0}, "group": "control_change"}, {"time": 2282, "annotation": {"number": 64, "value": 127}, "group": "control_change"}, {"time": 2282, "annotation": {"number": 64, "value": 0}, "group": "control_change"}, {"time": 2297, "annotation": {"number": 64, "value": 0}, "group": "control_change"}, {"time": 2304, "annotation": {"number": 64, "value": 127}, "group": "control_change"}, {"time": 2320, "annotation": {"number": 64, "value": 0}, "group": "control_change"}, {"time": 2324, "annotation": {"number": 64, "value": 127}, "group": "control_change"}, {"time": 2346, "annotation": {"number": 64, "value": 0}, "group": "control_change"}, {"time": 2348, "annotation": {"number": 64, "value": 127}, "group": "control_change"}, {"time": 2366, "annotation": {"number": 64, "value": 0}, "group": "control_change"}, {"time": 2388, "annotation": {"number": 64, "value": 0}, "group": "control_change"}, {"time": 2390, "annotation": {"number": 64, "value": 127}, "group": "control_change"}, {"time": 2393, "annotation": {"number": 64, "value": 0}, "group": "control_change"}, {"time": 2395, "annotation": {"number": 64, "value": 127}, "group": "control_change"}, {"time": 2418, "annotation": {"number": 64, "value": 0}, "group": "control_change"}, {"time": 2421, "annotation": {"number": 64, "value": 127}, "group": "control_change"}, {"time": 2442, "annotation": {"number": 64, "value": 0}, "group": "control_change"}, {"time": 2445, "annotation": {"number": 64, "value": 127}, "group": "control_change"}, {"time": 2467, "annotation": {"number": 64, "value": 0}, "group": "control_change"}, {"time": 2470, "annotation": {"number": 64, "value": 127}, "group": "control_change"}, {"time": 2490, "annotation": {"number": 64, "value": 0}, "group": "control_change"}, {"time": 2493, "annotation": {"number": 64, "value": 127}, "group": "control_change"}, {"time": 2515, "annotation": {"number": 64, "value": 0}, "group": "control_change"}, {"time": 2518, "annotation": {"number": 64, "value": 127}, "group": "control_change"}, {"time": 2538, "annotation": {"number": 64, "value": 0}, "group": "control_change"}, {"time": 2540, "annotation": {"number": 64, "value": 127}, "group": "control_change"}, {"time": 2563, "annotation": {"number": 64, "value": 0}, "group": "control_change"}, {"time": 2565, "annotation": {"number": 64, "value": 127}, "group": "control_change"}, {"time": 2586, "annotation": {"number": 64, "value": 0}, "group": "control_change"}, {"time": 2589, "annotation": {"number": 64, "value": 127}, "group": "control_change"}, {"time": 2611, "annotation": {"number": 64, "value": 0}, "group": "control_change"}, {"time": 2614, "annotation": {"number": 64, "value": 127}, "group": "control_change"}, {"time": 2633, "annotation": {"number": 64, "value": 0}, "group": "control_change"}, {"time": 2636, "annotation": {"number": 64, "value": 127}, "group": "control_change"}, {"time": 2659, "annotation": {"number": 64, "value": 0}, "group": "control_change"}, {"time": 2662, "annotation": {"number": 64, "value": 127}, "group": "control_change"}, {"time": 2682, "annotation": {"number": 64, "value": 0}, "group": "control_change"}, {"time": 2684, "annotation": {"number": 64, "value": 127}, "group": "control_change"}, {"time": 2706, "annotation": {"number": 64, "value": 0}, "group": "control_change"}, {"time": 2708, "annotation": {"number": 64, "value": 127}, "group": "control_change"}, {"time": 2730, "annotation": {"number": 64, "value": 0}, "group": "control_change"}, {"time": 2732, "annotation": {"number": 64, "value": 127}, "group": "control_change"}, {"time": 2749, "annotation": {"number": 64, "value": 0}, "group": "control_change"}, {"time": 2772, "annotation": {"number": 64, "value": 0}, "group": "control_change"}, {"time": 2774, "annotation": {"number": 64, "value": 127}, "group": "control_change"}, {"time": 2777, "annotation": {"number": 64, "value": 0}, "group": "control_change"}, {"time": 2779, "annotation": {"number": 64, "value": 127}, "group": "control_change"}, {"time": 2802, "annotation": {"number": 64, "value": 0}, "group": "control_change"}, {"time": 2805, "annotation": {"number": 64, "value": 127}, "group": "control_change"}, {"time": 2826, "annotation": {"number": 64, "value": 0}, "group": "control_change"}, {"time": 2829, "annotation": {"number": 64, "value": 127}, "group": "control_change"}, {"time": 2851, "annotation": {"number": 64, "value": 0}, "group": "control_change"}, {"time": 2854, "annotation": {"number": 64, "value": 127}, "group": "control_change"}, {"time": 2874, "annotation": {"number": 64, "value": 0}, "group": "control_change"}, {"time": 2877, "annotation": {"number": 64, "value": 127}, "group": "control_change"}, {"time": 2899, "annotation": {"number": 64, "value": 0}, "group": "control_change"}, {"time": 2902, "annotation": {"number": 64, "value": 127}, "group": "control_change"}, {"time": 2922, "annotation": {"number": 64, "value": 0}, "group": "control_change"}, {"time": 2924, "annotation": {"number": 64, "value": 127}, "group": "control_change"}, {"time": 2947, "annotation": {"number": 64, "value": 0}, "group": "control_change"}, {"time": 2949, "annotation": {"number": 64, "value": 127}, "group": "control_change"}, {"time": 2970, "annotation": {"number": 64, "value": 0}, "group": "control_change"}, {"time": 2973, "annotation": {"number": 64, "value": 127}, "group": "control_change"}, {"time": 2995, "annotation": {"number": 64, "value": 0}, "group": "control_change"}, {"time": 2998, "annotation": {"number": 64, "value": 127}, "group": "control_change"}, {"time": 3017, "annotation": {"number": 64, "value": 0}, "group": "control_change"}, {"time": 3020, "annotation": {"number": 64, "value": 127}, "group": "control_change"}, {"time": 3043, "annotation": {"number": 64, "value": 0}, "group": "control_change"}, {"time": 3046, "annotation": {"number": 64, "value": 127}, "group": "control_change"}, {"time": 3066, "annotation": {"number": 64, "value": 0}, "group": "control_change"}, {"time": 3068, "annotation": {"number": 64, "value": 127}, "group": "control_change"}, {"time": 3090, "annotation": {"number": 64, "value": 0}, "group": "control_change"}, {"time": 3092, "annotation": {"number": 64, "value": 127}, "group": "control_change"}, {"time": 3114, "annotation": {"number": 64, "value": 0}, "group": "control_change"}, {"time": 3116, "annotation": {"number": 64, "value": 127}, "group": "control_change"}, {"time": 3138, "annotation": {"number": 64, "value": 0}, "group": "control_change"}, {"time": 3140, "annotation": {"number": 64, "value": 127}, "group": "control_change"}, {"time": 3161, "annotation": {"number": 64, "value": 0}, "group": "control_change"}, {"time": 3164, "annotation": {"number": 64, "value": 127}, "group": "control_change"}, {"time": 3186, "annotation": {"number": 64, "value": 0}, "group": "control_change"}, {"time": 3188, "annotation": {"number": 64, "value": 127}, "group": "control_change"}, {"time": 3211, "annotation": {"number": 64, "value": 0}, "group": "control_change"}, {"time": 3213, "annotation": {"number": 64, "value": 127}, "group": "control_change"}, {"time": 3231, "annotation": {"number": 64, "value": 0}, "group": "control_change"}, {"time": 3238, "annotation": {"number": 64, "value": 127}, "group": "control_change"}, {"time": 3238, "annotation": {"number": 64, "value": 0}, "group": "control_change"}, {"time": 3283, "annotation": {"number": 64, "value": 0}, "group": "control_change"}, {"time": 3285, "annotation": {"number": 64, "value": 127}, "group": "control_change"}, {"time": 3307, "annotation": {"number": 64, "value": 0}, "group": "control_change"}, {"time": 3308, "annotation": {"number": 64, "value": 127}, "group": "control_change"}, {"time": 3331, "annotation": {"number": 64, "value": 0}, "group": "control_change"}, {"time": 3333, "annotation": {"number": 64, "value": 127}, "group": "control_change"}, {"time": 3380, "annotation": {"number": 64, "value": 0}, "group": "control_change"}, {"time": 3382, "annotation": {"number": 64, "value": 127}, "group": "control_change"}, {"time": 3402, "annotation": {"number": 64, "value": 0}, "group": "control_change"}, {"time": 3404, "annotation": {"number": 64, "value": 127}, "group": "control_change"}, {"time": 3420, "annotation": {"number": 64, "value": 0}, "group": "control_change"}, {"time": 3429, "annotation": {"number": 64, "value": 127}, "group": "control_change"}, {"time": 3430, "annotation": {"number": 64, "value": 0}, "group": "control_change"}, {"time": 3438, "annotation": {"number": 64, "value": 127}, "group": "control_change"}, {"time": 3450, "annotation": {"number": 64, "value": 0}, "group": "control_change"}, {"time": 3464, "annotation": {"number": 64, "value": 127}, "group": "control_change"}, {"time": 3474, "annotation": {"number": 64, "value": 0}, "group": "control_change"}, {"time": 3476, "annotation": {"number": 64, "value": 127}, "group": "control_change"}, {"time": 3479, "annotation": {"number": 64, "value": 0}, "group": "control_change"}, {"time": 3484, "annotation": {"number": 64, "value": 127}, "group": "control_change"}, {"time": 3499, "annotation": {"number": 64, "value": 0}, "group": "control_change"}, {"time": 3503, "annotation": {"number": 64, "value": 127}, "group": "control_change"}, {"time": 3521, "annotation": {"number": 64, "value": 0}, "group": "control_change"}, {"time": 3526, "annotation": {"number": 64, "value": 127}, "group": "control_change"}, {"time": 3546, "annotation": {"number": 64, "value": 0}, "group": "control_change"}, {"time": 3552, "annotation": {"number": 64, "value": 127}, "group": "control_change"}, {"time": 3569, "annotation": {"number": 64, "value": 0}, "group": "control_change"}, {"time": 3573, "annotation": {"number": 64, "value": 127}, "group": "control_change"}, {"time": 3574, "annotation": {"number": 64, "value": 0}, "group": "control_change"}, {"time": 3582, "annotation": {"number": 64, "value": 127}, "group": "control_change"}, {"time": 3594, "annotation": {"number": 64, "value": 0}, "group": "control_change"}, {"time": 3619, "annotation": {"number": 64, "value": 127}, "group": "control_change"}, {"time": 3632, "annotation": {"number": 64, "value": 127}, "group": "control_change"}, {"time": 3712, "annotation": {"number": 64, "value": 0}, "group": "control_change"}]}]}