{"metadata": {"schema_version": "0.2", "title": "None", "source_filename": "694.mid", "source_format": "midi"}, "resolution": 12, "tempos": [{"time": 0, "qpm": 104.75006634170869}], "key_signatures": [{"time": 0, "root": 0, "mode": "major"}], "time_signatures": [{"time": 0, "numerator": 4, "denominator": 4}, {"time": 0, "numerator": 1, "denominator": 4}], "tracks": [{"program": 0, "is_drum": false, "name": "MELODY", "notes": [{"time": 174, "pitch": 72, "duration": 4, "velocity": 85}, {"time": 180, "pitch": 72, "duration": 4, "velocity": 91}, {"time": 186, "pitch": 71, "duration": 4, "velocity": 89}, {"time": 192, "pitch": 69, "duration": 3, "velocity": 90}, {"time": 198, "pitch": 67, "duration": 19, "velocity": 88}, {"time": 222, "pitch": 67, "duration": 4, "velocity": 83}, {"time": 228, "pitch": 67, "duration": 4, "velocity": 85}, {"time": 234, "pitch": 69, "duration": 4, "velocity": 86}, {"time": 240, "pitch": 71, "duration": 4, "velocity": 85}, {"time": 246, "pitch": 72, "duration": 10, "velocity": 86}, {"time": 258, "pitch": 64, "duration": 9, "velocity": 90}, {"time": 276, "pitch": 64, "duration": 5, "velocity": 93}, {"time": 282, "pitch": 65, "duration": 4, "velocity": 85}, {"time": 288, "pitch": 67, "duration": 4, "velocity": 84}, {"time": 294, "pitch": 69, "duration": 50, "velocity": 85}, {"time": 366, "pitch": 72, "duration": 4, "velocity": 85}, {"time": 372, "pitch": 72, "duration": 4, "velocity": 91}, {"time": 378, "pitch": 71, "duration": 4, "velocity": 89}, {"time": 384, "pitch": 69, "duration": 3, "velocity": 90}, {"time": 390, "pitch": 67, "duration": 19, "velocity": 88}, {"time": 414, "pitch": 67, "duration": 4, "velocity": 83}, {"time": 420, "pitch": 67, "duration": 4, "velocity": 85}, {"time": 426, "pitch": 69, "duration": 4, "velocity": 86}, {"time": 432, "pitch": 71, "duration": 4, "velocity": 85}, {"time": 438, "pitch": 72, "duration": 10, "velocity": 86}, {"time": 450, "pitch": 64, "duration": 9, "velocity": 90}, {"time": 468, "pitch": 64, "duration": 5, "velocity": 93}, {"time": 474, "pitch": 65, "duration": 4, "velocity": 85}, {"time": 480, "pitch": 67, "duration": 4, "velocity": 84}, {"time": 486, "pitch": 69, "duration": 50, "velocity": 85}, {"time": 552, "pitch": 69, "duration": 3, "velocity": 86}, {"time": 558, "pitch": 69, "duration": 4, "velocity": 84}, {"time": 564, "pitch": 69, "duration": 4, "velocity": 86}, {"time": 570, "pitch": 76, "duration": 9, "velocity": 88}, {"time": 582, "pitch": 74, "duration": 12, "velocity": 90}, {"time": 594, "pitch": 71, "duration": 3, "velocity": 87}, {"time": 600, "pitch": 69, "duration": 4, "velocity": 85}, {"time": 606, "pitch": 67, "duration": 15, "velocity": 84}, {"time": 636, "pitch": 67, "duration": 5, "velocity": 84}, {"time": 642, "pitch": 64, "duration": 4, "velocity": 85}, {"time": 648, "pitch": 67, "duration": 5, "velocity": 85}, {"time": 654, "pitch": 64, "duration": 4, "velocity": 88}, {"time": 660, "pitch": 67, "duration": 5, "velocity": 86}, {"time": 666, "pitch": 74, "duration": 9, "velocity": 93}, {"time": 678, "pitch": 72, "duration": 32, "velocity": 85}, {"time": 744, "pitch": 69, "duration": 4, "velocity": 86}, {"time": 750, "pitch": 69, "duration": 4, "velocity": 85}, {"time": 756, "pitch": 69, "duration": 4, "velocity": 84}, {"time": 762, "pitch": 76, "duration": 8, "velocity": 86}, {"time": 774, "pitch": 74, "duration": 8, "velocity": 93}, {"time": 786, "pitch": 71, "duration": 4, "velocity": 85}, {"time": 792, "pitch": 69, "duration": 4, "velocity": 85}, {"time": 798, "pitch": 67, "duration": 21, "velocity": 89}, {"time": 822, "pitch": 67, "duration": 4, "velocity": 86}, {"time": 828, "pitch": 76, "duration": 3, "velocity": 87}, {"time": 834, "pitch": 77, "duration": 3, "velocity": 78}, {"time": 840, "pitch": 76, "duration": 3, "velocity": 86}, {"time": 846, "pitch": 77, "duration": 4, "velocity": 82}, {"time": 852, "pitch": 76, "duration": 9, "velocity": 85}, {"time": 864, "pitch": 71, "duration": 3, "velocity": 88}, {"time": 870, "pitch": 72, "duration": 26, "velocity": 85}, {"time": 900, "pitch": 72, "duration": 5, "velocity": 85}, {"time": 906, "pitch": 71, "duration": 3, "velocity": 85}, {"time": 912, "pitch": 72, "duration": 3, "velocity": 90}, {"time": 918, "pitch": 64, "duration": 4, "velocity": 88}, {"time": 924, "pitch": 65, "duration": 9, "velocity": 84}, {"time": 936, "pitch": 64, "duration": 3, "velocity": 84}, {"time": 942, "pitch": 65, "duration": 10, "velocity": 88}, {"time": 960, "pitch": 76, "duration": 6, "velocity": 88}, {"time": 966, "pitch": 74, "duration": 30, "velocity": 86}, {"time": 1008, "pitch": 72, "duration": 5, "velocity": 84}, {"time": 1014, "pitch": 72, "duration": 55, "velocity": 90}, {"time": 1086, "pitch": 67, "duration": 4, "velocity": 88}, {"time": 1092, "pitch": 77, "duration": 4, "velocity": 91}, {"time": 1098, "pitch": 76, "duration": 4, "velocity": 91}, {"time": 1104, "pitch": 74, "duration": 4, "velocity": 100}, {"time": 1110, "pitch": 76, "duration": 21, "velocity": 93}, {"time": 1134, "pitch": 67, "duration": 3, "velocity": 85}, {"time": 1140, "pitch": 76, "duration": 5, "velocity": 93}, {"time": 1146, "pitch": 74, "duration": 3, "velocity": 95}, {"time": 1152, "pitch": 72, "duration": 5, "velocity": 84}, {"time": 1158, "pitch": 74, "duration": 15, "velocity": 87}, {"time": 1170, "pitch": 67, "duration": 14, "velocity": 85}, {"time": 1188, "pitch": 67, "duration": 4, "velocity": 88}, {"time": 1194, "pitch": 69, "duration": 3, "velocity": 86}, {"time": 1200, "pitch": 71, "duration": 4, "velocity": 85}, {"time": 1206, "pitch": 72, "duration": 9, "velocity": 86}, {"time": 1218, "pitch": 71, "duration": 3, "velocity": 83}, {"time": 1224, "pitch": 72, "duration": 3, "velocity": 85}, {"time": 1230, "pitch": 71, "duration": 3, "velocity": 85}, {"time": 1236, "pitch": 72, "duration": 7, "velocity": 85}, {"time": 1248, "pitch": 64, "duration": 4, "velocity": 85}, {"time": 1254, "pitch": 69, "duration": 20, "velocity": 85}, {"time": 1278, "pitch": 67, "duration": 4, "velocity": 89}, {"time": 1284, "pitch": 77, "duration": 4, "velocity": 90}, {"time": 1290, "pitch": 76, "duration": 3, "velocity": 86}, {"time": 1296, "pitch": 74, "duration": 3, "velocity": 89}, {"time": 1302, "pitch": 76, "duration": 20, "velocity": 87}, {"time": 1326, "pitch": 67, "duration": 4, "velocity": 85}, {"time": 1332, "pitch": 76, "duration": 3, "velocity": 86}, {"time": 1338, "pitch": 74, "duration": 4, "velocity": 83}, {"time": 1344, "pitch": 72, "duration": 3, "velocity": 85}, {"time": 1350, "pitch": 74, "duration": 9, "velocity": 90}, {"time": 1362, "pitch": 67, "duration": 8, "velocity": 86}, {"time": 1380, "pitch": 67, "duration": 3, "velocity": 88}, {"time": 1386, "pitch": 69, "duration": 4, "velocity": 86}, {"time": 1392, "pitch": 71, "duration": 4, "velocity": 84}, {"time": 1398, "pitch": 72, "duration": 11, "velocity": 88}, {"time": 1410, "pitch": 71, "duration": 4, "velocity": 86}, {"time": 1416, "pitch": 72, "duration": 5, "velocity": 87}, {"time": 1422, "pitch": 71, "duration": 4, "velocity": 87}, {"time": 1428, "pitch": 72, "duration": 4, "velocity": 85}, {"time": 1434, "pitch": 81, "duration": 5, "velocity": 82}, {"time": 1440, "pitch": 76, "duration": 5, "velocity": 76}, {"time": 1446, "pitch": 79, "duration": 25, "velocity": 85}, {"time": 1482, "pitch": 76, "duration": 4, "velocity": 89}, {"time": 1488, "pitch": 77, "duration": 3, "velocity": 86}, {"time": 1494, "pitch": 79, "duration": 8, "velocity": 86}, {"time": 1506, "pitch": 72, "duration": 3, "velocity": 80}, {"time": 1512, "pitch": 72, "duration": 4, "velocity": 85}, {"time": 1518, "pitch": 72, "duration": 7, "velocity": 88}, {"time": 1530, "pitch": 79, "duration": 3, "velocity": 85}, {"time": 1536, "pitch": 72, "duration": 4, "velocity": 87}, {"time": 1542, "pitch": 72, "duration": 23, "velocity": 86}, {"time": 1584, "pitch": 72, "duration": 4, "velocity": 86}, {"time": 1590, "pitch": 72, "duration": 16, "velocity": 86}, {"time": 1608, "pitch": 72, "duration": 4, "velocity": 88}, {"time": 1614, "pitch": 72, "duration": 10, "velocity": 85}, {"time": 1626, "pitch": 74, "duration": 9, "velocity": 91}, {"time": 1638, "pitch": 74, "duration": 19, "velocity": 95}, {"time": 1662, "pitch": 67, "duration": 4, "velocity": 88}, {"time": 1668, "pitch": 77, "duration": 4, "velocity": 91}, {"time": 1674, "pitch": 76, "duration": 4, "velocity": 91}, {"time": 1680, "pitch": 74, "duration": 4, "velocity": 100}, {"time": 1686, "pitch": 76, "duration": 21, "velocity": 93}, {"time": 1710, "pitch": 67, "duration": 3, "velocity": 85}, {"time": 1716, "pitch": 76, "duration": 5, "velocity": 93}, {"time": 1722, "pitch": 74, "duration": 3, "velocity": 95}, {"time": 1728, "pitch": 72, "duration": 5, "velocity": 84}, {"time": 1734, "pitch": 74, "duration": 15, "velocity": 87}, {"time": 1746, "pitch": 67, "duration": 14, "velocity": 85}, {"time": 1764, "pitch": 67, "duration": 4, "velocity": 88}, {"time": 1770, "pitch": 69, "duration": 3, "velocity": 86}, {"time": 1776, "pitch": 71, "duration": 4, "velocity": 85}, {"time": 1782, "pitch": 72, "duration": 9, "velocity": 86}, {"time": 1794, "pitch": 71, "duration": 3, "velocity": 83}, {"time": 1800, "pitch": 72, "duration": 3, "velocity": 85}, {"time": 1806, "pitch": 71, "duration": 3, "velocity": 85}, {"time": 1812, "pitch": 72, "duration": 7, "velocity": 85}, {"time": 1824, "pitch": 64, "duration": 4, "velocity": 85}, {"time": 1830, "pitch": 69, "duration": 20, "velocity": 85}, {"time": 1854, "pitch": 67, "duration": 4, "velocity": 89}, {"time": 1860, "pitch": 77, "duration": 4, "velocity": 90}, {"time": 1866, "pitch": 76, "duration": 3, "velocity": 86}, {"time": 1872, "pitch": 74, "duration": 3, "velocity": 89}, {"time": 1878, "pitch": 76, "duration": 9, "velocity": 87}, {"time": 1887, "pitch": 74, "duration": 3, "velocity": 82}, {"time": 1890, "pitch": 72, "duration": 10, "velocity": 86}, {"time": 1902, "pitch": 67, "duration": 4, "velocity": 85}, {"time": 1908, "pitch": 76, "duration": 3, "velocity": 86}, {"time": 1914, "pitch": 74, "duration": 4, "velocity": 83}, {"time": 1920, "pitch": 72, "duration": 3, "velocity": 85}, {"time": 1926, "pitch": 74, "duration": 9, "velocity": 90}, {"time": 1938, "pitch": 67, "duration": 8, "velocity": 86}, {"time": 1956, "pitch": 67, "duration": 3, "velocity": 88}, {"time": 1962, "pitch": 69, "duration": 4, "velocity": 86}, {"time": 1968, "pitch": 71, "duration": 4, "velocity": 84}, {"time": 1974, "pitch": 72, "duration": 11, "velocity": 88}, {"time": 1986, "pitch": 71, "duration": 4, "velocity": 86}, {"time": 1992, "pitch": 72, "duration": 5, "velocity": 87}, {"time": 1998, "pitch": 71, "duration": 4, "velocity": 87}, {"time": 2004, "pitch": 72, "duration": 4, "velocity": 85}, {"time": 2010, "pitch": 81, "duration": 5, "velocity": 82}, {"time": 2016, "pitch": 76, "duration": 5, "velocity": 76}, {"time": 2022, "pitch": 79, "duration": 25, "velocity": 85}, {"time": 2058, "pitch": 76, "duration": 4, "velocity": 89}, {"time": 2064, "pitch": 77, "duration": 3, "velocity": 86}, {"time": 2070, "pitch": 79, "duration": 8, "velocity": 86}, {"time": 2082, "pitch": 72, "duration": 3, "velocity": 80}, {"time": 2088, "pitch": 72, "duration": 4, "velocity": 85}, {"time": 2094, "pitch": 79, "duration": 7, "velocity": 88}, {"time": 2106, "pitch": 72, "duration": 3, "velocity": 85}, {"time": 2112, "pitch": 72, "duration": 4, "velocity": 87}, {"time": 2118, "pitch": 72, "duration": 23, "velocity": 86}, {"time": 2148, "pitch": 74, "duration": 20, "velocity": 86}, {"time": 2166, "pitch": 72, "duration": 6, "velocity": 87}, {"time": 2172, "pitch": 72, "duration": 49, "velocity": 85}, {"time": 2472, "pitch": 69, "duration": 3, "velocity": 86}, {"time": 2478, "pitch": 69, "duration": 4, "velocity": 84}, {"time": 2484, "pitch": 69, "duration": 4, "velocity": 86}, {"time": 2490, "pitch": 76, "duration": 9, "velocity": 88}, {"time": 2502, "pitch": 74, "duration": 12, "velocity": 90}, {"time": 2514, "pitch": 71, "duration": 3, "velocity": 87}, {"time": 2520, "pitch": 69, "duration": 4, "velocity": 85}, {"time": 2526, "pitch": 67, "duration": 15, "velocity": 84}, {"time": 2556, "pitch": 67, "duration": 5, "velocity": 84}, {"time": 2562, "pitch": 64, "duration": 4, "velocity": 85}, {"time": 2568, "pitch": 67, "duration": 5, "velocity": 85}, {"time": 2574, "pitch": 64, "duration": 4, "velocity": 88}, {"time": 2580, "pitch": 67, "duration": 5, "velocity": 86}, {"time": 2586, "pitch": 74, "duration": 9, "velocity": 93}, {"time": 2598, "pitch": 72, "duration": 32, "velocity": 85}, {"time": 2664, "pitch": 69, "duration": 4, "velocity": 86}, {"time": 2670, "pitch": 69, "duration": 4, "velocity": 85}, {"time": 2676, "pitch": 69, "duration": 4, "velocity": 84}, {"time": 2682, "pitch": 76, "duration": 8, "velocity": 86}, {"time": 2694, "pitch": 74, "duration": 8, "velocity": 93}, {"time": 2706, "pitch": 71, "duration": 4, "velocity": 85}, {"time": 2712, "pitch": 69, "duration": 4, "velocity": 85}, {"time": 2718, "pitch": 67, "duration": 21, "velocity": 89}, {"time": 2742, "pitch": 67, "duration": 4, "velocity": 86}, {"time": 2748, "pitch": 76, "duration": 3, "velocity": 87}, {"time": 2754, "pitch": 77, "duration": 3, "velocity": 78}, {"time": 2760, "pitch": 76, "duration": 3, "velocity": 86}, {"time": 2766, "pitch": 77, "duration": 4, "velocity": 82}, {"time": 2772, "pitch": 76, "duration": 9, "velocity": 85}, {"time": 2784, "pitch": 71, "duration": 3, "velocity": 88}, {"time": 2790, "pitch": 72, "duration": 26, "velocity": 85}, {"time": 2820, "pitch": 72, "duration": 5, "velocity": 85}, {"time": 2826, "pitch": 71, "duration": 3, "velocity": 85}, {"time": 2832, "pitch": 72, "duration": 3, "velocity": 90}, {"time": 2838, "pitch": 64, "duration": 4, "velocity": 88}, {"time": 2844, "pitch": 65, "duration": 9, "velocity": 84}, {"time": 2856, "pitch": 64, "duration": 3, "velocity": 84}, {"time": 2862, "pitch": 65, "duration": 10, "velocity": 88}, {"time": 2880, "pitch": 76, "duration": 6, "velocity": 88}, {"time": 2886, "pitch": 74, "duration": 30, "velocity": 86}, {"time": 2928, "pitch": 72, "duration": 5, "velocity": 84}, {"time": 2934, "pitch": 72, "duration": 55, "velocity": 90}, {"time": 3006, "pitch": 67, "duration": 4, "velocity": 88}, {"time": 3012, "pitch": 77, "duration": 4, "velocity": 91}, {"time": 3018, "pitch": 76, "duration": 4, "velocity": 91}, {"time": 3024, "pitch": 74, "duration": 4, "velocity": 100}, {"time": 3030, "pitch": 76, "duration": 21, "velocity": 93}, {"time": 3054, "pitch": 67, "duration": 3, "velocity": 85}, {"time": 3060, "pitch": 76, "duration": 5, "velocity": 93}, {"time": 3066, "pitch": 74, "duration": 3, "velocity": 95}, {"time": 3072, "pitch": 72, "duration": 5, "velocity": 84}, {"time": 3078, "pitch": 74, "duration": 15, "velocity": 87}, {"time": 3090, "pitch": 67, "duration": 14, "velocity": 85}, {"time": 3108, "pitch": 67, "duration": 4, "velocity": 88}, {"time": 3114, "pitch": 69, "duration": 3, "velocity": 86}, {"time": 3120, "pitch": 71, "duration": 4, "velocity": 85}, {"time": 3126, "pitch": 72, "duration": 9, "velocity": 86}, {"time": 3138, "pitch": 71, "duration": 3, "velocity": 83}, {"time": 3144, "pitch": 72, "duration": 3, "velocity": 85}, {"time": 3150, "pitch": 71, "duration": 3, "velocity": 85}, {"time": 3156, "pitch": 72, "duration": 7, "velocity": 85}, {"time": 3168, "pitch": 64, "duration": 4, "velocity": 85}, {"time": 3174, "pitch": 69, "duration": 20, "velocity": 85}, {"time": 3198, "pitch": 67, "duration": 4, "velocity": 89}, {"time": 3204, "pitch": 77, "duration": 4, "velocity": 90}, {"time": 3210, "pitch": 76, "duration": 3, "velocity": 86}, {"time": 3216, "pitch": 74, "duration": 3, "velocity": 89}, {"time": 3222, "pitch": 76, "duration": 20, "velocity": 87}, {"time": 3246, "pitch": 67, "duration": 4, "velocity": 85}, {"time": 3252, "pitch": 76, "duration": 3, "velocity": 86}, {"time": 3258, "pitch": 74, "duration": 4, "velocity": 83}, {"time": 3264, "pitch": 72, "duration": 3, "velocity": 85}, {"time": 3270, "pitch": 74, "duration": 9, "velocity": 90}, {"time": 3282, "pitch": 67, "duration": 8, "velocity": 86}, {"time": 3300, "pitch": 67, "duration": 3, "velocity": 88}, {"time": 3306, "pitch": 69, "duration": 4, "velocity": 86}, {"time": 3312, "pitch": 71, "duration": 4, "velocity": 84}, {"time": 3318, "pitch": 72, "duration": 11, "velocity": 88}, {"time": 3330, "pitch": 71, "duration": 4, "velocity": 86}, {"time": 3336, "pitch": 72, "duration": 5, "velocity": 87}, {"time": 3342, "pitch": 71, "duration": 4, "velocity": 87}, {"time": 3348, "pitch": 72, "duration": 4, "velocity": 85}, {"time": 3354, "pitch": 81, "duration": 5, "velocity": 82}, {"time": 3360, "pitch": 76, "duration": 5, "velocity": 76}, {"time": 3366, "pitch": 79, "duration": 25, "velocity": 85}, {"time": 3402, "pitch": 76, "duration": 4, "velocity": 89}, {"time": 3408, "pitch": 77, "duration": 3, "velocity": 86}, {"time": 3414, "pitch": 79, "duration": 8, "velocity": 86}, {"time": 3426, "pitch": 72, "duration": 3, "velocity": 80}, {"time": 3432, "pitch": 72, "duration": 4, "velocity": 85}, {"time": 3438, "pitch": 72, "duration": 7, "velocity": 88}, {"time": 3450, "pitch": 79, "duration": 3, "velocity": 85}, {"time": 3456, "pitch": 72, "duration": 4, "velocity": 87}, {"time": 3462, "pitch": 72, "duration": 23, "velocity": 86}, {"time": 3492, "pitch": 74, "duration": 19, "velocity": 86}, {"time": 3510, "pitch": 72, "duration": 4, "velocity": 87}, {"time": 3516, "pitch": 72, "duration": 49, "velocity": 85}, {"time": 3624, "pitch": 69, "duration": 4, "velocity": 88}, {"time": 3630, "pitch": 69, "duration": 4, "velocity": 87}, {"time": 3636, "pitch": 69, "duration": 9, "velocity": 88}, {"time": 3648, "pitch": 69, "duration": 4, "velocity": 89}, {"time": 3654, "pitch": 71, "duration": 10, "velocity": 88}, {"time": 3666, "pitch": 71, "duration": 26, "velocity": 91}, {"time": 3696, "pitch": 71, "duration": 5, "velocity": 85}, {"time": 3702, "pitch": 71, "duration": 4, "velocity": 87}, {"time": 3708, "pitch": 71, "duration": 10, "velocity": 91}, {"time": 3720, "pitch": 71, "duration": 4, "velocity": 87}, {"time": 3726, "pitch": 71, "duration": 13, "velocity": 86}, {"time": 3744, "pitch": 71, "duration": 7, "velocity": 84}, {"time": 3750, "pitch": 72, "duration": 10, "velocity": 86}, {"time": 3759, "pitch": 71, "duration": 4, "velocity": 86}, {"time": 3762, "pitch": 69, "duration": 34, "velocity": 84}, {"time": 3816, "pitch": 69, "duration": 3, "velocity": 91}, {"time": 3822, "pitch": 69, "duration": 4, "velocity": 85}, {"time": 3828, "pitch": 69, "duration": 9, "velocity": 88}, {"time": 3840, "pitch": 69, "duration": 4, "velocity": 85}, {"time": 3846, "pitch": 71, "duration": 10, "velocity": 88}, {"time": 3858, "pitch": 71, "duration": 23, "velocity": 91}, {"time": 3888, "pitch": 67, "duration": 10, "velocity": 91}, {"time": 3900, "pitch": 74, "duration": 12, "velocity": 77}, {"time": 3912, "pitch": 76, "duration": 3, "velocity": 85}, {"time": 3918, "pitch": 76, "duration": 47, "velocity": 98}, {"time": 3966, "pitch": 69, "duration": 4, "velocity": 88}, {"time": 3972, "pitch": 79, "duration": 4, "velocity": 91}, {"time": 3978, "pitch": 78, "duration": 4, "velocity": 91}, {"time": 3984, "pitch": 76, "duration": 4, "velocity": 100}, {"time": 3990, "pitch": 78, "duration": 21, "velocity": 93}, {"time": 4014, "pitch": 69, "duration": 3, "velocity": 85}, {"time": 4020, "pitch": 78, "duration": 5, "velocity": 93}, {"time": 4026, "pitch": 76, "duration": 3, "velocity": 95}, {"time": 4032, "pitch": 74, "duration": 5, "velocity": 84}, {"time": 4038, "pitch": 76, "duration": 15, "velocity": 87}, {"time": 4050, "pitch": 69, "duration": 14, "velocity": 85}, {"time": 4068, "pitch": 69, "duration": 4, "velocity": 88}, {"time": 4074, "pitch": 71, "duration": 3, "velocity": 86}, {"time": 4080, "pitch": 73, "duration": 4, "velocity": 85}, {"time": 4086, "pitch": 74, "duration": 9, "velocity": 86}, {"time": 4098, "pitch": 73, "duration": 3, "velocity": 83}, {"time": 4104, "pitch": 74, "duration": 3, "velocity": 85}, {"time": 4110, "pitch": 73, "duration": 3, "velocity": 85}, {"time": 4116, "pitch": 74, "duration": 7, "velocity": 85}, {"time": 4128, "pitch": 66, "duration": 4, "velocity": 85}, {"time": 4134, "pitch": 71, "duration": 20, "velocity": 85}, {"time": 4158, "pitch": 69, "duration": 4, "velocity": 89}, {"time": 4164, "pitch": 79, "duration": 4, "velocity": 90}, {"time": 4170, "pitch": 78, "duration": 3, "velocity": 86}, {"time": 4176, "pitch": 76, "duration": 3, "velocity": 89}, {"time": 4182, "pitch": 78, "duration": 20, "velocity": 87}, {"time": 4206, "pitch": 69, "duration": 4, "velocity": 85}, {"time": 4212, "pitch": 78, "duration": 3, "velocity": 86}, {"time": 4218, "pitch": 76, "duration": 4, "velocity": 83}, {"time": 4224, "pitch": 74, "duration": 3, "velocity": 85}, {"time": 4230, "pitch": 76, "duration": 9, "velocity": 90}, {"time": 4242, "pitch": 69, "duration": 8, "velocity": 86}, {"time": 4260, "pitch": 69, "duration": 3, "velocity": 88}, {"time": 4266, "pitch": 71, "duration": 4, "velocity": 86}, {"time": 4272, "pitch": 73, "duration": 4, "velocity": 84}, {"time": 4278, "pitch": 74, "duration": 11, "velocity": 88}, {"time": 4290, "pitch": 73, "duration": 4, "velocity": 86}, {"time": 4296, "pitch": 74, "duration": 5, "velocity": 87}, {"time": 4302, "pitch": 73, "duration": 4, "velocity": 87}, {"time": 4308, "pitch": 74, "duration": 4, "velocity": 85}, {"time": 4314, "pitch": 83, "duration": 5, "velocity": 82}, {"time": 4320, "pitch": 78, "duration": 5, "velocity": 76}, {"time": 4326, "pitch": 81, "duration": 25, "velocity": 85}, {"time": 4362, "pitch": 78, "duration": 4, "velocity": 89}, {"time": 4368, "pitch": 79, "duration": 3, "velocity": 86}, {"time": 4374, "pitch": 81, "duration": 8, "velocity": 86}, {"time": 4386, "pitch": 74, "duration": 3, "velocity": 80}, {"time": 4392, "pitch": 74, "duration": 4, "velocity": 85}, {"time": 4398, "pitch": 74, "duration": 12, "velocity": 88}, {"time": 4410, "pitch": 81, "duration": 3, "velocity": 85}, {"time": 4416, "pitch": 74, "duration": 4, "velocity": 87}, {"time": 4422, "pitch": 74, "duration": 23, "velocity": 86}, {"time": 4464, "pitch": 74, "duration": 5, "velocity": 90}, {"time": 4470, "pitch": 74, "duration": 16, "velocity": 88}, {"time": 4488, "pitch": 74, "duration": 3, "velocity": 100}, {"time": 4494, "pitch": 74, "duration": 9, "velocity": 91}, {"time": 4506, "pitch": 76, "duration": 10, "velocity": 91}, {"time": 4518, "pitch": 76, "duration": 21, "velocity": 91}, {"time": 4542, "pitch": 69, "duration": 4, "velocity": 88}, {"time": 4548, "pitch": 79, "duration": 4, "velocity": 91}, {"time": 4554, "pitch": 78, "duration": 4, "velocity": 91}, {"time": 4560, "pitch": 76, "duration": 4, "velocity": 100}, {"time": 4566, "pitch": 78, "duration": 21, "velocity": 93}, {"time": 4590, "pitch": 69, "duration": 3, "velocity": 85}, {"time": 4596, "pitch": 78, "duration": 5, "velocity": 93}, {"time": 4602, "pitch": 76, "duration": 3, "velocity": 95}, {"time": 4608, "pitch": 74, "duration": 5, "velocity": 84}, {"time": 4614, "pitch": 76, "duration": 15, "velocity": 87}, {"time": 4626, "pitch": 69, "duration": 14, "velocity": 85}, {"time": 4644, "pitch": 69, "duration": 4, "velocity": 88}, {"time": 4650, "pitch": 71, "duration": 3, "velocity": 86}, {"time": 4656, "pitch": 73, "duration": 4, "velocity": 85}, {"time": 4662, "pitch": 74, "duration": 9, "velocity": 86}, {"time": 4674, "pitch": 73, "duration": 3, "velocity": 83}, {"time": 4680, "pitch": 74, "duration": 3, "velocity": 85}, {"time": 4686, "pitch": 73, "duration": 3, "velocity": 85}, {"time": 4692, "pitch": 74, "duration": 7, "velocity": 85}, {"time": 4704, "pitch": 66, "duration": 4, "velocity": 85}, {"time": 4710, "pitch": 71, "duration": 20, "velocity": 85}, {"time": 4734, "pitch": 69, "duration": 4, "velocity": 89}, {"time": 4740, "pitch": 79, "duration": 4, "velocity": 90}, {"time": 4746, "pitch": 78, "duration": 3, "velocity": 86}, {"time": 4752, "pitch": 76, "duration": 3, "velocity": 89}, {"time": 4758, "pitch": 78, "duration": 9, "velocity": 87}, {"time": 4767, "pitch": 76, "duration": 3, "velocity": 75}, {"time": 4770, "pitch": 74, "duration": 9, "velocity": 84}, {"time": 4782, "pitch": 69, "duration": 4, "velocity": 85}, {"time": 4788, "pitch": 78, "duration": 3, "velocity": 86}, {"time": 4794, "pitch": 76, "duration": 4, "velocity": 83}, {"time": 4800, "pitch": 74, "duration": 3, "velocity": 85}, {"time": 4806, "pitch": 76, "duration": 9, "velocity": 90}, {"time": 4818, "pitch": 69, "duration": 8, "velocity": 86}, {"time": 4836, "pitch": 69, "duration": 3, "velocity": 88}, {"time": 4842, "pitch": 71, "duration": 4, "velocity": 86}, {"time": 4848, "pitch": 73, "duration": 4, "velocity": 84}, {"time": 4854, "pitch": 74, "duration": 11, "velocity": 88}, {"time": 4866, "pitch": 73, "duration": 4, "velocity": 86}, {"time": 4872, "pitch": 74, "duration": 5, "velocity": 87}, {"time": 4878, "pitch": 73, "duration": 4, "velocity": 87}, {"time": 4884, "pitch": 74, "duration": 4, "velocity": 85}, {"time": 4890, "pitch": 83, "duration": 5, "velocity": 82}, {"time": 4896, "pitch": 78, "duration": 5, "velocity": 76}, {"time": 4902, "pitch": 81, "duration": 25, "velocity": 85}, {"time": 4988, "pitch": 78, "duration": 6, "velocity": 77}, {"time": 4994, "pitch": 79, "duration": 5, "velocity": 84}, {"time": 5001, "pitch": 81, "duration": 12, "velocity": 74}, {"time": 5015, "pitch": 74, "duration": 4, "velocity": 82}, {"time": 5021, "pitch": 74, "duration": 5, "velocity": 85}, {"time": 5028, "pitch": 81, "duration": 17, "velocity": 82}, {"time": 5045, "pitch": 74, "duration": 4, "velocity": 85}, {"time": 5051, "pitch": 74, "duration": 4, "velocity": 85}, {"time": 5057, "pitch": 74, "duration": 34, "velocity": 85}, {"time": 5101, "pitch": 76, "duration": 19, "velocity": 85}, {"time": 5119, "pitch": 74, "duration": 14, "velocity": 84}, {"time": 5134, "pitch": 74, "duration": 98, "velocity": 81}]}, {"program": 0, "is_drum": false, "name": "BRIDGE", "notes": [{"time": 30, "pitch": 67, "duration": 3, "velocity": 82}, {"time": 30, "pitch": 72, "duration": 4, "velocity": 85}, {"time": 36, "pitch": 72, "duration": 4, "velocity": 95}, {"time": 36, "pitch": 67, "duration": 5, "velocity": 89}, {"time": 41, "pitch": 71, "duration": 5, "velocity": 85}, {"time": 47, "pitch": 69, "duration": 5, "velocity": 90}, {"time": 52, "pitch": 67, "duration": 49, "velocity": 93}, {"time": 102, "pitch": 65, "duration": 4, "velocity": 88}, {"time": 105, "pitch": 64, "duration": 2, "velocity": 86}, {"time": 108, "pitch": 62, "duration": 44, "velocity": 88}, {"time": 324, "pitch": 72, "duration": 4, "velocity": 86}, {"time": 324, "pitch": 77, "duration": 5, "velocity": 93}, {"time": 330, "pitch": 76, "duration": 6, "velocity": 86}, {"time": 336, "pitch": 74, "duration": 11, "velocity": 95}, {"time": 348, "pitch": 67, "duration": 18, "velocity": 78}, {"time": 348, "pitch": 72, "duration": 19, "velocity": 84}, {"time": 516, "pitch": 72, "duration": 19, "velocity": 85}, {"time": 516, "pitch": 77, "duration": 19, "velocity": 85}, {"time": 540, "pitch": 62, "duration": 18, "velocity": 71}, {"time": 540, "pitch": 65, "duration": 18, "velocity": 77}, {"time": 540, "pitch": 74, "duration": 27, "velocity": 83}, {"time": 540, "pitch": 77, "duration": 27, "velocity": 75}, {"time": 636, "pitch": 67, "duration": 31, "velocity": 75}, {"time": 636, "pitch": 71, "duration": 37, "velocity": 77}, {"time": 672, "pitch": 74, "duration": 12, "velocity": 82}, {"time": 684, "pitch": 69, "duration": 20, "velocity": 61}, {"time": 684, "pitch": 72, "duration": 37, "velocity": 73}, {"time": 720, "pitch": 67, "duration": 12, "velocity": 75}, {"time": 732, "pitch": 65, "duration": 48, "velocity": 65}, {"time": 732, "pitch": 69, "duration": 49, "velocity": 68}, {"time": 780, "pitch": 71, "duration": 24, "velocity": 79}, {"time": 804, "pitch": 67, "duration": 20, "velocity": 76}, {"time": 864, "pitch": 81, "duration": 10, "velocity": 80}, {"time": 876, "pitch": 83, "duration": 11, "velocity": 85}, {"time": 888, "pitch": 84, "duration": 12, "velocity": 81}, {"time": 900, "pitch": 81, "duration": 13, "velocity": 73}, {"time": 912, "pitch": 79, "duration": 9, "velocity": 73}, {"time": 924, "pitch": 77, "duration": 46, "velocity": 69}, {"time": 924, "pitch": 81, "duration": 46, "velocity": 71}, {"time": 996, "pitch": 83, "duration": 22, "velocity": 76}, {"time": 1020, "pitch": 84, "duration": 31, "velocity": 84}, {"time": 1056, "pitch": 77, "duration": 10, "velocity": 83}, {"time": 1068, "pitch": 74, "duration": 17, "velocity": 80}, {"time": 1068, "pitch": 79, "duration": 17, "velocity": 85}, {"time": 1116, "pitch": 76, "duration": 49, "velocity": 82}, {"time": 1128, "pitch": 67, "duration": 37, "velocity": 71}, {"time": 1140, "pitch": 72, "duration": 24, "velocity": 77}, {"time": 1164, "pitch": 74, "duration": 16, "velocity": 85}, {"time": 1176, "pitch": 67, "duration": 35, "velocity": 79}, {"time": 1188, "pitch": 74, "duration": 23, "velocity": 85}, {"time": 1212, "pitch": 72, "duration": 20, "velocity": 84}, {"time": 1236, "pitch": 69, "duration": 21, "velocity": 76}, {"time": 1236, "pitch": 72, "duration": 22, "velocity": 81}, {"time": 1260, "pitch": 72, "duration": 14, "velocity": 73}, {"time": 1272, "pitch": 69, "duration": 10, "velocity": 75}, {"time": 1284, "pitch": 71, "duration": 14, "velocity": 82}, {"time": 1296, "pitch": 67, "duration": 14, "velocity": 69}, {"time": 1308, "pitch": 72, "duration": 49, "velocity": 80}, {"time": 1356, "pitch": 71, "duration": 24, "velocity": 79}, {"time": 1380, "pitch": 67, "duration": 23, "velocity": 77}, {"time": 1404, "pitch": 72, "duration": 38, "velocity": 80}, {"time": 1440, "pitch": 81, "duration": 13, "velocity": 85}, {"time": 1452, "pitch": 79, "duration": 37, "velocity": 85}, {"time": 1488, "pitch": 74, "duration": 6, "velocity": 85}, {"time": 1494, "pitch": 76, "duration": 6, "velocity": 85}, {"time": 1500, "pitch": 77, "duration": 36, "velocity": 85}, {"time": 1536, "pitch": 72, "duration": 7, "velocity": 74}, {"time": 1542, "pitch": 69, "duration": 8, "velocity": 76}, {"time": 1572, "pitch": 67, "duration": 20, "velocity": 79}, {"time": 1596, "pitch": 72, "duration": 50, "velocity": 80}, {"time": 1644, "pitch": 67, "duration": 22, "velocity": 77}, {"time": 1644, "pitch": 74, "duration": 24, "velocity": 85}, {"time": 1668, "pitch": 67, "duration": 25, "velocity": 89}, {"time": 1692, "pitch": 76, "duration": 46, "velocity": 86}, {"time": 1704, "pitch": 67, "duration": 34, "velocity": 82}, {"time": 1716, "pitch": 72, "duration": 21, "velocity": 84}, {"time": 1740, "pitch": 74, "duration": 11, "velocity": 89}, {"time": 1752, "pitch": 71, "duration": 14, "velocity": 83}, {"time": 1764, "pitch": 76, "duration": 12, "velocity": 85}, {"time": 1776, "pitch": 74, "duration": 12, "velocity": 86}, {"time": 1788, "pitch": 72, "duration": 22, "velocity": 87}, {"time": 1812, "pitch": 69, "duration": 20, "velocity": 79}, {"time": 1812, "pitch": 72, "duration": 20, "velocity": 85}, {"time": 1836, "pitch": 72, "duration": 21, "velocity": 86}, {"time": 1860, "pitch": 74, "duration": 11, "velocity": 91}, {"time": 1872, "pitch": 72, "duration": 13, "velocity": 81}, {"time": 1884, "pitch": 76, "duration": 13, "velocity": 86}, {"time": 1896, "pitch": 67, "duration": 15, "velocity": 67}, {"time": 1908, "pitch": 76, "duration": 25, "velocity": 85}, {"time": 1932, "pitch": 79, "duration": 11, "velocity": 88}, {"time": 1944, "pitch": 74, "duration": 13, "velocity": 87}, {"time": 1956, "pitch": 71, "duration": 25, "velocity": 84}, {"time": 1980, "pitch": 72, "duration": 36, "velocity": 86}, {"time": 2016, "pitch": 69, "duration": 6, "velocity": 86}, {"time": 2022, "pitch": 72, "duration": 6, "velocity": 88}, {"time": 2028, "pitch": 71, "duration": 20, "velocity": 85}, {"time": 2046, "pitch": 69, "duration": 6, "velocity": 81}, {"time": 2052, "pitch": 67, "duration": 15, "velocity": 82}, {"time": 2076, "pitch": 65, "duration": 25, "velocity": 79}, {"time": 2076, "pitch": 72, "duration": 25, "velocity": 84}, {"time": 2100, "pitch": 69, "duration": 21, "velocity": 85}, {"time": 2124, "pitch": 67, "duration": 36, "velocity": 77}, {"time": 2124, "pitch": 74, "duration": 36, "velocity": 86}, {"time": 2160, "pitch": 72, "duration": 7, "velocity": 84}, {"time": 2166, "pitch": 72, "duration": 1, "velocity": 87}, {"time": 2172, "pitch": 67, "duration": 58, "velocity": 80}, {"time": 2172, "pitch": 72, "duration": 58, "velocity": 80}, {"time": 2241, "pitch": 74, "duration": 3, "velocity": 91}, {"time": 2244, "pitch": 72, "duration": 6, "velocity": 91}, {"time": 2250, "pitch": 71, "duration": 6, "velocity": 85}, {"time": 2256, "pitch": 69, "duration": 6, "velocity": 85}, {"time": 2262, "pitch": 67, "duration": 6, "velocity": 85}, {"time": 2268, "pitch": 69, "duration": 12, "velocity": 84}, {"time": 2280, "pitch": 65, "duration": 13, "velocity": 86}, {"time": 2292, "pitch": 67, "duration": 11, "velocity": 85}, {"time": 2304, "pitch": 62, "duration": 10, "velocity": 82}, {"time": 2316, "pitch": 60, "duration": 23, "velocity": 80}, {"time": 2316, "pitch": 64, "duration": 23, "velocity": 84}, {"time": 2340, "pitch": 72, "duration": 7, "velocity": 85}, {"time": 2346, "pitch": 71, "duration": 6, "velocity": 84}, {"time": 2352, "pitch": 69, "duration": 7, "velocity": 86}, {"time": 2358, "pitch": 67, "duration": 4, "velocity": 77}, {"time": 2364, "pitch": 60, "duration": 45, "velocity": 71}, {"time": 2364, "pitch": 65, "duration": 46, "velocity": 78}, {"time": 2436, "pitch": 64, "duration": 22, "velocity": 86}, {"time": 2460, "pitch": 62, "duration": 18, "velocity": 71}, {"time": 2460, "pitch": 65, "duration": 18, "velocity": 77}, {"time": 2556, "pitch": 67, "duration": 31, "velocity": 75}, {"time": 2556, "pitch": 71, "duration": 37, "velocity": 77}, {"time": 2592, "pitch": 74, "duration": 12, "velocity": 82}, {"time": 2604, "pitch": 69, "duration": 20, "velocity": 61}, {"time": 2604, "pitch": 72, "duration": 37, "velocity": 73}, {"time": 2640, "pitch": 67, "duration": 12, "velocity": 75}, {"time": 2652, "pitch": 65, "duration": 48, "velocity": 65}, {"time": 2652, "pitch": 69, "duration": 49, "velocity": 68}, {"time": 2700, "pitch": 71, "duration": 24, "velocity": 79}, {"time": 2724, "pitch": 67, "duration": 20, "velocity": 76}, {"time": 2784, "pitch": 81, "duration": 10, "velocity": 80}, {"time": 2796, "pitch": 83, "duration": 11, "velocity": 85}, {"time": 2808, "pitch": 84, "duration": 12, "velocity": 81}, {"time": 2820, "pitch": 81, "duration": 13, "velocity": 73}, {"time": 2832, "pitch": 79, "duration": 9, "velocity": 73}, {"time": 2844, "pitch": 77, "duration": 46, "velocity": 69}, {"time": 2844, "pitch": 81, "duration": 46, "velocity": 71}, {"time": 2916, "pitch": 83, "duration": 22, "velocity": 76}, {"time": 2940, "pitch": 84, "duration": 31, "velocity": 84}, {"time": 2976, "pitch": 77, "duration": 10, "velocity": 83}, {"time": 2988, "pitch": 74, "duration": 17, "velocity": 80}, {"time": 2988, "pitch": 79, "duration": 17, "velocity": 85}, {"time": 3036, "pitch": 76, "duration": 49, "velocity": 82}, {"time": 3048, "pitch": 67, "duration": 37, "velocity": 71}, {"time": 3060, "pitch": 72, "duration": 24, "velocity": 77}, {"time": 3084, "pitch": 74, "duration": 16, "velocity": 85}, {"time": 3096, "pitch": 67, "duration": 35, "velocity": 79}, {"time": 3108, "pitch": 74, "duration": 23, "velocity": 85}, {"time": 3132, "pitch": 72, "duration": 20, "velocity": 84}, {"time": 3156, "pitch": 69, "duration": 21, "velocity": 76}, {"time": 3156, "pitch": 72, "duration": 22, "velocity": 81}, {"time": 3180, "pitch": 72, "duration": 14, "velocity": 73}, {"time": 3192, "pitch": 69, "duration": 10, "velocity": 75}, {"time": 3204, "pitch": 71, "duration": 14, "velocity": 82}, {"time": 3216, "pitch": 67, "duration": 14, "velocity": 69}, {"time": 3228, "pitch": 72, "duration": 49, "velocity": 80}, {"time": 3276, "pitch": 71, "duration": 24, "velocity": 79}, {"time": 3300, "pitch": 67, "duration": 23, "velocity": 77}, {"time": 3324, "pitch": 72, "duration": 38, "velocity": 80}, {"time": 3360, "pitch": 81, "duration": 13, "velocity": 85}, {"time": 3372, "pitch": 79, "duration": 37, "velocity": 85}, {"time": 3408, "pitch": 74, "duration": 6, "velocity": 85}, {"time": 3414, "pitch": 76, "duration": 6, "velocity": 85}, {"time": 3420, "pitch": 77, "duration": 36, "velocity": 85}, {"time": 3456, "pitch": 72, "duration": 7, "velocity": 74}, {"time": 3462, "pitch": 69, "duration": 8, "velocity": 76}, {"time": 3492, "pitch": 67, "duration": 20, "velocity": 79}, {"time": 3516, "pitch": 72, "duration": 50, "velocity": 80}, {"time": 3612, "pitch": 65, "duration": 34, "velocity": 80}, {"time": 3612, "pitch": 69, "duration": 26, "velocity": 84}, {"time": 3636, "pitch": 72, "duration": 12, "velocity": 86}, {"time": 3648, "pitch": 69, "duration": 13, "velocity": 86}, {"time": 3660, "pitch": 67, "duration": 20, "velocity": 79}, {"time": 3660, "pitch": 71, "duration": 19, "velocity": 84}, {"time": 3684, "pitch": 67, "duration": 7, "velocity": 83}, {"time": 3684, "pitch": 71, "duration": 7, "velocity": 89}, {"time": 3690, "pitch": 72, "duration": 8, "velocity": 85}, {"time": 3696, "pitch": 74, "duration": 6, "velocity": 88}, {"time": 3702, "pitch": 72, "duration": 7, "velocity": 84}, {"time": 3708, "pitch": 74, "duration": 21, "velocity": 93}, {"time": 3732, "pitch": 71, "duration": 14, "velocity": 85}, {"time": 3744, "pitch": 74, "duration": 12, "velocity": 85}, {"time": 3756, "pitch": 69, "duration": 20, "velocity": 77}, {"time": 3756, "pitch": 72, "duration": 24, "velocity": 80}, {"time": 3780, "pitch": 71, "duration": 7, "velocity": 84}, {"time": 3786, "pitch": 72, "duration": 7, "velocity": 85}, {"time": 3792, "pitch": 71, "duration": 11, "velocity": 88}, {"time": 3804, "pitch": 65, "duration": 7, "velocity": 80}, {"time": 3804, "pitch": 69, "duration": 25, "velocity": 84}, {"time": 3828, "pitch": 72, "duration": 11, "velocity": 85}, {"time": 3840, "pitch": 69, "duration": 10, "velocity": 81}, {"time": 3852, "pitch": 71, "duration": 13, "velocity": 88}, {"time": 3858, "pitch": 67, "duration": 6, "velocity": 78}, {"time": 3864, "pitch": 74, "duration": 14, "velocity": 84}, {"time": 3870, "pitch": 67, "duration": 8, "velocity": 71}, {"time": 3876, "pitch": 71, "duration": 13, "velocity": 78}, {"time": 3882, "pitch": 67, "duration": 7, "velocity": 75}, {"time": 3888, "pitch": 74, "duration": 10, "velocity": 85}, {"time": 3900, "pitch": 69, "duration": 4, "velocity": 78}, {"time": 3900, "pitch": 74, "duration": 8, "velocity": 93}, {"time": 3906, "pitch": 69, "duration": 10, "velocity": 80}, {"time": 3912, "pitch": 74, "duration": 8, "velocity": 87}, {"time": 3918, "pitch": 69, "duration": 8, "velocity": 81}, {"time": 3924, "pitch": 74, "duration": 7, "velocity": 84}, {"time": 3930, "pitch": 69, "duration": 9, "velocity": 84}, {"time": 3936, "pitch": 74, "duration": 11, "velocity": 84}, {"time": 3942, "pitch": 69, "duration": 4, "velocity": 82}, {"time": 3948, "pitch": 69, "duration": 22, "velocity": 86}, {"time": 3948, "pitch": 73, "duration": 22, "velocity": 87}, {"time": 3972, "pitch": 69, "duration": 17, "velocity": 84}, {"time": 3972, "pitch": 73, "duration": 17, "velocity": 79}, {"time": 3996, "pitch": 78, "duration": 49, "velocity": 82}, {"time": 4008, "pitch": 69, "duration": 37, "velocity": 71}, {"time": 4020, "pitch": 74, "duration": 24, "velocity": 77}, {"time": 4044, "pitch": 76, "duration": 16, "velocity": 85}, {"time": 4056, "pitch": 69, "duration": 35, "velocity": 79}, {"time": 4068, "pitch": 76, "duration": 23, "velocity": 85}, {"time": 4092, "pitch": 74, "duration": 20, "velocity": 84}, {"time": 4116, "pitch": 71, "duration": 21, "velocity": 76}, {"time": 4116, "pitch": 74, "duration": 22, "velocity": 81}, {"time": 4140, "pitch": 74, "duration": 14, "velocity": 73}, {"time": 4152, "pitch": 71, "duration": 10, "velocity": 75}, {"time": 4164, "pitch": 73, "duration": 14, "velocity": 82}, {"time": 4176, "pitch": 69, "duration": 14, "velocity": 69}, {"time": 4188, "pitch": 74, "duration": 49, "velocity": 80}, {"time": 4236, "pitch": 73, "duration": 24, "velocity": 79}, {"time": 4260, "pitch": 69, "duration": 23, "velocity": 77}, {"time": 4284, "pitch": 74, "duration": 38, "velocity": 80}, {"time": 4320, "pitch": 83, "duration": 13, "velocity": 85}, {"time": 4332, "pitch": 81, "duration": 37, "velocity": 85}, {"time": 4368, "pitch": 76, "duration": 6, "velocity": 85}, {"time": 4374, "pitch": 78, "duration": 6, "velocity": 85}, {"time": 4380, "pitch": 79, "duration": 36, "velocity": 85}, {"time": 4416, "pitch": 74, "duration": 7, "velocity": 74}, {"time": 4422, "pitch": 71, "duration": 8, "velocity": 76}, {"time": 4452, "pitch": 69, "duration": 20, "velocity": 79}, {"time": 4476, "pitch": 74, "duration": 50, "velocity": 80}, {"time": 4524, "pitch": 69, "duration": 22, "velocity": 77}, {"time": 4524, "pitch": 76, "duration": 24, "velocity": 85}, {"time": 4548, "pitch": 69, "duration": 25, "velocity": 89}, {"time": 4572, "pitch": 78, "duration": 46, "velocity": 86}, {"time": 4584, "pitch": 69, "duration": 34, "velocity": 82}, {"time": 4596, "pitch": 74, "duration": 21, "velocity": 84}, {"time": 4620, "pitch": 76, "duration": 11, "velocity": 89}, {"time": 4632, "pitch": 73, "duration": 14, "velocity": 83}, {"time": 4644, "pitch": 78, "duration": 12, "velocity": 85}, {"time": 4656, "pitch": 76, "duration": 12, "velocity": 86}, {"time": 4668, "pitch": 74, "duration": 22, "velocity": 87}, {"time": 4692, "pitch": 71, "duration": 20, "velocity": 79}, {"time": 4692, "pitch": 74, "duration": 20, "velocity": 85}, {"time": 4716, "pitch": 74, "duration": 21, "velocity": 86}, {"time": 4740, "pitch": 76, "duration": 11, "velocity": 91}, {"time": 4752, "pitch": 74, "duration": 13, "velocity": 81}, {"time": 4764, "pitch": 78, "duration": 13, "velocity": 86}, {"time": 4776, "pitch": 69, "duration": 15, "velocity": 67}, {"time": 4788, "pitch": 78, "duration": 25, "velocity": 85}, {"time": 4812, "pitch": 81, "duration": 11, "velocity": 88}, {"time": 4824, "pitch": 76, "duration": 13, "velocity": 87}, {"time": 4836, "pitch": 73, "duration": 25, "velocity": 84}, {"time": 4860, "pitch": 74, "duration": 36, "velocity": 86}, {"time": 4896, "pitch": 71, "duration": 6, "velocity": 86}, {"time": 4902, "pitch": 74, "duration": 6, "velocity": 88}, {"time": 4908, "pitch": 73, "duration": 72, "velocity": 85}, {"time": 5137, "pitch": 86, "duration": 8, "velocity": 85}, {"time": 5144, "pitch": 85, "duration": 7, "velocity": 85}, {"time": 5150, "pitch": 83, "duration": 5, "velocity": 91}, {"time": 5155, "pitch": 81, "duration": 28, "velocity": 88}, {"time": 5186, "pitch": 74, "duration": 7, "velocity": 72}, {"time": 5192, "pitch": 73, "duration": 5, "velocity": 75}, {"time": 5197, "pitch": 71, "duration": 7, "velocity": 75}, {"time": 5204, "pitch": 69, "duration": 36, "velocity": 75}, {"time": 5240, "pitch": 67, "duration": 45, "velocity": 76}, {"time": 5240, "pitch": 62, "duration": 45, "velocity": 69}, {"time": 5284, "pitch": 66, "duration": 53, "velocity": 72}], "annotations": [{"time": 27, "annotation": {"number": 64, "value": 127}, "group": "control_change"}, {"time": 52, "annotation": {"number": 64, "value": 0}, "group": "control_change"}]}, {"program": 0, "is_drum": false, "name": "PIANO", "notes": [{"time": 11, "pitch": 55, "duration": 14, "velocity": 66}, {"time": 12, "pitch": 36, "duration": 27, "velocity": 84}, {"time": 13, "pitch": 60, "duration": 15, "velocity": 79}, {"time": 23, "pitch": 43, "duration": 14, "velocity": 70}, {"time": 30, "pitch": 55, "duration": 2, "velocity": 72}, {"time": 35, "pitch": 60, "duration": 5, "velocity": 87}, {"time": 35, "pitch": 55, "duration": 4, "velocity": 87}, {"time": 35, "pitch": 64, "duration": 7, "velocity": 86}, {"time": 42, "pitch": 55, "duration": 3, "velocity": 79}, {"time": 47, "pitch": 60, "duration": 2, "velocity": 73}, {"time": 57, "pitch": 55, "duration": 9, "velocity": 79}, {"time": 59, "pitch": 59, "duration": 9, "velocity": 80}, {"time": 59, "pitch": 43, "duration": 40, "velocity": 84}, {"time": 60, "pitch": 62, "duration": 12, "velocity": 69}, {"time": 65, "pitch": 50, "duration": 28, "velocity": 80}, {"time": 70, "pitch": 55, "duration": 10, "velocity": 76}, {"time": 76, "pitch": 59, "duration": 5, "velocity": 71}, {"time": 77, "pitch": 62, "duration": 5, "velocity": 67}, {"time": 77, "pitch": 67, "duration": 7, "velocity": 77}, {"time": 102, "pitch": 67, "duration": 25, "velocity": 71}, {"time": 103, "pitch": 62, "duration": 25, "velocity": 75}, {"time": 104, "pitch": 59, "duration": 23, "velocity": 71}, {"time": 106, "pitch": 55, "duration": 20, "velocity": 70}, {"time": 106, "pitch": 43, "duration": 20, "velocity": 72}, {"time": 156, "pitch": 48, "duration": 33, "velocity": 85}, {"time": 156, "pitch": 55, "duration": 6, "velocity": 78}, {"time": 156, "pitch": 60, "duration": 13, "velocity": 79}, {"time": 168, "pitch": 55, "duration": 4, "velocity": 65}, {"time": 180, "pitch": 55, "duration": 3, "velocity": 79}, {"time": 180, "pitch": 64, "duration": 13, "velocity": 85}, {"time": 192, "pitch": 55, "duration": 2, "velocity": 67}, {"time": 204, "pitch": 43, "duration": 35, "velocity": 80}, {"time": 204, "pitch": 55, "duration": 2, "velocity": 63}, {"time": 204, "pitch": 62, "duration": 18, "velocity": 79}, {"time": 216, "pitch": 50, "duration": 21, "velocity": 66}, {"time": 228, "pitch": 62, "duration": 13, "velocity": 80}, {"time": 228, "pitch": 67, "duration": 13, "velocity": 80}, {"time": 240, "pitch": 55, "duration": 2, "velocity": 86}, {"time": 252, "pitch": 45, "duration": 38, "velocity": 79}, {"time": 252, "pitch": 57, "duration": 14, "velocity": 70}, {"time": 252, "pitch": 60, "duration": 11, "velocity": 76}, {"time": 264, "pitch": 52, "duration": 19, "velocity": 65}, {"time": 276, "pitch": 57, "duration": 7, "velocity": 79}, {"time": 276, "pitch": 60, "duration": 12, "velocity": 79}, {"time": 276, "pitch": 64, "duration": 12, "velocity": 85}, {"time": 288, "pitch": 52, "duration": 3, "velocity": 78}, {"time": 300, "pitch": 41, "duration": 37, "velocity": 80}, {"time": 300, "pitch": 60, "duration": 15, "velocity": 74}, {"time": 300, "pitch": 65, "duration": 12, "velocity": 77}, {"time": 312, "pitch": 48, "duration": 13, "velocity": 61}, {"time": 324, "pitch": 57, "duration": 7, "velocity": 73}, {"time": 324, "pitch": 60, "duration": 9, "velocity": 78}, {"time": 324, "pitch": 65, "duration": 13, "velocity": 81}, {"time": 330, "pitch": 48, "duration": 8, "velocity": 73}, {"time": 336, "pitch": 57, "duration": 4, "velocity": 73}, {"time": 348, "pitch": 48, "duration": 34, "velocity": 83}, {"time": 348, "pitch": 55, "duration": 6, "velocity": 76}, {"time": 348, "pitch": 60, "duration": 13, "velocity": 76}, {"time": 360, "pitch": 55, "duration": 6, "velocity": 72}, {"time": 372, "pitch": 60, "duration": 9, "velocity": 84}, {"time": 372, "pitch": 64, "duration": 15, "velocity": 85}, {"time": 384, "pitch": 55, "duration": 5, "velocity": 76}, {"time": 396, "pitch": 43, "duration": 38, "velocity": 80}, {"time": 396, "pitch": 55, "duration": 11, "velocity": 77}, {"time": 396, "pitch": 59, "duration": 10, "velocity": 74}, {"time": 396, "pitch": 62, "duration": 11, "velocity": 76}, {"time": 408, "pitch": 50, "duration": 14, "velocity": 63}, {"time": 420, "pitch": 55, "duration": 6, "velocity": 78}, {"time": 420, "pitch": 62, "duration": 9, "velocity": 80}, {"time": 426, "pitch": 50, "duration": 10, "velocity": 69}, {"time": 432, "pitch": 60, "duration": 7, "velocity": 78}, {"time": 438, "pitch": 59, "duration": 7, "velocity": 81}, {"time": 444, "pitch": 45, "duration": 32, "velocity": 83}, {"time": 444, "pitch": 57, "duration": 11, "velocity": 77}, {"time": 444, "pitch": 60, "duration": 9, "velocity": 76}, {"time": 456, "pitch": 52, "duration": 18, "velocity": 58}, {"time": 468, "pitch": 60, "duration": 8, "velocity": 81}, {"time": 468, "pitch": 64, "duration": 10, "velocity": 85}, {"time": 480, "pitch": 57, "duration": 16, "velocity": 77}, {"time": 492, "pitch": 41, "duration": 33, "velocity": 84}, {"time": 492, "pitch": 65, "duration": 19, "velocity": 80}, {"time": 504, "pitch": 48, "duration": 20, "velocity": 63}, {"time": 510, "pitch": 57, "duration": 4, "velocity": 77}, {"time": 516, "pitch": 65, "duration": 6, "velocity": 88}, {"time": 522, "pitch": 64, "duration": 7, "velocity": 77}, {"time": 528, "pitch": 62, "duration": 3, "velocity": 73}, {"time": 540, "pitch": 50, "duration": 35, "velocity": 83}, {"time": 540, "pitch": 57, "duration": 4, "velocity": 77}, {"time": 540, "pitch": 62, "duration": 7, "velocity": 79}, {"time": 546, "pitch": 57, "duration": 7, "velocity": 73}, {"time": 552, "pitch": 62, "duration": 3, "velocity": 73}, {"time": 564, "pitch": 57, "duration": 13, "velocity": 81}, {"time": 564, "pitch": 65, "duration": 11, "velocity": 80}, {"time": 576, "pitch": 62, "duration": 2, "velocity": 76}, {"time": 588, "pitch": 43, "duration": 34, "velocity": 81}, {"time": 588, "pitch": 55, "duration": 14, "velocity": 75}, {"time": 588, "pitch": 62, "duration": 16, "velocity": 78}, {"time": 600, "pitch": 50, "duration": 13, "velocity": 72}, {"time": 612, "pitch": 59, "duration": 12, "velocity": 93}, {"time": 618, "pitch": 50, "duration": 5, "velocity": 83}, {"time": 624, "pitch": 55, "duration": 3, "velocity": 87}, {"time": 636, "pitch": 40, "duration": 38, "velocity": 85}, {"time": 636, "pitch": 52, "duration": 22, "velocity": 80}, {"time": 636, "pitch": 55, "duration": 12, "velocity": 78}, {"time": 648, "pitch": 47, "duration": 16, "velocity": 66}, {"time": 660, "pitch": 55, "duration": 4, "velocity": 87}, {"time": 660, "pitch": 59, "duration": 12, "velocity": 87}, {"time": 672, "pitch": 47, "duration": 4, "velocity": 74}, {"time": 678, "pitch": 55, "duration": 7, "velocity": 79}, {"time": 684, "pitch": 45, "duration": 38, "velocity": 85}, {"time": 684, "pitch": 57, "duration": 18, "velocity": 84}, {"time": 696, "pitch": 52, "duration": 15, "velocity": 78}, {"time": 702, "pitch": 64, "duration": 14, "velocity": 80}, {"time": 708, "pitch": 57, "duration": 8, "velocity": 87}, {"time": 714, "pitch": 52, "duration": 7, "velocity": 82}, {"time": 720, "pitch": 57, "duration": 3, "velocity": 78}, {"time": 720, "pitch": 60, "duration": 6, "velocity": 77}, {"time": 726, "pitch": 57, "duration": 1, "velocity": 55}, {"time": 732, "pitch": 41, "duration": 34, "velocity": 84}, {"time": 732, "pitch": 53, "duration": 13, "velocity": 68}, {"time": 732, "pitch": 57, "duration": 13, "velocity": 73}, {"time": 744, "pitch": 48, "duration": 14, "velocity": 73}, {"time": 756, "pitch": 53, "duration": 7, "velocity": 81}, {"time": 756, "pitch": 60, "duration": 12, "velocity": 83}, {"time": 762, "pitch": 48, "duration": 8, "velocity": 76}, {"time": 768, "pitch": 53, "duration": 7, "velocity": 79}, {"time": 774, "pitch": 60, "duration": 6, "velocity": 73}, {"time": 780, "pitch": 43, "duration": 31, "velocity": 85}, {"time": 780, "pitch": 55, "duration": 18, "velocity": 78}, {"time": 780, "pitch": 59, "duration": 15, "velocity": 73}, {"time": 792, "pitch": 50, "duration": 15, "velocity": 74}, {"time": 804, "pitch": 55, "duration": 6, "velocity": 84}, {"time": 804, "pitch": 59, "duration": 6, "velocity": 85}, {"time": 804, "pitch": 62, "duration": 7, "velocity": 84}, {"time": 810, "pitch": 50, "duration": 5, "velocity": 75}, {"time": 816, "pitch": 43, "duration": 8, "velocity": 83}, {"time": 828, "pitch": 40, "duration": 2, "velocity": 87}, {"time": 828, "pitch": 64, "duration": 13, "velocity": 85}, {"time": 828, "pitch": 69, "duration": 15, "velocity": 85}, {"time": 834, "pitch": 52, "duration": 25, "velocity": 84}, {"time": 840, "pitch": 59, "duration": 14, "velocity": 83}, {"time": 846, "pitch": 64, "duration": 3, "velocity": 88}, {"time": 852, "pitch": 64, "duration": 6, "velocity": 90}, {"time": 852, "pitch": 69, "duration": 6, "velocity": 90}, {"time": 858, "pitch": 59, "duration": 4, "velocity": 72}, {"time": 864, "pitch": 64, "duration": 4, "velocity": 87}, {"time": 864, "pitch": 68, "duration": 6, "velocity": 84}, {"time": 876, "pitch": 45, "duration": 37, "velocity": 83}, {"time": 876, "pitch": 64, "duration": 7, "velocity": 79}, {"time": 876, "pitch": 69, "duration": 14, "velocity": 78}, {"time": 882, "pitch": 52, "duration": 21, "velocity": 72}, {"time": 888, "pitch": 64, "duration": 5, "velocity": 73}, {"time": 900, "pitch": 64, "duration": 11, "velocity": 84}, {"time": 900, "pitch": 69, "duration": 12, "velocity": 80}, {"time": 900, "pitch": 72, "duration": 12, "velocity": 80}, {"time": 912, "pitch": 52, "duration": 3, "velocity": 78}, {"time": 924, "pitch": 41, "duration": 38, "velocity": 84}, {"time": 924, "pitch": 60, "duration": 15, "velocity": 73}, {"time": 924, "pitch": 65, "duration": 14, "velocity": 77}, {"time": 936, "pitch": 48, "duration": 14, "velocity": 59}, {"time": 948, "pitch": 60, "duration": 7, "velocity": 84}, {"time": 948, "pitch": 65, "duration": 12, "velocity": 85}, {"time": 948, "pitch": 69, "duration": 16, "velocity": 83}, {"time": 954, "pitch": 48, "duration": 8, "velocity": 54}, {"time": 960, "pitch": 60, "duration": 4, "velocity": 80}, {"time": 972, "pitch": 43, "duration": 37, "velocity": 83}, {"time": 972, "pitch": 62, "duration": 16, "velocity": 76}, {"time": 972, "pitch": 67, "duration": 15, "velocity": 76}, {"time": 984, "pitch": 50, "duration": 21, "velocity": 62}, {"time": 996, "pitch": 62, "duration": 7, "velocity": 83}, {"time": 996, "pitch": 67, "duration": 22, "velocity": 81}, {"time": 996, "pitch": 71, "duration": 13, "velocity": 84}, {"time": 1008, "pitch": 62, "duration": 10, "velocity": 68}, {"time": 1020, "pitch": 36, "duration": 2, "velocity": 80}, {"time": 1026, "pitch": 48, "duration": 39, "velocity": 76}, {"time": 1032, "pitch": 55, "duration": 12, "velocity": 82}, {"time": 1038, "pitch": 60, "duration": 12, "velocity": 82}, {"time": 1038, "pitch": 65, "duration": 14, "velocity": 79}, {"time": 1050, "pitch": 55, "duration": 15, "velocity": 71}, {"time": 1056, "pitch": 62, "duration": 10, "velocity": 78}, {"time": 1068, "pitch": 36, "duration": 2, "velocity": 83}, {"time": 1068, "pitch": 55, "duration": 11, "velocity": 84}, {"time": 1068, "pitch": 60, "duration": 16, "velocity": 84}, {"time": 1068, "pitch": 64, "duration": 17, "velocity": 85}, {"time": 1086, "pitch": 55, "duration": 4, "velocity": 79}, {"time": 1092, "pitch": 43, "duration": 15, "velocity": 85}, {"time": 1092, "pitch": 55, "duration": 7, "velocity": 84}, {"time": 1092, "pitch": 62, "duration": 11, "velocity": 80}, {"time": 1098, "pitch": 50, "duration": 8, "velocity": 76}, {"time": 1104, "pitch": 55, "duration": 3, "velocity": 85}, {"time": 1116, "pitch": 48, "duration": 16, "velocity": 88}, {"time": 1116, "pitch": 60, "duration": 5, "velocity": 79}, {"time": 1116, "pitch": 67, "duration": 8, "velocity": 80}, {"time": 1128, "pitch": 60, "duration": 5, "velocity": 88}, {"time": 1140, "pitch": 48, "duration": 14, "velocity": 86}, {"time": 1140, "pitch": 55, "duration": 23, "velocity": 85}, {"time": 1140, "pitch": 60, "duration": 7, "velocity": 85}, {"time": 1140, "pitch": 67, "duration": 14, "velocity": 73}, {"time": 1152, "pitch": 60, "duration": 3, "velocity": 90}, {"time": 1164, "pitch": 47, "duration": 36, "velocity": 84}, {"time": 1164, "pitch": 55, "duration": 35, "velocity": 65}, {"time": 1164, "pitch": 59, "duration": 4, "velocity": 83}, {"time": 1164, "pitch": 67, "duration": 13, "velocity": 81}, {"time": 1176, "pitch": 59, "duration": 7, "velocity": 87}, {"time": 1188, "pitch": 59, "duration": 5, "velocity": 85}, {"time": 1188, "pitch": 62, "duration": 8, "velocity": 85}, {"time": 1188, "pitch": 67, "duration": 18, "velocity": 82}, {"time": 1200, "pitch": 59, "duration": 2, "velocity": 85}, {"time": 1212, "pitch": 45, "duration": 40, "velocity": 85}, {"time": 1212, "pitch": 57, "duration": 6, "velocity": 76}, {"time": 1212, "pitch": 60, "duration": 7, "velocity": 76}, {"time": 1212, "pitch": 67, "duration": 10, "velocity": 79}, {"time": 1224, "pitch": 57, "duration": 7, "velocity": 72}, {"time": 1236, "pitch": 57, "duration": 6, "velocity": 85}, {"time": 1236, "pitch": 60, "duration": 8, "velocity": 85}, {"time": 1236, "pitch": 67, "duration": 15, "velocity": 80}, {"time": 1242, "pitch": 52, "duration": 10, "velocity": 75}, {"time": 1248, "pitch": 57, "duration": 5, "velocity": 87}, {"time": 1248, "pitch": 60, "duration": 2, "velocity": 53}, {"time": 1260, "pitch": 41, "duration": 21, "velocity": 89}, {"time": 1260, "pitch": 53, "duration": 13, "velocity": 80}, {"time": 1260, "pitch": 60, "duration": 19, "velocity": 82}, {"time": 1272, "pitch": 48, "duration": 10, "velocity": 86}, {"time": 1278, "pitch": 53, "duration": 3, "velocity": 89}, {"time": 1284, "pitch": 43, "duration": 20, "velocity": 87}, {"time": 1284, "pitch": 55, "duration": 13, "velocity": 81}, {"time": 1284, "pitch": 59, "duration": 13, "velocity": 83}, {"time": 1296, "pitch": 50, "duration": 8, "velocity": 93}, {"time": 1308, "pitch": 48, "duration": 20, "velocity": 98}, {"time": 1308, "pitch": 55, "duration": 6, "velocity": 86}, {"time": 1308, "pitch": 60, "duration": 10, "velocity": 85}, {"time": 1320, "pitch": 55, "duration": 4, "velocity": 88}, {"time": 1332, "pitch": 55, "duration": 8, "velocity": 88}, {"time": 1332, "pitch": 64, "duration": 9, "velocity": 86}, {"time": 1344, "pitch": 60, "duration": 6, "velocity": 90}, {"time": 1350, "pitch": 55, "duration": 4, "velocity": 85}, {"time": 1356, "pitch": 43, "duration": 44, "velocity": 85}, {"time": 1356, "pitch": 55, "duration": 10, "velocity": 80}, {"time": 1356, "pitch": 59, "duration": 9, "velocity": 80}, {"time": 1356, "pitch": 62, "duration": 10, "velocity": 79}, {"time": 1368, "pitch": 50, "duration": 15, "velocity": 76}, {"time": 1380, "pitch": 55, "duration": 7, "velocity": 86}, {"time": 1380, "pitch": 59, "duration": 8, "velocity": 89}, {"time": 1380, "pitch": 62, "duration": 10, "velocity": 85}, {"time": 1386, "pitch": 50, "duration": 16, "velocity": 70}, {"time": 1392, "pitch": 55, "duration": 4, "velocity": 85}, {"time": 1404, "pitch": 45, "duration": 41, "velocity": 86}, {"time": 1404, "pitch": 57, "duration": 12, "velocity": 83}, {"time": 1404, "pitch": 60, "duration": 11, "velocity": 84}, {"time": 1416, "pitch": 52, "duration": 14, "velocity": 79}, {"time": 1428, "pitch": 57, "duration": 13, "velocity": 86}, {"time": 1428, "pitch": 60, "duration": 14, "velocity": 90}, {"time": 1428, "pitch": 64, "duration": 15, "velocity": 90}, {"time": 1440, "pitch": 52, "duration": 5, "velocity": 88}, {"time": 1446, "pitch": 57, "duration": 3, "velocity": 85}, {"time": 1452, "pitch": 40, "duration": 36, "velocity": 88}, {"time": 1452, "pitch": 59, "duration": 11, "velocity": 84}, {"time": 1452, "pitch": 64, "duration": 14, "velocity": 84}, {"time": 1464, "pitch": 47, "duration": 24, "velocity": 85}, {"time": 1470, "pitch": 59, "duration": 3, "velocity": 83}, {"time": 1476, "pitch": 59, "duration": 9, "velocity": 86}, {"time": 1476, "pitch": 64, "duration": 9, "velocity": 88}, {"time": 1476, "pitch": 67, "duration": 6, "velocity": 84}, {"time": 1488, "pitch": 59, "duration": 3, "velocity": 85}, {"time": 1488, "pitch": 64, "duration": 2, "velocity": 80}, {"time": 1500, "pitch": 41, "duration": 44, "velocity": 87}, {"time": 1500, "pitch": 53, "duration": 9, "velocity": 80}, {"time": 1500, "pitch": 60, "duration": 13, "velocity": 80}, {"time": 1512, "pitch": 48, "duration": 14, "velocity": 78}, {"time": 1524, "pitch": 53, "duration": 7, "velocity": 85}, {"time": 1524, "pitch": 57, "duration": 13, "velocity": 85}, {"time": 1524, "pitch": 60, "duration": 13, "velocity": 85}, {"time": 1530, "pitch": 48, "duration": 14, "velocity": 85}, {"time": 1536, "pitch": 53, "duration": 6, "velocity": 90}, {"time": 1548, "pitch": 40, "duration": 36, "velocity": 90}, {"time": 1548, "pitch": 52, "duration": 12, "velocity": 85}, {"time": 1548, "pitch": 55, "duration": 12, "velocity": 83}, {"time": 1560, "pitch": 59, "duration": 4, "velocity": 84}, {"time": 1572, "pitch": 52, "duration": 9, "velocity": 95}, {"time": 1572, "pitch": 64, "duration": 11, "velocity": 87}, {"time": 1584, "pitch": 52, "duration": 2, "velocity": 80}, {"time": 1584, "pitch": 55, "duration": 2, "velocity": 84}, {"time": 1584, "pitch": 59, "duration": 3, "velocity": 80}, {"time": 1596, "pitch": 50, "duration": 39, "velocity": 89}, {"time": 1596, "pitch": 57, "duration": 6, "velocity": 79}, {"time": 1596, "pitch": 62, "duration": 12, "velocity": 80}, {"time": 1608, "pitch": 57, "duration": 6, "velocity": 84}, {"time": 1620, "pitch": 57, "duration": 6, "velocity": 89}, {"time": 1620, "pitch": 65, "duration": 14, "velocity": 85}, {"time": 1632, "pitch": 57, "duration": 6, "velocity": 86}, {"time": 1638, "pitch": 62, "duration": 8, "velocity": 84}, {"time": 1644, "pitch": 43, "duration": 40, "velocity": 85}, {"time": 1644, "pitch": 55, "duration": 18, "velocity": 90}, {"time": 1656, "pitch": 50, "duration": 14, "velocity": 82}, {"time": 1656, "pitch": 62, "duration": 8, "velocity": 79}, {"time": 1668, "pitch": 55, "duration": 6, "velocity": 85}, {"time": 1668, "pitch": 62, "duration": 7, "velocity": 86}, {"time": 1668, "pitch": 67, "duration": 7, "velocity": 84}, {"time": 1674, "pitch": 50, "duration": 11, "velocity": 85}, {"time": 1680, "pitch": 55, "duration": 4, "velocity": 90}, {"time": 1680, "pitch": 62, "duration": 1, "velocity": 43}, {"time": 1692, "pitch": 48, "duration": 38, "velocity": 89}, {"time": 1692, "pitch": 55, "duration": 5, "velocity": 86}, {"time": 1692, "pitch": 60, "duration": 13, "velocity": 84}, {"time": 1704, "pitch": 55, "duration": 5, "velocity": 84}, {"time": 1716, "pitch": 55, "duration": 6, "velocity": 85}, {"time": 1716, "pitch": 60, "duration": 11, "velocity": 88}, {"time": 1716, "pitch": 64, "duration": 13, "velocity": 88}, {"time": 1728, "pitch": 55, "duration": 8, "velocity": 85}, {"time": 1734, "pitch": 60, "duration": 5, "velocity": 84}, {"time": 1740, "pitch": 40, "duration": 30, "velocity": 86}, {"time": 1740, "pitch": 59, "duration": 8, "velocity": 83}, {"time": 1740, "pitch": 64, "duration": 14, "velocity": 84}, {"time": 1752, "pitch": 47, "duration": 17, "velocity": 79}, {"time": 1764, "pitch": 59, "duration": 5, "velocity": 85}, {"time": 1764, "pitch": 64, "duration": 12, "velocity": 90}, {"time": 1764, "pitch": 67, "duration": 10, "velocity": 84}, {"time": 1776, "pitch": 59, "duration": 3, "velocity": 89}, {"time": 1788, "pitch": 45, "duration": 36, "velocity": 85}, {"time": 1788, "pitch": 57, "duration": 12, "velocity": 79}, {"time": 1788, "pitch": 60, "duration": 12, "velocity": 80}, {"time": 1800, "pitch": 52, "duration": 14, "velocity": 77}, {"time": 1812, "pitch": 57, "duration": 6, "velocity": 85}, {"time": 1812, "pitch": 60, "duration": 8, "velocity": 88}, {"time": 1812, "pitch": 64, "duration": 8, "velocity": 93}, {"time": 1818, "pitch": 52, "duration": 6, "velocity": 82}, {"time": 1824, "pitch": 57, "duration": 8, "velocity": 86}, {"time": 1836, "pitch": 41, "duration": 15, "velocity": 84}, {"time": 1836, "pitch": 57, "duration": 14, "velocity": 83}, {"time": 1836, "pitch": 60, "duration": 14, "velocity": 80}, {"time": 1848, "pitch": 48, "duration": 5, "velocity": 80}, {"time": 1860, "pitch": 43, "duration": 20, "velocity": 87}, {"time": 1860, "pitch": 55, "duration": 6, "velocity": 84}, {"time": 1860, "pitch": 59, "duration": 8, "velocity": 83}, {"time": 1866, "pitch": 50, "duration": 14, "velocity": 85}, {"time": 1872, "pitch": 55, "duration": 9, "velocity": 91}, {"time": 1878, "pitch": 59, "duration": 5, "velocity": 86}, {"time": 1884, "pitch": 48, "duration": 44, "velocity": 86}, {"time": 1884, "pitch": 55, "duration": 5, "velocity": 83}, {"time": 1884, "pitch": 60, "duration": 16, "velocity": 84}, {"time": 1896, "pitch": 55, "duration": 7, "velocity": 82}, {"time": 1908, "pitch": 55, "duration": 8, "velocity": 85}, {"time": 1908, "pitch": 60, "duration": 15, "velocity": 84}, {"time": 1908, "pitch": 64, "duration": 15, "velocity": 84}, {"time": 1920, "pitch": 55, "duration": 13, "velocity": 86}, {"time": 1926, "pitch": 62, "duration": 19, "velocity": 85}, {"time": 1932, "pitch": 43, "duration": 39, "velocity": 86}, {"time": 1938, "pitch": 50, "duration": 20, "velocity": 79}, {"time": 1944, "pitch": 55, "duration": 10, "velocity": 86}, {"time": 1956, "pitch": 55, "duration": 7, "velocity": 85}, {"time": 1956, "pitch": 62, "duration": 14, "velocity": 86}, {"time": 1956, "pitch": 67, "duration": 11, "velocity": 80}, {"time": 1962, "pitch": 50, "duration": 17, "velocity": 77}, {"time": 1968, "pitch": 55, "duration": 3, "velocity": 98}, {"time": 1980, "pitch": 45, "duration": 38, "velocity": 86}, {"time": 1980, "pitch": 57, "duration": 12, "velocity": 80}, {"time": 1980, "pitch": 60, "duration": 12, "velocity": 81}, {"time": 1992, "pitch": 52, "duration": 15, "velocity": 80}, {"time": 1998, "pitch": 57, "duration": 2, "velocity": 74}, {"time": 2004, "pitch": 57, "duration": 7, "velocity": 84}, {"time": 2004, "pitch": 64, "duration": 8, "velocity": 88}, {"time": 2010, "pitch": 52, "duration": 8, "velocity": 80}, {"time": 2016, "pitch": 57, "duration": 5, "velocity": 86}, {"time": 2016, "pitch": 60, "duration": 4, "velocity": 90}, {"time": 2028, "pitch": 40, "duration": 41, "velocity": 89}, {"time": 2028, "pitch": 60, "duration": 13, "velocity": 79}, {"time": 2040, "pitch": 47, "duration": 15, "velocity": 79}, {"time": 2052, "pitch": 55, "duration": 12, "velocity": 90}, {"time": 2052, "pitch": 59, "duration": 18, "velocity": 91}, {"time": 2064, "pitch": 47, "duration": 8, "velocity": 80}, {"time": 2070, "pitch": 55, "duration": 3, "velocity": 86}, {"time": 2076, "pitch": 41, "duration": 40, "velocity": 87}, {"time": 2076, "pitch": 53, "duration": 15, "velocity": 79}, {"time": 2076, "pitch": 60, "duration": 14, "velocity": 80}, {"time": 2088, "pitch": 48, "duration": 15, "velocity": 85}, {"time": 2100, "pitch": 53, "duration": 7, "velocity": 86}, {"time": 2100, "pitch": 60, "duration": 13, "velocity": 86}, {"time": 2106, "pitch": 48, "duration": 15, "velocity": 84}, {"time": 2112, "pitch": 53, "duration": 8, "velocity": 89}, {"time": 2118, "pitch": 57, "duration": 6, "velocity": 83}, {"time": 2124, "pitch": 43, "duration": 29, "velocity": 86}, {"time": 2124, "pitch": 55, "duration": 12, "velocity": 82}, {"time": 2124, "pitch": 59, "duration": 9, "velocity": 80}, {"time": 2136, "pitch": 50, "duration": 17, "velocity": 83}, {"time": 2148, "pitch": 55, "duration": 23, "velocity": 85}, {"time": 2148, "pitch": 62, "duration": 23, "velocity": 85}, {"time": 2160, "pitch": 43, "duration": 12, "velocity": 86}, {"time": 2172, "pitch": 48, "duration": 42, "velocity": 57}, {"time": 2172, "pitch": 55, "duration": 12, "velocity": 62}, {"time": 2172, "pitch": 60, "duration": 18, "velocity": 64}, {"time": 2172, "pitch": 64, "duration": 17, "velocity": 67}, {"time": 2172, "pitch": 67, "duration": 17, "velocity": 73}, {"time": 2193, "pitch": 55, "duration": 8, "velocity": 61}, {"time": 2196, "pitch": 60, "duration": 8, "velocity": 80}, {"time": 2196, "pitch": 64, "duration": 9, "velocity": 68}, {"time": 2196, "pitch": 72, "duration": 7, "velocity": 89}, {"time": 2202, "pitch": 71, "duration": 4, "velocity": 78}, {"time": 2208, "pitch": 55, "duration": 4, "velocity": 75}, {"time": 2208, "pitch": 60, "duration": 4, "velocity": 63}, {"time": 2208, "pitch": 64, "duration": 4, "velocity": 59}, {"time": 2214, "pitch": 64, "duration": 4, "velocity": 32}, {"time": 2214, "pitch": 67, "duration": 5, "velocity": 92}, {"time": 2214, "pitch": 60, "duration": 4, "velocity": 17}, {"time": 2220, "pitch": 55, "duration": 1, "velocity": 91}, {"time": 2220, "pitch": 48, "duration": 46, "velocity": 89}, {"time": 2220, "pitch": 55, "duration": 8, "velocity": 84}, {"time": 2220, "pitch": 64, "duration": 15, "velocity": 85}, {"time": 2244, "pitch": 55, "duration": 6, "velocity": 84}, {"time": 2244, "pitch": 60, "duration": 21, "velocity": 83}, {"time": 2256, "pitch": 55, "duration": 10, "velocity": 79}, {"time": 2268, "pitch": 41, "duration": 19, "velocity": 83}, {"time": 2268, "pitch": 53, "duration": 7, "velocity": 77}, {"time": 2268, "pitch": 60, "duration": 13, "velocity": 80}, {"time": 2274, "pitch": 48, "duration": 14, "velocity": 67}, {"time": 2280, "pitch": 53, "duration": 2, "velocity": 77}, {"time": 2292, "pitch": 43, "duration": 21, "velocity": 76}, {"time": 2292, "pitch": 55, "duration": 15, "velocity": 77}, {"time": 2292, "pitch": 59, "duration": 14, "velocity": 78}, {"time": 2304, "pitch": 50, "duration": 8, "velocity": 60}, {"time": 2316, "pitch": 48, "duration": 27, "velocity": 78}, {"time": 2316, "pitch": 55, "duration": 11, "velocity": 66}, {"time": 2316, "pitch": 60, "duration": 15, "velocity": 73}, {"time": 2316, "pitch": 64, "duration": 13, "velocity": 78}, {"time": 2328, "pitch": 55, "duration": 5, "velocity": 73}, {"time": 2340, "pitch": 55, "duration": 8, "velocity": 85}, {"time": 2340, "pitch": 60, "duration": 8, "velocity": 90}, {"time": 2340, "pitch": 64, "duration": 10, "velocity": 91}, {"time": 2352, "pitch": 62, "duration": 2, "velocity": 82}, {"time": 2364, "pitch": 41, "duration": 43, "velocity": 84}, {"time": 2364, "pitch": 53, "duration": 7, "velocity": 76}, {"time": 2364, "pitch": 60, "duration": 14, "velocity": 79}, {"time": 2370, "pitch": 48, "duration": 26, "velocity": 71}, {"time": 2376, "pitch": 53, "duration": 15, "velocity": 80}, {"time": 2382, "pitch": 57, "duration": 9, "velocity": 79}, {"time": 2394, "pitch": 60, "duration": 13, "velocity": 85}, {"time": 2406, "pitch": 53, "duration": 3, "velocity": 80}, {"time": 2412, "pitch": 41, "duration": 12, "velocity": 85}, {"time": 2412, "pitch": 53, "duration": 9, "velocity": 84}, {"time": 2412, "pitch": 60, "duration": 9, "velocity": 80}, {"time": 2436, "pitch": 40, "duration": 23, "velocity": 87}, {"time": 2436, "pitch": 52, "duration": 23, "velocity": 85}, {"time": 2436, "pitch": 64, "duration": 23, "velocity": 86}, {"time": 2460, "pitch": 50, "duration": 35, "velocity": 83}, {"time": 2460, "pitch": 57, "duration": 4, "velocity": 77}, {"time": 2460, "pitch": 62, "duration": 7, "velocity": 79}, {"time": 2466, "pitch": 57, "duration": 7, "velocity": 73}, {"time": 2472, "pitch": 62, "duration": 3, "velocity": 73}, {"time": 2484, "pitch": 57, "duration": 13, "velocity": 81}, {"time": 2484, "pitch": 65, "duration": 11, "velocity": 80}, {"time": 2496, "pitch": 62, "duration": 2, "velocity": 76}, {"time": 2508, "pitch": 43, "duration": 34, "velocity": 81}, {"time": 2508, "pitch": 55, "duration": 14, "velocity": 75}, {"time": 2508, "pitch": 62, "duration": 16, "velocity": 78}, {"time": 2520, "pitch": 50, "duration": 13, "velocity": 72}, {"time": 2532, "pitch": 59, "duration": 12, "velocity": 93}, {"time": 2538, "pitch": 50, "duration": 5, "velocity": 83}, {"time": 2544, "pitch": 55, "duration": 3, "velocity": 87}, {"time": 2556, "pitch": 40, "duration": 38, "velocity": 85}, {"time": 2556, "pitch": 52, "duration": 22, "velocity": 80}, {"time": 2556, "pitch": 55, "duration": 12, "velocity": 78}, {"time": 2568, "pitch": 47, "duration": 16, "velocity": 66}, {"time": 2580, "pitch": 55, "duration": 4, "velocity": 87}, {"time": 2580, "pitch": 59, "duration": 12, "velocity": 87}, {"time": 2592, "pitch": 47, "duration": 4, "velocity": 74}, {"time": 2598, "pitch": 55, "duration": 7, "velocity": 79}, {"time": 2604, "pitch": 45, "duration": 38, "velocity": 85}, {"time": 2604, "pitch": 57, "duration": 18, "velocity": 84}, {"time": 2616, "pitch": 52, "duration": 15, "velocity": 78}, {"time": 2622, "pitch": 64, "duration": 14, "velocity": 80}, {"time": 2628, "pitch": 57, "duration": 8, "velocity": 87}, {"time": 2634, "pitch": 52, "duration": 7, "velocity": 82}, {"time": 2640, "pitch": 57, "duration": 3, "velocity": 78}, {"time": 2640, "pitch": 60, "duration": 6, "velocity": 77}, {"time": 2646, "pitch": 57, "duration": 1, "velocity": 55}, {"time": 2652, "pitch": 41, "duration": 34, "velocity": 84}, {"time": 2652, "pitch": 53, "duration": 13, "velocity": 68}, {"time": 2652, "pitch": 57, "duration": 13, "velocity": 73}, {"time": 2664, "pitch": 48, "duration": 14, "velocity": 73}, {"time": 2676, "pitch": 53, "duration": 7, "velocity": 81}, {"time": 2676, "pitch": 60, "duration": 12, "velocity": 83}, {"time": 2682, "pitch": 48, "duration": 8, "velocity": 76}, {"time": 2688, "pitch": 53, "duration": 7, "velocity": 79}, {"time": 2694, "pitch": 60, "duration": 6, "velocity": 73}, {"time": 2700, "pitch": 43, "duration": 31, "velocity": 85}, {"time": 2700, "pitch": 55, "duration": 18, "velocity": 78}, {"time": 2700, "pitch": 59, "duration": 15, "velocity": 73}, {"time": 2712, "pitch": 50, "duration": 15, "velocity": 74}, {"time": 2724, "pitch": 55, "duration": 6, "velocity": 84}, {"time": 2724, "pitch": 59, "duration": 6, "velocity": 85}, {"time": 2724, "pitch": 62, "duration": 7, "velocity": 84}, {"time": 2730, "pitch": 50, "duration": 5, "velocity": 75}, {"time": 2736, "pitch": 43, "duration": 8, "velocity": 83}, {"time": 2748, "pitch": 40, "duration": 2, "velocity": 87}, {"time": 2748, "pitch": 64, "duration": 13, "velocity": 85}, {"time": 2748, "pitch": 69, "duration": 15, "velocity": 85}, {"time": 2754, "pitch": 52, "duration": 25, "velocity": 84}, {"time": 2760, "pitch": 59, "duration": 14, "velocity": 83}, {"time": 2766, "pitch": 64, "duration": 3, "velocity": 88}, {"time": 2772, "pitch": 64, "duration": 6, "velocity": 90}, {"time": 2772, "pitch": 69, "duration": 6, "velocity": 90}, {"time": 2778, "pitch": 59, "duration": 4, "velocity": 72}, {"time": 2784, "pitch": 64, "duration": 4, "velocity": 87}, {"time": 2784, "pitch": 68, "duration": 6, "velocity": 84}, {"time": 2796, "pitch": 45, "duration": 37, "velocity": 83}, {"time": 2796, "pitch": 64, "duration": 7, "velocity": 79}, {"time": 2796, "pitch": 69, "duration": 14, "velocity": 78}, {"time": 2802, "pitch": 52, "duration": 21, "velocity": 72}, {"time": 2808, "pitch": 64, "duration": 5, "velocity": 73}, {"time": 2820, "pitch": 64, "duration": 11, "velocity": 84}, {"time": 2820, "pitch": 69, "duration": 12, "velocity": 80}, {"time": 2820, "pitch": 72, "duration": 12, "velocity": 80}, {"time": 2832, "pitch": 52, "duration": 3, "velocity": 78}, {"time": 2844, "pitch": 41, "duration": 38, "velocity": 84}, {"time": 2844, "pitch": 60, "duration": 15, "velocity": 73}, {"time": 2844, "pitch": 65, "duration": 14, "velocity": 77}, {"time": 2856, "pitch": 48, "duration": 14, "velocity": 59}, {"time": 2868, "pitch": 60, "duration": 7, "velocity": 84}, {"time": 2868, "pitch": 65, "duration": 12, "velocity": 85}, {"time": 2868, "pitch": 69, "duration": 16, "velocity": 83}, {"time": 2874, "pitch": 48, "duration": 8, "velocity": 54}, {"time": 2880, "pitch": 60, "duration": 4, "velocity": 80}, {"time": 2892, "pitch": 43, "duration": 37, "velocity": 83}, {"time": 2892, "pitch": 62, "duration": 16, "velocity": 76}, {"time": 2892, "pitch": 67, "duration": 15, "velocity": 76}, {"time": 2904, "pitch": 50, "duration": 21, "velocity": 62}, {"time": 2916, "pitch": 62, "duration": 7, "velocity": 83}, {"time": 2916, "pitch": 67, "duration": 22, "velocity": 81}, {"time": 2916, "pitch": 71, "duration": 13, "velocity": 84}, {"time": 2928, "pitch": 62, "duration": 10, "velocity": 68}, {"time": 2940, "pitch": 36, "duration": 2, "velocity": 80}, {"time": 2946, "pitch": 48, "duration": 39, "velocity": 76}, {"time": 2952, "pitch": 55, "duration": 12, "velocity": 82}, {"time": 2958, "pitch": 60, "duration": 12, "velocity": 82}, {"time": 2958, "pitch": 65, "duration": 14, "velocity": 79}, {"time": 2970, "pitch": 55, "duration": 15, "velocity": 71}, {"time": 2976, "pitch": 62, "duration": 10, "velocity": 78}, {"time": 2988, "pitch": 36, "duration": 2, "velocity": 83}, {"time": 2988, "pitch": 55, "duration": 11, "velocity": 84}, {"time": 2988, "pitch": 60, "duration": 16, "velocity": 84}, {"time": 2988, "pitch": 64, "duration": 17, "velocity": 85}, {"time": 3006, "pitch": 55, "duration": 4, "velocity": 79}, {"time": 3012, "pitch": 43, "duration": 15, "velocity": 85}, {"time": 3012, "pitch": 55, "duration": 7, "velocity": 84}, {"time": 3012, "pitch": 62, "duration": 11, "velocity": 80}, {"time": 3018, "pitch": 50, "duration": 8, "velocity": 76}, {"time": 3024, "pitch": 55, "duration": 3, "velocity": 85}, {"time": 3036, "pitch": 48, "duration": 38, "velocity": 89}, {"time": 3036, "pitch": 55, "duration": 5, "velocity": 86}, {"time": 3036, "pitch": 60, "duration": 13, "velocity": 84}, {"time": 3048, "pitch": 55, "duration": 5, "velocity": 84}, {"time": 3060, "pitch": 55, "duration": 6, "velocity": 85}, {"time": 3060, "pitch": 60, "duration": 11, "velocity": 88}, {"time": 3060, "pitch": 64, "duration": 13, "velocity": 88}, {"time": 3072, "pitch": 55, "duration": 8, "velocity": 85}, {"time": 3078, "pitch": 60, "duration": 5, "velocity": 84}, {"time": 3084, "pitch": 40, "duration": 30, "velocity": 86}, {"time": 3084, "pitch": 59, "duration": 8, "velocity": 83}, {"time": 3084, "pitch": 64, "duration": 14, "velocity": 84}, {"time": 3096, "pitch": 47, "duration": 17, "velocity": 79}, {"time": 3108, "pitch": 59, "duration": 5, "velocity": 85}, {"time": 3108, "pitch": 64, "duration": 12, "velocity": 90}, {"time": 3108, "pitch": 67, "duration": 10, "velocity": 84}, {"time": 3120, "pitch": 59, "duration": 3, "velocity": 89}, {"time": 3132, "pitch": 45, "duration": 36, "velocity": 85}, {"time": 3132, "pitch": 57, "duration": 12, "velocity": 79}, {"time": 3132, "pitch": 60, "duration": 12, "velocity": 80}, {"time": 3144, "pitch": 52, "duration": 14, "velocity": 77}, {"time": 3156, "pitch": 57, "duration": 6, "velocity": 85}, {"time": 3156, "pitch": 60, "duration": 8, "velocity": 88}, {"time": 3156, "pitch": 64, "duration": 8, "velocity": 93}, {"time": 3162, "pitch": 52, "duration": 6, "velocity": 82}, {"time": 3168, "pitch": 57, "duration": 8, "velocity": 86}, {"time": 3180, "pitch": 41, "duration": 15, "velocity": 84}, {"time": 3180, "pitch": 57, "duration": 14, "velocity": 83}, {"time": 3180, "pitch": 60, "duration": 14, "velocity": 80}, {"time": 3192, "pitch": 48, "duration": 5, "velocity": 80}, {"time": 3204, "pitch": 43, "duration": 20, "velocity": 87}, {"time": 3204, "pitch": 55, "duration": 6, "velocity": 84}, {"time": 3204, "pitch": 59, "duration": 8, "velocity": 83}, {"time": 3210, "pitch": 50, "duration": 14, "velocity": 85}, {"time": 3216, "pitch": 55, "duration": 9, "velocity": 91}, {"time": 3222, "pitch": 59, "duration": 5, "velocity": 86}, {"time": 3228, "pitch": 48, "duration": 44, "velocity": 86}, {"time": 3228, "pitch": 55, "duration": 5, "velocity": 83}, {"time": 3228, "pitch": 60, "duration": 16, "velocity": 84}, {"time": 3240, "pitch": 55, "duration": 7, "velocity": 82}, {"time": 3252, "pitch": 55, "duration": 8, "velocity": 85}, {"time": 3252, "pitch": 60, "duration": 15, "velocity": 84}, {"time": 3252, "pitch": 64, "duration": 15, "velocity": 84}, {"time": 3264, "pitch": 55, "duration": 13, "velocity": 86}, {"time": 3270, "pitch": 62, "duration": 19, "velocity": 85}, {"time": 3276, "pitch": 43, "duration": 39, "velocity": 86}, {"time": 3282, "pitch": 50, "duration": 20, "velocity": 79}, {"time": 3288, "pitch": 55, "duration": 10, "velocity": 86}, {"time": 3300, "pitch": 55, "duration": 7, "velocity": 85}, {"time": 3300, "pitch": 62, "duration": 14, "velocity": 86}, {"time": 3300, "pitch": 67, "duration": 11, "velocity": 80}, {"time": 3306, "pitch": 50, "duration": 17, "velocity": 77}, {"time": 3312, "pitch": 55, "duration": 3, "velocity": 98}, {"time": 3324, "pitch": 45, "duration": 38, "velocity": 86}, {"time": 3324, "pitch": 57, "duration": 12, "velocity": 80}, {"time": 3324, "pitch": 60, "duration": 12, "velocity": 81}, {"time": 3336, "pitch": 52, "duration": 15, "velocity": 80}, {"time": 3342, "pitch": 57, "duration": 2, "velocity": 74}, {"time": 3348, "pitch": 57, "duration": 7, "velocity": 84}, {"time": 3348, "pitch": 64, "duration": 8, "velocity": 88}, {"time": 3354, "pitch": 52, "duration": 8, "velocity": 80}, {"time": 3360, "pitch": 57, "duration": 5, "velocity": 86}, {"time": 3360, "pitch": 60, "duration": 4, "velocity": 90}, {"time": 3372, "pitch": 40, "duration": 41, "velocity": 89}, {"time": 3372, "pitch": 60, "duration": 13, "velocity": 79}, {"time": 3384, "pitch": 47, "duration": 15, "velocity": 79}, {"time": 3396, "pitch": 55, "duration": 12, "velocity": 90}, {"time": 3396, "pitch": 59, "duration": 18, "velocity": 91}, {"time": 3408, "pitch": 47, "duration": 8, "velocity": 80}, {"time": 3414, "pitch": 55, "duration": 3, "velocity": 86}, {"time": 3420, "pitch": 41, "duration": 40, "velocity": 87}, {"time": 3420, "pitch": 53, "duration": 15, "velocity": 79}, {"time": 3420, "pitch": 60, "duration": 14, "velocity": 80}, {"time": 3432, "pitch": 48, "duration": 15, "velocity": 85}, {"time": 3444, "pitch": 53, "duration": 7, "velocity": 86}, {"time": 3444, "pitch": 60, "duration": 13, "velocity": 86}, {"time": 3450, "pitch": 48, "duration": 15, "velocity": 84}, {"time": 3456, "pitch": 53, "duration": 8, "velocity": 89}, {"time": 3462, "pitch": 57, "duration": 6, "velocity": 83}, {"time": 3468, "pitch": 43, "duration": 38, "velocity": 84}, {"time": 3468, "pitch": 55, "duration": 7, "velocity": 83}, {"time": 3468, "pitch": 67, "duration": 15, "velocity": 79}, {"time": 3474, "pitch": 50, "duration": 19, "velocity": 76}, {"time": 3480, "pitch": 55, "duration": 9, "velocity": 84}, {"time": 3492, "pitch": 55, "duration": 7, "velocity": 86}, {"time": 3492, "pitch": 62, "duration": 13, "velocity": 85}, {"time": 3492, "pitch": 67, "duration": 11, "velocity": 82}, {"time": 3498, "pitch": 50, "duration": 9, "velocity": 84}, {"time": 3504, "pitch": 55, "duration": 8, "velocity": 90}, {"time": 3516, "pitch": 48, "duration": 27, "velocity": 91}, {"time": 3516, "pitch": 55, "duration": 5, "velocity": 86}, {"time": 3516, "pitch": 60, "duration": 7, "velocity": 84}, {"time": 3528, "pitch": 55, "duration": 6, "velocity": 81}, {"time": 3540, "pitch": 55, "duration": 6, "velocity": 90}, {"time": 3540, "pitch": 60, "duration": 8, "velocity": 91}, {"time": 3540, "pitch": 64, "duration": 8, "velocity": 95}, {"time": 3546, "pitch": 48, "duration": 3, "velocity": 88}, {"time": 3552, "pitch": 55, "duration": 4, "velocity": 90}, {"time": 3558, "pitch": 55, "duration": 2, "velocity": 62}, {"time": 3558, "pitch": 64, "duration": 3, "velocity": 78}, {"time": 3564, "pitch": 41, "duration": 18, "velocity": 88}, {"time": 3564, "pitch": 53, "duration": 8, "velocity": 84}, {"time": 3564, "pitch": 65, "duration": 14, "velocity": 85}, {"time": 3570, "pitch": 48, "duration": 13, "velocity": 85}, {"time": 3576, "pitch": 53, "duration": 5, "velocity": 86}, {"time": 3588, "pitch": 43, "duration": 13, "velocity": 90}, {"time": 3588, "pitch": 55, "duration": 7, "velocity": 85}, {"time": 3588, "pitch": 59, "duration": 8, "velocity": 84}, {"time": 3588, "pitch": 62, "duration": 11, "velocity": 84}, {"time": 3594, "pitch": 50, "duration": 7, "velocity": 80}, {"time": 3600, "pitch": 55, "duration": 4, "velocity": 98}, {"time": 3606, "pitch": 55, "duration": 2, "velocity": 65}, {"time": 3612, "pitch": 41, "duration": 31, "velocity": 87}, {"time": 3612, "pitch": 57, "duration": 7, "velocity": 86}, {"time": 3612, "pitch": 60, "duration": 9, "velocity": 87}, {"time": 3618, "pitch": 48, "duration": 22, "velocity": 78}, {"time": 3624, "pitch": 60, "duration": 7, "velocity": 81}, {"time": 3624, "pitch": 65, "duration": 7, "velocity": 78}, {"time": 3630, "pitch": 57, "duration": 3, "velocity": 69}, {"time": 3636, "pitch": 57, "duration": 1, "velocity": 78}, {"time": 3636, "pitch": 60, "duration": 13, "velocity": 91}, {"time": 3636, "pitch": 65, "duration": 13, "velocity": 85}, {"time": 3642, "pitch": 48, "duration": 3, "velocity": 85}, {"time": 3648, "pitch": 57, "duration": 9, "velocity": 83}, {"time": 3654, "pitch": 60, "duration": 3, "velocity": 70}, {"time": 3660, "pitch": 41, "duration": 44, "velocity": 85}, {"time": 3660, "pitch": 57, "duration": 7, "velocity": 76}, {"time": 3660, "pitch": 60, "duration": 8, "velocity": 77}, {"time": 3660, "pitch": 65, "duration": 8, "velocity": 77}, {"time": 3672, "pitch": 57, "duration": 1, "velocity": 72}, {"time": 3672, "pitch": 60, "duration": 2, "velocity": 82}, {"time": 3672, "pitch": 65, "duration": 2, "velocity": 77}, {"time": 3678, "pitch": 57, "duration": 2, "velocity": 72}, {"time": 3684, "pitch": 48, "duration": 19, "velocity": 84}, {"time": 3684, "pitch": 57, "duration": 3, "velocity": 81}, {"time": 3684, "pitch": 60, "duration": 7, "velocity": 85}, {"time": 3684, "pitch": 65, "duration": 6, "velocity": 84}, {"time": 3690, "pitch": 57, "duration": 3, "velocity": 71}, {"time": 3696, "pitch": 60, "duration": 8, "velocity": 85}, {"time": 3696, "pitch": 67, "duration": 9, "velocity": 85}, {"time": 3702, "pitch": 57, "duration": 3, "velocity": 66}, {"time": 3708, "pitch": 40, "duration": 19, "velocity": 88}, {"time": 3708, "pitch": 59, "duration": 7, "velocity": 84}, {"time": 3708, "pitch": 64, "duration": 8, "velocity": 84}, {"time": 3714, "pitch": 47, "duration": 9, "velocity": 84}, {"time": 3720, "pitch": 59, "duration": 3, "velocity": 89}, {"time": 3720, "pitch": 64, "duration": 4, "velocity": 89}, {"time": 3726, "pitch": 47, "duration": 3, "velocity": 86}, {"time": 3732, "pitch": 40, "duration": 17, "velocity": 91}, {"time": 3732, "pitch": 64, "duration": 5, "velocity": 90}, {"time": 3732, "pitch": 68, "duration": 7, "velocity": 85}, {"time": 3744, "pitch": 64, "duration": 2, "velocity": 90}, {"time": 3744, "pitch": 68, "duration": 4, "velocity": 95}, {"time": 3750, "pitch": 64, "duration": 3, "velocity": 80}, {"time": 3756, "pitch": 45, "duration": 33, "velocity": 85}, {"time": 3756, "pitch": 64, "duration": 7, "velocity": 85}, {"time": 3756, "pitch": 69, "duration": 8, "velocity": 81}, {"time": 3762, "pitch": 52, "duration": 19, "velocity": 70}, {"time": 3768, "pitch": 64, "duration": 8, "velocity": 90}, {"time": 3768, "pitch": 69, "duration": 8, "velocity": 85}, {"time": 3780, "pitch": 64, "duration": 7, "velocity": 90}, {"time": 3780, "pitch": 69, "duration": 7, "velocity": 90}, {"time": 3780, "pitch": 72, "duration": 8, "velocity": 93}, {"time": 3786, "pitch": 52, "duration": 4, "velocity": 85}, {"time": 3792, "pitch": 64, "duration": 3, "velocity": 90}, {"time": 3792, "pitch": 71, "duration": 7, "velocity": 86}, {"time": 3798, "pitch": 69, "duration": 4, "velocity": 77}, {"time": 3804, "pitch": 41, "duration": 34, "velocity": 85}, {"time": 3804, "pitch": 65, "duration": 7, "velocity": 79}, {"time": 3804, "pitch": 69, "duration": 8, "velocity": 81}, {"time": 3810, "pitch": 48, "duration": 9, "velocity": 78}, {"time": 3816, "pitch": 65, "duration": 7, "velocity": 88}, {"time": 3822, "pitch": 48, "duration": 8, "velocity": 71}, {"time": 3828, "pitch": 65, "duration": 7, "velocity": 85}, {"time": 3828, "pitch": 69, "duration": 14, "velocity": 89}, {"time": 3828, "pitch": 72, "duration": 15, "velocity": 85}, {"time": 3834, "pitch": 48, "duration": 6, "velocity": 79}, {"time": 3840, "pitch": 41, "duration": 4, "velocity": 86}, {"time": 3840, "pitch": 65, "duration": 2, "velocity": 48}, {"time": 3852, "pitch": 43, "duration": 36, "velocity": 86}, {"time": 3852, "pitch": 62, "duration": 6, "velocity": 85}, {"time": 3852, "pitch": 67, "duration": 9, "velocity": 81}, {"time": 3858, "pitch": 50, "duration": 20, "velocity": 77}, {"time": 3864, "pitch": 62, "duration": 7, "velocity": 98}, {"time": 3870, "pitch": 67, "duration": 2, "velocity": 83}, {"time": 3876, "pitch": 62, "duration": 6, "velocity": 86}, {"time": 3876, "pitch": 67, "duration": 8, "velocity": 91}, {"time": 3876, "pitch": 71, "duration": 13, "velocity": 88}, {"time": 3882, "pitch": 50, "duration": 5, "velocity": 80}, {"time": 3888, "pitch": 62, "duration": 4, "velocity": 85}, {"time": 3900, "pitch": 45, "duration": 20, "velocity": 90}, {"time": 3900, "pitch": 64, "duration": 5, "velocity": 87}, {"time": 3900, "pitch": 69, "duration": 5, "velocity": 85}, {"time": 3906, "pitch": 52, "duration": 13, "velocity": 79}, {"time": 3912, "pitch": 57, "duration": 3, "velocity": 84}, {"time": 3918, "pitch": 57, "duration": 8, "velocity": 89}, {"time": 3918, "pitch": 62, "duration": 13, "velocity": 89}, {"time": 3924, "pitch": 45, "duration": 2, "velocity": 59}, {"time": 3924, "pitch": 52, "duration": 16, "velocity": 85}, {"time": 3930, "pitch": 57, "duration": 2, "velocity": 93}, {"time": 3936, "pitch": 57, "duration": 3, "velocity": 86}, {"time": 3936, "pitch": 62, "duration": 9, "velocity": 93}, {"time": 3942, "pitch": 57, "duration": 4, "velocity": 83}, {"time": 3948, "pitch": 45, "duration": 20, "velocity": 90}, {"time": 3948, "pitch": 57, "duration": 20, "velocity": 89}, {"time": 3948, "pitch": 61, "duration": 20, "velocity": 98}, {"time": 3972, "pitch": 45, "duration": 23, "velocity": 90}, {"time": 3972, "pitch": 52, "duration": 22, "velocity": 98}, {"time": 3972, "pitch": 57, "duration": 22, "velocity": 88}, {"time": 3972, "pitch": 61, "duration": 22, "velocity": 98}, {"time": 3972, "pitch": 69, "duration": 23, "velocity": 85}, {"time": 3996, "pitch": 50, "duration": 43, "velocity": 92}, {"time": 3996, "pitch": 62, "duration": 6, "velocity": 84}, {"time": 3996, "pitch": 69, "duration": 11, "velocity": 83}, {"time": 4002, "pitch": 57, "duration": 16, "velocity": 89}, {"time": 4008, "pitch": 62, "duration": 3, "velocity": 98}, {"time": 4014, "pitch": 62, "duration": 13, "velocity": 100}, {"time": 4014, "pitch": 69, "duration": 19, "velocity": 90}, {"time": 4026, "pitch": 57, "duration": 14, "velocity": 85}, {"time": 4032, "pitch": 62, "duration": 12, "velocity": 94}, {"time": 4038, "pitch": 66, "duration": 16, "velocity": 100}, {"time": 4044, "pitch": 45, "duration": 39, "velocity": 90}, {"time": 4050, "pitch": 52, "duration": 15, "velocity": 83}, {"time": 4056, "pitch": 57, "duration": 18, "velocity": 91}, {"time": 4062, "pitch": 64, "duration": 19, "velocity": 93}, {"time": 4068, "pitch": 52, "duration": 17, "velocity": 87}, {"time": 4074, "pitch": 69, "duration": 17, "velocity": 89}, {"time": 4080, "pitch": 57, "duration": 7, "velocity": 94}, {"time": 4086, "pitch": 64, "duration": 5, "velocity": 89}, {"time": 4092, "pitch": 47, "duration": 43, "velocity": 90}, {"time": 4092, "pitch": 59, "duration": 7, "velocity": 84}, {"time": 4092, "pitch": 62, "duration": 12, "velocity": 84}, {"time": 4098, "pitch": 54, "duration": 15, "velocity": 86}, {"time": 4104, "pitch": 59, "duration": 3, "velocity": 89}, {"time": 4110, "pitch": 59, "duration": 7, "velocity": 90}, {"time": 4110, "pitch": 66, "duration": 13, "velocity": 94}, {"time": 4116, "pitch": 54, "duration": 18, "velocity": 83}, {"time": 4122, "pitch": 59, "duration": 4, "velocity": 89}, {"time": 4128, "pitch": 64, "duration": 7, "velocity": 92}, {"time": 4134, "pitch": 62, "duration": 4, "velocity": 93}, {"time": 4140, "pitch": 43, "duration": 20, "velocity": 89}, {"time": 4140, "pitch": 62, "duration": 11, "velocity": 91}, {"time": 4146, "pitch": 50, "duration": 16, "velocity": 77}, {"time": 4152, "pitch": 55, "duration": 7, "velocity": 91}, {"time": 4158, "pitch": 62, "duration": 5, "velocity": 91}, {"time": 4164, "pitch": 45, "duration": 21, "velocity": 91}, {"time": 4164, "pitch": 57, "duration": 6, "velocity": 89}, {"time": 4164, "pitch": 61, "duration": 10, "velocity": 90}, {"time": 4170, "pitch": 52, "duration": 15, "velocity": 90}, {"time": 4176, "pitch": 57, "duration": 7, "velocity": 95}, {"time": 4182, "pitch": 61, "duration": 4, "velocity": 91}, {"time": 4188, "pitch": 50, "duration": 35, "velocity": 103}, {"time": 4188, "pitch": 57, "duration": 4, "velocity": 90}, {"time": 4188, "pitch": 62, "duration": 7, "velocity": 88}, {"time": 4194, "pitch": 57, "duration": 6, "velocity": 86}, {"time": 4200, "pitch": 62, "duration": 3, "velocity": 80}, {"time": 4206, "pitch": 57, "duration": 6, "velocity": 89}, {"time": 4206, "pitch": 66, "duration": 12, "velocity": 95}, {"time": 4218, "pitch": 57, "duration": 3, "velocity": 90}, {"time": 4224, "pitch": 57, "duration": 1, "velocity": 76}, {"time": 4224, "pitch": 66, "duration": 12, "velocity": 100}, {"time": 4230, "pitch": 57, "duration": 6, "velocity": 91}, {"time": 4236, "pitch": 45, "duration": 39, "velocity": 90}, {"time": 4236, "pitch": 64, "duration": 10, "velocity": 85}, {"time": 4242, "pitch": 52, "duration": 35, "velocity": 83}, {"time": 4248, "pitch": 57, "duration": 2, "velocity": 92}, {"time": 4254, "pitch": 57, "duration": 4, "velocity": 92}, {"time": 4254, "pitch": 64, "duration": 7, "velocity": 92}, {"time": 4260, "pitch": 62, "duration": 7, "velocity": 92}, {"time": 4266, "pitch": 61, "duration": 5, "velocity": 96}, {"time": 4272, "pitch": 59, "duration": 7, "velocity": 91}, {"time": 4278, "pitch": 61, "duration": 6, "velocity": 89}, {"time": 4284, "pitch": 47, "duration": 40, "velocity": 90}, {"time": 4284, "pitch": 59, "duration": 6, "velocity": 89}, {"time": 4284, "pitch": 62, "duration": 13, "velocity": 90}, {"time": 4290, "pitch": 54, "duration": 26, "velocity": 89}, {"time": 4296, "pitch": 59, "duration": 3, "velocity": 85}, {"time": 4302, "pitch": 59, "duration": 9, "velocity": 90}, {"time": 4302, "pitch": 66, "duration": 9, "velocity": 94}, {"time": 4314, "pitch": 59, "duration": 7, "velocity": 89}, {"time": 4314, "pitch": 62, "duration": 13, "velocity": 92}, {"time": 4320, "pitch": 54, "duration": 4, "velocity": 88}, {"time": 4326, "pitch": 59, "duration": 5, "velocity": 90}, {"time": 4332, "pitch": 42, "duration": 40, "velocity": 91}, {"time": 4332, "pitch": 61, "duration": 11, "velocity": 91}, {"time": 4338, "pitch": 49, "duration": 15, "velocity": 81}, {"time": 4344, "pitch": 57, "duration": 3, "velocity": 89}, {"time": 4350, "pitch": 57, "duration": 14, "velocity": 89}, {"time": 4350, "pitch": 61, "duration": 10, "velocity": 90}, {"time": 4356, "pitch": 49, "duration": 8, "velocity": 83}, {"time": 4362, "pitch": 61, "duration": 11, "velocity": 91}, {"time": 4362, "pitch": 66, "duration": 10, "velocity": 93}, {"time": 4368, "pitch": 49, "duration": 7, "velocity": 89}, {"time": 4374, "pitch": 57, "duration": 5, "velocity": 90}, {"time": 4380, "pitch": 43, "duration": 40, "velocity": 89}, {"time": 4380, "pitch": 57, "duration": 1, "velocity": 79}, {"time": 4380, "pitch": 59, "duration": 12, "velocity": 77}, {"time": 4386, "pitch": 50, "duration": 16, "velocity": 89}, {"time": 4392, "pitch": 55, "duration": 5, "velocity": 90}, {"time": 4398, "pitch": 55, "duration": 17, "velocity": 87}, {"time": 4398, "pitch": 62, "duration": 19, "velocity": 91}, {"time": 4410, "pitch": 50, "duration": 9, "velocity": 89}, {"time": 4416, "pitch": 59, "duration": 3, "velocity": 91}, {"time": 4428, "pitch": 42, "duration": 36, "velocity": 91}, {"time": 4428, "pitch": 61, "duration": 13, "velocity": 89}, {"time": 4428, "pitch": 66, "duration": 13, "velocity": 90}, {"time": 4434, "pitch": 49, "duration": 21, "velocity": 78}, {"time": 4440, "pitch": 57, "duration": 8, "velocity": 89}, {"time": 4446, "pitch": 61, "duration": 18, "velocity": 90}, {"time": 4446, "pitch": 66, "duration": 20, "velocity": 94}, {"time": 4458, "pitch": 49, "duration": 6, "velocity": 89}, {"time": 4464, "pitch": 57, "duration": 7, "velocity": 93}, {"time": 4470, "pitch": 61, "duration": 5, "velocity": 86}, {"time": 4476, "pitch": 52, "duration": 36, "velocity": 90}, {"time": 4476, "pitch": 64, "duration": 8, "velocity": 83}, {"time": 4482, "pitch": 59, "duration": 8, "velocity": 89}, {"time": 4488, "pitch": 62, "duration": 7, "velocity": 82}, {"time": 4494, "pitch": 67, "duration": 17, "velocity": 95}, {"time": 4506, "pitch": 59, "duration": 5, "velocity": 86}, {"time": 4512, "pitch": 64, "duration": 7, "velocity": 90}, {"time": 4518, "pitch": 59, "duration": 3, "velocity": 89}, {"time": 4524, "pitch": 45, "duration": 44, "velocity": 90}, {"time": 4524, "pitch": 57, "duration": 6, "velocity": 85}, {"time": 4524, "pitch": 61, "duration": 7, "velocity": 82}, {"time": 4530, "pitch": 52, "duration": 17, "velocity": 90}, {"time": 4536, "pitch": 57, "duration": 3, "velocity": 84}, {"time": 4536, "pitch": 61, "duration": 3, "velocity": 85}, {"time": 4536, "pitch": 64, "duration": 3, "velocity": 83}, {"time": 4542, "pitch": 57, "duration": 9, "velocity": 90}, {"time": 4542, "pitch": 61, "duration": 8, "velocity": 91}, {"time": 4542, "pitch": 64, "duration": 9, "velocity": 90}, {"time": 4548, "pitch": 52, "duration": 9, "velocity": 81}, {"time": 4554, "pitch": 57, "duration": 6, "velocity": 92}, {"time": 4554, "pitch": 69, "duration": 14, "velocity": 89}, {"time": 4560, "pitch": 52, "duration": 9, "velocity": 81}, {"time": 4566, "pitch": 57, "duration": 8, "velocity": 87}, {"time": 4572, "pitch": 50, "duration": 39, "velocity": 90}, {"time": 4572, "pitch": 64, "duration": 12, "velocity": 84}, {"time": 4578, "pitch": 57, "duration": 9, "velocity": 92}, {"time": 4584, "pitch": 62, "duration": 6, "velocity": 85}, {"time": 4590, "pitch": 64, "duration": 11, "velocity": 89}, {"time": 4602, "pitch": 62, "duration": 7, "velocity": 84}, {"time": 4608, "pitch": 57, "duration": 7, "velocity": 90}, {"time": 4614, "pitch": 66, "duration": 19, "velocity": 90}, {"time": 4620, "pitch": 42, "duration": 34, "velocity": 92}, {"time": 4626, "pitch": 49, "duration": 27, "velocity": 81}, {"time": 4632, "pitch": 61, "duration": 4, "velocity": 90}, {"time": 4638, "pitch": 61, "duration": 10, "velocity": 89}, {"time": 4638, "pitch": 69, "duration": 13, "velocity": 89}, {"time": 4650, "pitch": 66, "duration": 6, "velocity": 93}, {"time": 4656, "pitch": 61, "duration": 7, "velocity": 91}, {"time": 4662, "pitch": 66, "duration": 3, "velocity": 84}, {"time": 4668, "pitch": 47, "duration": 40, "velocity": 89}, {"time": 4668, "pitch": 59, "duration": 7, "velocity": 86}, {"time": 4668, "pitch": 62, "duration": 13, "velocity": 89}, {"time": 4674, "pitch": 54, "duration": 25, "velocity": 84}, {"time": 4680, "pitch": 59, "duration": 3, "velocity": 85}, {"time": 4686, "pitch": 59, "duration": 7, "velocity": 93}, {"time": 4686, "pitch": 66, "duration": 8, "velocity": 92}, {"time": 4698, "pitch": 59, "duration": 6, "velocity": 89}, {"time": 4698, "pitch": 62, "duration": 9, "velocity": 91}, {"time": 4704, "pitch": 54, "duration": 4, "velocity": 86}, {"time": 4710, "pitch": 59, "duration": 7, "velocity": 88}, {"time": 4716, "pitch": 43, "duration": 17, "velocity": 90}, {"time": 4716, "pitch": 62, "duration": 12, "velocity": 85}, {"time": 4722, "pitch": 50, "duration": 15, "velocity": 87}, {"time": 4728, "pitch": 55, "duration": 6, "velocity": 93}, {"time": 4734, "pitch": 62, "duration": 5, "velocity": 86}, {"time": 4740, "pitch": 45, "duration": 21, "velocity": 90}, {"time": 4740, "pitch": 57, "duration": 7, "velocity": 89}, {"time": 4740, "pitch": 61, "duration": 12, "velocity": 87}, {"time": 4746, "pitch": 52, "duration": 15, "velocity": 86}, {"time": 4752, "pitch": 57, "duration": 7, "velocity": 91}, {"time": 4758, "pitch": 61, "duration": 5, "velocity": 95}, {"time": 4764, "pitch": 50, "duration": 46, "velocity": 92}, {"time": 4764, "pitch": 62, "duration": 13, "velocity": 91}, {"time": 4770, "pitch": 54, "duration": 39, "velocity": 82}, {"time": 4776, "pitch": 57, "duration": 3, "velocity": 90}, {"time": 4782, "pitch": 57, "duration": 7, "velocity": 90}, {"time": 4782, "pitch": 62, "duration": 13, "velocity": 94}, {"time": 4782, "pitch": 66, "duration": 11, "velocity": 92}, {"time": 4794, "pitch": 57, "duration": 7, "velocity": 91}, {"time": 4800, "pitch": 62, "duration": 7, "velocity": 91}, {"time": 4806, "pitch": 57, "duration": 7, "velocity": 93}, {"time": 4812, "pitch": 45, "duration": 39, "velocity": 90}, {"time": 4812, "pitch": 64, "duration": 14, "velocity": 86}, {"time": 4818, "pitch": 52, "duration": 37, "velocity": 89}, {"time": 4824, "pitch": 57, "duration": 7, "velocity": 95}, {"time": 4830, "pitch": 69, "duration": 25, "velocity": 90}, {"time": 4842, "pitch": 64, "duration": 7, "velocity": 89}, {"time": 4848, "pitch": 57, "duration": 7, "velocity": 91}, {"time": 4854, "pitch": 64, "duration": 5, "velocity": 85}, {"time": 4860, "pitch": 47, "duration": 34, "velocity": 90}, {"time": 4860, "pitch": 62, "duration": 12, "velocity": 93}, {"time": 4866, "pitch": 54, "duration": 26, "velocity": 87}, {"time": 4872, "pitch": 59, "duration": 3, "velocity": 91}, {"time": 4878, "pitch": 59, "duration": 12, "velocity": 93}, {"time": 4878, "pitch": 66, "duration": 12, "velocity": 91}, {"time": 4890, "pitch": 62, "duration": 7, "velocity": 90}, {"time": 4896, "pitch": 59, "duration": 8, "velocity": 89}, {"time": 4902, "pitch": 62, "duration": 3, "velocity": 90}, {"time": 4909, "pitch": 42, "duration": 43, "velocity": 88}, {"time": 4915, "pitch": 49, "duration": 39, "velocity": 74}, {"time": 4922, "pitch": 54, "duration": 38, "velocity": 90}, {"time": 4928, "pitch": 57, "duration": 32, "velocity": 77}, {"time": 4935, "pitch": 61, "duration": 25, "velocity": 77}, {"time": 4939, "pitch": 66, "duration": 22, "velocity": 79}, {"time": 5008, "pitch": 43, "duration": 33, "velocity": 84}, {"time": 5015, "pitch": 50, "duration": 25, "velocity": 60}, {"time": 5021, "pitch": 55, "duration": 13, "velocity": 79}, {"time": 5027, "pitch": 62, "duration": 14, "velocity": 80}, {"time": 5033, "pitch": 67, "duration": 11, "velocity": 83}, {"time": 5039, "pitch": 55, "duration": 4, "velocity": 66}, {"time": 5062, "pitch": 45, "duration": 8, "velocity": 84}, {"time": 5066, "pitch": 52, "duration": 4, "velocity": 73}, {"time": 5066, "pitch": 57, "duration": 4, "velocity": 71}, {"time": 5068, "pitch": 61, "duration": 3, "velocity": 72}, {"time": 5070, "pitch": 64, "duration": 2, "velocity": 69}, {"time": 5072, "pitch": 69, "duration": 3, "velocity": 68}, {"time": 5096, "pitch": 69, "duration": 2, "velocity": 64}, {"time": 5097, "pitch": 76, "duration": 3, "velocity": 73}, {"time": 5098, "pitch": 81, "duration": 3, "velocity": 75}, {"time": 5161, "pitch": 43, "duration": 45, "velocity": 85}, {"time": 5167, "pitch": 50, "duration": 23, "velocity": 73}, {"time": 5173, "pitch": 62, "duration": 25, "velocity": 78}, {"time": 5180, "pitch": 67, "duration": 31, "velocity": 80}, {"time": 5192, "pitch": 50, "duration": 15, "velocity": 72}, {"time": 5197, "pitch": 55, "duration": 12, "velocity": 77}, {"time": 5204, "pitch": 62, "duration": 10, "velocity": 85}, {"time": 5210, "pitch": 45, "duration": 56, "velocity": 85}, {"time": 5217, "pitch": 52, "duration": 48, "velocity": 74}, {"time": 5223, "pitch": 57, "duration": 10, "velocity": 69}, {"time": 5230, "pitch": 62, "duration": 6, "velocity": 75}, {"time": 5238, "pitch": 64, "duration": 4, "velocity": 77}, {"time": 5249, "pitch": 69, "duration": 3, "velocity": 77}, {"time": 5284, "pitch": 38, "duration": 73, "velocity": 87}, {"time": 5288, "pitch": 45, "duration": 68, "velocity": 70}, {"time": 5291, "pitch": 52, "duration": 6, "velocity": 79}, {"time": 5294, "pitch": 54, "duration": 5, "velocity": 75}, {"time": 5299, "pitch": 57, "duration": 2, "velocity": 73}, {"time": 5305, "pitch": 62, "duration": 3, "velocity": 79}, {"time": 5310, "pitch": 64, "duration": 4, "velocity": 81}, {"time": 5318, "pitch": 66, "duration": 4, "velocity": 72}, {"time": 5333, "pitch": 62, "duration": 23, "velocity": 62}, {"time": 5335, "pitch": 66, "duration": 20, "velocity": 31}, {"time": 5336, "pitch": 69, "duration": 20, "velocity": 52}, {"time": 5337, "pitch": 74, "duration": 20, "velocity": 50}], "annotations": [{"time": 15, "annotation": {"number": 64, "value": 127}, "group": "control_change"}, {"time": 58, "annotation": {"number": 64, "value": 0}, "group": "control_change"}, {"time": 62, "annotation": {"number": 64, "value": 127}, "group": "control_change"}, {"time": 105, "annotation": {"number": 64, "value": 0}, "group": "control_change"}, {"time": 110, "annotation": {"number": 64, "value": 127}, "group": "control_change"}, {"time": 158, "annotation": {"number": 64, "value": 127}, "group": "control_change"}, {"time": 158, "annotation": {"number": 64, "value": 0}, "group": "control_change"}, {"time": 204, "annotation": {"number": 64, "value": 0}, "group": "control_change"}, {"time": 210, "annotation": {"number": 64, "value": 127}, "group": "control_change"}, {"time": 249, "annotation": {"number": 64, "value": 0}, "group": "control_change"}, {"time": 256, "annotation": {"number": 64, "value": 127}, "group": "control_change"}, {"time": 298, "annotation": {"number": 64, "value": 0}, "group": "control_change"}, {"time": 303, "annotation": {"number": 64, "value": 127}, "group": "control_change"}, {"time": 345, "annotation": {"number": 64, "value": 0}, "group": "control_change"}, {"time": 349, "annotation": {"number": 64, "value": 127}, "group": "control_change"}, {"time": 395, "annotation": {"number": 64, "value": 0}, "group": "control_change"}, {"time": 401, "annotation": {"number": 64, "value": 127}, "group": "control_change"}, {"time": 440, "annotation": {"number": 64, "value": 0}, "group": "control_change"}, {"time": 446, "annotation": {"number": 64, "value": 127}, "group": "control_change"}, {"time": 446, "annotation": {"number": 64, "value": 0}, "group": "control_change"}, {"time": 447, "annotation": {"number": 64, "value": 127}, "group": "control_change"}, {"time": 490, "annotation": {"number": 64, "value": 0}, "group": "control_change"}, {"time": 497, "annotation": {"number": 64, "value": 127}, "group": "control_change"}, {"time": 497, "annotation": {"number": 64, "value": 0}, "group": "control_change"}, {"time": 498, "annotation": {"number": 64, "value": 127}, "group": "control_change"}, {"time": 538, "annotation": {"number": 64, "value": 0}, "group": "control_change"}, {"time": 542, "annotation": {"number": 64, "value": 127}, "group": "control_change"}, {"time": 586, "annotation": {"number": 64, "value": 0}, "group": "control_change"}, {"time": 598, "annotation": {"number": 64, "value": 127}, "group": "control_change"}, {"time": 634, "annotation": {"number": 64, "value": 0}, "group": "control_change"}, {"time": 640, "annotation": {"number": 64, "value": 127}, "group": "control_change"}, {"time": 681, "annotation": {"number": 64, "value": 0}, "group": "control_change"}, {"time": 685, "annotation": {"number": 64, "value": 127}, "group": "control_change"}, {"time": 732, "annotation": {"number": 64, "value": 0}, "group": "control_change"}, {"time": 735, "annotation": {"number": 64, "value": 127}, "group": "control_change"}, {"time": 778, "annotation": {"number": 64, "value": 0}, "group": "control_change"}, {"time": 786, "annotation": {"number": 64, "value": 127}, "group": "control_change"}, {"time": 828, "annotation": {"number": 64, "value": 0}, "group": "control_change"}, {"time": 829, "annotation": {"number": 64, "value": 127}, "group": "control_change"}, {"time": 829, "annotation": {"number": 64, "value": 0}, "group": "control_change"}, {"time": 872, "annotation": {"number": 64, "value": 0}, "group": "control_change"}, {"time": 880, "annotation": {"number": 64, "value": 127}, "group": "control_change"}, {"time": 880, "annotation": {"number": 64, "value": 0}, "group": "control_change"}, {"time": 924, "annotation": {"number": 64, "value": 0}, "group": "control_change"}, {"time": 929, "annotation": {"number": 64, "value": 127}, "group": "control_change"}, {"time": 970, "annotation": {"number": 64, "value": 0}, "group": "control_change"}, {"time": 974, "annotation": {"number": 64, "value": 127}, "group": "control_change"}, {"time": 1016, "annotation": {"number": 64, "value": 0}, "group": "control_change"}, {"time": 1020, "annotation": {"number": 64, "value": 127}, "group": "control_change"}, {"time": 1066, "annotation": {"number": 64, "value": 0}, "group": "control_change"}, {"time": 1067, "annotation": {"number": 64, "value": 127}, "group": "control_change"}, {"time": 1091, "annotation": {"number": 64, "value": 0}, "group": "control_change"}, {"time": 1095, "annotation": {"number": 64, "value": 127}, "group": "control_change"}, {"time": 1113, "annotation": {"number": 64, "value": 0}, "group": "control_change"}, {"time": 1159, "annotation": {"number": 64, "value": 0}, "group": "control_change"}, {"time": 1163, "annotation": {"number": 64, "value": 127}, "group": "control_change"}, {"time": 1208, "annotation": {"number": 64, "value": 0}, "group": "control_change"}, {"time": 1212, "annotation": {"number": 64, "value": 127}, "group": "control_change"}, {"time": 1260, "annotation": {"number": 64, "value": 0}, "group": "control_change"}, {"time": 1261, "annotation": {"number": 64, "value": 127}, "group": "control_change"}, {"time": 1282, "annotation": {"number": 64, "value": 0}, "group": "control_change"}, {"time": 1285, "annotation": {"number": 64, "value": 127}, "group": "control_change"}, {"time": 1304, "annotation": {"number": 64, "value": 0}, "group": "control_change"}, {"time": 1308, "annotation": {"number": 64, "value": 127}, "group": "control_change"}, {"time": 1353, "annotation": {"number": 64, "value": 0}, "group": "control_change"}, {"time": 1356, "annotation": {"number": 64, "value": 127}, "group": "control_change"}, {"time": 1402, "annotation": {"number": 64, "value": 0}, "group": "control_change"}, {"time": 1406, "annotation": {"number": 64, "value": 127}, "group": "control_change"}, {"time": 1452, "annotation": {"number": 64, "value": 0}, "group": "control_change"}, {"time": 1455, "annotation": {"number": 64, "value": 127}, "group": "control_change"}, {"time": 1498, "annotation": {"number": 64, "value": 0}, "group": "control_change"}, {"time": 1502, "annotation": {"number": 64, "value": 127}, "group": "control_change"}, {"time": 1547, "annotation": {"number": 64, "value": 0}, "group": "control_change"}, {"time": 1550, "annotation": {"number": 64, "value": 127}, "group": "control_change"}, {"time": 1596, "annotation": {"number": 64, "value": 0}, "group": "control_change"}, {"time": 1599, "annotation": {"number": 64, "value": 127}, "group": "control_change"}, {"time": 1643, "annotation": {"number": 64, "value": 0}, "group": "control_change"}, {"time": 1647, "annotation": {"number": 64, "value": 127}, "group": "control_change"}, {"time": 1688, "annotation": {"number": 64, "value": 0}, "group": "control_change"}, {"time": 1692, "annotation": {"number": 64, "value": 127}, "group": "control_change"}, {"time": 1738, "annotation": {"number": 64, "value": 0}, "group": "control_change"}, {"time": 1742, "annotation": {"number": 64, "value": 127}, "group": "control_change"}, {"time": 1785, "annotation": {"number": 64, "value": 0}, "group": "control_change"}, {"time": 1790, "annotation": {"number": 64, "value": 127}, "group": "control_change"}, {"time": 1834, "annotation": {"number": 64, "value": 0}, "group": "control_change"}, {"time": 1838, "annotation": {"number": 64, "value": 127}, "group": "control_change"}, {"time": 1859, "annotation": {"number": 64, "value": 0}, "group": "control_change"}, {"time": 1862, "annotation": {"number": 64, "value": 127}, "group": "control_change"}, {"time": 1881, "annotation": {"number": 64, "value": 0}, "group": "control_change"}, {"time": 1885, "annotation": {"number": 64, "value": 127}, "group": "control_change"}, {"time": 1929, "annotation": {"number": 64, "value": 0}, "group": "control_change"}, {"time": 1933, "annotation": {"number": 64, "value": 127}, "group": "control_change"}, {"time": 1977, "annotation": {"number": 64, "value": 0}, "group": "control_change"}, {"time": 1981, "annotation": {"number": 64, "value": 127}, "group": "control_change"}, {"time": 2028, "annotation": {"number": 64, "value": 0}, "group": "control_change"}, {"time": 2031, "annotation": {"number": 64, "value": 127}, "group": "control_change"}, {"time": 2075, "annotation": {"number": 64, "value": 0}, "group": "control_change"}, {"time": 2078, "annotation": {"number": 64, "value": 127}, "group": "control_change"}, {"time": 2078, "annotation": {"number": 64, "value": 0}, "group": "control_change"}, {"time": 2079, "annotation": {"number": 64, "value": 127}, "group": "control_change"}, {"time": 2120, "annotation": {"number": 64, "value": 0}, "group": "control_change"}, {"time": 2127, "annotation": {"number": 64, "value": 127}, "group": "control_change"}, {"time": 2168, "annotation": {"number": 64, "value": 0}, "group": "control_change"}, {"time": 2173, "annotation": {"number": 64, "value": 127}, "group": "control_change"}, {"time": 2177, "annotation": {"number": 64, "value": 71}, "group": "control_change"}, {"time": 2179, "annotation": {"number": 64, "value": 127}, "group": "control_change"}, {"time": 2218, "annotation": {"number": 64, "value": 0}, "group": "control_change"}, {"time": 2220, "annotation": {"number": 64, "value": 71}, "group": "control_change"}, {"time": 2220, "annotation": {"number": 64, "value": 0}, "group": "control_change"}, {"time": 2221, "annotation": {"number": 64, "value": 127}, "group": "control_change"}, {"time": 2261, "annotation": {"number": 64, "value": 0}, "group": "control_change"}, {"time": 2270, "annotation": {"number": 64, "value": 127}, "group": "control_change"}, {"time": 2290, "annotation": {"number": 64, "value": 0}, "group": "control_change"}, {"time": 2294, "annotation": {"number": 64, "value": 127}, "group": "control_change"}, {"time": 2314, "annotation": {"number": 64, "value": 0}, "group": "control_change"}, {"time": 2317, "annotation": {"number": 64, "value": 127}, "group": "control_change"}, {"time": 2361, "annotation": {"number": 64, "value": 0}, "group": "control_change"}, {"time": 2369, "annotation": {"number": 64, "value": 127}, "group": "control_change"}, {"time": 2410, "annotation": {"number": 64, "value": 0}, "group": "control_change"}, {"time": 2412, "annotation": {"number": 64, "value": 127}, "group": "control_change"}, {"time": 2434, "annotation": {"number": 64, "value": 0}, "group": "control_change"}, {"time": 2437, "annotation": {"number": 64, "value": 127}, "group": "control_change"}, {"time": 2457, "annotation": {"number": 64, "value": 0}, "group": "control_change"}, {"time": 2462, "annotation": {"number": 64, "value": 127}, "group": "control_change"}, {"time": 2506, "annotation": {"number": 64, "value": 0}, "group": "control_change"}, {"time": 2518, "annotation": {"number": 64, "value": 127}, "group": "control_change"}, {"time": 2554, "annotation": {"number": 64, "value": 0}, "group": "control_change"}, {"time": 2560, "annotation": {"number": 64, "value": 127}, "group": "control_change"}, {"time": 2601, "annotation": {"number": 64, "value": 0}, "group": "control_change"}, {"time": 2605, "annotation": {"number": 64, "value": 127}, "group": "control_change"}, {"time": 2652, "annotation": {"number": 64, "value": 0}, "group": "control_change"}, {"time": 2655, "annotation": {"number": 64, "value": 127}, "group": "control_change"}, {"time": 2698, "annotation": {"number": 64, "value": 0}, "group": "control_change"}, {"time": 2706, "annotation": {"number": 64, "value": 127}, "group": "control_change"}, {"time": 2748, "annotation": {"number": 64, "value": 0}, "group": "control_change"}, {"time": 2749, "annotation": {"number": 64, "value": 127}, "group": "control_change"}, {"time": 2749, "annotation": {"number": 64, "value": 0}, "group": "control_change"}, {"time": 2792, "annotation": {"number": 64, "value": 0}, "group": "control_change"}, {"time": 2800, "annotation": {"number": 64, "value": 127}, "group": "control_change"}, {"time": 2800, "annotation": {"number": 64, "value": 0}, "group": "control_change"}, {"time": 2844, "annotation": {"number": 64, "value": 0}, "group": "control_change"}, {"time": 2849, "annotation": {"number": 64, "value": 127}, "group": "control_change"}, {"time": 2890, "annotation": {"number": 64, "value": 0}, "group": "control_change"}, {"time": 2894, "annotation": {"number": 64, "value": 127}, "group": "control_change"}, {"time": 2936, "annotation": {"number": 64, "value": 0}, "group": "control_change"}, {"time": 2940, "annotation": {"number": 64, "value": 127}, "group": "control_change"}, {"time": 2986, "annotation": {"number": 64, "value": 0}, "group": "control_change"}, {"time": 2987, "annotation": {"number": 64, "value": 127}, "group": "control_change"}, {"time": 3011, "annotation": {"number": 64, "value": 0}, "group": "control_change"}, {"time": 3015, "annotation": {"number": 64, "value": 127}, "group": "control_change"}, {"time": 3033, "annotation": {"number": 64, "value": 0}, "group": "control_change"}, {"time": 3082, "annotation": {"number": 64, "value": 0}, "group": "control_change"}, {"time": 3086, "annotation": {"number": 64, "value": 127}, "group": "control_change"}, {"time": 3129, "annotation": {"number": 64, "value": 0}, "group": "control_change"}, {"time": 3134, "annotation": {"number": 64, "value": 127}, "group": "control_change"}, {"time": 3178, "annotation": {"number": 64, "value": 0}, "group": "control_change"}, {"time": 3182, "annotation": {"number": 64, "value": 127}, "group": "control_change"}, {"time": 3203, "annotation": {"number": 64, "value": 0}, "group": "control_change"}, {"time": 3206, "annotation": {"number": 64, "value": 127}, "group": "control_change"}, {"time": 3225, "annotation": {"number": 64, "value": 0}, "group": "control_change"}, {"time": 3229, "annotation": {"number": 64, "value": 127}, "group": "control_change"}, {"time": 3273, "annotation": {"number": 64, "value": 0}, "group": "control_change"}, {"time": 3277, "annotation": {"number": 64, "value": 127}, "group": "control_change"}, {"time": 3321, "annotation": {"number": 64, "value": 0}, "group": "control_change"}, {"time": 3325, "annotation": {"number": 64, "value": 127}, "group": "control_change"}, {"time": 3372, "annotation": {"number": 64, "value": 0}, "group": "control_change"}, {"time": 3375, "annotation": {"number": 64, "value": 127}, "group": "control_change"}, {"time": 3419, "annotation": {"number": 64, "value": 0}, "group": "control_change"}, {"time": 3422, "annotation": {"number": 64, "value": 127}, "group": "control_change"}, {"time": 3422, "annotation": {"number": 64, "value": 0}, "group": "control_change"}, {"time": 3423, "annotation": {"number": 64, "value": 127}, "group": "control_change"}, {"time": 3464, "annotation": {"number": 64, "value": 0}, "group": "control_change"}, {"time": 3468, "annotation": {"number": 64, "value": 127}, "group": "control_change"}, {"time": 3468, "annotation": {"number": 64, "value": 0}, "group": "control_change"}, {"time": 3512, "annotation": {"number": 64, "value": 0}, "group": "control_change"}, {"time": 3515, "annotation": {"number": 64, "value": 127}, "group": "control_change"}, {"time": 3561, "annotation": {"number": 64, "value": 0}, "group": "control_change"}, {"time": 3564, "annotation": {"number": 64, "value": 127}, "group": "control_change"}, {"time": 3587, "annotation": {"number": 64, "value": 0}, "group": "control_change"}, {"time": 3590, "annotation": {"number": 64, "value": 127}, "group": "control_change"}, {"time": 3610, "annotation": {"number": 64, "value": 0}, "group": "control_change"}, {"time": 3614, "annotation": {"number": 64, "value": 127}, "group": "control_change"}, {"time": 3658, "annotation": {"number": 64, "value": 0}, "group": "control_change"}, {"time": 3661, "annotation": {"number": 64, "value": 127}, "group": "control_change"}, {"time": 3707, "annotation": {"number": 64, "value": 0}, "group": "control_change"}, {"time": 3710, "annotation": {"number": 64, "value": 127}, "group": "control_change"}, {"time": 3730, "annotation": {"number": 64, "value": 0}, "group": "control_change"}, {"time": 3733, "annotation": {"number": 64, "value": 127}, "group": "control_change"}, {"time": 3754, "annotation": {"number": 64, "value": 0}, "group": "control_change"}, {"time": 3757, "annotation": {"number": 64, "value": 127}, "group": "control_change"}, {"time": 3802, "annotation": {"number": 64, "value": 0}, "group": "control_change"}, {"time": 3806, "annotation": {"number": 64, "value": 127}, "group": "control_change"}, {"time": 3850, "annotation": {"number": 64, "value": 0}, "group": "control_change"}, {"time": 3853, "annotation": {"number": 64, "value": 127}, "group": "control_change"}, {"time": 3896, "annotation": {"number": 64, "value": 0}, "group": "control_change"}, {"time": 3900, "annotation": {"number": 64, "value": 127}, "group": "control_change"}, {"time": 3945, "annotation": {"number": 64, "value": 0}, "group": "control_change"}, {"time": 3948, "annotation": {"number": 64, "value": 127}, "group": "control_change"}, {"time": 3986, "annotation": {"number": 64, "value": 0}, "group": "control_change"}, {"time": 3999, "annotation": {"number": 64, "value": 127}, "group": "control_change"}, {"time": 3999, "annotation": {"number": 64, "value": 0}, "group": "control_change"}, {"time": 4000, "annotation": {"number": 64, "value": 127}, "group": "control_change"}, {"time": 4041, "annotation": {"number": 64, "value": 0}, "group": "control_change"}, {"time": 4045, "annotation": {"number": 64, "value": 127}, "group": "control_change"}, {"time": 4089, "annotation": {"number": 64, "value": 0}, "group": "control_change"}, {"time": 4093, "annotation": {"number": 64, "value": 127}, "group": "control_change"}, {"time": 4139, "annotation": {"number": 64, "value": 0}, "group": "control_change"}, {"time": 4143, "annotation": {"number": 64, "value": 127}, "group": "control_change"}, {"time": 4143, "annotation": {"number": 64, "value": 0}, "group": "control_change"}, {"time": 4161, "annotation": {"number": 64, "value": 0}, "group": "control_change"}, {"time": 4165, "annotation": {"number": 64, "value": 127}, "group": "control_change"}, {"time": 4184, "annotation": {"number": 64, "value": 0}, "group": "control_change"}, {"time": 4188, "annotation": {"number": 64, "value": 127}, "group": "control_change"}, {"time": 4233, "annotation": {"number": 64, "value": 0}, "group": "control_change"}, {"time": 4237, "annotation": {"number": 64, "value": 127}, "group": "control_change"}, {"time": 4278, "annotation": {"number": 64, "value": 0}, "group": "control_change"}, {"time": 4283, "annotation": {"number": 64, "value": 127}, "group": "control_change"}, {"time": 4330, "annotation": {"number": 64, "value": 0}, "group": "control_change"}, {"time": 4334, "annotation": {"number": 64, "value": 127}, "group": "control_change"}, {"time": 4379, "annotation": {"number": 64, "value": 0}, "group": "control_change"}, {"time": 4386, "annotation": {"number": 64, "value": 127}, "group": "control_change"}, {"time": 4426, "annotation": {"number": 64, "value": 0}, "group": "control_change"}, {"time": 4430, "annotation": {"number": 64, "value": 127}, "group": "control_change"}, {"time": 4476, "annotation": {"number": 64, "value": 0}, "group": "control_change"}, {"time": 4480, "annotation": {"number": 64, "value": 127}, "group": "control_change"}, {"time": 4521, "annotation": {"number": 64, "value": 0}, "group": "control_change"}, {"time": 4525, "annotation": {"number": 64, "value": 127}, "group": "control_change"}, {"time": 4568, "annotation": {"number": 64, "value": 0}, "group": "control_change"}, {"time": 4574, "annotation": {"number": 64, "value": 127}, "group": "control_change"}, {"time": 4616, "annotation": {"number": 64, "value": 0}, "group": "control_change"}, {"time": 4620, "annotation": {"number": 64, "value": 127}, "group": "control_change"}, {"time": 4666, "annotation": {"number": 64, "value": 0}, "group": "control_change"}, {"time": 4672, "annotation": {"number": 64, "value": 127}, "group": "control_change"}, {"time": 4713, "annotation": {"number": 64, "value": 0}, "group": "control_change"}, {"time": 4723, "annotation": {"number": 64, "value": 127}, "group": "control_change"}, {"time": 4738, "annotation": {"number": 64, "value": 0}, "group": "control_change"}, {"time": 4743, "annotation": {"number": 64, "value": 127}, "group": "control_change"}, {"time": 4760, "annotation": {"number": 64, "value": 0}, "group": "control_change"}, {"time": 4765, "annotation": {"number": 64, "value": 127}, "group": "control_change"}, {"time": 4810, "annotation": {"number": 64, "value": 0}, "group": "control_change"}, {"time": 4814, "annotation": {"number": 64, "value": 127}, "group": "control_change"}, {"time": 4857, "annotation": {"number": 64, "value": 0}, "group": "control_change"}, {"time": 4862, "annotation": {"number": 64, "value": 127}, "group": "control_change"}, {"time": 4907, "annotation": {"number": 64, "value": 0}, "group": "control_change"}, {"time": 4910, "annotation": {"number": 64, "value": 127}, "group": "control_change"}, {"time": 4910, "annotation": {"number": 64, "value": 0}, "group": "control_change"}, {"time": 4911, "annotation": {"number": 64, "value": 127}, "group": "control_change"}, {"time": 4911, "annotation": {"number": 64, "value": 0}, "group": "control_change"}, {"time": 4999, "annotation": {"number": 64, "value": 0}, "group": "control_change"}, {"time": 5015, "annotation": {"number": 64, "value": 127}, "group": "control_change"}, {"time": 5060, "annotation": {"number": 64, "value": 0}, "group": "control_change"}, {"time": 5065, "annotation": {"number": 64, "value": 127}, "group": "control_change"}, {"time": 5155, "annotation": {"number": 64, "value": 0}, "group": "control_change"}, {"time": 5165, "annotation": {"number": 64, "value": 127}, "group": "control_change"}, {"time": 5166, "annotation": {"number": 64, "value": 0}, "group": "control_change"}, {"time": 5166, "annotation": {"number": 64, "value": 127}, "group": "control_change"}, {"time": 5208, "annotation": {"number": 64, "value": 0}, "group": "control_change"}, {"time": 5213, "annotation": {"number": 64, "value": 127}, "group": "control_change"}, {"time": 5286, "annotation": {"number": 64, "value": 0}, "group": "control_change"}, {"time": 5288, "annotation": {"number": 64, "value": 127}, "group": "control_change"}, {"time": 5398, "annotation": {"number": 64, "value": 0}, "group": "control_change"}]}]}