{"metadata": {"schema_version": "0.2", "title": "None", "source_filename": "695.mid", "source_format": "midi"}, "resolution": 12, "tempos": [{"time": 0, "qpm": 94.40003272534467}, {"time": 144, "qpm": 93.50003350417867}, {"time": 176, "qpm": 93.000186000372}, {"time": 204, "qpm": 93.50003350417867}, {"time": 273, "qpm": 94.00012846684224}, {"time": 1512, "qpm": 94.25026272260735}, {"time": 1548, "qpm": 95.00014250021376}, {"time": 1589, "qpm": 94.5000945000945}, {"time": 1705, "qpm": 94.00012846684224}], "time_signatures": [{"time": 0, "numerator": 1, "denominator": 4}], "tracks": [{"program": 0, "is_drum": false, "name": "MELODY", "notes": [{"time": 378, "pitch": 68, "duration": 4, "velocity": 83}, {"time": 384, "pitch": 67, "duration": 3, "velocity": 79}, {"time": 390, "pitch": 63, "duration": 4, "velocity": 80}, {"time": 396, "pitch": 60, "duration": 26, "velocity": 83}, {"time": 426, "pitch": 68, "duration": 5, "velocity": 81}, {"time": 432, "pitch": 67, "duration": 3, "velocity": 74}, {"time": 438, "pitch": 67, "duration": 11, "velocity": 79}, {"time": 450, "pitch": 65, "duration": 20, "velocity": 80}, {"time": 474, "pitch": 67, "duration": 4, "velocity": 80}, {"time": 480, "pitch": 65, "duration": 4, "velocity": 80}, {"time": 486, "pitch": 63, "duration": 3, "velocity": 80}, {"time": 492, "pitch": 63, "duration": 5, "velocity": 79}, {"time": 498, "pitch": 60, "duration": 4, "velocity": 78}, {"time": 504, "pitch": 63, "duration": 5, "velocity": 81}, {"time": 510, "pitch": 60, "duration": 3, "velocity": 79}, {"time": 516, "pitch": 63, "duration": 5, "velocity": 75}, {"time": 522, "pitch": 60, "duration": 3, "velocity": 78}, {"time": 528, "pitch": 63, "duration": 6, "velocity": 78}, {"time": 534, "pitch": 60, "duration": 3, "velocity": 79}, {"time": 540, "pitch": 65, "duration": 3, "velocity": 80}, {"time": 546, "pitch": 65, "duration": 4, "velocity": 76}, {"time": 552, "pitch": 63, "duration": 5, "velocity": 83}, {"time": 558, "pitch": 62, "duration": 7, "velocity": 80}, {"time": 570, "pitch": 68, "duration": 3, "velocity": 83}, {"time": 576, "pitch": 67, "duration": 3, "velocity": 79}, {"time": 582, "pitch": 63, "duration": 4, "velocity": 80}, {"time": 588, "pitch": 60, "duration": 27, "velocity": 83}, {"time": 618, "pitch": 68, "duration": 4, "velocity": 79}, {"time": 624, "pitch": 67, "duration": 3, "velocity": 73}, {"time": 630, "pitch": 67, "duration": 12, "velocity": 75}, {"time": 642, "pitch": 65, "duration": 20, "velocity": 71}, {"time": 666, "pitch": 67, "duration": 5, "velocity": 80}, {"time": 672, "pitch": 65, "duration": 4, "velocity": 80}, {"time": 678, "pitch": 62, "duration": 3, "velocity": 79}, {"time": 684, "pitch": 63, "duration": 5, "velocity": 75}, {"time": 690, "pitch": 60, "duration": 4, "velocity": 78}, {"time": 696, "pitch": 63, "duration": 5, "velocity": 80}, {"time": 702, "pitch": 60, "duration": 4, "velocity": 79}, {"time": 708, "pitch": 63, "duration": 5, "velocity": 81}, {"time": 714, "pitch": 60, "duration": 4, "velocity": 79}, {"time": 720, "pitch": 63, "duration": 6, "velocity": 83}, {"time": 726, "pitch": 60, "duration": 3, "velocity": 79}, {"time": 732, "pitch": 65, "duration": 3, "velocity": 80}, {"time": 738, "pitch": 65, "duration": 5, "velocity": 72}, {"time": 744, "pitch": 63, "duration": 5, "velocity": 81}, {"time": 750, "pitch": 67, "duration": 8, "velocity": 79}, {"time": 762, "pitch": 67, "duration": 3, "velocity": 82}, {"time": 768, "pitch": 67, "duration": 3, "velocity": 82}, {"time": 774, "pitch": 67, "duration": 8, "velocity": 81}, {"time": 786, "pitch": 67, "duration": 2, "velocity": 79}, {"time": 792, "pitch": 67, "duration": 3, "velocity": 80}, {"time": 798, "pitch": 63, "duration": 4, "velocity": 80}, {"time": 804, "pitch": 65, "duration": 3, "velocity": 80}, {"time": 810, "pitch": 67, "duration": 3, "velocity": 78}, {"time": 816, "pitch": 68, "duration": 3, "velocity": 83}, {"time": 822, "pitch": 67, "duration": 7, "velocity": 78}, {"time": 834, "pitch": 63, "duration": 2, "velocity": 72}, {"time": 840, "pitch": 63, "duration": 3, "velocity": 73}, {"time": 846, "pitch": 60, "duration": 3, "velocity": 75}, {"time": 852, "pitch": 62, "duration": 3, "velocity": 78}, {"time": 858, "pitch": 63, "duration": 3, "velocity": 83}, {"time": 864, "pitch": 65, "duration": 3, "velocity": 81}, {"time": 870, "pitch": 67, "duration": 6, "velocity": 80}, {"time": 876, "pitch": 63, "duration": 6, "velocity": 80}, {"time": 888, "pitch": 65, "duration": 3, "velocity": 79}, {"time": 894, "pitch": 63, "duration": 6, "velocity": 83}, {"time": 906, "pitch": 60, "duration": 3, "velocity": 80}, {"time": 912, "pitch": 60, "duration": 3, "velocity": 83}, {"time": 918, "pitch": 60, "duration": 3, "velocity": 82}, {"time": 924, "pitch": 67, "duration": 3, "velocity": 78}, {"time": 930, "pitch": 68, "duration": 3, "velocity": 68}, {"time": 936, "pitch": 70, "duration": 3, "velocity": 77}, {"time": 942, "pitch": 67, "duration": 3, "velocity": 84}, {"time": 948, "pitch": 65, "duration": 12, "velocity": 78}, {"time": 966, "pitch": 58, "duration": 4, "velocity": 85}, {"time": 972, "pitch": 70, "duration": 11, "velocity": 85}, {"time": 990, "pitch": 70, "duration": 3, "velocity": 83}, {"time": 996, "pitch": 70, "duration": 4, "velocity": 81}, {"time": 1002, "pitch": 72, "duration": 3, "velocity": 80}, {"time": 1008, "pitch": 70, "duration": 4, "velocity": 81}, {"time": 1014, "pitch": 68, "duration": 3, "velocity": 75}, {"time": 1020, "pitch": 67, "duration": 15, "velocity": 78}, {"time": 1038, "pitch": 67, "duration": 4, "velocity": 79}, {"time": 1044, "pitch": 67, "duration": 3, "velocity": 80}, {"time": 1050, "pitch": 68, "duration": 5, "velocity": 81}, {"time": 1056, "pitch": 67, "duration": 4, "velocity": 83}, {"time": 1062, "pitch": 65, "duration": 3, "velocity": 80}, {"time": 1068, "pitch": 63, "duration": 15, "velocity": 80}, {"time": 1086, "pitch": 60, "duration": 3, "velocity": 83}, {"time": 1092, "pitch": 63, "duration": 4, "velocity": 81}, {"time": 1098, "pitch": 65, "duration": 3, "velocity": 84}, {"time": 1104, "pitch": 67, "duration": 3, "velocity": 82}, {"time": 1110, "pitch": 68, "duration": 2, "velocity": 83}, {"time": 1113, "pitch": 67, "duration": 29, "velocity": 84}, {"time": 1146, "pitch": 70, "duration": 3, "velocity": 79}, {"time": 1152, "pitch": 70, "duration": 3, "velocity": 83}, {"time": 1158, "pitch": 70, "duration": 3, "velocity": 79}, {"time": 1164, "pitch": 70, "duration": 15, "velocity": 90}, {"time": 1182, "pitch": 70, "duration": 3, "velocity": 82}, {"time": 1188, "pitch": 70, "duration": 3, "velocity": 81}, {"time": 1194, "pitch": 72, "duration": 3, "velocity": 82}, {"time": 1200, "pitch": 70, "duration": 3, "velocity": 82}, {"time": 1206, "pitch": 68, "duration": 5, "velocity": 81}, {"time": 1212, "pitch": 67, "duration": 15, "velocity": 79}, {"time": 1230, "pitch": 67, "duration": 4, "velocity": 81}, {"time": 1236, "pitch": 67, "duration": 3, "velocity": 80}, {"time": 1242, "pitch": 68, "duration": 4, "velocity": 83}, {"time": 1248, "pitch": 67, "duration": 4, "velocity": 80}, {"time": 1254, "pitch": 65, "duration": 4, "velocity": 76}, {"time": 1260, "pitch": 63, "duration": 4, "velocity": 70}, {"time": 1278, "pitch": 60, "duration": 4, "velocity": 84}, {"time": 1284, "pitch": 63, "duration": 3, "velocity": 83}, {"time": 1290, "pitch": 65, "duration": 3, "velocity": 79}, {"time": 1296, "pitch": 67, "duration": 3, "velocity": 82}, {"time": 1302, "pitch": 68, "duration": 4, "velocity": 81}, {"time": 1308, "pitch": 67, "duration": 2, "velocity": 79}, {"time": 1311, "pitch": 65, "duration": 2, "velocity": 71}, {"time": 1314, "pitch": 63, "duration": 32, "velocity": 83}, {"time": 1578, "pitch": 68, "duration": 4, "velocity": 83}, {"time": 1584, "pitch": 67, "duration": 3, "velocity": 79}, {"time": 1590, "pitch": 63, "duration": 4, "velocity": 80}, {"time": 1596, "pitch": 60, "duration": 26, "velocity": 83}, {"time": 1626, "pitch": 68, "duration": 5, "velocity": 81}, {"time": 1632, "pitch": 67, "duration": 3, "velocity": 74}, {"time": 1638, "pitch": 67, "duration": 11, "velocity": 79}, {"time": 1650, "pitch": 65, "duration": 20, "velocity": 80}, {"time": 1674, "pitch": 67, "duration": 4, "velocity": 80}, {"time": 1680, "pitch": 65, "duration": 4, "velocity": 80}, {"time": 1686, "pitch": 63, "duration": 3, "velocity": 80}, {"time": 1692, "pitch": 63, "duration": 5, "velocity": 79}, {"time": 1698, "pitch": 60, "duration": 4, "velocity": 78}, {"time": 1704, "pitch": 63, "duration": 5, "velocity": 81}, {"time": 1710, "pitch": 60, "duration": 3, "velocity": 79}, {"time": 1716, "pitch": 63, "duration": 5, "velocity": 75}, {"time": 1722, "pitch": 60, "duration": 3, "velocity": 78}, {"time": 1728, "pitch": 63, "duration": 6, "velocity": 78}, {"time": 1734, "pitch": 60, "duration": 3, "velocity": 79}, {"time": 1740, "pitch": 65, "duration": 3, "velocity": 80}, {"time": 1746, "pitch": 65, "duration": 4, "velocity": 76}, {"time": 1752, "pitch": 63, "duration": 5, "velocity": 83}, {"time": 1758, "pitch": 62, "duration": 7, "velocity": 80}, {"time": 1770, "pitch": 68, "duration": 3, "velocity": 83}, {"time": 1776, "pitch": 67, "duration": 3, "velocity": 79}, {"time": 1782, "pitch": 63, "duration": 4, "velocity": 80}, {"time": 1788, "pitch": 60, "duration": 27, "velocity": 83}, {"time": 1818, "pitch": 68, "duration": 4, "velocity": 79}, {"time": 1824, "pitch": 67, "duration": 3, "velocity": 73}, {"time": 1830, "pitch": 67, "duration": 12, "velocity": 75}, {"time": 1842, "pitch": 65, "duration": 20, "velocity": 71}, {"time": 1866, "pitch": 67, "duration": 5, "velocity": 80}, {"time": 1872, "pitch": 65, "duration": 4, "velocity": 80}, {"time": 1878, "pitch": 62, "duration": 3, "velocity": 79}, {"time": 1884, "pitch": 63, "duration": 5, "velocity": 75}, {"time": 1890, "pitch": 60, "duration": 4, "velocity": 78}, {"time": 1896, "pitch": 63, "duration": 5, "velocity": 80}, {"time": 1902, "pitch": 60, "duration": 4, "velocity": 79}, {"time": 1908, "pitch": 63, "duration": 5, "velocity": 81}, {"time": 1914, "pitch": 60, "duration": 4, "velocity": 79}, {"time": 1920, "pitch": 63, "duration": 6, "velocity": 83}, {"time": 1926, "pitch": 60, "duration": 3, "velocity": 79}, {"time": 1932, "pitch": 65, "duration": 3, "velocity": 80}, {"time": 1938, "pitch": 65, "duration": 5, "velocity": 72}, {"time": 1944, "pitch": 63, "duration": 5, "velocity": 81}, {"time": 1950, "pitch": 67, "duration": 8, "velocity": 79}, {"time": 1962, "pitch": 67, "duration": 3, "velocity": 82}, {"time": 1968, "pitch": 67, "duration": 3, "velocity": 82}, {"time": 1974, "pitch": 67, "duration": 8, "velocity": 81}, {"time": 1986, "pitch": 67, "duration": 2, "velocity": 79}, {"time": 1992, "pitch": 67, "duration": 3, "velocity": 80}, {"time": 1998, "pitch": 63, "duration": 4, "velocity": 80}, {"time": 2004, "pitch": 65, "duration": 3, "velocity": 80}, {"time": 2010, "pitch": 67, "duration": 3, "velocity": 78}, {"time": 2016, "pitch": 68, "duration": 3, "velocity": 83}, {"time": 2022, "pitch": 67, "duration": 7, "velocity": 78}, {"time": 2034, "pitch": 63, "duration": 2, "velocity": 72}, {"time": 2040, "pitch": 63, "duration": 3, "velocity": 73}, {"time": 2046, "pitch": 60, "duration": 3, "velocity": 75}, {"time": 2052, "pitch": 62, "duration": 3, "velocity": 78}, {"time": 2058, "pitch": 63, "duration": 3, "velocity": 83}, {"time": 2064, "pitch": 65, "duration": 3, "velocity": 81}, {"time": 2070, "pitch": 67, "duration": 6, "velocity": 80}, {"time": 2076, "pitch": 63, "duration": 6, "velocity": 80}, {"time": 2088, "pitch": 65, "duration": 3, "velocity": 79}, {"time": 2094, "pitch": 63, "duration": 6, "velocity": 83}, {"time": 2106, "pitch": 60, "duration": 3, "velocity": 80}, {"time": 2112, "pitch": 60, "duration": 3, "velocity": 83}, {"time": 2118, "pitch": 60, "duration": 3, "velocity": 82}, {"time": 2124, "pitch": 67, "duration": 3, "velocity": 78}, {"time": 2130, "pitch": 68, "duration": 3, "velocity": 68}, {"time": 2136, "pitch": 70, "duration": 3, "velocity": 77}, {"time": 2142, "pitch": 67, "duration": 3, "velocity": 84}, {"time": 2148, "pitch": 65, "duration": 12, "velocity": 78}, {"time": 2166, "pitch": 58, "duration": 4, "velocity": 85}, {"time": 2172, "pitch": 70, "duration": 11, "velocity": 85}, {"time": 2190, "pitch": 70, "duration": 3, "velocity": 83}, {"time": 2196, "pitch": 70, "duration": 4, "velocity": 81}, {"time": 2202, "pitch": 72, "duration": 3, "velocity": 80}, {"time": 2208, "pitch": 70, "duration": 4, "velocity": 81}, {"time": 2214, "pitch": 68, "duration": 3, "velocity": 75}, {"time": 2220, "pitch": 67, "duration": 15, "velocity": 78}, {"time": 2238, "pitch": 67, "duration": 4, "velocity": 79}, {"time": 2244, "pitch": 67, "duration": 3, "velocity": 80}, {"time": 2250, "pitch": 68, "duration": 5, "velocity": 81}, {"time": 2256, "pitch": 67, "duration": 4, "velocity": 83}, {"time": 2262, "pitch": 65, "duration": 3, "velocity": 80}, {"time": 2268, "pitch": 63, "duration": 15, "velocity": 80}, {"time": 2286, "pitch": 60, "duration": 3, "velocity": 83}, {"time": 2292, "pitch": 63, "duration": 4, "velocity": 81}, {"time": 2298, "pitch": 65, "duration": 3, "velocity": 84}, {"time": 2304, "pitch": 67, "duration": 3, "velocity": 82}, {"time": 2310, "pitch": 68, "duration": 2, "velocity": 83}, {"time": 2313, "pitch": 67, "duration": 29, "velocity": 84}, {"time": 2346, "pitch": 70, "duration": 3, "velocity": 79}, {"time": 2352, "pitch": 70, "duration": 3, "velocity": 83}, {"time": 2358, "pitch": 70, "duration": 3, "velocity": 79}, {"time": 2364, "pitch": 70, "duration": 15, "velocity": 90}, {"time": 2382, "pitch": 70, "duration": 3, "velocity": 82}, {"time": 2388, "pitch": 70, "duration": 3, "velocity": 81}, {"time": 2394, "pitch": 72, "duration": 3, "velocity": 82}, {"time": 2400, "pitch": 70, "duration": 3, "velocity": 82}, {"time": 2406, "pitch": 68, "duration": 5, "velocity": 81}, {"time": 2412, "pitch": 67, "duration": 15, "velocity": 79}, {"time": 2430, "pitch": 67, "duration": 4, "velocity": 81}, {"time": 2436, "pitch": 67, "duration": 3, "velocity": 80}, {"time": 2442, "pitch": 68, "duration": 4, "velocity": 83}, {"time": 2448, "pitch": 67, "duration": 4, "velocity": 80}, {"time": 2454, "pitch": 65, "duration": 4, "velocity": 76}, {"time": 2460, "pitch": 63, "duration": 4, "velocity": 70}, {"time": 2478, "pitch": 60, "duration": 4, "velocity": 84}, {"time": 2484, "pitch": 63, "duration": 3, "velocity": 83}, {"time": 2490, "pitch": 65, "duration": 3, "velocity": 79}, {"time": 2496, "pitch": 67, "duration": 3, "velocity": 82}, {"time": 2502, "pitch": 68, "duration": 4, "velocity": 81}, {"time": 2508, "pitch": 67, "duration": 2, "velocity": 79}, {"time": 2511, "pitch": 65, "duration": 2, "velocity": 71}, {"time": 2514, "pitch": 63, "duration": 32, "velocity": 83}, {"time": 2826, "pitch": 67, "duration": 3, "velocity": 82}, {"time": 2832, "pitch": 67, "duration": 3, "velocity": 82}, {"time": 2838, "pitch": 67, "duration": 8, "velocity": 81}, {"time": 2850, "pitch": 67, "duration": 2, "velocity": 79}, {"time": 2856, "pitch": 67, "duration": 3, "velocity": 80}, {"time": 2862, "pitch": 63, "duration": 4, "velocity": 80}, {"time": 2868, "pitch": 65, "duration": 3, "velocity": 80}, {"time": 2874, "pitch": 67, "duration": 3, "velocity": 78}, {"time": 2880, "pitch": 68, "duration": 3, "velocity": 83}, {"time": 2886, "pitch": 67, "duration": 7, "velocity": 78}, {"time": 2898, "pitch": 63, "duration": 2, "velocity": 72}, {"time": 2904, "pitch": 63, "duration": 3, "velocity": 73}, {"time": 2910, "pitch": 60, "duration": 3, "velocity": 75}, {"time": 2916, "pitch": 62, "duration": 3, "velocity": 78}, {"time": 2922, "pitch": 63, "duration": 3, "velocity": 83}, {"time": 2928, "pitch": 65, "duration": 3, "velocity": 81}, {"time": 2934, "pitch": 67, "duration": 6, "velocity": 80}, {"time": 2940, "pitch": 63, "duration": 6, "velocity": 80}, {"time": 2952, "pitch": 65, "duration": 3, "velocity": 79}, {"time": 2958, "pitch": 63, "duration": 6, "velocity": 83}, {"time": 2970, "pitch": 60, "duration": 3, "velocity": 80}, {"time": 2976, "pitch": 60, "duration": 3, "velocity": 83}, {"time": 2982, "pitch": 60, "duration": 3, "velocity": 82}, {"time": 2988, "pitch": 67, "duration": 3, "velocity": 78}, {"time": 2994, "pitch": 68, "duration": 3, "velocity": 68}, {"time": 3000, "pitch": 70, "duration": 3, "velocity": 77}, {"time": 3006, "pitch": 67, "duration": 3, "velocity": 84}, {"time": 3012, "pitch": 65, "duration": 12, "velocity": 78}, {"time": 3030, "pitch": 58, "duration": 4, "velocity": 85}, {"time": 3036, "pitch": 70, "duration": 11, "velocity": 85}, {"time": 3054, "pitch": 70, "duration": 3, "velocity": 83}, {"time": 3060, "pitch": 70, "duration": 4, "velocity": 81}, {"time": 3066, "pitch": 72, "duration": 3, "velocity": 80}, {"time": 3072, "pitch": 70, "duration": 4, "velocity": 81}, {"time": 3078, "pitch": 68, "duration": 3, "velocity": 75}, {"time": 3084, "pitch": 67, "duration": 15, "velocity": 78}, {"time": 3102, "pitch": 67, "duration": 4, "velocity": 79}, {"time": 3108, "pitch": 67, "duration": 3, "velocity": 80}, {"time": 3114, "pitch": 68, "duration": 5, "velocity": 81}, {"time": 3120, "pitch": 67, "duration": 4, "velocity": 83}, {"time": 3126, "pitch": 65, "duration": 3, "velocity": 80}, {"time": 3132, "pitch": 63, "duration": 15, "velocity": 80}, {"time": 3150, "pitch": 60, "duration": 3, "velocity": 83}, {"time": 3156, "pitch": 63, "duration": 4, "velocity": 81}, {"time": 3162, "pitch": 65, "duration": 3, "velocity": 84}, {"time": 3168, "pitch": 67, "duration": 3, "velocity": 82}, {"time": 3174, "pitch": 68, "duration": 2, "velocity": 83}, {"time": 3177, "pitch": 67, "duration": 29, "velocity": 84}, {"time": 3210, "pitch": 70, "duration": 3, "velocity": 79}, {"time": 3216, "pitch": 70, "duration": 3, "velocity": 83}, {"time": 3222, "pitch": 70, "duration": 3, "velocity": 79}, {"time": 3228, "pitch": 70, "duration": 15, "velocity": 90}, {"time": 3246, "pitch": 70, "duration": 3, "velocity": 82}, {"time": 3252, "pitch": 70, "duration": 3, "velocity": 81}, {"time": 3258, "pitch": 72, "duration": 3, "velocity": 82}, {"time": 3264, "pitch": 70, "duration": 3, "velocity": 82}, {"time": 3270, "pitch": 68, "duration": 5, "velocity": 81}, {"time": 3276, "pitch": 67, "duration": 15, "velocity": 79}, {"time": 3294, "pitch": 67, "duration": 4, "velocity": 81}, {"time": 3300, "pitch": 67, "duration": 3, "velocity": 80}, {"time": 3306, "pitch": 68, "duration": 4, "velocity": 83}, {"time": 3312, "pitch": 67, "duration": 4, "velocity": 80}, {"time": 3318, "pitch": 65, "duration": 4, "velocity": 76}, {"time": 3324, "pitch": 63, "duration": 4, "velocity": 70}, {"time": 3342, "pitch": 60, "duration": 4, "velocity": 84}, {"time": 3348, "pitch": 63, "duration": 3, "velocity": 83}, {"time": 3354, "pitch": 65, "duration": 3, "velocity": 79}, {"time": 3360, "pitch": 67, "duration": 3, "velocity": 82}, {"time": 3366, "pitch": 68, "duration": 4, "velocity": 81}, {"time": 3372, "pitch": 67, "duration": 2, "velocity": 79}, {"time": 3375, "pitch": 65, "duration": 2, "velocity": 71}, {"time": 3378, "pitch": 63, "duration": 18, "velocity": 83}, {"time": 3402, "pitch": 70, "duration": 4, "velocity": 83}, {"time": 3408, "pitch": 70, "duration": 4, "velocity": 83}, {"time": 3414, "pitch": 70, "duration": 3, "velocity": 81}, {"time": 3420, "pitch": 72, "duration": 3, "velocity": 83}, {"time": 3426, "pitch": 70, "duration": 3, "velocity": 85}, {"time": 3432, "pitch": 67, "duration": 4, "velocity": 81}, {"time": 3438, "pitch": 72, "duration": 3, "velocity": 85}, {"time": 3444, "pitch": 70, "duration": 3, "velocity": 86}, {"time": 3450, "pitch": 67, "duration": 4, "velocity": 81}, {"time": 3456, "pitch": 72, "duration": 3, "velocity": 86}, {"time": 3462, "pitch": 70, "duration": 5, "velocity": 86}, {"time": 3468, "pitch": 67, "duration": 15, "velocity": 84}, {"time": 3486, "pitch": 67, "duration": 3, "velocity": 80}, {"time": 3492, "pitch": 67, "duration": 4, "velocity": 79}, {"time": 3498, "pitch": 68, "duration": 4, "velocity": 83}, {"time": 3504, "pitch": 67, "duration": 4, "velocity": 80}, {"time": 3510, "pitch": 65, "duration": 3, "velocity": 80}, {"time": 3516, "pitch": 63, "duration": 15, "velocity": 85}, {"time": 3534, "pitch": 60, "duration": 4, "velocity": 83}, {"time": 3540, "pitch": 63, "duration": 4, "velocity": 81}, {"time": 3546, "pitch": 65, "duration": 3, "velocity": 81}, {"time": 3552, "pitch": 67, "duration": 3, "velocity": 79}, {"time": 3558, "pitch": 68, "duration": 3, "velocity": 86}, {"time": 3564, "pitch": 67, "duration": 27, "velocity": 81}, {"time": 3594, "pitch": 70, "duration": 4, "velocity": 81}, {"time": 3600, "pitch": 70, "duration": 4, "velocity": 88}, {"time": 3606, "pitch": 70, "duration": 3, "velocity": 82}, {"time": 3612, "pitch": 72, "duration": 4, "velocity": 80}, {"time": 3618, "pitch": 70, "duration": 4, "velocity": 83}, {"time": 3624, "pitch": 67, "duration": 4, "velocity": 80}, {"time": 3630, "pitch": 72, "duration": 4, "velocity": 82}, {"time": 3636, "pitch": 70, "duration": 4, "velocity": 86}, {"time": 3642, "pitch": 67, "duration": 4, "velocity": 81}, {"time": 3648, "pitch": 72, "duration": 3, "velocity": 84}, {"time": 3654, "pitch": 70, "duration": 5, "velocity": 86}, {"time": 3660, "pitch": 67, "duration": 16, "velocity": 83}, {"time": 3678, "pitch": 67, "duration": 3, "velocity": 79}, {"time": 3684, "pitch": 67, "duration": 3, "velocity": 79}, {"time": 3690, "pitch": 68, "duration": 3, "velocity": 81}, {"time": 3696, "pitch": 67, "duration": 3, "velocity": 80}, {"time": 3702, "pitch": 65, "duration": 4, "velocity": 80}, {"time": 3708, "pitch": 63, "duration": 16, "velocity": 79}, {"time": 3726, "pitch": 60, "duration": 4, "velocity": 80}, {"time": 3732, "pitch": 63, "duration": 4, "velocity": 80}, {"time": 3738, "pitch": 65, "duration": 4, "velocity": 78}, {"time": 3744, "pitch": 67, "duration": 3, "velocity": 76}, {"time": 3750, "pitch": 68, "duration": 4, "velocity": 82}, {"time": 3756, "pitch": 67, "duration": 19, "velocity": 79}, {"time": 3774, "pitch": 67, "duration": 1, "velocity": 80}, {"time": 3780, "pitch": 67, "duration": 4, "velocity": 80}, {"time": 3786, "pitch": 65, "duration": 4, "velocity": 80}, {"time": 3792, "pitch": 65, "duration": 7, "velocity": 79}, {"time": 3798, "pitch": 63, "duration": 4, "velocity": 74}, {"time": 3804, "pitch": 63, "duration": 15, "velocity": 80}, {"time": 3822, "pitch": 60, "duration": 4, "velocity": 79}, {"time": 3828, "pitch": 60, "duration": 4, "velocity": 81}, {"time": 3834, "pitch": 62, "duration": 3, "velocity": 80}, {"time": 3840, "pitch": 63, "duration": 4, "velocity": 81}, {"time": 3846, "pitch": 65, "duration": 5, "velocity": 78}, {"time": 3852, "pitch": 62, "duration": 45, "velocity": 83}]}, {"program": 0, "is_drum": false, "name": "BRIDGE", "notes": [{"time": 11, "pitch": 75, "duration": 8, "velocity": 80}, {"time": 18, "pitch": 67, "duration": 6, "velocity": 76}, {"time": 24, "pitch": 72, "duration": 12, "velocity": 73}, {"time": 30, "pitch": 67, "duration": 8, "velocity": 75}, {"time": 36, "pitch": 77, "duration": 7, "velocity": 80}, {"time": 42, "pitch": 68, "duration": 5, "velocity": 79}, {"time": 48, "pitch": 75, "duration": 5, "velocity": 79}, {"time": 54, "pitch": 67, "duration": 5, "velocity": 66}, {"time": 60, "pitch": 74, "duration": 7, "velocity": 83}, {"time": 66, "pitch": 65, "duration": 7, "velocity": 75}, {"time": 72, "pitch": 70, "duration": 8, "velocity": 83}, {"time": 78, "pitch": 65, "duration": 6, "velocity": 80}, {"time": 84, "pitch": 70, "duration": 1, "velocity": 26}, {"time": 84, "pitch": 75, "duration": 7, "velocity": 80}, {"time": 90, "pitch": 65, "duration": 6, "velocity": 79}, {"time": 96, "pitch": 74, "duration": 11, "velocity": 86}, {"time": 102, "pitch": 65, "duration": 4, "velocity": 74}, {"time": 108, "pitch": 72, "duration": 5, "velocity": 79}, {"time": 114, "pitch": 63, "duration": 6, "velocity": 76}, {"time": 120, "pitch": 68, "duration": 19, "velocity": 69}, {"time": 126, "pitch": 63, "duration": 6, "velocity": 74}, {"time": 132, "pitch": 72, "duration": 12, "velocity": 72}, {"time": 138, "pitch": 63, "duration": 7, "velocity": 64}, {"time": 144, "pitch": 68, "duration": 9, "velocity": 70}, {"time": 150, "pitch": 65, "duration": 7, "velocity": 73}, {"time": 156, "pitch": 74, "duration": 6, "velocity": 71}, {"time": 162, "pitch": 63, "duration": 6, "velocity": 82}, {"time": 168, "pitch": 72, "duration": 6, "velocity": 81}, {"time": 174, "pitch": 71, "duration": 20, "velocity": 79}, {"time": 210, "pitch": 67, "duration": 6, "velocity": 76}, {"time": 216, "pitch": 72, "duration": 12, "velocity": 73}, {"time": 222, "pitch": 67, "duration": 8, "velocity": 75}, {"time": 228, "pitch": 77, "duration": 7, "velocity": 80}, {"time": 234, "pitch": 68, "duration": 5, "velocity": 79}, {"time": 240, "pitch": 75, "duration": 5, "velocity": 79}, {"time": 246, "pitch": 67, "duration": 5, "velocity": 66}, {"time": 252, "pitch": 74, "duration": 7, "velocity": 83}, {"time": 258, "pitch": 65, "duration": 7, "velocity": 75}, {"time": 264, "pitch": 70, "duration": 8, "velocity": 83}, {"time": 270, "pitch": 65, "duration": 6, "velocity": 80}, {"time": 276, "pitch": 70, "duration": 1, "velocity": 26}, {"time": 276, "pitch": 75, "duration": 7, "velocity": 80}, {"time": 282, "pitch": 65, "duration": 6, "velocity": 79}, {"time": 288, "pitch": 74, "duration": 11, "velocity": 86}, {"time": 294, "pitch": 65, "duration": 4, "velocity": 74}, {"time": 300, "pitch": 72, "duration": 5, "velocity": 79}, {"time": 306, "pitch": 63, "duration": 6, "velocity": 76}, {"time": 312, "pitch": 68, "duration": 19, "velocity": 69}, {"time": 318, "pitch": 63, "duration": 6, "velocity": 74}, {"time": 324, "pitch": 72, "duration": 12, "velocity": 72}, {"time": 330, "pitch": 63, "duration": 7, "velocity": 64}, {"time": 336, "pitch": 68, "duration": 9, "velocity": 70}, {"time": 342, "pitch": 65, "duration": 7, "velocity": 73}, {"time": 348, "pitch": 74, "duration": 6, "velocity": 71}, {"time": 354, "pitch": 63, "duration": 6, "velocity": 82}, {"time": 360, "pitch": 72, "duration": 6, "velocity": 81}, {"time": 366, "pitch": 71, "duration": 20, "velocity": 79}, {"time": 396, "pitch": 75, "duration": 7, "velocity": 67}, {"time": 402, "pitch": 67, "duration": 6, "velocity": 67}, {"time": 408, "pitch": 72, "duration": 12, "velocity": 67}, {"time": 414, "pitch": 67, "duration": 8, "velocity": 67}, {"time": 420, "pitch": 77, "duration": 7, "velocity": 70}, {"time": 426, "pitch": 68, "duration": 5, "velocity": 70}, {"time": 432, "pitch": 75, "duration": 5, "velocity": 70}, {"time": 438, "pitch": 67, "duration": 5, "velocity": 70}, {"time": 444, "pitch": 74, "duration": 7, "velocity": 70}, {"time": 450, "pitch": 65, "duration": 7, "velocity": 70}, {"time": 456, "pitch": 70, "duration": 8, "velocity": 70}, {"time": 462, "pitch": 65, "duration": 6, "velocity": 73}, {"time": 468, "pitch": 70, "duration": 1, "velocity": 73}, {"time": 468, "pitch": 75, "duration": 7, "velocity": 73}, {"time": 474, "pitch": 65, "duration": 6, "velocity": 73}, {"time": 480, "pitch": 74, "duration": 11, "velocity": 73}, {"time": 486, "pitch": 65, "duration": 4, "velocity": 73}, {"time": 492, "pitch": 72, "duration": 5, "velocity": 73}, {"time": 498, "pitch": 63, "duration": 6, "velocity": 76}, {"time": 504, "pitch": 68, "duration": 19, "velocity": 76}, {"time": 510, "pitch": 63, "duration": 6, "velocity": 76}, {"time": 516, "pitch": 72, "duration": 12, "velocity": 76}, {"time": 522, "pitch": 63, "duration": 7, "velocity": 76}, {"time": 528, "pitch": 68, "duration": 9, "velocity": 76}, {"time": 534, "pitch": 65, "duration": 7, "velocity": 76}, {"time": 540, "pitch": 74, "duration": 6, "velocity": 78}, {"time": 546, "pitch": 63, "duration": 6, "velocity": 78}, {"time": 552, "pitch": 72, "duration": 6, "velocity": 78}, {"time": 558, "pitch": 71, "duration": 20, "velocity": 78}, {"time": 588, "pitch": 75, "duration": 7, "velocity": 67}, {"time": 594, "pitch": 67, "duration": 6, "velocity": 67}, {"time": 600, "pitch": 72, "duration": 12, "velocity": 67}, {"time": 606, "pitch": 67, "duration": 8, "velocity": 67}, {"time": 612, "pitch": 77, "duration": 7, "velocity": 70}, {"time": 618, "pitch": 68, "duration": 5, "velocity": 70}, {"time": 624, "pitch": 75, "duration": 5, "velocity": 70}, {"time": 630, "pitch": 67, "duration": 5, "velocity": 70}, {"time": 636, "pitch": 74, "duration": 7, "velocity": 70}, {"time": 642, "pitch": 65, "duration": 7, "velocity": 70}, {"time": 648, "pitch": 70, "duration": 8, "velocity": 70}, {"time": 654, "pitch": 65, "duration": 6, "velocity": 73}, {"time": 660, "pitch": 70, "duration": 1, "velocity": 73}, {"time": 660, "pitch": 75, "duration": 7, "velocity": 73}, {"time": 666, "pitch": 65, "duration": 6, "velocity": 73}, {"time": 672, "pitch": 74, "duration": 11, "velocity": 73}, {"time": 678, "pitch": 65, "duration": 4, "velocity": 73}, {"time": 684, "pitch": 72, "duration": 5, "velocity": 73}, {"time": 690, "pitch": 63, "duration": 6, "velocity": 76}, {"time": 696, "pitch": 68, "duration": 19, "velocity": 76}, {"time": 702, "pitch": 63, "duration": 6, "velocity": 76}, {"time": 708, "pitch": 72, "duration": 12, "velocity": 76}, {"time": 714, "pitch": 63, "duration": 7, "velocity": 76}, {"time": 720, "pitch": 68, "duration": 9, "velocity": 76}, {"time": 726, "pitch": 65, "duration": 7, "velocity": 76}, {"time": 732, "pitch": 74, "duration": 6, "velocity": 78}, {"time": 738, "pitch": 63, "duration": 6, "velocity": 78}, {"time": 744, "pitch": 72, "duration": 6, "velocity": 78}, {"time": 750, "pitch": 71, "duration": 20, "velocity": 78}, {"time": 780, "pitch": 70, "duration": 19, "velocity": 67}, {"time": 780, "pitch": 75, "duration": 17, "velocity": 69}, {"time": 804, "pitch": 70, "duration": 18, "velocity": 72}, {"time": 804, "pitch": 74, "duration": 18, "velocity": 79}, {"time": 828, "pitch": 72, "duration": 10, "velocity": 71}, {"time": 828, "pitch": 75, "duration": 12, "velocity": 76}, {"time": 840, "pitch": 72, "duration": 13, "velocity": 76}, {"time": 852, "pitch": 74, "duration": 12, "velocity": 80}, {"time": 864, "pitch": 70, "duration": 12, "velocity": 72}, {"time": 876, "pitch": 72, "duration": 33, "velocity": 74}, {"time": 948, "pitch": 70, "duration": 9, "velocity": 73}, {"time": 948, "pitch": 74, "duration": 10, "velocity": 80}, {"time": 960, "pitch": 70, "duration": 13, "velocity": 75}, {"time": 972, "pitch": 75, "duration": 7, "velocity": 80}, {"time": 978, "pitch": 70, "duration": 23, "velocity": 68}, {"time": 984, "pitch": 75, "duration": 18, "velocity": 68}, {"time": 1002, "pitch": 70, "duration": 7, "velocity": 74}, {"time": 1008, "pitch": 75, "duration": 6, "velocity": 72}, {"time": 1014, "pitch": 70, "duration": 6, "velocity": 69}, {"time": 1020, "pitch": 72, "duration": 8, "velocity": 63}, {"time": 1032, "pitch": 72, "duration": 6, "velocity": 77}, {"time": 1038, "pitch": 67, "duration": 9, "velocity": 66}, {"time": 1050, "pitch": 67, "duration": 7, "velocity": 71}, {"time": 1056, "pitch": 72, "duration": 8, "velocity": 54}, {"time": 1068, "pitch": 68, "duration": 15, "velocity": 65}, {"time": 1068, "pitch": 72, "duration": 18, "velocity": 67}, {"time": 1086, "pitch": 68, "duration": 26, "velocity": 70}, {"time": 1092, "pitch": 72, "duration": 19, "velocity": 70}, {"time": 1116, "pitch": 75, "duration": 8, "velocity": 70}, {"time": 1122, "pitch": 70, "duration": 22, "velocity": 65}, {"time": 1128, "pitch": 75, "duration": 18, "velocity": 68}, {"time": 1146, "pitch": 70, "duration": 7, "velocity": 72}, {"time": 1152, "pitch": 75, "duration": 6, "velocity": 80}, {"time": 1158, "pitch": 74, "duration": 6, "velocity": 80}, {"time": 1164, "pitch": 75, "duration": 19, "velocity": 81}, {"time": 1182, "pitch": 70, "duration": 6, "velocity": 75}, {"time": 1188, "pitch": 75, "duration": 13, "velocity": 70}, {"time": 1200, "pitch": 74, "duration": 9, "velocity": 79}, {"time": 1212, "pitch": 72, "duration": 20, "velocity": 69}, {"time": 1212, "pitch": 75, "duration": 21, "velocity": 78}, {"time": 1236, "pitch": 72, "duration": 8, "velocity": 73}, {"time": 1236, "pitch": 75, "duration": 9, "velocity": 72}, {"time": 1248, "pitch": 70, "duration": 8, "velocity": 69}, {"time": 1248, "pitch": 74, "duration": 10, "velocity": 79}, {"time": 1260, "pitch": 68, "duration": 37, "velocity": 67}, {"time": 1260, "pitch": 72, "duration": 38, "velocity": 74}, {"time": 1308, "pitch": 72, "duration": 42, "velocity": 65}, {"time": 1308, "pitch": 75, "duration": 42, "velocity": 69}, {"time": 1355, "pitch": 75, "duration": 8, "velocity": 80}, {"time": 1362, "pitch": 67, "duration": 6, "velocity": 76}, {"time": 1368, "pitch": 72, "duration": 12, "velocity": 73}, {"time": 1374, "pitch": 67, "duration": 8, "velocity": 75}, {"time": 1380, "pitch": 77, "duration": 7, "velocity": 80}, {"time": 1386, "pitch": 68, "duration": 5, "velocity": 79}, {"time": 1392, "pitch": 75, "duration": 5, "velocity": 79}, {"time": 1398, "pitch": 67, "duration": 5, "velocity": 66}, {"time": 1404, "pitch": 74, "duration": 7, "velocity": 83}, {"time": 1410, "pitch": 65, "duration": 7, "velocity": 75}, {"time": 1416, "pitch": 70, "duration": 8, "velocity": 83}, {"time": 1422, "pitch": 65, "duration": 6, "velocity": 80}, {"time": 1428, "pitch": 70, "duration": 1, "velocity": 26}, {"time": 1428, "pitch": 75, "duration": 7, "velocity": 80}, {"time": 1434, "pitch": 65, "duration": 6, "velocity": 79}, {"time": 1440, "pitch": 74, "duration": 11, "velocity": 86}, {"time": 1446, "pitch": 65, "duration": 4, "velocity": 74}, {"time": 1452, "pitch": 72, "duration": 5, "velocity": 79}, {"time": 1458, "pitch": 63, "duration": 6, "velocity": 76}, {"time": 1464, "pitch": 68, "duration": 19, "velocity": 69}, {"time": 1470, "pitch": 63, "duration": 6, "velocity": 74}, {"time": 1476, "pitch": 72, "duration": 12, "velocity": 72}, {"time": 1482, "pitch": 63, "duration": 7, "velocity": 64}, {"time": 1488, "pitch": 68, "duration": 9, "velocity": 70}, {"time": 1494, "pitch": 65, "duration": 7, "velocity": 73}, {"time": 1500, "pitch": 74, "duration": 6, "velocity": 71}, {"time": 1506, "pitch": 63, "duration": 6, "velocity": 82}, {"time": 1512, "pitch": 72, "duration": 6, "velocity": 81}, {"time": 1518, "pitch": 71, "duration": 20, "velocity": 79}, {"time": 1596, "pitch": 75, "duration": 7, "velocity": 67}, {"time": 1602, "pitch": 67, "duration": 6, "velocity": 67}, {"time": 1608, "pitch": 72, "duration": 12, "velocity": 67}, {"time": 1614, "pitch": 67, "duration": 8, "velocity": 67}, {"time": 1620, "pitch": 77, "duration": 7, "velocity": 70}, {"time": 1626, "pitch": 68, "duration": 5, "velocity": 70}, {"time": 1632, "pitch": 75, "duration": 5, "velocity": 70}, {"time": 1638, "pitch": 67, "duration": 5, "velocity": 70}, {"time": 1644, "pitch": 74, "duration": 7, "velocity": 70}, {"time": 1650, "pitch": 65, "duration": 7, "velocity": 70}, {"time": 1656, "pitch": 70, "duration": 8, "velocity": 70}, {"time": 1662, "pitch": 65, "duration": 6, "velocity": 73}, {"time": 1668, "pitch": 70, "duration": 1, "velocity": 73}, {"time": 1668, "pitch": 75, "duration": 7, "velocity": 73}, {"time": 1674, "pitch": 65, "duration": 6, "velocity": 73}, {"time": 1680, "pitch": 74, "duration": 11, "velocity": 73}, {"time": 1686, "pitch": 65, "duration": 4, "velocity": 73}, {"time": 1692, "pitch": 72, "duration": 5, "velocity": 73}, {"time": 1698, "pitch": 63, "duration": 6, "velocity": 76}, {"time": 1704, "pitch": 68, "duration": 19, "velocity": 76}, {"time": 1710, "pitch": 63, "duration": 6, "velocity": 76}, {"time": 1716, "pitch": 72, "duration": 12, "velocity": 76}, {"time": 1722, "pitch": 63, "duration": 7, "velocity": 76}, {"time": 1728, "pitch": 68, "duration": 9, "velocity": 76}, {"time": 1734, "pitch": 65, "duration": 7, "velocity": 76}, {"time": 1740, "pitch": 74, "duration": 6, "velocity": 78}, {"time": 1746, "pitch": 63, "duration": 6, "velocity": 78}, {"time": 1752, "pitch": 72, "duration": 6, "velocity": 78}, {"time": 1758, "pitch": 71, "duration": 20, "velocity": 78}, {"time": 1788, "pitch": 75, "duration": 7, "velocity": 67}, {"time": 1794, "pitch": 67, "duration": 6, "velocity": 67}, {"time": 1800, "pitch": 72, "duration": 12, "velocity": 67}, {"time": 1806, "pitch": 67, "duration": 8, "velocity": 67}, {"time": 1812, "pitch": 77, "duration": 7, "velocity": 70}, {"time": 1818, "pitch": 68, "duration": 5, "velocity": 70}, {"time": 1824, "pitch": 75, "duration": 5, "velocity": 70}, {"time": 1830, "pitch": 67, "duration": 5, "velocity": 70}, {"time": 1836, "pitch": 74, "duration": 7, "velocity": 70}, {"time": 1842, "pitch": 65, "duration": 7, "velocity": 70}, {"time": 1848, "pitch": 70, "duration": 8, "velocity": 70}, {"time": 1854, "pitch": 65, "duration": 6, "velocity": 73}, {"time": 1860, "pitch": 70, "duration": 1, "velocity": 73}, {"time": 1860, "pitch": 75, "duration": 7, "velocity": 73}, {"time": 1866, "pitch": 65, "duration": 6, "velocity": 73}, {"time": 1872, "pitch": 74, "duration": 11, "velocity": 73}, {"time": 1878, "pitch": 65, "duration": 4, "velocity": 73}, {"time": 1884, "pitch": 72, "duration": 5, "velocity": 73}, {"time": 1890, "pitch": 63, "duration": 6, "velocity": 76}, {"time": 1896, "pitch": 68, "duration": 19, "velocity": 76}, {"time": 1902, "pitch": 63, "duration": 6, "velocity": 76}, {"time": 1908, "pitch": 72, "duration": 12, "velocity": 76}, {"time": 1914, "pitch": 63, "duration": 7, "velocity": 76}, {"time": 1920, "pitch": 68, "duration": 9, "velocity": 76}, {"time": 1926, "pitch": 65, "duration": 7, "velocity": 76}, {"time": 1932, "pitch": 74, "duration": 6, "velocity": 78}, {"time": 1938, "pitch": 63, "duration": 6, "velocity": 78}, {"time": 1944, "pitch": 72, "duration": 6, "velocity": 78}, {"time": 1950, "pitch": 71, "duration": 20, "velocity": 78}, {"time": 1980, "pitch": 70, "duration": 19, "velocity": 67}, {"time": 1980, "pitch": 75, "duration": 17, "velocity": 69}, {"time": 2004, "pitch": 70, "duration": 18, "velocity": 72}, {"time": 2004, "pitch": 74, "duration": 18, "velocity": 79}, {"time": 2028, "pitch": 72, "duration": 10, "velocity": 71}, {"time": 2028, "pitch": 75, "duration": 12, "velocity": 76}, {"time": 2040, "pitch": 72, "duration": 13, "velocity": 76}, {"time": 2052, "pitch": 74, "duration": 12, "velocity": 80}, {"time": 2064, "pitch": 70, "duration": 12, "velocity": 72}, {"time": 2076, "pitch": 72, "duration": 33, "velocity": 74}, {"time": 2148, "pitch": 70, "duration": 9, "velocity": 73}, {"time": 2148, "pitch": 74, "duration": 10, "velocity": 80}, {"time": 2160, "pitch": 70, "duration": 13, "velocity": 75}, {"time": 2172, "pitch": 75, "duration": 7, "velocity": 80}, {"time": 2178, "pitch": 70, "duration": 23, "velocity": 68}, {"time": 2184, "pitch": 75, "duration": 18, "velocity": 68}, {"time": 2202, "pitch": 70, "duration": 7, "velocity": 74}, {"time": 2208, "pitch": 75, "duration": 6, "velocity": 72}, {"time": 2214, "pitch": 70, "duration": 6, "velocity": 69}, {"time": 2220, "pitch": 72, "duration": 8, "velocity": 63}, {"time": 2232, "pitch": 72, "duration": 6, "velocity": 77}, {"time": 2238, "pitch": 67, "duration": 9, "velocity": 66}, {"time": 2250, "pitch": 67, "duration": 7, "velocity": 71}, {"time": 2256, "pitch": 72, "duration": 8, "velocity": 54}, {"time": 2268, "pitch": 68, "duration": 15, "velocity": 65}, {"time": 2268, "pitch": 72, "duration": 18, "velocity": 67}, {"time": 2286, "pitch": 68, "duration": 26, "velocity": 70}, {"time": 2292, "pitch": 72, "duration": 19, "velocity": 70}, {"time": 2316, "pitch": 75, "duration": 8, "velocity": 70}, {"time": 2322, "pitch": 70, "duration": 22, "velocity": 65}, {"time": 2328, "pitch": 75, "duration": 18, "velocity": 68}, {"time": 2346, "pitch": 70, "duration": 7, "velocity": 72}, {"time": 2352, "pitch": 75, "duration": 6, "velocity": 80}, {"time": 2358, "pitch": 74, "duration": 6, "velocity": 80}, {"time": 2364, "pitch": 75, "duration": 19, "velocity": 81}, {"time": 2382, "pitch": 70, "duration": 6, "velocity": 75}, {"time": 2388, "pitch": 75, "duration": 13, "velocity": 70}, {"time": 2400, "pitch": 74, "duration": 9, "velocity": 79}, {"time": 2412, "pitch": 72, "duration": 20, "velocity": 69}, {"time": 2412, "pitch": 75, "duration": 21, "velocity": 78}, {"time": 2436, "pitch": 72, "duration": 8, "velocity": 73}, {"time": 2436, "pitch": 75, "duration": 9, "velocity": 72}, {"time": 2448, "pitch": 70, "duration": 8, "velocity": 69}, {"time": 2448, "pitch": 74, "duration": 10, "velocity": 79}, {"time": 2460, "pitch": 68, "duration": 37, "velocity": 67}, {"time": 2460, "pitch": 72, "duration": 38, "velocity": 74}, {"time": 2508, "pitch": 72, "duration": 24, "velocity": 65}, {"time": 2508, "pitch": 75, "duration": 23, "velocity": 69}, {"time": 2532, "pitch": 75, "duration": 10, "velocity": 88}, {"time": 2532, "pitch": 79, "duration": 10, "velocity": 83}, {"time": 2544, "pitch": 72, "duration": 10, "velocity": 79}, {"time": 2544, "pitch": 75, "duration": 8, "velocity": 88}, {"time": 2556, "pitch": 75, "duration": 20, "velocity": 84}, {"time": 2556, "pitch": 82, "duration": 20, "velocity": 80}, {"time": 2580, "pitch": 75, "duration": 14, "velocity": 82}, {"time": 2580, "pitch": 80, "duration": 14, "velocity": 85}, {"time": 2598, "pitch": 79, "duration": 3, "velocity": 82}, {"time": 2601, "pitch": 77, "duration": 3, "velocity": 85}, {"time": 2604, "pitch": 79, "duration": 46, "velocity": 95}, {"time": 2604, "pitch": 84, "duration": 24, "velocity": 95}, {"time": 2628, "pitch": 83, "duration": 22, "velocity": 95}, {"time": 2658, "pitch": 67, "duration": 6, "velocity": 76}, {"time": 2664, "pitch": 72, "duration": 12, "velocity": 73}, {"time": 2670, "pitch": 67, "duration": 8, "velocity": 75}, {"time": 2676, "pitch": 77, "duration": 7, "velocity": 80}, {"time": 2682, "pitch": 68, "duration": 5, "velocity": 79}, {"time": 2688, "pitch": 75, "duration": 5, "velocity": 79}, {"time": 2694, "pitch": 67, "duration": 5, "velocity": 66}, {"time": 2700, "pitch": 74, "duration": 7, "velocity": 83}, {"time": 2706, "pitch": 65, "duration": 7, "velocity": 75}, {"time": 2712, "pitch": 70, "duration": 8, "velocity": 83}, {"time": 2718, "pitch": 65, "duration": 6, "velocity": 80}, {"time": 2724, "pitch": 75, "duration": 7, "velocity": 80}, {"time": 2730, "pitch": 65, "duration": 6, "velocity": 79}, {"time": 2736, "pitch": 74, "duration": 11, "velocity": 86}, {"time": 2742, "pitch": 65, "duration": 4, "velocity": 74}, {"time": 2748, "pitch": 72, "duration": 5, "velocity": 79}, {"time": 2754, "pitch": 63, "duration": 6, "velocity": 76}, {"time": 2760, "pitch": 68, "duration": 19, "velocity": 69}, {"time": 2766, "pitch": 63, "duration": 6, "velocity": 74}, {"time": 2772, "pitch": 72, "duration": 12, "velocity": 72}, {"time": 2778, "pitch": 63, "duration": 7, "velocity": 64}, {"time": 2784, "pitch": 68, "duration": 9, "velocity": 70}, {"time": 2790, "pitch": 65, "duration": 7, "velocity": 73}, {"time": 2796, "pitch": 74, "duration": 6, "velocity": 71}, {"time": 2802, "pitch": 63, "duration": 6, "velocity": 82}, {"time": 2808, "pitch": 72, "duration": 6, "velocity": 81}, {"time": 2814, "pitch": 71, "duration": 20, "velocity": 79}, {"time": 2844, "pitch": 70, "duration": 19, "velocity": 67}, {"time": 2844, "pitch": 75, "duration": 17, "velocity": 69}, {"time": 2868, "pitch": 70, "duration": 18, "velocity": 72}, {"time": 2868, "pitch": 74, "duration": 18, "velocity": 79}, {"time": 2892, "pitch": 72, "duration": 10, "velocity": 71}, {"time": 2892, "pitch": 75, "duration": 12, "velocity": 76}, {"time": 2904, "pitch": 72, "duration": 13, "velocity": 76}, {"time": 2916, "pitch": 74, "duration": 12, "velocity": 80}, {"time": 2928, "pitch": 70, "duration": 12, "velocity": 72}, {"time": 2940, "pitch": 72, "duration": 33, "velocity": 74}, {"time": 3012, "pitch": 70, "duration": 9, "velocity": 73}, {"time": 3012, "pitch": 74, "duration": 10, "velocity": 80}, {"time": 3024, "pitch": 70, "duration": 13, "velocity": 75}, {"time": 3036, "pitch": 75, "duration": 7, "velocity": 80}, {"time": 3042, "pitch": 70, "duration": 23, "velocity": 68}, {"time": 3048, "pitch": 75, "duration": 18, "velocity": 68}, {"time": 3066, "pitch": 70, "duration": 7, "velocity": 74}, {"time": 3072, "pitch": 75, "duration": 6, "velocity": 72}, {"time": 3078, "pitch": 70, "duration": 6, "velocity": 69}, {"time": 3084, "pitch": 72, "duration": 8, "velocity": 63}, {"time": 3096, "pitch": 72, "duration": 6, "velocity": 77}, {"time": 3102, "pitch": 67, "duration": 9, "velocity": 66}, {"time": 3114, "pitch": 67, "duration": 7, "velocity": 71}, {"time": 3120, "pitch": 72, "duration": 8, "velocity": 54}, {"time": 3132, "pitch": 68, "duration": 15, "velocity": 65}, {"time": 3132, "pitch": 72, "duration": 18, "velocity": 67}, {"time": 3150, "pitch": 68, "duration": 26, "velocity": 70}, {"time": 3156, "pitch": 72, "duration": 19, "velocity": 70}, {"time": 3180, "pitch": 75, "duration": 8, "velocity": 70}, {"time": 3186, "pitch": 70, "duration": 22, "velocity": 65}, {"time": 3192, "pitch": 75, "duration": 18, "velocity": 68}, {"time": 3210, "pitch": 70, "duration": 7, "velocity": 72}, {"time": 3216, "pitch": 75, "duration": 6, "velocity": 80}, {"time": 3222, "pitch": 74, "duration": 6, "velocity": 80}, {"time": 3228, "pitch": 75, "duration": 19, "velocity": 81}, {"time": 3246, "pitch": 70, "duration": 6, "velocity": 75}, {"time": 3252, "pitch": 75, "duration": 13, "velocity": 70}, {"time": 3264, "pitch": 74, "duration": 9, "velocity": 79}, {"time": 3276, "pitch": 72, "duration": 20, "velocity": 69}, {"time": 3276, "pitch": 75, "duration": 21, "velocity": 78}, {"time": 3300, "pitch": 72, "duration": 8, "velocity": 73}, {"time": 3300, "pitch": 75, "duration": 9, "velocity": 72}, {"time": 3312, "pitch": 70, "duration": 8, "velocity": 69}, {"time": 3312, "pitch": 74, "duration": 10, "velocity": 79}, {"time": 3324, "pitch": 68, "duration": 37, "velocity": 67}, {"time": 3324, "pitch": 72, "duration": 38, "velocity": 74}, {"time": 3372, "pitch": 72, "duration": 24, "velocity": 65}, {"time": 3372, "pitch": 75, "duration": 23, "velocity": 69}, {"time": 3396, "pitch": 75, "duration": 10, "velocity": 88}, {"time": 3396, "pitch": 79, "duration": 10, "velocity": 83}, {"time": 3408, "pitch": 72, "duration": 10, "velocity": 79}, {"time": 3408, "pitch": 75, "duration": 8, "velocity": 88}, {"time": 3420, "pitch": 75, "duration": 34, "velocity": 80}, {"time": 3420, "pitch": 79, "duration": 36, "velocity": 74}, {"time": 3456, "pitch": 77, "duration": 12, "velocity": 81}, {"time": 3468, "pitch": 72, "duration": 21, "velocity": 74}, {"time": 3468, "pitch": 75, "duration": 20, "velocity": 79}, {"time": 3492, "pitch": 72, "duration": 10, "velocity": 79}, {"time": 3492, "pitch": 75, "duration": 8, "velocity": 80}, {"time": 3504, "pitch": 70, "duration": 8, "velocity": 79}, {"time": 3504, "pitch": 74, "duration": 10, "velocity": 80}, {"time": 3516, "pitch": 68, "duration": 21, "velocity": 77}, {"time": 3516, "pitch": 72, "duration": 21, "velocity": 79}, {"time": 3540, "pitch": 68, "duration": 13, "velocity": 79}, {"time": 3540, "pitch": 72, "duration": 15, "velocity": 77}, {"time": 3558, "pitch": 74, "duration": 4, "velocity": 85}, {"time": 3564, "pitch": 75, "duration": 20, "velocity": 88}, {"time": 3588, "pitch": 82, "duration": 11, "velocity": 88}, {"time": 3600, "pitch": 80, "duration": 13, "velocity": 90}, {"time": 3612, "pitch": 79, "duration": 20, "velocity": 82}, {"time": 3636, "pitch": 75, "duration": 11, "velocity": 83}, {"time": 3636, "pitch": 79, "duration": 12, "velocity": 79}, {"time": 3648, "pitch": 77, "duration": 12, "velocity": 72}, {"time": 3660, "pitch": 72, "duration": 26, "velocity": 75}, {"time": 3660, "pitch": 75, "duration": 25, "velocity": 76}, {"time": 3684, "pitch": 79, "duration": 12, "velocity": 75}, {"time": 3696, "pitch": 77, "duration": 12, "velocity": 76}, {"time": 3708, "pitch": 75, "duration": 25, "velocity": 74}, {"time": 3732, "pitch": 72, "duration": 6, "velocity": 79}, {"time": 3738, "pitch": 74, "duration": 6, "velocity": 85}, {"time": 3744, "pitch": 75, "duration": 6, "velocity": 85}, {"time": 3750, "pitch": 77, "duration": 6, "velocity": 81}, {"time": 3756, "pitch": 79, "duration": 22, "velocity": 84}, {"time": 3780, "pitch": 79, "duration": 11, "velocity": 80}, {"time": 3792, "pitch": 77, "duration": 10, "velocity": 75}, {"time": 3804, "pitch": 75, "duration": 21, "velocity": 74}, {"time": 3828, "pitch": 68, "duration": 21, "velocity": 80}, {"time": 3828, "pitch": 72, "duration": 22, "velocity": 78}, {"time": 3852, "pitch": 67, "duration": 21, "velocity": 69}, {"time": 3852, "pitch": 72, "duration": 22, "velocity": 79}, {"time": 3876, "pitch": 67, "duration": 21, "velocity": 73}, {"time": 3876, "pitch": 71, "duration": 21, "velocity": 80}, {"time": 3899, "pitch": 75, "duration": 8, "velocity": 80}, {"time": 3906, "pitch": 67, "duration": 6, "velocity": 76}, {"time": 3912, "pitch": 72, "duration": 12, "velocity": 73}, {"time": 3918, "pitch": 67, "duration": 8, "velocity": 75}, {"time": 3924, "pitch": 77, "duration": 7, "velocity": 80}, {"time": 3930, "pitch": 68, "duration": 5, "velocity": 79}, {"time": 3936, "pitch": 75, "duration": 5, "velocity": 79}, {"time": 3942, "pitch": 67, "duration": 5, "velocity": 66}, {"time": 3948, "pitch": 74, "duration": 7, "velocity": 83}, {"time": 3954, "pitch": 65, "duration": 7, "velocity": 75}, {"time": 3960, "pitch": 70, "duration": 8, "velocity": 83}, {"time": 3966, "pitch": 65, "duration": 6, "velocity": 80}, {"time": 3972, "pitch": 70, "duration": 1, "velocity": 26}, {"time": 3972, "pitch": 75, "duration": 7, "velocity": 80}, {"time": 3978, "pitch": 65, "duration": 6, "velocity": 79}, {"time": 3984, "pitch": 74, "duration": 11, "velocity": 86}, {"time": 3990, "pitch": 65, "duration": 4, "velocity": 74}, {"time": 3996, "pitch": 72, "duration": 5, "velocity": 79}, {"time": 4002, "pitch": 63, "duration": 6, "velocity": 76}, {"time": 4008, "pitch": 68, "duration": 19, "velocity": 69}, {"time": 4014, "pitch": 63, "duration": 6, "velocity": 74}, {"time": 4020, "pitch": 72, "duration": 12, "velocity": 72}, {"time": 4026, "pitch": 63, "duration": 7, "velocity": 64}, {"time": 4032, "pitch": 68, "duration": 9, "velocity": 70}, {"time": 4038, "pitch": 65, "duration": 7, "velocity": 73}, {"time": 4044, "pitch": 74, "duration": 6, "velocity": 71}, {"time": 4050, "pitch": 63, "duration": 6, "velocity": 82}, {"time": 4056, "pitch": 72, "duration": 6, "velocity": 81}, {"time": 4062, "pitch": 71, "duration": 20, "velocity": 79}]}, {"program": 0, "is_drum": false, "name": "PIANO", "notes": [{"time": 12, "pitch": 48, "duration": 38, "velocity": 78}, {"time": 12, "pitch": 60, "duration": 7, "velocity": 69}, {"time": 12, "pitch": 63, "duration": 11, "velocity": 68}, {"time": 18, "pitch": 55, "duration": 7, "velocity": 77}, {"time": 24, "pitch": 60, "duration": 6, "velocity": 71}, {"time": 36, "pitch": 60, "duration": 7, "velocity": 76}, {"time": 36, "pitch": 63, "duration": 8, "velocity": 73}, {"time": 48, "pitch": 55, "duration": 2, "velocity": 77}, {"time": 48, "pitch": 60, "duration": 4, "velocity": 79}, {"time": 60, "pitch": 46, "duration": 41, "velocity": 83}, {"time": 60, "pitch": 58, "duration": 5, "velocity": 67}, {"time": 60, "pitch": 62, "duration": 7, "velocity": 77}, {"time": 66, "pitch": 53, "duration": 4, "velocity": 68}, {"time": 72, "pitch": 58, "duration": 6, "velocity": 66}, {"time": 78, "pitch": 53, "duration": 2, "velocity": 57}, {"time": 84, "pitch": 58, "duration": 6, "velocity": 78}, {"time": 84, "pitch": 62, "duration": 6, "velocity": 79}, {"time": 90, "pitch": 53, "duration": 1, "velocity": 56}, {"time": 96, "pitch": 53, "duration": 2, "velocity": 78}, {"time": 96, "pitch": 58, "duration": 5, "velocity": 76}, {"time": 102, "pitch": 53, "duration": 3, "velocity": 64}, {"time": 108, "pitch": 44, "duration": 26, "velocity": 80}, {"time": 108, "pitch": 56, "duration": 5, "velocity": 67}, {"time": 108, "pitch": 60, "duration": 5, "velocity": 74}, {"time": 114, "pitch": 51, "duration": 7, "velocity": 64}, {"time": 120, "pitch": 56, "duration": 6, "velocity": 69}, {"time": 126, "pitch": 51, "duration": 7, "velocity": 67}, {"time": 132, "pitch": 56, "duration": 8, "velocity": 77}, {"time": 132, "pitch": 60, "duration": 9, "velocity": 77}, {"time": 138, "pitch": 51, "duration": 7, "velocity": 57}, {"time": 144, "pitch": 56, "duration": 3, "velocity": 81}, {"time": 156, "pitch": 43, "duration": 14, "velocity": 79}, {"time": 156, "pitch": 55, "duration": 6, "velocity": 68}, {"time": 156, "pitch": 62, "duration": 11, "velocity": 72}, {"time": 162, "pitch": 50, "duration": 6, "velocity": 69}, {"time": 168, "pitch": 55, "duration": 5, "velocity": 83}, {"time": 174, "pitch": 50, "duration": 5, "velocity": 75}, {"time": 180, "pitch": 55, "duration": 14, "velocity": 77}, {"time": 180, "pitch": 59, "duration": 14, "velocity": 76}, {"time": 204, "pitch": 48, "duration": 27, "velocity": 79}, {"time": 204, "pitch": 60, "duration": 8, "velocity": 74}, {"time": 204, "pitch": 63, "duration": 7, "velocity": 73}, {"time": 210, "pitch": 55, "duration": 3, "velocity": 75}, {"time": 216, "pitch": 55, "duration": 2, "velocity": 70}, {"time": 216, "pitch": 60, "duration": 5, "velocity": 73}, {"time": 228, "pitch": 60, "duration": 6, "velocity": 79}, {"time": 228, "pitch": 63, "duration": 6, "velocity": 74}, {"time": 234, "pitch": 55, "duration": 1, "velocity": 62}, {"time": 240, "pitch": 55, "duration": 2, "velocity": 79}, {"time": 240, "pitch": 60, "duration": 3, "velocity": 81}, {"time": 252, "pitch": 46, "duration": 18, "velocity": 72}, {"time": 252, "pitch": 58, "duration": 8, "velocity": 73}, {"time": 252, "pitch": 62, "duration": 9, "velocity": 75}, {"time": 258, "pitch": 53, "duration": 7, "velocity": 65}, {"time": 264, "pitch": 58, "duration": 3, "velocity": 76}, {"time": 276, "pitch": 58, "duration": 6, "velocity": 67}, {"time": 276, "pitch": 62, "duration": 6, "velocity": 75}, {"time": 282, "pitch": 53, "duration": 1, "velocity": 41}, {"time": 288, "pitch": 46, "duration": 2, "velocity": 80}, {"time": 288, "pitch": 53, "duration": 1, "velocity": 72}, {"time": 288, "pitch": 58, "duration": 5, "velocity": 72}, {"time": 294, "pitch": 53, "duration": 2, "velocity": 63}, {"time": 300, "pitch": 44, "duration": 26, "velocity": 81}, {"time": 300, "pitch": 56, "duration": 5, "velocity": 72}, {"time": 300, "pitch": 60, "duration": 7, "velocity": 77}, {"time": 306, "pitch": 51, "duration": 7, "velocity": 62}, {"time": 312, "pitch": 56, "duration": 6, "velocity": 81}, {"time": 318, "pitch": 51, "duration": 7, "velocity": 67}, {"time": 324, "pitch": 56, "duration": 8, "velocity": 82}, {"time": 324, "pitch": 60, "duration": 8, "velocity": 80}, {"time": 330, "pitch": 51, "duration": 9, "velocity": 60}, {"time": 336, "pitch": 56, "duration": 5, "velocity": 83}, {"time": 342, "pitch": 44, "duration": 3, "velocity": 71}, {"time": 348, "pitch": 43, "duration": 15, "velocity": 80}, {"time": 354, "pitch": 50, "duration": 9, "velocity": 77}, {"time": 360, "pitch": 55, "duration": 2, "velocity": 80}, {"time": 366, "pitch": 43, "duration": 19, "velocity": 81}, {"time": 366, "pitch": 55, "duration": 18, "velocity": 78}, {"time": 366, "pitch": 59, "duration": 16, "velocity": 79}, {"time": 396, "pitch": 36, "duration": 2, "velocity": 74}, {"time": 396, "pitch": 60, "duration": 7, "velocity": 74}, {"time": 396, "pitch": 63, "duration": 7, "velocity": 79}, {"time": 402, "pitch": 55, "duration": 2, "velocity": 70}, {"time": 408, "pitch": 60, "duration": 9, "velocity": 68}, {"time": 414, "pitch": 55, "duration": 3, "velocity": 60}, {"time": 420, "pitch": 60, "duration": 8, "velocity": 79}, {"time": 420, "pitch": 63, "duration": 9, "velocity": 73}, {"time": 426, "pitch": 51, "duration": 8, "velocity": 66}, {"time": 432, "pitch": 55, "duration": 2, "velocity": 72}, {"time": 432, "pitch": 60, "duration": 6, "velocity": 75}, {"time": 438, "pitch": 55, "duration": 3, "velocity": 62}, {"time": 444, "pitch": 46, "duration": 14, "velocity": 73}, {"time": 444, "pitch": 58, "duration": 6, "velocity": 66}, {"time": 444, "pitch": 62, "duration": 12, "velocity": 74}, {"time": 450, "pitch": 53, "duration": 6, "velocity": 62}, {"time": 456, "pitch": 58, "duration": 7, "velocity": 81}, {"time": 462, "pitch": 53, "duration": 8, "velocity": 63}, {"time": 468, "pitch": 58, "duration": 9, "velocity": 73}, {"time": 468, "pitch": 62, "duration": 8, "velocity": 76}, {"time": 474, "pitch": 46, "duration": 9, "velocity": 68}, {"time": 480, "pitch": 58, "duration": 5, "velocity": 81}, {"time": 492, "pitch": 44, "duration": 13, "velocity": 81}, {"time": 492, "pitch": 56, "duration": 6, "velocity": 66}, {"time": 492, "pitch": 60, "duration": 10, "velocity": 74}, {"time": 498, "pitch": 51, "duration": 7, "velocity": 66}, {"time": 504, "pitch": 56, "duration": 7, "velocity": 80}, {"time": 510, "pitch": 51, "duration": 6, "velocity": 60}, {"time": 516, "pitch": 56, "duration": 13, "velocity": 75}, {"time": 516, "pitch": 60, "duration": 18, "velocity": 75}, {"time": 522, "pitch": 44, "duration": 7, "velocity": 64}, {"time": 528, "pitch": 51, "duration": 4, "velocity": 81}, {"time": 534, "pitch": 56, "duration": 3, "velocity": 80}, {"time": 540, "pitch": 43, "duration": 37, "velocity": 73}, {"time": 540, "pitch": 55, "duration": 7, "velocity": 74}, {"time": 540, "pitch": 59, "duration": 8, "velocity": 76}, {"time": 546, "pitch": 50, "duration": 7, "velocity": 69}, {"time": 552, "pitch": 55, "duration": 7, "velocity": 82}, {"time": 558, "pitch": 50, "duration": 7, "velocity": 65}, {"time": 564, "pitch": 55, "duration": 7, "velocity": 79}, {"time": 564, "pitch": 62, "duration": 7, "velocity": 78}, {"time": 570, "pitch": 50, "duration": 7, "velocity": 68}, {"time": 576, "pitch": 55, "duration": 2, "velocity": 72}, {"time": 576, "pitch": 59, "duration": 2, "velocity": 75}, {"time": 588, "pitch": 48, "duration": 37, "velocity": 78}, {"time": 588, "pitch": 55, "duration": 3, "velocity": 72}, {"time": 588, "pitch": 63, "duration": 12, "velocity": 72}, {"time": 594, "pitch": 55, "duration": 6, "velocity": 64}, {"time": 600, "pitch": 60, "duration": 6, "velocity": 71}, {"time": 612, "pitch": 60, "duration": 6, "velocity": 80}, {"time": 612, "pitch": 63, "duration": 7, "velocity": 77}, {"time": 618, "pitch": 55, "duration": 2, "velocity": 59}, {"time": 624, "pitch": 55, "duration": 2, "velocity": 76}, {"time": 624, "pitch": 60, "duration": 4, "velocity": 80}, {"time": 630, "pitch": 55, "duration": 3, "velocity": 54}, {"time": 636, "pitch": 46, "duration": 5, "velocity": 72}, {"time": 636, "pitch": 58, "duration": 5, "velocity": 67}, {"time": 636, "pitch": 62, "duration": 5, "velocity": 76}, {"time": 642, "pitch": 53, "duration": 3, "velocity": 70}, {"time": 648, "pitch": 58, "duration": 3, "velocity": 81}, {"time": 654, "pitch": 53, "duration": 6, "velocity": 72}, {"time": 660, "pitch": 46, "duration": 6, "velocity": 73}, {"time": 660, "pitch": 58, "duration": 6, "velocity": 66}, {"time": 660, "pitch": 62, "duration": 6, "velocity": 73}, {"time": 666, "pitch": 53, "duration": 3, "velocity": 72}, {"time": 672, "pitch": 58, "duration": 4, "velocity": 82}, {"time": 678, "pitch": 53, "duration": 1, "velocity": 55}, {"time": 684, "pitch": 44, "duration": 14, "velocity": 81}, {"time": 684, "pitch": 56, "duration": 8, "velocity": 66}, {"time": 684, "pitch": 60, "duration": 9, "velocity": 73}, {"time": 690, "pitch": 51, "duration": 7, "velocity": 66}, {"time": 696, "pitch": 56, "duration": 7, "velocity": 85}, {"time": 702, "pitch": 51, "duration": 6, "velocity": 68}, {"time": 708, "pitch": 56, "duration": 8, "velocity": 80}, {"time": 708, "pitch": 60, "duration": 8, "velocity": 78}, {"time": 714, "pitch": 44, "duration": 7, "velocity": 61}, {"time": 720, "pitch": 56, "duration": 3, "velocity": 80}, {"time": 720, "pitch": 60, "duration": 3, "velocity": 79}, {"time": 726, "pitch": 44, "duration": 2, "velocity": 74}, {"time": 732, "pitch": 43, "duration": 14, "velocity": 79}, {"time": 732, "pitch": 55, "duration": 7, "velocity": 67}, {"time": 732, "pitch": 62, "duration": 7, "velocity": 78}, {"time": 738, "pitch": 50, "duration": 7, "velocity": 75}, {"time": 744, "pitch": 55, "duration": 6, "velocity": 79}, {"time": 744, "pitch": 59, "duration": 7, "velocity": 78}, {"time": 750, "pitch": 50, "duration": 7, "velocity": 72}, {"time": 756, "pitch": 55, "duration": 10, "velocity": 79}, {"time": 756, "pitch": 59, "duration": 10, "velocity": 78}, {"time": 756, "pitch": 62, "duration": 10, "velocity": 79}, {"time": 762, "pitch": 43, "duration": 9, "velocity": 75}, {"time": 768, "pitch": 55, "duration": 2, "velocity": 80}, {"time": 768, "pitch": 59, "duration": 5, "velocity": 79}, {"time": 768, "pitch": 62, "duration": 4, "velocity": 79}, {"time": 774, "pitch": 55, "duration": 5, "velocity": 79}, {"time": 780, "pitch": 39, "duration": 13, "velocity": 76}, {"time": 780, "pitch": 58, "duration": 6, "velocity": 77}, {"time": 780, "pitch": 63, "duration": 6, "velocity": 74}, {"time": 786, "pitch": 46, "duration": 8, "velocity": 56}, {"time": 792, "pitch": 55, "duration": 2, "velocity": 80}, {"time": 792, "pitch": 58, "duration": 6, "velocity": 83}, {"time": 798, "pitch": 55, "duration": 2, "velocity": 74}, {"time": 804, "pitch": 46, "duration": 12, "velocity": 80}, {"time": 804, "pitch": 58, "duration": 6, "velocity": 70}, {"time": 804, "pitch": 62, "duration": 6, "velocity": 79}, {"time": 810, "pitch": 53, "duration": 4, "velocity": 67}, {"time": 816, "pitch": 58, "duration": 5, "velocity": 81}, {"time": 816, "pitch": 62, "duration": 6, "velocity": 79}, {"time": 822, "pitch": 53, "duration": 2, "velocity": 77}, {"time": 828, "pitch": 48, "duration": 13, "velocity": 79}, {"time": 828, "pitch": 63, "duration": 8, "velocity": 73}, {"time": 834, "pitch": 55, "duration": 7, "velocity": 73}, {"time": 840, "pitch": 60, "duration": 5, "velocity": 80}, {"time": 840, "pitch": 63, "duration": 5, "velocity": 80}, {"time": 846, "pitch": 55, "duration": 7, "velocity": 79}, {"time": 852, "pitch": 43, "duration": 16, "velocity": 80}, {"time": 852, "pitch": 58, "duration": 6, "velocity": 66}, {"time": 852, "pitch": 62, "duration": 7, "velocity": 74}, {"time": 858, "pitch": 50, "duration": 9, "velocity": 67}, {"time": 864, "pitch": 58, "duration": 5, "velocity": 88}, {"time": 864, "pitch": 62, "duration": 9, "velocity": 80}, {"time": 870, "pitch": 55, "duration": 5, "velocity": 78}, {"time": 876, "pitch": 44, "duration": 15, "velocity": 80}, {"time": 876, "pitch": 56, "duration": 8, "velocity": 79}, {"time": 876, "pitch": 60, "duration": 9, "velocity": 74}, {"time": 882, "pitch": 51, "duration": 9, "velocity": 65}, {"time": 888, "pitch": 56, "duration": 3, "velocity": 80}, {"time": 888, "pitch": 60, "duration": 6, "velocity": 81}, {"time": 894, "pitch": 56, "duration": 3, "velocity": 75}, {"time": 900, "pitch": 48, "duration": 15, "velocity": 77}, {"time": 900, "pitch": 55, "duration": 3, "velocity": 73}, {"time": 900, "pitch": 60, "duration": 5, "velocity": 73}, {"time": 906, "pitch": 55, "duration": 6, "velocity": 80}, {"time": 912, "pitch": 60, "duration": 7, "velocity": 81}, {"time": 912, "pitch": 63, "duration": 8, "velocity": 82}, {"time": 918, "pitch": 55, "duration": 6, "velocity": 79}, {"time": 924, "pitch": 43, "duration": 16, "velocity": 80}, {"time": 930, "pitch": 50, "duration": 8, "velocity": 79}, {"time": 936, "pitch": 55, "duration": 2, "velocity": 79}, {"time": 936, "pitch": 58, "duration": 6, "velocity": 86}, {"time": 936, "pitch": 62, "duration": 7, "velocity": 82}, {"time": 942, "pitch": 55, "duration": 4, "velocity": 80}, {"time": 948, "pitch": 46, "duration": 14, "velocity": 83}, {"time": 948, "pitch": 58, "duration": 7, "velocity": 83}, {"time": 948, "pitch": 62, "duration": 5, "velocity": 80}, {"time": 954, "pitch": 53, "duration": 3, "velocity": 80}, {"time": 960, "pitch": 53, "duration": 2, "velocity": 82}, {"time": 960, "pitch": 58, "duration": 2, "velocity": 88}, {"time": 960, "pitch": 62, "duration": 3, "velocity": 82}, {"time": 972, "pitch": 39, "duration": 21, "velocity": 83}, {"time": 972, "pitch": 58, "duration": 6, "velocity": 79}, {"time": 972, "pitch": 63, "duration": 6, "velocity": 74}, {"time": 978, "pitch": 46, "duration": 16, "velocity": 61}, {"time": 978, "pitch": 55, "duration": 4, "velocity": 72}, {"time": 984, "pitch": 58, "duration": 2, "velocity": 86}, {"time": 984, "pitch": 63, "duration": 4, "velocity": 86}, {"time": 990, "pitch": 55, "duration": 7, "velocity": 81}, {"time": 996, "pitch": 39, "duration": 11, "velocity": 74}, {"time": 996, "pitch": 58, "duration": 7, "velocity": 81}, {"time": 996, "pitch": 63, "duration": 7, "velocity": 80}, {"time": 1002, "pitch": 55, "duration": 4, "velocity": 73}, {"time": 1008, "pitch": 58, "duration": 5, "velocity": 86}, {"time": 1008, "pitch": 63, "duration": 5, "velocity": 84}, {"time": 1014, "pitch": 55, "duration": 5, "velocity": 83}, {"time": 1020, "pitch": 48, "duration": 13, "velocity": 79}, {"time": 1020, "pitch": 63, "duration": 7, "velocity": 84}, {"time": 1026, "pitch": 55, "duration": 3, "velocity": 81}, {"time": 1032, "pitch": 55, "duration": 1, "velocity": 69}, {"time": 1032, "pitch": 60, "duration": 7, "velocity": 74}, {"time": 1032, "pitch": 63, "duration": 6, "velocity": 76}, {"time": 1038, "pitch": 55, "duration": 7, "velocity": 79}, {"time": 1044, "pitch": 48, "duration": 13, "velocity": 79}, {"time": 1044, "pitch": 60, "duration": 6, "velocity": 81}, {"time": 1044, "pitch": 63, "duration": 7, "velocity": 80}, {"time": 1050, "pitch": 55, "duration": 3, "velocity": 74}, {"time": 1056, "pitch": 55, "duration": 5, "velocity": 81}, {"time": 1056, "pitch": 60, "duration": 6, "velocity": 81}, {"time": 1056, "pitch": 63, "duration": 8, "velocity": 77}, {"time": 1062, "pitch": 46, "duration": 2, "velocity": 79}, {"time": 1068, "pitch": 44, "duration": 16, "velocity": 83}, {"time": 1068, "pitch": 56, "duration": 8, "velocity": 79}, {"time": 1068, "pitch": 63, "duration": 7, "velocity": 75}, {"time": 1074, "pitch": 51, "duration": 9, "velocity": 64}, {"time": 1080, "pitch": 60, "duration": 6, "velocity": 77}, {"time": 1080, "pitch": 63, "duration": 6, "velocity": 75}, {"time": 1086, "pitch": 56, "duration": 7, "velocity": 81}, {"time": 1092, "pitch": 44, "duration": 8, "velocity": 78}, {"time": 1092, "pitch": 60, "duration": 8, "velocity": 79}, {"time": 1092, "pitch": 63, "duration": 8, "velocity": 80}, {"time": 1098, "pitch": 51, "duration": 5, "velocity": 73}, {"time": 1104, "pitch": 60, "duration": 6, "velocity": 81}, {"time": 1104, "pitch": 63, "duration": 7, "velocity": 80}, {"time": 1110, "pitch": 56, "duration": 5, "velocity": 81}, {"time": 1116, "pitch": 39, "duration": 13, "velocity": 86}, {"time": 1122, "pitch": 51, "duration": 6, "velocity": 88}, {"time": 1128, "pitch": 55, "duration": 4, "velocity": 80}, {"time": 1128, "pitch": 58, "duration": 2, "velocity": 79}, {"time": 1128, "pitch": 63, "duration": 9, "velocity": 80}, {"time": 1134, "pitch": 51, "duration": 7, "velocity": 83}, {"time": 1134, "pitch": 55, "duration": 1, "velocity": 53}, {"time": 1140, "pitch": 55, "duration": 6, "velocity": 79}, {"time": 1140, "pitch": 58, "duration": 7, "velocity": 74}, {"time": 1140, "pitch": 63, "duration": 6, "velocity": 80}, {"time": 1146, "pitch": 46, "duration": 6, "velocity": 70}, {"time": 1146, "pitch": 51, "duration": 5, "velocity": 79}, {"time": 1152, "pitch": 55, "duration": 2, "velocity": 81}, {"time": 1152, "pitch": 58, "duration": 2, "velocity": 81}, {"time": 1152, "pitch": 63, "duration": 7, "velocity": 80}, {"time": 1158, "pitch": 51, "duration": 1, "velocity": 80}, {"time": 1164, "pitch": 39, "duration": 21, "velocity": 75}, {"time": 1164, "pitch": 58, "duration": 6, "velocity": 57}, {"time": 1164, "pitch": 63, "duration": 7, "velocity": 71}, {"time": 1170, "pitch": 46, "duration": 15, "velocity": 62}, {"time": 1170, "pitch": 55, "duration": 5, "velocity": 67}, {"time": 1176, "pitch": 58, "duration": 6, "velocity": 75}, {"time": 1182, "pitch": 55, "duration": 7, "velocity": 74}, {"time": 1188, "pitch": 39, "duration": 13, "velocity": 68}, {"time": 1188, "pitch": 58, "duration": 6, "velocity": 79}, {"time": 1188, "pitch": 63, "duration": 5, "velocity": 73}, {"time": 1194, "pitch": 55, "duration": 6, "velocity": 79}, {"time": 1200, "pitch": 58, "duration": 5, "velocity": 74}, {"time": 1200, "pitch": 62, "duration": 6, "velocity": 78}, {"time": 1206, "pitch": 55, "duration": 7, "velocity": 81}, {"time": 1212, "pitch": 48, "duration": 10, "velocity": 78}, {"time": 1212, "pitch": 60, "duration": 6, "velocity": 76}, {"time": 1212, "pitch": 63, "duration": 6, "velocity": 74}, {"time": 1218, "pitch": 55, "duration": 3, "velocity": 73}, {"time": 1224, "pitch": 60, "duration": 7, "velocity": 80}, {"time": 1224, "pitch": 63, "duration": 5, "velocity": 83}, {"time": 1230, "pitch": 55, "duration": 7, "velocity": 78}, {"time": 1236, "pitch": 48, "duration": 6, "velocity": 79}, {"time": 1236, "pitch": 60, "duration": 7, "velocity": 79}, {"time": 1242, "pitch": 55, "duration": 6, "velocity": 79}, {"time": 1248, "pitch": 46, "duration": 3, "velocity": 77}, {"time": 1248, "pitch": 60, "duration": 7, "velocity": 79}, {"time": 1248, "pitch": 63, "duration": 9, "velocity": 77}, {"time": 1254, "pitch": 55, "duration": 2, "velocity": 71}, {"time": 1260, "pitch": 44, "duration": 20, "velocity": 81}, {"time": 1260, "pitch": 60, "duration": 6, "velocity": 73}, {"time": 1260, "pitch": 63, "duration": 7, "velocity": 73}, {"time": 1266, "pitch": 51, "duration": 16, "velocity": 51}, {"time": 1266, "pitch": 56, "duration": 6, "velocity": 68}, {"time": 1272, "pitch": 60, "duration": 6, "velocity": 79}, {"time": 1278, "pitch": 56, "duration": 7, "velocity": 71}, {"time": 1284, "pitch": 44, "duration": 13, "velocity": 79}, {"time": 1284, "pitch": 60, "duration": 7, "velocity": 73}, {"time": 1284, "pitch": 63, "duration": 7, "velocity": 79}, {"time": 1290, "pitch": 51, "duration": 8, "velocity": 70}, {"time": 1296, "pitch": 56, "duration": 3, "velocity": 68}, {"time": 1296, "pitch": 60, "duration": 3, "velocity": 73}, {"time": 1296, "pitch": 63, "duration": 3, "velocity": 74}, {"time": 1302, "pitch": 44, "duration": 1, "velocity": 73}, {"time": 1308, "pitch": 36, "duration": 1, "velocity": 76}, {"time": 1308, "pitch": 60, "duration": 7, "velocity": 74}, {"time": 1308, "pitch": 63, "duration": 7, "velocity": 72}, {"time": 1314, "pitch": 55, "duration": 3, "velocity": 66}, {"time": 1320, "pitch": 60, "duration": 8, "velocity": 75}, {"time": 1326, "pitch": 55, "duration": 7, "velocity": 62}, {"time": 1332, "pitch": 60, "duration": 20, "velocity": 69}, {"time": 1332, "pitch": 63, "duration": 20, "velocity": 67}, {"time": 1356, "pitch": 48, "duration": 38, "velocity": 78}, {"time": 1356, "pitch": 60, "duration": 7, "velocity": 69}, {"time": 1356, "pitch": 63, "duration": 11, "velocity": 68}, {"time": 1362, "pitch": 55, "duration": 7, "velocity": 77}, {"time": 1368, "pitch": 60, "duration": 6, "velocity": 71}, {"time": 1380, "pitch": 60, "duration": 7, "velocity": 76}, {"time": 1380, "pitch": 63, "duration": 8, "velocity": 73}, {"time": 1392, "pitch": 55, "duration": 2, "velocity": 77}, {"time": 1392, "pitch": 60, "duration": 4, "velocity": 79}, {"time": 1404, "pitch": 46, "duration": 41, "velocity": 83}, {"time": 1404, "pitch": 58, "duration": 5, "velocity": 67}, {"time": 1404, "pitch": 62, "duration": 7, "velocity": 77}, {"time": 1410, "pitch": 53, "duration": 4, "velocity": 68}, {"time": 1416, "pitch": 58, "duration": 6, "velocity": 66}, {"time": 1422, "pitch": 53, "duration": 2, "velocity": 57}, {"time": 1428, "pitch": 58, "duration": 6, "velocity": 78}, {"time": 1428, "pitch": 62, "duration": 6, "velocity": 79}, {"time": 1434, "pitch": 53, "duration": 1, "velocity": 56}, {"time": 1440, "pitch": 53, "duration": 2, "velocity": 78}, {"time": 1440, "pitch": 58, "duration": 5, "velocity": 76}, {"time": 1446, "pitch": 53, "duration": 3, "velocity": 64}, {"time": 1452, "pitch": 44, "duration": 26, "velocity": 80}, {"time": 1452, "pitch": 56, "duration": 5, "velocity": 67}, {"time": 1452, "pitch": 60, "duration": 5, "velocity": 74}, {"time": 1458, "pitch": 51, "duration": 7, "velocity": 64}, {"time": 1464, "pitch": 56, "duration": 6, "velocity": 69}, {"time": 1470, "pitch": 51, "duration": 7, "velocity": 67}, {"time": 1476, "pitch": 56, "duration": 8, "velocity": 77}, {"time": 1476, "pitch": 60, "duration": 9, "velocity": 77}, {"time": 1482, "pitch": 51, "duration": 7, "velocity": 57}, {"time": 1488, "pitch": 56, "duration": 3, "velocity": 81}, {"time": 1500, "pitch": 43, "duration": 19, "velocity": 80}, {"time": 1500, "pitch": 55, "duration": 7, "velocity": 73}, {"time": 1500, "pitch": 67, "duration": 6, "velocity": 75}, {"time": 1506, "pitch": 50, "duration": 8, "velocity": 76}, {"time": 1512, "pitch": 55, "duration": 5, "velocity": 77}, {"time": 1512, "pitch": 62, "duration": 6, "velocity": 75}, {"time": 1518, "pitch": 50, "duration": 4, "velocity": 73}, {"time": 1524, "pitch": 43, "duration": 22, "velocity": 77}, {"time": 1524, "pitch": 55, "duration": 8, "velocity": 73}, {"time": 1524, "pitch": 59, "duration": 7, "velocity": 75}, {"time": 1530, "pitch": 50, "duration": 15, "velocity": 65}, {"time": 1536, "pitch": 59, "duration": 2, "velocity": 79}, {"time": 1536, "pitch": 62, "duration": 3, "velocity": 79}, {"time": 1542, "pitch": 55, "duration": 11, "velocity": 73}, {"time": 1548, "pitch": 43, "duration": 31, "velocity": 81}, {"time": 1548, "pitch": 59, "duration": 6, "velocity": 75}, {"time": 1548, "pitch": 62, "duration": 6, "velocity": 75}, {"time": 1548, "pitch": 67, "duration": 4, "velocity": 73}, {"time": 1554, "pitch": 50, "duration": 8, "velocity": 59}, {"time": 1560, "pitch": 59, "duration": 6, "velocity": 69}, {"time": 1560, "pitch": 62, "duration": 5, "velocity": 72}, {"time": 1566, "pitch": 50, "duration": 8, "velocity": 78}, {"time": 1572, "pitch": 55, "duration": 7, "velocity": 80}, {"time": 1572, "pitch": 59, "duration": 9, "velocity": 88}, {"time": 1572, "pitch": 62, "duration": 8, "velocity": 82}, {"time": 1572, "pitch": 67, "duration": 8, "velocity": 78}, {"time": 1578, "pitch": 50, "duration": 16, "velocity": 81}, {"time": 1584, "pitch": 55, "duration": 9, "velocity": 86}, {"time": 1584, "pitch": 59, "duration": 1, "velocity": 79}, {"time": 1596, "pitch": 36, "duration": 2, "velocity": 74}, {"time": 1596, "pitch": 60, "duration": 7, "velocity": 74}, {"time": 1596, "pitch": 63, "duration": 7, "velocity": 79}, {"time": 1602, "pitch": 55, "duration": 2, "velocity": 70}, {"time": 1608, "pitch": 60, "duration": 9, "velocity": 68}, {"time": 1614, "pitch": 55, "duration": 3, "velocity": 60}, {"time": 1620, "pitch": 60, "duration": 8, "velocity": 79}, {"time": 1620, "pitch": 63, "duration": 9, "velocity": 73}, {"time": 1626, "pitch": 51, "duration": 8, "velocity": 66}, {"time": 1632, "pitch": 55, "duration": 2, "velocity": 72}, {"time": 1632, "pitch": 60, "duration": 6, "velocity": 75}, {"time": 1638, "pitch": 55, "duration": 3, "velocity": 62}, {"time": 1644, "pitch": 46, "duration": 14, "velocity": 73}, {"time": 1644, "pitch": 58, "duration": 6, "velocity": 66}, {"time": 1644, "pitch": 62, "duration": 12, "velocity": 74}, {"time": 1650, "pitch": 53, "duration": 6, "velocity": 62}, {"time": 1656, "pitch": 58, "duration": 7, "velocity": 81}, {"time": 1662, "pitch": 53, "duration": 8, "velocity": 63}, {"time": 1668, "pitch": 58, "duration": 9, "velocity": 73}, {"time": 1668, "pitch": 62, "duration": 8, "velocity": 76}, {"time": 1674, "pitch": 46, "duration": 9, "velocity": 68}, {"time": 1680, "pitch": 58, "duration": 5, "velocity": 81}, {"time": 1692, "pitch": 44, "duration": 13, "velocity": 81}, {"time": 1692, "pitch": 56, "duration": 6, "velocity": 66}, {"time": 1692, "pitch": 60, "duration": 10, "velocity": 74}, {"time": 1698, "pitch": 51, "duration": 7, "velocity": 66}, {"time": 1704, "pitch": 56, "duration": 7, "velocity": 80}, {"time": 1710, "pitch": 51, "duration": 6, "velocity": 60}, {"time": 1716, "pitch": 56, "duration": 13, "velocity": 75}, {"time": 1716, "pitch": 60, "duration": 18, "velocity": 75}, {"time": 1722, "pitch": 44, "duration": 7, "velocity": 64}, {"time": 1728, "pitch": 51, "duration": 4, "velocity": 81}, {"time": 1734, "pitch": 56, "duration": 3, "velocity": 80}, {"time": 1740, "pitch": 43, "duration": 37, "velocity": 73}, {"time": 1740, "pitch": 55, "duration": 7, "velocity": 74}, {"time": 1740, "pitch": 59, "duration": 8, "velocity": 76}, {"time": 1746, "pitch": 50, "duration": 7, "velocity": 69}, {"time": 1752, "pitch": 55, "duration": 7, "velocity": 82}, {"time": 1758, "pitch": 50, "duration": 7, "velocity": 65}, {"time": 1764, "pitch": 55, "duration": 7, "velocity": 79}, {"time": 1764, "pitch": 62, "duration": 7, "velocity": 78}, {"time": 1770, "pitch": 50, "duration": 7, "velocity": 68}, {"time": 1776, "pitch": 55, "duration": 2, "velocity": 72}, {"time": 1776, "pitch": 59, "duration": 2, "velocity": 75}, {"time": 1788, "pitch": 48, "duration": 37, "velocity": 78}, {"time": 1788, "pitch": 55, "duration": 3, "velocity": 72}, {"time": 1788, "pitch": 63, "duration": 12, "velocity": 72}, {"time": 1794, "pitch": 55, "duration": 6, "velocity": 64}, {"time": 1800, "pitch": 60, "duration": 6, "velocity": 71}, {"time": 1812, "pitch": 60, "duration": 6, "velocity": 80}, {"time": 1812, "pitch": 63, "duration": 7, "velocity": 77}, {"time": 1818, "pitch": 55, "duration": 2, "velocity": 59}, {"time": 1824, "pitch": 55, "duration": 2, "velocity": 76}, {"time": 1824, "pitch": 60, "duration": 4, "velocity": 80}, {"time": 1830, "pitch": 55, "duration": 3, "velocity": 54}, {"time": 1836, "pitch": 46, "duration": 5, "velocity": 72}, {"time": 1836, "pitch": 58, "duration": 5, "velocity": 67}, {"time": 1836, "pitch": 62, "duration": 5, "velocity": 76}, {"time": 1842, "pitch": 53, "duration": 3, "velocity": 70}, {"time": 1848, "pitch": 58, "duration": 3, "velocity": 81}, {"time": 1854, "pitch": 53, "duration": 6, "velocity": 72}, {"time": 1860, "pitch": 46, "duration": 6, "velocity": 73}, {"time": 1860, "pitch": 58, "duration": 6, "velocity": 66}, {"time": 1860, "pitch": 62, "duration": 6, "velocity": 73}, {"time": 1866, "pitch": 53, "duration": 3, "velocity": 72}, {"time": 1872, "pitch": 58, "duration": 4, "velocity": 82}, {"time": 1878, "pitch": 53, "duration": 1, "velocity": 55}, {"time": 1884, "pitch": 44, "duration": 14, "velocity": 81}, {"time": 1884, "pitch": 56, "duration": 8, "velocity": 66}, {"time": 1884, "pitch": 60, "duration": 9, "velocity": 73}, {"time": 1890, "pitch": 51, "duration": 7, "velocity": 66}, {"time": 1896, "pitch": 56, "duration": 7, "velocity": 85}, {"time": 1902, "pitch": 51, "duration": 6, "velocity": 68}, {"time": 1908, "pitch": 56, "duration": 8, "velocity": 80}, {"time": 1908, "pitch": 60, "duration": 8, "velocity": 78}, {"time": 1914, "pitch": 44, "duration": 7, "velocity": 61}, {"time": 1920, "pitch": 56, "duration": 3, "velocity": 80}, {"time": 1920, "pitch": 60, "duration": 3, "velocity": 79}, {"time": 1926, "pitch": 44, "duration": 2, "velocity": 74}, {"time": 1932, "pitch": 43, "duration": 14, "velocity": 79}, {"time": 1932, "pitch": 55, "duration": 7, "velocity": 67}, {"time": 1932, "pitch": 62, "duration": 7, "velocity": 78}, {"time": 1938, "pitch": 50, "duration": 7, "velocity": 75}, {"time": 1944, "pitch": 55, "duration": 6, "velocity": 79}, {"time": 1944, "pitch": 59, "duration": 7, "velocity": 78}, {"time": 1950, "pitch": 50, "duration": 7, "velocity": 72}, {"time": 1956, "pitch": 55, "duration": 10, "velocity": 79}, {"time": 1956, "pitch": 59, "duration": 10, "velocity": 78}, {"time": 1956, "pitch": 62, "duration": 10, "velocity": 79}, {"time": 1962, "pitch": 43, "duration": 9, "velocity": 75}, {"time": 1968, "pitch": 55, "duration": 2, "velocity": 80}, {"time": 1968, "pitch": 59, "duration": 5, "velocity": 79}, {"time": 1968, "pitch": 62, "duration": 4, "velocity": 79}, {"time": 1974, "pitch": 55, "duration": 5, "velocity": 79}, {"time": 1980, "pitch": 39, "duration": 13, "velocity": 76}, {"time": 1980, "pitch": 58, "duration": 6, "velocity": 77}, {"time": 1980, "pitch": 63, "duration": 6, "velocity": 74}, {"time": 1986, "pitch": 46, "duration": 8, "velocity": 56}, {"time": 1992, "pitch": 55, "duration": 2, "velocity": 80}, {"time": 1992, "pitch": 58, "duration": 6, "velocity": 83}, {"time": 1998, "pitch": 55, "duration": 2, "velocity": 74}, {"time": 2004, "pitch": 46, "duration": 12, "velocity": 80}, {"time": 2004, "pitch": 58, "duration": 6, "velocity": 70}, {"time": 2004, "pitch": 62, "duration": 6, "velocity": 79}, {"time": 2010, "pitch": 53, "duration": 4, "velocity": 67}, {"time": 2016, "pitch": 58, "duration": 5, "velocity": 81}, {"time": 2016, "pitch": 62, "duration": 6, "velocity": 79}, {"time": 2022, "pitch": 53, "duration": 2, "velocity": 77}, {"time": 2028, "pitch": 48, "duration": 13, "velocity": 79}, {"time": 2028, "pitch": 63, "duration": 8, "velocity": 73}, {"time": 2034, "pitch": 55, "duration": 7, "velocity": 73}, {"time": 2040, "pitch": 60, "duration": 5, "velocity": 80}, {"time": 2040, "pitch": 63, "duration": 5, "velocity": 80}, {"time": 2046, "pitch": 55, "duration": 7, "velocity": 79}, {"time": 2052, "pitch": 43, "duration": 16, "velocity": 80}, {"time": 2052, "pitch": 58, "duration": 6, "velocity": 66}, {"time": 2052, "pitch": 62, "duration": 7, "velocity": 74}, {"time": 2058, "pitch": 50, "duration": 9, "velocity": 67}, {"time": 2064, "pitch": 58, "duration": 5, "velocity": 88}, {"time": 2064, "pitch": 62, "duration": 9, "velocity": 80}, {"time": 2070, "pitch": 55, "duration": 5, "velocity": 78}, {"time": 2076, "pitch": 44, "duration": 15, "velocity": 80}, {"time": 2076, "pitch": 56, "duration": 8, "velocity": 79}, {"time": 2076, "pitch": 60, "duration": 9, "velocity": 74}, {"time": 2082, "pitch": 51, "duration": 9, "velocity": 65}, {"time": 2088, "pitch": 56, "duration": 3, "velocity": 80}, {"time": 2088, "pitch": 60, "duration": 6, "velocity": 81}, {"time": 2094, "pitch": 56, "duration": 3, "velocity": 75}, {"time": 2100, "pitch": 48, "duration": 15, "velocity": 77}, {"time": 2100, "pitch": 55, "duration": 3, "velocity": 73}, {"time": 2100, "pitch": 60, "duration": 5, "velocity": 73}, {"time": 2106, "pitch": 55, "duration": 6, "velocity": 80}, {"time": 2112, "pitch": 60, "duration": 7, "velocity": 81}, {"time": 2112, "pitch": 63, "duration": 8, "velocity": 82}, {"time": 2118, "pitch": 55, "duration": 6, "velocity": 79}, {"time": 2124, "pitch": 43, "duration": 16, "velocity": 80}, {"time": 2130, "pitch": 50, "duration": 8, "velocity": 79}, {"time": 2136, "pitch": 55, "duration": 2, "velocity": 79}, {"time": 2136, "pitch": 58, "duration": 6, "velocity": 86}, {"time": 2136, "pitch": 62, "duration": 7, "velocity": 82}, {"time": 2142, "pitch": 55, "duration": 4, "velocity": 80}, {"time": 2148, "pitch": 46, "duration": 14, "velocity": 83}, {"time": 2148, "pitch": 58, "duration": 7, "velocity": 83}, {"time": 2148, "pitch": 62, "duration": 5, "velocity": 80}, {"time": 2154, "pitch": 53, "duration": 3, "velocity": 80}, {"time": 2160, "pitch": 53, "duration": 2, "velocity": 82}, {"time": 2160, "pitch": 58, "duration": 2, "velocity": 88}, {"time": 2160, "pitch": 62, "duration": 3, "velocity": 82}, {"time": 2172, "pitch": 39, "duration": 21, "velocity": 83}, {"time": 2172, "pitch": 58, "duration": 6, "velocity": 79}, {"time": 2172, "pitch": 63, "duration": 6, "velocity": 74}, {"time": 2178, "pitch": 46, "duration": 16, "velocity": 61}, {"time": 2178, "pitch": 55, "duration": 4, "velocity": 72}, {"time": 2184, "pitch": 58, "duration": 2, "velocity": 86}, {"time": 2184, "pitch": 63, "duration": 4, "velocity": 86}, {"time": 2190, "pitch": 55, "duration": 7, "velocity": 81}, {"time": 2196, "pitch": 39, "duration": 11, "velocity": 74}, {"time": 2196, "pitch": 58, "duration": 7, "velocity": 81}, {"time": 2196, "pitch": 63, "duration": 7, "velocity": 80}, {"time": 2202, "pitch": 55, "duration": 4, "velocity": 73}, {"time": 2208, "pitch": 58, "duration": 5, "velocity": 86}, {"time": 2208, "pitch": 63, "duration": 5, "velocity": 84}, {"time": 2214, "pitch": 55, "duration": 5, "velocity": 83}, {"time": 2220, "pitch": 48, "duration": 13, "velocity": 79}, {"time": 2220, "pitch": 63, "duration": 7, "velocity": 84}, {"time": 2226, "pitch": 55, "duration": 3, "velocity": 81}, {"time": 2232, "pitch": 55, "duration": 1, "velocity": 69}, {"time": 2232, "pitch": 60, "duration": 7, "velocity": 74}, {"time": 2232, "pitch": 63, "duration": 6, "velocity": 76}, {"time": 2238, "pitch": 55, "duration": 7, "velocity": 79}, {"time": 2244, "pitch": 48, "duration": 13, "velocity": 79}, {"time": 2244, "pitch": 60, "duration": 6, "velocity": 81}, {"time": 2244, "pitch": 63, "duration": 7, "velocity": 80}, {"time": 2250, "pitch": 55, "duration": 3, "velocity": 74}, {"time": 2256, "pitch": 55, "duration": 5, "velocity": 81}, {"time": 2256, "pitch": 60, "duration": 6, "velocity": 81}, {"time": 2256, "pitch": 63, "duration": 8, "velocity": 77}, {"time": 2262, "pitch": 46, "duration": 2, "velocity": 79}, {"time": 2268, "pitch": 44, "duration": 16, "velocity": 83}, {"time": 2268, "pitch": 56, "duration": 8, "velocity": 79}, {"time": 2268, "pitch": 63, "duration": 7, "velocity": 75}, {"time": 2274, "pitch": 51, "duration": 9, "velocity": 64}, {"time": 2280, "pitch": 60, "duration": 6, "velocity": 77}, {"time": 2280, "pitch": 63, "duration": 6, "velocity": 75}, {"time": 2286, "pitch": 56, "duration": 7, "velocity": 81}, {"time": 2292, "pitch": 44, "duration": 8, "velocity": 78}, {"time": 2292, "pitch": 60, "duration": 8, "velocity": 79}, {"time": 2292, "pitch": 63, "duration": 8, "velocity": 80}, {"time": 2298, "pitch": 51, "duration": 5, "velocity": 73}, {"time": 2304, "pitch": 60, "duration": 6, "velocity": 81}, {"time": 2304, "pitch": 63, "duration": 7, "velocity": 80}, {"time": 2310, "pitch": 56, "duration": 5, "velocity": 81}, {"time": 2316, "pitch": 39, "duration": 13, "velocity": 86}, {"time": 2322, "pitch": 51, "duration": 6, "velocity": 88}, {"time": 2328, "pitch": 55, "duration": 4, "velocity": 80}, {"time": 2328, "pitch": 58, "duration": 2, "velocity": 79}, {"time": 2328, "pitch": 63, "duration": 9, "velocity": 80}, {"time": 2334, "pitch": 51, "duration": 7, "velocity": 83}, {"time": 2334, "pitch": 55, "duration": 1, "velocity": 53}, {"time": 2340, "pitch": 55, "duration": 6, "velocity": 79}, {"time": 2340, "pitch": 58, "duration": 7, "velocity": 74}, {"time": 2340, "pitch": 63, "duration": 6, "velocity": 80}, {"time": 2346, "pitch": 46, "duration": 6, "velocity": 70}, {"time": 2346, "pitch": 51, "duration": 5, "velocity": 79}, {"time": 2352, "pitch": 55, "duration": 2, "velocity": 81}, {"time": 2352, "pitch": 58, "duration": 2, "velocity": 81}, {"time": 2352, "pitch": 63, "duration": 7, "velocity": 80}, {"time": 2358, "pitch": 51, "duration": 1, "velocity": 80}, {"time": 2364, "pitch": 39, "duration": 21, "velocity": 75}, {"time": 2364, "pitch": 58, "duration": 6, "velocity": 57}, {"time": 2364, "pitch": 63, "duration": 7, "velocity": 71}, {"time": 2370, "pitch": 46, "duration": 15, "velocity": 62}, {"time": 2370, "pitch": 55, "duration": 5, "velocity": 67}, {"time": 2376, "pitch": 58, "duration": 6, "velocity": 75}, {"time": 2382, "pitch": 55, "duration": 7, "velocity": 74}, {"time": 2388, "pitch": 39, "duration": 13, "velocity": 68}, {"time": 2388, "pitch": 58, "duration": 6, "velocity": 79}, {"time": 2388, "pitch": 63, "duration": 5, "velocity": 73}, {"time": 2394, "pitch": 55, "duration": 6, "velocity": 79}, {"time": 2400, "pitch": 58, "duration": 5, "velocity": 74}, {"time": 2400, "pitch": 62, "duration": 6, "velocity": 78}, {"time": 2406, "pitch": 55, "duration": 7, "velocity": 81}, {"time": 2412, "pitch": 48, "duration": 10, "velocity": 78}, {"time": 2412, "pitch": 60, "duration": 6, "velocity": 76}, {"time": 2412, "pitch": 63, "duration": 6, "velocity": 74}, {"time": 2418, "pitch": 55, "duration": 3, "velocity": 73}, {"time": 2424, "pitch": 60, "duration": 7, "velocity": 80}, {"time": 2424, "pitch": 63, "duration": 5, "velocity": 83}, {"time": 2430, "pitch": 55, "duration": 7, "velocity": 78}, {"time": 2436, "pitch": 48, "duration": 6, "velocity": 79}, {"time": 2436, "pitch": 60, "duration": 7, "velocity": 79}, {"time": 2442, "pitch": 55, "duration": 6, "velocity": 79}, {"time": 2448, "pitch": 46, "duration": 3, "velocity": 77}, {"time": 2448, "pitch": 60, "duration": 7, "velocity": 79}, {"time": 2448, "pitch": 63, "duration": 9, "velocity": 77}, {"time": 2454, "pitch": 55, "duration": 2, "velocity": 71}, {"time": 2460, "pitch": 44, "duration": 20, "velocity": 81}, {"time": 2460, "pitch": 60, "duration": 6, "velocity": 73}, {"time": 2460, "pitch": 63, "duration": 7, "velocity": 73}, {"time": 2466, "pitch": 51, "duration": 16, "velocity": 51}, {"time": 2466, "pitch": 56, "duration": 6, "velocity": 68}, {"time": 2472, "pitch": 60, "duration": 6, "velocity": 79}, {"time": 2478, "pitch": 56, "duration": 7, "velocity": 71}, {"time": 2484, "pitch": 44, "duration": 13, "velocity": 79}, {"time": 2484, "pitch": 60, "duration": 7, "velocity": 73}, {"time": 2484, "pitch": 63, "duration": 7, "velocity": 79}, {"time": 2490, "pitch": 51, "duration": 8, "velocity": 70}, {"time": 2496, "pitch": 56, "duration": 3, "velocity": 68}, {"time": 2496, "pitch": 60, "duration": 3, "velocity": 73}, {"time": 2496, "pitch": 63, "duration": 3, "velocity": 74}, {"time": 2502, "pitch": 44, "duration": 1, "velocity": 73}, {"time": 2508, "pitch": 48, "duration": 38, "velocity": 82}, {"time": 2508, "pitch": 60, "duration": 7, "velocity": 80}, {"time": 2508, "pitch": 63, "duration": 7, "velocity": 80}, {"time": 2514, "pitch": 55, "duration": 4, "velocity": 74}, {"time": 2520, "pitch": 62, "duration": 5, "velocity": 80}, {"time": 2526, "pitch": 55, "duration": 4, "velocity": 79}, {"time": 2532, "pitch": 55, "duration": 1, "velocity": 69}, {"time": 2532, "pitch": 60, "duration": 8, "velocity": 79}, {"time": 2538, "pitch": 55, "duration": 3, "velocity": 79}, {"time": 2544, "pitch": 60, "duration": 7, "velocity": 82}, {"time": 2544, "pitch": 63, "duration": 9, "velocity": 82}, {"time": 2550, "pitch": 55, "duration": 3, "velocity": 74}, {"time": 2556, "pitch": 44, "duration": 38, "velocity": 81}, {"time": 2556, "pitch": 63, "duration": 7, "velocity": 81}, {"time": 2562, "pitch": 51, "duration": 19, "velocity": 66}, {"time": 2568, "pitch": 56, "duration": 3, "velocity": 78}, {"time": 2568, "pitch": 60, "duration": 6, "velocity": 77}, {"time": 2574, "pitch": 56, "duration": 4, "velocity": 73}, {"time": 2580, "pitch": 60, "duration": 7, "velocity": 75}, {"time": 2580, "pitch": 63, "duration": 8, "velocity": 79}, {"time": 2586, "pitch": 51, "duration": 9, "velocity": 71}, {"time": 2592, "pitch": 56, "duration": 3, "velocity": 77}, {"time": 2592, "pitch": 60, "duration": 3, "velocity": 80}, {"time": 2592, "pitch": 63, "duration": 3, "velocity": 80}, {"time": 2598, "pitch": 44, "duration": 2, "velocity": 84}, {"time": 2604, "pitch": 43, "duration": 19, "velocity": 81}, {"time": 2604, "pitch": 55, "duration": 8, "velocity": 81}, {"time": 2604, "pitch": 60, "duration": 8, "velocity": 81}, {"time": 2610, "pitch": 50, "duration": 8, "velocity": 71}, {"time": 2616, "pitch": 55, "duration": 3, "velocity": 84}, {"time": 2616, "pitch": 60, "duration": 7, "velocity": 88}, {"time": 2622, "pitch": 55, "duration": 3, "velocity": 86}, {"time": 2628, "pitch": 43, "duration": 24, "velocity": 83}, {"time": 2628, "pitch": 55, "duration": 8, "velocity": 84}, {"time": 2628, "pitch": 59, "duration": 7, "velocity": 83}, {"time": 2634, "pitch": 50, "duration": 18, "velocity": 75}, {"time": 2640, "pitch": 55, "duration": 3, "velocity": 80}, {"time": 2640, "pitch": 59, "duration": 12, "velocity": 80}, {"time": 2640, "pitch": 62, "duration": 12, "velocity": 78}, {"time": 2646, "pitch": 55, "duration": 5, "velocity": 80}, {"time": 2652, "pitch": 48, "duration": 38, "velocity": 78}, {"time": 2652, "pitch": 60, "duration": 7, "velocity": 69}, {"time": 2652, "pitch": 63, "duration": 11, "velocity": 68}, {"time": 2658, "pitch": 55, "duration": 7, "velocity": 77}, {"time": 2664, "pitch": 60, "duration": 6, "velocity": 71}, {"time": 2676, "pitch": 60, "duration": 7, "velocity": 76}, {"time": 2676, "pitch": 63, "duration": 8, "velocity": 73}, {"time": 2688, "pitch": 55, "duration": 2, "velocity": 77}, {"time": 2688, "pitch": 60, "duration": 4, "velocity": 79}, {"time": 2700, "pitch": 46, "duration": 41, "velocity": 83}, {"time": 2700, "pitch": 58, "duration": 5, "velocity": 67}, {"time": 2700, "pitch": 62, "duration": 7, "velocity": 77}, {"time": 2706, "pitch": 53, "duration": 4, "velocity": 68}, {"time": 2712, "pitch": 58, "duration": 6, "velocity": 66}, {"time": 2718, "pitch": 53, "duration": 2, "velocity": 57}, {"time": 2724, "pitch": 58, "duration": 6, "velocity": 78}, {"time": 2724, "pitch": 62, "duration": 6, "velocity": 79}, {"time": 2730, "pitch": 53, "duration": 1, "velocity": 56}, {"time": 2736, "pitch": 53, "duration": 2, "velocity": 78}, {"time": 2736, "pitch": 58, "duration": 5, "velocity": 76}, {"time": 2742, "pitch": 53, "duration": 3, "velocity": 64}, {"time": 2748, "pitch": 44, "duration": 26, "velocity": 80}, {"time": 2748, "pitch": 56, "duration": 5, "velocity": 67}, {"time": 2748, "pitch": 60, "duration": 5, "velocity": 74}, {"time": 2754, "pitch": 51, "duration": 7, "velocity": 64}, {"time": 2760, "pitch": 56, "duration": 6, "velocity": 69}, {"time": 2766, "pitch": 51, "duration": 7, "velocity": 67}, {"time": 2772, "pitch": 56, "duration": 8, "velocity": 77}, {"time": 2772, "pitch": 60, "duration": 9, "velocity": 77}, {"time": 2778, "pitch": 51, "duration": 7, "velocity": 57}, {"time": 2784, "pitch": 56, "duration": 3, "velocity": 81}, {"time": 2796, "pitch": 39, "duration": 14, "velocity": 85}, {"time": 2796, "pitch": 58, "duration": 7, "velocity": 70}, {"time": 2796, "pitch": 63, "duration": 7, "velocity": 72}, {"time": 2802, "pitch": 46, "duration": 8, "velocity": 67}, {"time": 2808, "pitch": 58, "duration": 5, "velocity": 88}, {"time": 2808, "pitch": 63, "duration": 5, "velocity": 88}, {"time": 2814, "pitch": 55, "duration": 4, "velocity": 86}, {"time": 2820, "pitch": 43, "duration": 23, "velocity": 82}, {"time": 2820, "pitch": 55, "duration": 5, "velocity": 82}, {"time": 2820, "pitch": 59, "duration": 5, "velocity": 80}, {"time": 2820, "pitch": 62, "duration": 4, "velocity": 80}, {"time": 2826, "pitch": 50, "duration": 17, "velocity": 76}, {"time": 2832, "pitch": 55, "duration": 1, "velocity": 73}, {"time": 2832, "pitch": 59, "duration": 11, "velocity": 83}, {"time": 2832, "pitch": 62, "duration": 11, "velocity": 79}, {"time": 2832, "pitch": 67, "duration": 11, "velocity": 76}, {"time": 2838, "pitch": 55, "duration": 5, "velocity": 85}, {"time": 2844, "pitch": 39, "duration": 13, "velocity": 76}, {"time": 2844, "pitch": 58, "duration": 6, "velocity": 77}, {"time": 2844, "pitch": 63, "duration": 6, "velocity": 74}, {"time": 2850, "pitch": 46, "duration": 8, "velocity": 56}, {"time": 2856, "pitch": 55, "duration": 2, "velocity": 80}, {"time": 2856, "pitch": 58, "duration": 6, "velocity": 83}, {"time": 2862, "pitch": 55, "duration": 2, "velocity": 74}, {"time": 2868, "pitch": 46, "duration": 12, "velocity": 80}, {"time": 2868, "pitch": 58, "duration": 6, "velocity": 70}, {"time": 2868, "pitch": 62, "duration": 6, "velocity": 79}, {"time": 2874, "pitch": 53, "duration": 4, "velocity": 67}, {"time": 2880, "pitch": 58, "duration": 5, "velocity": 81}, {"time": 2880, "pitch": 62, "duration": 6, "velocity": 79}, {"time": 2886, "pitch": 53, "duration": 2, "velocity": 77}, {"time": 2892, "pitch": 48, "duration": 13, "velocity": 79}, {"time": 2892, "pitch": 63, "duration": 8, "velocity": 73}, {"time": 2898, "pitch": 55, "duration": 7, "velocity": 73}, {"time": 2904, "pitch": 60, "duration": 5, "velocity": 80}, {"time": 2904, "pitch": 63, "duration": 5, "velocity": 80}, {"time": 2910, "pitch": 55, "duration": 7, "velocity": 79}, {"time": 2916, "pitch": 43, "duration": 16, "velocity": 80}, {"time": 2916, "pitch": 58, "duration": 6, "velocity": 66}, {"time": 2916, "pitch": 62, "duration": 7, "velocity": 74}, {"time": 2922, "pitch": 50, "duration": 9, "velocity": 67}, {"time": 2928, "pitch": 58, "duration": 5, "velocity": 88}, {"time": 2928, "pitch": 62, "duration": 9, "velocity": 80}, {"time": 2934, "pitch": 55, "duration": 5, "velocity": 78}, {"time": 2940, "pitch": 44, "duration": 15, "velocity": 80}, {"time": 2940, "pitch": 56, "duration": 8, "velocity": 79}, {"time": 2940, "pitch": 60, "duration": 9, "velocity": 74}, {"time": 2946, "pitch": 51, "duration": 9, "velocity": 65}, {"time": 2952, "pitch": 56, "duration": 3, "velocity": 80}, {"time": 2952, "pitch": 60, "duration": 6, "velocity": 81}, {"time": 2958, "pitch": 56, "duration": 3, "velocity": 75}, {"time": 2964, "pitch": 48, "duration": 15, "velocity": 77}, {"time": 2964, "pitch": 55, "duration": 3, "velocity": 73}, {"time": 2964, "pitch": 60, "duration": 5, "velocity": 73}, {"time": 2970, "pitch": 55, "duration": 6, "velocity": 80}, {"time": 2976, "pitch": 60, "duration": 7, "velocity": 81}, {"time": 2976, "pitch": 63, "duration": 8, "velocity": 82}, {"time": 2982, "pitch": 55, "duration": 6, "velocity": 79}, {"time": 2988, "pitch": 43, "duration": 16, "velocity": 80}, {"time": 2994, "pitch": 50, "duration": 8, "velocity": 79}, {"time": 3000, "pitch": 55, "duration": 2, "velocity": 79}, {"time": 3000, "pitch": 58, "duration": 6, "velocity": 86}, {"time": 3000, "pitch": 62, "duration": 7, "velocity": 82}, {"time": 3006, "pitch": 55, "duration": 4, "velocity": 80}, {"time": 3012, "pitch": 46, "duration": 14, "velocity": 83}, {"time": 3012, "pitch": 58, "duration": 7, "velocity": 83}, {"time": 3012, "pitch": 62, "duration": 5, "velocity": 80}, {"time": 3018, "pitch": 53, "duration": 3, "velocity": 80}, {"time": 3024, "pitch": 53, "duration": 2, "velocity": 82}, {"time": 3024, "pitch": 58, "duration": 2, "velocity": 88}, {"time": 3024, "pitch": 62, "duration": 3, "velocity": 82}, {"time": 3036, "pitch": 39, "duration": 21, "velocity": 83}, {"time": 3036, "pitch": 58, "duration": 6, "velocity": 79}, {"time": 3036, "pitch": 63, "duration": 6, "velocity": 74}, {"time": 3042, "pitch": 46, "duration": 16, "velocity": 61}, {"time": 3042, "pitch": 55, "duration": 4, "velocity": 72}, {"time": 3048, "pitch": 58, "duration": 2, "velocity": 86}, {"time": 3048, "pitch": 63, "duration": 4, "velocity": 86}, {"time": 3054, "pitch": 55, "duration": 7, "velocity": 81}, {"time": 3060, "pitch": 39, "duration": 11, "velocity": 74}, {"time": 3060, "pitch": 58, "duration": 7, "velocity": 81}, {"time": 3060, "pitch": 63, "duration": 7, "velocity": 80}, {"time": 3066, "pitch": 55, "duration": 4, "velocity": 73}, {"time": 3072, "pitch": 58, "duration": 5, "velocity": 86}, {"time": 3072, "pitch": 63, "duration": 5, "velocity": 84}, {"time": 3078, "pitch": 55, "duration": 5, "velocity": 83}, {"time": 3084, "pitch": 48, "duration": 13, "velocity": 79}, {"time": 3084, "pitch": 63, "duration": 7, "velocity": 84}, {"time": 3090, "pitch": 55, "duration": 3, "velocity": 81}, {"time": 3096, "pitch": 55, "duration": 1, "velocity": 69}, {"time": 3096, "pitch": 60, "duration": 7, "velocity": 74}, {"time": 3096, "pitch": 63, "duration": 6, "velocity": 76}, {"time": 3102, "pitch": 55, "duration": 7, "velocity": 79}, {"time": 3108, "pitch": 48, "duration": 13, "velocity": 79}, {"time": 3108, "pitch": 60, "duration": 6, "velocity": 81}, {"time": 3108, "pitch": 63, "duration": 7, "velocity": 80}, {"time": 3114, "pitch": 55, "duration": 3, "velocity": 74}, {"time": 3120, "pitch": 55, "duration": 5, "velocity": 81}, {"time": 3120, "pitch": 60, "duration": 6, "velocity": 81}, {"time": 3120, "pitch": 63, "duration": 8, "velocity": 77}, {"time": 3126, "pitch": 46, "duration": 2, "velocity": 79}, {"time": 3132, "pitch": 44, "duration": 16, "velocity": 83}, {"time": 3132, "pitch": 56, "duration": 8, "velocity": 79}, {"time": 3132, "pitch": 63, "duration": 7, "velocity": 75}, {"time": 3138, "pitch": 51, "duration": 9, "velocity": 64}, {"time": 3144, "pitch": 60, "duration": 6, "velocity": 77}, {"time": 3144, "pitch": 63, "duration": 6, "velocity": 75}, {"time": 3150, "pitch": 56, "duration": 7, "velocity": 81}, {"time": 3156, "pitch": 44, "duration": 8, "velocity": 78}, {"time": 3156, "pitch": 60, "duration": 8, "velocity": 79}, {"time": 3156, "pitch": 63, "duration": 8, "velocity": 80}, {"time": 3162, "pitch": 51, "duration": 5, "velocity": 73}, {"time": 3168, "pitch": 60, "duration": 6, "velocity": 81}, {"time": 3168, "pitch": 63, "duration": 7, "velocity": 80}, {"time": 3174, "pitch": 56, "duration": 5, "velocity": 81}, {"time": 3180, "pitch": 39, "duration": 13, "velocity": 86}, {"time": 3186, "pitch": 51, "duration": 6, "velocity": 88}, {"time": 3192, "pitch": 55, "duration": 4, "velocity": 80}, {"time": 3192, "pitch": 58, "duration": 2, "velocity": 79}, {"time": 3192, "pitch": 63, "duration": 9, "velocity": 80}, {"time": 3198, "pitch": 51, "duration": 7, "velocity": 83}, {"time": 3198, "pitch": 55, "duration": 1, "velocity": 53}, {"time": 3204, "pitch": 55, "duration": 6, "velocity": 79}, {"time": 3204, "pitch": 58, "duration": 7, "velocity": 74}, {"time": 3204, "pitch": 63, "duration": 6, "velocity": 80}, {"time": 3210, "pitch": 46, "duration": 6, "velocity": 70}, {"time": 3210, "pitch": 51, "duration": 5, "velocity": 79}, {"time": 3216, "pitch": 55, "duration": 2, "velocity": 81}, {"time": 3216, "pitch": 58, "duration": 2, "velocity": 81}, {"time": 3216, "pitch": 63, "duration": 7, "velocity": 80}, {"time": 3222, "pitch": 51, "duration": 1, "velocity": 80}, {"time": 3228, "pitch": 39, "duration": 21, "velocity": 75}, {"time": 3228, "pitch": 58, "duration": 6, "velocity": 57}, {"time": 3228, "pitch": 63, "duration": 7, "velocity": 71}, {"time": 3234, "pitch": 46, "duration": 15, "velocity": 62}, {"time": 3234, "pitch": 55, "duration": 5, "velocity": 67}, {"time": 3240, "pitch": 58, "duration": 6, "velocity": 75}, {"time": 3246, "pitch": 55, "duration": 7, "velocity": 74}, {"time": 3252, "pitch": 39, "duration": 13, "velocity": 68}, {"time": 3252, "pitch": 58, "duration": 6, "velocity": 79}, {"time": 3252, "pitch": 63, "duration": 5, "velocity": 73}, {"time": 3258, "pitch": 55, "duration": 6, "velocity": 79}, {"time": 3264, "pitch": 58, "duration": 5, "velocity": 74}, {"time": 3264, "pitch": 62, "duration": 6, "velocity": 78}, {"time": 3270, "pitch": 55, "duration": 7, "velocity": 81}, {"time": 3276, "pitch": 48, "duration": 10, "velocity": 78}, {"time": 3276, "pitch": 60, "duration": 6, "velocity": 76}, {"time": 3276, "pitch": 63, "duration": 6, "velocity": 74}, {"time": 3282, "pitch": 55, "duration": 3, "velocity": 73}, {"time": 3288, "pitch": 60, "duration": 7, "velocity": 80}, {"time": 3288, "pitch": 63, "duration": 5, "velocity": 83}, {"time": 3294, "pitch": 55, "duration": 7, "velocity": 78}, {"time": 3300, "pitch": 48, "duration": 6, "velocity": 79}, {"time": 3300, "pitch": 60, "duration": 7, "velocity": 79}, {"time": 3306, "pitch": 55, "duration": 6, "velocity": 79}, {"time": 3312, "pitch": 46, "duration": 3, "velocity": 77}, {"time": 3312, "pitch": 60, "duration": 7, "velocity": 79}, {"time": 3312, "pitch": 63, "duration": 9, "velocity": 77}, {"time": 3318, "pitch": 55, "duration": 2, "velocity": 71}, {"time": 3324, "pitch": 44, "duration": 20, "velocity": 81}, {"time": 3324, "pitch": 60, "duration": 6, "velocity": 73}, {"time": 3324, "pitch": 63, "duration": 7, "velocity": 73}, {"time": 3330, "pitch": 51, "duration": 16, "velocity": 51}, {"time": 3330, "pitch": 56, "duration": 6, "velocity": 68}, {"time": 3336, "pitch": 60, "duration": 6, "velocity": 79}, {"time": 3342, "pitch": 56, "duration": 7, "velocity": 71}, {"time": 3348, "pitch": 44, "duration": 13, "velocity": 79}, {"time": 3348, "pitch": 60, "duration": 7, "velocity": 73}, {"time": 3348, "pitch": 63, "duration": 7, "velocity": 79}, {"time": 3354, "pitch": 51, "duration": 8, "velocity": 70}, {"time": 3360, "pitch": 56, "duration": 3, "velocity": 68}, {"time": 3360, "pitch": 60, "duration": 3, "velocity": 73}, {"time": 3360, "pitch": 63, "duration": 3, "velocity": 74}, {"time": 3366, "pitch": 44, "duration": 1, "velocity": 73}, {"time": 3372, "pitch": 48, "duration": 29, "velocity": 90}, {"time": 3372, "pitch": 60, "duration": 6, "velocity": 80}, {"time": 3372, "pitch": 63, "duration": 7, "velocity": 80}, {"time": 3378, "pitch": 55, "duration": 3, "velocity": 78}, {"time": 3384, "pitch": 60, "duration": 3, "velocity": 78}, {"time": 3384, "pitch": 63, "duration": 3, "velocity": 77}, {"time": 3390, "pitch": 55, "duration": 3, "velocity": 79}, {"time": 3396, "pitch": 60, "duration": 7, "velocity": 81}, {"time": 3396, "pitch": 63, "duration": 9, "velocity": 82}, {"time": 3402, "pitch": 55, "duration": 3, "velocity": 79}, {"time": 3408, "pitch": 55, "duration": 1, "velocity": 67}, {"time": 3408, "pitch": 60, "duration": 9, "velocity": 85}, {"time": 3408, "pitch": 63, "duration": 10, "velocity": 83}, {"time": 3414, "pitch": 50, "duration": 5, "velocity": 88}, {"time": 3420, "pitch": 39, "duration": 29, "velocity": 83}, {"time": 3420, "pitch": 63, "duration": 9, "velocity": 79}, {"time": 3426, "pitch": 55, "duration": 4, "velocity": 73}, {"time": 3432, "pitch": 46, "duration": 15, "velocity": 72}, {"time": 3432, "pitch": 55, "duration": 3, "velocity": 78}, {"time": 3432, "pitch": 58, "duration": 7, "velocity": 81}, {"time": 3432, "pitch": 63, "duration": 5, "velocity": 61}, {"time": 3438, "pitch": 55, "duration": 3, "velocity": 68}, {"time": 3444, "pitch": 58, "duration": 8, "velocity": 84}, {"time": 3444, "pitch": 63, "duration": 6, "velocity": 83}, {"time": 3450, "pitch": 55, "duration": 3, "velocity": 72}, {"time": 3456, "pitch": 58, "duration": 6, "velocity": 72}, {"time": 3456, "pitch": 62, "duration": 7, "velocity": 81}, {"time": 3462, "pitch": 55, "duration": 3, "velocity": 79}, {"time": 3468, "pitch": 48, "duration": 21, "velocity": 76}, {"time": 3468, "pitch": 60, "duration": 7, "velocity": 71}, {"time": 3468, "pitch": 63, "duration": 6, "velocity": 74}, {"time": 3474, "pitch": 55, "duration": 2, "velocity": 67}, {"time": 3480, "pitch": 55, "duration": 2, "velocity": 69}, {"time": 3480, "pitch": 60, "duration": 7, "velocity": 80}, {"time": 3486, "pitch": 55, "duration": 6, "velocity": 79}, {"time": 3492, "pitch": 48, "duration": 17, "velocity": 81}, {"time": 3492, "pitch": 60, "duration": 7, "velocity": 80}, {"time": 3492, "pitch": 63, "duration": 6, "velocity": 80}, {"time": 3498, "pitch": 55, "duration": 3, "velocity": 79}, {"time": 3504, "pitch": 55, "duration": 2, "velocity": 80}, {"time": 3504, "pitch": 62, "duration": 12, "velocity": 81}, {"time": 3510, "pitch": 55, "duration": 4, "velocity": 71}, {"time": 3516, "pitch": 44, "duration": 15, "velocity": 79}, {"time": 3516, "pitch": 60, "duration": 8, "velocity": 82}, {"time": 3522, "pitch": 51, "duration": 8, "velocity": 70}, {"time": 3528, "pitch": 56, "duration": 3, "velocity": 79}, {"time": 3528, "pitch": 60, "duration": 8, "velocity": 80}, {"time": 3534, "pitch": 51, "duration": 4, "velocity": 64}, {"time": 3540, "pitch": 44, "duration": 13, "velocity": 79}, {"time": 3540, "pitch": 56, "duration": 5, "velocity": 72}, {"time": 3540, "pitch": 63, "duration": 7, "velocity": 75}, {"time": 3546, "pitch": 51, "duration": 8, "velocity": 73}, {"time": 3552, "pitch": 56, "duration": 2, "velocity": 79}, {"time": 3552, "pitch": 60, "duration": 6, "velocity": 79}, {"time": 3558, "pitch": 56, "duration": 4, "velocity": 78}, {"time": 3564, "pitch": 39, "duration": 41, "velocity": 81}, {"time": 3564, "pitch": 63, "duration": 7, "velocity": 77}, {"time": 3570, "pitch": 46, "duration": 36, "velocity": 58}, {"time": 3570, "pitch": 55, "duration": 4, "velocity": 72}, {"time": 3576, "pitch": 58, "duration": 6, "velocity": 85}, {"time": 3576, "pitch": 63, "duration": 7, "velocity": 85}, {"time": 3582, "pitch": 55, "duration": 7, "velocity": 79}, {"time": 3588, "pitch": 58, "duration": 7, "velocity": 83}, {"time": 3588, "pitch": 63, "duration": 7, "velocity": 83}, {"time": 3594, "pitch": 55, "duration": 4, "velocity": 80}, {"time": 3600, "pitch": 55, "duration": 1, "velocity": 72}, {"time": 3600, "pitch": 58, "duration": 6, "velocity": 90}, {"time": 3606, "pitch": 55, "duration": 5, "velocity": 77}, {"time": 3612, "pitch": 39, "duration": 21, "velocity": 83}, {"time": 3612, "pitch": 58, "duration": 8, "velocity": 80}, {"time": 3612, "pitch": 63, "duration": 9, "velocity": 79}, {"time": 3618, "pitch": 46, "duration": 16, "velocity": 69}, {"time": 3618, "pitch": 55, "duration": 3, "velocity": 66}, {"time": 3624, "pitch": 58, "duration": 6, "velocity": 84}, {"time": 3630, "pitch": 55, "duration": 7, "velocity": 77}, {"time": 3636, "pitch": 39, "duration": 13, "velocity": 81}, {"time": 3636, "pitch": 58, "duration": 6, "velocity": 81}, {"time": 3636, "pitch": 63, "duration": 5, "velocity": 80}, {"time": 3642, "pitch": 55, "duration": 4, "velocity": 73}, {"time": 3648, "pitch": 58, "duration": 6, "velocity": 84}, {"time": 3648, "pitch": 62, "duration": 7, "velocity": 81}, {"time": 3654, "pitch": 55, "duration": 3, "velocity": 78}, {"time": 3660, "pitch": 48, "duration": 21, "velocity": 81}, {"time": 3660, "pitch": 60, "duration": 6, "velocity": 79}, {"time": 3660, "pitch": 63, "duration": 7, "velocity": 77}, {"time": 3666, "pitch": 55, "duration": 3, "velocity": 73}, {"time": 3672, "pitch": 60, "duration": 7, "velocity": 84}, {"time": 3678, "pitch": 55, "duration": 7, "velocity": 81}, {"time": 3684, "pitch": 48, "duration": 9, "velocity": 80}, {"time": 3684, "pitch": 60, "duration": 6, "velocity": 82}, {"time": 3684, "pitch": 63, "duration": 6, "velocity": 81}, {"time": 3690, "pitch": 55, "duration": 6, "velocity": 82}, {"time": 3696, "pitch": 46, "duration": 5, "velocity": 82}, {"time": 3696, "pitch": 58, "duration": 6, "velocity": 71}, {"time": 3696, "pitch": 62, "duration": 9, "velocity": 80}, {"time": 3702, "pitch": 55, "duration": 4, "velocity": 73}, {"time": 3708, "pitch": 44, "duration": 20, "velocity": 84}, {"time": 3708, "pitch": 56, "duration": 6, "velocity": 74}, {"time": 3708, "pitch": 60, "duration": 7, "velocity": 80}, {"time": 3714, "pitch": 51, "duration": 8, "velocity": 67}, {"time": 3720, "pitch": 56, "duration": 2, "velocity": 81}, {"time": 3720, "pitch": 60, "duration": 4, "velocity": 80}, {"time": 3726, "pitch": 51, "duration": 5, "velocity": 79}, {"time": 3732, "pitch": 44, "duration": 13, "velocity": 85}, {"time": 3732, "pitch": 56, "duration": 7, "velocity": 79}, {"time": 3732, "pitch": 63, "duration": 5, "velocity": 76}, {"time": 3738, "pitch": 51, "duration": 8, "velocity": 76}, {"time": 3744, "pitch": 56, "duration": 2, "velocity": 80}, {"time": 3744, "pitch": 60, "duration": 2, "velocity": 79}, {"time": 3744, "pitch": 63, "duration": 3, "velocity": 80}, {"time": 3750, "pitch": 44, "duration": 2, "velocity": 81}, {"time": 3756, "pitch": 48, "duration": 21, "velocity": 78}, {"time": 3756, "pitch": 60, "duration": 8, "velocity": 81}, {"time": 3756, "pitch": 63, "duration": 7, "velocity": 79}, {"time": 3762, "pitch": 55, "duration": 3, "velocity": 76}, {"time": 3768, "pitch": 60, "duration": 6, "velocity": 82}, {"time": 3768, "pitch": 63, "duration": 5, "velocity": 81}, {"time": 3774, "pitch": 55, "duration": 7, "velocity": 79}, {"time": 3780, "pitch": 48, "duration": 8, "velocity": 80}, {"time": 3780, "pitch": 60, "duration": 7, "velocity": 81}, {"time": 3780, "pitch": 63, "duration": 7, "velocity": 81}, {"time": 3786, "pitch": 55, "duration": 4, "velocity": 76}, {"time": 3792, "pitch": 46, "duration": 9, "velocity": 83}, {"time": 3792, "pitch": 58, "duration": 6, "velocity": 76}, {"time": 3804, "pitch": 44, "duration": 19, "velocity": 80}, {"time": 3804, "pitch": 56, "duration": 5, "velocity": 71}, {"time": 3804, "pitch": 60, "duration": 8, "velocity": 75}, {"time": 3810, "pitch": 51, "duration": 8, "velocity": 65}, {"time": 3816, "pitch": 56, "duration": 2, "velocity": 81}, {"time": 3816, "pitch": 60, "duration": 5, "velocity": 80}, {"time": 3822, "pitch": 51, "duration": 4, "velocity": 68}, {"time": 3828, "pitch": 44, "duration": 14, "velocity": 84}, {"time": 3828, "pitch": 56, "duration": 7, "velocity": 68}, {"time": 3828, "pitch": 60, "duration": 7, "velocity": 79}, {"time": 3834, "pitch": 51, "duration": 9, "velocity": 73}, {"time": 3840, "pitch": 56, "duration": 2, "velocity": 90}, {"time": 3840, "pitch": 60, "duration": 3, "velocity": 81}, {"time": 3846, "pitch": 44, "duration": 2, "velocity": 80}, {"time": 3852, "pitch": 43, "duration": 20, "velocity": 80}, {"time": 3852, "pitch": 55, "duration": 7, "velocity": 75}, {"time": 3852, "pitch": 60, "duration": 7, "velocity": 75}, {"time": 3858, "pitch": 50, "duration": 7, "velocity": 79}, {"time": 3864, "pitch": 55, "duration": 9, "velocity": 80}, {"time": 3864, "pitch": 60, "duration": 12, "velocity": 81}, {"time": 3870, "pitch": 50, "duration": 5, "velocity": 82}, {"time": 3876, "pitch": 43, "duration": 23, "velocity": 80}, {"time": 3876, "pitch": 55, "duration": 8, "velocity": 78}, {"time": 3876, "pitch": 59, "duration": 7, "velocity": 79}, {"time": 3882, "pitch": 50, "duration": 17, "velocity": 72}, {"time": 3888, "pitch": 59, "duration": 11, "velocity": 74}, {"time": 3888, "pitch": 62, "duration": 11, "velocity": 76}, {"time": 3894, "pitch": 55, "duration": 5, "velocity": 73}, {"time": 3900, "pitch": 48, "duration": 38, "velocity": 78}, {"time": 3900, "pitch": 60, "duration": 7, "velocity": 69}, {"time": 3900, "pitch": 63, "duration": 11, "velocity": 68}, {"time": 3906, "pitch": 55, "duration": 7, "velocity": 77}, {"time": 3912, "pitch": 60, "duration": 6, "velocity": 71}, {"time": 3924, "pitch": 60, "duration": 7, "velocity": 76}, {"time": 3924, "pitch": 63, "duration": 8, "velocity": 73}, {"time": 3936, "pitch": 55, "duration": 2, "velocity": 77}, {"time": 3936, "pitch": 60, "duration": 4, "velocity": 79}, {"time": 3948, "pitch": 46, "duration": 41, "velocity": 83}, {"time": 3948, "pitch": 58, "duration": 5, "velocity": 67}, {"time": 3948, "pitch": 62, "duration": 7, "velocity": 77}, {"time": 3954, "pitch": 53, "duration": 4, "velocity": 68}, {"time": 3960, "pitch": 58, "duration": 6, "velocity": 66}, {"time": 3966, "pitch": 53, "duration": 2, "velocity": 57}, {"time": 3972, "pitch": 58, "duration": 6, "velocity": 78}, {"time": 3972, "pitch": 62, "duration": 6, "velocity": 79}, {"time": 3978, "pitch": 53, "duration": 1, "velocity": 56}, {"time": 3984, "pitch": 53, "duration": 2, "velocity": 78}, {"time": 3984, "pitch": 58, "duration": 5, "velocity": 76}, {"time": 3990, "pitch": 53, "duration": 3, "velocity": 64}, {"time": 3996, "pitch": 44, "duration": 26, "velocity": 80}, {"time": 3996, "pitch": 56, "duration": 5, "velocity": 67}, {"time": 3996, "pitch": 60, "duration": 5, "velocity": 74}, {"time": 4002, "pitch": 51, "duration": 7, "velocity": 64}, {"time": 4008, "pitch": 56, "duration": 6, "velocity": 69}, {"time": 4014, "pitch": 51, "duration": 7, "velocity": 67}, {"time": 4020, "pitch": 56, "duration": 8, "velocity": 77}, {"time": 4020, "pitch": 60, "duration": 9, "velocity": 77}, {"time": 4026, "pitch": 51, "duration": 7, "velocity": 57}, {"time": 4032, "pitch": 56, "duration": 3, "velocity": 81}, {"time": 4044, "pitch": 43, "duration": 19, "velocity": 80}, {"time": 4044, "pitch": 55, "duration": 7, "velocity": 73}, {"time": 4044, "pitch": 67, "duration": 6, "velocity": 75}, {"time": 4050, "pitch": 50, "duration": 8, "velocity": 76}, {"time": 4056, "pitch": 55, "duration": 5, "velocity": 77}, {"time": 4056, "pitch": 62, "duration": 6, "velocity": 75}, {"time": 4062, "pitch": 50, "duration": 4, "velocity": 73}, {"time": 4068, "pitch": 43, "duration": 22, "velocity": 77}, {"time": 4068, "pitch": 55, "duration": 8, "velocity": 73}, {"time": 4068, "pitch": 59, "duration": 7, "velocity": 75}, {"time": 4074, "pitch": 50, "duration": 15, "velocity": 65}, {"time": 4080, "pitch": 59, "duration": 2, "velocity": 79}, {"time": 4080, "pitch": 62, "duration": 3, "velocity": 79}, {"time": 4086, "pitch": 55, "duration": 11, "velocity": 73}, {"time": 4092, "pitch": 43, "duration": 44, "velocity": 75}, {"time": 4092, "pitch": 67, "duration": 9, "velocity": 72}, {"time": 4098, "pitch": 50, "duration": 8, "velocity": 58}, {"time": 4104, "pitch": 55, "duration": 10, "velocity": 67}, {"time": 4104, "pitch": 62, "duration": 8, "velocity": 70}, {"time": 4110, "pitch": 50, "duration": 24, "velocity": 62}, {"time": 4116, "pitch": 59, "duration": 8, "velocity": 70}, {"time": 4122, "pitch": 55, "duration": 6, "velocity": 53}, {"time": 4128, "pitch": 67, "duration": 17, "velocity": 71}, {"time": 4134, "pitch": 55, "duration": 16, "velocity": 66}, {"time": 4140, "pitch": 43, "duration": 75, "velocity": 65}, {"time": 4140, "pitch": 62, "duration": 10, "velocity": 65}, {"time": 4146, "pitch": 50, "duration": 68, "velocity": 61}, {"time": 4152, "pitch": 59, "duration": 10, "velocity": 66}, {"time": 4158, "pitch": 55, "duration": 7, "velocity": 57}, {"time": 4164, "pitch": 67, "duration": 13, "velocity": 55}, {"time": 4170, "pitch": 55, "duration": 6, "velocity": 48}, {"time": 4176, "pitch": 62, "duration": 8, "velocity": 47}, {"time": 4182, "pitch": 55, "duration": 6, "velocity": 57}, {"time": 4188, "pitch": 67, "duration": 12, "velocity": 51}, {"time": 4194, "pitch": 55, "duration": 5, "velocity": 61}, {"time": 4200, "pitch": 62, "duration": 6, "velocity": 47}, {"time": 4206, "pitch": 55, "duration": 5, "velocity": 54}, {"time": 4212, "pitch": 67, "duration": 6, "velocity": 45}, {"time": 4218, "pitch": 55, "duration": 5, "velocity": 34}, {"time": 4224, "pitch": 62, "duration": 2, "velocity": 26}, {"time": 4230, "pitch": 55, "duration": 1, "velocity": 65}], "annotations": [{"time": 18, "annotation": {"number": 64, "value": 127}, "group": "control_change"}, {"time": 18, "annotation": {"number": 64, "value": 0}, "group": "control_change"}, {"time": 57, "annotation": {"number": 64, "value": 0}, "group": "control_change"}, {"time": 62, "annotation": {"number": 64, "value": 127}, "group": "control_change"}, {"time": 105, "annotation": {"number": 64, "value": 0}, "group": "control_change"}, {"time": 109, "annotation": {"number": 64, "value": 127}, "group": "control_change"}, {"time": 154, "annotation": {"number": 64, "value": 0}, "group": "control_change"}, {"time": 157, "annotation": {"number": 64, "value": 127}, "group": "control_change"}, {"time": 201, "annotation": {"number": 64, "value": 0}, "group": "control_change"}, {"time": 205, "annotation": {"number": 64, "value": 127}, "group": "control_change"}, {"time": 249, "annotation": {"number": 64, "value": 0}, "group": "control_change"}, {"time": 258, "annotation": {"number": 64, "value": 127}, "group": "control_change"}, {"time": 258, "annotation": {"number": 64, "value": 0}, "group": "control_change"}, {"time": 297, "annotation": {"number": 64, "value": 0}, "group": "control_change"}, {"time": 302, "annotation": {"number": 64, "value": 127}, "group": "control_change"}, {"time": 346, "annotation": {"number": 64, "value": 0}, "group": "control_change"}, {"time": 349, "annotation": {"number": 64, "value": 127}, "group": "control_change"}, {"time": 391, "annotation": {"number": 64, "value": 0}, "group": "control_change"}, {"time": 395, "annotation": {"number": 64, "value": 127}, "group": "control_change"}, {"time": 441, "annotation": {"number": 64, "value": 0}, "group": "control_change"}, {"time": 449, "annotation": {"number": 64, "value": 127}, "group": "control_change"}, {"time": 490, "annotation": {"number": 64, "value": 0}, "group": "control_change"}, {"time": 497, "annotation": {"number": 64, "value": 127}, "group": "control_change"}, {"time": 538, "annotation": {"number": 64, "value": 0}, "group": "control_change"}, {"time": 541, "annotation": {"number": 64, "value": 127}, "group": "control_change"}, {"time": 585, "annotation": {"number": 64, "value": 0}, "group": "control_change"}, {"time": 589, "annotation": {"number": 64, "value": 127}, "group": "control_change"}, {"time": 633, "annotation": {"number": 64, "value": 0}, "group": "control_change"}, {"time": 637, "annotation": {"number": 64, "value": 127}, "group": "control_change"}, {"time": 658, "annotation": {"number": 64, "value": 0}, "group": "control_change"}, {"time": 660, "annotation": {"number": 64, "value": 127}, "group": "control_change"}, {"time": 682, "annotation": {"number": 64, "value": 0}, "group": "control_change"}, {"time": 689, "annotation": {"number": 64, "value": 127}, "group": "control_change"}, {"time": 730, "annotation": {"number": 64, "value": 0}, "group": "control_change"}, {"time": 734, "annotation": {"number": 64, "value": 127}, "group": "control_change"}, {"time": 761, "annotation": {"number": 64, "value": 0}, "group": "control_change"}, {"time": 763, "annotation": {"number": 64, "value": 127}, "group": "control_change"}, {"time": 776, "annotation": {"number": 64, "value": 0}, "group": "control_change"}, {"time": 800, "annotation": {"number": 64, "value": 0}, "group": "control_change"}, {"time": 804, "annotation": {"number": 64, "value": 127}, "group": "control_change"}, {"time": 825, "annotation": {"number": 64, "value": 0}, "group": "control_change"}, {"time": 828, "annotation": {"number": 64, "value": 127}, "group": "control_change"}, {"time": 849, "annotation": {"number": 64, "value": 0}, "group": "control_change"}, {"time": 852, "annotation": {"number": 64, "value": 127}, "group": "control_change"}, {"time": 873, "annotation": {"number": 64, "value": 0}, "group": "control_change"}, {"time": 876, "annotation": {"number": 64, "value": 127}, "group": "control_change"}, {"time": 898, "annotation": {"number": 64, "value": 0}, "group": "control_change"}, {"time": 900, "annotation": {"number": 64, "value": 127}, "group": "control_change"}, {"time": 921, "annotation": {"number": 64, "value": 0}, "group": "control_change"}, {"time": 924, "annotation": {"number": 64, "value": 127}, "group": "control_change"}, {"time": 945, "annotation": {"number": 64, "value": 0}, "group": "control_change"}, {"time": 947, "annotation": {"number": 64, "value": 127}, "group": "control_change"}, {"time": 970, "annotation": {"number": 64, "value": 0}, "group": "control_change"}, {"time": 972, "annotation": {"number": 64, "value": 127}, "group": "control_change"}, {"time": 993, "annotation": {"number": 64, "value": 0}, "group": "control_change"}, {"time": 995, "annotation": {"number": 64, "value": 127}, "group": "control_change"}, {"time": 1016, "annotation": {"number": 64, "value": 0}, "group": "control_change"}, {"time": 1019, "annotation": {"number": 64, "value": 127}, "group": "control_change"}, {"time": 1041, "annotation": {"number": 64, "value": 0}, "group": "control_change"}, {"time": 1043, "annotation": {"number": 64, "value": 127}, "group": "control_change"}, {"time": 1065, "annotation": {"number": 64, "value": 0}, "group": "control_change"}, {"time": 1067, "annotation": {"number": 64, "value": 127}, "group": "control_change"}, {"time": 1089, "annotation": {"number": 64, "value": 0}, "group": "control_change"}, {"time": 1092, "annotation": {"number": 64, "value": 127}, "group": "control_change"}, {"time": 1113, "annotation": {"number": 64, "value": 0}, "group": "control_change"}, {"time": 1115, "annotation": {"number": 64, "value": 127}, "group": "control_change"}, {"time": 1161, "annotation": {"number": 64, "value": 0}, "group": "control_change"}, {"time": 1163, "annotation": {"number": 64, "value": 127}, "group": "control_change"}, {"time": 1165, "annotation": {"number": 64, "value": 127}, "group": "control_change"}, {"time": 1185, "annotation": {"number": 64, "value": 0}, "group": "control_change"}, {"time": 1187, "annotation": {"number": 64, "value": 127}, "group": "control_change"}, {"time": 1208, "annotation": {"number": 64, "value": 0}, "group": "control_change"}, {"time": 1211, "annotation": {"number": 64, "value": 127}, "group": "control_change"}, {"time": 1233, "annotation": {"number": 64, "value": 0}, "group": "control_change"}, {"time": 1235, "annotation": {"number": 64, "value": 127}, "group": "control_change"}, {"time": 1245, "annotation": {"number": 64, "value": 0}, "group": "control_change"}, {"time": 1246, "annotation": {"number": 64, "value": 127}, "group": "control_change"}, {"time": 1257, "annotation": {"number": 64, "value": 0}, "group": "control_change"}, {"time": 1260, "annotation": {"number": 64, "value": 127}, "group": "control_change"}, {"time": 1282, "annotation": {"number": 64, "value": 0}, "group": "control_change"}, {"time": 1284, "annotation": {"number": 64, "value": 127}, "group": "control_change"}, {"time": 1304, "annotation": {"number": 64, "value": 0}, "group": "control_change"}, {"time": 1307, "annotation": {"number": 64, "value": 127}, "group": "control_change"}, {"time": 1350, "annotation": {"number": 64, "value": 0}, "group": "control_change"}, {"time": 1362, "annotation": {"number": 64, "value": 127}, "group": "control_change"}, {"time": 1362, "annotation": {"number": 64, "value": 0}, "group": "control_change"}, {"time": 1401, "annotation": {"number": 64, "value": 0}, "group": "control_change"}, {"time": 1406, "annotation": {"number": 64, "value": 127}, "group": "control_change"}, {"time": 1449, "annotation": {"number": 64, "value": 0}, "group": "control_change"}, {"time": 1453, "annotation": {"number": 64, "value": 127}, "group": "control_change"}, {"time": 1498, "annotation": {"number": 64, "value": 0}, "group": "control_change"}, {"time": 1502, "annotation": {"number": 64, "value": 127}, "group": "control_change"}, {"time": 1521, "annotation": {"number": 64, "value": 0}, "group": "control_change"}, {"time": 1525, "annotation": {"number": 64, "value": 127}, "group": "control_change"}, {"time": 1545, "annotation": {"number": 64, "value": 0}, "group": "control_change"}, {"time": 1548, "annotation": {"number": 64, "value": 127}, "group": "control_change"}, {"time": 1589, "annotation": {"number": 64, "value": 0}, "group": "control_change"}, {"time": 1641, "annotation": {"number": 64, "value": 0}, "group": "control_change"}, {"time": 1649, "annotation": {"number": 64, "value": 127}, "group": "control_change"}, {"time": 1690, "annotation": {"number": 64, "value": 0}, "group": "control_change"}, {"time": 1697, "annotation": {"number": 64, "value": 127}, "group": "control_change"}, {"time": 1738, "annotation": {"number": 64, "value": 0}, "group": "control_change"}, {"time": 1741, "annotation": {"number": 64, "value": 127}, "group": "control_change"}, {"time": 1785, "annotation": {"number": 64, "value": 0}, "group": "control_change"}, {"time": 1789, "annotation": {"number": 64, "value": 127}, "group": "control_change"}, {"time": 1833, "annotation": {"number": 64, "value": 0}, "group": "control_change"}, {"time": 1837, "annotation": {"number": 64, "value": 127}, "group": "control_change"}, {"time": 1858, "annotation": {"number": 64, "value": 0}, "group": "control_change"}, {"time": 1860, "annotation": {"number": 64, "value": 127}, "group": "control_change"}, {"time": 1882, "annotation": {"number": 64, "value": 0}, "group": "control_change"}, {"time": 1889, "annotation": {"number": 64, "value": 127}, "group": "control_change"}, {"time": 1930, "annotation": {"number": 64, "value": 0}, "group": "control_change"}, {"time": 1934, "annotation": {"number": 64, "value": 127}, "group": "control_change"}, {"time": 1961, "annotation": {"number": 64, "value": 0}, "group": "control_change"}, {"time": 1963, "annotation": {"number": 64, "value": 127}, "group": "control_change"}, {"time": 1976, "annotation": {"number": 64, "value": 0}, "group": "control_change"}, {"time": 2000, "annotation": {"number": 64, "value": 0}, "group": "control_change"}, {"time": 2004, "annotation": {"number": 64, "value": 127}, "group": "control_change"}, {"time": 2025, "annotation": {"number": 64, "value": 0}, "group": "control_change"}, {"time": 2028, "annotation": {"number": 64, "value": 127}, "group": "control_change"}, {"time": 2049, "annotation": {"number": 64, "value": 0}, "group": "control_change"}, {"time": 2052, "annotation": {"number": 64, "value": 127}, "group": "control_change"}, {"time": 2073, "annotation": {"number": 64, "value": 0}, "group": "control_change"}, {"time": 2076, "annotation": {"number": 64, "value": 127}, "group": "control_change"}, {"time": 2098, "annotation": {"number": 64, "value": 0}, "group": "control_change"}, {"time": 2100, "annotation": {"number": 64, "value": 127}, "group": "control_change"}, {"time": 2121, "annotation": {"number": 64, "value": 0}, "group": "control_change"}, {"time": 2124, "annotation": {"number": 64, "value": 127}, "group": "control_change"}, {"time": 2145, "annotation": {"number": 64, "value": 0}, "group": "control_change"}, {"time": 2147, "annotation": {"number": 64, "value": 127}, "group": "control_change"}, {"time": 2170, "annotation": {"number": 64, "value": 0}, "group": "control_change"}, {"time": 2172, "annotation": {"number": 64, "value": 127}, "group": "control_change"}, {"time": 2193, "annotation": {"number": 64, "value": 0}, "group": "control_change"}, {"time": 2195, "annotation": {"number": 64, "value": 127}, "group": "control_change"}, {"time": 2216, "annotation": {"number": 64, "value": 0}, "group": "control_change"}, {"time": 2219, "annotation": {"number": 64, "value": 127}, "group": "control_change"}, {"time": 2241, "annotation": {"number": 64, "value": 0}, "group": "control_change"}, {"time": 2243, "annotation": {"number": 64, "value": 127}, "group": "control_change"}, {"time": 2265, "annotation": {"number": 64, "value": 0}, "group": "control_change"}, {"time": 2267, "annotation": {"number": 64, "value": 127}, "group": "control_change"}, {"time": 2289, "annotation": {"number": 64, "value": 0}, "group": "control_change"}, {"time": 2292, "annotation": {"number": 64, "value": 127}, "group": "control_change"}, {"time": 2313, "annotation": {"number": 64, "value": 0}, "group": "control_change"}, {"time": 2315, "annotation": {"number": 64, "value": 127}, "group": "control_change"}, {"time": 2361, "annotation": {"number": 64, "value": 0}, "group": "control_change"}, {"time": 2363, "annotation": {"number": 64, "value": 127}, "group": "control_change"}, {"time": 2365, "annotation": {"number": 64, "value": 127}, "group": "control_change"}, {"time": 2385, "annotation": {"number": 64, "value": 0}, "group": "control_change"}, {"time": 2387, "annotation": {"number": 64, "value": 127}, "group": "control_change"}, {"time": 2408, "annotation": {"number": 64, "value": 0}, "group": "control_change"}, {"time": 2411, "annotation": {"number": 64, "value": 127}, "group": "control_change"}, {"time": 2433, "annotation": {"number": 64, "value": 0}, "group": "control_change"}, {"time": 2435, "annotation": {"number": 64, "value": 127}, "group": "control_change"}, {"time": 2445, "annotation": {"number": 64, "value": 0}, "group": "control_change"}, {"time": 2446, "annotation": {"number": 64, "value": 127}, "group": "control_change"}, {"time": 2457, "annotation": {"number": 64, "value": 0}, "group": "control_change"}, {"time": 2460, "annotation": {"number": 64, "value": 127}, "group": "control_change"}, {"time": 2482, "annotation": {"number": 64, "value": 0}, "group": "control_change"}, {"time": 2484, "annotation": {"number": 64, "value": 127}, "group": "control_change"}, {"time": 2504, "annotation": {"number": 64, "value": 0}, "group": "control_change"}, {"time": 2507, "annotation": {"number": 64, "value": 127}, "group": "control_change"}, {"time": 2509, "annotation": {"number": 64, "value": 127}, "group": "control_change"}, {"time": 2509, "annotation": {"number": 64, "value": 0}, "group": "control_change"}, {"time": 2554, "annotation": {"number": 64, "value": 0}, "group": "control_change"}, {"time": 2559, "annotation": {"number": 64, "value": 127}, "group": "control_change"}, {"time": 2601, "annotation": {"number": 64, "value": 0}, "group": "control_change"}, {"time": 2604, "annotation": {"number": 64, "value": 127}, "group": "control_change"}, {"time": 2626, "annotation": {"number": 64, "value": 0}, "group": "control_change"}, {"time": 2628, "annotation": {"number": 64, "value": 127}, "group": "control_change"}, {"time": 2648, "annotation": {"number": 64, "value": 0}, "group": "control_change"}, {"time": 2658, "annotation": {"number": 64, "value": 127}, "group": "control_change"}, {"time": 2658, "annotation": {"number": 64, "value": 0}, "group": "control_change"}, {"time": 2697, "annotation": {"number": 64, "value": 0}, "group": "control_change"}, {"time": 2702, "annotation": {"number": 64, "value": 127}, "group": "control_change"}, {"time": 2745, "annotation": {"number": 64, "value": 0}, "group": "control_change"}, {"time": 2749, "annotation": {"number": 64, "value": 127}, "group": "control_change"}, {"time": 2794, "annotation": {"number": 64, "value": 0}, "group": "control_change"}, {"time": 2796, "annotation": {"number": 64, "value": 127}, "group": "control_change"}, {"time": 2796, "annotation": {"number": 64, "value": 0}, "group": "control_change"}, {"time": 2818, "annotation": {"number": 64, "value": 0}, "group": "control_change"}, {"time": 2821, "annotation": {"number": 64, "value": 127}, "group": "control_change"}, {"time": 2839, "annotation": {"number": 64, "value": 0}, "group": "control_change"}, {"time": 2864, "annotation": {"number": 64, "value": 0}, "group": "control_change"}, {"time": 2868, "annotation": {"number": 64, "value": 127}, "group": "control_change"}, {"time": 2889, "annotation": {"number": 64, "value": 0}, "group": "control_change"}, {"time": 2892, "annotation": {"number": 64, "value": 127}, "group": "control_change"}, {"time": 2913, "annotation": {"number": 64, "value": 0}, "group": "control_change"}, {"time": 2916, "annotation": {"number": 64, "value": 127}, "group": "control_change"}, {"time": 2937, "annotation": {"number": 64, "value": 0}, "group": "control_change"}, {"time": 2940, "annotation": {"number": 64, "value": 127}, "group": "control_change"}, {"time": 2962, "annotation": {"number": 64, "value": 0}, "group": "control_change"}, {"time": 2964, "annotation": {"number": 64, "value": 127}, "group": "control_change"}, {"time": 2985, "annotation": {"number": 64, "value": 0}, "group": "control_change"}, {"time": 2988, "annotation": {"number": 64, "value": 127}, "group": "control_change"}, {"time": 3009, "annotation": {"number": 64, "value": 0}, "group": "control_change"}, {"time": 3011, "annotation": {"number": 64, "value": 127}, "group": "control_change"}, {"time": 3034, "annotation": {"number": 64, "value": 0}, "group": "control_change"}, {"time": 3036, "annotation": {"number": 64, "value": 127}, "group": "control_change"}, {"time": 3057, "annotation": {"number": 64, "value": 0}, "group": "control_change"}, {"time": 3059, "annotation": {"number": 64, "value": 127}, "group": "control_change"}, {"time": 3080, "annotation": {"number": 64, "value": 0}, "group": "control_change"}, {"time": 3083, "annotation": {"number": 64, "value": 127}, "group": "control_change"}, {"time": 3105, "annotation": {"number": 64, "value": 0}, "group": "control_change"}, {"time": 3107, "annotation": {"number": 64, "value": 127}, "group": "control_change"}, {"time": 3129, "annotation": {"number": 64, "value": 0}, "group": "control_change"}, {"time": 3131, "annotation": {"number": 64, "value": 127}, "group": "control_change"}, {"time": 3153, "annotation": {"number": 64, "value": 0}, "group": "control_change"}, {"time": 3156, "annotation": {"number": 64, "value": 127}, "group": "control_change"}, {"time": 3177, "annotation": {"number": 64, "value": 0}, "group": "control_change"}, {"time": 3179, "annotation": {"number": 64, "value": 127}, "group": "control_change"}, {"time": 3225, "annotation": {"number": 64, "value": 0}, "group": "control_change"}, {"time": 3227, "annotation": {"number": 64, "value": 127}, "group": "control_change"}, {"time": 3229, "annotation": {"number": 64, "value": 127}, "group": "control_change"}, {"time": 3249, "annotation": {"number": 64, "value": 0}, "group": "control_change"}, {"time": 3251, "annotation": {"number": 64, "value": 127}, "group": "control_change"}, {"time": 3272, "annotation": {"number": 64, "value": 0}, "group": "control_change"}, {"time": 3275, "annotation": {"number": 64, "value": 127}, "group": "control_change"}, {"time": 3297, "annotation": {"number": 64, "value": 0}, "group": "control_change"}, {"time": 3299, "annotation": {"number": 64, "value": 127}, "group": "control_change"}, {"time": 3309, "annotation": {"number": 64, "value": 0}, "group": "control_change"}, {"time": 3310, "annotation": {"number": 64, "value": 127}, "group": "control_change"}, {"time": 3321, "annotation": {"number": 64, "value": 0}, "group": "control_change"}, {"time": 3324, "annotation": {"number": 64, "value": 127}, "group": "control_change"}, {"time": 3346, "annotation": {"number": 64, "value": 0}, "group": "control_change"}, {"time": 3348, "annotation": {"number": 64, "value": 127}, "group": "control_change"}, {"time": 3368, "annotation": {"number": 64, "value": 0}, "group": "control_change"}, {"time": 3371, "annotation": {"number": 64, "value": 127}, "group": "control_change"}, {"time": 3373, "annotation": {"number": 64, "value": 127}, "group": "control_change"}, {"time": 3373, "annotation": {"number": 64, "value": 0}, "group": "control_change"}, {"time": 3374, "annotation": {"number": 64, "value": 0}, "group": "control_change"}, {"time": 3374, "annotation": {"number": 64, "value": 127}, "group": "control_change"}, {"time": 3414, "annotation": {"number": 64, "value": 0}, "group": "control_change"}, {"time": 3421, "annotation": {"number": 64, "value": 127}, "group": "control_change"}, {"time": 3465, "annotation": {"number": 64, "value": 0}, "group": "control_change"}, {"time": 3468, "annotation": {"number": 64, "value": 127}, "group": "control_change"}, {"time": 3489, "annotation": {"number": 64, "value": 0}, "group": "control_change"}, {"time": 3491, "annotation": {"number": 64, "value": 127}, "group": "control_change"}, {"time": 3513, "annotation": {"number": 64, "value": 0}, "group": "control_change"}, {"time": 3516, "annotation": {"number": 64, "value": 127}, "group": "control_change"}, {"time": 3537, "annotation": {"number": 64, "value": 0}, "group": "control_change"}, {"time": 3539, "annotation": {"number": 64, "value": 127}, "group": "control_change"}, {"time": 3563, "annotation": {"number": 64, "value": 0}, "group": "control_change"}, {"time": 3565, "annotation": {"number": 64, "value": 127}, "group": "control_change"}, {"time": 3588, "annotation": {"number": 64, "value": 0}, "group": "control_change"}, {"time": 3589, "annotation": {"number": 64, "value": 127}, "group": "control_change"}, {"time": 3611, "annotation": {"number": 64, "value": 0}, "group": "control_change"}, {"time": 3617, "annotation": {"number": 64, "value": 127}, "group": "control_change"}, {"time": 3634, "annotation": {"number": 64, "value": 0}, "group": "control_change"}, {"time": 3637, "annotation": {"number": 64, "value": 127}, "group": "control_change"}, {"time": 3657, "annotation": {"number": 64, "value": 0}, "group": "control_change"}, {"time": 3660, "annotation": {"number": 64, "value": 127}, "group": "control_change"}, {"time": 3681, "annotation": {"number": 64, "value": 0}, "group": "control_change"}, {"time": 3684, "annotation": {"number": 64, "value": 127}, "group": "control_change"}, {"time": 3694, "annotation": {"number": 64, "value": 0}, "group": "control_change"}, {"time": 3696, "annotation": {"number": 64, "value": 127}, "group": "control_change"}, {"time": 3706, "annotation": {"number": 64, "value": 0}, "group": "control_change"}, {"time": 3710, "annotation": {"number": 64, "value": 127}, "group": "control_change"}, {"time": 3753, "annotation": {"number": 64, "value": 0}, "group": "control_change"}, {"time": 3757, "annotation": {"number": 64, "value": 127}, "group": "control_change"}, {"time": 3778, "annotation": {"number": 64, "value": 0}, "group": "control_change"}, {"time": 3780, "annotation": {"number": 64, "value": 127}, "group": "control_change"}, {"time": 3802, "annotation": {"number": 64, "value": 0}, "group": "control_change"}, {"time": 3806, "annotation": {"number": 64, "value": 127}, "group": "control_change"}, {"time": 3826, "annotation": {"number": 64, "value": 0}, "group": "control_change"}, {"time": 3828, "annotation": {"number": 64, "value": 127}, "group": "control_change"}, {"time": 3850, "annotation": {"number": 64, "value": 0}, "group": "control_change"}, {"time": 3853, "annotation": {"number": 64, "value": 127}, "group": "control_change"}, {"time": 3873, "annotation": {"number": 64, "value": 0}, "group": "control_change"}, {"time": 3877, "annotation": {"number": 64, "value": 127}, "group": "control_change"}, {"time": 3893, "annotation": {"number": 64, "value": 0}, "group": "control_change"}, {"time": 3906, "annotation": {"number": 64, "value": 127}, "group": "control_change"}, {"time": 3906, "annotation": {"number": 64, "value": 0}, "group": "control_change"}, {"time": 3945, "annotation": {"number": 64, "value": 0}, "group": "control_change"}, {"time": 3950, "annotation": {"number": 64, "value": 127}, "group": "control_change"}, {"time": 3993, "annotation": {"number": 64, "value": 0}, "group": "control_change"}, {"time": 3997, "annotation": {"number": 64, "value": 127}, "group": "control_change"}, {"time": 4042, "annotation": {"number": 64, "value": 0}, "group": "control_change"}, {"time": 4046, "annotation": {"number": 64, "value": 127}, "group": "control_change"}, {"time": 4065, "annotation": {"number": 64, "value": 0}, "group": "control_change"}, {"time": 4069, "annotation": {"number": 64, "value": 127}, "group": "control_change"}, {"time": 4089, "annotation": {"number": 64, "value": 0}, "group": "control_change"}, {"time": 4093, "annotation": {"number": 64, "value": 127}, "group": "control_change"}, {"time": 4093, "annotation": {"number": 64, "value": 0}, "group": "control_change"}, {"time": 4138, "annotation": {"number": 64, "value": 0}, "group": "control_change"}, {"time": 4143, "annotation": {"number": 64, "value": 127}, "group": "control_change"}, {"time": 4263, "annotation": {"number": 64, "value": 0}, "group": "control_change"}]}]}