{"metadata": {"schema_version": "0.2", "title": "None", "source_filename": "696.mid", "source_format": "midi"}, "resolution": 12, "tempos": [{"time": 0, "qpm": 71.00003550001774}, {"time": 1116, "qpm": 71.7500801209228}, {"time": 1140, "qpm": 71.00003550001774}, {"time": 1379, "qpm": 71.25002226563196}, {"time": 1512, "qpm": 71.00003550001774}], "time_signatures": [{"time": 0, "numerator": 1, "denominator": 4}], "tracks": [{"program": 4, "is_drum": false, "name": "MELODY", "notes": [{"time": 374, "pitch": 75, "duration": 4, "velocity": 85}, {"time": 380, "pitch": 75, "duration": 4, "velocity": 96}, {"time": 386, "pitch": 75, "duration": 2, "velocity": 87}, {"time": 389, "pitch": 76, "duration": 7, "velocity": 86}, {"time": 398, "pitch": 72, "duration": 3, "velocity": 84}, {"time": 404, "pitch": 70, "duration": 5, "velocity": 84}, {"time": 410, "pitch": 72, "duration": 3, "velocity": 74}, {"time": 413, "pitch": 70, "duration": 8, "velocity": 76}, {"time": 419, "pitch": 68, "duration": 16, "velocity": 73}, {"time": 440, "pitch": 73, "duration": 4, "velocity": 80}, {"time": 446, "pitch": 72, "duration": 4, "velocity": 82}, {"time": 452, "pitch": 70, "duration": 5, "velocity": 84}, {"time": 458, "pitch": 68, "duration": 5, "velocity": 78}, {"time": 464, "pitch": 77, "duration": 18, "velocity": 84}, {"time": 485, "pitch": 77, "duration": 2, "velocity": 80}, {"time": 488, "pitch": 75, "duration": 4, "velocity": 84}, {"time": 494, "pitch": 77, "duration": 2, "velocity": 80}, {"time": 497, "pitch": 75, "duration": 9, "velocity": 80}, {"time": 506, "pitch": 70, "duration": 6, "velocity": 73}, {"time": 512, "pitch": 72, "duration": 23, "velocity": 77}, {"time": 560, "pitch": 72, "duration": 4, "velocity": 82}, {"time": 566, "pitch": 72, "duration": 4, "velocity": 74}, {"time": 572, "pitch": 72, "duration": 4, "velocity": 75}, {"time": 578, "pitch": 73, "duration": 4, "velocity": 81}, {"time": 584, "pitch": 72, "duration": 4, "velocity": 80}, {"time": 590, "pitch": 73, "duration": 2, "velocity": 75}, {"time": 593, "pitch": 72, "duration": 9, "velocity": 81}, {"time": 608, "pitch": 72, "duration": 5, "velocity": 83}, {"time": 614, "pitch": 72, "duration": 4, "velocity": 82}, {"time": 620, "pitch": 72, "duration": 4, "velocity": 82}, {"time": 626, "pitch": 72, "duration": 4, "velocity": 85}, {"time": 632, "pitch": 77, "duration": 4, "velocity": 82}, {"time": 638, "pitch": 72, "duration": 2, "velocity": 84}, {"time": 641, "pitch": 70, "duration": 5, "velocity": 82}, {"time": 647, "pitch": 68, "duration": 9, "velocity": 80}, {"time": 662, "pitch": 72, "duration": 4, "velocity": 81}, {"time": 668, "pitch": 75, "duration": 4, "velocity": 89}, {"time": 674, "pitch": 68, "duration": 2, "velocity": 80}, {"time": 677, "pitch": 70, "duration": 6, "velocity": 76}, {"time": 686, "pitch": 72, "duration": 4, "velocity": 80}, {"time": 692, "pitch": 75, "duration": 8, "velocity": 82}, {"time": 704, "pitch": 68, "duration": 4, "velocity": 74}, {"time": 710, "pitch": 70, "duration": 38, "velocity": 80}, {"time": 758, "pitch": 75, "duration": 4, "velocity": 85}, {"time": 764, "pitch": 75, "duration": 4, "velocity": 96}, {"time": 770, "pitch": 75, "duration": 2, "velocity": 87}, {"time": 773, "pitch": 76, "duration": 7, "velocity": 86}, {"time": 782, "pitch": 72, "duration": 3, "velocity": 84}, {"time": 788, "pitch": 70, "duration": 5, "velocity": 84}, {"time": 794, "pitch": 72, "duration": 3, "velocity": 74}, {"time": 797, "pitch": 70, "duration": 6, "velocity": 76}, {"time": 803, "pitch": 68, "duration": 16, "velocity": 73}, {"time": 824, "pitch": 73, "duration": 4, "velocity": 80}, {"time": 830, "pitch": 72, "duration": 4, "velocity": 82}, {"time": 836, "pitch": 70, "duration": 5, "velocity": 84}, {"time": 842, "pitch": 68, "duration": 5, "velocity": 78}, {"time": 848, "pitch": 77, "duration": 18, "velocity": 84}, {"time": 869, "pitch": 77, "duration": 2, "velocity": 80}, {"time": 872, "pitch": 75, "duration": 4, "velocity": 84}, {"time": 878, "pitch": 77, "duration": 2, "velocity": 80}, {"time": 881, "pitch": 75, "duration": 9, "velocity": 80}, {"time": 890, "pitch": 70, "duration": 6, "velocity": 73}, {"time": 896, "pitch": 72, "duration": 36, "velocity": 77}, {"time": 938, "pitch": 72, "duration": 2, "velocity": 81}, {"time": 941, "pitch": 73, "duration": 2, "velocity": 82}, {"time": 944, "pitch": 75, "duration": 5, "velocity": 86}, {"time": 950, "pitch": 68, "duration": 2, "velocity": 76}, {"time": 953, "pitch": 68, "duration": 8, "velocity": 78}, {"time": 962, "pitch": 70, "duration": 2, "velocity": 74}, {"time": 965, "pitch": 68, "duration": 16, "velocity": 73}, {"time": 986, "pitch": 72, "duration": 2, "velocity": 85}, {"time": 989, "pitch": 73, "duration": 2, "velocity": 80}, {"time": 992, "pitch": 75, "duration": 5, "velocity": 85}, {"time": 998, "pitch": 72, "duration": 2, "velocity": 84}, {"time": 1001, "pitch": 75, "duration": 4, "velocity": 89}, {"time": 1007, "pitch": 79, "duration": 5, "velocity": 85}, {"time": 1013, "pitch": 75, "duration": 11, "velocity": 87}, {"time": 1028, "pitch": 77, "duration": 2, "velocity": 83}, {"time": 1031, "pitch": 75, "duration": 2, "velocity": 81}, {"time": 1034, "pitch": 73, "duration": 2, "velocity": 81}, {"time": 1037, "pitch": 72, "duration": 2, "velocity": 80}, {"time": 1040, "pitch": 73, "duration": 4, "velocity": 78}, {"time": 1046, "pitch": 75, "duration": 2, "velocity": 76}, {"time": 1049, "pitch": 77, "duration": 11, "velocity": 80}, {"time": 1064, "pitch": 77, "duration": 4, "velocity": 87}, {"time": 1070, "pitch": 79, "duration": 2, "velocity": 82}, {"time": 1073, "pitch": 80, "duration": 8, "velocity": 82}, {"time": 1082, "pitch": 77, "duration": 5, "velocity": 81}, {"time": 1088, "pitch": 75, "duration": 30, "velocity": 84}, {"time": 1136, "pitch": 80, "duration": 5, "velocity": 82}, {"time": 1142, "pitch": 79, "duration": 4, "velocity": 87}, {"time": 1148, "pitch": 80, "duration": 4, "velocity": 82}, {"time": 1154, "pitch": 75, "duration": 10, "velocity": 84}, {"time": 1166, "pitch": 72, "duration": 4, "velocity": 86}, {"time": 1172, "pitch": 72, "duration": 4, "velocity": 89}, {"time": 1178, "pitch": 82, "duration": 4, "velocity": 82}, {"time": 1184, "pitch": 82, "duration": 4, "velocity": 82}, {"time": 1190, "pitch": 80, "duration": 4, "velocity": 82}, {"time": 1196, "pitch": 82, "duration": 4, "velocity": 82}, {"time": 1202, "pitch": 75, "duration": 9, "velocity": 91}, {"time": 1214, "pitch": 72, "duration": 4, "velocity": 86}, {"time": 1220, "pitch": 72, "duration": 4, "velocity": 87}, {"time": 1226, "pitch": 84, "duration": 3, "velocity": 82}, {"time": 1232, "pitch": 84, "duration": 5, "velocity": 84}, {"time": 1238, "pitch": 82, "duration": 1, "velocity": 80}, {"time": 1241, "pitch": 82, "duration": 7, "velocity": 84}, {"time": 1250, "pitch": 80, "duration": 4, "velocity": 81}, {"time": 1256, "pitch": 80, "duration": 5, "velocity": 79}, {"time": 1262, "pitch": 82, "duration": 4, "velocity": 79}, {"time": 1268, "pitch": 80, "duration": 5, "velocity": 78}, {"time": 1274, "pitch": 84, "duration": 6, "velocity": 82}, {"time": 1280, "pitch": 82, "duration": 4, "velocity": 82}, {"time": 1286, "pitch": 82, "duration": 6, "velocity": 82}, {"time": 1292, "pitch": 82, "duration": 4, "velocity": 82}, {"time": 1298, "pitch": 80, "duration": 8, "velocity": 86}, {"time": 1316, "pitch": 80, "duration": 4, "velocity": 89}, {"time": 1322, "pitch": 82, "duration": 2, "velocity": 86}, {"time": 1325, "pitch": 80, "duration": 3, "velocity": 83}, {"time": 1328, "pitch": 84, "duration": 5, "velocity": 85}, {"time": 1334, "pitch": 77, "duration": 4, "velocity": 84}, {"time": 1340, "pitch": 77, "duration": 4, "velocity": 81}, {"time": 1346, "pitch": 77, "duration": 14, "velocity": 91}, {"time": 1364, "pitch": 80, "duration": 5, "velocity": 86}, {"time": 1370, "pitch": 82, "duration": 2, "velocity": 83}, {"time": 1373, "pitch": 80, "duration": 2, "velocity": 82}, {"time": 1376, "pitch": 84, "duration": 5, "velocity": 85}, {"time": 1382, "pitch": 75, "duration": 3, "velocity": 74}, {"time": 1388, "pitch": 75, "duration": 4, "velocity": 89}, {"time": 1394, "pitch": 77, "duration": 6, "velocity": 84}, {"time": 1400, "pitch": 75, "duration": 12, "velocity": 75}, {"time": 1418, "pitch": 77, "duration": 2, "velocity": 86}, {"time": 1421, "pitch": 79, "duration": 2, "velocity": 80}, {"time": 1424, "pitch": 80, "duration": 4, "velocity": 82}, {"time": 1430, "pitch": 80, "duration": 5, "velocity": 81}, {"time": 1436, "pitch": 80, "duration": 4, "velocity": 81}, {"time": 1442, "pitch": 79, "duration": 2, "velocity": 83}, {"time": 1445, "pitch": 80, "duration": 16, "velocity": 81}, {"time": 1466, "pitch": 77, "duration": 2, "velocity": 84}, {"time": 1469, "pitch": 79, "duration": 2, "velocity": 76}, {"time": 1472, "pitch": 80, "duration": 4, "velocity": 82}, {"time": 1478, "pitch": 80, "duration": 5, "velocity": 81}, {"time": 1484, "pitch": 80, "duration": 4, "velocity": 82}, {"time": 1490, "pitch": 79, "duration": 4, "velocity": 86}, {"time": 1496, "pitch": 80, "duration": 11, "velocity": 82}, {"time": 1508, "pitch": 82, "duration": 10, "velocity": 82}, {"time": 1520, "pitch": 80, "duration": 5, "velocity": 82}, {"time": 1526, "pitch": 79, "duration": 4, "velocity": 87}, {"time": 1532, "pitch": 80, "duration": 4, "velocity": 82}, {"time": 1538, "pitch": 75, "duration": 10, "velocity": 84}, {"time": 1550, "pitch": 72, "duration": 4, "velocity": 86}, {"time": 1556, "pitch": 72, "duration": 4, "velocity": 89}, {"time": 1562, "pitch": 82, "duration": 4, "velocity": 82}, {"time": 1568, "pitch": 82, "duration": 4, "velocity": 82}, {"time": 1574, "pitch": 80, "duration": 4, "velocity": 82}, {"time": 1580, "pitch": 82, "duration": 4, "velocity": 82}, {"time": 1586, "pitch": 75, "duration": 9, "velocity": 91}, {"time": 1598, "pitch": 72, "duration": 4, "velocity": 86}, {"time": 1604, "pitch": 72, "duration": 4, "velocity": 87}, {"time": 1610, "pitch": 84, "duration": 3, "velocity": 82}, {"time": 1616, "pitch": 84, "duration": 5, "velocity": 84}, {"time": 1622, "pitch": 82, "duration": 1, "velocity": 80}, {"time": 1625, "pitch": 82, "duration": 7, "velocity": 84}, {"time": 1634, "pitch": 80, "duration": 4, "velocity": 81}, {"time": 1640, "pitch": 80, "duration": 5, "velocity": 79}, {"time": 1646, "pitch": 82, "duration": 4, "velocity": 79}, {"time": 1652, "pitch": 80, "duration": 5, "velocity": 78}, {"time": 1658, "pitch": 84, "duration": 6, "velocity": 82}, {"time": 1664, "pitch": 82, "duration": 4, "velocity": 82}, {"time": 1670, "pitch": 82, "duration": 6, "velocity": 82}, {"time": 1676, "pitch": 82, "duration": 4, "velocity": 82}, {"time": 1682, "pitch": 80, "duration": 8, "velocity": 86}, {"time": 1700, "pitch": 80, "duration": 4, "velocity": 89}, {"time": 1706, "pitch": 82, "duration": 2, "velocity": 86}, {"time": 1709, "pitch": 80, "duration": 3, "velocity": 83}, {"time": 1712, "pitch": 84, "duration": 5, "velocity": 85}, {"time": 1718, "pitch": 77, "duration": 4, "velocity": 84}, {"time": 1724, "pitch": 77, "duration": 4, "velocity": 81}, {"time": 1730, "pitch": 77, "duration": 14, "velocity": 91}, {"time": 1748, "pitch": 80, "duration": 5, "velocity": 86}, {"time": 1754, "pitch": 82, "duration": 2, "velocity": 83}, {"time": 1757, "pitch": 80, "duration": 2, "velocity": 82}, {"time": 1760, "pitch": 84, "duration": 5, "velocity": 85}, {"time": 1766, "pitch": 75, "duration": 3, "velocity": 74}, {"time": 1772, "pitch": 75, "duration": 4, "velocity": 89}, {"time": 1778, "pitch": 77, "duration": 6, "velocity": 84}, {"time": 1784, "pitch": 75, "duration": 12, "velocity": 75}, {"time": 1802, "pitch": 72, "duration": 6, "velocity": 87}, {"time": 1808, "pitch": 73, "duration": 6, "velocity": 81}, {"time": 1814, "pitch": 72, "duration": 6, "velocity": 82}, {"time": 1820, "pitch": 73, "duration": 7, "velocity": 85}, {"time": 1826, "pitch": 75, "duration": 6, "velocity": 82}, {"time": 1832, "pitch": 77, "duration": 14, "velocity": 80}, {"time": 1850, "pitch": 72, "duration": 6, "velocity": 80}, {"time": 1856, "pitch": 73, "duration": 6, "velocity": 83}, {"time": 1862, "pitch": 72, "duration": 7, "velocity": 80}, {"time": 1868, "pitch": 73, "duration": 5, "velocity": 87}, {"time": 1874, "pitch": 75, "duration": 5, "velocity": 86}, {"time": 1880, "pitch": 77, "duration": 10, "velocity": 80}, {"time": 1892, "pitch": 79, "duration": 10, "velocity": 84}, {"time": 1904, "pitch": 80, "duration": 46, "velocity": 80}, {"time": 2102, "pitch": 75, "duration": 4, "velocity": 85}, {"time": 2108, "pitch": 75, "duration": 4, "velocity": 96}, {"time": 2114, "pitch": 75, "duration": 2, "velocity": 87}, {"time": 2117, "pitch": 76, "duration": 7, "velocity": 86}, {"time": 2126, "pitch": 72, "duration": 3, "velocity": 84}, {"time": 2132, "pitch": 70, "duration": 5, "velocity": 84}, {"time": 2138, "pitch": 72, "duration": 3, "velocity": 74}, {"time": 2141, "pitch": 70, "duration": 6, "velocity": 76}, {"time": 2147, "pitch": 68, "duration": 16, "velocity": 73}, {"time": 2168, "pitch": 73, "duration": 4, "velocity": 80}, {"time": 2174, "pitch": 72, "duration": 4, "velocity": 82}, {"time": 2180, "pitch": 70, "duration": 5, "velocity": 84}, {"time": 2186, "pitch": 68, "duration": 5, "velocity": 78}, {"time": 2192, "pitch": 77, "duration": 18, "velocity": 84}, {"time": 2213, "pitch": 77, "duration": 2, "velocity": 80}, {"time": 2216, "pitch": 75, "duration": 4, "velocity": 84}, {"time": 2222, "pitch": 77, "duration": 2, "velocity": 80}, {"time": 2225, "pitch": 75, "duration": 9, "velocity": 80}, {"time": 2234, "pitch": 70, "duration": 6, "velocity": 73}, {"time": 2240, "pitch": 72, "duration": 36, "velocity": 77}, {"time": 2282, "pitch": 72, "duration": 2, "velocity": 81}, {"time": 2285, "pitch": 73, "duration": 2, "velocity": 82}, {"time": 2288, "pitch": 75, "duration": 5, "velocity": 86}, {"time": 2294, "pitch": 68, "duration": 2, "velocity": 76}, {"time": 2297, "pitch": 68, "duration": 8, "velocity": 78}, {"time": 2306, "pitch": 70, "duration": 2, "velocity": 74}, {"time": 2309, "pitch": 68, "duration": 16, "velocity": 73}, {"time": 2330, "pitch": 72, "duration": 2, "velocity": 85}, {"time": 2333, "pitch": 73, "duration": 2, "velocity": 80}, {"time": 2336, "pitch": 75, "duration": 5, "velocity": 85}, {"time": 2342, "pitch": 72, "duration": 2, "velocity": 84}, {"time": 2345, "pitch": 75, "duration": 4, "velocity": 89}, {"time": 2351, "pitch": 79, "duration": 5, "velocity": 85}, {"time": 2357, "pitch": 75, "duration": 11, "velocity": 87}, {"time": 2372, "pitch": 77, "duration": 2, "velocity": 83}, {"time": 2375, "pitch": 75, "duration": 2, "velocity": 81}, {"time": 2378, "pitch": 73, "duration": 2, "velocity": 81}, {"time": 2381, "pitch": 72, "duration": 2, "velocity": 80}, {"time": 2384, "pitch": 73, "duration": 4, "velocity": 78}, {"time": 2390, "pitch": 75, "duration": 2, "velocity": 76}, {"time": 2393, "pitch": 77, "duration": 11, "velocity": 80}, {"time": 2408, "pitch": 77, "duration": 4, "velocity": 87}, {"time": 2414, "pitch": 79, "duration": 2, "velocity": 82}, {"time": 2417, "pitch": 80, "duration": 8, "velocity": 82}, {"time": 2426, "pitch": 77, "duration": 5, "velocity": 81}, {"time": 2432, "pitch": 75, "duration": 30, "velocity": 84}, {"time": 2480, "pitch": 80, "duration": 5, "velocity": 82}, {"time": 2486, "pitch": 79, "duration": 4, "velocity": 87}, {"time": 2492, "pitch": 80, "duration": 4, "velocity": 82}, {"time": 2498, "pitch": 75, "duration": 10, "velocity": 84}, {"time": 2510, "pitch": 72, "duration": 4, "velocity": 86}, {"time": 2516, "pitch": 72, "duration": 4, "velocity": 89}, {"time": 2522, "pitch": 82, "duration": 4, "velocity": 82}, {"time": 2528, "pitch": 82, "duration": 4, "velocity": 82}, {"time": 2534, "pitch": 80, "duration": 4, "velocity": 82}, {"time": 2540, "pitch": 82, "duration": 4, "velocity": 82}, {"time": 2546, "pitch": 75, "duration": 9, "velocity": 91}, {"time": 2558, "pitch": 72, "duration": 4, "velocity": 86}, {"time": 2564, "pitch": 72, "duration": 4, "velocity": 87}, {"time": 2570, "pitch": 84, "duration": 3, "velocity": 82}, {"time": 2576, "pitch": 84, "duration": 5, "velocity": 84}, {"time": 2582, "pitch": 82, "duration": 1, "velocity": 80}, {"time": 2585, "pitch": 82, "duration": 7, "velocity": 84}, {"time": 2594, "pitch": 80, "duration": 4, "velocity": 81}, {"time": 2600, "pitch": 80, "duration": 5, "velocity": 79}, {"time": 2606, "pitch": 82, "duration": 4, "velocity": 79}, {"time": 2612, "pitch": 80, "duration": 5, "velocity": 78}, {"time": 2618, "pitch": 84, "duration": 6, "velocity": 82}, {"time": 2624, "pitch": 82, "duration": 4, "velocity": 82}, {"time": 2630, "pitch": 82, "duration": 6, "velocity": 82}, {"time": 2636, "pitch": 82, "duration": 4, "velocity": 82}, {"time": 2642, "pitch": 80, "duration": 8, "velocity": 86}, {"time": 2660, "pitch": 80, "duration": 4, "velocity": 89}, {"time": 2666, "pitch": 82, "duration": 2, "velocity": 86}, {"time": 2669, "pitch": 80, "duration": 3, "velocity": 83}, {"time": 2672, "pitch": 84, "duration": 5, "velocity": 85}, {"time": 2678, "pitch": 77, "duration": 4, "velocity": 84}, {"time": 2684, "pitch": 77, "duration": 4, "velocity": 81}, {"time": 2690, "pitch": 77, "duration": 14, "velocity": 91}, {"time": 2708, "pitch": 80, "duration": 5, "velocity": 86}, {"time": 2714, "pitch": 82, "duration": 2, "velocity": 83}, {"time": 2717, "pitch": 80, "duration": 2, "velocity": 82}, {"time": 2720, "pitch": 84, "duration": 5, "velocity": 85}, {"time": 2726, "pitch": 75, "duration": 3, "velocity": 74}, {"time": 2732, "pitch": 75, "duration": 4, "velocity": 89}, {"time": 2738, "pitch": 77, "duration": 6, "velocity": 84}, {"time": 2744, "pitch": 75, "duration": 12, "velocity": 75}, {"time": 2762, "pitch": 77, "duration": 2, "velocity": 86}, {"time": 2765, "pitch": 79, "duration": 2, "velocity": 80}, {"time": 2768, "pitch": 80, "duration": 4, "velocity": 82}, {"time": 2774, "pitch": 80, "duration": 5, "velocity": 81}, {"time": 2780, "pitch": 80, "duration": 4, "velocity": 81}, {"time": 2786, "pitch": 79, "duration": 2, "velocity": 83}, {"time": 2789, "pitch": 80, "duration": 16, "velocity": 81}, {"time": 2810, "pitch": 77, "duration": 2, "velocity": 84}, {"time": 2813, "pitch": 79, "duration": 2, "velocity": 76}, {"time": 2816, "pitch": 80, "duration": 4, "velocity": 82}, {"time": 2822, "pitch": 80, "duration": 5, "velocity": 81}, {"time": 2828, "pitch": 80, "duration": 4, "velocity": 82}, {"time": 2834, "pitch": 79, "duration": 4, "velocity": 86}, {"time": 2840, "pitch": 80, "duration": 11, "velocity": 82}, {"time": 2852, "pitch": 82, "duration": 10, "velocity": 82}, {"time": 2864, "pitch": 80, "duration": 5, "velocity": 82}, {"time": 2870, "pitch": 79, "duration": 4, "velocity": 87}, {"time": 2876, "pitch": 80, "duration": 4, "velocity": 82}, {"time": 2882, "pitch": 75, "duration": 10, "velocity": 84}, {"time": 2894, "pitch": 72, "duration": 4, "velocity": 86}, {"time": 2900, "pitch": 72, "duration": 4, "velocity": 89}, {"time": 2906, "pitch": 82, "duration": 4, "velocity": 82}, {"time": 2912, "pitch": 82, "duration": 4, "velocity": 82}, {"time": 2918, "pitch": 80, "duration": 4, "velocity": 82}, {"time": 2924, "pitch": 82, "duration": 4, "velocity": 82}, {"time": 2930, "pitch": 75, "duration": 9, "velocity": 91}, {"time": 2942, "pitch": 72, "duration": 4, "velocity": 86}, {"time": 2948, "pitch": 72, "duration": 4, "velocity": 87}, {"time": 2954, "pitch": 84, "duration": 3, "velocity": 82}, {"time": 2960, "pitch": 84, "duration": 5, "velocity": 84}, {"time": 2966, "pitch": 82, "duration": 1, "velocity": 80}, {"time": 2969, "pitch": 82, "duration": 7, "velocity": 84}, {"time": 2978, "pitch": 80, "duration": 4, "velocity": 81}, {"time": 2984, "pitch": 80, "duration": 5, "velocity": 79}, {"time": 2990, "pitch": 82, "duration": 4, "velocity": 79}, {"time": 2996, "pitch": 80, "duration": 5, "velocity": 78}, {"time": 3002, "pitch": 84, "duration": 6, "velocity": 82}, {"time": 3008, "pitch": 82, "duration": 4, "velocity": 82}, {"time": 3014, "pitch": 82, "duration": 6, "velocity": 82}, {"time": 3020, "pitch": 82, "duration": 4, "velocity": 82}, {"time": 3026, "pitch": 80, "duration": 8, "velocity": 86}, {"time": 3044, "pitch": 80, "duration": 4, "velocity": 89}, {"time": 3050, "pitch": 82, "duration": 2, "velocity": 86}, {"time": 3053, "pitch": 80, "duration": 3, "velocity": 83}, {"time": 3056, "pitch": 84, "duration": 5, "velocity": 85}, {"time": 3062, "pitch": 77, "duration": 4, "velocity": 84}, {"time": 3068, "pitch": 77, "duration": 4, "velocity": 81}, {"time": 3074, "pitch": 77, "duration": 14, "velocity": 91}, {"time": 3092, "pitch": 80, "duration": 5, "velocity": 86}, {"time": 3098, "pitch": 82, "duration": 2, "velocity": 83}, {"time": 3101, "pitch": 80, "duration": 2, "velocity": 82}, {"time": 3104, "pitch": 84, "duration": 5, "velocity": 85}, {"time": 3110, "pitch": 75, "duration": 3, "velocity": 74}, {"time": 3116, "pitch": 75, "duration": 4, "velocity": 89}, {"time": 3122, "pitch": 77, "duration": 6, "velocity": 84}, {"time": 3128, "pitch": 75, "duration": 12, "velocity": 75}, {"time": 3146, "pitch": 72, "duration": 6, "velocity": 87}, {"time": 3152, "pitch": 73, "duration": 6, "velocity": 81}, {"time": 3158, "pitch": 72, "duration": 6, "velocity": 82}, {"time": 3164, "pitch": 73, "duration": 7, "velocity": 85}, {"time": 3170, "pitch": 75, "duration": 6, "velocity": 82}, {"time": 3176, "pitch": 77, "duration": 14, "velocity": 80}, {"time": 3194, "pitch": 72, "duration": 6, "velocity": 80}, {"time": 3200, "pitch": 73, "duration": 6, "velocity": 83}, {"time": 3206, "pitch": 72, "duration": 7, "velocity": 80}, {"time": 3212, "pitch": 73, "duration": 5, "velocity": 87}, {"time": 3218, "pitch": 75, "duration": 5, "velocity": 86}, {"time": 3224, "pitch": 77, "duration": 10, "velocity": 80}, {"time": 3236, "pitch": 79, "duration": 10, "velocity": 84}, {"time": 3248, "pitch": 80, "duration": 46, "velocity": 80}, {"time": 3344, "pitch": 80, "duration": 5, "velocity": 82}, {"time": 3350, "pitch": 79, "duration": 4, "velocity": 87}, {"time": 3356, "pitch": 80, "duration": 4, "velocity": 82}, {"time": 3362, "pitch": 75, "duration": 10, "velocity": 84}, {"time": 3374, "pitch": 72, "duration": 4, "velocity": 86}, {"time": 3380, "pitch": 72, "duration": 4, "velocity": 89}, {"time": 3386, "pitch": 82, "duration": 4, "velocity": 82}, {"time": 3392, "pitch": 82, "duration": 4, "velocity": 82}, {"time": 3398, "pitch": 80, "duration": 4, "velocity": 82}, {"time": 3404, "pitch": 82, "duration": 4, "velocity": 82}, {"time": 3410, "pitch": 75, "duration": 9, "velocity": 91}, {"time": 3422, "pitch": 72, "duration": 4, "velocity": 86}, {"time": 3428, "pitch": 72, "duration": 4, "velocity": 87}, {"time": 3434, "pitch": 84, "duration": 3, "velocity": 82}, {"time": 3440, "pitch": 84, "duration": 5, "velocity": 84}, {"time": 3446, "pitch": 82, "duration": 1, "velocity": 80}, {"time": 3449, "pitch": 82, "duration": 7, "velocity": 84}, {"time": 3458, "pitch": 80, "duration": 4, "velocity": 81}, {"time": 3464, "pitch": 80, "duration": 5, "velocity": 79}, {"time": 3470, "pitch": 82, "duration": 4, "velocity": 79}, {"time": 3476, "pitch": 80, "duration": 5, "velocity": 78}, {"time": 3482, "pitch": 84, "duration": 6, "velocity": 82}, {"time": 3488, "pitch": 82, "duration": 4, "velocity": 82}, {"time": 3494, "pitch": 82, "duration": 6, "velocity": 82}, {"time": 3500, "pitch": 82, "duration": 4, "velocity": 82}, {"time": 3506, "pitch": 80, "duration": 8, "velocity": 86}, {"time": 3524, "pitch": 80, "duration": 4, "velocity": 89}, {"time": 3530, "pitch": 82, "duration": 2, "velocity": 86}, {"time": 3533, "pitch": 80, "duration": 3, "velocity": 83}, {"time": 3536, "pitch": 84, "duration": 5, "velocity": 85}, {"time": 3542, "pitch": 77, "duration": 4, "velocity": 84}, {"time": 3548, "pitch": 77, "duration": 4, "velocity": 81}, {"time": 3554, "pitch": 77, "duration": 14, "velocity": 91}, {"time": 3572, "pitch": 80, "duration": 5, "velocity": 86}, {"time": 3578, "pitch": 82, "duration": 2, "velocity": 83}, {"time": 3581, "pitch": 80, "duration": 2, "velocity": 82}, {"time": 3584, "pitch": 84, "duration": 5, "velocity": 85}, {"time": 3590, "pitch": 75, "duration": 3, "velocity": 74}, {"time": 3596, "pitch": 75, "duration": 4, "velocity": 89}, {"time": 3602, "pitch": 77, "duration": 6, "velocity": 84}, {"time": 3608, "pitch": 75, "duration": 12, "velocity": 75}, {"time": 3626, "pitch": 72, "duration": 6, "velocity": 87}, {"time": 3632, "pitch": 73, "duration": 6, "velocity": 81}, {"time": 3638, "pitch": 72, "duration": 6, "velocity": 82}, {"time": 3644, "pitch": 73, "duration": 7, "velocity": 85}, {"time": 3650, "pitch": 75, "duration": 6, "velocity": 82}, {"time": 3656, "pitch": 77, "duration": 14, "velocity": 80}, {"time": 3674, "pitch": 72, "duration": 6, "velocity": 80}, {"time": 3680, "pitch": 73, "duration": 6, "velocity": 83}, {"time": 3686, "pitch": 72, "duration": 7, "velocity": 80}, {"time": 3692, "pitch": 73, "duration": 5, "velocity": 87}, {"time": 3698, "pitch": 75, "duration": 5, "velocity": 86}, {"time": 3704, "pitch": 77, "duration": 10, "velocity": 80}, {"time": 3716, "pitch": 79, "duration": 10, "velocity": 84}, {"time": 3728, "pitch": 80, "duration": 46, "velocity": 80}]}, {"program": 0, "is_drum": false, "name": "PIANO", "notes": [{"time": 3, "pitch": 44, "duration": 38, "velocity": 80}, {"time": 9, "pitch": 56, "duration": 5, "velocity": 68}, {"time": 13, "pitch": 63, "duration": 9, "velocity": 69}, {"time": 18, "pitch": 56, "duration": 11, "velocity": 66}, {"time": 24, "pitch": 63, "duration": 11, "velocity": 69}, {"time": 28, "pitch": 51, "duration": 13, "velocity": 65}, {"time": 34, "pitch": 56, "duration": 10, "velocity": 71}, {"time": 39, "pitch": 63, "duration": 7, "velocity": 50}, {"time": 45, "pitch": 48, "duration": 37, "velocity": 81}, {"time": 49, "pitch": 58, "duration": 9, "velocity": 68}, {"time": 54, "pitch": 63, "duration": 17, "velocity": 78}, {"time": 58, "pitch": 55, "duration": 9, "velocity": 57}, {"time": 63, "pitch": 67, "duration": 18, "velocity": 70}, {"time": 68, "pitch": 55, "duration": 11, "velocity": 63}, {"time": 73, "pitch": 58, "duration": 15, "velocity": 67}, {"time": 80, "pitch": 63, "duration": 24, "velocity": 51}, {"time": 89, "pitch": 41, "duration": 38, "velocity": 81}, {"time": 93, "pitch": 48, "duration": 18, "velocity": 69}, {"time": 99, "pitch": 56, "duration": 15, "velocity": 73}, {"time": 103, "pitch": 53, "duration": 7, "velocity": 74}, {"time": 109, "pitch": 60, "duration": 21, "velocity": 76}, {"time": 113, "pitch": 48, "duration": 14, "velocity": 58}, {"time": 119, "pitch": 56, "duration": 11, "velocity": 71}, {"time": 124, "pitch": 53, "duration": 5, "velocity": 69}, {"time": 130, "pitch": 48, "duration": 43, "velocity": 83}, {"time": 135, "pitch": 55, "duration": 8, "velocity": 66}, {"time": 140, "pitch": 63, "duration": 12, "velocity": 70}, {"time": 146, "pitch": 55, "duration": 26, "velocity": 61}, {"time": 151, "pitch": 67, "duration": 23, "velocity": 73}, {"time": 151, "pitch": 60, "duration": 22, "velocity": 72}, {"time": 176, "pitch": 37, "duration": 1, "velocity": 80}, {"time": 176, "pitch": 56, "duration": 4, "velocity": 75}, {"time": 176, "pitch": 65, "duration": 5, "velocity": 80}, {"time": 182, "pitch": 49, "duration": 11, "velocity": 74}, {"time": 185, "pitch": 56, "duration": 8, "velocity": 77}, {"time": 191, "pitch": 61, "duration": 2, "velocity": 80}, {"time": 200, "pitch": 48, "duration": 14, "velocity": 81}, {"time": 200, "pitch": 60, "duration": 8, "velocity": 68}, {"time": 200, "pitch": 63, "duration": 8, "velocity": 71}, {"time": 206, "pitch": 55, "duration": 7, "velocity": 65}, {"time": 212, "pitch": 60, "duration": 2, "velocity": 79}, {"time": 212, "pitch": 63, "duration": 1, "velocity": 76}, {"time": 212, "pitch": 67, "duration": 2, "velocity": 72}, {"time": 224, "pitch": 46, "duration": 22, "velocity": 80}, {"time": 224, "pitch": 58, "duration": 6, "velocity": 74}, {"time": 224, "pitch": 61, "duration": 7, "velocity": 75}, {"time": 230, "pitch": 53, "duration": 15, "velocity": 72}, {"time": 233, "pitch": 58, "duration": 6, "velocity": 85}, {"time": 239, "pitch": 61, "duration": 2, "velocity": 76}, {"time": 239, "pitch": 65, "duration": 3, "velocity": 80}, {"time": 248, "pitch": 46, "duration": 15, "velocity": 81}, {"time": 248, "pitch": 58, "duration": 6, "velocity": 58}, {"time": 248, "pitch": 61, "duration": 9, "velocity": 73}, {"time": 248, "pitch": 65, "duration": 10, "velocity": 68}, {"time": 260, "pitch": 58, "duration": 3, "velocity": 70}, {"time": 260, "pitch": 61, "duration": 3, "velocity": 76}, {"time": 260, "pitch": 65, "duration": 4, "velocity": 80}, {"time": 272, "pitch": 39, "duration": 1, "velocity": 82}, {"time": 272, "pitch": 58, "duration": 4, "velocity": 73}, {"time": 272, "pitch": 63, "duration": 5, "velocity": 79}, {"time": 278, "pitch": 51, "duration": 35, "velocity": 79}, {"time": 284, "pitch": 58, "duration": 15, "velocity": 82}, {"time": 287, "pitch": 63, "duration": 4, "velocity": 81}, {"time": 290, "pitch": 68, "duration": 4, "velocity": 71}, {"time": 296, "pitch": 63, "duration": 11, "velocity": 70}, {"time": 296, "pitch": 68, "duration": 13, "velocity": 76}, {"time": 302, "pitch": 58, "duration": 11, "velocity": 73}, {"time": 308, "pitch": 63, "duration": 6, "velocity": 60}, {"time": 308, "pitch": 70, "duration": 5, "velocity": 75}, {"time": 320, "pitch": 39, "duration": 42, "velocity": 81}, {"time": 320, "pitch": 63, "duration": 10, "velocity": 68}, {"time": 320, "pitch": 67, "duration": 10, "velocity": 64}, {"time": 320, "pitch": 75, "duration": 12, "velocity": 80}, {"time": 332, "pitch": 67, "duration": 8, "velocity": 60}, {"time": 332, "pitch": 70, "duration": 10, "velocity": 52}, {"time": 344, "pitch": 67, "duration": 22, "velocity": 66}, {"time": 344, "pitch": 70, "duration": 23, "velocity": 62}, {"time": 365, "pitch": 56, "duration": 12, "velocity": 61}, {"time": 366, "pitch": 60, "duration": 10, "velocity": 72}, {"time": 367, "pitch": 44, "duration": 14, "velocity": 80}, {"time": 367, "pitch": 63, "duration": 9, "velocity": 68}, {"time": 368, "pitch": 68, "duration": 6, "velocity": 69}, {"time": 373, "pitch": 51, "duration": 8, "velocity": 50}, {"time": 379, "pitch": 63, "duration": 2, "velocity": 74}, {"time": 379, "pitch": 60, "duration": 1, "velocity": 73}, {"time": 390, "pitch": 60, "duration": 8, "velocity": 68}, {"time": 391, "pitch": 64, "duration": 12, "velocity": 70}, {"time": 391, "pitch": 48, "duration": 15, "velocity": 73}, {"time": 391, "pitch": 67, "duration": 13, "velocity": 68}, {"time": 397, "pitch": 55, "duration": 7, "velocity": 67}, {"time": 403, "pitch": 60, "duration": 3, "velocity": 76}, {"time": 413, "pitch": 60, "duration": 7, "velocity": 41}, {"time": 415, "pitch": 65, "duration": 13, "velocity": 64}, {"time": 415, "pitch": 68, "duration": 14, "velocity": 72}, {"time": 415, "pitch": 41, "duration": 14, "velocity": 71}, {"time": 422, "pitch": 48, "duration": 6, "velocity": 56}, {"time": 427, "pitch": 60, "duration": 1, "velocity": 68}, {"time": 437, "pitch": 63, "duration": 6, "velocity": 50}, {"time": 438, "pitch": 66, "duration": 6, "velocity": 74}, {"time": 439, "pitch": 70, "duration": 7, "velocity": 73}, {"time": 439, "pitch": 39, "duration": 7, "velocity": 82}, {"time": 451, "pitch": 63, "duration": 11, "velocity": 58}, {"time": 451, "pitch": 44, "duration": 9, "velocity": 81}, {"time": 451, "pitch": 66, "duration": 12, "velocity": 67}, {"time": 463, "pitch": 56, "duration": 8, "velocity": 68}, {"time": 463, "pitch": 61, "duration": 9, "velocity": 73}, {"time": 463, "pitch": 37, "duration": 15, "velocity": 76}, {"time": 464, "pitch": 65, "duration": 11, "velocity": 81}, {"time": 469, "pitch": 44, "duration": 9, "velocity": 42}, {"time": 475, "pitch": 56, "duration": 2, "velocity": 65}, {"time": 475, "pitch": 61, "duration": 3, "velocity": 62}, {"time": 487, "pitch": 63, "duration": 8, "velocity": 68}, {"time": 488, "pitch": 67, "duration": 12, "velocity": 65}, {"time": 488, "pitch": 39, "duration": 12, "velocity": 79}, {"time": 494, "pitch": 46, "duration": 6, "velocity": 55}, {"time": 500, "pitch": 63, "duration": 2, "velocity": 68}, {"time": 508, "pitch": 63, "duration": 4, "velocity": 47}, {"time": 510, "pitch": 68, "duration": 4, "velocity": 52}, {"time": 511, "pitch": 44, "duration": 30, "velocity": 71}, {"time": 511, "pitch": 72, "duration": 5, "velocity": 60}, {"time": 518, "pitch": 51, "duration": 19, "velocity": 47}, {"time": 523, "pitch": 58, "duration": 7, "velocity": 68}, {"time": 529, "pitch": 60, "duration": 4, "velocity": 74}, {"time": 535, "pitch": 60, "duration": 10, "velocity": 76}, {"time": 535, "pitch": 56, "duration": 10, "velocity": 72}, {"time": 535, "pitch": 63, "duration": 8, "velocity": 77}, {"time": 547, "pitch": 56, "duration": 4, "velocity": 76}, {"time": 553, "pitch": 58, "duration": 1, "velocity": 82}, {"time": 560, "pitch": 48, "duration": 37, "velocity": 80}, {"time": 560, "pitch": 64, "duration": 20, "velocity": 72}, {"time": 560, "pitch": 60, "duration": 18, "velocity": 76}, {"time": 565, "pitch": 55, "duration": 9, "velocity": 57}, {"time": 571, "pitch": 67, "duration": 10, "velocity": 87}, {"time": 577, "pitch": 55, "duration": 18, "velocity": 62}, {"time": 581, "pitch": 60, "duration": 2, "velocity": 67}, {"time": 582, "pitch": 64, "duration": 1, "velocity": 68}, {"time": 582, "pitch": 67, "duration": 3, "velocity": 68}, {"time": 583, "pitch": 72, "duration": 4, "velocity": 80}, {"time": 595, "pitch": 70, "duration": 3, "velocity": 76}, {"time": 595, "pitch": 64, "duration": 2, "velocity": 79}, {"time": 595, "pitch": 60, "duration": 2, "velocity": 80}, {"time": 607, "pitch": 41, "duration": 18, "velocity": 76}, {"time": 607, "pitch": 68, "duration": 12, "velocity": 69}, {"time": 607, "pitch": 65, "duration": 7, "velocity": 73}, {"time": 613, "pitch": 48, "duration": 12, "velocity": 59}, {"time": 619, "pitch": 65, "duration": 8, "velocity": 87}, {"time": 631, "pitch": 68, "duration": 15, "velocity": 69}, {"time": 631, "pitch": 65, "duration": 12, "velocity": 79}, {"time": 631, "pitch": 53, "duration": 11, "velocity": 83}, {"time": 649, "pitch": 60, "duration": 2, "velocity": 78}, {"time": 655, "pitch": 58, "duration": 13, "velocity": 71}, {"time": 655, "pitch": 46, "duration": 38, "velocity": 80}, {"time": 655, "pitch": 61, "duration": 8, "velocity": 68}, {"time": 661, "pitch": 53, "duration": 31, "velocity": 62}, {"time": 667, "pitch": 65, "duration": 2, "velocity": 81}, {"time": 667, "pitch": 61, "duration": 2, "velocity": 74}, {"time": 679, "pitch": 70, "duration": 3, "velocity": 73}, {"time": 679, "pitch": 58, "duration": 3, "velocity": 78}, {"time": 691, "pitch": 58, "duration": 3, "velocity": 74}, {"time": 691, "pitch": 65, "duration": 3, "velocity": 81}, {"time": 691, "pitch": 61, "duration": 3, "velocity": 74}, {"time": 698, "pitch": 58, "duration": 3, "velocity": 80}, {"time": 703, "pitch": 58, "duration": 5, "velocity": 76}, {"time": 703, "pitch": 39, "duration": 2, "velocity": 80}, {"time": 703, "pitch": 63, "duration": 10, "velocity": 76}, {"time": 709, "pitch": 51, "duration": 16, "velocity": 76}, {"time": 716, "pitch": 58, "duration": 9, "velocity": 80}, {"time": 718, "pitch": 63, "duration": 3, "velocity": 79}, {"time": 722, "pitch": 68, "duration": 2, "velocity": 81}, {"time": 724, "pitch": 63, "duration": 2, "velocity": 71}, {"time": 727, "pitch": 51, "duration": 14, "velocity": 82}, {"time": 727, "pitch": 67, "duration": 7, "velocity": 72}, {"time": 727, "pitch": 63, "duration": 7, "velocity": 75}, {"time": 739, "pitch": 70, "duration": 7, "velocity": 80}, {"time": 739, "pitch": 67, "duration": 4, "velocity": 81}, {"time": 739, "pitch": 75, "duration": 4, "velocity": 81}, {"time": 752, "pitch": 44, "duration": 15, "velocity": 79}, {"time": 752, "pitch": 56, "duration": 6, "velocity": 73}, {"time": 752, "pitch": 63, "duration": 6, "velocity": 75}, {"time": 758, "pitch": 51, "duration": 9, "velocity": 63}, {"time": 764, "pitch": 56, "duration": 2, "velocity": 81}, {"time": 764, "pitch": 60, "duration": 5, "velocity": 81}, {"time": 770, "pitch": 56, "duration": 1, "velocity": 76}, {"time": 776, "pitch": 48, "duration": 16, "velocity": 79}, {"time": 776, "pitch": 60, "duration": 7, "velocity": 76}, {"time": 776, "pitch": 64, "duration": 7, "velocity": 73}, {"time": 782, "pitch": 55, "duration": 8, "velocity": 71}, {"time": 788, "pitch": 60, "duration": 4, "velocity": 76}, {"time": 788, "pitch": 64, "duration": 3, "velocity": 74}, {"time": 788, "pitch": 67, "duration": 4, "velocity": 73}, {"time": 800, "pitch": 41, "duration": 19, "velocity": 80}, {"time": 800, "pitch": 60, "duration": 6, "velocity": 71}, {"time": 800, "pitch": 65, "duration": 6, "velocity": 77}, {"time": 800, "pitch": 68, "duration": 7, "velocity": 74}, {"time": 806, "pitch": 48, "duration": 13, "velocity": 56}, {"time": 812, "pitch": 60, "duration": 3, "velocity": 81}, {"time": 812, "pitch": 65, "duration": 7, "velocity": 82}, {"time": 818, "pitch": 60, "duration": 3, "velocity": 80}, {"time": 824, "pitch": 51, "duration": 4, "velocity": 84}, {"time": 824, "pitch": 61, "duration": 6, "velocity": 81}, {"time": 824, "pitch": 66, "duration": 10, "velocity": 80}, {"time": 836, "pitch": 44, "duration": 7, "velocity": 81}, {"time": 836, "pitch": 63, "duration": 6, "velocity": 80}, {"time": 836, "pitch": 68, "duration": 8, "velocity": 77}, {"time": 842, "pitch": 51, "duration": 2, "velocity": 74}, {"time": 848, "pitch": 49, "duration": 18, "velocity": 83}, {"time": 848, "pitch": 61, "duration": 8, "velocity": 74}, {"time": 848, "pitch": 65, "duration": 7, "velocity": 80}, {"time": 854, "pitch": 56, "duration": 12, "velocity": 67}, {"time": 860, "pitch": 61, "duration": 2, "velocity": 82}, {"time": 860, "pitch": 65, "duration": 5, "velocity": 87}, {"time": 860, "pitch": 68, "duration": 6, "velocity": 80}, {"time": 866, "pitch": 61, "duration": 2, "velocity": 66}, {"time": 872, "pitch": 51, "duration": 12, "velocity": 84}, {"time": 872, "pitch": 63, "duration": 6, "velocity": 69}, {"time": 872, "pitch": 67, "duration": 6, "velocity": 75}, {"time": 878, "pitch": 58, "duration": 6, "velocity": 61}, {"time": 884, "pitch": 63, "duration": 7, "velocity": 82}, {"time": 890, "pitch": 67, "duration": 4, "velocity": 82}, {"time": 896, "pitch": 41, "duration": 13, "velocity": 80}, {"time": 896, "pitch": 60, "duration": 7, "velocity": 75}, {"time": 896, "pitch": 68, "duration": 11, "velocity": 73}, {"time": 902, "pitch": 48, "duration": 7, "velocity": 60}, {"time": 908, "pitch": 60, "duration": 1, "velocity": 82}, {"time": 908, "pitch": 65, "duration": 1, "velocity": 85}, {"time": 920, "pitch": 44, "duration": 9, "velocity": 80}, {"time": 920, "pitch": 51, "duration": 8, "velocity": 81}, {"time": 920, "pitch": 63, "duration": 4, "velocity": 74}, {"time": 920, "pitch": 66, "duration": 6, "velocity": 79}, {"time": 932, "pitch": 53, "duration": 7, "velocity": 83}, {"time": 932, "pitch": 60, "duration": 10, "velocity": 80}, {"time": 932, "pitch": 65, "duration": 10, "velocity": 82}, {"time": 944, "pitch": 46, "duration": 38, "velocity": 81}, {"time": 944, "pitch": 58, "duration": 10, "velocity": 72}, {"time": 944, "pitch": 61, "duration": 9, "velocity": 70}, {"time": 950, "pitch": 53, "duration": 19, "velocity": 69}, {"time": 956, "pitch": 58, "duration": 16, "velocity": 73}, {"time": 962, "pitch": 61, "duration": 11, "velocity": 78}, {"time": 974, "pitch": 53, "duration": 7, "velocity": 62}, {"time": 980, "pitch": 58, "duration": 4, "velocity": 84}, {"time": 980, "pitch": 61, "duration": 4, "velocity": 84}, {"time": 986, "pitch": 46, "duration": 2, "velocity": 83}, {"time": 992, "pitch": 48, "duration": 21, "velocity": 82}, {"time": 992, "pitch": 60, "duration": 8, "velocity": 80}, {"time": 992, "pitch": 63, "duration": 8, "velocity": 80}, {"time": 992, "pitch": 67, "duration": 9, "velocity": 73}, {"time": 998, "pitch": 55, "duration": 8, "velocity": 69}, {"time": 1004, "pitch": 60, "duration": 7, "velocity": 76}, {"time": 1010, "pitch": 55, "duration": 4, "velocity": 66}, {"time": 1016, "pitch": 53, "duration": 13, "velocity": 85}, {"time": 1016, "pitch": 60, "duration": 4, "velocity": 73}, {"time": 1016, "pitch": 65, "duration": 8, "velocity": 78}, {"time": 1022, "pitch": 60, "duration": 3, "velocity": 76}, {"time": 1028, "pitch": 60, "duration": 3, "velocity": 81}, {"time": 1028, "pitch": 65, "duration": 3, "velocity": 81}, {"time": 1028, "pitch": 68, "duration": 3, "velocity": 76}, {"time": 1040, "pitch": 37, "duration": 1, "velocity": 80}, {"time": 1040, "pitch": 56, "duration": 4, "velocity": 78}, {"time": 1040, "pitch": 61, "duration": 5, "velocity": 76}, {"time": 1046, "pitch": 49, "duration": 16, "velocity": 79}, {"time": 1052, "pitch": 56, "duration": 9, "velocity": 87}, {"time": 1055, "pitch": 61, "duration": 4, "velocity": 91}, {"time": 1058, "pitch": 65, "duration": 3, "velocity": 84}, {"time": 1064, "pitch": 38, "duration": 1, "velocity": 80}, {"time": 1064, "pitch": 62, "duration": 5, "velocity": 70}, {"time": 1064, "pitch": 65, "duration": 5, "velocity": 82}, {"time": 1064, "pitch": 68, "duration": 7, "velocity": 77}, {"time": 1070, "pitch": 50, "duration": 6, "velocity": 63}, {"time": 1073, "pitch": 56, "duration": 4, "velocity": 74}, {"time": 1076, "pitch": 62, "duration": 4, "velocity": 82}, {"time": 1079, "pitch": 65, "duration": 2, "velocity": 80}, {"time": 1088, "pitch": 51, "duration": 14, "velocity": 85}, {"time": 1088, "pitch": 63, "duration": 8, "velocity": 78}, {"time": 1088, "pitch": 67, "duration": 7, "velocity": 76}, {"time": 1094, "pitch": 58, "duration": 7, "velocity": 80}, {"time": 1100, "pitch": 67, "duration": 3, "velocity": 80}, {"time": 1100, "pitch": 70, "duration": 7, "velocity": 81}, {"time": 1106, "pitch": 63, "duration": 9, "velocity": 82}, {"time": 1112, "pitch": 39, "duration": 1, "velocity": 81}, {"time": 1112, "pitch": 67, "duration": 4, "velocity": 84}, {"time": 1112, "pitch": 70, "duration": 4, "velocity": 83}, {"time": 1112, "pitch": 75, "duration": 3, "velocity": 81}, {"time": 1115, "pitch": 51, "duration": 1, "velocity": 71}, {"time": 1118, "pitch": 51, "duration": 12, "velocity": 66}, {"time": 1118, "pitch": 58, "duration": 10, "velocity": 85}, {"time": 1121, "pitch": 63, "duration": 3, "velocity": 87}, {"time": 1124, "pitch": 65, "duration": 3, "velocity": 91}, {"time": 1127, "pitch": 67, "duration": 2, "velocity": 96}, {"time": 1130, "pitch": 68, "duration": 3, "velocity": 81}, {"time": 1133, "pitch": 70, "duration": 1, "velocity": 55}, {"time": 1136, "pitch": 44, "duration": 27, "velocity": 81}, {"time": 1136, "pitch": 56, "duration": 7, "velocity": 81}, {"time": 1136, "pitch": 63, "duration": 6, "velocity": 80}, {"time": 1142, "pitch": 51, "duration": 19, "velocity": 72}, {"time": 1148, "pitch": 56, "duration": 2, "velocity": 82}, {"time": 1148, "pitch": 60, "duration": 2, "velocity": 82}, {"time": 1154, "pitch": 56, "duration": 2, "velocity": 58}, {"time": 1160, "pitch": 56, "duration": 11, "velocity": 82}, {"time": 1160, "pitch": 63, "duration": 4, "velocity": 81}, {"time": 1166, "pitch": 44, "duration": 11, "velocity": 65}, {"time": 1166, "pitch": 51, "duration": 11, "velocity": 75}, {"time": 1172, "pitch": 60, "duration": 6, "velocity": 84}, {"time": 1172, "pitch": 63, "duration": 7, "velocity": 83}, {"time": 1172, "pitch": 68, "duration": 7, "velocity": 70}, {"time": 1178, "pitch": 56, "duration": 1, "velocity": 87}, {"time": 1184, "pitch": 48, "duration": 38, "velocity": 82}, {"time": 1184, "pitch": 60, "duration": 7, "velocity": 82}, {"time": 1184, "pitch": 63, "duration": 6, "velocity": 81}, {"time": 1184, "pitch": 67, "duration": 7, "velocity": 80}, {"time": 1190, "pitch": 55, "duration": 8, "velocity": 68}, {"time": 1196, "pitch": 60, "duration": 3, "velocity": 76}, {"time": 1196, "pitch": 63, "duration": 3, "velocity": 77}, {"time": 1202, "pitch": 55, "duration": 6, "velocity": 46}, {"time": 1208, "pitch": 60, "duration": 5, "velocity": 81}, {"time": 1208, "pitch": 63, "duration": 5, "velocity": 81}, {"time": 1208, "pitch": 67, "duration": 5, "velocity": 82}, {"time": 1214, "pitch": 55, "duration": 8, "velocity": 80}, {"time": 1220, "pitch": 60, "duration": 3, "velocity": 81}, {"time": 1220, "pitch": 63, "duration": 4, "velocity": 81}, {"time": 1226, "pitch": 48, "duration": 2, "velocity": 81}, {"time": 1226, "pitch": 60, "duration": 3, "velocity": 58}, {"time": 1232, "pitch": 41, "duration": 2, "velocity": 82}, {"time": 1232, "pitch": 65, "duration": 5, "velocity": 81}, {"time": 1232, "pitch": 68, "duration": 6, "velocity": 77}, {"time": 1238, "pitch": 53, "duration": 33, "velocity": 81}, {"time": 1244, "pitch": 65, "duration": 5, "velocity": 80}, {"time": 1244, "pitch": 68, "duration": 5, "velocity": 80}, {"time": 1244, "pitch": 72, "duration": 5, "velocity": 80}, {"time": 1250, "pitch": 60, "duration": 8, "velocity": 69}, {"time": 1256, "pitch": 65, "duration": 9, "velocity": 82}, {"time": 1256, "pitch": 68, "duration": 9, "velocity": 81}, {"time": 1262, "pitch": 60, "duration": 11, "velocity": 74}, {"time": 1268, "pitch": 65, "duration": 6, "velocity": 96}, {"time": 1268, "pitch": 68, "duration": 5, "velocity": 87}, {"time": 1274, "pitch": 53, "duration": 2, "velocity": 86}, {"time": 1280, "pitch": 51, "duration": 14, "velocity": 87}, {"time": 1280, "pitch": 61, "duration": 9, "velocity": 85}, {"time": 1280, "pitch": 66, "duration": 9, "velocity": 81}, {"time": 1286, "pitch": 58, "duration": 8, "velocity": 80}, {"time": 1292, "pitch": 61, "duration": 4, "velocity": 91}, {"time": 1292, "pitch": 66, "duration": 5, "velocity": 91}, {"time": 1298, "pitch": 51, "duration": 2, "velocity": 84}, {"time": 1304, "pitch": 44, "duration": 16, "velocity": 87}, {"time": 1304, "pitch": 63, "duration": 8, "velocity": 82}, {"time": 1304, "pitch": 66, "duration": 10, "velocity": 83}, {"time": 1310, "pitch": 51, "duration": 7, "velocity": 83}, {"time": 1316, "pitch": 63, "duration": 4, "velocity": 94}, {"time": 1316, "pitch": 68, "duration": 6, "velocity": 89}, {"time": 1319, "pitch": 51, "duration": 2, "velocity": 85}, {"time": 1322, "pitch": 63, "duration": 3, "velocity": 84}, {"time": 1325, "pitch": 68, "duration": 7, "velocity": 80}, {"time": 1328, "pitch": 49, "duration": 15, "velocity": 87}, {"time": 1334, "pitch": 56, "duration": 8, "velocity": 82}, {"time": 1340, "pitch": 61, "duration": 5, "velocity": 81}, {"time": 1340, "pitch": 65, "duration": 5, "velocity": 83}, {"time": 1340, "pitch": 68, "duration": 5, "velocity": 77}, {"time": 1346, "pitch": 56, "duration": 12, "velocity": 76}, {"time": 1352, "pitch": 65, "duration": 7, "velocity": 89}, {"time": 1352, "pitch": 68, "duration": 7, "velocity": 82}, {"time": 1352, "pitch": 73, "duration": 5, "velocity": 80}, {"time": 1358, "pitch": 49, "duration": 8, "velocity": 79}, {"time": 1364, "pitch": 61, "duration": 2, "velocity": 81}, {"time": 1364, "pitch": 65, "duration": 2, "velocity": 85}, {"time": 1364, "pitch": 68, "duration": 2, "velocity": 80}, {"time": 1376, "pitch": 48, "duration": 16, "velocity": 80}, {"time": 1376, "pitch": 63, "duration": 13, "velocity": 78}, {"time": 1376, "pitch": 67, "duration": 13, "velocity": 72}, {"time": 1382, "pitch": 55, "duration": 7, "velocity": 70}, {"time": 1388, "pitch": 60, "duration": 4, "velocity": 87}, {"time": 1391, "pitch": 55, "duration": 2, "velocity": 84}, {"time": 1394, "pitch": 63, "duration": 5, "velocity": 81}, {"time": 1397, "pitch": 60, "duration": 2, "velocity": 71}, {"time": 1400, "pitch": 41, "duration": 14, "velocity": 83}, {"time": 1400, "pitch": 60, "duration": 8, "velocity": 72}, {"time": 1400, "pitch": 65, "duration": 8, "velocity": 75}, {"time": 1406, "pitch": 48, "duration": 7, "velocity": 69}, {"time": 1412, "pitch": 60, "duration": 3, "velocity": 81}, {"time": 1412, "pitch": 65, "duration": 3, "velocity": 82}, {"time": 1412, "pitch": 68, "duration": 3, "velocity": 76}, {"time": 1424, "pitch": 46, "duration": 22, "velocity": 81}, {"time": 1424, "pitch": 56, "duration": 9, "velocity": 79}, {"time": 1424, "pitch": 61, "duration": 9, "velocity": 79}, {"time": 1430, "pitch": 53, "duration": 7, "velocity": 72}, {"time": 1436, "pitch": 56, "duration": 5, "velocity": 85}, {"time": 1436, "pitch": 61, "duration": 10, "velocity": 83}, {"time": 1442, "pitch": 53, "duration": 5, "velocity": 78}, {"time": 1448, "pitch": 46, "duration": 14, "velocity": 82}, {"time": 1448, "pitch": 61, "duration": 8, "velocity": 82}, {"time": 1448, "pitch": 65, "duration": 7, "velocity": 82}, {"time": 1454, "pitch": 53, "duration": 8, "velocity": 73}, {"time": 1460, "pitch": 61, "duration": 3, "velocity": 86}, {"time": 1460, "pitch": 65, "duration": 3, "velocity": 89}, {"time": 1466, "pitch": 46, "duration": 2, "velocity": 81}, {"time": 1472, "pitch": 39, "duration": 8, "velocity": 84}, {"time": 1472, "pitch": 63, "duration": 8, "velocity": 79}, {"time": 1472, "pitch": 67, "duration": 10, "velocity": 75}, {"time": 1478, "pitch": 51, "duration": 13, "velocity": 81}, {"time": 1481, "pitch": 58, "duration": 8, "velocity": 75}, {"time": 1484, "pitch": 63, "duration": 3, "velocity": 91}, {"time": 1487, "pitch": 70, "duration": 6, "velocity": 84}, {"time": 1490, "pitch": 58, "duration": 2, "velocity": 84}, {"time": 1493, "pitch": 63, "duration": 2, "velocity": 83}, {"time": 1496, "pitch": 51, "duration": 11, "velocity": 86}, {"time": 1496, "pitch": 63, "duration": 6, "velocity": 66}, {"time": 1496, "pitch": 67, "duration": 7, "velocity": 81}, {"time": 1496, "pitch": 70, "duration": 8, "velocity": 82}, {"time": 1496, "pitch": 75, "duration": 6, "velocity": 80}, {"time": 1502, "pitch": 58, "duration": 5, "velocity": 80}, {"time": 1505, "pitch": 63, "duration": 1, "velocity": 80}, {"time": 1508, "pitch": 51, "duration": 3, "velocity": 87}, {"time": 1508, "pitch": 58, "duration": 4, "velocity": 84}, {"time": 1508, "pitch": 63, "duration": 5, "velocity": 86}, {"time": 1508, "pitch": 67, "duration": 4, "velocity": 89}, {"time": 1508, "pitch": 70, "duration": 5, "velocity": 86}, {"time": 1508, "pitch": 75, "duration": 4, "velocity": 86}, {"time": 1514, "pitch": 51, "duration": 1, "velocity": 82}, {"time": 1520, "pitch": 44, "duration": 14, "velocity": 82}, {"time": 1520, "pitch": 56, "duration": 7, "velocity": 79}, {"time": 1520, "pitch": 60, "duration": 7, "velocity": 75}, {"time": 1526, "pitch": 51, "duration": 7, "velocity": 74}, {"time": 1532, "pitch": 56, "duration": 2, "velocity": 81}, {"time": 1532, "pitch": 60, "duration": 2, "velocity": 81}, {"time": 1532, "pitch": 63, "duration": 2, "velocity": 80}, {"time": 1538, "pitch": 51, "duration": 8, "velocity": 69}, {"time": 1544, "pitch": 60, "duration": 7, "velocity": 82}, {"time": 1544, "pitch": 63, "duration": 9, "velocity": 81}, {"time": 1550, "pitch": 44, "duration": 8, "velocity": 78}, {"time": 1553, "pitch": 56, "duration": 2, "velocity": 78}, {"time": 1556, "pitch": 60, "duration": 3, "velocity": 89}, {"time": 1556, "pitch": 63, "duration": 3, "velocity": 85}, {"time": 1556, "pitch": 68, "duration": 3, "velocity": 81}, {"time": 1559, "pitch": 51, "duration": 1, "velocity": 86}, {"time": 1562, "pitch": 44, "duration": 2, "velocity": 82}, {"time": 1568, "pitch": 48, "duration": 20, "velocity": 80}, {"time": 1568, "pitch": 60, "duration": 7, "velocity": 82}, {"time": 1568, "pitch": 63, "duration": 7, "velocity": 80}, {"time": 1574, "pitch": 55, "duration": 8, "velocity": 75}, {"time": 1580, "pitch": 60, "duration": 5, "velocity": 81}, {"time": 1580, "pitch": 63, "duration": 6, "velocity": 82}, {"time": 1580, "pitch": 67, "duration": 6, "velocity": 80}, {"time": 1586, "pitch": 55, "duration": 8, "velocity": 63}, {"time": 1592, "pitch": 60, "duration": 6, "velocity": 81}, {"time": 1592, "pitch": 63, "duration": 7, "velocity": 81}, {"time": 1592, "pitch": 67, "duration": 10, "velocity": 80}, {"time": 1601, "pitch": 60, "duration": 2, "velocity": 80}, {"time": 1604, "pitch": 60, "duration": 4, "velocity": 84}, {"time": 1604, "pitch": 63, "duration": 4, "velocity": 86}, {"time": 1604, "pitch": 67, "duration": 7, "velocity": 83}, {"time": 1607, "pitch": 55, "duration": 2, "velocity": 89}, {"time": 1610, "pitch": 60, "duration": 4, "velocity": 87}, {"time": 1616, "pitch": 41, "duration": 20, "velocity": 84}, {"time": 1616, "pitch": 60, "duration": 7, "velocity": 81}, {"time": 1616, "pitch": 65, "duration": 6, "velocity": 80}, {"time": 1622, "pitch": 48, "duration": 12, "velocity": 64}, {"time": 1628, "pitch": 60, "duration": 3, "velocity": 81}, {"time": 1628, "pitch": 65, "duration": 5, "velocity": 85}, {"time": 1628, "pitch": 68, "duration": 4, "velocity": 80}, {"time": 1634, "pitch": 60, "duration": 4, "velocity": 75}, {"time": 1640, "pitch": 41, "duration": 15, "velocity": 86}, {"time": 1640, "pitch": 60, "duration": 8, "velocity": 82}, {"time": 1640, "pitch": 65, "duration": 8, "velocity": 83}, {"time": 1640, "pitch": 68, "duration": 7, "velocity": 79}, {"time": 1646, "pitch": 48, "duration": 9, "velocity": 80}, {"time": 1652, "pitch": 60, "duration": 3, "velocity": 85}, {"time": 1652, "pitch": 65, "duration": 3, "velocity": 86}, {"time": 1652, "pitch": 68, "duration": 4, "velocity": 81}, {"time": 1658, "pitch": 41, "duration": 4, "velocity": 82}, {"time": 1664, "pitch": 51, "duration": 15, "velocity": 87}, {"time": 1664, "pitch": 61, "duration": 9, "velocity": 84}, {"time": 1664, "pitch": 66, "duration": 9, "velocity": 81}, {"time": 1670, "pitch": 58, "duration": 7, "velocity": 80}, {"time": 1676, "pitch": 61, "duration": 3, "velocity": 91}, {"time": 1676, "pitch": 66, "duration": 4, "velocity": 96}, {"time": 1679, "pitch": 58, "duration": 2, "velocity": 85}, {"time": 1682, "pitch": 51, "duration": 1, "velocity": 86}, {"time": 1688, "pitch": 44, "duration": 16, "velocity": 84}, {"time": 1688, "pitch": 63, "duration": 7, "velocity": 82}, {"time": 1688, "pitch": 68, "duration": 8, "velocity": 82}, {"time": 1694, "pitch": 51, "duration": 7, "velocity": 85}, {"time": 1697, "pitch": 63, "duration": 1, "velocity": 82}, {"time": 1700, "pitch": 63, "duration": 3, "velocity": 89}, {"time": 1700, "pitch": 68, "duration": 3, "velocity": 85}, {"time": 1703, "pitch": 51, "duration": 2, "velocity": 87}, {"time": 1706, "pitch": 63, "duration": 2, "velocity": 77}, {"time": 1706, "pitch": 66, "duration": 3, "velocity": 74}, {"time": 1712, "pitch": 37, "duration": 5, "velocity": 80}, {"time": 1712, "pitch": 61, "duration": 12, "velocity": 81}, {"time": 1712, "pitch": 65, "duration": 13, "velocity": 81}, {"time": 1718, "pitch": 49, "duration": 34, "velocity": 80}, {"time": 1724, "pitch": 56, "duration": 15, "velocity": 84}, {"time": 1727, "pitch": 61, "duration": 4, "velocity": 80}, {"time": 1730, "pitch": 65, "duration": 2, "velocity": 87}, {"time": 1736, "pitch": 61, "duration": 8, "velocity": 84}, {"time": 1736, "pitch": 68, "duration": 7, "velocity": 79}, {"time": 1742, "pitch": 56, "duration": 7, "velocity": 68}, {"time": 1748, "pitch": 61, "duration": 3, "velocity": 82}, {"time": 1748, "pitch": 65, "duration": 3, "velocity": 86}, {"time": 1751, "pitch": 56, "duration": 2, "velocity": 77}, {"time": 1754, "pitch": 49, "duration": 2, "velocity": 83}, {"time": 1760, "pitch": 48, "duration": 14, "velocity": 82}, {"time": 1760, "pitch": 60, "duration": 6, "velocity": 80}, {"time": 1760, "pitch": 63, "duration": 6, "velocity": 80}, {"time": 1760, "pitch": 67, "duration": 7, "velocity": 73}, {"time": 1766, "pitch": 55, "duration": 8, "velocity": 64}, {"time": 1772, "pitch": 58, "duration": 3, "velocity": 82}, {"time": 1772, "pitch": 63, "duration": 3, "velocity": 83}, {"time": 1772, "pitch": 67, "duration": 4, "velocity": 81}, {"time": 1778, "pitch": 48, "duration": 2, "velocity": 82}, {"time": 1784, "pitch": 41, "duration": 14, "velocity": 81}, {"time": 1784, "pitch": 60, "duration": 8, "velocity": 76}, {"time": 1784, "pitch": 65, "duration": 7, "velocity": 80}, {"time": 1784, "pitch": 68, "duration": 7, "velocity": 79}, {"time": 1790, "pitch": 48, "duration": 7, "velocity": 71}, {"time": 1796, "pitch": 60, "duration": 2, "velocity": 82}, {"time": 1796, "pitch": 65, "duration": 2, "velocity": 85}, {"time": 1808, "pitch": 46, "duration": 38, "velocity": 81}, {"time": 1808, "pitch": 56, "duration": 7, "velocity": 79}, {"time": 1808, "pitch": 61, "duration": 7, "velocity": 77}, {"time": 1814, "pitch": 53, "duration": 9, "velocity": 68}, {"time": 1820, "pitch": 56, "duration": 5, "velocity": 78}, {"time": 1820, "pitch": 61, "duration": 8, "velocity": 79}, {"time": 1826, "pitch": 53, "duration": 8, "velocity": 71}, {"time": 1832, "pitch": 61, "duration": 6, "velocity": 71}, {"time": 1832, "pitch": 65, "duration": 6, "velocity": 80}, {"time": 1838, "pitch": 53, "duration": 7, "velocity": 69}, {"time": 1844, "pitch": 58, "duration": 3, "velocity": 81}, {"time": 1844, "pitch": 61, "duration": 3, "velocity": 86}, {"time": 1844, "pitch": 65, "duration": 3, "velocity": 82}, {"time": 1850, "pitch": 46, "duration": 2, "velocity": 80}, {"time": 1856, "pitch": 39, "duration": 1, "velocity": 80}, {"time": 1856, "pitch": 58, "duration": 4, "velocity": 71}, {"time": 1856, "pitch": 63, "duration": 6, "velocity": 77}, {"time": 1856, "pitch": 67, "duration": 8, "velocity": 71}, {"time": 1862, "pitch": 51, "duration": 32, "velocity": 80}, {"time": 1868, "pitch": 58, "duration": 15, "velocity": 87}, {"time": 1874, "pitch": 63, "duration": 5, "velocity": 86}, {"time": 1880, "pitch": 67, "duration": 6, "velocity": 73}, {"time": 1880, "pitch": 70, "duration": 8, "velocity": 77}, {"time": 1886, "pitch": 58, "duration": 8, "velocity": 67}, {"time": 1892, "pitch": 67, "duration": 6, "velocity": 81}, {"time": 1892, "pitch": 70, "duration": 6, "velocity": 77}, {"time": 1892, "pitch": 75, "duration": 4, "velocity": 81}, {"time": 1898, "pitch": 63, "duration": 2, "velocity": 76}, {"time": 1904, "pitch": 49, "duration": 21, "velocity": 86}, {"time": 1904, "pitch": 61, "duration": 12, "velocity": 80}, {"time": 1904, "pitch": 65, "duration": 14, "velocity": 80}, {"time": 1916, "pitch": 56, "duration": 10, "velocity": 82}, {"time": 1919, "pitch": 61, "duration": 4, "velocity": 80}, {"time": 1922, "pitch": 65, "duration": 4, "velocity": 77}, {"time": 1928, "pitch": 51, "duration": 19, "velocity": 85}, {"time": 1928, "pitch": 63, "duration": 4, "velocity": 79}, {"time": 1928, "pitch": 67, "duration": 6, "velocity": 82}, {"time": 1931, "pitch": 58, "duration": 11, "velocity": 67}, {"time": 1934, "pitch": 63, "duration": 4, "velocity": 74}, {"time": 1937, "pitch": 67, "duration": 9, "velocity": 89}, {"time": 1946, "pitch": 58, "duration": 1, "velocity": 77}, {"time": 1952, "pitch": 41, "duration": 21, "velocity": 84}, {"time": 1952, "pitch": 65, "duration": 3, "velocity": 77}, {"time": 1952, "pitch": 68, "duration": 5, "velocity": 75}, {"time": 1955, "pitch": 48, "duration": 17, "velocity": 76}, {"time": 1958, "pitch": 65, "duration": 2, "velocity": 80}, {"time": 1961, "pitch": 65, "duration": 8, "velocity": 81}, {"time": 1961, "pitch": 68, "duration": 8, "velocity": 80}, {"time": 1976, "pitch": 41, "duration": 15, "velocity": 85}, {"time": 1976, "pitch": 65, "duration": 3, "velocity": 82}, {"time": 1976, "pitch": 72, "duration": 4, "velocity": 80}, {"time": 1979, "pitch": 48, "duration": 11, "velocity": 73}, {"time": 1982, "pitch": 65, "duration": 1, "velocity": 76}, {"time": 1985, "pitch": 65, "duration": 6, "velocity": 82}, {"time": 1985, "pitch": 68, "duration": 7, "velocity": 81}, {"time": 2000, "pitch": 49, "duration": 20, "velocity": 81}, {"time": 2000, "pitch": 61, "duration": 3, "velocity": 77}, {"time": 2000, "pitch": 68, "duration": 4, "velocity": 76}, {"time": 2003, "pitch": 56, "duration": 8, "velocity": 82}, {"time": 2006, "pitch": 61, "duration": 2, "velocity": 94}, {"time": 2009, "pitch": 61, "duration": 10, "velocity": 91}, {"time": 2009, "pitch": 65, "duration": 10, "velocity": 91}, {"time": 2024, "pitch": 51, "duration": 15, "velocity": 86}, {"time": 2024, "pitch": 63, "duration": 3, "velocity": 81}, {"time": 2024, "pitch": 67, "duration": 5, "velocity": 77}, {"time": 2027, "pitch": 58, "duration": 7, "velocity": 76}, {"time": 2030, "pitch": 63, "duration": 1, "velocity": 82}, {"time": 2033, "pitch": 63, "duration": 7, "velocity": 85}, {"time": 2033, "pitch": 67, "duration": 7, "velocity": 85}, {"time": 2048, "pitch": 41, "duration": 22, "velocity": 82}, {"time": 2048, "pitch": 65, "duration": 2, "velocity": 80}, {"time": 2048, "pitch": 68, "duration": 2, "velocity": 74}, {"time": 2051, "pitch": 48, "duration": 16, "velocity": 71}, {"time": 2054, "pitch": 53, "duration": 2, "velocity": 81}, {"time": 2057, "pitch": 53, "duration": 1, "velocity": 65}, {"time": 2057, "pitch": 56, "duration": 4, "velocity": 85}, {"time": 2063, "pitch": 53, "duration": 1, "velocity": 81}, {"time": 2063, "pitch": 60, "duration": 1, "velocity": 78}, {"time": 2072, "pitch": 41, "duration": 23, "velocity": 85}, {"time": 2072, "pitch": 53, "duration": 9, "velocity": 80}, {"time": 2072, "pitch": 65, "duration": 7, "velocity": 82}, {"time": 2084, "pitch": 56, "duration": 11, "velocity": 81}, {"time": 2084, "pitch": 60, "duration": 11, "velocity": 79}, {"time": 2090, "pitch": 53, "duration": 5, "velocity": 79}, {"time": 2096, "pitch": 44, "duration": 15, "velocity": 79}, {"time": 2096, "pitch": 56, "duration": 6, "velocity": 73}, {"time": 2096, "pitch": 63, "duration": 6, "velocity": 75}, {"time": 2102, "pitch": 51, "duration": 9, "velocity": 63}, {"time": 2108, "pitch": 56, "duration": 2, "velocity": 81}, {"time": 2108, "pitch": 60, "duration": 5, "velocity": 81}, {"time": 2114, "pitch": 56, "duration": 1, "velocity": 76}, {"time": 2120, "pitch": 48, "duration": 16, "velocity": 79}, {"time": 2120, "pitch": 60, "duration": 7, "velocity": 76}, {"time": 2120, "pitch": 64, "duration": 7, "velocity": 73}, {"time": 2126, "pitch": 55, "duration": 8, "velocity": 71}, {"time": 2132, "pitch": 60, "duration": 4, "velocity": 76}, {"time": 2132, "pitch": 64, "duration": 3, "velocity": 74}, {"time": 2132, "pitch": 67, "duration": 4, "velocity": 73}, {"time": 2144, "pitch": 41, "duration": 19, "velocity": 80}, {"time": 2144, "pitch": 60, "duration": 6, "velocity": 71}, {"time": 2144, "pitch": 65, "duration": 6, "velocity": 77}, {"time": 2144, "pitch": 68, "duration": 7, "velocity": 74}, {"time": 2150, "pitch": 48, "duration": 13, "velocity": 56}, {"time": 2156, "pitch": 60, "duration": 3, "velocity": 81}, {"time": 2156, "pitch": 65, "duration": 7, "velocity": 82}, {"time": 2162, "pitch": 60, "duration": 3, "velocity": 80}, {"time": 2168, "pitch": 51, "duration": 4, "velocity": 84}, {"time": 2168, "pitch": 61, "duration": 6, "velocity": 81}, {"time": 2168, "pitch": 66, "duration": 10, "velocity": 80}, {"time": 2180, "pitch": 44, "duration": 7, "velocity": 81}, {"time": 2180, "pitch": 63, "duration": 6, "velocity": 80}, {"time": 2180, "pitch": 68, "duration": 8, "velocity": 77}, {"time": 2186, "pitch": 51, "duration": 2, "velocity": 74}, {"time": 2192, "pitch": 49, "duration": 18, "velocity": 83}, {"time": 2192, "pitch": 61, "duration": 8, "velocity": 74}, {"time": 2192, "pitch": 65, "duration": 7, "velocity": 80}, {"time": 2198, "pitch": 56, "duration": 12, "velocity": 67}, {"time": 2204, "pitch": 61, "duration": 2, "velocity": 82}, {"time": 2204, "pitch": 65, "duration": 5, "velocity": 87}, {"time": 2204, "pitch": 68, "duration": 6, "velocity": 80}, {"time": 2210, "pitch": 61, "duration": 2, "velocity": 66}, {"time": 2216, "pitch": 51, "duration": 12, "velocity": 84}, {"time": 2216, "pitch": 63, "duration": 6, "velocity": 69}, {"time": 2216, "pitch": 67, "duration": 6, "velocity": 75}, {"time": 2222, "pitch": 58, "duration": 6, "velocity": 61}, {"time": 2228, "pitch": 63, "duration": 7, "velocity": 82}, {"time": 2234, "pitch": 67, "duration": 4, "velocity": 82}, {"time": 2240, "pitch": 41, "duration": 13, "velocity": 80}, {"time": 2240, "pitch": 60, "duration": 7, "velocity": 75}, {"time": 2240, "pitch": 68, "duration": 11, "velocity": 73}, {"time": 2246, "pitch": 48, "duration": 7, "velocity": 60}, {"time": 2252, "pitch": 60, "duration": 1, "velocity": 82}, {"time": 2252, "pitch": 65, "duration": 1, "velocity": 85}, {"time": 2264, "pitch": 44, "duration": 9, "velocity": 80}, {"time": 2264, "pitch": 51, "duration": 8, "velocity": 81}, {"time": 2264, "pitch": 63, "duration": 4, "velocity": 74}, {"time": 2264, "pitch": 66, "duration": 6, "velocity": 79}, {"time": 2276, "pitch": 53, "duration": 7, "velocity": 83}, {"time": 2276, "pitch": 60, "duration": 10, "velocity": 80}, {"time": 2276, "pitch": 65, "duration": 10, "velocity": 82}, {"time": 2288, "pitch": 46, "duration": 38, "velocity": 81}, {"time": 2288, "pitch": 58, "duration": 10, "velocity": 72}, {"time": 2288, "pitch": 61, "duration": 9, "velocity": 70}, {"time": 2294, "pitch": 53, "duration": 19, "velocity": 69}, {"time": 2300, "pitch": 58, "duration": 16, "velocity": 73}, {"time": 2306, "pitch": 61, "duration": 11, "velocity": 78}, {"time": 2318, "pitch": 53, "duration": 7, "velocity": 62}, {"time": 2324, "pitch": 58, "duration": 4, "velocity": 84}, {"time": 2324, "pitch": 61, "duration": 4, "velocity": 84}, {"time": 2330, "pitch": 46, "duration": 2, "velocity": 83}, {"time": 2336, "pitch": 48, "duration": 21, "velocity": 82}, {"time": 2336, "pitch": 60, "duration": 8, "velocity": 80}, {"time": 2336, "pitch": 63, "duration": 8, "velocity": 80}, {"time": 2336, "pitch": 67, "duration": 9, "velocity": 73}, {"time": 2342, "pitch": 55, "duration": 8, "velocity": 69}, {"time": 2348, "pitch": 60, "duration": 7, "velocity": 76}, {"time": 2354, "pitch": 55, "duration": 4, "velocity": 66}, {"time": 2360, "pitch": 53, "duration": 13, "velocity": 85}, {"time": 2360, "pitch": 60, "duration": 4, "velocity": 73}, {"time": 2360, "pitch": 65, "duration": 8, "velocity": 78}, {"time": 2366, "pitch": 60, "duration": 3, "velocity": 76}, {"time": 2372, "pitch": 60, "duration": 3, "velocity": 81}, {"time": 2372, "pitch": 65, "duration": 3, "velocity": 81}, {"time": 2372, "pitch": 68, "duration": 3, "velocity": 76}, {"time": 2384, "pitch": 37, "duration": 1, "velocity": 80}, {"time": 2384, "pitch": 56, "duration": 4, "velocity": 78}, {"time": 2384, "pitch": 61, "duration": 5, "velocity": 76}, {"time": 2390, "pitch": 49, "duration": 16, "velocity": 79}, {"time": 2396, "pitch": 56, "duration": 9, "velocity": 87}, {"time": 2399, "pitch": 61, "duration": 4, "velocity": 91}, {"time": 2402, "pitch": 65, "duration": 3, "velocity": 84}, {"time": 2408, "pitch": 38, "duration": 1, "velocity": 80}, {"time": 2408, "pitch": 62, "duration": 5, "velocity": 70}, {"time": 2408, "pitch": 65, "duration": 5, "velocity": 82}, {"time": 2408, "pitch": 68, "duration": 7, "velocity": 77}, {"time": 2414, "pitch": 50, "duration": 6, "velocity": 63}, {"time": 2417, "pitch": 56, "duration": 4, "velocity": 74}, {"time": 2420, "pitch": 62, "duration": 4, "velocity": 82}, {"time": 2423, "pitch": 65, "duration": 2, "velocity": 80}, {"time": 2432, "pitch": 51, "duration": 14, "velocity": 85}, {"time": 2432, "pitch": 63, "duration": 8, "velocity": 78}, {"time": 2432, "pitch": 67, "duration": 7, "velocity": 76}, {"time": 2438, "pitch": 58, "duration": 7, "velocity": 80}, {"time": 2444, "pitch": 67, "duration": 3, "velocity": 80}, {"time": 2444, "pitch": 70, "duration": 7, "velocity": 81}, {"time": 2450, "pitch": 63, "duration": 9, "velocity": 82}, {"time": 2456, "pitch": 39, "duration": 1, "velocity": 81}, {"time": 2456, "pitch": 67, "duration": 4, "velocity": 84}, {"time": 2456, "pitch": 70, "duration": 4, "velocity": 83}, {"time": 2456, "pitch": 75, "duration": 3, "velocity": 81}, {"time": 2459, "pitch": 51, "duration": 1, "velocity": 71}, {"time": 2462, "pitch": 51, "duration": 12, "velocity": 66}, {"time": 2462, "pitch": 58, "duration": 10, "velocity": 85}, {"time": 2465, "pitch": 63, "duration": 3, "velocity": 87}, {"time": 2468, "pitch": 65, "duration": 3, "velocity": 91}, {"time": 2471, "pitch": 67, "duration": 2, "velocity": 96}, {"time": 2474, "pitch": 68, "duration": 3, "velocity": 81}, {"time": 2477, "pitch": 70, "duration": 1, "velocity": 55}, {"time": 2480, "pitch": 44, "duration": 27, "velocity": 81}, {"time": 2480, "pitch": 56, "duration": 7, "velocity": 81}, {"time": 2480, "pitch": 63, "duration": 6, "velocity": 80}, {"time": 2486, "pitch": 51, "duration": 19, "velocity": 72}, {"time": 2492, "pitch": 56, "duration": 2, "velocity": 82}, {"time": 2492, "pitch": 60, "duration": 2, "velocity": 82}, {"time": 2498, "pitch": 56, "duration": 2, "velocity": 58}, {"time": 2504, "pitch": 56, "duration": 11, "velocity": 82}, {"time": 2504, "pitch": 63, "duration": 4, "velocity": 81}, {"time": 2510, "pitch": 44, "duration": 11, "velocity": 65}, {"time": 2510, "pitch": 51, "duration": 11, "velocity": 75}, {"time": 2516, "pitch": 60, "duration": 6, "velocity": 84}, {"time": 2516, "pitch": 63, "duration": 7, "velocity": 83}, {"time": 2516, "pitch": 68, "duration": 7, "velocity": 70}, {"time": 2522, "pitch": 56, "duration": 1, "velocity": 87}, {"time": 2528, "pitch": 48, "duration": 38, "velocity": 82}, {"time": 2528, "pitch": 60, "duration": 7, "velocity": 82}, {"time": 2528, "pitch": 63, "duration": 6, "velocity": 81}, {"time": 2528, "pitch": 67, "duration": 7, "velocity": 80}, {"time": 2534, "pitch": 55, "duration": 8, "velocity": 68}, {"time": 2540, "pitch": 60, "duration": 3, "velocity": 76}, {"time": 2540, "pitch": 63, "duration": 3, "velocity": 77}, {"time": 2546, "pitch": 55, "duration": 6, "velocity": 46}, {"time": 2552, "pitch": 60, "duration": 5, "velocity": 81}, {"time": 2552, "pitch": 63, "duration": 5, "velocity": 81}, {"time": 2552, "pitch": 67, "duration": 5, "velocity": 82}, {"time": 2558, "pitch": 55, "duration": 8, "velocity": 80}, {"time": 2564, "pitch": 60, "duration": 3, "velocity": 81}, {"time": 2564, "pitch": 63, "duration": 4, "velocity": 81}, {"time": 2570, "pitch": 48, "duration": 2, "velocity": 81}, {"time": 2570, "pitch": 60, "duration": 3, "velocity": 58}, {"time": 2576, "pitch": 41, "duration": 2, "velocity": 82}, {"time": 2576, "pitch": 65, "duration": 5, "velocity": 81}, {"time": 2576, "pitch": 68, "duration": 6, "velocity": 77}, {"time": 2582, "pitch": 53, "duration": 33, "velocity": 81}, {"time": 2588, "pitch": 65, "duration": 5, "velocity": 80}, {"time": 2588, "pitch": 68, "duration": 5, "velocity": 80}, {"time": 2588, "pitch": 72, "duration": 5, "velocity": 80}, {"time": 2594, "pitch": 60, "duration": 8, "velocity": 69}, {"time": 2600, "pitch": 65, "duration": 9, "velocity": 82}, {"time": 2600, "pitch": 68, "duration": 9, "velocity": 81}, {"time": 2606, "pitch": 60, "duration": 11, "velocity": 74}, {"time": 2612, "pitch": 65, "duration": 6, "velocity": 96}, {"time": 2612, "pitch": 68, "duration": 5, "velocity": 87}, {"time": 2618, "pitch": 53, "duration": 2, "velocity": 86}, {"time": 2624, "pitch": 51, "duration": 14, "velocity": 87}, {"time": 2624, "pitch": 61, "duration": 9, "velocity": 85}, {"time": 2624, "pitch": 66, "duration": 9, "velocity": 81}, {"time": 2630, "pitch": 58, "duration": 8, "velocity": 80}, {"time": 2636, "pitch": 61, "duration": 4, "velocity": 91}, {"time": 2636, "pitch": 66, "duration": 5, "velocity": 91}, {"time": 2642, "pitch": 51, "duration": 2, "velocity": 84}, {"time": 2648, "pitch": 44, "duration": 16, "velocity": 87}, {"time": 2648, "pitch": 63, "duration": 8, "velocity": 82}, {"time": 2648, "pitch": 66, "duration": 10, "velocity": 83}, {"time": 2654, "pitch": 51, "duration": 7, "velocity": 83}, {"time": 2660, "pitch": 63, "duration": 4, "velocity": 94}, {"time": 2660, "pitch": 68, "duration": 6, "velocity": 89}, {"time": 2663, "pitch": 51, "duration": 2, "velocity": 85}, {"time": 2666, "pitch": 63, "duration": 3, "velocity": 84}, {"time": 2669, "pitch": 68, "duration": 7, "velocity": 80}, {"time": 2672, "pitch": 49, "duration": 15, "velocity": 87}, {"time": 2678, "pitch": 56, "duration": 8, "velocity": 82}, {"time": 2684, "pitch": 61, "duration": 5, "velocity": 81}, {"time": 2684, "pitch": 65, "duration": 5, "velocity": 83}, {"time": 2684, "pitch": 68, "duration": 5, "velocity": 77}, {"time": 2690, "pitch": 56, "duration": 12, "velocity": 76}, {"time": 2696, "pitch": 65, "duration": 7, "velocity": 89}, {"time": 2696, "pitch": 68, "duration": 7, "velocity": 82}, {"time": 2696, "pitch": 73, "duration": 5, "velocity": 80}, {"time": 2702, "pitch": 49, "duration": 8, "velocity": 79}, {"time": 2708, "pitch": 61, "duration": 2, "velocity": 81}, {"time": 2708, "pitch": 65, "duration": 2, "velocity": 85}, {"time": 2708, "pitch": 68, "duration": 2, "velocity": 80}, {"time": 2720, "pitch": 48, "duration": 16, "velocity": 80}, {"time": 2720, "pitch": 63, "duration": 13, "velocity": 78}, {"time": 2720, "pitch": 67, "duration": 13, "velocity": 72}, {"time": 2726, "pitch": 55, "duration": 7, "velocity": 70}, {"time": 2732, "pitch": 60, "duration": 4, "velocity": 87}, {"time": 2735, "pitch": 55, "duration": 2, "velocity": 84}, {"time": 2738, "pitch": 63, "duration": 5, "velocity": 81}, {"time": 2741, "pitch": 60, "duration": 2, "velocity": 71}, {"time": 2744, "pitch": 41, "duration": 14, "velocity": 83}, {"time": 2744, "pitch": 60, "duration": 8, "velocity": 72}, {"time": 2744, "pitch": 65, "duration": 8, "velocity": 75}, {"time": 2750, "pitch": 48, "duration": 7, "velocity": 69}, {"time": 2756, "pitch": 60, "duration": 3, "velocity": 81}, {"time": 2756, "pitch": 65, "duration": 3, "velocity": 82}, {"time": 2756, "pitch": 68, "duration": 3, "velocity": 76}, {"time": 2768, "pitch": 46, "duration": 22, "velocity": 81}, {"time": 2768, "pitch": 56, "duration": 9, "velocity": 79}, {"time": 2768, "pitch": 61, "duration": 9, "velocity": 79}, {"time": 2774, "pitch": 53, "duration": 7, "velocity": 72}, {"time": 2780, "pitch": 56, "duration": 5, "velocity": 85}, {"time": 2780, "pitch": 61, "duration": 10, "velocity": 83}, {"time": 2786, "pitch": 53, "duration": 5, "velocity": 78}, {"time": 2792, "pitch": 46, "duration": 14, "velocity": 82}, {"time": 2792, "pitch": 61, "duration": 8, "velocity": 82}, {"time": 2792, "pitch": 65, "duration": 7, "velocity": 82}, {"time": 2798, "pitch": 53, "duration": 8, "velocity": 73}, {"time": 2804, "pitch": 61, "duration": 3, "velocity": 86}, {"time": 2804, "pitch": 65, "duration": 3, "velocity": 89}, {"time": 2810, "pitch": 46, "duration": 2, "velocity": 81}, {"time": 2816, "pitch": 39, "duration": 8, "velocity": 84}, {"time": 2816, "pitch": 63, "duration": 8, "velocity": 79}, {"time": 2816, "pitch": 67, "duration": 10, "velocity": 75}, {"time": 2822, "pitch": 51, "duration": 13, "velocity": 81}, {"time": 2825, "pitch": 58, "duration": 8, "velocity": 75}, {"time": 2828, "pitch": 63, "duration": 3, "velocity": 91}, {"time": 2831, "pitch": 70, "duration": 6, "velocity": 84}, {"time": 2834, "pitch": 58, "duration": 2, "velocity": 84}, {"time": 2837, "pitch": 63, "duration": 2, "velocity": 83}, {"time": 2840, "pitch": 51, "duration": 11, "velocity": 86}, {"time": 2840, "pitch": 63, "duration": 6, "velocity": 66}, {"time": 2840, "pitch": 67, "duration": 7, "velocity": 81}, {"time": 2840, "pitch": 70, "duration": 8, "velocity": 82}, {"time": 2840, "pitch": 75, "duration": 6, "velocity": 80}, {"time": 2846, "pitch": 58, "duration": 5, "velocity": 80}, {"time": 2849, "pitch": 63, "duration": 1, "velocity": 80}, {"time": 2852, "pitch": 51, "duration": 3, "velocity": 87}, {"time": 2852, "pitch": 58, "duration": 4, "velocity": 84}, {"time": 2852, "pitch": 63, "duration": 5, "velocity": 86}, {"time": 2852, "pitch": 67, "duration": 4, "velocity": 89}, {"time": 2852, "pitch": 70, "duration": 5, "velocity": 86}, {"time": 2852, "pitch": 75, "duration": 4, "velocity": 86}, {"time": 2858, "pitch": 51, "duration": 1, "velocity": 82}, {"time": 2864, "pitch": 44, "duration": 14, "velocity": 82}, {"time": 2864, "pitch": 56, "duration": 7, "velocity": 79}, {"time": 2864, "pitch": 60, "duration": 7, "velocity": 75}, {"time": 2870, "pitch": 51, "duration": 7, "velocity": 74}, {"time": 2876, "pitch": 56, "duration": 2, "velocity": 81}, {"time": 2876, "pitch": 60, "duration": 2, "velocity": 81}, {"time": 2876, "pitch": 63, "duration": 2, "velocity": 80}, {"time": 2882, "pitch": 51, "duration": 8, "velocity": 69}, {"time": 2888, "pitch": 60, "duration": 7, "velocity": 82}, {"time": 2888, "pitch": 63, "duration": 9, "velocity": 81}, {"time": 2894, "pitch": 44, "duration": 8, "velocity": 78}, {"time": 2897, "pitch": 56, "duration": 2, "velocity": 78}, {"time": 2900, "pitch": 60, "duration": 3, "velocity": 89}, {"time": 2900, "pitch": 63, "duration": 3, "velocity": 85}, {"time": 2900, "pitch": 68, "duration": 3, "velocity": 81}, {"time": 2903, "pitch": 51, "duration": 1, "velocity": 86}, {"time": 2906, "pitch": 44, "duration": 2, "velocity": 82}, {"time": 2912, "pitch": 48, "duration": 20, "velocity": 80}, {"time": 2912, "pitch": 60, "duration": 7, "velocity": 82}, {"time": 2912, "pitch": 63, "duration": 7, "velocity": 80}, {"time": 2918, "pitch": 55, "duration": 8, "velocity": 75}, {"time": 2924, "pitch": 60, "duration": 5, "velocity": 81}, {"time": 2924, "pitch": 63, "duration": 6, "velocity": 82}, {"time": 2924, "pitch": 67, "duration": 6, "velocity": 80}, {"time": 2930, "pitch": 55, "duration": 8, "velocity": 63}, {"time": 2936, "pitch": 60, "duration": 6, "velocity": 81}, {"time": 2936, "pitch": 63, "duration": 7, "velocity": 81}, {"time": 2936, "pitch": 67, "duration": 10, "velocity": 80}, {"time": 2945, "pitch": 60, "duration": 2, "velocity": 80}, {"time": 2948, "pitch": 60, "duration": 4, "velocity": 84}, {"time": 2948, "pitch": 63, "duration": 4, "velocity": 86}, {"time": 2948, "pitch": 67, "duration": 7, "velocity": 83}, {"time": 2951, "pitch": 55, "duration": 2, "velocity": 89}, {"time": 2954, "pitch": 60, "duration": 4, "velocity": 87}, {"time": 2960, "pitch": 41, "duration": 20, "velocity": 84}, {"time": 2960, "pitch": 60, "duration": 7, "velocity": 81}, {"time": 2960, "pitch": 65, "duration": 6, "velocity": 80}, {"time": 2966, "pitch": 48, "duration": 12, "velocity": 64}, {"time": 2972, "pitch": 60, "duration": 3, "velocity": 81}, {"time": 2972, "pitch": 65, "duration": 5, "velocity": 85}, {"time": 2972, "pitch": 68, "duration": 4, "velocity": 80}, {"time": 2978, "pitch": 60, "duration": 4, "velocity": 75}, {"time": 2984, "pitch": 41, "duration": 15, "velocity": 86}, {"time": 2984, "pitch": 60, "duration": 8, "velocity": 82}, {"time": 2984, "pitch": 65, "duration": 8, "velocity": 83}, {"time": 2984, "pitch": 68, "duration": 7, "velocity": 79}, {"time": 2990, "pitch": 48, "duration": 9, "velocity": 80}, {"time": 2996, "pitch": 60, "duration": 3, "velocity": 85}, {"time": 2996, "pitch": 65, "duration": 3, "velocity": 86}, {"time": 2996, "pitch": 68, "duration": 4, "velocity": 81}, {"time": 3002, "pitch": 41, "duration": 4, "velocity": 82}, {"time": 3008, "pitch": 51, "duration": 15, "velocity": 87}, {"time": 3008, "pitch": 61, "duration": 9, "velocity": 84}, {"time": 3008, "pitch": 66, "duration": 9, "velocity": 81}, {"time": 3014, "pitch": 58, "duration": 7, "velocity": 80}, {"time": 3020, "pitch": 61, "duration": 3, "velocity": 91}, {"time": 3020, "pitch": 66, "duration": 4, "velocity": 96}, {"time": 3023, "pitch": 58, "duration": 2, "velocity": 85}, {"time": 3026, "pitch": 51, "duration": 1, "velocity": 86}, {"time": 3032, "pitch": 44, "duration": 16, "velocity": 84}, {"time": 3032, "pitch": 63, "duration": 7, "velocity": 82}, {"time": 3032, "pitch": 68, "duration": 8, "velocity": 82}, {"time": 3038, "pitch": 51, "duration": 7, "velocity": 85}, {"time": 3041, "pitch": 63, "duration": 1, "velocity": 82}, {"time": 3044, "pitch": 63, "duration": 3, "velocity": 89}, {"time": 3044, "pitch": 68, "duration": 3, "velocity": 85}, {"time": 3047, "pitch": 51, "duration": 2, "velocity": 87}, {"time": 3050, "pitch": 63, "duration": 2, "velocity": 77}, {"time": 3050, "pitch": 66, "duration": 3, "velocity": 74}, {"time": 3056, "pitch": 37, "duration": 5, "velocity": 80}, {"time": 3056, "pitch": 61, "duration": 12, "velocity": 81}, {"time": 3056, "pitch": 65, "duration": 13, "velocity": 81}, {"time": 3062, "pitch": 49, "duration": 34, "velocity": 80}, {"time": 3068, "pitch": 56, "duration": 15, "velocity": 84}, {"time": 3071, "pitch": 61, "duration": 4, "velocity": 80}, {"time": 3074, "pitch": 65, "duration": 2, "velocity": 87}, {"time": 3080, "pitch": 61, "duration": 8, "velocity": 84}, {"time": 3080, "pitch": 68, "duration": 7, "velocity": 79}, {"time": 3086, "pitch": 56, "duration": 7, "velocity": 68}, {"time": 3092, "pitch": 61, "duration": 3, "velocity": 82}, {"time": 3092, "pitch": 65, "duration": 3, "velocity": 86}, {"time": 3095, "pitch": 56, "duration": 2, "velocity": 77}, {"time": 3098, "pitch": 49, "duration": 2, "velocity": 83}, {"time": 3104, "pitch": 48, "duration": 14, "velocity": 82}, {"time": 3104, "pitch": 60, "duration": 6, "velocity": 80}, {"time": 3104, "pitch": 63, "duration": 6, "velocity": 80}, {"time": 3104, "pitch": 67, "duration": 7, "velocity": 73}, {"time": 3110, "pitch": 55, "duration": 8, "velocity": 64}, {"time": 3116, "pitch": 58, "duration": 3, "velocity": 82}, {"time": 3116, "pitch": 63, "duration": 3, "velocity": 83}, {"time": 3116, "pitch": 67, "duration": 4, "velocity": 81}, {"time": 3122, "pitch": 48, "duration": 2, "velocity": 82}, {"time": 3128, "pitch": 41, "duration": 14, "velocity": 81}, {"time": 3128, "pitch": 60, "duration": 8, "velocity": 76}, {"time": 3128, "pitch": 65, "duration": 7, "velocity": 80}, {"time": 3128, "pitch": 68, "duration": 7, "velocity": 79}, {"time": 3134, "pitch": 48, "duration": 7, "velocity": 71}, {"time": 3140, "pitch": 60, "duration": 2, "velocity": 82}, {"time": 3140, "pitch": 65, "duration": 2, "velocity": 85}, {"time": 3152, "pitch": 46, "duration": 38, "velocity": 81}, {"time": 3152, "pitch": 56, "duration": 7, "velocity": 79}, {"time": 3152, "pitch": 61, "duration": 7, "velocity": 77}, {"time": 3158, "pitch": 53, "duration": 9, "velocity": 68}, {"time": 3164, "pitch": 56, "duration": 5, "velocity": 78}, {"time": 3164, "pitch": 61, "duration": 8, "velocity": 79}, {"time": 3170, "pitch": 53, "duration": 8, "velocity": 71}, {"time": 3176, "pitch": 61, "duration": 6, "velocity": 71}, {"time": 3176, "pitch": 65, "duration": 6, "velocity": 80}, {"time": 3182, "pitch": 53, "duration": 7, "velocity": 69}, {"time": 3188, "pitch": 58, "duration": 3, "velocity": 81}, {"time": 3188, "pitch": 61, "duration": 3, "velocity": 86}, {"time": 3188, "pitch": 65, "duration": 3, "velocity": 82}, {"time": 3194, "pitch": 46, "duration": 2, "velocity": 80}, {"time": 3200, "pitch": 39, "duration": 1, "velocity": 80}, {"time": 3200, "pitch": 58, "duration": 4, "velocity": 71}, {"time": 3200, "pitch": 63, "duration": 6, "velocity": 77}, {"time": 3200, "pitch": 67, "duration": 8, "velocity": 71}, {"time": 3206, "pitch": 51, "duration": 32, "velocity": 80}, {"time": 3212, "pitch": 58, "duration": 15, "velocity": 87}, {"time": 3218, "pitch": 63, "duration": 5, "velocity": 86}, {"time": 3224, "pitch": 67, "duration": 6, "velocity": 73}, {"time": 3224, "pitch": 70, "duration": 8, "velocity": 77}, {"time": 3230, "pitch": 58, "duration": 8, "velocity": 67}, {"time": 3236, "pitch": 67, "duration": 6, "velocity": 81}, {"time": 3236, "pitch": 70, "duration": 6, "velocity": 77}, {"time": 3236, "pitch": 75, "duration": 4, "velocity": 81}, {"time": 3242, "pitch": 63, "duration": 2, "velocity": 76}, {"time": 3248, "pitch": 40, "duration": 19, "velocity": 85}, {"time": 3251, "pitch": 47, "duration": 16, "velocity": 66}, {"time": 3254, "pitch": 52, "duration": 6, "velocity": 75}, {"time": 3257, "pitch": 56, "duration": 7, "velocity": 74}, {"time": 3260, "pitch": 59, "duration": 4, "velocity": 75}, {"time": 3263, "pitch": 64, "duration": 4, "velocity": 84}, {"time": 3266, "pitch": 52, "duration": 4, "velocity": 87}, {"time": 3269, "pitch": 56, "duration": 2, "velocity": 80}, {"time": 3269, "pitch": 64, "duration": 1, "velocity": 70}, {"time": 3272, "pitch": 42, "duration": 16, "velocity": 82}, {"time": 3275, "pitch": 49, "duration": 12, "velocity": 70}, {"time": 3278, "pitch": 54, "duration": 6, "velocity": 83}, {"time": 3281, "pitch": 58, "duration": 4, "velocity": 80}, {"time": 3284, "pitch": 66, "duration": 6, "velocity": 91}, {"time": 3287, "pitch": 54, "duration": 4, "velocity": 85}, {"time": 3290, "pitch": 58, "duration": 4, "velocity": 76}, {"time": 3293, "pitch": 66, "duration": 3, "velocity": 76}, {"time": 3296, "pitch": 39, "duration": 22, "velocity": 81}, {"time": 3299, "pitch": 46, "duration": 17, "velocity": 62}, {"time": 3302, "pitch": 51, "duration": 2, "velocity": 77}, {"time": 3305, "pitch": 55, "duration": 1, "velocity": 77}, {"time": 3308, "pitch": 58, "duration": 3, "velocity": 74}, {"time": 3311, "pitch": 61, "duration": 3, "velocity": 84}, {"time": 3314, "pitch": 63, "duration": 1, "velocity": 82}, {"time": 3320, "pitch": 39, "duration": 12, "velocity": 80}, {"time": 3320, "pitch": 63, "duration": 20, "velocity": 74}, {"time": 3320, "pitch": 67, "duration": 20, "velocity": 74}, {"time": 3344, "pitch": 44, "duration": 23, "velocity": 77}, {"time": 3344, "pitch": 75, "duration": 7, "velocity": 79}, {"time": 3347, "pitch": 51, "duration": 20, "velocity": 65}, {"time": 3350, "pitch": 68, "duration": 9, "velocity": 73}, {"time": 3353, "pitch": 75, "duration": 7, "velocity": 81}, {"time": 3359, "pitch": 80, "duration": 5, "velocity": 80}, {"time": 3362, "pitch": 68, "duration": 6, "velocity": 70}, {"time": 3365, "pitch": 75, "duration": 4, "velocity": 76}, {"time": 3368, "pitch": 44, "duration": 19, "velocity": 81}, {"time": 3368, "pitch": 80, "duration": 9, "velocity": 81}, {"time": 3371, "pitch": 51, "duration": 16, "velocity": 65}, {"time": 3374, "pitch": 68, "duration": 11, "velocity": 74}, {"time": 3377, "pitch": 75, "duration": 10, "velocity": 81}, {"time": 3386, "pitch": 80, "duration": 2, "velocity": 80}, {"time": 3392, "pitch": 48, "duration": 21, "velocity": 80}, {"time": 3392, "pitch": 79, "duration": 9, "velocity": 77}, {"time": 3395, "pitch": 55, "duration": 11, "velocity": 76}, {"time": 3398, "pitch": 72, "duration": 4, "velocity": 81}, {"time": 3401, "pitch": 75, "duration": 5, "velocity": 82}, {"time": 3407, "pitch": 79, "duration": 2, "velocity": 82}, {"time": 3410, "pitch": 72, "duration": 2, "velocity": 78}, {"time": 3416, "pitch": 48, "duration": 17, "velocity": 80}, {"time": 3416, "pitch": 72, "duration": 8, "velocity": 74}, {"time": 3416, "pitch": 75, "duration": 6, "velocity": 76}, {"time": 3422, "pitch": 55, "duration": 7, "velocity": 48}, {"time": 3428, "pitch": 72, "duration": 3, "velocity": 82}, {"time": 3428, "pitch": 79, "duration": 4, "velocity": 83}, {"time": 3431, "pitch": 55, "duration": 2, "velocity": 77}, {"time": 3434, "pitch": 72, "duration": 6, "velocity": 80}, {"time": 3440, "pitch": 41, "duration": 22, "velocity": 82}, {"time": 3440, "pitch": 80, "duration": 6, "velocity": 77}, {"time": 3443, "pitch": 48, "duration": 18, "velocity": 73}, {"time": 3446, "pitch": 72, "duration": 4, "velocity": 80}, {"time": 3449, "pitch": 80, "duration": 5, "velocity": 85}, {"time": 3455, "pitch": 77, "duration": 3, "velocity": 79}, {"time": 3458, "pitch": 72, "duration": 3, "velocity": 81}, {"time": 3461, "pitch": 80, "duration": 9, "velocity": 86}, {"time": 3464, "pitch": 41, "duration": 23, "velocity": 82}, {"time": 3467, "pitch": 48, "duration": 10, "velocity": 71}, {"time": 3470, "pitch": 77, "duration": 2, "velocity": 81}, {"time": 3473, "pitch": 72, "duration": 1, "velocity": 84}, {"time": 3476, "pitch": 72, "duration": 4, "velocity": 89}, {"time": 3476, "pitch": 80, "duration": 8, "velocity": 87}, {"time": 3479, "pitch": 48, "duration": 8, "velocity": 96}, {"time": 3482, "pitch": 72, "duration": 5, "velocity": 101}, {"time": 3485, "pitch": 77, "duration": 2, "velocity": 91}, {"time": 3488, "pitch": 51, "duration": 15, "velocity": 87}, {"time": 3488, "pitch": 61, "duration": 9, "velocity": 84}, {"time": 3488, "pitch": 66, "duration": 9, "velocity": 81}, {"time": 3494, "pitch": 58, "duration": 7, "velocity": 80}, {"time": 3500, "pitch": 61, "duration": 3, "velocity": 91}, {"time": 3500, "pitch": 66, "duration": 4, "velocity": 96}, {"time": 3503, "pitch": 58, "duration": 2, "velocity": 85}, {"time": 3506, "pitch": 51, "duration": 1, "velocity": 86}, {"time": 3512, "pitch": 44, "duration": 16, "velocity": 84}, {"time": 3512, "pitch": 63, "duration": 7, "velocity": 82}, {"time": 3512, "pitch": 68, "duration": 8, "velocity": 82}, {"time": 3518, "pitch": 51, "duration": 7, "velocity": 85}, {"time": 3521, "pitch": 63, "duration": 1, "velocity": 82}, {"time": 3524, "pitch": 63, "duration": 3, "velocity": 89}, {"time": 3524, "pitch": 68, "duration": 3, "velocity": 85}, {"time": 3527, "pitch": 51, "duration": 2, "velocity": 87}, {"time": 3530, "pitch": 63, "duration": 2, "velocity": 77}, {"time": 3530, "pitch": 66, "duration": 3, "velocity": 74}, {"time": 3536, "pitch": 37, "duration": 5, "velocity": 80}, {"time": 3536, "pitch": 61, "duration": 12, "velocity": 81}, {"time": 3536, "pitch": 65, "duration": 13, "velocity": 81}, {"time": 3542, "pitch": 49, "duration": 34, "velocity": 80}, {"time": 3548, "pitch": 56, "duration": 15, "velocity": 84}, {"time": 3551, "pitch": 61, "duration": 4, "velocity": 80}, {"time": 3554, "pitch": 65, "duration": 2, "velocity": 87}, {"time": 3560, "pitch": 61, "duration": 8, "velocity": 84}, {"time": 3560, "pitch": 68, "duration": 7, "velocity": 79}, {"time": 3566, "pitch": 56, "duration": 7, "velocity": 68}, {"time": 3572, "pitch": 61, "duration": 3, "velocity": 82}, {"time": 3572, "pitch": 65, "duration": 3, "velocity": 86}, {"time": 3575, "pitch": 56, "duration": 2, "velocity": 77}, {"time": 3578, "pitch": 49, "duration": 2, "velocity": 83}, {"time": 3584, "pitch": 48, "duration": 14, "velocity": 82}, {"time": 3584, "pitch": 60, "duration": 6, "velocity": 80}, {"time": 3584, "pitch": 63, "duration": 6, "velocity": 80}, {"time": 3584, "pitch": 67, "duration": 7, "velocity": 73}, {"time": 3590, "pitch": 55, "duration": 8, "velocity": 64}, {"time": 3596, "pitch": 58, "duration": 3, "velocity": 82}, {"time": 3596, "pitch": 63, "duration": 3, "velocity": 83}, {"time": 3596, "pitch": 67, "duration": 4, "velocity": 81}, {"time": 3602, "pitch": 48, "duration": 2, "velocity": 82}, {"time": 3608, "pitch": 41, "duration": 14, "velocity": 81}, {"time": 3608, "pitch": 60, "duration": 8, "velocity": 76}, {"time": 3608, "pitch": 65, "duration": 7, "velocity": 80}, {"time": 3608, "pitch": 68, "duration": 7, "velocity": 79}, {"time": 3614, "pitch": 48, "duration": 7, "velocity": 71}, {"time": 3620, "pitch": 60, "duration": 2, "velocity": 82}, {"time": 3620, "pitch": 65, "duration": 2, "velocity": 85}, {"time": 3632, "pitch": 46, "duration": 38, "velocity": 81}, {"time": 3632, "pitch": 56, "duration": 7, "velocity": 79}, {"time": 3632, "pitch": 61, "duration": 7, "velocity": 77}, {"time": 3638, "pitch": 53, "duration": 9, "velocity": 68}, {"time": 3644, "pitch": 56, "duration": 5, "velocity": 78}, {"time": 3644, "pitch": 61, "duration": 8, "velocity": 79}, {"time": 3650, "pitch": 53, "duration": 8, "velocity": 71}, {"time": 3656, "pitch": 61, "duration": 6, "velocity": 71}, {"time": 3656, "pitch": 65, "duration": 6, "velocity": 80}, {"time": 3662, "pitch": 53, "duration": 7, "velocity": 69}, {"time": 3668, "pitch": 58, "duration": 3, "velocity": 81}, {"time": 3668, "pitch": 61, "duration": 3, "velocity": 86}, {"time": 3668, "pitch": 65, "duration": 3, "velocity": 82}, {"time": 3674, "pitch": 46, "duration": 2, "velocity": 80}, {"time": 3680, "pitch": 39, "duration": 1, "velocity": 80}, {"time": 3680, "pitch": 58, "duration": 4, "velocity": 71}, {"time": 3680, "pitch": 63, "duration": 6, "velocity": 77}, {"time": 3680, "pitch": 67, "duration": 8, "velocity": 71}, {"time": 3686, "pitch": 51, "duration": 32, "velocity": 80}, {"time": 3692, "pitch": 58, "duration": 15, "velocity": 87}, {"time": 3698, "pitch": 63, "duration": 5, "velocity": 86}, {"time": 3704, "pitch": 67, "duration": 6, "velocity": 73}, {"time": 3704, "pitch": 70, "duration": 8, "velocity": 77}, {"time": 3710, "pitch": 58, "duration": 8, "velocity": 67}, {"time": 3716, "pitch": 67, "duration": 6, "velocity": 81}, {"time": 3716, "pitch": 70, "duration": 6, "velocity": 77}, {"time": 3716, "pitch": 75, "duration": 4, "velocity": 81}, {"time": 3722, "pitch": 63, "duration": 2, "velocity": 76}, {"time": 3728, "pitch": 49, "duration": 19, "velocity": 83}, {"time": 3728, "pitch": 61, "duration": 4, "velocity": 74}, {"time": 3728, "pitch": 68, "duration": 5, "velocity": 71}, {"time": 3731, "pitch": 56, "duration": 17, "velocity": 68}, {"time": 3734, "pitch": 61, "duration": 9, "velocity": 80}, {"time": 3737, "pitch": 65, "duration": 2, "velocity": 85}, {"time": 3743, "pitch": 73, "duration": 11, "velocity": 87}, {"time": 3746, "pitch": 61, "duration": 2, "velocity": 81}, {"time": 3752, "pitch": 51, "duration": 17, "velocity": 83}, {"time": 3755, "pitch": 58, "duration": 13, "velocity": 71}, {"time": 3758, "pitch": 63, "duration": 4, "velocity": 79}, {"time": 3761, "pitch": 65, "duration": 5, "velocity": 91}, {"time": 3767, "pitch": 67, "duration": 2, "velocity": 82}, {"time": 3776, "pitch": 41, "duration": 22, "velocity": 82}, {"time": 3776, "pitch": 65, "duration": 3, "velocity": 74}, {"time": 3776, "pitch": 68, "duration": 5, "velocity": 76}, {"time": 3779, "pitch": 48, "duration": 17, "velocity": 66}, {"time": 3782, "pitch": 65, "duration": 1, "velocity": 72}, {"time": 3785, "pitch": 65, "duration": 2, "velocity": 85}, {"time": 3785, "pitch": 72, "duration": 3, "velocity": 82}, {"time": 3791, "pitch": 65, "duration": 1, "velocity": 80}, {"time": 3791, "pitch": 68, "duration": 1, "velocity": 76}, {"time": 3800, "pitch": 41, "duration": 7, "velocity": 81}, {"time": 3800, "pitch": 65, "duration": 17, "velocity": 68}, {"time": 3800, "pitch": 68, "duration": 23, "velocity": 66}, {"time": 3824, "pitch": 37, "duration": 1, "velocity": 80}, {"time": 3827, "pitch": 49, "duration": 14, "velocity": 74}, {"time": 3830, "pitch": 56, "duration": 11, "velocity": 75}, {"time": 3833, "pitch": 61, "duration": 4, "velocity": 76}, {"time": 3836, "pitch": 63, "duration": 4, "velocity": 77}, {"time": 3839, "pitch": 65, "duration": 3, "velocity": 81}, {"time": 3842, "pitch": 68, "duration": 3, "velocity": 80}, {"time": 3849, "pitch": 51, "duration": 15, "velocity": 75}, {"time": 3849, "pitch": 68, "duration": 10, "velocity": 71}, {"time": 3849, "pitch": 63, "duration": 9, "velocity": 69}, {"time": 3856, "pitch": 58, "duration": 8, "velocity": 67}, {"time": 3864, "pitch": 67, "duration": 12, "velocity": 68}, {"time": 3899, "pitch": 44, "duration": 67, "velocity": 78}, {"time": 3899, "pitch": 51, "duration": 64, "velocity": 73}, {"time": 3902, "pitch": 56, "duration": 2, "velocity": 64}, {"time": 3905, "pitch": 58, "duration": 2, "velocity": 75}, {"time": 3908, "pitch": 60, "duration": 2, "velocity": 74}, {"time": 3908, "pitch": 63, "duration": 4, "velocity": 69}, {"time": 3911, "pitch": 68, "duration": 6, "velocity": 68}, {"time": 3914, "pitch": 60, "duration": 3, "velocity": 69}, {"time": 3917, "pitch": 63, "duration": 4, "velocity": 70}, {"time": 3920, "pitch": 60, "duration": 2, "velocity": 69}, {"time": 3923, "pitch": 70, "duration": 2, "velocity": 70}, {"time": 3929, "pitch": 72, "duration": 2, "velocity": 73}, {"time": 3932, "pitch": 68, "duration": 2, "velocity": 47}, {"time": 3932, "pitch": 75, "duration": 2, "velocity": 68}, {"time": 3938, "pitch": 68, "duration": 1, "velocity": 48}, {"time": 3938, "pitch": 80, "duration": 2, "velocity": 57}, {"time": 3947, "pitch": 80, "duration": 2, "velocity": 55}, {"time": 3947, "pitch": 87, "duration": 2, "velocity": 58}, {"time": 3956, "pitch": 92, "duration": 2, "velocity": 78}], "annotations": [{"time": 200, "annotation": {"number": 64, "value": 0}, "group": "control_change"}, {"time": 203, "annotation": {"number": 64, "value": 127}, "group": "control_change"}, {"time": 222, "annotation": {"number": 64, "value": 0}, "group": "control_change"}, {"time": 224, "annotation": {"number": 64, "value": 127}, "group": "control_change"}, {"time": 224, "annotation": {"number": 64, "value": 0}, "group": "control_change"}, {"time": 271, "annotation": {"number": 64, "value": 0}, "group": "control_change"}, {"time": 273, "annotation": {"number": 64, "value": 127}, "group": "control_change"}, {"time": 318, "annotation": {"number": 64, "value": 0}, "group": "control_change"}, {"time": 320, "annotation": {"number": 64, "value": 127}, "group": "control_change"}, {"time": 356, "annotation": {"number": 64, "value": 127}, "group": "control_change"}, {"time": 356, "annotation": {"number": 64, "value": 0}, "group": "control_change"}, {"time": 357, "annotation": {"number": 64, "value": 127}, "group": "control_change"}, {"time": 357, "annotation": {"number": 64, "value": 0}, "group": "control_change"}, {"time": 365, "annotation": {"number": 64, "value": 0}, "group": "control_change"}, {"time": 368, "annotation": {"number": 64, "value": 127}, "group": "control_change"}, {"time": 390, "annotation": {"number": 64, "value": 0}, "group": "control_change"}, {"time": 392, "annotation": {"number": 64, "value": 127}, "group": "control_change"}, {"time": 414, "annotation": {"number": 64, "value": 0}, "group": "control_change"}, {"time": 417, "annotation": {"number": 64, "value": 127}, "group": "control_change"}, {"time": 437, "annotation": {"number": 64, "value": 0}, "group": "control_change"}, {"time": 439, "annotation": {"number": 64, "value": 127}, "group": "control_change"}, {"time": 451, "annotation": {"number": 64, "value": 0}, "group": "control_change"}, {"time": 452, "annotation": {"number": 64, "value": 127}, "group": "control_change"}, {"time": 462, "annotation": {"number": 64, "value": 0}, "group": "control_change"}, {"time": 464, "annotation": {"number": 64, "value": 127}, "group": "control_change"}, {"time": 487, "annotation": {"number": 64, "value": 0}, "group": "control_change"}, {"time": 489, "annotation": {"number": 64, "value": 127}, "group": "control_change"}, {"time": 509, "annotation": {"number": 64, "value": 0}, "group": "control_change"}, {"time": 511, "annotation": {"number": 64, "value": 127}, "group": "control_change"}, {"time": 559, "annotation": {"number": 64, "value": 0}, "group": "control_change"}, {"time": 561, "annotation": {"number": 64, "value": 127}, "group": "control_change"}, {"time": 605, "annotation": {"number": 64, "value": 0}, "group": "control_change"}, {"time": 608, "annotation": {"number": 64, "value": 127}, "group": "control_change"}, {"time": 630, "annotation": {"number": 64, "value": 0}, "group": "control_change"}, {"time": 631, "annotation": {"number": 64, "value": 127}, "group": "control_change"}, {"time": 654, "annotation": {"number": 64, "value": 0}, "group": "control_change"}, {"time": 660, "annotation": {"number": 64, "value": 127}, "group": "control_change"}, {"time": 701, "annotation": {"number": 64, "value": 0}, "group": "control_change"}, {"time": 704, "annotation": {"number": 64, "value": 127}, "group": "control_change"}, {"time": 727, "annotation": {"number": 64, "value": 0}, "group": "control_change"}, {"time": 728, "annotation": {"number": 64, "value": 127}, "group": "control_change"}, {"time": 753, "annotation": {"number": 64, "value": 127}, "group": "control_change"}, {"time": 775, "annotation": {"number": 64, "value": 0}, "group": "control_change"}, {"time": 781, "annotation": {"number": 64, "value": 127}, "group": "control_change"}, {"time": 798, "annotation": {"number": 64, "value": 0}, "group": "control_change"}, {"time": 801, "annotation": {"number": 64, "value": 127}, "group": "control_change"}, {"time": 823, "annotation": {"number": 64, "value": 0}, "group": "control_change"}, {"time": 824, "annotation": {"number": 64, "value": 127}, "group": "control_change"}, {"time": 834, "annotation": {"number": 64, "value": 0}, "group": "control_change"}, {"time": 836, "annotation": {"number": 64, "value": 127}, "group": "control_change"}, {"time": 848, "annotation": {"number": 64, "value": 0}, "group": "control_change"}, {"time": 853, "annotation": {"number": 64, "value": 127}, "group": "control_change"}, {"time": 871, "annotation": {"number": 64, "value": 0}, "group": "control_change"}, {"time": 874, "annotation": {"number": 64, "value": 127}, "group": "control_change"}, {"time": 895, "annotation": {"number": 64, "value": 0}, "group": "control_change"}, {"time": 896, "annotation": {"number": 64, "value": 127}, "group": "control_change"}, {"time": 918, "annotation": {"number": 64, "value": 0}, "group": "control_change"}, {"time": 920, "annotation": {"number": 64, "value": 127}, "group": "control_change"}, {"time": 931, "annotation": {"number": 64, "value": 0}, "group": "control_change"}, {"time": 932, "annotation": {"number": 64, "value": 127}, "group": "control_change"}, {"time": 942, "annotation": {"number": 64, "value": 0}, "group": "control_change"}, {"time": 949, "annotation": {"number": 64, "value": 127}, "group": "control_change"}, {"time": 990, "annotation": {"number": 64, "value": 0}, "group": "control_change"}, {"time": 992, "annotation": {"number": 64, "value": 127}, "group": "control_change"}, {"time": 1015, "annotation": {"number": 64, "value": 0}, "group": "control_change"}, {"time": 1017, "annotation": {"number": 64, "value": 127}, "group": "control_change"}, {"time": 1038, "annotation": {"number": 64, "value": 0}, "group": "control_change"}, {"time": 1040, "annotation": {"number": 64, "value": 127}, "group": "control_change"}, {"time": 1063, "annotation": {"number": 64, "value": 0}, "group": "control_change"}, {"time": 1064, "annotation": {"number": 64, "value": 127}, "group": "control_change"}, {"time": 1086, "annotation": {"number": 64, "value": 0}, "group": "control_change"}, {"time": 1089, "annotation": {"number": 64, "value": 127}, "group": "control_change"}, {"time": 1109, "annotation": {"number": 64, "value": 0}, "group": "control_change"}, {"time": 1111, "annotation": {"number": 64, "value": 127}, "group": "control_change"}, {"time": 1135, "annotation": {"number": 64, "value": 0}, "group": "control_change"}, {"time": 1136, "annotation": {"number": 64, "value": 127}, "group": "control_change"}, {"time": 1136, "annotation": {"number": 64, "value": 0}, "group": "control_change"}, {"time": 1182, "annotation": {"number": 64, "value": 0}, "group": "control_change"}, {"time": 1184, "annotation": {"number": 64, "value": 127}, "group": "control_change"}, {"time": 1229, "annotation": {"number": 64, "value": 0}, "group": "control_change"}, {"time": 1230, "annotation": {"number": 64, "value": 127}, "group": "control_change"}, {"time": 1278, "annotation": {"number": 64, "value": 0}, "group": "control_change"}, {"time": 1280, "annotation": {"number": 64, "value": 127}, "group": "control_change"}, {"time": 1302, "annotation": {"number": 64, "value": 0}, "group": "control_change"}, {"time": 1304, "annotation": {"number": 64, "value": 127}, "group": "control_change"}, {"time": 1326, "annotation": {"number": 64, "value": 0}, "group": "control_change"}, {"time": 1328, "annotation": {"number": 64, "value": 127}, "group": "control_change"}, {"time": 1374, "annotation": {"number": 64, "value": 0}, "group": "control_change"}, {"time": 1380, "annotation": {"number": 64, "value": 127}, "group": "control_change"}, {"time": 1399, "annotation": {"number": 64, "value": 0}, "group": "control_change"}, {"time": 1401, "annotation": {"number": 64, "value": 127}, "group": "control_change"}, {"time": 1422, "annotation": {"number": 64, "value": 0}, "group": "control_change"}, {"time": 1425, "annotation": {"number": 64, "value": 127}, "group": "control_change"}, {"time": 1447, "annotation": {"number": 64, "value": 0}, "group": "control_change"}, {"time": 1448, "annotation": {"number": 64, "value": 127}, "group": "control_change"}, {"time": 1470, "annotation": {"number": 64, "value": 0}, "group": "control_change"}, {"time": 1472, "annotation": {"number": 64, "value": 127}, "group": "control_change"}, {"time": 1494, "annotation": {"number": 64, "value": 0}, "group": "control_change"}, {"time": 1496, "annotation": {"number": 64, "value": 127}, "group": "control_change"}, {"time": 1519, "annotation": {"number": 64, "value": 0}, "group": "control_change"}, {"time": 1524, "annotation": {"number": 64, "value": 127}, "group": "control_change"}, {"time": 1567, "annotation": {"number": 64, "value": 0}, "group": "control_change"}, {"time": 1568, "annotation": {"number": 64, "value": 127}, "group": "control_change"}, {"time": 1604, "annotation": {"number": 64, "value": 0}, "group": "control_change"}, {"time": 1605, "annotation": {"number": 64, "value": 127}, "group": "control_change"}, {"time": 1615, "annotation": {"number": 64, "value": 0}, "group": "control_change"}, {"time": 1617, "annotation": {"number": 64, "value": 127}, "group": "control_change"}, {"time": 1639, "annotation": {"number": 64, "value": 0}, "group": "control_change"}, {"time": 1640, "annotation": {"number": 64, "value": 127}, "group": "control_change"}, {"time": 1662, "annotation": {"number": 64, "value": 0}, "group": "control_change"}, {"time": 1663, "annotation": {"number": 64, "value": 127}, "group": "control_change"}, {"time": 1687, "annotation": {"number": 64, "value": 0}, "group": "control_change"}, {"time": 1688, "annotation": {"number": 64, "value": 127}, "group": "control_change"}, {"time": 1710, "annotation": {"number": 64, "value": 0}, "group": "control_change"}, {"time": 1711, "annotation": {"number": 64, "value": 127}, "group": "control_change"}, {"time": 1758, "annotation": {"number": 64, "value": 0}, "group": "control_change"}, {"time": 1760, "annotation": {"number": 64, "value": 127}, "group": "control_change"}, {"time": 1782, "annotation": {"number": 64, "value": 0}, "group": "control_change"}, {"time": 1784, "annotation": {"number": 64, "value": 127}, "group": "control_change"}, {"time": 1807, "annotation": {"number": 64, "value": 0}, "group": "control_change"}, {"time": 1809, "annotation": {"number": 64, "value": 127}, "group": "control_change"}, {"time": 1854, "annotation": {"number": 64, "value": 0}, "group": "control_change"}, {"time": 1855, "annotation": {"number": 64, "value": 127}, "group": "control_change"}, {"time": 1902, "annotation": {"number": 64, "value": 0}, "group": "control_change"}, {"time": 1905, "annotation": {"number": 64, "value": 127}, "group": "control_change"}, {"time": 1927, "annotation": {"number": 64, "value": 0}, "group": "control_change"}, {"time": 1929, "annotation": {"number": 64, "value": 127}, "group": "control_change"}, {"time": 1951, "annotation": {"number": 64, "value": 0}, "group": "control_change"}, {"time": 1953, "annotation": {"number": 64, "value": 127}, "group": "control_change"}, {"time": 1974, "annotation": {"number": 64, "value": 0}, "group": "control_change"}, {"time": 1976, "annotation": {"number": 64, "value": 127}, "group": "control_change"}, {"time": 1998, "annotation": {"number": 64, "value": 0}, "group": "control_change"}, {"time": 2001, "annotation": {"number": 64, "value": 127}, "group": "control_change"}, {"time": 2023, "annotation": {"number": 64, "value": 0}, "group": "control_change"}, {"time": 2025, "annotation": {"number": 64, "value": 127}, "group": "control_change"}, {"time": 2046, "annotation": {"number": 64, "value": 0}, "group": "control_change"}, {"time": 2048, "annotation": {"number": 64, "value": 127}, "group": "control_change"}, {"time": 2071, "annotation": {"number": 64, "value": 0}, "group": "control_change"}, {"time": 2072, "annotation": {"number": 64, "value": 127}, "group": "control_change"}, {"time": 2091, "annotation": {"number": 64, "value": 0}, "group": "control_change"}, {"time": 2097, "annotation": {"number": 64, "value": 127}, "group": "control_change"}, {"time": 2119, "annotation": {"number": 64, "value": 0}, "group": "control_change"}, {"time": 2125, "annotation": {"number": 64, "value": 127}, "group": "control_change"}, {"time": 2142, "annotation": {"number": 64, "value": 0}, "group": "control_change"}, {"time": 2145, "annotation": {"number": 64, "value": 127}, "group": "control_change"}, {"time": 2167, "annotation": {"number": 64, "value": 0}, "group": "control_change"}, {"time": 2168, "annotation": {"number": 64, "value": 127}, "group": "control_change"}, {"time": 2178, "annotation": {"number": 64, "value": 0}, "group": "control_change"}, {"time": 2180, "annotation": {"number": 64, "value": 127}, "group": "control_change"}, {"time": 2192, "annotation": {"number": 64, "value": 0}, "group": "control_change"}, {"time": 2197, "annotation": {"number": 64, "value": 127}, "group": "control_change"}, {"time": 2215, "annotation": {"number": 64, "value": 0}, "group": "control_change"}, {"time": 2218, "annotation": {"number": 64, "value": 127}, "group": "control_change"}, {"time": 2239, "annotation": {"number": 64, "value": 0}, "group": "control_change"}, {"time": 2240, "annotation": {"number": 64, "value": 127}, "group": "control_change"}, {"time": 2262, "annotation": {"number": 64, "value": 0}, "group": "control_change"}, {"time": 2264, "annotation": {"number": 64, "value": 127}, "group": "control_change"}, {"time": 2275, "annotation": {"number": 64, "value": 0}, "group": "control_change"}, {"time": 2276, "annotation": {"number": 64, "value": 127}, "group": "control_change"}, {"time": 2286, "annotation": {"number": 64, "value": 0}, "group": "control_change"}, {"time": 2293, "annotation": {"number": 64, "value": 127}, "group": "control_change"}, {"time": 2334, "annotation": {"number": 64, "value": 0}, "group": "control_change"}, {"time": 2336, "annotation": {"number": 64, "value": 127}, "group": "control_change"}, {"time": 2359, "annotation": {"number": 64, "value": 0}, "group": "control_change"}, {"time": 2361, "annotation": {"number": 64, "value": 127}, "group": "control_change"}, {"time": 2382, "annotation": {"number": 64, "value": 0}, "group": "control_change"}, {"time": 2384, "annotation": {"number": 64, "value": 127}, "group": "control_change"}, {"time": 2407, "annotation": {"number": 64, "value": 0}, "group": "control_change"}, {"time": 2408, "annotation": {"number": 64, "value": 127}, "group": "control_change"}, {"time": 2430, "annotation": {"number": 64, "value": 0}, "group": "control_change"}, {"time": 2433, "annotation": {"number": 64, "value": 127}, "group": "control_change"}, {"time": 2453, "annotation": {"number": 64, "value": 0}, "group": "control_change"}, {"time": 2455, "annotation": {"number": 64, "value": 127}, "group": "control_change"}, {"time": 2479, "annotation": {"number": 64, "value": 0}, "group": "control_change"}, {"time": 2480, "annotation": {"number": 64, "value": 127}, "group": "control_change"}, {"time": 2480, "annotation": {"number": 64, "value": 0}, "group": "control_change"}, {"time": 2526, "annotation": {"number": 64, "value": 0}, "group": "control_change"}, {"time": 2528, "annotation": {"number": 64, "value": 127}, "group": "control_change"}, {"time": 2573, "annotation": {"number": 64, "value": 0}, "group": "control_change"}, {"time": 2574, "annotation": {"number": 64, "value": 127}, "group": "control_change"}, {"time": 2622, "annotation": {"number": 64, "value": 0}, "group": "control_change"}, {"time": 2624, "annotation": {"number": 64, "value": 127}, "group": "control_change"}, {"time": 2646, "annotation": {"number": 64, "value": 0}, "group": "control_change"}, {"time": 2648, "annotation": {"number": 64, "value": 127}, "group": "control_change"}, {"time": 2670, "annotation": {"number": 64, "value": 0}, "group": "control_change"}, {"time": 2672, "annotation": {"number": 64, "value": 127}, "group": "control_change"}, {"time": 2718, "annotation": {"number": 64, "value": 0}, "group": "control_change"}, {"time": 2724, "annotation": {"number": 64, "value": 127}, "group": "control_change"}, {"time": 2743, "annotation": {"number": 64, "value": 0}, "group": "control_change"}, {"time": 2745, "annotation": {"number": 64, "value": 127}, "group": "control_change"}, {"time": 2766, "annotation": {"number": 64, "value": 0}, "group": "control_change"}, {"time": 2769, "annotation": {"number": 64, "value": 127}, "group": "control_change"}, {"time": 2791, "annotation": {"number": 64, "value": 0}, "group": "control_change"}, {"time": 2792, "annotation": {"number": 64, "value": 127}, "group": "control_change"}, {"time": 2814, "annotation": {"number": 64, "value": 0}, "group": "control_change"}, {"time": 2816, "annotation": {"number": 64, "value": 127}, "group": "control_change"}, {"time": 2838, "annotation": {"number": 64, "value": 0}, "group": "control_change"}, {"time": 2840, "annotation": {"number": 64, "value": 127}, "group": "control_change"}, {"time": 2863, "annotation": {"number": 64, "value": 0}, "group": "control_change"}, {"time": 2868, "annotation": {"number": 64, "value": 127}, "group": "control_change"}, {"time": 2911, "annotation": {"number": 64, "value": 0}, "group": "control_change"}, {"time": 2912, "annotation": {"number": 64, "value": 127}, "group": "control_change"}, {"time": 2948, "annotation": {"number": 64, "value": 0}, "group": "control_change"}, {"time": 2949, "annotation": {"number": 64, "value": 127}, "group": "control_change"}, {"time": 2959, "annotation": {"number": 64, "value": 0}, "group": "control_change"}, {"time": 2961, "annotation": {"number": 64, "value": 127}, "group": "control_change"}, {"time": 2983, "annotation": {"number": 64, "value": 0}, "group": "control_change"}, {"time": 2984, "annotation": {"number": 64, "value": 127}, "group": "control_change"}, {"time": 3006, "annotation": {"number": 64, "value": 0}, "group": "control_change"}, {"time": 3007, "annotation": {"number": 64, "value": 127}, "group": "control_change"}, {"time": 3031, "annotation": {"number": 64, "value": 0}, "group": "control_change"}, {"time": 3032, "annotation": {"number": 64, "value": 127}, "group": "control_change"}, {"time": 3054, "annotation": {"number": 64, "value": 0}, "group": "control_change"}, {"time": 3055, "annotation": {"number": 64, "value": 127}, "group": "control_change"}, {"time": 3102, "annotation": {"number": 64, "value": 0}, "group": "control_change"}, {"time": 3104, "annotation": {"number": 64, "value": 127}, "group": "control_change"}, {"time": 3126, "annotation": {"number": 64, "value": 0}, "group": "control_change"}, {"time": 3128, "annotation": {"number": 64, "value": 127}, "group": "control_change"}, {"time": 3151, "annotation": {"number": 64, "value": 0}, "group": "control_change"}, {"time": 3153, "annotation": {"number": 64, "value": 127}, "group": "control_change"}, {"time": 3198, "annotation": {"number": 64, "value": 0}, "group": "control_change"}, {"time": 3199, "annotation": {"number": 64, "value": 127}, "group": "control_change"}, {"time": 3246, "annotation": {"number": 64, "value": 0}, "group": "control_change"}, {"time": 3247, "annotation": {"number": 64, "value": 127}, "group": "control_change"}, {"time": 3270, "annotation": {"number": 64, "value": 0}, "group": "control_change"}, {"time": 3272, "annotation": {"number": 64, "value": 127}, "group": "control_change"}, {"time": 3293, "annotation": {"number": 64, "value": 0}, "group": "control_change"}, {"time": 3294, "annotation": {"number": 64, "value": 127}, "group": "control_change"}, {"time": 3319, "annotation": {"number": 64, "value": 0}, "group": "control_change"}, {"time": 3320, "annotation": {"number": 64, "value": 127}, "group": "control_change"}, {"time": 3341, "annotation": {"number": 64, "value": 0}, "group": "control_change"}, {"time": 3391, "annotation": {"number": 64, "value": 0}, "group": "control_change"}, {"time": 3392, "annotation": {"number": 64, "value": 127}, "group": "control_change"}, {"time": 3438, "annotation": {"number": 64, "value": 0}, "group": "control_change"}, {"time": 3440, "annotation": {"number": 64, "value": 127}, "group": "control_change"}, {"time": 3484, "annotation": {"number": 64, "value": 0}, "group": "control_change"}, {"time": 3511, "annotation": {"number": 64, "value": 0}, "group": "control_change"}, {"time": 3512, "annotation": {"number": 64, "value": 127}, "group": "control_change"}, {"time": 3534, "annotation": {"number": 64, "value": 0}, "group": "control_change"}, {"time": 3535, "annotation": {"number": 64, "value": 127}, "group": "control_change"}, {"time": 3582, "annotation": {"number": 64, "value": 0}, "group": "control_change"}, {"time": 3584, "annotation": {"number": 64, "value": 127}, "group": "control_change"}, {"time": 3606, "annotation": {"number": 64, "value": 0}, "group": "control_change"}, {"time": 3608, "annotation": {"number": 64, "value": 127}, "group": "control_change"}, {"time": 3631, "annotation": {"number": 64, "value": 0}, "group": "control_change"}, {"time": 3633, "annotation": {"number": 64, "value": 127}, "group": "control_change"}, {"time": 3678, "annotation": {"number": 64, "value": 0}, "group": "control_change"}, {"time": 3679, "annotation": {"number": 64, "value": 127}, "group": "control_change"}, {"time": 3726, "annotation": {"number": 64, "value": 0}, "group": "control_change"}, {"time": 3728, "annotation": {"number": 64, "value": 127}, "group": "control_change"}, {"time": 3728, "annotation": {"number": 64, "value": 0}, "group": "control_change"}, {"time": 3750, "annotation": {"number": 64, "value": 0}, "group": "control_change"}, {"time": 3752, "annotation": {"number": 64, "value": 127}, "group": "control_change"}, {"time": 3774, "annotation": {"number": 64, "value": 0}, "group": "control_change"}, {"time": 3776, "annotation": {"number": 64, "value": 127}, "group": "control_change"}, {"time": 3799, "annotation": {"number": 64, "value": 0}, "group": "control_change"}, {"time": 3800, "annotation": {"number": 64, "value": 127}, "group": "control_change"}, {"time": 3821, "annotation": {"number": 64, "value": 0}, "group": "control_change"}, {"time": 3823, "annotation": {"number": 64, "value": 127}, "group": "control_change"}, {"time": 3849, "annotation": {"number": 64, "value": 0}, "group": "control_change"}, {"time": 3852, "annotation": {"number": 64, "value": 127}, "group": "control_change"}, {"time": 3898, "annotation": {"number": 64, "value": 0}, "group": "control_change"}, {"time": 3901, "annotation": {"number": 64, "value": 127}, "group": "control_change"}, {"time": 3999, "annotation": {"number": 64, "value": 0}, "group": "control_change"}]}]}