{"metadata": {"schema_version": "0.2", "title": "None", "source_filename": "697.mid", "source_format": "midi"}, "resolution": 12, "tempos": [{"time": 0, "qpm": 60.0}], "time_signatures": [{"time": 0, "numerator": 1, "denominator": 4}], "tracks": [{"program": 0, "is_drum": false, "name": "MELODY", "notes": [{"time": 395, "pitch": 55, "duration": 3, "velocity": 84}, {"time": 398, "pitch": 67, "duration": 5, "velocity": 85}, {"time": 406, "pitch": 65, "duration": 3, "velocity": 82}, {"time": 409, "pitch": 63, "duration": 7, "velocity": 83}, {"time": 416, "pitch": 62, "duration": 3, "velocity": 79}, {"time": 419, "pitch": 63, "duration": 10, "velocity": 87}, {"time": 430, "pitch": 60, "duration": 2, "velocity": 86}, {"time": 433, "pitch": 63, "duration": 4, "velocity": 89}, {"time": 438, "pitch": 70, "duration": 5, "velocity": 83}, {"time": 444, "pitch": 70, "duration": 5, "velocity": 94}, {"time": 450, "pitch": 68, "duration": 4, "velocity": 85}, {"time": 456, "pitch": 68, "duration": 6, "velocity": 85}, {"time": 462, "pitch": 67, "duration": 6, "velocity": 74}, {"time": 468, "pitch": 65, "duration": 17, "velocity": 83}, {"time": 492, "pitch": 62, "duration": 8, "velocity": 85}, {"time": 501, "pitch": 63, "duration": 2, "velocity": 75}, {"time": 504, "pitch": 65, "duration": 5, "velocity": 84}, {"time": 510, "pitch": 62, "duration": 3, "velocity": 85}, {"time": 514, "pitch": 58, "duration": 9, "velocity": 83}, {"time": 525, "pitch": 58, "duration": 3, "velocity": 81}, {"time": 529, "pitch": 60, "duration": 5, "velocity": 85}, {"time": 535, "pitch": 72, "duration": 4, "velocity": 85}, {"time": 541, "pitch": 72, "duration": 4, "velocity": 89}, {"time": 546, "pitch": 70, "duration": 5, "velocity": 92}, {"time": 553, "pitch": 70, "duration": 6, "velocity": 86}, {"time": 558, "pitch": 68, "duration": 3, "velocity": 83}, {"time": 561, "pitch": 67, "duration": 21, "velocity": 79}, {"time": 582, "pitch": 65, "duration": 3, "velocity": 83}, {"time": 585, "pitch": 67, "duration": 3, "velocity": 83}, {"time": 589, "pitch": 68, "duration": 6, "velocity": 85}, {"time": 594, "pitch": 67, "duration": 3, "velocity": 75}, {"time": 597, "pitch": 65, "duration": 13, "velocity": 79}, {"time": 612, "pitch": 62, "duration": 5, "velocity": 79}, {"time": 618, "pitch": 62, "duration": 3, "velocity": 78}, {"time": 621, "pitch": 63, "duration": 5, "velocity": 84}, {"time": 627, "pitch": 65, "duration": 8, "velocity": 87}, {"time": 636, "pitch": 67, "duration": 8, "velocity": 88}, {"time": 645, "pitch": 72, "duration": 7, "velocity": 83}, {"time": 654, "pitch": 67, "duration": 3, "velocity": 83}, {"time": 657, "pitch": 65, "duration": 3, "velocity": 81}, {"time": 660, "pitch": 63, "duration": 15, "velocity": 84}, {"time": 682, "pitch": 55, "duration": 2, "velocity": 85}, {"time": 685, "pitch": 67, "duration": 4, "velocity": 83}, {"time": 690, "pitch": 65, "duration": 2, "velocity": 83}, {"time": 693, "pitch": 65, "duration": 2, "velocity": 81}, {"time": 697, "pitch": 63, "duration": 5, "velocity": 84}, {"time": 702, "pitch": 62, "duration": 4, "velocity": 84}, {"time": 708, "pitch": 62, "duration": 5, "velocity": 86}, {"time": 715, "pitch": 63, "duration": 5, "velocity": 84}, {"time": 721, "pitch": 62, "duration": 4, "velocity": 83}, {"time": 726, "pitch": 58, "duration": 5, "velocity": 85}, {"time": 732, "pitch": 62, "duration": 12, "velocity": 79}, {"time": 745, "pitch": 62, "duration": 4, "velocity": 83}, {"time": 750, "pitch": 60, "duration": 6, "velocity": 84}, {"time": 757, "pitch": 60, "duration": 19, "velocity": 84}, {"time": 781, "pitch": 68, "duration": 2, "velocity": 87}, {"time": 784, "pitch": 67, "duration": 2, "velocity": 80}, {"time": 787, "pitch": 68, "duration": 3, "velocity": 90}, {"time": 790, "pitch": 67, "duration": 2, "velocity": 83}, {"time": 793, "pitch": 68, "duration": 4, "velocity": 92}, {"time": 799, "pitch": 68, "duration": 2, "velocity": 85}, {"time": 802, "pitch": 70, "duration": 2, "velocity": 89}, {"time": 805, "pitch": 72, "duration": 7, "velocity": 88}, {"time": 814, "pitch": 70, "duration": 8, "velocity": 88}, {"time": 823, "pitch": 68, "duration": 4, "velocity": 85}, {"time": 829, "pitch": 67, "duration": 3, "velocity": 84}, {"time": 832, "pitch": 68, "duration": 3, "velocity": 86}, {"time": 835, "pitch": 67, "duration": 31, "velocity": 84}, {"time": 877, "pitch": 65, "duration": 2, "velocity": 84}, {"time": 880, "pitch": 63, "duration": 2, "velocity": 83}, {"time": 883, "pitch": 65, "duration": 2, "velocity": 83}, {"time": 886, "pitch": 63, "duration": 2, "velocity": 84}, {"time": 889, "pitch": 65, "duration": 4, "velocity": 85}, {"time": 895, "pitch": 65, "duration": 1, "velocity": 83}, {"time": 898, "pitch": 67, "duration": 1, "velocity": 84}, {"time": 901, "pitch": 68, "duration": 4, "velocity": 85}, {"time": 907, "pitch": 67, "duration": 4, "velocity": 86}, {"time": 913, "pitch": 62, "duration": 2, "velocity": 84}, {"time": 916, "pitch": 67, "duration": 8, "velocity": 82}, {"time": 925, "pitch": 67, "duration": 31, "velocity": 85}, {"time": 973, "pitch": 68, "duration": 2, "velocity": 94}, {"time": 976, "pitch": 67, "duration": 2, "velocity": 74}, {"time": 979, "pitch": 68, "duration": 2, "velocity": 84}, {"time": 982, "pitch": 67, "duration": 2, "velocity": 83}, {"time": 985, "pitch": 68, "duration": 5, "velocity": 85}, {"time": 991, "pitch": 68, "duration": 2, "velocity": 88}, {"time": 994, "pitch": 70, "duration": 2, "velocity": 87}, {"time": 997, "pitch": 72, "duration": 5, "velocity": 87}, {"time": 1003, "pitch": 70, "duration": 2, "velocity": 86}, {"time": 1006, "pitch": 70, "duration": 7, "velocity": 87}, {"time": 1015, "pitch": 68, "duration": 5, "velocity": 84}, {"time": 1021, "pitch": 67, "duration": 7, "velocity": 87}, {"time": 1030, "pitch": 70, "duration": 8, "velocity": 87}, {"time": 1039, "pitch": 75, "duration": 2, "velocity": 88}, {"time": 1042, "pitch": 74, "duration": 2, "velocity": 83}, {"time": 1045, "pitch": 72, "duration": 20, "velocity": 84}, {"time": 1081, "pitch": 72, "duration": 2, "velocity": 83}, {"time": 1084, "pitch": 72, "duration": 2, "velocity": 84}, {"time": 1087, "pitch": 72, "duration": 2, "velocity": 85}, {"time": 1090, "pitch": 72, "duration": 2, "velocity": 85}, {"time": 1093, "pitch": 72, "duration": 4, "velocity": 84}, {"time": 1099, "pitch": 74, "duration": 2, "velocity": 87}, {"time": 1102, "pitch": 75, "duration": 8, "velocity": 84}, {"time": 1111, "pitch": 72, "duration": 5, "velocity": 88}, {"time": 1117, "pitch": 74, "duration": 5, "velocity": 94}, {"time": 1123, "pitch": 75, "duration": 2, "velocity": 89}, {"time": 1126, "pitch": 74, "duration": 21, "velocity": 88}, {"time": 1147, "pitch": 67, "duration": 4, "velocity": 87}, {"time": 1153, "pitch": 79, "duration": 4, "velocity": 85}, {"time": 1159, "pitch": 77, "duration": 4, "velocity": 86}, {"time": 1165, "pitch": 75, "duration": 5, "velocity": 87}, {"time": 1171, "pitch": 74, "duration": 2, "velocity": 84}, {"time": 1174, "pitch": 75, "duration": 19, "velocity": 86}, {"time": 1195, "pitch": 67, "duration": 4, "velocity": 88}, {"time": 1201, "pitch": 79, "duration": 4, "velocity": 87}, {"time": 1207, "pitch": 77, "duration": 4, "velocity": 87}, {"time": 1213, "pitch": 75, "duration": 9, "velocity": 89}, {"time": 1222, "pitch": 68, "duration": 18, "velocity": 86}, {"time": 1243, "pitch": 65, "duration": 5, "velocity": 99}, {"time": 1249, "pitch": 77, "duration": 4, "velocity": 87}, {"time": 1255, "pitch": 75, "duration": 4, "velocity": 90}, {"time": 1261, "pitch": 74, "duration": 2, "velocity": 83}, {"time": 1264, "pitch": 75, "duration": 2, "velocity": 87}, {"time": 1267, "pitch": 74, "duration": 6, "velocity": 97}, {"time": 1273, "pitch": 74, "duration": 3, "velocity": 94}, {"time": 1279, "pitch": 72, "duration": 2, "velocity": 84}, {"time": 1282, "pitch": 70, "duration": 7, "velocity": 89}, {"time": 1291, "pitch": 72, "duration": 4, "velocity": 85}, {"time": 1297, "pitch": 74, "duration": 4, "velocity": 92}, {"time": 1303, "pitch": 68, "duration": 4, "velocity": 87}, {"time": 1309, "pitch": 68, "duration": 5, "velocity": 90}, {"time": 1315, "pitch": 67, "duration": 2, "velocity": 85}, {"time": 1318, "pitch": 67, "duration": 3, "velocity": 88}, {"time": 1321, "pitch": 70, "duration": 4, "velocity": 89}, {"time": 1327, "pitch": 68, "duration": 2, "velocity": 85}, {"time": 1330, "pitch": 67, "duration": 7, "velocity": 84}, {"time": 1339, "pitch": 67, "duration": 5, "velocity": 88}, {"time": 1345, "pitch": 79, "duration": 4, "velocity": 89}, {"time": 1351, "pitch": 77, "duration": 5, "velocity": 90}, {"time": 1357, "pitch": 75, "duration": 6, "velocity": 87}, {"time": 1363, "pitch": 74, "duration": 2, "velocity": 86}, {"time": 1366, "pitch": 75, "duration": 16, "velocity": 85}, {"time": 1387, "pitch": 72, "duration": 3, "velocity": 87}, {"time": 1393, "pitch": 75, "duration": 5, "velocity": 90}, {"time": 1399, "pitch": 79, "duration": 4, "velocity": 88}, {"time": 1405, "pitch": 80, "duration": 7, "velocity": 90}, {"time": 1414, "pitch": 80, "duration": 9, "velocity": 89}, {"time": 1423, "pitch": 79, "duration": 3, "velocity": 83}, {"time": 1426, "pitch": 77, "duration": 15, "velocity": 85}, {"time": 1459, "pitch": 74, "duration": 2, "velocity": 94}, {"time": 1462, "pitch": 75, "duration": 3, "velocity": 87}, {"time": 1465, "pitch": 74, "duration": 5, "velocity": 94}, {"time": 1471, "pitch": 75, "duration": 3, "velocity": 85}, {"time": 1474, "pitch": 74, "duration": 7, "velocity": 86}, {"time": 1483, "pitch": 75, "duration": 4, "velocity": 87}, {"time": 1489, "pitch": 74, "duration": 4, "velocity": 90}, {"time": 1495, "pitch": 67, "duration": 5, "velocity": 87}, {"time": 1501, "pitch": 74, "duration": 12, "velocity": 94}, {"time": 1513, "pitch": 72, "duration": 33, "velocity": 87}, {"time": 1933, "pitch": 68, "duration": 2, "velocity": 87}, {"time": 1936, "pitch": 67, "duration": 2, "velocity": 80}, {"time": 1939, "pitch": 68, "duration": 3, "velocity": 90}, {"time": 1942, "pitch": 67, "duration": 2, "velocity": 83}, {"time": 1945, "pitch": 68, "duration": 4, "velocity": 92}, {"time": 1951, "pitch": 68, "duration": 2, "velocity": 85}, {"time": 1954, "pitch": 70, "duration": 2, "velocity": 89}, {"time": 1957, "pitch": 72, "duration": 7, "velocity": 88}, {"time": 1966, "pitch": 70, "duration": 8, "velocity": 88}, {"time": 1975, "pitch": 68, "duration": 4, "velocity": 85}, {"time": 1981, "pitch": 67, "duration": 3, "velocity": 84}, {"time": 1984, "pitch": 68, "duration": 3, "velocity": 86}, {"time": 1987, "pitch": 67, "duration": 31, "velocity": 84}, {"time": 2029, "pitch": 65, "duration": 2, "velocity": 84}, {"time": 2032, "pitch": 63, "duration": 2, "velocity": 83}, {"time": 2035, "pitch": 65, "duration": 2, "velocity": 83}, {"time": 2038, "pitch": 63, "duration": 2, "velocity": 84}, {"time": 2041, "pitch": 65, "duration": 4, "velocity": 85}, {"time": 2047, "pitch": 65, "duration": 1, "velocity": 83}, {"time": 2050, "pitch": 67, "duration": 1, "velocity": 84}, {"time": 2053, "pitch": 68, "duration": 4, "velocity": 85}, {"time": 2059, "pitch": 67, "duration": 4, "velocity": 86}, {"time": 2065, "pitch": 62, "duration": 2, "velocity": 84}, {"time": 2068, "pitch": 67, "duration": 8, "velocity": 82}, {"time": 2077, "pitch": 67, "duration": 31, "velocity": 85}, {"time": 2125, "pitch": 68, "duration": 2, "velocity": 94}, {"time": 2128, "pitch": 67, "duration": 2, "velocity": 74}, {"time": 2131, "pitch": 68, "duration": 2, "velocity": 84}, {"time": 2134, "pitch": 67, "duration": 2, "velocity": 83}, {"time": 2137, "pitch": 68, "duration": 5, "velocity": 85}, {"time": 2143, "pitch": 68, "duration": 2, "velocity": 88}, {"time": 2146, "pitch": 70, "duration": 2, "velocity": 87}, {"time": 2149, "pitch": 72, "duration": 5, "velocity": 87}, {"time": 2155, "pitch": 70, "duration": 2, "velocity": 86}, {"time": 2158, "pitch": 70, "duration": 7, "velocity": 87}, {"time": 2167, "pitch": 68, "duration": 5, "velocity": 84}, {"time": 2173, "pitch": 67, "duration": 7, "velocity": 87}, {"time": 2182, "pitch": 70, "duration": 8, "velocity": 87}, {"time": 2191, "pitch": 75, "duration": 2, "velocity": 88}, {"time": 2194, "pitch": 74, "duration": 2, "velocity": 83}, {"time": 2197, "pitch": 72, "duration": 20, "velocity": 84}, {"time": 2233, "pitch": 72, "duration": 2, "velocity": 83}, {"time": 2236, "pitch": 72, "duration": 2, "velocity": 84}, {"time": 2239, "pitch": 72, "duration": 2, "velocity": 85}, {"time": 2242, "pitch": 72, "duration": 2, "velocity": 85}, {"time": 2245, "pitch": 72, "duration": 4, "velocity": 84}, {"time": 2251, "pitch": 74, "duration": 2, "velocity": 87}, {"time": 2254, "pitch": 75, "duration": 8, "velocity": 84}, {"time": 2263, "pitch": 72, "duration": 5, "velocity": 88}, {"time": 2269, "pitch": 74, "duration": 5, "velocity": 94}, {"time": 2275, "pitch": 75, "duration": 2, "velocity": 89}, {"time": 2278, "pitch": 74, "duration": 21, "velocity": 88}, {"time": 2299, "pitch": 67, "duration": 4, "velocity": 87}, {"time": 2305, "pitch": 79, "duration": 4, "velocity": 85}, {"time": 2311, "pitch": 77, "duration": 4, "velocity": 86}, {"time": 2317, "pitch": 75, "duration": 5, "velocity": 87}, {"time": 2323, "pitch": 74, "duration": 2, "velocity": 84}, {"time": 2326, "pitch": 75, "duration": 19, "velocity": 86}, {"time": 2347, "pitch": 67, "duration": 4, "velocity": 88}, {"time": 2353, "pitch": 79, "duration": 4, "velocity": 87}, {"time": 2359, "pitch": 77, "duration": 4, "velocity": 87}, {"time": 2365, "pitch": 75, "duration": 9, "velocity": 89}, {"time": 2374, "pitch": 68, "duration": 18, "velocity": 86}, {"time": 2395, "pitch": 65, "duration": 5, "velocity": 99}, {"time": 2401, "pitch": 77, "duration": 4, "velocity": 87}, {"time": 2407, "pitch": 75, "duration": 4, "velocity": 90}, {"time": 2413, "pitch": 74, "duration": 2, "velocity": 83}, {"time": 2416, "pitch": 75, "duration": 2, "velocity": 87}, {"time": 2419, "pitch": 74, "duration": 6, "velocity": 97}, {"time": 2425, "pitch": 74, "duration": 3, "velocity": 94}, {"time": 2431, "pitch": 72, "duration": 2, "velocity": 84}, {"time": 2434, "pitch": 70, "duration": 7, "velocity": 89}, {"time": 2443, "pitch": 72, "duration": 4, "velocity": 85}, {"time": 2449, "pitch": 74, "duration": 4, "velocity": 92}, {"time": 2455, "pitch": 68, "duration": 4, "velocity": 87}, {"time": 2461, "pitch": 68, "duration": 5, "velocity": 90}, {"time": 2467, "pitch": 67, "duration": 2, "velocity": 85}, {"time": 2470, "pitch": 67, "duration": 3, "velocity": 88}, {"time": 2473, "pitch": 70, "duration": 4, "velocity": 89}, {"time": 2479, "pitch": 68, "duration": 2, "velocity": 85}, {"time": 2482, "pitch": 67, "duration": 7, "velocity": 84}, {"time": 2491, "pitch": 67, "duration": 5, "velocity": 88}, {"time": 2497, "pitch": 79, "duration": 4, "velocity": 89}, {"time": 2503, "pitch": 77, "duration": 5, "velocity": 90}, {"time": 2509, "pitch": 75, "duration": 6, "velocity": 87}, {"time": 2515, "pitch": 74, "duration": 2, "velocity": 86}, {"time": 2518, "pitch": 75, "duration": 16, "velocity": 85}, {"time": 2539, "pitch": 72, "duration": 3, "velocity": 87}, {"time": 2545, "pitch": 75, "duration": 5, "velocity": 90}, {"time": 2551, "pitch": 79, "duration": 4, "velocity": 88}, {"time": 2557, "pitch": 80, "duration": 7, "velocity": 90}, {"time": 2566, "pitch": 80, "duration": 9, "velocity": 89}, {"time": 2575, "pitch": 79, "duration": 3, "velocity": 83}, {"time": 2578, "pitch": 77, "duration": 15, "velocity": 85}, {"time": 2611, "pitch": 74, "duration": 2, "velocity": 94}, {"time": 2614, "pitch": 75, "duration": 3, "velocity": 87}, {"time": 2617, "pitch": 74, "duration": 5, "velocity": 94}, {"time": 2623, "pitch": 75, "duration": 3, "velocity": 85}, {"time": 2626, "pitch": 74, "duration": 7, "velocity": 86}, {"time": 2635, "pitch": 75, "duration": 4, "velocity": 87}, {"time": 2641, "pitch": 74, "duration": 4, "velocity": 90}, {"time": 2647, "pitch": 67, "duration": 5, "velocity": 87}, {"time": 2653, "pitch": 74, "duration": 12, "velocity": 94}, {"time": 2665, "pitch": 72, "duration": 15, "velocity": 87}, {"time": 2683, "pitch": 67, "duration": 4, "velocity": 87}, {"time": 2689, "pitch": 79, "duration": 4, "velocity": 85}, {"time": 2695, "pitch": 77, "duration": 4, "velocity": 86}, {"time": 2701, "pitch": 75, "duration": 5, "velocity": 87}, {"time": 2707, "pitch": 74, "duration": 2, "velocity": 84}, {"time": 2710, "pitch": 75, "duration": 19, "velocity": 86}, {"time": 2731, "pitch": 67, "duration": 4, "velocity": 88}, {"time": 2737, "pitch": 79, "duration": 4, "velocity": 87}, {"time": 2743, "pitch": 77, "duration": 4, "velocity": 87}, {"time": 2749, "pitch": 75, "duration": 9, "velocity": 89}, {"time": 2758, "pitch": 68, "duration": 18, "velocity": 86}, {"time": 2779, "pitch": 65, "duration": 5, "velocity": 99}, {"time": 2785, "pitch": 77, "duration": 4, "velocity": 87}, {"time": 2791, "pitch": 75, "duration": 4, "velocity": 90}, {"time": 2797, "pitch": 74, "duration": 2, "velocity": 83}, {"time": 2800, "pitch": 75, "duration": 2, "velocity": 87}, {"time": 2803, "pitch": 74, "duration": 6, "velocity": 97}, {"time": 2809, "pitch": 74, "duration": 3, "velocity": 94}, {"time": 2815, "pitch": 72, "duration": 2, "velocity": 84}, {"time": 2818, "pitch": 70, "duration": 7, "velocity": 89}, {"time": 2827, "pitch": 72, "duration": 4, "velocity": 85}, {"time": 2833, "pitch": 74, "duration": 4, "velocity": 92}, {"time": 2839, "pitch": 68, "duration": 4, "velocity": 87}, {"time": 2845, "pitch": 68, "duration": 5, "velocity": 90}, {"time": 2851, "pitch": 67, "duration": 2, "velocity": 85}, {"time": 2854, "pitch": 67, "duration": 3, "velocity": 88}, {"time": 2857, "pitch": 70, "duration": 4, "velocity": 89}, {"time": 2863, "pitch": 68, "duration": 2, "velocity": 85}, {"time": 2866, "pitch": 67, "duration": 7, "velocity": 84}, {"time": 2875, "pitch": 67, "duration": 5, "velocity": 88}, {"time": 2881, "pitch": 79, "duration": 4, "velocity": 89}, {"time": 2887, "pitch": 77, "duration": 5, "velocity": 90}, {"time": 2893, "pitch": 75, "duration": 6, "velocity": 87}, {"time": 2899, "pitch": 74, "duration": 2, "velocity": 86}, {"time": 2902, "pitch": 75, "duration": 16, "velocity": 85}, {"time": 2923, "pitch": 72, "duration": 3, "velocity": 87}, {"time": 2929, "pitch": 75, "duration": 5, "velocity": 90}, {"time": 2935, "pitch": 79, "duration": 4, "velocity": 88}, {"time": 2941, "pitch": 80, "duration": 7, "velocity": 90}, {"time": 2950, "pitch": 80, "duration": 9, "velocity": 89}, {"time": 2959, "pitch": 79, "duration": 3, "velocity": 83}, {"time": 2962, "pitch": 77, "duration": 15, "velocity": 85}, {"time": 2995, "pitch": 74, "duration": 2, "velocity": 94}, {"time": 2998, "pitch": 75, "duration": 3, "velocity": 87}, {"time": 3001, "pitch": 74, "duration": 5, "velocity": 94}, {"time": 3007, "pitch": 75, "duration": 3, "velocity": 85}, {"time": 3010, "pitch": 74, "duration": 7, "velocity": 86}, {"time": 3019, "pitch": 75, "duration": 4, "velocity": 87}, {"time": 3025, "pitch": 74, "duration": 4, "velocity": 90}, {"time": 3031, "pitch": 67, "duration": 5, "velocity": 87}, {"time": 3037, "pitch": 74, "duration": 12, "velocity": 94}, {"time": 3049, "pitch": 72, "duration": 33, "velocity": 87}]}, {"program": 0, "is_drum": false, "name": "PIANO", "notes": [{"time": 13, "pitch": 41, "duration": 39, "velocity": 83}, {"time": 16, "pitch": 48, "duration": 35, "velocity": 72}, {"time": 19, "pitch": 53, "duration": 10, "velocity": 77}, {"time": 22, "pitch": 56, "duration": 7, "velocity": 84}, {"time": 28, "pitch": 63, "duration": 3, "velocity": 63}, {"time": 37, "pitch": 56, "duration": 11, "velocity": 58}, {"time": 37, "pitch": 63, "duration": 12, "velocity": 59}, {"time": 61, "pitch": 39, "duration": 37, "velocity": 84}, {"time": 64, "pitch": 46, "duration": 34, "velocity": 69}, {"time": 67, "pitch": 55, "duration": 10, "velocity": 76}, {"time": 70, "pitch": 58, "duration": 4, "velocity": 86}, {"time": 76, "pitch": 58, "duration": 1, "velocity": 61}, {"time": 76, "pitch": 62, "duration": 3, "velocity": 81}, {"time": 85, "pitch": 58, "duration": 9, "velocity": 57}, {"time": 85, "pitch": 62, "duration": 15, "velocity": 78}, {"time": 109, "pitch": 41, "duration": 20, "velocity": 83}, {"time": 109, "pitch": 60, "duration": 6, "velocity": 77}, {"time": 112, "pitch": 48, "duration": 18, "velocity": 78}, {"time": 115, "pitch": 53, "duration": 9, "velocity": 78}, {"time": 118, "pitch": 56, "duration": 10, "velocity": 83}, {"time": 124, "pitch": 63, "duration": 7, "velocity": 72}, {"time": 133, "pitch": 43, "duration": 14, "velocity": 83}, {"time": 133, "pitch": 55, "duration": 9, "velocity": 72}, {"time": 133, "pitch": 62, "duration": 11, "velocity": 79}, {"time": 145, "pitch": 55, "duration": 2, "velocity": 76}, {"time": 145, "pitch": 59, "duration": 2, "velocity": 77}, {"time": 157, "pitch": 36, "duration": 1, "velocity": 78}, {"time": 157, "pitch": 55, "duration": 18, "velocity": 76}, {"time": 157, "pitch": 63, "duration": 18, "velocity": 76}, {"time": 172, "pitch": 48, "duration": 2, "velocity": 76}, {"time": 175, "pitch": 50, "duration": 20, "velocity": 74}, {"time": 178, "pitch": 62, "duration": 2, "velocity": 77}, {"time": 181, "pitch": 55, "duration": 4, "velocity": 77}, {"time": 181, "pitch": 63, "duration": 11, "velocity": 83}, {"time": 187, "pitch": 55, "duration": 2, "velocity": 70}, {"time": 193, "pitch": 55, "duration": 3, "velocity": 82}, {"time": 193, "pitch": 60, "duration": 2, "velocity": 82}, {"time": 205, "pitch": 41, "duration": 23, "velocity": 83}, {"time": 205, "pitch": 56, "duration": 7, "velocity": 78}, {"time": 208, "pitch": 48, "duration": 20, "velocity": 69}, {"time": 211, "pitch": 53, "duration": 10, "velocity": 78}, {"time": 214, "pitch": 56, "duration": 10, "velocity": 80}, {"time": 220, "pitch": 63, "duration": 11, "velocity": 85}, {"time": 241, "pitch": 56, "duration": 5, "velocity": 77}, {"time": 241, "pitch": 63, "duration": 6, "velocity": 74}, {"time": 253, "pitch": 39, "duration": 37, "velocity": 85}, {"time": 253, "pitch": 55, "duration": 4, "velocity": 75}, {"time": 253, "pitch": 58, "duration": 6, "velocity": 69}, {"time": 256, "pitch": 46, "duration": 34, "velocity": 71}, {"time": 259, "pitch": 55, "duration": 9, "velocity": 75}, {"time": 262, "pitch": 58, "duration": 6, "velocity": 88}, {"time": 268, "pitch": 63, "duration": 3, "velocity": 87}, {"time": 271, "pitch": 55, "duration": 3, "velocity": 69}, {"time": 277, "pitch": 62, "duration": 8, "velocity": 79}, {"time": 289, "pitch": 55, "duration": 3, "velocity": 78}, {"time": 289, "pitch": 58, "duration": 3, "velocity": 75}, {"time": 301, "pitch": 41, "duration": 18, "velocity": 83}, {"time": 301, "pitch": 53, "duration": 3, "velocity": 77}, {"time": 301, "pitch": 60, "duration": 6, "velocity": 81}, {"time": 304, "pitch": 48, "duration": 14, "velocity": 72}, {"time": 307, "pitch": 53, "duration": 1, "velocity": 73}, {"time": 310, "pitch": 55, "duration": 5, "velocity": 82}, {"time": 316, "pitch": 56, "duration": 1, "velocity": 94}, {"time": 325, "pitch": 43, "duration": 14, "velocity": 83}, {"time": 325, "pitch": 55, "duration": 6, "velocity": 79}, {"time": 325, "pitch": 60, "duration": 8, "velocity": 78}, {"time": 331, "pitch": 50, "duration": 8, "velocity": 75}, {"time": 337, "pitch": 55, "duration": 2, "velocity": 79}, {"time": 337, "pitch": 59, "duration": 2, "velocity": 78}, {"time": 349, "pitch": 36, "duration": 1, "velocity": 80}, {"time": 349, "pitch": 55, "duration": 4, "velocity": 75}, {"time": 349, "pitch": 60, "duration": 9, "velocity": 74}, {"time": 355, "pitch": 48, "duration": 33, "velocity": 76}, {"time": 361, "pitch": 55, "duration": 15, "velocity": 85}, {"time": 367, "pitch": 60, "duration": 3, "velocity": 78}, {"time": 373, "pitch": 60, "duration": 5, "velocity": 72}, {"time": 373, "pitch": 67, "duration": 5, "velocity": 77}, {"time": 379, "pitch": 55, "duration": 9, "velocity": 66}, {"time": 385, "pitch": 60, "duration": 9, "velocity": 68}, {"time": 385, "pitch": 63, "duration": 9, "velocity": 70}, {"time": 397, "pitch": 48, "duration": 39, "velocity": 84}, {"time": 403, "pitch": 55, "duration": 7, "velocity": 83}, {"time": 409, "pitch": 63, "duration": 4, "velocity": 85}, {"time": 415, "pitch": 62, "duration": 1, "velocity": 84}, {"time": 421, "pitch": 55, "duration": 4, "velocity": 80}, {"time": 421, "pitch": 67, "duration": 10, "velocity": 81}, {"time": 427, "pitch": 55, "duration": 3, "velocity": 68}, {"time": 433, "pitch": 55, "duration": 2, "velocity": 81}, {"time": 433, "pitch": 63, "duration": 2, "velocity": 77}, {"time": 445, "pitch": 41, "duration": 40, "velocity": 85}, {"time": 451, "pitch": 48, "duration": 33, "velocity": 78}, {"time": 457, "pitch": 56, "duration": 6, "velocity": 88}, {"time": 463, "pitch": 55, "duration": 13, "velocity": 85}, {"time": 469, "pitch": 63, "duration": 17, "velocity": 76}, {"time": 481, "pitch": 53, "duration": 4, "velocity": 77}, {"time": 481, "pitch": 56, "duration": 4, "velocity": 77}, {"time": 493, "pitch": 46, "duration": 38, "velocity": 80}, {"time": 493, "pitch": 58, "duration": 5, "velocity": 71}, {"time": 493, "pitch": 62, "duration": 11, "velocity": 81}, {"time": 499, "pitch": 53, "duration": 32, "velocity": 76}, {"time": 505, "pitch": 58, "duration": 15, "velocity": 86}, {"time": 511, "pitch": 62, "duration": 11, "velocity": 77}, {"time": 517, "pitch": 65, "duration": 7, "velocity": 78}, {"time": 529, "pitch": 58, "duration": 1, "velocity": 84}, {"time": 529, "pitch": 62, "duration": 2, "velocity": 83}, {"time": 535, "pitch": 46, "duration": 1, "velocity": 90}, {"time": 541, "pitch": 39, "duration": 39, "velocity": 79}, {"time": 541, "pitch": 55, "duration": 12, "velocity": 75}, {"time": 541, "pitch": 58, "duration": 13, "velocity": 73}, {"time": 547, "pitch": 46, "duration": 33, "velocity": 68}, {"time": 553, "pitch": 63, "duration": 5, "velocity": 87}, {"time": 559, "pitch": 55, "duration": 2, "velocity": 62}, {"time": 565, "pitch": 55, "duration": 4, "velocity": 70}, {"time": 565, "pitch": 58, "duration": 4, "velocity": 66}, {"time": 577, "pitch": 63, "duration": 3, "velocity": 85}, {"time": 589, "pitch": 41, "duration": 19, "velocity": 85}, {"time": 589, "pitch": 53, "duration": 13, "velocity": 76}, {"time": 589, "pitch": 60, "duration": 18, "velocity": 78}, {"time": 595, "pitch": 48, "duration": 14, "velocity": 71}, {"time": 601, "pitch": 56, "duration": 6, "velocity": 88}, {"time": 607, "pitch": 53, "duration": 2, "velocity": 83}, {"time": 613, "pitch": 43, "duration": 16, "velocity": 84}, {"time": 613, "pitch": 55, "duration": 6, "velocity": 77}, {"time": 613, "pitch": 60, "duration": 7, "velocity": 64}, {"time": 619, "pitch": 50, "duration": 9, "velocity": 68}, {"time": 625, "pitch": 55, "duration": 2, "velocity": 84}, {"time": 625, "pitch": 59, "duration": 2, "velocity": 80}, {"time": 637, "pitch": 36, "duration": 17, "velocity": 78}, {"time": 637, "pitch": 60, "duration": 8, "velocity": 80}, {"time": 637, "pitch": 63, "duration": 17, "velocity": 80}, {"time": 643, "pitch": 43, "duration": 11, "velocity": 62}, {"time": 649, "pitch": 55, "duration": 6, "velocity": 83}, {"time": 655, "pitch": 60, "duration": 1, "velocity": 85}, {"time": 661, "pitch": 45, "duration": 19, "velocity": 75}, {"time": 661, "pitch": 57, "duration": 9, "velocity": 61}, {"time": 661, "pitch": 60, "duration": 9, "velocity": 72}, {"time": 661, "pitch": 63, "duration": 8, "velocity": 72}, {"time": 661, "pitch": 67, "duration": 8, "velocity": 60}, {"time": 667, "pitch": 51, "duration": 10, "velocity": 49}, {"time": 673, "pitch": 57, "duration": 7, "velocity": 69}, {"time": 673, "pitch": 60, "duration": 7, "velocity": 77}, {"time": 685, "pitch": 41, "duration": 18, "velocity": 81}, {"time": 685, "pitch": 53, "duration": 12, "velocity": 77}, {"time": 685, "pitch": 56, "duration": 12, "velocity": 73}, {"time": 691, "pitch": 48, "duration": 12, "velocity": 77}, {"time": 697, "pitch": 60, "duration": 6, "velocity": 89}, {"time": 703, "pitch": 53, "duration": 1, "velocity": 74}, {"time": 709, "pitch": 43, "duration": 15, "velocity": 84}, {"time": 709, "pitch": 55, "duration": 6, "velocity": 78}, {"time": 709, "pitch": 60, "duration": 7, "velocity": 81}, {"time": 721, "pitch": 55, "duration": 2, "velocity": 83}, {"time": 733, "pitch": 36, "duration": 1, "velocity": 81}, {"time": 733, "pitch": 60, "duration": 6, "velocity": 72}, {"time": 733, "pitch": 63, "duration": 6, "velocity": 74}, {"time": 739, "pitch": 48, "duration": 31, "velocity": 79}, {"time": 745, "pitch": 62, "duration": 6, "velocity": 83}, {"time": 751, "pitch": 63, "duration": 2, "velocity": 92}, {"time": 757, "pitch": 60, "duration": 5, "velocity": 79}, {"time": 757, "pitch": 63, "duration": 4, "velocity": 84}, {"time": 757, "pitch": 67, "duration": 4, "velocity": 82}, {"time": 763, "pitch": 55, "duration": 8, "velocity": 64}, {"time": 769, "pitch": 60, "duration": 2, "velocity": 83}, {"time": 769, "pitch": 63, "duration": 2, "velocity": 83}, {"time": 781, "pitch": 41, "duration": 20, "velocity": 85}, {"time": 781, "pitch": 60, "duration": 10, "velocity": 82}, {"time": 784, "pitch": 48, "duration": 10, "velocity": 70}, {"time": 787, "pitch": 53, "duration": 5, "velocity": 79}, {"time": 790, "pitch": 56, "duration": 2, "velocity": 90}, {"time": 793, "pitch": 60, "duration": 1, "velocity": 57}, {"time": 793, "pitch": 65, "duration": 5, "velocity": 88}, {"time": 796, "pitch": 48, "duration": 3, "velocity": 77}, {"time": 799, "pitch": 53, "duration": 1, "velocity": 86}, {"time": 805, "pitch": 46, "duration": 18, "velocity": 85}, {"time": 805, "pitch": 58, "duration": 13, "velocity": 90}, {"time": 808, "pitch": 50, "duration": 10, "velocity": 70}, {"time": 811, "pitch": 53, "duration": 6, "velocity": 75}, {"time": 817, "pitch": 62, "duration": 9, "velocity": 89}, {"time": 820, "pitch": 50, "duration": 3, "velocity": 80}, {"time": 823, "pitch": 53, "duration": 3, "velocity": 83}, {"time": 826, "pitch": 58, "duration": 2, "velocity": 85}, {"time": 829, "pitch": 39, "duration": 20, "velocity": 90}, {"time": 829, "pitch": 55, "duration": 10, "velocity": 82}, {"time": 829, "pitch": 58, "duration": 1, "velocity": 79}, {"time": 835, "pitch": 46, "duration": 7, "velocity": 74}, {"time": 841, "pitch": 63, "duration": 2, "velocity": 94}, {"time": 844, "pitch": 46, "duration": 8, "velocity": 84}, {"time": 847, "pitch": 55, "duration": 7, "velocity": 76}, {"time": 850, "pitch": 58, "duration": 5, "velocity": 85}, {"time": 853, "pitch": 39, "duration": 16, "velocity": 83}, {"time": 853, "pitch": 67, "duration": 5, "velocity": 83}, {"time": 856, "pitch": 46, "duration": 10, "velocity": 72}, {"time": 859, "pitch": 55, "duration": 6, "velocity": 77}, {"time": 862, "pitch": 58, "duration": 2, "velocity": 72}, {"time": 865, "pitch": 58, "duration": 1, "velocity": 61}, {"time": 865, "pitch": 63, "duration": 6, "velocity": 90}, {"time": 868, "pitch": 46, "duration": 2, "velocity": 62}, {"time": 871, "pitch": 55, "duration": 2, "velocity": 78}, {"time": 877, "pitch": 41, "duration": 21, "velocity": 84}, {"time": 877, "pitch": 53, "duration": 3, "velocity": 80}, {"time": 877, "pitch": 56, "duration": 6, "velocity": 74}, {"time": 880, "pitch": 48, "duration": 19, "velocity": 78}, {"time": 883, "pitch": 60, "duration": 6, "velocity": 82}, {"time": 886, "pitch": 56, "duration": 2, "velocity": 72}, {"time": 889, "pitch": 65, "duration": 4, "velocity": 87}, {"time": 892, "pitch": 60, "duration": 4, "velocity": 83}, {"time": 895, "pitch": 53, "duration": 4, "velocity": 84}, {"time": 898, "pitch": 60, "duration": 2, "velocity": 73}, {"time": 901, "pitch": 43, "duration": 19, "velocity": 85}, {"time": 901, "pitch": 55, "duration": 3, "velocity": 78}, {"time": 901, "pitch": 59, "duration": 7, "velocity": 76}, {"time": 904, "pitch": 50, "duration": 11, "velocity": 72}, {"time": 907, "pitch": 55, "duration": 6, "velocity": 83}, {"time": 910, "pitch": 62, "duration": 4, "velocity": 76}, {"time": 913, "pitch": 67, "duration": 6, "velocity": 88}, {"time": 916, "pitch": 55, "duration": 3, "velocity": 85}, {"time": 919, "pitch": 50, "duration": 1, "velocity": 83}, {"time": 925, "pitch": 48, "duration": 6, "velocity": 86}, {"time": 925, "pitch": 60, "duration": 3, "velocity": 78}, {"time": 925, "pitch": 63, "duration": 3, "velocity": 83}, {"time": 925, "pitch": 67, "duration": 4, "velocity": 81}, {"time": 928, "pitch": 55, "duration": 4, "velocity": 79}, {"time": 931, "pitch": 60, "duration": 2, "velocity": 97}, {"time": 937, "pitch": 38, "duration": 7, "velocity": 88}, {"time": 937, "pitch": 62, "duration": 2, "velocity": 81}, {"time": 937, "pitch": 65, "duration": 3, "velocity": 79}, {"time": 940, "pitch": 62, "duration": 4, "velocity": 83}, {"time": 943, "pitch": 65, "duration": 2, "velocity": 84}, {"time": 949, "pitch": 39, "duration": 7, "velocity": 90}, {"time": 949, "pitch": 63, "duration": 2, "velocity": 84}, {"time": 949, "pitch": 67, "duration": 6, "velocity": 79}, {"time": 952, "pitch": 46, "duration": 7, "velocity": 84}, {"time": 955, "pitch": 63, "duration": 3, "velocity": 94}, {"time": 958, "pitch": 67, "duration": 1, "velocity": 87}, {"time": 961, "pitch": 40, "duration": 9, "velocity": 87}, {"time": 961, "pitch": 64, "duration": 2, "velocity": 83}, {"time": 961, "pitch": 67, "duration": 7, "velocity": 87}, {"time": 964, "pitch": 46, "duration": 5, "velocity": 79}, {"time": 967, "pitch": 64, "duration": 3, "velocity": 90}, {"time": 970, "pitch": 72, "duration": 3, "velocity": 86}, {"time": 973, "pitch": 41, "duration": 15, "velocity": 85}, {"time": 973, "pitch": 53, "duration": 3, "velocity": 86}, {"time": 973, "pitch": 60, "duration": 6, "velocity": 82}, {"time": 976, "pitch": 48, "duration": 12, "velocity": 79}, {"time": 979, "pitch": 53, "duration": 6, "velocity": 85}, {"time": 982, "pitch": 60, "duration": 3, "velocity": 82}, {"time": 985, "pitch": 65, "duration": 4, "velocity": 87}, {"time": 988, "pitch": 60, "duration": 3, "velocity": 85}, {"time": 991, "pitch": 53, "duration": 4, "velocity": 85}, {"time": 994, "pitch": 60, "duration": 4, "velocity": 76}, {"time": 997, "pitch": 46, "duration": 16, "velocity": 89}, {"time": 1000, "pitch": 53, "duration": 10, "velocity": 73}, {"time": 1003, "pitch": 58, "duration": 3, "velocity": 72}, {"time": 1006, "pitch": 62, "duration": 1, "velocity": 73}, {"time": 1009, "pitch": 58, "duration": 4, "velocity": 85}, {"time": 1009, "pitch": 62, "duration": 7, "velocity": 85}, {"time": 1009, "pitch": 65, "duration": 7, "velocity": 84}, {"time": 1012, "pitch": 53, "duration": 2, "velocity": 78}, {"time": 1015, "pitch": 46, "duration": 1, "velocity": 90}, {"time": 1021, "pitch": 43, "duration": 15, "velocity": 86}, {"time": 1021, "pitch": 55, "duration": 3, "velocity": 79}, {"time": 1021, "pitch": 62, "duration": 7, "velocity": 80}, {"time": 1024, "pitch": 50, "duration": 9, "velocity": 73}, {"time": 1027, "pitch": 55, "duration": 4, "velocity": 82}, {"time": 1030, "pitch": 58, "duration": 1, "velocity": 85}, {"time": 1033, "pitch": 55, "duration": 3, "velocity": 89}, {"time": 1033, "pitch": 62, "duration": 6, "velocity": 87}, {"time": 1036, "pitch": 50, "duration": 2, "velocity": 87}, {"time": 1039, "pitch": 43, "duration": 1, "velocity": 85}, {"time": 1045, "pitch": 36, "duration": 1, "velocity": 83}, {"time": 1045, "pitch": 55, "duration": 3, "velocity": 84}, {"time": 1045, "pitch": 63, "duration": 4, "velocity": 79}, {"time": 1051, "pitch": 48, "duration": 9, "velocity": 71}, {"time": 1054, "pitch": 55, "duration": 6, "velocity": 83}, {"time": 1057, "pitch": 60, "duration": 7, "velocity": 82}, {"time": 1057, "pitch": 67, "duration": 7, "velocity": 81}, {"time": 1069, "pitch": 41, "duration": 16, "velocity": 84}, {"time": 1069, "pitch": 60, "duration": 4, "velocity": 79}, {"time": 1069, "pitch": 65, "duration": 6, "velocity": 78}, {"time": 1072, "pitch": 48, "duration": 12, "velocity": 77}, {"time": 1075, "pitch": 60, "duration": 5, "velocity": 84}, {"time": 1078, "pitch": 65, "duration": 3, "velocity": 79}, {"time": 1081, "pitch": 68, "duration": 6, "velocity": 92}, {"time": 1084, "pitch": 65, "duration": 3, "velocity": 84}, {"time": 1087, "pitch": 60, "duration": 2, "velocity": 85}, {"time": 1093, "pitch": 44, "duration": 16, "velocity": 90}, {"time": 1093, "pitch": 56, "duration": 4, "velocity": 78}, {"time": 1093, "pitch": 63, "duration": 4, "velocity": 82}, {"time": 1096, "pitch": 51, "duration": 13, "velocity": 73}, {"time": 1099, "pitch": 56, "duration": 4, "velocity": 81}, {"time": 1102, "pitch": 60, "duration": 4, "velocity": 75}, {"time": 1105, "pitch": 68, "duration": 5, "velocity": 88}, {"time": 1108, "pitch": 56, "duration": 4, "velocity": 89}, {"time": 1111, "pitch": 60, "duration": 1, "velocity": 79}, {"time": 1117, "pitch": 43, "duration": 22, "velocity": 85}, {"time": 1117, "pitch": 55, "duration": 3, "velocity": 84}, {"time": 1117, "pitch": 59, "duration": 4, "velocity": 86}, {"time": 1120, "pitch": 50, "duration": 7, "velocity": 84}, {"time": 1123, "pitch": 55, "duration": 4, "velocity": 85}, {"time": 1126, "pitch": 62, "duration": 6, "velocity": 92}, {"time": 1129, "pitch": 50, "duration": 8, "velocity": 78}, {"time": 1132, "pitch": 67, "duration": 3, "velocity": 84}, {"time": 1135, "pitch": 55, "duration": 2, "velocity": 76}, {"time": 1141, "pitch": 43, "duration": 15, "velocity": 87}, {"time": 1141, "pitch": 55, "duration": 6, "velocity": 79}, {"time": 1141, "pitch": 59, "duration": 7, "velocity": 86}, {"time": 1141, "pitch": 62, "duration": 7, "velocity": 83}, {"time": 1147, "pitch": 50, "duration": 7, "velocity": 83}, {"time": 1150, "pitch": 55, "duration": 1, "velocity": 78}, {"time": 1153, "pitch": 55, "duration": 3, "velocity": 89}, {"time": 1153, "pitch": 59, "duration": 3, "velocity": 92}, {"time": 1153, "pitch": 62, "duration": 3, "velocity": 88}, {"time": 1156, "pitch": 50, "duration": 1, "velocity": 83}, {"time": 1159, "pitch": 43, "duration": 1, "velocity": 83}, {"time": 1165, "pitch": 36, "duration": 1, "velocity": 84}, {"time": 1165, "pitch": 60, "duration": 7, "velocity": 76}, {"time": 1165, "pitch": 63, "duration": 7, "velocity": 75}, {"time": 1165, "pitch": 67, "duration": 7, "velocity": 79}, {"time": 1171, "pitch": 48, "duration": 8, "velocity": 84}, {"time": 1177, "pitch": 60, "duration": 2, "velocity": 86}, {"time": 1177, "pitch": 63, "duration": 2, "velocity": 100}, {"time": 1177, "pitch": 67, "duration": 3, "velocity": 85}, {"time": 1180, "pitch": 55, "duration": 3, "velocity": 79}, {"time": 1183, "pitch": 62, "duration": 3, "velocity": 88}, {"time": 1186, "pitch": 63, "duration": 10, "velocity": 94}, {"time": 1189, "pitch": 48, "duration": 15, "velocity": 87}, {"time": 1189, "pitch": 60, "duration": 7, "velocity": 77}, {"time": 1189, "pitch": 67, "duration": 7, "velocity": 84}, {"time": 1195, "pitch": 55, "duration": 7, "velocity": 83}, {"time": 1201, "pitch": 60, "duration": 4, "velocity": 88}, {"time": 1201, "pitch": 63, "duration": 4, "velocity": 99}, {"time": 1204, "pitch": 55, "duration": 1, "velocity": 87}, {"time": 1207, "pitch": 62, "duration": 4, "velocity": 84}, {"time": 1210, "pitch": 63, "duration": 2, "velocity": 89}, {"time": 1213, "pitch": 41, "duration": 14, "velocity": 85}, {"time": 1213, "pitch": 65, "duration": 7, "velocity": 84}, {"time": 1219, "pitch": 48, "duration": 7, "velocity": 83}, {"time": 1225, "pitch": 56, "duration": 3, "velocity": 94}, {"time": 1225, "pitch": 60, "duration": 4, "velocity": 89}, {"time": 1228, "pitch": 48, "duration": 1, "velocity": 83}, {"time": 1231, "pitch": 55, "duration": 3, "velocity": 84}, {"time": 1234, "pitch": 56, "duration": 3, "velocity": 94}, {"time": 1237, "pitch": 41, "duration": 14, "velocity": 85}, {"time": 1237, "pitch": 53, "duration": 6, "velocity": 73}, {"time": 1237, "pitch": 60, "duration": 6, "velocity": 83}, {"time": 1243, "pitch": 48, "duration": 7, "velocity": 79}, {"time": 1249, "pitch": 53, "duration": 4, "velocity": 84}, {"time": 1249, "pitch": 56, "duration": 4, "velocity": 97}, {"time": 1249, "pitch": 60, "duration": 5, "velocity": 86}, {"time": 1252, "pitch": 48, "duration": 1, "velocity": 84}, {"time": 1255, "pitch": 41, "duration": 2, "velocity": 85}, {"time": 1261, "pitch": 46, "duration": 13, "velocity": 92}, {"time": 1261, "pitch": 53, "duration": 3, "velocity": 78}, {"time": 1261, "pitch": 58, "duration": 6, "velocity": 79}, {"time": 1264, "pitch": 50, "duration": 11, "velocity": 56}, {"time": 1267, "pitch": 53, "duration": 4, "velocity": 85}, {"time": 1270, "pitch": 58, "duration": 1, "velocity": 85}, {"time": 1273, "pitch": 53, "duration": 1, "velocity": 84}, {"time": 1273, "pitch": 58, "duration": 3, "velocity": 92}, {"time": 1273, "pitch": 62, "duration": 4, "velocity": 88}, {"time": 1276, "pitch": 53, "duration": 3, "velocity": 79}, {"time": 1279, "pitch": 58, "duration": 3, "velocity": 85}, {"time": 1282, "pitch": 53, "duration": 3, "velocity": 76}, {"time": 1285, "pitch": 46, "duration": 14, "velocity": 82}, {"time": 1285, "pitch": 58, "duration": 2, "velocity": 78}, {"time": 1285, "pitch": 62, "duration": 2, "velocity": 84}, {"time": 1288, "pitch": 53, "duration": 10, "velocity": 76}, {"time": 1291, "pitch": 58, "duration": 4, "velocity": 79}, {"time": 1294, "pitch": 62, "duration": 1, "velocity": 79}, {"time": 1297, "pitch": 58, "duration": 4, "velocity": 74}, {"time": 1297, "pitch": 62, "duration": 4, "velocity": 85}, {"time": 1297, "pitch": 65, "duration": 5, "velocity": 84}, {"time": 1300, "pitch": 53, "duration": 2, "velocity": 82}, {"time": 1303, "pitch": 46, "duration": 1, "velocity": 99}, {"time": 1309, "pitch": 39, "duration": 14, "velocity": 94}, {"time": 1309, "pitch": 58, "duration": 6, "velocity": 78}, {"time": 1309, "pitch": 63, "duration": 4, "velocity": 83}, {"time": 1312, "pitch": 46, "duration": 10, "velocity": 72}, {"time": 1315, "pitch": 55, "duration": 4, "velocity": 83}, {"time": 1318, "pitch": 58, "duration": 1, "velocity": 84}, {"time": 1321, "pitch": 55, "duration": 2, "velocity": 84}, {"time": 1321, "pitch": 58, "duration": 2, "velocity": 97}, {"time": 1321, "pitch": 63, "duration": 3, "velocity": 88}, {"time": 1324, "pitch": 46, "duration": 1, "velocity": 83}, {"time": 1327, "pitch": 55, "duration": 1, "velocity": 85}, {"time": 1330, "pitch": 58, "duration": 1, "velocity": 41}, {"time": 1333, "pitch": 39, "duration": 13, "velocity": 94}, {"time": 1333, "pitch": 55, "duration": 3, "velocity": 78}, {"time": 1333, "pitch": 58, "duration": 4, "velocity": 87}, {"time": 1333, "pitch": 63, "duration": 4, "velocity": 85}, {"time": 1336, "pitch": 46, "duration": 10, "velocity": 67}, {"time": 1339, "pitch": 55, "duration": 1, "velocity": 74}, {"time": 1342, "pitch": 55, "duration": 1, "velocity": 83}, {"time": 1342, "pitch": 58, "duration": 1, "velocity": 87}, {"time": 1342, "pitch": 63, "duration": 1, "velocity": 86}, {"time": 1345, "pitch": 55, "duration": 3, "velocity": 87}, {"time": 1345, "pitch": 58, "duration": 3, "velocity": 99}, {"time": 1345, "pitch": 63, "duration": 2, "velocity": 97}, {"time": 1348, "pitch": 46, "duration": 1, "velocity": 92}, {"time": 1351, "pitch": 55, "duration": 1, "velocity": 87}, {"time": 1351, "pitch": 62, "duration": 1, "velocity": 89}, {"time": 1357, "pitch": 48, "duration": 15, "velocity": 85}, {"time": 1357, "pitch": 60, "duration": 3, "velocity": 83}, {"time": 1357, "pitch": 63, "duration": 3, "velocity": 85}, {"time": 1357, "pitch": 67, "duration": 4, "velocity": 82}, {"time": 1360, "pitch": 55, "duration": 10, "velocity": 82}, {"time": 1363, "pitch": 62, "duration": 2, "velocity": 84}, {"time": 1366, "pitch": 63, "duration": 1, "velocity": 94}, {"time": 1369, "pitch": 67, "duration": 3, "velocity": 92}, {"time": 1372, "pitch": 55, "duration": 1, "velocity": 83}, {"time": 1375, "pitch": 60, "duration": 5, "velocity": 81}, {"time": 1378, "pitch": 63, "duration": 10, "velocity": 84}, {"time": 1381, "pitch": 36, "duration": 1, "velocity": 83}, {"time": 1381, "pitch": 60, "duration": 5, "velocity": 61}, {"time": 1384, "pitch": 48, "duration": 1, "velocity": 84}, {"time": 1387, "pitch": 48, "duration": 10, "velocity": 68}, {"time": 1387, "pitch": 55, "duration": 7, "velocity": 85}, {"time": 1390, "pitch": 62, "duration": 4, "velocity": 84}, {"time": 1393, "pitch": 63, "duration": 6, "velocity": 104}, {"time": 1396, "pitch": 55, "duration": 2, "velocity": 85}, {"time": 1399, "pitch": 60, "duration": 4, "velocity": 87}, {"time": 1405, "pitch": 41, "duration": 21, "velocity": 83}, {"time": 1405, "pitch": 60, "duration": 3, "velocity": 81}, {"time": 1405, "pitch": 65, "duration": 2, "velocity": 75}, {"time": 1408, "pitch": 48, "duration": 7, "velocity": 76}, {"time": 1411, "pitch": 55, "duration": 4, "velocity": 79}, {"time": 1414, "pitch": 56, "duration": 6, "velocity": 99}, {"time": 1417, "pitch": 48, "duration": 10, "velocity": 80}, {"time": 1420, "pitch": 60, "duration": 15, "velocity": 90}, {"time": 1426, "pitch": 53, "duration": 6, "velocity": 80}, {"time": 1429, "pitch": 41, "duration": 17, "velocity": 83}, {"time": 1432, "pitch": 48, "duration": 10, "velocity": 79}, {"time": 1435, "pitch": 55, "duration": 3, "velocity": 78}, {"time": 1438, "pitch": 56, "duration": 2, "velocity": 90}, {"time": 1441, "pitch": 53, "duration": 4, "velocity": 83}, {"time": 1441, "pitch": 60, "duration": 7, "velocity": 84}, {"time": 1444, "pitch": 48, "duration": 2, "velocity": 85}, {"time": 1447, "pitch": 53, "duration": 1, "velocity": 92}, {"time": 1453, "pitch": 43, "duration": 22, "velocity": 85}, {"time": 1453, "pitch": 55, "duration": 3, "velocity": 79}, {"time": 1453, "pitch": 59, "duration": 3, "velocity": 80}, {"time": 1456, "pitch": 50, "duration": 20, "velocity": 74}, {"time": 1459, "pitch": 55, "duration": 6, "velocity": 80}, {"time": 1462, "pitch": 62, "duration": 4, "velocity": 83}, {"time": 1465, "pitch": 67, "duration": 4, "velocity": 87}, {"time": 1468, "pitch": 62, "duration": 4, "velocity": 83}, {"time": 1471, "pitch": 55, "duration": 11, "velocity": 87}, {"time": 1474, "pitch": 62, "duration": 10, "velocity": 77}, {"time": 1477, "pitch": 43, "duration": 15, "velocity": 86}, {"time": 1480, "pitch": 50, "duration": 10, "velocity": 77}, {"time": 1483, "pitch": 59, "duration": 4, "velocity": 74}, {"time": 1486, "pitch": 55, "duration": 1, "velocity": 71}, {"time": 1489, "pitch": 55, "duration": 4, "velocity": 88}, {"time": 1489, "pitch": 59, "duration": 4, "velocity": 89}, {"time": 1489, "pitch": 62, "duration": 5, "velocity": 86}, {"time": 1492, "pitch": 50, "duration": 1, "velocity": 83}, {"time": 1495, "pitch": 43, "duration": 1, "velocity": 84}, {"time": 1501, "pitch": 36, "duration": 1, "velocity": 84}, {"time": 1501, "pitch": 55, "duration": 3, "velocity": 78}, {"time": 1501, "pitch": 60, "duration": 6, "velocity": 79}, {"time": 1507, "pitch": 48, "duration": 15, "velocity": 82}, {"time": 1510, "pitch": 55, "duration": 11, "velocity": 77}, {"time": 1513, "pitch": 62, "duration": 4, "velocity": 84}, {"time": 1516, "pitch": 63, "duration": 3, "velocity": 94}, {"time": 1519, "pitch": 67, "duration": 2, "velocity": 84}, {"time": 1522, "pitch": 60, "duration": 2, "velocity": 80}, {"time": 1525, "pitch": 48, "duration": 15, "velocity": 90}, {"time": 1525, "pitch": 60, "duration": 6, "velocity": 70}, {"time": 1525, "pitch": 63, "duration": 7, "velocity": 79}, {"time": 1525, "pitch": 67, "duration": 8, "velocity": 81}, {"time": 1531, "pitch": 55, "duration": 8, "velocity": 77}, {"time": 1534, "pitch": 60, "duration": 1, "velocity": 76}, {"time": 1537, "pitch": 60, "duration": 5, "velocity": 84}, {"time": 1537, "pitch": 63, "duration": 5, "velocity": 94}, {"time": 1537, "pitch": 67, "duration": 5, "velocity": 92}, {"time": 1537, "pitch": 72, "duration": 5, "velocity": 85}, {"time": 1549, "pitch": 41, "duration": 22, "velocity": 83}, {"time": 1549, "pitch": 53, "duration": 6, "velocity": 72}, {"time": 1549, "pitch": 56, "duration": 7, "velocity": 72}, {"time": 1549, "pitch": 60, "duration": 11, "velocity": 80}, {"time": 1555, "pitch": 48, "duration": 13, "velocity": 59}, {"time": 1561, "pitch": 55, "duration": 6, "velocity": 72}, {"time": 1567, "pitch": 56, "duration": 2, "velocity": 86}, {"time": 1573, "pitch": 46, "duration": 15, "velocity": 82}, {"time": 1579, "pitch": 53, "duration": 7, "velocity": 83}, {"time": 1585, "pitch": 58, "duration": 1, "velocity": 69}, {"time": 1585, "pitch": 62, "duration": 2, "velocity": 81}, {"time": 1597, "pitch": 39, "duration": 14, "velocity": 84}, {"time": 1597, "pitch": 58, "duration": 12, "velocity": 69}, {"time": 1597, "pitch": 63, "duration": 13, "velocity": 73}, {"time": 1603, "pitch": 46, "duration": 8, "velocity": 74}, {"time": 1609, "pitch": 55, "duration": 6, "velocity": 85}, {"time": 1615, "pitch": 58, "duration": 1, "velocity": 88}, {"time": 1621, "pitch": 44, "duration": 13, "velocity": 85}, {"time": 1621, "pitch": 56, "duration": 8, "velocity": 77}, {"time": 1621, "pitch": 63, "duration": 6, "velocity": 79}, {"time": 1627, "pitch": 51, "duration": 7, "velocity": 70}, {"time": 1633, "pitch": 56, "duration": 2, "velocity": 83}, {"time": 1633, "pitch": 60, "duration": 1, "velocity": 74}, {"time": 1633, "pitch": 63, "duration": 2, "velocity": 78}, {"time": 1645, "pitch": 41, "duration": 16, "velocity": 84}, {"time": 1645, "pitch": 53, "duration": 10, "velocity": 74}, {"time": 1645, "pitch": 60, "duration": 6, "velocity": 78}, {"time": 1651, "pitch": 48, "duration": 10, "velocity": 71}, {"time": 1657, "pitch": 56, "duration": 4, "velocity": 83}, {"time": 1657, "pitch": 60, "duration": 5, "velocity": 81}, {"time": 1669, "pitch": 43, "duration": 15, "velocity": 83}, {"time": 1669, "pitch": 55, "duration": 6, "velocity": 75}, {"time": 1669, "pitch": 59, "duration": 5, "velocity": 76}, {"time": 1675, "pitch": 50, "duration": 8, "velocity": 68}, {"time": 1681, "pitch": 55, "duration": 2, "velocity": 84}, {"time": 1681, "pitch": 62, "duration": 2, "velocity": 82}, {"time": 1693, "pitch": 36, "duration": 23, "velocity": 78}, {"time": 1693, "pitch": 60, "duration": 7, "velocity": 75}, {"time": 1693, "pitch": 63, "duration": 6, "velocity": 72}, {"time": 1693, "pitch": 67, "duration": 12, "velocity": 76}, {"time": 1699, "pitch": 43, "duration": 14, "velocity": 68}, {"time": 1705, "pitch": 60, "duration": 7, "velocity": 92}, {"time": 1711, "pitch": 62, "duration": 5, "velocity": 99}, {"time": 1717, "pitch": 36, "duration": 1, "velocity": 84}, {"time": 1717, "pitch": 60, "duration": 7, "velocity": 84}, {"time": 1717, "pitch": 64, "duration": 6, "velocity": 85}, {"time": 1723, "pitch": 48, "duration": 8, "velocity": 74}, {"time": 1726, "pitch": 55, "duration": 4, "velocity": 87}, {"time": 1729, "pitch": 60, "duration": 3, "velocity": 88}, {"time": 1729, "pitch": 64, "duration": 4, "velocity": 92}, {"time": 1729, "pitch": 67, "duration": 5, "velocity": 87}, {"time": 1732, "pitch": 55, "duration": 1, "velocity": 92}, {"time": 1735, "pitch": 48, "duration": 1, "velocity": 86}, {"time": 1741, "pitch": 41, "duration": 16, "velocity": 92}, {"time": 1741, "pitch": 53, "duration": 3, "velocity": 80}, {"time": 1741, "pitch": 56, "duration": 3, "velocity": 83}, {"time": 1741, "pitch": 60, "duration": 5, "velocity": 84}, {"time": 1747, "pitch": 48, "duration": 7, "velocity": 88}, {"time": 1750, "pitch": 53, "duration": 1, "velocity": 79}, {"time": 1753, "pitch": 53, "duration": 3, "velocity": 90}, {"time": 1753, "pitch": 56, "duration": 4, "velocity": 104}, {"time": 1753, "pitch": 60, "duration": 7, "velocity": 86}, {"time": 1756, "pitch": 48, "duration": 2, "velocity": 87}, {"time": 1759, "pitch": 41, "duration": 3, "velocity": 85}, {"time": 1762, "pitch": 53, "duration": 1, "velocity": 88}, {"time": 1765, "pitch": 46, "duration": 13, "velocity": 92}, {"time": 1765, "pitch": 53, "duration": 1, "velocity": 79}, {"time": 1765, "pitch": 58, "duration": 4, "velocity": 86}, {"time": 1768, "pitch": 53, "duration": 3, "velocity": 82}, {"time": 1771, "pitch": 58, "duration": 2, "velocity": 67}, {"time": 1774, "pitch": 53, "duration": 1, "velocity": 74}, {"time": 1777, "pitch": 53, "duration": 3, "velocity": 89}, {"time": 1777, "pitch": 58, "duration": 4, "velocity": 97}, {"time": 1777, "pitch": 62, "duration": 5, "velocity": 88}, {"time": 1780, "pitch": 46, "duration": 1, "velocity": 85}, {"time": 1783, "pitch": 46, "duration": 1, "velocity": 88}, {"time": 1789, "pitch": 39, "duration": 13, "velocity": 87}, {"time": 1789, "pitch": 55, "duration": 2, "velocity": 77}, {"time": 1789, "pitch": 58, "duration": 6, "velocity": 80}, {"time": 1789, "pitch": 63, "duration": 4, "velocity": 81}, {"time": 1792, "pitch": 46, "duration": 10, "velocity": 72}, {"time": 1795, "pitch": 55, "duration": 3, "velocity": 83}, {"time": 1798, "pitch": 58, "duration": 1, "velocity": 85}, {"time": 1801, "pitch": 55, "duration": 4, "velocity": 85}, {"time": 1801, "pitch": 58, "duration": 6, "velocity": 97}, {"time": 1801, "pitch": 63, "duration": 7, "velocity": 97}, {"time": 1804, "pitch": 46, "duration": 1, "velocity": 84}, {"time": 1807, "pitch": 39, "duration": 1, "velocity": 84}, {"time": 1813, "pitch": 44, "duration": 14, "velocity": 99}, {"time": 1813, "pitch": 56, "duration": 3, "velocity": 84}, {"time": 1813, "pitch": 63, "duration": 3, "velocity": 83}, {"time": 1816, "pitch": 51, "duration": 10, "velocity": 72}, {"time": 1819, "pitch": 56, "duration": 4, "velocity": 85}, {"time": 1822, "pitch": 60, "duration": 1, "velocity": 83}, {"time": 1825, "pitch": 56, "duration": 3, "velocity": 90}, {"time": 1825, "pitch": 60, "duration": 5, "velocity": 87}, {"time": 1825, "pitch": 63, "duration": 5, "velocity": 88}, {"time": 1825, "pitch": 68, "duration": 5, "velocity": 85}, {"time": 1828, "pitch": 51, "duration": 1, "velocity": 89}, {"time": 1831, "pitch": 44, "duration": 1, "velocity": 89}, {"time": 1837, "pitch": 41, "duration": 15, "velocity": 90}, {"time": 1837, "pitch": 53, "duration": 3, "velocity": 89}, {"time": 1837, "pitch": 65, "duration": 6, "velocity": 83}, {"time": 1840, "pitch": 48, "duration": 10, "velocity": 83}, {"time": 1843, "pitch": 53, "duration": 4, "velocity": 89}, {"time": 1849, "pitch": 53, "duration": 4, "velocity": 94}, {"time": 1849, "pitch": 56, "duration": 3, "velocity": 99}, {"time": 1849, "pitch": 65, "duration": 3, "velocity": 85}, {"time": 1852, "pitch": 48, "duration": 1, "velocity": 84}, {"time": 1855, "pitch": 41, "duration": 1, "velocity": 86}, {"time": 1861, "pitch": 38, "duration": 8, "velocity": 90}, {"time": 1861, "pitch": 50, "duration": 3, "velocity": 84}, {"time": 1861, "pitch": 53, "duration": 6, "velocity": 81}, {"time": 1861, "pitch": 56, "duration": 6, "velocity": 73}, {"time": 1861, "pitch": 60, "duration": 7, "velocity": 83}, {"time": 1864, "pitch": 50, "duration": 1, "velocity": 77}, {"time": 1873, "pitch": 38, "duration": 6, "velocity": 92}, {"time": 1873, "pitch": 50, "duration": 3, "velocity": 94}, {"time": 1873, "pitch": 53, "duration": 5, "velocity": 94}, {"time": 1873, "pitch": 56, "duration": 5, "velocity": 92}, {"time": 1873, "pitch": 60, "duration": 6, "velocity": 86}, {"time": 1885, "pitch": 43, "duration": 15, "velocity": 90}, {"time": 1885, "pitch": 55, "duration": 3, "velocity": 86}, {"time": 1885, "pitch": 67, "duration": 3, "velocity": 83}, {"time": 1891, "pitch": 55, "duration": 3, "velocity": 79}, {"time": 1891, "pitch": 60, "duration": 4, "velocity": 88}, {"time": 1897, "pitch": 55, "duration": 3, "velocity": 89}, {"time": 1897, "pitch": 60, "duration": 4, "velocity": 99}, {"time": 1900, "pitch": 50, "duration": 2, "velocity": 87}, {"time": 1903, "pitch": 55, "duration": 4, "velocity": 87}, {"time": 1906, "pitch": 60, "duration": 2, "velocity": 79}, {"time": 1909, "pitch": 43, "duration": 23, "velocity": 84}, {"time": 1909, "pitch": 55, "duration": 7, "velocity": 83}, {"time": 1909, "pitch": 59, "duration": 7, "velocity": 83}, {"time": 1915, "pitch": 50, "duration": 16, "velocity": 71}, {"time": 1921, "pitch": 59, "duration": 11, "velocity": 79}, {"time": 1921, "pitch": 62, "duration": 11, "velocity": 78}, {"time": 1921, "pitch": 67, "duration": 11, "velocity": 75}, {"time": 1927, "pitch": 55, "duration": 5, "velocity": 76}, {"time": 1933, "pitch": 41, "duration": 20, "velocity": 85}, {"time": 1933, "pitch": 60, "duration": 10, "velocity": 82}, {"time": 1936, "pitch": 48, "duration": 10, "velocity": 70}, {"time": 1939, "pitch": 53, "duration": 5, "velocity": 79}, {"time": 1942, "pitch": 56, "duration": 2, "velocity": 90}, {"time": 1945, "pitch": 60, "duration": 1, "velocity": 57}, {"time": 1945, "pitch": 65, "duration": 5, "velocity": 88}, {"time": 1948, "pitch": 48, "duration": 3, "velocity": 77}, {"time": 1951, "pitch": 53, "duration": 1, "velocity": 86}, {"time": 1957, "pitch": 46, "duration": 18, "velocity": 85}, {"time": 1957, "pitch": 58, "duration": 13, "velocity": 90}, {"time": 1960, "pitch": 50, "duration": 10, "velocity": 70}, {"time": 1963, "pitch": 53, "duration": 6, "velocity": 75}, {"time": 1969, "pitch": 62, "duration": 9, "velocity": 89}, {"time": 1972, "pitch": 50, "duration": 3, "velocity": 80}, {"time": 1975, "pitch": 53, "duration": 3, "velocity": 83}, {"time": 1978, "pitch": 58, "duration": 2, "velocity": 85}, {"time": 1981, "pitch": 39, "duration": 20, "velocity": 90}, {"time": 1981, "pitch": 55, "duration": 10, "velocity": 82}, {"time": 1981, "pitch": 58, "duration": 1, "velocity": 79}, {"time": 1987, "pitch": 46, "duration": 7, "velocity": 74}, {"time": 1993, "pitch": 63, "duration": 2, "velocity": 94}, {"time": 1996, "pitch": 46, "duration": 8, "velocity": 84}, {"time": 1999, "pitch": 55, "duration": 7, "velocity": 76}, {"time": 2002, "pitch": 58, "duration": 5, "velocity": 85}, {"time": 2005, "pitch": 39, "duration": 16, "velocity": 83}, {"time": 2005, "pitch": 67, "duration": 5, "velocity": 83}, {"time": 2008, "pitch": 46, "duration": 10, "velocity": 72}, {"time": 2011, "pitch": 55, "duration": 6, "velocity": 77}, {"time": 2014, "pitch": 58, "duration": 2, "velocity": 72}, {"time": 2017, "pitch": 58, "duration": 1, "velocity": 61}, {"time": 2017, "pitch": 63, "duration": 6, "velocity": 90}, {"time": 2020, "pitch": 46, "duration": 2, "velocity": 62}, {"time": 2023, "pitch": 55, "duration": 2, "velocity": 78}, {"time": 2029, "pitch": 41, "duration": 21, "velocity": 84}, {"time": 2029, "pitch": 53, "duration": 3, "velocity": 80}, {"time": 2029, "pitch": 56, "duration": 6, "velocity": 74}, {"time": 2032, "pitch": 48, "duration": 19, "velocity": 78}, {"time": 2035, "pitch": 60, "duration": 6, "velocity": 82}, {"time": 2038, "pitch": 56, "duration": 2, "velocity": 72}, {"time": 2041, "pitch": 65, "duration": 4, "velocity": 87}, {"time": 2044, "pitch": 60, "duration": 4, "velocity": 83}, {"time": 2047, "pitch": 53, "duration": 4, "velocity": 84}, {"time": 2050, "pitch": 60, "duration": 2, "velocity": 73}, {"time": 2053, "pitch": 43, "duration": 19, "velocity": 85}, {"time": 2053, "pitch": 55, "duration": 3, "velocity": 78}, {"time": 2053, "pitch": 59, "duration": 7, "velocity": 76}, {"time": 2056, "pitch": 50, "duration": 11, "velocity": 72}, {"time": 2059, "pitch": 55, "duration": 6, "velocity": 83}, {"time": 2062, "pitch": 62, "duration": 4, "velocity": 76}, {"time": 2065, "pitch": 67, "duration": 6, "velocity": 88}, {"time": 2068, "pitch": 55, "duration": 3, "velocity": 85}, {"time": 2071, "pitch": 50, "duration": 1, "velocity": 83}, {"time": 2077, "pitch": 48, "duration": 6, "velocity": 86}, {"time": 2077, "pitch": 60, "duration": 3, "velocity": 78}, {"time": 2077, "pitch": 63, "duration": 3, "velocity": 83}, {"time": 2077, "pitch": 67, "duration": 4, "velocity": 81}, {"time": 2080, "pitch": 55, "duration": 4, "velocity": 79}, {"time": 2083, "pitch": 60, "duration": 2, "velocity": 97}, {"time": 2089, "pitch": 38, "duration": 7, "velocity": 88}, {"time": 2089, "pitch": 62, "duration": 2, "velocity": 81}, {"time": 2089, "pitch": 65, "duration": 3, "velocity": 79}, {"time": 2092, "pitch": 62, "duration": 4, "velocity": 83}, {"time": 2095, "pitch": 65, "duration": 2, "velocity": 84}, {"time": 2101, "pitch": 39, "duration": 7, "velocity": 90}, {"time": 2101, "pitch": 63, "duration": 2, "velocity": 84}, {"time": 2101, "pitch": 67, "duration": 6, "velocity": 79}, {"time": 2104, "pitch": 46, "duration": 7, "velocity": 84}, {"time": 2107, "pitch": 63, "duration": 3, "velocity": 94}, {"time": 2110, "pitch": 67, "duration": 1, "velocity": 87}, {"time": 2113, "pitch": 40, "duration": 9, "velocity": 87}, {"time": 2113, "pitch": 64, "duration": 2, "velocity": 83}, {"time": 2113, "pitch": 67, "duration": 7, "velocity": 87}, {"time": 2116, "pitch": 46, "duration": 5, "velocity": 79}, {"time": 2119, "pitch": 64, "duration": 3, "velocity": 90}, {"time": 2122, "pitch": 72, "duration": 3, "velocity": 86}, {"time": 2125, "pitch": 41, "duration": 15, "velocity": 85}, {"time": 2125, "pitch": 53, "duration": 3, "velocity": 86}, {"time": 2125, "pitch": 60, "duration": 6, "velocity": 82}, {"time": 2128, "pitch": 48, "duration": 12, "velocity": 79}, {"time": 2131, "pitch": 53, "duration": 6, "velocity": 85}, {"time": 2134, "pitch": 60, "duration": 3, "velocity": 82}, {"time": 2137, "pitch": 65, "duration": 4, "velocity": 87}, {"time": 2140, "pitch": 60, "duration": 3, "velocity": 85}, {"time": 2143, "pitch": 53, "duration": 4, "velocity": 85}, {"time": 2146, "pitch": 60, "duration": 4, "velocity": 76}, {"time": 2149, "pitch": 46, "duration": 16, "velocity": 89}, {"time": 2152, "pitch": 53, "duration": 10, "velocity": 73}, {"time": 2155, "pitch": 58, "duration": 3, "velocity": 72}, {"time": 2158, "pitch": 62, "duration": 1, "velocity": 73}, {"time": 2161, "pitch": 58, "duration": 4, "velocity": 85}, {"time": 2161, "pitch": 62, "duration": 7, "velocity": 85}, {"time": 2161, "pitch": 65, "duration": 7, "velocity": 84}, {"time": 2164, "pitch": 53, "duration": 2, "velocity": 78}, {"time": 2167, "pitch": 46, "duration": 1, "velocity": 90}, {"time": 2173, "pitch": 43, "duration": 15, "velocity": 86}, {"time": 2173, "pitch": 55, "duration": 3, "velocity": 79}, {"time": 2173, "pitch": 62, "duration": 7, "velocity": 80}, {"time": 2176, "pitch": 50, "duration": 9, "velocity": 73}, {"time": 2179, "pitch": 55, "duration": 4, "velocity": 82}, {"time": 2182, "pitch": 58, "duration": 1, "velocity": 85}, {"time": 2185, "pitch": 55, "duration": 3, "velocity": 89}, {"time": 2185, "pitch": 62, "duration": 6, "velocity": 87}, {"time": 2188, "pitch": 50, "duration": 2, "velocity": 87}, {"time": 2191, "pitch": 43, "duration": 1, "velocity": 85}, {"time": 2197, "pitch": 36, "duration": 1, "velocity": 83}, {"time": 2197, "pitch": 55, "duration": 3, "velocity": 84}, {"time": 2197, "pitch": 63, "duration": 4, "velocity": 79}, {"time": 2203, "pitch": 48, "duration": 9, "velocity": 71}, {"time": 2206, "pitch": 55, "duration": 6, "velocity": 83}, {"time": 2209, "pitch": 60, "duration": 7, "velocity": 82}, {"time": 2209, "pitch": 67, "duration": 7, "velocity": 81}, {"time": 2221, "pitch": 41, "duration": 16, "velocity": 84}, {"time": 2221, "pitch": 60, "duration": 4, "velocity": 79}, {"time": 2221, "pitch": 65, "duration": 6, "velocity": 78}, {"time": 2224, "pitch": 48, "duration": 12, "velocity": 77}, {"time": 2227, "pitch": 60, "duration": 5, "velocity": 84}, {"time": 2230, "pitch": 65, "duration": 3, "velocity": 79}, {"time": 2233, "pitch": 68, "duration": 6, "velocity": 92}, {"time": 2236, "pitch": 65, "duration": 3, "velocity": 84}, {"time": 2239, "pitch": 60, "duration": 2, "velocity": 85}, {"time": 2245, "pitch": 44, "duration": 16, "velocity": 90}, {"time": 2245, "pitch": 56, "duration": 4, "velocity": 78}, {"time": 2245, "pitch": 63, "duration": 4, "velocity": 82}, {"time": 2248, "pitch": 51, "duration": 13, "velocity": 73}, {"time": 2251, "pitch": 56, "duration": 4, "velocity": 81}, {"time": 2254, "pitch": 60, "duration": 4, "velocity": 75}, {"time": 2257, "pitch": 68, "duration": 5, "velocity": 88}, {"time": 2260, "pitch": 56, "duration": 4, "velocity": 89}, {"time": 2263, "pitch": 60, "duration": 1, "velocity": 79}, {"time": 2269, "pitch": 43, "duration": 22, "velocity": 85}, {"time": 2269, "pitch": 55, "duration": 3, "velocity": 84}, {"time": 2269, "pitch": 59, "duration": 4, "velocity": 86}, {"time": 2272, "pitch": 50, "duration": 7, "velocity": 84}, {"time": 2275, "pitch": 55, "duration": 4, "velocity": 85}, {"time": 2278, "pitch": 62, "duration": 6, "velocity": 92}, {"time": 2281, "pitch": 50, "duration": 8, "velocity": 78}, {"time": 2284, "pitch": 67, "duration": 3, "velocity": 84}, {"time": 2287, "pitch": 55, "duration": 2, "velocity": 76}, {"time": 2293, "pitch": 43, "duration": 15, "velocity": 87}, {"time": 2293, "pitch": 55, "duration": 6, "velocity": 79}, {"time": 2293, "pitch": 59, "duration": 7, "velocity": 86}, {"time": 2293, "pitch": 62, "duration": 7, "velocity": 83}, {"time": 2299, "pitch": 50, "duration": 7, "velocity": 83}, {"time": 2302, "pitch": 55, "duration": 1, "velocity": 78}, {"time": 2305, "pitch": 55, "duration": 3, "velocity": 89}, {"time": 2305, "pitch": 59, "duration": 3, "velocity": 92}, {"time": 2305, "pitch": 62, "duration": 3, "velocity": 88}, {"time": 2308, "pitch": 50, "duration": 1, "velocity": 83}, {"time": 2311, "pitch": 43, "duration": 1, "velocity": 83}, {"time": 2317, "pitch": 36, "duration": 1, "velocity": 84}, {"time": 2317, "pitch": 60, "duration": 7, "velocity": 76}, {"time": 2317, "pitch": 63, "duration": 7, "velocity": 75}, {"time": 2317, "pitch": 67, "duration": 7, "velocity": 79}, {"time": 2323, "pitch": 48, "duration": 8, "velocity": 84}, {"time": 2329, "pitch": 60, "duration": 2, "velocity": 86}, {"time": 2329, "pitch": 63, "duration": 2, "velocity": 100}, {"time": 2329, "pitch": 67, "duration": 3, "velocity": 85}, {"time": 2332, "pitch": 55, "duration": 3, "velocity": 79}, {"time": 2335, "pitch": 62, "duration": 3, "velocity": 88}, {"time": 2338, "pitch": 63, "duration": 10, "velocity": 94}, {"time": 2341, "pitch": 48, "duration": 15, "velocity": 87}, {"time": 2341, "pitch": 60, "duration": 7, "velocity": 77}, {"time": 2341, "pitch": 67, "duration": 7, "velocity": 84}, {"time": 2347, "pitch": 55, "duration": 7, "velocity": 83}, {"time": 2353, "pitch": 60, "duration": 4, "velocity": 88}, {"time": 2353, "pitch": 63, "duration": 4, "velocity": 99}, {"time": 2356, "pitch": 55, "duration": 1, "velocity": 87}, {"time": 2359, "pitch": 62, "duration": 4, "velocity": 84}, {"time": 2362, "pitch": 63, "duration": 2, "velocity": 89}, {"time": 2365, "pitch": 41, "duration": 14, "velocity": 85}, {"time": 2365, "pitch": 65, "duration": 7, "velocity": 84}, {"time": 2371, "pitch": 48, "duration": 7, "velocity": 83}, {"time": 2377, "pitch": 56, "duration": 3, "velocity": 94}, {"time": 2377, "pitch": 60, "duration": 4, "velocity": 89}, {"time": 2380, "pitch": 48, "duration": 1, "velocity": 83}, {"time": 2383, "pitch": 55, "duration": 3, "velocity": 84}, {"time": 2386, "pitch": 56, "duration": 3, "velocity": 94}, {"time": 2389, "pitch": 41, "duration": 14, "velocity": 85}, {"time": 2389, "pitch": 53, "duration": 6, "velocity": 73}, {"time": 2389, "pitch": 60, "duration": 6, "velocity": 83}, {"time": 2395, "pitch": 48, "duration": 7, "velocity": 79}, {"time": 2401, "pitch": 53, "duration": 4, "velocity": 84}, {"time": 2401, "pitch": 56, "duration": 4, "velocity": 97}, {"time": 2401, "pitch": 60, "duration": 5, "velocity": 86}, {"time": 2404, "pitch": 48, "duration": 1, "velocity": 84}, {"time": 2407, "pitch": 41, "duration": 2, "velocity": 85}, {"time": 2413, "pitch": 46, "duration": 13, "velocity": 92}, {"time": 2413, "pitch": 53, "duration": 3, "velocity": 78}, {"time": 2413, "pitch": 58, "duration": 6, "velocity": 79}, {"time": 2416, "pitch": 50, "duration": 11, "velocity": 56}, {"time": 2419, "pitch": 53, "duration": 4, "velocity": 85}, {"time": 2422, "pitch": 58, "duration": 1, "velocity": 85}, {"time": 2425, "pitch": 53, "duration": 1, "velocity": 84}, {"time": 2425, "pitch": 58, "duration": 3, "velocity": 92}, {"time": 2425, "pitch": 62, "duration": 4, "velocity": 88}, {"time": 2428, "pitch": 53, "duration": 3, "velocity": 79}, {"time": 2431, "pitch": 58, "duration": 3, "velocity": 85}, {"time": 2434, "pitch": 53, "duration": 3, "velocity": 76}, {"time": 2437, "pitch": 46, "duration": 14, "velocity": 82}, {"time": 2437, "pitch": 58, "duration": 2, "velocity": 78}, {"time": 2437, "pitch": 62, "duration": 2, "velocity": 84}, {"time": 2440, "pitch": 53, "duration": 10, "velocity": 76}, {"time": 2443, "pitch": 58, "duration": 4, "velocity": 79}, {"time": 2446, "pitch": 62, "duration": 1, "velocity": 79}, {"time": 2449, "pitch": 58, "duration": 4, "velocity": 74}, {"time": 2449, "pitch": 62, "duration": 4, "velocity": 85}, {"time": 2449, "pitch": 65, "duration": 5, "velocity": 84}, {"time": 2452, "pitch": 53, "duration": 2, "velocity": 82}, {"time": 2455, "pitch": 46, "duration": 1, "velocity": 99}, {"time": 2461, "pitch": 39, "duration": 14, "velocity": 94}, {"time": 2461, "pitch": 58, "duration": 6, "velocity": 78}, {"time": 2461, "pitch": 63, "duration": 4, "velocity": 83}, {"time": 2464, "pitch": 46, "duration": 10, "velocity": 72}, {"time": 2467, "pitch": 55, "duration": 4, "velocity": 83}, {"time": 2470, "pitch": 58, "duration": 1, "velocity": 84}, {"time": 2473, "pitch": 55, "duration": 2, "velocity": 84}, {"time": 2473, "pitch": 58, "duration": 2, "velocity": 97}, {"time": 2473, "pitch": 63, "duration": 3, "velocity": 88}, {"time": 2476, "pitch": 46, "duration": 1, "velocity": 83}, {"time": 2479, "pitch": 55, "duration": 1, "velocity": 85}, {"time": 2482, "pitch": 58, "duration": 1, "velocity": 41}, {"time": 2485, "pitch": 39, "duration": 13, "velocity": 94}, {"time": 2485, "pitch": 55, "duration": 3, "velocity": 78}, {"time": 2485, "pitch": 58, "duration": 4, "velocity": 87}, {"time": 2485, "pitch": 63, "duration": 4, "velocity": 85}, {"time": 2488, "pitch": 46, "duration": 10, "velocity": 67}, {"time": 2491, "pitch": 55, "duration": 1, "velocity": 74}, {"time": 2494, "pitch": 55, "duration": 1, "velocity": 83}, {"time": 2494, "pitch": 58, "duration": 1, "velocity": 87}, {"time": 2494, "pitch": 63, "duration": 1, "velocity": 86}, {"time": 2497, "pitch": 55, "duration": 3, "velocity": 87}, {"time": 2497, "pitch": 58, "duration": 3, "velocity": 99}, {"time": 2497, "pitch": 63, "duration": 2, "velocity": 97}, {"time": 2500, "pitch": 46, "duration": 1, "velocity": 92}, {"time": 2503, "pitch": 55, "duration": 1, "velocity": 87}, {"time": 2503, "pitch": 62, "duration": 1, "velocity": 89}, {"time": 2509, "pitch": 48, "duration": 15, "velocity": 85}, {"time": 2509, "pitch": 60, "duration": 3, "velocity": 83}, {"time": 2509, "pitch": 63, "duration": 3, "velocity": 85}, {"time": 2509, "pitch": 67, "duration": 4, "velocity": 82}, {"time": 2512, "pitch": 55, "duration": 10, "velocity": 82}, {"time": 2515, "pitch": 62, "duration": 2, "velocity": 84}, {"time": 2518, "pitch": 63, "duration": 1, "velocity": 94}, {"time": 2521, "pitch": 67, "duration": 3, "velocity": 92}, {"time": 2524, "pitch": 55, "duration": 1, "velocity": 83}, {"time": 2527, "pitch": 60, "duration": 5, "velocity": 81}, {"time": 2530, "pitch": 63, "duration": 10, "velocity": 84}, {"time": 2533, "pitch": 36, "duration": 1, "velocity": 83}, {"time": 2533, "pitch": 60, "duration": 5, "velocity": 61}, {"time": 2536, "pitch": 48, "duration": 1, "velocity": 84}, {"time": 2539, "pitch": 48, "duration": 10, "velocity": 68}, {"time": 2539, "pitch": 55, "duration": 7, "velocity": 85}, {"time": 2542, "pitch": 62, "duration": 4, "velocity": 84}, {"time": 2545, "pitch": 63, "duration": 6, "velocity": 104}, {"time": 2548, "pitch": 55, "duration": 2, "velocity": 85}, {"time": 2551, "pitch": 60, "duration": 4, "velocity": 87}, {"time": 2557, "pitch": 41, "duration": 21, "velocity": 83}, {"time": 2557, "pitch": 60, "duration": 3, "velocity": 81}, {"time": 2557, "pitch": 65, "duration": 2, "velocity": 75}, {"time": 2560, "pitch": 48, "duration": 7, "velocity": 76}, {"time": 2563, "pitch": 55, "duration": 4, "velocity": 79}, {"time": 2566, "pitch": 56, "duration": 6, "velocity": 99}, {"time": 2569, "pitch": 48, "duration": 10, "velocity": 80}, {"time": 2572, "pitch": 60, "duration": 15, "velocity": 90}, {"time": 2578, "pitch": 53, "duration": 6, "velocity": 80}, {"time": 2581, "pitch": 41, "duration": 17, "velocity": 83}, {"time": 2584, "pitch": 48, "duration": 10, "velocity": 79}, {"time": 2587, "pitch": 55, "duration": 3, "velocity": 78}, {"time": 2590, "pitch": 56, "duration": 2, "velocity": 90}, {"time": 2593, "pitch": 53, "duration": 4, "velocity": 83}, {"time": 2593, "pitch": 60, "duration": 7, "velocity": 84}, {"time": 2596, "pitch": 48, "duration": 2, "velocity": 85}, {"time": 2599, "pitch": 53, "duration": 1, "velocity": 92}, {"time": 2605, "pitch": 43, "duration": 22, "velocity": 85}, {"time": 2605, "pitch": 55, "duration": 3, "velocity": 79}, {"time": 2605, "pitch": 59, "duration": 3, "velocity": 80}, {"time": 2608, "pitch": 50, "duration": 20, "velocity": 74}, {"time": 2611, "pitch": 55, "duration": 6, "velocity": 80}, {"time": 2614, "pitch": 62, "duration": 4, "velocity": 83}, {"time": 2617, "pitch": 67, "duration": 4, "velocity": 87}, {"time": 2620, "pitch": 62, "duration": 4, "velocity": 83}, {"time": 2623, "pitch": 55, "duration": 11, "velocity": 87}, {"time": 2626, "pitch": 62, "duration": 10, "velocity": 77}, {"time": 2629, "pitch": 43, "duration": 15, "velocity": 86}, {"time": 2632, "pitch": 50, "duration": 10, "velocity": 77}, {"time": 2635, "pitch": 59, "duration": 4, "velocity": 74}, {"time": 2638, "pitch": 55, "duration": 1, "velocity": 71}, {"time": 2641, "pitch": 55, "duration": 4, "velocity": 88}, {"time": 2641, "pitch": 59, "duration": 4, "velocity": 89}, {"time": 2641, "pitch": 62, "duration": 5, "velocity": 86}, {"time": 2644, "pitch": 50, "duration": 1, "velocity": 83}, {"time": 2647, "pitch": 43, "duration": 1, "velocity": 84}, {"time": 2653, "pitch": 36, "duration": 1, "velocity": 84}, {"time": 2653, "pitch": 55, "duration": 3, "velocity": 78}, {"time": 2653, "pitch": 60, "duration": 6, "velocity": 79}, {"time": 2659, "pitch": 48, "duration": 15, "velocity": 82}, {"time": 2662, "pitch": 55, "duration": 11, "velocity": 77}, {"time": 2665, "pitch": 62, "duration": 4, "velocity": 84}, {"time": 2668, "pitch": 63, "duration": 3, "velocity": 94}, {"time": 2671, "pitch": 67, "duration": 2, "velocity": 84}, {"time": 2674, "pitch": 60, "duration": 2, "velocity": 80}, {"time": 2677, "pitch": 48, "duration": 15, "velocity": 90}, {"time": 2677, "pitch": 60, "duration": 6, "velocity": 70}, {"time": 2677, "pitch": 63, "duration": 7, "velocity": 79}, {"time": 2677, "pitch": 67, "duration": 8, "velocity": 81}, {"time": 2683, "pitch": 55, "duration": 8, "velocity": 77}, {"time": 2686, "pitch": 60, "duration": 1, "velocity": 76}, {"time": 2689, "pitch": 60, "duration": 5, "velocity": 84}, {"time": 2689, "pitch": 63, "duration": 5, "velocity": 94}, {"time": 2689, "pitch": 67, "duration": 5, "velocity": 92}, {"time": 2689, "pitch": 72, "duration": 5, "velocity": 85}, {"time": 2701, "pitch": 48, "duration": 20, "velocity": 81}, {"time": 2701, "pitch": 63, "duration": 5, "velocity": 83}, {"time": 2704, "pitch": 55, "duration": 3, "velocity": 68}, {"time": 2707, "pitch": 60, "duration": 2, "velocity": 76}, {"time": 2710, "pitch": 55, "duration": 1, "velocity": 64}, {"time": 2713, "pitch": 62, "duration": 3, "velocity": 82}, {"time": 2716, "pitch": 55, "duration": 1, "velocity": 60}, {"time": 2719, "pitch": 60, "duration": 3, "velocity": 71}, {"time": 2722, "pitch": 55, "duration": 4, "velocity": 57}, {"time": 2725, "pitch": 48, "duration": 18, "velocity": 82}, {"time": 2725, "pitch": 60, "duration": 5, "velocity": 77}, {"time": 2725, "pitch": 63, "duration": 7, "velocity": 78}, {"time": 2731, "pitch": 55, "duration": 2, "velocity": 56}, {"time": 2737, "pitch": 55, "duration": 3, "velocity": 78}, {"time": 2737, "pitch": 60, "duration": 2, "velocity": 83}, {"time": 2737, "pitch": 63, "duration": 3, "velocity": 83}, {"time": 2743, "pitch": 62, "duration": 6, "velocity": 73}, {"time": 2749, "pitch": 41, "duration": 21, "velocity": 83}, {"time": 2749, "pitch": 60, "duration": 5, "velocity": 74}, {"time": 2752, "pitch": 48, "duration": 16, "velocity": 71}, {"time": 2755, "pitch": 55, "duration": 3, "velocity": 77}, {"time": 2758, "pitch": 56, "duration": 6, "velocity": 84}, {"time": 2764, "pitch": 60, "duration": 1, "velocity": 83}, {"time": 2767, "pitch": 53, "duration": 3, "velocity": 76}, {"time": 2773, "pitch": 41, "duration": 16, "velocity": 77}, {"time": 2773, "pitch": 56, "duration": 6, "velocity": 68}, {"time": 2773, "pitch": 60, "duration": 7, "velocity": 76}, {"time": 2779, "pitch": 48, "duration": 7, "velocity": 42}, {"time": 2785, "pitch": 56, "duration": 4, "velocity": 83}, {"time": 2785, "pitch": 60, "duration": 4, "velocity": 83}, {"time": 2791, "pitch": 53, "duration": 4, "velocity": 72}, {"time": 2797, "pitch": 46, "duration": 21, "velocity": 79}, {"time": 2797, "pitch": 58, "duration": 5, "velocity": 68}, {"time": 2797, "pitch": 62, "duration": 7, "velocity": 82}, {"time": 2803, "pitch": 53, "duration": 15, "velocity": 78}, {"time": 2809, "pitch": 58, "duration": 10, "velocity": 85}, {"time": 2815, "pitch": 62, "duration": 4, "velocity": 67}, {"time": 2821, "pitch": 46, "duration": 14, "velocity": 78}, {"time": 2821, "pitch": 58, "duration": 9, "velocity": 76}, {"time": 2821, "pitch": 62, "duration": 9, "velocity": 81}, {"time": 2827, "pitch": 53, "duration": 7, "velocity": 71}, {"time": 2833, "pitch": 58, "duration": 3, "velocity": 84}, {"time": 2833, "pitch": 62, "duration": 3, "velocity": 85}, {"time": 2833, "pitch": 65, "duration": 3, "velocity": 82}, {"time": 2845, "pitch": 39, "duration": 14, "velocity": 89}, {"time": 2845, "pitch": 55, "duration": 7, "velocity": 82}, {"time": 2845, "pitch": 58, "duration": 7, "velocity": 78}, {"time": 2851, "pitch": 46, "duration": 7, "velocity": 65}, {"time": 2857, "pitch": 58, "duration": 6, "velocity": 97}, {"time": 2857, "pitch": 63, "duration": 6, "velocity": 90}, {"time": 2860, "pitch": 46, "duration": 8, "velocity": 84}, {"time": 2863, "pitch": 55, "duration": 5, "velocity": 104}, {"time": 2866, "pitch": 58, "duration": 2, "velocity": 88}, {"time": 2869, "pitch": 39, "duration": 13, "velocity": 94}, {"time": 2869, "pitch": 55, "duration": 3, "velocity": 78}, {"time": 2869, "pitch": 58, "duration": 4, "velocity": 87}, {"time": 2869, "pitch": 63, "duration": 4, "velocity": 85}, {"time": 2872, "pitch": 46, "duration": 10, "velocity": 67}, {"time": 2875, "pitch": 55, "duration": 1, "velocity": 74}, {"time": 2878, "pitch": 55, "duration": 1, "velocity": 83}, {"time": 2878, "pitch": 58, "duration": 1, "velocity": 87}, {"time": 2878, "pitch": 63, "duration": 1, "velocity": 86}, {"time": 2881, "pitch": 55, "duration": 3, "velocity": 87}, {"time": 2881, "pitch": 58, "duration": 3, "velocity": 99}, {"time": 2881, "pitch": 63, "duration": 2, "velocity": 97}, {"time": 2884, "pitch": 46, "duration": 1, "velocity": 92}, {"time": 2887, "pitch": 55, "duration": 1, "velocity": 87}, {"time": 2887, "pitch": 62, "duration": 1, "velocity": 89}, {"time": 2893, "pitch": 48, "duration": 15, "velocity": 85}, {"time": 2893, "pitch": 60, "duration": 3, "velocity": 83}, {"time": 2893, "pitch": 63, "duration": 3, "velocity": 85}, {"time": 2893, "pitch": 67, "duration": 4, "velocity": 82}, {"time": 2896, "pitch": 55, "duration": 10, "velocity": 82}, {"time": 2899, "pitch": 62, "duration": 2, "velocity": 84}, {"time": 2902, "pitch": 63, "duration": 1, "velocity": 94}, {"time": 2905, "pitch": 67, "duration": 3, "velocity": 92}, {"time": 2908, "pitch": 55, "duration": 1, "velocity": 83}, {"time": 2911, "pitch": 60, "duration": 5, "velocity": 81}, {"time": 2914, "pitch": 63, "duration": 10, "velocity": 84}, {"time": 2917, "pitch": 36, "duration": 1, "velocity": 83}, {"time": 2917, "pitch": 60, "duration": 5, "velocity": 61}, {"time": 2920, "pitch": 48, "duration": 1, "velocity": 84}, {"time": 2923, "pitch": 48, "duration": 10, "velocity": 68}, {"time": 2923, "pitch": 55, "duration": 7, "velocity": 85}, {"time": 2926, "pitch": 62, "duration": 4, "velocity": 84}, {"time": 2929, "pitch": 63, "duration": 6, "velocity": 104}, {"time": 2932, "pitch": 55, "duration": 2, "velocity": 85}, {"time": 2935, "pitch": 60, "duration": 4, "velocity": 87}, {"time": 2941, "pitch": 41, "duration": 21, "velocity": 83}, {"time": 2941, "pitch": 60, "duration": 3, "velocity": 81}, {"time": 2941, "pitch": 65, "duration": 2, "velocity": 75}, {"time": 2944, "pitch": 48, "duration": 7, "velocity": 76}, {"time": 2947, "pitch": 55, "duration": 4, "velocity": 79}, {"time": 2950, "pitch": 56, "duration": 6, "velocity": 99}, {"time": 2953, "pitch": 48, "duration": 10, "velocity": 80}, {"time": 2956, "pitch": 60, "duration": 15, "velocity": 90}, {"time": 2962, "pitch": 53, "duration": 6, "velocity": 80}, {"time": 2965, "pitch": 41, "duration": 17, "velocity": 83}, {"time": 2968, "pitch": 48, "duration": 10, "velocity": 79}, {"time": 2971, "pitch": 55, "duration": 3, "velocity": 78}, {"time": 2974, "pitch": 56, "duration": 2, "velocity": 90}, {"time": 2977, "pitch": 53, "duration": 4, "velocity": 83}, {"time": 2977, "pitch": 60, "duration": 7, "velocity": 84}, {"time": 2980, "pitch": 48, "duration": 2, "velocity": 85}, {"time": 2983, "pitch": 53, "duration": 1, "velocity": 92}, {"time": 2989, "pitch": 43, "duration": 22, "velocity": 85}, {"time": 2989, "pitch": 55, "duration": 3, "velocity": 79}, {"time": 2989, "pitch": 59, "duration": 3, "velocity": 80}, {"time": 2992, "pitch": 50, "duration": 20, "velocity": 74}, {"time": 2995, "pitch": 55, "duration": 6, "velocity": 80}, {"time": 2998, "pitch": 62, "duration": 4, "velocity": 83}, {"time": 3001, "pitch": 67, "duration": 4, "velocity": 87}, {"time": 3004, "pitch": 62, "duration": 4, "velocity": 83}, {"time": 3007, "pitch": 55, "duration": 11, "velocity": 87}, {"time": 3010, "pitch": 62, "duration": 10, "velocity": 77}, {"time": 3013, "pitch": 43, "duration": 15, "velocity": 86}, {"time": 3016, "pitch": 50, "duration": 10, "velocity": 77}, {"time": 3019, "pitch": 59, "duration": 4, "velocity": 74}, {"time": 3022, "pitch": 55, "duration": 1, "velocity": 71}, {"time": 3025, "pitch": 55, "duration": 4, "velocity": 88}, {"time": 3025, "pitch": 59, "duration": 4, "velocity": 89}, {"time": 3025, "pitch": 62, "duration": 5, "velocity": 86}, {"time": 3028, "pitch": 50, "duration": 1, "velocity": 83}, {"time": 3031, "pitch": 43, "duration": 1, "velocity": 84}, {"time": 3037, "pitch": 36, "duration": 1, "velocity": 84}, {"time": 3037, "pitch": 55, "duration": 3, "velocity": 78}, {"time": 3037, "pitch": 60, "duration": 6, "velocity": 79}, {"time": 3043, "pitch": 48, "duration": 15, "velocity": 82}, {"time": 3046, "pitch": 55, "duration": 11, "velocity": 77}, {"time": 3049, "pitch": 62, "duration": 4, "velocity": 84}, {"time": 3052, "pitch": 63, "duration": 3, "velocity": 94}, {"time": 3055, "pitch": 67, "duration": 2, "velocity": 84}, {"time": 3058, "pitch": 60, "duration": 2, "velocity": 80}, {"time": 3061, "pitch": 48, "duration": 15, "velocity": 90}, {"time": 3061, "pitch": 60, "duration": 6, "velocity": 70}, {"time": 3061, "pitch": 63, "duration": 7, "velocity": 79}, {"time": 3061, "pitch": 67, "duration": 8, "velocity": 81}, {"time": 3067, "pitch": 55, "duration": 8, "velocity": 77}, {"time": 3070, "pitch": 60, "duration": 1, "velocity": 76}, {"time": 3073, "pitch": 60, "duration": 5, "velocity": 84}, {"time": 3073, "pitch": 63, "duration": 5, "velocity": 94}, {"time": 3073, "pitch": 67, "duration": 5, "velocity": 92}, {"time": 3073, "pitch": 72, "duration": 5, "velocity": 85}, {"time": 3085, "pitch": 41, "duration": 39, "velocity": 83}, {"time": 3088, "pitch": 48, "duration": 35, "velocity": 72}, {"time": 3091, "pitch": 53, "duration": 10, "velocity": 77}, {"time": 3094, "pitch": 56, "duration": 7, "velocity": 84}, {"time": 3100, "pitch": 63, "duration": 3, "velocity": 63}, {"time": 3109, "pitch": 56, "duration": 11, "velocity": 58}, {"time": 3109, "pitch": 63, "duration": 12, "velocity": 59}, {"time": 3133, "pitch": 39, "duration": 37, "velocity": 84}, {"time": 3136, "pitch": 46, "duration": 34, "velocity": 69}, {"time": 3139, "pitch": 55, "duration": 10, "velocity": 76}, {"time": 3142, "pitch": 58, "duration": 4, "velocity": 86}, {"time": 3148, "pitch": 58, "duration": 1, "velocity": 61}, {"time": 3148, "pitch": 62, "duration": 3, "velocity": 81}, {"time": 3157, "pitch": 58, "duration": 9, "velocity": 57}, {"time": 3157, "pitch": 62, "duration": 15, "velocity": 78}, {"time": 3181, "pitch": 41, "duration": 20, "velocity": 83}, {"time": 3181, "pitch": 60, "duration": 6, "velocity": 77}, {"time": 3184, "pitch": 48, "duration": 18, "velocity": 78}, {"time": 3187, "pitch": 53, "duration": 9, "velocity": 78}, {"time": 3190, "pitch": 56, "duration": 10, "velocity": 83}, {"time": 3196, "pitch": 63, "duration": 7, "velocity": 72}, {"time": 3203, "pitch": 55, "duration": 6, "velocity": 76}, {"time": 3204, "pitch": 59, "duration": 8, "velocity": 82}, {"time": 3205, "pitch": 43, "duration": 26, "velocity": 84}, {"time": 3205, "pitch": 62, "duration": 7, "velocity": 75}, {"time": 3205, "pitch": 67, "duration": 11, "velocity": 80}, {"time": 3208, "pitch": 50, "duration": 22, "velocity": 77}, {"time": 3211, "pitch": 55, "duration": 11, "velocity": 80}, {"time": 3215, "pitch": 62, "duration": 25, "velocity": 79}, {"time": 3220, "pitch": 67, "duration": 19, "velocity": 75}, {"time": 3226, "pitch": 55, "duration": 14, "velocity": 58}, {"time": 3242, "pitch": 36, "duration": 51, "velocity": 84}, {"time": 3245, "pitch": 43, "duration": 47, "velocity": 80}, {"time": 3247, "pitch": 48, "duration": 2, "velocity": 83}, {"time": 3249, "pitch": 50, "duration": 2, "velocity": 83}, {"time": 3251, "pitch": 51, "duration": 1, "velocity": 92}, {"time": 3253, "pitch": 55, "duration": 2, "velocity": 79}, {"time": 3255, "pitch": 62, "duration": 3, "velocity": 83}, {"time": 3258, "pitch": 60, "duration": 3, "velocity": 81}, {"time": 3260, "pitch": 55, "duration": 3, "velocity": 84}, {"time": 3263, "pitch": 67, "duration": 2, "velocity": 78}, {"time": 3266, "pitch": 55, "duration": 2, "velocity": 73}, {"time": 3270, "pitch": 74, "duration": 1, "velocity": 83}, {"time": 3275, "pitch": 67, "duration": 2, "velocity": 72}, {"time": 3275, "pitch": 72, "duration": 2, "velocity": 59}, {"time": 3283, "pitch": 72, "duration": 1, "velocity": 72}, {"time": 3283, "pitch": 79, "duration": 2, "velocity": 76}], "annotations": [{"time": 14, "annotation": {"number": 64, "value": 127}, "group": "control_change"}, {"time": 61, "annotation": {"number": 64, "value": 0}, "group": "control_change"}, {"time": 63, "annotation": {"number": 64, "value": 127}, "group": "control_change"}, {"time": 108, "annotation": {"number": 64, "value": 0}, "group": "control_change"}, {"time": 110, "annotation": {"number": 64, "value": 127}, "group": "control_change"}, {"time": 133, "annotation": {"number": 64, "value": 0}, "group": "control_change"}, {"time": 135, "annotation": {"number": 64, "value": 127}, "group": "control_change"}, {"time": 155, "annotation": {"number": 64, "value": 0}, "group": "control_change"}, {"time": 157, "annotation": {"number": 64, "value": 127}, "group": "control_change"}, {"time": 203, "annotation": {"number": 64, "value": 0}, "group": "control_change"}, {"time": 206, "annotation": {"number": 64, "value": 127}, "group": "control_change"}, {"time": 251, "annotation": {"number": 64, "value": 0}, "group": "control_change"}, {"time": 254, "annotation": {"number": 64, "value": 127}, "group": "control_change"}, {"time": 276, "annotation": {"number": 64, "value": 0}, "group": "control_change"}, {"time": 277, "annotation": {"number": 64, "value": 127}, "group": "control_change"}, {"time": 300, "annotation": {"number": 64, "value": 0}, "group": "control_change"}, {"time": 302, "annotation": {"number": 64, "value": 127}, "group": "control_change"}, {"time": 324, "annotation": {"number": 64, "value": 0}, "group": "control_change"}, {"time": 326, "annotation": {"number": 64, "value": 127}, "group": "control_change"}, {"time": 346, "annotation": {"number": 64, "value": 0}, "group": "control_change"}, {"time": 348, "annotation": {"number": 64, "value": 127}, "group": "control_change"}, {"time": 392, "annotation": {"number": 64, "value": 0}, "group": "control_change"}, {"time": 397, "annotation": {"number": 64, "value": 0}, "group": "control_change"}, {"time": 397, "annotation": {"number": 64, "value": 127}, "group": "control_change"}, {"time": 419, "annotation": {"number": 64, "value": 0}, "group": "control_change"}, {"time": 420, "annotation": {"number": 64, "value": 127}, "group": "control_change"}, {"time": 444, "annotation": {"number": 64, "value": 0}, "group": "control_change"}, {"time": 445, "annotation": {"number": 64, "value": 127}, "group": "control_change"}, {"time": 467, "annotation": {"number": 64, "value": 0}, "group": "control_change"}, {"time": 473, "annotation": {"number": 64, "value": 127}, "group": "control_change"}, {"time": 492, "annotation": {"number": 64, "value": 0}, "group": "control_change"}, {"time": 493, "annotation": {"number": 64, "value": 127}, "group": "control_change"}, {"time": 541, "annotation": {"number": 64, "value": 0}, "group": "control_change"}, {"time": 547, "annotation": {"number": 64, "value": 127}, "group": "control_change"}, {"time": 588, "annotation": {"number": 64, "value": 0}, "group": "control_change"}, {"time": 593, "annotation": {"number": 64, "value": 127}, "group": "control_change"}, {"time": 612, "annotation": {"number": 64, "value": 0}, "group": "control_change"}, {"time": 614, "annotation": {"number": 64, "value": 127}, "group": "control_change"}, {"time": 635, "annotation": {"number": 64, "value": 0}, "group": "control_change"}, {"time": 636, "annotation": {"number": 64, "value": 127}, "group": "control_change"}, {"time": 660, "annotation": {"number": 64, "value": 0}, "group": "control_change"}, {"time": 661, "annotation": {"number": 64, "value": 127}, "group": "control_change"}, {"time": 661, "annotation": {"number": 64, "value": 0}, "group": "control_change"}, {"time": 685, "annotation": {"number": 64, "value": 0}, "group": "control_change"}, {"time": 690, "annotation": {"number": 64, "value": 127}, "group": "control_change"}, {"time": 707, "annotation": {"number": 64, "value": 0}, "group": "control_change"}, {"time": 710, "annotation": {"number": 64, "value": 127}, "group": "control_change"}, {"time": 731, "annotation": {"number": 64, "value": 0}, "group": "control_change"}, {"time": 732, "annotation": {"number": 64, "value": 127}, "group": "control_change"}, {"time": 778, "annotation": {"number": 64, "value": 0}, "group": "control_change"}, {"time": 782, "annotation": {"number": 64, "value": 127}, "group": "control_change"}, {"time": 782, "annotation": {"number": 64, "value": 0}, "group": "control_change"}, {"time": 804, "annotation": {"number": 64, "value": 0}, "group": "control_change"}, {"time": 806, "annotation": {"number": 64, "value": 127}, "group": "control_change"}, {"time": 827, "annotation": {"number": 64, "value": 0}, "group": "control_change"}, {"time": 829, "annotation": {"number": 64, "value": 127}, "group": "control_change"}, {"time": 852, "annotation": {"number": 64, "value": 0}, "group": "control_change"}, {"time": 853, "annotation": {"number": 64, "value": 127}, "group": "control_change"}, {"time": 876, "annotation": {"number": 64, "value": 0}, "group": "control_change"}, {"time": 878, "annotation": {"number": 64, "value": 127}, "group": "control_change"}, {"time": 900, "annotation": {"number": 64, "value": 0}, "group": "control_change"}, {"time": 902, "annotation": {"number": 64, "value": 127}, "group": "control_change"}, {"time": 924, "annotation": {"number": 64, "value": 0}, "group": "control_change"}, {"time": 925, "annotation": {"number": 64, "value": 127}, "group": "control_change"}, {"time": 935, "annotation": {"number": 64, "value": 0}, "group": "control_change"}, {"time": 936, "annotation": {"number": 64, "value": 127}, "group": "control_change"}, {"time": 947, "annotation": {"number": 64, "value": 0}, "group": "control_change"}, {"time": 948, "annotation": {"number": 64, "value": 127}, "group": "control_change"}, {"time": 959, "annotation": {"number": 64, "value": 0}, "group": "control_change"}, {"time": 960, "annotation": {"number": 64, "value": 127}, "group": "control_change"}, {"time": 971, "annotation": {"number": 64, "value": 0}, "group": "control_change"}, {"time": 973, "annotation": {"number": 64, "value": 127}, "group": "control_change"}, {"time": 994, "annotation": {"number": 64, "value": 0}, "group": "control_change"}, {"time": 996, "annotation": {"number": 64, "value": 127}, "group": "control_change"}, {"time": 1019, "annotation": {"number": 64, "value": 0}, "group": "control_change"}, {"time": 1021, "annotation": {"number": 64, "value": 127}, "group": "control_change"}, {"time": 1043, "annotation": {"number": 64, "value": 0}, "group": "control_change"}, {"time": 1045, "annotation": {"number": 64, "value": 127}, "group": "control_change"}, {"time": 1067, "annotation": {"number": 64, "value": 0}, "group": "control_change"}, {"time": 1070, "annotation": {"number": 64, "value": 127}, "group": "control_change"}, {"time": 1092, "annotation": {"number": 64, "value": 0}, "group": "control_change"}, {"time": 1095, "annotation": {"number": 64, "value": 127}, "group": "control_change"}, {"time": 1116, "annotation": {"number": 64, "value": 0}, "group": "control_change"}, {"time": 1118, "annotation": {"number": 64, "value": 127}, "group": "control_change"}, {"time": 1139, "annotation": {"number": 64, "value": 0}, "group": "control_change"}, {"time": 1141, "annotation": {"number": 64, "value": 127}, "group": "control_change"}, {"time": 1162, "annotation": {"number": 64, "value": 0}, "group": "control_change"}, {"time": 1164, "annotation": {"number": 64, "value": 127}, "group": "control_change"}, {"time": 1187, "annotation": {"number": 64, "value": 0}, "group": "control_change"}, {"time": 1189, "annotation": {"number": 64, "value": 127}, "group": "control_change"}, {"time": 1211, "annotation": {"number": 64, "value": 0}, "group": "control_change"}, {"time": 1213, "annotation": {"number": 64, "value": 127}, "group": "control_change"}, {"time": 1235, "annotation": {"number": 64, "value": 0}, "group": "control_change"}, {"time": 1237, "annotation": {"number": 64, "value": 127}, "group": "control_change"}, {"time": 1259, "annotation": {"number": 64, "value": 0}, "group": "control_change"}, {"time": 1261, "annotation": {"number": 64, "value": 127}, "group": "control_change"}, {"time": 1283, "annotation": {"number": 64, "value": 0}, "group": "control_change"}, {"time": 1285, "annotation": {"number": 64, "value": 127}, "group": "control_change"}, {"time": 1307, "annotation": {"number": 64, "value": 0}, "group": "control_change"}, {"time": 1309, "annotation": {"number": 64, "value": 127}, "group": "control_change"}, {"time": 1332, "annotation": {"number": 64, "value": 0}, "group": "control_change"}, {"time": 1333, "annotation": {"number": 64, "value": 127}, "group": "control_change"}, {"time": 1355, "annotation": {"number": 64, "value": 0}, "group": "control_change"}, {"time": 1357, "annotation": {"number": 64, "value": 127}, "group": "control_change"}, {"time": 1379, "annotation": {"number": 64, "value": 0}, "group": "control_change"}, {"time": 1380, "annotation": {"number": 64, "value": 127}, "group": "control_change"}, {"time": 1404, "annotation": {"number": 64, "value": 0}, "group": "control_change"}, {"time": 1405, "annotation": {"number": 64, "value": 127}, "group": "control_change"}, {"time": 1427, "annotation": {"number": 64, "value": 0}, "group": "control_change"}, {"time": 1429, "annotation": {"number": 64, "value": 127}, "group": "control_change"}, {"time": 1451, "annotation": {"number": 64, "value": 0}, "group": "control_change"}, {"time": 1453, "annotation": {"number": 64, "value": 127}, "group": "control_change"}, {"time": 1475, "annotation": {"number": 64, "value": 0}, "group": "control_change"}, {"time": 1477, "annotation": {"number": 64, "value": 127}, "group": "control_change"}, {"time": 1499, "annotation": {"number": 64, "value": 0}, "group": "control_change"}, {"time": 1500, "annotation": {"number": 64, "value": 127}, "group": "control_change"}, {"time": 1523, "annotation": {"number": 64, "value": 0}, "group": "control_change"}, {"time": 1525, "annotation": {"number": 64, "value": 127}, "group": "control_change"}, {"time": 1547, "annotation": {"number": 64, "value": 0}, "group": "control_change"}, {"time": 1553, "annotation": {"number": 64, "value": 127}, "group": "control_change"}, {"time": 1572, "annotation": {"number": 64, "value": 0}, "group": "control_change"}, {"time": 1575, "annotation": {"number": 64, "value": 127}, "group": "control_change"}, {"time": 1595, "annotation": {"number": 64, "value": 0}, "group": "control_change"}, {"time": 1597, "annotation": {"number": 64, "value": 127}, "group": "control_change"}, {"time": 1620, "annotation": {"number": 64, "value": 0}, "group": "control_change"}, {"time": 1624, "annotation": {"number": 64, "value": 127}, "group": "control_change"}, {"time": 1643, "annotation": {"number": 64, "value": 0}, "group": "control_change"}, {"time": 1645, "annotation": {"number": 64, "value": 127}, "group": "control_change"}, {"time": 1668, "annotation": {"number": 64, "value": 0}, "group": "control_change"}, {"time": 1669, "annotation": {"number": 64, "value": 127}, "group": "control_change"}, {"time": 1690, "annotation": {"number": 64, "value": 0}, "group": "control_change"}, {"time": 1691, "annotation": {"number": 64, "value": 127}, "group": "control_change"}, {"time": 1714, "annotation": {"number": 64, "value": 0}, "group": "control_change"}, {"time": 1716, "annotation": {"number": 64, "value": 127}, "group": "control_change"}, {"time": 1739, "annotation": {"number": 64, "value": 0}, "group": "control_change"}, {"time": 1741, "annotation": {"number": 64, "value": 127}, "group": "control_change"}, {"time": 1763, "annotation": {"number": 64, "value": 0}, "group": "control_change"}, {"time": 1764, "annotation": {"number": 64, "value": 127}, "group": "control_change"}, {"time": 1787, "annotation": {"number": 64, "value": 0}, "group": "control_change"}, {"time": 1788, "annotation": {"number": 64, "value": 127}, "group": "control_change"}, {"time": 1811, "annotation": {"number": 64, "value": 0}, "group": "control_change"}, {"time": 1813, "annotation": {"number": 64, "value": 127}, "group": "control_change"}, {"time": 1834, "annotation": {"number": 64, "value": 0}, "group": "control_change"}, {"time": 1836, "annotation": {"number": 64, "value": 127}, "group": "control_change"}, {"time": 1858, "annotation": {"number": 64, "value": 0}, "group": "control_change"}, {"time": 1860, "annotation": {"number": 64, "value": 127}, "group": "control_change"}, {"time": 1882, "annotation": {"number": 64, "value": 0}, "group": "control_change"}, {"time": 1884, "annotation": {"number": 64, "value": 127}, "group": "control_change"}, {"time": 1907, "annotation": {"number": 64, "value": 0}, "group": "control_change"}, {"time": 1909, "annotation": {"number": 64, "value": 127}, "group": "control_change"}, {"time": 1927, "annotation": {"number": 64, "value": 0}, "group": "control_change"}, {"time": 1934, "annotation": {"number": 64, "value": 127}, "group": "control_change"}, {"time": 1934, "annotation": {"number": 64, "value": 0}, "group": "control_change"}, {"time": 1956, "annotation": {"number": 64, "value": 0}, "group": "control_change"}, {"time": 1958, "annotation": {"number": 64, "value": 127}, "group": "control_change"}, {"time": 1979, "annotation": {"number": 64, "value": 0}, "group": "control_change"}, {"time": 1981, "annotation": {"number": 64, "value": 127}, "group": "control_change"}, {"time": 2004, "annotation": {"number": 64, "value": 0}, "group": "control_change"}, {"time": 2005, "annotation": {"number": 64, "value": 127}, "group": "control_change"}, {"time": 2028, "annotation": {"number": 64, "value": 0}, "group": "control_change"}, {"time": 2030, "annotation": {"number": 64, "value": 127}, "group": "control_change"}, {"time": 2052, "annotation": {"number": 64, "value": 0}, "group": "control_change"}, {"time": 2054, "annotation": {"number": 64, "value": 127}, "group": "control_change"}, {"time": 2076, "annotation": {"number": 64, "value": 0}, "group": "control_change"}, {"time": 2077, "annotation": {"number": 64, "value": 127}, "group": "control_change"}, {"time": 2087, "annotation": {"number": 64, "value": 0}, "group": "control_change"}, {"time": 2088, "annotation": {"number": 64, "value": 127}, "group": "control_change"}, {"time": 2099, "annotation": {"number": 64, "value": 0}, "group": "control_change"}, {"time": 2100, "annotation": {"number": 64, "value": 127}, "group": "control_change"}, {"time": 2111, "annotation": {"number": 64, "value": 0}, "group": "control_change"}, {"time": 2112, "annotation": {"number": 64, "value": 127}, "group": "control_change"}, {"time": 2123, "annotation": {"number": 64, "value": 0}, "group": "control_change"}, {"time": 2125, "annotation": {"number": 64, "value": 127}, "group": "control_change"}, {"time": 2146, "annotation": {"number": 64, "value": 0}, "group": "control_change"}, {"time": 2148, "annotation": {"number": 64, "value": 127}, "group": "control_change"}, {"time": 2171, "annotation": {"number": 64, "value": 0}, "group": "control_change"}, {"time": 2173, "annotation": {"number": 64, "value": 127}, "group": "control_change"}, {"time": 2195, "annotation": {"number": 64, "value": 0}, "group": "control_change"}, {"time": 2197, "annotation": {"number": 64, "value": 127}, "group": "control_change"}, {"time": 2219, "annotation": {"number": 64, "value": 0}, "group": "control_change"}, {"time": 2222, "annotation": {"number": 64, "value": 127}, "group": "control_change"}, {"time": 2244, "annotation": {"number": 64, "value": 0}, "group": "control_change"}, {"time": 2247, "annotation": {"number": 64, "value": 127}, "group": "control_change"}, {"time": 2268, "annotation": {"number": 64, "value": 0}, "group": "control_change"}, {"time": 2270, "annotation": {"number": 64, "value": 127}, "group": "control_change"}, {"time": 2291, "annotation": {"number": 64, "value": 0}, "group": "control_change"}, {"time": 2293, "annotation": {"number": 64, "value": 127}, "group": "control_change"}, {"time": 2314, "annotation": {"number": 64, "value": 0}, "group": "control_change"}, {"time": 2316, "annotation": {"number": 64, "value": 127}, "group": "control_change"}, {"time": 2339, "annotation": {"number": 64, "value": 0}, "group": "control_change"}, {"time": 2341, "annotation": {"number": 64, "value": 127}, "group": "control_change"}, {"time": 2363, "annotation": {"number": 64, "value": 0}, "group": "control_change"}, {"time": 2365, "annotation": {"number": 64, "value": 127}, "group": "control_change"}, {"time": 2387, "annotation": {"number": 64, "value": 0}, "group": "control_change"}, {"time": 2389, "annotation": {"number": 64, "value": 127}, "group": "control_change"}, {"time": 2411, "annotation": {"number": 64, "value": 0}, "group": "control_change"}, {"time": 2413, "annotation": {"number": 64, "value": 127}, "group": "control_change"}, {"time": 2435, "annotation": {"number": 64, "value": 0}, "group": "control_change"}, {"time": 2437, "annotation": {"number": 64, "value": 127}, "group": "control_change"}, {"time": 2459, "annotation": {"number": 64, "value": 0}, "group": "control_change"}, {"time": 2461, "annotation": {"number": 64, "value": 127}, "group": "control_change"}, {"time": 2484, "annotation": {"number": 64, "value": 0}, "group": "control_change"}, {"time": 2485, "annotation": {"number": 64, "value": 127}, "group": "control_change"}, {"time": 2507, "annotation": {"number": 64, "value": 0}, "group": "control_change"}, {"time": 2509, "annotation": {"number": 64, "value": 127}, "group": "control_change"}, {"time": 2531, "annotation": {"number": 64, "value": 0}, "group": "control_change"}, {"time": 2532, "annotation": {"number": 64, "value": 127}, "group": "control_change"}, {"time": 2556, "annotation": {"number": 64, "value": 0}, "group": "control_change"}, {"time": 2557, "annotation": {"number": 64, "value": 127}, "group": "control_change"}, {"time": 2579, "annotation": {"number": 64, "value": 0}, "group": "control_change"}, {"time": 2581, "annotation": {"number": 64, "value": 127}, "group": "control_change"}, {"time": 2603, "annotation": {"number": 64, "value": 0}, "group": "control_change"}, {"time": 2605, "annotation": {"number": 64, "value": 127}, "group": "control_change"}, {"time": 2627, "annotation": {"number": 64, "value": 0}, "group": "control_change"}, {"time": 2629, "annotation": {"number": 64, "value": 127}, "group": "control_change"}, {"time": 2651, "annotation": {"number": 64, "value": 0}, "group": "control_change"}, {"time": 2652, "annotation": {"number": 64, "value": 127}, "group": "control_change"}, {"time": 2675, "annotation": {"number": 64, "value": 0}, "group": "control_change"}, {"time": 2677, "annotation": {"number": 64, "value": 127}, "group": "control_change"}, {"time": 2699, "annotation": {"number": 64, "value": 0}, "group": "control_change"}, {"time": 2724, "annotation": {"number": 64, "value": 0}, "group": "control_change"}, {"time": 2725, "annotation": {"number": 64, "value": 127}, "group": "control_change"}, {"time": 2747, "annotation": {"number": 64, "value": 0}, "group": "control_change"}, {"time": 2749, "annotation": {"number": 64, "value": 127}, "group": "control_change"}, {"time": 2771, "annotation": {"number": 64, "value": 0}, "group": "control_change"}, {"time": 2773, "annotation": {"number": 64, "value": 127}, "group": "control_change"}, {"time": 2794, "annotation": {"number": 64, "value": 0}, "group": "control_change"}, {"time": 2797, "annotation": {"number": 64, "value": 127}, "group": "control_change"}, {"time": 2819, "annotation": {"number": 64, "value": 0}, "group": "control_change"}, {"time": 2821, "annotation": {"number": 64, "value": 127}, "group": "control_change"}, {"time": 2844, "annotation": {"number": 64, "value": 0}, "group": "control_change"}, {"time": 2846, "annotation": {"number": 64, "value": 127}, "group": "control_change"}, {"time": 2865, "annotation": {"number": 64, "value": 0}, "group": "control_change"}, {"time": 2869, "annotation": {"number": 64, "value": 127}, "group": "control_change"}, {"time": 2891, "annotation": {"number": 64, "value": 0}, "group": "control_change"}, {"time": 2893, "annotation": {"number": 64, "value": 127}, "group": "control_change"}, {"time": 2915, "annotation": {"number": 64, "value": 0}, "group": "control_change"}, {"time": 2916, "annotation": {"number": 64, "value": 127}, "group": "control_change"}, {"time": 2940, "annotation": {"number": 64, "value": 0}, "group": "control_change"}, {"time": 2941, "annotation": {"number": 64, "value": 127}, "group": "control_change"}, {"time": 2963, "annotation": {"number": 64, "value": 0}, "group": "control_change"}, {"time": 2965, "annotation": {"number": 64, "value": 127}, "group": "control_change"}, {"time": 2987, "annotation": {"number": 64, "value": 0}, "group": "control_change"}, {"time": 2989, "annotation": {"number": 64, "value": 127}, "group": "control_change"}, {"time": 3011, "annotation": {"number": 64, "value": 0}, "group": "control_change"}, {"time": 3013, "annotation": {"number": 64, "value": 127}, "group": "control_change"}, {"time": 3035, "annotation": {"number": 64, "value": 0}, "group": "control_change"}, {"time": 3036, "annotation": {"number": 64, "value": 127}, "group": "control_change"}, {"time": 3059, "annotation": {"number": 64, "value": 0}, "group": "control_change"}, {"time": 3061, "annotation": {"number": 64, "value": 127}, "group": "control_change"}, {"time": 3083, "annotation": {"number": 64, "value": 0}, "group": "control_change"}, {"time": 3086, "annotation": {"number": 64, "value": 127}, "group": "control_change"}, {"time": 3133, "annotation": {"number": 64, "value": 0}, "group": "control_change"}, {"time": 3135, "annotation": {"number": 64, "value": 127}, "group": "control_change"}, {"time": 3180, "annotation": {"number": 64, "value": 0}, "group": "control_change"}, {"time": 3182, "annotation": {"number": 64, "value": 127}, "group": "control_change"}, {"time": 3205, "annotation": {"number": 64, "value": 0}, "group": "control_change"}, {"time": 3213, "annotation": {"number": 64, "value": 127}, "group": "control_change"}, {"time": 3244, "annotation": {"number": 64, "value": 0}, "group": "control_change"}, {"time": 3246, "annotation": {"number": 64, "value": 127}, "group": "control_change"}]}]}