{"metadata": {"schema_version": "0.2", "title": "None", "source_filename": "698.mid", "source_format": "midi"}, "resolution": 12, "tempos": [{"time": 0, "qpm": 76.00025840087856}], "time_signatures": [{"time": 0, "numerator": 1, "denominator": 4}], "tracks": [{"program": 0, "is_drum": false, "name": "MELODY", "notes": [{"time": 417, "pitch": 61, "duration": 4, "velocity": 84}, {"time": 423, "pitch": 61, "duration": 5, "velocity": 89}, {"time": 429, "pitch": 66, "duration": 5, "velocity": 86}, {"time": 435, "pitch": 65, "duration": 6, "velocity": 86}, {"time": 441, "pitch": 66, "duration": 4, "velocity": 87}, {"time": 447, "pitch": 66, "duration": 13, "velocity": 85}, {"time": 465, "pitch": 61, "duration": 4, "velocity": 84}, {"time": 471, "pitch": 61, "duration": 4, "velocity": 84}, {"time": 477, "pitch": 66, "duration": 5, "velocity": 84}, {"time": 483, "pitch": 65, "duration": 12, "velocity": 83}, {"time": 495, "pitch": 61, "duration": 9, "velocity": 87}, {"time": 513, "pitch": 58, "duration": 4, "velocity": 77}, {"time": 519, "pitch": 58, "duration": 4, "velocity": 86}, {"time": 525, "pitch": 61, "duration": 4, "velocity": 92}, {"time": 531, "pitch": 61, "duration": 4, "velocity": 85}, {"time": 537, "pitch": 54, "duration": 4, "velocity": 84}, {"time": 543, "pitch": 56, "duration": 5, "velocity": 84}, {"time": 549, "pitch": 54, "duration": 1, "velocity": 84}, {"time": 552, "pitch": 54, "duration": 2, "velocity": 83}, {"time": 555, "pitch": 54, "duration": 4, "velocity": 84}, {"time": 561, "pitch": 56, "duration": 4, "velocity": 84}, {"time": 567, "pitch": 58, "duration": 5, "velocity": 86}, {"time": 573, "pitch": 56, "duration": 8, "velocity": 87}, {"time": 585, "pitch": 54, "duration": 4, "velocity": 83}, {"time": 591, "pitch": 58, "duration": 5, "velocity": 83}, {"time": 597, "pitch": 56, "duration": 6, "velocity": 84}, {"time": 609, "pitch": 61, "duration": 4, "velocity": 84}, {"time": 615, "pitch": 61, "duration": 5, "velocity": 89}, {"time": 621, "pitch": 66, "duration": 5, "velocity": 86}, {"time": 627, "pitch": 65, "duration": 6, "velocity": 86}, {"time": 633, "pitch": 66, "duration": 4, "velocity": 87}, {"time": 639, "pitch": 66, "duration": 13, "velocity": 85}, {"time": 657, "pitch": 66, "duration": 5, "velocity": 83}, {"time": 663, "pitch": 68, "duration": 5, "velocity": 87}, {"time": 669, "pitch": 66, "duration": 5, "velocity": 83}, {"time": 675, "pitch": 70, "duration": 5, "velocity": 84}, {"time": 681, "pitch": 66, "duration": 5, "velocity": 84}, {"time": 687, "pitch": 68, "duration": 5, "velocity": 81}, {"time": 693, "pitch": 66, "duration": 7, "velocity": 84}, {"time": 705, "pitch": 73, "duration": 4, "velocity": 84}, {"time": 711, "pitch": 70, "duration": 5, "velocity": 82}, {"time": 717, "pitch": 66, "duration": 4, "velocity": 82}, {"time": 723, "pitch": 68, "duration": 4, "velocity": 82}, {"time": 729, "pitch": 66, "duration": 4, "velocity": 83}, {"time": 735, "pitch": 61, "duration": 4, "velocity": 85}, {"time": 741, "pitch": 66, "duration": 9, "velocity": 87}, {"time": 753, "pitch": 66, "duration": 4, "velocity": 86}, {"time": 759, "pitch": 70, "duration": 5, "velocity": 85}, {"time": 765, "pitch": 66, "duration": 4, "velocity": 84}, {"time": 771, "pitch": 66, "duration": 11, "velocity": 85}, {"time": 783, "pitch": 68, "duration": 9, "velocity": 83}, {"time": 795, "pitch": 70, "duration": 15, "velocity": 86}, {"time": 813, "pitch": 70, "duration": 4, "velocity": 87}, {"time": 819, "pitch": 68, "duration": 4, "velocity": 85}, {"time": 825, "pitch": 70, "duration": 4, "velocity": 86}, {"time": 831, "pitch": 68, "duration": 4, "velocity": 84}, {"time": 837, "pitch": 66, "duration": 3, "velocity": 85}, {"time": 843, "pitch": 63, "duration": 4, "velocity": 85}, {"time": 849, "pitch": 66, "duration": 4, "velocity": 84}, {"time": 855, "pitch": 68, "duration": 4, "velocity": 84}, {"time": 861, "pitch": 70, "duration": 4, "velocity": 85}, {"time": 867, "pitch": 70, "duration": 9, "velocity": 84}, {"time": 879, "pitch": 61, "duration": 10, "velocity": 87}, {"time": 891, "pitch": 70, "duration": 14, "velocity": 86}, {"time": 909, "pitch": 73, "duration": 4, "velocity": 85}, {"time": 915, "pitch": 73, "duration": 4, "velocity": 85}, {"time": 921, "pitch": 70, "duration": 3, "velocity": 82}, {"time": 927, "pitch": 68, "duration": 5, "velocity": 81}, {"time": 933, "pitch": 66, "duration": 4, "velocity": 84}, {"time": 939, "pitch": 66, "duration": 6, "velocity": 84}, {"time": 951, "pitch": 68, "duration": 9, "velocity": 86}, {"time": 963, "pitch": 70, "duration": 10, "velocity": 84}, {"time": 975, "pitch": 68, "duration": 10, "velocity": 82}, {"time": 1041, "pitch": 73, "duration": 4, "velocity": 82}, {"time": 1047, "pitch": 70, "duration": 4, "velocity": 89}, {"time": 1053, "pitch": 68, "duration": 5, "velocity": 82}, {"time": 1059, "pitch": 66, "duration": 4, "velocity": 84}, {"time": 1065, "pitch": 68, "duration": 4, "velocity": 81}, {"time": 1071, "pitch": 70, "duration": 12, "velocity": 88}, {"time": 1089, "pitch": 73, "duration": 4, "velocity": 84}, {"time": 1095, "pitch": 70, "duration": 4, "velocity": 84}, {"time": 1101, "pitch": 73, "duration": 3, "velocity": 86}, {"time": 1107, "pitch": 70, "duration": 11, "velocity": 84}, {"time": 1119, "pitch": 66, "duration": 10, "velocity": 85}, {"time": 1137, "pitch": 61, "duration": 4, "velocity": 86}, {"time": 1143, "pitch": 63, "duration": 4, "velocity": 85}, {"time": 1149, "pitch": 66, "duration": 4, "velocity": 84}, {"time": 1155, "pitch": 61, "duration": 4, "velocity": 84}, {"time": 1161, "pitch": 63, "duration": 4, "velocity": 85}, {"time": 1167, "pitch": 66, "duration": 7, "velocity": 84}, {"time": 1176, "pitch": 66, "duration": 1, "velocity": 84}, {"time": 1179, "pitch": 66, "duration": 3, "velocity": 83}, {"time": 1185, "pitch": 68, "duration": 4, "velocity": 84}, {"time": 1191, "pitch": 70, "duration": 5, "velocity": 85}, {"time": 1197, "pitch": 66, "duration": 4, "velocity": 85}, {"time": 1203, "pitch": 70, "duration": 10, "velocity": 87}, {"time": 1215, "pitch": 68, "duration": 9, "velocity": 81}, {"time": 1233, "pitch": 73, "duration": 4, "velocity": 82}, {"time": 1239, "pitch": 70, "duration": 4, "velocity": 89}, {"time": 1245, "pitch": 68, "duration": 5, "velocity": 82}, {"time": 1251, "pitch": 66, "duration": 4, "velocity": 84}, {"time": 1257, "pitch": 68, "duration": 4, "velocity": 81}, {"time": 1263, "pitch": 70, "duration": 12, "velocity": 88}, {"time": 1281, "pitch": 73, "duration": 4, "velocity": 84}, {"time": 1287, "pitch": 70, "duration": 4, "velocity": 84}, {"time": 1293, "pitch": 73, "duration": 3, "velocity": 86}, {"time": 1299, "pitch": 75, "duration": 6, "velocity": 84}, {"time": 1305, "pitch": 73, "duration": 4, "velocity": 84}, {"time": 1311, "pitch": 70, "duration": 4, "velocity": 92}, {"time": 1317, "pitch": 66, "duration": 7, "velocity": 86}, {"time": 1329, "pitch": 61, "duration": 4, "velocity": 86}, {"time": 1335, "pitch": 63, "duration": 4, "velocity": 85}, {"time": 1341, "pitch": 66, "duration": 4, "velocity": 84}, {"time": 1347, "pitch": 61, "duration": 4, "velocity": 84}, {"time": 1353, "pitch": 63, "duration": 4, "velocity": 85}, {"time": 1359, "pitch": 66, "duration": 7, "velocity": 84}, {"time": 1368, "pitch": 66, "duration": 1, "velocity": 84}, {"time": 1371, "pitch": 66, "duration": 3, "velocity": 83}, {"time": 1377, "pitch": 68, "duration": 4, "velocity": 84}, {"time": 1383, "pitch": 70, "duration": 5, "velocity": 85}, {"time": 1389, "pitch": 66, "duration": 4, "velocity": 85}, {"time": 1401, "pitch": 61, "duration": 4, "velocity": 85}, {"time": 1407, "pitch": 68, "duration": 9, "velocity": 82}, {"time": 1419, "pitch": 66, "duration": 37, "velocity": 79}, {"time": 1809, "pitch": 61, "duration": 4, "velocity": 84}, {"time": 1815, "pitch": 61, "duration": 5, "velocity": 89}, {"time": 1821, "pitch": 66, "duration": 5, "velocity": 86}, {"time": 1827, "pitch": 65, "duration": 6, "velocity": 86}, {"time": 1833, "pitch": 66, "duration": 4, "velocity": 87}, {"time": 1839, "pitch": 66, "duration": 13, "velocity": 85}, {"time": 1857, "pitch": 61, "duration": 4, "velocity": 84}, {"time": 1863, "pitch": 61, "duration": 4, "velocity": 84}, {"time": 1869, "pitch": 66, "duration": 5, "velocity": 84}, {"time": 1875, "pitch": 65, "duration": 12, "velocity": 83}, {"time": 1887, "pitch": 61, "duration": 9, "velocity": 87}, {"time": 1905, "pitch": 58, "duration": 4, "velocity": 77}, {"time": 1911, "pitch": 58, "duration": 4, "velocity": 86}, {"time": 1917, "pitch": 61, "duration": 4, "velocity": 92}, {"time": 1923, "pitch": 61, "duration": 4, "velocity": 85}, {"time": 1929, "pitch": 54, "duration": 4, "velocity": 84}, {"time": 1935, "pitch": 56, "duration": 5, "velocity": 84}, {"time": 1941, "pitch": 54, "duration": 1, "velocity": 84}, {"time": 1944, "pitch": 54, "duration": 2, "velocity": 83}, {"time": 1947, "pitch": 54, "duration": 4, "velocity": 84}, {"time": 1953, "pitch": 56, "duration": 4, "velocity": 84}, {"time": 1959, "pitch": 58, "duration": 5, "velocity": 86}, {"time": 1965, "pitch": 56, "duration": 8, "velocity": 87}, {"time": 1977, "pitch": 54, "duration": 4, "velocity": 83}, {"time": 1983, "pitch": 58, "duration": 5, "velocity": 83}, {"time": 1989, "pitch": 56, "duration": 6, "velocity": 84}, {"time": 2001, "pitch": 61, "duration": 4, "velocity": 84}, {"time": 2007, "pitch": 61, "duration": 5, "velocity": 89}, {"time": 2013, "pitch": 66, "duration": 5, "velocity": 86}, {"time": 2019, "pitch": 65, "duration": 6, "velocity": 86}, {"time": 2025, "pitch": 66, "duration": 4, "velocity": 87}, {"time": 2031, "pitch": 66, "duration": 13, "velocity": 85}, {"time": 2049, "pitch": 66, "duration": 5, "velocity": 83}, {"time": 2055, "pitch": 68, "duration": 5, "velocity": 87}, {"time": 2061, "pitch": 66, "duration": 5, "velocity": 83}, {"time": 2067, "pitch": 70, "duration": 5, "velocity": 84}, {"time": 2073, "pitch": 73, "duration": 5, "velocity": 84}, {"time": 2079, "pitch": 70, "duration": 3, "velocity": 81}, {"time": 2082, "pitch": 68, "duration": 2, "velocity": 79}, {"time": 2085, "pitch": 66, "duration": 7, "velocity": 84}, {"time": 2097, "pitch": 73, "duration": 4, "velocity": 84}, {"time": 2103, "pitch": 70, "duration": 5, "velocity": 82}, {"time": 2109, "pitch": 66, "duration": 4, "velocity": 82}, {"time": 2115, "pitch": 68, "duration": 4, "velocity": 82}, {"time": 2121, "pitch": 66, "duration": 4, "velocity": 83}, {"time": 2127, "pitch": 61, "duration": 4, "velocity": 85}, {"time": 2133, "pitch": 66, "duration": 9, "velocity": 87}, {"time": 2145, "pitch": 66, "duration": 4, "velocity": 86}, {"time": 2151, "pitch": 70, "duration": 5, "velocity": 85}, {"time": 2157, "pitch": 66, "duration": 4, "velocity": 84}, {"time": 2163, "pitch": 66, "duration": 11, "velocity": 85}, {"time": 2175, "pitch": 68, "duration": 9, "velocity": 83}, {"time": 2187, "pitch": 70, "duration": 15, "velocity": 86}, {"time": 2205, "pitch": 70, "duration": 4, "velocity": 87}, {"time": 2211, "pitch": 68, "duration": 4, "velocity": 85}, {"time": 2217, "pitch": 70, "duration": 4, "velocity": 86}, {"time": 2223, "pitch": 68, "duration": 4, "velocity": 84}, {"time": 2229, "pitch": 66, "duration": 3, "velocity": 85}, {"time": 2235, "pitch": 63, "duration": 4, "velocity": 85}, {"time": 2241, "pitch": 66, "duration": 4, "velocity": 84}, {"time": 2247, "pitch": 68, "duration": 4, "velocity": 84}, {"time": 2253, "pitch": 70, "duration": 4, "velocity": 85}, {"time": 2259, "pitch": 70, "duration": 9, "velocity": 84}, {"time": 2271, "pitch": 61, "duration": 10, "velocity": 87}, {"time": 2283, "pitch": 70, "duration": 14, "velocity": 86}, {"time": 2301, "pitch": 73, "duration": 4, "velocity": 85}, {"time": 2307, "pitch": 73, "duration": 4, "velocity": 85}, {"time": 2313, "pitch": 70, "duration": 3, "velocity": 82}, {"time": 2319, "pitch": 68, "duration": 5, "velocity": 81}, {"time": 2325, "pitch": 66, "duration": 4, "velocity": 84}, {"time": 2331, "pitch": 66, "duration": 6, "velocity": 84}, {"time": 2343, "pitch": 68, "duration": 9, "velocity": 86}, {"time": 2355, "pitch": 70, "duration": 10, "velocity": 84}, {"time": 2367, "pitch": 68, "duration": 10, "velocity": 82}, {"time": 2433, "pitch": 73, "duration": 4, "velocity": 82}, {"time": 2439, "pitch": 70, "duration": 4, "velocity": 89}, {"time": 2445, "pitch": 68, "duration": 5, "velocity": 82}, {"time": 2451, "pitch": 66, "duration": 4, "velocity": 84}, {"time": 2457, "pitch": 68, "duration": 4, "velocity": 81}, {"time": 2463, "pitch": 70, "duration": 12, "velocity": 88}, {"time": 2481, "pitch": 73, "duration": 4, "velocity": 84}, {"time": 2487, "pitch": 70, "duration": 4, "velocity": 84}, {"time": 2493, "pitch": 73, "duration": 3, "velocity": 86}, {"time": 2499, "pitch": 70, "duration": 11, "velocity": 84}, {"time": 2511, "pitch": 66, "duration": 10, "velocity": 85}, {"time": 2529, "pitch": 61, "duration": 4, "velocity": 86}, {"time": 2535, "pitch": 63, "duration": 4, "velocity": 85}, {"time": 2541, "pitch": 66, "duration": 4, "velocity": 84}, {"time": 2547, "pitch": 61, "duration": 4, "velocity": 84}, {"time": 2553, "pitch": 63, "duration": 4, "velocity": 85}, {"time": 2559, "pitch": 66, "duration": 7, "velocity": 84}, {"time": 2568, "pitch": 66, "duration": 1, "velocity": 84}, {"time": 2571, "pitch": 66, "duration": 3, "velocity": 83}, {"time": 2577, "pitch": 68, "duration": 4, "velocity": 84}, {"time": 2583, "pitch": 70, "duration": 5, "velocity": 85}, {"time": 2589, "pitch": 66, "duration": 4, "velocity": 85}, {"time": 2595, "pitch": 70, "duration": 6, "velocity": 87}, {"time": 2601, "pitch": 68, "duration": 3, "velocity": 79}, {"time": 2607, "pitch": 68, "duration": 9, "velocity": 81}, {"time": 2625, "pitch": 73, "duration": 4, "velocity": 82}, {"time": 2631, "pitch": 70, "duration": 4, "velocity": 89}, {"time": 2637, "pitch": 68, "duration": 5, "velocity": 82}, {"time": 2643, "pitch": 66, "duration": 4, "velocity": 84}, {"time": 2649, "pitch": 68, "duration": 4, "velocity": 81}, {"time": 2655, "pitch": 70, "duration": 12, "velocity": 88}, {"time": 2673, "pitch": 73, "duration": 4, "velocity": 84}, {"time": 2679, "pitch": 70, "duration": 4, "velocity": 84}, {"time": 2685, "pitch": 73, "duration": 3, "velocity": 86}, {"time": 2691, "pitch": 75, "duration": 6, "velocity": 84}, {"time": 2697, "pitch": 73, "duration": 4, "velocity": 84}, {"time": 2703, "pitch": 70, "duration": 4, "velocity": 92}, {"time": 2709, "pitch": 66, "duration": 7, "velocity": 86}, {"time": 2721, "pitch": 61, "duration": 4, "velocity": 86}, {"time": 2727, "pitch": 63, "duration": 4, "velocity": 85}, {"time": 2733, "pitch": 66, "duration": 4, "velocity": 84}, {"time": 2739, "pitch": 61, "duration": 4, "velocity": 84}, {"time": 2745, "pitch": 63, "duration": 4, "velocity": 85}, {"time": 2751, "pitch": 66, "duration": 7, "velocity": 84}, {"time": 2760, "pitch": 66, "duration": 1, "velocity": 84}, {"time": 2763, "pitch": 66, "duration": 3, "velocity": 83}, {"time": 2769, "pitch": 68, "duration": 4, "velocity": 84}, {"time": 2775, "pitch": 70, "duration": 5, "velocity": 85}, {"time": 2781, "pitch": 66, "duration": 4, "velocity": 85}, {"time": 2793, "pitch": 61, "duration": 4, "velocity": 85}, {"time": 2799, "pitch": 68, "duration": 5, "velocity": 82}, {"time": 2805, "pitch": 66, "duration": 3, "velocity": 79}, {"time": 2811, "pitch": 66, "duration": 37, "velocity": 79}, {"time": 2913, "pitch": 73, "duration": 4, "velocity": 82}, {"time": 2919, "pitch": 70, "duration": 4, "velocity": 89}, {"time": 2925, "pitch": 68, "duration": 5, "velocity": 82}, {"time": 2931, "pitch": 66, "duration": 4, "velocity": 84}, {"time": 2937, "pitch": 68, "duration": 4, "velocity": 81}, {"time": 2943, "pitch": 70, "duration": 12, "velocity": 88}, {"time": 2961, "pitch": 73, "duration": 4, "velocity": 84}, {"time": 2967, "pitch": 70, "duration": 4, "velocity": 84}, {"time": 2973, "pitch": 73, "duration": 3, "velocity": 86}, {"time": 2979, "pitch": 70, "duration": 11, "velocity": 84}, {"time": 2991, "pitch": 66, "duration": 10, "velocity": 85}, {"time": 3009, "pitch": 61, "duration": 4, "velocity": 86}, {"time": 3015, "pitch": 63, "duration": 4, "velocity": 85}, {"time": 3021, "pitch": 66, "duration": 4, "velocity": 84}, {"time": 3027, "pitch": 61, "duration": 4, "velocity": 84}, {"time": 3033, "pitch": 63, "duration": 4, "velocity": 85}, {"time": 3039, "pitch": 66, "duration": 7, "velocity": 84}, {"time": 3048, "pitch": 66, "duration": 1, "velocity": 84}, {"time": 3051, "pitch": 66, "duration": 3, "velocity": 83}, {"time": 3057, "pitch": 68, "duration": 4, "velocity": 84}, {"time": 3063, "pitch": 70, "duration": 5, "velocity": 85}, {"time": 3069, "pitch": 66, "duration": 4, "velocity": 85}, {"time": 3075, "pitch": 70, "duration": 10, "velocity": 87}, {"time": 3087, "pitch": 68, "duration": 9, "velocity": 81}, {"time": 3105, "pitch": 73, "duration": 4, "velocity": 82}, {"time": 3111, "pitch": 70, "duration": 4, "velocity": 89}, {"time": 3117, "pitch": 68, "duration": 5, "velocity": 82}, {"time": 3123, "pitch": 66, "duration": 4, "velocity": 84}, {"time": 3129, "pitch": 68, "duration": 4, "velocity": 81}, {"time": 3135, "pitch": 70, "duration": 12, "velocity": 88}, {"time": 3153, "pitch": 73, "duration": 4, "velocity": 84}, {"time": 3159, "pitch": 70, "duration": 4, "velocity": 84}, {"time": 3165, "pitch": 73, "duration": 3, "velocity": 86}, {"time": 3171, "pitch": 75, "duration": 6, "velocity": 84}, {"time": 3177, "pitch": 73, "duration": 4, "velocity": 84}, {"time": 3183, "pitch": 70, "duration": 4, "velocity": 92}, {"time": 3189, "pitch": 66, "duration": 7, "velocity": 86}, {"time": 3201, "pitch": 61, "duration": 4, "velocity": 86}, {"time": 3207, "pitch": 63, "duration": 4, "velocity": 85}, {"time": 3213, "pitch": 66, "duration": 4, "velocity": 84}, {"time": 3219, "pitch": 61, "duration": 4, "velocity": 84}, {"time": 3225, "pitch": 63, "duration": 4, "velocity": 85}, {"time": 3231, "pitch": 66, "duration": 7, "velocity": 84}, {"time": 3240, "pitch": 66, "duration": 1, "velocity": 84}, {"time": 3243, "pitch": 66, "duration": 3, "velocity": 83}, {"time": 3249, "pitch": 68, "duration": 4, "velocity": 84}, {"time": 3255, "pitch": 70, "duration": 5, "velocity": 85}, {"time": 3261, "pitch": 66, "duration": 4, "velocity": 85}, {"time": 3273, "pitch": 61, "duration": 4, "velocity": 85}, {"time": 3279, "pitch": 68, "duration": 6, "velocity": 82}, {"time": 3284, "pitch": 66, "duration": 5, "velocity": 81}, {"time": 3291, "pitch": 66, "duration": 37, "velocity": 79}]}, {"program": 0, "is_drum": false, "name": "BRIDGE", "notes": [{"time": 9, "pitch": 77, "duration": 7, "velocity": 84}, {"time": 15, "pitch": 78, "duration": 6, "velocity": 89}, {"time": 21, "pitch": 80, "duration": 7, "velocity": 83}, {"time": 27, "pitch": 82, "duration": 6, "velocity": 87}, {"time": 33, "pitch": 78, "duration": 6, "velocity": 74}, {"time": 39, "pitch": 77, "duration": 7, "velocity": 85}, {"time": 45, "pitch": 78, "duration": 6, "velocity": 89}, {"time": 51, "pitch": 80, "duration": 6, "velocity": 86}, {"time": 57, "pitch": 78, "duration": 6, "velocity": 83}, {"time": 63, "pitch": 77, "duration": 6, "velocity": 85}, {"time": 69, "pitch": 78, "duration": 6, "velocity": 84}, {"time": 75, "pitch": 71, "duration": 25, "velocity": 83}, {"time": 105, "pitch": 77, "duration": 7, "velocity": 84}, {"time": 111, "pitch": 78, "duration": 6, "velocity": 89}, {"time": 117, "pitch": 80, "duration": 7, "velocity": 83}, {"time": 123, "pitch": 82, "duration": 6, "velocity": 87}, {"time": 129, "pitch": 78, "duration": 6, "velocity": 74}, {"time": 135, "pitch": 77, "duration": 7, "velocity": 85}, {"time": 141, "pitch": 78, "duration": 6, "velocity": 89}, {"time": 147, "pitch": 80, "duration": 6, "velocity": 86}, {"time": 153, "pitch": 78, "duration": 6, "velocity": 83}, {"time": 159, "pitch": 77, "duration": 6, "velocity": 85}, {"time": 165, "pitch": 78, "duration": 6, "velocity": 84}, {"time": 171, "pitch": 78, "duration": 25, "velocity": 83}, {"time": 201, "pitch": 58, "duration": 7, "velocity": 83}, {"time": 207, "pitch": 59, "duration": 6, "velocity": 81}, {"time": 207, "pitch": 77, "duration": 6, "velocity": 94}, {"time": 213, "pitch": 61, "duration": 7, "velocity": 84}, {"time": 213, "pitch": 78, "duration": 3, "velocity": 86}, {"time": 216, "pitch": 80, "duration": 3, "velocity": 87}, {"time": 219, "pitch": 63, "duration": 23, "velocity": 79}, {"time": 219, "pitch": 82, "duration": 25, "velocity": 87}, {"time": 243, "pitch": 61, "duration": 23, "velocity": 79}, {"time": 249, "pitch": 77, "duration": 6, "velocity": 85}, {"time": 255, "pitch": 78, "duration": 5, "velocity": 82}, {"time": 261, "pitch": 80, "duration": 5, "velocity": 88}, {"time": 267, "pitch": 58, "duration": 9, "velocity": 73}, {"time": 267, "pitch": 61, "duration": 10, "velocity": 79}, {"time": 267, "pitch": 82, "duration": 12, "velocity": 88}, {"time": 279, "pitch": 56, "duration": 9, "velocity": 76}, {"time": 279, "pitch": 59, "duration": 11, "velocity": 72}, {"time": 279, "pitch": 80, "duration": 11, "velocity": 87}, {"time": 291, "pitch": 54, "duration": 13, "velocity": 72}, {"time": 291, "pitch": 59, "duration": 13, "velocity": 75}, {"time": 291, "pitch": 75, "duration": 11, "velocity": 92}, {"time": 303, "pitch": 61, "duration": 10, "velocity": 83}, {"time": 303, "pitch": 77, "duration": 12, "velocity": 87}, {"time": 315, "pitch": 54, "duration": 47, "velocity": 68}, {"time": 315, "pitch": 59, "duration": 47, "velocity": 65}, {"time": 315, "pitch": 78, "duration": 48, "velocity": 83}, {"time": 363, "pitch": 52, "duration": 38, "velocity": 71}, {"time": 363, "pitch": 68, "duration": 47, "velocity": 78}, {"time": 603, "pitch": 66, "duration": 11, "velocity": 73}, {"time": 609, "pitch": 61, "duration": 6, "velocity": 74}, {"time": 615, "pitch": 68, "duration": 7, "velocity": 77}, {"time": 621, "pitch": 70, "duration": 29, "velocity": 78}, {"time": 657, "pitch": 61, "duration": 6, "velocity": 75}, {"time": 663, "pitch": 68, "duration": 7, "velocity": 76}, {"time": 669, "pitch": 70, "duration": 26, "velocity": 75}, {"time": 699, "pitch": 66, "duration": 9, "velocity": 77}, {"time": 705, "pitch": 63, "duration": 6, "velocity": 59}, {"time": 711, "pitch": 68, "duration": 7, "velocity": 72}, {"time": 717, "pitch": 70, "duration": 21, "velocity": 75}, {"time": 753, "pitch": 75, "duration": 16, "velocity": 83}, {"time": 759, "pitch": 71, "duration": 8, "velocity": 69}, {"time": 771, "pitch": 68, "duration": 11, "velocity": 70}, {"time": 771, "pitch": 73, "duration": 11, "velocity": 76}, {"time": 783, "pitch": 71, "duration": 10, "velocity": 72}, {"time": 795, "pitch": 70, "duration": 22, "velocity": 71}, {"time": 795, "pitch": 75, "duration": 23, "velocity": 69}, {"time": 819, "pitch": 74, "duration": 23, "velocity": 79}, {"time": 843, "pitch": 71, "duration": 14, "velocity": 80}, {"time": 855, "pitch": 68, "duration": 10, "velocity": 71}, {"time": 867, "pitch": 70, "duration": 16, "velocity": 85}, {"time": 891, "pitch": 66, "duration": 21, "velocity": 73}, {"time": 891, "pitch": 70, "duration": 21, "velocity": 77}, {"time": 915, "pitch": 68, "duration": 11, "velocity": 78}, {"time": 927, "pitch": 66, "duration": 10, "velocity": 78}, {"time": 939, "pitch": 66, "duration": 10, "velocity": 83}, {"time": 951, "pitch": 68, "duration": 10, "velocity": 79}, {"time": 963, "pitch": 70, "duration": 10, "velocity": 83}, {"time": 975, "pitch": 68, "duration": 9, "velocity": 77}, {"time": 993, "pitch": 83, "duration": 3, "velocity": 84}, {"time": 996, "pitch": 82, "duration": 2, "velocity": 87}, {"time": 999, "pitch": 78, "duration": 6, "velocity": 86}, {"time": 1005, "pitch": 75, "duration": 5, "velocity": 97}, {"time": 1011, "pitch": 78, "duration": 12, "velocity": 87}, {"time": 1023, "pitch": 80, "duration": 6, "velocity": 88}, {"time": 1029, "pitch": 85, "duration": 6, "velocity": 87}, {"time": 1035, "pitch": 82, "duration": 22, "velocity": 72}, {"time": 1059, "pitch": 80, "duration": 13, "velocity": 79}, {"time": 1071, "pitch": 82, "duration": 12, "velocity": 83}, {"time": 1083, "pitch": 78, "duration": 23, "velocity": 77}, {"time": 1107, "pitch": 77, "duration": 19, "velocity": 82}, {"time": 1125, "pitch": 78, "duration": 6, "velocity": 79}, {"time": 1131, "pitch": 75, "duration": 24, "velocity": 85}, {"time": 1155, "pitch": 82, "duration": 12, "velocity": 84}, {"time": 1167, "pitch": 80, "duration": 5, "velocity": 85}, {"time": 1173, "pitch": 78, "duration": 6, "velocity": 82}, {"time": 1179, "pitch": 83, "duration": 35, "velocity": 89}, {"time": 1215, "pitch": 85, "duration": 11, "velocity": 87}, {"time": 1227, "pitch": 78, "duration": 21, "velocity": 79}, {"time": 1227, "pitch": 82, "duration": 23, "velocity": 85}, {"time": 1251, "pitch": 80, "duration": 12, "velocity": 84}, {"time": 1263, "pitch": 78, "duration": 12, "velocity": 84}, {"time": 1275, "pitch": 82, "duration": 23, "velocity": 79}, {"time": 1299, "pitch": 80, "duration": 12, "velocity": 83}, {"time": 1311, "pitch": 78, "duration": 6, "velocity": 83}, {"time": 1317, "pitch": 77, "duration": 6, "velocity": 83}, {"time": 1323, "pitch": 78, "duration": 24, "velocity": 84}, {"time": 1347, "pitch": 82, "duration": 20, "velocity": 85}, {"time": 1371, "pitch": 83, "duration": 21, "velocity": 86}, {"time": 1395, "pitch": 83, "duration": 6, "velocity": 90}, {"time": 1401, "pitch": 82, "duration": 6, "velocity": 90}, {"time": 1407, "pitch": 78, "duration": 6, "velocity": 94}, {"time": 1413, "pitch": 73, "duration": 5, "velocity": 94}, {"time": 1419, "pitch": 70, "duration": 4, "velocity": 92}, {"time": 1419, "pitch": 78, "duration": 36, "velocity": 81}, {"time": 1422, "pitch": 68, "duration": 4, "velocity": 79}, {"time": 1425, "pitch": 61, "duration": 3, "velocity": 83}, {"time": 1428, "pitch": 70, "duration": 4, "velocity": 87}, {"time": 1431, "pitch": 68, "duration": 3, "velocity": 83}, {"time": 1434, "pitch": 61, "duration": 4, "velocity": 85}, {"time": 1437, "pitch": 70, "duration": 2, "velocity": 76}, {"time": 1443, "pitch": 73, "duration": 7, "velocity": 85}, {"time": 1452, "pitch": 71, "duration": 7, "velocity": 104}, {"time": 1455, "pitch": 85, "duration": 12, "velocity": 84}, {"time": 1461, "pitch": 70, "duration": 6, "velocity": 90}, {"time": 1467, "pitch": 68, "duration": 15, "velocity": 97}, {"time": 1467, "pitch": 85, "duration": 24, "velocity": 84}, {"time": 1482, "pitch": 61, "duration": 2, "velocity": 90}, {"time": 1485, "pitch": 70, "duration": 1, "velocity": 85}, {"time": 1488, "pitch": 71, "duration": 2, "velocity": 92}, {"time": 1491, "pitch": 73, "duration": 8, "velocity": 82}, {"time": 1491, "pitch": 80, "duration": 12, "velocity": 84}, {"time": 1503, "pitch": 71, "duration": 6, "velocity": 84}, {"time": 1503, "pitch": 78, "duration": 6, "velocity": 84}, {"time": 1509, "pitch": 70, "duration": 6, "velocity": 87}, {"time": 1509, "pitch": 77, "duration": 6, "velocity": 84}, {"time": 1515, "pitch": 70, "duration": 24, "velocity": 87}, {"time": 1515, "pitch": 75, "duration": 24, "velocity": 92}, {"time": 1539, "pitch": 61, "duration": 10, "velocity": 83}, {"time": 1539, "pitch": 65, "duration": 10, "velocity": 86}, {"time": 1539, "pitch": 77, "duration": 11, "velocity": 94}, {"time": 1551, "pitch": 63, "duration": 11, "velocity": 82}, {"time": 1551, "pitch": 66, "duration": 11, "velocity": 86}, {"time": 1551, "pitch": 78, "duration": 12, "velocity": 84}, {"time": 1563, "pitch": 63, "duration": 6, "velocity": 83}, {"time": 1563, "pitch": 83, "duration": 6, "velocity": 87}, {"time": 1569, "pitch": 61, "duration": 6, "velocity": 88}, {"time": 1569, "pitch": 82, "duration": 6, "velocity": 90}, {"time": 1575, "pitch": 59, "duration": 6, "velocity": 84}, {"time": 1575, "pitch": 78, "duration": 6, "velocity": 77}, {"time": 1581, "pitch": 54, "duration": 4, "velocity": 85}, {"time": 1581, "pitch": 75, "duration": 7, "velocity": 85}, {"time": 1587, "pitch": 61, "duration": 9, "velocity": 77}, {"time": 1587, "pitch": 77, "duration": 8, "velocity": 89}, {"time": 1596, "pitch": 63, "duration": 8, "velocity": 85}, {"time": 1596, "pitch": 78, "duration": 9, "velocity": 89}, {"time": 1605, "pitch": 65, "duration": 4, "velocity": 87}, {"time": 1605, "pitch": 80, "duration": 6, "velocity": 88}, {"time": 1611, "pitch": 66, "duration": 12, "velocity": 92}, {"time": 1611, "pitch": 82, "duration": 24, "velocity": 88}, {"time": 1623, "pitch": 70, "duration": 3, "velocity": 87}, {"time": 1626, "pitch": 71, "duration": 2, "velocity": 85}, {"time": 1629, "pitch": 73, "duration": 4, "velocity": 94}, {"time": 1635, "pitch": 73, "duration": 7, "velocity": 99}, {"time": 1635, "pitch": 85, "duration": 22, "velocity": 85}, {"time": 1644, "pitch": 71, "duration": 8, "velocity": 90}, {"time": 1653, "pitch": 70, "duration": 6, "velocity": 87}, {"time": 1659, "pitch": 68, "duration": 18, "velocity": 87}, {"time": 1659, "pitch": 85, "duration": 28, "velocity": 94}, {"time": 1683, "pitch": 71, "duration": 8, "velocity": 90}, {"time": 1689, "pitch": 83, "duration": 7, "velocity": 79}, {"time": 1692, "pitch": 70, "duration": 7, "velocity": 89}, {"time": 1695, "pitch": 82, "duration": 5, "velocity": 84}, {"time": 1701, "pitch": 68, "duration": 6, "velocity": 87}, {"time": 1701, "pitch": 80, "duration": 5, "velocity": 85}, {"time": 1707, "pitch": 66, "duration": 22, "velocity": 87}, {"time": 1707, "pitch": 78, "duration": 25, "velocity": 87}, {"time": 1731, "pitch": 68, "duration": 11, "velocity": 85}, {"time": 1731, "pitch": 80, "duration": 12, "velocity": 89}, {"time": 1743, "pitch": 70, "duration": 11, "velocity": 90}, {"time": 1743, "pitch": 82, "duration": 11, "velocity": 85}, {"time": 1755, "pitch": 66, "duration": 25, "velocity": 87}, {"time": 1755, "pitch": 78, "duration": 25, "velocity": 85}, {"time": 1773, "pitch": 63, "duration": 5, "velocity": 87}, {"time": 1779, "pitch": 70, "duration": 11, "velocity": 85}, {"time": 1779, "pitch": 82, "duration": 12, "velocity": 84}, {"time": 1791, "pitch": 65, "duration": 10, "velocity": 83}, {"time": 1791, "pitch": 73, "duration": 12, "velocity": 72}, {"time": 1791, "pitch": 77, "duration": 12, "velocity": 84}, {"time": 1995, "pitch": 66, "duration": 11, "velocity": 73}, {"time": 2001, "pitch": 61, "duration": 6, "velocity": 74}, {"time": 2007, "pitch": 68, "duration": 7, "velocity": 77}, {"time": 2013, "pitch": 70, "duration": 29, "velocity": 78}, {"time": 2049, "pitch": 61, "duration": 6, "velocity": 75}, {"time": 2055, "pitch": 68, "duration": 7, "velocity": 76}, {"time": 2061, "pitch": 70, "duration": 26, "velocity": 75}, {"time": 2091, "pitch": 66, "duration": 9, "velocity": 77}, {"time": 2097, "pitch": 63, "duration": 6, "velocity": 59}, {"time": 2103, "pitch": 68, "duration": 7, "velocity": 72}, {"time": 2109, "pitch": 70, "duration": 21, "velocity": 75}, {"time": 2145, "pitch": 75, "duration": 16, "velocity": 83}, {"time": 2151, "pitch": 71, "duration": 8, "velocity": 69}, {"time": 2163, "pitch": 68, "duration": 11, "velocity": 70}, {"time": 2163, "pitch": 73, "duration": 11, "velocity": 76}, {"time": 2175, "pitch": 71, "duration": 10, "velocity": 72}, {"time": 2187, "pitch": 70, "duration": 22, "velocity": 71}, {"time": 2187, "pitch": 75, "duration": 23, "velocity": 69}, {"time": 2211, "pitch": 74, "duration": 23, "velocity": 79}, {"time": 2235, "pitch": 71, "duration": 14, "velocity": 80}, {"time": 2247, "pitch": 68, "duration": 10, "velocity": 71}, {"time": 2259, "pitch": 70, "duration": 16, "velocity": 85}, {"time": 2283, "pitch": 66, "duration": 21, "velocity": 73}, {"time": 2283, "pitch": 70, "duration": 21, "velocity": 77}, {"time": 2307, "pitch": 68, "duration": 11, "velocity": 78}, {"time": 2319, "pitch": 66, "duration": 10, "velocity": 78}, {"time": 2331, "pitch": 66, "duration": 10, "velocity": 83}, {"time": 2343, "pitch": 68, "duration": 10, "velocity": 79}, {"time": 2355, "pitch": 70, "duration": 10, "velocity": 83}, {"time": 2367, "pitch": 68, "duration": 9, "velocity": 77}, {"time": 2385, "pitch": 83, "duration": 3, "velocity": 84}, {"time": 2388, "pitch": 82, "duration": 2, "velocity": 87}, {"time": 2391, "pitch": 78, "duration": 6, "velocity": 86}, {"time": 2397, "pitch": 75, "duration": 5, "velocity": 97}, {"time": 2403, "pitch": 78, "duration": 12, "velocity": 87}, {"time": 2415, "pitch": 80, "duration": 6, "velocity": 88}, {"time": 2421, "pitch": 85, "duration": 6, "velocity": 87}, {"time": 2427, "pitch": 82, "duration": 22, "velocity": 72}, {"time": 2451, "pitch": 80, "duration": 13, "velocity": 79}, {"time": 2463, "pitch": 82, "duration": 12, "velocity": 83}, {"time": 2475, "pitch": 78, "duration": 23, "velocity": 77}, {"time": 2499, "pitch": 77, "duration": 19, "velocity": 82}, {"time": 2517, "pitch": 78, "duration": 6, "velocity": 79}, {"time": 2523, "pitch": 75, "duration": 24, "velocity": 85}, {"time": 2547, "pitch": 82, "duration": 12, "velocity": 84}, {"time": 2559, "pitch": 80, "duration": 5, "velocity": 85}, {"time": 2565, "pitch": 78, "duration": 6, "velocity": 82}, {"time": 2571, "pitch": 83, "duration": 35, "velocity": 89}, {"time": 2607, "pitch": 85, "duration": 11, "velocity": 87}, {"time": 2619, "pitch": 78, "duration": 21, "velocity": 79}, {"time": 2619, "pitch": 82, "duration": 23, "velocity": 85}, {"time": 2643, "pitch": 80, "duration": 12, "velocity": 84}, {"time": 2655, "pitch": 78, "duration": 12, "velocity": 84}, {"time": 2667, "pitch": 82, "duration": 23, "velocity": 79}, {"time": 2691, "pitch": 80, "duration": 12, "velocity": 83}, {"time": 2703, "pitch": 78, "duration": 6, "velocity": 83}, {"time": 2709, "pitch": 77, "duration": 6, "velocity": 83}, {"time": 2715, "pitch": 78, "duration": 24, "velocity": 84}, {"time": 2739, "pitch": 82, "duration": 20, "velocity": 85}, {"time": 2763, "pitch": 83, "duration": 21, "velocity": 86}, {"time": 2787, "pitch": 83, "duration": 6, "velocity": 90}, {"time": 2793, "pitch": 82, "duration": 6, "velocity": 90}, {"time": 2799, "pitch": 78, "duration": 6, "velocity": 94}, {"time": 2805, "pitch": 73, "duration": 5, "velocity": 94}, {"time": 2810, "pitch": 78, "duration": 18, "velocity": 94}, {"time": 2828, "pitch": 85, "duration": 7, "velocity": 89}, {"time": 2834, "pitch": 83, "duration": 6, "velocity": 94}, {"time": 2840, "pitch": 82, "duration": 6, "velocity": 94}, {"time": 2846, "pitch": 80, "duration": 7, "velocity": 90}, {"time": 2852, "pitch": 78, "duration": 6, "velocity": 86}, {"time": 2858, "pitch": 75, "duration": 7, "velocity": 94}, {"time": 2864, "pitch": 77, "duration": 7, "velocity": 97}, {"time": 2870, "pitch": 78, "duration": 6, "velocity": 89}, {"time": 2876, "pitch": 77, "duration": 6, "velocity": 85}, {"time": 2883, "pitch": 77, "duration": 12, "velocity": 97}, {"time": 2894, "pitch": 73, "duration": 12, "velocity": 84}, {"time": 2991, "pitch": 85, "duration": 6, "velocity": 84}, {"time": 2997, "pitch": 82, "duration": 6, "velocity": 79}, {"time": 3003, "pitch": 82, "duration": 24, "velocity": 85}, {"time": 3027, "pitch": 82, "duration": 1, "velocity": 84}, {"time": 3039, "pitch": 80, "duration": 5, "velocity": 85}, {"time": 3045, "pitch": 78, "duration": 6, "velocity": 82}, {"time": 3051, "pitch": 83, "duration": 35, "velocity": 89}, {"time": 3087, "pitch": 85, "duration": 11, "velocity": 87}, {"time": 3099, "pitch": 78, "duration": 21, "velocity": 79}, {"time": 3099, "pitch": 82, "duration": 23, "velocity": 85}, {"time": 3123, "pitch": 80, "duration": 12, "velocity": 84}, {"time": 3135, "pitch": 78, "duration": 12, "velocity": 84}, {"time": 3147, "pitch": 82, "duration": 23, "velocity": 79}, {"time": 3171, "pitch": 80, "duration": 12, "velocity": 83}, {"time": 3183, "pitch": 78, "duration": 6, "velocity": 83}, {"time": 3189, "pitch": 77, "duration": 6, "velocity": 83}, {"time": 3195, "pitch": 78, "duration": 24, "velocity": 84}, {"time": 3219, "pitch": 82, "duration": 20, "velocity": 85}, {"time": 3243, "pitch": 83, "duration": 21, "velocity": 86}, {"time": 3267, "pitch": 83, "duration": 6, "velocity": 90}, {"time": 3273, "pitch": 82, "duration": 6, "velocity": 90}, {"time": 3279, "pitch": 78, "duration": 6, "velocity": 94}, {"time": 3285, "pitch": 73, "duration": 5, "velocity": 94}, {"time": 3291, "pitch": 78, "duration": 69, "velocity": 80}, {"time": 3291, "pitch": 85, "duration": 70, "velocity": 85}, {"time": 3363, "pitch": 78, "duration": 10, "velocity": 80}, {"time": 3363, "pitch": 82, "duration": 10, "velocity": 84}, {"time": 3375, "pitch": 82, "duration": 10, "velocity": 80}, {"time": 3375, "pitch": 85, "duration": 10, "velocity": 84}, {"time": 3387, "pitch": 82, "duration": 12, "velocity": 70}, {"time": 3387, "pitch": 85, "duration": 12, "velocity": 76}, {"time": 3399, "pitch": 70, "duration": 10, "velocity": 83}, {"time": 3399, "pitch": 75, "duration": 11, "velocity": 84}, {"time": 3411, "pitch": 73, "duration": 10, "velocity": 77}, {"time": 3411, "pitch": 78, "duration": 10, "velocity": 83}, {"time": 3423, "pitch": 78, "duration": 11, "velocity": 78}, {"time": 3423, "pitch": 82, "duration": 12, "velocity": 82}, {"time": 3435, "pitch": 63, "duration": 6, "velocity": 79}, {"time": 3435, "pitch": 75, "duration": 7, "velocity": 83}, {"time": 3441, "pitch": 65, "duration": 6, "velocity": 89}, {"time": 3441, "pitch": 77, "duration": 6, "velocity": 88}, {"time": 3447, "pitch": 66, "duration": 6, "velocity": 84}, {"time": 3447, "pitch": 78, "duration": 6, "velocity": 84}, {"time": 3453, "pitch": 63, "duration": 7, "velocity": 83}, {"time": 3453, "pitch": 75, "duration": 6, "velocity": 83}, {"time": 3459, "pitch": 66, "duration": 12, "velocity": 75}, {"time": 3459, "pitch": 78, "duration": 12, "velocity": 72}, {"time": 3471, "pitch": 68, "duration": 59, "velocity": 76}, {"time": 3471, "pitch": 80, "duration": 59, "velocity": 78}, {"time": 3537, "pitch": 70, "duration": 81, "velocity": 71}, {"time": 3537, "pitch": 73, "duration": 81, "velocity": 76}, {"time": 3537, "pitch": 78, "duration": 81, "velocity": 73}]}, {"program": 0, "is_drum": false, "name": "PIANO", "notes": [{"time": 27, "pitch": 51, "duration": 14, "velocity": 83}, {"time": 27, "pitch": 63, "duration": 14, "velocity": 71}, {"time": 27, "pitch": 66, "duration": 20, "velocity": 73}, {"time": 51, "pitch": 49, "duration": 15, "velocity": 76}, {"time": 51, "pitch": 61, "duration": 9, "velocity": 67}, {"time": 51, "pitch": 65, "duration": 10, "velocity": 74}, {"time": 57, "pitch": 56, "duration": 9, "velocity": 63}, {"time": 63, "pitch": 61, "duration": 4, "velocity": 76}, {"time": 63, "pitch": 65, "duration": 4, "velocity": 75}, {"time": 63, "pitch": 68, "duration": 4, "velocity": 70}, {"time": 75, "pitch": 47, "duration": 36, "velocity": 77}, {"time": 75, "pitch": 59, "duration": 8, "velocity": 70}, {"time": 75, "pitch": 63, "duration": 13, "velocity": 72}, {"time": 81, "pitch": 54, "duration": 29, "velocity": 69}, {"time": 87, "pitch": 59, "duration": 21, "velocity": 78}, {"time": 93, "pitch": 66, "duration": 17, "velocity": 76}, {"time": 123, "pitch": 39, "duration": 13, "velocity": 82}, {"time": 123, "pitch": 63, "duration": 7, "velocity": 72}, {"time": 123, "pitch": 70, "duration": 17, "velocity": 76}, {"time": 129, "pitch": 46, "duration": 7, "velocity": 63}, {"time": 135, "pitch": 63, "duration": 7, "velocity": 75}, {"time": 141, "pitch": 66, "duration": 3, "velocity": 70}, {"time": 147, "pitch": 37, "duration": 13, "velocity": 78}, {"time": 147, "pitch": 61, "duration": 8, "velocity": 73}, {"time": 147, "pitch": 65, "duration": 12, "velocity": 77}, {"time": 153, "pitch": 44, "duration": 6, "velocity": 56}, {"time": 159, "pitch": 61, "duration": 2, "velocity": 84}, {"time": 171, "pitch": 47, "duration": 34, "velocity": 72}, {"time": 171, "pitch": 59, "duration": 8, "velocity": 69}, {"time": 171, "pitch": 63, "duration": 15, "velocity": 71}, {"time": 177, "pitch": 54, "duration": 29, "velocity": 59}, {"time": 183, "pitch": 59, "duration": 4, "velocity": 73}, {"time": 189, "pitch": 59, "duration": 17, "velocity": 71}, {"time": 189, "pitch": 63, "duration": 17, "velocity": 78}, {"time": 219, "pitch": 47, "duration": 13, "velocity": 84}, {"time": 219, "pitch": 59, "duration": 8, "velocity": 70}, {"time": 219, "pitch": 66, "duration": 12, "velocity": 80}, {"time": 225, "pitch": 54, "duration": 8, "velocity": 69}, {"time": 231, "pitch": 59, "duration": 6, "velocity": 85}, {"time": 237, "pitch": 63, "duration": 1, "velocity": 84}, {"time": 243, "pitch": 49, "duration": 13, "velocity": 86}, {"time": 243, "pitch": 61, "duration": 8, "velocity": 77}, {"time": 243, "pitch": 65, "duration": 8, "velocity": 84}, {"time": 249, "pitch": 56, "duration": 7, "velocity": 71}, {"time": 255, "pitch": 61, "duration": 2, "velocity": 83}, {"time": 255, "pitch": 65, "duration": 7, "velocity": 85}, {"time": 261, "pitch": 61, "duration": 3, "velocity": 75}, {"time": 267, "pitch": 42, "duration": 6, "velocity": 83}, {"time": 267, "pitch": 61, "duration": 5, "velocity": 84}, {"time": 267, "pitch": 66, "duration": 5, "velocity": 82}, {"time": 279, "pitch": 37, "duration": 2, "velocity": 82}, {"time": 279, "pitch": 61, "duration": 7, "velocity": 83}, {"time": 279, "pitch": 65, "duration": 10, "velocity": 85}, {"time": 291, "pitch": 47, "duration": 11, "velocity": 83}, {"time": 291, "pitch": 54, "duration": 8, "velocity": 76}, {"time": 291, "pitch": 63, "duration": 7, "velocity": 79}, {"time": 297, "pitch": 59, "duration": 5, "velocity": 83}, {"time": 303, "pitch": 49, "duration": 6, "velocity": 83}, {"time": 303, "pitch": 56, "duration": 5, "velocity": 78}, {"time": 303, "pitch": 61, "duration": 6, "velocity": 77}, {"time": 315, "pitch": 47, "duration": 38, "velocity": 83}, {"time": 315, "pitch": 54, "duration": 3, "velocity": 75}, {"time": 315, "pitch": 59, "duration": 12, "velocity": 70}, {"time": 321, "pitch": 54, "duration": 13, "velocity": 76}, {"time": 327, "pitch": 63, "duration": 6, "velocity": 79}, {"time": 333, "pitch": 59, "duration": 2, "velocity": 85}, {"time": 339, "pitch": 54, "duration": 1, "velocity": 73}, {"time": 339, "pitch": 59, "duration": 8, "velocity": 75}, {"time": 339, "pitch": 66, "duration": 11, "velocity": 81}, {"time": 345, "pitch": 54, "duration": 3, "velocity": 71}, {"time": 351, "pitch": 59, "duration": 1, "velocity": 70}, {"time": 351, "pitch": 63, "duration": 2, "velocity": 74}, {"time": 363, "pitch": 40, "duration": 2, "velocity": 85}, {"time": 363, "pitch": 64, "duration": 14, "velocity": 72}, {"time": 363, "pitch": 71, "duration": 13, "velocity": 71}, {"time": 369, "pitch": 52, "duration": 27, "velocity": 72}, {"time": 375, "pitch": 59, "duration": 22, "velocity": 78}, {"time": 381, "pitch": 64, "duration": 13, "velocity": 79}, {"time": 381, "pitch": 76, "duration": 10, "velocity": 76}, {"time": 411, "pitch": 42, "duration": 40, "velocity": 79}, {"time": 411, "pitch": 58, "duration": 7, "velocity": 72}, {"time": 411, "pitch": 61, "duration": 13, "velocity": 75}, {"time": 417, "pitch": 49, "duration": 34, "velocity": 69}, {"time": 423, "pitch": 58, "duration": 13, "velocity": 71}, {"time": 429, "pitch": 66, "duration": 11, "velocity": 83}, {"time": 441, "pitch": 58, "duration": 2, "velocity": 68}, {"time": 447, "pitch": 58, "duration": 3, "velocity": 76}, {"time": 447, "pitch": 61, "duration": 3, "velocity": 80}, {"time": 447, "pitch": 66, "duration": 5, "velocity": 73}, {"time": 459, "pitch": 49, "duration": 39, "velocity": 81}, {"time": 459, "pitch": 56, "duration": 3, "velocity": 82}, {"time": 459, "pitch": 65, "duration": 11, "velocity": 83}, {"time": 465, "pitch": 56, "duration": 13, "velocity": 73}, {"time": 471, "pitch": 61, "duration": 19, "velocity": 73}, {"time": 477, "pitch": 68, "duration": 18, "velocity": 82}, {"time": 489, "pitch": 56, "duration": 7, "velocity": 75}, {"time": 495, "pitch": 61, "duration": 2, "velocity": 80}, {"time": 495, "pitch": 65, "duration": 3, "velocity": 83}, {"time": 507, "pitch": 51, "duration": 15, "velocity": 82}, {"time": 507, "pitch": 58, "duration": 3, "velocity": 78}, {"time": 507, "pitch": 66, "duration": 13, "velocity": 79}, {"time": 513, "pitch": 58, "duration": 7, "velocity": 76}, {"time": 519, "pitch": 63, "duration": 7, "velocity": 85}, {"time": 525, "pitch": 58, "duration": 7, "velocity": 79}, {"time": 537, "pitch": 58, "duration": 2, "velocity": 70}, {"time": 543, "pitch": 58, "duration": 4, "velocity": 84}, {"time": 543, "pitch": 66, "duration": 10, "velocity": 80}, {"time": 555, "pitch": 47, "duration": 28, "velocity": 81}, {"time": 555, "pitch": 59, "duration": 8, "velocity": 70}, {"time": 555, "pitch": 63, "duration": 13, "velocity": 76}, {"time": 561, "pitch": 54, "duration": 21, "velocity": 52}, {"time": 567, "pitch": 59, "duration": 13, "velocity": 83}, {"time": 573, "pitch": 63, "duration": 8, "velocity": 78}, {"time": 579, "pitch": 66, "duration": 4, "velocity": 73}, {"time": 591, "pitch": 49, "duration": 5, "velocity": 84}, {"time": 591, "pitch": 56, "duration": 4, "velocity": 83}, {"time": 591, "pitch": 65, "duration": 7, "velocity": 85}, {"time": 603, "pitch": 42, "duration": 42, "velocity": 84}, {"time": 603, "pitch": 54, "duration": 18, "velocity": 74}, {"time": 603, "pitch": 58, "duration": 12, "velocity": 75}, {"time": 609, "pitch": 49, "duration": 35, "velocity": 78}, {"time": 615, "pitch": 61, "duration": 6, "velocity": 81}, {"time": 621, "pitch": 58, "duration": 2, "velocity": 73}, {"time": 627, "pitch": 54, "duration": 4, "velocity": 83}, {"time": 627, "pitch": 66, "duration": 6, "velocity": 79}, {"time": 639, "pitch": 58, "duration": 8, "velocity": 80}, {"time": 639, "pitch": 61, "duration": 13, "velocity": 83}, {"time": 645, "pitch": 54, "duration": 6, "velocity": 81}, {"time": 651, "pitch": 39, "duration": 37, "velocity": 87}, {"time": 657, "pitch": 46, "duration": 31, "velocity": 72}, {"time": 663, "pitch": 63, "duration": 7, "velocity": 83}, {"time": 669, "pitch": 58, "duration": 4, "velocity": 81}, {"time": 675, "pitch": 58, "duration": 4, "velocity": 84}, {"time": 675, "pitch": 66, "duration": 12, "velocity": 77}, {"time": 687, "pitch": 58, "duration": 3, "velocity": 79}, {"time": 687, "pitch": 63, "duration": 6, "velocity": 81}, {"time": 693, "pitch": 58, "duration": 2, "velocity": 76}, {"time": 699, "pitch": 47, "duration": 23, "velocity": 88}, {"time": 699, "pitch": 54, "duration": 14, "velocity": 77}, {"time": 699, "pitch": 63, "duration": 7, "velocity": 78}, {"time": 705, "pitch": 59, "duration": 16, "velocity": 83}, {"time": 711, "pitch": 66, "duration": 16, "velocity": 84}, {"time": 717, "pitch": 54, "duration": 3, "velocity": 84}, {"time": 723, "pitch": 46, "duration": 17, "velocity": 84}, {"time": 723, "pitch": 58, "duration": 9, "velocity": 71}, {"time": 723, "pitch": 61, "duration": 7, "velocity": 77}, {"time": 729, "pitch": 53, "duration": 11, "velocity": 73}, {"time": 735, "pitch": 58, "duration": 3, "velocity": 83}, {"time": 735, "pitch": 61, "duration": 6, "velocity": 84}, {"time": 735, "pitch": 65, "duration": 6, "velocity": 83}, {"time": 741, "pitch": 58, "duration": 2, "velocity": 73}, {"time": 747, "pitch": 47, "duration": 26, "velocity": 87}, {"time": 747, "pitch": 59, "duration": 7, "velocity": 81}, {"time": 747, "pitch": 63, "duration": 12, "velocity": 82}, {"time": 753, "pitch": 54, "duration": 20, "velocity": 71}, {"time": 759, "pitch": 59, "duration": 8, "velocity": 83}, {"time": 765, "pitch": 63, "duration": 4, "velocity": 79}, {"time": 771, "pitch": 59, "duration": 1, "velocity": 75}, {"time": 771, "pitch": 63, "duration": 2, "velocity": 81}, {"time": 771, "pitch": 66, "duration": 3, "velocity": 79}, {"time": 783, "pitch": 37, "duration": 7, "velocity": 83}, {"time": 783, "pitch": 61, "duration": 11, "velocity": 79}, {"time": 783, "pitch": 65, "duration": 10, "velocity": 84}, {"time": 795, "pitch": 51, "duration": 17, "velocity": 85}, {"time": 795, "pitch": 70, "duration": 7, "velocity": 79}, {"time": 801, "pitch": 58, "duration": 17, "velocity": 72}, {"time": 807, "pitch": 63, "duration": 2, "velocity": 74}, {"time": 807, "pitch": 66, "duration": 4, "velocity": 74}, {"time": 807, "pitch": 70, "duration": 6, "velocity": 78}, {"time": 819, "pitch": 50, "duration": 15, "velocity": 79}, {"time": 819, "pitch": 62, "duration": 8, "velocity": 76}, {"time": 819, "pitch": 65, "duration": 8, "velocity": 84}, {"time": 819, "pitch": 70, "duration": 9, "velocity": 79}, {"time": 825, "pitch": 58, "duration": 13, "velocity": 71}, {"time": 831, "pitch": 62, "duration": 6, "velocity": 79}, {"time": 831, "pitch": 65, "duration": 6, "velocity": 86}, {"time": 831, "pitch": 70, "duration": 14, "velocity": 83}, {"time": 837, "pitch": 50, "duration": 3, "velocity": 79}, {"time": 843, "pitch": 47, "duration": 4, "velocity": 80}, {"time": 843, "pitch": 59, "duration": 3, "velocity": 72}, {"time": 843, "pitch": 63, "duration": 6, "velocity": 83}, {"time": 843, "pitch": 66, "duration": 9, "velocity": 79}, {"time": 849, "pitch": 59, "duration": 1, "velocity": 76}, {"time": 855, "pitch": 49, "duration": 5, "velocity": 85}, {"time": 855, "pitch": 61, "duration": 3, "velocity": 77}, {"time": 855, "pitch": 65, "duration": 10, "velocity": 83}, {"time": 861, "pitch": 61, "duration": 7, "velocity": 83}, {"time": 867, "pitch": 42, "duration": 23, "velocity": 84}, {"time": 867, "pitch": 66, "duration": 6, "velocity": 79}, {"time": 873, "pitch": 49, "duration": 17, "velocity": 71}, {"time": 879, "pitch": 54, "duration": 1, "velocity": 72}, {"time": 879, "pitch": 58, "duration": 11, "velocity": 84}, {"time": 879, "pitch": 61, "duration": 11, "velocity": 84}, {"time": 885, "pitch": 54, "duration": 5, "velocity": 84}, {"time": 891, "pitch": 51, "duration": 17, "velocity": 86}, {"time": 891, "pitch": 58, "duration": 3, "velocity": 79}, {"time": 891, "pitch": 66, "duration": 9, "velocity": 79}, {"time": 897, "pitch": 58, "duration": 7, "velocity": 80}, {"time": 903, "pitch": 63, "duration": 5, "velocity": 87}, {"time": 909, "pitch": 58, "duration": 4, "velocity": 83}, {"time": 915, "pitch": 46, "duration": 15, "velocity": 83}, {"time": 915, "pitch": 58, "duration": 9, "velocity": 77}, {"time": 915, "pitch": 65, "duration": 9, "velocity": 82}, {"time": 921, "pitch": 53, "duration": 9, "velocity": 74}, {"time": 927, "pitch": 61, "duration": 5, "velocity": 85}, {"time": 933, "pitch": 58, "duration": 4, "velocity": 78}, {"time": 939, "pitch": 47, "duration": 14, "velocity": 79}, {"time": 939, "pitch": 59, "duration": 9, "velocity": 76}, {"time": 939, "pitch": 63, "duration": 9, "velocity": 82}, {"time": 945, "pitch": 54, "duration": 9, "velocity": 68}, {"time": 951, "pitch": 59, "duration": 2, "velocity": 84}, {"time": 951, "pitch": 63, "duration": 4, "velocity": 84}, {"time": 951, "pitch": 66, "duration": 6, "velocity": 81}, {"time": 957, "pitch": 47, "duration": 2, "velocity": 83}, {"time": 963, "pitch": 49, "duration": 16, "velocity": 84}, {"time": 963, "pitch": 61, "duration": 9, "velocity": 78}, {"time": 963, "pitch": 65, "duration": 8, "velocity": 84}, {"time": 969, "pitch": 56, "duration": 9, "velocity": 79}, {"time": 975, "pitch": 65, "duration": 6, "velocity": 83}, {"time": 975, "pitch": 68, "duration": 8, "velocity": 77}, {"time": 981, "pitch": 61, "duration": 4, "velocity": 84}, {"time": 987, "pitch": 47, "duration": 16, "velocity": 87}, {"time": 987, "pitch": 59, "duration": 12, "velocity": 76}, {"time": 987, "pitch": 66, "duration": 6, "velocity": 83}, {"time": 993, "pitch": 54, "duration": 12, "velocity": 70}, {"time": 999, "pitch": 63, "duration": 6, "velocity": 83}, {"time": 999, "pitch": 66, "duration": 6, "velocity": 83}, {"time": 1005, "pitch": 59, "duration": 4, "velocity": 73}, {"time": 1011, "pitch": 47, "duration": 3, "velocity": 83}, {"time": 1011, "pitch": 59, "duration": 3, "velocity": 74}, {"time": 1011, "pitch": 63, "duration": 3, "velocity": 84}, {"time": 1011, "pitch": 66, "duration": 11, "velocity": 79}, {"time": 1023, "pitch": 49, "duration": 11, "velocity": 87}, {"time": 1023, "pitch": 56, "duration": 11, "velocity": 79}, {"time": 1023, "pitch": 61, "duration": 11, "velocity": 81}, {"time": 1023, "pitch": 65, "duration": 11, "velocity": 84}, {"time": 1035, "pitch": 42, "duration": 18, "velocity": 84}, {"time": 1035, "pitch": 54, "duration": 6, "velocity": 79}, {"time": 1035, "pitch": 61, "duration": 11, "velocity": 78}, {"time": 1041, "pitch": 49, "duration": 11, "velocity": 77}, {"time": 1047, "pitch": 58, "duration": 3, "velocity": 87}, {"time": 1050, "pitch": 54, "duration": 3, "velocity": 88}, {"time": 1053, "pitch": 61, "duration": 4, "velocity": 82}, {"time": 1056, "pitch": 54, "duration": 1, "velocity": 78}, {"time": 1059, "pitch": 42, "duration": 7, "velocity": 84}, {"time": 1059, "pitch": 54, "duration": 4, "velocity": 79}, {"time": 1059, "pitch": 58, "duration": 5, "velocity": 83}, {"time": 1065, "pitch": 49, "duration": 1, "velocity": 77}, {"time": 1071, "pitch": 49, "duration": 6, "velocity": 77}, {"time": 1071, "pitch": 61, "duration": 7, "velocity": 77}, {"time": 1071, "pitch": 41, "duration": 7, "velocity": 77}, {"time": 1083, "pitch": 39, "duration": 13, "velocity": 84}, {"time": 1083, "pitch": 58, "duration": 8, "velocity": 78}, {"time": 1083, "pitch": 63, "duration": 9, "velocity": 79}, {"time": 1089, "pitch": 46, "duration": 7, "velocity": 83}, {"time": 1095, "pitch": 58, "duration": 2, "velocity": 77}, {"time": 1095, "pitch": 63, "duration": 6, "velocity": 84}, {"time": 1095, "pitch": 66, "duration": 8, "velocity": 83}, {"time": 1101, "pitch": 58, "duration": 1, "velocity": 73}, {"time": 1107, "pitch": 49, "duration": 13, "velocity": 85}, {"time": 1107, "pitch": 61, "duration": 7, "velocity": 77}, {"time": 1107, "pitch": 65, "duration": 7, "velocity": 83}, {"time": 1113, "pitch": 56, "duration": 7, "velocity": 79}, {"time": 1119, "pitch": 61, "duration": 1, "velocity": 83}, {"time": 1119, "pitch": 65, "duration": 2, "velocity": 90}, {"time": 1119, "pitch": 68, "duration": 4, "velocity": 84}, {"time": 1122, "pitch": 61, "duration": 3, "velocity": 83}, {"time": 1125, "pitch": 65, "duration": 1, "velocity": 84}, {"time": 1131, "pitch": 47, "duration": 15, "velocity": 85}, {"time": 1131, "pitch": 59, "duration": 9, "velocity": 84}, {"time": 1131, "pitch": 63, "duration": 9, "velocity": 84}, {"time": 1137, "pitch": 54, "duration": 7, "velocity": 77}, {"time": 1143, "pitch": 59, "duration": 5, "velocity": 85}, {"time": 1143, "pitch": 63, "duration": 9, "velocity": 86}, {"time": 1143, "pitch": 66, "duration": 10, "velocity": 83}, {"time": 1146, "pitch": 54, "duration": 2, "velocity": 84}, {"time": 1149, "pitch": 47, "duration": 1, "velocity": 88}, {"time": 1155, "pitch": 46, "duration": 15, "velocity": 84}, {"time": 1155, "pitch": 58, "duration": 8, "velocity": 78}, {"time": 1155, "pitch": 61, "duration": 7, "velocity": 78}, {"time": 1161, "pitch": 53, "duration": 8, "velocity": 79}, {"time": 1167, "pitch": 58, "duration": 2, "velocity": 84}, {"time": 1167, "pitch": 61, "duration": 5, "velocity": 87}, {"time": 1167, "pitch": 65, "duration": 7, "velocity": 88}, {"time": 1173, "pitch": 58, "duration": 1, "velocity": 75}, {"time": 1179, "pitch": 47, "duration": 17, "velocity": 85}, {"time": 1179, "pitch": 59, "duration": 8, "velocity": 72}, {"time": 1179, "pitch": 63, "duration": 8, "velocity": 81}, {"time": 1185, "pitch": 54, "duration": 13, "velocity": 71}, {"time": 1191, "pitch": 59, "duration": 1, "velocity": 85}, {"time": 1191, "pitch": 63, "duration": 9, "velocity": 85}, {"time": 1191, "pitch": 66, "duration": 8, "velocity": 80}, {"time": 1197, "pitch": 59, "duration": 3, "velocity": 73}, {"time": 1203, "pitch": 47, "duration": 1, "velocity": 85}, {"time": 1203, "pitch": 59, "duration": 1, "velocity": 84}, {"time": 1203, "pitch": 63, "duration": 2, "velocity": 84}, {"time": 1203, "pitch": 66, "duration": 3, "velocity": 83}, {"time": 1215, "pitch": 37, "duration": 1, "velocity": 84}, {"time": 1215, "pitch": 56, "duration": 5, "velocity": 83}, {"time": 1215, "pitch": 61, "duration": 4, "velocity": 83}, {"time": 1215, "pitch": 65, "duration": 5, "velocity": 85}, {"time": 1226, "pitch": 66, "duration": 7, "velocity": 79}, {"time": 1226, "pitch": 58, "duration": 8, "velocity": 81}, {"time": 1226, "pitch": 42, "duration": 30, "velocity": 84}, {"time": 1232, "pitch": 49, "duration": 22, "velocity": 70}, {"time": 1238, "pitch": 66, "duration": 4, "velocity": 84}, {"time": 1238, "pitch": 61, "duration": 3, "velocity": 88}, {"time": 1238, "pitch": 58, "duration": 2, "velocity": 83}, {"time": 1244, "pitch": 58, "duration": 3, "velocity": 65}, {"time": 1250, "pitch": 66, "duration": 7, "velocity": 83}, {"time": 1250, "pitch": 61, "duration": 3, "velocity": 85}, {"time": 1250, "pitch": 58, "duration": 2, "velocity": 84}, {"time": 1256, "pitch": 58, "duration": 3, "velocity": 58}, {"time": 1262, "pitch": 65, "duration": 10, "velocity": 84}, {"time": 1262, "pitch": 61, "duration": 9, "velocity": 83}, {"time": 1263, "pitch": 41, "duration": 3, "velocity": 83}, {"time": 1275, "pitch": 39, "duration": 17, "velocity": 85}, {"time": 1275, "pitch": 58, "duration": 14, "velocity": 80}, {"time": 1275, "pitch": 66, "duration": 10, "velocity": 78}, {"time": 1281, "pitch": 46, "duration": 11, "velocity": 70}, {"time": 1287, "pitch": 63, "duration": 6, "velocity": 80}, {"time": 1287, "pitch": 66, "duration": 12, "velocity": 84}, {"time": 1293, "pitch": 58, "duration": 2, "velocity": 84}, {"time": 1299, "pitch": 49, "duration": 13, "velocity": 84}, {"time": 1299, "pitch": 61, "duration": 7, "velocity": 78}, {"time": 1299, "pitch": 65, "duration": 7, "velocity": 84}, {"time": 1305, "pitch": 56, "duration": 3, "velocity": 82}, {"time": 1311, "pitch": 56, "duration": 2, "velocity": 86}, {"time": 1311, "pitch": 61, "duration": 5, "velocity": 85}, {"time": 1311, "pitch": 65, "duration": 9, "velocity": 85}, {"time": 1317, "pitch": 56, "duration": 4, "velocity": 82}, {"time": 1323, "pitch": 47, "duration": 19, "velocity": 85}, {"time": 1323, "pitch": 59, "duration": 7, "velocity": 80}, {"time": 1323, "pitch": 63, "duration": 10, "velocity": 83}, {"time": 1329, "pitch": 54, "duration": 13, "velocity": 81}, {"time": 1332, "pitch": 59, "duration": 4, "velocity": 83}, {"time": 1335, "pitch": 63, "duration": 4, "velocity": 80}, {"time": 1338, "pitch": 59, "duration": 3, "velocity": 85}, {"time": 1341, "pitch": 63, "duration": 5, "velocity": 80}, {"time": 1347, "pitch": 46, "duration": 16, "velocity": 84}, {"time": 1347, "pitch": 58, "duration": 8, "velocity": 78}, {"time": 1347, "pitch": 61, "duration": 8, "velocity": 82}, {"time": 1353, "pitch": 53, "duration": 7, "velocity": 76}, {"time": 1359, "pitch": 58, "duration": 2, "velocity": 84}, {"time": 1359, "pitch": 65, "duration": 7, "velocity": 88}, {"time": 1362, "pitch": 53, "duration": 2, "velocity": 87}, {"time": 1365, "pitch": 58, "duration": 4, "velocity": 83}, {"time": 1368, "pitch": 61, "duration": 2, "velocity": 78}, {"time": 1371, "pitch": 47, "duration": 14, "velocity": 85}, {"time": 1371, "pitch": 59, "duration": 9, "velocity": 86}, {"time": 1371, "pitch": 63, "duration": 9, "velocity": 62}, {"time": 1377, "pitch": 54, "duration": 7, "velocity": 85}, {"time": 1383, "pitch": 59, "duration": 9, "velocity": 89}, {"time": 1383, "pitch": 63, "duration": 10, "velocity": 88}, {"time": 1389, "pitch": 47, "duration": 4, "velocity": 74}, {"time": 1395, "pitch": 47, "duration": 5, "velocity": 84}, {"time": 1395, "pitch": 54, "duration": 5, "velocity": 78}, {"time": 1395, "pitch": 59, "duration": 4, "velocity": 85}, {"time": 1395, "pitch": 63, "duration": 6, "velocity": 84}, {"time": 1407, "pitch": 49, "duration": 3, "velocity": 86}, {"time": 1407, "pitch": 56, "duration": 3, "velocity": 82}, {"time": 1407, "pitch": 61, "duration": 4, "velocity": 84}, {"time": 1407, "pitch": 65, "duration": 5, "velocity": 85}, {"time": 1419, "pitch": 42, "duration": 45, "velocity": 83}, {"time": 1419, "pitch": 54, "duration": 11, "velocity": 79}, {"time": 1419, "pitch": 58, "duration": 10, "velocity": 78}, {"time": 1425, "pitch": 49, "duration": 39, "velocity": 77}, {"time": 1431, "pitch": 61, "duration": 4, "velocity": 87}, {"time": 1434, "pitch": 54, "duration": 3, "velocity": 81}, {"time": 1437, "pitch": 58, "duration": 4, "velocity": 80}, {"time": 1440, "pitch": 54, "duration": 4, "velocity": 80}, {"time": 1443, "pitch": 58, "duration": 1, "velocity": 62}, {"time": 1443, "pitch": 66, "duration": 6, "velocity": 87}, {"time": 1446, "pitch": 54, "duration": 3, "velocity": 79}, {"time": 1449, "pitch": 58, "duration": 3, "velocity": 78}, {"time": 1452, "pitch": 54, "duration": 3, "velocity": 81}, {"time": 1455, "pitch": 66, "duration": 7, "velocity": 90}, {"time": 1458, "pitch": 54, "duration": 3, "velocity": 83}, {"time": 1461, "pitch": 58, "duration": 2, "velocity": 79}, {"time": 1464, "pitch": 54, "duration": 1, "velocity": 85}, {"time": 1467, "pitch": 49, "duration": 23, "velocity": 87}, {"time": 1467, "pitch": 61, "duration": 3, "velocity": 85}, {"time": 1470, "pitch": 56, "duration": 3, "velocity": 82}, {"time": 1473, "pitch": 61, "duration": 4, "velocity": 78}, {"time": 1476, "pitch": 56, "duration": 3, "velocity": 76}, {"time": 1479, "pitch": 65, "duration": 2, "velocity": 86}, {"time": 1482, "pitch": 56, "duration": 3, "velocity": 83}, {"time": 1485, "pitch": 61, "duration": 3, "velocity": 80}, {"time": 1488, "pitch": 56, "duration": 4, "velocity": 83}, {"time": 1491, "pitch": 49, "duration": 18, "velocity": 89}, {"time": 1491, "pitch": 65, "duration": 3, "velocity": 88}, {"time": 1494, "pitch": 56, "duration": 3, "velocity": 83}, {"time": 1497, "pitch": 61, "duration": 2, "velocity": 84}, {"time": 1500, "pitch": 56, "duration": 2, "velocity": 84}, {"time": 1503, "pitch": 56, "duration": 1, "velocity": 84}, {"time": 1503, "pitch": 61, "duration": 3, "velocity": 89}, {"time": 1503, "pitch": 65, "duration": 5, "velocity": 94}, {"time": 1506, "pitch": 56, "duration": 3, "velocity": 77}, {"time": 1509, "pitch": 61, "duration": 4, "velocity": 82}, {"time": 1512, "pitch": 56, "duration": 2, "velocity": 82}, {"time": 1515, "pitch": 39, "duration": 22, "velocity": 87}, {"time": 1515, "pitch": 63, "duration": 2, "velocity": 84}, {"time": 1518, "pitch": 58, "duration": 3, "velocity": 76}, {"time": 1521, "pitch": 63, "duration": 3, "velocity": 76}, {"time": 1524, "pitch": 58, "duration": 3, "velocity": 76}, {"time": 1527, "pitch": 66, "duration": 3, "velocity": 88}, {"time": 1530, "pitch": 58, "duration": 3, "velocity": 84}, {"time": 1533, "pitch": 63, "duration": 3, "velocity": 84}, {"time": 1536, "pitch": 58, "duration": 3, "velocity": 82}, {"time": 1539, "pitch": 39, "duration": 14, "velocity": 87}, {"time": 1539, "pitch": 63, "duration": 3, "velocity": 65}, {"time": 1539, "pitch": 70, "duration": 5, "velocity": 85}, {"time": 1542, "pitch": 58, "duration": 3, "velocity": 79}, {"time": 1545, "pitch": 63, "duration": 3, "velocity": 77}, {"time": 1548, "pitch": 58, "duration": 3, "velocity": 83}, {"time": 1551, "pitch": 66, "duration": 4, "velocity": 84}, {"time": 1554, "pitch": 58, "duration": 3, "velocity": 83}, {"time": 1557, "pitch": 63, "duration": 2, "velocity": 81}, {"time": 1560, "pitch": 58, "duration": 2, "velocity": 72}, {"time": 1563, "pitch": 47, "duration": 16, "velocity": 84}, {"time": 1563, "pitch": 59, "duration": 3, "velocity": 79}, {"time": 1563, "pitch": 63, "duration": 6, "velocity": 79}, {"time": 1566, "pitch": 54, "duration": 13, "velocity": 79}, {"time": 1569, "pitch": 59, "duration": 5, "velocity": 79}, {"time": 1572, "pitch": 63, "duration": 3, "velocity": 80}, {"time": 1575, "pitch": 66, "duration": 3, "velocity": 86}, {"time": 1578, "pitch": 63, "duration": 3, "velocity": 85}, {"time": 1581, "pitch": 59, "duration": 2, "velocity": 85}, {"time": 1587, "pitch": 49, "duration": 16, "velocity": 88}, {"time": 1587, "pitch": 56, "duration": 2, "velocity": 80}, {"time": 1587, "pitch": 61, "duration": 4, "velocity": 83}, {"time": 1590, "pitch": 56, "duration": 3, "velocity": 83}, {"time": 1593, "pitch": 61, "duration": 3, "velocity": 84}, {"time": 1596, "pitch": 56, "duration": 2, "velocity": 81}, {"time": 1599, "pitch": 56, "duration": 2, "velocity": 92}, {"time": 1599, "pitch": 65, "duration": 4, "velocity": 85}, {"time": 1602, "pitch": 56, "duration": 3, "velocity": 85}, {"time": 1605, "pitch": 61, "duration": 1, "velocity": 85}, {"time": 1611, "pitch": 42, "duration": 22, "velocity": 84}, {"time": 1611, "pitch": 54, "duration": 2, "velocity": 77}, {"time": 1611, "pitch": 58, "duration": 4, "velocity": 76}, {"time": 1614, "pitch": 49, "duration": 19, "velocity": 76}, {"time": 1617, "pitch": 61, "duration": 3, "velocity": 83}, {"time": 1620, "pitch": 54, "duration": 3, "velocity": 77}, {"time": 1623, "pitch": 66, "duration": 4, "velocity": 89}, {"time": 1626, "pitch": 54, "duration": 3, "velocity": 85}, {"time": 1629, "pitch": 58, "duration": 3, "velocity": 79}, {"time": 1632, "pitch": 54, "duration": 3, "velocity": 83}, {"time": 1635, "pitch": 42, "duration": 19, "velocity": 83}, {"time": 1635, "pitch": 61, "duration": 7, "velocity": 83}, {"time": 1638, "pitch": 49, "duration": 16, "velocity": 74}, {"time": 1641, "pitch": 58, "duration": 3, "velocity": 76}, {"time": 1644, "pitch": 54, "duration": 3, "velocity": 84}, {"time": 1647, "pitch": 66, "duration": 6, "velocity": 86}, {"time": 1650, "pitch": 54, "duration": 3, "velocity": 84}, {"time": 1653, "pitch": 58, "duration": 2, "velocity": 83}, {"time": 1656, "pitch": 54, "duration": 1, "velocity": 76}, {"time": 1659, "pitch": 49, "duration": 13, "velocity": 84}, {"time": 1659, "pitch": 61, "duration": 3, "velocity": 84}, {"time": 1662, "pitch": 56, "duration": 3, "velocity": 83}, {"time": 1665, "pitch": 61, "duration": 3, "velocity": 76}, {"time": 1668, "pitch": 56, "duration": 4, "velocity": 75}, {"time": 1671, "pitch": 65, "duration": 4, "velocity": 89}, {"time": 1674, "pitch": 56, "duration": 3, "velocity": 84}, {"time": 1677, "pitch": 61, "duration": 3, "velocity": 84}, {"time": 1680, "pitch": 56, "duration": 4, "velocity": 84}, {"time": 1683, "pitch": 37, "duration": 10, "velocity": 82}, {"time": 1683, "pitch": 61, "duration": 3, "velocity": 84}, {"time": 1686, "pitch": 56, "duration": 3, "velocity": 79}, {"time": 1689, "pitch": 61, "duration": 3, "velocity": 83}, {"time": 1692, "pitch": 56, "duration": 3, "velocity": 81}, {"time": 1695, "pitch": 65, "duration": 6, "velocity": 85}, {"time": 1698, "pitch": 56, "duration": 3, "velocity": 83}, {"time": 1701, "pitch": 61, "duration": 4, "velocity": 66}, {"time": 1704, "pitch": 56, "duration": 2, "velocity": 73}, {"time": 1707, "pitch": 39, "duration": 19, "velocity": 88}, {"time": 1707, "pitch": 63, "duration": 3, "velocity": 82}, {"time": 1710, "pitch": 58, "duration": 4, "velocity": 80}, {"time": 1713, "pitch": 63, "duration": 4, "velocity": 77}, {"time": 1716, "pitch": 58, "duration": 2, "velocity": 77}, {"time": 1719, "pitch": 66, "duration": 6, "velocity": 84}, {"time": 1722, "pitch": 58, "duration": 3, "velocity": 74}, {"time": 1725, "pitch": 63, "duration": 3, "velocity": 78}, {"time": 1728, "pitch": 58, "duration": 2, "velocity": 76}, {"time": 1731, "pitch": 39, "duration": 15, "velocity": 86}, {"time": 1731, "pitch": 66, "duration": 6, "velocity": 84}, {"time": 1734, "pitch": 58, "duration": 4, "velocity": 81}, {"time": 1737, "pitch": 63, "duration": 3, "velocity": 76}, {"time": 1740, "pitch": 58, "duration": 2, "velocity": 76}, {"time": 1743, "pitch": 66, "duration": 6, "velocity": 84}, {"time": 1746, "pitch": 58, "duration": 3, "velocity": 79}, {"time": 1749, "pitch": 63, "duration": 3, "velocity": 82}, {"time": 1752, "pitch": 58, "duration": 2, "velocity": 75}, {"time": 1755, "pitch": 47, "duration": 16, "velocity": 85}, {"time": 1755, "pitch": 59, "duration": 3, "velocity": 76}, {"time": 1755, "pitch": 63, "duration": 6, "velocity": 80}, {"time": 1758, "pitch": 54, "duration": 14, "velocity": 69}, {"time": 1761, "pitch": 59, "duration": 4, "velocity": 84}, {"time": 1764, "pitch": 63, "duration": 3, "velocity": 83}, {"time": 1767, "pitch": 66, "duration": 3, "velocity": 85}, {"time": 1770, "pitch": 63, "duration": 3, "velocity": 83}, {"time": 1773, "pitch": 59, "duration": 4, "velocity": 85}, {"time": 1779, "pitch": 49, "duration": 14, "velocity": 85}, {"time": 1779, "pitch": 61, "duration": 6, "velocity": 75}, {"time": 1779, "pitch": 65, "duration": 7, "velocity": 85}, {"time": 1785, "pitch": 56, "duration": 7, "velocity": 79}, {"time": 1791, "pitch": 61, "duration": 12, "velocity": 83}, {"time": 1791, "pitch": 65, "duration": 12, "velocity": 85}, {"time": 1797, "pitch": 56, "duration": 2, "velocity": 74}, {"time": 1803, "pitch": 42, "duration": 40, "velocity": 79}, {"time": 1803, "pitch": 58, "duration": 7, "velocity": 72}, {"time": 1803, "pitch": 61, "duration": 13, "velocity": 75}, {"time": 1809, "pitch": 49, "duration": 34, "velocity": 69}, {"time": 1815, "pitch": 58, "duration": 13, "velocity": 71}, {"time": 1821, "pitch": 66, "duration": 11, "velocity": 83}, {"time": 1833, "pitch": 58, "duration": 2, "velocity": 68}, {"time": 1839, "pitch": 58, "duration": 3, "velocity": 76}, {"time": 1839, "pitch": 61, "duration": 3, "velocity": 80}, {"time": 1839, "pitch": 66, "duration": 5, "velocity": 73}, {"time": 1851, "pitch": 49, "duration": 39, "velocity": 81}, {"time": 1851, "pitch": 56, "duration": 3, "velocity": 82}, {"time": 1851, "pitch": 65, "duration": 11, "velocity": 83}, {"time": 1857, "pitch": 56, "duration": 13, "velocity": 73}, {"time": 1863, "pitch": 61, "duration": 19, "velocity": 73}, {"time": 1869, "pitch": 68, "duration": 18, "velocity": 82}, {"time": 1881, "pitch": 56, "duration": 7, "velocity": 75}, {"time": 1887, "pitch": 61, "duration": 2, "velocity": 80}, {"time": 1887, "pitch": 65, "duration": 3, "velocity": 83}, {"time": 1899, "pitch": 51, "duration": 15, "velocity": 82}, {"time": 1899, "pitch": 58, "duration": 3, "velocity": 78}, {"time": 1899, "pitch": 66, "duration": 13, "velocity": 79}, {"time": 1905, "pitch": 58, "duration": 7, "velocity": 76}, {"time": 1911, "pitch": 63, "duration": 7, "velocity": 85}, {"time": 1917, "pitch": 58, "duration": 7, "velocity": 79}, {"time": 1929, "pitch": 58, "duration": 2, "velocity": 70}, {"time": 1935, "pitch": 58, "duration": 4, "velocity": 84}, {"time": 1935, "pitch": 66, "duration": 10, "velocity": 80}, {"time": 1947, "pitch": 47, "duration": 28, "velocity": 81}, {"time": 1947, "pitch": 59, "duration": 8, "velocity": 70}, {"time": 1947, "pitch": 63, "duration": 13, "velocity": 76}, {"time": 1953, "pitch": 54, "duration": 21, "velocity": 52}, {"time": 1959, "pitch": 58, "duration": 13, "velocity": 83}, {"time": 1965, "pitch": 63, "duration": 8, "velocity": 78}, {"time": 1971, "pitch": 66, "duration": 4, "velocity": 73}, {"time": 1983, "pitch": 49, "duration": 5, "velocity": 84}, {"time": 1983, "pitch": 65, "duration": 7, "velocity": 85}, {"time": 1995, "pitch": 42, "duration": 42, "velocity": 84}, {"time": 1995, "pitch": 54, "duration": 18, "velocity": 74}, {"time": 1995, "pitch": 58, "duration": 12, "velocity": 75}, {"time": 2001, "pitch": 49, "duration": 35, "velocity": 78}, {"time": 2007, "pitch": 61, "duration": 6, "velocity": 81}, {"time": 2013, "pitch": 58, "duration": 2, "velocity": 73}, {"time": 2019, "pitch": 54, "duration": 4, "velocity": 83}, {"time": 2031, "pitch": 58, "duration": 8, "velocity": 80}, {"time": 2031, "pitch": 61, "duration": 13, "velocity": 83}, {"time": 2037, "pitch": 54, "duration": 6, "velocity": 81}, {"time": 2043, "pitch": 39, "duration": 37, "velocity": 87}, {"time": 2049, "pitch": 46, "duration": 31, "velocity": 72}, {"time": 2055, "pitch": 63, "duration": 7, "velocity": 83}, {"time": 2061, "pitch": 58, "duration": 4, "velocity": 81}, {"time": 2067, "pitch": 58, "duration": 4, "velocity": 84}, {"time": 2067, "pitch": 66, "duration": 12, "velocity": 77}, {"time": 2079, "pitch": 58, "duration": 3, "velocity": 79}, {"time": 2079, "pitch": 63, "duration": 6, "velocity": 81}, {"time": 2085, "pitch": 58, "duration": 2, "velocity": 76}, {"time": 2091, "pitch": 47, "duration": 23, "velocity": 88}, {"time": 2091, "pitch": 54, "duration": 14, "velocity": 77}, {"time": 2091, "pitch": 63, "duration": 7, "velocity": 78}, {"time": 2097, "pitch": 59, "duration": 16, "velocity": 83}, {"time": 2103, "pitch": 66, "duration": 16, "velocity": 84}, {"time": 2109, "pitch": 54, "duration": 3, "velocity": 84}, {"time": 2115, "pitch": 46, "duration": 17, "velocity": 84}, {"time": 2115, "pitch": 58, "duration": 9, "velocity": 71}, {"time": 2115, "pitch": 61, "duration": 7, "velocity": 77}, {"time": 2121, "pitch": 53, "duration": 11, "velocity": 73}, {"time": 2127, "pitch": 58, "duration": 3, "velocity": 83}, {"time": 2127, "pitch": 61, "duration": 6, "velocity": 84}, {"time": 2127, "pitch": 65, "duration": 6, "velocity": 83}, {"time": 2133, "pitch": 58, "duration": 2, "velocity": 73}, {"time": 2139, "pitch": 47, "duration": 26, "velocity": 87}, {"time": 2139, "pitch": 59, "duration": 7, "velocity": 81}, {"time": 2139, "pitch": 63, "duration": 12, "velocity": 82}, {"time": 2145, "pitch": 54, "duration": 20, "velocity": 71}, {"time": 2151, "pitch": 59, "duration": 8, "velocity": 83}, {"time": 2157, "pitch": 63, "duration": 4, "velocity": 79}, {"time": 2163, "pitch": 59, "duration": 1, "velocity": 75}, {"time": 2163, "pitch": 63, "duration": 2, "velocity": 81}, {"time": 2163, "pitch": 66, "duration": 3, "velocity": 79}, {"time": 2175, "pitch": 37, "duration": 7, "velocity": 83}, {"time": 2175, "pitch": 61, "duration": 11, "velocity": 79}, {"time": 2175, "pitch": 65, "duration": 10, "velocity": 84}, {"time": 2187, "pitch": 51, "duration": 17, "velocity": 85}, {"time": 2187, "pitch": 70, "duration": 7, "velocity": 79}, {"time": 2193, "pitch": 58, "duration": 17, "velocity": 72}, {"time": 2199, "pitch": 63, "duration": 2, "velocity": 74}, {"time": 2199, "pitch": 66, "duration": 4, "velocity": 74}, {"time": 2199, "pitch": 70, "duration": 6, "velocity": 78}, {"time": 2211, "pitch": 50, "duration": 15, "velocity": 79}, {"time": 2211, "pitch": 62, "duration": 8, "velocity": 76}, {"time": 2211, "pitch": 65, "duration": 8, "velocity": 84}, {"time": 2211, "pitch": 70, "duration": 9, "velocity": 79}, {"time": 2217, "pitch": 58, "duration": 13, "velocity": 71}, {"time": 2223, "pitch": 62, "duration": 6, "velocity": 79}, {"time": 2223, "pitch": 65, "duration": 6, "velocity": 86}, {"time": 2223, "pitch": 70, "duration": 14, "velocity": 83}, {"time": 2229, "pitch": 50, "duration": 3, "velocity": 79}, {"time": 2235, "pitch": 47, "duration": 4, "velocity": 80}, {"time": 2235, "pitch": 59, "duration": 3, "velocity": 72}, {"time": 2235, "pitch": 63, "duration": 6, "velocity": 83}, {"time": 2235, "pitch": 66, "duration": 9, "velocity": 79}, {"time": 2241, "pitch": 59, "duration": 1, "velocity": 76}, {"time": 2247, "pitch": 49, "duration": 5, "velocity": 85}, {"time": 2247, "pitch": 61, "duration": 3, "velocity": 77}, {"time": 2247, "pitch": 65, "duration": 10, "velocity": 83}, {"time": 2253, "pitch": 61, "duration": 7, "velocity": 83}, {"time": 2259, "pitch": 42, "duration": 23, "velocity": 84}, {"time": 2259, "pitch": 66, "duration": 6, "velocity": 79}, {"time": 2265, "pitch": 49, "duration": 17, "velocity": 71}, {"time": 2271, "pitch": 54, "duration": 1, "velocity": 72}, {"time": 2271, "pitch": 58, "duration": 11, "velocity": 84}, {"time": 2271, "pitch": 61, "duration": 11, "velocity": 84}, {"time": 2277, "pitch": 54, "duration": 5, "velocity": 84}, {"time": 2283, "pitch": 51, "duration": 17, "velocity": 86}, {"time": 2283, "pitch": 58, "duration": 3, "velocity": 79}, {"time": 2283, "pitch": 66, "duration": 9, "velocity": 79}, {"time": 2289, "pitch": 58, "duration": 7, "velocity": 80}, {"time": 2295, "pitch": 63, "duration": 5, "velocity": 87}, {"time": 2301, "pitch": 58, "duration": 4, "velocity": 83}, {"time": 2307, "pitch": 46, "duration": 15, "velocity": 83}, {"time": 2307, "pitch": 58, "duration": 9, "velocity": 77}, {"time": 2307, "pitch": 65, "duration": 9, "velocity": 82}, {"time": 2313, "pitch": 53, "duration": 9, "velocity": 74}, {"time": 2319, "pitch": 61, "duration": 5, "velocity": 85}, {"time": 2325, "pitch": 58, "duration": 4, "velocity": 78}, {"time": 2331, "pitch": 47, "duration": 14, "velocity": 79}, {"time": 2331, "pitch": 59, "duration": 9, "velocity": 76}, {"time": 2331, "pitch": 63, "duration": 9, "velocity": 82}, {"time": 2337, "pitch": 54, "duration": 9, "velocity": 68}, {"time": 2343, "pitch": 59, "duration": 2, "velocity": 84}, {"time": 2343, "pitch": 63, "duration": 4, "velocity": 84}, {"time": 2343, "pitch": 66, "duration": 6, "velocity": 81}, {"time": 2349, "pitch": 47, "duration": 2, "velocity": 83}, {"time": 2355, "pitch": 49, "duration": 16, "velocity": 84}, {"time": 2355, "pitch": 61, "duration": 9, "velocity": 78}, {"time": 2355, "pitch": 65, "duration": 8, "velocity": 84}, {"time": 2361, "pitch": 56, "duration": 9, "velocity": 79}, {"time": 2367, "pitch": 65, "duration": 6, "velocity": 83}, {"time": 2367, "pitch": 68, "duration": 8, "velocity": 77}, {"time": 2373, "pitch": 61, "duration": 4, "velocity": 84}, {"time": 2379, "pitch": 47, "duration": 16, "velocity": 87}, {"time": 2379, "pitch": 59, "duration": 12, "velocity": 76}, {"time": 2379, "pitch": 66, "duration": 6, "velocity": 83}, {"time": 2385, "pitch": 54, "duration": 12, "velocity": 70}, {"time": 2391, "pitch": 63, "duration": 6, "velocity": 83}, {"time": 2391, "pitch": 66, "duration": 6, "velocity": 83}, {"time": 2397, "pitch": 59, "duration": 4, "velocity": 73}, {"time": 2403, "pitch": 47, "duration": 3, "velocity": 83}, {"time": 2403, "pitch": 59, "duration": 3, "velocity": 74}, {"time": 2403, "pitch": 63, "duration": 3, "velocity": 84}, {"time": 2403, "pitch": 66, "duration": 11, "velocity": 79}, {"time": 2415, "pitch": 49, "duration": 11, "velocity": 87}, {"time": 2415, "pitch": 56, "duration": 11, "velocity": 79}, {"time": 2415, "pitch": 61, "duration": 11, "velocity": 81}, {"time": 2415, "pitch": 65, "duration": 11, "velocity": 84}, {"time": 2427, "pitch": 42, "duration": 18, "velocity": 84}, {"time": 2427, "pitch": 54, "duration": 6, "velocity": 79}, {"time": 2427, "pitch": 61, "duration": 11, "velocity": 78}, {"time": 2433, "pitch": 49, "duration": 11, "velocity": 77}, {"time": 2439, "pitch": 58, "duration": 3, "velocity": 87}, {"time": 2442, "pitch": 54, "duration": 3, "velocity": 88}, {"time": 2445, "pitch": 61, "duration": 4, "velocity": 82}, {"time": 2448, "pitch": 54, "duration": 1, "velocity": 78}, {"time": 2451, "pitch": 42, "duration": 7, "velocity": 84}, {"time": 2451, "pitch": 54, "duration": 4, "velocity": 79}, {"time": 2451, "pitch": 58, "duration": 5, "velocity": 83}, {"time": 2457, "pitch": 49, "duration": 1, "velocity": 77}, {"time": 2463, "pitch": 49, "duration": 6, "velocity": 85}, {"time": 2463, "pitch": 56, "duration": 2, "velocity": 86}, {"time": 2463, "pitch": 61, "duration": 7, "velocity": 85}, {"time": 2463, "pitch": 41, "duration": 6, "velocity": 97}, {"time": 2469, "pitch": 56, "duration": 1, "velocity": 83}, {"time": 2475, "pitch": 39, "duration": 13, "velocity": 84}, {"time": 2475, "pitch": 58, "duration": 8, "velocity": 78}, {"time": 2475, "pitch": 63, "duration": 9, "velocity": 79}, {"time": 2481, "pitch": 46, "duration": 7, "velocity": 83}, {"time": 2487, "pitch": 58, "duration": 2, "velocity": 77}, {"time": 2487, "pitch": 63, "duration": 6, "velocity": 84}, {"time": 2487, "pitch": 66, "duration": 8, "velocity": 83}, {"time": 2493, "pitch": 58, "duration": 1, "velocity": 73}, {"time": 2499, "pitch": 49, "duration": 13, "velocity": 85}, {"time": 2499, "pitch": 61, "duration": 7, "velocity": 77}, {"time": 2499, "pitch": 65, "duration": 7, "velocity": 83}, {"time": 2505, "pitch": 56, "duration": 7, "velocity": 79}, {"time": 2511, "pitch": 61, "duration": 1, "velocity": 83}, {"time": 2511, "pitch": 65, "duration": 2, "velocity": 90}, {"time": 2511, "pitch": 68, "duration": 4, "velocity": 84}, {"time": 2514, "pitch": 61, "duration": 3, "velocity": 83}, {"time": 2517, "pitch": 65, "duration": 1, "velocity": 84}, {"time": 2523, "pitch": 47, "duration": 15, "velocity": 85}, {"time": 2523, "pitch": 59, "duration": 9, "velocity": 84}, {"time": 2523, "pitch": 63, "duration": 9, "velocity": 84}, {"time": 2529, "pitch": 54, "duration": 7, "velocity": 77}, {"time": 2535, "pitch": 59, "duration": 5, "velocity": 85}, {"time": 2535, "pitch": 63, "duration": 9, "velocity": 86}, {"time": 2535, "pitch": 66, "duration": 10, "velocity": 83}, {"time": 2538, "pitch": 54, "duration": 2, "velocity": 84}, {"time": 2541, "pitch": 47, "duration": 1, "velocity": 88}, {"time": 2547, "pitch": 46, "duration": 15, "velocity": 84}, {"time": 2547, "pitch": 58, "duration": 8, "velocity": 78}, {"time": 2547, "pitch": 61, "duration": 7, "velocity": 78}, {"time": 2553, "pitch": 53, "duration": 8, "velocity": 79}, {"time": 2559, "pitch": 58, "duration": 2, "velocity": 84}, {"time": 2559, "pitch": 61, "duration": 5, "velocity": 87}, {"time": 2559, "pitch": 65, "duration": 7, "velocity": 88}, {"time": 2565, "pitch": 58, "duration": 1, "velocity": 75}, {"time": 2571, "pitch": 47, "duration": 17, "velocity": 85}, {"time": 2571, "pitch": 59, "duration": 8, "velocity": 72}, {"time": 2571, "pitch": 63, "duration": 8, "velocity": 81}, {"time": 2577, "pitch": 54, "duration": 13, "velocity": 71}, {"time": 2583, "pitch": 59, "duration": 1, "velocity": 85}, {"time": 2583, "pitch": 63, "duration": 9, "velocity": 85}, {"time": 2583, "pitch": 66, "duration": 8, "velocity": 80}, {"time": 2589, "pitch": 59, "duration": 3, "velocity": 73}, {"time": 2595, "pitch": 47, "duration": 1, "velocity": 85}, {"time": 2595, "pitch": 59, "duration": 1, "velocity": 84}, {"time": 2595, "pitch": 63, "duration": 2, "velocity": 84}, {"time": 2595, "pitch": 66, "duration": 3, "velocity": 83}, {"time": 2607, "pitch": 37, "duration": 1, "velocity": 84}, {"time": 2607, "pitch": 56, "duration": 5, "velocity": 83}, {"time": 2607, "pitch": 61, "duration": 4, "velocity": 83}, {"time": 2607, "pitch": 65, "duration": 5, "velocity": 85}, {"time": 2618, "pitch": 66, "duration": 7, "velocity": 79}, {"time": 2618, "pitch": 58, "duration": 8, "velocity": 81}, {"time": 2618, "pitch": 42, "duration": 30, "velocity": 84}, {"time": 2624, "pitch": 49, "duration": 22, "velocity": 70}, {"time": 2630, "pitch": 66, "duration": 4, "velocity": 84}, {"time": 2630, "pitch": 61, "duration": 3, "velocity": 88}, {"time": 2630, "pitch": 58, "duration": 2, "velocity": 83}, {"time": 2636, "pitch": 58, "duration": 3, "velocity": 65}, {"time": 2642, "pitch": 66, "duration": 7, "velocity": 83}, {"time": 2642, "pitch": 61, "duration": 3, "velocity": 85}, {"time": 2642, "pitch": 58, "duration": 2, "velocity": 84}, {"time": 2648, "pitch": 58, "duration": 3, "velocity": 58}, {"time": 2654, "pitch": 65, "duration": 10, "velocity": 84}, {"time": 2654, "pitch": 53, "duration": 9, "velocity": 82}, {"time": 2654, "pitch": 61, "duration": 9, "velocity": 83}, {"time": 2655, "pitch": 41, "duration": 3, "velocity": 83}, {"time": 2667, "pitch": 39, "duration": 17, "velocity": 85}, {"time": 2667, "pitch": 58, "duration": 14, "velocity": 80}, {"time": 2667, "pitch": 66, "duration": 10, "velocity": 78}, {"time": 2673, "pitch": 46, "duration": 11, "velocity": 70}, {"time": 2679, "pitch": 63, "duration": 6, "velocity": 80}, {"time": 2679, "pitch": 66, "duration": 12, "velocity": 84}, {"time": 2685, "pitch": 58, "duration": 2, "velocity": 84}, {"time": 2691, "pitch": 49, "duration": 13, "velocity": 84}, {"time": 2691, "pitch": 61, "duration": 7, "velocity": 78}, {"time": 2691, "pitch": 65, "duration": 7, "velocity": 84}, {"time": 2697, "pitch": 56, "duration": 3, "velocity": 82}, {"time": 2703, "pitch": 56, "duration": 2, "velocity": 86}, {"time": 2703, "pitch": 61, "duration": 5, "velocity": 85}, {"time": 2703, "pitch": 65, "duration": 9, "velocity": 85}, {"time": 2709, "pitch": 56, "duration": 4, "velocity": 82}, {"time": 2715, "pitch": 47, "duration": 19, "velocity": 85}, {"time": 2715, "pitch": 59, "duration": 7, "velocity": 80}, {"time": 2715, "pitch": 63, "duration": 10, "velocity": 83}, {"time": 2721, "pitch": 54, "duration": 13, "velocity": 81}, {"time": 2724, "pitch": 59, "duration": 4, "velocity": 83}, {"time": 2727, "pitch": 63, "duration": 4, "velocity": 80}, {"time": 2730, "pitch": 59, "duration": 3, "velocity": 85}, {"time": 2733, "pitch": 63, "duration": 5, "velocity": 80}, {"time": 2739, "pitch": 46, "duration": 16, "velocity": 84}, {"time": 2739, "pitch": 58, "duration": 8, "velocity": 78}, {"time": 2739, "pitch": 61, "duration": 8, "velocity": 82}, {"time": 2745, "pitch": 53, "duration": 7, "velocity": 76}, {"time": 2751, "pitch": 58, "duration": 2, "velocity": 84}, {"time": 2751, "pitch": 65, "duration": 7, "velocity": 88}, {"time": 2754, "pitch": 53, "duration": 2, "velocity": 87}, {"time": 2757, "pitch": 58, "duration": 4, "velocity": 83}, {"time": 2760, "pitch": 61, "duration": 2, "velocity": 78}, {"time": 2763, "pitch": 47, "duration": 14, "velocity": 85}, {"time": 2763, "pitch": 59, "duration": 9, "velocity": 86}, {"time": 2763, "pitch": 63, "duration": 9, "velocity": 62}, {"time": 2769, "pitch": 54, "duration": 7, "velocity": 85}, {"time": 2775, "pitch": 59, "duration": 9, "velocity": 89}, {"time": 2775, "pitch": 63, "duration": 10, "velocity": 88}, {"time": 2781, "pitch": 47, "duration": 4, "velocity": 74}, {"time": 2787, "pitch": 47, "duration": 5, "velocity": 84}, {"time": 2787, "pitch": 54, "duration": 5, "velocity": 78}, {"time": 2787, "pitch": 59, "duration": 4, "velocity": 85}, {"time": 2787, "pitch": 63, "duration": 6, "velocity": 84}, {"time": 2799, "pitch": 49, "duration": 3, "velocity": 86}, {"time": 2799, "pitch": 56, "duration": 3, "velocity": 82}, {"time": 2799, "pitch": 61, "duration": 4, "velocity": 84}, {"time": 2799, "pitch": 65, "duration": 5, "velocity": 85}, {"time": 2811, "pitch": 42, "duration": 21, "velocity": 84}, {"time": 2811, "pitch": 66, "duration": 5, "velocity": 84}, {"time": 2814, "pitch": 49, "duration": 18, "velocity": 69}, {"time": 2814, "pitch": 58, "duration": 4, "velocity": 83}, {"time": 2817, "pitch": 61, "duration": 3, "velocity": 83}, {"time": 2820, "pitch": 66, "duration": 2, "velocity": 88}, {"time": 2823, "pitch": 58, "duration": 3, "velocity": 87}, {"time": 2826, "pitch": 61, "duration": 4, "velocity": 82}, {"time": 2829, "pitch": 66, "duration": 2, "velocity": 85}, {"time": 2832, "pitch": 58, "duration": 1, "velocity": 74}, {"time": 2835, "pitch": 42, "duration": 21, "velocity": 84}, {"time": 2835, "pitch": 58, "duration": 1, "velocity": 82}, {"time": 2835, "pitch": 66, "duration": 7, "velocity": 84}, {"time": 2838, "pitch": 49, "duration": 19, "velocity": 76}, {"time": 2841, "pitch": 58, "duration": 3, "velocity": 85}, {"time": 2844, "pitch": 61, "duration": 3, "velocity": 79}, {"time": 2847, "pitch": 66, "duration": 6, "velocity": 89}, {"time": 2850, "pitch": 58, "duration": 4, "velocity": 83}, {"time": 2853, "pitch": 61, "duration": 3, "velocity": 75}, {"time": 2856, "pitch": 66, "duration": 4, "velocity": 77}, {"time": 2859, "pitch": 47, "duration": 18, "velocity": 88}, {"time": 2862, "pitch": 54, "duration": 16, "velocity": 83}, {"time": 2865, "pitch": 59, "duration": 5, "velocity": 87}, {"time": 2868, "pitch": 63, "duration": 3, "velocity": 84}, {"time": 2871, "pitch": 66, "duration": 5, "velocity": 89}, {"time": 2874, "pitch": 59, "duration": 5, "velocity": 85}, {"time": 2877, "pitch": 63, "duration": 3, "velocity": 78}, {"time": 2880, "pitch": 66, "duration": 2, "velocity": 82}, {"time": 2883, "pitch": 49, "duration": 23, "velocity": 88}, {"time": 2883, "pitch": 61, "duration": 3, "velocity": 78}, {"time": 2883, "pitch": 65, "duration": 3, "velocity": 85}, {"time": 2886, "pitch": 56, "duration": 20, "velocity": 78}, {"time": 2889, "pitch": 61, "duration": 4, "velocity": 90}, {"time": 2892, "pitch": 65, "duration": 2, "velocity": 77}, {"time": 2895, "pitch": 61, "duration": 3, "velocity": 72}, {"time": 2895, "pitch": 65, "duration": 10, "velocity": 75}, {"time": 2895, "pitch": 68, "duration": 11, "velocity": 83}, {"time": 2907, "pitch": 42, "duration": 33, "velocity": 83}, {"time": 2907, "pitch": 61, "duration": 14, "velocity": 79}, {"time": 2913, "pitch": 49, "duration": 25, "velocity": 59}, {"time": 2919, "pitch": 66, "duration": 10, "velocity": 83}, {"time": 2925, "pitch": 58, "duration": 7, "velocity": 69}, {"time": 2925, "pitch": 61, "duration": 3, "velocity": 27}, {"time": 2931, "pitch": 66, "duration": 12, "velocity": 78}, {"time": 2937, "pitch": 58, "duration": 6, "velocity": 64}, {"time": 2943, "pitch": 65, "duration": 5, "velocity": 87}, {"time": 2949, "pitch": 61, "duration": 4, "velocity": 81}, {"time": 2955, "pitch": 51, "duration": 34, "velocity": 83}, {"time": 2955, "pitch": 58, "duration": 4, "velocity": 74}, {"time": 2955, "pitch": 63, "duration": 12, "velocity": 76}, {"time": 2961, "pitch": 58, "duration": 5, "velocity": 73}, {"time": 2967, "pitch": 66, "duration": 6, "velocity": 79}, {"time": 2973, "pitch": 58, "duration": 6, "velocity": 66}, {"time": 2979, "pitch": 66, "duration": 11, "velocity": 79}, {"time": 2985, "pitch": 58, "duration": 6, "velocity": 73}, {"time": 2991, "pitch": 49, "duration": 11, "velocity": 87}, {"time": 2991, "pitch": 61, "duration": 11, "velocity": 76}, {"time": 2991, "pitch": 65, "duration": 11, "velocity": 84}, {"time": 3003, "pitch": 47, "duration": 15, "velocity": 85}, {"time": 3003, "pitch": 59, "duration": 9, "velocity": 84}, {"time": 3003, "pitch": 63, "duration": 9, "velocity": 84}, {"time": 3009, "pitch": 54, "duration": 7, "velocity": 77}, {"time": 3015, "pitch": 59, "duration": 5, "velocity": 85}, {"time": 3015, "pitch": 63, "duration": 9, "velocity": 86}, {"time": 3015, "pitch": 66, "duration": 10, "velocity": 83}, {"time": 3018, "pitch": 54, "duration": 2, "velocity": 84}, {"time": 3021, "pitch": 47, "duration": 1, "velocity": 88}, {"time": 3027, "pitch": 46, "duration": 15, "velocity": 84}, {"time": 3027, "pitch": 58, "duration": 8, "velocity": 78}, {"time": 3027, "pitch": 61, "duration": 7, "velocity": 78}, {"time": 3033, "pitch": 53, "duration": 8, "velocity": 79}, {"time": 3039, "pitch": 58, "duration": 2, "velocity": 84}, {"time": 3039, "pitch": 61, "duration": 5, "velocity": 87}, {"time": 3039, "pitch": 65, "duration": 7, "velocity": 88}, {"time": 3045, "pitch": 58, "duration": 1, "velocity": 75}, {"time": 3051, "pitch": 47, "duration": 17, "velocity": 85}, {"time": 3051, "pitch": 59, "duration": 8, "velocity": 72}, {"time": 3051, "pitch": 63, "duration": 8, "velocity": 81}, {"time": 3057, "pitch": 54, "duration": 13, "velocity": 71}, {"time": 3063, "pitch": 59, "duration": 1, "velocity": 85}, {"time": 3063, "pitch": 63, "duration": 9, "velocity": 85}, {"time": 3063, "pitch": 66, "duration": 8, "velocity": 80}, {"time": 3069, "pitch": 59, "duration": 3, "velocity": 73}, {"time": 3075, "pitch": 47, "duration": 1, "velocity": 85}, {"time": 3075, "pitch": 59, "duration": 1, "velocity": 84}, {"time": 3075, "pitch": 63, "duration": 2, "velocity": 84}, {"time": 3075, "pitch": 66, "duration": 3, "velocity": 83}, {"time": 3087, "pitch": 37, "duration": 1, "velocity": 84}, {"time": 3087, "pitch": 56, "duration": 5, "velocity": 83}, {"time": 3087, "pitch": 61, "duration": 4, "velocity": 83}, {"time": 3087, "pitch": 65, "duration": 5, "velocity": 85}, {"time": 3098, "pitch": 66, "duration": 7, "velocity": 79}, {"time": 3098, "pitch": 58, "duration": 8, "velocity": 81}, {"time": 3098, "pitch": 42, "duration": 30, "velocity": 84}, {"time": 3104, "pitch": 49, "duration": 22, "velocity": 70}, {"time": 3110, "pitch": 66, "duration": 4, "velocity": 84}, {"time": 3110, "pitch": 61, "duration": 3, "velocity": 88}, {"time": 3110, "pitch": 58, "duration": 2, "velocity": 83}, {"time": 3116, "pitch": 58, "duration": 3, "velocity": 65}, {"time": 3122, "pitch": 66, "duration": 7, "velocity": 83}, {"time": 3122, "pitch": 61, "duration": 3, "velocity": 85}, {"time": 3122, "pitch": 58, "duration": 2, "velocity": 84}, {"time": 3128, "pitch": 58, "duration": 3, "velocity": 58}, {"time": 3134, "pitch": 65, "duration": 10, "velocity": 84}, {"time": 3134, "pitch": 56, "duration": 9, "velocity": 82}, {"time": 3134, "pitch": 60, "duration": 9, "velocity": 83}, {"time": 3135, "pitch": 41, "duration": 3, "velocity": 83}, {"time": 3147, "pitch": 39, "duration": 17, "velocity": 85}, {"time": 3147, "pitch": 58, "duration": 14, "velocity": 80}, {"time": 3147, "pitch": 66, "duration": 10, "velocity": 78}, {"time": 3153, "pitch": 46, "duration": 11, "velocity": 70}, {"time": 3159, "pitch": 63, "duration": 6, "velocity": 80}, {"time": 3159, "pitch": 66, "duration": 12, "velocity": 84}, {"time": 3165, "pitch": 58, "duration": 2, "velocity": 84}, {"time": 3171, "pitch": 49, "duration": 13, "velocity": 84}, {"time": 3171, "pitch": 61, "duration": 7, "velocity": 78}, {"time": 3171, "pitch": 65, "duration": 7, "velocity": 84}, {"time": 3177, "pitch": 56, "duration": 3, "velocity": 82}, {"time": 3183, "pitch": 56, "duration": 2, "velocity": 86}, {"time": 3183, "pitch": 61, "duration": 5, "velocity": 85}, {"time": 3183, "pitch": 65, "duration": 9, "velocity": 85}, {"time": 3189, "pitch": 56, "duration": 4, "velocity": 82}, {"time": 3195, "pitch": 47, "duration": 19, "velocity": 85}, {"time": 3195, "pitch": 59, "duration": 7, "velocity": 80}, {"time": 3195, "pitch": 63, "duration": 10, "velocity": 83}, {"time": 3201, "pitch": 54, "duration": 13, "velocity": 81}, {"time": 3204, "pitch": 59, "duration": 4, "velocity": 83}, {"time": 3207, "pitch": 63, "duration": 4, "velocity": 80}, {"time": 3210, "pitch": 59, "duration": 3, "velocity": 85}, {"time": 3213, "pitch": 63, "duration": 5, "velocity": 80}, {"time": 3219, "pitch": 46, "duration": 16, "velocity": 84}, {"time": 3219, "pitch": 58, "duration": 8, "velocity": 78}, {"time": 3219, "pitch": 61, "duration": 8, "velocity": 82}, {"time": 3225, "pitch": 53, "duration": 7, "velocity": 76}, {"time": 3231, "pitch": 58, "duration": 2, "velocity": 84}, {"time": 3234, "pitch": 53, "duration": 2, "velocity": 87}, {"time": 3237, "pitch": 58, "duration": 4, "velocity": 83}, {"time": 3240, "pitch": 61, "duration": 2, "velocity": 78}, {"time": 3243, "pitch": 47, "duration": 14, "velocity": 85}, {"time": 3243, "pitch": 59, "duration": 9, "velocity": 86}, {"time": 3243, "pitch": 63, "duration": 9, "velocity": 62}, {"time": 3249, "pitch": 54, "duration": 7, "velocity": 85}, {"time": 3255, "pitch": 59, "duration": 9, "velocity": 89}, {"time": 3255, "pitch": 63, "duration": 10, "velocity": 88}, {"time": 3261, "pitch": 47, "duration": 4, "velocity": 74}, {"time": 3267, "pitch": 47, "duration": 5, "velocity": 84}, {"time": 3267, "pitch": 54, "duration": 5, "velocity": 78}, {"time": 3267, "pitch": 59, "duration": 4, "velocity": 85}, {"time": 3267, "pitch": 63, "duration": 6, "velocity": 84}, {"time": 3279, "pitch": 49, "duration": 3, "velocity": 86}, {"time": 3279, "pitch": 56, "duration": 3, "velocity": 82}, {"time": 3279, "pitch": 61, "duration": 4, "velocity": 84}, {"time": 3279, "pitch": 65, "duration": 5, "velocity": 85}, {"time": 3290, "pitch": 61, "duration": 8, "velocity": 71}, {"time": 3290, "pitch": 66, "duration": 13, "velocity": 69}, {"time": 3291, "pitch": 42, "duration": 30, "velocity": 80}, {"time": 3296, "pitch": 49, "duration": 24, "velocity": 64}, {"time": 3302, "pitch": 61, "duration": 13, "velocity": 72}, {"time": 3308, "pitch": 66, "duration": 10, "velocity": 83}, {"time": 3314, "pitch": 70, "duration": 5, "velocity": 74}, {"time": 3326, "pitch": 61, "duration": 6, "velocity": 79}, {"time": 3326, "pitch": 65, "duration": 8, "velocity": 83}, {"time": 3338, "pitch": 58, "duration": 4, "velocity": 71}, {"time": 3338, "pitch": 63, "duration": 20, "velocity": 75}, {"time": 3339, "pitch": 51, "duration": 21, "velocity": 79}, {"time": 3344, "pitch": 58, "duration": 7, "velocity": 70}, {"time": 3351, "pitch": 66, "duration": 7, "velocity": 78}, {"time": 3356, "pitch": 58, "duration": 7, "velocity": 72}, {"time": 3362, "pitch": 66, "duration": 12, "velocity": 75}, {"time": 3374, "pitch": 49, "duration": 3, "velocity": 80}, {"time": 3374, "pitch": 56, "duration": 5, "velocity": 79}, {"time": 3374, "pitch": 61, "duration": 4, "velocity": 77}, {"time": 3387, "pitch": 59, "duration": 3, "velocity": 59}, {"time": 3387, "pitch": 63, "duration": 12, "velocity": 74}, {"time": 3387, "pitch": 47, "duration": 19, "velocity": 66}, {"time": 3393, "pitch": 54, "duration": 1, "velocity": 38}, {"time": 3398, "pitch": 59, "duration": 8, "velocity": 84}, {"time": 3405, "pitch": 63, "duration": 5, "velocity": 78}, {"time": 3411, "pitch": 58, "duration": 8, "velocity": 72}, {"time": 3411, "pitch": 61, "duration": 12, "velocity": 71}, {"time": 3411, "pitch": 46, "duration": 14, "velocity": 80}, {"time": 3416, "pitch": 53, "duration": 8, "velocity": 71}, {"time": 3423, "pitch": 58, "duration": 6, "velocity": 71}, {"time": 3428, "pitch": 61, "duration": 6, "velocity": 72}, {"time": 3435, "pitch": 44, "duration": 24, "velocity": 84}, {"time": 3435, "pitch": 56, "duration": 13, "velocity": 77}, {"time": 3435, "pitch": 63, "duration": 13, "velocity": 79}, {"time": 3441, "pitch": 51, "duration": 15, "velocity": 71}, {"time": 3447, "pitch": 59, "duration": 7, "velocity": 87}, {"time": 3453, "pitch": 56, "duration": 5, "velocity": 89}, {"time": 3459, "pitch": 49, "duration": 20, "velocity": 77}, {"time": 3459, "pitch": 56, "duration": 12, "velocity": 78}, {"time": 3459, "pitch": 61, "duration": 15, "velocity": 78}, {"time": 3471, "pitch": 53, "duration": 11, "velocity": 72}, {"time": 3483, "pitch": 56, "duration": 42, "velocity": 76}, {"time": 3483, "pitch": 61, "duration": 42, "velocity": 76}, {"time": 3483, "pitch": 65, "duration": 41, "velocity": 79}, {"time": 3537, "pitch": 42, "duration": 77, "velocity": 84}, {"time": 3537, "pitch": 49, "duration": 73, "velocity": 74}, {"time": 3543, "pitch": 54, "duration": 12, "velocity": 73}, {"time": 3549, "pitch": 58, "duration": 9, "velocity": 70}, {"time": 3549, "pitch": 61, "duration": 5, "velocity": 73}, {"time": 3555, "pitch": 66, "duration": 2, "velocity": 83}, {"time": 3561, "pitch": 66, "duration": 3, "velocity": 70}, {"time": 3561, "pitch": 70, "duration": 3, "velocity": 73}, {"time": 3567, "pitch": 66, "duration": 3, "velocity": 63}, {"time": 3567, "pitch": 70, "duration": 3, "velocity": 67}, {"time": 3567, "pitch": 73, "duration": 3, "velocity": 72}, {"time": 3573, "pitch": 66, "duration": 2, "velocity": 71}, {"time": 3573, "pitch": 78, "duration": 3, "velocity": 72}, {"time": 3579, "pitch": 78, "duration": 10, "velocity": 66}, {"time": 3579, "pitch": 82, "duration": 10, "velocity": 64}, {"time": 3597, "pitch": 78, "duration": 2, "velocity": 54}, {"time": 3597, "pitch": 82, "duration": 2, "velocity": 71}, {"time": 3597, "pitch": 90, "duration": 2, "velocity": 78}], "annotations": [{"time": 26, "annotation": {"number": 64, "value": 127}, "group": "control_change"}, {"time": 50, "annotation": {"number": 64, "value": 0}, "group": "control_change"}, {"time": 56, "annotation": {"number": 64, "value": 127}, "group": "control_change"}, {"time": 56, "annotation": {"number": 64, "value": 0}, "group": "control_change"}, {"time": 74, "annotation": {"number": 64, "value": 0}, "group": "control_change"}, {"time": 77, "annotation": {"number": 64, "value": 127}, "group": "control_change"}, {"time": 120, "annotation": {"number": 64, "value": 0}, "group": "control_change"}, {"time": 122, "annotation": {"number": 64, "value": 127}, "group": "control_change"}, {"time": 146, "annotation": {"number": 64, "value": 0}, "group": "control_change"}, {"time": 148, "annotation": {"number": 64, "value": 127}, "group": "control_change"}, {"time": 169, "annotation": {"number": 64, "value": 0}, "group": "control_change"}, {"time": 172, "annotation": {"number": 64, "value": 127}, "group": "control_change"}, {"time": 217, "annotation": {"number": 64, "value": 0}, "group": "control_change"}, {"time": 219, "annotation": {"number": 64, "value": 127}, "group": "control_change"}, {"time": 219, "annotation": {"number": 64, "value": 0}, "group": "control_change"}, {"time": 241, "annotation": {"number": 64, "value": 0}, "group": "control_change"}, {"time": 243, "annotation": {"number": 64, "value": 127}, "group": "control_change"}, {"time": 264, "annotation": {"number": 64, "value": 0}, "group": "control_change"}, {"time": 266, "annotation": {"number": 64, "value": 127}, "group": "control_change"}, {"time": 276, "annotation": {"number": 64, "value": 0}, "group": "control_change"}, {"time": 278, "annotation": {"number": 64, "value": 127}, "group": "control_change"}, {"time": 290, "annotation": {"number": 64, "value": 0}, "group": "control_change"}, {"time": 290, "annotation": {"number": 64, "value": 127}, "group": "control_change"}, {"time": 302, "annotation": {"number": 64, "value": 0}, "group": "control_change"}, {"time": 303, "annotation": {"number": 64, "value": 127}, "group": "control_change"}, {"time": 313, "annotation": {"number": 64, "value": 0}, "group": "control_change"}, {"time": 316, "annotation": {"number": 64, "value": 127}, "group": "control_change"}, {"time": 361, "annotation": {"number": 64, "value": 0}, "group": "control_change"}, {"time": 362, "annotation": {"number": 64, "value": 127}, "group": "control_change"}, {"time": 407, "annotation": {"number": 64, "value": 0}, "group": "control_change"}, {"time": 412, "annotation": {"number": 64, "value": 127}, "group": "control_change"}, {"time": 456, "annotation": {"number": 64, "value": 0}, "group": "control_change"}, {"time": 461, "annotation": {"number": 64, "value": 127}, "group": "control_change"}, {"time": 507, "annotation": {"number": 64, "value": 127}, "group": "control_change"}, {"time": 553, "annotation": {"number": 64, "value": 0}, "group": "control_change"}, {"time": 557, "annotation": {"number": 64, "value": 127}, "group": "control_change"}, {"time": 589, "annotation": {"number": 64, "value": 0}, "group": "control_change"}, {"time": 590, "annotation": {"number": 64, "value": 127}, "group": "control_change"}, {"time": 603, "annotation": {"number": 64, "value": 0}, "group": "control_change"}, {"time": 608, "annotation": {"number": 64, "value": 127}, "group": "control_change"}, {"time": 648, "annotation": {"number": 64, "value": 0}, "group": "control_change"}, {"time": 651, "annotation": {"number": 64, "value": 127}, "group": "control_change"}, {"time": 698, "annotation": {"number": 64, "value": 127}, "group": "control_change"}, {"time": 708, "annotation": {"number": 64, "value": 0}, "group": "control_change"}, {"time": 727, "annotation": {"number": 64, "value": 127}, "group": "control_change"}, {"time": 727, "annotation": {"number": 64, "value": 0}, "group": "control_change"}, {"time": 745, "annotation": {"number": 64, "value": 0}, "group": "control_change"}, {"time": 748, "annotation": {"number": 64, "value": 127}, "group": "control_change"}, {"time": 780, "annotation": {"number": 64, "value": 0}, "group": "control_change"}, {"time": 783, "annotation": {"number": 64, "value": 127}, "group": "control_change"}, {"time": 790, "annotation": {"number": 64, "value": 0}, "group": "control_change"}, {"time": 818, "annotation": {"number": 64, "value": 0}, "group": "control_change"}, {"time": 823, "annotation": {"number": 64, "value": 127}, "group": "control_change"}, {"time": 841, "annotation": {"number": 64, "value": 0}, "group": "control_change"}, {"time": 843, "annotation": {"number": 64, "value": 127}, "group": "control_change"}, {"time": 853, "annotation": {"number": 64, "value": 0}, "group": "control_change"}, {"time": 855, "annotation": {"number": 64, "value": 127}, "group": "control_change"}, {"time": 864, "annotation": {"number": 64, "value": 0}, "group": "control_change"}, {"time": 868, "annotation": {"number": 64, "value": 127}, "group": "control_change"}, {"time": 886, "annotation": {"number": 64, "value": 0}, "group": "control_change"}, {"time": 890, "annotation": {"number": 64, "value": 127}, "group": "control_change"}, {"time": 890, "annotation": {"number": 64, "value": 0}, "group": "control_change"}, {"time": 891, "annotation": {"number": 64, "value": 127}, "group": "control_change"}, {"time": 913, "annotation": {"number": 64, "value": 0}, "group": "control_change"}, {"time": 918, "annotation": {"number": 64, "value": 127}, "group": "control_change"}, {"time": 937, "annotation": {"number": 64, "value": 0}, "group": "control_change"}, {"time": 939, "annotation": {"number": 64, "value": 127}, "group": "control_change"}, {"time": 962, "annotation": {"number": 64, "value": 0}, "group": "control_change"}, {"time": 964, "annotation": {"number": 64, "value": 127}, "group": "control_change"}, {"time": 986, "annotation": {"number": 64, "value": 0}, "group": "control_change"}, {"time": 987, "annotation": {"number": 64, "value": 127}, "group": "control_change"}, {"time": 1009, "annotation": {"number": 64, "value": 0}, "group": "control_change"}, {"time": 1010, "annotation": {"number": 64, "value": 127}, "group": "control_change"}, {"time": 1022, "annotation": {"number": 64, "value": 0}, "group": "control_change"}, {"time": 1036, "annotation": {"number": 64, "value": 127}, "group": "control_change"}, {"time": 1069, "annotation": {"number": 64, "value": 0}, "group": "control_change"}, {"time": 1071, "annotation": {"number": 64, "value": 127}, "group": "control_change"}, {"time": 1081, "annotation": {"number": 64, "value": 0}, "group": "control_change"}, {"time": 1083, "annotation": {"number": 64, "value": 127}, "group": "control_change"}, {"time": 1106, "annotation": {"number": 64, "value": 0}, "group": "control_change"}, {"time": 1110, "annotation": {"number": 64, "value": 127}, "group": "control_change"}, {"time": 1131, "annotation": {"number": 64, "value": 0}, "group": "control_change"}, {"time": 1135, "annotation": {"number": 64, "value": 127}, "group": "control_change"}, {"time": 1155, "annotation": {"number": 64, "value": 0}, "group": "control_change"}, {"time": 1159, "annotation": {"number": 64, "value": 127}, "group": "control_change"}, {"time": 1176, "annotation": {"number": 64, "value": 0}, "group": "control_change"}, {"time": 1181, "annotation": {"number": 64, "value": 127}, "group": "control_change"}, {"time": 1201, "annotation": {"number": 64, "value": 0}, "group": "control_change"}, {"time": 1202, "annotation": {"number": 64, "value": 127}, "group": "control_change"}, {"time": 1212, "annotation": {"number": 64, "value": 0}, "group": "control_change"}, {"time": 1215, "annotation": {"number": 64, "value": 127}, "group": "control_change"}, {"time": 1224, "annotation": {"number": 64, "value": 0}, "group": "control_change"}, {"time": 1227, "annotation": {"number": 64, "value": 127}, "group": "control_change"}, {"time": 1262, "annotation": {"number": 64, "value": 0}, "group": "control_change"}, {"time": 1263, "annotation": {"number": 64, "value": 127}, "group": "control_change"}, {"time": 1273, "annotation": {"number": 64, "value": 0}, "group": "control_change"}, {"time": 1275, "annotation": {"number": 64, "value": 127}, "group": "control_change"}, {"time": 1280, "annotation": {"number": 64, "value": 0}, "group": "control_change"}, {"time": 1286, "annotation": {"number": 64, "value": 127}, "group": "control_change"}, {"time": 1297, "annotation": {"number": 64, "value": 0}, "group": "control_change"}, {"time": 1300, "annotation": {"number": 64, "value": 127}, "group": "control_change"}, {"time": 1321, "annotation": {"number": 64, "value": 0}, "group": "control_change"}, {"time": 1325, "annotation": {"number": 64, "value": 127}, "group": "control_change"}, {"time": 1346, "annotation": {"number": 64, "value": 0}, "group": "control_change"}, {"time": 1349, "annotation": {"number": 64, "value": 127}, "group": "control_change"}, {"time": 1370, "annotation": {"number": 64, "value": 0}, "group": "control_change"}, {"time": 1371, "annotation": {"number": 64, "value": 127}, "group": "control_change"}, {"time": 1394, "annotation": {"number": 64, "value": 0}, "group": "control_change"}, {"time": 1395, "annotation": {"number": 64, "value": 127}, "group": "control_change"}, {"time": 1406, "annotation": {"number": 64, "value": 0}, "group": "control_change"}, {"time": 1408, "annotation": {"number": 64, "value": 127}, "group": "control_change"}, {"time": 1418, "annotation": {"number": 64, "value": 0}, "group": "control_change"}, {"time": 1422, "annotation": {"number": 64, "value": 127}, "group": "control_change"}, {"time": 1466, "annotation": {"number": 64, "value": 0}, "group": "control_change"}, {"time": 1467, "annotation": {"number": 64, "value": 127}, "group": "control_change"}, {"time": 1489, "annotation": {"number": 64, "value": 0}, "group": "control_change"}, {"time": 1491, "annotation": {"number": 64, "value": 127}, "group": "control_change"}, {"time": 1513, "annotation": {"number": 64, "value": 0}, "group": "control_change"}, {"time": 1515, "annotation": {"number": 64, "value": 127}, "group": "control_change"}, {"time": 1538, "annotation": {"number": 64, "value": 0}, "group": "control_change"}, {"time": 1539, "annotation": {"number": 64, "value": 127}, "group": "control_change"}, {"time": 1562, "annotation": {"number": 64, "value": 0}, "group": "control_change"}, {"time": 1564, "annotation": {"number": 64, "value": 127}, "group": "control_change"}, {"time": 1586, "annotation": {"number": 64, "value": 0}, "group": "control_change"}, {"time": 1588, "annotation": {"number": 64, "value": 127}, "group": "control_change"}, {"time": 1610, "annotation": {"number": 64, "value": 0}, "group": "control_change"}, {"time": 1612, "annotation": {"number": 64, "value": 127}, "group": "control_change"}, {"time": 1634, "annotation": {"number": 64, "value": 0}, "group": "control_change"}, {"time": 1635, "annotation": {"number": 64, "value": 127}, "group": "control_change"}, {"time": 1658, "annotation": {"number": 64, "value": 0}, "group": "control_change"}, {"time": 1660, "annotation": {"number": 64, "value": 127}, "group": "control_change"}, {"time": 1681, "annotation": {"number": 64, "value": 0}, "group": "control_change"}, {"time": 1682, "annotation": {"number": 64, "value": 127}, "group": "control_change"}, {"time": 1706, "annotation": {"number": 64, "value": 0}, "group": "control_change"}, {"time": 1708, "annotation": {"number": 64, "value": 127}, "group": "control_change"}, {"time": 1730, "annotation": {"number": 64, "value": 0}, "group": "control_change"}, {"time": 1731, "annotation": {"number": 64, "value": 127}, "group": "control_change"}, {"time": 1754, "annotation": {"number": 64, "value": 0}, "group": "control_change"}, {"time": 1756, "annotation": {"number": 64, "value": 127}, "group": "control_change"}, {"time": 1779, "annotation": {"number": 64, "value": 0}, "group": "control_change"}, {"time": 1781, "annotation": {"number": 64, "value": 127}, "group": "control_change"}, {"time": 1801, "annotation": {"number": 64, "value": 0}, "group": "control_change"}, {"time": 1804, "annotation": {"number": 64, "value": 127}, "group": "control_change"}, {"time": 1848, "annotation": {"number": 64, "value": 0}, "group": "control_change"}, {"time": 1853, "annotation": {"number": 64, "value": 127}, "group": "control_change"}, {"time": 1899, "annotation": {"number": 64, "value": 127}, "group": "control_change"}, {"time": 1945, "annotation": {"number": 64, "value": 0}, "group": "control_change"}, {"time": 1949, "annotation": {"number": 64, "value": 127}, "group": "control_change"}, {"time": 1981, "annotation": {"number": 64, "value": 0}, "group": "control_change"}, {"time": 1982, "annotation": {"number": 64, "value": 127}, "group": "control_change"}, {"time": 1995, "annotation": {"number": 64, "value": 0}, "group": "control_change"}, {"time": 2000, "annotation": {"number": 64, "value": 127}, "group": "control_change"}, {"time": 2040, "annotation": {"number": 64, "value": 0}, "group": "control_change"}, {"time": 2043, "annotation": {"number": 64, "value": 127}, "group": "control_change"}, {"time": 2090, "annotation": {"number": 64, "value": 127}, "group": "control_change"}, {"time": 2100, "annotation": {"number": 64, "value": 0}, "group": "control_change"}, {"time": 2119, "annotation": {"number": 64, "value": 127}, "group": "control_change"}, {"time": 2119, "annotation": {"number": 64, "value": 0}, "group": "control_change"}, {"time": 2137, "annotation": {"number": 64, "value": 0}, "group": "control_change"}, {"time": 2140, "annotation": {"number": 64, "value": 127}, "group": "control_change"}, {"time": 2172, "annotation": {"number": 64, "value": 0}, "group": "control_change"}, {"time": 2175, "annotation": {"number": 64, "value": 127}, "group": "control_change"}, {"time": 2182, "annotation": {"number": 64, "value": 0}, "group": "control_change"}, {"time": 2210, "annotation": {"number": 64, "value": 0}, "group": "control_change"}, {"time": 2215, "annotation": {"number": 64, "value": 127}, "group": "control_change"}, {"time": 2233, "annotation": {"number": 64, "value": 0}, "group": "control_change"}, {"time": 2235, "annotation": {"number": 64, "value": 127}, "group": "control_change"}, {"time": 2245, "annotation": {"number": 64, "value": 0}, "group": "control_change"}, {"time": 2247, "annotation": {"number": 64, "value": 127}, "group": "control_change"}, {"time": 2256, "annotation": {"number": 64, "value": 0}, "group": "control_change"}, {"time": 2260, "annotation": {"number": 64, "value": 127}, "group": "control_change"}, {"time": 2278, "annotation": {"number": 64, "value": 0}, "group": "control_change"}, {"time": 2282, "annotation": {"number": 64, "value": 127}, "group": "control_change"}, {"time": 2282, "annotation": {"number": 64, "value": 0}, "group": "control_change"}, {"time": 2283, "annotation": {"number": 64, "value": 127}, "group": "control_change"}, {"time": 2305, "annotation": {"number": 64, "value": 0}, "group": "control_change"}, {"time": 2310, "annotation": {"number": 64, "value": 127}, "group": "control_change"}, {"time": 2329, "annotation": {"number": 64, "value": 0}, "group": "control_change"}, {"time": 2331, "annotation": {"number": 64, "value": 127}, "group": "control_change"}, {"time": 2354, "annotation": {"number": 64, "value": 0}, "group": "control_change"}, {"time": 2356, "annotation": {"number": 64, "value": 127}, "group": "control_change"}, {"time": 2378, "annotation": {"number": 64, "value": 0}, "group": "control_change"}, {"time": 2379, "annotation": {"number": 64, "value": 127}, "group": "control_change"}, {"time": 2401, "annotation": {"number": 64, "value": 0}, "group": "control_change"}, {"time": 2402, "annotation": {"number": 64, "value": 127}, "group": "control_change"}, {"time": 2414, "annotation": {"number": 64, "value": 0}, "group": "control_change"}, {"time": 2428, "annotation": {"number": 64, "value": 127}, "group": "control_change"}, {"time": 2461, "annotation": {"number": 64, "value": 0}, "group": "control_change"}, {"time": 2463, "annotation": {"number": 64, "value": 127}, "group": "control_change"}, {"time": 2473, "annotation": {"number": 64, "value": 0}, "group": "control_change"}, {"time": 2475, "annotation": {"number": 64, "value": 127}, "group": "control_change"}, {"time": 2498, "annotation": {"number": 64, "value": 0}, "group": "control_change"}, {"time": 2502, "annotation": {"number": 64, "value": 127}, "group": "control_change"}, {"time": 2523, "annotation": {"number": 64, "value": 0}, "group": "control_change"}, {"time": 2527, "annotation": {"number": 64, "value": 127}, "group": "control_change"}, {"time": 2547, "annotation": {"number": 64, "value": 0}, "group": "control_change"}, {"time": 2551, "annotation": {"number": 64, "value": 127}, "group": "control_change"}, {"time": 2568, "annotation": {"number": 64, "value": 0}, "group": "control_change"}, {"time": 2573, "annotation": {"number": 64, "value": 127}, "group": "control_change"}, {"time": 2593, "annotation": {"number": 64, "value": 0}, "group": "control_change"}, {"time": 2594, "annotation": {"number": 64, "value": 127}, "group": "control_change"}, {"time": 2604, "annotation": {"number": 64, "value": 0}, "group": "control_change"}, {"time": 2607, "annotation": {"number": 64, "value": 127}, "group": "control_change"}, {"time": 2616, "annotation": {"number": 64, "value": 0}, "group": "control_change"}, {"time": 2619, "annotation": {"number": 64, "value": 127}, "group": "control_change"}, {"time": 2654, "annotation": {"number": 64, "value": 0}, "group": "control_change"}, {"time": 2655, "annotation": {"number": 64, "value": 127}, "group": "control_change"}, {"time": 2665, "annotation": {"number": 64, "value": 0}, "group": "control_change"}, {"time": 2667, "annotation": {"number": 64, "value": 127}, "group": "control_change"}, {"time": 2672, "annotation": {"number": 64, "value": 0}, "group": "control_change"}, {"time": 2678, "annotation": {"number": 64, "value": 127}, "group": "control_change"}, {"time": 2689, "annotation": {"number": 64, "value": 0}, "group": "control_change"}, {"time": 2692, "annotation": {"number": 64, "value": 127}, "group": "control_change"}, {"time": 2713, "annotation": {"number": 64, "value": 0}, "group": "control_change"}, {"time": 2717, "annotation": {"number": 64, "value": 127}, "group": "control_change"}, {"time": 2738, "annotation": {"number": 64, "value": 0}, "group": "control_change"}, {"time": 2741, "annotation": {"number": 64, "value": 127}, "group": "control_change"}, {"time": 2762, "annotation": {"number": 64, "value": 0}, "group": "control_change"}, {"time": 2763, "annotation": {"number": 64, "value": 127}, "group": "control_change"}, {"time": 2786, "annotation": {"number": 64, "value": 0}, "group": "control_change"}, {"time": 2787, "annotation": {"number": 64, "value": 127}, "group": "control_change"}, {"time": 2798, "annotation": {"number": 64, "value": 0}, "group": "control_change"}, {"time": 2800, "annotation": {"number": 64, "value": 127}, "group": "control_change"}, {"time": 2810, "annotation": {"number": 64, "value": 0}, "group": "control_change"}, {"time": 2812, "annotation": {"number": 64, "value": 127}, "group": "control_change"}, {"time": 2857, "annotation": {"number": 64, "value": 0}, "group": "control_change"}, {"time": 2859, "annotation": {"number": 64, "value": 127}, "group": "control_change"}, {"time": 2881, "annotation": {"number": 64, "value": 0}, "group": "control_change"}, {"time": 2883, "annotation": {"number": 64, "value": 127}, "group": "control_change"}, {"time": 2905, "annotation": {"number": 64, "value": 0}, "group": "control_change"}, {"time": 2908, "annotation": {"number": 64, "value": 127}, "group": "control_change"}, {"time": 2953, "annotation": {"number": 64, "value": 0}, "group": "control_change"}, {"time": 2955, "annotation": {"number": 64, "value": 127}, "group": "control_change"}, {"time": 2988, "annotation": {"number": 64, "value": 0}, "group": "control_change"}, {"time": 2990, "annotation": {"number": 64, "value": 127}, "group": "control_change"}, {"time": 2999, "annotation": {"number": 64, "value": 0}, "group": "control_change"}, {"time": 3003, "annotation": {"number": 64, "value": 0}, "group": "control_change"}, {"time": 3007, "annotation": {"number": 64, "value": 127}, "group": "control_change"}, {"time": 3027, "annotation": {"number": 64, "value": 0}, "group": "control_change"}, {"time": 3031, "annotation": {"number": 64, "value": 127}, "group": "control_change"}, {"time": 3048, "annotation": {"number": 64, "value": 0}, "group": "control_change"}, {"time": 3053, "annotation": {"number": 64, "value": 127}, "group": "control_change"}, {"time": 3073, "annotation": {"number": 64, "value": 0}, "group": "control_change"}, {"time": 3074, "annotation": {"number": 64, "value": 127}, "group": "control_change"}, {"time": 3084, "annotation": {"number": 64, "value": 0}, "group": "control_change"}, {"time": 3087, "annotation": {"number": 64, "value": 127}, "group": "control_change"}, {"time": 3096, "annotation": {"number": 64, "value": 0}, "group": "control_change"}, {"time": 3099, "annotation": {"number": 64, "value": 127}, "group": "control_change"}, {"time": 3134, "annotation": {"number": 64, "value": 0}, "group": "control_change"}, {"time": 3135, "annotation": {"number": 64, "value": 127}, "group": "control_change"}, {"time": 3145, "annotation": {"number": 64, "value": 0}, "group": "control_change"}, {"time": 3147, "annotation": {"number": 64, "value": 127}, "group": "control_change"}, {"time": 3152, "annotation": {"number": 64, "value": 0}, "group": "control_change"}, {"time": 3158, "annotation": {"number": 64, "value": 127}, "group": "control_change"}, {"time": 3169, "annotation": {"number": 64, "value": 0}, "group": "control_change"}, {"time": 3172, "annotation": {"number": 64, "value": 127}, "group": "control_change"}, {"time": 3193, "annotation": {"number": 64, "value": 0}, "group": "control_change"}, {"time": 3197, "annotation": {"number": 64, "value": 127}, "group": "control_change"}, {"time": 3218, "annotation": {"number": 64, "value": 0}, "group": "control_change"}, {"time": 3221, "annotation": {"number": 64, "value": 127}, "group": "control_change"}, {"time": 3242, "annotation": {"number": 64, "value": 0}, "group": "control_change"}, {"time": 3243, "annotation": {"number": 64, "value": 127}, "group": "control_change"}, {"time": 3266, "annotation": {"number": 64, "value": 0}, "group": "control_change"}, {"time": 3267, "annotation": {"number": 64, "value": 127}, "group": "control_change"}, {"time": 3278, "annotation": {"number": 64, "value": 0}, "group": "control_change"}, {"time": 3280, "annotation": {"number": 64, "value": 127}, "group": "control_change"}, {"time": 3290, "annotation": {"number": 64, "value": 0}, "group": "control_change"}, {"time": 3292, "annotation": {"number": 64, "value": 127}, "group": "control_change"}, {"time": 3292, "annotation": {"number": 64, "value": 0}, "group": "control_change"}, {"time": 3338, "annotation": {"number": 64, "value": 0}, "group": "control_change"}, {"time": 3344, "annotation": {"number": 64, "value": 127}, "group": "control_change"}, {"time": 3374, "annotation": {"number": 64, "value": 0}, "group": "control_change"}, {"time": 3375, "annotation": {"number": 64, "value": 127}, "group": "control_change"}, {"time": 3385, "annotation": {"number": 64, "value": 0}, "group": "control_change"}, {"time": 3388, "annotation": {"number": 64, "value": 127}, "group": "control_change"}, {"time": 3412, "annotation": {"number": 64, "value": 0}, "group": "control_change"}, {"time": 3416, "annotation": {"number": 64, "value": 127}, "group": "control_change"}, {"time": 3436, "annotation": {"number": 64, "value": 127}, "group": "control_change"}, {"time": 3461, "annotation": {"number": 64, "value": 0}, "group": "control_change"}, {"time": 3465, "annotation": {"number": 64, "value": 127}, "group": "control_change"}, {"time": 3536, "annotation": {"number": 64, "value": 0}, "group": "control_change"}, {"time": 3539, "annotation": {"number": 64, "value": 127}, "group": "control_change"}, {"time": 3634, "annotation": {"number": 64, "value": 0}, "group": "control_change"}]}]}