{"metadata": {"schema_version": "0.2", "title": "None", "source_filename": "699.mid", "source_format": "midi"}, "resolution": 12, "tempos": [{"time": 0, "qpm": 80.0}], "time_signatures": [{"time": 0, "numerator": 1, "denominator": 4}], "tracks": [{"program": 0, "is_drum": false, "name": "MELODY", "notes": [{"time": 463, "pitch": 70, "duration": 8, "velocity": 86}, {"time": 475, "pitch": 70, "duration": 7, "velocity": 83}, {"time": 481, "pitch": 73, "duration": 5, "velocity": 87}, {"time": 487, "pitch": 68, "duration": 4, "velocity": 81}, {"time": 493, "pitch": 70, "duration": 4, "velocity": 83}, {"time": 499, "pitch": 66, "duration": 5, "velocity": 81}, {"time": 505, "pitch": 63, "duration": 4, "velocity": 81}, {"time": 511, "pitch": 61, "duration": 19, "velocity": 82}, {"time": 559, "pitch": 63, "duration": 5, "velocity": 81}, {"time": 565, "pitch": 66, "duration": 5, "velocity": 81}, {"time": 571, "pitch": 66, "duration": 5, "velocity": 82}, {"time": 577, "pitch": 63, "duration": 4, "velocity": 83}, {"time": 583, "pitch": 75, "duration": 5, "velocity": 87}, {"time": 589, "pitch": 73, "duration": 4, "velocity": 81}, {"time": 595, "pitch": 66, "duration": 5, "velocity": 82}, {"time": 601, "pitch": 70, "duration": 5, "velocity": 76}, {"time": 607, "pitch": 68, "duration": 32, "velocity": 77}, {"time": 655, "pitch": 68, "duration": 4, "velocity": 78}, {"time": 661, "pitch": 68, "duration": 4, "velocity": 80}, {"time": 667, "pitch": 68, "duration": 5, "velocity": 81}, {"time": 673, "pitch": 66, "duration": 5, "velocity": 80}, {"time": 679, "pitch": 68, "duration": 9, "velocity": 80}, {"time": 691, "pitch": 70, "duration": 4, "velocity": 80}, {"time": 697, "pitch": 73, "duration": 4, "velocity": 80}, {"time": 703, "pitch": 70, "duration": 10, "velocity": 80}, {"time": 715, "pitch": 68, "duration": 5, "velocity": 77}, {"time": 721, "pitch": 66, "duration": 5, "velocity": 78}, {"time": 727, "pitch": 63, "duration": 18, "velocity": 80}, {"time": 751, "pitch": 68, "duration": 4, "velocity": 76}, {"time": 757, "pitch": 68, "duration": 4, "velocity": 75}, {"time": 763, "pitch": 68, "duration": 4, "velocity": 77}, {"time": 769, "pitch": 70, "duration": 4, "velocity": 80}, {"time": 775, "pitch": 68, "duration": 4, "velocity": 80}, {"time": 781, "pitch": 66, "duration": 4, "velocity": 79}, {"time": 787, "pitch": 66, "duration": 5, "velocity": 79}, {"time": 793, "pitch": 63, "duration": 5, "velocity": 79}, {"time": 799, "pitch": 68, "duration": 37, "velocity": 72}, {"time": 847, "pitch": 70, "duration": 8, "velocity": 86}, {"time": 859, "pitch": 70, "duration": 7, "velocity": 83}, {"time": 865, "pitch": 73, "duration": 5, "velocity": 87}, {"time": 871, "pitch": 68, "duration": 4, "velocity": 81}, {"time": 877, "pitch": 70, "duration": 4, "velocity": 83}, {"time": 883, "pitch": 66, "duration": 5, "velocity": 81}, {"time": 889, "pitch": 63, "duration": 4, "velocity": 81}, {"time": 895, "pitch": 61, "duration": 19, "velocity": 82}, {"time": 943, "pitch": 63, "duration": 5, "velocity": 81}, {"time": 949, "pitch": 66, "duration": 5, "velocity": 81}, {"time": 955, "pitch": 66, "duration": 5, "velocity": 82}, {"time": 961, "pitch": 63, "duration": 4, "velocity": 83}, {"time": 967, "pitch": 75, "duration": 5, "velocity": 87}, {"time": 973, "pitch": 73, "duration": 4, "velocity": 81}, {"time": 979, "pitch": 66, "duration": 5, "velocity": 82}, {"time": 985, "pitch": 70, "duration": 5, "velocity": 76}, {"time": 991, "pitch": 68, "duration": 32, "velocity": 77}, {"time": 1039, "pitch": 68, "duration": 4, "velocity": 78}, {"time": 1045, "pitch": 68, "duration": 4, "velocity": 80}, {"time": 1051, "pitch": 68, "duration": 5, "velocity": 81}, {"time": 1057, "pitch": 66, "duration": 5, "velocity": 80}, {"time": 1063, "pitch": 68, "duration": 9, "velocity": 80}, {"time": 1075, "pitch": 70, "duration": 4, "velocity": 80}, {"time": 1081, "pitch": 73, "duration": 4, "velocity": 80}, {"time": 1087, "pitch": 70, "duration": 10, "velocity": 80}, {"time": 1099, "pitch": 68, "duration": 5, "velocity": 77}, {"time": 1105, "pitch": 66, "duration": 5, "velocity": 78}, {"time": 1111, "pitch": 63, "duration": 18, "velocity": 80}, {"time": 1135, "pitch": 68, "duration": 4, "velocity": 76}, {"time": 1141, "pitch": 68, "duration": 4, "velocity": 75}, {"time": 1147, "pitch": 68, "duration": 4, "velocity": 77}, {"time": 1153, "pitch": 70, "duration": 4, "velocity": 80}, {"time": 1159, "pitch": 68, "duration": 4, "velocity": 80}, {"time": 1165, "pitch": 66, "duration": 4, "velocity": 79}, {"time": 1171, "pitch": 68, "duration": 5, "velocity": 79}, {"time": 1177, "pitch": 70, "duration": 5, "velocity": 79}, {"time": 1183, "pitch": 73, "duration": 37, "velocity": 72}, {"time": 1226, "pitch": 70, "duration": 3, "velocity": 73}, {"time": 1230, "pitch": 73, "duration": 4, "velocity": 83}, {"time": 1236, "pitch": 73, "duration": 4, "velocity": 81}, {"time": 1242, "pitch": 73, "duration": 5, "velocity": 81}, {"time": 1249, "pitch": 75, "duration": 4, "velocity": 84}, {"time": 1255, "pitch": 78, "duration": 16, "velocity": 80}, {"time": 1273, "pitch": 77, "duration": 4, "velocity": 83}, {"time": 1279, "pitch": 75, "duration": 26, "velocity": 85}, {"time": 1321, "pitch": 73, "duration": 4, "velocity": 84}, {"time": 1327, "pitch": 75, "duration": 4, "velocity": 87}, {"time": 1333, "pitch": 78, "duration": 4, "velocity": 84}, {"time": 1339, "pitch": 75, "duration": 5, "velocity": 84}, {"time": 1344, "pitch": 73, "duration": 5, "velocity": 81}, {"time": 1350, "pitch": 70, "duration": 5, "velocity": 81}, {"time": 1357, "pitch": 63, "duration": 10, "velocity": 82}, {"time": 1368, "pitch": 70, "duration": 5, "velocity": 81}, {"time": 1374, "pitch": 68, "duration": 25, "velocity": 82}, {"time": 1423, "pitch": 68, "duration": 4, "velocity": 81}, {"time": 1429, "pitch": 68, "duration": 4, "velocity": 82}, {"time": 1435, "pitch": 68, "duration": 5, "velocity": 83}, {"time": 1441, "pitch": 66, "duration": 5, "velocity": 84}, {"time": 1447, "pitch": 68, "duration": 6, "velocity": 83}, {"time": 1453, "pitch": 68, "duration": 12, "velocity": 83}, {"time": 1465, "pitch": 70, "duration": 5, "velocity": 82}, {"time": 1471, "pitch": 73, "duration": 14, "velocity": 81}, {"time": 1489, "pitch": 75, "duration": 4, "velocity": 87}, {"time": 1495, "pitch": 75, "duration": 19, "velocity": 87}, {"time": 1519, "pitch": 68, "duration": 4, "velocity": 78}, {"time": 1525, "pitch": 68, "duration": 5, "velocity": 82}, {"time": 1531, "pitch": 68, "duration": 5, "velocity": 63}, {"time": 1537, "pitch": 70, "duration": 4, "velocity": 86}, {"time": 1543, "pitch": 75, "duration": 5, "velocity": 89}, {"time": 1549, "pitch": 78, "duration": 11, "velocity": 80}, {"time": 1561, "pitch": 75, "duration": 5, "velocity": 87}, {"time": 1567, "pitch": 73, "duration": 34, "velocity": 81}, {"time": 1610, "pitch": 70, "duration": 3, "velocity": 73}, {"time": 1614, "pitch": 73, "duration": 4, "velocity": 83}, {"time": 1620, "pitch": 73, "duration": 4, "velocity": 81}, {"time": 1626, "pitch": 73, "duration": 5, "velocity": 81}, {"time": 1633, "pitch": 75, "duration": 4, "velocity": 84}, {"time": 1639, "pitch": 78, "duration": 16, "velocity": 80}, {"time": 1657, "pitch": 77, "duration": 4, "velocity": 83}, {"time": 1663, "pitch": 75, "duration": 26, "velocity": 85}, {"time": 1711, "pitch": 75, "duration": 4, "velocity": 87}, {"time": 1717, "pitch": 78, "duration": 4, "velocity": 84}, {"time": 1723, "pitch": 75, "duration": 5, "velocity": 84}, {"time": 1728, "pitch": 73, "duration": 5, "velocity": 81}, {"time": 1734, "pitch": 70, "duration": 5, "velocity": 81}, {"time": 1741, "pitch": 63, "duration": 10, "velocity": 82}, {"time": 1752, "pitch": 70, "duration": 5, "velocity": 81}, {"time": 1758, "pitch": 68, "duration": 25, "velocity": 82}, {"time": 1807, "pitch": 68, "duration": 4, "velocity": 81}, {"time": 1813, "pitch": 68, "duration": 4, "velocity": 82}, {"time": 1819, "pitch": 68, "duration": 5, "velocity": 83}, {"time": 1825, "pitch": 66, "duration": 5, "velocity": 84}, {"time": 1831, "pitch": 68, "duration": 6, "velocity": 83}, {"time": 1837, "pitch": 68, "duration": 12, "velocity": 83}, {"time": 1849, "pitch": 70, "duration": 5, "velocity": 82}, {"time": 1855, "pitch": 73, "duration": 14, "velocity": 81}, {"time": 1873, "pitch": 75, "duration": 4, "velocity": 87}, {"time": 1879, "pitch": 75, "duration": 19, "velocity": 87}, {"time": 1903, "pitch": 68, "duration": 4, "velocity": 78}, {"time": 1909, "pitch": 68, "duration": 5, "velocity": 82}, {"time": 1915, "pitch": 68, "duration": 5, "velocity": 63}, {"time": 1921, "pitch": 70, "duration": 4, "velocity": 86}, {"time": 1927, "pitch": 75, "duration": 5, "velocity": 89}, {"time": 1933, "pitch": 78, "duration": 11, "velocity": 80}, {"time": 1945, "pitch": 75, "duration": 5, "velocity": 87}, {"time": 1951, "pitch": 73, "duration": 34, "velocity": 81}, {"time": 1999, "pitch": 68, "duration": 4, "velocity": 82}, {"time": 2005, "pitch": 68, "duration": 4, "velocity": 83}, {"time": 2011, "pitch": 68, "duration": 4, "velocity": 83}, {"time": 2017, "pitch": 70, "duration": 4, "velocity": 82}, {"time": 2023, "pitch": 73, "duration": 4, "velocity": 83}, {"time": 2029, "pitch": 75, "duration": 9, "velocity": 89}, {"time": 2041, "pitch": 70, "duration": 2, "velocity": 81}, {"time": 2044, "pitch": 68, "duration": 2, "velocity": 71}, {"time": 2047, "pitch": 66, "duration": 37, "velocity": 81}, {"time": 2479, "pitch": 70, "duration": 8, "velocity": 86}, {"time": 2491, "pitch": 70, "duration": 7, "velocity": 83}, {"time": 2497, "pitch": 73, "duration": 5, "velocity": 87}, {"time": 2503, "pitch": 68, "duration": 4, "velocity": 81}, {"time": 2509, "pitch": 70, "duration": 4, "velocity": 83}, {"time": 2515, "pitch": 66, "duration": 5, "velocity": 81}, {"time": 2521, "pitch": 63, "duration": 4, "velocity": 81}, {"time": 2527, "pitch": 61, "duration": 19, "velocity": 82}, {"time": 2575, "pitch": 63, "duration": 5, "velocity": 81}, {"time": 2581, "pitch": 66, "duration": 5, "velocity": 81}, {"time": 2587, "pitch": 66, "duration": 5, "velocity": 82}, {"time": 2593, "pitch": 63, "duration": 4, "velocity": 83}, {"time": 2599, "pitch": 75, "duration": 5, "velocity": 87}, {"time": 2605, "pitch": 73, "duration": 4, "velocity": 81}, {"time": 2611, "pitch": 66, "duration": 5, "velocity": 82}, {"time": 2617, "pitch": 70, "duration": 5, "velocity": 76}, {"time": 2623, "pitch": 68, "duration": 32, "velocity": 77}, {"time": 2671, "pitch": 68, "duration": 4, "velocity": 78}, {"time": 2677, "pitch": 68, "duration": 4, "velocity": 80}, {"time": 2683, "pitch": 68, "duration": 5, "velocity": 81}, {"time": 2689, "pitch": 66, "duration": 5, "velocity": 80}, {"time": 2695, "pitch": 68, "duration": 9, "velocity": 80}, {"time": 2707, "pitch": 70, "duration": 4, "velocity": 80}, {"time": 2713, "pitch": 73, "duration": 4, "velocity": 80}, {"time": 2719, "pitch": 70, "duration": 10, "velocity": 80}, {"time": 2731, "pitch": 68, "duration": 5, "velocity": 77}, {"time": 2737, "pitch": 66, "duration": 5, "velocity": 78}, {"time": 2743, "pitch": 63, "duration": 18, "velocity": 80}, {"time": 2767, "pitch": 68, "duration": 4, "velocity": 76}, {"time": 2773, "pitch": 68, "duration": 4, "velocity": 75}, {"time": 2779, "pitch": 68, "duration": 4, "velocity": 77}, {"time": 2785, "pitch": 70, "duration": 4, "velocity": 80}, {"time": 2791, "pitch": 68, "duration": 4, "velocity": 80}, {"time": 2797, "pitch": 66, "duration": 4, "velocity": 79}, {"time": 2803, "pitch": 68, "duration": 5, "velocity": 79}, {"time": 2809, "pitch": 70, "duration": 5, "velocity": 79}, {"time": 2815, "pitch": 73, "duration": 37, "velocity": 72}, {"time": 2858, "pitch": 70, "duration": 3, "velocity": 73}, {"time": 2862, "pitch": 73, "duration": 4, "velocity": 83}, {"time": 2868, "pitch": 73, "duration": 4, "velocity": 81}, {"time": 2874, "pitch": 73, "duration": 5, "velocity": 81}, {"time": 2881, "pitch": 75, "duration": 4, "velocity": 84}, {"time": 2887, "pitch": 78, "duration": 16, "velocity": 80}, {"time": 2905, "pitch": 77, "duration": 4, "velocity": 83}, {"time": 2911, "pitch": 75, "duration": 26, "velocity": 85}, {"time": 2953, "pitch": 73, "duration": 4, "velocity": 84}, {"time": 2959, "pitch": 75, "duration": 4, "velocity": 87}, {"time": 2965, "pitch": 78, "duration": 4, "velocity": 84}, {"time": 2971, "pitch": 75, "duration": 5, "velocity": 84}, {"time": 2976, "pitch": 73, "duration": 5, "velocity": 81}, {"time": 2982, "pitch": 70, "duration": 5, "velocity": 81}, {"time": 2989, "pitch": 63, "duration": 10, "velocity": 82}, {"time": 3000, "pitch": 70, "duration": 5, "velocity": 81}, {"time": 3006, "pitch": 68, "duration": 25, "velocity": 82}, {"time": 3055, "pitch": 68, "duration": 4, "velocity": 81}, {"time": 3061, "pitch": 68, "duration": 4, "velocity": 82}, {"time": 3067, "pitch": 68, "duration": 5, "velocity": 83}, {"time": 3073, "pitch": 66, "duration": 5, "velocity": 84}, {"time": 3079, "pitch": 68, "duration": 6, "velocity": 83}, {"time": 3085, "pitch": 68, "duration": 12, "velocity": 83}, {"time": 3097, "pitch": 70, "duration": 5, "velocity": 82}, {"time": 3103, "pitch": 73, "duration": 14, "velocity": 81}, {"time": 3121, "pitch": 75, "duration": 4, "velocity": 87}, {"time": 3127, "pitch": 75, "duration": 19, "velocity": 87}, {"time": 3151, "pitch": 68, "duration": 4, "velocity": 78}, {"time": 3157, "pitch": 68, "duration": 5, "velocity": 82}, {"time": 3163, "pitch": 68, "duration": 5, "velocity": 63}, {"time": 3169, "pitch": 70, "duration": 4, "velocity": 86}, {"time": 3175, "pitch": 75, "duration": 5, "velocity": 89}, {"time": 3181, "pitch": 78, "duration": 11, "velocity": 80}, {"time": 3193, "pitch": 75, "duration": 5, "velocity": 87}, {"time": 3199, "pitch": 73, "duration": 34, "velocity": 81}, {"time": 3242, "pitch": 70, "duration": 3, "velocity": 73}, {"time": 3246, "pitch": 73, "duration": 4, "velocity": 83}, {"time": 3252, "pitch": 73, "duration": 4, "velocity": 81}, {"time": 3258, "pitch": 73, "duration": 5, "velocity": 81}, {"time": 3265, "pitch": 75, "duration": 4, "velocity": 84}, {"time": 3271, "pitch": 78, "duration": 16, "velocity": 80}, {"time": 3289, "pitch": 77, "duration": 4, "velocity": 83}, {"time": 3295, "pitch": 75, "duration": 26, "velocity": 85}, {"time": 3343, "pitch": 75, "duration": 4, "velocity": 87}, {"time": 3349, "pitch": 78, "duration": 4, "velocity": 84}, {"time": 3355, "pitch": 75, "duration": 5, "velocity": 84}, {"time": 3360, "pitch": 73, "duration": 5, "velocity": 81}, {"time": 3366, "pitch": 70, "duration": 5, "velocity": 81}, {"time": 3373, "pitch": 63, "duration": 10, "velocity": 82}, {"time": 3384, "pitch": 70, "duration": 5, "velocity": 81}, {"time": 3390, "pitch": 68, "duration": 25, "velocity": 82}, {"time": 3439, "pitch": 68, "duration": 4, "velocity": 81}, {"time": 3445, "pitch": 68, "duration": 4, "velocity": 82}, {"time": 3451, "pitch": 68, "duration": 5, "velocity": 83}, {"time": 3457, "pitch": 66, "duration": 5, "velocity": 84}, {"time": 3463, "pitch": 68, "duration": 6, "velocity": 83}, {"time": 3469, "pitch": 68, "duration": 12, "velocity": 83}, {"time": 3481, "pitch": 70, "duration": 5, "velocity": 82}, {"time": 3487, "pitch": 73, "duration": 14, "velocity": 81}, {"time": 3505, "pitch": 75, "duration": 4, "velocity": 87}, {"time": 3511, "pitch": 75, "duration": 19, "velocity": 87}, {"time": 3535, "pitch": 68, "duration": 4, "velocity": 78}, {"time": 3541, "pitch": 68, "duration": 5, "velocity": 82}, {"time": 3547, "pitch": 68, "duration": 5, "velocity": 63}, {"time": 3553, "pitch": 70, "duration": 4, "velocity": 86}, {"time": 3559, "pitch": 75, "duration": 5, "velocity": 89}, {"time": 3565, "pitch": 78, "duration": 11, "velocity": 80}, {"time": 3577, "pitch": 75, "duration": 5, "velocity": 87}, {"time": 3583, "pitch": 73, "duration": 34, "velocity": 81}, {"time": 3631, "pitch": 68, "duration": 4, "velocity": 82}, {"time": 3637, "pitch": 68, "duration": 4, "velocity": 83}, {"time": 3643, "pitch": 68, "duration": 4, "velocity": 83}, {"time": 3649, "pitch": 70, "duration": 4, "velocity": 82}, {"time": 3655, "pitch": 73, "duration": 4, "velocity": 83}, {"time": 3661, "pitch": 75, "duration": 9, "velocity": 89}, {"time": 3673, "pitch": 70, "duration": 2, "velocity": 81}, {"time": 3676, "pitch": 68, "duration": 2, "velocity": 71}, {"time": 3679, "pitch": 66, "duration": 37, "velocity": 81}, {"time": 3722, "pitch": 70, "duration": 3, "velocity": 73}, {"time": 3726, "pitch": 73, "duration": 4, "velocity": 83}, {"time": 3732, "pitch": 73, "duration": 4, "velocity": 81}, {"time": 3738, "pitch": 73, "duration": 5, "velocity": 81}, {"time": 3745, "pitch": 75, "duration": 4, "velocity": 84}, {"time": 3751, "pitch": 78, "duration": 16, "velocity": 80}, {"time": 3769, "pitch": 77, "duration": 4, "velocity": 83}, {"time": 3775, "pitch": 75, "duration": 26, "velocity": 85}, {"time": 3817, "pitch": 73, "duration": 4, "velocity": 84}, {"time": 3823, "pitch": 75, "duration": 4, "velocity": 87}, {"time": 3829, "pitch": 78, "duration": 4, "velocity": 84}, {"time": 3835, "pitch": 75, "duration": 5, "velocity": 84}, {"time": 3840, "pitch": 73, "duration": 5, "velocity": 81}, {"time": 3846, "pitch": 70, "duration": 5, "velocity": 81}, {"time": 3853, "pitch": 63, "duration": 10, "velocity": 82}, {"time": 3864, "pitch": 70, "duration": 5, "velocity": 81}, {"time": 3870, "pitch": 68, "duration": 25, "velocity": 82}, {"time": 3919, "pitch": 68, "duration": 4, "velocity": 81}, {"time": 3925, "pitch": 68, "duration": 4, "velocity": 82}, {"time": 3931, "pitch": 68, "duration": 5, "velocity": 83}, {"time": 3937, "pitch": 66, "duration": 5, "velocity": 84}, {"time": 3943, "pitch": 68, "duration": 6, "velocity": 83}, {"time": 3949, "pitch": 68, "duration": 12, "velocity": 83}, {"time": 3961, "pitch": 70, "duration": 5, "velocity": 82}, {"time": 3967, "pitch": 73, "duration": 14, "velocity": 81}, {"time": 3985, "pitch": 75, "duration": 4, "velocity": 87}, {"time": 3991, "pitch": 75, "duration": 19, "velocity": 87}, {"time": 4015, "pitch": 68, "duration": 4, "velocity": 78}, {"time": 4021, "pitch": 68, "duration": 5, "velocity": 82}, {"time": 4027, "pitch": 68, "duration": 5, "velocity": 63}, {"time": 4033, "pitch": 70, "duration": 4, "velocity": 86}, {"time": 4039, "pitch": 75, "duration": 5, "velocity": 89}, {"time": 4045, "pitch": 78, "duration": 11, "velocity": 80}, {"time": 4057, "pitch": 75, "duration": 5, "velocity": 87}, {"time": 4063, "pitch": 73, "duration": 34, "velocity": 81}, {"time": 4106, "pitch": 70, "duration": 3, "velocity": 73}, {"time": 4110, "pitch": 73, "duration": 4, "velocity": 83}, {"time": 4116, "pitch": 73, "duration": 4, "velocity": 81}, {"time": 4122, "pitch": 73, "duration": 5, "velocity": 81}, {"time": 4129, "pitch": 75, "duration": 4, "velocity": 84}, {"time": 4135, "pitch": 78, "duration": 16, "velocity": 80}, {"time": 4153, "pitch": 77, "duration": 4, "velocity": 83}, {"time": 4159, "pitch": 75, "duration": 26, "velocity": 85}, {"time": 4207, "pitch": 75, "duration": 4, "velocity": 87}, {"time": 4213, "pitch": 78, "duration": 4, "velocity": 84}, {"time": 4219, "pitch": 75, "duration": 5, "velocity": 84}, {"time": 4224, "pitch": 73, "duration": 5, "velocity": 81}, {"time": 4230, "pitch": 70, "duration": 5, "velocity": 81}, {"time": 4237, "pitch": 63, "duration": 10, "velocity": 82}, {"time": 4248, "pitch": 70, "duration": 5, "velocity": 81}, {"time": 4254, "pitch": 68, "duration": 25, "velocity": 82}, {"time": 4303, "pitch": 68, "duration": 4, "velocity": 81}, {"time": 4309, "pitch": 68, "duration": 4, "velocity": 82}, {"time": 4315, "pitch": 68, "duration": 5, "velocity": 83}, {"time": 4321, "pitch": 66, "duration": 5, "velocity": 84}, {"time": 4327, "pitch": 68, "duration": 6, "velocity": 83}, {"time": 4333, "pitch": 68, "duration": 12, "velocity": 83}, {"time": 4345, "pitch": 70, "duration": 5, "velocity": 82}, {"time": 4351, "pitch": 73, "duration": 14, "velocity": 81}, {"time": 4369, "pitch": 75, "duration": 4, "velocity": 87}, {"time": 4375, "pitch": 75, "duration": 19, "velocity": 87}, {"time": 4399, "pitch": 68, "duration": 4, "velocity": 78}, {"time": 4405, "pitch": 68, "duration": 5, "velocity": 82}, {"time": 4411, "pitch": 68, "duration": 5, "velocity": 63}, {"time": 4417, "pitch": 70, "duration": 4, "velocity": 86}, {"time": 4423, "pitch": 75, "duration": 5, "velocity": 89}, {"time": 4429, "pitch": 78, "duration": 11, "velocity": 80}, {"time": 4441, "pitch": 75, "duration": 5, "velocity": 87}, {"time": 4447, "pitch": 73, "duration": 34, "velocity": 81}, {"time": 4495, "pitch": 68, "duration": 5, "velocity": 80}, {"time": 4501, "pitch": 68, "duration": 6, "velocity": 81}, {"time": 4509, "pitch": 68, "duration": 5, "velocity": 82}, {"time": 4515, "pitch": 70, "duration": 10, "velocity": 85}, {"time": 4524, "pitch": 73, "duration": 11, "velocity": 85}, {"time": 4534, "pitch": 75, "duration": 12, "velocity": 85}, {"time": 4546, "pitch": 70, "duration": 10, "velocity": 82}, {"time": 4556, "pitch": 68, "duration": 9, "velocity": 75}, {"time": 4567, "pitch": 66, "duration": 39, "velocity": 81}]}, {"program": 0, "is_drum": false, "name": "BRIDGE", "notes": [{"time": 79, "pitch": 82, "duration": 5, "velocity": 85}, {"time": 85, "pitch": 80, "duration": 2, "velocity": 81}, {"time": 87, "pitch": 82, "duration": 10, "velocity": 79}, {"time": 97, "pitch": 85, "duration": 7, "velocity": 89}, {"time": 103, "pitch": 80, "duration": 6, "velocity": 75}, {"time": 108, "pitch": 82, "duration": 6, "velocity": 84}, {"time": 115, "pitch": 78, "duration": 6, "velocity": 85}, {"time": 120, "pitch": 75, "duration": 7, "velocity": 91}, {"time": 127, "pitch": 73, "duration": 44, "velocity": 82}, {"time": 175, "pitch": 85, "duration": 6, "velocity": 94}, {"time": 181, "pitch": 87, "duration": 11, "velocity": 82}, {"time": 193, "pitch": 85, "duration": 1, "velocity": 80}, {"time": 194, "pitch": 87, "duration": 3, "velocity": 81}, {"time": 199, "pitch": 87, "duration": 6, "velocity": 84}, {"time": 205, "pitch": 85, "duration": 4, "velocity": 89}, {"time": 211, "pitch": 85, "duration": 4, "velocity": 91}, {"time": 217, "pitch": 80, "duration": 3, "velocity": 80}, {"time": 220, "pitch": 82, "duration": 3, "velocity": 67}, {"time": 223, "pitch": 80, "duration": 27, "velocity": 85}, {"time": 252, "pitch": 80, "duration": 7, "velocity": 84}, {"time": 258, "pitch": 82, "duration": 7, "velocity": 86}, {"time": 265, "pitch": 83, "duration": 6, "velocity": 81}, {"time": 271, "pitch": 85, "duration": 29, "velocity": 87}, {"time": 301, "pitch": 82, "duration": 6, "velocity": 89}, {"time": 307, "pitch": 90, "duration": 6, "velocity": 91}, {"time": 313, "pitch": 89, "duration": 6, "velocity": 86}, {"time": 319, "pitch": 87, "duration": 30, "velocity": 84}, {"time": 354, "pitch": 85, "duration": 7, "velocity": 91}, {"time": 355, "pitch": 70, "duration": 12, "velocity": 72}, {"time": 361, "pitch": 87, "duration": 5, "velocity": 84}, {"time": 367, "pitch": 68, "duration": 24, "velocity": 75}, {"time": 367, "pitch": 80, "duration": 17, "velocity": 84}, {"time": 385, "pitch": 78, "duration": 6, "velocity": 84}, {"time": 391, "pitch": 82, "duration": 6, "velocity": 86}, {"time": 397, "pitch": 85, "duration": 5, "velocity": 91}, {"time": 402, "pitch": 80, "duration": 7, "velocity": 84}, {"time": 402, "pitch": 61, "duration": 14, "velocity": 79}, {"time": 408, "pitch": 78, "duration": 6, "velocity": 84}, {"time": 415, "pitch": 78, "duration": 45, "velocity": 86}, {"time": 415, "pitch": 66, "duration": 43, "velocity": 72}, {"time": 541, "pitch": 70, "duration": 6, "velocity": 82}, {"time": 547, "pitch": 68, "duration": 6, "velocity": 81}, {"time": 553, "pitch": 66, "duration": 6, "velocity": 81}, {"time": 559, "pitch": 63, "duration": 30, "velocity": 79}, {"time": 828, "pitch": 82, "duration": 3, "velocity": 87}, {"time": 831, "pitch": 85, "duration": 3, "velocity": 94}, {"time": 834, "pitch": 82, "duration": 3, "velocity": 84}, {"time": 837, "pitch": 85, "duration": 2, "velocity": 85}, {"time": 839, "pitch": 82, "duration": 1, "velocity": 76}, {"time": 840, "pitch": 80, "duration": 7, "velocity": 74}, {"time": 847, "pitch": 82, "duration": 46, "velocity": 86}, {"time": 913, "pitch": 77, "duration": 4, "velocity": 87}, {"time": 919, "pitch": 73, "duration": 10, "velocity": 86}, {"time": 931, "pitch": 70, "duration": 6, "velocity": 82}, {"time": 937, "pitch": 68, "duration": 5, "velocity": 71}, {"time": 943, "pitch": 66, "duration": 23, "velocity": 77}, {"time": 1015, "pitch": 68, "duration": 12, "velocity": 79}, {"time": 1027, "pitch": 70, "duration": 12, "velocity": 82}, {"time": 1038, "pitch": 71, "duration": 45, "velocity": 81}, {"time": 1087, "pitch": 73, "duration": 22, "velocity": 76}, {"time": 1087, "pitch": 70, "duration": 21, "velocity": 71}, {"time": 1111, "pitch": 70, "duration": 14, "velocity": 80}, {"time": 1124, "pitch": 68, "duration": 6, "velocity": 69}, {"time": 1129, "pitch": 66, "duration": 6, "velocity": 74}, {"time": 1135, "pitch": 68, "duration": 44, "velocity": 76}, {"time": 1183, "pitch": 65, "duration": 16, "velocity": 75}, {"time": 1183, "pitch": 61, "duration": 16, "velocity": 72}, {"time": 1201, "pitch": 66, "duration": 5, "velocity": 84}, {"time": 1207, "pitch": 63, "duration": 6, "velocity": 84}, {"time": 1213, "pitch": 65, "duration": 5, "velocity": 91}, {"time": 1218, "pitch": 66, "duration": 7, "velocity": 83}, {"time": 1225, "pitch": 68, "duration": 5, "velocity": 82}, {"time": 1231, "pitch": 66, "duration": 37, "velocity": 76}, {"time": 1231, "pitch": 70, "duration": 37, "velocity": 76}, {"time": 1267, "pitch": 73, "duration": 13, "velocity": 80}, {"time": 1280, "pitch": 75, "duration": 46, "velocity": 76}, {"time": 1326, "pitch": 75, "duration": 29, "velocity": 84}, {"time": 1356, "pitch": 73, "duration": 6, "velocity": 79}, {"time": 1362, "pitch": 70, "duration": 7, "velocity": 82}, {"time": 1368, "pitch": 73, "duration": 6, "velocity": 81}, {"time": 1374, "pitch": 68, "duration": 44, "velocity": 76}, {"time": 1393, "pitch": 85, "duration": 5, "velocity": 86}, {"time": 1399, "pitch": 82, "duration": 12, "velocity": 81}, {"time": 1411, "pitch": 80, "duration": 6, "velocity": 78}, {"time": 1416, "pitch": 78, "duration": 7, "velocity": 83}, {"time": 1423, "pitch": 68, "duration": 36, "velocity": 79}, {"time": 1423, "pitch": 80, "duration": 33, "velocity": 81}, {"time": 1459, "pitch": 75, "duration": 11, "velocity": 84}, {"time": 1470, "pitch": 73, "duration": 23, "velocity": 75}, {"time": 1471, "pitch": 70, "duration": 23, "velocity": 72}, {"time": 1494, "pitch": 75, "duration": 13, "velocity": 84}, {"time": 1507, "pitch": 73, "duration": 6, "velocity": 76}, {"time": 1512, "pitch": 70, "duration": 7, "velocity": 79}, {"time": 1518, "pitch": 68, "duration": 37, "velocity": 75}, {"time": 1554, "pitch": 66, "duration": 6, "velocity": 76}, {"time": 1560, "pitch": 63, "duration": 7, "velocity": 81}, {"time": 1567, "pitch": 61, "duration": 47, "velocity": 80}, {"time": 1597, "pitch": 85, "duration": 5, "velocity": 89}, {"time": 1603, "pitch": 82, "duration": 5, "velocity": 84}, {"time": 1609, "pitch": 80, "duration": 6, "velocity": 82}, {"time": 1615, "pitch": 78, "duration": 41, "velocity": 89}, {"time": 1615, "pitch": 70, "duration": 35, "velocity": 81}, {"time": 1651, "pitch": 68, "duration": 12, "velocity": 71}, {"time": 1651, "pitch": 65, "duration": 10, "velocity": 77}, {"time": 1662, "pitch": 66, "duration": 38, "velocity": 81}, {"time": 1699, "pitch": 65, "duration": 7, "velocity": 73}, {"time": 1705, "pitch": 66, "duration": 6, "velocity": 78}, {"time": 1711, "pitch": 63, "duration": 30, "velocity": 77}, {"time": 1740, "pitch": 75, "duration": 7, "velocity": 83}, {"time": 1746, "pitch": 73, "duration": 7, "velocity": 80}, {"time": 1752, "pitch": 70, "duration": 6, "velocity": 79}, {"time": 1758, "pitch": 68, "duration": 45, "velocity": 76}, {"time": 1807, "pitch": 68, "duration": 22, "velocity": 75}, {"time": 1843, "pitch": 73, "duration": 11, "velocity": 78}, {"time": 1854, "pitch": 70, "duration": 19, "velocity": 74}, {"time": 1872, "pitch": 68, "duration": 6, "velocity": 71}, {"time": 1878, "pitch": 66, "duration": 21, "velocity": 78}, {"time": 1903, "pitch": 68, "duration": 44, "velocity": 74}, {"time": 1903, "pitch": 63, "duration": 26, "velocity": 78}, {"time": 1950, "pitch": 61, "duration": 22, "velocity": 74}, {"time": 1950, "pitch": 65, "duration": 23, "velocity": 81}, {"time": 1987, "pitch": 65, "duration": 6, "velocity": 80}, {"time": 1993, "pitch": 66, "duration": 6, "velocity": 84}, {"time": 1999, "pitch": 68, "duration": 11, "velocity": 75}, {"time": 2023, "pitch": 73, "duration": 5, "velocity": 72}, {"time": 2028, "pitch": 70, "duration": 7, "velocity": 74}, {"time": 2034, "pitch": 68, "duration": 10, "velocity": 69}, {"time": 2047, "pitch": 61, "duration": 31, "velocity": 65}, {"time": 2047, "pitch": 66, "duration": 36, "velocity": 67}, {"time": 2095, "pitch": 70, "duration": 4, "velocity": 96}, {"time": 2101, "pitch": 70, "duration": 9, "velocity": 94}, {"time": 2112, "pitch": 73, "duration": 4, "velocity": 89}, {"time": 2118, "pitch": 68, "duration": 5, "velocity": 91}, {"time": 2125, "pitch": 68, "duration": 2, "velocity": 87}, {"time": 2127, "pitch": 70, "duration": 3, "velocity": 82}, {"time": 2130, "pitch": 66, "duration": 6, "velocity": 91}, {"time": 2136, "pitch": 63, "duration": 6, "velocity": 87}, {"time": 2143, "pitch": 61, "duration": 36, "velocity": 94}, {"time": 2179, "pitch": 70, "duration": 5, "velocity": 96}, {"time": 2184, "pitch": 73, "duration": 5, "velocity": 89}, {"time": 2191, "pitch": 75, "duration": 4, "velocity": 91}, {"time": 2197, "pitch": 75, "duration": 10, "velocity": 94}, {"time": 2208, "pitch": 78, "duration": 5, "velocity": 82}, {"time": 2214, "pitch": 75, "duration": 6, "velocity": 91}, {"time": 2220, "pitch": 73, "duration": 4, "velocity": 81}, {"time": 2226, "pitch": 73, "duration": 6, "velocity": 87}, {"time": 2233, "pitch": 70, "duration": 4, "velocity": 82}, {"time": 2239, "pitch": 68, "duration": 34, "velocity": 84}, {"time": 2275, "pitch": 68, "duration": 6, "velocity": 87}, {"time": 2280, "pitch": 70, "duration": 12, "velocity": 87}, {"time": 2292, "pitch": 73, "duration": 14, "velocity": 84}, {"time": 2305, "pitch": 75, "duration": 5, "velocity": 89}, {"time": 2310, "pitch": 73, "duration": 13, "velocity": 83}, {"time": 2322, "pitch": 75, "duration": 6, "velocity": 96}, {"time": 2328, "pitch": 73, "duration": 6, "velocity": 91}, {"time": 2335, "pitch": 70, "duration": 8, "velocity": 86}, {"time": 2344, "pitch": 73, "duration": 3, "velocity": 87}, {"time": 2347, "pitch": 70, "duration": 5, "velocity": 86}, {"time": 2353, "pitch": 68, "duration": 6, "velocity": 84}, {"time": 2358, "pitch": 66, "duration": 16, "velocity": 86}, {"time": 2377, "pitch": 73, "duration": 3, "velocity": 91}, {"time": 2380, "pitch": 75, "duration": 3, "velocity": 89}, {"time": 2383, "pitch": 68, "duration": 18, "velocity": 86}, {"time": 2400, "pitch": 66, "duration": 7, "velocity": 81}, {"time": 2406, "pitch": 68, "duration": 6, "velocity": 85}, {"time": 2412, "pitch": 73, "duration": 7, "velocity": 82}, {"time": 2418, "pitch": 70, "duration": 7, "velocity": 82}, {"time": 2424, "pitch": 68, "duration": 7, "velocity": 81}, {"time": 2431, "pitch": 66, "duration": 38, "velocity": 85}, {"time": 2479, "pitch": 82, "duration": 46, "velocity": 86}, {"time": 2545, "pitch": 77, "duration": 4, "velocity": 87}, {"time": 2551, "pitch": 73, "duration": 10, "velocity": 86}, {"time": 2563, "pitch": 70, "duration": 6, "velocity": 82}, {"time": 2569, "pitch": 68, "duration": 5, "velocity": 71}, {"time": 2575, "pitch": 66, "duration": 23, "velocity": 77}, {"time": 2647, "pitch": 68, "duration": 12, "velocity": 79}, {"time": 2659, "pitch": 70, "duration": 12, "velocity": 82}, {"time": 2670, "pitch": 71, "duration": 45, "velocity": 81}, {"time": 2719, "pitch": 73, "duration": 22, "velocity": 76}, {"time": 2719, "pitch": 70, "duration": 21, "velocity": 71}, {"time": 2743, "pitch": 70, "duration": 14, "velocity": 80}, {"time": 2756, "pitch": 68, "duration": 6, "velocity": 69}, {"time": 2761, "pitch": 66, "duration": 6, "velocity": 74}, {"time": 2767, "pitch": 68, "duration": 44, "velocity": 76}, {"time": 2815, "pitch": 65, "duration": 16, "velocity": 75}, {"time": 2815, "pitch": 61, "duration": 16, "velocity": 72}, {"time": 2833, "pitch": 66, "duration": 5, "velocity": 84}, {"time": 2839, "pitch": 63, "duration": 6, "velocity": 84}, {"time": 2845, "pitch": 65, "duration": 5, "velocity": 91}, {"time": 2850, "pitch": 66, "duration": 7, "velocity": 83}, {"time": 2857, "pitch": 68, "duration": 5, "velocity": 82}, {"time": 2863, "pitch": 66, "duration": 37, "velocity": 76}, {"time": 2863, "pitch": 70, "duration": 37, "velocity": 76}, {"time": 2899, "pitch": 73, "duration": 13, "velocity": 80}, {"time": 2912, "pitch": 75, "duration": 46, "velocity": 76}, {"time": 2958, "pitch": 75, "duration": 29, "velocity": 84}, {"time": 2988, "pitch": 73, "duration": 6, "velocity": 79}, {"time": 2994, "pitch": 70, "duration": 7, "velocity": 82}, {"time": 3000, "pitch": 73, "duration": 6, "velocity": 81}, {"time": 3006, "pitch": 68, "duration": 44, "velocity": 76}, {"time": 3025, "pitch": 85, "duration": 5, "velocity": 86}, {"time": 3031, "pitch": 82, "duration": 12, "velocity": 81}, {"time": 3043, "pitch": 80, "duration": 6, "velocity": 78}, {"time": 3048, "pitch": 78, "duration": 7, "velocity": 83}, {"time": 3055, "pitch": 68, "duration": 36, "velocity": 79}, {"time": 3055, "pitch": 80, "duration": 33, "velocity": 81}, {"time": 3091, "pitch": 75, "duration": 11, "velocity": 84}, {"time": 3102, "pitch": 73, "duration": 23, "velocity": 75}, {"time": 3103, "pitch": 70, "duration": 23, "velocity": 72}, {"time": 3126, "pitch": 75, "duration": 13, "velocity": 84}, {"time": 3139, "pitch": 73, "duration": 6, "velocity": 76}, {"time": 3144, "pitch": 70, "duration": 7, "velocity": 79}, {"time": 3150, "pitch": 68, "duration": 37, "velocity": 75}, {"time": 3186, "pitch": 66, "duration": 6, "velocity": 76}, {"time": 3192, "pitch": 63, "duration": 7, "velocity": 81}, {"time": 3199, "pitch": 61, "duration": 47, "velocity": 80}, {"time": 3229, "pitch": 85, "duration": 6, "velocity": 89}, {"time": 3235, "pitch": 82, "duration": 6, "velocity": 84}, {"time": 3241, "pitch": 80, "duration": 7, "velocity": 82}, {"time": 3247, "pitch": 70, "duration": 36, "velocity": 81}, {"time": 3247, "pitch": 78, "duration": 42, "velocity": 89}, {"time": 3283, "pitch": 68, "duration": 12, "velocity": 71}, {"time": 3283, "pitch": 65, "duration": 10, "velocity": 77}, {"time": 3294, "pitch": 66, "duration": 38, "velocity": 81}, {"time": 3331, "pitch": 65, "duration": 7, "velocity": 73}, {"time": 3337, "pitch": 66, "duration": 6, "velocity": 78}, {"time": 3343, "pitch": 63, "duration": 30, "velocity": 77}, {"time": 3372, "pitch": 75, "duration": 7, "velocity": 83}, {"time": 3378, "pitch": 73, "duration": 7, "velocity": 80}, {"time": 3384, "pitch": 70, "duration": 6, "velocity": 79}, {"time": 3390, "pitch": 68, "duration": 45, "velocity": 76}, {"time": 3439, "pitch": 68, "duration": 22, "velocity": 75}, {"time": 3475, "pitch": 73, "duration": 11, "velocity": 78}, {"time": 3486, "pitch": 70, "duration": 19, "velocity": 74}, {"time": 3504, "pitch": 68, "duration": 6, "velocity": 71}, {"time": 3510, "pitch": 66, "duration": 21, "velocity": 78}, {"time": 3535, "pitch": 68, "duration": 44, "velocity": 74}, {"time": 3535, "pitch": 63, "duration": 26, "velocity": 78}, {"time": 3582, "pitch": 61, "duration": 22, "velocity": 74}, {"time": 3582, "pitch": 65, "duration": 23, "velocity": 81}, {"time": 3619, "pitch": 65, "duration": 6, "velocity": 80}, {"time": 3625, "pitch": 66, "duration": 6, "velocity": 84}, {"time": 3631, "pitch": 68, "duration": 11, "velocity": 75}, {"time": 3655, "pitch": 73, "duration": 5, "velocity": 72}, {"time": 3660, "pitch": 70, "duration": 7, "velocity": 74}, {"time": 3666, "pitch": 68, "duration": 10, "velocity": 69}, {"time": 3679, "pitch": 61, "duration": 31, "velocity": 65}, {"time": 3679, "pitch": 66, "duration": 36, "velocity": 67}, {"time": 3882, "pitch": 65, "duration": 13, "velocity": 87}, {"time": 3894, "pitch": 66, "duration": 13, "velocity": 82}, {"time": 3907, "pitch": 70, "duration": 12, "velocity": 76}, {"time": 3919, "pitch": 68, "duration": 42, "velocity": 72}, {"time": 3966, "pitch": 73, "duration": 13, "velocity": 69}, {"time": 3967, "pitch": 70, "duration": 10, "velocity": 63}, {"time": 3978, "pitch": 70, "duration": 14, "velocity": 73}, {"time": 3991, "pitch": 75, "duration": 22, "velocity": 80}, {"time": 4063, "pitch": 68, "duration": 4, "velocity": 68}, {"time": 4063, "pitch": 73, "duration": 5, "velocity": 72}, {"time": 4069, "pitch": 68, "duration": 4, "velocity": 69}, {"time": 4069, "pitch": 73, "duration": 4, "velocity": 73}, {"time": 4075, "pitch": 68, "duration": 4, "velocity": 72}, {"time": 4075, "pitch": 73, "duration": 4, "velocity": 74}, {"time": 4081, "pitch": 68, "duration": 4, "velocity": 76}, {"time": 4081, "pitch": 73, "duration": 5, "velocity": 80}, {"time": 4087, "pitch": 68, "duration": 5, "velocity": 79}, {"time": 4087, "pitch": 73, "duration": 6, "velocity": 81}, {"time": 4093, "pitch": 75, "duration": 7, "velocity": 81}, {"time": 4099, "pitch": 77, "duration": 4, "velocity": 80}, {"time": 4102, "pitch": 78, "duration": 3, "velocity": 74}, {"time": 4105, "pitch": 80, "duration": 5, "velocity": 80}, {"time": 4111, "pitch": 70, "duration": 36, "velocity": 81}, {"time": 4111, "pitch": 78, "duration": 42, "velocity": 89}, {"time": 4147, "pitch": 68, "duration": 12, "velocity": 71}, {"time": 4147, "pitch": 65, "duration": 10, "velocity": 77}, {"time": 4158, "pitch": 66, "duration": 38, "velocity": 81}, {"time": 4195, "pitch": 65, "duration": 7, "velocity": 73}, {"time": 4201, "pitch": 66, "duration": 6, "velocity": 78}, {"time": 4207, "pitch": 63, "duration": 30, "velocity": 77}, {"time": 4236, "pitch": 75, "duration": 7, "velocity": 83}, {"time": 4242, "pitch": 73, "duration": 7, "velocity": 80}, {"time": 4248, "pitch": 70, "duration": 6, "velocity": 79}, {"time": 4254, "pitch": 68, "duration": 45, "velocity": 76}, {"time": 4303, "pitch": 68, "duration": 22, "velocity": 75}, {"time": 4339, "pitch": 73, "duration": 11, "velocity": 78}, {"time": 4350, "pitch": 70, "duration": 19, "velocity": 74}, {"time": 4368, "pitch": 68, "duration": 6, "velocity": 71}, {"time": 4374, "pitch": 66, "duration": 21, "velocity": 78}, {"time": 4399, "pitch": 68, "duration": 44, "velocity": 74}, {"time": 4399, "pitch": 63, "duration": 26, "velocity": 78}, {"time": 4446, "pitch": 61, "duration": 22, "velocity": 74}, {"time": 4446, "pitch": 65, "duration": 23, "velocity": 81}, {"time": 4483, "pitch": 65, "duration": 6, "velocity": 80}, {"time": 4489, "pitch": 66, "duration": 6, "velocity": 84}, {"time": 4495, "pitch": 68, "duration": 21, "velocity": 75}, {"time": 4525, "pitch": 61, "duration": 40, "velocity": 67}, {"time": 4526, "pitch": 65, "duration": 39, "velocity": 73}, {"time": 4578, "pitch": 78, "duration": 6, "velocity": 81}, {"time": 4584, "pitch": 77, "duration": 7, "velocity": 87}, {"time": 4590, "pitch": 75, "duration": 6, "velocity": 91}, {"time": 4597, "pitch": 73, "duration": 6, "velocity": 84}, {"time": 4603, "pitch": 75, "duration": 6, "velocity": 91}, {"time": 4609, "pitch": 73, "duration": 6, "velocity": 87}, {"time": 4615, "pitch": 70, "duration": 17, "velocity": 86}, {"time": 4632, "pitch": 68, "duration": 6, "velocity": 81}, {"time": 4638, "pitch": 70, "duration": 17, "velocity": 83}, {"time": 4656, "pitch": 70, "duration": 4, "velocity": 87}, {"time": 4659, "pitch": 73, "duration": 3, "velocity": 87}, {"time": 4663, "pitch": 68, "duration": 14, "velocity": 80}, {"time": 4680, "pitch": 66, "duration": 7, "velocity": 91}, {"time": 4687, "pitch": 70, "duration": 6, "velocity": 87}, {"time": 4693, "pitch": 73, "duration": 5, "velocity": 87}, {"time": 4698, "pitch": 70, "duration": 7, "velocity": 84}, {"time": 4705, "pitch": 68, "duration": 6, "velocity": 82}, {"time": 4711, "pitch": 66, "duration": 69, "velocity": 89}]}, {"program": 0, "is_drum": false, "name": "PIANO", "notes": [{"time": 25, "pitch": 78, "duration": 11, "velocity": 68}, {"time": 27, "pitch": 73, "duration": 9, "velocity": 82}, {"time": 28, "pitch": 70, "duration": 8, "velocity": 74}, {"time": 28, "pitch": 42, "duration": 51, "velocity": 81}, {"time": 30, "pitch": 66, "duration": 7, "velocity": 72}, {"time": 43, "pitch": 61, "duration": 4, "velocity": 81}, {"time": 48, "pitch": 63, "duration": 2, "velocity": 82}, {"time": 54, "pitch": 66, "duration": 3, "velocity": 82}, {"time": 60, "pitch": 68, "duration": 8, "velocity": 81}, {"time": 66, "pitch": 70, "duration": 7, "velocity": 89}, {"time": 72, "pitch": 73, "duration": 6, "velocity": 78}, {"time": 79, "pitch": 42, "duration": 1, "velocity": 81}, {"time": 79, "pitch": 54, "duration": 14, "velocity": 74}, {"time": 79, "pitch": 61, "duration": 11, "velocity": 76}, {"time": 85, "pitch": 49, "duration": 20, "velocity": 65}, {"time": 91, "pitch": 58, "duration": 6, "velocity": 75}, {"time": 97, "pitch": 61, "duration": 3, "velocity": 82}, {"time": 103, "pitch": 54, "duration": 6, "velocity": 72}, {"time": 103, "pitch": 66, "duration": 3, "velocity": 80}, {"time": 109, "pitch": 49, "duration": 7, "velocity": 62}, {"time": 115, "pitch": 58, "duration": 2, "velocity": 77}, {"time": 115, "pitch": 61, "duration": 4, "velocity": 80}, {"time": 127, "pitch": 46, "duration": 14, "velocity": 80}, {"time": 127, "pitch": 58, "duration": 7, "velocity": 63}, {"time": 127, "pitch": 61, "duration": 12, "velocity": 73}, {"time": 133, "pitch": 53, "duration": 7, "velocity": 65}, {"time": 139, "pitch": 58, "duration": 9, "velocity": 81}, {"time": 145, "pitch": 53, "duration": 8, "velocity": 72}, {"time": 151, "pitch": 61, "duration": 2, "velocity": 72}, {"time": 151, "pitch": 65, "duration": 5, "velocity": 79}, {"time": 157, "pitch": 46, "duration": 9, "velocity": 43}, {"time": 163, "pitch": 61, "duration": 3, "velocity": 82}, {"time": 163, "pitch": 65, "duration": 3, "velocity": 85}, {"time": 163, "pitch": 70, "duration": 5, "velocity": 80}, {"time": 169, "pitch": 58, "duration": 4, "velocity": 80}, {"time": 175, "pitch": 51, "duration": 25, "velocity": 80}, {"time": 175, "pitch": 58, "duration": 4, "velocity": 80}, {"time": 175, "pitch": 63, "duration": 8, "velocity": 80}, {"time": 181, "pitch": 54, "duration": 19, "velocity": 55}, {"time": 187, "pitch": 66, "duration": 4, "velocity": 81}, {"time": 193, "pitch": 58, "duration": 3, "velocity": 81}, {"time": 199, "pitch": 63, "duration": 7, "velocity": 81}, {"time": 205, "pitch": 51, "duration": 12, "velocity": 76}, {"time": 211, "pitch": 58, "duration": 3, "velocity": 80}, {"time": 211, "pitch": 66, "duration": 6, "velocity": 80}, {"time": 217, "pitch": 63, "duration": 2, "velocity": 79}, {"time": 223, "pitch": 49, "duration": 27, "velocity": 78}, {"time": 223, "pitch": 61, "duration": 7, "velocity": 80}, {"time": 229, "pitch": 56, "duration": 7, "velocity": 73}, {"time": 235, "pitch": 61, "duration": 3, "velocity": 78}, {"time": 241, "pitch": 63, "duration": 3, "velocity": 72}, {"time": 247, "pitch": 56, "duration": 2, "velocity": 81}, {"time": 247, "pitch": 65, "duration": 5, "velocity": 83}, {"time": 253, "pitch": 56, "duration": 2, "velocity": 78}, {"time": 259, "pitch": 56, "duration": 3, "velocity": 81}, {"time": 259, "pitch": 61, "duration": 3, "velocity": 82}, {"time": 265, "pitch": 49, "duration": 1, "velocity": 82}, {"time": 271, "pitch": 46, "duration": 43, "velocity": 81}, {"time": 271, "pitch": 58, "duration": 12, "velocity": 76}, {"time": 271, "pitch": 61, "duration": 12, "velocity": 80}, {"time": 277, "pitch": 53, "duration": 21, "velocity": 74}, {"time": 283, "pitch": 65, "duration": 5, "velocity": 84}, {"time": 289, "pitch": 61, "duration": 1, "velocity": 81}, {"time": 295, "pitch": 58, "duration": 4, "velocity": 80}, {"time": 295, "pitch": 70, "duration": 2, "velocity": 78}, {"time": 301, "pitch": 53, "duration": 7, "velocity": 71}, {"time": 307, "pitch": 58, "duration": 4, "velocity": 75}, {"time": 307, "pitch": 65, "duration": 4, "velocity": 81}, {"time": 310, "pitch": 53, "duration": 4, "velocity": 78}, {"time": 313, "pitch": 58, "duration": 3, "velocity": 80}, {"time": 319, "pitch": 51, "duration": 21, "velocity": 83}, {"time": 319, "pitch": 58, "duration": 4, "velocity": 73}, {"time": 319, "pitch": 63, "duration": 7, "velocity": 76}, {"time": 325, "pitch": 58, "duration": 3, "velocity": 68}, {"time": 331, "pitch": 66, "duration": 4, "velocity": 80}, {"time": 337, "pitch": 65, "duration": 6, "velocity": 81}, {"time": 343, "pitch": 63, "duration": 6, "velocity": 82}, {"time": 349, "pitch": 58, "duration": 3, "velocity": 81}, {"time": 355, "pitch": 58, "duration": 3, "velocity": 79}, {"time": 355, "pitch": 63, "duration": 4, "velocity": 81}, {"time": 361, "pitch": 61, "duration": 2, "velocity": 80}, {"time": 367, "pitch": 44, "duration": 20, "velocity": 80}, {"time": 367, "pitch": 56, "duration": 8, "velocity": 72}, {"time": 367, "pitch": 59, "duration": 8, "velocity": 69}, {"time": 373, "pitch": 51, "duration": 8, "velocity": 67}, {"time": 379, "pitch": 63, "duration": 10, "velocity": 80}, {"time": 385, "pitch": 51, "duration": 3, "velocity": 73}, {"time": 391, "pitch": 49, "duration": 18, "velocity": 76}, {"time": 391, "pitch": 56, "duration": 3, "velocity": 73}, {"time": 391, "pitch": 61, "duration": 7, "velocity": 75}, {"time": 397, "pitch": 56, "duration": 5, "velocity": 80}, {"time": 403, "pitch": 61, "duration": 2, "velocity": 83}, {"time": 409, "pitch": 58, "duration": 3, "velocity": 76}, {"time": 412, "pitch": 56, "duration": 2, "velocity": 80}, {"time": 415, "pitch": 42, "duration": 40, "velocity": 80}, {"time": 415, "pitch": 54, "duration": 19, "velocity": 80}, {"time": 421, "pitch": 49, "duration": 33, "velocity": 65}, {"time": 427, "pitch": 61, "duration": 8, "velocity": 74}, {"time": 433, "pitch": 58, "duration": 3, "velocity": 73}, {"time": 439, "pitch": 66, "duration": 7, "velocity": 81}, {"time": 445, "pitch": 54, "duration": 5, "velocity": 68}, {"time": 451, "pitch": 61, "duration": 2, "velocity": 70}, {"time": 463, "pitch": 42, "duration": 40, "velocity": 80}, {"time": 463, "pitch": 54, "duration": 7, "velocity": 71}, {"time": 463, "pitch": 58, "duration": 8, "velocity": 71}, {"time": 469, "pitch": 49, "duration": 33, "velocity": 67}, {"time": 475, "pitch": 56, "duration": 3, "velocity": 71}, {"time": 481, "pitch": 58, "duration": 4, "velocity": 84}, {"time": 487, "pitch": 61, "duration": 3, "velocity": 75}, {"time": 493, "pitch": 54, "duration": 2, "velocity": 66}, {"time": 499, "pitch": 54, "duration": 2, "velocity": 68}, {"time": 499, "pitch": 58, "duration": 2, "velocity": 69}, {"time": 499, "pitch": 61, "duration": 3, "velocity": 76}, {"time": 511, "pitch": 46, "duration": 39, "velocity": 80}, {"time": 511, "pitch": 61, "duration": 14, "velocity": 70}, {"time": 517, "pitch": 53, "duration": 9, "velocity": 62}, {"time": 523, "pitch": 58, "duration": 7, "velocity": 69}, {"time": 529, "pitch": 65, "duration": 7, "velocity": 79}, {"time": 532, "pitch": 53, "duration": 16, "velocity": 56}, {"time": 535, "pitch": 63, "duration": 3, "velocity": 83}, {"time": 541, "pitch": 61, "duration": 3, "velocity": 74}, {"time": 547, "pitch": 58, "duration": 6, "velocity": 72}, {"time": 553, "pitch": 53, "duration": 1, "velocity": 69}, {"time": 559, "pitch": 39, "duration": 2, "velocity": 62}, {"time": 559, "pitch": 66, "duration": 12, "velocity": 69}, {"time": 565, "pitch": 51, "duration": 32, "velocity": 80}, {"time": 571, "pitch": 58, "duration": 15, "velocity": 74}, {"time": 577, "pitch": 63, "duration": 5, "velocity": 82}, {"time": 583, "pitch": 66, "duration": 12, "velocity": 82}, {"time": 589, "pitch": 58, "duration": 7, "velocity": 67}, {"time": 595, "pitch": 63, "duration": 7, "velocity": 80}, {"time": 601, "pitch": 66, "duration": 5, "velocity": 76}, {"time": 607, "pitch": 37, "duration": 2, "velocity": 74}, {"time": 607, "pitch": 61, "duration": 13, "velocity": 71}, {"time": 607, "pitch": 65, "duration": 14, "velocity": 76}, {"time": 613, "pitch": 49, "duration": 32, "velocity": 76}, {"time": 619, "pitch": 56, "duration": 24, "velocity": 76}, {"time": 625, "pitch": 63, "duration": 4, "velocity": 76}, {"time": 631, "pitch": 61, "duration": 3, "velocity": 73}, {"time": 631, "pitch": 65, "duration": 3, "velocity": 80}, {"time": 637, "pitch": 63, "duration": 6, "velocity": 82}, {"time": 643, "pitch": 61, "duration": 2, "velocity": 85}, {"time": 655, "pitch": 44, "duration": 41, "velocity": 80}, {"time": 655, "pitch": 56, "duration": 13, "velocity": 74}, {"time": 655, "pitch": 63, "duration": 13, "velocity": 75}, {"time": 661, "pitch": 51, "duration": 34, "velocity": 63}, {"time": 667, "pitch": 59, "duration": 6, "velocity": 74}, {"time": 673, "pitch": 56, "duration": 8, "velocity": 77}, {"time": 679, "pitch": 68, "duration": 3, "velocity": 81}, {"time": 685, "pitch": 63, "duration": 2, "velocity": 76}, {"time": 691, "pitch": 59, "duration": 5, "velocity": 81}, {"time": 697, "pitch": 56, "duration": 2, "velocity": 81}, {"time": 703, "pitch": 46, "duration": 18, "velocity": 81}, {"time": 703, "pitch": 58, "duration": 9, "velocity": 78}, {"time": 703, "pitch": 61, "duration": 7, "velocity": 80}, {"time": 709, "pitch": 53, "duration": 11, "velocity": 72}, {"time": 715, "pitch": 61, "duration": 3, "velocity": 76}, {"time": 715, "pitch": 65, "duration": 4, "velocity": 80}, {"time": 727, "pitch": 51, "duration": 18, "velocity": 81}, {"time": 727, "pitch": 66, "duration": 8, "velocity": 80}, {"time": 733, "pitch": 54, "duration": 12, "velocity": 49}, {"time": 739, "pitch": 63, "duration": 2, "velocity": 79}, {"time": 745, "pitch": 61, "duration": 3, "velocity": 80}, {"time": 751, "pitch": 44, "duration": 40, "velocity": 80}, {"time": 751, "pitch": 56, "duration": 8, "velocity": 80}, {"time": 757, "pitch": 51, "duration": 33, "velocity": 71}, {"time": 763, "pitch": 59, "duration": 5, "velocity": 76}, {"time": 769, "pitch": 56, "duration": 5, "velocity": 81}, {"time": 775, "pitch": 63, "duration": 4, "velocity": 80}, {"time": 781, "pitch": 56, "duration": 2, "velocity": 62}, {"time": 781, "pitch": 63, "duration": 1, "velocity": 28}, {"time": 787, "pitch": 56, "duration": 2, "velocity": 75}, {"time": 787, "pitch": 59, "duration": 4, "velocity": 72}, {"time": 787, "pitch": 63, "duration": 11, "velocity": 81}, {"time": 787, "pitch": 68, "duration": 6, "velocity": 76}, {"time": 793, "pitch": 56, "duration": 3, "velocity": 81}, {"time": 799, "pitch": 49, "duration": 40, "velocity": 80}, {"time": 799, "pitch": 56, "duration": 3, "velocity": 76}, {"time": 799, "pitch": 61, "duration": 8, "velocity": 75}, {"time": 805, "pitch": 56, "duration": 5, "velocity": 77}, {"time": 811, "pitch": 63, "duration": 5, "velocity": 77}, {"time": 817, "pitch": 56, "duration": 2, "velocity": 76}, {"time": 823, "pitch": 56, "duration": 3, "velocity": 81}, {"time": 823, "pitch": 65, "duration": 6, "velocity": 82}, {"time": 829, "pitch": 63, "duration": 2, "velocity": 81}, {"time": 835, "pitch": 61, "duration": 2, "velocity": 80}, {"time": 841, "pitch": 59, "duration": 2, "velocity": 81}, {"time": 847, "pitch": 42, "duration": 16, "velocity": 80}, {"time": 847, "pitch": 58, "duration": 6, "velocity": 75}, {"time": 847, "pitch": 66, "duration": 7, "velocity": 76}, {"time": 853, "pitch": 49, "duration": 8, "velocity": 49}, {"time": 859, "pitch": 58, "duration": 4, "velocity": 76}, {"time": 859, "pitch": 61, "duration": 4, "velocity": 81}, {"time": 865, "pitch": 49, "duration": 11, "velocity": 73}, {"time": 871, "pitch": 58, "duration": 3, "velocity": 75}, {"time": 871, "pitch": 66, "duration": 3, "velocity": 76}, {"time": 877, "pitch": 42, "duration": 9, "velocity": 61}, {"time": 883, "pitch": 58, "duration": 6, "velocity": 75}, {"time": 883, "pitch": 61, "duration": 8, "velocity": 80}, {"time": 883, "pitch": 66, "duration": 9, "velocity": 79}, {"time": 889, "pitch": 44, "duration": 3, "velocity": 81}, {"time": 895, "pitch": 46, "duration": 45, "velocity": 80}, {"time": 895, "pitch": 58, "duration": 8, "velocity": 72}, {"time": 895, "pitch": 61, "duration": 7, "velocity": 75}, {"time": 901, "pitch": 53, "duration": 8, "velocity": 69}, {"time": 907, "pitch": 58, "duration": 5, "velocity": 75}, {"time": 907, "pitch": 65, "duration": 4, "velocity": 81}, {"time": 913, "pitch": 53, "duration": 26, "velocity": 74}, {"time": 919, "pitch": 70, "duration": 5, "velocity": 86}, {"time": 925, "pitch": 58, "duration": 4, "velocity": 83}, {"time": 931, "pitch": 58, "duration": 4, "velocity": 76}, {"time": 931, "pitch": 65, "duration": 5, "velocity": 81}, {"time": 937, "pitch": 63, "duration": 4, "velocity": 80}, {"time": 943, "pitch": 51, "duration": 20, "velocity": 82}, {"time": 943, "pitch": 58, "duration": 6, "velocity": 79}, {"time": 943, "pitch": 63, "duration": 7, "velocity": 78}, {"time": 949, "pitch": 54, "duration": 12, "velocity": 65}, {"time": 955, "pitch": 66, "duration": 6, "velocity": 81}, {"time": 961, "pitch": 58, "duration": 3, "velocity": 81}, {"time": 967, "pitch": 58, "duration": 2, "velocity": 81}, {"time": 967, "pitch": 63, "duration": 8, "velocity": 80}, {"time": 973, "pitch": 58, "duration": 3, "velocity": 58}, {"time": 979, "pitch": 51, "duration": 3, "velocity": 82}, {"time": 979, "pitch": 58, "duration": 7, "velocity": 80}, {"time": 979, "pitch": 63, "duration": 8, "velocity": 78}, {"time": 985, "pitch": 46, "duration": 2, "velocity": 79}, {"time": 991, "pitch": 49, "duration": 21, "velocity": 84}, {"time": 991, "pitch": 56, "duration": 3, "velocity": 81}, {"time": 991, "pitch": 61, "duration": 8, "velocity": 78}, {"time": 997, "pitch": 56, "duration": 3, "velocity": 68}, {"time": 1003, "pitch": 56, "duration": 2, "velocity": 81}, {"time": 1003, "pitch": 65, "duration": 6, "velocity": 81}, {"time": 1009, "pitch": 63, "duration": 4, "velocity": 75}, {"time": 1015, "pitch": 49, "duration": 18, "velocity": 73}, {"time": 1015, "pitch": 56, "duration": 2, "velocity": 69}, {"time": 1015, "pitch": 61, "duration": 7, "velocity": 71}, {"time": 1021, "pitch": 56, "duration": 3, "velocity": 76}, {"time": 1027, "pitch": 56, "duration": 6, "velocity": 81}, {"time": 1027, "pitch": 65, "duration": 6, "velocity": 83}, {"time": 1033, "pitch": 61, "duration": 2, "velocity": 72}, {"time": 1039, "pitch": 44, "duration": 39, "velocity": 81}, {"time": 1039, "pitch": 56, "duration": 9, "velocity": 70}, {"time": 1039, "pitch": 59, "duration": 7, "velocity": 77}, {"time": 1045, "pitch": 51, "duration": 21, "velocity": 65}, {"time": 1051, "pitch": 63, "duration": 3, "velocity": 81}, {"time": 1057, "pitch": 59, "duration": 2, "velocity": 80}, {"time": 1063, "pitch": 56, "duration": 3, "velocity": 81}, {"time": 1063, "pitch": 68, "duration": 3, "velocity": 73}, {"time": 1069, "pitch": 51, "duration": 8, "velocity": 49}, {"time": 1075, "pitch": 59, "duration": 6, "velocity": 81}, {"time": 1075, "pitch": 63, "duration": 9, "velocity": 81}, {"time": 1081, "pitch": 44, "duration": 3, "velocity": 81}, {"time": 1087, "pitch": 46, "duration": 15, "velocity": 75}, {"time": 1087, "pitch": 58, "duration": 7, "velocity": 78}, {"time": 1087, "pitch": 61, "duration": 7, "velocity": 80}, {"time": 1093, "pitch": 53, "duration": 9, "velocity": 69}, {"time": 1099, "pitch": 58, "duration": 4, "velocity": 75}, {"time": 1099, "pitch": 61, "duration": 4, "velocity": 81}, {"time": 1099, "pitch": 65, "duration": 4, "velocity": 82}, {"time": 1105, "pitch": 46, "duration": 2, "velocity": 81}, {"time": 1111, "pitch": 39, "duration": 2, "velocity": 71}, {"time": 1111, "pitch": 58, "duration": 8, "velocity": 72}, {"time": 1111, "pitch": 63, "duration": 9, "velocity": 77}, {"time": 1117, "pitch": 51, "duration": 8, "velocity": 67}, {"time": 1123, "pitch": 58, "duration": 2, "velocity": 76}, {"time": 1123, "pitch": 63, "duration": 3, "velocity": 81}, {"time": 1123, "pitch": 66, "duration": 4, "velocity": 81}, {"time": 1135, "pitch": 44, "duration": 38, "velocity": 81}, {"time": 1135, "pitch": 56, "duration": 9, "velocity": 76}, {"time": 1135, "pitch": 63, "duration": 8, "velocity": 79}, {"time": 1141, "pitch": 51, "duration": 32, "velocity": 65}, {"time": 1147, "pitch": 59, "duration": 2, "velocity": 84}, {"time": 1153, "pitch": 56, "duration": 4, "velocity": 80}, {"time": 1159, "pitch": 56, "duration": 3, "velocity": 76}, {"time": 1159, "pitch": 68, "duration": 4, "velocity": 76}, {"time": 1165, "pitch": 56, "duration": 3, "velocity": 72}, {"time": 1171, "pitch": 56, "duration": 4, "velocity": 75}, {"time": 1171, "pitch": 59, "duration": 4, "velocity": 81}, {"time": 1171, "pitch": 63, "duration": 7, "velocity": 81}, {"time": 1177, "pitch": 44, "duration": 4, "velocity": 78}, {"time": 1183, "pitch": 49, "duration": 20, "velocity": 80}, {"time": 1183, "pitch": 56, "duration": 2, "velocity": 80}, {"time": 1183, "pitch": 61, "duration": 7, "velocity": 80}, {"time": 1189, "pitch": 56, "duration": 3, "velocity": 74}, {"time": 1195, "pitch": 56, "duration": 3, "velocity": 80}, {"time": 1195, "pitch": 63, "duration": 7, "velocity": 82}, {"time": 1201, "pitch": 56, "duration": 3, "velocity": 77}, {"time": 1207, "pitch": 49, "duration": 19, "velocity": 82}, {"time": 1207, "pitch": 56, "duration": 2, "velocity": 80}, {"time": 1207, "pitch": 61, "duration": 7, "velocity": 81}, {"time": 1207, "pitch": 65, "duration": 7, "velocity": 82}, {"time": 1213, "pitch": 56, "duration": 3, "velocity": 72}, {"time": 1219, "pitch": 56, "duration": 3, "velocity": 81}, {"time": 1219, "pitch": 63, "duration": 4, "velocity": 80}, {"time": 1231, "pitch": 42, "duration": 34, "velocity": 76}, {"time": 1231, "pitch": 58, "duration": 6, "velocity": 70}, {"time": 1231, "pitch": 61, "duration": 7, "velocity": 74}, {"time": 1237, "pitch": 49, "duration": 26, "velocity": 75}, {"time": 1243, "pitch": 66, "duration": 3, "velocity": 81}, {"time": 1246, "pitch": 61, "duration": 3, "velocity": 82}, {"time": 1249, "pitch": 58, "duration": 3, "velocity": 79}, {"time": 1255, "pitch": 58, "duration": 3, "velocity": 71}, {"time": 1255, "pitch": 61, "duration": 4, "velocity": 73}, {"time": 1261, "pitch": 58, "duration": 2, "velocity": 70}, {"time": 1267, "pitch": 58, "duration": 2, "velocity": 80}, {"time": 1267, "pitch": 61, "duration": 6, "velocity": 82}, {"time": 1267, "pitch": 66, "duration": 7, "velocity": 80}, {"time": 1273, "pitch": 58, "duration": 2, "velocity": 78}, {"time": 1279, "pitch": 51, "duration": 17, "velocity": 81}, {"time": 1279, "pitch": 58, "duration": 3, "velocity": 72}, {"time": 1279, "pitch": 63, "duration": 6, "velocity": 72}, {"time": 1285, "pitch": 58, "duration": 1, "velocity": 64}, {"time": 1291, "pitch": 58, "duration": 3, "velocity": 81}, {"time": 1291, "pitch": 66, "duration": 4, "velocity": 80}, {"time": 1294, "pitch": 65, "duration": 4, "velocity": 81}, {"time": 1297, "pitch": 58, "duration": 2, "velocity": 60}, {"time": 1297, "pitch": 63, "duration": 3, "velocity": 75}, {"time": 1303, "pitch": 51, "duration": 15, "velocity": 80}, {"time": 1303, "pitch": 58, "duration": 2, "velocity": 74}, {"time": 1303, "pitch": 63, "duration": 7, "velocity": 72}, {"time": 1309, "pitch": 58, "duration": 2, "velocity": 67}, {"time": 1315, "pitch": 58, "duration": 3, "velocity": 74}, {"time": 1315, "pitch": 63, "duration": 6, "velocity": 75}, {"time": 1315, "pitch": 66, "duration": 6, "velocity": 80}, {"time": 1327, "pitch": 51, "duration": 14, "velocity": 81}, {"time": 1327, "pitch": 58, "duration": 2, "velocity": 74}, {"time": 1327, "pitch": 63, "duration": 7, "velocity": 76}, {"time": 1333, "pitch": 58, "duration": 2, "velocity": 66}, {"time": 1339, "pitch": 58, "duration": 3, "velocity": 77}, {"time": 1339, "pitch": 66, "duration": 8, "velocity": 80}, {"time": 1345, "pitch": 58, "duration": 3, "velocity": 71}, {"time": 1351, "pitch": 39, "duration": 14, "velocity": 80}, {"time": 1351, "pitch": 58, "duration": 3, "velocity": 75}, {"time": 1351, "pitch": 63, "duration": 7, "velocity": 74}, {"time": 1357, "pitch": 58, "duration": 2, "velocity": 70}, {"time": 1363, "pitch": 58, "duration": 3, "velocity": 79}, {"time": 1363, "pitch": 63, "duration": 6, "velocity": 80}, {"time": 1369, "pitch": 61, "duration": 4, "velocity": 79}, {"time": 1375, "pitch": 44, "duration": 15, "velocity": 82}, {"time": 1375, "pitch": 56, "duration": 6, "velocity": 75}, {"time": 1375, "pitch": 63, "duration": 5, "velocity": 79}, {"time": 1381, "pitch": 51, "duration": 8, "velocity": 67}, {"time": 1387, "pitch": 56, "duration": 5, "velocity": 82}, {"time": 1387, "pitch": 59, "duration": 5, "velocity": 85}, {"time": 1387, "pitch": 63, "duration": 7, "velocity": 85}, {"time": 1393, "pitch": 44, "duration": 4, "velocity": 80}, {"time": 1396, "pitch": 56, "duration": 2, "velocity": 80}, {"time": 1399, "pitch": 49, "duration": 17, "velocity": 83}, {"time": 1399, "pitch": 56, "duration": 3, "velocity": 81}, {"time": 1399, "pitch": 61, "duration": 8, "velocity": 82}, {"time": 1405, "pitch": 56, "duration": 2, "velocity": 77}, {"time": 1411, "pitch": 56, "duration": 2, "velocity": 80}, {"time": 1411, "pitch": 61, "duration": 6, "velocity": 84}, {"time": 1411, "pitch": 65, "duration": 7, "velocity": 84}, {"time": 1417, "pitch": 56, "duration": 3, "velocity": 81}, {"time": 1423, "pitch": 44, "duration": 19, "velocity": 81}, {"time": 1423, "pitch": 56, "duration": 7, "velocity": 80}, {"time": 1423, "pitch": 63, "duration": 6, "velocity": 77}, {"time": 1429, "pitch": 51, "duration": 12, "velocity": 61}, {"time": 1435, "pitch": 59, "duration": 6, "velocity": 82}, {"time": 1441, "pitch": 56, "duration": 5, "velocity": 76}, {"time": 1447, "pitch": 44, "duration": 14, "velocity": 79}, {"time": 1447, "pitch": 59, "duration": 5, "velocity": 69}, {"time": 1447, "pitch": 63, "duration": 4, "velocity": 76}, {"time": 1453, "pitch": 51, "duration": 7, "velocity": 55}, {"time": 1459, "pitch": 56, "duration": 5, "velocity": 76}, {"time": 1459, "pitch": 59, "duration": 5, "velocity": 80}, {"time": 1465, "pitch": 44, "duration": 4, "velocity": 80}, {"time": 1471, "pitch": 46, "duration": 15, "velocity": 80}, {"time": 1471, "pitch": 58, "duration": 6, "velocity": 76}, {"time": 1471, "pitch": 61, "duration": 6, "velocity": 80}, {"time": 1477, "pitch": 53, "duration": 8, "velocity": 74}, {"time": 1483, "pitch": 58, "duration": 2, "velocity": 72}, {"time": 1483, "pitch": 61, "duration": 6, "velocity": 75}, {"time": 1483, "pitch": 65, "duration": 6, "velocity": 83}, {"time": 1489, "pitch": 58, "duration": 3, "velocity": 82}, {"time": 1495, "pitch": 51, "duration": 14, "velocity": 81}, {"time": 1495, "pitch": 58, "duration": 3, "velocity": 82}, {"time": 1495, "pitch": 66, "duration": 7, "velocity": 80}, {"time": 1501, "pitch": 58, "duration": 2, "velocity": 80}, {"time": 1507, "pitch": 66, "duration": 4, "velocity": 85}, {"time": 1510, "pitch": 65, "duration": 3, "velocity": 81}, {"time": 1513, "pitch": 63, "duration": 3, "velocity": 83}, {"time": 1516, "pitch": 61, "duration": 2, "velocity": 74}, {"time": 1519, "pitch": 44, "duration": 43, "velocity": 81}, {"time": 1519, "pitch": 59, "duration": 7, "velocity": 81}, {"time": 1525, "pitch": 51, "duration": 21, "velocity": 69}, {"time": 1531, "pitch": 59, "duration": 5, "velocity": 83}, {"time": 1531, "pitch": 63, "duration": 6, "velocity": 81}, {"time": 1537, "pitch": 56, "duration": 3, "velocity": 70}, {"time": 1543, "pitch": 56, "duration": 4, "velocity": 81}, {"time": 1543, "pitch": 63, "duration": 4, "velocity": 76}, {"time": 1549, "pitch": 51, "duration": 12, "velocity": 62}, {"time": 1555, "pitch": 59, "duration": 5, "velocity": 86}, {"time": 1561, "pitch": 56, "duration": 5, "velocity": 81}, {"time": 1567, "pitch": 49, "duration": 23, "velocity": 81}, {"time": 1567, "pitch": 61, "duration": 7, "velocity": 86}, {"time": 1573, "pitch": 56, "duration": 3, "velocity": 80}, {"time": 1579, "pitch": 63, "duration": 5, "velocity": 85}, {"time": 1585, "pitch": 56, "duration": 5, "velocity": 78}, {"time": 1585, "pitch": 63, "duration": 2, "velocity": 77}, {"time": 1591, "pitch": 49, "duration": 22, "velocity": 85}, {"time": 1591, "pitch": 65, "duration": 7, "velocity": 87}, {"time": 1597, "pitch": 56, "duration": 3, "velocity": 83}, {"time": 1603, "pitch": 56, "duration": 3, "velocity": 85}, {"time": 1603, "pitch": 63, "duration": 3, "velocity": 84}, {"time": 1609, "pitch": 61, "duration": 5, "velocity": 77}, {"time": 1615, "pitch": 42, "duration": 34, "velocity": 76}, {"time": 1615, "pitch": 58, "duration": 6, "velocity": 70}, {"time": 1615, "pitch": 61, "duration": 7, "velocity": 74}, {"time": 1621, "pitch": 49, "duration": 26, "velocity": 75}, {"time": 1627, "pitch": 66, "duration": 3, "velocity": 81}, {"time": 1630, "pitch": 61, "duration": 3, "velocity": 82}, {"time": 1633, "pitch": 58, "duration": 3, "velocity": 79}, {"time": 1639, "pitch": 58, "duration": 3, "velocity": 71}, {"time": 1639, "pitch": 61, "duration": 4, "velocity": 73}, {"time": 1645, "pitch": 58, "duration": 2, "velocity": 70}, {"time": 1651, "pitch": 58, "duration": 2, "velocity": 80}, {"time": 1651, "pitch": 61, "duration": 6, "velocity": 82}, {"time": 1651, "pitch": 66, "duration": 7, "velocity": 80}, {"time": 1657, "pitch": 58, "duration": 2, "velocity": 78}, {"time": 1663, "pitch": 51, "duration": 17, "velocity": 81}, {"time": 1663, "pitch": 58, "duration": 3, "velocity": 72}, {"time": 1663, "pitch": 63, "duration": 6, "velocity": 72}, {"time": 1669, "pitch": 58, "duration": 1, "velocity": 64}, {"time": 1675, "pitch": 58, "duration": 3, "velocity": 81}, {"time": 1675, "pitch": 66, "duration": 4, "velocity": 80}, {"time": 1678, "pitch": 65, "duration": 4, "velocity": 81}, {"time": 1681, "pitch": 58, "duration": 2, "velocity": 60}, {"time": 1681, "pitch": 63, "duration": 3, "velocity": 75}, {"time": 1687, "pitch": 51, "duration": 15, "velocity": 80}, {"time": 1687, "pitch": 58, "duration": 2, "velocity": 74}, {"time": 1687, "pitch": 63, "duration": 7, "velocity": 72}, {"time": 1693, "pitch": 58, "duration": 2, "velocity": 67}, {"time": 1699, "pitch": 58, "duration": 3, "velocity": 74}, {"time": 1699, "pitch": 63, "duration": 6, "velocity": 75}, {"time": 1699, "pitch": 66, "duration": 6, "velocity": 80}, {"time": 1711, "pitch": 51, "duration": 14, "velocity": 81}, {"time": 1711, "pitch": 58, "duration": 2, "velocity": 74}, {"time": 1711, "pitch": 63, "duration": 7, "velocity": 76}, {"time": 1717, "pitch": 58, "duration": 2, "velocity": 66}, {"time": 1723, "pitch": 58, "duration": 3, "velocity": 77}, {"time": 1723, "pitch": 66, "duration": 8, "velocity": 80}, {"time": 1729, "pitch": 58, "duration": 3, "velocity": 71}, {"time": 1735, "pitch": 39, "duration": 14, "velocity": 80}, {"time": 1735, "pitch": 58, "duration": 3, "velocity": 75}, {"time": 1735, "pitch": 63, "duration": 7, "velocity": 74}, {"time": 1741, "pitch": 58, "duration": 2, "velocity": 70}, {"time": 1747, "pitch": 58, "duration": 3, "velocity": 79}, {"time": 1747, "pitch": 63, "duration": 6, "velocity": 80}, {"time": 1753, "pitch": 61, "duration": 4, "velocity": 79}, {"time": 1759, "pitch": 44, "duration": 15, "velocity": 82}, {"time": 1759, "pitch": 56, "duration": 6, "velocity": 75}, {"time": 1759, "pitch": 63, "duration": 5, "velocity": 79}, {"time": 1765, "pitch": 51, "duration": 8, "velocity": 67}, {"time": 1771, "pitch": 56, "duration": 5, "velocity": 82}, {"time": 1771, "pitch": 59, "duration": 5, "velocity": 85}, {"time": 1771, "pitch": 63, "duration": 7, "velocity": 85}, {"time": 1777, "pitch": 44, "duration": 4, "velocity": 80}, {"time": 1780, "pitch": 56, "duration": 2, "velocity": 80}, {"time": 1783, "pitch": 49, "duration": 17, "velocity": 83}, {"time": 1783, "pitch": 56, "duration": 3, "velocity": 81}, {"time": 1783, "pitch": 61, "duration": 8, "velocity": 82}, {"time": 1789, "pitch": 56, "duration": 2, "velocity": 77}, {"time": 1795, "pitch": 56, "duration": 2, "velocity": 80}, {"time": 1795, "pitch": 61, "duration": 6, "velocity": 84}, {"time": 1795, "pitch": 65, "duration": 7, "velocity": 84}, {"time": 1801, "pitch": 56, "duration": 3, "velocity": 81}, {"time": 1807, "pitch": 44, "duration": 19, "velocity": 81}, {"time": 1807, "pitch": 56, "duration": 7, "velocity": 80}, {"time": 1807, "pitch": 63, "duration": 6, "velocity": 77}, {"time": 1813, "pitch": 51, "duration": 12, "velocity": 61}, {"time": 1819, "pitch": 59, "duration": 6, "velocity": 82}, {"time": 1825, "pitch": 56, "duration": 5, "velocity": 76}, {"time": 1831, "pitch": 44, "duration": 14, "velocity": 79}, {"time": 1831, "pitch": 59, "duration": 5, "velocity": 69}, {"time": 1831, "pitch": 63, "duration": 4, "velocity": 76}, {"time": 1837, "pitch": 51, "duration": 7, "velocity": 55}, {"time": 1843, "pitch": 56, "duration": 5, "velocity": 76}, {"time": 1843, "pitch": 59, "duration": 5, "velocity": 80}, {"time": 1849, "pitch": 44, "duration": 4, "velocity": 80}, {"time": 1855, "pitch": 46, "duration": 15, "velocity": 80}, {"time": 1855, "pitch": 58, "duration": 6, "velocity": 76}, {"time": 1855, "pitch": 61, "duration": 6, "velocity": 80}, {"time": 1861, "pitch": 53, "duration": 8, "velocity": 74}, {"time": 1867, "pitch": 58, "duration": 2, "velocity": 72}, {"time": 1867, "pitch": 61, "duration": 6, "velocity": 75}, {"time": 1867, "pitch": 65, "duration": 6, "velocity": 83}, {"time": 1873, "pitch": 58, "duration": 3, "velocity": 82}, {"time": 1879, "pitch": 51, "duration": 14, "velocity": 81}, {"time": 1879, "pitch": 58, "duration": 3, "velocity": 82}, {"time": 1879, "pitch": 66, "duration": 7, "velocity": 80}, {"time": 1885, "pitch": 58, "duration": 2, "velocity": 80}, {"time": 1891, "pitch": 66, "duration": 4, "velocity": 85}, {"time": 1894, "pitch": 65, "duration": 3, "velocity": 81}, {"time": 1897, "pitch": 63, "duration": 3, "velocity": 83}, {"time": 1900, "pitch": 61, "duration": 2, "velocity": 74}, {"time": 1903, "pitch": 44, "duration": 43, "velocity": 81}, {"time": 1903, "pitch": 59, "duration": 7, "velocity": 81}, {"time": 1909, "pitch": 51, "duration": 21, "velocity": 69}, {"time": 1915, "pitch": 59, "duration": 5, "velocity": 83}, {"time": 1915, "pitch": 63, "duration": 6, "velocity": 81}, {"time": 1921, "pitch": 56, "duration": 3, "velocity": 70}, {"time": 1927, "pitch": 56, "duration": 4, "velocity": 81}, {"time": 1927, "pitch": 63, "duration": 4, "velocity": 76}, {"time": 1933, "pitch": 51, "duration": 12, "velocity": 62}, {"time": 1939, "pitch": 59, "duration": 5, "velocity": 86}, {"time": 1945, "pitch": 56, "duration": 5, "velocity": 81}, {"time": 1951, "pitch": 49, "duration": 23, "velocity": 81}, {"time": 1951, "pitch": 61, "duration": 7, "velocity": 86}, {"time": 1957, "pitch": 56, "duration": 3, "velocity": 80}, {"time": 1963, "pitch": 63, "duration": 5, "velocity": 85}, {"time": 1969, "pitch": 56, "duration": 5, "velocity": 78}, {"time": 1969, "pitch": 63, "duration": 2, "velocity": 77}, {"time": 1975, "pitch": 49, "duration": 22, "velocity": 85}, {"time": 1975, "pitch": 65, "duration": 7, "velocity": 87}, {"time": 1981, "pitch": 56, "duration": 3, "velocity": 83}, {"time": 1987, "pitch": 56, "duration": 3, "velocity": 85}, {"time": 1987, "pitch": 63, "duration": 3, "velocity": 84}, {"time": 1993, "pitch": 61, "duration": 5, "velocity": 77}, {"time": 1996, "pitch": 56, "duration": 8, "velocity": 65}, {"time": 1997, "pitch": 59, "duration": 12, "velocity": 81}, {"time": 1999, "pitch": 63, "duration": 13, "velocity": 73}, {"time": 1999, "pitch": 44, "duration": 16, "velocity": 81}, {"time": 1999, "pitch": 68, "duration": 10, "velocity": 76}, {"time": 2004, "pitch": 51, "duration": 10, "velocity": 69}, {"time": 2010, "pitch": 56, "duration": 3, "velocity": 81}, {"time": 2020, "pitch": 56, "duration": 3, "velocity": 73}, {"time": 2021, "pitch": 61, "duration": 6, "velocity": 75}, {"time": 2023, "pitch": 65, "duration": 9, "velocity": 83}, {"time": 2023, "pitch": 49, "duration": 7, "velocity": 84}, {"time": 2029, "pitch": 56, "duration": 3, "velocity": 82}, {"time": 2034, "pitch": 56, "duration": 3, "velocity": 73}, {"time": 2034, "pitch": 61, "duration": 2, "velocity": 70}, {"time": 2047, "pitch": 42, "duration": 43, "velocity": 80}, {"time": 2047, "pitch": 54, "duration": 6, "velocity": 73}, {"time": 2047, "pitch": 58, "duration": 7, "velocity": 74}, {"time": 2053, "pitch": 49, "duration": 33, "velocity": 68}, {"time": 2059, "pitch": 54, "duration": 3, "velocity": 83}, {"time": 2065, "pitch": 56, "duration": 2, "velocity": 86}, {"time": 2071, "pitch": 58, "duration": 7, "velocity": 82}, {"time": 2077, "pitch": 61, "duration": 3, "velocity": 81}, {"time": 2083, "pitch": 58, "duration": 12, "velocity": 78}, {"time": 2083, "pitch": 61, "duration": 12, "velocity": 84}, {"time": 2083, "pitch": 66, "duration": 12, "velocity": 82}, {"time": 2089, "pitch": 49, "duration": 6, "velocity": 80}, {"time": 2095, "pitch": 42, "duration": 39, "velocity": 81}, {"time": 2095, "pitch": 54, "duration": 14, "velocity": 74}, {"time": 2095, "pitch": 61, "duration": 1, "velocity": 76}, {"time": 2101, "pitch": 49, "duration": 20, "velocity": 65}, {"time": 2107, "pitch": 58, "duration": 6, "velocity": 75}, {"time": 2113, "pitch": 61, "duration": 3, "velocity": 82}, {"time": 2119, "pitch": 54, "duration": 6, "velocity": 72}, {"time": 2119, "pitch": 66, "duration": 3, "velocity": 80}, {"time": 2125, "pitch": 49, "duration": 7, "velocity": 62}, {"time": 2131, "pitch": 58, "duration": 2, "velocity": 77}, {"time": 2131, "pitch": 61, "duration": 4, "velocity": 80}, {"time": 2143, "pitch": 46, "duration": 14, "velocity": 80}, {"time": 2143, "pitch": 58, "duration": 7, "velocity": 63}, {"time": 2143, "pitch": 61, "duration": 12, "velocity": 73}, {"time": 2149, "pitch": 53, "duration": 7, "velocity": 65}, {"time": 2155, "pitch": 58, "duration": 9, "velocity": 81}, {"time": 2161, "pitch": 53, "duration": 8, "velocity": 72}, {"time": 2167, "pitch": 61, "duration": 2, "velocity": 72}, {"time": 2167, "pitch": 65, "duration": 5, "velocity": 79}, {"time": 2173, "pitch": 46, "duration": 9, "velocity": 43}, {"time": 2179, "pitch": 61, "duration": 3, "velocity": 82}, {"time": 2179, "pitch": 65, "duration": 3, "velocity": 85}, {"time": 2179, "pitch": 70, "duration": 5, "velocity": 80}, {"time": 2185, "pitch": 58, "duration": 4, "velocity": 80}, {"time": 2191, "pitch": 51, "duration": 25, "velocity": 80}, {"time": 2191, "pitch": 58, "duration": 4, "velocity": 80}, {"time": 2191, "pitch": 63, "duration": 8, "velocity": 80}, {"time": 2197, "pitch": 54, "duration": 19, "velocity": 55}, {"time": 2203, "pitch": 66, "duration": 4, "velocity": 81}, {"time": 2209, "pitch": 58, "duration": 3, "velocity": 81}, {"time": 2215, "pitch": 63, "duration": 7, "velocity": 81}, {"time": 2221, "pitch": 51, "duration": 12, "velocity": 76}, {"time": 2227, "pitch": 58, "duration": 3, "velocity": 80}, {"time": 2227, "pitch": 66, "duration": 6, "velocity": 80}, {"time": 2233, "pitch": 63, "duration": 2, "velocity": 79}, {"time": 2239, "pitch": 49, "duration": 27, "velocity": 78}, {"time": 2239, "pitch": 61, "duration": 7, "velocity": 80}, {"time": 2245, "pitch": 56, "duration": 7, "velocity": 73}, {"time": 2251, "pitch": 61, "duration": 3, "velocity": 78}, {"time": 2257, "pitch": 63, "duration": 3, "velocity": 72}, {"time": 2263, "pitch": 56, "duration": 2, "velocity": 81}, {"time": 2263, "pitch": 65, "duration": 5, "velocity": 83}, {"time": 2269, "pitch": 56, "duration": 2, "velocity": 78}, {"time": 2275, "pitch": 56, "duration": 3, "velocity": 81}, {"time": 2275, "pitch": 61, "duration": 3, "velocity": 82}, {"time": 2281, "pitch": 49, "duration": 1, "velocity": 82}, {"time": 2287, "pitch": 46, "duration": 43, "velocity": 81}, {"time": 2287, "pitch": 58, "duration": 12, "velocity": 76}, {"time": 2287, "pitch": 61, "duration": 12, "velocity": 80}, {"time": 2293, "pitch": 53, "duration": 21, "velocity": 74}, {"time": 2299, "pitch": 65, "duration": 5, "velocity": 84}, {"time": 2305, "pitch": 61, "duration": 1, "velocity": 81}, {"time": 2311, "pitch": 58, "duration": 4, "velocity": 80}, {"time": 2311, "pitch": 70, "duration": 2, "velocity": 78}, {"time": 2317, "pitch": 53, "duration": 7, "velocity": 71}, {"time": 2323, "pitch": 58, "duration": 4, "velocity": 75}, {"time": 2323, "pitch": 65, "duration": 4, "velocity": 81}, {"time": 2326, "pitch": 53, "duration": 4, "velocity": 78}, {"time": 2329, "pitch": 58, "duration": 3, "velocity": 80}, {"time": 2335, "pitch": 51, "duration": 21, "velocity": 83}, {"time": 2335, "pitch": 58, "duration": 4, "velocity": 73}, {"time": 2335, "pitch": 63, "duration": 7, "velocity": 76}, {"time": 2341, "pitch": 58, "duration": 3, "velocity": 68}, {"time": 2347, "pitch": 66, "duration": 4, "velocity": 80}, {"time": 2353, "pitch": 65, "duration": 6, "velocity": 81}, {"time": 2359, "pitch": 63, "duration": 6, "velocity": 82}, {"time": 2365, "pitch": 58, "duration": 3, "velocity": 81}, {"time": 2371, "pitch": 58, "duration": 3, "velocity": 79}, {"time": 2371, "pitch": 63, "duration": 4, "velocity": 81}, {"time": 2377, "pitch": 61, "duration": 2, "velocity": 80}, {"time": 2383, "pitch": 44, "duration": 20, "velocity": 80}, {"time": 2383, "pitch": 56, "duration": 8, "velocity": 72}, {"time": 2383, "pitch": 59, "duration": 8, "velocity": 69}, {"time": 2389, "pitch": 51, "duration": 8, "velocity": 67}, {"time": 2395, "pitch": 63, "duration": 10, "velocity": 80}, {"time": 2401, "pitch": 51, "duration": 3, "velocity": 73}, {"time": 2407, "pitch": 49, "duration": 18, "velocity": 76}, {"time": 2407, "pitch": 56, "duration": 3, "velocity": 73}, {"time": 2407, "pitch": 61, "duration": 7, "velocity": 75}, {"time": 2413, "pitch": 56, "duration": 5, "velocity": 80}, {"time": 2419, "pitch": 61, "duration": 2, "velocity": 83}, {"time": 2425, "pitch": 58, "duration": 3, "velocity": 76}, {"time": 2428, "pitch": 56, "duration": 2, "velocity": 80}, {"time": 2431, "pitch": 42, "duration": 40, "velocity": 80}, {"time": 2431, "pitch": 54, "duration": 19, "velocity": 80}, {"time": 2437, "pitch": 49, "duration": 33, "velocity": 65}, {"time": 2443, "pitch": 61, "duration": 8, "velocity": 74}, {"time": 2449, "pitch": 58, "duration": 3, "velocity": 73}, {"time": 2455, "pitch": 66, "duration": 7, "velocity": 81}, {"time": 2461, "pitch": 54, "duration": 5, "velocity": 68}, {"time": 2467, "pitch": 61, "duration": 2, "velocity": 70}, {"time": 2479, "pitch": 42, "duration": 16, "velocity": 80}, {"time": 2479, "pitch": 58, "duration": 6, "velocity": 75}, {"time": 2479, "pitch": 66, "duration": 7, "velocity": 76}, {"time": 2485, "pitch": 49, "duration": 8, "velocity": 49}, {"time": 2491, "pitch": 58, "duration": 4, "velocity": 76}, {"time": 2491, "pitch": 61, "duration": 4, "velocity": 81}, {"time": 2497, "pitch": 49, "duration": 11, "velocity": 73}, {"time": 2503, "pitch": 58, "duration": 3, "velocity": 75}, {"time": 2503, "pitch": 66, "duration": 3, "velocity": 76}, {"time": 2509, "pitch": 42, "duration": 9, "velocity": 61}, {"time": 2515, "pitch": 58, "duration": 6, "velocity": 75}, {"time": 2515, "pitch": 61, "duration": 8, "velocity": 80}, {"time": 2515, "pitch": 66, "duration": 9, "velocity": 79}, {"time": 2521, "pitch": 44, "duration": 3, "velocity": 81}, {"time": 2527, "pitch": 46, "duration": 45, "velocity": 80}, {"time": 2527, "pitch": 58, "duration": 8, "velocity": 72}, {"time": 2527, "pitch": 61, "duration": 7, "velocity": 75}, {"time": 2533, "pitch": 53, "duration": 8, "velocity": 69}, {"time": 2539, "pitch": 58, "duration": 5, "velocity": 75}, {"time": 2539, "pitch": 65, "duration": 4, "velocity": 81}, {"time": 2545, "pitch": 53, "duration": 26, "velocity": 74}, {"time": 2551, "pitch": 70, "duration": 5, "velocity": 86}, {"time": 2557, "pitch": 58, "duration": 4, "velocity": 83}, {"time": 2563, "pitch": 58, "duration": 4, "velocity": 76}, {"time": 2563, "pitch": 65, "duration": 5, "velocity": 81}, {"time": 2569, "pitch": 63, "duration": 4, "velocity": 80}, {"time": 2575, "pitch": 51, "duration": 20, "velocity": 82}, {"time": 2575, "pitch": 58, "duration": 6, "velocity": 79}, {"time": 2575, "pitch": 63, "duration": 7, "velocity": 78}, {"time": 2581, "pitch": 54, "duration": 12, "velocity": 65}, {"time": 2587, "pitch": 66, "duration": 6, "velocity": 81}, {"time": 2593, "pitch": 58, "duration": 3, "velocity": 81}, {"time": 2599, "pitch": 58, "duration": 2, "velocity": 81}, {"time": 2599, "pitch": 63, "duration": 8, "velocity": 80}, {"time": 2605, "pitch": 58, "duration": 3, "velocity": 58}, {"time": 2611, "pitch": 51, "duration": 3, "velocity": 82}, {"time": 2611, "pitch": 58, "duration": 7, "velocity": 80}, {"time": 2611, "pitch": 63, "duration": 8, "velocity": 78}, {"time": 2617, "pitch": 46, "duration": 2, "velocity": 79}, {"time": 2623, "pitch": 49, "duration": 21, "velocity": 84}, {"time": 2623, "pitch": 56, "duration": 3, "velocity": 81}, {"time": 2623, "pitch": 61, "duration": 8, "velocity": 78}, {"time": 2629, "pitch": 56, "duration": 3, "velocity": 68}, {"time": 2635, "pitch": 56, "duration": 2, "velocity": 81}, {"time": 2635, "pitch": 65, "duration": 6, "velocity": 81}, {"time": 2641, "pitch": 63, "duration": 4, "velocity": 75}, {"time": 2647, "pitch": 49, "duration": 18, "velocity": 73}, {"time": 2647, "pitch": 56, "duration": 2, "velocity": 69}, {"time": 2647, "pitch": 61, "duration": 7, "velocity": 71}, {"time": 2653, "pitch": 56, "duration": 3, "velocity": 76}, {"time": 2659, "pitch": 56, "duration": 6, "velocity": 81}, {"time": 2659, "pitch": 65, "duration": 6, "velocity": 83}, {"time": 2665, "pitch": 61, "duration": 2, "velocity": 72}, {"time": 2671, "pitch": 44, "duration": 39, "velocity": 81}, {"time": 2671, "pitch": 56, "duration": 9, "velocity": 70}, {"time": 2671, "pitch": 59, "duration": 7, "velocity": 77}, {"time": 2677, "pitch": 51, "duration": 21, "velocity": 65}, {"time": 2683, "pitch": 63, "duration": 3, "velocity": 81}, {"time": 2689, "pitch": 59, "duration": 2, "velocity": 80}, {"time": 2695, "pitch": 56, "duration": 3, "velocity": 81}, {"time": 2695, "pitch": 68, "duration": 3, "velocity": 73}, {"time": 2701, "pitch": 51, "duration": 8, "velocity": 49}, {"time": 2707, "pitch": 59, "duration": 6, "velocity": 81}, {"time": 2707, "pitch": 63, "duration": 9, "velocity": 81}, {"time": 2713, "pitch": 44, "duration": 3, "velocity": 81}, {"time": 2719, "pitch": 46, "duration": 15, "velocity": 75}, {"time": 2719, "pitch": 58, "duration": 7, "velocity": 78}, {"time": 2719, "pitch": 61, "duration": 7, "velocity": 80}, {"time": 2725, "pitch": 53, "duration": 9, "velocity": 69}, {"time": 2731, "pitch": 58, "duration": 4, "velocity": 75}, {"time": 2731, "pitch": 61, "duration": 4, "velocity": 81}, {"time": 2731, "pitch": 65, "duration": 4, "velocity": 82}, {"time": 2737, "pitch": 46, "duration": 2, "velocity": 81}, {"time": 2743, "pitch": 39, "duration": 2, "velocity": 71}, {"time": 2743, "pitch": 58, "duration": 8, "velocity": 72}, {"time": 2743, "pitch": 63, "duration": 9, "velocity": 77}, {"time": 2749, "pitch": 51, "duration": 8, "velocity": 67}, {"time": 2755, "pitch": 58, "duration": 2, "velocity": 76}, {"time": 2755, "pitch": 63, "duration": 3, "velocity": 81}, {"time": 2755, "pitch": 66, "duration": 4, "velocity": 81}, {"time": 2767, "pitch": 44, "duration": 38, "velocity": 81}, {"time": 2767, "pitch": 56, "duration": 9, "velocity": 76}, {"time": 2767, "pitch": 63, "duration": 8, "velocity": 79}, {"time": 2773, "pitch": 51, "duration": 32, "velocity": 65}, {"time": 2779, "pitch": 59, "duration": 2, "velocity": 84}, {"time": 2785, "pitch": 56, "duration": 4, "velocity": 80}, {"time": 2791, "pitch": 56, "duration": 3, "velocity": 76}, {"time": 2791, "pitch": 68, "duration": 4, "velocity": 76}, {"time": 2797, "pitch": 56, "duration": 3, "velocity": 72}, {"time": 2803, "pitch": 56, "duration": 4, "velocity": 75}, {"time": 2803, "pitch": 59, "duration": 4, "velocity": 81}, {"time": 2803, "pitch": 63, "duration": 7, "velocity": 81}, {"time": 2809, "pitch": 44, "duration": 4, "velocity": 78}, {"time": 2815, "pitch": 49, "duration": 20, "velocity": 80}, {"time": 2815, "pitch": 56, "duration": 2, "velocity": 80}, {"time": 2815, "pitch": 61, "duration": 7, "velocity": 80}, {"time": 2821, "pitch": 56, "duration": 3, "velocity": 74}, {"time": 2827, "pitch": 56, "duration": 3, "velocity": 80}, {"time": 2827, "pitch": 63, "duration": 7, "velocity": 82}, {"time": 2833, "pitch": 56, "duration": 3, "velocity": 77}, {"time": 2839, "pitch": 49, "duration": 19, "velocity": 82}, {"time": 2839, "pitch": 56, "duration": 2, "velocity": 80}, {"time": 2839, "pitch": 61, "duration": 7, "velocity": 81}, {"time": 2839, "pitch": 65, "duration": 7, "velocity": 82}, {"time": 2845, "pitch": 56, "duration": 3, "velocity": 72}, {"time": 2851, "pitch": 56, "duration": 3, "velocity": 81}, {"time": 2851, "pitch": 63, "duration": 4, "velocity": 80}, {"time": 2863, "pitch": 42, "duration": 34, "velocity": 76}, {"time": 2863, "pitch": 58, "duration": 6, "velocity": 70}, {"time": 2863, "pitch": 61, "duration": 7, "velocity": 74}, {"time": 2869, "pitch": 49, "duration": 26, "velocity": 75}, {"time": 2875, "pitch": 66, "duration": 3, "velocity": 81}, {"time": 2878, "pitch": 61, "duration": 3, "velocity": 82}, {"time": 2881, "pitch": 58, "duration": 3, "velocity": 79}, {"time": 2887, "pitch": 58, "duration": 3, "velocity": 71}, {"time": 2887, "pitch": 61, "duration": 4, "velocity": 73}, {"time": 2893, "pitch": 58, "duration": 2, "velocity": 70}, {"time": 2899, "pitch": 58, "duration": 2, "velocity": 80}, {"time": 2899, "pitch": 61, "duration": 6, "velocity": 82}, {"time": 2899, "pitch": 66, "duration": 7, "velocity": 80}, {"time": 2905, "pitch": 58, "duration": 2, "velocity": 78}, {"time": 2911, "pitch": 51, "duration": 17, "velocity": 81}, {"time": 2911, "pitch": 58, "duration": 3, "velocity": 72}, {"time": 2911, "pitch": 63, "duration": 6, "velocity": 72}, {"time": 2917, "pitch": 58, "duration": 1, "velocity": 64}, {"time": 2923, "pitch": 58, "duration": 3, "velocity": 81}, {"time": 2923, "pitch": 66, "duration": 4, "velocity": 80}, {"time": 2926, "pitch": 65, "duration": 4, "velocity": 81}, {"time": 2929, "pitch": 58, "duration": 2, "velocity": 60}, {"time": 2929, "pitch": 63, "duration": 3, "velocity": 75}, {"time": 2935, "pitch": 51, "duration": 15, "velocity": 80}, {"time": 2935, "pitch": 58, "duration": 2, "velocity": 74}, {"time": 2935, "pitch": 63, "duration": 7, "velocity": 72}, {"time": 2941, "pitch": 58, "duration": 2, "velocity": 67}, {"time": 2947, "pitch": 58, "duration": 3, "velocity": 74}, {"time": 2947, "pitch": 63, "duration": 6, "velocity": 75}, {"time": 2947, "pitch": 66, "duration": 6, "velocity": 80}, {"time": 2959, "pitch": 51, "duration": 14, "velocity": 81}, {"time": 2959, "pitch": 58, "duration": 2, "velocity": 74}, {"time": 2959, "pitch": 63, "duration": 7, "velocity": 76}, {"time": 2965, "pitch": 58, "duration": 2, "velocity": 66}, {"time": 2971, "pitch": 58, "duration": 3, "velocity": 77}, {"time": 2971, "pitch": 66, "duration": 8, "velocity": 80}, {"time": 2977, "pitch": 58, "duration": 3, "velocity": 71}, {"time": 2983, "pitch": 39, "duration": 14, "velocity": 80}, {"time": 2983, "pitch": 58, "duration": 3, "velocity": 75}, {"time": 2983, "pitch": 63, "duration": 7, "velocity": 74}, {"time": 2989, "pitch": 58, "duration": 2, "velocity": 70}, {"time": 2995, "pitch": 58, "duration": 3, "velocity": 79}, {"time": 2995, "pitch": 63, "duration": 6, "velocity": 80}, {"time": 3001, "pitch": 61, "duration": 4, "velocity": 79}, {"time": 3007, "pitch": 44, "duration": 15, "velocity": 82}, {"time": 3007, "pitch": 56, "duration": 6, "velocity": 75}, {"time": 3007, "pitch": 63, "duration": 5, "velocity": 79}, {"time": 3013, "pitch": 51, "duration": 8, "velocity": 67}, {"time": 3019, "pitch": 56, "duration": 5, "velocity": 82}, {"time": 3019, "pitch": 59, "duration": 5, "velocity": 85}, {"time": 3019, "pitch": 63, "duration": 7, "velocity": 85}, {"time": 3025, "pitch": 44, "duration": 4, "velocity": 80}, {"time": 3028, "pitch": 56, "duration": 2, "velocity": 80}, {"time": 3031, "pitch": 49, "duration": 17, "velocity": 83}, {"time": 3031, "pitch": 56, "duration": 3, "velocity": 81}, {"time": 3031, "pitch": 61, "duration": 8, "velocity": 82}, {"time": 3037, "pitch": 56, "duration": 2, "velocity": 77}, {"time": 3043, "pitch": 56, "duration": 2, "velocity": 80}, {"time": 3043, "pitch": 61, "duration": 6, "velocity": 84}, {"time": 3043, "pitch": 65, "duration": 7, "velocity": 84}, {"time": 3049, "pitch": 56, "duration": 3, "velocity": 81}, {"time": 3055, "pitch": 44, "duration": 19, "velocity": 81}, {"time": 3055, "pitch": 56, "duration": 7, "velocity": 80}, {"time": 3055, "pitch": 63, "duration": 6, "velocity": 77}, {"time": 3061, "pitch": 51, "duration": 12, "velocity": 61}, {"time": 3067, "pitch": 59, "duration": 6, "velocity": 82}, {"time": 3073, "pitch": 56, "duration": 5, "velocity": 76}, {"time": 3079, "pitch": 44, "duration": 14, "velocity": 79}, {"time": 3079, "pitch": 59, "duration": 5, "velocity": 69}, {"time": 3079, "pitch": 63, "duration": 4, "velocity": 76}, {"time": 3085, "pitch": 51, "duration": 7, "velocity": 55}, {"time": 3091, "pitch": 56, "duration": 5, "velocity": 76}, {"time": 3091, "pitch": 59, "duration": 5, "velocity": 80}, {"time": 3097, "pitch": 44, "duration": 4, "velocity": 80}, {"time": 3103, "pitch": 46, "duration": 15, "velocity": 80}, {"time": 3103, "pitch": 58, "duration": 6, "velocity": 76}, {"time": 3103, "pitch": 61, "duration": 6, "velocity": 80}, {"time": 3109, "pitch": 53, "duration": 8, "velocity": 74}, {"time": 3115, "pitch": 58, "duration": 2, "velocity": 72}, {"time": 3115, "pitch": 61, "duration": 6, "velocity": 75}, {"time": 3115, "pitch": 65, "duration": 6, "velocity": 83}, {"time": 3121, "pitch": 58, "duration": 3, "velocity": 82}, {"time": 3127, "pitch": 51, "duration": 14, "velocity": 81}, {"time": 3127, "pitch": 58, "duration": 3, "velocity": 82}, {"time": 3127, "pitch": 66, "duration": 7, "velocity": 80}, {"time": 3133, "pitch": 58, "duration": 2, "velocity": 80}, {"time": 3139, "pitch": 66, "duration": 4, "velocity": 85}, {"time": 3142, "pitch": 65, "duration": 3, "velocity": 81}, {"time": 3145, "pitch": 63, "duration": 3, "velocity": 83}, {"time": 3148, "pitch": 61, "duration": 2, "velocity": 74}, {"time": 3151, "pitch": 44, "duration": 43, "velocity": 81}, {"time": 3151, "pitch": 59, "duration": 7, "velocity": 81}, {"time": 3157, "pitch": 51, "duration": 21, "velocity": 69}, {"time": 3163, "pitch": 59, "duration": 5, "velocity": 83}, {"time": 3163, "pitch": 63, "duration": 6, "velocity": 81}, {"time": 3169, "pitch": 56, "duration": 3, "velocity": 70}, {"time": 3175, "pitch": 56, "duration": 4, "velocity": 81}, {"time": 3175, "pitch": 63, "duration": 4, "velocity": 76}, {"time": 3181, "pitch": 51, "duration": 12, "velocity": 62}, {"time": 3187, "pitch": 59, "duration": 5, "velocity": 86}, {"time": 3193, "pitch": 56, "duration": 5, "velocity": 81}, {"time": 3199, "pitch": 49, "duration": 23, "velocity": 81}, {"time": 3199, "pitch": 61, "duration": 7, "velocity": 86}, {"time": 3205, "pitch": 56, "duration": 3, "velocity": 80}, {"time": 3211, "pitch": 63, "duration": 5, "velocity": 85}, {"time": 3217, "pitch": 56, "duration": 5, "velocity": 78}, {"time": 3217, "pitch": 63, "duration": 2, "velocity": 77}, {"time": 3223, "pitch": 49, "duration": 22, "velocity": 85}, {"time": 3223, "pitch": 65, "duration": 7, "velocity": 87}, {"time": 3229, "pitch": 56, "duration": 3, "velocity": 83}, {"time": 3235, "pitch": 56, "duration": 3, "velocity": 85}, {"time": 3235, "pitch": 63, "duration": 3, "velocity": 84}, {"time": 3241, "pitch": 61, "duration": 5, "velocity": 77}, {"time": 3247, "pitch": 42, "duration": 34, "velocity": 76}, {"time": 3247, "pitch": 58, "duration": 6, "velocity": 70}, {"time": 3247, "pitch": 61, "duration": 7, "velocity": 74}, {"time": 3253, "pitch": 49, "duration": 26, "velocity": 75}, {"time": 3259, "pitch": 66, "duration": 3, "velocity": 81}, {"time": 3262, "pitch": 61, "duration": 3, "velocity": 82}, {"time": 3265, "pitch": 58, "duration": 3, "velocity": 79}, {"time": 3271, "pitch": 58, "duration": 3, "velocity": 71}, {"time": 3271, "pitch": 61, "duration": 4, "velocity": 73}, {"time": 3277, "pitch": 58, "duration": 2, "velocity": 70}, {"time": 3283, "pitch": 58, "duration": 2, "velocity": 80}, {"time": 3283, "pitch": 61, "duration": 6, "velocity": 82}, {"time": 3283, "pitch": 66, "duration": 7, "velocity": 80}, {"time": 3289, "pitch": 58, "duration": 2, "velocity": 78}, {"time": 3295, "pitch": 51, "duration": 17, "velocity": 81}, {"time": 3295, "pitch": 58, "duration": 3, "velocity": 72}, {"time": 3295, "pitch": 63, "duration": 6, "velocity": 72}, {"time": 3301, "pitch": 58, "duration": 1, "velocity": 64}, {"time": 3307, "pitch": 58, "duration": 3, "velocity": 81}, {"time": 3307, "pitch": 66, "duration": 4, "velocity": 80}, {"time": 3310, "pitch": 65, "duration": 4, "velocity": 81}, {"time": 3313, "pitch": 58, "duration": 2, "velocity": 60}, {"time": 3313, "pitch": 63, "duration": 3, "velocity": 75}, {"time": 3319, "pitch": 51, "duration": 15, "velocity": 80}, {"time": 3319, "pitch": 58, "duration": 2, "velocity": 74}, {"time": 3319, "pitch": 63, "duration": 7, "velocity": 72}, {"time": 3325, "pitch": 58, "duration": 2, "velocity": 67}, {"time": 3331, "pitch": 58, "duration": 3, "velocity": 74}, {"time": 3331, "pitch": 63, "duration": 6, "velocity": 75}, {"time": 3331, "pitch": 66, "duration": 6, "velocity": 80}, {"time": 3343, "pitch": 51, "duration": 14, "velocity": 81}, {"time": 3343, "pitch": 58, "duration": 2, "velocity": 74}, {"time": 3343, "pitch": 63, "duration": 7, "velocity": 76}, {"time": 3349, "pitch": 58, "duration": 2, "velocity": 66}, {"time": 3355, "pitch": 58, "duration": 3, "velocity": 77}, {"time": 3355, "pitch": 66, "duration": 8, "velocity": 80}, {"time": 3361, "pitch": 58, "duration": 3, "velocity": 71}, {"time": 3367, "pitch": 39, "duration": 14, "velocity": 80}, {"time": 3367, "pitch": 58, "duration": 3, "velocity": 75}, {"time": 3367, "pitch": 63, "duration": 7, "velocity": 74}, {"time": 3373, "pitch": 58, "duration": 2, "velocity": 70}, {"time": 3379, "pitch": 58, "duration": 3, "velocity": 79}, {"time": 3379, "pitch": 63, "duration": 6, "velocity": 80}, {"time": 3385, "pitch": 61, "duration": 4, "velocity": 79}, {"time": 3391, "pitch": 44, "duration": 15, "velocity": 82}, {"time": 3391, "pitch": 56, "duration": 6, "velocity": 75}, {"time": 3391, "pitch": 63, "duration": 5, "velocity": 79}, {"time": 3397, "pitch": 51, "duration": 8, "velocity": 67}, {"time": 3403, "pitch": 56, "duration": 5, "velocity": 82}, {"time": 3403, "pitch": 59, "duration": 5, "velocity": 85}, {"time": 3403, "pitch": 63, "duration": 7, "velocity": 85}, {"time": 3409, "pitch": 44, "duration": 4, "velocity": 80}, {"time": 3412, "pitch": 56, "duration": 2, "velocity": 80}, {"time": 3415, "pitch": 49, "duration": 17, "velocity": 83}, {"time": 3415, "pitch": 56, "duration": 3, "velocity": 81}, {"time": 3415, "pitch": 61, "duration": 8, "velocity": 82}, {"time": 3421, "pitch": 56, "duration": 2, "velocity": 77}, {"time": 3427, "pitch": 56, "duration": 2, "velocity": 80}, {"time": 3427, "pitch": 61, "duration": 6, "velocity": 84}, {"time": 3427, "pitch": 65, "duration": 7, "velocity": 84}, {"time": 3433, "pitch": 56, "duration": 3, "velocity": 81}, {"time": 3439, "pitch": 44, "duration": 19, "velocity": 81}, {"time": 3439, "pitch": 56, "duration": 7, "velocity": 80}, {"time": 3439, "pitch": 63, "duration": 6, "velocity": 77}, {"time": 3445, "pitch": 51, "duration": 12, "velocity": 61}, {"time": 3451, "pitch": 59, "duration": 6, "velocity": 82}, {"time": 3457, "pitch": 56, "duration": 5, "velocity": 76}, {"time": 3463, "pitch": 44, "duration": 14, "velocity": 79}, {"time": 3463, "pitch": 59, "duration": 5, "velocity": 69}, {"time": 3463, "pitch": 63, "duration": 4, "velocity": 76}, {"time": 3469, "pitch": 51, "duration": 7, "velocity": 55}, {"time": 3475, "pitch": 56, "duration": 5, "velocity": 76}, {"time": 3475, "pitch": 59, "duration": 5, "velocity": 80}, {"time": 3481, "pitch": 44, "duration": 4, "velocity": 80}, {"time": 3487, "pitch": 46, "duration": 15, "velocity": 80}, {"time": 3487, "pitch": 58, "duration": 6, "velocity": 76}, {"time": 3487, "pitch": 61, "duration": 6, "velocity": 80}, {"time": 3493, "pitch": 53, "duration": 8, "velocity": 74}, {"time": 3499, "pitch": 58, "duration": 2, "velocity": 72}, {"time": 3499, "pitch": 61, "duration": 6, "velocity": 75}, {"time": 3499, "pitch": 65, "duration": 6, "velocity": 83}, {"time": 3505, "pitch": 58, "duration": 3, "velocity": 82}, {"time": 3511, "pitch": 51, "duration": 14, "velocity": 81}, {"time": 3511, "pitch": 58, "duration": 3, "velocity": 82}, {"time": 3511, "pitch": 66, "duration": 7, "velocity": 80}, {"time": 3517, "pitch": 58, "duration": 2, "velocity": 80}, {"time": 3523, "pitch": 66, "duration": 4, "velocity": 85}, {"time": 3526, "pitch": 65, "duration": 3, "velocity": 81}, {"time": 3529, "pitch": 63, "duration": 3, "velocity": 83}, {"time": 3532, "pitch": 61, "duration": 2, "velocity": 74}, {"time": 3535, "pitch": 44, "duration": 43, "velocity": 81}, {"time": 3535, "pitch": 59, "duration": 7, "velocity": 81}, {"time": 3541, "pitch": 51, "duration": 21, "velocity": 69}, {"time": 3547, "pitch": 59, "duration": 5, "velocity": 83}, {"time": 3547, "pitch": 63, "duration": 6, "velocity": 81}, {"time": 3553, "pitch": 56, "duration": 3, "velocity": 70}, {"time": 3559, "pitch": 56, "duration": 4, "velocity": 81}, {"time": 3559, "pitch": 63, "duration": 4, "velocity": 76}, {"time": 3565, "pitch": 51, "duration": 12, "velocity": 62}, {"time": 3571, "pitch": 59, "duration": 5, "velocity": 86}, {"time": 3577, "pitch": 56, "duration": 5, "velocity": 81}, {"time": 3583, "pitch": 49, "duration": 23, "velocity": 81}, {"time": 3583, "pitch": 61, "duration": 7, "velocity": 86}, {"time": 3589, "pitch": 56, "duration": 3, "velocity": 80}, {"time": 3595, "pitch": 63, "duration": 5, "velocity": 85}, {"time": 3601, "pitch": 56, "duration": 5, "velocity": 78}, {"time": 3601, "pitch": 63, "duration": 2, "velocity": 77}, {"time": 3607, "pitch": 49, "duration": 22, "velocity": 85}, {"time": 3607, "pitch": 65, "duration": 7, "velocity": 87}, {"time": 3613, "pitch": 56, "duration": 3, "velocity": 83}, {"time": 3619, "pitch": 56, "duration": 3, "velocity": 85}, {"time": 3619, "pitch": 63, "duration": 3, "velocity": 84}, {"time": 3625, "pitch": 61, "duration": 5, "velocity": 77}, {"time": 3628, "pitch": 56, "duration": 8, "velocity": 65}, {"time": 3629, "pitch": 59, "duration": 12, "velocity": 81}, {"time": 3631, "pitch": 63, "duration": 13, "velocity": 73}, {"time": 3631, "pitch": 44, "duration": 16, "velocity": 81}, {"time": 3631, "pitch": 68, "duration": 10, "velocity": 76}, {"time": 3636, "pitch": 51, "duration": 10, "velocity": 69}, {"time": 3642, "pitch": 56, "duration": 3, "velocity": 81}, {"time": 3652, "pitch": 56, "duration": 3, "velocity": 73}, {"time": 3653, "pitch": 61, "duration": 6, "velocity": 75}, {"time": 3655, "pitch": 65, "duration": 9, "velocity": 83}, {"time": 3655, "pitch": 49, "duration": 7, "velocity": 84}, {"time": 3661, "pitch": 56, "duration": 3, "velocity": 82}, {"time": 3666, "pitch": 56, "duration": 3, "velocity": 73}, {"time": 3666, "pitch": 61, "duration": 2, "velocity": 70}, {"time": 3679, "pitch": 42, "duration": 43, "velocity": 80}, {"time": 3679, "pitch": 54, "duration": 6, "velocity": 73}, {"time": 3679, "pitch": 58, "duration": 7, "velocity": 74}, {"time": 3685, "pitch": 49, "duration": 33, "velocity": 68}, {"time": 3691, "pitch": 54, "duration": 3, "velocity": 83}, {"time": 3697, "pitch": 56, "duration": 2, "velocity": 86}, {"time": 3703, "pitch": 58, "duration": 7, "velocity": 82}, {"time": 3709, "pitch": 61, "duration": 3, "velocity": 81}, {"time": 3715, "pitch": 58, "duration": 12, "velocity": 78}, {"time": 3715, "pitch": 61, "duration": 12, "velocity": 84}, {"time": 3715, "pitch": 66, "duration": 12, "velocity": 82}, {"time": 3721, "pitch": 49, "duration": 6, "velocity": 80}, {"time": 3727, "pitch": 42, "duration": 38, "velocity": 80}, {"time": 3733, "pitch": 49, "duration": 32, "velocity": 74}, {"time": 3739, "pitch": 61, "duration": 21, "velocity": 76}, {"time": 3745, "pitch": 54, "duration": 7, "velocity": 78}, {"time": 3751, "pitch": 66, "duration": 8, "velocity": 81}, {"time": 3757, "pitch": 54, "duration": 4, "velocity": 63}, {"time": 3763, "pitch": 61, "duration": 2, "velocity": 76}, {"time": 3775, "pitch": 51, "duration": 27, "velocity": 74}, {"time": 3775, "pitch": 63, "duration": 13, "velocity": 76}, {"time": 3781, "pitch": 58, "duration": 7, "velocity": 69}, {"time": 3787, "pitch": 66, "duration": 7, "velocity": 86}, {"time": 3793, "pitch": 65, "duration": 5, "velocity": 85}, {"time": 3799, "pitch": 63, "duration": 6, "velocity": 82}, {"time": 3805, "pitch": 58, "duration": 3, "velocity": 72}, {"time": 3811, "pitch": 51, "duration": 4, "velocity": 79}, {"time": 3811, "pitch": 58, "duration": 4, "velocity": 73}, {"time": 3811, "pitch": 63, "duration": 6, "velocity": 79}, {"time": 3823, "pitch": 51, "duration": 32, "velocity": 77}, {"time": 3823, "pitch": 66, "duration": 10, "velocity": 79}, {"time": 3829, "pitch": 58, "duration": 7, "velocity": 72}, {"time": 3835, "pitch": 63, "duration": 7, "velocity": 76}, {"time": 3841, "pitch": 58, "duration": 7, "velocity": 76}, {"time": 3847, "pitch": 66, "duration": 7, "velocity": 82}, {"time": 3853, "pitch": 65, "duration": 7, "velocity": 82}, {"time": 3859, "pitch": 51, "duration": 4, "velocity": 77}, {"time": 3859, "pitch": 63, "duration": 6, "velocity": 82}, {"time": 3865, "pitch": 58, "duration": 3, "velocity": 81}, {"time": 3871, "pitch": 44, "duration": 22, "velocity": 80}, {"time": 3871, "pitch": 56, "duration": 9, "velocity": 75}, {"time": 3871, "pitch": 63, "duration": 10, "velocity": 76}, {"time": 3877, "pitch": 51, "duration": 15, "velocity": 65}, {"time": 3883, "pitch": 59, "duration": 6, "velocity": 82}, {"time": 3889, "pitch": 56, "duration": 4, "velocity": 79}, {"time": 3895, "pitch": 49, "duration": 24, "velocity": 76}, {"time": 3895, "pitch": 61, "duration": 8, "velocity": 82}, {"time": 3901, "pitch": 56, "duration": 7, "velocity": 82}, {"time": 3907, "pitch": 65, "duration": 13, "velocity": 87}, {"time": 3913, "pitch": 56, "duration": 7, "velocity": 80}, {"time": 3919, "pitch": 44, "duration": 19, "velocity": 81}, {"time": 3919, "pitch": 56, "duration": 1, "velocity": 80}, {"time": 3919, "pitch": 63, "duration": 6, "velocity": 77}, {"time": 3925, "pitch": 51, "duration": 12, "velocity": 61}, {"time": 3931, "pitch": 59, "duration": 6, "velocity": 82}, {"time": 3937, "pitch": 56, "duration": 5, "velocity": 76}, {"time": 3943, "pitch": 44, "duration": 14, "velocity": 79}, {"time": 3943, "pitch": 59, "duration": 5, "velocity": 69}, {"time": 3943, "pitch": 63, "duration": 4, "velocity": 76}, {"time": 3949, "pitch": 51, "duration": 7, "velocity": 55}, {"time": 3955, "pitch": 56, "duration": 5, "velocity": 76}, {"time": 3955, "pitch": 59, "duration": 5, "velocity": 80}, {"time": 3961, "pitch": 44, "duration": 4, "velocity": 80}, {"time": 3967, "pitch": 46, "duration": 15, "velocity": 80}, {"time": 3967, "pitch": 58, "duration": 6, "velocity": 76}, {"time": 3967, "pitch": 61, "duration": 6, "velocity": 80}, {"time": 3973, "pitch": 53, "duration": 8, "velocity": 74}, {"time": 3979, "pitch": 58, "duration": 2, "velocity": 72}, {"time": 3979, "pitch": 61, "duration": 6, "velocity": 75}, {"time": 3979, "pitch": 65, "duration": 6, "velocity": 83}, {"time": 3985, "pitch": 58, "duration": 3, "velocity": 82}, {"time": 3991, "pitch": 51, "duration": 14, "velocity": 81}, {"time": 3991, "pitch": 58, "duration": 3, "velocity": 82}, {"time": 3991, "pitch": 66, "duration": 7, "velocity": 80}, {"time": 3997, "pitch": 58, "duration": 2, "velocity": 80}, {"time": 4003, "pitch": 66, "duration": 4, "velocity": 85}, {"time": 4006, "pitch": 65, "duration": 3, "velocity": 81}, {"time": 4009, "pitch": 63, "duration": 3, "velocity": 83}, {"time": 4012, "pitch": 61, "duration": 2, "velocity": 74}, {"time": 4015, "pitch": 44, "duration": 43, "velocity": 81}, {"time": 4015, "pitch": 59, "duration": 7, "velocity": 81}, {"time": 4021, "pitch": 51, "duration": 21, "velocity": 69}, {"time": 4027, "pitch": 59, "duration": 5, "velocity": 83}, {"time": 4027, "pitch": 63, "duration": 6, "velocity": 81}, {"time": 4033, "pitch": 56, "duration": 3, "velocity": 70}, {"time": 4039, "pitch": 56, "duration": 4, "velocity": 81}, {"time": 4039, "pitch": 63, "duration": 4, "velocity": 76}, {"time": 4045, "pitch": 51, "duration": 12, "velocity": 62}, {"time": 4051, "pitch": 59, "duration": 5, "velocity": 86}, {"time": 4057, "pitch": 56, "duration": 5, "velocity": 81}, {"time": 4063, "pitch": 49, "duration": 23, "velocity": 81}, {"time": 4063, "pitch": 61, "duration": 7, "velocity": 86}, {"time": 4069, "pitch": 56, "duration": 3, "velocity": 80}, {"time": 4075, "pitch": 63, "duration": 5, "velocity": 85}, {"time": 4081, "pitch": 56, "duration": 5, "velocity": 78}, {"time": 4081, "pitch": 63, "duration": 2, "velocity": 77}, {"time": 4087, "pitch": 49, "duration": 22, "velocity": 85}, {"time": 4087, "pitch": 65, "duration": 7, "velocity": 87}, {"time": 4093, "pitch": 56, "duration": 3, "velocity": 83}, {"time": 4099, "pitch": 56, "duration": 3, "velocity": 85}, {"time": 4099, "pitch": 63, "duration": 3, "velocity": 84}, {"time": 4105, "pitch": 61, "duration": 5, "velocity": 77}, {"time": 4111, "pitch": 42, "duration": 34, "velocity": 76}, {"time": 4111, "pitch": 58, "duration": 6, "velocity": 70}, {"time": 4111, "pitch": 61, "duration": 7, "velocity": 74}, {"time": 4117, "pitch": 49, "duration": 26, "velocity": 75}, {"time": 4123, "pitch": 66, "duration": 3, "velocity": 81}, {"time": 4126, "pitch": 61, "duration": 3, "velocity": 82}, {"time": 4129, "pitch": 58, "duration": 3, "velocity": 79}, {"time": 4135, "pitch": 58, "duration": 3, "velocity": 71}, {"time": 4135, "pitch": 61, "duration": 4, "velocity": 73}, {"time": 4141, "pitch": 58, "duration": 2, "velocity": 70}, {"time": 4147, "pitch": 58, "duration": 2, "velocity": 80}, {"time": 4147, "pitch": 61, "duration": 6, "velocity": 82}, {"time": 4147, "pitch": 66, "duration": 7, "velocity": 80}, {"time": 4153, "pitch": 58, "duration": 2, "velocity": 78}, {"time": 4159, "pitch": 51, "duration": 17, "velocity": 81}, {"time": 4159, "pitch": 58, "duration": 3, "velocity": 72}, {"time": 4159, "pitch": 63, "duration": 6, "velocity": 72}, {"time": 4165, "pitch": 58, "duration": 1, "velocity": 64}, {"time": 4171, "pitch": 58, "duration": 3, "velocity": 81}, {"time": 4171, "pitch": 66, "duration": 4, "velocity": 80}, {"time": 4174, "pitch": 65, "duration": 4, "velocity": 81}, {"time": 4177, "pitch": 58, "duration": 2, "velocity": 60}, {"time": 4177, "pitch": 63, "duration": 3, "velocity": 75}, {"time": 4183, "pitch": 51, "duration": 15, "velocity": 80}, {"time": 4183, "pitch": 58, "duration": 2, "velocity": 74}, {"time": 4183, "pitch": 63, "duration": 7, "velocity": 72}, {"time": 4189, "pitch": 58, "duration": 2, "velocity": 67}, {"time": 4195, "pitch": 58, "duration": 3, "velocity": 74}, {"time": 4195, "pitch": 63, "duration": 6, "velocity": 75}, {"time": 4195, "pitch": 66, "duration": 6, "velocity": 80}, {"time": 4207, "pitch": 51, "duration": 14, "velocity": 81}, {"time": 4207, "pitch": 58, "duration": 2, "velocity": 74}, {"time": 4207, "pitch": 63, "duration": 7, "velocity": 76}, {"time": 4213, "pitch": 58, "duration": 2, "velocity": 66}, {"time": 4219, "pitch": 58, "duration": 3, "velocity": 77}, {"time": 4219, "pitch": 66, "duration": 8, "velocity": 80}, {"time": 4225, "pitch": 58, "duration": 3, "velocity": 71}, {"time": 4231, "pitch": 39, "duration": 14, "velocity": 80}, {"time": 4231, "pitch": 58, "duration": 3, "velocity": 75}, {"time": 4231, "pitch": 63, "duration": 7, "velocity": 74}, {"time": 4237, "pitch": 58, "duration": 2, "velocity": 70}, {"time": 4243, "pitch": 58, "duration": 3, "velocity": 79}, {"time": 4243, "pitch": 63, "duration": 6, "velocity": 80}, {"time": 4249, "pitch": 61, "duration": 4, "velocity": 79}, {"time": 4255, "pitch": 44, "duration": 15, "velocity": 82}, {"time": 4255, "pitch": 56, "duration": 6, "velocity": 75}, {"time": 4255, "pitch": 63, "duration": 5, "velocity": 79}, {"time": 4261, "pitch": 51, "duration": 8, "velocity": 67}, {"time": 4267, "pitch": 56, "duration": 5, "velocity": 82}, {"time": 4267, "pitch": 59, "duration": 5, "velocity": 85}, {"time": 4267, "pitch": 63, "duration": 7, "velocity": 85}, {"time": 4273, "pitch": 44, "duration": 4, "velocity": 80}, {"time": 4276, "pitch": 56, "duration": 2, "velocity": 80}, {"time": 4279, "pitch": 49, "duration": 17, "velocity": 83}, {"time": 4279, "pitch": 56, "duration": 3, "velocity": 81}, {"time": 4279, "pitch": 61, "duration": 8, "velocity": 82}, {"time": 4285, "pitch": 56, "duration": 2, "velocity": 77}, {"time": 4291, "pitch": 56, "duration": 2, "velocity": 80}, {"time": 4291, "pitch": 61, "duration": 6, "velocity": 84}, {"time": 4291, "pitch": 65, "duration": 7, "velocity": 84}, {"time": 4297, "pitch": 56, "duration": 3, "velocity": 81}, {"time": 4303, "pitch": 44, "duration": 19, "velocity": 81}, {"time": 4303, "pitch": 56, "duration": 7, "velocity": 80}, {"time": 4303, "pitch": 63, "duration": 6, "velocity": 77}, {"time": 4309, "pitch": 51, "duration": 12, "velocity": 61}, {"time": 4315, "pitch": 59, "duration": 6, "velocity": 82}, {"time": 4321, "pitch": 56, "duration": 5, "velocity": 76}, {"time": 4327, "pitch": 44, "duration": 14, "velocity": 79}, {"time": 4327, "pitch": 59, "duration": 5, "velocity": 69}, {"time": 4327, "pitch": 63, "duration": 4, "velocity": 76}, {"time": 4333, "pitch": 51, "duration": 7, "velocity": 55}, {"time": 4339, "pitch": 56, "duration": 5, "velocity": 76}, {"time": 4339, "pitch": 59, "duration": 5, "velocity": 80}, {"time": 4345, "pitch": 44, "duration": 4, "velocity": 80}, {"time": 4351, "pitch": 46, "duration": 15, "velocity": 80}, {"time": 4351, "pitch": 58, "duration": 6, "velocity": 76}, {"time": 4351, "pitch": 61, "duration": 6, "velocity": 80}, {"time": 4357, "pitch": 53, "duration": 8, "velocity": 74}, {"time": 4363, "pitch": 58, "duration": 2, "velocity": 72}, {"time": 4363, "pitch": 61, "duration": 6, "velocity": 75}, {"time": 4363, "pitch": 65, "duration": 6, "velocity": 83}, {"time": 4369, "pitch": 58, "duration": 3, "velocity": 82}, {"time": 4375, "pitch": 51, "duration": 14, "velocity": 81}, {"time": 4375, "pitch": 58, "duration": 3, "velocity": 82}, {"time": 4375, "pitch": 66, "duration": 7, "velocity": 80}, {"time": 4381, "pitch": 58, "duration": 2, "velocity": 80}, {"time": 4387, "pitch": 66, "duration": 4, "velocity": 85}, {"time": 4390, "pitch": 65, "duration": 3, "velocity": 81}, {"time": 4393, "pitch": 63, "duration": 3, "velocity": 83}, {"time": 4396, "pitch": 61, "duration": 2, "velocity": 74}, {"time": 4399, "pitch": 44, "duration": 43, "velocity": 81}, {"time": 4399, "pitch": 59, "duration": 7, "velocity": 81}, {"time": 4405, "pitch": 51, "duration": 21, "velocity": 69}, {"time": 4411, "pitch": 59, "duration": 5, "velocity": 83}, {"time": 4411, "pitch": 63, "duration": 6, "velocity": 81}, {"time": 4417, "pitch": 56, "duration": 3, "velocity": 70}, {"time": 4423, "pitch": 56, "duration": 4, "velocity": 81}, {"time": 4423, "pitch": 63, "duration": 4, "velocity": 76}, {"time": 4429, "pitch": 51, "duration": 12, "velocity": 62}, {"time": 4435, "pitch": 59, "duration": 5, "velocity": 86}, {"time": 4441, "pitch": 56, "duration": 5, "velocity": 81}, {"time": 4447, "pitch": 49, "duration": 23, "velocity": 81}, {"time": 4447, "pitch": 61, "duration": 7, "velocity": 86}, {"time": 4453, "pitch": 56, "duration": 3, "velocity": 80}, {"time": 4459, "pitch": 63, "duration": 5, "velocity": 85}, {"time": 4465, "pitch": 56, "duration": 5, "velocity": 78}, {"time": 4465, "pitch": 63, "duration": 2, "velocity": 77}, {"time": 4471, "pitch": 49, "duration": 22, "velocity": 85}, {"time": 4471, "pitch": 65, "duration": 7, "velocity": 87}, {"time": 4477, "pitch": 56, "duration": 3, "velocity": 83}, {"time": 4483, "pitch": 56, "duration": 3, "velocity": 85}, {"time": 4483, "pitch": 63, "duration": 3, "velocity": 84}, {"time": 4489, "pitch": 61, "duration": 5, "velocity": 77}, {"time": 4492, "pitch": 56, "duration": 8, "velocity": 65}, {"time": 4493, "pitch": 59, "duration": 12, "velocity": 81}, {"time": 4495, "pitch": 63, "duration": 13, "velocity": 73}, {"time": 4495, "pitch": 44, "duration": 16, "velocity": 81}, {"time": 4495, "pitch": 68, "duration": 10, "velocity": 76}, {"time": 4500, "pitch": 51, "duration": 10, "velocity": 69}, {"time": 4506, "pitch": 56, "duration": 3, "velocity": 81}, {"time": 4525, "pitch": 37, "duration": 8, "velocity": 78}, {"time": 4529, "pitch": 44, "duration": 3, "velocity": 64}, {"time": 4530, "pitch": 56, "duration": 3, "velocity": 70}, {"time": 4532, "pitch": 61, "duration": 2, "velocity": 70}, {"time": 4533, "pitch": 65, "duration": 3, "velocity": 82}, {"time": 4566, "pitch": 42, "duration": 40, "velocity": 80}, {"time": 4566, "pitch": 58, "duration": 19, "velocity": 73}, {"time": 4572, "pitch": 49, "duration": 33, "velocity": 68}, {"time": 4578, "pitch": 54, "duration": 14, "velocity": 83}, {"time": 4584, "pitch": 61, "duration": 7, "velocity": 81}, {"time": 4590, "pitch": 66, "duration": 9, "velocity": 81}, {"time": 4596, "pitch": 54, "duration": 4, "velocity": 67}, {"time": 4602, "pitch": 54, "duration": 2, "velocity": 80}, {"time": 4602, "pitch": 61, "duration": 3, "velocity": 81}, {"time": 4602, "pitch": 58, "duration": 2, "velocity": 82}, {"time": 4614, "pitch": 63, "duration": 13, "velocity": 76}, {"time": 4614, "pitch": 58, "duration": 7, "velocity": 70}, {"time": 4614, "pitch": 39, "duration": 36, "velocity": 82}, {"time": 4620, "pitch": 46, "duration": 21, "velocity": 59}, {"time": 4626, "pitch": 58, "duration": 8, "velocity": 82}, {"time": 4632, "pitch": 63, "duration": 3, "velocity": 83}, {"time": 4638, "pitch": 58, "duration": 4, "velocity": 80}, {"time": 4638, "pitch": 66, "duration": 6, "velocity": 80}, {"time": 4644, "pitch": 46, "duration": 6, "velocity": 67}, {"time": 4651, "pitch": 63, "duration": 5, "velocity": 81}, {"time": 4656, "pitch": 58, "duration": 3, "velocity": 80}, {"time": 4663, "pitch": 63, "duration": 7, "velocity": 80}, {"time": 4663, "pitch": 44, "duration": 19, "velocity": 80}, {"time": 4663, "pitch": 56, "duration": 8, "velocity": 72}, {"time": 4668, "pitch": 51, "duration": 12, "velocity": 69}, {"time": 4675, "pitch": 59, "duration": 5, "velocity": 86}, {"time": 4680, "pitch": 56, "duration": 5, "velocity": 83}, {"time": 4686, "pitch": 49, "duration": 15, "velocity": 77}, {"time": 4687, "pitch": 61, "duration": 8, "velocity": 81}, {"time": 4692, "pitch": 56, "duration": 5, "velocity": 80}, {"time": 4699, "pitch": 61, "duration": 5, "velocity": 78}, {"time": 4699, "pitch": 65, "duration": 5, "velocity": 83}, {"time": 4704, "pitch": 56, "duration": 3, "velocity": 70}, {"time": 4710, "pitch": 58, "duration": 13, "velocity": 69}, {"time": 4710, "pitch": 54, "duration": 13, "velocity": 69}, {"time": 4710, "pitch": 42, "duration": 41, "velocity": 79}, {"time": 4716, "pitch": 49, "duration": 16, "velocity": 65}, {"time": 4722, "pitch": 61, "duration": 3, "velocity": 71}, {"time": 4728, "pitch": 66, "duration": 6, "velocity": 82}, {"time": 4733, "pitch": 49, "duration": 17, "velocity": 72}, {"time": 4740, "pitch": 54, "duration": 4, "velocity": 73}, {"time": 4746, "pitch": 61, "duration": 4, "velocity": 80}, {"time": 4746, "pitch": 58, "duration": 3, "velocity": 80}, {"time": 4759, "pitch": 58, "duration": 13, "velocity": 76}, {"time": 4759, "pitch": 54, "duration": 10, "velocity": 72}, {"time": 4759, "pitch": 42, "duration": 53, "velocity": 81}, {"time": 4764, "pitch": 49, "duration": 47, "velocity": 57}, {"time": 4771, "pitch": 61, "duration": 43, "velocity": 73}, {"time": 4777, "pitch": 66, "duration": 37, "velocity": 78}], "annotations": [{"time": 29, "annotation": {"number": 64, "value": 127}, "group": "control_change"}, {"time": 74, "annotation": {"number": 64, "value": 0}, "group": "control_change"}, {"time": 84, "annotation": {"number": 64, "value": 127}, "group": "control_change"}, {"time": 126, "annotation": {"number": 64, "value": 0}, "group": "control_change"}, {"time": 129, "annotation": {"number": 64, "value": 127}, "group": "control_change"}, {"time": 173, "annotation": {"number": 64, "value": 0}, "group": "control_change"}, {"time": 176, "annotation": {"number": 64, "value": 127}, "group": "control_change"}, {"time": 222, "annotation": {"number": 64, "value": 0}, "group": "control_change"}, {"time": 224, "annotation": {"number": 64, "value": 127}, "group": "control_change"}, {"time": 270, "annotation": {"number": 64, "value": 0}, "group": "control_change"}, {"time": 272, "annotation": {"number": 64, "value": 127}, "group": "control_change"}, {"time": 318, "annotation": {"number": 64, "value": 0}, "group": "control_change"}, {"time": 320, "annotation": {"number": 64, "value": 127}, "group": "control_change"}, {"time": 366, "annotation": {"number": 64, "value": 0}, "group": "control_change"}, {"time": 368, "annotation": {"number": 64, "value": 127}, "group": "control_change"}, {"time": 389, "annotation": {"number": 64, "value": 0}, "group": "control_change"}, {"time": 392, "annotation": {"number": 64, "value": 127}, "group": "control_change"}, {"time": 413, "annotation": {"number": 64, "value": 0}, "group": "control_change"}, {"time": 417, "annotation": {"number": 64, "value": 127}, "group": "control_change"}, {"time": 460, "annotation": {"number": 64, "value": 0}, "group": "control_change"}, {"time": 467, "annotation": {"number": 64, "value": 127}, "group": "control_change"}, {"time": 510, "annotation": {"number": 64, "value": 0}, "group": "control_change"}, {"time": 517, "annotation": {"number": 64, "value": 127}, "group": "control_change"}, {"time": 557, "annotation": {"number": 64, "value": 0}, "group": "control_change"}, {"time": 559, "annotation": {"number": 64, "value": 127}, "group": "control_change"}, {"time": 605, "annotation": {"number": 64, "value": 0}, "group": "control_change"}, {"time": 607, "annotation": {"number": 64, "value": 127}, "group": "control_change"}, {"time": 656, "annotation": {"number": 64, "value": 0}, "group": "control_change"}, {"time": 662, "annotation": {"number": 64, "value": 127}, "group": "control_change"}, {"time": 662, "annotation": {"number": 64, "value": 0}, "group": "control_change"}, {"time": 663, "annotation": {"number": 64, "value": 127}, "group": "control_change"}, {"time": 701, "annotation": {"number": 64, "value": 0}, "group": "control_change"}, {"time": 704, "annotation": {"number": 64, "value": 127}, "group": "control_change"}, {"time": 726, "annotation": {"number": 64, "value": 0}, "group": "control_change"}, {"time": 729, "annotation": {"number": 64, "value": 127}, "group": "control_change"}, {"time": 751, "annotation": {"number": 64, "value": 0}, "group": "control_change"}, {"time": 754, "annotation": {"number": 64, "value": 127}, "group": "control_change"}, {"time": 797, "annotation": {"number": 64, "value": 0}, "group": "control_change"}, {"time": 800, "annotation": {"number": 64, "value": 127}, "group": "control_change"}, {"time": 845, "annotation": {"number": 64, "value": 0}, "group": "control_change"}, {"time": 848, "annotation": {"number": 64, "value": 127}, "group": "control_change"}, {"time": 894, "annotation": {"number": 64, "value": 0}, "group": "control_change"}, {"time": 898, "annotation": {"number": 64, "value": 127}, "group": "control_change"}, {"time": 942, "annotation": {"number": 64, "value": 0}, "group": "control_change"}, {"time": 943, "annotation": {"number": 64, "value": 127}, "group": "control_change"}, {"time": 989, "annotation": {"number": 64, "value": 0}, "group": "control_change"}, {"time": 992, "annotation": {"number": 64, "value": 127}, "group": "control_change"}, {"time": 1040, "annotation": {"number": 64, "value": 0}, "group": "control_change"}, {"time": 1043, "annotation": {"number": 64, "value": 127}, "group": "control_change"}, {"time": 1085, "annotation": {"number": 64, "value": 0}, "group": "control_change"}, {"time": 1087, "annotation": {"number": 64, "value": 127}, "group": "control_change"}, {"time": 1108, "annotation": {"number": 64, "value": 0}, "group": "control_change"}, {"time": 1110, "annotation": {"number": 64, "value": 127}, "group": "control_change"}, {"time": 1135, "annotation": {"number": 64, "value": 0}, "group": "control_change"}, {"time": 1141, "annotation": {"number": 64, "value": 127}, "group": "control_change"}, {"time": 1180, "annotation": {"number": 64, "value": 0}, "group": "control_change"}, {"time": 1183, "annotation": {"number": 64, "value": 127}, "group": "control_change"}, {"time": 1277, "annotation": {"number": 64, "value": 0}, "group": "control_change"}, {"time": 1279, "annotation": {"number": 64, "value": 127}, "group": "control_change"}, {"time": 1300, "annotation": {"number": 64, "value": 0}, "group": "control_change"}, {"time": 1302, "annotation": {"number": 64, "value": 127}, "group": "control_change"}, {"time": 1326, "annotation": {"number": 64, "value": 0}, "group": "control_change"}, {"time": 1328, "annotation": {"number": 64, "value": 127}, "group": "control_change"}, {"time": 1349, "annotation": {"number": 64, "value": 0}, "group": "control_change"}, {"time": 1351, "annotation": {"number": 64, "value": 127}, "group": "control_change"}, {"time": 1374, "annotation": {"number": 64, "value": 0}, "group": "control_change"}, {"time": 1375, "annotation": {"number": 64, "value": 127}, "group": "control_change"}, {"time": 1398, "annotation": {"number": 64, "value": 0}, "group": "control_change"}, {"time": 1399, "annotation": {"number": 64, "value": 127}, "group": "control_change"}, {"time": 1422, "annotation": {"number": 64, "value": 0}, "group": "control_change"}, {"time": 1427, "annotation": {"number": 64, "value": 127}, "group": "control_change"}, {"time": 1470, "annotation": {"number": 64, "value": 0}, "group": "control_change"}, {"time": 1472, "annotation": {"number": 64, "value": 127}, "group": "control_change"}, {"time": 1493, "annotation": {"number": 64, "value": 0}, "group": "control_change"}, {"time": 1496, "annotation": {"number": 64, "value": 127}, "group": "control_change"}, {"time": 1518, "annotation": {"number": 64, "value": 0}, "group": "control_change"}, {"time": 1521, "annotation": {"number": 64, "value": 127}, "group": "control_change"}, {"time": 1565, "annotation": {"number": 64, "value": 0}, "group": "control_change"}, {"time": 1568, "annotation": {"number": 64, "value": 127}, "group": "control_change"}, {"time": 1592, "annotation": {"number": 64, "value": 0}, "group": "control_change"}, {"time": 1593, "annotation": {"number": 64, "value": 127}, "group": "control_change"}, {"time": 1612, "annotation": {"number": 64, "value": 0}, "group": "control_change"}, {"time": 1661, "annotation": {"number": 64, "value": 0}, "group": "control_change"}, {"time": 1663, "annotation": {"number": 64, "value": 127}, "group": "control_change"}, {"time": 1684, "annotation": {"number": 64, "value": 0}, "group": "control_change"}, {"time": 1686, "annotation": {"number": 64, "value": 127}, "group": "control_change"}, {"time": 1710, "annotation": {"number": 64, "value": 0}, "group": "control_change"}, {"time": 1712, "annotation": {"number": 64, "value": 127}, "group": "control_change"}, {"time": 1733, "annotation": {"number": 64, "value": 0}, "group": "control_change"}, {"time": 1735, "annotation": {"number": 64, "value": 127}, "group": "control_change"}, {"time": 1758, "annotation": {"number": 64, "value": 0}, "group": "control_change"}, {"time": 1759, "annotation": {"number": 64, "value": 127}, "group": "control_change"}, {"time": 1782, "annotation": {"number": 64, "value": 0}, "group": "control_change"}, {"time": 1783, "annotation": {"number": 64, "value": 127}, "group": "control_change"}, {"time": 1806, "annotation": {"number": 64, "value": 0}, "group": "control_change"}, {"time": 1811, "annotation": {"number": 64, "value": 127}, "group": "control_change"}, {"time": 1854, "annotation": {"number": 64, "value": 0}, "group": "control_change"}, {"time": 1856, "annotation": {"number": 64, "value": 127}, "group": "control_change"}, {"time": 1877, "annotation": {"number": 64, "value": 0}, "group": "control_change"}, {"time": 1880, "annotation": {"number": 64, "value": 127}, "group": "control_change"}, {"time": 1902, "annotation": {"number": 64, "value": 0}, "group": "control_change"}, {"time": 1905, "annotation": {"number": 64, "value": 127}, "group": "control_change"}, {"time": 1949, "annotation": {"number": 64, "value": 0}, "group": "control_change"}, {"time": 1952, "annotation": {"number": 64, "value": 127}, "group": "control_change"}, {"time": 1976, "annotation": {"number": 64, "value": 0}, "group": "control_change"}, {"time": 1977, "annotation": {"number": 64, "value": 127}, "group": "control_change"}, {"time": 1996, "annotation": {"number": 64, "value": 0}, "group": "control_change"}, {"time": 1999, "annotation": {"number": 64, "value": 127}, "group": "control_change"}, {"time": 2020, "annotation": {"number": 64, "value": 0}, "group": "control_change"}, {"time": 2023, "annotation": {"number": 64, "value": 127}, "group": "control_change"}, {"time": 2046, "annotation": {"number": 64, "value": 0}, "group": "control_change"}, {"time": 2049, "annotation": {"number": 64, "value": 127}, "group": "control_change"}, {"time": 2090, "annotation": {"number": 64, "value": 0}, "group": "control_change"}, {"time": 2100, "annotation": {"number": 64, "value": 127}, "group": "control_change"}, {"time": 2142, "annotation": {"number": 64, "value": 0}, "group": "control_change"}, {"time": 2145, "annotation": {"number": 64, "value": 127}, "group": "control_change"}, {"time": 2189, "annotation": {"number": 64, "value": 0}, "group": "control_change"}, {"time": 2192, "annotation": {"number": 64, "value": 127}, "group": "control_change"}, {"time": 2238, "annotation": {"number": 64, "value": 0}, "group": "control_change"}, {"time": 2240, "annotation": {"number": 64, "value": 127}, "group": "control_change"}, {"time": 2286, "annotation": {"number": 64, "value": 0}, "group": "control_change"}, {"time": 2288, "annotation": {"number": 64, "value": 127}, "group": "control_change"}, {"time": 2334, "annotation": {"number": 64, "value": 0}, "group": "control_change"}, {"time": 2336, "annotation": {"number": 64, "value": 127}, "group": "control_change"}, {"time": 2382, "annotation": {"number": 64, "value": 0}, "group": "control_change"}, {"time": 2384, "annotation": {"number": 64, "value": 127}, "group": "control_change"}, {"time": 2405, "annotation": {"number": 64, "value": 0}, "group": "control_change"}, {"time": 2408, "annotation": {"number": 64, "value": 127}, "group": "control_change"}, {"time": 2429, "annotation": {"number": 64, "value": 0}, "group": "control_change"}, {"time": 2433, "annotation": {"number": 64, "value": 127}, "group": "control_change"}, {"time": 2476, "annotation": {"number": 64, "value": 0}, "group": "control_change"}, {"time": 2480, "annotation": {"number": 64, "value": 127}, "group": "control_change"}, {"time": 2526, "annotation": {"number": 64, "value": 0}, "group": "control_change"}, {"time": 2530, "annotation": {"number": 64, "value": 127}, "group": "control_change"}, {"time": 2574, "annotation": {"number": 64, "value": 0}, "group": "control_change"}, {"time": 2575, "annotation": {"number": 64, "value": 127}, "group": "control_change"}, {"time": 2621, "annotation": {"number": 64, "value": 0}, "group": "control_change"}, {"time": 2624, "annotation": {"number": 64, "value": 127}, "group": "control_change"}, {"time": 2672, "annotation": {"number": 64, "value": 0}, "group": "control_change"}, {"time": 2675, "annotation": {"number": 64, "value": 127}, "group": "control_change"}, {"time": 2717, "annotation": {"number": 64, "value": 0}, "group": "control_change"}, {"time": 2719, "annotation": {"number": 64, "value": 127}, "group": "control_change"}, {"time": 2740, "annotation": {"number": 64, "value": 0}, "group": "control_change"}, {"time": 2742, "annotation": {"number": 64, "value": 127}, "group": "control_change"}, {"time": 2767, "annotation": {"number": 64, "value": 0}, "group": "control_change"}, {"time": 2773, "annotation": {"number": 64, "value": 127}, "group": "control_change"}, {"time": 2812, "annotation": {"number": 64, "value": 0}, "group": "control_change"}, {"time": 2815, "annotation": {"number": 64, "value": 127}, "group": "control_change"}, {"time": 2909, "annotation": {"number": 64, "value": 0}, "group": "control_change"}, {"time": 2911, "annotation": {"number": 64, "value": 127}, "group": "control_change"}, {"time": 2932, "annotation": {"number": 64, "value": 0}, "group": "control_change"}, {"time": 2934, "annotation": {"number": 64, "value": 127}, "group": "control_change"}, {"time": 2958, "annotation": {"number": 64, "value": 0}, "group": "control_change"}, {"time": 2960, "annotation": {"number": 64, "value": 127}, "group": "control_change"}, {"time": 2981, "annotation": {"number": 64, "value": 0}, "group": "control_change"}, {"time": 2983, "annotation": {"number": 64, "value": 127}, "group": "control_change"}, {"time": 3006, "annotation": {"number": 64, "value": 0}, "group": "control_change"}, {"time": 3007, "annotation": {"number": 64, "value": 127}, "group": "control_change"}, {"time": 3030, "annotation": {"number": 64, "value": 0}, "group": "control_change"}, {"time": 3031, "annotation": {"number": 64, "value": 127}, "group": "control_change"}, {"time": 3054, "annotation": {"number": 64, "value": 0}, "group": "control_change"}, {"time": 3059, "annotation": {"number": 64, "value": 127}, "group": "control_change"}, {"time": 3102, "annotation": {"number": 64, "value": 0}, "group": "control_change"}, {"time": 3104, "annotation": {"number": 64, "value": 127}, "group": "control_change"}, {"time": 3125, "annotation": {"number": 64, "value": 0}, "group": "control_change"}, {"time": 3128, "annotation": {"number": 64, "value": 127}, "group": "control_change"}, {"time": 3150, "annotation": {"number": 64, "value": 0}, "group": "control_change"}, {"time": 3153, "annotation": {"number": 64, "value": 127}, "group": "control_change"}, {"time": 3197, "annotation": {"number": 64, "value": 0}, "group": "control_change"}, {"time": 3200, "annotation": {"number": 64, "value": 127}, "group": "control_change"}, {"time": 3224, "annotation": {"number": 64, "value": 0}, "group": "control_change"}, {"time": 3225, "annotation": {"number": 64, "value": 127}, "group": "control_change"}, {"time": 3244, "annotation": {"number": 64, "value": 0}, "group": "control_change"}, {"time": 3293, "annotation": {"number": 64, "value": 0}, "group": "control_change"}, {"time": 3295, "annotation": {"number": 64, "value": 127}, "group": "control_change"}, {"time": 3316, "annotation": {"number": 64, "value": 0}, "group": "control_change"}, {"time": 3318, "annotation": {"number": 64, "value": 127}, "group": "control_change"}, {"time": 3342, "annotation": {"number": 64, "value": 0}, "group": "control_change"}, {"time": 3344, "annotation": {"number": 64, "value": 127}, "group": "control_change"}, {"time": 3365, "annotation": {"number": 64, "value": 0}, "group": "control_change"}, {"time": 3367, "annotation": {"number": 64, "value": 127}, "group": "control_change"}, {"time": 3390, "annotation": {"number": 64, "value": 0}, "group": "control_change"}, {"time": 3391, "annotation": {"number": 64, "value": 127}, "group": "control_change"}, {"time": 3414, "annotation": {"number": 64, "value": 0}, "group": "control_change"}, {"time": 3415, "annotation": {"number": 64, "value": 127}, "group": "control_change"}, {"time": 3438, "annotation": {"number": 64, "value": 0}, "group": "control_change"}, {"time": 3443, "annotation": {"number": 64, "value": 127}, "group": "control_change"}, {"time": 3486, "annotation": {"number": 64, "value": 0}, "group": "control_change"}, {"time": 3488, "annotation": {"number": 64, "value": 127}, "group": "control_change"}, {"time": 3509, "annotation": {"number": 64, "value": 0}, "group": "control_change"}, {"time": 3512, "annotation": {"number": 64, "value": 127}, "group": "control_change"}, {"time": 3534, "annotation": {"number": 64, "value": 0}, "group": "control_change"}, {"time": 3537, "annotation": {"number": 64, "value": 127}, "group": "control_change"}, {"time": 3581, "annotation": {"number": 64, "value": 0}, "group": "control_change"}, {"time": 3584, "annotation": {"number": 64, "value": 127}, "group": "control_change"}, {"time": 3608, "annotation": {"number": 64, "value": 0}, "group": "control_change"}, {"time": 3609, "annotation": {"number": 64, "value": 127}, "group": "control_change"}, {"time": 3628, "annotation": {"number": 64, "value": 0}, "group": "control_change"}, {"time": 3631, "annotation": {"number": 64, "value": 127}, "group": "control_change"}, {"time": 3652, "annotation": {"number": 64, "value": 0}, "group": "control_change"}, {"time": 3655, "annotation": {"number": 64, "value": 127}, "group": "control_change"}, {"time": 3678, "annotation": {"number": 64, "value": 0}, "group": "control_change"}, {"time": 3681, "annotation": {"number": 64, "value": 127}, "group": "control_change"}, {"time": 3722, "annotation": {"number": 64, "value": 0}, "group": "control_change"}, {"time": 3727, "annotation": {"number": 64, "value": 127}, "group": "control_change"}, {"time": 3727, "annotation": {"number": 64, "value": 0}, "group": "control_change"}, {"time": 3728, "annotation": {"number": 64, "value": 0}, "group": "control_change"}, {"time": 3728, "annotation": {"number": 64, "value": 127}, "group": "control_change"}, {"time": 3775, "annotation": {"number": 64, "value": 0}, "group": "control_change"}, {"time": 3780, "annotation": {"number": 64, "value": 127}, "group": "control_change"}, {"time": 3823, "annotation": {"number": 64, "value": 0}, "group": "control_change"}, {"time": 3825, "annotation": {"number": 64, "value": 127}, "group": "control_change"}, {"time": 3873, "annotation": {"number": 64, "value": 127}, "group": "control_change"}, {"time": 3896, "annotation": {"number": 64, "value": 0}, "group": "control_change"}, {"time": 3898, "annotation": {"number": 64, "value": 127}, "group": "control_change"}, {"time": 3917, "annotation": {"number": 64, "value": 0}, "group": "control_change"}, {"time": 3923, "annotation": {"number": 64, "value": 127}, "group": "control_change"}, {"time": 3966, "annotation": {"number": 64, "value": 0}, "group": "control_change"}, {"time": 3968, "annotation": {"number": 64, "value": 127}, "group": "control_change"}, {"time": 3989, "annotation": {"number": 64, "value": 0}, "group": "control_change"}, {"time": 3992, "annotation": {"number": 64, "value": 127}, "group": "control_change"}, {"time": 4014, "annotation": {"number": 64, "value": 0}, "group": "control_change"}, {"time": 4017, "annotation": {"number": 64, "value": 127}, "group": "control_change"}, {"time": 4061, "annotation": {"number": 64, "value": 0}, "group": "control_change"}, {"time": 4064, "annotation": {"number": 64, "value": 127}, "group": "control_change"}, {"time": 4088, "annotation": {"number": 64, "value": 0}, "group": "control_change"}, {"time": 4089, "annotation": {"number": 64, "value": 127}, "group": "control_change"}, {"time": 4108, "annotation": {"number": 64, "value": 0}, "group": "control_change"}, {"time": 4157, "annotation": {"number": 64, "value": 0}, "group": "control_change"}, {"time": 4159, "annotation": {"number": 64, "value": 127}, "group": "control_change"}, {"time": 4180, "annotation": {"number": 64, "value": 0}, "group": "control_change"}, {"time": 4182, "annotation": {"number": 64, "value": 127}, "group": "control_change"}, {"time": 4206, "annotation": {"number": 64, "value": 0}, "group": "control_change"}, {"time": 4208, "annotation": {"number": 64, "value": 127}, "group": "control_change"}, {"time": 4229, "annotation": {"number": 64, "value": 0}, "group": "control_change"}, {"time": 4231, "annotation": {"number": 64, "value": 127}, "group": "control_change"}, {"time": 4254, "annotation": {"number": 64, "value": 0}, "group": "control_change"}, {"time": 4255, "annotation": {"number": 64, "value": 127}, "group": "control_change"}, {"time": 4278, "annotation": {"number": 64, "value": 0}, "group": "control_change"}, {"time": 4279, "annotation": {"number": 64, "value": 127}, "group": "control_change"}, {"time": 4302, "annotation": {"number": 64, "value": 0}, "group": "control_change"}, {"time": 4307, "annotation": {"number": 64, "value": 127}, "group": "control_change"}, {"time": 4350, "annotation": {"number": 64, "value": 0}, "group": "control_change"}, {"time": 4352, "annotation": {"number": 64, "value": 127}, "group": "control_change"}, {"time": 4373, "annotation": {"number": 64, "value": 0}, "group": "control_change"}, {"time": 4376, "annotation": {"number": 64, "value": 127}, "group": "control_change"}, {"time": 4398, "annotation": {"number": 64, "value": 0}, "group": "control_change"}, {"time": 4401, "annotation": {"number": 64, "value": 127}, "group": "control_change"}, {"time": 4445, "annotation": {"number": 64, "value": 0}, "group": "control_change"}, {"time": 4448, "annotation": {"number": 64, "value": 127}, "group": "control_change"}, {"time": 4472, "annotation": {"number": 64, "value": 0}, "group": "control_change"}, {"time": 4473, "annotation": {"number": 64, "value": 127}, "group": "control_change"}, {"time": 4492, "annotation": {"number": 64, "value": 0}, "group": "control_change"}, {"time": 4495, "annotation": {"number": 64, "value": 127}, "group": "control_change"}, {"time": 4510, "annotation": {"number": 64, "value": 127}, "group": "control_change"}, {"time": 4523, "annotation": {"number": 64, "value": 0}, "group": "control_change"}, {"time": 4525, "annotation": {"number": 64, "value": 127}, "group": "control_change"}, {"time": 4564, "annotation": {"number": 64, "value": 0}, "group": "control_change"}, {"time": 4567, "annotation": {"number": 64, "value": 127}, "group": "control_change"}, {"time": 4614, "annotation": {"number": 64, "value": 0}, "group": "control_change"}, {"time": 4617, "annotation": {"number": 64, "value": 127}, "group": "control_change"}, {"time": 4661, "annotation": {"number": 64, "value": 0}, "group": "control_change"}, {"time": 4664, "annotation": {"number": 64, "value": 127}, "group": "control_change"}, {"time": 4686, "annotation": {"number": 64, "value": 0}, "group": "control_change"}, {"time": 4688, "annotation": {"number": 64, "value": 127}, "group": "control_change"}, {"time": 4710, "annotation": {"number": 64, "value": 0}, "group": "control_change"}, {"time": 4712, "annotation": {"number": 64, "value": 127}, "group": "control_change"}, {"time": 4759, "annotation": {"number": 64, "value": 0}, "group": "control_change"}, {"time": 4762, "annotation": {"number": 64, "value": 127}, "group": "control_change"}]}]}