{"metadata": {"schema_version": "0.2", "title": "None", "source_filename": "700.mid", "source_format": "midi"}, "resolution": 12, "tempos": [{"time": 0, "qpm": 94.00012846684224}], "time_signatures": [{"time": 0, "numerator": 1, "denominator": 4}], "tracks": [{"program": 4, "is_drum": false, "name": "MELODY", "notes": [{"time": 452, "pitch": 68, "duration": 13, "velocity": 87}, {"time": 470, "pitch": 65, "duration": 5, "velocity": 94}, {"time": 476, "pitch": 63, "duration": 11, "velocity": 92}, {"time": 488, "pitch": 65, "duration": 34, "velocity": 94}, {"time": 548, "pitch": 68, "duration": 9, "velocity": 92}, {"time": 560, "pitch": 65, "duration": 3, "velocity": 91}, {"time": 566, "pitch": 65, "duration": 4, "velocity": 94}, {"time": 572, "pitch": 63, "duration": 10, "velocity": 90}, {"time": 584, "pitch": 65, "duration": 30, "velocity": 90}, {"time": 644, "pitch": 68, "duration": 14, "velocity": 92}, {"time": 662, "pitch": 61, "duration": 6, "velocity": 94}, {"time": 668, "pitch": 58, "duration": 11, "velocity": 89}, {"time": 680, "pitch": 63, "duration": 6, "velocity": 86}, {"time": 686, "pitch": 61, "duration": 43, "velocity": 93}, {"time": 740, "pitch": 58, "duration": 13, "velocity": 93}, {"time": 752, "pitch": 61, "duration": 5, "velocity": 94}, {"time": 758, "pitch": 61, "duration": 4, "velocity": 93}, {"time": 764, "pitch": 61, "duration": 9, "velocity": 94}, {"time": 776, "pitch": 63, "duration": 37, "velocity": 93}, {"time": 830, "pitch": 56, "duration": 5, "velocity": 87}, {"time": 836, "pitch": 61, "duration": 10, "velocity": 92}, {"time": 848, "pitch": 63, "duration": 6, "velocity": 92}, {"time": 854, "pitch": 61, "duration": 7, "velocity": 86}, {"time": 860, "pitch": 65, "duration": 46, "velocity": 91}, {"time": 932, "pitch": 68, "duration": 10, "velocity": 92}, {"time": 944, "pitch": 70, "duration": 5, "velocity": 94}, {"time": 950, "pitch": 73, "duration": 4, "velocity": 91}, {"time": 956, "pitch": 75, "duration": 16, "velocity": 96}, {"time": 974, "pitch": 73, "duration": 42, "velocity": 89}, {"time": 1022, "pitch": 73, "duration": 4, "velocity": 94}, {"time": 1028, "pitch": 73, "duration": 11, "velocity": 92}, {"time": 1046, "pitch": 58, "duration": 5, "velocity": 90}, {"time": 1052, "pitch": 63, "duration": 11, "velocity": 89}, {"time": 1064, "pitch": 61, "duration": 39, "velocity": 92}, {"time": 1124, "pitch": 58, "duration": 12, "velocity": 93}, {"time": 1136, "pitch": 61, "duration": 10, "velocity": 92}, {"time": 1148, "pitch": 61, "duration": 5, "velocity": 92}, {"time": 1154, "pitch": 63, "duration": 53, "velocity": 92}, {"time": 1220, "pitch": 73, "duration": 10, "velocity": 94}, {"time": 1232, "pitch": 72, "duration": 9, "velocity": 94}, {"time": 1244, "pitch": 73, "duration": 3, "velocity": 93}, {"time": 1250, "pitch": 72, "duration": 3, "velocity": 93}, {"time": 1256, "pitch": 73, "duration": 3, "velocity": 93}, {"time": 1262, "pitch": 72, "duration": 3, "velocity": 94}, {"time": 1268, "pitch": 68, "duration": 8, "velocity": 92}, {"time": 1280, "pitch": 63, "duration": 4, "velocity": 93}, {"time": 1286, "pitch": 65, "duration": 6, "velocity": 87}, {"time": 1292, "pitch": 68, "duration": 12, "velocity": 92}, {"time": 1304, "pitch": 65, "duration": 17, "velocity": 93}, {"time": 1322, "pitch": 73, "duration": 3, "velocity": 95}, {"time": 1328, "pitch": 73, "duration": 4, "velocity": 94}, {"time": 1334, "pitch": 72, "duration": 4, "velocity": 93}, {"time": 1340, "pitch": 73, "duration": 4, "velocity": 94}, {"time": 1346, "pitch": 72, "duration": 3, "velocity": 91}, {"time": 1352, "pitch": 73, "duration": 3, "velocity": 92}, {"time": 1358, "pitch": 72, "duration": 3, "velocity": 88}, {"time": 1364, "pitch": 68, "duration": 3, "velocity": 88}, {"time": 1370, "pitch": 63, "duration": 4, "velocity": 88}, {"time": 1376, "pitch": 65, "duration": 5, "velocity": 85}, {"time": 1382, "pitch": 68, "duration": 10, "velocity": 88}, {"time": 1394, "pitch": 65, "duration": 20, "velocity": 93}, {"time": 1418, "pitch": 68, "duration": 4, "velocity": 85}, {"time": 1424, "pitch": 70, "duration": 4, "velocity": 94}, {"time": 1430, "pitch": 68, "duration": 4, "velocity": 94}, {"time": 1436, "pitch": 70, "duration": 10, "velocity": 96}, {"time": 1448, "pitch": 68, "duration": 5, "velocity": 92}, {"time": 1454, "pitch": 77, "duration": 10, "velocity": 94}, {"time": 1466, "pitch": 68, "duration": 4, "velocity": 92}, {"time": 1472, "pitch": 70, "duration": 3, "velocity": 93}, {"time": 1478, "pitch": 68, "duration": 4, "velocity": 94}, {"time": 1484, "pitch": 70, "duration": 11, "velocity": 91}, {"time": 1496, "pitch": 68, "duration": 5, "velocity": 92}, {"time": 1502, "pitch": 77, "duration": 18, "velocity": 93}, {"time": 1526, "pitch": 77, "duration": 4, "velocity": 93}, {"time": 1532, "pitch": 78, "duration": 5, "velocity": 94}, {"time": 1538, "pitch": 77, "duration": 5, "velocity": 94}, {"time": 1544, "pitch": 75, "duration": 5, "velocity": 96}, {"time": 1550, "pitch": 73, "duration": 4, "velocity": 92}, {"time": 1556, "pitch": 73, "duration": 4, "velocity": 90}, {"time": 1562, "pitch": 70, "duration": 5, "velocity": 93}, {"time": 1568, "pitch": 73, "duration": 4, "velocity": 89}, {"time": 1574, "pitch": 75, "duration": 32, "velocity": 94}, {"time": 1610, "pitch": 68, "duration": 6, "velocity": 94}, {"time": 1616, "pitch": 73, "duration": 6, "velocity": 94}, {"time": 1622, "pitch": 72, "duration": 6, "velocity": 94}, {"time": 1628, "pitch": 73, "duration": 3, "velocity": 93}, {"time": 1634, "pitch": 72, "duration": 3, "velocity": 93}, {"time": 1640, "pitch": 73, "duration": 3, "velocity": 93}, {"time": 1646, "pitch": 72, "duration": 3, "velocity": 94}, {"time": 1652, "pitch": 68, "duration": 8, "velocity": 92}, {"time": 1664, "pitch": 63, "duration": 4, "velocity": 93}, {"time": 1670, "pitch": 65, "duration": 6, "velocity": 87}, {"time": 1676, "pitch": 68, "duration": 12, "velocity": 92}, {"time": 1688, "pitch": 65, "duration": 17, "velocity": 93}, {"time": 1706, "pitch": 73, "duration": 3, "velocity": 95}, {"time": 1712, "pitch": 73, "duration": 4, "velocity": 94}, {"time": 1718, "pitch": 72, "duration": 4, "velocity": 93}, {"time": 1724, "pitch": 73, "duration": 4, "velocity": 94}, {"time": 1730, "pitch": 72, "duration": 3, "velocity": 91}, {"time": 1736, "pitch": 73, "duration": 3, "velocity": 92}, {"time": 1742, "pitch": 72, "duration": 3, "velocity": 88}, {"time": 1748, "pitch": 68, "duration": 3, "velocity": 88}, {"time": 1754, "pitch": 63, "duration": 4, "velocity": 88}, {"time": 1760, "pitch": 65, "duration": 5, "velocity": 85}, {"time": 1766, "pitch": 63, "duration": 10, "velocity": 88}, {"time": 1778, "pitch": 65, "duration": 20, "velocity": 93}, {"time": 1802, "pitch": 68, "duration": 4, "velocity": 85}, {"time": 1808, "pitch": 70, "duration": 4, "velocity": 94}, {"time": 1814, "pitch": 68, "duration": 4, "velocity": 94}, {"time": 1820, "pitch": 70, "duration": 10, "velocity": 96}, {"time": 1832, "pitch": 68, "duration": 5, "velocity": 92}, {"time": 1838, "pitch": 77, "duration": 10, "velocity": 94}, {"time": 1850, "pitch": 68, "duration": 4, "velocity": 92}, {"time": 1856, "pitch": 70, "duration": 3, "velocity": 93}, {"time": 1862, "pitch": 68, "duration": 4, "velocity": 94}, {"time": 1868, "pitch": 70, "duration": 11, "velocity": 91}, {"time": 1880, "pitch": 68, "duration": 5, "velocity": 92}, {"time": 1886, "pitch": 77, "duration": 18, "velocity": 93}, {"time": 1910, "pitch": 77, "duration": 4, "velocity": 93}, {"time": 1916, "pitch": 78, "duration": 5, "velocity": 94}, {"time": 1922, "pitch": 77, "duration": 5, "velocity": 94}, {"time": 1928, "pitch": 75, "duration": 5, "velocity": 96}, {"time": 1934, "pitch": 73, "duration": 4, "velocity": 92}, {"time": 1940, "pitch": 73, "duration": 4, "velocity": 90}, {"time": 1946, "pitch": 70, "duration": 5, "velocity": 93}, {"time": 1952, "pitch": 73, "duration": 4, "velocity": 89}, {"time": 1958, "pitch": 75, "duration": 30, "velocity": 94}, {"time": 1988, "pitch": 73, "duration": 11, "velocity": 92}, {"time": 2000, "pitch": 68, "duration": 6, "velocity": 85}, {"time": 2006, "pitch": 75, "duration": 12, "velocity": 95}, {"time": 2018, "pitch": 73, "duration": 40, "velocity": 94}, {"time": 2372, "pitch": 68, "duration": 13, "velocity": 87}, {"time": 2390, "pitch": 65, "duration": 5, "velocity": 94}, {"time": 2396, "pitch": 63, "duration": 11, "velocity": 92}, {"time": 2408, "pitch": 65, "duration": 34, "velocity": 94}, {"time": 2468, "pitch": 68, "duration": 9, "velocity": 92}, {"time": 2480, "pitch": 65, "duration": 3, "velocity": 91}, {"time": 2486, "pitch": 65, "duration": 4, "velocity": 94}, {"time": 2492, "pitch": 63, "duration": 10, "velocity": 90}, {"time": 2504, "pitch": 65, "duration": 30, "velocity": 90}, {"time": 2564, "pitch": 68, "duration": 14, "velocity": 92}, {"time": 2582, "pitch": 61, "duration": 6, "velocity": 94}, {"time": 2588, "pitch": 58, "duration": 11, "velocity": 89}, {"time": 2600, "pitch": 63, "duration": 6, "velocity": 86}, {"time": 2606, "pitch": 61, "duration": 43, "velocity": 93}, {"time": 2660, "pitch": 58, "duration": 13, "velocity": 93}, {"time": 2672, "pitch": 61, "duration": 5, "velocity": 94}, {"time": 2678, "pitch": 61, "duration": 4, "velocity": 93}, {"time": 2684, "pitch": 61, "duration": 9, "velocity": 94}, {"time": 2696, "pitch": 63, "duration": 37, "velocity": 93}, {"time": 2750, "pitch": 56, "duration": 5, "velocity": 87}, {"time": 2756, "pitch": 61, "duration": 10, "velocity": 92}, {"time": 2768, "pitch": 63, "duration": 6, "velocity": 92}, {"time": 2774, "pitch": 61, "duration": 7, "velocity": 86}, {"time": 2780, "pitch": 65, "duration": 46, "velocity": 91}, {"time": 2852, "pitch": 68, "duration": 10, "velocity": 92}, {"time": 2864, "pitch": 70, "duration": 5, "velocity": 94}, {"time": 2870, "pitch": 73, "duration": 4, "velocity": 91}, {"time": 2876, "pitch": 75, "duration": 16, "velocity": 96}, {"time": 2894, "pitch": 73, "duration": 42, "velocity": 89}, {"time": 2942, "pitch": 73, "duration": 4, "velocity": 94}, {"time": 2948, "pitch": 73, "duration": 9, "velocity": 92}, {"time": 2957, "pitch": 73, "duration": 9, "velocity": 92}, {"time": 2966, "pitch": 63, "duration": 5, "velocity": 90}, {"time": 2972, "pitch": 65, "duration": 11, "velocity": 89}, {"time": 2984, "pitch": 63, "duration": 6, "velocity": 92}, {"time": 2990, "pitch": 61, "duration": 33, "velocity": 92}, {"time": 3038, "pitch": 58, "duration": 6, "velocity": 83}, {"time": 3044, "pitch": 70, "duration": 11, "velocity": 93}, {"time": 3056, "pitch": 68, "duration": 13, "velocity": 91}, {"time": 3068, "pitch": 61, "duration": 19, "velocity": 94}, {"time": 3086, "pitch": 63, "duration": 42, "velocity": 92}, {"time": 3140, "pitch": 73, "duration": 10, "velocity": 94}, {"time": 3152, "pitch": 72, "duration": 9, "velocity": 94}, {"time": 3164, "pitch": 73, "duration": 3, "velocity": 93}, {"time": 3170, "pitch": 72, "duration": 3, "velocity": 93}, {"time": 3176, "pitch": 73, "duration": 3, "velocity": 93}, {"time": 3182, "pitch": 72, "duration": 3, "velocity": 94}, {"time": 3188, "pitch": 68, "duration": 4, "velocity": 92}, {"time": 3194, "pitch": 63, "duration": 4, "velocity": 93}, {"time": 3200, "pitch": 65, "duration": 6, "velocity": 87}, {"time": 3206, "pitch": 68, "duration": 12, "velocity": 92}, {"time": 3218, "pitch": 65, "duration": 17, "velocity": 93}, {"time": 3242, "pitch": 73, "duration": 3, "velocity": 95}, {"time": 3248, "pitch": 73, "duration": 4, "velocity": 94}, {"time": 3254, "pitch": 72, "duration": 4, "velocity": 93}, {"time": 3260, "pitch": 73, "duration": 4, "velocity": 94}, {"time": 3266, "pitch": 72, "duration": 3, "velocity": 91}, {"time": 3272, "pitch": 73, "duration": 3, "velocity": 92}, {"time": 3278, "pitch": 72, "duration": 3, "velocity": 88}, {"time": 3284, "pitch": 68, "duration": 3, "velocity": 88}, {"time": 3290, "pitch": 63, "duration": 4, "velocity": 88}, {"time": 3296, "pitch": 65, "duration": 5, "velocity": 85}, {"time": 3302, "pitch": 68, "duration": 10, "velocity": 88}, {"time": 3314, "pitch": 65, "duration": 20, "velocity": 93}, {"time": 3338, "pitch": 68, "duration": 4, "velocity": 85}, {"time": 3344, "pitch": 70, "duration": 4, "velocity": 94}, {"time": 3350, "pitch": 68, "duration": 4, "velocity": 94}, {"time": 3356, "pitch": 70, "duration": 8, "velocity": 96}, {"time": 3365, "pitch": 68, "duration": 5, "velocity": 92}, {"time": 3374, "pitch": 77, "duration": 10, "velocity": 94}, {"time": 3386, "pitch": 68, "duration": 4, "velocity": 92}, {"time": 3392, "pitch": 70, "duration": 3, "velocity": 93}, {"time": 3398, "pitch": 68, "duration": 4, "velocity": 94}, {"time": 3404, "pitch": 70, "duration": 11, "velocity": 91}, {"time": 3414, "pitch": 68, "duration": 6, "velocity": 92}, {"time": 3422, "pitch": 77, "duration": 18, "velocity": 93}, {"time": 3446, "pitch": 77, "duration": 4, "velocity": 93}, {"time": 3452, "pitch": 78, "duration": 5, "velocity": 94}, {"time": 3458, "pitch": 77, "duration": 5, "velocity": 94}, {"time": 3464, "pitch": 75, "duration": 5, "velocity": 96}, {"time": 3470, "pitch": 73, "duration": 4, "velocity": 92}, {"time": 3476, "pitch": 73, "duration": 4, "velocity": 90}, {"time": 3482, "pitch": 70, "duration": 5, "velocity": 93}, {"time": 3488, "pitch": 73, "duration": 4, "velocity": 89}, {"time": 3494, "pitch": 73, "duration": 2, "velocity": 97}, {"time": 3497, "pitch": 75, "duration": 29, "velocity": 94}, {"time": 3530, "pitch": 68, "duration": 6, "velocity": 94}, {"time": 3536, "pitch": 73, "duration": 6, "velocity": 94}, {"time": 3542, "pitch": 72, "duration": 6, "velocity": 94}, {"time": 3548, "pitch": 73, "duration": 3, "velocity": 93}, {"time": 3554, "pitch": 72, "duration": 3, "velocity": 93}, {"time": 3560, "pitch": 73, "duration": 3, "velocity": 93}, {"time": 3566, "pitch": 72, "duration": 3, "velocity": 94}, {"time": 3572, "pitch": 68, "duration": 8, "velocity": 92}, {"time": 3578, "pitch": 63, "duration": 4, "velocity": 93}, {"time": 3584, "pitch": 65, "duration": 5, "velocity": 87}, {"time": 3590, "pitch": 65, "duration": 5, "velocity": 97}, {"time": 3596, "pitch": 68, "duration": 6, "velocity": 92}, {"time": 3605, "pitch": 65, "duration": 14, "velocity": 93}, {"time": 3626, "pitch": 73, "duration": 3, "velocity": 95}, {"time": 3632, "pitch": 73, "duration": 4, "velocity": 94}, {"time": 3638, "pitch": 72, "duration": 4, "velocity": 93}, {"time": 3644, "pitch": 73, "duration": 4, "velocity": 94}, {"time": 3650, "pitch": 72, "duration": 3, "velocity": 91}, {"time": 3656, "pitch": 73, "duration": 3, "velocity": 92}, {"time": 3662, "pitch": 72, "duration": 3, "velocity": 88}, {"time": 3668, "pitch": 68, "duration": 3, "velocity": 88}, {"time": 3674, "pitch": 63, "duration": 4, "velocity": 88}, {"time": 3680, "pitch": 65, "duration": 5, "velocity": 85}, {"time": 3686, "pitch": 63, "duration": 10, "velocity": 88}, {"time": 3698, "pitch": 65, "duration": 20, "velocity": 93}, {"time": 3722, "pitch": 68, "duration": 4, "velocity": 85}, {"time": 3728, "pitch": 70, "duration": 4, "velocity": 94}, {"time": 3734, "pitch": 68, "duration": 4, "velocity": 94}, {"time": 3740, "pitch": 70, "duration": 10, "velocity": 96}, {"time": 3748, "pitch": 68, "duration": 6, "velocity": 92}, {"time": 3758, "pitch": 77, "duration": 10, "velocity": 94}, {"time": 3770, "pitch": 68, "duration": 4, "velocity": 92}, {"time": 3776, "pitch": 70, "duration": 3, "velocity": 93}, {"time": 3782, "pitch": 68, "duration": 4, "velocity": 94}, {"time": 3788, "pitch": 70, "duration": 11, "velocity": 91}, {"time": 3796, "pitch": 68, "duration": 6, "velocity": 92}, {"time": 3806, "pitch": 77, "duration": 18, "velocity": 93}, {"time": 3830, "pitch": 77, "duration": 4, "velocity": 93}, {"time": 3836, "pitch": 78, "duration": 5, "velocity": 94}, {"time": 3842, "pitch": 77, "duration": 5, "velocity": 94}, {"time": 3848, "pitch": 75, "duration": 5, "velocity": 96}, {"time": 3854, "pitch": 73, "duration": 4, "velocity": 92}, {"time": 3860, "pitch": 73, "duration": 4, "velocity": 90}, {"time": 3866, "pitch": 70, "duration": 5, "velocity": 93}, {"time": 3872, "pitch": 73, "duration": 4, "velocity": 89}, {"time": 3878, "pitch": 75, "duration": 30, "velocity": 94}, {"time": 3908, "pitch": 73, "duration": 11, "velocity": 92}, {"time": 3920, "pitch": 68, "duration": 6, "velocity": 85}, {"time": 3926, "pitch": 75, "duration": 12, "velocity": 95}, {"time": 3938, "pitch": 77, "duration": 16, "velocity": 94}, {"time": 3961, "pitch": 77, "duration": 2, "velocity": 91}, {"time": 3967, "pitch": 77, "duration": 4, "velocity": 91}, {"time": 3972, "pitch": 75, "duration": 14, "velocity": 96}, {"time": 4154, "pitch": 70, "duration": 6, "velocity": 94}, {"time": 4160, "pitch": 75, "duration": 6, "velocity": 94}, {"time": 4166, "pitch": 74, "duration": 6, "velocity": 94}, {"time": 4172, "pitch": 75, "duration": 3, "velocity": 93}, {"time": 4178, "pitch": 74, "duration": 3, "velocity": 93}, {"time": 4184, "pitch": 75, "duration": 3, "velocity": 93}, {"time": 4190, "pitch": 74, "duration": 3, "velocity": 94}, {"time": 4196, "pitch": 70, "duration": 8, "velocity": 92}, {"time": 4208, "pitch": 65, "duration": 4, "velocity": 93}, {"time": 4214, "pitch": 67, "duration": 6, "velocity": 87}, {"time": 4220, "pitch": 70, "duration": 12, "velocity": 92}, {"time": 4232, "pitch": 67, "duration": 17, "velocity": 93}, {"time": 4250, "pitch": 70, "duration": 3, "velocity": 95}, {"time": 4256, "pitch": 75, "duration": 4, "velocity": 94}, {"time": 4262, "pitch": 74, "duration": 4, "velocity": 93}, {"time": 4268, "pitch": 75, "duration": 4, "velocity": 94}, {"time": 4274, "pitch": 74, "duration": 3, "velocity": 91}, {"time": 4280, "pitch": 75, "duration": 3, "velocity": 92}, {"time": 4286, "pitch": 74, "duration": 3, "velocity": 88}, {"time": 4292, "pitch": 70, "duration": 3, "velocity": 88}, {"time": 4298, "pitch": 65, "duration": 4, "velocity": 88}, {"time": 4304, "pitch": 67, "duration": 5, "velocity": 85}, {"time": 4310, "pitch": 70, "duration": 10, "velocity": 88}, {"time": 4322, "pitch": 67, "duration": 20, "velocity": 93}, {"time": 4346, "pitch": 70, "duration": 4, "velocity": 85}, {"time": 4352, "pitch": 72, "duration": 4, "velocity": 94}, {"time": 4358, "pitch": 70, "duration": 4, "velocity": 94}, {"time": 4364, "pitch": 72, "duration": 10, "velocity": 96}, {"time": 4376, "pitch": 70, "duration": 5, "velocity": 92}, {"time": 4382, "pitch": 79, "duration": 10, "velocity": 94}, {"time": 4394, "pitch": 70, "duration": 4, "velocity": 92}, {"time": 4400, "pitch": 72, "duration": 3, "velocity": 93}, {"time": 4406, "pitch": 70, "duration": 4, "velocity": 94}, {"time": 4412, "pitch": 72, "duration": 11, "velocity": 91}, {"time": 4424, "pitch": 70, "duration": 5, "velocity": 92}, {"time": 4430, "pitch": 79, "duration": 18, "velocity": 93}, {"time": 4454, "pitch": 79, "duration": 4, "velocity": 93}, {"time": 4460, "pitch": 80, "duration": 5, "velocity": 94}, {"time": 4466, "pitch": 79, "duration": 5, "velocity": 94}, {"time": 4472, "pitch": 77, "duration": 5, "velocity": 96}, {"time": 4478, "pitch": 75, "duration": 4, "velocity": 92}, {"time": 4484, "pitch": 75, "duration": 4, "velocity": 90}, {"time": 4490, "pitch": 72, "duration": 5, "velocity": 93}, {"time": 4496, "pitch": 75, "duration": 4, "velocity": 89}, {"time": 4502, "pitch": 77, "duration": 32, "velocity": 94}, {"time": 4538, "pitch": 75, "duration": 3, "velocity": 94}, {"time": 4544, "pitch": 75, "duration": 6, "velocity": 94}, {"time": 4550, "pitch": 74, "duration": 6, "velocity": 94}, {"time": 4556, "pitch": 75, "duration": 3, "velocity": 93}, {"time": 4562, "pitch": 74, "duration": 3, "velocity": 93}, {"time": 4568, "pitch": 75, "duration": 3, "velocity": 93}, {"time": 4574, "pitch": 74, "duration": 3, "velocity": 94}, {"time": 4580, "pitch": 70, "duration": 8, "velocity": 92}, {"time": 4592, "pitch": 65, "duration": 4, "velocity": 93}, {"time": 4598, "pitch": 67, "duration": 10, "velocity": 87}, {"time": 4610, "pitch": 65, "duration": 6, "velocity": 92}, {"time": 4616, "pitch": 67, "duration": 17, "velocity": 93}, {"time": 4634, "pitch": 75, "duration": 3, "velocity": 95}, {"time": 4640, "pitch": 75, "duration": 4, "velocity": 94}, {"time": 4646, "pitch": 74, "duration": 4, "velocity": 93}, {"time": 4652, "pitch": 75, "duration": 4, "velocity": 94}, {"time": 4658, "pitch": 74, "duration": 3, "velocity": 91}, {"time": 4664, "pitch": 75, "duration": 3, "velocity": 92}, {"time": 4670, "pitch": 74, "duration": 3, "velocity": 88}, {"time": 4676, "pitch": 70, "duration": 3, "velocity": 88}, {"time": 4682, "pitch": 65, "duration": 4, "velocity": 88}, {"time": 4688, "pitch": 67, "duration": 5, "velocity": 85}, {"time": 4694, "pitch": 65, "duration": 10, "velocity": 88}, {"time": 4706, "pitch": 67, "duration": 20, "velocity": 93}, {"time": 4730, "pitch": 70, "duration": 4, "velocity": 85}, {"time": 4736, "pitch": 72, "duration": 4, "velocity": 94}, {"time": 4742, "pitch": 70, "duration": 4, "velocity": 94}, {"time": 4748, "pitch": 72, "duration": 10, "velocity": 96}, {"time": 4760, "pitch": 70, "duration": 5, "velocity": 92}, {"time": 4766, "pitch": 79, "duration": 10, "velocity": 94}, {"time": 4778, "pitch": 70, "duration": 4, "velocity": 92}, {"time": 4784, "pitch": 72, "duration": 3, "velocity": 93}, {"time": 4790, "pitch": 70, "duration": 4, "velocity": 94}, {"time": 4796, "pitch": 72, "duration": 11, "velocity": 91}, {"time": 4808, "pitch": 70, "duration": 5, "velocity": 92}, {"time": 4814, "pitch": 79, "duration": 18, "velocity": 93}, {"time": 4838, "pitch": 79, "duration": 4, "velocity": 93}, {"time": 4844, "pitch": 80, "duration": 5, "velocity": 94}, {"time": 4850, "pitch": 79, "duration": 5, "velocity": 94}, {"time": 4856, "pitch": 77, "duration": 5, "velocity": 96}, {"time": 4862, "pitch": 75, "duration": 4, "velocity": 92}, {"time": 4868, "pitch": 82, "duration": 4, "velocity": 90}, {"time": 4880, "pitch": 82, "duration": 5, "velocity": 93}, {"time": 4886, "pitch": 75, "duration": 12, "velocity": 89}, {"time": 4898, "pitch": 77, "duration": 48, "velocity": 94}, {"time": 4964, "pitch": 75, "duration": 11, "velocity": 97}, {"time": 4976, "pitch": 70, "duration": 6, "velocity": 94}, {"time": 4982, "pitch": 77, "duration": 10, "velocity": 94}, {"time": 4994, "pitch": 75, "duration": 51, "velocity": 96}, {"time": 5156, "pitch": 75, "duration": 11, "velocity": 99}, {"time": 5168, "pitch": 70, "duration": 5, "velocity": 93}, {"time": 5174, "pitch": 77, "duration": 10, "velocity": 96}, {"time": 5186, "pitch": 79, "duration": 60, "velocity": 93}, {"time": 5252, "pitch": 75, "duration": 9, "velocity": 99}, {"time": 5264, "pitch": 70, "duration": 5, "velocity": 93}, {"time": 5270, "pitch": 77, "duration": 24, "velocity": 96}, {"time": 5294, "pitch": 75, "duration": 50, "velocity": 96}]}, {"program": 0, "is_drum": false, "name": "PIANO", "notes": [{"time": 92, "pitch": 49, "duration": 60, "velocity": 87}, {"time": 92, "pitch": 56, "duration": 45, "velocity": 79}, {"time": 92, "pitch": 61, "duration": 44, "velocity": 80}, {"time": 140, "pitch": 61, "duration": 4, "velocity": 79}, {"time": 140, "pitch": 65, "duration": 4, "velocity": 82}, {"time": 176, "pitch": 56, "duration": 3, "velocity": 81}, {"time": 176, "pitch": 61, "duration": 3, "velocity": 80}, {"time": 188, "pitch": 46, "duration": 65, "velocity": 86}, {"time": 188, "pitch": 58, "duration": 16, "velocity": 75}, {"time": 188, "pitch": 61, "duration": 17, "velocity": 80}, {"time": 230, "pitch": 53, "duration": 18, "velocity": 58}, {"time": 236, "pitch": 58, "duration": 2, "velocity": 80}, {"time": 236, "pitch": 61, "duration": 2, "velocity": 86}, {"time": 284, "pitch": 42, "duration": 42, "velocity": 88}, {"time": 284, "pitch": 54, "duration": 8, "velocity": 78}, {"time": 284, "pitch": 61, "duration": 17, "velocity": 85}, {"time": 290, "pitch": 49, "duration": 32, "velocity": 75}, {"time": 296, "pitch": 54, "duration": 3, "velocity": 72}, {"time": 323, "pitch": 54, "duration": 3, "velocity": 74}, {"time": 332, "pitch": 42, "duration": 25, "velocity": 84}, {"time": 332, "pitch": 58, "duration": 19, "velocity": 83}, {"time": 332, "pitch": 61, "duration": 20, "velocity": 87}, {"time": 380, "pitch": 44, "duration": 85, "velocity": 88}, {"time": 380, "pitch": 56, "duration": 43, "velocity": 77}, {"time": 380, "pitch": 60, "duration": 43, "velocity": 80}, {"time": 422, "pitch": 51, "duration": 41, "velocity": 64}, {"time": 428, "pitch": 56, "duration": 3, "velocity": 84}, {"time": 428, "pitch": 60, "duration": 3, "velocity": 87}, {"time": 428, "pitch": 63, "duration": 3, "velocity": 84}, {"time": 476, "pitch": 37, "duration": 35, "velocity": 84}, {"time": 476, "pitch": 56, "duration": 4, "velocity": 82}, {"time": 476, "pitch": 61, "duration": 7, "velocity": 81}, {"time": 482, "pitch": 56, "duration": 4, "velocity": 72}, {"time": 488, "pitch": 61, "duration": 3, "velocity": 71}, {"time": 500, "pitch": 56, "duration": 2, "velocity": 88}, {"time": 500, "pitch": 65, "duration": 4, "velocity": 92}, {"time": 512, "pitch": 61, "duration": 2, "velocity": 73}, {"time": 524, "pitch": 37, "duration": 3, "velocity": 79}, {"time": 524, "pitch": 56, "duration": 3, "velocity": 78}, {"time": 524, "pitch": 61, "duration": 5, "velocity": 79}, {"time": 536, "pitch": 61, "duration": 3, "velocity": 76}, {"time": 548, "pitch": 56, "duration": 3, "velocity": 88}, {"time": 548, "pitch": 65, "duration": 9, "velocity": 93}, {"time": 554, "pitch": 56, "duration": 2, "velocity": 76}, {"time": 560, "pitch": 61, "duration": 3, "velocity": 82}, {"time": 572, "pitch": 46, "duration": 42, "velocity": 88}, {"time": 572, "pitch": 58, "duration": 5, "velocity": 77}, {"time": 572, "pitch": 61, "duration": 7, "velocity": 82}, {"time": 578, "pitch": 53, "duration": 35, "velocity": 74}, {"time": 584, "pitch": 58, "duration": 3, "velocity": 73}, {"time": 584, "pitch": 61, "duration": 3, "velocity": 80}, {"time": 596, "pitch": 58, "duration": 2, "velocity": 86}, {"time": 596, "pitch": 65, "duration": 2, "velocity": 88}, {"time": 608, "pitch": 58, "duration": 3, "velocity": 73}, {"time": 620, "pitch": 46, "duration": 36, "velocity": 84}, {"time": 620, "pitch": 58, "duration": 7, "velocity": 73}, {"time": 620, "pitch": 61, "duration": 7, "velocity": 74}, {"time": 626, "pitch": 53, "duration": 8, "velocity": 77}, {"time": 632, "pitch": 58, "duration": 4, "velocity": 79}, {"time": 644, "pitch": 58, "duration": 4, "velocity": 85}, {"time": 644, "pitch": 65, "duration": 4, "velocity": 89}, {"time": 650, "pitch": 53, "duration": 4, "velocity": 77}, {"time": 656, "pitch": 58, "duration": 4, "velocity": 84}, {"time": 668, "pitch": 42, "duration": 40, "velocity": 90}, {"time": 668, "pitch": 54, "duration": 6, "velocity": 80}, {"time": 668, "pitch": 61, "duration": 8, "velocity": 87}, {"time": 674, "pitch": 49, "duration": 33, "velocity": 77}, {"time": 680, "pitch": 58, "duration": 3, "velocity": 72}, {"time": 692, "pitch": 54, "duration": 3, "velocity": 87}, {"time": 692, "pitch": 61, "duration": 4, "velocity": 84}, {"time": 698, "pitch": 54, "duration": 2, "velocity": 75}, {"time": 704, "pitch": 58, "duration": 2, "velocity": 74}, {"time": 716, "pitch": 42, "duration": 36, "velocity": 92}, {"time": 716, "pitch": 54, "duration": 7, "velocity": 81}, {"time": 716, "pitch": 61, "duration": 15, "velocity": 87}, {"time": 722, "pitch": 49, "duration": 27, "velocity": 77}, {"time": 728, "pitch": 54, "duration": 6, "velocity": 79}, {"time": 740, "pitch": 54, "duration": 2, "velocity": 87}, {"time": 740, "pitch": 61, "duration": 8, "velocity": 87}, {"time": 746, "pitch": 54, "duration": 3, "velocity": 86}, {"time": 752, "pitch": 58, "duration": 2, "velocity": 82}, {"time": 764, "pitch": 44, "duration": 39, "velocity": 91}, {"time": 764, "pitch": 56, "duration": 6, "velocity": 85}, {"time": 764, "pitch": 61, "duration": 9, "velocity": 85}, {"time": 770, "pitch": 51, "duration": 19, "velocity": 71}, {"time": 776, "pitch": 56, "duration": 5, "velocity": 85}, {"time": 788, "pitch": 56, "duration": 5, "velocity": 88}, {"time": 788, "pitch": 61, "duration": 6, "velocity": 86}, {"time": 794, "pitch": 51, "duration": 8, "velocity": 78}, {"time": 800, "pitch": 56, "duration": 3, "velocity": 93}, {"time": 812, "pitch": 44, "duration": 33, "velocity": 86}, {"time": 812, "pitch": 56, "duration": 7, "velocity": 83}, {"time": 812, "pitch": 63, "duration": 14, "velocity": 88}, {"time": 818, "pitch": 51, "duration": 23, "velocity": 84}, {"time": 824, "pitch": 56, "duration": 3, "velocity": 78}, {"time": 836, "pitch": 56, "duration": 9, "velocity": 80}, {"time": 836, "pitch": 60, "duration": 9, "velocity": 81}, {"time": 860, "pitch": 37, "duration": 44, "velocity": 84}, {"time": 860, "pitch": 56, "duration": 6, "velocity": 87}, {"time": 860, "pitch": 61, "duration": 6, "velocity": 88}, {"time": 866, "pitch": 44, "duration": 36, "velocity": 70}, {"time": 872, "pitch": 56, "duration": 2, "velocity": 79}, {"time": 872, "pitch": 65, "duration": 3, "velocity": 87}, {"time": 884, "pitch": 56, "duration": 2, "velocity": 91}, {"time": 884, "pitch": 61, "duration": 5, "velocity": 92}, {"time": 890, "pitch": 56, "duration": 2, "velocity": 59}, {"time": 896, "pitch": 61, "duration": 7, "velocity": 76}, {"time": 902, "pitch": 56, "duration": 4, "velocity": 74}, {"time": 908, "pitch": 37, "duration": 31, "velocity": 83}, {"time": 908, "pitch": 56, "duration": 3, "velocity": 80}, {"time": 908, "pitch": 65, "duration": 9, "velocity": 88}, {"time": 914, "pitch": 56, "duration": 2, "velocity": 70}, {"time": 920, "pitch": 61, "duration": 3, "velocity": 78}, {"time": 932, "pitch": 56, "duration": 2, "velocity": 93}, {"time": 932, "pitch": 65, "duration": 8, "velocity": 92}, {"time": 938, "pitch": 56, "duration": 2, "velocity": 73}, {"time": 944, "pitch": 61, "duration": 4, "velocity": 81}, {"time": 956, "pitch": 46, "duration": 40, "velocity": 89}, {"time": 956, "pitch": 58, "duration": 5, "velocity": 77}, {"time": 956, "pitch": 61, "duration": 6, "velocity": 84}, {"time": 962, "pitch": 53, "duration": 10, "velocity": 61}, {"time": 968, "pitch": 58, "duration": 1, "velocity": 63}, {"time": 968, "pitch": 61, "duration": 6, "velocity": 72}, {"time": 974, "pitch": 53, "duration": 5, "velocity": 60}, {"time": 980, "pitch": 61, "duration": 3, "velocity": 88}, {"time": 980, "pitch": 65, "duration": 3, "velocity": 93}, {"time": 986, "pitch": 53, "duration": 8, "velocity": 63}, {"time": 992, "pitch": 58, "duration": 2, "velocity": 68}, {"time": 992, "pitch": 61, "duration": 2, "velocity": 72}, {"time": 1004, "pitch": 46, "duration": 37, "velocity": 88}, {"time": 1004, "pitch": 58, "duration": 6, "velocity": 72}, {"time": 1004, "pitch": 61, "duration": 7, "velocity": 80}, {"time": 1010, "pitch": 53, "duration": 9, "velocity": 73}, {"time": 1016, "pitch": 58, "duration": 7, "velocity": 83}, {"time": 1022, "pitch": 53, "duration": 7, "velocity": 80}, {"time": 1028, "pitch": 58, "duration": 6, "velocity": 91}, {"time": 1028, "pitch": 61, "duration": 6, "velocity": 91}, {"time": 1028, "pitch": 65, "duration": 6, "velocity": 93}, {"time": 1034, "pitch": 53, "duration": 5, "velocity": 61}, {"time": 1040, "pitch": 58, "duration": 2, "velocity": 77}, {"time": 1040, "pitch": 61, "duration": 2, "velocity": 81}, {"time": 1052, "pitch": 42, "duration": 39, "velocity": 91}, {"time": 1052, "pitch": 54, "duration": 11, "velocity": 83}, {"time": 1052, "pitch": 61, "duration": 12, "velocity": 88}, {"time": 1058, "pitch": 49, "duration": 21, "velocity": 66}, {"time": 1064, "pitch": 58, "duration": 5, "velocity": 72}, {"time": 1076, "pitch": 54, "duration": 2, "velocity": 84}, {"time": 1076, "pitch": 61, "duration": 5, "velocity": 86}, {"time": 1082, "pitch": 54, "duration": 2, "velocity": 84}, {"time": 1082, "pitch": 61, "duration": 1, "velocity": 63}, {"time": 1088, "pitch": 58, "duration": 3, "velocity": 69}, {"time": 1094, "pitch": 54, "duration": 3, "velocity": 69}, {"time": 1100, "pitch": 42, "duration": 35, "velocity": 88}, {"time": 1100, "pitch": 54, "duration": 6, "velocity": 77}, {"time": 1100, "pitch": 61, "duration": 18, "velocity": 85}, {"time": 1106, "pitch": 49, "duration": 9, "velocity": 66}, {"time": 1112, "pitch": 54, "duration": 7, "velocity": 78}, {"time": 1124, "pitch": 54, "duration": 3, "velocity": 91}, {"time": 1124, "pitch": 61, "duration": 4, "velocity": 88}, {"time": 1127, "pitch": 49, "duration": 6, "velocity": 80}, {"time": 1133, "pitch": 54, "duration": 7, "velocity": 83}, {"time": 1142, "pitch": 58, "duration": 2, "velocity": 66}, {"time": 1148, "pitch": 44, "duration": 36, "velocity": 87}, {"time": 1148, "pitch": 56, "duration": 6, "velocity": 83}, {"time": 1148, "pitch": 60, "duration": 6, "velocity": 82}, {"time": 1154, "pitch": 51, "duration": 7, "velocity": 69}, {"time": 1160, "pitch": 56, "duration": 5, "velocity": 79}, {"time": 1166, "pitch": 51, "duration": 7, "velocity": 66}, {"time": 1172, "pitch": 56, "duration": 4, "velocity": 86}, {"time": 1172, "pitch": 63, "duration": 5, "velocity": 87}, {"time": 1178, "pitch": 51, "duration": 6, "velocity": 77}, {"time": 1184, "pitch": 56, "duration": 2, "velocity": 79}, {"time": 1196, "pitch": 44, "duration": 33, "velocity": 89}, {"time": 1196, "pitch": 56, "duration": 6, "velocity": 81}, {"time": 1196, "pitch": 60, "duration": 6, "velocity": 81}, {"time": 1196, "pitch": 63, "duration": 7, "velocity": 86}, {"time": 1202, "pitch": 51, "duration": 20, "velocity": 71}, {"time": 1208, "pitch": 56, "duration": 4, "velocity": 72}, {"time": 1220, "pitch": 56, "duration": 6, "velocity": 87}, {"time": 1220, "pitch": 63, "duration": 7, "velocity": 84}, {"time": 1226, "pitch": 51, "duration": 3, "velocity": 84}, {"time": 1232, "pitch": 56, "duration": 3, "velocity": 88}, {"time": 1244, "pitch": 37, "duration": 30, "velocity": 90}, {"time": 1244, "pitch": 56, "duration": 6, "velocity": 92}, {"time": 1244, "pitch": 61, "duration": 7, "velocity": 92}, {"time": 1250, "pitch": 44, "duration": 20, "velocity": 82}, {"time": 1256, "pitch": 56, "duration": 7, "velocity": 98}, {"time": 1262, "pitch": 61, "duration": 2, "velocity": 91}, {"time": 1268, "pitch": 56, "duration": 3, "velocity": 99}, {"time": 1268, "pitch": 65, "duration": 6, "velocity": 96}, {"time": 1280, "pitch": 56, "duration": 7, "velocity": 92}, {"time": 1286, "pitch": 61, "duration": 13, "velocity": 88}, {"time": 1292, "pitch": 37, "duration": 2, "velocity": 92}, {"time": 1298, "pitch": 56, "duration": 7, "velocity": 81}, {"time": 1304, "pitch": 61, "duration": 7, "velocity": 92}, {"time": 1310, "pitch": 56, "duration": 3, "velocity": 91}, {"time": 1316, "pitch": 56, "duration": 2, "velocity": 96}, {"time": 1316, "pitch": 61, "duration": 6, "velocity": 99}, {"time": 1316, "pitch": 65, "duration": 13, "velocity": 98}, {"time": 1322, "pitch": 56, "duration": 4, "velocity": 88}, {"time": 1328, "pitch": 48, "duration": 2, "velocity": 103}, {"time": 1328, "pitch": 60, "duration": 10, "velocity": 93}, {"time": 1340, "pitch": 46, "duration": 25, "velocity": 93}, {"time": 1340, "pitch": 58, "duration": 6, "velocity": 86}, {"time": 1340, "pitch": 61, "duration": 6, "velocity": 91}, {"time": 1346, "pitch": 53, "duration": 8, "velocity": 86}, {"time": 1352, "pitch": 58, "duration": 6, "velocity": 93}, {"time": 1358, "pitch": 53, "duration": 6, "velocity": 74}, {"time": 1364, "pitch": 58, "duration": 4, "velocity": 92}, {"time": 1364, "pitch": 61, "duration": 4, "velocity": 94}, {"time": 1364, "pitch": 65, "duration": 4, "velocity": 99}, {"time": 1370, "pitch": 53, "duration": 8, "velocity": 78}, {"time": 1376, "pitch": 58, "duration": 3, "velocity": 86}, {"time": 1382, "pitch": 61, "duration": 14, "velocity": 87}, {"time": 1388, "pitch": 46, "duration": 37, "velocity": 95}, {"time": 1394, "pitch": 53, "duration": 8, "velocity": 80}, {"time": 1400, "pitch": 58, "duration": 7, "velocity": 89}, {"time": 1406, "pitch": 53, "duration": 8, "velocity": 86}, {"time": 1412, "pitch": 58, "duration": 4, "velocity": 93}, {"time": 1412, "pitch": 61, "duration": 7, "velocity": 101}, {"time": 1412, "pitch": 65, "duration": 8, "velocity": 99}, {"time": 1415, "pitch": 53, "duration": 9, "velocity": 83}, {"time": 1424, "pitch": 58, "duration": 3, "velocity": 92}, {"time": 1424, "pitch": 61, "duration": 3, "velocity": 93}, {"time": 1424, "pitch": 65, "duration": 3, "velocity": 94}, {"time": 1430, "pitch": 44, "duration": 3, "velocity": 79}, {"time": 1430, "pitch": 56, "duration": 3, "velocity": 83}, {"time": 1430, "pitch": 60, "duration": 2, "velocity": 88}, {"time": 1436, "pitch": 42, "duration": 40, "velocity": 93}, {"time": 1436, "pitch": 54, "duration": 11, "velocity": 92}, {"time": 1436, "pitch": 58, "duration": 12, "velocity": 93}, {"time": 1439, "pitch": 49, "duration": 21, "velocity": 74}, {"time": 1448, "pitch": 61, "duration": 4, "velocity": 85}, {"time": 1460, "pitch": 54, "duration": 4, "velocity": 95}, {"time": 1460, "pitch": 66, "duration": 5, "velocity": 93}, {"time": 1463, "pitch": 49, "duration": 8, "velocity": 81}, {"time": 1472, "pitch": 58, "duration": 2, "velocity": 92}, {"time": 1472, "pitch": 61, "duration": 4, "velocity": 92}, {"time": 1478, "pitch": 54, "duration": 2, "velocity": 90}, {"time": 1484, "pitch": 41, "duration": 21, "velocity": 94}, {"time": 1484, "pitch": 53, "duration": 7, "velocity": 93}, {"time": 1484, "pitch": 56, "duration": 9, "velocity": 93}, {"time": 1487, "pitch": 48, "duration": 15, "velocity": 76}, {"time": 1496, "pitch": 60, "duration": 3, "velocity": 93}, {"time": 1502, "pitch": 56, "duration": 2, "velocity": 79}, {"time": 1508, "pitch": 46, "duration": 17, "velocity": 96}, {"time": 1508, "pitch": 58, "duration": 7, "velocity": 87}, {"time": 1508, "pitch": 61, "duration": 7, "velocity": 93}, {"time": 1514, "pitch": 53, "duration": 9, "velocity": 84}, {"time": 1520, "pitch": 58, "duration": 2, "velocity": 93}, {"time": 1520, "pitch": 65, "duration": 4, "velocity": 96}, {"time": 1526, "pitch": 58, "duration": 4, "velocity": 86}, {"time": 1532, "pitch": 51, "duration": 36, "velocity": 98}, {"time": 1532, "pitch": 58, "duration": 3, "velocity": 91}, {"time": 1532, "pitch": 66, "duration": 9, "velocity": 92}, {"time": 1538, "pitch": 58, "duration": 4, "velocity": 87}, {"time": 1544, "pitch": 63, "duration": 8, "velocity": 92}, {"time": 1550, "pitch": 58, "duration": 4, "velocity": 92}, {"time": 1556, "pitch": 58, "duration": 2, "velocity": 93}, {"time": 1556, "pitch": 63, "duration": 5, "velocity": 101}, {"time": 1556, "pitch": 66, "duration": 14, "velocity": 98}, {"time": 1562, "pitch": 58, "duration": 4, "velocity": 86}, {"time": 1568, "pitch": 49, "duration": 2, "velocity": 93}, {"time": 1568, "pitch": 61, "duration": 6, "velocity": 97}, {"time": 1574, "pitch": 58, "duration": 2, "velocity": 84}, {"time": 1580, "pitch": 44, "duration": 18, "velocity": 94}, {"time": 1580, "pitch": 56, "duration": 5, "velocity": 93}, {"time": 1580, "pitch": 60, "duration": 7, "velocity": 94}, {"time": 1586, "pitch": 51, "duration": 9, "velocity": 87}, {"time": 1592, "pitch": 56, "duration": 9, "velocity": 98}, {"time": 1592, "pitch": 63, "duration": 7, "velocity": 97}, {"time": 1598, "pitch": 60, "duration": 3, "velocity": 90}, {"time": 1604, "pitch": 44, "duration": 15, "velocity": 95}, {"time": 1604, "pitch": 56, "duration": 8, "velocity": 93}, {"time": 1604, "pitch": 60, "duration": 8, "velocity": 99}, {"time": 1604, "pitch": 63, "duration": 7, "velocity": 95}, {"time": 1604, "pitch": 68, "duration": 6, "velocity": 92}, {"time": 1610, "pitch": 51, "duration": 8, "velocity": 75}, {"time": 1616, "pitch": 56, "duration": 2, "velocity": 92}, {"time": 1616, "pitch": 60, "duration": 3, "velocity": 94}, {"time": 1628, "pitch": 37, "duration": 2, "velocity": 93}, {"time": 1628, "pitch": 56, "duration": 2, "velocity": 92}, {"time": 1628, "pitch": 61, "duration": 7, "velocity": 93}, {"time": 1634, "pitch": 56, "duration": 2, "velocity": 84}, {"time": 1640, "pitch": 61, "duration": 3, "velocity": 84}, {"time": 1646, "pitch": 56, "duration": 2, "velocity": 86}, {"time": 1652, "pitch": 56, "duration": 2, "velocity": 97}, {"time": 1652, "pitch": 65, "duration": 5, "velocity": 101}, {"time": 1658, "pitch": 56, "duration": 3, "velocity": 81}, {"time": 1664, "pitch": 61, "duration": 3, "velocity": 96}, {"time": 1670, "pitch": 56, "duration": 8, "velocity": 88}, {"time": 1676, "pitch": 49, "duration": 5, "velocity": 93}, {"time": 1676, "pitch": 61, "duration": 4, "velocity": 93}, {"time": 1676, "pitch": 65, "duration": 6, "velocity": 92}, {"time": 1682, "pitch": 56, "duration": 4, "velocity": 80}, {"time": 1685, "pitch": 61, "duration": 3, "velocity": 83}, {"time": 1691, "pitch": 56, "duration": 4, "velocity": 79}, {"time": 1697, "pitch": 37, "duration": 2, "velocity": 94}, {"time": 1700, "pitch": 61, "duration": 3, "velocity": 94}, {"time": 1700, "pitch": 65, "duration": 7, "velocity": 96}, {"time": 1703, "pitch": 56, "duration": 4, "velocity": 84}, {"time": 1703, "pitch": 61, "duration": 1, "velocity": 39}, {"time": 1709, "pitch": 48, "duration": 6, "velocity": 94}, {"time": 1712, "pitch": 56, "duration": 2, "velocity": 85}, {"time": 1712, "pitch": 60, "duration": 6, "velocity": 85}, {"time": 1724, "pitch": 46, "duration": 16, "velocity": 92}, {"time": 1724, "pitch": 58, "duration": 3, "velocity": 87}, {"time": 1724, "pitch": 61, "duration": 7, "velocity": 93}, {"time": 1730, "pitch": 53, "duration": 8, "velocity": 89}, {"time": 1736, "pitch": 58, "duration": 3, "velocity": 80}, {"time": 1736, "pitch": 61, "duration": 4, "velocity": 82}, {"time": 1742, "pitch": 53, "duration": 2, "velocity": 51}, {"time": 1748, "pitch": 58, "duration": 3, "velocity": 93}, {"time": 1748, "pitch": 61, "duration": 4, "velocity": 99}, {"time": 1748, "pitch": 65, "duration": 4, "velocity": 94}, {"time": 1754, "pitch": 53, "duration": 2, "velocity": 80}, {"time": 1760, "pitch": 58, "duration": 10, "velocity": 90}, {"time": 1772, "pitch": 46, "duration": 15, "velocity": 94}, {"time": 1772, "pitch": 58, "duration": 4, "velocity": 87}, {"time": 1772, "pitch": 61, "duration": 6, "velocity": 85}, {"time": 1778, "pitch": 53, "duration": 7, "velocity": 84}, {"time": 1784, "pitch": 58, "duration": 3, "velocity": 80}, {"time": 1784, "pitch": 61, "duration": 4, "velocity": 86}, {"time": 1790, "pitch": 53, "duration": 8, "velocity": 87}, {"time": 1796, "pitch": 58, "duration": 2, "velocity": 92}, {"time": 1796, "pitch": 61, "duration": 7, "velocity": 98}, {"time": 1796, "pitch": 65, "duration": 11, "velocity": 96}, {"time": 1802, "pitch": 58, "duration": 2, "velocity": 85}, {"time": 1808, "pitch": 44, "duration": 2, "velocity": 92}, {"time": 1808, "pitch": 56, "duration": 4, "velocity": 88}, {"time": 1808, "pitch": 60, "duration": 3, "velocity": 86}, {"time": 1820, "pitch": 42, "duration": 44, "velocity": 93}, {"time": 1820, "pitch": 54, "duration": 10, "velocity": 86}, {"time": 1820, "pitch": 58, "duration": 11, "velocity": 86}, {"time": 1826, "pitch": 49, "duration": 10, "velocity": 75}, {"time": 1832, "pitch": 61, "duration": 3, "velocity": 85}, {"time": 1838, "pitch": 54, "duration": 2, "velocity": 75}, {"time": 1844, "pitch": 54, "duration": 7, "velocity": 92}, {"time": 1844, "pitch": 58, "duration": 7, "velocity": 95}, {"time": 1844, "pitch": 61, "duration": 7, "velocity": 95}, {"time": 1844, "pitch": 66, "duration": 7, "velocity": 93}, {"time": 1850, "pitch": 49, "duration": 13, "velocity": 79}, {"time": 1856, "pitch": 54, "duration": 1, "velocity": 69}, {"time": 1856, "pitch": 58, "duration": 3, "velocity": 89}, {"time": 1856, "pitch": 61, "duration": 4, "velocity": 90}, {"time": 1862, "pitch": 54, "duration": 2, "velocity": 84}, {"time": 1868, "pitch": 53, "duration": 7, "velocity": 106}, {"time": 1868, "pitch": 60, "duration": 3, "velocity": 92}, {"time": 1868, "pitch": 65, "duration": 7, "velocity": 95}, {"time": 1868, "pitch": 68, "duration": 8, "velocity": 88}, {"time": 1874, "pitch": 60, "duration": 3, "velocity": 93}, {"time": 1880, "pitch": 65, "duration": 2, "velocity": 83}, {"time": 1886, "pitch": 46, "duration": 23, "velocity": 95}, {"time": 1886, "pitch": 58, "duration": 10, "velocity": 90}, {"time": 1886, "pitch": 61, "duration": 11, "velocity": 94}, {"time": 1898, "pitch": 53, "duration": 10, "velocity": 87}, {"time": 1904, "pitch": 58, "duration": 2, "velocity": 91}, {"time": 1904, "pitch": 61, "duration": 5, "velocity": 97}, {"time": 1904, "pitch": 65, "duration": 8, "velocity": 98}, {"time": 1910, "pitch": 58, "duration": 2, "velocity": 62}, {"time": 1916, "pitch": 47, "duration": 23, "velocity": 103}, {"time": 1916, "pitch": 59, "duration": 6, "velocity": 83}, {"time": 1916, "pitch": 63, "duration": 13, "velocity": 88}, {"time": 1922, "pitch": 54, "duration": 16, "velocity": 84}, {"time": 1928, "pitch": 59, "duration": 3, "velocity": 84}, {"time": 1934, "pitch": 59, "duration": 8, "velocity": 92}, {"time": 1934, "pitch": 63, "duration": 8, "velocity": 93}, {"time": 1934, "pitch": 66, "duration": 9, "velocity": 93}, {"time": 1946, "pitch": 59, "duration": 6, "velocity": 101}, {"time": 1946, "pitch": 63, "duration": 8, "velocity": 98}, {"time": 1958, "pitch": 44, "duration": 44, "velocity": 94}, {"time": 1958, "pitch": 56, "duration": 12, "velocity": 91}, {"time": 1958, "pitch": 60, "duration": 11, "velocity": 95}, {"time": 1958, "pitch": 63, "duration": 12, "velocity": 93}, {"time": 1970, "pitch": 51, "duration": 32, "velocity": 74}, {"time": 1976, "pitch": 56, "duration": 7, "velocity": 88}, {"time": 1976, "pitch": 68, "duration": 3, "velocity": 82}, {"time": 1982, "pitch": 63, "duration": 2, "velocity": 87}, {"time": 1988, "pitch": 68, "duration": 21, "velocity": 85}, {"time": 1988, "pitch": 72, "duration": 21, "velocity": 94}, {"time": 2012, "pitch": 42, "duration": 43, "velocity": 94}, {"time": 2012, "pitch": 54, "duration": 8, "velocity": 87}, {"time": 2012, "pitch": 58, "duration": 14, "velocity": 86}, {"time": 2018, "pitch": 49, "duration": 34, "velocity": 88}, {"time": 2024, "pitch": 54, "duration": 13, "velocity": 88}, {"time": 2030, "pitch": 61, "duration": 8, "velocity": 92}, {"time": 2042, "pitch": 58, "duration": 2, "velocity": 88}, {"time": 2045, "pitch": 66, "duration": 3, "velocity": 93}, {"time": 2054, "pitch": 54, "duration": 3, "velocity": 60}, {"time": 2060, "pitch": 42, "duration": 21, "velocity": 93}, {"time": 2060, "pitch": 54, "duration": 6, "velocity": 79}, {"time": 2060, "pitch": 58, "duration": 14, "velocity": 82}, {"time": 2060, "pitch": 61, "duration": 19, "velocity": 84}, {"time": 2066, "pitch": 49, "duration": 12, "velocity": 74}, {"time": 2072, "pitch": 54, "duration": 7, "velocity": 79}, {"time": 2075, "pitch": 58, "duration": 5, "velocity": 68}, {"time": 2084, "pitch": 44, "duration": 16, "velocity": 94}, {"time": 2084, "pitch": 56, "duration": 8, "velocity": 88}, {"time": 2084, "pitch": 60, "duration": 12, "velocity": 88}, {"time": 2090, "pitch": 51, "duration": 11, "velocity": 84}, {"time": 2096, "pitch": 56, "duration": 5, "velocity": 90}, {"time": 2108, "pitch": 46, "duration": 45, "velocity": 93}, {"time": 2108, "pitch": 58, "duration": 12, "velocity": 87}, {"time": 2108, "pitch": 61, "duration": 13, "velocity": 88}, {"time": 2114, "pitch": 53, "duration": 39, "velocity": 83}, {"time": 2126, "pitch": 58, "duration": 2, "velocity": 93}, {"time": 2126, "pitch": 70, "duration": 2, "velocity": 92}, {"time": 2138, "pitch": 58, "duration": 2, "velocity": 87}, {"time": 2138, "pitch": 65, "duration": 1, "velocity": 92}, {"time": 2150, "pitch": 58, "duration": 2, "velocity": 67}, {"time": 2156, "pitch": 46, "duration": 38, "velocity": 92}, {"time": 2156, "pitch": 58, "duration": 8, "velocity": 86}, {"time": 2156, "pitch": 61, "duration": 12, "velocity": 90}, {"time": 2162, "pitch": 53, "duration": 14, "velocity": 83}, {"time": 2174, "pitch": 58, "duration": 7, "velocity": 90}, {"time": 2174, "pitch": 61, "duration": 13, "velocity": 93}, {"time": 2174, "pitch": 65, "duration": 13, "velocity": 93}, {"time": 2180, "pitch": 53, "duration": 12, "velocity": 54}, {"time": 2186, "pitch": 58, "duration": 2, "velocity": 77}, {"time": 2192, "pitch": 58, "duration": 2, "velocity": 77}, {"time": 2192, "pitch": 61, "duration": 2, "velocity": 75}, {"time": 2192, "pitch": 65, "duration": 2, "velocity": 86}, {"time": 2198, "pitch": 44, "duration": 4, "velocity": 85}, {"time": 2198, "pitch": 56, "duration": 3, "velocity": 90}, {"time": 2204, "pitch": 42, "duration": 46, "velocity": 94}, {"time": 2204, "pitch": 54, "duration": 14, "velocity": 93}, {"time": 2204, "pitch": 58, "duration": 13, "velocity": 92}, {"time": 2210, "pitch": 49, "duration": 39, "velocity": 85}, {"time": 2216, "pitch": 61, "duration": 2, "velocity": 89}, {"time": 2222, "pitch": 54, "duration": 2, "velocity": 93}, {"time": 2222, "pitch": 66, "duration": 2, "velocity": 94}, {"time": 2234, "pitch": 54, "duration": 2, "velocity": 86}, {"time": 2234, "pitch": 61, "duration": 2, "velocity": 86}, {"time": 2252, "pitch": 42, "duration": 44, "velocity": 92}, {"time": 2252, "pitch": 54, "duration": 7, "velocity": 83}, {"time": 2252, "pitch": 61, "duration": 14, "velocity": 86}, {"time": 2258, "pitch": 49, "duration": 25, "velocity": 80}, {"time": 2264, "pitch": 54, "duration": 6, "velocity": 92}, {"time": 2270, "pitch": 54, "duration": 1, "velocity": 58}, {"time": 2270, "pitch": 58, "duration": 6, "velocity": 95}, {"time": 2282, "pitch": 54, "duration": 6, "velocity": 94}, {"time": 2282, "pitch": 66, "duration": 7, "velocity": 89}, {"time": 2288, "pitch": 49, "duration": 7, "velocity": 88}, {"time": 2294, "pitch": 54, "duration": 3, "velocity": 96}, {"time": 2299, "pitch": 39, "duration": 3, "velocity": 97}, {"time": 2302, "pitch": 43, "duration": 3, "velocity": 97}, {"time": 2305, "pitch": 46, "duration": 3, "velocity": 97}, {"time": 2308, "pitch": 49, "duration": 3, "velocity": 97}, {"time": 2311, "pitch": 51, "duration": 3, "velocity": 97}, {"time": 2314, "pitch": 55, "duration": 3, "velocity": 97}, {"time": 2317, "pitch": 58, "duration": 3, "velocity": 97}, {"time": 2320, "pitch": 61, "duration": 3, "velocity": 97}, {"time": 2323, "pitch": 63, "duration": 3, "velocity": 97}, {"time": 2326, "pitch": 67, "duration": 3, "velocity": 97}, {"time": 2329, "pitch": 70, "duration": 3, "velocity": 97}, {"time": 2332, "pitch": 73, "duration": 3, "velocity": 97}, {"time": 2335, "pitch": 75, "duration": 3, "velocity": 97}, {"time": 2338, "pitch": 79, "duration": 3, "velocity": 97}, {"time": 2341, "pitch": 82, "duration": 3, "velocity": 97}, {"time": 2344, "pitch": 85, "duration": 3, "velocity": 97}, {"time": 2347, "pitch": 87, "duration": 29, "velocity": 97}, {"time": 2348, "pitch": 39, "duration": 22, "velocity": 93}, {"time": 2348, "pitch": 67, "duration": 28, "velocity": 71}, {"time": 2348, "pitch": 73, "duration": 28, "velocity": 88}, {"time": 2348, "pitch": 75, "duration": 28, "velocity": 88}, {"time": 2348, "pitch": 79, "duration": 28, "velocity": 90}, {"time": 2396, "pitch": 37, "duration": 35, "velocity": 84}, {"time": 2396, "pitch": 56, "duration": 4, "velocity": 82}, {"time": 2396, "pitch": 61, "duration": 7, "velocity": 81}, {"time": 2402, "pitch": 56, "duration": 4, "velocity": 72}, {"time": 2408, "pitch": 61, "duration": 3, "velocity": 71}, {"time": 2420, "pitch": 56, "duration": 2, "velocity": 88}, {"time": 2420, "pitch": 65, "duration": 4, "velocity": 92}, {"time": 2432, "pitch": 61, "duration": 2, "velocity": 73}, {"time": 2444, "pitch": 37, "duration": 3, "velocity": 79}, {"time": 2444, "pitch": 56, "duration": 3, "velocity": 78}, {"time": 2444, "pitch": 61, "duration": 5, "velocity": 79}, {"time": 2456, "pitch": 61, "duration": 3, "velocity": 76}, {"time": 2468, "pitch": 56, "duration": 3, "velocity": 88}, {"time": 2468, "pitch": 65, "duration": 9, "velocity": 93}, {"time": 2474, "pitch": 56, "duration": 2, "velocity": 76}, {"time": 2480, "pitch": 61, "duration": 3, "velocity": 82}, {"time": 2492, "pitch": 46, "duration": 42, "velocity": 88}, {"time": 2492, "pitch": 58, "duration": 5, "velocity": 77}, {"time": 2492, "pitch": 61, "duration": 7, "velocity": 82}, {"time": 2498, "pitch": 53, "duration": 35, "velocity": 74}, {"time": 2504, "pitch": 58, "duration": 3, "velocity": 73}, {"time": 2504, "pitch": 61, "duration": 3, "velocity": 80}, {"time": 2516, "pitch": 58, "duration": 2, "velocity": 86}, {"time": 2516, "pitch": 65, "duration": 2, "velocity": 88}, {"time": 2528, "pitch": 58, "duration": 3, "velocity": 73}, {"time": 2540, "pitch": 46, "duration": 36, "velocity": 84}, {"time": 2540, "pitch": 58, "duration": 7, "velocity": 73}, {"time": 2540, "pitch": 61, "duration": 7, "velocity": 74}, {"time": 2546, "pitch": 53, "duration": 8, "velocity": 77}, {"time": 2552, "pitch": 58, "duration": 4, "velocity": 79}, {"time": 2564, "pitch": 58, "duration": 4, "velocity": 85}, {"time": 2564, "pitch": 65, "duration": 4, "velocity": 89}, {"time": 2570, "pitch": 53, "duration": 4, "velocity": 77}, {"time": 2576, "pitch": 58, "duration": 4, "velocity": 84}, {"time": 2588, "pitch": 42, "duration": 40, "velocity": 90}, {"time": 2588, "pitch": 54, "duration": 6, "velocity": 80}, {"time": 2588, "pitch": 61, "duration": 8, "velocity": 87}, {"time": 2594, "pitch": 49, "duration": 33, "velocity": 77}, {"time": 2600, "pitch": 58, "duration": 3, "velocity": 72}, {"time": 2612, "pitch": 54, "duration": 3, "velocity": 87}, {"time": 2612, "pitch": 61, "duration": 4, "velocity": 84}, {"time": 2618, "pitch": 54, "duration": 2, "velocity": 75}, {"time": 2624, "pitch": 58, "duration": 2, "velocity": 74}, {"time": 2636, "pitch": 42, "duration": 36, "velocity": 92}, {"time": 2636, "pitch": 54, "duration": 7, "velocity": 81}, {"time": 2636, "pitch": 61, "duration": 15, "velocity": 87}, {"time": 2642, "pitch": 49, "duration": 27, "velocity": 77}, {"time": 2648, "pitch": 54, "duration": 6, "velocity": 79}, {"time": 2660, "pitch": 54, "duration": 2, "velocity": 87}, {"time": 2660, "pitch": 61, "duration": 8, "velocity": 87}, {"time": 2666, "pitch": 54, "duration": 3, "velocity": 86}, {"time": 2672, "pitch": 58, "duration": 2, "velocity": 82}, {"time": 2684, "pitch": 44, "duration": 39, "velocity": 91}, {"time": 2684, "pitch": 56, "duration": 6, "velocity": 85}, {"time": 2684, "pitch": 61, "duration": 9, "velocity": 85}, {"time": 2690, "pitch": 51, "duration": 19, "velocity": 71}, {"time": 2696, "pitch": 56, "duration": 5, "velocity": 85}, {"time": 2708, "pitch": 56, "duration": 5, "velocity": 88}, {"time": 2708, "pitch": 61, "duration": 6, "velocity": 86}, {"time": 2714, "pitch": 51, "duration": 8, "velocity": 78}, {"time": 2720, "pitch": 56, "duration": 3, "velocity": 93}, {"time": 2732, "pitch": 44, "duration": 33, "velocity": 86}, {"time": 2732, "pitch": 56, "duration": 7, "velocity": 83}, {"time": 2732, "pitch": 63, "duration": 14, "velocity": 88}, {"time": 2738, "pitch": 51, "duration": 23, "velocity": 84}, {"time": 2744, "pitch": 56, "duration": 3, "velocity": 78}, {"time": 2756, "pitch": 56, "duration": 9, "velocity": 80}, {"time": 2756, "pitch": 60, "duration": 9, "velocity": 81}, {"time": 2780, "pitch": 37, "duration": 44, "velocity": 84}, {"time": 2780, "pitch": 56, "duration": 6, "velocity": 87}, {"time": 2780, "pitch": 61, "duration": 6, "velocity": 88}, {"time": 2786, "pitch": 44, "duration": 36, "velocity": 70}, {"time": 2792, "pitch": 56, "duration": 2, "velocity": 79}, {"time": 2792, "pitch": 65, "duration": 3, "velocity": 87}, {"time": 2804, "pitch": 56, "duration": 2, "velocity": 91}, {"time": 2804, "pitch": 61, "duration": 5, "velocity": 92}, {"time": 2810, "pitch": 56, "duration": 2, "velocity": 59}, {"time": 2816, "pitch": 61, "duration": 7, "velocity": 76}, {"time": 2822, "pitch": 56, "duration": 4, "velocity": 74}, {"time": 2828, "pitch": 37, "duration": 31, "velocity": 83}, {"time": 2828, "pitch": 56, "duration": 3, "velocity": 80}, {"time": 2828, "pitch": 65, "duration": 9, "velocity": 88}, {"time": 2834, "pitch": 56, "duration": 2, "velocity": 70}, {"time": 2840, "pitch": 61, "duration": 3, "velocity": 78}, {"time": 2852, "pitch": 56, "duration": 2, "velocity": 93}, {"time": 2852, "pitch": 65, "duration": 8, "velocity": 92}, {"time": 2858, "pitch": 56, "duration": 2, "velocity": 73}, {"time": 2864, "pitch": 61, "duration": 4, "velocity": 81}, {"time": 2876, "pitch": 46, "duration": 40, "velocity": 89}, {"time": 2876, "pitch": 58, "duration": 5, "velocity": 77}, {"time": 2876, "pitch": 61, "duration": 6, "velocity": 84}, {"time": 2882, "pitch": 53, "duration": 10, "velocity": 61}, {"time": 2888, "pitch": 58, "duration": 1, "velocity": 63}, {"time": 2888, "pitch": 61, "duration": 6, "velocity": 72}, {"time": 2894, "pitch": 53, "duration": 5, "velocity": 60}, {"time": 2900, "pitch": 61, "duration": 3, "velocity": 88}, {"time": 2900, "pitch": 65, "duration": 3, "velocity": 93}, {"time": 2906, "pitch": 53, "duration": 8, "velocity": 63}, {"time": 2912, "pitch": 58, "duration": 2, "velocity": 68}, {"time": 2912, "pitch": 61, "duration": 2, "velocity": 72}, {"time": 2924, "pitch": 46, "duration": 37, "velocity": 88}, {"time": 2924, "pitch": 58, "duration": 6, "velocity": 72}, {"time": 2924, "pitch": 61, "duration": 7, "velocity": 80}, {"time": 2930, "pitch": 53, "duration": 9, "velocity": 73}, {"time": 2936, "pitch": 58, "duration": 7, "velocity": 83}, {"time": 2942, "pitch": 53, "duration": 7, "velocity": 80}, {"time": 2948, "pitch": 58, "duration": 6, "velocity": 91}, {"time": 2948, "pitch": 61, "duration": 6, "velocity": 91}, {"time": 2948, "pitch": 65, "duration": 6, "velocity": 93}, {"time": 2954, "pitch": 53, "duration": 5, "velocity": 61}, {"time": 2960, "pitch": 58, "duration": 2, "velocity": 77}, {"time": 2960, "pitch": 61, "duration": 2, "velocity": 81}, {"time": 2972, "pitch": 42, "duration": 39, "velocity": 91}, {"time": 2972, "pitch": 54, "duration": 11, "velocity": 83}, {"time": 2972, "pitch": 61, "duration": 12, "velocity": 88}, {"time": 2978, "pitch": 49, "duration": 21, "velocity": 66}, {"time": 2984, "pitch": 58, "duration": 5, "velocity": 72}, {"time": 2996, "pitch": 54, "duration": 2, "velocity": 84}, {"time": 2996, "pitch": 61, "duration": 5, "velocity": 86}, {"time": 3002, "pitch": 54, "duration": 2, "velocity": 84}, {"time": 3002, "pitch": 61, "duration": 1, "velocity": 63}, {"time": 3008, "pitch": 58, "duration": 3, "velocity": 69}, {"time": 3014, "pitch": 54, "duration": 3, "velocity": 69}, {"time": 3020, "pitch": 42, "duration": 35, "velocity": 88}, {"time": 3020, "pitch": 54, "duration": 6, "velocity": 77}, {"time": 3020, "pitch": 61, "duration": 18, "velocity": 85}, {"time": 3026, "pitch": 49, "duration": 9, "velocity": 66}, {"time": 3032, "pitch": 54, "duration": 7, "velocity": 78}, {"time": 3044, "pitch": 54, "duration": 3, "velocity": 91}, {"time": 3044, "pitch": 61, "duration": 4, "velocity": 88}, {"time": 3047, "pitch": 49, "duration": 6, "velocity": 80}, {"time": 3053, "pitch": 54, "duration": 7, "velocity": 83}, {"time": 3062, "pitch": 58, "duration": 2, "velocity": 66}, {"time": 3068, "pitch": 44, "duration": 36, "velocity": 87}, {"time": 3068, "pitch": 56, "duration": 6, "velocity": 83}, {"time": 3068, "pitch": 60, "duration": 6, "velocity": 82}, {"time": 3074, "pitch": 51, "duration": 7, "velocity": 69}, {"time": 3080, "pitch": 56, "duration": 5, "velocity": 79}, {"time": 3086, "pitch": 51, "duration": 7, "velocity": 66}, {"time": 3092, "pitch": 56, "duration": 4, "velocity": 86}, {"time": 3092, "pitch": 63, "duration": 5, "velocity": 87}, {"time": 3098, "pitch": 51, "duration": 6, "velocity": 77}, {"time": 3104, "pitch": 56, "duration": 2, "velocity": 79}, {"time": 3116, "pitch": 44, "duration": 33, "velocity": 89}, {"time": 3116, "pitch": 56, "duration": 6, "velocity": 81}, {"time": 3116, "pitch": 60, "duration": 6, "velocity": 81}, {"time": 3116, "pitch": 63, "duration": 7, "velocity": 86}, {"time": 3122, "pitch": 51, "duration": 20, "velocity": 71}, {"time": 3128, "pitch": 56, "duration": 4, "velocity": 72}, {"time": 3140, "pitch": 56, "duration": 6, "velocity": 87}, {"time": 3140, "pitch": 63, "duration": 7, "velocity": 84}, {"time": 3146, "pitch": 51, "duration": 3, "velocity": 84}, {"time": 3152, "pitch": 56, "duration": 3, "velocity": 88}, {"time": 3164, "pitch": 37, "duration": 30, "velocity": 90}, {"time": 3164, "pitch": 56, "duration": 6, "velocity": 92}, {"time": 3164, "pitch": 61, "duration": 7, "velocity": 92}, {"time": 3170, "pitch": 44, "duration": 20, "velocity": 82}, {"time": 3176, "pitch": 56, "duration": 7, "velocity": 98}, {"time": 3182, "pitch": 61, "duration": 2, "velocity": 91}, {"time": 3188, "pitch": 56, "duration": 3, "velocity": 99}, {"time": 3188, "pitch": 65, "duration": 6, "velocity": 96}, {"time": 3200, "pitch": 56, "duration": 7, "velocity": 92}, {"time": 3206, "pitch": 61, "duration": 13, "velocity": 88}, {"time": 3212, "pitch": 37, "duration": 2, "velocity": 92}, {"time": 3218, "pitch": 56, "duration": 7, "velocity": 81}, {"time": 3224, "pitch": 61, "duration": 7, "velocity": 92}, {"time": 3230, "pitch": 56, "duration": 3, "velocity": 91}, {"time": 3236, "pitch": 56, "duration": 2, "velocity": 96}, {"time": 3236, "pitch": 61, "duration": 6, "velocity": 99}, {"time": 3236, "pitch": 65, "duration": 13, "velocity": 98}, {"time": 3242, "pitch": 56, "duration": 4, "velocity": 88}, {"time": 3248, "pitch": 48, "duration": 2, "velocity": 103}, {"time": 3248, "pitch": 60, "duration": 10, "velocity": 93}, {"time": 3260, "pitch": 46, "duration": 25, "velocity": 93}, {"time": 3260, "pitch": 58, "duration": 6, "velocity": 86}, {"time": 3260, "pitch": 61, "duration": 6, "velocity": 91}, {"time": 3266, "pitch": 53, "duration": 8, "velocity": 86}, {"time": 3272, "pitch": 58, "duration": 6, "velocity": 93}, {"time": 3278, "pitch": 53, "duration": 6, "velocity": 74}, {"time": 3284, "pitch": 58, "duration": 4, "velocity": 92}, {"time": 3284, "pitch": 61, "duration": 4, "velocity": 94}, {"time": 3284, "pitch": 65, "duration": 4, "velocity": 99}, {"time": 3290, "pitch": 53, "duration": 8, "velocity": 78}, {"time": 3296, "pitch": 58, "duration": 3, "velocity": 86}, {"time": 3302, "pitch": 61, "duration": 14, "velocity": 87}, {"time": 3308, "pitch": 46, "duration": 37, "velocity": 95}, {"time": 3314, "pitch": 53, "duration": 8, "velocity": 80}, {"time": 3320, "pitch": 58, "duration": 7, "velocity": 89}, {"time": 3326, "pitch": 53, "duration": 8, "velocity": 86}, {"time": 3332, "pitch": 58, "duration": 4, "velocity": 93}, {"time": 3332, "pitch": 61, "duration": 7, "velocity": 101}, {"time": 3332, "pitch": 65, "duration": 8, "velocity": 99}, {"time": 3335, "pitch": 53, "duration": 9, "velocity": 83}, {"time": 3344, "pitch": 58, "duration": 3, "velocity": 92}, {"time": 3344, "pitch": 61, "duration": 3, "velocity": 93}, {"time": 3344, "pitch": 65, "duration": 3, "velocity": 94}, {"time": 3350, "pitch": 44, "duration": 3, "velocity": 79}, {"time": 3350, "pitch": 56, "duration": 3, "velocity": 83}, {"time": 3350, "pitch": 60, "duration": 2, "velocity": 88}, {"time": 3356, "pitch": 42, "duration": 40, "velocity": 93}, {"time": 3356, "pitch": 54, "duration": 11, "velocity": 92}, {"time": 3356, "pitch": 58, "duration": 12, "velocity": 93}, {"time": 3359, "pitch": 49, "duration": 21, "velocity": 74}, {"time": 3368, "pitch": 61, "duration": 4, "velocity": 85}, {"time": 3380, "pitch": 54, "duration": 4, "velocity": 95}, {"time": 3380, "pitch": 66, "duration": 5, "velocity": 93}, {"time": 3383, "pitch": 49, "duration": 8, "velocity": 81}, {"time": 3392, "pitch": 58, "duration": 2, "velocity": 92}, {"time": 3392, "pitch": 61, "duration": 4, "velocity": 92}, {"time": 3398, "pitch": 54, "duration": 2, "velocity": 90}, {"time": 3404, "pitch": 41, "duration": 21, "velocity": 94}, {"time": 3404, "pitch": 53, "duration": 7, "velocity": 93}, {"time": 3404, "pitch": 56, "duration": 9, "velocity": 93}, {"time": 3407, "pitch": 48, "duration": 15, "velocity": 76}, {"time": 3416, "pitch": 60, "duration": 3, "velocity": 93}, {"time": 3422, "pitch": 56, "duration": 2, "velocity": 79}, {"time": 3428, "pitch": 46, "duration": 17, "velocity": 96}, {"time": 3428, "pitch": 58, "duration": 7, "velocity": 87}, {"time": 3428, "pitch": 61, "duration": 7, "velocity": 93}, {"time": 3434, "pitch": 53, "duration": 9, "velocity": 84}, {"time": 3440, "pitch": 58, "duration": 2, "velocity": 93}, {"time": 3440, "pitch": 65, "duration": 4, "velocity": 96}, {"time": 3446, "pitch": 58, "duration": 4, "velocity": 86}, {"time": 3452, "pitch": 51, "duration": 36, "velocity": 98}, {"time": 3452, "pitch": 58, "duration": 3, "velocity": 91}, {"time": 3452, "pitch": 66, "duration": 9, "velocity": 92}, {"time": 3458, "pitch": 58, "duration": 4, "velocity": 87}, {"time": 3464, "pitch": 63, "duration": 8, "velocity": 92}, {"time": 3470, "pitch": 58, "duration": 4, "velocity": 92}, {"time": 3476, "pitch": 58, "duration": 2, "velocity": 93}, {"time": 3476, "pitch": 63, "duration": 5, "velocity": 101}, {"time": 3476, "pitch": 66, "duration": 14, "velocity": 98}, {"time": 3482, "pitch": 58, "duration": 4, "velocity": 86}, {"time": 3488, "pitch": 49, "duration": 2, "velocity": 93}, {"time": 3488, "pitch": 61, "duration": 6, "velocity": 97}, {"time": 3494, "pitch": 58, "duration": 2, "velocity": 84}, {"time": 3500, "pitch": 44, "duration": 18, "velocity": 94}, {"time": 3500, "pitch": 56, "duration": 5, "velocity": 93}, {"time": 3500, "pitch": 60, "duration": 7, "velocity": 94}, {"time": 3506, "pitch": 51, "duration": 9, "velocity": 87}, {"time": 3512, "pitch": 56, "duration": 9, "velocity": 98}, {"time": 3512, "pitch": 63, "duration": 7, "velocity": 97}, {"time": 3518, "pitch": 60, "duration": 3, "velocity": 90}, {"time": 3524, "pitch": 44, "duration": 15, "velocity": 95}, {"time": 3524, "pitch": 56, "duration": 8, "velocity": 93}, {"time": 3524, "pitch": 60, "duration": 8, "velocity": 99}, {"time": 3524, "pitch": 63, "duration": 7, "velocity": 95}, {"time": 3524, "pitch": 68, "duration": 6, "velocity": 92}, {"time": 3530, "pitch": 51, "duration": 8, "velocity": 75}, {"time": 3536, "pitch": 56, "duration": 2, "velocity": 92}, {"time": 3536, "pitch": 60, "duration": 3, "velocity": 94}, {"time": 3548, "pitch": 37, "duration": 2, "velocity": 93}, {"time": 3548, "pitch": 56, "duration": 2, "velocity": 92}, {"time": 3548, "pitch": 61, "duration": 7, "velocity": 93}, {"time": 3554, "pitch": 56, "duration": 2, "velocity": 84}, {"time": 3560, "pitch": 61, "duration": 3, "velocity": 84}, {"time": 3566, "pitch": 56, "duration": 2, "velocity": 86}, {"time": 3572, "pitch": 56, "duration": 2, "velocity": 97}, {"time": 3572, "pitch": 65, "duration": 5, "velocity": 101}, {"time": 3578, "pitch": 56, "duration": 3, "velocity": 81}, {"time": 3584, "pitch": 61, "duration": 3, "velocity": 96}, {"time": 3590, "pitch": 56, "duration": 8, "velocity": 88}, {"time": 3596, "pitch": 49, "duration": 5, "velocity": 93}, {"time": 3596, "pitch": 61, "duration": 4, "velocity": 93}, {"time": 3596, "pitch": 65, "duration": 6, "velocity": 92}, {"time": 3602, "pitch": 56, "duration": 4, "velocity": 80}, {"time": 3605, "pitch": 61, "duration": 3, "velocity": 83}, {"time": 3611, "pitch": 56, "duration": 4, "velocity": 79}, {"time": 3617, "pitch": 37, "duration": 2, "velocity": 94}, {"time": 3620, "pitch": 61, "duration": 3, "velocity": 94}, {"time": 3620, "pitch": 65, "duration": 7, "velocity": 96}, {"time": 3623, "pitch": 56, "duration": 4, "velocity": 84}, {"time": 3623, "pitch": 61, "duration": 1, "velocity": 39}, {"time": 3629, "pitch": 48, "duration": 6, "velocity": 94}, {"time": 3632, "pitch": 56, "duration": 2, "velocity": 85}, {"time": 3632, "pitch": 60, "duration": 6, "velocity": 85}, {"time": 3644, "pitch": 46, "duration": 16, "velocity": 92}, {"time": 3644, "pitch": 58, "duration": 3, "velocity": 87}, {"time": 3644, "pitch": 61, "duration": 7, "velocity": 93}, {"time": 3650, "pitch": 53, "duration": 8, "velocity": 89}, {"time": 3656, "pitch": 58, "duration": 3, "velocity": 80}, {"time": 3656, "pitch": 61, "duration": 4, "velocity": 82}, {"time": 3662, "pitch": 53, "duration": 2, "velocity": 51}, {"time": 3668, "pitch": 58, "duration": 3, "velocity": 93}, {"time": 3668, "pitch": 61, "duration": 4, "velocity": 99}, {"time": 3668, "pitch": 65, "duration": 4, "velocity": 94}, {"time": 3674, "pitch": 53, "duration": 2, "velocity": 80}, {"time": 3680, "pitch": 58, "duration": 10, "velocity": 90}, {"time": 3692, "pitch": 46, "duration": 15, "velocity": 94}, {"time": 3692, "pitch": 58, "duration": 4, "velocity": 87}, {"time": 3692, "pitch": 61, "duration": 6, "velocity": 85}, {"time": 3698, "pitch": 53, "duration": 7, "velocity": 84}, {"time": 3704, "pitch": 58, "duration": 3, "velocity": 80}, {"time": 3704, "pitch": 61, "duration": 4, "velocity": 86}, {"time": 3710, "pitch": 53, "duration": 8, "velocity": 87}, {"time": 3716, "pitch": 58, "duration": 2, "velocity": 92}, {"time": 3716, "pitch": 61, "duration": 7, "velocity": 98}, {"time": 3716, "pitch": 65, "duration": 11, "velocity": 96}, {"time": 3722, "pitch": 58, "duration": 2, "velocity": 85}, {"time": 3728, "pitch": 44, "duration": 2, "velocity": 92}, {"time": 3728, "pitch": 56, "duration": 4, "velocity": 88}, {"time": 3728, "pitch": 60, "duration": 3, "velocity": 86}, {"time": 3740, "pitch": 42, "duration": 44, "velocity": 93}, {"time": 3740, "pitch": 54, "duration": 10, "velocity": 86}, {"time": 3740, "pitch": 58, "duration": 11, "velocity": 86}, {"time": 3746, "pitch": 49, "duration": 10, "velocity": 75}, {"time": 3752, "pitch": 61, "duration": 3, "velocity": 85}, {"time": 3758, "pitch": 54, "duration": 2, "velocity": 75}, {"time": 3764, "pitch": 54, "duration": 7, "velocity": 92}, {"time": 3764, "pitch": 58, "duration": 7, "velocity": 95}, {"time": 3764, "pitch": 61, "duration": 7, "velocity": 95}, {"time": 3764, "pitch": 66, "duration": 7, "velocity": 93}, {"time": 3770, "pitch": 49, "duration": 13, "velocity": 79}, {"time": 3776, "pitch": 54, "duration": 1, "velocity": 69}, {"time": 3776, "pitch": 58, "duration": 3, "velocity": 89}, {"time": 3776, "pitch": 61, "duration": 4, "velocity": 90}, {"time": 3782, "pitch": 54, "duration": 2, "velocity": 84}, {"time": 3788, "pitch": 53, "duration": 7, "velocity": 106}, {"time": 3788, "pitch": 60, "duration": 3, "velocity": 92}, {"time": 3788, "pitch": 65, "duration": 7, "velocity": 95}, {"time": 3788, "pitch": 68, "duration": 8, "velocity": 88}, {"time": 3794, "pitch": 60, "duration": 3, "velocity": 93}, {"time": 3800, "pitch": 65, "duration": 2, "velocity": 83}, {"time": 3806, "pitch": 46, "duration": 23, "velocity": 95}, {"time": 3806, "pitch": 58, "duration": 10, "velocity": 90}, {"time": 3806, "pitch": 61, "duration": 11, "velocity": 94}, {"time": 3818, "pitch": 53, "duration": 10, "velocity": 87}, {"time": 3824, "pitch": 58, "duration": 2, "velocity": 91}, {"time": 3824, "pitch": 61, "duration": 5, "velocity": 97}, {"time": 3824, "pitch": 65, "duration": 8, "velocity": 98}, {"time": 3830, "pitch": 58, "duration": 2, "velocity": 62}, {"time": 3836, "pitch": 47, "duration": 23, "velocity": 103}, {"time": 3836, "pitch": 59, "duration": 6, "velocity": 83}, {"time": 3836, "pitch": 63, "duration": 13, "velocity": 88}, {"time": 3842, "pitch": 54, "duration": 16, "velocity": 84}, {"time": 3848, "pitch": 59, "duration": 3, "velocity": 84}, {"time": 3854, "pitch": 59, "duration": 8, "velocity": 92}, {"time": 3854, "pitch": 63, "duration": 8, "velocity": 93}, {"time": 3854, "pitch": 66, "duration": 9, "velocity": 93}, {"time": 3866, "pitch": 59, "duration": 6, "velocity": 101}, {"time": 3866, "pitch": 63, "duration": 8, "velocity": 98}, {"time": 3878, "pitch": 44, "duration": 44, "velocity": 94}, {"time": 3878, "pitch": 56, "duration": 12, "velocity": 91}, {"time": 3878, "pitch": 60, "duration": 11, "velocity": 95}, {"time": 3878, "pitch": 63, "duration": 12, "velocity": 93}, {"time": 3890, "pitch": 51, "duration": 32, "velocity": 74}, {"time": 3896, "pitch": 56, "duration": 7, "velocity": 88}, {"time": 3896, "pitch": 68, "duration": 3, "velocity": 82}, {"time": 3902, "pitch": 63, "duration": 2, "velocity": 87}, {"time": 3908, "pitch": 68, "duration": 21, "velocity": 85}, {"time": 3908, "pitch": 72, "duration": 21, "velocity": 94}, {"time": 3932, "pitch": 42, "duration": 9, "velocity": 94}, {"time": 3932, "pitch": 66, "duration": 6, "velocity": 94}, {"time": 3935, "pitch": 54, "duration": 5, "velocity": 90}, {"time": 3938, "pitch": 58, "duration": 4, "velocity": 86}, {"time": 3941, "pitch": 42, "duration": 9, "velocity": 94}, {"time": 3941, "pitch": 66, "duration": 4, "velocity": 93}, {"time": 3944, "pitch": 54, "duration": 5, "velocity": 93}, {"time": 3947, "pitch": 58, "duration": 4, "velocity": 89}, {"time": 3950, "pitch": 42, "duration": 12, "velocity": 94}, {"time": 3950, "pitch": 66, "duration": 4, "velocity": 93}, {"time": 3953, "pitch": 54, "duration": 5, "velocity": 94}, {"time": 3956, "pitch": 58, "duration": 3, "velocity": 91}, {"time": 3959, "pitch": 66, "duration": 4, "velocity": 92}, {"time": 3962, "pitch": 42, "duration": 12, "velocity": 94}, {"time": 3962, "pitch": 54, "duration": 4, "velocity": 96}, {"time": 3965, "pitch": 58, "duration": 4, "velocity": 92}, {"time": 3968, "pitch": 66, "duration": 4, "velocity": 94}, {"time": 3971, "pitch": 54, "duration": 4, "velocity": 96}, {"time": 3974, "pitch": 42, "duration": 4, "velocity": 94}, {"time": 3974, "pitch": 58, "duration": 4, "velocity": 92}, {"time": 3977, "pitch": 66, "duration": 3, "velocity": 93}, {"time": 3980, "pitch": 41, "duration": 9, "velocity": 96}, {"time": 3980, "pitch": 53, "duration": 5, "velocity": 101}, {"time": 3983, "pitch": 56, "duration": 4, "velocity": 94}, {"time": 3986, "pitch": 65, "duration": 3, "velocity": 93}, {"time": 3989, "pitch": 41, "duration": 9, "velocity": 96}, {"time": 3989, "pitch": 53, "duration": 4, "velocity": 98}, {"time": 3992, "pitch": 56, "duration": 2, "velocity": 93}, {"time": 3995, "pitch": 65, "duration": 3, "velocity": 94}, {"time": 3998, "pitch": 41, "duration": 9, "velocity": 96}, {"time": 3998, "pitch": 53, "duration": 4, "velocity": 98}, {"time": 4001, "pitch": 56, "duration": 3, "velocity": 92}, {"time": 4004, "pitch": 65, "duration": 4, "velocity": 95}, {"time": 4007, "pitch": 41, "duration": 9, "velocity": 96}, {"time": 4007, "pitch": 53, "duration": 4, "velocity": 101}, {"time": 4010, "pitch": 56, "duration": 3, "velocity": 97}, {"time": 4013, "pitch": 65, "duration": 4, "velocity": 96}, {"time": 4016, "pitch": 41, "duration": 6, "velocity": 96}, {"time": 4016, "pitch": 53, "duration": 4, "velocity": 101}, {"time": 4019, "pitch": 56, "duration": 4, "velocity": 94}, {"time": 4022, "pitch": 41, "duration": 6, "velocity": 96}, {"time": 4022, "pitch": 65, "duration": 5, "velocity": 94}, {"time": 4025, "pitch": 53, "duration": 3, "velocity": 99}, {"time": 4028, "pitch": 39, "duration": 9, "velocity": 92}, {"time": 4028, "pitch": 66, "duration": 5, "velocity": 93}, {"time": 4031, "pitch": 58, "duration": 4, "velocity": 88}, {"time": 4034, "pitch": 63, "duration": 4, "velocity": 84}, {"time": 4037, "pitch": 39, "duration": 9, "velocity": 92}, {"time": 4037, "pitch": 66, "duration": 4, "velocity": 95}, {"time": 4040, "pitch": 58, "duration": 4, "velocity": 90}, {"time": 4043, "pitch": 63, "duration": 4, "velocity": 84}, {"time": 4046, "pitch": 44, "duration": 3, "velocity": 92}, {"time": 4046, "pitch": 66, "duration": 3, "velocity": 95}, {"time": 4049, "pitch": 46, "duration": 3, "velocity": 92}, {"time": 4049, "pitch": 58, "duration": 2, "velocity": 92}, {"time": 4052, "pitch": 47, "duration": 3, "velocity": 99}, {"time": 4052, "pitch": 59, "duration": 3, "velocity": 93}, {"time": 4052, "pitch": 71, "duration": 3, "velocity": 90}, {"time": 4058, "pitch": 46, "duration": 3, "velocity": 94}, {"time": 4058, "pitch": 58, "duration": 4, "velocity": 95}, {"time": 4058, "pitch": 70, "duration": 3, "velocity": 93}, {"time": 4064, "pitch": 44, "duration": 3, "velocity": 94}, {"time": 4064, "pitch": 56, "duration": 3, "velocity": 98}, {"time": 4064, "pitch": 68, "duration": 3, "velocity": 90}, {"time": 4070, "pitch": 42, "duration": 5, "velocity": 94}, {"time": 4070, "pitch": 54, "duration": 4, "velocity": 96}, {"time": 4070, "pitch": 66, "duration": 5, "velocity": 93}, {"time": 4076, "pitch": 32, "duration": 8, "velocity": 99}, {"time": 4076, "pitch": 44, "duration": 21, "velocity": 99}, {"time": 4079, "pitch": 56, "duration": 3, "velocity": 99}, {"time": 4082, "pitch": 61, "duration": 3, "velocity": 93}, {"time": 4084, "pitch": 32, "duration": 10, "velocity": 99}, {"time": 4085, "pitch": 63, "duration": 1, "velocity": 97}, {"time": 4088, "pitch": 56, "duration": 6, "velocity": 94}, {"time": 4091, "pitch": 61, "duration": 2, "velocity": 95}, {"time": 4094, "pitch": 32, "duration": 6, "velocity": 99}, {"time": 4094, "pitch": 68, "duration": 3, "velocity": 99}, {"time": 4097, "pitch": 73, "duration": 3, "velocity": 86}, {"time": 4100, "pitch": 32, "duration": 20, "velocity": 99}, {"time": 4100, "pitch": 75, "duration": 3, "velocity": 99}, {"time": 4103, "pitch": 68, "duration": 5, "velocity": 95}, {"time": 4104, "pitch": 73, "duration": 3, "velocity": 88}, {"time": 4106, "pitch": 75, "duration": 2, "velocity": 91}, {"time": 4108, "pitch": 80, "duration": 4, "velocity": 97}, {"time": 4110, "pitch": 85, "duration": 4, "velocity": 97}, {"time": 4112, "pitch": 87, "duration": 3, "velocity": 99}, {"time": 4114, "pitch": 92, "duration": 2, "velocity": 97}, {"time": 4116, "pitch": 87, "duration": 2, "velocity": 93}, {"time": 4118, "pitch": 80, "duration": 2, "velocity": 93}, {"time": 4120, "pitch": 75, "duration": 2, "velocity": 93}, {"time": 4122, "pitch": 68, "duration": 2, "velocity": 93}, {"time": 4124, "pitch": 46, "duration": 20, "velocity": 96}, {"time": 4124, "pitch": 58, "duration": 9, "velocity": 93}, {"time": 4124, "pitch": 62, "duration": 9, "velocity": 91}, {"time": 4124, "pitch": 70, "duration": 7, "velocity": 92}, {"time": 4136, "pitch": 58, "duration": 3, "velocity": 93}, {"time": 4136, "pitch": 62, "duration": 4, "velocity": 89}, {"time": 4136, "pitch": 65, "duration": 4, "velocity": 98}, {"time": 4136, "pitch": 70, "duration": 4, "velocity": 93}, {"time": 4142, "pitch": 58, "duration": 2, "velocity": 91}, {"time": 4142, "pitch": 62, "duration": 2, "velocity": 90}, {"time": 4142, "pitch": 65, "duration": 3, "velocity": 92}, {"time": 4142, "pitch": 70, "duration": 3, "velocity": 83}, {"time": 4148, "pitch": 46, "duration": 24, "velocity": 94}, {"time": 4148, "pitch": 58, "duration": 24, "velocity": 90}, {"time": 4148, "pitch": 62, "duration": 24, "velocity": 87}, {"time": 4148, "pitch": 65, "duration": 24, "velocity": 94}, {"time": 4148, "pitch": 70, "duration": 24, "velocity": 92}, {"time": 4172, "pitch": 51, "duration": 41, "velocity": 91}, {"time": 4178, "pitch": 58, "duration": 6, "velocity": 84}, {"time": 4184, "pitch": 63, "duration": 6, "velocity": 92}, {"time": 4190, "pitch": 58, "duration": 2, "velocity": 59}, {"time": 4196, "pitch": 65, "duration": 6, "velocity": 85}, {"time": 4214, "pitch": 58, "duration": 7, "velocity": 58}, {"time": 4220, "pitch": 51, "duration": 32, "velocity": 88}, {"time": 4220, "pitch": 67, "duration": 10, "velocity": 81}, {"time": 4226, "pitch": 58, "duration": 6, "velocity": 78}, {"time": 4232, "pitch": 65, "duration": 6, "velocity": 91}, {"time": 4238, "pitch": 58, "duration": 6, "velocity": 91}, {"time": 4244, "pitch": 63, "duration": 5, "velocity": 89}, {"time": 4256, "pitch": 62, "duration": 3, "velocity": 78}, {"time": 4268, "pitch": 48, "duration": 44, "velocity": 85}, {"time": 4268, "pitch": 60, "duration": 7, "velocity": 81}, {"time": 4268, "pitch": 63, "duration": 7, "velocity": 85}, {"time": 4274, "pitch": 55, "duration": 37, "velocity": 78}, {"time": 4280, "pitch": 62, "duration": 6, "velocity": 87}, {"time": 4286, "pitch": 63, "duration": 3, "velocity": 91}, {"time": 4316, "pitch": 48, "duration": 38, "velocity": 92}, {"time": 4316, "pitch": 67, "duration": 13, "velocity": 81}, {"time": 4322, "pitch": 55, "duration": 20, "velocity": 74}, {"time": 4328, "pitch": 60, "duration": 7, "velocity": 93}, {"time": 4334, "pitch": 67, "duration": 3, "velocity": 97}, {"time": 4340, "pitch": 65, "duration": 4, "velocity": 87}, {"time": 4346, "pitch": 55, "duration": 5, "velocity": 67}, {"time": 4352, "pitch": 63, "duration": 3, "velocity": 75}, {"time": 4358, "pitch": 62, "duration": 6, "velocity": 70}, {"time": 4364, "pitch": 44, "duration": 40, "velocity": 93}, {"time": 4364, "pitch": 56, "duration": 11, "velocity": 92}, {"time": 4364, "pitch": 60, "duration": 12, "velocity": 93}, {"time": 4367, "pitch": 51, "duration": 21, "velocity": 74}, {"time": 4376, "pitch": 63, "duration": 4, "velocity": 85}, {"time": 4388, "pitch": 56, "duration": 4, "velocity": 95}, {"time": 4388, "pitch": 68, "duration": 5, "velocity": 93}, {"time": 4391, "pitch": 51, "duration": 8, "velocity": 81}, {"time": 4400, "pitch": 60, "duration": 2, "velocity": 92}, {"time": 4400, "pitch": 63, "duration": 4, "velocity": 92}, {"time": 4406, "pitch": 56, "duration": 2, "velocity": 90}, {"time": 4412, "pitch": 43, "duration": 21, "velocity": 94}, {"time": 4412, "pitch": 55, "duration": 7, "velocity": 93}, {"time": 4412, "pitch": 58, "duration": 9, "velocity": 93}, {"time": 4415, "pitch": 50, "duration": 15, "velocity": 76}, {"time": 4424, "pitch": 62, "duration": 3, "velocity": 93}, {"time": 4430, "pitch": 58, "duration": 2, "velocity": 79}, {"time": 4436, "pitch": 48, "duration": 17, "velocity": 96}, {"time": 4436, "pitch": 60, "duration": 7, "velocity": 87}, {"time": 4436, "pitch": 63, "duration": 7, "velocity": 93}, {"time": 4442, "pitch": 55, "duration": 9, "velocity": 84}, {"time": 4448, "pitch": 60, "duration": 2, "velocity": 93}, {"time": 4448, "pitch": 67, "duration": 4, "velocity": 96}, {"time": 4454, "pitch": 60, "duration": 4, "velocity": 86}, {"time": 4460, "pitch": 53, "duration": 36, "velocity": 98}, {"time": 4460, "pitch": 60, "duration": 3, "velocity": 91}, {"time": 4460, "pitch": 68, "duration": 9, "velocity": 92}, {"time": 4466, "pitch": 60, "duration": 4, "velocity": 87}, {"time": 4472, "pitch": 65, "duration": 8, "velocity": 92}, {"time": 4478, "pitch": 60, "duration": 4, "velocity": 92}, {"time": 4484, "pitch": 60, "duration": 2, "velocity": 93}, {"time": 4484, "pitch": 65, "duration": 5, "velocity": 101}, {"time": 4484, "pitch": 68, "duration": 14, "velocity": 98}, {"time": 4490, "pitch": 60, "duration": 4, "velocity": 86}, {"time": 4496, "pitch": 51, "duration": 2, "velocity": 93}, {"time": 4496, "pitch": 63, "duration": 6, "velocity": 97}, {"time": 4502, "pitch": 60, "duration": 2, "velocity": 84}, {"time": 4508, "pitch": 46, "duration": 18, "velocity": 94}, {"time": 4508, "pitch": 58, "duration": 5, "velocity": 93}, {"time": 4508, "pitch": 62, "duration": 7, "velocity": 94}, {"time": 4514, "pitch": 53, "duration": 9, "velocity": 87}, {"time": 4520, "pitch": 58, "duration": 9, "velocity": 98}, {"time": 4520, "pitch": 65, "duration": 7, "velocity": 97}, {"time": 4526, "pitch": 62, "duration": 3, "velocity": 90}, {"time": 4532, "pitch": 46, "duration": 15, "velocity": 95}, {"time": 4532, "pitch": 58, "duration": 8, "velocity": 93}, {"time": 4532, "pitch": 62, "duration": 8, "velocity": 99}, {"time": 4532, "pitch": 65, "duration": 7, "velocity": 95}, {"time": 4532, "pitch": 70, "duration": 6, "velocity": 92}, {"time": 4538, "pitch": 53, "duration": 8, "velocity": 75}, {"time": 4544, "pitch": 58, "duration": 2, "velocity": 92}, {"time": 4544, "pitch": 62, "duration": 3, "velocity": 94}, {"time": 4556, "pitch": 39, "duration": 2, "velocity": 93}, {"time": 4556, "pitch": 58, "duration": 2, "velocity": 92}, {"time": 4556, "pitch": 63, "duration": 7, "velocity": 93}, {"time": 4562, "pitch": 58, "duration": 2, "velocity": 84}, {"time": 4568, "pitch": 63, "duration": 3, "velocity": 84}, {"time": 4574, "pitch": 58, "duration": 2, "velocity": 86}, {"time": 4580, "pitch": 58, "duration": 2, "velocity": 97}, {"time": 4580, "pitch": 67, "duration": 5, "velocity": 101}, {"time": 4586, "pitch": 58, "duration": 3, "velocity": 81}, {"time": 4592, "pitch": 63, "duration": 3, "velocity": 96}, {"time": 4598, "pitch": 58, "duration": 8, "velocity": 88}, {"time": 4604, "pitch": 51, "duration": 5, "velocity": 93}, {"time": 4604, "pitch": 63, "duration": 4, "velocity": 93}, {"time": 4604, "pitch": 67, "duration": 6, "velocity": 92}, {"time": 4610, "pitch": 58, "duration": 4, "velocity": 80}, {"time": 4613, "pitch": 63, "duration": 3, "velocity": 83}, {"time": 4619, "pitch": 58, "duration": 4, "velocity": 79}, {"time": 4625, "pitch": 39, "duration": 2, "velocity": 94}, {"time": 4628, "pitch": 63, "duration": 3, "velocity": 94}, {"time": 4628, "pitch": 67, "duration": 7, "velocity": 96}, {"time": 4631, "pitch": 58, "duration": 4, "velocity": 84}, {"time": 4631, "pitch": 63, "duration": 1, "velocity": 39}, {"time": 4637, "pitch": 50, "duration": 6, "velocity": 94}, {"time": 4640, "pitch": 58, "duration": 2, "velocity": 85}, {"time": 4640, "pitch": 62, "duration": 6, "velocity": 85}, {"time": 4652, "pitch": 48, "duration": 16, "velocity": 92}, {"time": 4652, "pitch": 60, "duration": 3, "velocity": 87}, {"time": 4652, "pitch": 63, "duration": 7, "velocity": 93}, {"time": 4658, "pitch": 55, "duration": 8, "velocity": 89}, {"time": 4664, "pitch": 60, "duration": 3, "velocity": 80}, {"time": 4664, "pitch": 63, "duration": 4, "velocity": 82}, {"time": 4670, "pitch": 55, "duration": 2, "velocity": 51}, {"time": 4676, "pitch": 60, "duration": 3, "velocity": 93}, {"time": 4676, "pitch": 63, "duration": 4, "velocity": 99}, {"time": 4676, "pitch": 67, "duration": 4, "velocity": 94}, {"time": 4682, "pitch": 55, "duration": 2, "velocity": 80}, {"time": 4688, "pitch": 60, "duration": 10, "velocity": 90}, {"time": 4700, "pitch": 48, "duration": 15, "velocity": 94}, {"time": 4700, "pitch": 60, "duration": 4, "velocity": 87}, {"time": 4700, "pitch": 63, "duration": 6, "velocity": 85}, {"time": 4706, "pitch": 55, "duration": 7, "velocity": 84}, {"time": 4712, "pitch": 60, "duration": 3, "velocity": 80}, {"time": 4712, "pitch": 63, "duration": 4, "velocity": 86}, {"time": 4718, "pitch": 55, "duration": 8, "velocity": 87}, {"time": 4724, "pitch": 60, "duration": 2, "velocity": 92}, {"time": 4724, "pitch": 63, "duration": 7, "velocity": 98}, {"time": 4724, "pitch": 67, "duration": 11, "velocity": 96}, {"time": 4730, "pitch": 60, "duration": 2, "velocity": 85}, {"time": 4736, "pitch": 46, "duration": 2, "velocity": 92}, {"time": 4736, "pitch": 58, "duration": 4, "velocity": 88}, {"time": 4736, "pitch": 62, "duration": 3, "velocity": 86}, {"time": 4748, "pitch": 44, "duration": 44, "velocity": 93}, {"time": 4748, "pitch": 56, "duration": 10, "velocity": 86}, {"time": 4748, "pitch": 60, "duration": 11, "velocity": 86}, {"time": 4754, "pitch": 51, "duration": 10, "velocity": 75}, {"time": 4760, "pitch": 63, "duration": 3, "velocity": 85}, {"time": 4766, "pitch": 56, "duration": 2, "velocity": 75}, {"time": 4772, "pitch": 56, "duration": 7, "velocity": 92}, {"time": 4772, "pitch": 60, "duration": 7, "velocity": 95}, {"time": 4772, "pitch": 63, "duration": 7, "velocity": 95}, {"time": 4772, "pitch": 68, "duration": 7, "velocity": 93}, {"time": 4778, "pitch": 51, "duration": 13, "velocity": 79}, {"time": 4784, "pitch": 56, "duration": 1, "velocity": 69}, {"time": 4784, "pitch": 60, "duration": 3, "velocity": 89}, {"time": 4784, "pitch": 63, "duration": 4, "velocity": 90}, {"time": 4790, "pitch": 56, "duration": 2, "velocity": 84}, {"time": 4796, "pitch": 55, "duration": 7, "velocity": 106}, {"time": 4796, "pitch": 62, "duration": 3, "velocity": 92}, {"time": 4796, "pitch": 67, "duration": 7, "velocity": 95}, {"time": 4796, "pitch": 70, "duration": 8, "velocity": 88}, {"time": 4802, "pitch": 62, "duration": 3, "velocity": 93}, {"time": 4808, "pitch": 67, "duration": 2, "velocity": 83}, {"time": 4814, "pitch": 48, "duration": 23, "velocity": 95}, {"time": 4814, "pitch": 60, "duration": 10, "velocity": 90}, {"time": 4814, "pitch": 63, "duration": 11, "velocity": 94}, {"time": 4826, "pitch": 55, "duration": 10, "velocity": 87}, {"time": 4832, "pitch": 60, "duration": 2, "velocity": 91}, {"time": 4832, "pitch": 63, "duration": 5, "velocity": 97}, {"time": 4832, "pitch": 67, "duration": 8, "velocity": 98}, {"time": 4838, "pitch": 60, "duration": 2, "velocity": 62}, {"time": 4844, "pitch": 49, "duration": 23, "velocity": 103}, {"time": 4844, "pitch": 61, "duration": 6, "velocity": 83}, {"time": 4844, "pitch": 65, "duration": 13, "velocity": 88}, {"time": 4850, "pitch": 56, "duration": 16, "velocity": 84}, {"time": 4856, "pitch": 61, "duration": 3, "velocity": 84}, {"time": 4862, "pitch": 61, "duration": 8, "velocity": 92}, {"time": 4862, "pitch": 65, "duration": 8, "velocity": 93}, {"time": 4862, "pitch": 68, "duration": 9, "velocity": 93}, {"time": 4874, "pitch": 61, "duration": 6, "velocity": 101}, {"time": 4874, "pitch": 65, "duration": 8, "velocity": 98}, {"time": 4886, "pitch": 46, "duration": 44, "velocity": 94}, {"time": 4886, "pitch": 58, "duration": 12, "velocity": 91}, {"time": 4886, "pitch": 62, "duration": 11, "velocity": 95}, {"time": 4886, "pitch": 65, "duration": 12, "velocity": 93}, {"time": 4898, "pitch": 53, "duration": 32, "velocity": 74}, {"time": 4904, "pitch": 58, "duration": 7, "velocity": 88}, {"time": 4904, "pitch": 70, "duration": 3, "velocity": 82}, {"time": 4910, "pitch": 65, "duration": 2, "velocity": 87}, {"time": 4916, "pitch": 70, "duration": 21, "velocity": 85}, {"time": 4916, "pitch": 74, "duration": 21, "velocity": 94}, {"time": 4988, "pitch": 51, "duration": 60, "velocity": 87}, {"time": 4988, "pitch": 58, "duration": 45, "velocity": 79}, {"time": 4988, "pitch": 63, "duration": 44, "velocity": 80}, {"time": 5036, "pitch": 63, "duration": 4, "velocity": 79}, {"time": 5036, "pitch": 67, "duration": 4, "velocity": 82}, {"time": 5072, "pitch": 58, "duration": 3, "velocity": 81}, {"time": 5072, "pitch": 63, "duration": 3, "velocity": 80}, {"time": 5084, "pitch": 48, "duration": 65, "velocity": 86}, {"time": 5084, "pitch": 60, "duration": 16, "velocity": 75}, {"time": 5084, "pitch": 63, "duration": 17, "velocity": 80}, {"time": 5126, "pitch": 55, "duration": 18, "velocity": 58}, {"time": 5132, "pitch": 60, "duration": 2, "velocity": 80}, {"time": 5132, "pitch": 63, "duration": 2, "velocity": 86}, {"time": 5180, "pitch": 44, "duration": 42, "velocity": 88}, {"time": 5180, "pitch": 56, "duration": 8, "velocity": 78}, {"time": 5180, "pitch": 63, "duration": 17, "velocity": 85}, {"time": 5186, "pitch": 51, "duration": 32, "velocity": 75}, {"time": 5192, "pitch": 56, "duration": 3, "velocity": 72}, {"time": 5219, "pitch": 56, "duration": 3, "velocity": 74}, {"time": 5228, "pitch": 44, "duration": 25, "velocity": 84}, {"time": 5228, "pitch": 60, "duration": 19, "velocity": 83}, {"time": 5228, "pitch": 63, "duration": 20, "velocity": 87}, {"time": 5275, "pitch": 39, "duration": 43, "velocity": 94}, {"time": 5281, "pitch": 46, "duration": 36, "velocity": 63}, {"time": 5287, "pitch": 53, "duration": 4, "velocity": 86}, {"time": 5294, "pitch": 55, "duration": 2, "velocity": 96}, {"time": 5300, "pitch": 58, "duration": 3, "velocity": 91}, {"time": 5306, "pitch": 63, "duration": 2, "velocity": 92}, {"time": 5313, "pitch": 65, "duration": 7, "velocity": 93}, {"time": 5319, "pitch": 67, "duration": 4, "velocity": 93}, {"time": 5325, "pitch": 67, "duration": 2, "velocity": 74}, {"time": 5325, "pitch": 39, "duration": 30, "velocity": 88}, {"time": 5326, "pitch": 70, "duration": 3, "velocity": 81}, {"time": 5332, "pitch": 75, "duration": 3, "velocity": 92}, {"time": 5341, "pitch": 77, "duration": 3, "velocity": 94}, {"time": 5349, "pitch": 79, "duration": 3, "velocity": 92}, {"time": 5361, "pitch": 39, "duration": 24, "velocity": 76}, {"time": 5364, "pitch": 46, "duration": 20, "velocity": 63}, {"time": 5366, "pitch": 79, "duration": 4, "velocity": 75}, {"time": 5368, "pitch": 82, "duration": 3, "velocity": 50}, {"time": 5370, "pitch": 87, "duration": 2, "velocity": 78}], "annotations": [{"time": 128, "annotation": {"number": 64, "value": 127}, "group": "control_change"}, {"time": 188, "annotation": {"number": 64, "value": 0}, "group": "control_change"}, {"time": 192, "annotation": {"number": 64, "value": 127}, "group": "control_change"}, {"time": 282, "annotation": {"number": 64, "value": 0}, "group": "control_change"}, {"time": 290, "annotation": {"number": 64, "value": 127}, "group": "control_change"}, {"time": 378, "annotation": {"number": 64, "value": 0}, "group": "control_change"}, {"time": 386, "annotation": {"number": 64, "value": 127}, "group": "control_change"}, {"time": 473, "annotation": {"number": 64, "value": 0}, "group": "control_change"}, {"time": 570, "annotation": {"number": 64, "value": 0}, "group": "control_change"}, {"time": 573, "annotation": {"number": 64, "value": 127}, "group": "control_change"}, {"time": 620, "annotation": {"number": 64, "value": 0}, "group": "control_change"}, {"time": 624, "annotation": {"number": 64, "value": 127}, "group": "control_change"}, {"time": 668, "annotation": {"number": 64, "value": 0}, "group": "control_change"}, {"time": 672, "annotation": {"number": 64, "value": 127}, "group": "control_change"}, {"time": 716, "annotation": {"number": 64, "value": 0}, "group": "control_change"}, {"time": 723, "annotation": {"number": 64, "value": 127}, "group": "control_change"}, {"time": 763, "annotation": {"number": 64, "value": 0}, "group": "control_change"}, {"time": 766, "annotation": {"number": 64, "value": 127}, "group": "control_change"}, {"time": 809, "annotation": {"number": 64, "value": 0}, "group": "control_change"}, {"time": 812, "annotation": {"number": 64, "value": 127}, "group": "control_change"}, {"time": 858, "annotation": {"number": 64, "value": 0}, "group": "control_change"}, {"time": 861, "annotation": {"number": 64, "value": 127}, "group": "control_change"}, {"time": 954, "annotation": {"number": 64, "value": 0}, "group": "control_change"}, {"time": 957, "annotation": {"number": 64, "value": 127}, "group": "control_change"}, {"time": 1004, "annotation": {"number": 64, "value": 0}, "group": "control_change"}, {"time": 1007, "annotation": {"number": 64, "value": 127}, "group": "control_change"}, {"time": 1050, "annotation": {"number": 64, "value": 0}, "group": "control_change"}, {"time": 1058, "annotation": {"number": 64, "value": 127}, "group": "control_change"}, {"time": 1100, "annotation": {"number": 64, "value": 0}, "group": "control_change"}, {"time": 1105, "annotation": {"number": 64, "value": 127}, "group": "control_change"}, {"time": 1145, "annotation": {"number": 64, "value": 0}, "group": "control_change"}, {"time": 1150, "annotation": {"number": 64, "value": 127}, "group": "control_change"}, {"time": 1194, "annotation": {"number": 64, "value": 0}, "group": "control_change"}, {"time": 1199, "annotation": {"number": 64, "value": 127}, "group": "control_change"}, {"time": 1239, "annotation": {"number": 64, "value": 0}, "group": "control_change"}, {"time": 1244, "annotation": {"number": 64, "value": 127}, "group": "control_change"}, {"time": 1289, "annotation": {"number": 64, "value": 0}, "group": "control_change"}, {"time": 1290, "annotation": {"number": 64, "value": 127}, "group": "control_change"}, {"time": 1326, "annotation": {"number": 64, "value": 0}, "group": "control_change"}, {"time": 1326, "annotation": {"number": 64, "value": 127}, "group": "control_change"}, {"time": 1338, "annotation": {"number": 64, "value": 0}, "group": "control_change"}, {"time": 1341, "annotation": {"number": 64, "value": 127}, "group": "control_change"}, {"time": 1386, "annotation": {"number": 64, "value": 0}, "group": "control_change"}, {"time": 1388, "annotation": {"number": 64, "value": 127}, "group": "control_change"}, {"time": 1434, "annotation": {"number": 64, "value": 0}, "group": "control_change"}, {"time": 1437, "annotation": {"number": 64, "value": 127}, "group": "control_change"}, {"time": 1482, "annotation": {"number": 64, "value": 0}, "group": "control_change"}, {"time": 1486, "annotation": {"number": 64, "value": 127}, "group": "control_change"}, {"time": 1508, "annotation": {"number": 64, "value": 0}, "group": "control_change"}, {"time": 1510, "annotation": {"number": 64, "value": 127}, "group": "control_change"}, {"time": 1529, "annotation": {"number": 64, "value": 0}, "group": "control_change"}, {"time": 1532, "annotation": {"number": 64, "value": 127}, "group": "control_change"}, {"time": 1578, "annotation": {"number": 64, "value": 0}, "group": "control_change"}, {"time": 1580, "annotation": {"number": 64, "value": 127}, "group": "control_change"}, {"time": 1602, "annotation": {"number": 64, "value": 0}, "group": "control_change"}, {"time": 1603, "annotation": {"number": 64, "value": 127}, "group": "control_change"}, {"time": 1626, "annotation": {"number": 64, "value": 0}, "group": "control_change"}, {"time": 1628, "annotation": {"number": 64, "value": 127}, "group": "control_change"}, {"time": 1673, "annotation": {"number": 64, "value": 0}, "group": "control_change"}, {"time": 1675, "annotation": {"number": 64, "value": 127}, "group": "control_change"}, {"time": 1696, "annotation": {"number": 64, "value": 0}, "group": "control_change"}, {"time": 1698, "annotation": {"number": 64, "value": 127}, "group": "control_change"}, {"time": 1722, "annotation": {"number": 64, "value": 0}, "group": "control_change"}, {"time": 1724, "annotation": {"number": 64, "value": 127}, "group": "control_change"}, {"time": 1769, "annotation": {"number": 64, "value": 0}, "group": "control_change"}, {"time": 1772, "annotation": {"number": 64, "value": 127}, "group": "control_change"}, {"time": 1817, "annotation": {"number": 64, "value": 0}, "group": "control_change"}, {"time": 1824, "annotation": {"number": 64, "value": 127}, "group": "control_change"}, {"time": 1866, "annotation": {"number": 64, "value": 0}, "group": "control_change"}, {"time": 1868, "annotation": {"number": 64, "value": 127}, "group": "control_change"}, {"time": 1885, "annotation": {"number": 64, "value": 0}, "group": "control_change"}, {"time": 1887, "annotation": {"number": 64, "value": 127}, "group": "control_change"}, {"time": 1914, "annotation": {"number": 64, "value": 0}, "group": "control_change"}, {"time": 1917, "annotation": {"number": 64, "value": 127}, "group": "control_change"}, {"time": 1958, "annotation": {"number": 64, "value": 0}, "group": "control_change"}, {"time": 1960, "annotation": {"number": 64, "value": 127}, "group": "control_change"}, {"time": 2008, "annotation": {"number": 64, "value": 0}, "group": "control_change"}, {"time": 2021, "annotation": {"number": 64, "value": 127}, "group": "control_change"}, {"time": 2060, "annotation": {"number": 64, "value": 0}, "group": "control_change"}, {"time": 2062, "annotation": {"number": 64, "value": 127}, "group": "control_change"}, {"time": 2083, "annotation": {"number": 64, "value": 0}, "group": "control_change"}, {"time": 2083, "annotation": {"number": 64, "value": 127}, "group": "control_change"}, {"time": 2107, "annotation": {"number": 64, "value": 0}, "group": "control_change"}, {"time": 2109, "annotation": {"number": 64, "value": 127}, "group": "control_change"}, {"time": 2154, "annotation": {"number": 64, "value": 0}, "group": "control_change"}, {"time": 2156, "annotation": {"number": 64, "value": 127}, "group": "control_change"}, {"time": 2204, "annotation": {"number": 64, "value": 0}, "group": "control_change"}, {"time": 2208, "annotation": {"number": 64, "value": 127}, "group": "control_change"}, {"time": 2253, "annotation": {"number": 64, "value": 0}, "group": "control_change"}, {"time": 2256, "annotation": {"number": 64, "value": 127}, "group": "control_change"}, {"time": 2298, "annotation": {"number": 64, "value": 0}, "group": "control_change"}, {"time": 2300, "annotation": {"number": 64, "value": 127}, "group": "control_change"}, {"time": 2490, "annotation": {"number": 64, "value": 0}, "group": "control_change"}, {"time": 2493, "annotation": {"number": 64, "value": 127}, "group": "control_change"}, {"time": 2540, "annotation": {"number": 64, "value": 0}, "group": "control_change"}, {"time": 2544, "annotation": {"number": 64, "value": 127}, "group": "control_change"}, {"time": 2588, "annotation": {"number": 64, "value": 0}, "group": "control_change"}, {"time": 2592, "annotation": {"number": 64, "value": 127}, "group": "control_change"}, {"time": 2636, "annotation": {"number": 64, "value": 0}, "group": "control_change"}, {"time": 2643, "annotation": {"number": 64, "value": 127}, "group": "control_change"}, {"time": 2683, "annotation": {"number": 64, "value": 0}, "group": "control_change"}, {"time": 2686, "annotation": {"number": 64, "value": 127}, "group": "control_change"}, {"time": 2729, "annotation": {"number": 64, "value": 0}, "group": "control_change"}, {"time": 2732, "annotation": {"number": 64, "value": 127}, "group": "control_change"}, {"time": 2778, "annotation": {"number": 64, "value": 0}, "group": "control_change"}, {"time": 2781, "annotation": {"number": 64, "value": 127}, "group": "control_change"}, {"time": 2874, "annotation": {"number": 64, "value": 0}, "group": "control_change"}, {"time": 2877, "annotation": {"number": 64, "value": 127}, "group": "control_change"}, {"time": 2924, "annotation": {"number": 64, "value": 0}, "group": "control_change"}, {"time": 2927, "annotation": {"number": 64, "value": 127}, "group": "control_change"}, {"time": 2970, "annotation": {"number": 64, "value": 0}, "group": "control_change"}, {"time": 2978, "annotation": {"number": 64, "value": 127}, "group": "control_change"}, {"time": 3020, "annotation": {"number": 64, "value": 0}, "group": "control_change"}, {"time": 3025, "annotation": {"number": 64, "value": 127}, "group": "control_change"}, {"time": 3065, "annotation": {"number": 64, "value": 0}, "group": "control_change"}, {"time": 3070, "annotation": {"number": 64, "value": 127}, "group": "control_change"}, {"time": 3114, "annotation": {"number": 64, "value": 0}, "group": "control_change"}, {"time": 3119, "annotation": {"number": 64, "value": 127}, "group": "control_change"}, {"time": 3159, "annotation": {"number": 64, "value": 0}, "group": "control_change"}, {"time": 3164, "annotation": {"number": 64, "value": 127}, "group": "control_change"}, {"time": 3209, "annotation": {"number": 64, "value": 0}, "group": "control_change"}, {"time": 3210, "annotation": {"number": 64, "value": 127}, "group": "control_change"}, {"time": 3246, "annotation": {"number": 64, "value": 0}, "group": "control_change"}, {"time": 3246, "annotation": {"number": 64, "value": 127}, "group": "control_change"}, {"time": 3258, "annotation": {"number": 64, "value": 0}, "group": "control_change"}, {"time": 3261, "annotation": {"number": 64, "value": 127}, "group": "control_change"}, {"time": 3306, "annotation": {"number": 64, "value": 0}, "group": "control_change"}, {"time": 3308, "annotation": {"number": 64, "value": 127}, "group": "control_change"}, {"time": 3354, "annotation": {"number": 64, "value": 0}, "group": "control_change"}, {"time": 3357, "annotation": {"number": 64, "value": 127}, "group": "control_change"}, {"time": 3402, "annotation": {"number": 64, "value": 0}, "group": "control_change"}, {"time": 3406, "annotation": {"number": 64, "value": 127}, "group": "control_change"}, {"time": 3428, "annotation": {"number": 64, "value": 0}, "group": "control_change"}, {"time": 3430, "annotation": {"number": 64, "value": 127}, "group": "control_change"}, {"time": 3449, "annotation": {"number": 64, "value": 0}, "group": "control_change"}, {"time": 3452, "annotation": {"number": 64, "value": 127}, "group": "control_change"}, {"time": 3498, "annotation": {"number": 64, "value": 0}, "group": "control_change"}, {"time": 3500, "annotation": {"number": 64, "value": 127}, "group": "control_change"}, {"time": 3522, "annotation": {"number": 64, "value": 0}, "group": "control_change"}, {"time": 3523, "annotation": {"number": 64, "value": 127}, "group": "control_change"}, {"time": 3546, "annotation": {"number": 64, "value": 0}, "group": "control_change"}, {"time": 3548, "annotation": {"number": 64, "value": 127}, "group": "control_change"}, {"time": 3593, "annotation": {"number": 64, "value": 0}, "group": "control_change"}, {"time": 3595, "annotation": {"number": 64, "value": 127}, "group": "control_change"}, {"time": 3616, "annotation": {"number": 64, "value": 0}, "group": "control_change"}, {"time": 3618, "annotation": {"number": 64, "value": 127}, "group": "control_change"}, {"time": 3642, "annotation": {"number": 64, "value": 0}, "group": "control_change"}, {"time": 3644, "annotation": {"number": 64, "value": 127}, "group": "control_change"}, {"time": 3689, "annotation": {"number": 64, "value": 0}, "group": "control_change"}, {"time": 3692, "annotation": {"number": 64, "value": 127}, "group": "control_change"}, {"time": 3737, "annotation": {"number": 64, "value": 0}, "group": "control_change"}, {"time": 3744, "annotation": {"number": 64, "value": 127}, "group": "control_change"}, {"time": 3786, "annotation": {"number": 64, "value": 0}, "group": "control_change"}, {"time": 3788, "annotation": {"number": 64, "value": 127}, "group": "control_change"}, {"time": 3805, "annotation": {"number": 64, "value": 0}, "group": "control_change"}, {"time": 3807, "annotation": {"number": 64, "value": 127}, "group": "control_change"}, {"time": 3834, "annotation": {"number": 64, "value": 0}, "group": "control_change"}, {"time": 3837, "annotation": {"number": 64, "value": 127}, "group": "control_change"}, {"time": 3878, "annotation": {"number": 64, "value": 0}, "group": "control_change"}, {"time": 3880, "annotation": {"number": 64, "value": 127}, "group": "control_change"}, {"time": 3928, "annotation": {"number": 64, "value": 0}, "group": "control_change"}, {"time": 3977, "annotation": {"number": 64, "value": 0}, "group": "control_change"}, {"time": 3980, "annotation": {"number": 64, "value": 127}, "group": "control_change"}, {"time": 4025, "annotation": {"number": 64, "value": 0}, "group": "control_change"}, {"time": 4053, "annotation": {"number": 64, "value": 127}, "group": "control_change"}, {"time": 4054, "annotation": {"number": 64, "value": 0}, "group": "control_change"}, {"time": 4075, "annotation": {"number": 64, "value": 127}, "group": "control_change"}, {"time": 4120, "annotation": {"number": 64, "value": 0}, "group": "control_change"}, {"time": 4124, "annotation": {"number": 64, "value": 127}, "group": "control_change"}, {"time": 4149, "annotation": {"number": 64, "value": 0}, "group": "control_change"}, {"time": 4173, "annotation": {"number": 64, "value": 127}, "group": "control_change"}, {"time": 4173, "annotation": {"number": 64, "value": 0}, "group": "control_change"}, {"time": 4220, "annotation": {"number": 64, "value": 0}, "group": "control_change"}, {"time": 4222, "annotation": {"number": 64, "value": 127}, "group": "control_change"}, {"time": 4266, "annotation": {"number": 64, "value": 0}, "group": "control_change"}, {"time": 4269, "annotation": {"number": 64, "value": 127}, "group": "control_change"}, {"time": 4315, "annotation": {"number": 64, "value": 0}, "group": "control_change"}, {"time": 4319, "annotation": {"number": 64, "value": 127}, "group": "control_change"}, {"time": 4361, "annotation": {"number": 64, "value": 0}, "group": "control_change"}, {"time": 4365, "annotation": {"number": 64, "value": 127}, "group": "control_change"}, {"time": 4410, "annotation": {"number": 64, "value": 0}, "group": "control_change"}, {"time": 4414, "annotation": {"number": 64, "value": 127}, "group": "control_change"}, {"time": 4436, "annotation": {"number": 64, "value": 0}, "group": "control_change"}, {"time": 4438, "annotation": {"number": 64, "value": 127}, "group": "control_change"}, {"time": 4457, "annotation": {"number": 64, "value": 0}, "group": "control_change"}, {"time": 4460, "annotation": {"number": 64, "value": 127}, "group": "control_change"}, {"time": 4506, "annotation": {"number": 64, "value": 0}, "group": "control_change"}, {"time": 4508, "annotation": {"number": 64, "value": 127}, "group": "control_change"}, {"time": 4530, "annotation": {"number": 64, "value": 0}, "group": "control_change"}, {"time": 4531, "annotation": {"number": 64, "value": 127}, "group": "control_change"}, {"time": 4554, "annotation": {"number": 64, "value": 0}, "group": "control_change"}, {"time": 4556, "annotation": {"number": 64, "value": 127}, "group": "control_change"}, {"time": 4601, "annotation": {"number": 64, "value": 0}, "group": "control_change"}, {"time": 4603, "annotation": {"number": 64, "value": 127}, "group": "control_change"}, {"time": 4624, "annotation": {"number": 64, "value": 0}, "group": "control_change"}, {"time": 4626, "annotation": {"number": 64, "value": 127}, "group": "control_change"}, {"time": 4650, "annotation": {"number": 64, "value": 0}, "group": "control_change"}, {"time": 4652, "annotation": {"number": 64, "value": 127}, "group": "control_change"}, {"time": 4697, "annotation": {"number": 64, "value": 0}, "group": "control_change"}, {"time": 4700, "annotation": {"number": 64, "value": 127}, "group": "control_change"}, {"time": 4745, "annotation": {"number": 64, "value": 0}, "group": "control_change"}, {"time": 4752, "annotation": {"number": 64, "value": 127}, "group": "control_change"}, {"time": 4794, "annotation": {"number": 64, "value": 0}, "group": "control_change"}, {"time": 4796, "annotation": {"number": 64, "value": 127}, "group": "control_change"}, {"time": 4813, "annotation": {"number": 64, "value": 0}, "group": "control_change"}, {"time": 4815, "annotation": {"number": 64, "value": 127}, "group": "control_change"}, {"time": 4842, "annotation": {"number": 64, "value": 0}, "group": "control_change"}, {"time": 4845, "annotation": {"number": 64, "value": 127}, "group": "control_change"}, {"time": 4886, "annotation": {"number": 64, "value": 0}, "group": "control_change"}, {"time": 4888, "annotation": {"number": 64, "value": 127}, "group": "control_change"}, {"time": 4936, "annotation": {"number": 64, "value": 0}, "group": "control_change"}, {"time": 5024, "annotation": {"number": 64, "value": 127}, "group": "control_change"}, {"time": 5084, "annotation": {"number": 64, "value": 0}, "group": "control_change"}, {"time": 5088, "annotation": {"number": 64, "value": 127}, "group": "control_change"}, {"time": 5178, "annotation": {"number": 64, "value": 0}, "group": "control_change"}, {"time": 5186, "annotation": {"number": 64, "value": 127}, "group": "control_change"}, {"time": 5274, "annotation": {"number": 64, "value": 0}, "group": "control_change"}, {"time": 5274, "annotation": {"number": 64, "value": 127}, "group": "control_change"}]}]}