{"metadata": {"schema_version": "0.2", "title": "None", "source_filename": "701.mid", "source_format": "midi"}, "resolution": 12, "tempos": [{"time": 0, "qpm": 66.000066000066}, {"time": 600, "qpm": 63.25004005835871}, {"time": 648, "qpm": 66.000066000066}, {"time": 1020, "qpm": 65.00013541694878}, {"time": 1024, "qpm": 64.0}, {"time": 1031, "qpm": 63.25004005835871}, {"time": 1047, "qpm": 64.75006475006475}, {"time": 1063, "qpm": 66.000066000066}, {"time": 1299, "qpm": 65.00013541694878}, {"time": 1404, "qpm": 66.000066000066}, {"time": 1416, "qpm": 67.00002903334591}, {"time": 1524, "qpm": 64.75006475006475}, {"time": 1545, "qpm": 66.25002760417817}, {"time": 1561, "qpm": 67.25009863347799}, {"time": 1572, "qpm": 69.00009660013524}, {"time": 1582, "qpm": 67.25009863347799}, {"time": 1596, "qpm": 65.25001631250407}, {"time": 1685, "qpm": 63.50005979588964}, {"time": 1711, "qpm": 62.00005993339127}, {"time": 1740, "qpm": 66.000066000066}, {"time": 1945, "qpm": 66.25002760417817}, {"time": 1956, "qpm": 64.75006475006475}, {"time": 2184, "qpm": 62.25002723438691}, {"time": 2245, "qpm": 63.000063000063}, {"time": 2253, "qpm": 63.750031875015935}, {"time": 2256, "qpm": 65.50003820835562}], "time_signatures": [{"time": 0, "numerator": 1, "denominator": 4}], "tracks": [{"program": 0, "is_drum": false, "name": "MELODY", "notes": [{"time": 254, "pitch": 59, "duration": 2, "velocity": 86}, {"time": 257, "pitch": 59, "duration": 3, "velocity": 86}, {"time": 261, "pitch": 66, "duration": 5, "velocity": 82}, {"time": 267, "pitch": 68, "duration": 4, "velocity": 77}, {"time": 273, "pitch": 66, "duration": 5, "velocity": 86}, {"time": 279, "pitch": 64, "duration": 2, "velocity": 85}, {"time": 282, "pitch": 66, "duration": 18, "velocity": 85}, {"time": 303, "pitch": 64, "duration": 2, "velocity": 79}, {"time": 305, "pitch": 63, "duration": 2, "velocity": 79}, {"time": 308, "pitch": 64, "duration": 6, "velocity": 85}, {"time": 320, "pitch": 66, "duration": 5, "velocity": 86}, {"time": 326, "pitch": 68, "duration": 2, "velocity": 85}, {"time": 329, "pitch": 63, "duration": 18, "velocity": 85}, {"time": 353, "pitch": 59, "duration": 2, "velocity": 81}, {"time": 356, "pitch": 61, "duration": 5, "velocity": 86}, {"time": 362, "pitch": 64, "duration": 4, "velocity": 86}, {"time": 368, "pitch": 64, "duration": 5, "velocity": 86}, {"time": 374, "pitch": 73, "duration": 5, "velocity": 87}, {"time": 380, "pitch": 71, "duration": 13, "velocity": 85}, {"time": 398, "pitch": 66, "duration": 7, "velocity": 86}, {"time": 404, "pitch": 68, "duration": 30, "velocity": 86}, {"time": 447, "pitch": 59, "duration": 1, "velocity": 81}, {"time": 450, "pitch": 59, "duration": 2, "velocity": 85}, {"time": 453, "pitch": 68, "duration": 9, "velocity": 86}, {"time": 465, "pitch": 66, "duration": 5, "velocity": 85}, {"time": 471, "pitch": 64, "duration": 2, "velocity": 78}, {"time": 474, "pitch": 66, "duration": 18, "velocity": 80}, {"time": 495, "pitch": 64, "duration": 2, "velocity": 86}, {"time": 498, "pitch": 63, "duration": 2, "velocity": 87}, {"time": 501, "pitch": 64, "duration": 6, "velocity": 88}, {"time": 507, "pitch": 63, "duration": 2, "velocity": 85}, {"time": 510, "pitch": 64, "duration": 8, "velocity": 88}, {"time": 518, "pitch": 73, "duration": 7, "velocity": 92}, {"time": 524, "pitch": 71, "duration": 14, "velocity": 86}, {"time": 545, "pitch": 59, "duration": 3, "velocity": 80}, {"time": 548, "pitch": 61, "duration": 6, "velocity": 86}, {"time": 554, "pitch": 64, "duration": 4, "velocity": 86}, {"time": 560, "pitch": 64, "duration": 5, "velocity": 85}, {"time": 566, "pitch": 69, "duration": 6, "velocity": 85}, {"time": 573, "pitch": 68, "duration": 15, "velocity": 85}, {"time": 591, "pitch": 66, "duration": 5, "velocity": 85}, {"time": 597, "pitch": 64, "duration": 32, "velocity": 84}, {"time": 632, "pitch": 64, "duration": 4, "velocity": 86}, {"time": 637, "pitch": 68, "duration": 2, "velocity": 88}, {"time": 640, "pitch": 71, "duration": 3, "velocity": 88}, {"time": 644, "pitch": 71, "duration": 4, "velocity": 87}, {"time": 650, "pitch": 73, "duration": 21, "velocity": 94}, {"time": 681, "pitch": 73, "duration": 4, "velocity": 99}, {"time": 686, "pitch": 71, "duration": 3, "velocity": 89}, {"time": 689, "pitch": 68, "duration": 4, "velocity": 86}, {"time": 693, "pitch": 73, "duration": 10, "velocity": 90}, {"time": 703, "pitch": 71, "duration": 22, "velocity": 90}, {"time": 734, "pitch": 68, "duration": 3, "velocity": 86}, {"time": 737, "pitch": 71, "duration": 2, "velocity": 85}, {"time": 740, "pitch": 68, "duration": 4, "velocity": 87}, {"time": 744, "pitch": 66, "duration": 3, "velocity": 81}, {"time": 748, "pitch": 66, "duration": 2, "velocity": 83}, {"time": 752, "pitch": 66, "duration": 5, "velocity": 86}, {"time": 758, "pitch": 64, "duration": 5, "velocity": 86}, {"time": 764, "pitch": 64, "duration": 6, "velocity": 87}, {"time": 770, "pitch": 59, "duration": 4, "velocity": 86}, {"time": 776, "pitch": 73, "duration": 5, "velocity": 96}, {"time": 782, "pitch": 75, "duration": 2, "velocity": 90}, {"time": 786, "pitch": 73, "duration": 8, "velocity": 99}, {"time": 794, "pitch": 71, "duration": 21, "velocity": 89}, {"time": 825, "pitch": 64, "duration": 3, "velocity": 87}, {"time": 829, "pitch": 68, "duration": 3, "velocity": 86}, {"time": 833, "pitch": 71, "duration": 2, "velocity": 88}, {"time": 837, "pitch": 71, "duration": 4, "velocity": 85}, {"time": 843, "pitch": 73, "duration": 25, "velocity": 92}, {"time": 873, "pitch": 76, "duration": 3, "velocity": 87}, {"time": 877, "pitch": 75, "duration": 3, "velocity": 87}, {"time": 880, "pitch": 73, "duration": 3, "velocity": 92}, {"time": 885, "pitch": 73, "duration": 6, "velocity": 87}, {"time": 892, "pitch": 71, "duration": 2, "velocity": 86}, {"time": 897, "pitch": 71, "duration": 5, "velocity": 92}, {"time": 903, "pitch": 78, "duration": 4, "velocity": 90}, {"time": 908, "pitch": 76, "duration": 30, "velocity": 86}, {"time": 962, "pitch": 71, "duration": 2, "velocity": 86}, {"time": 965, "pitch": 73, "duration": 2, "velocity": 91}, {"time": 970, "pitch": 68, "duration": 5, "velocity": 76}, {"time": 975, "pitch": 66, "duration": 2, "velocity": 80}, {"time": 978, "pitch": 66, "duration": 7, "velocity": 85}, {"time": 986, "pitch": 64, "duration": 17, "velocity": 85}, {"time": 1005, "pitch": 66, "duration": 10, "velocity": 87}, {"time": 1017, "pitch": 64, "duration": 38, "velocity": 87}, {"time": 1058, "pitch": 59, "duration": 2, "velocity": 86}, {"time": 1061, "pitch": 59, "duration": 3, "velocity": 86}, {"time": 1065, "pitch": 66, "duration": 5, "velocity": 82}, {"time": 1071, "pitch": 68, "duration": 4, "velocity": 77}, {"time": 1077, "pitch": 66, "duration": 5, "velocity": 86}, {"time": 1083, "pitch": 64, "duration": 2, "velocity": 85}, {"time": 1086, "pitch": 66, "duration": 18, "velocity": 85}, {"time": 1107, "pitch": 64, "duration": 2, "velocity": 79}, {"time": 1109, "pitch": 63, "duration": 2, "velocity": 79}, {"time": 1112, "pitch": 64, "duration": 6, "velocity": 85}, {"time": 1124, "pitch": 66, "duration": 5, "velocity": 86}, {"time": 1130, "pitch": 68, "duration": 2, "velocity": 85}, {"time": 1133, "pitch": 63, "duration": 18, "velocity": 85}, {"time": 1157, "pitch": 59, "duration": 2, "velocity": 81}, {"time": 1160, "pitch": 61, "duration": 5, "velocity": 86}, {"time": 1166, "pitch": 64, "duration": 4, "velocity": 86}, {"time": 1172, "pitch": 64, "duration": 5, "velocity": 86}, {"time": 1178, "pitch": 73, "duration": 5, "velocity": 87}, {"time": 1184, "pitch": 71, "duration": 13, "velocity": 85}, {"time": 1202, "pitch": 66, "duration": 7, "velocity": 86}, {"time": 1208, "pitch": 68, "duration": 30, "velocity": 86}, {"time": 1251, "pitch": 59, "duration": 1, "velocity": 81}, {"time": 1254, "pitch": 59, "duration": 2, "velocity": 85}, {"time": 1257, "pitch": 68, "duration": 9, "velocity": 86}, {"time": 1269, "pitch": 66, "duration": 5, "velocity": 85}, {"time": 1275, "pitch": 64, "duration": 2, "velocity": 78}, {"time": 1278, "pitch": 66, "duration": 18, "velocity": 80}, {"time": 1299, "pitch": 64, "duration": 2, "velocity": 86}, {"time": 1302, "pitch": 63, "duration": 2, "velocity": 87}, {"time": 1305, "pitch": 64, "duration": 6, "velocity": 88}, {"time": 1311, "pitch": 63, "duration": 2, "velocity": 85}, {"time": 1314, "pitch": 64, "duration": 8, "velocity": 88}, {"time": 1322, "pitch": 73, "duration": 7, "velocity": 92}, {"time": 1328, "pitch": 71, "duration": 14, "velocity": 86}, {"time": 1349, "pitch": 59, "duration": 3, "velocity": 80}, {"time": 1352, "pitch": 61, "duration": 6, "velocity": 86}, {"time": 1358, "pitch": 64, "duration": 4, "velocity": 86}, {"time": 1364, "pitch": 64, "duration": 5, "velocity": 85}, {"time": 1370, "pitch": 69, "duration": 6, "velocity": 85}, {"time": 1377, "pitch": 68, "duration": 15, "velocity": 85}, {"time": 1395, "pitch": 66, "duration": 5, "velocity": 85}, {"time": 1401, "pitch": 64, "duration": 32, "velocity": 84}, {"time": 1724, "pitch": 65, "duration": 4, "velocity": 86}, {"time": 1729, "pitch": 69, "duration": 2, "velocity": 88}, {"time": 1732, "pitch": 72, "duration": 3, "velocity": 88}, {"time": 1736, "pitch": 72, "duration": 4, "velocity": 87}, {"time": 1742, "pitch": 74, "duration": 21, "velocity": 94}, {"time": 1773, "pitch": 74, "duration": 4, "velocity": 99}, {"time": 1778, "pitch": 72, "duration": 3, "velocity": 89}, {"time": 1781, "pitch": 69, "duration": 4, "velocity": 86}, {"time": 1785, "pitch": 74, "duration": 10, "velocity": 90}, {"time": 1795, "pitch": 72, "duration": 22, "velocity": 90}, {"time": 1826, "pitch": 69, "duration": 3, "velocity": 86}, {"time": 1829, "pitch": 72, "duration": 2, "velocity": 85}, {"time": 1832, "pitch": 69, "duration": 4, "velocity": 87}, {"time": 1836, "pitch": 67, "duration": 3, "velocity": 81}, {"time": 1840, "pitch": 67, "duration": 2, "velocity": 83}, {"time": 1844, "pitch": 67, "duration": 5, "velocity": 86}, {"time": 1850, "pitch": 65, "duration": 5, "velocity": 86}, {"time": 1856, "pitch": 65, "duration": 6, "velocity": 87}, {"time": 1862, "pitch": 60, "duration": 4, "velocity": 86}, {"time": 1868, "pitch": 74, "duration": 5, "velocity": 96}, {"time": 1874, "pitch": 76, "duration": 2, "velocity": 90}, {"time": 1878, "pitch": 74, "duration": 8, "velocity": 99}, {"time": 1886, "pitch": 72, "duration": 21, "velocity": 89}, {"time": 1917, "pitch": 65, "duration": 3, "velocity": 87}, {"time": 1921, "pitch": 69, "duration": 3, "velocity": 86}, {"time": 1925, "pitch": 72, "duration": 2, "velocity": 88}, {"time": 1929, "pitch": 72, "duration": 4, "velocity": 85}, {"time": 1935, "pitch": 74, "duration": 25, "velocity": 92}, {"time": 1965, "pitch": 77, "duration": 3, "velocity": 87}, {"time": 1969, "pitch": 76, "duration": 3, "velocity": 87}, {"time": 1972, "pitch": 74, "duration": 3, "velocity": 92}, {"time": 1977, "pitch": 74, "duration": 6, "velocity": 87}, {"time": 1984, "pitch": 72, "duration": 2, "velocity": 86}, {"time": 1989, "pitch": 72, "duration": 5, "velocity": 92}, {"time": 1995, "pitch": 79, "duration": 4, "velocity": 90}, {"time": 2000, "pitch": 77, "duration": 30, "velocity": 86}, {"time": 2054, "pitch": 72, "duration": 2, "velocity": 86}, {"time": 2057, "pitch": 74, "duration": 2, "velocity": 91}, {"time": 2062, "pitch": 69, "duration": 5, "velocity": 76}, {"time": 2067, "pitch": 67, "duration": 2, "velocity": 80}, {"time": 2070, "pitch": 67, "duration": 7, "velocity": 85}, {"time": 2078, "pitch": 65, "duration": 17, "velocity": 85}, {"time": 2097, "pitch": 67, "duration": 10, "velocity": 87}, {"time": 2109, "pitch": 65, "duration": 38, "velocity": 87}, {"time": 2150, "pitch": 72, "duration": 2, "velocity": 86}, {"time": 2153, "pitch": 74, "duration": 3, "velocity": 86}, {"time": 2157, "pitch": 69, "duration": 5, "velocity": 82}, {"time": 2163, "pitch": 67, "duration": 4, "velocity": 77}, {"time": 2169, "pitch": 67, "duration": 5, "velocity": 86}, {"time": 2175, "pitch": 65, "duration": 2, "velocity": 85}, {"time": 2178, "pitch": 65, "duration": 18, "velocity": 85}, {"time": 2199, "pitch": 67, "duration": 8, "velocity": 79}, {"time": 2211, "pitch": 65, "duration": 30, "velocity": 85}]}, {"program": 0, "is_drum": false, "name": "PIANO", "notes": [{"time": 19, "pitch": 57, "duration": 18, "velocity": 60}, {"time": 20, "pitch": 61, "duration": 17, "velocity": 81}, {"time": 21, "pitch": 45, "duration": 17, "velocity": 78}, {"time": 21, "pitch": 64, "duration": 18, "velocity": 75}, {"time": 43, "pitch": 54, "duration": 11, "velocity": 66}, {"time": 44, "pitch": 59, "duration": 7, "velocity": 69}, {"time": 44, "pitch": 47, "duration": 16, "velocity": 80}, {"time": 45, "pitch": 63, "duration": 13, "velocity": 63}, {"time": 68, "pitch": 54, "duration": 6, "velocity": 64}, {"time": 68, "pitch": 59, "duration": 13, "velocity": 75}, {"time": 68, "pitch": 44, "duration": 42, "velocity": 72}, {"time": 74, "pitch": 51, "duration": 14, "velocity": 70}, {"time": 81, "pitch": 56, "duration": 7, "velocity": 77}, {"time": 91, "pitch": 56, "duration": 2, "velocity": 69}, {"time": 91, "pitch": 49, "duration": 18, "velocity": 73}, {"time": 92, "pitch": 61, "duration": 16, "velocity": 82}, {"time": 93, "pitch": 64, "duration": 16, "velocity": 82}, {"time": 116, "pitch": 52, "duration": 13, "velocity": 72}, {"time": 117, "pitch": 42, "duration": 43, "velocity": 85}, {"time": 117, "pitch": 57, "duration": 23, "velocity": 74}, {"time": 123, "pitch": 49, "duration": 14, "velocity": 78}, {"time": 128, "pitch": 61, "duration": 21, "velocity": 84}, {"time": 134, "pitch": 52, "duration": 5, "velocity": 72}, {"time": 152, "pitch": 54, "duration": 8, "velocity": 76}, {"time": 152, "pitch": 47, "duration": 8, "velocity": 87}, {"time": 152, "pitch": 59, "duration": 9, "velocity": 80}, {"time": 163, "pitch": 52, "duration": 4, "velocity": 73}, {"time": 164, "pitch": 56, "duration": 15, "velocity": 75}, {"time": 164, "pitch": 40, "duration": 32, "velocity": 79}, {"time": 165, "pitch": 59, "duration": 18, "velocity": 73}, {"time": 171, "pitch": 47, "duration": 8, "velocity": 68}, {"time": 177, "pitch": 52, "duration": 13, "velocity": 80}, {"time": 183, "pitch": 56, "duration": 8, "velocity": 78}, {"time": 189, "pitch": 64, "duration": 4, "velocity": 66}, {"time": 199, "pitch": 52, "duration": 6, "velocity": 64}, {"time": 200, "pitch": 57, "duration": 7, "velocity": 73}, {"time": 200, "pitch": 45, "duration": 10, "velocity": 76}, {"time": 201, "pitch": 61, "duration": 10, "velocity": 85}, {"time": 207, "pitch": 52, "duration": 12, "velocity": 82}, {"time": 212, "pitch": 40, "duration": 46, "velocity": 78}, {"time": 213, "pitch": 59, "duration": 14, "velocity": 80}, {"time": 213, "pitch": 56, "duration": 6, "velocity": 74}, {"time": 219, "pitch": 47, "duration": 34, "velocity": 69}, {"time": 225, "pitch": 52, "duration": 13, "velocity": 77}, {"time": 231, "pitch": 56, "duration": 10, "velocity": 78}, {"time": 237, "pitch": 64, "duration": 8, "velocity": 84}, {"time": 242, "pitch": 52, "duration": 7, "velocity": 70}, {"time": 248, "pitch": 57, "duration": 4, "velocity": 70}, {"time": 260, "pitch": 52, "duration": 13, "velocity": 74}, {"time": 260, "pitch": 56, "duration": 13, "velocity": 77}, {"time": 260, "pitch": 40, "duration": 15, "velocity": 85}, {"time": 266, "pitch": 47, "duration": 9, "velocity": 59}, {"time": 283, "pitch": 54, "duration": 2, "velocity": 31}, {"time": 284, "pitch": 59, "duration": 8, "velocity": 78}, {"time": 284, "pitch": 47, "duration": 13, "velocity": 79}, {"time": 284, "pitch": 63, "duration": 13, "velocity": 82}, {"time": 291, "pitch": 54, "duration": 6, "velocity": 80}, {"time": 296, "pitch": 59, "duration": 3, "velocity": 86}, {"time": 308, "pitch": 64, "duration": 8, "velocity": 83}, {"time": 308, "pitch": 56, "duration": 8, "velocity": 75}, {"time": 308, "pitch": 37, "duration": 16, "velocity": 86}, {"time": 315, "pitch": 44, "duration": 8, "velocity": 51}, {"time": 321, "pitch": 56, "duration": 4, "velocity": 77}, {"time": 321, "pitch": 61, "duration": 5, "velocity": 80}, {"time": 332, "pitch": 54, "duration": 4, "velocity": 72}, {"time": 332, "pitch": 63, "duration": 13, "velocity": 80}, {"time": 332, "pitch": 47, "duration": 14, "velocity": 81}, {"time": 338, "pitch": 54, "duration": 8, "velocity": 78}, {"time": 345, "pitch": 59, "duration": 2, "velocity": 91}, {"time": 355, "pitch": 52, "duration": 3, "velocity": 67}, {"time": 355, "pitch": 57, "duration": 9, "velocity": 70}, {"time": 357, "pitch": 45, "duration": 15, "velocity": 76}, {"time": 357, "pitch": 61, "duration": 18, "velocity": 86}, {"time": 363, "pitch": 52, "duration": 8, "velocity": 75}, {"time": 369, "pitch": 57, "duration": 3, "velocity": 60}, {"time": 380, "pitch": 54, "duration": 3, "velocity": 74}, {"time": 380, "pitch": 59, "duration": 8, "velocity": 74}, {"time": 380, "pitch": 47, "duration": 17, "velocity": 75}, {"time": 386, "pitch": 54, "duration": 7, "velocity": 82}, {"time": 392, "pitch": 59, "duration": 4, "velocity": 82}, {"time": 392, "pitch": 63, "duration": 5, "velocity": 86}, {"time": 404, "pitch": 52, "duration": 12, "velocity": 73}, {"time": 404, "pitch": 40, "duration": 19, "velocity": 85}, {"time": 404, "pitch": 56, "duration": 13, "velocity": 69}, {"time": 410, "pitch": 47, "duration": 12, "velocity": 77}, {"time": 416, "pitch": 64, "duration": 5, "velocity": 87}, {"time": 421, "pitch": 52, "duration": 2, "velocity": 89}, {"time": 426, "pitch": 52, "duration": 2, "velocity": 73}, {"time": 427, "pitch": 57, "duration": 6, "velocity": 72}, {"time": 427, "pitch": 61, "duration": 8, "velocity": 85}, {"time": 428, "pitch": 45, "duration": 4, "velocity": 87}, {"time": 437, "pitch": 54, "duration": 3, "velocity": 65}, {"time": 438, "pitch": 59, "duration": 7, "velocity": 76}, {"time": 439, "pitch": 47, "duration": 7, "velocity": 89}, {"time": 440, "pitch": 63, "duration": 10, "velocity": 85}, {"time": 445, "pitch": 54, "duration": 3, "velocity": 85}, {"time": 451, "pitch": 40, "duration": 18, "velocity": 85}, {"time": 451, "pitch": 52, "duration": 13, "velocity": 76}, {"time": 451, "pitch": 56, "duration": 9, "velocity": 74}, {"time": 457, "pitch": 47, "duration": 12, "velocity": 72}, {"time": 463, "pitch": 64, "duration": 5, "velocity": 80}, {"time": 463, "pitch": 56, "duration": 3, "velocity": 79}, {"time": 464, "pitch": 59, "duration": 2, "velocity": 75}, {"time": 474, "pitch": 54, "duration": 2, "velocity": 69}, {"time": 475, "pitch": 59, "duration": 8, "velocity": 75}, {"time": 476, "pitch": 47, "duration": 17, "velocity": 82}, {"time": 476, "pitch": 63, "duration": 9, "velocity": 85}, {"time": 482, "pitch": 51, "duration": 11, "velocity": 67}, {"time": 488, "pitch": 59, "duration": 10, "velocity": 87}, {"time": 488, "pitch": 54, "duration": 3, "velocity": 85}, {"time": 494, "pitch": 54, "duration": 2, "velocity": 78}, {"time": 500, "pitch": 56, "duration": 3, "velocity": 76}, {"time": 501, "pitch": 61, "duration": 12, "velocity": 79}, {"time": 501, "pitch": 49, "duration": 14, "velocity": 80}, {"time": 506, "pitch": 56, "duration": 6, "velocity": 72}, {"time": 512, "pitch": 64, "duration": 11, "velocity": 87}, {"time": 523, "pitch": 56, "duration": 8, "velocity": 67}, {"time": 524, "pitch": 59, "duration": 13, "velocity": 74}, {"time": 524, "pitch": 44, "duration": 15, "velocity": 81}, {"time": 524, "pitch": 63, "duration": 14, "velocity": 85}, {"time": 530, "pitch": 51, "duration": 9, "velocity": 68}, {"time": 536, "pitch": 56, "duration": 3, "velocity": 74}, {"time": 546, "pitch": 52, "duration": 3, "velocity": 65}, {"time": 547, "pitch": 57, "duration": 7, "velocity": 70}, {"time": 548, "pitch": 61, "duration": 10, "velocity": 83}, {"time": 549, "pitch": 45, "duration": 23, "velocity": 74}, {"time": 554, "pitch": 52, "duration": 15, "velocity": 71}, {"time": 561, "pitch": 57, "duration": 6, "velocity": 66}, {"time": 571, "pitch": 54, "duration": 4, "velocity": 69}, {"time": 572, "pitch": 59, "duration": 11, "velocity": 80}, {"time": 573, "pitch": 47, "duration": 19, "velocity": 82}, {"time": 573, "pitch": 63, "duration": 24, "velocity": 86}, {"time": 578, "pitch": 54, "duration": 14, "velocity": 72}, {"time": 585, "pitch": 59, "duration": 7, "velocity": 75}, {"time": 596, "pitch": 52, "duration": 13, "velocity": 59}, {"time": 597, "pitch": 56, "duration": 12, "velocity": 75}, {"time": 597, "pitch": 40, "duration": 21, "velocity": 86}, {"time": 602, "pitch": 47, "duration": 15, "velocity": 74}, {"time": 608, "pitch": 59, "duration": 7, "velocity": 81}, {"time": 613, "pitch": 52, "duration": 5, "velocity": 86}, {"time": 619, "pitch": 40, "duration": 16, "velocity": 86}, {"time": 620, "pitch": 56, "duration": 6, "velocity": 83}, {"time": 620, "pitch": 62, "duration": 4, "velocity": 80}, {"time": 620, "pitch": 52, "duration": 5, "velocity": 79}, {"time": 626, "pitch": 47, "duration": 8, "velocity": 81}, {"time": 632, "pitch": 59, "duration": 12, "velocity": 85}, {"time": 632, "pitch": 52, "duration": 11, "velocity": 86}, {"time": 632, "pitch": 56, "duration": 12, "velocity": 86}, {"time": 638, "pitch": 47, "duration": 6, "velocity": 84}, {"time": 644, "pitch": 57, "duration": 9, "velocity": 74}, {"time": 644, "pitch": 61, "duration": 9, "velocity": 82}, {"time": 644, "pitch": 45, "duration": 25, "velocity": 86}, {"time": 649, "pitch": 52, "duration": 20, "velocity": 66}, {"time": 656, "pitch": 61, "duration": 11, "velocity": 83}, {"time": 656, "pitch": 57, "duration": 6, "velocity": 77}, {"time": 656, "pitch": 64, "duration": 10, "velocity": 81}, {"time": 668, "pitch": 57, "duration": 4, "velocity": 79}, {"time": 668, "pitch": 61, "duration": 9, "velocity": 83}, {"time": 674, "pitch": 57, "duration": 2, "velocity": 70}, {"time": 681, "pitch": 57, "duration": 2, "velocity": 87}, {"time": 681, "pitch": 61, "duration": 4, "velocity": 87}, {"time": 681, "pitch": 64, "duration": 5, "velocity": 86}, {"time": 686, "pitch": 45, "duration": 5, "velocity": 86}, {"time": 686, "pitch": 57, "duration": 4, "velocity": 86}, {"time": 692, "pitch": 56, "duration": 9, "velocity": 76}, {"time": 692, "pitch": 44, "duration": 16, "velocity": 85}, {"time": 692, "pitch": 59, "duration": 8, "velocity": 80}, {"time": 698, "pitch": 51, "duration": 8, "velocity": 76}, {"time": 704, "pitch": 56, "duration": 4, "velocity": 86}, {"time": 704, "pitch": 63, "duration": 3, "velocity": 86}, {"time": 717, "pitch": 37, "duration": 16, "velocity": 86}, {"time": 717, "pitch": 61, "duration": 6, "velocity": 77}, {"time": 717, "pitch": 56, "duration": 6, "velocity": 75}, {"time": 722, "pitch": 44, "duration": 10, "velocity": 67}, {"time": 728, "pitch": 56, "duration": 3, "velocity": 80}, {"time": 728, "pitch": 61, "duration": 5, "velocity": 85}, {"time": 740, "pitch": 54, "duration": 6, "velocity": 78}, {"time": 740, "pitch": 61, "duration": 6, "velocity": 84}, {"time": 740, "pitch": 42, "duration": 20, "velocity": 85}, {"time": 746, "pitch": 49, "duration": 12, "velocity": 73}, {"time": 752, "pitch": 54, "duration": 3, "velocity": 79}, {"time": 752, "pitch": 57, "duration": 5, "velocity": 90}, {"time": 764, "pitch": 63, "duration": 8, "velocity": 86}, {"time": 764, "pitch": 54, "duration": 2, "velocity": 80}, {"time": 764, "pitch": 47, "duration": 16, "velocity": 86}, {"time": 770, "pitch": 54, "duration": 7, "velocity": 85}, {"time": 776, "pitch": 59, "duration": 4, "velocity": 86}, {"time": 782, "pitch": 57, "duration": 2, "velocity": 91}, {"time": 788, "pitch": 40, "duration": 22, "velocity": 86}, {"time": 788, "pitch": 52, "duration": 7, "velocity": 78}, {"time": 788, "pitch": 56, "duration": 8, "velocity": 77}, {"time": 794, "pitch": 47, "duration": 16, "velocity": 83}, {"time": 800, "pitch": 52, "duration": 5, "velocity": 91}, {"time": 806, "pitch": 56, "duration": 3, "velocity": 81}, {"time": 809, "pitch": 57, "duration": 2, "velocity": 91}, {"time": 812, "pitch": 59, "duration": 5, "velocity": 87}, {"time": 812, "pitch": 40, "duration": 16, "velocity": 88}, {"time": 818, "pitch": 47, "duration": 8, "velocity": 91}, {"time": 824, "pitch": 62, "duration": 7, "velocity": 84}, {"time": 824, "pitch": 52, "duration": 6, "velocity": 86}, {"time": 824, "pitch": 56, "duration": 6, "velocity": 84}, {"time": 830, "pitch": 40, "duration": 4, "velocity": 86}, {"time": 836, "pitch": 57, "duration": 8, "velocity": 78}, {"time": 836, "pitch": 61, "duration": 7, "velocity": 86}, {"time": 837, "pitch": 45, "duration": 16, "velocity": 92}, {"time": 848, "pitch": 57, "duration": 6, "velocity": 68}, {"time": 848, "pitch": 64, "duration": 11, "velocity": 89}, {"time": 854, "pitch": 52, "duration": 6, "velocity": 92}, {"time": 860, "pitch": 45, "duration": 15, "velocity": 78}, {"time": 860, "pitch": 57, "duration": 6, "velocity": 76}, {"time": 860, "pitch": 61, "duration": 7, "velocity": 85}, {"time": 872, "pitch": 57, "duration": 4, "velocity": 91}, {"time": 872, "pitch": 61, "duration": 5, "velocity": 86}, {"time": 873, "pitch": 52, "duration": 2, "velocity": 77}, {"time": 883, "pitch": 56, "duration": 3, "velocity": 70}, {"time": 884, "pitch": 59, "duration": 6, "velocity": 78}, {"time": 885, "pitch": 44, "duration": 10, "velocity": 86}, {"time": 885, "pitch": 63, "duration": 6, "velocity": 80}, {"time": 891, "pitch": 51, "duration": 3, "velocity": 80}, {"time": 891, "pitch": 56, "duration": 4, "velocity": 86}, {"time": 897, "pitch": 60, "duration": 5, "velocity": 85}, {"time": 897, "pitch": 54, "duration": 5, "velocity": 88}, {"time": 897, "pitch": 48, "duration": 5, "velocity": 89}, {"time": 907, "pitch": 56, "duration": 4, "velocity": 67}, {"time": 908, "pitch": 61, "duration": 12, "velocity": 79}, {"time": 909, "pitch": 37, "duration": 40, "velocity": 88}, {"time": 909, "pitch": 64, "duration": 11, "velocity": 82}, {"time": 915, "pitch": 44, "duration": 34, "velocity": 72}, {"time": 921, "pitch": 56, "duration": 5, "velocity": 87}, {"time": 927, "pitch": 68, "duration": 2, "velocity": 85}, {"time": 932, "pitch": 68, "duration": 22, "velocity": 59}, {"time": 934, "pitch": 73, "duration": 20, "velocity": 74}, {"time": 935, "pitch": 76, "duration": 19, "velocity": 77}, {"time": 967, "pitch": 54, "duration": 11, "velocity": 59}, {"time": 968, "pitch": 57, "duration": 14, "velocity": 80}, {"time": 968, "pitch": 42, "duration": 22, "velocity": 83}, {"time": 969, "pitch": 61, "duration": 13, "velocity": 78}, {"time": 975, "pitch": 49, "duration": 14, "velocity": 73}, {"time": 981, "pitch": 54, "duration": 7, "velocity": 89}, {"time": 987, "pitch": 57, "duration": 2, "velocity": 90}, {"time": 991, "pitch": 54, "duration": 20, "velocity": 78}, {"time": 992, "pitch": 57, "duration": 19, "velocity": 87}, {"time": 992, "pitch": 42, "duration": 22, "velocity": 79}, {"time": 993, "pitch": 60, "duration": 18, "velocity": 74}, {"time": 1015, "pitch": 52, "duration": 14, "velocity": 65}, {"time": 1017, "pitch": 56, "duration": 10, "velocity": 67}, {"time": 1017, "pitch": 40, "duration": 47, "velocity": 84}, {"time": 1023, "pitch": 47, "duration": 40, "velocity": 75}, {"time": 1029, "pitch": 54, "duration": 6, "velocity": 90}, {"time": 1034, "pitch": 56, "duration": 7, "velocity": 87}, {"time": 1040, "pitch": 59, "duration": 3, "velocity": 78}, {"time": 1046, "pitch": 52, "duration": 7, "velocity": 72}, {"time": 1052, "pitch": 64, "duration": 11, "velocity": 87}, {"time": 1058, "pitch": 52, "duration": 5, "velocity": 82}, {"time": 1064, "pitch": 40, "duration": 16, "velocity": 87}, {"time": 1070, "pitch": 47, "duration": 9, "velocity": 77}, {"time": 1076, "pitch": 56, "duration": 2, "velocity": 81}, {"time": 1076, "pitch": 59, "duration": 4, "velocity": 85}, {"time": 1088, "pitch": 63, "duration": 14, "velocity": 86}, {"time": 1089, "pitch": 54, "duration": 3, "velocity": 77}, {"time": 1089, "pitch": 47, "duration": 14, "velocity": 80}, {"time": 1094, "pitch": 54, "duration": 7, "velocity": 73}, {"time": 1100, "pitch": 59, "duration": 3, "velocity": 82}, {"time": 1112, "pitch": 64, "duration": 9, "velocity": 87}, {"time": 1113, "pitch": 37, "duration": 13, "velocity": 85}, {"time": 1118, "pitch": 56, "duration": 7, "velocity": 82}, {"time": 1124, "pitch": 61, "duration": 6, "velocity": 89}, {"time": 1130, "pitch": 56, "duration": 2, "velocity": 87}, {"time": 1136, "pitch": 54, "duration": 3, "velocity": 72}, {"time": 1136, "pitch": 63, "duration": 13, "velocity": 77}, {"time": 1136, "pitch": 47, "duration": 14, "velocity": 85}, {"time": 1142, "pitch": 54, "duration": 7, "velocity": 75}, {"time": 1149, "pitch": 59, "duration": 2, "velocity": 86}, {"time": 1160, "pitch": 45, "duration": 20, "velocity": 80}, {"time": 1160, "pitch": 52, "duration": 13, "velocity": 79}, {"time": 1160, "pitch": 61, "duration": 7, "velocity": 81}, {"time": 1166, "pitch": 57, "duration": 7, "velocity": 89}, {"time": 1172, "pitch": 61, "duration": 12, "velocity": 87}, {"time": 1178, "pitch": 57, "duration": 7, "velocity": 90}, {"time": 1184, "pitch": 47, "duration": 20, "velocity": 83}, {"time": 1184, "pitch": 54, "duration": 3, "velocity": 73}, {"time": 1184, "pitch": 59, "duration": 20, "velocity": 77}, {"time": 1190, "pitch": 54, "duration": 6, "velocity": 74}, {"time": 1196, "pitch": 64, "duration": 6, "velocity": 85}, {"time": 1202, "pitch": 54, "duration": 4, "velocity": 78}, {"time": 1208, "pitch": 40, "duration": 20, "velocity": 83}, {"time": 1208, "pitch": 56, "duration": 10, "velocity": 75}, {"time": 1209, "pitch": 52, "duration": 9, "velocity": 81}, {"time": 1214, "pitch": 47, "duration": 13, "velocity": 76}, {"time": 1220, "pitch": 56, "duration": 6, "velocity": 83}, {"time": 1226, "pitch": 52, "duration": 7, "velocity": 90}, {"time": 1233, "pitch": 57, "duration": 6, "velocity": 89}, {"time": 1233, "pitch": 45, "duration": 6, "velocity": 81}, {"time": 1238, "pitch": 52, "duration": 4, "velocity": 91}, {"time": 1244, "pitch": 54, "duration": 3, "velocity": 85}, {"time": 1245, "pitch": 47, "duration": 7, "velocity": 86}, {"time": 1245, "pitch": 59, "duration": 7, "velocity": 84}, {"time": 1250, "pitch": 54, "duration": 4, "velocity": 68}, {"time": 1257, "pitch": 52, "duration": 12, "velocity": 83}, {"time": 1257, "pitch": 56, "duration": 8, "velocity": 76}, {"time": 1257, "pitch": 40, "duration": 15, "velocity": 86}, {"time": 1262, "pitch": 47, "duration": 10, "velocity": 73}, {"time": 1268, "pitch": 56, "duration": 1, "velocity": 47}, {"time": 1268, "pitch": 64, "duration": 13, "velocity": 87}, {"time": 1275, "pitch": 52, "duration": 1, "velocity": 86}, {"time": 1281, "pitch": 63, "duration": 12, "velocity": 74}, {"time": 1281, "pitch": 47, "duration": 13, "velocity": 85}, {"time": 1287, "pitch": 54, "duration": 7, "velocity": 85}, {"time": 1293, "pitch": 59, "duration": 2, "velocity": 86}, {"time": 1305, "pitch": 64, "duration": 6, "velocity": 80}, {"time": 1305, "pitch": 37, "duration": 9, "velocity": 87}, {"time": 1310, "pitch": 56, "duration": 7, "velocity": 87}, {"time": 1316, "pitch": 61, "duration": 5, "velocity": 92}, {"time": 1322, "pitch": 64, "duration": 7, "velocity": 91}, {"time": 1328, "pitch": 47, "duration": 14, "velocity": 86}, {"time": 1328, "pitch": 63, "duration": 10, "velocity": 91}, {"time": 1334, "pitch": 54, "duration": 4, "velocity": 86}, {"time": 1340, "pitch": 59, "duration": 3, "velocity": 85}, {"time": 1340, "pitch": 54, "duration": 4, "velocity": 86}, {"time": 1352, "pitch": 61, "duration": 12, "velocity": 82}, {"time": 1352, "pitch": 52, "duration": 3, "velocity": 77}, {"time": 1352, "pitch": 45, "duration": 23, "velocity": 85}, {"time": 1358, "pitch": 52, "duration": 7, "velocity": 79}, {"time": 1364, "pitch": 57, "duration": 7, "velocity": 90}, {"time": 1370, "pitch": 52, "duration": 2, "velocity": 78}, {"time": 1376, "pitch": 47, "duration": 14, "velocity": 84}, {"time": 1376, "pitch": 54, "duration": 3, "velocity": 81}, {"time": 1376, "pitch": 59, "duration": 7, "velocity": 80}, {"time": 1382, "pitch": 54, "duration": 3, "velocity": 82}, {"time": 1388, "pitch": 54, "duration": 2, "velocity": 81}, {"time": 1388, "pitch": 57, "duration": 4, "velocity": 85}, {"time": 1400, "pitch": 52, "duration": 8, "velocity": 72}, {"time": 1400, "pitch": 40, "duration": 21, "velocity": 86}, {"time": 1400, "pitch": 56, "duration": 8, "velocity": 76}, {"time": 1406, "pitch": 47, "duration": 8, "velocity": 86}, {"time": 1413, "pitch": 52, "duration": 4, "velocity": 99}, {"time": 1416, "pitch": 47, "duration": 5, "velocity": 86}, {"time": 1419, "pitch": 54, "duration": 4, "velocity": 99}, {"time": 1424, "pitch": 56, "duration": 7, "velocity": 86}, {"time": 1424, "pitch": 52, "duration": 8, "velocity": 85}, {"time": 1424, "pitch": 40, "duration": 16, "velocity": 87}, {"time": 1431, "pitch": 47, "duration": 8, "velocity": 92}, {"time": 1437, "pitch": 57, "duration": 5, "velocity": 92}, {"time": 1437, "pitch": 52, "duration": 5, "velocity": 87}, {"time": 1443, "pitch": 59, "duration": 4, "velocity": 88}, {"time": 1449, "pitch": 57, "duration": 3, "velocity": 80}, {"time": 1449, "pitch": 45, "duration": 16, "velocity": 96}, {"time": 1449, "pitch": 61, "duration": 6, "velocity": 85}, {"time": 1452, "pitch": 52, "duration": 13, "velocity": 70}, {"time": 1455, "pitch": 57, "duration": 6, "velocity": 86}, {"time": 1458, "pitch": 61, "duration": 5, "velocity": 77}, {"time": 1460, "pitch": 64, "duration": 6, "velocity": 85}, {"time": 1463, "pitch": 57, "duration": 5, "velocity": 85}, {"time": 1466, "pitch": 61, "duration": 4, "velocity": 77}, {"time": 1469, "pitch": 64, "duration": 3, "velocity": 85}, {"time": 1472, "pitch": 47, "duration": 15, "velocity": 90}, {"time": 1472, "pitch": 59, "duration": 4, "velocity": 79}, {"time": 1472, "pitch": 63, "duration": 5, "velocity": 85}, {"time": 1475, "pitch": 54, "duration": 10, "velocity": 87}, {"time": 1478, "pitch": 59, "duration": 4, "velocity": 94}, {"time": 1484, "pitch": 66, "duration": 9, "velocity": 86}, {"time": 1484, "pitch": 59, "duration": 5, "velocity": 89}, {"time": 1484, "pitch": 63, "duration": 7, "velocity": 96}, {"time": 1487, "pitch": 54, "duration": 2, "velocity": 87}, {"time": 1490, "pitch": 47, "duration": 2, "velocity": 86}, {"time": 1496, "pitch": 64, "duration": 9, "velocity": 85}, {"time": 1496, "pitch": 61, "duration": 10, "velocity": 85}, {"time": 1496, "pitch": 37, "duration": 1, "velocity": 96}, {"time": 1502, "pitch": 49, "duration": 34, "velocity": 87}, {"time": 1508, "pitch": 68, "duration": 4, "velocity": 91}, {"time": 1509, "pitch": 61, "duration": 3, "velocity": 94}, {"time": 1511, "pitch": 56, "duration": 11, "velocity": 83}, {"time": 1514, "pitch": 61, "duration": 2, "velocity": 86}, {"time": 1517, "pitch": 66, "duration": 2, "velocity": 87}, {"time": 1517, "pitch": 61, "duration": 2, "velocity": 82}, {"time": 1520, "pitch": 66, "duration": 3, "velocity": 90}, {"time": 1520, "pitch": 61, "duration": 3, "velocity": 91}, {"time": 1523, "pitch": 56, "duration": 8, "velocity": 87}, {"time": 1526, "pitch": 64, "duration": 1, "velocity": 81}, {"time": 1526, "pitch": 61, "duration": 1, "velocity": 83}, {"time": 1529, "pitch": 64, "duration": 4, "velocity": 99}, {"time": 1529, "pitch": 61, "duration": 5, "velocity": 86}, {"time": 1529, "pitch": 59, "duration": 1, "velocity": 86}, {"time": 1532, "pitch": 56, "duration": 5, "velocity": 94}, {"time": 1535, "pitch": 63, "duration": 3, "velocity": 90}, {"time": 1538, "pitch": 61, "duration": 2, "velocity": 91}, {"time": 1544, "pitch": 38, "duration": 18, "velocity": 99}, {"time": 1544, "pitch": 69, "duration": 7, "velocity": 84}, {"time": 1544, "pitch": 62, "duration": 2, "velocity": 71}, {"time": 1547, "pitch": 45, "duration": 8, "velocity": 76}, {"time": 1550, "pitch": 62, "duration": 3, "velocity": 91}, {"time": 1553, "pitch": 69, "duration": 4, "velocity": 92}, {"time": 1554, "pitch": 62, "duration": 3, "velocity": 86}, {"time": 1556, "pitch": 45, "duration": 5, "velocity": 79}, {"time": 1559, "pitch": 62, "duration": 2, "velocity": 89}, {"time": 1559, "pitch": 66, "duration": 2, "velocity": 86}, {"time": 1565, "pitch": 62, "duration": 2, "velocity": 88}, {"time": 1568, "pitch": 74, "duration": 4, "velocity": 81}, {"time": 1568, "pitch": 62, "duration": 3, "velocity": 85}, {"time": 1568, "pitch": 66, "duration": 3, "velocity": 76}, {"time": 1569, "pitch": 38, "duration": 10, "velocity": 96}, {"time": 1569, "pitch": 69, "duration": 2, "velocity": 68}, {"time": 1571, "pitch": 45, "duration": 7, "velocity": 81}, {"time": 1574, "pitch": 62, "duration": 1, "velocity": 88}, {"time": 1577, "pitch": 62, "duration": 4, "velocity": 94}, {"time": 1577, "pitch": 69, "duration": 4, "velocity": 92}, {"time": 1580, "pitch": 45, "duration": 2, "velocity": 86}, {"time": 1583, "pitch": 62, "duration": 2, "velocity": 90}, {"time": 1583, "pitch": 66, "duration": 3, "velocity": 86}, {"time": 1586, "pitch": 62, "duration": 1, "velocity": 86}, {"time": 1593, "pitch": 62, "duration": 4, "velocity": 82}, {"time": 1593, "pitch": 58, "duration": 2, "velocity": 82}, {"time": 1593, "pitch": 46, "duration": 11, "velocity": 86}, {"time": 1596, "pitch": 58, "duration": 3, "velocity": 78}, {"time": 1599, "pitch": 65, "duration": 3, "velocity": 86}, {"time": 1602, "pitch": 58, "duration": 4, "velocity": 88}, {"time": 1605, "pitch": 70, "duration": 4, "velocity": 92}, {"time": 1608, "pitch": 65, "duration": 3, "velocity": 90}, {"time": 1610, "pitch": 62, "duration": 4, "velocity": 87}, {"time": 1613, "pitch": 58, "duration": 2, "velocity": 87}, {"time": 1616, "pitch": 46, "duration": 16, "velocity": 87}, {"time": 1616, "pitch": 62, "duration": 5, "velocity": 96}, {"time": 1616, "pitch": 65, "duration": 8, "velocity": 86}, {"time": 1616, "pitch": 58, "duration": 3, "velocity": 87}, {"time": 1619, "pitch": 53, "duration": 10, "velocity": 79}, {"time": 1622, "pitch": 58, "duration": 4, "velocity": 87}, {"time": 1625, "pitch": 62, "duration": 1, "velocity": 92}, {"time": 1628, "pitch": 70, "duration": 10, "velocity": 88}, {"time": 1628, "pitch": 65, "duration": 11, "velocity": 91}, {"time": 1628, "pitch": 62, "duration": 6, "velocity": 106}, {"time": 1628, "pitch": 58, "duration": 4, "velocity": 96}, {"time": 1631, "pitch": 53, "duration": 2, "velocity": 87}, {"time": 1634, "pitch": 50, "duration": 2, "velocity": 96}, {"time": 1638, "pitch": 58, "duration": 3, "velocity": 94}, {"time": 1638, "pitch": 62, "duration": 1, "velocity": 33}, {"time": 1640, "pitch": 36, "duration": 1, "velocity": 102}, {"time": 1644, "pitch": 48, "duration": 42, "velocity": 99}, {"time": 1647, "pitch": 55, "duration": 18, "velocity": 101}, {"time": 1649, "pitch": 60, "duration": 4, "velocity": 91}, {"time": 1652, "pitch": 64, "duration": 4, "velocity": 87}, {"time": 1655, "pitch": 60, "duration": 9, "velocity": 92}, {"time": 1658, "pitch": 64, "duration": 1, "velocity": 44}, {"time": 1658, "pitch": 67, "duration": 6, "velocity": 85}, {"time": 1661, "pitch": 64, "duration": 3, "velocity": 79}, {"time": 1664, "pitch": 72, "duration": 2, "velocity": 92}, {"time": 1667, "pitch": 55, "duration": 19, "velocity": 76}, {"time": 1670, "pitch": 76, "duration": 4, "velocity": 77}, {"time": 1673, "pitch": 72, "duration": 3, "velocity": 86}, {"time": 1676, "pitch": 79, "duration": 4, "velocity": 87}, {"time": 1679, "pitch": 72, "duration": 3, "velocity": 78}, {"time": 1682, "pitch": 84, "duration": 4, "velocity": 92}, {"time": 1685, "pitch": 72, "duration": 2, "velocity": 85}, {"time": 1688, "pitch": 84, "duration": 3, "velocity": 85}, {"time": 1688, "pitch": 79, "duration": 3, "velocity": 83}, {"time": 1688, "pitch": 72, "duration": 4, "velocity": 78}, {"time": 1688, "pitch": 55, "duration": 4, "velocity": 87}, {"time": 1688, "pitch": 48, "duration": 3, "velocity": 90}, {"time": 1688, "pitch": 76, "duration": 3, "velocity": 77}, {"time": 1694, "pitch": 72, "duration": 4, "velocity": 65}, {"time": 1694, "pitch": 55, "duration": 4, "velocity": 85}, {"time": 1694, "pitch": 76, "duration": 4, "velocity": 73}, {"time": 1694, "pitch": 48, "duration": 4, "velocity": 87}, {"time": 1694, "pitch": 79, "duration": 4, "velocity": 68}, {"time": 1700, "pitch": 72, "duration": 3, "velocity": 79}, {"time": 1700, "pitch": 79, "duration": 2, "velocity": 81}, {"time": 1700, "pitch": 55, "duration": 4, "velocity": 91}, {"time": 1700, "pitch": 76, "duration": 2, "velocity": 80}, {"time": 1700, "pitch": 48, "duration": 4, "velocity": 102}, {"time": 1707, "pitch": 48, "duration": 1, "velocity": 86}, {"time": 1707, "pitch": 55, "duration": 1, "velocity": 91}, {"time": 1712, "pitch": 55, "duration": 5, "velocity": 88}, {"time": 1712, "pitch": 60, "duration": 11, "velocity": 79}, {"time": 1712, "pitch": 72, "duration": 8, "velocity": 80}, {"time": 1712, "pitch": 67, "duration": 9, "velocity": 79}, {"time": 1712, "pitch": 48, "duration": 4, "velocity": 91}, {"time": 1712, "pitch": 64, "duration": 9, "velocity": 82}, {"time": 1718, "pitch": 48, "duration": 2, "velocity": 90}, {"time": 1718, "pitch": 55, "duration": 2, "velocity": 82}, {"time": 1724, "pitch": 67, "duration": 12, "velocity": 86}, {"time": 1724, "pitch": 60, "duration": 12, "velocity": 85}, {"time": 1725, "pitch": 72, "duration": 11, "velocity": 82}, {"time": 1725, "pitch": 48, "duration": 4, "velocity": 89}, {"time": 1725, "pitch": 64, "duration": 11, "velocity": 86}, {"time": 1725, "pitch": 55, "duration": 7, "velocity": 88}, {"time": 1731, "pitch": 48, "duration": 5, "velocity": 90}, {"time": 1737, "pitch": 58, "duration": 9, "velocity": 74}, {"time": 1737, "pitch": 62, "duration": 9, "velocity": 82}, {"time": 1737, "pitch": 46, "duration": 25, "velocity": 86}, {"time": 1742, "pitch": 53, "duration": 20, "velocity": 66}, {"time": 1748, "pitch": 62, "duration": 11, "velocity": 83}, {"time": 1748, "pitch": 58, "duration": 6, "velocity": 77}, {"time": 1748, "pitch": 65, "duration": 11, "velocity": 81}, {"time": 1761, "pitch": 58, "duration": 4, "velocity": 79}, {"time": 1761, "pitch": 62, "duration": 8, "velocity": 83}, {"time": 1767, "pitch": 58, "duration": 2, "velocity": 70}, {"time": 1773, "pitch": 58, "duration": 3, "velocity": 87}, {"time": 1773, "pitch": 62, "duration": 4, "velocity": 87}, {"time": 1773, "pitch": 65, "duration": 6, "velocity": 86}, {"time": 1779, "pitch": 46, "duration": 4, "velocity": 86}, {"time": 1779, "pitch": 58, "duration": 3, "velocity": 86}, {"time": 1785, "pitch": 57, "duration": 9, "velocity": 76}, {"time": 1785, "pitch": 45, "duration": 16, "velocity": 85}, {"time": 1785, "pitch": 60, "duration": 8, "velocity": 80}, {"time": 1790, "pitch": 52, "duration": 9, "velocity": 76}, {"time": 1797, "pitch": 57, "duration": 3, "velocity": 86}, {"time": 1797, "pitch": 64, "duration": 3, "velocity": 86}, {"time": 1809, "pitch": 62, "duration": 7, "velocity": 77}, {"time": 1809, "pitch": 38, "duration": 16, "velocity": 86}, {"time": 1809, "pitch": 57, "duration": 7, "velocity": 75}, {"time": 1815, "pitch": 45, "duration": 10, "velocity": 67}, {"time": 1821, "pitch": 57, "duration": 3, "velocity": 80}, {"time": 1821, "pitch": 62, "duration": 5, "velocity": 85}, {"time": 1833, "pitch": 55, "duration": 6, "velocity": 78}, {"time": 1833, "pitch": 62, "duration": 6, "velocity": 84}, {"time": 1833, "pitch": 43, "duration": 20, "velocity": 85}, {"time": 1838, "pitch": 50, "duration": 13, "velocity": 73}, {"time": 1844, "pitch": 55, "duration": 3, "velocity": 79}, {"time": 1844, "pitch": 58, "duration": 6, "velocity": 90}, {"time": 1856, "pitch": 64, "duration": 8, "velocity": 86}, {"time": 1856, "pitch": 55, "duration": 3, "velocity": 80}, {"time": 1857, "pitch": 48, "duration": 16, "velocity": 86}, {"time": 1863, "pitch": 55, "duration": 7, "velocity": 85}, {"time": 1869, "pitch": 60, "duration": 3, "velocity": 86}, {"time": 1875, "pitch": 58, "duration": 2, "velocity": 91}, {"time": 1881, "pitch": 41, "duration": 22, "velocity": 86}, {"time": 1881, "pitch": 53, "duration": 7, "velocity": 78}, {"time": 1881, "pitch": 57, "duration": 8, "velocity": 77}, {"time": 1887, "pitch": 48, "duration": 15, "velocity": 83}, {"time": 1893, "pitch": 53, "duration": 4, "velocity": 91}, {"time": 1899, "pitch": 57, "duration": 3, "velocity": 81}, {"time": 1902, "pitch": 58, "duration": 2, "velocity": 91}, {"time": 1905, "pitch": 60, "duration": 5, "velocity": 87}, {"time": 1905, "pitch": 41, "duration": 15, "velocity": 88}, {"time": 1911, "pitch": 48, "duration": 8, "velocity": 91}, {"time": 1917, "pitch": 63, "duration": 6, "velocity": 84}, {"time": 1917, "pitch": 53, "duration": 6, "velocity": 86}, {"time": 1917, "pitch": 57, "duration": 5, "velocity": 84}, {"time": 1923, "pitch": 41, "duration": 4, "velocity": 86}, {"time": 1929, "pitch": 58, "duration": 7, "velocity": 78}, {"time": 1929, "pitch": 62, "duration": 7, "velocity": 86}, {"time": 1929, "pitch": 46, "duration": 17, "velocity": 92}, {"time": 1941, "pitch": 58, "duration": 6, "velocity": 68}, {"time": 1941, "pitch": 65, "duration": 10, "velocity": 89}, {"time": 1947, "pitch": 53, "duration": 6, "velocity": 92}, {"time": 1953, "pitch": 46, "duration": 15, "velocity": 78}, {"time": 1953, "pitch": 58, "duration": 6, "velocity": 76}, {"time": 1953, "pitch": 62, "duration": 6, "velocity": 85}, {"time": 1965, "pitch": 58, "duration": 3, "velocity": 91}, {"time": 1965, "pitch": 62, "duration": 5, "velocity": 86}, {"time": 1965, "pitch": 53, "duration": 3, "velocity": 77}, {"time": 1976, "pitch": 57, "duration": 3, "velocity": 70}, {"time": 1977, "pitch": 60, "duration": 5, "velocity": 78}, {"time": 1978, "pitch": 45, "duration": 10, "velocity": 86}, {"time": 1978, "pitch": 64, "duration": 6, "velocity": 80}, {"time": 1983, "pitch": 52, "duration": 4, "velocity": 80}, {"time": 1983, "pitch": 57, "duration": 5, "velocity": 86}, {"time": 1990, "pitch": 61, "duration": 5, "velocity": 85}, {"time": 1990, "pitch": 55, "duration": 5, "velocity": 88}, {"time": 1990, "pitch": 49, "duration": 5, "velocity": 89}, {"time": 2000, "pitch": 57, "duration": 4, "velocity": 67}, {"time": 2001, "pitch": 62, "duration": 12, "velocity": 79}, {"time": 2002, "pitch": 38, "duration": 40, "velocity": 88}, {"time": 2002, "pitch": 65, "duration": 11, "velocity": 82}, {"time": 2008, "pitch": 45, "duration": 34, "velocity": 72}, {"time": 2013, "pitch": 57, "duration": 6, "velocity": 87}, {"time": 2020, "pitch": 69, "duration": 2, "velocity": 85}, {"time": 2025, "pitch": 69, "duration": 22, "velocity": 59}, {"time": 2026, "pitch": 74, "duration": 21, "velocity": 74}, {"time": 2027, "pitch": 77, "duration": 20, "velocity": 77}, {"time": 2060, "pitch": 55, "duration": 10, "velocity": 59}, {"time": 2061, "pitch": 58, "duration": 14, "velocity": 80}, {"time": 2061, "pitch": 43, "duration": 21, "velocity": 83}, {"time": 2062, "pitch": 62, "duration": 13, "velocity": 78}, {"time": 2067, "pitch": 50, "duration": 15, "velocity": 73}, {"time": 2074, "pitch": 55, "duration": 7, "velocity": 89}, {"time": 2079, "pitch": 58, "duration": 3, "velocity": 90}, {"time": 2084, "pitch": 55, "duration": 20, "velocity": 78}, {"time": 2085, "pitch": 58, "duration": 18, "velocity": 87}, {"time": 2085, "pitch": 43, "duration": 22, "velocity": 79}, {"time": 2086, "pitch": 61, "duration": 17, "velocity": 74}, {"time": 2108, "pitch": 53, "duration": 14, "velocity": 65}, {"time": 2109, "pitch": 57, "duration": 11, "velocity": 67}, {"time": 2109, "pitch": 41, "duration": 47, "velocity": 84}, {"time": 2116, "pitch": 48, "duration": 40, "velocity": 75}, {"time": 2121, "pitch": 55, "duration": 7, "velocity": 90}, {"time": 2127, "pitch": 57, "duration": 6, "velocity": 87}, {"time": 2133, "pitch": 60, "duration": 3, "velocity": 78}, {"time": 2139, "pitch": 53, "duration": 7, "velocity": 72}, {"time": 2144, "pitch": 65, "duration": 12, "velocity": 87}, {"time": 2151, "pitch": 53, "duration": 5, "velocity": 82}, {"time": 2156, "pitch": 55, "duration": 10, "velocity": 59}, {"time": 2156, "pitch": 58, "duration": 15, "velocity": 80}, {"time": 2157, "pitch": 43, "duration": 21, "velocity": 83}, {"time": 2157, "pitch": 62, "duration": 14, "velocity": 78}, {"time": 2163, "pitch": 50, "duration": 15, "velocity": 73}, {"time": 2169, "pitch": 55, "duration": 8, "velocity": 89}, {"time": 2175, "pitch": 58, "duration": 3, "velocity": 90}, {"time": 2179, "pitch": 55, "duration": 21, "velocity": 78}, {"time": 2180, "pitch": 58, "duration": 19, "velocity": 87}, {"time": 2181, "pitch": 43, "duration": 21, "velocity": 79}, {"time": 2182, "pitch": 61, "duration": 17, "velocity": 74}, {"time": 2205, "pitch": 41, "duration": 36, "velocity": 91}, {"time": 2211, "pitch": 48, "duration": 31, "velocity": 70}, {"time": 2217, "pitch": 57, "duration": 12, "velocity": 77}, {"time": 2223, "pitch": 53, "duration": 7, "velocity": 76}, {"time": 2229, "pitch": 60, "duration": 8, "velocity": 85}, {"time": 2235, "pitch": 57, "duration": 2, "velocity": 58}, {"time": 2241, "pitch": 53, "duration": 2, "velocity": 85}, {"time": 2241, "pitch": 57, "duration": 7, "velocity": 85}, {"time": 2241, "pitch": 60, "duration": 7, "velocity": 86}, {"time": 2241, "pitch": 65, "duration": 9, "velocity": 81}, {"time": 2247, "pitch": 53, "duration": 1, "velocity": 87}, {"time": 2253, "pitch": 65, "duration": 11, "velocity": 82}, {"time": 2253, "pitch": 46, "duration": 20, "velocity": 80}, {"time": 2253, "pitch": 58, "duration": 8, "velocity": 71}, {"time": 2259, "pitch": 53, "duration": 15, "velocity": 69}, {"time": 2265, "pitch": 58, "duration": 10, "velocity": 91}, {"time": 2270, "pitch": 62, "duration": 15, "velocity": 83}, {"time": 2276, "pitch": 48, "duration": 15, "velocity": 89}, {"time": 2282, "pitch": 55, "duration": 7, "velocity": 85}, {"time": 2288, "pitch": 60, "duration": 6, "velocity": 87}, {"time": 2294, "pitch": 64, "duration": 17, "velocity": 87}, {"time": 2299, "pitch": 45, "duration": 15, "velocity": 85}, {"time": 2305, "pitch": 52, "duration": 8, "velocity": 77}, {"time": 2310, "pitch": 55, "duration": 3, "velocity": 76}, {"time": 2311, "pitch": 60, "duration": 13, "velocity": 82}, {"time": 2317, "pitch": 55, "duration": 2, "velocity": 61}, {"time": 2323, "pitch": 65, "duration": 13, "velocity": 85}, {"time": 2323, "pitch": 38, "duration": 14, "velocity": 85}, {"time": 2329, "pitch": 45, "duration": 8, "velocity": 68}, {"time": 2335, "pitch": 62, "duration": 7, "velocity": 80}, {"time": 2336, "pitch": 57, "duration": 5, "velocity": 75}, {"time": 2350, "pitch": 43, "duration": 41, "velocity": 88}, {"time": 2355, "pitch": 50, "duration": 34, "velocity": 84}, {"time": 2361, "pitch": 58, "duration": 7, "velocity": 76}, {"time": 2361, "pitch": 62, "duration": 7, "velocity": 81}, {"time": 2367, "pitch": 55, "duration": 25, "velocity": 71}, {"time": 2372, "pitch": 58, "duration": 16, "velocity": 72}, {"time": 2373, "pitch": 62, "duration": 19, "velocity": 67}, {"time": 2374, "pitch": 67, "duration": 16, "velocity": 75}, {"time": 2397, "pitch": 53, "duration": 2, "velocity": 70}, {"time": 2397, "pitch": 46, "duration": 39, "velocity": 88}, {"time": 2397, "pitch": 58, "duration": 13, "velocity": 73}, {"time": 2398, "pitch": 61, "duration": 5, "velocity": 79}, {"time": 2404, "pitch": 53, "duration": 6, "velocity": 79}, {"time": 2410, "pitch": 65, "duration": 2, "velocity": 87}, {"time": 2416, "pitch": 70, "duration": 3, "velocity": 66}, {"time": 2416, "pitch": 65, "duration": 3, "velocity": 69}, {"time": 2421, "pitch": 65, "duration": 2, "velocity": 60}, {"time": 2421, "pitch": 70, "duration": 2, "velocity": 72}, {"time": 2422, "pitch": 73, "duration": 2, "velocity": 71}, {"time": 2423, "pitch": 77, "duration": 14, "velocity": 80}, {"time": 2445, "pitch": 41, "duration": 85, "velocity": 89}, {"time": 2451, "pitch": 48, "duration": 78, "velocity": 76}, {"time": 2456, "pitch": 55, "duration": 7, "velocity": 79}, {"time": 2462, "pitch": 57, "duration": 6, "velocity": 87}, {"time": 2467, "pitch": 53, "duration": 2, "velocity": 75}, {"time": 2468, "pitch": 60, "duration": 2, "velocity": 85}, {"time": 2474, "pitch": 60, "duration": 4, "velocity": 86}, {"time": 2474, "pitch": 65, "duration": 5, "velocity": 85}, {"time": 2480, "pitch": 60, "duration": 1, "velocity": 68}, {"time": 2480, "pitch": 65, "duration": 2, "velocity": 82}, {"time": 2480, "pitch": 69, "duration": 2, "velocity": 85}, {"time": 2485, "pitch": 60, "duration": 1, "velocity": 60}, {"time": 2486, "pitch": 65, "duration": 1, "velocity": 81}, {"time": 2487, "pitch": 72, "duration": 1, "velocity": 86}, {"time": 2493, "pitch": 72, "duration": 1, "velocity": 68}, {"time": 2494, "pitch": 77, "duration": 2, "velocity": 82}, {"time": 2500, "pitch": 72, "duration": 2, "velocity": 76}, {"time": 2501, "pitch": 77, "duration": 1, "velocity": 72}, {"time": 2502, "pitch": 81, "duration": 1, "velocity": 80}, {"time": 2508, "pitch": 72, "duration": 1, "velocity": 60}, {"time": 2509, "pitch": 77, "duration": 1, "velocity": 79}, {"time": 2510, "pitch": 84, "duration": 1, "velocity": 86}, {"time": 2519, "pitch": 81, "duration": 2, "velocity": 43}, {"time": 2520, "pitch": 84, "duration": 12, "velocity": 66}, {"time": 2521, "pitch": 89, "duration": 11, "velocity": 75}], "annotations": [{"time": 33, "annotation": {"number": 64, "value": 127}, "group": "control_change"}, {"time": 67, "annotation": {"number": 64, "value": 0}, "group": "control_change"}, {"time": 70, "annotation": {"number": 64, "value": 127}, "group": "control_change"}, {"time": 91, "annotation": {"number": 64, "value": 0}, "group": "control_change"}, {"time": 105, "annotation": {"number": 64, "value": 127}, "group": "control_change"}, {"time": 105, "annotation": {"number": 64, "value": 0}, "group": "control_change"}, {"time": 116, "annotation": {"number": 64, "value": 0}, "group": "control_change"}, {"time": 119, "annotation": {"number": 64, "value": 127}, "group": "control_change"}, {"time": 153, "annotation": {"number": 64, "value": 0}, "group": "control_change"}, {"time": 155, "annotation": {"number": 64, "value": 127}, "group": "control_change"}, {"time": 164, "annotation": {"number": 64, "value": 0}, "group": "control_change"}, {"time": 166, "annotation": {"number": 64, "value": 127}, "group": "control_change"}, {"time": 200, "annotation": {"number": 64, "value": 0}, "group": "control_change"}, {"time": 201, "annotation": {"number": 64, "value": 127}, "group": "control_change"}, {"time": 212, "annotation": {"number": 64, "value": 0}, "group": "control_change"}, {"time": 215, "annotation": {"number": 64, "value": 127}, "group": "control_change"}, {"time": 259, "annotation": {"number": 64, "value": 0}, "group": "control_change"}, {"time": 265, "annotation": {"number": 64, "value": 127}, "group": "control_change"}, {"time": 283, "annotation": {"number": 64, "value": 0}, "group": "control_change"}, {"time": 286, "annotation": {"number": 64, "value": 127}, "group": "control_change"}, {"time": 307, "annotation": {"number": 64, "value": 0}, "group": "control_change"}, {"time": 310, "annotation": {"number": 64, "value": 127}, "group": "control_change"}, {"time": 332, "annotation": {"number": 64, "value": 0}, "group": "control_change"}, {"time": 335, "annotation": {"number": 64, "value": 127}, "group": "control_change"}, {"time": 356, "annotation": {"number": 64, "value": 0}, "group": "control_change"}, {"time": 358, "annotation": {"number": 64, "value": 127}, "group": "control_change"}, {"time": 380, "annotation": {"number": 64, "value": 0}, "group": "control_change"}, {"time": 382, "annotation": {"number": 64, "value": 127}, "group": "control_change"}, {"time": 403, "annotation": {"number": 64, "value": 0}, "group": "control_change"}, {"time": 405, "annotation": {"number": 64, "value": 127}, "group": "control_change"}, {"time": 426, "annotation": {"number": 64, "value": 0}, "group": "control_change"}, {"time": 428, "annotation": {"number": 64, "value": 127}, "group": "control_change"}, {"time": 438, "annotation": {"number": 64, "value": 0}, "group": "control_change"}, {"time": 440, "annotation": {"number": 64, "value": 127}, "group": "control_change"}, {"time": 451, "annotation": {"number": 64, "value": 0}, "group": "control_change"}, {"time": 457, "annotation": {"number": 64, "value": 127}, "group": "control_change"}, {"time": 475, "annotation": {"number": 64, "value": 0}, "group": "control_change"}, {"time": 477, "annotation": {"number": 64, "value": 127}, "group": "control_change"}, {"time": 500, "annotation": {"number": 64, "value": 0}, "group": "control_change"}, {"time": 501, "annotation": {"number": 64, "value": 127}, "group": "control_change"}, {"time": 526, "annotation": {"number": 64, "value": 127}, "group": "control_change"}, {"time": 547, "annotation": {"number": 64, "value": 0}, "group": "control_change"}, {"time": 549, "annotation": {"number": 64, "value": 127}, "group": "control_change"}, {"time": 571, "annotation": {"number": 64, "value": 127}, "group": "control_change"}, {"time": 580, "annotation": {"number": 64, "value": 0}, "group": "control_change"}, {"time": 585, "annotation": {"number": 64, "value": 127}, "group": "control_change"}, {"time": 596, "annotation": {"number": 64, "value": 0}, "group": "control_change"}, {"time": 598, "annotation": {"number": 64, "value": 127}, "group": "control_change"}, {"time": 641, "annotation": {"number": 64, "value": 0}, "group": "control_change"}, {"time": 645, "annotation": {"number": 64, "value": 127}, "group": "control_change"}, {"time": 693, "annotation": {"number": 64, "value": 0}, "group": "control_change"}, {"time": 698, "annotation": {"number": 64, "value": 127}, "group": "control_change"}, {"time": 715, "annotation": {"number": 64, "value": 0}, "group": "control_change"}, {"time": 717, "annotation": {"number": 64, "value": 127}, "group": "control_change"}, {"time": 739, "annotation": {"number": 64, "value": 0}, "group": "control_change"}, {"time": 742, "annotation": {"number": 64, "value": 127}, "group": "control_change"}, {"time": 763, "annotation": {"number": 64, "value": 0}, "group": "control_change"}, {"time": 766, "annotation": {"number": 64, "value": 127}, "group": "control_change"}, {"time": 787, "annotation": {"number": 64, "value": 0}, "group": "control_change"}, {"time": 789, "annotation": {"number": 64, "value": 127}, "group": "control_change"}, {"time": 811, "annotation": {"number": 64, "value": 0}, "group": "control_change"}, {"time": 813, "annotation": {"number": 64, "value": 127}, "group": "control_change"}, {"time": 835, "annotation": {"number": 64, "value": 0}, "group": "control_change"}, {"time": 837, "annotation": {"number": 64, "value": 127}, "group": "control_change"}, {"time": 885, "annotation": {"number": 64, "value": 127}, "group": "control_change"}, {"time": 896, "annotation": {"number": 64, "value": 0}, "group": "control_change"}, {"time": 898, "annotation": {"number": 64, "value": 127}, "group": "control_change"}, {"time": 907, "annotation": {"number": 64, "value": 0}, "group": "control_change"}, {"time": 909, "annotation": {"number": 64, "value": 127}, "group": "control_change"}, {"time": 975, "annotation": {"number": 64, "value": 127}, "group": "control_change"}, {"time": 975, "annotation": {"number": 64, "value": 0}, "group": "control_change"}, {"time": 991, "annotation": {"number": 64, "value": 0}, "group": "control_change"}, {"time": 993, "annotation": {"number": 64, "value": 127}, "group": "control_change"}, {"time": 1016, "annotation": {"number": 64, "value": 0}, "group": "control_change"}, {"time": 1019, "annotation": {"number": 64, "value": 127}, "group": "control_change"}, {"time": 1062, "annotation": {"number": 64, "value": 0}, "group": "control_change"}, {"time": 1067, "annotation": {"number": 64, "value": 127}, "group": "control_change"}, {"time": 1067, "annotation": {"number": 64, "value": 0}, "group": "control_change"}, {"time": 1088, "annotation": {"number": 64, "value": 0}, "group": "control_change"}, {"time": 1090, "annotation": {"number": 64, "value": 127}, "group": "control_change"}, {"time": 1111, "annotation": {"number": 64, "value": 0}, "group": "control_change"}, {"time": 1113, "annotation": {"number": 64, "value": 127}, "group": "control_change"}, {"time": 1135, "annotation": {"number": 64, "value": 0}, "group": "control_change"}, {"time": 1137, "annotation": {"number": 64, "value": 127}, "group": "control_change"}, {"time": 1159, "annotation": {"number": 64, "value": 0}, "group": "control_change"}, {"time": 1161, "annotation": {"number": 64, "value": 127}, "group": "control_change"}, {"time": 1183, "annotation": {"number": 64, "value": 0}, "group": "control_change"}, {"time": 1186, "annotation": {"number": 64, "value": 127}, "group": "control_change"}, {"time": 1209, "annotation": {"number": 64, "value": 0}, "group": "control_change"}, {"time": 1211, "annotation": {"number": 64, "value": 127}, "group": "control_change"}, {"time": 1231, "annotation": {"number": 64, "value": 0}, "group": "control_change"}, {"time": 1233, "annotation": {"number": 64, "value": 127}, "group": "control_change"}, {"time": 1244, "annotation": {"number": 64, "value": 0}, "group": "control_change"}, {"time": 1245, "annotation": {"number": 64, "value": 127}, "group": "control_change"}, {"time": 1256, "annotation": {"number": 64, "value": 0}, "group": "control_change"}, {"time": 1262, "annotation": {"number": 64, "value": 127}, "group": "control_change"}, {"time": 1279, "annotation": {"number": 64, "value": 0}, "group": "control_change"}, {"time": 1281, "annotation": {"number": 64, "value": 127}, "group": "control_change"}, {"time": 1304, "annotation": {"number": 64, "value": 0}, "group": "control_change"}, {"time": 1306, "annotation": {"number": 64, "value": 127}, "group": "control_change"}, {"time": 1326, "annotation": {"number": 64, "value": 0}, "group": "control_change"}, {"time": 1328, "annotation": {"number": 64, "value": 127}, "group": "control_change"}, {"time": 1351, "annotation": {"number": 64, "value": 0}, "group": "control_change"}, {"time": 1353, "annotation": {"number": 64, "value": 127}, "group": "control_change"}, {"time": 1376, "annotation": {"number": 64, "value": 0}, "group": "control_change"}, {"time": 1377, "annotation": {"number": 64, "value": 127}, "group": "control_change"}, {"time": 1398, "annotation": {"number": 64, "value": 0}, "group": "control_change"}, {"time": 1401, "annotation": {"number": 64, "value": 127}, "group": "control_change"}, {"time": 1424, "annotation": {"number": 64, "value": 0}, "group": "control_change"}, {"time": 1426, "annotation": {"number": 64, "value": 127}, "group": "control_change"}, {"time": 1447, "annotation": {"number": 64, "value": 0}, "group": "control_change"}, {"time": 1450, "annotation": {"number": 64, "value": 127}, "group": "control_change"}, {"time": 1471, "annotation": {"number": 64, "value": 0}, "group": "control_change"}, {"time": 1473, "annotation": {"number": 64, "value": 127}, "group": "control_change"}, {"time": 1495, "annotation": {"number": 64, "value": 0}, "group": "control_change"}, {"time": 1496, "annotation": {"number": 64, "value": 127}, "group": "control_change"}, {"time": 1543, "annotation": {"number": 64, "value": 0}, "group": "control_change"}, {"time": 1545, "annotation": {"number": 64, "value": 127}, "group": "control_change"}, {"time": 1568, "annotation": {"number": 64, "value": 0}, "group": "control_change"}, {"time": 1569, "annotation": {"number": 64, "value": 127}, "group": "control_change"}, {"time": 1591, "annotation": {"number": 64, "value": 0}, "group": "control_change"}, {"time": 1593, "annotation": {"number": 64, "value": 127}, "group": "control_change"}, {"time": 1615, "annotation": {"number": 64, "value": 0}, "group": "control_change"}, {"time": 1616, "annotation": {"number": 64, "value": 127}, "group": "control_change"}, {"time": 1639, "annotation": {"number": 64, "value": 0}, "group": "control_change"}, {"time": 1641, "annotation": {"number": 64, "value": 127}, "group": "control_change"}, {"time": 1711, "annotation": {"number": 64, "value": 0}, "group": "control_change"}, {"time": 1713, "annotation": {"number": 64, "value": 127}, "group": "control_change"}, {"time": 1735, "annotation": {"number": 64, "value": 0}, "group": "control_change"}, {"time": 1738, "annotation": {"number": 64, "value": 127}, "group": "control_change"}, {"time": 1785, "annotation": {"number": 64, "value": 0}, "group": "control_change"}, {"time": 1790, "annotation": {"number": 64, "value": 127}, "group": "control_change"}, {"time": 1808, "annotation": {"number": 64, "value": 0}, "group": "control_change"}, {"time": 1810, "annotation": {"number": 64, "value": 127}, "group": "control_change"}, {"time": 1832, "annotation": {"number": 64, "value": 0}, "group": "control_change"}, {"time": 1834, "annotation": {"number": 64, "value": 127}, "group": "control_change"}, {"time": 1856, "annotation": {"number": 64, "value": 0}, "group": "control_change"}, {"time": 1858, "annotation": {"number": 64, "value": 127}, "group": "control_change"}, {"time": 1880, "annotation": {"number": 64, "value": 0}, "group": "control_change"}, {"time": 1882, "annotation": {"number": 64, "value": 127}, "group": "control_change"}, {"time": 1904, "annotation": {"number": 64, "value": 0}, "group": "control_change"}, {"time": 1906, "annotation": {"number": 64, "value": 127}, "group": "control_change"}, {"time": 1928, "annotation": {"number": 64, "value": 0}, "group": "control_change"}, {"time": 1930, "annotation": {"number": 64, "value": 127}, "group": "control_change"}, {"time": 1978, "annotation": {"number": 64, "value": 127}, "group": "control_change"}, {"time": 1989, "annotation": {"number": 64, "value": 0}, "group": "control_change"}, {"time": 1990, "annotation": {"number": 64, "value": 127}, "group": "control_change"}, {"time": 2000, "annotation": {"number": 64, "value": 0}, "group": "control_change"}, {"time": 2001, "annotation": {"number": 64, "value": 127}, "group": "control_change"}, {"time": 2067, "annotation": {"number": 64, "value": 127}, "group": "control_change"}, {"time": 2068, "annotation": {"number": 64, "value": 0}, "group": "control_change"}, {"time": 2068, "annotation": {"number": 64, "value": 127}, "group": "control_change"}, {"time": 2084, "annotation": {"number": 64, "value": 0}, "group": "control_change"}, {"time": 2086, "annotation": {"number": 64, "value": 127}, "group": "control_change"}, {"time": 2109, "annotation": {"number": 64, "value": 0}, "group": "control_change"}, {"time": 2112, "annotation": {"number": 64, "value": 127}, "group": "control_change"}, {"time": 2154, "annotation": {"number": 64, "value": 0}, "group": "control_change"}, {"time": 2163, "annotation": {"number": 64, "value": 127}, "group": "control_change"}, {"time": 2163, "annotation": {"number": 64, "value": 0}, "group": "control_change"}, {"time": 2180, "annotation": {"number": 64, "value": 0}, "group": "control_change"}, {"time": 2182, "annotation": {"number": 64, "value": 127}, "group": "control_change"}, {"time": 2214, "annotation": {"number": 64, "value": 127}, "group": "control_change"}, {"time": 2255, "annotation": {"number": 64, "value": 127}, "group": "control_change"}, {"time": 2255, "annotation": {"number": 64, "value": 0}, "group": "control_change"}, {"time": 2277, "annotation": {"number": 64, "value": 0}, "group": "control_change"}, {"time": 2279, "annotation": {"number": 64, "value": 127}, "group": "control_change"}, {"time": 2298, "annotation": {"number": 64, "value": 0}, "group": "control_change"}, {"time": 2301, "annotation": {"number": 64, "value": 127}, "group": "control_change"}, {"time": 2322, "annotation": {"number": 64, "value": 0}, "group": "control_change"}, {"time": 2324, "annotation": {"number": 64, "value": 127}, "group": "control_change"}, {"time": 2351, "annotation": {"number": 64, "value": 127}, "group": "control_change"}, {"time": 2397, "annotation": {"number": 64, "value": 0}, "group": "control_change"}, {"time": 2399, "annotation": {"number": 64, "value": 127}, "group": "control_change"}, {"time": 2446, "annotation": {"number": 64, "value": 0}, "group": "control_change"}, {"time": 2449, "annotation": {"number": 64, "value": 127}, "group": "control_change"}, {"time": 2568, "annotation": {"number": 64, "value": 0}, "group": "control_change"}]}]}