{"metadata": {"schema_version": "0.2", "title": "None", "source_filename": "702.mid", "source_format": "midi"}, "resolution": 12, "tempos": [{"time": 0, "qpm": 97.00010993345792}], "time_signatures": [{"time": 0, "numerator": 1, "denominator": 4}], "tracks": [{"program": 4, "is_drum": false, "name": "MELODY", "notes": [{"time": 524, "pitch": 69, "duration": 3, "velocity": 87}, {"time": 530, "pitch": 69, "duration": 4, "velocity": 87}, {"time": 536, "pitch": 72, "duration": 4, "velocity": 90}, {"time": 542, "pitch": 72, "duration": 4, "velocity": 90}, {"time": 548, "pitch": 69, "duration": 4, "velocity": 93}, {"time": 554, "pitch": 72, "duration": 12, "velocity": 93}, {"time": 572, "pitch": 67, "duration": 3, "velocity": 87}, {"time": 578, "pitch": 69, "duration": 4, "velocity": 87}, {"time": 584, "pitch": 72, "duration": 4, "velocity": 90}, {"time": 590, "pitch": 72, "duration": 4, "velocity": 90}, {"time": 596, "pitch": 69, "duration": 4, "velocity": 93}, {"time": 602, "pitch": 72, "duration": 12, "velocity": 93}, {"time": 620, "pitch": 69, "duration": 4, "velocity": 88}, {"time": 626, "pitch": 69, "duration": 4, "velocity": 90}, {"time": 632, "pitch": 72, "duration": 4, "velocity": 87}, {"time": 638, "pitch": 72, "duration": 4, "velocity": 88}, {"time": 644, "pitch": 69, "duration": 4, "velocity": 88}, {"time": 650, "pitch": 72, "duration": 4, "velocity": 92}, {"time": 656, "pitch": 67, "duration": 2, "velocity": 87}, {"time": 659, "pitch": 69, "duration": 2, "velocity": 90}, {"time": 662, "pitch": 72, "duration": 3, "velocity": 90}, {"time": 668, "pitch": 69, "duration": 3, "velocity": 90}, {"time": 674, "pitch": 72, "duration": 3, "velocity": 90}, {"time": 680, "pitch": 74, "duration": 4, "velocity": 93}, {"time": 686, "pitch": 74, "duration": 9, "velocity": 90}, {"time": 698, "pitch": 72, "duration": 11, "velocity": 93}, {"time": 716, "pitch": 69, "duration": 3, "velocity": 87}, {"time": 722, "pitch": 69, "duration": 4, "velocity": 87}, {"time": 728, "pitch": 72, "duration": 4, "velocity": 90}, {"time": 734, "pitch": 72, "duration": 4, "velocity": 90}, {"time": 740, "pitch": 69, "duration": 4, "velocity": 93}, {"time": 746, "pitch": 72, "duration": 12, "velocity": 93}, {"time": 764, "pitch": 67, "duration": 3, "velocity": 87}, {"time": 770, "pitch": 69, "duration": 4, "velocity": 87}, {"time": 776, "pitch": 72, "duration": 4, "velocity": 90}, {"time": 782, "pitch": 72, "duration": 4, "velocity": 90}, {"time": 788, "pitch": 69, "duration": 4, "velocity": 93}, {"time": 794, "pitch": 72, "duration": 12, "velocity": 93}, {"time": 812, "pitch": 69, "duration": 4, "velocity": 88}, {"time": 818, "pitch": 69, "duration": 4, "velocity": 90}, {"time": 824, "pitch": 72, "duration": 4, "velocity": 87}, {"time": 830, "pitch": 72, "duration": 4, "velocity": 88}, {"time": 836, "pitch": 69, "duration": 4, "velocity": 88}, {"time": 842, "pitch": 72, "duration": 4, "velocity": 92}, {"time": 848, "pitch": 67, "duration": 2, "velocity": 87}, {"time": 851, "pitch": 69, "duration": 2, "velocity": 90}, {"time": 854, "pitch": 72, "duration": 3, "velocity": 90}, {"time": 860, "pitch": 69, "duration": 3, "velocity": 90}, {"time": 866, "pitch": 72, "duration": 3, "velocity": 90}, {"time": 872, "pitch": 74, "duration": 4, "velocity": 93}, {"time": 878, "pitch": 74, "duration": 9, "velocity": 90}, {"time": 890, "pitch": 72, "duration": 11, "velocity": 93}, {"time": 908, "pitch": 72, "duration": 3, "velocity": 90}, {"time": 914, "pitch": 72, "duration": 9, "velocity": 95}, {"time": 926, "pitch": 72, "duration": 3, "velocity": 86}, {"time": 932, "pitch": 72, "duration": 8, "velocity": 91}, {"time": 944, "pitch": 72, "duration": 3, "velocity": 92}, {"time": 950, "pitch": 71, "duration": 4, "velocity": 93}, {"time": 956, "pitch": 69, "duration": 3, "velocity": 91}, {"time": 962, "pitch": 71, "duration": 3, "velocity": 86}, {"time": 968, "pitch": 72, "duration": 12, "velocity": 89}, {"time": 986, "pitch": 67, "duration": 5, "velocity": 88}, {"time": 992, "pitch": 72, "duration": 8, "velocity": 88}, {"time": 1004, "pitch": 72, "duration": 2, "velocity": 88}, {"time": 1010, "pitch": 72, "duration": 10, "velocity": 90}, {"time": 1022, "pitch": 71, "duration": 4, "velocity": 87}, {"time": 1028, "pitch": 72, "duration": 7, "velocity": 89}, {"time": 1040, "pitch": 72, "duration": 4, "velocity": 87}, {"time": 1046, "pitch": 71, "duration": 4, "velocity": 88}, {"time": 1052, "pitch": 69, "duration": 4, "velocity": 86}, {"time": 1058, "pitch": 67, "duration": 3, "velocity": 84}, {"time": 1064, "pitch": 67, "duration": 12, "velocity": 88}, {"time": 1076, "pitch": 64, "duration": 4, "velocity": 88}, {"time": 1082, "pitch": 65, "duration": 5, "velocity": 86}, {"time": 1088, "pitch": 67, "duration": 6, "velocity": 85}, {"time": 1100, "pitch": 67, "duration": 2, "velocity": 89}, {"time": 1106, "pitch": 72, "duration": 9, "velocity": 89}, {"time": 1118, "pitch": 72, "duration": 5, "velocity": 88}, {"time": 1124, "pitch": 72, "duration": 3, "velocity": 82}, {"time": 1130, "pitch": 67, "duration": 2, "velocity": 95}, {"time": 1136, "pitch": 72, "duration": 4, "velocity": 81}, {"time": 1142, "pitch": 71, "duration": 4, "velocity": 88}, {"time": 1148, "pitch": 69, "duration": 3, "velocity": 84}, {"time": 1154, "pitch": 71, "duration": 3, "velocity": 88}, {"time": 1160, "pitch": 72, "duration": 9, "velocity": 90}, {"time": 1172, "pitch": 74, "duration": 4, "velocity": 93}, {"time": 1178, "pitch": 76, "duration": 9, "velocity": 93}, {"time": 1190, "pitch": 77, "duration": 4, "velocity": 88}, {"time": 1196, "pitch": 77, "duration": 3, "velocity": 87}, {"time": 1202, "pitch": 77, "duration": 5, "velocity": 92}, {"time": 1208, "pitch": 76, "duration": 5, "velocity": 93}, {"time": 1214, "pitch": 76, "duration": 7, "velocity": 102}, {"time": 1226, "pitch": 74, "duration": 5, "velocity": 92}, {"time": 1232, "pitch": 79, "duration": 5, "velocity": 87}, {"time": 1238, "pitch": 77, "duration": 4, "velocity": 87}, {"time": 1244, "pitch": 77, "duration": 4, "velocity": 86}, {"time": 1250, "pitch": 77, "duration": 4, "velocity": 89}, {"time": 1256, "pitch": 76, "duration": 4, "velocity": 92}, {"time": 1262, "pitch": 74, "duration": 9, "velocity": 93}, {"time": 1274, "pitch": 72, "duration": 10, "velocity": 93}, {"time": 1292, "pitch": 67, "duration": 4, "velocity": 90}, {"time": 1298, "pitch": 72, "duration": 4, "velocity": 93}, {"time": 1304, "pitch": 74, "duration": 4, "velocity": 97}, {"time": 1310, "pitch": 76, "duration": 5, "velocity": 90}, {"time": 1316, "pitch": 74, "duration": 4, "velocity": 91}, {"time": 1322, "pitch": 76, "duration": 3, "velocity": 93}, {"time": 1328, "pitch": 77, "duration": 4, "velocity": 90}, {"time": 1334, "pitch": 79, "duration": 4, "velocity": 93}, {"time": 1340, "pitch": 79, "duration": 4, "velocity": 86}, {"time": 1346, "pitch": 79, "duration": 4, "velocity": 93}, {"time": 1352, "pitch": 77, "duration": 4, "velocity": 88}, {"time": 1358, "pitch": 76, "duration": 11, "velocity": 92}, {"time": 1370, "pitch": 74, "duration": 10, "velocity": 93}, {"time": 1388, "pitch": 67, "duration": 4, "velocity": 87}, {"time": 1394, "pitch": 72, "duration": 5, "velocity": 90}, {"time": 1400, "pitch": 74, "duration": 4, "velocity": 92}, {"time": 1406, "pitch": 76, "duration": 5, "velocity": 92}, {"time": 1412, "pitch": 74, "duration": 5, "velocity": 90}, {"time": 1418, "pitch": 76, "duration": 3, "velocity": 91}, {"time": 1424, "pitch": 77, "duration": 4, "velocity": 88}, {"time": 1430, "pitch": 79, "duration": 3, "velocity": 89}, {"time": 1436, "pitch": 79, "duration": 3, "velocity": 88}, {"time": 1442, "pitch": 79, "duration": 3, "velocity": 88}, {"time": 1448, "pitch": 81, "duration": 4, "velocity": 90}, {"time": 1454, "pitch": 79, "duration": 9, "velocity": 90}, {"time": 1466, "pitch": 76, "duration": 11, "velocity": 90}, {"time": 1478, "pitch": 72, "duration": 8, "velocity": 90}, {"time": 1490, "pitch": 72, "duration": 5, "velocity": 91}, {"time": 1496, "pitch": 69, "duration": 4, "velocity": 88}, {"time": 1502, "pitch": 74, "duration": 5, "velocity": 90}, {"time": 1508, "pitch": 74, "duration": 4, "velocity": 88}, {"time": 1514, "pitch": 76, "duration": 4, "velocity": 88}, {"time": 1520, "pitch": 76, "duration": 5, "velocity": 88}, {"time": 1526, "pitch": 72, "duration": 9, "velocity": 90}, {"time": 1538, "pitch": 79, "duration": 4, "velocity": 87}, {"time": 1538, "pitch": 79, "duration": 4, "velocity": 90}, {"time": 1544, "pitch": 72, "duration": 3, "velocity": 90}, {"time": 1550, "pitch": 67, "duration": 4, "velocity": 89}, {"time": 1556, "pitch": 72, "duration": 4, "velocity": 90}, {"time": 1562, "pitch": 71, "duration": 4, "velocity": 87}, {"time": 1568, "pitch": 72, "duration": 9, "velocity": 87}, {"time": 1586, "pitch": 72, "duration": 5, "velocity": 89}, {"time": 1592, "pitch": 69, "duration": 4, "velocity": 88}, {"time": 1598, "pitch": 74, "duration": 4, "velocity": 88}, {"time": 1604, "pitch": 74, "duration": 3, "velocity": 87}, {"time": 1610, "pitch": 76, "duration": 3, "velocity": 88}, {"time": 1616, "pitch": 76, "duration": 4, "velocity": 87}, {"time": 1622, "pitch": 77, "duration": 4, "velocity": 86}, {"time": 1628, "pitch": 77, "duration": 3, "velocity": 82}, {"time": 1634, "pitch": 77, "duration": 4, "velocity": 92}, {"time": 1640, "pitch": 76, "duration": 3, "velocity": 87}, {"time": 1646, "pitch": 74, "duration": 7, "velocity": 91}, {"time": 1658, "pitch": 72, "duration": 12, "velocity": 88}, {"time": 1676, "pitch": 67, "duration": 4, "velocity": 90}, {"time": 1682, "pitch": 72, "duration": 4, "velocity": 93}, {"time": 1688, "pitch": 74, "duration": 4, "velocity": 97}, {"time": 1694, "pitch": 76, "duration": 5, "velocity": 90}, {"time": 1700, "pitch": 74, "duration": 4, "velocity": 91}, {"time": 1706, "pitch": 76, "duration": 3, "velocity": 93}, {"time": 1712, "pitch": 77, "duration": 4, "velocity": 90}, {"time": 1718, "pitch": 79, "duration": 4, "velocity": 93}, {"time": 1724, "pitch": 79, "duration": 4, "velocity": 86}, {"time": 1730, "pitch": 79, "duration": 4, "velocity": 93}, {"time": 1736, "pitch": 77, "duration": 4, "velocity": 88}, {"time": 1742, "pitch": 76, "duration": 11, "velocity": 92}, {"time": 1754, "pitch": 74, "duration": 10, "velocity": 93}, {"time": 1772, "pitch": 67, "duration": 4, "velocity": 87}, {"time": 1778, "pitch": 72, "duration": 5, "velocity": 90}, {"time": 1784, "pitch": 74, "duration": 4, "velocity": 92}, {"time": 1790, "pitch": 76, "duration": 5, "velocity": 92}, {"time": 1796, "pitch": 74, "duration": 5, "velocity": 90}, {"time": 1802, "pitch": 76, "duration": 3, "velocity": 91}, {"time": 1808, "pitch": 77, "duration": 4, "velocity": 88}, {"time": 1814, "pitch": 79, "duration": 3, "velocity": 89}, {"time": 1820, "pitch": 79, "duration": 3, "velocity": 88}, {"time": 1826, "pitch": 79, "duration": 3, "velocity": 88}, {"time": 1832, "pitch": 81, "duration": 4, "velocity": 90}, {"time": 1838, "pitch": 79, "duration": 9, "velocity": 90}, {"time": 1850, "pitch": 76, "duration": 11, "velocity": 90}, {"time": 1862, "pitch": 72, "duration": 8, "velocity": 90}, {"time": 1874, "pitch": 72, "duration": 5, "velocity": 91}, {"time": 1880, "pitch": 69, "duration": 4, "velocity": 88}, {"time": 1886, "pitch": 74, "duration": 5, "velocity": 90}, {"time": 1892, "pitch": 74, "duration": 4, "velocity": 88}, {"time": 1898, "pitch": 76, "duration": 4, "velocity": 88}, {"time": 1904, "pitch": 76, "duration": 5, "velocity": 88}, {"time": 1910, "pitch": 72, "duration": 9, "velocity": 90}, {"time": 1922, "pitch": 79, "duration": 4, "velocity": 87}, {"time": 1922, "pitch": 79, "duration": 4, "velocity": 90}, {"time": 1928, "pitch": 72, "duration": 3, "velocity": 90}, {"time": 1934, "pitch": 67, "duration": 4, "velocity": 89}, {"time": 1940, "pitch": 72, "duration": 4, "velocity": 90}, {"time": 1946, "pitch": 71, "duration": 4, "velocity": 87}, {"time": 1952, "pitch": 72, "duration": 9, "velocity": 87}, {"time": 1970, "pitch": 72, "duration": 5, "velocity": 89}, {"time": 1976, "pitch": 69, "duration": 4, "velocity": 88}, {"time": 1982, "pitch": 74, "duration": 4, "velocity": 88}, {"time": 1988, "pitch": 74, "duration": 3, "velocity": 87}, {"time": 1994, "pitch": 76, "duration": 3, "velocity": 88}, {"time": 2000, "pitch": 76, "duration": 4, "velocity": 87}, {"time": 2006, "pitch": 77, "duration": 4, "velocity": 86}, {"time": 2012, "pitch": 77, "duration": 3, "velocity": 82}, {"time": 2018, "pitch": 76, "duration": 9, "velocity": 92}, {"time": 2030, "pitch": 74, "duration": 4, "velocity": 95}, {"time": 2036, "pitch": 72, "duration": 4, "velocity": 86}, {"time": 2042, "pitch": 72, "duration": 9, "velocity": 85}, {"time": 2054, "pitch": 72, "duration": 45, "velocity": 87}, {"time": 2102, "pitch": 72, "duration": 9, "velocity": 92}, {"time": 2114, "pitch": 71, "duration": 11, "velocity": 92}, {"time": 2126, "pitch": 69, "duration": 6, "velocity": 88}, {"time": 2132, "pitch": 67, "duration": 4, "velocity": 85}, {"time": 2138, "pitch": 69, "duration": 5, "velocity": 88}, {"time": 2144, "pitch": 71, "duration": 4, "velocity": 88}, {"time": 2150, "pitch": 72, "duration": 39, "velocity": 87}, {"time": 2246, "pitch": 72, "duration": 45, "velocity": 87}, {"time": 2294, "pitch": 72, "duration": 9, "velocity": 92}, {"time": 2306, "pitch": 71, "duration": 11, "velocity": 92}, {"time": 2318, "pitch": 69, "duration": 6, "velocity": 88}, {"time": 2324, "pitch": 67, "duration": 4, "velocity": 85}, {"time": 2330, "pitch": 69, "duration": 5, "velocity": 88}, {"time": 2336, "pitch": 71, "duration": 4, "velocity": 88}, {"time": 2342, "pitch": 72, "duration": 39, "velocity": 87}, {"time": 2444, "pitch": 69, "duration": 3, "velocity": 87}, {"time": 2450, "pitch": 69, "duration": 4, "velocity": 87}, {"time": 2456, "pitch": 72, "duration": 4, "velocity": 90}, {"time": 2462, "pitch": 72, "duration": 4, "velocity": 90}, {"time": 2468, "pitch": 69, "duration": 4, "velocity": 93}, {"time": 2474, "pitch": 72, "duration": 12, "velocity": 93}, {"time": 2492, "pitch": 67, "duration": 3, "velocity": 87}, {"time": 2498, "pitch": 69, "duration": 4, "velocity": 87}, {"time": 2504, "pitch": 72, "duration": 4, "velocity": 90}, {"time": 2510, "pitch": 72, "duration": 4, "velocity": 90}, {"time": 2516, "pitch": 69, "duration": 4, "velocity": 93}, {"time": 2522, "pitch": 72, "duration": 12, "velocity": 93}, {"time": 2540, "pitch": 69, "duration": 4, "velocity": 88}, {"time": 2546, "pitch": 69, "duration": 4, "velocity": 90}, {"time": 2552, "pitch": 72, "duration": 4, "velocity": 87}, {"time": 2558, "pitch": 72, "duration": 4, "velocity": 88}, {"time": 2564, "pitch": 69, "duration": 4, "velocity": 88}, {"time": 2570, "pitch": 72, "duration": 4, "velocity": 92}, {"time": 2576, "pitch": 67, "duration": 2, "velocity": 87}, {"time": 2579, "pitch": 69, "duration": 2, "velocity": 90}, {"time": 2582, "pitch": 72, "duration": 3, "velocity": 90}, {"time": 2588, "pitch": 69, "duration": 3, "velocity": 90}, {"time": 2594, "pitch": 72, "duration": 3, "velocity": 90}, {"time": 2600, "pitch": 74, "duration": 4, "velocity": 93}, {"time": 2606, "pitch": 74, "duration": 9, "velocity": 90}, {"time": 2618, "pitch": 72, "duration": 11, "velocity": 93}, {"time": 2636, "pitch": 72, "duration": 3, "velocity": 90}, {"time": 2642, "pitch": 72, "duration": 9, "velocity": 95}, {"time": 2654, "pitch": 72, "duration": 3, "velocity": 86}, {"time": 2660, "pitch": 72, "duration": 8, "velocity": 91}, {"time": 2672, "pitch": 72, "duration": 3, "velocity": 92}, {"time": 2678, "pitch": 71, "duration": 4, "velocity": 93}, {"time": 2684, "pitch": 69, "duration": 3, "velocity": 91}, {"time": 2690, "pitch": 71, "duration": 3, "velocity": 86}, {"time": 2696, "pitch": 72, "duration": 12, "velocity": 89}, {"time": 2714, "pitch": 67, "duration": 5, "velocity": 88}, {"time": 2720, "pitch": 72, "duration": 8, "velocity": 88}, {"time": 2732, "pitch": 72, "duration": 2, "velocity": 88}, {"time": 2738, "pitch": 72, "duration": 10, "velocity": 90}, {"time": 2750, "pitch": 71, "duration": 4, "velocity": 87}, {"time": 2756, "pitch": 72, "duration": 7, "velocity": 89}, {"time": 2768, "pitch": 72, "duration": 4, "velocity": 87}, {"time": 2774, "pitch": 71, "duration": 4, "velocity": 88}, {"time": 2780, "pitch": 69, "duration": 4, "velocity": 86}, {"time": 2786, "pitch": 67, "duration": 3, "velocity": 84}, {"time": 2792, "pitch": 67, "duration": 12, "velocity": 88}, {"time": 2804, "pitch": 64, "duration": 4, "velocity": 88}, {"time": 2810, "pitch": 65, "duration": 5, "velocity": 86}, {"time": 2816, "pitch": 67, "duration": 6, "velocity": 85}, {"time": 2828, "pitch": 67, "duration": 2, "velocity": 89}, {"time": 2834, "pitch": 72, "duration": 9, "velocity": 89}, {"time": 2846, "pitch": 72, "duration": 5, "velocity": 88}, {"time": 2852, "pitch": 72, "duration": 3, "velocity": 82}, {"time": 2858, "pitch": 67, "duration": 2, "velocity": 95}, {"time": 2864, "pitch": 72, "duration": 4, "velocity": 81}, {"time": 2870, "pitch": 71, "duration": 4, "velocity": 88}, {"time": 2876, "pitch": 69, "duration": 3, "velocity": 84}, {"time": 2882, "pitch": 71, "duration": 3, "velocity": 88}, {"time": 2888, "pitch": 72, "duration": 9, "velocity": 90}, {"time": 2900, "pitch": 74, "duration": 4, "velocity": 93}, {"time": 2906, "pitch": 76, "duration": 9, "velocity": 93}, {"time": 2918, "pitch": 77, "duration": 4, "velocity": 88}, {"time": 2924, "pitch": 77, "duration": 3, "velocity": 87}, {"time": 2930, "pitch": 77, "duration": 5, "velocity": 92}, {"time": 2936, "pitch": 76, "duration": 5, "velocity": 93}, {"time": 2942, "pitch": 76, "duration": 7, "velocity": 102}, {"time": 2954, "pitch": 74, "duration": 5, "velocity": 92}, {"time": 2960, "pitch": 79, "duration": 5, "velocity": 87}, {"time": 2966, "pitch": 77, "duration": 4, "velocity": 87}, {"time": 2972, "pitch": 77, "duration": 4, "velocity": 86}, {"time": 2978, "pitch": 77, "duration": 4, "velocity": 89}, {"time": 2984, "pitch": 76, "duration": 4, "velocity": 92}, {"time": 2990, "pitch": 74, "duration": 9, "velocity": 93}, {"time": 3002, "pitch": 72, "duration": 10, "velocity": 93}, {"time": 3020, "pitch": 67, "duration": 4, "velocity": 90}, {"time": 3026, "pitch": 72, "duration": 4, "velocity": 93}, {"time": 3032, "pitch": 74, "duration": 4, "velocity": 97}, {"time": 3038, "pitch": 76, "duration": 5, "velocity": 90}, {"time": 3044, "pitch": 74, "duration": 4, "velocity": 91}, {"time": 3050, "pitch": 76, "duration": 3, "velocity": 93}, {"time": 3056, "pitch": 77, "duration": 4, "velocity": 90}, {"time": 3062, "pitch": 79, "duration": 4, "velocity": 93}, {"time": 3068, "pitch": 79, "duration": 4, "velocity": 86}, {"time": 3074, "pitch": 79, "duration": 4, "velocity": 93}, {"time": 3080, "pitch": 77, "duration": 4, "velocity": 88}, {"time": 3086, "pitch": 76, "duration": 11, "velocity": 92}, {"time": 3098, "pitch": 74, "duration": 10, "velocity": 93}, {"time": 3116, "pitch": 67, "duration": 4, "velocity": 87}, {"time": 3122, "pitch": 72, "duration": 5, "velocity": 90}, {"time": 3128, "pitch": 74, "duration": 4, "velocity": 92}, {"time": 3134, "pitch": 76, "duration": 5, "velocity": 92}, {"time": 3140, "pitch": 74, "duration": 5, "velocity": 90}, {"time": 3146, "pitch": 76, "duration": 3, "velocity": 91}, {"time": 3152, "pitch": 77, "duration": 4, "velocity": 88}, {"time": 3158, "pitch": 79, "duration": 3, "velocity": 89}, {"time": 3164, "pitch": 79, "duration": 3, "velocity": 88}, {"time": 3170, "pitch": 79, "duration": 3, "velocity": 88}, {"time": 3176, "pitch": 81, "duration": 4, "velocity": 90}, {"time": 3182, "pitch": 79, "duration": 9, "velocity": 90}, {"time": 3194, "pitch": 76, "duration": 11, "velocity": 90}, {"time": 3206, "pitch": 72, "duration": 8, "velocity": 90}, {"time": 3218, "pitch": 72, "duration": 5, "velocity": 91}, {"time": 3224, "pitch": 69, "duration": 4, "velocity": 88}, {"time": 3230, "pitch": 74, "duration": 5, "velocity": 90}, {"time": 3236, "pitch": 74, "duration": 4, "velocity": 88}, {"time": 3242, "pitch": 76, "duration": 4, "velocity": 88}, {"time": 3248, "pitch": 76, "duration": 5, "velocity": 88}, {"time": 3254, "pitch": 72, "duration": 9, "velocity": 90}, {"time": 3266, "pitch": 79, "duration": 4, "velocity": 87}, {"time": 3266, "pitch": 79, "duration": 4, "velocity": 90}, {"time": 3272, "pitch": 72, "duration": 3, "velocity": 90}, {"time": 3278, "pitch": 67, "duration": 4, "velocity": 89}, {"time": 3284, "pitch": 72, "duration": 4, "velocity": 90}, {"time": 3290, "pitch": 71, "duration": 4, "velocity": 87}, {"time": 3296, "pitch": 72, "duration": 9, "velocity": 87}, {"time": 3314, "pitch": 72, "duration": 5, "velocity": 89}, {"time": 3320, "pitch": 69, "duration": 4, "velocity": 88}, {"time": 3326, "pitch": 74, "duration": 4, "velocity": 88}, {"time": 3332, "pitch": 74, "duration": 3, "velocity": 87}, {"time": 3338, "pitch": 76, "duration": 3, "velocity": 88}, {"time": 3344, "pitch": 76, "duration": 4, "velocity": 87}, {"time": 3350, "pitch": 77, "duration": 4, "velocity": 86}, {"time": 3356, "pitch": 77, "duration": 3, "velocity": 82}, {"time": 3362, "pitch": 77, "duration": 4, "velocity": 92}, {"time": 3368, "pitch": 76, "duration": 3, "velocity": 87}, {"time": 3374, "pitch": 74, "duration": 7, "velocity": 91}, {"time": 3386, "pitch": 72, "duration": 12, "velocity": 88}, {"time": 3404, "pitch": 67, "duration": 4, "velocity": 90}, {"time": 3410, "pitch": 72, "duration": 4, "velocity": 93}, {"time": 3416, "pitch": 74, "duration": 4, "velocity": 97}, {"time": 3422, "pitch": 76, "duration": 5, "velocity": 90}, {"time": 3428, "pitch": 74, "duration": 4, "velocity": 91}, {"time": 3434, "pitch": 76, "duration": 3, "velocity": 93}, {"time": 3440, "pitch": 77, "duration": 4, "velocity": 90}, {"time": 3446, "pitch": 79, "duration": 4, "velocity": 93}, {"time": 3452, "pitch": 79, "duration": 4, "velocity": 86}, {"time": 3458, "pitch": 79, "duration": 4, "velocity": 93}, {"time": 3464, "pitch": 77, "duration": 4, "velocity": 88}, {"time": 3470, "pitch": 76, "duration": 11, "velocity": 92}, {"time": 3482, "pitch": 74, "duration": 10, "velocity": 93}, {"time": 3500, "pitch": 67, "duration": 4, "velocity": 87}, {"time": 3506, "pitch": 72, "duration": 5, "velocity": 90}, {"time": 3512, "pitch": 74, "duration": 4, "velocity": 92}, {"time": 3518, "pitch": 76, "duration": 5, "velocity": 92}, {"time": 3524, "pitch": 74, "duration": 5, "velocity": 90}, {"time": 3530, "pitch": 76, "duration": 3, "velocity": 91}, {"time": 3536, "pitch": 77, "duration": 4, "velocity": 88}, {"time": 3542, "pitch": 79, "duration": 3, "velocity": 89}, {"time": 3548, "pitch": 79, "duration": 3, "velocity": 88}, {"time": 3554, "pitch": 79, "duration": 3, "velocity": 88}, {"time": 3560, "pitch": 81, "duration": 4, "velocity": 90}, {"time": 3566, "pitch": 79, "duration": 9, "velocity": 90}, {"time": 3578, "pitch": 76, "duration": 11, "velocity": 90}, {"time": 3590, "pitch": 72, "duration": 8, "velocity": 90}, {"time": 3602, "pitch": 72, "duration": 5, "velocity": 91}, {"time": 3608, "pitch": 69, "duration": 4, "velocity": 88}, {"time": 3614, "pitch": 74, "duration": 5, "velocity": 90}, {"time": 3620, "pitch": 74, "duration": 4, "velocity": 88}, {"time": 3626, "pitch": 76, "duration": 4, "velocity": 88}, {"time": 3632, "pitch": 76, "duration": 5, "velocity": 88}, {"time": 3638, "pitch": 72, "duration": 9, "velocity": 90}, {"time": 3650, "pitch": 79, "duration": 4, "velocity": 87}, {"time": 3650, "pitch": 79, "duration": 4, "velocity": 90}, {"time": 3656, "pitch": 72, "duration": 3, "velocity": 90}, {"time": 3662, "pitch": 67, "duration": 4, "velocity": 89}, {"time": 3668, "pitch": 72, "duration": 4, "velocity": 90}, {"time": 3674, "pitch": 71, "duration": 4, "velocity": 87}, {"time": 3680, "pitch": 72, "duration": 9, "velocity": 87}, {"time": 3698, "pitch": 72, "duration": 5, "velocity": 89}, {"time": 3704, "pitch": 69, "duration": 4, "velocity": 88}, {"time": 3710, "pitch": 74, "duration": 4, "velocity": 88}, {"time": 3716, "pitch": 74, "duration": 3, "velocity": 87}, {"time": 3722, "pitch": 76, "duration": 3, "velocity": 88}, {"time": 3728, "pitch": 76, "duration": 4, "velocity": 87}, {"time": 3734, "pitch": 77, "duration": 4, "velocity": 86}, {"time": 3740, "pitch": 77, "duration": 3, "velocity": 82}, {"time": 3746, "pitch": 76, "duration": 9, "velocity": 92}, {"time": 3758, "pitch": 74, "duration": 4, "velocity": 95}, {"time": 3764, "pitch": 72, "duration": 4, "velocity": 86}, {"time": 3770, "pitch": 72, "duration": 9, "velocity": 85}, {"time": 3782, "pitch": 72, "duration": 20, "velocity": 87}, {"time": 3793, "pitch": 72, "duration": 9, "velocity": 127}, {"time": 3805, "pitch": 79, "duration": 9, "velocity": 127}, {"time": 3817, "pitch": 76, "duration": 10, "velocity": 127}, {"time": 3830, "pitch": 74, "duration": 8, "velocity": 127}, {"time": 3830, "pitch": 72, "duration": 9, "velocity": 92}, {"time": 3842, "pitch": 72, "duration": 9, "velocity": 127}, {"time": 3842, "pitch": 71, "duration": 11, "velocity": 92}, {"time": 3853, "pitch": 79, "duration": 10, "velocity": 127}, {"time": 3854, "pitch": 69, "duration": 6, "velocity": 88}, {"time": 3860, "pitch": 67, "duration": 4, "velocity": 85}, {"time": 3866, "pitch": 69, "duration": 5, "velocity": 88}, {"time": 3866, "pitch": 76, "duration": 8, "velocity": 127}, {"time": 3872, "pitch": 71, "duration": 4, "velocity": 88}, {"time": 3878, "pitch": 72, "duration": 20, "velocity": 87}, {"time": 3889, "pitch": 72, "duration": 9, "velocity": 127}, {"time": 3901, "pitch": 79, "duration": 9, "velocity": 127}, {"time": 3913, "pitch": 76, "duration": 10, "velocity": 127}, {"time": 3925, "pitch": 74, "duration": 9, "velocity": 127}, {"time": 3937, "pitch": 76, "duration": 10, "velocity": 127}, {"time": 3950, "pitch": 74, "duration": 6, "velocity": 127}, {"time": 3956, "pitch": 72, "duration": 2, "velocity": 105}, {"time": 3962, "pitch": 72, "duration": 9, "velocity": 127}, {"time": 3974, "pitch": 76, "duration": 45, "velocity": 87}, {"time": 3974, "pitch": 72, "duration": 20, "velocity": 87}, {"time": 3985, "pitch": 72, "duration": 9, "velocity": 127}, {"time": 3997, "pitch": 79, "duration": 9, "velocity": 127}, {"time": 4009, "pitch": 76, "duration": 10, "velocity": 127}, {"time": 4021, "pitch": 74, "duration": 10, "velocity": 127}, {"time": 4022, "pitch": 72, "duration": 9, "velocity": 92}, {"time": 4034, "pitch": 71, "duration": 11, "velocity": 92}, {"time": 4034, "pitch": 72, "duration": 9, "velocity": 127}, {"time": 4045, "pitch": 79, "duration": 9, "velocity": 125}, {"time": 4046, "pitch": 69, "duration": 6, "velocity": 88}, {"time": 4052, "pitch": 67, "duration": 4, "velocity": 85}, {"time": 4057, "pitch": 76, "duration": 9, "velocity": 127}, {"time": 4058, "pitch": 69, "duration": 5, "velocity": 88}, {"time": 4064, "pitch": 71, "duration": 4, "velocity": 88}, {"time": 4070, "pitch": 76, "duration": 5, "velocity": 127}, {"time": 4070, "pitch": 72, "duration": 20, "velocity": 87}, {"time": 4081, "pitch": 72, "duration": 9, "velocity": 123}, {"time": 4092, "pitch": 79, "duration": 9, "velocity": 123}, {"time": 4104, "pitch": 76, "duration": 10, "velocity": 127}, {"time": 4117, "pitch": 74, "duration": 9, "velocity": 127}, {"time": 4129, "pitch": 76, "duration": 10, "velocity": 127}, {"time": 4142, "pitch": 74, "duration": 5, "velocity": 127}, {"time": 4147, "pitch": 72, "duration": 2, "velocity": 106}, {"time": 4153, "pitch": 72, "duration": 9, "velocity": 127}, {"time": 4172, "pitch": 67, "duration": 5, "velocity": 122}, {"time": 4178, "pitch": 72, "duration": 6, "velocity": 127}, {"time": 4184, "pitch": 74, "duration": 6, "velocity": 127}, {"time": 4190, "pitch": 76, "duration": 6, "velocity": 127}, {"time": 4196, "pitch": 74, "duration": 6, "velocity": 127}, {"time": 4202, "pitch": 76, "duration": 6, "velocity": 127}, {"time": 4208, "pitch": 77, "duration": 6, "velocity": 127}, {"time": 4214, "pitch": 79, "duration": 3, "velocity": 127}, {"time": 4220, "pitch": 79, "duration": 2, "velocity": 121}, {"time": 4226, "pitch": 79, "duration": 6, "velocity": 127}, {"time": 4231, "pitch": 77, "duration": 7, "velocity": 127}, {"time": 4238, "pitch": 76, "duration": 11, "velocity": 127}, {"time": 4249, "pitch": 74, "duration": 9, "velocity": 127}, {"time": 4268, "pitch": 67, "duration": 6, "velocity": 116}, {"time": 4274, "pitch": 72, "duration": 6, "velocity": 114}, {"time": 4280, "pitch": 74, "duration": 6, "velocity": 127}, {"time": 4285, "pitch": 76, "duration": 6, "velocity": 127}, {"time": 4291, "pitch": 74, "duration": 7, "velocity": 127}, {"time": 4298, "pitch": 76, "duration": 6, "velocity": 127}, {"time": 4303, "pitch": 77, "duration": 7, "velocity": 118}, {"time": 4310, "pitch": 79, "duration": 3, "velocity": 109}, {"time": 4315, "pitch": 79, "duration": 3, "velocity": 127}, {"time": 4321, "pitch": 79, "duration": 5, "velocity": 127}, {"time": 4328, "pitch": 81, "duration": 5, "velocity": 127}, {"time": 4334, "pitch": 79, "duration": 7, "velocity": 127}, {"time": 4345, "pitch": 76, "duration": 10, "velocity": 127}, {"time": 4370, "pitch": 72, "duration": 5, "velocity": 93}, {"time": 4376, "pitch": 69, "duration": 5, "velocity": 91}, {"time": 4382, "pitch": 74, "duration": 4, "velocity": 95}, {"time": 4388, "pitch": 74, "duration": 4, "velocity": 89}, {"time": 4394, "pitch": 74, "duration": 4, "velocity": 95}, {"time": 4400, "pitch": 76, "duration": 5, "velocity": 88}, {"time": 4406, "pitch": 72, "duration": 9, "velocity": 90}, {"time": 4418, "pitch": 79, "duration": 6, "velocity": 79}, {"time": 4424, "pitch": 72, "duration": 5, "velocity": 89}, {"time": 4430, "pitch": 67, "duration": 6, "velocity": 88}, {"time": 4436, "pitch": 72, "duration": 5, "velocity": 86}, {"time": 4442, "pitch": 71, "duration": 4, "velocity": 89}, {"time": 4448, "pitch": 72, "duration": 8, "velocity": 88}, {"time": 4466, "pitch": 72, "duration": 5, "velocity": 93}, {"time": 4472, "pitch": 69, "duration": 5, "velocity": 88}, {"time": 4478, "pitch": 74, "duration": 4, "velocity": 95}, {"time": 4484, "pitch": 74, "duration": 3, "velocity": 87}, {"time": 4490, "pitch": 74, "duration": 4, "velocity": 92}, {"time": 4496, "pitch": 76, "duration": 5, "velocity": 88}, {"time": 4502, "pitch": 77, "duration": 3, "velocity": 86}, {"time": 4508, "pitch": 77, "duration": 3, "velocity": 87}, {"time": 4514, "pitch": 77, "duration": 4, "velocity": 88}, {"time": 4520, "pitch": 76, "duration": 4, "velocity": 93}, {"time": 4526, "pitch": 74, "duration": 9, "velocity": 93}, {"time": 4538, "pitch": 72, "duration": 10, "velocity": 88}, {"time": 4556, "pitch": 67, "duration": 4, "velocity": 90}, {"time": 4562, "pitch": 72, "duration": 4, "velocity": 93}, {"time": 4568, "pitch": 74, "duration": 4, "velocity": 97}, {"time": 4574, "pitch": 76, "duration": 5, "velocity": 90}, {"time": 4580, "pitch": 74, "duration": 4, "velocity": 91}, {"time": 4586, "pitch": 76, "duration": 3, "velocity": 93}, {"time": 4592, "pitch": 77, "duration": 4, "velocity": 90}, {"time": 4598, "pitch": 79, "duration": 4, "velocity": 93}, {"time": 4604, "pitch": 79, "duration": 4, "velocity": 86}, {"time": 4610, "pitch": 79, "duration": 4, "velocity": 93}, {"time": 4616, "pitch": 77, "duration": 4, "velocity": 88}, {"time": 4622, "pitch": 76, "duration": 11, "velocity": 92}, {"time": 4634, "pitch": 74, "duration": 10, "velocity": 93}, {"time": 4652, "pitch": 67, "duration": 4, "velocity": 87}, {"time": 4658, "pitch": 72, "duration": 5, "velocity": 90}, {"time": 4664, "pitch": 74, "duration": 4, "velocity": 92}, {"time": 4670, "pitch": 76, "duration": 5, "velocity": 92}, {"time": 4676, "pitch": 74, "duration": 5, "velocity": 90}, {"time": 4682, "pitch": 76, "duration": 3, "velocity": 91}, {"time": 4688, "pitch": 77, "duration": 4, "velocity": 88}, {"time": 4694, "pitch": 79, "duration": 3, "velocity": 89}, {"time": 4700, "pitch": 79, "duration": 3, "velocity": 88}, {"time": 4706, "pitch": 79, "duration": 3, "velocity": 88}, {"time": 4712, "pitch": 81, "duration": 4, "velocity": 90}, {"time": 4718, "pitch": 79, "duration": 9, "velocity": 90}, {"time": 4730, "pitch": 76, "duration": 11, "velocity": 90}, {"time": 4742, "pitch": 72, "duration": 8, "velocity": 90}, {"time": 4754, "pitch": 72, "duration": 5, "velocity": 91}, {"time": 4760, "pitch": 69, "duration": 4, "velocity": 88}, {"time": 4766, "pitch": 74, "duration": 5, "velocity": 90}, {"time": 4772, "pitch": 74, "duration": 4, "velocity": 88}, {"time": 4778, "pitch": 76, "duration": 4, "velocity": 88}, {"time": 4784, "pitch": 76, "duration": 5, "velocity": 88}, {"time": 4790, "pitch": 72, "duration": 9, "velocity": 90}, {"time": 4802, "pitch": 79, "duration": 4, "velocity": 87}, {"time": 4802, "pitch": 79, "duration": 4, "velocity": 90}, {"time": 4808, "pitch": 72, "duration": 3, "velocity": 90}, {"time": 4814, "pitch": 67, "duration": 4, "velocity": 89}, {"time": 4820, "pitch": 72, "duration": 4, "velocity": 90}, {"time": 4826, "pitch": 71, "duration": 4, "velocity": 87}, {"time": 4832, "pitch": 72, "duration": 9, "velocity": 87}, {"time": 4850, "pitch": 72, "duration": 5, "velocity": 89}, {"time": 4856, "pitch": 69, "duration": 4, "velocity": 88}, {"time": 4862, "pitch": 74, "duration": 4, "velocity": 88}, {"time": 4868, "pitch": 74, "duration": 3, "velocity": 87}, {"time": 4874, "pitch": 76, "duration": 3, "velocity": 88}, {"time": 4880, "pitch": 76, "duration": 4, "velocity": 87}, {"time": 4886, "pitch": 77, "duration": 4, "velocity": 86}, {"time": 4892, "pitch": 77, "duration": 3, "velocity": 82}, {"time": 4898, "pitch": 76, "duration": 9, "velocity": 92}, {"time": 4910, "pitch": 74, "duration": 4, "velocity": 95}, {"time": 4916, "pitch": 72, "duration": 4, "velocity": 86}, {"time": 4922, "pitch": 72, "duration": 9, "velocity": 85}]}, {"program": 0, "is_drum": false, "name": "PIANO", "notes": [{"time": 134, "pitch": 48, "duration": 39, "velocity": 100}, {"time": 140, "pitch": 55, "duration": 7, "velocity": 86}, {"time": 146, "pitch": 60, "duration": 7, "velocity": 81}, {"time": 152, "pitch": 55, "duration": 2, "velocity": 74}, {"time": 158, "pitch": 55, "duration": 2, "velocity": 79}, {"time": 158, "pitch": 60, "duration": 5, "velocity": 82}, {"time": 158, "pitch": 64, "duration": 5, "velocity": 87}, {"time": 170, "pitch": 55, "duration": 2, "velocity": 77}, {"time": 170, "pitch": 60, "duration": 6, "velocity": 81}, {"time": 176, "pitch": 55, "duration": 8, "velocity": 85}, {"time": 182, "pitch": 43, "duration": 38, "velocity": 87}, {"time": 188, "pitch": 55, "duration": 7, "velocity": 77}, {"time": 194, "pitch": 62, "duration": 6, "velocity": 86}, {"time": 200, "pitch": 50, "duration": 8, "velocity": 81}, {"time": 206, "pitch": 55, "duration": 5, "velocity": 78}, {"time": 206, "pitch": 59, "duration": 5, "velocity": 79}, {"time": 212, "pitch": 50, "duration": 7, "velocity": 65}, {"time": 218, "pitch": 55, "duration": 2, "velocity": 86}, {"time": 218, "pitch": 59, "duration": 3, "velocity": 87}, {"time": 218, "pitch": 62, "duration": 3, "velocity": 86}, {"time": 230, "pitch": 45, "duration": 37, "velocity": 87}, {"time": 230, "pitch": 57, "duration": 8, "velocity": 73}, {"time": 230, "pitch": 60, "duration": 9, "velocity": 82}, {"time": 236, "pitch": 52, "duration": 8, "velocity": 76}, {"time": 242, "pitch": 57, "duration": 6, "velocity": 84}, {"time": 248, "pitch": 52, "duration": 7, "velocity": 78}, {"time": 254, "pitch": 57, "duration": 5, "velocity": 77}, {"time": 254, "pitch": 60, "duration": 4, "velocity": 78}, {"time": 260, "pitch": 52, "duration": 5, "velocity": 70}, {"time": 266, "pitch": 60, "duration": 5, "velocity": 81}, {"time": 266, "pitch": 64, "duration": 5, "velocity": 89}, {"time": 272, "pitch": 57, "duration": 2, "velocity": 87}, {"time": 278, "pitch": 41, "duration": 40, "velocity": 86}, {"time": 278, "pitch": 53, "duration": 12, "velocity": 84}, {"time": 278, "pitch": 57, "duration": 13, "velocity": 81}, {"time": 284, "pitch": 48, "duration": 32, "velocity": 73}, {"time": 290, "pitch": 60, "duration": 3, "velocity": 86}, {"time": 296, "pitch": 53, "duration": 7, "velocity": 86}, {"time": 302, "pitch": 65, "duration": 8, "velocity": 86}, {"time": 308, "pitch": 53, "duration": 7, "velocity": 86}, {"time": 314, "pitch": 57, "duration": 7, "velocity": 72}, {"time": 320, "pitch": 53, "duration": 4, "velocity": 87}, {"time": 326, "pitch": 48, "duration": 39, "velocity": 100}, {"time": 332, "pitch": 55, "duration": 7, "velocity": 86}, {"time": 338, "pitch": 60, "duration": 7, "velocity": 81}, {"time": 344, "pitch": 55, "duration": 2, "velocity": 74}, {"time": 350, "pitch": 55, "duration": 2, "velocity": 79}, {"time": 350, "pitch": 60, "duration": 5, "velocity": 82}, {"time": 350, "pitch": 64, "duration": 5, "velocity": 87}, {"time": 362, "pitch": 55, "duration": 2, "velocity": 77}, {"time": 362, "pitch": 60, "duration": 6, "velocity": 81}, {"time": 368, "pitch": 55, "duration": 8, "velocity": 85}, {"time": 374, "pitch": 43, "duration": 38, "velocity": 87}, {"time": 380, "pitch": 55, "duration": 7, "velocity": 77}, {"time": 386, "pitch": 62, "duration": 6, "velocity": 86}, {"time": 392, "pitch": 50, "duration": 8, "velocity": 81}, {"time": 398, "pitch": 55, "duration": 5, "velocity": 78}, {"time": 398, "pitch": 59, "duration": 5, "velocity": 79}, {"time": 404, "pitch": 50, "duration": 7, "velocity": 65}, {"time": 410, "pitch": 55, "duration": 2, "velocity": 86}, {"time": 410, "pitch": 59, "duration": 3, "velocity": 87}, {"time": 410, "pitch": 62, "duration": 3, "velocity": 86}, {"time": 422, "pitch": 45, "duration": 37, "velocity": 87}, {"time": 422, "pitch": 57, "duration": 8, "velocity": 73}, {"time": 422, "pitch": 60, "duration": 9, "velocity": 82}, {"time": 428, "pitch": 52, "duration": 8, "velocity": 76}, {"time": 434, "pitch": 57, "duration": 6, "velocity": 84}, {"time": 440, "pitch": 52, "duration": 7, "velocity": 78}, {"time": 446, "pitch": 57, "duration": 5, "velocity": 77}, {"time": 446, "pitch": 60, "duration": 4, "velocity": 78}, {"time": 452, "pitch": 52, "duration": 5, "velocity": 70}, {"time": 458, "pitch": 60, "duration": 5, "velocity": 81}, {"time": 458, "pitch": 64, "duration": 5, "velocity": 89}, {"time": 464, "pitch": 57, "duration": 2, "velocity": 87}, {"time": 470, "pitch": 41, "duration": 40, "velocity": 86}, {"time": 470, "pitch": 53, "duration": 12, "velocity": 84}, {"time": 470, "pitch": 57, "duration": 13, "velocity": 81}, {"time": 476, "pitch": 48, "duration": 32, "velocity": 73}, {"time": 482, "pitch": 60, "duration": 3, "velocity": 86}, {"time": 488, "pitch": 53, "duration": 7, "velocity": 86}, {"time": 494, "pitch": 65, "duration": 8, "velocity": 86}, {"time": 500, "pitch": 53, "duration": 7, "velocity": 86}, {"time": 506, "pitch": 57, "duration": 7, "velocity": 72}, {"time": 512, "pitch": 53, "duration": 4, "velocity": 87}, {"time": 518, "pitch": 48, "duration": 39, "velocity": 100}, {"time": 524, "pitch": 55, "duration": 7, "velocity": 86}, {"time": 530, "pitch": 60, "duration": 7, "velocity": 81}, {"time": 536, "pitch": 55, "duration": 2, "velocity": 74}, {"time": 542, "pitch": 55, "duration": 2, "velocity": 79}, {"time": 542, "pitch": 60, "duration": 5, "velocity": 82}, {"time": 542, "pitch": 64, "duration": 5, "velocity": 87}, {"time": 554, "pitch": 55, "duration": 2, "velocity": 77}, {"time": 554, "pitch": 60, "duration": 6, "velocity": 81}, {"time": 560, "pitch": 55, "duration": 8, "velocity": 85}, {"time": 566, "pitch": 43, "duration": 38, "velocity": 87}, {"time": 572, "pitch": 55, "duration": 7, "velocity": 77}, {"time": 578, "pitch": 62, "duration": 6, "velocity": 86}, {"time": 584, "pitch": 50, "duration": 8, "velocity": 81}, {"time": 590, "pitch": 55, "duration": 5, "velocity": 78}, {"time": 590, "pitch": 59, "duration": 5, "velocity": 79}, {"time": 596, "pitch": 50, "duration": 7, "velocity": 65}, {"time": 602, "pitch": 55, "duration": 2, "velocity": 86}, {"time": 602, "pitch": 59, "duration": 3, "velocity": 87}, {"time": 602, "pitch": 62, "duration": 3, "velocity": 86}, {"time": 614, "pitch": 45, "duration": 37, "velocity": 87}, {"time": 614, "pitch": 57, "duration": 8, "velocity": 73}, {"time": 614, "pitch": 60, "duration": 9, "velocity": 82}, {"time": 620, "pitch": 52, "duration": 8, "velocity": 76}, {"time": 626, "pitch": 57, "duration": 6, "velocity": 84}, {"time": 632, "pitch": 52, "duration": 7, "velocity": 78}, {"time": 638, "pitch": 57, "duration": 5, "velocity": 77}, {"time": 638, "pitch": 60, "duration": 4, "velocity": 78}, {"time": 644, "pitch": 52, "duration": 5, "velocity": 70}, {"time": 650, "pitch": 60, "duration": 5, "velocity": 81}, {"time": 650, "pitch": 64, "duration": 5, "velocity": 89}, {"time": 656, "pitch": 57, "duration": 2, "velocity": 87}, {"time": 662, "pitch": 41, "duration": 40, "velocity": 86}, {"time": 662, "pitch": 53, "duration": 12, "velocity": 84}, {"time": 662, "pitch": 57, "duration": 13, "velocity": 81}, {"time": 668, "pitch": 48, "duration": 32, "velocity": 73}, {"time": 674, "pitch": 60, "duration": 3, "velocity": 86}, {"time": 680, "pitch": 53, "duration": 7, "velocity": 86}, {"time": 686, "pitch": 65, "duration": 8, "velocity": 86}, {"time": 692, "pitch": 53, "duration": 7, "velocity": 86}, {"time": 698, "pitch": 57, "duration": 7, "velocity": 72}, {"time": 704, "pitch": 53, "duration": 4, "velocity": 87}, {"time": 710, "pitch": 48, "duration": 39, "velocity": 100}, {"time": 716, "pitch": 55, "duration": 7, "velocity": 86}, {"time": 722, "pitch": 60, "duration": 7, "velocity": 81}, {"time": 728, "pitch": 55, "duration": 2, "velocity": 74}, {"time": 734, "pitch": 55, "duration": 2, "velocity": 79}, {"time": 734, "pitch": 60, "duration": 5, "velocity": 82}, {"time": 734, "pitch": 64, "duration": 5, "velocity": 87}, {"time": 746, "pitch": 55, "duration": 2, "velocity": 77}, {"time": 746, "pitch": 60, "duration": 6, "velocity": 81}, {"time": 752, "pitch": 55, "duration": 8, "velocity": 85}, {"time": 758, "pitch": 43, "duration": 38, "velocity": 87}, {"time": 764, "pitch": 55, "duration": 7, "velocity": 77}, {"time": 770, "pitch": 62, "duration": 6, "velocity": 86}, {"time": 776, "pitch": 50, "duration": 8, "velocity": 81}, {"time": 782, "pitch": 55, "duration": 5, "velocity": 78}, {"time": 782, "pitch": 59, "duration": 5, "velocity": 79}, {"time": 788, "pitch": 50, "duration": 7, "velocity": 65}, {"time": 794, "pitch": 55, "duration": 2, "velocity": 86}, {"time": 794, "pitch": 59, "duration": 3, "velocity": 87}, {"time": 794, "pitch": 62, "duration": 3, "velocity": 86}, {"time": 806, "pitch": 45, "duration": 37, "velocity": 87}, {"time": 806, "pitch": 57, "duration": 8, "velocity": 73}, {"time": 806, "pitch": 60, "duration": 9, "velocity": 82}, {"time": 812, "pitch": 52, "duration": 8, "velocity": 76}, {"time": 818, "pitch": 57, "duration": 6, "velocity": 84}, {"time": 824, "pitch": 52, "duration": 7, "velocity": 78}, {"time": 830, "pitch": 57, "duration": 5, "velocity": 77}, {"time": 830, "pitch": 60, "duration": 4, "velocity": 78}, {"time": 836, "pitch": 52, "duration": 5, "velocity": 70}, {"time": 842, "pitch": 60, "duration": 5, "velocity": 81}, {"time": 842, "pitch": 64, "duration": 5, "velocity": 89}, {"time": 848, "pitch": 57, "duration": 2, "velocity": 87}, {"time": 854, "pitch": 41, "duration": 40, "velocity": 86}, {"time": 854, "pitch": 53, "duration": 12, "velocity": 84}, {"time": 854, "pitch": 57, "duration": 13, "velocity": 81}, {"time": 860, "pitch": 48, "duration": 32, "velocity": 73}, {"time": 866, "pitch": 60, "duration": 3, "velocity": 86}, {"time": 872, "pitch": 53, "duration": 7, "velocity": 86}, {"time": 878, "pitch": 65, "duration": 8, "velocity": 86}, {"time": 884, "pitch": 53, "duration": 7, "velocity": 86}, {"time": 890, "pitch": 57, "duration": 7, "velocity": 72}, {"time": 896, "pitch": 53, "duration": 4, "velocity": 87}, {"time": 902, "pitch": 45, "duration": 22, "velocity": 86}, {"time": 902, "pitch": 57, "duration": 9, "velocity": 76}, {"time": 902, "pitch": 60, "duration": 8, "velocity": 82}, {"time": 908, "pitch": 52, "duration": 14, "velocity": 81}, {"time": 914, "pitch": 60, "duration": 8, "velocity": 84}, {"time": 914, "pitch": 64, "duration": 7, "velocity": 87}, {"time": 920, "pitch": 57, "duration": 7, "velocity": 86}, {"time": 926, "pitch": 50, "duration": 12, "velocity": 90}, {"time": 926, "pitch": 62, "duration": 8, "velocity": 87}, {"time": 932, "pitch": 57, "duration": 6, "velocity": 86}, {"time": 938, "pitch": 62, "duration": 2, "velocity": 85}, {"time": 938, "pitch": 65, "duration": 4, "velocity": 83}, {"time": 950, "pitch": 43, "duration": 23, "velocity": 86}, {"time": 950, "pitch": 55, "duration": 9, "velocity": 81}, {"time": 950, "pitch": 59, "duration": 8, "velocity": 81}, {"time": 956, "pitch": 50, "duration": 13, "velocity": 78}, {"time": 962, "pitch": 59, "duration": 5, "velocity": 82}, {"time": 962, "pitch": 62, "duration": 6, "velocity": 81}, {"time": 968, "pitch": 55, "duration": 3, "velocity": 87}, {"time": 974, "pitch": 48, "duration": 12, "velocity": 87}, {"time": 974, "pitch": 55, "duration": 2, "velocity": 85}, {"time": 974, "pitch": 60, "duration": 7, "velocity": 83}, {"time": 980, "pitch": 55, "duration": 3, "velocity": 87}, {"time": 986, "pitch": 43, "duration": 8, "velocity": 79}, {"time": 986, "pitch": 55, "duration": 3, "velocity": 86}, {"time": 986, "pitch": 59, "duration": 6, "velocity": 85}, {"time": 998, "pitch": 45, "duration": 22, "velocity": 83}, {"time": 998, "pitch": 57, "duration": 9, "velocity": 85}, {"time": 998, "pitch": 60, "duration": 8, "velocity": 87}, {"time": 1004, "pitch": 52, "duration": 15, "velocity": 77}, {"time": 1010, "pitch": 60, "duration": 4, "velocity": 87}, {"time": 1010, "pitch": 64, "duration": 7, "velocity": 87}, {"time": 1016, "pitch": 57, "duration": 6, "velocity": 86}, {"time": 1022, "pitch": 50, "duration": 13, "velocity": 86}, {"time": 1022, "pitch": 65, "duration": 8, "velocity": 87}, {"time": 1028, "pitch": 57, "duration": 4, "velocity": 88}, {"time": 1034, "pitch": 57, "duration": 2, "velocity": 82}, {"time": 1034, "pitch": 62, "duration": 5, "velocity": 87}, {"time": 1040, "pitch": 57, "duration": 3, "velocity": 80}, {"time": 1046, "pitch": 43, "duration": 20, "velocity": 82}, {"time": 1046, "pitch": 55, "duration": 10, "velocity": 78}, {"time": 1046, "pitch": 59, "duration": 8, "velocity": 77}, {"time": 1052, "pitch": 50, "duration": 12, "velocity": 78}, {"time": 1058, "pitch": 59, "duration": 3, "velocity": 83}, {"time": 1058, "pitch": 62, "duration": 3, "velocity": 86}, {"time": 1064, "pitch": 55, "duration": 3, "velocity": 87}, {"time": 1070, "pitch": 48, "duration": 12, "velocity": 86}, {"time": 1070, "pitch": 60, "duration": 8, "velocity": 87}, {"time": 1076, "pitch": 55, "duration": 4, "velocity": 88}, {"time": 1082, "pitch": 55, "duration": 3, "velocity": 88}, {"time": 1082, "pitch": 59, "duration": 7, "velocity": 86}, {"time": 1088, "pitch": 55, "duration": 3, "velocity": 86}, {"time": 1094, "pitch": 45, "duration": 21, "velocity": 86}, {"time": 1094, "pitch": 57, "duration": 7, "velocity": 80}, {"time": 1094, "pitch": 60, "duration": 7, "velocity": 86}, {"time": 1100, "pitch": 52, "duration": 14, "velocity": 79}, {"time": 1106, "pitch": 57, "duration": 1, "velocity": 78}, {"time": 1106, "pitch": 60, "duration": 7, "velocity": 87}, {"time": 1106, "pitch": 64, "duration": 6, "velocity": 87}, {"time": 1112, "pitch": 57, "duration": 6, "velocity": 82}, {"time": 1118, "pitch": 50, "duration": 12, "velocity": 86}, {"time": 1118, "pitch": 65, "duration": 8, "velocity": 88}, {"time": 1124, "pitch": 57, "duration": 4, "velocity": 87}, {"time": 1130, "pitch": 62, "duration": 5, "velocity": 87}, {"time": 1136, "pitch": 57, "duration": 2, "velocity": 81}, {"time": 1142, "pitch": 43, "duration": 18, "velocity": 84}, {"time": 1142, "pitch": 55, "duration": 8, "velocity": 81}, {"time": 1142, "pitch": 59, "duration": 7, "velocity": 79}, {"time": 1148, "pitch": 50, "duration": 12, "velocity": 75}, {"time": 1154, "pitch": 55, "duration": 1, "velocity": 76}, {"time": 1154, "pitch": 59, "duration": 7, "velocity": 86}, {"time": 1154, "pitch": 62, "duration": 10, "velocity": 83}, {"time": 1160, "pitch": 55, "duration": 3, "velocity": 82}, {"time": 1166, "pitch": 45, "duration": 16, "velocity": 86}, {"time": 1166, "pitch": 57, "duration": 8, "velocity": 81}, {"time": 1166, "pitch": 60, "duration": 7, "velocity": 86}, {"time": 1172, "pitch": 52, "duration": 10, "velocity": 80}, {"time": 1178, "pitch": 57, "duration": 2, "velocity": 82}, {"time": 1178, "pitch": 60, "duration": 5, "velocity": 86}, {"time": 1178, "pitch": 64, "duration": 6, "velocity": 87}, {"time": 1184, "pitch": 57, "duration": 3, "velocity": 79}, {"time": 1190, "pitch": 46, "duration": 27, "velocity": 88}, {"time": 1190, "pitch": 58, "duration": 7, "velocity": 75}, {"time": 1190, "pitch": 62, "duration": 10, "velocity": 82}, {"time": 1196, "pitch": 53, "duration": 9, "velocity": 75}, {"time": 1202, "pitch": 58, "duration": 9, "velocity": 90}, {"time": 1208, "pitch": 53, "duration": 7, "velocity": 78}, {"time": 1214, "pitch": 58, "duration": 7, "velocity": 85}, {"time": 1214, "pitch": 62, "duration": 7, "velocity": 83}, {"time": 1214, "pitch": 65, "duration": 7, "velocity": 83}, {"time": 1220, "pitch": 53, "duration": 8, "velocity": 76}, {"time": 1226, "pitch": 58, "duration": 3, "velocity": 84}, {"time": 1226, "pitch": 62, "duration": 9, "velocity": 86}, {"time": 1232, "pitch": 58, "duration": 2, "velocity": 79}, {"time": 1238, "pitch": 43, "duration": 3, "velocity": 86}, {"time": 1238, "pitch": 55, "duration": 2, "velocity": 87}, {"time": 1238, "pitch": 59, "duration": 2, "velocity": 88}, {"time": 1244, "pitch": 43, "duration": 3, "velocity": 86}, {"time": 1244, "pitch": 55, "duration": 3, "velocity": 87}, {"time": 1244, "pitch": 59, "duration": 3, "velocity": 87}, {"time": 1256, "pitch": 43, "duration": 3, "velocity": 84}, {"time": 1256, "pitch": 55, "duration": 3, "velocity": 80}, {"time": 1256, "pitch": 59, "duration": 3, "velocity": 79}, {"time": 1256, "pitch": 62, "duration": 3, "velocity": 81}, {"time": 1262, "pitch": 43, "duration": 15, "velocity": 88}, {"time": 1262, "pitch": 55, "duration": 9, "velocity": 87}, {"time": 1262, "pitch": 59, "duration": 8, "velocity": 91}, {"time": 1262, "pitch": 62, "duration": 8, "velocity": 87}, {"time": 1262, "pitch": 67, "duration": 8, "velocity": 87}, {"time": 1268, "pitch": 50, "duration": 8, "velocity": 87}, {"time": 1274, "pitch": 55, "duration": 4, "velocity": 86}, {"time": 1274, "pitch": 59, "duration": 10, "velocity": 87}, {"time": 1274, "pitch": 62, "duration": 11, "velocity": 87}, {"time": 1280, "pitch": 50, "duration": 5, "velocity": 87}, {"time": 1286, "pitch": 48, "duration": 21, "velocity": 92}, {"time": 1286, "pitch": 60, "duration": 7, "velocity": 82}, {"time": 1286, "pitch": 64, "duration": 7, "velocity": 88}, {"time": 1292, "pitch": 55, "duration": 5, "velocity": 81}, {"time": 1298, "pitch": 60, "duration": 5, "velocity": 81}, {"time": 1304, "pitch": 55, "duration": 3, "velocity": 88}, {"time": 1310, "pitch": 60, "duration": 4, "velocity": 89}, {"time": 1310, "pitch": 64, "duration": 7, "velocity": 90}, {"time": 1316, "pitch": 55, "duration": 2, "velocity": 84}, {"time": 1322, "pitch": 48, "duration": 2, "velocity": 95}, {"time": 1322, "pitch": 55, "duration": 2, "velocity": 86}, {"time": 1322, "pitch": 60, "duration": 4, "velocity": 87}, {"time": 1328, "pitch": 55, "duration": 3, "velocity": 86}, {"time": 1334, "pitch": 43, "duration": 36, "velocity": 82}, {"time": 1334, "pitch": 55, "duration": 3, "velocity": 86}, {"time": 1334, "pitch": 59, "duration": 7, "velocity": 86}, {"time": 1340, "pitch": 55, "duration": 2, "velocity": 86}, {"time": 1346, "pitch": 55, "duration": 3, "velocity": 86}, {"time": 1346, "pitch": 62, "duration": 4, "velocity": 81}, {"time": 1352, "pitch": 55, "duration": 3, "velocity": 80}, {"time": 1358, "pitch": 67, "duration": 5, "velocity": 88}, {"time": 1364, "pitch": 55, "duration": 3, "velocity": 88}, {"time": 1370, "pitch": 55, "duration": 2, "velocity": 89}, {"time": 1370, "pitch": 59, "duration": 4, "velocity": 92}, {"time": 1376, "pitch": 55, "duration": 3, "velocity": 87}, {"time": 1382, "pitch": 45, "duration": 23, "velocity": 86}, {"time": 1382, "pitch": 57, "duration": 7, "velocity": 85}, {"time": 1382, "pitch": 60, "duration": 7, "velocity": 85}, {"time": 1388, "pitch": 52, "duration": 8, "velocity": 73}, {"time": 1394, "pitch": 57, "duration": 2, "velocity": 82}, {"time": 1394, "pitch": 64, "duration": 2, "velocity": 88}, {"time": 1400, "pitch": 52, "duration": 6, "velocity": 78}, {"time": 1406, "pitch": 57, "duration": 4, "velocity": 82}, {"time": 1406, "pitch": 60, "duration": 5, "velocity": 86}, {"time": 1412, "pitch": 57, "duration": 2, "velocity": 74}, {"time": 1418, "pitch": 52, "duration": 2, "velocity": 88}, {"time": 1418, "pitch": 57, "duration": 2, "velocity": 87}, {"time": 1418, "pitch": 60, "duration": 4, "velocity": 95}, {"time": 1418, "pitch": 64, "duration": 5, "velocity": 91}, {"time": 1424, "pitch": 57, "duration": 2, "velocity": 87}, {"time": 1430, "pitch": 40, "duration": 38, "velocity": 89}, {"time": 1430, "pitch": 52, "duration": 9, "velocity": 88}, {"time": 1430, "pitch": 55, "duration": 8, "velocity": 85}, {"time": 1436, "pitch": 47, "duration": 21, "velocity": 73}, {"time": 1442, "pitch": 52, "duration": 3, "velocity": 87}, {"time": 1442, "pitch": 55, "duration": 7, "velocity": 85}, {"time": 1448, "pitch": 52, "duration": 3, "velocity": 84}, {"time": 1454, "pitch": 55, "duration": 7, "velocity": 87}, {"time": 1454, "pitch": 59, "duration": 7, "velocity": 86}, {"time": 1460, "pitch": 47, "duration": 9, "velocity": 81}, {"time": 1466, "pitch": 55, "duration": 6, "velocity": 90}, {"time": 1466, "pitch": 59, "duration": 7, "velocity": 88}, {"time": 1472, "pitch": 40, "duration": 3, "velocity": 93}, {"time": 1478, "pitch": 41, "duration": 35, "velocity": 89}, {"time": 1478, "pitch": 53, "duration": 5, "velocity": 83}, {"time": 1478, "pitch": 57, "duration": 7, "velocity": 82}, {"time": 1484, "pitch": 48, "duration": 9, "velocity": 75}, {"time": 1490, "pitch": 53, "duration": 3, "velocity": 87}, {"time": 1490, "pitch": 60, "duration": 4, "velocity": 88}, {"time": 1496, "pitch": 48, "duration": 15, "velocity": 85}, {"time": 1502, "pitch": 65, "duration": 8, "velocity": 90}, {"time": 1508, "pitch": 53, "duration": 4, "velocity": 88}, {"time": 1514, "pitch": 41, "duration": 3, "velocity": 86}, {"time": 1514, "pitch": 48, "duration": 2, "velocity": 85}, {"time": 1514, "pitch": 53, "duration": 2, "velocity": 88}, {"time": 1514, "pitch": 57, "duration": 4, "velocity": 93}, {"time": 1514, "pitch": 60, "duration": 5, "velocity": 91}, {"time": 1520, "pitch": 53, "duration": 2, "velocity": 92}, {"time": 1526, "pitch": 40, "duration": 36, "velocity": 89}, {"time": 1526, "pitch": 52, "duration": 8, "velocity": 82}, {"time": 1526, "pitch": 55, "duration": 8, "velocity": 81}, {"time": 1532, "pitch": 47, "duration": 10, "velocity": 77}, {"time": 1538, "pitch": 52, "duration": 3, "velocity": 88}, {"time": 1538, "pitch": 64, "duration": 6, "velocity": 90}, {"time": 1544, "pitch": 47, "duration": 8, "velocity": 86}, {"time": 1544, "pitch": 52, "duration": 2, "velocity": 82}, {"time": 1550, "pitch": 52, "duration": 4, "velocity": 87}, {"time": 1550, "pitch": 59, "duration": 5, "velocity": 87}, {"time": 1556, "pitch": 47, "duration": 7, "velocity": 87}, {"time": 1562, "pitch": 52, "duration": 3, "velocity": 93}, {"time": 1562, "pitch": 55, "duration": 3, "velocity": 93}, {"time": 1568, "pitch": 40, "duration": 2, "velocity": 89}, {"time": 1574, "pitch": 38, "duration": 18, "velocity": 88}, {"time": 1574, "pitch": 57, "duration": 4, "velocity": 81}, {"time": 1574, "pitch": 62, "duration": 7, "velocity": 86}, {"time": 1580, "pitch": 57, "duration": 2, "velocity": 87}, {"time": 1586, "pitch": 57, "duration": 2, "velocity": 91}, {"time": 1586, "pitch": 65, "duration": 7, "velocity": 88}, {"time": 1592, "pitch": 57, "duration": 3, "velocity": 95}, {"time": 1598, "pitch": 50, "duration": 11, "velocity": 92}, {"time": 1598, "pitch": 57, "duration": 3, "velocity": 86}, {"time": 1598, "pitch": 62, "duration": 8, "velocity": 87}, {"time": 1604, "pitch": 57, "duration": 3, "velocity": 85}, {"time": 1610, "pitch": 57, "duration": 3, "velocity": 81}, {"time": 1610, "pitch": 62, "duration": 7, "velocity": 87}, {"time": 1610, "pitch": 65, "duration": 6, "velocity": 88}, {"time": 1616, "pitch": 57, "duration": 2, "velocity": 88}, {"time": 1622, "pitch": 43, "duration": 42, "velocity": 86}, {"time": 1622, "pitch": 55, "duration": 7, "velocity": 87}, {"time": 1622, "pitch": 59, "duration": 6, "velocity": 88}, {"time": 1628, "pitch": 50, "duration": 21, "velocity": 82}, {"time": 1634, "pitch": 55, "duration": 2, "velocity": 91}, {"time": 1634, "pitch": 62, "duration": 4, "velocity": 88}, {"time": 1640, "pitch": 55, "duration": 3, "velocity": 85}, {"time": 1646, "pitch": 55, "duration": 2, "velocity": 92}, {"time": 1646, "pitch": 67, "duration": 5, "velocity": 87}, {"time": 1652, "pitch": 50, "duration": 8, "velocity": 83}, {"time": 1652, "pitch": 55, "duration": 4, "velocity": 76}, {"time": 1658, "pitch": 55, "duration": 3, "velocity": 88}, {"time": 1658, "pitch": 62, "duration": 9, "velocity": 86}, {"time": 1664, "pitch": 55, "duration": 5, "velocity": 92}, {"time": 1670, "pitch": 48, "duration": 21, "velocity": 92}, {"time": 1670, "pitch": 60, "duration": 7, "velocity": 82}, {"time": 1670, "pitch": 64, "duration": 7, "velocity": 88}, {"time": 1676, "pitch": 55, "duration": 5, "velocity": 81}, {"time": 1682, "pitch": 60, "duration": 5, "velocity": 81}, {"time": 1688, "pitch": 55, "duration": 3, "velocity": 88}, {"time": 1694, "pitch": 60, "duration": 4, "velocity": 89}, {"time": 1694, "pitch": 64, "duration": 7, "velocity": 90}, {"time": 1700, "pitch": 55, "duration": 2, "velocity": 84}, {"time": 1706, "pitch": 48, "duration": 2, "velocity": 95}, {"time": 1706, "pitch": 55, "duration": 2, "velocity": 86}, {"time": 1706, "pitch": 60, "duration": 4, "velocity": 87}, {"time": 1712, "pitch": 55, "duration": 3, "velocity": 86}, {"time": 1718, "pitch": 43, "duration": 36, "velocity": 82}, {"time": 1718, "pitch": 55, "duration": 3, "velocity": 86}, {"time": 1718, "pitch": 59, "duration": 7, "velocity": 86}, {"time": 1724, "pitch": 55, "duration": 2, "velocity": 86}, {"time": 1730, "pitch": 55, "duration": 3, "velocity": 86}, {"time": 1730, "pitch": 62, "duration": 4, "velocity": 81}, {"time": 1736, "pitch": 55, "duration": 3, "velocity": 80}, {"time": 1742, "pitch": 67, "duration": 5, "velocity": 88}, {"time": 1748, "pitch": 55, "duration": 3, "velocity": 88}, {"time": 1754, "pitch": 55, "duration": 2, "velocity": 89}, {"time": 1754, "pitch": 59, "duration": 4, "velocity": 92}, {"time": 1760, "pitch": 55, "duration": 3, "velocity": 87}, {"time": 1766, "pitch": 45, "duration": 23, "velocity": 86}, {"time": 1766, "pitch": 57, "duration": 7, "velocity": 85}, {"time": 1766, "pitch": 60, "duration": 7, "velocity": 85}, {"time": 1772, "pitch": 52, "duration": 8, "velocity": 73}, {"time": 1778, "pitch": 57, "duration": 2, "velocity": 82}, {"time": 1778, "pitch": 64, "duration": 2, "velocity": 88}, {"time": 1784, "pitch": 52, "duration": 6, "velocity": 78}, {"time": 1790, "pitch": 57, "duration": 4, "velocity": 82}, {"time": 1790, "pitch": 60, "duration": 5, "velocity": 86}, {"time": 1796, "pitch": 57, "duration": 2, "velocity": 74}, {"time": 1802, "pitch": 52, "duration": 2, "velocity": 88}, {"time": 1802, "pitch": 57, "duration": 2, "velocity": 87}, {"time": 1802, "pitch": 60, "duration": 4, "velocity": 95}, {"time": 1802, "pitch": 64, "duration": 5, "velocity": 91}, {"time": 1808, "pitch": 57, "duration": 2, "velocity": 87}, {"time": 1814, "pitch": 40, "duration": 38, "velocity": 89}, {"time": 1814, "pitch": 52, "duration": 9, "velocity": 88}, {"time": 1814, "pitch": 55, "duration": 8, "velocity": 85}, {"time": 1820, "pitch": 47, "duration": 21, "velocity": 73}, {"time": 1826, "pitch": 52, "duration": 3, "velocity": 87}, {"time": 1826, "pitch": 55, "duration": 7, "velocity": 85}, {"time": 1832, "pitch": 52, "duration": 3, "velocity": 84}, {"time": 1838, "pitch": 55, "duration": 7, "velocity": 87}, {"time": 1838, "pitch": 59, "duration": 7, "velocity": 86}, {"time": 1844, "pitch": 47, "duration": 9, "velocity": 81}, {"time": 1850, "pitch": 55, "duration": 6, "velocity": 90}, {"time": 1850, "pitch": 59, "duration": 7, "velocity": 88}, {"time": 1856, "pitch": 40, "duration": 3, "velocity": 93}, {"time": 1862, "pitch": 41, "duration": 35, "velocity": 89}, {"time": 1862, "pitch": 53, "duration": 5, "velocity": 83}, {"time": 1862, "pitch": 57, "duration": 7, "velocity": 82}, {"time": 1868, "pitch": 48, "duration": 9, "velocity": 75}, {"time": 1874, "pitch": 53, "duration": 3, "velocity": 87}, {"time": 1874, "pitch": 60, "duration": 4, "velocity": 88}, {"time": 1880, "pitch": 48, "duration": 15, "velocity": 85}, {"time": 1886, "pitch": 65, "duration": 8, "velocity": 90}, {"time": 1892, "pitch": 53, "duration": 4, "velocity": 88}, {"time": 1898, "pitch": 41, "duration": 3, "velocity": 86}, {"time": 1898, "pitch": 48, "duration": 2, "velocity": 85}, {"time": 1898, "pitch": 53, "duration": 2, "velocity": 88}, {"time": 1898, "pitch": 57, "duration": 4, "velocity": 93}, {"time": 1898, "pitch": 60, "duration": 5, "velocity": 91}, {"time": 1904, "pitch": 53, "duration": 2, "velocity": 92}, {"time": 1910, "pitch": 40, "duration": 36, "velocity": 89}, {"time": 1910, "pitch": 52, "duration": 8, "velocity": 82}, {"time": 1910, "pitch": 55, "duration": 8, "velocity": 81}, {"time": 1916, "pitch": 47, "duration": 10, "velocity": 77}, {"time": 1922, "pitch": 52, "duration": 3, "velocity": 88}, {"time": 1922, "pitch": 64, "duration": 6, "velocity": 90}, {"time": 1928, "pitch": 47, "duration": 8, "velocity": 86}, {"time": 1928, "pitch": 52, "duration": 2, "velocity": 82}, {"time": 1934, "pitch": 52, "duration": 4, "velocity": 87}, {"time": 1934, "pitch": 59, "duration": 5, "velocity": 87}, {"time": 1940, "pitch": 47, "duration": 7, "velocity": 87}, {"time": 1946, "pitch": 52, "duration": 3, "velocity": 93}, {"time": 1946, "pitch": 55, "duration": 3, "velocity": 93}, {"time": 1952, "pitch": 40, "duration": 2, "velocity": 89}, {"time": 1958, "pitch": 38, "duration": 18, "velocity": 88}, {"time": 1958, "pitch": 57, "duration": 4, "velocity": 81}, {"time": 1958, "pitch": 62, "duration": 7, "velocity": 86}, {"time": 1964, "pitch": 57, "duration": 2, "velocity": 87}, {"time": 1970, "pitch": 57, "duration": 2, "velocity": 91}, {"time": 1970, "pitch": 65, "duration": 7, "velocity": 88}, {"time": 1976, "pitch": 57, "duration": 3, "velocity": 95}, {"time": 1982, "pitch": 50, "duration": 11, "velocity": 92}, {"time": 1982, "pitch": 57, "duration": 3, "velocity": 86}, {"time": 1982, "pitch": 62, "duration": 8, "velocity": 87}, {"time": 1988, "pitch": 57, "duration": 3, "velocity": 85}, {"time": 1994, "pitch": 57, "duration": 3, "velocity": 81}, {"time": 1994, "pitch": 62, "duration": 7, "velocity": 87}, {"time": 1994, "pitch": 65, "duration": 6, "velocity": 88}, {"time": 2000, "pitch": 57, "duration": 2, "velocity": 88}, {"time": 2006, "pitch": 43, "duration": 42, "velocity": 86}, {"time": 2006, "pitch": 55, "duration": 7, "velocity": 87}, {"time": 2006, "pitch": 59, "duration": 6, "velocity": 88}, {"time": 2012, "pitch": 50, "duration": 21, "velocity": 82}, {"time": 2018, "pitch": 55, "duration": 2, "velocity": 91}, {"time": 2018, "pitch": 62, "duration": 4, "velocity": 88}, {"time": 2024, "pitch": 55, "duration": 3, "velocity": 85}, {"time": 2030, "pitch": 55, "duration": 2, "velocity": 92}, {"time": 2030, "pitch": 67, "duration": 5, "velocity": 87}, {"time": 2036, "pitch": 50, "duration": 8, "velocity": 83}, {"time": 2036, "pitch": 55, "duration": 4, "velocity": 76}, {"time": 2042, "pitch": 55, "duration": 3, "velocity": 88}, {"time": 2042, "pitch": 62, "duration": 9, "velocity": 86}, {"time": 2048, "pitch": 55, "duration": 5, "velocity": 92}, {"time": 2054, "pitch": 48, "duration": 39, "velocity": 100}, {"time": 2060, "pitch": 55, "duration": 7, "velocity": 86}, {"time": 2066, "pitch": 60, "duration": 7, "velocity": 81}, {"time": 2072, "pitch": 55, "duration": 2, "velocity": 74}, {"time": 2078, "pitch": 55, "duration": 2, "velocity": 79}, {"time": 2078, "pitch": 60, "duration": 5, "velocity": 82}, {"time": 2078, "pitch": 64, "duration": 5, "velocity": 87}, {"time": 2090, "pitch": 55, "duration": 2, "velocity": 77}, {"time": 2090, "pitch": 60, "duration": 6, "velocity": 81}, {"time": 2096, "pitch": 55, "duration": 8, "velocity": 85}, {"time": 2102, "pitch": 43, "duration": 38, "velocity": 87}, {"time": 2108, "pitch": 55, "duration": 7, "velocity": 77}, {"time": 2114, "pitch": 62, "duration": 6, "velocity": 86}, {"time": 2120, "pitch": 50, "duration": 8, "velocity": 81}, {"time": 2126, "pitch": 55, "duration": 5, "velocity": 78}, {"time": 2126, "pitch": 59, "duration": 5, "velocity": 79}, {"time": 2132, "pitch": 50, "duration": 7, "velocity": 65}, {"time": 2138, "pitch": 55, "duration": 2, "velocity": 86}, {"time": 2138, "pitch": 59, "duration": 3, "velocity": 87}, {"time": 2138, "pitch": 62, "duration": 3, "velocity": 86}, {"time": 2150, "pitch": 45, "duration": 37, "velocity": 87}, {"time": 2150, "pitch": 57, "duration": 8, "velocity": 73}, {"time": 2150, "pitch": 60, "duration": 9, "velocity": 82}, {"time": 2156, "pitch": 52, "duration": 8, "velocity": 76}, {"time": 2162, "pitch": 57, "duration": 6, "velocity": 84}, {"time": 2168, "pitch": 52, "duration": 7, "velocity": 78}, {"time": 2174, "pitch": 57, "duration": 5, "velocity": 77}, {"time": 2174, "pitch": 60, "duration": 4, "velocity": 78}, {"time": 2180, "pitch": 52, "duration": 5, "velocity": 70}, {"time": 2186, "pitch": 60, "duration": 5, "velocity": 81}, {"time": 2186, "pitch": 64, "duration": 5, "velocity": 89}, {"time": 2192, "pitch": 57, "duration": 2, "velocity": 87}, {"time": 2198, "pitch": 41, "duration": 40, "velocity": 86}, {"time": 2198, "pitch": 53, "duration": 12, "velocity": 84}, {"time": 2198, "pitch": 57, "duration": 13, "velocity": 81}, {"time": 2204, "pitch": 48, "duration": 32, "velocity": 73}, {"time": 2210, "pitch": 60, "duration": 3, "velocity": 86}, {"time": 2216, "pitch": 53, "duration": 7, "velocity": 86}, {"time": 2222, "pitch": 65, "duration": 8, "velocity": 86}, {"time": 2228, "pitch": 53, "duration": 7, "velocity": 86}, {"time": 2234, "pitch": 57, "duration": 7, "velocity": 72}, {"time": 2240, "pitch": 53, "duration": 4, "velocity": 87}, {"time": 2246, "pitch": 48, "duration": 39, "velocity": 100}, {"time": 2252, "pitch": 55, "duration": 7, "velocity": 86}, {"time": 2258, "pitch": 60, "duration": 7, "velocity": 81}, {"time": 2264, "pitch": 55, "duration": 2, "velocity": 74}, {"time": 2270, "pitch": 55, "duration": 2, "velocity": 79}, {"time": 2270, "pitch": 60, "duration": 5, "velocity": 82}, {"time": 2270, "pitch": 64, "duration": 5, "velocity": 87}, {"time": 2282, "pitch": 55, "duration": 2, "velocity": 77}, {"time": 2282, "pitch": 60, "duration": 6, "velocity": 81}, {"time": 2288, "pitch": 55, "duration": 8, "velocity": 85}, {"time": 2294, "pitch": 43, "duration": 38, "velocity": 87}, {"time": 2300, "pitch": 55, "duration": 7, "velocity": 77}, {"time": 2306, "pitch": 62, "duration": 6, "velocity": 86}, {"time": 2312, "pitch": 50, "duration": 8, "velocity": 81}, {"time": 2318, "pitch": 55, "duration": 5, "velocity": 78}, {"time": 2318, "pitch": 59, "duration": 5, "velocity": 79}, {"time": 2324, "pitch": 50, "duration": 7, "velocity": 65}, {"time": 2330, "pitch": 55, "duration": 2, "velocity": 86}, {"time": 2330, "pitch": 59, "duration": 3, "velocity": 87}, {"time": 2330, "pitch": 62, "duration": 3, "velocity": 86}, {"time": 2342, "pitch": 45, "duration": 37, "velocity": 87}, {"time": 2342, "pitch": 57, "duration": 8, "velocity": 73}, {"time": 2342, "pitch": 60, "duration": 9, "velocity": 82}, {"time": 2348, "pitch": 52, "duration": 8, "velocity": 76}, {"time": 2354, "pitch": 57, "duration": 6, "velocity": 84}, {"time": 2360, "pitch": 52, "duration": 7, "velocity": 78}, {"time": 2366, "pitch": 57, "duration": 5, "velocity": 77}, {"time": 2366, "pitch": 60, "duration": 4, "velocity": 78}, {"time": 2372, "pitch": 52, "duration": 5, "velocity": 70}, {"time": 2378, "pitch": 60, "duration": 5, "velocity": 81}, {"time": 2378, "pitch": 64, "duration": 5, "velocity": 89}, {"time": 2384, "pitch": 57, "duration": 2, "velocity": 87}, {"time": 2390, "pitch": 41, "duration": 40, "velocity": 86}, {"time": 2390, "pitch": 53, "duration": 12, "velocity": 84}, {"time": 2390, "pitch": 57, "duration": 13, "velocity": 81}, {"time": 2396, "pitch": 48, "duration": 32, "velocity": 73}, {"time": 2402, "pitch": 60, "duration": 3, "velocity": 86}, {"time": 2408, "pitch": 53, "duration": 7, "velocity": 86}, {"time": 2414, "pitch": 65, "duration": 8, "velocity": 86}, {"time": 2420, "pitch": 53, "duration": 7, "velocity": 86}, {"time": 2426, "pitch": 57, "duration": 7, "velocity": 72}, {"time": 2432, "pitch": 53, "duration": 4, "velocity": 87}, {"time": 2438, "pitch": 48, "duration": 39, "velocity": 100}, {"time": 2444, "pitch": 55, "duration": 7, "velocity": 86}, {"time": 2450, "pitch": 60, "duration": 7, "velocity": 81}, {"time": 2456, "pitch": 55, "duration": 2, "velocity": 74}, {"time": 2462, "pitch": 55, "duration": 2, "velocity": 79}, {"time": 2462, "pitch": 60, "duration": 5, "velocity": 82}, {"time": 2462, "pitch": 64, "duration": 5, "velocity": 87}, {"time": 2474, "pitch": 55, "duration": 2, "velocity": 77}, {"time": 2474, "pitch": 60, "duration": 6, "velocity": 81}, {"time": 2480, "pitch": 55, "duration": 8, "velocity": 85}, {"time": 2486, "pitch": 43, "duration": 38, "velocity": 87}, {"time": 2492, "pitch": 55, "duration": 7, "velocity": 77}, {"time": 2498, "pitch": 62, "duration": 6, "velocity": 86}, {"time": 2504, "pitch": 50, "duration": 8, "velocity": 81}, {"time": 2510, "pitch": 55, "duration": 5, "velocity": 78}, {"time": 2510, "pitch": 59, "duration": 5, "velocity": 79}, {"time": 2516, "pitch": 50, "duration": 7, "velocity": 65}, {"time": 2522, "pitch": 55, "duration": 2, "velocity": 86}, {"time": 2522, "pitch": 59, "duration": 3, "velocity": 87}, {"time": 2522, "pitch": 62, "duration": 3, "velocity": 86}, {"time": 2534, "pitch": 45, "duration": 37, "velocity": 87}, {"time": 2534, "pitch": 57, "duration": 8, "velocity": 73}, {"time": 2534, "pitch": 60, "duration": 9, "velocity": 82}, {"time": 2540, "pitch": 52, "duration": 8, "velocity": 76}, {"time": 2546, "pitch": 57, "duration": 6, "velocity": 84}, {"time": 2552, "pitch": 52, "duration": 7, "velocity": 78}, {"time": 2558, "pitch": 57, "duration": 5, "velocity": 77}, {"time": 2558, "pitch": 60, "duration": 4, "velocity": 78}, {"time": 2564, "pitch": 52, "duration": 5, "velocity": 70}, {"time": 2570, "pitch": 60, "duration": 5, "velocity": 81}, {"time": 2570, "pitch": 64, "duration": 5, "velocity": 89}, {"time": 2576, "pitch": 57, "duration": 2, "velocity": 87}, {"time": 2582, "pitch": 41, "duration": 40, "velocity": 86}, {"time": 2582, "pitch": 53, "duration": 12, "velocity": 84}, {"time": 2582, "pitch": 57, "duration": 13, "velocity": 81}, {"time": 2588, "pitch": 48, "duration": 32, "velocity": 73}, {"time": 2594, "pitch": 60, "duration": 3, "velocity": 86}, {"time": 2600, "pitch": 53, "duration": 7, "velocity": 86}, {"time": 2606, "pitch": 65, "duration": 8, "velocity": 86}, {"time": 2612, "pitch": 53, "duration": 7, "velocity": 86}, {"time": 2618, "pitch": 57, "duration": 7, "velocity": 72}, {"time": 2624, "pitch": 53, "duration": 4, "velocity": 87}, {"time": 2630, "pitch": 45, "duration": 22, "velocity": 86}, {"time": 2630, "pitch": 57, "duration": 9, "velocity": 76}, {"time": 2630, "pitch": 60, "duration": 8, "velocity": 82}, {"time": 2636, "pitch": 52, "duration": 14, "velocity": 81}, {"time": 2642, "pitch": 60, "duration": 8, "velocity": 84}, {"time": 2642, "pitch": 64, "duration": 7, "velocity": 87}, {"time": 2648, "pitch": 57, "duration": 7, "velocity": 86}, {"time": 2654, "pitch": 50, "duration": 12, "velocity": 90}, {"time": 2654, "pitch": 62, "duration": 8, "velocity": 87}, {"time": 2660, "pitch": 57, "duration": 6, "velocity": 86}, {"time": 2666, "pitch": 62, "duration": 2, "velocity": 85}, {"time": 2666, "pitch": 65, "duration": 4, "velocity": 83}, {"time": 2678, "pitch": 43, "duration": 23, "velocity": 86}, {"time": 2678, "pitch": 55, "duration": 9, "velocity": 81}, {"time": 2678, "pitch": 59, "duration": 8, "velocity": 81}, {"time": 2684, "pitch": 50, "duration": 13, "velocity": 78}, {"time": 2690, "pitch": 59, "duration": 5, "velocity": 82}, {"time": 2690, "pitch": 62, "duration": 6, "velocity": 81}, {"time": 2696, "pitch": 55, "duration": 3, "velocity": 87}, {"time": 2702, "pitch": 48, "duration": 12, "velocity": 87}, {"time": 2702, "pitch": 55, "duration": 2, "velocity": 85}, {"time": 2702, "pitch": 60, "duration": 7, "velocity": 83}, {"time": 2708, "pitch": 55, "duration": 3, "velocity": 87}, {"time": 2714, "pitch": 43, "duration": 8, "velocity": 79}, {"time": 2714, "pitch": 55, "duration": 3, "velocity": 86}, {"time": 2714, "pitch": 59, "duration": 6, "velocity": 85}, {"time": 2726, "pitch": 45, "duration": 22, "velocity": 83}, {"time": 2726, "pitch": 57, "duration": 9, "velocity": 85}, {"time": 2726, "pitch": 60, "duration": 8, "velocity": 87}, {"time": 2732, "pitch": 52, "duration": 15, "velocity": 77}, {"time": 2738, "pitch": 60, "duration": 4, "velocity": 87}, {"time": 2738, "pitch": 64, "duration": 7, "velocity": 87}, {"time": 2744, "pitch": 57, "duration": 6, "velocity": 86}, {"time": 2750, "pitch": 50, "duration": 13, "velocity": 86}, {"time": 2750, "pitch": 65, "duration": 8, "velocity": 87}, {"time": 2756, "pitch": 57, "duration": 4, "velocity": 88}, {"time": 2762, "pitch": 57, "duration": 2, "velocity": 82}, {"time": 2762, "pitch": 62, "duration": 5, "velocity": 87}, {"time": 2768, "pitch": 57, "duration": 3, "velocity": 80}, {"time": 2774, "pitch": 43, "duration": 20, "velocity": 82}, {"time": 2774, "pitch": 55, "duration": 10, "velocity": 78}, {"time": 2774, "pitch": 59, "duration": 8, "velocity": 77}, {"time": 2780, "pitch": 50, "duration": 12, "velocity": 78}, {"time": 2786, "pitch": 59, "duration": 3, "velocity": 83}, {"time": 2786, "pitch": 62, "duration": 3, "velocity": 86}, {"time": 2792, "pitch": 55, "duration": 3, "velocity": 87}, {"time": 2798, "pitch": 48, "duration": 12, "velocity": 86}, {"time": 2798, "pitch": 60, "duration": 8, "velocity": 87}, {"time": 2804, "pitch": 55, "duration": 4, "velocity": 88}, {"time": 2810, "pitch": 55, "duration": 3, "velocity": 88}, {"time": 2810, "pitch": 59, "duration": 7, "velocity": 86}, {"time": 2816, "pitch": 55, "duration": 3, "velocity": 86}, {"time": 2822, "pitch": 45, "duration": 21, "velocity": 86}, {"time": 2822, "pitch": 57, "duration": 7, "velocity": 80}, {"time": 2822, "pitch": 60, "duration": 7, "velocity": 86}, {"time": 2828, "pitch": 52, "duration": 14, "velocity": 79}, {"time": 2834, "pitch": 57, "duration": 1, "velocity": 78}, {"time": 2834, "pitch": 60, "duration": 7, "velocity": 87}, {"time": 2834, "pitch": 64, "duration": 6, "velocity": 87}, {"time": 2840, "pitch": 57, "duration": 6, "velocity": 82}, {"time": 2846, "pitch": 50, "duration": 12, "velocity": 86}, {"time": 2846, "pitch": 65, "duration": 8, "velocity": 88}, {"time": 2852, "pitch": 57, "duration": 4, "velocity": 87}, {"time": 2858, "pitch": 62, "duration": 5, "velocity": 87}, {"time": 2864, "pitch": 57, "duration": 2, "velocity": 81}, {"time": 2870, "pitch": 43, "duration": 18, "velocity": 84}, {"time": 2870, "pitch": 55, "duration": 8, "velocity": 81}, {"time": 2870, "pitch": 59, "duration": 7, "velocity": 79}, {"time": 2876, "pitch": 50, "duration": 12, "velocity": 75}, {"time": 2882, "pitch": 55, "duration": 1, "velocity": 76}, {"time": 2882, "pitch": 59, "duration": 7, "velocity": 86}, {"time": 2882, "pitch": 62, "duration": 10, "velocity": 83}, {"time": 2888, "pitch": 55, "duration": 3, "velocity": 82}, {"time": 2894, "pitch": 45, "duration": 16, "velocity": 86}, {"time": 2894, "pitch": 57, "duration": 8, "velocity": 81}, {"time": 2894, "pitch": 60, "duration": 7, "velocity": 86}, {"time": 2900, "pitch": 52, "duration": 10, "velocity": 80}, {"time": 2906, "pitch": 57, "duration": 2, "velocity": 82}, {"time": 2906, "pitch": 60, "duration": 5, "velocity": 86}, {"time": 2906, "pitch": 64, "duration": 6, "velocity": 87}, {"time": 2912, "pitch": 57, "duration": 3, "velocity": 79}, {"time": 2918, "pitch": 46, "duration": 27, "velocity": 88}, {"time": 2918, "pitch": 58, "duration": 7, "velocity": 75}, {"time": 2918, "pitch": 62, "duration": 10, "velocity": 82}, {"time": 2924, "pitch": 53, "duration": 9, "velocity": 75}, {"time": 2930, "pitch": 58, "duration": 9, "velocity": 90}, {"time": 2936, "pitch": 53, "duration": 7, "velocity": 78}, {"time": 2942, "pitch": 58, "duration": 7, "velocity": 85}, {"time": 2942, "pitch": 62, "duration": 7, "velocity": 83}, {"time": 2942, "pitch": 65, "duration": 7, "velocity": 83}, {"time": 2948, "pitch": 53, "duration": 8, "velocity": 76}, {"time": 2954, "pitch": 58, "duration": 3, "velocity": 84}, {"time": 2954, "pitch": 62, "duration": 9, "velocity": 86}, {"time": 2960, "pitch": 58, "duration": 2, "velocity": 79}, {"time": 2966, "pitch": 43, "duration": 3, "velocity": 86}, {"time": 2966, "pitch": 55, "duration": 2, "velocity": 87}, {"time": 2966, "pitch": 59, "duration": 2, "velocity": 88}, {"time": 2972, "pitch": 43, "duration": 3, "velocity": 86}, {"time": 2972, "pitch": 55, "duration": 3, "velocity": 87}, {"time": 2972, "pitch": 59, "duration": 3, "velocity": 87}, {"time": 2984, "pitch": 43, "duration": 3, "velocity": 84}, {"time": 2984, "pitch": 55, "duration": 3, "velocity": 80}, {"time": 2984, "pitch": 59, "duration": 3, "velocity": 79}, {"time": 2984, "pitch": 62, "duration": 3, "velocity": 81}, {"time": 2990, "pitch": 43, "duration": 15, "velocity": 88}, {"time": 2990, "pitch": 55, "duration": 9, "velocity": 87}, {"time": 2990, "pitch": 59, "duration": 8, "velocity": 91}, {"time": 2990, "pitch": 62, "duration": 8, "velocity": 87}, {"time": 2990, "pitch": 67, "duration": 8, "velocity": 87}, {"time": 2996, "pitch": 50, "duration": 8, "velocity": 87}, {"time": 3002, "pitch": 55, "duration": 4, "velocity": 86}, {"time": 3002, "pitch": 59, "duration": 10, "velocity": 87}, {"time": 3002, "pitch": 62, "duration": 11, "velocity": 87}, {"time": 3008, "pitch": 50, "duration": 5, "velocity": 87}, {"time": 3014, "pitch": 48, "duration": 21, "velocity": 92}, {"time": 3014, "pitch": 60, "duration": 7, "velocity": 82}, {"time": 3014, "pitch": 64, "duration": 7, "velocity": 88}, {"time": 3020, "pitch": 55, "duration": 5, "velocity": 81}, {"time": 3026, "pitch": 60, "duration": 5, "velocity": 81}, {"time": 3032, "pitch": 55, "duration": 3, "velocity": 88}, {"time": 3038, "pitch": 60, "duration": 4, "velocity": 89}, {"time": 3038, "pitch": 64, "duration": 7, "velocity": 90}, {"time": 3044, "pitch": 55, "duration": 2, "velocity": 84}, {"time": 3050, "pitch": 48, "duration": 2, "velocity": 95}, {"time": 3050, "pitch": 55, "duration": 2, "velocity": 86}, {"time": 3050, "pitch": 60, "duration": 4, "velocity": 87}, {"time": 3056, "pitch": 55, "duration": 3, "velocity": 86}, {"time": 3062, "pitch": 43, "duration": 36, "velocity": 82}, {"time": 3062, "pitch": 55, "duration": 3, "velocity": 86}, {"time": 3062, "pitch": 59, "duration": 7, "velocity": 86}, {"time": 3068, "pitch": 55, "duration": 2, "velocity": 86}, {"time": 3074, "pitch": 55, "duration": 3, "velocity": 86}, {"time": 3074, "pitch": 62, "duration": 4, "velocity": 81}, {"time": 3080, "pitch": 55, "duration": 3, "velocity": 80}, {"time": 3086, "pitch": 67, "duration": 5, "velocity": 88}, {"time": 3092, "pitch": 55, "duration": 3, "velocity": 88}, {"time": 3098, "pitch": 55, "duration": 2, "velocity": 89}, {"time": 3098, "pitch": 59, "duration": 4, "velocity": 92}, {"time": 3104, "pitch": 55, "duration": 3, "velocity": 87}, {"time": 3110, "pitch": 45, "duration": 23, "velocity": 86}, {"time": 3110, "pitch": 57, "duration": 7, "velocity": 85}, {"time": 3110, "pitch": 60, "duration": 7, "velocity": 85}, {"time": 3116, "pitch": 52, "duration": 8, "velocity": 73}, {"time": 3122, "pitch": 57, "duration": 2, "velocity": 82}, {"time": 3122, "pitch": 64, "duration": 2, "velocity": 88}, {"time": 3128, "pitch": 52, "duration": 6, "velocity": 78}, {"time": 3134, "pitch": 57, "duration": 4, "velocity": 82}, {"time": 3134, "pitch": 60, "duration": 5, "velocity": 86}, {"time": 3140, "pitch": 57, "duration": 2, "velocity": 74}, {"time": 3146, "pitch": 52, "duration": 2, "velocity": 88}, {"time": 3146, "pitch": 57, "duration": 2, "velocity": 87}, {"time": 3146, "pitch": 60, "duration": 4, "velocity": 95}, {"time": 3146, "pitch": 64, "duration": 5, "velocity": 91}, {"time": 3152, "pitch": 57, "duration": 2, "velocity": 87}, {"time": 3158, "pitch": 40, "duration": 38, "velocity": 89}, {"time": 3158, "pitch": 52, "duration": 9, "velocity": 88}, {"time": 3158, "pitch": 55, "duration": 8, "velocity": 85}, {"time": 3164, "pitch": 47, "duration": 21, "velocity": 73}, {"time": 3170, "pitch": 52, "duration": 3, "velocity": 87}, {"time": 3170, "pitch": 55, "duration": 7, "velocity": 85}, {"time": 3176, "pitch": 52, "duration": 3, "velocity": 84}, {"time": 3182, "pitch": 55, "duration": 7, "velocity": 87}, {"time": 3182, "pitch": 59, "duration": 7, "velocity": 86}, {"time": 3188, "pitch": 47, "duration": 9, "velocity": 81}, {"time": 3194, "pitch": 55, "duration": 6, "velocity": 90}, {"time": 3194, "pitch": 59, "duration": 7, "velocity": 88}, {"time": 3200, "pitch": 40, "duration": 3, "velocity": 93}, {"time": 3206, "pitch": 41, "duration": 35, "velocity": 89}, {"time": 3206, "pitch": 53, "duration": 5, "velocity": 83}, {"time": 3206, "pitch": 57, "duration": 7, "velocity": 82}, {"time": 3212, "pitch": 48, "duration": 9, "velocity": 75}, {"time": 3218, "pitch": 53, "duration": 3, "velocity": 87}, {"time": 3218, "pitch": 60, "duration": 4, "velocity": 88}, {"time": 3224, "pitch": 48, "duration": 15, "velocity": 85}, {"time": 3230, "pitch": 65, "duration": 8, "velocity": 90}, {"time": 3236, "pitch": 53, "duration": 4, "velocity": 88}, {"time": 3242, "pitch": 41, "duration": 3, "velocity": 86}, {"time": 3242, "pitch": 48, "duration": 2, "velocity": 85}, {"time": 3242, "pitch": 53, "duration": 2, "velocity": 88}, {"time": 3242, "pitch": 57, "duration": 4, "velocity": 93}, {"time": 3242, "pitch": 60, "duration": 5, "velocity": 91}, {"time": 3248, "pitch": 53, "duration": 2, "velocity": 92}, {"time": 3254, "pitch": 40, "duration": 36, "velocity": 89}, {"time": 3254, "pitch": 52, "duration": 8, "velocity": 82}, {"time": 3254, "pitch": 55, "duration": 8, "velocity": 81}, {"time": 3260, "pitch": 47, "duration": 10, "velocity": 77}, {"time": 3266, "pitch": 52, "duration": 3, "velocity": 88}, {"time": 3266, "pitch": 64, "duration": 6, "velocity": 90}, {"time": 3272, "pitch": 47, "duration": 8, "velocity": 86}, {"time": 3272, "pitch": 52, "duration": 2, "velocity": 82}, {"time": 3278, "pitch": 52, "duration": 4, "velocity": 87}, {"time": 3278, "pitch": 59, "duration": 5, "velocity": 87}, {"time": 3284, "pitch": 47, "duration": 7, "velocity": 87}, {"time": 3290, "pitch": 52, "duration": 3, "velocity": 93}, {"time": 3290, "pitch": 55, "duration": 3, "velocity": 93}, {"time": 3296, "pitch": 40, "duration": 2, "velocity": 89}, {"time": 3302, "pitch": 38, "duration": 18, "velocity": 88}, {"time": 3302, "pitch": 57, "duration": 4, "velocity": 81}, {"time": 3302, "pitch": 62, "duration": 7, "velocity": 86}, {"time": 3308, "pitch": 57, "duration": 2, "velocity": 87}, {"time": 3314, "pitch": 57, "duration": 2, "velocity": 91}, {"time": 3314, "pitch": 65, "duration": 7, "velocity": 88}, {"time": 3320, "pitch": 57, "duration": 3, "velocity": 95}, {"time": 3326, "pitch": 50, "duration": 11, "velocity": 92}, {"time": 3326, "pitch": 57, "duration": 3, "velocity": 86}, {"time": 3326, "pitch": 62, "duration": 8, "velocity": 87}, {"time": 3332, "pitch": 57, "duration": 3, "velocity": 85}, {"time": 3338, "pitch": 57, "duration": 3, "velocity": 81}, {"time": 3338, "pitch": 62, "duration": 7, "velocity": 87}, {"time": 3338, "pitch": 65, "duration": 6, "velocity": 88}, {"time": 3344, "pitch": 57, "duration": 2, "velocity": 88}, {"time": 3350, "pitch": 43, "duration": 42, "velocity": 86}, {"time": 3350, "pitch": 55, "duration": 7, "velocity": 87}, {"time": 3350, "pitch": 59, "duration": 6, "velocity": 88}, {"time": 3356, "pitch": 50, "duration": 21, "velocity": 82}, {"time": 3362, "pitch": 55, "duration": 2, "velocity": 91}, {"time": 3362, "pitch": 62, "duration": 4, "velocity": 88}, {"time": 3368, "pitch": 55, "duration": 3, "velocity": 85}, {"time": 3374, "pitch": 55, "duration": 2, "velocity": 92}, {"time": 3374, "pitch": 67, "duration": 5, "velocity": 87}, {"time": 3380, "pitch": 50, "duration": 8, "velocity": 83}, {"time": 3380, "pitch": 55, "duration": 4, "velocity": 76}, {"time": 3386, "pitch": 55, "duration": 3, "velocity": 88}, {"time": 3386, "pitch": 62, "duration": 9, "velocity": 86}, {"time": 3392, "pitch": 55, "duration": 5, "velocity": 92}, {"time": 3398, "pitch": 48, "duration": 21, "velocity": 92}, {"time": 3398, "pitch": 60, "duration": 7, "velocity": 82}, {"time": 3398, "pitch": 64, "duration": 7, "velocity": 88}, {"time": 3404, "pitch": 55, "duration": 5, "velocity": 81}, {"time": 3410, "pitch": 60, "duration": 5, "velocity": 81}, {"time": 3416, "pitch": 55, "duration": 3, "velocity": 88}, {"time": 3422, "pitch": 60, "duration": 4, "velocity": 89}, {"time": 3422, "pitch": 64, "duration": 7, "velocity": 90}, {"time": 3428, "pitch": 55, "duration": 2, "velocity": 84}, {"time": 3434, "pitch": 48, "duration": 2, "velocity": 95}, {"time": 3434, "pitch": 55, "duration": 2, "velocity": 86}, {"time": 3434, "pitch": 60, "duration": 4, "velocity": 87}, {"time": 3440, "pitch": 55, "duration": 3, "velocity": 86}, {"time": 3446, "pitch": 43, "duration": 36, "velocity": 82}, {"time": 3446, "pitch": 55, "duration": 3, "velocity": 86}, {"time": 3446, "pitch": 59, "duration": 7, "velocity": 86}, {"time": 3452, "pitch": 55, "duration": 2, "velocity": 86}, {"time": 3458, "pitch": 55, "duration": 3, "velocity": 86}, {"time": 3458, "pitch": 62, "duration": 4, "velocity": 81}, {"time": 3464, "pitch": 55, "duration": 3, "velocity": 80}, {"time": 3470, "pitch": 67, "duration": 5, "velocity": 88}, {"time": 3476, "pitch": 55, "duration": 3, "velocity": 88}, {"time": 3482, "pitch": 55, "duration": 2, "velocity": 89}, {"time": 3482, "pitch": 59, "duration": 4, "velocity": 92}, {"time": 3488, "pitch": 55, "duration": 3, "velocity": 87}, {"time": 3494, "pitch": 45, "duration": 23, "velocity": 86}, {"time": 3494, "pitch": 57, "duration": 7, "velocity": 85}, {"time": 3494, "pitch": 60, "duration": 7, "velocity": 85}, {"time": 3500, "pitch": 52, "duration": 8, "velocity": 73}, {"time": 3506, "pitch": 57, "duration": 2, "velocity": 82}, {"time": 3506, "pitch": 64, "duration": 2, "velocity": 88}, {"time": 3512, "pitch": 52, "duration": 6, "velocity": 78}, {"time": 3518, "pitch": 57, "duration": 4, "velocity": 82}, {"time": 3518, "pitch": 60, "duration": 5, "velocity": 86}, {"time": 3524, "pitch": 57, "duration": 2, "velocity": 74}, {"time": 3530, "pitch": 52, "duration": 2, "velocity": 88}, {"time": 3530, "pitch": 57, "duration": 2, "velocity": 87}, {"time": 3530, "pitch": 60, "duration": 4, "velocity": 95}, {"time": 3530, "pitch": 64, "duration": 5, "velocity": 91}, {"time": 3536, "pitch": 57, "duration": 2, "velocity": 87}, {"time": 3542, "pitch": 40, "duration": 38, "velocity": 89}, {"time": 3542, "pitch": 52, "duration": 9, "velocity": 88}, {"time": 3542, "pitch": 55, "duration": 8, "velocity": 85}, {"time": 3548, "pitch": 47, "duration": 21, "velocity": 73}, {"time": 3554, "pitch": 52, "duration": 3, "velocity": 87}, {"time": 3554, "pitch": 55, "duration": 7, "velocity": 85}, {"time": 3560, "pitch": 52, "duration": 3, "velocity": 84}, {"time": 3566, "pitch": 55, "duration": 7, "velocity": 87}, {"time": 3566, "pitch": 59, "duration": 7, "velocity": 86}, {"time": 3572, "pitch": 47, "duration": 9, "velocity": 81}, {"time": 3578, "pitch": 55, "duration": 6, "velocity": 90}, {"time": 3578, "pitch": 59, "duration": 7, "velocity": 88}, {"time": 3584, "pitch": 40, "duration": 3, "velocity": 93}, {"time": 3590, "pitch": 41, "duration": 35, "velocity": 89}, {"time": 3590, "pitch": 53, "duration": 5, "velocity": 83}, {"time": 3590, "pitch": 57, "duration": 7, "velocity": 82}, {"time": 3596, "pitch": 48, "duration": 9, "velocity": 75}, {"time": 3602, "pitch": 53, "duration": 3, "velocity": 87}, {"time": 3602, "pitch": 60, "duration": 4, "velocity": 88}, {"time": 3608, "pitch": 48, "duration": 15, "velocity": 85}, {"time": 3614, "pitch": 65, "duration": 8, "velocity": 90}, {"time": 3620, "pitch": 53, "duration": 4, "velocity": 88}, {"time": 3626, "pitch": 41, "duration": 3, "velocity": 86}, {"time": 3626, "pitch": 48, "duration": 2, "velocity": 85}, {"time": 3626, "pitch": 53, "duration": 2, "velocity": 88}, {"time": 3626, "pitch": 57, "duration": 4, "velocity": 93}, {"time": 3626, "pitch": 60, "duration": 5, "velocity": 91}, {"time": 3632, "pitch": 53, "duration": 2, "velocity": 92}, {"time": 3638, "pitch": 40, "duration": 36, "velocity": 89}, {"time": 3638, "pitch": 52, "duration": 8, "velocity": 82}, {"time": 3638, "pitch": 55, "duration": 8, "velocity": 81}, {"time": 3644, "pitch": 47, "duration": 10, "velocity": 77}, {"time": 3650, "pitch": 52, "duration": 3, "velocity": 88}, {"time": 3650, "pitch": 64, "duration": 6, "velocity": 90}, {"time": 3656, "pitch": 47, "duration": 8, "velocity": 86}, {"time": 3656, "pitch": 52, "duration": 2, "velocity": 82}, {"time": 3662, "pitch": 52, "duration": 4, "velocity": 87}, {"time": 3662, "pitch": 59, "duration": 5, "velocity": 87}, {"time": 3668, "pitch": 47, "duration": 7, "velocity": 87}, {"time": 3674, "pitch": 52, "duration": 3, "velocity": 93}, {"time": 3674, "pitch": 55, "duration": 3, "velocity": 93}, {"time": 3680, "pitch": 40, "duration": 2, "velocity": 89}, {"time": 3686, "pitch": 38, "duration": 18, "velocity": 88}, {"time": 3686, "pitch": 57, "duration": 4, "velocity": 81}, {"time": 3686, "pitch": 62, "duration": 7, "velocity": 86}, {"time": 3692, "pitch": 57, "duration": 2, "velocity": 87}, {"time": 3698, "pitch": 57, "duration": 2, "velocity": 91}, {"time": 3698, "pitch": 65, "duration": 7, "velocity": 88}, {"time": 3704, "pitch": 57, "duration": 3, "velocity": 95}, {"time": 3710, "pitch": 50, "duration": 11, "velocity": 92}, {"time": 3710, "pitch": 57, "duration": 3, "velocity": 86}, {"time": 3710, "pitch": 62, "duration": 8, "velocity": 87}, {"time": 3716, "pitch": 57, "duration": 3, "velocity": 85}, {"time": 3722, "pitch": 57, "duration": 3, "velocity": 81}, {"time": 3722, "pitch": 62, "duration": 7, "velocity": 87}, {"time": 3722, "pitch": 65, "duration": 6, "velocity": 88}, {"time": 3728, "pitch": 57, "duration": 2, "velocity": 88}, {"time": 3734, "pitch": 43, "duration": 42, "velocity": 86}, {"time": 3734, "pitch": 55, "duration": 7, "velocity": 87}, {"time": 3734, "pitch": 59, "duration": 6, "velocity": 88}, {"time": 3740, "pitch": 50, "duration": 21, "velocity": 82}, {"time": 3746, "pitch": 55, "duration": 2, "velocity": 91}, {"time": 3746, "pitch": 62, "duration": 4, "velocity": 88}, {"time": 3752, "pitch": 55, "duration": 3, "velocity": 85}, {"time": 3758, "pitch": 55, "duration": 2, "velocity": 92}, {"time": 3758, "pitch": 67, "duration": 5, "velocity": 87}, {"time": 3764, "pitch": 50, "duration": 8, "velocity": 83}, {"time": 3764, "pitch": 55, "duration": 4, "velocity": 76}, {"time": 3770, "pitch": 55, "duration": 3, "velocity": 88}, {"time": 3770, "pitch": 62, "duration": 9, "velocity": 86}, {"time": 3776, "pitch": 55, "duration": 5, "velocity": 92}, {"time": 3782, "pitch": 48, "duration": 39, "velocity": 100}, {"time": 3788, "pitch": 55, "duration": 7, "velocity": 86}, {"time": 3794, "pitch": 60, "duration": 7, "velocity": 81}, {"time": 3800, "pitch": 55, "duration": 2, "velocity": 74}, {"time": 3806, "pitch": 55, "duration": 2, "velocity": 79}, {"time": 3806, "pitch": 60, "duration": 5, "velocity": 82}, {"time": 3806, "pitch": 64, "duration": 5, "velocity": 87}, {"time": 3818, "pitch": 55, "duration": 2, "velocity": 77}, {"time": 3818, "pitch": 60, "duration": 6, "velocity": 81}, {"time": 3824, "pitch": 55, "duration": 8, "velocity": 85}, {"time": 3830, "pitch": 43, "duration": 38, "velocity": 87}, {"time": 3836, "pitch": 55, "duration": 7, "velocity": 77}, {"time": 3842, "pitch": 62, "duration": 6, "velocity": 86}, {"time": 3848, "pitch": 50, "duration": 8, "velocity": 81}, {"time": 3854, "pitch": 55, "duration": 5, "velocity": 78}, {"time": 3854, "pitch": 59, "duration": 5, "velocity": 79}, {"time": 3860, "pitch": 50, "duration": 7, "velocity": 65}, {"time": 3866, "pitch": 55, "duration": 2, "velocity": 86}, {"time": 3866, "pitch": 59, "duration": 3, "velocity": 87}, {"time": 3866, "pitch": 62, "duration": 3, "velocity": 86}, {"time": 3878, "pitch": 45, "duration": 37, "velocity": 87}, {"time": 3878, "pitch": 57, "duration": 8, "velocity": 73}, {"time": 3878, "pitch": 60, "duration": 9, "velocity": 82}, {"time": 3884, "pitch": 52, "duration": 8, "velocity": 76}, {"time": 3890, "pitch": 57, "duration": 6, "velocity": 84}, {"time": 3896, "pitch": 52, "duration": 7, "velocity": 78}, {"time": 3902, "pitch": 57, "duration": 5, "velocity": 77}, {"time": 3902, "pitch": 60, "duration": 4, "velocity": 78}, {"time": 3908, "pitch": 52, "duration": 5, "velocity": 70}, {"time": 3914, "pitch": 60, "duration": 5, "velocity": 81}, {"time": 3914, "pitch": 64, "duration": 5, "velocity": 89}, {"time": 3920, "pitch": 57, "duration": 2, "velocity": 87}, {"time": 3926, "pitch": 41, "duration": 40, "velocity": 86}, {"time": 3926, "pitch": 53, "duration": 12, "velocity": 84}, {"time": 3926, "pitch": 57, "duration": 13, "velocity": 81}, {"time": 3932, "pitch": 48, "duration": 32, "velocity": 73}, {"time": 3938, "pitch": 60, "duration": 3, "velocity": 86}, {"time": 3944, "pitch": 53, "duration": 7, "velocity": 86}, {"time": 3950, "pitch": 65, "duration": 8, "velocity": 86}, {"time": 3956, "pitch": 53, "duration": 7, "velocity": 86}, {"time": 3962, "pitch": 57, "duration": 7, "velocity": 72}, {"time": 3968, "pitch": 53, "duration": 4, "velocity": 87}, {"time": 3974, "pitch": 48, "duration": 39, "velocity": 100}, {"time": 3980, "pitch": 55, "duration": 7, "velocity": 86}, {"time": 3986, "pitch": 60, "duration": 7, "velocity": 81}, {"time": 3992, "pitch": 55, "duration": 2, "velocity": 74}, {"time": 3998, "pitch": 55, "duration": 2, "velocity": 79}, {"time": 3998, "pitch": 60, "duration": 5, "velocity": 82}, {"time": 3998, "pitch": 64, "duration": 5, "velocity": 87}, {"time": 4010, "pitch": 55, "duration": 2, "velocity": 77}, {"time": 4010, "pitch": 60, "duration": 6, "velocity": 81}, {"time": 4016, "pitch": 55, "duration": 8, "velocity": 85}, {"time": 4022, "pitch": 43, "duration": 38, "velocity": 87}, {"time": 4028, "pitch": 55, "duration": 7, "velocity": 77}, {"time": 4034, "pitch": 62, "duration": 6, "velocity": 86}, {"time": 4040, "pitch": 50, "duration": 8, "velocity": 81}, {"time": 4046, "pitch": 55, "duration": 5, "velocity": 78}, {"time": 4046, "pitch": 59, "duration": 5, "velocity": 79}, {"time": 4052, "pitch": 50, "duration": 7, "velocity": 65}, {"time": 4058, "pitch": 55, "duration": 2, "velocity": 86}, {"time": 4058, "pitch": 59, "duration": 3, "velocity": 87}, {"time": 4058, "pitch": 62, "duration": 3, "velocity": 86}, {"time": 4070, "pitch": 45, "duration": 37, "velocity": 87}, {"time": 4070, "pitch": 57, "duration": 8, "velocity": 73}, {"time": 4070, "pitch": 60, "duration": 9, "velocity": 82}, {"time": 4076, "pitch": 52, "duration": 8, "velocity": 76}, {"time": 4082, "pitch": 57, "duration": 6, "velocity": 84}, {"time": 4088, "pitch": 52, "duration": 7, "velocity": 78}, {"time": 4094, "pitch": 57, "duration": 5, "velocity": 77}, {"time": 4094, "pitch": 60, "duration": 4, "velocity": 78}, {"time": 4100, "pitch": 52, "duration": 5, "velocity": 70}, {"time": 4106, "pitch": 60, "duration": 5, "velocity": 81}, {"time": 4106, "pitch": 64, "duration": 5, "velocity": 89}, {"time": 4112, "pitch": 57, "duration": 2, "velocity": 87}, {"time": 4118, "pitch": 41, "duration": 40, "velocity": 86}, {"time": 4118, "pitch": 53, "duration": 12, "velocity": 84}, {"time": 4118, "pitch": 57, "duration": 13, "velocity": 81}, {"time": 4124, "pitch": 48, "duration": 32, "velocity": 73}, {"time": 4130, "pitch": 60, "duration": 3, "velocity": 86}, {"time": 4136, "pitch": 53, "duration": 7, "velocity": 86}, {"time": 4142, "pitch": 65, "duration": 8, "velocity": 86}, {"time": 4148, "pitch": 53, "duration": 7, "velocity": 86}, {"time": 4154, "pitch": 57, "duration": 7, "velocity": 72}, {"time": 4160, "pitch": 53, "duration": 4, "velocity": 87}, {"time": 4162, "pitch": 55, "duration": 19, "velocity": 79}, {"time": 4164, "pitch": 60, "duration": 21, "velocity": 79}, {"time": 4165, "pitch": 48, "duration": 35, "velocity": 80}, {"time": 4165, "pitch": 64, "duration": 20, "velocity": 87}, {"time": 4184, "pitch": 55, "duration": 3, "velocity": 71}, {"time": 4189, "pitch": 64, "duration": 9, "velocity": 86}, {"time": 4194, "pitch": 55, "duration": 4, "velocity": 73}, {"time": 4201, "pitch": 60, "duration": 2, "velocity": 77}, {"time": 4211, "pitch": 55, "duration": 13, "velocity": 74}, {"time": 4212, "pitch": 59, "duration": 10, "velocity": 81}, {"time": 4213, "pitch": 43, "duration": 39, "velocity": 86}, {"time": 4214, "pitch": 62, "duration": 10, "velocity": 76}, {"time": 4237, "pitch": 59, "duration": 2, "velocity": 51}, {"time": 4237, "pitch": 67, "duration": 5, "velocity": 89}, {"time": 4243, "pitch": 55, "duration": 2, "velocity": 82}, {"time": 4249, "pitch": 62, "duration": 3, "velocity": 83}, {"time": 4249, "pitch": 55, "duration": 3, "velocity": 86}, {"time": 4249, "pitch": 59, "duration": 3, "velocity": 85}, {"time": 4259, "pitch": 57, "duration": 16, "velocity": 71}, {"time": 4261, "pitch": 60, "duration": 13, "velocity": 76}, {"time": 4261, "pitch": 45, "duration": 39, "velocity": 86}, {"time": 4262, "pitch": 64, "duration": 12, "velocity": 81}, {"time": 4281, "pitch": 52, "duration": 8, "velocity": 74}, {"time": 4286, "pitch": 60, "duration": 8, "velocity": 82}, {"time": 4292, "pitch": 52, "duration": 6, "velocity": 78}, {"time": 4298, "pitch": 60, "duration": 3, "velocity": 92}, {"time": 4298, "pitch": 64, "duration": 4, "velocity": 88}, {"time": 4298, "pitch": 57, "duration": 1, "velocity": 77}, {"time": 4303, "pitch": 57, "duration": 2, "velocity": 78}, {"time": 4309, "pitch": 53, "duration": 9, "velocity": 72}, {"time": 4309, "pitch": 57, "duration": 12, "velocity": 68}, {"time": 4309, "pitch": 41, "duration": 40, "velocity": 85}, {"time": 4315, "pitch": 48, "duration": 33, "velocity": 64}, {"time": 4321, "pitch": 60, "duration": 9, "velocity": 75}, {"time": 4327, "pitch": 57, "duration": 3, "velocity": 74}, {"time": 4331, "pitch": 53, "duration": 2, "velocity": 74}, {"time": 4332, "pitch": 57, "duration": 2, "velocity": 75}, {"time": 4333, "pitch": 60, "duration": 2, "velocity": 71}, {"time": 4334, "pitch": 65, "duration": 4, "velocity": 86}, {"time": 4345, "pitch": 53, "duration": 3, "velocity": 88}, {"time": 4345, "pitch": 60, "duration": 11, "velocity": 88}, {"time": 4346, "pitch": 57, "duration": 7, "velocity": 88}, {"time": 4351, "pitch": 53, "duration": 5, "velocity": 87}, {"time": 4358, "pitch": 41, "duration": 40, "velocity": 87}, {"time": 4358, "pitch": 53, "duration": 12, "velocity": 85}, {"time": 4358, "pitch": 57, "duration": 10, "velocity": 82}, {"time": 4364, "pitch": 48, "duration": 21, "velocity": 77}, {"time": 4370, "pitch": 57, "duration": 9, "velocity": 78}, {"time": 4370, "pitch": 60, "duration": 9, "velocity": 88}, {"time": 4376, "pitch": 53, "duration": 8, "velocity": 76}, {"time": 4382, "pitch": 57, "duration": 7, "velocity": 75}, {"time": 4382, "pitch": 60, "duration": 6, "velocity": 80}, {"time": 4388, "pitch": 48, "duration": 9, "velocity": 74}, {"time": 4394, "pitch": 53, "duration": 3, "velocity": 87}, {"time": 4394, "pitch": 57, "duration": 3, "velocity": 89}, {"time": 4394, "pitch": 60, "duration": 3, "velocity": 88}, {"time": 4406, "pitch": 40, "duration": 38, "velocity": 91}, {"time": 4406, "pitch": 52, "duration": 13, "velocity": 86}, {"time": 4406, "pitch": 55, "duration": 8, "velocity": 83}, {"time": 4412, "pitch": 47, "duration": 31, "velocity": 79}, {"time": 4418, "pitch": 55, "duration": 4, "velocity": 84}, {"time": 4418, "pitch": 59, "duration": 5, "velocity": 82}, {"time": 4424, "pitch": 52, "duration": 1, "velocity": 85}, {"time": 4430, "pitch": 52, "duration": 3, "velocity": 87}, {"time": 4430, "pitch": 64, "duration": 7, "velocity": 90}, {"time": 4436, "pitch": 52, "duration": 3, "velocity": 79}, {"time": 4442, "pitch": 52, "duration": 3, "velocity": 87}, {"time": 4442, "pitch": 59, "duration": 4, "velocity": 83}, {"time": 4454, "pitch": 50, "duration": 37, "velocity": 87}, {"time": 4454, "pitch": 57, "duration": 3, "velocity": 79}, {"time": 4454, "pitch": 62, "duration": 10, "velocity": 83}, {"time": 4460, "pitch": 57, "duration": 7, "velocity": 86}, {"time": 4466, "pitch": 62, "duration": 2, "velocity": 87}, {"time": 4466, "pitch": 65, "duration": 3, "velocity": 86}, {"time": 4472, "pitch": 57, "duration": 4, "velocity": 86}, {"time": 4478, "pitch": 57, "duration": 2, "velocity": 81}, {"time": 4478, "pitch": 62, "duration": 4, "velocity": 83}, {"time": 4484, "pitch": 57, "duration": 2, "velocity": 76}, {"time": 4490, "pitch": 57, "duration": 2, "velocity": 88}, {"time": 4490, "pitch": 65, "duration": 4, "velocity": 86}, {"time": 4496, "pitch": 57, "duration": 2, "velocity": 81}, {"time": 4502, "pitch": 43, "duration": 48, "velocity": 88}, {"time": 4502, "pitch": 55, "duration": 8, "velocity": 81}, {"time": 4502, "pitch": 59, "duration": 6, "velocity": 82}, {"time": 4508, "pitch": 50, "duration": 20, "velocity": 90}, {"time": 4514, "pitch": 55, "duration": 7, "velocity": 91}, {"time": 4514, "pitch": 62, "duration": 6, "velocity": 86}, {"time": 4520, "pitch": 59, "duration": 2, "velocity": 89}, {"time": 4526, "pitch": 55, "duration": 4, "velocity": 92}, {"time": 4526, "pitch": 67, "duration": 5, "velocity": 89}, {"time": 4532, "pitch": 50, "duration": 18, "velocity": 91}, {"time": 4538, "pitch": 59, "duration": 12, "velocity": 92}, {"time": 4538, "pitch": 62, "duration": 12, "velocity": 88}, {"time": 4544, "pitch": 55, "duration": 6, "velocity": 82}, {"time": 4550, "pitch": 48, "duration": 21, "velocity": 92}, {"time": 4550, "pitch": 60, "duration": 7, "velocity": 82}, {"time": 4550, "pitch": 64, "duration": 7, "velocity": 88}, {"time": 4556, "pitch": 55, "duration": 5, "velocity": 81}, {"time": 4562, "pitch": 60, "duration": 5, "velocity": 81}, {"time": 4568, "pitch": 55, "duration": 3, "velocity": 88}, {"time": 4574, "pitch": 60, "duration": 4, "velocity": 89}, {"time": 4574, "pitch": 64, "duration": 7, "velocity": 90}, {"time": 4580, "pitch": 55, "duration": 2, "velocity": 84}, {"time": 4586, "pitch": 48, "duration": 2, "velocity": 95}, {"time": 4586, "pitch": 55, "duration": 2, "velocity": 86}, {"time": 4586, "pitch": 60, "duration": 4, "velocity": 87}, {"time": 4592, "pitch": 55, "duration": 3, "velocity": 86}, {"time": 4598, "pitch": 43, "duration": 36, "velocity": 82}, {"time": 4598, "pitch": 55, "duration": 3, "velocity": 86}, {"time": 4598, "pitch": 59, "duration": 7, "velocity": 86}, {"time": 4604, "pitch": 55, "duration": 2, "velocity": 86}, {"time": 4610, "pitch": 55, "duration": 3, "velocity": 86}, {"time": 4610, "pitch": 62, "duration": 4, "velocity": 81}, {"time": 4616, "pitch": 55, "duration": 3, "velocity": 80}, {"time": 4622, "pitch": 67, "duration": 5, "velocity": 88}, {"time": 4628, "pitch": 55, "duration": 3, "velocity": 88}, {"time": 4634, "pitch": 55, "duration": 2, "velocity": 89}, {"time": 4634, "pitch": 59, "duration": 4, "velocity": 92}, {"time": 4640, "pitch": 55, "duration": 3, "velocity": 87}, {"time": 4646, "pitch": 45, "duration": 23, "velocity": 86}, {"time": 4646, "pitch": 57, "duration": 7, "velocity": 85}, {"time": 4646, "pitch": 60, "duration": 7, "velocity": 85}, {"time": 4652, "pitch": 52, "duration": 8, "velocity": 73}, {"time": 4658, "pitch": 57, "duration": 2, "velocity": 82}, {"time": 4658, "pitch": 64, "duration": 2, "velocity": 88}, {"time": 4664, "pitch": 52, "duration": 6, "velocity": 78}, {"time": 4670, "pitch": 57, "duration": 4, "velocity": 82}, {"time": 4670, "pitch": 60, "duration": 5, "velocity": 86}, {"time": 4676, "pitch": 57, "duration": 2, "velocity": 74}, {"time": 4682, "pitch": 52, "duration": 2, "velocity": 88}, {"time": 4682, "pitch": 57, "duration": 2, "velocity": 87}, {"time": 4682, "pitch": 60, "duration": 4, "velocity": 95}, {"time": 4682, "pitch": 64, "duration": 5, "velocity": 91}, {"time": 4688, "pitch": 57, "duration": 2, "velocity": 87}, {"time": 4694, "pitch": 40, "duration": 38, "velocity": 89}, {"time": 4694, "pitch": 52, "duration": 9, "velocity": 88}, {"time": 4694, "pitch": 55, "duration": 8, "velocity": 85}, {"time": 4700, "pitch": 47, "duration": 21, "velocity": 73}, {"time": 4706, "pitch": 52, "duration": 3, "velocity": 87}, {"time": 4706, "pitch": 55, "duration": 7, "velocity": 85}, {"time": 4712, "pitch": 52, "duration": 3, "velocity": 84}, {"time": 4718, "pitch": 55, "duration": 7, "velocity": 87}, {"time": 4718, "pitch": 59, "duration": 7, "velocity": 86}, {"time": 4724, "pitch": 47, "duration": 9, "velocity": 81}, {"time": 4730, "pitch": 55, "duration": 6, "velocity": 90}, {"time": 4730, "pitch": 59, "duration": 7, "velocity": 88}, {"time": 4736, "pitch": 40, "duration": 3, "velocity": 93}, {"time": 4742, "pitch": 41, "duration": 35, "velocity": 89}, {"time": 4742, "pitch": 53, "duration": 5, "velocity": 83}, {"time": 4742, "pitch": 57, "duration": 7, "velocity": 82}, {"time": 4748, "pitch": 48, "duration": 9, "velocity": 75}, {"time": 4754, "pitch": 53, "duration": 3, "velocity": 87}, {"time": 4754, "pitch": 60, "duration": 4, "velocity": 88}, {"time": 4760, "pitch": 48, "duration": 15, "velocity": 85}, {"time": 4766, "pitch": 65, "duration": 8, "velocity": 90}, {"time": 4772, "pitch": 53, "duration": 4, "velocity": 88}, {"time": 4778, "pitch": 41, "duration": 3, "velocity": 86}, {"time": 4778, "pitch": 48, "duration": 2, "velocity": 85}, {"time": 4778, "pitch": 53, "duration": 2, "velocity": 88}, {"time": 4778, "pitch": 57, "duration": 4, "velocity": 93}, {"time": 4778, "pitch": 60, "duration": 5, "velocity": 91}, {"time": 4784, "pitch": 53, "duration": 2, "velocity": 92}, {"time": 4790, "pitch": 40, "duration": 36, "velocity": 89}, {"time": 4790, "pitch": 52, "duration": 8, "velocity": 82}, {"time": 4790, "pitch": 55, "duration": 8, "velocity": 81}, {"time": 4796, "pitch": 47, "duration": 10, "velocity": 77}, {"time": 4802, "pitch": 52, "duration": 3, "velocity": 88}, {"time": 4802, "pitch": 64, "duration": 6, "velocity": 90}, {"time": 4808, "pitch": 47, "duration": 8, "velocity": 86}, {"time": 4808, "pitch": 52, "duration": 2, "velocity": 82}, {"time": 4814, "pitch": 52, "duration": 4, "velocity": 87}, {"time": 4814, "pitch": 59, "duration": 5, "velocity": 87}, {"time": 4820, "pitch": 47, "duration": 7, "velocity": 87}, {"time": 4826, "pitch": 52, "duration": 3, "velocity": 93}, {"time": 4826, "pitch": 55, "duration": 3, "velocity": 93}, {"time": 4832, "pitch": 40, "duration": 2, "velocity": 89}, {"time": 4838, "pitch": 38, "duration": 18, "velocity": 88}, {"time": 4838, "pitch": 57, "duration": 4, "velocity": 81}, {"time": 4838, "pitch": 62, "duration": 7, "velocity": 86}, {"time": 4844, "pitch": 57, "duration": 2, "velocity": 87}, {"time": 4850, "pitch": 57, "duration": 2, "velocity": 91}, {"time": 4850, "pitch": 65, "duration": 7, "velocity": 88}, {"time": 4856, "pitch": 57, "duration": 3, "velocity": 95}, {"time": 4862, "pitch": 50, "duration": 11, "velocity": 92}, {"time": 4862, "pitch": 57, "duration": 3, "velocity": 86}, {"time": 4862, "pitch": 62, "duration": 8, "velocity": 87}, {"time": 4868, "pitch": 57, "duration": 3, "velocity": 85}, {"time": 4874, "pitch": 57, "duration": 3, "velocity": 81}, {"time": 4874, "pitch": 62, "duration": 7, "velocity": 87}, {"time": 4874, "pitch": 65, "duration": 6, "velocity": 88}, {"time": 4880, "pitch": 57, "duration": 2, "velocity": 88}, {"time": 4886, "pitch": 43, "duration": 42, "velocity": 86}, {"time": 4886, "pitch": 55, "duration": 7, "velocity": 87}, {"time": 4886, "pitch": 59, "duration": 6, "velocity": 88}, {"time": 4892, "pitch": 50, "duration": 21, "velocity": 82}, {"time": 4898, "pitch": 55, "duration": 2, "velocity": 91}, {"time": 4898, "pitch": 62, "duration": 4, "velocity": 88}, {"time": 4904, "pitch": 55, "duration": 3, "velocity": 85}, {"time": 4910, "pitch": 55, "duration": 2, "velocity": 92}, {"time": 4910, "pitch": 67, "duration": 5, "velocity": 87}, {"time": 4916, "pitch": 50, "duration": 8, "velocity": 83}, {"time": 4916, "pitch": 55, "duration": 4, "velocity": 76}, {"time": 4922, "pitch": 55, "duration": 3, "velocity": 88}, {"time": 4922, "pitch": 62, "duration": 9, "velocity": 86}, {"time": 4928, "pitch": 55, "duration": 5, "velocity": 92}, {"time": 4934, "pitch": 48, "duration": 16, "velocity": 88}, {"time": 4934, "pitch": 60, "duration": 7, "velocity": 81}, {"time": 4934, "pitch": 64, "duration": 12, "velocity": 86}, {"time": 4940, "pitch": 55, "duration": 11, "velocity": 77}, {"time": 4946, "pitch": 60, "duration": 4, "velocity": 89}, {"time": 4952, "pitch": 50, "duration": 18, "velocity": 87}, {"time": 4952, "pitch": 62, "duration": 13, "velocity": 85}, {"time": 4952, "pitch": 65, "duration": 16, "velocity": 87}, {"time": 4964, "pitch": 57, "duration": 6, "velocity": 68}, {"time": 4970, "pitch": 62, "duration": 3, "velocity": 86}, {"time": 4982, "pitch": 40, "duration": 16, "velocity": 87}, {"time": 4982, "pitch": 64, "duration": 8, "velocity": 85}, {"time": 4982, "pitch": 67, "duration": 10, "velocity": 79}, {"time": 4988, "pitch": 47, "duration": 10, "velocity": 74}, {"time": 4994, "pitch": 64, "duration": 3, "velocity": 87}, {"time": 5000, "pitch": 41, "duration": 19, "velocity": 86}, {"time": 5000, "pitch": 65, "duration": 12, "velocity": 84}, {"time": 5012, "pitch": 48, "duration": 7, "velocity": 77}, {"time": 5018, "pitch": 64, "duration": 5, "velocity": 88}, {"time": 5024, "pitch": 62, "duration": 5, "velocity": 83}, {"time": 5030, "pitch": 48, "duration": 15, "velocity": 87}, {"time": 5030, "pitch": 64, "duration": 7, "velocity": 83}, {"time": 5036, "pitch": 55, "duration": 10, "velocity": 73}, {"time": 5042, "pitch": 60, "duration": 2, "velocity": 86}, {"time": 5048, "pitch": 50, "duration": 26, "velocity": 88}, {"time": 5048, "pitch": 62, "duration": 12, "velocity": 81}, {"time": 5048, "pitch": 65, "duration": 15, "velocity": 86}, {"time": 5060, "pitch": 57, "duration": 16, "velocity": 79}, {"time": 5066, "pitch": 62, "duration": 7, "velocity": 88}, {"time": 5072, "pitch": 65, "duration": 4, "velocity": 80}, {"time": 5078, "pitch": 52, "duration": 11, "velocity": 88}, {"time": 5078, "pitch": 67, "duration": 12, "velocity": 81}, {"time": 5084, "pitch": 59, "duration": 4, "velocity": 72}, {"time": 5090, "pitch": 64, "duration": 4, "velocity": 84}, {"time": 5096, "pitch": 41, "duration": 21, "velocity": 77}, {"time": 5096, "pitch": 65, "duration": 14, "velocity": 85}, {"time": 5108, "pitch": 60, "duration": 3, "velocity": 68}, {"time": 5114, "pitch": 64, "duration": 4, "velocity": 89}, {"time": 5120, "pitch": 62, "duration": 9, "velocity": 84}, {"time": 5126, "pitch": 36, "duration": 44, "velocity": 86}, {"time": 5132, "pitch": 43, "duration": 37, "velocity": 75}, {"time": 5139, "pitch": 60, "duration": 52, "velocity": 83}, {"time": 5147, "pitch": 67, "duration": 44, "velocity": 72}, {"time": 5156, "pitch": 64, "duration": 35, "velocity": 72}, {"time": 5159, "pitch": 72, "duration": 32, "velocity": 73}], "annotations": [{"time": 140, "annotation": {"number": 64, "value": 127}, "group": "control_change"}, {"time": 181, "annotation": {"number": 64, "value": 0}, "group": "control_change"}, {"time": 183, "annotation": {"number": 64, "value": 127}, "group": "control_change"}, {"time": 230, "annotation": {"number": 64, "value": 0}, "group": "control_change"}, {"time": 236, "annotation": {"number": 64, "value": 127}, "group": "control_change"}, {"time": 278, "annotation": {"number": 64, "value": 0}, "group": "control_change"}, {"time": 285, "annotation": {"number": 64, "value": 127}, "group": "control_change"}, {"time": 323, "annotation": {"number": 64, "value": 0}, "group": "control_change"}, {"time": 332, "annotation": {"number": 64, "value": 127}, "group": "control_change"}, {"time": 373, "annotation": {"number": 64, "value": 0}, "group": "control_change"}, {"time": 375, "annotation": {"number": 64, "value": 127}, "group": "control_change"}, {"time": 422, "annotation": {"number": 64, "value": 0}, "group": "control_change"}, {"time": 428, "annotation": {"number": 64, "value": 127}, "group": "control_change"}, {"time": 470, "annotation": {"number": 64, "value": 0}, "group": "control_change"}, {"time": 477, "annotation": {"number": 64, "value": 127}, "group": "control_change"}, {"time": 515, "annotation": {"number": 64, "value": 0}, "group": "control_change"}, {"time": 524, "annotation": {"number": 64, "value": 127}, "group": "control_change"}, {"time": 565, "annotation": {"number": 64, "value": 0}, "group": "control_change"}, {"time": 567, "annotation": {"number": 64, "value": 127}, "group": "control_change"}, {"time": 614, "annotation": {"number": 64, "value": 0}, "group": "control_change"}, {"time": 620, "annotation": {"number": 64, "value": 127}, "group": "control_change"}, {"time": 662, "annotation": {"number": 64, "value": 0}, "group": "control_change"}, {"time": 669, "annotation": {"number": 64, "value": 127}, "group": "control_change"}, {"time": 707, "annotation": {"number": 64, "value": 0}, "group": "control_change"}, {"time": 716, "annotation": {"number": 64, "value": 127}, "group": "control_change"}, {"time": 757, "annotation": {"number": 64, "value": 0}, "group": "control_change"}, {"time": 759, "annotation": {"number": 64, "value": 127}, "group": "control_change"}, {"time": 806, "annotation": {"number": 64, "value": 0}, "group": "control_change"}, {"time": 812, "annotation": {"number": 64, "value": 127}, "group": "control_change"}, {"time": 854, "annotation": {"number": 64, "value": 0}, "group": "control_change"}, {"time": 861, "annotation": {"number": 64, "value": 127}, "group": "control_change"}, {"time": 899, "annotation": {"number": 64, "value": 0}, "group": "control_change"}, {"time": 906, "annotation": {"number": 64, "value": 127}, "group": "control_change"}, {"time": 925, "annotation": {"number": 64, "value": 0}, "group": "control_change"}, {"time": 929, "annotation": {"number": 64, "value": 127}, "group": "control_change"}, {"time": 949, "annotation": {"number": 64, "value": 0}, "group": "control_change"}, {"time": 954, "annotation": {"number": 64, "value": 127}, "group": "control_change"}, {"time": 970, "annotation": {"number": 64, "value": 0}, "group": "control_change"}, {"time": 973, "annotation": {"number": 64, "value": 127}, "group": "control_change"}, {"time": 983, "annotation": {"number": 64, "value": 0}, "group": "control_change"}, {"time": 986, "annotation": {"number": 64, "value": 127}, "group": "control_change"}, {"time": 996, "annotation": {"number": 64, "value": 0}, "group": "control_change"}, {"time": 1002, "annotation": {"number": 64, "value": 127}, "group": "control_change"}, {"time": 1019, "annotation": {"number": 64, "value": 0}, "group": "control_change"}, {"time": 1024, "annotation": {"number": 64, "value": 127}, "group": "control_change"}, {"time": 1044, "annotation": {"number": 64, "value": 0}, "group": "control_change"}, {"time": 1050, "annotation": {"number": 64, "value": 127}, "group": "control_change"}, {"time": 1050, "annotation": {"number": 64, "value": 0}, "group": "control_change"}, {"time": 1051, "annotation": {"number": 64, "value": 127}, "group": "control_change"}, {"time": 1067, "annotation": {"number": 64, "value": 0}, "group": "control_change"}, {"time": 1070, "annotation": {"number": 64, "value": 127}, "group": "control_change"}, {"time": 1080, "annotation": {"number": 64, "value": 0}, "group": "control_change"}, {"time": 1082, "annotation": {"number": 64, "value": 127}, "group": "control_change"}, {"time": 1093, "annotation": {"number": 64, "value": 0}, "group": "control_change"}, {"time": 1098, "annotation": {"number": 64, "value": 127}, "group": "control_change"}, {"time": 1116, "annotation": {"number": 64, "value": 0}, "group": "control_change"}, {"time": 1119, "annotation": {"number": 64, "value": 127}, "group": "control_change"}, {"time": 1140, "annotation": {"number": 64, "value": 0}, "group": "control_change"}, {"time": 1144, "annotation": {"number": 64, "value": 127}, "group": "control_change"}, {"time": 1164, "annotation": {"number": 64, "value": 0}, "group": "control_change"}, {"time": 1167, "annotation": {"number": 64, "value": 127}, "group": "control_change"}, {"time": 1188, "annotation": {"number": 64, "value": 0}, "group": "control_change"}, {"time": 1191, "annotation": {"number": 64, "value": 127}, "group": "control_change"}, {"time": 1236, "annotation": {"number": 64, "value": 0}, "group": "control_change"}, {"time": 1263, "annotation": {"number": 64, "value": 127}, "group": "control_change"}, {"time": 1282, "annotation": {"number": 64, "value": 0}, "group": "control_change"}, {"time": 1333, "annotation": {"number": 64, "value": 0}, "group": "control_change"}, {"time": 1335, "annotation": {"number": 64, "value": 127}, "group": "control_change"}, {"time": 1378, "annotation": {"number": 64, "value": 0}, "group": "control_change"}, {"time": 1383, "annotation": {"number": 64, "value": 127}, "group": "control_change"}, {"time": 1383, "annotation": {"number": 64, "value": 0}, "group": "control_change"}, {"time": 1431, "annotation": {"number": 64, "value": 0}, "group": "control_change"}, {"time": 1436, "annotation": {"number": 64, "value": 127}, "group": "control_change"}, {"time": 1475, "annotation": {"number": 64, "value": 0}, "group": "control_change"}, {"time": 1478, "annotation": {"number": 64, "value": 127}, "group": "control_change"}, {"time": 1501, "annotation": {"number": 64, "value": 0}, "group": "control_change"}, {"time": 1502, "annotation": {"number": 64, "value": 127}, "group": "control_change"}, {"time": 1524, "annotation": {"number": 64, "value": 0}, "group": "control_change"}, {"time": 1527, "annotation": {"number": 64, "value": 127}, "group": "control_change"}, {"time": 1572, "annotation": {"number": 64, "value": 0}, "group": "control_change"}, {"time": 1574, "annotation": {"number": 64, "value": 127}, "group": "control_change"}, {"time": 1596, "annotation": {"number": 64, "value": 0}, "group": "control_change"}, {"time": 1598, "annotation": {"number": 64, "value": 127}, "group": "control_change"}, {"time": 1621, "annotation": {"number": 64, "value": 0}, "group": "control_change"}, {"time": 1624, "annotation": {"number": 64, "value": 127}, "group": "control_change"}, {"time": 1665, "annotation": {"number": 64, "value": 0}, "group": "control_change"}, {"time": 1717, "annotation": {"number": 64, "value": 0}, "group": "control_change"}, {"time": 1719, "annotation": {"number": 64, "value": 127}, "group": "control_change"}, {"time": 1762, "annotation": {"number": 64, "value": 0}, "group": "control_change"}, {"time": 1767, "annotation": {"number": 64, "value": 127}, "group": "control_change"}, {"time": 1767, "annotation": {"number": 64, "value": 0}, "group": "control_change"}, {"time": 1815, "annotation": {"number": 64, "value": 0}, "group": "control_change"}, {"time": 1820, "annotation": {"number": 64, "value": 127}, "group": "control_change"}, {"time": 1859, "annotation": {"number": 64, "value": 0}, "group": "control_change"}, {"time": 1862, "annotation": {"number": 64, "value": 127}, "group": "control_change"}, {"time": 1885, "annotation": {"number": 64, "value": 0}, "group": "control_change"}, {"time": 1886, "annotation": {"number": 64, "value": 127}, "group": "control_change"}, {"time": 1908, "annotation": {"number": 64, "value": 0}, "group": "control_change"}, {"time": 1911, "annotation": {"number": 64, "value": 127}, "group": "control_change"}, {"time": 1956, "annotation": {"number": 64, "value": 0}, "group": "control_change"}, {"time": 1958, "annotation": {"number": 64, "value": 127}, "group": "control_change"}, {"time": 1980, "annotation": {"number": 64, "value": 0}, "group": "control_change"}, {"time": 1982, "annotation": {"number": 64, "value": 127}, "group": "control_change"}, {"time": 2005, "annotation": {"number": 64, "value": 0}, "group": "control_change"}, {"time": 2008, "annotation": {"number": 64, "value": 127}, "group": "control_change"}, {"time": 2049, "annotation": {"number": 64, "value": 0}, "group": "control_change"}, {"time": 2060, "annotation": {"number": 64, "value": 127}, "group": "control_change"}, {"time": 2101, "annotation": {"number": 64, "value": 0}, "group": "control_change"}, {"time": 2103, "annotation": {"number": 64, "value": 127}, "group": "control_change"}, {"time": 2150, "annotation": {"number": 64, "value": 0}, "group": "control_change"}, {"time": 2156, "annotation": {"number": 64, "value": 127}, "group": "control_change"}, {"time": 2198, "annotation": {"number": 64, "value": 0}, "group": "control_change"}, {"time": 2205, "annotation": {"number": 64, "value": 127}, "group": "control_change"}, {"time": 2243, "annotation": {"number": 64, "value": 0}, "group": "control_change"}, {"time": 2252, "annotation": {"number": 64, "value": 127}, "group": "control_change"}, {"time": 2293, "annotation": {"number": 64, "value": 0}, "group": "control_change"}, {"time": 2295, "annotation": {"number": 64, "value": 127}, "group": "control_change"}, {"time": 2342, "annotation": {"number": 64, "value": 0}, "group": "control_change"}, {"time": 2348, "annotation": {"number": 64, "value": 127}, "group": "control_change"}, {"time": 2390, "annotation": {"number": 64, "value": 0}, "group": "control_change"}, {"time": 2397, "annotation": {"number": 64, "value": 127}, "group": "control_change"}, {"time": 2435, "annotation": {"number": 64, "value": 0}, "group": "control_change"}, {"time": 2444, "annotation": {"number": 64, "value": 127}, "group": "control_change"}, {"time": 2485, "annotation": {"number": 64, "value": 0}, "group": "control_change"}, {"time": 2487, "annotation": {"number": 64, "value": 127}, "group": "control_change"}, {"time": 2534, "annotation": {"number": 64, "value": 0}, "group": "control_change"}, {"time": 2540, "annotation": {"number": 64, "value": 127}, "group": "control_change"}, {"time": 2582, "annotation": {"number": 64, "value": 0}, "group": "control_change"}, {"time": 2589, "annotation": {"number": 64, "value": 127}, "group": "control_change"}, {"time": 2627, "annotation": {"number": 64, "value": 0}, "group": "control_change"}, {"time": 2634, "annotation": {"number": 64, "value": 127}, "group": "control_change"}, {"time": 2653, "annotation": {"number": 64, "value": 0}, "group": "control_change"}, {"time": 2657, "annotation": {"number": 64, "value": 127}, "group": "control_change"}, {"time": 2677, "annotation": {"number": 64, "value": 0}, "group": "control_change"}, {"time": 2682, "annotation": {"number": 64, "value": 127}, "group": "control_change"}, {"time": 2698, "annotation": {"number": 64, "value": 0}, "group": "control_change"}, {"time": 2701, "annotation": {"number": 64, "value": 127}, "group": "control_change"}, {"time": 2711, "annotation": {"number": 64, "value": 0}, "group": "control_change"}, {"time": 2714, "annotation": {"number": 64, "value": 127}, "group": "control_change"}, {"time": 2724, "annotation": {"number": 64, "value": 0}, "group": "control_change"}, {"time": 2730, "annotation": {"number": 64, "value": 127}, "group": "control_change"}, {"time": 2747, "annotation": {"number": 64, "value": 0}, "group": "control_change"}, {"time": 2752, "annotation": {"number": 64, "value": 127}, "group": "control_change"}, {"time": 2772, "annotation": {"number": 64, "value": 0}, "group": "control_change"}, {"time": 2778, "annotation": {"number": 64, "value": 127}, "group": "control_change"}, {"time": 2778, "annotation": {"number": 64, "value": 0}, "group": "control_change"}, {"time": 2779, "annotation": {"number": 64, "value": 127}, "group": "control_change"}, {"time": 2795, "annotation": {"number": 64, "value": 0}, "group": "control_change"}, {"time": 2798, "annotation": {"number": 64, "value": 127}, "group": "control_change"}, {"time": 2808, "annotation": {"number": 64, "value": 0}, "group": "control_change"}, {"time": 2810, "annotation": {"number": 64, "value": 127}, "group": "control_change"}, {"time": 2821, "annotation": {"number": 64, "value": 0}, "group": "control_change"}, {"time": 2826, "annotation": {"number": 64, "value": 127}, "group": "control_change"}, {"time": 2844, "annotation": {"number": 64, "value": 0}, "group": "control_change"}, {"time": 2847, "annotation": {"number": 64, "value": 127}, "group": "control_change"}, {"time": 2868, "annotation": {"number": 64, "value": 0}, "group": "control_change"}, {"time": 2872, "annotation": {"number": 64, "value": 127}, "group": "control_change"}, {"time": 2892, "annotation": {"number": 64, "value": 0}, "group": "control_change"}, {"time": 2895, "annotation": {"number": 64, "value": 127}, "group": "control_change"}, {"time": 2916, "annotation": {"number": 64, "value": 0}, "group": "control_change"}, {"time": 2919, "annotation": {"number": 64, "value": 127}, "group": "control_change"}, {"time": 2964, "annotation": {"number": 64, "value": 0}, "group": "control_change"}, {"time": 2991, "annotation": {"number": 64, "value": 127}, "group": "control_change"}, {"time": 3010, "annotation": {"number": 64, "value": 0}, "group": "control_change"}, {"time": 3061, "annotation": {"number": 64, "value": 0}, "group": "control_change"}, {"time": 3063, "annotation": {"number": 64, "value": 127}, "group": "control_change"}, {"time": 3106, "annotation": {"number": 64, "value": 0}, "group": "control_change"}, {"time": 3111, "annotation": {"number": 64, "value": 127}, "group": "control_change"}, {"time": 3111, "annotation": {"number": 64, "value": 0}, "group": "control_change"}, {"time": 3159, "annotation": {"number": 64, "value": 0}, "group": "control_change"}, {"time": 3164, "annotation": {"number": 64, "value": 127}, "group": "control_change"}, {"time": 3203, "annotation": {"number": 64, "value": 0}, "group": "control_change"}, {"time": 3206, "annotation": {"number": 64, "value": 127}, "group": "control_change"}, {"time": 3229, "annotation": {"number": 64, "value": 0}, "group": "control_change"}, {"time": 3230, "annotation": {"number": 64, "value": 127}, "group": "control_change"}, {"time": 3252, "annotation": {"number": 64, "value": 0}, "group": "control_change"}, {"time": 3255, "annotation": {"number": 64, "value": 127}, "group": "control_change"}, {"time": 3300, "annotation": {"number": 64, "value": 0}, "group": "control_change"}, {"time": 3302, "annotation": {"number": 64, "value": 127}, "group": "control_change"}, {"time": 3324, "annotation": {"number": 64, "value": 0}, "group": "control_change"}, {"time": 3326, "annotation": {"number": 64, "value": 127}, "group": "control_change"}, {"time": 3349, "annotation": {"number": 64, "value": 0}, "group": "control_change"}, {"time": 3352, "annotation": {"number": 64, "value": 127}, "group": "control_change"}, {"time": 3393, "annotation": {"number": 64, "value": 0}, "group": "control_change"}, {"time": 3445, "annotation": {"number": 64, "value": 0}, "group": "control_change"}, {"time": 3447, "annotation": {"number": 64, "value": 127}, "group": "control_change"}, {"time": 3490, "annotation": {"number": 64, "value": 0}, "group": "control_change"}, {"time": 3495, "annotation": {"number": 64, "value": 127}, "group": "control_change"}, {"time": 3495, "annotation": {"number": 64, "value": 0}, "group": "control_change"}, {"time": 3543, "annotation": {"number": 64, "value": 0}, "group": "control_change"}, {"time": 3548, "annotation": {"number": 64, "value": 127}, "group": "control_change"}, {"time": 3587, "annotation": {"number": 64, "value": 0}, "group": "control_change"}, {"time": 3590, "annotation": {"number": 64, "value": 127}, "group": "control_change"}, {"time": 3613, "annotation": {"number": 64, "value": 0}, "group": "control_change"}, {"time": 3614, "annotation": {"number": 64, "value": 127}, "group": "control_change"}, {"time": 3636, "annotation": {"number": 64, "value": 0}, "group": "control_change"}, {"time": 3639, "annotation": {"number": 64, "value": 127}, "group": "control_change"}, {"time": 3684, "annotation": {"number": 64, "value": 0}, "group": "control_change"}, {"time": 3686, "annotation": {"number": 64, "value": 127}, "group": "control_change"}, {"time": 3708, "annotation": {"number": 64, "value": 0}, "group": "control_change"}, {"time": 3710, "annotation": {"number": 64, "value": 127}, "group": "control_change"}, {"time": 3733, "annotation": {"number": 64, "value": 0}, "group": "control_change"}, {"time": 3736, "annotation": {"number": 64, "value": 127}, "group": "control_change"}, {"time": 3777, "annotation": {"number": 64, "value": 0}, "group": "control_change"}, {"time": 3788, "annotation": {"number": 64, "value": 127}, "group": "control_change"}, {"time": 3829, "annotation": {"number": 64, "value": 0}, "group": "control_change"}, {"time": 3831, "annotation": {"number": 64, "value": 127}, "group": "control_change"}, {"time": 3878, "annotation": {"number": 64, "value": 0}, "group": "control_change"}, {"time": 3884, "annotation": {"number": 64, "value": 127}, "group": "control_change"}, {"time": 3926, "annotation": {"number": 64, "value": 0}, "group": "control_change"}, {"time": 3933, "annotation": {"number": 64, "value": 127}, "group": "control_change"}, {"time": 3971, "annotation": {"number": 64, "value": 0}, "group": "control_change"}, {"time": 3980, "annotation": {"number": 64, "value": 127}, "group": "control_change"}, {"time": 4021, "annotation": {"number": 64, "value": 0}, "group": "control_change"}, {"time": 4023, "annotation": {"number": 64, "value": 127}, "group": "control_change"}, {"time": 4070, "annotation": {"number": 64, "value": 0}, "group": "control_change"}, {"time": 4076, "annotation": {"number": 64, "value": 127}, "group": "control_change"}, {"time": 4118, "annotation": {"number": 64, "value": 0}, "group": "control_change"}, {"time": 4125, "annotation": {"number": 64, "value": 127}, "group": "control_change"}, {"time": 4163, "annotation": {"number": 64, "value": 0}, "group": "control_change"}, {"time": 4166, "annotation": {"number": 64, "value": 127}, "group": "control_change"}, {"time": 4166, "annotation": {"number": 64, "value": 0}, "group": "control_change"}, {"time": 4210, "annotation": {"number": 64, "value": 0}, "group": "control_change"}, {"time": 4213, "annotation": {"number": 64, "value": 127}, "group": "control_change"}, {"time": 4260, "annotation": {"number": 64, "value": 0}, "group": "control_change"}, {"time": 4262, "annotation": {"number": 64, "value": 127}, "group": "control_change"}, {"time": 4308, "annotation": {"number": 64, "value": 0}, "group": "control_change"}, {"time": 4312, "annotation": {"number": 64, "value": 127}, "group": "control_change"}, {"time": 4353, "annotation": {"number": 64, "value": 0}, "group": "control_change"}, {"time": 4363, "annotation": {"number": 64, "value": 127}, "group": "control_change"}, {"time": 4364, "annotation": {"number": 64, "value": 0}, "group": "control_change"}, {"time": 4364, "annotation": {"number": 64, "value": 127}, "group": "control_change"}, {"time": 4405, "annotation": {"number": 64, "value": 0}, "group": "control_change"}, {"time": 4412, "annotation": {"number": 64, "value": 127}, "group": "control_change"}, {"time": 4454, "annotation": {"number": 64, "value": 0}, "group": "control_change"}, {"time": 4460, "annotation": {"number": 64, "value": 127}, "group": "control_change"}, {"time": 4500, "annotation": {"number": 64, "value": 0}, "group": "control_change"}, {"time": 4502, "annotation": {"number": 64, "value": 127}, "group": "control_change"}, {"time": 4534, "annotation": {"number": 64, "value": 0}, "group": "control_change"}, {"time": 4597, "annotation": {"number": 64, "value": 0}, "group": "control_change"}, {"time": 4599, "annotation": {"number": 64, "value": 127}, "group": "control_change"}, {"time": 4642, "annotation": {"number": 64, "value": 0}, "group": "control_change"}, {"time": 4647, "annotation": {"number": 64, "value": 127}, "group": "control_change"}, {"time": 4647, "annotation": {"number": 64, "value": 0}, "group": "control_change"}, {"time": 4695, "annotation": {"number": 64, "value": 0}, "group": "control_change"}, {"time": 4700, "annotation": {"number": 64, "value": 127}, "group": "control_change"}, {"time": 4739, "annotation": {"number": 64, "value": 0}, "group": "control_change"}, {"time": 4742, "annotation": {"number": 64, "value": 127}, "group": "control_change"}, {"time": 4765, "annotation": {"number": 64, "value": 0}, "group": "control_change"}, {"time": 4766, "annotation": {"number": 64, "value": 127}, "group": "control_change"}, {"time": 4788, "annotation": {"number": 64, "value": 0}, "group": "control_change"}, {"time": 4791, "annotation": {"number": 64, "value": 127}, "group": "control_change"}, {"time": 4836, "annotation": {"number": 64, "value": 0}, "group": "control_change"}, {"time": 4838, "annotation": {"number": 64, "value": 127}, "group": "control_change"}, {"time": 4860, "annotation": {"number": 64, "value": 0}, "group": "control_change"}, {"time": 4862, "annotation": {"number": 64, "value": 127}, "group": "control_change"}, {"time": 4885, "annotation": {"number": 64, "value": 0}, "group": "control_change"}, {"time": 4888, "annotation": {"number": 64, "value": 127}, "group": "control_change"}, {"time": 4929, "annotation": {"number": 64, "value": 0}, "group": "control_change"}, {"time": 4950, "annotation": {"number": 64, "value": 0}, "group": "control_change"}, {"time": 4953, "annotation": {"number": 64, "value": 127}, "group": "control_change"}, {"time": 4979, "annotation": {"number": 64, "value": 0}, "group": "control_change"}, {"time": 4982, "annotation": {"number": 64, "value": 127}, "group": "control_change"}, {"time": 4998, "annotation": {"number": 64, "value": 0}, "group": "control_change"}, {"time": 5002, "annotation": {"number": 64, "value": 127}, "group": "control_change"}, {"time": 5027, "annotation": {"number": 64, "value": 0}, "group": "control_change"}, {"time": 5031, "annotation": {"number": 64, "value": 127}, "group": "control_change"}, {"time": 5045, "annotation": {"number": 64, "value": 0}, "group": "control_change"}, {"time": 5048, "annotation": {"number": 64, "value": 127}, "group": "control_change"}, {"time": 5075, "annotation": {"number": 64, "value": 0}, "group": "control_change"}, {"time": 5078, "annotation": {"number": 64, "value": 127}, "group": "control_change"}, {"time": 5096, "annotation": {"number": 64, "value": 0}, "group": "control_change"}, {"time": 5098, "annotation": {"number": 64, "value": 127}, "group": "control_change"}, {"time": 5115, "annotation": {"number": 64, "value": 127}, "group": "control_change"}, {"time": 5121, "annotation": {"number": 64, "value": 0}, "group": "control_change"}, {"time": 5124, "annotation": {"number": 64, "value": 127}, "group": "control_change"}, {"time": 5124, "annotation": {"number": 64, "value": 0}, "group": "control_change"}]}]}