{"metadata": {"schema_version": "0.2", "title": "None", "source_filename": "703.mid", "source_format": "midi"}, "resolution": 12, "tempos": [{"time": 0, "qpm": 64.99999458333379}, {"time": 539, "qpm": 64.74999487395874}, {"time": 611, "qpm": 64.99999458333379}], "key_signatures": [{"time": 0, "root": 0, "mode": "major"}], "time_signatures": [{"time": 0, "numerator": 4, "denominator": 4}, {"time": 0, "numerator": 1, "denominator": 4}], "tracks": [{"program": 0, "is_drum": false, "name": "MELODY", "notes": [{"time": 216, "pitch": 69, "duration": 5, "velocity": 87}, {"time": 222, "pitch": 71, "duration": 2, "velocity": 84}, {"time": 225, "pitch": 71, "duration": 8, "velocity": 85}, {"time": 237, "pitch": 62, "duration": 2, "velocity": 85}, {"time": 240, "pitch": 74, "duration": 5, "velocity": 96}, {"time": 246, "pitch": 74, "duration": 5, "velocity": 96}, {"time": 252, "pitch": 72, "duration": 6, "velocity": 86}, {"time": 258, "pitch": 71, "duration": 6, "velocity": 74}, {"time": 264, "pitch": 69, "duration": 33, "velocity": 79}, {"time": 300, "pitch": 69, "duration": 3, "velocity": 86}, {"time": 303, "pitch": 71, "duration": 2, "velocity": 82}, {"time": 306, "pitch": 72, "duration": 4, "velocity": 86}, {"time": 309, "pitch": 71, "duration": 2, "velocity": 87}, {"time": 312, "pitch": 67, "duration": 15, "velocity": 86}, {"time": 333, "pitch": 62, "duration": 3, "velocity": 81}, {"time": 336, "pitch": 67, "duration": 5, "velocity": 85}, {"time": 342, "pitch": 69, "duration": 5, "velocity": 89}, {"time": 348, "pitch": 71, "duration": 6, "velocity": 87}, {"time": 354, "pitch": 72, "duration": 6, "velocity": 90}, {"time": 360, "pitch": 71, "duration": 37, "velocity": 85}, {"time": 405, "pitch": 74, "duration": 5, "velocity": 99}, {"time": 411, "pitch": 76, "duration": 2, "velocity": 85}, {"time": 414, "pitch": 76, "duration": 3, "velocity": 86}, {"time": 417, "pitch": 74, "duration": 2, "velocity": 92}, {"time": 420, "pitch": 74, "duration": 3, "velocity": 87}, {"time": 423, "pitch": 76, "duration": 6, "velocity": 86}, {"time": 429, "pitch": 74, "duration": 5, "velocity": 92}, {"time": 435, "pitch": 76, "duration": 1, "velocity": 86}, {"time": 438, "pitch": 76, "duration": 2, "velocity": 87}, {"time": 441, "pitch": 74, "duration": 2, "velocity": 91}, {"time": 444, "pitch": 79, "duration": 5, "velocity": 89}, {"time": 448, "pitch": 76, "duration": 6, "velocity": 89}, {"time": 453, "pitch": 71, "duration": 3, "velocity": 82}, {"time": 456, "pitch": 74, "duration": 3, "velocity": 89}, {"time": 459, "pitch": 76, "duration": 2, "velocity": 85}, {"time": 462, "pitch": 76, "duration": 2, "velocity": 87}, {"time": 465, "pitch": 74, "duration": 5, "velocity": 92}, {"time": 474, "pitch": 74, "duration": 3, "velocity": 87}, {"time": 477, "pitch": 69, "duration": 3, "velocity": 85}, {"time": 480, "pitch": 71, "duration": 15, "velocity": 84}, {"time": 498, "pitch": 69, "duration": 2, "velocity": 81}, {"time": 501, "pitch": 71, "duration": 3, "velocity": 85}, {"time": 504, "pitch": 64, "duration": 5, "velocity": 87}, {"time": 510, "pitch": 67, "duration": 2, "velocity": 77}, {"time": 513, "pitch": 67, "duration": 11, "velocity": 80}, {"time": 528, "pitch": 64, "duration": 5, "velocity": 87}, {"time": 534, "pitch": 76, "duration": 6, "velocity": 87}, {"time": 543, "pitch": 76, "duration": 9, "velocity": 89}, {"time": 552, "pitch": 74, "duration": 6, "velocity": 92}, {"time": 558, "pitch": 69, "duration": 24, "velocity": 85}, {"time": 600, "pitch": 69, "duration": 5, "velocity": 87}, {"time": 606, "pitch": 71, "duration": 2, "velocity": 84}, {"time": 609, "pitch": 71, "duration": 8, "velocity": 85}, {"time": 621, "pitch": 62, "duration": 2, "velocity": 85}, {"time": 624, "pitch": 74, "duration": 5, "velocity": 96}, {"time": 630, "pitch": 74, "duration": 5, "velocity": 96}, {"time": 636, "pitch": 76, "duration": 6, "velocity": 86}, {"time": 642, "pitch": 78, "duration": 3, "velocity": 74}, {"time": 645, "pitch": 79, "duration": 33, "velocity": 79}, {"time": 690, "pitch": 79, "duration": 3, "velocity": 86}, {"time": 693, "pitch": 74, "duration": 2, "velocity": 89}, {"time": 696, "pitch": 74, "duration": 4, "velocity": 89}, {"time": 702, "pitch": 76, "duration": 2, "velocity": 87}, {"time": 705, "pitch": 76, "duration": 9, "velocity": 86}, {"time": 717, "pitch": 74, "duration": 2, "velocity": 83}, {"time": 720, "pitch": 74, "duration": 5, "velocity": 92}, {"time": 726, "pitch": 76, "duration": 2, "velocity": 81}, {"time": 729, "pitch": 74, "duration": 9, "velocity": 89}, {"time": 735, "pitch": 72, "duration": 6, "velocity": 87}, {"time": 741, "pitch": 71, "duration": 26, "velocity": 86}, {"time": 789, "pitch": 74, "duration": 5, "velocity": 99}, {"time": 795, "pitch": 76, "duration": 2, "velocity": 85}, {"time": 798, "pitch": 76, "duration": 3, "velocity": 86}, {"time": 801, "pitch": 74, "duration": 2, "velocity": 92}, {"time": 804, "pitch": 74, "duration": 3, "velocity": 87}, {"time": 807, "pitch": 76, "duration": 6, "velocity": 86}, {"time": 813, "pitch": 74, "duration": 5, "velocity": 92}, {"time": 819, "pitch": 76, "duration": 1, "velocity": 86}, {"time": 822, "pitch": 76, "duration": 2, "velocity": 87}, {"time": 825, "pitch": 74, "duration": 2, "velocity": 91}, {"time": 828, "pitch": 79, "duration": 3, "velocity": 89}, {"time": 831, "pitch": 76, "duration": 5, "velocity": 89}, {"time": 837, "pitch": 71, "duration": 3, "velocity": 82}, {"time": 840, "pitch": 74, "duration": 3, "velocity": 89}, {"time": 843, "pitch": 76, "duration": 2, "velocity": 85}, {"time": 846, "pitch": 76, "duration": 2, "velocity": 87}, {"time": 849, "pitch": 74, "duration": 5, "velocity": 92}, {"time": 855, "pitch": 74, "duration": 3, "velocity": 87}, {"time": 858, "pitch": 69, "duration": 6, "velocity": 85}, {"time": 864, "pitch": 71, "duration": 15, "velocity": 84}, {"time": 882, "pitch": 74, "duration": 2, "velocity": 81}, {"time": 885, "pitch": 74, "duration": 3, "velocity": 85}, {"time": 888, "pitch": 74, "duration": 5, "velocity": 87}, {"time": 894, "pitch": 72, "duration": 2, "velocity": 77}, {"time": 897, "pitch": 72, "duration": 11, "velocity": 80}, {"time": 909, "pitch": 74, "duration": 3, "velocity": 87}, {"time": 912, "pitch": 76, "duration": 6, "velocity": 87}, {"time": 918, "pitch": 79, "duration": 3, "velocity": 91}, {"time": 924, "pitch": 79, "duration": 3, "velocity": 91}, {"time": 928, "pitch": 79, "duration": 4, "velocity": 94}, {"time": 932, "pitch": 76, "duration": 3, "velocity": 89}, {"time": 936, "pitch": 81, "duration": 20, "velocity": 89}, {"time": 960, "pitch": 74, "duration": 4, "velocity": 99}, {"time": 966, "pitch": 76, "duration": 7, "velocity": 94}, {"time": 972, "pitch": 79, "duration": 5, "velocity": 90}, {"time": 978, "pitch": 81, "duration": 4, "velocity": 94}, {"time": 984, "pitch": 83, "duration": 12, "velocity": 91}, {"time": 996, "pitch": 74, "duration": 8, "velocity": 92}, {"time": 1005, "pitch": 74, "duration": 2, "velocity": 96}, {"time": 1008, "pitch": 84, "duration": 4, "velocity": 96}, {"time": 1014, "pitch": 83, "duration": 5, "velocity": 89}, {"time": 1020, "pitch": 81, "duration": 5, "velocity": 92}, {"time": 1026, "pitch": 79, "duration": 4, "velocity": 92}, {"time": 1029, "pitch": 81, "duration": 10, "velocity": 88}, {"time": 1038, "pitch": 74, "duration": 10, "velocity": 89}, {"time": 1056, "pitch": 74, "duration": 5, "velocity": 99}, {"time": 1062, "pitch": 76, "duration": 5, "velocity": 91}, {"time": 1068, "pitch": 78, "duration": 5, "velocity": 89}, {"time": 1074, "pitch": 74, "duration": 6, "velocity": 87}, {"time": 1080, "pitch": 81, "duration": 8, "velocity": 91}, {"time": 1089, "pitch": 79, "duration": 11, "velocity": 91}, {"time": 1101, "pitch": 71, "duration": 2, "velocity": 89}, {"time": 1104, "pitch": 79, "duration": 5, "velocity": 89}, {"time": 1110, "pitch": 78, "duration": 5, "velocity": 94}, {"time": 1116, "pitch": 76, "duration": 5, "velocity": 92}, {"time": 1122, "pitch": 78, "duration": 7, "velocity": 87}, {"time": 1128, "pitch": 76, "duration": 8, "velocity": 90}, {"time": 1137, "pitch": 74, "duration": 13, "velocity": 90}, {"time": 1152, "pitch": 76, "duration": 7, "velocity": 99}, {"time": 1158, "pitch": 76, "duration": 1, "velocity": 89}, {"time": 1164, "pitch": 79, "duration": 4, "velocity": 88}, {"time": 1170, "pitch": 79, "duration": 5, "velocity": 86}, {"time": 1176, "pitch": 78, "duration": 8, "velocity": 89}, {"time": 1185, "pitch": 76, "duration": 10, "velocity": 91}, {"time": 1200, "pitch": 74, "duration": 5, "velocity": 91}, {"time": 1206, "pitch": 71, "duration": 4, "velocity": 90}, {"time": 1212, "pitch": 74, "duration": 4, "velocity": 92}, {"time": 1218, "pitch": 83, "duration": 4, "velocity": 89}, {"time": 1224, "pitch": 81, "duration": 8, "velocity": 87}, {"time": 1233, "pitch": 79, "duration": 14, "velocity": 90}, {"time": 1248, "pitch": 74, "duration": 4, "velocity": 89}, {"time": 1254, "pitch": 76, "duration": 6, "velocity": 91}, {"time": 1260, "pitch": 79, "duration": 5, "velocity": 89}, {"time": 1266, "pitch": 81, "duration": 4, "velocity": 87}, {"time": 1272, "pitch": 83, "duration": 8, "velocity": 89}, {"time": 1281, "pitch": 81, "duration": 9, "velocity": 90}, {"time": 1296, "pitch": 79, "duration": 5, "velocity": 90}, {"time": 1302, "pitch": 76, "duration": 4, "velocity": 91}, {"time": 1308, "pitch": 79, "duration": 4, "velocity": 92}, {"time": 1314, "pitch": 83, "duration": 4, "velocity": 90}, {"time": 1320, "pitch": 83, "duration": 8, "velocity": 91}, {"time": 1329, "pitch": 81, "duration": 11, "velocity": 87}, {"time": 1344, "pitch": 74, "duration": 4, "velocity": 99}, {"time": 1350, "pitch": 76, "duration": 7, "velocity": 94}, {"time": 1356, "pitch": 79, "duration": 5, "velocity": 90}, {"time": 1362, "pitch": 81, "duration": 4, "velocity": 94}, {"time": 1368, "pitch": 83, "duration": 12, "velocity": 91}, {"time": 1380, "pitch": 74, "duration": 8, "velocity": 92}, {"time": 1389, "pitch": 74, "duration": 2, "velocity": 96}, {"time": 1392, "pitch": 84, "duration": 4, "velocity": 96}, {"time": 1398, "pitch": 83, "duration": 5, "velocity": 89}, {"time": 1404, "pitch": 81, "duration": 5, "velocity": 92}, {"time": 1410, "pitch": 79, "duration": 3, "velocity": 92}, {"time": 1413, "pitch": 81, "duration": 9, "velocity": 88}, {"time": 1422, "pitch": 74, "duration": 10, "velocity": 89}, {"time": 1440, "pitch": 74, "duration": 5, "velocity": 99}, {"time": 1446, "pitch": 76, "duration": 5, "velocity": 91}, {"time": 1452, "pitch": 78, "duration": 5, "velocity": 89}, {"time": 1458, "pitch": 74, "duration": 6, "velocity": 87}, {"time": 1464, "pitch": 81, "duration": 11, "velocity": 91}, {"time": 1473, "pitch": 79, "duration": 11, "velocity": 91}, {"time": 1488, "pitch": 79, "duration": 5, "velocity": 89}, {"time": 1494, "pitch": 78, "duration": 5, "velocity": 94}, {"time": 1500, "pitch": 76, "duration": 5, "velocity": 92}, {"time": 1506, "pitch": 78, "duration": 7, "velocity": 87}, {"time": 1512, "pitch": 76, "duration": 8, "velocity": 90}, {"time": 1521, "pitch": 74, "duration": 13, "velocity": 90}, {"time": 1536, "pitch": 74, "duration": 7, "velocity": 99}, {"time": 1542, "pitch": 76, "duration": 4, "velocity": 89}, {"time": 1548, "pitch": 78, "duration": 4, "velocity": 88}, {"time": 1554, "pitch": 79, "duration": 5, "velocity": 86}, {"time": 1560, "pitch": 78, "duration": 8, "velocity": 89}, {"time": 1569, "pitch": 76, "duration": 10, "velocity": 91}, {"time": 1584, "pitch": 74, "duration": 5, "velocity": 91}, {"time": 1590, "pitch": 71, "duration": 4, "velocity": 90}, {"time": 1596, "pitch": 74, "duration": 4, "velocity": 92}, {"time": 1602, "pitch": 83, "duration": 4, "velocity": 89}, {"time": 1608, "pitch": 81, "duration": 8, "velocity": 87}, {"time": 1617, "pitch": 79, "duration": 14, "velocity": 90}, {"time": 1632, "pitch": 74, "duration": 4, "velocity": 89}, {"time": 1638, "pitch": 76, "duration": 6, "velocity": 91}, {"time": 1644, "pitch": 79, "duration": 5, "velocity": 89}, {"time": 1650, "pitch": 81, "duration": 4, "velocity": 87}, {"time": 1656, "pitch": 83, "duration": 8, "velocity": 89}, {"time": 1665, "pitch": 81, "duration": 9, "velocity": 90}, {"time": 1680, "pitch": 79, "duration": 5, "velocity": 90}, {"time": 1686, "pitch": 76, "duration": 4, "velocity": 91}, {"time": 1692, "pitch": 79, "duration": 4, "velocity": 92}, {"time": 1698, "pitch": 83, "duration": 4, "velocity": 90}, {"time": 1704, "pitch": 83, "duration": 8, "velocity": 91}, {"time": 1713, "pitch": 81, "duration": 11, "velocity": 87}, {"time": 1740, "pitch": 79, "duration": 5, "velocity": 90}, {"time": 1746, "pitch": 76, "duration": 9, "velocity": 92}, {"time": 1755, "pitch": 81, "duration": 11, "velocity": 86}, {"time": 1767, "pitch": 79, "duration": 28, "velocity": 84}, {"time": 2160, "pitch": 69, "duration": 5, "velocity": 87}, {"time": 2166, "pitch": 71, "duration": 2, "velocity": 84}, {"time": 2169, "pitch": 71, "duration": 8, "velocity": 85}, {"time": 2181, "pitch": 62, "duration": 2, "velocity": 85}, {"time": 2184, "pitch": 74, "duration": 5, "velocity": 96}, {"time": 2190, "pitch": 74, "duration": 5, "velocity": 96}, {"time": 2193, "pitch": 76, "duration": 9, "velocity": 86}, {"time": 2202, "pitch": 78, "duration": 3, "velocity": 74}, {"time": 2205, "pitch": 79, "duration": 33, "velocity": 79}, {"time": 2250, "pitch": 79, "duration": 3, "velocity": 86}, {"time": 2253, "pitch": 74, "duration": 2, "velocity": 89}, {"time": 2256, "pitch": 74, "duration": 4, "velocity": 89}, {"time": 2262, "pitch": 76, "duration": 2, "velocity": 87}, {"time": 2265, "pitch": 76, "duration": 9, "velocity": 86}, {"time": 2277, "pitch": 74, "duration": 2, "velocity": 83}, {"time": 2280, "pitch": 74, "duration": 5, "velocity": 92}, {"time": 2286, "pitch": 76, "duration": 2, "velocity": 81}, {"time": 2289, "pitch": 74, "duration": 7, "velocity": 89}, {"time": 2295, "pitch": 72, "duration": 6, "velocity": 87}, {"time": 2301, "pitch": 71, "duration": 26, "velocity": 86}, {"time": 2349, "pitch": 74, "duration": 3, "velocity": 99}, {"time": 2352, "pitch": 74, "duration": 3, "velocity": 99}, {"time": 2355, "pitch": 76, "duration": 2, "velocity": 85}, {"time": 2358, "pitch": 76, "duration": 3, "velocity": 86}, {"time": 2361, "pitch": 74, "duration": 2, "velocity": 92}, {"time": 2364, "pitch": 74, "duration": 3, "velocity": 87}, {"time": 2367, "pitch": 76, "duration": 6, "velocity": 86}, {"time": 2373, "pitch": 74, "duration": 3, "velocity": 92}, {"time": 2376, "pitch": 74, "duration": 3, "velocity": 92}, {"time": 2379, "pitch": 76, "duration": 1, "velocity": 86}, {"time": 2382, "pitch": 76, "duration": 2, "velocity": 87}, {"time": 2385, "pitch": 74, "duration": 2, "velocity": 91}, {"time": 2388, "pitch": 79, "duration": 3, "velocity": 89}, {"time": 2391, "pitch": 76, "duration": 5, "velocity": 89}, {"time": 2397, "pitch": 71, "duration": 3, "velocity": 82}, {"time": 2400, "pitch": 74, "duration": 3, "velocity": 89}, {"time": 2403, "pitch": 76, "duration": 2, "velocity": 85}, {"time": 2406, "pitch": 76, "duration": 2, "velocity": 87}, {"time": 2409, "pitch": 74, "duration": 5, "velocity": 92}, {"time": 2415, "pitch": 74, "duration": 3, "velocity": 87}, {"time": 2418, "pitch": 69, "duration": 3, "velocity": 85}, {"time": 2421, "pitch": 71, "duration": 15, "velocity": 84}, {"time": 2442, "pitch": 74, "duration": 2, "velocity": 81}, {"time": 2445, "pitch": 74, "duration": 3, "velocity": 85}, {"time": 2448, "pitch": 74, "duration": 5, "velocity": 87}, {"time": 2454, "pitch": 72, "duration": 2, "velocity": 77}, {"time": 2457, "pitch": 72, "duration": 11, "velocity": 80}, {"time": 2469, "pitch": 74, "duration": 3, "velocity": 87}, {"time": 2472, "pitch": 76, "duration": 6, "velocity": 87}, {"time": 2478, "pitch": 79, "duration": 7, "velocity": 91}, {"time": 2484, "pitch": 83, "duration": 3, "velocity": 89}, {"time": 2488, "pitch": 81, "duration": 3, "velocity": 89}, {"time": 2492, "pitch": 79, "duration": 3, "velocity": 89}, {"time": 2496, "pitch": 81, "duration": 20, "velocity": 89}, {"time": 2520, "pitch": 74, "duration": 4, "velocity": 99}, {"time": 2526, "pitch": 76, "duration": 7, "velocity": 94}, {"time": 2532, "pitch": 79, "duration": 5, "velocity": 90}, {"time": 2538, "pitch": 81, "duration": 4, "velocity": 94}, {"time": 2544, "pitch": 83, "duration": 12, "velocity": 91}, {"time": 2556, "pitch": 74, "duration": 8, "velocity": 92}, {"time": 2565, "pitch": 74, "duration": 2, "velocity": 96}, {"time": 2568, "pitch": 84, "duration": 4, "velocity": 96}, {"time": 2574, "pitch": 83, "duration": 5, "velocity": 89}, {"time": 2580, "pitch": 81, "duration": 5, "velocity": 92}, {"time": 2586, "pitch": 79, "duration": 4, "velocity": 92}, {"time": 2589, "pitch": 81, "duration": 11, "velocity": 88}, {"time": 2598, "pitch": 74, "duration": 10, "velocity": 89}, {"time": 2616, "pitch": 74, "duration": 5, "velocity": 99}, {"time": 2622, "pitch": 76, "duration": 5, "velocity": 91}, {"time": 2628, "pitch": 78, "duration": 5, "velocity": 89}, {"time": 2634, "pitch": 74, "duration": 6, "velocity": 87}, {"time": 2640, "pitch": 81, "duration": 11, "velocity": 91}, {"time": 2649, "pitch": 79, "duration": 11, "velocity": 91}, {"time": 2661, "pitch": 71, "duration": 2, "velocity": 89}, {"time": 2664, "pitch": 79, "duration": 5, "velocity": 89}, {"time": 2670, "pitch": 78, "duration": 5, "velocity": 94}, {"time": 2676, "pitch": 76, "duration": 5, "velocity": 92}, {"time": 2682, "pitch": 78, "duration": 7, "velocity": 87}, {"time": 2688, "pitch": 76, "duration": 8, "velocity": 90}, {"time": 2697, "pitch": 74, "duration": 13, "velocity": 90}, {"time": 2712, "pitch": 74, "duration": 7, "velocity": 99}, {"time": 2718, "pitch": 76, "duration": 4, "velocity": 89}, {"time": 2724, "pitch": 78, "duration": 4, "velocity": 88}, {"time": 2730, "pitch": 79, "duration": 5, "velocity": 86}, {"time": 2736, "pitch": 78, "duration": 8, "velocity": 89}, {"time": 2745, "pitch": 76, "duration": 10, "velocity": 91}, {"time": 2760, "pitch": 74, "duration": 5, "velocity": 91}, {"time": 2766, "pitch": 71, "duration": 4, "velocity": 90}, {"time": 2772, "pitch": 74, "duration": 4, "velocity": 92}, {"time": 2778, "pitch": 83, "duration": 4, "velocity": 89}, {"time": 2784, "pitch": 81, "duration": 8, "velocity": 87}, {"time": 2793, "pitch": 79, "duration": 14, "velocity": 90}, {"time": 2808, "pitch": 74, "duration": 4, "velocity": 89}, {"time": 2814, "pitch": 76, "duration": 6, "velocity": 91}, {"time": 2820, "pitch": 79, "duration": 5, "velocity": 89}, {"time": 2826, "pitch": 81, "duration": 4, "velocity": 87}, {"time": 2832, "pitch": 83, "duration": 8, "velocity": 89}, {"time": 2841, "pitch": 81, "duration": 9, "velocity": 90}, {"time": 2856, "pitch": 79, "duration": 5, "velocity": 90}, {"time": 2862, "pitch": 76, "duration": 4, "velocity": 91}, {"time": 2868, "pitch": 79, "duration": 4, "velocity": 92}, {"time": 2874, "pitch": 83, "duration": 4, "velocity": 90}, {"time": 2880, "pitch": 83, "duration": 8, "velocity": 91}, {"time": 2889, "pitch": 81, "duration": 11, "velocity": 87}, {"time": 2904, "pitch": 74, "duration": 4, "velocity": 99}, {"time": 2910, "pitch": 76, "duration": 7, "velocity": 94}, {"time": 2916, "pitch": 79, "duration": 5, "velocity": 90}, {"time": 2922, "pitch": 81, "duration": 4, "velocity": 94}, {"time": 2928, "pitch": 83, "duration": 12, "velocity": 91}, {"time": 2940, "pitch": 74, "duration": 8, "velocity": 92}, {"time": 2949, "pitch": 74, "duration": 2, "velocity": 96}, {"time": 2952, "pitch": 84, "duration": 4, "velocity": 96}, {"time": 2958, "pitch": 83, "duration": 5, "velocity": 89}, {"time": 2964, "pitch": 81, "duration": 5, "velocity": 92}, {"time": 2970, "pitch": 79, "duration": 4, "velocity": 92}, {"time": 2973, "pitch": 81, "duration": 9, "velocity": 88}, {"time": 2982, "pitch": 74, "duration": 10, "velocity": 89}, {"time": 3000, "pitch": 74, "duration": 5, "velocity": 99}, {"time": 3006, "pitch": 76, "duration": 5, "velocity": 91}, {"time": 3012, "pitch": 78, "duration": 5, "velocity": 89}, {"time": 3018, "pitch": 74, "duration": 6, "velocity": 87}, {"time": 3024, "pitch": 81, "duration": 5, "velocity": 91}, {"time": 3030, "pitch": 79, "duration": 11, "velocity": 91}, {"time": 3048, "pitch": 79, "duration": 5, "velocity": 89}, {"time": 3054, "pitch": 78, "duration": 5, "velocity": 94}, {"time": 3060, "pitch": 76, "duration": 5, "velocity": 92}, {"time": 3066, "pitch": 78, "duration": 7, "velocity": 87}, {"time": 3072, "pitch": 76, "duration": 8, "velocity": 90}, {"time": 3081, "pitch": 74, "duration": 13, "velocity": 90}, {"time": 3096, "pitch": 74, "duration": 7, "velocity": 99}, {"time": 3102, "pitch": 76, "duration": 4, "velocity": 89}, {"time": 3108, "pitch": 78, "duration": 4, "velocity": 88}, {"time": 3114, "pitch": 79, "duration": 5, "velocity": 86}, {"time": 3120, "pitch": 78, "duration": 8, "velocity": 89}, {"time": 3129, "pitch": 76, "duration": 10, "velocity": 91}, {"time": 3144, "pitch": 74, "duration": 5, "velocity": 91}, {"time": 3150, "pitch": 71, "duration": 4, "velocity": 90}, {"time": 3156, "pitch": 74, "duration": 4, "velocity": 92}, {"time": 3162, "pitch": 83, "duration": 4, "velocity": 89}, {"time": 3168, "pitch": 81, "duration": 8, "velocity": 87}, {"time": 3177, "pitch": 79, "duration": 14, "velocity": 90}, {"time": 3192, "pitch": 74, "duration": 4, "velocity": 89}, {"time": 3198, "pitch": 76, "duration": 6, "velocity": 91}, {"time": 3204, "pitch": 79, "duration": 5, "velocity": 89}, {"time": 3210, "pitch": 81, "duration": 4, "velocity": 87}, {"time": 3216, "pitch": 83, "duration": 12, "velocity": 89}, {"time": 3228, "pitch": 81, "duration": 9, "velocity": 90}, {"time": 3240, "pitch": 79, "duration": 5, "velocity": 90}, {"time": 3246, "pitch": 76, "duration": 4, "velocity": 91}, {"time": 3252, "pitch": 79, "duration": 4, "velocity": 92}, {"time": 3258, "pitch": 83, "duration": 4, "velocity": 90}, {"time": 3264, "pitch": 83, "duration": 13, "velocity": 91}, {"time": 3276, "pitch": 81, "duration": 11, "velocity": 87}, {"time": 3300, "pitch": 79, "duration": 5, "velocity": 90}, {"time": 3306, "pitch": 76, "duration": 9, "velocity": 92}, {"time": 3315, "pitch": 81, "duration": 11, "velocity": 86}, {"time": 3327, "pitch": 79, "duration": 28, "velocity": 84}]}, {"program": 0, "is_drum": false, "name": "PIANO", "notes": [{"time": 24, "pitch": 43, "duration": 38, "velocity": 84}, {"time": 24, "pitch": 55, "duration": 10, "velocity": 72}, {"time": 24, "pitch": 59, "duration": 9, "velocity": 70}, {"time": 24, "pitch": 62, "duration": 9, "velocity": 77}, {"time": 30, "pitch": 50, "duration": 30, "velocity": 62}, {"time": 36, "pitch": 67, "duration": 5, "velocity": 80}, {"time": 42, "pitch": 55, "duration": 10, "velocity": 73}, {"time": 48, "pitch": 59, "duration": 7, "velocity": 65}, {"time": 48, "pitch": 62, "duration": 7, "velocity": 63}, {"time": 60, "pitch": 59, "duration": 4, "velocity": 79}, {"time": 60, "pitch": 62, "duration": 5, "velocity": 78}, {"time": 66, "pitch": 57, "duration": 2, "velocity": 78}, {"time": 72, "pitch": 47, "duration": 38, "velocity": 82}, {"time": 72, "pitch": 59, "duration": 7, "velocity": 72}, {"time": 72, "pitch": 62, "duration": 13, "velocity": 79}, {"time": 72, "pitch": 66, "duration": 5, "velocity": 73}, {"time": 78, "pitch": 54, "duration": 10, "velocity": 68}, {"time": 84, "pitch": 66, "duration": 9, "velocity": 76}, {"time": 90, "pitch": 54, "duration": 18, "velocity": 64}, {"time": 93, "pitch": 59, "duration": 2, "velocity": 70}, {"time": 96, "pitch": 62, "duration": 1, "velocity": 75}, {"time": 96, "pitch": 66, "duration": 2, "velocity": 74}, {"time": 96, "pitch": 71, "duration": 2, "velocity": 85}, {"time": 108, "pitch": 59, "duration": 2, "velocity": 74}, {"time": 108, "pitch": 62, "duration": 2, "velocity": 73}, {"time": 117, "pitch": 60, "duration": 3, "velocity": 73}, {"time": 120, "pitch": 36, "duration": 11, "velocity": 80}, {"time": 120, "pitch": 64, "duration": 7, "velocity": 80}, {"time": 120, "pitch": 67, "duration": 6, "velocity": 73}, {"time": 120, "pitch": 72, "duration": 6, "velocity": 76}, {"time": 126, "pitch": 43, "duration": 5, "velocity": 62}, {"time": 132, "pitch": 60, "duration": 3, "velocity": 74}, {"time": 132, "pitch": 64, "duration": 2, "velocity": 79}, {"time": 144, "pitch": 45, "duration": 16, "velocity": 82}, {"time": 144, "pitch": 57, "duration": 9, "velocity": 71}, {"time": 144, "pitch": 60, "duration": 9, "velocity": 67}, {"time": 150, "pitch": 52, "duration": 10, "velocity": 63}, {"time": 156, "pitch": 57, "duration": 8, "velocity": 79}, {"time": 162, "pitch": 60, "duration": 6, "velocity": 81}, {"time": 168, "pitch": 38, "duration": 2, "velocity": 82}, {"time": 168, "pitch": 57, "duration": 3, "velocity": 70}, {"time": 168, "pitch": 62, "duration": 9, "velocity": 74}, {"time": 174, "pitch": 50, "duration": 35, "velocity": 79}, {"time": 180, "pitch": 57, "duration": 28, "velocity": 69}, {"time": 183, "pitch": 62, "duration": 6, "velocity": 73}, {"time": 186, "pitch": 67, "duration": 4, "velocity": 72}, {"time": 189, "pitch": 69, "duration": 5, "velocity": 78}, {"time": 192, "pitch": 74, "duration": 13, "velocity": 82}, {"time": 216, "pitch": 55, "duration": 20, "velocity": 59}, {"time": 216, "pitch": 81, "duration": 7, "velocity": 64}, {"time": 222, "pitch": 62, "duration": 18, "velocity": 41}, {"time": 222, "pitch": 74, "duration": 6, "velocity": 53}, {"time": 228, "pitch": 67, "duration": 7, "velocity": 51}, {"time": 228, "pitch": 78, "duration": 13, "velocity": 54}, {"time": 240, "pitch": 81, "duration": 13, "velocity": 39}, {"time": 264, "pitch": 50, "duration": 13, "velocity": 48}, {"time": 264, "pitch": 81, "duration": 7, "velocity": 75}, {"time": 270, "pitch": 57, "duration": 12, "velocity": 39}, {"time": 270, "pitch": 74, "duration": 7, "velocity": 58}, {"time": 276, "pitch": 64, "duration": 3, "velocity": 44}, {"time": 276, "pitch": 78, "duration": 12, "velocity": 55}, {"time": 288, "pitch": 66, "duration": 1, "velocity": 43}, {"time": 288, "pitch": 81, "duration": 11, "velocity": 35}, {"time": 312, "pitch": 52, "duration": 11, "velocity": 50}, {"time": 312, "pitch": 81, "duration": 7, "velocity": 70}, {"time": 318, "pitch": 59, "duration": 6, "velocity": 45}, {"time": 318, "pitch": 74, "duration": 6, "velocity": 56}, {"time": 324, "pitch": 64, "duration": 3, "velocity": 54}, {"time": 324, "pitch": 78, "duration": 12, "velocity": 62}, {"time": 330, "pitch": 59, "duration": 8, "velocity": 43}, {"time": 336, "pitch": 67, "duration": 3, "velocity": 38}, {"time": 336, "pitch": 79, "duration": 18, "velocity": 49}, {"time": 360, "pitch": 47, "duration": 10, "velocity": 53}, {"time": 360, "pitch": 81, "duration": 7, "velocity": 78}, {"time": 366, "pitch": 54, "duration": 5, "velocity": 49}, {"time": 366, "pitch": 71, "duration": 7, "velocity": 56}, {"time": 372, "pitch": 59, "duration": 1, "velocity": 48}, {"time": 372, "pitch": 74, "duration": 11, "velocity": 51}, {"time": 378, "pitch": 54, "duration": 7, "velocity": 35}, {"time": 384, "pitch": 62, "duration": 2, "velocity": 35}, {"time": 384, "pitch": 78, "duration": 6, "velocity": 38}, {"time": 393, "pitch": 78, "duration": 3, "velocity": 64}, {"time": 396, "pitch": 79, "duration": 3, "velocity": 83}, {"time": 399, "pitch": 78, "duration": 3, "velocity": 64}, {"time": 402, "pitch": 76, "duration": 3, "velocity": 56}, {"time": 405, "pitch": 74, "duration": 3, "velocity": 44}, {"time": 408, "pitch": 48, "duration": 20, "velocity": 51}, {"time": 408, "pitch": 76, "duration": 7, "velocity": 54}, {"time": 408, "pitch": 76, "duration": 7, "velocity": 64}, {"time": 414, "pitch": 55, "duration": 6, "velocity": 48}, {"time": 414, "pitch": 67, "duration": 6, "velocity": 55}, {"time": 420, "pitch": 60, "duration": 5, "velocity": 51}, {"time": 420, "pitch": 74, "duration": 7, "velocity": 53}, {"time": 426, "pitch": 55, "duration": 8, "velocity": 30}, {"time": 426, "pitch": 67, "duration": 6, "velocity": 39}, {"time": 432, "pitch": 64, "duration": 1, "velocity": 34}, {"time": 432, "pitch": 76, "duration": 12, "velocity": 38}, {"time": 444, "pitch": 55, "duration": 6, "velocity": 50}, {"time": 447, "pitch": 62, "duration": 4, "velocity": 53}, {"time": 450, "pitch": 69, "duration": 6, "velocity": 58}, {"time": 456, "pitch": 55, "duration": 12, "velocity": 63}, {"time": 456, "pitch": 81, "duration": 6, "velocity": 74}, {"time": 462, "pitch": 62, "duration": 6, "velocity": 47}, {"time": 462, "pitch": 74, "duration": 6, "velocity": 62}, {"time": 468, "pitch": 67, "duration": 6, "velocity": 66}, {"time": 468, "pitch": 79, "duration": 6, "velocity": 66}, {"time": 474, "pitch": 62, "duration": 6, "velocity": 43}, {"time": 474, "pitch": 81, "duration": 6, "velocity": 49}, {"time": 480, "pitch": 76, "duration": 14, "velocity": 43}, {"time": 481, "pitch": 67, "duration": 13, "velocity": 43}, {"time": 481, "pitch": 64, "duration": 14, "velocity": 40}, {"time": 481, "pitch": 61, "duration": 14, "velocity": 39}, {"time": 504, "pitch": 74, "duration": 12, "velocity": 76}, {"time": 504, "pitch": 48, "duration": 16, "velocity": 56}, {"time": 510, "pitch": 55, "duration": 7, "velocity": 49}, {"time": 516, "pitch": 62, "duration": 6, "velocity": 55}, {"time": 516, "pitch": 71, "duration": 6, "velocity": 60}, {"time": 522, "pitch": 72, "duration": 7, "velocity": 51}, {"time": 522, "pitch": 55, "duration": 1, "velocity": 36}, {"time": 528, "pitch": 71, "duration": 13, "velocity": 44}, {"time": 528, "pitch": 45, "duration": 16, "velocity": 51}, {"time": 534, "pitch": 52, "duration": 9, "velocity": 49}, {"time": 540, "pitch": 59, "duration": 6, "velocity": 59}, {"time": 546, "pitch": 52, "duration": 1, "velocity": 38}, {"time": 550, "pitch": 72, "duration": 3, "velocity": 36}, {"time": 551, "pitch": 75, "duration": 6, "velocity": 53}, {"time": 551, "pitch": 79, "duration": 8, "velocity": 50}, {"time": 552, "pitch": 48, "duration": 11, "velocity": 68}, {"time": 552, "pitch": 81, "duration": 7, "velocity": 55}, {"time": 558, "pitch": 55, "duration": 7, "velocity": 63}, {"time": 558, "pitch": 72, "duration": 13, "velocity": 57}, {"time": 564, "pitch": 62, "duration": 2, "velocity": 57}, {"time": 565, "pitch": 75, "duration": 6, "velocity": 54}, {"time": 570, "pitch": 63, "duration": 1, "velocity": 50}, {"time": 570, "pitch": 79, "duration": 3, "velocity": 54}, {"time": 575, "pitch": 69, "duration": 25, "velocity": 49}, {"time": 576, "pitch": 74, "duration": 25, "velocity": 44}, {"time": 577, "pitch": 50, "duration": 23, "velocity": 41}, {"time": 577, "pitch": 57, "duration": 23, "velocity": 38}, {"time": 577, "pitch": 78, "duration": 24, "velocity": 51}, {"time": 577, "pitch": 81, "duration": 23, "velocity": 63}, {"time": 600, "pitch": 43, "duration": 40, "velocity": 79}, {"time": 606, "pitch": 50, "duration": 6, "velocity": 43}, {"time": 609, "pitch": 57, "duration": 30, "velocity": 61}, {"time": 615, "pitch": 50, "duration": 26, "velocity": 35}, {"time": 618, "pitch": 59, "duration": 3, "velocity": 44}, {"time": 621, "pitch": 62, "duration": 21, "velocity": 46}, {"time": 648, "pitch": 40, "duration": 33, "velocity": 87}, {"time": 654, "pitch": 47, "duration": 5, "velocity": 44}, {"time": 657, "pitch": 54, "duration": 5, "velocity": 83}, {"time": 663, "pitch": 47, "duration": 17, "velocity": 37}, {"time": 666, "pitch": 55, "duration": 21, "velocity": 43}, {"time": 666, "pitch": 59, "duration": 1, "velocity": 39}, {"time": 669, "pitch": 59, "duration": 20, "velocity": 10}, {"time": 672, "pitch": 64, "duration": 18, "velocity": 51}, {"time": 684, "pitch": 52, "duration": 12, "velocity": 73}, {"time": 696, "pitch": 48, "duration": 37, "velocity": 81}, {"time": 702, "pitch": 55, "duration": 4, "velocity": 47}, {"time": 705, "pitch": 62, "duration": 7, "velocity": 88}, {"time": 711, "pitch": 55, "duration": 22, "velocity": 50}, {"time": 714, "pitch": 64, "duration": 18, "velocity": 56}, {"time": 744, "pitch": 43, "duration": 37, "velocity": 88}, {"time": 750, "pitch": 50, "duration": 6, "velocity": 43}, {"time": 753, "pitch": 57, "duration": 7, "velocity": 80}, {"time": 759, "pitch": 50, "duration": 23, "velocity": 38}, {"time": 762, "pitch": 59, "duration": 13, "velocity": 58}, {"time": 774, "pitch": 62, "duration": 9, "velocity": 62}, {"time": 780, "pitch": 45, "duration": 7, "velocity": 93}, {"time": 786, "pitch": 47, "duration": 7, "velocity": 91}, {"time": 792, "pitch": 48, "duration": 27, "velocity": 91}, {"time": 798, "pitch": 55, "duration": 7, "velocity": 40}, {"time": 801, "pitch": 62, "duration": 8, "velocity": 94}, {"time": 807, "pitch": 55, "duration": 11, "velocity": 35}, {"time": 810, "pitch": 64, "duration": 20, "velocity": 68}, {"time": 828, "pitch": 60, "duration": 12, "velocity": 81}, {"time": 840, "pitch": 43, "duration": 24, "velocity": 94}, {"time": 846, "pitch": 50, "duration": 5, "velocity": 52}, {"time": 849, "pitch": 57, "duration": 6, "velocity": 91}, {"time": 855, "pitch": 50, "duration": 7, "velocity": 34}, {"time": 858, "pitch": 59, "duration": 6, "velocity": 67}, {"time": 864, "pitch": 62, "duration": 13, "velocity": 51}, {"time": 865, "pitch": 49, "duration": 23, "velocity": 52}, {"time": 865, "pitch": 55, "duration": 22, "velocity": 57}, {"time": 865, "pitch": 52, "duration": 22, "velocity": 47}, {"time": 888, "pitch": 48, "duration": 43, "velocity": 91}, {"time": 894, "pitch": 55, "duration": 21, "velocity": 38}, {"time": 897, "pitch": 62, "duration": 10, "velocity": 88}, {"time": 906, "pitch": 64, "duration": 20, "velocity": 50}, {"time": 936, "pitch": 38, "duration": 23, "velocity": 107}, {"time": 936, "pitch": 54, "duration": 7, "velocity": 95}, {"time": 936, "pitch": 57, "duration": 7, "velocity": 81}, {"time": 936, "pitch": 62, "duration": 7, "velocity": 92}, {"time": 942, "pitch": 50, "duration": 4, "velocity": 41}, {"time": 945, "pitch": 54, "duration": 7, "velocity": 95}, {"time": 945, "pitch": 57, "duration": 7, "velocity": 81}, {"time": 945, "pitch": 62, "duration": 7, "velocity": 92}, {"time": 951, "pitch": 50, "duration": 7, "velocity": 77}, {"time": 954, "pitch": 54, "duration": 5, "velocity": 100}, {"time": 954, "pitch": 57, "duration": 4, "velocity": 83}, {"time": 954, "pitch": 64, "duration": 4, "velocity": 95}, {"time": 963, "pitch": 38, "duration": 15, "velocity": 93}, {"time": 963, "pitch": 54, "duration": 6, "velocity": 110}, {"time": 963, "pitch": 57, "duration": 5, "velocity": 87}, {"time": 963, "pitch": 66, "duration": 6, "velocity": 111}, {"time": 969, "pitch": 50, "duration": 4, "velocity": 95}, {"time": 972, "pitch": 54, "duration": 3, "velocity": 104}, {"time": 972, "pitch": 57, "duration": 3, "velocity": 88}, {"time": 972, "pitch": 62, "duration": 4, "velocity": 99}, {"time": 975, "pitch": 50, "duration": 6, "velocity": 106}, {"time": 978, "pitch": 54, "duration": 2, "velocity": 99}, {"time": 978, "pitch": 57, "duration": 1, "velocity": 77}, {"time": 978, "pitch": 66, "duration": 2, "velocity": 109}, {"time": 981, "pitch": 38, "duration": 1, "velocity": 105}, {"time": 984, "pitch": 43, "duration": 18, "velocity": 85}, {"time": 984, "pitch": 55, "duration": 7, "velocity": 86}, {"time": 984, "pitch": 62, "duration": 6, "velocity": 82}, {"time": 990, "pitch": 50, "duration": 9, "velocity": 86}, {"time": 996, "pitch": 59, "duration": 2, "velocity": 89}, {"time": 996, "pitch": 62, "duration": 2, "velocity": 87}, {"time": 1002, "pitch": 55, "duration": 7, "velocity": 94}, {"time": 1008, "pitch": 43, "duration": 18, "velocity": 86}, {"time": 1008, "pitch": 59, "duration": 6, "velocity": 86}, {"time": 1008, "pitch": 62, "duration": 6, "velocity": 86}, {"time": 1008, "pitch": 67, "duration": 5, "velocity": 86}, {"time": 1014, "pitch": 50, "duration": 11, "velocity": 70}, {"time": 1020, "pitch": 55, "duration": 2, "velocity": 86}, {"time": 1020, "pitch": 59, "duration": 2, "velocity": 96}, {"time": 1020, "pitch": 62, "duration": 2, "velocity": 87}, {"time": 1020, "pitch": 67, "duration": 3, "velocity": 85}, {"time": 1026, "pitch": 57, "duration": 2, "velocity": 76}, {"time": 1026, "pitch": 69, "duration": 2, "velocity": 81}, {"time": 1032, "pitch": 47, "duration": 22, "velocity": 86}, {"time": 1032, "pitch": 59, "duration": 6, "velocity": 81}, {"time": 1032, "pitch": 62, "duration": 6, "velocity": 81}, {"time": 1032, "pitch": 66, "duration": 5, "velocity": 78}, {"time": 1038, "pitch": 54, "duration": 12, "velocity": 74}, {"time": 1044, "pitch": 59, "duration": 3, "velocity": 92}, {"time": 1044, "pitch": 71, "duration": 5, "velocity": 85}, {"time": 1050, "pitch": 59, "duration": 3, "velocity": 89}, {"time": 1056, "pitch": 47, "duration": 16, "velocity": 88}, {"time": 1056, "pitch": 59, "duration": 7, "velocity": 86}, {"time": 1056, "pitch": 62, "duration": 7, "velocity": 85}, {"time": 1056, "pitch": 66, "duration": 7, "velocity": 78}, {"time": 1062, "pitch": 54, "duration": 7, "velocity": 72}, {"time": 1065, "pitch": 59, "duration": 1, "velocity": 86}, {"time": 1068, "pitch": 59, "duration": 3, "velocity": 91}, {"time": 1068, "pitch": 66, "duration": 6, "velocity": 88}, {"time": 1071, "pitch": 54, "duration": 2, "velocity": 79}, {"time": 1074, "pitch": 59, "duration": 5, "velocity": 90}, {"time": 1080, "pitch": 40, "duration": 23, "velocity": 86}, {"time": 1080, "pitch": 67, "duration": 7, "velocity": 86}, {"time": 1086, "pitch": 59, "duration": 3, "velocity": 86}, {"time": 1092, "pitch": 59, "duration": 2, "velocity": 89}, {"time": 1092, "pitch": 64, "duration": 3, "velocity": 96}, {"time": 1095, "pitch": 47, "duration": 7, "velocity": 79}, {"time": 1098, "pitch": 59, "duration": 4, "velocity": 88}, {"time": 1101, "pitch": 64, "duration": 2, "velocity": 80}, {"time": 1104, "pitch": 40, "duration": 13, "velocity": 89}, {"time": 1104, "pitch": 59, "duration": 8, "velocity": 84}, {"time": 1104, "pitch": 64, "duration": 7, "velocity": 86}, {"time": 1104, "pitch": 67, "duration": 7, "velocity": 82}, {"time": 1110, "pitch": 47, "duration": 7, "velocity": 73}, {"time": 1116, "pitch": 59, "duration": 2, "velocity": 87}, {"time": 1116, "pitch": 64, "duration": 4, "velocity": 90}, {"time": 1128, "pitch": 47, "duration": 20, "velocity": 87}, {"time": 1128, "pitch": 59, "duration": 7, "velocity": 86}, {"time": 1128, "pitch": 66, "duration": 10, "velocity": 85}, {"time": 1134, "pitch": 54, "duration": 9, "velocity": 78}, {"time": 1137, "pitch": 59, "duration": 1, "velocity": 70}, {"time": 1140, "pitch": 59, "duration": 3, "velocity": 92}, {"time": 1140, "pitch": 62, "duration": 6, "velocity": 99}, {"time": 1146, "pitch": 54, "duration": 2, "velocity": 87}, {"time": 1152, "pitch": 43, "duration": 18, "velocity": 87}, {"time": 1152, "pitch": 55, "duration": 5, "velocity": 85}, {"time": 1152, "pitch": 59, "duration": 6, "velocity": 86}, {"time": 1158, "pitch": 50, "duration": 7, "velocity": 86}, {"time": 1161, "pitch": 55, "duration": 2, "velocity": 85}, {"time": 1164, "pitch": 55, "duration": 1, "velocity": 74}, {"time": 1164, "pitch": 59, "duration": 5, "velocity": 99}, {"time": 1164, "pitch": 62, "duration": 6, "velocity": 89}, {"time": 1164, "pitch": 65, "duration": 6, "velocity": 86}, {"time": 1167, "pitch": 50, "duration": 4, "velocity": 86}, {"time": 1170, "pitch": 55, "duration": 4, "velocity": 92}, {"time": 1176, "pitch": 48, "duration": 16, "velocity": 90}, {"time": 1176, "pitch": 55, "duration": 3, "velocity": 85}, {"time": 1176, "pitch": 60, "duration": 7, "velocity": 86}, {"time": 1176, "pitch": 64, "duration": 7, "velocity": 86}, {"time": 1182, "pitch": 55, "duration": 3, "velocity": 82}, {"time": 1188, "pitch": 55, "duration": 3, "velocity": 86}, {"time": 1188, "pitch": 60, "duration": 6, "velocity": 91}, {"time": 1188, "pitch": 64, "duration": 6, "velocity": 90}, {"time": 1194, "pitch": 55, "duration": 5, "velocity": 85}, {"time": 1200, "pitch": 47, "duration": 10, "velocity": 87}, {"time": 1200, "pitch": 59, "duration": 5, "velocity": 85}, {"time": 1200, "pitch": 62, "duration": 6, "velocity": 85}, {"time": 1200, "pitch": 66, "duration": 6, "velocity": 85}, {"time": 1206, "pitch": 54, "duration": 4, "velocity": 74}, {"time": 1209, "pitch": 59, "duration": 2, "velocity": 86}, {"time": 1212, "pitch": 51, "duration": 4, "velocity": 90}, {"time": 1212, "pitch": 59, "duration": 4, "velocity": 89}, {"time": 1212, "pitch": 63, "duration": 4, "velocity": 92}, {"time": 1212, "pitch": 66, "duration": 5, "velocity": 87}, {"time": 1218, "pitch": 59, "duration": 4, "velocity": 101}, {"time": 1224, "pitch": 40, "duration": 23, "velocity": 87}, {"time": 1224, "pitch": 59, "duration": 5, "velocity": 88}, {"time": 1224, "pitch": 64, "duration": 5, "velocity": 87}, {"time": 1230, "pitch": 47, "duration": 17, "velocity": 66}, {"time": 1236, "pitch": 59, "duration": 2, "velocity": 87}, {"time": 1236, "pitch": 64, "duration": 6, "velocity": 96}, {"time": 1236, "pitch": 67, "duration": 9, "velocity": 87}, {"time": 1242, "pitch": 59, "duration": 2, "velocity": 88}, {"time": 1248, "pitch": 38, "duration": 15, "velocity": 87}, {"time": 1248, "pitch": 59, "duration": 4, "velocity": 86}, {"time": 1248, "pitch": 64, "duration": 7, "velocity": 90}, {"time": 1254, "pitch": 59, "duration": 6, "velocity": 90}, {"time": 1260, "pitch": 64, "duration": 2, "velocity": 91}, {"time": 1260, "pitch": 67, "duration": 2, "velocity": 89}, {"time": 1272, "pitch": 49, "duration": 20, "velocity": 86}, {"time": 1272, "pitch": 57, "duration": 7, "velocity": 81}, {"time": 1272, "pitch": 61, "duration": 7, "velocity": 83}, {"time": 1278, "pitch": 64, "duration": 4, "velocity": 83}, {"time": 1284, "pitch": 57, "duration": 3, "velocity": 74}, {"time": 1284, "pitch": 61, "duration": 7, "velocity": 74}, {"time": 1284, "pitch": 64, "duration": 8, "velocity": 81}, {"time": 1284, "pitch": 69, "duration": 7, "velocity": 79}, {"time": 1290, "pitch": 57, "duration": 3, "velocity": 83}, {"time": 1296, "pitch": 48, "duration": 14, "velocity": 89}, {"time": 1296, "pitch": 55, "duration": 3, "velocity": 87}, {"time": 1296, "pitch": 60, "duration": 7, "velocity": 85}, {"time": 1302, "pitch": 55, "duration": 3, "velocity": 86}, {"time": 1308, "pitch": 55, "duration": 7, "velocity": 91}, {"time": 1308, "pitch": 64, "duration": 6, "velocity": 89}, {"time": 1314, "pitch": 60, "duration": 5, "velocity": 89}, {"time": 1320, "pitch": 38, "duration": 1, "velocity": 89}, {"time": 1320, "pitch": 57, "duration": 4, "velocity": 82}, {"time": 1320, "pitch": 62, "duration": 6, "velocity": 83}, {"time": 1326, "pitch": 50, "duration": 16, "velocity": 87}, {"time": 1332, "pitch": 57, "duration": 10, "velocity": 94}, {"time": 1335, "pitch": 62, "duration": 7, "velocity": 87}, {"time": 1338, "pitch": 66, "duration": 4, "velocity": 101}, {"time": 1341, "pitch": 69, "duration": 2, "velocity": 86}, {"time": 1344, "pitch": 50, "duration": 16, "velocity": 94}, {"time": 1344, "pitch": 62, "duration": 7, "velocity": 87}, {"time": 1344, "pitch": 66, "duration": 8, "velocity": 92}, {"time": 1344, "pitch": 69, "duration": 9, "velocity": 88}, {"time": 1344, "pitch": 74, "duration": 8, "velocity": 92}, {"time": 1350, "pitch": 57, "duration": 8, "velocity": 91}, {"time": 1353, "pitch": 62, "duration": 1, "velocity": 92}, {"time": 1356, "pitch": 62, "duration": 3, "velocity": 101}, {"time": 1359, "pitch": 64, "duration": 1, "velocity": 99}, {"time": 1362, "pitch": 67, "duration": 3, "velocity": 88}, {"time": 1368, "pitch": 43, "duration": 18, "velocity": 85}, {"time": 1368, "pitch": 55, "duration": 7, "velocity": 86}, {"time": 1368, "pitch": 62, "duration": 6, "velocity": 82}, {"time": 1374, "pitch": 50, "duration": 9, "velocity": 86}, {"time": 1380, "pitch": 59, "duration": 2, "velocity": 89}, {"time": 1380, "pitch": 62, "duration": 2, "velocity": 87}, {"time": 1386, "pitch": 55, "duration": 7, "velocity": 94}, {"time": 1392, "pitch": 43, "duration": 18, "velocity": 86}, {"time": 1392, "pitch": 59, "duration": 6, "velocity": 86}, {"time": 1392, "pitch": 62, "duration": 6, "velocity": 86}, {"time": 1392, "pitch": 67, "duration": 5, "velocity": 86}, {"time": 1398, "pitch": 50, "duration": 11, "velocity": 70}, {"time": 1404, "pitch": 55, "duration": 2, "velocity": 86}, {"time": 1404, "pitch": 59, "duration": 2, "velocity": 96}, {"time": 1404, "pitch": 62, "duration": 2, "velocity": 87}, {"time": 1404, "pitch": 67, "duration": 3, "velocity": 85}, {"time": 1410, "pitch": 57, "duration": 2, "velocity": 76}, {"time": 1410, "pitch": 69, "duration": 2, "velocity": 81}, {"time": 1416, "pitch": 47, "duration": 22, "velocity": 86}, {"time": 1416, "pitch": 59, "duration": 6, "velocity": 81}, {"time": 1416, "pitch": 62, "duration": 6, "velocity": 81}, {"time": 1416, "pitch": 66, "duration": 5, "velocity": 78}, {"time": 1422, "pitch": 54, "duration": 12, "velocity": 74}, {"time": 1428, "pitch": 59, "duration": 3, "velocity": 92}, {"time": 1428, "pitch": 71, "duration": 5, "velocity": 85}, {"time": 1434, "pitch": 59, "duration": 3, "velocity": 89}, {"time": 1440, "pitch": 47, "duration": 16, "velocity": 88}, {"time": 1440, "pitch": 59, "duration": 7, "velocity": 86}, {"time": 1440, "pitch": 62, "duration": 7, "velocity": 85}, {"time": 1440, "pitch": 66, "duration": 7, "velocity": 78}, {"time": 1446, "pitch": 54, "duration": 7, "velocity": 72}, {"time": 1449, "pitch": 59, "duration": 1, "velocity": 86}, {"time": 1452, "pitch": 59, "duration": 3, "velocity": 91}, {"time": 1452, "pitch": 66, "duration": 6, "velocity": 88}, {"time": 1455, "pitch": 54, "duration": 2, "velocity": 79}, {"time": 1458, "pitch": 59, "duration": 5, "velocity": 90}, {"time": 1464, "pitch": 40, "duration": 23, "velocity": 86}, {"time": 1464, "pitch": 67, "duration": 7, "velocity": 86}, {"time": 1470, "pitch": 59, "duration": 3, "velocity": 86}, {"time": 1476, "pitch": 59, "duration": 2, "velocity": 89}, {"time": 1476, "pitch": 64, "duration": 3, "velocity": 96}, {"time": 1479, "pitch": 47, "duration": 7, "velocity": 79}, {"time": 1482, "pitch": 59, "duration": 4, "velocity": 88}, {"time": 1485, "pitch": 64, "duration": 2, "velocity": 80}, {"time": 1488, "pitch": 40, "duration": 13, "velocity": 89}, {"time": 1488, "pitch": 59, "duration": 8, "velocity": 84}, {"time": 1488, "pitch": 64, "duration": 7, "velocity": 86}, {"time": 1488, "pitch": 67, "duration": 7, "velocity": 82}, {"time": 1494, "pitch": 47, "duration": 7, "velocity": 73}, {"time": 1500, "pitch": 59, "duration": 2, "velocity": 87}, {"time": 1500, "pitch": 64, "duration": 4, "velocity": 90}, {"time": 1512, "pitch": 47, "duration": 20, "velocity": 87}, {"time": 1512, "pitch": 59, "duration": 7, "velocity": 86}, {"time": 1512, "pitch": 66, "duration": 10, "velocity": 85}, {"time": 1518, "pitch": 54, "duration": 9, "velocity": 78}, {"time": 1521, "pitch": 59, "duration": 1, "velocity": 70}, {"time": 1524, "pitch": 59, "duration": 3, "velocity": 92}, {"time": 1524, "pitch": 62, "duration": 6, "velocity": 99}, {"time": 1530, "pitch": 54, "duration": 2, "velocity": 87}, {"time": 1536, "pitch": 43, "duration": 18, "velocity": 87}, {"time": 1536, "pitch": 55, "duration": 5, "velocity": 85}, {"time": 1536, "pitch": 59, "duration": 6, "velocity": 86}, {"time": 1542, "pitch": 50, "duration": 7, "velocity": 86}, {"time": 1545, "pitch": 55, "duration": 2, "velocity": 85}, {"time": 1548, "pitch": 55, "duration": 1, "velocity": 74}, {"time": 1548, "pitch": 59, "duration": 5, "velocity": 99}, {"time": 1548, "pitch": 62, "duration": 6, "velocity": 89}, {"time": 1548, "pitch": 65, "duration": 6, "velocity": 86}, {"time": 1551, "pitch": 50, "duration": 4, "velocity": 86}, {"time": 1554, "pitch": 55, "duration": 4, "velocity": 92}, {"time": 1560, "pitch": 48, "duration": 16, "velocity": 90}, {"time": 1560, "pitch": 55, "duration": 3, "velocity": 85}, {"time": 1560, "pitch": 60, "duration": 7, "velocity": 86}, {"time": 1560, "pitch": 64, "duration": 7, "velocity": 86}, {"time": 1566, "pitch": 55, "duration": 3, "velocity": 82}, {"time": 1572, "pitch": 55, "duration": 3, "velocity": 86}, {"time": 1572, "pitch": 60, "duration": 6, "velocity": 91}, {"time": 1572, "pitch": 64, "duration": 6, "velocity": 90}, {"time": 1578, "pitch": 55, "duration": 5, "velocity": 85}, {"time": 1584, "pitch": 47, "duration": 10, "velocity": 87}, {"time": 1584, "pitch": 59, "duration": 5, "velocity": 85}, {"time": 1584, "pitch": 62, "duration": 6, "velocity": 85}, {"time": 1584, "pitch": 66, "duration": 6, "velocity": 85}, {"time": 1590, "pitch": 54, "duration": 4, "velocity": 74}, {"time": 1593, "pitch": 59, "duration": 2, "velocity": 86}, {"time": 1596, "pitch": 51, "duration": 4, "velocity": 90}, {"time": 1596, "pitch": 59, "duration": 4, "velocity": 89}, {"time": 1596, "pitch": 63, "duration": 4, "velocity": 92}, {"time": 1596, "pitch": 66, "duration": 5, "velocity": 87}, {"time": 1602, "pitch": 59, "duration": 4, "velocity": 101}, {"time": 1608, "pitch": 40, "duration": 23, "velocity": 87}, {"time": 1608, "pitch": 59, "duration": 5, "velocity": 88}, {"time": 1608, "pitch": 64, "duration": 5, "velocity": 87}, {"time": 1614, "pitch": 47, "duration": 17, "velocity": 66}, {"time": 1620, "pitch": 59, "duration": 2, "velocity": 87}, {"time": 1620, "pitch": 64, "duration": 6, "velocity": 96}, {"time": 1620, "pitch": 67, "duration": 9, "velocity": 87}, {"time": 1626, "pitch": 59, "duration": 2, "velocity": 88}, {"time": 1632, "pitch": 38, "duration": 15, "velocity": 87}, {"time": 1632, "pitch": 59, "duration": 4, "velocity": 86}, {"time": 1632, "pitch": 64, "duration": 7, "velocity": 90}, {"time": 1638, "pitch": 59, "duration": 6, "velocity": 90}, {"time": 1644, "pitch": 64, "duration": 2, "velocity": 91}, {"time": 1644, "pitch": 67, "duration": 2, "velocity": 89}, {"time": 1656, "pitch": 49, "duration": 20, "velocity": 86}, {"time": 1656, "pitch": 57, "duration": 7, "velocity": 81}, {"time": 1656, "pitch": 61, "duration": 7, "velocity": 83}, {"time": 1662, "pitch": 64, "duration": 4, "velocity": 83}, {"time": 1668, "pitch": 57, "duration": 3, "velocity": 74}, {"time": 1668, "pitch": 61, "duration": 7, "velocity": 74}, {"time": 1668, "pitch": 64, "duration": 8, "velocity": 81}, {"time": 1668, "pitch": 69, "duration": 7, "velocity": 79}, {"time": 1674, "pitch": 57, "duration": 3, "velocity": 83}, {"time": 1680, "pitch": 48, "duration": 14, "velocity": 89}, {"time": 1680, "pitch": 55, "duration": 3, "velocity": 87}, {"time": 1680, "pitch": 60, "duration": 7, "velocity": 85}, {"time": 1686, "pitch": 55, "duration": 3, "velocity": 86}, {"time": 1692, "pitch": 55, "duration": 7, "velocity": 91}, {"time": 1692, "pitch": 64, "duration": 6, "velocity": 89}, {"time": 1698, "pitch": 60, "duration": 5, "velocity": 89}, {"time": 1704, "pitch": 38, "duration": 2, "velocity": 88}, {"time": 1704, "pitch": 62, "duration": 14, "velocity": 82}, {"time": 1704, "pitch": 74, "duration": 13, "velocity": 84}, {"time": 1710, "pitch": 50, "duration": 34, "velocity": 82}, {"time": 1716, "pitch": 57, "duration": 27, "velocity": 85}, {"time": 1722, "pitch": 62, "duration": 20, "velocity": 85}, {"time": 1728, "pitch": 54, "duration": 13, "velocity": 69}, {"time": 1758, "pitch": 50, "duration": 18, "velocity": 76}, {"time": 1764, "pitch": 62, "duration": 12, "velocity": 77}, {"time": 1776, "pitch": 36, "duration": 13, "velocity": 78}, {"time": 1776, "pitch": 60, "duration": 13, "velocity": 72}, {"time": 1776, "pitch": 63, "duration": 13, "velocity": 78}, {"time": 1776, "pitch": 67, "duration": 13, "velocity": 75}, {"time": 1797, "pitch": 62, "duration": 14, "velocity": 66}, {"time": 1800, "pitch": 50, "duration": 13, "velocity": 78}, {"time": 1800, "pitch": 66, "duration": 12, "velocity": 73}, {"time": 1800, "pitch": 69, "duration": 12, "velocity": 77}, {"time": 1800, "pitch": 74, "duration": 10, "velocity": 80}, {"time": 1821, "pitch": 59, "duration": 7, "velocity": 67}, {"time": 1824, "pitch": 47, "duration": 21, "velocity": 79}, {"time": 1824, "pitch": 62, "duration": 13, "velocity": 72}, {"time": 1824, "pitch": 66, "duration": 16, "velocity": 78}, {"time": 1830, "pitch": 54, "duration": 10, "velocity": 72}, {"time": 1836, "pitch": 57, "duration": 4, "velocity": 84}, {"time": 1848, "pitch": 52, "duration": 13, "velocity": 83}, {"time": 1848, "pitch": 59, "duration": 7, "velocity": 69}, {"time": 1848, "pitch": 64, "duration": 7, "velocity": 82}, {"time": 1860, "pitch": 59, "duration": 2, "velocity": 59}, {"time": 1860, "pitch": 68, "duration": 2, "velocity": 74}, {"time": 1869, "pitch": 57, "duration": 4, "velocity": 63}, {"time": 1872, "pitch": 45, "duration": 41, "velocity": 85}, {"time": 1872, "pitch": 60, "duration": 6, "velocity": 72}, {"time": 1872, "pitch": 64, "duration": 5, "velocity": 73}, {"time": 1872, "pitch": 69, "duration": 5, "velocity": 78}, {"time": 1878, "pitch": 52, "duration": 35, "velocity": 70}, {"time": 1884, "pitch": 57, "duration": 12, "velocity": 78}, {"time": 1890, "pitch": 60, "duration": 7, "velocity": 74}, {"time": 1896, "pitch": 64, "duration": 12, "velocity": 32}, {"time": 1917, "pitch": 55, "duration": 10, "velocity": 73}, {"time": 1920, "pitch": 43, "duration": 31, "velocity": 84}, {"time": 1920, "pitch": 59, "duration": 13, "velocity": 78}, {"time": 1920, "pitch": 62, "duration": 13, "velocity": 59}, {"time": 1926, "pitch": 50, "duration": 24, "velocity": 72}, {"time": 1932, "pitch": 55, "duration": 13, "velocity": 87}, {"time": 1938, "pitch": 59, "duration": 3, "velocity": 86}, {"time": 1944, "pitch": 59, "duration": 2, "velocity": 83}, {"time": 1944, "pitch": 62, "duration": 2, "velocity": 74}, {"time": 1944, "pitch": 67, "duration": 2, "velocity": 80}, {"time": 1956, "pitch": 41, "duration": 5, "velocity": 87}, {"time": 1956, "pitch": 53, "duration": 4, "velocity": 82}, {"time": 1956, "pitch": 57, "duration": 4, "velocity": 83}, {"time": 1956, "pitch": 60, "duration": 4, "velocity": 85}, {"time": 1956, "pitch": 65, "duration": 4, "velocity": 86}, {"time": 1968, "pitch": 36, "duration": 1, "velocity": 86}, {"time": 1968, "pitch": 55, "duration": 6, "velocity": 71}, {"time": 1968, "pitch": 60, "duration": 6, "velocity": 85}, {"time": 1968, "pitch": 64, "duration": 6, "velocity": 86}, {"time": 1974, "pitch": 48, "duration": 10, "velocity": 85}, {"time": 1980, "pitch": 60, "duration": 5, "velocity": 90}, {"time": 1980, "pitch": 64, "duration": 5, "velocity": 87}, {"time": 1989, "pitch": 60, "duration": 7, "velocity": 72}, {"time": 1992, "pitch": 48, "duration": 15, "velocity": 89}, {"time": 1992, "pitch": 63, "duration": 13, "velocity": 74}, {"time": 1992, "pitch": 67, "duration": 13, "velocity": 82}, {"time": 1998, "pitch": 55, "duration": 9, "velocity": 68}, {"time": 2004, "pitch": 60, "duration": 2, "velocity": 71}, {"time": 2016, "pitch": 47, "duration": 15, "velocity": 86}, {"time": 2016, "pitch": 59, "duration": 6, "velocity": 72}, {"time": 2016, "pitch": 62, "duration": 8, "velocity": 81}, {"time": 2016, "pitch": 66, "duration": 6, "velocity": 79}, {"time": 2022, "pitch": 54, "duration": 8, "velocity": 77}, {"time": 2028, "pitch": 59, "duration": 9, "velocity": 92}, {"time": 2034, "pitch": 62, "duration": 7, "velocity": 86}, {"time": 2040, "pitch": 40, "duration": 1, "velocity": 86}, {"time": 2040, "pitch": 64, "duration": 16, "velocity": 83}, {"time": 2046, "pitch": 52, "duration": 12, "velocity": 86}, {"time": 2052, "pitch": 59, "duration": 5, "velocity": 96}, {"time": 2058, "pitch": 64, "duration": 4, "velocity": 101}, {"time": 2064, "pitch": 45, "duration": 41, "velocity": 86}, {"time": 2064, "pitch": 64, "duration": 9, "velocity": 85}, {"time": 2064, "pitch": 69, "duration": 9, "velocity": 77}, {"time": 2070, "pitch": 52, "duration": 34, "velocity": 87}, {"time": 2076, "pitch": 72, "duration": 3, "velocity": 89}, {"time": 2079, "pitch": 71, "duration": 4, "velocity": 86}, {"time": 2082, "pitch": 69, "duration": 4, "velocity": 87}, {"time": 2085, "pitch": 64, "duration": 2, "velocity": 85}, {"time": 2088, "pitch": 64, "duration": 1, "velocity": 72}, {"time": 2088, "pitch": 69, "duration": 3, "velocity": 76}, {"time": 2100, "pitch": 64, "duration": 4, "velocity": 81}, {"time": 2100, "pitch": 67, "duration": 5, "velocity": 80}, {"time": 2112, "pitch": 38, "duration": 1, "velocity": 88}, {"time": 2112, "pitch": 62, "duration": 10, "velocity": 81}, {"time": 2112, "pitch": 67, "duration": 9, "velocity": 82}, {"time": 2118, "pitch": 50, "duration": 42, "velocity": 85}, {"time": 2121, "pitch": 57, "duration": 38, "velocity": 81}, {"time": 2124, "pitch": 62, "duration": 5, "velocity": 84}, {"time": 2127, "pitch": 67, "duration": 4, "velocity": 77}, {"time": 2130, "pitch": 69, "duration": 4, "velocity": 79}, {"time": 2133, "pitch": 71, "duration": 4, "velocity": 78}, {"time": 2136, "pitch": 74, "duration": 8, "velocity": 87}, {"time": 2142, "pitch": 62, "duration": 3, "velocity": 67}, {"time": 2148, "pitch": 66, "duration": 9, "velocity": 41}, {"time": 2148, "pitch": 69, "duration": 10, "velocity": 60}, {"time": 2160, "pitch": 43, "duration": 41, "velocity": 59}, {"time": 2160, "pitch": 69, "duration": 16, "velocity": 95}, {"time": 2166, "pitch": 50, "duration": 36, "velocity": 36}, {"time": 2166, "pitch": 59, "duration": 2, "velocity": 41}, {"time": 2169, "pitch": 59, "duration": 3, "velocity": 18}, {"time": 2169, "pitch": 62, "duration": 7, "velocity": 83}, {"time": 2175, "pitch": 55, "duration": 4, "velocity": 38}, {"time": 2178, "pitch": 59, "duration": 19, "velocity": 61}, {"time": 2178, "pitch": 67, "duration": 23, "velocity": 66}, {"time": 2199, "pitch": 55, "duration": 2, "velocity": 57}, {"time": 2202, "pitch": 59, "duration": 6, "velocity": 81}, {"time": 2205, "pitch": 67, "duration": 3, "velocity": 104}, {"time": 2208, "pitch": 40, "duration": 38, "velocity": 77}, {"time": 2214, "pitch": 47, "duration": 36, "velocity": 46}, {"time": 2217, "pitch": 66, "duration": 5, "velocity": 105}, {"time": 2223, "pitch": 52, "duration": 6, "velocity": 43}, {"time": 2226, "pitch": 55, "duration": 14, "velocity": 44}, {"time": 2229, "pitch": 67, "duration": 11, "velocity": 100}, {"time": 2241, "pitch": 52, "duration": 3, "velocity": 45}, {"time": 2244, "pitch": 55, "duration": 6, "velocity": 92}, {"time": 2244, "pitch": 67, "duration": 8, "velocity": 104}, {"time": 2247, "pitch": 52, "duration": 3, "velocity": 68}, {"time": 2250, "pitch": 40, "duration": 1, "velocity": 71}, {"time": 2253, "pitch": 55, "duration": 11, "velocity": 71}, {"time": 2256, "pitch": 36, "duration": 42, "velocity": 79}, {"time": 2256, "pitch": 64, "duration": 9, "velocity": 72}, {"time": 2265, "pitch": 52, "duration": 9, "velocity": 40}, {"time": 2268, "pitch": 55, "duration": 6, "velocity": 95}, {"time": 2268, "pitch": 64, "duration": 7, "velocity": 95}, {"time": 2274, "pitch": 43, "duration": 23, "velocity": 35}, {"time": 2277, "pitch": 55, "duration": 16, "velocity": 68}, {"time": 2277, "pitch": 62, "duration": 17, "velocity": 76}, {"time": 2295, "pitch": 48, "duration": 4, "velocity": 69}, {"time": 2298, "pitch": 55, "duration": 3, "velocity": 95}, {"time": 2301, "pitch": 62, "duration": 4, "velocity": 104}, {"time": 2304, "pitch": 43, "duration": 38, "velocity": 85}, {"time": 2310, "pitch": 50, "duration": 30, "velocity": 44}, {"time": 2313, "pitch": 57, "duration": 8, "velocity": 100}, {"time": 2319, "pitch": 55, "duration": 3, "velocity": 41}, {"time": 2322, "pitch": 67, "duration": 14, "velocity": 102}, {"time": 2325, "pitch": 62, "duration": 11, "velocity": 76}, {"time": 2337, "pitch": 55, "duration": 6, "velocity": 56}, {"time": 2340, "pitch": 62, "duration": 7, "velocity": 106}, {"time": 2343, "pitch": 50, "duration": 4, "velocity": 72}, {"time": 2346, "pitch": 43, "duration": 1, "velocity": 74}, {"time": 2349, "pitch": 55, "duration": 10, "velocity": 59}, {"time": 2352, "pitch": 36, "duration": 40, "velocity": 67}, {"time": 2352, "pitch": 60, "duration": 6, "velocity": 68}, {"time": 2352, "pitch": 64, "duration": 7, "velocity": 85}, {"time": 2358, "pitch": 43, "duration": 35, "velocity": 47}, {"time": 2361, "pitch": 55, "duration": 9, "velocity": 84}, {"time": 2361, "pitch": 62, "duration": 10, "velocity": 94}, {"time": 2370, "pitch": 52, "duration": 11, "velocity": 39}, {"time": 2373, "pitch": 55, "duration": 16, "velocity": 72}, {"time": 2373, "pitch": 64, "duration": 17, "velocity": 64}, {"time": 2391, "pitch": 52, "duration": 4, "velocity": 64}, {"time": 2394, "pitch": 55, "duration": 6, "velocity": 100}, {"time": 2397, "pitch": 64, "duration": 4, "velocity": 102}, {"time": 2400, "pitch": 43, "duration": 18, "velocity": 69}, {"time": 2400, "pitch": 62, "duration": 7, "velocity": 99}, {"time": 2406, "pitch": 50, "duration": 15, "velocity": 45}, {"time": 2409, "pitch": 59, "duration": 6, "velocity": 87}, {"time": 2415, "pitch": 67, "duration": 7, "velocity": 106}, {"time": 2418, "pitch": 55, "duration": 3, "velocity": 74}, {"time": 2421, "pitch": 43, "duration": 1, "velocity": 68}, {"time": 2424, "pitch": 37, "duration": 16, "velocity": 64}, {"time": 2424, "pitch": 49, "duration": 17, "velocity": 58}, {"time": 2424, "pitch": 55, "duration": 15, "velocity": 62}, {"time": 2424, "pitch": 61, "duration": 17, "velocity": 57}, {"time": 2424, "pitch": 64, "duration": 23, "velocity": 67}, {"time": 2442, "pitch": 55, "duration": 6, "velocity": 75}, {"time": 2445, "pitch": 61, "duration": 3, "velocity": 83}, {"time": 2448, "pitch": 36, "duration": 21, "velocity": 91}, {"time": 2454, "pitch": 52, "duration": 7, "velocity": 61}, {"time": 2457, "pitch": 55, "duration": 6, "velocity": 88}, {"time": 2460, "pitch": 64, "duration": 22, "velocity": 102}, {"time": 2463, "pitch": 52, "duration": 7, "velocity": 67}, {"time": 2466, "pitch": 55, "duration": 15, "velocity": 81}, {"time": 2469, "pitch": 60, "duration": 13, "velocity": 81}, {"time": 2481, "pitch": 36, "duration": 11, "velocity": 95}, {"time": 2484, "pitch": 55, "duration": 8, "velocity": 108}, {"time": 2487, "pitch": 52, "duration": 5, "velocity": 97}, {"time": 2490, "pitch": 60, "duration": 3, "velocity": 97}, {"time": 2493, "pitch": 64, "duration": 1, "velocity": 94}, {"time": 2496, "pitch": 38, "duration": 33, "velocity": 98}, {"time": 2496, "pitch": 54, "duration": 7, "velocity": 92}, {"time": 2496, "pitch": 62, "duration": 7, "velocity": 88}, {"time": 2505, "pitch": 50, "duration": 4, "velocity": 87}, {"time": 2508, "pitch": 54, "duration": 1, "velocity": 110}, {"time": 2508, "pitch": 62, "duration": 1, "velocity": 108}, {"time": 2514, "pitch": 50, "duration": 7, "velocity": 68}, {"time": 2517, "pitch": 57, "duration": 6, "velocity": 115}, {"time": 2517, "pitch": 62, "duration": 5, "velocity": 100}, {"time": 2517, "pitch": 66, "duration": 6, "velocity": 105}, {"time": 2523, "pitch": 50, "duration": 10, "velocity": 94}, {"time": 2526, "pitch": 57, "duration": 3, "velocity": 115}, {"time": 2526, "pitch": 62, "duration": 3, "velocity": 106}, {"time": 2526, "pitch": 67, "duration": 3, "velocity": 113}, {"time": 2529, "pitch": 45, "duration": 4, "velocity": 110}, {"time": 2532, "pitch": 38, "duration": 8, "velocity": 109}, {"time": 2532, "pitch": 57, "duration": 4, "velocity": 113}, {"time": 2532, "pitch": 62, "duration": 4, "velocity": 92}, {"time": 2532, "pitch": 66, "duration": 4, "velocity": 103}, {"time": 2532, "pitch": 69, "duration": 4, "velocity": 108}, {"time": 2535, "pitch": 50, "duration": 6, "velocity": 108}, {"time": 2538, "pitch": 57, "duration": 3, "velocity": 113}, {"time": 2538, "pitch": 62, "duration": 4, "velocity": 83}, {"time": 2538, "pitch": 66, "duration": 4, "velocity": 107}, {"time": 2538, "pitch": 69, "duration": 4, "velocity": 100}, {"time": 2541, "pitch": 45, "duration": 1, "velocity": 110}, {"time": 2544, "pitch": 43, "duration": 18, "velocity": 85}, {"time": 2544, "pitch": 55, "duration": 7, "velocity": 86}, {"time": 2544, "pitch": 62, "duration": 6, "velocity": 82}, {"time": 2550, "pitch": 50, "duration": 9, "velocity": 86}, {"time": 2556, "pitch": 59, "duration": 2, "velocity": 89}, {"time": 2556, "pitch": 62, "duration": 2, "velocity": 87}, {"time": 2562, "pitch": 55, "duration": 7, "velocity": 94}, {"time": 2568, "pitch": 43, "duration": 18, "velocity": 86}, {"time": 2568, "pitch": 59, "duration": 6, "velocity": 86}, {"time": 2568, "pitch": 62, "duration": 6, "velocity": 86}, {"time": 2568, "pitch": 67, "duration": 5, "velocity": 86}, {"time": 2574, "pitch": 50, "duration": 11, "velocity": 70}, {"time": 2580, "pitch": 55, "duration": 2, "velocity": 86}, {"time": 2580, "pitch": 59, "duration": 2, "velocity": 96}, {"time": 2580, "pitch": 62, "duration": 2, "velocity": 87}, {"time": 2580, "pitch": 67, "duration": 3, "velocity": 85}, {"time": 2586, "pitch": 57, "duration": 2, "velocity": 76}, {"time": 2586, "pitch": 69, "duration": 2, "velocity": 81}, {"time": 2592, "pitch": 47, "duration": 22, "velocity": 86}, {"time": 2592, "pitch": 59, "duration": 6, "velocity": 81}, {"time": 2592, "pitch": 62, "duration": 6, "velocity": 81}, {"time": 2592, "pitch": 66, "duration": 5, "velocity": 78}, {"time": 2598, "pitch": 54, "duration": 12, "velocity": 74}, {"time": 2604, "pitch": 59, "duration": 3, "velocity": 92}, {"time": 2604, "pitch": 71, "duration": 5, "velocity": 85}, {"time": 2610, "pitch": 59, "duration": 3, "velocity": 89}, {"time": 2616, "pitch": 47, "duration": 16, "velocity": 88}, {"time": 2616, "pitch": 59, "duration": 7, "velocity": 86}, {"time": 2616, "pitch": 62, "duration": 7, "velocity": 85}, {"time": 2616, "pitch": 66, "duration": 7, "velocity": 78}, {"time": 2622, "pitch": 54, "duration": 7, "velocity": 72}, {"time": 2625, "pitch": 59, "duration": 1, "velocity": 86}, {"time": 2628, "pitch": 59, "duration": 3, "velocity": 91}, {"time": 2628, "pitch": 66, "duration": 6, "velocity": 88}, {"time": 2631, "pitch": 54, "duration": 2, "velocity": 79}, {"time": 2634, "pitch": 59, "duration": 5, "velocity": 90}, {"time": 2640, "pitch": 40, "duration": 23, "velocity": 86}, {"time": 2640, "pitch": 67, "duration": 7, "velocity": 86}, {"time": 2646, "pitch": 59, "duration": 3, "velocity": 86}, {"time": 2652, "pitch": 59, "duration": 2, "velocity": 89}, {"time": 2652, "pitch": 64, "duration": 3, "velocity": 96}, {"time": 2655, "pitch": 47, "duration": 7, "velocity": 79}, {"time": 2658, "pitch": 59, "duration": 4, "velocity": 88}, {"time": 2661, "pitch": 64, "duration": 2, "velocity": 80}, {"time": 2664, "pitch": 40, "duration": 13, "velocity": 89}, {"time": 2664, "pitch": 59, "duration": 8, "velocity": 84}, {"time": 2664, "pitch": 64, "duration": 7, "velocity": 86}, {"time": 2664, "pitch": 67, "duration": 7, "velocity": 82}, {"time": 2670, "pitch": 47, "duration": 7, "velocity": 73}, {"time": 2676, "pitch": 59, "duration": 2, "velocity": 87}, {"time": 2676, "pitch": 64, "duration": 4, "velocity": 90}, {"time": 2688, "pitch": 47, "duration": 20, "velocity": 87}, {"time": 2688, "pitch": 59, "duration": 7, "velocity": 86}, {"time": 2688, "pitch": 66, "duration": 10, "velocity": 85}, {"time": 2694, "pitch": 54, "duration": 9, "velocity": 78}, {"time": 2697, "pitch": 59, "duration": 1, "velocity": 70}, {"time": 2700, "pitch": 59, "duration": 3, "velocity": 92}, {"time": 2700, "pitch": 62, "duration": 6, "velocity": 99}, {"time": 2706, "pitch": 54, "duration": 2, "velocity": 87}, {"time": 2712, "pitch": 43, "duration": 18, "velocity": 87}, {"time": 2712, "pitch": 55, "duration": 5, "velocity": 85}, {"time": 2712, "pitch": 59, "duration": 6, "velocity": 86}, {"time": 2718, "pitch": 50, "duration": 7, "velocity": 86}, {"time": 2721, "pitch": 55, "duration": 2, "velocity": 85}, {"time": 2724, "pitch": 55, "duration": 1, "velocity": 74}, {"time": 2724, "pitch": 59, "duration": 5, "velocity": 99}, {"time": 2724, "pitch": 62, "duration": 6, "velocity": 89}, {"time": 2724, "pitch": 65, "duration": 6, "velocity": 86}, {"time": 2727, "pitch": 50, "duration": 4, "velocity": 86}, {"time": 2730, "pitch": 55, "duration": 4, "velocity": 92}, {"time": 2736, "pitch": 48, "duration": 16, "velocity": 90}, {"time": 2736, "pitch": 55, "duration": 3, "velocity": 85}, {"time": 2736, "pitch": 60, "duration": 7, "velocity": 86}, {"time": 2736, "pitch": 64, "duration": 7, "velocity": 86}, {"time": 2742, "pitch": 55, "duration": 3, "velocity": 82}, {"time": 2748, "pitch": 55, "duration": 3, "velocity": 86}, {"time": 2748, "pitch": 60, "duration": 6, "velocity": 91}, {"time": 2748, "pitch": 64, "duration": 6, "velocity": 90}, {"time": 2754, "pitch": 55, "duration": 5, "velocity": 85}, {"time": 2760, "pitch": 47, "duration": 10, "velocity": 87}, {"time": 2760, "pitch": 59, "duration": 5, "velocity": 85}, {"time": 2760, "pitch": 62, "duration": 6, "velocity": 85}, {"time": 2760, "pitch": 66, "duration": 6, "velocity": 85}, {"time": 2766, "pitch": 54, "duration": 4, "velocity": 74}, {"time": 2769, "pitch": 59, "duration": 2, "velocity": 86}, {"time": 2772, "pitch": 51, "duration": 4, "velocity": 90}, {"time": 2772, "pitch": 59, "duration": 4, "velocity": 89}, {"time": 2772, "pitch": 63, "duration": 4, "velocity": 92}, {"time": 2772, "pitch": 66, "duration": 5, "velocity": 87}, {"time": 2778, "pitch": 59, "duration": 4, "velocity": 101}, {"time": 2784, "pitch": 40, "duration": 23, "velocity": 87}, {"time": 2784, "pitch": 59, "duration": 5, "velocity": 88}, {"time": 2784, "pitch": 64, "duration": 5, "velocity": 87}, {"time": 2790, "pitch": 47, "duration": 17, "velocity": 66}, {"time": 2796, "pitch": 59, "duration": 2, "velocity": 87}, {"time": 2796, "pitch": 64, "duration": 6, "velocity": 96}, {"time": 2796, "pitch": 67, "duration": 9, "velocity": 87}, {"time": 2802, "pitch": 59, "duration": 2, "velocity": 88}, {"time": 2808, "pitch": 38, "duration": 15, "velocity": 87}, {"time": 2808, "pitch": 59, "duration": 4, "velocity": 86}, {"time": 2808, "pitch": 64, "duration": 7, "velocity": 90}, {"time": 2814, "pitch": 59, "duration": 6, "velocity": 90}, {"time": 2820, "pitch": 64, "duration": 2, "velocity": 91}, {"time": 2820, "pitch": 67, "duration": 2, "velocity": 89}, {"time": 2832, "pitch": 49, "duration": 20, "velocity": 86}, {"time": 2832, "pitch": 57, "duration": 7, "velocity": 81}, {"time": 2832, "pitch": 61, "duration": 7, "velocity": 83}, {"time": 2838, "pitch": 64, "duration": 4, "velocity": 83}, {"time": 2844, "pitch": 57, "duration": 3, "velocity": 74}, {"time": 2844, "pitch": 61, "duration": 7, "velocity": 74}, {"time": 2844, "pitch": 64, "duration": 8, "velocity": 81}, {"time": 2844, "pitch": 69, "duration": 7, "velocity": 79}, {"time": 2850, "pitch": 57, "duration": 3, "velocity": 83}, {"time": 2856, "pitch": 48, "duration": 14, "velocity": 89}, {"time": 2856, "pitch": 55, "duration": 3, "velocity": 87}, {"time": 2856, "pitch": 60, "duration": 7, "velocity": 85}, {"time": 2862, "pitch": 55, "duration": 3, "velocity": 86}, {"time": 2868, "pitch": 55, "duration": 7, "velocity": 91}, {"time": 2868, "pitch": 64, "duration": 6, "velocity": 89}, {"time": 2874, "pitch": 60, "duration": 5, "velocity": 89}, {"time": 2880, "pitch": 38, "duration": 1, "velocity": 89}, {"time": 2880, "pitch": 57, "duration": 4, "velocity": 82}, {"time": 2880, "pitch": 62, "duration": 6, "velocity": 83}, {"time": 2886, "pitch": 50, "duration": 16, "velocity": 87}, {"time": 2892, "pitch": 57, "duration": 10, "velocity": 94}, {"time": 2895, "pitch": 62, "duration": 7, "velocity": 87}, {"time": 2898, "pitch": 66, "duration": 4, "velocity": 101}, {"time": 2901, "pitch": 69, "duration": 2, "velocity": 86}, {"time": 2904, "pitch": 50, "duration": 16, "velocity": 94}, {"time": 2904, "pitch": 62, "duration": 7, "velocity": 87}, {"time": 2904, "pitch": 66, "duration": 8, "velocity": 92}, {"time": 2904, "pitch": 69, "duration": 9, "velocity": 88}, {"time": 2904, "pitch": 74, "duration": 8, "velocity": 92}, {"time": 2910, "pitch": 57, "duration": 8, "velocity": 91}, {"time": 2913, "pitch": 62, "duration": 1, "velocity": 92}, {"time": 2916, "pitch": 62, "duration": 3, "velocity": 101}, {"time": 2919, "pitch": 64, "duration": 1, "velocity": 99}, {"time": 2922, "pitch": 67, "duration": 3, "velocity": 88}, {"time": 2928, "pitch": 43, "duration": 18, "velocity": 85}, {"time": 2928, "pitch": 55, "duration": 7, "velocity": 86}, {"time": 2928, "pitch": 62, "duration": 6, "velocity": 82}, {"time": 2934, "pitch": 50, "duration": 9, "velocity": 86}, {"time": 2940, "pitch": 59, "duration": 2, "velocity": 89}, {"time": 2940, "pitch": 62, "duration": 2, "velocity": 87}, {"time": 2946, "pitch": 55, "duration": 7, "velocity": 94}, {"time": 2952, "pitch": 43, "duration": 18, "velocity": 86}, {"time": 2952, "pitch": 59, "duration": 6, "velocity": 86}, {"time": 2952, "pitch": 62, "duration": 6, "velocity": 86}, {"time": 2952, "pitch": 67, "duration": 5, "velocity": 86}, {"time": 2958, "pitch": 50, "duration": 11, "velocity": 70}, {"time": 2964, "pitch": 55, "duration": 2, "velocity": 86}, {"time": 2964, "pitch": 59, "duration": 2, "velocity": 96}, {"time": 2964, "pitch": 62, "duration": 2, "velocity": 87}, {"time": 2964, "pitch": 67, "duration": 3, "velocity": 85}, {"time": 2970, "pitch": 57, "duration": 2, "velocity": 76}, {"time": 2970, "pitch": 69, "duration": 2, "velocity": 81}, {"time": 2976, "pitch": 47, "duration": 22, "velocity": 86}, {"time": 2976, "pitch": 59, "duration": 6, "velocity": 81}, {"time": 2976, "pitch": 62, "duration": 6, "velocity": 81}, {"time": 2976, "pitch": 66, "duration": 5, "velocity": 78}, {"time": 2982, "pitch": 54, "duration": 12, "velocity": 74}, {"time": 2988, "pitch": 59, "duration": 3, "velocity": 92}, {"time": 2988, "pitch": 71, "duration": 5, "velocity": 85}, {"time": 2994, "pitch": 59, "duration": 3, "velocity": 89}, {"time": 3000, "pitch": 47, "duration": 16, "velocity": 88}, {"time": 3000, "pitch": 59, "duration": 7, "velocity": 86}, {"time": 3000, "pitch": 62, "duration": 7, "velocity": 85}, {"time": 3000, "pitch": 66, "duration": 7, "velocity": 78}, {"time": 3006, "pitch": 54, "duration": 7, "velocity": 72}, {"time": 3009, "pitch": 59, "duration": 1, "velocity": 86}, {"time": 3012, "pitch": 59, "duration": 3, "velocity": 91}, {"time": 3012, "pitch": 66, "duration": 6, "velocity": 88}, {"time": 3015, "pitch": 54, "duration": 2, "velocity": 79}, {"time": 3018, "pitch": 59, "duration": 5, "velocity": 90}, {"time": 3024, "pitch": 40, "duration": 23, "velocity": 86}, {"time": 3024, "pitch": 67, "duration": 7, "velocity": 86}, {"time": 3030, "pitch": 59, "duration": 3, "velocity": 86}, {"time": 3036, "pitch": 59, "duration": 2, "velocity": 89}, {"time": 3036, "pitch": 64, "duration": 3, "velocity": 96}, {"time": 3039, "pitch": 47, "duration": 7, "velocity": 79}, {"time": 3042, "pitch": 59, "duration": 4, "velocity": 88}, {"time": 3045, "pitch": 64, "duration": 2, "velocity": 80}, {"time": 3048, "pitch": 40, "duration": 13, "velocity": 89}, {"time": 3048, "pitch": 59, "duration": 8, "velocity": 84}, {"time": 3048, "pitch": 64, "duration": 7, "velocity": 86}, {"time": 3048, "pitch": 67, "duration": 7, "velocity": 82}, {"time": 3054, "pitch": 47, "duration": 7, "velocity": 73}, {"time": 3060, "pitch": 59, "duration": 2, "velocity": 87}, {"time": 3060, "pitch": 64, "duration": 4, "velocity": 90}, {"time": 3072, "pitch": 47, "duration": 20, "velocity": 87}, {"time": 3072, "pitch": 59, "duration": 7, "velocity": 86}, {"time": 3072, "pitch": 66, "duration": 10, "velocity": 85}, {"time": 3078, "pitch": 54, "duration": 9, "velocity": 78}, {"time": 3081, "pitch": 59, "duration": 1, "velocity": 70}, {"time": 3084, "pitch": 59, "duration": 3, "velocity": 92}, {"time": 3084, "pitch": 62, "duration": 6, "velocity": 99}, {"time": 3090, "pitch": 54, "duration": 2, "velocity": 87}, {"time": 3096, "pitch": 43, "duration": 18, "velocity": 87}, {"time": 3096, "pitch": 55, "duration": 5, "velocity": 85}, {"time": 3096, "pitch": 59, "duration": 6, "velocity": 86}, {"time": 3102, "pitch": 50, "duration": 7, "velocity": 86}, {"time": 3105, "pitch": 55, "duration": 2, "velocity": 85}, {"time": 3108, "pitch": 55, "duration": 1, "velocity": 74}, {"time": 3108, "pitch": 59, "duration": 5, "velocity": 99}, {"time": 3108, "pitch": 62, "duration": 6, "velocity": 89}, {"time": 3108, "pitch": 65, "duration": 6, "velocity": 86}, {"time": 3111, "pitch": 50, "duration": 4, "velocity": 86}, {"time": 3114, "pitch": 55, "duration": 4, "velocity": 92}, {"time": 3120, "pitch": 48, "duration": 16, "velocity": 90}, {"time": 3120, "pitch": 55, "duration": 3, "velocity": 85}, {"time": 3120, "pitch": 60, "duration": 7, "velocity": 86}, {"time": 3120, "pitch": 64, "duration": 7, "velocity": 86}, {"time": 3126, "pitch": 55, "duration": 3, "velocity": 82}, {"time": 3132, "pitch": 55, "duration": 3, "velocity": 86}, {"time": 3132, "pitch": 60, "duration": 6, "velocity": 91}, {"time": 3132, "pitch": 64, "duration": 6, "velocity": 90}, {"time": 3138, "pitch": 55, "duration": 5, "velocity": 85}, {"time": 3144, "pitch": 47, "duration": 10, "velocity": 87}, {"time": 3144, "pitch": 59, "duration": 5, "velocity": 85}, {"time": 3144, "pitch": 62, "duration": 6, "velocity": 85}, {"time": 3144, "pitch": 66, "duration": 6, "velocity": 85}, {"time": 3150, "pitch": 54, "duration": 4, "velocity": 74}, {"time": 3153, "pitch": 59, "duration": 2, "velocity": 86}, {"time": 3156, "pitch": 51, "duration": 4, "velocity": 90}, {"time": 3156, "pitch": 59, "duration": 4, "velocity": 89}, {"time": 3156, "pitch": 63, "duration": 4, "velocity": 92}, {"time": 3156, "pitch": 66, "duration": 5, "velocity": 87}, {"time": 3162, "pitch": 59, "duration": 4, "velocity": 101}, {"time": 3168, "pitch": 40, "duration": 23, "velocity": 87}, {"time": 3168, "pitch": 59, "duration": 5, "velocity": 88}, {"time": 3168, "pitch": 64, "duration": 5, "velocity": 87}, {"time": 3174, "pitch": 47, "duration": 17, "velocity": 66}, {"time": 3180, "pitch": 59, "duration": 2, "velocity": 87}, {"time": 3180, "pitch": 64, "duration": 6, "velocity": 96}, {"time": 3180, "pitch": 67, "duration": 9, "velocity": 87}, {"time": 3186, "pitch": 59, "duration": 2, "velocity": 88}, {"time": 3192, "pitch": 38, "duration": 15, "velocity": 87}, {"time": 3192, "pitch": 59, "duration": 4, "velocity": 86}, {"time": 3192, "pitch": 64, "duration": 7, "velocity": 90}, {"time": 3198, "pitch": 59, "duration": 6, "velocity": 90}, {"time": 3204, "pitch": 64, "duration": 2, "velocity": 91}, {"time": 3204, "pitch": 67, "duration": 2, "velocity": 89}, {"time": 3216, "pitch": 49, "duration": 20, "velocity": 86}, {"time": 3216, "pitch": 57, "duration": 7, "velocity": 81}, {"time": 3216, "pitch": 61, "duration": 7, "velocity": 83}, {"time": 3222, "pitch": 64, "duration": 4, "velocity": 83}, {"time": 3228, "pitch": 57, "duration": 3, "velocity": 74}, {"time": 3228, "pitch": 61, "duration": 7, "velocity": 74}, {"time": 3228, "pitch": 64, "duration": 8, "velocity": 81}, {"time": 3228, "pitch": 69, "duration": 7, "velocity": 79}, {"time": 3234, "pitch": 57, "duration": 3, "velocity": 83}, {"time": 3240, "pitch": 48, "duration": 14, "velocity": 89}, {"time": 3240, "pitch": 55, "duration": 3, "velocity": 87}, {"time": 3240, "pitch": 60, "duration": 7, "velocity": 85}, {"time": 3246, "pitch": 55, "duration": 3, "velocity": 86}, {"time": 3252, "pitch": 55, "duration": 7, "velocity": 91}, {"time": 3252, "pitch": 64, "duration": 6, "velocity": 89}, {"time": 3258, "pitch": 60, "duration": 5, "velocity": 89}, {"time": 3264, "pitch": 38, "duration": 2, "velocity": 88}, {"time": 3264, "pitch": 62, "duration": 14, "velocity": 82}, {"time": 3264, "pitch": 74, "duration": 13, "velocity": 84}, {"time": 3270, "pitch": 50, "duration": 34, "velocity": 82}, {"time": 3276, "pitch": 57, "duration": 27, "velocity": 85}, {"time": 3282, "pitch": 62, "duration": 20, "velocity": 85}, {"time": 3288, "pitch": 54, "duration": 13, "velocity": 69}, {"time": 3309, "pitch": 55, "duration": 10, "velocity": 72}, {"time": 3312, "pitch": 43, "duration": 38, "velocity": 84}, {"time": 3312, "pitch": 59, "duration": 9, "velocity": 70}, {"time": 3312, "pitch": 62, "duration": 9, "velocity": 77}, {"time": 3318, "pitch": 50, "duration": 30, "velocity": 62}, {"time": 3324, "pitch": 67, "duration": 5, "velocity": 80}, {"time": 3330, "pitch": 55, "duration": 10, "velocity": 73}, {"time": 3336, "pitch": 59, "duration": 7, "velocity": 65}, {"time": 3336, "pitch": 62, "duration": 7, "velocity": 63}, {"time": 3348, "pitch": 59, "duration": 4, "velocity": 79}, {"time": 3348, "pitch": 62, "duration": 5, "velocity": 78}, {"time": 3354, "pitch": 57, "duration": 2, "velocity": 78}, {"time": 3360, "pitch": 47, "duration": 38, "velocity": 82}, {"time": 3360, "pitch": 59, "duration": 7, "velocity": 72}, {"time": 3360, "pitch": 62, "duration": 13, "velocity": 79}, {"time": 3360, "pitch": 66, "duration": 5, "velocity": 73}, {"time": 3366, "pitch": 54, "duration": 10, "velocity": 68}, {"time": 3372, "pitch": 66, "duration": 9, "velocity": 76}, {"time": 3378, "pitch": 54, "duration": 18, "velocity": 64}, {"time": 3381, "pitch": 59, "duration": 2, "velocity": 70}, {"time": 3384, "pitch": 62, "duration": 1, "velocity": 75}, {"time": 3384, "pitch": 66, "duration": 2, "velocity": 74}, {"time": 3384, "pitch": 71, "duration": 2, "velocity": 85}, {"time": 3396, "pitch": 59, "duration": 2, "velocity": 74}, {"time": 3396, "pitch": 62, "duration": 2, "velocity": 73}, {"time": 3405, "pitch": 60, "duration": 3, "velocity": 73}, {"time": 3408, "pitch": 36, "duration": 11, "velocity": 80}, {"time": 3408, "pitch": 64, "duration": 7, "velocity": 80}, {"time": 3408, "pitch": 67, "duration": 6, "velocity": 73}, {"time": 3408, "pitch": 72, "duration": 6, "velocity": 76}, {"time": 3414, "pitch": 43, "duration": 5, "velocity": 62}, {"time": 3420, "pitch": 60, "duration": 3, "velocity": 74}, {"time": 3420, "pitch": 64, "duration": 2, "velocity": 79}, {"time": 3432, "pitch": 45, "duration": 16, "velocity": 82}, {"time": 3432, "pitch": 57, "duration": 9, "velocity": 71}, {"time": 3432, "pitch": 60, "duration": 9, "velocity": 67}, {"time": 3438, "pitch": 52, "duration": 10, "velocity": 63}, {"time": 3444, "pitch": 57, "duration": 8, "velocity": 79}, {"time": 3450, "pitch": 60, "duration": 6, "velocity": 81}, {"time": 3456, "pitch": 38, "duration": 2, "velocity": 82}, {"time": 3456, "pitch": 57, "duration": 3, "velocity": 70}, {"time": 3456, "pitch": 62, "duration": 9, "velocity": 74}, {"time": 3462, "pitch": 50, "duration": 35, "velocity": 79}, {"time": 3468, "pitch": 57, "duration": 28, "velocity": 69}, {"time": 3471, "pitch": 62, "duration": 6, "velocity": 73}, {"time": 3474, "pitch": 67, "duration": 4, "velocity": 72}, {"time": 3477, "pitch": 69, "duration": 5, "velocity": 78}, {"time": 3480, "pitch": 74, "duration": 13, "velocity": 82}, {"time": 3504, "pitch": 43, "duration": 62, "velocity": 85}, {"time": 3507, "pitch": 50, "duration": 57, "velocity": 69}, {"time": 3510, "pitch": 55, "duration": 3, "velocity": 75}, {"time": 3513, "pitch": 57, "duration": 2, "velocity": 78}, {"time": 3516, "pitch": 59, "duration": 4, "velocity": 80}, {"time": 3519, "pitch": 62, "duration": 3, "velocity": 87}, {"time": 3522, "pitch": 67, "duration": 2, "velocity": 81}, {"time": 3525, "pitch": 69, "duration": 2, "velocity": 84}, {"time": 3528, "pitch": 71, "duration": 6, "velocity": 76}, {"time": 3531, "pitch": 74, "duration": 4, "velocity": 80}, {"time": 3537, "pitch": 78, "duration": 2, "velocity": 71}, {"time": 3540, "pitch": 79, "duration": 2, "velocity": 79}, {"time": 3546, "pitch": 79, "duration": 2, "velocity": 66}, {"time": 3546, "pitch": 83, "duration": 3, "velocity": 75}, {"time": 3552, "pitch": 79, "duration": 2, "velocity": 64}, {"time": 3552, "pitch": 86, "duration": 2, "velocity": 74}], "annotations": [{"time": 26, "annotation": {"number": 64, "value": 127}, "group": "control_change"}, {"time": 71, "annotation": {"number": 64, "value": 0}, "group": "control_change"}, {"time": 73, "annotation": {"number": 64, "value": 127}, "group": "control_change"}, {"time": 120, "annotation": {"number": 64, "value": 0}, "group": "control_change"}, {"time": 121, "annotation": {"number": 64, "value": 127}, "group": "control_change"}, {"time": 145, "annotation": {"number": 64, "value": 0}, "group": "control_change"}, {"time": 149, "annotation": {"number": 64, "value": 127}, "group": "control_change"}, {"time": 167, "annotation": {"number": 64, "value": 0}, "group": "control_change"}, {"time": 169, "annotation": {"number": 64, "value": 127}, "group": "control_change"}, {"time": 215, "annotation": {"number": 64, "value": 0}, "group": "control_change"}, {"time": 231, "annotation": {"number": 64, "value": 71}, "group": "control_change"}, {"time": 233, "annotation": {"number": 64, "value": 127}, "group": "control_change"}, {"time": 263, "annotation": {"number": 64, "value": 71}, "group": "control_change"}, {"time": 264, "annotation": {"number": 64, "value": 0}, "group": "control_change"}, {"time": 270, "annotation": {"number": 64, "value": 71}, "group": "control_change"}, {"time": 272, "annotation": {"number": 64, "value": 127}, "group": "control_change"}, {"time": 311, "annotation": {"number": 64, "value": 71}, "group": "control_change"}, {"time": 312, "annotation": {"number": 64, "value": 0}, "group": "control_change"}, {"time": 318, "annotation": {"number": 64, "value": 71}, "group": "control_change"}, {"time": 320, "annotation": {"number": 64, "value": 127}, "group": "control_change"}, {"time": 360, "annotation": {"number": 64, "value": 71}, "group": "control_change"}, {"time": 361, "annotation": {"number": 64, "value": 0}, "group": "control_change"}, {"time": 368, "annotation": {"number": 64, "value": 71}, "group": "control_change"}, {"time": 369, "annotation": {"number": 64, "value": 127}, "group": "control_change"}, {"time": 408, "annotation": {"number": 64, "value": 71}, "group": "control_change"}, {"time": 409, "annotation": {"number": 64, "value": 0}, "group": "control_change"}, {"time": 414, "annotation": {"number": 64, "value": 71}, "group": "control_change"}, {"time": 415, "annotation": {"number": 64, "value": 127}, "group": "control_change"}, {"time": 457, "annotation": {"number": 64, "value": 71}, "group": "control_change"}, {"time": 458, "annotation": {"number": 64, "value": 0}, "group": "control_change"}, {"time": 463, "annotation": {"number": 64, "value": 71}, "group": "control_change"}, {"time": 464, "annotation": {"number": 64, "value": 127}, "group": "control_change"}, {"time": 480, "annotation": {"number": 64, "value": 0}, "group": "control_change"}, {"time": 481, "annotation": {"number": 64, "value": 125}, "group": "control_change"}, {"time": 493, "annotation": {"number": 64, "value": 71}, "group": "control_change"}, {"time": 504, "annotation": {"number": 64, "value": 0}, "group": "control_change"}, {"time": 508, "annotation": {"number": 64, "value": 71}, "group": "control_change"}, {"time": 510, "annotation": {"number": 64, "value": 127}, "group": "control_change"}, {"time": 528, "annotation": {"number": 64, "value": 71}, "group": "control_change"}, {"time": 529, "annotation": {"number": 64, "value": 0}, "group": "control_change"}, {"time": 538, "annotation": {"number": 64, "value": 71}, "group": "control_change"}, {"time": 541, "annotation": {"number": 64, "value": 127}, "group": "control_change"}, {"time": 552, "annotation": {"number": 64, "value": 71}, "group": "control_change"}, {"time": 553, "annotation": {"number": 64, "value": 0}, "group": "control_change"}, {"time": 561, "annotation": {"number": 64, "value": 71}, "group": "control_change"}, {"time": 563, "annotation": {"number": 64, "value": 127}, "group": "control_change"}, {"time": 576, "annotation": {"number": 64, "value": 71}, "group": "control_change"}, {"time": 576, "annotation": {"number": 64, "value": 0}, "group": "control_change"}, {"time": 603, "annotation": {"number": 64, "value": 71}, "group": "control_change"}, {"time": 604, "annotation": {"number": 64, "value": 127}, "group": "control_change"}, {"time": 649, "annotation": {"number": 64, "value": 71}, "group": "control_change"}, {"time": 650, "annotation": {"number": 64, "value": 0}, "group": "control_change"}, {"time": 657, "annotation": {"number": 64, "value": 71}, "group": "control_change"}, {"time": 658, "annotation": {"number": 64, "value": 127}, "group": "control_change"}, {"time": 697, "annotation": {"number": 64, "value": 71}, "group": "control_change"}, {"time": 698, "annotation": {"number": 64, "value": 0}, "group": "control_change"}, {"time": 703, "annotation": {"number": 64, "value": 71}, "group": "control_change"}, {"time": 705, "annotation": {"number": 64, "value": 127}, "group": "control_change"}, {"time": 744, "annotation": {"number": 64, "value": 71}, "group": "control_change"}, {"time": 745, "annotation": {"number": 64, "value": 0}, "group": "control_change"}, {"time": 754, "annotation": {"number": 64, "value": 71}, "group": "control_change"}, {"time": 755, "annotation": {"number": 64, "value": 127}, "group": "control_change"}, {"time": 792, "annotation": {"number": 64, "value": 71}, "group": "control_change"}, {"time": 793, "annotation": {"number": 64, "value": 0}, "group": "control_change"}, {"time": 803, "annotation": {"number": 64, "value": 71}, "group": "control_change"}, {"time": 804, "annotation": {"number": 64, "value": 127}, "group": "control_change"}, {"time": 841, "annotation": {"number": 64, "value": 71}, "group": "control_change"}, {"time": 842, "annotation": {"number": 64, "value": 0}, "group": "control_change"}, {"time": 845, "annotation": {"number": 64, "value": 71}, "group": "control_change"}, {"time": 846, "annotation": {"number": 64, "value": 127}, "group": "control_change"}, {"time": 865, "annotation": {"number": 64, "value": 71}, "group": "control_change"}, {"time": 865, "annotation": {"number": 64, "value": 0}, "group": "control_change"}, {"time": 869, "annotation": {"number": 64, "value": 71}, "group": "control_change"}, {"time": 869, "annotation": {"number": 64, "value": 127}, "group": "control_change"}, {"time": 888, "annotation": {"number": 64, "value": 71}, "group": "control_change"}, {"time": 889, "annotation": {"number": 64, "value": 0}, "group": "control_change"}, {"time": 893, "annotation": {"number": 64, "value": 71}, "group": "control_change"}, {"time": 894, "annotation": {"number": 64, "value": 127}, "group": "control_change"}, {"time": 937, "annotation": {"number": 64, "value": 71}, "group": "control_change"}, {"time": 938, "annotation": {"number": 64, "value": 0}, "group": "control_change"}, {"time": 940, "annotation": {"number": 64, "value": 71}, "group": "control_change"}, {"time": 941, "annotation": {"number": 64, "value": 127}, "group": "control_change"}, {"time": 963, "annotation": {"number": 64, "value": 71}, "group": "control_change"}, {"time": 967, "annotation": {"number": 64, "value": 127}, "group": "control_change"}, {"time": 976, "annotation": {"number": 64, "value": 71}, "group": "control_change"}, {"time": 978, "annotation": {"number": 64, "value": 127}, "group": "control_change"}, {"time": 984, "annotation": {"number": 64, "value": 0}, "group": "control_change"}, {"time": 986, "annotation": {"number": 64, "value": 127}, "group": "control_change"}, {"time": 1007, "annotation": {"number": 64, "value": 0}, "group": "control_change"}, {"time": 1009, "annotation": {"number": 64, "value": 127}, "group": "control_change"}, {"time": 1031, "annotation": {"number": 64, "value": 0}, "group": "control_change"}, {"time": 1033, "annotation": {"number": 64, "value": 127}, "group": "control_change"}, {"time": 1055, "annotation": {"number": 64, "value": 0}, "group": "control_change"}, {"time": 1057, "annotation": {"number": 64, "value": 127}, "group": "control_change"}, {"time": 1079, "annotation": {"number": 64, "value": 0}, "group": "control_change"}, {"time": 1081, "annotation": {"number": 64, "value": 127}, "group": "control_change"}, {"time": 1105, "annotation": {"number": 64, "value": 0}, "group": "control_change"}, {"time": 1107, "annotation": {"number": 64, "value": 127}, "group": "control_change"}, {"time": 1127, "annotation": {"number": 64, "value": 0}, "group": "control_change"}, {"time": 1129, "annotation": {"number": 64, "value": 127}, "group": "control_change"}, {"time": 1152, "annotation": {"number": 64, "value": 0}, "group": "control_change"}, {"time": 1154, "annotation": {"number": 64, "value": 127}, "group": "control_change"}, {"time": 1175, "annotation": {"number": 64, "value": 0}, "group": "control_change"}, {"time": 1178, "annotation": {"number": 64, "value": 127}, "group": "control_change"}, {"time": 1195, "annotation": {"number": 64, "value": 127}, "group": "control_change"}, {"time": 1199, "annotation": {"number": 64, "value": 0}, "group": "control_change"}, {"time": 1200, "annotation": {"number": 64, "value": 0}, "group": "control_change"}, {"time": 1201, "annotation": {"number": 64, "value": 127}, "group": "control_change"}, {"time": 1211, "annotation": {"number": 64, "value": 0}, "group": "control_change"}, {"time": 1213, "annotation": {"number": 64, "value": 127}, "group": "control_change"}, {"time": 1223, "annotation": {"number": 64, "value": 0}, "group": "control_change"}, {"time": 1225, "annotation": {"number": 64, "value": 127}, "group": "control_change"}, {"time": 1249, "annotation": {"number": 64, "value": 0}, "group": "control_change"}, {"time": 1251, "annotation": {"number": 64, "value": 127}, "group": "control_change"}, {"time": 1272, "annotation": {"number": 64, "value": 0}, "group": "control_change"}, {"time": 1272, "annotation": {"number": 64, "value": 127}, "group": "control_change"}, {"time": 1273, "annotation": {"number": 64, "value": 127}, "group": "control_change"}, {"time": 1297, "annotation": {"number": 64, "value": 0}, "group": "control_change"}, {"time": 1298, "annotation": {"number": 64, "value": 127}, "group": "control_change"}, {"time": 1318, "annotation": {"number": 64, "value": 0}, "group": "control_change"}, {"time": 1319, "annotation": {"number": 64, "value": 127}, "group": "control_change"}, {"time": 1344, "annotation": {"number": 64, "value": 0}, "group": "control_change"}, {"time": 1344, "annotation": {"number": 64, "value": 127}, "group": "control_change"}, {"time": 1367, "annotation": {"number": 64, "value": 0}, "group": "control_change"}, {"time": 1370, "annotation": {"number": 64, "value": 127}, "group": "control_change"}, {"time": 1391, "annotation": {"number": 64, "value": 0}, "group": "control_change"}, {"time": 1393, "annotation": {"number": 64, "value": 127}, "group": "control_change"}, {"time": 1415, "annotation": {"number": 64, "value": 0}, "group": "control_change"}, {"time": 1417, "annotation": {"number": 64, "value": 127}, "group": "control_change"}, {"time": 1439, "annotation": {"number": 64, "value": 0}, "group": "control_change"}, {"time": 1441, "annotation": {"number": 64, "value": 127}, "group": "control_change"}, {"time": 1463, "annotation": {"number": 64, "value": 0}, "group": "control_change"}, {"time": 1465, "annotation": {"number": 64, "value": 127}, "group": "control_change"}, {"time": 1489, "annotation": {"number": 64, "value": 0}, "group": "control_change"}, {"time": 1491, "annotation": {"number": 64, "value": 127}, "group": "control_change"}, {"time": 1511, "annotation": {"number": 64, "value": 0}, "group": "control_change"}, {"time": 1513, "annotation": {"number": 64, "value": 127}, "group": "control_change"}, {"time": 1536, "annotation": {"number": 64, "value": 0}, "group": "control_change"}, {"time": 1538, "annotation": {"number": 64, "value": 127}, "group": "control_change"}, {"time": 1559, "annotation": {"number": 64, "value": 0}, "group": "control_change"}, {"time": 1562, "annotation": {"number": 64, "value": 127}, "group": "control_change"}, {"time": 1579, "annotation": {"number": 64, "value": 127}, "group": "control_change"}, {"time": 1583, "annotation": {"number": 64, "value": 0}, "group": "control_change"}, {"time": 1584, "annotation": {"number": 64, "value": 0}, "group": "control_change"}, {"time": 1585, "annotation": {"number": 64, "value": 127}, "group": "control_change"}, {"time": 1595, "annotation": {"number": 64, "value": 0}, "group": "control_change"}, {"time": 1597, "annotation": {"number": 64, "value": 127}, "group": "control_change"}, {"time": 1607, "annotation": {"number": 64, "value": 0}, "group": "control_change"}, {"time": 1609, "annotation": {"number": 64, "value": 127}, "group": "control_change"}, {"time": 1633, "annotation": {"number": 64, "value": 0}, "group": "control_change"}, {"time": 1635, "annotation": {"number": 64, "value": 127}, "group": "control_change"}, {"time": 1656, "annotation": {"number": 64, "value": 0}, "group": "control_change"}, {"time": 1656, "annotation": {"number": 64, "value": 127}, "group": "control_change"}, {"time": 1657, "annotation": {"number": 64, "value": 127}, "group": "control_change"}, {"time": 1681, "annotation": {"number": 64, "value": 0}, "group": "control_change"}, {"time": 1682, "annotation": {"number": 64, "value": 127}, "group": "control_change"}, {"time": 1699, "annotation": {"number": 64, "value": 127}, "group": "control_change"}, {"time": 1699, "annotation": {"number": 64, "value": 0}, "group": "control_change"}, {"time": 1702, "annotation": {"number": 64, "value": 0}, "group": "control_change"}, {"time": 1703, "annotation": {"number": 64, "value": 127}, "group": "control_change"}, {"time": 1704, "annotation": {"number": 64, "value": 127}, "group": "control_change"}, {"time": 1728, "annotation": {"number": 64, "value": 127}, "group": "control_change"}, {"time": 1752, "annotation": {"number": 64, "value": 0}, "group": "control_change"}, {"time": 1777, "annotation": {"number": 64, "value": 127}, "group": "control_change"}, {"time": 1800, "annotation": {"number": 64, "value": 0}, "group": "control_change"}, {"time": 1802, "annotation": {"number": 64, "value": 127}, "group": "control_change"}, {"time": 1824, "annotation": {"number": 64, "value": 0}, "group": "control_change"}, {"time": 1826, "annotation": {"number": 64, "value": 127}, "group": "control_change"}, {"time": 1847, "annotation": {"number": 64, "value": 0}, "group": "control_change"}, {"time": 1849, "annotation": {"number": 64, "value": 127}, "group": "control_change"}, {"time": 1871, "annotation": {"number": 64, "value": 0}, "group": "control_change"}, {"time": 1874, "annotation": {"number": 64, "value": 127}, "group": "control_change"}, {"time": 1921, "annotation": {"number": 64, "value": 127}, "group": "control_change"}, {"time": 1955, "annotation": {"number": 64, "value": 0}, "group": "control_change"}, {"time": 1956, "annotation": {"number": 64, "value": 127}, "group": "control_change"}, {"time": 1966, "annotation": {"number": 64, "value": 0}, "group": "control_change"}, {"time": 1968, "annotation": {"number": 64, "value": 127}, "group": "control_change"}, {"time": 1990, "annotation": {"number": 64, "value": 0}, "group": "control_change"}, {"time": 1992, "annotation": {"number": 64, "value": 127}, "group": "control_change"}, {"time": 2016, "annotation": {"number": 64, "value": 0}, "group": "control_change"}, {"time": 2018, "annotation": {"number": 64, "value": 127}, "group": "control_change"}, {"time": 2038, "annotation": {"number": 64, "value": 0}, "group": "control_change"}, {"time": 2040, "annotation": {"number": 64, "value": 127}, "group": "control_change"}, {"time": 2063, "annotation": {"number": 64, "value": 0}, "group": "control_change"}, {"time": 2065, "annotation": {"number": 64, "value": 127}, "group": "control_change"}, {"time": 2110, "annotation": {"number": 64, "value": 0}, "group": "control_change"}, {"time": 2112, "annotation": {"number": 64, "value": 127}, "group": "control_change"}, {"time": 2159, "annotation": {"number": 64, "value": 0}, "group": "control_change"}, {"time": 2162, "annotation": {"number": 64, "value": 71}, "group": "control_change"}, {"time": 2162, "annotation": {"number": 64, "value": 127}, "group": "control_change"}, {"time": 2208, "annotation": {"number": 64, "value": 71}, "group": "control_change"}, {"time": 2209, "annotation": {"number": 64, "value": 0}, "group": "control_change"}, {"time": 2213, "annotation": {"number": 64, "value": 71}, "group": "control_change"}, {"time": 2214, "annotation": {"number": 64, "value": 127}, "group": "control_change"}, {"time": 2256, "annotation": {"number": 64, "value": 71}, "group": "control_change"}, {"time": 2256, "annotation": {"number": 64, "value": 0}, "group": "control_change"}, {"time": 2261, "annotation": {"number": 64, "value": 71}, "group": "control_change"}, {"time": 2262, "annotation": {"number": 64, "value": 127}, "group": "control_change"}, {"time": 2277, "annotation": {"number": 64, "value": 71}, "group": "control_change"}, {"time": 2278, "annotation": {"number": 64, "value": 0}, "group": "control_change"}, {"time": 2281, "annotation": {"number": 64, "value": 71}, "group": "control_change"}, {"time": 2282, "annotation": {"number": 64, "value": 127}, "group": "control_change"}, {"time": 2304, "annotation": {"number": 64, "value": 71}, "group": "control_change"}, {"time": 2305, "annotation": {"number": 64, "value": 0}, "group": "control_change"}, {"time": 2310, "annotation": {"number": 64, "value": 71}, "group": "control_change"}, {"time": 2311, "annotation": {"number": 64, "value": 127}, "group": "control_change"}, {"time": 2352, "annotation": {"number": 64, "value": 71}, "group": "control_change"}, {"time": 2353, "annotation": {"number": 64, "value": 0}, "group": "control_change"}, {"time": 2358, "annotation": {"number": 64, "value": 71}, "group": "control_change"}, {"time": 2359, "annotation": {"number": 64, "value": 127}, "group": "control_change"}, {"time": 2400, "annotation": {"number": 64, "value": 71}, "group": "control_change"}, {"time": 2400, "annotation": {"number": 64, "value": 0}, "group": "control_change"}, {"time": 2404, "annotation": {"number": 64, "value": 71}, "group": "control_change"}, {"time": 2405, "annotation": {"number": 64, "value": 127}, "group": "control_change"}, {"time": 2424, "annotation": {"number": 64, "value": 71}, "group": "control_change"}, {"time": 2425, "annotation": {"number": 64, "value": 0}, "group": "control_change"}, {"time": 2434, "annotation": {"number": 64, "value": 71}, "group": "control_change"}, {"time": 2436, "annotation": {"number": 64, "value": 127}, "group": "control_change"}, {"time": 2448, "annotation": {"number": 64, "value": 71}, "group": "control_change"}, {"time": 2448, "annotation": {"number": 64, "value": 0}, "group": "control_change"}, {"time": 2453, "annotation": {"number": 64, "value": 71}, "group": "control_change"}, {"time": 2454, "annotation": {"number": 64, "value": 127}, "group": "control_change"}, {"time": 2472, "annotation": {"number": 64, "value": 71}, "group": "control_change"}, {"time": 2476, "annotation": {"number": 64, "value": 127}, "group": "control_change"}, {"time": 2496, "annotation": {"number": 64, "value": 71}, "group": "control_change"}, {"time": 2497, "annotation": {"number": 64, "value": 0}, "group": "control_change"}, {"time": 2500, "annotation": {"number": 64, "value": 71}, "group": "control_change"}, {"time": 2502, "annotation": {"number": 64, "value": 127}, "group": "control_change"}, {"time": 2531, "annotation": {"number": 64, "value": 71}, "group": "control_change"}, {"time": 2531, "annotation": {"number": 64, "value": 0}, "group": "control_change"}, {"time": 2534, "annotation": {"number": 64, "value": 71}, "group": "control_change"}, {"time": 2534, "annotation": {"number": 64, "value": 127}, "group": "control_change"}, {"time": 2544, "annotation": {"number": 64, "value": 0}, "group": "control_change"}, {"time": 2544, "annotation": {"number": 64, "value": 71}, "group": "control_change"}, {"time": 2546, "annotation": {"number": 64, "value": 127}, "group": "control_change"}, {"time": 2567, "annotation": {"number": 64, "value": 0}, "group": "control_change"}, {"time": 2569, "annotation": {"number": 64, "value": 127}, "group": "control_change"}, {"time": 2591, "annotation": {"number": 64, "value": 0}, "group": "control_change"}, {"time": 2593, "annotation": {"number": 64, "value": 127}, "group": "control_change"}, {"time": 2615, "annotation": {"number": 64, "value": 0}, "group": "control_change"}, {"time": 2617, "annotation": {"number": 64, "value": 127}, "group": "control_change"}, {"time": 2639, "annotation": {"number": 64, "value": 0}, "group": "control_change"}, {"time": 2641, "annotation": {"number": 64, "value": 127}, "group": "control_change"}, {"time": 2665, "annotation": {"number": 64, "value": 0}, "group": "control_change"}, {"time": 2667, "annotation": {"number": 64, "value": 127}, "group": "control_change"}, {"time": 2687, "annotation": {"number": 64, "value": 0}, "group": "control_change"}, {"time": 2689, "annotation": {"number": 64, "value": 127}, "group": "control_change"}, {"time": 2712, "annotation": {"number": 64, "value": 0}, "group": "control_change"}, {"time": 2714, "annotation": {"number": 64, "value": 127}, "group": "control_change"}, {"time": 2735, "annotation": {"number": 64, "value": 0}, "group": "control_change"}, {"time": 2738, "annotation": {"number": 64, "value": 127}, "group": "control_change"}, {"time": 2755, "annotation": {"number": 64, "value": 127}, "group": "control_change"}, {"time": 2759, "annotation": {"number": 64, "value": 0}, "group": "control_change"}, {"time": 2760, "annotation": {"number": 64, "value": 0}, "group": "control_change"}, {"time": 2761, "annotation": {"number": 64, "value": 127}, "group": "control_change"}, {"time": 2771, "annotation": {"number": 64, "value": 0}, "group": "control_change"}, {"time": 2773, "annotation": {"number": 64, "value": 127}, "group": "control_change"}, {"time": 2783, "annotation": {"number": 64, "value": 0}, "group": "control_change"}, {"time": 2785, "annotation": {"number": 64, "value": 127}, "group": "control_change"}, {"time": 2809, "annotation": {"number": 64, "value": 0}, "group": "control_change"}, {"time": 2811, "annotation": {"number": 64, "value": 127}, "group": "control_change"}, {"time": 2832, "annotation": {"number": 64, "value": 0}, "group": "control_change"}, {"time": 2832, "annotation": {"number": 64, "value": 127}, "group": "control_change"}, {"time": 2833, "annotation": {"number": 64, "value": 127}, "group": "control_change"}, {"time": 2857, "annotation": {"number": 64, "value": 0}, "group": "control_change"}, {"time": 2858, "annotation": {"number": 64, "value": 127}, "group": "control_change"}, {"time": 2878, "annotation": {"number": 64, "value": 0}, "group": "control_change"}, {"time": 2879, "annotation": {"number": 64, "value": 127}, "group": "control_change"}, {"time": 2904, "annotation": {"number": 64, "value": 0}, "group": "control_change"}, {"time": 2904, "annotation": {"number": 64, "value": 127}, "group": "control_change"}, {"time": 2927, "annotation": {"number": 64, "value": 0}, "group": "control_change"}, {"time": 2930, "annotation": {"number": 64, "value": 127}, "group": "control_change"}, {"time": 2951, "annotation": {"number": 64, "value": 0}, "group": "control_change"}, {"time": 2953, "annotation": {"number": 64, "value": 127}, "group": "control_change"}, {"time": 2975, "annotation": {"number": 64, "value": 0}, "group": "control_change"}, {"time": 2977, "annotation": {"number": 64, "value": 127}, "group": "control_change"}, {"time": 2999, "annotation": {"number": 64, "value": 0}, "group": "control_change"}, {"time": 3001, "annotation": {"number": 64, "value": 127}, "group": "control_change"}, {"time": 3023, "annotation": {"number": 64, "value": 0}, "group": "control_change"}, {"time": 3025, "annotation": {"number": 64, "value": 127}, "group": "control_change"}, {"time": 3049, "annotation": {"number": 64, "value": 0}, "group": "control_change"}, {"time": 3051, "annotation": {"number": 64, "value": 127}, "group": "control_change"}, {"time": 3071, "annotation": {"number": 64, "value": 0}, "group": "control_change"}, {"time": 3073, "annotation": {"number": 64, "value": 127}, "group": "control_change"}, {"time": 3096, "annotation": {"number": 64, "value": 0}, "group": "control_change"}, {"time": 3098, "annotation": {"number": 64, "value": 127}, "group": "control_change"}, {"time": 3119, "annotation": {"number": 64, "value": 0}, "group": "control_change"}, {"time": 3122, "annotation": {"number": 64, "value": 127}, "group": "control_change"}, {"time": 3139, "annotation": {"number": 64, "value": 127}, "group": "control_change"}, {"time": 3143, "annotation": {"number": 64, "value": 0}, "group": "control_change"}, {"time": 3144, "annotation": {"number": 64, "value": 0}, "group": "control_change"}, {"time": 3145, "annotation": {"number": 64, "value": 127}, "group": "control_change"}, {"time": 3155, "annotation": {"number": 64, "value": 0}, "group": "control_change"}, {"time": 3157, "annotation": {"number": 64, "value": 127}, "group": "control_change"}, {"time": 3167, "annotation": {"number": 64, "value": 0}, "group": "control_change"}, {"time": 3169, "annotation": {"number": 64, "value": 127}, "group": "control_change"}, {"time": 3193, "annotation": {"number": 64, "value": 0}, "group": "control_change"}, {"time": 3195, "annotation": {"number": 64, "value": 127}, "group": "control_change"}, {"time": 3216, "annotation": {"number": 64, "value": 0}, "group": "control_change"}, {"time": 3216, "annotation": {"number": 64, "value": 127}, "group": "control_change"}, {"time": 3217, "annotation": {"number": 64, "value": 127}, "group": "control_change"}, {"time": 3241, "annotation": {"number": 64, "value": 0}, "group": "control_change"}, {"time": 3242, "annotation": {"number": 64, "value": 127}, "group": "control_change"}, {"time": 3259, "annotation": {"number": 64, "value": 127}, "group": "control_change"}, {"time": 3259, "annotation": {"number": 64, "value": 0}, "group": "control_change"}, {"time": 3262, "annotation": {"number": 64, "value": 0}, "group": "control_change"}, {"time": 3263, "annotation": {"number": 64, "value": 127}, "group": "control_change"}, {"time": 3264, "annotation": {"number": 64, "value": 127}, "group": "control_change"}, {"time": 3288, "annotation": {"number": 64, "value": 127}, "group": "control_change"}, {"time": 3312, "annotation": {"number": 64, "value": 0}, "group": "control_change"}, {"time": 3314, "annotation": {"number": 64, "value": 127}, "group": "control_change"}, {"time": 3359, "annotation": {"number": 64, "value": 0}, "group": "control_change"}, {"time": 3361, "annotation": {"number": 64, "value": 127}, "group": "control_change"}, {"time": 3408, "annotation": {"number": 64, "value": 0}, "group": "control_change"}, {"time": 3409, "annotation": {"number": 64, "value": 127}, "group": "control_change"}, {"time": 3433, "annotation": {"number": 64, "value": 0}, "group": "control_change"}, {"time": 3437, "annotation": {"number": 64, "value": 127}, "group": "control_change"}, {"time": 3456, "annotation": {"number": 64, "value": 0}, "group": "control_change"}, {"time": 3457, "annotation": {"number": 64, "value": 127}, "group": "control_change"}, {"time": 3492, "annotation": {"number": 64, "value": 127}, "group": "control_change"}, {"time": 3492, "annotation": {"number": 64, "value": 0}, "group": "control_change"}, {"time": 3504, "annotation": {"number": 64, "value": 0}, "group": "control_change"}, {"time": 3505, "annotation": {"number": 64, "value": 127}, "group": "control_change"}]}]}