{"metadata": {"schema_version": "0.2", "title": "None", "source_filename": "704.mid", "source_format": "midi"}, "resolution": 12, "tempos": [{"time": 0, "qpm": 107.0001266168165}], "time_signatures": [{"time": 0, "numerator": 1, "denominator": 4}], "tracks": [{"program": 0, "is_drum": false, "name": "MELODY", "notes": [{"time": 815, "pitch": 65, "duration": 4, "velocity": 86}, {"time": 821, "pitch": 63, "duration": 3, "velocity": 88}, {"time": 827, "pitch": 65, "duration": 4, "velocity": 90}, {"time": 833, "pitch": 63, "duration": 3, "velocity": 90}, {"time": 839, "pitch": 65, "duration": 14, "velocity": 95}, {"time": 857, "pitch": 63, "duration": 3, "velocity": 84}, {"time": 863, "pitch": 65, "duration": 3, "velocity": 86}, {"time": 869, "pitch": 63, "duration": 3, "velocity": 86}, {"time": 875, "pitch": 65, "duration": 3, "velocity": 88}, {"time": 881, "pitch": 63, "duration": 4, "velocity": 83}, {"time": 887, "pitch": 65, "duration": 15, "velocity": 88}, {"time": 911, "pitch": 65, "duration": 3, "velocity": 85}, {"time": 917, "pitch": 63, "duration": 4, "velocity": 86}, {"time": 923, "pitch": 65, "duration": 4, "velocity": 87}, {"time": 929, "pitch": 63, "duration": 4, "velocity": 85}, {"time": 935, "pitch": 65, "duration": 9, "velocity": 86}, {"time": 947, "pitch": 61, "duration": 5, "velocity": 85}, {"time": 953, "pitch": 63, "duration": 4, "velocity": 85}, {"time": 959, "pitch": 65, "duration": 4, "velocity": 84}, {"time": 965, "pitch": 63, "duration": 4, "velocity": 85}, {"time": 971, "pitch": 65, "duration": 3, "velocity": 85}, {"time": 977, "pitch": 63, "duration": 4, "velocity": 86}, {"time": 983, "pitch": 65, "duration": 12, "velocity": 85}, {"time": 1007, "pitch": 63, "duration": 5, "velocity": 82}, {"time": 1013, "pitch": 61, "duration": 5, "velocity": 79}, {"time": 1019, "pitch": 63, "duration": 6, "velocity": 85}, {"time": 1025, "pitch": 61, "duration": 4, "velocity": 81}, {"time": 1031, "pitch": 63, "duration": 6, "velocity": 86}, {"time": 1037, "pitch": 61, "duration": 4, "velocity": 85}, {"time": 1043, "pitch": 63, "duration": 6, "velocity": 86}, {"time": 1049, "pitch": 61, "duration": 4, "velocity": 83}, {"time": 1055, "pitch": 63, "duration": 5, "velocity": 88}, {"time": 1061, "pitch": 61, "duration": 4, "velocity": 87}, {"time": 1067, "pitch": 65, "duration": 9, "velocity": 86}, {"time": 1079, "pitch": 58, "duration": 4, "velocity": 85}, {"time": 1085, "pitch": 61, "duration": 19, "velocity": 88}, {"time": 1115, "pitch": 65, "duration": 8, "velocity": 88}, {"time": 1127, "pitch": 58, "duration": 4, "velocity": 84}, {"time": 1133, "pitch": 61, "duration": 29, "velocity": 85}, {"time": 1199, "pitch": 65, "duration": 4, "velocity": 86}, {"time": 1205, "pitch": 63, "duration": 3, "velocity": 88}, {"time": 1211, "pitch": 65, "duration": 4, "velocity": 90}, {"time": 1217, "pitch": 63, "duration": 3, "velocity": 90}, {"time": 1223, "pitch": 65, "duration": 14, "velocity": 95}, {"time": 1241, "pitch": 63, "duration": 3, "velocity": 84}, {"time": 1247, "pitch": 65, "duration": 3, "velocity": 86}, {"time": 1253, "pitch": 63, "duration": 3, "velocity": 86}, {"time": 1259, "pitch": 65, "duration": 3, "velocity": 88}, {"time": 1265, "pitch": 63, "duration": 4, "velocity": 83}, {"time": 1271, "pitch": 65, "duration": 15, "velocity": 88}, {"time": 1295, "pitch": 65, "duration": 3, "velocity": 85}, {"time": 1301, "pitch": 63, "duration": 4, "velocity": 86}, {"time": 1307, "pitch": 65, "duration": 4, "velocity": 87}, {"time": 1313, "pitch": 63, "duration": 4, "velocity": 85}, {"time": 1319, "pitch": 65, "duration": 9, "velocity": 86}, {"time": 1331, "pitch": 61, "duration": 5, "velocity": 85}, {"time": 1337, "pitch": 63, "duration": 4, "velocity": 85}, {"time": 1343, "pitch": 65, "duration": 4, "velocity": 84}, {"time": 1349, "pitch": 63, "duration": 4, "velocity": 85}, {"time": 1355, "pitch": 65, "duration": 3, "velocity": 85}, {"time": 1361, "pitch": 63, "duration": 4, "velocity": 86}, {"time": 1367, "pitch": 65, "duration": 12, "velocity": 85}, {"time": 1391, "pitch": 63, "duration": 5, "velocity": 82}, {"time": 1397, "pitch": 61, "duration": 5, "velocity": 79}, {"time": 1403, "pitch": 63, "duration": 6, "velocity": 85}, {"time": 1409, "pitch": 61, "duration": 4, "velocity": 81}, {"time": 1415, "pitch": 63, "duration": 6, "velocity": 86}, {"time": 1421, "pitch": 61, "duration": 4, "velocity": 85}, {"time": 1427, "pitch": 63, "duration": 6, "velocity": 86}, {"time": 1433, "pitch": 61, "duration": 4, "velocity": 83}, {"time": 1439, "pitch": 63, "duration": 5, "velocity": 88}, {"time": 1445, "pitch": 61, "duration": 4, "velocity": 87}, {"time": 1451, "pitch": 65, "duration": 9, "velocity": 86}, {"time": 1463, "pitch": 58, "duration": 4, "velocity": 85}, {"time": 1469, "pitch": 61, "duration": 19, "velocity": 88}, {"time": 1499, "pitch": 65, "duration": 8, "velocity": 88}, {"time": 1511, "pitch": 58, "duration": 4, "velocity": 84}, {"time": 1517, "pitch": 61, "duration": 29, "velocity": 85}, {"time": 1583, "pitch": 73, "duration": 5, "velocity": 84}, {"time": 1589, "pitch": 72, "duration": 5, "velocity": 86}, {"time": 1595, "pitch": 73, "duration": 4, "velocity": 86}, {"time": 1601, "pitch": 72, "duration": 3, "velocity": 88}, {"time": 1607, "pitch": 73, "duration": 4, "velocity": 89}, {"time": 1613, "pitch": 72, "duration": 3, "velocity": 90}, {"time": 1619, "pitch": 73, "duration": 4, "velocity": 90}, {"time": 1625, "pitch": 72, "duration": 3, "velocity": 88}, {"time": 1631, "pitch": 73, "duration": 3, "velocity": 89}, {"time": 1637, "pitch": 72, "duration": 4, "velocity": 91}, {"time": 1643, "pitch": 75, "duration": 9, "velocity": 93}, {"time": 1655, "pitch": 72, "duration": 3, "velocity": 90}, {"time": 1661, "pitch": 73, "duration": 14, "velocity": 88}, {"time": 1679, "pitch": 73, "duration": 4, "velocity": 86}, {"time": 1685, "pitch": 72, "duration": 3, "velocity": 85}, {"time": 1691, "pitch": 73, "duration": 5, "velocity": 91}, {"time": 1697, "pitch": 72, "duration": 4, "velocity": 86}, {"time": 1703, "pitch": 73, "duration": 5, "velocity": 89}, {"time": 1709, "pitch": 72, "duration": 4, "velocity": 86}, {"time": 1715, "pitch": 73, "duration": 5, "velocity": 88}, {"time": 1721, "pitch": 72, "duration": 4, "velocity": 85}, {"time": 1727, "pitch": 73, "duration": 3, "velocity": 88}, {"time": 1733, "pitch": 75, "duration": 4, "velocity": 91}, {"time": 1739, "pitch": 77, "duration": 9, "velocity": 91}, {"time": 1751, "pitch": 73, "duration": 4, "velocity": 86}, {"time": 1757, "pitch": 80, "duration": 55, "velocity": 88}, {"time": 1823, "pitch": 73, "duration": 10, "velocity": 90}, {"time": 1835, "pitch": 80, "duration": 10, "velocity": 86}, {"time": 1847, "pitch": 82, "duration": 3, "velocity": 86}, {"time": 1853, "pitch": 77, "duration": 12, "velocity": 85}, {"time": 1865, "pitch": 75, "duration": 51, "velocity": 90}, {"time": 1925, "pitch": 68, "duration": 4, "velocity": 84}, {"time": 1931, "pitch": 77, "duration": 5, "velocity": 91}, {"time": 1937, "pitch": 75, "duration": 3, "velocity": 95}, {"time": 1943, "pitch": 73, "duration": 3, "velocity": 90}, {"time": 1949, "pitch": 77, "duration": 10, "velocity": 91}, {"time": 1961, "pitch": 70, "duration": 15, "velocity": 90}, {"time": 1979, "pitch": 77, "duration": 5, "velocity": 91}, {"time": 1985, "pitch": 75, "duration": 2, "velocity": 93}, {"time": 1991, "pitch": 73, "duration": 4, "velocity": 90}, {"time": 1997, "pitch": 77, "duration": 7, "velocity": 91}, {"time": 2009, "pitch": 75, "duration": 13, "velocity": 98}, {"time": 2027, "pitch": 75, "duration": 6, "velocity": 95}, {"time": 2033, "pitch": 73, "duration": 5, "velocity": 85}, {"time": 2039, "pitch": 72, "duration": 5, "velocity": 88}, {"time": 2045, "pitch": 75, "duration": 10, "velocity": 98}, {"time": 2057, "pitch": 73, "duration": 5, "velocity": 91}, {"time": 2063, "pitch": 72, "duration": 5, "velocity": 88}, {"time": 2069, "pitch": 75, "duration": 10, "velocity": 95}, {"time": 2081, "pitch": 80, "duration": 3, "velocity": 86}, {"time": 2087, "pitch": 80, "duration": 3, "velocity": 90}, {"time": 2093, "pitch": 75, "duration": 11, "velocity": 91}, {"time": 2105, "pitch": 73, "duration": 13, "velocity": 85}, {"time": 2117, "pitch": 73, "duration": 1, "velocity": 76}, {"time": 2123, "pitch": 73, "duration": 4, "velocity": 86}, {"time": 2129, "pitch": 72, "duration": 5, "velocity": 88}, {"time": 2135, "pitch": 70, "duration": 4, "velocity": 85}, {"time": 2141, "pitch": 73, "duration": 11, "velocity": 88}, {"time": 2165, "pitch": 73, "duration": 4, "velocity": 85}, {"time": 2171, "pitch": 73, "duration": 5, "velocity": 89}, {"time": 2177, "pitch": 72, "duration": 5, "velocity": 91}, {"time": 2183, "pitch": 70, "duration": 5, "velocity": 86}, {"time": 2189, "pitch": 73, "duration": 16, "velocity": 88}, {"time": 2213, "pitch": 73, "duration": 4, "velocity": 90}, {"time": 2219, "pitch": 73, "duration": 4, "velocity": 91}, {"time": 2225, "pitch": 72, "duration": 4, "velocity": 86}, {"time": 2231, "pitch": 73, "duration": 3, "velocity": 86}, {"time": 2237, "pitch": 75, "duration": 4, "velocity": 88}, {"time": 2243, "pitch": 78, "duration": 11, "velocity": 85}, {"time": 2255, "pitch": 77, "duration": 4, "velocity": 88}, {"time": 2261, "pitch": 77, "duration": 10, "velocity": 88}, {"time": 2273, "pitch": 75, "duration": 4, "velocity": 89}, {"time": 2279, "pitch": 73, "duration": 3, "velocity": 91}, {"time": 2285, "pitch": 77, "duration": 20, "velocity": 91}, {"time": 2309, "pitch": 77, "duration": 4, "velocity": 84}, {"time": 2315, "pitch": 77, "duration": 5, "velocity": 91}, {"time": 2321, "pitch": 75, "duration": 3, "velocity": 95}, {"time": 2327, "pitch": 73, "duration": 3, "velocity": 90}, {"time": 2333, "pitch": 77, "duration": 10, "velocity": 91}, {"time": 2345, "pitch": 70, "duration": 15, "velocity": 90}, {"time": 2363, "pitch": 77, "duration": 5, "velocity": 91}, {"time": 2369, "pitch": 75, "duration": 2, "velocity": 93}, {"time": 2375, "pitch": 73, "duration": 4, "velocity": 90}, {"time": 2381, "pitch": 77, "duration": 7, "velocity": 91}, {"time": 2393, "pitch": 75, "duration": 13, "velocity": 98}, {"time": 2411, "pitch": 75, "duration": 6, "velocity": 95}, {"time": 2417, "pitch": 73, "duration": 5, "velocity": 85}, {"time": 2423, "pitch": 72, "duration": 5, "velocity": 88}, {"time": 2429, "pitch": 75, "duration": 10, "velocity": 98}, {"time": 2441, "pitch": 73, "duration": 5, "velocity": 91}, {"time": 2447, "pitch": 72, "duration": 5, "velocity": 88}, {"time": 2453, "pitch": 75, "duration": 10, "velocity": 95}, {"time": 2465, "pitch": 80, "duration": 3, "velocity": 86}, {"time": 2471, "pitch": 80, "duration": 3, "velocity": 90}, {"time": 2477, "pitch": 75, "duration": 11, "velocity": 91}, {"time": 2489, "pitch": 73, "duration": 12, "velocity": 85}, {"time": 2501, "pitch": 68, "duration": 2, "velocity": 76}, {"time": 2507, "pitch": 80, "duration": 4, "velocity": 86}, {"time": 2513, "pitch": 80, "duration": 5, "velocity": 88}, {"time": 2519, "pitch": 80, "duration": 4, "velocity": 85}, {"time": 2525, "pitch": 80, "duration": 4, "velocity": 85}, {"time": 2531, "pitch": 80, "duration": 11, "velocity": 88}, {"time": 2543, "pitch": 78, "duration": 4, "velocity": 85}, {"time": 2549, "pitch": 78, "duration": 12, "velocity": 89}, {"time": 2567, "pitch": 73, "duration": 5, "velocity": 91}, {"time": 2573, "pitch": 75, "duration": 5, "velocity": 86}, {"time": 2579, "pitch": 77, "duration": 16, "velocity": 88}, {"time": 2597, "pitch": 78, "duration": 4, "velocity": 90}, {"time": 2603, "pitch": 77, "duration": 6, "velocity": 91}, {"time": 2609, "pitch": 75, "duration": 4, "velocity": 86}, {"time": 2615, "pitch": 73, "duration": 4, "velocity": 88}, {"time": 2621, "pitch": 75, "duration": 11, "velocity": 85}, {"time": 2633, "pitch": 73, "duration": 42, "velocity": 88}, {"time": 3023, "pitch": 65, "duration": 4, "velocity": 86}, {"time": 3029, "pitch": 63, "duration": 3, "velocity": 88}, {"time": 3035, "pitch": 65, "duration": 4, "velocity": 90}, {"time": 3041, "pitch": 63, "duration": 3, "velocity": 90}, {"time": 3047, "pitch": 65, "duration": 14, "velocity": 95}, {"time": 3065, "pitch": 63, "duration": 3, "velocity": 84}, {"time": 3071, "pitch": 65, "duration": 3, "velocity": 86}, {"time": 3077, "pitch": 63, "duration": 3, "velocity": 86}, {"time": 3083, "pitch": 65, "duration": 3, "velocity": 88}, {"time": 3089, "pitch": 63, "duration": 4, "velocity": 83}, {"time": 3095, "pitch": 65, "duration": 15, "velocity": 88}, {"time": 3119, "pitch": 65, "duration": 3, "velocity": 85}, {"time": 3125, "pitch": 63, "duration": 4, "velocity": 86}, {"time": 3131, "pitch": 65, "duration": 4, "velocity": 87}, {"time": 3137, "pitch": 63, "duration": 4, "velocity": 85}, {"time": 3143, "pitch": 65, "duration": 9, "velocity": 86}, {"time": 3155, "pitch": 61, "duration": 5, "velocity": 85}, {"time": 3161, "pitch": 63, "duration": 4, "velocity": 85}, {"time": 3167, "pitch": 65, "duration": 4, "velocity": 84}, {"time": 3173, "pitch": 63, "duration": 4, "velocity": 85}, {"time": 3179, "pitch": 65, "duration": 3, "velocity": 85}, {"time": 3185, "pitch": 63, "duration": 4, "velocity": 86}, {"time": 3191, "pitch": 65, "duration": 12, "velocity": 85}, {"time": 3215, "pitch": 63, "duration": 5, "velocity": 82}, {"time": 3221, "pitch": 61, "duration": 5, "velocity": 79}, {"time": 3227, "pitch": 63, "duration": 6, "velocity": 85}, {"time": 3233, "pitch": 61, "duration": 4, "velocity": 81}, {"time": 3239, "pitch": 63, "duration": 6, "velocity": 86}, {"time": 3245, "pitch": 61, "duration": 4, "velocity": 85}, {"time": 3251, "pitch": 63, "duration": 6, "velocity": 86}, {"time": 3257, "pitch": 61, "duration": 4, "velocity": 83}, {"time": 3263, "pitch": 63, "duration": 5, "velocity": 88}, {"time": 3269, "pitch": 61, "duration": 4, "velocity": 87}, {"time": 3275, "pitch": 65, "duration": 9, "velocity": 86}, {"time": 3287, "pitch": 58, "duration": 4, "velocity": 85}, {"time": 3293, "pitch": 61, "duration": 19, "velocity": 88}, {"time": 3323, "pitch": 65, "duration": 8, "velocity": 88}, {"time": 3335, "pitch": 58, "duration": 4, "velocity": 84}, {"time": 3341, "pitch": 61, "duration": 29, "velocity": 85}, {"time": 3407, "pitch": 65, "duration": 4, "velocity": 86}, {"time": 3413, "pitch": 63, "duration": 3, "velocity": 88}, {"time": 3419, "pitch": 65, "duration": 4, "velocity": 90}, {"time": 3425, "pitch": 63, "duration": 3, "velocity": 90}, {"time": 3431, "pitch": 65, "duration": 14, "velocity": 95}, {"time": 3449, "pitch": 63, "duration": 3, "velocity": 84}, {"time": 3455, "pitch": 65, "duration": 3, "velocity": 86}, {"time": 3461, "pitch": 63, "duration": 3, "velocity": 86}, {"time": 3467, "pitch": 65, "duration": 3, "velocity": 88}, {"time": 3473, "pitch": 63, "duration": 4, "velocity": 83}, {"time": 3479, "pitch": 65, "duration": 15, "velocity": 88}, {"time": 3503, "pitch": 65, "duration": 3, "velocity": 85}, {"time": 3509, "pitch": 63, "duration": 4, "velocity": 86}, {"time": 3515, "pitch": 65, "duration": 4, "velocity": 87}, {"time": 3521, "pitch": 63, "duration": 4, "velocity": 85}, {"time": 3527, "pitch": 65, "duration": 9, "velocity": 86}, {"time": 3539, "pitch": 61, "duration": 5, "velocity": 85}, {"time": 3545, "pitch": 63, "duration": 4, "velocity": 85}, {"time": 3551, "pitch": 65, "duration": 4, "velocity": 84}, {"time": 3557, "pitch": 63, "duration": 4, "velocity": 85}, {"time": 3563, "pitch": 65, "duration": 3, "velocity": 85}, {"time": 3569, "pitch": 63, "duration": 4, "velocity": 86}, {"time": 3575, "pitch": 65, "duration": 12, "velocity": 85}, {"time": 3599, "pitch": 63, "duration": 5, "velocity": 82}, {"time": 3605, "pitch": 61, "duration": 5, "velocity": 79}, {"time": 3611, "pitch": 63, "duration": 6, "velocity": 85}, {"time": 3617, "pitch": 61, "duration": 4, "velocity": 81}, {"time": 3623, "pitch": 63, "duration": 6, "velocity": 86}, {"time": 3629, "pitch": 61, "duration": 4, "velocity": 85}, {"time": 3635, "pitch": 63, "duration": 6, "velocity": 86}, {"time": 3641, "pitch": 61, "duration": 4, "velocity": 83}, {"time": 3647, "pitch": 63, "duration": 5, "velocity": 88}, {"time": 3653, "pitch": 61, "duration": 4, "velocity": 87}, {"time": 3659, "pitch": 65, "duration": 9, "velocity": 86}, {"time": 3671, "pitch": 58, "duration": 4, "velocity": 85}, {"time": 3677, "pitch": 61, "duration": 19, "velocity": 88}, {"time": 3707, "pitch": 65, "duration": 8, "velocity": 88}, {"time": 3719, "pitch": 58, "duration": 4, "velocity": 84}, {"time": 3725, "pitch": 61, "duration": 29, "velocity": 85}, {"time": 3791, "pitch": 73, "duration": 5, "velocity": 84}, {"time": 3797, "pitch": 72, "duration": 5, "velocity": 86}, {"time": 3803, "pitch": 73, "duration": 4, "velocity": 86}, {"time": 3809, "pitch": 72, "duration": 3, "velocity": 88}, {"time": 3815, "pitch": 73, "duration": 4, "velocity": 89}, {"time": 3821, "pitch": 72, "duration": 3, "velocity": 90}, {"time": 3827, "pitch": 73, "duration": 4, "velocity": 90}, {"time": 3833, "pitch": 72, "duration": 3, "velocity": 88}, {"time": 3839, "pitch": 73, "duration": 3, "velocity": 89}, {"time": 3845, "pitch": 72, "duration": 4, "velocity": 91}, {"time": 3851, "pitch": 75, "duration": 9, "velocity": 93}, {"time": 3863, "pitch": 72, "duration": 3, "velocity": 90}, {"time": 3869, "pitch": 73, "duration": 14, "velocity": 88}, {"time": 3887, "pitch": 73, "duration": 4, "velocity": 86}, {"time": 3893, "pitch": 72, "duration": 3, "velocity": 85}, {"time": 3899, "pitch": 73, "duration": 5, "velocity": 91}, {"time": 3905, "pitch": 72, "duration": 4, "velocity": 86}, {"time": 3911, "pitch": 73, "duration": 5, "velocity": 89}, {"time": 3917, "pitch": 72, "duration": 4, "velocity": 86}, {"time": 3923, "pitch": 73, "duration": 5, "velocity": 88}, {"time": 3929, "pitch": 72, "duration": 4, "velocity": 85}, {"time": 3935, "pitch": 73, "duration": 3, "velocity": 88}, {"time": 3941, "pitch": 75, "duration": 4, "velocity": 91}, {"time": 3947, "pitch": 77, "duration": 9, "velocity": 91}, {"time": 3959, "pitch": 73, "duration": 4, "velocity": 86}, {"time": 3965, "pitch": 80, "duration": 55, "velocity": 88}, {"time": 4031, "pitch": 73, "duration": 10, "velocity": 90}, {"time": 4043, "pitch": 80, "duration": 10, "velocity": 86}, {"time": 4055, "pitch": 82, "duration": 3, "velocity": 86}, {"time": 4061, "pitch": 77, "duration": 12, "velocity": 85}, {"time": 4073, "pitch": 75, "duration": 51, "velocity": 90}, {"time": 4133, "pitch": 68, "duration": 4, "velocity": 84}, {"time": 4139, "pitch": 77, "duration": 5, "velocity": 91}, {"time": 4145, "pitch": 75, "duration": 3, "velocity": 95}, {"time": 4151, "pitch": 73, "duration": 3, "velocity": 90}, {"time": 4157, "pitch": 77, "duration": 10, "velocity": 91}, {"time": 4169, "pitch": 70, "duration": 15, "velocity": 90}, {"time": 4187, "pitch": 77, "duration": 5, "velocity": 91}, {"time": 4193, "pitch": 75, "duration": 2, "velocity": 93}, {"time": 4199, "pitch": 73, "duration": 4, "velocity": 90}, {"time": 4205, "pitch": 77, "duration": 7, "velocity": 91}, {"time": 4217, "pitch": 75, "duration": 13, "velocity": 98}, {"time": 4235, "pitch": 75, "duration": 6, "velocity": 95}, {"time": 4241, "pitch": 73, "duration": 5, "velocity": 85}, {"time": 4247, "pitch": 72, "duration": 5, "velocity": 88}, {"time": 4253, "pitch": 75, "duration": 10, "velocity": 98}, {"time": 4265, "pitch": 73, "duration": 5, "velocity": 91}, {"time": 4271, "pitch": 72, "duration": 5, "velocity": 88}, {"time": 4277, "pitch": 75, "duration": 10, "velocity": 95}, {"time": 4289, "pitch": 80, "duration": 3, "velocity": 86}, {"time": 4295, "pitch": 80, "duration": 3, "velocity": 90}, {"time": 4301, "pitch": 75, "duration": 11, "velocity": 91}, {"time": 4313, "pitch": 73, "duration": 13, "velocity": 85}, {"time": 4325, "pitch": 73, "duration": 1, "velocity": 76}, {"time": 4331, "pitch": 73, "duration": 4, "velocity": 86}, {"time": 4337, "pitch": 72, "duration": 5, "velocity": 88}, {"time": 4343, "pitch": 70, "duration": 4, "velocity": 85}, {"time": 4349, "pitch": 73, "duration": 11, "velocity": 88}, {"time": 4373, "pitch": 73, "duration": 4, "velocity": 85}, {"time": 4379, "pitch": 73, "duration": 5, "velocity": 89}, {"time": 4385, "pitch": 72, "duration": 5, "velocity": 91}, {"time": 4391, "pitch": 70, "duration": 5, "velocity": 86}, {"time": 4397, "pitch": 73, "duration": 16, "velocity": 88}, {"time": 4421, "pitch": 73, "duration": 4, "velocity": 90}, {"time": 4427, "pitch": 73, "duration": 4, "velocity": 91}, {"time": 4433, "pitch": 72, "duration": 4, "velocity": 86}, {"time": 4439, "pitch": 73, "duration": 3, "velocity": 86}, {"time": 4445, "pitch": 75, "duration": 4, "velocity": 88}, {"time": 4451, "pitch": 78, "duration": 11, "velocity": 85}, {"time": 4463, "pitch": 77, "duration": 4, "velocity": 88}, {"time": 4469, "pitch": 77, "duration": 10, "velocity": 88}, {"time": 4481, "pitch": 75, "duration": 4, "velocity": 89}, {"time": 4487, "pitch": 73, "duration": 3, "velocity": 91}, {"time": 4493, "pitch": 77, "duration": 20, "velocity": 91}, {"time": 4517, "pitch": 77, "duration": 4, "velocity": 84}, {"time": 4523, "pitch": 77, "duration": 5, "velocity": 91}, {"time": 4529, "pitch": 75, "duration": 3, "velocity": 95}, {"time": 4535, "pitch": 73, "duration": 3, "velocity": 90}, {"time": 4541, "pitch": 77, "duration": 10, "velocity": 91}, {"time": 4553, "pitch": 70, "duration": 15, "velocity": 90}, {"time": 4571, "pitch": 77, "duration": 5, "velocity": 91}, {"time": 4577, "pitch": 75, "duration": 2, "velocity": 93}, {"time": 4583, "pitch": 73, "duration": 4, "velocity": 90}, {"time": 4589, "pitch": 77, "duration": 7, "velocity": 91}, {"time": 4601, "pitch": 75, "duration": 13, "velocity": 98}, {"time": 4619, "pitch": 75, "duration": 6, "velocity": 95}, {"time": 4625, "pitch": 73, "duration": 5, "velocity": 85}, {"time": 4631, "pitch": 72, "duration": 5, "velocity": 88}, {"time": 4637, "pitch": 75, "duration": 10, "velocity": 98}, {"time": 4649, "pitch": 73, "duration": 5, "velocity": 91}, {"time": 4655, "pitch": 72, "duration": 5, "velocity": 88}, {"time": 4661, "pitch": 75, "duration": 10, "velocity": 95}, {"time": 4673, "pitch": 80, "duration": 3, "velocity": 86}, {"time": 4679, "pitch": 80, "duration": 3, "velocity": 90}, {"time": 4685, "pitch": 75, "duration": 11, "velocity": 91}, {"time": 4697, "pitch": 73, "duration": 12, "velocity": 85}, {"time": 4709, "pitch": 68, "duration": 2, "velocity": 76}, {"time": 4715, "pitch": 80, "duration": 4, "velocity": 86}, {"time": 4721, "pitch": 80, "duration": 5, "velocity": 88}, {"time": 4727, "pitch": 80, "duration": 4, "velocity": 85}, {"time": 4733, "pitch": 80, "duration": 4, "velocity": 85}, {"time": 4739, "pitch": 80, "duration": 11, "velocity": 88}, {"time": 4751, "pitch": 78, "duration": 4, "velocity": 85}, {"time": 4757, "pitch": 78, "duration": 12, "velocity": 89}, {"time": 4775, "pitch": 73, "duration": 5, "velocity": 91}, {"time": 4781, "pitch": 75, "duration": 5, "velocity": 86}, {"time": 4787, "pitch": 77, "duration": 16, "velocity": 88}, {"time": 4805, "pitch": 78, "duration": 4, "velocity": 90}, {"time": 4811, "pitch": 77, "duration": 6, "velocity": 91}, {"time": 4817, "pitch": 75, "duration": 4, "velocity": 86}, {"time": 4823, "pitch": 73, "duration": 4, "velocity": 88}, {"time": 4829, "pitch": 75, "duration": 11, "velocity": 85}, {"time": 4841, "pitch": 73, "duration": 42, "velocity": 88}, {"time": 4901, "pitch": 68, "duration": 4, "velocity": 84}, {"time": 4907, "pitch": 77, "duration": 5, "velocity": 91}, {"time": 4913, "pitch": 75, "duration": 3, "velocity": 95}, {"time": 4919, "pitch": 73, "duration": 3, "velocity": 90}, {"time": 4925, "pitch": 77, "duration": 10, "velocity": 91}, {"time": 4937, "pitch": 70, "duration": 15, "velocity": 90}, {"time": 4955, "pitch": 77, "duration": 5, "velocity": 91}, {"time": 4961, "pitch": 75, "duration": 2, "velocity": 93}, {"time": 4967, "pitch": 73, "duration": 4, "velocity": 90}, {"time": 4973, "pitch": 77, "duration": 7, "velocity": 91}, {"time": 4985, "pitch": 75, "duration": 13, "velocity": 98}, {"time": 5003, "pitch": 75, "duration": 6, "velocity": 95}, {"time": 5009, "pitch": 73, "duration": 5, "velocity": 85}, {"time": 5015, "pitch": 72, "duration": 5, "velocity": 88}, {"time": 5021, "pitch": 75, "duration": 10, "velocity": 98}, {"time": 5033, "pitch": 73, "duration": 5, "velocity": 91}, {"time": 5039, "pitch": 72, "duration": 5, "velocity": 88}, {"time": 5045, "pitch": 75, "duration": 10, "velocity": 95}, {"time": 5057, "pitch": 80, "duration": 3, "velocity": 86}, {"time": 5063, "pitch": 80, "duration": 3, "velocity": 90}, {"time": 5069, "pitch": 75, "duration": 11, "velocity": 91}, {"time": 5081, "pitch": 73, "duration": 13, "velocity": 85}, {"time": 5093, "pitch": 73, "duration": 1, "velocity": 76}, {"time": 5099, "pitch": 73, "duration": 4, "velocity": 86}, {"time": 5105, "pitch": 72, "duration": 5, "velocity": 88}, {"time": 5111, "pitch": 70, "duration": 4, "velocity": 85}, {"time": 5117, "pitch": 73, "duration": 11, "velocity": 88}, {"time": 5141, "pitch": 73, "duration": 4, "velocity": 85}, {"time": 5147, "pitch": 73, "duration": 5, "velocity": 89}, {"time": 5153, "pitch": 72, "duration": 5, "velocity": 91}, {"time": 5159, "pitch": 70, "duration": 5, "velocity": 86}, {"time": 5165, "pitch": 73, "duration": 16, "velocity": 88}, {"time": 5189, "pitch": 73, "duration": 4, "velocity": 90}, {"time": 5195, "pitch": 73, "duration": 4, "velocity": 91}, {"time": 5201, "pitch": 72, "duration": 4, "velocity": 86}, {"time": 5207, "pitch": 73, "duration": 3, "velocity": 86}, {"time": 5213, "pitch": 75, "duration": 4, "velocity": 88}, {"time": 5219, "pitch": 78, "duration": 11, "velocity": 85}, {"time": 5231, "pitch": 77, "duration": 4, "velocity": 88}, {"time": 5237, "pitch": 77, "duration": 10, "velocity": 88}, {"time": 5249, "pitch": 75, "duration": 4, "velocity": 89}, {"time": 5255, "pitch": 73, "duration": 3, "velocity": 91}, {"time": 5261, "pitch": 77, "duration": 20, "velocity": 91}, {"time": 5285, "pitch": 77, "duration": 4, "velocity": 84}, {"time": 5291, "pitch": 77, "duration": 5, "velocity": 91}, {"time": 5297, "pitch": 75, "duration": 3, "velocity": 95}, {"time": 5303, "pitch": 73, "duration": 3, "velocity": 90}, {"time": 5309, "pitch": 77, "duration": 10, "velocity": 91}, {"time": 5321, "pitch": 70, "duration": 15, "velocity": 90}, {"time": 5339, "pitch": 77, "duration": 5, "velocity": 91}, {"time": 5345, "pitch": 75, "duration": 2, "velocity": 93}, {"time": 5351, "pitch": 73, "duration": 4, "velocity": 90}, {"time": 5357, "pitch": 77, "duration": 7, "velocity": 91}, {"time": 5369, "pitch": 75, "duration": 13, "velocity": 98}, {"time": 5387, "pitch": 75, "duration": 6, "velocity": 95}, {"time": 5393, "pitch": 73, "duration": 5, "velocity": 85}, {"time": 5399, "pitch": 72, "duration": 5, "velocity": 88}, {"time": 5405, "pitch": 75, "duration": 10, "velocity": 98}, {"time": 5417, "pitch": 73, "duration": 5, "velocity": 91}, {"time": 5423, "pitch": 72, "duration": 5, "velocity": 88}, {"time": 5429, "pitch": 75, "duration": 10, "velocity": 95}, {"time": 5441, "pitch": 80, "duration": 3, "velocity": 86}, {"time": 5447, "pitch": 80, "duration": 3, "velocity": 90}, {"time": 5453, "pitch": 75, "duration": 11, "velocity": 91}, {"time": 5465, "pitch": 73, "duration": 12, "velocity": 85}, {"time": 5477, "pitch": 68, "duration": 2, "velocity": 76}, {"time": 5483, "pitch": 80, "duration": 4, "velocity": 86}, {"time": 5489, "pitch": 80, "duration": 5, "velocity": 88}, {"time": 5495, "pitch": 80, "duration": 4, "velocity": 85}, {"time": 5501, "pitch": 80, "duration": 4, "velocity": 85}, {"time": 5507, "pitch": 80, "duration": 11, "velocity": 88}, {"time": 5519, "pitch": 78, "duration": 4, "velocity": 85}, {"time": 5525, "pitch": 78, "duration": 12, "velocity": 89}, {"time": 5543, "pitch": 73, "duration": 5, "velocity": 91}, {"time": 5549, "pitch": 75, "duration": 5, "velocity": 86}, {"time": 5555, "pitch": 77, "duration": 16, "velocity": 88}, {"time": 5573, "pitch": 78, "duration": 4, "velocity": 90}, {"time": 5579, "pitch": 77, "duration": 6, "velocity": 91}, {"time": 5585, "pitch": 75, "duration": 4, "velocity": 86}, {"time": 5591, "pitch": 73, "duration": 4, "velocity": 88}, {"time": 5597, "pitch": 75, "duration": 11, "velocity": 85}, {"time": 5609, "pitch": 73, "duration": 42, "velocity": 88}]}, {"program": 0, "is_drum": false, "name": "PIANO", "notes": [{"time": 35, "pitch": 49, "duration": 40, "velocity": 84}, {"time": 35, "pitch": 56, "duration": 8, "velocity": 78}, {"time": 35, "pitch": 61, "duration": 14, "velocity": 77}, {"time": 47, "pitch": 56, "duration": 7, "velocity": 81}, {"time": 59, "pitch": 56, "duration": 6, "velocity": 84}, {"time": 59, "pitch": 63, "duration": 14, "velocity": 79}, {"time": 71, "pitch": 56, "duration": 7, "velocity": 74}, {"time": 83, "pitch": 49, "duration": 29, "velocity": 79}, {"time": 83, "pitch": 56, "duration": 6, "velocity": 78}, {"time": 83, "pitch": 61, "duration": 8, "velocity": 75}, {"time": 83, "pitch": 65, "duration": 8, "velocity": 81}, {"time": 107, "pitch": 56, "duration": 4, "velocity": 82}, {"time": 107, "pitch": 61, "duration": 10, "velocity": 85}, {"time": 107, "pitch": 65, "duration": 12, "velocity": 86}, {"time": 119, "pitch": 56, "duration": 3, "velocity": 80}, {"time": 131, "pitch": 39, "duration": 55, "velocity": 86}, {"time": 131, "pitch": 58, "duration": 9, "velocity": 81}, {"time": 131, "pitch": 63, "duration": 14, "velocity": 80}, {"time": 143, "pitch": 46, "duration": 41, "velocity": 64}, {"time": 155, "pitch": 58, "duration": 3, "velocity": 77}, {"time": 155, "pitch": 63, "duration": 3, "velocity": 77}, {"time": 155, "pitch": 67, "duration": 4, "velocity": 73}, {"time": 167, "pitch": 58, "duration": 6, "velocity": 64}, {"time": 179, "pitch": 58, "duration": 3, "velocity": 80}, {"time": 179, "pitch": 63, "duration": 4, "velocity": 85}, {"time": 191, "pitch": 58, "duration": 5, "velocity": 69}, {"time": 203, "pitch": 58, "duration": 13, "velocity": 82}, {"time": 203, "pitch": 63, "duration": 12, "velocity": 85}, {"time": 203, "pitch": 67, "duration": 12, "velocity": 83}, {"time": 215, "pitch": 39, "duration": 2, "velocity": 88}, {"time": 227, "pitch": 42, "duration": 44, "velocity": 83}, {"time": 227, "pitch": 54, "duration": 10, "velocity": 79}, {"time": 227, "pitch": 57, "duration": 11, "velocity": 74}, {"time": 227, "pitch": 61, "duration": 10, "velocity": 80}, {"time": 239, "pitch": 49, "duration": 32, "velocity": 62}, {"time": 251, "pitch": 54, "duration": 3, "velocity": 78}, {"time": 251, "pitch": 57, "duration": 7, "velocity": 84}, {"time": 251, "pitch": 61, "duration": 10, "velocity": 82}, {"time": 263, "pitch": 54, "duration": 14, "velocity": 82}, {"time": 275, "pitch": 42, "duration": 30, "velocity": 84}, {"time": 275, "pitch": 57, "duration": 13, "velocity": 70}, {"time": 275, "pitch": 63, "duration": 16, "velocity": 80}, {"time": 287, "pitch": 54, "duration": 9, "velocity": 74}, {"time": 299, "pitch": 57, "duration": 9, "velocity": 77}, {"time": 299, "pitch": 61, "duration": 12, "velocity": 81}, {"time": 311, "pitch": 54, "duration": 2, "velocity": 80}, {"time": 323, "pitch": 37, "duration": 3, "velocity": 80}, {"time": 323, "pitch": 56, "duration": 5, "velocity": 77}, {"time": 323, "pitch": 61, "duration": 16, "velocity": 77}, {"time": 323, "pitch": 65, "duration": 9, "velocity": 85}, {"time": 335, "pitch": 56, "duration": 6, "velocity": 63}, {"time": 347, "pitch": 61, "duration": 3, "velocity": 77}, {"time": 347, "pitch": 65, "duration": 3, "velocity": 80}, {"time": 359, "pitch": 56, "duration": 13, "velocity": 78}, {"time": 371, "pitch": 49, "duration": 27, "velocity": 81}, {"time": 371, "pitch": 61, "duration": 14, "velocity": 76}, {"time": 371, "pitch": 65, "duration": 8, "velocity": 84}, {"time": 383, "pitch": 56, "duration": 5, "velocity": 68}, {"time": 395, "pitch": 56, "duration": 3, "velocity": 84}, {"time": 395, "pitch": 61, "duration": 4, "velocity": 84}, {"time": 395, "pitch": 65, "duration": 4, "velocity": 85}, {"time": 419, "pitch": 37, "duration": 2, "velocity": 79}, {"time": 419, "pitch": 56, "duration": 6, "velocity": 81}, {"time": 419, "pitch": 65, "duration": 13, "velocity": 85}, {"time": 431, "pitch": 56, "duration": 7, "velocity": 85}, {"time": 443, "pitch": 49, "duration": 16, "velocity": 82}, {"time": 443, "pitch": 56, "duration": 5, "velocity": 80}, {"time": 443, "pitch": 63, "duration": 12, "velocity": 78}, {"time": 455, "pitch": 56, "duration": 7, "velocity": 81}, {"time": 467, "pitch": 49, "duration": 31, "velocity": 85}, {"time": 467, "pitch": 61, "duration": 12, "velocity": 79}, {"time": 467, "pitch": 65, "duration": 13, "velocity": 84}, {"time": 479, "pitch": 56, "duration": 14, "velocity": 85}, {"time": 491, "pitch": 61, "duration": 12, "velocity": 85}, {"time": 491, "pitch": 65, "duration": 12, "velocity": 85}, {"time": 503, "pitch": 56, "duration": 2, "velocity": 89}, {"time": 515, "pitch": 39, "duration": 23, "velocity": 86}, {"time": 515, "pitch": 58, "duration": 6, "velocity": 74}, {"time": 515, "pitch": 63, "duration": 10, "velocity": 77}, {"time": 515, "pitch": 67, "duration": 12, "velocity": 73}, {"time": 527, "pitch": 58, "duration": 5, "velocity": 77}, {"time": 539, "pitch": 58, "duration": 3, "velocity": 77}, {"time": 539, "pitch": 63, "duration": 3, "velocity": 79}, {"time": 539, "pitch": 67, "duration": 5, "velocity": 75}, {"time": 551, "pitch": 58, "duration": 14, "velocity": 84}, {"time": 563, "pitch": 51, "duration": 12, "velocity": 84}, {"time": 563, "pitch": 63, "duration": 13, "velocity": 79}, {"time": 563, "pitch": 67, "duration": 13, "velocity": 74}, {"time": 575, "pitch": 58, "duration": 8, "velocity": 84}, {"time": 587, "pitch": 63, "duration": 16, "velocity": 84}, {"time": 587, "pitch": 67, "duration": 16, "velocity": 82}, {"time": 599, "pitch": 58, "duration": 8, "velocity": 72}, {"time": 611, "pitch": 42, "duration": 31, "velocity": 84}, {"time": 611, "pitch": 54, "duration": 6, "velocity": 59}, {"time": 611, "pitch": 57, "duration": 14, "velocity": 65}, {"time": 611, "pitch": 61, "duration": 15, "velocity": 69}, {"time": 623, "pitch": 54, "duration": 5, "velocity": 78}, {"time": 635, "pitch": 54, "duration": 4, "velocity": 82}, {"time": 635, "pitch": 57, "duration": 9, "velocity": 87}, {"time": 635, "pitch": 61, "duration": 10, "velocity": 84}, {"time": 647, "pitch": 54, "duration": 10, "velocity": 84}, {"time": 659, "pitch": 42, "duration": 30, "velocity": 84}, {"time": 659, "pitch": 54, "duration": 17, "velocity": 82}, {"time": 659, "pitch": 61, "duration": 18, "velocity": 81}, {"time": 671, "pitch": 49, "duration": 15, "velocity": 76}, {"time": 683, "pitch": 54, "duration": 6, "velocity": 80}, {"time": 683, "pitch": 61, "duration": 7, "velocity": 81}, {"time": 683, "pitch": 66, "duration": 8, "velocity": 80}, {"time": 695, "pitch": 42, "duration": 2, "velocity": 83}, {"time": 707, "pitch": 37, "duration": 2, "velocity": 82}, {"time": 707, "pitch": 56, "duration": 5, "velocity": 78}, {"time": 707, "pitch": 65, "duration": 12, "velocity": 85}, {"time": 719, "pitch": 56, "duration": 5, "velocity": 83}, {"time": 731, "pitch": 56, "duration": 4, "velocity": 78}, {"time": 731, "pitch": 65, "duration": 11, "velocity": 84}, {"time": 743, "pitch": 56, "duration": 13, "velocity": 82}, {"time": 755, "pitch": 49, "duration": 39, "velocity": 74}, {"time": 755, "pitch": 61, "duration": 13, "velocity": 75}, {"time": 755, "pitch": 65, "duration": 13, "velocity": 84}, {"time": 779, "pitch": 61, "duration": 22, "velocity": 73}, {"time": 779, "pitch": 65, "duration": 22, "velocity": 78}, {"time": 791, "pitch": 56, "duration": 11, "velocity": 72}, {"time": 803, "pitch": 49, "duration": 41, "velocity": 84}, {"time": 803, "pitch": 56, "duration": 7, "velocity": 77}, {"time": 803, "pitch": 61, "duration": 14, "velocity": 77}, {"time": 815, "pitch": 56, "duration": 13, "velocity": 80}, {"time": 827, "pitch": 61, "duration": 3, "velocity": 81}, {"time": 827, "pitch": 65, "duration": 2, "velocity": 86}, {"time": 839, "pitch": 56, "duration": 3, "velocity": 80}, {"time": 851, "pitch": 51, "duration": 34, "velocity": 84}, {"time": 851, "pitch": 58, "duration": 6, "velocity": 74}, {"time": 851, "pitch": 63, "duration": 13, "velocity": 79}, {"time": 863, "pitch": 58, "duration": 6, "velocity": 78}, {"time": 875, "pitch": 58, "duration": 5, "velocity": 83}, {"time": 875, "pitch": 63, "duration": 12, "velocity": 85}, {"time": 875, "pitch": 67, "duration": 12, "velocity": 84}, {"time": 887, "pitch": 58, "duration": 4, "velocity": 78}, {"time": 899, "pitch": 42, "duration": 36, "velocity": 84}, {"time": 899, "pitch": 58, "duration": 5, "velocity": 74}, {"time": 899, "pitch": 61, "duration": 13, "velocity": 73}, {"time": 899, "pitch": 66, "duration": 12, "velocity": 78}, {"time": 911, "pitch": 58, "duration": 2, "velocity": 57}, {"time": 923, "pitch": 58, "duration": 4, "velocity": 84}, {"time": 923, "pitch": 61, "duration": 6, "velocity": 85}, {"time": 923, "pitch": 66, "duration": 12, "velocity": 83}, {"time": 947, "pitch": 42, "duration": 35, "velocity": 85}, {"time": 947, "pitch": 54, "duration": 16, "velocity": 77}, {"time": 947, "pitch": 61, "duration": 16, "velocity": 79}, {"time": 959, "pitch": 57, "duration": 4, "velocity": 73}, {"time": 971, "pitch": 54, "duration": 3, "velocity": 82}, {"time": 971, "pitch": 57, "duration": 9, "velocity": 86}, {"time": 971, "pitch": 61, "duration": 14, "velocity": 85}, {"time": 983, "pitch": 54, "duration": 5, "velocity": 81}, {"time": 995, "pitch": 41, "duration": 28, "velocity": 85}, {"time": 995, "pitch": 60, "duration": 13, "velocity": 80}, {"time": 995, "pitch": 65, "duration": 13, "velocity": 84}, {"time": 1007, "pitch": 56, "duration": 6, "velocity": 73}, {"time": 1019, "pitch": 56, "duration": 11, "velocity": 85}, {"time": 1019, "pitch": 60, "duration": 12, "velocity": 88}, {"time": 1019, "pitch": 65, "duration": 15, "velocity": 85}, {"time": 1031, "pitch": 41, "duration": 2, "velocity": 85}, {"time": 1043, "pitch": 46, "duration": 34, "velocity": 83}, {"time": 1043, "pitch": 58, "duration": 7, "velocity": 76}, {"time": 1043, "pitch": 61, "duration": 9, "velocity": 77}, {"time": 1043, "pitch": 65, "duration": 9, "velocity": 83}, {"time": 1055, "pitch": 53, "duration": 16, "velocity": 77}, {"time": 1055, "pitch": 58, "duration": 7, "velocity": 79}, {"time": 1067, "pitch": 58, "duration": 5, "velocity": 82}, {"time": 1067, "pitch": 61, "duration": 9, "velocity": 84}, {"time": 1067, "pitch": 65, "duration": 9, "velocity": 84}, {"time": 1079, "pitch": 58, "duration": 13, "velocity": 82}, {"time": 1091, "pitch": 39, "duration": 28, "velocity": 85}, {"time": 1091, "pitch": 63, "duration": 9, "velocity": 75}, {"time": 1091, "pitch": 66, "duration": 13, "velocity": 81}, {"time": 1103, "pitch": 58, "duration": 3, "velocity": 74}, {"time": 1115, "pitch": 58, "duration": 4, "velocity": 81}, {"time": 1115, "pitch": 63, "duration": 8, "velocity": 86}, {"time": 1115, "pitch": 66, "duration": 13, "velocity": 84}, {"time": 1127, "pitch": 58, "duration": 3, "velocity": 84}, {"time": 1139, "pitch": 44, "duration": 45, "velocity": 84}, {"time": 1139, "pitch": 56, "duration": 9, "velocity": 79}, {"time": 1139, "pitch": 63, "duration": 12, "velocity": 79}, {"time": 1151, "pitch": 51, "duration": 33, "velocity": 78}, {"time": 1163, "pitch": 56, "duration": 5, "velocity": 84}, {"time": 1163, "pitch": 60, "duration": 21, "velocity": 86}, {"time": 1163, "pitch": 63, "duration": 21, "velocity": 84}, {"time": 1175, "pitch": 56, "duration": 10, "velocity": 86}, {"time": 1187, "pitch": 49, "duration": 41, "velocity": 84}, {"time": 1187, "pitch": 56, "duration": 7, "velocity": 77}, {"time": 1187, "pitch": 61, "duration": 14, "velocity": 77}, {"time": 1199, "pitch": 56, "duration": 13, "velocity": 80}, {"time": 1211, "pitch": 61, "duration": 3, "velocity": 81}, {"time": 1211, "pitch": 65, "duration": 2, "velocity": 86}, {"time": 1223, "pitch": 56, "duration": 3, "velocity": 80}, {"time": 1235, "pitch": 51, "duration": 34, "velocity": 84}, {"time": 1235, "pitch": 58, "duration": 6, "velocity": 74}, {"time": 1235, "pitch": 63, "duration": 13, "velocity": 79}, {"time": 1247, "pitch": 58, "duration": 6, "velocity": 78}, {"time": 1259, "pitch": 58, "duration": 5, "velocity": 83}, {"time": 1259, "pitch": 63, "duration": 12, "velocity": 85}, {"time": 1259, "pitch": 67, "duration": 12, "velocity": 84}, {"time": 1271, "pitch": 58, "duration": 4, "velocity": 78}, {"time": 1283, "pitch": 42, "duration": 36, "velocity": 84}, {"time": 1283, "pitch": 58, "duration": 5, "velocity": 74}, {"time": 1283, "pitch": 61, "duration": 13, "velocity": 73}, {"time": 1283, "pitch": 66, "duration": 12, "velocity": 78}, {"time": 1295, "pitch": 58, "duration": 2, "velocity": 57}, {"time": 1307, "pitch": 58, "duration": 4, "velocity": 84}, {"time": 1307, "pitch": 61, "duration": 6, "velocity": 85}, {"time": 1307, "pitch": 66, "duration": 12, "velocity": 83}, {"time": 1331, "pitch": 42, "duration": 35, "velocity": 85}, {"time": 1331, "pitch": 54, "duration": 16, "velocity": 77}, {"time": 1331, "pitch": 61, "duration": 16, "velocity": 79}, {"time": 1343, "pitch": 57, "duration": 4, "velocity": 73}, {"time": 1355, "pitch": 54, "duration": 3, "velocity": 82}, {"time": 1355, "pitch": 57, "duration": 9, "velocity": 86}, {"time": 1355, "pitch": 61, "duration": 14, "velocity": 85}, {"time": 1367, "pitch": 54, "duration": 5, "velocity": 81}, {"time": 1379, "pitch": 41, "duration": 28, "velocity": 85}, {"time": 1379, "pitch": 60, "duration": 13, "velocity": 80}, {"time": 1379, "pitch": 65, "duration": 13, "velocity": 84}, {"time": 1391, "pitch": 56, "duration": 6, "velocity": 73}, {"time": 1403, "pitch": 56, "duration": 11, "velocity": 85}, {"time": 1403, "pitch": 60, "duration": 12, "velocity": 88}, {"time": 1403, "pitch": 65, "duration": 15, "velocity": 85}, {"time": 1415, "pitch": 41, "duration": 2, "velocity": 85}, {"time": 1427, "pitch": 46, "duration": 34, "velocity": 83}, {"time": 1427, "pitch": 58, "duration": 7, "velocity": 76}, {"time": 1427, "pitch": 61, "duration": 9, "velocity": 77}, {"time": 1427, "pitch": 65, "duration": 9, "velocity": 83}, {"time": 1439, "pitch": 53, "duration": 16, "velocity": 77}, {"time": 1439, "pitch": 58, "duration": 7, "velocity": 79}, {"time": 1451, "pitch": 58, "duration": 5, "velocity": 82}, {"time": 1451, "pitch": 61, "duration": 9, "velocity": 84}, {"time": 1451, "pitch": 65, "duration": 9, "velocity": 84}, {"time": 1463, "pitch": 58, "duration": 13, "velocity": 82}, {"time": 1475, "pitch": 39, "duration": 28, "velocity": 85}, {"time": 1475, "pitch": 63, "duration": 9, "velocity": 75}, {"time": 1475, "pitch": 66, "duration": 13, "velocity": 81}, {"time": 1487, "pitch": 58, "duration": 3, "velocity": 74}, {"time": 1499, "pitch": 58, "duration": 4, "velocity": 81}, {"time": 1499, "pitch": 63, "duration": 8, "velocity": 86}, {"time": 1499, "pitch": 66, "duration": 13, "velocity": 84}, {"time": 1511, "pitch": 58, "duration": 3, "velocity": 84}, {"time": 1523, "pitch": 44, "duration": 14, "velocity": 85}, {"time": 1523, "pitch": 56, "duration": 11, "velocity": 80}, {"time": 1523, "pitch": 63, "duration": 13, "velocity": 80}, {"time": 1535, "pitch": 51, "duration": 4, "velocity": 85}, {"time": 1547, "pitch": 45, "duration": 11, "velocity": 85}, {"time": 1547, "pitch": 57, "duration": 6, "velocity": 77}, {"time": 1547, "pitch": 60, "duration": 11, "velocity": 85}, {"time": 1547, "pitch": 63, "duration": 11, "velocity": 84}, {"time": 1559, "pitch": 57, "duration": 3, "velocity": 85}, {"time": 1571, "pitch": 46, "duration": 37, "velocity": 85}, {"time": 1571, "pitch": 58, "duration": 16, "velocity": 78}, {"time": 1571, "pitch": 61, "duration": 16, "velocity": 81}, {"time": 1571, "pitch": 65, "duration": 16, "velocity": 83}, {"time": 1583, "pitch": 53, "duration": 24, "velocity": 73}, {"time": 1595, "pitch": 58, "duration": 4, "velocity": 85}, {"time": 1595, "pitch": 61, "duration": 11, "velocity": 91}, {"time": 1595, "pitch": 65, "duration": 13, "velocity": 88}, {"time": 1607, "pitch": 58, "duration": 3, "velocity": 90}, {"time": 1619, "pitch": 44, "duration": 45, "velocity": 85}, {"time": 1619, "pitch": 56, "duration": 14, "velocity": 82}, {"time": 1619, "pitch": 63, "duration": 13, "velocity": 84}, {"time": 1631, "pitch": 51, "duration": 14, "velocity": 79}, {"time": 1643, "pitch": 56, "duration": 8, "velocity": 86}, {"time": 1643, "pitch": 68, "duration": 10, "velocity": 82}, {"time": 1649, "pitch": 51, "duration": 15, "velocity": 70}, {"time": 1655, "pitch": 63, "duration": 8, "velocity": 84}, {"time": 1667, "pitch": 42, "duration": 42, "velocity": 84}, {"time": 1667, "pitch": 54, "duration": 15, "velocity": 82}, {"time": 1667, "pitch": 58, "duration": 11, "velocity": 80}, {"time": 1679, "pitch": 49, "duration": 13, "velocity": 73}, {"time": 1691, "pitch": 58, "duration": 8, "velocity": 86}, {"time": 1691, "pitch": 61, "duration": 13, "velocity": 85}, {"time": 1697, "pitch": 49, "duration": 11, "velocity": 77}, {"time": 1703, "pitch": 54, "duration": 6, "velocity": 86}, {"time": 1715, "pitch": 41, "duration": 31, "velocity": 86}, {"time": 1715, "pitch": 53, "duration": 14, "velocity": 81}, {"time": 1715, "pitch": 56, "duration": 14, "velocity": 78}, {"time": 1727, "pitch": 60, "duration": 7, "velocity": 76}, {"time": 1739, "pitch": 53, "duration": 6, "velocity": 87}, {"time": 1739, "pitch": 56, "duration": 8, "velocity": 86}, {"time": 1739, "pitch": 60, "duration": 11, "velocity": 86}, {"time": 1739, "pitch": 65, "duration": 10, "velocity": 86}, {"time": 1745, "pitch": 48, "duration": 3, "velocity": 80}, {"time": 1751, "pitch": 53, "duration": 3, "velocity": 95}, {"time": 1763, "pitch": 39, "duration": 2, "velocity": 86}, {"time": 1763, "pitch": 58, "duration": 3, "velocity": 80}, {"time": 1763, "pitch": 66, "duration": 10, "velocity": 84}, {"time": 1769, "pitch": 58, "duration": 1, "velocity": 68}, {"time": 1775, "pitch": 63, "duration": 5, "velocity": 76}, {"time": 1787, "pitch": 51, "duration": 41, "velocity": 88}, {"time": 1787, "pitch": 58, "duration": 2, "velocity": 84}, {"time": 1787, "pitch": 66, "duration": 8, "velocity": 82}, {"time": 1793, "pitch": 58, "duration": 2, "velocity": 76}, {"time": 1799, "pitch": 63, "duration": 4, "velocity": 84}, {"time": 1811, "pitch": 58, "duration": 4, "velocity": 86}, {"time": 1811, "pitch": 66, "duration": 7, "velocity": 84}, {"time": 1823, "pitch": 63, "duration": 5, "velocity": 74}, {"time": 1829, "pitch": 58, "duration": 2, "velocity": 78}, {"time": 1835, "pitch": 51, "duration": 7, "velocity": 91}, {"time": 1835, "pitch": 58, "duration": 3, "velocity": 84}, {"time": 1835, "pitch": 66, "duration": 8, "velocity": 85}, {"time": 1841, "pitch": 58, "duration": 2, "velocity": 84}, {"time": 1847, "pitch": 63, "duration": 5, "velocity": 84}, {"time": 1853, "pitch": 58, "duration": 3, "velocity": 72}, {"time": 1859, "pitch": 44, "duration": 43, "velocity": 84}, {"time": 1859, "pitch": 56, "duration": 7, "velocity": 80}, {"time": 1859, "pitch": 63, "duration": 8, "velocity": 79}, {"time": 1865, "pitch": 51, "duration": 37, "velocity": 78}, {"time": 1871, "pitch": 60, "duration": 4, "velocity": 85}, {"time": 1883, "pitch": 56, "duration": 4, "velocity": 84}, {"time": 1883, "pitch": 63, "duration": 6, "velocity": 85}, {"time": 1889, "pitch": 56, "duration": 4, "velocity": 84}, {"time": 1895, "pitch": 60, "duration": 3, "velocity": 86}, {"time": 1901, "pitch": 56, "duration": 3, "velocity": 88}, {"time": 1907, "pitch": 44, "duration": 21, "velocity": 87}, {"time": 1907, "pitch": 56, "duration": 1, "velocity": 77}, {"time": 1907, "pitch": 60, "duration": 7, "velocity": 88}, {"time": 1907, "pitch": 63, "duration": 8, "velocity": 86}, {"time": 1907, "pitch": 68, "duration": 8, "velocity": 84}, {"time": 1919, "pitch": 51, "duration": 9, "velocity": 71}, {"time": 1925, "pitch": 56, "duration": 3, "velocity": 85}, {"time": 1931, "pitch": 44, "duration": 21, "velocity": 89}, {"time": 1931, "pitch": 56, "duration": 7, "velocity": 86}, {"time": 1931, "pitch": 60, "duration": 6, "velocity": 93}, {"time": 1931, "pitch": 63, "duration": 7, "velocity": 87}, {"time": 1937, "pitch": 51, "duration": 15, "velocity": 86}, {"time": 1943, "pitch": 56, "duration": 7, "velocity": 91}, {"time": 1955, "pitch": 42, "duration": 18, "velocity": 85}, {"time": 1955, "pitch": 58, "duration": 3, "velocity": 80}, {"time": 1955, "pitch": 66, "duration": 9, "velocity": 84}, {"time": 1961, "pitch": 58, "duration": 3, "velocity": 76}, {"time": 1967, "pitch": 61, "duration": 4, "velocity": 84}, {"time": 1973, "pitch": 58, "duration": 3, "velocity": 80}, {"time": 1979, "pitch": 42, "duration": 3, "velocity": 85}, {"time": 1979, "pitch": 58, "duration": 3, "velocity": 85}, {"time": 1979, "pitch": 66, "duration": 8, "velocity": 85}, {"time": 1985, "pitch": 58, "duration": 4, "velocity": 72}, {"time": 1991, "pitch": 61, "duration": 6, "velocity": 90}, {"time": 1997, "pitch": 58, "duration": 3, "velocity": 80}, {"time": 2003, "pitch": 44, "duration": 18, "velocity": 85}, {"time": 2003, "pitch": 56, "duration": 3, "velocity": 84}, {"time": 2003, "pitch": 60, "duration": 5, "velocity": 85}, {"time": 2009, "pitch": 56, "duration": 2, "velocity": 82}, {"time": 2015, "pitch": 63, "duration": 7, "velocity": 81}, {"time": 2021, "pitch": 56, "duration": 4, "velocity": 83}, {"time": 2027, "pitch": 44, "duration": 13, "velocity": 82}, {"time": 2027, "pitch": 51, "duration": 12, "velocity": 83}, {"time": 2027, "pitch": 56, "duration": 1, "velocity": 79}, {"time": 2027, "pitch": 60, "duration": 6, "velocity": 95}, {"time": 2027, "pitch": 63, "duration": 7, "velocity": 85}, {"time": 2027, "pitch": 68, "duration": 5, "velocity": 80}, {"time": 2033, "pitch": 56, "duration": 2, "velocity": 79}, {"time": 2039, "pitch": 60, "duration": 3, "velocity": 85}, {"time": 2039, "pitch": 63, "duration": 3, "velocity": 82}, {"time": 2045, "pitch": 56, "duration": 2, "velocity": 85}, {"time": 2051, "pitch": 41, "duration": 21, "velocity": 87}, {"time": 2051, "pitch": 53, "duration": 4, "velocity": 79}, {"time": 2051, "pitch": 56, "duration": 7, "velocity": 78}, {"time": 2057, "pitch": 53, "duration": 4, "velocity": 84}, {"time": 2063, "pitch": 60, "duration": 7, "velocity": 80}, {"time": 2069, "pitch": 56, "duration": 2, "velocity": 84}, {"time": 2075, "pitch": 41, "duration": 12, "velocity": 88}, {"time": 2075, "pitch": 53, "duration": 4, "velocity": 90}, {"time": 2075, "pitch": 65, "duration": 7, "velocity": 85}, {"time": 2081, "pitch": 60, "duration": 7, "velocity": 77}, {"time": 2087, "pitch": 53, "duration": 7, "velocity": 86}, {"time": 2093, "pitch": 56, "duration": 3, "velocity": 85}, {"time": 2099, "pitch": 46, "duration": 26, "velocity": 84}, {"time": 2099, "pitch": 58, "duration": 6, "velocity": 78}, {"time": 2099, "pitch": 61, "duration": 6, "velocity": 86}, {"time": 2105, "pitch": 53, "duration": 19, "velocity": 76}, {"time": 2111, "pitch": 58, "duration": 5, "velocity": 76}, {"time": 2123, "pitch": 58, "duration": 6, "velocity": 84}, {"time": 2123, "pitch": 61, "duration": 6, "velocity": 89}, {"time": 2123, "pitch": 65, "duration": 6, "velocity": 91}, {"time": 2129, "pitch": 53, "duration": 4, "velocity": 85}, {"time": 2135, "pitch": 58, "duration": 8, "velocity": 88}, {"time": 2141, "pitch": 61, "duration": 4, "velocity": 85}, {"time": 2147, "pitch": 39, "duration": 23, "velocity": 86}, {"time": 2147, "pitch": 58, "duration": 4, "velocity": 80}, {"time": 2147, "pitch": 63, "duration": 7, "velocity": 83}, {"time": 2153, "pitch": 58, "duration": 2, "velocity": 71}, {"time": 2159, "pitch": 63, "duration": 7, "velocity": 83}, {"time": 2165, "pitch": 58, "duration": 3, "velocity": 78}, {"time": 2171, "pitch": 46, "duration": 4, "velocity": 84}, {"time": 2171, "pitch": 58, "duration": 3, "velocity": 86}, {"time": 2171, "pitch": 66, "duration": 6, "velocity": 84}, {"time": 2177, "pitch": 58, "duration": 2, "velocity": 84}, {"time": 2183, "pitch": 63, "duration": 5, "velocity": 86}, {"time": 2189, "pitch": 58, "duration": 3, "velocity": 79}, {"time": 2195, "pitch": 44, "duration": 15, "velocity": 85}, {"time": 2195, "pitch": 56, "duration": 4, "velocity": 84}, {"time": 2195, "pitch": 60, "duration": 5, "velocity": 82}, {"time": 2201, "pitch": 56, "duration": 3, "velocity": 83}, {"time": 2207, "pitch": 63, "duration": 3, "velocity": 84}, {"time": 2213, "pitch": 56, "duration": 3, "velocity": 84}, {"time": 2219, "pitch": 51, "duration": 9, "velocity": 79}, {"time": 2219, "pitch": 56, "duration": 3, "velocity": 86}, {"time": 2219, "pitch": 68, "duration": 8, "velocity": 83}, {"time": 2225, "pitch": 56, "duration": 3, "velocity": 85}, {"time": 2231, "pitch": 63, "duration": 6, "velocity": 86}, {"time": 2237, "pitch": 56, "duration": 2, "velocity": 86}, {"time": 2243, "pitch": 49, "duration": 32, "velocity": 90}, {"time": 2243, "pitch": 56, "duration": 2, "velocity": 85}, {"time": 2243, "pitch": 61, "duration": 6, "velocity": 85}, {"time": 2249, "pitch": 56, "duration": 3, "velocity": 78}, {"time": 2255, "pitch": 61, "duration": 7, "velocity": 81}, {"time": 2261, "pitch": 56, "duration": 3, "velocity": 77}, {"time": 2267, "pitch": 56, "duration": 2, "velocity": 86}, {"time": 2267, "pitch": 65, "duration": 8, "velocity": 95}, {"time": 2273, "pitch": 56, "duration": 4, "velocity": 83}, {"time": 2279, "pitch": 61, "duration": 4, "velocity": 84}, {"time": 2285, "pitch": 56, "duration": 3, "velocity": 82}, {"time": 2291, "pitch": 49, "duration": 19, "velocity": 93}, {"time": 2291, "pitch": 56, "duration": 3, "velocity": 85}, {"time": 2291, "pitch": 59, "duration": 7, "velocity": 86}, {"time": 2297, "pitch": 56, "duration": 4, "velocity": 76}, {"time": 2303, "pitch": 59, "duration": 3, "velocity": 85}, {"time": 2309, "pitch": 56, "duration": 3, "velocity": 86}, {"time": 2315, "pitch": 49, "duration": 6, "velocity": 95}, {"time": 2315, "pitch": 56, "duration": 3, "velocity": 85}, {"time": 2315, "pitch": 65, "duration": 8, "velocity": 91}, {"time": 2321, "pitch": 56, "duration": 3, "velocity": 76}, {"time": 2327, "pitch": 56, "duration": 2, "velocity": 84}, {"time": 2327, "pitch": 61, "duration": 6, "velocity": 86}, {"time": 2333, "pitch": 56, "duration": 2, "velocity": 75}, {"time": 2339, "pitch": 42, "duration": 22, "velocity": 85}, {"time": 2339, "pitch": 54, "duration": 3, "velocity": 84}, {"time": 2339, "pitch": 58, "duration": 6, "velocity": 82}, {"time": 2345, "pitch": 54, "duration": 3, "velocity": 77}, {"time": 2351, "pitch": 61, "duration": 5, "velocity": 82}, {"time": 2357, "pitch": 54, "duration": 2, "velocity": 82}, {"time": 2363, "pitch": 42, "duration": 3, "velocity": 85}, {"time": 2363, "pitch": 54, "duration": 1, "velocity": 79}, {"time": 2363, "pitch": 58, "duration": 6, "velocity": 87}, {"time": 2363, "pitch": 61, "duration": 7, "velocity": 88}, {"time": 2363, "pitch": 66, "duration": 7, "velocity": 82}, {"time": 2369, "pitch": 54, "duration": 3, "velocity": 78}, {"time": 2375, "pitch": 58, "duration": 5, "velocity": 75}, {"time": 2375, "pitch": 61, "duration": 8, "velocity": 73}, {"time": 2381, "pitch": 54, "duration": 2, "velocity": 83}, {"time": 2387, "pitch": 44, "duration": 35, "velocity": 85}, {"time": 2387, "pitch": 56, "duration": 7, "velocity": 84}, {"time": 2387, "pitch": 60, "duration": 8, "velocity": 84}, {"time": 2393, "pitch": 51, "duration": 21, "velocity": 79}, {"time": 2399, "pitch": 63, "duration": 6, "velocity": 83}, {"time": 2405, "pitch": 56, "duration": 2, "velocity": 85}, {"time": 2411, "pitch": 56, "duration": 3, "velocity": 90}, {"time": 2411, "pitch": 68, "duration": 4, "velocity": 84}, {"time": 2417, "pitch": 51, "duration": 3, "velocity": 80}, {"time": 2423, "pitch": 60, "duration": 3, "velocity": 82}, {"time": 2423, "pitch": 63, "duration": 3, "velocity": 84}, {"time": 2429, "pitch": 56, "duration": 2, "velocity": 82}, {"time": 2435, "pitch": 41, "duration": 35, "velocity": 86}, {"time": 2435, "pitch": 53, "duration": 8, "velocity": 86}, {"time": 2435, "pitch": 56, "duration": 8, "velocity": 84}, {"time": 2441, "pitch": 48, "duration": 21, "velocity": 71}, {"time": 2447, "pitch": 60, "duration": 6, "velocity": 80}, {"time": 2453, "pitch": 56, "duration": 2, "velocity": 82}, {"time": 2459, "pitch": 53, "duration": 3, "velocity": 90}, {"time": 2459, "pitch": 65, "duration": 7, "velocity": 87}, {"time": 2465, "pitch": 48, "duration": 4, "velocity": 76}, {"time": 2471, "pitch": 56, "duration": 3, "velocity": 86}, {"time": 2471, "pitch": 60, "duration": 3, "velocity": 85}, {"time": 2477, "pitch": 53, "duration": 2, "velocity": 91}, {"time": 2483, "pitch": 46, "duration": 31, "velocity": 86}, {"time": 2483, "pitch": 58, "duration": 10, "velocity": 84}, {"time": 2483, "pitch": 61, "duration": 9, "velocity": 84}, {"time": 2489, "pitch": 53, "duration": 9, "velocity": 79}, {"time": 2495, "pitch": 61, "duration": 3, "velocity": 84}, {"time": 2495, "pitch": 65, "duration": 6, "velocity": 85}, {"time": 2501, "pitch": 53, "duration": 7, "velocity": 80}, {"time": 2501, "pitch": 58, "duration": 2, "velocity": 72}, {"time": 2507, "pitch": 58, "duration": 6, "velocity": 87}, {"time": 2507, "pitch": 61, "duration": 7, "velocity": 91}, {"time": 2507, "pitch": 70, "duration": 6, "velocity": 83}, {"time": 2513, "pitch": 53, "duration": 3, "velocity": 86}, {"time": 2519, "pitch": 58, "duration": 2, "velocity": 85}, {"time": 2519, "pitch": 61, "duration": 5, "velocity": 86}, {"time": 2525, "pitch": 58, "duration": 2, "velocity": 75}, {"time": 2531, "pitch": 39, "duration": 21, "velocity": 88}, {"time": 2531, "pitch": 58, "duration": 3, "velocity": 80}, {"time": 2531, "pitch": 66, "duration": 8, "velocity": 85}, {"time": 2537, "pitch": 58, "duration": 3, "velocity": 75}, {"time": 2543, "pitch": 63, "duration": 3, "velocity": 86}, {"time": 2549, "pitch": 58, "duration": 3, "velocity": 82}, {"time": 2555, "pitch": 46, "duration": 4, "velocity": 76}, {"time": 2555, "pitch": 58, "duration": 3, "velocity": 85}, {"time": 2555, "pitch": 66, "duration": 7, "velocity": 87}, {"time": 2561, "pitch": 58, "duration": 3, "velocity": 85}, {"time": 2567, "pitch": 58, "duration": 2, "velocity": 80}, {"time": 2567, "pitch": 63, "duration": 5, "velocity": 90}, {"time": 2573, "pitch": 58, "duration": 2, "velocity": 82}, {"time": 2579, "pitch": 44, "duration": 31, "velocity": 85}, {"time": 2579, "pitch": 56, "duration": 6, "velocity": 84}, {"time": 2579, "pitch": 60, "duration": 7, "velocity": 82}, {"time": 2585, "pitch": 51, "duration": 20, "velocity": 73}, {"time": 2591, "pitch": 63, "duration": 7, "velocity": 81}, {"time": 2597, "pitch": 56, "duration": 2, "velocity": 84}, {"time": 2603, "pitch": 56, "duration": 2, "velocity": 85}, {"time": 2603, "pitch": 60, "duration": 7, "velocity": 95}, {"time": 2603, "pitch": 63, "duration": 7, "velocity": 89}, {"time": 2603, "pitch": 68, "duration": 8, "velocity": 84}, {"time": 2609, "pitch": 51, "duration": 2, "velocity": 84}, {"time": 2615, "pitch": 56, "duration": 4, "velocity": 85}, {"time": 2627, "pitch": 49, "duration": 38, "velocity": 95}, {"time": 2627, "pitch": 56, "duration": 2, "velocity": 84}, {"time": 2627, "pitch": 61, "duration": 6, "velocity": 86}, {"time": 2627, "pitch": 65, "duration": 6, "velocity": 87}, {"time": 2633, "pitch": 56, "duration": 2, "velocity": 74}, {"time": 2639, "pitch": 56, "duration": 2, "velocity": 61}, {"time": 2639, "pitch": 61, "duration": 7, "velocity": 83}, {"time": 2645, "pitch": 56, "duration": 2, "velocity": 75}, {"time": 2651, "pitch": 56, "duration": 2, "velocity": 91}, {"time": 2651, "pitch": 65, "duration": 4, "velocity": 90}, {"time": 2657, "pitch": 56, "duration": 2, "velocity": 85}, {"time": 2663, "pitch": 61, "duration": 2, "velocity": 93}, {"time": 2669, "pitch": 56, "duration": 3, "velocity": 86}, {"time": 2675, "pitch": 49, "duration": 2, "velocity": 93}, {"time": 2675, "pitch": 56, "duration": 2, "velocity": 85}, {"time": 2675, "pitch": 61, "duration": 4, "velocity": 85}, {"time": 2681, "pitch": 56, "duration": 3, "velocity": 84}, {"time": 2687, "pitch": 61, "duration": 4, "velocity": 85}, {"time": 2693, "pitch": 56, "duration": 5, "velocity": 81}, {"time": 2699, "pitch": 37, "duration": 2, "velocity": 85}, {"time": 2699, "pitch": 56, "duration": 1, "velocity": 70}, {"time": 2699, "pitch": 61, "duration": 6, "velocity": 87}, {"time": 2699, "pitch": 65, "duration": 7, "velocity": 87}, {"time": 2705, "pitch": 56, "duration": 7, "velocity": 85}, {"time": 2711, "pitch": 61, "duration": 2, "velocity": 90}, {"time": 2723, "pitch": 39, "duration": 13, "velocity": 89}, {"time": 2723, "pitch": 58, "duration": 3, "velocity": 85}, {"time": 2723, "pitch": 63, "duration": 6, "velocity": 86}, {"time": 2729, "pitch": 58, "duration": 2, "velocity": 73}, {"time": 2735, "pitch": 63, "duration": 4, "velocity": 85}, {"time": 2741, "pitch": 58, "duration": 2, "velocity": 81}, {"time": 2747, "pitch": 58, "duration": 2, "velocity": 88}, {"time": 2747, "pitch": 67, "duration": 7, "velocity": 88}, {"time": 2753, "pitch": 58, "duration": 2, "velocity": 80}, {"time": 2759, "pitch": 63, "duration": 4, "velocity": 85}, {"time": 2765, "pitch": 58, "duration": 4, "velocity": 83}, {"time": 2765, "pitch": 63, "duration": 3, "velocity": 64}, {"time": 2771, "pitch": 39, "duration": 21, "velocity": 88}, {"time": 2771, "pitch": 58, "duration": 3, "velocity": 86}, {"time": 2771, "pitch": 63, "duration": 6, "velocity": 86}, {"time": 2777, "pitch": 58, "duration": 5, "velocity": 77}, {"time": 2783, "pitch": 63, "duration": 2, "velocity": 79}, {"time": 2789, "pitch": 58, "duration": 3, "velocity": 83}, {"time": 2795, "pitch": 58, "duration": 3, "velocity": 89}, {"time": 2795, "pitch": 63, "duration": 6, "velocity": 98}, {"time": 2795, "pitch": 67, "duration": 12, "velocity": 88}, {"time": 2801, "pitch": 58, "duration": 4, "velocity": 77}, {"time": 2807, "pitch": 63, "duration": 5, "velocity": 85}, {"time": 2813, "pitch": 58, "duration": 2, "velocity": 85}, {"time": 2819, "pitch": 42, "duration": 42, "velocity": 88}, {"time": 2819, "pitch": 54, "duration": 9, "velocity": 78}, {"time": 2819, "pitch": 57, "duration": 7, "velocity": 83}, {"time": 2825, "pitch": 49, "duration": 35, "velocity": 78}, {"time": 2831, "pitch": 54, "duration": 7, "velocity": 85}, {"time": 2831, "pitch": 61, "duration": 6, "velocity": 80}, {"time": 2837, "pitch": 57, "duration": 2, "velocity": 86}, {"time": 2843, "pitch": 54, "duration": 3, "velocity": 95}, {"time": 2843, "pitch": 66, "duration": 8, "velocity": 86}, {"time": 2849, "pitch": 54, "duration": 3, "velocity": 82}, {"time": 2855, "pitch": 61, "duration": 3, "velocity": 84}, {"time": 2861, "pitch": 54, "duration": 5, "velocity": 86}, {"time": 2867, "pitch": 42, "duration": 22, "velocity": 86}, {"time": 2867, "pitch": 57, "duration": 7, "velocity": 84}, {"time": 2867, "pitch": 61, "duration": 8, "velocity": 86}, {"time": 2873, "pitch": 49, "duration": 15, "velocity": 77}, {"time": 2879, "pitch": 57, "duration": 5, "velocity": 75}, {"time": 2885, "pitch": 54, "duration": 2, "velocity": 82}, {"time": 2891, "pitch": 42, "duration": 2, "velocity": 85}, {"time": 2891, "pitch": 54, "duration": 2, "velocity": 86}, {"time": 2891, "pitch": 57, "duration": 7, "velocity": 91}, {"time": 2891, "pitch": 61, "duration": 7, "velocity": 90}, {"time": 2891, "pitch": 66, "duration": 9, "velocity": 82}, {"time": 2897, "pitch": 54, "duration": 3, "velocity": 80}, {"time": 2903, "pitch": 57, "duration": 2, "velocity": 86}, {"time": 2915, "pitch": 37, "duration": 2, "velocity": 85}, {"time": 2915, "pitch": 56, "duration": 2, "velocity": 85}, {"time": 2915, "pitch": 65, "duration": 7, "velocity": 86}, {"time": 2921, "pitch": 56, "duration": 3, "velocity": 77}, {"time": 2927, "pitch": 61, "duration": 4, "velocity": 84}, {"time": 2933, "pitch": 56, "duration": 2, "velocity": 82}, {"time": 2939, "pitch": 49, "duration": 13, "velocity": 87}, {"time": 2939, "pitch": 56, "duration": 3, "velocity": 86}, {"time": 2939, "pitch": 65, "duration": 10, "velocity": 86}, {"time": 2945, "pitch": 56, "duration": 5, "velocity": 84}, {"time": 2951, "pitch": 61, "duration": 3, "velocity": 88}, {"time": 2957, "pitch": 56, "duration": 3, "velocity": 85}, {"time": 2961, "pitch": 54, "duration": 46, "velocity": 73}, {"time": 2962, "pitch": 57, "duration": 45, "velocity": 79}, {"time": 2963, "pitch": 42, "duration": 44, "velocity": 85}, {"time": 2963, "pitch": 61, "duration": 44, "velocity": 80}, {"time": 2964, "pitch": 66, "duration": 44, "velocity": 75}, {"time": 3011, "pitch": 49, "duration": 41, "velocity": 84}, {"time": 3011, "pitch": 56, "duration": 7, "velocity": 77}, {"time": 3011, "pitch": 61, "duration": 14, "velocity": 77}, {"time": 3023, "pitch": 56, "duration": 13, "velocity": 80}, {"time": 3035, "pitch": 61, "duration": 3, "velocity": 81}, {"time": 3035, "pitch": 65, "duration": 2, "velocity": 86}, {"time": 3047, "pitch": 56, "duration": 3, "velocity": 80}, {"time": 3059, "pitch": 51, "duration": 34, "velocity": 84}, {"time": 3059, "pitch": 58, "duration": 6, "velocity": 74}, {"time": 3059, "pitch": 63, "duration": 13, "velocity": 79}, {"time": 3071, "pitch": 58, "duration": 6, "velocity": 78}, {"time": 3083, "pitch": 58, "duration": 5, "velocity": 83}, {"time": 3083, "pitch": 63, "duration": 12, "velocity": 85}, {"time": 3083, "pitch": 67, "duration": 12, "velocity": 84}, {"time": 3095, "pitch": 58, "duration": 4, "velocity": 78}, {"time": 3107, "pitch": 42, "duration": 36, "velocity": 84}, {"time": 3107, "pitch": 58, "duration": 5, "velocity": 74}, {"time": 3107, "pitch": 61, "duration": 13, "velocity": 73}, {"time": 3107, "pitch": 66, "duration": 12, "velocity": 78}, {"time": 3119, "pitch": 58, "duration": 2, "velocity": 57}, {"time": 3131, "pitch": 58, "duration": 4, "velocity": 84}, {"time": 3131, "pitch": 61, "duration": 6, "velocity": 85}, {"time": 3131, "pitch": 66, "duration": 12, "velocity": 83}, {"time": 3155, "pitch": 42, "duration": 35, "velocity": 85}, {"time": 3155, "pitch": 54, "duration": 16, "velocity": 77}, {"time": 3155, "pitch": 61, "duration": 16, "velocity": 79}, {"time": 3167, "pitch": 57, "duration": 4, "velocity": 73}, {"time": 3179, "pitch": 54, "duration": 3, "velocity": 82}, {"time": 3179, "pitch": 57, "duration": 9, "velocity": 86}, {"time": 3179, "pitch": 61, "duration": 14, "velocity": 85}, {"time": 3191, "pitch": 54, "duration": 5, "velocity": 81}, {"time": 3203, "pitch": 41, "duration": 28, "velocity": 85}, {"time": 3203, "pitch": 60, "duration": 13, "velocity": 80}, {"time": 3203, "pitch": 65, "duration": 13, "velocity": 84}, {"time": 3215, "pitch": 56, "duration": 6, "velocity": 73}, {"time": 3227, "pitch": 56, "duration": 11, "velocity": 85}, {"time": 3227, "pitch": 60, "duration": 12, "velocity": 88}, {"time": 3227, "pitch": 65, "duration": 15, "velocity": 85}, {"time": 3239, "pitch": 41, "duration": 2, "velocity": 85}, {"time": 3251, "pitch": 46, "duration": 34, "velocity": 83}, {"time": 3251, "pitch": 58, "duration": 7, "velocity": 76}, {"time": 3251, "pitch": 61, "duration": 9, "velocity": 77}, {"time": 3251, "pitch": 65, "duration": 9, "velocity": 83}, {"time": 3263, "pitch": 53, "duration": 16, "velocity": 77}, {"time": 3263, "pitch": 58, "duration": 7, "velocity": 79}, {"time": 3275, "pitch": 58, "duration": 5, "velocity": 82}, {"time": 3275, "pitch": 61, "duration": 9, "velocity": 84}, {"time": 3275, "pitch": 65, "duration": 9, "velocity": 84}, {"time": 3287, "pitch": 58, "duration": 13, "velocity": 82}, {"time": 3299, "pitch": 39, "duration": 28, "velocity": 85}, {"time": 3299, "pitch": 63, "duration": 9, "velocity": 75}, {"time": 3299, "pitch": 66, "duration": 13, "velocity": 81}, {"time": 3311, "pitch": 58, "duration": 3, "velocity": 74}, {"time": 3323, "pitch": 58, "duration": 4, "velocity": 81}, {"time": 3323, "pitch": 63, "duration": 8, "velocity": 86}, {"time": 3323, "pitch": 66, "duration": 13, "velocity": 84}, {"time": 3335, "pitch": 58, "duration": 3, "velocity": 84}, {"time": 3347, "pitch": 44, "duration": 45, "velocity": 84}, {"time": 3347, "pitch": 56, "duration": 9, "velocity": 79}, {"time": 3347, "pitch": 63, "duration": 12, "velocity": 79}, {"time": 3359, "pitch": 51, "duration": 33, "velocity": 78}, {"time": 3371, "pitch": 56, "duration": 5, "velocity": 84}, {"time": 3371, "pitch": 60, "duration": 21, "velocity": 86}, {"time": 3371, "pitch": 63, "duration": 21, "velocity": 84}, {"time": 3383, "pitch": 56, "duration": 10, "velocity": 86}, {"time": 3395, "pitch": 49, "duration": 41, "velocity": 84}, {"time": 3395, "pitch": 56, "duration": 7, "velocity": 77}, {"time": 3395, "pitch": 61, "duration": 14, "velocity": 77}, {"time": 3407, "pitch": 56, "duration": 13, "velocity": 80}, {"time": 3419, "pitch": 61, "duration": 3, "velocity": 81}, {"time": 3419, "pitch": 65, "duration": 2, "velocity": 86}, {"time": 3431, "pitch": 56, "duration": 3, "velocity": 80}, {"time": 3443, "pitch": 51, "duration": 34, "velocity": 84}, {"time": 3443, "pitch": 58, "duration": 6, "velocity": 74}, {"time": 3443, "pitch": 63, "duration": 13, "velocity": 79}, {"time": 3455, "pitch": 58, "duration": 6, "velocity": 78}, {"time": 3467, "pitch": 58, "duration": 5, "velocity": 83}, {"time": 3467, "pitch": 63, "duration": 12, "velocity": 85}, {"time": 3467, "pitch": 67, "duration": 12, "velocity": 84}, {"time": 3479, "pitch": 58, "duration": 4, "velocity": 78}, {"time": 3491, "pitch": 42, "duration": 36, "velocity": 84}, {"time": 3491, "pitch": 58, "duration": 5, "velocity": 74}, {"time": 3491, "pitch": 61, "duration": 13, "velocity": 73}, {"time": 3491, "pitch": 66, "duration": 12, "velocity": 78}, {"time": 3503, "pitch": 58, "duration": 2, "velocity": 57}, {"time": 3515, "pitch": 58, "duration": 4, "velocity": 84}, {"time": 3515, "pitch": 61, "duration": 6, "velocity": 85}, {"time": 3515, "pitch": 66, "duration": 12, "velocity": 83}, {"time": 3539, "pitch": 42, "duration": 35, "velocity": 85}, {"time": 3539, "pitch": 54, "duration": 16, "velocity": 77}, {"time": 3539, "pitch": 61, "duration": 16, "velocity": 79}, {"time": 3551, "pitch": 57, "duration": 4, "velocity": 73}, {"time": 3563, "pitch": 54, "duration": 3, "velocity": 82}, {"time": 3563, "pitch": 57, "duration": 9, "velocity": 86}, {"time": 3563, "pitch": 61, "duration": 14, "velocity": 85}, {"time": 3575, "pitch": 54, "duration": 5, "velocity": 81}, {"time": 3587, "pitch": 41, "duration": 28, "velocity": 85}, {"time": 3587, "pitch": 60, "duration": 13, "velocity": 80}, {"time": 3587, "pitch": 65, "duration": 13, "velocity": 84}, {"time": 3599, "pitch": 56, "duration": 6, "velocity": 73}, {"time": 3611, "pitch": 56, "duration": 11, "velocity": 85}, {"time": 3611, "pitch": 60, "duration": 12, "velocity": 88}, {"time": 3611, "pitch": 65, "duration": 15, "velocity": 85}, {"time": 3623, "pitch": 41, "duration": 2, "velocity": 85}, {"time": 3635, "pitch": 46, "duration": 34, "velocity": 83}, {"time": 3635, "pitch": 58, "duration": 7, "velocity": 76}, {"time": 3635, "pitch": 61, "duration": 9, "velocity": 77}, {"time": 3635, "pitch": 65, "duration": 9, "velocity": 83}, {"time": 3647, "pitch": 53, "duration": 16, "velocity": 77}, {"time": 3647, "pitch": 58, "duration": 7, "velocity": 79}, {"time": 3659, "pitch": 58, "duration": 5, "velocity": 82}, {"time": 3659, "pitch": 61, "duration": 9, "velocity": 84}, {"time": 3659, "pitch": 65, "duration": 9, "velocity": 84}, {"time": 3671, "pitch": 58, "duration": 13, "velocity": 82}, {"time": 3683, "pitch": 39, "duration": 28, "velocity": 85}, {"time": 3683, "pitch": 63, "duration": 9, "velocity": 75}, {"time": 3683, "pitch": 66, "duration": 13, "velocity": 81}, {"time": 3695, "pitch": 58, "duration": 3, "velocity": 74}, {"time": 3707, "pitch": 58, "duration": 4, "velocity": 81}, {"time": 3707, "pitch": 63, "duration": 8, "velocity": 86}, {"time": 3707, "pitch": 66, "duration": 13, "velocity": 84}, {"time": 3719, "pitch": 58, "duration": 3, "velocity": 84}, {"time": 3731, "pitch": 44, "duration": 14, "velocity": 85}, {"time": 3731, "pitch": 56, "duration": 11, "velocity": 80}, {"time": 3731, "pitch": 63, "duration": 13, "velocity": 80}, {"time": 3743, "pitch": 51, "duration": 4, "velocity": 85}, {"time": 3755, "pitch": 45, "duration": 11, "velocity": 85}, {"time": 3755, "pitch": 57, "duration": 6, "velocity": 77}, {"time": 3755, "pitch": 60, "duration": 11, "velocity": 85}, {"time": 3755, "pitch": 63, "duration": 11, "velocity": 84}, {"time": 3767, "pitch": 57, "duration": 3, "velocity": 85}, {"time": 3779, "pitch": 46, "duration": 37, "velocity": 85}, {"time": 3779, "pitch": 58, "duration": 16, "velocity": 78}, {"time": 3779, "pitch": 61, "duration": 16, "velocity": 81}, {"time": 3779, "pitch": 65, "duration": 16, "velocity": 83}, {"time": 3791, "pitch": 53, "duration": 24, "velocity": 73}, {"time": 3803, "pitch": 58, "duration": 4, "velocity": 85}, {"time": 3803, "pitch": 61, "duration": 11, "velocity": 91}, {"time": 3803, "pitch": 65, "duration": 13, "velocity": 88}, {"time": 3815, "pitch": 58, "duration": 3, "velocity": 90}, {"time": 3827, "pitch": 44, "duration": 45, "velocity": 85}, {"time": 3827, "pitch": 56, "duration": 14, "velocity": 82}, {"time": 3827, "pitch": 63, "duration": 13, "velocity": 84}, {"time": 3839, "pitch": 51, "duration": 14, "velocity": 79}, {"time": 3851, "pitch": 56, "duration": 8, "velocity": 86}, {"time": 3851, "pitch": 68, "duration": 10, "velocity": 82}, {"time": 3857, "pitch": 51, "duration": 15, "velocity": 70}, {"time": 3863, "pitch": 63, "duration": 8, "velocity": 84}, {"time": 3875, "pitch": 42, "duration": 42, "velocity": 84}, {"time": 3875, "pitch": 54, "duration": 15, "velocity": 82}, {"time": 3875, "pitch": 58, "duration": 11, "velocity": 80}, {"time": 3887, "pitch": 49, "duration": 13, "velocity": 73}, {"time": 3899, "pitch": 58, "duration": 8, "velocity": 86}, {"time": 3899, "pitch": 61, "duration": 13, "velocity": 85}, {"time": 3905, "pitch": 49, "duration": 11, "velocity": 77}, {"time": 3911, "pitch": 54, "duration": 6, "velocity": 86}, {"time": 3923, "pitch": 41, "duration": 31, "velocity": 86}, {"time": 3923, "pitch": 53, "duration": 14, "velocity": 81}, {"time": 3923, "pitch": 56, "duration": 14, "velocity": 78}, {"time": 3935, "pitch": 60, "duration": 7, "velocity": 76}, {"time": 3947, "pitch": 53, "duration": 6, "velocity": 87}, {"time": 3947, "pitch": 56, "duration": 8, "velocity": 86}, {"time": 3947, "pitch": 60, "duration": 11, "velocity": 86}, {"time": 3947, "pitch": 65, "duration": 10, "velocity": 86}, {"time": 3953, "pitch": 48, "duration": 3, "velocity": 80}, {"time": 3959, "pitch": 53, "duration": 3, "velocity": 95}, {"time": 3971, "pitch": 39, "duration": 2, "velocity": 86}, {"time": 3971, "pitch": 58, "duration": 3, "velocity": 80}, {"time": 3971, "pitch": 66, "duration": 10, "velocity": 84}, {"time": 3977, "pitch": 58, "duration": 1, "velocity": 68}, {"time": 3983, "pitch": 63, "duration": 5, "velocity": 76}, {"time": 3995, "pitch": 51, "duration": 41, "velocity": 88}, {"time": 3995, "pitch": 58, "duration": 2, "velocity": 84}, {"time": 3995, "pitch": 66, "duration": 8, "velocity": 82}, {"time": 4001, "pitch": 58, "duration": 2, "velocity": 76}, {"time": 4007, "pitch": 63, "duration": 4, "velocity": 84}, {"time": 4019, "pitch": 58, "duration": 4, "velocity": 86}, {"time": 4019, "pitch": 66, "duration": 7, "velocity": 84}, {"time": 4031, "pitch": 63, "duration": 5, "velocity": 74}, {"time": 4037, "pitch": 58, "duration": 2, "velocity": 78}, {"time": 4043, "pitch": 51, "duration": 7, "velocity": 91}, {"time": 4043, "pitch": 58, "duration": 3, "velocity": 84}, {"time": 4043, "pitch": 66, "duration": 8, "velocity": 85}, {"time": 4049, "pitch": 58, "duration": 2, "velocity": 84}, {"time": 4055, "pitch": 63, "duration": 5, "velocity": 84}, {"time": 4061, "pitch": 58, "duration": 3, "velocity": 72}, {"time": 4067, "pitch": 44, "duration": 43, "velocity": 84}, {"time": 4067, "pitch": 56, "duration": 7, "velocity": 80}, {"time": 4067, "pitch": 63, "duration": 8, "velocity": 79}, {"time": 4073, "pitch": 51, "duration": 37, "velocity": 78}, {"time": 4079, "pitch": 60, "duration": 4, "velocity": 85}, {"time": 4091, "pitch": 56, "duration": 4, "velocity": 84}, {"time": 4091, "pitch": 63, "duration": 6, "velocity": 85}, {"time": 4097, "pitch": 56, "duration": 4, "velocity": 84}, {"time": 4103, "pitch": 60, "duration": 3, "velocity": 86}, {"time": 4109, "pitch": 56, "duration": 3, "velocity": 88}, {"time": 4115, "pitch": 44, "duration": 21, "velocity": 87}, {"time": 4115, "pitch": 56, "duration": 1, "velocity": 77}, {"time": 4115, "pitch": 60, "duration": 7, "velocity": 88}, {"time": 4115, "pitch": 63, "duration": 8, "velocity": 86}, {"time": 4115, "pitch": 68, "duration": 8, "velocity": 84}, {"time": 4127, "pitch": 51, "duration": 9, "velocity": 71}, {"time": 4133, "pitch": 56, "duration": 3, "velocity": 85}, {"time": 4139, "pitch": 44, "duration": 21, "velocity": 89}, {"time": 4139, "pitch": 56, "duration": 7, "velocity": 86}, {"time": 4139, "pitch": 60, "duration": 6, "velocity": 93}, {"time": 4139, "pitch": 63, "duration": 7, "velocity": 87}, {"time": 4145, "pitch": 51, "duration": 15, "velocity": 86}, {"time": 4151, "pitch": 56, "duration": 7, "velocity": 91}, {"time": 4163, "pitch": 42, "duration": 18, "velocity": 85}, {"time": 4163, "pitch": 58, "duration": 3, "velocity": 80}, {"time": 4163, "pitch": 66, "duration": 9, "velocity": 84}, {"time": 4169, "pitch": 58, "duration": 3, "velocity": 76}, {"time": 4175, "pitch": 61, "duration": 4, "velocity": 84}, {"time": 4181, "pitch": 58, "duration": 3, "velocity": 80}, {"time": 4187, "pitch": 42, "duration": 3, "velocity": 85}, {"time": 4187, "pitch": 58, "duration": 3, "velocity": 85}, {"time": 4187, "pitch": 66, "duration": 8, "velocity": 85}, {"time": 4193, "pitch": 58, "duration": 4, "velocity": 72}, {"time": 4199, "pitch": 61, "duration": 6, "velocity": 90}, {"time": 4205, "pitch": 58, "duration": 3, "velocity": 80}, {"time": 4211, "pitch": 44, "duration": 18, "velocity": 85}, {"time": 4211, "pitch": 56, "duration": 3, "velocity": 84}, {"time": 4211, "pitch": 60, "duration": 5, "velocity": 85}, {"time": 4217, "pitch": 56, "duration": 2, "velocity": 82}, {"time": 4223, "pitch": 63, "duration": 7, "velocity": 81}, {"time": 4229, "pitch": 56, "duration": 4, "velocity": 83}, {"time": 4235, "pitch": 44, "duration": 13, "velocity": 82}, {"time": 4235, "pitch": 51, "duration": 12, "velocity": 83}, {"time": 4235, "pitch": 56, "duration": 1, "velocity": 79}, {"time": 4235, "pitch": 60, "duration": 6, "velocity": 95}, {"time": 4235, "pitch": 63, "duration": 7, "velocity": 85}, {"time": 4235, "pitch": 68, "duration": 5, "velocity": 80}, {"time": 4241, "pitch": 56, "duration": 2, "velocity": 79}, {"time": 4247, "pitch": 60, "duration": 3, "velocity": 85}, {"time": 4247, "pitch": 63, "duration": 3, "velocity": 82}, {"time": 4253, "pitch": 56, "duration": 2, "velocity": 85}, {"time": 4259, "pitch": 41, "duration": 21, "velocity": 87}, {"time": 4259, "pitch": 53, "duration": 4, "velocity": 79}, {"time": 4259, "pitch": 56, "duration": 7, "velocity": 78}, {"time": 4265, "pitch": 53, "duration": 4, "velocity": 84}, {"time": 4271, "pitch": 60, "duration": 7, "velocity": 80}, {"time": 4277, "pitch": 56, "duration": 2, "velocity": 84}, {"time": 4283, "pitch": 41, "duration": 12, "velocity": 88}, {"time": 4283, "pitch": 53, "duration": 4, "velocity": 90}, {"time": 4283, "pitch": 65, "duration": 7, "velocity": 85}, {"time": 4289, "pitch": 60, "duration": 7, "velocity": 77}, {"time": 4295, "pitch": 53, "duration": 7, "velocity": 86}, {"time": 4301, "pitch": 56, "duration": 3, "velocity": 85}, {"time": 4307, "pitch": 46, "duration": 26, "velocity": 84}, {"time": 4307, "pitch": 58, "duration": 6, "velocity": 78}, {"time": 4307, "pitch": 61, "duration": 6, "velocity": 86}, {"time": 4313, "pitch": 53, "duration": 19, "velocity": 76}, {"time": 4319, "pitch": 58, "duration": 5, "velocity": 76}, {"time": 4331, "pitch": 58, "duration": 6, "velocity": 84}, {"time": 4331, "pitch": 61, "duration": 6, "velocity": 89}, {"time": 4331, "pitch": 65, "duration": 6, "velocity": 91}, {"time": 4337, "pitch": 53, "duration": 4, "velocity": 85}, {"time": 4343, "pitch": 58, "duration": 8, "velocity": 88}, {"time": 4349, "pitch": 61, "duration": 4, "velocity": 85}, {"time": 4355, "pitch": 39, "duration": 23, "velocity": 86}, {"time": 4355, "pitch": 58, "duration": 4, "velocity": 80}, {"time": 4355, "pitch": 63, "duration": 7, "velocity": 83}, {"time": 4361, "pitch": 58, "duration": 2, "velocity": 71}, {"time": 4367, "pitch": 63, "duration": 7, "velocity": 83}, {"time": 4373, "pitch": 58, "duration": 3, "velocity": 78}, {"time": 4379, "pitch": 46, "duration": 4, "velocity": 84}, {"time": 4379, "pitch": 58, "duration": 3, "velocity": 86}, {"time": 4379, "pitch": 66, "duration": 6, "velocity": 84}, {"time": 4385, "pitch": 58, "duration": 2, "velocity": 84}, {"time": 4391, "pitch": 63, "duration": 5, "velocity": 86}, {"time": 4397, "pitch": 58, "duration": 3, "velocity": 79}, {"time": 4403, "pitch": 44, "duration": 15, "velocity": 85}, {"time": 4403, "pitch": 56, "duration": 4, "velocity": 84}, {"time": 4403, "pitch": 60, "duration": 5, "velocity": 82}, {"time": 4409, "pitch": 56, "duration": 3, "velocity": 83}, {"time": 4415, "pitch": 63, "duration": 3, "velocity": 84}, {"time": 4421, "pitch": 56, "duration": 3, "velocity": 84}, {"time": 4427, "pitch": 51, "duration": 9, "velocity": 79}, {"time": 4427, "pitch": 56, "duration": 3, "velocity": 86}, {"time": 4427, "pitch": 68, "duration": 8, "velocity": 83}, {"time": 4433, "pitch": 56, "duration": 3, "velocity": 85}, {"time": 4439, "pitch": 63, "duration": 6, "velocity": 86}, {"time": 4445, "pitch": 56, "duration": 2, "velocity": 86}, {"time": 4451, "pitch": 49, "duration": 32, "velocity": 90}, {"time": 4451, "pitch": 56, "duration": 2, "velocity": 85}, {"time": 4451, "pitch": 61, "duration": 6, "velocity": 85}, {"time": 4457, "pitch": 56, "duration": 3, "velocity": 78}, {"time": 4463, "pitch": 61, "duration": 7, "velocity": 81}, {"time": 4469, "pitch": 56, "duration": 3, "velocity": 77}, {"time": 4475, "pitch": 56, "duration": 2, "velocity": 86}, {"time": 4475, "pitch": 65, "duration": 8, "velocity": 95}, {"time": 4481, "pitch": 56, "duration": 4, "velocity": 83}, {"time": 4487, "pitch": 61, "duration": 4, "velocity": 84}, {"time": 4493, "pitch": 56, "duration": 3, "velocity": 82}, {"time": 4499, "pitch": 49, "duration": 19, "velocity": 93}, {"time": 4499, "pitch": 56, "duration": 3, "velocity": 85}, {"time": 4499, "pitch": 59, "duration": 7, "velocity": 86}, {"time": 4505, "pitch": 56, "duration": 4, "velocity": 76}, {"time": 4511, "pitch": 59, "duration": 3, "velocity": 85}, {"time": 4517, "pitch": 56, "duration": 3, "velocity": 86}, {"time": 4523, "pitch": 49, "duration": 6, "velocity": 95}, {"time": 4523, "pitch": 56, "duration": 3, "velocity": 85}, {"time": 4523, "pitch": 65, "duration": 8, "velocity": 91}, {"time": 4529, "pitch": 56, "duration": 3, "velocity": 76}, {"time": 4535, "pitch": 56, "duration": 2, "velocity": 84}, {"time": 4535, "pitch": 61, "duration": 6, "velocity": 86}, {"time": 4541, "pitch": 56, "duration": 2, "velocity": 75}, {"time": 4547, "pitch": 42, "duration": 22, "velocity": 85}, {"time": 4547, "pitch": 54, "duration": 3, "velocity": 84}, {"time": 4547, "pitch": 58, "duration": 6, "velocity": 82}, {"time": 4553, "pitch": 54, "duration": 3, "velocity": 77}, {"time": 4559, "pitch": 61, "duration": 5, "velocity": 82}, {"time": 4565, "pitch": 54, "duration": 2, "velocity": 82}, {"time": 4571, "pitch": 42, "duration": 3, "velocity": 85}, {"time": 4571, "pitch": 54, "duration": 1, "velocity": 79}, {"time": 4571, "pitch": 58, "duration": 6, "velocity": 87}, {"time": 4571, "pitch": 61, "duration": 7, "velocity": 88}, {"time": 4571, "pitch": 66, "duration": 7, "velocity": 82}, {"time": 4577, "pitch": 54, "duration": 3, "velocity": 78}, {"time": 4583, "pitch": 58, "duration": 5, "velocity": 75}, {"time": 4583, "pitch": 61, "duration": 8, "velocity": 73}, {"time": 4589, "pitch": 54, "duration": 2, "velocity": 83}, {"time": 4595, "pitch": 44, "duration": 35, "velocity": 85}, {"time": 4595, "pitch": 56, "duration": 7, "velocity": 84}, {"time": 4595, "pitch": 60, "duration": 8, "velocity": 84}, {"time": 4601, "pitch": 51, "duration": 21, "velocity": 79}, {"time": 4607, "pitch": 63, "duration": 6, "velocity": 83}, {"time": 4613, "pitch": 56, "duration": 2, "velocity": 85}, {"time": 4619, "pitch": 56, "duration": 3, "velocity": 90}, {"time": 4619, "pitch": 68, "duration": 4, "velocity": 84}, {"time": 4625, "pitch": 51, "duration": 3, "velocity": 80}, {"time": 4631, "pitch": 60, "duration": 3, "velocity": 82}, {"time": 4631, "pitch": 63, "duration": 3, "velocity": 84}, {"time": 4637, "pitch": 56, "duration": 2, "velocity": 82}, {"time": 4643, "pitch": 41, "duration": 35, "velocity": 86}, {"time": 4643, "pitch": 53, "duration": 8, "velocity": 86}, {"time": 4643, "pitch": 56, "duration": 8, "velocity": 84}, {"time": 4649, "pitch": 48, "duration": 21, "velocity": 71}, {"time": 4655, "pitch": 60, "duration": 6, "velocity": 80}, {"time": 4661, "pitch": 56, "duration": 2, "velocity": 82}, {"time": 4667, "pitch": 53, "duration": 3, "velocity": 90}, {"time": 4667, "pitch": 65, "duration": 7, "velocity": 87}, {"time": 4673, "pitch": 48, "duration": 4, "velocity": 76}, {"time": 4679, "pitch": 56, "duration": 3, "velocity": 86}, {"time": 4679, "pitch": 60, "duration": 3, "velocity": 85}, {"time": 4685, "pitch": 53, "duration": 2, "velocity": 91}, {"time": 4691, "pitch": 46, "duration": 31, "velocity": 86}, {"time": 4691, "pitch": 58, "duration": 10, "velocity": 84}, {"time": 4691, "pitch": 61, "duration": 9, "velocity": 84}, {"time": 4697, "pitch": 53, "duration": 9, "velocity": 79}, {"time": 4703, "pitch": 61, "duration": 3, "velocity": 84}, {"time": 4703, "pitch": 65, "duration": 6, "velocity": 85}, {"time": 4709, "pitch": 53, "duration": 7, "velocity": 80}, {"time": 4709, "pitch": 58, "duration": 2, "velocity": 72}, {"time": 4715, "pitch": 58, "duration": 6, "velocity": 87}, {"time": 4715, "pitch": 61, "duration": 7, "velocity": 91}, {"time": 4715, "pitch": 70, "duration": 6, "velocity": 83}, {"time": 4721, "pitch": 53, "duration": 3, "velocity": 86}, {"time": 4727, "pitch": 58, "duration": 2, "velocity": 85}, {"time": 4727, "pitch": 61, "duration": 5, "velocity": 86}, {"time": 4733, "pitch": 58, "duration": 2, "velocity": 75}, {"time": 4739, "pitch": 39, "duration": 21, "velocity": 88}, {"time": 4739, "pitch": 58, "duration": 3, "velocity": 80}, {"time": 4739, "pitch": 66, "duration": 8, "velocity": 85}, {"time": 4745, "pitch": 58, "duration": 3, "velocity": 75}, {"time": 4751, "pitch": 63, "duration": 3, "velocity": 86}, {"time": 4757, "pitch": 58, "duration": 3, "velocity": 82}, {"time": 4763, "pitch": 46, "duration": 4, "velocity": 76}, {"time": 4763, "pitch": 58, "duration": 3, "velocity": 85}, {"time": 4763, "pitch": 66, "duration": 7, "velocity": 87}, {"time": 4769, "pitch": 58, "duration": 3, "velocity": 85}, {"time": 4775, "pitch": 58, "duration": 2, "velocity": 80}, {"time": 4775, "pitch": 63, "duration": 5, "velocity": 90}, {"time": 4781, "pitch": 58, "duration": 2, "velocity": 82}, {"time": 4787, "pitch": 44, "duration": 31, "velocity": 85}, {"time": 4787, "pitch": 56, "duration": 6, "velocity": 84}, {"time": 4787, "pitch": 60, "duration": 7, "velocity": 82}, {"time": 4793, "pitch": 51, "duration": 20, "velocity": 73}, {"time": 4799, "pitch": 63, "duration": 7, "velocity": 81}, {"time": 4805, "pitch": 56, "duration": 2, "velocity": 84}, {"time": 4811, "pitch": 56, "duration": 2, "velocity": 85}, {"time": 4811, "pitch": 60, "duration": 7, "velocity": 95}, {"time": 4811, "pitch": 63, "duration": 7, "velocity": 89}, {"time": 4811, "pitch": 68, "duration": 8, "velocity": 84}, {"time": 4817, "pitch": 51, "duration": 2, "velocity": 84}, {"time": 4823, "pitch": 56, "duration": 4, "velocity": 85}, {"time": 4835, "pitch": 49, "duration": 45, "velocity": 88}, {"time": 4835, "pitch": 56, "duration": 3, "velocity": 84}, {"time": 4835, "pitch": 65, "duration": 9, "velocity": 86}, {"time": 4841, "pitch": 56, "duration": 7, "velocity": 75}, {"time": 4847, "pitch": 61, "duration": 6, "velocity": 84}, {"time": 4853, "pitch": 56, "duration": 1, "velocity": 66}, {"time": 4859, "pitch": 56, "duration": 3, "velocity": 90}, {"time": 4859, "pitch": 63, "duration": 8, "velocity": 88}, {"time": 4865, "pitch": 56, "duration": 5, "velocity": 84}, {"time": 4871, "pitch": 61, "duration": 6, "velocity": 90}, {"time": 4877, "pitch": 56, "duration": 3, "velocity": 81}, {"time": 4883, "pitch": 49, "duration": 14, "velocity": 95}, {"time": 4883, "pitch": 56, "duration": 3, "velocity": 86}, {"time": 4883, "pitch": 61, "duration": 7, "velocity": 89}, {"time": 4883, "pitch": 65, "duration": 7, "velocity": 90}, {"time": 4889, "pitch": 56, "duration": 3, "velocity": 84}, {"time": 4895, "pitch": 56, "duration": 1, "velocity": 85}, {"time": 4895, "pitch": 61, "duration": 3, "velocity": 91}, {"time": 4895, "pitch": 65, "duration": 4, "velocity": 87}, {"time": 4901, "pitch": 56, "duration": 3, "velocity": 85}, {"time": 4907, "pitch": 44, "duration": 22, "velocity": 90}, {"time": 4907, "pitch": 56, "duration": 7, "velocity": 88}, {"time": 4907, "pitch": 60, "duration": 7, "velocity": 87}, {"time": 4907, "pitch": 63, "duration": 8, "velocity": 85}, {"time": 4913, "pitch": 51, "duration": 15, "velocity": 84}, {"time": 4919, "pitch": 56, "duration": 10, "velocity": 91}, {"time": 4925, "pitch": 60, "duration": 4, "velocity": 87}, {"time": 4931, "pitch": 42, "duration": 43, "velocity": 84}, {"time": 4931, "pitch": 61, "duration": 13, "velocity": 83}, {"time": 4937, "pitch": 49, "duration": 38, "velocity": 72}, {"time": 4943, "pitch": 54, "duration": 34, "velocity": 76}, {"time": 4949, "pitch": 61, "duration": 31, "velocity": 80}, {"time": 4955, "pitch": 66, "duration": 30, "velocity": 76}, {"time": 4979, "pitch": 44, "duration": 37, "velocity": 83}, {"time": 4985, "pitch": 51, "duration": 30, "velocity": 74}, {"time": 4991, "pitch": 56, "duration": 23, "velocity": 79}, {"time": 4997, "pitch": 63, "duration": 17, "velocity": 81}, {"time": 5027, "pitch": 41, "duration": 34, "velocity": 85}, {"time": 5027, "pitch": 56, "duration": 7, "velocity": 78}, {"time": 5027, "pitch": 60, "duration": 12, "velocity": 81}, {"time": 5033, "pitch": 48, "duration": 27, "velocity": 71}, {"time": 5039, "pitch": 56, "duration": 19, "velocity": 80}, {"time": 5045, "pitch": 60, "duration": 18, "velocity": 85}, {"time": 5057, "pitch": 65, "duration": 12, "velocity": 86}, {"time": 5063, "pitch": 56, "duration": 4, "velocity": 78}, {"time": 5075, "pitch": 46, "duration": 38, "velocity": 85}, {"time": 5075, "pitch": 58, "duration": 7, "velocity": 79}, {"time": 5075, "pitch": 61, "duration": 13, "velocity": 80}, {"time": 5081, "pitch": 53, "duration": 30, "velocity": 75}, {"time": 5087, "pitch": 65, "duration": 7, "velocity": 80}, {"time": 5093, "pitch": 70, "duration": 14, "velocity": 86}, {"time": 5105, "pitch": 61, "duration": 6, "velocity": 84}, {"time": 5105, "pitch": 65, "duration": 9, "velocity": 84}, {"time": 5111, "pitch": 58, "duration": 4, "velocity": 72}, {"time": 5123, "pitch": 51, "duration": 10, "velocity": 90}, {"time": 5123, "pitch": 58, "duration": 3, "velocity": 79}, {"time": 5123, "pitch": 63, "duration": 6, "velocity": 85}, {"time": 5129, "pitch": 58, "duration": 9, "velocity": 83}, {"time": 5135, "pitch": 63, "duration": 3, "velocity": 84}, {"time": 5141, "pitch": 58, "duration": 14, "velocity": 80}, {"time": 5141, "pitch": 63, "duration": 14, "velocity": 86}, {"time": 5141, "pitch": 66, "duration": 14, "velocity": 84}, {"time": 5171, "pitch": 44, "duration": 34, "velocity": 84}, {"time": 5171, "pitch": 56, "duration": 7, "velocity": 79}, {"time": 5171, "pitch": 63, "duration": 13, "velocity": 81}, {"time": 5177, "pitch": 51, "duration": 26, "velocity": 82}, {"time": 5183, "pitch": 56, "duration": 15, "velocity": 85}, {"time": 5189, "pitch": 63, "duration": 8, "velocity": 85}, {"time": 5201, "pitch": 56, "duration": 6, "velocity": 89}, {"time": 5201, "pitch": 63, "duration": 15, "velocity": 90}, {"time": 5201, "pitch": 68, "duration": 14, "velocity": 83}, {"time": 5207, "pitch": 44, "duration": 10, "velocity": 80}, {"time": 5207, "pitch": 51, "duration": 10, "velocity": 100}, {"time": 5213, "pitch": 56, "duration": 5, "velocity": 91}, {"time": 5219, "pitch": 49, "duration": 32, "velocity": 90}, {"time": 5219, "pitch": 56, "duration": 2, "velocity": 85}, {"time": 5219, "pitch": 61, "duration": 6, "velocity": 85}, {"time": 5225, "pitch": 56, "duration": 3, "velocity": 78}, {"time": 5231, "pitch": 61, "duration": 7, "velocity": 81}, {"time": 5237, "pitch": 56, "duration": 3, "velocity": 77}, {"time": 5243, "pitch": 56, "duration": 2, "velocity": 86}, {"time": 5243, "pitch": 65, "duration": 8, "velocity": 95}, {"time": 5249, "pitch": 56, "duration": 4, "velocity": 83}, {"time": 5255, "pitch": 61, "duration": 4, "velocity": 84}, {"time": 5261, "pitch": 56, "duration": 3, "velocity": 82}, {"time": 5267, "pitch": 49, "duration": 19, "velocity": 93}, {"time": 5267, "pitch": 56, "duration": 3, "velocity": 85}, {"time": 5267, "pitch": 59, "duration": 7, "velocity": 86}, {"time": 5273, "pitch": 56, "duration": 4, "velocity": 76}, {"time": 5279, "pitch": 59, "duration": 3, "velocity": 85}, {"time": 5285, "pitch": 56, "duration": 3, "velocity": 86}, {"time": 5291, "pitch": 49, "duration": 6, "velocity": 95}, {"time": 5291, "pitch": 56, "duration": 3, "velocity": 85}, {"time": 5291, "pitch": 65, "duration": 8, "velocity": 91}, {"time": 5297, "pitch": 56, "duration": 3, "velocity": 76}, {"time": 5303, "pitch": 56, "duration": 2, "velocity": 84}, {"time": 5303, "pitch": 61, "duration": 6, "velocity": 86}, {"time": 5309, "pitch": 56, "duration": 2, "velocity": 75}, {"time": 5315, "pitch": 42, "duration": 22, "velocity": 85}, {"time": 5315, "pitch": 54, "duration": 3, "velocity": 84}, {"time": 5315, "pitch": 58, "duration": 6, "velocity": 82}, {"time": 5321, "pitch": 54, "duration": 3, "velocity": 77}, {"time": 5327, "pitch": 61, "duration": 5, "velocity": 82}, {"time": 5333, "pitch": 54, "duration": 2, "velocity": 82}, {"time": 5339, "pitch": 42, "duration": 3, "velocity": 85}, {"time": 5339, "pitch": 54, "duration": 1, "velocity": 79}, {"time": 5339, "pitch": 58, "duration": 6, "velocity": 87}, {"time": 5339, "pitch": 61, "duration": 7, "velocity": 88}, {"time": 5339, "pitch": 66, "duration": 7, "velocity": 82}, {"time": 5345, "pitch": 54, "duration": 3, "velocity": 78}, {"time": 5351, "pitch": 58, "duration": 5, "velocity": 75}, {"time": 5351, "pitch": 61, "duration": 8, "velocity": 73}, {"time": 5357, "pitch": 54, "duration": 2, "velocity": 83}, {"time": 5363, "pitch": 44, "duration": 35, "velocity": 85}, {"time": 5363, "pitch": 56, "duration": 7, "velocity": 84}, {"time": 5363, "pitch": 60, "duration": 8, "velocity": 84}, {"time": 5369, "pitch": 51, "duration": 21, "velocity": 79}, {"time": 5375, "pitch": 63, "duration": 6, "velocity": 83}, {"time": 5381, "pitch": 56, "duration": 2, "velocity": 85}, {"time": 5387, "pitch": 56, "duration": 3, "velocity": 90}, {"time": 5387, "pitch": 68, "duration": 4, "velocity": 84}, {"time": 5393, "pitch": 51, "duration": 3, "velocity": 80}, {"time": 5399, "pitch": 60, "duration": 3, "velocity": 82}, {"time": 5399, "pitch": 63, "duration": 3, "velocity": 84}, {"time": 5405, "pitch": 56, "duration": 2, "velocity": 82}, {"time": 5411, "pitch": 41, "duration": 35, "velocity": 86}, {"time": 5411, "pitch": 53, "duration": 8, "velocity": 86}, {"time": 5411, "pitch": 56, "duration": 8, "velocity": 84}, {"time": 5417, "pitch": 48, "duration": 21, "velocity": 71}, {"time": 5423, "pitch": 60, "duration": 6, "velocity": 80}, {"time": 5429, "pitch": 56, "duration": 2, "velocity": 82}, {"time": 5435, "pitch": 53, "duration": 3, "velocity": 90}, {"time": 5435, "pitch": 65, "duration": 7, "velocity": 87}, {"time": 5441, "pitch": 48, "duration": 4, "velocity": 76}, {"time": 5447, "pitch": 56, "duration": 3, "velocity": 86}, {"time": 5447, "pitch": 60, "duration": 3, "velocity": 85}, {"time": 5453, "pitch": 53, "duration": 2, "velocity": 91}, {"time": 5459, "pitch": 46, "duration": 31, "velocity": 86}, {"time": 5459, "pitch": 58, "duration": 10, "velocity": 84}, {"time": 5459, "pitch": 61, "duration": 9, "velocity": 84}, {"time": 5465, "pitch": 53, "duration": 9, "velocity": 79}, {"time": 5471, "pitch": 61, "duration": 3, "velocity": 84}, {"time": 5471, "pitch": 65, "duration": 6, "velocity": 85}, {"time": 5477, "pitch": 53, "duration": 7, "velocity": 80}, {"time": 5477, "pitch": 58, "duration": 2, "velocity": 72}, {"time": 5483, "pitch": 58, "duration": 6, "velocity": 87}, {"time": 5483, "pitch": 61, "duration": 7, "velocity": 91}, {"time": 5483, "pitch": 70, "duration": 6, "velocity": 83}, {"time": 5489, "pitch": 53, "duration": 3, "velocity": 86}, {"time": 5495, "pitch": 58, "duration": 2, "velocity": 85}, {"time": 5495, "pitch": 61, "duration": 5, "velocity": 86}, {"time": 5501, "pitch": 58, "duration": 2, "velocity": 75}, {"time": 5507, "pitch": 39, "duration": 21, "velocity": 88}, {"time": 5507, "pitch": 58, "duration": 3, "velocity": 80}, {"time": 5507, "pitch": 66, "duration": 8, "velocity": 85}, {"time": 5513, "pitch": 58, "duration": 3, "velocity": 75}, {"time": 5519, "pitch": 63, "duration": 3, "velocity": 86}, {"time": 5525, "pitch": 58, "duration": 3, "velocity": 82}, {"time": 5531, "pitch": 46, "duration": 4, "velocity": 76}, {"time": 5531, "pitch": 58, "duration": 3, "velocity": 85}, {"time": 5531, "pitch": 66, "duration": 7, "velocity": 87}, {"time": 5537, "pitch": 58, "duration": 3, "velocity": 85}, {"time": 5543, "pitch": 58, "duration": 2, "velocity": 80}, {"time": 5543, "pitch": 63, "duration": 5, "velocity": 90}, {"time": 5549, "pitch": 58, "duration": 2, "velocity": 82}, {"time": 5555, "pitch": 44, "duration": 31, "velocity": 85}, {"time": 5555, "pitch": 56, "duration": 6, "velocity": 84}, {"time": 5555, "pitch": 60, "duration": 7, "velocity": 82}, {"time": 5561, "pitch": 51, "duration": 20, "velocity": 73}, {"time": 5567, "pitch": 63, "duration": 7, "velocity": 81}, {"time": 5573, "pitch": 56, "duration": 2, "velocity": 84}, {"time": 5579, "pitch": 56, "duration": 2, "velocity": 85}, {"time": 5579, "pitch": 60, "duration": 7, "velocity": 95}, {"time": 5579, "pitch": 63, "duration": 7, "velocity": 89}, {"time": 5579, "pitch": 68, "duration": 8, "velocity": 84}, {"time": 5585, "pitch": 51, "duration": 2, "velocity": 84}, {"time": 5591, "pitch": 56, "duration": 4, "velocity": 85}, {"time": 5603, "pitch": 37, "duration": 2, "velocity": 79}, {"time": 5603, "pitch": 56, "duration": 6, "velocity": 81}, {"time": 5603, "pitch": 65, "duration": 13, "velocity": 85}, {"time": 5615, "pitch": 56, "duration": 7, "velocity": 85}, {"time": 5627, "pitch": 49, "duration": 16, "velocity": 82}, {"time": 5627, "pitch": 56, "duration": 5, "velocity": 80}, {"time": 5627, "pitch": 63, "duration": 12, "velocity": 78}, {"time": 5639, "pitch": 56, "duration": 7, "velocity": 81}, {"time": 5651, "pitch": 49, "duration": 31, "velocity": 85}, {"time": 5651, "pitch": 61, "duration": 12, "velocity": 79}, {"time": 5651, "pitch": 65, "duration": 13, "velocity": 84}, {"time": 5663, "pitch": 56, "duration": 14, "velocity": 85}, {"time": 5675, "pitch": 61, "duration": 12, "velocity": 85}, {"time": 5675, "pitch": 65, "duration": 12, "velocity": 85}, {"time": 5687, "pitch": 56, "duration": 2, "velocity": 89}, {"time": 5699, "pitch": 39, "duration": 23, "velocity": 86}, {"time": 5699, "pitch": 58, "duration": 6, "velocity": 74}, {"time": 5699, "pitch": 63, "duration": 10, "velocity": 77}, {"time": 5699, "pitch": 67, "duration": 12, "velocity": 73}, {"time": 5711, "pitch": 58, "duration": 5, "velocity": 77}, {"time": 5723, "pitch": 58, "duration": 3, "velocity": 77}, {"time": 5723, "pitch": 63, "duration": 3, "velocity": 79}, {"time": 5723, "pitch": 67, "duration": 5, "velocity": 75}, {"time": 5735, "pitch": 58, "duration": 14, "velocity": 84}, {"time": 5747, "pitch": 51, "duration": 12, "velocity": 84}, {"time": 5747, "pitch": 63, "duration": 13, "velocity": 79}, {"time": 5747, "pitch": 67, "duration": 13, "velocity": 74}, {"time": 5759, "pitch": 58, "duration": 8, "velocity": 84}, {"time": 5771, "pitch": 63, "duration": 16, "velocity": 84}, {"time": 5771, "pitch": 67, "duration": 16, "velocity": 82}, {"time": 5783, "pitch": 58, "duration": 8, "velocity": 72}, {"time": 5795, "pitch": 42, "duration": 31, "velocity": 84}, {"time": 5795, "pitch": 54, "duration": 6, "velocity": 59}, {"time": 5795, "pitch": 57, "duration": 14, "velocity": 65}, {"time": 5795, "pitch": 61, "duration": 15, "velocity": 69}, {"time": 5807, "pitch": 54, "duration": 5, "velocity": 78}, {"time": 5819, "pitch": 54, "duration": 4, "velocity": 82}, {"time": 5819, "pitch": 57, "duration": 9, "velocity": 87}, {"time": 5819, "pitch": 61, "duration": 10, "velocity": 84}, {"time": 5831, "pitch": 54, "duration": 10, "velocity": 84}, {"time": 5843, "pitch": 42, "duration": 30, "velocity": 84}, {"time": 5843, "pitch": 54, "duration": 17, "velocity": 82}, {"time": 5843, "pitch": 61, "duration": 18, "velocity": 81}, {"time": 5855, "pitch": 49, "duration": 15, "velocity": 76}, {"time": 5867, "pitch": 54, "duration": 6, "velocity": 80}, {"time": 5867, "pitch": 61, "duration": 7, "velocity": 81}, {"time": 5867, "pitch": 66, "duration": 8, "velocity": 80}, {"time": 5879, "pitch": 42, "duration": 2, "velocity": 83}, {"time": 5887, "pitch": 56, "duration": 13, "velocity": 65}, {"time": 5889, "pitch": 61, "duration": 14, "velocity": 72}, {"time": 5890, "pitch": 37, "duration": 3, "velocity": 84}, {"time": 5890, "pitch": 65, "duration": 17, "velocity": 74}, {"time": 5901, "pitch": 49, "duration": 86, "velocity": 85}, {"time": 5914, "pitch": 63, "duration": 12, "velocity": 85}, {"time": 5925, "pitch": 65, "duration": 4, "velocity": 88}, {"time": 5936, "pitch": 61, "duration": 6, "velocity": 69}, {"time": 5937, "pitch": 65, "duration": 4, "velocity": 78}, {"time": 5937, "pitch": 56, "duration": 49, "velocity": 61}, {"time": 5939, "pitch": 68, "duration": 13, "velocity": 75}, {"time": 5951, "pitch": 61, "duration": 23, "velocity": 75}, {"time": 5972, "pitch": 68, "duration": 2, "velocity": 42}, {"time": 5973, "pitch": 73, "duration": 3, "velocity": 81}], "annotations": [{"time": 35, "annotation": {"number": 64, "value": 127}, "group": "control_change"}, {"time": 35, "annotation": {"number": 64, "value": 0}, "group": "control_change"}, {"time": 36, "annotation": {"number": 64, "value": 127}, "group": "control_change"}, {"time": 128, "annotation": {"number": 64, "value": 0}, "group": "control_change"}, {"time": 133, "annotation": {"number": 64, "value": 127}, "group": "control_change"}, {"time": 226, "annotation": {"number": 64, "value": 0}, "group": "control_change"}, {"time": 230, "annotation": {"number": 64, "value": 127}, "group": "control_change"}, {"time": 319, "annotation": {"number": 64, "value": 0}, "group": "control_change"}, {"time": 322, "annotation": {"number": 64, "value": 127}, "group": "control_change"}, {"time": 369, "annotation": {"number": 64, "value": 0}, "group": "control_change"}, {"time": 371, "annotation": {"number": 64, "value": 127}, "group": "control_change"}, {"time": 415, "annotation": {"number": 64, "value": 0}, "group": "control_change"}, {"time": 417, "annotation": {"number": 64, "value": 127}, "group": "control_change"}, {"time": 486, "annotation": {"number": 64, "value": 0}, "group": "control_change"}, {"time": 490, "annotation": {"number": 64, "value": 127}, "group": "control_change"}, {"time": 512, "annotation": {"number": 64, "value": 0}, "group": "control_change"}, {"time": 515, "annotation": {"number": 64, "value": 127}, "group": "control_change"}, {"time": 560, "annotation": {"number": 64, "value": 0}, "group": "control_change"}, {"time": 562, "annotation": {"number": 64, "value": 127}, "group": "control_change"}, {"time": 611, "annotation": {"number": 64, "value": 0}, "group": "control_change"}, {"time": 613, "annotation": {"number": 64, "value": 127}, "group": "control_change"}, {"time": 655, "annotation": {"number": 64, "value": 0}, "group": "control_change"}, {"time": 659, "annotation": {"number": 64, "value": 127}, "group": "control_change"}, {"time": 704, "annotation": {"number": 64, "value": 0}, "group": "control_change"}, {"time": 706, "annotation": {"number": 64, "value": 127}, "group": "control_change"}, {"time": 752, "annotation": {"number": 64, "value": 0}, "group": "control_change"}, {"time": 754, "annotation": {"number": 64, "value": 127}, "group": "control_change"}, {"time": 795, "annotation": {"number": 64, "value": 0}, "group": "control_change"}, {"time": 804, "annotation": {"number": 64, "value": 127}, "group": "control_change"}, {"time": 848, "annotation": {"number": 64, "value": 0}, "group": "control_change"}, {"time": 852, "annotation": {"number": 64, "value": 127}, "group": "control_change"}, {"time": 895, "annotation": {"number": 64, "value": 0}, "group": "control_change"}, {"time": 899, "annotation": {"number": 64, "value": 127}, "group": "control_change"}, {"time": 946, "annotation": {"number": 64, "value": 0}, "group": "control_change"}, {"time": 952, "annotation": {"number": 64, "value": 127}, "group": "control_change"}, {"time": 994, "annotation": {"number": 64, "value": 0}, "group": "control_change"}, {"time": 994, "annotation": {"number": 64, "value": 127}, "group": "control_change"}, {"time": 1041, "annotation": {"number": 64, "value": 0}, "group": "control_change"}, {"time": 1044, "annotation": {"number": 64, "value": 127}, "group": "control_change"}, {"time": 1087, "annotation": {"number": 64, "value": 0}, "group": "control_change"}, {"time": 1090, "annotation": {"number": 64, "value": 127}, "group": "control_change"}, {"time": 1136, "annotation": {"number": 64, "value": 0}, "group": "control_change"}, {"time": 1140, "annotation": {"number": 64, "value": 127}, "group": "control_change"}, {"time": 1140, "annotation": {"number": 64, "value": 0}, "group": "control_change"}, {"time": 1141, "annotation": {"number": 64, "value": 127}, "group": "control_change"}, {"time": 1182, "annotation": {"number": 64, "value": 0}, "group": "control_change"}, {"time": 1188, "annotation": {"number": 64, "value": 127}, "group": "control_change"}, {"time": 1232, "annotation": {"number": 64, "value": 0}, "group": "control_change"}, {"time": 1236, "annotation": {"number": 64, "value": 127}, "group": "control_change"}, {"time": 1279, "annotation": {"number": 64, "value": 0}, "group": "control_change"}, {"time": 1283, "annotation": {"number": 64, "value": 127}, "group": "control_change"}, {"time": 1330, "annotation": {"number": 64, "value": 0}, "group": "control_change"}, {"time": 1336, "annotation": {"number": 64, "value": 127}, "group": "control_change"}, {"time": 1378, "annotation": {"number": 64, "value": 0}, "group": "control_change"}, {"time": 1378, "annotation": {"number": 64, "value": 127}, "group": "control_change"}, {"time": 1425, "annotation": {"number": 64, "value": 0}, "group": "control_change"}, {"time": 1428, "annotation": {"number": 64, "value": 127}, "group": "control_change"}, {"time": 1471, "annotation": {"number": 64, "value": 0}, "group": "control_change"}, {"time": 1474, "annotation": {"number": 64, "value": 127}, "group": "control_change"}, {"time": 1520, "annotation": {"number": 64, "value": 0}, "group": "control_change"}, {"time": 1543, "annotation": {"number": 64, "value": 0}, "group": "control_change"}, {"time": 1546, "annotation": {"number": 64, "value": 127}, "group": "control_change"}, {"time": 1568, "annotation": {"number": 64, "value": 0}, "group": "control_change"}, {"time": 1578, "annotation": {"number": 64, "value": 127}, "group": "control_change"}, {"time": 1616, "annotation": {"number": 64, "value": 0}, "group": "control_change"}, {"time": 1620, "annotation": {"number": 64, "value": 127}, "group": "control_change"}, {"time": 1666, "annotation": {"number": 64, "value": 0}, "group": "control_change"}, {"time": 1670, "annotation": {"number": 64, "value": 127}, "group": "control_change"}, {"time": 1714, "annotation": {"number": 64, "value": 0}, "group": "control_change"}, {"time": 1717, "annotation": {"number": 64, "value": 127}, "group": "control_change"}, {"time": 1761, "annotation": {"number": 64, "value": 0}, "group": "control_change"}, {"time": 1762, "annotation": {"number": 64, "value": 127}, "group": "control_change"}, {"time": 1831, "annotation": {"number": 64, "value": 0}, "group": "control_change"}, {"time": 1833, "annotation": {"number": 64, "value": 127}, "group": "control_change"}, {"time": 1857, "annotation": {"number": 64, "value": 0}, "group": "control_change"}, {"time": 1860, "annotation": {"number": 64, "value": 127}, "group": "control_change"}, {"time": 1903, "annotation": {"number": 64, "value": 0}, "group": "control_change"}, {"time": 1905, "annotation": {"number": 64, "value": 127}, "group": "control_change"}, {"time": 1951, "annotation": {"number": 64, "value": 0}, "group": "control_change"}, {"time": 2000, "annotation": {"number": 64, "value": 0}, "group": "control_change"}, {"time": 2003, "annotation": {"number": 64, "value": 127}, "group": "control_change"}, {"time": 2024, "annotation": {"number": 64, "value": 0}, "group": "control_change"}, {"time": 2026, "annotation": {"number": 64, "value": 127}, "group": "control_change"}, {"time": 2050, "annotation": {"number": 64, "value": 0}, "group": "control_change"}, {"time": 2054, "annotation": {"number": 64, "value": 127}, "group": "control_change"}, {"time": 2074, "annotation": {"number": 64, "value": 0}, "group": "control_change"}, {"time": 2075, "annotation": {"number": 64, "value": 127}, "group": "control_change"}, {"time": 2097, "annotation": {"number": 64, "value": 0}, "group": "control_change"}, {"time": 2100, "annotation": {"number": 64, "value": 127}, "group": "control_change"}, {"time": 2144, "annotation": {"number": 64, "value": 0}, "group": "control_change"}, {"time": 2147, "annotation": {"number": 64, "value": 127}, "group": "control_change"}, {"time": 2192, "annotation": {"number": 64, "value": 0}, "group": "control_change"}, {"time": 2196, "annotation": {"number": 64, "value": 127}, "group": "control_change"}, {"time": 2196, "annotation": {"number": 64, "value": 0}, "group": "control_change"}, {"time": 2217, "annotation": {"number": 64, "value": 0}, "group": "control_change"}, {"time": 2218, "annotation": {"number": 64, "value": 127}, "group": "control_change"}, {"time": 2240, "annotation": {"number": 64, "value": 0}, "group": "control_change"}, {"time": 2243, "annotation": {"number": 64, "value": 127}, "group": "control_change"}, {"time": 2287, "annotation": {"number": 64, "value": 0}, "group": "control_change"}, {"time": 2289, "annotation": {"number": 64, "value": 127}, "group": "control_change"}, {"time": 2312, "annotation": {"number": 64, "value": 0}, "group": "control_change"}, {"time": 2314, "annotation": {"number": 64, "value": 127}, "group": "control_change"}, {"time": 2336, "annotation": {"number": 64, "value": 0}, "group": "control_change"}, {"time": 2340, "annotation": {"number": 64, "value": 127}, "group": "control_change"}, {"time": 2385, "annotation": {"number": 64, "value": 0}, "group": "control_change"}, {"time": 2390, "annotation": {"number": 64, "value": 127}, "group": "control_change"}, {"time": 2433, "annotation": {"number": 64, "value": 0}, "group": "control_change"}, {"time": 2437, "annotation": {"number": 64, "value": 127}, "group": "control_change"}, {"time": 2481, "annotation": {"number": 64, "value": 0}, "group": "control_change"}, {"time": 2488, "annotation": {"number": 64, "value": 127}, "group": "control_change"}, {"time": 2527, "annotation": {"number": 64, "value": 0}, "group": "control_change"}, {"time": 2531, "annotation": {"number": 64, "value": 127}, "group": "control_change"}, {"time": 2577, "annotation": {"number": 64, "value": 0}, "group": "control_change"}, {"time": 2580, "annotation": {"number": 64, "value": 127}, "group": "control_change"}, {"time": 2623, "annotation": {"number": 64, "value": 0}, "group": "control_change"}, {"time": 2626, "annotation": {"number": 64, "value": 127}, "group": "control_change"}, {"time": 2671, "annotation": {"number": 64, "value": 0}, "group": "control_change"}, {"time": 2674, "annotation": {"number": 64, "value": 127}, "group": "control_change"}, {"time": 2695, "annotation": {"number": 64, "value": 0}, "group": "control_change"}, {"time": 2697, "annotation": {"number": 64, "value": 127}, "group": "control_change"}, {"time": 2720, "annotation": {"number": 64, "value": 0}, "group": "control_change"}, {"time": 2722, "annotation": {"number": 64, "value": 127}, "group": "control_change"}, {"time": 2768, "annotation": {"number": 64, "value": 0}, "group": "control_change"}, {"time": 2771, "annotation": {"number": 64, "value": 127}, "group": "control_change"}, {"time": 2819, "annotation": {"number": 64, "value": 0}, "group": "control_change"}, {"time": 2820, "annotation": {"number": 64, "value": 127}, "group": "control_change"}, {"time": 2864, "annotation": {"number": 64, "value": 0}, "group": "control_change"}, {"time": 2867, "annotation": {"number": 64, "value": 127}, "group": "control_change"}, {"time": 2911, "annotation": {"number": 64, "value": 0}, "group": "control_change"}, {"time": 2914, "annotation": {"number": 64, "value": 127}, "group": "control_change"}, {"time": 2938, "annotation": {"number": 64, "value": 0}, "group": "control_change"}, {"time": 2940, "annotation": {"number": 64, "value": 127}, "group": "control_change"}, {"time": 2961, "annotation": {"number": 64, "value": 0}, "group": "control_change"}, {"time": 3012, "annotation": {"number": 64, "value": 127}, "group": "control_change"}, {"time": 3056, "annotation": {"number": 64, "value": 0}, "group": "control_change"}, {"time": 3060, "annotation": {"number": 64, "value": 127}, "group": "control_change"}, {"time": 3103, "annotation": {"number": 64, "value": 0}, "group": "control_change"}, {"time": 3107, "annotation": {"number": 64, "value": 127}, "group": "control_change"}, {"time": 3154, "annotation": {"number": 64, "value": 0}, "group": "control_change"}, {"time": 3160, "annotation": {"number": 64, "value": 127}, "group": "control_change"}, {"time": 3202, "annotation": {"number": 64, "value": 0}, "group": "control_change"}, {"time": 3202, "annotation": {"number": 64, "value": 127}, "group": "control_change"}, {"time": 3249, "annotation": {"number": 64, "value": 0}, "group": "control_change"}, {"time": 3252, "annotation": {"number": 64, "value": 127}, "group": "control_change"}, {"time": 3295, "annotation": {"number": 64, "value": 0}, "group": "control_change"}, {"time": 3298, "annotation": {"number": 64, "value": 127}, "group": "control_change"}, {"time": 3344, "annotation": {"number": 64, "value": 0}, "group": "control_change"}, {"time": 3348, "annotation": {"number": 64, "value": 127}, "group": "control_change"}, {"time": 3348, "annotation": {"number": 64, "value": 0}, "group": "control_change"}, {"time": 3349, "annotation": {"number": 64, "value": 127}, "group": "control_change"}, {"time": 3390, "annotation": {"number": 64, "value": 0}, "group": "control_change"}, {"time": 3396, "annotation": {"number": 64, "value": 127}, "group": "control_change"}, {"time": 3440, "annotation": {"number": 64, "value": 0}, "group": "control_change"}, {"time": 3444, "annotation": {"number": 64, "value": 127}, "group": "control_change"}, {"time": 3487, "annotation": {"number": 64, "value": 0}, "group": "control_change"}, {"time": 3491, "annotation": {"number": 64, "value": 127}, "group": "control_change"}, {"time": 3538, "annotation": {"number": 64, "value": 0}, "group": "control_change"}, {"time": 3544, "annotation": {"number": 64, "value": 127}, "group": "control_change"}, {"time": 3586, "annotation": {"number": 64, "value": 0}, "group": "control_change"}, {"time": 3586, "annotation": {"number": 64, "value": 127}, "group": "control_change"}, {"time": 3633, "annotation": {"number": 64, "value": 0}, "group": "control_change"}, {"time": 3636, "annotation": {"number": 64, "value": 127}, "group": "control_change"}, {"time": 3679, "annotation": {"number": 64, "value": 0}, "group": "control_change"}, {"time": 3682, "annotation": {"number": 64, "value": 127}, "group": "control_change"}, {"time": 3728, "annotation": {"number": 64, "value": 0}, "group": "control_change"}, {"time": 3751, "annotation": {"number": 64, "value": 0}, "group": "control_change"}, {"time": 3754, "annotation": {"number": 64, "value": 127}, "group": "control_change"}, {"time": 3776, "annotation": {"number": 64, "value": 0}, "group": "control_change"}, {"time": 3786, "annotation": {"number": 64, "value": 127}, "group": "control_change"}, {"time": 3824, "annotation": {"number": 64, "value": 0}, "group": "control_change"}, {"time": 3828, "annotation": {"number": 64, "value": 127}, "group": "control_change"}, {"time": 3874, "annotation": {"number": 64, "value": 0}, "group": "control_change"}, {"time": 3878, "annotation": {"number": 64, "value": 127}, "group": "control_change"}, {"time": 3922, "annotation": {"number": 64, "value": 0}, "group": "control_change"}, {"time": 3925, "annotation": {"number": 64, "value": 127}, "group": "control_change"}, {"time": 3969, "annotation": {"number": 64, "value": 0}, "group": "control_change"}, {"time": 3970, "annotation": {"number": 64, "value": 127}, "group": "control_change"}, {"time": 4039, "annotation": {"number": 64, "value": 0}, "group": "control_change"}, {"time": 4041, "annotation": {"number": 64, "value": 127}, "group": "control_change"}, {"time": 4065, "annotation": {"number": 64, "value": 0}, "group": "control_change"}, {"time": 4068, "annotation": {"number": 64, "value": 127}, "group": "control_change"}, {"time": 4111, "annotation": {"number": 64, "value": 0}, "group": "control_change"}, {"time": 4113, "annotation": {"number": 64, "value": 127}, "group": "control_change"}, {"time": 4159, "annotation": {"number": 64, "value": 0}, "group": "control_change"}, {"time": 4208, "annotation": {"number": 64, "value": 0}, "group": "control_change"}, {"time": 4211, "annotation": {"number": 64, "value": 127}, "group": "control_change"}, {"time": 4232, "annotation": {"number": 64, "value": 0}, "group": "control_change"}, {"time": 4234, "annotation": {"number": 64, "value": 127}, "group": "control_change"}, {"time": 4258, "annotation": {"number": 64, "value": 0}, "group": "control_change"}, {"time": 4262, "annotation": {"number": 64, "value": 127}, "group": "control_change"}, {"time": 4282, "annotation": {"number": 64, "value": 0}, "group": "control_change"}, {"time": 4283, "annotation": {"number": 64, "value": 127}, "group": "control_change"}, {"time": 4305, "annotation": {"number": 64, "value": 0}, "group": "control_change"}, {"time": 4308, "annotation": {"number": 64, "value": 127}, "group": "control_change"}, {"time": 4352, "annotation": {"number": 64, "value": 0}, "group": "control_change"}, {"time": 4355, "annotation": {"number": 64, "value": 127}, "group": "control_change"}, {"time": 4400, "annotation": {"number": 64, "value": 0}, "group": "control_change"}, {"time": 4404, "annotation": {"number": 64, "value": 127}, "group": "control_change"}, {"time": 4404, "annotation": {"number": 64, "value": 0}, "group": "control_change"}, {"time": 4425, "annotation": {"number": 64, "value": 0}, "group": "control_change"}, {"time": 4426, "annotation": {"number": 64, "value": 127}, "group": "control_change"}, {"time": 4448, "annotation": {"number": 64, "value": 0}, "group": "control_change"}, {"time": 4451, "annotation": {"number": 64, "value": 127}, "group": "control_change"}, {"time": 4495, "annotation": {"number": 64, "value": 0}, "group": "control_change"}, {"time": 4497, "annotation": {"number": 64, "value": 127}, "group": "control_change"}, {"time": 4520, "annotation": {"number": 64, "value": 0}, "group": "control_change"}, {"time": 4522, "annotation": {"number": 64, "value": 127}, "group": "control_change"}, {"time": 4544, "annotation": {"number": 64, "value": 0}, "group": "control_change"}, {"time": 4548, "annotation": {"number": 64, "value": 127}, "group": "control_change"}, {"time": 4593, "annotation": {"number": 64, "value": 0}, "group": "control_change"}, {"time": 4598, "annotation": {"number": 64, "value": 127}, "group": "control_change"}, {"time": 4641, "annotation": {"number": 64, "value": 0}, "group": "control_change"}, {"time": 4645, "annotation": {"number": 64, "value": 127}, "group": "control_change"}, {"time": 4689, "annotation": {"number": 64, "value": 0}, "group": "control_change"}, {"time": 4696, "annotation": {"number": 64, "value": 127}, "group": "control_change"}, {"time": 4735, "annotation": {"number": 64, "value": 0}, "group": "control_change"}, {"time": 4739, "annotation": {"number": 64, "value": 127}, "group": "control_change"}, {"time": 4785, "annotation": {"number": 64, "value": 0}, "group": "control_change"}, {"time": 4788, "annotation": {"number": 64, "value": 127}, "group": "control_change"}, {"time": 4831, "annotation": {"number": 64, "value": 0}, "group": "control_change"}, {"time": 4833, "annotation": {"number": 64, "value": 127}, "group": "control_change"}, {"time": 4834, "annotation": {"number": 64, "value": 127}, "group": "control_change"}, {"time": 4880, "annotation": {"number": 64, "value": 0}, "group": "control_change"}, {"time": 4881, "annotation": {"number": 64, "value": 127}, "group": "control_change"}, {"time": 4904, "annotation": {"number": 64, "value": 0}, "group": "control_change"}, {"time": 4906, "annotation": {"number": 64, "value": 127}, "group": "control_change"}, {"time": 4925, "annotation": {"number": 64, "value": 0}, "group": "control_change"}, {"time": 4930, "annotation": {"number": 64, "value": 127}, "group": "control_change"}, {"time": 4977, "annotation": {"number": 64, "value": 0}, "group": "control_change"}, {"time": 4981, "annotation": {"number": 64, "value": 127}, "group": "control_change"}, {"time": 5025, "annotation": {"number": 64, "value": 0}, "group": "control_change"}, {"time": 5028, "annotation": {"number": 64, "value": 127}, "group": "control_change"}, {"time": 5072, "annotation": {"number": 64, "value": 0}, "group": "control_change"}, {"time": 5076, "annotation": {"number": 64, "value": 127}, "group": "control_change"}, {"time": 5123, "annotation": {"number": 64, "value": 0}, "group": "control_change"}, {"time": 5126, "annotation": {"number": 64, "value": 127}, "group": "control_change"}, {"time": 5170, "annotation": {"number": 64, "value": 0}, "group": "control_change"}, {"time": 5173, "annotation": {"number": 64, "value": 127}, "group": "control_change"}, {"time": 5212, "annotation": {"number": 64, "value": 0}, "group": "control_change"}, {"time": 5263, "annotation": {"number": 64, "value": 0}, "group": "control_change"}, {"time": 5265, "annotation": {"number": 64, "value": 127}, "group": "control_change"}, {"time": 5288, "annotation": {"number": 64, "value": 0}, "group": "control_change"}, {"time": 5290, "annotation": {"number": 64, "value": 127}, "group": "control_change"}, {"time": 5312, "annotation": {"number": 64, "value": 0}, "group": "control_change"}, {"time": 5316, "annotation": {"number": 64, "value": 127}, "group": "control_change"}, {"time": 5361, "annotation": {"number": 64, "value": 0}, "group": "control_change"}, {"time": 5366, "annotation": {"number": 64, "value": 127}, "group": "control_change"}, {"time": 5409, "annotation": {"number": 64, "value": 0}, "group": "control_change"}, {"time": 5413, "annotation": {"number": 64, "value": 127}, "group": "control_change"}, {"time": 5457, "annotation": {"number": 64, "value": 0}, "group": "control_change"}, {"time": 5464, "annotation": {"number": 64, "value": 127}, "group": "control_change"}, {"time": 5503, "annotation": {"number": 64, "value": 0}, "group": "control_change"}, {"time": 5507, "annotation": {"number": 64, "value": 127}, "group": "control_change"}, {"time": 5553, "annotation": {"number": 64, "value": 0}, "group": "control_change"}, {"time": 5556, "annotation": {"number": 64, "value": 127}, "group": "control_change"}, {"time": 5599, "annotation": {"number": 64, "value": 0}, "group": "control_change"}, {"time": 5602, "annotation": {"number": 64, "value": 127}, "group": "control_change"}, {"time": 5670, "annotation": {"number": 64, "value": 0}, "group": "control_change"}, {"time": 5674, "annotation": {"number": 64, "value": 127}, "group": "control_change"}, {"time": 5696, "annotation": {"number": 64, "value": 0}, "group": "control_change"}, {"time": 5699, "annotation": {"number": 64, "value": 127}, "group": "control_change"}, {"time": 5744, "annotation": {"number": 64, "value": 0}, "group": "control_change"}, {"time": 5746, "annotation": {"number": 64, "value": 127}, "group": "control_change"}, {"time": 5795, "annotation": {"number": 64, "value": 0}, "group": "control_change"}, {"time": 5797, "annotation": {"number": 64, "value": 127}, "group": "control_change"}, {"time": 5839, "annotation": {"number": 64, "value": 0}, "group": "control_change"}, {"time": 5843, "annotation": {"number": 64, "value": 127}, "group": "control_change"}, {"time": 5888, "annotation": {"number": 64, "value": 0}, "group": "control_change"}, {"time": 5890, "annotation": {"number": 64, "value": 127}, "group": "control_change"}]}]}