{"metadata": {"schema_version": "0.2", "title": "None", "source_filename": "705.mid", "source_format": "midi"}, "resolution": 12, "tempos": [{"time": 0, "qpm": 60.0}, {"time": 898, "qpm": 59.50008032510844}, {"time": 948, "qpm": 60.500032770851085}, {"time": 972, "qpm": 60.0}, {"time": 1692, "qpm": 59.50008032510844}, {"time": 1704, "qpm": 59.00006686674245}, {"time": 1740, "qpm": 60.250037656273534}, {"time": 1764, "qpm": 60.0}, {"time": 2940, "qpm": 59.250013331253}, {"time": 2961, "qpm": 58.500115537728185}, {"time": 2980, "qpm": 58.75003427085333}, {"time": 3024, "qpm": 59.250013331253}], "time_signatures": [{"time": 0, "numerator": 1, "denominator": 4}], "tracks": [{"program": 4, "is_drum": false, "name": "MELODY", "notes": [{"time": 197, "pitch": 70, "duration": 5, "velocity": 87}, {"time": 203, "pitch": 70, "duration": 11, "velocity": 78}, {"time": 215, "pitch": 67, "duration": 6, "velocity": 80}, {"time": 221, "pitch": 65, "duration": 6, "velocity": 80}, {"time": 230, "pitch": 70, "duration": 3, "velocity": 78}, {"time": 233, "pitch": 65, "duration": 6, "velocity": 77}, {"time": 239, "pitch": 63, "duration": 5, "velocity": 77}, {"time": 245, "pitch": 65, "duration": 5, "velocity": 80}, {"time": 251, "pitch": 65, "duration": 7, "velocity": 80}, {"time": 257, "pitch": 60, "duration": 6, "velocity": 77}, {"time": 263, "pitch": 58, "duration": 5, "velocity": 73}, {"time": 269, "pitch": 58, "duration": 21, "velocity": 76}, {"time": 293, "pitch": 63, "duration": 5, "velocity": 80}, {"time": 299, "pitch": 63, "duration": 10, "velocity": 78}, {"time": 311, "pitch": 63, "duration": 4, "velocity": 76}, {"time": 314, "pitch": 60, "duration": 3, "velocity": 70}, {"time": 317, "pitch": 63, "duration": 8, "velocity": 79}, {"time": 326, "pitch": 70, "duration": 2, "velocity": 78}, {"time": 329, "pitch": 70, "duration": 3, "velocity": 78}, {"time": 332, "pitch": 60, "duration": 3, "velocity": 70}, {"time": 335, "pitch": 63, "duration": 5, "velocity": 77}, {"time": 341, "pitch": 67, "duration": 5, "velocity": 76}, {"time": 347, "pitch": 65, "duration": 3, "velocity": 71}, {"time": 350, "pitch": 65, "duration": 3, "velocity": 78}, {"time": 353, "pitch": 65, "duration": 25, "velocity": 79}, {"time": 389, "pitch": 70, "duration": 5, "velocity": 78}, {"time": 395, "pitch": 70, "duration": 11, "velocity": 78}, {"time": 407, "pitch": 67, "duration": 5, "velocity": 80}, {"time": 413, "pitch": 72, "duration": 8, "velocity": 77}, {"time": 422, "pitch": 72, "duration": 2, "velocity": 77}, {"time": 425, "pitch": 72, "duration": 4, "velocity": 78}, {"time": 431, "pitch": 70, "duration": 4, "velocity": 79}, {"time": 437, "pitch": 72, "duration": 4, "velocity": 77}, {"time": 443, "pitch": 67, "duration": 5, "velocity": 76}, {"time": 449, "pitch": 67, "duration": 7, "velocity": 77}, {"time": 455, "pitch": 65, "duration": 5, "velocity": 76}, {"time": 461, "pitch": 65, "duration": 5, "velocity": 80}, {"time": 467, "pitch": 63, "duration": 3, "velocity": 76}, {"time": 470, "pitch": 62, "duration": 4, "velocity": 71}, {"time": 473, "pitch": 60, "duration": 11, "velocity": 77}, {"time": 485, "pitch": 65, "duration": 9, "velocity": 78}, {"time": 494, "pitch": 65, "duration": 1, "velocity": 80}, {"time": 497, "pitch": 65, "duration": 5, "velocity": 78}, {"time": 503, "pitch": 65, "duration": 5, "velocity": 78}, {"time": 509, "pitch": 65, "duration": 5, "velocity": 80}, {"time": 515, "pitch": 70, "duration": 16, "velocity": 81}, {"time": 533, "pitch": 60, "duration": 6, "velocity": 78}, {"time": 539, "pitch": 58, "duration": 33, "velocity": 73}, {"time": 581, "pitch": 67, "duration": 9, "velocity": 77}, {"time": 590, "pitch": 65, "duration": 3, "velocity": 78}, {"time": 593, "pitch": 67, "duration": 5, "velocity": 71}, {"time": 599, "pitch": 65, "duration": 5, "velocity": 78}, {"time": 605, "pitch": 67, "duration": 12, "velocity": 77}, {"time": 629, "pitch": 60, "duration": 6, "velocity": 82}, {"time": 635, "pitch": 67, "duration": 14, "velocity": 75}, {"time": 650, "pitch": 60, "duration": 3, "velocity": 76}, {"time": 653, "pitch": 63, "duration": 5, "velocity": 76}, {"time": 659, "pitch": 63, "duration": 15, "velocity": 77}, {"time": 677, "pitch": 65, "duration": 9, "velocity": 76}, {"time": 686, "pitch": 63, "duration": 2, "velocity": 76}, {"time": 689, "pitch": 65, "duration": 5, "velocity": 81}, {"time": 695, "pitch": 65, "duration": 6, "velocity": 78}, {"time": 701, "pitch": 63, "duration": 5, "velocity": 77}, {"time": 707, "pitch": 70, "duration": 11, "velocity": 78}, {"time": 719, "pitch": 67, "duration": 6, "velocity": 74}, {"time": 725, "pitch": 70, "duration": 6, "velocity": 77}, {"time": 731, "pitch": 65, "duration": 36, "velocity": 77}, {"time": 773, "pitch": 67, "duration": 11, "velocity": 76}, {"time": 785, "pitch": 67, "duration": 9, "velocity": 78}, {"time": 797, "pitch": 67, "duration": 5, "velocity": 75}, {"time": 803, "pitch": 67, "duration": 11, "velocity": 77}, {"time": 815, "pitch": 67, "duration": 5, "velocity": 81}, {"time": 821, "pitch": 67, "duration": 6, "velocity": 75}, {"time": 827, "pitch": 70, "duration": 12, "velocity": 77}, {"time": 839, "pitch": 62, "duration": 6, "velocity": 79}, {"time": 845, "pitch": 60, "duration": 6, "velocity": 77}, {"time": 851, "pitch": 58, "duration": 7, "velocity": 72}, {"time": 857, "pitch": 60, "duration": 9, "velocity": 76}, {"time": 875, "pitch": 60, "duration": 5, "velocity": 82}, {"time": 881, "pitch": 60, "duration": 5, "velocity": 78}, {"time": 887, "pitch": 60, "duration": 5, "velocity": 80}, {"time": 893, "pitch": 65, "duration": 10, "velocity": 79}, {"time": 905, "pitch": 65, "duration": 11, "velocity": 79}, {"time": 917, "pitch": 58, "duration": 5, "velocity": 77}, {"time": 923, "pitch": 58, "duration": 6, "velocity": 78}, {"time": 929, "pitch": 58, "duration": 6, "velocity": 78}, {"time": 935, "pitch": 60, "duration": 5, "velocity": 82}, {"time": 941, "pitch": 58, "duration": 19, "velocity": 78}, {"time": 965, "pitch": 72, "duration": 6, "velocity": 79}, {"time": 971, "pitch": 70, "duration": 12, "velocity": 82}, {"time": 983, "pitch": 67, "duration": 3, "velocity": 77}, {"time": 986, "pitch": 65, "duration": 2, "velocity": 80}, {"time": 989, "pitch": 65, "duration": 6, "velocity": 80}, {"time": 995, "pitch": 63, "duration": 16, "velocity": 76}, {"time": 1013, "pitch": 72, "duration": 4, "velocity": 78}, {"time": 1019, "pitch": 70, "duration": 12, "velocity": 71}, {"time": 1031, "pitch": 67, "duration": 3, "velocity": 79}, {"time": 1034, "pitch": 65, "duration": 2, "velocity": 77}, {"time": 1037, "pitch": 65, "duration": 6, "velocity": 82}, {"time": 1043, "pitch": 63, "duration": 17, "velocity": 77}, {"time": 1067, "pitch": 65, "duration": 5, "velocity": 81}, {"time": 1073, "pitch": 65, "duration": 4, "velocity": 79}, {"time": 1079, "pitch": 65, "duration": 4, "velocity": 82}, {"time": 1085, "pitch": 70, "duration": 9, "velocity": 76}, {"time": 1094, "pitch": 67, "duration": 3, "velocity": 77}, {"time": 1097, "pitch": 70, "duration": 10, "velocity": 79}, {"time": 1109, "pitch": 63, "duration": 5, "velocity": 77}, {"time": 1115, "pitch": 63, "duration": 7, "velocity": 78}, {"time": 1121, "pitch": 60, "duration": 6, "velocity": 75}, {"time": 1127, "pitch": 63, "duration": 2, "velocity": 77}, {"time": 1130, "pitch": 63, "duration": 3, "velocity": 76}, {"time": 1133, "pitch": 65, "duration": 6, "velocity": 77}, {"time": 1139, "pitch": 67, "duration": 6, "velocity": 67}, {"time": 1145, "pitch": 65, "duration": 10, "velocity": 79}, {"time": 1163, "pitch": 65, "duration": 4, "velocity": 82}, {"time": 1169, "pitch": 65, "duration": 4, "velocity": 77}, {"time": 1175, "pitch": 65, "duration": 4, "velocity": 79}, {"time": 1181, "pitch": 70, "duration": 8, "velocity": 74}, {"time": 1190, "pitch": 67, "duration": 3, "velocity": 76}, {"time": 1193, "pitch": 70, "duration": 10, "velocity": 79}, {"time": 1205, "pitch": 67, "duration": 6, "velocity": 78}, {"time": 1211, "pitch": 75, "duration": 5, "velocity": 83}, {"time": 1217, "pitch": 72, "duration": 6, "velocity": 77}, {"time": 1223, "pitch": 70, "duration": 2, "velocity": 76}, {"time": 1226, "pitch": 67, "duration": 2, "velocity": 76}, {"time": 1229, "pitch": 70, "duration": 6, "velocity": 80}, {"time": 1235, "pitch": 65, "duration": 13, "velocity": 80}, {"time": 1259, "pitch": 67, "duration": 6, "velocity": 79}, {"time": 1265, "pitch": 67, "duration": 4, "velocity": 77}, {"time": 1271, "pitch": 67, "duration": 5, "velocity": 81}, {"time": 1277, "pitch": 67, "duration": 5, "velocity": 78}, {"time": 1283, "pitch": 70, "duration": 5, "velocity": 80}, {"time": 1289, "pitch": 58, "duration": 12, "velocity": 77}, {"time": 1301, "pitch": 60, "duration": 7, "velocity": 78}, {"time": 1310, "pitch": 60, "duration": 2, "velocity": 75}, {"time": 1313, "pitch": 60, "duration": 4, "velocity": 76}, {"time": 1319, "pitch": 60, "duration": 4, "velocity": 76}, {"time": 1325, "pitch": 60, "duration": 7, "velocity": 77}, {"time": 1334, "pitch": 60, "duration": 2, "velocity": 76}, {"time": 1337, "pitch": 60, "duration": 5, "velocity": 79}, {"time": 1343, "pitch": 60, "duration": 6, "velocity": 76}, {"time": 1349, "pitch": 60, "duration": 6, "velocity": 68}, {"time": 1355, "pitch": 65, "duration": 7, "velocity": 83}, {"time": 1364, "pitch": 60, "duration": 4, "velocity": 80}, {"time": 1370, "pitch": 60, "duration": 3, "velocity": 72}, {"time": 1373, "pitch": 58, "duration": 23, "velocity": 77}, {"time": 1782, "pitch": 70, "duration": 5, "velocity": 87}, {"time": 1788, "pitch": 70, "duration": 11, "velocity": 78}, {"time": 1800, "pitch": 67, "duration": 6, "velocity": 80}, {"time": 1806, "pitch": 65, "duration": 6, "velocity": 80}, {"time": 1815, "pitch": 70, "duration": 3, "velocity": 78}, {"time": 1818, "pitch": 65, "duration": 6, "velocity": 77}, {"time": 1824, "pitch": 63, "duration": 5, "velocity": 77}, {"time": 1830, "pitch": 65, "duration": 5, "velocity": 80}, {"time": 1836, "pitch": 65, "duration": 7, "velocity": 80}, {"time": 1842, "pitch": 60, "duration": 6, "velocity": 77}, {"time": 1848, "pitch": 58, "duration": 5, "velocity": 73}, {"time": 1854, "pitch": 58, "duration": 21, "velocity": 76}, {"time": 1878, "pitch": 63, "duration": 5, "velocity": 80}, {"time": 1884, "pitch": 63, "duration": 10, "velocity": 78}, {"time": 1896, "pitch": 63, "duration": 4, "velocity": 76}, {"time": 1899, "pitch": 60, "duration": 3, "velocity": 71}, {"time": 1902, "pitch": 63, "duration": 8, "velocity": 79}, {"time": 1911, "pitch": 70, "duration": 2, "velocity": 78}, {"time": 1914, "pitch": 70, "duration": 5, "velocity": 78}, {"time": 1917, "pitch": 60, "duration": 3, "velocity": 75}, {"time": 1920, "pitch": 63, "duration": 5, "velocity": 77}, {"time": 1926, "pitch": 67, "duration": 5, "velocity": 76}, {"time": 1932, "pitch": 65, "duration": 2, "velocity": 75}, {"time": 1935, "pitch": 65, "duration": 3, "velocity": 78}, {"time": 1938, "pitch": 65, "duration": 25, "velocity": 79}, {"time": 1974, "pitch": 70, "duration": 5, "velocity": 78}, {"time": 1980, "pitch": 70, "duration": 11, "velocity": 78}, {"time": 1992, "pitch": 67, "duration": 5, "velocity": 80}, {"time": 1998, "pitch": 72, "duration": 7, "velocity": 77}, {"time": 2007, "pitch": 72, "duration": 2, "velocity": 77}, {"time": 2010, "pitch": 72, "duration": 4, "velocity": 78}, {"time": 2016, "pitch": 70, "duration": 4, "velocity": 79}, {"time": 2022, "pitch": 72, "duration": 4, "velocity": 77}, {"time": 2028, "pitch": 67, "duration": 5, "velocity": 76}, {"time": 2032, "pitch": 70, "duration": 1, "velocity": 74}, {"time": 2034, "pitch": 67, "duration": 3, "velocity": 77}, {"time": 2039, "pitch": 70, "duration": 1, "velocity": 74}, {"time": 2040, "pitch": 65, "duration": 5, "velocity": 73}, {"time": 2046, "pitch": 65, "duration": 5, "velocity": 80}, {"time": 2052, "pitch": 63, "duration": 3, "velocity": 76}, {"time": 2055, "pitch": 62, "duration": 4, "velocity": 71}, {"time": 2058, "pitch": 60, "duration": 11, "velocity": 77}, {"time": 2070, "pitch": 65, "duration": 9, "velocity": 78}, {"time": 2079, "pitch": 65, "duration": 1, "velocity": 80}, {"time": 2082, "pitch": 65, "duration": 5, "velocity": 78}, {"time": 2088, "pitch": 65, "duration": 5, "velocity": 78}, {"time": 2094, "pitch": 65, "duration": 5, "velocity": 80}, {"time": 2100, "pitch": 67, "duration": 2, "velocity": 76}, {"time": 2103, "pitch": 70, "duration": 9, "velocity": 81}, {"time": 2112, "pitch": 60, "duration": 7, "velocity": 84}, {"time": 2118, "pitch": 60, "duration": 1, "velocity": 78}, {"time": 2124, "pitch": 58, "duration": 33, "velocity": 73}, {"time": 2166, "pitch": 67, "duration": 9, "velocity": 77}, {"time": 2175, "pitch": 65, "duration": 3, "velocity": 78}, {"time": 2178, "pitch": 67, "duration": 5, "velocity": 71}, {"time": 2184, "pitch": 65, "duration": 5, "velocity": 78}, {"time": 2190, "pitch": 67, "duration": 12, "velocity": 77}, {"time": 2214, "pitch": 60, "duration": 6, "velocity": 82}, {"time": 2220, "pitch": 67, "duration": 14, "velocity": 75}, {"time": 2229, "pitch": 60, "duration": 4, "velocity": 79}, {"time": 2235, "pitch": 60, "duration": 3, "velocity": 76}, {"time": 2238, "pitch": 63, "duration": 5, "velocity": 76}, {"time": 2244, "pitch": 63, "duration": 15, "velocity": 77}, {"time": 2262, "pitch": 65, "duration": 9, "velocity": 76}, {"time": 2271, "pitch": 65, "duration": 2, "velocity": 76}, {"time": 2274, "pitch": 65, "duration": 5, "velocity": 81}, {"time": 2280, "pitch": 65, "duration": 3, "velocity": 78}, {"time": 2283, "pitch": 65, "duration": 4, "velocity": 74}, {"time": 2286, "pitch": 63, "duration": 5, "velocity": 77}, {"time": 2292, "pitch": 70, "duration": 11, "velocity": 78}, {"time": 2304, "pitch": 67, "duration": 6, "velocity": 74}, {"time": 2310, "pitch": 70, "duration": 6, "velocity": 77}, {"time": 2316, "pitch": 65, "duration": 36, "velocity": 77}, {"time": 2358, "pitch": 67, "duration": 11, "velocity": 76}, {"time": 2370, "pitch": 67, "duration": 9, "velocity": 78}, {"time": 2382, "pitch": 67, "duration": 5, "velocity": 75}, {"time": 2388, "pitch": 67, "duration": 11, "velocity": 77}, {"time": 2406, "pitch": 67, "duration": 6, "velocity": 75}, {"time": 2412, "pitch": 70, "duration": 12, "velocity": 77}, {"time": 2424, "pitch": 62, "duration": 6, "velocity": 79}, {"time": 2430, "pitch": 60, "duration": 6, "velocity": 77}, {"time": 2436, "pitch": 58, "duration": 7, "velocity": 72}, {"time": 2442, "pitch": 60, "duration": 9, "velocity": 76}, {"time": 2460, "pitch": 60, "duration": 5, "velocity": 82}, {"time": 2466, "pitch": 60, "duration": 5, "velocity": 78}, {"time": 2472, "pitch": 60, "duration": 5, "velocity": 80}, {"time": 2478, "pitch": 65, "duration": 10, "velocity": 79}, {"time": 2490, "pitch": 65, "duration": 11, "velocity": 79}, {"time": 2502, "pitch": 58, "duration": 5, "velocity": 77}, {"time": 2508, "pitch": 58, "duration": 6, "velocity": 78}, {"time": 2514, "pitch": 58, "duration": 6, "velocity": 78}, {"time": 2520, "pitch": 60, "duration": 4, "velocity": 82}, {"time": 2526, "pitch": 58, "duration": 19, "velocity": 78}, {"time": 2550, "pitch": 72, "duration": 6, "velocity": 79}, {"time": 2556, "pitch": 70, "duration": 12, "velocity": 82}, {"time": 2568, "pitch": 67, "duration": 3, "velocity": 77}, {"time": 2571, "pitch": 65, "duration": 2, "velocity": 80}, {"time": 2574, "pitch": 65, "duration": 6, "velocity": 80}, {"time": 2580, "pitch": 63, "duration": 14, "velocity": 76}, {"time": 2592, "pitch": 60, "duration": 3, "velocity": 82}, {"time": 2595, "pitch": 58, "duration": 2, "velocity": 82}, {"time": 2598, "pitch": 72, "duration": 4, "velocity": 78}, {"time": 2604, "pitch": 70, "duration": 12, "velocity": 71}, {"time": 2616, "pitch": 67, "duration": 3, "velocity": 79}, {"time": 2619, "pitch": 65, "duration": 2, "velocity": 77}, {"time": 2622, "pitch": 65, "duration": 6, "velocity": 82}, {"time": 2628, "pitch": 63, "duration": 17, "velocity": 77}, {"time": 2652, "pitch": 65, "duration": 5, "velocity": 81}, {"time": 2658, "pitch": 65, "duration": 4, "velocity": 79}, {"time": 2664, "pitch": 65, "duration": 4, "velocity": 82}, {"time": 2670, "pitch": 70, "duration": 9, "velocity": 76}, {"time": 2679, "pitch": 67, "duration": 3, "velocity": 77}, {"time": 2682, "pitch": 70, "duration": 10, "velocity": 79}, {"time": 2694, "pitch": 63, "duration": 5, "velocity": 77}, {"time": 2700, "pitch": 63, "duration": 6, "velocity": 78}, {"time": 2706, "pitch": 60, "duration": 6, "velocity": 75}, {"time": 2712, "pitch": 63, "duration": 2, "velocity": 77}, {"time": 2715, "pitch": 63, "duration": 3, "velocity": 76}, {"time": 2718, "pitch": 65, "duration": 6, "velocity": 77}, {"time": 2724, "pitch": 67, "duration": 4, "velocity": 67}, {"time": 2727, "pitch": 65, "duration": 13, "velocity": 79}, {"time": 2748, "pitch": 65, "duration": 4, "velocity": 82}, {"time": 2754, "pitch": 65, "duration": 4, "velocity": 77}, {"time": 2760, "pitch": 65, "duration": 4, "velocity": 79}, {"time": 2766, "pitch": 70, "duration": 8, "velocity": 74}, {"time": 2775, "pitch": 67, "duration": 3, "velocity": 76}, {"time": 2778, "pitch": 70, "duration": 10, "velocity": 79}, {"time": 2790, "pitch": 67, "duration": 5, "velocity": 78}, {"time": 2796, "pitch": 75, "duration": 5, "velocity": 83}, {"time": 2802, "pitch": 72, "duration": 6, "velocity": 77}, {"time": 2808, "pitch": 70, "duration": 2, "velocity": 76}, {"time": 2811, "pitch": 70, "duration": 2, "velocity": 76}, {"time": 2814, "pitch": 70, "duration": 6, "velocity": 80}, {"time": 2820, "pitch": 65, "duration": 13, "velocity": 80}, {"time": 2844, "pitch": 67, "duration": 6, "velocity": 79}, {"time": 2850, "pitch": 67, "duration": 4, "velocity": 77}, {"time": 2856, "pitch": 67, "duration": 4, "velocity": 81}, {"time": 2862, "pitch": 67, "duration": 5, "velocity": 78}, {"time": 2868, "pitch": 70, "duration": 5, "velocity": 80}, {"time": 2874, "pitch": 58, "duration": 12, "velocity": 77}, {"time": 2886, "pitch": 60, "duration": 7, "velocity": 78}, {"time": 2895, "pitch": 60, "duration": 2, "velocity": 75}, {"time": 2898, "pitch": 60, "duration": 4, "velocity": 76}, {"time": 2904, "pitch": 60, "duration": 4, "velocity": 76}, {"time": 2910, "pitch": 60, "duration": 7, "velocity": 77}, {"time": 2919, "pitch": 60, "duration": 2, "velocity": 76}, {"time": 2922, "pitch": 60, "duration": 5, "velocity": 79}, {"time": 2928, "pitch": 60, "duration": 6, "velocity": 76}, {"time": 2934, "pitch": 60, "duration": 6, "velocity": 68}, {"time": 2940, "pitch": 65, "duration": 7, "velocity": 83}, {"time": 2949, "pitch": 60, "duration": 4, "velocity": 80}, {"time": 2955, "pitch": 60, "duration": 3, "velocity": 72}, {"time": 2958, "pitch": 60, "duration": 4, "velocity": 77}, {"time": 2964, "pitch": 58, "duration": 17, "velocity": 77}, {"time": 2982, "pitch": 72, "duration": 6, "velocity": 79}, {"time": 2988, "pitch": 70, "duration": 12, "velocity": 82}, {"time": 3000, "pitch": 67, "duration": 3, "velocity": 77}, {"time": 3003, "pitch": 65, "duration": 2, "velocity": 80}, {"time": 3006, "pitch": 65, "duration": 6, "velocity": 80}, {"time": 3012, "pitch": 63, "duration": 12, "velocity": 76}, {"time": 3024, "pitch": 60, "duration": 3, "velocity": 85}, {"time": 3027, "pitch": 58, "duration": 1, "velocity": 85}, {"time": 3030, "pitch": 72, "duration": 4, "velocity": 78}, {"time": 3036, "pitch": 70, "duration": 12, "velocity": 71}, {"time": 3048, "pitch": 67, "duration": 3, "velocity": 79}, {"time": 3051, "pitch": 65, "duration": 2, "velocity": 77}, {"time": 3054, "pitch": 65, "duration": 6, "velocity": 82}, {"time": 3060, "pitch": 63, "duration": 17, "velocity": 77}, {"time": 3077, "pitch": 65, "duration": 46, "velocity": 92}, {"time": 3126, "pitch": 70, "duration": 85, "velocity": 82}]}, {"program": 0, "is_drum": false, "name": "PIANO", "notes": [{"time": 3, "pitch": 58, "duration": 4, "velocity": 63}, {"time": 4, "pitch": 63, "duration": 6, "velocity": 70}, {"time": 5, "pitch": 39, "duration": 1, "velocity": 78}, {"time": 5, "pitch": 67, "duration": 6, "velocity": 67}, {"time": 11, "pitch": 51, "duration": 24, "velocity": 71}, {"time": 18, "pitch": 70, "duration": 2, "velocity": 70}, {"time": 18, "pitch": 63, "duration": 2, "velocity": 67}, {"time": 26, "pitch": 63, "duration": 2, "velocity": 61}, {"time": 27, "pitch": 67, "duration": 2, "velocity": 58}, {"time": 28, "pitch": 70, "duration": 1, "velocity": 66}, {"time": 29, "pitch": 75, "duration": 2, "velocity": 83}, {"time": 51, "pitch": 69, "duration": 17, "velocity": 49}, {"time": 52, "pitch": 72, "duration": 16, "velocity": 72}, {"time": 53, "pitch": 45, "duration": 1, "velocity": 71}, {"time": 53, "pitch": 75, "duration": 18, "velocity": 75}, {"time": 76, "pitch": 60, "duration": 17, "velocity": 61}, {"time": 76, "pitch": 63, "duration": 17, "velocity": 73}, {"time": 77, "pitch": 67, "duration": 16, "velocity": 61}, {"time": 77, "pitch": 48, "duration": 16, "velocity": 76}, {"time": 77, "pitch": 72, "duration": 15, "velocity": 80}, {"time": 99, "pitch": 55, "duration": 9, "velocity": 69}, {"time": 101, "pitch": 58, "duration": 12, "velocity": 67}, {"time": 101, "pitch": 43, "duration": 13, "velocity": 80}, {"time": 101, "pitch": 62, "duration": 7, "velocity": 72}, {"time": 107, "pitch": 50, "duration": 7, "velocity": 54}, {"time": 113, "pitch": 55, "duration": 2, "velocity": 76}, {"time": 122, "pitch": 53, "duration": 3, "velocity": 67}, {"time": 123, "pitch": 57, "duration": 2, "velocity": 66}, {"time": 124, "pitch": 60, "duration": 2, "velocity": 69}, {"time": 125, "pitch": 41, "duration": 1, "velocity": 77}, {"time": 125, "pitch": 65, "duration": 5, "velocity": 65}, {"time": 131, "pitch": 53, "duration": 9, "velocity": 76}, {"time": 134, "pitch": 57, "duration": 5, "velocity": 75}, {"time": 137, "pitch": 60, "duration": 4, "velocity": 78}, {"time": 140, "pitch": 65, "duration": 6, "velocity": 77}, {"time": 143, "pitch": 69, "duration": 4, "velocity": 78}, {"time": 145, "pitch": 72, "duration": 4, "velocity": 71}, {"time": 149, "pitch": 46, "duration": 21, "velocity": 76}, {"time": 155, "pitch": 53, "duration": 14, "velocity": 78}, {"time": 161, "pitch": 63, "duration": 6, "velocity": 76}, {"time": 167, "pitch": 65, "duration": 1, "velocity": 82}, {"time": 172, "pitch": 58, "duration": 3, "velocity": 62}, {"time": 172, "pitch": 62, "duration": 6, "velocity": 64}, {"time": 173, "pitch": 46, "duration": 22, "velocity": 76}, {"time": 173, "pitch": 65, "duration": 7, "velocity": 65}, {"time": 173, "pitch": 70, "duration": 7, "velocity": 64}, {"time": 179, "pitch": 53, "duration": 16, "velocity": 72}, {"time": 185, "pitch": 62, "duration": 11, "velocity": 70}, {"time": 185, "pitch": 65, "duration": 11, "velocity": 77}, {"time": 185, "pitch": 58, "duration": 11, "velocity": 74}, {"time": 197, "pitch": 39, "duration": 19, "velocity": 78}, {"time": 197, "pitch": 58, "duration": 4, "velocity": 66}, {"time": 197, "pitch": 63, "duration": 7, "velocity": 71}, {"time": 203, "pitch": 46, "duration": 12, "velocity": 57}, {"time": 209, "pitch": 63, "duration": 3, "velocity": 77}, {"time": 209, "pitch": 67, "duration": 4, "velocity": 76}, {"time": 221, "pitch": 63, "duration": 4, "velocity": 77}, {"time": 221, "pitch": 67, "duration": 6, "velocity": 78}, {"time": 227, "pitch": 58, "duration": 3, "velocity": 74}, {"time": 233, "pitch": 58, "duration": 7, "velocity": 75}, {"time": 233, "pitch": 63, "duration": 7, "velocity": 77}, {"time": 233, "pitch": 67, "duration": 7, "velocity": 77}, {"time": 239, "pitch": 39, "duration": 1, "velocity": 77}, {"time": 245, "pitch": 46, "duration": 15, "velocity": 77}, {"time": 245, "pitch": 58, "duration": 10, "velocity": 71}, {"time": 245, "pitch": 62, "duration": 7, "velocity": 68}, {"time": 251, "pitch": 53, "duration": 8, "velocity": 58}, {"time": 257, "pitch": 62, "duration": 2, "velocity": 77}, {"time": 257, "pitch": 65, "duration": 2, "velocity": 78}, {"time": 263, "pitch": 53, "duration": 7, "velocity": 70}, {"time": 269, "pitch": 58, "duration": 7, "velocity": 65}, {"time": 269, "pitch": 62, "duration": 6, "velocity": 68}, {"time": 269, "pitch": 65, "duration": 6, "velocity": 76}, {"time": 275, "pitch": 53, "duration": 13, "velocity": 52}, {"time": 281, "pitch": 58, "duration": 4, "velocity": 73}, {"time": 281, "pitch": 62, "duration": 5, "velocity": 77}, {"time": 281, "pitch": 65, "duration": 6, "velocity": 79}, {"time": 287, "pitch": 62, "duration": 6, "velocity": 79}, {"time": 293, "pitch": 48, "duration": 44, "velocity": 76}, {"time": 293, "pitch": 60, "duration": 6, "velocity": 70}, {"time": 293, "pitch": 63, "duration": 3, "velocity": 75}, {"time": 299, "pitch": 55, "duration": 8, "velocity": 69}, {"time": 305, "pitch": 60, "duration": 6, "velocity": 76}, {"time": 305, "pitch": 67, "duration": 5, "velocity": 72}, {"time": 311, "pitch": 55, "duration": 8, "velocity": 57}, {"time": 317, "pitch": 60, "duration": 7, "velocity": 71}, {"time": 317, "pitch": 63, "duration": 7, "velocity": 71}, {"time": 323, "pitch": 55, "duration": 13, "velocity": 64}, {"time": 329, "pitch": 63, "duration": 7, "velocity": 77}, {"time": 329, "pitch": 67, "duration": 7, "velocity": 79}, {"time": 335, "pitch": 60, "duration": 2, "velocity": 77}, {"time": 341, "pitch": 46, "duration": 40, "velocity": 77}, {"time": 341, "pitch": 58, "duration": 13, "velocity": 70}, {"time": 341, "pitch": 62, "duration": 18, "velocity": 65}, {"time": 347, "pitch": 53, "duration": 10, "velocity": 71}, {"time": 353, "pitch": 65, "duration": 7, "velocity": 77}, {"time": 359, "pitch": 58, "duration": 7, "velocity": 75}, {"time": 365, "pitch": 62, "duration": 3, "velocity": 75}, {"time": 365, "pitch": 65, "duration": 4, "velocity": 78}, {"time": 365, "pitch": 70, "duration": 4, "velocity": 72}, {"time": 371, "pitch": 53, "duration": 9, "velocity": 71}, {"time": 377, "pitch": 58, "duration": 4, "velocity": 70}, {"time": 377, "pitch": 62, "duration": 3, "velocity": 77}, {"time": 377, "pitch": 65, "duration": 3, "velocity": 80}, {"time": 383, "pitch": 58, "duration": 7, "velocity": 82}, {"time": 389, "pitch": 39, "duration": 14, "velocity": 78}, {"time": 389, "pitch": 63, "duration": 5, "velocity": 74}, {"time": 395, "pitch": 58, "duration": 3, "velocity": 76}, {"time": 401, "pitch": 63, "duration": 7, "velocity": 75}, {"time": 401, "pitch": 67, "duration": 7, "velocity": 77}, {"time": 407, "pitch": 58, "duration": 7, "velocity": 76}, {"time": 413, "pitch": 51, "duration": 15, "velocity": 70}, {"time": 413, "pitch": 63, "duration": 8, "velocity": 76}, {"time": 413, "pitch": 67, "duration": 7, "velocity": 74}, {"time": 419, "pitch": 58, "duration": 4, "velocity": 68}, {"time": 425, "pitch": 58, "duration": 3, "velocity": 77}, {"time": 425, "pitch": 63, "duration": 2, "velocity": 76}, {"time": 425, "pitch": 67, "duration": 4, "velocity": 68}, {"time": 431, "pitch": 62, "duration": 7, "velocity": 83}, {"time": 437, "pitch": 48, "duration": 41, "velocity": 75}, {"time": 437, "pitch": 60, "duration": 8, "velocity": 73}, {"time": 437, "pitch": 63, "duration": 5, "velocity": 76}, {"time": 443, "pitch": 55, "duration": 8, "velocity": 68}, {"time": 449, "pitch": 60, "duration": 6, "velocity": 77}, {"time": 449, "pitch": 63, "duration": 6, "velocity": 78}, {"time": 449, "pitch": 67, "duration": 6, "velocity": 78}, {"time": 455, "pitch": 55, "duration": 8, "velocity": 65}, {"time": 461, "pitch": 60, "duration": 4, "velocity": 73}, {"time": 461, "pitch": 63, "duration": 6, "velocity": 70}, {"time": 467, "pitch": 60, "duration": 7, "velocity": 70}, {"time": 473, "pitch": 55, "duration": 3, "velocity": 65}, {"time": 473, "pitch": 63, "duration": 6, "velocity": 73}, {"time": 479, "pitch": 60, "duration": 5, "velocity": 68}, {"time": 485, "pitch": 41, "duration": 16, "velocity": 76}, {"time": 485, "pitch": 65, "duration": 7, "velocity": 73}, {"time": 491, "pitch": 60, "duration": 4, "velocity": 71}, {"time": 497, "pitch": 60, "duration": 3, "velocity": 78}, {"time": 497, "pitch": 65, "duration": 8, "velocity": 77}, {"time": 503, "pitch": 60, "duration": 5, "velocity": 69}, {"time": 509, "pitch": 41, "duration": 16, "velocity": 77}, {"time": 509, "pitch": 65, "duration": 8, "velocity": 72}, {"time": 509, "pitch": 68, "duration": 7, "velocity": 64}, {"time": 515, "pitch": 60, "duration": 4, "velocity": 76}, {"time": 521, "pitch": 60, "duration": 6, "velocity": 80}, {"time": 521, "pitch": 65, "duration": 6, "velocity": 77}, {"time": 527, "pitch": 41, "duration": 2, "velocity": 79}, {"time": 533, "pitch": 46, "duration": 22, "velocity": 76}, {"time": 533, "pitch": 58, "duration": 8, "velocity": 72}, {"time": 533, "pitch": 62, "duration": 7, "velocity": 67}, {"time": 539, "pitch": 65, "duration": 7, "velocity": 75}, {"time": 545, "pitch": 70, "duration": 7, "velocity": 79}, {"time": 551, "pitch": 58, "duration": 8, "velocity": 79}, {"time": 557, "pitch": 46, "duration": 18, "velocity": 76}, {"time": 557, "pitch": 62, "duration": 5, "velocity": 67}, {"time": 557, "pitch": 65, "duration": 10, "velocity": 76}, {"time": 563, "pitch": 53, "duration": 13, "velocity": 76}, {"time": 569, "pitch": 63, "duration": 6, "velocity": 76}, {"time": 575, "pitch": 62, "duration": 4, "velocity": 83}, {"time": 581, "pitch": 39, "duration": 21, "velocity": 79}, {"time": 581, "pitch": 58, "duration": 3, "velocity": 72}, {"time": 581, "pitch": 67, "duration": 7, "velocity": 74}, {"time": 587, "pitch": 58, "duration": 3, "velocity": 73}, {"time": 593, "pitch": 58, "duration": 3, "velocity": 76}, {"time": 593, "pitch": 67, "duration": 5, "velocity": 76}, {"time": 599, "pitch": 65, "duration": 3, "velocity": 79}, {"time": 605, "pitch": 39, "duration": 16, "velocity": 78}, {"time": 605, "pitch": 58, "duration": 10, "velocity": 72}, {"time": 605, "pitch": 67, "duration": 12, "velocity": 74}, {"time": 611, "pitch": 46, "duration": 9, "velocity": 65}, {"time": 617, "pitch": 58, "duration": 4, "velocity": 81}, {"time": 617, "pitch": 63, "duration": 6, "velocity": 78}, {"time": 623, "pitch": 39, "duration": 2, "velocity": 80}, {"time": 629, "pitch": 48, "duration": 22, "velocity": 76}, {"time": 629, "pitch": 60, "duration": 7, "velocity": 72}, {"time": 629, "pitch": 63, "duration": 8, "velocity": 72}, {"time": 635, "pitch": 55, "duration": 16, "velocity": 63}, {"time": 641, "pitch": 60, "duration": 4, "velocity": 74}, {"time": 641, "pitch": 63, "duration": 4, "velocity": 77}, {"time": 641, "pitch": 67, "duration": 5, "velocity": 77}, {"time": 647, "pitch": 65, "duration": 3, "velocity": 66}, {"time": 650, "pitch": 63, "duration": 4, "velocity": 78}, {"time": 653, "pitch": 48, "duration": 19, "velocity": 77}, {"time": 653, "pitch": 65, "duration": 6, "velocity": 72}, {"time": 659, "pitch": 63, "duration": 7, "velocity": 75}, {"time": 665, "pitch": 60, "duration": 7, "velocity": 85}, {"time": 671, "pitch": 55, "duration": 1, "velocity": 68}, {"time": 677, "pitch": 41, "duration": 21, "velocity": 77}, {"time": 677, "pitch": 65, "duration": 9, "velocity": 76}, {"time": 683, "pitch": 48, "duration": 12, "velocity": 70}, {"time": 689, "pitch": 60, "duration": 2, "velocity": 77}, {"time": 689, "pitch": 65, "duration": 3, "velocity": 78}, {"time": 695, "pitch": 56, "duration": 4, "velocity": 71}, {"time": 701, "pitch": 41, "duration": 16, "velocity": 77}, {"time": 701, "pitch": 56, "duration": 4, "velocity": 74}, {"time": 701, "pitch": 60, "duration": 13, "velocity": 74}, {"time": 713, "pitch": 65, "duration": 11, "velocity": 83}, {"time": 719, "pitch": 41, "duration": 2, "velocity": 79}, {"time": 719, "pitch": 56, "duration": 2, "velocity": 74}, {"time": 725, "pitch": 46, "duration": 21, "velocity": 76}, {"time": 725, "pitch": 58, "duration": 5, "velocity": 65}, {"time": 725, "pitch": 62, "duration": 5, "velocity": 75}, {"time": 731, "pitch": 53, "duration": 15, "velocity": 77}, {"time": 737, "pitch": 65, "duration": 9, "velocity": 78}, {"time": 743, "pitch": 58, "duration": 7, "velocity": 77}, {"time": 749, "pitch": 46, "duration": 9, "velocity": 78}, {"time": 749, "pitch": 70, "duration": 4, "velocity": 77}, {"time": 755, "pitch": 53, "duration": 4, "velocity": 70}, {"time": 755, "pitch": 72, "duration": 7, "velocity": 77}, {"time": 761, "pitch": 46, "duration": 2, "velocity": 75}, {"time": 761, "pitch": 53, "duration": 2, "velocity": 73}, {"time": 761, "pitch": 70, "duration": 2, "velocity": 80}, {"time": 764, "pitch": 67, "duration": 2, "velocity": 83}, {"time": 767, "pitch": 65, "duration": 3, "velocity": 90}, {"time": 770, "pitch": 63, "duration": 2, "velocity": 77}, {"time": 773, "pitch": 39, "duration": 3, "velocity": 79}, {"time": 773, "pitch": 63, "duration": 4, "velocity": 76}, {"time": 773, "pitch": 67, "duration": 7, "velocity": 77}, {"time": 779, "pitch": 51, "duration": 8, "velocity": 77}, {"time": 785, "pitch": 58, "duration": 4, "velocity": 75}, {"time": 785, "pitch": 63, "duration": 6, "velocity": 74}, {"time": 785, "pitch": 67, "duration": 1, "velocity": 58}, {"time": 791, "pitch": 55, "duration": 6, "velocity": 62}, {"time": 797, "pitch": 51, "duration": 15, "velocity": 76}, {"time": 797, "pitch": 58, "duration": 2, "velocity": 73}, {"time": 797, "pitch": 63, "duration": 3, "velocity": 74}, {"time": 797, "pitch": 67, "duration": 4, "velocity": 68}, {"time": 803, "pitch": 58, "duration": 10, "velocity": 63}, {"time": 809, "pitch": 63, "duration": 6, "velocity": 78}, {"time": 809, "pitch": 67, "duration": 5, "velocity": 80}, {"time": 815, "pitch": 51, "duration": 1, "velocity": 79}, {"time": 821, "pitch": 43, "duration": 15, "velocity": 80}, {"time": 821, "pitch": 55, "duration": 10, "velocity": 71}, {"time": 821, "pitch": 62, "duration": 8, "velocity": 68}, {"time": 827, "pitch": 50, "duration": 8, "velocity": 72}, {"time": 833, "pitch": 55, "duration": 3, "velocity": 77}, {"time": 833, "pitch": 58, "duration": 3, "velocity": 79}, {"time": 833, "pitch": 62, "duration": 4, "velocity": 77}, {"time": 839, "pitch": 43, "duration": 1, "velocity": 77}, {"time": 845, "pitch": 48, "duration": 15, "velocity": 78}, {"time": 845, "pitch": 60, "duration": 9, "velocity": 71}, {"time": 845, "pitch": 63, "duration": 9, "velocity": 76}, {"time": 851, "pitch": 55, "duration": 8, "velocity": 77}, {"time": 857, "pitch": 60, "duration": 4, "velocity": 77}, {"time": 857, "pitch": 63, "duration": 7, "velocity": 77}, {"time": 857, "pitch": 67, "duration": 11, "velocity": 73}, {"time": 863, "pitch": 48, "duration": 4, "velocity": 78}, {"time": 869, "pitch": 48, "duration": 15, "velocity": 76}, {"time": 869, "pitch": 60, "duration": 9, "velocity": 64}, {"time": 869, "pitch": 63, "duration": 9, "velocity": 72}, {"time": 875, "pitch": 55, "duration": 8, "velocity": 72}, {"time": 881, "pitch": 60, "duration": 3, "velocity": 76}, {"time": 881, "pitch": 63, "duration": 6, "velocity": 76}, {"time": 881, "pitch": 67, "duration": 6, "velocity": 77}, {"time": 887, "pitch": 60, "duration": 7, "velocity": 80}, {"time": 893, "pitch": 41, "duration": 18, "velocity": 77}, {"time": 893, "pitch": 65, "duration": 7, "velocity": 78}, {"time": 899, "pitch": 60, "duration": 5, "velocity": 80}, {"time": 905, "pitch": 48, "duration": 5, "velocity": 70}, {"time": 905, "pitch": 65, "duration": 4, "velocity": 79}, {"time": 908, "pitch": 63, "duration": 3, "velocity": 82}, {"time": 911, "pitch": 60, "duration": 3, "velocity": 83}, {"time": 917, "pitch": 46, "duration": 21, "velocity": 76}, {"time": 917, "pitch": 58, "duration": 5, "velocity": 69}, {"time": 917, "pitch": 63, "duration": 8, "velocity": 71}, {"time": 923, "pitch": 53, "duration": 9, "velocity": 82}, {"time": 929, "pitch": 58, "duration": 7, "velocity": 76}, {"time": 929, "pitch": 65, "duration": 6, "velocity": 78}, {"time": 935, "pitch": 63, "duration": 4, "velocity": 78}, {"time": 941, "pitch": 46, "duration": 12, "velocity": 78}, {"time": 941, "pitch": 58, "duration": 5, "velocity": 72}, {"time": 941, "pitch": 65, "duration": 5, "velocity": 77}, {"time": 947, "pitch": 53, "duration": 6, "velocity": 78}, {"time": 947, "pitch": 58, "duration": 5, "velocity": 74}, {"time": 953, "pitch": 58, "duration": 5, "velocity": 81}, {"time": 953, "pitch": 70, "duration": 6, "velocity": 78}, {"time": 956, "pitch": 46, "duration": 4, "velocity": 81}, {"time": 959, "pitch": 53, "duration": 1, "velocity": 82}, {"time": 962, "pitch": 58, "duration": 2, "velocity": 80}, {"time": 965, "pitch": 40, "duration": 18, "velocity": 79}, {"time": 965, "pitch": 64, "duration": 2, "velocity": 73}, {"time": 965, "pitch": 67, "duration": 3, "velocity": 69}, {"time": 965, "pitch": 70, "duration": 4, "velocity": 78}, {"time": 968, "pitch": 64, "duration": 5, "velocity": 69}, {"time": 971, "pitch": 67, "duration": 2, "velocity": 76}, {"time": 974, "pitch": 72, "duration": 5, "velocity": 80}, {"time": 977, "pitch": 64, "duration": 7, "velocity": 70}, {"time": 980, "pitch": 67, "duration": 6, "velocity": 72}, {"time": 983, "pitch": 72, "duration": 5, "velocity": 75}, {"time": 986, "pitch": 64, "duration": 2, "velocity": 49}, {"time": 989, "pitch": 41, "duration": 16, "velocity": 78}, {"time": 989, "pitch": 72, "duration": 5, "velocity": 76}, {"time": 992, "pitch": 48, "duration": 10, "velocity": 63}, {"time": 995, "pitch": 65, "duration": 4, "velocity": 77}, {"time": 998, "pitch": 68, "duration": 2, "velocity": 77}, {"time": 1001, "pitch": 65, "duration": 4, "velocity": 85}, {"time": 1001, "pitch": 68, "duration": 6, "velocity": 81}, {"time": 1001, "pitch": 72, "duration": 11, "velocity": 81}, {"time": 1004, "pitch": 48, "duration": 2, "velocity": 75}, {"time": 1007, "pitch": 41, "duration": 2, "velocity": 79}, {"time": 1013, "pitch": 46, "duration": 21, "velocity": 78}, {"time": 1013, "pitch": 65, "duration": 3, "velocity": 77}, {"time": 1013, "pitch": 70, "duration": 2, "velocity": 70}, {"time": 1016, "pitch": 53, "duration": 10, "velocity": 69}, {"time": 1019, "pitch": 58, "duration": 4, "velocity": 71}, {"time": 1022, "pitch": 65, "duration": 7, "velocity": 77}, {"time": 1025, "pitch": 58, "duration": 6, "velocity": 77}, {"time": 1028, "pitch": 62, "duration": 3, "velocity": 78}, {"time": 1031, "pitch": 70, "duration": 6, "velocity": 78}, {"time": 1034, "pitch": 58, "duration": 2, "velocity": 76}, {"time": 1037, "pitch": 39, "duration": 16, "velocity": 81}, {"time": 1037, "pitch": 58, "duration": 3, "velocity": 74}, {"time": 1037, "pitch": 63, "duration": 6, "velocity": 77}, {"time": 1040, "pitch": 46, "duration": 11, "velocity": 65}, {"time": 1043, "pitch": 58, "duration": 4, "velocity": 72}, {"time": 1046, "pitch": 63, "duration": 2, "velocity": 66}, {"time": 1049, "pitch": 58, "duration": 12, "velocity": 77}, {"time": 1049, "pitch": 63, "duration": 12, "velocity": 82}, {"time": 1049, "pitch": 67, "duration": 13, "velocity": 80}, {"time": 1055, "pitch": 39, "duration": 3, "velocity": 82}, {"time": 1061, "pitch": 46, "duration": 23, "velocity": 79}, {"time": 1061, "pitch": 58, "duration": 4, "velocity": 71}, {"time": 1061, "pitch": 70, "duration": 9, "velocity": 73}, {"time": 1064, "pitch": 53, "duration": 20, "velocity": 71}, {"time": 1067, "pitch": 58, "duration": 5, "velocity": 76}, {"time": 1070, "pitch": 62, "duration": 4, "velocity": 76}, {"time": 1073, "pitch": 65, "duration": 4, "velocity": 73}, {"time": 1076, "pitch": 58, "duration": 4, "velocity": 77}, {"time": 1079, "pitch": 62, "duration": 4, "velocity": 78}, {"time": 1082, "pitch": 65, "duration": 10, "velocity": 69}, {"time": 1085, "pitch": 46, "duration": 15, "velocity": 78}, {"time": 1085, "pitch": 70, "duration": 7, "velocity": 77}, {"time": 1091, "pitch": 53, "duration": 9, "velocity": 69}, {"time": 1097, "pitch": 58, "duration": 3, "velocity": 78}, {"time": 1097, "pitch": 62, "duration": 3, "velocity": 85}, {"time": 1097, "pitch": 65, "duration": 4, "velocity": 78}, {"time": 1103, "pitch": 46, "duration": 3, "velocity": 77}, {"time": 1109, "pitch": 48, "duration": 24, "velocity": 76}, {"time": 1109, "pitch": 60, "duration": 9, "velocity": 76}, {"time": 1109, "pitch": 67, "duration": 11, "velocity": 69}, {"time": 1115, "pitch": 55, "duration": 8, "velocity": 70}, {"time": 1121, "pitch": 60, "duration": 5, "velocity": 77}, {"time": 1121, "pitch": 63, "duration": 5, "velocity": 81}, {"time": 1124, "pitch": 55, "duration": 8, "velocity": 69}, {"time": 1127, "pitch": 60, "duration": 5, "velocity": 71}, {"time": 1127, "pitch": 63, "duration": 5, "velocity": 77}, {"time": 1130, "pitch": 65, "duration": 1, "velocity": 61}, {"time": 1133, "pitch": 53, "duration": 17, "velocity": 85}, {"time": 1133, "pitch": 65, "duration": 10, "velocity": 77}, {"time": 1139, "pitch": 60, "duration": 4, "velocity": 78}, {"time": 1145, "pitch": 60, "duration": 3, "velocity": 78}, {"time": 1145, "pitch": 65, "duration": 3, "velocity": 80}, {"time": 1148, "pitch": 63, "duration": 3, "velocity": 77}, {"time": 1151, "pitch": 60, "duration": 2, "velocity": 78}, {"time": 1157, "pitch": 46, "duration": 22, "velocity": 79}, {"time": 1157, "pitch": 58, "duration": 11, "velocity": 70}, {"time": 1157, "pitch": 65, "duration": 10, "velocity": 77}, {"time": 1163, "pitch": 53, "duration": 17, "velocity": 78}, {"time": 1169, "pitch": 70, "duration": 4, "velocity": 78}, {"time": 1172, "pitch": 65, "duration": 4, "velocity": 77}, {"time": 1175, "pitch": 58, "duration": 4, "velocity": 73}, {"time": 1178, "pitch": 65, "duration": 13, "velocity": 73}, {"time": 1181, "pitch": 46, "duration": 16, "velocity": 77}, {"time": 1184, "pitch": 53, "duration": 10, "velocity": 72}, {"time": 1187, "pitch": 58, "duration": 4, "velocity": 69}, {"time": 1190, "pitch": 62, "duration": 2, "velocity": 66}, {"time": 1193, "pitch": 58, "duration": 4, "velocity": 76}, {"time": 1193, "pitch": 62, "duration": 4, "velocity": 77}, {"time": 1193, "pitch": 65, "duration": 6, "velocity": 80}, {"time": 1193, "pitch": 70, "duration": 6, "velocity": 76}, {"time": 1196, "pitch": 53, "duration": 2, "velocity": 76}, {"time": 1199, "pitch": 46, "duration": 3, "velocity": 78}, {"time": 1205, "pitch": 48, "duration": 16, "velocity": 78}, {"time": 1205, "pitch": 60, "duration": 8, "velocity": 70}, {"time": 1205, "pitch": 63, "duration": 8, "velocity": 76}, {"time": 1211, "pitch": 55, "duration": 9, "velocity": 67}, {"time": 1217, "pitch": 60, "duration": 5, "velocity": 78}, {"time": 1217, "pitch": 63, "duration": 5, "velocity": 81}, {"time": 1217, "pitch": 67, "duration": 5, "velocity": 79}, {"time": 1223, "pitch": 48, "duration": 2, "velocity": 80}, {"time": 1229, "pitch": 41, "duration": 10, "velocity": 79}, {"time": 1229, "pitch": 60, "duration": 4, "velocity": 76}, {"time": 1229, "pitch": 65, "duration": 6, "velocity": 78}, {"time": 1235, "pitch": 60, "duration": 4, "velocity": 77}, {"time": 1241, "pitch": 41, "duration": 5, "velocity": 79}, {"time": 1241, "pitch": 60, "duration": 7, "velocity": 83}, {"time": 1241, "pitch": 65, "duration": 3, "velocity": 90}, {"time": 1247, "pitch": 63, "duration": 4, "velocity": 85}, {"time": 1253, "pitch": 48, "duration": 16, "velocity": 80}, {"time": 1253, "pitch": 60, "duration": 7, "velocity": 77}, {"time": 1253, "pitch": 63, "duration": 7, "velocity": 78}, {"time": 1253, "pitch": 67, "duration": 8, "velocity": 77}, {"time": 1259, "pitch": 55, "duration": 8, "velocity": 65}, {"time": 1265, "pitch": 60, "duration": 3, "velocity": 76}, {"time": 1265, "pitch": 63, "duration": 6, "velocity": 78}, {"time": 1265, "pitch": 67, "duration": 7, "velocity": 76}, {"time": 1277, "pitch": 39, "duration": 17, "velocity": 78}, {"time": 1277, "pitch": 58, "duration": 4, "velocity": 72}, {"time": 1277, "pitch": 67, "duration": 11, "velocity": 67}, {"time": 1283, "pitch": 58, "duration": 4, "velocity": 57}, {"time": 1289, "pitch": 46, "duration": 5, "velocity": 69}, {"time": 1289, "pitch": 58, "duration": 4, "velocity": 77}, {"time": 1289, "pitch": 63, "duration": 3, "velocity": 77}, {"time": 1295, "pitch": 62, "duration": 5, "velocity": 90}, {"time": 1301, "pitch": 48, "duration": 17, "velocity": 77}, {"time": 1301, "pitch": 60, "duration": 6, "velocity": 76}, {"time": 1301, "pitch": 63, "duration": 4, "velocity": 76}, {"time": 1307, "pitch": 55, "duration": 8, "velocity": 69}, {"time": 1313, "pitch": 63, "duration": 4, "velocity": 78}, {"time": 1313, "pitch": 67, "duration": 5, "velocity": 78}, {"time": 1319, "pitch": 58, "duration": 4, "velocity": 77}, {"time": 1322, "pitch": 60, "duration": 4, "velocity": 78}, {"time": 1325, "pitch": 39, "duration": 15, "velocity": 77}, {"time": 1325, "pitch": 63, "duration": 6, "velocity": 72}, {"time": 1331, "pitch": 46, "duration": 8, "velocity": 63}, {"time": 1337, "pitch": 58, "duration": 4, "velocity": 77}, {"time": 1337, "pitch": 63, "duration": 5, "velocity": 78}, {"time": 1343, "pitch": 39, "duration": 4, "velocity": 78}, {"time": 1349, "pitch": 41, "duration": 16, "velocity": 78}, {"time": 1349, "pitch": 60, "duration": 3, "velocity": 72}, {"time": 1349, "pitch": 65, "duration": 8, "velocity": 73}, {"time": 1355, "pitch": 60, "duration": 4, "velocity": 71}, {"time": 1361, "pitch": 60, "duration": 5, "velocity": 81}, {"time": 1361, "pitch": 65, "duration": 6, "velocity": 85}, {"time": 1367, "pitch": 63, "duration": 3, "velocity": 79}, {"time": 1370, "pitch": 60, "duration": 2, "velocity": 65}, {"time": 1373, "pitch": 46, "duration": 9, "velocity": 77}, {"time": 1373, "pitch": 63, "duration": 6, "velocity": 77}, {"time": 1379, "pitch": 58, "duration": 4, "velocity": 80}, {"time": 1385, "pitch": 46, "duration": 8, "velocity": 82}, {"time": 1385, "pitch": 53, "duration": 2, "velocity": 80}, {"time": 1385, "pitch": 58, "duration": 2, "velocity": 77}, {"time": 1385, "pitch": 62, "duration": 10, "velocity": 80}, {"time": 1391, "pitch": 53, "duration": 2, "velocity": 92}, {"time": 1394, "pitch": 58, "duration": 2, "velocity": 87}, {"time": 1397, "pitch": 39, "duration": 16, "velocity": 78}, {"time": 1397, "pitch": 58, "duration": 4, "velocity": 74}, {"time": 1397, "pitch": 63, "duration": 7, "velocity": 76}, {"time": 1403, "pitch": 46, "duration": 7, "velocity": 78}, {"time": 1409, "pitch": 58, "duration": 2, "velocity": 77}, {"time": 1409, "pitch": 63, "duration": 3, "velocity": 82}, {"time": 1409, "pitch": 67, "duration": 5, "velocity": 81}, {"time": 1412, "pitch": 46, "duration": 3, "velocity": 75}, {"time": 1415, "pitch": 63, "duration": 4, "velocity": 72}, {"time": 1418, "pitch": 58, "duration": 2, "velocity": 70}, {"time": 1421, "pitch": 39, "duration": 17, "velocity": 78}, {"time": 1421, "pitch": 58, "duration": 5, "velocity": 71}, {"time": 1421, "pitch": 63, "duration": 8, "velocity": 77}, {"time": 1427, "pitch": 46, "duration": 7, "velocity": 65}, {"time": 1430, "pitch": 58, "duration": 2, "velocity": 68}, {"time": 1433, "pitch": 58, "duration": 3, "velocity": 79}, {"time": 1433, "pitch": 63, "duration": 3, "velocity": 83}, {"time": 1433, "pitch": 67, "duration": 7, "velocity": 77}, {"time": 1436, "pitch": 46, "duration": 2, "velocity": 67}, {"time": 1439, "pitch": 58, "duration": 4, "velocity": 76}, {"time": 1445, "pitch": 48, "duration": 20, "velocity": 78}, {"time": 1445, "pitch": 60, "duration": 5, "velocity": 77}, {"time": 1445, "pitch": 63, "duration": 4, "velocity": 80}, {"time": 1451, "pitch": 55, "duration": 8, "velocity": 68}, {"time": 1451, "pitch": 63, "duration": 3, "velocity": 67}, {"time": 1454, "pitch": 60, "duration": 2, "velocity": 69}, {"time": 1457, "pitch": 60, "duration": 4, "velocity": 78}, {"time": 1457, "pitch": 63, "duration": 4, "velocity": 76}, {"time": 1457, "pitch": 67, "duration": 6, "velocity": 73}, {"time": 1460, "pitch": 55, "duration": 4, "velocity": 67}, {"time": 1463, "pitch": 63, "duration": 5, "velocity": 68}, {"time": 1466, "pitch": 60, "duration": 2, "velocity": 63}, {"time": 1469, "pitch": 48, "duration": 17, "velocity": 77}, {"time": 1469, "pitch": 60, "duration": 5, "velocity": 71}, {"time": 1469, "pitch": 63, "duration": 5, "velocity": 72}, {"time": 1475, "pitch": 55, "duration": 7, "velocity": 58}, {"time": 1475, "pitch": 63, "duration": 3, "velocity": 76}, {"time": 1478, "pitch": 60, "duration": 2, "velocity": 71}, {"time": 1481, "pitch": 60, "duration": 3, "velocity": 81}, {"time": 1481, "pitch": 63, "duration": 4, "velocity": 85}, {"time": 1481, "pitch": 67, "duration": 4, "velocity": 78}, {"time": 1484, "pitch": 55, "duration": 3, "velocity": 70}, {"time": 1487, "pitch": 60, "duration": 2, "velocity": 78}, {"time": 1493, "pitch": 48, "duration": 21, "velocity": 76}, {"time": 1493, "pitch": 60, "duration": 4, "velocity": 77}, {"time": 1493, "pitch": 67, "duration": 6, "velocity": 66}, {"time": 1496, "pitch": 55, "duration": 11, "velocity": 62}, {"time": 1499, "pitch": 63, "duration": 3, "velocity": 71}, {"time": 1502, "pitch": 60, "duration": 1, "velocity": 58}, {"time": 1505, "pitch": 60, "duration": 3, "velocity": 78}, {"time": 1505, "pitch": 67, "duration": 4, "velocity": 80}, {"time": 1508, "pitch": 55, "duration": 8, "velocity": 64}, {"time": 1511, "pitch": 63, "duration": 4, "velocity": 74}, {"time": 1514, "pitch": 60, "duration": 2, "velocity": 69}, {"time": 1517, "pitch": 48, "duration": 16, "velocity": 77}, {"time": 1517, "pitch": 60, "duration": 4, "velocity": 70}, {"time": 1517, "pitch": 63, "duration": 6, "velocity": 72}, {"time": 1520, "pitch": 55, "duration": 10, "velocity": 64}, {"time": 1523, "pitch": 60, "duration": 4, "velocity": 69}, {"time": 1526, "pitch": 63, "duration": 2, "velocity": 70}, {"time": 1529, "pitch": 60, "duration": 3, "velocity": 76}, {"time": 1529, "pitch": 63, "duration": 4, "velocity": 82}, {"time": 1529, "pitch": 67, "duration": 5, "velocity": 78}, {"time": 1532, "pitch": 55, "duration": 2, "velocity": 78}, {"time": 1535, "pitch": 48, "duration": 2, "velocity": 77}, {"time": 1538, "pitch": 60, "duration": 4, "velocity": 76}, {"time": 1541, "pitch": 41, "duration": 22, "velocity": 81}, {"time": 1541, "pitch": 60, "duration": 1, "velocity": 77}, {"time": 1541, "pitch": 65, "duration": 4, "velocity": 77}, {"time": 1544, "pitch": 48, "duration": 11, "velocity": 64}, {"time": 1547, "pitch": 60, "duration": 4, "velocity": 82}, {"time": 1550, "pitch": 65, "duration": 1, "velocity": 80}, {"time": 1553, "pitch": 60, "duration": 4, "velocity": 80}, {"time": 1553, "pitch": 65, "duration": 4, "velocity": 90}, {"time": 1553, "pitch": 68, "duration": 4, "velocity": 82}, {"time": 1556, "pitch": 48, "duration": 5, "velocity": 76}, {"time": 1559, "pitch": 60, "duration": 2, "velocity": 80}, {"time": 1562, "pitch": 60, "duration": 2, "velocity": 72}, {"time": 1562, "pitch": 65, "duration": 2, "velocity": 76}, {"time": 1565, "pitch": 41, "duration": 9, "velocity": 82}, {"time": 1565, "pitch": 60, "duration": 4, "velocity": 78}, {"time": 1565, "pitch": 65, "duration": 5, "velocity": 79}, {"time": 1568, "pitch": 48, "duration": 6, "velocity": 70}, {"time": 1571, "pitch": 60, "duration": 4, "velocity": 76}, {"time": 1574, "pitch": 65, "duration": 1, "velocity": 71}, {"time": 1577, "pitch": 46, "duration": 5, "velocity": 79}, {"time": 1577, "pitch": 58, "duration": 4, "velocity": 78}, {"time": 1577, "pitch": 62, "duration": 4, "velocity": 77}, {"time": 1580, "pitch": 53, "duration": 2, "velocity": 79}, {"time": 1583, "pitch": 58, "duration": 4, "velocity": 87}, {"time": 1586, "pitch": 62, "duration": 2, "velocity": 77}, {"time": 1589, "pitch": 39, "duration": 2, "velocity": 81}, {"time": 1589, "pitch": 58, "duration": 3, "velocity": 77}, {"time": 1589, "pitch": 63, "duration": 5, "velocity": 80}, {"time": 1592, "pitch": 58, "duration": 3, "velocity": 65}, {"time": 1595, "pitch": 63, "duration": 4, "velocity": 68}, {"time": 1598, "pitch": 58, "duration": 2, "velocity": 68}, {"time": 1601, "pitch": 55, "duration": 2, "velocity": 71}, {"time": 1601, "pitch": 58, "duration": 2, "velocity": 77}, {"time": 1601, "pitch": 63, "duration": 4, "velocity": 78}, {"time": 1601, "pitch": 67, "duration": 5, "velocity": 75}, {"time": 1604, "pitch": 58, "duration": 2, "velocity": 71}, {"time": 1607, "pitch": 63, "duration": 4, "velocity": 70}, {"time": 1610, "pitch": 58, "duration": 2, "velocity": 71}, {"time": 1613, "pitch": 39, "duration": 17, "velocity": 79}, {"time": 1613, "pitch": 58, "duration": 2, "velocity": 75}, {"time": 1613, "pitch": 63, "duration": 3, "velocity": 77}, {"time": 1616, "pitch": 58, "duration": 2, "velocity": 72}, {"time": 1619, "pitch": 63, "duration": 2, "velocity": 70}, {"time": 1622, "pitch": 58, "duration": 1, "velocity": 73}, {"time": 1625, "pitch": 58, "duration": 2, "velocity": 78}, {"time": 1625, "pitch": 63, "duration": 4, "velocity": 81}, {"time": 1625, "pitch": 67, "duration": 7, "velocity": 81}, {"time": 1628, "pitch": 58, "duration": 3, "velocity": 71}, {"time": 1631, "pitch": 63, "duration": 4, "velocity": 72}, {"time": 1634, "pitch": 58, "duration": 2, "velocity": 72}, {"time": 1637, "pitch": 48, "duration": 22, "velocity": 79}, {"time": 1637, "pitch": 60, "duration": 2, "velocity": 77}, {"time": 1637, "pitch": 63, "duration": 4, "velocity": 76}, {"time": 1640, "pitch": 60, "duration": 3, "velocity": 72}, {"time": 1643, "pitch": 63, "duration": 2, "velocity": 70}, {"time": 1646, "pitch": 60, "duration": 2, "velocity": 56}, {"time": 1649, "pitch": 60, "duration": 3, "velocity": 76}, {"time": 1649, "pitch": 63, "duration": 4, "velocity": 78}, {"time": 1649, "pitch": 67, "duration": 4, "velocity": 70}, {"time": 1652, "pitch": 55, "duration": 8, "velocity": 71}, {"time": 1655, "pitch": 60, "duration": 7, "velocity": 78}, {"time": 1658, "pitch": 63, "duration": 5, "velocity": 74}, {"time": 1661, "pitch": 48, "duration": 18, "velocity": 77}, {"time": 1661, "pitch": 72, "duration": 12, "velocity": 82}, {"time": 1664, "pitch": 55, "duration": 8, "velocity": 76}, {"time": 1667, "pitch": 67, "duration": 12, "velocity": 83}, {"time": 1670, "pitch": 60, "duration": 7, "velocity": 73}, {"time": 1673, "pitch": 55, "duration": 4, "velocity": 78}, {"time": 1676, "pitch": 63, "duration": 4, "velocity": 80}, {"time": 1679, "pitch": 60, "duration": 2, "velocity": 76}, {"time": 1685, "pitch": 46, "duration": 20, "velocity": 76}, {"time": 1685, "pitch": 58, "duration": 7, "velocity": 72}, {"time": 1685, "pitch": 62, "duration": 7, "velocity": 71}, {"time": 1691, "pitch": 65, "duration": 3, "velocity": 74}, {"time": 1697, "pitch": 58, "duration": 2, "velocity": 76}, {"time": 1697, "pitch": 70, "duration": 2, "velocity": 75}, {"time": 1703, "pitch": 62, "duration": 2, "velocity": 61}, {"time": 1703, "pitch": 65, "duration": 2, "velocity": 66}, {"time": 1709, "pitch": 41, "duration": 15, "velocity": 71}, {"time": 1709, "pitch": 60, "duration": 3, "velocity": 69}, {"time": 1709, "pitch": 65, "duration": 7, "velocity": 72}, {"time": 1715, "pitch": 60, "duration": 5, "velocity": 71}, {"time": 1721, "pitch": 60, "duration": 2, "velocity": 78}, {"time": 1721, "pitch": 65, "duration": 5, "velocity": 78}, {"time": 1727, "pitch": 60, "duration": 1, "velocity": 50}, {"time": 1733, "pitch": 46, "duration": 22, "velocity": 76}, {"time": 1733, "pitch": 58, "duration": 14, "velocity": 70}, {"time": 1733, "pitch": 65, "duration": 13, "velocity": 76}, {"time": 1739, "pitch": 53, "duration": 16, "velocity": 78}, {"time": 1745, "pitch": 62, "duration": 7, "velocity": 83}, {"time": 1751, "pitch": 65, "duration": 4, "velocity": 77}, {"time": 1757, "pitch": 46, "duration": 23, "velocity": 77}, {"time": 1757, "pitch": 58, "duration": 3, "velocity": 71}, {"time": 1757, "pitch": 70, "duration": 5, "velocity": 74}, {"time": 1769, "pitch": 70, "duration": 2, "velocity": 79}, {"time": 1769, "pitch": 82, "duration": 2, "velocity": 76}, {"time": 1772, "pitch": 77, "duration": 3, "velocity": 68}, {"time": 1775, "pitch": 70, "duration": 5, "velocity": 77}, {"time": 1781, "pitch": 39, "duration": 19, "velocity": 78}, {"time": 1781, "pitch": 58, "duration": 4, "velocity": 66}, {"time": 1781, "pitch": 63, "duration": 7, "velocity": 71}, {"time": 1787, "pitch": 46, "duration": 12, "velocity": 57}, {"time": 1793, "pitch": 63, "duration": 3, "velocity": 77}, {"time": 1793, "pitch": 67, "duration": 4, "velocity": 76}, {"time": 1805, "pitch": 63, "duration": 4, "velocity": 77}, {"time": 1805, "pitch": 67, "duration": 6, "velocity": 78}, {"time": 1811, "pitch": 58, "duration": 3, "velocity": 74}, {"time": 1817, "pitch": 58, "duration": 7, "velocity": 75}, {"time": 1817, "pitch": 63, "duration": 7, "velocity": 77}, {"time": 1817, "pitch": 67, "duration": 7, "velocity": 77}, {"time": 1823, "pitch": 39, "duration": 1, "velocity": 77}, {"time": 1829, "pitch": 46, "duration": 15, "velocity": 77}, {"time": 1829, "pitch": 58, "duration": 10, "velocity": 71}, {"time": 1829, "pitch": 62, "duration": 7, "velocity": 68}, {"time": 1835, "pitch": 53, "duration": 8, "velocity": 58}, {"time": 1841, "pitch": 62, "duration": 2, "velocity": 77}, {"time": 1841, "pitch": 65, "duration": 2, "velocity": 78}, {"time": 1847, "pitch": 53, "duration": 7, "velocity": 70}, {"time": 1853, "pitch": 58, "duration": 7, "velocity": 65}, {"time": 1853, "pitch": 62, "duration": 6, "velocity": 68}, {"time": 1853, "pitch": 65, "duration": 6, "velocity": 76}, {"time": 1859, "pitch": 53, "duration": 13, "velocity": 52}, {"time": 1865, "pitch": 58, "duration": 4, "velocity": 73}, {"time": 1865, "pitch": 62, "duration": 5, "velocity": 77}, {"time": 1865, "pitch": 65, "duration": 6, "velocity": 79}, {"time": 1871, "pitch": 62, "duration": 6, "velocity": 79}, {"time": 1877, "pitch": 48, "duration": 44, "velocity": 76}, {"time": 1877, "pitch": 60, "duration": 6, "velocity": 70}, {"time": 1877, "pitch": 63, "duration": 3, "velocity": 75}, {"time": 1883, "pitch": 55, "duration": 8, "velocity": 69}, {"time": 1889, "pitch": 60, "duration": 6, "velocity": 76}, {"time": 1889, "pitch": 67, "duration": 5, "velocity": 72}, {"time": 1895, "pitch": 55, "duration": 8, "velocity": 57}, {"time": 1901, "pitch": 60, "duration": 7, "velocity": 71}, {"time": 1901, "pitch": 63, "duration": 7, "velocity": 71}, {"time": 1907, "pitch": 55, "duration": 13, "velocity": 64}, {"time": 1913, "pitch": 63, "duration": 7, "velocity": 77}, {"time": 1913, "pitch": 67, "duration": 7, "velocity": 79}, {"time": 1919, "pitch": 60, "duration": 2, "velocity": 77}, {"time": 1925, "pitch": 46, "duration": 40, "velocity": 77}, {"time": 1925, "pitch": 58, "duration": 13, "velocity": 70}, {"time": 1925, "pitch": 62, "duration": 18, "velocity": 65}, {"time": 1931, "pitch": 53, "duration": 10, "velocity": 71}, {"time": 1937, "pitch": 65, "duration": 7, "velocity": 77}, {"time": 1943, "pitch": 58, "duration": 7, "velocity": 75}, {"time": 1949, "pitch": 62, "duration": 3, "velocity": 75}, {"time": 1949, "pitch": 65, "duration": 4, "velocity": 78}, {"time": 1949, "pitch": 70, "duration": 4, "velocity": 72}, {"time": 1955, "pitch": 53, "duration": 9, "velocity": 71}, {"time": 1961, "pitch": 58, "duration": 4, "velocity": 70}, {"time": 1961, "pitch": 62, "duration": 3, "velocity": 77}, {"time": 1961, "pitch": 65, "duration": 3, "velocity": 80}, {"time": 1967, "pitch": 58, "duration": 7, "velocity": 82}, {"time": 1973, "pitch": 39, "duration": 14, "velocity": 78}, {"time": 1973, "pitch": 63, "duration": 5, "velocity": 74}, {"time": 1979, "pitch": 58, "duration": 3, "velocity": 76}, {"time": 1985, "pitch": 63, "duration": 7, "velocity": 75}, {"time": 1985, "pitch": 67, "duration": 7, "velocity": 77}, {"time": 1991, "pitch": 58, "duration": 7, "velocity": 76}, {"time": 1997, "pitch": 51, "duration": 15, "velocity": 70}, {"time": 1997, "pitch": 63, "duration": 8, "velocity": 76}, {"time": 1997, "pitch": 67, "duration": 7, "velocity": 74}, {"time": 2003, "pitch": 58, "duration": 4, "velocity": 68}, {"time": 2009, "pitch": 58, "duration": 3, "velocity": 77}, {"time": 2009, "pitch": 63, "duration": 2, "velocity": 76}, {"time": 2009, "pitch": 67, "duration": 4, "velocity": 68}, {"time": 2015, "pitch": 62, "duration": 7, "velocity": 83}, {"time": 2021, "pitch": 48, "duration": 41, "velocity": 75}, {"time": 2021, "pitch": 60, "duration": 8, "velocity": 73}, {"time": 2021, "pitch": 63, "duration": 5, "velocity": 76}, {"time": 2027, "pitch": 55, "duration": 8, "velocity": 68}, {"time": 2033, "pitch": 60, "duration": 6, "velocity": 77}, {"time": 2033, "pitch": 63, "duration": 6, "velocity": 78}, {"time": 2033, "pitch": 67, "duration": 6, "velocity": 78}, {"time": 2039, "pitch": 55, "duration": 8, "velocity": 65}, {"time": 2045, "pitch": 60, "duration": 4, "velocity": 73}, {"time": 2045, "pitch": 63, "duration": 6, "velocity": 70}, {"time": 2051, "pitch": 60, "duration": 7, "velocity": 70}, {"time": 2057, "pitch": 55, "duration": 3, "velocity": 65}, {"time": 2057, "pitch": 63, "duration": 6, "velocity": 73}, {"time": 2063, "pitch": 60, "duration": 5, "velocity": 68}, {"time": 2069, "pitch": 41, "duration": 16, "velocity": 76}, {"time": 2069, "pitch": 65, "duration": 7, "velocity": 73}, {"time": 2075, "pitch": 60, "duration": 4, "velocity": 71}, {"time": 2081, "pitch": 60, "duration": 3, "velocity": 78}, {"time": 2081, "pitch": 65, "duration": 8, "velocity": 77}, {"time": 2087, "pitch": 60, "duration": 5, "velocity": 69}, {"time": 2093, "pitch": 41, "duration": 16, "velocity": 77}, {"time": 2093, "pitch": 65, "duration": 8, "velocity": 72}, {"time": 2093, "pitch": 68, "duration": 7, "velocity": 64}, {"time": 2099, "pitch": 60, "duration": 4, "velocity": 76}, {"time": 2105, "pitch": 60, "duration": 6, "velocity": 80}, {"time": 2105, "pitch": 65, "duration": 6, "velocity": 77}, {"time": 2111, "pitch": 41, "duration": 2, "velocity": 79}, {"time": 2117, "pitch": 46, "duration": 22, "velocity": 76}, {"time": 2117, "pitch": 58, "duration": 8, "velocity": 72}, {"time": 2117, "pitch": 62, "duration": 7, "velocity": 67}, {"time": 2123, "pitch": 65, "duration": 7, "velocity": 75}, {"time": 2129, "pitch": 70, "duration": 7, "velocity": 79}, {"time": 2135, "pitch": 58, "duration": 8, "velocity": 79}, {"time": 2141, "pitch": 46, "duration": 18, "velocity": 76}, {"time": 2141, "pitch": 62, "duration": 5, "velocity": 67}, {"time": 2141, "pitch": 65, "duration": 10, "velocity": 76}, {"time": 2147, "pitch": 53, "duration": 13, "velocity": 76}, {"time": 2153, "pitch": 63, "duration": 6, "velocity": 76}, {"time": 2159, "pitch": 62, "duration": 4, "velocity": 83}, {"time": 2165, "pitch": 39, "duration": 21, "velocity": 79}, {"time": 2165, "pitch": 58, "duration": 3, "velocity": 72}, {"time": 2165, "pitch": 67, "duration": 7, "velocity": 74}, {"time": 2171, "pitch": 58, "duration": 3, "velocity": 73}, {"time": 2177, "pitch": 58, "duration": 3, "velocity": 76}, {"time": 2177, "pitch": 67, "duration": 5, "velocity": 76}, {"time": 2183, "pitch": 65, "duration": 3, "velocity": 79}, {"time": 2189, "pitch": 39, "duration": 16, "velocity": 78}, {"time": 2189, "pitch": 58, "duration": 10, "velocity": 72}, {"time": 2189, "pitch": 67, "duration": 12, "velocity": 74}, {"time": 2195, "pitch": 46, "duration": 9, "velocity": 65}, {"time": 2201, "pitch": 58, "duration": 4, "velocity": 81}, {"time": 2201, "pitch": 63, "duration": 6, "velocity": 78}, {"time": 2207, "pitch": 39, "duration": 2, "velocity": 80}, {"time": 2213, "pitch": 48, "duration": 22, "velocity": 76}, {"time": 2213, "pitch": 60, "duration": 7, "velocity": 72}, {"time": 2213, "pitch": 63, "duration": 8, "velocity": 72}, {"time": 2219, "pitch": 55, "duration": 16, "velocity": 63}, {"time": 2225, "pitch": 60, "duration": 4, "velocity": 74}, {"time": 2225, "pitch": 63, "duration": 4, "velocity": 77}, {"time": 2225, "pitch": 67, "duration": 5, "velocity": 77}, {"time": 2231, "pitch": 65, "duration": 3, "velocity": 66}, {"time": 2234, "pitch": 63, "duration": 4, "velocity": 78}, {"time": 2237, "pitch": 48, "duration": 19, "velocity": 77}, {"time": 2237, "pitch": 65, "duration": 6, "velocity": 72}, {"time": 2243, "pitch": 63, "duration": 7, "velocity": 75}, {"time": 2249, "pitch": 60, "duration": 7, "velocity": 85}, {"time": 2255, "pitch": 55, "duration": 1, "velocity": 68}, {"time": 2261, "pitch": 41, "duration": 21, "velocity": 77}, {"time": 2261, "pitch": 65, "duration": 9, "velocity": 76}, {"time": 2267, "pitch": 48, "duration": 12, "velocity": 70}, {"time": 2273, "pitch": 60, "duration": 2, "velocity": 77}, {"time": 2273, "pitch": 65, "duration": 3, "velocity": 78}, {"time": 2279, "pitch": 56, "duration": 4, "velocity": 71}, {"time": 2285, "pitch": 41, "duration": 16, "velocity": 77}, {"time": 2285, "pitch": 56, "duration": 4, "velocity": 74}, {"time": 2285, "pitch": 60, "duration": 13, "velocity": 74}, {"time": 2297, "pitch": 65, "duration": 11, "velocity": 83}, {"time": 2303, "pitch": 41, "duration": 2, "velocity": 79}, {"time": 2303, "pitch": 56, "duration": 2, "velocity": 74}, {"time": 2309, "pitch": 46, "duration": 21, "velocity": 76}, {"time": 2309, "pitch": 58, "duration": 5, "velocity": 65}, {"time": 2309, "pitch": 62, "duration": 5, "velocity": 75}, {"time": 2315, "pitch": 53, "duration": 15, "velocity": 77}, {"time": 2321, "pitch": 65, "duration": 9, "velocity": 78}, {"time": 2327, "pitch": 58, "duration": 7, "velocity": 77}, {"time": 2333, "pitch": 46, "duration": 9, "velocity": 78}, {"time": 2333, "pitch": 70, "duration": 4, "velocity": 77}, {"time": 2339, "pitch": 53, "duration": 4, "velocity": 70}, {"time": 2339, "pitch": 72, "duration": 7, "velocity": 77}, {"time": 2345, "pitch": 46, "duration": 2, "velocity": 75}, {"time": 2345, "pitch": 53, "duration": 2, "velocity": 73}, {"time": 2345, "pitch": 70, "duration": 2, "velocity": 80}, {"time": 2348, "pitch": 67, "duration": 2, "velocity": 83}, {"time": 2351, "pitch": 65, "duration": 3, "velocity": 90}, {"time": 2354, "pitch": 63, "duration": 2, "velocity": 77}, {"time": 2357, "pitch": 39, "duration": 3, "velocity": 79}, {"time": 2357, "pitch": 63, "duration": 4, "velocity": 76}, {"time": 2357, "pitch": 67, "duration": 7, "velocity": 77}, {"time": 2363, "pitch": 51, "duration": 8, "velocity": 77}, {"time": 2369, "pitch": 58, "duration": 4, "velocity": 75}, {"time": 2369, "pitch": 63, "duration": 6, "velocity": 74}, {"time": 2369, "pitch": 67, "duration": 1, "velocity": 58}, {"time": 2375, "pitch": 55, "duration": 6, "velocity": 62}, {"time": 2381, "pitch": 51, "duration": 15, "velocity": 76}, {"time": 2381, "pitch": 58, "duration": 2, "velocity": 73}, {"time": 2381, "pitch": 63, "duration": 3, "velocity": 74}, {"time": 2381, "pitch": 67, "duration": 4, "velocity": 68}, {"time": 2387, "pitch": 58, "duration": 10, "velocity": 63}, {"time": 2393, "pitch": 63, "duration": 6, "velocity": 78}, {"time": 2393, "pitch": 67, "duration": 5, "velocity": 80}, {"time": 2399, "pitch": 51, "duration": 1, "velocity": 79}, {"time": 2405, "pitch": 43, "duration": 15, "velocity": 80}, {"time": 2405, "pitch": 55, "duration": 10, "velocity": 71}, {"time": 2405, "pitch": 62, "duration": 8, "velocity": 68}, {"time": 2411, "pitch": 50, "duration": 8, "velocity": 72}, {"time": 2417, "pitch": 55, "duration": 3, "velocity": 77}, {"time": 2417, "pitch": 58, "duration": 3, "velocity": 79}, {"time": 2417, "pitch": 62, "duration": 4, "velocity": 77}, {"time": 2423, "pitch": 43, "duration": 1, "velocity": 77}, {"time": 2429, "pitch": 48, "duration": 15, "velocity": 78}, {"time": 2429, "pitch": 60, "duration": 9, "velocity": 71}, {"time": 2429, "pitch": 63, "duration": 9, "velocity": 76}, {"time": 2435, "pitch": 55, "duration": 8, "velocity": 77}, {"time": 2441, "pitch": 60, "duration": 4, "velocity": 77}, {"time": 2441, "pitch": 63, "duration": 7, "velocity": 77}, {"time": 2441, "pitch": 67, "duration": 11, "velocity": 73}, {"time": 2447, "pitch": 48, "duration": 4, "velocity": 78}, {"time": 2453, "pitch": 48, "duration": 15, "velocity": 76}, {"time": 2453, "pitch": 60, "duration": 9, "velocity": 64}, {"time": 2453, "pitch": 63, "duration": 9, "velocity": 72}, {"time": 2459, "pitch": 55, "duration": 8, "velocity": 72}, {"time": 2465, "pitch": 60, "duration": 3, "velocity": 76}, {"time": 2465, "pitch": 63, "duration": 6, "velocity": 76}, {"time": 2465, "pitch": 67, "duration": 6, "velocity": 77}, {"time": 2471, "pitch": 60, "duration": 7, "velocity": 80}, {"time": 2477, "pitch": 41, "duration": 18, "velocity": 77}, {"time": 2477, "pitch": 65, "duration": 7, "velocity": 78}, {"time": 2483, "pitch": 60, "duration": 5, "velocity": 80}, {"time": 2489, "pitch": 48, "duration": 5, "velocity": 70}, {"time": 2489, "pitch": 65, "duration": 4, "velocity": 79}, {"time": 2492, "pitch": 63, "duration": 3, "velocity": 82}, {"time": 2495, "pitch": 60, "duration": 3, "velocity": 83}, {"time": 2501, "pitch": 46, "duration": 21, "velocity": 76}, {"time": 2501, "pitch": 58, "duration": 5, "velocity": 69}, {"time": 2501, "pitch": 63, "duration": 8, "velocity": 71}, {"time": 2507, "pitch": 53, "duration": 9, "velocity": 82}, {"time": 2513, "pitch": 58, "duration": 7, "velocity": 76}, {"time": 2513, "pitch": 65, "duration": 6, "velocity": 78}, {"time": 2519, "pitch": 63, "duration": 4, "velocity": 78}, {"time": 2525, "pitch": 46, "duration": 12, "velocity": 78}, {"time": 2525, "pitch": 58, "duration": 5, "velocity": 72}, {"time": 2525, "pitch": 65, "duration": 5, "velocity": 77}, {"time": 2531, "pitch": 53, "duration": 6, "velocity": 78}, {"time": 2531, "pitch": 58, "duration": 5, "velocity": 74}, {"time": 2537, "pitch": 58, "duration": 5, "velocity": 81}, {"time": 2537, "pitch": 70, "duration": 6, "velocity": 78}, {"time": 2540, "pitch": 46, "duration": 4, "velocity": 81}, {"time": 2543, "pitch": 53, "duration": 1, "velocity": 82}, {"time": 2546, "pitch": 58, "duration": 2, "velocity": 80}, {"time": 2549, "pitch": 40, "duration": 18, "velocity": 79}, {"time": 2549, "pitch": 64, "duration": 2, "velocity": 73}, {"time": 2549, "pitch": 67, "duration": 3, "velocity": 69}, {"time": 2549, "pitch": 70, "duration": 4, "velocity": 78}, {"time": 2552, "pitch": 64, "duration": 5, "velocity": 69}, {"time": 2555, "pitch": 67, "duration": 2, "velocity": 76}, {"time": 2558, "pitch": 72, "duration": 5, "velocity": 80}, {"time": 2561, "pitch": 64, "duration": 7, "velocity": 70}, {"time": 2564, "pitch": 67, "duration": 6, "velocity": 72}, {"time": 2567, "pitch": 72, "duration": 5, "velocity": 75}, {"time": 2570, "pitch": 64, "duration": 2, "velocity": 49}, {"time": 2573, "pitch": 41, "duration": 16, "velocity": 78}, {"time": 2573, "pitch": 72, "duration": 5, "velocity": 76}, {"time": 2576, "pitch": 48, "duration": 10, "velocity": 63}, {"time": 2579, "pitch": 65, "duration": 4, "velocity": 77}, {"time": 2582, "pitch": 68, "duration": 2, "velocity": 77}, {"time": 2585, "pitch": 65, "duration": 4, "velocity": 85}, {"time": 2585, "pitch": 68, "duration": 6, "velocity": 81}, {"time": 2585, "pitch": 72, "duration": 11, "velocity": 81}, {"time": 2588, "pitch": 48, "duration": 2, "velocity": 75}, {"time": 2591, "pitch": 41, "duration": 2, "velocity": 79}, {"time": 2597, "pitch": 46, "duration": 21, "velocity": 78}, {"time": 2597, "pitch": 65, "duration": 3, "velocity": 77}, {"time": 2597, "pitch": 70, "duration": 2, "velocity": 70}, {"time": 2600, "pitch": 53, "duration": 10, "velocity": 69}, {"time": 2603, "pitch": 58, "duration": 4, "velocity": 71}, {"time": 2606, "pitch": 65, "duration": 7, "velocity": 77}, {"time": 2609, "pitch": 58, "duration": 6, "velocity": 77}, {"time": 2612, "pitch": 62, "duration": 3, "velocity": 78}, {"time": 2615, "pitch": 70, "duration": 6, "velocity": 78}, {"time": 2618, "pitch": 58, "duration": 2, "velocity": 76}, {"time": 2621, "pitch": 39, "duration": 16, "velocity": 81}, {"time": 2621, "pitch": 58, "duration": 3, "velocity": 74}, {"time": 2621, "pitch": 63, "duration": 6, "velocity": 77}, {"time": 2624, "pitch": 46, "duration": 11, "velocity": 65}, {"time": 2627, "pitch": 58, "duration": 4, "velocity": 72}, {"time": 2630, "pitch": 63, "duration": 2, "velocity": 66}, {"time": 2633, "pitch": 58, "duration": 12, "velocity": 77}, {"time": 2633, "pitch": 63, "duration": 12, "velocity": 82}, {"time": 2633, "pitch": 67, "duration": 13, "velocity": 80}, {"time": 2639, "pitch": 39, "duration": 3, "velocity": 82}, {"time": 2645, "pitch": 46, "duration": 23, "velocity": 79}, {"time": 2645, "pitch": 58, "duration": 4, "velocity": 71}, {"time": 2645, "pitch": 70, "duration": 9, "velocity": 73}, {"time": 2648, "pitch": 53, "duration": 20, "velocity": 71}, {"time": 2651, "pitch": 58, "duration": 5, "velocity": 76}, {"time": 2654, "pitch": 62, "duration": 4, "velocity": 76}, {"time": 2657, "pitch": 65, "duration": 4, "velocity": 73}, {"time": 2660, "pitch": 58, "duration": 4, "velocity": 77}, {"time": 2663, "pitch": 62, "duration": 4, "velocity": 78}, {"time": 2666, "pitch": 65, "duration": 10, "velocity": 69}, {"time": 2669, "pitch": 46, "duration": 15, "velocity": 78}, {"time": 2669, "pitch": 70, "duration": 7, "velocity": 77}, {"time": 2675, "pitch": 53, "duration": 9, "velocity": 69}, {"time": 2681, "pitch": 58, "duration": 3, "velocity": 78}, {"time": 2681, "pitch": 62, "duration": 3, "velocity": 85}, {"time": 2681, "pitch": 65, "duration": 4, "velocity": 78}, {"time": 2687, "pitch": 46, "duration": 3, "velocity": 77}, {"time": 2693, "pitch": 48, "duration": 24, "velocity": 76}, {"time": 2693, "pitch": 60, "duration": 9, "velocity": 76}, {"time": 2693, "pitch": 67, "duration": 11, "velocity": 69}, {"time": 2699, "pitch": 55, "duration": 8, "velocity": 70}, {"time": 2705, "pitch": 60, "duration": 5, "velocity": 77}, {"time": 2705, "pitch": 63, "duration": 5, "velocity": 81}, {"time": 2708, "pitch": 55, "duration": 8, "velocity": 69}, {"time": 2711, "pitch": 60, "duration": 5, "velocity": 71}, {"time": 2711, "pitch": 63, "duration": 5, "velocity": 77}, {"time": 2714, "pitch": 65, "duration": 1, "velocity": 61}, {"time": 2717, "pitch": 53, "duration": 17, "velocity": 85}, {"time": 2717, "pitch": 65, "duration": 10, "velocity": 77}, {"time": 2723, "pitch": 60, "duration": 4, "velocity": 78}, {"time": 2729, "pitch": 60, "duration": 3, "velocity": 78}, {"time": 2729, "pitch": 65, "duration": 3, "velocity": 80}, {"time": 2732, "pitch": 63, "duration": 3, "velocity": 77}, {"time": 2735, "pitch": 60, "duration": 2, "velocity": 78}, {"time": 2741, "pitch": 46, "duration": 22, "velocity": 79}, {"time": 2741, "pitch": 58, "duration": 11, "velocity": 70}, {"time": 2741, "pitch": 65, "duration": 10, "velocity": 77}, {"time": 2747, "pitch": 53, "duration": 17, "velocity": 78}, {"time": 2753, "pitch": 70, "duration": 4, "velocity": 78}, {"time": 2756, "pitch": 65, "duration": 4, "velocity": 77}, {"time": 2759, "pitch": 58, "duration": 4, "velocity": 73}, {"time": 2762, "pitch": 65, "duration": 13, "velocity": 73}, {"time": 2765, "pitch": 46, "duration": 16, "velocity": 77}, {"time": 2768, "pitch": 53, "duration": 10, "velocity": 72}, {"time": 2771, "pitch": 58, "duration": 4, "velocity": 69}, {"time": 2774, "pitch": 62, "duration": 2, "velocity": 66}, {"time": 2777, "pitch": 58, "duration": 4, "velocity": 76}, {"time": 2777, "pitch": 62, "duration": 4, "velocity": 77}, {"time": 2777, "pitch": 65, "duration": 6, "velocity": 80}, {"time": 2777, "pitch": 70, "duration": 6, "velocity": 76}, {"time": 2780, "pitch": 53, "duration": 2, "velocity": 76}, {"time": 2783, "pitch": 46, "duration": 3, "velocity": 78}, {"time": 2789, "pitch": 48, "duration": 16, "velocity": 78}, {"time": 2789, "pitch": 60, "duration": 8, "velocity": 70}, {"time": 2789, "pitch": 63, "duration": 8, "velocity": 76}, {"time": 2795, "pitch": 55, "duration": 9, "velocity": 67}, {"time": 2801, "pitch": 60, "duration": 5, "velocity": 78}, {"time": 2801, "pitch": 63, "duration": 5, "velocity": 81}, {"time": 2801, "pitch": 67, "duration": 5, "velocity": 79}, {"time": 2807, "pitch": 48, "duration": 2, "velocity": 80}, {"time": 2813, "pitch": 41, "duration": 10, "velocity": 79}, {"time": 2813, "pitch": 60, "duration": 4, "velocity": 76}, {"time": 2813, "pitch": 65, "duration": 6, "velocity": 78}, {"time": 2819, "pitch": 60, "duration": 4, "velocity": 77}, {"time": 2825, "pitch": 41, "duration": 5, "velocity": 79}, {"time": 2825, "pitch": 60, "duration": 7, "velocity": 83}, {"time": 2825, "pitch": 65, "duration": 3, "velocity": 90}, {"time": 2831, "pitch": 63, "duration": 4, "velocity": 85}, {"time": 2837, "pitch": 48, "duration": 16, "velocity": 80}, {"time": 2837, "pitch": 60, "duration": 7, "velocity": 77}, {"time": 2837, "pitch": 63, "duration": 7, "velocity": 78}, {"time": 2837, "pitch": 67, "duration": 8, "velocity": 77}, {"time": 2843, "pitch": 55, "duration": 8, "velocity": 65}, {"time": 2849, "pitch": 60, "duration": 3, "velocity": 76}, {"time": 2849, "pitch": 63, "duration": 6, "velocity": 78}, {"time": 2849, "pitch": 67, "duration": 7, "velocity": 76}, {"time": 2861, "pitch": 39, "duration": 17, "velocity": 78}, {"time": 2861, "pitch": 58, "duration": 4, "velocity": 72}, {"time": 2861, "pitch": 67, "duration": 11, "velocity": 67}, {"time": 2867, "pitch": 58, "duration": 4, "velocity": 57}, {"time": 2873, "pitch": 46, "duration": 5, "velocity": 69}, {"time": 2873, "pitch": 58, "duration": 4, "velocity": 77}, {"time": 2873, "pitch": 63, "duration": 3, "velocity": 77}, {"time": 2879, "pitch": 62, "duration": 5, "velocity": 90}, {"time": 2885, "pitch": 48, "duration": 17, "velocity": 77}, {"time": 2885, "pitch": 60, "duration": 6, "velocity": 76}, {"time": 2885, "pitch": 63, "duration": 4, "velocity": 76}, {"time": 2891, "pitch": 55, "duration": 8, "velocity": 69}, {"time": 2897, "pitch": 63, "duration": 4, "velocity": 78}, {"time": 2897, "pitch": 67, "duration": 5, "velocity": 78}, {"time": 2903, "pitch": 58, "duration": 4, "velocity": 77}, {"time": 2906, "pitch": 60, "duration": 4, "velocity": 78}, {"time": 2909, "pitch": 39, "duration": 15, "velocity": 77}, {"time": 2909, "pitch": 63, "duration": 6, "velocity": 72}, {"time": 2915, "pitch": 46, "duration": 8, "velocity": 63}, {"time": 2921, "pitch": 58, "duration": 4, "velocity": 77}, {"time": 2921, "pitch": 63, "duration": 5, "velocity": 78}, {"time": 2927, "pitch": 39, "duration": 4, "velocity": 78}, {"time": 2933, "pitch": 41, "duration": 16, "velocity": 78}, {"time": 2933, "pitch": 60, "duration": 3, "velocity": 72}, {"time": 2933, "pitch": 65, "duration": 8, "velocity": 73}, {"time": 2939, "pitch": 60, "duration": 4, "velocity": 71}, {"time": 2945, "pitch": 60, "duration": 5, "velocity": 81}, {"time": 2945, "pitch": 65, "duration": 6, "velocity": 85}, {"time": 2951, "pitch": 63, "duration": 3, "velocity": 79}, {"time": 2954, "pitch": 60, "duration": 2, "velocity": 65}, {"time": 2957, "pitch": 46, "duration": 9, "velocity": 77}, {"time": 2957, "pitch": 63, "duration": 6, "velocity": 77}, {"time": 2963, "pitch": 58, "duration": 4, "velocity": 80}, {"time": 2969, "pitch": 46, "duration": 8, "velocity": 82}, {"time": 2969, "pitch": 53, "duration": 2, "velocity": 80}, {"time": 2969, "pitch": 58, "duration": 2, "velocity": 77}, {"time": 2969, "pitch": 62, "duration": 10, "velocity": 80}, {"time": 2975, "pitch": 53, "duration": 2, "velocity": 92}, {"time": 2978, "pitch": 58, "duration": 2, "velocity": 87}, {"time": 2981, "pitch": 40, "duration": 1, "velocity": 77}, {"time": 2981, "pitch": 67, "duration": 4, "velocity": 71}, {"time": 2981, "pitch": 64, "duration": 2, "velocity": 70}, {"time": 2984, "pitch": 64, "duration": 8, "velocity": 69}, {"time": 2987, "pitch": 67, "duration": 9, "velocity": 69}, {"time": 2991, "pitch": 70, "duration": 5, "velocity": 62}, {"time": 2994, "pitch": 60, "duration": 6, "velocity": 57}, {"time": 2996, "pitch": 64, "duration": 6, "velocity": 70}, {"time": 2999, "pitch": 67, "duration": 4, "velocity": 78}, {"time": 3001, "pitch": 72, "duration": 5, "velocity": 75}, {"time": 3004, "pitch": 41, "duration": 21, "velocity": 77}, {"time": 3008, "pitch": 48, "duration": 16, "velocity": 64}, {"time": 3011, "pitch": 53, "duration": 3, "velocity": 75}, {"time": 3014, "pitch": 55, "duration": 2, "velocity": 79}, {"time": 3017, "pitch": 56, "duration": 5, "velocity": 80}, {"time": 3020, "pitch": 60, "duration": 8, "velocity": 81}, {"time": 3023, "pitch": 65, "duration": 10, "velocity": 77}, {"time": 3026, "pitch": 56, "duration": 3, "velocity": 71}, {"time": 3029, "pitch": 46, "duration": 21, "velocity": 77}, {"time": 3032, "pitch": 53, "duration": 17, "velocity": 71}, {"time": 3035, "pitch": 58, "duration": 4, "velocity": 76}, {"time": 3041, "pitch": 63, "duration": 4, "velocity": 76}, {"time": 3041, "pitch": 58, "duration": 3, "velocity": 77}, {"time": 3047, "pitch": 58, "duration": 4, "velocity": 76}, {"time": 3047, "pitch": 65, "duration": 4, "velocity": 76}, {"time": 3052, "pitch": 39, "duration": 21, "velocity": 80}, {"time": 3055, "pitch": 46, "duration": 12, "velocity": 59}, {"time": 3058, "pitch": 58, "duration": 5, "velocity": 77}, {"time": 3061, "pitch": 63, "duration": 2, "velocity": 77}, {"time": 3064, "pitch": 67, "duration": 7, "velocity": 82}, {"time": 3064, "pitch": 63, "duration": 2, "velocity": 72}, {"time": 3067, "pitch": 58, "duration": 4, "velocity": 79}, {"time": 3070, "pitch": 63, "duration": 6, "velocity": 77}, {"time": 3073, "pitch": 58, "duration": 4, "velocity": 76}, {"time": 3075, "pitch": 60, "duration": 3, "velocity": 68}, {"time": 3076, "pitch": 65, "duration": 3, "velocity": 72}, {"time": 3076, "pitch": 41, "duration": 14, "velocity": 81}, {"time": 3076, "pitch": 68, "duration": 6, "velocity": 73}, {"time": 3079, "pitch": 48, "duration": 11, "velocity": 72}, {"time": 3082, "pitch": 60, "duration": 5, "velocity": 75}, {"time": 3085, "pitch": 65, "duration": 4, "velocity": 80}, {"time": 3088, "pitch": 68, "duration": 5, "velocity": 74}, {"time": 3091, "pitch": 60, "duration": 4, "velocity": 78}, {"time": 3094, "pitch": 65, "duration": 4, "velocity": 77}, {"time": 3098, "pitch": 68, "duration": 2, "velocity": 76}, {"time": 3101, "pitch": 53, "duration": 13, "velocity": 77}, {"time": 3104, "pitch": 60, "duration": 10, "velocity": 70}, {"time": 3107, "pitch": 65, "duration": 9, "velocity": 78}, {"time": 3110, "pitch": 72, "duration": 7, "velocity": 72}, {"time": 3123, "pitch": 58, "duration": 3, "velocity": 66}, {"time": 3124, "pitch": 62, "duration": 4, "velocity": 62}, {"time": 3124, "pitch": 46, "duration": 6, "velocity": 77}, {"time": 3125, "pitch": 65, "duration": 5, "velocity": 75}, {"time": 3125, "pitch": 70, "duration": 5, "velocity": 70}, {"time": 3127, "pitch": 53, "duration": 3, "velocity": 70}, {"time": 3130, "pitch": 58, "duration": 4, "velocity": 80}, {"time": 3134, "pitch": 65, "duration": 1, "velocity": 77}, {"time": 3137, "pitch": 58, "duration": 36, "velocity": 76}, {"time": 3140, "pitch": 65, "duration": 33, "velocity": 71}, {"time": 3144, "pitch": 70, "duration": 4, "velocity": 80}, {"time": 3147, "pitch": 75, "duration": 1, "velocity": 87}, {"time": 3151, "pitch": 77, "duration": 1, "velocity": 92}, {"time": 3155, "pitch": 82, "duration": 1, "velocity": 79}, {"time": 3159, "pitch": 84, "duration": 2, "velocity": 63}, {"time": 3163, "pitch": 87, "duration": 2, "velocity": 67}, {"time": 3168, "pitch": 89, "duration": 1, "velocity": 71}, {"time": 3186, "pitch": 46, "duration": 64, "velocity": 76}, {"time": 3190, "pitch": 53, "duration": 60, "velocity": 72}, {"time": 3193, "pitch": 58, "duration": 3, "velocity": 79}, {"time": 3196, "pitch": 65, "duration": 1, "velocity": 69}, {"time": 3200, "pitch": 70, "duration": 1, "velocity": 66}, {"time": 3204, "pitch": 72, "duration": 2, "velocity": 72}, {"time": 3208, "pitch": 75, "duration": 2, "velocity": 78}, {"time": 3212, "pitch": 77, "duration": 2, "velocity": 68}, {"time": 3218, "pitch": 82, "duration": 2, "velocity": 51}, {"time": 3223, "pitch": 84, "duration": 2, "velocity": 66}, {"time": 3228, "pitch": 86, "duration": 2, "velocity": 60}, {"time": 3231, "pitch": 87, "duration": 1, "velocity": 60}, {"time": 3233, "pitch": 89, "duration": 2, "velocity": 69}, {"time": 3236, "pitch": 91, "duration": 2, "velocity": 64}, {"time": 3240, "pitch": 94, "duration": 4, "velocity": 67}], "annotations": [{"time": 4, "annotation": {"number": 64, "value": 127}, "group": "control_change"}, {"time": 51, "annotation": {"number": 64, "value": 0}, "group": "control_change"}, {"time": 53, "annotation": {"number": 64, "value": 127}, "group": "control_change"}, {"time": 77, "annotation": {"number": 64, "value": 127}, "group": "control_change"}, {"time": 100, "annotation": {"number": 64, "value": 0}, "group": "control_change"}, {"time": 102, "annotation": {"number": 64, "value": 127}, "group": "control_change"}, {"time": 123, "annotation": {"number": 64, "value": 0}, "group": "control_change"}, {"time": 124, "annotation": {"number": 64, "value": 127}, "group": "control_change"}, {"time": 148, "annotation": {"number": 64, "value": 0}, "group": "control_change"}, {"time": 149, "annotation": {"number": 64, "value": 127}, "group": "control_change"}, {"time": 172, "annotation": {"number": 64, "value": 0}, "group": "control_change"}, {"time": 173, "annotation": {"number": 64, "value": 127}, "group": "control_change"}, {"time": 192, "annotation": {"number": 64, "value": 0}, "group": "control_change"}, {"time": 244, "annotation": {"number": 64, "value": 0}, "group": "control_change"}, {"time": 245, "annotation": {"number": 64, "value": 127}, "group": "control_change"}, {"time": 291, "annotation": {"number": 64, "value": 0}, "group": "control_change"}, {"time": 293, "annotation": {"number": 64, "value": 127}, "group": "control_change"}, {"time": 331, "annotation": {"number": 64, "value": 0}, "group": "control_change"}, {"time": 333, "annotation": {"number": 64, "value": 127}, "group": "control_change"}, {"time": 340, "annotation": {"number": 64, "value": 0}, "group": "control_change"}, {"time": 347, "annotation": {"number": 64, "value": 127}, "group": "control_change"}, {"time": 387, "annotation": {"number": 64, "value": 0}, "group": "control_change"}, {"time": 389, "annotation": {"number": 64, "value": 127}, "group": "control_change"}, {"time": 411, "annotation": {"number": 64, "value": 0}, "group": "control_change"}, {"time": 413, "annotation": {"number": 64, "value": 127}, "group": "control_change"}, {"time": 435, "annotation": {"number": 64, "value": 0}, "group": "control_change"}, {"time": 438, "annotation": {"number": 64, "value": 127}, "group": "control_change"}, {"time": 484, "annotation": {"number": 64, "value": 0}, "group": "control_change"}, {"time": 485, "annotation": {"number": 64, "value": 127}, "group": "control_change"}, {"time": 508, "annotation": {"number": 64, "value": 0}, "group": "control_change"}, {"time": 509, "annotation": {"number": 64, "value": 127}, "group": "control_change"}, {"time": 531, "annotation": {"number": 64, "value": 0}, "group": "control_change"}, {"time": 533, "annotation": {"number": 64, "value": 127}, "group": "control_change"}, {"time": 556, "annotation": {"number": 64, "value": 0}, "group": "control_change"}, {"time": 558, "annotation": {"number": 64, "value": 127}, "group": "control_change"}, {"time": 581, "annotation": {"number": 64, "value": 0}, "group": "control_change"}, {"time": 608, "annotation": {"number": 64, "value": 0}, "group": "control_change"}, {"time": 612, "annotation": {"number": 64, "value": 127}, "group": "control_change"}, {"time": 628, "annotation": {"number": 64, "value": 0}, "group": "control_change"}, {"time": 630, "annotation": {"number": 64, "value": 127}, "group": "control_change"}, {"time": 652, "annotation": {"number": 64, "value": 0}, "group": "control_change"}, {"time": 654, "annotation": {"number": 64, "value": 127}, "group": "control_change"}, {"time": 675, "annotation": {"number": 64, "value": 0}, "group": "control_change"}, {"time": 678, "annotation": {"number": 64, "value": 127}, "group": "control_change"}, {"time": 700, "annotation": {"number": 64, "value": 0}, "group": "control_change"}, {"time": 701, "annotation": {"number": 64, "value": 127}, "group": "control_change"}, {"time": 724, "annotation": {"number": 64, "value": 0}, "group": "control_change"}, {"time": 726, "annotation": {"number": 64, "value": 127}, "group": "control_change"}, {"time": 747, "annotation": {"number": 64, "value": 0}, "group": "control_change"}, {"time": 748, "annotation": {"number": 64, "value": 127}, "group": "control_change"}, {"time": 771, "annotation": {"number": 64, "value": 0}, "group": "control_change"}, {"time": 773, "annotation": {"number": 64, "value": 127}, "group": "control_change"}, {"time": 795, "annotation": {"number": 64, "value": 0}, "group": "control_change"}, {"time": 796, "annotation": {"number": 64, "value": 127}, "group": "control_change"}, {"time": 821, "annotation": {"number": 64, "value": 0}, "group": "control_change"}, {"time": 822, "annotation": {"number": 64, "value": 127}, "group": "control_change"}, {"time": 845, "annotation": {"number": 64, "value": 0}, "group": "control_change"}, {"time": 848, "annotation": {"number": 64, "value": 127}, "group": "control_change"}, {"time": 867, "annotation": {"number": 64, "value": 0}, "group": "control_change"}, {"time": 869, "annotation": {"number": 64, "value": 127}, "group": "control_change"}, {"time": 891, "annotation": {"number": 64, "value": 0}, "group": "control_change"}, {"time": 893, "annotation": {"number": 64, "value": 127}, "group": "control_change"}, {"time": 916, "annotation": {"number": 64, "value": 0}, "group": "control_change"}, {"time": 918, "annotation": {"number": 64, "value": 127}, "group": "control_change"}, {"time": 940, "annotation": {"number": 64, "value": 0}, "group": "control_change"}, {"time": 941, "annotation": {"number": 64, "value": 127}, "group": "control_change"}, {"time": 963, "annotation": {"number": 64, "value": 0}, "group": "control_change"}, {"time": 965, "annotation": {"number": 64, "value": 127}, "group": "control_change"}, {"time": 987, "annotation": {"number": 64, "value": 0}, "group": "control_change"}, {"time": 989, "annotation": {"number": 64, "value": 127}, "group": "control_change"}, {"time": 1011, "annotation": {"number": 64, "value": 0}, "group": "control_change"}, {"time": 1013, "annotation": {"number": 64, "value": 127}, "group": "control_change"}, {"time": 1036, "annotation": {"number": 64, "value": 0}, "group": "control_change"}, {"time": 1037, "annotation": {"number": 64, "value": 127}, "group": "control_change"}, {"time": 1060, "annotation": {"number": 64, "value": 0}, "group": "control_change"}, {"time": 1062, "annotation": {"number": 64, "value": 127}, "group": "control_change"}, {"time": 1084, "annotation": {"number": 64, "value": 0}, "group": "control_change"}, {"time": 1085, "annotation": {"number": 64, "value": 127}, "group": "control_change"}, {"time": 1108, "annotation": {"number": 64, "value": 0}, "group": "control_change"}, {"time": 1110, "annotation": {"number": 64, "value": 127}, "group": "control_change"}, {"time": 1132, "annotation": {"number": 64, "value": 0}, "group": "control_change"}, {"time": 1134, "annotation": {"number": 64, "value": 127}, "group": "control_change"}, {"time": 1156, "annotation": {"number": 64, "value": 0}, "group": "control_change"}, {"time": 1158, "annotation": {"number": 64, "value": 127}, "group": "control_change"}, {"time": 1180, "annotation": {"number": 64, "value": 0}, "group": "control_change"}, {"time": 1181, "annotation": {"number": 64, "value": 127}, "group": "control_change"}, {"time": 1203, "annotation": {"number": 64, "value": 0}, "group": "control_change"}, {"time": 1205, "annotation": {"number": 64, "value": 127}, "group": "control_change"}, {"time": 1228, "annotation": {"number": 64, "value": 0}, "group": "control_change"}, {"time": 1230, "annotation": {"number": 64, "value": 127}, "group": "control_change"}, {"time": 1251, "annotation": {"number": 64, "value": 0}, "group": "control_change"}, {"time": 1253, "annotation": {"number": 64, "value": 127}, "group": "control_change"}, {"time": 1276, "annotation": {"number": 64, "value": 0}, "group": "control_change"}, {"time": 1278, "annotation": {"number": 64, "value": 127}, "group": "control_change"}, {"time": 1299, "annotation": {"number": 64, "value": 0}, "group": "control_change"}, {"time": 1302, "annotation": {"number": 64, "value": 127}, "group": "control_change"}, {"time": 1323, "annotation": {"number": 64, "value": 0}, "group": "control_change"}, {"time": 1325, "annotation": {"number": 64, "value": 127}, "group": "control_change"}, {"time": 1346, "annotation": {"number": 64, "value": 0}, "group": "control_change"}, {"time": 1348, "annotation": {"number": 64, "value": 127}, "group": "control_change"}, {"time": 1372, "annotation": {"number": 64, "value": 0}, "group": "control_change"}, {"time": 1374, "annotation": {"number": 64, "value": 127}, "group": "control_change"}, {"time": 1396, "annotation": {"number": 64, "value": 0}, "group": "control_change"}, {"time": 1398, "annotation": {"number": 64, "value": 127}, "group": "control_change"}, {"time": 1420, "annotation": {"number": 64, "value": 0}, "group": "control_change"}, {"time": 1422, "annotation": {"number": 64, "value": 127}, "group": "control_change"}, {"time": 1444, "annotation": {"number": 64, "value": 0}, "group": "control_change"}, {"time": 1445, "annotation": {"number": 64, "value": 127}, "group": "control_change"}, {"time": 1467, "annotation": {"number": 64, "value": 0}, "group": "control_change"}, {"time": 1469, "annotation": {"number": 64, "value": 127}, "group": "control_change"}, {"time": 1491, "annotation": {"number": 64, "value": 0}, "group": "control_change"}, {"time": 1493, "annotation": {"number": 64, "value": 127}, "group": "control_change"}, {"time": 1516, "annotation": {"number": 64, "value": 0}, "group": "control_change"}, {"time": 1518, "annotation": {"number": 64, "value": 127}, "group": "control_change"}, {"time": 1540, "annotation": {"number": 64, "value": 0}, "group": "control_change"}, {"time": 1542, "annotation": {"number": 64, "value": 127}, "group": "control_change"}, {"time": 1565, "annotation": {"number": 64, "value": 0}, "group": "control_change"}, {"time": 1566, "annotation": {"number": 64, "value": 127}, "group": "control_change"}, {"time": 1576, "annotation": {"number": 64, "value": 0}, "group": "control_change"}, {"time": 1577, "annotation": {"number": 64, "value": 127}, "group": "control_change"}, {"time": 1587, "annotation": {"number": 64, "value": 0}, "group": "control_change"}, {"time": 1588, "annotation": {"number": 64, "value": 127}, "group": "control_change"}, {"time": 1613, "annotation": {"number": 64, "value": 0}, "group": "control_change"}, {"time": 1614, "annotation": {"number": 64, "value": 127}, "group": "control_change"}, {"time": 1636, "annotation": {"number": 64, "value": 0}, "group": "control_change"}, {"time": 1637, "annotation": {"number": 64, "value": 127}, "group": "control_change"}, {"time": 1660, "annotation": {"number": 64, "value": 0}, "group": "control_change"}, {"time": 1661, "annotation": {"number": 64, "value": 127}, "group": "control_change"}, {"time": 1683, "annotation": {"number": 64, "value": 0}, "group": "control_change"}, {"time": 1685, "annotation": {"number": 64, "value": 127}, "group": "control_change"}, {"time": 1708, "annotation": {"number": 64, "value": 0}, "group": "control_change"}, {"time": 1709, "annotation": {"number": 64, "value": 127}, "group": "control_change"}, {"time": 1731, "annotation": {"number": 64, "value": 0}, "group": "control_change"}, {"time": 1736, "annotation": {"number": 64, "value": 127}, "group": "control_change"}, {"time": 1779, "annotation": {"number": 64, "value": 0}, "group": "control_change"}, {"time": 1828, "annotation": {"number": 64, "value": 0}, "group": "control_change"}, {"time": 1829, "annotation": {"number": 64, "value": 127}, "group": "control_change"}, {"time": 1875, "annotation": {"number": 64, "value": 0}, "group": "control_change"}, {"time": 1877, "annotation": {"number": 64, "value": 127}, "group": "control_change"}, {"time": 1915, "annotation": {"number": 64, "value": 0}, "group": "control_change"}, {"time": 1917, "annotation": {"number": 64, "value": 127}, "group": "control_change"}, {"time": 1924, "annotation": {"number": 64, "value": 0}, "group": "control_change"}, {"time": 1931, "annotation": {"number": 64, "value": 127}, "group": "control_change"}, {"time": 1971, "annotation": {"number": 64, "value": 0}, "group": "control_change"}, {"time": 1973, "annotation": {"number": 64, "value": 127}, "group": "control_change"}, {"time": 1995, "annotation": {"number": 64, "value": 0}, "group": "control_change"}, {"time": 1997, "annotation": {"number": 64, "value": 127}, "group": "control_change"}, {"time": 2019, "annotation": {"number": 64, "value": 0}, "group": "control_change"}, {"time": 2022, "annotation": {"number": 64, "value": 127}, "group": "control_change"}, {"time": 2068, "annotation": {"number": 64, "value": 0}, "group": "control_change"}, {"time": 2069, "annotation": {"number": 64, "value": 127}, "group": "control_change"}, {"time": 2092, "annotation": {"number": 64, "value": 0}, "group": "control_change"}, {"time": 2093, "annotation": {"number": 64, "value": 127}, "group": "control_change"}, {"time": 2115, "annotation": {"number": 64, "value": 0}, "group": "control_change"}, {"time": 2117, "annotation": {"number": 64, "value": 127}, "group": "control_change"}, {"time": 2140, "annotation": {"number": 64, "value": 0}, "group": "control_change"}, {"time": 2142, "annotation": {"number": 64, "value": 127}, "group": "control_change"}, {"time": 2165, "annotation": {"number": 64, "value": 0}, "group": "control_change"}, {"time": 2192, "annotation": {"number": 64, "value": 0}, "group": "control_change"}, {"time": 2196, "annotation": {"number": 64, "value": 127}, "group": "control_change"}, {"time": 2212, "annotation": {"number": 64, "value": 0}, "group": "control_change"}, {"time": 2214, "annotation": {"number": 64, "value": 127}, "group": "control_change"}, {"time": 2236, "annotation": {"number": 64, "value": 0}, "group": "control_change"}, {"time": 2238, "annotation": {"number": 64, "value": 127}, "group": "control_change"}, {"time": 2259, "annotation": {"number": 64, "value": 0}, "group": "control_change"}, {"time": 2262, "annotation": {"number": 64, "value": 127}, "group": "control_change"}, {"time": 2284, "annotation": {"number": 64, "value": 0}, "group": "control_change"}, {"time": 2285, "annotation": {"number": 64, "value": 127}, "group": "control_change"}, {"time": 2308, "annotation": {"number": 64, "value": 0}, "group": "control_change"}, {"time": 2310, "annotation": {"number": 64, "value": 127}, "group": "control_change"}, {"time": 2331, "annotation": {"number": 64, "value": 0}, "group": "control_change"}, {"time": 2332, "annotation": {"number": 64, "value": 127}, "group": "control_change"}, {"time": 2355, "annotation": {"number": 64, "value": 0}, "group": "control_change"}, {"time": 2357, "annotation": {"number": 64, "value": 127}, "group": "control_change"}, {"time": 2379, "annotation": {"number": 64, "value": 0}, "group": "control_change"}, {"time": 2380, "annotation": {"number": 64, "value": 127}, "group": "control_change"}, {"time": 2405, "annotation": {"number": 64, "value": 0}, "group": "control_change"}, {"time": 2406, "annotation": {"number": 64, "value": 127}, "group": "control_change"}, {"time": 2429, "annotation": {"number": 64, "value": 0}, "group": "control_change"}, {"time": 2432, "annotation": {"number": 64, "value": 127}, "group": "control_change"}, {"time": 2451, "annotation": {"number": 64, "value": 0}, "group": "control_change"}, {"time": 2453, "annotation": {"number": 64, "value": 127}, "group": "control_change"}, {"time": 2475, "annotation": {"number": 64, "value": 0}, "group": "control_change"}, {"time": 2477, "annotation": {"number": 64, "value": 127}, "group": "control_change"}, {"time": 2500, "annotation": {"number": 64, "value": 0}, "group": "control_change"}, {"time": 2502, "annotation": {"number": 64, "value": 127}, "group": "control_change"}, {"time": 2524, "annotation": {"number": 64, "value": 0}, "group": "control_change"}, {"time": 2525, "annotation": {"number": 64, "value": 127}, "group": "control_change"}, {"time": 2547, "annotation": {"number": 64, "value": 0}, "group": "control_change"}, {"time": 2549, "annotation": {"number": 64, "value": 127}, "group": "control_change"}, {"time": 2571, "annotation": {"number": 64, "value": 0}, "group": "control_change"}, {"time": 2573, "annotation": {"number": 64, "value": 127}, "group": "control_change"}, {"time": 2595, "annotation": {"number": 64, "value": 0}, "group": "control_change"}, {"time": 2597, "annotation": {"number": 64, "value": 127}, "group": "control_change"}, {"time": 2620, "annotation": {"number": 64, "value": 0}, "group": "control_change"}, {"time": 2621, "annotation": {"number": 64, "value": 127}, "group": "control_change"}, {"time": 2644, "annotation": {"number": 64, "value": 0}, "group": "control_change"}, {"time": 2646, "annotation": {"number": 64, "value": 127}, "group": "control_change"}, {"time": 2668, "annotation": {"number": 64, "value": 0}, "group": "control_change"}, {"time": 2669, "annotation": {"number": 64, "value": 127}, "group": "control_change"}, {"time": 2692, "annotation": {"number": 64, "value": 0}, "group": "control_change"}, {"time": 2694, "annotation": {"number": 64, "value": 127}, "group": "control_change"}, {"time": 2716, "annotation": {"number": 64, "value": 0}, "group": "control_change"}, {"time": 2718, "annotation": {"number": 64, "value": 127}, "group": "control_change"}, {"time": 2740, "annotation": {"number": 64, "value": 0}, "group": "control_change"}, {"time": 2742, "annotation": {"number": 64, "value": 127}, "group": "control_change"}, {"time": 2764, "annotation": {"number": 64, "value": 0}, "group": "control_change"}, {"time": 2765, "annotation": {"number": 64, "value": 127}, "group": "control_change"}, {"time": 2787, "annotation": {"number": 64, "value": 0}, "group": "control_change"}, {"time": 2789, "annotation": {"number": 64, "value": 127}, "group": "control_change"}, {"time": 2812, "annotation": {"number": 64, "value": 0}, "group": "control_change"}, {"time": 2814, "annotation": {"number": 64, "value": 127}, "group": "control_change"}, {"time": 2835, "annotation": {"number": 64, "value": 0}, "group": "control_change"}, {"time": 2837, "annotation": {"number": 64, "value": 127}, "group": "control_change"}, {"time": 2860, "annotation": {"number": 64, "value": 0}, "group": "control_change"}, {"time": 2862, "annotation": {"number": 64, "value": 127}, "group": "control_change"}, {"time": 2883, "annotation": {"number": 64, "value": 0}, "group": "control_change"}, {"time": 2886, "annotation": {"number": 64, "value": 127}, "group": "control_change"}, {"time": 2907, "annotation": {"number": 64, "value": 0}, "group": "control_change"}, {"time": 2909, "annotation": {"number": 64, "value": 127}, "group": "control_change"}, {"time": 2930, "annotation": {"number": 64, "value": 0}, "group": "control_change"}, {"time": 2932, "annotation": {"number": 64, "value": 127}, "group": "control_change"}, {"time": 2956, "annotation": {"number": 64, "value": 0}, "group": "control_change"}, {"time": 2958, "annotation": {"number": 64, "value": 127}, "group": "control_change"}, {"time": 2980, "annotation": {"number": 64, "value": 0}, "group": "control_change"}, {"time": 2980, "annotation": {"number": 64, "value": 127}, "group": "control_change"}, {"time": 3003, "annotation": {"number": 64, "value": 0}, "group": "control_change"}, {"time": 3005, "annotation": {"number": 64, "value": 127}, "group": "control_change"}, {"time": 3028, "annotation": {"number": 64, "value": 0}, "group": "control_change"}, {"time": 3030, "annotation": {"number": 64, "value": 127}, "group": "control_change"}, {"time": 3048, "annotation": {"number": 64, "value": 127}, "group": "control_change"}, {"time": 3050, "annotation": {"number": 64, "value": 0}, "group": "control_change"}, {"time": 3052, "annotation": {"number": 64, "value": 0}, "group": "control_change"}, {"time": 3053, "annotation": {"number": 64, "value": 127}, "group": "control_change"}, {"time": 3065, "annotation": {"number": 64, "value": 0}, "group": "control_change"}, {"time": 3076, "annotation": {"number": 64, "value": 0}, "group": "control_change"}, {"time": 3076, "annotation": {"number": 64, "value": 127}, "group": "control_change"}, {"time": 3123, "annotation": {"number": 64, "value": 0}, "group": "control_change"}, {"time": 3124, "annotation": {"number": 64, "value": 127}, "group": "control_change"}, {"time": 3189, "annotation": {"number": 64, "value": 127}, "group": "control_change"}]}]}