{"metadata": {"schema_version": "0.2", "title": "None", "source_filename": "706.mid", "source_format": "midi"}, "resolution": 12, "tempos": [{"time": 0, "qpm": 75.0}, {"time": 2192, "qpm": 74.70017218389688}, {"time": 2336, "qpm": 75.0}], "time_signatures": [{"time": 0, "numerator": 1, "denominator": 4}], "tracks": [{"program": 0, "is_drum": false, "name": "MELODY", "notes": [{"time": 407, "pitch": 66, "duration": 5, "velocity": 88}, {"time": 413, "pitch": 66, "duration": 4, "velocity": 88}, {"time": 419, "pitch": 66, "duration": 4, "velocity": 87}, {"time": 425, "pitch": 68, "duration": 5, "velocity": 87}, {"time": 431, "pitch": 71, "duration": 11, "velocity": 87}, {"time": 455, "pitch": 73, "duration": 4, "velocity": 89}, {"time": 461, "pitch": 75, "duration": 5, "velocity": 89}, {"time": 467, "pitch": 73, "duration": 5, "velocity": 93}, {"time": 473, "pitch": 71, "duration": 6, "velocity": 90}, {"time": 479, "pitch": 68, "duration": 16, "velocity": 87}, {"time": 497, "pitch": 75, "duration": 5, "velocity": 87}, {"time": 503, "pitch": 73, "duration": 5, "velocity": 90}, {"time": 509, "pitch": 75, "duration": 11, "velocity": 91}, {"time": 521, "pitch": 73, "duration": 2, "velocity": 87}, {"time": 524, "pitch": 75, "duration": 2, "velocity": 86}, {"time": 527, "pitch": 73, "duration": 5, "velocity": 91}, {"time": 533, "pitch": 71, "duration": 6, "velocity": 89}, {"time": 539, "pitch": 68, "duration": 6, "velocity": 88}, {"time": 545, "pitch": 78, "duration": 11, "velocity": 88}, {"time": 557, "pitch": 75, "duration": 25, "velocity": 85}, {"time": 599, "pitch": 66, "duration": 5, "velocity": 88}, {"time": 605, "pitch": 66, "duration": 4, "velocity": 88}, {"time": 611, "pitch": 66, "duration": 4, "velocity": 87}, {"time": 617, "pitch": 68, "duration": 5, "velocity": 87}, {"time": 623, "pitch": 71, "duration": 11, "velocity": 87}, {"time": 647, "pitch": 73, "duration": 4, "velocity": 89}, {"time": 653, "pitch": 75, "duration": 5, "velocity": 89}, {"time": 659, "pitch": 73, "duration": 5, "velocity": 93}, {"time": 665, "pitch": 71, "duration": 6, "velocity": 90}, {"time": 671, "pitch": 68, "duration": 16, "velocity": 87}, {"time": 689, "pitch": 75, "duration": 5, "velocity": 87}, {"time": 695, "pitch": 73, "duration": 5, "velocity": 90}, {"time": 701, "pitch": 75, "duration": 11, "velocity": 91}, {"time": 713, "pitch": 73, "duration": 2, "velocity": 87}, {"time": 716, "pitch": 75, "duration": 2, "velocity": 86}, {"time": 719, "pitch": 73, "duration": 5, "velocity": 91}, {"time": 725, "pitch": 71, "duration": 12, "velocity": 89}, {"time": 737, "pitch": 68, "duration": 6, "velocity": 88}, {"time": 743, "pitch": 71, "duration": 6, "velocity": 88}, {"time": 749, "pitch": 71, "duration": 25, "velocity": 85}, {"time": 791, "pitch": 73, "duration": 5, "velocity": 91}, {"time": 797, "pitch": 75, "duration": 6, "velocity": 90}, {"time": 803, "pitch": 73, "duration": 5, "velocity": 93}, {"time": 809, "pitch": 71, "duration": 6, "velocity": 87}, {"time": 815, "pitch": 75, "duration": 20, "velocity": 90}, {"time": 839, "pitch": 73, "duration": 4, "velocity": 88}, {"time": 845, "pitch": 75, "duration": 5, "velocity": 86}, {"time": 851, "pitch": 73, "duration": 5, "velocity": 91}, {"time": 857, "pitch": 71, "duration": 6, "velocity": 93}, {"time": 863, "pitch": 68, "duration": 16, "velocity": 85}, {"time": 881, "pitch": 75, "duration": 5, "velocity": 89}, {"time": 887, "pitch": 73, "duration": 5, "velocity": 98}, {"time": 893, "pitch": 75, "duration": 17, "velocity": 89}, {"time": 911, "pitch": 73, "duration": 4, "velocity": 93}, {"time": 917, "pitch": 71, "duration": 12, "velocity": 87}, {"time": 929, "pitch": 73, "duration": 6, "velocity": 93}, {"time": 935, "pitch": 75, "duration": 6, "velocity": 82}, {"time": 941, "pitch": 73, "duration": 27, "velocity": 92}, {"time": 983, "pitch": 73, "duration": 5, "velocity": 90}, {"time": 989, "pitch": 75, "duration": 5, "velocity": 88}, {"time": 995, "pitch": 73, "duration": 4, "velocity": 94}, {"time": 1001, "pitch": 71, "duration": 4, "velocity": 88}, {"time": 1007, "pitch": 75, "duration": 17, "velocity": 89}, {"time": 1031, "pitch": 73, "duration": 4, "velocity": 89}, {"time": 1037, "pitch": 75, "duration": 5, "velocity": 89}, {"time": 1043, "pitch": 73, "duration": 5, "velocity": 91}, {"time": 1049, "pitch": 71, "duration": 6, "velocity": 86}, {"time": 1055, "pitch": 68, "duration": 17, "velocity": 84}, {"time": 1073, "pitch": 75, "duration": 5, "velocity": 89}, {"time": 1079, "pitch": 73, "duration": 5, "velocity": 91}, {"time": 1085, "pitch": 75, "duration": 10, "velocity": 90}, {"time": 1097, "pitch": 75, "duration": 2, "velocity": 87}, {"time": 1100, "pitch": 75, "duration": 2, "velocity": 89}, {"time": 1103, "pitch": 73, "duration": 5, "velocity": 92}, {"time": 1109, "pitch": 71, "duration": 5, "velocity": 89}, {"time": 1115, "pitch": 73, "duration": 4, "velocity": 91}, {"time": 1121, "pitch": 75, "duration": 4, "velocity": 88}, {"time": 1127, "pitch": 78, "duration": 36, "velocity": 85}, {"time": 1163, "pitch": 75, "duration": 5, "velocity": 94}, {"time": 1169, "pitch": 78, "duration": 5, "velocity": 91}, {"time": 1175, "pitch": 80, "duration": 12, "velocity": 88}, {"time": 1187, "pitch": 83, "duration": 13, "velocity": 90}, {"time": 1199, "pitch": 80, "duration": 10, "velocity": 88}, {"time": 1211, "pitch": 80, "duration": 6, "velocity": 91}, {"time": 1217, "pitch": 75, "duration": 5, "velocity": 83}, {"time": 1223, "pitch": 78, "duration": 5, "velocity": 88}, {"time": 1229, "pitch": 78, "duration": 4, "velocity": 88}, {"time": 1235, "pitch": 78, "duration": 4, "velocity": 88}, {"time": 1241, "pitch": 80, "duration": 6, "velocity": 88}, {"time": 1247, "pitch": 75, "duration": 11, "velocity": 91}, {"time": 1259, "pitch": 75, "duration": 5, "velocity": 89}, {"time": 1265, "pitch": 78, "duration": 5, "velocity": 90}, {"time": 1271, "pitch": 80, "duration": 4, "velocity": 87}, {"time": 1277, "pitch": 80, "duration": 4, "velocity": 83}, {"time": 1283, "pitch": 80, "duration": 5, "velocity": 86}, {"time": 1289, "pitch": 83, "duration": 5, "velocity": 86}, {"time": 1295, "pitch": 80, "duration": 4, "velocity": 89}, {"time": 1301, "pitch": 78, "duration": 5, "velocity": 89}, {"time": 1307, "pitch": 75, "duration": 5, "velocity": 91}, {"time": 1313, "pitch": 73, "duration": 6, "velocity": 94}, {"time": 1319, "pitch": 78, "duration": 6, "velocity": 87}, {"time": 1325, "pitch": 75, "duration": 25, "velocity": 84}, {"time": 1361, "pitch": 75, "duration": 2, "velocity": 91}, {"time": 1364, "pitch": 73, "duration": 3, "velocity": 88}, {"time": 1367, "pitch": 75, "duration": 4, "velocity": 93}, {"time": 1373, "pitch": 79, "duration": 4, "velocity": 76}, {"time": 1385, "pitch": 79, "duration": 4, "velocity": 94}, {"time": 1391, "pitch": 80, "duration": 4, "velocity": 88}, {"time": 1397, "pitch": 82, "duration": 9, "velocity": 89}, {"time": 1409, "pitch": 83, "duration": 8, "velocity": 93}, {"time": 1421, "pitch": 82, "duration": 10, "velocity": 88}, {"time": 1433, "pitch": 80, "duration": 9, "velocity": 88}, {"time": 1445, "pitch": 80, "duration": 4, "velocity": 93}, {"time": 1451, "pitch": 83, "duration": 5, "velocity": 92}, {"time": 1457, "pitch": 80, "duration": 11, "velocity": 93}, {"time": 1475, "pitch": 83, "duration": 5, "velocity": 93}, {"time": 1481, "pitch": 80, "duration": 4, "velocity": 93}, {"time": 1487, "pitch": 80, "duration": 8, "velocity": 91}, {"time": 1499, "pitch": 75, "duration": 4, "velocity": 89}, {"time": 1505, "pitch": 75, "duration": 11, "velocity": 89}, {"time": 1517, "pitch": 73, "duration": 26, "velocity": 91}, {"time": 1547, "pitch": 75, "duration": 5, "velocity": 94}, {"time": 1553, "pitch": 78, "duration": 5, "velocity": 91}, {"time": 1559, "pitch": 80, "duration": 12, "velocity": 88}, {"time": 1571, "pitch": 83, "duration": 13, "velocity": 90}, {"time": 1583, "pitch": 80, "duration": 10, "velocity": 88}, {"time": 1595, "pitch": 80, "duration": 6, "velocity": 91}, {"time": 1601, "pitch": 75, "duration": 5, "velocity": 83}, {"time": 1607, "pitch": 78, "duration": 5, "velocity": 88}, {"time": 1613, "pitch": 78, "duration": 4, "velocity": 88}, {"time": 1619, "pitch": 78, "duration": 4, "velocity": 88}, {"time": 1625, "pitch": 80, "duration": 6, "velocity": 88}, {"time": 1631, "pitch": 75, "duration": 11, "velocity": 91}, {"time": 1643, "pitch": 75, "duration": 5, "velocity": 89}, {"time": 1649, "pitch": 78, "duration": 5, "velocity": 90}, {"time": 1655, "pitch": 80, "duration": 4, "velocity": 87}, {"time": 1661, "pitch": 80, "duration": 4, "velocity": 83}, {"time": 1667, "pitch": 80, "duration": 5, "velocity": 86}, {"time": 1673, "pitch": 83, "duration": 5, "velocity": 86}, {"time": 1679, "pitch": 80, "duration": 4, "velocity": 89}, {"time": 1685, "pitch": 78, "duration": 5, "velocity": 89}, {"time": 1691, "pitch": 75, "duration": 5, "velocity": 91}, {"time": 1697, "pitch": 73, "duration": 6, "velocity": 94}, {"time": 1703, "pitch": 78, "duration": 6, "velocity": 87}, {"time": 1709, "pitch": 75, "duration": 25, "velocity": 84}, {"time": 1745, "pitch": 75, "duration": 2, "velocity": 91}, {"time": 1748, "pitch": 73, "duration": 3, "velocity": 88}, {"time": 1751, "pitch": 75, "duration": 4, "velocity": 93}, {"time": 1757, "pitch": 79, "duration": 6, "velocity": 76}, {"time": 1769, "pitch": 79, "duration": 4, "velocity": 94}, {"time": 1775, "pitch": 80, "duration": 4, "velocity": 88}, {"time": 1781, "pitch": 82, "duration": 9, "velocity": 89}, {"time": 1793, "pitch": 83, "duration": 8, "velocity": 93}, {"time": 1805, "pitch": 82, "duration": 10, "velocity": 88}, {"time": 1817, "pitch": 80, "duration": 9, "velocity": 88}, {"time": 1829, "pitch": 80, "duration": 4, "velocity": 93}, {"time": 1835, "pitch": 83, "duration": 5, "velocity": 92}, {"time": 1841, "pitch": 80, "duration": 11, "velocity": 93}, {"time": 1853, "pitch": 80, "duration": 7, "velocity": 85}, {"time": 1859, "pitch": 75, "duration": 5, "velocity": 88}, {"time": 1865, "pitch": 73, "duration": 11, "velocity": 90}, {"time": 1877, "pitch": 75, "duration": 4, "velocity": 88}, {"time": 1883, "pitch": 73, "duration": 5, "velocity": 89}, {"time": 1889, "pitch": 68, "duration": 10, "velocity": 88}, {"time": 1901, "pitch": 71, "duration": 36, "velocity": 88}, {"time": 2327, "pitch": 66, "duration": 5, "velocity": 88}, {"time": 2333, "pitch": 66, "duration": 4, "velocity": 88}, {"time": 2339, "pitch": 66, "duration": 4, "velocity": 87}, {"time": 2345, "pitch": 68, "duration": 5, "velocity": 87}, {"time": 2351, "pitch": 71, "duration": 11, "velocity": 87}, {"time": 2375, "pitch": 73, "duration": 4, "velocity": 89}, {"time": 2381, "pitch": 75, "duration": 5, "velocity": 89}, {"time": 2387, "pitch": 73, "duration": 5, "velocity": 93}, {"time": 2393, "pitch": 71, "duration": 6, "velocity": 90}, {"time": 2399, "pitch": 68, "duration": 16, "velocity": 87}, {"time": 2417, "pitch": 75, "duration": 5, "velocity": 87}, {"time": 2423, "pitch": 73, "duration": 5, "velocity": 90}, {"time": 2429, "pitch": 75, "duration": 11, "velocity": 91}, {"time": 2441, "pitch": 73, "duration": 2, "velocity": 87}, {"time": 2444, "pitch": 75, "duration": 2, "velocity": 86}, {"time": 2447, "pitch": 73, "duration": 5, "velocity": 91}, {"time": 2453, "pitch": 71, "duration": 6, "velocity": 89}, {"time": 2459, "pitch": 68, "duration": 6, "velocity": 88}, {"time": 2465, "pitch": 78, "duration": 11, "velocity": 88}, {"time": 2477, "pitch": 75, "duration": 25, "velocity": 85}, {"time": 2519, "pitch": 66, "duration": 5, "velocity": 88}, {"time": 2525, "pitch": 66, "duration": 4, "velocity": 88}, {"time": 2531, "pitch": 66, "duration": 4, "velocity": 87}, {"time": 2537, "pitch": 68, "duration": 5, "velocity": 87}, {"time": 2543, "pitch": 71, "duration": 11, "velocity": 87}, {"time": 2567, "pitch": 73, "duration": 4, "velocity": 89}, {"time": 2573, "pitch": 75, "duration": 5, "velocity": 89}, {"time": 2579, "pitch": 73, "duration": 5, "velocity": 93}, {"time": 2585, "pitch": 71, "duration": 6, "velocity": 90}, {"time": 2591, "pitch": 68, "duration": 16, "velocity": 87}, {"time": 2609, "pitch": 75, "duration": 5, "velocity": 87}, {"time": 2615, "pitch": 73, "duration": 5, "velocity": 90}, {"time": 2621, "pitch": 75, "duration": 11, "velocity": 91}, {"time": 2633, "pitch": 73, "duration": 2, "velocity": 87}, {"time": 2636, "pitch": 75, "duration": 2, "velocity": 86}, {"time": 2639, "pitch": 73, "duration": 5, "velocity": 91}, {"time": 2645, "pitch": 71, "duration": 12, "velocity": 89}, {"time": 2657, "pitch": 68, "duration": 6, "velocity": 88}, {"time": 2663, "pitch": 71, "duration": 6, "velocity": 88}, {"time": 2669, "pitch": 71, "duration": 25, "velocity": 85}, {"time": 2711, "pitch": 73, "duration": 5, "velocity": 91}, {"time": 2717, "pitch": 75, "duration": 6, "velocity": 90}, {"time": 2723, "pitch": 73, "duration": 5, "velocity": 93}, {"time": 2729, "pitch": 71, "duration": 6, "velocity": 87}, {"time": 2735, "pitch": 75, "duration": 20, "velocity": 90}, {"time": 2759, "pitch": 73, "duration": 4, "velocity": 88}, {"time": 2765, "pitch": 75, "duration": 5, "velocity": 86}, {"time": 2771, "pitch": 73, "duration": 5, "velocity": 91}, {"time": 2777, "pitch": 71, "duration": 6, "velocity": 93}, {"time": 2783, "pitch": 68, "duration": 16, "velocity": 85}, {"time": 2801, "pitch": 75, "duration": 5, "velocity": 89}, {"time": 2807, "pitch": 73, "duration": 5, "velocity": 98}, {"time": 2813, "pitch": 75, "duration": 17, "velocity": 89}, {"time": 2831, "pitch": 73, "duration": 4, "velocity": 93}, {"time": 2837, "pitch": 71, "duration": 12, "velocity": 87}, {"time": 2849, "pitch": 73, "duration": 6, "velocity": 93}, {"time": 2855, "pitch": 75, "duration": 6, "velocity": 82}, {"time": 2861, "pitch": 73, "duration": 27, "velocity": 92}, {"time": 2903, "pitch": 73, "duration": 5, "velocity": 90}, {"time": 2909, "pitch": 75, "duration": 5, "velocity": 88}, {"time": 2915, "pitch": 73, "duration": 4, "velocity": 94}, {"time": 2921, "pitch": 71, "duration": 4, "velocity": 88}, {"time": 2927, "pitch": 75, "duration": 17, "velocity": 89}, {"time": 2951, "pitch": 73, "duration": 4, "velocity": 89}, {"time": 2957, "pitch": 75, "duration": 5, "velocity": 89}, {"time": 2963, "pitch": 73, "duration": 5, "velocity": 91}, {"time": 2969, "pitch": 71, "duration": 6, "velocity": 86}, {"time": 2975, "pitch": 68, "duration": 17, "velocity": 84}, {"time": 2993, "pitch": 75, "duration": 5, "velocity": 89}, {"time": 2999, "pitch": 73, "duration": 5, "velocity": 91}, {"time": 3005, "pitch": 75, "duration": 10, "velocity": 90}, {"time": 3017, "pitch": 75, "duration": 2, "velocity": 87}, {"time": 3020, "pitch": 75, "duration": 2, "velocity": 89}, {"time": 3023, "pitch": 73, "duration": 5, "velocity": 92}, {"time": 3029, "pitch": 71, "duration": 5, "velocity": 89}, {"time": 3035, "pitch": 73, "duration": 4, "velocity": 91}, {"time": 3041, "pitch": 75, "duration": 4, "velocity": 88}, {"time": 3047, "pitch": 78, "duration": 36, "velocity": 85}, {"time": 3083, "pitch": 75, "duration": 5, "velocity": 94}, {"time": 3089, "pitch": 78, "duration": 5, "velocity": 91}, {"time": 3095, "pitch": 80, "duration": 12, "velocity": 88}, {"time": 3107, "pitch": 83, "duration": 13, "velocity": 90}, {"time": 3119, "pitch": 80, "duration": 10, "velocity": 88}, {"time": 3131, "pitch": 80, "duration": 6, "velocity": 91}, {"time": 3137, "pitch": 75, "duration": 5, "velocity": 83}, {"time": 3143, "pitch": 78, "duration": 5, "velocity": 88}, {"time": 3149, "pitch": 78, "duration": 4, "velocity": 88}, {"time": 3155, "pitch": 78, "duration": 4, "velocity": 88}, {"time": 3161, "pitch": 80, "duration": 6, "velocity": 88}, {"time": 3167, "pitch": 75, "duration": 11, "velocity": 91}, {"time": 3179, "pitch": 75, "duration": 5, "velocity": 89}, {"time": 3185, "pitch": 78, "duration": 5, "velocity": 90}, {"time": 3191, "pitch": 80, "duration": 4, "velocity": 87}, {"time": 3197, "pitch": 80, "duration": 4, "velocity": 83}, {"time": 3203, "pitch": 80, "duration": 5, "velocity": 86}, {"time": 3209, "pitch": 83, "duration": 5, "velocity": 86}, {"time": 3215, "pitch": 80, "duration": 4, "velocity": 89}, {"time": 3221, "pitch": 78, "duration": 5, "velocity": 89}, {"time": 3227, "pitch": 75, "duration": 5, "velocity": 91}, {"time": 3233, "pitch": 73, "duration": 6, "velocity": 94}, {"time": 3239, "pitch": 78, "duration": 6, "velocity": 87}, {"time": 3245, "pitch": 75, "duration": 25, "velocity": 84}, {"time": 3281, "pitch": 75, "duration": 2, "velocity": 91}, {"time": 3284, "pitch": 73, "duration": 3, "velocity": 88}, {"time": 3287, "pitch": 75, "duration": 4, "velocity": 93}, {"time": 3293, "pitch": 79, "duration": 4, "velocity": 76}, {"time": 3305, "pitch": 79, "duration": 4, "velocity": 94}, {"time": 3311, "pitch": 80, "duration": 4, "velocity": 88}, {"time": 3317, "pitch": 82, "duration": 9, "velocity": 89}, {"time": 3329, "pitch": 83, "duration": 8, "velocity": 93}, {"time": 3341, "pitch": 82, "duration": 10, "velocity": 88}, {"time": 3353, "pitch": 80, "duration": 9, "velocity": 88}, {"time": 3365, "pitch": 80, "duration": 4, "velocity": 93}, {"time": 3371, "pitch": 83, "duration": 5, "velocity": 92}, {"time": 3377, "pitch": 80, "duration": 11, "velocity": 93}, {"time": 3395, "pitch": 83, "duration": 5, "velocity": 93}, {"time": 3401, "pitch": 80, "duration": 4, "velocity": 93}, {"time": 3407, "pitch": 80, "duration": 8, "velocity": 91}, {"time": 3419, "pitch": 75, "duration": 4, "velocity": 89}, {"time": 3425, "pitch": 75, "duration": 11, "velocity": 89}, {"time": 3437, "pitch": 73, "duration": 26, "velocity": 91}, {"time": 3467, "pitch": 75, "duration": 5, "velocity": 94}, {"time": 3473, "pitch": 78, "duration": 5, "velocity": 91}, {"time": 3479, "pitch": 80, "duration": 12, "velocity": 88}, {"time": 3491, "pitch": 83, "duration": 13, "velocity": 90}, {"time": 3503, "pitch": 80, "duration": 10, "velocity": 88}, {"time": 3515, "pitch": 80, "duration": 6, "velocity": 91}, {"time": 3521, "pitch": 75, "duration": 5, "velocity": 83}, {"time": 3527, "pitch": 78, "duration": 5, "velocity": 88}, {"time": 3533, "pitch": 78, "duration": 4, "velocity": 88}, {"time": 3539, "pitch": 78, "duration": 4, "velocity": 88}, {"time": 3545, "pitch": 80, "duration": 6, "velocity": 88}, {"time": 3551, "pitch": 75, "duration": 11, "velocity": 91}, {"time": 3563, "pitch": 75, "duration": 5, "velocity": 89}, {"time": 3569, "pitch": 78, "duration": 5, "velocity": 90}, {"time": 3575, "pitch": 80, "duration": 4, "velocity": 87}, {"time": 3581, "pitch": 80, "duration": 4, "velocity": 83}, {"time": 3587, "pitch": 80, "duration": 5, "velocity": 86}, {"time": 3593, "pitch": 83, "duration": 5, "velocity": 86}, {"time": 3599, "pitch": 80, "duration": 4, "velocity": 89}, {"time": 3605, "pitch": 78, "duration": 5, "velocity": 89}, {"time": 3611, "pitch": 75, "duration": 5, "velocity": 91}, {"time": 3617, "pitch": 73, "duration": 6, "velocity": 94}, {"time": 3623, "pitch": 78, "duration": 6, "velocity": 87}, {"time": 3629, "pitch": 75, "duration": 25, "velocity": 84}, {"time": 3665, "pitch": 75, "duration": 2, "velocity": 91}, {"time": 3668, "pitch": 73, "duration": 3, "velocity": 88}, {"time": 3671, "pitch": 75, "duration": 4, "velocity": 93}, {"time": 3677, "pitch": 79, "duration": 6, "velocity": 76}, {"time": 3689, "pitch": 79, "duration": 4, "velocity": 94}, {"time": 3695, "pitch": 80, "duration": 4, "velocity": 88}, {"time": 3701, "pitch": 82, "duration": 9, "velocity": 89}, {"time": 3713, "pitch": 83, "duration": 8, "velocity": 93}, {"time": 3725, "pitch": 82, "duration": 10, "velocity": 88}, {"time": 3737, "pitch": 80, "duration": 9, "velocity": 88}, {"time": 3749, "pitch": 80, "duration": 4, "velocity": 93}, {"time": 3755, "pitch": 83, "duration": 5, "velocity": 92}, {"time": 3761, "pitch": 80, "duration": 11, "velocity": 93}, {"time": 3773, "pitch": 80, "duration": 7, "velocity": 85}, {"time": 3779, "pitch": 75, "duration": 5, "velocity": 88}, {"time": 3785, "pitch": 73, "duration": 11, "velocity": 90}, {"time": 3797, "pitch": 75, "duration": 4, "velocity": 88}, {"time": 3803, "pitch": 73, "duration": 5, "velocity": 89}, {"time": 3809, "pitch": 68, "duration": 10, "velocity": 88}, {"time": 3821, "pitch": 71, "duration": 36, "velocity": 88}]}, {"program": 0, "is_drum": false, "name": "BRIDGE", "notes": [{"time": 16, "pitch": 66, "duration": 6, "velocity": 91}, {"time": 22, "pitch": 70, "duration": 6, "velocity": 103}, {"time": 28, "pitch": 71, "duration": 6, "velocity": 94}, {"time": 35, "pitch": 73, "duration": 7, "velocity": 91}, {"time": 41, "pitch": 75, "duration": 6, "velocity": 101}, {"time": 47, "pitch": 71, "duration": 12, "velocity": 98}, {"time": 59, "pitch": 66, "duration": 5, "velocity": 85}, {"time": 65, "pitch": 68, "duration": 5, "velocity": 92}, {"time": 71, "pitch": 70, "duration": 7, "velocity": 92}, {"time": 77, "pitch": 71, "duration": 7, "velocity": 98}, {"time": 83, "pitch": 73, "duration": 6, "velocity": 103}, {"time": 89, "pitch": 68, "duration": 4, "velocity": 86}, {"time": 89, "pitch": 78, "duration": 6, "velocity": 94}, {"time": 92, "pitch": 66, "duration": 3, "velocity": 78}, {"time": 95, "pitch": 64, "duration": 8, "velocity": 91}, {"time": 95, "pitch": 75, "duration": 11, "velocity": 88}, {"time": 101, "pitch": 63, "duration": 7, "velocity": 91}, {"time": 107, "pitch": 61, "duration": 6, "velocity": 90}, {"time": 113, "pitch": 59, "duration": 6, "velocity": 90}, {"time": 119, "pitch": 73, "duration": 6, "velocity": 104}, {"time": 125, "pitch": 59, "duration": 5, "velocity": 83}, {"time": 125, "pitch": 75, "duration": 6, "velocity": 87}, {"time": 131, "pitch": 63, "duration": 5, "velocity": 89}, {"time": 131, "pitch": 73, "duration": 6, "velocity": 98}, {"time": 137, "pitch": 66, "duration": 5, "velocity": 82}, {"time": 137, "pitch": 71, "duration": 7, "velocity": 90}, {"time": 143, "pitch": 68, "duration": 12, "velocity": 93}, {"time": 155, "pitch": 66, "duration": 10, "velocity": 89}, {"time": 167, "pitch": 63, "duration": 5, "velocity": 91}, {"time": 167, "pitch": 71, "duration": 24, "velocity": 85}, {"time": 167, "pitch": 75, "duration": 24, "velocity": 87}, {"time": 173, "pitch": 64, "duration": 5, "velocity": 94}, {"time": 179, "pitch": 63, "duration": 2, "velocity": 89}, {"time": 182, "pitch": 64, "duration": 2, "velocity": 82}, {"time": 185, "pitch": 66, "duration": 12, "velocity": 82}, {"time": 197, "pitch": 68, "duration": 6, "velocity": 87}, {"time": 203, "pitch": 66, "duration": 6, "velocity": 83}, {"time": 209, "pitch": 70, "duration": 3, "velocity": 94}, {"time": 212, "pitch": 71, "duration": 4, "velocity": 91}, {"time": 215, "pitch": 73, "duration": 5, "velocity": 93}, {"time": 221, "pitch": 75, "duration": 10, "velocity": 93}, {"time": 233, "pitch": 75, "duration": 3, "velocity": 91}, {"time": 236, "pitch": 76, "duration": 3, "velocity": 91}, {"time": 239, "pitch": 75, "duration": 6, "velocity": 104}, {"time": 245, "pitch": 71, "duration": 6, "velocity": 98}, {"time": 251, "pitch": 73, "duration": 5, "velocity": 104}, {"time": 257, "pitch": 73, "duration": 3, "velocity": 103}, {"time": 260, "pitch": 75, "duration": 3, "velocity": 86}, {"time": 263, "pitch": 73, "duration": 15, "velocity": 101}, {"time": 281, "pitch": 73, "duration": 3, "velocity": 101}, {"time": 284, "pitch": 71, "duration": 3, "velocity": 94}, {"time": 287, "pitch": 70, "duration": 7, "velocity": 93}, {"time": 293, "pitch": 71, "duration": 6, "velocity": 98}, {"time": 299, "pitch": 73, "duration": 12, "velocity": 93}, {"time": 317, "pitch": 68, "duration": 7, "velocity": 91}, {"time": 323, "pitch": 70, "duration": 6, "velocity": 96}, {"time": 329, "pitch": 71, "duration": 6, "velocity": 94}, {"time": 335, "pitch": 68, "duration": 11, "velocity": 89}, {"time": 347, "pitch": 66, "duration": 21, "velocity": 87}, {"time": 347, "pitch": 70, "duration": 12, "velocity": 88}, {"time": 359, "pitch": 71, "duration": 45, "velocity": 90}, {"time": 371, "pitch": 66, "duration": 32, "velocity": 73}, {"time": 383, "pitch": 75, "duration": 21, "velocity": 69}, {"time": 569, "pitch": 68, "duration": 4, "velocity": 88}, {"time": 572, "pitch": 70, "duration": 4, "velocity": 90}, {"time": 575, "pitch": 71, "duration": 11, "velocity": 94}, {"time": 587, "pitch": 66, "duration": 7, "velocity": 83}, {"time": 587, "pitch": 70, "duration": 6, "velocity": 87}, {"time": 593, "pitch": 73, "duration": 6, "velocity": 89}, {"time": 599, "pitch": 75, "duration": 21, "velocity": 88}, {"time": 743, "pitch": 75, "duration": 7, "velocity": 91}, {"time": 749, "pitch": 66, "duration": 7, "velocity": 78}, {"time": 755, "pitch": 75, "duration": 8, "velocity": 87}, {"time": 761, "pitch": 66, "duration": 4, "velocity": 87}, {"time": 767, "pitch": 73, "duration": 9, "velocity": 86}, {"time": 767, "pitch": 76, "duration": 9, "velocity": 82}, {"time": 779, "pitch": 74, "duration": 12, "velocity": 88}, {"time": 779, "pitch": 77, "duration": 11, "velocity": 88}, {"time": 791, "pitch": 70, "duration": 23, "velocity": 77}, {"time": 791, "pitch": 75, "duration": 22, "velocity": 82}, {"time": 815, "pitch": 70, "duration": 19, "velocity": 83}, {"time": 833, "pitch": 66, "duration": 6, "velocity": 78}, {"time": 839, "pitch": 63, "duration": 25, "velocity": 87}, {"time": 863, "pitch": 68, "duration": 21, "velocity": 84}, {"time": 887, "pitch": 68, "duration": 13, "velocity": 82}, {"time": 899, "pitch": 66, "duration": 10, "velocity": 84}, {"time": 911, "pitch": 66, "duration": 11, "velocity": 82}, {"time": 923, "pitch": 64, "duration": 11, "velocity": 84}, {"time": 935, "pitch": 66, "duration": 34, "velocity": 77}, {"time": 971, "pitch": 66, "duration": 6, "velocity": 86}, {"time": 977, "pitch": 68, "duration": 6, "velocity": 88}, {"time": 983, "pitch": 70, "duration": 36, "velocity": 88}, {"time": 1019, "pitch": 66, "duration": 10, "velocity": 82}, {"time": 1031, "pitch": 68, "duration": 26, "velocity": 77}, {"time": 1031, "pitch": 71, "duration": 31, "velocity": 82}, {"time": 1061, "pitch": 70, "duration": 7, "velocity": 78}, {"time": 1067, "pitch": 71, "duration": 13, "velocity": 89}, {"time": 1079, "pitch": 68, "duration": 25, "velocity": 85}, {"time": 1103, "pitch": 71, "duration": 12, "velocity": 88}, {"time": 1115, "pitch": 68, "duration": 12, "velocity": 89}, {"time": 1127, "pitch": 66, "duration": 23, "velocity": 83}, {"time": 1157, "pitch": 78, "duration": 4, "velocity": 89}, {"time": 1160, "pitch": 80, "duration": 2, "velocity": 87}, {"time": 1163, "pitch": 82, "duration": 7, "velocity": 90}, {"time": 1169, "pitch": 83, "duration": 3, "velocity": 92}, {"time": 1172, "pitch": 85, "duration": 2, "velocity": 88}, {"time": 1175, "pitch": 64, "duration": 27, "velocity": 77}, {"time": 1175, "pitch": 68, "duration": 25, "velocity": 83}, {"time": 1175, "pitch": 83, "duration": 22, "velocity": 92}, {"time": 1199, "pitch": 71, "duration": 13, "velocity": 87}, {"time": 1211, "pitch": 68, "duration": 12, "velocity": 83}, {"time": 1223, "pitch": 66, "duration": 13, "velocity": 82}, {"time": 1235, "pitch": 63, "duration": 13, "velocity": 87}, {"time": 1247, "pitch": 66, "duration": 20, "velocity": 83}, {"time": 1271, "pitch": 64, "duration": 22, "velocity": 78}, {"time": 1271, "pitch": 68, "duration": 22, "velocity": 79}, {"time": 1325, "pitch": 66, "duration": 8, "velocity": 78}, {"time": 1331, "pitch": 71, "duration": 7, "velocity": 85}, {"time": 1337, "pitch": 73, "duration": 5, "velocity": 91}, {"time": 1343, "pitch": 75, "duration": 12, "velocity": 88}, {"time": 1355, "pitch": 71, "duration": 11, "velocity": 90}, {"time": 1367, "pitch": 68, "duration": 23, "velocity": 73}, {"time": 1391, "pitch": 67, "duration": 6, "velocity": 89}, {"time": 1397, "pitch": 68, "duration": 7, "velocity": 83}, {"time": 1403, "pitch": 70, "duration": 10, "velocity": 87}, {"time": 1415, "pitch": 68, "duration": 10, "velocity": 82}, {"time": 1415, "pitch": 71, "duration": 11, "velocity": 84}, {"time": 1427, "pitch": 70, "duration": 11, "velocity": 91}, {"time": 1439, "pitch": 65, "duration": 16, "velocity": 77}, {"time": 1439, "pitch": 68, "duration": 19, "velocity": 81}, {"time": 1463, "pitch": 68, "duration": 30, "velocity": 82}, {"time": 1493, "pitch": 66, "duration": 7, "velocity": 79}, {"time": 1499, "pitch": 63, "duration": 7, "velocity": 83}, {"time": 1505, "pitch": 68, "duration": 6, "velocity": 81}, {"time": 1511, "pitch": 66, "duration": 45, "velocity": 83}, {"time": 1523, "pitch": 78, "duration": 3, "velocity": 91}, {"time": 1526, "pitch": 80, "duration": 3, "velocity": 88}, {"time": 1529, "pitch": 78, "duration": 3, "velocity": 92}, {"time": 1532, "pitch": 76, "duration": 3, "velocity": 87}, {"time": 1535, "pitch": 75, "duration": 4, "velocity": 93}, {"time": 1538, "pitch": 73, "duration": 2, "velocity": 94}, {"time": 1541, "pitch": 71, "duration": 7, "velocity": 82}, {"time": 1547, "pitch": 70, "duration": 7, "velocity": 88}, {"time": 1553, "pitch": 66, "duration": 3, "velocity": 82}, {"time": 1559, "pitch": 64, "duration": 24, "velocity": 80}, {"time": 1559, "pitch": 68, "duration": 25, "velocity": 81}, {"time": 1583, "pitch": 71, "duration": 13, "velocity": 87}, {"time": 1595, "pitch": 68, "duration": 7, "velocity": 88}, {"time": 1601, "pitch": 71, "duration": 7, "velocity": 82}, {"time": 1607, "pitch": 70, "duration": 19, "velocity": 86}, {"time": 1631, "pitch": 68, "duration": 11, "velocity": 78}, {"time": 1631, "pitch": 71, "duration": 12, "velocity": 81}, {"time": 1643, "pitch": 70, "duration": 13, "velocity": 78}, {"time": 1655, "pitch": 68, "duration": 29, "velocity": 83}, {"time": 1691, "pitch": 66, "duration": 6, "velocity": 82}, {"time": 1697, "pitch": 64, "duration": 7, "velocity": 87}, {"time": 1703, "pitch": 66, "duration": 23, "velocity": 87}, {"time": 1739, "pitch": 63, "duration": 6, "velocity": 91}, {"time": 1745, "pitch": 64, "duration": 6, "velocity": 89}, {"time": 1751, "pitch": 63, "duration": 18, "velocity": 88}, {"time": 1769, "pitch": 68, "duration": 7, "velocity": 86}, {"time": 1775, "pitch": 67, "duration": 7, "velocity": 90}, {"time": 1781, "pitch": 68, "duration": 7, "velocity": 83}, {"time": 1787, "pitch": 70, "duration": 10, "velocity": 83}, {"time": 1799, "pitch": 68, "duration": 13, "velocity": 82}, {"time": 1799, "pitch": 71, "duration": 12, "velocity": 87}, {"time": 1811, "pitch": 70, "duration": 7, "velocity": 83}, {"time": 1817, "pitch": 71, "duration": 6, "velocity": 85}, {"time": 1823, "pitch": 68, "duration": 24, "velocity": 83}, {"time": 1859, "pitch": 71, "duration": 12, "velocity": 81}, {"time": 1871, "pitch": 66, "duration": 13, "velocity": 80}, {"time": 1883, "pitch": 64, "duration": 12, "velocity": 85}, {"time": 1895, "pitch": 59, "duration": 25, "velocity": 78}, {"time": 1895, "pitch": 63, "duration": 41, "velocity": 82}, {"time": 1943, "pitch": 70, "duration": 19, "velocity": 90}, {"time": 1961, "pitch": 68, "duration": 6, "velocity": 88}, {"time": 1967, "pitch": 71, "duration": 6, "velocity": 91}, {"time": 1973, "pitch": 70, "duration": 3, "velocity": 88}, {"time": 1976, "pitch": 71, "duration": 3, "velocity": 90}, {"time": 1979, "pitch": 66, "duration": 6, "velocity": 94}, {"time": 1985, "pitch": 68, "duration": 6, "velocity": 94}, {"time": 1991, "pitch": 68, "duration": 18, "velocity": 94}, {"time": 2009, "pitch": 66, "duration": 12, "velocity": 87}, {"time": 2021, "pitch": 64, "duration": 6, "velocity": 93}, {"time": 2027, "pitch": 63, "duration": 6, "velocity": 98}, {"time": 2033, "pitch": 66, "duration": 6, "velocity": 92}, {"time": 2039, "pitch": 73, "duration": 5, "velocity": 98}, {"time": 2045, "pitch": 75, "duration": 6, "velocity": 90}, {"time": 2051, "pitch": 73, "duration": 6, "velocity": 101}, {"time": 2057, "pitch": 71, "duration": 6, "velocity": 93}, {"time": 2063, "pitch": 68, "duration": 12, "velocity": 91}, {"time": 2075, "pitch": 66, "duration": 12, "velocity": 89}, {"time": 2087, "pitch": 75, "duration": 22, "velocity": 91}, {"time": 2111, "pitch": 73, "duration": 10, "velocity": 87}, {"time": 2111, "pitch": 76, "duration": 11, "velocity": 86}, {"time": 2123, "pitch": 75, "duration": 11, "velocity": 87}, {"time": 2123, "pitch": 78, "duration": 11, "velocity": 88}, {"time": 2135, "pitch": 82, "duration": 17, "velocity": 89}, {"time": 2153, "pitch": 80, "duration": 27, "velocity": 93}, {"time": 2183, "pitch": 80, "duration": 18, "velocity": 93}, {"time": 2201, "pitch": 78, "duration": 24, "velocity": 92}, {"time": 2225, "pitch": 78, "duration": 6, "velocity": 93}, {"time": 2231, "pitch": 85, "duration": 21, "velocity": 92}, {"time": 2255, "pitch": 78, "duration": 18, "velocity": 83}, {"time": 2255, "pitch": 85, "duration": 19, "velocity": 88}, {"time": 2273, "pitch": 82, "duration": 6, "velocity": 90}, {"time": 2279, "pitch": 78, "duration": 45, "velocity": 82}, {"time": 2279, "pitch": 83, "duration": 45, "velocity": 87}, {"time": 2489, "pitch": 68, "duration": 4, "velocity": 88}, {"time": 2492, "pitch": 70, "duration": 4, "velocity": 90}, {"time": 2495, "pitch": 71, "duration": 11, "velocity": 94}, {"time": 2507, "pitch": 66, "duration": 7, "velocity": 83}, {"time": 2507, "pitch": 70, "duration": 6, "velocity": 87}, {"time": 2513, "pitch": 73, "duration": 6, "velocity": 89}, {"time": 2519, "pitch": 75, "duration": 21, "velocity": 88}, {"time": 2663, "pitch": 75, "duration": 7, "velocity": 91}, {"time": 2669, "pitch": 66, "duration": 7, "velocity": 78}, {"time": 2675, "pitch": 75, "duration": 8, "velocity": 87}, {"time": 2681, "pitch": 66, "duration": 4, "velocity": 87}, {"time": 2687, "pitch": 73, "duration": 9, "velocity": 86}, {"time": 2687, "pitch": 76, "duration": 9, "velocity": 82}, {"time": 2699, "pitch": 74, "duration": 12, "velocity": 88}, {"time": 2699, "pitch": 77, "duration": 11, "velocity": 88}, {"time": 2711, "pitch": 70, "duration": 23, "velocity": 77}, {"time": 2711, "pitch": 75, "duration": 22, "velocity": 82}, {"time": 2735, "pitch": 70, "duration": 19, "velocity": 83}, {"time": 2753, "pitch": 66, "duration": 6, "velocity": 78}, {"time": 2759, "pitch": 63, "duration": 25, "velocity": 87}, {"time": 2783, "pitch": 68, "duration": 21, "velocity": 84}, {"time": 2807, "pitch": 68, "duration": 13, "velocity": 82}, {"time": 2819, "pitch": 66, "duration": 10, "velocity": 84}, {"time": 2831, "pitch": 66, "duration": 11, "velocity": 82}, {"time": 2843, "pitch": 64, "duration": 11, "velocity": 84}, {"time": 2855, "pitch": 66, "duration": 34, "velocity": 77}, {"time": 2891, "pitch": 66, "duration": 6, "velocity": 86}, {"time": 2897, "pitch": 68, "duration": 6, "velocity": 88}, {"time": 2903, "pitch": 70, "duration": 36, "velocity": 88}, {"time": 2939, "pitch": 66, "duration": 10, "velocity": 82}, {"time": 2951, "pitch": 68, "duration": 26, "velocity": 77}, {"time": 2951, "pitch": 71, "duration": 31, "velocity": 82}, {"time": 2981, "pitch": 70, "duration": 7, "velocity": 78}, {"time": 2987, "pitch": 71, "duration": 13, "velocity": 89}, {"time": 2999, "pitch": 68, "duration": 25, "velocity": 85}, {"time": 3023, "pitch": 71, "duration": 12, "velocity": 88}, {"time": 3035, "pitch": 68, "duration": 12, "velocity": 89}, {"time": 3047, "pitch": 66, "duration": 23, "velocity": 83}, {"time": 3077, "pitch": 78, "duration": 4, "velocity": 89}, {"time": 3080, "pitch": 80, "duration": 2, "velocity": 87}, {"time": 3083, "pitch": 82, "duration": 7, "velocity": 90}, {"time": 3089, "pitch": 83, "duration": 3, "velocity": 92}, {"time": 3092, "pitch": 85, "duration": 2, "velocity": 88}, {"time": 3095, "pitch": 64, "duration": 27, "velocity": 77}, {"time": 3095, "pitch": 68, "duration": 25, "velocity": 83}, {"time": 3095, "pitch": 83, "duration": 22, "velocity": 92}, {"time": 3119, "pitch": 71, "duration": 13, "velocity": 87}, {"time": 3131, "pitch": 68, "duration": 12, "velocity": 83}, {"time": 3143, "pitch": 66, "duration": 13, "velocity": 82}, {"time": 3155, "pitch": 63, "duration": 13, "velocity": 87}, {"time": 3167, "pitch": 66, "duration": 20, "velocity": 83}, {"time": 3191, "pitch": 64, "duration": 22, "velocity": 78}, {"time": 3191, "pitch": 68, "duration": 22, "velocity": 79}, {"time": 3245, "pitch": 66, "duration": 8, "velocity": 78}, {"time": 3251, "pitch": 71, "duration": 7, "velocity": 85}, {"time": 3257, "pitch": 73, "duration": 5, "velocity": 91}, {"time": 3263, "pitch": 75, "duration": 12, "velocity": 88}, {"time": 3275, "pitch": 71, "duration": 11, "velocity": 90}, {"time": 3287, "pitch": 68, "duration": 23, "velocity": 73}, {"time": 3311, "pitch": 67, "duration": 6, "velocity": 89}, {"time": 3317, "pitch": 68, "duration": 7, "velocity": 83}, {"time": 3323, "pitch": 70, "duration": 10, "velocity": 87}, {"time": 3335, "pitch": 68, "duration": 10, "velocity": 82}, {"time": 3335, "pitch": 71, "duration": 11, "velocity": 84}, {"time": 3347, "pitch": 70, "duration": 11, "velocity": 91}, {"time": 3359, "pitch": 65, "duration": 16, "velocity": 77}, {"time": 3359, "pitch": 68, "duration": 19, "velocity": 81}, {"time": 3383, "pitch": 68, "duration": 30, "velocity": 82}, {"time": 3413, "pitch": 66, "duration": 7, "velocity": 79}, {"time": 3419, "pitch": 63, "duration": 7, "velocity": 83}, {"time": 3425, "pitch": 68, "duration": 6, "velocity": 81}, {"time": 3431, "pitch": 66, "duration": 45, "velocity": 83}, {"time": 3443, "pitch": 78, "duration": 3, "velocity": 91}, {"time": 3446, "pitch": 80, "duration": 3, "velocity": 88}, {"time": 3449, "pitch": 78, "duration": 3, "velocity": 92}, {"time": 3452, "pitch": 76, "duration": 3, "velocity": 87}, {"time": 3455, "pitch": 75, "duration": 4, "velocity": 93}, {"time": 3458, "pitch": 73, "duration": 2, "velocity": 94}, {"time": 3461, "pitch": 71, "duration": 7, "velocity": 82}, {"time": 3467, "pitch": 70, "duration": 7, "velocity": 88}, {"time": 3473, "pitch": 66, "duration": 3, "velocity": 82}, {"time": 3479, "pitch": 64, "duration": 24, "velocity": 80}, {"time": 3479, "pitch": 68, "duration": 25, "velocity": 81}, {"time": 3503, "pitch": 71, "duration": 13, "velocity": 87}, {"time": 3515, "pitch": 68, "duration": 7, "velocity": 88}, {"time": 3521, "pitch": 71, "duration": 7, "velocity": 82}, {"time": 3527, "pitch": 70, "duration": 19, "velocity": 86}, {"time": 3551, "pitch": 68, "duration": 11, "velocity": 78}, {"time": 3551, "pitch": 71, "duration": 12, "velocity": 81}, {"time": 3563, "pitch": 70, "duration": 13, "velocity": 78}, {"time": 3575, "pitch": 68, "duration": 29, "velocity": 83}, {"time": 3611, "pitch": 66, "duration": 6, "velocity": 82}, {"time": 3617, "pitch": 64, "duration": 7, "velocity": 87}, {"time": 3623, "pitch": 66, "duration": 23, "velocity": 87}, {"time": 3659, "pitch": 63, "duration": 6, "velocity": 91}, {"time": 3665, "pitch": 64, "duration": 6, "velocity": 89}, {"time": 3671, "pitch": 63, "duration": 18, "velocity": 88}, {"time": 3689, "pitch": 68, "duration": 7, "velocity": 86}, {"time": 3695, "pitch": 67, "duration": 7, "velocity": 90}, {"time": 3701, "pitch": 68, "duration": 7, "velocity": 83}, {"time": 3707, "pitch": 70, "duration": 10, "velocity": 83}, {"time": 3719, "pitch": 68, "duration": 13, "velocity": 82}, {"time": 3719, "pitch": 71, "duration": 12, "velocity": 87}, {"time": 3731, "pitch": 70, "duration": 7, "velocity": 83}, {"time": 3737, "pitch": 71, "duration": 6, "velocity": 85}, {"time": 3743, "pitch": 68, "duration": 24, "velocity": 83}, {"time": 3779, "pitch": 71, "duration": 12, "velocity": 81}, {"time": 3791, "pitch": 66, "duration": 13, "velocity": 80}, {"time": 3803, "pitch": 64, "duration": 12, "velocity": 85}, {"time": 3815, "pitch": 59, "duration": 25, "velocity": 78}, {"time": 3815, "pitch": 63, "duration": 41, "velocity": 82}, {"time": 3864, "pitch": 66, "duration": 17, "velocity": 82}, {"time": 3865, "pitch": 70, "duration": 19, "velocity": 88}, {"time": 3884, "pitch": 64, "duration": 11, "velocity": 81}, {"time": 3884, "pitch": 68, "duration": 11, "velocity": 82}, {"time": 3896, "pitch": 68, "duration": 7, "velocity": 89}, {"time": 3902, "pitch": 70, "duration": 7, "velocity": 93}, {"time": 3908, "pitch": 71, "duration": 6, "velocity": 82}, {"time": 3913, "pitch": 64, "duration": 16, "velocity": 83}, {"time": 3914, "pitch": 68, "duration": 16, "velocity": 78}, {"time": 3930, "pitch": 63, "duration": 15, "velocity": 82}, {"time": 3931, "pitch": 66, "duration": 14, "velocity": 79}, {"time": 3944, "pitch": 64, "duration": 2, "velocity": 88}, {"time": 3946, "pitch": 63, "duration": 2, "velocity": 88}, {"time": 3949, "pitch": 61, "duration": 6, "velocity": 89}, {"time": 3954, "pitch": 59, "duration": 6, "velocity": 93}, {"time": 3961, "pitch": 71, "duration": 6, "velocity": 94}, {"time": 3967, "pitch": 73, "duration": 7, "velocity": 92}, {"time": 3973, "pitch": 75, "duration": 7, "velocity": 92}, {"time": 3980, "pitch": 73, "duration": 8, "velocity": 104}, {"time": 3988, "pitch": 75, "duration": 15, "velocity": 89}, {"time": 4002, "pitch": 73, "duration": 19, "velocity": 94}, {"time": 4019, "pitch": 66, "duration": 52, "velocity": 80}, {"time": 4021, "pitch": 71, "duration": 50, "velocity": 85}]}, {"program": 0, "is_drum": false, "name": "PIANO", "notes": [{"time": 5, "pitch": 63, "duration": 7, "velocity": 92}, {"time": 11, "pitch": 64, "duration": 7, "velocity": 94}, {"time": 17, "pitch": 66, "duration": 6, "velocity": 89}, {"time": 20, "pitch": 52, "duration": 8, "velocity": 73}, {"time": 21, "pitch": 56, "duration": 15, "velocity": 78}, {"time": 22, "pitch": 59, "duration": 14, "velocity": 78}, {"time": 22, "pitch": 40, "duration": 40, "velocity": 82}, {"time": 23, "pitch": 64, "duration": 13, "velocity": 76}, {"time": 23, "pitch": 68, "duration": 6, "velocity": 89}, {"time": 28, "pitch": 47, "duration": 32, "velocity": 70}, {"time": 35, "pitch": 52, "duration": 23, "velocity": 77}, {"time": 41, "pitch": 59, "duration": 17, "velocity": 83}, {"time": 47, "pitch": 64, "duration": 11, "velocity": 76}, {"time": 69, "pitch": 51, "duration": 9, "velocity": 73}, {"time": 70, "pitch": 54, "duration": 14, "velocity": 82}, {"time": 70, "pitch": 39, "duration": 34, "velocity": 86}, {"time": 72, "pitch": 63, "duration": 17, "velocity": 67}, {"time": 76, "pitch": 46, "duration": 27, "velocity": 72}, {"time": 83, "pitch": 51, "duration": 11, "velocity": 82}, {"time": 88, "pitch": 54, "duration": 9, "velocity": 87}, {"time": 94, "pitch": 63, "duration": 9, "velocity": 78}, {"time": 117, "pitch": 56, "duration": 3, "velocity": 63}, {"time": 118, "pitch": 61, "duration": 6, "velocity": 80}, {"time": 119, "pitch": 49, "duration": 13, "velocity": 83}, {"time": 119, "pitch": 64, "duration": 7, "velocity": 87}, {"time": 125, "pitch": 56, "duration": 7, "velocity": 75}, {"time": 141, "pitch": 54, "duration": 8, "velocity": 74}, {"time": 142, "pitch": 61, "duration": 17, "velocity": 82}, {"time": 142, "pitch": 42, "duration": 21, "velocity": 84}, {"time": 148, "pitch": 49, "duration": 13, "velocity": 80}, {"time": 154, "pitch": 54, "duration": 6, "velocity": 85}, {"time": 164, "pitch": 54, "duration": 3, "velocity": 70}, {"time": 166, "pitch": 59, "duration": 8, "velocity": 74}, {"time": 167, "pitch": 47, "duration": 17, "velocity": 80}, {"time": 167, "pitch": 63, "duration": 12, "velocity": 88}, {"time": 172, "pitch": 54, "duration": 7, "velocity": 69}, {"time": 178, "pitch": 61, "duration": 9, "velocity": 87}, {"time": 185, "pitch": 54, "duration": 2, "velocity": 81}, {"time": 190, "pitch": 37, "duration": 10, "velocity": 87}, {"time": 191, "pitch": 61, "duration": 5, "velocity": 80}, {"time": 203, "pitch": 63, "duration": 30, "velocity": 83}, {"time": 203, "pitch": 58, "duration": 14, "velocity": 80}, {"time": 203, "pitch": 39, "duration": 8, "velocity": 89}, {"time": 216, "pitch": 40, "duration": 41, "velocity": 83}, {"time": 221, "pitch": 47, "duration": 35, "velocity": 82}, {"time": 227, "pitch": 52, "duration": 14, "velocity": 87}, {"time": 233, "pitch": 59, "duration": 14, "velocity": 83}, {"time": 239, "pitch": 64, "duration": 15, "velocity": 85}, {"time": 245, "pitch": 52, "duration": 9, "velocity": 71}, {"time": 251, "pitch": 59, "duration": 3, "velocity": 76}, {"time": 251, "pitch": 56, "duration": 3, "velocity": 75}, {"time": 261, "pitch": 51, "duration": 9, "velocity": 75}, {"time": 262, "pitch": 54, "duration": 13, "velocity": 80}, {"time": 263, "pitch": 39, "duration": 41, "velocity": 83}, {"time": 263, "pitch": 58, "duration": 34, "velocity": 75}, {"time": 269, "pitch": 46, "duration": 34, "velocity": 73}, {"time": 274, "pitch": 51, "duration": 23, "velocity": 85}, {"time": 280, "pitch": 54, "duration": 17, "velocity": 87}, {"time": 287, "pitch": 63, "duration": 17, "velocity": 79}, {"time": 298, "pitch": 58, "duration": 6, "velocity": 83}, {"time": 309, "pitch": 49, "duration": 4, "velocity": 76}, {"time": 310, "pitch": 52, "duration": 4, "velocity": 79}, {"time": 310, "pitch": 37, "duration": 3, "velocity": 84}, {"time": 311, "pitch": 56, "duration": 4, "velocity": 72}, {"time": 317, "pitch": 49, "duration": 8, "velocity": 69}, {"time": 322, "pitch": 56, "duration": 4, "velocity": 86}, {"time": 328, "pitch": 61, "duration": 4, "velocity": 91}, {"time": 334, "pitch": 42, "duration": 15, "velocity": 84}, {"time": 334, "pitch": 66, "duration": 7, "velocity": 76}, {"time": 335, "pitch": 61, "duration": 6, "velocity": 79}, {"time": 341, "pitch": 49, "duration": 7, "velocity": 77}, {"time": 346, "pitch": 64, "duration": 3, "velocity": 85}, {"time": 346, "pitch": 61, "duration": 3, "velocity": 83}, {"time": 358, "pitch": 35, "duration": 2, "velocity": 83}, {"time": 358, "pitch": 59, "duration": 12, "velocity": 75}, {"time": 358, "pitch": 63, "duration": 12, "velocity": 86}, {"time": 364, "pitch": 47, "duration": 40, "velocity": 83}, {"time": 371, "pitch": 54, "duration": 16, "velocity": 82}, {"time": 376, "pitch": 61, "duration": 6, "velocity": 74}, {"time": 382, "pitch": 59, "duration": 9, "velocity": 74}, {"time": 389, "pitch": 54, "duration": 15, "velocity": 76}, {"time": 395, "pitch": 59, "duration": 12, "velocity": 55}, {"time": 395, "pitch": 63, "duration": 12, "velocity": 75}, {"time": 407, "pitch": 47, "duration": 36, "velocity": 88}, {"time": 413, "pitch": 54, "duration": 9, "velocity": 77}, {"time": 419, "pitch": 61, "duration": 12, "velocity": 82}, {"time": 425, "pitch": 54, "duration": 9, "velocity": 70}, {"time": 431, "pitch": 63, "duration": 12, "velocity": 83}, {"time": 437, "pitch": 54, "duration": 5, "velocity": 62}, {"time": 443, "pitch": 59, "duration": 3, "velocity": 83}, {"time": 455, "pitch": 40, "duration": 44, "velocity": 87}, {"time": 461, "pitch": 52, "duration": 7, "velocity": 80}, {"time": 467, "pitch": 63, "duration": 4, "velocity": 89}, {"time": 473, "pitch": 64, "duration": 5, "velocity": 74}, {"time": 479, "pitch": 59, "duration": 3, "velocity": 75}, {"time": 485, "pitch": 47, "duration": 7, "velocity": 61}, {"time": 491, "pitch": 52, "duration": 6, "velocity": 81}, {"time": 491, "pitch": 56, "duration": 6, "velocity": 81}, {"time": 497, "pitch": 47, "duration": 4, "velocity": 82}, {"time": 503, "pitch": 49, "duration": 15, "velocity": 76}, {"time": 503, "pitch": 51, "duration": 1, "velocity": 77}, {"time": 503, "pitch": 56, "duration": 3, "velocity": 69}, {"time": 503, "pitch": 61, "duration": 13, "velocity": 80}, {"time": 509, "pitch": 56, "duration": 7, "velocity": 83}, {"time": 515, "pitch": 64, "duration": 13, "velocity": 86}, {"time": 527, "pitch": 42, "duration": 22, "velocity": 86}, {"time": 527, "pitch": 61, "duration": 13, "velocity": 83}, {"time": 533, "pitch": 49, "duration": 14, "velocity": 82}, {"time": 539, "pitch": 54, "duration": 7, "velocity": 93}, {"time": 545, "pitch": 61, "duration": 6, "velocity": 87}, {"time": 551, "pitch": 47, "duration": 16, "velocity": 81}, {"time": 551, "pitch": 54, "duration": 3, "velocity": 74}, {"time": 551, "pitch": 59, "duration": 12, "velocity": 74}, {"time": 557, "pitch": 54, "duration": 7, "velocity": 74}, {"time": 563, "pitch": 61, "duration": 7, "velocity": 85}, {"time": 569, "pitch": 59, "duration": 2, "velocity": 79}, {"time": 575, "pitch": 40, "duration": 8, "velocity": 82}, {"time": 575, "pitch": 52, "duration": 7, "velocity": 75}, {"time": 575, "pitch": 56, "duration": 12, "velocity": 73}, {"time": 587, "pitch": 42, "duration": 10, "velocity": 84}, {"time": 587, "pitch": 54, "duration": 7, "velocity": 82}, {"time": 587, "pitch": 58, "duration": 7, "velocity": 87}, {"time": 593, "pitch": 49, "duration": 4, "velocity": 77}, {"time": 599, "pitch": 47, "duration": 45, "velocity": 83}, {"time": 599, "pitch": 59, "duration": 13, "velocity": 79}, {"time": 605, "pitch": 51, "duration": 39, "velocity": 76}, {"time": 611, "pitch": 61, "duration": 7, "velocity": 86}, {"time": 617, "pitch": 54, "duration": 8, "velocity": 75}, {"time": 623, "pitch": 63, "duration": 11, "velocity": 85}, {"time": 629, "pitch": 54, "duration": 4, "velocity": 73}, {"time": 635, "pitch": 54, "duration": 7, "velocity": 85}, {"time": 635, "pitch": 59, "duration": 6, "velocity": 84}, {"time": 647, "pitch": 44, "duration": 15, "velocity": 87}, {"time": 647, "pitch": 56, "duration": 8, "velocity": 76}, {"time": 647, "pitch": 59, "duration": 13, "velocity": 80}, {"time": 653, "pitch": 51, "duration": 8, "velocity": 81}, {"time": 659, "pitch": 56, "duration": 5, "velocity": 92}, {"time": 671, "pitch": 40, "duration": 17, "velocity": 87}, {"time": 671, "pitch": 59, "duration": 13, "velocity": 81}, {"time": 677, "pitch": 47, "duration": 12, "velocity": 81}, {"time": 683, "pitch": 52, "duration": 6, "velocity": 93}, {"time": 689, "pitch": 59, "duration": 3, "velocity": 87}, {"time": 695, "pitch": 49, "duration": 15, "velocity": 86}, {"time": 695, "pitch": 56, "duration": 4, "velocity": 78}, {"time": 695, "pitch": 61, "duration": 10, "velocity": 81}, {"time": 701, "pitch": 56, "duration": 7, "velocity": 82}, {"time": 707, "pitch": 64, "duration": 5, "velocity": 81}, {"time": 719, "pitch": 42, "duration": 21, "velocity": 86}, {"time": 719, "pitch": 58, "duration": 7, "velocity": 81}, {"time": 725, "pitch": 54, "duration": 8, "velocity": 84}, {"time": 731, "pitch": 61, "duration": 6, "velocity": 86}, {"time": 743, "pitch": 47, "duration": 12, "velocity": 83}, {"time": 743, "pitch": 63, "duration": 13, "velocity": 89}, {"time": 749, "pitch": 54, "duration": 7, "velocity": 84}, {"time": 755, "pitch": 59, "duration": 4, "velocity": 83}, {"time": 767, "pitch": 37, "duration": 3, "velocity": 87}, {"time": 767, "pitch": 56, "duration": 4, "velocity": 78}, {"time": 767, "pitch": 61, "duration": 4, "velocity": 82}, {"time": 779, "pitch": 38, "duration": 12, "velocity": 79}, {"time": 779, "pitch": 62, "duration": 12, "velocity": 80}, {"time": 779, "pitch": 65, "duration": 12, "velocity": 79}, {"time": 791, "pitch": 39, "duration": 39, "velocity": 88}, {"time": 791, "pitch": 58, "duration": 8, "velocity": 82}, {"time": 791, "pitch": 63, "duration": 13, "velocity": 87}, {"time": 797, "pitch": 46, "duration": 32, "velocity": 67}, {"time": 803, "pitch": 58, "duration": 12, "velocity": 93}, {"time": 809, "pitch": 63, "duration": 7, "velocity": 89}, {"time": 815, "pitch": 66, "duration": 10, "velocity": 88}, {"time": 821, "pitch": 58, "duration": 3, "velocity": 79}, {"time": 827, "pitch": 58, "duration": 3, "velocity": 89}, {"time": 827, "pitch": 63, "duration": 2, "velocity": 88}, {"time": 839, "pitch": 44, "duration": 40, "velocity": 87}, {"time": 839, "pitch": 56, "duration": 8, "velocity": 78}, {"time": 839, "pitch": 59, "duration": 9, "velocity": 83}, {"time": 845, "pitch": 51, "duration": 20, "velocity": 82}, {"time": 851, "pitch": 58, "duration": 4, "velocity": 82}, {"time": 857, "pitch": 59, "duration": 4, "velocity": 88}, {"time": 863, "pitch": 56, "duration": 7, "velocity": 83}, {"time": 863, "pitch": 63, "duration": 6, "velocity": 88}, {"time": 869, "pitch": 51, "duration": 10, "velocity": 86}, {"time": 875, "pitch": 56, "duration": 3, "velocity": 83}, {"time": 875, "pitch": 59, "duration": 3, "velocity": 88}, {"time": 881, "pitch": 56, "duration": 8, "velocity": 84}, {"time": 887, "pitch": 37, "duration": 15, "velocity": 88}, {"time": 887, "pitch": 64, "duration": 12, "velocity": 87}, {"time": 893, "pitch": 44, "duration": 8, "velocity": 60}, {"time": 899, "pitch": 61, "duration": 7, "velocity": 86}, {"time": 905, "pitch": 56, "duration": 7, "velocity": 89}, {"time": 911, "pitch": 49, "duration": 13, "velocity": 87}, {"time": 911, "pitch": 61, "duration": 8, "velocity": 83}, {"time": 917, "pitch": 56, "duration": 4, "velocity": 81}, {"time": 923, "pitch": 56, "duration": 3, "velocity": 88}, {"time": 923, "pitch": 64, "duration": 7, "velocity": 85}, {"time": 935, "pitch": 42, "duration": 44, "velocity": 87}, {"time": 935, "pitch": 54, "duration": 12, "velocity": 83}, {"time": 935, "pitch": 61, "duration": 13, "velocity": 86}, {"time": 941, "pitch": 49, "duration": 20, "velocity": 81}, {"time": 947, "pitch": 58, "duration": 6, "velocity": 86}, {"time": 953, "pitch": 54, "duration": 15, "velocity": 87}, {"time": 959, "pitch": 61, "duration": 8, "velocity": 83}, {"time": 965, "pitch": 49, "duration": 10, "velocity": 69}, {"time": 971, "pitch": 54, "duration": 1, "velocity": 72}, {"time": 971, "pitch": 58, "duration": 7, "velocity": 87}, {"time": 971, "pitch": 61, "duration": 9, "velocity": 87}, {"time": 977, "pitch": 54, "duration": 3, "velocity": 84}, {"time": 983, "pitch": 39, "duration": 42, "velocity": 87}, {"time": 983, "pitch": 63, "duration": 12, "velocity": 86}, {"time": 989, "pitch": 46, "duration": 22, "velocity": 75}, {"time": 995, "pitch": 58, "duration": 8, "velocity": 81}, {"time": 1001, "pitch": 63, "duration": 5, "velocity": 87}, {"time": 1007, "pitch": 58, "duration": 9, "velocity": 83}, {"time": 1007, "pitch": 66, "duration": 12, "velocity": 87}, {"time": 1013, "pitch": 46, "duration": 13, "velocity": 81}, {"time": 1019, "pitch": 58, "duration": 4, "velocity": 87}, {"time": 1019, "pitch": 63, "duration": 5, "velocity": 87}, {"time": 1025, "pitch": 61, "duration": 2, "velocity": 90}, {"time": 1031, "pitch": 44, "duration": 39, "velocity": 87}, {"time": 1031, "pitch": 56, "duration": 8, "velocity": 77}, {"time": 1031, "pitch": 59, "duration": 12, "velocity": 82}, {"time": 1037, "pitch": 51, "duration": 20, "velocity": 78}, {"time": 1043, "pitch": 56, "duration": 6, "velocity": 90}, {"time": 1049, "pitch": 58, "duration": 5, "velocity": 89}, {"time": 1055, "pitch": 59, "duration": 9, "velocity": 88}, {"time": 1061, "pitch": 51, "duration": 8, "velocity": 70}, {"time": 1067, "pitch": 56, "duration": 5, "velocity": 82}, {"time": 1067, "pitch": 63, "duration": 4, "velocity": 90}, {"time": 1079, "pitch": 37, "duration": 19, "velocity": 88}, {"time": 1079, "pitch": 61, "duration": 12, "velocity": 88}, {"time": 1085, "pitch": 44, "duration": 11, "velocity": 75}, {"time": 1091, "pitch": 56, "duration": 10, "velocity": 92}, {"time": 1103, "pitch": 37, "duration": 16, "velocity": 89}, {"time": 1103, "pitch": 59, "duration": 7, "velocity": 79}, {"time": 1103, "pitch": 65, "duration": 13, "velocity": 78}, {"time": 1109, "pitch": 56, "duration": 11, "velocity": 86}, {"time": 1115, "pitch": 59, "duration": 4, "velocity": 90}, {"time": 1127, "pitch": 42, "duration": 38, "velocity": 83}, {"time": 1127, "pitch": 54, "duration": 7, "velocity": 81}, {"time": 1127, "pitch": 61, "duration": 9, "velocity": 83}, {"time": 1133, "pitch": 49, "duration": 32, "velocity": 82}, {"time": 1139, "pitch": 54, "duration": 12, "velocity": 89}, {"time": 1145, "pitch": 61, "duration": 7, "velocity": 85}, {"time": 1151, "pitch": 66, "duration": 10, "velocity": 86}, {"time": 1157, "pitch": 54, "duration": 4, "velocity": 85}, {"time": 1163, "pitch": 54, "duration": 9, "velocity": 89}, {"time": 1163, "pitch": 61, "duration": 9, "velocity": 88}, {"time": 1169, "pitch": 42, "duration": 5, "velocity": 87}, {"time": 1175, "pitch": 40, "duration": 25, "velocity": 88}, {"time": 1175, "pitch": 59, "duration": 13, "velocity": 86}, {"time": 1181, "pitch": 47, "duration": 20, "velocity": 83}, {"time": 1187, "pitch": 56, "duration": 6, "velocity": 85}, {"time": 1193, "pitch": 52, "duration": 5, "velocity": 91}, {"time": 1199, "pitch": 52, "duration": 1, "velocity": 75}, {"time": 1199, "pitch": 56, "duration": 6, "velocity": 88}, {"time": 1199, "pitch": 59, "duration": 6, "velocity": 86}, {"time": 1199, "pitch": 64, "duration": 6, "velocity": 83}, {"time": 1205, "pitch": 47, "duration": 12, "velocity": 81}, {"time": 1211, "pitch": 52, "duration": 3, "velocity": 87}, {"time": 1211, "pitch": 56, "duration": 7, "velocity": 85}, {"time": 1211, "pitch": 59, "duration": 6, "velocity": 86}, {"time": 1217, "pitch": 52, "duration": 2, "velocity": 91}, {"time": 1223, "pitch": 39, "duration": 24, "velocity": 89}, {"time": 1223, "pitch": 51, "duration": 11, "velocity": 87}, {"time": 1223, "pitch": 54, "duration": 8, "velocity": 86}, {"time": 1229, "pitch": 46, "duration": 14, "velocity": 64}, {"time": 1235, "pitch": 54, "duration": 5, "velocity": 87}, {"time": 1235, "pitch": 58, "duration": 6, "velocity": 87}, {"time": 1247, "pitch": 58, "duration": 7, "velocity": 85}, {"time": 1253, "pitch": 51, "duration": 4, "velocity": 83}, {"time": 1259, "pitch": 54, "duration": 8, "velocity": 90}, {"time": 1265, "pitch": 39, "duration": 4, "velocity": 90}, {"time": 1271, "pitch": 37, "duration": 14, "velocity": 90}, {"time": 1271, "pitch": 49, "duration": 9, "velocity": 82}, {"time": 1271, "pitch": 52, "duration": 9, "velocity": 81}, {"time": 1277, "pitch": 44, "duration": 7, "velocity": 76}, {"time": 1283, "pitch": 52, "duration": 12, "velocity": 91}, {"time": 1295, "pitch": 42, "duration": 22, "velocity": 87}, {"time": 1295, "pitch": 54, "duration": 6, "velocity": 87}, {"time": 1301, "pitch": 56, "duration": 7, "velocity": 91}, {"time": 1307, "pitch": 49, "duration": 8, "velocity": 82}, {"time": 1307, "pitch": 58, "duration": 6, "velocity": 90}, {"time": 1313, "pitch": 61, "duration": 5, "velocity": 87}, {"time": 1319, "pitch": 47, "duration": 21, "velocity": 88}, {"time": 1319, "pitch": 54, "duration": 7, "velocity": 84}, {"time": 1319, "pitch": 59, "duration": 10, "velocity": 88}, {"time": 1325, "pitch": 51, "duration": 14, "velocity": 84}, {"time": 1331, "pitch": 59, "duration": 4, "velocity": 93}, {"time": 1337, "pitch": 61, "duration": 3, "velocity": 93}, {"time": 1343, "pitch": 47, "duration": 19, "velocity": 92}, {"time": 1343, "pitch": 54, "duration": 3, "velocity": 87}, {"time": 1343, "pitch": 63, "duration": 9, "velocity": 90}, {"time": 1349, "pitch": 54, "duration": 5, "velocity": 88}, {"time": 1355, "pitch": 54, "duration": 3, "velocity": 87}, {"time": 1355, "pitch": 57, "duration": 6, "velocity": 89}, {"time": 1355, "pitch": 63, "duration": 9, "velocity": 91}, {"time": 1361, "pitch": 54, "duration": 2, "velocity": 77}, {"time": 1367, "pitch": 39, "duration": 18, "velocity": 87}, {"time": 1367, "pitch": 51, "duration": 13, "velocity": 83}, {"time": 1373, "pitch": 46, "duration": 9, "velocity": 88}, {"time": 1379, "pitch": 56, "duration": 6, "velocity": 103}, {"time": 1385, "pitch": 51, "duration": 3, "velocity": 94}, {"time": 1391, "pitch": 39, "duration": 14, "velocity": 93}, {"time": 1391, "pitch": 49, "duration": 4, "velocity": 93}, {"time": 1391, "pitch": 55, "duration": 7, "velocity": 87}, {"time": 1397, "pitch": 46, "duration": 8, "velocity": 77}, {"time": 1403, "pitch": 51, "duration": 3, "velocity": 91}, {"time": 1403, "pitch": 55, "duration": 3, "velocity": 90}, {"time": 1403, "pitch": 58, "duration": 4, "velocity": 89}, {"time": 1415, "pitch": 44, "duration": 5, "velocity": 89}, {"time": 1415, "pitch": 56, "duration": 5, "velocity": 88}, {"time": 1415, "pitch": 59, "duration": 11, "velocity": 92}, {"time": 1427, "pitch": 42, "duration": 2, "velocity": 87}, {"time": 1427, "pitch": 54, "duration": 3, "velocity": 86}, {"time": 1427, "pitch": 58, "duration": 3, "velocity": 87}, {"time": 1439, "pitch": 41, "duration": 15, "velocity": 82}, {"time": 1439, "pitch": 53, "duration": 14, "velocity": 79}, {"time": 1439, "pitch": 56, "duration": 14, "velocity": 83}, {"time": 1439, "pitch": 59, "duration": 16, "velocity": 83}, {"time": 1463, "pitch": 37, "duration": 40, "velocity": 88}, {"time": 1463, "pitch": 56, "duration": 12, "velocity": 83}, {"time": 1469, "pitch": 44, "duration": 34, "velocity": 78}, {"time": 1475, "pitch": 52, "duration": 7, "velocity": 86}, {"time": 1481, "pitch": 49, "duration": 9, "velocity": 92}, {"time": 1487, "pitch": 53, "duration": 7, "velocity": 87}, {"time": 1493, "pitch": 49, "duration": 7, "velocity": 90}, {"time": 1499, "pitch": 53, "duration": 6, "velocity": 90}, {"time": 1499, "pitch": 56, "duration": 8, "velocity": 89}, {"time": 1505, "pitch": 49, "duration": 2, "velocity": 88}, {"time": 1511, "pitch": 42, "duration": 21, "velocity": 86}, {"time": 1511, "pitch": 54, "duration": 9, "velocity": 74}, {"time": 1511, "pitch": 58, "duration": 4, "velocity": 59}, {"time": 1511, "pitch": 59, "duration": 9, "velocity": 71}, {"time": 1517, "pitch": 49, "duration": 15, "velocity": 89}, {"time": 1523, "pitch": 54, "duration": 4, "velocity": 89}, {"time": 1529, "pitch": 54, "duration": 4, "velocity": 88}, {"time": 1529, "pitch": 59, "duration": 6, "velocity": 89}, {"time": 1535, "pitch": 42, "duration": 21, "velocity": 88}, {"time": 1535, "pitch": 54, "duration": 10, "velocity": 87}, {"time": 1535, "pitch": 58, "duration": 9, "velocity": 88}, {"time": 1541, "pitch": 49, "duration": 15, "velocity": 86}, {"time": 1547, "pitch": 54, "duration": 3, "velocity": 87}, {"time": 1547, "pitch": 58, "duration": 11, "velocity": 89}, {"time": 1547, "pitch": 61, "duration": 11, "velocity": 87}, {"time": 1547, "pitch": 66, "duration": 11, "velocity": 83}, {"time": 1553, "pitch": 54, "duration": 5, "velocity": 90}, {"time": 1559, "pitch": 40, "duration": 25, "velocity": 88}, {"time": 1559, "pitch": 59, "duration": 13, "velocity": 86}, {"time": 1565, "pitch": 47, "duration": 20, "velocity": 83}, {"time": 1571, "pitch": 56, "duration": 6, "velocity": 85}, {"time": 1577, "pitch": 52, "duration": 5, "velocity": 91}, {"time": 1583, "pitch": 52, "duration": 1, "velocity": 75}, {"time": 1583, "pitch": 56, "duration": 6, "velocity": 88}, {"time": 1583, "pitch": 59, "duration": 6, "velocity": 86}, {"time": 1583, "pitch": 64, "duration": 6, "velocity": 83}, {"time": 1589, "pitch": 47, "duration": 12, "velocity": 81}, {"time": 1595, "pitch": 52, "duration": 3, "velocity": 87}, {"time": 1595, "pitch": 56, "duration": 7, "velocity": 85}, {"time": 1595, "pitch": 59, "duration": 6, "velocity": 86}, {"time": 1601, "pitch": 52, "duration": 2, "velocity": 91}, {"time": 1607, "pitch": 39, "duration": 24, "velocity": 89}, {"time": 1607, "pitch": 51, "duration": 11, "velocity": 87}, {"time": 1607, "pitch": 54, "duration": 8, "velocity": 86}, {"time": 1613, "pitch": 46, "duration": 14, "velocity": 64}, {"time": 1619, "pitch": 54, "duration": 5, "velocity": 87}, {"time": 1619, "pitch": 58, "duration": 6, "velocity": 87}, {"time": 1631, "pitch": 58, "duration": 7, "velocity": 85}, {"time": 1637, "pitch": 51, "duration": 4, "velocity": 83}, {"time": 1643, "pitch": 54, "duration": 8, "velocity": 90}, {"time": 1649, "pitch": 39, "duration": 4, "velocity": 90}, {"time": 1655, "pitch": 37, "duration": 14, "velocity": 90}, {"time": 1655, "pitch": 49, "duration": 9, "velocity": 82}, {"time": 1655, "pitch": 52, "duration": 9, "velocity": 81}, {"time": 1661, "pitch": 44, "duration": 7, "velocity": 76}, {"time": 1667, "pitch": 52, "duration": 12, "velocity": 91}, {"time": 1679, "pitch": 42, "duration": 22, "velocity": 87}, {"time": 1679, "pitch": 54, "duration": 6, "velocity": 87}, {"time": 1685, "pitch": 56, "duration": 7, "velocity": 91}, {"time": 1691, "pitch": 49, "duration": 8, "velocity": 82}, {"time": 1691, "pitch": 58, "duration": 6, "velocity": 90}, {"time": 1697, "pitch": 61, "duration": 5, "velocity": 87}, {"time": 1703, "pitch": 47, "duration": 21, "velocity": 88}, {"time": 1703, "pitch": 54, "duration": 7, "velocity": 84}, {"time": 1703, "pitch": 59, "duration": 10, "velocity": 88}, {"time": 1709, "pitch": 51, "duration": 14, "velocity": 84}, {"time": 1715, "pitch": 59, "duration": 4, "velocity": 93}, {"time": 1721, "pitch": 61, "duration": 3, "velocity": 93}, {"time": 1727, "pitch": 47, "duration": 19, "velocity": 92}, {"time": 1727, "pitch": 54, "duration": 3, "velocity": 87}, {"time": 1727, "pitch": 63, "duration": 9, "velocity": 90}, {"time": 1733, "pitch": 54, "duration": 5, "velocity": 88}, {"time": 1739, "pitch": 54, "duration": 3, "velocity": 87}, {"time": 1739, "pitch": 57, "duration": 6, "velocity": 89}, {"time": 1739, "pitch": 63, "duration": 9, "velocity": 91}, {"time": 1745, "pitch": 54, "duration": 2, "velocity": 77}, {"time": 1751, "pitch": 39, "duration": 18, "velocity": 87}, {"time": 1751, "pitch": 51, "duration": 13, "velocity": 83}, {"time": 1757, "pitch": 46, "duration": 9, "velocity": 88}, {"time": 1763, "pitch": 56, "duration": 6, "velocity": 103}, {"time": 1769, "pitch": 51, "duration": 3, "velocity": 94}, {"time": 1775, "pitch": 39, "duration": 14, "velocity": 93}, {"time": 1775, "pitch": 49, "duration": 4, "velocity": 93}, {"time": 1775, "pitch": 55, "duration": 7, "velocity": 87}, {"time": 1781, "pitch": 46, "duration": 8, "velocity": 77}, {"time": 1787, "pitch": 51, "duration": 3, "velocity": 91}, {"time": 1787, "pitch": 55, "duration": 3, "velocity": 90}, {"time": 1787, "pitch": 58, "duration": 4, "velocity": 89}, {"time": 1799, "pitch": 44, "duration": 5, "velocity": 89}, {"time": 1799, "pitch": 56, "duration": 5, "velocity": 88}, {"time": 1799, "pitch": 59, "duration": 11, "velocity": 92}, {"time": 1811, "pitch": 42, "duration": 2, "velocity": 87}, {"time": 1811, "pitch": 54, "duration": 3, "velocity": 86}, {"time": 1811, "pitch": 58, "duration": 3, "velocity": 87}, {"time": 1823, "pitch": 41, "duration": 15, "velocity": 82}, {"time": 1823, "pitch": 53, "duration": 14, "velocity": 79}, {"time": 1823, "pitch": 56, "duration": 14, "velocity": 83}, {"time": 1823, "pitch": 59, "duration": 16, "velocity": 83}, {"time": 1847, "pitch": 37, "duration": 15, "velocity": 88}, {"time": 1847, "pitch": 64, "duration": 19, "velocity": 87}, {"time": 1853, "pitch": 44, "duration": 8, "velocity": 76}, {"time": 1859, "pitch": 56, "duration": 14, "velocity": 91}, {"time": 1865, "pitch": 61, "duration": 8, "velocity": 87}, {"time": 1871, "pitch": 42, "duration": 20, "velocity": 86}, {"time": 1871, "pitch": 64, "duration": 8, "velocity": 80}, {"time": 1877, "pitch": 49, "duration": 13, "velocity": 80}, {"time": 1883, "pitch": 61, "duration": 5, "velocity": 87}, {"time": 1895, "pitch": 47, "duration": 41, "velocity": 83}, {"time": 1895, "pitch": 54, "duration": 4, "velocity": 77}, {"time": 1895, "pitch": 63, "duration": 13, "velocity": 85}, {"time": 1901, "pitch": 54, "duration": 7, "velocity": 81}, {"time": 1907, "pitch": 61, "duration": 12, "velocity": 84}, {"time": 1913, "pitch": 54, "duration": 7, "velocity": 88}, {"time": 1919, "pitch": 59, "duration": 7, "velocity": 81}, {"time": 1925, "pitch": 54, "duration": 2, "velocity": 74}, {"time": 1931, "pitch": 54, "duration": 2, "velocity": 88}, {"time": 1931, "pitch": 63, "duration": 6, "velocity": 87}, {"time": 1943, "pitch": 40, "duration": 42, "velocity": 86}, {"time": 1943, "pitch": 56, "duration": 13, "velocity": 83}, {"time": 1949, "pitch": 47, "duration": 36, "velocity": 82}, {"time": 1955, "pitch": 52, "duration": 20, "velocity": 87}, {"time": 1961, "pitch": 59, "duration": 14, "velocity": 85}, {"time": 1973, "pitch": 56, "duration": 7, "velocity": 77}, {"time": 1979, "pitch": 59, "duration": 6, "velocity": 82}, {"time": 1985, "pitch": 52, "duration": 5, "velocity": 87}, {"time": 1991, "pitch": 39, "duration": 43, "velocity": 88}, {"time": 1991, "pitch": 58, "duration": 21, "velocity": 83}, {"time": 1997, "pitch": 46, "duration": 32, "velocity": 80}, {"time": 2003, "pitch": 54, "duration": 8, "velocity": 88}, {"time": 2009, "pitch": 51, "duration": 8, "velocity": 83}, {"time": 2015, "pitch": 58, "duration": 7, "velocity": 86}, {"time": 2021, "pitch": 51, "duration": 5, "velocity": 89}, {"time": 2027, "pitch": 54, "duration": 7, "velocity": 94}, {"time": 2033, "pitch": 46, "duration": 2, "velocity": 89}, {"time": 2039, "pitch": 37, "duration": 16, "velocity": 89}, {"time": 2039, "pitch": 64, "duration": 11, "velocity": 85}, {"time": 2045, "pitch": 44, "duration": 9, "velocity": 86}, {"time": 2051, "pitch": 61, "duration": 6, "velocity": 94}, {"time": 2057, "pitch": 56, "duration": 6, "velocity": 82}, {"time": 2063, "pitch": 42, "duration": 21, "velocity": 87}, {"time": 2063, "pitch": 61, "duration": 12, "velocity": 83}, {"time": 2069, "pitch": 49, "duration": 15, "velocity": 84}, {"time": 2075, "pitch": 54, "duration": 7, "velocity": 94}, {"time": 2081, "pitch": 61, "duration": 5, "velocity": 87}, {"time": 2087, "pitch": 47, "duration": 23, "velocity": 91}, {"time": 2087, "pitch": 63, "duration": 13, "velocity": 90}, {"time": 2093, "pitch": 51, "duration": 17, "velocity": 69}, {"time": 2099, "pitch": 54, "duration": 10, "velocity": 92}, {"time": 2105, "pitch": 61, "duration": 6, "velocity": 88}, {"time": 2111, "pitch": 54, "duration": 8, "velocity": 88}, {"time": 2111, "pitch": 59, "duration": 8, "velocity": 88}, {"time": 2117, "pitch": 47, "duration": 9, "velocity": 86}, {"time": 2123, "pitch": 54, "duration": 3, "velocity": 90}, {"time": 2123, "pitch": 59, "duration": 8, "velocity": 94}, {"time": 2123, "pitch": 63, "duration": 8, "velocity": 93}, {"time": 2129, "pitch": 54, "duration": 4, "velocity": 93}, {"time": 2135, "pitch": 40, "duration": 43, "velocity": 88}, {"time": 2135, "pitch": 52, "duration": 8, "velocity": 88}, {"time": 2135, "pitch": 56, "duration": 13, "velocity": 87}, {"time": 2141, "pitch": 47, "duration": 23, "velocity": 89}, {"time": 2147, "pitch": 59, "duration": 18, "velocity": 89}, {"time": 2153, "pitch": 56, "duration": 10, "velocity": 88}, {"time": 2159, "pitch": 63, "duration": 8, "velocity": 75}, {"time": 2165, "pitch": 47, "duration": 7, "velocity": 83}, {"time": 2171, "pitch": 56, "duration": 5, "velocity": 85}, {"time": 2171, "pitch": 59, "duration": 6, "velocity": 88}, {"time": 2171, "pitch": 63, "duration": 8, "velocity": 89}, {"time": 2177, "pitch": 47, "duration": 3, "velocity": 85}, {"time": 2183, "pitch": 39, "duration": 19, "velocity": 89}, {"time": 2183, "pitch": 58, "duration": 7, "velocity": 82}, {"time": 2189, "pitch": 59, "duration": 7, "velocity": 101}, {"time": 2195, "pitch": 46, "duration": 8, "velocity": 80}, {"time": 2195, "pitch": 61, "duration": 7, "velocity": 88}, {"time": 2201, "pitch": 63, "duration": 16, "velocity": 98}, {"time": 2207, "pitch": 42, "duration": 16, "velocity": 88}, {"time": 2213, "pitch": 49, "duration": 9, "velocity": 88}, {"time": 2219, "pitch": 54, "duration": 4, "velocity": 88}, {"time": 2219, "pitch": 58, "duration": 7, "velocity": 89}, {"time": 2225, "pitch": 54, "duration": 3, "velocity": 93}, {"time": 2231, "pitch": 37, "duration": 18, "velocity": 90}, {"time": 2231, "pitch": 56, "duration": 10, "velocity": 82}, {"time": 2231, "pitch": 61, "duration": 11, "velocity": 87}, {"time": 2237, "pitch": 44, "duration": 11, "velocity": 77}, {"time": 2243, "pitch": 56, "duration": 3, "velocity": 84}, {"time": 2243, "pitch": 61, "duration": 7, "velocity": 87}, {"time": 2243, "pitch": 64, "duration": 7, "velocity": 88}, {"time": 2249, "pitch": 56, "duration": 7, "velocity": 87}, {"time": 2255, "pitch": 42, "duration": 20, "velocity": 87}, {"time": 2255, "pitch": 61, "duration": 9, "velocity": 88}, {"time": 2261, "pitch": 49, "duration": 13, "velocity": 87}, {"time": 2267, "pitch": 59, "duration": 3, "velocity": 96}, {"time": 2273, "pitch": 58, "duration": 5, "velocity": 89}, {"time": 2279, "pitch": 47, "duration": 21, "velocity": 87}, {"time": 2279, "pitch": 59, "duration": 13, "velocity": 87}, {"time": 2285, "pitch": 51, "duration": 14, "velocity": 73}, {"time": 2291, "pitch": 61, "duration": 7, "velocity": 82}, {"time": 2297, "pitch": 63, "duration": 6, "velocity": 83}, {"time": 2303, "pitch": 47, "duration": 25, "velocity": 82}, {"time": 2303, "pitch": 54, "duration": 9, "velocity": 77}, {"time": 2303, "pitch": 59, "duration": 10, "velocity": 78}, {"time": 2315, "pitch": 59, "duration": 12, "velocity": 75}, {"time": 2315, "pitch": 63, "duration": 12, "velocity": 83}, {"time": 2321, "pitch": 54, "duration": 6, "velocity": 78}, {"time": 2327, "pitch": 47, "duration": 1, "velocity": 88}, {"time": 2333, "pitch": 54, "duration": 9, "velocity": 77}, {"time": 2339, "pitch": 61, "duration": 12, "velocity": 82}, {"time": 2345, "pitch": 54, "duration": 9, "velocity": 70}, {"time": 2351, "pitch": 63, "duration": 12, "velocity": 83}, {"time": 2357, "pitch": 54, "duration": 5, "velocity": 62}, {"time": 2363, "pitch": 59, "duration": 3, "velocity": 83}, {"time": 2375, "pitch": 40, "duration": 44, "velocity": 87}, {"time": 2381, "pitch": 52, "duration": 7, "velocity": 80}, {"time": 2387, "pitch": 63, "duration": 4, "velocity": 89}, {"time": 2393, "pitch": 64, "duration": 5, "velocity": 74}, {"time": 2399, "pitch": 59, "duration": 3, "velocity": 75}, {"time": 2405, "pitch": 47, "duration": 7, "velocity": 61}, {"time": 2411, "pitch": 52, "duration": 6, "velocity": 81}, {"time": 2411, "pitch": 56, "duration": 6, "velocity": 81}, {"time": 2417, "pitch": 47, "duration": 4, "velocity": 82}, {"time": 2423, "pitch": 49, "duration": 15, "velocity": 76}, {"time": 2423, "pitch": 51, "duration": 1, "velocity": 77}, {"time": 2423, "pitch": 56, "duration": 3, "velocity": 69}, {"time": 2423, "pitch": 61, "duration": 13, "velocity": 80}, {"time": 2429, "pitch": 56, "duration": 7, "velocity": 83}, {"time": 2435, "pitch": 64, "duration": 13, "velocity": 86}, {"time": 2447, "pitch": 42, "duration": 22, "velocity": 86}, {"time": 2447, "pitch": 61, "duration": 13, "velocity": 83}, {"time": 2453, "pitch": 49, "duration": 14, "velocity": 82}, {"time": 2459, "pitch": 54, "duration": 7, "velocity": 93}, {"time": 2465, "pitch": 61, "duration": 6, "velocity": 87}, {"time": 2471, "pitch": 47, "duration": 16, "velocity": 81}, {"time": 2471, "pitch": 54, "duration": 3, "velocity": 74}, {"time": 2471, "pitch": 59, "duration": 12, "velocity": 74}, {"time": 2477, "pitch": 54, "duration": 7, "velocity": 74}, {"time": 2483, "pitch": 61, "duration": 7, "velocity": 85}, {"time": 2489, "pitch": 59, "duration": 2, "velocity": 79}, {"time": 2495, "pitch": 40, "duration": 8, "velocity": 82}, {"time": 2495, "pitch": 52, "duration": 7, "velocity": 75}, {"time": 2495, "pitch": 56, "duration": 12, "velocity": 73}, {"time": 2507, "pitch": 42, "duration": 10, "velocity": 84}, {"time": 2507, "pitch": 54, "duration": 7, "velocity": 82}, {"time": 2507, "pitch": 58, "duration": 7, "velocity": 87}, {"time": 2513, "pitch": 49, "duration": 4, "velocity": 77}, {"time": 2519, "pitch": 47, "duration": 45, "velocity": 83}, {"time": 2519, "pitch": 59, "duration": 13, "velocity": 79}, {"time": 2525, "pitch": 51, "duration": 39, "velocity": 76}, {"time": 2531, "pitch": 61, "duration": 7, "velocity": 86}, {"time": 2537, "pitch": 54, "duration": 8, "velocity": 75}, {"time": 2543, "pitch": 63, "duration": 11, "velocity": 85}, {"time": 2549, "pitch": 54, "duration": 4, "velocity": 73}, {"time": 2555, "pitch": 54, "duration": 7, "velocity": 85}, {"time": 2555, "pitch": 59, "duration": 6, "velocity": 84}, {"time": 2567, "pitch": 44, "duration": 15, "velocity": 87}, {"time": 2567, "pitch": 56, "duration": 8, "velocity": 76}, {"time": 2567, "pitch": 59, "duration": 13, "velocity": 80}, {"time": 2573, "pitch": 51, "duration": 8, "velocity": 81}, {"time": 2579, "pitch": 56, "duration": 5, "velocity": 92}, {"time": 2591, "pitch": 40, "duration": 17, "velocity": 87}, {"time": 2591, "pitch": 59, "duration": 13, "velocity": 81}, {"time": 2597, "pitch": 47, "duration": 12, "velocity": 81}, {"time": 2603, "pitch": 52, "duration": 6, "velocity": 93}, {"time": 2609, "pitch": 59, "duration": 3, "velocity": 87}, {"time": 2615, "pitch": 49, "duration": 15, "velocity": 86}, {"time": 2615, "pitch": 56, "duration": 4, "velocity": 78}, {"time": 2615, "pitch": 61, "duration": 10, "velocity": 81}, {"time": 2621, "pitch": 56, "duration": 7, "velocity": 82}, {"time": 2627, "pitch": 64, "duration": 5, "velocity": 81}, {"time": 2639, "pitch": 42, "duration": 21, "velocity": 86}, {"time": 2639, "pitch": 58, "duration": 7, "velocity": 81}, {"time": 2645, "pitch": 54, "duration": 8, "velocity": 84}, {"time": 2651, "pitch": 61, "duration": 6, "velocity": 86}, {"time": 2663, "pitch": 47, "duration": 12, "velocity": 83}, {"time": 2663, "pitch": 63, "duration": 13, "velocity": 89}, {"time": 2669, "pitch": 54, "duration": 7, "velocity": 84}, {"time": 2675, "pitch": 59, "duration": 4, "velocity": 83}, {"time": 2687, "pitch": 37, "duration": 3, "velocity": 87}, {"time": 2687, "pitch": 56, "duration": 4, "velocity": 78}, {"time": 2687, "pitch": 61, "duration": 4, "velocity": 82}, {"time": 2699, "pitch": 38, "duration": 12, "velocity": 79}, {"time": 2699, "pitch": 62, "duration": 12, "velocity": 80}, {"time": 2699, "pitch": 65, "duration": 12, "velocity": 79}, {"time": 2711, "pitch": 39, "duration": 39, "velocity": 88}, {"time": 2711, "pitch": 58, "duration": 8, "velocity": 82}, {"time": 2711, "pitch": 63, "duration": 13, "velocity": 87}, {"time": 2717, "pitch": 46, "duration": 32, "velocity": 67}, {"time": 2723, "pitch": 58, "duration": 12, "velocity": 93}, {"time": 2729, "pitch": 63, "duration": 7, "velocity": 89}, {"time": 2735, "pitch": 66, "duration": 10, "velocity": 88}, {"time": 2741, "pitch": 58, "duration": 3, "velocity": 79}, {"time": 2747, "pitch": 58, "duration": 3, "velocity": 89}, {"time": 2747, "pitch": 63, "duration": 2, "velocity": 88}, {"time": 2759, "pitch": 44, "duration": 40, "velocity": 87}, {"time": 2759, "pitch": 56, "duration": 8, "velocity": 78}, {"time": 2759, "pitch": 59, "duration": 9, "velocity": 83}, {"time": 2765, "pitch": 51, "duration": 20, "velocity": 82}, {"time": 2771, "pitch": 58, "duration": 4, "velocity": 82}, {"time": 2777, "pitch": 59, "duration": 4, "velocity": 88}, {"time": 2783, "pitch": 56, "duration": 7, "velocity": 83}, {"time": 2783, "pitch": 63, "duration": 6, "velocity": 88}, {"time": 2789, "pitch": 51, "duration": 10, "velocity": 86}, {"time": 2795, "pitch": 56, "duration": 3, "velocity": 83}, {"time": 2795, "pitch": 59, "duration": 3, "velocity": 88}, {"time": 2801, "pitch": 56, "duration": 8, "velocity": 84}, {"time": 2807, "pitch": 37, "duration": 15, "velocity": 88}, {"time": 2807, "pitch": 64, "duration": 12, "velocity": 87}, {"time": 2813, "pitch": 44, "duration": 8, "velocity": 60}, {"time": 2819, "pitch": 61, "duration": 7, "velocity": 86}, {"time": 2825, "pitch": 56, "duration": 7, "velocity": 89}, {"time": 2831, "pitch": 49, "duration": 13, "velocity": 87}, {"time": 2831, "pitch": 61, "duration": 8, "velocity": 83}, {"time": 2837, "pitch": 56, "duration": 4, "velocity": 81}, {"time": 2843, "pitch": 56, "duration": 3, "velocity": 88}, {"time": 2843, "pitch": 64, "duration": 7, "velocity": 85}, {"time": 2855, "pitch": 42, "duration": 44, "velocity": 87}, {"time": 2855, "pitch": 54, "duration": 12, "velocity": 83}, {"time": 2855, "pitch": 61, "duration": 13, "velocity": 86}, {"time": 2861, "pitch": 49, "duration": 20, "velocity": 81}, {"time": 2867, "pitch": 58, "duration": 6, "velocity": 86}, {"time": 2873, "pitch": 54, "duration": 15, "velocity": 87}, {"time": 2879, "pitch": 61, "duration": 8, "velocity": 83}, {"time": 2885, "pitch": 49, "duration": 10, "velocity": 69}, {"time": 2891, "pitch": 54, "duration": 1, "velocity": 72}, {"time": 2891, "pitch": 58, "duration": 7, "velocity": 87}, {"time": 2891, "pitch": 61, "duration": 9, "velocity": 87}, {"time": 2897, "pitch": 54, "duration": 3, "velocity": 84}, {"time": 2903, "pitch": 39, "duration": 42, "velocity": 87}, {"time": 2903, "pitch": 63, "duration": 12, "velocity": 86}, {"time": 2909, "pitch": 46, "duration": 22, "velocity": 75}, {"time": 2915, "pitch": 58, "duration": 8, "velocity": 81}, {"time": 2921, "pitch": 63, "duration": 5, "velocity": 87}, {"time": 2927, "pitch": 58, "duration": 9, "velocity": 83}, {"time": 2927, "pitch": 66, "duration": 12, "velocity": 87}, {"time": 2933, "pitch": 46, "duration": 13, "velocity": 81}, {"time": 2939, "pitch": 58, "duration": 4, "velocity": 87}, {"time": 2939, "pitch": 63, "duration": 5, "velocity": 87}, {"time": 2945, "pitch": 61, "duration": 2, "velocity": 90}, {"time": 2951, "pitch": 44, "duration": 39, "velocity": 87}, {"time": 2951, "pitch": 56, "duration": 8, "velocity": 77}, {"time": 2951, "pitch": 59, "duration": 12, "velocity": 82}, {"time": 2957, "pitch": 51, "duration": 20, "velocity": 78}, {"time": 2963, "pitch": 56, "duration": 6, "velocity": 90}, {"time": 2969, "pitch": 58, "duration": 5, "velocity": 89}, {"time": 2975, "pitch": 59, "duration": 9, "velocity": 88}, {"time": 2981, "pitch": 51, "duration": 8, "velocity": 70}, {"time": 2987, "pitch": 56, "duration": 5, "velocity": 82}, {"time": 2987, "pitch": 63, "duration": 4, "velocity": 90}, {"time": 2999, "pitch": 37, "duration": 19, "velocity": 88}, {"time": 2999, "pitch": 61, "duration": 12, "velocity": 88}, {"time": 3005, "pitch": 44, "duration": 11, "velocity": 75}, {"time": 3011, "pitch": 56, "duration": 10, "velocity": 92}, {"time": 3023, "pitch": 37, "duration": 16, "velocity": 89}, {"time": 3023, "pitch": 59, "duration": 7, "velocity": 79}, {"time": 3023, "pitch": 65, "duration": 13, "velocity": 78}, {"time": 3029, "pitch": 56, "duration": 11, "velocity": 86}, {"time": 3035, "pitch": 59, "duration": 4, "velocity": 90}, {"time": 3047, "pitch": 42, "duration": 38, "velocity": 83}, {"time": 3047, "pitch": 54, "duration": 7, "velocity": 81}, {"time": 3047, "pitch": 61, "duration": 9, "velocity": 83}, {"time": 3053, "pitch": 49, "duration": 32, "velocity": 82}, {"time": 3059, "pitch": 54, "duration": 12, "velocity": 89}, {"time": 3065, "pitch": 61, "duration": 7, "velocity": 85}, {"time": 3071, "pitch": 66, "duration": 10, "velocity": 86}, {"time": 3077, "pitch": 54, "duration": 4, "velocity": 85}, {"time": 3083, "pitch": 54, "duration": 9, "velocity": 89}, {"time": 3083, "pitch": 61, "duration": 9, "velocity": 88}, {"time": 3089, "pitch": 42, "duration": 5, "velocity": 87}, {"time": 3095, "pitch": 40, "duration": 25, "velocity": 88}, {"time": 3095, "pitch": 59, "duration": 13, "velocity": 86}, {"time": 3101, "pitch": 47, "duration": 20, "velocity": 83}, {"time": 3107, "pitch": 56, "duration": 6, "velocity": 85}, {"time": 3113, "pitch": 52, "duration": 5, "velocity": 91}, {"time": 3119, "pitch": 52, "duration": 1, "velocity": 75}, {"time": 3119, "pitch": 56, "duration": 6, "velocity": 88}, {"time": 3119, "pitch": 59, "duration": 6, "velocity": 86}, {"time": 3119, "pitch": 64, "duration": 6, "velocity": 83}, {"time": 3125, "pitch": 47, "duration": 12, "velocity": 81}, {"time": 3131, "pitch": 52, "duration": 3, "velocity": 87}, {"time": 3131, "pitch": 56, "duration": 7, "velocity": 85}, {"time": 3131, "pitch": 59, "duration": 6, "velocity": 86}, {"time": 3137, "pitch": 52, "duration": 2, "velocity": 91}, {"time": 3143, "pitch": 39, "duration": 24, "velocity": 89}, {"time": 3143, "pitch": 51, "duration": 11, "velocity": 87}, {"time": 3143, "pitch": 54, "duration": 8, "velocity": 86}, {"time": 3149, "pitch": 46, "duration": 14, "velocity": 64}, {"time": 3155, "pitch": 54, "duration": 5, "velocity": 87}, {"time": 3155, "pitch": 58, "duration": 6, "velocity": 87}, {"time": 3167, "pitch": 58, "duration": 7, "velocity": 85}, {"time": 3173, "pitch": 51, "duration": 4, "velocity": 83}, {"time": 3179, "pitch": 54, "duration": 8, "velocity": 90}, {"time": 3185, "pitch": 39, "duration": 4, "velocity": 90}, {"time": 3191, "pitch": 37, "duration": 14, "velocity": 90}, {"time": 3191, "pitch": 49, "duration": 9, "velocity": 82}, {"time": 3191, "pitch": 52, "duration": 9, "velocity": 81}, {"time": 3197, "pitch": 44, "duration": 7, "velocity": 76}, {"time": 3203, "pitch": 52, "duration": 12, "velocity": 91}, {"time": 3215, "pitch": 42, "duration": 22, "velocity": 87}, {"time": 3215, "pitch": 54, "duration": 6, "velocity": 87}, {"time": 3221, "pitch": 56, "duration": 7, "velocity": 91}, {"time": 3227, "pitch": 49, "duration": 8, "velocity": 82}, {"time": 3227, "pitch": 58, "duration": 6, "velocity": 90}, {"time": 3233, "pitch": 61, "duration": 5, "velocity": 87}, {"time": 3239, "pitch": 47, "duration": 21, "velocity": 88}, {"time": 3239, "pitch": 54, "duration": 7, "velocity": 84}, {"time": 3239, "pitch": 59, "duration": 10, "velocity": 88}, {"time": 3245, "pitch": 51, "duration": 14, "velocity": 84}, {"time": 3251, "pitch": 59, "duration": 4, "velocity": 93}, {"time": 3257, "pitch": 61, "duration": 3, "velocity": 93}, {"time": 3263, "pitch": 47, "duration": 19, "velocity": 92}, {"time": 3263, "pitch": 54, "duration": 3, "velocity": 87}, {"time": 3263, "pitch": 63, "duration": 9, "velocity": 90}, {"time": 3269, "pitch": 54, "duration": 5, "velocity": 88}, {"time": 3275, "pitch": 54, "duration": 3, "velocity": 87}, {"time": 3275, "pitch": 57, "duration": 6, "velocity": 89}, {"time": 3275, "pitch": 63, "duration": 9, "velocity": 91}, {"time": 3281, "pitch": 54, "duration": 2, "velocity": 77}, {"time": 3287, "pitch": 39, "duration": 18, "velocity": 87}, {"time": 3287, "pitch": 51, "duration": 13, "velocity": 83}, {"time": 3293, "pitch": 46, "duration": 9, "velocity": 88}, {"time": 3299, "pitch": 56, "duration": 6, "velocity": 103}, {"time": 3305, "pitch": 51, "duration": 3, "velocity": 94}, {"time": 3311, "pitch": 39, "duration": 14, "velocity": 93}, {"time": 3311, "pitch": 49, "duration": 4, "velocity": 93}, {"time": 3311, "pitch": 55, "duration": 7, "velocity": 87}, {"time": 3317, "pitch": 46, "duration": 8, "velocity": 77}, {"time": 3323, "pitch": 51, "duration": 3, "velocity": 91}, {"time": 3323, "pitch": 55, "duration": 3, "velocity": 90}, {"time": 3323, "pitch": 58, "duration": 4, "velocity": 89}, {"time": 3335, "pitch": 44, "duration": 5, "velocity": 89}, {"time": 3335, "pitch": 56, "duration": 5, "velocity": 88}, {"time": 3335, "pitch": 59, "duration": 11, "velocity": 92}, {"time": 3347, "pitch": 42, "duration": 2, "velocity": 87}, {"time": 3347, "pitch": 54, "duration": 3, "velocity": 86}, {"time": 3347, "pitch": 58, "duration": 3, "velocity": 87}, {"time": 3359, "pitch": 41, "duration": 15, "velocity": 82}, {"time": 3359, "pitch": 53, "duration": 14, "velocity": 79}, {"time": 3359, "pitch": 56, "duration": 14, "velocity": 83}, {"time": 3359, "pitch": 59, "duration": 16, "velocity": 83}, {"time": 3383, "pitch": 37, "duration": 40, "velocity": 88}, {"time": 3383, "pitch": 56, "duration": 12, "velocity": 83}, {"time": 3389, "pitch": 44, "duration": 34, "velocity": 78}, {"time": 3395, "pitch": 52, "duration": 7, "velocity": 86}, {"time": 3401, "pitch": 49, "duration": 9, "velocity": 92}, {"time": 3407, "pitch": 53, "duration": 7, "velocity": 87}, {"time": 3413, "pitch": 49, "duration": 7, "velocity": 90}, {"time": 3419, "pitch": 53, "duration": 6, "velocity": 90}, {"time": 3419, "pitch": 56, "duration": 8, "velocity": 89}, {"time": 3425, "pitch": 49, "duration": 2, "velocity": 88}, {"time": 3431, "pitch": 42, "duration": 21, "velocity": 86}, {"time": 3431, "pitch": 54, "duration": 9, "velocity": 74}, {"time": 3431, "pitch": 58, "duration": 4, "velocity": 59}, {"time": 3431, "pitch": 59, "duration": 9, "velocity": 71}, {"time": 3437, "pitch": 49, "duration": 15, "velocity": 89}, {"time": 3443, "pitch": 54, "duration": 4, "velocity": 89}, {"time": 3449, "pitch": 54, "duration": 4, "velocity": 88}, {"time": 3449, "pitch": 59, "duration": 6, "velocity": 89}, {"time": 3455, "pitch": 42, "duration": 21, "velocity": 88}, {"time": 3455, "pitch": 54, "duration": 10, "velocity": 87}, {"time": 3455, "pitch": 58, "duration": 9, "velocity": 88}, {"time": 3461, "pitch": 49, "duration": 15, "velocity": 86}, {"time": 3467, "pitch": 54, "duration": 3, "velocity": 87}, {"time": 3467, "pitch": 58, "duration": 11, "velocity": 89}, {"time": 3467, "pitch": 61, "duration": 11, "velocity": 87}, {"time": 3467, "pitch": 66, "duration": 11, "velocity": 83}, {"time": 3473, "pitch": 54, "duration": 5, "velocity": 90}, {"time": 3479, "pitch": 40, "duration": 25, "velocity": 88}, {"time": 3479, "pitch": 59, "duration": 13, "velocity": 86}, {"time": 3485, "pitch": 47, "duration": 20, "velocity": 83}, {"time": 3491, "pitch": 56, "duration": 6, "velocity": 85}, {"time": 3497, "pitch": 52, "duration": 5, "velocity": 91}, {"time": 3503, "pitch": 52, "duration": 1, "velocity": 75}, {"time": 3503, "pitch": 56, "duration": 6, "velocity": 88}, {"time": 3503, "pitch": 59, "duration": 6, "velocity": 86}, {"time": 3503, "pitch": 64, "duration": 6, "velocity": 83}, {"time": 3509, "pitch": 47, "duration": 12, "velocity": 81}, {"time": 3515, "pitch": 52, "duration": 3, "velocity": 87}, {"time": 3515, "pitch": 56, "duration": 7, "velocity": 85}, {"time": 3515, "pitch": 59, "duration": 6, "velocity": 86}, {"time": 3521, "pitch": 52, "duration": 2, "velocity": 91}, {"time": 3527, "pitch": 39, "duration": 24, "velocity": 89}, {"time": 3527, "pitch": 51, "duration": 11, "velocity": 87}, {"time": 3527, "pitch": 54, "duration": 8, "velocity": 86}, {"time": 3533, "pitch": 46, "duration": 14, "velocity": 64}, {"time": 3539, "pitch": 54, "duration": 5, "velocity": 87}, {"time": 3539, "pitch": 58, "duration": 6, "velocity": 87}, {"time": 3551, "pitch": 58, "duration": 7, "velocity": 85}, {"time": 3557, "pitch": 51, "duration": 4, "velocity": 83}, {"time": 3563, "pitch": 54, "duration": 8, "velocity": 90}, {"time": 3569, "pitch": 39, "duration": 4, "velocity": 90}, {"time": 3575, "pitch": 37, "duration": 14, "velocity": 90}, {"time": 3575, "pitch": 49, "duration": 9, "velocity": 82}, {"time": 3575, "pitch": 52, "duration": 9, "velocity": 81}, {"time": 3581, "pitch": 44, "duration": 7, "velocity": 76}, {"time": 3587, "pitch": 52, "duration": 12, "velocity": 91}, {"time": 3599, "pitch": 42, "duration": 22, "velocity": 87}, {"time": 3599, "pitch": 54, "duration": 6, "velocity": 87}, {"time": 3605, "pitch": 56, "duration": 7, "velocity": 91}, {"time": 3611, "pitch": 49, "duration": 8, "velocity": 82}, {"time": 3611, "pitch": 58, "duration": 6, "velocity": 90}, {"time": 3617, "pitch": 61, "duration": 5, "velocity": 87}, {"time": 3623, "pitch": 47, "duration": 21, "velocity": 88}, {"time": 3623, "pitch": 54, "duration": 7, "velocity": 84}, {"time": 3623, "pitch": 59, "duration": 10, "velocity": 88}, {"time": 3629, "pitch": 51, "duration": 14, "velocity": 84}, {"time": 3635, "pitch": 59, "duration": 4, "velocity": 93}, {"time": 3641, "pitch": 61, "duration": 3, "velocity": 93}, {"time": 3647, "pitch": 47, "duration": 19, "velocity": 92}, {"time": 3647, "pitch": 54, "duration": 3, "velocity": 87}, {"time": 3647, "pitch": 63, "duration": 9, "velocity": 90}, {"time": 3653, "pitch": 54, "duration": 5, "velocity": 88}, {"time": 3659, "pitch": 54, "duration": 3, "velocity": 87}, {"time": 3659, "pitch": 57, "duration": 6, "velocity": 89}, {"time": 3659, "pitch": 63, "duration": 9, "velocity": 91}, {"time": 3665, "pitch": 54, "duration": 2, "velocity": 77}, {"time": 3671, "pitch": 39, "duration": 18, "velocity": 87}, {"time": 3671, "pitch": 51, "duration": 13, "velocity": 83}, {"time": 3677, "pitch": 46, "duration": 9, "velocity": 88}, {"time": 3683, "pitch": 56, "duration": 6, "velocity": 103}, {"time": 3689, "pitch": 51, "duration": 3, "velocity": 94}, {"time": 3695, "pitch": 39, "duration": 14, "velocity": 93}, {"time": 3695, "pitch": 49, "duration": 4, "velocity": 93}, {"time": 3695, "pitch": 55, "duration": 7, "velocity": 87}, {"time": 3701, "pitch": 46, "duration": 8, "velocity": 77}, {"time": 3707, "pitch": 51, "duration": 3, "velocity": 91}, {"time": 3707, "pitch": 55, "duration": 3, "velocity": 90}, {"time": 3707, "pitch": 58, "duration": 4, "velocity": 89}, {"time": 3719, "pitch": 44, "duration": 5, "velocity": 89}, {"time": 3719, "pitch": 56, "duration": 5, "velocity": 88}, {"time": 3719, "pitch": 59, "duration": 11, "velocity": 92}, {"time": 3731, "pitch": 42, "duration": 2, "velocity": 87}, {"time": 3731, "pitch": 54, "duration": 3, "velocity": 86}, {"time": 3731, "pitch": 58, "duration": 3, "velocity": 87}, {"time": 3743, "pitch": 41, "duration": 15, "velocity": 82}, {"time": 3743, "pitch": 53, "duration": 14, "velocity": 79}, {"time": 3743, "pitch": 56, "duration": 14, "velocity": 83}, {"time": 3743, "pitch": 59, "duration": 16, "velocity": 83}, {"time": 3767, "pitch": 37, "duration": 15, "velocity": 88}, {"time": 3767, "pitch": 64, "duration": 19, "velocity": 87}, {"time": 3773, "pitch": 44, "duration": 8, "velocity": 76}, {"time": 3779, "pitch": 56, "duration": 14, "velocity": 91}, {"time": 3785, "pitch": 61, "duration": 8, "velocity": 87}, {"time": 3791, "pitch": 42, "duration": 20, "velocity": 86}, {"time": 3791, "pitch": 64, "duration": 8, "velocity": 80}, {"time": 3797, "pitch": 49, "duration": 13, "velocity": 80}, {"time": 3803, "pitch": 61, "duration": 5, "velocity": 87}, {"time": 3815, "pitch": 47, "duration": 21, "velocity": 83}, {"time": 3815, "pitch": 54, "duration": 4, "velocity": 77}, {"time": 3815, "pitch": 63, "duration": 13, "velocity": 85}, {"time": 3821, "pitch": 54, "duration": 7, "velocity": 81}, {"time": 3827, "pitch": 61, "duration": 12, "velocity": 84}, {"time": 3833, "pitch": 54, "duration": 7, "velocity": 88}, {"time": 3837, "pitch": 54, "duration": 3, "velocity": 76}, {"time": 3838, "pitch": 59, "duration": 22, "velocity": 79}, {"time": 3839, "pitch": 35, "duration": 21, "velocity": 76}, {"time": 3839, "pitch": 63, "duration": 21, "velocity": 87}, {"time": 3863, "pitch": 52, "duration": 9, "velocity": 66}, {"time": 3864, "pitch": 40, "duration": 43, "velocity": 71}, {"time": 3864, "pitch": 56, "duration": 14, "velocity": 75}, {"time": 3870, "pitch": 47, "duration": 23, "velocity": 63}, {"time": 3876, "pitch": 52, "duration": 18, "velocity": 78}, {"time": 3883, "pitch": 56, "duration": 13, "velocity": 78}, {"time": 3883, "pitch": 59, "duration": 12, "velocity": 75}, {"time": 3895, "pitch": 47, "duration": 9, "velocity": 59}, {"time": 3901, "pitch": 52, "duration": 4, "velocity": 77}, {"time": 3912, "pitch": 51, "duration": 9, "velocity": 76}, {"time": 3914, "pitch": 54, "duration": 11, "velocity": 78}, {"time": 3914, "pitch": 39, "duration": 39, "velocity": 88}, {"time": 3920, "pitch": 46, "duration": 32, "velocity": 69}, {"time": 3926, "pitch": 51, "duration": 24, "velocity": 83}, {"time": 3932, "pitch": 54, "duration": 18, "velocity": 78}, {"time": 3932, "pitch": 58, "duration": 18, "velocity": 80}, {"time": 3958, "pitch": 56, "duration": 10, "velocity": 66}, {"time": 3960, "pitch": 61, "duration": 13, "velocity": 76}, {"time": 3961, "pitch": 37, "duration": 18, "velocity": 88}, {"time": 3961, "pitch": 64, "duration": 13, "velocity": 83}, {"time": 3967, "pitch": 44, "duration": 12, "velocity": 74}, {"time": 3973, "pitch": 56, "duration": 13, "velocity": 94}, {"time": 3980, "pitch": 61, "duration": 19, "velocity": 87}, {"time": 3987, "pitch": 42, "duration": 27, "velocity": 82}, {"time": 3995, "pitch": 49, "duration": 18, "velocity": 87}, {"time": 4002, "pitch": 54, "duration": 13, "velocity": 79}, {"time": 4004, "pitch": 61, "duration": 12, "velocity": 81}, {"time": 4006, "pitch": 66, "duration": 7, "velocity": 65}, {"time": 4020, "pitch": 54, "duration": 4, "velocity": 73}, {"time": 4021, "pitch": 47, "duration": 26, "velocity": 75}, {"time": 4021, "pitch": 59, "duration": 12, "velocity": 83}, {"time": 4023, "pitch": 63, "duration": 26, "velocity": 87}, {"time": 4029, "pitch": 54, "duration": 21, "velocity": 83}, {"time": 4038, "pitch": 61, "duration": 14, "velocity": 80}, {"time": 4050, "pitch": 59, "duration": 3, "velocity": 81}, {"time": 4079, "pitch": 47, "duration": 21, "velocity": 59}, {"time": 4082, "pitch": 54, "duration": 18, "velocity": 70}, {"time": 4083, "pitch": 59, "duration": 17, "velocity": 71}, {"time": 4085, "pitch": 71, "duration": 15, "velocity": 62}], "annotations": [{"time": 23, "annotation": {"number": 64, "value": 127}, "group": "control_change"}, {"time": 23, "annotation": {"number": 64, "value": 0}, "group": "control_change"}, {"time": 69, "annotation": {"number": 64, "value": 0}, "group": "control_change"}, {"time": 74, "annotation": {"number": 64, "value": 127}, "group": "control_change"}, {"time": 74, "annotation": {"number": 64, "value": 0}, "group": "control_change"}, {"time": 116, "annotation": {"number": 64, "value": 0}, "group": "control_change"}, {"time": 119, "annotation": {"number": 64, "value": 127}, "group": "control_change"}, {"time": 142, "annotation": {"number": 64, "value": 0}, "group": "control_change"}, {"time": 147, "annotation": {"number": 64, "value": 127}, "group": "control_change"}, {"time": 165, "annotation": {"number": 64, "value": 0}, "group": "control_change"}, {"time": 168, "annotation": {"number": 64, "value": 127}, "group": "control_change"}, {"time": 189, "annotation": {"number": 64, "value": 0}, "group": "control_change"}, {"time": 191, "annotation": {"number": 64, "value": 127}, "group": "control_change"}, {"time": 203, "annotation": {"number": 64, "value": 0}, "group": "control_change"}, {"time": 205, "annotation": {"number": 64, "value": 127}, "group": "control_change"}, {"time": 213, "annotation": {"number": 64, "value": 0}, "group": "control_change"}, {"time": 217, "annotation": {"number": 64, "value": 127}, "group": "control_change"}, {"time": 224, "annotation": {"number": 64, "value": 0}, "group": "control_change"}, {"time": 226, "annotation": {"number": 64, "value": 127}, "group": "control_change"}, {"time": 262, "annotation": {"number": 64, "value": 0}, "group": "control_change"}, {"time": 265, "annotation": {"number": 64, "value": 127}, "group": "control_change"}, {"time": 290, "annotation": {"number": 64, "value": 0}, "group": "control_change"}, {"time": 293, "annotation": {"number": 64, "value": 127}, "group": "control_change"}, {"time": 309, "annotation": {"number": 64, "value": 0}, "group": "control_change"}, {"time": 311, "annotation": {"number": 64, "value": 127}, "group": "control_change"}, {"time": 333, "annotation": {"number": 64, "value": 0}, "group": "control_change"}, {"time": 335, "annotation": {"number": 64, "value": 127}, "group": "control_change"}, {"time": 356, "annotation": {"number": 64, "value": 0}, "group": "control_change"}, {"time": 358, "annotation": {"number": 64, "value": 127}, "group": "control_change"}, {"time": 406, "annotation": {"number": 64, "value": 0}, "group": "control_change"}, {"time": 413, "annotation": {"number": 64, "value": 127}, "group": "control_change"}, {"time": 454, "annotation": {"number": 64, "value": 0}, "group": "control_change"}, {"time": 456, "annotation": {"number": 64, "value": 127}, "group": "control_change"}, {"time": 503, "annotation": {"number": 64, "value": 0}, "group": "control_change"}, {"time": 506, "annotation": {"number": 64, "value": 127}, "group": "control_change"}, {"time": 506, "annotation": {"number": 64, "value": 0}, "group": "control_change"}, {"time": 528, "annotation": {"number": 64, "value": 0}, "group": "control_change"}, {"time": 535, "annotation": {"number": 64, "value": 127}, "group": "control_change"}, {"time": 551, "annotation": {"number": 64, "value": 0}, "group": "control_change"}, {"time": 552, "annotation": {"number": 64, "value": 127}, "group": "control_change"}, {"time": 574, "annotation": {"number": 64, "value": 0}, "group": "control_change"}, {"time": 577, "annotation": {"number": 64, "value": 127}, "group": "control_change"}, {"time": 586, "annotation": {"number": 64, "value": 0}, "group": "control_change"}, {"time": 588, "annotation": {"number": 64, "value": 127}, "group": "control_change"}, {"time": 598, "annotation": {"number": 64, "value": 0}, "group": "control_change"}, {"time": 603, "annotation": {"number": 64, "value": 127}, "group": "control_change"}, {"time": 603, "annotation": {"number": 64, "value": 0}, "group": "control_change"}, {"time": 604, "annotation": {"number": 64, "value": 127}, "group": "control_change"}, {"time": 649, "annotation": {"number": 64, "value": 127}, "group": "control_change"}, {"time": 649, "annotation": {"number": 64, "value": 0}, "group": "control_change"}, {"time": 670, "annotation": {"number": 64, "value": 0}, "group": "control_change"}, {"time": 674, "annotation": {"number": 64, "value": 127}, "group": "control_change"}, {"time": 694, "annotation": {"number": 64, "value": 0}, "group": "control_change"}, {"time": 697, "annotation": {"number": 64, "value": 127}, "group": "control_change"}, {"time": 719, "annotation": {"number": 64, "value": 0}, "group": "control_change"}, {"time": 722, "annotation": {"number": 64, "value": 127}, "group": "control_change"}, {"time": 741, "annotation": {"number": 64, "value": 0}, "group": "control_change"}, {"time": 744, "annotation": {"number": 64, "value": 127}, "group": "control_change"}, {"time": 766, "annotation": {"number": 64, "value": 0}, "group": "control_change"}, {"time": 767, "annotation": {"number": 64, "value": 127}, "group": "control_change"}, {"time": 778, "annotation": {"number": 64, "value": 0}, "group": "control_change"}, {"time": 780, "annotation": {"number": 64, "value": 127}, "group": "control_change"}, {"time": 789, "annotation": {"number": 64, "value": 0}, "group": "control_change"}, {"time": 792, "annotation": {"number": 64, "value": 127}, "group": "control_change"}, {"time": 792, "annotation": {"number": 64, "value": 0}, "group": "control_change"}, {"time": 840, "annotation": {"number": 64, "value": 0}, "group": "control_change"}, {"time": 844, "annotation": {"number": 64, "value": 127}, "group": "control_change"}, {"time": 885, "annotation": {"number": 64, "value": 0}, "group": "control_change"}, {"time": 887, "annotation": {"number": 64, "value": 127}, "group": "control_change"}, {"time": 934, "annotation": {"number": 64, "value": 0}, "group": "control_change"}, {"time": 942, "annotation": {"number": 64, "value": 127}, "group": "control_change"}, {"time": 983, "annotation": {"number": 64, "value": 0}, "group": "control_change"}, {"time": 986, "annotation": {"number": 64, "value": 127}, "group": "control_change"}, {"time": 1031, "annotation": {"number": 64, "value": 0}, "group": "control_change"}, {"time": 1037, "annotation": {"number": 64, "value": 127}, "group": "control_change"}, {"time": 1078, "annotation": {"number": 64, "value": 0}, "group": "control_change"}, {"time": 1081, "annotation": {"number": 64, "value": 127}, "group": "control_change"}, {"time": 1102, "annotation": {"number": 64, "value": 0}, "group": "control_change"}, {"time": 1104, "annotation": {"number": 64, "value": 127}, "group": "control_change"}, {"time": 1126, "annotation": {"number": 64, "value": 0}, "group": "control_change"}, {"time": 1132, "annotation": {"number": 64, "value": 127}, "group": "control_change"}, {"time": 1174, "annotation": {"number": 64, "value": 0}, "group": "control_change"}, {"time": 1222, "annotation": {"number": 64, "value": 0}, "group": "control_change"}, {"time": 1226, "annotation": {"number": 64, "value": 127}, "group": "control_change"}, {"time": 1271, "annotation": {"number": 64, "value": 0}, "group": "control_change"}, {"time": 1274, "annotation": {"number": 64, "value": 127}, "group": "control_change"}, {"time": 1293, "annotation": {"number": 64, "value": 0}, "group": "control_change"}, {"time": 1296, "annotation": {"number": 64, "value": 127}, "group": "control_change"}, {"time": 1317, "annotation": {"number": 64, "value": 0}, "group": "control_change"}, {"time": 1319, "annotation": {"number": 64, "value": 127}, "group": "control_change"}, {"time": 1341, "annotation": {"number": 64, "value": 0}, "group": "control_change"}, {"time": 1343, "annotation": {"number": 64, "value": 127}, "group": "control_change"}, {"time": 1367, "annotation": {"number": 64, "value": 0}, "group": "control_change"}, {"time": 1369, "annotation": {"number": 64, "value": 127}, "group": "control_change"}, {"time": 1390, "annotation": {"number": 64, "value": 0}, "group": "control_change"}, {"time": 1392, "annotation": {"number": 64, "value": 127}, "group": "control_change"}, {"time": 1413, "annotation": {"number": 64, "value": 0}, "group": "control_change"}, {"time": 1415, "annotation": {"number": 64, "value": 127}, "group": "control_change"}, {"time": 1425, "annotation": {"number": 64, "value": 0}, "group": "control_change"}, {"time": 1426, "annotation": {"number": 64, "value": 127}, "group": "control_change"}, {"time": 1438, "annotation": {"number": 64, "value": 0}, "group": "control_change"}, {"time": 1440, "annotation": {"number": 64, "value": 127}, "group": "control_change"}, {"time": 1462, "annotation": {"number": 64, "value": 0}, "group": "control_change"}, {"time": 1464, "annotation": {"number": 64, "value": 127}, "group": "control_change"}, {"time": 1485, "annotation": {"number": 64, "value": 0}, "group": "control_change"}, {"time": 1487, "annotation": {"number": 64, "value": 127}, "group": "control_change"}, {"time": 1510, "annotation": {"number": 64, "value": 0}, "group": "control_change"}, {"time": 1513, "annotation": {"number": 64, "value": 127}, "group": "control_change"}, {"time": 1535, "annotation": {"number": 64, "value": 0}, "group": "control_change"}, {"time": 1537, "annotation": {"number": 64, "value": 127}, "group": "control_change"}, {"time": 1554, "annotation": {"number": 64, "value": 0}, "group": "control_change"}, {"time": 1606, "annotation": {"number": 64, "value": 0}, "group": "control_change"}, {"time": 1610, "annotation": {"number": 64, "value": 127}, "group": "control_change"}, {"time": 1655, "annotation": {"number": 64, "value": 0}, "group": "control_change"}, {"time": 1658, "annotation": {"number": 64, "value": 127}, "group": "control_change"}, {"time": 1677, "annotation": {"number": 64, "value": 0}, "group": "control_change"}, {"time": 1680, "annotation": {"number": 64, "value": 127}, "group": "control_change"}, {"time": 1701, "annotation": {"number": 64, "value": 0}, "group": "control_change"}, {"time": 1703, "annotation": {"number": 64, "value": 127}, "group": "control_change"}, {"time": 1725, "annotation": {"number": 64, "value": 0}, "group": "control_change"}, {"time": 1727, "annotation": {"number": 64, "value": 127}, "group": "control_change"}, {"time": 1751, "annotation": {"number": 64, "value": 0}, "group": "control_change"}, {"time": 1753, "annotation": {"number": 64, "value": 127}, "group": "control_change"}, {"time": 1774, "annotation": {"number": 64, "value": 0}, "group": "control_change"}, {"time": 1776, "annotation": {"number": 64, "value": 127}, "group": "control_change"}, {"time": 1797, "annotation": {"number": 64, "value": 0}, "group": "control_change"}, {"time": 1799, "annotation": {"number": 64, "value": 127}, "group": "control_change"}, {"time": 1809, "annotation": {"number": 64, "value": 0}, "group": "control_change"}, {"time": 1810, "annotation": {"number": 64, "value": 127}, "group": "control_change"}, {"time": 1822, "annotation": {"number": 64, "value": 0}, "group": "control_change"}, {"time": 1824, "annotation": {"number": 64, "value": 127}, "group": "control_change"}, {"time": 1846, "annotation": {"number": 64, "value": 0}, "group": "control_change"}, {"time": 1848, "annotation": {"number": 64, "value": 127}, "group": "control_change"}, {"time": 1871, "annotation": {"number": 64, "value": 0}, "group": "control_change"}, {"time": 1873, "annotation": {"number": 64, "value": 127}, "group": "control_change"}, {"time": 1893, "annotation": {"number": 64, "value": 0}, "group": "control_change"}, {"time": 1896, "annotation": {"number": 64, "value": 127}, "group": "control_change"}, {"time": 1942, "annotation": {"number": 64, "value": 0}, "group": "control_change"}, {"time": 1949, "annotation": {"number": 64, "value": 127}, "group": "control_change"}, {"time": 1991, "annotation": {"number": 64, "value": 0}, "group": "control_change"}, {"time": 1995, "annotation": {"number": 64, "value": 127}, "group": "control_change"}, {"time": 2038, "annotation": {"number": 64, "value": 0}, "group": "control_change"}, {"time": 2040, "annotation": {"number": 64, "value": 127}, "group": "control_change"}, {"time": 2040, "annotation": {"number": 64, "value": 0}, "group": "control_change"}, {"time": 2061, "annotation": {"number": 64, "value": 0}, "group": "control_change"}, {"time": 2063, "annotation": {"number": 64, "value": 127}, "group": "control_change"}, {"time": 2084, "annotation": {"number": 64, "value": 0}, "group": "control_change"}, {"time": 2086, "annotation": {"number": 64, "value": 127}, "group": "control_change"}, {"time": 2134, "annotation": {"number": 64, "value": 0}, "group": "control_change"}, {"time": 2136, "annotation": {"number": 64, "value": 127}, "group": "control_change"}, {"time": 2182, "annotation": {"number": 64, "value": 0}, "group": "control_change"}, {"time": 2184, "annotation": {"number": 64, "value": 127}, "group": "control_change"}, {"time": 2206, "annotation": {"number": 64, "value": 0}, "group": "control_change"}, {"time": 2207, "annotation": {"number": 64, "value": 127}, "group": "control_change"}, {"time": 2228, "annotation": {"number": 64, "value": 0}, "group": "control_change"}, {"time": 2234, "annotation": {"number": 64, "value": 127}, "group": "control_change"}, {"time": 2253, "annotation": {"number": 64, "value": 0}, "group": "control_change"}, {"time": 2256, "annotation": {"number": 64, "value": 127}, "group": "control_change"}, {"time": 2276, "annotation": {"number": 64, "value": 0}, "group": "control_change"}, {"time": 2278, "annotation": {"number": 64, "value": 127}, "group": "control_change"}, {"time": 2301, "annotation": {"number": 64, "value": 0}, "group": "control_change"}, {"time": 2303, "annotation": {"number": 64, "value": 127}, "group": "control_change"}, {"time": 2322, "annotation": {"number": 64, "value": 0}, "group": "control_change"}, {"time": 2333, "annotation": {"number": 64, "value": 127}, "group": "control_change"}, {"time": 2374, "annotation": {"number": 64, "value": 0}, "group": "control_change"}, {"time": 2376, "annotation": {"number": 64, "value": 127}, "group": "control_change"}, {"time": 2423, "annotation": {"number": 64, "value": 0}, "group": "control_change"}, {"time": 2426, "annotation": {"number": 64, "value": 127}, "group": "control_change"}, {"time": 2426, "annotation": {"number": 64, "value": 0}, "group": "control_change"}, {"time": 2448, "annotation": {"number": 64, "value": 0}, "group": "control_change"}, {"time": 2455, "annotation": {"number": 64, "value": 127}, "group": "control_change"}, {"time": 2471, "annotation": {"number": 64, "value": 0}, "group": "control_change"}, {"time": 2472, "annotation": {"number": 64, "value": 127}, "group": "control_change"}, {"time": 2494, "annotation": {"number": 64, "value": 0}, "group": "control_change"}, {"time": 2497, "annotation": {"number": 64, "value": 127}, "group": "control_change"}, {"time": 2506, "annotation": {"number": 64, "value": 0}, "group": "control_change"}, {"time": 2508, "annotation": {"number": 64, "value": 127}, "group": "control_change"}, {"time": 2518, "annotation": {"number": 64, "value": 0}, "group": "control_change"}, {"time": 2523, "annotation": {"number": 64, "value": 127}, "group": "control_change"}, {"time": 2523, "annotation": {"number": 64, "value": 0}, "group": "control_change"}, {"time": 2524, "annotation": {"number": 64, "value": 127}, "group": "control_change"}, {"time": 2569, "annotation": {"number": 64, "value": 127}, "group": "control_change"}, {"time": 2569, "annotation": {"number": 64, "value": 0}, "group": "control_change"}, {"time": 2590, "annotation": {"number": 64, "value": 0}, "group": "control_change"}, {"time": 2594, "annotation": {"number": 64, "value": 127}, "group": "control_change"}, {"time": 2614, "annotation": {"number": 64, "value": 0}, "group": "control_change"}, {"time": 2617, "annotation": {"number": 64, "value": 127}, "group": "control_change"}, {"time": 2639, "annotation": {"number": 64, "value": 0}, "group": "control_change"}, {"time": 2642, "annotation": {"number": 64, "value": 127}, "group": "control_change"}, {"time": 2661, "annotation": {"number": 64, "value": 0}, "group": "control_change"}, {"time": 2664, "annotation": {"number": 64, "value": 127}, "group": "control_change"}, {"time": 2686, "annotation": {"number": 64, "value": 0}, "group": "control_change"}, {"time": 2687, "annotation": {"number": 64, "value": 127}, "group": "control_change"}, {"time": 2698, "annotation": {"number": 64, "value": 0}, "group": "control_change"}, {"time": 2700, "annotation": {"number": 64, "value": 127}, "group": "control_change"}, {"time": 2709, "annotation": {"number": 64, "value": 0}, "group": "control_change"}, {"time": 2712, "annotation": {"number": 64, "value": 127}, "group": "control_change"}, {"time": 2712, "annotation": {"number": 64, "value": 0}, "group": "control_change"}, {"time": 2760, "annotation": {"number": 64, "value": 0}, "group": "control_change"}, {"time": 2764, "annotation": {"number": 64, "value": 127}, "group": "control_change"}, {"time": 2805, "annotation": {"number": 64, "value": 0}, "group": "control_change"}, {"time": 2807, "annotation": {"number": 64, "value": 127}, "group": "control_change"}, {"time": 2854, "annotation": {"number": 64, "value": 0}, "group": "control_change"}, {"time": 2862, "annotation": {"number": 64, "value": 127}, "group": "control_change"}, {"time": 2903, "annotation": {"number": 64, "value": 0}, "group": "control_change"}, {"time": 2906, "annotation": {"number": 64, "value": 127}, "group": "control_change"}, {"time": 2951, "annotation": {"number": 64, "value": 0}, "group": "control_change"}, {"time": 2957, "annotation": {"number": 64, "value": 127}, "group": "control_change"}, {"time": 2998, "annotation": {"number": 64, "value": 0}, "group": "control_change"}, {"time": 3001, "annotation": {"number": 64, "value": 127}, "group": "control_change"}, {"time": 3022, "annotation": {"number": 64, "value": 0}, "group": "control_change"}, {"time": 3024, "annotation": {"number": 64, "value": 127}, "group": "control_change"}, {"time": 3046, "annotation": {"number": 64, "value": 0}, "group": "control_change"}, {"time": 3052, "annotation": {"number": 64, "value": 127}, "group": "control_change"}, {"time": 3094, "annotation": {"number": 64, "value": 0}, "group": "control_change"}, {"time": 3142, "annotation": {"number": 64, "value": 0}, "group": "control_change"}, {"time": 3146, "annotation": {"number": 64, "value": 127}, "group": "control_change"}, {"time": 3191, "annotation": {"number": 64, "value": 0}, "group": "control_change"}, {"time": 3194, "annotation": {"number": 64, "value": 127}, "group": "control_change"}, {"time": 3213, "annotation": {"number": 64, "value": 0}, "group": "control_change"}, {"time": 3216, "annotation": {"number": 64, "value": 127}, "group": "control_change"}, {"time": 3237, "annotation": {"number": 64, "value": 0}, "group": "control_change"}, {"time": 3239, "annotation": {"number": 64, "value": 127}, "group": "control_change"}, {"time": 3261, "annotation": {"number": 64, "value": 0}, "group": "control_change"}, {"time": 3263, "annotation": {"number": 64, "value": 127}, "group": "control_change"}, {"time": 3287, "annotation": {"number": 64, "value": 0}, "group": "control_change"}, {"time": 3289, "annotation": {"number": 64, "value": 127}, "group": "control_change"}, {"time": 3310, "annotation": {"number": 64, "value": 0}, "group": "control_change"}, {"time": 3312, "annotation": {"number": 64, "value": 127}, "group": "control_change"}, {"time": 3333, "annotation": {"number": 64, "value": 0}, "group": "control_change"}, {"time": 3335, "annotation": {"number": 64, "value": 127}, "group": "control_change"}, {"time": 3345, "annotation": {"number": 64, "value": 0}, "group": "control_change"}, {"time": 3346, "annotation": {"number": 64, "value": 127}, "group": "control_change"}, {"time": 3358, "annotation": {"number": 64, "value": 0}, "group": "control_change"}, {"time": 3360, "annotation": {"number": 64, "value": 127}, "group": "control_change"}, {"time": 3382, "annotation": {"number": 64, "value": 0}, "group": "control_change"}, {"time": 3384, "annotation": {"number": 64, "value": 127}, "group": "control_change"}, {"time": 3405, "annotation": {"number": 64, "value": 0}, "group": "control_change"}, {"time": 3407, "annotation": {"number": 64, "value": 127}, "group": "control_change"}, {"time": 3430, "annotation": {"number": 64, "value": 0}, "group": "control_change"}, {"time": 3433, "annotation": {"number": 64, "value": 127}, "group": "control_change"}, {"time": 3455, "annotation": {"number": 64, "value": 0}, "group": "control_change"}, {"time": 3457, "annotation": {"number": 64, "value": 127}, "group": "control_change"}, {"time": 3474, "annotation": {"number": 64, "value": 0}, "group": "control_change"}, {"time": 3526, "annotation": {"number": 64, "value": 0}, "group": "control_change"}, {"time": 3530, "annotation": {"number": 64, "value": 127}, "group": "control_change"}, {"time": 3575, "annotation": {"number": 64, "value": 0}, "group": "control_change"}, {"time": 3578, "annotation": {"number": 64, "value": 127}, "group": "control_change"}, {"time": 3597, "annotation": {"number": 64, "value": 0}, "group": "control_change"}, {"time": 3600, "annotation": {"number": 64, "value": 127}, "group": "control_change"}, {"time": 3621, "annotation": {"number": 64, "value": 0}, "group": "control_change"}, {"time": 3623, "annotation": {"number": 64, "value": 127}, "group": "control_change"}, {"time": 3645, "annotation": {"number": 64, "value": 0}, "group": "control_change"}, {"time": 3647, "annotation": {"number": 64, "value": 127}, "group": "control_change"}, {"time": 3671, "annotation": {"number": 64, "value": 0}, "group": "control_change"}, {"time": 3673, "annotation": {"number": 64, "value": 127}, "group": "control_change"}, {"time": 3694, "annotation": {"number": 64, "value": 0}, "group": "control_change"}, {"time": 3696, "annotation": {"number": 64, "value": 127}, "group": "control_change"}, {"time": 3717, "annotation": {"number": 64, "value": 0}, "group": "control_change"}, {"time": 3719, "annotation": {"number": 64, "value": 127}, "group": "control_change"}, {"time": 3729, "annotation": {"number": 64, "value": 0}, "group": "control_change"}, {"time": 3730, "annotation": {"number": 64, "value": 127}, "group": "control_change"}, {"time": 3742, "annotation": {"number": 64, "value": 0}, "group": "control_change"}, {"time": 3744, "annotation": {"number": 64, "value": 127}, "group": "control_change"}, {"time": 3766, "annotation": {"number": 64, "value": 0}, "group": "control_change"}, {"time": 3768, "annotation": {"number": 64, "value": 127}, "group": "control_change"}, {"time": 3791, "annotation": {"number": 64, "value": 0}, "group": "control_change"}, {"time": 3793, "annotation": {"number": 64, "value": 127}, "group": "control_change"}, {"time": 3813, "annotation": {"number": 64, "value": 0}, "group": "control_change"}, {"time": 3816, "annotation": {"number": 64, "value": 127}, "group": "control_change"}, {"time": 3839, "annotation": {"number": 64, "value": 127}, "group": "control_change"}, {"time": 3839, "annotation": {"number": 64, "value": 0}, "group": "control_change"}, {"time": 3848, "annotation": {"number": 64, "value": 127}, "group": "control_change"}, {"time": 3860, "annotation": {"number": 64, "value": 0}, "group": "control_change"}, {"time": 3862, "annotation": {"number": 64, "value": 0}, "group": "control_change"}, {"time": 3876, "annotation": {"number": 64, "value": 127}, "group": "control_change"}, {"time": 3913, "annotation": {"number": 64, "value": 0}, "group": "control_change"}, {"time": 3917, "annotation": {"number": 64, "value": 127}, "group": "control_change"}, {"time": 3933, "annotation": {"number": 64, "value": 0}, "group": "control_change"}, {"time": 3948, "annotation": {"number": 64, "value": 127}, "group": "control_change"}, {"time": 3959, "annotation": {"number": 64, "value": 0}, "group": "control_change"}, {"time": 3963, "annotation": {"number": 64, "value": 127}, "group": "control_change"}, {"time": 3985, "annotation": {"number": 64, "value": 0}, "group": "control_change"}, {"time": 3990, "annotation": {"number": 64, "value": 127}, "group": "control_change"}, {"time": 4021, "annotation": {"number": 64, "value": 0}, "group": "control_change"}, {"time": 4024, "annotation": {"number": 64, "value": 127}, "group": "control_change"}, {"time": 4126, "annotation": {"number": 64, "value": 0}, "group": "control_change"}]}]}