{"metadata": {"schema_version": "0.2", "title": "None", "source_filename": "707.mid", "source_format": "midi"}, "resolution": 12, "tempos": [{"time": 0, "qpm": 109.00014170018422}, {"time": 420, "qpm": 108.80011605345712}, {"time": 516, "qpm": 109.00014170018422}, {"time": 1239, "qpm": 108.80011605345712}, {"time": 1667, "qpm": 109.00014170018422}, {"time": 1968, "qpm": 108.90003702601258}, {"time": 2507, "qpm": 109.00014170018422}], "time_signatures": [{"time": 0, "numerator": 1, "denominator": 4}], "tracks": [{"program": 0, "is_drum": false, "name": "MELODY", "notes": [{"time": 515, "pitch": 78, "duration": 2, "velocity": 89}, {"time": 521, "pitch": 78, "duration": 3, "velocity": 84}, {"time": 527, "pitch": 78, "duration": 3, "velocity": 86}, {"time": 533, "pitch": 78, "duration": 2, "velocity": 86}, {"time": 539, "pitch": 78, "duration": 3, "velocity": 91}, {"time": 545, "pitch": 80, "duration": 3, "velocity": 82}, {"time": 548, "pitch": 78, "duration": 2, "velocity": 84}, {"time": 551, "pitch": 75, "duration": 3, "velocity": 87}, {"time": 557, "pitch": 73, "duration": 3, "velocity": 87}, {"time": 563, "pitch": 71, "duration": 3, "velocity": 89}, {"time": 569, "pitch": 73, "duration": 3, "velocity": 82}, {"time": 572, "pitch": 71, "duration": 2, "velocity": 77}, {"time": 575, "pitch": 68, "duration": 5, "velocity": 84}, {"time": 581, "pitch": 71, "duration": 5, "velocity": 84}, {"time": 587, "pitch": 66, "duration": 16, "velocity": 85}, {"time": 611, "pitch": 71, "duration": 9, "velocity": 87}, {"time": 623, "pitch": 68, "duration": 5, "velocity": 82}, {"time": 629, "pitch": 66, "duration": 5, "velocity": 81}, {"time": 635, "pitch": 71, "duration": 8, "velocity": 82}, {"time": 647, "pitch": 68, "duration": 5, "velocity": 84}, {"time": 653, "pitch": 66, "duration": 4, "velocity": 82}, {"time": 659, "pitch": 71, "duration": 3, "velocity": 91}, {"time": 665, "pitch": 73, "duration": 3, "velocity": 87}, {"time": 671, "pitch": 75, "duration": 3, "velocity": 85}, {"time": 674, "pitch": 73, "duration": 3, "velocity": 84}, {"time": 677, "pitch": 71, "duration": 3, "velocity": 91}, {"time": 683, "pitch": 73, "duration": 18, "velocity": 94}, {"time": 707, "pitch": 78, "duration": 3, "velocity": 83}, {"time": 713, "pitch": 78, "duration": 4, "velocity": 82}, {"time": 719, "pitch": 78, "duration": 3, "velocity": 85}, {"time": 725, "pitch": 78, "duration": 3, "velocity": 84}, {"time": 731, "pitch": 78, "duration": 3, "velocity": 89}, {"time": 737, "pitch": 80, "duration": 2, "velocity": 81}, {"time": 740, "pitch": 78, "duration": 2, "velocity": 87}, {"time": 743, "pitch": 75, "duration": 3, "velocity": 85}, {"time": 749, "pitch": 78, "duration": 3, "velocity": 86}, {"time": 755, "pitch": 80, "duration": 3, "velocity": 82}, {"time": 761, "pitch": 83, "duration": 4, "velocity": 87}, {"time": 767, "pitch": 80, "duration": 4, "velocity": 81}, {"time": 773, "pitch": 78, "duration": 4, "velocity": 82}, {"time": 779, "pitch": 80, "duration": 16, "velocity": 84}, {"time": 803, "pitch": 73, "duration": 10, "velocity": 87}, {"time": 815, "pitch": 71, "duration": 5, "velocity": 81}, {"time": 821, "pitch": 68, "duration": 5, "velocity": 82}, {"time": 827, "pitch": 73, "duration": 9, "velocity": 89}, {"time": 839, "pitch": 71, "duration": 6, "velocity": 83}, {"time": 845, "pitch": 68, "duration": 4, "velocity": 81}, {"time": 851, "pitch": 66, "duration": 5, "velocity": 81}, {"time": 857, "pitch": 68, "duration": 4, "velocity": 80}, {"time": 863, "pitch": 71, "duration": 4, "velocity": 82}, {"time": 869, "pitch": 73, "duration": 4, "velocity": 82}, {"time": 875, "pitch": 71, "duration": 19, "velocity": 84}, {"time": 899, "pitch": 78, "duration": 5, "velocity": 82}, {"time": 908, "pitch": 78, "duration": 2, "velocity": 81}, {"time": 911, "pitch": 78, "duration": 4, "velocity": 85}, {"time": 917, "pitch": 80, "duration": 3, "velocity": 81}, {"time": 923, "pitch": 78, "duration": 10, "velocity": 84}, {"time": 935, "pitch": 83, "duration": 3, "velocity": 85}, {"time": 941, "pitch": 80, "duration": 3, "velocity": 81}, {"time": 947, "pitch": 78, "duration": 7, "velocity": 82}, {"time": 956, "pitch": 78, "duration": 2, "velocity": 80}, {"time": 959, "pitch": 78, "duration": 4, "velocity": 81}, {"time": 965, "pitch": 80, "duration": 3, "velocity": 84}, {"time": 971, "pitch": 78, "duration": 15, "velocity": 86}, {"time": 995, "pitch": 78, "duration": 7, "velocity": 86}, {"time": 1004, "pitch": 78, "duration": 2, "velocity": 81}, {"time": 1007, "pitch": 78, "duration": 4, "velocity": 83}, {"time": 1013, "pitch": 80, "duration": 3, "velocity": 82}, {"time": 1019, "pitch": 83, "duration": 9, "velocity": 87}, {"time": 1031, "pitch": 80, "duration": 5, "velocity": 81}, {"time": 1037, "pitch": 78, "duration": 4, "velocity": 81}, {"time": 1043, "pitch": 75, "duration": 4, "velocity": 84}, {"time": 1049, "pitch": 75, "duration": 3, "velocity": 81}, {"time": 1055, "pitch": 73, "duration": 5, "velocity": 84}, {"time": 1061, "pitch": 75, "duration": 4, "velocity": 87}, {"time": 1067, "pitch": 78, "duration": 17, "velocity": 81}, {"time": 1091, "pitch": 73, "duration": 7, "velocity": 87}, {"time": 1100, "pitch": 73, "duration": 2, "velocity": 80}, {"time": 1103, "pitch": 73, "duration": 3, "velocity": 82}, {"time": 1109, "pitch": 75, "duration": 4, "velocity": 84}, {"time": 1115, "pitch": 73, "duration": 9, "velocity": 85}, {"time": 1127, "pitch": 75, "duration": 4, "velocity": 82}, {"time": 1133, "pitch": 73, "duration": 3, "velocity": 85}, {"time": 1139, "pitch": 71, "duration": 4, "velocity": 87}, {"time": 1145, "pitch": 73, "duration": 3, "velocity": 82}, {"time": 1148, "pitch": 71, "duration": 2, "velocity": 82}, {"time": 1151, "pitch": 68, "duration": 4, "velocity": 81}, {"time": 1157, "pitch": 71, "duration": 5, "velocity": 81}, {"time": 1163, "pitch": 66, "duration": 18, "velocity": 82}, {"time": 1187, "pitch": 71, "duration": 8, "velocity": 87}, {"time": 1196, "pitch": 73, "duration": 3, "velocity": 84}, {"time": 1199, "pitch": 75, "duration": 5, "velocity": 84}, {"time": 1205, "pitch": 78, "duration": 4, "velocity": 86}, {"time": 1211, "pitch": 80, "duration": 4, "velocity": 81}, {"time": 1217, "pitch": 83, "duration": 4, "velocity": 86}, {"time": 1223, "pitch": 80, "duration": 4, "velocity": 81}, {"time": 1229, "pitch": 78, "duration": 4, "velocity": 81}, {"time": 1235, "pitch": 78, "duration": 36, "velocity": 86}, {"time": 1271, "pitch": 80, "duration": 12, "velocity": 82}, {"time": 1283, "pitch": 78, "duration": 2, "velocity": 89}, {"time": 1289, "pitch": 78, "duration": 3, "velocity": 84}, {"time": 1295, "pitch": 78, "duration": 3, "velocity": 86}, {"time": 1301, "pitch": 78, "duration": 2, "velocity": 86}, {"time": 1307, "pitch": 78, "duration": 3, "velocity": 91}, {"time": 1313, "pitch": 80, "duration": 3, "velocity": 82}, {"time": 1316, "pitch": 78, "duration": 2, "velocity": 84}, {"time": 1319, "pitch": 75, "duration": 3, "velocity": 87}, {"time": 1325, "pitch": 73, "duration": 3, "velocity": 87}, {"time": 1331, "pitch": 71, "duration": 3, "velocity": 89}, {"time": 1337, "pitch": 73, "duration": 3, "velocity": 82}, {"time": 1340, "pitch": 71, "duration": 2, "velocity": 77}, {"time": 1343, "pitch": 68, "duration": 5, "velocity": 84}, {"time": 1349, "pitch": 71, "duration": 5, "velocity": 84}, {"time": 1355, "pitch": 66, "duration": 16, "velocity": 85}, {"time": 1379, "pitch": 71, "duration": 9, "velocity": 87}, {"time": 1391, "pitch": 68, "duration": 5, "velocity": 82}, {"time": 1397, "pitch": 66, "duration": 5, "velocity": 81}, {"time": 1403, "pitch": 71, "duration": 8, "velocity": 82}, {"time": 1415, "pitch": 68, "duration": 5, "velocity": 84}, {"time": 1421, "pitch": 66, "duration": 4, "velocity": 82}, {"time": 1427, "pitch": 71, "duration": 3, "velocity": 91}, {"time": 1433, "pitch": 73, "duration": 3, "velocity": 87}, {"time": 1439, "pitch": 75, "duration": 3, "velocity": 85}, {"time": 1442, "pitch": 73, "duration": 3, "velocity": 84}, {"time": 1445, "pitch": 71, "duration": 3, "velocity": 91}, {"time": 1451, "pitch": 73, "duration": 18, "velocity": 94}, {"time": 1475, "pitch": 78, "duration": 3, "velocity": 83}, {"time": 1481, "pitch": 78, "duration": 4, "velocity": 82}, {"time": 1487, "pitch": 78, "duration": 3, "velocity": 85}, {"time": 1493, "pitch": 78, "duration": 3, "velocity": 84}, {"time": 1499, "pitch": 78, "duration": 3, "velocity": 89}, {"time": 1505, "pitch": 80, "duration": 2, "velocity": 81}, {"time": 1508, "pitch": 78, "duration": 2, "velocity": 87}, {"time": 1511, "pitch": 75, "duration": 3, "velocity": 85}, {"time": 1517, "pitch": 78, "duration": 3, "velocity": 86}, {"time": 1523, "pitch": 80, "duration": 6, "velocity": 82}, {"time": 1535, "pitch": 83, "duration": 10, "velocity": 82}, {"time": 1547, "pitch": 80, "duration": 5, "velocity": 80}, {"time": 1553, "pitch": 78, "duration": 5, "velocity": 83}, {"time": 1559, "pitch": 80, "duration": 10, "velocity": 82}, {"time": 1577, "pitch": 78, "duration": 6, "velocity": 83}, {"time": 1583, "pitch": 83, "duration": 6, "velocity": 91}, {"time": 1589, "pitch": 82, "duration": 3, "velocity": 85}, {"time": 1595, "pitch": 75, "duration": 5, "velocity": 82}, {"time": 1601, "pitch": 78, "duration": 3, "velocity": 82}, {"time": 1607, "pitch": 75, "duration": 5, "velocity": 85}, {"time": 1613, "pitch": 73, "duration": 6, "velocity": 86}, {"time": 1619, "pitch": 71, "duration": 38, "velocity": 81}, {"time": 1955, "pitch": 78, "duration": 2, "velocity": 89}, {"time": 1961, "pitch": 78, "duration": 3, "velocity": 84}, {"time": 1967, "pitch": 78, "duration": 3, "velocity": 86}, {"time": 1973, "pitch": 78, "duration": 2, "velocity": 86}, {"time": 1979, "pitch": 78, "duration": 3, "velocity": 91}, {"time": 1985, "pitch": 80, "duration": 3, "velocity": 82}, {"time": 1988, "pitch": 78, "duration": 2, "velocity": 84}, {"time": 1991, "pitch": 75, "duration": 3, "velocity": 87}, {"time": 1997, "pitch": 73, "duration": 3, "velocity": 87}, {"time": 2003, "pitch": 71, "duration": 3, "velocity": 89}, {"time": 2009, "pitch": 73, "duration": 3, "velocity": 82}, {"time": 2012, "pitch": 71, "duration": 2, "velocity": 77}, {"time": 2015, "pitch": 68, "duration": 5, "velocity": 84}, {"time": 2021, "pitch": 71, "duration": 5, "velocity": 84}, {"time": 2027, "pitch": 66, "duration": 16, "velocity": 85}, {"time": 2051, "pitch": 71, "duration": 9, "velocity": 87}, {"time": 2063, "pitch": 68, "duration": 5, "velocity": 82}, {"time": 2069, "pitch": 66, "duration": 5, "velocity": 81}, {"time": 2075, "pitch": 71, "duration": 8, "velocity": 82}, {"time": 2087, "pitch": 68, "duration": 5, "velocity": 84}, {"time": 2093, "pitch": 66, "duration": 4, "velocity": 82}, {"time": 2099, "pitch": 71, "duration": 3, "velocity": 91}, {"time": 2105, "pitch": 73, "duration": 3, "velocity": 87}, {"time": 2111, "pitch": 75, "duration": 3, "velocity": 85}, {"time": 2114, "pitch": 73, "duration": 3, "velocity": 84}, {"time": 2117, "pitch": 71, "duration": 3, "velocity": 91}, {"time": 2123, "pitch": 73, "duration": 18, "velocity": 94}, {"time": 2147, "pitch": 78, "duration": 3, "velocity": 83}, {"time": 2153, "pitch": 78, "duration": 4, "velocity": 82}, {"time": 2159, "pitch": 78, "duration": 3, "velocity": 85}, {"time": 2165, "pitch": 78, "duration": 3, "velocity": 84}, {"time": 2171, "pitch": 78, "duration": 3, "velocity": 89}, {"time": 2177, "pitch": 80, "duration": 2, "velocity": 81}, {"time": 2180, "pitch": 78, "duration": 2, "velocity": 87}, {"time": 2183, "pitch": 75, "duration": 3, "velocity": 85}, {"time": 2189, "pitch": 78, "duration": 3, "velocity": 86}, {"time": 2195, "pitch": 80, "duration": 3, "velocity": 82}, {"time": 2201, "pitch": 83, "duration": 4, "velocity": 87}, {"time": 2207, "pitch": 80, "duration": 4, "velocity": 81}, {"time": 2213, "pitch": 78, "duration": 4, "velocity": 82}, {"time": 2219, "pitch": 80, "duration": 16, "velocity": 84}, {"time": 2243, "pitch": 73, "duration": 10, "velocity": 87}, {"time": 2255, "pitch": 71, "duration": 5, "velocity": 81}, {"time": 2261, "pitch": 68, "duration": 5, "velocity": 82}, {"time": 2267, "pitch": 73, "duration": 9, "velocity": 89}, {"time": 2279, "pitch": 71, "duration": 6, "velocity": 83}, {"time": 2285, "pitch": 68, "duration": 4, "velocity": 81}, {"time": 2291, "pitch": 66, "duration": 5, "velocity": 81}, {"time": 2297, "pitch": 68, "duration": 4, "velocity": 80}, {"time": 2303, "pitch": 71, "duration": 4, "velocity": 82}, {"time": 2309, "pitch": 73, "duration": 4, "velocity": 82}, {"time": 2315, "pitch": 71, "duration": 19, "velocity": 84}, {"time": 2339, "pitch": 78, "duration": 5, "velocity": 82}, {"time": 2348, "pitch": 78, "duration": 2, "velocity": 81}, {"time": 2351, "pitch": 78, "duration": 4, "velocity": 85}, {"time": 2357, "pitch": 80, "duration": 3, "velocity": 81}, {"time": 2363, "pitch": 78, "duration": 10, "velocity": 84}, {"time": 2375, "pitch": 83, "duration": 3, "velocity": 85}, {"time": 2381, "pitch": 80, "duration": 3, "velocity": 81}, {"time": 2387, "pitch": 78, "duration": 7, "velocity": 82}, {"time": 2396, "pitch": 78, "duration": 2, "velocity": 80}, {"time": 2399, "pitch": 78, "duration": 4, "velocity": 81}, {"time": 2405, "pitch": 80, "duration": 3, "velocity": 84}, {"time": 2411, "pitch": 78, "duration": 15, "velocity": 86}, {"time": 2435, "pitch": 78, "duration": 7, "velocity": 86}, {"time": 2444, "pitch": 78, "duration": 2, "velocity": 81}, {"time": 2447, "pitch": 78, "duration": 4, "velocity": 83}, {"time": 2453, "pitch": 80, "duration": 3, "velocity": 82}, {"time": 2459, "pitch": 83, "duration": 9, "velocity": 87}, {"time": 2471, "pitch": 80, "duration": 5, "velocity": 81}, {"time": 2477, "pitch": 78, "duration": 4, "velocity": 81}, {"time": 2483, "pitch": 75, "duration": 4, "velocity": 84}, {"time": 2489, "pitch": 75, "duration": 3, "velocity": 81}, {"time": 2495, "pitch": 73, "duration": 5, "velocity": 84}, {"time": 2501, "pitch": 75, "duration": 4, "velocity": 87}, {"time": 2507, "pitch": 78, "duration": 17, "velocity": 81}, {"time": 2531, "pitch": 73, "duration": 7, "velocity": 87}, {"time": 2540, "pitch": 73, "duration": 2, "velocity": 80}, {"time": 2543, "pitch": 73, "duration": 3, "velocity": 82}, {"time": 2549, "pitch": 75, "duration": 4, "velocity": 84}, {"time": 2555, "pitch": 73, "duration": 9, "velocity": 85}, {"time": 2567, "pitch": 75, "duration": 4, "velocity": 82}, {"time": 2573, "pitch": 73, "duration": 3, "velocity": 85}, {"time": 2579, "pitch": 71, "duration": 4, "velocity": 87}, {"time": 2585, "pitch": 73, "duration": 3, "velocity": 82}, {"time": 2588, "pitch": 71, "duration": 2, "velocity": 82}, {"time": 2591, "pitch": 68, "duration": 4, "velocity": 81}, {"time": 2597, "pitch": 71, "duration": 5, "velocity": 81}, {"time": 2603, "pitch": 66, "duration": 18, "velocity": 82}, {"time": 2627, "pitch": 71, "duration": 8, "velocity": 87}, {"time": 2636, "pitch": 73, "duration": 3, "velocity": 84}, {"time": 2639, "pitch": 75, "duration": 5, "velocity": 84}, {"time": 2645, "pitch": 78, "duration": 4, "velocity": 86}, {"time": 2651, "pitch": 80, "duration": 4, "velocity": 81}, {"time": 2657, "pitch": 83, "duration": 4, "velocity": 86}, {"time": 2663, "pitch": 80, "duration": 4, "velocity": 81}, {"time": 2669, "pitch": 78, "duration": 4, "velocity": 81}, {"time": 2675, "pitch": 78, "duration": 36, "velocity": 86}, {"time": 2711, "pitch": 80, "duration": 12, "velocity": 82}, {"time": 2723, "pitch": 78, "duration": 2, "velocity": 89}, {"time": 2729, "pitch": 78, "duration": 3, "velocity": 84}, {"time": 2735, "pitch": 78, "duration": 3, "velocity": 86}, {"time": 2741, "pitch": 78, "duration": 2, "velocity": 86}, {"time": 2747, "pitch": 78, "duration": 3, "velocity": 91}, {"time": 2753, "pitch": 80, "duration": 3, "velocity": 82}, {"time": 2756, "pitch": 78, "duration": 2, "velocity": 84}, {"time": 2759, "pitch": 75, "duration": 3, "velocity": 87}, {"time": 2765, "pitch": 73, "duration": 3, "velocity": 87}, {"time": 2771, "pitch": 71, "duration": 3, "velocity": 89}, {"time": 2777, "pitch": 73, "duration": 3, "velocity": 82}, {"time": 2780, "pitch": 71, "duration": 2, "velocity": 77}, {"time": 2783, "pitch": 68, "duration": 5, "velocity": 84}, {"time": 2789, "pitch": 71, "duration": 5, "velocity": 84}, {"time": 2795, "pitch": 66, "duration": 16, "velocity": 85}, {"time": 2819, "pitch": 71, "duration": 9, "velocity": 87}, {"time": 2831, "pitch": 68, "duration": 5, "velocity": 82}, {"time": 2837, "pitch": 66, "duration": 5, "velocity": 81}, {"time": 2843, "pitch": 71, "duration": 8, "velocity": 82}, {"time": 2855, "pitch": 68, "duration": 5, "velocity": 84}, {"time": 2861, "pitch": 66, "duration": 4, "velocity": 82}, {"time": 2867, "pitch": 71, "duration": 3, "velocity": 91}, {"time": 2873, "pitch": 73, "duration": 3, "velocity": 87}, {"time": 2879, "pitch": 75, "duration": 3, "velocity": 85}, {"time": 2882, "pitch": 73, "duration": 3, "velocity": 84}, {"time": 2885, "pitch": 71, "duration": 3, "velocity": 91}, {"time": 2891, "pitch": 73, "duration": 18, "velocity": 94}, {"time": 2915, "pitch": 78, "duration": 3, "velocity": 83}, {"time": 2921, "pitch": 78, "duration": 4, "velocity": 82}, {"time": 2927, "pitch": 78, "duration": 3, "velocity": 85}, {"time": 2933, "pitch": 78, "duration": 3, "velocity": 84}, {"time": 2939, "pitch": 78, "duration": 3, "velocity": 89}, {"time": 2945, "pitch": 80, "duration": 2, "velocity": 81}, {"time": 2948, "pitch": 78, "duration": 2, "velocity": 87}, {"time": 2951, "pitch": 75, "duration": 3, "velocity": 85}, {"time": 2957, "pitch": 78, "duration": 3, "velocity": 86}, {"time": 2963, "pitch": 80, "duration": 6, "velocity": 82}, {"time": 2975, "pitch": 83, "duration": 10, "velocity": 82}, {"time": 2987, "pitch": 80, "duration": 5, "velocity": 80}, {"time": 2993, "pitch": 78, "duration": 5, "velocity": 83}, {"time": 2999, "pitch": 80, "duration": 10, "velocity": 82}, {"time": 3017, "pitch": 78, "duration": 6, "velocity": 83}, {"time": 3023, "pitch": 83, "duration": 6, "velocity": 91}, {"time": 3029, "pitch": 82, "duration": 3, "velocity": 85}, {"time": 3035, "pitch": 75, "duration": 5, "velocity": 82}, {"time": 3041, "pitch": 78, "duration": 3, "velocity": 82}, {"time": 3047, "pitch": 75, "duration": 5, "velocity": 85}, {"time": 3053, "pitch": 73, "duration": 6, "velocity": 86}, {"time": 3059, "pitch": 71, "duration": 38, "velocity": 81}, {"time": 3107, "pitch": 78, "duration": 5, "velocity": 82}, {"time": 3116, "pitch": 78, "duration": 2, "velocity": 81}, {"time": 3119, "pitch": 78, "duration": 4, "velocity": 85}, {"time": 3125, "pitch": 80, "duration": 3, "velocity": 81}, {"time": 3131, "pitch": 78, "duration": 10, "velocity": 84}, {"time": 3143, "pitch": 83, "duration": 3, "velocity": 85}, {"time": 3149, "pitch": 80, "duration": 3, "velocity": 81}, {"time": 3155, "pitch": 78, "duration": 7, "velocity": 82}, {"time": 3164, "pitch": 78, "duration": 2, "velocity": 80}, {"time": 3167, "pitch": 78, "duration": 4, "velocity": 81}, {"time": 3173, "pitch": 80, "duration": 3, "velocity": 84}, {"time": 3179, "pitch": 78, "duration": 15, "velocity": 86}, {"time": 3203, "pitch": 78, "duration": 7, "velocity": 86}, {"time": 3212, "pitch": 78, "duration": 2, "velocity": 81}, {"time": 3215, "pitch": 78, "duration": 4, "velocity": 83}, {"time": 3221, "pitch": 80, "duration": 3, "velocity": 82}, {"time": 3227, "pitch": 83, "duration": 9, "velocity": 87}, {"time": 3239, "pitch": 80, "duration": 5, "velocity": 81}, {"time": 3245, "pitch": 78, "duration": 4, "velocity": 81}, {"time": 3251, "pitch": 75, "duration": 4, "velocity": 84}, {"time": 3257, "pitch": 75, "duration": 3, "velocity": 81}, {"time": 3263, "pitch": 73, "duration": 5, "velocity": 84}, {"time": 3269, "pitch": 75, "duration": 4, "velocity": 87}, {"time": 3275, "pitch": 78, "duration": 17, "velocity": 81}, {"time": 3299, "pitch": 73, "duration": 7, "velocity": 87}, {"time": 3308, "pitch": 73, "duration": 2, "velocity": 80}, {"time": 3311, "pitch": 73, "duration": 3, "velocity": 82}, {"time": 3317, "pitch": 75, "duration": 4, "velocity": 84}, {"time": 3323, "pitch": 73, "duration": 9, "velocity": 85}, {"time": 3335, "pitch": 75, "duration": 4, "velocity": 82}, {"time": 3341, "pitch": 73, "duration": 3, "velocity": 85}, {"time": 3347, "pitch": 71, "duration": 4, "velocity": 87}, {"time": 3353, "pitch": 73, "duration": 3, "velocity": 82}, {"time": 3356, "pitch": 71, "duration": 2, "velocity": 82}, {"time": 3359, "pitch": 68, "duration": 4, "velocity": 81}, {"time": 3365, "pitch": 71, "duration": 5, "velocity": 81}, {"time": 3371, "pitch": 66, "duration": 18, "velocity": 82}, {"time": 3395, "pitch": 71, "duration": 8, "velocity": 87}, {"time": 3404, "pitch": 73, "duration": 3, "velocity": 84}, {"time": 3407, "pitch": 75, "duration": 5, "velocity": 84}, {"time": 3413, "pitch": 78, "duration": 4, "velocity": 86}, {"time": 3419, "pitch": 80, "duration": 4, "velocity": 81}, {"time": 3425, "pitch": 83, "duration": 4, "velocity": 86}, {"time": 3431, "pitch": 80, "duration": 4, "velocity": 81}, {"time": 3437, "pitch": 78, "duration": 4, "velocity": 81}, {"time": 3443, "pitch": 78, "duration": 36, "velocity": 86}, {"time": 3479, "pitch": 80, "duration": 12, "velocity": 82}, {"time": 3491, "pitch": 78, "duration": 2, "velocity": 89}, {"time": 3497, "pitch": 78, "duration": 3, "velocity": 84}, {"time": 3503, "pitch": 78, "duration": 3, "velocity": 86}, {"time": 3509, "pitch": 78, "duration": 2, "velocity": 86}, {"time": 3515, "pitch": 78, "duration": 3, "velocity": 91}, {"time": 3521, "pitch": 80, "duration": 3, "velocity": 82}, {"time": 3524, "pitch": 78, "duration": 2, "velocity": 84}, {"time": 3527, "pitch": 75, "duration": 3, "velocity": 87}, {"time": 3533, "pitch": 73, "duration": 3, "velocity": 87}, {"time": 3539, "pitch": 71, "duration": 3, "velocity": 89}, {"time": 3545, "pitch": 73, "duration": 3, "velocity": 82}, {"time": 3548, "pitch": 71, "duration": 2, "velocity": 77}, {"time": 3551, "pitch": 68, "duration": 5, "velocity": 84}, {"time": 3557, "pitch": 71, "duration": 5, "velocity": 84}, {"time": 3563, "pitch": 66, "duration": 16, "velocity": 85}, {"time": 3587, "pitch": 71, "duration": 9, "velocity": 87}, {"time": 3599, "pitch": 68, "duration": 5, "velocity": 82}, {"time": 3605, "pitch": 66, "duration": 5, "velocity": 81}, {"time": 3611, "pitch": 71, "duration": 8, "velocity": 82}, {"time": 3623, "pitch": 68, "duration": 5, "velocity": 84}, {"time": 3629, "pitch": 66, "duration": 4, "velocity": 82}, {"time": 3635, "pitch": 71, "duration": 3, "velocity": 91}, {"time": 3641, "pitch": 73, "duration": 3, "velocity": 87}, {"time": 3647, "pitch": 75, "duration": 3, "velocity": 85}, {"time": 3650, "pitch": 73, "duration": 3, "velocity": 84}, {"time": 3653, "pitch": 71, "duration": 3, "velocity": 91}, {"time": 3659, "pitch": 73, "duration": 18, "velocity": 94}, {"time": 3683, "pitch": 78, "duration": 3, "velocity": 83}, {"time": 3689, "pitch": 78, "duration": 4, "velocity": 82}, {"time": 3695, "pitch": 78, "duration": 3, "velocity": 85}, {"time": 3701, "pitch": 78, "duration": 3, "velocity": 84}, {"time": 3707, "pitch": 78, "duration": 3, "velocity": 89}, {"time": 3713, "pitch": 80, "duration": 2, "velocity": 81}, {"time": 3716, "pitch": 78, "duration": 2, "velocity": 87}, {"time": 3719, "pitch": 75, "duration": 3, "velocity": 85}, {"time": 3725, "pitch": 78, "duration": 3, "velocity": 86}, {"time": 3731, "pitch": 80, "duration": 6, "velocity": 82}, {"time": 3743, "pitch": 83, "duration": 10, "velocity": 82}, {"time": 3755, "pitch": 80, "duration": 5, "velocity": 80}, {"time": 3761, "pitch": 78, "duration": 5, "velocity": 83}, {"time": 3767, "pitch": 80, "duration": 10, "velocity": 82}, {"time": 3785, "pitch": 78, "duration": 6, "velocity": 83}, {"time": 3791, "pitch": 83, "duration": 6, "velocity": 91}, {"time": 3797, "pitch": 82, "duration": 3, "velocity": 85}, {"time": 3803, "pitch": 75, "duration": 5, "velocity": 82}, {"time": 3809, "pitch": 78, "duration": 3, "velocity": 82}, {"time": 3815, "pitch": 75, "duration": 5, "velocity": 85}, {"time": 3821, "pitch": 73, "duration": 6, "velocity": 86}, {"time": 3827, "pitch": 71, "duration": 38, "velocity": 81}]}, {"program": 0, "is_drum": false, "name": "PIANO", "notes": [{"time": 35, "pitch": 35, "duration": 10, "velocity": 84}, {"time": 35, "pitch": 54, "duration": 5, "velocity": 76}, {"time": 35, "pitch": 59, "duration": 5, "velocity": 75}, {"time": 41, "pitch": 59, "duration": 6, "velocity": 81}, {"time": 41, "pitch": 63, "duration": 6, "velocity": 82}, {"time": 47, "pitch": 42, "duration": 5, "velocity": 81}, {"time": 53, "pitch": 44, "duration": 6, "velocity": 82}, {"time": 53, "pitch": 59, "duration": 4, "velocity": 80}, {"time": 53, "pitch": 63, "duration": 4, "velocity": 82}, {"time": 59, "pitch": 47, "duration": 8, "velocity": 87}, {"time": 59, "pitch": 54, "duration": 5, "velocity": 74}, {"time": 59, "pitch": 59, "duration": 5, "velocity": 76}, {"time": 65, "pitch": 59, "duration": 9, "velocity": 80}, {"time": 65, "pitch": 63, "duration": 9, "velocity": 81}, {"time": 71, "pitch": 42, "duration": 5, "velocity": 82}, {"time": 77, "pitch": 47, "duration": 6, "velocity": 83}, {"time": 77, "pitch": 59, "duration": 4, "velocity": 80}, {"time": 77, "pitch": 63, "duration": 4, "velocity": 82}, {"time": 83, "pitch": 44, "duration": 9, "velocity": 81}, {"time": 83, "pitch": 56, "duration": 5, "velocity": 72}, {"time": 83, "pitch": 59, "duration": 5, "velocity": 75}, {"time": 89, "pitch": 59, "duration": 5, "velocity": 79}, {"time": 89, "pitch": 63, "duration": 5, "velocity": 81}, {"time": 95, "pitch": 39, "duration": 4, "velocity": 80}, {"time": 101, "pitch": 42, "duration": 5, "velocity": 81}, {"time": 101, "pitch": 59, "duration": 4, "velocity": 75}, {"time": 101, "pitch": 63, "duration": 4, "velocity": 81}, {"time": 104, "pitch": 59, "duration": 1, "velocity": 75}, {"time": 107, "pitch": 44, "duration": 8, "velocity": 81}, {"time": 107, "pitch": 56, "duration": 5, "velocity": 69}, {"time": 113, "pitch": 56, "duration": 9, "velocity": 76}, {"time": 113, "pitch": 59, "duration": 10, "velocity": 77}, {"time": 113, "pitch": 63, "duration": 9, "velocity": 81}, {"time": 119, "pitch": 39, "duration": 5, "velocity": 84}, {"time": 125, "pitch": 42, "duration": 6, "velocity": 81}, {"time": 125, "pitch": 56, "duration": 4, "velocity": 74}, {"time": 125, "pitch": 59, "duration": 4, "velocity": 75}, {"time": 125, "pitch": 63, "duration": 4, "velocity": 80}, {"time": 131, "pitch": 35, "duration": 10, "velocity": 84}, {"time": 131, "pitch": 54, "duration": 5, "velocity": 77}, {"time": 131, "pitch": 59, "duration": 5, "velocity": 74}, {"time": 137, "pitch": 54, "duration": 6, "velocity": 67}, {"time": 137, "pitch": 59, "duration": 7, "velocity": 81}, {"time": 137, "pitch": 63, "duration": 7, "velocity": 80}, {"time": 143, "pitch": 42, "duration": 5, "velocity": 81}, {"time": 149, "pitch": 44, "duration": 6, "velocity": 82}, {"time": 149, "pitch": 54, "duration": 4, "velocity": 77}, {"time": 149, "pitch": 59, "duration": 3, "velocity": 80}, {"time": 149, "pitch": 63, "duration": 3, "velocity": 80}, {"time": 155, "pitch": 47, "duration": 8, "velocity": 87}, {"time": 155, "pitch": 54, "duration": 4, "velocity": 73}, {"time": 155, "pitch": 59, "duration": 4, "velocity": 75}, {"time": 161, "pitch": 59, "duration": 8, "velocity": 80}, {"time": 161, "pitch": 63, "duration": 8, "velocity": 81}, {"time": 167, "pitch": 42, "duration": 5, "velocity": 82}, {"time": 173, "pitch": 47, "duration": 6, "velocity": 83}, {"time": 173, "pitch": 59, "duration": 3, "velocity": 78}, {"time": 173, "pitch": 63, "duration": 3, "velocity": 81}, {"time": 179, "pitch": 44, "duration": 9, "velocity": 81}, {"time": 179, "pitch": 56, "duration": 5, "velocity": 70}, {"time": 179, "pitch": 59, "duration": 5, "velocity": 72}, {"time": 185, "pitch": 59, "duration": 7, "velocity": 79}, {"time": 185, "pitch": 63, "duration": 6, "velocity": 81}, {"time": 191, "pitch": 39, "duration": 4, "velocity": 80}, {"time": 197, "pitch": 42, "duration": 5, "velocity": 81}, {"time": 197, "pitch": 59, "duration": 3, "velocity": 77}, {"time": 197, "pitch": 63, "duration": 3, "velocity": 81}, {"time": 203, "pitch": 44, "duration": 8, "velocity": 81}, {"time": 203, "pitch": 56, "duration": 5, "velocity": 69}, {"time": 203, "pitch": 59, "duration": 5, "velocity": 73}, {"time": 209, "pitch": 56, "duration": 7, "velocity": 75}, {"time": 209, "pitch": 59, "duration": 8, "velocity": 77}, {"time": 209, "pitch": 63, "duration": 8, "velocity": 79}, {"time": 215, "pitch": 39, "duration": 5, "velocity": 84}, {"time": 221, "pitch": 42, "duration": 6, "velocity": 81}, {"time": 221, "pitch": 56, "duration": 4, "velocity": 80}, {"time": 221, "pitch": 59, "duration": 4, "velocity": 81}, {"time": 221, "pitch": 63, "duration": 4, "velocity": 82}, {"time": 227, "pitch": 35, "duration": 10, "velocity": 84}, {"time": 227, "pitch": 54, "duration": 5, "velocity": 76}, {"time": 227, "pitch": 59, "duration": 5, "velocity": 75}, {"time": 233, "pitch": 59, "duration": 6, "velocity": 81}, {"time": 233, "pitch": 63, "duration": 6, "velocity": 82}, {"time": 239, "pitch": 42, "duration": 5, "velocity": 81}, {"time": 245, "pitch": 44, "duration": 6, "velocity": 82}, {"time": 245, "pitch": 59, "duration": 4, "velocity": 80}, {"time": 245, "pitch": 63, "duration": 4, "velocity": 82}, {"time": 251, "pitch": 47, "duration": 8, "velocity": 87}, {"time": 251, "pitch": 54, "duration": 5, "velocity": 74}, {"time": 251, "pitch": 59, "duration": 5, "velocity": 76}, {"time": 257, "pitch": 59, "duration": 9, "velocity": 80}, {"time": 257, "pitch": 63, "duration": 9, "velocity": 81}, {"time": 263, "pitch": 42, "duration": 5, "velocity": 82}, {"time": 269, "pitch": 47, "duration": 6, "velocity": 83}, {"time": 269, "pitch": 59, "duration": 4, "velocity": 80}, {"time": 269, "pitch": 63, "duration": 4, "velocity": 82}, {"time": 275, "pitch": 44, "duration": 9, "velocity": 81}, {"time": 275, "pitch": 56, "duration": 5, "velocity": 72}, {"time": 275, "pitch": 59, "duration": 5, "velocity": 75}, {"time": 281, "pitch": 59, "duration": 5, "velocity": 79}, {"time": 281, "pitch": 63, "duration": 5, "velocity": 81}, {"time": 287, "pitch": 39, "duration": 4, "velocity": 80}, {"time": 293, "pitch": 42, "duration": 5, "velocity": 81}, {"time": 293, "pitch": 59, "duration": 4, "velocity": 75}, {"time": 293, "pitch": 63, "duration": 4, "velocity": 81}, {"time": 296, "pitch": 59, "duration": 1, "velocity": 75}, {"time": 299, "pitch": 44, "duration": 8, "velocity": 81}, {"time": 299, "pitch": 56, "duration": 5, "velocity": 69}, {"time": 305, "pitch": 56, "duration": 9, "velocity": 76}, {"time": 305, "pitch": 59, "duration": 10, "velocity": 77}, {"time": 305, "pitch": 63, "duration": 9, "velocity": 81}, {"time": 311, "pitch": 39, "duration": 5, "velocity": 84}, {"time": 317, "pitch": 42, "duration": 6, "velocity": 81}, {"time": 317, "pitch": 56, "duration": 4, "velocity": 74}, {"time": 317, "pitch": 59, "duration": 4, "velocity": 75}, {"time": 317, "pitch": 63, "duration": 4, "velocity": 80}, {"time": 323, "pitch": 35, "duration": 10, "velocity": 84}, {"time": 323, "pitch": 54, "duration": 5, "velocity": 77}, {"time": 323, "pitch": 59, "duration": 5, "velocity": 74}, {"time": 329, "pitch": 54, "duration": 6, "velocity": 67}, {"time": 329, "pitch": 59, "duration": 7, "velocity": 81}, {"time": 329, "pitch": 63, "duration": 7, "velocity": 80}, {"time": 335, "pitch": 42, "duration": 5, "velocity": 81}, {"time": 341, "pitch": 44, "duration": 6, "velocity": 82}, {"time": 341, "pitch": 54, "duration": 4, "velocity": 77}, {"time": 341, "pitch": 59, "duration": 3, "velocity": 80}, {"time": 341, "pitch": 63, "duration": 3, "velocity": 80}, {"time": 347, "pitch": 47, "duration": 8, "velocity": 87}, {"time": 347, "pitch": 54, "duration": 4, "velocity": 73}, {"time": 347, "pitch": 59, "duration": 4, "velocity": 75}, {"time": 353, "pitch": 59, "duration": 8, "velocity": 80}, {"time": 353, "pitch": 63, "duration": 8, "velocity": 81}, {"time": 359, "pitch": 42, "duration": 5, "velocity": 82}, {"time": 365, "pitch": 47, "duration": 6, "velocity": 83}, {"time": 365, "pitch": 59, "duration": 3, "velocity": 78}, {"time": 365, "pitch": 63, "duration": 3, "velocity": 81}, {"time": 371, "pitch": 42, "duration": 11, "velocity": 84}, {"time": 371, "pitch": 61, "duration": 5, "velocity": 75}, {"time": 371, "pitch": 66, "duration": 6, "velocity": 78}, {"time": 377, "pitch": 61, "duration": 4, "velocity": 80}, {"time": 377, "pitch": 66, "duration": 3, "velocity": 71}, {"time": 383, "pitch": 37, "duration": 5, "velocity": 96}, {"time": 389, "pitch": 39, "duration": 4, "velocity": 86}, {"time": 389, "pitch": 58, "duration": 3, "velocity": 72}, {"time": 389, "pitch": 61, "duration": 4, "velocity": 77}, {"time": 389, "pitch": 66, "duration": 4, "velocity": 75}, {"time": 395, "pitch": 42, "duration": 12, "velocity": 82}, {"time": 395, "pitch": 58, "duration": 5, "velocity": 70}, {"time": 395, "pitch": 61, "duration": 5, "velocity": 73}, {"time": 401, "pitch": 58, "duration": 8, "velocity": 76}, {"time": 401, "pitch": 61, "duration": 8, "velocity": 80}, {"time": 401, "pitch": 66, "duration": 8, "velocity": 73}, {"time": 407, "pitch": 39, "duration": 5, "velocity": 91}, {"time": 413, "pitch": 42, "duration": 5, "velocity": 84}, {"time": 413, "pitch": 58, "duration": 4, "velocity": 77}, {"time": 413, "pitch": 61, "duration": 4, "velocity": 81}, {"time": 413, "pitch": 66, "duration": 4, "velocity": 77}, {"time": 419, "pitch": 35, "duration": 9, "velocity": 79}, {"time": 425, "pitch": 59, "duration": 9, "velocity": 82}, {"time": 425, "pitch": 63, "duration": 8, "velocity": 91}, {"time": 425, "pitch": 66, "duration": 8, "velocity": 83}, {"time": 431, "pitch": 42, "duration": 4, "velocity": 80}, {"time": 437, "pitch": 44, "duration": 4, "velocity": 80}, {"time": 437, "pitch": 59, "duration": 3, "velocity": 81}, {"time": 437, "pitch": 63, "duration": 3, "velocity": 85}, {"time": 437, "pitch": 66, "duration": 3, "velocity": 80}, {"time": 443, "pitch": 37, "duration": 12, "velocity": 84}, {"time": 443, "pitch": 61, "duration": 4, "velocity": 80}, {"time": 443, "pitch": 64, "duration": 4, "velocity": 84}, {"time": 443, "pitch": 68, "duration": 4, "velocity": 74}, {"time": 449, "pitch": 61, "duration": 9, "velocity": 81}, {"time": 449, "pitch": 64, "duration": 9, "velocity": 81}, {"time": 449, "pitch": 68, "duration": 9, "velocity": 81}, {"time": 455, "pitch": 44, "duration": 4, "velocity": 82}, {"time": 461, "pitch": 47, "duration": 4, "velocity": 82}, {"time": 461, "pitch": 61, "duration": 3, "velocity": 82}, {"time": 461, "pitch": 64, "duration": 2, "velocity": 82}, {"time": 461, "pitch": 68, "duration": 3, "velocity": 81}, {"time": 467, "pitch": 42, "duration": 9, "velocity": 82}, {"time": 467, "pitch": 54, "duration": 3, "velocity": 82}, {"time": 467, "pitch": 58, "duration": 3, "velocity": 81}, {"time": 467, "pitch": 61, "duration": 3, "velocity": 81}, {"time": 473, "pitch": 54, "duration": 9, "velocity": 78}, {"time": 473, "pitch": 58, "duration": 9, "velocity": 77}, {"time": 473, "pitch": 61, "duration": 9, "velocity": 78}, {"time": 479, "pitch": 37, "duration": 4, "velocity": 84}, {"time": 485, "pitch": 42, "duration": 3, "velocity": 84}, {"time": 485, "pitch": 54, "duration": 3, "velocity": 74}, {"time": 485, "pitch": 58, "duration": 3, "velocity": 76}, {"time": 485, "pitch": 61, "duration": 3, "velocity": 74}, {"time": 491, "pitch": 35, "duration": 10, "velocity": 76}, {"time": 491, "pitch": 59, "duration": 4, "velocity": 73}, {"time": 491, "pitch": 63, "duration": 4, "velocity": 80}, {"time": 497, "pitch": 59, "duration": 10, "velocity": 80}, {"time": 497, "pitch": 63, "duration": 10, "velocity": 84}, {"time": 503, "pitch": 42, "duration": 4, "velocity": 81}, {"time": 509, "pitch": 44, "duration": 4, "velocity": 80}, {"time": 509, "pitch": 54, "duration": 5, "velocity": 81}, {"time": 515, "pitch": 47, "duration": 10, "velocity": 84}, {"time": 521, "pitch": 54, "duration": 7, "velocity": 79}, {"time": 521, "pitch": 59, "duration": 7, "velocity": 81}, {"time": 521, "pitch": 63, "duration": 7, "velocity": 81}, {"time": 527, "pitch": 42, "duration": 6, "velocity": 74}, {"time": 533, "pitch": 44, "duration": 6, "velocity": 74}, {"time": 533, "pitch": 54, "duration": 3, "velocity": 78}, {"time": 533, "pitch": 59, "duration": 3, "velocity": 80}, {"time": 533, "pitch": 63, "duration": 3, "velocity": 81}, {"time": 539, "pitch": 47, "duration": 9, "velocity": 69}, {"time": 545, "pitch": 54, "duration": 3, "velocity": 78}, {"time": 545, "pitch": 59, "duration": 3, "velocity": 80}, {"time": 545, "pitch": 63, "duration": 3, "velocity": 82}, {"time": 551, "pitch": 42, "duration": 6, "velocity": 73}, {"time": 557, "pitch": 47, "duration": 6, "velocity": 81}, {"time": 557, "pitch": 54, "duration": 4, "velocity": 80}, {"time": 557, "pitch": 59, "duration": 4, "velocity": 80}, {"time": 557, "pitch": 63, "duration": 6, "velocity": 83}, {"time": 563, "pitch": 40, "duration": 10, "velocity": 73}, {"time": 569, "pitch": 52, "duration": 9, "velocity": 76}, {"time": 569, "pitch": 56, "duration": 10, "velocity": 72}, {"time": 569, "pitch": 59, "duration": 10, "velocity": 78}, {"time": 575, "pitch": 44, "duration": 6, "velocity": 78}, {"time": 581, "pitch": 47, "duration": 6, "velocity": 81}, {"time": 581, "pitch": 52, "duration": 3, "velocity": 81}, {"time": 581, "pitch": 56, "duration": 4, "velocity": 80}, {"time": 581, "pitch": 59, "duration": 4, "velocity": 82}, {"time": 587, "pitch": 42, "duration": 9, "velocity": 77}, {"time": 593, "pitch": 54, "duration": 9, "velocity": 79}, {"time": 593, "pitch": 58, "duration": 9, "velocity": 74}, {"time": 593, "pitch": 61, "duration": 9, "velocity": 80}, {"time": 599, "pitch": 49, "duration": 6, "velocity": 76}, {"time": 605, "pitch": 42, "duration": 6, "velocity": 81}, {"time": 605, "pitch": 54, "duration": 4, "velocity": 80}, {"time": 605, "pitch": 58, "duration": 4, "velocity": 81}, {"time": 605, "pitch": 61, "duration": 5, "velocity": 82}, {"time": 611, "pitch": 47, "duration": 8, "velocity": 60}, {"time": 617, "pitch": 54, "duration": 4, "velocity": 80}, {"time": 617, "pitch": 59, "duration": 4, "velocity": 81}, {"time": 617, "pitch": 63, "duration": 5, "velocity": 82}, {"time": 623, "pitch": 42, "duration": 8, "velocity": 80}, {"time": 629, "pitch": 54, "duration": 3, "velocity": 78}, {"time": 629, "pitch": 59, "duration": 3, "velocity": 80}, {"time": 629, "pitch": 63, "duration": 3, "velocity": 81}, {"time": 635, "pitch": 47, "duration": 11, "velocity": 74}, {"time": 641, "pitch": 54, "duration": 7, "velocity": 80}, {"time": 641, "pitch": 59, "duration": 8, "velocity": 81}, {"time": 641, "pitch": 63, "duration": 7, "velocity": 82}, {"time": 647, "pitch": 42, "duration": 8, "velocity": 80}, {"time": 653, "pitch": 54, "duration": 3, "velocity": 79}, {"time": 653, "pitch": 59, "duration": 4, "velocity": 80}, {"time": 653, "pitch": 63, "duration": 4, "velocity": 81}, {"time": 659, "pitch": 44, "duration": 9, "velocity": 76}, {"time": 665, "pitch": 56, "duration": 10, "velocity": 79}, {"time": 665, "pitch": 59, "duration": 10, "velocity": 81}, {"time": 665, "pitch": 63, "duration": 10, "velocity": 82}, {"time": 671, "pitch": 51, "duration": 10, "velocity": 79}, {"time": 677, "pitch": 56, "duration": 4, "velocity": 80}, {"time": 677, "pitch": 59, "duration": 4, "velocity": 81}, {"time": 677, "pitch": 63, "duration": 4, "velocity": 83}, {"time": 683, "pitch": 42, "duration": 12, "velocity": 66}, {"time": 689, "pitch": 54, "duration": 9, "velocity": 80}, {"time": 689, "pitch": 58, "duration": 8, "velocity": 80}, {"time": 689, "pitch": 61, "duration": 9, "velocity": 80}, {"time": 695, "pitch": 42, "duration": 1, "velocity": 79}, {"time": 701, "pitch": 44, "duration": 6, "velocity": 81}, {"time": 701, "pitch": 54, "duration": 4, "velocity": 80}, {"time": 701, "pitch": 58, "duration": 3, "velocity": 83}, {"time": 701, "pitch": 61, "duration": 4, "velocity": 81}, {"time": 707, "pitch": 47, "duration": 11, "velocity": 81}, {"time": 713, "pitch": 54, "duration": 9, "velocity": 81}, {"time": 713, "pitch": 59, "duration": 9, "velocity": 82}, {"time": 713, "pitch": 63, "duration": 9, "velocity": 83}, {"time": 719, "pitch": 47, "duration": 6, "velocity": 81}, {"time": 725, "pitch": 42, "duration": 6, "velocity": 81}, {"time": 725, "pitch": 54, "duration": 4, "velocity": 79}, {"time": 725, "pitch": 59, "duration": 4, "velocity": 81}, {"time": 725, "pitch": 63, "duration": 4, "velocity": 82}, {"time": 731, "pitch": 39, "duration": 9, "velocity": 80}, {"time": 737, "pitch": 58, "duration": 9, "velocity": 77}, {"time": 737, "pitch": 63, "duration": 10, "velocity": 80}, {"time": 737, "pitch": 66, "duration": 10, "velocity": 78}, {"time": 743, "pitch": 46, "duration": 8, "velocity": 80}, {"time": 749, "pitch": 58, "duration": 4, "velocity": 82}, {"time": 749, "pitch": 63, "duration": 4, "velocity": 83}, {"time": 749, "pitch": 66, "duration": 3, "velocity": 80}, {"time": 755, "pitch": 44, "duration": 9, "velocity": 77}, {"time": 761, "pitch": 56, "duration": 9, "velocity": 75}, {"time": 761, "pitch": 59, "duration": 9, "velocity": 75}, {"time": 761, "pitch": 63, "duration": 9, "velocity": 81}, {"time": 767, "pitch": 39, "duration": 6, "velocity": 76}, {"time": 773, "pitch": 42, "duration": 6, "velocity": 81}, {"time": 773, "pitch": 56, "duration": 4, "velocity": 81}, {"time": 773, "pitch": 59, "duration": 4, "velocity": 81}, {"time": 773, "pitch": 63, "duration": 4, "velocity": 84}, {"time": 779, "pitch": 44, "duration": 9, "velocity": 79}, {"time": 785, "pitch": 56, "duration": 8, "velocity": 79}, {"time": 785, "pitch": 59, "duration": 9, "velocity": 81}, {"time": 785, "pitch": 63, "duration": 8, "velocity": 82}, {"time": 791, "pitch": 51, "duration": 8, "velocity": 76}, {"time": 797, "pitch": 56, "duration": 4, "velocity": 80}, {"time": 797, "pitch": 59, "duration": 4, "velocity": 82}, {"time": 797, "pitch": 63, "duration": 4, "velocity": 85}, {"time": 803, "pitch": 49, "duration": 9, "velocity": 77}, {"time": 809, "pitch": 56, "duration": 7, "velocity": 80}, {"time": 809, "pitch": 61, "duration": 7, "velocity": 80}, {"time": 809, "pitch": 64, "duration": 7, "velocity": 80}, {"time": 815, "pitch": 44, "duration": 6, "velocity": 80}, {"time": 821, "pitch": 47, "duration": 6, "velocity": 81}, {"time": 821, "pitch": 56, "duration": 3, "velocity": 75}, {"time": 821, "pitch": 61, "duration": 3, "velocity": 80}, {"time": 821, "pitch": 64, "duration": 4, "velocity": 80}, {"time": 827, "pitch": 49, "duration": 12, "velocity": 74}, {"time": 833, "pitch": 56, "duration": 9, "velocity": 78}, {"time": 833, "pitch": 61, "duration": 9, "velocity": 80}, {"time": 833, "pitch": 64, "duration": 8, "velocity": 81}, {"time": 839, "pitch": 44, "duration": 6, "velocity": 76}, {"time": 845, "pitch": 42, "duration": 6, "velocity": 81}, {"time": 845, "pitch": 56, "duration": 4, "velocity": 80}, {"time": 845, "pitch": 61, "duration": 4, "velocity": 80}, {"time": 845, "pitch": 64, "duration": 5, "velocity": 80}, {"time": 851, "pitch": 47, "duration": 11, "velocity": 78}, {"time": 857, "pitch": 54, "duration": 8, "velocity": 79}, {"time": 857, "pitch": 59, "duration": 8, "velocity": 80}, {"time": 857, "pitch": 63, "duration": 8, "velocity": 81}, {"time": 863, "pitch": 42, "duration": 6, "velocity": 79}, {"time": 869, "pitch": 44, "duration": 6, "velocity": 81}, {"time": 869, "pitch": 54, "duration": 5, "velocity": 81}, {"time": 869, "pitch": 59, "duration": 5, "velocity": 82}, {"time": 869, "pitch": 63, "duration": 4, "velocity": 81}, {"time": 875, "pitch": 47, "duration": 10, "velocity": 75}, {"time": 881, "pitch": 54, "duration": 7, "velocity": 78}, {"time": 881, "pitch": 59, "duration": 7, "velocity": 79}, {"time": 881, "pitch": 63, "duration": 7, "velocity": 81}, {"time": 887, "pitch": 42, "duration": 6, "velocity": 75}, {"time": 893, "pitch": 44, "duration": 6, "velocity": 81}, {"time": 893, "pitch": 54, "duration": 5, "velocity": 78}, {"time": 893, "pitch": 59, "duration": 5, "velocity": 81}, {"time": 893, "pitch": 63, "duration": 4, "velocity": 82}, {"time": 899, "pitch": 47, "duration": 8, "velocity": 80}, {"time": 905, "pitch": 54, "duration": 4, "velocity": 77}, {"time": 905, "pitch": 59, "duration": 4, "velocity": 80}, {"time": 905, "pitch": 63, "duration": 4, "velocity": 84}, {"time": 911, "pitch": 42, "duration": 6, "velocity": 76}, {"time": 917, "pitch": 44, "duration": 6, "velocity": 81}, {"time": 917, "pitch": 54, "duration": 4, "velocity": 80}, {"time": 917, "pitch": 59, "duration": 4, "velocity": 80}, {"time": 917, "pitch": 63, "duration": 4, "velocity": 82}, {"time": 923, "pitch": 47, "duration": 8, "velocity": 76}, {"time": 929, "pitch": 54, "duration": 4, "velocity": 76}, {"time": 929, "pitch": 59, "duration": 4, "velocity": 79}, {"time": 929, "pitch": 63, "duration": 4, "velocity": 82}, {"time": 935, "pitch": 42, "duration": 8, "velocity": 77}, {"time": 941, "pitch": 54, "duration": 5, "velocity": 76}, {"time": 941, "pitch": 59, "duration": 5, "velocity": 75}, {"time": 941, "pitch": 63, "duration": 5, "velocity": 81}, {"time": 947, "pitch": 47, "duration": 10, "velocity": 72}, {"time": 953, "pitch": 54, "duration": 7, "velocity": 75}, {"time": 953, "pitch": 59, "duration": 7, "velocity": 76}, {"time": 953, "pitch": 63, "duration": 7, "velocity": 76}, {"time": 959, "pitch": 42, "duration": 6, "velocity": 77}, {"time": 965, "pitch": 44, "duration": 6, "velocity": 81}, {"time": 965, "pitch": 54, "duration": 4, "velocity": 72}, {"time": 965, "pitch": 59, "duration": 4, "velocity": 74}, {"time": 965, "pitch": 63, "duration": 4, "velocity": 75}, {"time": 971, "pitch": 47, "duration": 10, "velocity": 73}, {"time": 977, "pitch": 54, "duration": 9, "velocity": 81}, {"time": 977, "pitch": 59, "duration": 9, "velocity": 81}, {"time": 977, "pitch": 63, "duration": 9, "velocity": 82}, {"time": 983, "pitch": 42, "duration": 12, "velocity": 81}, {"time": 989, "pitch": 54, "duration": 5, "velocity": 81}, {"time": 989, "pitch": 59, "duration": 5, "velocity": 83}, {"time": 989, "pitch": 63, "duration": 5, "velocity": 83}, {"time": 995, "pitch": 47, "duration": 8, "velocity": 72}, {"time": 1001, "pitch": 54, "duration": 8, "velocity": 80}, {"time": 1001, "pitch": 59, "duration": 8, "velocity": 80}, {"time": 1001, "pitch": 63, "duration": 8, "velocity": 83}, {"time": 1007, "pitch": 42, "duration": 6, "velocity": 81}, {"time": 1013, "pitch": 47, "duration": 6, "velocity": 81}, {"time": 1013, "pitch": 54, "duration": 4, "velocity": 81}, {"time": 1013, "pitch": 59, "duration": 5, "velocity": 82}, {"time": 1013, "pitch": 63, "duration": 6, "velocity": 83}, {"time": 1019, "pitch": 44, "duration": 8, "velocity": 81}, {"time": 1025, "pitch": 56, "duration": 10, "velocity": 78}, {"time": 1025, "pitch": 59, "duration": 10, "velocity": 83}, {"time": 1025, "pitch": 63, "duration": 10, "velocity": 85}, {"time": 1031, "pitch": 39, "duration": 11, "velocity": 78}, {"time": 1037, "pitch": 56, "duration": 5, "velocity": 80}, {"time": 1037, "pitch": 59, "duration": 4, "velocity": 83}, {"time": 1037, "pitch": 63, "duration": 5, "velocity": 84}, {"time": 1043, "pitch": 42, "duration": 9, "velocity": 73}, {"time": 1049, "pitch": 54, "duration": 9, "velocity": 77}, {"time": 1049, "pitch": 58, "duration": 9, "velocity": 81}, {"time": 1049, "pitch": 63, "duration": 9, "velocity": 80}, {"time": 1049, "pitch": 64, "duration": 3, "velocity": 73}, {"time": 1055, "pitch": 37, "duration": 6, "velocity": 75}, {"time": 1061, "pitch": 39, "duration": 6, "velocity": 81}, {"time": 1061, "pitch": 54, "duration": 4, "velocity": 81}, {"time": 1061, "pitch": 58, "duration": 4, "velocity": 85}, {"time": 1061, "pitch": 63, "duration": 4, "velocity": 86}, {"time": 1067, "pitch": 42, "duration": 7, "velocity": 78}, {"time": 1073, "pitch": 54, "duration": 9, "velocity": 77}, {"time": 1073, "pitch": 58, "duration": 9, "velocity": 78}, {"time": 1073, "pitch": 61, "duration": 9, "velocity": 78}, {"time": 1079, "pitch": 37, "duration": 6, "velocity": 78}, {"time": 1085, "pitch": 42, "duration": 6, "velocity": 81}, {"time": 1085, "pitch": 54, "duration": 4, "velocity": 81}, {"time": 1085, "pitch": 58, "duration": 4, "velocity": 84}, {"time": 1085, "pitch": 61, "duration": 4, "velocity": 81}, {"time": 1091, "pitch": 37, "duration": 6, "velocity": 81}, {"time": 1091, "pitch": 49, "duration": 4, "velocity": 74}, {"time": 1091, "pitch": 52, "duration": 6, "velocity": 76}, {"time": 1097, "pitch": 56, "duration": 9, "velocity": 73}, {"time": 1097, "pitch": 61, "duration": 9, "velocity": 76}, {"time": 1097, "pitch": 64, "duration": 9, "velocity": 72}, {"time": 1103, "pitch": 44, "duration": 7, "velocity": 77}, {"time": 1109, "pitch": 47, "duration": 6, "velocity": 81}, {"time": 1109, "pitch": 56, "duration": 5, "velocity": 81}, {"time": 1109, "pitch": 61, "duration": 5, "velocity": 83}, {"time": 1109, "pitch": 64, "duration": 5, "velocity": 82}, {"time": 1115, "pitch": 49, "duration": 7, "velocity": 69}, {"time": 1121, "pitch": 56, "duration": 8, "velocity": 80}, {"time": 1121, "pitch": 61, "duration": 8, "velocity": 80}, {"time": 1121, "pitch": 64, "duration": 7, "velocity": 80}, {"time": 1127, "pitch": 44, "duration": 12, "velocity": 65}, {"time": 1133, "pitch": 56, "duration": 5, "velocity": 77}, {"time": 1133, "pitch": 61, "duration": 5, "velocity": 77}, {"time": 1133, "pitch": 64, "duration": 5, "velocity": 81}, {"time": 1139, "pitch": 40, "duration": 8, "velocity": 78}, {"time": 1145, "pitch": 52, "duration": 8, "velocity": 76}, {"time": 1145, "pitch": 56, "duration": 9, "velocity": 74}, {"time": 1145, "pitch": 59, "duration": 8, "velocity": 80}, {"time": 1151, "pitch": 35, "duration": 6, "velocity": 80}, {"time": 1157, "pitch": 37, "duration": 6, "velocity": 81}, {"time": 1157, "pitch": 52, "duration": 4, "velocity": 81}, {"time": 1157, "pitch": 56, "duration": 4, "velocity": 80}, {"time": 1157, "pitch": 59, "duration": 5, "velocity": 80}, {"time": 1163, "pitch": 42, "duration": 8, "velocity": 81}, {"time": 1169, "pitch": 54, "duration": 9, "velocity": 80}, {"time": 1169, "pitch": 58, "duration": 10, "velocity": 80}, {"time": 1169, "pitch": 61, "duration": 9, "velocity": 81}, {"time": 1175, "pitch": 37, "duration": 9, "velocity": 78}, {"time": 1181, "pitch": 54, "duration": 4, "velocity": 80}, {"time": 1181, "pitch": 58, "duration": 5, "velocity": 81}, {"time": 1181, "pitch": 61, "duration": 5, "velocity": 81}, {"time": 1187, "pitch": 47, "duration": 12, "velocity": 76}, {"time": 1193, "pitch": 54, "duration": 10, "velocity": 80}, {"time": 1193, "pitch": 59, "duration": 10, "velocity": 82}, {"time": 1193, "pitch": 63, "duration": 10, "velocity": 83}, {"time": 1199, "pitch": 42, "duration": 6, "velocity": 77}, {"time": 1205, "pitch": 47, "duration": 6, "velocity": 81}, {"time": 1205, "pitch": 54, "duration": 4, "velocity": 82}, {"time": 1205, "pitch": 59, "duration": 5, "velocity": 84}, {"time": 1205, "pitch": 63, "duration": 5, "velocity": 85}, {"time": 1211, "pitch": 44, "duration": 12, "velocity": 81}, {"time": 1217, "pitch": 56, "duration": 4, "velocity": 74}, {"time": 1217, "pitch": 59, "duration": 6, "velocity": 80}, {"time": 1217, "pitch": 63, "duration": 5, "velocity": 85}, {"time": 1223, "pitch": 39, "duration": 6, "velocity": 81}, {"time": 1223, "pitch": 51, "duration": 6, "velocity": 81}, {"time": 1229, "pitch": 44, "duration": 6, "velocity": 81}, {"time": 1229, "pitch": 56, "duration": 5, "velocity": 80}, {"time": 1229, "pitch": 59, "duration": 5, "velocity": 85}, {"time": 1229, "pitch": 63, "duration": 5, "velocity": 85}, {"time": 1235, "pitch": 42, "duration": 12, "velocity": 81}, {"time": 1241, "pitch": 54, "duration": 8, "velocity": 81}, {"time": 1241, "pitch": 58, "duration": 7, "velocity": 81}, {"time": 1241, "pitch": 61, "duration": 7, "velocity": 81}, {"time": 1247, "pitch": 37, "duration": 6, "velocity": 81}, {"time": 1247, "pitch": 49, "duration": 5, "velocity": 75}, {"time": 1253, "pitch": 39, "duration": 6, "velocity": 81}, {"time": 1253, "pitch": 54, "duration": 3, "velocity": 80}, {"time": 1253, "pitch": 58, "duration": 3, "velocity": 81}, {"time": 1253, "pitch": 61, "duration": 3, "velocity": 80}, {"time": 1259, "pitch": 42, "duration": 6, "velocity": 81}, {"time": 1259, "pitch": 54, "duration": 3, "velocity": 82}, {"time": 1259, "pitch": 58, "duration": 3, "velocity": 86}, {"time": 1259, "pitch": 61, "duration": 4, "velocity": 85}, {"time": 1265, "pitch": 42, "duration": 6, "velocity": 81}, {"time": 1265, "pitch": 54, "duration": 10, "velocity": 82}, {"time": 1265, "pitch": 58, "duration": 9, "velocity": 84}, {"time": 1265, "pitch": 61, "duration": 10, "velocity": 83}, {"time": 1277, "pitch": 37, "duration": 6, "velocity": 81}, {"time": 1277, "pitch": 54, "duration": 5, "velocity": 81}, {"time": 1277, "pitch": 58, "duration": 5, "velocity": 82}, {"time": 1277, "pitch": 61, "duration": 5, "velocity": 84}, {"time": 1283, "pitch": 47, "duration": 10, "velocity": 84}, {"time": 1289, "pitch": 54, "duration": 7, "velocity": 79}, {"time": 1289, "pitch": 59, "duration": 7, "velocity": 81}, {"time": 1289, "pitch": 63, "duration": 7, "velocity": 81}, {"time": 1295, "pitch": 42, "duration": 6, "velocity": 74}, {"time": 1301, "pitch": 44, "duration": 6, "velocity": 74}, {"time": 1301, "pitch": 54, "duration": 3, "velocity": 78}, {"time": 1301, "pitch": 59, "duration": 3, "velocity": 80}, {"time": 1301, "pitch": 63, "duration": 3, "velocity": 81}, {"time": 1307, "pitch": 47, "duration": 9, "velocity": 69}, {"time": 1313, "pitch": 54, "duration": 3, "velocity": 78}, {"time": 1313, "pitch": 59, "duration": 3, "velocity": 80}, {"time": 1313, "pitch": 63, "duration": 3, "velocity": 82}, {"time": 1319, "pitch": 42, "duration": 6, "velocity": 73}, {"time": 1325, "pitch": 47, "duration": 6, "velocity": 81}, {"time": 1325, "pitch": 54, "duration": 4, "velocity": 80}, {"time": 1325, "pitch": 59, "duration": 4, "velocity": 80}, {"time": 1325, "pitch": 63, "duration": 6, "velocity": 83}, {"time": 1331, "pitch": 40, "duration": 10, "velocity": 73}, {"time": 1337, "pitch": 52, "duration": 9, "velocity": 76}, {"time": 1337, "pitch": 56, "duration": 10, "velocity": 72}, {"time": 1337, "pitch": 59, "duration": 10, "velocity": 78}, {"time": 1343, "pitch": 44, "duration": 6, "velocity": 78}, {"time": 1349, "pitch": 47, "duration": 6, "velocity": 81}, {"time": 1349, "pitch": 52, "duration": 3, "velocity": 81}, {"time": 1349, "pitch": 56, "duration": 4, "velocity": 80}, {"time": 1349, "pitch": 59, "duration": 4, "velocity": 82}, {"time": 1355, "pitch": 42, "duration": 9, "velocity": 77}, {"time": 1361, "pitch": 54, "duration": 9, "velocity": 79}, {"time": 1361, "pitch": 58, "duration": 9, "velocity": 74}, {"time": 1361, "pitch": 61, "duration": 9, "velocity": 80}, {"time": 1367, "pitch": 49, "duration": 6, "velocity": 76}, {"time": 1373, "pitch": 42, "duration": 6, "velocity": 81}, {"time": 1373, "pitch": 54, "duration": 4, "velocity": 80}, {"time": 1373, "pitch": 58, "duration": 4, "velocity": 81}, {"time": 1373, "pitch": 61, "duration": 5, "velocity": 82}, {"time": 1379, "pitch": 47, "duration": 8, "velocity": 60}, {"time": 1385, "pitch": 54, "duration": 4, "velocity": 80}, {"time": 1385, "pitch": 59, "duration": 4, "velocity": 81}, {"time": 1385, "pitch": 63, "duration": 5, "velocity": 82}, {"time": 1391, "pitch": 42, "duration": 8, "velocity": 80}, {"time": 1397, "pitch": 54, "duration": 3, "velocity": 78}, {"time": 1397, "pitch": 59, "duration": 3, "velocity": 80}, {"time": 1397, "pitch": 63, "duration": 3, "velocity": 81}, {"time": 1403, "pitch": 47, "duration": 11, "velocity": 74}, {"time": 1409, "pitch": 54, "duration": 7, "velocity": 80}, {"time": 1409, "pitch": 59, "duration": 8, "velocity": 81}, {"time": 1409, "pitch": 63, "duration": 7, "velocity": 82}, {"time": 1415, "pitch": 42, "duration": 8, "velocity": 80}, {"time": 1421, "pitch": 54, "duration": 3, "velocity": 79}, {"time": 1421, "pitch": 59, "duration": 4, "velocity": 80}, {"time": 1421, "pitch": 63, "duration": 4, "velocity": 81}, {"time": 1427, "pitch": 44, "duration": 9, "velocity": 76}, {"time": 1433, "pitch": 56, "duration": 10, "velocity": 79}, {"time": 1433, "pitch": 59, "duration": 10, "velocity": 81}, {"time": 1433, "pitch": 63, "duration": 10, "velocity": 82}, {"time": 1439, "pitch": 51, "duration": 10, "velocity": 79}, {"time": 1445, "pitch": 56, "duration": 4, "velocity": 80}, {"time": 1445, "pitch": 59, "duration": 4, "velocity": 81}, {"time": 1445, "pitch": 63, "duration": 4, "velocity": 83}, {"time": 1451, "pitch": 42, "duration": 12, "velocity": 66}, {"time": 1457, "pitch": 54, "duration": 9, "velocity": 80}, {"time": 1457, "pitch": 58, "duration": 8, "velocity": 80}, {"time": 1457, "pitch": 61, "duration": 9, "velocity": 80}, {"time": 1463, "pitch": 42, "duration": 1, "velocity": 79}, {"time": 1469, "pitch": 44, "duration": 6, "velocity": 81}, {"time": 1469, "pitch": 54, "duration": 4, "velocity": 80}, {"time": 1469, "pitch": 58, "duration": 3, "velocity": 83}, {"time": 1469, "pitch": 61, "duration": 4, "velocity": 81}, {"time": 1475, "pitch": 47, "duration": 11, "velocity": 81}, {"time": 1481, "pitch": 54, "duration": 9, "velocity": 81}, {"time": 1481, "pitch": 59, "duration": 9, "velocity": 82}, {"time": 1481, "pitch": 63, "duration": 9, "velocity": 83}, {"time": 1487, "pitch": 47, "duration": 6, "velocity": 81}, {"time": 1493, "pitch": 42, "duration": 6, "velocity": 81}, {"time": 1493, "pitch": 54, "duration": 4, "velocity": 79}, {"time": 1493, "pitch": 59, "duration": 4, "velocity": 81}, {"time": 1493, "pitch": 63, "duration": 4, "velocity": 82}, {"time": 1499, "pitch": 39, "duration": 9, "velocity": 80}, {"time": 1505, "pitch": 58, "duration": 9, "velocity": 77}, {"time": 1505, "pitch": 63, "duration": 10, "velocity": 80}, {"time": 1505, "pitch": 66, "duration": 10, "velocity": 78}, {"time": 1511, "pitch": 46, "duration": 8, "velocity": 80}, {"time": 1517, "pitch": 58, "duration": 4, "velocity": 82}, {"time": 1517, "pitch": 63, "duration": 4, "velocity": 83}, {"time": 1517, "pitch": 66, "duration": 3, "velocity": 80}, {"time": 1523, "pitch": 44, "duration": 9, "velocity": 77}, {"time": 1529, "pitch": 56, "duration": 9, "velocity": 75}, {"time": 1529, "pitch": 59, "duration": 9, "velocity": 75}, {"time": 1529, "pitch": 63, "duration": 9, "velocity": 81}, {"time": 1535, "pitch": 39, "duration": 6, "velocity": 76}, {"time": 1541, "pitch": 42, "duration": 6, "velocity": 81}, {"time": 1541, "pitch": 56, "duration": 4, "velocity": 81}, {"time": 1541, "pitch": 59, "duration": 4, "velocity": 81}, {"time": 1541, "pitch": 63, "duration": 4, "velocity": 84}, {"time": 1553, "pitch": 42, "duration": 5, "velocity": 89}, {"time": 1553, "pitch": 54, "duration": 3, "velocity": 78}, {"time": 1553, "pitch": 58, "duration": 4, "velocity": 79}, {"time": 1559, "pitch": 44, "duration": 8, "velocity": 85}, {"time": 1559, "pitch": 56, "duration": 9, "velocity": 73}, {"time": 1559, "pitch": 59, "duration": 10, "velocity": 81}, {"time": 1569, "pitch": 49, "duration": 25, "velocity": 71}, {"time": 1570, "pitch": 42, "duration": 24, "velocity": 73}, {"time": 1571, "pitch": 54, "duration": 23, "velocity": 78}, {"time": 1571, "pitch": 58, "duration": 20, "velocity": 75}, {"time": 1595, "pitch": 42, "duration": 22, "velocity": 74}, {"time": 1595, "pitch": 58, "duration": 11, "velocity": 76}, {"time": 1595, "pitch": 61, "duration": 11, "velocity": 76}, {"time": 1607, "pitch": 58, "duration": 9, "velocity": 77}, {"time": 1607, "pitch": 61, "duration": 10, "velocity": 73}, {"time": 1607, "pitch": 66, "duration": 9, "velocity": 72}, {"time": 1619, "pitch": 47, "duration": 9, "velocity": 80}, {"time": 1625, "pitch": 59, "duration": 6, "velocity": 76}, {"time": 1625, "pitch": 63, "duration": 6, "velocity": 80}, {"time": 1625, "pitch": 66, "duration": 6, "velocity": 74}, {"time": 1631, "pitch": 42, "duration": 5, "velocity": 82}, {"time": 1637, "pitch": 44, "duration": 4, "velocity": 85}, {"time": 1637, "pitch": 59, "duration": 4, "velocity": 74}, {"time": 1637, "pitch": 63, "duration": 3, "velocity": 78}, {"time": 1637, "pitch": 66, "duration": 3, "velocity": 74}, {"time": 1643, "pitch": 47, "duration": 11, "velocity": 74}, {"time": 1649, "pitch": 59, "duration": 9, "velocity": 75}, {"time": 1649, "pitch": 63, "duration": 8, "velocity": 77}, {"time": 1649, "pitch": 66, "duration": 8, "velocity": 73}, {"time": 1655, "pitch": 42, "duration": 5, "velocity": 80}, {"time": 1661, "pitch": 44, "duration": 4, "velocity": 81}, {"time": 1661, "pitch": 59, "duration": 3, "velocity": 75}, {"time": 1661, "pitch": 63, "duration": 3, "velocity": 78}, {"time": 1661, "pitch": 66, "duration": 3, "velocity": 73}, {"time": 1667, "pitch": 35, "duration": 10, "velocity": 84}, {"time": 1667, "pitch": 54, "duration": 5, "velocity": 76}, {"time": 1667, "pitch": 59, "duration": 5, "velocity": 75}, {"time": 1673, "pitch": 59, "duration": 6, "velocity": 81}, {"time": 1673, "pitch": 63, "duration": 6, "velocity": 82}, {"time": 1679, "pitch": 42, "duration": 5, "velocity": 81}, {"time": 1685, "pitch": 44, "duration": 6, "velocity": 82}, {"time": 1685, "pitch": 59, "duration": 4, "velocity": 80}, {"time": 1685, "pitch": 63, "duration": 4, "velocity": 82}, {"time": 1691, "pitch": 47, "duration": 8, "velocity": 87}, {"time": 1691, "pitch": 54, "duration": 5, "velocity": 74}, {"time": 1691, "pitch": 59, "duration": 5, "velocity": 76}, {"time": 1697, "pitch": 59, "duration": 9, "velocity": 80}, {"time": 1697, "pitch": 63, "duration": 9, "velocity": 81}, {"time": 1703, "pitch": 42, "duration": 5, "velocity": 82}, {"time": 1709, "pitch": 47, "duration": 6, "velocity": 83}, {"time": 1709, "pitch": 59, "duration": 4, "velocity": 80}, {"time": 1709, "pitch": 63, "duration": 4, "velocity": 82}, {"time": 1715, "pitch": 44, "duration": 9, "velocity": 81}, {"time": 1715, "pitch": 56, "duration": 5, "velocity": 72}, {"time": 1715, "pitch": 59, "duration": 5, "velocity": 75}, {"time": 1721, "pitch": 59, "duration": 5, "velocity": 79}, {"time": 1721, "pitch": 63, "duration": 5, "velocity": 81}, {"time": 1727, "pitch": 39, "duration": 4, "velocity": 80}, {"time": 1733, "pitch": 42, "duration": 5, "velocity": 81}, {"time": 1733, "pitch": 59, "duration": 4, "velocity": 75}, {"time": 1733, "pitch": 63, "duration": 4, "velocity": 81}, {"time": 1736, "pitch": 59, "duration": 1, "velocity": 75}, {"time": 1739, "pitch": 44, "duration": 8, "velocity": 81}, {"time": 1739, "pitch": 56, "duration": 5, "velocity": 69}, {"time": 1745, "pitch": 56, "duration": 9, "velocity": 76}, {"time": 1745, "pitch": 59, "duration": 10, "velocity": 77}, {"time": 1745, "pitch": 63, "duration": 9, "velocity": 81}, {"time": 1751, "pitch": 39, "duration": 5, "velocity": 84}, {"time": 1757, "pitch": 42, "duration": 6, "velocity": 81}, {"time": 1757, "pitch": 56, "duration": 4, "velocity": 74}, {"time": 1757, "pitch": 59, "duration": 4, "velocity": 75}, {"time": 1757, "pitch": 63, "duration": 4, "velocity": 80}, {"time": 1763, "pitch": 35, "duration": 10, "velocity": 84}, {"time": 1763, "pitch": 54, "duration": 5, "velocity": 77}, {"time": 1763, "pitch": 59, "duration": 5, "velocity": 74}, {"time": 1769, "pitch": 54, "duration": 6, "velocity": 67}, {"time": 1769, "pitch": 59, "duration": 7, "velocity": 81}, {"time": 1769, "pitch": 63, "duration": 7, "velocity": 80}, {"time": 1775, "pitch": 42, "duration": 5, "velocity": 81}, {"time": 1781, "pitch": 44, "duration": 6, "velocity": 82}, {"time": 1781, "pitch": 54, "duration": 4, "velocity": 77}, {"time": 1781, "pitch": 59, "duration": 3, "velocity": 80}, {"time": 1781, "pitch": 63, "duration": 3, "velocity": 80}, {"time": 1787, "pitch": 47, "duration": 8, "velocity": 87}, {"time": 1787, "pitch": 54, "duration": 4, "velocity": 73}, {"time": 1787, "pitch": 59, "duration": 4, "velocity": 75}, {"time": 1793, "pitch": 59, "duration": 8, "velocity": 80}, {"time": 1793, "pitch": 63, "duration": 8, "velocity": 81}, {"time": 1799, "pitch": 42, "duration": 5, "velocity": 82}, {"time": 1805, "pitch": 47, "duration": 6, "velocity": 83}, {"time": 1805, "pitch": 59, "duration": 3, "velocity": 78}, {"time": 1805, "pitch": 63, "duration": 3, "velocity": 81}, {"time": 1811, "pitch": 42, "duration": 11, "velocity": 84}, {"time": 1811, "pitch": 61, "duration": 5, "velocity": 75}, {"time": 1811, "pitch": 66, "duration": 6, "velocity": 78}, {"time": 1817, "pitch": 61, "duration": 4, "velocity": 80}, {"time": 1817, "pitch": 66, "duration": 3, "velocity": 71}, {"time": 1823, "pitch": 37, "duration": 5, "velocity": 96}, {"time": 1829, "pitch": 39, "duration": 4, "velocity": 86}, {"time": 1829, "pitch": 58, "duration": 3, "velocity": 72}, {"time": 1829, "pitch": 61, "duration": 4, "velocity": 77}, {"time": 1829, "pitch": 66, "duration": 4, "velocity": 75}, {"time": 1835, "pitch": 42, "duration": 12, "velocity": 82}, {"time": 1835, "pitch": 58, "duration": 5, "velocity": 70}, {"time": 1835, "pitch": 61, "duration": 5, "velocity": 73}, {"time": 1841, "pitch": 58, "duration": 8, "velocity": 76}, {"time": 1841, "pitch": 61, "duration": 8, "velocity": 80}, {"time": 1841, "pitch": 66, "duration": 8, "velocity": 73}, {"time": 1847, "pitch": 39, "duration": 5, "velocity": 91}, {"time": 1853, "pitch": 42, "duration": 5, "velocity": 84}, {"time": 1853, "pitch": 58, "duration": 4, "velocity": 77}, {"time": 1853, "pitch": 61, "duration": 4, "velocity": 81}, {"time": 1853, "pitch": 66, "duration": 4, "velocity": 77}, {"time": 1859, "pitch": 35, "duration": 9, "velocity": 79}, {"time": 1865, "pitch": 59, "duration": 9, "velocity": 82}, {"time": 1865, "pitch": 63, "duration": 8, "velocity": 91}, {"time": 1865, "pitch": 66, "duration": 8, "velocity": 83}, {"time": 1871, "pitch": 42, "duration": 4, "velocity": 80}, {"time": 1877, "pitch": 44, "duration": 4, "velocity": 80}, {"time": 1877, "pitch": 59, "duration": 3, "velocity": 81}, {"time": 1877, "pitch": 63, "duration": 3, "velocity": 85}, {"time": 1877, "pitch": 66, "duration": 3, "velocity": 80}, {"time": 1883, "pitch": 37, "duration": 12, "velocity": 84}, {"time": 1883, "pitch": 61, "duration": 4, "velocity": 80}, {"time": 1883, "pitch": 64, "duration": 4, "velocity": 84}, {"time": 1883, "pitch": 68, "duration": 4, "velocity": 74}, {"time": 1889, "pitch": 61, "duration": 9, "velocity": 81}, {"time": 1889, "pitch": 64, "duration": 9, "velocity": 81}, {"time": 1889, "pitch": 68, "duration": 9, "velocity": 81}, {"time": 1895, "pitch": 44, "duration": 4, "velocity": 82}, {"time": 1901, "pitch": 47, "duration": 4, "velocity": 82}, {"time": 1901, "pitch": 61, "duration": 3, "velocity": 82}, {"time": 1901, "pitch": 64, "duration": 2, "velocity": 82}, {"time": 1901, "pitch": 68, "duration": 3, "velocity": 81}, {"time": 1907, "pitch": 42, "duration": 9, "velocity": 82}, {"time": 1907, "pitch": 54, "duration": 3, "velocity": 82}, {"time": 1907, "pitch": 58, "duration": 3, "velocity": 81}, {"time": 1907, "pitch": 61, "duration": 3, "velocity": 81}, {"time": 1913, "pitch": 54, "duration": 9, "velocity": 78}, {"time": 1913, "pitch": 58, "duration": 9, "velocity": 77}, {"time": 1913, "pitch": 61, "duration": 9, "velocity": 78}, {"time": 1919, "pitch": 37, "duration": 4, "velocity": 84}, {"time": 1925, "pitch": 42, "duration": 3, "velocity": 84}, {"time": 1925, "pitch": 54, "duration": 3, "velocity": 74}, {"time": 1925, "pitch": 58, "duration": 3, "velocity": 76}, {"time": 1925, "pitch": 61, "duration": 3, "velocity": 74}, {"time": 1931, "pitch": 35, "duration": 10, "velocity": 76}, {"time": 1931, "pitch": 59, "duration": 4, "velocity": 73}, {"time": 1931, "pitch": 63, "duration": 4, "velocity": 80}, {"time": 1937, "pitch": 59, "duration": 10, "velocity": 80}, {"time": 1937, "pitch": 63, "duration": 10, "velocity": 84}, {"time": 1943, "pitch": 42, "duration": 4, "velocity": 81}, {"time": 1949, "pitch": 44, "duration": 4, "velocity": 80}, {"time": 1949, "pitch": 54, "duration": 5, "velocity": 81}, {"time": 1955, "pitch": 47, "duration": 10, "velocity": 84}, {"time": 1961, "pitch": 54, "duration": 7, "velocity": 79}, {"time": 1961, "pitch": 59, "duration": 7, "velocity": 81}, {"time": 1961, "pitch": 63, "duration": 7, "velocity": 81}, {"time": 1967, "pitch": 42, "duration": 6, "velocity": 74}, {"time": 1973, "pitch": 44, "duration": 6, "velocity": 74}, {"time": 1973, "pitch": 54, "duration": 3, "velocity": 78}, {"time": 1973, "pitch": 59, "duration": 3, "velocity": 80}, {"time": 1973, "pitch": 63, "duration": 3, "velocity": 81}, {"time": 1979, "pitch": 47, "duration": 9, "velocity": 69}, {"time": 1985, "pitch": 54, "duration": 3, "velocity": 78}, {"time": 1985, "pitch": 59, "duration": 3, "velocity": 80}, {"time": 1985, "pitch": 63, "duration": 3, "velocity": 82}, {"time": 1991, "pitch": 42, "duration": 6, "velocity": 73}, {"time": 1997, "pitch": 47, "duration": 6, "velocity": 81}, {"time": 1997, "pitch": 54, "duration": 4, "velocity": 80}, {"time": 1997, "pitch": 59, "duration": 4, "velocity": 80}, {"time": 1997, "pitch": 63, "duration": 6, "velocity": 83}, {"time": 2003, "pitch": 40, "duration": 10, "velocity": 73}, {"time": 2009, "pitch": 52, "duration": 9, "velocity": 76}, {"time": 2009, "pitch": 56, "duration": 10, "velocity": 72}, {"time": 2009, "pitch": 59, "duration": 10, "velocity": 78}, {"time": 2015, "pitch": 44, "duration": 6, "velocity": 78}, {"time": 2021, "pitch": 47, "duration": 6, "velocity": 81}, {"time": 2021, "pitch": 52, "duration": 3, "velocity": 81}, {"time": 2021, "pitch": 56, "duration": 4, "velocity": 80}, {"time": 2021, "pitch": 59, "duration": 4, "velocity": 82}, {"time": 2027, "pitch": 42, "duration": 9, "velocity": 77}, {"time": 2033, "pitch": 54, "duration": 9, "velocity": 79}, {"time": 2033, "pitch": 58, "duration": 9, "velocity": 74}, {"time": 2033, "pitch": 61, "duration": 9, "velocity": 80}, {"time": 2039, "pitch": 49, "duration": 6, "velocity": 76}, {"time": 2045, "pitch": 42, "duration": 6, "velocity": 81}, {"time": 2045, "pitch": 54, "duration": 4, "velocity": 80}, {"time": 2045, "pitch": 58, "duration": 4, "velocity": 81}, {"time": 2045, "pitch": 61, "duration": 5, "velocity": 82}, {"time": 2051, "pitch": 47, "duration": 8, "velocity": 60}, {"time": 2057, "pitch": 54, "duration": 4, "velocity": 80}, {"time": 2057, "pitch": 59, "duration": 4, "velocity": 81}, {"time": 2057, "pitch": 63, "duration": 5, "velocity": 82}, {"time": 2063, "pitch": 42, "duration": 8, "velocity": 80}, {"time": 2069, "pitch": 54, "duration": 3, "velocity": 78}, {"time": 2069, "pitch": 59, "duration": 3, "velocity": 80}, {"time": 2069, "pitch": 63, "duration": 3, "velocity": 81}, {"time": 2075, "pitch": 47, "duration": 11, "velocity": 74}, {"time": 2081, "pitch": 54, "duration": 7, "velocity": 80}, {"time": 2081, "pitch": 59, "duration": 8, "velocity": 81}, {"time": 2081, "pitch": 63, "duration": 7, "velocity": 82}, {"time": 2087, "pitch": 42, "duration": 8, "velocity": 80}, {"time": 2093, "pitch": 54, "duration": 3, "velocity": 79}, {"time": 2093, "pitch": 59, "duration": 4, "velocity": 80}, {"time": 2093, "pitch": 63, "duration": 4, "velocity": 81}, {"time": 2099, "pitch": 44, "duration": 9, "velocity": 76}, {"time": 2105, "pitch": 56, "duration": 10, "velocity": 79}, {"time": 2105, "pitch": 59, "duration": 10, "velocity": 81}, {"time": 2105, "pitch": 63, "duration": 10, "velocity": 82}, {"time": 2111, "pitch": 51, "duration": 10, "velocity": 79}, {"time": 2117, "pitch": 56, "duration": 4, "velocity": 80}, {"time": 2117, "pitch": 59, "duration": 4, "velocity": 81}, {"time": 2117, "pitch": 63, "duration": 4, "velocity": 83}, {"time": 2123, "pitch": 42, "duration": 12, "velocity": 66}, {"time": 2129, "pitch": 54, "duration": 9, "velocity": 80}, {"time": 2129, "pitch": 58, "duration": 8, "velocity": 80}, {"time": 2129, "pitch": 61, "duration": 9, "velocity": 80}, {"time": 2135, "pitch": 42, "duration": 1, "velocity": 79}, {"time": 2141, "pitch": 44, "duration": 6, "velocity": 81}, {"time": 2141, "pitch": 54, "duration": 4, "velocity": 80}, {"time": 2141, "pitch": 58, "duration": 3, "velocity": 83}, {"time": 2141, "pitch": 61, "duration": 4, "velocity": 81}, {"time": 2147, "pitch": 47, "duration": 11, "velocity": 81}, {"time": 2153, "pitch": 54, "duration": 9, "velocity": 81}, {"time": 2153, "pitch": 59, "duration": 9, "velocity": 82}, {"time": 2153, "pitch": 63, "duration": 9, "velocity": 83}, {"time": 2159, "pitch": 47, "duration": 6, "velocity": 81}, {"time": 2165, "pitch": 42, "duration": 6, "velocity": 81}, {"time": 2165, "pitch": 54, "duration": 4, "velocity": 79}, {"time": 2165, "pitch": 59, "duration": 4, "velocity": 81}, {"time": 2165, "pitch": 63, "duration": 4, "velocity": 82}, {"time": 2171, "pitch": 39, "duration": 9, "velocity": 80}, {"time": 2177, "pitch": 58, "duration": 9, "velocity": 77}, {"time": 2177, "pitch": 63, "duration": 10, "velocity": 80}, {"time": 2177, "pitch": 66, "duration": 10, "velocity": 78}, {"time": 2183, "pitch": 46, "duration": 8, "velocity": 80}, {"time": 2189, "pitch": 58, "duration": 4, "velocity": 82}, {"time": 2189, "pitch": 63, "duration": 4, "velocity": 83}, {"time": 2189, "pitch": 66, "duration": 3, "velocity": 80}, {"time": 2195, "pitch": 44, "duration": 9, "velocity": 77}, {"time": 2201, "pitch": 56, "duration": 9, "velocity": 75}, {"time": 2201, "pitch": 59, "duration": 9, "velocity": 75}, {"time": 2201, "pitch": 63, "duration": 9, "velocity": 81}, {"time": 2207, "pitch": 39, "duration": 6, "velocity": 76}, {"time": 2213, "pitch": 42, "duration": 6, "velocity": 81}, {"time": 2213, "pitch": 56, "duration": 4, "velocity": 81}, {"time": 2213, "pitch": 59, "duration": 4, "velocity": 81}, {"time": 2213, "pitch": 63, "duration": 4, "velocity": 84}, {"time": 2219, "pitch": 44, "duration": 9, "velocity": 79}, {"time": 2225, "pitch": 56, "duration": 8, "velocity": 79}, {"time": 2225, "pitch": 59, "duration": 9, "velocity": 81}, {"time": 2225, "pitch": 63, "duration": 8, "velocity": 82}, {"time": 2231, "pitch": 51, "duration": 8, "velocity": 76}, {"time": 2237, "pitch": 56, "duration": 4, "velocity": 80}, {"time": 2237, "pitch": 59, "duration": 4, "velocity": 82}, {"time": 2237, "pitch": 63, "duration": 4, "velocity": 85}, {"time": 2243, "pitch": 49, "duration": 9, "velocity": 77}, {"time": 2249, "pitch": 56, "duration": 7, "velocity": 80}, {"time": 2249, "pitch": 61, "duration": 7, "velocity": 80}, {"time": 2249, "pitch": 64, "duration": 7, "velocity": 80}, {"time": 2255, "pitch": 44, "duration": 6, "velocity": 80}, {"time": 2261, "pitch": 47, "duration": 6, "velocity": 81}, {"time": 2261, "pitch": 56, "duration": 3, "velocity": 75}, {"time": 2261, "pitch": 61, "duration": 3, "velocity": 80}, {"time": 2261, "pitch": 64, "duration": 4, "velocity": 80}, {"time": 2267, "pitch": 49, "duration": 12, "velocity": 74}, {"time": 2273, "pitch": 56, "duration": 9, "velocity": 78}, {"time": 2273, "pitch": 61, "duration": 9, "velocity": 80}, {"time": 2273, "pitch": 64, "duration": 8, "velocity": 81}, {"time": 2279, "pitch": 44, "duration": 6, "velocity": 76}, {"time": 2285, "pitch": 42, "duration": 6, "velocity": 81}, {"time": 2285, "pitch": 56, "duration": 4, "velocity": 80}, {"time": 2285, "pitch": 61, "duration": 4, "velocity": 80}, {"time": 2285, "pitch": 64, "duration": 5, "velocity": 80}, {"time": 2291, "pitch": 47, "duration": 11, "velocity": 78}, {"time": 2297, "pitch": 54, "duration": 8, "velocity": 79}, {"time": 2297, "pitch": 59, "duration": 8, "velocity": 80}, {"time": 2297, "pitch": 63, "duration": 8, "velocity": 81}, {"time": 2303, "pitch": 42, "duration": 6, "velocity": 79}, {"time": 2309, "pitch": 44, "duration": 6, "velocity": 81}, {"time": 2309, "pitch": 54, "duration": 5, "velocity": 81}, {"time": 2309, "pitch": 59, "duration": 5, "velocity": 82}, {"time": 2309, "pitch": 63, "duration": 4, "velocity": 81}, {"time": 2315, "pitch": 47, "duration": 10, "velocity": 75}, {"time": 2321, "pitch": 54, "duration": 7, "velocity": 78}, {"time": 2321, "pitch": 59, "duration": 7, "velocity": 79}, {"time": 2321, "pitch": 63, "duration": 7, "velocity": 81}, {"time": 2327, "pitch": 42, "duration": 6, "velocity": 75}, {"time": 2333, "pitch": 44, "duration": 6, "velocity": 81}, {"time": 2333, "pitch": 54, "duration": 5, "velocity": 78}, {"time": 2333, "pitch": 59, "duration": 5, "velocity": 81}, {"time": 2333, "pitch": 63, "duration": 4, "velocity": 82}, {"time": 2339, "pitch": 47, "duration": 8, "velocity": 80}, {"time": 2345, "pitch": 54, "duration": 4, "velocity": 77}, {"time": 2345, "pitch": 59, "duration": 4, "velocity": 80}, {"time": 2345, "pitch": 63, "duration": 4, "velocity": 84}, {"time": 2351, "pitch": 42, "duration": 6, "velocity": 76}, {"time": 2357, "pitch": 44, "duration": 6, "velocity": 81}, {"time": 2357, "pitch": 54, "duration": 4, "velocity": 80}, {"time": 2357, "pitch": 59, "duration": 4, "velocity": 80}, {"time": 2357, "pitch": 63, "duration": 4, "velocity": 82}, {"time": 2363, "pitch": 47, "duration": 8, "velocity": 76}, {"time": 2369, "pitch": 54, "duration": 4, "velocity": 76}, {"time": 2369, "pitch": 59, "duration": 4, "velocity": 79}, {"time": 2369, "pitch": 63, "duration": 4, "velocity": 82}, {"time": 2375, "pitch": 42, "duration": 8, "velocity": 77}, {"time": 2381, "pitch": 54, "duration": 5, "velocity": 76}, {"time": 2381, "pitch": 59, "duration": 5, "velocity": 75}, {"time": 2381, "pitch": 63, "duration": 5, "velocity": 81}, {"time": 2387, "pitch": 47, "duration": 10, "velocity": 72}, {"time": 2393, "pitch": 54, "duration": 7, "velocity": 75}, {"time": 2393, "pitch": 59, "duration": 7, "velocity": 76}, {"time": 2393, "pitch": 63, "duration": 7, "velocity": 76}, {"time": 2399, "pitch": 42, "duration": 6, "velocity": 77}, {"time": 2405, "pitch": 44, "duration": 6, "velocity": 81}, {"time": 2405, "pitch": 54, "duration": 4, "velocity": 72}, {"time": 2405, "pitch": 59, "duration": 4, "velocity": 74}, {"time": 2405, "pitch": 63, "duration": 4, "velocity": 75}, {"time": 2411, "pitch": 47, "duration": 10, "velocity": 73}, {"time": 2417, "pitch": 54, "duration": 9, "velocity": 81}, {"time": 2417, "pitch": 59, "duration": 9, "velocity": 81}, {"time": 2417, "pitch": 63, "duration": 9, "velocity": 82}, {"time": 2423, "pitch": 42, "duration": 12, "velocity": 81}, {"time": 2429, "pitch": 54, "duration": 5, "velocity": 81}, {"time": 2429, "pitch": 59, "duration": 5, "velocity": 83}, {"time": 2429, "pitch": 63, "duration": 5, "velocity": 83}, {"time": 2435, "pitch": 47, "duration": 8, "velocity": 72}, {"time": 2441, "pitch": 54, "duration": 8, "velocity": 80}, {"time": 2441, "pitch": 59, "duration": 8, "velocity": 80}, {"time": 2441, "pitch": 63, "duration": 8, "velocity": 83}, {"time": 2447, "pitch": 42, "duration": 6, "velocity": 81}, {"time": 2453, "pitch": 47, "duration": 6, "velocity": 81}, {"time": 2453, "pitch": 54, "duration": 4, "velocity": 81}, {"time": 2453, "pitch": 59, "duration": 5, "velocity": 82}, {"time": 2453, "pitch": 63, "duration": 6, "velocity": 83}, {"time": 2459, "pitch": 44, "duration": 8, "velocity": 81}, {"time": 2465, "pitch": 56, "duration": 10, "velocity": 78}, {"time": 2465, "pitch": 59, "duration": 10, "velocity": 83}, {"time": 2465, "pitch": 63, "duration": 10, "velocity": 85}, {"time": 2471, "pitch": 39, "duration": 11, "velocity": 78}, {"time": 2477, "pitch": 56, "duration": 5, "velocity": 80}, {"time": 2477, "pitch": 59, "duration": 4, "velocity": 83}, {"time": 2477, "pitch": 63, "duration": 5, "velocity": 84}, {"time": 2483, "pitch": 42, "duration": 9, "velocity": 73}, {"time": 2489, "pitch": 54, "duration": 9, "velocity": 77}, {"time": 2489, "pitch": 58, "duration": 9, "velocity": 81}, {"time": 2489, "pitch": 63, "duration": 9, "velocity": 80}, {"time": 2489, "pitch": 64, "duration": 3, "velocity": 73}, {"time": 2495, "pitch": 37, "duration": 6, "velocity": 75}, {"time": 2501, "pitch": 39, "duration": 6, "velocity": 81}, {"time": 2501, "pitch": 54, "duration": 4, "velocity": 81}, {"time": 2501, "pitch": 58, "duration": 4, "velocity": 85}, {"time": 2501, "pitch": 63, "duration": 4, "velocity": 86}, {"time": 2507, "pitch": 42, "duration": 7, "velocity": 78}, {"time": 2513, "pitch": 54, "duration": 9, "velocity": 77}, {"time": 2513, "pitch": 58, "duration": 9, "velocity": 78}, {"time": 2513, "pitch": 61, "duration": 9, "velocity": 78}, {"time": 2519, "pitch": 37, "duration": 6, "velocity": 78}, {"time": 2525, "pitch": 42, "duration": 6, "velocity": 81}, {"time": 2525, "pitch": 54, "duration": 4, "velocity": 81}, {"time": 2525, "pitch": 58, "duration": 4, "velocity": 84}, {"time": 2525, "pitch": 61, "duration": 4, "velocity": 81}, {"time": 2531, "pitch": 37, "duration": 6, "velocity": 81}, {"time": 2531, "pitch": 49, "duration": 4, "velocity": 74}, {"time": 2531, "pitch": 52, "duration": 6, "velocity": 76}, {"time": 2537, "pitch": 56, "duration": 9, "velocity": 73}, {"time": 2537, "pitch": 61, "duration": 9, "velocity": 76}, {"time": 2537, "pitch": 64, "duration": 9, "velocity": 72}, {"time": 2543, "pitch": 44, "duration": 7, "velocity": 77}, {"time": 2549, "pitch": 47, "duration": 6, "velocity": 81}, {"time": 2549, "pitch": 56, "duration": 5, "velocity": 81}, {"time": 2549, "pitch": 61, "duration": 5, "velocity": 83}, {"time": 2549, "pitch": 64, "duration": 5, "velocity": 82}, {"time": 2555, "pitch": 49, "duration": 7, "velocity": 69}, {"time": 2561, "pitch": 56, "duration": 8, "velocity": 80}, {"time": 2561, "pitch": 61, "duration": 8, "velocity": 80}, {"time": 2561, "pitch": 64, "duration": 7, "velocity": 80}, {"time": 2567, "pitch": 44, "duration": 12, "velocity": 65}, {"time": 2573, "pitch": 56, "duration": 5, "velocity": 77}, {"time": 2573, "pitch": 61, "duration": 5, "velocity": 77}, {"time": 2573, "pitch": 64, "duration": 5, "velocity": 81}, {"time": 2579, "pitch": 40, "duration": 8, "velocity": 78}, {"time": 2585, "pitch": 52, "duration": 8, "velocity": 76}, {"time": 2585, "pitch": 56, "duration": 9, "velocity": 74}, {"time": 2585, "pitch": 59, "duration": 8, "velocity": 80}, {"time": 2591, "pitch": 35, "duration": 6, "velocity": 80}, {"time": 2597, "pitch": 37, "duration": 6, "velocity": 81}, {"time": 2597, "pitch": 52, "duration": 4, "velocity": 81}, {"time": 2597, "pitch": 56, "duration": 4, "velocity": 80}, {"time": 2597, "pitch": 59, "duration": 5, "velocity": 80}, {"time": 2603, "pitch": 42, "duration": 8, "velocity": 81}, {"time": 2609, "pitch": 54, "duration": 9, "velocity": 80}, {"time": 2609, "pitch": 58, "duration": 10, "velocity": 80}, {"time": 2609, "pitch": 61, "duration": 9, "velocity": 81}, {"time": 2615, "pitch": 37, "duration": 9, "velocity": 78}, {"time": 2621, "pitch": 54, "duration": 4, "velocity": 80}, {"time": 2621, "pitch": 58, "duration": 5, "velocity": 81}, {"time": 2621, "pitch": 61, "duration": 5, "velocity": 81}, {"time": 2627, "pitch": 47, "duration": 12, "velocity": 76}, {"time": 2633, "pitch": 54, "duration": 10, "velocity": 80}, {"time": 2633, "pitch": 59, "duration": 10, "velocity": 82}, {"time": 2633, "pitch": 63, "duration": 10, "velocity": 83}, {"time": 2639, "pitch": 42, "duration": 6, "velocity": 77}, {"time": 2645, "pitch": 47, "duration": 6, "velocity": 81}, {"time": 2645, "pitch": 54, "duration": 4, "velocity": 82}, {"time": 2645, "pitch": 59, "duration": 5, "velocity": 84}, {"time": 2645, "pitch": 63, "duration": 5, "velocity": 85}, {"time": 2651, "pitch": 44, "duration": 12, "velocity": 81}, {"time": 2657, "pitch": 56, "duration": 4, "velocity": 74}, {"time": 2657, "pitch": 59, "duration": 6, "velocity": 80}, {"time": 2657, "pitch": 63, "duration": 5, "velocity": 85}, {"time": 2663, "pitch": 39, "duration": 6, "velocity": 81}, {"time": 2663, "pitch": 51, "duration": 6, "velocity": 81}, {"time": 2669, "pitch": 44, "duration": 6, "velocity": 81}, {"time": 2669, "pitch": 56, "duration": 5, "velocity": 80}, {"time": 2669, "pitch": 59, "duration": 5, "velocity": 85}, {"time": 2669, "pitch": 63, "duration": 5, "velocity": 85}, {"time": 2675, "pitch": 42, "duration": 12, "velocity": 81}, {"time": 2681, "pitch": 54, "duration": 8, "velocity": 81}, {"time": 2681, "pitch": 58, "duration": 7, "velocity": 81}, {"time": 2681, "pitch": 61, "duration": 7, "velocity": 81}, {"time": 2687, "pitch": 37, "duration": 6, "velocity": 81}, {"time": 2687, "pitch": 49, "duration": 5, "velocity": 75}, {"time": 2693, "pitch": 39, "duration": 6, "velocity": 81}, {"time": 2693, "pitch": 54, "duration": 3, "velocity": 80}, {"time": 2693, "pitch": 58, "duration": 3, "velocity": 81}, {"time": 2693, "pitch": 61, "duration": 3, "velocity": 80}, {"time": 2699, "pitch": 42, "duration": 6, "velocity": 81}, {"time": 2699, "pitch": 54, "duration": 3, "velocity": 82}, {"time": 2699, "pitch": 58, "duration": 3, "velocity": 86}, {"time": 2699, "pitch": 61, "duration": 4, "velocity": 85}, {"time": 2705, "pitch": 42, "duration": 6, "velocity": 81}, {"time": 2705, "pitch": 54, "duration": 10, "velocity": 82}, {"time": 2705, "pitch": 58, "duration": 9, "velocity": 84}, {"time": 2705, "pitch": 61, "duration": 10, "velocity": 83}, {"time": 2717, "pitch": 37, "duration": 6, "velocity": 81}, {"time": 2717, "pitch": 54, "duration": 5, "velocity": 81}, {"time": 2717, "pitch": 58, "duration": 5, "velocity": 82}, {"time": 2717, "pitch": 61, "duration": 5, "velocity": 84}, {"time": 2723, "pitch": 47, "duration": 10, "velocity": 84}, {"time": 2729, "pitch": 54, "duration": 7, "velocity": 79}, {"time": 2729, "pitch": 59, "duration": 7, "velocity": 81}, {"time": 2729, "pitch": 63, "duration": 7, "velocity": 81}, {"time": 2735, "pitch": 42, "duration": 6, "velocity": 74}, {"time": 2741, "pitch": 44, "duration": 6, "velocity": 74}, {"time": 2741, "pitch": 54, "duration": 3, "velocity": 78}, {"time": 2741, "pitch": 59, "duration": 3, "velocity": 80}, {"time": 2741, "pitch": 63, "duration": 3, "velocity": 81}, {"time": 2747, "pitch": 47, "duration": 9, "velocity": 69}, {"time": 2753, "pitch": 54, "duration": 3, "velocity": 78}, {"time": 2753, "pitch": 59, "duration": 3, "velocity": 80}, {"time": 2753, "pitch": 63, "duration": 3, "velocity": 82}, {"time": 2759, "pitch": 42, "duration": 6, "velocity": 73}, {"time": 2765, "pitch": 47, "duration": 6, "velocity": 81}, {"time": 2765, "pitch": 54, "duration": 4, "velocity": 80}, {"time": 2765, "pitch": 59, "duration": 4, "velocity": 80}, {"time": 2765, "pitch": 63, "duration": 6, "velocity": 83}, {"time": 2771, "pitch": 40, "duration": 10, "velocity": 73}, {"time": 2777, "pitch": 52, "duration": 9, "velocity": 76}, {"time": 2777, "pitch": 56, "duration": 10, "velocity": 72}, {"time": 2777, "pitch": 59, "duration": 10, "velocity": 78}, {"time": 2783, "pitch": 44, "duration": 6, "velocity": 78}, {"time": 2789, "pitch": 47, "duration": 6, "velocity": 81}, {"time": 2789, "pitch": 52, "duration": 3, "velocity": 81}, {"time": 2789, "pitch": 56, "duration": 4, "velocity": 80}, {"time": 2789, "pitch": 59, "duration": 4, "velocity": 82}, {"time": 2795, "pitch": 42, "duration": 9, "velocity": 77}, {"time": 2801, "pitch": 54, "duration": 9, "velocity": 79}, {"time": 2801, "pitch": 58, "duration": 9, "velocity": 74}, {"time": 2801, "pitch": 61, "duration": 9, "velocity": 80}, {"time": 2807, "pitch": 49, "duration": 6, "velocity": 76}, {"time": 2813, "pitch": 42, "duration": 6, "velocity": 81}, {"time": 2813, "pitch": 54, "duration": 4, "velocity": 80}, {"time": 2813, "pitch": 58, "duration": 4, "velocity": 81}, {"time": 2813, "pitch": 61, "duration": 5, "velocity": 82}, {"time": 2819, "pitch": 47, "duration": 8, "velocity": 60}, {"time": 2825, "pitch": 54, "duration": 4, "velocity": 80}, {"time": 2825, "pitch": 59, "duration": 4, "velocity": 81}, {"time": 2825, "pitch": 63, "duration": 5, "velocity": 82}, {"time": 2831, "pitch": 42, "duration": 8, "velocity": 80}, {"time": 2837, "pitch": 54, "duration": 3, "velocity": 78}, {"time": 2837, "pitch": 59, "duration": 3, "velocity": 80}, {"time": 2837, "pitch": 63, "duration": 3, "velocity": 81}, {"time": 2843, "pitch": 47, "duration": 11, "velocity": 74}, {"time": 2849, "pitch": 54, "duration": 7, "velocity": 80}, {"time": 2849, "pitch": 59, "duration": 8, "velocity": 81}, {"time": 2849, "pitch": 63, "duration": 7, "velocity": 82}, {"time": 2855, "pitch": 42, "duration": 8, "velocity": 80}, {"time": 2861, "pitch": 54, "duration": 3, "velocity": 79}, {"time": 2861, "pitch": 59, "duration": 4, "velocity": 80}, {"time": 2861, "pitch": 63, "duration": 4, "velocity": 81}, {"time": 2867, "pitch": 44, "duration": 9, "velocity": 76}, {"time": 2873, "pitch": 56, "duration": 10, "velocity": 79}, {"time": 2873, "pitch": 59, "duration": 10, "velocity": 81}, {"time": 2873, "pitch": 63, "duration": 10, "velocity": 82}, {"time": 2879, "pitch": 51, "duration": 10, "velocity": 79}, {"time": 2885, "pitch": 56, "duration": 4, "velocity": 80}, {"time": 2885, "pitch": 59, "duration": 4, "velocity": 81}, {"time": 2885, "pitch": 63, "duration": 4, "velocity": 83}, {"time": 2891, "pitch": 42, "duration": 12, "velocity": 66}, {"time": 2897, "pitch": 54, "duration": 9, "velocity": 80}, {"time": 2897, "pitch": 58, "duration": 8, "velocity": 80}, {"time": 2897, "pitch": 61, "duration": 9, "velocity": 80}, {"time": 2903, "pitch": 42, "duration": 1, "velocity": 79}, {"time": 2909, "pitch": 44, "duration": 6, "velocity": 81}, {"time": 2909, "pitch": 54, "duration": 4, "velocity": 80}, {"time": 2909, "pitch": 58, "duration": 3, "velocity": 83}, {"time": 2909, "pitch": 61, "duration": 4, "velocity": 81}, {"time": 2915, "pitch": 47, "duration": 11, "velocity": 81}, {"time": 2921, "pitch": 54, "duration": 9, "velocity": 81}, {"time": 2921, "pitch": 59, "duration": 9, "velocity": 82}, {"time": 2921, "pitch": 63, "duration": 9, "velocity": 83}, {"time": 2927, "pitch": 47, "duration": 6, "velocity": 81}, {"time": 2933, "pitch": 42, "duration": 6, "velocity": 81}, {"time": 2933, "pitch": 54, "duration": 4, "velocity": 79}, {"time": 2933, "pitch": 59, "duration": 4, "velocity": 81}, {"time": 2933, "pitch": 63, "duration": 4, "velocity": 82}, {"time": 2939, "pitch": 39, "duration": 9, "velocity": 80}, {"time": 2945, "pitch": 58, "duration": 9, "velocity": 77}, {"time": 2945, "pitch": 63, "duration": 10, "velocity": 80}, {"time": 2945, "pitch": 66, "duration": 10, "velocity": 78}, {"time": 2951, "pitch": 46, "duration": 8, "velocity": 80}, {"time": 2957, "pitch": 58, "duration": 4, "velocity": 82}, {"time": 2957, "pitch": 63, "duration": 4, "velocity": 83}, {"time": 2957, "pitch": 66, "duration": 3, "velocity": 80}, {"time": 2963, "pitch": 44, "duration": 9, "velocity": 77}, {"time": 2969, "pitch": 56, "duration": 9, "velocity": 75}, {"time": 2969, "pitch": 59, "duration": 9, "velocity": 75}, {"time": 2969, "pitch": 63, "duration": 9, "velocity": 81}, {"time": 2975, "pitch": 39, "duration": 6, "velocity": 76}, {"time": 2981, "pitch": 42, "duration": 6, "velocity": 81}, {"time": 2981, "pitch": 56, "duration": 4, "velocity": 81}, {"time": 2981, "pitch": 59, "duration": 4, "velocity": 81}, {"time": 2981, "pitch": 63, "duration": 4, "velocity": 84}, {"time": 2993, "pitch": 42, "duration": 5, "velocity": 89}, {"time": 2993, "pitch": 54, "duration": 3, "velocity": 78}, {"time": 2993, "pitch": 58, "duration": 4, "velocity": 79}, {"time": 2999, "pitch": 44, "duration": 8, "velocity": 85}, {"time": 2999, "pitch": 56, "duration": 9, "velocity": 73}, {"time": 2999, "pitch": 59, "duration": 10, "velocity": 81}, {"time": 3009, "pitch": 49, "duration": 25, "velocity": 71}, {"time": 3010, "pitch": 42, "duration": 24, "velocity": 73}, {"time": 3011, "pitch": 54, "duration": 23, "velocity": 78}, {"time": 3011, "pitch": 58, "duration": 20, "velocity": 75}, {"time": 3035, "pitch": 42, "duration": 22, "velocity": 74}, {"time": 3035, "pitch": 58, "duration": 11, "velocity": 76}, {"time": 3035, "pitch": 61, "duration": 11, "velocity": 76}, {"time": 3047, "pitch": 58, "duration": 9, "velocity": 77}, {"time": 3047, "pitch": 61, "duration": 10, "velocity": 73}, {"time": 3047, "pitch": 66, "duration": 9, "velocity": 72}, {"time": 3059, "pitch": 47, "duration": 9, "velocity": 80}, {"time": 3065, "pitch": 59, "duration": 6, "velocity": 76}, {"time": 3065, "pitch": 63, "duration": 6, "velocity": 80}, {"time": 3065, "pitch": 66, "duration": 6, "velocity": 74}, {"time": 3071, "pitch": 42, "duration": 5, "velocity": 82}, {"time": 3077, "pitch": 44, "duration": 4, "velocity": 85}, {"time": 3077, "pitch": 59, "duration": 4, "velocity": 74}, {"time": 3077, "pitch": 63, "duration": 3, "velocity": 78}, {"time": 3077, "pitch": 66, "duration": 3, "velocity": 74}, {"time": 3083, "pitch": 47, "duration": 11, "velocity": 74}, {"time": 3089, "pitch": 59, "duration": 9, "velocity": 75}, {"time": 3089, "pitch": 63, "duration": 8, "velocity": 77}, {"time": 3089, "pitch": 66, "duration": 8, "velocity": 73}, {"time": 3095, "pitch": 42, "duration": 5, "velocity": 80}, {"time": 3101, "pitch": 44, "duration": 4, "velocity": 81}, {"time": 3101, "pitch": 59, "duration": 3, "velocity": 75}, {"time": 3101, "pitch": 63, "duration": 3, "velocity": 78}, {"time": 3101, "pitch": 66, "duration": 3, "velocity": 73}, {"time": 3107, "pitch": 47, "duration": 8, "velocity": 80}, {"time": 3113, "pitch": 54, "duration": 4, "velocity": 77}, {"time": 3113, "pitch": 59, "duration": 4, "velocity": 80}, {"time": 3113, "pitch": 63, "duration": 4, "velocity": 84}, {"time": 3119, "pitch": 42, "duration": 6, "velocity": 76}, {"time": 3125, "pitch": 44, "duration": 6, "velocity": 81}, {"time": 3125, "pitch": 54, "duration": 4, "velocity": 80}, {"time": 3125, "pitch": 59, "duration": 4, "velocity": 80}, {"time": 3125, "pitch": 63, "duration": 4, "velocity": 82}, {"time": 3131, "pitch": 47, "duration": 8, "velocity": 76}, {"time": 3137, "pitch": 54, "duration": 4, "velocity": 76}, {"time": 3137, "pitch": 59, "duration": 4, "velocity": 79}, {"time": 3137, "pitch": 63, "duration": 4, "velocity": 82}, {"time": 3143, "pitch": 42, "duration": 8, "velocity": 77}, {"time": 3149, "pitch": 54, "duration": 5, "velocity": 76}, {"time": 3149, "pitch": 59, "duration": 5, "velocity": 75}, {"time": 3149, "pitch": 63, "duration": 5, "velocity": 81}, {"time": 3155, "pitch": 47, "duration": 10, "velocity": 72}, {"time": 3161, "pitch": 54, "duration": 7, "velocity": 75}, {"time": 3161, "pitch": 59, "duration": 7, "velocity": 76}, {"time": 3161, "pitch": 63, "duration": 7, "velocity": 76}, {"time": 3167, "pitch": 42, "duration": 6, "velocity": 77}, {"time": 3173, "pitch": 44, "duration": 6, "velocity": 81}, {"time": 3173, "pitch": 54, "duration": 4, "velocity": 72}, {"time": 3173, "pitch": 59, "duration": 4, "velocity": 74}, {"time": 3173, "pitch": 63, "duration": 4, "velocity": 75}, {"time": 3179, "pitch": 47, "duration": 10, "velocity": 73}, {"time": 3185, "pitch": 54, "duration": 9, "velocity": 81}, {"time": 3185, "pitch": 59, "duration": 9, "velocity": 81}, {"time": 3185, "pitch": 63, "duration": 9, "velocity": 82}, {"time": 3191, "pitch": 42, "duration": 12, "velocity": 81}, {"time": 3197, "pitch": 54, "duration": 5, "velocity": 81}, {"time": 3197, "pitch": 59, "duration": 5, "velocity": 83}, {"time": 3197, "pitch": 63, "duration": 5, "velocity": 83}, {"time": 3203, "pitch": 47, "duration": 8, "velocity": 72}, {"time": 3209, "pitch": 54, "duration": 8, "velocity": 80}, {"time": 3209, "pitch": 59, "duration": 8, "velocity": 80}, {"time": 3209, "pitch": 63, "duration": 8, "velocity": 83}, {"time": 3215, "pitch": 42, "duration": 6, "velocity": 81}, {"time": 3221, "pitch": 47, "duration": 6, "velocity": 81}, {"time": 3221, "pitch": 54, "duration": 4, "velocity": 81}, {"time": 3221, "pitch": 59, "duration": 5, "velocity": 82}, {"time": 3221, "pitch": 63, "duration": 6, "velocity": 83}, {"time": 3227, "pitch": 44, "duration": 8, "velocity": 81}, {"time": 3233, "pitch": 56, "duration": 10, "velocity": 78}, {"time": 3233, "pitch": 59, "duration": 10, "velocity": 83}, {"time": 3233, "pitch": 63, "duration": 10, "velocity": 85}, {"time": 3239, "pitch": 39, "duration": 11, "velocity": 78}, {"time": 3245, "pitch": 56, "duration": 5, "velocity": 80}, {"time": 3245, "pitch": 59, "duration": 4, "velocity": 83}, {"time": 3245, "pitch": 63, "duration": 5, "velocity": 84}, {"time": 3251, "pitch": 42, "duration": 9, "velocity": 73}, {"time": 3257, "pitch": 54, "duration": 9, "velocity": 77}, {"time": 3257, "pitch": 58, "duration": 9, "velocity": 81}, {"time": 3257, "pitch": 63, "duration": 9, "velocity": 80}, {"time": 3257, "pitch": 64, "duration": 3, "velocity": 73}, {"time": 3263, "pitch": 37, "duration": 6, "velocity": 75}, {"time": 3269, "pitch": 39, "duration": 6, "velocity": 81}, {"time": 3269, "pitch": 54, "duration": 4, "velocity": 81}, {"time": 3269, "pitch": 58, "duration": 4, "velocity": 85}, {"time": 3269, "pitch": 63, "duration": 4, "velocity": 86}, {"time": 3275, "pitch": 42, "duration": 7, "velocity": 78}, {"time": 3281, "pitch": 54, "duration": 9, "velocity": 77}, {"time": 3281, "pitch": 58, "duration": 9, "velocity": 78}, {"time": 3281, "pitch": 61, "duration": 9, "velocity": 78}, {"time": 3287, "pitch": 37, "duration": 6, "velocity": 78}, {"time": 3293, "pitch": 42, "duration": 6, "velocity": 81}, {"time": 3293, "pitch": 54, "duration": 4, "velocity": 81}, {"time": 3293, "pitch": 58, "duration": 4, "velocity": 84}, {"time": 3293, "pitch": 61, "duration": 4, "velocity": 81}, {"time": 3299, "pitch": 37, "duration": 6, "velocity": 81}, {"time": 3299, "pitch": 49, "duration": 4, "velocity": 74}, {"time": 3299, "pitch": 52, "duration": 6, "velocity": 76}, {"time": 3305, "pitch": 56, "duration": 9, "velocity": 73}, {"time": 3305, "pitch": 61, "duration": 9, "velocity": 76}, {"time": 3305, "pitch": 64, "duration": 9, "velocity": 72}, {"time": 3311, "pitch": 44, "duration": 7, "velocity": 77}, {"time": 3317, "pitch": 47, "duration": 6, "velocity": 81}, {"time": 3317, "pitch": 56, "duration": 5, "velocity": 81}, {"time": 3317, "pitch": 61, "duration": 5, "velocity": 83}, {"time": 3317, "pitch": 64, "duration": 5, "velocity": 82}, {"time": 3323, "pitch": 49, "duration": 7, "velocity": 69}, {"time": 3329, "pitch": 56, "duration": 8, "velocity": 80}, {"time": 3329, "pitch": 61, "duration": 8, "velocity": 80}, {"time": 3329, "pitch": 64, "duration": 7, "velocity": 80}, {"time": 3335, "pitch": 44, "duration": 12, "velocity": 65}, {"time": 3341, "pitch": 56, "duration": 5, "velocity": 77}, {"time": 3341, "pitch": 61, "duration": 5, "velocity": 77}, {"time": 3341, "pitch": 64, "duration": 5, "velocity": 81}, {"time": 3347, "pitch": 40, "duration": 8, "velocity": 78}, {"time": 3353, "pitch": 52, "duration": 8, "velocity": 76}, {"time": 3353, "pitch": 56, "duration": 9, "velocity": 74}, {"time": 3353, "pitch": 59, "duration": 8, "velocity": 80}, {"time": 3359, "pitch": 35, "duration": 6, "velocity": 80}, {"time": 3365, "pitch": 37, "duration": 6, "velocity": 81}, {"time": 3365, "pitch": 52, "duration": 4, "velocity": 81}, {"time": 3365, "pitch": 56, "duration": 4, "velocity": 80}, {"time": 3365, "pitch": 59, "duration": 5, "velocity": 80}, {"time": 3371, "pitch": 42, "duration": 8, "velocity": 81}, {"time": 3377, "pitch": 54, "duration": 9, "velocity": 80}, {"time": 3377, "pitch": 58, "duration": 10, "velocity": 80}, {"time": 3377, "pitch": 61, "duration": 9, "velocity": 81}, {"time": 3383, "pitch": 37, "duration": 9, "velocity": 78}, {"time": 3389, "pitch": 54, "duration": 4, "velocity": 80}, {"time": 3389, "pitch": 58, "duration": 5, "velocity": 81}, {"time": 3389, "pitch": 61, "duration": 5, "velocity": 81}, {"time": 3395, "pitch": 47, "duration": 12, "velocity": 76}, {"time": 3401, "pitch": 54, "duration": 10, "velocity": 80}, {"time": 3401, "pitch": 59, "duration": 10, "velocity": 82}, {"time": 3401, "pitch": 63, "duration": 10, "velocity": 83}, {"time": 3407, "pitch": 42, "duration": 6, "velocity": 77}, {"time": 3413, "pitch": 47, "duration": 6, "velocity": 81}, {"time": 3413, "pitch": 54, "duration": 4, "velocity": 82}, {"time": 3413, "pitch": 59, "duration": 5, "velocity": 84}, {"time": 3413, "pitch": 63, "duration": 5, "velocity": 85}, {"time": 3419, "pitch": 44, "duration": 12, "velocity": 81}, {"time": 3425, "pitch": 56, "duration": 4, "velocity": 74}, {"time": 3425, "pitch": 59, "duration": 6, "velocity": 80}, {"time": 3425, "pitch": 63, "duration": 5, "velocity": 85}, {"time": 3431, "pitch": 39, "duration": 6, "velocity": 81}, {"time": 3431, "pitch": 51, "duration": 6, "velocity": 81}, {"time": 3437, "pitch": 44, "duration": 6, "velocity": 81}, {"time": 3437, "pitch": 56, "duration": 5, "velocity": 80}, {"time": 3437, "pitch": 59, "duration": 5, "velocity": 85}, {"time": 3437, "pitch": 63, "duration": 5, "velocity": 85}, {"time": 3443, "pitch": 42, "duration": 12, "velocity": 81}, {"time": 3449, "pitch": 54, "duration": 8, "velocity": 81}, {"time": 3449, "pitch": 58, "duration": 7, "velocity": 81}, {"time": 3449, "pitch": 61, "duration": 7, "velocity": 81}, {"time": 3455, "pitch": 37, "duration": 6, "velocity": 81}, {"time": 3455, "pitch": 49, "duration": 5, "velocity": 75}, {"time": 3461, "pitch": 39, "duration": 6, "velocity": 81}, {"time": 3461, "pitch": 54, "duration": 3, "velocity": 80}, {"time": 3461, "pitch": 58, "duration": 3, "velocity": 81}, {"time": 3461, "pitch": 61, "duration": 3, "velocity": 80}, {"time": 3467, "pitch": 42, "duration": 6, "velocity": 81}, {"time": 3467, "pitch": 54, "duration": 3, "velocity": 82}, {"time": 3467, "pitch": 58, "duration": 3, "velocity": 86}, {"time": 3467, "pitch": 61, "duration": 4, "velocity": 85}, {"time": 3473, "pitch": 42, "duration": 6, "velocity": 81}, {"time": 3473, "pitch": 54, "duration": 10, "velocity": 82}, {"time": 3473, "pitch": 58, "duration": 9, "velocity": 84}, {"time": 3473, "pitch": 61, "duration": 10, "velocity": 83}, {"time": 3485, "pitch": 37, "duration": 6, "velocity": 81}, {"time": 3485, "pitch": 54, "duration": 5, "velocity": 81}, {"time": 3485, "pitch": 58, "duration": 5, "velocity": 82}, {"time": 3485, "pitch": 61, "duration": 5, "velocity": 84}, {"time": 3491, "pitch": 47, "duration": 10, "velocity": 84}, {"time": 3497, "pitch": 54, "duration": 7, "velocity": 79}, {"time": 3497, "pitch": 59, "duration": 7, "velocity": 81}, {"time": 3497, "pitch": 63, "duration": 7, "velocity": 81}, {"time": 3503, "pitch": 42, "duration": 6, "velocity": 74}, {"time": 3509, "pitch": 44, "duration": 6, "velocity": 74}, {"time": 3509, "pitch": 54, "duration": 3, "velocity": 78}, {"time": 3509, "pitch": 59, "duration": 3, "velocity": 80}, {"time": 3509, "pitch": 63, "duration": 3, "velocity": 81}, {"time": 3515, "pitch": 47, "duration": 9, "velocity": 69}, {"time": 3521, "pitch": 54, "duration": 3, "velocity": 78}, {"time": 3521, "pitch": 59, "duration": 3, "velocity": 80}, {"time": 3521, "pitch": 63, "duration": 3, "velocity": 82}, {"time": 3527, "pitch": 42, "duration": 6, "velocity": 73}, {"time": 3533, "pitch": 47, "duration": 6, "velocity": 81}, {"time": 3533, "pitch": 54, "duration": 4, "velocity": 80}, {"time": 3533, "pitch": 59, "duration": 4, "velocity": 80}, {"time": 3533, "pitch": 63, "duration": 6, "velocity": 83}, {"time": 3539, "pitch": 40, "duration": 10, "velocity": 73}, {"time": 3545, "pitch": 52, "duration": 9, "velocity": 76}, {"time": 3545, "pitch": 56, "duration": 10, "velocity": 72}, {"time": 3545, "pitch": 59, "duration": 10, "velocity": 78}, {"time": 3551, "pitch": 44, "duration": 6, "velocity": 78}, {"time": 3557, "pitch": 47, "duration": 6, "velocity": 81}, {"time": 3557, "pitch": 52, "duration": 3, "velocity": 81}, {"time": 3557, "pitch": 56, "duration": 4, "velocity": 80}, {"time": 3557, "pitch": 59, "duration": 4, "velocity": 82}, {"time": 3563, "pitch": 42, "duration": 9, "velocity": 77}, {"time": 3569, "pitch": 54, "duration": 9, "velocity": 79}, {"time": 3569, "pitch": 58, "duration": 9, "velocity": 74}, {"time": 3569, "pitch": 61, "duration": 9, "velocity": 80}, {"time": 3575, "pitch": 49, "duration": 6, "velocity": 76}, {"time": 3581, "pitch": 42, "duration": 6, "velocity": 81}, {"time": 3581, "pitch": 54, "duration": 4, "velocity": 80}, {"time": 3581, "pitch": 58, "duration": 4, "velocity": 81}, {"time": 3581, "pitch": 61, "duration": 5, "velocity": 82}, {"time": 3587, "pitch": 47, "duration": 8, "velocity": 60}, {"time": 3593, "pitch": 54, "duration": 4, "velocity": 80}, {"time": 3593, "pitch": 59, "duration": 4, "velocity": 81}, {"time": 3593, "pitch": 63, "duration": 5, "velocity": 82}, {"time": 3599, "pitch": 42, "duration": 8, "velocity": 80}, {"time": 3605, "pitch": 54, "duration": 3, "velocity": 78}, {"time": 3605, "pitch": 59, "duration": 3, "velocity": 80}, {"time": 3605, "pitch": 63, "duration": 3, "velocity": 81}, {"time": 3611, "pitch": 47, "duration": 11, "velocity": 74}, {"time": 3617, "pitch": 54, "duration": 7, "velocity": 80}, {"time": 3617, "pitch": 59, "duration": 8, "velocity": 81}, {"time": 3617, "pitch": 63, "duration": 7, "velocity": 82}, {"time": 3623, "pitch": 42, "duration": 8, "velocity": 80}, {"time": 3629, "pitch": 54, "duration": 3, "velocity": 79}, {"time": 3629, "pitch": 59, "duration": 4, "velocity": 80}, {"time": 3629, "pitch": 63, "duration": 4, "velocity": 81}, {"time": 3635, "pitch": 44, "duration": 9, "velocity": 76}, {"time": 3641, "pitch": 56, "duration": 10, "velocity": 79}, {"time": 3641, "pitch": 59, "duration": 10, "velocity": 81}, {"time": 3641, "pitch": 63, "duration": 10, "velocity": 82}, {"time": 3647, "pitch": 51, "duration": 10, "velocity": 79}, {"time": 3653, "pitch": 56, "duration": 4, "velocity": 80}, {"time": 3653, "pitch": 59, "duration": 4, "velocity": 81}, {"time": 3653, "pitch": 63, "duration": 4, "velocity": 83}, {"time": 3659, "pitch": 42, "duration": 12, "velocity": 66}, {"time": 3665, "pitch": 54, "duration": 9, "velocity": 80}, {"time": 3665, "pitch": 58, "duration": 8, "velocity": 80}, {"time": 3665, "pitch": 61, "duration": 9, "velocity": 80}, {"time": 3671, "pitch": 42, "duration": 1, "velocity": 79}, {"time": 3677, "pitch": 44, "duration": 6, "velocity": 81}, {"time": 3677, "pitch": 54, "duration": 4, "velocity": 80}, {"time": 3677, "pitch": 58, "duration": 3, "velocity": 83}, {"time": 3677, "pitch": 61, "duration": 4, "velocity": 81}, {"time": 3683, "pitch": 47, "duration": 11, "velocity": 81}, {"time": 3689, "pitch": 54, "duration": 9, "velocity": 81}, {"time": 3689, "pitch": 59, "duration": 9, "velocity": 82}, {"time": 3689, "pitch": 63, "duration": 9, "velocity": 83}, {"time": 3695, "pitch": 47, "duration": 6, "velocity": 81}, {"time": 3701, "pitch": 42, "duration": 6, "velocity": 81}, {"time": 3701, "pitch": 54, "duration": 4, "velocity": 79}, {"time": 3701, "pitch": 59, "duration": 4, "velocity": 81}, {"time": 3701, "pitch": 63, "duration": 4, "velocity": 82}, {"time": 3707, "pitch": 39, "duration": 9, "velocity": 80}, {"time": 3713, "pitch": 58, "duration": 9, "velocity": 77}, {"time": 3713, "pitch": 63, "duration": 10, "velocity": 80}, {"time": 3713, "pitch": 66, "duration": 10, "velocity": 78}, {"time": 3719, "pitch": 46, "duration": 8, "velocity": 80}, {"time": 3725, "pitch": 58, "duration": 4, "velocity": 82}, {"time": 3725, "pitch": 63, "duration": 4, "velocity": 83}, {"time": 3725, "pitch": 66, "duration": 3, "velocity": 80}, {"time": 3731, "pitch": 44, "duration": 9, "velocity": 77}, {"time": 3737, "pitch": 56, "duration": 9, "velocity": 75}, {"time": 3737, "pitch": 59, "duration": 9, "velocity": 75}, {"time": 3737, "pitch": 63, "duration": 9, "velocity": 81}, {"time": 3743, "pitch": 39, "duration": 6, "velocity": 76}, {"time": 3749, "pitch": 42, "duration": 6, "velocity": 81}, {"time": 3749, "pitch": 56, "duration": 4, "velocity": 81}, {"time": 3749, "pitch": 59, "duration": 4, "velocity": 81}, {"time": 3749, "pitch": 63, "duration": 4, "velocity": 84}, {"time": 3761, "pitch": 42, "duration": 5, "velocity": 89}, {"time": 3761, "pitch": 54, "duration": 3, "velocity": 78}, {"time": 3761, "pitch": 58, "duration": 4, "velocity": 79}, {"time": 3767, "pitch": 44, "duration": 8, "velocity": 85}, {"time": 3767, "pitch": 56, "duration": 9, "velocity": 73}, {"time": 3767, "pitch": 59, "duration": 10, "velocity": 81}, {"time": 3777, "pitch": 49, "duration": 25, "velocity": 71}, {"time": 3778, "pitch": 42, "duration": 24, "velocity": 73}, {"time": 3779, "pitch": 54, "duration": 23, "velocity": 78}, {"time": 3779, "pitch": 58, "duration": 20, "velocity": 75}, {"time": 3803, "pitch": 42, "duration": 22, "velocity": 74}, {"time": 3803, "pitch": 58, "duration": 11, "velocity": 76}, {"time": 3803, "pitch": 61, "duration": 11, "velocity": 76}, {"time": 3815, "pitch": 58, "duration": 9, "velocity": 77}, {"time": 3815, "pitch": 61, "duration": 10, "velocity": 73}, {"time": 3815, "pitch": 66, "duration": 9, "velocity": 72}, {"time": 3827, "pitch": 47, "duration": 9, "velocity": 80}, {"time": 3833, "pitch": 59, "duration": 6, "velocity": 76}, {"time": 3833, "pitch": 63, "duration": 6, "velocity": 80}, {"time": 3833, "pitch": 66, "duration": 6, "velocity": 74}, {"time": 3839, "pitch": 42, "duration": 5, "velocity": 82}, {"time": 3845, "pitch": 44, "duration": 4, "velocity": 85}, {"time": 3845, "pitch": 59, "duration": 4, "velocity": 74}, {"time": 3845, "pitch": 63, "duration": 3, "velocity": 78}, {"time": 3845, "pitch": 66, "duration": 3, "velocity": 74}, {"time": 3851, "pitch": 47, "duration": 11, "velocity": 74}, {"time": 3857, "pitch": 59, "duration": 9, "velocity": 75}, {"time": 3857, "pitch": 63, "duration": 8, "velocity": 77}, {"time": 3857, "pitch": 66, "duration": 8, "velocity": 73}, {"time": 3863, "pitch": 42, "duration": 5, "velocity": 80}, {"time": 3869, "pitch": 44, "duration": 4, "velocity": 81}, {"time": 3869, "pitch": 59, "duration": 3, "velocity": 75}, {"time": 3869, "pitch": 63, "duration": 3, "velocity": 78}, {"time": 3869, "pitch": 66, "duration": 3, "velocity": 73}, {"time": 3875, "pitch": 47, "duration": 8, "velocity": 85}, {"time": 3881, "pitch": 54, "duration": 8, "velocity": 78}, {"time": 3881, "pitch": 59, "duration": 8, "velocity": 80}, {"time": 3881, "pitch": 63, "duration": 7, "velocity": 81}, {"time": 3887, "pitch": 42, "duration": 8, "velocity": 80}, {"time": 3893, "pitch": 54, "duration": 4, "velocity": 81}, {"time": 3893, "pitch": 59, "duration": 4, "velocity": 82}, {"time": 3893, "pitch": 63, "duration": 5, "velocity": 81}, {"time": 3899, "pitch": 44, "duration": 9, "velocity": 81}, {"time": 3905, "pitch": 56, "duration": 9, "velocity": 81}, {"time": 3905, "pitch": 59, "duration": 9, "velocity": 85}, {"time": 3905, "pitch": 63, "duration": 9, "velocity": 86}, {"time": 3911, "pitch": 51, "duration": 7, "velocity": 79}, {"time": 3917, "pitch": 56, "duration": 5, "velocity": 82}, {"time": 3917, "pitch": 59, "duration": 5, "velocity": 91}, {"time": 3917, "pitch": 63, "duration": 4, "velocity": 91}, {"time": 3923, "pitch": 37, "duration": 8, "velocity": 86}, {"time": 3929, "pitch": 49, "duration": 8, "velocity": 75}, {"time": 3929, "pitch": 52, "duration": 8, "velocity": 73}, {"time": 3929, "pitch": 56, "duration": 9, "velocity": 71}, {"time": 3935, "pitch": 44, "duration": 8, "velocity": 85}, {"time": 3941, "pitch": 49, "duration": 5, "velocity": 83}, {"time": 3941, "pitch": 52, "duration": 5, "velocity": 85}, {"time": 3941, "pitch": 56, "duration": 5, "velocity": 82}, {"time": 3947, "pitch": 42, "duration": 9, "velocity": 82}, {"time": 3953, "pitch": 54, "duration": 9, "velocity": 81}, {"time": 3953, "pitch": 58, "duration": 9, "velocity": 82}, {"time": 3953, "pitch": 61, "duration": 10, "velocity": 80}, {"time": 3959, "pitch": 49, "duration": 10, "velocity": 76}, {"time": 3965, "pitch": 54, "duration": 6, "velocity": 83}, {"time": 3965, "pitch": 58, "duration": 6, "velocity": 87}, {"time": 3965, "pitch": 61, "duration": 6, "velocity": 85}, {"time": 3977, "pitch": 40, "duration": 7, "velocity": 83}, {"time": 3977, "pitch": 59, "duration": 7, "velocity": 82}, {"time": 3977, "pitch": 64, "duration": 7, "velocity": 83}, {"time": 3977, "pitch": 68, "duration": 8, "velocity": 81}, {"time": 3986, "pitch": 40, "duration": 7, "velocity": 82}, {"time": 3986, "pitch": 59, "duration": 4, "velocity": 81}, {"time": 3986, "pitch": 64, "duration": 5, "velocity": 80}, {"time": 3986, "pitch": 68, "duration": 6, "velocity": 81}, {"time": 3995, "pitch": 35, "duration": 7, "velocity": 70}, {"time": 3995, "pitch": 47, "duration": 7, "velocity": 74}, {"time": 3995, "pitch": 63, "duration": 7, "velocity": 80}, {"time": 3995, "pitch": 66, "duration": 8, "velocity": 76}, {"time": 3995, "pitch": 71, "duration": 8, "velocity": 80}]}]}