{"metadata": {"schema_version": "0.2", "title": "None", "source_filename": "708.mid", "source_format": "midi"}, "resolution": 12, "tempos": [{"time": 0, "qpm": 98.00030380094178}, {"time": 589, "qpm": 98.20015482891078}, {"time": 700, "qpm": 98.30006422270863}, {"time": 1330, "qpm": 98.00030380094178}, {"time": 1476, "qpm": 97.700138734197}, {"time": 1545, "qpm": 98.10012753016579}, {"time": 3259, "qpm": 98.30006422270863}], "time_signatures": [{"time": 0, "numerator": 1, "denominator": 4}], "tracks": [{"program": 4, "is_drum": false, "name": "MELODY", "notes": [{"time": 702, "pitch": 78, "duration": 14, "velocity": 85}, {"time": 720, "pitch": 76, "duration": 5, "velocity": 84}, {"time": 726, "pitch": 73, "duration": 18, "velocity": 90}, {"time": 744, "pitch": 71, "duration": 6, "velocity": 75}, {"time": 750, "pitch": 69, "duration": 5, "velocity": 80}, {"time": 756, "pitch": 71, "duration": 4, "velocity": 81}, {"time": 762, "pitch": 71, "duration": 5, "velocity": 79}, {"time": 768, "pitch": 73, "duration": 6, "velocity": 81}, {"time": 774, "pitch": 66, "duration": 18, "velocity": 80}, {"time": 798, "pitch": 64, "duration": 10, "velocity": 83}, {"time": 810, "pitch": 64, "duration": 3, "velocity": 82}, {"time": 816, "pitch": 66, "duration": 4, "velocity": 77}, {"time": 822, "pitch": 69, "duration": 8, "velocity": 83}, {"time": 834, "pitch": 69, "duration": 4, "velocity": 83}, {"time": 840, "pitch": 71, "duration": 3, "velocity": 84}, {"time": 846, "pitch": 73, "duration": 3, "velocity": 86}, {"time": 852, "pitch": 76, "duration": 6, "velocity": 72}, {"time": 858, "pitch": 71, "duration": 9, "velocity": 81}, {"time": 870, "pitch": 73, "duration": 19, "velocity": 85}, {"time": 894, "pitch": 78, "duration": 16, "velocity": 81}, {"time": 912, "pitch": 76, "duration": 4, "velocity": 80}, {"time": 918, "pitch": 73, "duration": 14, "velocity": 90}, {"time": 936, "pitch": 71, "duration": 5, "velocity": 81}, {"time": 942, "pitch": 69, "duration": 6, "velocity": 82}, {"time": 948, "pitch": 71, "duration": 3, "velocity": 80}, {"time": 954, "pitch": 71, "duration": 4, "velocity": 80}, {"time": 960, "pitch": 73, "duration": 4, "velocity": 80}, {"time": 966, "pitch": 66, "duration": 14, "velocity": 80}, {"time": 990, "pitch": 71, "duration": 11, "velocity": 81}, {"time": 1002, "pitch": 71, "duration": 4, "velocity": 81}, {"time": 1008, "pitch": 73, "duration": 4, "velocity": 86}, {"time": 1014, "pitch": 76, "duration": 8, "velocity": 81}, {"time": 1026, "pitch": 76, "duration": 3, "velocity": 76}, {"time": 1032, "pitch": 73, "duration": 4, "velocity": 82}, {"time": 1038, "pitch": 71, "duration": 3, "velocity": 78}, {"time": 1044, "pitch": 69, "duration": 5, "velocity": 78}, {"time": 1050, "pitch": 66, "duration": 3, "velocity": 81}, {"time": 1056, "pitch": 64, "duration": 4, "velocity": 81}, {"time": 1062, "pitch": 66, "duration": 21, "velocity": 81}, {"time": 1104, "pitch": 76, "duration": 5, "velocity": 84}, {"time": 1110, "pitch": 73, "duration": 18, "velocity": 90}, {"time": 1128, "pitch": 71, "duration": 6, "velocity": 75}, {"time": 1134, "pitch": 69, "duration": 5, "velocity": 80}, {"time": 1140, "pitch": 71, "duration": 4, "velocity": 81}, {"time": 1146, "pitch": 71, "duration": 5, "velocity": 79}, {"time": 1152, "pitch": 73, "duration": 6, "velocity": 81}, {"time": 1158, "pitch": 66, "duration": 18, "velocity": 80}, {"time": 1182, "pitch": 64, "duration": 10, "velocity": 83}, {"time": 1194, "pitch": 64, "duration": 3, "velocity": 82}, {"time": 1200, "pitch": 66, "duration": 4, "velocity": 77}, {"time": 1206, "pitch": 69, "duration": 8, "velocity": 83}, {"time": 1218, "pitch": 69, "duration": 4, "velocity": 83}, {"time": 1224, "pitch": 71, "duration": 3, "velocity": 84}, {"time": 1230, "pitch": 73, "duration": 3, "velocity": 86}, {"time": 1236, "pitch": 76, "duration": 6, "velocity": 72}, {"time": 1242, "pitch": 71, "duration": 9, "velocity": 81}, {"time": 1254, "pitch": 73, "duration": 19, "velocity": 85}, {"time": 1278, "pitch": 78, "duration": 16, "velocity": 81}, {"time": 1296, "pitch": 76, "duration": 4, "velocity": 80}, {"time": 1302, "pitch": 73, "duration": 14, "velocity": 90}, {"time": 1320, "pitch": 71, "duration": 5, "velocity": 81}, {"time": 1326, "pitch": 69, "duration": 6, "velocity": 82}, {"time": 1332, "pitch": 71, "duration": 3, "velocity": 80}, {"time": 1338, "pitch": 71, "duration": 4, "velocity": 80}, {"time": 1344, "pitch": 73, "duration": 4, "velocity": 80}, {"time": 1350, "pitch": 66, "duration": 14, "velocity": 80}, {"time": 1374, "pitch": 71, "duration": 11, "velocity": 81}, {"time": 1386, "pitch": 71, "duration": 4, "velocity": 81}, {"time": 1392, "pitch": 73, "duration": 4, "velocity": 86}, {"time": 1398, "pitch": 76, "duration": 8, "velocity": 81}, {"time": 1410, "pitch": 76, "duration": 3, "velocity": 76}, {"time": 1416, "pitch": 73, "duration": 4, "velocity": 82}, {"time": 1422, "pitch": 71, "duration": 3, "velocity": 78}, {"time": 1428, "pitch": 69, "duration": 5, "velocity": 78}, {"time": 1434, "pitch": 66, "duration": 3, "velocity": 81}, {"time": 1440, "pitch": 64, "duration": 4, "velocity": 81}, {"time": 1446, "pitch": 66, "duration": 21, "velocity": 81}, {"time": 1518, "pitch": 78, "duration": 10, "velocity": 90}, {"time": 1530, "pitch": 81, "duration": 9, "velocity": 86}, {"time": 1542, "pitch": 78, "duration": 11, "velocity": 83}, {"time": 1554, "pitch": 73, "duration": 4, "velocity": 90}, {"time": 1560, "pitch": 76, "duration": 5, "velocity": 81}, {"time": 1566, "pitch": 78, "duration": 5, "velocity": 80}, {"time": 1572, "pitch": 81, "duration": 6, "velocity": 83}, {"time": 1578, "pitch": 78, "duration": 5, "velocity": 86}, {"time": 1584, "pitch": 76, "duration": 6, "velocity": 82}, {"time": 1590, "pitch": 73, "duration": 20, "velocity": 95}, {"time": 1614, "pitch": 71, "duration": 9, "velocity": 86}, {"time": 1626, "pitch": 71, "duration": 4, "velocity": 86}, {"time": 1632, "pitch": 73, "duration": 4, "velocity": 90}, {"time": 1638, "pitch": 76, "duration": 8, "velocity": 81}, {"time": 1650, "pitch": 76, "duration": 3, "velocity": 79}, {"time": 1656, "pitch": 78, "duration": 4, "velocity": 82}, {"time": 1662, "pitch": 73, "duration": 10, "velocity": 93}, {"time": 1674, "pitch": 73, "duration": 4, "velocity": 84}, {"time": 1680, "pitch": 71, "duration": 4, "velocity": 80}, {"time": 1686, "pitch": 73, "duration": 21, "velocity": 84}, {"time": 1710, "pitch": 78, "duration": 12, "velocity": 85}, {"time": 1722, "pitch": 81, "duration": 7, "velocity": 83}, {"time": 1734, "pitch": 78, "duration": 11, "velocity": 81}, {"time": 1746, "pitch": 73, "duration": 5, "velocity": 85}, {"time": 1752, "pitch": 76, "duration": 6, "velocity": 79}, {"time": 1758, "pitch": 78, "duration": 5, "velocity": 79}, {"time": 1764, "pitch": 81, "duration": 4, "velocity": 79}, {"time": 1770, "pitch": 78, "duration": 5, "velocity": 85}, {"time": 1776, "pitch": 76, "duration": 5, "velocity": 81}, {"time": 1782, "pitch": 73, "duration": 18, "velocity": 86}, {"time": 1806, "pitch": 71, "duration": 3, "velocity": 81}, {"time": 1812, "pitch": 71, "duration": 3, "velocity": 81}, {"time": 1818, "pitch": 71, "duration": 3, "velocity": 82}, {"time": 1824, "pitch": 73, "duration": 4, "velocity": 90}, {"time": 1830, "pitch": 76, "duration": 3, "velocity": 79}, {"time": 1836, "pitch": 76, "duration": 3, "velocity": 79}, {"time": 1842, "pitch": 76, "duration": 3, "velocity": 82}, {"time": 1848, "pitch": 78, "duration": 4, "velocity": 83}, {"time": 1854, "pitch": 80, "duration": 49, "velocity": 80}, {"time": 1926, "pitch": 76, "duration": 25, "velocity": 80}, {"time": 1950, "pitch": 78, "duration": 46, "velocity": 90}, {"time": 2334, "pitch": 78, "duration": 14, "velocity": 85}, {"time": 2352, "pitch": 76, "duration": 5, "velocity": 84}, {"time": 2358, "pitch": 73, "duration": 18, "velocity": 90}, {"time": 2376, "pitch": 71, "duration": 6, "velocity": 75}, {"time": 2382, "pitch": 69, "duration": 5, "velocity": 80}, {"time": 2388, "pitch": 71, "duration": 4, "velocity": 81}, {"time": 2394, "pitch": 71, "duration": 5, "velocity": 79}, {"time": 2400, "pitch": 73, "duration": 6, "velocity": 81}, {"time": 2406, "pitch": 66, "duration": 18, "velocity": 80}, {"time": 2430, "pitch": 64, "duration": 10, "velocity": 83}, {"time": 2442, "pitch": 64, "duration": 3, "velocity": 82}, {"time": 2448, "pitch": 66, "duration": 4, "velocity": 77}, {"time": 2454, "pitch": 69, "duration": 8, "velocity": 83}, {"time": 2466, "pitch": 69, "duration": 4, "velocity": 83}, {"time": 2472, "pitch": 71, "duration": 3, "velocity": 84}, {"time": 2478, "pitch": 73, "duration": 3, "velocity": 86}, {"time": 2484, "pitch": 76, "duration": 6, "velocity": 72}, {"time": 2490, "pitch": 71, "duration": 9, "velocity": 81}, {"time": 2502, "pitch": 73, "duration": 19, "velocity": 85}, {"time": 2526, "pitch": 78, "duration": 16, "velocity": 81}, {"time": 2544, "pitch": 76, "duration": 4, "velocity": 80}, {"time": 2550, "pitch": 73, "duration": 14, "velocity": 90}, {"time": 2568, "pitch": 71, "duration": 5, "velocity": 81}, {"time": 2574, "pitch": 69, "duration": 6, "velocity": 82}, {"time": 2580, "pitch": 71, "duration": 3, "velocity": 80}, {"time": 2586, "pitch": 71, "duration": 4, "velocity": 80}, {"time": 2592, "pitch": 73, "duration": 4, "velocity": 80}, {"time": 2598, "pitch": 66, "duration": 14, "velocity": 80}, {"time": 2622, "pitch": 71, "duration": 11, "velocity": 81}, {"time": 2634, "pitch": 71, "duration": 4, "velocity": 81}, {"time": 2640, "pitch": 73, "duration": 4, "velocity": 86}, {"time": 2646, "pitch": 76, "duration": 8, "velocity": 81}, {"time": 2658, "pitch": 76, "duration": 3, "velocity": 76}, {"time": 2664, "pitch": 73, "duration": 4, "velocity": 82}, {"time": 2670, "pitch": 71, "duration": 3, "velocity": 78}, {"time": 2676, "pitch": 69, "duration": 5, "velocity": 78}, {"time": 2682, "pitch": 66, "duration": 3, "velocity": 81}, {"time": 2688, "pitch": 64, "duration": 4, "velocity": 81}, {"time": 2694, "pitch": 66, "duration": 21, "velocity": 81}, {"time": 2736, "pitch": 76, "duration": 5, "velocity": 84}, {"time": 2742, "pitch": 73, "duration": 18, "velocity": 90}, {"time": 2760, "pitch": 71, "duration": 6, "velocity": 75}, {"time": 2766, "pitch": 69, "duration": 5, "velocity": 80}, {"time": 2772, "pitch": 71, "duration": 4, "velocity": 81}, {"time": 2778, "pitch": 71, "duration": 5, "velocity": 79}, {"time": 2784, "pitch": 73, "duration": 6, "velocity": 81}, {"time": 2790, "pitch": 66, "duration": 18, "velocity": 80}, {"time": 2814, "pitch": 64, "duration": 10, "velocity": 83}, {"time": 2826, "pitch": 64, "duration": 3, "velocity": 82}, {"time": 2832, "pitch": 66, "duration": 4, "velocity": 77}, {"time": 2838, "pitch": 69, "duration": 8, "velocity": 83}, {"time": 2850, "pitch": 69, "duration": 4, "velocity": 83}, {"time": 2856, "pitch": 71, "duration": 3, "velocity": 84}, {"time": 2862, "pitch": 73, "duration": 3, "velocity": 86}, {"time": 2868, "pitch": 76, "duration": 6, "velocity": 72}, {"time": 2874, "pitch": 71, "duration": 9, "velocity": 81}, {"time": 2886, "pitch": 73, "duration": 19, "velocity": 85}, {"time": 2910, "pitch": 78, "duration": 16, "velocity": 81}, {"time": 2928, "pitch": 76, "duration": 4, "velocity": 80}, {"time": 2934, "pitch": 73, "duration": 14, "velocity": 90}, {"time": 2952, "pitch": 71, "duration": 5, "velocity": 81}, {"time": 2958, "pitch": 69, "duration": 6, "velocity": 82}, {"time": 2964, "pitch": 71, "duration": 3, "velocity": 80}, {"time": 2970, "pitch": 71, "duration": 4, "velocity": 80}, {"time": 2976, "pitch": 73, "duration": 4, "velocity": 80}, {"time": 2982, "pitch": 66, "duration": 14, "velocity": 80}, {"time": 3006, "pitch": 71, "duration": 11, "velocity": 81}, {"time": 3018, "pitch": 71, "duration": 4, "velocity": 81}, {"time": 3024, "pitch": 73, "duration": 4, "velocity": 86}, {"time": 3030, "pitch": 76, "duration": 8, "velocity": 81}, {"time": 3042, "pitch": 76, "duration": 3, "velocity": 76}, {"time": 3048, "pitch": 73, "duration": 4, "velocity": 82}, {"time": 3054, "pitch": 71, "duration": 3, "velocity": 78}, {"time": 3060, "pitch": 69, "duration": 5, "velocity": 78}, {"time": 3066, "pitch": 66, "duration": 3, "velocity": 81}, {"time": 3072, "pitch": 64, "duration": 4, "velocity": 81}, {"time": 3078, "pitch": 66, "duration": 21, "velocity": 81}, {"time": 3150, "pitch": 78, "duration": 10, "velocity": 90}, {"time": 3162, "pitch": 81, "duration": 9, "velocity": 86}, {"time": 3174, "pitch": 78, "duration": 11, "velocity": 83}, {"time": 3186, "pitch": 73, "duration": 4, "velocity": 90}, {"time": 3192, "pitch": 76, "duration": 5, "velocity": 81}, {"time": 3198, "pitch": 78, "duration": 5, "velocity": 80}, {"time": 3204, "pitch": 81, "duration": 6, "velocity": 83}, {"time": 3210, "pitch": 78, "duration": 5, "velocity": 86}, {"time": 3216, "pitch": 76, "duration": 6, "velocity": 82}, {"time": 3222, "pitch": 73, "duration": 20, "velocity": 95}, {"time": 3246, "pitch": 71, "duration": 9, "velocity": 86}, {"time": 3258, "pitch": 71, "duration": 4, "velocity": 86}, {"time": 3264, "pitch": 73, "duration": 4, "velocity": 90}, {"time": 3270, "pitch": 76, "duration": 8, "velocity": 81}, {"time": 3282, "pitch": 76, "duration": 3, "velocity": 79}, {"time": 3288, "pitch": 78, "duration": 4, "velocity": 82}, {"time": 3294, "pitch": 73, "duration": 10, "velocity": 93}, {"time": 3306, "pitch": 73, "duration": 4, "velocity": 84}, {"time": 3312, "pitch": 71, "duration": 4, "velocity": 80}, {"time": 3318, "pitch": 73, "duration": 21, "velocity": 84}, {"time": 3342, "pitch": 78, "duration": 12, "velocity": 85}, {"time": 3354, "pitch": 81, "duration": 7, "velocity": 83}, {"time": 3366, "pitch": 78, "duration": 11, "velocity": 81}, {"time": 3378, "pitch": 73, "duration": 5, "velocity": 85}, {"time": 3384, "pitch": 76, "duration": 6, "velocity": 79}, {"time": 3390, "pitch": 78, "duration": 5, "velocity": 79}, {"time": 3396, "pitch": 81, "duration": 4, "velocity": 79}, {"time": 3402, "pitch": 78, "duration": 5, "velocity": 85}, {"time": 3408, "pitch": 76, "duration": 5, "velocity": 81}, {"time": 3414, "pitch": 73, "duration": 18, "velocity": 86}, {"time": 3438, "pitch": 71, "duration": 3, "velocity": 81}, {"time": 3444, "pitch": 71, "duration": 3, "velocity": 81}, {"time": 3450, "pitch": 71, "duration": 3, "velocity": 82}, {"time": 3456, "pitch": 73, "duration": 4, "velocity": 90}, {"time": 3462, "pitch": 76, "duration": 3, "velocity": 79}, {"time": 3468, "pitch": 76, "duration": 3, "velocity": 79}, {"time": 3474, "pitch": 76, "duration": 3, "velocity": 82}, {"time": 3480, "pitch": 78, "duration": 4, "velocity": 83}, {"time": 3486, "pitch": 80, "duration": 49, "velocity": 80}, {"time": 3558, "pitch": 76, "duration": 25, "velocity": 80}, {"time": 3582, "pitch": 78, "duration": 39, "velocity": 90}, {"time": 3630, "pitch": 78, "duration": 10, "velocity": 90}, {"time": 3642, "pitch": 81, "duration": 9, "velocity": 86}, {"time": 3654, "pitch": 78, "duration": 11, "velocity": 83}, {"time": 3666, "pitch": 73, "duration": 4, "velocity": 90}, {"time": 3672, "pitch": 76, "duration": 5, "velocity": 81}, {"time": 3678, "pitch": 78, "duration": 5, "velocity": 80}, {"time": 3684, "pitch": 81, "duration": 6, "velocity": 83}, {"time": 3690, "pitch": 78, "duration": 5, "velocity": 86}, {"time": 3696, "pitch": 76, "duration": 6, "velocity": 82}, {"time": 3702, "pitch": 73, "duration": 20, "velocity": 95}, {"time": 3726, "pitch": 71, "duration": 9, "velocity": 86}, {"time": 3738, "pitch": 71, "duration": 4, "velocity": 86}, {"time": 3744, "pitch": 73, "duration": 4, "velocity": 90}, {"time": 3750, "pitch": 76, "duration": 8, "velocity": 81}, {"time": 3762, "pitch": 76, "duration": 3, "velocity": 79}, {"time": 3768, "pitch": 78, "duration": 4, "velocity": 82}, {"time": 3774, "pitch": 73, "duration": 10, "velocity": 93}, {"time": 3786, "pitch": 73, "duration": 4, "velocity": 84}, {"time": 3792, "pitch": 71, "duration": 4, "velocity": 80}, {"time": 3798, "pitch": 73, "duration": 21, "velocity": 84}, {"time": 3822, "pitch": 78, "duration": 12, "velocity": 85}, {"time": 3834, "pitch": 81, "duration": 7, "velocity": 83}, {"time": 3846, "pitch": 78, "duration": 11, "velocity": 81}, {"time": 3858, "pitch": 73, "duration": 5, "velocity": 85}, {"time": 3864, "pitch": 76, "duration": 6, "velocity": 79}, {"time": 3870, "pitch": 78, "duration": 5, "velocity": 79}, {"time": 3876, "pitch": 81, "duration": 4, "velocity": 79}, {"time": 3882, "pitch": 78, "duration": 5, "velocity": 85}, {"time": 3888, "pitch": 76, "duration": 5, "velocity": 81}, {"time": 3894, "pitch": 73, "duration": 18, "velocity": 86}, {"time": 3918, "pitch": 71, "duration": 3, "velocity": 81}, {"time": 3924, "pitch": 71, "duration": 3, "velocity": 81}, {"time": 3930, "pitch": 71, "duration": 3, "velocity": 82}, {"time": 3936, "pitch": 73, "duration": 4, "velocity": 90}, {"time": 3942, "pitch": 76, "duration": 3, "velocity": 79}, {"time": 3948, "pitch": 76, "duration": 3, "velocity": 79}, {"time": 3954, "pitch": 76, "duration": 3, "velocity": 82}, {"time": 3960, "pitch": 78, "duration": 4, "velocity": 83}, {"time": 3966, "pitch": 80, "duration": 49, "velocity": 80}, {"time": 4038, "pitch": 76, "duration": 25, "velocity": 80}, {"time": 4062, "pitch": 78, "duration": 46, "velocity": 90}]}, {"program": 0, "is_drum": false, "name": "PIANO", "notes": [{"time": 37, "pitch": 42, "duration": 7, "velocity": 83}, {"time": 37, "pitch": 66, "duration": 6, "velocity": 78}, {"time": 37, "pitch": 57, "duration": 7, "velocity": 71}, {"time": 37, "pitch": 54, "duration": 7, "velocity": 79}, {"time": 45, "pitch": 42, "duration": 131, "velocity": 80}, {"time": 46, "pitch": 66, "duration": 46, "velocity": 79}, {"time": 46, "pitch": 57, "duration": 45, "velocity": 70}, {"time": 46, "pitch": 54, "duration": 34, "velocity": 77}, {"time": 76, "pitch": 49, "duration": 100, "velocity": 60}, {"time": 85, "pitch": 54, "duration": 2, "velocity": 42}, {"time": 94, "pitch": 54, "duration": 4, "velocity": 68}, {"time": 94, "pitch": 61, "duration": 4, "velocity": 66}, {"time": 94, "pitch": 57, "duration": 4, "velocity": 63}, {"time": 101, "pitch": 57, "duration": 3, "velocity": 63}, {"time": 101, "pitch": 61, "duration": 4, "velocity": 72}, {"time": 102, "pitch": 54, "duration": 2, "velocity": 65}, {"time": 108, "pitch": 57, "duration": 4, "velocity": 63}, {"time": 108, "pitch": 54, "duration": 4, "velocity": 60}, {"time": 108, "pitch": 66, "duration": 4, "velocity": 50}, {"time": 108, "pitch": 61, "duration": 4, "velocity": 64}, {"time": 116, "pitch": 61, "duration": 5, "velocity": 50}, {"time": 116, "pitch": 66, "duration": 5, "velocity": 39}, {"time": 116, "pitch": 57, "duration": 4, "velocity": 36}, {"time": 117, "pitch": 54, "duration": 3, "velocity": 33}, {"time": 124, "pitch": 57, "duration": 5, "velocity": 61}, {"time": 124, "pitch": 61, "duration": 5, "velocity": 62}, {"time": 124, "pitch": 66, "duration": 5, "velocity": 51}, {"time": 125, "pitch": 54, "duration": 4, "velocity": 49}, {"time": 126, "pitch": 54, "duration": 3, "velocity": 63}, {"time": 133, "pitch": 57, "duration": 3, "velocity": 55}, {"time": 133, "pitch": 61, "duration": 3, "velocity": 56}, {"time": 133, "pitch": 54, "duration": 4, "velocity": 41}, {"time": 134, "pitch": 66, "duration": 2, "velocity": 38}, {"time": 146, "pitch": 61, "duration": 3, "velocity": 70}, {"time": 146, "pitch": 57, "duration": 3, "velocity": 62}, {"time": 146, "pitch": 54, "duration": 3, "velocity": 64}, {"time": 153, "pitch": 61, "duration": 3, "velocity": 62}, {"time": 153, "pitch": 57, "duration": 3, "velocity": 56}, {"time": 153, "pitch": 54, "duration": 3, "velocity": 52}, {"time": 160, "pitch": 61, "duration": 6, "velocity": 49}, {"time": 161, "pitch": 57, "duration": 4, "velocity": 41}, {"time": 161, "pitch": 54, "duration": 4, "velocity": 39}, {"time": 171, "pitch": 61, "duration": 5, "velocity": 53}, {"time": 171, "pitch": 57, "duration": 5, "velocity": 46}, {"time": 171, "pitch": 54, "duration": 5, "velocity": 46}, {"time": 183, "pitch": 49, "duration": 9, "velocity": 60}, {"time": 183, "pitch": 54, "duration": 7, "velocity": 38}, {"time": 183, "pitch": 42, "duration": 9, "velocity": 47}, {"time": 183, "pitch": 57, "duration": 6, "velocity": 39}, {"time": 183, "pitch": 61, "duration": 6, "velocity": 36}, {"time": 184, "pitch": 66, "duration": 6, "velocity": 25}, {"time": 196, "pitch": 42, "duration": 7, "velocity": 58}, {"time": 196, "pitch": 49, "duration": 7, "velocity": 66}, {"time": 196, "pitch": 61, "duration": 7, "velocity": 56}, {"time": 196, "pitch": 57, "duration": 7, "velocity": 51}, {"time": 197, "pitch": 66, "duration": 6, "velocity": 42}, {"time": 197, "pitch": 54, "duration": 7, "velocity": 46}, {"time": 206, "pitch": 42, "duration": 5, "velocity": 62}, {"time": 207, "pitch": 54, "duration": 6, "velocity": 55}, {"time": 207, "pitch": 57, "duration": 6, "velocity": 60}, {"time": 207, "pitch": 61, "duration": 6, "velocity": 63}, {"time": 207, "pitch": 66, "duration": 6, "velocity": 63}, {"time": 219, "pitch": 61, "duration": 7, "velocity": 73}, {"time": 219, "pitch": 57, "duration": 6, "velocity": 64}, {"time": 219, "pitch": 54, "duration": 7, "velocity": 73}, {"time": 219, "pitch": 66, "duration": 7, "velocity": 72}, {"time": 234, "pitch": 49, "duration": 61, "velocity": 69}, {"time": 234, "pitch": 42, "duration": 61, "velocity": 71}, {"time": 243, "pitch": 61, "duration": 4, "velocity": 52}, {"time": 243, "pitch": 54, "duration": 4, "velocity": 57}, {"time": 251, "pitch": 61, "duration": 3, "velocity": 52}, {"time": 251, "pitch": 54, "duration": 3, "velocity": 59}, {"time": 257, "pitch": 61, "duration": 3, "velocity": 66}, {"time": 257, "pitch": 54, "duration": 3, "velocity": 65}, {"time": 264, "pitch": 61, "duration": 2, "velocity": 77}, {"time": 264, "pitch": 54, "duration": 3, "velocity": 68}, {"time": 269, "pitch": 61, "duration": 3, "velocity": 79}, {"time": 269, "pitch": 54, "duration": 3, "velocity": 77}, {"time": 276, "pitch": 61, "duration": 4, "velocity": 80}, {"time": 276, "pitch": 54, "duration": 4, "velocity": 79}, {"time": 283, "pitch": 61, "duration": 4, "velocity": 72}, {"time": 283, "pitch": 54, "duration": 4, "velocity": 63}, {"time": 290, "pitch": 61, "duration": 6, "velocity": 65}, {"time": 291, "pitch": 54, "duration": 3, "velocity": 65}, {"time": 298, "pitch": 61, "duration": 5, "velocity": 68}, {"time": 298, "pitch": 54, "duration": 5, "velocity": 67}, {"time": 298, "pitch": 66, "duration": 4, "velocity": 67}, {"time": 299, "pitch": 49, "duration": 4, "velocity": 73}, {"time": 299, "pitch": 42, "duration": 4, "velocity": 66}, {"time": 306, "pitch": 61, "duration": 10, "velocity": 78}, {"time": 306, "pitch": 66, "duration": 10, "velocity": 73}, {"time": 306, "pitch": 54, "duration": 9, "velocity": 74}, {"time": 306, "pitch": 42, "duration": 4, "velocity": 78}, {"time": 307, "pitch": 49, "duration": 2, "velocity": 79}, {"time": 318, "pitch": 42, "duration": 22, "velocity": 82}, {"time": 318, "pitch": 54, "duration": 13, "velocity": 80}, {"time": 318, "pitch": 61, "duration": 13, "velocity": 78}, {"time": 330, "pitch": 49, "duration": 10, "velocity": 75}, {"time": 336, "pitch": 54, "duration": 2, "velocity": 72}, {"time": 336, "pitch": 61, "duration": 2, "velocity": 72}, {"time": 342, "pitch": 54, "duration": 9, "velocity": 83}, {"time": 342, "pitch": 61, "duration": 8, "velocity": 82}, {"time": 342, "pitch": 66, "duration": 7, "velocity": 81}, {"time": 354, "pitch": 54, "duration": 1, "velocity": 80}, {"time": 354, "pitch": 57, "duration": 4, "velocity": 81}, {"time": 354, "pitch": 61, "duration": 11, "velocity": 84}, {"time": 354, "pitch": 66, "duration": 10, "velocity": 79}, {"time": 360, "pitch": 54, "duration": 4, "velocity": 81}, {"time": 366, "pitch": 47, "duration": 19, "velocity": 93}, {"time": 366, "pitch": 54, "duration": 5, "velocity": 82}, {"time": 366, "pitch": 59, "duration": 5, "velocity": 81}, {"time": 375, "pitch": 54, "duration": 2, "velocity": 67}, {"time": 375, "pitch": 59, "duration": 2, "velocity": 70}, {"time": 375, "pitch": 63, "duration": 2, "velocity": 80}, {"time": 384, "pitch": 54, "duration": 2, "velocity": 74}, {"time": 387, "pitch": 54, "duration": 1, "velocity": 68}, {"time": 387, "pitch": 59, "duration": 1, "velocity": 67}, {"time": 390, "pitch": 47, "duration": 11, "velocity": 82}, {"time": 390, "pitch": 54, "duration": 4, "velocity": 80}, {"time": 390, "pitch": 59, "duration": 4, "velocity": 82}, {"time": 396, "pitch": 54, "duration": 2, "velocity": 78}, {"time": 402, "pitch": 54, "duration": 2, "velocity": 80}, {"time": 402, "pitch": 59, "duration": 2, "velocity": 83}, {"time": 402, "pitch": 63, "duration": 3, "velocity": 83}, {"time": 414, "pitch": 38, "duration": 14, "velocity": 83}, {"time": 414, "pitch": 54, "duration": 8, "velocity": 80}, {"time": 414, "pitch": 57, "duration": 8, "velocity": 79}, {"time": 414, "pitch": 62, "duration": 7, "velocity": 75}, {"time": 420, "pitch": 45, "duration": 5, "velocity": 49}, {"time": 426, "pitch": 54, "duration": 2, "velocity": 80}, {"time": 426, "pitch": 57, "duration": 4, "velocity": 90}, {"time": 426, "pitch": 62, "duration": 7, "velocity": 86}, {"time": 432, "pitch": 54, "duration": 4, "velocity": 66}, {"time": 435, "pitch": 57, "duration": 1, "velocity": 77}, {"time": 438, "pitch": 37, "duration": 15, "velocity": 88}, {"time": 438, "pitch": 56, "duration": 8, "velocity": 80}, {"time": 438, "pitch": 59, "duration": 2, "velocity": 78}, {"time": 438, "pitch": 61, "duration": 7, "velocity": 76}, {"time": 450, "pitch": 56, "duration": 2, "velocity": 82}, {"time": 450, "pitch": 61, "duration": 5, "velocity": 85}, {"time": 456, "pitch": 56, "duration": 1, "velocity": 62}, {"time": 462, "pitch": 42, "duration": 42, "velocity": 81}, {"time": 462, "pitch": 54, "duration": 7, "velocity": 78}, {"time": 462, "pitch": 57, "duration": 5, "velocity": 63}, {"time": 468, "pitch": 49, "duration": 32, "velocity": 79}, {"time": 474, "pitch": 54, "duration": 1, "velocity": 71}, {"time": 474, "pitch": 57, "duration": 2, "velocity": 81}, {"time": 474, "pitch": 61, "duration": 2, "velocity": 80}, {"time": 483, "pitch": 54, "duration": 1, "velocity": 63}, {"time": 483, "pitch": 57, "duration": 1, "velocity": 65}, {"time": 483, "pitch": 61, "duration": 1, "velocity": 71}, {"time": 486, "pitch": 54, "duration": 3, "velocity": 80}, {"time": 486, "pitch": 57, "duration": 3, "velocity": 82}, {"time": 486, "pitch": 61, "duration": 4, "velocity": 83}, {"time": 492, "pitch": 54, "duration": 3, "velocity": 75}, {"time": 498, "pitch": 54, "duration": 1, "velocity": 73}, {"time": 498, "pitch": 57, "duration": 4, "velocity": 84}, {"time": 498, "pitch": 61, "duration": 5, "velocity": 88}, {"time": 498, "pitch": 66, "duration": 5, "velocity": 79}, {"time": 504, "pitch": 54, "duration": 4, "velocity": 79}, {"time": 510, "pitch": 42, "duration": 38, "velocity": 85}, {"time": 510, "pitch": 54, "duration": 10, "velocity": 80}, {"time": 510, "pitch": 61, "duration": 10, "velocity": 79}, {"time": 516, "pitch": 49, "duration": 20, "velocity": 72}, {"time": 522, "pitch": 54, "duration": 1, "velocity": 69}, {"time": 522, "pitch": 57, "duration": 3, "velocity": 75}, {"time": 522, "pitch": 61, "duration": 3, "velocity": 80}, {"time": 528, "pitch": 57, "duration": 1, "velocity": 67}, {"time": 528, "pitch": 61, "duration": 1, "velocity": 77}, {"time": 531, "pitch": 57, "duration": 1, "velocity": 62}, {"time": 531, "pitch": 61, "duration": 1, "velocity": 75}, {"time": 534, "pitch": 54, "duration": 5, "velocity": 82}, {"time": 534, "pitch": 57, "duration": 5, "velocity": 80}, {"time": 534, "pitch": 61, "duration": 6, "velocity": 84}, {"time": 540, "pitch": 49, "duration": 7, "velocity": 79}, {"time": 546, "pitch": 54, "duration": 4, "velocity": 86}, {"time": 546, "pitch": 57, "duration": 4, "velocity": 90}, {"time": 546, "pitch": 61, "duration": 10, "velocity": 90}, {"time": 546, "pitch": 66, "duration": 8, "velocity": 79}, {"time": 552, "pitch": 42, "duration": 6, "velocity": 80}, {"time": 558, "pitch": 47, "duration": 14, "velocity": 100}, {"time": 558, "pitch": 54, "duration": 4, "velocity": 82}, {"time": 558, "pitch": 59, "duration": 6, "velocity": 83}, {"time": 564, "pitch": 54, "duration": 2, "velocity": 71}, {"time": 570, "pitch": 54, "duration": 2, "velocity": 79}, {"time": 570, "pitch": 59, "duration": 1, "velocity": 83}, {"time": 570, "pitch": 63, "duration": 2, "velocity": 84}, {"time": 576, "pitch": 54, "duration": 1, "velocity": 73}, {"time": 576, "pitch": 59, "duration": 1, "velocity": 73}, {"time": 576, "pitch": 63, "duration": 1, "velocity": 68}, {"time": 579, "pitch": 54, "duration": 1, "velocity": 70}, {"time": 579, "pitch": 59, "duration": 1, "velocity": 74}, {"time": 579, "pitch": 63, "duration": 1, "velocity": 78}, {"time": 582, "pitch": 47, "duration": 13, "velocity": 80}, {"time": 582, "pitch": 54, "duration": 3, "velocity": 78}, {"time": 582, "pitch": 59, "duration": 4, "velocity": 79}, {"time": 582, "pitch": 63, "duration": 4, "velocity": 84}, {"time": 588, "pitch": 54, "duration": 2, "velocity": 73}, {"time": 594, "pitch": 54, "duration": 2, "velocity": 82}, {"time": 594, "pitch": 59, "duration": 2, "velocity": 82}, {"time": 606, "pitch": 38, "duration": 13, "velocity": 80}, {"time": 606, "pitch": 54, "duration": 4, "velocity": 79}, {"time": 606, "pitch": 57, "duration": 7, "velocity": 78}, {"time": 606, "pitch": 62, "duration": 6, "velocity": 76}, {"time": 612, "pitch": 45, "duration": 5, "velocity": 42}, {"time": 618, "pitch": 54, "duration": 2, "velocity": 84}, {"time": 618, "pitch": 57, "duration": 3, "velocity": 90}, {"time": 618, "pitch": 62, "duration": 4, "velocity": 84}, {"time": 624, "pitch": 54, "duration": 3, "velocity": 73}, {"time": 627, "pitch": 57, "duration": 1, "velocity": 63}, {"time": 630, "pitch": 37, "duration": 13, "velocity": 83}, {"time": 630, "pitch": 56, "duration": 4, "velocity": 76}, {"time": 630, "pitch": 61, "duration": 7, "velocity": 80}, {"time": 636, "pitch": 56, "duration": 2, "velocity": 70}, {"time": 642, "pitch": 56, "duration": 2, "velocity": 81}, {"time": 642, "pitch": 61, "duration": 4, "velocity": 85}, {"time": 642, "pitch": 64, "duration": 6, "velocity": 75}, {"time": 654, "pitch": 42, "duration": 40, "velocity": 81}, {"time": 654, "pitch": 54, "duration": 3, "velocity": 80}, {"time": 654, "pitch": 61, "duration": 3, "velocity": 80}, {"time": 666, "pitch": 61, "duration": 2, "velocity": 75}, {"time": 672, "pitch": 54, "duration": 1, "velocity": 53}, {"time": 672, "pitch": 61, "duration": 1, "velocity": 66}, {"time": 675, "pitch": 54, "duration": 1, "velocity": 69}, {"time": 675, "pitch": 61, "duration": 1, "velocity": 75}, {"time": 678, "pitch": 54, "duration": 3, "velocity": 81}, {"time": 678, "pitch": 61, "duration": 3, "velocity": 85}, {"time": 684, "pitch": 54, "duration": 2, "velocity": 76}, {"time": 690, "pitch": 54, "duration": 3, "velocity": 68}, {"time": 690, "pitch": 61, "duration": 5, "velocity": 74}, {"time": 702, "pitch": 42, "duration": 43, "velocity": 80}, {"time": 708, "pitch": 54, "duration": 2, "velocity": 51}, {"time": 714, "pitch": 54, "duration": 2, "velocity": 72}, {"time": 714, "pitch": 61, "duration": 3, "velocity": 75}, {"time": 720, "pitch": 54, "duration": 1, "velocity": 56}, {"time": 726, "pitch": 54, "duration": 2, "velocity": 80}, {"time": 726, "pitch": 66, "duration": 3, "velocity": 75}, {"time": 732, "pitch": 49, "duration": 8, "velocity": 48}, {"time": 738, "pitch": 54, "duration": 3, "velocity": 76}, {"time": 738, "pitch": 61, "duration": 6, "velocity": 78}, {"time": 750, "pitch": 42, "duration": 37, "velocity": 80}, {"time": 756, "pitch": 49, "duration": 30, "velocity": 63}, {"time": 762, "pitch": 54, "duration": 2, "velocity": 75}, {"time": 768, "pitch": 61, "duration": 2, "velocity": 69}, {"time": 774, "pitch": 54, "duration": 2, "velocity": 74}, {"time": 774, "pitch": 61, "duration": 2, "velocity": 73}, {"time": 774, "pitch": 66, "duration": 3, "velocity": 73}, {"time": 786, "pitch": 54, "duration": 1, "velocity": 75}, {"time": 786, "pitch": 61, "duration": 2, "velocity": 79}, {"time": 798, "pitch": 45, "duration": 39, "velocity": 79}, {"time": 798, "pitch": 52, "duration": 2, "velocity": 74}, {"time": 798, "pitch": 57, "duration": 5, "velocity": 67}, {"time": 804, "pitch": 52, "duration": 1, "velocity": 50}, {"time": 810, "pitch": 57, "duration": 2, "velocity": 64}, {"time": 822, "pitch": 52, "duration": 1, "velocity": 50}, {"time": 822, "pitch": 57, "duration": 1, "velocity": 61}, {"time": 828, "pitch": 52, "duration": 2, "velocity": 48}, {"time": 834, "pitch": 52, "duration": 1, "velocity": 75}, {"time": 834, "pitch": 57, "duration": 2, "velocity": 80}, {"time": 834, "pitch": 61, "duration": 4, "velocity": 80}, {"time": 840, "pitch": 61, "duration": 1, "velocity": 46}, {"time": 846, "pitch": 37, "duration": 26, "velocity": 80}, {"time": 846, "pitch": 56, "duration": 5, "velocity": 68}, {"time": 846, "pitch": 61, "duration": 7, "velocity": 72}, {"time": 852, "pitch": 44, "duration": 19, "velocity": 58}, {"time": 858, "pitch": 61, "duration": 2, "velocity": 67}, {"time": 864, "pitch": 56, "duration": 2, "velocity": 71}, {"time": 870, "pitch": 56, "duration": 2, "velocity": 81}, {"time": 870, "pitch": 64, "duration": 3, "velocity": 81}, {"time": 876, "pitch": 37, "duration": 2, "velocity": 83}, {"time": 882, "pitch": 56, "duration": 2, "velocity": 81}, {"time": 882, "pitch": 61, "duration": 3, "velocity": 84}, {"time": 888, "pitch": 56, "duration": 2, "velocity": 74}, {"time": 894, "pitch": 42, "duration": 43, "velocity": 80}, {"time": 894, "pitch": 54, "duration": 6, "velocity": 75}, {"time": 894, "pitch": 61, "duration": 6, "velocity": 79}, {"time": 906, "pitch": 54, "duration": 1, "velocity": 71}, {"time": 906, "pitch": 61, "duration": 1, "velocity": 73}, {"time": 912, "pitch": 54, "duration": 2, "velocity": 79}, {"time": 918, "pitch": 54, "duration": 2, "velocity": 81}, {"time": 918, "pitch": 66, "duration": 3, "velocity": 77}, {"time": 924, "pitch": 54, "duration": 2, "velocity": 76}, {"time": 930, "pitch": 54, "duration": 2, "velocity": 85}, {"time": 930, "pitch": 61, "duration": 4, "velocity": 83}, {"time": 936, "pitch": 54, "duration": 2, "velocity": 70}, {"time": 942, "pitch": 42, "duration": 20, "velocity": 81}, {"time": 942, "pitch": 54, "duration": 3, "velocity": 79}, {"time": 942, "pitch": 61, "duration": 6, "velocity": 79}, {"time": 948, "pitch": 54, "duration": 2, "velocity": 66}, {"time": 954, "pitch": 54, "duration": 1, "velocity": 70}, {"time": 954, "pitch": 61, "duration": 2, "velocity": 74}, {"time": 960, "pitch": 54, "duration": 2, "velocity": 72}, {"time": 966, "pitch": 54, "duration": 3, "velocity": 79}, {"time": 966, "pitch": 61, "duration": 8, "velocity": 75}, {"time": 966, "pitch": 66, "duration": 8, "velocity": 73}, {"time": 972, "pitch": 54, "duration": 2, "velocity": 63}, {"time": 978, "pitch": 54, "duration": 2, "velocity": 80}, {"time": 978, "pitch": 61, "duration": 6, "velocity": 81}, {"time": 984, "pitch": 42, "duration": 3, "velocity": 80}, {"time": 990, "pitch": 40, "duration": 38, "velocity": 85}, {"time": 990, "pitch": 52, "duration": 4, "velocity": 76}, {"time": 990, "pitch": 56, "duration": 6, "velocity": 72}, {"time": 996, "pitch": 47, "duration": 32, "velocity": 74}, {"time": 1002, "pitch": 56, "duration": 2, "velocity": 71}, {"time": 1002, "pitch": 59, "duration": 2, "velocity": 71}, {"time": 1008, "pitch": 52, "duration": 2, "velocity": 67}, {"time": 1014, "pitch": 56, "duration": 2, "velocity": 78}, {"time": 1014, "pitch": 59, "duration": 3, "velocity": 77}, {"time": 1014, "pitch": 64, "duration": 6, "velocity": 73}, {"time": 1020, "pitch": 52, "duration": 1, "velocity": 44}, {"time": 1026, "pitch": 56, "duration": 2, "velocity": 83}, {"time": 1026, "pitch": 59, "duration": 3, "velocity": 83}, {"time": 1026, "pitch": 64, "duration": 4, "velocity": 80}, {"time": 1032, "pitch": 40, "duration": 2, "velocity": 83}, {"time": 1038, "pitch": 42, "duration": 39, "velocity": 85}, {"time": 1038, "pitch": 54, "duration": 4, "velocity": 82}, {"time": 1038, "pitch": 66, "duration": 5, "velocity": 77}, {"time": 1044, "pitch": 49, "duration": 22, "velocity": 73}, {"time": 1050, "pitch": 57, "duration": 2, "velocity": 64}, {"time": 1050, "pitch": 61, "duration": 2, "velocity": 72}, {"time": 1056, "pitch": 54, "duration": 3, "velocity": 60}, {"time": 1062, "pitch": 57, "duration": 2, "velocity": 73}, {"time": 1062, "pitch": 61, "duration": 2, "velocity": 79}, {"time": 1062, "pitch": 66, "duration": 4, "velocity": 70}, {"time": 1068, "pitch": 54, "duration": 2, "velocity": 72}, {"time": 1074, "pitch": 57, "duration": 4, "velocity": 81}, {"time": 1074, "pitch": 61, "duration": 5, "velocity": 83}, {"time": 1074, "pitch": 66, "duration": 5, "velocity": 79}, {"time": 1080, "pitch": 49, "duration": 2, "velocity": 80}, {"time": 1083, "pitch": 54, "duration": 2, "velocity": 85}, {"time": 1086, "pitch": 42, "duration": 43, "velocity": 80}, {"time": 1092, "pitch": 54, "duration": 2, "velocity": 51}, {"time": 1098, "pitch": 54, "duration": 2, "velocity": 72}, {"time": 1098, "pitch": 61, "duration": 3, "velocity": 75}, {"time": 1104, "pitch": 54, "duration": 1, "velocity": 56}, {"time": 1110, "pitch": 54, "duration": 2, "velocity": 80}, {"time": 1110, "pitch": 66, "duration": 3, "velocity": 75}, {"time": 1116, "pitch": 49, "duration": 8, "velocity": 48}, {"time": 1122, "pitch": 54, "duration": 3, "velocity": 76}, {"time": 1122, "pitch": 61, "duration": 6, "velocity": 78}, {"time": 1134, "pitch": 42, "duration": 37, "velocity": 80}, {"time": 1140, "pitch": 49, "duration": 30, "velocity": 63}, {"time": 1146, "pitch": 54, "duration": 2, "velocity": 75}, {"time": 1152, "pitch": 61, "duration": 2, "velocity": 69}, {"time": 1158, "pitch": 54, "duration": 2, "velocity": 74}, {"time": 1158, "pitch": 61, "duration": 2, "velocity": 73}, {"time": 1158, "pitch": 66, "duration": 3, "velocity": 73}, {"time": 1170, "pitch": 54, "duration": 1, "velocity": 75}, {"time": 1170, "pitch": 61, "duration": 2, "velocity": 79}, {"time": 1182, "pitch": 45, "duration": 39, "velocity": 79}, {"time": 1182, "pitch": 52, "duration": 2, "velocity": 74}, {"time": 1182, "pitch": 57, "duration": 5, "velocity": 67}, {"time": 1188, "pitch": 52, "duration": 1, "velocity": 50}, {"time": 1194, "pitch": 57, "duration": 2, "velocity": 64}, {"time": 1206, "pitch": 52, "duration": 1, "velocity": 50}, {"time": 1206, "pitch": 57, "duration": 1, "velocity": 61}, {"time": 1212, "pitch": 52, "duration": 2, "velocity": 48}, {"time": 1218, "pitch": 52, "duration": 1, "velocity": 75}, {"time": 1218, "pitch": 57, "duration": 2, "velocity": 80}, {"time": 1218, "pitch": 61, "duration": 4, "velocity": 80}, {"time": 1224, "pitch": 61, "duration": 1, "velocity": 46}, {"time": 1230, "pitch": 37, "duration": 26, "velocity": 80}, {"time": 1230, "pitch": 56, "duration": 5, "velocity": 68}, {"time": 1230, "pitch": 61, "duration": 7, "velocity": 72}, {"time": 1236, "pitch": 44, "duration": 19, "velocity": 58}, {"time": 1242, "pitch": 61, "duration": 2, "velocity": 67}, {"time": 1248, "pitch": 56, "duration": 2, "velocity": 71}, {"time": 1254, "pitch": 56, "duration": 2, "velocity": 81}, {"time": 1254, "pitch": 64, "duration": 3, "velocity": 81}, {"time": 1260, "pitch": 37, "duration": 2, "velocity": 83}, {"time": 1266, "pitch": 56, "duration": 2, "velocity": 81}, {"time": 1266, "pitch": 61, "duration": 3, "velocity": 84}, {"time": 1272, "pitch": 56, "duration": 2, "velocity": 74}, {"time": 1278, "pitch": 42, "duration": 43, "velocity": 80}, {"time": 1278, "pitch": 54, "duration": 6, "velocity": 75}, {"time": 1278, "pitch": 61, "duration": 6, "velocity": 79}, {"time": 1290, "pitch": 54, "duration": 1, "velocity": 71}, {"time": 1290, "pitch": 61, "duration": 1, "velocity": 73}, {"time": 1296, "pitch": 54, "duration": 2, "velocity": 79}, {"time": 1302, "pitch": 54, "duration": 2, "velocity": 81}, {"time": 1302, "pitch": 66, "duration": 3, "velocity": 77}, {"time": 1308, "pitch": 54, "duration": 2, "velocity": 76}, {"time": 1314, "pitch": 54, "duration": 2, "velocity": 85}, {"time": 1314, "pitch": 61, "duration": 4, "velocity": 83}, {"time": 1320, "pitch": 54, "duration": 2, "velocity": 70}, {"time": 1326, "pitch": 42, "duration": 20, "velocity": 81}, {"time": 1326, "pitch": 54, "duration": 3, "velocity": 79}, {"time": 1326, "pitch": 61, "duration": 6, "velocity": 79}, {"time": 1332, "pitch": 54, "duration": 2, "velocity": 66}, {"time": 1338, "pitch": 54, "duration": 1, "velocity": 70}, {"time": 1338, "pitch": 61, "duration": 2, "velocity": 74}, {"time": 1344, "pitch": 54, "duration": 2, "velocity": 72}, {"time": 1350, "pitch": 54, "duration": 3, "velocity": 79}, {"time": 1350, "pitch": 61, "duration": 8, "velocity": 75}, {"time": 1350, "pitch": 66, "duration": 8, "velocity": 73}, {"time": 1356, "pitch": 54, "duration": 2, "velocity": 63}, {"time": 1362, "pitch": 54, "duration": 2, "velocity": 80}, {"time": 1362, "pitch": 61, "duration": 6, "velocity": 81}, {"time": 1368, "pitch": 42, "duration": 3, "velocity": 80}, {"time": 1374, "pitch": 40, "duration": 38, "velocity": 85}, {"time": 1374, "pitch": 52, "duration": 4, "velocity": 76}, {"time": 1374, "pitch": 56, "duration": 6, "velocity": 72}, {"time": 1380, "pitch": 47, "duration": 32, "velocity": 74}, {"time": 1386, "pitch": 56, "duration": 2, "velocity": 71}, {"time": 1386, "pitch": 59, "duration": 2, "velocity": 71}, {"time": 1392, "pitch": 52, "duration": 2, "velocity": 67}, {"time": 1398, "pitch": 56, "duration": 2, "velocity": 78}, {"time": 1398, "pitch": 59, "duration": 3, "velocity": 77}, {"time": 1398, "pitch": 64, "duration": 6, "velocity": 73}, {"time": 1404, "pitch": 52, "duration": 1, "velocity": 44}, {"time": 1410, "pitch": 56, "duration": 2, "velocity": 83}, {"time": 1410, "pitch": 59, "duration": 3, "velocity": 83}, {"time": 1410, "pitch": 64, "duration": 4, "velocity": 80}, {"time": 1416, "pitch": 40, "duration": 2, "velocity": 83}, {"time": 1422, "pitch": 42, "duration": 39, "velocity": 85}, {"time": 1422, "pitch": 54, "duration": 4, "velocity": 82}, {"time": 1422, "pitch": 66, "duration": 5, "velocity": 77}, {"time": 1428, "pitch": 49, "duration": 22, "velocity": 73}, {"time": 1434, "pitch": 57, "duration": 2, "velocity": 64}, {"time": 1434, "pitch": 61, "duration": 2, "velocity": 72}, {"time": 1440, "pitch": 54, "duration": 3, "velocity": 60}, {"time": 1446, "pitch": 57, "duration": 2, "velocity": 73}, {"time": 1446, "pitch": 61, "duration": 2, "velocity": 79}, {"time": 1446, "pitch": 66, "duration": 4, "velocity": 70}, {"time": 1452, "pitch": 54, "duration": 2, "velocity": 72}, {"time": 1458, "pitch": 57, "duration": 4, "velocity": 81}, {"time": 1458, "pitch": 61, "duration": 5, "velocity": 83}, {"time": 1458, "pitch": 66, "duration": 5, "velocity": 79}, {"time": 1464, "pitch": 49, "duration": 2, "velocity": 80}, {"time": 1467, "pitch": 54, "duration": 2, "velocity": 85}, {"time": 1470, "pitch": 42, "duration": 10, "velocity": 85}, {"time": 1470, "pitch": 54, "duration": 4, "velocity": 81}, {"time": 1470, "pitch": 61, "duration": 8, "velocity": 78}, {"time": 1470, "pitch": 66, "duration": 5, "velocity": 78}, {"time": 1476, "pitch": 54, "duration": 3, "velocity": 83}, {"time": 1476, "pitch": 66, "duration": 1, "velocity": 65}, {"time": 1482, "pitch": 40, "duration": 8, "velocity": 84}, {"time": 1482, "pitch": 52, "duration": 6, "velocity": 84}, {"time": 1482, "pitch": 64, "duration": 6, "velocity": 80}, {"time": 1488, "pitch": 47, "duration": 3, "velocity": 81}, {"time": 1494, "pitch": 39, "duration": 9, "velocity": 95}, {"time": 1494, "pitch": 51, "duration": 4, "velocity": 83}, {"time": 1494, "pitch": 63, "duration": 9, "velocity": 81}, {"time": 1500, "pitch": 51, "duration": 3, "velocity": 85}, {"time": 1506, "pitch": 37, "duration": 12, "velocity": 90}, {"time": 1506, "pitch": 49, "duration": 5, "velocity": 88}, {"time": 1506, "pitch": 61, "duration": 12, "velocity": 80}, {"time": 1512, "pitch": 49, "duration": 5, "velocity": 81}, {"time": 1518, "pitch": 42, "duration": 44, "velocity": 81}, {"time": 1518, "pitch": 54, "duration": 3, "velocity": 79}, {"time": 1518, "pitch": 66, "duration": 4, "velocity": 80}, {"time": 1524, "pitch": 49, "duration": 37, "velocity": 73}, {"time": 1530, "pitch": 61, "duration": 2, "velocity": 81}, {"time": 1530, "pitch": 66, "duration": 2, "velocity": 80}, {"time": 1536, "pitch": 61, "duration": 1, "velocity": 73}, {"time": 1536, "pitch": 69, "duration": 1, "velocity": 72}, {"time": 1539, "pitch": 61, "duration": 1, "velocity": 72}, {"time": 1539, "pitch": 69, "duration": 1, "velocity": 71}, {"time": 1542, "pitch": 61, "duration": 3, "velocity": 80}, {"time": 1542, "pitch": 69, "duration": 4, "velocity": 84}, {"time": 1548, "pitch": 61, "duration": 2, "velocity": 80}, {"time": 1554, "pitch": 61, "duration": 3, "velocity": 81}, {"time": 1554, "pitch": 66, "duration": 4, "velocity": 83}, {"time": 1554, "pitch": 69, "duration": 7, "velocity": 83}, {"time": 1560, "pitch": 61, "duration": 3, "velocity": 71}, {"time": 1566, "pitch": 42, "duration": 28, "velocity": 83}, {"time": 1566, "pitch": 61, "duration": 8, "velocity": 80}, {"time": 1566, "pitch": 66, "duration": 8, "velocity": 81}, {"time": 1572, "pitch": 49, "duration": 21, "velocity": 62}, {"time": 1578, "pitch": 61, "duration": 2, "velocity": 79}, {"time": 1578, "pitch": 66, "duration": 2, "velocity": 80}, {"time": 1578, "pitch": 69, "duration": 2, "velocity": 80}, {"time": 1584, "pitch": 61, "duration": 1, "velocity": 62}, {"time": 1584, "pitch": 66, "duration": 1, "velocity": 71}, {"time": 1587, "pitch": 61, "duration": 1, "velocity": 79}, {"time": 1587, "pitch": 66, "duration": 1, "velocity": 79}, {"time": 1590, "pitch": 61, "duration": 3, "velocity": 84}, {"time": 1590, "pitch": 66, "duration": 3, "velocity": 82}, {"time": 1596, "pitch": 42, "duration": 3, "velocity": 81}, {"time": 1596, "pitch": 61, "duration": 2, "velocity": 79}, {"time": 1596, "pitch": 66, "duration": 2, "velocity": 80}, {"time": 1602, "pitch": 42, "duration": 6, "velocity": 84}, {"time": 1602, "pitch": 49, "duration": 5, "velocity": 84}, {"time": 1602, "pitch": 61, "duration": 3, "velocity": 80}, {"time": 1602, "pitch": 66, "duration": 4, "velocity": 84}, {"time": 1602, "pitch": 69, "duration": 7, "velocity": 86}, {"time": 1608, "pitch": 61, "duration": 3, "velocity": 80}, {"time": 1614, "pitch": 40, "duration": 28, "velocity": 81}, {"time": 1620, "pitch": 47, "duration": 21, "velocity": 74}, {"time": 1620, "pitch": 59, "duration": 3, "velocity": 80}, {"time": 1626, "pitch": 59, "duration": 2, "velocity": 81}, {"time": 1626, "pitch": 64, "duration": 3, "velocity": 84}, {"time": 1626, "pitch": 68, "duration": 3, "velocity": 84}, {"time": 1632, "pitch": 59, "duration": 1, "velocity": 66}, {"time": 1632, "pitch": 64, "duration": 1, "velocity": 70}, {"time": 1632, "pitch": 68, "duration": 1, "velocity": 65}, {"time": 1635, "pitch": 59, "duration": 1, "velocity": 71}, {"time": 1635, "pitch": 64, "duration": 1, "velocity": 73}, {"time": 1635, "pitch": 68, "duration": 1, "velocity": 69}, {"time": 1638, "pitch": 59, "duration": 2, "velocity": 77}, {"time": 1638, "pitch": 64, "duration": 2, "velocity": 80}, {"time": 1638, "pitch": 68, "duration": 3, "velocity": 81}, {"time": 1644, "pitch": 59, "duration": 2, "velocity": 78}, {"time": 1650, "pitch": 40, "duration": 5, "velocity": 80}, {"time": 1650, "pitch": 59, "duration": 2, "velocity": 81}, {"time": 1650, "pitch": 64, "duration": 4, "velocity": 79}, {"time": 1662, "pitch": 37, "duration": 16, "velocity": 83}, {"time": 1662, "pitch": 61, "duration": 3, "velocity": 80}, {"time": 1662, "pitch": 64, "duration": 4, "velocity": 83}, {"time": 1668, "pitch": 61, "duration": 1, "velocity": 70}, {"time": 1671, "pitch": 61, "duration": 1, "velocity": 56}, {"time": 1671, "pitch": 64, "duration": 1, "velocity": 61}, {"time": 1674, "pitch": 61, "duration": 2, "velocity": 75}, {"time": 1674, "pitch": 64, "duration": 2, "velocity": 78}, {"time": 1680, "pitch": 37, "duration": 3, "velocity": 84}, {"time": 1680, "pitch": 61, "duration": 3, "velocity": 78}, {"time": 1680, "pitch": 64, "duration": 3, "velocity": 74}, {"time": 1686, "pitch": 37, "duration": 9, "velocity": 88}, {"time": 1686, "pitch": 44, "duration": 8, "velocity": 81}, {"time": 1686, "pitch": 61, "duration": 3, "velocity": 80}, {"time": 1686, "pitch": 64, "duration": 5, "velocity": 81}, {"time": 1686, "pitch": 68, "duration": 7, "velocity": 86}, {"time": 1692, "pitch": 61, "duration": 2, "velocity": 75}, {"time": 1692, "pitch": 64, "duration": 1, "velocity": 47}, {"time": 1698, "pitch": 37, "duration": 1, "velocity": 85}, {"time": 1698, "pitch": 61, "duration": 2, "velocity": 80}, {"time": 1698, "pitch": 64, "duration": 3, "velocity": 79}, {"time": 1704, "pitch": 61, "duration": 3, "velocity": 78}, {"time": 1710, "pitch": 42, "duration": 15, "velocity": 81}, {"time": 1710, "pitch": 61, "duration": 3, "velocity": 80}, {"time": 1710, "pitch": 66, "duration": 3, "velocity": 80}, {"time": 1716, "pitch": 66, "duration": 1, "velocity": 73}, {"time": 1719, "pitch": 61, "duration": 1, "velocity": 64}, {"time": 1719, "pitch": 66, "duration": 1, "velocity": 69}, {"time": 1722, "pitch": 61, "duration": 1, "velocity": 71}, {"time": 1722, "pitch": 66, "duration": 1, "velocity": 75}, {"time": 1728, "pitch": 42, "duration": 3, "velocity": 81}, {"time": 1728, "pitch": 61, "duration": 3, "velocity": 78}, {"time": 1728, "pitch": 66, "duration": 2, "velocity": 80}, {"time": 1734, "pitch": 42, "duration": 15, "velocity": 81}, {"time": 1734, "pitch": 49, "duration": 15, "velocity": 86}, {"time": 1734, "pitch": 61, "duration": 3, "velocity": 80}, {"time": 1734, "pitch": 66, "duration": 4, "velocity": 81}, {"time": 1734, "pitch": 69, "duration": 8, "velocity": 83}, {"time": 1740, "pitch": 61, "duration": 3, "velocity": 71}, {"time": 1746, "pitch": 61, "duration": 2, "velocity": 79}, {"time": 1746, "pitch": 66, "duration": 3, "velocity": 82}, {"time": 1746, "pitch": 69, "duration": 4, "velocity": 85}, {"time": 1752, "pitch": 61, "duration": 3, "velocity": 83}, {"time": 1758, "pitch": 42, "duration": 16, "velocity": 84}, {"time": 1758, "pitch": 61, "duration": 4, "velocity": 80}, {"time": 1758, "pitch": 66, "duration": 4, "velocity": 80}, {"time": 1764, "pitch": 61, "duration": 1, "velocity": 65}, {"time": 1767, "pitch": 61, "duration": 1, "velocity": 66}, {"time": 1767, "pitch": 66, "duration": 1, "velocity": 68}, {"time": 1770, "pitch": 61, "duration": 2, "velocity": 73}, {"time": 1770, "pitch": 66, "duration": 2, "velocity": 74}, {"time": 1776, "pitch": 42, "duration": 3, "velocity": 80}, {"time": 1776, "pitch": 61, "duration": 3, "velocity": 77}, {"time": 1776, "pitch": 66, "duration": 3, "velocity": 74}, {"time": 1782, "pitch": 42, "duration": 10, "velocity": 80}, {"time": 1782, "pitch": 49, "duration": 8, "velocity": 80}, {"time": 1782, "pitch": 61, "duration": 3, "velocity": 79}, {"time": 1782, "pitch": 66, "duration": 4, "velocity": 79}, {"time": 1782, "pitch": 69, "duration": 8, "velocity": 81}, {"time": 1788, "pitch": 61, "duration": 2, "velocity": 79}, {"time": 1794, "pitch": 61, "duration": 2, "velocity": 83}, {"time": 1794, "pitch": 66, "duration": 6, "velocity": 84}, {"time": 1800, "pitch": 61, "duration": 2, "velocity": 73}, {"time": 1806, "pitch": 40, "duration": 15, "velocity": 81}, {"time": 1806, "pitch": 59, "duration": 3, "velocity": 82}, {"time": 1806, "pitch": 64, "duration": 4, "velocity": 81}, {"time": 1812, "pitch": 59, "duration": 1, "velocity": 68}, {"time": 1812, "pitch": 64, "duration": 1, "velocity": 68}, {"time": 1815, "pitch": 59, "duration": 1, "velocity": 69}, {"time": 1815, "pitch": 64, "duration": 1, "velocity": 70}, {"time": 1818, "pitch": 59, "duration": 2, "velocity": 73}, {"time": 1818, "pitch": 64, "duration": 2, "velocity": 73}, {"time": 1824, "pitch": 40, "duration": 4, "velocity": 80}, {"time": 1824, "pitch": 59, "duration": 4, "velocity": 77}, {"time": 1824, "pitch": 64, "duration": 4, "velocity": 77}, {"time": 1830, "pitch": 40, "duration": 6, "velocity": 79}, {"time": 1830, "pitch": 47, "duration": 4, "velocity": 79}, {"time": 1830, "pitch": 59, "duration": 3, "velocity": 80}, {"time": 1830, "pitch": 64, "duration": 4, "velocity": 79}, {"time": 1830, "pitch": 68, "duration": 4, "velocity": 80}, {"time": 1836, "pitch": 59, "duration": 2, "velocity": 76}, {"time": 1842, "pitch": 59, "duration": 1, "velocity": 80}, {"time": 1842, "pitch": 64, "duration": 2, "velocity": 82}, {"time": 1842, "pitch": 68, "duration": 3, "velocity": 81}, {"time": 1848, "pitch": 59, "duration": 2, "velocity": 71}, {"time": 1854, "pitch": 37, "duration": 16, "velocity": 83}, {"time": 1854, "pitch": 61, "duration": 5, "velocity": 76}, {"time": 1854, "pitch": 64, "duration": 5, "velocity": 80}, {"time": 1866, "pitch": 61, "duration": 2, "velocity": 80}, {"time": 1866, "pitch": 64, "duration": 2, "velocity": 84}, {"time": 1872, "pitch": 61, "duration": 3, "velocity": 79}, {"time": 1878, "pitch": 37, "duration": 14, "velocity": 83}, {"time": 1878, "pitch": 61, "duration": 3, "velocity": 80}, {"time": 1878, "pitch": 64, "duration": 3, "velocity": 80}, {"time": 1884, "pitch": 61, "duration": 1, "velocity": 69}, {"time": 1884, "pitch": 64, "duration": 1, "velocity": 72}, {"time": 1887, "pitch": 61, "duration": 1, "velocity": 72}, {"time": 1887, "pitch": 64, "duration": 1, "velocity": 78}, {"time": 1890, "pitch": 61, "duration": 2, "velocity": 81}, {"time": 1890, "pitch": 64, "duration": 3, "velocity": 82}, {"time": 1896, "pitch": 37, "duration": 2, "velocity": 88}, {"time": 1902, "pitch": 37, "duration": 24, "velocity": 95}, {"time": 1902, "pitch": 44, "duration": 24, "velocity": 85}, {"time": 1902, "pitch": 61, "duration": 44, "velocity": 81}, {"time": 1902, "pitch": 68, "duration": 44, "velocity": 80}, {"time": 1950, "pitch": 42, "duration": 22, "velocity": 82}, {"time": 1950, "pitch": 54, "duration": 13, "velocity": 80}, {"time": 1950, "pitch": 61, "duration": 13, "velocity": 78}, {"time": 1962, "pitch": 49, "duration": 10, "velocity": 75}, {"time": 1968, "pitch": 54, "duration": 2, "velocity": 72}, {"time": 1968, "pitch": 61, "duration": 2, "velocity": 72}, {"time": 1974, "pitch": 54, "duration": 9, "velocity": 83}, {"time": 1974, "pitch": 61, "duration": 8, "velocity": 82}, {"time": 1974, "pitch": 66, "duration": 7, "velocity": 81}, {"time": 1986, "pitch": 54, "duration": 1, "velocity": 80}, {"time": 1986, "pitch": 57, "duration": 4, "velocity": 81}, {"time": 1986, "pitch": 61, "duration": 11, "velocity": 84}, {"time": 1986, "pitch": 66, "duration": 10, "velocity": 79}, {"time": 1992, "pitch": 54, "duration": 4, "velocity": 81}, {"time": 1998, "pitch": 47, "duration": 19, "velocity": 93}, {"time": 1998, "pitch": 54, "duration": 5, "velocity": 82}, {"time": 1998, "pitch": 59, "duration": 5, "velocity": 81}, {"time": 2007, "pitch": 54, "duration": 2, "velocity": 67}, {"time": 2007, "pitch": 59, "duration": 2, "velocity": 70}, {"time": 2007, "pitch": 63, "duration": 2, "velocity": 80}, {"time": 2016, "pitch": 54, "duration": 2, "velocity": 74}, {"time": 2019, "pitch": 54, "duration": 1, "velocity": 68}, {"time": 2019, "pitch": 59, "duration": 1, "velocity": 67}, {"time": 2022, "pitch": 47, "duration": 11, "velocity": 82}, {"time": 2022, "pitch": 54, "duration": 4, "velocity": 80}, {"time": 2022, "pitch": 59, "duration": 4, "velocity": 82}, {"time": 2028, "pitch": 54, "duration": 2, "velocity": 78}, {"time": 2034, "pitch": 54, "duration": 2, "velocity": 80}, {"time": 2034, "pitch": 59, "duration": 2, "velocity": 83}, {"time": 2034, "pitch": 63, "duration": 3, "velocity": 83}, {"time": 2046, "pitch": 38, "duration": 14, "velocity": 83}, {"time": 2046, "pitch": 54, "duration": 8, "velocity": 80}, {"time": 2046, "pitch": 57, "duration": 8, "velocity": 79}, {"time": 2046, "pitch": 62, "duration": 7, "velocity": 75}, {"time": 2052, "pitch": 45, "duration": 5, "velocity": 49}, {"time": 2058, "pitch": 54, "duration": 2, "velocity": 80}, {"time": 2058, "pitch": 57, "duration": 4, "velocity": 90}, {"time": 2058, "pitch": 62, "duration": 7, "velocity": 86}, {"time": 2064, "pitch": 54, "duration": 4, "velocity": 66}, {"time": 2067, "pitch": 57, "duration": 1, "velocity": 77}, {"time": 2070, "pitch": 37, "duration": 15, "velocity": 88}, {"time": 2070, "pitch": 56, "duration": 8, "velocity": 80}, {"time": 2070, "pitch": 59, "duration": 2, "velocity": 78}, {"time": 2070, "pitch": 61, "duration": 7, "velocity": 76}, {"time": 2082, "pitch": 56, "duration": 2, "velocity": 82}, {"time": 2082, "pitch": 61, "duration": 5, "velocity": 85}, {"time": 2088, "pitch": 56, "duration": 1, "velocity": 62}, {"time": 2094, "pitch": 42, "duration": 42, "velocity": 81}, {"time": 2094, "pitch": 54, "duration": 7, "velocity": 78}, {"time": 2094, "pitch": 57, "duration": 5, "velocity": 63}, {"time": 2100, "pitch": 49, "duration": 32, "velocity": 79}, {"time": 2106, "pitch": 54, "duration": 1, "velocity": 71}, {"time": 2106, "pitch": 57, "duration": 2, "velocity": 81}, {"time": 2106, "pitch": 61, "duration": 2, "velocity": 80}, {"time": 2115, "pitch": 54, "duration": 1, "velocity": 63}, {"time": 2115, "pitch": 57, "duration": 1, "velocity": 65}, {"time": 2115, "pitch": 61, "duration": 1, "velocity": 71}, {"time": 2118, "pitch": 54, "duration": 3, "velocity": 80}, {"time": 2118, "pitch": 57, "duration": 3, "velocity": 82}, {"time": 2118, "pitch": 61, "duration": 4, "velocity": 83}, {"time": 2124, "pitch": 54, "duration": 3, "velocity": 75}, {"time": 2130, "pitch": 54, "duration": 1, "velocity": 73}, {"time": 2130, "pitch": 57, "duration": 4, "velocity": 84}, {"time": 2130, "pitch": 61, "duration": 5, "velocity": 88}, {"time": 2130, "pitch": 66, "duration": 5, "velocity": 79}, {"time": 2136, "pitch": 54, "duration": 4, "velocity": 79}, {"time": 2142, "pitch": 42, "duration": 38, "velocity": 85}, {"time": 2142, "pitch": 54, "duration": 10, "velocity": 80}, {"time": 2142, "pitch": 61, "duration": 10, "velocity": 79}, {"time": 2148, "pitch": 49, "duration": 20, "velocity": 72}, {"time": 2154, "pitch": 54, "duration": 1, "velocity": 69}, {"time": 2154, "pitch": 57, "duration": 3, "velocity": 75}, {"time": 2154, "pitch": 61, "duration": 3, "velocity": 80}, {"time": 2160, "pitch": 57, "duration": 1, "velocity": 67}, {"time": 2160, "pitch": 61, "duration": 1, "velocity": 77}, {"time": 2163, "pitch": 57, "duration": 1, "velocity": 62}, {"time": 2163, "pitch": 61, "duration": 1, "velocity": 75}, {"time": 2166, "pitch": 54, "duration": 5, "velocity": 82}, {"time": 2166, "pitch": 57, "duration": 5, "velocity": 80}, {"time": 2166, "pitch": 61, "duration": 6, "velocity": 84}, {"time": 2172, "pitch": 49, "duration": 7, "velocity": 79}, {"time": 2178, "pitch": 54, "duration": 4, "velocity": 86}, {"time": 2178, "pitch": 57, "duration": 4, "velocity": 90}, {"time": 2178, "pitch": 61, "duration": 10, "velocity": 90}, {"time": 2178, "pitch": 66, "duration": 8, "velocity": 79}, {"time": 2184, "pitch": 42, "duration": 6, "velocity": 80}, {"time": 2190, "pitch": 47, "duration": 14, "velocity": 100}, {"time": 2190, "pitch": 54, "duration": 4, "velocity": 82}, {"time": 2190, "pitch": 59, "duration": 6, "velocity": 83}, {"time": 2196, "pitch": 54, "duration": 2, "velocity": 71}, {"time": 2202, "pitch": 54, "duration": 2, "velocity": 79}, {"time": 2202, "pitch": 59, "duration": 1, "velocity": 83}, {"time": 2202, "pitch": 63, "duration": 2, "velocity": 84}, {"time": 2208, "pitch": 54, "duration": 1, "velocity": 73}, {"time": 2208, "pitch": 59, "duration": 1, "velocity": 73}, {"time": 2208, "pitch": 63, "duration": 1, "velocity": 68}, {"time": 2211, "pitch": 54, "duration": 1, "velocity": 70}, {"time": 2211, "pitch": 59, "duration": 1, "velocity": 74}, {"time": 2211, "pitch": 63, "duration": 1, "velocity": 78}, {"time": 2214, "pitch": 47, "duration": 13, "velocity": 80}, {"time": 2214, "pitch": 54, "duration": 3, "velocity": 78}, {"time": 2214, "pitch": 59, "duration": 4, "velocity": 79}, {"time": 2214, "pitch": 63, "duration": 4, "velocity": 84}, {"time": 2220, "pitch": 54, "duration": 2, "velocity": 73}, {"time": 2226, "pitch": 54, "duration": 2, "velocity": 82}, {"time": 2226, "pitch": 59, "duration": 2, "velocity": 82}, {"time": 2238, "pitch": 38, "duration": 13, "velocity": 80}, {"time": 2238, "pitch": 54, "duration": 4, "velocity": 79}, {"time": 2238, "pitch": 57, "duration": 7, "velocity": 78}, {"time": 2238, "pitch": 62, "duration": 6, "velocity": 76}, {"time": 2244, "pitch": 45, "duration": 5, "velocity": 42}, {"time": 2250, "pitch": 54, "duration": 2, "velocity": 84}, {"time": 2250, "pitch": 57, "duration": 3, "velocity": 90}, {"time": 2250, "pitch": 62, "duration": 4, "velocity": 84}, {"time": 2256, "pitch": 54, "duration": 3, "velocity": 73}, {"time": 2259, "pitch": 57, "duration": 1, "velocity": 63}, {"time": 2262, "pitch": 37, "duration": 13, "velocity": 83}, {"time": 2262, "pitch": 56, "duration": 4, "velocity": 76}, {"time": 2262, "pitch": 61, "duration": 7, "velocity": 80}, {"time": 2268, "pitch": 56, "duration": 2, "velocity": 70}, {"time": 2274, "pitch": 56, "duration": 2, "velocity": 81}, {"time": 2274, "pitch": 61, "duration": 4, "velocity": 85}, {"time": 2274, "pitch": 64, "duration": 6, "velocity": 75}, {"time": 2286, "pitch": 42, "duration": 40, "velocity": 81}, {"time": 2286, "pitch": 54, "duration": 3, "velocity": 80}, {"time": 2286, "pitch": 61, "duration": 3, "velocity": 80}, {"time": 2298, "pitch": 61, "duration": 2, "velocity": 75}, {"time": 2304, "pitch": 54, "duration": 1, "velocity": 53}, {"time": 2304, "pitch": 61, "duration": 1, "velocity": 66}, {"time": 2307, "pitch": 54, "duration": 1, "velocity": 69}, {"time": 2307, "pitch": 61, "duration": 1, "velocity": 75}, {"time": 2310, "pitch": 54, "duration": 3, "velocity": 81}, {"time": 2310, "pitch": 61, "duration": 3, "velocity": 85}, {"time": 2316, "pitch": 54, "duration": 2, "velocity": 76}, {"time": 2322, "pitch": 54, "duration": 3, "velocity": 68}, {"time": 2322, "pitch": 61, "duration": 5, "velocity": 74}, {"time": 2334, "pitch": 42, "duration": 43, "velocity": 80}, {"time": 2340, "pitch": 54, "duration": 2, "velocity": 51}, {"time": 2346, "pitch": 54, "duration": 2, "velocity": 72}, {"time": 2346, "pitch": 61, "duration": 3, "velocity": 75}, {"time": 2352, "pitch": 54, "duration": 1, "velocity": 56}, {"time": 2358, "pitch": 54, "duration": 2, "velocity": 80}, {"time": 2358, "pitch": 66, "duration": 3, "velocity": 75}, {"time": 2364, "pitch": 49, "duration": 8, "velocity": 48}, {"time": 2370, "pitch": 54, "duration": 3, "velocity": 76}, {"time": 2370, "pitch": 61, "duration": 6, "velocity": 78}, {"time": 2382, "pitch": 42, "duration": 37, "velocity": 80}, {"time": 2388, "pitch": 49, "duration": 30, "velocity": 63}, {"time": 2394, "pitch": 54, "duration": 2, "velocity": 75}, {"time": 2400, "pitch": 61, "duration": 2, "velocity": 69}, {"time": 2406, "pitch": 54, "duration": 2, "velocity": 74}, {"time": 2406, "pitch": 61, "duration": 2, "velocity": 73}, {"time": 2406, "pitch": 66, "duration": 3, "velocity": 73}, {"time": 2418, "pitch": 54, "duration": 1, "velocity": 75}, {"time": 2418, "pitch": 61, "duration": 2, "velocity": 79}, {"time": 2430, "pitch": 45, "duration": 39, "velocity": 79}, {"time": 2430, "pitch": 52, "duration": 2, "velocity": 74}, {"time": 2430, "pitch": 57, "duration": 5, "velocity": 67}, {"time": 2436, "pitch": 52, "duration": 1, "velocity": 50}, {"time": 2442, "pitch": 57, "duration": 2, "velocity": 64}, {"time": 2454, "pitch": 52, "duration": 1, "velocity": 50}, {"time": 2454, "pitch": 57, "duration": 1, "velocity": 61}, {"time": 2460, "pitch": 52, "duration": 2, "velocity": 48}, {"time": 2466, "pitch": 52, "duration": 1, "velocity": 75}, {"time": 2466, "pitch": 57, "duration": 2, "velocity": 80}, {"time": 2466, "pitch": 61, "duration": 4, "velocity": 80}, {"time": 2472, "pitch": 61, "duration": 1, "velocity": 46}, {"time": 2478, "pitch": 37, "duration": 26, "velocity": 80}, {"time": 2478, "pitch": 56, "duration": 5, "velocity": 68}, {"time": 2478, "pitch": 61, "duration": 7, "velocity": 72}, {"time": 2484, "pitch": 44, "duration": 19, "velocity": 58}, {"time": 2490, "pitch": 61, "duration": 2, "velocity": 67}, {"time": 2496, "pitch": 56, "duration": 2, "velocity": 71}, {"time": 2502, "pitch": 56, "duration": 2, "velocity": 81}, {"time": 2502, "pitch": 64, "duration": 3, "velocity": 81}, {"time": 2508, "pitch": 37, "duration": 2, "velocity": 83}, {"time": 2514, "pitch": 56, "duration": 2, "velocity": 81}, {"time": 2514, "pitch": 61, "duration": 3, "velocity": 84}, {"time": 2520, "pitch": 56, "duration": 2, "velocity": 74}, {"time": 2526, "pitch": 42, "duration": 43, "velocity": 80}, {"time": 2526, "pitch": 54, "duration": 6, "velocity": 75}, {"time": 2526, "pitch": 61, "duration": 6, "velocity": 79}, {"time": 2538, "pitch": 54, "duration": 1, "velocity": 71}, {"time": 2538, "pitch": 61, "duration": 1, "velocity": 73}, {"time": 2544, "pitch": 54, "duration": 2, "velocity": 79}, {"time": 2550, "pitch": 54, "duration": 2, "velocity": 81}, {"time": 2550, "pitch": 66, "duration": 3, "velocity": 77}, {"time": 2556, "pitch": 54, "duration": 2, "velocity": 76}, {"time": 2562, "pitch": 54, "duration": 2, "velocity": 85}, {"time": 2562, "pitch": 61, "duration": 4, "velocity": 83}, {"time": 2568, "pitch": 54, "duration": 2, "velocity": 70}, {"time": 2574, "pitch": 42, "duration": 20, "velocity": 81}, {"time": 2574, "pitch": 54, "duration": 3, "velocity": 79}, {"time": 2574, "pitch": 61, "duration": 6, "velocity": 79}, {"time": 2580, "pitch": 54, "duration": 2, "velocity": 66}, {"time": 2586, "pitch": 54, "duration": 1, "velocity": 70}, {"time": 2586, "pitch": 61, "duration": 2, "velocity": 74}, {"time": 2592, "pitch": 54, "duration": 2, "velocity": 72}, {"time": 2598, "pitch": 54, "duration": 3, "velocity": 79}, {"time": 2598, "pitch": 61, "duration": 8, "velocity": 75}, {"time": 2598, "pitch": 66, "duration": 8, "velocity": 73}, {"time": 2604, "pitch": 54, "duration": 2, "velocity": 63}, {"time": 2610, "pitch": 54, "duration": 2, "velocity": 80}, {"time": 2610, "pitch": 61, "duration": 6, "velocity": 81}, {"time": 2616, "pitch": 42, "duration": 3, "velocity": 80}, {"time": 2622, "pitch": 40, "duration": 38, "velocity": 85}, {"time": 2622, "pitch": 52, "duration": 4, "velocity": 76}, {"time": 2622, "pitch": 56, "duration": 6, "velocity": 72}, {"time": 2628, "pitch": 47, "duration": 32, "velocity": 74}, {"time": 2634, "pitch": 56, "duration": 2, "velocity": 71}, {"time": 2634, "pitch": 59, "duration": 2, "velocity": 71}, {"time": 2640, "pitch": 52, "duration": 2, "velocity": 67}, {"time": 2646, "pitch": 56, "duration": 2, "velocity": 78}, {"time": 2646, "pitch": 59, "duration": 3, "velocity": 77}, {"time": 2646, "pitch": 64, "duration": 6, "velocity": 73}, {"time": 2652, "pitch": 52, "duration": 1, "velocity": 44}, {"time": 2658, "pitch": 56, "duration": 2, "velocity": 83}, {"time": 2658, "pitch": 59, "duration": 3, "velocity": 83}, {"time": 2658, "pitch": 64, "duration": 4, "velocity": 80}, {"time": 2664, "pitch": 40, "duration": 2, "velocity": 83}, {"time": 2670, "pitch": 42, "duration": 39, "velocity": 85}, {"time": 2670, "pitch": 54, "duration": 4, "velocity": 82}, {"time": 2670, "pitch": 66, "duration": 5, "velocity": 77}, {"time": 2676, "pitch": 49, "duration": 22, "velocity": 73}, {"time": 2682, "pitch": 57, "duration": 2, "velocity": 64}, {"time": 2682, "pitch": 61, "duration": 2, "velocity": 72}, {"time": 2688, "pitch": 54, "duration": 3, "velocity": 60}, {"time": 2694, "pitch": 57, "duration": 2, "velocity": 73}, {"time": 2694, "pitch": 61, "duration": 2, "velocity": 79}, {"time": 2694, "pitch": 66, "duration": 4, "velocity": 70}, {"time": 2700, "pitch": 54, "duration": 2, "velocity": 72}, {"time": 2706, "pitch": 57, "duration": 4, "velocity": 81}, {"time": 2706, "pitch": 61, "duration": 5, "velocity": 83}, {"time": 2706, "pitch": 66, "duration": 5, "velocity": 79}, {"time": 2712, "pitch": 49, "duration": 2, "velocity": 80}, {"time": 2715, "pitch": 54, "duration": 2, "velocity": 85}, {"time": 2718, "pitch": 42, "duration": 43, "velocity": 80}, {"time": 2724, "pitch": 54, "duration": 2, "velocity": 51}, {"time": 2730, "pitch": 54, "duration": 2, "velocity": 72}, {"time": 2730, "pitch": 61, "duration": 3, "velocity": 75}, {"time": 2736, "pitch": 54, "duration": 1, "velocity": 56}, {"time": 2742, "pitch": 54, "duration": 2, "velocity": 80}, {"time": 2742, "pitch": 66, "duration": 3, "velocity": 75}, {"time": 2748, "pitch": 49, "duration": 8, "velocity": 48}, {"time": 2754, "pitch": 54, "duration": 3, "velocity": 76}, {"time": 2754, "pitch": 61, "duration": 6, "velocity": 78}, {"time": 2766, "pitch": 42, "duration": 37, "velocity": 80}, {"time": 2772, "pitch": 49, "duration": 30, "velocity": 63}, {"time": 2778, "pitch": 54, "duration": 2, "velocity": 75}, {"time": 2784, "pitch": 61, "duration": 2, "velocity": 69}, {"time": 2790, "pitch": 54, "duration": 2, "velocity": 74}, {"time": 2790, "pitch": 61, "duration": 2, "velocity": 73}, {"time": 2790, "pitch": 66, "duration": 3, "velocity": 73}, {"time": 2802, "pitch": 54, "duration": 1, "velocity": 75}, {"time": 2802, "pitch": 61, "duration": 2, "velocity": 79}, {"time": 2814, "pitch": 45, "duration": 39, "velocity": 79}, {"time": 2814, "pitch": 52, "duration": 2, "velocity": 74}, {"time": 2814, "pitch": 57, "duration": 5, "velocity": 67}, {"time": 2820, "pitch": 52, "duration": 1, "velocity": 50}, {"time": 2826, "pitch": 57, "duration": 2, "velocity": 64}, {"time": 2838, "pitch": 52, "duration": 1, "velocity": 50}, {"time": 2838, "pitch": 57, "duration": 1, "velocity": 61}, {"time": 2844, "pitch": 52, "duration": 2, "velocity": 48}, {"time": 2850, "pitch": 52, "duration": 1, "velocity": 75}, {"time": 2850, "pitch": 57, "duration": 2, "velocity": 80}, {"time": 2850, "pitch": 61, "duration": 4, "velocity": 80}, {"time": 2856, "pitch": 61, "duration": 1, "velocity": 46}, {"time": 2862, "pitch": 37, "duration": 26, "velocity": 80}, {"time": 2862, "pitch": 56, "duration": 5, "velocity": 68}, {"time": 2862, "pitch": 61, "duration": 7, "velocity": 72}, {"time": 2868, "pitch": 44, "duration": 19, "velocity": 58}, {"time": 2874, "pitch": 61, "duration": 2, "velocity": 67}, {"time": 2880, "pitch": 56, "duration": 2, "velocity": 71}, {"time": 2886, "pitch": 56, "duration": 2, "velocity": 81}, {"time": 2886, "pitch": 64, "duration": 3, "velocity": 81}, {"time": 2892, "pitch": 37, "duration": 2, "velocity": 83}, {"time": 2898, "pitch": 56, "duration": 2, "velocity": 81}, {"time": 2898, "pitch": 61, "duration": 3, "velocity": 84}, {"time": 2904, "pitch": 56, "duration": 2, "velocity": 74}, {"time": 2910, "pitch": 42, "duration": 43, "velocity": 80}, {"time": 2910, "pitch": 54, "duration": 6, "velocity": 75}, {"time": 2910, "pitch": 61, "duration": 6, "velocity": 79}, {"time": 2922, "pitch": 54, "duration": 1, "velocity": 71}, {"time": 2922, "pitch": 61, "duration": 1, "velocity": 73}, {"time": 2928, "pitch": 54, "duration": 2, "velocity": 79}, {"time": 2934, "pitch": 54, "duration": 2, "velocity": 81}, {"time": 2934, "pitch": 66, "duration": 3, "velocity": 77}, {"time": 2940, "pitch": 54, "duration": 2, "velocity": 76}, {"time": 2946, "pitch": 54, "duration": 2, "velocity": 85}, {"time": 2946, "pitch": 61, "duration": 4, "velocity": 83}, {"time": 2952, "pitch": 54, "duration": 2, "velocity": 70}, {"time": 2958, "pitch": 42, "duration": 20, "velocity": 81}, {"time": 2958, "pitch": 54, "duration": 3, "velocity": 79}, {"time": 2958, "pitch": 61, "duration": 6, "velocity": 79}, {"time": 2964, "pitch": 54, "duration": 2, "velocity": 66}, {"time": 2970, "pitch": 54, "duration": 1, "velocity": 70}, {"time": 2970, "pitch": 61, "duration": 2, "velocity": 74}, {"time": 2976, "pitch": 54, "duration": 2, "velocity": 72}, {"time": 2982, "pitch": 54, "duration": 3, "velocity": 79}, {"time": 2982, "pitch": 61, "duration": 8, "velocity": 75}, {"time": 2982, "pitch": 66, "duration": 8, "velocity": 73}, {"time": 2988, "pitch": 54, "duration": 2, "velocity": 63}, {"time": 2994, "pitch": 54, "duration": 2, "velocity": 80}, {"time": 2994, "pitch": 61, "duration": 6, "velocity": 81}, {"time": 3000, "pitch": 42, "duration": 3, "velocity": 80}, {"time": 3006, "pitch": 40, "duration": 38, "velocity": 85}, {"time": 3006, "pitch": 52, "duration": 4, "velocity": 76}, {"time": 3006, "pitch": 56, "duration": 6, "velocity": 72}, {"time": 3012, "pitch": 47, "duration": 32, "velocity": 74}, {"time": 3018, "pitch": 56, "duration": 2, "velocity": 71}, {"time": 3018, "pitch": 59, "duration": 2, "velocity": 71}, {"time": 3024, "pitch": 52, "duration": 2, "velocity": 67}, {"time": 3030, "pitch": 56, "duration": 2, "velocity": 78}, {"time": 3030, "pitch": 59, "duration": 3, "velocity": 77}, {"time": 3030, "pitch": 64, "duration": 6, "velocity": 73}, {"time": 3036, "pitch": 52, "duration": 1, "velocity": 44}, {"time": 3042, "pitch": 56, "duration": 2, "velocity": 83}, {"time": 3042, "pitch": 59, "duration": 3, "velocity": 83}, {"time": 3042, "pitch": 64, "duration": 4, "velocity": 80}, {"time": 3048, "pitch": 40, "duration": 2, "velocity": 83}, {"time": 3054, "pitch": 42, "duration": 39, "velocity": 85}, {"time": 3054, "pitch": 54, "duration": 4, "velocity": 82}, {"time": 3054, "pitch": 66, "duration": 5, "velocity": 77}, {"time": 3060, "pitch": 49, "duration": 22, "velocity": 73}, {"time": 3066, "pitch": 57, "duration": 2, "velocity": 64}, {"time": 3066, "pitch": 61, "duration": 2, "velocity": 72}, {"time": 3072, "pitch": 54, "duration": 3, "velocity": 60}, {"time": 3078, "pitch": 57, "duration": 2, "velocity": 73}, {"time": 3078, "pitch": 61, "duration": 2, "velocity": 79}, {"time": 3078, "pitch": 66, "duration": 4, "velocity": 70}, {"time": 3084, "pitch": 54, "duration": 2, "velocity": 72}, {"time": 3090, "pitch": 57, "duration": 4, "velocity": 81}, {"time": 3090, "pitch": 61, "duration": 5, "velocity": 83}, {"time": 3090, "pitch": 66, "duration": 5, "velocity": 79}, {"time": 3096, "pitch": 49, "duration": 2, "velocity": 80}, {"time": 3099, "pitch": 54, "duration": 2, "velocity": 85}, {"time": 3102, "pitch": 42, "duration": 10, "velocity": 85}, {"time": 3102, "pitch": 54, "duration": 4, "velocity": 81}, {"time": 3102, "pitch": 61, "duration": 8, "velocity": 78}, {"time": 3102, "pitch": 66, "duration": 5, "velocity": 78}, {"time": 3108, "pitch": 54, "duration": 3, "velocity": 83}, {"time": 3108, "pitch": 66, "duration": 1, "velocity": 65}, {"time": 3114, "pitch": 40, "duration": 8, "velocity": 84}, {"time": 3114, "pitch": 52, "duration": 6, "velocity": 84}, {"time": 3114, "pitch": 64, "duration": 6, "velocity": 80}, {"time": 3120, "pitch": 47, "duration": 3, "velocity": 81}, {"time": 3126, "pitch": 39, "duration": 9, "velocity": 95}, {"time": 3126, "pitch": 51, "duration": 4, "velocity": 83}, {"time": 3126, "pitch": 63, "duration": 9, "velocity": 81}, {"time": 3132, "pitch": 51, "duration": 3, "velocity": 85}, {"time": 3138, "pitch": 37, "duration": 12, "velocity": 90}, {"time": 3138, "pitch": 49, "duration": 5, "velocity": 88}, {"time": 3138, "pitch": 61, "duration": 12, "velocity": 80}, {"time": 3144, "pitch": 49, "duration": 5, "velocity": 81}, {"time": 3150, "pitch": 42, "duration": 44, "velocity": 81}, {"time": 3150, "pitch": 54, "duration": 3, "velocity": 79}, {"time": 3150, "pitch": 66, "duration": 4, "velocity": 80}, {"time": 3156, "pitch": 49, "duration": 37, "velocity": 73}, {"time": 3162, "pitch": 61, "duration": 2, "velocity": 81}, {"time": 3162, "pitch": 66, "duration": 2, "velocity": 80}, {"time": 3168, "pitch": 61, "duration": 1, "velocity": 73}, {"time": 3168, "pitch": 69, "duration": 1, "velocity": 72}, {"time": 3171, "pitch": 61, "duration": 1, "velocity": 72}, {"time": 3171, "pitch": 69, "duration": 1, "velocity": 71}, {"time": 3174, "pitch": 61, "duration": 3, "velocity": 80}, {"time": 3174, "pitch": 69, "duration": 4, "velocity": 84}, {"time": 3180, "pitch": 61, "duration": 2, "velocity": 80}, {"time": 3186, "pitch": 61, "duration": 3, "velocity": 81}, {"time": 3186, "pitch": 66, "duration": 4, "velocity": 83}, {"time": 3186, "pitch": 69, "duration": 7, "velocity": 83}, {"time": 3192, "pitch": 61, "duration": 3, "velocity": 71}, {"time": 3198, "pitch": 42, "duration": 28, "velocity": 83}, {"time": 3198, "pitch": 61, "duration": 8, "velocity": 80}, {"time": 3198, "pitch": 66, "duration": 8, "velocity": 81}, {"time": 3204, "pitch": 49, "duration": 21, "velocity": 62}, {"time": 3210, "pitch": 61, "duration": 2, "velocity": 79}, {"time": 3210, "pitch": 66, "duration": 2, "velocity": 80}, {"time": 3210, "pitch": 69, "duration": 2, "velocity": 80}, {"time": 3216, "pitch": 61, "duration": 1, "velocity": 62}, {"time": 3216, "pitch": 66, "duration": 1, "velocity": 71}, {"time": 3219, "pitch": 61, "duration": 1, "velocity": 79}, {"time": 3219, "pitch": 66, "duration": 1, "velocity": 79}, {"time": 3222, "pitch": 61, "duration": 3, "velocity": 84}, {"time": 3222, "pitch": 66, "duration": 3, "velocity": 82}, {"time": 3228, "pitch": 42, "duration": 3, "velocity": 81}, {"time": 3228, "pitch": 61, "duration": 2, "velocity": 79}, {"time": 3228, "pitch": 66, "duration": 2, "velocity": 80}, {"time": 3234, "pitch": 42, "duration": 6, "velocity": 84}, {"time": 3234, "pitch": 49, "duration": 5, "velocity": 84}, {"time": 3234, "pitch": 61, "duration": 3, "velocity": 80}, {"time": 3234, "pitch": 66, "duration": 4, "velocity": 84}, {"time": 3234, "pitch": 69, "duration": 7, "velocity": 86}, {"time": 3240, "pitch": 61, "duration": 3, "velocity": 80}, {"time": 3246, "pitch": 40, "duration": 28, "velocity": 81}, {"time": 3252, "pitch": 47, "duration": 21, "velocity": 74}, {"time": 3252, "pitch": 59, "duration": 3, "velocity": 80}, {"time": 3258, "pitch": 59, "duration": 2, "velocity": 81}, {"time": 3258, "pitch": 64, "duration": 3, "velocity": 84}, {"time": 3258, "pitch": 68, "duration": 3, "velocity": 84}, {"time": 3264, "pitch": 59, "duration": 1, "velocity": 66}, {"time": 3264, "pitch": 64, "duration": 1, "velocity": 70}, {"time": 3264, "pitch": 68, "duration": 1, "velocity": 65}, {"time": 3267, "pitch": 59, "duration": 1, "velocity": 71}, {"time": 3267, "pitch": 64, "duration": 1, "velocity": 73}, {"time": 3267, "pitch": 68, "duration": 1, "velocity": 69}, {"time": 3270, "pitch": 59, "duration": 2, "velocity": 77}, {"time": 3270, "pitch": 64, "duration": 2, "velocity": 80}, {"time": 3270, "pitch": 68, "duration": 3, "velocity": 81}, {"time": 3276, "pitch": 59, "duration": 2, "velocity": 78}, {"time": 3282, "pitch": 40, "duration": 5, "velocity": 80}, {"time": 3282, "pitch": 59, "duration": 2, "velocity": 81}, {"time": 3282, "pitch": 64, "duration": 4, "velocity": 79}, {"time": 3294, "pitch": 37, "duration": 16, "velocity": 83}, {"time": 3294, "pitch": 61, "duration": 3, "velocity": 80}, {"time": 3294, "pitch": 64, "duration": 4, "velocity": 83}, {"time": 3300, "pitch": 61, "duration": 1, "velocity": 70}, {"time": 3303, "pitch": 61, "duration": 1, "velocity": 56}, {"time": 3303, "pitch": 64, "duration": 1, "velocity": 61}, {"time": 3306, "pitch": 61, "duration": 2, "velocity": 75}, {"time": 3306, "pitch": 64, "duration": 2, "velocity": 78}, {"time": 3312, "pitch": 37, "duration": 3, "velocity": 84}, {"time": 3312, "pitch": 61, "duration": 3, "velocity": 78}, {"time": 3312, "pitch": 64, "duration": 3, "velocity": 74}, {"time": 3318, "pitch": 37, "duration": 9, "velocity": 88}, {"time": 3318, "pitch": 44, "duration": 8, "velocity": 81}, {"time": 3318, "pitch": 61, "duration": 3, "velocity": 80}, {"time": 3318, "pitch": 64, "duration": 5, "velocity": 81}, {"time": 3318, "pitch": 68, "duration": 7, "velocity": 86}, {"time": 3324, "pitch": 61, "duration": 2, "velocity": 75}, {"time": 3324, "pitch": 64, "duration": 1, "velocity": 47}, {"time": 3330, "pitch": 37, "duration": 1, "velocity": 85}, {"time": 3330, "pitch": 61, "duration": 2, "velocity": 80}, {"time": 3330, "pitch": 64, "duration": 3, "velocity": 79}, {"time": 3336, "pitch": 61, "duration": 3, "velocity": 78}, {"time": 3342, "pitch": 42, "duration": 15, "velocity": 81}, {"time": 3342, "pitch": 61, "duration": 3, "velocity": 80}, {"time": 3342, "pitch": 66, "duration": 3, "velocity": 80}, {"time": 3348, "pitch": 66, "duration": 1, "velocity": 73}, {"time": 3351, "pitch": 61, "duration": 1, "velocity": 64}, {"time": 3351, "pitch": 66, "duration": 1, "velocity": 69}, {"time": 3354, "pitch": 61, "duration": 1, "velocity": 71}, {"time": 3354, "pitch": 66, "duration": 1, "velocity": 75}, {"time": 3360, "pitch": 42, "duration": 3, "velocity": 81}, {"time": 3360, "pitch": 61, "duration": 3, "velocity": 78}, {"time": 3360, "pitch": 66, "duration": 2, "velocity": 80}, {"time": 3366, "pitch": 42, "duration": 15, "velocity": 81}, {"time": 3366, "pitch": 49, "duration": 15, "velocity": 86}, {"time": 3366, "pitch": 61, "duration": 3, "velocity": 80}, {"time": 3366, "pitch": 66, "duration": 4, "velocity": 81}, {"time": 3366, "pitch": 69, "duration": 8, "velocity": 83}, {"time": 3372, "pitch": 61, "duration": 3, "velocity": 71}, {"time": 3378, "pitch": 61, "duration": 2, "velocity": 79}, {"time": 3378, "pitch": 66, "duration": 3, "velocity": 82}, {"time": 3378, "pitch": 69, "duration": 4, "velocity": 85}, {"time": 3384, "pitch": 61, "duration": 3, "velocity": 83}, {"time": 3390, "pitch": 42, "duration": 16, "velocity": 84}, {"time": 3390, "pitch": 61, "duration": 4, "velocity": 80}, {"time": 3390, "pitch": 66, "duration": 4, "velocity": 80}, {"time": 3396, "pitch": 61, "duration": 1, "velocity": 65}, {"time": 3399, "pitch": 61, "duration": 1, "velocity": 66}, {"time": 3399, "pitch": 66, "duration": 1, "velocity": 68}, {"time": 3402, "pitch": 61, "duration": 2, "velocity": 73}, {"time": 3402, "pitch": 66, "duration": 2, "velocity": 74}, {"time": 3408, "pitch": 42, "duration": 3, "velocity": 80}, {"time": 3408, "pitch": 61, "duration": 3, "velocity": 77}, {"time": 3408, "pitch": 66, "duration": 3, "velocity": 74}, {"time": 3414, "pitch": 42, "duration": 10, "velocity": 80}, {"time": 3414, "pitch": 49, "duration": 8, "velocity": 80}, {"time": 3414, "pitch": 61, "duration": 3, "velocity": 79}, {"time": 3414, "pitch": 66, "duration": 4, "velocity": 79}, {"time": 3414, "pitch": 69, "duration": 8, "velocity": 81}, {"time": 3420, "pitch": 61, "duration": 2, "velocity": 79}, {"time": 3426, "pitch": 61, "duration": 2, "velocity": 83}, {"time": 3426, "pitch": 66, "duration": 6, "velocity": 84}, {"time": 3432, "pitch": 61, "duration": 2, "velocity": 73}, {"time": 3438, "pitch": 40, "duration": 15, "velocity": 81}, {"time": 3438, "pitch": 59, "duration": 3, "velocity": 82}, {"time": 3438, "pitch": 64, "duration": 4, "velocity": 81}, {"time": 3444, "pitch": 59, "duration": 1, "velocity": 68}, {"time": 3444, "pitch": 64, "duration": 1, "velocity": 68}, {"time": 3447, "pitch": 59, "duration": 1, "velocity": 69}, {"time": 3447, "pitch": 64, "duration": 1, "velocity": 70}, {"time": 3450, "pitch": 59, "duration": 2, "velocity": 73}, {"time": 3450, "pitch": 64, "duration": 2, "velocity": 73}, {"time": 3456, "pitch": 40, "duration": 4, "velocity": 80}, {"time": 3456, "pitch": 59, "duration": 4, "velocity": 77}, {"time": 3456, "pitch": 64, "duration": 4, "velocity": 77}, {"time": 3462, "pitch": 40, "duration": 6, "velocity": 79}, {"time": 3462, "pitch": 47, "duration": 4, "velocity": 79}, {"time": 3462, "pitch": 59, "duration": 3, "velocity": 80}, {"time": 3462, "pitch": 64, "duration": 4, "velocity": 79}, {"time": 3462, "pitch": 68, "duration": 4, "velocity": 80}, {"time": 3468, "pitch": 59, "duration": 2, "velocity": 76}, {"time": 3474, "pitch": 59, "duration": 1, "velocity": 80}, {"time": 3474, "pitch": 64, "duration": 2, "velocity": 82}, {"time": 3474, "pitch": 68, "duration": 3, "velocity": 81}, {"time": 3480, "pitch": 59, "duration": 2, "velocity": 71}, {"time": 3486, "pitch": 37, "duration": 16, "velocity": 83}, {"time": 3486, "pitch": 61, "duration": 5, "velocity": 76}, {"time": 3486, "pitch": 64, "duration": 5, "velocity": 80}, {"time": 3498, "pitch": 61, "duration": 2, "velocity": 80}, {"time": 3498, "pitch": 64, "duration": 2, "velocity": 84}, {"time": 3504, "pitch": 61, "duration": 3, "velocity": 79}, {"time": 3510, "pitch": 37, "duration": 14, "velocity": 83}, {"time": 3510, "pitch": 61, "duration": 3, "velocity": 80}, {"time": 3510, "pitch": 64, "duration": 3, "velocity": 80}, {"time": 3516, "pitch": 61, "duration": 1, "velocity": 69}, {"time": 3516, "pitch": 64, "duration": 1, "velocity": 72}, {"time": 3519, "pitch": 61, "duration": 1, "velocity": 72}, {"time": 3519, "pitch": 64, "duration": 1, "velocity": 78}, {"time": 3522, "pitch": 61, "duration": 2, "velocity": 81}, {"time": 3522, "pitch": 64, "duration": 3, "velocity": 82}, {"time": 3528, "pitch": 37, "duration": 2, "velocity": 88}, {"time": 3534, "pitch": 37, "duration": 24, "velocity": 95}, {"time": 3534, "pitch": 44, "duration": 24, "velocity": 85}, {"time": 3534, "pitch": 61, "duration": 44, "velocity": 81}, {"time": 3534, "pitch": 68, "duration": 44, "velocity": 80}, {"time": 3582, "pitch": 42, "duration": 10, "velocity": 85}, {"time": 3582, "pitch": 54, "duration": 4, "velocity": 81}, {"time": 3582, "pitch": 61, "duration": 8, "velocity": 78}, {"time": 3582, "pitch": 66, "duration": 5, "velocity": 78}, {"time": 3588, "pitch": 54, "duration": 3, "velocity": 83}, {"time": 3588, "pitch": 66, "duration": 1, "velocity": 65}, {"time": 3594, "pitch": 40, "duration": 8, "velocity": 84}, {"time": 3594, "pitch": 52, "duration": 6, "velocity": 84}, {"time": 3594, "pitch": 64, "duration": 6, "velocity": 80}, {"time": 3600, "pitch": 47, "duration": 3, "velocity": 81}, {"time": 3606, "pitch": 39, "duration": 9, "velocity": 95}, {"time": 3606, "pitch": 51, "duration": 4, "velocity": 83}, {"time": 3606, "pitch": 63, "duration": 9, "velocity": 81}, {"time": 3612, "pitch": 51, "duration": 3, "velocity": 85}, {"time": 3618, "pitch": 37, "duration": 12, "velocity": 90}, {"time": 3618, "pitch": 49, "duration": 5, "velocity": 88}, {"time": 3618, "pitch": 61, "duration": 12, "velocity": 80}, {"time": 3624, "pitch": 49, "duration": 5, "velocity": 81}, {"time": 3630, "pitch": 42, "duration": 44, "velocity": 81}, {"time": 3630, "pitch": 54, "duration": 3, "velocity": 79}, {"time": 3630, "pitch": 66, "duration": 4, "velocity": 80}, {"time": 3636, "pitch": 49, "duration": 37, "velocity": 73}, {"time": 3642, "pitch": 61, "duration": 2, "velocity": 81}, {"time": 3642, "pitch": 66, "duration": 2, "velocity": 80}, {"time": 3648, "pitch": 61, "duration": 1, "velocity": 73}, {"time": 3648, "pitch": 69, "duration": 1, "velocity": 72}, {"time": 3651, "pitch": 61, "duration": 1, "velocity": 72}, {"time": 3651, "pitch": 69, "duration": 1, "velocity": 71}, {"time": 3654, "pitch": 61, "duration": 3, "velocity": 80}, {"time": 3654, "pitch": 69, "duration": 4, "velocity": 84}, {"time": 3660, "pitch": 61, "duration": 2, "velocity": 80}, {"time": 3666, "pitch": 61, "duration": 3, "velocity": 81}, {"time": 3666, "pitch": 66, "duration": 4, "velocity": 83}, {"time": 3666, "pitch": 69, "duration": 7, "velocity": 83}, {"time": 3672, "pitch": 61, "duration": 3, "velocity": 71}, {"time": 3678, "pitch": 42, "duration": 28, "velocity": 83}, {"time": 3678, "pitch": 61, "duration": 8, "velocity": 80}, {"time": 3678, "pitch": 66, "duration": 8, "velocity": 81}, {"time": 3684, "pitch": 49, "duration": 21, "velocity": 62}, {"time": 3690, "pitch": 61, "duration": 2, "velocity": 79}, {"time": 3690, "pitch": 66, "duration": 2, "velocity": 80}, {"time": 3690, "pitch": 69, "duration": 2, "velocity": 80}, {"time": 3696, "pitch": 61, "duration": 1, "velocity": 62}, {"time": 3696, "pitch": 66, "duration": 1, "velocity": 71}, {"time": 3699, "pitch": 61, "duration": 1, "velocity": 79}, {"time": 3699, "pitch": 66, "duration": 1, "velocity": 79}, {"time": 3702, "pitch": 61, "duration": 3, "velocity": 84}, {"time": 3702, "pitch": 66, "duration": 3, "velocity": 82}, {"time": 3708, "pitch": 42, "duration": 3, "velocity": 81}, {"time": 3708, "pitch": 61, "duration": 2, "velocity": 79}, {"time": 3708, "pitch": 66, "duration": 2, "velocity": 80}, {"time": 3714, "pitch": 42, "duration": 6, "velocity": 84}, {"time": 3714, "pitch": 49, "duration": 5, "velocity": 84}, {"time": 3714, "pitch": 61, "duration": 3, "velocity": 80}, {"time": 3714, "pitch": 66, "duration": 4, "velocity": 84}, {"time": 3714, "pitch": 69, "duration": 7, "velocity": 86}, {"time": 3720, "pitch": 61, "duration": 3, "velocity": 80}, {"time": 3726, "pitch": 40, "duration": 28, "velocity": 81}, {"time": 3732, "pitch": 47, "duration": 21, "velocity": 74}, {"time": 3732, "pitch": 59, "duration": 3, "velocity": 80}, {"time": 3738, "pitch": 59, "duration": 2, "velocity": 81}, {"time": 3738, "pitch": 64, "duration": 3, "velocity": 84}, {"time": 3738, "pitch": 68, "duration": 3, "velocity": 84}, {"time": 3744, "pitch": 59, "duration": 1, "velocity": 66}, {"time": 3744, "pitch": 64, "duration": 1, "velocity": 70}, {"time": 3744, "pitch": 68, "duration": 1, "velocity": 65}, {"time": 3747, "pitch": 59, "duration": 1, "velocity": 71}, {"time": 3747, "pitch": 64, "duration": 1, "velocity": 73}, {"time": 3747, "pitch": 68, "duration": 1, "velocity": 69}, {"time": 3750, "pitch": 59, "duration": 2, "velocity": 77}, {"time": 3750, "pitch": 64, "duration": 2, "velocity": 80}, {"time": 3750, "pitch": 68, "duration": 3, "velocity": 81}, {"time": 3756, "pitch": 59, "duration": 2, "velocity": 78}, {"time": 3762, "pitch": 40, "duration": 5, "velocity": 80}, {"time": 3762, "pitch": 59, "duration": 2, "velocity": 81}, {"time": 3762, "pitch": 64, "duration": 4, "velocity": 79}, {"time": 3774, "pitch": 37, "duration": 16, "velocity": 83}, {"time": 3774, "pitch": 61, "duration": 3, "velocity": 80}, {"time": 3774, "pitch": 64, "duration": 4, "velocity": 83}, {"time": 3780, "pitch": 61, "duration": 1, "velocity": 70}, {"time": 3783, "pitch": 61, "duration": 1, "velocity": 56}, {"time": 3783, "pitch": 64, "duration": 1, "velocity": 61}, {"time": 3786, "pitch": 61, "duration": 2, "velocity": 75}, {"time": 3786, "pitch": 64, "duration": 2, "velocity": 78}, {"time": 3792, "pitch": 37, "duration": 3, "velocity": 84}, {"time": 3792, "pitch": 61, "duration": 3, "velocity": 78}, {"time": 3792, "pitch": 64, "duration": 3, "velocity": 74}, {"time": 3798, "pitch": 37, "duration": 9, "velocity": 88}, {"time": 3798, "pitch": 44, "duration": 8, "velocity": 81}, {"time": 3798, "pitch": 61, "duration": 3, "velocity": 80}, {"time": 3798, "pitch": 64, "duration": 5, "velocity": 81}, {"time": 3798, "pitch": 68, "duration": 7, "velocity": 86}, {"time": 3804, "pitch": 61, "duration": 2, "velocity": 75}, {"time": 3804, "pitch": 64, "duration": 1, "velocity": 47}, {"time": 3810, "pitch": 37, "duration": 1, "velocity": 85}, {"time": 3810, "pitch": 61, "duration": 2, "velocity": 80}, {"time": 3810, "pitch": 64, "duration": 3, "velocity": 79}, {"time": 3816, "pitch": 61, "duration": 3, "velocity": 78}, {"time": 3822, "pitch": 42, "duration": 15, "velocity": 81}, {"time": 3822, "pitch": 61, "duration": 3, "velocity": 80}, {"time": 3822, "pitch": 66, "duration": 3, "velocity": 80}, {"time": 3828, "pitch": 66, "duration": 1, "velocity": 73}, {"time": 3831, "pitch": 61, "duration": 1, "velocity": 64}, {"time": 3831, "pitch": 66, "duration": 1, "velocity": 69}, {"time": 3834, "pitch": 61, "duration": 1, "velocity": 71}, {"time": 3834, "pitch": 66, "duration": 1, "velocity": 75}, {"time": 3840, "pitch": 42, "duration": 3, "velocity": 81}, {"time": 3840, "pitch": 61, "duration": 3, "velocity": 78}, {"time": 3840, "pitch": 66, "duration": 2, "velocity": 80}, {"time": 3846, "pitch": 42, "duration": 15, "velocity": 81}, {"time": 3846, "pitch": 49, "duration": 15, "velocity": 86}, {"time": 3846, "pitch": 61, "duration": 3, "velocity": 80}, {"time": 3846, "pitch": 66, "duration": 4, "velocity": 81}, {"time": 3846, "pitch": 69, "duration": 8, "velocity": 83}, {"time": 3852, "pitch": 61, "duration": 3, "velocity": 71}, {"time": 3858, "pitch": 61, "duration": 2, "velocity": 79}, {"time": 3858, "pitch": 66, "duration": 3, "velocity": 82}, {"time": 3858, "pitch": 69, "duration": 4, "velocity": 85}, {"time": 3864, "pitch": 61, "duration": 3, "velocity": 83}, {"time": 3870, "pitch": 42, "duration": 16, "velocity": 84}, {"time": 3870, "pitch": 61, "duration": 4, "velocity": 80}, {"time": 3870, "pitch": 66, "duration": 4, "velocity": 80}, {"time": 3876, "pitch": 61, "duration": 1, "velocity": 65}, {"time": 3879, "pitch": 61, "duration": 1, "velocity": 66}, {"time": 3879, "pitch": 66, "duration": 1, "velocity": 68}, {"time": 3882, "pitch": 61, "duration": 2, "velocity": 73}, {"time": 3882, "pitch": 66, "duration": 2, "velocity": 74}, {"time": 3888, "pitch": 42, "duration": 3, "velocity": 80}, {"time": 3888, "pitch": 61, "duration": 3, "velocity": 77}, {"time": 3888, "pitch": 66, "duration": 3, "velocity": 74}, {"time": 3894, "pitch": 42, "duration": 10, "velocity": 80}, {"time": 3894, "pitch": 49, "duration": 8, "velocity": 80}, {"time": 3894, "pitch": 61, "duration": 3, "velocity": 79}, {"time": 3894, "pitch": 66, "duration": 4, "velocity": 79}, {"time": 3894, "pitch": 69, "duration": 8, "velocity": 81}, {"time": 3900, "pitch": 61, "duration": 2, "velocity": 79}, {"time": 3906, "pitch": 61, "duration": 2, "velocity": 83}, {"time": 3906, "pitch": 66, "duration": 6, "velocity": 84}, {"time": 3912, "pitch": 61, "duration": 2, "velocity": 73}, {"time": 3918, "pitch": 40, "duration": 15, "velocity": 81}, {"time": 3918, "pitch": 59, "duration": 3, "velocity": 82}, {"time": 3918, "pitch": 64, "duration": 4, "velocity": 81}, {"time": 3924, "pitch": 59, "duration": 1, "velocity": 68}, {"time": 3924, "pitch": 64, "duration": 1, "velocity": 68}, {"time": 3927, "pitch": 59, "duration": 1, "velocity": 69}, {"time": 3927, "pitch": 64, "duration": 1, "velocity": 70}, {"time": 3930, "pitch": 59, "duration": 2, "velocity": 73}, {"time": 3930, "pitch": 64, "duration": 2, "velocity": 73}, {"time": 3936, "pitch": 40, "duration": 4, "velocity": 80}, {"time": 3936, "pitch": 59, "duration": 4, "velocity": 77}, {"time": 3936, "pitch": 64, "duration": 4, "velocity": 77}, {"time": 3942, "pitch": 40, "duration": 6, "velocity": 79}, {"time": 3942, "pitch": 47, "duration": 4, "velocity": 79}, {"time": 3942, "pitch": 59, "duration": 3, "velocity": 80}, {"time": 3942, "pitch": 64, "duration": 4, "velocity": 79}, {"time": 3942, "pitch": 68, "duration": 4, "velocity": 80}, {"time": 3948, "pitch": 59, "duration": 2, "velocity": 76}, {"time": 3954, "pitch": 59, "duration": 1, "velocity": 80}, {"time": 3954, "pitch": 64, "duration": 2, "velocity": 82}, {"time": 3954, "pitch": 68, "duration": 3, "velocity": 81}, {"time": 3960, "pitch": 59, "duration": 2, "velocity": 71}, {"time": 3966, "pitch": 37, "duration": 16, "velocity": 83}, {"time": 3966, "pitch": 61, "duration": 5, "velocity": 76}, {"time": 3966, "pitch": 64, "duration": 5, "velocity": 80}, {"time": 3978, "pitch": 61, "duration": 2, "velocity": 80}, {"time": 3978, "pitch": 64, "duration": 2, "velocity": 84}, {"time": 3984, "pitch": 61, "duration": 3, "velocity": 79}, {"time": 3990, "pitch": 37, "duration": 14, "velocity": 83}, {"time": 3990, "pitch": 61, "duration": 3, "velocity": 80}, {"time": 3990, "pitch": 64, "duration": 3, "velocity": 80}, {"time": 3996, "pitch": 61, "duration": 1, "velocity": 69}, {"time": 3996, "pitch": 64, "duration": 1, "velocity": 72}, {"time": 3999, "pitch": 61, "duration": 1, "velocity": 72}, {"time": 3999, "pitch": 64, "duration": 1, "velocity": 78}, {"time": 4002, "pitch": 61, "duration": 2, "velocity": 81}, {"time": 4002, "pitch": 64, "duration": 3, "velocity": 82}, {"time": 4008, "pitch": 37, "duration": 2, "velocity": 88}, {"time": 4014, "pitch": 37, "duration": 24, "velocity": 95}, {"time": 4014, "pitch": 44, "duration": 24, "velocity": 85}, {"time": 4014, "pitch": 61, "duration": 44, "velocity": 81}, {"time": 4014, "pitch": 68, "duration": 44, "velocity": 80}, {"time": 4061, "pitch": 54, "duration": 3, "velocity": 79}, {"time": 4062, "pitch": 42, "duration": 17, "velocity": 93}, {"time": 4062, "pitch": 49, "duration": 18, "velocity": 108}, {"time": 4064, "pitch": 66, "duration": 2, "velocity": 78}, {"time": 4065, "pitch": 54, "duration": 2, "velocity": 73}, {"time": 4067, "pitch": 66, "duration": 2, "velocity": 77}, {"time": 4068, "pitch": 54, "duration": 2, "velocity": 76}, {"time": 4070, "pitch": 66, "duration": 2, "velocity": 78}, {"time": 4071, "pitch": 54, "duration": 2, "velocity": 62}, {"time": 4073, "pitch": 66, "duration": 1, "velocity": 78}, {"time": 4075, "pitch": 54, "duration": 1, "velocity": 27}, {"time": 4075, "pitch": 61, "duration": 1, "velocity": 81}, {"time": 4078, "pitch": 61, "duration": 1, "velocity": 81}, {"time": 4078, "pitch": 54, "duration": 1, "velocity": 58}, {"time": 4078, "pitch": 66, "duration": 1, "velocity": 72}, {"time": 4080, "pitch": 66, "duration": 2, "velocity": 77}, {"time": 4081, "pitch": 61, "duration": 1, "velocity": 82}, {"time": 4081, "pitch": 54, "duration": 1, "velocity": 67}, {"time": 4083, "pitch": 66, "duration": 2, "velocity": 80}, {"time": 4083, "pitch": 61, "duration": 1, "velocity": 85}, {"time": 4083, "pitch": 54, "duration": 2, "velocity": 75}, {"time": 4084, "pitch": 42, "duration": 4, "velocity": 81}, {"time": 4084, "pitch": 49, "duration": 3, "velocity": 85}, {"time": 4086, "pitch": 66, "duration": 1, "velocity": 77}, {"time": 4086, "pitch": 61, "duration": 1, "velocity": 88}, {"time": 4086, "pitch": 54, "duration": 2, "velocity": 77}, {"time": 4089, "pitch": 61, "duration": 1, "velocity": 85}, {"time": 4089, "pitch": 66, "duration": 1, "velocity": 75}, {"time": 4089, "pitch": 54, "duration": 1, "velocity": 75}, {"time": 4092, "pitch": 61, "duration": 1, "velocity": 80}, {"time": 4092, "pitch": 54, "duration": 1, "velocity": 68}, {"time": 4094, "pitch": 61, "duration": 1, "velocity": 76}, {"time": 4095, "pitch": 54, "duration": 1, "velocity": 55}, {"time": 4097, "pitch": 61, "duration": 1, "velocity": 77}, {"time": 4097, "pitch": 54, "duration": 2, "velocity": 63}, {"time": 4100, "pitch": 61, "duration": 1, "velocity": 73}, {"time": 4100, "pitch": 54, "duration": 1, "velocity": 59}, {"time": 4103, "pitch": 61, "duration": 1, "velocity": 70}, {"time": 4103, "pitch": 54, "duration": 1, "velocity": 66}, {"time": 4105, "pitch": 66, "duration": 1, "velocity": 69}, {"time": 4105, "pitch": 61, "duration": 1, "velocity": 75}, {"time": 4106, "pitch": 54, "duration": 1, "velocity": 67}, {"time": 4108, "pitch": 66, "duration": 1, "velocity": 59}, {"time": 4108, "pitch": 61, "duration": 1, "velocity": 72}, {"time": 4108, "pitch": 42, "duration": 2, "velocity": 83}, {"time": 4108, "pitch": 49, "duration": 1, "velocity": 86}, {"time": 4108, "pitch": 54, "duration": 1, "velocity": 63}, {"time": 4111, "pitch": 66, "duration": 1, "velocity": 64}, {"time": 4111, "pitch": 61, "duration": 1, "velocity": 79}, {"time": 4111, "pitch": 54, "duration": 1, "velocity": 73}, {"time": 4113, "pitch": 66, "duration": 1, "velocity": 64}, {"time": 4113, "pitch": 61, "duration": 1, "velocity": 75}, {"time": 4114, "pitch": 54, "duration": 1, "velocity": 73}, {"time": 4116, "pitch": 66, "duration": 1, "velocity": 63}, {"time": 4116, "pitch": 61, "duration": 1, "velocity": 75}, {"time": 4116, "pitch": 54, "duration": 2, "velocity": 71}, {"time": 4119, "pitch": 61, "duration": 1, "velocity": 79}, {"time": 4120, "pitch": 54, "duration": 1, "velocity": 68}, {"time": 4122, "pitch": 61, "duration": 1, "velocity": 78}, {"time": 4122, "pitch": 54, "duration": 2, "velocity": 71}, {"time": 4125, "pitch": 61, "duration": 2, "velocity": 73}, {"time": 4126, "pitch": 54, "duration": 1, "velocity": 68}, {"time": 4128, "pitch": 61, "duration": 2, "velocity": 67}, {"time": 4129, "pitch": 54, "duration": 1, "velocity": 66}, {"time": 4131, "pitch": 54, "duration": 3, "velocity": 61}, {"time": 4131, "pitch": 61, "duration": 2, "velocity": 70}, {"time": 4132, "pitch": 42, "duration": 17, "velocity": 85}, {"time": 4132, "pitch": 49, "duration": 17, "velocity": 86}, {"time": 4133, "pitch": 66, "duration": 2, "velocity": 65}, {"time": 4134, "pitch": 61, "duration": 1, "velocity": 71}, {"time": 4136, "pitch": 66, "duration": 2, "velocity": 54}, {"time": 4136, "pitch": 61, "duration": 2, "velocity": 72}, {"time": 4137, "pitch": 54, "duration": 1, "velocity": 69}, {"time": 4139, "pitch": 66, "duration": 1, "velocity": 68}, {"time": 4139, "pitch": 61, "duration": 2, "velocity": 73}, {"time": 4140, "pitch": 54, "duration": 1, "velocity": 62}, {"time": 4142, "pitch": 61, "duration": 2, "velocity": 72}, {"time": 4142, "pitch": 66, "duration": 2, "velocity": 66}, {"time": 4143, "pitch": 54, "duration": 1, "velocity": 67}, {"time": 4145, "pitch": 61, "duration": 2, "velocity": 80}, {"time": 4146, "pitch": 54, "duration": 1, "velocity": 68}, {"time": 4148, "pitch": 61, "duration": 2, "velocity": 73}, {"time": 4148, "pitch": 54, "duration": 2, "velocity": 65}, {"time": 4151, "pitch": 61, "duration": 2, "velocity": 72}, {"time": 4151, "pitch": 54, "duration": 2, "velocity": 64}, {"time": 4154, "pitch": 54, "duration": 2, "velocity": 66}, {"time": 4154, "pitch": 61, "duration": 2, "velocity": 74}, {"time": 4157, "pitch": 42, "duration": 15, "velocity": 83}, {"time": 4157, "pitch": 49, "duration": 15, "velocity": 75}, {"time": 4157, "pitch": 66, "duration": 2, "velocity": 65}, {"time": 4157, "pitch": 61, "duration": 2, "velocity": 73}, {"time": 4158, "pitch": 54, "duration": 1, "velocity": 56}, {"time": 4160, "pitch": 66, "duration": 1, "velocity": 59}, {"time": 4160, "pitch": 61, "duration": 2, "velocity": 72}, {"time": 4161, "pitch": 54, "duration": 2, "velocity": 68}, {"time": 4163, "pitch": 66, "duration": 2, "velocity": 67}, {"time": 4163, "pitch": 61, "duration": 2, "velocity": 75}, {"time": 4164, "pitch": 54, "duration": 1, "velocity": 70}, {"time": 4166, "pitch": 61, "duration": 2, "velocity": 65}, {"time": 4167, "pitch": 54, "duration": 4, "velocity": 69}, {"time": 4169, "pitch": 61, "duration": 2, "velocity": 70}, {"time": 4170, "pitch": 66, "duration": 1, "velocity": 47}, {"time": 4172, "pitch": 54, "duration": 2, "velocity": 63}, {"time": 4173, "pitch": 61, "duration": 1, "velocity": 72}, {"time": 4173, "pitch": 66, "duration": 1, "velocity": 55}, {"time": 4175, "pitch": 54, "duration": 2, "velocity": 65}, {"time": 4176, "pitch": 61, "duration": 1, "velocity": 74}, {"time": 4176, "pitch": 66, "duration": 1, "velocity": 53}, {"time": 4178, "pitch": 66, "duration": 2, "velocity": 74}, {"time": 4178, "pitch": 61, "duration": 2, "velocity": 75}, {"time": 4179, "pitch": 54, "duration": 4, "velocity": 66}, {"time": 4181, "pitch": 66, "duration": 2, "velocity": 74}, {"time": 4181, "pitch": 61, "duration": 2, "velocity": 80}, {"time": 4182, "pitch": 42, "duration": 2, "velocity": 86}, {"time": 4182, "pitch": 49, "duration": 1, "velocity": 88}, {"time": 4185, "pitch": 61, "duration": 1, "velocity": 81}, {"time": 4185, "pitch": 66, "duration": 1, "velocity": 73}, {"time": 4185, "pitch": 54, "duration": 1, "velocity": 75}, {"time": 4188, "pitch": 61, "duration": 1, "velocity": 80}, {"time": 4188, "pitch": 66, "duration": 1, "velocity": 73}, {"time": 4188, "pitch": 54, "duration": 2, "velocity": 71}, {"time": 4191, "pitch": 61, "duration": 1, "velocity": 80}, {"time": 4191, "pitch": 66, "duration": 2, "velocity": 75}, {"time": 4191, "pitch": 54, "duration": 2, "velocity": 70}, {"time": 4194, "pitch": 42, "duration": 1, "velocity": 83}, {"time": 4194, "pitch": 49, "duration": 1, "velocity": 82}, {"time": 4194, "pitch": 61, "duration": 1, "velocity": 79}, {"time": 4195, "pitch": 54, "duration": 1, "velocity": 56}, {"time": 4198, "pitch": 61, "duration": 1, "velocity": 78}, {"time": 4198, "pitch": 54, "duration": 1, "velocity": 67}, {"time": 4199, "pitch": 42, "duration": 1, "velocity": 78}, {"time": 4201, "pitch": 61, "duration": 1, "velocity": 80}, {"time": 4201, "pitch": 54, "duration": 1, "velocity": 69}, {"time": 4201, "pitch": 66, "duration": 1, "velocity": 68}, {"time": 4204, "pitch": 66, "duration": 1, "velocity": 74}, {"time": 4204, "pitch": 61, "duration": 1, "velocity": 81}, {"time": 4204, "pitch": 54, "duration": 1, "velocity": 69}, {"time": 4205, "pitch": 42, "duration": 14, "velocity": 90}, {"time": 4205, "pitch": 49, "duration": 14, "velocity": 96}, {"time": 4206, "pitch": 54, "duration": 17, "velocity": 76}, {"time": 4206, "pitch": 66, "duration": 16, "velocity": 83}, {"time": 4206, "pitch": 61, "duration": 17, "velocity": 90}], "annotations": [{"time": 72, "annotation": {"number": 64, "value": 127}, "group": "control_change"}, {"time": 72, "annotation": {"number": 64, "value": 0}, "group": "control_change"}, {"time": 223, "annotation": {"number": 64, "value": 127}, "group": "control_change"}, {"time": 223, "annotation": {"number": 64, "value": 0}, "group": "control_change"}, {"time": 312, "annotation": {"number": 64, "value": 127}, "group": "control_change"}, {"time": 317, "annotation": {"number": 64, "value": 0}, "group": "control_change"}, {"time": 364, "annotation": {"number": 64, "value": 0}, "group": "control_change"}, {"time": 366, "annotation": {"number": 64, "value": 127}, "group": "control_change"}, {"time": 411, "annotation": {"number": 64, "value": 0}, "group": "control_change"}, {"time": 414, "annotation": {"number": 64, "value": 127}, "group": "control_change"}, {"time": 437, "annotation": {"number": 64, "value": 0}, "group": "control_change"}, {"time": 440, "annotation": {"number": 64, "value": 127}, "group": "control_change"}, {"time": 461, "annotation": {"number": 64, "value": 0}, "group": "control_change"}, {"time": 464, "annotation": {"number": 64, "value": 127}, "group": "control_change"}, {"time": 507, "annotation": {"number": 64, "value": 0}, "group": "control_change"}, {"time": 510, "annotation": {"number": 64, "value": 127}, "group": "control_change"}, {"time": 554, "annotation": {"number": 64, "value": 0}, "group": "control_change"}, {"time": 557, "annotation": {"number": 64, "value": 127}, "group": "control_change"}, {"time": 603, "annotation": {"number": 64, "value": 0}, "group": "control_change"}, {"time": 605, "annotation": {"number": 64, "value": 127}, "group": "control_change"}, {"time": 629, "annotation": {"number": 64, "value": 0}, "group": "control_change"}, {"time": 631, "annotation": {"number": 64, "value": 127}, "group": "control_change"}, {"time": 651, "annotation": {"number": 64, "value": 0}, "group": "control_change"}, {"time": 654, "annotation": {"number": 64, "value": 127}, "group": "control_change"}, {"time": 700, "annotation": {"number": 64, "value": 0}, "group": "control_change"}, {"time": 703, "annotation": {"number": 64, "value": 127}, "group": "control_change"}, {"time": 749, "annotation": {"number": 64, "value": 0}, "group": "control_change"}, {"time": 752, "annotation": {"number": 64, "value": 127}, "group": "control_change"}, {"time": 795, "annotation": {"number": 64, "value": 0}, "group": "control_change"}, {"time": 798, "annotation": {"number": 64, "value": 127}, "group": "control_change"}, {"time": 844, "annotation": {"number": 64, "value": 0}, "group": "control_change"}, {"time": 846, "annotation": {"number": 64, "value": 127}, "group": "control_change"}, {"time": 892, "annotation": {"number": 64, "value": 0}, "group": "control_change"}, {"time": 894, "annotation": {"number": 64, "value": 127}, "group": "control_change"}, {"time": 940, "annotation": {"number": 64, "value": 0}, "group": "control_change"}, {"time": 943, "annotation": {"number": 64, "value": 127}, "group": "control_change"}, {"time": 989, "annotation": {"number": 64, "value": 0}, "group": "control_change"}, {"time": 991, "annotation": {"number": 64, "value": 127}, "group": "control_change"}, {"time": 1035, "annotation": {"number": 64, "value": 0}, "group": "control_change"}, {"time": 1038, "annotation": {"number": 64, "value": 127}, "group": "control_change"}, {"time": 1087, "annotation": {"number": 64, "value": 127}, "group": "control_change"}, {"time": 1133, "annotation": {"number": 64, "value": 0}, "group": "control_change"}, {"time": 1136, "annotation": {"number": 64, "value": 127}, "group": "control_change"}, {"time": 1179, "annotation": {"number": 64, "value": 0}, "group": "control_change"}, {"time": 1182, "annotation": {"number": 64, "value": 127}, "group": "control_change"}, {"time": 1228, "annotation": {"number": 64, "value": 0}, "group": "control_change"}, {"time": 1230, "annotation": {"number": 64, "value": 127}, "group": "control_change"}, {"time": 1276, "annotation": {"number": 64, "value": 0}, "group": "control_change"}, {"time": 1278, "annotation": {"number": 64, "value": 127}, "group": "control_change"}, {"time": 1324, "annotation": {"number": 64, "value": 0}, "group": "control_change"}, {"time": 1327, "annotation": {"number": 64, "value": 127}, "group": "control_change"}, {"time": 1373, "annotation": {"number": 64, "value": 0}, "group": "control_change"}, {"time": 1375, "annotation": {"number": 64, "value": 127}, "group": "control_change"}, {"time": 1419, "annotation": {"number": 64, "value": 0}, "group": "control_change"}, {"time": 1422, "annotation": {"number": 64, "value": 127}, "group": "control_change"}, {"time": 1462, "annotation": {"number": 64, "value": 127}, "group": "control_change"}, {"time": 1465, "annotation": {"number": 64, "value": 0}, "group": "control_change"}, {"time": 1469, "annotation": {"number": 64, "value": 127}, "group": "control_change"}, {"time": 1492, "annotation": {"number": 64, "value": 0}, "group": "control_change"}, {"time": 1493, "annotation": {"number": 64, "value": 127}, "group": "control_change"}, {"time": 1515, "annotation": {"number": 64, "value": 0}, "group": "control_change"}, {"time": 1518, "annotation": {"number": 64, "value": 127}, "group": "control_change"}, {"time": 1564, "annotation": {"number": 64, "value": 0}, "group": "control_change"}, {"time": 1567, "annotation": {"number": 64, "value": 127}, "group": "control_change"}, {"time": 1613, "annotation": {"number": 64, "value": 0}, "group": "control_change"}, {"time": 1615, "annotation": {"number": 64, "value": 127}, "group": "control_change"}, {"time": 1660, "annotation": {"number": 64, "value": 0}, "group": "control_change"}, {"time": 1662, "annotation": {"number": 64, "value": 127}, "group": "control_change"}, {"time": 1706, "annotation": {"number": 64, "value": 0}, "group": "control_change"}, {"time": 1710, "annotation": {"number": 64, "value": 127}, "group": "control_change"}, {"time": 1756, "annotation": {"number": 64, "value": 0}, "group": "control_change"}, {"time": 1759, "annotation": {"number": 64, "value": 127}, "group": "control_change"}, {"time": 1804, "annotation": {"number": 64, "value": 0}, "group": "control_change"}, {"time": 1806, "annotation": {"number": 64, "value": 127}, "group": "control_change"}, {"time": 1822, "annotation": {"number": 64, "value": 0}, "group": "control_change"}, {"time": 1824, "annotation": {"number": 64, "value": 127}, "group": "control_change"}, {"time": 1852, "annotation": {"number": 64, "value": 0}, "group": "control_change"}, {"time": 1854, "annotation": {"number": 64, "value": 127}, "group": "control_change"}, {"time": 1900, "annotation": {"number": 64, "value": 0}, "group": "control_change"}, {"time": 1903, "annotation": {"number": 64, "value": 127}, "group": "control_change"}, {"time": 1996, "annotation": {"number": 64, "value": 0}, "group": "control_change"}, {"time": 1998, "annotation": {"number": 64, "value": 127}, "group": "control_change"}, {"time": 2043, "annotation": {"number": 64, "value": 0}, "group": "control_change"}, {"time": 2046, "annotation": {"number": 64, "value": 127}, "group": "control_change"}, {"time": 2069, "annotation": {"number": 64, "value": 0}, "group": "control_change"}, {"time": 2072, "annotation": {"number": 64, "value": 127}, "group": "control_change"}, {"time": 2093, "annotation": {"number": 64, "value": 0}, "group": "control_change"}, {"time": 2096, "annotation": {"number": 64, "value": 127}, "group": "control_change"}, {"time": 2139, "annotation": {"number": 64, "value": 0}, "group": "control_change"}, {"time": 2142, "annotation": {"number": 64, "value": 127}, "group": "control_change"}, {"time": 2186, "annotation": {"number": 64, "value": 0}, "group": "control_change"}, {"time": 2189, "annotation": {"number": 64, "value": 127}, "group": "control_change"}, {"time": 2235, "annotation": {"number": 64, "value": 0}, "group": "control_change"}, {"time": 2237, "annotation": {"number": 64, "value": 127}, "group": "control_change"}, {"time": 2261, "annotation": {"number": 64, "value": 0}, "group": "control_change"}, {"time": 2263, "annotation": {"number": 64, "value": 127}, "group": "control_change"}, {"time": 2283, "annotation": {"number": 64, "value": 0}, "group": "control_change"}, {"time": 2286, "annotation": {"number": 64, "value": 127}, "group": "control_change"}, {"time": 2332, "annotation": {"number": 64, "value": 0}, "group": "control_change"}, {"time": 2335, "annotation": {"number": 64, "value": 127}, "group": "control_change"}, {"time": 2381, "annotation": {"number": 64, "value": 0}, "group": "control_change"}, {"time": 2384, "annotation": {"number": 64, "value": 127}, "group": "control_change"}, {"time": 2427, "annotation": {"number": 64, "value": 0}, "group": "control_change"}, {"time": 2430, "annotation": {"number": 64, "value": 127}, "group": "control_change"}, {"time": 2476, "annotation": {"number": 64, "value": 0}, "group": "control_change"}, {"time": 2478, "annotation": {"number": 64, "value": 127}, "group": "control_change"}, {"time": 2524, "annotation": {"number": 64, "value": 0}, "group": "control_change"}, {"time": 2526, "annotation": {"number": 64, "value": 127}, "group": "control_change"}, {"time": 2572, "annotation": {"number": 64, "value": 0}, "group": "control_change"}, {"time": 2575, "annotation": {"number": 64, "value": 127}, "group": "control_change"}, {"time": 2621, "annotation": {"number": 64, "value": 0}, "group": "control_change"}, {"time": 2623, "annotation": {"number": 64, "value": 127}, "group": "control_change"}, {"time": 2667, "annotation": {"number": 64, "value": 0}, "group": "control_change"}, {"time": 2670, "annotation": {"number": 64, "value": 127}, "group": "control_change"}, {"time": 2719, "annotation": {"number": 64, "value": 127}, "group": "control_change"}, {"time": 2765, "annotation": {"number": 64, "value": 0}, "group": "control_change"}, {"time": 2768, "annotation": {"number": 64, "value": 127}, "group": "control_change"}, {"time": 2811, "annotation": {"number": 64, "value": 0}, "group": "control_change"}, {"time": 2814, "annotation": {"number": 64, "value": 127}, "group": "control_change"}, {"time": 2860, "annotation": {"number": 64, "value": 0}, "group": "control_change"}, {"time": 2862, "annotation": {"number": 64, "value": 127}, "group": "control_change"}, {"time": 2908, "annotation": {"number": 64, "value": 0}, "group": "control_change"}, {"time": 2910, "annotation": {"number": 64, "value": 127}, "group": "control_change"}, {"time": 2956, "annotation": {"number": 64, "value": 0}, "group": "control_change"}, {"time": 2959, "annotation": {"number": 64, "value": 127}, "group": "control_change"}, {"time": 3005, "annotation": {"number": 64, "value": 0}, "group": "control_change"}, {"time": 3007, "annotation": {"number": 64, "value": 127}, "group": "control_change"}, {"time": 3051, "annotation": {"number": 64, "value": 0}, "group": "control_change"}, {"time": 3054, "annotation": {"number": 64, "value": 127}, "group": "control_change"}, {"time": 3094, "annotation": {"number": 64, "value": 127}, "group": "control_change"}, {"time": 3097, "annotation": {"number": 64, "value": 0}, "group": "control_change"}, {"time": 3101, "annotation": {"number": 64, "value": 127}, "group": "control_change"}, {"time": 3124, "annotation": {"number": 64, "value": 0}, "group": "control_change"}, {"time": 3125, "annotation": {"number": 64, "value": 127}, "group": "control_change"}, {"time": 3147, "annotation": {"number": 64, "value": 0}, "group": "control_change"}, {"time": 3150, "annotation": {"number": 64, "value": 127}, "group": "control_change"}, {"time": 3196, "annotation": {"number": 64, "value": 0}, "group": "control_change"}, {"time": 3199, "annotation": {"number": 64, "value": 127}, "group": "control_change"}, {"time": 3245, "annotation": {"number": 64, "value": 0}, "group": "control_change"}, {"time": 3247, "annotation": {"number": 64, "value": 127}, "group": "control_change"}, {"time": 3292, "annotation": {"number": 64, "value": 0}, "group": "control_change"}, {"time": 3294, "annotation": {"number": 64, "value": 127}, "group": "control_change"}, {"time": 3338, "annotation": {"number": 64, "value": 0}, "group": "control_change"}, {"time": 3342, "annotation": {"number": 64, "value": 127}, "group": "control_change"}, {"time": 3388, "annotation": {"number": 64, "value": 0}, "group": "control_change"}, {"time": 3391, "annotation": {"number": 64, "value": 127}, "group": "control_change"}, {"time": 3436, "annotation": {"number": 64, "value": 0}, "group": "control_change"}, {"time": 3438, "annotation": {"number": 64, "value": 127}, "group": "control_change"}, {"time": 3454, "annotation": {"number": 64, "value": 0}, "group": "control_change"}, {"time": 3456, "annotation": {"number": 64, "value": 127}, "group": "control_change"}, {"time": 3484, "annotation": {"number": 64, "value": 0}, "group": "control_change"}, {"time": 3486, "annotation": {"number": 64, "value": 127}, "group": "control_change"}, {"time": 3532, "annotation": {"number": 64, "value": 0}, "group": "control_change"}, {"time": 3535, "annotation": {"number": 64, "value": 127}, "group": "control_change"}, {"time": 3604, "annotation": {"number": 64, "value": 0}, "group": "control_change"}, {"time": 3605, "annotation": {"number": 64, "value": 127}, "group": "control_change"}, {"time": 3627, "annotation": {"number": 64, "value": 0}, "group": "control_change"}, {"time": 3630, "annotation": {"number": 64, "value": 127}, "group": "control_change"}, {"time": 3676, "annotation": {"number": 64, "value": 0}, "group": "control_change"}, {"time": 3679, "annotation": {"number": 64, "value": 127}, "group": "control_change"}, {"time": 3725, "annotation": {"number": 64, "value": 0}, "group": "control_change"}, {"time": 3727, "annotation": {"number": 64, "value": 127}, "group": "control_change"}, {"time": 3772, "annotation": {"number": 64, "value": 0}, "group": "control_change"}, {"time": 3774, "annotation": {"number": 64, "value": 127}, "group": "control_change"}, {"time": 3818, "annotation": {"number": 64, "value": 0}, "group": "control_change"}, {"time": 3822, "annotation": {"number": 64, "value": 127}, "group": "control_change"}, {"time": 3868, "annotation": {"number": 64, "value": 0}, "group": "control_change"}, {"time": 3871, "annotation": {"number": 64, "value": 127}, "group": "control_change"}, {"time": 3916, "annotation": {"number": 64, "value": 0}, "group": "control_change"}, {"time": 3918, "annotation": {"number": 64, "value": 127}, "group": "control_change"}, {"time": 3934, "annotation": {"number": 64, "value": 0}, "group": "control_change"}, {"time": 3936, "annotation": {"number": 64, "value": 127}, "group": "control_change"}, {"time": 3964, "annotation": {"number": 64, "value": 0}, "group": "control_change"}, {"time": 3966, "annotation": {"number": 64, "value": 127}, "group": "control_change"}, {"time": 4012, "annotation": {"number": 64, "value": 0}, "group": "control_change"}, {"time": 4015, "annotation": {"number": 64, "value": 127}, "group": "control_change"}, {"time": 4062, "annotation": {"number": 64, "value": 127}, "group": "control_change"}, {"time": 4063, "annotation": {"number": 64, "value": 0}, "group": "control_change"}, {"time": 4063, "annotation": {"number": 64, "value": 127}, "group": "control_change"}, {"time": 4130, "annotation": {"number": 64, "value": 0}, "group": "control_change"}, {"time": 4133, "annotation": {"number": 64, "value": 127}, "group": "control_change"}, {"time": 4157, "annotation": {"number": 64, "value": 0}, "group": "control_change"}, {"time": 4158, "annotation": {"number": 64, "value": 127}, "group": "control_change"}, {"time": 4206, "annotation": {"number": 64, "value": 0}, "group": "control_change"}, {"time": 4206, "annotation": {"number": 64, "value": 127}, "group": "control_change"}]}]}