{"metadata": {"schema_version": "0.2", "title": "None", "source_filename": "709.mid", "source_format": "midi"}, "resolution": 12, "tempos": [{"time": 0, "qpm": 82.00014760026568}], "time_signatures": [{"time": 0, "numerator": 1, "denominator": 4}], "tracks": [{"program": 0, "is_drum": false, "name": "MELODY", "notes": [{"time": 383, "pitch": 68, "duration": 4, "velocity": 83}, {"time": 389, "pitch": 70, "duration": 4, "velocity": 85}, {"time": 395, "pitch": 73, "duration": 5, "velocity": 85}, {"time": 401, "pitch": 75, "duration": 10, "velocity": 89}, {"time": 413, "pitch": 73, "duration": 12, "velocity": 84}, {"time": 425, "pitch": 70, "duration": 12, "velocity": 83}, {"time": 437, "pitch": 75, "duration": 6, "velocity": 72}, {"time": 443, "pitch": 77, "duration": 4, "velocity": 85}, {"time": 449, "pitch": 75, "duration": 10, "velocity": 86}, {"time": 461, "pitch": 73, "duration": 12, "velocity": 84}, {"time": 473, "pitch": 68, "duration": 11, "velocity": 76}, {"time": 485, "pitch": 70, "duration": 5, "velocity": 85}, {"time": 491, "pitch": 73, "duration": 5, "velocity": 81}, {"time": 497, "pitch": 75, "duration": 15, "velocity": 85}, {"time": 515, "pitch": 73, "duration": 5, "velocity": 83}, {"time": 521, "pitch": 70, "duration": 4, "velocity": 84}, {"time": 527, "pitch": 68, "duration": 5, "velocity": 82}, {"time": 533, "pitch": 70, "duration": 5, "velocity": 86}, {"time": 539, "pitch": 77, "duration": 11, "velocity": 85}, {"time": 551, "pitch": 77, "duration": 30, "velocity": 83}, {"time": 587, "pitch": 73, "duration": 4, "velocity": 83}, {"time": 593, "pitch": 75, "duration": 9, "velocity": 89}, {"time": 605, "pitch": 73, "duration": 13, "velocity": 85}, {"time": 617, "pitch": 70, "duration": 11, "velocity": 83}, {"time": 629, "pitch": 75, "duration": 4, "velocity": 85}, {"time": 635, "pitch": 77, "duration": 5, "velocity": 80}, {"time": 641, "pitch": 75, "duration": 10, "velocity": 89}, {"time": 653, "pitch": 73, "duration": 12, "velocity": 85}, {"time": 665, "pitch": 68, "duration": 10, "velocity": 83}, {"time": 677, "pitch": 70, "duration": 5, "velocity": 78}, {"time": 683, "pitch": 73, "duration": 5, "velocity": 84}, {"time": 689, "pitch": 75, "duration": 18, "velocity": 85}, {"time": 707, "pitch": 73, "duration": 6, "velocity": 78}, {"time": 713, "pitch": 70, "duration": 12, "velocity": 83}, {"time": 725, "pitch": 77, "duration": 12, "velocity": 84}, {"time": 737, "pitch": 73, "duration": 33, "velocity": 85}, {"time": 779, "pitch": 73, "duration": 5, "velocity": 85}, {"time": 785, "pitch": 75, "duration": 10, "velocity": 89}, {"time": 797, "pitch": 73, "duration": 12, "velocity": 84}, {"time": 809, "pitch": 70, "duration": 12, "velocity": 83}, {"time": 821, "pitch": 75, "duration": 6, "velocity": 72}, {"time": 827, "pitch": 77, "duration": 4, "velocity": 85}, {"time": 833, "pitch": 75, "duration": 10, "velocity": 86}, {"time": 845, "pitch": 73, "duration": 12, "velocity": 84}, {"time": 857, "pitch": 68, "duration": 11, "velocity": 76}, {"time": 869, "pitch": 70, "duration": 5, "velocity": 85}, {"time": 875, "pitch": 73, "duration": 5, "velocity": 81}, {"time": 881, "pitch": 75, "duration": 12, "velocity": 85}, {"time": 893, "pitch": 73, "duration": 5, "velocity": 83}, {"time": 899, "pitch": 70, "duration": 4, "velocity": 84}, {"time": 905, "pitch": 68, "duration": 12, "velocity": 82}, {"time": 917, "pitch": 80, "duration": 12, "velocity": 85}, {"time": 929, "pitch": 77, "duration": 30, "velocity": 83}, {"time": 971, "pitch": 73, "duration": 4, "velocity": 83}, {"time": 977, "pitch": 75, "duration": 9, "velocity": 89}, {"time": 989, "pitch": 73, "duration": 13, "velocity": 85}, {"time": 1001, "pitch": 75, "duration": 11, "velocity": 83}, {"time": 1013, "pitch": 75, "duration": 4, "velocity": 85}, {"time": 1019, "pitch": 73, "duration": 5, "velocity": 80}, {"time": 1025, "pitch": 75, "duration": 10, "velocity": 89}, {"time": 1037, "pitch": 77, "duration": 12, "velocity": 85}, {"time": 1049, "pitch": 77, "duration": 10, "velocity": 83}, {"time": 1061, "pitch": 75, "duration": 5, "velocity": 78}, {"time": 1067, "pitch": 73, "duration": 5, "velocity": 84}, {"time": 1073, "pitch": 70, "duration": 12, "velocity": 85}, {"time": 1085, "pitch": 77, "duration": 12, "velocity": 78}, {"time": 1097, "pitch": 75, "duration": 6, "velocity": 83}, {"time": 1103, "pitch": 73, "duration": 6, "velocity": 79}, {"time": 1109, "pitch": 70, "duration": 6, "velocity": 84}, {"time": 1115, "pitch": 73, "duration": 54, "velocity": 83}, {"time": 1205, "pitch": 73, "duration": 5, "velocity": 85}, {"time": 1211, "pitch": 75, "duration": 6, "velocity": 89}, {"time": 1217, "pitch": 77, "duration": 12, "velocity": 84}, {"time": 1229, "pitch": 82, "duration": 9, "velocity": 86}, {"time": 1241, "pitch": 80, "duration": 6, "velocity": 86}, {"time": 1247, "pitch": 77, "duration": 6, "velocity": 85}, {"time": 1253, "pitch": 75, "duration": 6, "velocity": 85}, {"time": 1259, "pitch": 73, "duration": 7, "velocity": 84}, {"time": 1265, "pitch": 75, "duration": 13, "velocity": 92}, {"time": 1277, "pitch": 77, "duration": 11, "velocity": 84}, {"time": 1289, "pitch": 77, "duration": 10, "velocity": 85}, {"time": 1301, "pitch": 75, "duration": 5, "velocity": 92}, {"time": 1307, "pitch": 73, "duration": 5, "velocity": 85}, {"time": 1313, "pitch": 70, "duration": 5, "velocity": 86}, {"time": 1319, "pitch": 82, "duration": 4, "velocity": 85}, {"time": 1325, "pitch": 82, "duration": 5, "velocity": 84}, {"time": 1331, "pitch": 82, "duration": 4, "velocity": 84}, {"time": 1337, "pitch": 80, "duration": 4, "velocity": 84}, {"time": 1343, "pitch": 77, "duration": 6, "velocity": 87}, {"time": 1349, "pitch": 75, "duration": 6, "velocity": 92}, {"time": 1355, "pitch": 80, "duration": 11, "velocity": 85}, {"time": 1367, "pitch": 77, "duration": 27, "velocity": 87}, {"time": 1397, "pitch": 73, "duration": 5, "velocity": 85}, {"time": 1403, "pitch": 75, "duration": 6, "velocity": 89}, {"time": 1409, "pitch": 77, "duration": 12, "velocity": 84}, {"time": 1421, "pitch": 82, "duration": 9, "velocity": 86}, {"time": 1433, "pitch": 80, "duration": 6, "velocity": 86}, {"time": 1439, "pitch": 77, "duration": 6, "velocity": 85}, {"time": 1445, "pitch": 75, "duration": 6, "velocity": 85}, {"time": 1451, "pitch": 73, "duration": 7, "velocity": 84}, {"time": 1457, "pitch": 75, "duration": 13, "velocity": 92}, {"time": 1469, "pitch": 77, "duration": 11, "velocity": 84}, {"time": 1481, "pitch": 77, "duration": 10, "velocity": 85}, {"time": 1493, "pitch": 75, "duration": 5, "velocity": 92}, {"time": 1499, "pitch": 73, "duration": 5, "velocity": 85}, {"time": 1505, "pitch": 70, "duration": 5, "velocity": 86}, {"time": 1511, "pitch": 77, "duration": 4, "velocity": 85}, {"time": 1517, "pitch": 77, "duration": 5, "velocity": 84}, {"time": 1523, "pitch": 77, "duration": 4, "velocity": 84}, {"time": 1529, "pitch": 75, "duration": 12, "velocity": 84}, {"time": 1541, "pitch": 73, "duration": 6, "velocity": 84}, {"time": 1547, "pitch": 70, "duration": 7, "velocity": 83}, {"time": 1553, "pitch": 75, "duration": 12, "velocity": 85}, {"time": 1565, "pitch": 73, "duration": 35, "velocity": 83}, {"time": 1775, "pitch": 68, "duration": 4, "velocity": 83}, {"time": 1781, "pitch": 70, "duration": 4, "velocity": 85}, {"time": 1787, "pitch": 73, "duration": 5, "velocity": 85}, {"time": 1793, "pitch": 75, "duration": 10, "velocity": 89}, {"time": 1805, "pitch": 73, "duration": 12, "velocity": 84}, {"time": 1817, "pitch": 70, "duration": 12, "velocity": 83}, {"time": 1829, "pitch": 75, "duration": 6, "velocity": 72}, {"time": 1835, "pitch": 77, "duration": 4, "velocity": 85}, {"time": 1841, "pitch": 75, "duration": 10, "velocity": 86}, {"time": 1853, "pitch": 73, "duration": 12, "velocity": 84}, {"time": 1865, "pitch": 68, "duration": 11, "velocity": 76}, {"time": 1877, "pitch": 70, "duration": 5, "velocity": 85}, {"time": 1883, "pitch": 73, "duration": 5, "velocity": 81}, {"time": 1889, "pitch": 75, "duration": 15, "velocity": 85}, {"time": 1907, "pitch": 73, "duration": 5, "velocity": 83}, {"time": 1913, "pitch": 70, "duration": 4, "velocity": 84}, {"time": 1919, "pitch": 68, "duration": 5, "velocity": 82}, {"time": 1925, "pitch": 70, "duration": 5, "velocity": 86}, {"time": 1931, "pitch": 77, "duration": 11, "velocity": 85}, {"time": 1943, "pitch": 77, "duration": 30, "velocity": 83}, {"time": 1979, "pitch": 73, "duration": 4, "velocity": 83}, {"time": 1985, "pitch": 75, "duration": 9, "velocity": 89}, {"time": 1997, "pitch": 73, "duration": 13, "velocity": 85}, {"time": 2009, "pitch": 70, "duration": 11, "velocity": 83}, {"time": 2021, "pitch": 75, "duration": 4, "velocity": 85}, {"time": 2027, "pitch": 77, "duration": 5, "velocity": 80}, {"time": 2033, "pitch": 75, "duration": 10, "velocity": 89}, {"time": 2045, "pitch": 73, "duration": 12, "velocity": 85}, {"time": 2057, "pitch": 68, "duration": 10, "velocity": 83}, {"time": 2069, "pitch": 70, "duration": 5, "velocity": 78}, {"time": 2075, "pitch": 73, "duration": 5, "velocity": 84}, {"time": 2081, "pitch": 75, "duration": 18, "velocity": 85}, {"time": 2099, "pitch": 73, "duration": 6, "velocity": 78}, {"time": 2105, "pitch": 70, "duration": 12, "velocity": 83}, {"time": 2117, "pitch": 77, "duration": 12, "velocity": 84}, {"time": 2129, "pitch": 73, "duration": 33, "velocity": 85}, {"time": 2171, "pitch": 73, "duration": 5, "velocity": 85}, {"time": 2177, "pitch": 75, "duration": 10, "velocity": 89}, {"time": 2189, "pitch": 73, "duration": 12, "velocity": 84}, {"time": 2201, "pitch": 70, "duration": 12, "velocity": 83}, {"time": 2213, "pitch": 75, "duration": 6, "velocity": 72}, {"time": 2219, "pitch": 77, "duration": 4, "velocity": 85}, {"time": 2225, "pitch": 75, "duration": 10, "velocity": 86}, {"time": 2237, "pitch": 73, "duration": 12, "velocity": 84}, {"time": 2249, "pitch": 68, "duration": 11, "velocity": 76}, {"time": 2261, "pitch": 70, "duration": 5, "velocity": 85}, {"time": 2267, "pitch": 73, "duration": 5, "velocity": 81}, {"time": 2273, "pitch": 75, "duration": 12, "velocity": 85}, {"time": 2285, "pitch": 73, "duration": 5, "velocity": 83}, {"time": 2291, "pitch": 70, "duration": 4, "velocity": 84}, {"time": 2297, "pitch": 68, "duration": 12, "velocity": 82}, {"time": 2309, "pitch": 80, "duration": 12, "velocity": 85}, {"time": 2321, "pitch": 77, "duration": 30, "velocity": 83}, {"time": 2363, "pitch": 73, "duration": 4, "velocity": 83}, {"time": 2369, "pitch": 75, "duration": 9, "velocity": 89}, {"time": 2381, "pitch": 73, "duration": 13, "velocity": 85}, {"time": 2393, "pitch": 75, "duration": 11, "velocity": 83}, {"time": 2405, "pitch": 75, "duration": 4, "velocity": 85}, {"time": 2411, "pitch": 73, "duration": 5, "velocity": 80}, {"time": 2417, "pitch": 75, "duration": 10, "velocity": 89}, {"time": 2429, "pitch": 77, "duration": 12, "velocity": 85}, {"time": 2441, "pitch": 77, "duration": 10, "velocity": 83}, {"time": 2453, "pitch": 75, "duration": 5, "velocity": 78}, {"time": 2459, "pitch": 73, "duration": 5, "velocity": 84}, {"time": 2465, "pitch": 70, "duration": 12, "velocity": 85}, {"time": 2477, "pitch": 77, "duration": 12, "velocity": 78}, {"time": 2489, "pitch": 75, "duration": 6, "velocity": 83}, {"time": 2495, "pitch": 73, "duration": 6, "velocity": 79}, {"time": 2501, "pitch": 70, "duration": 6, "velocity": 84}, {"time": 2507, "pitch": 73, "duration": 54, "velocity": 83}, {"time": 2597, "pitch": 73, "duration": 5, "velocity": 85}, {"time": 2603, "pitch": 75, "duration": 6, "velocity": 89}, {"time": 2609, "pitch": 77, "duration": 12, "velocity": 84}, {"time": 2621, "pitch": 82, "duration": 9, "velocity": 86}, {"time": 2633, "pitch": 80, "duration": 6, "velocity": 86}, {"time": 2639, "pitch": 77, "duration": 6, "velocity": 85}, {"time": 2645, "pitch": 75, "duration": 6, "velocity": 85}, {"time": 2651, "pitch": 73, "duration": 7, "velocity": 84}, {"time": 2657, "pitch": 75, "duration": 13, "velocity": 92}, {"time": 2669, "pitch": 77, "duration": 11, "velocity": 84}, {"time": 2681, "pitch": 77, "duration": 10, "velocity": 85}, {"time": 2693, "pitch": 75, "duration": 5, "velocity": 92}, {"time": 2699, "pitch": 73, "duration": 5, "velocity": 85}, {"time": 2705, "pitch": 70, "duration": 5, "velocity": 86}, {"time": 2711, "pitch": 82, "duration": 4, "velocity": 85}, {"time": 2717, "pitch": 82, "duration": 5, "velocity": 84}, {"time": 2723, "pitch": 82, "duration": 4, "velocity": 84}, {"time": 2729, "pitch": 80, "duration": 4, "velocity": 84}, {"time": 2735, "pitch": 77, "duration": 6, "velocity": 87}, {"time": 2741, "pitch": 75, "duration": 6, "velocity": 92}, {"time": 2747, "pitch": 80, "duration": 11, "velocity": 85}, {"time": 2759, "pitch": 77, "duration": 27, "velocity": 87}, {"time": 2789, "pitch": 73, "duration": 5, "velocity": 85}, {"time": 2795, "pitch": 75, "duration": 6, "velocity": 89}, {"time": 2801, "pitch": 77, "duration": 12, "velocity": 84}, {"time": 2813, "pitch": 82, "duration": 9, "velocity": 86}, {"time": 2825, "pitch": 80, "duration": 6, "velocity": 86}, {"time": 2831, "pitch": 77, "duration": 6, "velocity": 85}, {"time": 2837, "pitch": 75, "duration": 6, "velocity": 85}, {"time": 2843, "pitch": 73, "duration": 7, "velocity": 84}, {"time": 2849, "pitch": 75, "duration": 13, "velocity": 92}, {"time": 2861, "pitch": 77, "duration": 11, "velocity": 84}, {"time": 2873, "pitch": 77, "duration": 10, "velocity": 85}, {"time": 2885, "pitch": 75, "duration": 5, "velocity": 92}, {"time": 2891, "pitch": 73, "duration": 5, "velocity": 85}, {"time": 2897, "pitch": 70, "duration": 5, "velocity": 86}, {"time": 2903, "pitch": 77, "duration": 4, "velocity": 85}, {"time": 2909, "pitch": 77, "duration": 5, "velocity": 84}, {"time": 2915, "pitch": 77, "duration": 4, "velocity": 84}, {"time": 2921, "pitch": 75, "duration": 12, "velocity": 84}, {"time": 2933, "pitch": 73, "duration": 6, "velocity": 84}, {"time": 2939, "pitch": 70, "duration": 7, "velocity": 83}, {"time": 2945, "pitch": 75, "duration": 12, "velocity": 85}, {"time": 2957, "pitch": 73, "duration": 18, "velocity": 83}, {"time": 2981, "pitch": 73, "duration": 5, "velocity": 85}, {"time": 2987, "pitch": 75, "duration": 6, "velocity": 89}, {"time": 2993, "pitch": 77, "duration": 12, "velocity": 84}, {"time": 3005, "pitch": 82, "duration": 9, "velocity": 86}, {"time": 3017, "pitch": 80, "duration": 6, "velocity": 86}, {"time": 3023, "pitch": 77, "duration": 6, "velocity": 85}, {"time": 3029, "pitch": 75, "duration": 6, "velocity": 85}, {"time": 3035, "pitch": 73, "duration": 7, "velocity": 84}, {"time": 3041, "pitch": 75, "duration": 13, "velocity": 92}, {"time": 3053, "pitch": 77, "duration": 11, "velocity": 84}, {"time": 3065, "pitch": 77, "duration": 10, "velocity": 85}, {"time": 3077, "pitch": 75, "duration": 5, "velocity": 92}, {"time": 3083, "pitch": 73, "duration": 5, "velocity": 85}, {"time": 3089, "pitch": 70, "duration": 5, "velocity": 86}, {"time": 3095, "pitch": 82, "duration": 4, "velocity": 85}, {"time": 3101, "pitch": 82, "duration": 5, "velocity": 84}, {"time": 3107, "pitch": 82, "duration": 4, "velocity": 84}, {"time": 3113, "pitch": 80, "duration": 4, "velocity": 84}, {"time": 3119, "pitch": 77, "duration": 6, "velocity": 87}, {"time": 3125, "pitch": 75, "duration": 6, "velocity": 92}, {"time": 3131, "pitch": 80, "duration": 11, "velocity": 85}, {"time": 3143, "pitch": 77, "duration": 27, "velocity": 87}, {"time": 3173, "pitch": 73, "duration": 5, "velocity": 85}, {"time": 3179, "pitch": 75, "duration": 6, "velocity": 89}, {"time": 3185, "pitch": 77, "duration": 12, "velocity": 84}, {"time": 3197, "pitch": 82, "duration": 9, "velocity": 86}, {"time": 3209, "pitch": 80, "duration": 6, "velocity": 86}, {"time": 3215, "pitch": 77, "duration": 6, "velocity": 85}, {"time": 3221, "pitch": 75, "duration": 6, "velocity": 85}, {"time": 3227, "pitch": 73, "duration": 7, "velocity": 84}, {"time": 3233, "pitch": 75, "duration": 13, "velocity": 92}, {"time": 3245, "pitch": 77, "duration": 11, "velocity": 84}, {"time": 3257, "pitch": 77, "duration": 10, "velocity": 85}, {"time": 3269, "pitch": 75, "duration": 5, "velocity": 92}, {"time": 3275, "pitch": 73, "duration": 5, "velocity": 85}, {"time": 3281, "pitch": 70, "duration": 5, "velocity": 86}, {"time": 3287, "pitch": 77, "duration": 4, "velocity": 85}, {"time": 3293, "pitch": 77, "duration": 5, "velocity": 84}, {"time": 3299, "pitch": 77, "duration": 4, "velocity": 84}, {"time": 3305, "pitch": 75, "duration": 12, "velocity": 84}, {"time": 3317, "pitch": 73, "duration": 6, "velocity": 84}, {"time": 3323, "pitch": 70, "duration": 7, "velocity": 83}, {"time": 3329, "pitch": 75, "duration": 12, "velocity": 85}, {"time": 3341, "pitch": 73, "duration": 35, "velocity": 83}]}, {"program": 0, "is_drum": false, "name": "PIANO", "notes": [{"time": 17, "pitch": 42, "duration": 20, "velocity": 51}, {"time": 17, "pitch": 54, "duration": 8, "velocity": 65}, {"time": 17, "pitch": 61, "duration": 13, "velocity": 64}, {"time": 23, "pitch": 49, "duration": 13, "velocity": 48}, {"time": 29, "pitch": 58, "duration": 9, "velocity": 60}, {"time": 35, "pitch": 54, "duration": 3, "velocity": 57}, {"time": 41, "pitch": 44, "duration": 16, "velocity": 56}, {"time": 41, "pitch": 56, "duration": 9, "velocity": 56}, {"time": 41, "pitch": 63, "duration": 14, "velocity": 56}, {"time": 47, "pitch": 51, "duration": 9, "velocity": 53}, {"time": 53, "pitch": 56, "duration": 3, "velocity": 48}, {"time": 65, "pitch": 41, "duration": 15, "velocity": 56}, {"time": 65, "pitch": 56, "duration": 7, "velocity": 56}, {"time": 65, "pitch": 60, "duration": 12, "velocity": 56}, {"time": 71, "pitch": 48, "duration": 9, "velocity": 54}, {"time": 77, "pitch": 56, "duration": 9, "velocity": 54}, {"time": 89, "pitch": 46, "duration": 21, "velocity": 51}, {"time": 89, "pitch": 58, "duration": 9, "velocity": 51}, {"time": 89, "pitch": 61, "duration": 10, "velocity": 51}, {"time": 95, "pitch": 53, "duration": 15, "velocity": 58}, {"time": 101, "pitch": 58, "duration": 4, "velocity": 62}, {"time": 101, "pitch": 65, "duration": 7, "velocity": 69}, {"time": 107, "pitch": 63, "duration": 5, "velocity": 66}, {"time": 113, "pitch": 51, "duration": 14, "velocity": 68}, {"time": 113, "pitch": 58, "duration": 7, "velocity": 56}, {"time": 113, "pitch": 63, "duration": 13, "velocity": 66}, {"time": 119, "pitch": 54, "duration": 8, "velocity": 44}, {"time": 125, "pitch": 58, "duration": 4, "velocity": 60}, {"time": 137, "pitch": 44, "duration": 21, "velocity": 63}, {"time": 137, "pitch": 56, "duration": 8, "velocity": 59}, {"time": 137, "pitch": 63, "duration": 13, "velocity": 63}, {"time": 143, "pitch": 51, "duration": 15, "velocity": 55}, {"time": 149, "pitch": 56, "duration": 8, "velocity": 64}, {"time": 155, "pitch": 61, "duration": 5, "velocity": 57}, {"time": 161, "pitch": 49, "duration": 22, "velocity": 66}, {"time": 161, "pitch": 65, "duration": 13, "velocity": 70}, {"time": 167, "pitch": 53, "duration": 16, "velocity": 54}, {"time": 173, "pitch": 56, "duration": 10, "velocity": 65}, {"time": 179, "pitch": 63, "duration": 5, "velocity": 57}, {"time": 185, "pitch": 49, "duration": 20, "velocity": 70}, {"time": 185, "pitch": 56, "duration": 3, "velocity": 64}, {"time": 185, "pitch": 65, "duration": 12, "velocity": 69}, {"time": 191, "pitch": 56, "duration": 5, "velocity": 66}, {"time": 197, "pitch": 56, "duration": 4, "velocity": 69}, {"time": 197, "pitch": 61, "duration": 6, "velocity": 64}, {"time": 203, "pitch": 59, "duration": 3, "velocity": 53}, {"time": 209, "pitch": 42, "duration": 19, "velocity": 69}, {"time": 209, "pitch": 58, "duration": 13, "velocity": 63}, {"time": 209, "pitch": 66, "duration": 21, "velocity": 67}, {"time": 215, "pitch": 49, "duration": 13, "velocity": 61}, {"time": 221, "pitch": 61, "duration": 7, "velocity": 69}, {"time": 227, "pitch": 58, "duration": 3, "velocity": 61}, {"time": 233, "pitch": 44, "duration": 19, "velocity": 68}, {"time": 233, "pitch": 60, "duration": 14, "velocity": 58}, {"time": 233, "pitch": 68, "duration": 23, "velocity": 51}, {"time": 239, "pitch": 51, "duration": 12, "velocity": 66}, {"time": 245, "pitch": 63, "duration": 9, "velocity": 66}, {"time": 257, "pitch": 41, "duration": 15, "velocity": 70}, {"time": 257, "pitch": 68, "duration": 12, "velocity": 69}, {"time": 263, "pitch": 48, "duration": 8, "velocity": 64}, {"time": 269, "pitch": 65, "duration": 6, "velocity": 68}, {"time": 275, "pitch": 63, "duration": 5, "velocity": 68}, {"time": 281, "pitch": 46, "duration": 19, "velocity": 68}, {"time": 281, "pitch": 61, "duration": 5, "velocity": 59}, {"time": 281, "pitch": 65, "duration": 8, "velocity": 68}, {"time": 287, "pitch": 53, "duration": 13, "velocity": 61}, {"time": 293, "pitch": 58, "duration": 4, "velocity": 60}, {"time": 293, "pitch": 61, "duration": 6, "velocity": 64}, {"time": 299, "pitch": 60, "duration": 5, "velocity": 62}, {"time": 305, "pitch": 39, "duration": 14, "velocity": 70}, {"time": 305, "pitch": 58, "duration": 9, "velocity": 57}, {"time": 305, "pitch": 63, "duration": 11, "velocity": 61}, {"time": 311, "pitch": 46, "duration": 8, "velocity": 54}, {"time": 317, "pitch": 61, "duration": 9, "velocity": 62}, {"time": 329, "pitch": 44, "duration": 20, "velocity": 68}, {"time": 329, "pitch": 56, "duration": 8, "velocity": 58}, {"time": 329, "pitch": 63, "duration": 11, "velocity": 64}, {"time": 335, "pitch": 51, "duration": 14, "velocity": 62}, {"time": 341, "pitch": 56, "duration": 8, "velocity": 70}, {"time": 353, "pitch": 37, "duration": 47, "velocity": 64}, {"time": 353, "pitch": 56, "duration": 4, "velocity": 60}, {"time": 353, "pitch": 61, "duration": 7, "velocity": 62}, {"time": 359, "pitch": 56, "duration": 6, "velocity": 67}, {"time": 365, "pitch": 61, "duration": 6, "velocity": 61}, {"time": 365, "pitch": 66, "duration": 8, "velocity": 64}, {"time": 371, "pitch": 56, "duration": 7, "velocity": 68}, {"time": 371, "pitch": 61, "duration": 1, "velocity": 34}, {"time": 377, "pitch": 61, "duration": 11, "velocity": 68}, {"time": 377, "pitch": 65, "duration": 14, "velocity": 68}, {"time": 389, "pitch": 56, "duration": 4, "velocity": 64}, {"time": 389, "pitch": 61, "duration": 12, "velocity": 64}, {"time": 395, "pitch": 56, "duration": 5, "velocity": 66}, {"time": 401, "pitch": 42, "duration": 20, "velocity": 68}, {"time": 401, "pitch": 54, "duration": 8, "velocity": 65}, {"time": 401, "pitch": 61, "duration": 13, "velocity": 64}, {"time": 407, "pitch": 49, "duration": 13, "velocity": 48}, {"time": 413, "pitch": 58, "duration": 9, "velocity": 60}, {"time": 419, "pitch": 54, "duration": 3, "velocity": 57}, {"time": 425, "pitch": 44, "duration": 16, "velocity": 65}, {"time": 425, "pitch": 56, "duration": 9, "velocity": 55}, {"time": 425, "pitch": 63, "duration": 14, "velocity": 57}, {"time": 431, "pitch": 51, "duration": 9, "velocity": 53}, {"time": 437, "pitch": 56, "duration": 3, "velocity": 66}, {"time": 449, "pitch": 41, "duration": 15, "velocity": 68}, {"time": 449, "pitch": 56, "duration": 7, "velocity": 57}, {"time": 449, "pitch": 60, "duration": 12, "velocity": 60}, {"time": 455, "pitch": 48, "duration": 9, "velocity": 54}, {"time": 461, "pitch": 56, "duration": 9, "velocity": 71}, {"time": 473, "pitch": 46, "duration": 21, "velocity": 68}, {"time": 473, "pitch": 58, "duration": 9, "velocity": 56}, {"time": 473, "pitch": 61, "duration": 10, "velocity": 63}, {"time": 479, "pitch": 53, "duration": 15, "velocity": 58}, {"time": 485, "pitch": 58, "duration": 4, "velocity": 62}, {"time": 485, "pitch": 65, "duration": 7, "velocity": 69}, {"time": 491, "pitch": 63, "duration": 5, "velocity": 66}, {"time": 497, "pitch": 51, "duration": 14, "velocity": 68}, {"time": 497, "pitch": 58, "duration": 7, "velocity": 56}, {"time": 497, "pitch": 63, "duration": 13, "velocity": 66}, {"time": 503, "pitch": 54, "duration": 8, "velocity": 44}, {"time": 509, "pitch": 58, "duration": 4, "velocity": 60}, {"time": 521, "pitch": 44, "duration": 21, "velocity": 63}, {"time": 521, "pitch": 56, "duration": 8, "velocity": 59}, {"time": 521, "pitch": 63, "duration": 13, "velocity": 63}, {"time": 527, "pitch": 51, "duration": 15, "velocity": 55}, {"time": 533, "pitch": 56, "duration": 8, "velocity": 64}, {"time": 539, "pitch": 61, "duration": 5, "velocity": 57}, {"time": 545, "pitch": 49, "duration": 22, "velocity": 66}, {"time": 545, "pitch": 65, "duration": 13, "velocity": 70}, {"time": 551, "pitch": 53, "duration": 16, "velocity": 54}, {"time": 557, "pitch": 56, "duration": 10, "velocity": 65}, {"time": 563, "pitch": 63, "duration": 5, "velocity": 57}, {"time": 569, "pitch": 49, "duration": 20, "velocity": 70}, {"time": 569, "pitch": 56, "duration": 3, "velocity": 64}, {"time": 569, "pitch": 65, "duration": 12, "velocity": 69}, {"time": 575, "pitch": 56, "duration": 5, "velocity": 66}, {"time": 581, "pitch": 56, "duration": 4, "velocity": 69}, {"time": 581, "pitch": 61, "duration": 6, "velocity": 64}, {"time": 587, "pitch": 59, "duration": 3, "velocity": 53}, {"time": 593, "pitch": 42, "duration": 19, "velocity": 69}, {"time": 593, "pitch": 58, "duration": 13, "velocity": 63}, {"time": 593, "pitch": 66, "duration": 21, "velocity": 67}, {"time": 599, "pitch": 49, "duration": 13, "velocity": 61}, {"time": 605, "pitch": 61, "duration": 7, "velocity": 69}, {"time": 611, "pitch": 58, "duration": 3, "velocity": 61}, {"time": 617, "pitch": 44, "duration": 19, "velocity": 68}, {"time": 617, "pitch": 60, "duration": 14, "velocity": 58}, {"time": 617, "pitch": 68, "duration": 23, "velocity": 51}, {"time": 623, "pitch": 51, "duration": 12, "velocity": 66}, {"time": 629, "pitch": 63, "duration": 9, "velocity": 66}, {"time": 641, "pitch": 41, "duration": 15, "velocity": 70}, {"time": 641, "pitch": 68, "duration": 12, "velocity": 69}, {"time": 647, "pitch": 48, "duration": 8, "velocity": 64}, {"time": 653, "pitch": 65, "duration": 6, "velocity": 68}, {"time": 659, "pitch": 63, "duration": 5, "velocity": 68}, {"time": 665, "pitch": 46, "duration": 19, "velocity": 68}, {"time": 665, "pitch": 61, "duration": 5, "velocity": 59}, {"time": 665, "pitch": 65, "duration": 8, "velocity": 68}, {"time": 671, "pitch": 53, "duration": 13, "velocity": 61}, {"time": 677, "pitch": 58, "duration": 4, "velocity": 60}, {"time": 677, "pitch": 61, "duration": 6, "velocity": 64}, {"time": 683, "pitch": 60, "duration": 5, "velocity": 62}, {"time": 689, "pitch": 39, "duration": 14, "velocity": 70}, {"time": 689, "pitch": 58, "duration": 9, "velocity": 57}, {"time": 689, "pitch": 63, "duration": 11, "velocity": 61}, {"time": 695, "pitch": 46, "duration": 8, "velocity": 54}, {"time": 701, "pitch": 61, "duration": 9, "velocity": 62}, {"time": 713, "pitch": 44, "duration": 20, "velocity": 68}, {"time": 713, "pitch": 56, "duration": 8, "velocity": 58}, {"time": 713, "pitch": 63, "duration": 11, "velocity": 64}, {"time": 719, "pitch": 51, "duration": 14, "velocity": 62}, {"time": 725, "pitch": 56, "duration": 8, "velocity": 70}, {"time": 737, "pitch": 37, "duration": 47, "velocity": 64}, {"time": 737, "pitch": 56, "duration": 4, "velocity": 60}, {"time": 737, "pitch": 61, "duration": 7, "velocity": 62}, {"time": 743, "pitch": 56, "duration": 6, "velocity": 67}, {"time": 749, "pitch": 61, "duration": 6, "velocity": 61}, {"time": 749, "pitch": 66, "duration": 8, "velocity": 64}, {"time": 755, "pitch": 56, "duration": 7, "velocity": 68}, {"time": 755, "pitch": 61, "duration": 1, "velocity": 34}, {"time": 761, "pitch": 61, "duration": 11, "velocity": 68}, {"time": 761, "pitch": 65, "duration": 14, "velocity": 68}, {"time": 773, "pitch": 56, "duration": 4, "velocity": 64}, {"time": 773, "pitch": 61, "duration": 12, "velocity": 64}, {"time": 779, "pitch": 56, "duration": 5, "velocity": 66}, {"time": 785, "pitch": 42, "duration": 20, "velocity": 68}, {"time": 785, "pitch": 54, "duration": 8, "velocity": 65}, {"time": 785, "pitch": 61, "duration": 13, "velocity": 64}, {"time": 791, "pitch": 49, "duration": 13, "velocity": 48}, {"time": 797, "pitch": 58, "duration": 9, "velocity": 60}, {"time": 803, "pitch": 54, "duration": 3, "velocity": 57}, {"time": 809, "pitch": 44, "duration": 16, "velocity": 65}, {"time": 809, "pitch": 56, "duration": 9, "velocity": 55}, {"time": 809, "pitch": 63, "duration": 14, "velocity": 57}, {"time": 815, "pitch": 51, "duration": 9, "velocity": 53}, {"time": 821, "pitch": 56, "duration": 3, "velocity": 66}, {"time": 833, "pitch": 41, "duration": 15, "velocity": 68}, {"time": 833, "pitch": 56, "duration": 7, "velocity": 57}, {"time": 833, "pitch": 60, "duration": 12, "velocity": 60}, {"time": 839, "pitch": 48, "duration": 9, "velocity": 54}, {"time": 845, "pitch": 56, "duration": 9, "velocity": 71}, {"time": 857, "pitch": 46, "duration": 21, "velocity": 68}, {"time": 857, "pitch": 58, "duration": 9, "velocity": 56}, {"time": 857, "pitch": 61, "duration": 10, "velocity": 63}, {"time": 863, "pitch": 53, "duration": 15, "velocity": 58}, {"time": 869, "pitch": 58, "duration": 4, "velocity": 62}, {"time": 869, "pitch": 65, "duration": 7, "velocity": 69}, {"time": 875, "pitch": 63, "duration": 5, "velocity": 66}, {"time": 881, "pitch": 51, "duration": 14, "velocity": 68}, {"time": 881, "pitch": 58, "duration": 7, "velocity": 56}, {"time": 881, "pitch": 63, "duration": 13, "velocity": 66}, {"time": 887, "pitch": 54, "duration": 8, "velocity": 44}, {"time": 893, "pitch": 58, "duration": 4, "velocity": 60}, {"time": 905, "pitch": 44, "duration": 21, "velocity": 63}, {"time": 905, "pitch": 56, "duration": 8, "velocity": 59}, {"time": 905, "pitch": 63, "duration": 13, "velocity": 63}, {"time": 911, "pitch": 51, "duration": 15, "velocity": 55}, {"time": 917, "pitch": 56, "duration": 8, "velocity": 64}, {"time": 923, "pitch": 61, "duration": 5, "velocity": 57}, {"time": 929, "pitch": 49, "duration": 22, "velocity": 66}, {"time": 929, "pitch": 65, "duration": 13, "velocity": 70}, {"time": 935, "pitch": 53, "duration": 16, "velocity": 54}, {"time": 941, "pitch": 56, "duration": 10, "velocity": 65}, {"time": 947, "pitch": 63, "duration": 5, "velocity": 57}, {"time": 953, "pitch": 49, "duration": 20, "velocity": 70}, {"time": 953, "pitch": 56, "duration": 3, "velocity": 64}, {"time": 953, "pitch": 65, "duration": 12, "velocity": 69}, {"time": 959, "pitch": 56, "duration": 5, "velocity": 66}, {"time": 965, "pitch": 56, "duration": 4, "velocity": 69}, {"time": 965, "pitch": 61, "duration": 6, "velocity": 64}, {"time": 971, "pitch": 59, "duration": 3, "velocity": 53}, {"time": 977, "pitch": 42, "duration": 19, "velocity": 69}, {"time": 977, "pitch": 58, "duration": 13, "velocity": 63}, {"time": 977, "pitch": 66, "duration": 21, "velocity": 67}, {"time": 983, "pitch": 49, "duration": 13, "velocity": 61}, {"time": 989, "pitch": 61, "duration": 7, "velocity": 69}, {"time": 995, "pitch": 58, "duration": 3, "velocity": 61}, {"time": 1001, "pitch": 44, "duration": 19, "velocity": 68}, {"time": 1001, "pitch": 60, "duration": 14, "velocity": 58}, {"time": 1001, "pitch": 68, "duration": 23, "velocity": 51}, {"time": 1007, "pitch": 51, "duration": 12, "velocity": 66}, {"time": 1013, "pitch": 63, "duration": 9, "velocity": 66}, {"time": 1025, "pitch": 41, "duration": 15, "velocity": 70}, {"time": 1025, "pitch": 68, "duration": 12, "velocity": 69}, {"time": 1031, "pitch": 48, "duration": 8, "velocity": 64}, {"time": 1037, "pitch": 65, "duration": 6, "velocity": 68}, {"time": 1043, "pitch": 63, "duration": 5, "velocity": 68}, {"time": 1049, "pitch": 46, "duration": 19, "velocity": 68}, {"time": 1049, "pitch": 61, "duration": 5, "velocity": 59}, {"time": 1049, "pitch": 65, "duration": 8, "velocity": 68}, {"time": 1055, "pitch": 53, "duration": 13, "velocity": 61}, {"time": 1061, "pitch": 58, "duration": 4, "velocity": 60}, {"time": 1061, "pitch": 61, "duration": 6, "velocity": 64}, {"time": 1067, "pitch": 60, "duration": 5, "velocity": 62}, {"time": 1073, "pitch": 39, "duration": 14, "velocity": 70}, {"time": 1073, "pitch": 58, "duration": 9, "velocity": 57}, {"time": 1073, "pitch": 63, "duration": 11, "velocity": 61}, {"time": 1079, "pitch": 46, "duration": 8, "velocity": 54}, {"time": 1085, "pitch": 61, "duration": 9, "velocity": 62}, {"time": 1097, "pitch": 44, "duration": 20, "velocity": 68}, {"time": 1097, "pitch": 56, "duration": 8, "velocity": 58}, {"time": 1097, "pitch": 63, "duration": 11, "velocity": 64}, {"time": 1103, "pitch": 51, "duration": 14, "velocity": 62}, {"time": 1109, "pitch": 56, "duration": 8, "velocity": 70}, {"time": 1121, "pitch": 37, "duration": 47, "velocity": 64}, {"time": 1121, "pitch": 56, "duration": 4, "velocity": 60}, {"time": 1121, "pitch": 61, "duration": 7, "velocity": 62}, {"time": 1127, "pitch": 56, "duration": 6, "velocity": 67}, {"time": 1133, "pitch": 61, "duration": 6, "velocity": 61}, {"time": 1133, "pitch": 66, "duration": 8, "velocity": 64}, {"time": 1139, "pitch": 56, "duration": 7, "velocity": 68}, {"time": 1139, "pitch": 61, "duration": 1, "velocity": 34}, {"time": 1145, "pitch": 61, "duration": 11, "velocity": 68}, {"time": 1145, "pitch": 65, "duration": 14, "velocity": 68}, {"time": 1157, "pitch": 56, "duration": 4, "velocity": 64}, {"time": 1157, "pitch": 61, "duration": 12, "velocity": 64}, {"time": 1163, "pitch": 56, "duration": 5, "velocity": 66}, {"time": 1169, "pitch": 44, "duration": 26, "velocity": 91}, {"time": 1169, "pitch": 56, "duration": 10, "velocity": 75}, {"time": 1169, "pitch": 63, "duration": 7, "velocity": 71}, {"time": 1175, "pitch": 51, "duration": 21, "velocity": 64}, {"time": 1181, "pitch": 56, "duration": 4, "velocity": 73}, {"time": 1181, "pitch": 60, "duration": 4, "velocity": 78}, {"time": 1187, "pitch": 56, "duration": 4, "velocity": 62}, {"time": 1187, "pitch": 60, "duration": 5, "velocity": 67}, {"time": 1193, "pitch": 56, "duration": 5, "velocity": 75}, {"time": 1193, "pitch": 60, "duration": 7, "velocity": 77}, {"time": 1193, "pitch": 63, "duration": 6, "velocity": 69}, {"time": 1193, "pitch": 68, "duration": 6, "velocity": 76}, {"time": 1199, "pitch": 56, "duration": 4, "velocity": 65}, {"time": 1205, "pitch": 56, "duration": 12, "velocity": 69}, {"time": 1205, "pitch": 60, "duration": 12, "velocity": 77}, {"time": 1205, "pitch": 63, "duration": 12, "velocity": 74}, {"time": 1217, "pitch": 42, "duration": 15, "velocity": 70}, {"time": 1217, "pitch": 61, "duration": 8, "velocity": 68}, {"time": 1217, "pitch": 66, "duration": 8, "velocity": 68}, {"time": 1223, "pitch": 49, "duration": 9, "velocity": 53}, {"time": 1229, "pitch": 61, "duration": 8, "velocity": 68}, {"time": 1229, "pitch": 66, "duration": 11, "velocity": 69}, {"time": 1229, "pitch": 70, "duration": 11, "velocity": 64}, {"time": 1235, "pitch": 42, "duration": 4, "velocity": 68}, {"time": 1241, "pitch": 44, "duration": 15, "velocity": 70}, {"time": 1241, "pitch": 63, "duration": 7, "velocity": 67}, {"time": 1241, "pitch": 68, "duration": 7, "velocity": 61}, {"time": 1247, "pitch": 51, "duration": 8, "velocity": 59}, {"time": 1253, "pitch": 63, "duration": 3, "velocity": 65}, {"time": 1253, "pitch": 68, "duration": 10, "velocity": 68}, {"time": 1253, "pitch": 72, "duration": 8, "velocity": 69}, {"time": 1259, "pitch": 63, "duration": 4, "velocity": 50}, {"time": 1265, "pitch": 41, "duration": 20, "velocity": 70}, {"time": 1265, "pitch": 63, "duration": 1, "velocity": 45}, {"time": 1265, "pitch": 65, "duration": 3, "velocity": 48}, {"time": 1265, "pitch": 68, "duration": 9, "velocity": 63}, {"time": 1271, "pitch": 48, "duration": 9, "velocity": 62}, {"time": 1277, "pitch": 65, "duration": 6, "velocity": 72}, {"time": 1277, "pitch": 72, "duration": 7, "velocity": 71}, {"time": 1283, "pitch": 48, "duration": 3, "velocity": 69}, {"time": 1289, "pitch": 46, "duration": 11, "velocity": 68}, {"time": 1289, "pitch": 70, "duration": 5, "velocity": 59}, {"time": 1289, "pitch": 73, "duration": 5, "velocity": 67}, {"time": 1295, "pitch": 72, "duration": 3, "velocity": 69}, {"time": 1301, "pitch": 46, "duration": 4, "velocity": 27}, {"time": 1301, "pitch": 53, "duration": 4, "velocity": 61}, {"time": 1301, "pitch": 68, "duration": 7, "velocity": 69}, {"time": 1307, "pitch": 65, "duration": 3, "velocity": 69}, {"time": 1313, "pitch": 39, "duration": 16, "velocity": 71}, {"time": 1313, "pitch": 63, "duration": 8, "velocity": 68}, {"time": 1313, "pitch": 66, "duration": 8, "velocity": 67}, {"time": 1319, "pitch": 46, "duration": 8, "velocity": 49}, {"time": 1325, "pitch": 63, "duration": 3, "velocity": 68}, {"time": 1325, "pitch": 66, "duration": 8, "velocity": 69}, {"time": 1325, "pitch": 70, "duration": 8, "velocity": 64}, {"time": 1331, "pitch": 63, "duration": 4, "velocity": 60}, {"time": 1337, "pitch": 44, "duration": 17, "velocity": 69}, {"time": 1337, "pitch": 63, "duration": 8, "velocity": 68}, {"time": 1337, "pitch": 68, "duration": 9, "velocity": 64}, {"time": 1343, "pitch": 51, "duration": 9, "velocity": 61}, {"time": 1349, "pitch": 63, "duration": 3, "velocity": 71}, {"time": 1349, "pitch": 68, "duration": 3, "velocity": 70}, {"time": 1355, "pitch": 63, "duration": 4, "velocity": 63}, {"time": 1355, "pitch": 66, "duration": 5, "velocity": 69}, {"time": 1361, "pitch": 37, "duration": 2, "velocity": 66}, {"time": 1361, "pitch": 61, "duration": 9, "velocity": 63}, {"time": 1361, "pitch": 65, "duration": 10, "velocity": 65}, {"time": 1367, "pitch": 49, "duration": 17, "velocity": 61}, {"time": 1373, "pitch": 61, "duration": 7, "velocity": 68}, {"time": 1373, "pitch": 66, "duration": 7, "velocity": 69}, {"time": 1379, "pitch": 56, "duration": 6, "velocity": 68}, {"time": 1385, "pitch": 49, "duration": 14, "velocity": 75}, {"time": 1385, "pitch": 65, "duration": 7, "velocity": 73}, {"time": 1385, "pitch": 68, "duration": 7, "velocity": 69}, {"time": 1391, "pitch": 56, "duration": 8, "velocity": 71}, {"time": 1397, "pitch": 61, "duration": 6, "velocity": 70}, {"time": 1397, "pitch": 65, "duration": 7, "velocity": 74}, {"time": 1403, "pitch": 49, "duration": 2, "velocity": 71}, {"time": 1409, "pitch": 42, "duration": 17, "velocity": 67}, {"time": 1409, "pitch": 66, "duration": 8, "velocity": 60}, {"time": 1409, "pitch": 70, "duration": 9, "velocity": 60}, {"time": 1415, "pitch": 49, "duration": 11, "velocity": 64}, {"time": 1421, "pitch": 66, "duration": 3, "velocity": 69}, {"time": 1421, "pitch": 70, "duration": 11, "velocity": 69}, {"time": 1421, "pitch": 73, "duration": 12, "velocity": 69}, {"time": 1427, "pitch": 66, "duration": 5, "velocity": 66}, {"time": 1433, "pitch": 44, "duration": 18, "velocity": 69}, {"time": 1433, "pitch": 68, "duration": 8, "velocity": 66}, {"time": 1433, "pitch": 72, "duration": 8, "velocity": 68}, {"time": 1439, "pitch": 51, "duration": 10, "velocity": 64}, {"time": 1445, "pitch": 68, "duration": 4, "velocity": 64}, {"time": 1445, "pitch": 72, "duration": 11, "velocity": 66}, {"time": 1445, "pitch": 75, "duration": 7, "velocity": 69}, {"time": 1451, "pitch": 68, "duration": 5, "velocity": 68}, {"time": 1457, "pitch": 41, "duration": 20, "velocity": 70}, {"time": 1457, "pitch": 68, "duration": 4, "velocity": 68}, {"time": 1457, "pitch": 72, "duration": 10, "velocity": 69}, {"time": 1463, "pitch": 68, "duration": 4, "velocity": 69}, {"time": 1469, "pitch": 48, "duration": 7, "velocity": 70}, {"time": 1469, "pitch": 68, "duration": 4, "velocity": 67}, {"time": 1469, "pitch": 72, "duration": 5, "velocity": 71}, {"time": 1469, "pitch": 75, "duration": 7, "velocity": 73}, {"time": 1475, "pitch": 73, "duration": 4, "velocity": 68}, {"time": 1481, "pitch": 44, "duration": 1, "velocity": 45}, {"time": 1481, "pitch": 46, "duration": 14, "velocity": 61}, {"time": 1481, "pitch": 70, "duration": 5, "velocity": 62}, {"time": 1481, "pitch": 77, "duration": 6, "velocity": 67}, {"time": 1487, "pitch": 75, "duration": 6, "velocity": 69}, {"time": 1493, "pitch": 53, "duration": 3, "velocity": 65}, {"time": 1493, "pitch": 72, "duration": 6, "velocity": 69}, {"time": 1499, "pitch": 68, "duration": 5, "velocity": 68}, {"time": 1505, "pitch": 39, "duration": 2, "velocity": 70}, {"time": 1505, "pitch": 70, "duration": 19, "velocity": 66}, {"time": 1511, "pitch": 51, "duration": 8, "velocity": 68}, {"time": 1517, "pitch": 58, "duration": 3, "velocity": 74}, {"time": 1523, "pitch": 63, "duration": 4, "velocity": 70}, {"time": 1529, "pitch": 44, "duration": 15, "velocity": 69}, {"time": 1529, "pitch": 63, "duration": 9, "velocity": 64}, {"time": 1529, "pitch": 68, "duration": 8, "velocity": 65}, {"time": 1535, "pitch": 51, "duration": 8, "velocity": 69}, {"time": 1541, "pitch": 63, "duration": 9, "velocity": 68}, {"time": 1541, "pitch": 66, "duration": 10, "velocity": 69}, {"time": 1547, "pitch": 44, "duration": 2, "velocity": 66}, {"time": 1553, "pitch": 37, "duration": 2, "velocity": 64}, {"time": 1553, "pitch": 61, "duration": 10, "velocity": 63}, {"time": 1553, "pitch": 66, "duration": 11, "velocity": 63}, {"time": 1559, "pitch": 49, "duration": 43, "velocity": 62}, {"time": 1565, "pitch": 61, "duration": 9, "velocity": 71}, {"time": 1565, "pitch": 66, "duration": 9, "velocity": 70}, {"time": 1571, "pitch": 56, "duration": 10, "velocity": 67}, {"time": 1577, "pitch": 61, "duration": 10, "velocity": 64}, {"time": 1577, "pitch": 65, "duration": 10, "velocity": 70}, {"time": 1583, "pitch": 56, "duration": 18, "velocity": 56}, {"time": 1589, "pitch": 63, "duration": 8, "velocity": 61}, {"time": 1595, "pitch": 61, "duration": 6, "velocity": 61}, {"time": 1601, "pitch": 42, "duration": 20, "velocity": 68}, {"time": 1601, "pitch": 54, "duration": 8, "velocity": 65}, {"time": 1601, "pitch": 61, "duration": 13, "velocity": 64}, {"time": 1607, "pitch": 49, "duration": 13, "velocity": 48}, {"time": 1613, "pitch": 58, "duration": 9, "velocity": 60}, {"time": 1619, "pitch": 54, "duration": 3, "velocity": 57}, {"time": 1625, "pitch": 44, "duration": 16, "velocity": 65}, {"time": 1625, "pitch": 56, "duration": 9, "velocity": 55}, {"time": 1625, "pitch": 63, "duration": 14, "velocity": 57}, {"time": 1631, "pitch": 51, "duration": 9, "velocity": 53}, {"time": 1637, "pitch": 56, "duration": 3, "velocity": 66}, {"time": 1649, "pitch": 41, "duration": 15, "velocity": 68}, {"time": 1649, "pitch": 56, "duration": 7, "velocity": 57}, {"time": 1649, "pitch": 60, "duration": 12, "velocity": 60}, {"time": 1655, "pitch": 48, "duration": 9, "velocity": 54}, {"time": 1661, "pitch": 56, "duration": 9, "velocity": 71}, {"time": 1673, "pitch": 46, "duration": 21, "velocity": 68}, {"time": 1673, "pitch": 58, "duration": 9, "velocity": 56}, {"time": 1673, "pitch": 61, "duration": 10, "velocity": 63}, {"time": 1679, "pitch": 53, "duration": 15, "velocity": 58}, {"time": 1685, "pitch": 58, "duration": 4, "velocity": 62}, {"time": 1685, "pitch": 65, "duration": 7, "velocity": 69}, {"time": 1691, "pitch": 63, "duration": 5, "velocity": 66}, {"time": 1697, "pitch": 51, "duration": 14, "velocity": 68}, {"time": 1697, "pitch": 58, "duration": 7, "velocity": 56}, {"time": 1697, "pitch": 63, "duration": 13, "velocity": 66}, {"time": 1703, "pitch": 54, "duration": 8, "velocity": 44}, {"time": 1709, "pitch": 58, "duration": 4, "velocity": 60}, {"time": 1721, "pitch": 44, "duration": 21, "velocity": 63}, {"time": 1721, "pitch": 56, "duration": 8, "velocity": 59}, {"time": 1721, "pitch": 63, "duration": 13, "velocity": 63}, {"time": 1727, "pitch": 51, "duration": 15, "velocity": 55}, {"time": 1733, "pitch": 56, "duration": 8, "velocity": 64}, {"time": 1739, "pitch": 61, "duration": 5, "velocity": 57}, {"time": 1745, "pitch": 56, "duration": 20, "velocity": 60}, {"time": 1745, "pitch": 44, "duration": 37, "velocity": 60}, {"time": 1745, "pitch": 63, "duration": 11, "velocity": 60}, {"time": 1751, "pitch": 51, "duration": 21, "velocity": 70}, {"time": 1757, "pitch": 60, "duration": 8, "velocity": 75}, {"time": 1763, "pitch": 63, "duration": 4, "velocity": 82}, {"time": 1769, "pitch": 68, "duration": 18, "velocity": 60}, {"time": 1769, "pitch": 56, "duration": 18, "velocity": 60}, {"time": 1769, "pitch": 63, "duration": 18, "velocity": 60}, {"time": 1769, "pitch": 60, "duration": 17, "velocity": 63}, {"time": 1793, "pitch": 42, "duration": 20, "velocity": 68}, {"time": 1793, "pitch": 54, "duration": 8, "velocity": 65}, {"time": 1793, "pitch": 61, "duration": 13, "velocity": 64}, {"time": 1799, "pitch": 49, "duration": 13, "velocity": 48}, {"time": 1805, "pitch": 58, "duration": 9, "velocity": 60}, {"time": 1811, "pitch": 54, "duration": 3, "velocity": 57}, {"time": 1817, "pitch": 44, "duration": 16, "velocity": 65}, {"time": 1817, "pitch": 56, "duration": 9, "velocity": 55}, {"time": 1817, "pitch": 63, "duration": 14, "velocity": 57}, {"time": 1823, "pitch": 51, "duration": 9, "velocity": 53}, {"time": 1829, "pitch": 56, "duration": 3, "velocity": 66}, {"time": 1841, "pitch": 41, "duration": 15, "velocity": 68}, {"time": 1841, "pitch": 56, "duration": 7, "velocity": 57}, {"time": 1841, "pitch": 60, "duration": 12, "velocity": 60}, {"time": 1847, "pitch": 48, "duration": 9, "velocity": 54}, {"time": 1853, "pitch": 56, "duration": 9, "velocity": 71}, {"time": 1865, "pitch": 46, "duration": 21, "velocity": 68}, {"time": 1865, "pitch": 58, "duration": 9, "velocity": 56}, {"time": 1865, "pitch": 61, "duration": 10, "velocity": 63}, {"time": 1871, "pitch": 53, "duration": 15, "velocity": 58}, {"time": 1877, "pitch": 58, "duration": 4, "velocity": 62}, {"time": 1877, "pitch": 65, "duration": 7, "velocity": 69}, {"time": 1883, "pitch": 63, "duration": 5, "velocity": 66}, {"time": 1889, "pitch": 51, "duration": 14, "velocity": 68}, {"time": 1889, "pitch": 58, "duration": 7, "velocity": 56}, {"time": 1889, "pitch": 63, "duration": 13, "velocity": 66}, {"time": 1895, "pitch": 54, "duration": 8, "velocity": 44}, {"time": 1901, "pitch": 58, "duration": 4, "velocity": 60}, {"time": 1913, "pitch": 44, "duration": 21, "velocity": 63}, {"time": 1913, "pitch": 56, "duration": 8, "velocity": 59}, {"time": 1913, "pitch": 63, "duration": 13, "velocity": 63}, {"time": 1919, "pitch": 51, "duration": 15, "velocity": 55}, {"time": 1925, "pitch": 56, "duration": 8, "velocity": 64}, {"time": 1931, "pitch": 61, "duration": 5, "velocity": 57}, {"time": 1937, "pitch": 49, "duration": 22, "velocity": 66}, {"time": 1937, "pitch": 65, "duration": 13, "velocity": 70}, {"time": 1943, "pitch": 53, "duration": 16, "velocity": 54}, {"time": 1949, "pitch": 56, "duration": 10, "velocity": 65}, {"time": 1955, "pitch": 63, "duration": 5, "velocity": 57}, {"time": 1961, "pitch": 49, "duration": 20, "velocity": 70}, {"time": 1961, "pitch": 56, "duration": 3, "velocity": 64}, {"time": 1961, "pitch": 65, "duration": 12, "velocity": 69}, {"time": 1967, "pitch": 56, "duration": 5, "velocity": 66}, {"time": 1973, "pitch": 56, "duration": 4, "velocity": 69}, {"time": 1973, "pitch": 61, "duration": 6, "velocity": 64}, {"time": 1979, "pitch": 59, "duration": 3, "velocity": 53}, {"time": 1985, "pitch": 42, "duration": 19, "velocity": 69}, {"time": 1985, "pitch": 58, "duration": 13, "velocity": 63}, {"time": 1985, "pitch": 66, "duration": 21, "velocity": 67}, {"time": 1991, "pitch": 49, "duration": 13, "velocity": 61}, {"time": 1997, "pitch": 61, "duration": 7, "velocity": 69}, {"time": 2003, "pitch": 58, "duration": 3, "velocity": 61}, {"time": 2009, "pitch": 44, "duration": 19, "velocity": 68}, {"time": 2009, "pitch": 60, "duration": 14, "velocity": 58}, {"time": 2009, "pitch": 68, "duration": 23, "velocity": 51}, {"time": 2015, "pitch": 51, "duration": 12, "velocity": 66}, {"time": 2021, "pitch": 63, "duration": 9, "velocity": 66}, {"time": 2033, "pitch": 41, "duration": 15, "velocity": 70}, {"time": 2033, "pitch": 68, "duration": 12, "velocity": 69}, {"time": 2039, "pitch": 48, "duration": 8, "velocity": 64}, {"time": 2045, "pitch": 65, "duration": 6, "velocity": 68}, {"time": 2051, "pitch": 63, "duration": 5, "velocity": 68}, {"time": 2057, "pitch": 46, "duration": 19, "velocity": 68}, {"time": 2057, "pitch": 61, "duration": 5, "velocity": 59}, {"time": 2057, "pitch": 65, "duration": 8, "velocity": 68}, {"time": 2063, "pitch": 53, "duration": 13, "velocity": 61}, {"time": 2069, "pitch": 58, "duration": 4, "velocity": 60}, {"time": 2069, "pitch": 61, "duration": 6, "velocity": 64}, {"time": 2075, "pitch": 60, "duration": 5, "velocity": 62}, {"time": 2081, "pitch": 39, "duration": 14, "velocity": 70}, {"time": 2081, "pitch": 58, "duration": 9, "velocity": 57}, {"time": 2081, "pitch": 63, "duration": 11, "velocity": 61}, {"time": 2087, "pitch": 46, "duration": 8, "velocity": 54}, {"time": 2093, "pitch": 61, "duration": 9, "velocity": 62}, {"time": 2105, "pitch": 44, "duration": 20, "velocity": 68}, {"time": 2105, "pitch": 56, "duration": 8, "velocity": 58}, {"time": 2105, "pitch": 63, "duration": 11, "velocity": 64}, {"time": 2111, "pitch": 51, "duration": 14, "velocity": 62}, {"time": 2117, "pitch": 56, "duration": 8, "velocity": 70}, {"time": 2129, "pitch": 37, "duration": 47, "velocity": 64}, {"time": 2129, "pitch": 56, "duration": 4, "velocity": 60}, {"time": 2129, "pitch": 61, "duration": 7, "velocity": 62}, {"time": 2135, "pitch": 56, "duration": 6, "velocity": 67}, {"time": 2141, "pitch": 61, "duration": 6, "velocity": 61}, {"time": 2141, "pitch": 66, "duration": 8, "velocity": 64}, {"time": 2147, "pitch": 56, "duration": 7, "velocity": 68}, {"time": 2147, "pitch": 61, "duration": 1, "velocity": 34}, {"time": 2153, "pitch": 61, "duration": 11, "velocity": 68}, {"time": 2153, "pitch": 65, "duration": 14, "velocity": 68}, {"time": 2165, "pitch": 56, "duration": 4, "velocity": 64}, {"time": 2165, "pitch": 61, "duration": 12, "velocity": 64}, {"time": 2171, "pitch": 56, "duration": 5, "velocity": 66}, {"time": 2177, "pitch": 42, "duration": 20, "velocity": 68}, {"time": 2177, "pitch": 54, "duration": 8, "velocity": 65}, {"time": 2177, "pitch": 61, "duration": 13, "velocity": 64}, {"time": 2183, "pitch": 49, "duration": 13, "velocity": 48}, {"time": 2189, "pitch": 58, "duration": 9, "velocity": 60}, {"time": 2195, "pitch": 54, "duration": 3, "velocity": 57}, {"time": 2201, "pitch": 44, "duration": 16, "velocity": 65}, {"time": 2201, "pitch": 56, "duration": 9, "velocity": 55}, {"time": 2201, "pitch": 63, "duration": 14, "velocity": 57}, {"time": 2207, "pitch": 51, "duration": 9, "velocity": 53}, {"time": 2213, "pitch": 56, "duration": 3, "velocity": 66}, {"time": 2225, "pitch": 41, "duration": 15, "velocity": 68}, {"time": 2225, "pitch": 56, "duration": 7, "velocity": 57}, {"time": 2225, "pitch": 60, "duration": 12, "velocity": 60}, {"time": 2231, "pitch": 48, "duration": 9, "velocity": 54}, {"time": 2237, "pitch": 56, "duration": 9, "velocity": 71}, {"time": 2249, "pitch": 46, "duration": 21, "velocity": 68}, {"time": 2249, "pitch": 58, "duration": 9, "velocity": 56}, {"time": 2249, "pitch": 61, "duration": 10, "velocity": 63}, {"time": 2255, "pitch": 53, "duration": 15, "velocity": 58}, {"time": 2261, "pitch": 58, "duration": 4, "velocity": 62}, {"time": 2261, "pitch": 65, "duration": 7, "velocity": 69}, {"time": 2267, "pitch": 63, "duration": 5, "velocity": 66}, {"time": 2273, "pitch": 51, "duration": 14, "velocity": 68}, {"time": 2273, "pitch": 58, "duration": 7, "velocity": 56}, {"time": 2273, "pitch": 63, "duration": 13, "velocity": 66}, {"time": 2279, "pitch": 54, "duration": 8, "velocity": 44}, {"time": 2285, "pitch": 58, "duration": 4, "velocity": 60}, {"time": 2297, "pitch": 44, "duration": 21, "velocity": 63}, {"time": 2297, "pitch": 56, "duration": 8, "velocity": 59}, {"time": 2297, "pitch": 63, "duration": 13, "velocity": 63}, {"time": 2303, "pitch": 51, "duration": 15, "velocity": 55}, {"time": 2309, "pitch": 56, "duration": 8, "velocity": 64}, {"time": 2315, "pitch": 61, "duration": 5, "velocity": 57}, {"time": 2321, "pitch": 49, "duration": 22, "velocity": 66}, {"time": 2321, "pitch": 65, "duration": 13, "velocity": 70}, {"time": 2327, "pitch": 53, "duration": 16, "velocity": 54}, {"time": 2333, "pitch": 56, "duration": 10, "velocity": 65}, {"time": 2339, "pitch": 63, "duration": 5, "velocity": 57}, {"time": 2345, "pitch": 49, "duration": 20, "velocity": 70}, {"time": 2345, "pitch": 56, "duration": 3, "velocity": 64}, {"time": 2345, "pitch": 65, "duration": 12, "velocity": 69}, {"time": 2351, "pitch": 56, "duration": 5, "velocity": 66}, {"time": 2357, "pitch": 56, "duration": 4, "velocity": 69}, {"time": 2357, "pitch": 61, "duration": 6, "velocity": 64}, {"time": 2363, "pitch": 59, "duration": 3, "velocity": 53}, {"time": 2369, "pitch": 42, "duration": 19, "velocity": 69}, {"time": 2369, "pitch": 58, "duration": 13, "velocity": 63}, {"time": 2369, "pitch": 66, "duration": 21, "velocity": 67}, {"time": 2375, "pitch": 49, "duration": 13, "velocity": 61}, {"time": 2381, "pitch": 61, "duration": 7, "velocity": 69}, {"time": 2387, "pitch": 58, "duration": 3, "velocity": 61}, {"time": 2393, "pitch": 44, "duration": 19, "velocity": 68}, {"time": 2393, "pitch": 60, "duration": 14, "velocity": 58}, {"time": 2393, "pitch": 68, "duration": 23, "velocity": 51}, {"time": 2399, "pitch": 51, "duration": 12, "velocity": 66}, {"time": 2405, "pitch": 63, "duration": 9, "velocity": 66}, {"time": 2417, "pitch": 41, "duration": 15, "velocity": 70}, {"time": 2417, "pitch": 68, "duration": 12, "velocity": 69}, {"time": 2423, "pitch": 48, "duration": 8, "velocity": 64}, {"time": 2429, "pitch": 65, "duration": 6, "velocity": 68}, {"time": 2435, "pitch": 63, "duration": 5, "velocity": 68}, {"time": 2441, "pitch": 46, "duration": 19, "velocity": 68}, {"time": 2441, "pitch": 61, "duration": 5, "velocity": 59}, {"time": 2441, "pitch": 65, "duration": 8, "velocity": 68}, {"time": 2447, "pitch": 53, "duration": 13, "velocity": 61}, {"time": 2453, "pitch": 58, "duration": 4, "velocity": 60}, {"time": 2453, "pitch": 61, "duration": 6, "velocity": 64}, {"time": 2459, "pitch": 60, "duration": 5, "velocity": 62}, {"time": 2465, "pitch": 39, "duration": 14, "velocity": 70}, {"time": 2465, "pitch": 58, "duration": 9, "velocity": 57}, {"time": 2465, "pitch": 63, "duration": 11, "velocity": 61}, {"time": 2471, "pitch": 46, "duration": 8, "velocity": 54}, {"time": 2477, "pitch": 61, "duration": 9, "velocity": 62}, {"time": 2489, "pitch": 44, "duration": 20, "velocity": 68}, {"time": 2489, "pitch": 56, "duration": 8, "velocity": 58}, {"time": 2489, "pitch": 63, "duration": 11, "velocity": 64}, {"time": 2495, "pitch": 51, "duration": 14, "velocity": 62}, {"time": 2501, "pitch": 56, "duration": 8, "velocity": 70}, {"time": 2513, "pitch": 37, "duration": 47, "velocity": 64}, {"time": 2513, "pitch": 56, "duration": 4, "velocity": 60}, {"time": 2513, "pitch": 61, "duration": 7, "velocity": 62}, {"time": 2519, "pitch": 56, "duration": 6, "velocity": 67}, {"time": 2525, "pitch": 61, "duration": 6, "velocity": 61}, {"time": 2525, "pitch": 66, "duration": 8, "velocity": 64}, {"time": 2531, "pitch": 56, "duration": 7, "velocity": 68}, {"time": 2531, "pitch": 61, "duration": 1, "velocity": 34}, {"time": 2537, "pitch": 61, "duration": 11, "velocity": 68}, {"time": 2537, "pitch": 65, "duration": 14, "velocity": 68}, {"time": 2549, "pitch": 56, "duration": 4, "velocity": 64}, {"time": 2549, "pitch": 61, "duration": 12, "velocity": 64}, {"time": 2555, "pitch": 56, "duration": 5, "velocity": 66}, {"time": 2561, "pitch": 44, "duration": 23, "velocity": 69}, {"time": 2561, "pitch": 56, "duration": 7, "velocity": 67}, {"time": 2561, "pitch": 68, "duration": 7, "velocity": 68}, {"time": 2567, "pitch": 51, "duration": 17, "velocity": 63}, {"time": 2573, "pitch": 56, "duration": 3, "velocity": 57}, {"time": 2573, "pitch": 60, "duration": 3, "velocity": 62}, {"time": 2573, "pitch": 63, "duration": 7, "velocity": 65}, {"time": 2579, "pitch": 56, "duration": 2, "velocity": 66}, {"time": 2585, "pitch": 44, "duration": 24, "velocity": 73}, {"time": 2585, "pitch": 63, "duration": 4, "velocity": 71}, {"time": 2585, "pitch": 68, "duration": 7, "velocity": 66}, {"time": 2591, "pitch": 51, "duration": 18, "velocity": 68}, {"time": 2597, "pitch": 63, "duration": 3, "velocity": 69}, {"time": 2597, "pitch": 68, "duration": 12, "velocity": 68}, {"time": 2597, "pitch": 72, "duration": 13, "velocity": 69}, {"time": 2603, "pitch": 63, "duration": 7, "velocity": 62}, {"time": 2609, "pitch": 42, "duration": 15, "velocity": 70}, {"time": 2609, "pitch": 61, "duration": 8, "velocity": 68}, {"time": 2609, "pitch": 66, "duration": 8, "velocity": 68}, {"time": 2615, "pitch": 49, "duration": 9, "velocity": 53}, {"time": 2621, "pitch": 61, "duration": 8, "velocity": 68}, {"time": 2621, "pitch": 66, "duration": 11, "velocity": 69}, {"time": 2621, "pitch": 70, "duration": 11, "velocity": 64}, {"time": 2627, "pitch": 42, "duration": 4, "velocity": 68}, {"time": 2633, "pitch": 44, "duration": 15, "velocity": 70}, {"time": 2633, "pitch": 63, "duration": 7, "velocity": 67}, {"time": 2633, "pitch": 68, "duration": 7, "velocity": 61}, {"time": 2639, "pitch": 51, "duration": 8, "velocity": 59}, {"time": 2645, "pitch": 63, "duration": 3, "velocity": 65}, {"time": 2645, "pitch": 68, "duration": 10, "velocity": 68}, {"time": 2645, "pitch": 72, "duration": 8, "velocity": 69}, {"time": 2651, "pitch": 63, "duration": 4, "velocity": 50}, {"time": 2657, "pitch": 41, "duration": 20, "velocity": 70}, {"time": 2657, "pitch": 63, "duration": 1, "velocity": 45}, {"time": 2657, "pitch": 65, "duration": 3, "velocity": 48}, {"time": 2657, "pitch": 68, "duration": 9, "velocity": 63}, {"time": 2663, "pitch": 48, "duration": 9, "velocity": 62}, {"time": 2669, "pitch": 65, "duration": 6, "velocity": 72}, {"time": 2669, "pitch": 72, "duration": 7, "velocity": 71}, {"time": 2675, "pitch": 48, "duration": 3, "velocity": 69}, {"time": 2681, "pitch": 46, "duration": 11, "velocity": 68}, {"time": 2681, "pitch": 70, "duration": 5, "velocity": 59}, {"time": 2681, "pitch": 73, "duration": 5, "velocity": 67}, {"time": 2687, "pitch": 72, "duration": 3, "velocity": 69}, {"time": 2693, "pitch": 46, "duration": 4, "velocity": 27}, {"time": 2693, "pitch": 53, "duration": 4, "velocity": 61}, {"time": 2693, "pitch": 68, "duration": 7, "velocity": 69}, {"time": 2699, "pitch": 65, "duration": 3, "velocity": 69}, {"time": 2705, "pitch": 39, "duration": 16, "velocity": 71}, {"time": 2705, "pitch": 63, "duration": 8, "velocity": 68}, {"time": 2705, "pitch": 66, "duration": 8, "velocity": 67}, {"time": 2711, "pitch": 46, "duration": 8, "velocity": 49}, {"time": 2717, "pitch": 63, "duration": 3, "velocity": 68}, {"time": 2717, "pitch": 66, "duration": 8, "velocity": 69}, {"time": 2717, "pitch": 70, "duration": 8, "velocity": 64}, {"time": 2723, "pitch": 63, "duration": 4, "velocity": 60}, {"time": 2729, "pitch": 44, "duration": 17, "velocity": 69}, {"time": 2729, "pitch": 63, "duration": 8, "velocity": 68}, {"time": 2729, "pitch": 68, "duration": 9, "velocity": 64}, {"time": 2735, "pitch": 51, "duration": 9, "velocity": 61}, {"time": 2741, "pitch": 63, "duration": 3, "velocity": 71}, {"time": 2741, "pitch": 68, "duration": 3, "velocity": 70}, {"time": 2747, "pitch": 63, "duration": 4, "velocity": 63}, {"time": 2747, "pitch": 66, "duration": 5, "velocity": 69}, {"time": 2753, "pitch": 37, "duration": 2, "velocity": 66}, {"time": 2753, "pitch": 61, "duration": 9, "velocity": 63}, {"time": 2753, "pitch": 65, "duration": 10, "velocity": 65}, {"time": 2759, "pitch": 49, "duration": 17, "velocity": 61}, {"time": 2765, "pitch": 61, "duration": 7, "velocity": 68}, {"time": 2765, "pitch": 66, "duration": 7, "velocity": 69}, {"time": 2771, "pitch": 56, "duration": 6, "velocity": 68}, {"time": 2777, "pitch": 49, "duration": 14, "velocity": 75}, {"time": 2777, "pitch": 65, "duration": 7, "velocity": 73}, {"time": 2777, "pitch": 68, "duration": 7, "velocity": 69}, {"time": 2783, "pitch": 56, "duration": 8, "velocity": 71}, {"time": 2789, "pitch": 61, "duration": 6, "velocity": 70}, {"time": 2789, "pitch": 65, "duration": 7, "velocity": 74}, {"time": 2795, "pitch": 49, "duration": 2, "velocity": 71}, {"time": 2801, "pitch": 42, "duration": 17, "velocity": 67}, {"time": 2801, "pitch": 66, "duration": 8, "velocity": 60}, {"time": 2801, "pitch": 70, "duration": 9, "velocity": 60}, {"time": 2807, "pitch": 49, "duration": 11, "velocity": 64}, {"time": 2813, "pitch": 66, "duration": 3, "velocity": 69}, {"time": 2813, "pitch": 70, "duration": 11, "velocity": 69}, {"time": 2813, "pitch": 73, "duration": 12, "velocity": 69}, {"time": 2819, "pitch": 66, "duration": 5, "velocity": 66}, {"time": 2825, "pitch": 44, "duration": 18, "velocity": 69}, {"time": 2825, "pitch": 68, "duration": 8, "velocity": 66}, {"time": 2825, "pitch": 72, "duration": 8, "velocity": 68}, {"time": 2831, "pitch": 51, "duration": 10, "velocity": 64}, {"time": 2837, "pitch": 68, "duration": 4, "velocity": 64}, {"time": 2837, "pitch": 72, "duration": 11, "velocity": 66}, {"time": 2837, "pitch": 75, "duration": 7, "velocity": 69}, {"time": 2843, "pitch": 68, "duration": 5, "velocity": 68}, {"time": 2849, "pitch": 41, "duration": 20, "velocity": 70}, {"time": 2849, "pitch": 68, "duration": 4, "velocity": 68}, {"time": 2849, "pitch": 72, "duration": 10, "velocity": 69}, {"time": 2855, "pitch": 68, "duration": 4, "velocity": 69}, {"time": 2861, "pitch": 48, "duration": 7, "velocity": 70}, {"time": 2861, "pitch": 68, "duration": 4, "velocity": 67}, {"time": 2861, "pitch": 72, "duration": 5, "velocity": 71}, {"time": 2861, "pitch": 75, "duration": 7, "velocity": 73}, {"time": 2867, "pitch": 73, "duration": 4, "velocity": 68}, {"time": 2873, "pitch": 44, "duration": 1, "velocity": 45}, {"time": 2873, "pitch": 46, "duration": 14, "velocity": 61}, {"time": 2873, "pitch": 70, "duration": 5, "velocity": 62}, {"time": 2873, "pitch": 77, "duration": 6, "velocity": 67}, {"time": 2879, "pitch": 75, "duration": 6, "velocity": 69}, {"time": 2885, "pitch": 53, "duration": 3, "velocity": 65}, {"time": 2885, "pitch": 72, "duration": 6, "velocity": 69}, {"time": 2891, "pitch": 68, "duration": 5, "velocity": 68}, {"time": 2897, "pitch": 39, "duration": 2, "velocity": 70}, {"time": 2897, "pitch": 70, "duration": 19, "velocity": 66}, {"time": 2903, "pitch": 51, "duration": 8, "velocity": 68}, {"time": 2909, "pitch": 58, "duration": 3, "velocity": 74}, {"time": 2915, "pitch": 63, "duration": 4, "velocity": 70}, {"time": 2921, "pitch": 44, "duration": 15, "velocity": 69}, {"time": 2921, "pitch": 63, "duration": 9, "velocity": 64}, {"time": 2921, "pitch": 68, "duration": 8, "velocity": 65}, {"time": 2927, "pitch": 51, "duration": 8, "velocity": 69}, {"time": 2933, "pitch": 63, "duration": 9, "velocity": 68}, {"time": 2933, "pitch": 66, "duration": 10, "velocity": 69}, {"time": 2939, "pitch": 44, "duration": 2, "velocity": 66}, {"time": 2945, "pitch": 37, "duration": 2, "velocity": 64}, {"time": 2945, "pitch": 61, "duration": 10, "velocity": 63}, {"time": 2945, "pitch": 66, "duration": 11, "velocity": 63}, {"time": 2951, "pitch": 49, "duration": 43, "velocity": 62}, {"time": 2957, "pitch": 61, "duration": 9, "velocity": 71}, {"time": 2957, "pitch": 66, "duration": 9, "velocity": 70}, {"time": 2963, "pitch": 56, "duration": 10, "velocity": 67}, {"time": 2969, "pitch": 61, "duration": 10, "velocity": 64}, {"time": 2969, "pitch": 65, "duration": 10, "velocity": 70}, {"time": 2975, "pitch": 56, "duration": 18, "velocity": 56}, {"time": 2981, "pitch": 63, "duration": 8, "velocity": 61}, {"time": 2987, "pitch": 61, "duration": 6, "velocity": 61}, {"time": 2993, "pitch": 42, "duration": 15, "velocity": 70}, {"time": 2993, "pitch": 61, "duration": 8, "velocity": 68}, {"time": 2993, "pitch": 66, "duration": 8, "velocity": 68}, {"time": 2999, "pitch": 49, "duration": 9, "velocity": 53}, {"time": 3005, "pitch": 61, "duration": 8, "velocity": 68}, {"time": 3005, "pitch": 66, "duration": 11, "velocity": 69}, {"time": 3005, "pitch": 70, "duration": 11, "velocity": 64}, {"time": 3011, "pitch": 42, "duration": 4, "velocity": 68}, {"time": 3017, "pitch": 44, "duration": 15, "velocity": 70}, {"time": 3017, "pitch": 63, "duration": 7, "velocity": 67}, {"time": 3017, "pitch": 68, "duration": 7, "velocity": 61}, {"time": 3023, "pitch": 51, "duration": 8, "velocity": 59}, {"time": 3029, "pitch": 63, "duration": 3, "velocity": 65}, {"time": 3029, "pitch": 68, "duration": 10, "velocity": 68}, {"time": 3029, "pitch": 72, "duration": 8, "velocity": 69}, {"time": 3035, "pitch": 63, "duration": 4, "velocity": 50}, {"time": 3041, "pitch": 41, "duration": 20, "velocity": 70}, {"time": 3041, "pitch": 63, "duration": 1, "velocity": 45}, {"time": 3041, "pitch": 65, "duration": 3, "velocity": 48}, {"time": 3041, "pitch": 68, "duration": 9, "velocity": 63}, {"time": 3047, "pitch": 48, "duration": 9, "velocity": 62}, {"time": 3053, "pitch": 65, "duration": 6, "velocity": 72}, {"time": 3053, "pitch": 72, "duration": 7, "velocity": 71}, {"time": 3059, "pitch": 48, "duration": 3, "velocity": 69}, {"time": 3065, "pitch": 46, "duration": 11, "velocity": 68}, {"time": 3065, "pitch": 70, "duration": 5, "velocity": 59}, {"time": 3065, "pitch": 73, "duration": 5, "velocity": 67}, {"time": 3071, "pitch": 72, "duration": 3, "velocity": 69}, {"time": 3077, "pitch": 46, "duration": 4, "velocity": 27}, {"time": 3077, "pitch": 53, "duration": 4, "velocity": 61}, {"time": 3077, "pitch": 68, "duration": 7, "velocity": 69}, {"time": 3083, "pitch": 65, "duration": 3, "velocity": 69}, {"time": 3089, "pitch": 39, "duration": 16, "velocity": 71}, {"time": 3089, "pitch": 63, "duration": 8, "velocity": 68}, {"time": 3089, "pitch": 66, "duration": 8, "velocity": 67}, {"time": 3095, "pitch": 46, "duration": 8, "velocity": 49}, {"time": 3101, "pitch": 63, "duration": 3, "velocity": 68}, {"time": 3101, "pitch": 66, "duration": 8, "velocity": 69}, {"time": 3101, "pitch": 70, "duration": 8, "velocity": 64}, {"time": 3107, "pitch": 63, "duration": 4, "velocity": 60}, {"time": 3113, "pitch": 44, "duration": 17, "velocity": 69}, {"time": 3113, "pitch": 63, "duration": 8, "velocity": 68}, {"time": 3113, "pitch": 68, "duration": 9, "velocity": 64}, {"time": 3119, "pitch": 51, "duration": 9, "velocity": 61}, {"time": 3125, "pitch": 63, "duration": 3, "velocity": 71}, {"time": 3125, "pitch": 68, "duration": 3, "velocity": 70}, {"time": 3131, "pitch": 63, "duration": 4, "velocity": 63}, {"time": 3131, "pitch": 66, "duration": 5, "velocity": 69}, {"time": 3137, "pitch": 37, "duration": 2, "velocity": 66}, {"time": 3137, "pitch": 61, "duration": 9, "velocity": 63}, {"time": 3137, "pitch": 65, "duration": 10, "velocity": 65}, {"time": 3143, "pitch": 49, "duration": 17, "velocity": 61}, {"time": 3149, "pitch": 61, "duration": 7, "velocity": 68}, {"time": 3149, "pitch": 66, "duration": 7, "velocity": 69}, {"time": 3155, "pitch": 56, "duration": 6, "velocity": 68}, {"time": 3161, "pitch": 49, "duration": 14, "velocity": 75}, {"time": 3161, "pitch": 65, "duration": 7, "velocity": 73}, {"time": 3161, "pitch": 68, "duration": 7, "velocity": 69}, {"time": 3167, "pitch": 56, "duration": 8, "velocity": 71}, {"time": 3173, "pitch": 61, "duration": 6, "velocity": 70}, {"time": 3173, "pitch": 65, "duration": 7, "velocity": 74}, {"time": 3179, "pitch": 49, "duration": 2, "velocity": 71}, {"time": 3185, "pitch": 42, "duration": 17, "velocity": 67}, {"time": 3185, "pitch": 66, "duration": 8, "velocity": 60}, {"time": 3185, "pitch": 70, "duration": 9, "velocity": 60}, {"time": 3191, "pitch": 49, "duration": 11, "velocity": 64}, {"time": 3197, "pitch": 66, "duration": 3, "velocity": 69}, {"time": 3197, "pitch": 70, "duration": 11, "velocity": 69}, {"time": 3197, "pitch": 73, "duration": 12, "velocity": 69}, {"time": 3203, "pitch": 66, "duration": 5, "velocity": 66}, {"time": 3209, "pitch": 44, "duration": 18, "velocity": 69}, {"time": 3209, "pitch": 68, "duration": 8, "velocity": 66}, {"time": 3209, "pitch": 72, "duration": 8, "velocity": 68}, {"time": 3215, "pitch": 51, "duration": 10, "velocity": 64}, {"time": 3221, "pitch": 68, "duration": 4, "velocity": 64}, {"time": 3221, "pitch": 72, "duration": 11, "velocity": 66}, {"time": 3221, "pitch": 75, "duration": 7, "velocity": 69}, {"time": 3227, "pitch": 68, "duration": 5, "velocity": 68}, {"time": 3233, "pitch": 41, "duration": 20, "velocity": 70}, {"time": 3233, "pitch": 68, "duration": 4, "velocity": 68}, {"time": 3233, "pitch": 72, "duration": 10, "velocity": 69}, {"time": 3239, "pitch": 68, "duration": 4, "velocity": 69}, {"time": 3245, "pitch": 48, "duration": 7, "velocity": 70}, {"time": 3245, "pitch": 68, "duration": 4, "velocity": 67}, {"time": 3245, "pitch": 72, "duration": 5, "velocity": 71}, {"time": 3245, "pitch": 75, "duration": 7, "velocity": 73}, {"time": 3251, "pitch": 73, "duration": 4, "velocity": 68}, {"time": 3257, "pitch": 44, "duration": 1, "velocity": 45}, {"time": 3257, "pitch": 46, "duration": 14, "velocity": 61}, {"time": 3257, "pitch": 70, "duration": 5, "velocity": 62}, {"time": 3257, "pitch": 77, "duration": 6, "velocity": 67}, {"time": 3263, "pitch": 75, "duration": 6, "velocity": 69}, {"time": 3269, "pitch": 53, "duration": 3, "velocity": 65}, {"time": 3269, "pitch": 72, "duration": 6, "velocity": 69}, {"time": 3275, "pitch": 68, "duration": 5, "velocity": 68}, {"time": 3281, "pitch": 39, "duration": 2, "velocity": 70}, {"time": 3281, "pitch": 70, "duration": 19, "velocity": 66}, {"time": 3287, "pitch": 51, "duration": 8, "velocity": 68}, {"time": 3293, "pitch": 58, "duration": 3, "velocity": 74}, {"time": 3299, "pitch": 63, "duration": 4, "velocity": 70}, {"time": 3305, "pitch": 44, "duration": 15, "velocity": 69}, {"time": 3305, "pitch": 63, "duration": 9, "velocity": 64}, {"time": 3305, "pitch": 68, "duration": 8, "velocity": 65}, {"time": 3311, "pitch": 51, "duration": 8, "velocity": 69}, {"time": 3317, "pitch": 63, "duration": 9, "velocity": 68}, {"time": 3317, "pitch": 66, "duration": 10, "velocity": 69}, {"time": 3323, "pitch": 44, "duration": 2, "velocity": 66}, {"time": 3329, "pitch": 37, "duration": 2, "velocity": 64}, {"time": 3329, "pitch": 61, "duration": 10, "velocity": 63}, {"time": 3329, "pitch": 66, "duration": 11, "velocity": 63}, {"time": 3335, "pitch": 49, "duration": 43, "velocity": 62}, {"time": 3341, "pitch": 61, "duration": 9, "velocity": 71}, {"time": 3341, "pitch": 66, "duration": 9, "velocity": 70}, {"time": 3347, "pitch": 56, "duration": 10, "velocity": 67}, {"time": 3353, "pitch": 61, "duration": 10, "velocity": 64}, {"time": 3353, "pitch": 65, "duration": 10, "velocity": 70}, {"time": 3359, "pitch": 56, "duration": 18, "velocity": 56}, {"time": 3365, "pitch": 63, "duration": 8, "velocity": 61}, {"time": 3371, "pitch": 61, "duration": 6, "velocity": 61}, {"time": 3377, "pitch": 42, "duration": 20, "velocity": 68}, {"time": 3377, "pitch": 54, "duration": 8, "velocity": 65}, {"time": 3377, "pitch": 61, "duration": 13, "velocity": 64}, {"time": 3383, "pitch": 49, "duration": 13, "velocity": 48}, {"time": 3389, "pitch": 58, "duration": 9, "velocity": 60}, {"time": 3395, "pitch": 54, "duration": 3, "velocity": 57}, {"time": 3401, "pitch": 44, "duration": 16, "velocity": 65}, {"time": 3401, "pitch": 56, "duration": 9, "velocity": 55}, {"time": 3401, "pitch": 63, "duration": 14, "velocity": 57}, {"time": 3407, "pitch": 51, "duration": 9, "velocity": 53}, {"time": 3413, "pitch": 56, "duration": 3, "velocity": 66}, {"time": 3425, "pitch": 41, "duration": 15, "velocity": 68}, {"time": 3425, "pitch": 56, "duration": 7, "velocity": 57}, {"time": 3425, "pitch": 60, "duration": 12, "velocity": 60}, {"time": 3431, "pitch": 48, "duration": 9, "velocity": 54}, {"time": 3437, "pitch": 56, "duration": 9, "velocity": 71}, {"time": 3449, "pitch": 46, "duration": 21, "velocity": 68}, {"time": 3449, "pitch": 58, "duration": 9, "velocity": 56}, {"time": 3449, "pitch": 61, "duration": 10, "velocity": 63}, {"time": 3455, "pitch": 53, "duration": 15, "velocity": 58}, {"time": 3461, "pitch": 58, "duration": 4, "velocity": 62}, {"time": 3461, "pitch": 65, "duration": 7, "velocity": 69}, {"time": 3467, "pitch": 63, "duration": 5, "velocity": 66}, {"time": 3473, "pitch": 51, "duration": 14, "velocity": 68}, {"time": 3473, "pitch": 58, "duration": 7, "velocity": 56}, {"time": 3473, "pitch": 63, "duration": 13, "velocity": 66}, {"time": 3479, "pitch": 54, "duration": 8, "velocity": 44}, {"time": 3485, "pitch": 58, "duration": 4, "velocity": 60}, {"time": 3496, "pitch": 56, "duration": 14, "velocity": 50}, {"time": 3497, "pitch": 44, "duration": 18, "velocity": 62}, {"time": 3497, "pitch": 60, "duration": 15, "velocity": 57}, {"time": 3498, "pitch": 63, "duration": 14, "velocity": 56}, {"time": 3499, "pitch": 68, "duration": 11, "velocity": 64}, {"time": 3506, "pitch": 51, "duration": 8, "velocity": 54}, {"time": 3513, "pitch": 56, "duration": 6, "velocity": 68}, {"time": 3524, "pitch": 56, "duration": 11, "velocity": 56}, {"time": 3526, "pitch": 37, "duration": 30, "velocity": 62}, {"time": 3526, "pitch": 61, "duration": 17, "velocity": 57}, {"time": 3527, "pitch": 65, "duration": 23, "velocity": 61}, {"time": 3533, "pitch": 44, "duration": 21, "velocity": 41}, {"time": 3542, "pitch": 56, "duration": 11, "velocity": 65}, {"time": 3551, "pitch": 63, "duration": 41, "velocity": 64}, {"time": 3559, "pitch": 37, "duration": 32, "velocity": 52}, {"time": 3563, "pitch": 44, "duration": 28, "velocity": 54}, {"time": 3566, "pitch": 56, "duration": 27, "velocity": 55}], "annotations": [{"time": 19, "annotation": {"number": 64, "value": 127}, "group": "control_change"}, {"time": 19, "annotation": {"number": 64, "value": 0}, "group": "control_change"}, {"time": 40, "annotation": {"number": 64, "value": 0}, "group": "control_change"}, {"time": 47, "annotation": {"number": 64, "value": 127}, "group": "control_change"}, {"time": 64, "annotation": {"number": 64, "value": 0}, "group": "control_change"}, {"time": 67, "annotation": {"number": 64, "value": 127}, "group": "control_change"}, {"time": 88, "annotation": {"number": 64, "value": 0}, "group": "control_change"}, {"time": 92, "annotation": {"number": 64, "value": 127}, "group": "control_change"}, {"time": 111, "annotation": {"number": 64, "value": 0}, "group": "control_change"}, {"time": 114, "annotation": {"number": 64, "value": 127}, "group": "control_change"}, {"time": 136, "annotation": {"number": 64, "value": 0}, "group": "control_change"}, {"time": 141, "annotation": {"number": 64, "value": 127}, "group": "control_change"}, {"time": 159, "annotation": {"number": 64, "value": 0}, "group": "control_change"}, {"time": 162, "annotation": {"number": 64, "value": 127}, "group": "control_change"}, {"time": 183, "annotation": {"number": 64, "value": 0}, "group": "control_change"}, {"time": 184, "annotation": {"number": 64, "value": 127}, "group": "control_change"}, {"time": 209, "annotation": {"number": 64, "value": 0}, "group": "control_change"}, {"time": 210, "annotation": {"number": 64, "value": 127}, "group": "control_change"}, {"time": 232, "annotation": {"number": 64, "value": 0}, "group": "control_change"}, {"time": 233, "annotation": {"number": 64, "value": 127}, "group": "control_change"}, {"time": 255, "annotation": {"number": 64, "value": 0}, "group": "control_change"}, {"time": 257, "annotation": {"number": 64, "value": 127}, "group": "control_change"}, {"time": 279, "annotation": {"number": 64, "value": 0}, "group": "control_change"}, {"time": 282, "annotation": {"number": 64, "value": 127}, "group": "control_change"}, {"time": 303, "annotation": {"number": 64, "value": 0}, "group": "control_change"}, {"time": 305, "annotation": {"number": 64, "value": 127}, "group": "control_change"}, {"time": 328, "annotation": {"number": 64, "value": 0}, "group": "control_change"}, {"time": 331, "annotation": {"number": 64, "value": 127}, "group": "control_change"}, {"time": 351, "annotation": {"number": 64, "value": 0}, "group": "control_change"}, {"time": 353, "annotation": {"number": 64, "value": 127}, "group": "control_change"}, {"time": 353, "annotation": {"number": 64, "value": 0}, "group": "control_change"}, {"time": 354, "annotation": {"number": 64, "value": 127}, "group": "control_change"}, {"time": 397, "annotation": {"number": 64, "value": 0}, "group": "control_change"}, {"time": 403, "annotation": {"number": 64, "value": 127}, "group": "control_change"}, {"time": 403, "annotation": {"number": 64, "value": 0}, "group": "control_change"}, {"time": 424, "annotation": {"number": 64, "value": 0}, "group": "control_change"}, {"time": 431, "annotation": {"number": 64, "value": 127}, "group": "control_change"}, {"time": 448, "annotation": {"number": 64, "value": 0}, "group": "control_change"}, {"time": 451, "annotation": {"number": 64, "value": 127}, "group": "control_change"}, {"time": 472, "annotation": {"number": 64, "value": 0}, "group": "control_change"}, {"time": 476, "annotation": {"number": 64, "value": 127}, "group": "control_change"}, {"time": 495, "annotation": {"number": 64, "value": 0}, "group": "control_change"}, {"time": 498, "annotation": {"number": 64, "value": 127}, "group": "control_change"}, {"time": 520, "annotation": {"number": 64, "value": 0}, "group": "control_change"}, {"time": 525, "annotation": {"number": 64, "value": 127}, "group": "control_change"}, {"time": 543, "annotation": {"number": 64, "value": 0}, "group": "control_change"}, {"time": 546, "annotation": {"number": 64, "value": 127}, "group": "control_change"}, {"time": 567, "annotation": {"number": 64, "value": 0}, "group": "control_change"}, {"time": 568, "annotation": {"number": 64, "value": 127}, "group": "control_change"}, {"time": 593, "annotation": {"number": 64, "value": 0}, "group": "control_change"}, {"time": 594, "annotation": {"number": 64, "value": 127}, "group": "control_change"}, {"time": 616, "annotation": {"number": 64, "value": 0}, "group": "control_change"}, {"time": 617, "annotation": {"number": 64, "value": 127}, "group": "control_change"}, {"time": 639, "annotation": {"number": 64, "value": 0}, "group": "control_change"}, {"time": 641, "annotation": {"number": 64, "value": 127}, "group": "control_change"}, {"time": 663, "annotation": {"number": 64, "value": 0}, "group": "control_change"}, {"time": 666, "annotation": {"number": 64, "value": 127}, "group": "control_change"}, {"time": 687, "annotation": {"number": 64, "value": 0}, "group": "control_change"}, {"time": 689, "annotation": {"number": 64, "value": 127}, "group": "control_change"}, {"time": 712, "annotation": {"number": 64, "value": 0}, "group": "control_change"}, {"time": 715, "annotation": {"number": 64, "value": 127}, "group": "control_change"}, {"time": 735, "annotation": {"number": 64, "value": 0}, "group": "control_change"}, {"time": 737, "annotation": {"number": 64, "value": 127}, "group": "control_change"}, {"time": 737, "annotation": {"number": 64, "value": 0}, "group": "control_change"}, {"time": 738, "annotation": {"number": 64, "value": 127}, "group": "control_change"}, {"time": 781, "annotation": {"number": 64, "value": 0}, "group": "control_change"}, {"time": 787, "annotation": {"number": 64, "value": 127}, "group": "control_change"}, {"time": 787, "annotation": {"number": 64, "value": 0}, "group": "control_change"}, {"time": 808, "annotation": {"number": 64, "value": 0}, "group": "control_change"}, {"time": 815, "annotation": {"number": 64, "value": 127}, "group": "control_change"}, {"time": 832, "annotation": {"number": 64, "value": 0}, "group": "control_change"}, {"time": 835, "annotation": {"number": 64, "value": 127}, "group": "control_change"}, {"time": 856, "annotation": {"number": 64, "value": 0}, "group": "control_change"}, {"time": 860, "annotation": {"number": 64, "value": 127}, "group": "control_change"}, {"time": 879, "annotation": {"number": 64, "value": 0}, "group": "control_change"}, {"time": 882, "annotation": {"number": 64, "value": 127}, "group": "control_change"}, {"time": 904, "annotation": {"number": 64, "value": 0}, "group": "control_change"}, {"time": 909, "annotation": {"number": 64, "value": 127}, "group": "control_change"}, {"time": 927, "annotation": {"number": 64, "value": 0}, "group": "control_change"}, {"time": 930, "annotation": {"number": 64, "value": 127}, "group": "control_change"}, {"time": 951, "annotation": {"number": 64, "value": 0}, "group": "control_change"}, {"time": 952, "annotation": {"number": 64, "value": 127}, "group": "control_change"}, {"time": 977, "annotation": {"number": 64, "value": 0}, "group": "control_change"}, {"time": 978, "annotation": {"number": 64, "value": 127}, "group": "control_change"}, {"time": 1000, "annotation": {"number": 64, "value": 0}, "group": "control_change"}, {"time": 1001, "annotation": {"number": 64, "value": 127}, "group": "control_change"}, {"time": 1023, "annotation": {"number": 64, "value": 0}, "group": "control_change"}, {"time": 1025, "annotation": {"number": 64, "value": 127}, "group": "control_change"}, {"time": 1047, "annotation": {"number": 64, "value": 0}, "group": "control_change"}, {"time": 1050, "annotation": {"number": 64, "value": 127}, "group": "control_change"}, {"time": 1071, "annotation": {"number": 64, "value": 0}, "group": "control_change"}, {"time": 1073, "annotation": {"number": 64, "value": 127}, "group": "control_change"}, {"time": 1096, "annotation": {"number": 64, "value": 0}, "group": "control_change"}, {"time": 1099, "annotation": {"number": 64, "value": 127}, "group": "control_change"}, {"time": 1119, "annotation": {"number": 64, "value": 0}, "group": "control_change"}, {"time": 1121, "annotation": {"number": 64, "value": 127}, "group": "control_change"}, {"time": 1121, "annotation": {"number": 64, "value": 0}, "group": "control_change"}, {"time": 1122, "annotation": {"number": 64, "value": 127}, "group": "control_change"}, {"time": 1165, "annotation": {"number": 64, "value": 0}, "group": "control_change"}, {"time": 1171, "annotation": {"number": 64, "value": 127}, "group": "control_change"}, {"time": 1217, "annotation": {"number": 64, "value": 0}, "group": "control_change"}, {"time": 1239, "annotation": {"number": 64, "value": 0}, "group": "control_change"}, {"time": 1242, "annotation": {"number": 64, "value": 127}, "group": "control_change"}, {"time": 1264, "annotation": {"number": 64, "value": 0}, "group": "control_change"}, {"time": 1267, "annotation": {"number": 64, "value": 127}, "group": "control_change"}, {"time": 1287, "annotation": {"number": 64, "value": 0}, "group": "control_change"}, {"time": 1289, "annotation": {"number": 64, "value": 127}, "group": "control_change"}, {"time": 1311, "annotation": {"number": 64, "value": 0}, "group": "control_change"}, {"time": 1314, "annotation": {"number": 64, "value": 127}, "group": "control_change"}, {"time": 1336, "annotation": {"number": 64, "value": 0}, "group": "control_change"}, {"time": 1338, "annotation": {"number": 64, "value": 127}, "group": "control_change"}, {"time": 1360, "annotation": {"number": 64, "value": 0}, "group": "control_change"}, {"time": 1361, "annotation": {"number": 64, "value": 127}, "group": "control_change"}, {"time": 1383, "annotation": {"number": 64, "value": 0}, "group": "control_change"}, {"time": 1385, "annotation": {"number": 64, "value": 127}, "group": "control_change"}, {"time": 1407, "annotation": {"number": 64, "value": 0}, "group": "control_change"}, {"time": 1410, "annotation": {"number": 64, "value": 127}, "group": "control_change"}, {"time": 1410, "annotation": {"number": 64, "value": 0}, "group": "control_change"}, {"time": 1411, "annotation": {"number": 64, "value": 127}, "group": "control_change"}, {"time": 1432, "annotation": {"number": 64, "value": 0}, "group": "control_change"}, {"time": 1434, "annotation": {"number": 64, "value": 127}, "group": "control_change"}, {"time": 1455, "annotation": {"number": 64, "value": 0}, "group": "control_change"}, {"time": 1457, "annotation": {"number": 64, "value": 127}, "group": "control_change"}, {"time": 1479, "annotation": {"number": 64, "value": 0}, "group": "control_change"}, {"time": 1481, "annotation": {"number": 64, "value": 127}, "group": "control_change"}, {"time": 1503, "annotation": {"number": 64, "value": 0}, "group": "control_change"}, {"time": 1505, "annotation": {"number": 64, "value": 127}, "group": "control_change"}, {"time": 1527, "annotation": {"number": 64, "value": 0}, "group": "control_change"}, {"time": 1529, "annotation": {"number": 64, "value": 127}, "group": "control_change"}, {"time": 1551, "annotation": {"number": 64, "value": 0}, "group": "control_change"}, {"time": 1552, "annotation": {"number": 64, "value": 127}, "group": "control_change"}, {"time": 1575, "annotation": {"number": 64, "value": 0}, "group": "control_change"}, {"time": 1577, "annotation": {"number": 64, "value": 127}, "group": "control_change"}, {"time": 1596, "annotation": {"number": 64, "value": 0}, "group": "control_change"}, {"time": 1603, "annotation": {"number": 64, "value": 127}, "group": "control_change"}, {"time": 1603, "annotation": {"number": 64, "value": 0}, "group": "control_change"}, {"time": 1624, "annotation": {"number": 64, "value": 0}, "group": "control_change"}, {"time": 1631, "annotation": {"number": 64, "value": 127}, "group": "control_change"}, {"time": 1648, "annotation": {"number": 64, "value": 0}, "group": "control_change"}, {"time": 1651, "annotation": {"number": 64, "value": 127}, "group": "control_change"}, {"time": 1672, "annotation": {"number": 64, "value": 0}, "group": "control_change"}, {"time": 1676, "annotation": {"number": 64, "value": 127}, "group": "control_change"}, {"time": 1695, "annotation": {"number": 64, "value": 0}, "group": "control_change"}, {"time": 1698, "annotation": {"number": 64, "value": 127}, "group": "control_change"}, {"time": 1720, "annotation": {"number": 64, "value": 0}, "group": "control_change"}, {"time": 1725, "annotation": {"number": 64, "value": 127}, "group": "control_change"}, {"time": 1743, "annotation": {"number": 64, "value": 0}, "group": "control_change"}, {"time": 1746, "annotation": {"number": 64, "value": 127}, "group": "control_change"}, {"time": 1789, "annotation": {"number": 64, "value": 0}, "group": "control_change"}, {"time": 1795, "annotation": {"number": 64, "value": 127}, "group": "control_change"}, {"time": 1795, "annotation": {"number": 64, "value": 0}, "group": "control_change"}, {"time": 1816, "annotation": {"number": 64, "value": 0}, "group": "control_change"}, {"time": 1823, "annotation": {"number": 64, "value": 127}, "group": "control_change"}, {"time": 1840, "annotation": {"number": 64, "value": 0}, "group": "control_change"}, {"time": 1843, "annotation": {"number": 64, "value": 127}, "group": "control_change"}, {"time": 1864, "annotation": {"number": 64, "value": 0}, "group": "control_change"}, {"time": 1868, "annotation": {"number": 64, "value": 127}, "group": "control_change"}, {"time": 1887, "annotation": {"number": 64, "value": 0}, "group": "control_change"}, {"time": 1890, "annotation": {"number": 64, "value": 127}, "group": "control_change"}, {"time": 1912, "annotation": {"number": 64, "value": 0}, "group": "control_change"}, {"time": 1917, "annotation": {"number": 64, "value": 127}, "group": "control_change"}, {"time": 1935, "annotation": {"number": 64, "value": 0}, "group": "control_change"}, {"time": 1938, "annotation": {"number": 64, "value": 127}, "group": "control_change"}, {"time": 1959, "annotation": {"number": 64, "value": 0}, "group": "control_change"}, {"time": 1960, "annotation": {"number": 64, "value": 127}, "group": "control_change"}, {"time": 1985, "annotation": {"number": 64, "value": 0}, "group": "control_change"}, {"time": 1986, "annotation": {"number": 64, "value": 127}, "group": "control_change"}, {"time": 2008, "annotation": {"number": 64, "value": 0}, "group": "control_change"}, {"time": 2009, "annotation": {"number": 64, "value": 127}, "group": "control_change"}, {"time": 2031, "annotation": {"number": 64, "value": 0}, "group": "control_change"}, {"time": 2033, "annotation": {"number": 64, "value": 127}, "group": "control_change"}, {"time": 2055, "annotation": {"number": 64, "value": 0}, "group": "control_change"}, {"time": 2058, "annotation": {"number": 64, "value": 127}, "group": "control_change"}, {"time": 2079, "annotation": {"number": 64, "value": 0}, "group": "control_change"}, {"time": 2081, "annotation": {"number": 64, "value": 127}, "group": "control_change"}, {"time": 2104, "annotation": {"number": 64, "value": 0}, "group": "control_change"}, {"time": 2107, "annotation": {"number": 64, "value": 127}, "group": "control_change"}, {"time": 2127, "annotation": {"number": 64, "value": 0}, "group": "control_change"}, {"time": 2129, "annotation": {"number": 64, "value": 127}, "group": "control_change"}, {"time": 2129, "annotation": {"number": 64, "value": 0}, "group": "control_change"}, {"time": 2130, "annotation": {"number": 64, "value": 127}, "group": "control_change"}, {"time": 2173, "annotation": {"number": 64, "value": 0}, "group": "control_change"}, {"time": 2179, "annotation": {"number": 64, "value": 127}, "group": "control_change"}, {"time": 2179, "annotation": {"number": 64, "value": 0}, "group": "control_change"}, {"time": 2200, "annotation": {"number": 64, "value": 0}, "group": "control_change"}, {"time": 2207, "annotation": {"number": 64, "value": 127}, "group": "control_change"}, {"time": 2224, "annotation": {"number": 64, "value": 0}, "group": "control_change"}, {"time": 2227, "annotation": {"number": 64, "value": 127}, "group": "control_change"}, {"time": 2248, "annotation": {"number": 64, "value": 0}, "group": "control_change"}, {"time": 2252, "annotation": {"number": 64, "value": 127}, "group": "control_change"}, {"time": 2271, "annotation": {"number": 64, "value": 0}, "group": "control_change"}, {"time": 2274, "annotation": {"number": 64, "value": 127}, "group": "control_change"}, {"time": 2296, "annotation": {"number": 64, "value": 0}, "group": "control_change"}, {"time": 2301, "annotation": {"number": 64, "value": 127}, "group": "control_change"}, {"time": 2319, "annotation": {"number": 64, "value": 0}, "group": "control_change"}, {"time": 2322, "annotation": {"number": 64, "value": 127}, "group": "control_change"}, {"time": 2343, "annotation": {"number": 64, "value": 0}, "group": "control_change"}, {"time": 2344, "annotation": {"number": 64, "value": 127}, "group": "control_change"}, {"time": 2369, "annotation": {"number": 64, "value": 0}, "group": "control_change"}, {"time": 2370, "annotation": {"number": 64, "value": 127}, "group": "control_change"}, {"time": 2392, "annotation": {"number": 64, "value": 0}, "group": "control_change"}, {"time": 2393, "annotation": {"number": 64, "value": 127}, "group": "control_change"}, {"time": 2415, "annotation": {"number": 64, "value": 0}, "group": "control_change"}, {"time": 2417, "annotation": {"number": 64, "value": 127}, "group": "control_change"}, {"time": 2439, "annotation": {"number": 64, "value": 0}, "group": "control_change"}, {"time": 2442, "annotation": {"number": 64, "value": 127}, "group": "control_change"}, {"time": 2463, "annotation": {"number": 64, "value": 0}, "group": "control_change"}, {"time": 2465, "annotation": {"number": 64, "value": 127}, "group": "control_change"}, {"time": 2488, "annotation": {"number": 64, "value": 0}, "group": "control_change"}, {"time": 2491, "annotation": {"number": 64, "value": 127}, "group": "control_change"}, {"time": 2511, "annotation": {"number": 64, "value": 0}, "group": "control_change"}, {"time": 2513, "annotation": {"number": 64, "value": 127}, "group": "control_change"}, {"time": 2513, "annotation": {"number": 64, "value": 0}, "group": "control_change"}, {"time": 2514, "annotation": {"number": 64, "value": 127}, "group": "control_change"}, {"time": 2557, "annotation": {"number": 64, "value": 0}, "group": "control_change"}, {"time": 2562, "annotation": {"number": 64, "value": 127}, "group": "control_change"}, {"time": 2606, "annotation": {"number": 64, "value": 0}, "group": "control_change"}, {"time": 2631, "annotation": {"number": 64, "value": 0}, "group": "control_change"}, {"time": 2634, "annotation": {"number": 64, "value": 127}, "group": "control_change"}, {"time": 2656, "annotation": {"number": 64, "value": 0}, "group": "control_change"}, {"time": 2659, "annotation": {"number": 64, "value": 127}, "group": "control_change"}, {"time": 2679, "annotation": {"number": 64, "value": 0}, "group": "control_change"}, {"time": 2681, "annotation": {"number": 64, "value": 127}, "group": "control_change"}, {"time": 2703, "annotation": {"number": 64, "value": 0}, "group": "control_change"}, {"time": 2706, "annotation": {"number": 64, "value": 127}, "group": "control_change"}, {"time": 2728, "annotation": {"number": 64, "value": 0}, "group": "control_change"}, {"time": 2730, "annotation": {"number": 64, "value": 127}, "group": "control_change"}, {"time": 2752, "annotation": {"number": 64, "value": 0}, "group": "control_change"}, {"time": 2753, "annotation": {"number": 64, "value": 127}, "group": "control_change"}, {"time": 2775, "annotation": {"number": 64, "value": 0}, "group": "control_change"}, {"time": 2777, "annotation": {"number": 64, "value": 127}, "group": "control_change"}, {"time": 2799, "annotation": {"number": 64, "value": 0}, "group": "control_change"}, {"time": 2802, "annotation": {"number": 64, "value": 127}, "group": "control_change"}, {"time": 2802, "annotation": {"number": 64, "value": 0}, "group": "control_change"}, {"time": 2803, "annotation": {"number": 64, "value": 127}, "group": "control_change"}, {"time": 2824, "annotation": {"number": 64, "value": 0}, "group": "control_change"}, {"time": 2826, "annotation": {"number": 64, "value": 127}, "group": "control_change"}, {"time": 2847, "annotation": {"number": 64, "value": 0}, "group": "control_change"}, {"time": 2849, "annotation": {"number": 64, "value": 127}, "group": "control_change"}, {"time": 2871, "annotation": {"number": 64, "value": 0}, "group": "control_change"}, {"time": 2873, "annotation": {"number": 64, "value": 127}, "group": "control_change"}, {"time": 2895, "annotation": {"number": 64, "value": 0}, "group": "control_change"}, {"time": 2897, "annotation": {"number": 64, "value": 127}, "group": "control_change"}, {"time": 2919, "annotation": {"number": 64, "value": 0}, "group": "control_change"}, {"time": 2921, "annotation": {"number": 64, "value": 127}, "group": "control_change"}, {"time": 2943, "annotation": {"number": 64, "value": 0}, "group": "control_change"}, {"time": 2944, "annotation": {"number": 64, "value": 127}, "group": "control_change"}, {"time": 2967, "annotation": {"number": 64, "value": 0}, "group": "control_change"}, {"time": 2969, "annotation": {"number": 64, "value": 127}, "group": "control_change"}, {"time": 2988, "annotation": {"number": 64, "value": 0}, "group": "control_change"}, {"time": 3015, "annotation": {"number": 64, "value": 0}, "group": "control_change"}, {"time": 3018, "annotation": {"number": 64, "value": 127}, "group": "control_change"}, {"time": 3040, "annotation": {"number": 64, "value": 0}, "group": "control_change"}, {"time": 3043, "annotation": {"number": 64, "value": 127}, "group": "control_change"}, {"time": 3063, "annotation": {"number": 64, "value": 0}, "group": "control_change"}, {"time": 3065, "annotation": {"number": 64, "value": 127}, "group": "control_change"}, {"time": 3087, "annotation": {"number": 64, "value": 0}, "group": "control_change"}, {"time": 3090, "annotation": {"number": 64, "value": 127}, "group": "control_change"}, {"time": 3112, "annotation": {"number": 64, "value": 0}, "group": "control_change"}, {"time": 3114, "annotation": {"number": 64, "value": 127}, "group": "control_change"}, {"time": 3136, "annotation": {"number": 64, "value": 0}, "group": "control_change"}, {"time": 3137, "annotation": {"number": 64, "value": 127}, "group": "control_change"}, {"time": 3159, "annotation": {"number": 64, "value": 0}, "group": "control_change"}, {"time": 3161, "annotation": {"number": 64, "value": 127}, "group": "control_change"}, {"time": 3183, "annotation": {"number": 64, "value": 0}, "group": "control_change"}, {"time": 3186, "annotation": {"number": 64, "value": 127}, "group": "control_change"}, {"time": 3186, "annotation": {"number": 64, "value": 0}, "group": "control_change"}, {"time": 3187, "annotation": {"number": 64, "value": 127}, "group": "control_change"}, {"time": 3208, "annotation": {"number": 64, "value": 0}, "group": "control_change"}, {"time": 3210, "annotation": {"number": 64, "value": 127}, "group": "control_change"}, {"time": 3231, "annotation": {"number": 64, "value": 0}, "group": "control_change"}, {"time": 3233, "annotation": {"number": 64, "value": 127}, "group": "control_change"}, {"time": 3255, "annotation": {"number": 64, "value": 0}, "group": "control_change"}, {"time": 3257, "annotation": {"number": 64, "value": 127}, "group": "control_change"}, {"time": 3279, "annotation": {"number": 64, "value": 0}, "group": "control_change"}, {"time": 3281, "annotation": {"number": 64, "value": 127}, "group": "control_change"}, {"time": 3303, "annotation": {"number": 64, "value": 0}, "group": "control_change"}, {"time": 3305, "annotation": {"number": 64, "value": 127}, "group": "control_change"}, {"time": 3327, "annotation": {"number": 64, "value": 0}, "group": "control_change"}, {"time": 3328, "annotation": {"number": 64, "value": 127}, "group": "control_change"}, {"time": 3351, "annotation": {"number": 64, "value": 0}, "group": "control_change"}, {"time": 3353, "annotation": {"number": 64, "value": 127}, "group": "control_change"}, {"time": 3372, "annotation": {"number": 64, "value": 0}, "group": "control_change"}, {"time": 3379, "annotation": {"number": 64, "value": 127}, "group": "control_change"}, {"time": 3379, "annotation": {"number": 64, "value": 0}, "group": "control_change"}, {"time": 3400, "annotation": {"number": 64, "value": 0}, "group": "control_change"}, {"time": 3407, "annotation": {"number": 64, "value": 127}, "group": "control_change"}, {"time": 3424, "annotation": {"number": 64, "value": 0}, "group": "control_change"}, {"time": 3427, "annotation": {"number": 64, "value": 127}, "group": "control_change"}, {"time": 3448, "annotation": {"number": 64, "value": 0}, "group": "control_change"}, {"time": 3452, "annotation": {"number": 64, "value": 127}, "group": "control_change"}, {"time": 3471, "annotation": {"number": 64, "value": 0}, "group": "control_change"}, {"time": 3474, "annotation": {"number": 64, "value": 127}, "group": "control_change"}, {"time": 3496, "annotation": {"number": 64, "value": 0}, "group": "control_change"}, {"time": 3501, "annotation": {"number": 64, "value": 127}, "group": "control_change"}, {"time": 3525, "annotation": {"number": 64, "value": 0}, "group": "control_change"}, {"time": 3527, "annotation": {"number": 64, "value": 127}, "group": "control_change"}, {"time": 3628, "annotation": {"number": 64, "value": 0}, "group": "control_change"}]}]}