{"metadata": {"schema_version": "0.2", "title": "None", "source_filename": "710.mid", "source_format": "midi"}, "resolution": 12, "tempos": [{"time": 0, "qpm": 90.0002250005625}], "time_signatures": [{"time": 0, "numerator": 1, "denominator": 4}], "tracks": [{"program": 0, "is_drum": false, "name": "MELODY", "notes": [{"time": 395, "pitch": 64, "duration": 5, "velocity": 87}, {"time": 401, "pitch": 67, "duration": 8, "velocity": 84}, {"time": 413, "pitch": 64, "duration": 5, "velocity": 87}, {"time": 419, "pitch": 69, "duration": 5, "velocity": 79}, {"time": 425, "pitch": 67, "duration": 4, "velocity": 85}, {"time": 431, "pitch": 64, "duration": 4, "velocity": 86}, {"time": 437, "pitch": 62, "duration": 12, "velocity": 78}, {"time": 449, "pitch": 60, "duration": 29, "velocity": 85}, {"time": 491, "pitch": 69, "duration": 5, "velocity": 84}, {"time": 497, "pitch": 72, "duration": 10, "velocity": 86}, {"time": 509, "pitch": 69, "duration": 3, "velocity": 85}, {"time": 515, "pitch": 69, "duration": 4, "velocity": 83}, {"time": 521, "pitch": 67, "duration": 4, "velocity": 73}, {"time": 527, "pitch": 67, "duration": 11, "velocity": 86}, {"time": 539, "pitch": 64, "duration": 9, "velocity": 84}, {"time": 548, "pitch": 67, "duration": 34, "velocity": 80}, {"time": 587, "pitch": 69, "duration": 6, "velocity": 84}, {"time": 593, "pitch": 67, "duration": 6, "velocity": 83}, {"time": 599, "pitch": 69, "duration": 5, "velocity": 84}, {"time": 605, "pitch": 72, "duration": 4, "velocity": 83}, {"time": 611, "pitch": 74, "duration": 5, "velocity": 86}, {"time": 617, "pitch": 76, "duration": 4, "velocity": 84}, {"time": 623, "pitch": 71, "duration": 5, "velocity": 83}, {"time": 629, "pitch": 69, "duration": 5, "velocity": 84}, {"time": 635, "pitch": 67, "duration": 14, "velocity": 84}, {"time": 653, "pitch": 64, "duration": 4, "velocity": 84}, {"time": 659, "pitch": 64, "duration": 18, "velocity": 86}, {"time": 689, "pitch": 62, "duration": 4, "velocity": 80}, {"time": 695, "pitch": 64, "duration": 3, "velocity": 87}, {"time": 701, "pitch": 67, "duration": 5, "velocity": 83}, {"time": 707, "pitch": 69, "duration": 14, "velocity": 81}, {"time": 725, "pitch": 64, "duration": 11, "velocity": 84}, {"time": 737, "pitch": 62, "duration": 38, "velocity": 81}, {"time": 779, "pitch": 64, "duration": 5, "velocity": 87}, {"time": 785, "pitch": 67, "duration": 8, "velocity": 84}, {"time": 797, "pitch": 64, "duration": 5, "velocity": 87}, {"time": 803, "pitch": 69, "duration": 5, "velocity": 79}, {"time": 809, "pitch": 67, "duration": 4, "velocity": 85}, {"time": 815, "pitch": 64, "duration": 4, "velocity": 86}, {"time": 821, "pitch": 62, "duration": 12, "velocity": 78}, {"time": 833, "pitch": 60, "duration": 29, "velocity": 85}, {"time": 875, "pitch": 69, "duration": 5, "velocity": 84}, {"time": 881, "pitch": 72, "duration": 10, "velocity": 86}, {"time": 893, "pitch": 69, "duration": 3, "velocity": 85}, {"time": 899, "pitch": 69, "duration": 4, "velocity": 83}, {"time": 905, "pitch": 67, "duration": 4, "velocity": 73}, {"time": 911, "pitch": 67, "duration": 6, "velocity": 86}, {"time": 917, "pitch": 64, "duration": 6, "velocity": 84}, {"time": 923, "pitch": 69, "duration": 9, "velocity": 84}, {"time": 932, "pitch": 67, "duration": 34, "velocity": 80}, {"time": 971, "pitch": 69, "duration": 6, "velocity": 84}, {"time": 977, "pitch": 67, "duration": 6, "velocity": 83}, {"time": 983, "pitch": 69, "duration": 5, "velocity": 84}, {"time": 989, "pitch": 72, "duration": 4, "velocity": 83}, {"time": 995, "pitch": 74, "duration": 5, "velocity": 86}, {"time": 1001, "pitch": 76, "duration": 4, "velocity": 84}, {"time": 1007, "pitch": 71, "duration": 5, "velocity": 83}, {"time": 1013, "pitch": 69, "duration": 5, "velocity": 84}, {"time": 1019, "pitch": 67, "duration": 6, "velocity": 84}, {"time": 1025, "pitch": 64, "duration": 6, "velocity": 78}, {"time": 1031, "pitch": 67, "duration": 6, "velocity": 78}, {"time": 1037, "pitch": 74, "duration": 12, "velocity": 84}, {"time": 1049, "pitch": 64, "duration": 18, "velocity": 86}, {"time": 1073, "pitch": 62, "duration": 4, "velocity": 80}, {"time": 1079, "pitch": 64, "duration": 3, "velocity": 87}, {"time": 1085, "pitch": 67, "duration": 5, "velocity": 83}, {"time": 1091, "pitch": 69, "duration": 6, "velocity": 81}, {"time": 1097, "pitch": 67, "duration": 6, "velocity": 84}, {"time": 1103, "pitch": 64, "duration": 6, "velocity": 78}, {"time": 1109, "pitch": 62, "duration": 12, "velocity": 78}, {"time": 1121, "pitch": 60, "duration": 38, "velocity": 81}, {"time": 1205, "pitch": 67, "duration": 4, "velocity": 86}, {"time": 1211, "pitch": 69, "duration": 7, "velocity": 87}, {"time": 1220, "pitch": 76, "duration": 6, "velocity": 88}, {"time": 1229, "pitch": 67, "duration": 5, "velocity": 85}, {"time": 1235, "pitch": 69, "duration": 7, "velocity": 86}, {"time": 1244, "pitch": 76, "duration": 6, "velocity": 87}, {"time": 1253, "pitch": 72, "duration": 6, "velocity": 83}, {"time": 1259, "pitch": 74, "duration": 24, "velocity": 89}, {"time": 1289, "pitch": 76, "duration": 4, "velocity": 88}, {"time": 1295, "pitch": 74, "duration": 5, "velocity": 93}, {"time": 1301, "pitch": 72, "duration": 4, "velocity": 86}, {"time": 1307, "pitch": 67, "duration": 6, "velocity": 88}, {"time": 1316, "pitch": 74, "duration": 6, "velocity": 93}, {"time": 1325, "pitch": 64, "duration": 4, "velocity": 88}, {"time": 1331, "pitch": 67, "duration": 6, "velocity": 85}, {"time": 1340, "pitch": 74, "duration": 7, "velocity": 88}, {"time": 1349, "pitch": 67, "duration": 5, "velocity": 83}, {"time": 1355, "pitch": 72, "duration": 26, "velocity": 85}, {"time": 1385, "pitch": 72, "duration": 5, "velocity": 88}, {"time": 1391, "pitch": 74, "duration": 5, "velocity": 89}, {"time": 1397, "pitch": 76, "duration": 5, "velocity": 88}, {"time": 1403, "pitch": 79, "duration": 8, "velocity": 86}, {"time": 1415, "pitch": 81, "duration": 5, "velocity": 86}, {"time": 1421, "pitch": 76, "duration": 11, "velocity": 88}, {"time": 1433, "pitch": 74, "duration": 14, "velocity": 91}, {"time": 1457, "pitch": 74, "duration": 5, "velocity": 90}, {"time": 1463, "pitch": 72, "duration": 6, "velocity": 84}, {"time": 1469, "pitch": 74, "duration": 6, "velocity": 91}, {"time": 1475, "pitch": 76, "duration": 8, "velocity": 86}, {"time": 1484, "pitch": 79, "duration": 8, "velocity": 84}, {"time": 1493, "pitch": 76, "duration": 54, "velocity": 88}, {"time": 1553, "pitch": 74, "duration": 4, "velocity": 86}, {"time": 1559, "pitch": 74, "duration": 4, "velocity": 88}, {"time": 1565, "pitch": 76, "duration": 5, "velocity": 86}, {"time": 1571, "pitch": 74, "duration": 5, "velocity": 90}, {"time": 1577, "pitch": 72, "duration": 5, "velocity": 85}, {"time": 1583, "pitch": 69, "duration": 5, "velocity": 85}, {"time": 1589, "pitch": 72, "duration": 5, "velocity": 86}, {"time": 1595, "pitch": 74, "duration": 8, "velocity": 88}, {"time": 1604, "pitch": 76, "duration": 7, "velocity": 85}, {"time": 1613, "pitch": 69, "duration": 5, "velocity": 85}, {"time": 1619, "pitch": 74, "duration": 7, "velocity": 86}, {"time": 1628, "pitch": 76, "duration": 8, "velocity": 85}, {"time": 1637, "pitch": 72, "duration": 5, "velocity": 85}, {"time": 1643, "pitch": 74, "duration": 26, "velocity": 88}, {"time": 1673, "pitch": 76, "duration": 4, "velocity": 86}, {"time": 1679, "pitch": 74, "duration": 4, "velocity": 88}, {"time": 1685, "pitch": 72, "duration": 4, "velocity": 85}, {"time": 1691, "pitch": 67, "duration": 7, "velocity": 88}, {"time": 1700, "pitch": 74, "duration": 6, "velocity": 89}, {"time": 1709, "pitch": 64, "duration": 4, "velocity": 90}, {"time": 1715, "pitch": 67, "duration": 6, "velocity": 86}, {"time": 1724, "pitch": 74, "duration": 6, "velocity": 95}, {"time": 1733, "pitch": 76, "duration": 4, "velocity": 88}, {"time": 1739, "pitch": 76, "duration": 24, "velocity": 90}, {"time": 1769, "pitch": 72, "duration": 5, "velocity": 86}, {"time": 1775, "pitch": 69, "duration": 7, "velocity": 85}, {"time": 1781, "pitch": 72, "duration": 6, "velocity": 84}, {"time": 1787, "pitch": 74, "duration": 12, "velocity": 88}, {"time": 1799, "pitch": 76, "duration": 5, "velocity": 90}, {"time": 1805, "pitch": 74, "duration": 8, "velocity": 91}, {"time": 1817, "pitch": 72, "duration": 5, "velocity": 85}, {"time": 1823, "pitch": 69, "duration": 6, "velocity": 84}, {"time": 1829, "pitch": 72, "duration": 6, "velocity": 85}, {"time": 1835, "pitch": 74, "duration": 10, "velocity": 87}, {"time": 1847, "pitch": 76, "duration": 5, "velocity": 85}, {"time": 1853, "pitch": 79, "duration": 6, "velocity": 85}, {"time": 1859, "pitch": 76, "duration": 12, "velocity": 89}, {"time": 1871, "pitch": 74, "duration": 10, "velocity": 90}, {"time": 1883, "pitch": 72, "duration": 47, "velocity": 84}, {"time": 2267, "pitch": 64, "duration": 5, "velocity": 87}, {"time": 2273, "pitch": 67, "duration": 8, "velocity": 84}, {"time": 2285, "pitch": 64, "duration": 5, "velocity": 87}, {"time": 2291, "pitch": 69, "duration": 5, "velocity": 79}, {"time": 2297, "pitch": 67, "duration": 4, "velocity": 85}, {"time": 2303, "pitch": 64, "duration": 4, "velocity": 86}, {"time": 2309, "pitch": 62, "duration": 12, "velocity": 78}, {"time": 2321, "pitch": 60, "duration": 29, "velocity": 85}, {"time": 2363, "pitch": 69, "duration": 5, "velocity": 84}, {"time": 2369, "pitch": 72, "duration": 10, "velocity": 86}, {"time": 2381, "pitch": 69, "duration": 3, "velocity": 85}, {"time": 2387, "pitch": 69, "duration": 4, "velocity": 83}, {"time": 2393, "pitch": 67, "duration": 4, "velocity": 73}, {"time": 2399, "pitch": 67, "duration": 11, "velocity": 86}, {"time": 2411, "pitch": 64, "duration": 9, "velocity": 84}, {"time": 2420, "pitch": 67, "duration": 34, "velocity": 80}, {"time": 2459, "pitch": 69, "duration": 6, "velocity": 84}, {"time": 2465, "pitch": 67, "duration": 6, "velocity": 83}, {"time": 2471, "pitch": 69, "duration": 5, "velocity": 84}, {"time": 2477, "pitch": 72, "duration": 4, "velocity": 83}, {"time": 2483, "pitch": 74, "duration": 5, "velocity": 86}, {"time": 2489, "pitch": 76, "duration": 4, "velocity": 84}, {"time": 2495, "pitch": 71, "duration": 5, "velocity": 83}, {"time": 2501, "pitch": 69, "duration": 5, "velocity": 84}, {"time": 2507, "pitch": 67, "duration": 14, "velocity": 84}, {"time": 2525, "pitch": 64, "duration": 4, "velocity": 84}, {"time": 2531, "pitch": 64, "duration": 18, "velocity": 86}, {"time": 2561, "pitch": 62, "duration": 4, "velocity": 80}, {"time": 2567, "pitch": 64, "duration": 3, "velocity": 87}, {"time": 2573, "pitch": 67, "duration": 5, "velocity": 83}, {"time": 2579, "pitch": 69, "duration": 14, "velocity": 81}, {"time": 2597, "pitch": 64, "duration": 11, "velocity": 84}, {"time": 2609, "pitch": 62, "duration": 38, "velocity": 81}, {"time": 2651, "pitch": 64, "duration": 5, "velocity": 87}, {"time": 2657, "pitch": 67, "duration": 8, "velocity": 84}, {"time": 2669, "pitch": 64, "duration": 5, "velocity": 87}, {"time": 2675, "pitch": 69, "duration": 5, "velocity": 79}, {"time": 2681, "pitch": 67, "duration": 4, "velocity": 85}, {"time": 2687, "pitch": 64, "duration": 4, "velocity": 86}, {"time": 2693, "pitch": 62, "duration": 12, "velocity": 78}, {"time": 2705, "pitch": 60, "duration": 29, "velocity": 85}, {"time": 2747, "pitch": 69, "duration": 5, "velocity": 84}, {"time": 2753, "pitch": 72, "duration": 10, "velocity": 86}, {"time": 2765, "pitch": 69, "duration": 3, "velocity": 85}, {"time": 2771, "pitch": 69, "duration": 4, "velocity": 83}, {"time": 2777, "pitch": 67, "duration": 4, "velocity": 73}, {"time": 2783, "pitch": 67, "duration": 6, "velocity": 86}, {"time": 2789, "pitch": 64, "duration": 6, "velocity": 84}, {"time": 2795, "pitch": 69, "duration": 9, "velocity": 84}, {"time": 2804, "pitch": 67, "duration": 34, "velocity": 80}, {"time": 2843, "pitch": 69, "duration": 6, "velocity": 84}, {"time": 2849, "pitch": 67, "duration": 6, "velocity": 83}, {"time": 2855, "pitch": 69, "duration": 5, "velocity": 84}, {"time": 2861, "pitch": 72, "duration": 4, "velocity": 83}, {"time": 2867, "pitch": 74, "duration": 5, "velocity": 86}, {"time": 2873, "pitch": 76, "duration": 4, "velocity": 84}, {"time": 2879, "pitch": 71, "duration": 5, "velocity": 83}, {"time": 2885, "pitch": 69, "duration": 5, "velocity": 84}, {"time": 2891, "pitch": 67, "duration": 6, "velocity": 84}, {"time": 2897, "pitch": 64, "duration": 6, "velocity": 78}, {"time": 2903, "pitch": 67, "duration": 6, "velocity": 78}, {"time": 2909, "pitch": 74, "duration": 12, "velocity": 84}, {"time": 2921, "pitch": 64, "duration": 18, "velocity": 86}, {"time": 2945, "pitch": 62, "duration": 4, "velocity": 80}, {"time": 2951, "pitch": 64, "duration": 3, "velocity": 87}, {"time": 2957, "pitch": 67, "duration": 5, "velocity": 83}, {"time": 2963, "pitch": 69, "duration": 6, "velocity": 81}, {"time": 2969, "pitch": 67, "duration": 6, "velocity": 84}, {"time": 2975, "pitch": 64, "duration": 6, "velocity": 78}, {"time": 2981, "pitch": 62, "duration": 12, "velocity": 78}, {"time": 2993, "pitch": 60, "duration": 38, "velocity": 81}, {"time": 3077, "pitch": 67, "duration": 4, "velocity": 86}, {"time": 3083, "pitch": 69, "duration": 7, "velocity": 87}, {"time": 3092, "pitch": 76, "duration": 6, "velocity": 88}, {"time": 3101, "pitch": 67, "duration": 5, "velocity": 85}, {"time": 3107, "pitch": 69, "duration": 7, "velocity": 86}, {"time": 3116, "pitch": 76, "duration": 6, "velocity": 87}, {"time": 3125, "pitch": 72, "duration": 6, "velocity": 83}, {"time": 3131, "pitch": 74, "duration": 24, "velocity": 89}, {"time": 3161, "pitch": 76, "duration": 4, "velocity": 88}, {"time": 3167, "pitch": 74, "duration": 5, "velocity": 93}, {"time": 3173, "pitch": 72, "duration": 4, "velocity": 86}, {"time": 3179, "pitch": 67, "duration": 6, "velocity": 88}, {"time": 3188, "pitch": 74, "duration": 6, "velocity": 93}, {"time": 3197, "pitch": 64, "duration": 4, "velocity": 88}, {"time": 3203, "pitch": 67, "duration": 6, "velocity": 85}, {"time": 3212, "pitch": 74, "duration": 7, "velocity": 88}, {"time": 3221, "pitch": 67, "duration": 5, "velocity": 83}, {"time": 3227, "pitch": 72, "duration": 26, "velocity": 85}, {"time": 3257, "pitch": 72, "duration": 5, "velocity": 88}, {"time": 3263, "pitch": 74, "duration": 5, "velocity": 89}, {"time": 3269, "pitch": 76, "duration": 5, "velocity": 88}, {"time": 3275, "pitch": 79, "duration": 8, "velocity": 86}, {"time": 3287, "pitch": 81, "duration": 5, "velocity": 86}, {"time": 3293, "pitch": 76, "duration": 11, "velocity": 88}, {"time": 3305, "pitch": 74, "duration": 14, "velocity": 91}, {"time": 3329, "pitch": 74, "duration": 5, "velocity": 90}, {"time": 3335, "pitch": 72, "duration": 6, "velocity": 84}, {"time": 3341, "pitch": 74, "duration": 6, "velocity": 91}, {"time": 3347, "pitch": 76, "duration": 8, "velocity": 86}, {"time": 3356, "pitch": 79, "duration": 8, "velocity": 84}, {"time": 3365, "pitch": 76, "duration": 54, "velocity": 88}, {"time": 3425, "pitch": 74, "duration": 4, "velocity": 86}, {"time": 3431, "pitch": 74, "duration": 4, "velocity": 88}, {"time": 3437, "pitch": 76, "duration": 5, "velocity": 86}, {"time": 3443, "pitch": 74, "duration": 5, "velocity": 90}, {"time": 3449, "pitch": 72, "duration": 5, "velocity": 85}, {"time": 3455, "pitch": 69, "duration": 5, "velocity": 85}, {"time": 3461, "pitch": 72, "duration": 5, "velocity": 86}, {"time": 3467, "pitch": 74, "duration": 8, "velocity": 88}, {"time": 3476, "pitch": 76, "duration": 7, "velocity": 85}, {"time": 3485, "pitch": 69, "duration": 5, "velocity": 85}, {"time": 3491, "pitch": 74, "duration": 7, "velocity": 86}, {"time": 3500, "pitch": 76, "duration": 8, "velocity": 85}, {"time": 3509, "pitch": 72, "duration": 5, "velocity": 85}, {"time": 3515, "pitch": 74, "duration": 26, "velocity": 88}, {"time": 3545, "pitch": 76, "duration": 4, "velocity": 86}, {"time": 3551, "pitch": 74, "duration": 4, "velocity": 88}, {"time": 3557, "pitch": 72, "duration": 4, "velocity": 85}, {"time": 3563, "pitch": 67, "duration": 7, "velocity": 88}, {"time": 3572, "pitch": 74, "duration": 6, "velocity": 89}, {"time": 3581, "pitch": 64, "duration": 4, "velocity": 90}, {"time": 3587, "pitch": 67, "duration": 6, "velocity": 86}, {"time": 3596, "pitch": 74, "duration": 6, "velocity": 95}, {"time": 3605, "pitch": 76, "duration": 4, "velocity": 88}, {"time": 3611, "pitch": 76, "duration": 24, "velocity": 90}, {"time": 3641, "pitch": 72, "duration": 5, "velocity": 86}, {"time": 3647, "pitch": 69, "duration": 7, "velocity": 85}, {"time": 3653, "pitch": 72, "duration": 6, "velocity": 84}, {"time": 3659, "pitch": 74, "duration": 12, "velocity": 88}, {"time": 3671, "pitch": 76, "duration": 5, "velocity": 90}, {"time": 3677, "pitch": 74, "duration": 8, "velocity": 91}, {"time": 3689, "pitch": 72, "duration": 5, "velocity": 85}, {"time": 3695, "pitch": 69, "duration": 6, "velocity": 84}, {"time": 3701, "pitch": 72, "duration": 6, "velocity": 85}, {"time": 3707, "pitch": 74, "duration": 10, "velocity": 87}, {"time": 3719, "pitch": 76, "duration": 5, "velocity": 85}, {"time": 3725, "pitch": 79, "duration": 6, "velocity": 85}, {"time": 3731, "pitch": 76, "duration": 12, "velocity": 89}, {"time": 3743, "pitch": 74, "duration": 10, "velocity": 90}, {"time": 3755, "pitch": 72, "duration": 47, "velocity": 84}, {"time": 4097, "pitch": 74, "duration": 4, "velocity": 86}, {"time": 4103, "pitch": 74, "duration": 4, "velocity": 88}, {"time": 4109, "pitch": 76, "duration": 5, "velocity": 86}, {"time": 4115, "pitch": 74, "duration": 5, "velocity": 90}, {"time": 4121, "pitch": 72, "duration": 5, "velocity": 85}, {"time": 4127, "pitch": 69, "duration": 5, "velocity": 85}, {"time": 4133, "pitch": 72, "duration": 5, "velocity": 86}, {"time": 4139, "pitch": 74, "duration": 8, "velocity": 88}, {"time": 4148, "pitch": 76, "duration": 7, "velocity": 85}, {"time": 4157, "pitch": 69, "duration": 5, "velocity": 85}, {"time": 4163, "pitch": 74, "duration": 7, "velocity": 86}, {"time": 4172, "pitch": 76, "duration": 8, "velocity": 85}, {"time": 4181, "pitch": 72, "duration": 5, "velocity": 85}, {"time": 4187, "pitch": 74, "duration": 26, "velocity": 88}, {"time": 4217, "pitch": 76, "duration": 4, "velocity": 86}, {"time": 4223, "pitch": 74, "duration": 4, "velocity": 88}, {"time": 4229, "pitch": 72, "duration": 4, "velocity": 85}, {"time": 4235, "pitch": 67, "duration": 7, "velocity": 88}, {"time": 4244, "pitch": 74, "duration": 6, "velocity": 89}, {"time": 4253, "pitch": 64, "duration": 4, "velocity": 90}, {"time": 4259, "pitch": 67, "duration": 6, "velocity": 86}, {"time": 4268, "pitch": 74, "duration": 6, "velocity": 95}, {"time": 4277, "pitch": 76, "duration": 4, "velocity": 88}, {"time": 4283, "pitch": 76, "duration": 24, "velocity": 90}, {"time": 4313, "pitch": 72, "duration": 5, "velocity": 86}, {"time": 4319, "pitch": 69, "duration": 7, "velocity": 85}, {"time": 4325, "pitch": 72, "duration": 6, "velocity": 84}, {"time": 4331, "pitch": 74, "duration": 12, "velocity": 88}, {"time": 4343, "pitch": 76, "duration": 5, "velocity": 90}, {"time": 4349, "pitch": 74, "duration": 8, "velocity": 91}, {"time": 4361, "pitch": 72, "duration": 5, "velocity": 85}, {"time": 4367, "pitch": 69, "duration": 6, "velocity": 84}, {"time": 4373, "pitch": 72, "duration": 6, "velocity": 85}, {"time": 4379, "pitch": 74, "duration": 10, "velocity": 87}, {"time": 4391, "pitch": 76, "duration": 5, "velocity": 85}, {"time": 4397, "pitch": 79, "duration": 6, "velocity": 85}, {"time": 4403, "pitch": 76, "duration": 12, "velocity": 89}, {"time": 4415, "pitch": 74, "duration": 10, "velocity": 90}, {"time": 4427, "pitch": 72, "duration": 47, "velocity": 84}]}, {"program": 0, "is_drum": false, "name": "PIANO", "notes": [{"time": 11, "pitch": 53, "duration": 39, "velocity": 71}, {"time": 18, "pitch": 55, "duration": 35, "velocity": 71}, {"time": 23, "pitch": 62, "duration": 35, "velocity": 71}, {"time": 29, "pitch": 64, "duration": 40, "velocity": 71}, {"time": 59, "pitch": 41, "duration": 47, "velocity": 84}, {"time": 65, "pitch": 48, "duration": 41, "velocity": 68}, {"time": 71, "pitch": 56, "duration": 8, "velocity": 73}, {"time": 77, "pitch": 60, "duration": 16, "velocity": 79}, {"time": 83, "pitch": 65, "duration": 13, "velocity": 80}, {"time": 89, "pitch": 53, "duration": 7, "velocity": 59}, {"time": 95, "pitch": 56, "duration": 11, "velocity": 69}, {"time": 95, "pitch": 60, "duration": 12, "velocity": 75}, {"time": 107, "pitch": 40, "duration": 33, "velocity": 85}, {"time": 113, "pitch": 47, "duration": 25, "velocity": 73}, {"time": 119, "pitch": 52, "duration": 13, "velocity": 80}, {"time": 125, "pitch": 55, "duration": 13, "velocity": 84}, {"time": 131, "pitch": 64, "duration": 14, "velocity": 85}, {"time": 137, "pitch": 52, "duration": 6, "velocity": 84}, {"time": 143, "pitch": 55, "duration": 2, "velocity": 80}, {"time": 155, "pitch": 45, "duration": 41, "velocity": 80}, {"time": 155, "pitch": 57, "duration": 18, "velocity": 71}, {"time": 155, "pitch": 60, "duration": 20, "velocity": 75}, {"time": 161, "pitch": 52, "duration": 15, "velocity": 73}, {"time": 167, "pitch": 64, "duration": 15, "velocity": 82}, {"time": 173, "pitch": 69, "duration": 13, "velocity": 83}, {"time": 179, "pitch": 52, "duration": 15, "velocity": 74}, {"time": 185, "pitch": 57, "duration": 5, "velocity": 74}, {"time": 191, "pitch": 57, "duration": 2, "velocity": 72}, {"time": 191, "pitch": 60, "duration": 4, "velocity": 83}, {"time": 203, "pitch": 50, "duration": 23, "velocity": 84}, {"time": 203, "pitch": 57, "duration": 6, "velocity": 74}, {"time": 203, "pitch": 62, "duration": 13, "velocity": 81}, {"time": 209, "pitch": 53, "duration": 15, "velocity": 71}, {"time": 215, "pitch": 57, "duration": 3, "velocity": 88}, {"time": 221, "pitch": 57, "duration": 13, "velocity": 85}, {"time": 221, "pitch": 65, "duration": 20, "velocity": 85}, {"time": 233, "pitch": 53, "duration": 4, "velocity": 70}, {"time": 239, "pitch": 57, "duration": 3, "velocity": 81}, {"time": 251, "pitch": 43, "duration": 40, "velocity": 84}, {"time": 251, "pitch": 55, "duration": 9, "velocity": 79}, {"time": 251, "pitch": 62, "duration": 8, "velocity": 80}, {"time": 257, "pitch": 50, "duration": 33, "velocity": 79}, {"time": 263, "pitch": 62, "duration": 7, "velocity": 83}, {"time": 269, "pitch": 67, "duration": 19, "velocity": 84}, {"time": 281, "pitch": 55, "duration": 6, "velocity": 75}, {"time": 287, "pitch": 62, "duration": 3, "velocity": 85}, {"time": 299, "pitch": 48, "duration": 45, "velocity": 86}, {"time": 299, "pitch": 55, "duration": 6, "velocity": 76}, {"time": 299, "pitch": 60, "duration": 10, "velocity": 80}, {"time": 305, "pitch": 52, "duration": 38, "velocity": 72}, {"time": 311, "pitch": 55, "duration": 4, "velocity": 73}, {"time": 317, "pitch": 62, "duration": 13, "velocity": 86}, {"time": 329, "pitch": 60, "duration": 8, "velocity": 76}, {"time": 335, "pitch": 55, "duration": 20, "velocity": 72}, {"time": 347, "pitch": 43, "duration": 44, "velocity": 85}, {"time": 353, "pitch": 50, "duration": 38, "velocity": 80}, {"time": 359, "pitch": 55, "duration": 33, "velocity": 82}, {"time": 365, "pitch": 62, "duration": 25, "velocity": 76}, {"time": 365, "pitch": 67, "duration": 27, "velocity": 81}, {"time": 395, "pitch": 48, "duration": 38, "velocity": 86}, {"time": 401, "pitch": 55, "duration": 6, "velocity": 85}, {"time": 407, "pitch": 62, "duration": 10, "velocity": 78}, {"time": 413, "pitch": 55, "duration": 8, "velocity": 74}, {"time": 419, "pitch": 64, "duration": 12, "velocity": 85}, {"time": 431, "pitch": 60, "duration": 4, "velocity": 77}, {"time": 443, "pitch": 45, "duration": 41, "velocity": 82}, {"time": 443, "pitch": 57, "duration": 8, "velocity": 73}, {"time": 443, "pitch": 60, "duration": 10, "velocity": 78}, {"time": 449, "pitch": 52, "duration": 7, "velocity": 79}, {"time": 455, "pitch": 57, "duration": 12, "velocity": 78}, {"time": 461, "pitch": 52, "duration": 9, "velocity": 76}, {"time": 467, "pitch": 64, "duration": 6, "velocity": 84}, {"time": 473, "pitch": 62, "duration": 7, "velocity": 84}, {"time": 479, "pitch": 52, "duration": 7, "velocity": 32}, {"time": 479, "pitch": 60, "duration": 5, "velocity": 85}, {"time": 491, "pitch": 41, "duration": 33, "velocity": 84}, {"time": 491, "pitch": 53, "duration": 19, "velocity": 75}, {"time": 497, "pitch": 48, "duration": 21, "velocity": 75}, {"time": 503, "pitch": 57, "duration": 8, "velocity": 73}, {"time": 509, "pitch": 60, "duration": 23, "velocity": 80}, {"time": 515, "pitch": 65, "duration": 17, "velocity": 85}, {"time": 527, "pitch": 48, "duration": 4, "velocity": 80}, {"time": 533, "pitch": 53, "duration": 2, "velocity": 85}, {"time": 539, "pitch": 43, "duration": 42, "velocity": 81}, {"time": 539, "pitch": 62, "duration": 14, "velocity": 79}, {"time": 545, "pitch": 50, "duration": 34, "velocity": 75}, {"time": 551, "pitch": 55, "duration": 13, "velocity": 86}, {"time": 557, "pitch": 62, "duration": 7, "velocity": 77}, {"time": 563, "pitch": 67, "duration": 10, "velocity": 83}, {"time": 569, "pitch": 55, "duration": 3, "velocity": 74}, {"time": 575, "pitch": 55, "duration": 4, "velocity": 85}, {"time": 575, "pitch": 62, "duration": 3, "velocity": 82}, {"time": 587, "pitch": 41, "duration": 40, "velocity": 84}, {"time": 587, "pitch": 53, "duration": 17, "velocity": 73}, {"time": 587, "pitch": 57, "duration": 16, "velocity": 76}, {"time": 593, "pitch": 48, "duration": 33, "velocity": 78}, {"time": 599, "pitch": 60, "duration": 7, "velocity": 81}, {"time": 605, "pitch": 65, "duration": 21, "velocity": 85}, {"time": 611, "pitch": 53, "duration": 9, "velocity": 80}, {"time": 617, "pitch": 60, "duration": 7, "velocity": 73}, {"time": 623, "pitch": 57, "duration": 2, "velocity": 69}, {"time": 635, "pitch": 40, "duration": 15, "velocity": 82}, {"time": 635, "pitch": 52, "duration": 9, "velocity": 79}, {"time": 635, "pitch": 59, "duration": 9, "velocity": 79}, {"time": 641, "pitch": 47, "duration": 9, "velocity": 73}, {"time": 647, "pitch": 52, "duration": 6, "velocity": 82}, {"time": 653, "pitch": 55, "duration": 3, "velocity": 70}, {"time": 659, "pitch": 45, "duration": 19, "velocity": 83}, {"time": 659, "pitch": 57, "duration": 8, "velocity": 77}, {"time": 659, "pitch": 60, "duration": 13, "velocity": 72}, {"time": 665, "pitch": 52, "duration": 12, "velocity": 75}, {"time": 671, "pitch": 57, "duration": 5, "velocity": 81}, {"time": 683, "pitch": 50, "duration": 32, "velocity": 83}, {"time": 683, "pitch": 62, "duration": 12, "velocity": 79}, {"time": 689, "pitch": 53, "duration": 26, "velocity": 78}, {"time": 695, "pitch": 57, "duration": 7, "velocity": 86}, {"time": 701, "pitch": 65, "duration": 20, "velocity": 85}, {"time": 707, "pitch": 57, "duration": 13, "velocity": 81}, {"time": 719, "pitch": 62, "duration": 5, "velocity": 81}, {"time": 725, "pitch": 57, "duration": 1, "velocity": 75}, {"time": 731, "pitch": 43, "duration": 44, "velocity": 84}, {"time": 731, "pitch": 55, "duration": 12, "velocity": 74}, {"time": 731, "pitch": 62, "duration": 8, "velocity": 76}, {"time": 737, "pitch": 50, "duration": 37, "velocity": 84}, {"time": 743, "pitch": 62, "duration": 12, "velocity": 86}, {"time": 749, "pitch": 55, "duration": 5, "velocity": 85}, {"time": 755, "pitch": 67, "duration": 2, "velocity": 84}, {"time": 761, "pitch": 69, "duration": 2, "velocity": 87}, {"time": 767, "pitch": 62, "duration": 5, "velocity": 84}, {"time": 773, "pitch": 64, "duration": 1, "velocity": 75}, {"time": 779, "pitch": 48, "duration": 42, "velocity": 84}, {"time": 779, "pitch": 55, "duration": 7, "velocity": 81}, {"time": 779, "pitch": 60, "duration": 14, "velocity": 80}, {"time": 785, "pitch": 52, "duration": 36, "velocity": 77}, {"time": 791, "pitch": 55, "duration": 8, "velocity": 81}, {"time": 797, "pitch": 62, "duration": 2, "velocity": 84}, {"time": 803, "pitch": 55, "duration": 1, "velocity": 68}, {"time": 803, "pitch": 64, "duration": 14, "velocity": 86}, {"time": 809, "pitch": 55, "duration": 8, "velocity": 72}, {"time": 815, "pitch": 60, "duration": 2, "velocity": 72}, {"time": 821, "pitch": 59, "duration": 6, "velocity": 75}, {"time": 827, "pitch": 45, "duration": 40, "velocity": 85}, {"time": 827, "pitch": 57, "duration": 8, "velocity": 77}, {"time": 827, "pitch": 60, "duration": 9, "velocity": 77}, {"time": 833, "pitch": 52, "duration": 32, "velocity": 79}, {"time": 839, "pitch": 57, "duration": 8, "velocity": 85}, {"time": 845, "pitch": 64, "duration": 3, "velocity": 84}, {"time": 851, "pitch": 57, "duration": 5, "velocity": 80}, {"time": 851, "pitch": 64, "duration": 8, "velocity": 85}, {"time": 851, "pitch": 69, "duration": 8, "velocity": 84}, {"time": 863, "pitch": 57, "duration": 3, "velocity": 74}, {"time": 875, "pitch": 41, "duration": 39, "velocity": 81}, {"time": 875, "pitch": 60, "duration": 7, "velocity": 79}, {"time": 875, "pitch": 65, "duration": 11, "velocity": 79}, {"time": 881, "pitch": 48, "duration": 33, "velocity": 80}, {"time": 887, "pitch": 60, "duration": 8, "velocity": 90}, {"time": 893, "pitch": 69, "duration": 4, "velocity": 81}, {"time": 899, "pitch": 72, "duration": 17, "velocity": 82}, {"time": 905, "pitch": 60, "duration": 18, "velocity": 75}, {"time": 911, "pitch": 69, "duration": 27, "velocity": 66}, {"time": 917, "pitch": 41, "duration": 4, "velocity": 85}, {"time": 923, "pitch": 43, "duration": 40, "velocity": 87}, {"time": 929, "pitch": 50, "duration": 34, "velocity": 85}, {"time": 935, "pitch": 55, "duration": 13, "velocity": 77}, {"time": 941, "pitch": 62, "duration": 9, "velocity": 80}, {"time": 947, "pitch": 67, "duration": 22, "velocity": 83}, {"time": 953, "pitch": 55, "duration": 7, "velocity": 87}, {"time": 959, "pitch": 62, "duration": 9, "velocity": 82}, {"time": 965, "pitch": 55, "duration": 3, "velocity": 72}, {"time": 971, "pitch": 40, "duration": 38, "velocity": 88}, {"time": 977, "pitch": 47, "duration": 27, "velocity": 81}, {"time": 983, "pitch": 59, "duration": 7, "velocity": 85}, {"time": 989, "pitch": 64, "duration": 3, "velocity": 84}, {"time": 995, "pitch": 59, "duration": 5, "velocity": 85}, {"time": 995, "pitch": 64, "duration": 13, "velocity": 89}, {"time": 995, "pitch": 67, "duration": 20, "velocity": 83}, {"time": 1007, "pitch": 47, "duration": 3, "velocity": 74}, {"time": 1013, "pitch": 59, "duration": 8, "velocity": 85}, {"time": 1013, "pitch": 64, "duration": 1, "velocity": 53}, {"time": 1019, "pitch": 45, "duration": 38, "velocity": 84}, {"time": 1025, "pitch": 52, "duration": 21, "velocity": 73}, {"time": 1031, "pitch": 57, "duration": 7, "velocity": 78}, {"time": 1037, "pitch": 59, "duration": 4, "velocity": 82}, {"time": 1043, "pitch": 57, "duration": 7, "velocity": 79}, {"time": 1043, "pitch": 60, "duration": 7, "velocity": 85}, {"time": 1049, "pitch": 52, "duration": 8, "velocity": 80}, {"time": 1055, "pitch": 57, "duration": 3, "velocity": 78}, {"time": 1055, "pitch": 60, "duration": 3, "velocity": 83}, {"time": 1055, "pitch": 64, "duration": 3, "velocity": 85}, {"time": 1061, "pitch": 45, "duration": 5, "velocity": 82}, {"time": 1067, "pitch": 50, "duration": 14, "velocity": 84}, {"time": 1067, "pitch": 57, "duration": 3, "velocity": 81}, {"time": 1067, "pitch": 65, "duration": 14, "velocity": 80}, {"time": 1073, "pitch": 57, "duration": 6, "velocity": 79}, {"time": 1079, "pitch": 62, "duration": 6, "velocity": 77}, {"time": 1091, "pitch": 43, "duration": 20, "velocity": 84}, {"time": 1091, "pitch": 55, "duration": 7, "velocity": 78}, {"time": 1091, "pitch": 62, "duration": 13, "velocity": 80}, {"time": 1097, "pitch": 50, "duration": 13, "velocity": 84}, {"time": 1103, "pitch": 55, "duration": 12, "velocity": 88}, {"time": 1115, "pitch": 48, "duration": 44, "velocity": 86}, {"time": 1115, "pitch": 60, "duration": 8, "velocity": 83}, {"time": 1121, "pitch": 55, "duration": 6, "velocity": 85}, {"time": 1127, "pitch": 62, "duration": 6, "velocity": 85}, {"time": 1133, "pitch": 55, "duration": 3, "velocity": 85}, {"time": 1139, "pitch": 55, "duration": 2, "velocity": 87}, {"time": 1139, "pitch": 64, "duration": 9, "velocity": 88}, {"time": 1145, "pitch": 55, "duration": 4, "velocity": 77}, {"time": 1151, "pitch": 62, "duration": 5, "velocity": 85}, {"time": 1157, "pitch": 55, "duration": 4, "velocity": 85}, {"time": 1163, "pitch": 36, "duration": 21, "velocity": 82}, {"time": 1163, "pitch": 55, "duration": 10, "velocity": 78}, {"time": 1163, "pitch": 58, "duration": 11, "velocity": 73}, {"time": 1163, "pitch": 60, "duration": 15, "velocity": 75}, {"time": 1181, "pitch": 55, "duration": 4, "velocity": 78}, {"time": 1187, "pitch": 36, "duration": 8, "velocity": 84}, {"time": 1187, "pitch": 55, "duration": 3, "velocity": 86}, {"time": 1187, "pitch": 60, "duration": 7, "velocity": 90}, {"time": 1187, "pitch": 64, "duration": 7, "velocity": 88}, {"time": 1193, "pitch": 55, "duration": 4, "velocity": 80}, {"time": 1199, "pitch": 60, "duration": 12, "velocity": 84}, {"time": 1205, "pitch": 55, "duration": 5, "velocity": 80}, {"time": 1211, "pitch": 41, "duration": 36, "velocity": 85}, {"time": 1211, "pitch": 57, "duration": 12, "velocity": 79}, {"time": 1211, "pitch": 65, "duration": 13, "velocity": 85}, {"time": 1217, "pitch": 48, "duration": 21, "velocity": 79}, {"time": 1223, "pitch": 60, "duration": 6, "velocity": 88}, {"time": 1229, "pitch": 57, "duration": 2, "velocity": 78}, {"time": 1235, "pitch": 57, "duration": 6, "velocity": 85}, {"time": 1235, "pitch": 60, "duration": 7, "velocity": 91}, {"time": 1235, "pitch": 65, "duration": 5, "velocity": 84}, {"time": 1241, "pitch": 48, "duration": 6, "velocity": 77}, {"time": 1247, "pitch": 57, "duration": 3, "velocity": 76}, {"time": 1259, "pitch": 41, "duration": 41, "velocity": 85}, {"time": 1259, "pitch": 53, "duration": 9, "velocity": 77}, {"time": 1259, "pitch": 60, "duration": 7, "velocity": 83}, {"time": 1265, "pitch": 48, "duration": 22, "velocity": 77}, {"time": 1271, "pitch": 56, "duration": 3, "velocity": 70}, {"time": 1271, "pitch": 60, "duration": 3, "velocity": 74}, {"time": 1277, "pitch": 53, "duration": 3, "velocity": 79}, {"time": 1283, "pitch": 53, "duration": 3, "velocity": 81}, {"time": 1283, "pitch": 56, "duration": 3, "velocity": 84}, {"time": 1283, "pitch": 65, "duration": 6, "velocity": 85}, {"time": 1289, "pitch": 48, "duration": 10, "velocity": 81}, {"time": 1295, "pitch": 53, "duration": 2, "velocity": 84}, {"time": 1295, "pitch": 60, "duration": 3, "velocity": 81}, {"time": 1307, "pitch": 40, "duration": 36, "velocity": 86}, {"time": 1307, "pitch": 52, "duration": 4, "velocity": 85}, {"time": 1307, "pitch": 55, "duration": 4, "velocity": 81}, {"time": 1313, "pitch": 47, "duration": 21, "velocity": 75}, {"time": 1319, "pitch": 55, "duration": 2, "velocity": 63}, {"time": 1319, "pitch": 59, "duration": 4, "velocity": 72}, {"time": 1325, "pitch": 55, "duration": 2, "velocity": 71}, {"time": 1331, "pitch": 55, "duration": 3, "velocity": 85}, {"time": 1331, "pitch": 64, "duration": 5, "velocity": 86}, {"time": 1337, "pitch": 47, "duration": 7, "velocity": 69}, {"time": 1343, "pitch": 55, "duration": 2, "velocity": 80}, {"time": 1343, "pitch": 59, "duration": 2, "velocity": 81}, {"time": 1355, "pitch": 45, "duration": 36, "velocity": 84}, {"time": 1355, "pitch": 57, "duration": 9, "velocity": 79}, {"time": 1355, "pitch": 60, "duration": 9, "velocity": 84}, {"time": 1361, "pitch": 52, "duration": 19, "velocity": 73}, {"time": 1367, "pitch": 64, "duration": 3, "velocity": 79}, {"time": 1373, "pitch": 57, "duration": 2, "velocity": 77}, {"time": 1379, "pitch": 57, "duration": 4, "velocity": 85}, {"time": 1379, "pitch": 60, "duration": 4, "velocity": 93}, {"time": 1379, "pitch": 64, "duration": 4, "velocity": 90}, {"time": 1379, "pitch": 69, "duration": 4, "velocity": 84}, {"time": 1385, "pitch": 52, "duration": 7, "velocity": 80}, {"time": 1391, "pitch": 60, "duration": 3, "velocity": 84}, {"time": 1391, "pitch": 64, "duration": 7, "velocity": 84}, {"time": 1397, "pitch": 57, "duration": 3, "velocity": 73}, {"time": 1403, "pitch": 38, "duration": 26, "velocity": 86}, {"time": 1403, "pitch": 57, "duration": 6, "velocity": 80}, {"time": 1403, "pitch": 62, "duration": 12, "velocity": 79}, {"time": 1409, "pitch": 45, "duration": 19, "velocity": 61}, {"time": 1415, "pitch": 57, "duration": 7, "velocity": 84}, {"time": 1421, "pitch": 62, "duration": 2, "velocity": 76}, {"time": 1427, "pitch": 57, "duration": 5, "velocity": 88}, {"time": 1427, "pitch": 65, "duration": 9, "velocity": 90}, {"time": 1433, "pitch": 57, "duration": 2, "velocity": 73}, {"time": 1439, "pitch": 38, "duration": 3, "velocity": 86}, {"time": 1439, "pitch": 57, "duration": 2, "velocity": 83}, {"time": 1439, "pitch": 62, "duration": 7, "velocity": 85}, {"time": 1445, "pitch": 57, "duration": 4, "velocity": 76}, {"time": 1451, "pitch": 43, "duration": 27, "velocity": 86}, {"time": 1457, "pitch": 55, "duration": 4, "velocity": 86}, {"time": 1463, "pitch": 55, "duration": 1, "velocity": 72}, {"time": 1463, "pitch": 62, "duration": 9, "velocity": 84}, {"time": 1469, "pitch": 55, "duration": 3, "velocity": 72}, {"time": 1475, "pitch": 55, "duration": 7, "velocity": 85}, {"time": 1475, "pitch": 62, "duration": 13, "velocity": 86}, {"time": 1475, "pitch": 67, "duration": 11, "velocity": 81}, {"time": 1481, "pitch": 50, "duration": 5, "velocity": 75}, {"time": 1487, "pitch": 55, "duration": 2, "velocity": 89}, {"time": 1499, "pitch": 36, "duration": 1, "velocity": 84}, {"time": 1499, "pitch": 55, "duration": 4, "velocity": 85}, {"time": 1499, "pitch": 64, "duration": 9, "velocity": 85}, {"time": 1505, "pitch": 48, "duration": 28, "velocity": 72}, {"time": 1511, "pitch": 55, "duration": 14, "velocity": 88}, {"time": 1517, "pitch": 60, "duration": 3, "velocity": 87}, {"time": 1523, "pitch": 62, "duration": 12, "velocity": 90}, {"time": 1529, "pitch": 55, "duration": 5, "velocity": 85}, {"time": 1535, "pitch": 60, "duration": 2, "velocity": 90}, {"time": 1547, "pitch": 43, "duration": 22, "velocity": 85}, {"time": 1547, "pitch": 55, "duration": 12, "velocity": 87}, {"time": 1547, "pitch": 58, "duration": 11, "velocity": 89}, {"time": 1553, "pitch": 50, "duration": 15, "velocity": 86}, {"time": 1559, "pitch": 55, "duration": 3, "velocity": 91}, {"time": 1565, "pitch": 55, "duration": 1, "velocity": 68}, {"time": 1565, "pitch": 58, "duration": 4, "velocity": 91}, {"time": 1571, "pitch": 48, "duration": 12, "velocity": 84}, {"time": 1571, "pitch": 55, "duration": 4, "velocity": 81}, {"time": 1571, "pitch": 64, "duration": 9, "velocity": 90}, {"time": 1577, "pitch": 52, "duration": 10, "velocity": 89}, {"time": 1577, "pitch": 55, "duration": 2, "velocity": 67}, {"time": 1583, "pitch": 55, "duration": 2, "velocity": 90}, {"time": 1583, "pitch": 60, "duration": 6, "velocity": 90}, {"time": 1589, "pitch": 55, "duration": 3, "velocity": 84}, {"time": 1595, "pitch": 41, "duration": 41, "velocity": 85}, {"time": 1595, "pitch": 53, "duration": 12, "velocity": 84}, {"time": 1595, "pitch": 57, "duration": 9, "velocity": 78}, {"time": 1601, "pitch": 48, "duration": 34, "velocity": 75}, {"time": 1607, "pitch": 60, "duration": 2, "velocity": 77}, {"time": 1613, "pitch": 53, "duration": 3, "velocity": 77}, {"time": 1619, "pitch": 53, "duration": 3, "velocity": 84}, {"time": 1619, "pitch": 57, "duration": 6, "velocity": 86}, {"time": 1619, "pitch": 60, "duration": 7, "velocity": 85}, {"time": 1619, "pitch": 65, "duration": 6, "velocity": 83}, {"time": 1625, "pitch": 53, "duration": 3, "velocity": 71}, {"time": 1631, "pitch": 57, "duration": 1, "velocity": 72}, {"time": 1631, "pitch": 60, "duration": 2, "velocity": 77}, {"time": 1643, "pitch": 41, "duration": 21, "velocity": 85}, {"time": 1643, "pitch": 53, "duration": 12, "velocity": 78}, {"time": 1643, "pitch": 60, "duration": 12, "velocity": 81}, {"time": 1649, "pitch": 48, "duration": 15, "velocity": 80}, {"time": 1655, "pitch": 56, "duration": 2, "velocity": 79}, {"time": 1661, "pitch": 60, "duration": 3, "velocity": 74}, {"time": 1661, "pitch": 65, "duration": 3, "velocity": 77}, {"time": 1667, "pitch": 41, "duration": 17, "velocity": 85}, {"time": 1667, "pitch": 60, "duration": 3, "velocity": 85}, {"time": 1667, "pitch": 65, "duration": 5, "velocity": 84}, {"time": 1667, "pitch": 68, "duration": 10, "velocity": 86}, {"time": 1673, "pitch": 48, "duration": 10, "velocity": 74}, {"time": 1673, "pitch": 60, "duration": 3, "velocity": 74}, {"time": 1679, "pitch": 60, "duration": 3, "velocity": 84}, {"time": 1679, "pitch": 65, "duration": 6, "velocity": 84}, {"time": 1691, "pitch": 40, "duration": 36, "velocity": 84}, {"time": 1691, "pitch": 67, "duration": 12, "velocity": 76}, {"time": 1697, "pitch": 47, "duration": 19, "velocity": 85}, {"time": 1703, "pitch": 64, "duration": 7, "velocity": 85}, {"time": 1709, "pitch": 67, "duration": 2, "velocity": 85}, {"time": 1715, "pitch": 64, "duration": 7, "velocity": 85}, {"time": 1715, "pitch": 71, "duration": 9, "velocity": 86}, {"time": 1721, "pitch": 47, "duration": 7, "velocity": 83}, {"time": 1727, "pitch": 64, "duration": 2, "velocity": 82}, {"time": 1727, "pitch": 67, "duration": 5, "velocity": 79}, {"time": 1739, "pitch": 45, "duration": 19, "velocity": 85}, {"time": 1739, "pitch": 64, "duration": 6, "velocity": 78}, {"time": 1739, "pitch": 69, "duration": 7, "velocity": 80}, {"time": 1745, "pitch": 52, "duration": 13, "velocity": 81}, {"time": 1751, "pitch": 64, "duration": 3, "velocity": 84}, {"time": 1751, "pitch": 72, "duration": 7, "velocity": 83}, {"time": 1757, "pitch": 71, "duration": 5, "velocity": 79}, {"time": 1763, "pitch": 45, "duration": 14, "velocity": 85}, {"time": 1763, "pitch": 64, "duration": 3, "velocity": 79}, {"time": 1763, "pitch": 67, "duration": 12, "velocity": 76}, {"time": 1769, "pitch": 52, "duration": 7, "velocity": 83}, {"time": 1775, "pitch": 64, "duration": 8, "velocity": 91}, {"time": 1781, "pitch": 67, "duration": 3, "velocity": 73}, {"time": 1787, "pitch": 38, "duration": 31, "velocity": 85}, {"time": 1787, "pitch": 62, "duration": 6, "velocity": 80}, {"time": 1787, "pitch": 65, "duration": 11, "velocity": 80}, {"time": 1793, "pitch": 45, "duration": 14, "velocity": 74}, {"time": 1799, "pitch": 62, "duration": 2, "velocity": 81}, {"time": 1805, "pitch": 62, "duration": 8, "velocity": 87}, {"time": 1805, "pitch": 69, "duration": 14, "velocity": 86}, {"time": 1811, "pitch": 45, "duration": 12, "velocity": 80}, {"time": 1817, "pitch": 62, "duration": 3, "velocity": 84}, {"time": 1823, "pitch": 62, "duration": 2, "velocity": 84}, {"time": 1823, "pitch": 65, "duration": 6, "velocity": 86}, {"time": 1829, "pitch": 62, "duration": 1, "velocity": 73}, {"time": 1835, "pitch": 43, "duration": 40, "velocity": 84}, {"time": 1835, "pitch": 55, "duration": 7, "velocity": 81}, {"time": 1835, "pitch": 62, "duration": 10, "velocity": 76}, {"time": 1841, "pitch": 50, "duration": 20, "velocity": 77}, {"time": 1847, "pitch": 55, "duration": 8, "velocity": 84}, {"time": 1853, "pitch": 62, "duration": 3, "velocity": 78}, {"time": 1859, "pitch": 55, "duration": 8, "velocity": 85}, {"time": 1859, "pitch": 62, "duration": 14, "velocity": 85}, {"time": 1859, "pitch": 67, "duration": 13, "velocity": 81}, {"time": 1865, "pitch": 50, "duration": 10, "velocity": 76}, {"time": 1871, "pitch": 55, "duration": 7, "velocity": 84}, {"time": 1883, "pitch": 36, "duration": 36, "velocity": 79}, {"time": 1883, "pitch": 55, "duration": 8, "velocity": 77}, {"time": 1883, "pitch": 64, "duration": 13, "velocity": 84}, {"time": 1889, "pitch": 43, "duration": 28, "velocity": 60}, {"time": 1895, "pitch": 55, "duration": 8, "velocity": 80}, {"time": 1901, "pitch": 64, "duration": 11, "velocity": 85}, {"time": 1913, "pitch": 60, "duration": 7, "velocity": 82}, {"time": 1919, "pitch": 55, "duration": 2, "velocity": 84}, {"time": 1931, "pitch": 42, "duration": 33, "velocity": 76}, {"time": 1931, "pitch": 54, "duration": 20, "velocity": 72}, {"time": 1931, "pitch": 60, "duration": 12, "velocity": 76}, {"time": 1937, "pitch": 48, "duration": 26, "velocity": 57}, {"time": 1943, "pitch": 57, "duration": 12, "velocity": 69}, {"time": 1949, "pitch": 64, "duration": 21, "velocity": 85}, {"time": 1961, "pitch": 54, "duration": 7, "velocity": 76}, {"time": 1967, "pitch": 57, "duration": 2, "velocity": 77}, {"time": 1979, "pitch": 41, "duration": 38, "velocity": 81}, {"time": 1979, "pitch": 57, "duration": 13, "velocity": 69}, {"time": 1979, "pitch": 60, "duration": 19, "velocity": 77}, {"time": 1985, "pitch": 48, "duration": 26, "velocity": 67}, {"time": 1991, "pitch": 65, "duration": 13, "velocity": 72}, {"time": 1997, "pitch": 57, "duration": 10, "velocity": 79}, {"time": 2003, "pitch": 60, "duration": 3, "velocity": 85}, {"time": 2009, "pitch": 57, "duration": 6, "velocity": 82}, {"time": 2009, "pitch": 60, "duration": 6, "velocity": 86}, {"time": 2015, "pitch": 48, "duration": 3, "velocity": 76}, {"time": 2027, "pitch": 44, "duration": 39, "velocity": 85}, {"time": 2027, "pitch": 56, "duration": 6, "velocity": 73}, {"time": 2027, "pitch": 59, "duration": 9, "velocity": 81}, {"time": 2027, "pitch": 64, "duration": 1, "velocity": 82}, {"time": 2033, "pitch": 56, "duration": 1, "velocity": 75}, {"time": 2039, "pitch": 59, "duration": 3, "velocity": 77}, {"time": 2045, "pitch": 56, "duration": 9, "velocity": 74}, {"time": 2045, "pitch": 59, "duration": 13, "velocity": 84}, {"time": 2045, "pitch": 62, "duration": 3, "velocity": 83}, {"time": 2045, "pitch": 64, "duration": 9, "velocity": 84}, {"time": 2057, "pitch": 56, "duration": 3, "velocity": 77}, {"time": 2063, "pitch": 56, "duration": 2, "velocity": 76}, {"time": 2063, "pitch": 59, "duration": 6, "velocity": 84}, {"time": 2063, "pitch": 62, "duration": 7, "velocity": 84}, {"time": 2069, "pitch": 56, "duration": 1, "velocity": 72}, {"time": 2075, "pitch": 45, "duration": 27, "velocity": 85}, {"time": 2075, "pitch": 57, "duration": 7, "velocity": 72}, {"time": 2075, "pitch": 60, "duration": 11, "velocity": 75}, {"time": 2081, "pitch": 52, "duration": 14, "velocity": 82}, {"time": 2087, "pitch": 57, "duration": 2, "velocity": 82}, {"time": 2093, "pitch": 57, "duration": 4, "velocity": 87}, {"time": 2093, "pitch": 64, "duration": 6, "velocity": 87}, {"time": 2099, "pitch": 52, "duration": 9, "velocity": 82}, {"time": 2105, "pitch": 57, "duration": 3, "velocity": 85}, {"time": 2105, "pitch": 60, "duration": 7, "velocity": 85}, {"time": 2117, "pitch": 57, "duration": 3, "velocity": 84}, {"time": 2123, "pitch": 43, "duration": 36, "velocity": 85}, {"time": 2123, "pitch": 55, "duration": 13, "velocity": 86}, {"time": 2123, "pitch": 59, "duration": 12, "velocity": 85}, {"time": 2129, "pitch": 50, "duration": 26, "velocity": 69}, {"time": 2135, "pitch": 62, "duration": 2, "velocity": 84}, {"time": 2141, "pitch": 55, "duration": 8, "velocity": 89}, {"time": 2141, "pitch": 67, "duration": 4, "velocity": 80}, {"time": 2153, "pitch": 55, "duration": 7, "velocity": 84}, {"time": 2153, "pitch": 62, "duration": 13, "velocity": 84}, {"time": 2159, "pitch": 50, "duration": 2, "velocity": 84}, {"time": 2165, "pitch": 55, "duration": 3, "velocity": 79}, {"time": 2171, "pitch": 36, "duration": 1, "velocity": 81}, {"time": 2171, "pitch": 55, "duration": 5, "velocity": 83}, {"time": 2171, "pitch": 60, "duration": 7, "velocity": 80}, {"time": 2177, "pitch": 48, "duration": 30, "velocity": 81}, {"time": 2183, "pitch": 55, "duration": 14, "velocity": 86}, {"time": 2189, "pitch": 62, "duration": 4, "velocity": 80}, {"time": 2195, "pitch": 60, "duration": 8, "velocity": 83}, {"time": 2195, "pitch": 64, "duration": 12, "velocity": 89}, {"time": 2201, "pitch": 55, "duration": 6, "velocity": 77}, {"time": 2207, "pitch": 60, "duration": 1, "velocity": 75}, {"time": 2219, "pitch": 43, "duration": 39, "velocity": 85}, {"time": 2219, "pitch": 55, "duration": 6, "velocity": 82}, {"time": 2219, "pitch": 67, "duration": 17, "velocity": 81}, {"time": 2225, "pitch": 50, "duration": 14, "velocity": 73}, {"time": 2231, "pitch": 55, "duration": 3, "velocity": 75}, {"time": 2237, "pitch": 55, "duration": 7, "velocity": 80}, {"time": 2237, "pitch": 62, "duration": 26, "velocity": 79}, {"time": 2243, "pitch": 50, "duration": 14, "velocity": 63}, {"time": 2267, "pitch": 48, "duration": 38, "velocity": 86}, {"time": 2273, "pitch": 55, "duration": 6, "velocity": 85}, {"time": 2279, "pitch": 62, "duration": 10, "velocity": 78}, {"time": 2285, "pitch": 55, "duration": 8, "velocity": 74}, {"time": 2291, "pitch": 64, "duration": 12, "velocity": 85}, {"time": 2303, "pitch": 60, "duration": 4, "velocity": 77}, {"time": 2315, "pitch": 45, "duration": 41, "velocity": 82}, {"time": 2315, "pitch": 57, "duration": 8, "velocity": 73}, {"time": 2315, "pitch": 60, "duration": 10, "velocity": 78}, {"time": 2321, "pitch": 52, "duration": 7, "velocity": 79}, {"time": 2327, "pitch": 57, "duration": 12, "velocity": 78}, {"time": 2333, "pitch": 52, "duration": 9, "velocity": 76}, {"time": 2339, "pitch": 64, "duration": 6, "velocity": 84}, {"time": 2345, "pitch": 62, "duration": 7, "velocity": 84}, {"time": 2351, "pitch": 52, "duration": 7, "velocity": 32}, {"time": 2351, "pitch": 60, "duration": 5, "velocity": 85}, {"time": 2363, "pitch": 41, "duration": 33, "velocity": 84}, {"time": 2363, "pitch": 53, "duration": 19, "velocity": 75}, {"time": 2369, "pitch": 48, "duration": 21, "velocity": 75}, {"time": 2375, "pitch": 57, "duration": 8, "velocity": 73}, {"time": 2381, "pitch": 60, "duration": 23, "velocity": 80}, {"time": 2387, "pitch": 65, "duration": 17, "velocity": 85}, {"time": 2399, "pitch": 48, "duration": 4, "velocity": 80}, {"time": 2405, "pitch": 53, "duration": 2, "velocity": 85}, {"time": 2411, "pitch": 43, "duration": 42, "velocity": 81}, {"time": 2411, "pitch": 62, "duration": 14, "velocity": 79}, {"time": 2417, "pitch": 50, "duration": 34, "velocity": 75}, {"time": 2423, "pitch": 55, "duration": 13, "velocity": 86}, {"time": 2429, "pitch": 62, "duration": 7, "velocity": 77}, {"time": 2435, "pitch": 67, "duration": 10, "velocity": 83}, {"time": 2441, "pitch": 55, "duration": 3, "velocity": 74}, {"time": 2447, "pitch": 55, "duration": 4, "velocity": 85}, {"time": 2447, "pitch": 62, "duration": 3, "velocity": 82}, {"time": 2459, "pitch": 41, "duration": 40, "velocity": 84}, {"time": 2459, "pitch": 53, "duration": 17, "velocity": 73}, {"time": 2459, "pitch": 57, "duration": 16, "velocity": 76}, {"time": 2465, "pitch": 48, "duration": 33, "velocity": 78}, {"time": 2471, "pitch": 60, "duration": 7, "velocity": 81}, {"time": 2477, "pitch": 65, "duration": 21, "velocity": 85}, {"time": 2483, "pitch": 53, "duration": 9, "velocity": 80}, {"time": 2489, "pitch": 60, "duration": 7, "velocity": 73}, {"time": 2495, "pitch": 57, "duration": 2, "velocity": 69}, {"time": 2507, "pitch": 40, "duration": 15, "velocity": 82}, {"time": 2507, "pitch": 52, "duration": 9, "velocity": 79}, {"time": 2507, "pitch": 59, "duration": 9, "velocity": 79}, {"time": 2513, "pitch": 47, "duration": 9, "velocity": 73}, {"time": 2519, "pitch": 52, "duration": 6, "velocity": 82}, {"time": 2525, "pitch": 55, "duration": 3, "velocity": 70}, {"time": 2531, "pitch": 45, "duration": 19, "velocity": 83}, {"time": 2531, "pitch": 57, "duration": 8, "velocity": 77}, {"time": 2531, "pitch": 60, "duration": 13, "velocity": 72}, {"time": 2537, "pitch": 52, "duration": 12, "velocity": 75}, {"time": 2543, "pitch": 57, "duration": 5, "velocity": 81}, {"time": 2555, "pitch": 50, "duration": 32, "velocity": 83}, {"time": 2555, "pitch": 62, "duration": 12, "velocity": 79}, {"time": 2561, "pitch": 53, "duration": 26, "velocity": 78}, {"time": 2567, "pitch": 57, "duration": 7, "velocity": 86}, {"time": 2573, "pitch": 65, "duration": 20, "velocity": 85}, {"time": 2579, "pitch": 57, "duration": 13, "velocity": 81}, {"time": 2591, "pitch": 62, "duration": 5, "velocity": 81}, {"time": 2597, "pitch": 57, "duration": 1, "velocity": 75}, {"time": 2603, "pitch": 43, "duration": 44, "velocity": 84}, {"time": 2603, "pitch": 55, "duration": 12, "velocity": 74}, {"time": 2603, "pitch": 62, "duration": 8, "velocity": 76}, {"time": 2609, "pitch": 50, "duration": 37, "velocity": 84}, {"time": 2615, "pitch": 62, "duration": 12, "velocity": 86}, {"time": 2621, "pitch": 55, "duration": 5, "velocity": 85}, {"time": 2627, "pitch": 67, "duration": 2, "velocity": 84}, {"time": 2633, "pitch": 69, "duration": 2, "velocity": 87}, {"time": 2639, "pitch": 62, "duration": 5, "velocity": 84}, {"time": 2645, "pitch": 64, "duration": 1, "velocity": 75}, {"time": 2651, "pitch": 48, "duration": 42, "velocity": 84}, {"time": 2651, "pitch": 55, "duration": 7, "velocity": 81}, {"time": 2651, "pitch": 60, "duration": 14, "velocity": 80}, {"time": 2657, "pitch": 52, "duration": 36, "velocity": 77}, {"time": 2663, "pitch": 55, "duration": 8, "velocity": 81}, {"time": 2669, "pitch": 62, "duration": 2, "velocity": 84}, {"time": 2675, "pitch": 55, "duration": 1, "velocity": 68}, {"time": 2675, "pitch": 64, "duration": 14, "velocity": 86}, {"time": 2681, "pitch": 55, "duration": 8, "velocity": 72}, {"time": 2687, "pitch": 60, "duration": 2, "velocity": 72}, {"time": 2693, "pitch": 59, "duration": 6, "velocity": 75}, {"time": 2699, "pitch": 45, "duration": 40, "velocity": 85}, {"time": 2699, "pitch": 57, "duration": 8, "velocity": 77}, {"time": 2699, "pitch": 60, "duration": 9, "velocity": 77}, {"time": 2705, "pitch": 52, "duration": 32, "velocity": 79}, {"time": 2711, "pitch": 57, "duration": 8, "velocity": 85}, {"time": 2717, "pitch": 64, "duration": 3, "velocity": 84}, {"time": 2723, "pitch": 57, "duration": 5, "velocity": 80}, {"time": 2723, "pitch": 64, "duration": 8, "velocity": 85}, {"time": 2723, "pitch": 69, "duration": 8, "velocity": 84}, {"time": 2735, "pitch": 57, "duration": 3, "velocity": 74}, {"time": 2747, "pitch": 41, "duration": 39, "velocity": 81}, {"time": 2747, "pitch": 60, "duration": 7, "velocity": 79}, {"time": 2747, "pitch": 65, "duration": 11, "velocity": 79}, {"time": 2753, "pitch": 48, "duration": 33, "velocity": 80}, {"time": 2759, "pitch": 60, "duration": 8, "velocity": 90}, {"time": 2765, "pitch": 69, "duration": 4, "velocity": 81}, {"time": 2771, "pitch": 72, "duration": 17, "velocity": 82}, {"time": 2777, "pitch": 60, "duration": 18, "velocity": 75}, {"time": 2783, "pitch": 69, "duration": 27, "velocity": 66}, {"time": 2789, "pitch": 41, "duration": 4, "velocity": 85}, {"time": 2795, "pitch": 43, "duration": 40, "velocity": 87}, {"time": 2801, "pitch": 50, "duration": 34, "velocity": 85}, {"time": 2807, "pitch": 55, "duration": 13, "velocity": 77}, {"time": 2813, "pitch": 62, "duration": 9, "velocity": 80}, {"time": 2819, "pitch": 67, "duration": 22, "velocity": 83}, {"time": 2825, "pitch": 55, "duration": 7, "velocity": 87}, {"time": 2831, "pitch": 62, "duration": 9, "velocity": 82}, {"time": 2837, "pitch": 55, "duration": 3, "velocity": 72}, {"time": 2843, "pitch": 40, "duration": 38, "velocity": 88}, {"time": 2849, "pitch": 47, "duration": 27, "velocity": 81}, {"time": 2855, "pitch": 59, "duration": 7, "velocity": 85}, {"time": 2861, "pitch": 64, "duration": 3, "velocity": 84}, {"time": 2867, "pitch": 59, "duration": 5, "velocity": 85}, {"time": 2867, "pitch": 64, "duration": 13, "velocity": 89}, {"time": 2867, "pitch": 67, "duration": 20, "velocity": 83}, {"time": 2879, "pitch": 47, "duration": 3, "velocity": 74}, {"time": 2885, "pitch": 59, "duration": 8, "velocity": 85}, {"time": 2885, "pitch": 64, "duration": 1, "velocity": 53}, {"time": 2891, "pitch": 45, "duration": 38, "velocity": 84}, {"time": 2897, "pitch": 52, "duration": 21, "velocity": 73}, {"time": 2903, "pitch": 57, "duration": 7, "velocity": 78}, {"time": 2909, "pitch": 59, "duration": 4, "velocity": 82}, {"time": 2915, "pitch": 57, "duration": 7, "velocity": 79}, {"time": 2915, "pitch": 60, "duration": 7, "velocity": 85}, {"time": 2921, "pitch": 52, "duration": 8, "velocity": 80}, {"time": 2927, "pitch": 57, "duration": 3, "velocity": 78}, {"time": 2927, "pitch": 60, "duration": 3, "velocity": 83}, {"time": 2927, "pitch": 64, "duration": 3, "velocity": 85}, {"time": 2933, "pitch": 45, "duration": 5, "velocity": 82}, {"time": 2939, "pitch": 50, "duration": 14, "velocity": 84}, {"time": 2939, "pitch": 57, "duration": 3, "velocity": 81}, {"time": 2939, "pitch": 65, "duration": 14, "velocity": 80}, {"time": 2945, "pitch": 57, "duration": 6, "velocity": 79}, {"time": 2951, "pitch": 62, "duration": 6, "velocity": 77}, {"time": 2963, "pitch": 43, "duration": 20, "velocity": 84}, {"time": 2963, "pitch": 55, "duration": 7, "velocity": 78}, {"time": 2963, "pitch": 62, "duration": 13, "velocity": 80}, {"time": 2969, "pitch": 50, "duration": 13, "velocity": 84}, {"time": 2975, "pitch": 55, "duration": 12, "velocity": 88}, {"time": 2987, "pitch": 48, "duration": 44, "velocity": 86}, {"time": 2987, "pitch": 60, "duration": 8, "velocity": 83}, {"time": 2993, "pitch": 55, "duration": 6, "velocity": 85}, {"time": 2999, "pitch": 62, "duration": 6, "velocity": 85}, {"time": 3005, "pitch": 55, "duration": 3, "velocity": 85}, {"time": 3011, "pitch": 55, "duration": 2, "velocity": 87}, {"time": 3011, "pitch": 64, "duration": 9, "velocity": 88}, {"time": 3017, "pitch": 55, "duration": 4, "velocity": 77}, {"time": 3023, "pitch": 62, "duration": 5, "velocity": 85}, {"time": 3029, "pitch": 55, "duration": 4, "velocity": 85}, {"time": 3035, "pitch": 36, "duration": 21, "velocity": 82}, {"time": 3035, "pitch": 55, "duration": 10, "velocity": 78}, {"time": 3035, "pitch": 58, "duration": 11, "velocity": 73}, {"time": 3035, "pitch": 60, "duration": 15, "velocity": 75}, {"time": 3053, "pitch": 55, "duration": 4, "velocity": 78}, {"time": 3059, "pitch": 36, "duration": 8, "velocity": 84}, {"time": 3059, "pitch": 55, "duration": 3, "velocity": 86}, {"time": 3059, "pitch": 60, "duration": 7, "velocity": 90}, {"time": 3059, "pitch": 64, "duration": 7, "velocity": 88}, {"time": 3065, "pitch": 55, "duration": 4, "velocity": 80}, {"time": 3071, "pitch": 60, "duration": 12, "velocity": 84}, {"time": 3077, "pitch": 55, "duration": 5, "velocity": 80}, {"time": 3083, "pitch": 41, "duration": 36, "velocity": 85}, {"time": 3083, "pitch": 57, "duration": 12, "velocity": 79}, {"time": 3083, "pitch": 65, "duration": 13, "velocity": 85}, {"time": 3089, "pitch": 48, "duration": 21, "velocity": 79}, {"time": 3095, "pitch": 60, "duration": 6, "velocity": 88}, {"time": 3101, "pitch": 57, "duration": 2, "velocity": 78}, {"time": 3107, "pitch": 57, "duration": 6, "velocity": 85}, {"time": 3107, "pitch": 60, "duration": 7, "velocity": 91}, {"time": 3107, "pitch": 65, "duration": 5, "velocity": 84}, {"time": 3113, "pitch": 48, "duration": 6, "velocity": 77}, {"time": 3119, "pitch": 57, "duration": 3, "velocity": 76}, {"time": 3131, "pitch": 41, "duration": 41, "velocity": 85}, {"time": 3131, "pitch": 53, "duration": 9, "velocity": 77}, {"time": 3131, "pitch": 60, "duration": 7, "velocity": 83}, {"time": 3137, "pitch": 48, "duration": 22, "velocity": 77}, {"time": 3143, "pitch": 56, "duration": 3, "velocity": 70}, {"time": 3143, "pitch": 60, "duration": 3, "velocity": 74}, {"time": 3149, "pitch": 53, "duration": 3, "velocity": 79}, {"time": 3155, "pitch": 53, "duration": 3, "velocity": 81}, {"time": 3155, "pitch": 56, "duration": 3, "velocity": 84}, {"time": 3155, "pitch": 65, "duration": 6, "velocity": 85}, {"time": 3161, "pitch": 48, "duration": 10, "velocity": 81}, {"time": 3167, "pitch": 53, "duration": 2, "velocity": 84}, {"time": 3167, "pitch": 60, "duration": 3, "velocity": 81}, {"time": 3179, "pitch": 40, "duration": 36, "velocity": 86}, {"time": 3179, "pitch": 52, "duration": 4, "velocity": 85}, {"time": 3179, "pitch": 55, "duration": 4, "velocity": 81}, {"time": 3185, "pitch": 47, "duration": 21, "velocity": 75}, {"time": 3191, "pitch": 55, "duration": 2, "velocity": 63}, {"time": 3191, "pitch": 59, "duration": 4, "velocity": 72}, {"time": 3197, "pitch": 55, "duration": 2, "velocity": 71}, {"time": 3203, "pitch": 55, "duration": 3, "velocity": 85}, {"time": 3203, "pitch": 64, "duration": 5, "velocity": 86}, {"time": 3209, "pitch": 47, "duration": 7, "velocity": 69}, {"time": 3215, "pitch": 55, "duration": 2, "velocity": 80}, {"time": 3215, "pitch": 59, "duration": 2, "velocity": 81}, {"time": 3227, "pitch": 45, "duration": 36, "velocity": 84}, {"time": 3227, "pitch": 57, "duration": 9, "velocity": 79}, {"time": 3227, "pitch": 60, "duration": 9, "velocity": 84}, {"time": 3233, "pitch": 52, "duration": 19, "velocity": 73}, {"time": 3239, "pitch": 64, "duration": 3, "velocity": 79}, {"time": 3245, "pitch": 57, "duration": 2, "velocity": 77}, {"time": 3251, "pitch": 57, "duration": 4, "velocity": 85}, {"time": 3251, "pitch": 60, "duration": 4, "velocity": 93}, {"time": 3251, "pitch": 64, "duration": 4, "velocity": 90}, {"time": 3251, "pitch": 69, "duration": 4, "velocity": 84}, {"time": 3257, "pitch": 52, "duration": 7, "velocity": 80}, {"time": 3263, "pitch": 60, "duration": 3, "velocity": 84}, {"time": 3263, "pitch": 64, "duration": 7, "velocity": 84}, {"time": 3269, "pitch": 57, "duration": 3, "velocity": 73}, {"time": 3275, "pitch": 38, "duration": 26, "velocity": 86}, {"time": 3275, "pitch": 57, "duration": 6, "velocity": 80}, {"time": 3275, "pitch": 62, "duration": 12, "velocity": 79}, {"time": 3281, "pitch": 45, "duration": 19, "velocity": 61}, {"time": 3287, "pitch": 57, "duration": 7, "velocity": 84}, {"time": 3293, "pitch": 62, "duration": 2, "velocity": 76}, {"time": 3299, "pitch": 57, "duration": 5, "velocity": 88}, {"time": 3299, "pitch": 65, "duration": 9, "velocity": 90}, {"time": 3305, "pitch": 57, "duration": 2, "velocity": 73}, {"time": 3311, "pitch": 38, "duration": 3, "velocity": 86}, {"time": 3311, "pitch": 57, "duration": 2, "velocity": 83}, {"time": 3311, "pitch": 62, "duration": 7, "velocity": 85}, {"time": 3317, "pitch": 57, "duration": 4, "velocity": 76}, {"time": 3323, "pitch": 43, "duration": 27, "velocity": 86}, {"time": 3329, "pitch": 55, "duration": 4, "velocity": 86}, {"time": 3335, "pitch": 55, "duration": 1, "velocity": 72}, {"time": 3335, "pitch": 62, "duration": 9, "velocity": 84}, {"time": 3341, "pitch": 55, "duration": 3, "velocity": 72}, {"time": 3347, "pitch": 55, "duration": 7, "velocity": 85}, {"time": 3347, "pitch": 62, "duration": 13, "velocity": 86}, {"time": 3347, "pitch": 67, "duration": 11, "velocity": 81}, {"time": 3353, "pitch": 50, "duration": 5, "velocity": 75}, {"time": 3359, "pitch": 55, "duration": 2, "velocity": 89}, {"time": 3371, "pitch": 36, "duration": 1, "velocity": 84}, {"time": 3371, "pitch": 55, "duration": 4, "velocity": 85}, {"time": 3371, "pitch": 64, "duration": 9, "velocity": 85}, {"time": 3377, "pitch": 48, "duration": 28, "velocity": 72}, {"time": 3383, "pitch": 55, "duration": 14, "velocity": 88}, {"time": 3389, "pitch": 60, "duration": 3, "velocity": 87}, {"time": 3395, "pitch": 62, "duration": 12, "velocity": 90}, {"time": 3401, "pitch": 55, "duration": 5, "velocity": 85}, {"time": 3407, "pitch": 60, "duration": 2, "velocity": 90}, {"time": 3419, "pitch": 43, "duration": 22, "velocity": 85}, {"time": 3419, "pitch": 55, "duration": 12, "velocity": 87}, {"time": 3419, "pitch": 58, "duration": 11, "velocity": 89}, {"time": 3425, "pitch": 50, "duration": 15, "velocity": 86}, {"time": 3431, "pitch": 55, "duration": 3, "velocity": 91}, {"time": 3437, "pitch": 55, "duration": 1, "velocity": 68}, {"time": 3437, "pitch": 58, "duration": 4, "velocity": 91}, {"time": 3443, "pitch": 48, "duration": 12, "velocity": 84}, {"time": 3443, "pitch": 55, "duration": 4, "velocity": 81}, {"time": 3443, "pitch": 64, "duration": 9, "velocity": 90}, {"time": 3449, "pitch": 52, "duration": 10, "velocity": 89}, {"time": 3449, "pitch": 55, "duration": 2, "velocity": 67}, {"time": 3455, "pitch": 55, "duration": 2, "velocity": 90}, {"time": 3455, "pitch": 60, "duration": 6, "velocity": 90}, {"time": 3461, "pitch": 55, "duration": 3, "velocity": 84}, {"time": 3467, "pitch": 41, "duration": 41, "velocity": 85}, {"time": 3467, "pitch": 53, "duration": 12, "velocity": 84}, {"time": 3467, "pitch": 57, "duration": 9, "velocity": 78}, {"time": 3473, "pitch": 48, "duration": 34, "velocity": 75}, {"time": 3479, "pitch": 60, "duration": 2, "velocity": 77}, {"time": 3485, "pitch": 53, "duration": 3, "velocity": 77}, {"time": 3491, "pitch": 53, "duration": 3, "velocity": 84}, {"time": 3491, "pitch": 57, "duration": 6, "velocity": 86}, {"time": 3491, "pitch": 60, "duration": 7, "velocity": 85}, {"time": 3491, "pitch": 65, "duration": 6, "velocity": 83}, {"time": 3497, "pitch": 53, "duration": 3, "velocity": 71}, {"time": 3503, "pitch": 57, "duration": 1, "velocity": 72}, {"time": 3503, "pitch": 60, "duration": 2, "velocity": 77}, {"time": 3515, "pitch": 41, "duration": 21, "velocity": 85}, {"time": 3515, "pitch": 53, "duration": 12, "velocity": 78}, {"time": 3515, "pitch": 60, "duration": 12, "velocity": 81}, {"time": 3521, "pitch": 48, "duration": 15, "velocity": 80}, {"time": 3527, "pitch": 56, "duration": 2, "velocity": 79}, {"time": 3533, "pitch": 60, "duration": 3, "velocity": 74}, {"time": 3533, "pitch": 65, "duration": 3, "velocity": 77}, {"time": 3539, "pitch": 41, "duration": 17, "velocity": 85}, {"time": 3539, "pitch": 60, "duration": 3, "velocity": 85}, {"time": 3539, "pitch": 65, "duration": 5, "velocity": 84}, {"time": 3539, "pitch": 68, "duration": 10, "velocity": 86}, {"time": 3545, "pitch": 48, "duration": 10, "velocity": 74}, {"time": 3545, "pitch": 60, "duration": 3, "velocity": 74}, {"time": 3551, "pitch": 60, "duration": 3, "velocity": 84}, {"time": 3551, "pitch": 65, "duration": 6, "velocity": 84}, {"time": 3563, "pitch": 40, "duration": 36, "velocity": 84}, {"time": 3563, "pitch": 67, "duration": 12, "velocity": 76}, {"time": 3569, "pitch": 47, "duration": 19, "velocity": 85}, {"time": 3575, "pitch": 64, "duration": 7, "velocity": 85}, {"time": 3581, "pitch": 67, "duration": 2, "velocity": 85}, {"time": 3587, "pitch": 64, "duration": 7, "velocity": 85}, {"time": 3587, "pitch": 71, "duration": 9, "velocity": 86}, {"time": 3593, "pitch": 47, "duration": 7, "velocity": 83}, {"time": 3599, "pitch": 64, "duration": 2, "velocity": 82}, {"time": 3599, "pitch": 67, "duration": 5, "velocity": 79}, {"time": 3611, "pitch": 45, "duration": 19, "velocity": 85}, {"time": 3611, "pitch": 64, "duration": 6, "velocity": 78}, {"time": 3611, "pitch": 69, "duration": 7, "velocity": 80}, {"time": 3617, "pitch": 52, "duration": 13, "velocity": 81}, {"time": 3623, "pitch": 64, "duration": 3, "velocity": 84}, {"time": 3623, "pitch": 72, "duration": 7, "velocity": 83}, {"time": 3629, "pitch": 71, "duration": 5, "velocity": 79}, {"time": 3635, "pitch": 45, "duration": 14, "velocity": 85}, {"time": 3635, "pitch": 64, "duration": 3, "velocity": 79}, {"time": 3635, "pitch": 67, "duration": 12, "velocity": 76}, {"time": 3641, "pitch": 52, "duration": 7, "velocity": 83}, {"time": 3647, "pitch": 64, "duration": 8, "velocity": 91}, {"time": 3653, "pitch": 67, "duration": 3, "velocity": 73}, {"time": 3659, "pitch": 38, "duration": 31, "velocity": 85}, {"time": 3659, "pitch": 62, "duration": 6, "velocity": 80}, {"time": 3659, "pitch": 65, "duration": 11, "velocity": 80}, {"time": 3665, "pitch": 45, "duration": 14, "velocity": 74}, {"time": 3671, "pitch": 62, "duration": 2, "velocity": 81}, {"time": 3677, "pitch": 62, "duration": 8, "velocity": 87}, {"time": 3677, "pitch": 69, "duration": 14, "velocity": 86}, {"time": 3683, "pitch": 45, "duration": 12, "velocity": 80}, {"time": 3689, "pitch": 62, "duration": 3, "velocity": 84}, {"time": 3695, "pitch": 62, "duration": 2, "velocity": 84}, {"time": 3695, "pitch": 65, "duration": 6, "velocity": 86}, {"time": 3701, "pitch": 62, "duration": 1, "velocity": 73}, {"time": 3707, "pitch": 43, "duration": 40, "velocity": 84}, {"time": 3707, "pitch": 55, "duration": 7, "velocity": 81}, {"time": 3707, "pitch": 62, "duration": 10, "velocity": 76}, {"time": 3713, "pitch": 50, "duration": 20, "velocity": 77}, {"time": 3719, "pitch": 55, "duration": 8, "velocity": 84}, {"time": 3725, "pitch": 62, "duration": 3, "velocity": 78}, {"time": 3731, "pitch": 55, "duration": 8, "velocity": 85}, {"time": 3731, "pitch": 62, "duration": 14, "velocity": 85}, {"time": 3731, "pitch": 67, "duration": 13, "velocity": 81}, {"time": 3737, "pitch": 50, "duration": 10, "velocity": 76}, {"time": 3743, "pitch": 55, "duration": 7, "velocity": 84}, {"time": 3755, "pitch": 41, "duration": 36, "velocity": 85}, {"time": 3755, "pitch": 57, "duration": 12, "velocity": 79}, {"time": 3755, "pitch": 65, "duration": 13, "velocity": 85}, {"time": 3761, "pitch": 48, "duration": 21, "velocity": 79}, {"time": 3767, "pitch": 60, "duration": 6, "velocity": 88}, {"time": 3773, "pitch": 57, "duration": 2, "velocity": 78}, {"time": 3779, "pitch": 57, "duration": 6, "velocity": 85}, {"time": 3779, "pitch": 60, "duration": 7, "velocity": 91}, {"time": 3779, "pitch": 65, "duration": 5, "velocity": 84}, {"time": 3785, "pitch": 48, "duration": 6, "velocity": 77}, {"time": 3791, "pitch": 57, "duration": 3, "velocity": 76}, {"time": 3803, "pitch": 41, "duration": 41, "velocity": 85}, {"time": 3803, "pitch": 53, "duration": 9, "velocity": 77}, {"time": 3803, "pitch": 60, "duration": 7, "velocity": 83}, {"time": 3809, "pitch": 48, "duration": 22, "velocity": 77}, {"time": 3815, "pitch": 56, "duration": 3, "velocity": 70}, {"time": 3815, "pitch": 60, "duration": 3, "velocity": 74}, {"time": 3821, "pitch": 53, "duration": 3, "velocity": 79}, {"time": 3827, "pitch": 53, "duration": 3, "velocity": 81}, {"time": 3827, "pitch": 56, "duration": 3, "velocity": 84}, {"time": 3827, "pitch": 65, "duration": 6, "velocity": 85}, {"time": 3833, "pitch": 48, "duration": 10, "velocity": 81}, {"time": 3839, "pitch": 53, "duration": 2, "velocity": 84}, {"time": 3839, "pitch": 60, "duration": 3, "velocity": 81}, {"time": 3851, "pitch": 40, "duration": 36, "velocity": 86}, {"time": 3851, "pitch": 52, "duration": 4, "velocity": 85}, {"time": 3851, "pitch": 55, "duration": 4, "velocity": 81}, {"time": 3857, "pitch": 47, "duration": 21, "velocity": 75}, {"time": 3863, "pitch": 55, "duration": 2, "velocity": 63}, {"time": 3863, "pitch": 59, "duration": 4, "velocity": 72}, {"time": 3869, "pitch": 55, "duration": 2, "velocity": 71}, {"time": 3875, "pitch": 55, "duration": 3, "velocity": 85}, {"time": 3875, "pitch": 64, "duration": 5, "velocity": 86}, {"time": 3881, "pitch": 47, "duration": 7, "velocity": 69}, {"time": 3887, "pitch": 55, "duration": 2, "velocity": 80}, {"time": 3887, "pitch": 59, "duration": 2, "velocity": 81}, {"time": 3899, "pitch": 45, "duration": 36, "velocity": 84}, {"time": 3899, "pitch": 57, "duration": 9, "velocity": 79}, {"time": 3899, "pitch": 60, "duration": 9, "velocity": 84}, {"time": 3905, "pitch": 52, "duration": 19, "velocity": 73}, {"time": 3911, "pitch": 64, "duration": 3, "velocity": 79}, {"time": 3917, "pitch": 57, "duration": 2, "velocity": 77}, {"time": 3923, "pitch": 57, "duration": 4, "velocity": 85}, {"time": 3923, "pitch": 60, "duration": 4, "velocity": 93}, {"time": 3923, "pitch": 64, "duration": 4, "velocity": 90}, {"time": 3923, "pitch": 69, "duration": 4, "velocity": 84}, {"time": 3929, "pitch": 52, "duration": 7, "velocity": 80}, {"time": 3935, "pitch": 60, "duration": 3, "velocity": 84}, {"time": 3935, "pitch": 64, "duration": 7, "velocity": 84}, {"time": 3941, "pitch": 57, "duration": 3, "velocity": 73}, {"time": 3947, "pitch": 38, "duration": 26, "velocity": 86}, {"time": 3947, "pitch": 57, "duration": 6, "velocity": 80}, {"time": 3947, "pitch": 62, "duration": 12, "velocity": 79}, {"time": 3953, "pitch": 45, "duration": 19, "velocity": 61}, {"time": 3959, "pitch": 57, "duration": 7, "velocity": 84}, {"time": 3965, "pitch": 62, "duration": 2, "velocity": 76}, {"time": 3971, "pitch": 57, "duration": 5, "velocity": 88}, {"time": 3971, "pitch": 65, "duration": 9, "velocity": 90}, {"time": 3977, "pitch": 57, "duration": 2, "velocity": 73}, {"time": 3983, "pitch": 38, "duration": 3, "velocity": 86}, {"time": 3983, "pitch": 57, "duration": 2, "velocity": 83}, {"time": 3983, "pitch": 62, "duration": 7, "velocity": 85}, {"time": 3989, "pitch": 57, "duration": 4, "velocity": 76}, {"time": 3995, "pitch": 43, "duration": 27, "velocity": 86}, {"time": 4001, "pitch": 55, "duration": 4, "velocity": 86}, {"time": 4007, "pitch": 55, "duration": 1, "velocity": 72}, {"time": 4007, "pitch": 62, "duration": 9, "velocity": 84}, {"time": 4013, "pitch": 55, "duration": 3, "velocity": 72}, {"time": 4019, "pitch": 55, "duration": 7, "velocity": 85}, {"time": 4019, "pitch": 62, "duration": 13, "velocity": 86}, {"time": 4019, "pitch": 67, "duration": 11, "velocity": 81}, {"time": 4025, "pitch": 50, "duration": 5, "velocity": 75}, {"time": 4031, "pitch": 55, "duration": 2, "velocity": 89}, {"time": 4043, "pitch": 36, "duration": 1, "velocity": 84}, {"time": 4043, "pitch": 55, "duration": 4, "velocity": 85}, {"time": 4043, "pitch": 64, "duration": 9, "velocity": 85}, {"time": 4049, "pitch": 48, "duration": 28, "velocity": 72}, {"time": 4055, "pitch": 55, "duration": 14, "velocity": 88}, {"time": 4061, "pitch": 60, "duration": 3, "velocity": 87}, {"time": 4067, "pitch": 62, "duration": 12, "velocity": 90}, {"time": 4073, "pitch": 55, "duration": 5, "velocity": 85}, {"time": 4079, "pitch": 60, "duration": 2, "velocity": 90}, {"time": 4091, "pitch": 43, "duration": 22, "velocity": 85}, {"time": 4091, "pitch": 55, "duration": 12, "velocity": 87}, {"time": 4091, "pitch": 58, "duration": 11, "velocity": 89}, {"time": 4097, "pitch": 50, "duration": 15, "velocity": 86}, {"time": 4103, "pitch": 55, "duration": 3, "velocity": 91}, {"time": 4109, "pitch": 55, "duration": 1, "velocity": 68}, {"time": 4109, "pitch": 58, "duration": 4, "velocity": 91}, {"time": 4115, "pitch": 48, "duration": 12, "velocity": 84}, {"time": 4115, "pitch": 55, "duration": 4, "velocity": 81}, {"time": 4115, "pitch": 64, "duration": 9, "velocity": 90}, {"time": 4121, "pitch": 52, "duration": 10, "velocity": 89}, {"time": 4121, "pitch": 55, "duration": 2, "velocity": 67}, {"time": 4127, "pitch": 55, "duration": 2, "velocity": 90}, {"time": 4127, "pitch": 60, "duration": 6, "velocity": 90}, {"time": 4133, "pitch": 55, "duration": 3, "velocity": 84}, {"time": 4139, "pitch": 41, "duration": 36, "velocity": 85}, {"time": 4139, "pitch": 57, "duration": 12, "velocity": 79}, {"time": 4139, "pitch": 65, "duration": 13, "velocity": 85}, {"time": 4145, "pitch": 48, "duration": 21, "velocity": 79}, {"time": 4151, "pitch": 60, "duration": 6, "velocity": 88}, {"time": 4157, "pitch": 57, "duration": 2, "velocity": 78}, {"time": 4163, "pitch": 57, "duration": 6, "velocity": 85}, {"time": 4163, "pitch": 60, "duration": 7, "velocity": 91}, {"time": 4163, "pitch": 65, "duration": 5, "velocity": 84}, {"time": 4169, "pitch": 48, "duration": 6, "velocity": 77}, {"time": 4175, "pitch": 57, "duration": 3, "velocity": 76}, {"time": 4187, "pitch": 41, "duration": 41, "velocity": 85}, {"time": 4187, "pitch": 53, "duration": 9, "velocity": 77}, {"time": 4187, "pitch": 60, "duration": 7, "velocity": 83}, {"time": 4193, "pitch": 48, "duration": 22, "velocity": 77}, {"time": 4199, "pitch": 56, "duration": 3, "velocity": 70}, {"time": 4199, "pitch": 60, "duration": 3, "velocity": 74}, {"time": 4205, "pitch": 53, "duration": 3, "velocity": 79}, {"time": 4211, "pitch": 53, "duration": 3, "velocity": 81}, {"time": 4211, "pitch": 56, "duration": 3, "velocity": 84}, {"time": 4211, "pitch": 65, "duration": 6, "velocity": 85}, {"time": 4217, "pitch": 48, "duration": 10, "velocity": 81}, {"time": 4223, "pitch": 53, "duration": 2, "velocity": 84}, {"time": 4223, "pitch": 60, "duration": 3, "velocity": 81}, {"time": 4235, "pitch": 40, "duration": 36, "velocity": 86}, {"time": 4235, "pitch": 52, "duration": 4, "velocity": 85}, {"time": 4235, "pitch": 55, "duration": 4, "velocity": 81}, {"time": 4241, "pitch": 47, "duration": 21, "velocity": 75}, {"time": 4247, "pitch": 55, "duration": 2, "velocity": 63}, {"time": 4247, "pitch": 59, "duration": 4, "velocity": 72}, {"time": 4253, "pitch": 55, "duration": 2, "velocity": 71}, {"time": 4259, "pitch": 55, "duration": 3, "velocity": 85}, {"time": 4259, "pitch": 64, "duration": 5, "velocity": 86}, {"time": 4265, "pitch": 47, "duration": 7, "velocity": 69}, {"time": 4271, "pitch": 55, "duration": 2, "velocity": 80}, {"time": 4271, "pitch": 59, "duration": 2, "velocity": 81}, {"time": 4283, "pitch": 45, "duration": 36, "velocity": 84}, {"time": 4283, "pitch": 57, "duration": 9, "velocity": 79}, {"time": 4283, "pitch": 60, "duration": 9, "velocity": 84}, {"time": 4289, "pitch": 52, "duration": 19, "velocity": 73}, {"time": 4295, "pitch": 64, "duration": 3, "velocity": 79}, {"time": 4301, "pitch": 57, "duration": 2, "velocity": 77}, {"time": 4307, "pitch": 57, "duration": 4, "velocity": 85}, {"time": 4307, "pitch": 60, "duration": 4, "velocity": 93}, {"time": 4307, "pitch": 64, "duration": 4, "velocity": 90}, {"time": 4307, "pitch": 69, "duration": 4, "velocity": 84}, {"time": 4313, "pitch": 52, "duration": 7, "velocity": 80}, {"time": 4319, "pitch": 60, "duration": 3, "velocity": 84}, {"time": 4319, "pitch": 64, "duration": 7, "velocity": 84}, {"time": 4325, "pitch": 57, "duration": 3, "velocity": 73}, {"time": 4331, "pitch": 38, "duration": 26, "velocity": 86}, {"time": 4331, "pitch": 57, "duration": 6, "velocity": 80}, {"time": 4331, "pitch": 62, "duration": 12, "velocity": 79}, {"time": 4337, "pitch": 45, "duration": 19, "velocity": 61}, {"time": 4343, "pitch": 57, "duration": 7, "velocity": 84}, {"time": 4349, "pitch": 62, "duration": 2, "velocity": 76}, {"time": 4355, "pitch": 57, "duration": 5, "velocity": 88}, {"time": 4355, "pitch": 65, "duration": 9, "velocity": 90}, {"time": 4361, "pitch": 57, "duration": 2, "velocity": 73}, {"time": 4367, "pitch": 38, "duration": 3, "velocity": 86}, {"time": 4367, "pitch": 57, "duration": 2, "velocity": 83}, {"time": 4367, "pitch": 62, "duration": 7, "velocity": 85}, {"time": 4373, "pitch": 57, "duration": 4, "velocity": 76}, {"time": 4379, "pitch": 43, "duration": 27, "velocity": 86}, {"time": 4385, "pitch": 55, "duration": 4, "velocity": 86}, {"time": 4391, "pitch": 55, "duration": 1, "velocity": 72}, {"time": 4391, "pitch": 62, "duration": 9, "velocity": 84}, {"time": 4397, "pitch": 55, "duration": 3, "velocity": 72}, {"time": 4403, "pitch": 55, "duration": 7, "velocity": 85}, {"time": 4403, "pitch": 62, "duration": 13, "velocity": 86}, {"time": 4403, "pitch": 67, "duration": 11, "velocity": 81}, {"time": 4409, "pitch": 50, "duration": 5, "velocity": 75}, {"time": 4415, "pitch": 55, "duration": 2, "velocity": 89}, {"time": 4427, "pitch": 41, "duration": 48, "velocity": 75}, {"time": 4433, "pitch": 48, "duration": 41, "velocity": 71}, {"time": 4439, "pitch": 53, "duration": 24, "velocity": 85}, {"time": 4445, "pitch": 60, "duration": 30, "velocity": 80}, {"time": 4463, "pitch": 65, "duration": 12, "velocity": 82}, {"time": 4469, "pitch": 53, "duration": 6, "velocity": 78}, {"time": 4475, "pitch": 41, "duration": 1, "velocity": 84}, {"time": 4481, "pitch": 48, "duration": 41, "velocity": 68}, {"time": 4487, "pitch": 56, "duration": 8, "velocity": 73}, {"time": 4493, "pitch": 60, "duration": 16, "velocity": 79}, {"time": 4499, "pitch": 65, "duration": 13, "velocity": 80}, {"time": 4505, "pitch": 53, "duration": 7, "velocity": 59}, {"time": 4511, "pitch": 56, "duration": 11, "velocity": 69}, {"time": 4511, "pitch": 60, "duration": 12, "velocity": 75}, {"time": 4523, "pitch": 40, "duration": 33, "velocity": 85}, {"time": 4529, "pitch": 47, "duration": 25, "velocity": 73}, {"time": 4535, "pitch": 52, "duration": 13, "velocity": 80}, {"time": 4541, "pitch": 55, "duration": 13, "velocity": 84}, {"time": 4547, "pitch": 64, "duration": 14, "velocity": 85}, {"time": 4553, "pitch": 52, "duration": 6, "velocity": 84}, {"time": 4559, "pitch": 55, "duration": 2, "velocity": 80}, {"time": 4571, "pitch": 45, "duration": 41, "velocity": 80}, {"time": 4571, "pitch": 57, "duration": 18, "velocity": 71}, {"time": 4571, "pitch": 60, "duration": 20, "velocity": 75}, {"time": 4577, "pitch": 52, "duration": 15, "velocity": 73}, {"time": 4583, "pitch": 64, "duration": 15, "velocity": 82}, {"time": 4589, "pitch": 69, "duration": 13, "velocity": 83}, {"time": 4595, "pitch": 52, "duration": 15, "velocity": 74}, {"time": 4601, "pitch": 57, "duration": 5, "velocity": 74}, {"time": 4607, "pitch": 57, "duration": 2, "velocity": 72}, {"time": 4607, "pitch": 60, "duration": 4, "velocity": 83}, {"time": 4619, "pitch": 50, "duration": 23, "velocity": 84}, {"time": 4619, "pitch": 57, "duration": 6, "velocity": 74}, {"time": 4619, "pitch": 62, "duration": 13, "velocity": 81}, {"time": 4625, "pitch": 53, "duration": 15, "velocity": 71}, {"time": 4631, "pitch": 57, "duration": 3, "velocity": 88}, {"time": 4637, "pitch": 57, "duration": 13, "velocity": 85}, {"time": 4637, "pitch": 65, "duration": 20, "velocity": 85}, {"time": 4649, "pitch": 53, "duration": 4, "velocity": 70}, {"time": 4655, "pitch": 57, "duration": 3, "velocity": 81}, {"time": 4667, "pitch": 43, "duration": 40, "velocity": 84}, {"time": 4667, "pitch": 55, "duration": 9, "velocity": 79}, {"time": 4667, "pitch": 62, "duration": 8, "velocity": 80}, {"time": 4673, "pitch": 50, "duration": 33, "velocity": 79}, {"time": 4679, "pitch": 62, "duration": 7, "velocity": 83}, {"time": 4685, "pitch": 67, "duration": 19, "velocity": 84}, {"time": 4697, "pitch": 55, "duration": 6, "velocity": 75}, {"time": 4703, "pitch": 62, "duration": 3, "velocity": 85}, {"time": 4714, "pitch": 36, "duration": 90, "velocity": 82}, {"time": 4720, "pitch": 43, "duration": 83, "velocity": 64}, {"time": 4727, "pitch": 50, "duration": 8, "velocity": 75}, {"time": 4734, "pitch": 52, "duration": 8, "velocity": 86}, {"time": 4742, "pitch": 55, "duration": 2, "velocity": 85}, {"time": 4750, "pitch": 55, "duration": 7, "velocity": 74}, {"time": 4750, "pitch": 60, "duration": 8, "velocity": 71}, {"time": 4759, "pitch": 62, "duration": 7, "velocity": 79}, {"time": 4759, "pitch": 55, "duration": 5, "velocity": 80}, {"time": 4767, "pitch": 55, "duration": 2, "velocity": 65}, {"time": 4768, "pitch": 60, "duration": 2, "velocity": 67}, {"time": 4770, "pitch": 64, "duration": 3, "velocity": 79}, {"time": 4781, "pitch": 64, "duration": 56, "velocity": 62}, {"time": 4783, "pitch": 67, "duration": 54, "velocity": 57}, {"time": 4785, "pitch": 72, "duration": 52, "velocity": 62}], "annotations": [{"time": 60, "annotation": {"number": 64, "value": 127}, "group": "control_change"}, {"time": 60, "annotation": {"number": 64, "value": 0}, "group": "control_change"}, {"time": 96, "annotation": {"number": 64, "value": 127}, "group": "control_change"}, {"time": 96, "annotation": {"number": 64, "value": 0}, "group": "control_change"}, {"time": 106, "annotation": {"number": 64, "value": 0}, "group": "control_change"}, {"time": 111, "annotation": {"number": 64, "value": 0}, "group": "control_change"}, {"time": 118, "annotation": {"number": 64, "value": 127}, "group": "control_change"}, {"time": 154, "annotation": {"number": 64, "value": 0}, "group": "control_change"}, {"time": 159, "annotation": {"number": 64, "value": 127}, "group": "control_change"}, {"time": 201, "annotation": {"number": 64, "value": 0}, "group": "control_change"}, {"time": 204, "annotation": {"number": 64, "value": 127}, "group": "control_change"}, {"time": 249, "annotation": {"number": 64, "value": 0}, "group": "control_change"}, {"time": 254, "annotation": {"number": 64, "value": 127}, "group": "control_change"}, {"time": 298, "annotation": {"number": 64, "value": 0}, "group": "control_change"}, {"time": 300, "annotation": {"number": 64, "value": 127}, "group": "control_change"}, {"time": 345, "annotation": {"number": 64, "value": 0}, "group": "control_change"}, {"time": 348, "annotation": {"number": 64, "value": 127}, "group": "control_change"}, {"time": 389, "annotation": {"number": 64, "value": 0}, "group": "control_change"}, {"time": 397, "annotation": {"number": 64, "value": 127}, "group": "control_change"}, {"time": 397, "annotation": {"number": 64, "value": 0}, "group": "control_change"}, {"time": 442, "annotation": {"number": 64, "value": 0}, "group": "control_change"}, {"time": 449, "annotation": {"number": 64, "value": 127}, "group": "control_change"}, {"time": 490, "annotation": {"number": 64, "value": 0}, "group": "control_change"}, {"time": 494, "annotation": {"number": 64, "value": 127}, "group": "control_change"}, {"time": 539, "annotation": {"number": 64, "value": 0}, "group": "control_change"}, {"time": 541, "annotation": {"number": 64, "value": 127}, "group": "control_change"}, {"time": 541, "annotation": {"number": 64, "value": 0}, "group": "control_change"}, {"time": 585, "annotation": {"number": 64, "value": 0}, "group": "control_change"}, {"time": 594, "annotation": {"number": 64, "value": 127}, "group": "control_change"}, {"time": 633, "annotation": {"number": 64, "value": 127}, "group": "control_change"}, {"time": 633, "annotation": {"number": 64, "value": 0}, "group": "control_change"}, {"time": 657, "annotation": {"number": 64, "value": 0}, "group": "control_change"}, {"time": 663, "annotation": {"number": 64, "value": 127}, "group": "control_change"}, {"time": 680, "annotation": {"number": 64, "value": 0}, "group": "control_change"}, {"time": 684, "annotation": {"number": 64, "value": 127}, "group": "control_change"}, {"time": 729, "annotation": {"number": 64, "value": 0}, "group": "control_change"}, {"time": 736, "annotation": {"number": 64, "value": 127}, "group": "control_change"}, {"time": 777, "annotation": {"number": 64, "value": 0}, "group": "control_change"}, {"time": 784, "annotation": {"number": 64, "value": 127}, "group": "control_change"}, {"time": 784, "annotation": {"number": 64, "value": 0}, "group": "control_change"}, {"time": 825, "annotation": {"number": 64, "value": 0}, "group": "control_change"}, {"time": 833, "annotation": {"number": 64, "value": 127}, "group": "control_change"}, {"time": 873, "annotation": {"number": 64, "value": 0}, "group": "control_change"}, {"time": 878, "annotation": {"number": 64, "value": 127}, "group": "control_change"}, {"time": 920, "annotation": {"number": 64, "value": 0}, "group": "control_change"}, {"time": 922, "annotation": {"number": 64, "value": 127}, "group": "control_change"}, {"time": 945, "annotation": {"number": 64, "value": 0}, "group": "control_change"}, {"time": 947, "annotation": {"number": 64, "value": 127}, "group": "control_change"}, {"time": 969, "annotation": {"number": 64, "value": 0}, "group": "control_change"}, {"time": 972, "annotation": {"number": 64, "value": 127}, "group": "control_change"}, {"time": 1016, "annotation": {"number": 64, "value": 0}, "group": "control_change"}, {"time": 1019, "annotation": {"number": 64, "value": 127}, "group": "control_change"}, {"time": 1064, "annotation": {"number": 64, "value": 0}, "group": "control_change"}, {"time": 1067, "annotation": {"number": 64, "value": 127}, "group": "control_change"}, {"time": 1091, "annotation": {"number": 64, "value": 0}, "group": "control_change"}, {"time": 1098, "annotation": {"number": 64, "value": 127}, "group": "control_change"}, {"time": 1114, "annotation": {"number": 64, "value": 0}, "group": "control_change"}, {"time": 1118, "annotation": {"number": 64, "value": 127}, "group": "control_change"}, {"time": 1161, "annotation": {"number": 64, "value": 0}, "group": "control_change"}, {"time": 1163, "annotation": {"number": 64, "value": 127}, "group": "control_change"}, {"time": 1184, "annotation": {"number": 64, "value": 0}, "group": "control_change"}, {"time": 1186, "annotation": {"number": 64, "value": 127}, "group": "control_change"}, {"time": 1208, "annotation": {"number": 64, "value": 0}, "group": "control_change"}, {"time": 1211, "annotation": {"number": 64, "value": 127}, "group": "control_change"}, {"time": 1256, "annotation": {"number": 64, "value": 0}, "group": "control_change"}, {"time": 1260, "annotation": {"number": 64, "value": 127}, "group": "control_change"}, {"time": 1305, "annotation": {"number": 64, "value": 0}, "group": "control_change"}, {"time": 1309, "annotation": {"number": 64, "value": 127}, "group": "control_change"}, {"time": 1353, "annotation": {"number": 64, "value": 0}, "group": "control_change"}, {"time": 1357, "annotation": {"number": 64, "value": 127}, "group": "control_change"}, {"time": 1401, "annotation": {"number": 64, "value": 0}, "group": "control_change"}, {"time": 1404, "annotation": {"number": 64, "value": 127}, "group": "control_change"}, {"time": 1449, "annotation": {"number": 64, "value": 0}, "group": "control_change"}, {"time": 1451, "annotation": {"number": 64, "value": 127}, "group": "control_change"}, {"time": 1495, "annotation": {"number": 64, "value": 0}, "group": "control_change"}, {"time": 1498, "annotation": {"number": 64, "value": 127}, "group": "control_change"}, {"time": 1545, "annotation": {"number": 64, "value": 0}, "group": "control_change"}, {"time": 1547, "annotation": {"number": 64, "value": 127}, "group": "control_change"}, {"time": 1570, "annotation": {"number": 64, "value": 0}, "group": "control_change"}, {"time": 1572, "annotation": {"number": 64, "value": 127}, "group": "control_change"}, {"time": 1592, "annotation": {"number": 64, "value": 0}, "group": "control_change"}, {"time": 1597, "annotation": {"number": 64, "value": 127}, "group": "control_change"}, {"time": 1641, "annotation": {"number": 64, "value": 0}, "group": "control_change"}, {"time": 1645, "annotation": {"number": 64, "value": 127}, "group": "control_change"}, {"time": 1690, "annotation": {"number": 64, "value": 0}, "group": "control_change"}, {"time": 1693, "annotation": {"number": 64, "value": 127}, "group": "control_change"}, {"time": 1738, "annotation": {"number": 64, "value": 0}, "group": "control_change"}, {"time": 1741, "annotation": {"number": 64, "value": 127}, "group": "control_change"}, {"time": 1785, "annotation": {"number": 64, "value": 0}, "group": "control_change"}, {"time": 1788, "annotation": {"number": 64, "value": 127}, "group": "control_change"}, {"time": 1834, "annotation": {"number": 64, "value": 0}, "group": "control_change"}, {"time": 1839, "annotation": {"number": 64, "value": 127}, "group": "control_change"}, {"time": 1880, "annotation": {"number": 64, "value": 0}, "group": "control_change"}, {"time": 1884, "annotation": {"number": 64, "value": 127}, "group": "control_change"}, {"time": 1884, "annotation": {"number": 64, "value": 0}, "group": "control_change"}, {"time": 1929, "annotation": {"number": 64, "value": 0}, "group": "control_change"}, {"time": 1931, "annotation": {"number": 64, "value": 127}, "group": "control_change"}, {"time": 1976, "annotation": {"number": 64, "value": 0}, "group": "control_change"}, {"time": 1980, "annotation": {"number": 64, "value": 127}, "group": "control_change"}, {"time": 2025, "annotation": {"number": 64, "value": 0}, "group": "control_change"}, {"time": 2028, "annotation": {"number": 64, "value": 127}, "group": "control_change"}, {"time": 2074, "annotation": {"number": 64, "value": 0}, "group": "control_change"}, {"time": 2080, "annotation": {"number": 64, "value": 127}, "group": "control_change"}, {"time": 2120, "annotation": {"number": 64, "value": 0}, "group": "control_change"}, {"time": 2123, "annotation": {"number": 64, "value": 127}, "group": "control_change"}, {"time": 2168, "annotation": {"number": 64, "value": 0}, "group": "control_change"}, {"time": 2170, "annotation": {"number": 64, "value": 127}, "group": "control_change"}, {"time": 2217, "annotation": {"number": 64, "value": 0}, "group": "control_change"}, {"time": 2219, "annotation": {"number": 64, "value": 127}, "group": "control_change"}, {"time": 2261, "annotation": {"number": 64, "value": 0}, "group": "control_change"}, {"time": 2269, "annotation": {"number": 64, "value": 127}, "group": "control_change"}, {"time": 2269, "annotation": {"number": 64, "value": 0}, "group": "control_change"}, {"time": 2314, "annotation": {"number": 64, "value": 0}, "group": "control_change"}, {"time": 2321, "annotation": {"number": 64, "value": 127}, "group": "control_change"}, {"time": 2362, "annotation": {"number": 64, "value": 0}, "group": "control_change"}, {"time": 2366, "annotation": {"number": 64, "value": 127}, "group": "control_change"}, {"time": 2411, "annotation": {"number": 64, "value": 0}, "group": "control_change"}, {"time": 2413, "annotation": {"number": 64, "value": 127}, "group": "control_change"}, {"time": 2413, "annotation": {"number": 64, "value": 0}, "group": "control_change"}, {"time": 2457, "annotation": {"number": 64, "value": 0}, "group": "control_change"}, {"time": 2466, "annotation": {"number": 64, "value": 127}, "group": "control_change"}, {"time": 2505, "annotation": {"number": 64, "value": 127}, "group": "control_change"}, {"time": 2505, "annotation": {"number": 64, "value": 0}, "group": "control_change"}, {"time": 2529, "annotation": {"number": 64, "value": 0}, "group": "control_change"}, {"time": 2535, "annotation": {"number": 64, "value": 127}, "group": "control_change"}, {"time": 2552, "annotation": {"number": 64, "value": 0}, "group": "control_change"}, {"time": 2556, "annotation": {"number": 64, "value": 127}, "group": "control_change"}, {"time": 2601, "annotation": {"number": 64, "value": 0}, "group": "control_change"}, {"time": 2608, "annotation": {"number": 64, "value": 127}, "group": "control_change"}, {"time": 2649, "annotation": {"number": 64, "value": 0}, "group": "control_change"}, {"time": 2656, "annotation": {"number": 64, "value": 127}, "group": "control_change"}, {"time": 2656, "annotation": {"number": 64, "value": 0}, "group": "control_change"}, {"time": 2697, "annotation": {"number": 64, "value": 0}, "group": "control_change"}, {"time": 2705, "annotation": {"number": 64, "value": 127}, "group": "control_change"}, {"time": 2745, "annotation": {"number": 64, "value": 0}, "group": "control_change"}, {"time": 2750, "annotation": {"number": 64, "value": 127}, "group": "control_change"}, {"time": 2792, "annotation": {"number": 64, "value": 0}, "group": "control_change"}, {"time": 2794, "annotation": {"number": 64, "value": 127}, "group": "control_change"}, {"time": 2817, "annotation": {"number": 64, "value": 0}, "group": "control_change"}, {"time": 2819, "annotation": {"number": 64, "value": 127}, "group": "control_change"}, {"time": 2841, "annotation": {"number": 64, "value": 0}, "group": "control_change"}, {"time": 2844, "annotation": {"number": 64, "value": 127}, "group": "control_change"}, {"time": 2888, "annotation": {"number": 64, "value": 0}, "group": "control_change"}, {"time": 2891, "annotation": {"number": 64, "value": 127}, "group": "control_change"}, {"time": 2936, "annotation": {"number": 64, "value": 0}, "group": "control_change"}, {"time": 2939, "annotation": {"number": 64, "value": 127}, "group": "control_change"}, {"time": 2963, "annotation": {"number": 64, "value": 0}, "group": "control_change"}, {"time": 2970, "annotation": {"number": 64, "value": 127}, "group": "control_change"}, {"time": 2986, "annotation": {"number": 64, "value": 0}, "group": "control_change"}, {"time": 2990, "annotation": {"number": 64, "value": 127}, "group": "control_change"}, {"time": 3033, "annotation": {"number": 64, "value": 0}, "group": "control_change"}, {"time": 3035, "annotation": {"number": 64, "value": 127}, "group": "control_change"}, {"time": 3056, "annotation": {"number": 64, "value": 0}, "group": "control_change"}, {"time": 3058, "annotation": {"number": 64, "value": 127}, "group": "control_change"}, {"time": 3080, "annotation": {"number": 64, "value": 0}, "group": "control_change"}, {"time": 3083, "annotation": {"number": 64, "value": 127}, "group": "control_change"}, {"time": 3128, "annotation": {"number": 64, "value": 0}, "group": "control_change"}, {"time": 3132, "annotation": {"number": 64, "value": 127}, "group": "control_change"}, {"time": 3177, "annotation": {"number": 64, "value": 0}, "group": "control_change"}, {"time": 3181, "annotation": {"number": 64, "value": 127}, "group": "control_change"}, {"time": 3225, "annotation": {"number": 64, "value": 0}, "group": "control_change"}, {"time": 3229, "annotation": {"number": 64, "value": 127}, "group": "control_change"}, {"time": 3273, "annotation": {"number": 64, "value": 0}, "group": "control_change"}, {"time": 3276, "annotation": {"number": 64, "value": 127}, "group": "control_change"}, {"time": 3321, "annotation": {"number": 64, "value": 0}, "group": "control_change"}, {"time": 3323, "annotation": {"number": 64, "value": 127}, "group": "control_change"}, {"time": 3367, "annotation": {"number": 64, "value": 0}, "group": "control_change"}, {"time": 3370, "annotation": {"number": 64, "value": 127}, "group": "control_change"}, {"time": 3417, "annotation": {"number": 64, "value": 0}, "group": "control_change"}, {"time": 3419, "annotation": {"number": 64, "value": 127}, "group": "control_change"}, {"time": 3442, "annotation": {"number": 64, "value": 0}, "group": "control_change"}, {"time": 3444, "annotation": {"number": 64, "value": 127}, "group": "control_change"}, {"time": 3464, "annotation": {"number": 64, "value": 0}, "group": "control_change"}, {"time": 3469, "annotation": {"number": 64, "value": 127}, "group": "control_change"}, {"time": 3513, "annotation": {"number": 64, "value": 0}, "group": "control_change"}, {"time": 3517, "annotation": {"number": 64, "value": 127}, "group": "control_change"}, {"time": 3562, "annotation": {"number": 64, "value": 0}, "group": "control_change"}, {"time": 3565, "annotation": {"number": 64, "value": 127}, "group": "control_change"}, {"time": 3610, "annotation": {"number": 64, "value": 0}, "group": "control_change"}, {"time": 3613, "annotation": {"number": 64, "value": 127}, "group": "control_change"}, {"time": 3657, "annotation": {"number": 64, "value": 0}, "group": "control_change"}, {"time": 3660, "annotation": {"number": 64, "value": 127}, "group": "control_change"}, {"time": 3706, "annotation": {"number": 64, "value": 0}, "group": "control_change"}, {"time": 3711, "annotation": {"number": 64, "value": 127}, "group": "control_change"}, {"time": 3752, "annotation": {"number": 64, "value": 0}, "group": "control_change"}, {"time": 3755, "annotation": {"number": 64, "value": 127}, "group": "control_change"}, {"time": 3800, "annotation": {"number": 64, "value": 0}, "group": "control_change"}, {"time": 3804, "annotation": {"number": 64, "value": 127}, "group": "control_change"}, {"time": 3849, "annotation": {"number": 64, "value": 0}, "group": "control_change"}, {"time": 3853, "annotation": {"number": 64, "value": 127}, "group": "control_change"}, {"time": 3897, "annotation": {"number": 64, "value": 0}, "group": "control_change"}, {"time": 3901, "annotation": {"number": 64, "value": 127}, "group": "control_change"}, {"time": 3945, "annotation": {"number": 64, "value": 0}, "group": "control_change"}, {"time": 3948, "annotation": {"number": 64, "value": 127}, "group": "control_change"}, {"time": 3993, "annotation": {"number": 64, "value": 0}, "group": "control_change"}, {"time": 3995, "annotation": {"number": 64, "value": 127}, "group": "control_change"}, {"time": 4039, "annotation": {"number": 64, "value": 0}, "group": "control_change"}, {"time": 4042, "annotation": {"number": 64, "value": 127}, "group": "control_change"}, {"time": 4089, "annotation": {"number": 64, "value": 0}, "group": "control_change"}, {"time": 4091, "annotation": {"number": 64, "value": 127}, "group": "control_change"}, {"time": 4114, "annotation": {"number": 64, "value": 0}, "group": "control_change"}, {"time": 4116, "annotation": {"number": 64, "value": 127}, "group": "control_change"}, {"time": 4136, "annotation": {"number": 64, "value": 0}, "group": "control_change"}, {"time": 4139, "annotation": {"number": 64, "value": 127}, "group": "control_change"}, {"time": 4184, "annotation": {"number": 64, "value": 0}, "group": "control_change"}, {"time": 4188, "annotation": {"number": 64, "value": 127}, "group": "control_change"}, {"time": 4233, "annotation": {"number": 64, "value": 0}, "group": "control_change"}, {"time": 4237, "annotation": {"number": 64, "value": 127}, "group": "control_change"}, {"time": 4281, "annotation": {"number": 64, "value": 0}, "group": "control_change"}, {"time": 4285, "annotation": {"number": 64, "value": 127}, "group": "control_change"}, {"time": 4329, "annotation": {"number": 64, "value": 0}, "group": "control_change"}, {"time": 4332, "annotation": {"number": 64, "value": 127}, "group": "control_change"}, {"time": 4377, "annotation": {"number": 64, "value": 0}, "group": "control_change"}, {"time": 4379, "annotation": {"number": 64, "value": 127}, "group": "control_change"}, {"time": 4423, "annotation": {"number": 64, "value": 0}, "group": "control_change"}, {"time": 4426, "annotation": {"number": 64, "value": 127}, "group": "control_change"}, {"time": 4430, "annotation": {"number": 64, "value": 127}, "group": "control_change"}, {"time": 4467, "annotation": {"number": 64, "value": 0}, "group": "control_change"}, {"time": 4476, "annotation": {"number": 64, "value": 127}, "group": "control_change"}, {"time": 4476, "annotation": {"number": 64, "value": 0}, "group": "control_change"}, {"time": 4512, "annotation": {"number": 64, "value": 127}, "group": "control_change"}, {"time": 4512, "annotation": {"number": 64, "value": 0}, "group": "control_change"}, {"time": 4522, "annotation": {"number": 64, "value": 0}, "group": "control_change"}, {"time": 4527, "annotation": {"number": 64, "value": 0}, "group": "control_change"}, {"time": 4534, "annotation": {"number": 64, "value": 127}, "group": "control_change"}, {"time": 4570, "annotation": {"number": 64, "value": 0}, "group": "control_change"}, {"time": 4575, "annotation": {"number": 64, "value": 127}, "group": "control_change"}, {"time": 4617, "annotation": {"number": 64, "value": 0}, "group": "control_change"}, {"time": 4620, "annotation": {"number": 64, "value": 127}, "group": "control_change"}, {"time": 4665, "annotation": {"number": 64, "value": 0}, "group": "control_change"}, {"time": 4670, "annotation": {"number": 64, "value": 127}, "group": "control_change"}, {"time": 4714, "annotation": {"number": 64, "value": 0}, "group": "control_change"}, {"time": 4714, "annotation": {"number": 64, "value": 127}, "group": "control_change"}]}]}