{"metadata": {"schema_version": "0.2", "title": "None", "source_filename": "711.mid", "source_format": "midi"}, "resolution": 12, "tempos": [{"time": 0, "qpm": 89.00004005001803}], "time_signatures": [{"time": 0, "numerator": 1, "denominator": 4}], "tracks": [{"program": 4, "is_drum": false, "name": "MELODY", "notes": [{"time": 399, "pitch": 66, "duration": 4, "velocity": 86}, {"time": 405, "pitch": 66, "duration": 10, "velocity": 85}, {"time": 417, "pitch": 68, "duration": 4, "velocity": 86}, {"time": 423, "pitch": 71, "duration": 4, "velocity": 84}, {"time": 429, "pitch": 70, "duration": 4, "velocity": 80}, {"time": 435, "pitch": 68, "duration": 5, "velocity": 85}, {"time": 441, "pitch": 66, "duration": 5, "velocity": 76}, {"time": 447, "pitch": 68, "duration": 37, "velocity": 81}, {"time": 495, "pitch": 66, "duration": 4, "velocity": 77}, {"time": 501, "pitch": 66, "duration": 9, "velocity": 81}, {"time": 513, "pitch": 68, "duration": 4, "velocity": 79}, {"time": 519, "pitch": 71, "duration": 4, "velocity": 80}, {"time": 525, "pitch": 70, "duration": 4, "velocity": 81}, {"time": 531, "pitch": 68, "duration": 4, "velocity": 81}, {"time": 537, "pitch": 66, "duration": 5, "velocity": 80}, {"time": 543, "pitch": 63, "duration": 36, "velocity": 81}, {"time": 591, "pitch": 61, "duration": 4, "velocity": 78}, {"time": 597, "pitch": 61, "duration": 10, "velocity": 82}, {"time": 609, "pitch": 63, "duration": 4, "velocity": 82}, {"time": 615, "pitch": 66, "duration": 10, "velocity": 78}, {"time": 627, "pitch": 63, "duration": 4, "velocity": 77}, {"time": 633, "pitch": 66, "duration": 4, "velocity": 79}, {"time": 639, "pitch": 68, "duration": 8, "velocity": 81}, {"time": 651, "pitch": 63, "duration": 4, "velocity": 81}, {"time": 657, "pitch": 61, "duration": 5, "velocity": 77}, {"time": 663, "pitch": 59, "duration": 19, "velocity": 82}, {"time": 687, "pitch": 68, "duration": 4, "velocity": 82}, {"time": 693, "pitch": 68, "duration": 11, "velocity": 81}, {"time": 705, "pitch": 66, "duration": 4, "velocity": 81}, {"time": 711, "pitch": 68, "duration": 4, "velocity": 85}, {"time": 717, "pitch": 66, "duration": 4, "velocity": 81}, {"time": 723, "pitch": 63, "duration": 4, "velocity": 82}, {"time": 729, "pitch": 68, "duration": 4, "velocity": 79}, {"time": 735, "pitch": 66, "duration": 34, "velocity": 81}, {"time": 783, "pitch": 66, "duration": 4, "velocity": 86}, {"time": 789, "pitch": 66, "duration": 10, "velocity": 85}, {"time": 801, "pitch": 68, "duration": 4, "velocity": 86}, {"time": 807, "pitch": 71, "duration": 4, "velocity": 84}, {"time": 813, "pitch": 70, "duration": 4, "velocity": 80}, {"time": 819, "pitch": 68, "duration": 5, "velocity": 85}, {"time": 825, "pitch": 66, "duration": 5, "velocity": 76}, {"time": 831, "pitch": 68, "duration": 37, "velocity": 81}, {"time": 879, "pitch": 66, "duration": 4, "velocity": 77}, {"time": 885, "pitch": 66, "duration": 9, "velocity": 81}, {"time": 897, "pitch": 68, "duration": 4, "velocity": 79}, {"time": 903, "pitch": 71, "duration": 4, "velocity": 80}, {"time": 909, "pitch": 70, "duration": 4, "velocity": 81}, {"time": 915, "pitch": 68, "duration": 4, "velocity": 81}, {"time": 921, "pitch": 66, "duration": 5, "velocity": 80}, {"time": 927, "pitch": 63, "duration": 36, "velocity": 81}, {"time": 975, "pitch": 61, "duration": 4, "velocity": 78}, {"time": 981, "pitch": 61, "duration": 10, "velocity": 82}, {"time": 993, "pitch": 63, "duration": 4, "velocity": 82}, {"time": 999, "pitch": 66, "duration": 10, "velocity": 78}, {"time": 1011, "pitch": 63, "duration": 4, "velocity": 77}, {"time": 1017, "pitch": 66, "duration": 4, "velocity": 79}, {"time": 1023, "pitch": 68, "duration": 8, "velocity": 81}, {"time": 1035, "pitch": 63, "duration": 4, "velocity": 81}, {"time": 1041, "pitch": 61, "duration": 5, "velocity": 77}, {"time": 1047, "pitch": 59, "duration": 19, "velocity": 82}, {"time": 1071, "pitch": 68, "duration": 4, "velocity": 82}, {"time": 1077, "pitch": 68, "duration": 6, "velocity": 81}, {"time": 1083, "pitch": 68, "duration": 6, "velocity": 81}, {"time": 1089, "pitch": 66, "duration": 4, "velocity": 81}, {"time": 1095, "pitch": 68, "duration": 4, "velocity": 85}, {"time": 1101, "pitch": 66, "duration": 4, "velocity": 81}, {"time": 1107, "pitch": 61, "duration": 4, "velocity": 82}, {"time": 1113, "pitch": 63, "duration": 4, "velocity": 79}, {"time": 1119, "pitch": 59, "duration": 34, "velocity": 81}, {"time": 1155, "pitch": 71, "duration": 4, "velocity": 77}, {"time": 1161, "pitch": 73, "duration": 4, "velocity": 84}, {"time": 1167, "pitch": 75, "duration": 3, "velocity": 83}, {"time": 1173, "pitch": 75, "duration": 11, "velocity": 84}, {"time": 1185, "pitch": 73, "duration": 5, "velocity": 86}, {"time": 1191, "pitch": 71, "duration": 6, "velocity": 81}, {"time": 1197, "pitch": 75, "duration": 6, "velocity": 70}, {"time": 1203, "pitch": 73, "duration": 6, "velocity": 83}, {"time": 1209, "pitch": 71, "duration": 7, "velocity": 81}, {"time": 1215, "pitch": 68, "duration": 32, "velocity": 79}, {"time": 1251, "pitch": 68, "duration": 5, "velocity": 83}, {"time": 1257, "pitch": 71, "duration": 4, "velocity": 82}, {"time": 1263, "pitch": 73, "duration": 4, "velocity": 82}, {"time": 1269, "pitch": 73, "duration": 11, "velocity": 86}, {"time": 1281, "pitch": 71, "duration": 4, "velocity": 82}, {"time": 1287, "pitch": 68, "duration": 6, "velocity": 81}, {"time": 1293, "pitch": 73, "duration": 5, "velocity": 83}, {"time": 1299, "pitch": 71, "duration": 6, "velocity": 82}, {"time": 1305, "pitch": 68, "duration": 6, "velocity": 81}, {"time": 1311, "pitch": 66, "duration": 31, "velocity": 80}, {"time": 1347, "pitch": 61, "duration": 5, "velocity": 82}, {"time": 1353, "pitch": 63, "duration": 6, "velocity": 82}, {"time": 1359, "pitch": 66, "duration": 4, "velocity": 76}, {"time": 1365, "pitch": 66, "duration": 11, "velocity": 81}, {"time": 1377, "pitch": 63, "duration": 7, "velocity": 84}, {"time": 1383, "pitch": 66, "duration": 4, "velocity": 81}, {"time": 1389, "pitch": 66, "duration": 5, "velocity": 80}, {"time": 1401, "pitch": 68, "duration": 6, "velocity": 79}, {"time": 1407, "pitch": 71, "duration": 19, "velocity": 82}, {"time": 1425, "pitch": 70, "duration": 6, "velocity": 76}, {"time": 1431, "pitch": 68, "duration": 10, "velocity": 85}, {"time": 1443, "pitch": 68, "duration": 5, "velocity": 84}, {"time": 1449, "pitch": 75, "duration": 6, "velocity": 83}, {"time": 1455, "pitch": 73, "duration": 6, "velocity": 87}, {"time": 1461, "pitch": 75, "duration": 6, "velocity": 83}, {"time": 1467, "pitch": 73, "duration": 6, "velocity": 87}, {"time": 1473, "pitch": 71, "duration": 6, "velocity": 82}, {"time": 1479, "pitch": 68, "duration": 12, "velocity": 78}, {"time": 1491, "pitch": 66, "duration": 6, "velocity": 77}, {"time": 1497, "pitch": 68, "duration": 6, "velocity": 80}, {"time": 1503, "pitch": 71, "duration": 46, "velocity": 79}, {"time": 1935, "pitch": 66, "duration": 4, "velocity": 86}, {"time": 1941, "pitch": 66, "duration": 10, "velocity": 85}, {"time": 1953, "pitch": 68, "duration": 4, "velocity": 86}, {"time": 1959, "pitch": 71, "duration": 4, "velocity": 84}, {"time": 1965, "pitch": 70, "duration": 4, "velocity": 80}, {"time": 1971, "pitch": 68, "duration": 5, "velocity": 85}, {"time": 1977, "pitch": 66, "duration": 5, "velocity": 76}, {"time": 1983, "pitch": 68, "duration": 37, "velocity": 81}, {"time": 2031, "pitch": 66, "duration": 4, "velocity": 77}, {"time": 2037, "pitch": 66, "duration": 9, "velocity": 81}, {"time": 2049, "pitch": 68, "duration": 4, "velocity": 79}, {"time": 2055, "pitch": 71, "duration": 4, "velocity": 80}, {"time": 2061, "pitch": 70, "duration": 4, "velocity": 81}, {"time": 2067, "pitch": 68, "duration": 4, "velocity": 81}, {"time": 2073, "pitch": 66, "duration": 5, "velocity": 80}, {"time": 2079, "pitch": 63, "duration": 36, "velocity": 81}, {"time": 2127, "pitch": 61, "duration": 4, "velocity": 78}, {"time": 2133, "pitch": 61, "duration": 10, "velocity": 82}, {"time": 2145, "pitch": 63, "duration": 4, "velocity": 82}, {"time": 2151, "pitch": 66, "duration": 10, "velocity": 78}, {"time": 2163, "pitch": 63, "duration": 4, "velocity": 77}, {"time": 2169, "pitch": 66, "duration": 4, "velocity": 79}, {"time": 2175, "pitch": 68, "duration": 8, "velocity": 81}, {"time": 2187, "pitch": 63, "duration": 4, "velocity": 81}, {"time": 2193, "pitch": 61, "duration": 5, "velocity": 77}, {"time": 2199, "pitch": 59, "duration": 19, "velocity": 82}, {"time": 2223, "pitch": 68, "duration": 4, "velocity": 82}, {"time": 2229, "pitch": 68, "duration": 6, "velocity": 81}, {"time": 2235, "pitch": 68, "duration": 6, "velocity": 81}, {"time": 2241, "pitch": 66, "duration": 4, "velocity": 81}, {"time": 2247, "pitch": 68, "duration": 4, "velocity": 85}, {"time": 2253, "pitch": 66, "duration": 4, "velocity": 81}, {"time": 2259, "pitch": 61, "duration": 4, "velocity": 82}, {"time": 2265, "pitch": 63, "duration": 4, "velocity": 79}, {"time": 2271, "pitch": 59, "duration": 34, "velocity": 81}, {"time": 2307, "pitch": 71, "duration": 4, "velocity": 77}, {"time": 2313, "pitch": 73, "duration": 4, "velocity": 84}, {"time": 2319, "pitch": 75, "duration": 3, "velocity": 83}, {"time": 2325, "pitch": 75, "duration": 11, "velocity": 84}, {"time": 2337, "pitch": 73, "duration": 5, "velocity": 86}, {"time": 2343, "pitch": 71, "duration": 6, "velocity": 81}, {"time": 2349, "pitch": 75, "duration": 6, "velocity": 70}, {"time": 2355, "pitch": 73, "duration": 6, "velocity": 83}, {"time": 2361, "pitch": 71, "duration": 7, "velocity": 81}, {"time": 2367, "pitch": 68, "duration": 32, "velocity": 79}, {"time": 2403, "pitch": 68, "duration": 5, "velocity": 83}, {"time": 2409, "pitch": 71, "duration": 4, "velocity": 82}, {"time": 2415, "pitch": 73, "duration": 4, "velocity": 82}, {"time": 2421, "pitch": 73, "duration": 11, "velocity": 86}, {"time": 2433, "pitch": 71, "duration": 4, "velocity": 82}, {"time": 2439, "pitch": 68, "duration": 6, "velocity": 81}, {"time": 2445, "pitch": 73, "duration": 5, "velocity": 83}, {"time": 2451, "pitch": 71, "duration": 6, "velocity": 82}, {"time": 2457, "pitch": 68, "duration": 6, "velocity": 81}, {"time": 2463, "pitch": 66, "duration": 31, "velocity": 80}, {"time": 2499, "pitch": 61, "duration": 5, "velocity": 82}, {"time": 2505, "pitch": 63, "duration": 6, "velocity": 82}, {"time": 2511, "pitch": 66, "duration": 4, "velocity": 76}, {"time": 2517, "pitch": 66, "duration": 11, "velocity": 81}, {"time": 2529, "pitch": 63, "duration": 7, "velocity": 84}, {"time": 2535, "pitch": 66, "duration": 4, "velocity": 81}, {"time": 2541, "pitch": 66, "duration": 5, "velocity": 80}, {"time": 2553, "pitch": 68, "duration": 6, "velocity": 79}, {"time": 2559, "pitch": 71, "duration": 19, "velocity": 82}, {"time": 2577, "pitch": 70, "duration": 6, "velocity": 76}, {"time": 2583, "pitch": 68, "duration": 10, "velocity": 85}, {"time": 2595, "pitch": 68, "duration": 5, "velocity": 84}, {"time": 2601, "pitch": 75, "duration": 6, "velocity": 83}, {"time": 2607, "pitch": 73, "duration": 6, "velocity": 87}, {"time": 2613, "pitch": 75, "duration": 6, "velocity": 83}, {"time": 2619, "pitch": 73, "duration": 6, "velocity": 87}, {"time": 2625, "pitch": 71, "duration": 6, "velocity": 82}, {"time": 2631, "pitch": 68, "duration": 12, "velocity": 78}, {"time": 2643, "pitch": 66, "duration": 6, "velocity": 77}, {"time": 2649, "pitch": 68, "duration": 6, "velocity": 80}, {"time": 2655, "pitch": 71, "duration": 36, "velocity": 79}, {"time": 2691, "pitch": 71, "duration": 4, "velocity": 77}, {"time": 2697, "pitch": 73, "duration": 4, "velocity": 84}, {"time": 2703, "pitch": 75, "duration": 3, "velocity": 83}, {"time": 2709, "pitch": 75, "duration": 11, "velocity": 84}, {"time": 2721, "pitch": 73, "duration": 5, "velocity": 86}, {"time": 2727, "pitch": 71, "duration": 6, "velocity": 81}, {"time": 2733, "pitch": 75, "duration": 6, "velocity": 70}, {"time": 2739, "pitch": 73, "duration": 6, "velocity": 83}, {"time": 2745, "pitch": 71, "duration": 7, "velocity": 81}, {"time": 2751, "pitch": 68, "duration": 32, "velocity": 79}, {"time": 2787, "pitch": 68, "duration": 5, "velocity": 83}, {"time": 2793, "pitch": 71, "duration": 4, "velocity": 82}, {"time": 2799, "pitch": 73, "duration": 4, "velocity": 82}, {"time": 2805, "pitch": 73, "duration": 11, "velocity": 86}, {"time": 2817, "pitch": 71, "duration": 4, "velocity": 82}, {"time": 2823, "pitch": 68, "duration": 6, "velocity": 81}, {"time": 2829, "pitch": 73, "duration": 5, "velocity": 83}, {"time": 2835, "pitch": 71, "duration": 6, "velocity": 82}, {"time": 2841, "pitch": 68, "duration": 6, "velocity": 81}, {"time": 2847, "pitch": 66, "duration": 31, "velocity": 80}, {"time": 2883, "pitch": 61, "duration": 5, "velocity": 82}, {"time": 2889, "pitch": 63, "duration": 6, "velocity": 82}, {"time": 2895, "pitch": 66, "duration": 4, "velocity": 76}, {"time": 2901, "pitch": 66, "duration": 11, "velocity": 81}, {"time": 2913, "pitch": 63, "duration": 7, "velocity": 84}, {"time": 2919, "pitch": 66, "duration": 4, "velocity": 81}, {"time": 2925, "pitch": 66, "duration": 5, "velocity": 80}, {"time": 2937, "pitch": 68, "duration": 6, "velocity": 79}, {"time": 2943, "pitch": 71, "duration": 19, "velocity": 82}, {"time": 2961, "pitch": 70, "duration": 6, "velocity": 76}, {"time": 2967, "pitch": 68, "duration": 10, "velocity": 85}, {"time": 2979, "pitch": 68, "duration": 5, "velocity": 84}, {"time": 2985, "pitch": 75, "duration": 6, "velocity": 83}, {"time": 2991, "pitch": 73, "duration": 6, "velocity": 87}, {"time": 2997, "pitch": 75, "duration": 6, "velocity": 83}, {"time": 3003, "pitch": 73, "duration": 6, "velocity": 87}, {"time": 3009, "pitch": 71, "duration": 6, "velocity": 82}, {"time": 3015, "pitch": 68, "duration": 12, "velocity": 78}, {"time": 3027, "pitch": 66, "duration": 6, "velocity": 77}, {"time": 3033, "pitch": 68, "duration": 6, "velocity": 80}, {"time": 3039, "pitch": 71, "duration": 46, "velocity": 79}, {"time": 3087, "pitch": 75, "duration": 10, "velocity": 86}, {"time": 3099, "pitch": 75, "duration": 10, "velocity": 85}, {"time": 3111, "pitch": 75, "duration": 9, "velocity": 83}, {"time": 3123, "pitch": 75, "duration": 5, "velocity": 85}, {"time": 3129, "pitch": 73, "duration": 2, "velocity": 86}, {"time": 3132, "pitch": 71, "duration": 2, "velocity": 76}, {"time": 3135, "pitch": 73, "duration": 42, "velocity": 88}, {"time": 3183, "pitch": 73, "duration": 9, "velocity": 88}, {"time": 3195, "pitch": 73, "duration": 10, "velocity": 84}, {"time": 3207, "pitch": 73, "duration": 9, "velocity": 90}, {"time": 3219, "pitch": 73, "duration": 4, "velocity": 88}, {"time": 3225, "pitch": 71, "duration": 2, "velocity": 82}, {"time": 3228, "pitch": 68, "duration": 2, "velocity": 76}, {"time": 3231, "pitch": 66, "duration": 43, "velocity": 73}, {"time": 3279, "pitch": 75, "duration": 9, "velocity": 85}, {"time": 3291, "pitch": 75, "duration": 9, "velocity": 84}, {"time": 3303, "pitch": 75, "duration": 9, "velocity": 82}, {"time": 3315, "pitch": 73, "duration": 3, "velocity": 84}, {"time": 3318, "pitch": 75, "duration": 3, "velocity": 78}, {"time": 3321, "pitch": 73, "duration": 2, "velocity": 83}, {"time": 3324, "pitch": 71, "duration": 2, "velocity": 76}, {"time": 3327, "pitch": 73, "duration": 42, "velocity": 81}, {"time": 3375, "pitch": 73, "duration": 9, "velocity": 87}, {"time": 3387, "pitch": 73, "duration": 10, "velocity": 88}, {"time": 3399, "pitch": 73, "duration": 9, "velocity": 88}, {"time": 3411, "pitch": 71, "duration": 3, "velocity": 82}, {"time": 3414, "pitch": 73, "duration": 3, "velocity": 81}, {"time": 3417, "pitch": 71, "duration": 2, "velocity": 82}, {"time": 3420, "pitch": 68, "duration": 2, "velocity": 81}, {"time": 3423, "pitch": 71, "duration": 46, "velocity": 83}]}, {"program": 0, "is_drum": false, "name": "PIANO", "notes": [{"time": 15, "pitch": 47, "duration": 44, "velocity": 84}, {"time": 15, "pitch": 54, "duration": 3, "velocity": 76}, {"time": 15, "pitch": 59, "duration": 9, "velocity": 78}, {"time": 21, "pitch": 54, "duration": 6, "velocity": 79}, {"time": 27, "pitch": 61, "duration": 5, "velocity": 84}, {"time": 33, "pitch": 54, "duration": 3, "velocity": 81}, {"time": 39, "pitch": 54, "duration": 2, "velocity": 83}, {"time": 39, "pitch": 63, "duration": 9, "velocity": 83}, {"time": 45, "pitch": 54, "duration": 3, "velocity": 76}, {"time": 51, "pitch": 54, "duration": 5, "velocity": 81}, {"time": 51, "pitch": 63, "duration": 6, "velocity": 82}, {"time": 57, "pitch": 59, "duration": 5, "velocity": 75}, {"time": 63, "pitch": 44, "duration": 41, "velocity": 81}, {"time": 63, "pitch": 56, "duration": 8, "velocity": 75}, {"time": 69, "pitch": 51, "duration": 8, "velocity": 69}, {"time": 75, "pitch": 56, "duration": 7, "velocity": 78}, {"time": 75, "pitch": 63, "duration": 7, "velocity": 82}, {"time": 81, "pitch": 51, "duration": 8, "velocity": 74}, {"time": 87, "pitch": 59, "duration": 8, "velocity": 82}, {"time": 87, "pitch": 63, "duration": 7, "velocity": 82}, {"time": 93, "pitch": 51, "duration": 10, "velocity": 80}, {"time": 99, "pitch": 59, "duration": 3, "velocity": 77}, {"time": 99, "pitch": 63, "duration": 4, "velocity": 85}, {"time": 105, "pitch": 59, "duration": 6, "velocity": 82}, {"time": 111, "pitch": 37, "duration": 39, "velocity": 83}, {"time": 111, "pitch": 61, "duration": 11, "velocity": 76}, {"time": 117, "pitch": 44, "duration": 18, "velocity": 72}, {"time": 123, "pitch": 56, "duration": 8, "velocity": 82}, {"time": 129, "pitch": 61, "duration": 3, "velocity": 77}, {"time": 135, "pitch": 56, "duration": 3, "velocity": 81}, {"time": 135, "pitch": 64, "duration": 5, "velocity": 79}, {"time": 141, "pitch": 44, "duration": 8, "velocity": 67}, {"time": 147, "pitch": 56, "duration": 2, "velocity": 77}, {"time": 147, "pitch": 61, "duration": 5, "velocity": 81}, {"time": 153, "pitch": 56, "duration": 1, "velocity": 69}, {"time": 159, "pitch": 42, "duration": 38, "velocity": 81}, {"time": 159, "pitch": 54, "duration": 8, "velocity": 80}, {"time": 159, "pitch": 61, "duration": 11, "velocity": 76}, {"time": 165, "pitch": 49, "duration": 21, "velocity": 78}, {"time": 171, "pitch": 54, "duration": 8, "velocity": 81}, {"time": 177, "pitch": 61, "duration": 3, "velocity": 82}, {"time": 183, "pitch": 54, "duration": 4, "velocity": 81}, {"time": 183, "pitch": 61, "duration": 6, "velocity": 84}, {"time": 183, "pitch": 66, "duration": 6, "velocity": 79}, {"time": 189, "pitch": 49, "duration": 8, "velocity": 81}, {"time": 195, "pitch": 54, "duration": 3, "velocity": 81}, {"time": 195, "pitch": 61, "duration": 4, "velocity": 78}, {"time": 207, "pitch": 39, "duration": 26, "velocity": 83}, {"time": 207, "pitch": 58, "duration": 7, "velocity": 78}, {"time": 207, "pitch": 63, "duration": 12, "velocity": 81}, {"time": 213, "pitch": 46, "duration": 19, "velocity": 72}, {"time": 219, "pitch": 58, "duration": 8, "velocity": 82}, {"time": 225, "pitch": 63, "duration": 3, "velocity": 81}, {"time": 231, "pitch": 58, "duration": 8, "velocity": 82}, {"time": 231, "pitch": 66, "duration": 9, "velocity": 80}, {"time": 237, "pitch": 46, "duration": 10, "velocity": 75}, {"time": 243, "pitch": 63, "duration": 6, "velocity": 86}, {"time": 249, "pitch": 58, "duration": 2, "velocity": 81}, {"time": 255, "pitch": 44, "duration": 27, "velocity": 82}, {"time": 255, "pitch": 56, "duration": 8, "velocity": 75}, {"time": 255, "pitch": 59, "duration": 13, "velocity": 67}, {"time": 261, "pitch": 51, "duration": 8, "velocity": 81}, {"time": 267, "pitch": 56, "duration": 7, "velocity": 81}, {"time": 273, "pitch": 51, "duration": 7, "velocity": 73}, {"time": 279, "pitch": 56, "duration": 8, "velocity": 81}, {"time": 279, "pitch": 63, "duration": 9, "velocity": 81}, {"time": 285, "pitch": 44, "duration": 5, "velocity": 46}, {"time": 285, "pitch": 51, "duration": 6, "velocity": 77}, {"time": 291, "pitch": 61, "duration": 6, "velocity": 84}, {"time": 297, "pitch": 59, "duration": 5, "velocity": 86}, {"time": 303, "pitch": 37, "duration": 2, "velocity": 82}, {"time": 303, "pitch": 61, "duration": 18, "velocity": 81}, {"time": 309, "pitch": 44, "duration": 12, "velocity": 76}, {"time": 315, "pitch": 52, "duration": 5, "velocity": 82}, {"time": 321, "pitch": 56, "duration": 7, "velocity": 81}, {"time": 327, "pitch": 42, "duration": 21, "velocity": 81}, {"time": 327, "pitch": 61, "duration": 12, "velocity": 78}, {"time": 333, "pitch": 49, "duration": 15, "velocity": 71}, {"time": 339, "pitch": 54, "duration": 7, "velocity": 84}, {"time": 345, "pitch": 61, "duration": 4, "velocity": 81}, {"time": 351, "pitch": 47, "duration": 20, "velocity": 84}, {"time": 351, "pitch": 59, "duration": 12, "velocity": 81}, {"time": 357, "pitch": 51, "duration": 14, "velocity": 79}, {"time": 363, "pitch": 61, "duration": 7, "velocity": 77}, {"time": 369, "pitch": 54, "duration": 4, "velocity": 77}, {"time": 375, "pitch": 47, "duration": 22, "velocity": 78}, {"time": 375, "pitch": 54, "duration": 3, "velocity": 81}, {"time": 375, "pitch": 63, "duration": 13, "velocity": 82}, {"time": 381, "pitch": 54, "duration": 7, "velocity": 74}, {"time": 387, "pitch": 59, "duration": 9, "velocity": 73}, {"time": 393, "pitch": 54, "duration": 5, "velocity": 77}, {"time": 399, "pitch": 47, "duration": 40, "velocity": 85}, {"time": 405, "pitch": 54, "duration": 8, "velocity": 76}, {"time": 411, "pitch": 59, "duration": 8, "velocity": 83}, {"time": 417, "pitch": 54, "duration": 8, "velocity": 73}, {"time": 423, "pitch": 59, "duration": 8, "velocity": 79}, {"time": 423, "pitch": 66, "duration": 9, "velocity": 76}, {"time": 429, "pitch": 54, "duration": 8, "velocity": 67}, {"time": 435, "pitch": 63, "duration": 2, "velocity": 84}, {"time": 441, "pitch": 61, "duration": 3, "velocity": 76}, {"time": 447, "pitch": 44, "duration": 40, "velocity": 81}, {"time": 447, "pitch": 63, "duration": 13, "velocity": 78}, {"time": 453, "pitch": 51, "duration": 7, "velocity": 73}, {"time": 459, "pitch": 56, "duration": 7, "velocity": 71}, {"time": 465, "pitch": 51, "duration": 8, "velocity": 68}, {"time": 471, "pitch": 59, "duration": 7, "velocity": 77}, {"time": 471, "pitch": 63, "duration": 10, "velocity": 82}, {"time": 477, "pitch": 51, "duration": 10, "velocity": 70}, {"time": 483, "pitch": 56, "duration": 6, "velocity": 76}, {"time": 483, "pitch": 61, "duration": 7, "velocity": 76}, {"time": 489, "pitch": 59, "duration": 4, "velocity": 78}, {"time": 495, "pitch": 47, "duration": 27, "velocity": 70}, {"time": 495, "pitch": 54, "duration": 3, "velocity": 76}, {"time": 495, "pitch": 63, "duration": 12, "velocity": 81}, {"time": 501, "pitch": 54, "duration": 7, "velocity": 80}, {"time": 507, "pitch": 59, "duration": 5, "velocity": 81}, {"time": 513, "pitch": 54, "duration": 3, "velocity": 70}, {"time": 519, "pitch": 54, "duration": 9, "velocity": 83}, {"time": 519, "pitch": 63, "duration": 7, "velocity": 82}, {"time": 525, "pitch": 47, "duration": 13, "velocity": 77}, {"time": 531, "pitch": 54, "duration": 3, "velocity": 77}, {"time": 531, "pitch": 59, "duration": 12, "velocity": 78}, {"time": 537, "pitch": 54, "duration": 5, "velocity": 74}, {"time": 543, "pitch": 39, "duration": 20, "velocity": 83}, {"time": 543, "pitch": 58, "duration": 8, "velocity": 77}, {"time": 543, "pitch": 66, "duration": 12, "velocity": 77}, {"time": 549, "pitch": 46, "duration": 11, "velocity": 68}, {"time": 555, "pitch": 63, "duration": 6, "velocity": 90}, {"time": 567, "pitch": 58, "duration": 2, "velocity": 81}, {"time": 567, "pitch": 63, "duration": 8, "velocity": 84}, {"time": 567, "pitch": 66, "duration": 8, "velocity": 78}, {"time": 573, "pitch": 58, "duration": 3, "velocity": 76}, {"time": 579, "pitch": 39, "duration": 2, "velocity": 82}, {"time": 579, "pitch": 58, "duration": 2, "velocity": 77}, {"time": 579, "pitch": 63, "duration": 7, "velocity": 81}, {"time": 585, "pitch": 58, "duration": 3, "velocity": 78}, {"time": 591, "pitch": 37, "duration": 21, "velocity": 83}, {"time": 591, "pitch": 56, "duration": 11, "velocity": 74}, {"time": 591, "pitch": 61, "duration": 12, "velocity": 76}, {"time": 597, "pitch": 44, "duration": 15, "velocity": 69}, {"time": 603, "pitch": 64, "duration": 7, "velocity": 84}, {"time": 609, "pitch": 56, "duration": 3, "velocity": 81}, {"time": 615, "pitch": 39, "duration": 21, "velocity": 83}, {"time": 615, "pitch": 58, "duration": 8, "velocity": 80}, {"time": 615, "pitch": 63, "duration": 8, "velocity": 82}, {"time": 621, "pitch": 46, "duration": 14, "velocity": 73}, {"time": 627, "pitch": 58, "duration": 2, "velocity": 79}, {"time": 627, "pitch": 63, "duration": 10, "velocity": 83}, {"time": 627, "pitch": 66, "duration": 8, "velocity": 77}, {"time": 633, "pitch": 58, "duration": 5, "velocity": 81}, {"time": 639, "pitch": 44, "duration": 21, "velocity": 82}, {"time": 639, "pitch": 56, "duration": 8, "velocity": 78}, {"time": 639, "pitch": 59, "duration": 9, "velocity": 80}, {"time": 645, "pitch": 51, "duration": 15, "velocity": 81}, {"time": 651, "pitch": 56, "duration": 7, "velocity": 86}, {"time": 657, "pitch": 59, "duration": 3, "velocity": 90}, {"time": 663, "pitch": 44, "duration": 16, "velocity": 80}, {"time": 663, "pitch": 56, "duration": 8, "velocity": 72}, {"time": 663, "pitch": 59, "duration": 6, "velocity": 77}, {"time": 663, "pitch": 63, "duration": 7, "velocity": 79}, {"time": 669, "pitch": 51, "duration": 9, "velocity": 80}, {"time": 675, "pitch": 56, "duration": 3, "velocity": 81}, {"time": 675, "pitch": 59, "duration": 6, "velocity": 83}, {"time": 681, "pitch": 56, "duration": 5, "velocity": 83}, {"time": 687, "pitch": 37, "duration": 21, "velocity": 82}, {"time": 687, "pitch": 61, "duration": 11, "velocity": 76}, {"time": 693, "pitch": 44, "duration": 15, "velocity": 71}, {"time": 699, "pitch": 56, "duration": 9, "velocity": 85}, {"time": 705, "pitch": 61, "duration": 4, "velocity": 81}, {"time": 711, "pitch": 37, "duration": 15, "velocity": 83}, {"time": 711, "pitch": 56, "duration": 4, "velocity": 74}, {"time": 711, "pitch": 64, "duration": 18, "velocity": 81}, {"time": 717, "pitch": 44, "duration": 8, "velocity": 70}, {"time": 723, "pitch": 56, "duration": 7, "velocity": 82}, {"time": 729, "pitch": 61, "duration": 3, "velocity": 81}, {"time": 735, "pitch": 42, "duration": 21, "velocity": 82}, {"time": 735, "pitch": 54, "duration": 12, "velocity": 77}, {"time": 735, "pitch": 61, "duration": 7, "velocity": 80}, {"time": 741, "pitch": 49, "duration": 14, "velocity": 78}, {"time": 747, "pitch": 61, "duration": 9, "velocity": 82}, {"time": 753, "pitch": 54, "duration": 3, "velocity": 24}, {"time": 759, "pitch": 42, "duration": 21, "velocity": 81}, {"time": 759, "pitch": 54, "duration": 2, "velocity": 84}, {"time": 759, "pitch": 61, "duration": 2, "velocity": 84}, {"time": 759, "pitch": 66, "duration": 3, "velocity": 81}, {"time": 765, "pitch": 68, "duration": 2, "velocity": 82}, {"time": 771, "pitch": 71, "duration": 4, "velocity": 81}, {"time": 777, "pitch": 73, "duration": 3, "velocity": 90}, {"time": 783, "pitch": 47, "duration": 40, "velocity": 85}, {"time": 789, "pitch": 54, "duration": 8, "velocity": 76}, {"time": 795, "pitch": 59, "duration": 8, "velocity": 83}, {"time": 801, "pitch": 54, "duration": 8, "velocity": 73}, {"time": 807, "pitch": 59, "duration": 8, "velocity": 79}, {"time": 807, "pitch": 66, "duration": 9, "velocity": 76}, {"time": 813, "pitch": 54, "duration": 8, "velocity": 67}, {"time": 819, "pitch": 63, "duration": 2, "velocity": 84}, {"time": 825, "pitch": 61, "duration": 3, "velocity": 76}, {"time": 831, "pitch": 44, "duration": 40, "velocity": 81}, {"time": 831, "pitch": 63, "duration": 13, "velocity": 78}, {"time": 837, "pitch": 51, "duration": 7, "velocity": 73}, {"time": 843, "pitch": 56, "duration": 7, "velocity": 71}, {"time": 849, "pitch": 51, "duration": 8, "velocity": 68}, {"time": 855, "pitch": 59, "duration": 7, "velocity": 77}, {"time": 855, "pitch": 63, "duration": 10, "velocity": 82}, {"time": 861, "pitch": 51, "duration": 10, "velocity": 70}, {"time": 867, "pitch": 56, "duration": 6, "velocity": 76}, {"time": 867, "pitch": 61, "duration": 7, "velocity": 76}, {"time": 873, "pitch": 59, "duration": 4, "velocity": 78}, {"time": 879, "pitch": 47, "duration": 27, "velocity": 70}, {"time": 879, "pitch": 54, "duration": 3, "velocity": 76}, {"time": 879, "pitch": 63, "duration": 12, "velocity": 81}, {"time": 885, "pitch": 54, "duration": 7, "velocity": 80}, {"time": 891, "pitch": 59, "duration": 5, "velocity": 81}, {"time": 897, "pitch": 54, "duration": 3, "velocity": 70}, {"time": 903, "pitch": 54, "duration": 9, "velocity": 83}, {"time": 903, "pitch": 63, "duration": 7, "velocity": 82}, {"time": 909, "pitch": 47, "duration": 13, "velocity": 77}, {"time": 915, "pitch": 54, "duration": 3, "velocity": 77}, {"time": 915, "pitch": 59, "duration": 12, "velocity": 78}, {"time": 921, "pitch": 54, "duration": 5, "velocity": 74}, {"time": 927, "pitch": 39, "duration": 20, "velocity": 83}, {"time": 927, "pitch": 58, "duration": 8, "velocity": 77}, {"time": 927, "pitch": 66, "duration": 12, "velocity": 77}, {"time": 933, "pitch": 46, "duration": 11, "velocity": 68}, {"time": 939, "pitch": 63, "duration": 6, "velocity": 90}, {"time": 945, "pitch": 58, "duration": 3, "velocity": 88}, {"time": 951, "pitch": 58, "duration": 2, "velocity": 81}, {"time": 951, "pitch": 63, "duration": 8, "velocity": 84}, {"time": 951, "pitch": 66, "duration": 8, "velocity": 78}, {"time": 957, "pitch": 58, "duration": 3, "velocity": 76}, {"time": 963, "pitch": 39, "duration": 2, "velocity": 82}, {"time": 963, "pitch": 58, "duration": 2, "velocity": 77}, {"time": 963, "pitch": 63, "duration": 7, "velocity": 81}, {"time": 969, "pitch": 58, "duration": 3, "velocity": 78}, {"time": 975, "pitch": 37, "duration": 21, "velocity": 83}, {"time": 975, "pitch": 56, "duration": 11, "velocity": 74}, {"time": 975, "pitch": 61, "duration": 12, "velocity": 76}, {"time": 981, "pitch": 44, "duration": 15, "velocity": 69}, {"time": 987, "pitch": 64, "duration": 7, "velocity": 84}, {"time": 993, "pitch": 56, "duration": 3, "velocity": 81}, {"time": 999, "pitch": 39, "duration": 21, "velocity": 83}, {"time": 999, "pitch": 58, "duration": 8, "velocity": 80}, {"time": 999, "pitch": 63, "duration": 8, "velocity": 82}, {"time": 1005, "pitch": 46, "duration": 14, "velocity": 73}, {"time": 1011, "pitch": 58, "duration": 2, "velocity": 79}, {"time": 1011, "pitch": 63, "duration": 10, "velocity": 83}, {"time": 1011, "pitch": 66, "duration": 8, "velocity": 77}, {"time": 1017, "pitch": 58, "duration": 5, "velocity": 81}, {"time": 1023, "pitch": 44, "duration": 21, "velocity": 82}, {"time": 1023, "pitch": 56, "duration": 8, "velocity": 78}, {"time": 1023, "pitch": 59, "duration": 9, "velocity": 80}, {"time": 1029, "pitch": 51, "duration": 15, "velocity": 81}, {"time": 1035, "pitch": 56, "duration": 7, "velocity": 86}, {"time": 1041, "pitch": 59, "duration": 3, "velocity": 90}, {"time": 1047, "pitch": 44, "duration": 16, "velocity": 80}, {"time": 1047, "pitch": 56, "duration": 8, "velocity": 72}, {"time": 1047, "pitch": 59, "duration": 6, "velocity": 77}, {"time": 1047, "pitch": 63, "duration": 7, "velocity": 79}, {"time": 1053, "pitch": 51, "duration": 9, "velocity": 80}, {"time": 1059, "pitch": 56, "duration": 3, "velocity": 81}, {"time": 1059, "pitch": 59, "duration": 6, "velocity": 83}, {"time": 1065, "pitch": 56, "duration": 5, "velocity": 83}, {"time": 1071, "pitch": 49, "duration": 13, "velocity": 81}, {"time": 1071, "pitch": 56, "duration": 3, "velocity": 74}, {"time": 1071, "pitch": 64, "duration": 12, "velocity": 77}, {"time": 1077, "pitch": 56, "duration": 8, "velocity": 82}, {"time": 1083, "pitch": 61, "duration": 6, "velocity": 87}, {"time": 1089, "pitch": 64, "duration": 2, "velocity": 86}, {"time": 1095, "pitch": 42, "duration": 21, "velocity": 75}, {"time": 1095, "pitch": 54, "duration": 8, "velocity": 74}, {"time": 1095, "pitch": 61, "duration": 11, "velocity": 81}, {"time": 1101, "pitch": 49, "duration": 14, "velocity": 77}, {"time": 1107, "pitch": 54, "duration": 7, "velocity": 73}, {"time": 1113, "pitch": 61, "duration": 5, "velocity": 81}, {"time": 1119, "pitch": 47, "duration": 49, "velocity": 83}, {"time": 1119, "pitch": 54, "duration": 7, "velocity": 72}, {"time": 1119, "pitch": 59, "duration": 13, "velocity": 77}, {"time": 1125, "pitch": 51, "duration": 43, "velocity": 71}, {"time": 1131, "pitch": 54, "duration": 7, "velocity": 82}, {"time": 1137, "pitch": 59, "duration": 4, "velocity": 84}, {"time": 1143, "pitch": 54, "duration": 7, "velocity": 82}, {"time": 1143, "pitch": 61, "duration": 7, "velocity": 83}, {"time": 1149, "pitch": 59, "duration": 3, "velocity": 86}, {"time": 1155, "pitch": 54, "duration": 13, "velocity": 83}, {"time": 1155, "pitch": 63, "duration": 13, "velocity": 85}, {"time": 1161, "pitch": 59, "duration": 6, "velocity": 70}, {"time": 1167, "pitch": 47, "duration": 1, "velocity": 87}, {"time": 1167, "pitch": 54, "duration": 1, "velocity": 82}, {"time": 1167, "pitch": 63, "duration": 1, "velocity": 82}, {"time": 1173, "pitch": 54, "duration": 4, "velocity": 78}, {"time": 1179, "pitch": 59, "duration": 3, "velocity": 86}, {"time": 1185, "pitch": 54, "duration": 3, "velocity": 84}, {"time": 1191, "pitch": 47, "duration": 10, "velocity": 86}, {"time": 1191, "pitch": 54, "duration": 2, "velocity": 77}, {"time": 1191, "pitch": 59, "duration": 7, "velocity": 81}, {"time": 1191, "pitch": 63, "duration": 7, "velocity": 82}, {"time": 1197, "pitch": 54, "duration": 4, "velocity": 80}, {"time": 1203, "pitch": 46, "duration": 5, "velocity": 84}, {"time": 1203, "pitch": 54, "duration": 1, "velocity": 70}, {"time": 1203, "pitch": 58, "duration": 8, "velocity": 82}, {"time": 1209, "pitch": 54, "duration": 2, "velocity": 77}, {"time": 1215, "pitch": 44, "duration": 18, "velocity": 82}, {"time": 1215, "pitch": 56, "duration": 6, "velocity": 76}, {"time": 1215, "pitch": 59, "duration": 5, "velocity": 81}, {"time": 1221, "pitch": 51, "duration": 8, "velocity": 77}, {"time": 1227, "pitch": 59, "duration": 4, "velocity": 81}, {"time": 1227, "pitch": 63, "duration": 4, "velocity": 85}, {"time": 1233, "pitch": 51, "duration": 10, "velocity": 77}, {"time": 1239, "pitch": 56, "duration": 8, "velocity": 82}, {"time": 1239, "pitch": 63, "duration": 7, "velocity": 83}, {"time": 1245, "pitch": 44, "duration": 12, "velocity": 70}, {"time": 1251, "pitch": 56, "duration": 2, "velocity": 80}, {"time": 1251, "pitch": 59, "duration": 3, "velocity": 80}, {"time": 1251, "pitch": 63, "duration": 6, "velocity": 83}, {"time": 1257, "pitch": 59, "duration": 4, "velocity": 81}, {"time": 1263, "pitch": 49, "duration": 13, "velocity": 81}, {"time": 1263, "pitch": 56, "duration": 3, "velocity": 76}, {"time": 1263, "pitch": 61, "duration": 6, "velocity": 77}, {"time": 1269, "pitch": 56, "duration": 3, "velocity": 82}, {"time": 1275, "pitch": 56, "duration": 3, "velocity": 79}, {"time": 1275, "pitch": 64, "duration": 10, "velocity": 81}, {"time": 1281, "pitch": 56, "duration": 5, "velocity": 79}, {"time": 1287, "pitch": 61, "duration": 6, "velocity": 84}, {"time": 1293, "pitch": 56, "duration": 3, "velocity": 73}, {"time": 1299, "pitch": 49, "duration": 2, "velocity": 82}, {"time": 1299, "pitch": 56, "duration": 2, "velocity": 76}, {"time": 1299, "pitch": 61, "duration": 6, "velocity": 81}, {"time": 1305, "pitch": 56, "duration": 2, "velocity": 81}, {"time": 1311, "pitch": 42, "duration": 18, "velocity": 82}, {"time": 1311, "pitch": 54, "duration": 7, "velocity": 79}, {"time": 1311, "pitch": 61, "duration": 7, "velocity": 76}, {"time": 1317, "pitch": 49, "duration": 9, "velocity": 80}, {"time": 1323, "pitch": 54, "duration": 3, "velocity": 80}, {"time": 1323, "pitch": 58, "duration": 4, "velocity": 82}, {"time": 1329, "pitch": 54, "duration": 3, "velocity": 80}, {"time": 1335, "pitch": 54, "duration": 8, "velocity": 83}, {"time": 1335, "pitch": 61, "duration": 4, "velocity": 76}, {"time": 1341, "pitch": 49, "duration": 8, "velocity": 78}, {"time": 1347, "pitch": 54, "duration": 2, "velocity": 81}, {"time": 1347, "pitch": 58, "duration": 6, "velocity": 86}, {"time": 1347, "pitch": 61, "duration": 7, "velocity": 82}, {"time": 1347, "pitch": 66, "duration": 6, "velocity": 77}, {"time": 1353, "pitch": 54, "duration": 3, "velocity": 84}, {"time": 1359, "pitch": 39, "duration": 20, "velocity": 84}, {"time": 1359, "pitch": 51, "duration": 8, "velocity": 82}, {"time": 1359, "pitch": 54, "duration": 7, "velocity": 81}, {"time": 1365, "pitch": 46, "duration": 14, "velocity": 77}, {"time": 1371, "pitch": 58, "duration": 9, "velocity": 83}, {"time": 1377, "pitch": 54, "duration": 3, "velocity": 81}, {"time": 1383, "pitch": 39, "duration": 15, "velocity": 82}, {"time": 1383, "pitch": 54, "duration": 5, "velocity": 77}, {"time": 1383, "pitch": 63, "duration": 7, "velocity": 87}, {"time": 1389, "pitch": 46, "duration": 7, "velocity": 78}, {"time": 1395, "pitch": 54, "duration": 3, "velocity": 81}, {"time": 1395, "pitch": 58, "duration": 3, "velocity": 83}, {"time": 1401, "pitch": 46, "duration": 2, "velocity": 82}, {"time": 1407, "pitch": 44, "duration": 19, "velocity": 82}, {"time": 1407, "pitch": 56, "duration": 7, "velocity": 74}, {"time": 1407, "pitch": 59, "duration": 7, "velocity": 76}, {"time": 1413, "pitch": 51, "duration": 8, "velocity": 73}, {"time": 1419, "pitch": 56, "duration": 5, "velocity": 76}, {"time": 1419, "pitch": 59, "duration": 4, "velocity": 81}, {"time": 1419, "pitch": 63, "duration": 4, "velocity": 83}, {"time": 1425, "pitch": 51, "duration": 3, "velocity": 83}, {"time": 1431, "pitch": 44, "duration": 9, "velocity": 82}, {"time": 1431, "pitch": 56, "duration": 3, "velocity": 81}, {"time": 1431, "pitch": 68, "duration": 6, "velocity": 81}, {"time": 1437, "pitch": 66, "duration": 2, "velocity": 88}, {"time": 1443, "pitch": 44, "duration": 4, "velocity": 82}, {"time": 1443, "pitch": 51, "duration": 3, "velocity": 77}, {"time": 1443, "pitch": 59, "duration": 3, "velocity": 72}, {"time": 1443, "pitch": 63, "duration": 3, "velocity": 85}, {"time": 1449, "pitch": 59, "duration": 4, "velocity": 82}, {"time": 1455, "pitch": 49, "duration": 10, "velocity": 87}, {"time": 1455, "pitch": 56, "duration": 3, "velocity": 79}, {"time": 1455, "pitch": 64, "duration": 7, "velocity": 81}, {"time": 1461, "pitch": 56, "duration": 5, "velocity": 82}, {"time": 1467, "pitch": 61, "duration": 5, "velocity": 87}, {"time": 1473, "pitch": 56, "duration": 2, "velocity": 82}, {"time": 1479, "pitch": 42, "duration": 15, "velocity": 82}, {"time": 1479, "pitch": 54, "duration": 8, "velocity": 77}, {"time": 1479, "pitch": 61, "duration": 8, "velocity": 68}, {"time": 1485, "pitch": 49, "duration": 9, "velocity": 79}, {"time": 1491, "pitch": 54, "duration": 3, "velocity": 82}, {"time": 1491, "pitch": 58, "duration": 4, "velocity": 82}, {"time": 1497, "pitch": 42, "duration": 4, "velocity": 82}, {"time": 1503, "pitch": 47, "duration": 21, "velocity": 82}, {"time": 1503, "pitch": 54, "duration": 3, "velocity": 81}, {"time": 1503, "pitch": 59, "duration": 7, "velocity": 80}, {"time": 1509, "pitch": 54, "duration": 3, "velocity": 81}, {"time": 1515, "pitch": 54, "duration": 1, "velocity": 83}, {"time": 1515, "pitch": 61, "duration": 7, "velocity": 81}, {"time": 1521, "pitch": 54, "duration": 3, "velocity": 84}, {"time": 1527, "pitch": 47, "duration": 24, "velocity": 87}, {"time": 1527, "pitch": 54, "duration": 3, "velocity": 84}, {"time": 1527, "pitch": 63, "duration": 9, "velocity": 85}, {"time": 1533, "pitch": 54, "duration": 3, "velocity": 82}, {"time": 1539, "pitch": 61, "duration": 11, "velocity": 82}, {"time": 1545, "pitch": 54, "duration": 5, "velocity": 77}, {"time": 1551, "pitch": 47, "duration": 44, "velocity": 84}, {"time": 1551, "pitch": 54, "duration": 3, "velocity": 76}, {"time": 1551, "pitch": 59, "duration": 9, "velocity": 78}, {"time": 1557, "pitch": 54, "duration": 6, "velocity": 79}, {"time": 1563, "pitch": 61, "duration": 5, "velocity": 84}, {"time": 1569, "pitch": 54, "duration": 3, "velocity": 81}, {"time": 1575, "pitch": 54, "duration": 2, "velocity": 83}, {"time": 1575, "pitch": 63, "duration": 9, "velocity": 83}, {"time": 1581, "pitch": 54, "duration": 3, "velocity": 76}, {"time": 1587, "pitch": 54, "duration": 5, "velocity": 81}, {"time": 1587, "pitch": 63, "duration": 6, "velocity": 82}, {"time": 1593, "pitch": 59, "duration": 5, "velocity": 75}, {"time": 1599, "pitch": 44, "duration": 41, "velocity": 81}, {"time": 1599, "pitch": 56, "duration": 8, "velocity": 75}, {"time": 1605, "pitch": 51, "duration": 8, "velocity": 69}, {"time": 1611, "pitch": 56, "duration": 7, "velocity": 78}, {"time": 1611, "pitch": 63, "duration": 7, "velocity": 82}, {"time": 1617, "pitch": 51, "duration": 8, "velocity": 74}, {"time": 1623, "pitch": 59, "duration": 8, "velocity": 82}, {"time": 1623, "pitch": 63, "duration": 7, "velocity": 82}, {"time": 1629, "pitch": 51, "duration": 10, "velocity": 80}, {"time": 1635, "pitch": 59, "duration": 3, "velocity": 77}, {"time": 1635, "pitch": 63, "duration": 4, "velocity": 85}, {"time": 1641, "pitch": 59, "duration": 6, "velocity": 82}, {"time": 1647, "pitch": 37, "duration": 39, "velocity": 83}, {"time": 1647, "pitch": 61, "duration": 11, "velocity": 76}, {"time": 1653, "pitch": 44, "duration": 18, "velocity": 72}, {"time": 1659, "pitch": 56, "duration": 8, "velocity": 82}, {"time": 1665, "pitch": 61, "duration": 3, "velocity": 77}, {"time": 1671, "pitch": 56, "duration": 3, "velocity": 81}, {"time": 1671, "pitch": 64, "duration": 5, "velocity": 79}, {"time": 1677, "pitch": 44, "duration": 8, "velocity": 67}, {"time": 1683, "pitch": 56, "duration": 2, "velocity": 77}, {"time": 1683, "pitch": 61, "duration": 5, "velocity": 81}, {"time": 1689, "pitch": 56, "duration": 1, "velocity": 69}, {"time": 1695, "pitch": 42, "duration": 38, "velocity": 81}, {"time": 1695, "pitch": 54, "duration": 8, "velocity": 80}, {"time": 1695, "pitch": 61, "duration": 11, "velocity": 76}, {"time": 1701, "pitch": 49, "duration": 21, "velocity": 78}, {"time": 1707, "pitch": 54, "duration": 8, "velocity": 81}, {"time": 1713, "pitch": 61, "duration": 3, "velocity": 82}, {"time": 1719, "pitch": 54, "duration": 4, "velocity": 81}, {"time": 1719, "pitch": 61, "duration": 6, "velocity": 84}, {"time": 1719, "pitch": 66, "duration": 6, "velocity": 79}, {"time": 1725, "pitch": 49, "duration": 8, "velocity": 81}, {"time": 1731, "pitch": 54, "duration": 3, "velocity": 81}, {"time": 1731, "pitch": 61, "duration": 4, "velocity": 78}, {"time": 1743, "pitch": 39, "duration": 26, "velocity": 83}, {"time": 1743, "pitch": 58, "duration": 7, "velocity": 78}, {"time": 1743, "pitch": 63, "duration": 12, "velocity": 81}, {"time": 1749, "pitch": 46, "duration": 19, "velocity": 72}, {"time": 1755, "pitch": 58, "duration": 8, "velocity": 82}, {"time": 1761, "pitch": 63, "duration": 3, "velocity": 81}, {"time": 1767, "pitch": 58, "duration": 8, "velocity": 82}, {"time": 1767, "pitch": 66, "duration": 9, "velocity": 80}, {"time": 1773, "pitch": 46, "duration": 10, "velocity": 75}, {"time": 1779, "pitch": 63, "duration": 6, "velocity": 86}, {"time": 1785, "pitch": 58, "duration": 2, "velocity": 81}, {"time": 1791, "pitch": 44, "duration": 27, "velocity": 82}, {"time": 1791, "pitch": 56, "duration": 8, "velocity": 75}, {"time": 1791, "pitch": 59, "duration": 13, "velocity": 67}, {"time": 1797, "pitch": 51, "duration": 8, "velocity": 81}, {"time": 1803, "pitch": 56, "duration": 7, "velocity": 81}, {"time": 1809, "pitch": 51, "duration": 7, "velocity": 73}, {"time": 1815, "pitch": 56, "duration": 8, "velocity": 81}, {"time": 1815, "pitch": 63, "duration": 9, "velocity": 81}, {"time": 1821, "pitch": 44, "duration": 5, "velocity": 46}, {"time": 1821, "pitch": 51, "duration": 6, "velocity": 77}, {"time": 1827, "pitch": 61, "duration": 6, "velocity": 84}, {"time": 1833, "pitch": 59, "duration": 5, "velocity": 86}, {"time": 1839, "pitch": 37, "duration": 2, "velocity": 82}, {"time": 1839, "pitch": 61, "duration": 18, "velocity": 81}, {"time": 1845, "pitch": 44, "duration": 12, "velocity": 76}, {"time": 1851, "pitch": 52, "duration": 5, "velocity": 82}, {"time": 1857, "pitch": 56, "duration": 7, "velocity": 81}, {"time": 1863, "pitch": 42, "duration": 21, "velocity": 81}, {"time": 1863, "pitch": 61, "duration": 12, "velocity": 78}, {"time": 1869, "pitch": 49, "duration": 15, "velocity": 71}, {"time": 1875, "pitch": 54, "duration": 7, "velocity": 84}, {"time": 1881, "pitch": 61, "duration": 4, "velocity": 81}, {"time": 1887, "pitch": 47, "duration": 20, "velocity": 84}, {"time": 1887, "pitch": 59, "duration": 12, "velocity": 81}, {"time": 1893, "pitch": 51, "duration": 14, "velocity": 79}, {"time": 1899, "pitch": 61, "duration": 7, "velocity": 77}, {"time": 1905, "pitch": 54, "duration": 4, "velocity": 77}, {"time": 1911, "pitch": 47, "duration": 22, "velocity": 78}, {"time": 1911, "pitch": 54, "duration": 3, "velocity": 81}, {"time": 1911, "pitch": 63, "duration": 13, "velocity": 82}, {"time": 1917, "pitch": 54, "duration": 7, "velocity": 74}, {"time": 1923, "pitch": 59, "duration": 9, "velocity": 73}, {"time": 1929, "pitch": 54, "duration": 5, "velocity": 77}, {"time": 1935, "pitch": 47, "duration": 40, "velocity": 85}, {"time": 1941, "pitch": 54, "duration": 8, "velocity": 76}, {"time": 1947, "pitch": 59, "duration": 8, "velocity": 83}, {"time": 1953, "pitch": 54, "duration": 8, "velocity": 73}, {"time": 1959, "pitch": 59, "duration": 8, "velocity": 79}, {"time": 1959, "pitch": 66, "duration": 9, "velocity": 76}, {"time": 1965, "pitch": 54, "duration": 8, "velocity": 67}, {"time": 1971, "pitch": 63, "duration": 2, "velocity": 84}, {"time": 1977, "pitch": 61, "duration": 3, "velocity": 76}, {"time": 1983, "pitch": 44, "duration": 40, "velocity": 81}, {"time": 1983, "pitch": 63, "duration": 13, "velocity": 78}, {"time": 1989, "pitch": 51, "duration": 7, "velocity": 73}, {"time": 1995, "pitch": 56, "duration": 7, "velocity": 71}, {"time": 2001, "pitch": 51, "duration": 8, "velocity": 68}, {"time": 2007, "pitch": 59, "duration": 7, "velocity": 77}, {"time": 2007, "pitch": 63, "duration": 10, "velocity": 82}, {"time": 2013, "pitch": 51, "duration": 10, "velocity": 70}, {"time": 2019, "pitch": 56, "duration": 6, "velocity": 76}, {"time": 2019, "pitch": 61, "duration": 7, "velocity": 76}, {"time": 2025, "pitch": 59, "duration": 4, "velocity": 78}, {"time": 2031, "pitch": 47, "duration": 27, "velocity": 70}, {"time": 2031, "pitch": 54, "duration": 3, "velocity": 76}, {"time": 2031, "pitch": 63, "duration": 12, "velocity": 81}, {"time": 2037, "pitch": 54, "duration": 7, "velocity": 80}, {"time": 2043, "pitch": 59, "duration": 5, "velocity": 81}, {"time": 2049, "pitch": 54, "duration": 3, "velocity": 70}, {"time": 2055, "pitch": 54, "duration": 9, "velocity": 83}, {"time": 2055, "pitch": 63, "duration": 7, "velocity": 82}, {"time": 2061, "pitch": 47, "duration": 13, "velocity": 77}, {"time": 2067, "pitch": 54, "duration": 3, "velocity": 77}, {"time": 2067, "pitch": 59, "duration": 12, "velocity": 78}, {"time": 2073, "pitch": 54, "duration": 5, "velocity": 74}, {"time": 2079, "pitch": 39, "duration": 20, "velocity": 83}, {"time": 2079, "pitch": 58, "duration": 8, "velocity": 77}, {"time": 2079, "pitch": 66, "duration": 12, "velocity": 77}, {"time": 2085, "pitch": 46, "duration": 11, "velocity": 68}, {"time": 2091, "pitch": 63, "duration": 6, "velocity": 90}, {"time": 2097, "pitch": 58, "duration": 3, "velocity": 88}, {"time": 2103, "pitch": 58, "duration": 2, "velocity": 81}, {"time": 2103, "pitch": 63, "duration": 8, "velocity": 84}, {"time": 2103, "pitch": 66, "duration": 8, "velocity": 78}, {"time": 2109, "pitch": 58, "duration": 3, "velocity": 76}, {"time": 2115, "pitch": 39, "duration": 2, "velocity": 82}, {"time": 2115, "pitch": 58, "duration": 2, "velocity": 77}, {"time": 2115, "pitch": 63, "duration": 7, "velocity": 81}, {"time": 2121, "pitch": 58, "duration": 3, "velocity": 78}, {"time": 2127, "pitch": 37, "duration": 21, "velocity": 83}, {"time": 2127, "pitch": 56, "duration": 11, "velocity": 74}, {"time": 2127, "pitch": 61, "duration": 12, "velocity": 76}, {"time": 2133, "pitch": 44, "duration": 15, "velocity": 69}, {"time": 2139, "pitch": 64, "duration": 7, "velocity": 84}, {"time": 2145, "pitch": 56, "duration": 3, "velocity": 81}, {"time": 2151, "pitch": 39, "duration": 21, "velocity": 83}, {"time": 2151, "pitch": 58, "duration": 8, "velocity": 80}, {"time": 2151, "pitch": 63, "duration": 8, "velocity": 82}, {"time": 2157, "pitch": 46, "duration": 14, "velocity": 73}, {"time": 2163, "pitch": 58, "duration": 2, "velocity": 79}, {"time": 2163, "pitch": 63, "duration": 10, "velocity": 83}, {"time": 2163, "pitch": 66, "duration": 8, "velocity": 77}, {"time": 2169, "pitch": 58, "duration": 5, "velocity": 81}, {"time": 2175, "pitch": 44, "duration": 21, "velocity": 82}, {"time": 2175, "pitch": 56, "duration": 8, "velocity": 78}, {"time": 2175, "pitch": 59, "duration": 9, "velocity": 80}, {"time": 2181, "pitch": 51, "duration": 15, "velocity": 81}, {"time": 2187, "pitch": 56, "duration": 7, "velocity": 86}, {"time": 2193, "pitch": 59, "duration": 3, "velocity": 90}, {"time": 2199, "pitch": 44, "duration": 16, "velocity": 80}, {"time": 2199, "pitch": 56, "duration": 8, "velocity": 72}, {"time": 2199, "pitch": 59, "duration": 6, "velocity": 77}, {"time": 2199, "pitch": 63, "duration": 7, "velocity": 79}, {"time": 2205, "pitch": 51, "duration": 9, "velocity": 80}, {"time": 2211, "pitch": 56, "duration": 3, "velocity": 81}, {"time": 2211, "pitch": 59, "duration": 6, "velocity": 83}, {"time": 2217, "pitch": 56, "duration": 5, "velocity": 83}, {"time": 2223, "pitch": 49, "duration": 13, "velocity": 81}, {"time": 2223, "pitch": 56, "duration": 3, "velocity": 74}, {"time": 2223, "pitch": 64, "duration": 12, "velocity": 77}, {"time": 2229, "pitch": 56, "duration": 8, "velocity": 82}, {"time": 2235, "pitch": 61, "duration": 6, "velocity": 87}, {"time": 2241, "pitch": 64, "duration": 2, "velocity": 86}, {"time": 2247, "pitch": 42, "duration": 21, "velocity": 75}, {"time": 2247, "pitch": 54, "duration": 8, "velocity": 74}, {"time": 2247, "pitch": 61, "duration": 11, "velocity": 81}, {"time": 2253, "pitch": 49, "duration": 14, "velocity": 77}, {"time": 2259, "pitch": 54, "duration": 7, "velocity": 73}, {"time": 2265, "pitch": 61, "duration": 5, "velocity": 81}, {"time": 2271, "pitch": 47, "duration": 49, "velocity": 83}, {"time": 2271, "pitch": 54, "duration": 7, "velocity": 72}, {"time": 2271, "pitch": 59, "duration": 13, "velocity": 77}, {"time": 2277, "pitch": 51, "duration": 43, "velocity": 71}, {"time": 2283, "pitch": 54, "duration": 7, "velocity": 82}, {"time": 2289, "pitch": 59, "duration": 4, "velocity": 84}, {"time": 2295, "pitch": 54, "duration": 7, "velocity": 82}, {"time": 2295, "pitch": 61, "duration": 7, "velocity": 83}, {"time": 2301, "pitch": 59, "duration": 3, "velocity": 86}, {"time": 2307, "pitch": 54, "duration": 13, "velocity": 83}, {"time": 2307, "pitch": 63, "duration": 13, "velocity": 85}, {"time": 2313, "pitch": 59, "duration": 6, "velocity": 70}, {"time": 2319, "pitch": 47, "duration": 1, "velocity": 87}, {"time": 2319, "pitch": 54, "duration": 1, "velocity": 82}, {"time": 2319, "pitch": 63, "duration": 1, "velocity": 82}, {"time": 2325, "pitch": 54, "duration": 4, "velocity": 78}, {"time": 2331, "pitch": 59, "duration": 3, "velocity": 86}, {"time": 2337, "pitch": 54, "duration": 3, "velocity": 84}, {"time": 2343, "pitch": 47, "duration": 10, "velocity": 86}, {"time": 2343, "pitch": 54, "duration": 2, "velocity": 77}, {"time": 2343, "pitch": 59, "duration": 7, "velocity": 81}, {"time": 2343, "pitch": 63, "duration": 7, "velocity": 82}, {"time": 2349, "pitch": 54, "duration": 4, "velocity": 80}, {"time": 2355, "pitch": 46, "duration": 5, "velocity": 84}, {"time": 2355, "pitch": 54, "duration": 1, "velocity": 70}, {"time": 2355, "pitch": 58, "duration": 8, "velocity": 82}, {"time": 2361, "pitch": 54, "duration": 2, "velocity": 77}, {"time": 2367, "pitch": 44, "duration": 18, "velocity": 82}, {"time": 2367, "pitch": 56, "duration": 6, "velocity": 76}, {"time": 2367, "pitch": 59, "duration": 5, "velocity": 81}, {"time": 2373, "pitch": 51, "duration": 8, "velocity": 77}, {"time": 2379, "pitch": 59, "duration": 4, "velocity": 81}, {"time": 2379, "pitch": 63, "duration": 4, "velocity": 85}, {"time": 2385, "pitch": 51, "duration": 10, "velocity": 77}, {"time": 2391, "pitch": 56, "duration": 8, "velocity": 82}, {"time": 2391, "pitch": 63, "duration": 7, "velocity": 83}, {"time": 2397, "pitch": 44, "duration": 12, "velocity": 70}, {"time": 2403, "pitch": 56, "duration": 2, "velocity": 80}, {"time": 2403, "pitch": 59, "duration": 3, "velocity": 80}, {"time": 2403, "pitch": 63, "duration": 6, "velocity": 83}, {"time": 2409, "pitch": 59, "duration": 4, "velocity": 81}, {"time": 2415, "pitch": 49, "duration": 13, "velocity": 81}, {"time": 2415, "pitch": 56, "duration": 3, "velocity": 76}, {"time": 2415, "pitch": 61, "duration": 6, "velocity": 77}, {"time": 2421, "pitch": 56, "duration": 3, "velocity": 82}, {"time": 2427, "pitch": 56, "duration": 3, "velocity": 79}, {"time": 2427, "pitch": 64, "duration": 10, "velocity": 81}, {"time": 2433, "pitch": 56, "duration": 5, "velocity": 79}, {"time": 2439, "pitch": 61, "duration": 6, "velocity": 84}, {"time": 2445, "pitch": 56, "duration": 3, "velocity": 73}, {"time": 2451, "pitch": 49, "duration": 2, "velocity": 82}, {"time": 2451, "pitch": 56, "duration": 2, "velocity": 76}, {"time": 2451, "pitch": 61, "duration": 6, "velocity": 81}, {"time": 2457, "pitch": 56, "duration": 2, "velocity": 81}, {"time": 2463, "pitch": 42, "duration": 18, "velocity": 82}, {"time": 2463, "pitch": 54, "duration": 7, "velocity": 79}, {"time": 2463, "pitch": 61, "duration": 7, "velocity": 76}, {"time": 2469, "pitch": 49, "duration": 9, "velocity": 80}, {"time": 2475, "pitch": 54, "duration": 3, "velocity": 80}, {"time": 2475, "pitch": 58, "duration": 4, "velocity": 82}, {"time": 2481, "pitch": 54, "duration": 3, "velocity": 80}, {"time": 2487, "pitch": 54, "duration": 8, "velocity": 83}, {"time": 2487, "pitch": 61, "duration": 4, "velocity": 76}, {"time": 2493, "pitch": 49, "duration": 8, "velocity": 78}, {"time": 2499, "pitch": 54, "duration": 2, "velocity": 81}, {"time": 2499, "pitch": 58, "duration": 6, "velocity": 86}, {"time": 2499, "pitch": 61, "duration": 7, "velocity": 82}, {"time": 2499, "pitch": 66, "duration": 6, "velocity": 77}, {"time": 2505, "pitch": 54, "duration": 3, "velocity": 84}, {"time": 2511, "pitch": 39, "duration": 20, "velocity": 84}, {"time": 2511, "pitch": 51, "duration": 8, "velocity": 82}, {"time": 2511, "pitch": 54, "duration": 7, "velocity": 81}, {"time": 2517, "pitch": 46, "duration": 14, "velocity": 77}, {"time": 2523, "pitch": 58, "duration": 9, "velocity": 83}, {"time": 2529, "pitch": 54, "duration": 3, "velocity": 81}, {"time": 2535, "pitch": 39, "duration": 15, "velocity": 82}, {"time": 2535, "pitch": 54, "duration": 5, "velocity": 77}, {"time": 2535, "pitch": 63, "duration": 7, "velocity": 87}, {"time": 2541, "pitch": 46, "duration": 7, "velocity": 78}, {"time": 2547, "pitch": 54, "duration": 3, "velocity": 81}, {"time": 2547, "pitch": 58, "duration": 3, "velocity": 83}, {"time": 2553, "pitch": 46, "duration": 2, "velocity": 82}, {"time": 2559, "pitch": 44, "duration": 19, "velocity": 82}, {"time": 2559, "pitch": 56, "duration": 7, "velocity": 74}, {"time": 2559, "pitch": 59, "duration": 7, "velocity": 76}, {"time": 2565, "pitch": 51, "duration": 8, "velocity": 73}, {"time": 2571, "pitch": 56, "duration": 5, "velocity": 76}, {"time": 2571, "pitch": 59, "duration": 4, "velocity": 81}, {"time": 2571, "pitch": 63, "duration": 4, "velocity": 83}, {"time": 2577, "pitch": 51, "duration": 3, "velocity": 83}, {"time": 2583, "pitch": 44, "duration": 9, "velocity": 82}, {"time": 2583, "pitch": 56, "duration": 3, "velocity": 81}, {"time": 2583, "pitch": 68, "duration": 6, "velocity": 81}, {"time": 2589, "pitch": 66, "duration": 2, "velocity": 88}, {"time": 2595, "pitch": 44, "duration": 4, "velocity": 82}, {"time": 2595, "pitch": 51, "duration": 3, "velocity": 77}, {"time": 2595, "pitch": 59, "duration": 3, "velocity": 72}, {"time": 2595, "pitch": 63, "duration": 3, "velocity": 85}, {"time": 2601, "pitch": 59, "duration": 4, "velocity": 82}, {"time": 2607, "pitch": 49, "duration": 10, "velocity": 87}, {"time": 2607, "pitch": 56, "duration": 3, "velocity": 79}, {"time": 2607, "pitch": 64, "duration": 7, "velocity": 81}, {"time": 2613, "pitch": 56, "duration": 5, "velocity": 82}, {"time": 2619, "pitch": 61, "duration": 5, "velocity": 87}, {"time": 2625, "pitch": 56, "duration": 2, "velocity": 82}, {"time": 2631, "pitch": 42, "duration": 15, "velocity": 82}, {"time": 2631, "pitch": 54, "duration": 8, "velocity": 77}, {"time": 2631, "pitch": 61, "duration": 8, "velocity": 68}, {"time": 2637, "pitch": 49, "duration": 9, "velocity": 79}, {"time": 2643, "pitch": 54, "duration": 3, "velocity": 82}, {"time": 2643, "pitch": 58, "duration": 4, "velocity": 82}, {"time": 2649, "pitch": 42, "duration": 4, "velocity": 82}, {"time": 2655, "pitch": 47, "duration": 21, "velocity": 82}, {"time": 2655, "pitch": 54, "duration": 3, "velocity": 81}, {"time": 2655, "pitch": 59, "duration": 7, "velocity": 80}, {"time": 2661, "pitch": 54, "duration": 3, "velocity": 81}, {"time": 2667, "pitch": 54, "duration": 1, "velocity": 83}, {"time": 2667, "pitch": 61, "duration": 7, "velocity": 81}, {"time": 2673, "pitch": 54, "duration": 3, "velocity": 84}, {"time": 2679, "pitch": 47, "duration": 24, "velocity": 87}, {"time": 2679, "pitch": 54, "duration": 3, "velocity": 84}, {"time": 2679, "pitch": 63, "duration": 9, "velocity": 85}, {"time": 2685, "pitch": 54, "duration": 3, "velocity": 82}, {"time": 2691, "pitch": 61, "duration": 11, "velocity": 82}, {"time": 2697, "pitch": 54, "duration": 5, "velocity": 77}, {"time": 2703, "pitch": 47, "duration": 44, "velocity": 84}, {"time": 2703, "pitch": 54, "duration": 3, "velocity": 76}, {"time": 2703, "pitch": 59, "duration": 9, "velocity": 78}, {"time": 2709, "pitch": 54, "duration": 6, "velocity": 79}, {"time": 2715, "pitch": 61, "duration": 5, "velocity": 84}, {"time": 2721, "pitch": 54, "duration": 3, "velocity": 81}, {"time": 2727, "pitch": 54, "duration": 2, "velocity": 83}, {"time": 2727, "pitch": 63, "duration": 9, "velocity": 83}, {"time": 2733, "pitch": 54, "duration": 3, "velocity": 76}, {"time": 2739, "pitch": 54, "duration": 5, "velocity": 81}, {"time": 2739, "pitch": 63, "duration": 6, "velocity": 82}, {"time": 2745, "pitch": 59, "duration": 5, "velocity": 75}, {"time": 2751, "pitch": 44, "duration": 41, "velocity": 81}, {"time": 2751, "pitch": 56, "duration": 8, "velocity": 75}, {"time": 2757, "pitch": 51, "duration": 8, "velocity": 69}, {"time": 2763, "pitch": 56, "duration": 7, "velocity": 78}, {"time": 2763, "pitch": 63, "duration": 7, "velocity": 82}, {"time": 2769, "pitch": 51, "duration": 8, "velocity": 74}, {"time": 2775, "pitch": 59, "duration": 8, "velocity": 82}, {"time": 2775, "pitch": 63, "duration": 7, "velocity": 82}, {"time": 2781, "pitch": 51, "duration": 10, "velocity": 80}, {"time": 2787, "pitch": 59, "duration": 3, "velocity": 77}, {"time": 2787, "pitch": 63, "duration": 4, "velocity": 85}, {"time": 2793, "pitch": 59, "duration": 6, "velocity": 82}, {"time": 2799, "pitch": 37, "duration": 39, "velocity": 83}, {"time": 2799, "pitch": 61, "duration": 11, "velocity": 76}, {"time": 2805, "pitch": 44, "duration": 18, "velocity": 72}, {"time": 2811, "pitch": 56, "duration": 8, "velocity": 82}, {"time": 2817, "pitch": 61, "duration": 3, "velocity": 77}, {"time": 2823, "pitch": 56, "duration": 3, "velocity": 81}, {"time": 2823, "pitch": 64, "duration": 5, "velocity": 79}, {"time": 2829, "pitch": 44, "duration": 8, "velocity": 67}, {"time": 2835, "pitch": 56, "duration": 2, "velocity": 77}, {"time": 2835, "pitch": 61, "duration": 5, "velocity": 81}, {"time": 2841, "pitch": 56, "duration": 1, "velocity": 69}, {"time": 2847, "pitch": 42, "duration": 38, "velocity": 81}, {"time": 2847, "pitch": 54, "duration": 8, "velocity": 80}, {"time": 2847, "pitch": 61, "duration": 11, "velocity": 76}, {"time": 2853, "pitch": 49, "duration": 21, "velocity": 78}, {"time": 2859, "pitch": 54, "duration": 8, "velocity": 81}, {"time": 2865, "pitch": 61, "duration": 3, "velocity": 82}, {"time": 2871, "pitch": 54, "duration": 4, "velocity": 81}, {"time": 2871, "pitch": 61, "duration": 6, "velocity": 84}, {"time": 2871, "pitch": 66, "duration": 6, "velocity": 79}, {"time": 2877, "pitch": 49, "duration": 8, "velocity": 81}, {"time": 2883, "pitch": 54, "duration": 3, "velocity": 81}, {"time": 2883, "pitch": 61, "duration": 4, "velocity": 78}, {"time": 2895, "pitch": 39, "duration": 26, "velocity": 83}, {"time": 2895, "pitch": 58, "duration": 7, "velocity": 78}, {"time": 2895, "pitch": 63, "duration": 12, "velocity": 81}, {"time": 2901, "pitch": 46, "duration": 19, "velocity": 72}, {"time": 2907, "pitch": 58, "duration": 8, "velocity": 82}, {"time": 2913, "pitch": 63, "duration": 3, "velocity": 81}, {"time": 2919, "pitch": 58, "duration": 8, "velocity": 82}, {"time": 2919, "pitch": 66, "duration": 9, "velocity": 80}, {"time": 2925, "pitch": 46, "duration": 10, "velocity": 75}, {"time": 2931, "pitch": 63, "duration": 6, "velocity": 86}, {"time": 2937, "pitch": 58, "duration": 2, "velocity": 81}, {"time": 2943, "pitch": 44, "duration": 27, "velocity": 82}, {"time": 2943, "pitch": 56, "duration": 8, "velocity": 75}, {"time": 2943, "pitch": 59, "duration": 13, "velocity": 67}, {"time": 2949, "pitch": 51, "duration": 8, "velocity": 81}, {"time": 2955, "pitch": 56, "duration": 7, "velocity": 81}, {"time": 2961, "pitch": 51, "duration": 7, "velocity": 73}, {"time": 2967, "pitch": 56, "duration": 8, "velocity": 81}, {"time": 2967, "pitch": 63, "duration": 9, "velocity": 81}, {"time": 2973, "pitch": 44, "duration": 5, "velocity": 46}, {"time": 2973, "pitch": 51, "duration": 6, "velocity": 77}, {"time": 2979, "pitch": 61, "duration": 6, "velocity": 84}, {"time": 2985, "pitch": 59, "duration": 5, "velocity": 86}, {"time": 2991, "pitch": 37, "duration": 2, "velocity": 82}, {"time": 2991, "pitch": 61, "duration": 18, "velocity": 81}, {"time": 2997, "pitch": 44, "duration": 12, "velocity": 76}, {"time": 3003, "pitch": 52, "duration": 5, "velocity": 82}, {"time": 3009, "pitch": 56, "duration": 7, "velocity": 81}, {"time": 3015, "pitch": 42, "duration": 21, "velocity": 81}, {"time": 3015, "pitch": 61, "duration": 12, "velocity": 78}, {"time": 3021, "pitch": 49, "duration": 15, "velocity": 71}, {"time": 3027, "pitch": 54, "duration": 7, "velocity": 84}, {"time": 3033, "pitch": 61, "duration": 4, "velocity": 81}, {"time": 3039, "pitch": 47, "duration": 20, "velocity": 84}, {"time": 3039, "pitch": 59, "duration": 12, "velocity": 81}, {"time": 3045, "pitch": 51, "duration": 14, "velocity": 79}, {"time": 3051, "pitch": 61, "duration": 7, "velocity": 77}, {"time": 3057, "pitch": 54, "duration": 4, "velocity": 77}, {"time": 3063, "pitch": 47, "duration": 22, "velocity": 78}, {"time": 3063, "pitch": 54, "duration": 3, "velocity": 81}, {"time": 3063, "pitch": 63, "duration": 13, "velocity": 82}, {"time": 3069, "pitch": 54, "duration": 7, "velocity": 74}, {"time": 3075, "pitch": 59, "duration": 9, "velocity": 73}, {"time": 3081, "pitch": 54, "duration": 5, "velocity": 77}, {"time": 3087, "pitch": 39, "duration": 21, "velocity": 83}, {"time": 3087, "pitch": 58, "duration": 4, "velocity": 81}, {"time": 3087, "pitch": 66, "duration": 8, "velocity": 77}, {"time": 3093, "pitch": 46, "duration": 15, "velocity": 76}, {"time": 3093, "pitch": 58, "duration": 6, "velocity": 77}, {"time": 3099, "pitch": 63, "duration": 3, "velocity": 83}, {"time": 3105, "pitch": 58, "duration": 3, "velocity": 81}, {"time": 3111, "pitch": 39, "duration": 20, "velocity": 83}, {"time": 3111, "pitch": 58, "duration": 2, "velocity": 82}, {"time": 3111, "pitch": 63, "duration": 7, "velocity": 85}, {"time": 3111, "pitch": 66, "duration": 7, "velocity": 80}, {"time": 3117, "pitch": 58, "duration": 3, "velocity": 77}, {"time": 3123, "pitch": 58, "duration": 2, "velocity": 82}, {"time": 3123, "pitch": 63, "duration": 7, "velocity": 82}, {"time": 3129, "pitch": 58, "duration": 3, "velocity": 83}, {"time": 3135, "pitch": 37, "duration": 21, "velocity": 83}, {"time": 3135, "pitch": 56, "duration": 4, "velocity": 85}, {"time": 3135, "pitch": 61, "duration": 7, "velocity": 81}, {"time": 3141, "pitch": 56, "duration": 4, "velocity": 80}, {"time": 3147, "pitch": 56, "duration": 2, "velocity": 85}, {"time": 3147, "pitch": 64, "duration": 4, "velocity": 79}, {"time": 3153, "pitch": 56, "duration": 7, "velocity": 75}, {"time": 3159, "pitch": 37, "duration": 19, "velocity": 85}, {"time": 3159, "pitch": 68, "duration": 8, "velocity": 83}, {"time": 3165, "pitch": 56, "duration": 4, "velocity": 80}, {"time": 3171, "pitch": 44, "duration": 7, "velocity": 76}, {"time": 3171, "pitch": 56, "duration": 3, "velocity": 73}, {"time": 3171, "pitch": 61, "duration": 7, "velocity": 75}, {"time": 3177, "pitch": 56, "duration": 7, "velocity": 81}, {"time": 3183, "pitch": 37, "duration": 17, "velocity": 84}, {"time": 3183, "pitch": 64, "duration": 6, "velocity": 82}, {"time": 3189, "pitch": 56, "duration": 7, "velocity": 81}, {"time": 3195, "pitch": 61, "duration": 7, "velocity": 81}, {"time": 3201, "pitch": 56, "duration": 7, "velocity": 87}, {"time": 3207, "pitch": 37, "duration": 12, "velocity": 83}, {"time": 3207, "pitch": 61, "duration": 7, "velocity": 78}, {"time": 3207, "pitch": 68, "duration": 6, "velocity": 81}, {"time": 3213, "pitch": 56, "duration": 3, "velocity": 79}, {"time": 3219, "pitch": 56, "duration": 2, "velocity": 82}, {"time": 3219, "pitch": 61, "duration": 6, "velocity": 82}, {"time": 3225, "pitch": 56, "duration": 2, "velocity": 80}, {"time": 3231, "pitch": 42, "duration": 19, "velocity": 80}, {"time": 3231, "pitch": 54, "duration": 7, "velocity": 77}, {"time": 3231, "pitch": 59, "duration": 6, "velocity": 76}, {"time": 3237, "pitch": 49, "duration": 9, "velocity": 75}, {"time": 3243, "pitch": 54, "duration": 6, "velocity": 82}, {"time": 3243, "pitch": 59, "duration": 6, "velocity": 85}, {"time": 3249, "pitch": 49, "duration": 4, "velocity": 84}, {"time": 3255, "pitch": 42, "duration": 14, "velocity": 82}, {"time": 3255, "pitch": 54, "duration": 7, "velocity": 81}, {"time": 3255, "pitch": 58, "duration": 6, "velocity": 80}, {"time": 3261, "pitch": 49, "duration": 7, "velocity": 81}, {"time": 3267, "pitch": 54, "duration": 5, "velocity": 81}, {"time": 3267, "pitch": 61, "duration": 8, "velocity": 81}, {"time": 3273, "pitch": 42, "duration": 4, "velocity": 83}, {"time": 3279, "pitch": 39, "duration": 18, "velocity": 83}, {"time": 3279, "pitch": 63, "duration": 8, "velocity": 81}, {"time": 3279, "pitch": 70, "duration": 9, "velocity": 81}, {"time": 3285, "pitch": 46, "duration": 8, "velocity": 81}, {"time": 3291, "pitch": 63, "duration": 4, "velocity": 87}, {"time": 3291, "pitch": 66, "duration": 5, "velocity": 84}, {"time": 3297, "pitch": 46, "duration": 4, "velocity": 80}, {"time": 3303, "pitch": 39, "duration": 19, "velocity": 83}, {"time": 3303, "pitch": 63, "duration": 5, "velocity": 82}, {"time": 3303, "pitch": 70, "duration": 9, "velocity": 81}, {"time": 3309, "pitch": 46, "duration": 7, "velocity": 70}, {"time": 3315, "pitch": 63, "duration": 6, "velocity": 82}, {"time": 3315, "pitch": 66, "duration": 10, "velocity": 82}, {"time": 3321, "pitch": 46, "duration": 3, "velocity": 81}, {"time": 3327, "pitch": 37, "duration": 2, "velocity": 83}, {"time": 3327, "pitch": 61, "duration": 11, "velocity": 81}, {"time": 3327, "pitch": 64, "duration": 11, "velocity": 78}, {"time": 3333, "pitch": 44, "duration": 3, "velocity": 72}, {"time": 3339, "pitch": 52, "duration": 6, "velocity": 73}, {"time": 3339, "pitch": 61, "duration": 4, "velocity": 82}, {"time": 3339, "pitch": 64, "duration": 6, "velocity": 84}, {"time": 3345, "pitch": 49, "duration": 9, "velocity": 81}, {"time": 3351, "pitch": 61, "duration": 4, "velocity": 79}, {"time": 3351, "pitch": 64, "duration": 4, "velocity": 83}, {"time": 3351, "pitch": 68, "duration": 5, "velocity": 82}, {"time": 3357, "pitch": 52, "duration": 10, "velocity": 59}, {"time": 3363, "pitch": 61, "duration": 2, "velocity": 82}, {"time": 3363, "pitch": 64, "duration": 9, "velocity": 84}, {"time": 3369, "pitch": 61, "duration": 4, "velocity": 76}, {"time": 3375, "pitch": 42, "duration": 19, "velocity": 82}, {"time": 3375, "pitch": 61, "duration": 8, "velocity": 81}, {"time": 3375, "pitch": 66, "duration": 9, "velocity": 80}, {"time": 3381, "pitch": 49, "duration": 8, "velocity": 72}, {"time": 3387, "pitch": 61, "duration": 7, "velocity": 82}, {"time": 3387, "pitch": 66, "duration": 7, "velocity": 82}, {"time": 3393, "pitch": 49, "duration": 4, "velocity": 77}, {"time": 3399, "pitch": 42, "duration": 16, "velocity": 82}, {"time": 3399, "pitch": 61, "duration": 8, "velocity": 79}, {"time": 3399, "pitch": 66, "duration": 9, "velocity": 77}, {"time": 3405, "pitch": 49, "duration": 8, "velocity": 70}, {"time": 3411, "pitch": 61, "duration": 3, "velocity": 81}, {"time": 3411, "pitch": 66, "duration": 4, "velocity": 85}, {"time": 3417, "pitch": 61, "duration": 3, "velocity": 78}, {"time": 3417, "pitch": 64, "duration": 4, "velocity": 82}, {"time": 3423, "pitch": 35, "duration": 1, "velocity": 78}, {"time": 3423, "pitch": 59, "duration": 9, "velocity": 81}, {"time": 3423, "pitch": 63, "duration": 10, "velocity": 82}, {"time": 3429, "pitch": 47, "duration": 21, "velocity": 81}, {"time": 3435, "pitch": 59, "duration": 8, "velocity": 81}, {"time": 3435, "pitch": 63, "duration": 8, "velocity": 82}, {"time": 3441, "pitch": 54, "duration": 9, "velocity": 70}, {"time": 3447, "pitch": 59, "duration": 9, "velocity": 81}, {"time": 3447, "pitch": 63, "duration": 9, "velocity": 82}, {"time": 3453, "pitch": 47, "duration": 10, "velocity": 81}, {"time": 3459, "pitch": 59, "duration": 2, "velocity": 83}, {"time": 3459, "pitch": 63, "duration": 11, "velocity": 86}, {"time": 3465, "pitch": 59, "duration": 7, "velocity": 81}, {"time": 3468, "pitch": 54, "duration": 10, "velocity": 73}, {"time": 3470, "pitch": 42, "duration": 21, "velocity": 81}, {"time": 3470, "pitch": 66, "duration": 19, "velocity": 81}, {"time": 3476, "pitch": 49, "duration": 14, "velocity": 78}, {"time": 3482, "pitch": 54, "duration": 8, "velocity": 82}, {"time": 3488, "pitch": 61, "duration": 3, "velocity": 81}, {"time": 3495, "pitch": 52, "duration": 9, "velocity": 74}, {"time": 3495, "pitch": 40, "duration": 17, "velocity": 79}, {"time": 3497, "pitch": 56, "duration": 7, "velocity": 78}, {"time": 3498, "pitch": 59, "duration": 11, "velocity": 73}, {"time": 3502, "pitch": 47, "duration": 10, "velocity": 74}, {"time": 3507, "pitch": 52, "duration": 5, "velocity": 80}, {"time": 3513, "pitch": 42, "duration": 31, "velocity": 82}, {"time": 3513, "pitch": 54, "duration": 28, "velocity": 75}, {"time": 3513, "pitch": 58, "duration": 27, "velocity": 75}, {"time": 3513, "pitch": 61, "duration": 32, "velocity": 71}, {"time": 3543, "pitch": 47, "duration": 35, "velocity": 86}, {"time": 3546, "pitch": 54, "duration": 13, "velocity": 81}, {"time": 3547, "pitch": 59, "duration": 36, "velocity": 73}, {"time": 3549, "pitch": 63, "duration": 34, "velocity": 82}, {"time": 3565, "pitch": 54, "duration": 17, "velocity": 26}], "annotations": [{"time": 17, "annotation": {"number": 64, "value": 127}, "group": "control_change"}, {"time": 17, "annotation": {"number": 64, "value": 0}, "group": "control_change"}, {"time": 61, "annotation": {"number": 64, "value": 0}, "group": "control_change"}, {"time": 64, "annotation": {"number": 64, "value": 127}, "group": "control_change"}, {"time": 108, "annotation": {"number": 64, "value": 0}, "group": "control_change"}, {"time": 111, "annotation": {"number": 64, "value": 127}, "group": "control_change"}, {"time": 157, "annotation": {"number": 64, "value": 0}, "group": "control_change"}, {"time": 164, "annotation": {"number": 64, "value": 127}, "group": "control_change"}, {"time": 206, "annotation": {"number": 64, "value": 0}, "group": "control_change"}, {"time": 210, "annotation": {"number": 64, "value": 127}, "group": "control_change"}, {"time": 210, "annotation": {"number": 64, "value": 0}, "group": "control_change"}, {"time": 255, "annotation": {"number": 64, "value": 0}, "group": "control_change"}, {"time": 258, "annotation": {"number": 64, "value": 127}, "group": "control_change"}, {"time": 300, "annotation": {"number": 64, "value": 0}, "group": "control_change"}, {"time": 302, "annotation": {"number": 64, "value": 127}, "group": "control_change"}, {"time": 325, "annotation": {"number": 64, "value": 0}, "group": "control_change"}, {"time": 328, "annotation": {"number": 64, "value": 127}, "group": "control_change"}, {"time": 349, "annotation": {"number": 64, "value": 0}, "group": "control_change"}, {"time": 352, "annotation": {"number": 64, "value": 127}, "group": "control_change"}, {"time": 397, "annotation": {"number": 64, "value": 0}, "group": "control_change"}, {"time": 447, "annotation": {"number": 64, "value": 0}, "group": "control_change"}, {"time": 451, "annotation": {"number": 64, "value": 127}, "group": "control_change"}, {"time": 492, "annotation": {"number": 64, "value": 0}, "group": "control_change"}, {"time": 496, "annotation": {"number": 64, "value": 127}, "group": "control_change"}, {"time": 542, "annotation": {"number": 64, "value": 0}, "group": "control_change"}, {"time": 543, "annotation": {"number": 64, "value": 127}, "group": "control_change"}, {"time": 543, "annotation": {"number": 64, "value": 0}, "group": "control_change"}, {"time": 590, "annotation": {"number": 64, "value": 0}, "group": "control_change"}, {"time": 591, "annotation": {"number": 64, "value": 127}, "group": "control_change"}, {"time": 614, "annotation": {"number": 64, "value": 0}, "group": "control_change"}, {"time": 616, "annotation": {"number": 64, "value": 127}, "group": "control_change"}, {"time": 636, "annotation": {"number": 64, "value": 0}, "group": "control_change"}, {"time": 640, "annotation": {"number": 64, "value": 127}, "group": "control_change"}, {"time": 640, "annotation": {"number": 64, "value": 0}, "group": "control_change"}, {"time": 684, "annotation": {"number": 64, "value": 0}, "group": "control_change"}, {"time": 688, "annotation": {"number": 64, "value": 127}, "group": "control_change"}, {"time": 733, "annotation": {"number": 64, "value": 0}, "group": "control_change"}, {"time": 739, "annotation": {"number": 64, "value": 127}, "group": "control_change"}, {"time": 780, "annotation": {"number": 64, "value": 0}, "group": "control_change"}, {"time": 831, "annotation": {"number": 64, "value": 0}, "group": "control_change"}, {"time": 835, "annotation": {"number": 64, "value": 127}, "group": "control_change"}, {"time": 876, "annotation": {"number": 64, "value": 0}, "group": "control_change"}, {"time": 880, "annotation": {"number": 64, "value": 127}, "group": "control_change"}, {"time": 926, "annotation": {"number": 64, "value": 0}, "group": "control_change"}, {"time": 927, "annotation": {"number": 64, "value": 127}, "group": "control_change"}, {"time": 927, "annotation": {"number": 64, "value": 0}, "group": "control_change"}, {"time": 974, "annotation": {"number": 64, "value": 0}, "group": "control_change"}, {"time": 975, "annotation": {"number": 64, "value": 127}, "group": "control_change"}, {"time": 998, "annotation": {"number": 64, "value": 0}, "group": "control_change"}, {"time": 1000, "annotation": {"number": 64, "value": 127}, "group": "control_change"}, {"time": 1020, "annotation": {"number": 64, "value": 0}, "group": "control_change"}, {"time": 1024, "annotation": {"number": 64, "value": 127}, "group": "control_change"}, {"time": 1024, "annotation": {"number": 64, "value": 0}, "group": "control_change"}, {"time": 1068, "annotation": {"number": 64, "value": 0}, "group": "control_change"}, {"time": 1071, "annotation": {"number": 64, "value": 127}, "group": "control_change"}, {"time": 1096, "annotation": {"number": 64, "value": 0}, "group": "control_change"}, {"time": 1100, "annotation": {"number": 64, "value": 127}, "group": "control_change"}, {"time": 1116, "annotation": {"number": 64, "value": 0}, "group": "control_change"}, {"time": 1121, "annotation": {"number": 64, "value": 127}, "group": "control_change"}, {"time": 1165, "annotation": {"number": 64, "value": 0}, "group": "control_change"}, {"time": 1212, "annotation": {"number": 64, "value": 0}, "group": "control_change"}, {"time": 1215, "annotation": {"number": 64, "value": 127}, "group": "control_change"}, {"time": 1260, "annotation": {"number": 64, "value": 0}, "group": "control_change"}, {"time": 1263, "annotation": {"number": 64, "value": 127}, "group": "control_change"}, {"time": 1310, "annotation": {"number": 64, "value": 0}, "group": "control_change"}, {"time": 1315, "annotation": {"number": 64, "value": 127}, "group": "control_change"}, {"time": 1358, "annotation": {"number": 64, "value": 0}, "group": "control_change"}, {"time": 1362, "annotation": {"number": 64, "value": 127}, "group": "control_change"}, {"time": 1381, "annotation": {"number": 64, "value": 0}, "group": "control_change"}, {"time": 1383, "annotation": {"number": 64, "value": 127}, "group": "control_change"}, {"time": 1404, "annotation": {"number": 64, "value": 0}, "group": "control_change"}, {"time": 1410, "annotation": {"number": 64, "value": 127}, "group": "control_change"}, {"time": 1452, "annotation": {"number": 64, "value": 0}, "group": "control_change"}, {"time": 1455, "annotation": {"number": 64, "value": 127}, "group": "control_change"}, {"time": 1478, "annotation": {"number": 64, "value": 0}, "group": "control_change"}, {"time": 1482, "annotation": {"number": 64, "value": 127}, "group": "control_change"}, {"time": 1482, "annotation": {"number": 64, "value": 0}, "group": "control_change"}, {"time": 1500, "annotation": {"number": 64, "value": 0}, "group": "control_change"}, {"time": 1502, "annotation": {"number": 64, "value": 127}, "group": "control_change"}, {"time": 1548, "annotation": {"number": 64, "value": 0}, "group": "control_change"}, {"time": 1553, "annotation": {"number": 64, "value": 127}, "group": "control_change"}, {"time": 1553, "annotation": {"number": 64, "value": 0}, "group": "control_change"}, {"time": 1597, "annotation": {"number": 64, "value": 0}, "group": "control_change"}, {"time": 1600, "annotation": {"number": 64, "value": 127}, "group": "control_change"}, {"time": 1644, "annotation": {"number": 64, "value": 0}, "group": "control_change"}, {"time": 1647, "annotation": {"number": 64, "value": 127}, "group": "control_change"}, {"time": 1693, "annotation": {"number": 64, "value": 0}, "group": "control_change"}, {"time": 1700, "annotation": {"number": 64, "value": 127}, "group": "control_change"}, {"time": 1742, "annotation": {"number": 64, "value": 0}, "group": "control_change"}, {"time": 1746, "annotation": {"number": 64, "value": 127}, "group": "control_change"}, {"time": 1746, "annotation": {"number": 64, "value": 0}, "group": "control_change"}, {"time": 1791, "annotation": {"number": 64, "value": 0}, "group": "control_change"}, {"time": 1794, "annotation": {"number": 64, "value": 127}, "group": "control_change"}, {"time": 1836, "annotation": {"number": 64, "value": 0}, "group": "control_change"}, {"time": 1838, "annotation": {"number": 64, "value": 127}, "group": "control_change"}, {"time": 1861, "annotation": {"number": 64, "value": 0}, "group": "control_change"}, {"time": 1864, "annotation": {"number": 64, "value": 127}, "group": "control_change"}, {"time": 1885, "annotation": {"number": 64, "value": 0}, "group": "control_change"}, {"time": 1888, "annotation": {"number": 64, "value": 127}, "group": "control_change"}, {"time": 1933, "annotation": {"number": 64, "value": 0}, "group": "control_change"}, {"time": 1983, "annotation": {"number": 64, "value": 0}, "group": "control_change"}, {"time": 1987, "annotation": {"number": 64, "value": 127}, "group": "control_change"}, {"time": 2028, "annotation": {"number": 64, "value": 0}, "group": "control_change"}, {"time": 2032, "annotation": {"number": 64, "value": 127}, "group": "control_change"}, {"time": 2078, "annotation": {"number": 64, "value": 0}, "group": "control_change"}, {"time": 2079, "annotation": {"number": 64, "value": 127}, "group": "control_change"}, {"time": 2079, "annotation": {"number": 64, "value": 0}, "group": "control_change"}, {"time": 2126, "annotation": {"number": 64, "value": 0}, "group": "control_change"}, {"time": 2127, "annotation": {"number": 64, "value": 127}, "group": "control_change"}, {"time": 2150, "annotation": {"number": 64, "value": 0}, "group": "control_change"}, {"time": 2152, "annotation": {"number": 64, "value": 127}, "group": "control_change"}, {"time": 2172, "annotation": {"number": 64, "value": 0}, "group": "control_change"}, {"time": 2176, "annotation": {"number": 64, "value": 127}, "group": "control_change"}, {"time": 2176, "annotation": {"number": 64, "value": 0}, "group": "control_change"}, {"time": 2220, "annotation": {"number": 64, "value": 0}, "group": "control_change"}, {"time": 2223, "annotation": {"number": 64, "value": 127}, "group": "control_change"}, {"time": 2248, "annotation": {"number": 64, "value": 0}, "group": "control_change"}, {"time": 2252, "annotation": {"number": 64, "value": 127}, "group": "control_change"}, {"time": 2268, "annotation": {"number": 64, "value": 0}, "group": "control_change"}, {"time": 2273, "annotation": {"number": 64, "value": 127}, "group": "control_change"}, {"time": 2317, "annotation": {"number": 64, "value": 0}, "group": "control_change"}, {"time": 2364, "annotation": {"number": 64, "value": 0}, "group": "control_change"}, {"time": 2367, "annotation": {"number": 64, "value": 127}, "group": "control_change"}, {"time": 2412, "annotation": {"number": 64, "value": 0}, "group": "control_change"}, {"time": 2415, "annotation": {"number": 64, "value": 127}, "group": "control_change"}, {"time": 2462, "annotation": {"number": 64, "value": 0}, "group": "control_change"}, {"time": 2467, "annotation": {"number": 64, "value": 127}, "group": "control_change"}, {"time": 2510, "annotation": {"number": 64, "value": 0}, "group": "control_change"}, {"time": 2514, "annotation": {"number": 64, "value": 127}, "group": "control_change"}, {"time": 2533, "annotation": {"number": 64, "value": 0}, "group": "control_change"}, {"time": 2535, "annotation": {"number": 64, "value": 127}, "group": "control_change"}, {"time": 2556, "annotation": {"number": 64, "value": 0}, "group": "control_change"}, {"time": 2562, "annotation": {"number": 64, "value": 127}, "group": "control_change"}, {"time": 2604, "annotation": {"number": 64, "value": 0}, "group": "control_change"}, {"time": 2607, "annotation": {"number": 64, "value": 127}, "group": "control_change"}, {"time": 2630, "annotation": {"number": 64, "value": 0}, "group": "control_change"}, {"time": 2634, "annotation": {"number": 64, "value": 127}, "group": "control_change"}, {"time": 2634, "annotation": {"number": 64, "value": 0}, "group": "control_change"}, {"time": 2652, "annotation": {"number": 64, "value": 0}, "group": "control_change"}, {"time": 2654, "annotation": {"number": 64, "value": 127}, "group": "control_change"}, {"time": 2700, "annotation": {"number": 64, "value": 0}, "group": "control_change"}, {"time": 2705, "annotation": {"number": 64, "value": 127}, "group": "control_change"}, {"time": 2705, "annotation": {"number": 64, "value": 0}, "group": "control_change"}, {"time": 2749, "annotation": {"number": 64, "value": 0}, "group": "control_change"}, {"time": 2752, "annotation": {"number": 64, "value": 127}, "group": "control_change"}, {"time": 2796, "annotation": {"number": 64, "value": 0}, "group": "control_change"}, {"time": 2799, "annotation": {"number": 64, "value": 127}, "group": "control_change"}, {"time": 2845, "annotation": {"number": 64, "value": 0}, "group": "control_change"}, {"time": 2852, "annotation": {"number": 64, "value": 127}, "group": "control_change"}, {"time": 2894, "annotation": {"number": 64, "value": 0}, "group": "control_change"}, {"time": 2898, "annotation": {"number": 64, "value": 127}, "group": "control_change"}, {"time": 2898, "annotation": {"number": 64, "value": 0}, "group": "control_change"}, {"time": 2943, "annotation": {"number": 64, "value": 0}, "group": "control_change"}, {"time": 2946, "annotation": {"number": 64, "value": 127}, "group": "control_change"}, {"time": 2988, "annotation": {"number": 64, "value": 0}, "group": "control_change"}, {"time": 2990, "annotation": {"number": 64, "value": 127}, "group": "control_change"}, {"time": 3013, "annotation": {"number": 64, "value": 0}, "group": "control_change"}, {"time": 3016, "annotation": {"number": 64, "value": 127}, "group": "control_change"}, {"time": 3037, "annotation": {"number": 64, "value": 0}, "group": "control_change"}, {"time": 3040, "annotation": {"number": 64, "value": 127}, "group": "control_change"}, {"time": 3085, "annotation": {"number": 64, "value": 0}, "group": "control_change"}, {"time": 3087, "annotation": {"number": 64, "value": 127}, "group": "control_change"}, {"time": 3135, "annotation": {"number": 64, "value": 0}, "group": "control_change"}, {"time": 3138, "annotation": {"number": 64, "value": 127}, "group": "control_change"}, {"time": 3157, "annotation": {"number": 64, "value": 0}, "group": "control_change"}, {"time": 3159, "annotation": {"number": 64, "value": 127}, "group": "control_change"}, {"time": 3182, "annotation": {"number": 64, "value": 0}, "group": "control_change"}, {"time": 3184, "annotation": {"number": 64, "value": 127}, "group": "control_change"}, {"time": 3205, "annotation": {"number": 64, "value": 0}, "group": "control_change"}, {"time": 3207, "annotation": {"number": 64, "value": 127}, "group": "control_change"}, {"time": 3230, "annotation": {"number": 64, "value": 0}, "group": "control_change"}, {"time": 3233, "annotation": {"number": 64, "value": 127}, "group": "control_change"}, {"time": 3253, "annotation": {"number": 64, "value": 0}, "group": "control_change"}, {"time": 3255, "annotation": {"number": 64, "value": 127}, "group": "control_change"}, {"time": 3277, "annotation": {"number": 64, "value": 0}, "group": "control_change"}, {"time": 3279, "annotation": {"number": 64, "value": 127}, "group": "control_change"}, {"time": 3279, "annotation": {"number": 64, "value": 0}, "group": "control_change"}, {"time": 3324, "annotation": {"number": 64, "value": 0}, "group": "control_change"}, {"time": 3326, "annotation": {"number": 64, "value": 127}, "group": "control_change"}, {"time": 3374, "annotation": {"number": 64, "value": 0}, "group": "control_change"}, {"time": 3377, "annotation": {"number": 64, "value": 127}, "group": "control_change"}, {"time": 3421, "annotation": {"number": 64, "value": 0}, "group": "control_change"}, {"time": 3423, "annotation": {"number": 64, "value": 127}, "group": "control_change"}, {"time": 3468, "annotation": {"number": 64, "value": 0}, "group": "control_change"}, {"time": 3471, "annotation": {"number": 64, "value": 127}, "group": "control_change"}, {"time": 3496, "annotation": {"number": 64, "value": 0}, "group": "control_change"}, {"time": 3498, "annotation": {"number": 64, "value": 127}, "group": "control_change"}, {"time": 3518, "annotation": {"number": 64, "value": 0}, "group": "control_change"}, {"time": 3548, "annotation": {"number": 64, "value": 127}, "group": "control_change"}]}]}