{"metadata": {"schema_version": "0.2", "title": "None", "source_filename": "712.mid", "source_format": "midi"}, "resolution": 12, "tempos": [{"time": 0, "qpm": 71.00011951686785}], "time_signatures": [{"time": 0, "numerator": 1, "denominator": 4}], "tracks": [{"program": 4, "is_drum": false, "name": "MELODY", "notes": [{"time": 251, "pitch": 71, "duration": 3, "velocity": 87}, {"time": 255, "pitch": 69, "duration": 1, "velocity": 81}, {"time": 257, "pitch": 71, "duration": 2, "velocity": 88}, {"time": 261, "pitch": 69, "duration": 1, "velocity": 87}, {"time": 263, "pitch": 71, "duration": 2, "velocity": 88}, {"time": 267, "pitch": 69, "duration": 1, "velocity": 86}, {"time": 269, "pitch": 71, "duration": 3, "velocity": 87}, {"time": 275, "pitch": 76, "duration": 2, "velocity": 87}, {"time": 279, "pitch": 71, "duration": 2, "velocity": 91}, {"time": 285, "pitch": 71, "duration": 1, "velocity": 87}, {"time": 287, "pitch": 71, "duration": 2, "velocity": 88}, {"time": 290, "pitch": 71, "duration": 2, "velocity": 86}, {"time": 293, "pitch": 69, "duration": 5, "velocity": 93}, {"time": 299, "pitch": 67, "duration": 2, "velocity": 87}, {"time": 303, "pitch": 67, "duration": 1, "velocity": 86}, {"time": 305, "pitch": 69, "duration": 4, "velocity": 90}, {"time": 311, "pitch": 67, "duration": 3, "velocity": 87}, {"time": 315, "pitch": 71, "duration": 20, "velocity": 88}, {"time": 347, "pitch": 71, "duration": 2, "velocity": 91}, {"time": 351, "pitch": 69, "duration": 1, "velocity": 87}, {"time": 353, "pitch": 71, "duration": 1, "velocity": 87}, {"time": 357, "pitch": 69, "duration": 1, "velocity": 90}, {"time": 359, "pitch": 71, "duration": 2, "velocity": 87}, {"time": 362, "pitch": 69, "duration": 2, "velocity": 90}, {"time": 365, "pitch": 71, "duration": 2, "velocity": 91}, {"time": 369, "pitch": 76, "duration": 3, "velocity": 90}, {"time": 374, "pitch": 78, "duration": 4, "velocity": 90}, {"time": 380, "pitch": 79, "duration": 7, "velocity": 86}, {"time": 389, "pitch": 81, "duration": 4, "velocity": 90}, {"time": 395, "pitch": 79, "duration": 1, "velocity": 90}, {"time": 398, "pitch": 79, "duration": 7, "velocity": 87}, {"time": 406, "pitch": 76, "duration": 3, "velocity": 88}, {"time": 410, "pitch": 78, "duration": 18, "velocity": 90}, {"time": 431, "pitch": 71, "duration": 2, "velocity": 97}, {"time": 434, "pitch": 71, "duration": 2, "velocity": 87}, {"time": 437, "pitch": 72, "duration": 5, "velocity": 97}, {"time": 443, "pitch": 71, "duration": 2, "velocity": 95}, {"time": 446, "pitch": 72, "duration": 5, "velocity": 93}, {"time": 452, "pitch": 79, "duration": 3, "velocity": 88}, {"time": 458, "pitch": 79, "duration": 7, "velocity": 91}, {"time": 464, "pitch": 78, "duration": 10, "velocity": 91}, {"time": 479, "pitch": 71, "duration": 2, "velocity": 95}, {"time": 483, "pitch": 71, "duration": 1, "velocity": 90}, {"time": 485, "pitch": 83, "duration": 3, "velocity": 92}, {"time": 491, "pitch": 83, "duration": 4, "velocity": 92}, {"time": 497, "pitch": 81, "duration": 4, "velocity": 90}, {"time": 503, "pitch": 79, "duration": 4, "velocity": 88}, {"time": 509, "pitch": 81, "duration": 4, "velocity": 91}, {"time": 513, "pitch": 79, "duration": 2, "velocity": 87}, {"time": 514, "pitch": 76, "duration": 9, "velocity": 90}, {"time": 526, "pitch": 76, "duration": 3, "velocity": 102}, {"time": 530, "pitch": 78, "duration": 2, "velocity": 92}, {"time": 533, "pitch": 79, "duration": 2, "velocity": 92}, {"time": 536, "pitch": 79, "duration": 2, "velocity": 84}, {"time": 539, "pitch": 76, "duration": 2, "velocity": 90}, {"time": 542, "pitch": 79, "duration": 9, "velocity": 92}, {"time": 557, "pitch": 79, "duration": 2, "velocity": 88}, {"time": 561, "pitch": 79, "duration": 1, "velocity": 87}, {"time": 562, "pitch": 76, "duration": 3, "velocity": 88}, {"time": 566, "pitch": 79, "duration": 4, "velocity": 90}, {"time": 572, "pitch": 81, "duration": 5, "velocity": 90}, {"time": 578, "pitch": 79, "duration": 2, "velocity": 86}, {"time": 581, "pitch": 78, "duration": 16, "velocity": 88}, {"time": 598, "pitch": 76, "duration": 3, "velocity": 92}, {"time": 602, "pitch": 78, "duration": 14, "velocity": 88}, {"time": 617, "pitch": 83, "duration": 3, "velocity": 102}, {"time": 620, "pitch": 81, "duration": 2, "velocity": 90}, {"time": 623, "pitch": 79, "duration": 2, "velocity": 92}, {"time": 626, "pitch": 78, "duration": 2, "velocity": 91}, {"time": 629, "pitch": 79, "duration": 4, "velocity": 92}, {"time": 635, "pitch": 71, "duration": 2, "velocity": 93}, {"time": 638, "pitch": 71, "duration": 5, "velocity": 90}, {"time": 644, "pitch": 79, "duration": 4, "velocity": 88}, {"time": 650, "pitch": 78, "duration": 11, "velocity": 88}, {"time": 665, "pitch": 78, "duration": 3, "velocity": 91}, {"time": 668, "pitch": 76, "duration": 2, "velocity": 90}, {"time": 670, "pitch": 74, "duration": 2, "velocity": 90}, {"time": 674, "pitch": 76, "duration": 9, "velocity": 90}, {"time": 686, "pitch": 67, "duration": 1, "velocity": 82}, {"time": 688, "pitch": 67, "duration": 6, "velocity": 86}, {"time": 695, "pitch": 76, "duration": 3, "velocity": 90}, {"time": 698, "pitch": 74, "duration": 11, "velocity": 87}, {"time": 713, "pitch": 74, "duration": 3, "velocity": 97}, {"time": 716, "pitch": 72, "duration": 2, "velocity": 82}, {"time": 719, "pitch": 71, "duration": 4, "velocity": 87}, {"time": 725, "pitch": 72, "duration": 7, "velocity": 90}, {"time": 734, "pitch": 72, "duration": 1, "velocity": 88}, {"time": 736, "pitch": 72, "duration": 5, "velocity": 93}, {"time": 742, "pitch": 83, "duration": 4, "velocity": 97}, {"time": 748, "pitch": 83, "duration": 5, "velocity": 93}, {"time": 755, "pitch": 81, "duration": 2, "velocity": 87}, {"time": 758, "pitch": 79, "duration": 7, "velocity": 88}, {"time": 767, "pitch": 76, "duration": 3, "velocity": 97}, {"time": 771, "pitch": 78, "duration": 1, "velocity": 86}, {"time": 773, "pitch": 79, "duration": 2, "velocity": 88}, {"time": 777, "pitch": 79, "duration": 1, "velocity": 84}, {"time": 779, "pitch": 79, "duration": 2, "velocity": 86}, {"time": 783, "pitch": 79, "duration": 1, "velocity": 85}, {"time": 785, "pitch": 79, "duration": 2, "velocity": 87}, {"time": 789, "pitch": 81, "duration": 5, "velocity": 89}, {"time": 794, "pitch": 76, "duration": 5, "velocity": 88}, {"time": 800, "pitch": 78, "duration": 5, "velocity": 88}, {"time": 809, "pitch": 83, "duration": 3, "velocity": 102}, {"time": 812, "pitch": 81, "duration": 2, "velocity": 90}, {"time": 815, "pitch": 79, "duration": 2, "velocity": 92}, {"time": 818, "pitch": 78, "duration": 2, "velocity": 91}, {"time": 821, "pitch": 79, "duration": 4, "velocity": 92}, {"time": 827, "pitch": 71, "duration": 2, "velocity": 93}, {"time": 830, "pitch": 71, "duration": 5, "velocity": 90}, {"time": 836, "pitch": 79, "duration": 4, "velocity": 88}, {"time": 842, "pitch": 78, "duration": 11, "velocity": 88}, {"time": 857, "pitch": 78, "duration": 3, "velocity": 91}, {"time": 860, "pitch": 76, "duration": 2, "velocity": 90}, {"time": 862, "pitch": 74, "duration": 2, "velocity": 90}, {"time": 866, "pitch": 76, "duration": 9, "velocity": 90}, {"time": 878, "pitch": 67, "duration": 1, "velocity": 82}, {"time": 880, "pitch": 67, "duration": 6, "velocity": 86}, {"time": 887, "pitch": 76, "duration": 3, "velocity": 90}, {"time": 890, "pitch": 74, "duration": 11, "velocity": 87}, {"time": 905, "pitch": 74, "duration": 3, "velocity": 97}, {"time": 908, "pitch": 72, "duration": 2, "velocity": 82}, {"time": 911, "pitch": 71, "duration": 4, "velocity": 87}, {"time": 917, "pitch": 72, "duration": 7, "velocity": 90}, {"time": 926, "pitch": 72, "duration": 1, "velocity": 88}, {"time": 928, "pitch": 72, "duration": 5, "velocity": 93}, {"time": 934, "pitch": 83, "duration": 4, "velocity": 97}, {"time": 940, "pitch": 83, "duration": 5, "velocity": 93}, {"time": 947, "pitch": 81, "duration": 2, "velocity": 87}, {"time": 950, "pitch": 79, "duration": 7, "velocity": 88}, {"time": 959, "pitch": 76, "duration": 3, "velocity": 97}, {"time": 963, "pitch": 78, "duration": 1, "velocity": 86}, {"time": 965, "pitch": 79, "duration": 2, "velocity": 88}, {"time": 969, "pitch": 79, "duration": 1, "velocity": 84}, {"time": 971, "pitch": 79, "duration": 2, "velocity": 86}, {"time": 975, "pitch": 79, "duration": 1, "velocity": 85}, {"time": 977, "pitch": 79, "duration": 2, "velocity": 87}, {"time": 981, "pitch": 81, "duration": 5, "velocity": 89}, {"time": 986, "pitch": 76, "duration": 5, "velocity": 88}, {"time": 992, "pitch": 78, "duration": 8, "velocity": 88}, {"time": 1000, "pitch": 76, "duration": 4, "velocity": 91}, {"time": 1004, "pitch": 75, "duration": 8, "velocity": 86}, {"time": 1012, "pitch": 78, "duration": 10, "velocity": 88}, {"time": 1022, "pitch": 76, "duration": 24, "velocity": 88}, {"time": 1211, "pitch": 71, "duration": 3, "velocity": 87}, {"time": 1215, "pitch": 69, "duration": 1, "velocity": 81}, {"time": 1217, "pitch": 71, "duration": 2, "velocity": 88}, {"time": 1221, "pitch": 69, "duration": 1, "velocity": 87}, {"time": 1223, "pitch": 71, "duration": 2, "velocity": 88}, {"time": 1227, "pitch": 69, "duration": 1, "velocity": 86}, {"time": 1229, "pitch": 71, "duration": 3, "velocity": 87}, {"time": 1235, "pitch": 76, "duration": 2, "velocity": 87}, {"time": 1239, "pitch": 71, "duration": 2, "velocity": 91}, {"time": 1245, "pitch": 71, "duration": 1, "velocity": 87}, {"time": 1247, "pitch": 71, "duration": 2, "velocity": 88}, {"time": 1250, "pitch": 71, "duration": 2, "velocity": 86}, {"time": 1253, "pitch": 69, "duration": 5, "velocity": 93}, {"time": 1259, "pitch": 67, "duration": 2, "velocity": 87}, {"time": 1263, "pitch": 67, "duration": 1, "velocity": 86}, {"time": 1265, "pitch": 69, "duration": 4, "velocity": 90}, {"time": 1271, "pitch": 67, "duration": 3, "velocity": 87}, {"time": 1275, "pitch": 71, "duration": 20, "velocity": 88}, {"time": 1307, "pitch": 71, "duration": 2, "velocity": 91}, {"time": 1311, "pitch": 69, "duration": 1, "velocity": 87}, {"time": 1313, "pitch": 71, "duration": 1, "velocity": 87}, {"time": 1317, "pitch": 69, "duration": 1, "velocity": 90}, {"time": 1319, "pitch": 71, "duration": 2, "velocity": 87}, {"time": 1322, "pitch": 69, "duration": 2, "velocity": 90}, {"time": 1325, "pitch": 71, "duration": 2, "velocity": 91}, {"time": 1329, "pitch": 76, "duration": 3, "velocity": 90}, {"time": 1334, "pitch": 78, "duration": 4, "velocity": 90}, {"time": 1340, "pitch": 79, "duration": 7, "velocity": 86}, {"time": 1349, "pitch": 81, "duration": 4, "velocity": 90}, {"time": 1355, "pitch": 79, "duration": 1, "velocity": 90}, {"time": 1358, "pitch": 79, "duration": 7, "velocity": 87}, {"time": 1366, "pitch": 76, "duration": 3, "velocity": 88}, {"time": 1370, "pitch": 78, "duration": 18, "velocity": 90}, {"time": 1391, "pitch": 71, "duration": 2, "velocity": 97}, {"time": 1394, "pitch": 71, "duration": 2, "velocity": 87}, {"time": 1397, "pitch": 72, "duration": 5, "velocity": 97}, {"time": 1403, "pitch": 71, "duration": 2, "velocity": 95}, {"time": 1406, "pitch": 72, "duration": 5, "velocity": 93}, {"time": 1412, "pitch": 79, "duration": 3, "velocity": 88}, {"time": 1418, "pitch": 79, "duration": 7, "velocity": 91}, {"time": 1424, "pitch": 78, "duration": 10, "velocity": 91}, {"time": 1439, "pitch": 71, "duration": 2, "velocity": 95}, {"time": 1443, "pitch": 71, "duration": 1, "velocity": 90}, {"time": 1445, "pitch": 83, "duration": 3, "velocity": 92}, {"time": 1451, "pitch": 83, "duration": 4, "velocity": 92}, {"time": 1457, "pitch": 81, "duration": 4, "velocity": 90}, {"time": 1463, "pitch": 79, "duration": 4, "velocity": 88}, {"time": 1469, "pitch": 81, "duration": 4, "velocity": 91}, {"time": 1473, "pitch": 79, "duration": 2, "velocity": 87}, {"time": 1474, "pitch": 76, "duration": 9, "velocity": 90}, {"time": 1486, "pitch": 76, "duration": 3, "velocity": 102}, {"time": 1490, "pitch": 78, "duration": 2, "velocity": 92}, {"time": 1493, "pitch": 79, "duration": 2, "velocity": 92}, {"time": 1496, "pitch": 79, "duration": 2, "velocity": 84}, {"time": 1499, "pitch": 76, "duration": 2, "velocity": 90}, {"time": 1502, "pitch": 79, "duration": 9, "velocity": 92}, {"time": 1517, "pitch": 79, "duration": 2, "velocity": 88}, {"time": 1521, "pitch": 79, "duration": 1, "velocity": 87}, {"time": 1522, "pitch": 76, "duration": 3, "velocity": 88}, {"time": 1526, "pitch": 79, "duration": 4, "velocity": 90}, {"time": 1532, "pitch": 81, "duration": 5, "velocity": 90}, {"time": 1538, "pitch": 79, "duration": 2, "velocity": 86}, {"time": 1541, "pitch": 78, "duration": 16, "velocity": 88}, {"time": 1558, "pitch": 84, "duration": 3, "velocity": 92}, {"time": 1562, "pitch": 84, "duration": 14, "velocity": 88}, {"time": 1577, "pitch": 84, "duration": 3, "velocity": 102}, {"time": 1580, "pitch": 82, "duration": 2, "velocity": 90}, {"time": 1583, "pitch": 80, "duration": 2, "velocity": 92}, {"time": 1586, "pitch": 79, "duration": 2, "velocity": 91}, {"time": 1589, "pitch": 80, "duration": 4, "velocity": 92}, {"time": 1595, "pitch": 72, "duration": 2, "velocity": 93}, {"time": 1598, "pitch": 72, "duration": 5, "velocity": 90}, {"time": 1604, "pitch": 80, "duration": 4, "velocity": 88}, {"time": 1610, "pitch": 79, "duration": 11, "velocity": 88}, {"time": 1625, "pitch": 79, "duration": 3, "velocity": 91}, {"time": 1628, "pitch": 77, "duration": 2, "velocity": 90}, {"time": 1630, "pitch": 75, "duration": 2, "velocity": 90}, {"time": 1634, "pitch": 77, "duration": 9, "velocity": 90}, {"time": 1646, "pitch": 68, "duration": 1, "velocity": 82}, {"time": 1648, "pitch": 68, "duration": 6, "velocity": 86}, {"time": 1655, "pitch": 77, "duration": 3, "velocity": 90}, {"time": 1658, "pitch": 75, "duration": 11, "velocity": 87}, {"time": 1673, "pitch": 75, "duration": 3, "velocity": 97}, {"time": 1676, "pitch": 73, "duration": 2, "velocity": 82}, {"time": 1679, "pitch": 72, "duration": 4, "velocity": 87}, {"time": 1685, "pitch": 73, "duration": 7, "velocity": 90}, {"time": 1694, "pitch": 73, "duration": 1, "velocity": 88}, {"time": 1696, "pitch": 73, "duration": 5, "velocity": 93}, {"time": 1702, "pitch": 84, "duration": 4, "velocity": 97}, {"time": 1708, "pitch": 84, "duration": 5, "velocity": 93}, {"time": 1715, "pitch": 82, "duration": 2, "velocity": 87}, {"time": 1718, "pitch": 80, "duration": 7, "velocity": 88}, {"time": 1727, "pitch": 77, "duration": 3, "velocity": 97}, {"time": 1731, "pitch": 79, "duration": 1, "velocity": 86}, {"time": 1733, "pitch": 80, "duration": 2, "velocity": 88}, {"time": 1737, "pitch": 80, "duration": 1, "velocity": 84}, {"time": 1739, "pitch": 80, "duration": 2, "velocity": 86}, {"time": 1743, "pitch": 80, "duration": 1, "velocity": 85}, {"time": 1745, "pitch": 80, "duration": 2, "velocity": 87}, {"time": 1749, "pitch": 82, "duration": 5, "velocity": 89}, {"time": 1754, "pitch": 77, "duration": 5, "velocity": 88}, {"time": 1760, "pitch": 79, "duration": 5, "velocity": 88}, {"time": 1769, "pitch": 84, "duration": 3, "velocity": 102}, {"time": 1772, "pitch": 82, "duration": 2, "velocity": 90}, {"time": 1775, "pitch": 80, "duration": 2, "velocity": 92}, {"time": 1778, "pitch": 79, "duration": 2, "velocity": 91}, {"time": 1781, "pitch": 80, "duration": 4, "velocity": 92}, {"time": 1787, "pitch": 72, "duration": 2, "velocity": 93}, {"time": 1790, "pitch": 72, "duration": 5, "velocity": 90}, {"time": 1796, "pitch": 80, "duration": 4, "velocity": 88}, {"time": 1802, "pitch": 79, "duration": 11, "velocity": 88}, {"time": 1817, "pitch": 79, "duration": 3, "velocity": 91}, {"time": 1820, "pitch": 77, "duration": 2, "velocity": 90}, {"time": 1822, "pitch": 75, "duration": 2, "velocity": 90}, {"time": 1826, "pitch": 77, "duration": 9, "velocity": 90}, {"time": 1838, "pitch": 68, "duration": 1, "velocity": 82}, {"time": 1840, "pitch": 68, "duration": 6, "velocity": 86}, {"time": 1847, "pitch": 77, "duration": 3, "velocity": 90}, {"time": 1850, "pitch": 75, "duration": 11, "velocity": 87}, {"time": 1865, "pitch": 75, "duration": 3, "velocity": 97}, {"time": 1868, "pitch": 73, "duration": 2, "velocity": 82}, {"time": 1871, "pitch": 72, "duration": 4, "velocity": 87}, {"time": 1877, "pitch": 73, "duration": 7, "velocity": 90}, {"time": 1886, "pitch": 73, "duration": 1, "velocity": 88}, {"time": 1888, "pitch": 73, "duration": 5, "velocity": 93}, {"time": 1894, "pitch": 84, "duration": 4, "velocity": 97}, {"time": 1900, "pitch": 84, "duration": 5, "velocity": 93}, {"time": 1907, "pitch": 82, "duration": 2, "velocity": 87}, {"time": 1910, "pitch": 80, "duration": 7, "velocity": 88}, {"time": 1919, "pitch": 77, "duration": 3, "velocity": 97}, {"time": 1923, "pitch": 79, "duration": 1, "velocity": 86}, {"time": 1925, "pitch": 80, "duration": 2, "velocity": 88}, {"time": 1929, "pitch": 80, "duration": 1, "velocity": 84}, {"time": 1931, "pitch": 80, "duration": 2, "velocity": 86}, {"time": 1935, "pitch": 80, "duration": 1, "velocity": 85}, {"time": 1937, "pitch": 80, "duration": 2, "velocity": 87}, {"time": 1941, "pitch": 82, "duration": 5, "velocity": 89}, {"time": 1946, "pitch": 77, "duration": 5, "velocity": 88}, {"time": 1952, "pitch": 79, "duration": 8, "velocity": 88}, {"time": 1960, "pitch": 77, "duration": 4, "velocity": 91}, {"time": 1964, "pitch": 80, "duration": 8, "velocity": 86}, {"time": 1972, "pitch": 82, "duration": 35, "velocity": 88}, {"time": 2009, "pitch": 82, "duration": 4, "velocity": 92}, {"time": 2014, "pitch": 85, "duration": 4, "velocity": 97}, {"time": 2020, "pitch": 84, "duration": 4, "velocity": 90}, {"time": 2026, "pitch": 80, "duration": 3, "velocity": 90}, {"time": 2031, "pitch": 77, "duration": 1, "velocity": 84}, {"time": 2033, "pitch": 80, "duration": 2, "velocity": 93}, {"time": 2036, "pitch": 77, "duration": 2, "velocity": 86}, {"time": 2038, "pitch": 82, "duration": 5, "velocity": 90}, {"time": 2045, "pitch": 80, "duration": 11, "velocity": 102}, {"time": 2153, "pitch": 86, "duration": 3, "velocity": 102}, {"time": 2156, "pitch": 84, "duration": 2, "velocity": 90}, {"time": 2159, "pitch": 82, "duration": 2, "velocity": 92}, {"time": 2162, "pitch": 81, "duration": 2, "velocity": 91}, {"time": 2165, "pitch": 82, "duration": 4, "velocity": 92}, {"time": 2171, "pitch": 74, "duration": 2, "velocity": 93}, {"time": 2174, "pitch": 74, "duration": 5, "velocity": 90}, {"time": 2180, "pitch": 82, "duration": 4, "velocity": 88}, {"time": 2186, "pitch": 81, "duration": 11, "velocity": 88}, {"time": 2201, "pitch": 81, "duration": 3, "velocity": 91}, {"time": 2204, "pitch": 79, "duration": 2, "velocity": 90}, {"time": 2206, "pitch": 77, "duration": 2, "velocity": 90}, {"time": 2210, "pitch": 79, "duration": 9, "velocity": 90}, {"time": 2222, "pitch": 70, "duration": 1, "velocity": 82}, {"time": 2224, "pitch": 70, "duration": 6, "velocity": 86}, {"time": 2231, "pitch": 79, "duration": 3, "velocity": 90}, {"time": 2234, "pitch": 77, "duration": 11, "velocity": 87}, {"time": 2249, "pitch": 77, "duration": 3, "velocity": 97}, {"time": 2252, "pitch": 75, "duration": 2, "velocity": 82}, {"time": 2255, "pitch": 74, "duration": 4, "velocity": 87}, {"time": 2261, "pitch": 75, "duration": 7, "velocity": 90}, {"time": 2270, "pitch": 75, "duration": 1, "velocity": 88}, {"time": 2272, "pitch": 75, "duration": 5, "velocity": 93}, {"time": 2278, "pitch": 86, "duration": 4, "velocity": 97}, {"time": 2284, "pitch": 86, "duration": 5, "velocity": 93}, {"time": 2291, "pitch": 84, "duration": 2, "velocity": 87}, {"time": 2294, "pitch": 82, "duration": 7, "velocity": 88}, {"time": 2303, "pitch": 79, "duration": 3, "velocity": 97}, {"time": 2307, "pitch": 81, "duration": 1, "velocity": 86}, {"time": 2309, "pitch": 82, "duration": 2, "velocity": 88}, {"time": 2313, "pitch": 82, "duration": 1, "velocity": 84}, {"time": 2315, "pitch": 82, "duration": 2, "velocity": 86}, {"time": 2319, "pitch": 82, "duration": 1, "velocity": 85}, {"time": 2321, "pitch": 82, "duration": 2, "velocity": 87}, {"time": 2325, "pitch": 84, "duration": 5, "velocity": 89}, {"time": 2330, "pitch": 86, "duration": 5, "velocity": 88}, {"time": 2339, "pitch": 81, "duration": 2, "velocity": 88}, {"time": 2345, "pitch": 86, "duration": 3, "velocity": 102}, {"time": 2348, "pitch": 84, "duration": 2, "velocity": 90}, {"time": 2351, "pitch": 86, "duration": 2, "velocity": 92}, {"time": 2354, "pitch": 85, "duration": 2, "velocity": 91}, {"time": 2357, "pitch": 86, "duration": 4, "velocity": 92}, {"time": 2363, "pitch": 79, "duration": 2, "velocity": 93}, {"time": 2366, "pitch": 79, "duration": 5, "velocity": 90}, {"time": 2372, "pitch": 86, "duration": 4, "velocity": 88}, {"time": 2381, "pitch": 81, "duration": 8, "velocity": 88}, {"time": 2393, "pitch": 82, "duration": 3, "velocity": 91}, {"time": 2396, "pitch": 81, "duration": 1, "velocity": 90}, {"time": 2399, "pitch": 79, "duration": 1, "velocity": 90}, {"time": 2402, "pitch": 77, "duration": 1, "velocity": 97}, {"time": 2405, "pitch": 79, "duration": 8, "velocity": 90}, {"time": 2414, "pitch": 79, "duration": 1, "velocity": 82}, {"time": 2417, "pitch": 79, "duration": 5, "velocity": 86}, {"time": 2423, "pitch": 82, "duration": 3, "velocity": 90}, {"time": 2426, "pitch": 79, "duration": 10, "velocity": 87}, {"time": 2435, "pitch": 77, "duration": 4, "velocity": 97}, {"time": 2441, "pitch": 77, "duration": 3, "velocity": 97}, {"time": 2444, "pitch": 77, "duration": 5, "velocity": 82}, {"time": 2450, "pitch": 74, "duration": 1, "velocity": 87}, {"time": 2453, "pitch": 75, "duration": 7, "velocity": 90}, {"time": 2462, "pitch": 75, "duration": 1, "velocity": 88}, {"time": 2464, "pitch": 75, "duration": 5, "velocity": 93}, {"time": 2470, "pitch": 86, "duration": 4, "velocity": 97}, {"time": 2476, "pitch": 86, "duration": 5, "velocity": 93}, {"time": 2483, "pitch": 84, "duration": 2, "velocity": 87}, {"time": 2486, "pitch": 82, "duration": 7, "velocity": 88}, {"time": 2495, "pitch": 79, "duration": 3, "velocity": 97}, {"time": 2499, "pitch": 81, "duration": 1, "velocity": 86}, {"time": 2501, "pitch": 82, "duration": 2, "velocity": 88}, {"time": 2505, "pitch": 82, "duration": 1, "velocity": 84}, {"time": 2507, "pitch": 82, "duration": 2, "velocity": 86}, {"time": 2511, "pitch": 82, "duration": 1, "velocity": 85}, {"time": 2513, "pitch": 82, "duration": 2, "velocity": 87}, {"time": 2517, "pitch": 84, "duration": 5, "velocity": 89}, {"time": 2522, "pitch": 86, "duration": 5, "velocity": 88}, {"time": 2528, "pitch": 81, "duration": 8, "velocity": 88}, {"time": 2537, "pitch": 86, "duration": 3, "velocity": 102}, {"time": 2540, "pitch": 84, "duration": 2, "velocity": 90}, {"time": 2543, "pitch": 86, "duration": 2, "velocity": 92}, {"time": 2546, "pitch": 85, "duration": 2, "velocity": 91}, {"time": 2549, "pitch": 86, "duration": 4, "velocity": 92}, {"time": 2558, "pitch": 79, "duration": 1, "velocity": 93}, {"time": 2561, "pitch": 79, "duration": 4, "velocity": 90}, {"time": 2564, "pitch": 86, "duration": 4, "velocity": 88}, {"time": 2573, "pitch": 81, "duration": 8, "velocity": 88}, {"time": 2585, "pitch": 82, "duration": 3, "velocity": 91}, {"time": 2589, "pitch": 81, "duration": 1, "velocity": 90}, {"time": 2591, "pitch": 79, "duration": 2, "velocity": 90}, {"time": 2595, "pitch": 77, "duration": 3, "velocity": 97}, {"time": 2597, "pitch": 79, "duration": 8, "velocity": 90}, {"time": 2606, "pitch": 79, "duration": 1, "velocity": 82}, {"time": 2608, "pitch": 79, "duration": 6, "velocity": 86}, {"time": 2615, "pitch": 82, "duration": 3, "velocity": 90}, {"time": 2620, "pitch": 77, "duration": 3, "velocity": 87}, {"time": 2627, "pitch": 77, "duration": 3, "velocity": 97}, {"time": 2633, "pitch": 77, "duration": 3, "velocity": 97}, {"time": 2637, "pitch": 75, "duration": 1, "velocity": 82}, {"time": 2642, "pitch": 74, "duration": 2, "velocity": 87}, {"time": 2645, "pitch": 75, "duration": 7, "velocity": 90}, {"time": 2654, "pitch": 75, "duration": 1, "velocity": 88}, {"time": 2656, "pitch": 75, "duration": 5, "velocity": 93}, {"time": 2662, "pitch": 86, "duration": 4, "velocity": 97}, {"time": 2668, "pitch": 86, "duration": 5, "velocity": 93}, {"time": 2675, "pitch": 84, "duration": 2, "velocity": 87}, {"time": 2678, "pitch": 82, "duration": 7, "velocity": 88}, {"time": 2687, "pitch": 79, "duration": 3, "velocity": 97}, {"time": 2691, "pitch": 81, "duration": 1, "velocity": 86}, {"time": 2693, "pitch": 82, "duration": 2, "velocity": 88}, {"time": 2697, "pitch": 82, "duration": 1, "velocity": 84}, {"time": 2699, "pitch": 82, "duration": 2, "velocity": 86}, {"time": 2703, "pitch": 82, "duration": 1, "velocity": 85}, {"time": 2705, "pitch": 82, "duration": 2, "velocity": 87}, {"time": 2709, "pitch": 84, "duration": 5, "velocity": 89}, {"time": 2714, "pitch": 86, "duration": 5, "velocity": 88}, {"time": 2720, "pitch": 81, "duration": 8, "velocity": 88}, {"time": 2728, "pitch": 79, "duration": 4, "velocity": 91}, {"time": 2732, "pitch": 78, "duration": 8, "velocity": 86}, {"time": 2740, "pitch": 79, "duration": 35, "velocity": 88}, {"time": 2759, "pitch": 82, "duration": 1, "velocity": 101}, {"time": 2762, "pitch": 82, "duration": 6, "velocity": 101}, {"time": 2768, "pitch": 81, "duration": 12, "velocity": 101}, {"time": 2783, "pitch": 79, "duration": 5, "velocity": 101}, {"time": 2789, "pitch": 82, "duration": 17, "velocity": 101}, {"time": 2807, "pitch": 84, "duration": 4, "velocity": 101}, {"time": 2810, "pitch": 86, "duration": 5, "velocity": 101}, {"time": 2816, "pitch": 84, "duration": 16, "velocity": 101}, {"time": 2829, "pitch": 79, "duration": 6, "velocity": 101}, {"time": 2834, "pitch": 77, "duration": 7, "velocity": 101}, {"time": 2840, "pitch": 79, "duration": 13, "velocity": 101}, {"time": 2855, "pitch": 72, "duration": 2, "velocity": 101}, {"time": 2858, "pitch": 74, "duration": 3, "velocity": 101}, {"time": 2861, "pitch": 72, "duration": 7, "velocity": 101}, {"time": 2867, "pitch": 70, "duration": 11, "velocity": 101}, {"time": 2885, "pitch": 72, "duration": 15, "velocity": 101}, {"time": 2906, "pitch": 70, "duration": 3, "velocity": 105}, {"time": 2909, "pitch": 69, "duration": 7, "velocity": 105}, {"time": 2915, "pitch": 67, "duration": 6, "velocity": 105}, {"time": 2921, "pitch": 72, "duration": 5, "velocity": 105}, {"time": 2927, "pitch": 70, "duration": 4, "velocity": 105}, {"time": 2930, "pitch": 69, "duration": 4, "velocity": 105}, {"time": 2945, "pitch": 67, "duration": 19, "velocity": 105}]}, {"program": 0, "is_drum": false, "name": "PIANO", "notes": [{"time": 52, "pitch": 59, "duration": 11, "velocity": 75}, {"time": 53, "pitch": 40, "duration": 14, "velocity": 88}, {"time": 53, "pitch": 64, "duration": 9, "velocity": 82}, {"time": 59, "pitch": 47, "duration": 8, "velocity": 62}, {"time": 65, "pitch": 67, "duration": 4, "velocity": 81}, {"time": 65, "pitch": 59, "duration": 2, "velocity": 80}, {"time": 65, "pitch": 64, "duration": 3, "velocity": 82}, {"time": 76, "pitch": 62, "duration": 9, "velocity": 73}, {"time": 76, "pitch": 66, "duration": 12, "velocity": 73}, {"time": 77, "pitch": 38, "duration": 13, "velocity": 84}, {"time": 77, "pitch": 69, "duration": 12, "velocity": 75}, {"time": 83, "pitch": 45, "duration": 7, "velocity": 73}, {"time": 88, "pitch": 62, "duration": 2, "velocity": 82}, {"time": 99, "pitch": 60, "duration": 10, "velocity": 68}, {"time": 100, "pitch": 64, "duration": 12, "velocity": 82}, {"time": 101, "pitch": 48, "duration": 13, "velocity": 88}, {"time": 101, "pitch": 67, "duration": 11, "velocity": 79}, {"time": 106, "pitch": 55, "duration": 8, "velocity": 72}, {"time": 113, "pitch": 60, "duration": 1, "velocity": 74}, {"time": 125, "pitch": 59, "duration": 7, "velocity": 75}, {"time": 125, "pitch": 66, "duration": 4, "velocity": 74}, {"time": 125, "pitch": 63, "duration": 8, "velocity": 75}, {"time": 125, "pitch": 47, "duration": 14, "velocity": 83}, {"time": 131, "pitch": 54, "duration": 7, "velocity": 58}, {"time": 137, "pitch": 59, "duration": 3, "velocity": 80}, {"time": 137, "pitch": 63, "duration": 2, "velocity": 79}, {"time": 137, "pitch": 71, "duration": 3, "velocity": 83}, {"time": 137, "pitch": 66, "duration": 2, "velocity": 75}, {"time": 148, "pitch": 52, "duration": 10, "velocity": 73}, {"time": 148, "pitch": 55, "duration": 9, "velocity": 80}, {"time": 149, "pitch": 40, "duration": 14, "velocity": 88}, {"time": 149, "pitch": 59, "duration": 9, "velocity": 85}, {"time": 154, "pitch": 47, "duration": 8, "velocity": 77}, {"time": 160, "pitch": 55, "duration": 3, "velocity": 85}, {"time": 160, "pitch": 59, "duration": 3, "velocity": 86}, {"time": 160, "pitch": 52, "duration": 3, "velocity": 87}, {"time": 171, "pitch": 57, "duration": 3, "velocity": 63}, {"time": 172, "pitch": 62, "duration": 7, "velocity": 75}, {"time": 173, "pitch": 38, "duration": 14, "velocity": 87}, {"time": 173, "pitch": 66, "duration": 16, "velocity": 76}, {"time": 179, "pitch": 45, "duration": 8, "velocity": 75}, {"time": 185, "pitch": 62, "duration": 6, "velocity": 87}, {"time": 190, "pitch": 57, "duration": 2, "velocity": 88}, {"time": 195, "pitch": 55, "duration": 2, "velocity": 72}, {"time": 196, "pitch": 60, "duration": 6, "velocity": 79}, {"time": 197, "pitch": 48, "duration": 13, "velocity": 85}, {"time": 197, "pitch": 64, "duration": 7, "velocity": 87}, {"time": 202, "pitch": 55, "duration": 8, "velocity": 85}, {"time": 209, "pitch": 60, "duration": 2, "velocity": 82}, {"time": 219, "pitch": 59, "duration": 7, "velocity": 72}, {"time": 220, "pitch": 63, "duration": 7, "velocity": 74}, {"time": 220, "pitch": 47, "duration": 14, "velocity": 86}, {"time": 221, "pitch": 66, "duration": 5, "velocity": 73}, {"time": 226, "pitch": 54, "duration": 7, "velocity": 73}, {"time": 232, "pitch": 66, "duration": 4, "velocity": 79}, {"time": 232, "pitch": 63, "duration": 4, "velocity": 82}, {"time": 232, "pitch": 71, "duration": 4, "velocity": 86}, {"time": 233, "pitch": 59, "duration": 1, "velocity": 82}, {"time": 245, "pitch": 40, "duration": 13, "velocity": 91}, {"time": 245, "pitch": 52, "duration": 7, "velocity": 82}, {"time": 245, "pitch": 55, "duration": 6, "velocity": 83}, {"time": 251, "pitch": 47, "duration": 7, "velocity": 64}, {"time": 257, "pitch": 52, "duration": 6, "velocity": 87}, {"time": 257, "pitch": 55, "duration": 6, "velocity": 86}, {"time": 257, "pitch": 59, "duration": 7, "velocity": 87}, {"time": 266, "pitch": 52, "duration": 2, "velocity": 84}, {"time": 266, "pitch": 55, "duration": 2, "velocity": 81}, {"time": 269, "pitch": 38, "duration": 14, "velocity": 88}, {"time": 272, "pitch": 50, "duration": 2, "velocity": 80}, {"time": 272, "pitch": 57, "duration": 2, "velocity": 77}, {"time": 275, "pitch": 45, "duration": 7, "velocity": 73}, {"time": 281, "pitch": 50, "duration": 3, "velocity": 85}, {"time": 281, "pitch": 54, "duration": 3, "velocity": 85}, {"time": 281, "pitch": 57, "duration": 4, "velocity": 79}, {"time": 281, "pitch": 62, "duration": 4, "velocity": 83}, {"time": 293, "pitch": 48, "duration": 14, "velocity": 86}, {"time": 293, "pitch": 55, "duration": 4, "velocity": 80}, {"time": 293, "pitch": 60, "duration": 6, "velocity": 80}, {"time": 299, "pitch": 55, "duration": 2, "velocity": 80}, {"time": 305, "pitch": 55, "duration": 3, "velocity": 88}, {"time": 305, "pitch": 60, "duration": 3, "velocity": 88}, {"time": 305, "pitch": 64, "duration": 3, "velocity": 87}, {"time": 317, "pitch": 47, "duration": 13, "velocity": 87}, {"time": 317, "pitch": 55, "duration": 1, "velocity": 82}, {"time": 320, "pitch": 59, "duration": 3, "velocity": 89}, {"time": 320, "pitch": 63, "duration": 4, "velocity": 84}, {"time": 323, "pitch": 51, "duration": 7, "velocity": 85}, {"time": 329, "pitch": 59, "duration": 6, "velocity": 91}, {"time": 329, "pitch": 63, "duration": 6, "velocity": 91}, {"time": 329, "pitch": 66, "duration": 7, "velocity": 86}, {"time": 335, "pitch": 54, "duration": 1, "velocity": 81}, {"time": 338, "pitch": 59, "duration": 1, "velocity": 87}, {"time": 341, "pitch": 40, "duration": 15, "velocity": 88}, {"time": 341, "pitch": 59, "duration": 7, "velocity": 82}, {"time": 341, "pitch": 64, "duration": 7, "velocity": 87}, {"time": 347, "pitch": 47, "duration": 8, "velocity": 74}, {"time": 350, "pitch": 59, "duration": 1, "velocity": 83}, {"time": 353, "pitch": 59, "duration": 3, "velocity": 87}, {"time": 353, "pitch": 64, "duration": 3, "velocity": 91}, {"time": 353, "pitch": 67, "duration": 3, "velocity": 87}, {"time": 365, "pitch": 38, "duration": 14, "velocity": 91}, {"time": 368, "pitch": 62, "duration": 2, "velocity": 84}, {"time": 368, "pitch": 66, "duration": 3, "velocity": 80}, {"time": 371, "pitch": 45, "duration": 8, "velocity": 87}, {"time": 377, "pitch": 57, "duration": 3, "velocity": 86}, {"time": 377, "pitch": 62, "duration": 6, "velocity": 88}, {"time": 377, "pitch": 66, "duration": 7, "velocity": 87}, {"time": 383, "pitch": 38, "duration": 1, "velocity": 91}, {"time": 383, "pitch": 57, "duration": 2, "velocity": 88}, {"time": 389, "pitch": 48, "duration": 15, "velocity": 87}, {"time": 389, "pitch": 55, "duration": 4, "velocity": 80}, {"time": 389, "pitch": 60, "duration": 7, "velocity": 81}, {"time": 398, "pitch": 55, "duration": 1, "velocity": 76}, {"time": 401, "pitch": 55, "duration": 5, "velocity": 95}, {"time": 401, "pitch": 60, "duration": 5, "velocity": 91}, {"time": 401, "pitch": 64, "duration": 5, "velocity": 92}, {"time": 407, "pitch": 48, "duration": 2, "velocity": 86}, {"time": 413, "pitch": 47, "duration": 6, "velocity": 88}, {"time": 416, "pitch": 59, "duration": 2, "velocity": 86}, {"time": 416, "pitch": 63, "duration": 2, "velocity": 76}, {"time": 416, "pitch": 66, "duration": 2, "velocity": 79}, {"time": 419, "pitch": 51, "duration": 5, "velocity": 88}, {"time": 425, "pitch": 54, "duration": 4, "velocity": 91}, {"time": 428, "pitch": 59, "duration": 2, "velocity": 87}, {"time": 428, "pitch": 63, "duration": 2, "velocity": 79}, {"time": 428, "pitch": 66, "duration": 2, "velocity": 75}, {"time": 431, "pitch": 51, "duration": 1, "velocity": 87}, {"time": 437, "pitch": 45, "duration": 15, "velocity": 87}, {"time": 437, "pitch": 57, "duration": 7, "velocity": 81}, {"time": 437, "pitch": 60, "duration": 8, "velocity": 87}, {"time": 443, "pitch": 52, "duration": 7, "velocity": 74}, {"time": 446, "pitch": 57, "duration": 1, "velocity": 76}, {"time": 449, "pitch": 57, "duration": 6, "velocity": 87}, {"time": 449, "pitch": 60, "duration": 7, "velocity": 89}, {"time": 449, "pitch": 64, "duration": 7, "velocity": 91}, {"time": 455, "pitch": 52, "duration": 4, "velocity": 85}, {"time": 458, "pitch": 57, "duration": 2, "velocity": 81}, {"time": 461, "pitch": 47, "duration": 5, "velocity": 88}, {"time": 464, "pitch": 59, "duration": 2, "velocity": 86}, {"time": 464, "pitch": 63, "duration": 1, "velocity": 74}, {"time": 464, "pitch": 66, "duration": 2, "velocity": 78}, {"time": 470, "pitch": 59, "duration": 1, "velocity": 76}, {"time": 473, "pitch": 54, "duration": 5, "velocity": 89}, {"time": 473, "pitch": 59, "duration": 6, "velocity": 79}, {"time": 473, "pitch": 63, "duration": 6, "velocity": 80}, {"time": 473, "pitch": 66, "duration": 8, "velocity": 77}, {"time": 479, "pitch": 51, "duration": 1, "velocity": 87}, {"time": 482, "pitch": 59, "duration": 1, "velocity": 86}, {"time": 485, "pitch": 40, "duration": 5, "velocity": 88}, {"time": 485, "pitch": 59, "duration": 4, "velocity": 86}, {"time": 485, "pitch": 64, "duration": 5, "velocity": 88}, {"time": 497, "pitch": 50, "duration": 2, "velocity": 91}, {"time": 497, "pitch": 62, "duration": 4, "velocity": 87}, {"time": 497, "pitch": 66, "duration": 3, "velocity": 86}, {"time": 509, "pitch": 36, "duration": 3, "velocity": 86}, {"time": 509, "pitch": 55, "duration": 5, "velocity": 86}, {"time": 509, "pitch": 60, "duration": 7, "velocity": 85}, {"time": 518, "pitch": 55, "duration": 1, "velocity": 80}, {"time": 521, "pitch": 48, "duration": 7, "velocity": 87}, {"time": 521, "pitch": 55, "duration": 4, "velocity": 87}, {"time": 521, "pitch": 60, "duration": 7, "velocity": 90}, {"time": 521, "pitch": 64, "duration": 7, "velocity": 90}, {"time": 527, "pitch": 55, "duration": 2, "velocity": 73}, {"time": 533, "pitch": 48, "duration": 15, "velocity": 97}, {"time": 533, "pitch": 55, "duration": 9, "velocity": 88}, {"time": 533, "pitch": 60, "duration": 9, "velocity": 86}, {"time": 545, "pitch": 55, "duration": 10, "velocity": 90}, {"time": 545, "pitch": 60, "duration": 10, "velocity": 93}, {"time": 545, "pitch": 64, "duration": 10, "velocity": 88}, {"time": 557, "pitch": 45, "duration": 19, "velocity": 88}, {"time": 557, "pitch": 57, "duration": 8, "velocity": 82}, {"time": 557, "pitch": 60, "duration": 9, "velocity": 84}, {"time": 566, "pitch": 52, "duration": 3, "velocity": 85}, {"time": 569, "pitch": 57, "duration": 6, "velocity": 88}, {"time": 569, "pitch": 60, "duration": 7, "velocity": 97}, {"time": 569, "pitch": 64, "duration": 6, "velocity": 92}, {"time": 575, "pitch": 52, "duration": 1, "velocity": 87}, {"time": 581, "pitch": 42, "duration": 12, "velocity": 88}, {"time": 581, "pitch": 54, "duration": 5, "velocity": 86}, {"time": 581, "pitch": 57, "duration": 6, "velocity": 87}, {"time": 590, "pitch": 54, "duration": 1, "velocity": 76}, {"time": 593, "pitch": 54, "duration": 5, "velocity": 87}, {"time": 593, "pitch": 57, "duration": 5, "velocity": 89}, {"time": 593, "pitch": 64, "duration": 6, "velocity": 90}, {"time": 599, "pitch": 42, "duration": 1, "velocity": 88}, {"time": 605, "pitch": 47, "duration": 9, "velocity": 90}, {"time": 605, "pitch": 59, "duration": 4, "velocity": 88}, {"time": 605, "pitch": 63, "duration": 6, "velocity": 86}, {"time": 605, "pitch": 66, "duration": 4, "velocity": 86}, {"time": 611, "pitch": 51, "duration": 3, "velocity": 84}, {"time": 614, "pitch": 59, "duration": 1, "velocity": 95}, {"time": 617, "pitch": 59, "duration": 7, "velocity": 89}, {"time": 617, "pitch": 63, "duration": 11, "velocity": 90}, {"time": 617, "pitch": 66, "duration": 11, "velocity": 87}, {"time": 617, "pitch": 71, "duration": 10, "velocity": 93}, {"time": 623, "pitch": 54, "duration": 4, "velocity": 87}, {"time": 626, "pitch": 59, "duration": 1, "velocity": 87}, {"time": 629, "pitch": 40, "duration": 14, "velocity": 91}, {"time": 629, "pitch": 59, "duration": 7, "velocity": 88}, {"time": 629, "pitch": 64, "duration": 7, "velocity": 88}, {"time": 635, "pitch": 47, "duration": 7, "velocity": 87}, {"time": 638, "pitch": 59, "duration": 1, "velocity": 82}, {"time": 641, "pitch": 59, "duration": 4, "velocity": 88}, {"time": 641, "pitch": 64, "duration": 6, "velocity": 93}, {"time": 641, "pitch": 67, "duration": 7, "velocity": 86}, {"time": 647, "pitch": 59, "duration": 1, "velocity": 89}, {"time": 653, "pitch": 47, "duration": 8, "velocity": 87}, {"time": 653, "pitch": 63, "duration": 7, "velocity": 85}, {"time": 653, "pitch": 66, "duration": 7, "velocity": 88}, {"time": 662, "pitch": 59, "duration": 1, "velocity": 87}, {"time": 665, "pitch": 51, "duration": 4, "velocity": 93}, {"time": 665, "pitch": 59, "duration": 3, "velocity": 88}, {"time": 665, "pitch": 63, "duration": 7, "velocity": 87}, {"time": 665, "pitch": 66, "duration": 7, "velocity": 86}, {"time": 671, "pitch": 59, "duration": 1, "velocity": 97}, {"time": 677, "pitch": 48, "duration": 13, "velocity": 88}, {"time": 677, "pitch": 55, "duration": 3, "velocity": 81}, {"time": 677, "pitch": 60, "duration": 6, "velocity": 87}, {"time": 683, "pitch": 55, "duration": 2, "velocity": 87}, {"time": 689, "pitch": 55, "duration": 6, "velocity": 92}, {"time": 689, "pitch": 60, "duration": 7, "velocity": 95}, {"time": 689, "pitch": 64, "duration": 7, "velocity": 97}, {"time": 695, "pitch": 48, "duration": 3, "velocity": 93}, {"time": 698, "pitch": 55, "duration": 1, "velocity": 86}, {"time": 701, "pitch": 43, "duration": 15, "velocity": 87}, {"time": 701, "pitch": 55, "duration": 3, "velocity": 85}, {"time": 701, "pitch": 59, "duration": 3, "velocity": 88}, {"time": 704, "pitch": 55, "duration": 2, "velocity": 84}, {"time": 704, "pitch": 59, "duration": 2, "velocity": 88}, {"time": 704, "pitch": 62, "duration": 3, "velocity": 88}, {"time": 707, "pitch": 50, "duration": 7, "velocity": 92}, {"time": 713, "pitch": 55, "duration": 5, "velocity": 92}, {"time": 713, "pitch": 59, "duration": 6, "velocity": 102}, {"time": 713, "pitch": 62, "duration": 6, "velocity": 90}, {"time": 719, "pitch": 50, "duration": 2, "velocity": 90}, {"time": 725, "pitch": 45, "duration": 15, "velocity": 87}, {"time": 725, "pitch": 57, "duration": 6, "velocity": 83}, {"time": 725, "pitch": 60, "duration": 7, "velocity": 87}, {"time": 731, "pitch": 52, "duration": 7, "velocity": 74}, {"time": 734, "pitch": 57, "duration": 1, "velocity": 79}, {"time": 737, "pitch": 57, "duration": 6, "velocity": 87}, {"time": 737, "pitch": 60, "duration": 7, "velocity": 90}, {"time": 737, "pitch": 64, "duration": 6, "velocity": 91}, {"time": 743, "pitch": 52, "duration": 4, "velocity": 90}, {"time": 746, "pitch": 57, "duration": 1, "velocity": 86}, {"time": 749, "pitch": 43, "duration": 11, "velocity": 88}, {"time": 749, "pitch": 55, "duration": 7, "velocity": 88}, {"time": 749, "pitch": 59, "duration": 7, "velocity": 95}, {"time": 755, "pitch": 50, "duration": 5, "velocity": 83}, {"time": 761, "pitch": 55, "duration": 5, "velocity": 93}, {"time": 761, "pitch": 59, "duration": 7, "velocity": 100}, {"time": 761, "pitch": 62, "duration": 7, "velocity": 92}, {"time": 764, "pitch": 50, "duration": 2, "velocity": 88}, {"time": 767, "pitch": 55, "duration": 3, "velocity": 91}, {"time": 770, "pitch": 59, "duration": 1, "velocity": 88}, {"time": 773, "pitch": 45, "duration": 14, "velocity": 89}, {"time": 773, "pitch": 57, "duration": 7, "velocity": 83}, {"time": 773, "pitch": 60, "duration": 7, "velocity": 88}, {"time": 779, "pitch": 52, "duration": 7, "velocity": 86}, {"time": 782, "pitch": 57, "duration": 1, "velocity": 75}, {"time": 785, "pitch": 57, "duration": 5, "velocity": 87}, {"time": 785, "pitch": 60, "duration": 5, "velocity": 89}, {"time": 785, "pitch": 64, "duration": 5, "velocity": 91}, {"time": 791, "pitch": 45, "duration": 1, "velocity": 89}, {"time": 797, "pitch": 47, "duration": 23, "velocity": 90}, {"time": 797, "pitch": 59, "duration": 6, "velocity": 87}, {"time": 797, "pitch": 63, "duration": 6, "velocity": 86}, {"time": 797, "pitch": 66, "duration": 3, "velocity": 83}, {"time": 803, "pitch": 54, "duration": 7, "velocity": 71}, {"time": 806, "pitch": 59, "duration": 1, "velocity": 88}, {"time": 809, "pitch": 59, "duration": 4, "velocity": 87}, {"time": 809, "pitch": 63, "duration": 7, "velocity": 91}, {"time": 809, "pitch": 66, "duration": 7, "velocity": 87}, {"time": 809, "pitch": 71, "duration": 6, "velocity": 88}, {"time": 812, "pitch": 54, "duration": 7, "velocity": 91}, {"time": 815, "pitch": 59, "duration": 5, "velocity": 100}, {"time": 821, "pitch": 40, "duration": 11, "velocity": 88}, {"time": 821, "pitch": 59, "duration": 5, "velocity": 85}, {"time": 821, "pitch": 64, "duration": 6, "velocity": 87}, {"time": 821, "pitch": 67, "duration": 6, "velocity": 84}, {"time": 830, "pitch": 59, "duration": 1, "velocity": 89}, {"time": 833, "pitch": 59, "duration": 7, "velocity": 90}, {"time": 833, "pitch": 64, "duration": 7, "velocity": 93}, {"time": 833, "pitch": 67, "duration": 7, "velocity": 88}, {"time": 839, "pitch": 40, "duration": 3, "velocity": 89}, {"time": 845, "pitch": 39, "duration": 13, "velocity": 88}, {"time": 845, "pitch": 59, "duration": 1, "velocity": 80}, {"time": 845, "pitch": 63, "duration": 7, "velocity": 85}, {"time": 845, "pitch": 66, "duration": 7, "velocity": 86}, {"time": 854, "pitch": 59, "duration": 1, "velocity": 87}, {"time": 857, "pitch": 59, "duration": 3, "velocity": 91}, {"time": 857, "pitch": 63, "duration": 5, "velocity": 95}, {"time": 857, "pitch": 66, "duration": 6, "velocity": 86}, {"time": 863, "pitch": 59, "duration": 2, "velocity": 86}, {"time": 869, "pitch": 36, "duration": 9, "velocity": 84}, {"time": 869, "pitch": 55, "duration": 5, "velocity": 87}, {"time": 869, "pitch": 60, "duration": 7, "velocity": 87}, {"time": 878, "pitch": 55, "duration": 1, "velocity": 82}, {"time": 881, "pitch": 55, "duration": 6, "velocity": 93}, {"time": 881, "pitch": 60, "duration": 7, "velocity": 97}, {"time": 881, "pitch": 64, "duration": 7, "velocity": 91}, {"time": 887, "pitch": 48, "duration": 4, "velocity": 88}, {"time": 890, "pitch": 55, "duration": 1, "velocity": 87}, {"time": 893, "pitch": 43, "duration": 12, "velocity": 88}, {"time": 896, "pitch": 55, "duration": 2, "velocity": 87}, {"time": 896, "pitch": 59, "duration": 2, "velocity": 92}, {"time": 896, "pitch": 62, "duration": 3, "velocity": 86}, {"time": 899, "pitch": 50, "duration": 7, "velocity": 88}, {"time": 905, "pitch": 55, "duration": 5, "velocity": 87}, {"time": 905, "pitch": 59, "duration": 5, "velocity": 89}, {"time": 905, "pitch": 62, "duration": 6, "velocity": 89}, {"time": 911, "pitch": 43, "duration": 3, "velocity": 88}, {"time": 917, "pitch": 45, "duration": 15, "velocity": 88}, {"time": 917, "pitch": 57, "duration": 5, "velocity": 82}, {"time": 917, "pitch": 60, "duration": 5, "velocity": 84}, {"time": 923, "pitch": 52, "duration": 8, "velocity": 83}, {"time": 926, "pitch": 57, "duration": 1, "velocity": 84}, {"time": 929, "pitch": 57, "duration": 6, "velocity": 81}, {"time": 929, "pitch": 60, "duration": 7, "velocity": 90}, {"time": 929, "pitch": 64, "duration": 7, "velocity": 93}, {"time": 929, "pitch": 69, "duration": 6, "velocity": 88}, {"time": 935, "pitch": 52, "duration": 3, "velocity": 87}, {"time": 938, "pitch": 57, "duration": 1, "velocity": 88}, {"time": 941, "pitch": 43, "duration": 14, "velocity": 90}, {"time": 944, "pitch": 55, "duration": 2, "velocity": 87}, {"time": 944, "pitch": 59, "duration": 2, "velocity": 86}, {"time": 947, "pitch": 50, "duration": 7, "velocity": 90}, {"time": 953, "pitch": 55, "duration": 5, "velocity": 92}, {"time": 953, "pitch": 59, "duration": 6, "velocity": 97}, {"time": 953, "pitch": 62, "duration": 6, "velocity": 93}, {"time": 959, "pitch": 50, "duration": 5, "velocity": 87}, {"time": 962, "pitch": 55, "duration": 1, "velocity": 78}, {"time": 965, "pitch": 45, "duration": 14, "velocity": 89}, {"time": 965, "pitch": 57, "duration": 6, "velocity": 83}, {"time": 965, "pitch": 60, "duration": 7, "velocity": 84}, {"time": 971, "pitch": 52, "duration": 8, "velocity": 75}, {"time": 974, "pitch": 57, "duration": 1, "velocity": 79}, {"time": 977, "pitch": 57, "duration": 4, "velocity": 88}, {"time": 977, "pitch": 60, "duration": 4, "velocity": 95}, {"time": 977, "pitch": 64, "duration": 5, "velocity": 89}, {"time": 983, "pitch": 45, "duration": 1, "velocity": 88}, {"time": 989, "pitch": 47, "duration": 15, "velocity": 88}, {"time": 989, "pitch": 59, "duration": 6, "velocity": 86}, {"time": 989, "pitch": 63, "duration": 6, "velocity": 79}, {"time": 989, "pitch": 66, "duration": 5, "velocity": 80}, {"time": 995, "pitch": 54, "duration": 7, "velocity": 63}, {"time": 998, "pitch": 59, "duration": 1, "velocity": 87}, {"time": 1001, "pitch": 59, "duration": 4, "velocity": 86}, {"time": 1001, "pitch": 63, "duration": 4, "velocity": 91}, {"time": 1001, "pitch": 66, "duration": 4, "velocity": 88}, {"time": 1001, "pitch": 71, "duration": 5, "velocity": 88}, {"time": 1010, "pitch": 52, "duration": 2, "velocity": 79}, {"time": 1013, "pitch": 40, "duration": 13, "velocity": 88}, {"time": 1013, "pitch": 55, "duration": 2, "velocity": 82}, {"time": 1013, "pitch": 59, "duration": 2, "velocity": 76}, {"time": 1013, "pitch": 64, "duration": 4, "velocity": 88}, {"time": 1025, "pitch": 59, "duration": 2, "velocity": 87}, {"time": 1025, "pitch": 64, "duration": 2, "velocity": 88}, {"time": 1034, "pitch": 59, "duration": 11, "velocity": 71}, {"time": 1037, "pitch": 40, "duration": 15, "velocity": 79}, {"time": 1037, "pitch": 64, "duration": 9, "velocity": 81}, {"time": 1037, "pitch": 67, "duration": 9, "velocity": 80}, {"time": 1043, "pitch": 47, "duration": 8, "velocity": 65}, {"time": 1049, "pitch": 59, "duration": 1, "velocity": 88}, {"time": 1049, "pitch": 64, "duration": 1, "velocity": 89}, {"time": 1049, "pitch": 67, "duration": 1, "velocity": 85}, {"time": 1061, "pitch": 38, "duration": 1, "velocity": 87}, {"time": 1061, "pitch": 62, "duration": 13, "velocity": 81}, {"time": 1061, "pitch": 66, "duration": 14, "velocity": 80}, {"time": 1067, "pitch": 50, "duration": 19, "velocity": 78}, {"time": 1073, "pitch": 57, "duration": 12, "velocity": 87}, {"time": 1085, "pitch": 62, "duration": 6, "velocity": 77}, {"time": 1085, "pitch": 66, "duration": 6, "velocity": 78}, {"time": 1085, "pitch": 69, "duration": 6, "velocity": 80}, {"time": 1091, "pitch": 57, "duration": 1, "velocity": 54}, {"time": 1094, "pitch": 62, "duration": 1, "velocity": 79}, {"time": 1097, "pitch": 62, "duration": 5, "velocity": 87}, {"time": 1097, "pitch": 66, "duration": 4, "velocity": 87}, {"time": 1103, "pitch": 57, "duration": 1, "velocity": 79}, {"time": 1109, "pitch": 36, "duration": 1, "velocity": 85}, {"time": 1109, "pitch": 60, "duration": 12, "velocity": 79}, {"time": 1109, "pitch": 64, "duration": 14, "velocity": 82}, {"time": 1121, "pitch": 55, "duration": 11, "velocity": 80}, {"time": 1124, "pitch": 60, "duration": 3, "velocity": 82}, {"time": 1133, "pitch": 60, "duration": 8, "velocity": 82}, {"time": 1133, "pitch": 64, "duration": 7, "velocity": 84}, {"time": 1133, "pitch": 67, "duration": 8, "velocity": 82}, {"time": 1139, "pitch": 55, "duration": 7, "velocity": 69}, {"time": 1145, "pitch": 60, "duration": 1, "velocity": 77}, {"time": 1145, "pitch": 64, "duration": 1, "velocity": 83}, {"time": 1157, "pitch": 40, "duration": 17, "velocity": 87}, {"time": 1157, "pitch": 59, "duration": 7, "velocity": 61}, {"time": 1157, "pitch": 64, "duration": 7, "velocity": 74}, {"time": 1163, "pitch": 47, "duration": 10, "velocity": 85}, {"time": 1169, "pitch": 59, "duration": 3, "velocity": 87}, {"time": 1169, "pitch": 64, "duration": 5, "velocity": 91}, {"time": 1181, "pitch": 47, "duration": 13, "velocity": 87}, {"time": 1181, "pitch": 59, "duration": 8, "velocity": 82}, {"time": 1181, "pitch": 63, "duration": 8, "velocity": 79}, {"time": 1181, "pitch": 66, "duration": 8, "velocity": 77}, {"time": 1187, "pitch": 54, "duration": 6, "velocity": 69}, {"time": 1193, "pitch": 59, "duration": 3, "velocity": 85}, {"time": 1193, "pitch": 63, "duration": 2, "velocity": 78}, {"time": 1193, "pitch": 66, "duration": 2, "velocity": 81}, {"time": 1199, "pitch": 38, "duration": 5, "velocity": 88}, {"time": 1205, "pitch": 40, "duration": 13, "velocity": 91}, {"time": 1205, "pitch": 52, "duration": 7, "velocity": 82}, {"time": 1205, "pitch": 55, "duration": 6, "velocity": 83}, {"time": 1211, "pitch": 47, "duration": 7, "velocity": 64}, {"time": 1217, "pitch": 52, "duration": 6, "velocity": 87}, {"time": 1217, "pitch": 55, "duration": 6, "velocity": 86}, {"time": 1217, "pitch": 59, "duration": 7, "velocity": 87}, {"time": 1226, "pitch": 52, "duration": 2, "velocity": 84}, {"time": 1226, "pitch": 55, "duration": 2, "velocity": 81}, {"time": 1229, "pitch": 38, "duration": 14, "velocity": 88}, {"time": 1232, "pitch": 50, "duration": 2, "velocity": 80}, {"time": 1232, "pitch": 57, "duration": 2, "velocity": 77}, {"time": 1235, "pitch": 45, "duration": 7, "velocity": 73}, {"time": 1241, "pitch": 50, "duration": 3, "velocity": 85}, {"time": 1241, "pitch": 54, "duration": 3, "velocity": 85}, {"time": 1241, "pitch": 57, "duration": 4, "velocity": 79}, {"time": 1241, "pitch": 62, "duration": 4, "velocity": 83}, {"time": 1253, "pitch": 48, "duration": 14, "velocity": 86}, {"time": 1253, "pitch": 55, "duration": 4, "velocity": 80}, {"time": 1253, "pitch": 60, "duration": 6, "velocity": 80}, {"time": 1259, "pitch": 55, "duration": 2, "velocity": 80}, {"time": 1265, "pitch": 55, "duration": 3, "velocity": 88}, {"time": 1265, "pitch": 60, "duration": 3, "velocity": 88}, {"time": 1265, "pitch": 64, "duration": 3, "velocity": 87}, {"time": 1277, "pitch": 47, "duration": 13, "velocity": 87}, {"time": 1277, "pitch": 55, "duration": 1, "velocity": 82}, {"time": 1280, "pitch": 59, "duration": 3, "velocity": 89}, {"time": 1280, "pitch": 63, "duration": 4, "velocity": 84}, {"time": 1283, "pitch": 51, "duration": 7, "velocity": 85}, {"time": 1289, "pitch": 59, "duration": 6, "velocity": 91}, {"time": 1289, "pitch": 63, "duration": 6, "velocity": 91}, {"time": 1289, "pitch": 66, "duration": 7, "velocity": 86}, {"time": 1295, "pitch": 54, "duration": 1, "velocity": 81}, {"time": 1298, "pitch": 59, "duration": 1, "velocity": 87}, {"time": 1301, "pitch": 40, "duration": 15, "velocity": 88}, {"time": 1301, "pitch": 59, "duration": 7, "velocity": 82}, {"time": 1301, "pitch": 64, "duration": 7, "velocity": 87}, {"time": 1307, "pitch": 47, "duration": 8, "velocity": 74}, {"time": 1310, "pitch": 59, "duration": 1, "velocity": 83}, {"time": 1313, "pitch": 59, "duration": 3, "velocity": 87}, {"time": 1313, "pitch": 64, "duration": 3, "velocity": 91}, {"time": 1313, "pitch": 67, "duration": 3, "velocity": 87}, {"time": 1325, "pitch": 38, "duration": 14, "velocity": 91}, {"time": 1328, "pitch": 62, "duration": 2, "velocity": 84}, {"time": 1328, "pitch": 66, "duration": 3, "velocity": 80}, {"time": 1331, "pitch": 45, "duration": 8, "velocity": 87}, {"time": 1337, "pitch": 57, "duration": 3, "velocity": 86}, {"time": 1337, "pitch": 62, "duration": 6, "velocity": 88}, {"time": 1337, "pitch": 66, "duration": 7, "velocity": 87}, {"time": 1343, "pitch": 38, "duration": 1, "velocity": 91}, {"time": 1343, "pitch": 57, "duration": 2, "velocity": 88}, {"time": 1349, "pitch": 48, "duration": 15, "velocity": 87}, {"time": 1349, "pitch": 55, "duration": 4, "velocity": 80}, {"time": 1349, "pitch": 60, "duration": 7, "velocity": 81}, {"time": 1358, "pitch": 55, "duration": 1, "velocity": 76}, {"time": 1361, "pitch": 55, "duration": 5, "velocity": 95}, {"time": 1361, "pitch": 60, "duration": 5, "velocity": 91}, {"time": 1361, "pitch": 64, "duration": 5, "velocity": 92}, {"time": 1367, "pitch": 48, "duration": 2, "velocity": 86}, {"time": 1373, "pitch": 47, "duration": 6, "velocity": 88}, {"time": 1376, "pitch": 59, "duration": 2, "velocity": 86}, {"time": 1376, "pitch": 63, "duration": 2, "velocity": 76}, {"time": 1376, "pitch": 66, "duration": 2, "velocity": 79}, {"time": 1379, "pitch": 51, "duration": 5, "velocity": 88}, {"time": 1385, "pitch": 54, "duration": 4, "velocity": 91}, {"time": 1388, "pitch": 59, "duration": 2, "velocity": 87}, {"time": 1388, "pitch": 63, "duration": 2, "velocity": 79}, {"time": 1388, "pitch": 66, "duration": 2, "velocity": 75}, {"time": 1391, "pitch": 51, "duration": 1, "velocity": 87}, {"time": 1397, "pitch": 45, "duration": 15, "velocity": 87}, {"time": 1397, "pitch": 57, "duration": 7, "velocity": 81}, {"time": 1397, "pitch": 60, "duration": 8, "velocity": 87}, {"time": 1403, "pitch": 52, "duration": 7, "velocity": 74}, {"time": 1406, "pitch": 57, "duration": 1, "velocity": 76}, {"time": 1409, "pitch": 57, "duration": 6, "velocity": 87}, {"time": 1409, "pitch": 60, "duration": 7, "velocity": 89}, {"time": 1409, "pitch": 64, "duration": 7, "velocity": 91}, {"time": 1415, "pitch": 52, "duration": 4, "velocity": 85}, {"time": 1418, "pitch": 57, "duration": 2, "velocity": 81}, {"time": 1421, "pitch": 47, "duration": 5, "velocity": 88}, {"time": 1424, "pitch": 59, "duration": 2, "velocity": 86}, {"time": 1424, "pitch": 63, "duration": 1, "velocity": 74}, {"time": 1424, "pitch": 66, "duration": 2, "velocity": 78}, {"time": 1430, "pitch": 59, "duration": 1, "velocity": 76}, {"time": 1433, "pitch": 54, "duration": 5, "velocity": 89}, {"time": 1433, "pitch": 59, "duration": 6, "velocity": 79}, {"time": 1433, "pitch": 63, "duration": 6, "velocity": 80}, {"time": 1433, "pitch": 66, "duration": 8, "velocity": 77}, {"time": 1439, "pitch": 51, "duration": 1, "velocity": 87}, {"time": 1442, "pitch": 59, "duration": 1, "velocity": 86}, {"time": 1445, "pitch": 40, "duration": 5, "velocity": 88}, {"time": 1445, "pitch": 59, "duration": 4, "velocity": 86}, {"time": 1445, "pitch": 64, "duration": 5, "velocity": 88}, {"time": 1457, "pitch": 50, "duration": 2, "velocity": 91}, {"time": 1457, "pitch": 62, "duration": 4, "velocity": 87}, {"time": 1457, "pitch": 66, "duration": 3, "velocity": 86}, {"time": 1469, "pitch": 36, "duration": 3, "velocity": 86}, {"time": 1469, "pitch": 55, "duration": 5, "velocity": 86}, {"time": 1469, "pitch": 60, "duration": 7, "velocity": 85}, {"time": 1478, "pitch": 55, "duration": 1, "velocity": 80}, {"time": 1481, "pitch": 48, "duration": 7, "velocity": 87}, {"time": 1481, "pitch": 55, "duration": 4, "velocity": 87}, {"time": 1481, "pitch": 60, "duration": 7, "velocity": 90}, {"time": 1481, "pitch": 64, "duration": 7, "velocity": 90}, {"time": 1487, "pitch": 55, "duration": 2, "velocity": 73}, {"time": 1493, "pitch": 48, "duration": 15, "velocity": 97}, {"time": 1493, "pitch": 55, "duration": 9, "velocity": 88}, {"time": 1493, "pitch": 60, "duration": 9, "velocity": 86}, {"time": 1505, "pitch": 55, "duration": 10, "velocity": 90}, {"time": 1505, "pitch": 60, "duration": 10, "velocity": 93}, {"time": 1505, "pitch": 64, "duration": 10, "velocity": 88}, {"time": 1517, "pitch": 45, "duration": 19, "velocity": 88}, {"time": 1517, "pitch": 57, "duration": 8, "velocity": 82}, {"time": 1517, "pitch": 60, "duration": 9, "velocity": 84}, {"time": 1526, "pitch": 52, "duration": 3, "velocity": 85}, {"time": 1529, "pitch": 57, "duration": 6, "velocity": 88}, {"time": 1529, "pitch": 60, "duration": 7, "velocity": 97}, {"time": 1529, "pitch": 64, "duration": 6, "velocity": 92}, {"time": 1535, "pitch": 52, "duration": 1, "velocity": 87}, {"time": 1541, "pitch": 42, "duration": 12, "velocity": 88}, {"time": 1541, "pitch": 54, "duration": 5, "velocity": 86}, {"time": 1541, "pitch": 57, "duration": 6, "velocity": 87}, {"time": 1550, "pitch": 54, "duration": 1, "velocity": 76}, {"time": 1553, "pitch": 54, "duration": 5, "velocity": 87}, {"time": 1553, "pitch": 57, "duration": 5, "velocity": 89}, {"time": 1553, "pitch": 64, "duration": 6, "velocity": 90}, {"time": 1559, "pitch": 42, "duration": 1, "velocity": 88}, {"time": 1565, "pitch": 36, "duration": 22, "velocity": 87}, {"time": 1565, "pitch": 55, "duration": 2, "velocity": 83}, {"time": 1565, "pitch": 60, "duration": 7, "velocity": 84}, {"time": 1571, "pitch": 55, "duration": 3, "velocity": 86}, {"time": 1577, "pitch": 55, "duration": 1, "velocity": 88}, {"time": 1577, "pitch": 60, "duration": 3, "velocity": 91}, {"time": 1577, "pitch": 67, "duration": 11, "velocity": 87}, {"time": 1580, "pitch": 55, "duration": 6, "velocity": 89}, {"time": 1583, "pitch": 60, "duration": 5, "velocity": 86}, {"time": 1589, "pitch": 41, "duration": 14, "velocity": 91}, {"time": 1589, "pitch": 60, "duration": 7, "velocity": 88}, {"time": 1589, "pitch": 65, "duration": 7, "velocity": 88}, {"time": 1595, "pitch": 48, "duration": 7, "velocity": 87}, {"time": 1598, "pitch": 60, "duration": 1, "velocity": 82}, {"time": 1601, "pitch": 60, "duration": 4, "velocity": 88}, {"time": 1601, "pitch": 65, "duration": 6, "velocity": 93}, {"time": 1601, "pitch": 68, "duration": 7, "velocity": 86}, {"time": 1607, "pitch": 60, "duration": 1, "velocity": 89}, {"time": 1613, "pitch": 48, "duration": 8, "velocity": 87}, {"time": 1613, "pitch": 64, "duration": 7, "velocity": 85}, {"time": 1613, "pitch": 67, "duration": 7, "velocity": 88}, {"time": 1622, "pitch": 60, "duration": 1, "velocity": 87}, {"time": 1625, "pitch": 52, "duration": 4, "velocity": 93}, {"time": 1625, "pitch": 60, "duration": 3, "velocity": 88}, {"time": 1625, "pitch": 64, "duration": 7, "velocity": 87}, {"time": 1625, "pitch": 67, "duration": 7, "velocity": 86}, {"time": 1631, "pitch": 60, "duration": 1, "velocity": 97}, {"time": 1637, "pitch": 49, "duration": 13, "velocity": 88}, {"time": 1637, "pitch": 56, "duration": 3, "velocity": 81}, {"time": 1637, "pitch": 61, "duration": 6, "velocity": 87}, {"time": 1643, "pitch": 56, "duration": 2, "velocity": 87}, {"time": 1649, "pitch": 56, "duration": 6, "velocity": 92}, {"time": 1649, "pitch": 61, "duration": 7, "velocity": 95}, {"time": 1649, "pitch": 65, "duration": 7, "velocity": 97}, {"time": 1655, "pitch": 49, "duration": 3, "velocity": 93}, {"time": 1658, "pitch": 56, "duration": 1, "velocity": 86}, {"time": 1661, "pitch": 44, "duration": 15, "velocity": 87}, {"time": 1661, "pitch": 56, "duration": 3, "velocity": 85}, {"time": 1661, "pitch": 60, "duration": 3, "velocity": 88}, {"time": 1664, "pitch": 56, "duration": 2, "velocity": 84}, {"time": 1664, "pitch": 60, "duration": 2, "velocity": 88}, {"time": 1664, "pitch": 63, "duration": 3, "velocity": 88}, {"time": 1667, "pitch": 51, "duration": 7, "velocity": 92}, {"time": 1673, "pitch": 56, "duration": 5, "velocity": 92}, {"time": 1673, "pitch": 60, "duration": 6, "velocity": 102}, {"time": 1673, "pitch": 63, "duration": 6, "velocity": 90}, {"time": 1679, "pitch": 51, "duration": 2, "velocity": 90}, {"time": 1685, "pitch": 46, "duration": 15, "velocity": 87}, {"time": 1685, "pitch": 58, "duration": 6, "velocity": 83}, {"time": 1685, "pitch": 61, "duration": 7, "velocity": 87}, {"time": 1691, "pitch": 53, "duration": 7, "velocity": 74}, {"time": 1694, "pitch": 58, "duration": 1, "velocity": 79}, {"time": 1697, "pitch": 58, "duration": 6, "velocity": 87}, {"time": 1697, "pitch": 61, "duration": 7, "velocity": 90}, {"time": 1697, "pitch": 65, "duration": 6, "velocity": 91}, {"time": 1703, "pitch": 53, "duration": 4, "velocity": 90}, {"time": 1706, "pitch": 58, "duration": 1, "velocity": 86}, {"time": 1709, "pitch": 44, "duration": 11, "velocity": 88}, {"time": 1709, "pitch": 56, "duration": 7, "velocity": 88}, {"time": 1709, "pitch": 60, "duration": 7, "velocity": 95}, {"time": 1715, "pitch": 51, "duration": 5, "velocity": 83}, {"time": 1721, "pitch": 56, "duration": 5, "velocity": 93}, {"time": 1721, "pitch": 60, "duration": 7, "velocity": 100}, {"time": 1721, "pitch": 63, "duration": 7, "velocity": 92}, {"time": 1724, "pitch": 51, "duration": 2, "velocity": 88}, {"time": 1727, "pitch": 56, "duration": 3, "velocity": 91}, {"time": 1730, "pitch": 60, "duration": 1, "velocity": 88}, {"time": 1733, "pitch": 46, "duration": 14, "velocity": 89}, {"time": 1733, "pitch": 58, "duration": 7, "velocity": 83}, {"time": 1733, "pitch": 61, "duration": 7, "velocity": 88}, {"time": 1739, "pitch": 53, "duration": 7, "velocity": 86}, {"time": 1742, "pitch": 58, "duration": 1, "velocity": 75}, {"time": 1745, "pitch": 58, "duration": 5, "velocity": 87}, {"time": 1745, "pitch": 61, "duration": 5, "velocity": 89}, {"time": 1745, "pitch": 65, "duration": 5, "velocity": 91}, {"time": 1751, "pitch": 46, "duration": 1, "velocity": 89}, {"time": 1757, "pitch": 48, "duration": 23, "velocity": 90}, {"time": 1757, "pitch": 60, "duration": 6, "velocity": 87}, {"time": 1757, "pitch": 64, "duration": 6, "velocity": 86}, {"time": 1757, "pitch": 67, "duration": 3, "velocity": 83}, {"time": 1763, "pitch": 55, "duration": 7, "velocity": 71}, {"time": 1766, "pitch": 60, "duration": 1, "velocity": 88}, {"time": 1769, "pitch": 60, "duration": 4, "velocity": 87}, {"time": 1769, "pitch": 64, "duration": 7, "velocity": 91}, {"time": 1769, "pitch": 67, "duration": 7, "velocity": 87}, {"time": 1769, "pitch": 72, "duration": 6, "velocity": 88}, {"time": 1772, "pitch": 55, "duration": 7, "velocity": 91}, {"time": 1775, "pitch": 60, "duration": 5, "velocity": 100}, {"time": 1781, "pitch": 41, "duration": 11, "velocity": 88}, {"time": 1781, "pitch": 60, "duration": 5, "velocity": 85}, {"time": 1781, "pitch": 65, "duration": 6, "velocity": 87}, {"time": 1781, "pitch": 68, "duration": 6, "velocity": 84}, {"time": 1790, "pitch": 60, "duration": 1, "velocity": 89}, {"time": 1793, "pitch": 60, "duration": 7, "velocity": 90}, {"time": 1793, "pitch": 65, "duration": 7, "velocity": 93}, {"time": 1793, "pitch": 68, "duration": 7, "velocity": 88}, {"time": 1799, "pitch": 41, "duration": 3, "velocity": 89}, {"time": 1805, "pitch": 40, "duration": 13, "velocity": 88}, {"time": 1805, "pitch": 60, "duration": 1, "velocity": 80}, {"time": 1805, "pitch": 64, "duration": 7, "velocity": 85}, {"time": 1805, "pitch": 67, "duration": 7, "velocity": 86}, {"time": 1814, "pitch": 60, "duration": 1, "velocity": 87}, {"time": 1817, "pitch": 60, "duration": 3, "velocity": 91}, {"time": 1817, "pitch": 64, "duration": 5, "velocity": 95}, {"time": 1817, "pitch": 67, "duration": 6, "velocity": 86}, {"time": 1823, "pitch": 60, "duration": 2, "velocity": 86}, {"time": 1829, "pitch": 37, "duration": 9, "velocity": 84}, {"time": 1829, "pitch": 56, "duration": 5, "velocity": 87}, {"time": 1829, "pitch": 61, "duration": 7, "velocity": 87}, {"time": 1838, "pitch": 56, "duration": 1, "velocity": 82}, {"time": 1841, "pitch": 56, "duration": 6, "velocity": 93}, {"time": 1841, "pitch": 61, "duration": 7, "velocity": 97}, {"time": 1841, "pitch": 65, "duration": 7, "velocity": 91}, {"time": 1847, "pitch": 49, "duration": 4, "velocity": 88}, {"time": 1850, "pitch": 56, "duration": 1, "velocity": 87}, {"time": 1853, "pitch": 44, "duration": 12, "velocity": 88}, {"time": 1856, "pitch": 56, "duration": 2, "velocity": 87}, {"time": 1856, "pitch": 60, "duration": 2, "velocity": 92}, {"time": 1856, "pitch": 63, "duration": 3, "velocity": 86}, {"time": 1859, "pitch": 51, "duration": 7, "velocity": 88}, {"time": 1865, "pitch": 56, "duration": 5, "velocity": 87}, {"time": 1865, "pitch": 60, "duration": 5, "velocity": 89}, {"time": 1865, "pitch": 63, "duration": 6, "velocity": 89}, {"time": 1871, "pitch": 44, "duration": 3, "velocity": 88}, {"time": 1877, "pitch": 46, "duration": 15, "velocity": 88}, {"time": 1877, "pitch": 58, "duration": 5, "velocity": 82}, {"time": 1877, "pitch": 61, "duration": 5, "velocity": 84}, {"time": 1883, "pitch": 53, "duration": 8, "velocity": 83}, {"time": 1886, "pitch": 58, "duration": 1, "velocity": 84}, {"time": 1889, "pitch": 58, "duration": 6, "velocity": 81}, {"time": 1889, "pitch": 61, "duration": 7, "velocity": 90}, {"time": 1889, "pitch": 65, "duration": 7, "velocity": 93}, {"time": 1889, "pitch": 70, "duration": 6, "velocity": 88}, {"time": 1895, "pitch": 53, "duration": 3, "velocity": 87}, {"time": 1898, "pitch": 58, "duration": 1, "velocity": 88}, {"time": 1901, "pitch": 44, "duration": 14, "velocity": 90}, {"time": 1904, "pitch": 56, "duration": 2, "velocity": 87}, {"time": 1904, "pitch": 60, "duration": 2, "velocity": 86}, {"time": 1907, "pitch": 51, "duration": 7, "velocity": 90}, {"time": 1913, "pitch": 56, "duration": 5, "velocity": 92}, {"time": 1913, "pitch": 60, "duration": 6, "velocity": 97}, {"time": 1913, "pitch": 63, "duration": 6, "velocity": 93}, {"time": 1919, "pitch": 51, "duration": 5, "velocity": 87}, {"time": 1922, "pitch": 56, "duration": 1, "velocity": 78}, {"time": 1925, "pitch": 46, "duration": 14, "velocity": 89}, {"time": 1925, "pitch": 58, "duration": 6, "velocity": 83}, {"time": 1925, "pitch": 61, "duration": 7, "velocity": 84}, {"time": 1931, "pitch": 53, "duration": 8, "velocity": 75}, {"time": 1934, "pitch": 58, "duration": 1, "velocity": 79}, {"time": 1937, "pitch": 58, "duration": 4, "velocity": 88}, {"time": 1937, "pitch": 61, "duration": 4, "velocity": 95}, {"time": 1937, "pitch": 65, "duration": 5, "velocity": 89}, {"time": 1943, "pitch": 46, "duration": 1, "velocity": 88}, {"time": 1949, "pitch": 44, "duration": 7, "velocity": 92}, {"time": 1949, "pitch": 56, "duration": 6, "velocity": 82}, {"time": 1949, "pitch": 60, "duration": 6, "velocity": 85}, {"time": 1949, "pitch": 63, "duration": 8, "velocity": 80}, {"time": 1955, "pitch": 51, "duration": 2, "velocity": 84}, {"time": 1961, "pitch": 36, "duration": 11, "velocity": 88}, {"time": 1961, "pitch": 55, "duration": 5, "velocity": 92}, {"time": 1961, "pitch": 60, "duration": 7, "velocity": 88}, {"time": 1967, "pitch": 43, "duration": 5, "velocity": 90}, {"time": 1970, "pitch": 55, "duration": 2, "velocity": 93}, {"time": 1970, "pitch": 60, "duration": 2, "velocity": 86}, {"time": 1973, "pitch": 42, "duration": 14, "velocity": 88}, {"time": 1973, "pitch": 54, "duration": 7, "velocity": 82}, {"time": 1973, "pitch": 58, "duration": 7, "velocity": 76}, {"time": 1979, "pitch": 49, "duration": 8, "velocity": 69}, {"time": 1982, "pitch": 54, "duration": 1, "velocity": 77}, {"time": 1985, "pitch": 54, "duration": 7, "velocity": 87}, {"time": 1985, "pitch": 58, "duration": 8, "velocity": 87}, {"time": 1985, "pitch": 61, "duration": 11, "velocity": 85}, {"time": 1991, "pitch": 42, "duration": 4, "velocity": 81}, {"time": 1994, "pitch": 54, "duration": 4, "velocity": 93}, {"time": 1994, "pitch": 58, "duration": 2, "velocity": 66}, {"time": 1997, "pitch": 42, "duration": 14, "velocity": 91}, {"time": 2000, "pitch": 54, "duration": 2, "velocity": 91}, {"time": 2000, "pitch": 58, "duration": 2, "velocity": 87}, {"time": 2000, "pitch": 61, "duration": 2, "velocity": 85}, {"time": 2003, "pitch": 49, "duration": 7, "velocity": 68}, {"time": 2006, "pitch": 54, "duration": 1, "velocity": 89}, {"time": 2009, "pitch": 54, "duration": 3, "velocity": 87}, {"time": 2009, "pitch": 58, "duration": 3, "velocity": 86}, {"time": 2009, "pitch": 61, "duration": 3, "velocity": 83}, {"time": 2009, "pitch": 66, "duration": 4, "velocity": 86}, {"time": 2015, "pitch": 42, "duration": 1, "velocity": 95}, {"time": 2021, "pitch": 41, "duration": 16, "velocity": 87}, {"time": 2021, "pitch": 53, "duration": 8, "velocity": 82}, {"time": 2021, "pitch": 56, "duration": 6, "velocity": 78}, {"time": 2021, "pitch": 60, "duration": 7, "velocity": 86}, {"time": 2027, "pitch": 48, "duration": 8, "velocity": 75}, {"time": 2033, "pitch": 53, "duration": 2, "velocity": 95}, {"time": 2033, "pitch": 65, "duration": 3, "velocity": 88}, {"time": 2039, "pitch": 41, "duration": 3, "velocity": 44}, {"time": 2039, "pitch": 48, "duration": 3, "velocity": 80}, {"time": 2042, "pitch": 60, "duration": 3, "velocity": 88}, {"time": 2042, "pitch": 65, "duration": 3, "velocity": 88}, {"time": 2042, "pitch": 68, "duration": 7, "velocity": 86}, {"time": 2045, "pitch": 41, "duration": 16, "velocity": 87}, {"time": 2048, "pitch": 60, "duration": 3, "velocity": 91}, {"time": 2051, "pitch": 48, "duration": 9, "velocity": 87}, {"time": 2054, "pitch": 60, "duration": 1, "velocity": 82}, {"time": 2054, "pitch": 65, "duration": 1, "velocity": 67}, {"time": 2057, "pitch": 60, "duration": 10, "velocity": 95}, {"time": 2057, "pitch": 65, "duration": 7, "velocity": 97}, {"time": 2057, "pitch": 68, "duration": 12, "velocity": 97}, {"time": 2063, "pitch": 41, "duration": 4, "velocity": 88}, {"time": 2069, "pitch": 40, "duration": 15, "velocity": 87}, {"time": 2069, "pitch": 55, "duration": 5, "velocity": 85}, {"time": 2069, "pitch": 60, "duration": 7, "velocity": 85}, {"time": 2069, "pitch": 64, "duration": 7, "velocity": 87}, {"time": 2078, "pitch": 55, "duration": 1, "velocity": 82}, {"time": 2081, "pitch": 55, "duration": 3, "velocity": 90}, {"time": 2081, "pitch": 60, "duration": 3, "velocity": 93}, {"time": 2081, "pitch": 64, "duration": 3, "velocity": 92}, {"time": 2087, "pitch": 40, "duration": 1, "velocity": 93}, {"time": 2093, "pitch": 39, "duration": 13, "velocity": 100}, {"time": 2093, "pitch": 51, "duration": 2, "velocity": 88}, {"time": 2093, "pitch": 55, "duration": 4, "velocity": 87}, {"time": 2093, "pitch": 58, "duration": 5, "velocity": 79}, {"time": 2096, "pitch": 51, "duration": 1, "velocity": 89}, {"time": 2099, "pitch": 46, "duration": 7, "velocity": 78}, {"time": 2105, "pitch": 51, "duration": 6, "velocity": 91}, {"time": 2105, "pitch": 55, "duration": 7, "velocity": 88}, {"time": 2105, "pitch": 58, "duration": 11, "velocity": 83}, {"time": 2105, "pitch": 63, "duration": 10, "velocity": 85}, {"time": 2111, "pitch": 46, "duration": 5, "velocity": 87}, {"time": 2114, "pitch": 51, "duration": 1, "velocity": 91}, {"time": 2117, "pitch": 45, "duration": 10, "velocity": 88}, {"time": 2117, "pitch": 57, "duration": 7, "velocity": 82}, {"time": 2117, "pitch": 60, "duration": 8, "velocity": 85}, {"time": 2117, "pitch": 63, "duration": 10, "velocity": 83}, {"time": 2123, "pitch": 51, "duration": 3, "velocity": 79}, {"time": 2126, "pitch": 57, "duration": 1, "velocity": 84}, {"time": 2129, "pitch": 48, "duration": 9, "velocity": 100}, {"time": 2129, "pitch": 55, "duration": 3, "velocity": 91}, {"time": 2129, "pitch": 60, "duration": 8, "velocity": 83}, {"time": 2135, "pitch": 55, "duration": 3, "velocity": 86}, {"time": 2141, "pitch": 38, "duration": 23, "velocity": 92}, {"time": 2141, "pitch": 57, "duration": 4, "velocity": 82}, {"time": 2141, "pitch": 62, "duration": 4, "velocity": 87}, {"time": 2147, "pitch": 45, "duration": 8, "velocity": 88}, {"time": 2150, "pitch": 62, "duration": 1, "velocity": 88}, {"time": 2153, "pitch": 62, "duration": 7, "velocity": 90}, {"time": 2153, "pitch": 66, "duration": 10, "velocity": 91}, {"time": 2153, "pitch": 69, "duration": 11, "velocity": 89}, {"time": 2159, "pitch": 45, "duration": 5, "velocity": 87}, {"time": 2162, "pitch": 62, "duration": 1, "velocity": 88}, {"time": 2165, "pitch": 43, "duration": 14, "velocity": 88}, {"time": 2165, "pitch": 55, "duration": 6, "velocity": 86}, {"time": 2165, "pitch": 58, "duration": 6, "velocity": 86}, {"time": 2165, "pitch": 62, "duration": 6, "velocity": 87}, {"time": 2171, "pitch": 50, "duration": 8, "velocity": 82}, {"time": 2174, "pitch": 55, "duration": 1, "velocity": 88}, {"time": 2177, "pitch": 55, "duration": 5, "velocity": 86}, {"time": 2177, "pitch": 58, "duration": 7, "velocity": 88}, {"time": 2177, "pitch": 62, "duration": 7, "velocity": 89}, {"time": 2177, "pitch": 67, "duration": 6, "velocity": 83}, {"time": 2183, "pitch": 50, "duration": 4, "velocity": 87}, {"time": 2186, "pitch": 55, "duration": 2, "velocity": 95}, {"time": 2186, "pitch": 58, "duration": 1, "velocity": 51}, {"time": 2189, "pitch": 42, "duration": 13, "velocity": 91}, {"time": 2192, "pitch": 54, "duration": 2, "velocity": 87}, {"time": 2192, "pitch": 57, "duration": 2, "velocity": 84}, {"time": 2198, "pitch": 54, "duration": 2, "velocity": 88}, {"time": 2201, "pitch": 54, "duration": 6, "velocity": 86}, {"time": 2201, "pitch": 57, "duration": 9, "velocity": 87}, {"time": 2201, "pitch": 62, "duration": 12, "velocity": 88}, {"time": 2207, "pitch": 50, "duration": 2, "velocity": 87}, {"time": 2210, "pitch": 54, "duration": 2, "velocity": 89}, {"time": 2213, "pitch": 39, "duration": 11, "velocity": 95}, {"time": 2222, "pitch": 51, "duration": 3, "velocity": 87}, {"time": 2222, "pitch": 55, "duration": 4, "velocity": 87}, {"time": 2222, "pitch": 58, "duration": 3, "velocity": 83}, {"time": 2222, "pitch": 63, "duration": 5, "velocity": 79}, {"time": 2225, "pitch": 46, "duration": 5, "velocity": 88}, {"time": 2231, "pitch": 51, "duration": 4, "velocity": 97}, {"time": 2234, "pitch": 55, "duration": 2, "velocity": 86}, {"time": 2237, "pitch": 46, "duration": 14, "velocity": 97}, {"time": 2240, "pitch": 53, "duration": 1, "velocity": 85}, {"time": 2240, "pitch": 58, "duration": 1, "velocity": 87}, {"time": 2246, "pitch": 53, "duration": 1, "velocity": 78}, {"time": 2249, "pitch": 53, "duration": 6, "velocity": 88}, {"time": 2249, "pitch": 58, "duration": 7, "velocity": 93}, {"time": 2249, "pitch": 62, "duration": 7, "velocity": 90}, {"time": 2255, "pitch": 46, "duration": 1, "velocity": 97}, {"time": 2261, "pitch": 36, "duration": 3, "velocity": 88}, {"time": 2261, "pitch": 55, "duration": 3, "velocity": 86}, {"time": 2261, "pitch": 60, "duration": 7, "velocity": 81}, {"time": 2267, "pitch": 55, "duration": 2, "velocity": 87}, {"time": 2273, "pitch": 48, "duration": 3, "velocity": 95}, {"time": 2273, "pitch": 55, "duration": 3, "velocity": 91}, {"time": 2273, "pitch": 60, "duration": 6, "velocity": 100}, {"time": 2273, "pitch": 63, "duration": 7, "velocity": 91}, {"time": 2279, "pitch": 55, "duration": 2, "velocity": 87}, {"time": 2282, "pitch": 55, "duration": 2, "velocity": 77}, {"time": 2282, "pitch": 60, "duration": 2, "velocity": 83}, {"time": 2285, "pitch": 43, "duration": 5, "velocity": 89}, {"time": 2288, "pitch": 55, "duration": 2, "velocity": 83}, {"time": 2288, "pitch": 58, "duration": 2, "velocity": 86}, {"time": 2288, "pitch": 62, "duration": 2, "velocity": 88}, {"time": 2294, "pitch": 55, "duration": 1, "velocity": 86}, {"time": 2297, "pitch": 55, "duration": 6, "velocity": 87}, {"time": 2297, "pitch": 58, "duration": 7, "velocity": 88}, {"time": 2297, "pitch": 62, "duration": 7, "velocity": 86}, {"time": 2297, "pitch": 67, "duration": 6, "velocity": 82}, {"time": 2303, "pitch": 50, "duration": 4, "velocity": 91}, {"time": 2306, "pitch": 55, "duration": 1, "velocity": 86}, {"time": 2309, "pitch": 45, "duration": 14, "velocity": 92}, {"time": 2309, "pitch": 57, "duration": 3, "velocity": 90}, {"time": 2309, "pitch": 60, "duration": 5, "velocity": 88}, {"time": 2315, "pitch": 57, "duration": 4, "velocity": 86}, {"time": 2321, "pitch": 57, "duration": 5, "velocity": 88}, {"time": 2321, "pitch": 60, "duration": 11, "velocity": 90}, {"time": 2321, "pitch": 63, "duration": 11, "velocity": 87}, {"time": 2321, "pitch": 67, "duration": 10, "velocity": 86}, {"time": 2327, "pitch": 45, "duration": 3, "velocity": 88}, {"time": 2330, "pitch": 57, "duration": 2, "velocity": 89}, {"time": 2333, "pitch": 38, "duration": 5, "velocity": 93}, {"time": 2336, "pitch": 50, "duration": 2, "velocity": 91}, {"time": 2336, "pitch": 54, "duration": 2, "velocity": 88}, {"time": 2336, "pitch": 57, "duration": 3, "velocity": 88}, {"time": 2342, "pitch": 50, "duration": 1, "velocity": 91}, {"time": 2345, "pitch": 45, "duration": 3, "velocity": 81}, {"time": 2345, "pitch": 50, "duration": 6, "velocity": 92}, {"time": 2345, "pitch": 54, "duration": 6, "velocity": 97}, {"time": 2345, "pitch": 57, "duration": 6, "velocity": 95}, {"time": 2345, "pitch": 62, "duration": 7, "velocity": 90}, {"time": 2351, "pitch": 38, "duration": 2, "velocity": 91}, {"time": 2357, "pitch": 43, "duration": 14, "velocity": 89}, {"time": 2357, "pitch": 55, "duration": 6, "velocity": 83}, {"time": 2357, "pitch": 58, "duration": 6, "velocity": 78}, {"time": 2357, "pitch": 62, "duration": 7, "velocity": 84}, {"time": 2363, "pitch": 50, "duration": 8, "velocity": 86}, {"time": 2366, "pitch": 55, "duration": 1, "velocity": 89}, {"time": 2369, "pitch": 55, "duration": 5, "velocity": 89}, {"time": 2369, "pitch": 58, "duration": 5, "velocity": 93}, {"time": 2369, "pitch": 62, "duration": 6, "velocity": 91}, {"time": 2369, "pitch": 67, "duration": 4, "velocity": 87}, {"time": 2375, "pitch": 50, "duration": 2, "velocity": 88}, {"time": 2381, "pitch": 42, "duration": 11, "velocity": 86}, {"time": 2381, "pitch": 54, "duration": 4, "velocity": 87}, {"time": 2381, "pitch": 57, "duration": 7, "velocity": 87}, {"time": 2381, "pitch": 62, "duration": 8, "velocity": 88}, {"time": 2390, "pitch": 54, "duration": 2, "velocity": 87}, {"time": 2393, "pitch": 54, "duration": 5, "velocity": 93}, {"time": 2393, "pitch": 57, "duration": 6, "velocity": 90}, {"time": 2393, "pitch": 62, "duration": 11, "velocity": 93}, {"time": 2399, "pitch": 42, "duration": 2, "velocity": 92}, {"time": 2402, "pitch": 54, "duration": 1, "velocity": 93}, {"time": 2405, "pitch": 39, "duration": 6, "velocity": 95}, {"time": 2408, "pitch": 51, "duration": 2, "velocity": 87}, {"time": 2408, "pitch": 55, "duration": 2, "velocity": 83}, {"time": 2408, "pitch": 58, "duration": 2, "velocity": 75}, {"time": 2414, "pitch": 51, "duration": 1, "velocity": 90}, {"time": 2417, "pitch": 46, "duration": 4, "velocity": 90}, {"time": 2417, "pitch": 51, "duration": 4, "velocity": 86}, {"time": 2417, "pitch": 55, "duration": 3, "velocity": 90}, {"time": 2417, "pitch": 58, "duration": 4, "velocity": 88}, {"time": 2417, "pitch": 63, "duration": 5, "velocity": 86}, {"time": 2423, "pitch": 39, "duration": 1, "velocity": 100}, {"time": 2429, "pitch": 46, "duration": 13, "velocity": 95}, {"time": 2429, "pitch": 53, "duration": 2, "velocity": 85}, {"time": 2429, "pitch": 58, "duration": 5, "velocity": 80}, {"time": 2432, "pitch": 53, "duration": 3, "velocity": 88}, {"time": 2441, "pitch": 53, "duration": 6, "velocity": 88}, {"time": 2441, "pitch": 58, "duration": 6, "velocity": 93}, {"time": 2441, "pitch": 62, "duration": 7, "velocity": 88}, {"time": 2447, "pitch": 46, "duration": 1, "velocity": 103}, {"time": 2453, "pitch": 36, "duration": 1, "velocity": 87}, {"time": 2453, "pitch": 55, "duration": 6, "velocity": 87}, {"time": 2453, "pitch": 60, "duration": 7, "velocity": 85}, {"time": 2459, "pitch": 48, "duration": 7, "velocity": 97}, {"time": 2462, "pitch": 55, "duration": 1, "velocity": 87}, {"time": 2465, "pitch": 55, "duration": 6, "velocity": 87}, {"time": 2465, "pitch": 60, "duration": 7, "velocity": 92}, {"time": 2465, "pitch": 63, "duration": 7, "velocity": 89}, {"time": 2471, "pitch": 48, "duration": 3, "velocity": 95}, {"time": 2474, "pitch": 55, "duration": 2, "velocity": 89}, {"time": 2474, "pitch": 60, "duration": 2, "velocity": 73}, {"time": 2474, "pitch": 63, "duration": 1, "velocity": 34}, {"time": 2477, "pitch": 43, "duration": 5, "velocity": 88}, {"time": 2480, "pitch": 55, "duration": 2, "velocity": 82}, {"time": 2480, "pitch": 58, "duration": 3, "velocity": 89}, {"time": 2480, "pitch": 62, "duration": 3, "velocity": 87}, {"time": 2486, "pitch": 55, "duration": 2, "velocity": 84}, {"time": 2489, "pitch": 50, "duration": 4, "velocity": 91}, {"time": 2489, "pitch": 55, "duration": 5, "velocity": 91}, {"time": 2489, "pitch": 58, "duration": 6, "velocity": 88}, {"time": 2489, "pitch": 62, "duration": 10, "velocity": 88}, {"time": 2495, "pitch": 43, "duration": 3, "velocity": 89}, {"time": 2498, "pitch": 55, "duration": 1, "velocity": 80}, {"time": 2501, "pitch": 45, "duration": 4, "velocity": 90}, {"time": 2501, "pitch": 57, "duration": 5, "velocity": 85}, {"time": 2501, "pitch": 60, "duration": 7, "velocity": 88}, {"time": 2507, "pitch": 45, "duration": 7, "velocity": 88}, {"time": 2510, "pitch": 57, "duration": 1, "velocity": 87}, {"time": 2513, "pitch": 57, "duration": 6, "velocity": 87}, {"time": 2513, "pitch": 60, "duration": 11, "velocity": 92}, {"time": 2513, "pitch": 63, "duration": 10, "velocity": 91}, {"time": 2513, "pitch": 67, "duration": 10, "velocity": 82}, {"time": 2519, "pitch": 45, "duration": 2, "velocity": 88}, {"time": 2522, "pitch": 57, "duration": 2, "velocity": 86}, {"time": 2525, "pitch": 38, "duration": 5, "velocity": 91}, {"time": 2528, "pitch": 50, "duration": 2, "velocity": 92}, {"time": 2528, "pitch": 54, "duration": 3, "velocity": 86}, {"time": 2528, "pitch": 57, "duration": 3, "velocity": 87}, {"time": 2534, "pitch": 50, "duration": 1, "velocity": 71}, {"time": 2537, "pitch": 50, "duration": 7, "velocity": 89}, {"time": 2537, "pitch": 54, "duration": 8, "velocity": 92}, {"time": 2537, "pitch": 57, "duration": 11, "velocity": 90}, {"time": 2537, "pitch": 62, "duration": 11, "velocity": 88}, {"time": 2543, "pitch": 45, "duration": 5, "velocity": 88}, {"time": 2546, "pitch": 50, "duration": 1, "velocity": 97}, {"time": 2549, "pitch": 43, "duration": 15, "velocity": 87}, {"time": 2549, "pitch": 62, "duration": 7, "velocity": 87}, {"time": 2549, "pitch": 67, "duration": 6, "velocity": 86}, {"time": 2549, "pitch": 70, "duration": 7, "velocity": 86}, {"time": 2555, "pitch": 50, "duration": 7, "velocity": 89}, {"time": 2558, "pitch": 62, "duration": 1, "velocity": 88}, {"time": 2561, "pitch": 62, "duration": 2, "velocity": 90}, {"time": 2561, "pitch": 67, "duration": 7, "velocity": 97}, {"time": 2561, "pitch": 70, "duration": 8, "velocity": 92}, {"time": 2564, "pitch": 62, "duration": 4, "velocity": 89}, {"time": 2567, "pitch": 50, "duration": 6, "velocity": 93}, {"time": 2570, "pitch": 62, "duration": 4, "velocity": 88}, {"time": 2570, "pitch": 67, "duration": 1, "velocity": 81}, {"time": 2573, "pitch": 42, "duration": 14, "velocity": 95}, {"time": 2576, "pitch": 62, "duration": 3, "velocity": 87}, {"time": 2576, "pitch": 66, "duration": 5, "velocity": 87}, {"time": 2576, "pitch": 69, "duration": 7, "velocity": 87}, {"time": 2582, "pitch": 62, "duration": 1, "velocity": 83}, {"time": 2585, "pitch": 50, "duration": 6, "velocity": 87}, {"time": 2585, "pitch": 62, "duration": 5, "velocity": 87}, {"time": 2585, "pitch": 66, "duration": 6, "velocity": 88}, {"time": 2585, "pitch": 69, "duration": 7, "velocity": 87}, {"time": 2591, "pitch": 42, "duration": 1, "velocity": 93}, {"time": 2597, "pitch": 39, "duration": 7, "velocity": 97}, {"time": 2597, "pitch": 63, "duration": 5, "velocity": 91}, {"time": 2597, "pitch": 67, "duration": 5, "velocity": 87}, {"time": 2597, "pitch": 70, "duration": 6, "velocity": 87}, {"time": 2603, "pitch": 46, "duration": 6, "velocity": 88}, {"time": 2606, "pitch": 63, "duration": 1, "velocity": 91}, {"time": 2609, "pitch": 63, "duration": 6, "velocity": 91}, {"time": 2609, "pitch": 67, "duration": 6, "velocity": 93}, {"time": 2609, "pitch": 70, "duration": 7, "velocity": 97}, {"time": 2615, "pitch": 39, "duration": 1, "velocity": 89}, {"time": 2615, "pitch": 46, "duration": 1, "velocity": 91}, {"time": 2618, "pitch": 63, "duration": 1, "velocity": 85}, {"time": 2618, "pitch": 67, "duration": 1, "velocity": 86}, {"time": 2618, "pitch": 70, "duration": 1, "velocity": 85}, {"time": 2621, "pitch": 46, "duration": 6, "velocity": 95}, {"time": 2624, "pitch": 58, "duration": 2, "velocity": 90}, {"time": 2624, "pitch": 62, "duration": 2, "velocity": 91}, {"time": 2627, "pitch": 53, "duration": 4, "velocity": 86}, {"time": 2630, "pitch": 58, "duration": 1, "velocity": 89}, {"time": 2633, "pitch": 58, "duration": 6, "velocity": 89}, {"time": 2633, "pitch": 62, "duration": 6, "velocity": 90}, {"time": 2633, "pitch": 70, "duration": 7, "velocity": 87}, {"time": 2639, "pitch": 53, "duration": 2, "velocity": 92}, {"time": 2642, "pitch": 58, "duration": 1, "velocity": 87}, {"time": 2645, "pitch": 48, "duration": 5, "velocity": 95}, {"time": 2648, "pitch": 60, "duration": 1, "velocity": 86}, {"time": 2648, "pitch": 63, "duration": 2, "velocity": 88}, {"time": 2648, "pitch": 67, "duration": 2, "velocity": 78}, {"time": 2654, "pitch": 60, "duration": 9, "velocity": 76}, {"time": 2657, "pitch": 36, "duration": 1, "velocity": 87}, {"time": 2657, "pitch": 63, "duration": 7, "velocity": 84}, {"time": 2657, "pitch": 67, "duration": 6, "velocity": 87}, {"time": 2663, "pitch": 48, "duration": 1, "velocity": 89}, {"time": 2666, "pitch": 60, "duration": 2, "velocity": 75}, {"time": 2666, "pitch": 63, "duration": 1, "velocity": 70}, {"time": 2666, "pitch": 67, "duration": 2, "velocity": 81}, {"time": 2669, "pitch": 43, "duration": 6, "velocity": 87}, {"time": 2672, "pitch": 55, "duration": 2, "velocity": 76}, {"time": 2672, "pitch": 58, "duration": 2, "velocity": 81}, {"time": 2672, "pitch": 62, "duration": 2, "velocity": 86}, {"time": 2678, "pitch": 55, "duration": 1, "velocity": 77}, {"time": 2681, "pitch": 55, "duration": 6, "velocity": 86}, {"time": 2681, "pitch": 58, "duration": 7, "velocity": 90}, {"time": 2681, "pitch": 62, "duration": 12, "velocity": 90}, {"time": 2681, "pitch": 67, "duration": 12, "velocity": 87}, {"time": 2687, "pitch": 50, "duration": 4, "velocity": 92}, {"time": 2690, "pitch": 55, "duration": 1, "velocity": 87}, {"time": 2693, "pitch": 45, "duration": 15, "velocity": 92}, {"time": 2696, "pitch": 57, "duration": 2, "velocity": 84}, {"time": 2696, "pitch": 60, "duration": 4, "velocity": 87}, {"time": 2702, "pitch": 57, "duration": 1, "velocity": 79}, {"time": 2705, "pitch": 57, "duration": 6, "velocity": 88}, {"time": 2705, "pitch": 60, "duration": 8, "velocity": 92}, {"time": 2705, "pitch": 63, "duration": 7, "velocity": 89}, {"time": 2705, "pitch": 67, "duration": 10, "velocity": 88}, {"time": 2711, "pitch": 45, "duration": 3, "velocity": 88}, {"time": 2714, "pitch": 57, "duration": 2, "velocity": 81}, {"time": 2714, "pitch": 60, "duration": 1, "velocity": 55}, {"time": 2717, "pitch": 38, "duration": 10, "velocity": 93}, {"time": 2720, "pitch": 50, "duration": 3, "velocity": 92}, {"time": 2720, "pitch": 54, "duration": 4, "velocity": 87}, {"time": 2720, "pitch": 57, "duration": 6, "velocity": 87}, {"time": 2726, "pitch": 50, "duration": 1, "velocity": 85}, {"time": 2729, "pitch": 50, "duration": 6, "velocity": 87}, {"time": 2729, "pitch": 54, "duration": 11, "velocity": 88}, {"time": 2729, "pitch": 57, "duration": 11, "velocity": 88}, {"time": 2729, "pitch": 62, "duration": 13, "velocity": 89}, {"time": 2735, "pitch": 45, "duration": 3, "velocity": 89}, {"time": 2738, "pitch": 50, "duration": 1, "velocity": 88}, {"time": 2741, "pitch": 43, "duration": 14, "velocity": 91}, {"time": 2744, "pitch": 55, "duration": 3, "velocity": 89}, {"time": 2744, "pitch": 58, "duration": 3, "velocity": 87}, {"time": 2744, "pitch": 62, "duration": 6, "velocity": 89}, {"time": 2750, "pitch": 55, "duration": 1, "velocity": 81}, {"time": 2753, "pitch": 55, "duration": 7, "velocity": 86}, {"time": 2753, "pitch": 58, "duration": 7, "velocity": 89}, {"time": 2753, "pitch": 62, "duration": 11, "velocity": 90}, {"time": 2753, "pitch": 67, "duration": 10, "velocity": 87}, {"time": 2759, "pitch": 50, "duration": 5, "velocity": 91}, {"time": 2762, "pitch": 55, "duration": 2, "velocity": 86}, {"time": 2765, "pitch": 42, "duration": 13, "velocity": 93}, {"time": 2768, "pitch": 54, "duration": 3, "velocity": 80}, {"time": 2768, "pitch": 57, "duration": 5, "velocity": 86}, {"time": 2774, "pitch": 54, "duration": 1, "velocity": 86}, {"time": 2777, "pitch": 54, "duration": 5, "velocity": 88}, {"time": 2777, "pitch": 57, "duration": 5, "velocity": 91}, {"time": 2777, "pitch": 62, "duration": 5, "velocity": 90}, {"time": 2783, "pitch": 42, "duration": 1, "velocity": 97}, {"time": 2789, "pitch": 39, "duration": 13, "velocity": 93}, {"time": 2789, "pitch": 58, "duration": 7, "velocity": 81}, {"time": 2789, "pitch": 63, "duration": 7, "velocity": 86}, {"time": 2795, "pitch": 46, "duration": 7, "velocity": 87}, {"time": 2798, "pitch": 55, "duration": 1, "velocity": 87}, {"time": 2801, "pitch": 55, "duration": 8, "velocity": 93}, {"time": 2801, "pitch": 58, "duration": 8, "velocity": 91}, {"time": 2801, "pitch": 63, "duration": 8, "velocity": 88}, {"time": 2807, "pitch": 46, "duration": 3, "velocity": 85}, {"time": 2810, "pitch": 55, "duration": 2, "velocity": 86}, {"time": 2810, "pitch": 58, "duration": 2, "velocity": 84}, {"time": 2810, "pitch": 63, "duration": 2, "velocity": 80}, {"time": 2813, "pitch": 46, "duration": 10, "velocity": 88}, {"time": 2816, "pitch": 53, "duration": 2, "velocity": 85}, {"time": 2816, "pitch": 58, "duration": 4, "velocity": 79}, {"time": 2816, "pitch": 62, "duration": 4, "velocity": 87}, {"time": 2822, "pitch": 53, "duration": 1, "velocity": 85}, {"time": 2822, "pitch": 62, "duration": 1, "velocity": 55}, {"time": 2825, "pitch": 45, "duration": 8, "velocity": 91}, {"time": 2825, "pitch": 53, "duration": 3, "velocity": 86}, {"time": 2825, "pitch": 57, "duration": 5, "velocity": 88}, {"time": 2831, "pitch": 57, "duration": 1, "velocity": 83}, {"time": 2831, "pitch": 58, "duration": 3, "velocity": 100}, {"time": 2837, "pitch": 48, "duration": 13, "velocity": 90}, {"time": 2837, "pitch": 55, "duration": 4, "velocity": 82}, {"time": 2837, "pitch": 60, "duration": 4, "velocity": 86}, {"time": 2843, "pitch": 55, "duration": 3, "velocity": 87}, {"time": 2849, "pitch": 55, "duration": 7, "velocity": 92}, {"time": 2849, "pitch": 60, "duration": 7, "velocity": 93}, {"time": 2849, "pitch": 63, "duration": 7, "velocity": 92}, {"time": 2855, "pitch": 48, "duration": 4, "velocity": 95}, {"time": 2858, "pitch": 55, "duration": 2, "velocity": 82}, {"time": 2858, "pitch": 60, "duration": 1, "velocity": 85}, {"time": 2858, "pitch": 63, "duration": 2, "velocity": 85}, {"time": 2861, "pitch": 43, "duration": 5, "velocity": 88}, {"time": 2864, "pitch": 55, "duration": 1, "velocity": 86}, {"time": 2864, "pitch": 58, "duration": 2, "velocity": 90}, {"time": 2864, "pitch": 62, "duration": 2, "velocity": 88}, {"time": 2870, "pitch": 55, "duration": 1, "velocity": 77}, {"time": 2873, "pitch": 50, "duration": 4, "velocity": 92}, {"time": 2873, "pitch": 55, "duration": 6, "velocity": 87}, {"time": 2873, "pitch": 58, "duration": 6, "velocity": 91}, {"time": 2873, "pitch": 62, "duration": 7, "velocity": 91}, {"time": 2873, "pitch": 67, "duration": 7, "velocity": 87}, {"time": 2879, "pitch": 43, "duration": 3, "velocity": 92}, {"time": 2885, "pitch": 45, "duration": 14, "velocity": 90}, {"time": 2885, "pitch": 57, "duration": 3, "velocity": 89}, {"time": 2885, "pitch": 60, "duration": 9, "velocity": 88}, {"time": 2891, "pitch": 63, "duration": 3, "velocity": 72}, {"time": 2897, "pitch": 57, "duration": 6, "velocity": 93}, {"time": 2897, "pitch": 60, "duration": 7, "velocity": 91}, {"time": 2897, "pitch": 63, "duration": 7, "velocity": 92}, {"time": 2897, "pitch": 67, "duration": 8, "velocity": 86}, {"time": 2903, "pitch": 45, "duration": 2, "velocity": 87}, {"time": 2906, "pitch": 57, "duration": 2, "velocity": 81}, {"time": 2906, "pitch": 60, "duration": 1, "velocity": 76}, {"time": 2909, "pitch": 38, "duration": 6, "velocity": 95}, {"time": 2912, "pitch": 50, "duration": 3, "velocity": 91}, {"time": 2912, "pitch": 57, "duration": 4, "velocity": 88}, {"time": 2918, "pitch": 50, "duration": 1, "velocity": 88}, {"time": 2921, "pitch": 45, "duration": 2, "velocity": 86}, {"time": 2921, "pitch": 50, "duration": 10, "velocity": 89}, {"time": 2921, "pitch": 54, "duration": 10, "velocity": 92}, {"time": 2921, "pitch": 57, "duration": 11, "velocity": 91}, {"time": 2921, "pitch": 62, "duration": 13, "velocity": 88}, {"time": 2927, "pitch": 38, "duration": 1, "velocity": 90}, {"time": 2933, "pitch": 43, "duration": 68, "velocity": 89}, {"time": 2939, "pitch": 50, "duration": 61, "velocity": 87}, {"time": 2945, "pitch": 57, "duration": 4, "velocity": 76}, {"time": 2948, "pitch": 58, "duration": 4, "velocity": 75}, {"time": 2951, "pitch": 62, "duration": 3, "velocity": 79}, {"time": 2954, "pitch": 55, "duration": 3, "velocity": 68}, {"time": 2960, "pitch": 67, "duration": 2, "velocity": 78}, {"time": 2963, "pitch": 69, "duration": 2, "velocity": 75}, {"time": 2969, "pitch": 74, "duration": 3, "velocity": 85}, {"time": 2976, "pitch": 79, "duration": 3, "velocity": 65}, {"time": 2982, "pitch": 81, "duration": 2, "velocity": 79}, {"time": 2990, "pitch": 81, "duration": 1, "velocity": 61}, {"time": 2991, "pitch": 86, "duration": 1, "velocity": 82}], "annotations": [{"time": 53, "annotation": {"number": 64, "value": 127}, "group": "control_change"}, {"time": 54, "annotation": {"number": 64, "value": 0}, "group": "control_change"}, {"time": 54, "annotation": {"number": 64, "value": 127}, "group": "control_change"}, {"time": 76, "annotation": {"number": 64, "value": 0}, "group": "control_change"}, {"time": 78, "annotation": {"number": 64, "value": 127}, "group": "control_change"}, {"time": 99, "annotation": {"number": 64, "value": 0}, "group": "control_change"}, {"time": 103, "annotation": {"number": 64, "value": 127}, "group": "control_change"}, {"time": 123, "annotation": {"number": 64, "value": 0}, "group": "control_change"}, {"time": 126, "annotation": {"number": 64, "value": 127}, "group": "control_change"}, {"time": 148, "annotation": {"number": 64, "value": 0}, "group": "control_change"}, {"time": 151, "annotation": {"number": 64, "value": 127}, "group": "control_change"}, {"time": 173, "annotation": {"number": 64, "value": 0}, "group": "control_change"}, {"time": 177, "annotation": {"number": 64, "value": 127}, "group": "control_change"}, {"time": 196, "annotation": {"number": 64, "value": 0}, "group": "control_change"}, {"time": 198, "annotation": {"number": 64, "value": 127}, "group": "control_change"}, {"time": 219, "annotation": {"number": 64, "value": 0}, "group": "control_change"}, {"time": 222, "annotation": {"number": 64, "value": 127}, "group": "control_change"}, {"time": 247, "annotation": {"number": 64, "value": 127}, "group": "control_change"}, {"time": 267, "annotation": {"number": 64, "value": 0}, "group": "control_change"}, {"time": 269, "annotation": {"number": 64, "value": 127}, "group": "control_change"}, {"time": 292, "annotation": {"number": 64, "value": 0}, "group": "control_change"}, {"time": 294, "annotation": {"number": 64, "value": 127}, "group": "control_change"}, {"time": 316, "annotation": {"number": 64, "value": 0}, "group": "control_change"}, {"time": 318, "annotation": {"number": 64, "value": 127}, "group": "control_change"}, {"time": 340, "annotation": {"number": 64, "value": 0}, "group": "control_change"}, {"time": 342, "annotation": {"number": 64, "value": 127}, "group": "control_change"}, {"time": 365, "annotation": {"number": 64, "value": 0}, "group": "control_change"}, {"time": 367, "annotation": {"number": 64, "value": 127}, "group": "control_change"}, {"time": 387, "annotation": {"number": 64, "value": 0}, "group": "control_change"}, {"time": 390, "annotation": {"number": 64, "value": 127}, "group": "control_change"}, {"time": 412, "annotation": {"number": 64, "value": 0}, "group": "control_change"}, {"time": 413, "annotation": {"number": 64, "value": 127}, "group": "control_change"}, {"time": 436, "annotation": {"number": 64, "value": 0}, "group": "control_change"}, {"time": 440, "annotation": {"number": 64, "value": 127}, "group": "control_change"}, {"time": 460, "annotation": {"number": 64, "value": 0}, "group": "control_change"}, {"time": 462, "annotation": {"number": 64, "value": 127}, "group": "control_change"}, {"time": 472, "annotation": {"number": 64, "value": 0}, "group": "control_change"}, {"time": 474, "annotation": {"number": 64, "value": 127}, "group": "control_change"}, {"time": 484, "annotation": {"number": 64, "value": 0}, "group": "control_change"}, {"time": 486, "annotation": {"number": 64, "value": 127}, "group": "control_change"}, {"time": 495, "annotation": {"number": 64, "value": 0}, "group": "control_change"}, {"time": 497, "annotation": {"number": 64, "value": 127}, "group": "control_change"}, {"time": 508, "annotation": {"number": 64, "value": 127}, "group": "control_change"}, {"time": 532, "annotation": {"number": 64, "value": 0}, "group": "control_change"}, {"time": 533, "annotation": {"number": 64, "value": 127}, "group": "control_change"}, {"time": 553, "annotation": {"number": 64, "value": 0}, "group": "control_change"}, {"time": 558, "annotation": {"number": 64, "value": 127}, "group": "control_change"}, {"time": 580, "annotation": {"number": 64, "value": 0}, "group": "control_change"}, {"time": 582, "annotation": {"number": 64, "value": 127}, "group": "control_change"}, {"time": 604, "annotation": {"number": 64, "value": 0}, "group": "control_change"}, {"time": 605, "annotation": {"number": 64, "value": 127}, "group": "control_change"}, {"time": 626, "annotation": {"number": 64, "value": 0}, "group": "control_change"}, {"time": 630, "annotation": {"number": 64, "value": 127}, "group": "control_change"}, {"time": 652, "annotation": {"number": 64, "value": 0}, "group": "control_change"}, {"time": 654, "annotation": {"number": 64, "value": 127}, "group": "control_change"}, {"time": 676, "annotation": {"number": 64, "value": 0}, "group": "control_change"}, {"time": 678, "annotation": {"number": 64, "value": 127}, "group": "control_change"}, {"time": 700, "annotation": {"number": 64, "value": 0}, "group": "control_change"}, {"time": 702, "annotation": {"number": 64, "value": 127}, "group": "control_change"}, {"time": 724, "annotation": {"number": 64, "value": 0}, "group": "control_change"}, {"time": 726, "annotation": {"number": 64, "value": 127}, "group": "control_change"}, {"time": 748, "annotation": {"number": 64, "value": 0}, "group": "control_change"}, {"time": 750, "annotation": {"number": 64, "value": 127}, "group": "control_change"}, {"time": 772, "annotation": {"number": 64, "value": 0}, "group": "control_change"}, {"time": 774, "annotation": {"number": 64, "value": 127}, "group": "control_change"}, {"time": 795, "annotation": {"number": 64, "value": 0}, "group": "control_change"}, {"time": 797, "annotation": {"number": 64, "value": 127}, "group": "control_change"}, {"time": 815, "annotation": {"number": 64, "value": 0}, "group": "control_change"}, {"time": 821, "annotation": {"number": 64, "value": 127}, "group": "control_change"}, {"time": 843, "annotation": {"number": 64, "value": 0}, "group": "control_change"}, {"time": 846, "annotation": {"number": 64, "value": 127}, "group": "control_change"}, {"time": 868, "annotation": {"number": 64, "value": 0}, "group": "control_change"}, {"time": 870, "annotation": {"number": 64, "value": 127}, "group": "control_change"}, {"time": 892, "annotation": {"number": 64, "value": 0}, "group": "control_change"}, {"time": 894, "annotation": {"number": 64, "value": 127}, "group": "control_change"}, {"time": 915, "annotation": {"number": 64, "value": 0}, "group": "control_change"}, {"time": 917, "annotation": {"number": 64, "value": 127}, "group": "control_change"}, {"time": 941, "annotation": {"number": 64, "value": 0}, "group": "control_change"}, {"time": 942, "annotation": {"number": 64, "value": 127}, "group": "control_change"}, {"time": 964, "annotation": {"number": 64, "value": 0}, "group": "control_change"}, {"time": 966, "annotation": {"number": 64, "value": 127}, "group": "control_change"}, {"time": 987, "annotation": {"number": 64, "value": 0}, "group": "control_change"}, {"time": 989, "annotation": {"number": 64, "value": 127}, "group": "control_change"}, {"time": 1013, "annotation": {"number": 64, "value": 127}, "group": "control_change"}, {"time": 1058, "annotation": {"number": 64, "value": 0}, "group": "control_change"}, {"time": 1061, "annotation": {"number": 64, "value": 127}, "group": "control_change"}, {"time": 1108, "annotation": {"number": 64, "value": 0}, "group": "control_change"}, {"time": 1109, "annotation": {"number": 64, "value": 127}, "group": "control_change"}, {"time": 1156, "annotation": {"number": 64, "value": 0}, "group": "control_change"}, {"time": 1158, "annotation": {"number": 64, "value": 127}, "group": "control_change"}, {"time": 1182, "annotation": {"number": 64, "value": 127}, "group": "control_change"}, {"time": 1202, "annotation": {"number": 64, "value": 0}, "group": "control_change"}, {"time": 1207, "annotation": {"number": 64, "value": 127}, "group": "control_change"}, {"time": 1227, "annotation": {"number": 64, "value": 0}, "group": "control_change"}, {"time": 1229, "annotation": {"number": 64, "value": 127}, "group": "control_change"}, {"time": 1252, "annotation": {"number": 64, "value": 0}, "group": "control_change"}, {"time": 1254, "annotation": {"number": 64, "value": 127}, "group": "control_change"}, {"time": 1276, "annotation": {"number": 64, "value": 0}, "group": "control_change"}, {"time": 1278, "annotation": {"number": 64, "value": 127}, "group": "control_change"}, {"time": 1300, "annotation": {"number": 64, "value": 0}, "group": "control_change"}, {"time": 1302, "annotation": {"number": 64, "value": 127}, "group": "control_change"}, {"time": 1325, "annotation": {"number": 64, "value": 0}, "group": "control_change"}, {"time": 1327, "annotation": {"number": 64, "value": 127}, "group": "control_change"}, {"time": 1347, "annotation": {"number": 64, "value": 0}, "group": "control_change"}, {"time": 1350, "annotation": {"number": 64, "value": 127}, "group": "control_change"}, {"time": 1372, "annotation": {"number": 64, "value": 0}, "group": "control_change"}, {"time": 1373, "annotation": {"number": 64, "value": 127}, "group": "control_change"}, {"time": 1396, "annotation": {"number": 64, "value": 0}, "group": "control_change"}, {"time": 1400, "annotation": {"number": 64, "value": 127}, "group": "control_change"}, {"time": 1420, "annotation": {"number": 64, "value": 0}, "group": "control_change"}, {"time": 1422, "annotation": {"number": 64, "value": 127}, "group": "control_change"}, {"time": 1432, "annotation": {"number": 64, "value": 0}, "group": "control_change"}, {"time": 1434, "annotation": {"number": 64, "value": 127}, "group": "control_change"}, {"time": 1444, "annotation": {"number": 64, "value": 0}, "group": "control_change"}, {"time": 1446, "annotation": {"number": 64, "value": 127}, "group": "control_change"}, {"time": 1455, "annotation": {"number": 64, "value": 0}, "group": "control_change"}, {"time": 1457, "annotation": {"number": 64, "value": 127}, "group": "control_change"}, {"time": 1468, "annotation": {"number": 64, "value": 127}, "group": "control_change"}, {"time": 1492, "annotation": {"number": 64, "value": 0}, "group": "control_change"}, {"time": 1493, "annotation": {"number": 64, "value": 127}, "group": "control_change"}, {"time": 1513, "annotation": {"number": 64, "value": 0}, "group": "control_change"}, {"time": 1518, "annotation": {"number": 64, "value": 127}, "group": "control_change"}, {"time": 1540, "annotation": {"number": 64, "value": 0}, "group": "control_change"}, {"time": 1542, "annotation": {"number": 64, "value": 127}, "group": "control_change"}, {"time": 1554, "annotation": {"number": 64, "value": 127}, "group": "control_change"}, {"time": 1561, "annotation": {"number": 64, "value": 0}, "group": "control_change"}, {"time": 1565, "annotation": {"number": 64, "value": 127}, "group": "control_change"}, {"time": 1566, "annotation": {"number": 64, "value": 127}, "group": "control_change"}, {"time": 1584, "annotation": {"number": 64, "value": 0}, "group": "control_change"}, {"time": 1586, "annotation": {"number": 64, "value": 0}, "group": "control_change"}, {"time": 1590, "annotation": {"number": 64, "value": 127}, "group": "control_change"}, {"time": 1612, "annotation": {"number": 64, "value": 0}, "group": "control_change"}, {"time": 1614, "annotation": {"number": 64, "value": 127}, "group": "control_change"}, {"time": 1636, "annotation": {"number": 64, "value": 0}, "group": "control_change"}, {"time": 1638, "annotation": {"number": 64, "value": 127}, "group": "control_change"}, {"time": 1660, "annotation": {"number": 64, "value": 0}, "group": "control_change"}, {"time": 1662, "annotation": {"number": 64, "value": 127}, "group": "control_change"}, {"time": 1684, "annotation": {"number": 64, "value": 0}, "group": "control_change"}, {"time": 1686, "annotation": {"number": 64, "value": 127}, "group": "control_change"}, {"time": 1708, "annotation": {"number": 64, "value": 0}, "group": "control_change"}, {"time": 1710, "annotation": {"number": 64, "value": 127}, "group": "control_change"}, {"time": 1732, "annotation": {"number": 64, "value": 0}, "group": "control_change"}, {"time": 1734, "annotation": {"number": 64, "value": 127}, "group": "control_change"}, {"time": 1755, "annotation": {"number": 64, "value": 0}, "group": "control_change"}, {"time": 1757, "annotation": {"number": 64, "value": 127}, "group": "control_change"}, {"time": 1775, "annotation": {"number": 64, "value": 0}, "group": "control_change"}, {"time": 1781, "annotation": {"number": 64, "value": 127}, "group": "control_change"}, {"time": 1803, "annotation": {"number": 64, "value": 0}, "group": "control_change"}, {"time": 1806, "annotation": {"number": 64, "value": 127}, "group": "control_change"}, {"time": 1828, "annotation": {"number": 64, "value": 0}, "group": "control_change"}, {"time": 1830, "annotation": {"number": 64, "value": 127}, "group": "control_change"}, {"time": 1852, "annotation": {"number": 64, "value": 0}, "group": "control_change"}, {"time": 1854, "annotation": {"number": 64, "value": 127}, "group": "control_change"}, {"time": 1875, "annotation": {"number": 64, "value": 0}, "group": "control_change"}, {"time": 1877, "annotation": {"number": 64, "value": 127}, "group": "control_change"}, {"time": 1901, "annotation": {"number": 64, "value": 0}, "group": "control_change"}, {"time": 1902, "annotation": {"number": 64, "value": 127}, "group": "control_change"}, {"time": 1924, "annotation": {"number": 64, "value": 0}, "group": "control_change"}, {"time": 1926, "annotation": {"number": 64, "value": 127}, "group": "control_change"}, {"time": 1949, "annotation": {"number": 64, "value": 127}, "group": "control_change"}, {"time": 1949, "annotation": {"number": 64, "value": 0}, "group": "control_change"}, {"time": 1960, "annotation": {"number": 64, "value": 0}, "group": "control_change"}, {"time": 1962, "annotation": {"number": 64, "value": 127}, "group": "control_change"}, {"time": 1970, "annotation": {"number": 64, "value": 0}, "group": "control_change"}, {"time": 1974, "annotation": {"number": 64, "value": 127}, "group": "control_change"}, {"time": 1996, "annotation": {"number": 64, "value": 0}, "group": "control_change"}, {"time": 1998, "annotation": {"number": 64, "value": 127}, "group": "control_change"}, {"time": 2020, "annotation": {"number": 64, "value": 0}, "group": "control_change"}, {"time": 2022, "annotation": {"number": 64, "value": 127}, "group": "control_change"}, {"time": 2069, "annotation": {"number": 64, "value": 127}, "group": "control_change"}, {"time": 2092, "annotation": {"number": 64, "value": 0}, "group": "control_change"}, {"time": 2094, "annotation": {"number": 64, "value": 127}, "group": "control_change"}, {"time": 2114, "annotation": {"number": 64, "value": 0}, "group": "control_change"}, {"time": 2118, "annotation": {"number": 64, "value": 127}, "group": "control_change"}, {"time": 2129, "annotation": {"number": 64, "value": 0}, "group": "control_change"}, {"time": 2130, "annotation": {"number": 64, "value": 127}, "group": "control_change"}, {"time": 2140, "annotation": {"number": 64, "value": 0}, "group": "control_change"}, {"time": 2142, "annotation": {"number": 64, "value": 127}, "group": "control_change"}, {"time": 2162, "annotation": {"number": 64, "value": 0}, "group": "control_change"}, {"time": 2165, "annotation": {"number": 64, "value": 127}, "group": "control_change"}, {"time": 2187, "annotation": {"number": 64, "value": 0}, "group": "control_change"}, {"time": 2189, "annotation": {"number": 64, "value": 127}, "group": "control_change"}, {"time": 2195, "annotation": {"number": 64, "value": 0}, "group": "control_change"}, {"time": 2197, "annotation": {"number": 64, "value": 127}, "group": "control_change"}, {"time": 2201, "annotation": {"number": 64, "value": 0}, "group": "control_change"}, {"time": 2201, "annotation": {"number": 64, "value": 127}, "group": "control_change"}, {"time": 2210, "annotation": {"number": 64, "value": 0}, "group": "control_change"}, {"time": 2212, "annotation": {"number": 64, "value": 127}, "group": "control_change"}, {"time": 2235, "annotation": {"number": 64, "value": 0}, "group": "control_change"}, {"time": 2236, "annotation": {"number": 64, "value": 127}, "group": "control_change"}, {"time": 2260, "annotation": {"number": 64, "value": 0}, "group": "control_change"}, {"time": 2262, "annotation": {"number": 64, "value": 127}, "group": "control_change"}, {"time": 2284, "annotation": {"number": 64, "value": 0}, "group": "control_change"}, {"time": 2286, "annotation": {"number": 64, "value": 127}, "group": "control_change"}, {"time": 2308, "annotation": {"number": 64, "value": 0}, "group": "control_change"}, {"time": 2309, "annotation": {"number": 64, "value": 127}, "group": "control_change"}, {"time": 2331, "annotation": {"number": 64, "value": 0}, "group": "control_change"}, {"time": 2333, "annotation": {"number": 64, "value": 127}, "group": "control_change"}, {"time": 2344, "annotation": {"number": 64, "value": 0}, "group": "control_change"}, {"time": 2345, "annotation": {"number": 64, "value": 127}, "group": "control_change"}, {"time": 2355, "annotation": {"number": 64, "value": 0}, "group": "control_change"}, {"time": 2357, "annotation": {"number": 64, "value": 127}, "group": "control_change"}, {"time": 2380, "annotation": {"number": 64, "value": 0}, "group": "control_change"}, {"time": 2382, "annotation": {"number": 64, "value": 127}, "group": "control_change"}, {"time": 2402, "annotation": {"number": 64, "value": 0}, "group": "control_change"}, {"time": 2404, "annotation": {"number": 64, "value": 127}, "group": "control_change"}, {"time": 2417, "annotation": {"number": 64, "value": 0}, "group": "control_change"}, {"time": 2417, "annotation": {"number": 64, "value": 127}, "group": "control_change"}, {"time": 2428, "annotation": {"number": 64, "value": 0}, "group": "control_change"}, {"time": 2429, "annotation": {"number": 64, "value": 127}, "group": "control_change"}, {"time": 2451, "annotation": {"number": 64, "value": 0}, "group": "control_change"}, {"time": 2453, "annotation": {"number": 64, "value": 127}, "group": "control_change"}, {"time": 2476, "annotation": {"number": 64, "value": 0}, "group": "control_change"}, {"time": 2478, "annotation": {"number": 64, "value": 127}, "group": "control_change"}, {"time": 2499, "annotation": {"number": 64, "value": 0}, "group": "control_change"}, {"time": 2501, "annotation": {"number": 64, "value": 127}, "group": "control_change"}, {"time": 2523, "annotation": {"number": 64, "value": 0}, "group": "control_change"}, {"time": 2524, "annotation": {"number": 64, "value": 127}, "group": "control_change"}, {"time": 2546, "annotation": {"number": 64, "value": 0}, "group": "control_change"}, {"time": 2548, "annotation": {"number": 64, "value": 127}, "group": "control_change"}, {"time": 2572, "annotation": {"number": 64, "value": 0}, "group": "control_change"}, {"time": 2573, "annotation": {"number": 64, "value": 127}, "group": "control_change"}, {"time": 2595, "annotation": {"number": 64, "value": 0}, "group": "control_change"}, {"time": 2597, "annotation": {"number": 64, "value": 127}, "group": "control_change"}, {"time": 2619, "annotation": {"number": 64, "value": 0}, "group": "control_change"}, {"time": 2620, "annotation": {"number": 64, "value": 127}, "group": "control_change"}, {"time": 2643, "annotation": {"number": 64, "value": 0}, "group": "control_change"}, {"time": 2645, "annotation": {"number": 64, "value": 127}, "group": "control_change"}, {"time": 2656, "annotation": {"number": 64, "value": 0}, "group": "control_change"}, {"time": 2656, "annotation": {"number": 64, "value": 127}, "group": "control_change"}, {"time": 2667, "annotation": {"number": 64, "value": 0}, "group": "control_change"}, {"time": 2668, "annotation": {"number": 64, "value": 127}, "group": "control_change"}, {"time": 2691, "annotation": {"number": 64, "value": 0}, "group": "control_change"}, {"time": 2693, "annotation": {"number": 64, "value": 127}, "group": "control_change"}, {"time": 2715, "annotation": {"number": 64, "value": 0}, "group": "control_change"}, {"time": 2716, "annotation": {"number": 64, "value": 127}, "group": "control_change"}, {"time": 2739, "annotation": {"number": 64, "value": 0}, "group": "control_change"}, {"time": 2742, "annotation": {"number": 64, "value": 127}, "group": "control_change"}, {"time": 2763, "annotation": {"number": 64, "value": 0}, "group": "control_change"}, {"time": 2765, "annotation": {"number": 64, "value": 127}, "group": "control_change"}, {"time": 2789, "annotation": {"number": 64, "value": 127}, "group": "control_change"}, {"time": 2803, "annotation": {"number": 64, "value": 0}, "group": "control_change"}, {"time": 2805, "annotation": {"number": 64, "value": 127}, "group": "control_change"}, {"time": 2811, "annotation": {"number": 64, "value": 0}, "group": "control_change"}, {"time": 2813, "annotation": {"number": 64, "value": 127}, "group": "control_change"}, {"time": 2824, "annotation": {"number": 64, "value": 0}, "group": "control_change"}, {"time": 2825, "annotation": {"number": 64, "value": 127}, "group": "control_change"}, {"time": 2835, "annotation": {"number": 64, "value": 0}, "group": "control_change"}, {"time": 2837, "annotation": {"number": 64, "value": 127}, "group": "control_change"}, {"time": 2859, "annotation": {"number": 64, "value": 0}, "group": "control_change"}, {"time": 2860, "annotation": {"number": 64, "value": 127}, "group": "control_change"}, {"time": 2884, "annotation": {"number": 64, "value": 0}, "group": "control_change"}, {"time": 2885, "annotation": {"number": 64, "value": 127}, "group": "control_change"}, {"time": 2906, "annotation": {"number": 64, "value": 0}, "group": "control_change"}, {"time": 2908, "annotation": {"number": 64, "value": 127}, "group": "control_change"}, {"time": 2931, "annotation": {"number": 64, "value": 0}, "group": "control_change"}, {"time": 2933, "annotation": {"number": 64, "value": 127}, "group": "control_change"}, {"time": 3020, "annotation": {"number": 64, "value": 0}, "group": "control_change"}]}]}