{"metadata": {"schema_version": "0.2", "title": "None", "source_filename": "713.mid", "source_format": "midi"}, "resolution": 12, "tempos": [{"time": 0, "qpm": 88.00002346667293}], "key_signatures": [{"time": 0, "root": 0, "mode": "major"}], "time_signatures": [{"time": 0, "numerator": 4, "denominator": 4}, {"time": 0, "numerator": 1, "denominator": 4}], "tracks": [{"program": 4, "is_drum": false, "name": "MELODY", "notes": [{"time": 412, "pitch": 78, "duration": 2, "velocity": 87}, {"time": 415, "pitch": 78, "duration": 2, "velocity": 87}, {"time": 418, "pitch": 78, "duration": 2, "velocity": 84}, {"time": 421, "pitch": 78, "duration": 3, "velocity": 84}, {"time": 424, "pitch": 76, "duration": 2, "velocity": 99}, {"time": 430, "pitch": 73, "duration": 4, "velocity": 91}, {"time": 442, "pitch": 74, "duration": 11, "velocity": 89}, {"time": 454, "pitch": 73, "duration": 3, "velocity": 89}, {"time": 460, "pitch": 71, "duration": 4, "velocity": 84}, {"time": 466, "pitch": 74, "duration": 17, "velocity": 89}, {"time": 508, "pitch": 78, "duration": 2, "velocity": 88}, {"time": 511, "pitch": 78, "duration": 2, "velocity": 87}, {"time": 514, "pitch": 78, "duration": 2, "velocity": 88}, {"time": 517, "pitch": 78, "duration": 2, "velocity": 90}, {"time": 520, "pitch": 76, "duration": 3, "velocity": 82}, {"time": 526, "pitch": 81, "duration": 9, "velocity": 81}, {"time": 538, "pitch": 73, "duration": 6, "velocity": 88}, {"time": 550, "pitch": 74, "duration": 6, "velocity": 92}, {"time": 556, "pitch": 69, "duration": 6, "velocity": 77}, {"time": 562, "pitch": 73, "duration": 12, "velocity": 77}, {"time": 574, "pitch": 74, "duration": 6, "velocity": 90}, {"time": 579, "pitch": 69, "duration": 7, "velocity": 90}, {"time": 586, "pitch": 71, "duration": 14, "velocity": 90}, {"time": 604, "pitch": 78, "duration": 3, "velocity": 95}, {"time": 607, "pitch": 76, "duration": 2, "velocity": 90}, {"time": 610, "pitch": 74, "duration": 3, "velocity": 89}, {"time": 613, "pitch": 76, "duration": 2, "velocity": 90}, {"time": 616, "pitch": 76, "duration": 4, "velocity": 91}, {"time": 625, "pitch": 69, "duration": 6, "velocity": 88}, {"time": 634, "pitch": 69, "duration": 12, "velocity": 88}, {"time": 652, "pitch": 78, "duration": 4, "velocity": 92}, {"time": 655, "pitch": 76, "duration": 2, "velocity": 95}, {"time": 658, "pitch": 74, "duration": 5, "velocity": 91}, {"time": 664, "pitch": 76, "duration": 9, "velocity": 88}, {"time": 673, "pitch": 73, "duration": 10, "velocity": 88}, {"time": 682, "pitch": 71, "duration": 19, "velocity": 82}, {"time": 700, "pitch": 78, "duration": 2, "velocity": 82}, {"time": 718, "pitch": 69, "duration": 5, "velocity": 89}, {"time": 724, "pitch": 78, "duration": 4, "velocity": 89}, {"time": 730, "pitch": 76, "duration": 10, "velocity": 88}, {"time": 742, "pitch": 81, "duration": 15, "velocity": 89}, {"time": 760, "pitch": 81, "duration": 5, "velocity": 90}, {"time": 766, "pitch": 78, "duration": 4, "velocity": 90}, {"time": 772, "pitch": 74, "duration": 5, "velocity": 88}, {"time": 778, "pitch": 71, "duration": 14, "velocity": 90}, {"time": 796, "pitch": 81, "duration": 5, "velocity": 88}, {"time": 802, "pitch": 76, "duration": 9, "velocity": 89}, {"time": 814, "pitch": 73, "duration": 5, "velocity": 92}, {"time": 820, "pitch": 69, "duration": 4, "velocity": 89}, {"time": 826, "pitch": 73, "duration": 10, "velocity": 84}, {"time": 838, "pitch": 74, "duration": 11, "velocity": 93}, {"time": 856, "pitch": 81, "duration": 5, "velocity": 88}, {"time": 862, "pitch": 78, "duration": 5, "velocity": 89}, {"time": 868, "pitch": 74, "duration": 5, "velocity": 92}, {"time": 874, "pitch": 83, "duration": 14, "velocity": 88}, {"time": 886, "pitch": 81, "duration": 5, "velocity": 93}, {"time": 892, "pitch": 81, "duration": 5, "velocity": 93}, {"time": 898, "pitch": 83, "duration": 15, "velocity": 89}, {"time": 910, "pitch": 81, "duration": 5, "velocity": 93}, {"time": 916, "pitch": 81, "duration": 5, "velocity": 86}, {"time": 922, "pitch": 78, "duration": 10, "velocity": 90}, {"time": 931, "pitch": 76, "duration": 3, "velocity": 85}, {"time": 934, "pitch": 74, "duration": 7, "velocity": 89}, {"time": 946, "pitch": 74, "duration": 3, "velocity": 99}, {"time": 952, "pitch": 81, "duration": 5, "velocity": 89}, {"time": 958, "pitch": 78, "duration": 5, "velocity": 88}, {"time": 964, "pitch": 74, "duration": 4, "velocity": 89}, {"time": 970, "pitch": 74, "duration": 14, "velocity": 92}, {"time": 988, "pitch": 81, "duration": 4, "velocity": 88}, {"time": 994, "pitch": 76, "duration": 15, "velocity": 88}, {"time": 1012, "pitch": 73, "duration": 4, "velocity": 83}, {"time": 1018, "pitch": 73, "duration": 10, "velocity": 88}, {"time": 1030, "pitch": 74, "duration": 11, "velocity": 90}, {"time": 1045, "pitch": 74, "duration": 2, "velocity": 90}, {"time": 1048, "pitch": 81, "duration": 5, "velocity": 88}, {"time": 1054, "pitch": 78, "duration": 3, "velocity": 91}, {"time": 1058, "pitch": 78, "duration": 4, "velocity": 90}, {"time": 1064, "pitch": 76, "duration": 7, "velocity": 89}, {"time": 1072, "pitch": 74, "duration": 34, "velocity": 90}, {"time": 1108, "pitch": 78, "duration": 7, "velocity": 88}, {"time": 1115, "pitch": 76, "duration": 11, "velocity": 90}, {"time": 1126, "pitch": 78, "duration": 2, "velocity": 84}, {"time": 1138, "pitch": 69, "duration": 5, "velocity": 87}, {"time": 1144, "pitch": 73, "duration": 5, "velocity": 83}, {"time": 1150, "pitch": 74, "duration": 5, "velocity": 92}, {"time": 1156, "pitch": 69, "duration": 5, "velocity": 90}, {"time": 1162, "pitch": 73, "duration": 6, "velocity": 84}, {"time": 1168, "pitch": 71, "duration": 28, "velocity": 84}, {"time": 1372, "pitch": 78, "duration": 2, "velocity": 87}, {"time": 1375, "pitch": 78, "duration": 2, "velocity": 87}, {"time": 1378, "pitch": 78, "duration": 2, "velocity": 84}, {"time": 1381, "pitch": 78, "duration": 3, "velocity": 84}, {"time": 1384, "pitch": 76, "duration": 2, "velocity": 99}, {"time": 1390, "pitch": 73, "duration": 9, "velocity": 91}, {"time": 1402, "pitch": 74, "duration": 11, "velocity": 89}, {"time": 1414, "pitch": 73, "duration": 3, "velocity": 89}, {"time": 1420, "pitch": 71, "duration": 4, "velocity": 84}, {"time": 1426, "pitch": 74, "duration": 17, "velocity": 89}, {"time": 1468, "pitch": 78, "duration": 2, "velocity": 88}, {"time": 1471, "pitch": 78, "duration": 2, "velocity": 87}, {"time": 1474, "pitch": 78, "duration": 2, "velocity": 88}, {"time": 1477, "pitch": 78, "duration": 2, "velocity": 90}, {"time": 1480, "pitch": 76, "duration": 3, "velocity": 82}, {"time": 1486, "pitch": 81, "duration": 9, "velocity": 81}, {"time": 1498, "pitch": 73, "duration": 6, "velocity": 88}, {"time": 1510, "pitch": 74, "duration": 6, "velocity": 92}, {"time": 1516, "pitch": 69, "duration": 6, "velocity": 77}, {"time": 1522, "pitch": 73, "duration": 6, "velocity": 77}, {"time": 1534, "pitch": 74, "duration": 6, "velocity": 90}, {"time": 1541, "pitch": 71, "duration": 19, "velocity": 90}, {"time": 1564, "pitch": 78, "duration": 3, "velocity": 95}, {"time": 1567, "pitch": 76, "duration": 2, "velocity": 90}, {"time": 1570, "pitch": 74, "duration": 3, "velocity": 89}, {"time": 1573, "pitch": 76, "duration": 2, "velocity": 90}, {"time": 1576, "pitch": 76, "duration": 4, "velocity": 91}, {"time": 1582, "pitch": 69, "duration": 9, "velocity": 88}, {"time": 1594, "pitch": 69, "duration": 12, "velocity": 88}, {"time": 1612, "pitch": 78, "duration": 4, "velocity": 92}, {"time": 1615, "pitch": 76, "duration": 2, "velocity": 95}, {"time": 1618, "pitch": 74, "duration": 5, "velocity": 91}, {"time": 1624, "pitch": 76, "duration": 9, "velocity": 88}, {"time": 1633, "pitch": 73, "duration": 10, "velocity": 88}, {"time": 1642, "pitch": 74, "duration": 32, "velocity": 82}, {"time": 1678, "pitch": 71, "duration": 5, "velocity": 89}, {"time": 1684, "pitch": 78, "duration": 4, "velocity": 89}, {"time": 1690, "pitch": 76, "duration": 14, "velocity": 88}, {"time": 1702, "pitch": 81, "duration": 15, "velocity": 89}, {"time": 1720, "pitch": 81, "duration": 5, "velocity": 90}, {"time": 1726, "pitch": 78, "duration": 4, "velocity": 90}, {"time": 1732, "pitch": 74, "duration": 5, "velocity": 88}, {"time": 1738, "pitch": 71, "duration": 14, "velocity": 90}, {"time": 1756, "pitch": 81, "duration": 5, "velocity": 88}, {"time": 1762, "pitch": 76, "duration": 9, "velocity": 89}, {"time": 1774, "pitch": 73, "duration": 5, "velocity": 92}, {"time": 1780, "pitch": 69, "duration": 4, "velocity": 89}, {"time": 1786, "pitch": 73, "duration": 10, "velocity": 84}, {"time": 1798, "pitch": 74, "duration": 11, "velocity": 93}, {"time": 1816, "pitch": 81, "duration": 5, "velocity": 88}, {"time": 1822, "pitch": 78, "duration": 5, "velocity": 89}, {"time": 1828, "pitch": 74, "duration": 5, "velocity": 92}, {"time": 1834, "pitch": 83, "duration": 16, "velocity": 88}, {"time": 1852, "pitch": 81, "duration": 5, "velocity": 73}, {"time": 1858, "pitch": 83, "duration": 15, "velocity": 89}, {"time": 1876, "pitch": 81, "duration": 5, "velocity": 86}, {"time": 1882, "pitch": 78, "duration": 11, "velocity": 90}, {"time": 1891, "pitch": 76, "duration": 3, "velocity": 90}, {"time": 1894, "pitch": 74, "duration": 7, "velocity": 89}, {"time": 1906, "pitch": 74, "duration": 3, "velocity": 99}, {"time": 1912, "pitch": 81, "duration": 5, "velocity": 89}, {"time": 1918, "pitch": 78, "duration": 5, "velocity": 88}, {"time": 1924, "pitch": 74, "duration": 4, "velocity": 89}, {"time": 1930, "pitch": 74, "duration": 14, "velocity": 92}, {"time": 1948, "pitch": 81, "duration": 4, "velocity": 88}, {"time": 1954, "pitch": 76, "duration": 10, "velocity": 88}, {"time": 1963, "pitch": 78, "duration": 3, "velocity": 103}, {"time": 1972, "pitch": 73, "duration": 4, "velocity": 83}, {"time": 1978, "pitch": 73, "duration": 10, "velocity": 88}, {"time": 1990, "pitch": 74, "duration": 11, "velocity": 90}, {"time": 2005, "pitch": 74, "duration": 2, "velocity": 90}, {"time": 2008, "pitch": 81, "duration": 5, "velocity": 88}, {"time": 2014, "pitch": 78, "duration": 3, "velocity": 91}, {"time": 2018, "pitch": 78, "duration": 4, "velocity": 90}, {"time": 2025, "pitch": 76, "duration": 3, "velocity": 89}, {"time": 2028, "pitch": 74, "duration": 2, "velocity": 82}, {"time": 2030, "pitch": 76, "duration": 2, "velocity": 59}, {"time": 2032, "pitch": 74, "duration": 35, "velocity": 90}, {"time": 2068, "pitch": 78, "duration": 8, "velocity": 88}, {"time": 2074, "pitch": 76, "duration": 12, "velocity": 90}, {"time": 2086, "pitch": 78, "duration": 3, "velocity": 90}, {"time": 2098, "pitch": 69, "duration": 5, "velocity": 87}, {"time": 2104, "pitch": 73, "duration": 5, "velocity": 83}, {"time": 2110, "pitch": 74, "duration": 5, "velocity": 92}, {"time": 2116, "pitch": 69, "duration": 5, "velocity": 90}, {"time": 2122, "pitch": 73, "duration": 17, "velocity": 84}, {"time": 2140, "pitch": 74, "duration": 4, "velocity": 89}, {"time": 2146, "pitch": 74, "duration": 11, "velocity": 97}, {"time": 2158, "pitch": 74, "duration": 5, "velocity": 95}, {"time": 2164, "pitch": 76, "duration": 4, "velocity": 92}, {"time": 2170, "pitch": 77, "duration": 8, "velocity": 88}, {"time": 2176, "pitch": 76, "duration": 6, "velocity": 88}, {"time": 2182, "pitch": 77, "duration": 28, "velocity": 89}, {"time": 2211, "pitch": 77, "duration": 7, "velocity": 90}, {"time": 2217, "pitch": 76, "duration": 13, "velocity": 89}, {"time": 2260, "pitch": 76, "duration": 6, "velocity": 87}, {"time": 2265, "pitch": 74, "duration": 13, "velocity": 89}, {"time": 2308, "pitch": 79, "duration": 5, "velocity": 100}, {"time": 2313, "pitch": 78, "duration": 15, "velocity": 83}, {"time": 2326, "pitch": 81, "duration": 30, "velocity": 83}, {"time": 2356, "pitch": 79, "duration": 6, "velocity": 92}, {"time": 2361, "pitch": 78, "duration": 4, "velocity": 101}, {"time": 2386, "pitch": 74, "duration": 6, "velocity": 89}, {"time": 2392, "pitch": 81, "duration": 5, "velocity": 90}, {"time": 2398, "pitch": 79, "duration": 4, "velocity": 90}, {"time": 2404, "pitch": 81, "duration": 5, "velocity": 88}, {"time": 2410, "pitch": 78, "duration": 3, "velocity": 89}, {"time": 2412, "pitch": 76, "duration": 3, "velocity": 94}, {"time": 2415, "pitch": 74, "duration": 13, "velocity": 82}, {"time": 2428, "pitch": 81, "duration": 5, "velocity": 88}, {"time": 2434, "pitch": 76, "duration": 9, "velocity": 89}, {"time": 2446, "pitch": 73, "duration": 5, "velocity": 92}, {"time": 2452, "pitch": 69, "duration": 4, "velocity": 89}, {"time": 2458, "pitch": 73, "duration": 10, "velocity": 84}, {"time": 2470, "pitch": 74, "duration": 11, "velocity": 93}, {"time": 2488, "pitch": 81, "duration": 5, "velocity": 88}, {"time": 2494, "pitch": 78, "duration": 5, "velocity": 89}, {"time": 2500, "pitch": 74, "duration": 5, "velocity": 92}, {"time": 2506, "pitch": 83, "duration": 12, "velocity": 88}, {"time": 2518, "pitch": 81, "duration": 4, "velocity": 93}, {"time": 2524, "pitch": 81, "duration": 5, "velocity": 93}, {"time": 2530, "pitch": 83, "duration": 12, "velocity": 89}, {"time": 2542, "pitch": 81, "duration": 4, "velocity": 86}, {"time": 2548, "pitch": 81, "duration": 8, "velocity": 86}, {"time": 2554, "pitch": 78, "duration": 11, "velocity": 90}, {"time": 2563, "pitch": 76, "duration": 3, "velocity": 79}, {"time": 2566, "pitch": 74, "duration": 7, "velocity": 79}, {"time": 2578, "pitch": 74, "duration": 3, "velocity": 99}, {"time": 2584, "pitch": 81, "duration": 5, "velocity": 89}, {"time": 2590, "pitch": 78, "duration": 5, "velocity": 88}, {"time": 2596, "pitch": 74, "duration": 4, "velocity": 89}, {"time": 2602, "pitch": 74, "duration": 14, "velocity": 92}, {"time": 2620, "pitch": 81, "duration": 4, "velocity": 88}, {"time": 2626, "pitch": 76, "duration": 10, "velocity": 88}, {"time": 2635, "pitch": 78, "duration": 2, "velocity": 83}, {"time": 2644, "pitch": 73, "duration": 4, "velocity": 83}, {"time": 2650, "pitch": 73, "duration": 10, "velocity": 88}, {"time": 2662, "pitch": 74, "duration": 11, "velocity": 90}, {"time": 2677, "pitch": 74, "duration": 2, "velocity": 90}, {"time": 2680, "pitch": 81, "duration": 5, "velocity": 88}, {"time": 2686, "pitch": 78, "duration": 3, "velocity": 91}, {"time": 2692, "pitch": 78, "duration": 4, "velocity": 90}, {"time": 2695, "pitch": 76, "duration": 3, "velocity": 89}, {"time": 2698, "pitch": 74, "duration": 3, "velocity": 82}, {"time": 2701, "pitch": 76, "duration": 3, "velocity": 80}, {"time": 2704, "pitch": 74, "duration": 25, "velocity": 106}, {"time": 2740, "pitch": 78, "duration": 3, "velocity": 88}, {"time": 2743, "pitch": 74, "duration": 2, "velocity": 59}, {"time": 2747, "pitch": 76, "duration": 11, "velocity": 90}, {"time": 2758, "pitch": 81, "duration": 3, "velocity": 59}, {"time": 2770, "pitch": 81, "duration": 5, "velocity": 87}, {"time": 2776, "pitch": 78, "duration": 5, "velocity": 83}, {"time": 2782, "pitch": 78, "duration": 5, "velocity": 92}, {"time": 2788, "pitch": 74, "duration": 5, "velocity": 90}, {"time": 2794, "pitch": 74, "duration": 1, "velocity": 59}, {"time": 2795, "pitch": 71, "duration": 11, "velocity": 84}, {"time": 2812, "pitch": 81, "duration": 4, "velocity": 89}, {"time": 2817, "pitch": 78, "duration": 1, "velocity": 59}, {"time": 2818, "pitch": 76, "duration": 12, "velocity": 97}, {"time": 2830, "pitch": 73, "duration": 5, "velocity": 95}, {"time": 2836, "pitch": 69, "duration": 4, "velocity": 92}, {"time": 2842, "pitch": 73, "duration": 8, "velocity": 88}, {"time": 2854, "pitch": 74, "duration": 12, "velocity": 88}, {"time": 2872, "pitch": 81, "duration": 5, "velocity": 89}, {"time": 2878, "pitch": 78, "duration": 5, "velocity": 92}, {"time": 2884, "pitch": 74, "duration": 4, "velocity": 95}, {"time": 2890, "pitch": 83, "duration": 17, "velocity": 90}, {"time": 2908, "pitch": 81, "duration": 5, "velocity": 92}, {"time": 2914, "pitch": 83, "duration": 12, "velocity": 94}, {"time": 2925, "pitch": 86, "duration": 15, "velocity": 89}, {"time": 2938, "pitch": 78, "duration": 9, "velocity": 91}, {"time": 2947, "pitch": 76, "duration": 2, "velocity": 83}, {"time": 2950, "pitch": 74, "duration": 5, "velocity": 83}, {"time": 2962, "pitch": 74, "duration": 5, "velocity": 104}, {"time": 2968, "pitch": 81, "duration": 4, "velocity": 89}, {"time": 2974, "pitch": 78, "duration": 5, "velocity": 89}, {"time": 2980, "pitch": 74, "duration": 4, "velocity": 92}, {"time": 2986, "pitch": 74, "duration": 16, "velocity": 95}, {"time": 3004, "pitch": 81, "duration": 4, "velocity": 86}, {"time": 3010, "pitch": 76, "duration": 12, "velocity": 92}, {"time": 3022, "pitch": 73, "duration": 5, "velocity": 88}, {"time": 3028, "pitch": 73, "duration": 5, "velocity": 88}, {"time": 3034, "pitch": 73, "duration": 10, "velocity": 89}, {"time": 3046, "pitch": 74, "duration": 6, "velocity": 94}, {"time": 3052, "pitch": 76, "duration": 2, "velocity": 59}, {"time": 3073, "pitch": 71, "duration": 2, "velocity": 90}, {"time": 3076, "pitch": 74, "duration": 2, "velocity": 97}, {"time": 3079, "pitch": 76, "duration": 3, "velocity": 88}, {"time": 3082, "pitch": 78, "duration": 4, "velocity": 94}, {"time": 3088, "pitch": 78, "duration": 4, "velocity": 89}, {"time": 3094, "pitch": 76, "duration": 5, "velocity": 90}, {"time": 3100, "pitch": 71, "duration": 4, "velocity": 92}, {"time": 3106, "pitch": 74, "duration": 22, "velocity": 94}, {"time": 3127, "pitch": 76, "duration": 1, "velocity": 91}, {"time": 3130, "pitch": 76, "duration": 12, "velocity": 91}, {"time": 3142, "pitch": 78, "duration": 1, "velocity": 91}, {"time": 3154, "pitch": 69, "duration": 5, "velocity": 88}, {"time": 3160, "pitch": 73, "duration": 5, "velocity": 84}, {"time": 3166, "pitch": 74, "duration": 6, "velocity": 92}, {"time": 3172, "pitch": 69, "duration": 6, "velocity": 90}, {"time": 3178, "pitch": 73, "duration": 7, "velocity": 90}, {"time": 3184, "pitch": 71, "duration": 29, "velocity": 89}]}, {"program": 0, "is_drum": false, "name": "PIANO", "notes": [{"time": 16, "pitch": 43, "duration": 4, "velocity": 88}, {"time": 16, "pitch": 59, "duration": 9, "velocity": 78}, {"time": 16, "pitch": 62, "duration": 9, "velocity": 85}, {"time": 22, "pitch": 43, "duration": 2, "velocity": 84}, {"time": 28, "pitch": 43, "duration": 2, "velocity": 84}, {"time": 28, "pitch": 50, "duration": 2, "velocity": 85}, {"time": 28, "pitch": 55, "duration": 6, "velocity": 79}, {"time": 28, "pitch": 59, "duration": 7, "velocity": 80}, {"time": 28, "pitch": 62, "duration": 7, "velocity": 85}, {"time": 34, "pitch": 43, "duration": 3, "velocity": 78}, {"time": 40, "pitch": 45, "duration": 4, "velocity": 87}, {"time": 40, "pitch": 57, "duration": 8, "velocity": 78}, {"time": 40, "pitch": 61, "duration": 7, "velocity": 83}, {"time": 46, "pitch": 45, "duration": 3, "velocity": 78}, {"time": 46, "pitch": 52, "duration": 3, "velocity": 79}, {"time": 52, "pitch": 45, "duration": 3, "velocity": 86}, {"time": 52, "pitch": 52, "duration": 2, "velocity": 88}, {"time": 52, "pitch": 57, "duration": 4, "velocity": 80}, {"time": 52, "pitch": 61, "duration": 4, "velocity": 82}, {"time": 58, "pitch": 45, "duration": 3, "velocity": 88}, {"time": 64, "pitch": 47, "duration": 9, "velocity": 88}, {"time": 64, "pitch": 59, "duration": 6, "velocity": 76}, {"time": 64, "pitch": 62, "duration": 5, "velocity": 84}, {"time": 70, "pitch": 54, "duration": 3, "velocity": 71}, {"time": 76, "pitch": 47, "duration": 3, "velocity": 88}, {"time": 76, "pitch": 54, "duration": 3, "velocity": 83}, {"time": 76, "pitch": 59, "duration": 8, "velocity": 83}, {"time": 76, "pitch": 62, "duration": 9, "velocity": 82}, {"time": 76, "pitch": 66, "duration": 8, "velocity": 73}, {"time": 82, "pitch": 47, "duration": 4, "velocity": 83}, {"time": 88, "pitch": 47, "duration": 4, "velocity": 77}, {"time": 88, "pitch": 59, "duration": 7, "velocity": 76}, {"time": 88, "pitch": 62, "duration": 7, "velocity": 81}, {"time": 94, "pitch": 47, "duration": 3, "velocity": 77}, {"time": 94, "pitch": 54, "duration": 3, "velocity": 74}, {"time": 100, "pitch": 47, "duration": 3, "velocity": 79}, {"time": 100, "pitch": 54, "duration": 3, "velocity": 73}, {"time": 100, "pitch": 61, "duration": 6, "velocity": 84}, {"time": 106, "pitch": 47, "duration": 3, "velocity": 87}, {"time": 106, "pitch": 62, "duration": 3, "velocity": 84}, {"time": 112, "pitch": 43, "duration": 3, "velocity": 84}, {"time": 112, "pitch": 55, "duration": 10, "velocity": 66}, {"time": 112, "pitch": 59, "duration": 10, "velocity": 72}, {"time": 118, "pitch": 43, "duration": 3, "velocity": 75}, {"time": 118, "pitch": 50, "duration": 2, "velocity": 70}, {"time": 124, "pitch": 43, "duration": 3, "velocity": 84}, {"time": 124, "pitch": 50, "duration": 2, "velocity": 83}, {"time": 124, "pitch": 55, "duration": 8, "velocity": 83}, {"time": 124, "pitch": 59, "duration": 8, "velocity": 83}, {"time": 124, "pitch": 62, "duration": 10, "velocity": 84}, {"time": 130, "pitch": 43, "duration": 3, "velocity": 83}, {"time": 136, "pitch": 45, "duration": 5, "velocity": 88}, {"time": 136, "pitch": 57, "duration": 9, "velocity": 77}, {"time": 136, "pitch": 61, "duration": 9, "velocity": 83}, {"time": 142, "pitch": 45, "duration": 2, "velocity": 58}, {"time": 142, "pitch": 52, "duration": 2, "velocity": 79}, {"time": 148, "pitch": 45, "duration": 3, "velocity": 85}, {"time": 148, "pitch": 52, "duration": 2, "velocity": 82}, {"time": 148, "pitch": 57, "duration": 6, "velocity": 77}, {"time": 148, "pitch": 64, "duration": 8, "velocity": 87}, {"time": 154, "pitch": 45, "duration": 3, "velocity": 87}, {"time": 160, "pitch": 47, "duration": 9, "velocity": 88}, {"time": 160, "pitch": 59, "duration": 8, "velocity": 77}, {"time": 160, "pitch": 62, "duration": 9, "velocity": 79}, {"time": 166, "pitch": 54, "duration": 3, "velocity": 69}, {"time": 172, "pitch": 47, "duration": 3, "velocity": 81}, {"time": 172, "pitch": 54, "duration": 3, "velocity": 78}, {"time": 172, "pitch": 59, "duration": 8, "velocity": 81}, {"time": 172, "pitch": 62, "duration": 7, "velocity": 81}, {"time": 172, "pitch": 66, "duration": 7, "velocity": 74}, {"time": 178, "pitch": 47, "duration": 3, "velocity": 77}, {"time": 178, "pitch": 54, "duration": 3, "velocity": 68}, {"time": 184, "pitch": 47, "duration": 3, "velocity": 83}, {"time": 184, "pitch": 54, "duration": 3, "velocity": 71}, {"time": 184, "pitch": 61, "duration": 3, "velocity": 88}, {"time": 190, "pitch": 47, "duration": 3, "velocity": 79}, {"time": 190, "pitch": 54, "duration": 3, "velocity": 66}, {"time": 190, "pitch": 62, "duration": 5, "velocity": 82}, {"time": 196, "pitch": 47, "duration": 4, "velocity": 85}, {"time": 196, "pitch": 54, "duration": 3, "velocity": 76}, {"time": 196, "pitch": 61, "duration": 7, "velocity": 89}, {"time": 202, "pitch": 47, "duration": 6, "velocity": 81}, {"time": 202, "pitch": 54, "duration": 6, "velocity": 75}, {"time": 202, "pitch": 57, "duration": 6, "velocity": 87}, {"time": 208, "pitch": 43, "duration": 8, "velocity": 88}, {"time": 208, "pitch": 55, "duration": 6, "velocity": 85}, {"time": 208, "pitch": 62, "duration": 6, "velocity": 89}, {"time": 214, "pitch": 50, "duration": 3, "velocity": 84}, {"time": 220, "pitch": 43, "duration": 2, "velocity": 88}, {"time": 220, "pitch": 50, "duration": 2, "velocity": 89}, {"time": 220, "pitch": 55, "duration": 5, "velocity": 85}, {"time": 220, "pitch": 62, "duration": 6, "velocity": 86}, {"time": 226, "pitch": 43, "duration": 3, "velocity": 87}, {"time": 226, "pitch": 50, "duration": 2, "velocity": 79}, {"time": 232, "pitch": 45, "duration": 4, "velocity": 88}, {"time": 232, "pitch": 57, "duration": 9, "velocity": 84}, {"time": 232, "pitch": 61, "duration": 9, "velocity": 88}, {"time": 238, "pitch": 45, "duration": 2, "velocity": 81}, {"time": 238, "pitch": 52, "duration": 2, "velocity": 83}, {"time": 244, "pitch": 45, "duration": 2, "velocity": 88}, {"time": 244, "pitch": 52, "duration": 2, "velocity": 88}, {"time": 244, "pitch": 57, "duration": 7, "velocity": 88}, {"time": 244, "pitch": 61, "duration": 7, "velocity": 87}, {"time": 250, "pitch": 45, "duration": 3, "velocity": 82}, {"time": 256, "pitch": 47, "duration": 9, "velocity": 88}, {"time": 256, "pitch": 59, "duration": 6, "velocity": 84}, {"time": 256, "pitch": 62, "duration": 4, "velocity": 83}, {"time": 262, "pitch": 54, "duration": 3, "velocity": 73}, {"time": 268, "pitch": 47, "duration": 3, "velocity": 81}, {"time": 268, "pitch": 54, "duration": 3, "velocity": 81}, {"time": 268, "pitch": 59, "duration": 8, "velocity": 88}, {"time": 268, "pitch": 62, "duration": 8, "velocity": 87}, {"time": 268, "pitch": 66, "duration": 9, "velocity": 83}, {"time": 274, "pitch": 47, "duration": 4, "velocity": 84}, {"time": 280, "pitch": 47, "duration": 4, "velocity": 81}, {"time": 280, "pitch": 54, "duration": 4, "velocity": 84}, {"time": 280, "pitch": 59, "duration": 4, "velocity": 74}, {"time": 280, "pitch": 62, "duration": 3, "velocity": 84}, {"time": 286, "pitch": 47, "duration": 3, "velocity": 83}, {"time": 286, "pitch": 61, "duration": 4, "velocity": 89}, {"time": 292, "pitch": 47, "duration": 4, "velocity": 82}, {"time": 292, "pitch": 54, "duration": 3, "velocity": 76}, {"time": 292, "pitch": 62, "duration": 10, "velocity": 90}, {"time": 298, "pitch": 47, "duration": 3, "velocity": 84}, {"time": 304, "pitch": 43, "duration": 3, "velocity": 87}, {"time": 304, "pitch": 55, "duration": 9, "velocity": 84}, {"time": 304, "pitch": 59, "duration": 9, "velocity": 85}, {"time": 310, "pitch": 43, "duration": 3, "velocity": 83}, {"time": 316, "pitch": 43, "duration": 3, "velocity": 85}, {"time": 316, "pitch": 50, "duration": 2, "velocity": 83}, {"time": 316, "pitch": 55, "duration": 6, "velocity": 85}, {"time": 316, "pitch": 59, "duration": 7, "velocity": 88}, {"time": 316, "pitch": 62, "duration": 7, "velocity": 90}, {"time": 322, "pitch": 43, "duration": 3, "velocity": 84}, {"time": 328, "pitch": 45, "duration": 3, "velocity": 88}, {"time": 328, "pitch": 57, "duration": 9, "velocity": 84}, {"time": 328, "pitch": 61, "duration": 10, "velocity": 85}, {"time": 334, "pitch": 45, "duration": 3, "velocity": 84}, {"time": 334, "pitch": 52, "duration": 2, "velocity": 76}, {"time": 340, "pitch": 45, "duration": 3, "velocity": 88}, {"time": 340, "pitch": 52, "duration": 2, "velocity": 88}, {"time": 340, "pitch": 57, "duration": 7, "velocity": 84}, {"time": 340, "pitch": 61, "duration": 6, "velocity": 84}, {"time": 340, "pitch": 64, "duration": 9, "velocity": 92}, {"time": 346, "pitch": 45, "duration": 3, "velocity": 87}, {"time": 352, "pitch": 47, "duration": 9, "velocity": 89}, {"time": 352, "pitch": 59, "duration": 8, "velocity": 81}, {"time": 352, "pitch": 62, "duration": 8, "velocity": 83}, {"time": 358, "pitch": 54, "duration": 3, "velocity": 75}, {"time": 364, "pitch": 47, "duration": 3, "velocity": 80}, {"time": 364, "pitch": 54, "duration": 3, "velocity": 76}, {"time": 364, "pitch": 59, "duration": 4, "velocity": 86}, {"time": 364, "pitch": 62, "duration": 5, "velocity": 86}, {"time": 364, "pitch": 66, "duration": 6, "velocity": 87}, {"time": 370, "pitch": 47, "duration": 3, "velocity": 77}, {"time": 370, "pitch": 54, "duration": 3, "velocity": 70}, {"time": 376, "pitch": 47, "duration": 3, "velocity": 88}, {"time": 376, "pitch": 54, "duration": 3, "velocity": 83}, {"time": 382, "pitch": 47, "duration": 4, "velocity": 88}, {"time": 388, "pitch": 47, "duration": 3, "velocity": 88}, {"time": 388, "pitch": 54, "duration": 3, "velocity": 90}, {"time": 388, "pitch": 59, "duration": 7, "velocity": 88}, {"time": 388, "pitch": 62, "duration": 6, "velocity": 89}, {"time": 394, "pitch": 47, "duration": 3, "velocity": 85}, {"time": 400, "pitch": 43, "duration": 8, "velocity": 89}, {"time": 400, "pitch": 55, "duration": 10, "velocity": 81}, {"time": 400, "pitch": 59, "duration": 10, "velocity": 81}, {"time": 406, "pitch": 50, "duration": 2, "velocity": 82}, {"time": 412, "pitch": 43, "duration": 3, "velocity": 76}, {"time": 412, "pitch": 50, "duration": 2, "velocity": 79}, {"time": 412, "pitch": 55, "duration": 7, "velocity": 80}, {"time": 412, "pitch": 59, "duration": 9, "velocity": 82}, {"time": 418, "pitch": 43, "duration": 3, "velocity": 83}, {"time": 424, "pitch": 45, "duration": 4, "velocity": 84}, {"time": 424, "pitch": 57, "duration": 16, "velocity": 78}, {"time": 424, "pitch": 61, "duration": 16, "velocity": 78}, {"time": 430, "pitch": 45, "duration": 2, "velocity": 72}, {"time": 430, "pitch": 52, "duration": 2, "velocity": 81}, {"time": 436, "pitch": 45, "duration": 2, "velocity": 87}, {"time": 436, "pitch": 52, "duration": 2, "velocity": 88}, {"time": 442, "pitch": 45, "duration": 3, "velocity": 85}, {"time": 448, "pitch": 47, "duration": 9, "velocity": 88}, {"time": 448, "pitch": 59, "duration": 9, "velocity": 78}, {"time": 448, "pitch": 62, "duration": 9, "velocity": 80}, {"time": 454, "pitch": 54, "duration": 4, "velocity": 72}, {"time": 460, "pitch": 47, "duration": 3, "velocity": 84}, {"time": 460, "pitch": 54, "duration": 4, "velocity": 87}, {"time": 460, "pitch": 59, "duration": 7, "velocity": 88}, {"time": 460, "pitch": 62, "duration": 8, "velocity": 88}, {"time": 460, "pitch": 66, "duration": 8, "velocity": 81}, {"time": 466, "pitch": 47, "duration": 10, "velocity": 81}, {"time": 472, "pitch": 54, "duration": 3, "velocity": 74}, {"time": 472, "pitch": 59, "duration": 8, "velocity": 82}, {"time": 472, "pitch": 62, "duration": 9, "velocity": 87}, {"time": 478, "pitch": 47, "duration": 4, "velocity": 77}, {"time": 484, "pitch": 47, "duration": 3, "velocity": 76}, {"time": 484, "pitch": 54, "duration": 4, "velocity": 83}, {"time": 484, "pitch": 59, "duration": 4, "velocity": 89}, {"time": 484, "pitch": 62, "duration": 4, "velocity": 88}, {"time": 484, "pitch": 66, "duration": 4, "velocity": 82}, {"time": 490, "pitch": 47, "duration": 3, "velocity": 84}, {"time": 496, "pitch": 43, "duration": 9, "velocity": 82}, {"time": 496, "pitch": 55, "duration": 9, "velocity": 81}, {"time": 496, "pitch": 59, "duration": 9, "velocity": 79}, {"time": 502, "pitch": 50, "duration": 3, "velocity": 79}, {"time": 508, "pitch": 43, "duration": 3, "velocity": 88}, {"time": 508, "pitch": 50, "duration": 4, "velocity": 84}, {"time": 508, "pitch": 55, "duration": 5, "velocity": 83}, {"time": 508, "pitch": 59, "duration": 6, "velocity": 81}, {"time": 508, "pitch": 62, "duration": 7, "velocity": 86}, {"time": 514, "pitch": 43, "duration": 3, "velocity": 86}, {"time": 520, "pitch": 45, "duration": 8, "velocity": 88}, {"time": 520, "pitch": 57, "duration": 8, "velocity": 78}, {"time": 520, "pitch": 61, "duration": 8, "velocity": 79}, {"time": 526, "pitch": 52, "duration": 2, "velocity": 80}, {"time": 532, "pitch": 45, "duration": 3, "velocity": 88}, {"time": 532, "pitch": 52, "duration": 4, "velocity": 85}, {"time": 532, "pitch": 57, "duration": 6, "velocity": 84}, {"time": 532, "pitch": 61, "duration": 6, "velocity": 88}, {"time": 538, "pitch": 45, "duration": 3, "velocity": 88}, {"time": 544, "pitch": 47, "duration": 9, "velocity": 89}, {"time": 544, "pitch": 59, "duration": 9, "velocity": 79}, {"time": 544, "pitch": 62, "duration": 9, "velocity": 83}, {"time": 550, "pitch": 54, "duration": 3, "velocity": 76}, {"time": 556, "pitch": 47, "duration": 3, "velocity": 81}, {"time": 556, "pitch": 54, "duration": 3, "velocity": 81}, {"time": 556, "pitch": 59, "duration": 10, "velocity": 86}, {"time": 556, "pitch": 62, "duration": 10, "velocity": 87}, {"time": 556, "pitch": 66, "duration": 11, "velocity": 80}, {"time": 562, "pitch": 47, "duration": 4, "velocity": 77}, {"time": 568, "pitch": 47, "duration": 14, "velocity": 84}, {"time": 568, "pitch": 59, "duration": 9, "velocity": 84}, {"time": 568, "pitch": 62, "duration": 9, "velocity": 84}, {"time": 574, "pitch": 54, "duration": 7, "velocity": 66}, {"time": 580, "pitch": 59, "duration": 8, "velocity": 90}, {"time": 580, "pitch": 62, "duration": 7, "velocity": 93}, {"time": 580, "pitch": 66, "duration": 7, "velocity": 93}, {"time": 586, "pitch": 47, "duration": 3, "velocity": 84}, {"time": 592, "pitch": 43, "duration": 9, "velocity": 88}, {"time": 592, "pitch": 55, "duration": 9, "velocity": 85}, {"time": 592, "pitch": 59, "duration": 8, "velocity": 84}, {"time": 598, "pitch": 50, "duration": 3, "velocity": 84}, {"time": 604, "pitch": 43, "duration": 4, "velocity": 88}, {"time": 604, "pitch": 50, "duration": 5, "velocity": 89}, {"time": 604, "pitch": 55, "duration": 3, "velocity": 89}, {"time": 604, "pitch": 59, "duration": 8, "velocity": 90}, {"time": 604, "pitch": 62, "duration": 9, "velocity": 91}, {"time": 610, "pitch": 43, "duration": 4, "velocity": 76}, {"time": 610, "pitch": 55, "duration": 3, "velocity": 90}, {"time": 616, "pitch": 45, "duration": 10, "velocity": 88}, {"time": 616, "pitch": 57, "duration": 4, "velocity": 82}, {"time": 616, "pitch": 61, "duration": 7, "velocity": 84}, {"time": 622, "pitch": 52, "duration": 4, "velocity": 83}, {"time": 622, "pitch": 57, "duration": 3, "velocity": 82}, {"time": 628, "pitch": 45, "duration": 3, "velocity": 89}, {"time": 628, "pitch": 57, "duration": 5, "velocity": 84}, {"time": 628, "pitch": 61, "duration": 6, "velocity": 83}, {"time": 628, "pitch": 64, "duration": 8, "velocity": 89}, {"time": 634, "pitch": 45, "duration": 4, "velocity": 78}, {"time": 634, "pitch": 52, "duration": 4, "velocity": 81}, {"time": 640, "pitch": 50, "duration": 9, "velocity": 83}, {"time": 640, "pitch": 57, "duration": 3, "velocity": 82}, {"time": 640, "pitch": 62, "duration": 8, "velocity": 88}, {"time": 646, "pitch": 57, "duration": 3, "velocity": 87}, {"time": 652, "pitch": 50, "duration": 3, "velocity": 92}, {"time": 652, "pitch": 57, "duration": 3, "velocity": 84}, {"time": 652, "pitch": 62, "duration": 9, "velocity": 88}, {"time": 652, "pitch": 66, "duration": 8, "velocity": 84}, {"time": 658, "pitch": 57, "duration": 4, "velocity": 88}, {"time": 664, "pitch": 47, "duration": 4, "velocity": 88}, {"time": 664, "pitch": 59, "duration": 11, "velocity": 85}, {"time": 664, "pitch": 62, "duration": 11, "velocity": 83}, {"time": 664, "pitch": 66, "duration": 11, "velocity": 81}, {"time": 670, "pitch": 47, "duration": 3, "velocity": 73}, {"time": 676, "pitch": 47, "duration": 3, "velocity": 82}, {"time": 676, "pitch": 54, "duration": 4, "velocity": 76}, {"time": 676, "pitch": 59, "duration": 9, "velocity": 88}, {"time": 676, "pitch": 62, "duration": 8, "velocity": 88}, {"time": 676, "pitch": 66, "duration": 8, "velocity": 85}, {"time": 682, "pitch": 47, "duration": 3, "velocity": 90}, {"time": 688, "pitch": 43, "duration": 4, "velocity": 89}, {"time": 688, "pitch": 55, "duration": 9, "velocity": 86}, {"time": 688, "pitch": 62, "duration": 8, "velocity": 84}, {"time": 694, "pitch": 50, "duration": 2, "velocity": 74}, {"time": 700, "pitch": 43, "duration": 2, "velocity": 89}, {"time": 700, "pitch": 50, "duration": 2, "velocity": 89}, {"time": 700, "pitch": 55, "duration": 10, "velocity": 84}, {"time": 700, "pitch": 59, "duration": 10, "velocity": 82}, {"time": 700, "pitch": 62, "duration": 10, "velocity": 84}, {"time": 706, "pitch": 43, "duration": 3, "velocity": 85}, {"time": 712, "pitch": 43, "duration": 4, "velocity": 88}, {"time": 712, "pitch": 55, "duration": 10, "velocity": 83}, {"time": 712, "pitch": 59, "duration": 9, "velocity": 83}, {"time": 712, "pitch": 62, "duration": 9, "velocity": 85}, {"time": 718, "pitch": 43, "duration": 2, "velocity": 77}, {"time": 718, "pitch": 50, "duration": 2, "velocity": 84}, {"time": 724, "pitch": 43, "duration": 3, "velocity": 89}, {"time": 724, "pitch": 55, "duration": 6, "velocity": 93}, {"time": 724, "pitch": 62, "duration": 7, "velocity": 91}, {"time": 730, "pitch": 43, "duration": 3, "velocity": 89}, {"time": 730, "pitch": 50, "duration": 2, "velocity": 88}, {"time": 736, "pitch": 45, "duration": 3, "velocity": 89}, {"time": 736, "pitch": 57, "duration": 5, "velocity": 89}, {"time": 736, "pitch": 61, "duration": 5, "velocity": 88}, {"time": 742, "pitch": 61, "duration": 2, "velocity": 75}, {"time": 742, "pitch": 64, "duration": 3, "velocity": 89}, {"time": 748, "pitch": 45, "duration": 2, "velocity": 89}, {"time": 748, "pitch": 52, "duration": 2, "velocity": 90}, {"time": 748, "pitch": 57, "duration": 5, "velocity": 82}, {"time": 748, "pitch": 61, "duration": 7, "velocity": 77}, {"time": 748, "pitch": 64, "duration": 6, "velocity": 90}, {"time": 748, "pitch": 69, "duration": 6, "velocity": 88}, {"time": 754, "pitch": 45, "duration": 3, "velocity": 84}, {"time": 754, "pitch": 57, "duration": 3, "velocity": 75}, {"time": 760, "pitch": 45, "duration": 3, "velocity": 89}, {"time": 760, "pitch": 52, "duration": 3, "velocity": 89}, {"time": 760, "pitch": 57, "duration": 7, "velocity": 88}, {"time": 760, "pitch": 61, "duration": 7, "velocity": 85}, {"time": 766, "pitch": 45, "duration": 4, "velocity": 76}, {"time": 772, "pitch": 45, "duration": 3, "velocity": 88}, {"time": 772, "pitch": 52, "duration": 3, "velocity": 91}, {"time": 772, "pitch": 57, "duration": 3, "velocity": 86}, {"time": 772, "pitch": 61, "duration": 4, "velocity": 89}, {"time": 772, "pitch": 64, "duration": 6, "velocity": 90}, {"time": 778, "pitch": 45, "duration": 3, "velocity": 88}, {"time": 778, "pitch": 57, "duration": 3, "velocity": 91}, {"time": 784, "pitch": 43, "duration": 4, "velocity": 85}, {"time": 784, "pitch": 55, "duration": 7, "velocity": 88}, {"time": 784, "pitch": 59, "duration": 7, "velocity": 81}, {"time": 790, "pitch": 43, "duration": 2, "velocity": 80}, {"time": 790, "pitch": 50, "duration": 2, "velocity": 82}, {"time": 796, "pitch": 43, "duration": 4, "velocity": 88}, {"time": 796, "pitch": 55, "duration": 7, "velocity": 84}, {"time": 796, "pitch": 62, "duration": 8, "velocity": 85}, {"time": 802, "pitch": 43, "duration": 2, "velocity": 71}, {"time": 802, "pitch": 50, "duration": 3, "velocity": 82}, {"time": 808, "pitch": 45, "duration": 3, "velocity": 88}, {"time": 808, "pitch": 57, "duration": 8, "velocity": 82}, {"time": 808, "pitch": 61, "duration": 9, "velocity": 82}, {"time": 814, "pitch": 45, "duration": 2, "velocity": 84}, {"time": 814, "pitch": 52, "duration": 2, "velocity": 82}, {"time": 820, "pitch": 45, "duration": 3, "velocity": 88}, {"time": 820, "pitch": 52, "duration": 3, "velocity": 89}, {"time": 820, "pitch": 57, "duration": 3, "velocity": 88}, {"time": 820, "pitch": 61, "duration": 5, "velocity": 93}, {"time": 820, "pitch": 64, "duration": 8, "velocity": 92}, {"time": 826, "pitch": 45, "duration": 3, "velocity": 86}, {"time": 826, "pitch": 57, "duration": 2, "velocity": 89}, {"time": 832, "pitch": 47, "duration": 4, "velocity": 87}, {"time": 832, "pitch": 59, "duration": 9, "velocity": 87}, {"time": 832, "pitch": 62, "duration": 10, "velocity": 87}, {"time": 838, "pitch": 47, "duration": 3, "velocity": 80}, {"time": 844, "pitch": 47, "duration": 3, "velocity": 83}, {"time": 844, "pitch": 54, "duration": 4, "velocity": 86}, {"time": 844, "pitch": 59, "duration": 9, "velocity": 88}, {"time": 844, "pitch": 62, "duration": 10, "velocity": 88}, {"time": 844, "pitch": 66, "duration": 9, "velocity": 85}, {"time": 850, "pitch": 47, "duration": 3, "velocity": 83}, {"time": 856, "pitch": 47, "duration": 9, "velocity": 88}, {"time": 856, "pitch": 59, "duration": 9, "velocity": 85}, {"time": 856, "pitch": 62, "duration": 9, "velocity": 85}, {"time": 856, "pitch": 66, "duration": 10, "velocity": 84}, {"time": 862, "pitch": 54, "duration": 3, "velocity": 72}, {"time": 868, "pitch": 47, "duration": 4, "velocity": 80}, {"time": 868, "pitch": 54, "duration": 3, "velocity": 76}, {"time": 868, "pitch": 59, "duration": 4, "velocity": 89}, {"time": 868, "pitch": 62, "duration": 4, "velocity": 89}, {"time": 868, "pitch": 66, "duration": 4, "velocity": 86}, {"time": 874, "pitch": 47, "duration": 3, "velocity": 80}, {"time": 880, "pitch": 43, "duration": 8, "velocity": 87}, {"time": 880, "pitch": 55, "duration": 9, "velocity": 85}, {"time": 880, "pitch": 62, "duration": 8, "velocity": 82}, {"time": 880, "pitch": 64, "duration": 2, "velocity": 89}, {"time": 886, "pitch": 50, "duration": 2, "velocity": 83}, {"time": 892, "pitch": 43, "duration": 8, "velocity": 88}, {"time": 892, "pitch": 55, "duration": 5, "velocity": 84}, {"time": 892, "pitch": 59, "duration": 5, "velocity": 85}, {"time": 892, "pitch": 62, "duration": 6, "velocity": 90}, {"time": 898, "pitch": 50, "duration": 3, "velocity": 79}, {"time": 904, "pitch": 45, "duration": 5, "velocity": 88}, {"time": 904, "pitch": 57, "duration": 7, "velocity": 88}, {"time": 904, "pitch": 61, "duration": 8, "velocity": 88}, {"time": 910, "pitch": 45, "duration": 3, "velocity": 73}, {"time": 910, "pitch": 52, "duration": 3, "velocity": 78}, {"time": 916, "pitch": 45, "duration": 3, "velocity": 88}, {"time": 916, "pitch": 52, "duration": 3, "velocity": 86}, {"time": 916, "pitch": 57, "duration": 4, "velocity": 86}, {"time": 916, "pitch": 61, "duration": 4, "velocity": 86}, {"time": 916, "pitch": 64, "duration": 5, "velocity": 89}, {"time": 922, "pitch": 45, "duration": 3, "velocity": 88}, {"time": 928, "pitch": 47, "duration": 9, "velocity": 87}, {"time": 928, "pitch": 59, "duration": 8, "velocity": 84}, {"time": 928, "pitch": 62, "duration": 8, "velocity": 84}, {"time": 928, "pitch": 66, "duration": 8, "velocity": 81}, {"time": 934, "pitch": 54, "duration": 3, "velocity": 80}, {"time": 940, "pitch": 47, "duration": 3, "velocity": 83}, {"time": 940, "pitch": 54, "duration": 3, "velocity": 79}, {"time": 940, "pitch": 59, "duration": 6, "velocity": 89}, {"time": 940, "pitch": 62, "duration": 7, "velocity": 88}, {"time": 940, "pitch": 66, "duration": 8, "velocity": 88}, {"time": 946, "pitch": 47, "duration": 4, "velocity": 81}, {"time": 952, "pitch": 47, "duration": 9, "velocity": 84}, {"time": 952, "pitch": 59, "duration": 4, "velocity": 87}, {"time": 952, "pitch": 62, "duration": 4, "velocity": 84}, {"time": 952, "pitch": 66, "duration": 7, "velocity": 88}, {"time": 958, "pitch": 54, "duration": 4, "velocity": 70}, {"time": 958, "pitch": 59, "duration": 3, "velocity": 83}, {"time": 958, "pitch": 64, "duration": 4, "velocity": 87}, {"time": 964, "pitch": 47, "duration": 4, "velocity": 79}, {"time": 964, "pitch": 54, "duration": 5, "velocity": 85}, {"time": 964, "pitch": 59, "duration": 8, "velocity": 88}, {"time": 964, "pitch": 62, "duration": 10, "velocity": 89}, {"time": 970, "pitch": 47, "duration": 3, "velocity": 89}, {"time": 976, "pitch": 43, "duration": 8, "velocity": 88}, {"time": 976, "pitch": 55, "duration": 9, "velocity": 82}, {"time": 976, "pitch": 62, "duration": 8, "velocity": 86}, {"time": 982, "pitch": 50, "duration": 2, "velocity": 80}, {"time": 988, "pitch": 43, "duration": 3, "velocity": 88}, {"time": 988, "pitch": 50, "duration": 3, "velocity": 83}, {"time": 988, "pitch": 55, "duration": 5, "velocity": 87}, {"time": 988, "pitch": 59, "duration": 5, "velocity": 87}, {"time": 988, "pitch": 62, "duration": 7, "velocity": 89}, {"time": 994, "pitch": 43, "duration": 4, "velocity": 84}, {"time": 1000, "pitch": 45, "duration": 9, "velocity": 88}, {"time": 1000, "pitch": 57, "duration": 7, "velocity": 80}, {"time": 1000, "pitch": 61, "duration": 8, "velocity": 82}, {"time": 1006, "pitch": 52, "duration": 3, "velocity": 80}, {"time": 1012, "pitch": 45, "duration": 3, "velocity": 88}, {"time": 1012, "pitch": 52, "duration": 3, "velocity": 88}, {"time": 1012, "pitch": 57, "duration": 6, "velocity": 83}, {"time": 1012, "pitch": 61, "duration": 5, "velocity": 84}, {"time": 1012, "pitch": 64, "duration": 8, "velocity": 90}, {"time": 1018, "pitch": 45, "duration": 4, "velocity": 87}, {"time": 1024, "pitch": 47, "duration": 14, "velocity": 89}, {"time": 1024, "pitch": 59, "duration": 7, "velocity": 81}, {"time": 1024, "pitch": 62, "duration": 8, "velocity": 83}, {"time": 1024, "pitch": 66, "duration": 6, "velocity": 81}, {"time": 1030, "pitch": 54, "duration": 8, "velocity": 66}, {"time": 1036, "pitch": 59, "duration": 8, "velocity": 90}, {"time": 1036, "pitch": 62, "duration": 8, "velocity": 90}, {"time": 1036, "pitch": 66, "duration": 8, "velocity": 90}, {"time": 1042, "pitch": 54, "duration": 4, "velocity": 82}, {"time": 1048, "pitch": 47, "duration": 10, "velocity": 90}, {"time": 1048, "pitch": 59, "duration": 7, "velocity": 89}, {"time": 1048, "pitch": 62, "duration": 8, "velocity": 89}, {"time": 1048, "pitch": 66, "duration": 8, "velocity": 89}, {"time": 1054, "pitch": 54, "duration": 4, "velocity": 68}, {"time": 1060, "pitch": 47, "duration": 5, "velocity": 82}, {"time": 1060, "pitch": 54, "duration": 4, "velocity": 82}, {"time": 1060, "pitch": 59, "duration": 4, "velocity": 92}, {"time": 1060, "pitch": 62, "duration": 4, "velocity": 90}, {"time": 1060, "pitch": 66, "duration": 3, "velocity": 92}, {"time": 1066, "pitch": 64, "duration": 4, "velocity": 89}, {"time": 1072, "pitch": 43, "duration": 8, "velocity": 86}, {"time": 1072, "pitch": 55, "duration": 9, "velocity": 80}, {"time": 1072, "pitch": 62, "duration": 10, "velocity": 83}, {"time": 1078, "pitch": 50, "duration": 2, "velocity": 85}, {"time": 1084, "pitch": 43, "duration": 3, "velocity": 88}, {"time": 1084, "pitch": 50, "duration": 3, "velocity": 89}, {"time": 1084, "pitch": 55, "duration": 15, "velocity": 89}, {"time": 1084, "pitch": 59, "duration": 15, "velocity": 88}, {"time": 1084, "pitch": 62, "duration": 16, "velocity": 89}, {"time": 1090, "pitch": 43, "duration": 3, "velocity": 87}, {"time": 1096, "pitch": 43, "duration": 4, "velocity": 85}, {"time": 1102, "pitch": 43, "duration": 2, "velocity": 77}, {"time": 1102, "pitch": 50, "duration": 3, "velocity": 84}, {"time": 1102, "pitch": 55, "duration": 2, "velocity": 71}, {"time": 1108, "pitch": 43, "duration": 3, "velocity": 89}, {"time": 1108, "pitch": 50, "duration": 3, "velocity": 89}, {"time": 1108, "pitch": 55, "duration": 5, "velocity": 89}, {"time": 1108, "pitch": 59, "duration": 5, "velocity": 89}, {"time": 1108, "pitch": 62, "duration": 6, "velocity": 90}, {"time": 1114, "pitch": 43, "duration": 3, "velocity": 88}, {"time": 1120, "pitch": 45, "duration": 8, "velocity": 90}, {"time": 1120, "pitch": 57, "duration": 9, "velocity": 81}, {"time": 1120, "pitch": 61, "duration": 2, "velocity": 56}, {"time": 1120, "pitch": 62, "duration": 2, "velocity": 76}, {"time": 1126, "pitch": 52, "duration": 3, "velocity": 84}, {"time": 1132, "pitch": 45, "duration": 3, "velocity": 89}, {"time": 1132, "pitch": 52, "duration": 2, "velocity": 90}, {"time": 1132, "pitch": 57, "duration": 9, "velocity": 89}, {"time": 1132, "pitch": 61, "duration": 9, "velocity": 91}, {"time": 1132, "pitch": 64, "duration": 9, "velocity": 91}, {"time": 1138, "pitch": 45, "duration": 3, "velocity": 87}, {"time": 1144, "pitch": 57, "duration": 20, "velocity": 89}, {"time": 1144, "pitch": 61, "duration": 20, "velocity": 89}, {"time": 1144, "pitch": 64, "duration": 21, "velocity": 91}, {"time": 1144, "pitch": 69, "duration": 21, "velocity": 85}, {"time": 1168, "pitch": 43, "duration": 8, "velocity": 88}, {"time": 1168, "pitch": 55, "duration": 6, "velocity": 85}, {"time": 1168, "pitch": 62, "duration": 6, "velocity": 89}, {"time": 1174, "pitch": 50, "duration": 3, "velocity": 84}, {"time": 1180, "pitch": 43, "duration": 2, "velocity": 88}, {"time": 1180, "pitch": 50, "duration": 2, "velocity": 89}, {"time": 1180, "pitch": 55, "duration": 5, "velocity": 85}, {"time": 1180, "pitch": 62, "duration": 6, "velocity": 86}, {"time": 1186, "pitch": 43, "duration": 3, "velocity": 87}, {"time": 1186, "pitch": 50, "duration": 2, "velocity": 79}, {"time": 1192, "pitch": 45, "duration": 4, "velocity": 88}, {"time": 1192, "pitch": 57, "duration": 9, "velocity": 84}, {"time": 1192, "pitch": 61, "duration": 9, "velocity": 88}, {"time": 1198, "pitch": 45, "duration": 2, "velocity": 81}, {"time": 1198, "pitch": 52, "duration": 2, "velocity": 83}, {"time": 1204, "pitch": 45, "duration": 2, "velocity": 88}, {"time": 1204, "pitch": 52, "duration": 2, "velocity": 88}, {"time": 1204, "pitch": 57, "duration": 7, "velocity": 88}, {"time": 1204, "pitch": 61, "duration": 7, "velocity": 87}, {"time": 1210, "pitch": 45, "duration": 3, "velocity": 82}, {"time": 1216, "pitch": 47, "duration": 9, "velocity": 88}, {"time": 1216, "pitch": 59, "duration": 6, "velocity": 84}, {"time": 1216, "pitch": 62, "duration": 4, "velocity": 83}, {"time": 1222, "pitch": 54, "duration": 3, "velocity": 73}, {"time": 1228, "pitch": 47, "duration": 3, "velocity": 81}, {"time": 1228, "pitch": 54, "duration": 3, "velocity": 81}, {"time": 1228, "pitch": 59, "duration": 8, "velocity": 88}, {"time": 1228, "pitch": 62, "duration": 8, "velocity": 87}, {"time": 1228, "pitch": 66, "duration": 9, "velocity": 83}, {"time": 1234, "pitch": 47, "duration": 4, "velocity": 84}, {"time": 1240, "pitch": 47, "duration": 4, "velocity": 81}, {"time": 1240, "pitch": 54, "duration": 4, "velocity": 84}, {"time": 1240, "pitch": 59, "duration": 4, "velocity": 74}, {"time": 1240, "pitch": 62, "duration": 3, "velocity": 84}, {"time": 1246, "pitch": 47, "duration": 3, "velocity": 83}, {"time": 1246, "pitch": 61, "duration": 4, "velocity": 89}, {"time": 1252, "pitch": 47, "duration": 4, "velocity": 82}, {"time": 1252, "pitch": 54, "duration": 3, "velocity": 76}, {"time": 1252, "pitch": 62, "duration": 10, "velocity": 90}, {"time": 1258, "pitch": 47, "duration": 3, "velocity": 84}, {"time": 1264, "pitch": 43, "duration": 3, "velocity": 87}, {"time": 1264, "pitch": 55, "duration": 9, "velocity": 84}, {"time": 1264, "pitch": 59, "duration": 9, "velocity": 85}, {"time": 1270, "pitch": 43, "duration": 3, "velocity": 83}, {"time": 1276, "pitch": 43, "duration": 3, "velocity": 85}, {"time": 1276, "pitch": 50, "duration": 2, "velocity": 83}, {"time": 1276, "pitch": 55, "duration": 6, "velocity": 85}, {"time": 1276, "pitch": 59, "duration": 7, "velocity": 88}, {"time": 1276, "pitch": 62, "duration": 7, "velocity": 90}, {"time": 1282, "pitch": 43, "duration": 3, "velocity": 84}, {"time": 1288, "pitch": 45, "duration": 3, "velocity": 88}, {"time": 1288, "pitch": 57, "duration": 9, "velocity": 84}, {"time": 1288, "pitch": 61, "duration": 10, "velocity": 85}, {"time": 1294, "pitch": 45, "duration": 3, "velocity": 84}, {"time": 1294, "pitch": 52, "duration": 2, "velocity": 76}, {"time": 1300, "pitch": 45, "duration": 3, "velocity": 88}, {"time": 1300, "pitch": 52, "duration": 2, "velocity": 88}, {"time": 1300, "pitch": 57, "duration": 7, "velocity": 84}, {"time": 1300, "pitch": 61, "duration": 6, "velocity": 84}, {"time": 1300, "pitch": 64, "duration": 9, "velocity": 92}, {"time": 1306, "pitch": 45, "duration": 3, "velocity": 87}, {"time": 1312, "pitch": 47, "duration": 9, "velocity": 89}, {"time": 1312, "pitch": 59, "duration": 8, "velocity": 81}, {"time": 1312, "pitch": 62, "duration": 8, "velocity": 83}, {"time": 1318, "pitch": 54, "duration": 3, "velocity": 75}, {"time": 1324, "pitch": 47, "duration": 3, "velocity": 80}, {"time": 1324, "pitch": 54, "duration": 3, "velocity": 76}, {"time": 1324, "pitch": 59, "duration": 4, "velocity": 86}, {"time": 1324, "pitch": 62, "duration": 5, "velocity": 86}, {"time": 1324, "pitch": 66, "duration": 6, "velocity": 87}, {"time": 1330, "pitch": 47, "duration": 3, "velocity": 77}, {"time": 1330, "pitch": 54, "duration": 3, "velocity": 70}, {"time": 1336, "pitch": 47, "duration": 3, "velocity": 88}, {"time": 1336, "pitch": 54, "duration": 3, "velocity": 83}, {"time": 1342, "pitch": 47, "duration": 4, "velocity": 88}, {"time": 1348, "pitch": 47, "duration": 3, "velocity": 88}, {"time": 1348, "pitch": 54, "duration": 3, "velocity": 90}, {"time": 1348, "pitch": 59, "duration": 7, "velocity": 88}, {"time": 1348, "pitch": 62, "duration": 6, "velocity": 89}, {"time": 1354, "pitch": 47, "duration": 3, "velocity": 85}, {"time": 1360, "pitch": 43, "duration": 8, "velocity": 89}, {"time": 1360, "pitch": 55, "duration": 10, "velocity": 81}, {"time": 1360, "pitch": 59, "duration": 10, "velocity": 81}, {"time": 1366, "pitch": 50, "duration": 2, "velocity": 82}, {"time": 1372, "pitch": 43, "duration": 3, "velocity": 76}, {"time": 1372, "pitch": 50, "duration": 2, "velocity": 79}, {"time": 1372, "pitch": 55, "duration": 7, "velocity": 80}, {"time": 1372, "pitch": 59, "duration": 9, "velocity": 82}, {"time": 1378, "pitch": 43, "duration": 3, "velocity": 83}, {"time": 1384, "pitch": 45, "duration": 4, "velocity": 84}, {"time": 1384, "pitch": 57, "duration": 16, "velocity": 78}, {"time": 1384, "pitch": 61, "duration": 16, "velocity": 78}, {"time": 1390, "pitch": 45, "duration": 2, "velocity": 72}, {"time": 1390, "pitch": 52, "duration": 2, "velocity": 81}, {"time": 1396, "pitch": 45, "duration": 2, "velocity": 87}, {"time": 1396, "pitch": 52, "duration": 2, "velocity": 88}, {"time": 1402, "pitch": 45, "duration": 3, "velocity": 85}, {"time": 1408, "pitch": 47, "duration": 9, "velocity": 88}, {"time": 1408, "pitch": 59, "duration": 9, "velocity": 78}, {"time": 1408, "pitch": 62, "duration": 9, "velocity": 80}, {"time": 1414, "pitch": 54, "duration": 4, "velocity": 72}, {"time": 1420, "pitch": 47, "duration": 3, "velocity": 84}, {"time": 1420, "pitch": 54, "duration": 4, "velocity": 87}, {"time": 1420, "pitch": 59, "duration": 7, "velocity": 88}, {"time": 1420, "pitch": 62, "duration": 8, "velocity": 88}, {"time": 1420, "pitch": 66, "duration": 8, "velocity": 81}, {"time": 1426, "pitch": 47, "duration": 10, "velocity": 81}, {"time": 1432, "pitch": 54, "duration": 3, "velocity": 74}, {"time": 1432, "pitch": 59, "duration": 8, "velocity": 82}, {"time": 1432, "pitch": 62, "duration": 9, "velocity": 87}, {"time": 1438, "pitch": 47, "duration": 4, "velocity": 77}, {"time": 1444, "pitch": 47, "duration": 3, "velocity": 76}, {"time": 1444, "pitch": 54, "duration": 4, "velocity": 83}, {"time": 1444, "pitch": 59, "duration": 4, "velocity": 89}, {"time": 1444, "pitch": 62, "duration": 4, "velocity": 88}, {"time": 1444, "pitch": 66, "duration": 4, "velocity": 82}, {"time": 1450, "pitch": 47, "duration": 3, "velocity": 84}, {"time": 1456, "pitch": 43, "duration": 9, "velocity": 82}, {"time": 1456, "pitch": 55, "duration": 9, "velocity": 81}, {"time": 1456, "pitch": 59, "duration": 9, "velocity": 79}, {"time": 1462, "pitch": 50, "duration": 3, "velocity": 79}, {"time": 1468, "pitch": 43, "duration": 3, "velocity": 88}, {"time": 1468, "pitch": 50, "duration": 4, "velocity": 84}, {"time": 1468, "pitch": 55, "duration": 5, "velocity": 83}, {"time": 1468, "pitch": 59, "duration": 6, "velocity": 81}, {"time": 1468, "pitch": 62, "duration": 7, "velocity": 86}, {"time": 1474, "pitch": 43, "duration": 3, "velocity": 86}, {"time": 1480, "pitch": 45, "duration": 8, "velocity": 88}, {"time": 1480, "pitch": 57, "duration": 8, "velocity": 78}, {"time": 1480, "pitch": 61, "duration": 8, "velocity": 79}, {"time": 1486, "pitch": 52, "duration": 2, "velocity": 80}, {"time": 1492, "pitch": 45, "duration": 3, "velocity": 88}, {"time": 1492, "pitch": 52, "duration": 4, "velocity": 85}, {"time": 1492, "pitch": 57, "duration": 6, "velocity": 84}, {"time": 1492, "pitch": 61, "duration": 6, "velocity": 88}, {"time": 1498, "pitch": 45, "duration": 3, "velocity": 88}, {"time": 1504, "pitch": 47, "duration": 9, "velocity": 89}, {"time": 1504, "pitch": 59, "duration": 9, "velocity": 79}, {"time": 1504, "pitch": 62, "duration": 9, "velocity": 83}, {"time": 1510, "pitch": 54, "duration": 3, "velocity": 76}, {"time": 1516, "pitch": 47, "duration": 3, "velocity": 81}, {"time": 1516, "pitch": 54, "duration": 3, "velocity": 81}, {"time": 1516, "pitch": 59, "duration": 10, "velocity": 86}, {"time": 1516, "pitch": 62, "duration": 10, "velocity": 87}, {"time": 1516, "pitch": 66, "duration": 11, "velocity": 80}, {"time": 1522, "pitch": 47, "duration": 4, "velocity": 77}, {"time": 1528, "pitch": 47, "duration": 14, "velocity": 84}, {"time": 1528, "pitch": 59, "duration": 9, "velocity": 84}, {"time": 1528, "pitch": 62, "duration": 9, "velocity": 84}, {"time": 1534, "pitch": 54, "duration": 7, "velocity": 66}, {"time": 1540, "pitch": 59, "duration": 8, "velocity": 90}, {"time": 1540, "pitch": 62, "duration": 7, "velocity": 93}, {"time": 1540, "pitch": 66, "duration": 7, "velocity": 93}, {"time": 1546, "pitch": 47, "duration": 3, "velocity": 84}, {"time": 1552, "pitch": 43, "duration": 9, "velocity": 88}, {"time": 1552, "pitch": 55, "duration": 9, "velocity": 85}, {"time": 1552, "pitch": 59, "duration": 8, "velocity": 84}, {"time": 1558, "pitch": 50, "duration": 3, "velocity": 84}, {"time": 1564, "pitch": 43, "duration": 4, "velocity": 88}, {"time": 1564, "pitch": 50, "duration": 5, "velocity": 89}, {"time": 1564, "pitch": 55, "duration": 3, "velocity": 89}, {"time": 1564, "pitch": 59, "duration": 8, "velocity": 90}, {"time": 1564, "pitch": 62, "duration": 9, "velocity": 91}, {"time": 1570, "pitch": 43, "duration": 4, "velocity": 76}, {"time": 1570, "pitch": 55, "duration": 3, "velocity": 90}, {"time": 1576, "pitch": 45, "duration": 10, "velocity": 88}, {"time": 1576, "pitch": 57, "duration": 4, "velocity": 82}, {"time": 1576, "pitch": 61, "duration": 7, "velocity": 84}, {"time": 1582, "pitch": 52, "duration": 4, "velocity": 83}, {"time": 1582, "pitch": 57, "duration": 3, "velocity": 82}, {"time": 1588, "pitch": 45, "duration": 3, "velocity": 89}, {"time": 1588, "pitch": 57, "duration": 5, "velocity": 84}, {"time": 1588, "pitch": 61, "duration": 6, "velocity": 83}, {"time": 1588, "pitch": 64, "duration": 8, "velocity": 89}, {"time": 1594, "pitch": 45, "duration": 4, "velocity": 78}, {"time": 1594, "pitch": 52, "duration": 4, "velocity": 81}, {"time": 1600, "pitch": 50, "duration": 9, "velocity": 83}, {"time": 1600, "pitch": 57, "duration": 3, "velocity": 82}, {"time": 1600, "pitch": 62, "duration": 8, "velocity": 88}, {"time": 1606, "pitch": 57, "duration": 3, "velocity": 87}, {"time": 1612, "pitch": 50, "duration": 3, "velocity": 92}, {"time": 1612, "pitch": 57, "duration": 3, "velocity": 84}, {"time": 1612, "pitch": 62, "duration": 9, "velocity": 88}, {"time": 1612, "pitch": 66, "duration": 8, "velocity": 84}, {"time": 1618, "pitch": 57, "duration": 4, "velocity": 88}, {"time": 1624, "pitch": 47, "duration": 4, "velocity": 88}, {"time": 1624, "pitch": 59, "duration": 11, "velocity": 85}, {"time": 1624, "pitch": 62, "duration": 11, "velocity": 83}, {"time": 1624, "pitch": 66, "duration": 11, "velocity": 81}, {"time": 1630, "pitch": 47, "duration": 3, "velocity": 73}, {"time": 1636, "pitch": 47, "duration": 3, "velocity": 82}, {"time": 1636, "pitch": 54, "duration": 4, "velocity": 76}, {"time": 1636, "pitch": 59, "duration": 9, "velocity": 88}, {"time": 1636, "pitch": 62, "duration": 8, "velocity": 88}, {"time": 1636, "pitch": 66, "duration": 8, "velocity": 85}, {"time": 1642, "pitch": 47, "duration": 3, "velocity": 90}, {"time": 1648, "pitch": 43, "duration": 4, "velocity": 89}, {"time": 1648, "pitch": 55, "duration": 9, "velocity": 86}, {"time": 1648, "pitch": 62, "duration": 8, "velocity": 84}, {"time": 1654, "pitch": 50, "duration": 2, "velocity": 74}, {"time": 1660, "pitch": 43, "duration": 2, "velocity": 89}, {"time": 1660, "pitch": 50, "duration": 2, "velocity": 89}, {"time": 1660, "pitch": 55, "duration": 10, "velocity": 84}, {"time": 1660, "pitch": 59, "duration": 10, "velocity": 82}, {"time": 1660, "pitch": 62, "duration": 10, "velocity": 84}, {"time": 1666, "pitch": 43, "duration": 3, "velocity": 85}, {"time": 1672, "pitch": 43, "duration": 4, "velocity": 88}, {"time": 1672, "pitch": 55, "duration": 10, "velocity": 83}, {"time": 1672, "pitch": 59, "duration": 9, "velocity": 83}, {"time": 1672, "pitch": 62, "duration": 9, "velocity": 85}, {"time": 1678, "pitch": 43, "duration": 2, "velocity": 77}, {"time": 1678, "pitch": 50, "duration": 2, "velocity": 84}, {"time": 1684, "pitch": 43, "duration": 3, "velocity": 89}, {"time": 1684, "pitch": 55, "duration": 6, "velocity": 93}, {"time": 1684, "pitch": 62, "duration": 7, "velocity": 91}, {"time": 1690, "pitch": 43, "duration": 3, "velocity": 89}, {"time": 1690, "pitch": 50, "duration": 2, "velocity": 88}, {"time": 1696, "pitch": 45, "duration": 3, "velocity": 89}, {"time": 1696, "pitch": 57, "duration": 5, "velocity": 89}, {"time": 1696, "pitch": 61, "duration": 5, "velocity": 88}, {"time": 1702, "pitch": 61, "duration": 2, "velocity": 75}, {"time": 1702, "pitch": 64, "duration": 3, "velocity": 89}, {"time": 1708, "pitch": 45, "duration": 2, "velocity": 89}, {"time": 1708, "pitch": 52, "duration": 2, "velocity": 90}, {"time": 1708, "pitch": 57, "duration": 5, "velocity": 82}, {"time": 1708, "pitch": 61, "duration": 7, "velocity": 77}, {"time": 1708, "pitch": 64, "duration": 6, "velocity": 90}, {"time": 1708, "pitch": 69, "duration": 6, "velocity": 88}, {"time": 1714, "pitch": 45, "duration": 3, "velocity": 84}, {"time": 1714, "pitch": 57, "duration": 3, "velocity": 75}, {"time": 1720, "pitch": 45, "duration": 3, "velocity": 89}, {"time": 1720, "pitch": 52, "duration": 3, "velocity": 89}, {"time": 1720, "pitch": 57, "duration": 7, "velocity": 88}, {"time": 1720, "pitch": 61, "duration": 7, "velocity": 85}, {"time": 1726, "pitch": 45, "duration": 4, "velocity": 76}, {"time": 1732, "pitch": 45, "duration": 3, "velocity": 88}, {"time": 1732, "pitch": 52, "duration": 3, "velocity": 91}, {"time": 1732, "pitch": 57, "duration": 3, "velocity": 86}, {"time": 1732, "pitch": 61, "duration": 4, "velocity": 89}, {"time": 1732, "pitch": 64, "duration": 6, "velocity": 90}, {"time": 1738, "pitch": 45, "duration": 3, "velocity": 88}, {"time": 1738, "pitch": 57, "duration": 3, "velocity": 91}, {"time": 1744, "pitch": 43, "duration": 4, "velocity": 85}, {"time": 1744, "pitch": 55, "duration": 7, "velocity": 88}, {"time": 1744, "pitch": 59, "duration": 7, "velocity": 81}, {"time": 1750, "pitch": 43, "duration": 2, "velocity": 80}, {"time": 1750, "pitch": 50, "duration": 2, "velocity": 82}, {"time": 1756, "pitch": 43, "duration": 4, "velocity": 88}, {"time": 1756, "pitch": 55, "duration": 7, "velocity": 84}, {"time": 1756, "pitch": 62, "duration": 8, "velocity": 85}, {"time": 1762, "pitch": 43, "duration": 2, "velocity": 71}, {"time": 1762, "pitch": 50, "duration": 3, "velocity": 82}, {"time": 1768, "pitch": 45, "duration": 3, "velocity": 88}, {"time": 1768, "pitch": 57, "duration": 8, "velocity": 82}, {"time": 1768, "pitch": 61, "duration": 9, "velocity": 82}, {"time": 1774, "pitch": 45, "duration": 2, "velocity": 84}, {"time": 1774, "pitch": 52, "duration": 2, "velocity": 82}, {"time": 1780, "pitch": 45, "duration": 3, "velocity": 88}, {"time": 1780, "pitch": 52, "duration": 3, "velocity": 89}, {"time": 1780, "pitch": 57, "duration": 3, "velocity": 88}, {"time": 1780, "pitch": 61, "duration": 5, "velocity": 93}, {"time": 1780, "pitch": 64, "duration": 8, "velocity": 92}, {"time": 1786, "pitch": 45, "duration": 3, "velocity": 86}, {"time": 1786, "pitch": 57, "duration": 2, "velocity": 89}, {"time": 1792, "pitch": 47, "duration": 4, "velocity": 87}, {"time": 1792, "pitch": 59, "duration": 9, "velocity": 87}, {"time": 1792, "pitch": 62, "duration": 10, "velocity": 87}, {"time": 1798, "pitch": 47, "duration": 3, "velocity": 80}, {"time": 1804, "pitch": 47, "duration": 3, "velocity": 83}, {"time": 1804, "pitch": 54, "duration": 4, "velocity": 86}, {"time": 1804, "pitch": 59, "duration": 9, "velocity": 88}, {"time": 1804, "pitch": 62, "duration": 10, "velocity": 88}, {"time": 1804, "pitch": 66, "duration": 9, "velocity": 85}, {"time": 1810, "pitch": 47, "duration": 3, "velocity": 83}, {"time": 1816, "pitch": 47, "duration": 9, "velocity": 88}, {"time": 1816, "pitch": 59, "duration": 9, "velocity": 85}, {"time": 1816, "pitch": 62, "duration": 9, "velocity": 85}, {"time": 1816, "pitch": 66, "duration": 10, "velocity": 84}, {"time": 1822, "pitch": 54, "duration": 3, "velocity": 72}, {"time": 1828, "pitch": 47, "duration": 4, "velocity": 80}, {"time": 1828, "pitch": 54, "duration": 3, "velocity": 76}, {"time": 1828, "pitch": 59, "duration": 4, "velocity": 89}, {"time": 1828, "pitch": 62, "duration": 4, "velocity": 89}, {"time": 1828, "pitch": 66, "duration": 4, "velocity": 86}, {"time": 1834, "pitch": 47, "duration": 3, "velocity": 80}, {"time": 1840, "pitch": 43, "duration": 8, "velocity": 87}, {"time": 1840, "pitch": 55, "duration": 9, "velocity": 85}, {"time": 1840, "pitch": 62, "duration": 8, "velocity": 82}, {"time": 1840, "pitch": 64, "duration": 2, "velocity": 89}, {"time": 1846, "pitch": 50, "duration": 2, "velocity": 83}, {"time": 1852, "pitch": 43, "duration": 8, "velocity": 88}, {"time": 1852, "pitch": 55, "duration": 5, "velocity": 84}, {"time": 1852, "pitch": 59, "duration": 5, "velocity": 85}, {"time": 1852, "pitch": 62, "duration": 6, "velocity": 90}, {"time": 1858, "pitch": 50, "duration": 3, "velocity": 79}, {"time": 1864, "pitch": 45, "duration": 5, "velocity": 88}, {"time": 1864, "pitch": 57, "duration": 7, "velocity": 88}, {"time": 1864, "pitch": 61, "duration": 8, "velocity": 88}, {"time": 1870, "pitch": 45, "duration": 3, "velocity": 73}, {"time": 1870, "pitch": 52, "duration": 3, "velocity": 78}, {"time": 1876, "pitch": 45, "duration": 3, "velocity": 88}, {"time": 1876, "pitch": 52, "duration": 3, "velocity": 86}, {"time": 1876, "pitch": 57, "duration": 4, "velocity": 86}, {"time": 1876, "pitch": 61, "duration": 4, "velocity": 86}, {"time": 1876, "pitch": 64, "duration": 5, "velocity": 89}, {"time": 1882, "pitch": 45, "duration": 3, "velocity": 88}, {"time": 1888, "pitch": 47, "duration": 9, "velocity": 87}, {"time": 1888, "pitch": 59, "duration": 8, "velocity": 84}, {"time": 1888, "pitch": 62, "duration": 8, "velocity": 84}, {"time": 1888, "pitch": 66, "duration": 8, "velocity": 81}, {"time": 1894, "pitch": 54, "duration": 3, "velocity": 80}, {"time": 1900, "pitch": 47, "duration": 3, "velocity": 83}, {"time": 1900, "pitch": 54, "duration": 3, "velocity": 79}, {"time": 1900, "pitch": 59, "duration": 6, "velocity": 89}, {"time": 1900, "pitch": 62, "duration": 7, "velocity": 88}, {"time": 1900, "pitch": 66, "duration": 8, "velocity": 88}, {"time": 1906, "pitch": 47, "duration": 4, "velocity": 81}, {"time": 1912, "pitch": 47, "duration": 9, "velocity": 84}, {"time": 1912, "pitch": 59, "duration": 4, "velocity": 87}, {"time": 1912, "pitch": 62, "duration": 4, "velocity": 84}, {"time": 1912, "pitch": 66, "duration": 7, "velocity": 88}, {"time": 1918, "pitch": 54, "duration": 4, "velocity": 70}, {"time": 1918, "pitch": 59, "duration": 3, "velocity": 83}, {"time": 1918, "pitch": 64, "duration": 4, "velocity": 87}, {"time": 1924, "pitch": 47, "duration": 4, "velocity": 79}, {"time": 1924, "pitch": 54, "duration": 5, "velocity": 85}, {"time": 1924, "pitch": 59, "duration": 8, "velocity": 88}, {"time": 1924, "pitch": 62, "duration": 10, "velocity": 89}, {"time": 1930, "pitch": 47, "duration": 3, "velocity": 89}, {"time": 1936, "pitch": 43, "duration": 8, "velocity": 88}, {"time": 1936, "pitch": 55, "duration": 9, "velocity": 82}, {"time": 1936, "pitch": 62, "duration": 8, "velocity": 86}, {"time": 1942, "pitch": 50, "duration": 2, "velocity": 80}, {"time": 1948, "pitch": 43, "duration": 3, "velocity": 88}, {"time": 1948, "pitch": 50, "duration": 3, "velocity": 83}, {"time": 1948, "pitch": 55, "duration": 5, "velocity": 87}, {"time": 1948, "pitch": 59, "duration": 5, "velocity": 87}, {"time": 1948, "pitch": 62, "duration": 7, "velocity": 89}, {"time": 1954, "pitch": 43, "duration": 4, "velocity": 84}, {"time": 1960, "pitch": 45, "duration": 9, "velocity": 88}, {"time": 1960, "pitch": 57, "duration": 7, "velocity": 80}, {"time": 1960, "pitch": 61, "duration": 8, "velocity": 82}, {"time": 1966, "pitch": 52, "duration": 3, "velocity": 80}, {"time": 1972, "pitch": 45, "duration": 3, "velocity": 88}, {"time": 1972, "pitch": 52, "duration": 3, "velocity": 88}, {"time": 1972, "pitch": 57, "duration": 6, "velocity": 83}, {"time": 1972, "pitch": 61, "duration": 5, "velocity": 84}, {"time": 1972, "pitch": 64, "duration": 8, "velocity": 90}, {"time": 1978, "pitch": 45, "duration": 4, "velocity": 87}, {"time": 1984, "pitch": 47, "duration": 14, "velocity": 89}, {"time": 1984, "pitch": 59, "duration": 7, "velocity": 81}, {"time": 1984, "pitch": 62, "duration": 8, "velocity": 83}, {"time": 1984, "pitch": 66, "duration": 6, "velocity": 81}, {"time": 1990, "pitch": 54, "duration": 8, "velocity": 66}, {"time": 1996, "pitch": 59, "duration": 8, "velocity": 90}, {"time": 1996, "pitch": 62, "duration": 8, "velocity": 90}, {"time": 1996, "pitch": 66, "duration": 8, "velocity": 90}, {"time": 2002, "pitch": 54, "duration": 4, "velocity": 82}, {"time": 2008, "pitch": 47, "duration": 10, "velocity": 90}, {"time": 2008, "pitch": 59, "duration": 7, "velocity": 89}, {"time": 2008, "pitch": 62, "duration": 8, "velocity": 89}, {"time": 2008, "pitch": 66, "duration": 8, "velocity": 89}, {"time": 2014, "pitch": 54, "duration": 4, "velocity": 68}, {"time": 2020, "pitch": 47, "duration": 5, "velocity": 82}, {"time": 2020, "pitch": 54, "duration": 4, "velocity": 82}, {"time": 2020, "pitch": 59, "duration": 4, "velocity": 92}, {"time": 2020, "pitch": 62, "duration": 4, "velocity": 90}, {"time": 2020, "pitch": 66, "duration": 3, "velocity": 92}, {"time": 2026, "pitch": 64, "duration": 4, "velocity": 89}, {"time": 2032, "pitch": 43, "duration": 8, "velocity": 86}, {"time": 2032, "pitch": 55, "duration": 9, "velocity": 80}, {"time": 2032, "pitch": 62, "duration": 10, "velocity": 83}, {"time": 2038, "pitch": 50, "duration": 2, "velocity": 85}, {"time": 2044, "pitch": 43, "duration": 3, "velocity": 88}, {"time": 2044, "pitch": 50, "duration": 3, "velocity": 89}, {"time": 2044, "pitch": 55, "duration": 15, "velocity": 89}, {"time": 2044, "pitch": 59, "duration": 15, "velocity": 88}, {"time": 2044, "pitch": 62, "duration": 16, "velocity": 89}, {"time": 2050, "pitch": 43, "duration": 3, "velocity": 87}, {"time": 2056, "pitch": 43, "duration": 4, "velocity": 85}, {"time": 2062, "pitch": 43, "duration": 2, "velocity": 77}, {"time": 2062, "pitch": 50, "duration": 3, "velocity": 84}, {"time": 2062, "pitch": 55, "duration": 2, "velocity": 71}, {"time": 2068, "pitch": 43, "duration": 3, "velocity": 89}, {"time": 2068, "pitch": 50, "duration": 3, "velocity": 89}, {"time": 2068, "pitch": 55, "duration": 5, "velocity": 89}, {"time": 2068, "pitch": 59, "duration": 5, "velocity": 89}, {"time": 2068, "pitch": 62, "duration": 6, "velocity": 90}, {"time": 2074, "pitch": 43, "duration": 3, "velocity": 88}, {"time": 2080, "pitch": 45, "duration": 8, "velocity": 90}, {"time": 2080, "pitch": 57, "duration": 9, "velocity": 81}, {"time": 2080, "pitch": 61, "duration": 2, "velocity": 56}, {"time": 2080, "pitch": 62, "duration": 2, "velocity": 76}, {"time": 2086, "pitch": 52, "duration": 3, "velocity": 84}, {"time": 2092, "pitch": 45, "duration": 3, "velocity": 89}, {"time": 2092, "pitch": 52, "duration": 2, "velocity": 90}, {"time": 2092, "pitch": 57, "duration": 9, "velocity": 89}, {"time": 2092, "pitch": 61, "duration": 9, "velocity": 91}, {"time": 2092, "pitch": 64, "duration": 9, "velocity": 91}, {"time": 2098, "pitch": 45, "duration": 3, "velocity": 87}, {"time": 2104, "pitch": 45, "duration": 4, "velocity": 89}, {"time": 2104, "pitch": 57, "duration": 10, "velocity": 85}, {"time": 2104, "pitch": 61, "duration": 9, "velocity": 77}, {"time": 2104, "pitch": 64, "duration": 9, "velocity": 89}, {"time": 2104, "pitch": 69, "duration": 9, "velocity": 89}, {"time": 2110, "pitch": 45, "duration": 3, "velocity": 87}, {"time": 2110, "pitch": 52, "duration": 3, "velocity": 82}, {"time": 2116, "pitch": 45, "duration": 3, "velocity": 89}, {"time": 2116, "pitch": 52, "duration": 3, "velocity": 89}, {"time": 2116, "pitch": 57, "duration": 6, "velocity": 88}, {"time": 2116, "pitch": 61, "duration": 6, "velocity": 86}, {"time": 2122, "pitch": 45, "duration": 2, "velocity": 90}, {"time": 2128, "pitch": 40, "duration": 5, "velocity": 93}, {"time": 2128, "pitch": 59, "duration": 9, "velocity": 86}, {"time": 2128, "pitch": 64, "duration": 8, "velocity": 82}, {"time": 2134, "pitch": 40, "duration": 2, "velocity": 77}, {"time": 2134, "pitch": 47, "duration": 2, "velocity": 89}, {"time": 2140, "pitch": 40, "duration": 2, "velocity": 89}, {"time": 2140, "pitch": 47, "duration": 2, "velocity": 94}, {"time": 2140, "pitch": 59, "duration": 8, "velocity": 88}, {"time": 2140, "pitch": 64, "duration": 9, "velocity": 90}, {"time": 2146, "pitch": 40, "duration": 2, "velocity": 85}, {"time": 2152, "pitch": 40, "duration": 4, "velocity": 90}, {"time": 2152, "pitch": 59, "duration": 4, "velocity": 88}, {"time": 2152, "pitch": 64, "duration": 9, "velocity": 89}, {"time": 2152, "pitch": 68, "duration": 9, "velocity": 87}, {"time": 2158, "pitch": 40, "duration": 3, "velocity": 88}, {"time": 2158, "pitch": 59, "duration": 4, "velocity": 88}, {"time": 2164, "pitch": 40, "duration": 3, "velocity": 89}, {"time": 2164, "pitch": 59, "duration": 3, "velocity": 90}, {"time": 2164, "pitch": 64, "duration": 4, "velocity": 93}, {"time": 2164, "pitch": 68, "duration": 7, "velocity": 92}, {"time": 2170, "pitch": 40, "duration": 2, "velocity": 89}, {"time": 2170, "pitch": 59, "duration": 3, "velocity": 89}, {"time": 2170, "pitch": 64, "duration": 1, "velocity": 52}, {"time": 2176, "pitch": 43, "duration": 3, "velocity": 89}, {"time": 2176, "pitch": 55, "duration": 6, "velocity": 81}, {"time": 2176, "pitch": 58, "duration": 5, "velocity": 84}, {"time": 2182, "pitch": 43, "duration": 2, "velocity": 84}, {"time": 2182, "pitch": 50, "duration": 2, "velocity": 88}, {"time": 2188, "pitch": 43, "duration": 2, "velocity": 88}, {"time": 2188, "pitch": 50, "duration": 2, "velocity": 89}, {"time": 2188, "pitch": 55, "duration": 3, "velocity": 87}, {"time": 2188, "pitch": 58, "duration": 8, "velocity": 86}, {"time": 2188, "pitch": 62, "duration": 9, "velocity": 88}, {"time": 2194, "pitch": 43, "duration": 3, "velocity": 86}, {"time": 2194, "pitch": 55, "duration": 4, "velocity": 89}, {"time": 2200, "pitch": 43, "duration": 20, "velocity": 89}, {"time": 2200, "pitch": 55, "duration": 22, "velocity": 81}, {"time": 2200, "pitch": 58, "duration": 22, "velocity": 90}, {"time": 2200, "pitch": 62, "duration": 23, "velocity": 92}, {"time": 2200, "pitch": 67, "duration": 23, "velocity": 85}, {"time": 2224, "pitch": 38, "duration": 28, "velocity": 89}, {"time": 2224, "pitch": 57, "duration": 7, "velocity": 81}, {"time": 2224, "pitch": 62, "duration": 8, "velocity": 81}, {"time": 2224, "pitch": 66, "duration": 9, "velocity": 77}, {"time": 2230, "pitch": 45, "duration": 21, "velocity": 71}, {"time": 2236, "pitch": 57, "duration": 3, "velocity": 88}, {"time": 2236, "pitch": 62, "duration": 7, "velocity": 88}, {"time": 2242, "pitch": 57, "duration": 1, "velocity": 60}, {"time": 2248, "pitch": 57, "duration": 3, "velocity": 84}, {"time": 2248, "pitch": 62, "duration": 3, "velocity": 89}, {"time": 2248, "pitch": 66, "duration": 8, "velocity": 89}, {"time": 2254, "pitch": 38, "duration": 3, "velocity": 88}, {"time": 2254, "pitch": 57, "duration": 3, "velocity": 82}, {"time": 2260, "pitch": 38, "duration": 2, "velocity": 91}, {"time": 2260, "pitch": 57, "duration": 2, "velocity": 84}, {"time": 2260, "pitch": 62, "duration": 3, "velocity": 87}, {"time": 2260, "pitch": 66, "duration": 5, "velocity": 82}, {"time": 2266, "pitch": 57, "duration": 2, "velocity": 68}, {"time": 2272, "pitch": 43, "duration": 3, "velocity": 88}, {"time": 2272, "pitch": 55, "duration": 12, "velocity": 78}, {"time": 2272, "pitch": 58, "duration": 11, "velocity": 74}, {"time": 2272, "pitch": 62, "duration": 11, "velocity": 78}, {"time": 2278, "pitch": 43, "duration": 2, "velocity": 70}, {"time": 2284, "pitch": 43, "duration": 2, "velocity": 88}, {"time": 2284, "pitch": 50, "duration": 2, "velocity": 86}, {"time": 2284, "pitch": 55, "duration": 4, "velocity": 85}, {"time": 2284, "pitch": 58, "duration": 6, "velocity": 82}, {"time": 2284, "pitch": 62, "duration": 8, "velocity": 85}, {"time": 2290, "pitch": 43, "duration": 2, "velocity": 62}, {"time": 2296, "pitch": 43, "duration": 4, "velocity": 86}, {"time": 2296, "pitch": 55, "duration": 4, "velocity": 87}, {"time": 2296, "pitch": 67, "duration": 4, "velocity": 81}, {"time": 2302, "pitch": 43, "duration": 3, "velocity": 54}, {"time": 2302, "pitch": 50, "duration": 3, "velocity": 75}, {"time": 2308, "pitch": 43, "duration": 2, "velocity": 80}, {"time": 2308, "pitch": 50, "duration": 2, "velocity": 84}, {"time": 2308, "pitch": 55, "duration": 3, "velocity": 85}, {"time": 2308, "pitch": 58, "duration": 4, "velocity": 77}, {"time": 2308, "pitch": 62, "duration": 4, "velocity": 87}, {"time": 2320, "pitch": 38, "duration": 5, "velocity": 89}, {"time": 2320, "pitch": 62, "duration": 10, "velocity": 82}, {"time": 2320, "pitch": 66, "duration": 8, "velocity": 83}, {"time": 2326, "pitch": 57, "duration": 5, "velocity": 77}, {"time": 2332, "pitch": 38, "duration": 2, "velocity": 83}, {"time": 2332, "pitch": 45, "duration": 2, "velocity": 79}, {"time": 2332, "pitch": 57, "duration": 4, "velocity": 79}, {"time": 2332, "pitch": 62, "duration": 7, "velocity": 83}, {"time": 2338, "pitch": 38, "duration": 2, "velocity": 65}, {"time": 2344, "pitch": 38, "duration": 4, "velocity": 89}, {"time": 2344, "pitch": 57, "duration": 5, "velocity": 74}, {"time": 2344, "pitch": 62, "duration": 9, "velocity": 83}, {"time": 2344, "pitch": 66, "duration": 9, "velocity": 76}, {"time": 2350, "pitch": 38, "duration": 2, "velocity": 76}, {"time": 2356, "pitch": 38, "duration": 2, "velocity": 89}, {"time": 2356, "pitch": 57, "duration": 3, "velocity": 82}, {"time": 2356, "pitch": 62, "duration": 6, "velocity": 87}, {"time": 2356, "pitch": 66, "duration": 7, "velocity": 82}, {"time": 2362, "pitch": 38, "duration": 2, "velocity": 85}, {"time": 2362, "pitch": 57, "duration": 2, "velocity": 80}, {"time": 2368, "pitch": 43, "duration": 3, "velocity": 87}, {"time": 2368, "pitch": 55, "duration": 10, "velocity": 78}, {"time": 2368, "pitch": 62, "duration": 9, "velocity": 71}, {"time": 2374, "pitch": 50, "duration": 2, "velocity": 74}, {"time": 2380, "pitch": 43, "duration": 2, "velocity": 83}, {"time": 2380, "pitch": 50, "duration": 2, "velocity": 82}, {"time": 2380, "pitch": 58, "duration": 4, "velocity": 75}, {"time": 2380, "pitch": 62, "duration": 9, "velocity": 84}, {"time": 2386, "pitch": 55, "duration": 8, "velocity": 79}, {"time": 2392, "pitch": 43, "duration": 3, "velocity": 87}, {"time": 2392, "pitch": 58, "duration": 7, "velocity": 75}, {"time": 2392, "pitch": 62, "duration": 8, "velocity": 84}, {"time": 2392, "pitch": 67, "duration": 7, "velocity": 85}, {"time": 2398, "pitch": 43, "duration": 2, "velocity": 78}, {"time": 2398, "pitch": 50, "duration": 2, "velocity": 78}, {"time": 2404, "pitch": 43, "duration": 3, "velocity": 88}, {"time": 2404, "pitch": 50, "duration": 3, "velocity": 90}, {"time": 2404, "pitch": 58, "duration": 11, "velocity": 91}, {"time": 2404, "pitch": 62, "duration": 12, "velocity": 90}, {"time": 2410, "pitch": 43, "duration": 6, "velocity": 89}, {"time": 2416, "pitch": 43, "duration": 4, "velocity": 85}, {"time": 2416, "pitch": 55, "duration": 7, "velocity": 88}, {"time": 2416, "pitch": 59, "duration": 7, "velocity": 81}, {"time": 2422, "pitch": 43, "duration": 2, "velocity": 80}, {"time": 2422, "pitch": 50, "duration": 2, "velocity": 82}, {"time": 2428, "pitch": 43, "duration": 4, "velocity": 88}, {"time": 2428, "pitch": 55, "duration": 7, "velocity": 84}, {"time": 2428, "pitch": 62, "duration": 8, "velocity": 85}, {"time": 2434, "pitch": 43, "duration": 2, "velocity": 71}, {"time": 2434, "pitch": 50, "duration": 3, "velocity": 82}, {"time": 2440, "pitch": 45, "duration": 3, "velocity": 88}, {"time": 2440, "pitch": 57, "duration": 8, "velocity": 82}, {"time": 2440, "pitch": 61, "duration": 9, "velocity": 82}, {"time": 2446, "pitch": 45, "duration": 2, "velocity": 84}, {"time": 2446, "pitch": 52, "duration": 2, "velocity": 82}, {"time": 2452, "pitch": 45, "duration": 3, "velocity": 88}, {"time": 2452, "pitch": 52, "duration": 3, "velocity": 89}, {"time": 2452, "pitch": 57, "duration": 3, "velocity": 88}, {"time": 2452, "pitch": 61, "duration": 5, "velocity": 93}, {"time": 2452, "pitch": 64, "duration": 8, "velocity": 92}, {"time": 2458, "pitch": 45, "duration": 3, "velocity": 86}, {"time": 2458, "pitch": 57, "duration": 2, "velocity": 89}, {"time": 2464, "pitch": 47, "duration": 4, "velocity": 87}, {"time": 2464, "pitch": 59, "duration": 9, "velocity": 87}, {"time": 2464, "pitch": 62, "duration": 10, "velocity": 87}, {"time": 2470, "pitch": 47, "duration": 3, "velocity": 80}, {"time": 2476, "pitch": 47, "duration": 3, "velocity": 83}, {"time": 2476, "pitch": 54, "duration": 4, "velocity": 86}, {"time": 2476, "pitch": 59, "duration": 9, "velocity": 88}, {"time": 2476, "pitch": 62, "duration": 10, "velocity": 88}, {"time": 2476, "pitch": 66, "duration": 9, "velocity": 85}, {"time": 2482, "pitch": 47, "duration": 3, "velocity": 83}, {"time": 2488, "pitch": 47, "duration": 9, "velocity": 88}, {"time": 2488, "pitch": 59, "duration": 9, "velocity": 85}, {"time": 2488, "pitch": 62, "duration": 9, "velocity": 85}, {"time": 2488, "pitch": 66, "duration": 10, "velocity": 84}, {"time": 2494, "pitch": 54, "duration": 3, "velocity": 72}, {"time": 2500, "pitch": 47, "duration": 4, "velocity": 80}, {"time": 2500, "pitch": 54, "duration": 3, "velocity": 76}, {"time": 2500, "pitch": 59, "duration": 4, "velocity": 89}, {"time": 2500, "pitch": 62, "duration": 4, "velocity": 89}, {"time": 2500, "pitch": 66, "duration": 4, "velocity": 86}, {"time": 2506, "pitch": 47, "duration": 3, "velocity": 80}, {"time": 2512, "pitch": 43, "duration": 8, "velocity": 87}, {"time": 2512, "pitch": 55, "duration": 9, "velocity": 85}, {"time": 2512, "pitch": 62, "duration": 8, "velocity": 82}, {"time": 2512, "pitch": 64, "duration": 2, "velocity": 89}, {"time": 2518, "pitch": 50, "duration": 2, "velocity": 83}, {"time": 2524, "pitch": 43, "duration": 8, "velocity": 88}, {"time": 2524, "pitch": 55, "duration": 5, "velocity": 84}, {"time": 2524, "pitch": 59, "duration": 5, "velocity": 85}, {"time": 2524, "pitch": 62, "duration": 6, "velocity": 90}, {"time": 2530, "pitch": 50, "duration": 3, "velocity": 79}, {"time": 2536, "pitch": 45, "duration": 5, "velocity": 88}, {"time": 2536, "pitch": 57, "duration": 7, "velocity": 88}, {"time": 2536, "pitch": 61, "duration": 8, "velocity": 88}, {"time": 2542, "pitch": 45, "duration": 3, "velocity": 73}, {"time": 2542, "pitch": 52, "duration": 3, "velocity": 78}, {"time": 2548, "pitch": 45, "duration": 3, "velocity": 88}, {"time": 2548, "pitch": 52, "duration": 3, "velocity": 86}, {"time": 2548, "pitch": 57, "duration": 4, "velocity": 86}, {"time": 2548, "pitch": 61, "duration": 4, "velocity": 86}, {"time": 2548, "pitch": 64, "duration": 5, "velocity": 89}, {"time": 2554, "pitch": 45, "duration": 3, "velocity": 88}, {"time": 2560, "pitch": 47, "duration": 9, "velocity": 87}, {"time": 2560, "pitch": 59, "duration": 8, "velocity": 84}, {"time": 2560, "pitch": 62, "duration": 8, "velocity": 84}, {"time": 2560, "pitch": 66, "duration": 8, "velocity": 81}, {"time": 2566, "pitch": 54, "duration": 3, "velocity": 80}, {"time": 2572, "pitch": 47, "duration": 3, "velocity": 83}, {"time": 2572, "pitch": 54, "duration": 3, "velocity": 79}, {"time": 2572, "pitch": 59, "duration": 6, "velocity": 89}, {"time": 2572, "pitch": 62, "duration": 7, "velocity": 88}, {"time": 2572, "pitch": 66, "duration": 8, "velocity": 88}, {"time": 2578, "pitch": 47, "duration": 4, "velocity": 81}, {"time": 2584, "pitch": 47, "duration": 9, "velocity": 84}, {"time": 2584, "pitch": 59, "duration": 4, "velocity": 87}, {"time": 2584, "pitch": 62, "duration": 4, "velocity": 84}, {"time": 2584, "pitch": 66, "duration": 7, "velocity": 88}, {"time": 2590, "pitch": 54, "duration": 4, "velocity": 70}, {"time": 2590, "pitch": 59, "duration": 3, "velocity": 83}, {"time": 2590, "pitch": 64, "duration": 4, "velocity": 87}, {"time": 2596, "pitch": 47, "duration": 4, "velocity": 79}, {"time": 2596, "pitch": 54, "duration": 5, "velocity": 85}, {"time": 2596, "pitch": 59, "duration": 8, "velocity": 88}, {"time": 2596, "pitch": 62, "duration": 10, "velocity": 89}, {"time": 2602, "pitch": 47, "duration": 3, "velocity": 89}, {"time": 2608, "pitch": 43, "duration": 8, "velocity": 88}, {"time": 2608, "pitch": 55, "duration": 9, "velocity": 82}, {"time": 2608, "pitch": 62, "duration": 8, "velocity": 86}, {"time": 2614, "pitch": 50, "duration": 2, "velocity": 80}, {"time": 2620, "pitch": 43, "duration": 3, "velocity": 88}, {"time": 2620, "pitch": 50, "duration": 3, "velocity": 83}, {"time": 2620, "pitch": 55, "duration": 5, "velocity": 87}, {"time": 2620, "pitch": 59, "duration": 5, "velocity": 87}, {"time": 2620, "pitch": 62, "duration": 7, "velocity": 89}, {"time": 2626, "pitch": 43, "duration": 4, "velocity": 84}, {"time": 2632, "pitch": 45, "duration": 9, "velocity": 88}, {"time": 2632, "pitch": 57, "duration": 7, "velocity": 80}, {"time": 2632, "pitch": 61, "duration": 8, "velocity": 82}, {"time": 2638, "pitch": 52, "duration": 3, "velocity": 80}, {"time": 2644, "pitch": 45, "duration": 3, "velocity": 88}, {"time": 2644, "pitch": 52, "duration": 3, "velocity": 88}, {"time": 2644, "pitch": 57, "duration": 6, "velocity": 83}, {"time": 2644, "pitch": 61, "duration": 5, "velocity": 84}, {"time": 2644, "pitch": 64, "duration": 8, "velocity": 90}, {"time": 2650, "pitch": 45, "duration": 4, "velocity": 87}, {"time": 2656, "pitch": 47, "duration": 14, "velocity": 89}, {"time": 2656, "pitch": 59, "duration": 7, "velocity": 81}, {"time": 2656, "pitch": 62, "duration": 8, "velocity": 83}, {"time": 2656, "pitch": 66, "duration": 6, "velocity": 81}, {"time": 2662, "pitch": 54, "duration": 8, "velocity": 66}, {"time": 2668, "pitch": 59, "duration": 8, "velocity": 90}, {"time": 2668, "pitch": 62, "duration": 8, "velocity": 90}, {"time": 2668, "pitch": 66, "duration": 8, "velocity": 90}, {"time": 2674, "pitch": 54, "duration": 4, "velocity": 82}, {"time": 2680, "pitch": 47, "duration": 10, "velocity": 90}, {"time": 2680, "pitch": 59, "duration": 7, "velocity": 89}, {"time": 2680, "pitch": 62, "duration": 8, "velocity": 89}, {"time": 2680, "pitch": 66, "duration": 8, "velocity": 89}, {"time": 2686, "pitch": 54, "duration": 4, "velocity": 68}, {"time": 2692, "pitch": 47, "duration": 5, "velocity": 82}, {"time": 2692, "pitch": 54, "duration": 4, "velocity": 82}, {"time": 2692, "pitch": 59, "duration": 4, "velocity": 92}, {"time": 2692, "pitch": 62, "duration": 4, "velocity": 90}, {"time": 2692, "pitch": 66, "duration": 3, "velocity": 92}, {"time": 2698, "pitch": 64, "duration": 4, "velocity": 89}, {"time": 2704, "pitch": 43, "duration": 8, "velocity": 86}, {"time": 2704, "pitch": 55, "duration": 9, "velocity": 80}, {"time": 2704, "pitch": 62, "duration": 10, "velocity": 83}, {"time": 2710, "pitch": 50, "duration": 2, "velocity": 85}, {"time": 2716, "pitch": 43, "duration": 3, "velocity": 88}, {"time": 2716, "pitch": 50, "duration": 3, "velocity": 89}, {"time": 2716, "pitch": 55, "duration": 15, "velocity": 89}, {"time": 2716, "pitch": 59, "duration": 15, "velocity": 88}, {"time": 2716, "pitch": 62, "duration": 16, "velocity": 89}, {"time": 2722, "pitch": 43, "duration": 3, "velocity": 87}, {"time": 2728, "pitch": 43, "duration": 4, "velocity": 85}, {"time": 2734, "pitch": 43, "duration": 2, "velocity": 77}, {"time": 2734, "pitch": 50, "duration": 3, "velocity": 84}, {"time": 2734, "pitch": 55, "duration": 2, "velocity": 71}, {"time": 2740, "pitch": 43, "duration": 3, "velocity": 89}, {"time": 2740, "pitch": 50, "duration": 3, "velocity": 89}, {"time": 2740, "pitch": 55, "duration": 5, "velocity": 89}, {"time": 2740, "pitch": 59, "duration": 5, "velocity": 89}, {"time": 2740, "pitch": 62, "duration": 6, "velocity": 90}, {"time": 2746, "pitch": 43, "duration": 3, "velocity": 88}, {"time": 2752, "pitch": 45, "duration": 8, "velocity": 90}, {"time": 2752, "pitch": 57, "duration": 9, "velocity": 81}, {"time": 2752, "pitch": 61, "duration": 2, "velocity": 56}, {"time": 2752, "pitch": 62, "duration": 2, "velocity": 76}, {"time": 2758, "pitch": 52, "duration": 3, "velocity": 84}, {"time": 2764, "pitch": 45, "duration": 3, "velocity": 89}, {"time": 2764, "pitch": 52, "duration": 2, "velocity": 90}, {"time": 2764, "pitch": 57, "duration": 9, "velocity": 89}, {"time": 2764, "pitch": 61, "duration": 9, "velocity": 91}, {"time": 2764, "pitch": 64, "duration": 9, "velocity": 91}, {"time": 2770, "pitch": 45, "duration": 3, "velocity": 87}, {"time": 2776, "pitch": 45, "duration": 4, "velocity": 89}, {"time": 2776, "pitch": 57, "duration": 10, "velocity": 85}, {"time": 2776, "pitch": 61, "duration": 9, "velocity": 77}, {"time": 2776, "pitch": 64, "duration": 9, "velocity": 89}, {"time": 2776, "pitch": 69, "duration": 9, "velocity": 89}, {"time": 2782, "pitch": 45, "duration": 3, "velocity": 87}, {"time": 2782, "pitch": 52, "duration": 3, "velocity": 82}, {"time": 2788, "pitch": 45, "duration": 3, "velocity": 89}, {"time": 2788, "pitch": 52, "duration": 3, "velocity": 89}, {"time": 2788, "pitch": 57, "duration": 6, "velocity": 88}, {"time": 2788, "pitch": 61, "duration": 6, "velocity": 86}, {"time": 2794, "pitch": 45, "duration": 2, "velocity": 90}, {"time": 2800, "pitch": 43, "duration": 4, "velocity": 85}, {"time": 2800, "pitch": 55, "duration": 7, "velocity": 88}, {"time": 2800, "pitch": 59, "duration": 7, "velocity": 81}, {"time": 2806, "pitch": 43, "duration": 2, "velocity": 80}, {"time": 2806, "pitch": 50, "duration": 2, "velocity": 82}, {"time": 2812, "pitch": 43, "duration": 4, "velocity": 88}, {"time": 2812, "pitch": 55, "duration": 7, "velocity": 84}, {"time": 2812, "pitch": 62, "duration": 8, "velocity": 85}, {"time": 2818, "pitch": 43, "duration": 2, "velocity": 71}, {"time": 2818, "pitch": 50, "duration": 3, "velocity": 82}, {"time": 2824, "pitch": 45, "duration": 3, "velocity": 88}, {"time": 2824, "pitch": 57, "duration": 8, "velocity": 82}, {"time": 2824, "pitch": 61, "duration": 9, "velocity": 82}, {"time": 2830, "pitch": 45, "duration": 2, "velocity": 84}, {"time": 2830, "pitch": 52, "duration": 2, "velocity": 82}, {"time": 2836, "pitch": 45, "duration": 3, "velocity": 88}, {"time": 2836, "pitch": 52, "duration": 3, "velocity": 89}, {"time": 2836, "pitch": 57, "duration": 3, "velocity": 88}, {"time": 2836, "pitch": 61, "duration": 5, "velocity": 93}, {"time": 2836, "pitch": 64, "duration": 8, "velocity": 92}, {"time": 2842, "pitch": 45, "duration": 3, "velocity": 86}, {"time": 2842, "pitch": 57, "duration": 2, "velocity": 89}, {"time": 2848, "pitch": 47, "duration": 4, "velocity": 87}, {"time": 2848, "pitch": 59, "duration": 9, "velocity": 87}, {"time": 2848, "pitch": 62, "duration": 10, "velocity": 87}, {"time": 2854, "pitch": 47, "duration": 3, "velocity": 80}, {"time": 2860, "pitch": 47, "duration": 3, "velocity": 83}, {"time": 2860, "pitch": 54, "duration": 4, "velocity": 86}, {"time": 2860, "pitch": 59, "duration": 9, "velocity": 88}, {"time": 2860, "pitch": 62, "duration": 10, "velocity": 88}, {"time": 2860, "pitch": 66, "duration": 9, "velocity": 85}, {"time": 2866, "pitch": 47, "duration": 3, "velocity": 83}, {"time": 2872, "pitch": 47, "duration": 9, "velocity": 88}, {"time": 2872, "pitch": 59, "duration": 9, "velocity": 85}, {"time": 2872, "pitch": 62, "duration": 9, "velocity": 85}, {"time": 2872, "pitch": 66, "duration": 10, "velocity": 84}, {"time": 2878, "pitch": 54, "duration": 3, "velocity": 72}, {"time": 2884, "pitch": 47, "duration": 4, "velocity": 80}, {"time": 2884, "pitch": 54, "duration": 3, "velocity": 76}, {"time": 2884, "pitch": 59, "duration": 4, "velocity": 89}, {"time": 2884, "pitch": 62, "duration": 4, "velocity": 89}, {"time": 2884, "pitch": 66, "duration": 4, "velocity": 86}, {"time": 2890, "pitch": 47, "duration": 3, "velocity": 80}, {"time": 2896, "pitch": 43, "duration": 8, "velocity": 87}, {"time": 2896, "pitch": 55, "duration": 9, "velocity": 85}, {"time": 2896, "pitch": 62, "duration": 8, "velocity": 82}, {"time": 2896, "pitch": 64, "duration": 2, "velocity": 89}, {"time": 2902, "pitch": 50, "duration": 2, "velocity": 83}, {"time": 2908, "pitch": 43, "duration": 8, "velocity": 88}, {"time": 2908, "pitch": 55, "duration": 5, "velocity": 84}, {"time": 2908, "pitch": 59, "duration": 5, "velocity": 85}, {"time": 2908, "pitch": 62, "duration": 6, "velocity": 90}, {"time": 2914, "pitch": 50, "duration": 3, "velocity": 79}, {"time": 2920, "pitch": 45, "duration": 5, "velocity": 88}, {"time": 2920, "pitch": 57, "duration": 7, "velocity": 88}, {"time": 2920, "pitch": 61, "duration": 8, "velocity": 88}, {"time": 2926, "pitch": 45, "duration": 3, "velocity": 73}, {"time": 2926, "pitch": 52, "duration": 3, "velocity": 78}, {"time": 2932, "pitch": 45, "duration": 3, "velocity": 88}, {"time": 2932, "pitch": 52, "duration": 3, "velocity": 86}, {"time": 2932, "pitch": 57, "duration": 4, "velocity": 86}, {"time": 2932, "pitch": 61, "duration": 4, "velocity": 86}, {"time": 2932, "pitch": 64, "duration": 5, "velocity": 89}, {"time": 2938, "pitch": 45, "duration": 3, "velocity": 88}, {"time": 2944, "pitch": 47, "duration": 9, "velocity": 87}, {"time": 2944, "pitch": 59, "duration": 8, "velocity": 84}, {"time": 2944, "pitch": 62, "duration": 8, "velocity": 84}, {"time": 2944, "pitch": 66, "duration": 8, "velocity": 81}, {"time": 2950, "pitch": 54, "duration": 3, "velocity": 80}, {"time": 2956, "pitch": 47, "duration": 3, "velocity": 83}, {"time": 2956, "pitch": 54, "duration": 3, "velocity": 79}, {"time": 2956, "pitch": 59, "duration": 6, "velocity": 89}, {"time": 2956, "pitch": 62, "duration": 7, "velocity": 88}, {"time": 2956, "pitch": 66, "duration": 8, "velocity": 88}, {"time": 2962, "pitch": 47, "duration": 4, "velocity": 81}, {"time": 2968, "pitch": 47, "duration": 9, "velocity": 84}, {"time": 2968, "pitch": 59, "duration": 4, "velocity": 87}, {"time": 2968, "pitch": 62, "duration": 4, "velocity": 84}, {"time": 2968, "pitch": 66, "duration": 7, "velocity": 88}, {"time": 2974, "pitch": 54, "duration": 4, "velocity": 70}, {"time": 2974, "pitch": 59, "duration": 3, "velocity": 83}, {"time": 2974, "pitch": 64, "duration": 4, "velocity": 87}, {"time": 2980, "pitch": 47, "duration": 4, "velocity": 79}, {"time": 2980, "pitch": 54, "duration": 5, "velocity": 85}, {"time": 2980, "pitch": 59, "duration": 8, "velocity": 88}, {"time": 2980, "pitch": 62, "duration": 10, "velocity": 89}, {"time": 2986, "pitch": 47, "duration": 3, "velocity": 89}, {"time": 2992, "pitch": 43, "duration": 8, "velocity": 88}, {"time": 2992, "pitch": 55, "duration": 9, "velocity": 82}, {"time": 2992, "pitch": 62, "duration": 8, "velocity": 86}, {"time": 2998, "pitch": 50, "duration": 2, "velocity": 80}, {"time": 3004, "pitch": 43, "duration": 3, "velocity": 88}, {"time": 3004, "pitch": 50, "duration": 3, "velocity": 83}, {"time": 3004, "pitch": 55, "duration": 5, "velocity": 87}, {"time": 3004, "pitch": 59, "duration": 5, "velocity": 87}, {"time": 3004, "pitch": 62, "duration": 7, "velocity": 89}, {"time": 3010, "pitch": 43, "duration": 4, "velocity": 84}, {"time": 3016, "pitch": 45, "duration": 9, "velocity": 88}, {"time": 3016, "pitch": 57, "duration": 7, "velocity": 80}, {"time": 3016, "pitch": 61, "duration": 8, "velocity": 82}, {"time": 3022, "pitch": 52, "duration": 3, "velocity": 80}, {"time": 3028, "pitch": 45, "duration": 3, "velocity": 88}, {"time": 3028, "pitch": 52, "duration": 3, "velocity": 88}, {"time": 3028, "pitch": 57, "duration": 6, "velocity": 83}, {"time": 3028, "pitch": 61, "duration": 5, "velocity": 84}, {"time": 3028, "pitch": 64, "duration": 8, "velocity": 90}, {"time": 3034, "pitch": 45, "duration": 4, "velocity": 87}, {"time": 3040, "pitch": 47, "duration": 14, "velocity": 89}, {"time": 3040, "pitch": 59, "duration": 7, "velocity": 81}, {"time": 3040, "pitch": 62, "duration": 8, "velocity": 83}, {"time": 3040, "pitch": 66, "duration": 6, "velocity": 81}, {"time": 3046, "pitch": 54, "duration": 8, "velocity": 66}, {"time": 3052, "pitch": 59, "duration": 8, "velocity": 90}, {"time": 3052, "pitch": 62, "duration": 8, "velocity": 90}, {"time": 3052, "pitch": 66, "duration": 8, "velocity": 90}, {"time": 3058, "pitch": 54, "duration": 4, "velocity": 82}, {"time": 3064, "pitch": 47, "duration": 10, "velocity": 90}, {"time": 3064, "pitch": 59, "duration": 7, "velocity": 89}, {"time": 3064, "pitch": 62, "duration": 8, "velocity": 89}, {"time": 3064, "pitch": 66, "duration": 8, "velocity": 89}, {"time": 3070, "pitch": 54, "duration": 4, "velocity": 68}, {"time": 3076, "pitch": 47, "duration": 5, "velocity": 82}, {"time": 3076, "pitch": 54, "duration": 4, "velocity": 82}, {"time": 3076, "pitch": 59, "duration": 4, "velocity": 92}, {"time": 3076, "pitch": 62, "duration": 4, "velocity": 90}, {"time": 3076, "pitch": 66, "duration": 3, "velocity": 92}, {"time": 3082, "pitch": 64, "duration": 4, "velocity": 89}, {"time": 3088, "pitch": 43, "duration": 8, "velocity": 86}, {"time": 3088, "pitch": 55, "duration": 9, "velocity": 80}, {"time": 3088, "pitch": 62, "duration": 10, "velocity": 83}, {"time": 3094, "pitch": 50, "duration": 2, "velocity": 85}, {"time": 3100, "pitch": 43, "duration": 3, "velocity": 88}, {"time": 3100, "pitch": 50, "duration": 3, "velocity": 89}, {"time": 3100, "pitch": 55, "duration": 15, "velocity": 89}, {"time": 3100, "pitch": 59, "duration": 15, "velocity": 88}, {"time": 3100, "pitch": 62, "duration": 16, "velocity": 89}, {"time": 3106, "pitch": 43, "duration": 3, "velocity": 87}, {"time": 3112, "pitch": 43, "duration": 4, "velocity": 85}, {"time": 3118, "pitch": 43, "duration": 2, "velocity": 77}, {"time": 3118, "pitch": 50, "duration": 3, "velocity": 84}, {"time": 3118, "pitch": 55, "duration": 2, "velocity": 71}, {"time": 3124, "pitch": 43, "duration": 3, "velocity": 89}, {"time": 3124, "pitch": 50, "duration": 3, "velocity": 89}, {"time": 3124, "pitch": 55, "duration": 5, "velocity": 89}, {"time": 3124, "pitch": 59, "duration": 5, "velocity": 89}, {"time": 3124, "pitch": 62, "duration": 6, "velocity": 90}, {"time": 3130, "pitch": 43, "duration": 3, "velocity": 88}, {"time": 3136, "pitch": 45, "duration": 8, "velocity": 90}, {"time": 3136, "pitch": 57, "duration": 9, "velocity": 81}, {"time": 3136, "pitch": 61, "duration": 2, "velocity": 56}, {"time": 3136, "pitch": 62, "duration": 2, "velocity": 76}, {"time": 3142, "pitch": 52, "duration": 3, "velocity": 84}, {"time": 3148, "pitch": 45, "duration": 3, "velocity": 89}, {"time": 3148, "pitch": 52, "duration": 2, "velocity": 90}, {"time": 3148, "pitch": 57, "duration": 9, "velocity": 89}, {"time": 3148, "pitch": 61, "duration": 9, "velocity": 91}, {"time": 3148, "pitch": 64, "duration": 9, "velocity": 91}, {"time": 3154, "pitch": 45, "duration": 3, "velocity": 87}, {"time": 3160, "pitch": 45, "duration": 4, "velocity": 89}, {"time": 3160, "pitch": 57, "duration": 10, "velocity": 85}, {"time": 3160, "pitch": 61, "duration": 9, "velocity": 77}, {"time": 3160, "pitch": 64, "duration": 9, "velocity": 89}, {"time": 3160, "pitch": 69, "duration": 9, "velocity": 89}, {"time": 3166, "pitch": 45, "duration": 3, "velocity": 87}, {"time": 3166, "pitch": 52, "duration": 3, "velocity": 82}, {"time": 3172, "pitch": 45, "duration": 3, "velocity": 89}, {"time": 3172, "pitch": 52, "duration": 3, "velocity": 89}, {"time": 3172, "pitch": 57, "duration": 6, "velocity": 88}, {"time": 3172, "pitch": 61, "duration": 6, "velocity": 86}, {"time": 3178, "pitch": 45, "duration": 2, "velocity": 90}, {"time": 3184, "pitch": 43, "duration": 4, "velocity": 88}, {"time": 3184, "pitch": 59, "duration": 9, "velocity": 78}, {"time": 3184, "pitch": 62, "duration": 9, "velocity": 85}, {"time": 3190, "pitch": 43, "duration": 2, "velocity": 84}, {"time": 3196, "pitch": 43, "duration": 2, "velocity": 84}, {"time": 3196, "pitch": 50, "duration": 2, "velocity": 85}, {"time": 3196, "pitch": 55, "duration": 6, "velocity": 79}, {"time": 3196, "pitch": 59, "duration": 7, "velocity": 80}, {"time": 3196, "pitch": 62, "duration": 7, "velocity": 85}, {"time": 3202, "pitch": 43, "duration": 3, "velocity": 78}, {"time": 3208, "pitch": 45, "duration": 4, "velocity": 87}, {"time": 3208, "pitch": 57, "duration": 8, "velocity": 78}, {"time": 3208, "pitch": 61, "duration": 7, "velocity": 83}, {"time": 3214, "pitch": 45, "duration": 3, "velocity": 78}, {"time": 3214, "pitch": 52, "duration": 3, "velocity": 79}, {"time": 3220, "pitch": 45, "duration": 3, "velocity": 86}, {"time": 3220, "pitch": 52, "duration": 2, "velocity": 88}, {"time": 3220, "pitch": 57, "duration": 4, "velocity": 80}, {"time": 3220, "pitch": 61, "duration": 4, "velocity": 82}, {"time": 3226, "pitch": 45, "duration": 3, "velocity": 88}, {"time": 3232, "pitch": 47, "duration": 9, "velocity": 88}, {"time": 3232, "pitch": 59, "duration": 6, "velocity": 76}, {"time": 3232, "pitch": 62, "duration": 5, "velocity": 84}, {"time": 3238, "pitch": 54, "duration": 3, "velocity": 71}, {"time": 3244, "pitch": 47, "duration": 3, "velocity": 88}, {"time": 3244, "pitch": 54, "duration": 3, "velocity": 83}, {"time": 3244, "pitch": 59, "duration": 8, "velocity": 83}, {"time": 3244, "pitch": 62, "duration": 9, "velocity": 82}, {"time": 3244, "pitch": 66, "duration": 8, "velocity": 73}, {"time": 3250, "pitch": 47, "duration": 4, "velocity": 83}, {"time": 3256, "pitch": 47, "duration": 4, "velocity": 77}, {"time": 3256, "pitch": 59, "duration": 7, "velocity": 76}, {"time": 3256, "pitch": 62, "duration": 7, "velocity": 81}, {"time": 3262, "pitch": 47, "duration": 3, "velocity": 77}, {"time": 3262, "pitch": 54, "duration": 3, "velocity": 74}, {"time": 3268, "pitch": 47, "duration": 3, "velocity": 79}, {"time": 3268, "pitch": 54, "duration": 3, "velocity": 73}, {"time": 3268, "pitch": 61, "duration": 6, "velocity": 84}, {"time": 3274, "pitch": 47, "duration": 3, "velocity": 87}, {"time": 3274, "pitch": 62, "duration": 3, "velocity": 84}, {"time": 3280, "pitch": 43, "duration": 3, "velocity": 84}, {"time": 3280, "pitch": 55, "duration": 10, "velocity": 66}, {"time": 3280, "pitch": 59, "duration": 10, "velocity": 72}, {"time": 3286, "pitch": 43, "duration": 3, "velocity": 75}, {"time": 3286, "pitch": 50, "duration": 2, "velocity": 70}, {"time": 3292, "pitch": 43, "duration": 3, "velocity": 84}, {"time": 3292, "pitch": 50, "duration": 2, "velocity": 83}, {"time": 3292, "pitch": 55, "duration": 8, "velocity": 83}, {"time": 3292, "pitch": 59, "duration": 8, "velocity": 83}, {"time": 3292, "pitch": 62, "duration": 10, "velocity": 84}, {"time": 3298, "pitch": 43, "duration": 3, "velocity": 83}, {"time": 3304, "pitch": 45, "duration": 5, "velocity": 88}, {"time": 3304, "pitch": 57, "duration": 9, "velocity": 77}, {"time": 3304, "pitch": 61, "duration": 9, "velocity": 83}, {"time": 3310, "pitch": 45, "duration": 2, "velocity": 58}, {"time": 3310, "pitch": 52, "duration": 2, "velocity": 79}, {"time": 3316, "pitch": 45, "duration": 3, "velocity": 85}, {"time": 3316, "pitch": 52, "duration": 2, "velocity": 82}, {"time": 3316, "pitch": 57, "duration": 6, "velocity": 77}, {"time": 3316, "pitch": 64, "duration": 8, "velocity": 87}, {"time": 3322, "pitch": 45, "duration": 3, "velocity": 87}, {"time": 3328, "pitch": 47, "duration": 9, "velocity": 88}, {"time": 3328, "pitch": 59, "duration": 8, "velocity": 77}, {"time": 3328, "pitch": 62, "duration": 9, "velocity": 79}, {"time": 3334, "pitch": 54, "duration": 3, "velocity": 69}, {"time": 3340, "pitch": 47, "duration": 3, "velocity": 81}, {"time": 3340, "pitch": 54, "duration": 3, "velocity": 78}, {"time": 3340, "pitch": 59, "duration": 8, "velocity": 81}, {"time": 3340, "pitch": 62, "duration": 7, "velocity": 81}, {"time": 3340, "pitch": 66, "duration": 7, "velocity": 74}, {"time": 3346, "pitch": 47, "duration": 3, "velocity": 77}, {"time": 3346, "pitch": 54, "duration": 3, "velocity": 68}, {"time": 3352, "pitch": 47, "duration": 3, "velocity": 83}, {"time": 3352, "pitch": 54, "duration": 3, "velocity": 71}, {"time": 3352, "pitch": 61, "duration": 3, "velocity": 88}, {"time": 3358, "pitch": 47, "duration": 3, "velocity": 79}, {"time": 3358, "pitch": 54, "duration": 3, "velocity": 66}, {"time": 3358, "pitch": 62, "duration": 5, "velocity": 82}, {"time": 3364, "pitch": 47, "duration": 4, "velocity": 85}, {"time": 3364, "pitch": 54, "duration": 3, "velocity": 76}, {"time": 3364, "pitch": 61, "duration": 7, "velocity": 89}, {"time": 3370, "pitch": 47, "duration": 6, "velocity": 81}, {"time": 3370, "pitch": 54, "duration": 6, "velocity": 75}, {"time": 3370, "pitch": 57, "duration": 6, "velocity": 87}, {"time": 3376, "pitch": 43, "duration": 8, "velocity": 88}, {"time": 3376, "pitch": 55, "duration": 6, "velocity": 85}, {"time": 3376, "pitch": 62, "duration": 6, "velocity": 89}, {"time": 3382, "pitch": 50, "duration": 3, "velocity": 84}, {"time": 3388, "pitch": 43, "duration": 2, "velocity": 88}, {"time": 3388, "pitch": 50, "duration": 2, "velocity": 89}, {"time": 3388, "pitch": 55, "duration": 5, "velocity": 85}, {"time": 3388, "pitch": 62, "duration": 6, "velocity": 86}, {"time": 3394, "pitch": 43, "duration": 3, "velocity": 87}, {"time": 3394, "pitch": 50, "duration": 2, "velocity": 79}, {"time": 3400, "pitch": 45, "duration": 4, "velocity": 88}, {"time": 3400, "pitch": 57, "duration": 9, "velocity": 84}, {"time": 3400, "pitch": 61, "duration": 9, "velocity": 88}, {"time": 3406, "pitch": 45, "duration": 2, "velocity": 81}, {"time": 3406, "pitch": 52, "duration": 2, "velocity": 83}, {"time": 3412, "pitch": 45, "duration": 2, "velocity": 88}, {"time": 3412, "pitch": 52, "duration": 2, "velocity": 88}, {"time": 3412, "pitch": 57, "duration": 7, "velocity": 88}, {"time": 3412, "pitch": 61, "duration": 7, "velocity": 87}, {"time": 3418, "pitch": 45, "duration": 3, "velocity": 82}, {"time": 3424, "pitch": 47, "duration": 9, "velocity": 88}, {"time": 3424, "pitch": 59, "duration": 6, "velocity": 84}, {"time": 3424, "pitch": 62, "duration": 4, "velocity": 83}, {"time": 3430, "pitch": 54, "duration": 3, "velocity": 73}, {"time": 3436, "pitch": 47, "duration": 3, "velocity": 81}, {"time": 3436, "pitch": 54, "duration": 3, "velocity": 81}, {"time": 3436, "pitch": 59, "duration": 8, "velocity": 88}, {"time": 3436, "pitch": 62, "duration": 8, "velocity": 87}, {"time": 3436, "pitch": 66, "duration": 9, "velocity": 83}, {"time": 3442, "pitch": 47, "duration": 4, "velocity": 84}, {"time": 3448, "pitch": 47, "duration": 4, "velocity": 81}, {"time": 3448, "pitch": 54, "duration": 4, "velocity": 84}, {"time": 3448, "pitch": 59, "duration": 4, "velocity": 74}, {"time": 3448, "pitch": 62, "duration": 3, "velocity": 84}, {"time": 3454, "pitch": 47, "duration": 3, "velocity": 83}, {"time": 3454, "pitch": 61, "duration": 4, "velocity": 89}, {"time": 3460, "pitch": 47, "duration": 4, "velocity": 82}, {"time": 3460, "pitch": 54, "duration": 3, "velocity": 76}, {"time": 3460, "pitch": 62, "duration": 10, "velocity": 90}, {"time": 3466, "pitch": 47, "duration": 3, "velocity": 84}, {"time": 3472, "pitch": 43, "duration": 3, "velocity": 87}, {"time": 3472, "pitch": 55, "duration": 9, "velocity": 84}, {"time": 3472, "pitch": 59, "duration": 9, "velocity": 85}, {"time": 3478, "pitch": 43, "duration": 3, "velocity": 83}, {"time": 3484, "pitch": 43, "duration": 3, "velocity": 85}, {"time": 3484, "pitch": 50, "duration": 2, "velocity": 83}, {"time": 3484, "pitch": 55, "duration": 6, "velocity": 85}, {"time": 3484, "pitch": 59, "duration": 7, "velocity": 88}, {"time": 3484, "pitch": 62, "duration": 7, "velocity": 90}, {"time": 3490, "pitch": 43, "duration": 3, "velocity": 84}, {"time": 3496, "pitch": 45, "duration": 3, "velocity": 88}, {"time": 3496, "pitch": 57, "duration": 9, "velocity": 84}, {"time": 3496, "pitch": 61, "duration": 10, "velocity": 85}, {"time": 3502, "pitch": 45, "duration": 3, "velocity": 84}, {"time": 3502, "pitch": 52, "duration": 2, "velocity": 76}, {"time": 3508, "pitch": 45, "duration": 3, "velocity": 88}, {"time": 3508, "pitch": 52, "duration": 2, "velocity": 88}, {"time": 3508, "pitch": 57, "duration": 7, "velocity": 84}, {"time": 3508, "pitch": 61, "duration": 6, "velocity": 84}, {"time": 3508, "pitch": 64, "duration": 9, "velocity": 92}, {"time": 3514, "pitch": 45, "duration": 3, "velocity": 87}, {"time": 3519, "pitch": 59, "duration": 61, "velocity": 75}, {"time": 3520, "pitch": 47, "duration": 59, "velocity": 88}, {"time": 3520, "pitch": 62, "duration": 60, "velocity": 82}, {"time": 3521, "pitch": 66, "duration": 59, "velocity": 76}], "annotations": [{"time": 16, "annotation": {"number": 64, "value": 127}, "group": "control_change"}, {"time": 39, "annotation": {"number": 64, "value": 0}, "group": "control_change"}, {"time": 41, "annotation": {"number": 64, "value": 127}, "group": "control_change"}, {"time": 62, "annotation": {"number": 64, "value": 0}, "group": "control_change"}, {"time": 64, "annotation": {"number": 64, "value": 127}, "group": "control_change"}, {"time": 110, "annotation": {"number": 64, "value": 0}, "group": "control_change"}, {"time": 112, "annotation": {"number": 64, "value": 127}, "group": "control_change"}, {"time": 134, "annotation": {"number": 64, "value": 0}, "group": "control_change"}, {"time": 136, "annotation": {"number": 64, "value": 127}, "group": "control_change"}, {"time": 158, "annotation": {"number": 64, "value": 0}, "group": "control_change"}, {"time": 160, "annotation": {"number": 64, "value": 127}, "group": "control_change"}, {"time": 204, "annotation": {"number": 64, "value": 0}, "group": "control_change"}, {"time": 209, "annotation": {"number": 64, "value": 127}, "group": "control_change"}, {"time": 230, "annotation": {"number": 64, "value": 0}, "group": "control_change"}, {"time": 231, "annotation": {"number": 64, "value": 127}, "group": "control_change"}, {"time": 254, "annotation": {"number": 64, "value": 0}, "group": "control_change"}, {"time": 256, "annotation": {"number": 64, "value": 127}, "group": "control_change"}, {"time": 301, "annotation": {"number": 64, "value": 0}, "group": "control_change"}, {"time": 304, "annotation": {"number": 64, "value": 127}, "group": "control_change"}, {"time": 326, "annotation": {"number": 64, "value": 0}, "group": "control_change"}, {"time": 328, "annotation": {"number": 64, "value": 127}, "group": "control_change"}, {"time": 350, "annotation": {"number": 64, "value": 0}, "group": "control_change"}, {"time": 352, "annotation": {"number": 64, "value": 127}, "group": "control_change"}, {"time": 398, "annotation": {"number": 64, "value": 0}, "group": "control_change"}, {"time": 402, "annotation": {"number": 64, "value": 127}, "group": "control_change"}, {"time": 422, "annotation": {"number": 64, "value": 0}, "group": "control_change"}, {"time": 424, "annotation": {"number": 64, "value": 127}, "group": "control_change"}, {"time": 446, "annotation": {"number": 64, "value": 0}, "group": "control_change"}, {"time": 448, "annotation": {"number": 64, "value": 127}, "group": "control_change"}, {"time": 495, "annotation": {"number": 64, "value": 0}, "group": "control_change"}, {"time": 498, "annotation": {"number": 64, "value": 127}, "group": "control_change"}, {"time": 518, "annotation": {"number": 64, "value": 0}, "group": "control_change"}, {"time": 520, "annotation": {"number": 64, "value": 127}, "group": "control_change"}, {"time": 542, "annotation": {"number": 64, "value": 0}, "group": "control_change"}, {"time": 544, "annotation": {"number": 64, "value": 127}, "group": "control_change"}, {"time": 568, "annotation": {"number": 64, "value": 0}, "group": "control_change"}, {"time": 570, "annotation": {"number": 64, "value": 127}, "group": "control_change"}, {"time": 591, "annotation": {"number": 64, "value": 0}, "group": "control_change"}, {"time": 593, "annotation": {"number": 64, "value": 127}, "group": "control_change"}, {"time": 614, "annotation": {"number": 64, "value": 0}, "group": "control_change"}, {"time": 615, "annotation": {"number": 64, "value": 127}, "group": "control_change"}, {"time": 639, "annotation": {"number": 64, "value": 0}, "group": "control_change"}, {"time": 640, "annotation": {"number": 64, "value": 127}, "group": "control_change"}, {"time": 662, "annotation": {"number": 64, "value": 0}, "group": "control_change"}, {"time": 663, "annotation": {"number": 64, "value": 127}, "group": "control_change"}, {"time": 665, "annotation": {"number": 64, "value": 127}, "group": "control_change"}, {"time": 688, "annotation": {"number": 64, "value": 127}, "group": "control_change"}, {"time": 711, "annotation": {"number": 64, "value": 0}, "group": "control_change"}, {"time": 712, "annotation": {"number": 64, "value": 127}, "group": "control_change"}, {"time": 734, "annotation": {"number": 64, "value": 0}, "group": "control_change"}, {"time": 735, "annotation": {"number": 64, "value": 127}, "group": "control_change"}, {"time": 781, "annotation": {"number": 64, "value": 0}, "group": "control_change"}, {"time": 784, "annotation": {"number": 64, "value": 127}, "group": "control_change"}, {"time": 805, "annotation": {"number": 64, "value": 0}, "group": "control_change"}, {"time": 807, "annotation": {"number": 64, "value": 127}, "group": "control_change"}, {"time": 829, "annotation": {"number": 64, "value": 0}, "group": "control_change"}, {"time": 831, "annotation": {"number": 64, "value": 127}, "group": "control_change"}, {"time": 855, "annotation": {"number": 64, "value": 0}, "group": "control_change"}, {"time": 857, "annotation": {"number": 64, "value": 127}, "group": "control_change"}, {"time": 879, "annotation": {"number": 64, "value": 0}, "group": "control_change"}, {"time": 881, "annotation": {"number": 64, "value": 127}, "group": "control_change"}, {"time": 901, "annotation": {"number": 64, "value": 0}, "group": "control_change"}, {"time": 904, "annotation": {"number": 64, "value": 127}, "group": "control_change"}, {"time": 925, "annotation": {"number": 64, "value": 0}, "group": "control_change"}, {"time": 927, "annotation": {"number": 64, "value": 127}, "group": "control_change"}, {"time": 964, "annotation": {"number": 64, "value": 0}, "group": "control_change"}, {"time": 966, "annotation": {"number": 64, "value": 127}, "group": "control_change"}, {"time": 973, "annotation": {"number": 64, "value": 0}, "group": "control_change"}, {"time": 975, "annotation": {"number": 64, "value": 127}, "group": "control_change"}, {"time": 998, "annotation": {"number": 64, "value": 0}, "group": "control_change"}, {"time": 999, "annotation": {"number": 64, "value": 127}, "group": "control_change"}, {"time": 1022, "annotation": {"number": 64, "value": 0}, "group": "control_change"}, {"time": 1024, "annotation": {"number": 64, "value": 127}, "group": "control_change"}, {"time": 1070, "annotation": {"number": 64, "value": 0}, "group": "control_change"}, {"time": 1072, "annotation": {"number": 64, "value": 127}, "group": "control_change"}, {"time": 1119, "annotation": {"number": 64, "value": 0}, "group": "control_change"}, {"time": 1120, "annotation": {"number": 64, "value": 127}, "group": "control_change"}, {"time": 1163, "annotation": {"number": 64, "value": 0}, "group": "control_change"}, {"time": 1169, "annotation": {"number": 64, "value": 127}, "group": "control_change"}, {"time": 1190, "annotation": {"number": 64, "value": 0}, "group": "control_change"}, {"time": 1191, "annotation": {"number": 64, "value": 127}, "group": "control_change"}, {"time": 1214, "annotation": {"number": 64, "value": 0}, "group": "control_change"}, {"time": 1216, "annotation": {"number": 64, "value": 127}, "group": "control_change"}, {"time": 1261, "annotation": {"number": 64, "value": 0}, "group": "control_change"}, {"time": 1264, "annotation": {"number": 64, "value": 127}, "group": "control_change"}, {"time": 1286, "annotation": {"number": 64, "value": 0}, "group": "control_change"}, {"time": 1288, "annotation": {"number": 64, "value": 127}, "group": "control_change"}, {"time": 1310, "annotation": {"number": 64, "value": 0}, "group": "control_change"}, {"time": 1312, "annotation": {"number": 64, "value": 127}, "group": "control_change"}, {"time": 1358, "annotation": {"number": 64, "value": 0}, "group": "control_change"}, {"time": 1362, "annotation": {"number": 64, "value": 127}, "group": "control_change"}, {"time": 1382, "annotation": {"number": 64, "value": 0}, "group": "control_change"}, {"time": 1384, "annotation": {"number": 64, "value": 127}, "group": "control_change"}, {"time": 1406, "annotation": {"number": 64, "value": 0}, "group": "control_change"}, {"time": 1408, "annotation": {"number": 64, "value": 127}, "group": "control_change"}, {"time": 1455, "annotation": {"number": 64, "value": 0}, "group": "control_change"}, {"time": 1458, "annotation": {"number": 64, "value": 127}, "group": "control_change"}, {"time": 1478, "annotation": {"number": 64, "value": 0}, "group": "control_change"}, {"time": 1480, "annotation": {"number": 64, "value": 127}, "group": "control_change"}, {"time": 1502, "annotation": {"number": 64, "value": 0}, "group": "control_change"}, {"time": 1504, "annotation": {"number": 64, "value": 127}, "group": "control_change"}, {"time": 1528, "annotation": {"number": 64, "value": 0}, "group": "control_change"}, {"time": 1530, "annotation": {"number": 64, "value": 127}, "group": "control_change"}, {"time": 1551, "annotation": {"number": 64, "value": 0}, "group": "control_change"}, {"time": 1553, "annotation": {"number": 64, "value": 127}, "group": "control_change"}, {"time": 1574, "annotation": {"number": 64, "value": 0}, "group": "control_change"}, {"time": 1575, "annotation": {"number": 64, "value": 127}, "group": "control_change"}, {"time": 1599, "annotation": {"number": 64, "value": 0}, "group": "control_change"}, {"time": 1600, "annotation": {"number": 64, "value": 127}, "group": "control_change"}, {"time": 1622, "annotation": {"number": 64, "value": 0}, "group": "control_change"}, {"time": 1623, "annotation": {"number": 64, "value": 127}, "group": "control_change"}, {"time": 1625, "annotation": {"number": 64, "value": 127}, "group": "control_change"}, {"time": 1648, "annotation": {"number": 64, "value": 127}, "group": "control_change"}, {"time": 1671, "annotation": {"number": 64, "value": 0}, "group": "control_change"}, {"time": 1672, "annotation": {"number": 64, "value": 127}, "group": "control_change"}, {"time": 1694, "annotation": {"number": 64, "value": 0}, "group": "control_change"}, {"time": 1695, "annotation": {"number": 64, "value": 127}, "group": "control_change"}, {"time": 1741, "annotation": {"number": 64, "value": 0}, "group": "control_change"}, {"time": 1744, "annotation": {"number": 64, "value": 127}, "group": "control_change"}, {"time": 1765, "annotation": {"number": 64, "value": 0}, "group": "control_change"}, {"time": 1767, "annotation": {"number": 64, "value": 127}, "group": "control_change"}, {"time": 1789, "annotation": {"number": 64, "value": 0}, "group": "control_change"}, {"time": 1791, "annotation": {"number": 64, "value": 127}, "group": "control_change"}, {"time": 1815, "annotation": {"number": 64, "value": 0}, "group": "control_change"}, {"time": 1817, "annotation": {"number": 64, "value": 127}, "group": "control_change"}, {"time": 1839, "annotation": {"number": 64, "value": 0}, "group": "control_change"}, {"time": 1841, "annotation": {"number": 64, "value": 127}, "group": "control_change"}, {"time": 1861, "annotation": {"number": 64, "value": 0}, "group": "control_change"}, {"time": 1864, "annotation": {"number": 64, "value": 127}, "group": "control_change"}, {"time": 1885, "annotation": {"number": 64, "value": 0}, "group": "control_change"}, {"time": 1887, "annotation": {"number": 64, "value": 127}, "group": "control_change"}, {"time": 1924, "annotation": {"number": 64, "value": 0}, "group": "control_change"}, {"time": 1926, "annotation": {"number": 64, "value": 127}, "group": "control_change"}, {"time": 1933, "annotation": {"number": 64, "value": 0}, "group": "control_change"}, {"time": 1935, "annotation": {"number": 64, "value": 127}, "group": "control_change"}, {"time": 1958, "annotation": {"number": 64, "value": 0}, "group": "control_change"}, {"time": 1959, "annotation": {"number": 64, "value": 127}, "group": "control_change"}, {"time": 1982, "annotation": {"number": 64, "value": 0}, "group": "control_change"}, {"time": 1984, "annotation": {"number": 64, "value": 127}, "group": "control_change"}, {"time": 2030, "annotation": {"number": 64, "value": 0}, "group": "control_change"}, {"time": 2032, "annotation": {"number": 64, "value": 127}, "group": "control_change"}, {"time": 2079, "annotation": {"number": 64, "value": 0}, "group": "control_change"}, {"time": 2080, "annotation": {"number": 64, "value": 127}, "group": "control_change"}, {"time": 2105, "annotation": {"number": 64, "value": 127}, "group": "control_change"}, {"time": 2127, "annotation": {"number": 64, "value": 0}, "group": "control_change"}, {"time": 2129, "annotation": {"number": 64, "value": 127}, "group": "control_change"}, {"time": 2151, "annotation": {"number": 64, "value": 0}, "group": "control_change"}, {"time": 2153, "annotation": {"number": 64, "value": 127}, "group": "control_change"}, {"time": 2175, "annotation": {"number": 64, "value": 0}, "group": "control_change"}, {"time": 2177, "annotation": {"number": 64, "value": 127}, "group": "control_change"}, {"time": 2207, "annotation": {"number": 64, "value": 0}, "group": "control_change"}, {"time": 2212, "annotation": {"number": 64, "value": 127}, "group": "control_change"}, {"time": 2220, "annotation": {"number": 64, "value": 0}, "group": "control_change"}, {"time": 2225, "annotation": {"number": 64, "value": 127}, "group": "control_change"}, {"time": 2225, "annotation": {"number": 64, "value": 0}, "group": "control_change"}, {"time": 2271, "annotation": {"number": 64, "value": 0}, "group": "control_change"}, {"time": 2271, "annotation": {"number": 64, "value": 127}, "group": "control_change"}, {"time": 2318, "annotation": {"number": 64, "value": 0}, "group": "control_change"}, {"time": 2320, "annotation": {"number": 64, "value": 127}, "group": "control_change"}, {"time": 2344, "annotation": {"number": 64, "value": 0}, "group": "control_change"}, {"time": 2344, "annotation": {"number": 64, "value": 127}, "group": "control_change"}, {"time": 2366, "annotation": {"number": 64, "value": 0}, "group": "control_change"}, {"time": 2368, "annotation": {"number": 64, "value": 127}, "group": "control_change"}, {"time": 2391, "annotation": {"number": 64, "value": 0}, "group": "control_change"}, {"time": 2391, "annotation": {"number": 64, "value": 127}, "group": "control_change"}, {"time": 2412, "annotation": {"number": 64, "value": 0}, "group": "control_change"}, {"time": 2437, "annotation": {"number": 64, "value": 0}, "group": "control_change"}, {"time": 2439, "annotation": {"number": 64, "value": 127}, "group": "control_change"}, {"time": 2461, "annotation": {"number": 64, "value": 0}, "group": "control_change"}, {"time": 2463, "annotation": {"number": 64, "value": 127}, "group": "control_change"}, {"time": 2487, "annotation": {"number": 64, "value": 0}, "group": "control_change"}, {"time": 2489, "annotation": {"number": 64, "value": 127}, "group": "control_change"}, {"time": 2511, "annotation": {"number": 64, "value": 0}, "group": "control_change"}, {"time": 2513, "annotation": {"number": 64, "value": 127}, "group": "control_change"}, {"time": 2533, "annotation": {"number": 64, "value": 0}, "group": "control_change"}, {"time": 2536, "annotation": {"number": 64, "value": 127}, "group": "control_change"}, {"time": 2557, "annotation": {"number": 64, "value": 0}, "group": "control_change"}, {"time": 2559, "annotation": {"number": 64, "value": 127}, "group": "control_change"}, {"time": 2596, "annotation": {"number": 64, "value": 0}, "group": "control_change"}, {"time": 2598, "annotation": {"number": 64, "value": 127}, "group": "control_change"}, {"time": 2605, "annotation": {"number": 64, "value": 0}, "group": "control_change"}, {"time": 2607, "annotation": {"number": 64, "value": 127}, "group": "control_change"}, {"time": 2630, "annotation": {"number": 64, "value": 0}, "group": "control_change"}, {"time": 2631, "annotation": {"number": 64, "value": 127}, "group": "control_change"}, {"time": 2654, "annotation": {"number": 64, "value": 0}, "group": "control_change"}, {"time": 2656, "annotation": {"number": 64, "value": 127}, "group": "control_change"}, {"time": 2702, "annotation": {"number": 64, "value": 0}, "group": "control_change"}, {"time": 2704, "annotation": {"number": 64, "value": 127}, "group": "control_change"}, {"time": 2751, "annotation": {"number": 64, "value": 0}, "group": "control_change"}, {"time": 2752, "annotation": {"number": 64, "value": 127}, "group": "control_change"}, {"time": 2777, "annotation": {"number": 64, "value": 127}, "group": "control_change"}, {"time": 2799, "annotation": {"number": 64, "value": 0}, "group": "control_change"}, {"time": 2821, "annotation": {"number": 64, "value": 0}, "group": "control_change"}, {"time": 2823, "annotation": {"number": 64, "value": 127}, "group": "control_change"}, {"time": 2845, "annotation": {"number": 64, "value": 0}, "group": "control_change"}, {"time": 2847, "annotation": {"number": 64, "value": 127}, "group": "control_change"}, {"time": 2871, "annotation": {"number": 64, "value": 0}, "group": "control_change"}, {"time": 2873, "annotation": {"number": 64, "value": 127}, "group": "control_change"}, {"time": 2895, "annotation": {"number": 64, "value": 0}, "group": "control_change"}, {"time": 2897, "annotation": {"number": 64, "value": 127}, "group": "control_change"}, {"time": 2917, "annotation": {"number": 64, "value": 0}, "group": "control_change"}, {"time": 2920, "annotation": {"number": 64, "value": 127}, "group": "control_change"}, {"time": 2941, "annotation": {"number": 64, "value": 0}, "group": "control_change"}, {"time": 2943, "annotation": {"number": 64, "value": 127}, "group": "control_change"}, {"time": 2980, "annotation": {"number": 64, "value": 0}, "group": "control_change"}, {"time": 2982, "annotation": {"number": 64, "value": 127}, "group": "control_change"}, {"time": 2989, "annotation": {"number": 64, "value": 0}, "group": "control_change"}, {"time": 2991, "annotation": {"number": 64, "value": 127}, "group": "control_change"}, {"time": 3014, "annotation": {"number": 64, "value": 0}, "group": "control_change"}, {"time": 3015, "annotation": {"number": 64, "value": 127}, "group": "control_change"}, {"time": 3038, "annotation": {"number": 64, "value": 0}, "group": "control_change"}, {"time": 3040, "annotation": {"number": 64, "value": 127}, "group": "control_change"}, {"time": 3086, "annotation": {"number": 64, "value": 0}, "group": "control_change"}, {"time": 3088, "annotation": {"number": 64, "value": 127}, "group": "control_change"}, {"time": 3135, "annotation": {"number": 64, "value": 0}, "group": "control_change"}, {"time": 3136, "annotation": {"number": 64, "value": 127}, "group": "control_change"}, {"time": 3161, "annotation": {"number": 64, "value": 127}, "group": "control_change"}, {"time": 3183, "annotation": {"number": 64, "value": 0}, "group": "control_change"}, {"time": 3207, "annotation": {"number": 64, "value": 0}, "group": "control_change"}, {"time": 3209, "annotation": {"number": 64, "value": 127}, "group": "control_change"}, {"time": 3230, "annotation": {"number": 64, "value": 0}, "group": "control_change"}, {"time": 3232, "annotation": {"number": 64, "value": 127}, "group": "control_change"}, {"time": 3278, "annotation": {"number": 64, "value": 0}, "group": "control_change"}, {"time": 3280, "annotation": {"number": 64, "value": 127}, "group": "control_change"}, {"time": 3302, "annotation": {"number": 64, "value": 0}, "group": "control_change"}, {"time": 3304, "annotation": {"number": 64, "value": 127}, "group": "control_change"}, {"time": 3326, "annotation": {"number": 64, "value": 0}, "group": "control_change"}, {"time": 3328, "annotation": {"number": 64, "value": 127}, "group": "control_change"}, {"time": 3372, "annotation": {"number": 64, "value": 0}, "group": "control_change"}, {"time": 3377, "annotation": {"number": 64, "value": 127}, "group": "control_change"}, {"time": 3398, "annotation": {"number": 64, "value": 0}, "group": "control_change"}, {"time": 3399, "annotation": {"number": 64, "value": 127}, "group": "control_change"}, {"time": 3422, "annotation": {"number": 64, "value": 0}, "group": "control_change"}, {"time": 3424, "annotation": {"number": 64, "value": 127}, "group": "control_change"}, {"time": 3469, "annotation": {"number": 64, "value": 0}, "group": "control_change"}, {"time": 3472, "annotation": {"number": 64, "value": 127}, "group": "control_change"}, {"time": 3494, "annotation": {"number": 64, "value": 0}, "group": "control_change"}, {"time": 3496, "annotation": {"number": 64, "value": 127}, "group": "control_change"}, {"time": 3518, "annotation": {"number": 64, "value": 0}, "group": "control_change"}, {"time": 3520, "annotation": {"number": 64, "value": 127}, "group": "control_change"}, {"time": 3583, "annotation": {"number": 64, "value": 0}, "group": "control_change"}]}]}