{"metadata": {"schema_version": "0.2", "title": "None", "source_filename": "714.mid", "source_format": "midi"}, "resolution": 12, "tempos": [{"time": 0, "qpm": 112.00026880064512}], "time_signatures": [{"time": 0, "numerator": 1, "denominator": 4}], "tracks": [{"program": 4, "is_drum": false, "name": "MELODY", "notes": [{"time": 368, "pitch": 67, "duration": 10, "velocity": 85}, {"time": 380, "pitch": 69, "duration": 11, "velocity": 84}, {"time": 392, "pitch": 74, "duration": 10, "velocity": 88}, {"time": 404, "pitch": 72, "duration": 4, "velocity": 73}, {"time": 410, "pitch": 74, "duration": 9, "velocity": 84}, {"time": 422, "pitch": 72, "duration": 10, "velocity": 85}, {"time": 434, "pitch": 74, "duration": 25, "velocity": 90}, {"time": 464, "pitch": 67, "duration": 9, "velocity": 84}, {"time": 476, "pitch": 69, "duration": 9, "velocity": 84}, {"time": 488, "pitch": 74, "duration": 9, "velocity": 91}, {"time": 500, "pitch": 72, "duration": 4, "velocity": 78}, {"time": 506, "pitch": 74, "duration": 9, "velocity": 84}, {"time": 518, "pitch": 76, "duration": 18, "velocity": 84}, {"time": 536, "pitch": 74, "duration": 22, "velocity": 91}, {"time": 560, "pitch": 67, "duration": 9, "velocity": 84}, {"time": 572, "pitch": 69, "duration": 9, "velocity": 84}, {"time": 584, "pitch": 74, "duration": 9, "velocity": 80}, {"time": 596, "pitch": 72, "duration": 4, "velocity": 80}, {"time": 602, "pitch": 72, "duration": 12, "velocity": 81}, {"time": 614, "pitch": 69, "duration": 14, "velocity": 85}, {"time": 632, "pitch": 74, "duration": 10, "velocity": 87}, {"time": 644, "pitch": 76, "duration": 4, "velocity": 82}, {"time": 650, "pitch": 74, "duration": 11, "velocity": 85}, {"time": 662, "pitch": 72, "duration": 15, "velocity": 81}, {"time": 680, "pitch": 74, "duration": 9, "velocity": 84}, {"time": 692, "pitch": 72, "duration": 4, "velocity": 80}, {"time": 698, "pitch": 72, "duration": 11, "velocity": 82}, {"time": 710, "pitch": 69, "duration": 17, "velocity": 84}, {"time": 728, "pitch": 67, "duration": 22, "velocity": 82}, {"time": 752, "pitch": 67, "duration": 10, "velocity": 85}, {"time": 764, "pitch": 69, "duration": 11, "velocity": 84}, {"time": 776, "pitch": 74, "duration": 10, "velocity": 88}, {"time": 788, "pitch": 72, "duration": 4, "velocity": 73}, {"time": 794, "pitch": 74, "duration": 9, "velocity": 84}, {"time": 806, "pitch": 72, "duration": 10, "velocity": 85}, {"time": 818, "pitch": 74, "duration": 25, "velocity": 90}, {"time": 848, "pitch": 67, "duration": 9, "velocity": 84}, {"time": 860, "pitch": 69, "duration": 9, "velocity": 84}, {"time": 872, "pitch": 74, "duration": 9, "velocity": 91}, {"time": 884, "pitch": 72, "duration": 4, "velocity": 78}, {"time": 890, "pitch": 74, "duration": 9, "velocity": 84}, {"time": 902, "pitch": 76, "duration": 18, "velocity": 84}, {"time": 920, "pitch": 74, "duration": 22, "velocity": 91}, {"time": 944, "pitch": 67, "duration": 9, "velocity": 84}, {"time": 956, "pitch": 69, "duration": 9, "velocity": 84}, {"time": 968, "pitch": 74, "duration": 9, "velocity": 80}, {"time": 980, "pitch": 72, "duration": 4, "velocity": 80}, {"time": 986, "pitch": 72, "duration": 12, "velocity": 81}, {"time": 998, "pitch": 69, "duration": 14, "velocity": 85}, {"time": 1016, "pitch": 74, "duration": 10, "velocity": 87}, {"time": 1028, "pitch": 76, "duration": 4, "velocity": 82}, {"time": 1034, "pitch": 74, "duration": 11, "velocity": 85}, {"time": 1046, "pitch": 72, "duration": 15, "velocity": 81}, {"time": 1064, "pitch": 81, "duration": 9, "velocity": 84}, {"time": 1076, "pitch": 79, "duration": 4, "velocity": 80}, {"time": 1082, "pitch": 79, "duration": 11, "velocity": 82}, {"time": 1094, "pitch": 76, "duration": 17, "velocity": 84}, {"time": 1112, "pitch": 74, "duration": 22, "velocity": 82}, {"time": 1136, "pitch": 72, "duration": 10, "velocity": 86}, {"time": 1148, "pitch": 74, "duration": 10, "velocity": 90}, {"time": 1160, "pitch": 79, "duration": 25, "velocity": 84}, {"time": 1184, "pitch": 72, "duration": 10, "velocity": 83}, {"time": 1196, "pitch": 74, "duration": 5, "velocity": 85}, {"time": 1202, "pitch": 76, "duration": 24, "velocity": 80}, {"time": 1232, "pitch": 76, "duration": 5, "velocity": 85}, {"time": 1238, "pitch": 74, "duration": 3, "velocity": 87}, {"time": 1244, "pitch": 74, "duration": 5, "velocity": 86}, {"time": 1250, "pitch": 72, "duration": 5, "velocity": 85}, {"time": 1256, "pitch": 76, "duration": 9, "velocity": 88}, {"time": 1268, "pitch": 84, "duration": 9, "velocity": 85}, {"time": 1280, "pitch": 83, "duration": 9, "velocity": 86}, {"time": 1292, "pitch": 81, "duration": 5, "velocity": 78}, {"time": 1298, "pitch": 76, "duration": 26, "velocity": 87}, {"time": 1328, "pitch": 83, "duration": 8, "velocity": 85}, {"time": 1337, "pitch": 81, "duration": 7, "velocity": 85}, {"time": 1346, "pitch": 79, "duration": 7, "velocity": 81}, {"time": 1352, "pitch": 81, "duration": 20, "velocity": 83}, {"time": 1376, "pitch": 81, "duration": 7, "velocity": 85}, {"time": 1385, "pitch": 79, "duration": 8, "velocity": 85}, {"time": 1394, "pitch": 77, "duration": 6, "velocity": 80}, {"time": 1400, "pitch": 79, "duration": 19, "velocity": 84}, {"time": 1424, "pitch": 76, "duration": 6, "velocity": 84}, {"time": 1430, "pitch": 74, "duration": 5, "velocity": 88}, {"time": 1436, "pitch": 72, "duration": 5, "velocity": 85}, {"time": 1442, "pitch": 74, "duration": 16, "velocity": 91}, {"time": 1460, "pitch": 72, "duration": 11, "velocity": 84}, {"time": 1472, "pitch": 69, "duration": 9, "velocity": 87}, {"time": 1481, "pitch": 76, "duration": 9, "velocity": 84}, {"time": 1490, "pitch": 74, "duration": 6, "velocity": 85}, {"time": 1496, "pitch": 74, "duration": 21, "velocity": 81}, {"time": 1521, "pitch": 72, "duration": 10, "velocity": 86}, {"time": 1533, "pitch": 74, "duration": 9, "velocity": 90}, {"time": 1545, "pitch": 79, "duration": 24, "velocity": 84}, {"time": 1569, "pitch": 72, "duration": 9, "velocity": 83}, {"time": 1581, "pitch": 74, "duration": 4, "velocity": 85}, {"time": 1587, "pitch": 76, "duration": 23, "velocity": 80}, {"time": 1617, "pitch": 76, "duration": 5, "velocity": 85}, {"time": 1623, "pitch": 74, "duration": 3, "velocity": 87}, {"time": 1629, "pitch": 74, "duration": 5, "velocity": 86}, {"time": 1635, "pitch": 72, "duration": 5, "velocity": 85}, {"time": 1641, "pitch": 76, "duration": 8, "velocity": 88}, {"time": 1653, "pitch": 84, "duration": 9, "velocity": 85}, {"time": 1665, "pitch": 83, "duration": 8, "velocity": 86}, {"time": 1676, "pitch": 84, "duration": 5, "velocity": 78}, {"time": 1682, "pitch": 81, "duration": 26, "velocity": 87}, {"time": 1712, "pitch": 81, "duration": 10, "velocity": 85}, {"time": 1724, "pitch": 88, "duration": 10, "velocity": 73}, {"time": 1736, "pitch": 86, "duration": 10, "velocity": 86}, {"time": 1748, "pitch": 83, "duration": 10, "velocity": 85}, {"time": 1760, "pitch": 79, "duration": 12, "velocity": 84}, {"time": 1772, "pitch": 76, "duration": 12, "velocity": 84}, {"time": 1784, "pitch": 81, "duration": 24, "velocity": 75}, {"time": 1808, "pitch": 76, "duration": 5, "velocity": 82}, {"time": 1814, "pitch": 74, "duration": 5, "velocity": 87}, {"time": 1820, "pitch": 72, "duration": 4, "velocity": 84}, {"time": 1826, "pitch": 74, "duration": 17, "velocity": 88}, {"time": 1844, "pitch": 81, "duration": 9, "velocity": 84}, {"time": 1856, "pitch": 81, "duration": 10, "velocity": 85}, {"time": 1868, "pitch": 79, "duration": 13, "velocity": 84}, {"time": 1880, "pitch": 74, "duration": 9, "velocity": 84}, {"time": 1892, "pitch": 76, "duration": 19, "velocity": 90}, {"time": 1916, "pitch": 74, "duration": 9, "velocity": 88}, {"time": 1928, "pitch": 72, "duration": 46, "velocity": 82}, {"time": 2288, "pitch": 67, "duration": 10, "velocity": 85}, {"time": 2300, "pitch": 69, "duration": 11, "velocity": 84}, {"time": 2312, "pitch": 74, "duration": 10, "velocity": 88}, {"time": 2324, "pitch": 72, "duration": 4, "velocity": 73}, {"time": 2330, "pitch": 74, "duration": 9, "velocity": 84}, {"time": 2342, "pitch": 72, "duration": 10, "velocity": 85}, {"time": 2354, "pitch": 74, "duration": 25, "velocity": 90}, {"time": 2384, "pitch": 67, "duration": 9, "velocity": 84}, {"time": 2396, "pitch": 69, "duration": 9, "velocity": 84}, {"time": 2408, "pitch": 74, "duration": 9, "velocity": 91}, {"time": 2420, "pitch": 72, "duration": 4, "velocity": 78}, {"time": 2426, "pitch": 74, "duration": 9, "velocity": 84}, {"time": 2438, "pitch": 76, "duration": 18, "velocity": 84}, {"time": 2456, "pitch": 74, "duration": 22, "velocity": 91}, {"time": 2480, "pitch": 67, "duration": 9, "velocity": 84}, {"time": 2492, "pitch": 69, "duration": 9, "velocity": 84}, {"time": 2504, "pitch": 74, "duration": 9, "velocity": 80}, {"time": 2516, "pitch": 72, "duration": 4, "velocity": 80}, {"time": 2522, "pitch": 72, "duration": 12, "velocity": 81}, {"time": 2534, "pitch": 69, "duration": 14, "velocity": 85}, {"time": 2552, "pitch": 74, "duration": 10, "velocity": 87}, {"time": 2564, "pitch": 76, "duration": 4, "velocity": 82}, {"time": 2570, "pitch": 74, "duration": 11, "velocity": 85}, {"time": 2582, "pitch": 72, "duration": 15, "velocity": 81}, {"time": 2600, "pitch": 74, "duration": 9, "velocity": 84}, {"time": 2612, "pitch": 72, "duration": 4, "velocity": 80}, {"time": 2618, "pitch": 72, "duration": 11, "velocity": 82}, {"time": 2630, "pitch": 69, "duration": 17, "velocity": 84}, {"time": 2648, "pitch": 67, "duration": 22, "velocity": 82}, {"time": 2672, "pitch": 67, "duration": 10, "velocity": 85}, {"time": 2684, "pitch": 69, "duration": 11, "velocity": 84}, {"time": 2696, "pitch": 74, "duration": 10, "velocity": 88}, {"time": 2708, "pitch": 72, "duration": 4, "velocity": 73}, {"time": 2714, "pitch": 74, "duration": 9, "velocity": 84}, {"time": 2726, "pitch": 72, "duration": 10, "velocity": 85}, {"time": 2738, "pitch": 74, "duration": 25, "velocity": 90}, {"time": 2768, "pitch": 67, "duration": 9, "velocity": 84}, {"time": 2780, "pitch": 69, "duration": 9, "velocity": 84}, {"time": 2792, "pitch": 74, "duration": 9, "velocity": 91}, {"time": 2804, "pitch": 72, "duration": 4, "velocity": 78}, {"time": 2810, "pitch": 74, "duration": 9, "velocity": 84}, {"time": 2822, "pitch": 76, "duration": 18, "velocity": 84}, {"time": 2840, "pitch": 74, "duration": 22, "velocity": 91}, {"time": 2864, "pitch": 67, "duration": 9, "velocity": 84}, {"time": 2876, "pitch": 69, "duration": 9, "velocity": 84}, {"time": 2888, "pitch": 74, "duration": 9, "velocity": 80}, {"time": 2900, "pitch": 72, "duration": 4, "velocity": 80}, {"time": 2906, "pitch": 72, "duration": 12, "velocity": 81}, {"time": 2918, "pitch": 69, "duration": 14, "velocity": 85}, {"time": 2936, "pitch": 74, "duration": 10, "velocity": 87}, {"time": 2948, "pitch": 76, "duration": 4, "velocity": 82}, {"time": 2954, "pitch": 74, "duration": 11, "velocity": 85}, {"time": 2966, "pitch": 72, "duration": 15, "velocity": 81}, {"time": 2984, "pitch": 81, "duration": 9, "velocity": 84}, {"time": 2996, "pitch": 79, "duration": 4, "velocity": 80}, {"time": 3002, "pitch": 79, "duration": 11, "velocity": 82}, {"time": 3014, "pitch": 76, "duration": 17, "velocity": 84}, {"time": 3032, "pitch": 74, "duration": 22, "velocity": 82}, {"time": 3104, "pitch": 72, "duration": 10, "velocity": 86}, {"time": 3116, "pitch": 74, "duration": 10, "velocity": 90}, {"time": 3128, "pitch": 79, "duration": 25, "velocity": 84}, {"time": 3152, "pitch": 72, "duration": 10, "velocity": 83}, {"time": 3164, "pitch": 74, "duration": 5, "velocity": 85}, {"time": 3170, "pitch": 76, "duration": 24, "velocity": 80}, {"time": 3200, "pitch": 76, "duration": 5, "velocity": 85}, {"time": 3206, "pitch": 74, "duration": 3, "velocity": 87}, {"time": 3212, "pitch": 74, "duration": 5, "velocity": 86}, {"time": 3218, "pitch": 72, "duration": 5, "velocity": 85}, {"time": 3224, "pitch": 76, "duration": 9, "velocity": 88}, {"time": 3236, "pitch": 84, "duration": 9, "velocity": 85}, {"time": 3248, "pitch": 83, "duration": 9, "velocity": 86}, {"time": 3260, "pitch": 81, "duration": 5, "velocity": 78}, {"time": 3266, "pitch": 76, "duration": 26, "velocity": 87}, {"time": 3296, "pitch": 83, "duration": 8, "velocity": 85}, {"time": 3305, "pitch": 81, "duration": 7, "velocity": 85}, {"time": 3314, "pitch": 79, "duration": 7, "velocity": 81}, {"time": 3320, "pitch": 81, "duration": 20, "velocity": 83}, {"time": 3344, "pitch": 81, "duration": 7, "velocity": 85}, {"time": 3353, "pitch": 79, "duration": 8, "velocity": 85}, {"time": 3362, "pitch": 77, "duration": 6, "velocity": 80}, {"time": 3368, "pitch": 79, "duration": 19, "velocity": 84}, {"time": 3392, "pitch": 76, "duration": 6, "velocity": 84}, {"time": 3398, "pitch": 74, "duration": 5, "velocity": 88}, {"time": 3404, "pitch": 72, "duration": 5, "velocity": 85}, {"time": 3410, "pitch": 74, "duration": 16, "velocity": 91}, {"time": 3428, "pitch": 72, "duration": 11, "velocity": 84}, {"time": 3440, "pitch": 69, "duration": 9, "velocity": 87}, {"time": 3449, "pitch": 76, "duration": 9, "velocity": 84}, {"time": 3458, "pitch": 74, "duration": 6, "velocity": 85}, {"time": 3464, "pitch": 74, "duration": 21, "velocity": 81}, {"time": 3489, "pitch": 72, "duration": 10, "velocity": 86}, {"time": 3501, "pitch": 74, "duration": 9, "velocity": 90}, {"time": 3513, "pitch": 79, "duration": 24, "velocity": 84}, {"time": 3537, "pitch": 72, "duration": 9, "velocity": 83}, {"time": 3549, "pitch": 74, "duration": 4, "velocity": 85}, {"time": 3555, "pitch": 76, "duration": 23, "velocity": 80}, {"time": 3585, "pitch": 76, "duration": 5, "velocity": 85}, {"time": 3591, "pitch": 74, "duration": 3, "velocity": 87}, {"time": 3597, "pitch": 74, "duration": 5, "velocity": 86}, {"time": 3603, "pitch": 72, "duration": 5, "velocity": 85}, {"time": 3609, "pitch": 76, "duration": 8, "velocity": 88}, {"time": 3621, "pitch": 84, "duration": 9, "velocity": 85}, {"time": 3633, "pitch": 83, "duration": 8, "velocity": 86}, {"time": 3644, "pitch": 84, "duration": 5, "velocity": 78}, {"time": 3650, "pitch": 81, "duration": 26, "velocity": 87}, {"time": 3680, "pitch": 81, "duration": 10, "velocity": 85}, {"time": 3692, "pitch": 88, "duration": 10, "velocity": 73}, {"time": 3704, "pitch": 86, "duration": 10, "velocity": 86}, {"time": 3716, "pitch": 83, "duration": 10, "velocity": 85}, {"time": 3728, "pitch": 79, "duration": 12, "velocity": 84}, {"time": 3740, "pitch": 76, "duration": 12, "velocity": 84}, {"time": 3752, "pitch": 81, "duration": 24, "velocity": 75}, {"time": 3776, "pitch": 76, "duration": 5, "velocity": 82}, {"time": 3782, "pitch": 74, "duration": 5, "velocity": 87}, {"time": 3788, "pitch": 72, "duration": 4, "velocity": 84}, {"time": 3794, "pitch": 74, "duration": 17, "velocity": 88}, {"time": 3812, "pitch": 81, "duration": 9, "velocity": 84}, {"time": 3824, "pitch": 81, "duration": 10, "velocity": 85}, {"time": 3836, "pitch": 79, "duration": 13, "velocity": 84}, {"time": 3848, "pitch": 74, "duration": 9, "velocity": 84}, {"time": 3860, "pitch": 76, "duration": 19, "velocity": 90}, {"time": 3884, "pitch": 74, "duration": 9, "velocity": 88}, {"time": 3896, "pitch": 72, "duration": 46, "velocity": 82}, {"time": 4208, "pitch": 72, "duration": 10, "velocity": 86}, {"time": 4220, "pitch": 74, "duration": 10, "velocity": 90}, {"time": 4232, "pitch": 79, "duration": 25, "velocity": 84}, {"time": 4256, "pitch": 72, "duration": 10, "velocity": 83}, {"time": 4268, "pitch": 74, "duration": 5, "velocity": 85}, {"time": 4274, "pitch": 76, "duration": 24, "velocity": 80}, {"time": 4304, "pitch": 76, "duration": 5, "velocity": 85}, {"time": 4310, "pitch": 74, "duration": 3, "velocity": 87}, {"time": 4316, "pitch": 74, "duration": 5, "velocity": 86}, {"time": 4322, "pitch": 72, "duration": 5, "velocity": 85}, {"time": 4328, "pitch": 76, "duration": 9, "velocity": 88}, {"time": 4340, "pitch": 84, "duration": 9, "velocity": 85}, {"time": 4352, "pitch": 83, "duration": 9, "velocity": 86}, {"time": 4364, "pitch": 81, "duration": 5, "velocity": 78}, {"time": 4370, "pitch": 76, "duration": 26, "velocity": 87}, {"time": 4400, "pitch": 83, "duration": 8, "velocity": 85}, {"time": 4409, "pitch": 81, "duration": 7, "velocity": 85}, {"time": 4418, "pitch": 79, "duration": 7, "velocity": 81}, {"time": 4424, "pitch": 81, "duration": 20, "velocity": 83}, {"time": 4448, "pitch": 81, "duration": 7, "velocity": 85}, {"time": 4457, "pitch": 79, "duration": 8, "velocity": 85}, {"time": 4466, "pitch": 77, "duration": 6, "velocity": 80}, {"time": 4472, "pitch": 79, "duration": 19, "velocity": 84}, {"time": 4496, "pitch": 76, "duration": 6, "velocity": 84}, {"time": 4502, "pitch": 74, "duration": 5, "velocity": 88}, {"time": 4508, "pitch": 72, "duration": 5, "velocity": 85}, {"time": 4514, "pitch": 74, "duration": 16, "velocity": 91}, {"time": 4532, "pitch": 72, "duration": 11, "velocity": 84}, {"time": 4544, "pitch": 69, "duration": 9, "velocity": 87}, {"time": 4553, "pitch": 76, "duration": 9, "velocity": 84}, {"time": 4562, "pitch": 74, "duration": 6, "velocity": 85}, {"time": 4568, "pitch": 74, "duration": 21, "velocity": 81}, {"time": 4593, "pitch": 72, "duration": 10, "velocity": 86}, {"time": 4605, "pitch": 74, "duration": 9, "velocity": 90}, {"time": 4617, "pitch": 79, "duration": 24, "velocity": 84}, {"time": 4641, "pitch": 72, "duration": 9, "velocity": 83}, {"time": 4653, "pitch": 74, "duration": 4, "velocity": 85}, {"time": 4659, "pitch": 76, "duration": 23, "velocity": 80}, {"time": 4689, "pitch": 76, "duration": 5, "velocity": 85}, {"time": 4695, "pitch": 74, "duration": 3, "velocity": 87}, {"time": 4701, "pitch": 74, "duration": 5, "velocity": 86}, {"time": 4707, "pitch": 72, "duration": 5, "velocity": 85}, {"time": 4713, "pitch": 76, "duration": 8, "velocity": 88}, {"time": 4725, "pitch": 84, "duration": 9, "velocity": 85}, {"time": 4737, "pitch": 83, "duration": 8, "velocity": 86}, {"time": 4748, "pitch": 84, "duration": 5, "velocity": 78}, {"time": 4754, "pitch": 81, "duration": 26, "velocity": 87}, {"time": 4784, "pitch": 81, "duration": 10, "velocity": 85}, {"time": 4796, "pitch": 88, "duration": 10, "velocity": 73}, {"time": 4808, "pitch": 86, "duration": 10, "velocity": 86}, {"time": 4820, "pitch": 83, "duration": 10, "velocity": 85}, {"time": 4832, "pitch": 79, "duration": 12, "velocity": 84}, {"time": 4844, "pitch": 76, "duration": 12, "velocity": 84}, {"time": 4856, "pitch": 81, "duration": 24, "velocity": 75}, {"time": 4880, "pitch": 76, "duration": 5, "velocity": 82}, {"time": 4886, "pitch": 74, "duration": 5, "velocity": 87}, {"time": 4892, "pitch": 72, "duration": 4, "velocity": 84}, {"time": 4898, "pitch": 74, "duration": 17, "velocity": 88}, {"time": 4916, "pitch": 81, "duration": 9, "velocity": 84}, {"time": 4928, "pitch": 81, "duration": 10, "velocity": 85}, {"time": 4940, "pitch": 79, "duration": 13, "velocity": 84}, {"time": 4952, "pitch": 74, "duration": 9, "velocity": 84}, {"time": 4964, "pitch": 76, "duration": 19, "velocity": 90}, {"time": 4988, "pitch": 74, "duration": 9, "velocity": 88}, {"time": 5000, "pitch": 72, "duration": 46, "velocity": 82}]}, {"program": 0, "is_drum": false, "name": "PIANO", "notes": [{"time": 9, "pitch": 60, "duration": 17, "velocity": 74}, {"time": 27, "pitch": 59, "duration": 24, "velocity": 78}, {"time": 27, "pitch": 43, "duration": 20, "velocity": 72}, {"time": 50, "pitch": 57, "duration": 14, "velocity": 70}, {"time": 50, "pitch": 60, "duration": 19, "velocity": 71}, {"time": 50, "pitch": 45, "duration": 54, "velocity": 60}, {"time": 61, "pitch": 52, "duration": 43, "velocity": 70}, {"time": 68, "pitch": 57, "duration": 37, "velocity": 78}, {"time": 74, "pitch": 60, "duration": 31, "velocity": 74}, {"time": 104, "pitch": 45, "duration": 14, "velocity": 80}, {"time": 104, "pitch": 57, "duration": 1, "velocity": 72}, {"time": 104, "pitch": 64, "duration": 13, "velocity": 84}, {"time": 110, "pitch": 52, "duration": 8, "velocity": 72}, {"time": 116, "pitch": 57, "duration": 3, "velocity": 75}, {"time": 122, "pitch": 43, "duration": 18, "velocity": 80}, {"time": 122, "pitch": 55, "duration": 15, "velocity": 70}, {"time": 122, "pitch": 59, "duration": 16, "velocity": 74}, {"time": 134, "pitch": 50, "duration": 4, "velocity": 71}, {"time": 140, "pitch": 55, "duration": 4, "velocity": 82}, {"time": 146, "pitch": 36, "duration": 5, "velocity": 80}, {"time": 146, "pitch": 55, "duration": 10, "velocity": 77}, {"time": 146, "pitch": 60, "duration": 11, "velocity": 79}, {"time": 158, "pitch": 48, "duration": 41, "velocity": 64}, {"time": 164, "pitch": 55, "duration": 34, "velocity": 70}, {"time": 170, "pitch": 62, "duration": 8, "velocity": 79}, {"time": 176, "pitch": 64, "duration": 9, "velocity": 85}, {"time": 188, "pitch": 60, "duration": 3, "velocity": 73}, {"time": 188, "pitch": 64, "duration": 10, "velocity": 83}, {"time": 188, "pitch": 67, "duration": 10, "velocity": 78}, {"time": 194, "pitch": 62, "duration": 6, "velocity": 73}, {"time": 200, "pitch": 48, "duration": 24, "velocity": 82}, {"time": 200, "pitch": 64, "duration": 12, "velocity": 85}, {"time": 206, "pitch": 55, "duration": 9, "velocity": 77}, {"time": 212, "pitch": 60, "duration": 8, "velocity": 75}, {"time": 218, "pitch": 64, "duration": 8, "velocity": 83}, {"time": 224, "pitch": 47, "duration": 21, "velocity": 80}, {"time": 224, "pitch": 62, "duration": 13, "velocity": 80}, {"time": 230, "pitch": 50, "duration": 16, "velocity": 71}, {"time": 236, "pitch": 55, "duration": 8, "velocity": 84}, {"time": 242, "pitch": 59, "duration": 7, "velocity": 77}, {"time": 248, "pitch": 45, "duration": 21, "velocity": 84}, {"time": 248, "pitch": 60, "duration": 14, "velocity": 79}, {"time": 254, "pitch": 52, "duration": 14, "velocity": 75}, {"time": 260, "pitch": 57, "duration": 8, "velocity": 74}, {"time": 266, "pitch": 60, "duration": 7, "velocity": 76}, {"time": 272, "pitch": 43, "duration": 20, "velocity": 84}, {"time": 272, "pitch": 55, "duration": 8, "velocity": 80}, {"time": 272, "pitch": 59, "duration": 13, "velocity": 80}, {"time": 278, "pitch": 50, "duration": 11, "velocity": 77}, {"time": 284, "pitch": 55, "duration": 9, "velocity": 88}, {"time": 290, "pitch": 59, "duration": 3, "velocity": 71}, {"time": 296, "pitch": 41, "duration": 48, "velocity": 83}, {"time": 296, "pitch": 53, "duration": 7, "velocity": 77}, {"time": 296, "pitch": 57, "duration": 13, "velocity": 84}, {"time": 302, "pitch": 48, "duration": 41, "velocity": 71}, {"time": 308, "pitch": 53, "duration": 19, "velocity": 79}, {"time": 314, "pitch": 60, "duration": 13, "velocity": 79}, {"time": 326, "pitch": 65, "duration": 4, "velocity": 79}, {"time": 344, "pitch": 55, "duration": 7, "velocity": 76}, {"time": 344, "pitch": 43, "duration": 49, "velocity": 82}, {"time": 344, "pitch": 62, "duration": 14, "velocity": 75}, {"time": 350, "pitch": 50, "duration": 42, "velocity": 73}, {"time": 356, "pitch": 55, "duration": 36, "velocity": 84}, {"time": 362, "pitch": 62, "duration": 31, "velocity": 77}, {"time": 374, "pitch": 67, "duration": 21, "velocity": 77}, {"time": 392, "pitch": 48, "duration": 37, "velocity": 78}, {"time": 392, "pitch": 55, "duration": 4, "velocity": 74}, {"time": 392, "pitch": 60, "duration": 9, "velocity": 79}, {"time": 398, "pitch": 55, "duration": 9, "velocity": 76}, {"time": 404, "pitch": 60, "duration": 7, "velocity": 76}, {"time": 410, "pitch": 62, "duration": 12, "velocity": 78}, {"time": 422, "pitch": 60, "duration": 5, "velocity": 69}, {"time": 440, "pitch": 48, "duration": 34, "velocity": 80}, {"time": 440, "pitch": 55, "duration": 8, "velocity": 71}, {"time": 440, "pitch": 64, "duration": 16, "velocity": 84}, {"time": 458, "pitch": 55, "duration": 4, "velocity": 72}, {"time": 464, "pitch": 55, "duration": 8, "velocity": 83}, {"time": 464, "pitch": 60, "duration": 10, "velocity": 80}, {"time": 488, "pitch": 45, "duration": 84, "velocity": 83}, {"time": 488, "pitch": 57, "duration": 8, "velocity": 70}, {"time": 488, "pitch": 60, "duration": 15, "velocity": 78}, {"time": 494, "pitch": 52, "duration": 52, "velocity": 78}, {"time": 500, "pitch": 57, "duration": 4, "velocity": 71}, {"time": 506, "pitch": 57, "duration": 31, "velocity": 78}, {"time": 506, "pitch": 67, "duration": 46, "velocity": 78}, {"time": 554, "pitch": 52, "duration": 9, "velocity": 69}, {"time": 560, "pitch": 57, "duration": 8, "velocity": 79}, {"time": 560, "pitch": 60, "duration": 11, "velocity": 81}, {"time": 566, "pitch": 52, "duration": 6, "velocity": 70}, {"time": 572, "pitch": 57, "duration": 2, "velocity": 65}, {"time": 584, "pitch": 41, "duration": 33, "velocity": 84}, {"time": 584, "pitch": 53, "duration": 7, "velocity": 74}, {"time": 584, "pitch": 60, "duration": 14, "velocity": 78}, {"time": 590, "pitch": 48, "duration": 27, "velocity": 72}, {"time": 596, "pitch": 53, "duration": 9, "velocity": 81}, {"time": 602, "pitch": 57, "duration": 12, "velocity": 85}, {"time": 614, "pitch": 60, "duration": 3, "velocity": 87}, {"time": 632, "pitch": 40, "duration": 34, "velocity": 86}, {"time": 632, "pitch": 52, "duration": 8, "velocity": 78}, {"time": 632, "pitch": 59, "duration": 12, "velocity": 79}, {"time": 638, "pitch": 47, "duration": 27, "velocity": 72}, {"time": 644, "pitch": 55, "duration": 9, "velocity": 79}, {"time": 650, "pitch": 64, "duration": 22, "velocity": 86}, {"time": 662, "pitch": 55, "duration": 7, "velocity": 82}, {"time": 668, "pitch": 52, "duration": 3, "velocity": 79}, {"time": 680, "pitch": 50, "duration": 28, "velocity": 84}, {"time": 680, "pitch": 57, "duration": 5, "velocity": 76}, {"time": 680, "pitch": 62, "duration": 8, "velocity": 79}, {"time": 686, "pitch": 57, "duration": 9, "velocity": 77}, {"time": 692, "pitch": 62, "duration": 7, "velocity": 79}, {"time": 698, "pitch": 65, "duration": 13, "velocity": 85}, {"time": 710, "pitch": 62, "duration": 4, "velocity": 79}, {"time": 728, "pitch": 43, "duration": 22, "velocity": 85}, {"time": 728, "pitch": 60, "duration": 12, "velocity": 80}, {"time": 734, "pitch": 50, "duration": 16, "velocity": 82}, {"time": 740, "pitch": 55, "duration": 7, "velocity": 86}, {"time": 746, "pitch": 60, "duration": 4, "velocity": 86}, {"time": 752, "pitch": 43, "duration": 15, "velocity": 84}, {"time": 752, "pitch": 55, "duration": 8, "velocity": 84}, {"time": 752, "pitch": 59, "duration": 14, "velocity": 87}, {"time": 758, "pitch": 50, "duration": 8, "velocity": 75}, {"time": 764, "pitch": 55, "duration": 4, "velocity": 85}, {"time": 776, "pitch": 36, "duration": 38, "velocity": 80}, {"time": 776, "pitch": 55, "duration": 8, "velocity": 75}, {"time": 776, "pitch": 60, "duration": 14, "velocity": 78}, {"time": 782, "pitch": 43, "duration": 29, "velocity": 71}, {"time": 788, "pitch": 55, "duration": 7, "velocity": 82}, {"time": 794, "pitch": 62, "duration": 8, "velocity": 81}, {"time": 806, "pitch": 60, "duration": 2, "velocity": 84}, {"time": 824, "pitch": 36, "duration": 30, "velocity": 81}, {"time": 835, "pitch": 60, "duration": 26, "velocity": 68}, {"time": 841, "pitch": 64, "duration": 31, "velocity": 72}, {"time": 861, "pitch": 69, "duration": 10, "velocity": 74}, {"time": 865, "pitch": 55, "duration": 7, "velocity": 74}, {"time": 872, "pitch": 45, "duration": 39, "velocity": 84}, {"time": 872, "pitch": 57, "duration": 7, "velocity": 73}, {"time": 872, "pitch": 60, "duration": 13, "velocity": 80}, {"time": 878, "pitch": 52, "duration": 32, "velocity": 76}, {"time": 884, "pitch": 57, "duration": 4, "velocity": 79}, {"time": 890, "pitch": 57, "duration": 4, "velocity": 77}, {"time": 890, "pitch": 62, "duration": 4, "velocity": 79}, {"time": 902, "pitch": 57, "duration": 3, "velocity": 64}, {"time": 902, "pitch": 60, "duration": 3, "velocity": 73}, {"time": 920, "pitch": 45, "duration": 38, "velocity": 84}, {"time": 920, "pitch": 64, "duration": 13, "velocity": 80}, {"time": 926, "pitch": 52, "duration": 16, "velocity": 73}, {"time": 932, "pitch": 57, "duration": 4, "velocity": 81}, {"time": 938, "pitch": 57, "duration": 7, "velocity": 80}, {"time": 938, "pitch": 64, "duration": 17, "velocity": 86}, {"time": 944, "pitch": 52, "duration": 13, "velocity": 64}, {"time": 956, "pitch": 62, "duration": 5, "velocity": 72}, {"time": 968, "pitch": 41, "duration": 38, "velocity": 84}, {"time": 968, "pitch": 60, "duration": 15, "velocity": 78}, {"time": 974, "pitch": 48, "duration": 30, "velocity": 72}, {"time": 980, "pitch": 53, "duration": 19, "velocity": 79}, {"time": 986, "pitch": 57, "duration": 13, "velocity": 79}, {"time": 998, "pitch": 60, "duration": 4, "velocity": 79}, {"time": 1016, "pitch": 40, "duration": 35, "velocity": 85}, {"time": 1016, "pitch": 52, "duration": 7, "velocity": 80}, {"time": 1016, "pitch": 55, "duration": 15, "velocity": 82}, {"time": 1022, "pitch": 47, "duration": 26, "velocity": 74}, {"time": 1028, "pitch": 52, "duration": 14, "velocity": 84}, {"time": 1034, "pitch": 55, "duration": 9, "velocity": 67}, {"time": 1034, "pitch": 64, "duration": 15, "velocity": 85}, {"time": 1046, "pitch": 59, "duration": 7, "velocity": 84}, {"time": 1052, "pitch": 52, "duration": 2, "velocity": 89}, {"time": 1064, "pitch": 38, "duration": 30, "velocity": 85}, {"time": 1064, "pitch": 57, "duration": 7, "velocity": 78}, {"time": 1064, "pitch": 62, "duration": 13, "velocity": 79}, {"time": 1070, "pitch": 45, "duration": 23, "velocity": 71}, {"time": 1076, "pitch": 57, "duration": 8, "velocity": 84}, {"time": 1082, "pitch": 65, "duration": 12, "velocity": 90}, {"time": 1094, "pitch": 62, "duration": 6, "velocity": 85}, {"time": 1100, "pitch": 57, "duration": 6, "velocity": 80}, {"time": 1106, "pitch": 62, "duration": 26, "velocity": 75}, {"time": 1112, "pitch": 43, "duration": 24, "velocity": 84}, {"time": 1112, "pitch": 55, "duration": 13, "velocity": 77}, {"time": 1124, "pitch": 50, "duration": 17, "velocity": 83}, {"time": 1130, "pitch": 55, "duration": 9, "velocity": 86}, {"time": 1136, "pitch": 62, "duration": 24, "velocity": 84}, {"time": 1136, "pitch": 67, "duration": 23, "velocity": 84}, {"time": 1136, "pitch": 43, "duration": 25, "velocity": 84}, {"time": 1142, "pitch": 55, "duration": 9, "velocity": 82}, {"time": 1148, "pitch": 50, "duration": 12, "velocity": 80}, {"time": 1154, "pitch": 55, "duration": 6, "velocity": 78}, {"time": 1160, "pitch": 36, "duration": 4, "velocity": 80}, {"time": 1160, "pitch": 67, "duration": 32, "velocity": 80}, {"time": 1172, "pitch": 48, "duration": 24, "velocity": 81}, {"time": 1178, "pitch": 55, "duration": 18, "velocity": 85}, {"time": 1190, "pitch": 60, "duration": 8, "velocity": 84}, {"time": 1196, "pitch": 67, "duration": 10, "velocity": 80}, {"time": 1208, "pitch": 43, "duration": 34, "velocity": 84}, {"time": 1208, "pitch": 59, "duration": 8, "velocity": 79}, {"time": 1208, "pitch": 67, "duration": 20, "velocity": 84}, {"time": 1214, "pitch": 50, "duration": 27, "velocity": 69}, {"time": 1220, "pitch": 59, "duration": 15, "velocity": 84}, {"time": 1226, "pitch": 62, "duration": 9, "velocity": 80}, {"time": 1238, "pitch": 59, "duration": 5, "velocity": 80}, {"time": 1238, "pitch": 62, "duration": 4, "velocity": 80}, {"time": 1238, "pitch": 67, "duration": 7, "velocity": 79}, {"time": 1256, "pitch": 45, "duration": 41, "velocity": 82}, {"time": 1256, "pitch": 57, "duration": 7, "velocity": 72}, {"time": 1256, "pitch": 60, "duration": 13, "velocity": 77}, {"time": 1262, "pitch": 52, "duration": 34, "velocity": 68}, {"time": 1268, "pitch": 57, "duration": 4, "velocity": 78}, {"time": 1274, "pitch": 57, "duration": 19, "velocity": 78}, {"time": 1274, "pitch": 64, "duration": 20, "velocity": 84}, {"time": 1292, "pitch": 60, "duration": 7, "velocity": 86}, {"time": 1298, "pitch": 57, "duration": 4, "velocity": 81}, {"time": 1304, "pitch": 43, "duration": 39, "velocity": 83}, {"time": 1304, "pitch": 55, "duration": 21, "velocity": 84}, {"time": 1310, "pitch": 50, "duration": 33, "velocity": 83}, {"time": 1316, "pitch": 59, "duration": 5, "velocity": 76}, {"time": 1322, "pitch": 59, "duration": 1, "velocity": 51}, {"time": 1322, "pitch": 62, "duration": 9, "velocity": 79}, {"time": 1334, "pitch": 67, "duration": 8, "velocity": 84}, {"time": 1340, "pitch": 55, "duration": 5, "velocity": 80}, {"time": 1352, "pitch": 41, "duration": 31, "velocity": 84}, {"time": 1352, "pitch": 53, "duration": 5, "velocity": 72}, {"time": 1352, "pitch": 60, "duration": 14, "velocity": 78}, {"time": 1358, "pitch": 48, "duration": 24, "velocity": 85}, {"time": 1364, "pitch": 53, "duration": 19, "velocity": 84}, {"time": 1370, "pitch": 65, "duration": 13, "velocity": 87}, {"time": 1382, "pitch": 57, "duration": 3, "velocity": 80}, {"time": 1382, "pitch": 60, "duration": 4, "velocity": 82}, {"time": 1400, "pitch": 40, "duration": 32, "velocity": 85}, {"time": 1400, "pitch": 64, "duration": 13, "velocity": 84}, {"time": 1406, "pitch": 47, "duration": 24, "velocity": 79}, {"time": 1412, "pitch": 55, "duration": 5, "velocity": 84}, {"time": 1418, "pitch": 55, "duration": 9, "velocity": 85}, {"time": 1418, "pitch": 59, "duration": 9, "velocity": 84}, {"time": 1430, "pitch": 55, "duration": 3, "velocity": 78}, {"time": 1430, "pitch": 59, "duration": 4, "velocity": 84}, {"time": 1430, "pitch": 64, "duration": 5, "velocity": 84}, {"time": 1448, "pitch": 38, "duration": 32, "velocity": 84}, {"time": 1448, "pitch": 57, "duration": 7, "velocity": 74}, {"time": 1448, "pitch": 65, "duration": 17, "velocity": 82}, {"time": 1454, "pitch": 45, "duration": 25, "velocity": 76}, {"time": 1460, "pitch": 57, "duration": 9, "velocity": 84}, {"time": 1466, "pitch": 62, "duration": 7, "velocity": 82}, {"time": 1478, "pitch": 57, "duration": 5, "velocity": 84}, {"time": 1478, "pitch": 65, "duration": 9, "velocity": 79}, {"time": 1484, "pitch": 57, "duration": 6, "velocity": 74}, {"time": 1496, "pitch": 43, "duration": 44, "velocity": 83}, {"time": 1496, "pitch": 55, "duration": 7, "velocity": 76}, {"time": 1496, "pitch": 62, "duration": 8, "velocity": 77}, {"time": 1502, "pitch": 50, "duration": 38, "velocity": 81}, {"time": 1508, "pitch": 55, "duration": 19, "velocity": 81}, {"time": 1514, "pitch": 62, "duration": 20, "velocity": 78}, {"time": 1526, "pitch": 67, "duration": 13, "velocity": 83}, {"time": 1532, "pitch": 55, "duration": 7, "velocity": 82}, {"time": 1544, "pitch": 48, "duration": 33, "velocity": 90}, {"time": 1544, "pitch": 55, "duration": 6, "velocity": 84}, {"time": 1544, "pitch": 60, "duration": 10, "velocity": 80}, {"time": 1550, "pitch": 52, "duration": 27, "velocity": 84}, {"time": 1556, "pitch": 55, "duration": 8, "velocity": 86}, {"time": 1562, "pitch": 62, "duration": 14, "velocity": 85}, {"time": 1574, "pitch": 60, "duration": 7, "velocity": 82}, {"time": 1580, "pitch": 55, "duration": 3, "velocity": 82}, {"time": 1592, "pitch": 40, "duration": 37, "velocity": 86}, {"time": 1592, "pitch": 59, "duration": 8, "velocity": 78}, {"time": 1592, "pitch": 64, "duration": 14, "velocity": 83}, {"time": 1598, "pitch": 47, "duration": 31, "velocity": 70}, {"time": 1604, "pitch": 59, "duration": 28, "velocity": 82}, {"time": 1610, "pitch": 64, "duration": 21, "velocity": 81}, {"time": 1640, "pitch": 45, "duration": 21, "velocity": 85}, {"time": 1640, "pitch": 57, "duration": 7, "velocity": 73}, {"time": 1640, "pitch": 60, "duration": 12, "velocity": 77}, {"time": 1646, "pitch": 52, "duration": 15, "velocity": 79}, {"time": 1652, "pitch": 57, "duration": 8, "velocity": 85}, {"time": 1658, "pitch": 60, "duration": 5, "velocity": 70}, {"time": 1664, "pitch": 43, "duration": 13, "velocity": 84}, {"time": 1664, "pitch": 55, "duration": 8, "velocity": 85}, {"time": 1664, "pitch": 59, "duration": 14, "velocity": 85}, {"time": 1670, "pitch": 50, "duration": 7, "velocity": 78}, {"time": 1676, "pitch": 55, "duration": 3, "velocity": 87}, {"time": 1688, "pitch": 42, "duration": 34, "velocity": 85}, {"time": 1688, "pitch": 57, "duration": 5, "velocity": 77}, {"time": 1688, "pitch": 60, "duration": 13, "velocity": 78}, {"time": 1694, "pitch": 48, "duration": 33, "velocity": 68}, {"time": 1700, "pitch": 57, "duration": 4, "velocity": 84}, {"time": 1706, "pitch": 57, "duration": 15, "velocity": 79}, {"time": 1706, "pitch": 64, "duration": 37, "velocity": 86}, {"time": 1736, "pitch": 40, "duration": 33, "velocity": 86}, {"time": 1736, "pitch": 59, "duration": 8, "velocity": 79}, {"time": 1736, "pitch": 67, "duration": 18, "velocity": 78}, {"time": 1742, "pitch": 47, "duration": 27, "velocity": 78}, {"time": 1748, "pitch": 59, "duration": 13, "velocity": 84}, {"time": 1754, "pitch": 64, "duration": 8, "velocity": 86}, {"time": 1766, "pitch": 59, "duration": 6, "velocity": 84}, {"time": 1766, "pitch": 67, "duration": 6, "velocity": 78}, {"time": 1784, "pitch": 45, "duration": 36, "velocity": 84}, {"time": 1784, "pitch": 57, "duration": 7, "velocity": 75}, {"time": 1784, "pitch": 69, "duration": 12, "velocity": 80}, {"time": 1790, "pitch": 52, "duration": 29, "velocity": 77}, {"time": 1796, "pitch": 57, "duration": 8, "velocity": 84}, {"time": 1802, "pitch": 64, "duration": 7, "velocity": 85}, {"time": 1814, "pitch": 60, "duration": 7, "velocity": 83}, {"time": 1820, "pitch": 57, "duration": 14, "velocity": 85}, {"time": 1832, "pitch": 38, "duration": 30, "velocity": 82}, {"time": 1832, "pitch": 65, "duration": 14, "velocity": 84}, {"time": 1838, "pitch": 45, "duration": 23, "velocity": 69}, {"time": 1844, "pitch": 57, "duration": 8, "velocity": 86}, {"time": 1850, "pitch": 64, "duration": 9, "velocity": 90}, {"time": 1862, "pitch": 62, "duration": 6, "velocity": 84}, {"time": 1868, "pitch": 60, "duration": 10, "velocity": 82}, {"time": 1880, "pitch": 43, "duration": 37, "velocity": 82}, {"time": 1880, "pitch": 62, "duration": 12, "velocity": 84}, {"time": 1886, "pitch": 50, "duration": 29, "velocity": 76}, {"time": 1892, "pitch": 55, "duration": 18, "velocity": 84}, {"time": 1898, "pitch": 62, "duration": 20, "velocity": 78}, {"time": 1910, "pitch": 67, "duration": 8, "velocity": 76}, {"time": 1916, "pitch": 55, "duration": 6, "velocity": 80}, {"time": 1926, "pitch": 60, "duration": 19, "velocity": 68}, {"time": 1927, "pitch": 64, "duration": 24, "velocity": 80}, {"time": 1928, "pitch": 48, "duration": 45, "velocity": 80}, {"time": 1929, "pitch": 67, "duration": 23, "velocity": 69}, {"time": 1940, "pitch": 55, "duration": 32, "velocity": 68}, {"time": 1951, "pitch": 60, "duration": 20, "velocity": 87}, {"time": 1953, "pitch": 64, "duration": 17, "velocity": 74}, {"time": 1953, "pitch": 67, "duration": 18, "velocity": 87}, {"time": 1974, "pitch": 60, "duration": 9, "velocity": 72}, {"time": 1976, "pitch": 65, "duration": 39, "velocity": 80}, {"time": 1976, "pitch": 53, "duration": 48, "velocity": 95}, {"time": 1987, "pitch": 60, "duration": 34, "velocity": 66}, {"time": 1999, "pitch": 69, "duration": 21, "velocity": 80}, {"time": 2022, "pitch": 55, "duration": 27, "velocity": 59}, {"time": 2024, "pitch": 59, "duration": 39, "velocity": 70}, {"time": 2024, "pitch": 43, "duration": 45, "velocity": 93}, {"time": 2024, "pitch": 62, "duration": 44, "velocity": 66}, {"time": 2036, "pitch": 50, "duration": 36, "velocity": 65}, {"time": 2047, "pitch": 67, "duration": 20, "velocity": 71}, {"time": 2059, "pitch": 55, "duration": 8, "velocity": 80}, {"time": 2070, "pitch": 57, "duration": 20, "velocity": 67}, {"time": 2072, "pitch": 60, "duration": 25, "velocity": 69}, {"time": 2073, "pitch": 41, "duration": 48, "velocity": 93}, {"time": 2073, "pitch": 65, "duration": 48, "velocity": 59}, {"time": 2084, "pitch": 48, "duration": 37, "velocity": 61}, {"time": 2096, "pitch": 57, "duration": 24, "velocity": 80}, {"time": 2107, "pitch": 60, "duration": 14, "velocity": 74}, {"time": 2120, "pitch": 55, "duration": 3, "velocity": 42}, {"time": 2121, "pitch": 60, "duration": 13, "velocity": 80}, {"time": 2121, "pitch": 36, "duration": 45, "velocity": 83}, {"time": 2121, "pitch": 64, "duration": 12, "velocity": 86}, {"time": 2127, "pitch": 43, "duration": 36, "velocity": 79}, {"time": 2133, "pitch": 55, "duration": 3, "velocity": 85}, {"time": 2139, "pitch": 55, "duration": 19, "velocity": 75}, {"time": 2139, "pitch": 64, "duration": 19, "velocity": 84}, {"time": 2139, "pitch": 60, "duration": 20, "velocity": 78}, {"time": 2166, "pitch": 55, "duration": 4, "velocity": 67}, {"time": 2168, "pitch": 60, "duration": 4, "velocity": 74}, {"time": 2169, "pitch": 65, "duration": 13, "velocity": 83}, {"time": 2169, "pitch": 36, "duration": 33, "velocity": 80}, {"time": 2175, "pitch": 43, "duration": 26, "velocity": 63}, {"time": 2180, "pitch": 55, "duration": 22, "velocity": 86}, {"time": 2181, "pitch": 60, "duration": 2, "velocity": 57}, {"time": 2186, "pitch": 65, "duration": 21, "velocity": 82}, {"time": 2187, "pitch": 60, "duration": 16, "velocity": 73}, {"time": 2215, "pitch": 55, "duration": 5, "velocity": 52}, {"time": 2217, "pitch": 62, "duration": 10, "velocity": 77}, {"time": 2217, "pitch": 43, "duration": 36, "velocity": 85}, {"time": 2223, "pitch": 50, "duration": 29, "velocity": 77}, {"time": 2228, "pitch": 55, "duration": 9, "velocity": 93}, {"time": 2234, "pitch": 67, "duration": 14, "velocity": 88}, {"time": 2246, "pitch": 62, "duration": 7, "velocity": 80}, {"time": 2252, "pitch": 55, "duration": 2, "velocity": 85}, {"time": 2262, "pitch": 53, "duration": 5, "velocity": 67}, {"time": 2264, "pitch": 57, "duration": 10, "velocity": 71}, {"time": 2264, "pitch": 60, "duration": 11, "velocity": 83}, {"time": 2264, "pitch": 41, "duration": 12, "velocity": 84}, {"time": 2285, "pitch": 55, "duration": 4, "velocity": 72}, {"time": 2286, "pitch": 59, "duration": 4, "velocity": 72}, {"time": 2288, "pitch": 62, "duration": 3, "velocity": 75}, {"time": 2289, "pitch": 67, "duration": 6, "velocity": 82}, {"time": 2289, "pitch": 43, "duration": 24, "velocity": 84}, {"time": 2294, "pitch": 50, "duration": 18, "velocity": 70}, {"time": 2301, "pitch": 65, "duration": 11, "velocity": 84}, {"time": 2301, "pitch": 55, "duration": 9, "velocity": 77}, {"time": 2301, "pitch": 59, "duration": 9, "velocity": 80}, {"time": 2312, "pitch": 48, "duration": 37, "velocity": 78}, {"time": 2312, "pitch": 55, "duration": 4, "velocity": 74}, {"time": 2312, "pitch": 60, "duration": 9, "velocity": 79}, {"time": 2318, "pitch": 55, "duration": 9, "velocity": 76}, {"time": 2324, "pitch": 60, "duration": 7, "velocity": 76}, {"time": 2330, "pitch": 62, "duration": 12, "velocity": 78}, {"time": 2342, "pitch": 60, "duration": 13, "velocity": 69}, {"time": 2360, "pitch": 48, "duration": 34, "velocity": 80}, {"time": 2360, "pitch": 55, "duration": 8, "velocity": 71}, {"time": 2360, "pitch": 67, "duration": 16, "velocity": 84}, {"time": 2361, "pitch": 59, "duration": 16, "velocity": 71}, {"time": 2378, "pitch": 55, "duration": 4, "velocity": 72}, {"time": 2384, "pitch": 55, "duration": 18, "velocity": 83}, {"time": 2384, "pitch": 60, "duration": 22, "velocity": 80}, {"time": 2408, "pitch": 45, "duration": 84, "velocity": 83}, {"time": 2408, "pitch": 57, "duration": 8, "velocity": 70}, {"time": 2408, "pitch": 60, "duration": 15, "velocity": 78}, {"time": 2414, "pitch": 52, "duration": 52, "velocity": 78}, {"time": 2420, "pitch": 57, "duration": 4, "velocity": 71}, {"time": 2426, "pitch": 57, "duration": 5, "velocity": 78}, {"time": 2426, "pitch": 62, "duration": 5, "velocity": 78}, {"time": 2438, "pitch": 57, "duration": 3, "velocity": 70}, {"time": 2438, "pitch": 60, "duration": 3, "velocity": 73}, {"time": 2456, "pitch": 57, "duration": 22, "velocity": 77}, {"time": 2456, "pitch": 60, "duration": 21, "velocity": 78}, {"time": 2456, "pitch": 64, "duration": 22, "velocity": 84}, {"time": 2474, "pitch": 52, "duration": 9, "velocity": 69}, {"time": 2480, "pitch": 57, "duration": 8, "velocity": 79}, {"time": 2480, "pitch": 60, "duration": 11, "velocity": 81}, {"time": 2486, "pitch": 52, "duration": 6, "velocity": 70}, {"time": 2492, "pitch": 57, "duration": 2, "velocity": 65}, {"time": 2504, "pitch": 41, "duration": 33, "velocity": 84}, {"time": 2504, "pitch": 53, "duration": 7, "velocity": 74}, {"time": 2504, "pitch": 60, "duration": 14, "velocity": 78}, {"time": 2510, "pitch": 48, "duration": 27, "velocity": 72}, {"time": 2516, "pitch": 53, "duration": 9, "velocity": 81}, {"time": 2522, "pitch": 57, "duration": 12, "velocity": 85}, {"time": 2534, "pitch": 60, "duration": 3, "velocity": 87}, {"time": 2552, "pitch": 40, "duration": 34, "velocity": 86}, {"time": 2552, "pitch": 52, "duration": 8, "velocity": 78}, {"time": 2552, "pitch": 59, "duration": 12, "velocity": 79}, {"time": 2558, "pitch": 47, "duration": 27, "velocity": 72}, {"time": 2564, "pitch": 55, "duration": 9, "velocity": 79}, {"time": 2570, "pitch": 64, "duration": 22, "velocity": 86}, {"time": 2582, "pitch": 55, "duration": 7, "velocity": 82}, {"time": 2588, "pitch": 52, "duration": 3, "velocity": 79}, {"time": 2600, "pitch": 50, "duration": 28, "velocity": 84}, {"time": 2600, "pitch": 57, "duration": 5, "velocity": 76}, {"time": 2600, "pitch": 62, "duration": 8, "velocity": 79}, {"time": 2606, "pitch": 57, "duration": 9, "velocity": 77}, {"time": 2612, "pitch": 62, "duration": 7, "velocity": 79}, {"time": 2618, "pitch": 65, "duration": 7, "velocity": 85}, {"time": 2625, "pitch": 66, "duration": 17, "velocity": 85}, {"time": 2630, "pitch": 62, "duration": 4, "velocity": 79}, {"time": 2648, "pitch": 43, "duration": 22, "velocity": 85}, {"time": 2648, "pitch": 60, "duration": 12, "velocity": 80}, {"time": 2654, "pitch": 50, "duration": 16, "velocity": 82}, {"time": 2660, "pitch": 55, "duration": 7, "velocity": 86}, {"time": 2666, "pitch": 60, "duration": 4, "velocity": 86}, {"time": 2672, "pitch": 43, "duration": 15, "velocity": 84}, {"time": 2672, "pitch": 55, "duration": 8, "velocity": 84}, {"time": 2672, "pitch": 59, "duration": 14, "velocity": 87}, {"time": 2678, "pitch": 50, "duration": 8, "velocity": 75}, {"time": 2684, "pitch": 55, "duration": 4, "velocity": 85}, {"time": 2696, "pitch": 36, "duration": 38, "velocity": 80}, {"time": 2696, "pitch": 55, "duration": 8, "velocity": 75}, {"time": 2696, "pitch": 60, "duration": 14, "velocity": 78}, {"time": 2702, "pitch": 43, "duration": 29, "velocity": 71}, {"time": 2708, "pitch": 55, "duration": 7, "velocity": 82}, {"time": 2714, "pitch": 62, "duration": 8, "velocity": 81}, {"time": 2726, "pitch": 60, "duration": 2, "velocity": 84}, {"time": 2744, "pitch": 36, "duration": 30, "velocity": 81}, {"time": 2744, "pitch": 55, "duration": 7, "velocity": 78}, {"time": 2744, "pitch": 64, "duration": 14, "velocity": 84}, {"time": 2750, "pitch": 43, "duration": 23, "velocity": 56}, {"time": 2756, "pitch": 55, "duration": 8, "velocity": 82}, {"time": 2762, "pitch": 62, "duration": 10, "velocity": 86}, {"time": 2774, "pitch": 55, "duration": 4, "velocity": 78}, {"time": 2774, "pitch": 60, "duration": 4, "velocity": 77}, {"time": 2792, "pitch": 45, "duration": 39, "velocity": 84}, {"time": 2792, "pitch": 57, "duration": 7, "velocity": 73}, {"time": 2792, "pitch": 60, "duration": 13, "velocity": 80}, {"time": 2798, "pitch": 52, "duration": 32, "velocity": 76}, {"time": 2804, "pitch": 57, "duration": 4, "velocity": 79}, {"time": 2810, "pitch": 57, "duration": 4, "velocity": 77}, {"time": 2810, "pitch": 62, "duration": 4, "velocity": 79}, {"time": 2822, "pitch": 57, "duration": 3, "velocity": 64}, {"time": 2822, "pitch": 60, "duration": 3, "velocity": 73}, {"time": 2840, "pitch": 45, "duration": 38, "velocity": 84}, {"time": 2840, "pitch": 64, "duration": 13, "velocity": 80}, {"time": 2846, "pitch": 52, "duration": 16, "velocity": 73}, {"time": 2852, "pitch": 57, "duration": 4, "velocity": 81}, {"time": 2858, "pitch": 57, "duration": 7, "velocity": 80}, {"time": 2858, "pitch": 64, "duration": 17, "velocity": 86}, {"time": 2864, "pitch": 52, "duration": 13, "velocity": 64}, {"time": 2876, "pitch": 62, "duration": 5, "velocity": 72}, {"time": 2888, "pitch": 41, "duration": 38, "velocity": 84}, {"time": 2888, "pitch": 60, "duration": 15, "velocity": 78}, {"time": 2894, "pitch": 48, "duration": 30, "velocity": 72}, {"time": 2900, "pitch": 53, "duration": 19, "velocity": 79}, {"time": 2906, "pitch": 57, "duration": 13, "velocity": 79}, {"time": 2918, "pitch": 60, "duration": 4, "velocity": 79}, {"time": 2936, "pitch": 40, "duration": 35, "velocity": 85}, {"time": 2936, "pitch": 52, "duration": 7, "velocity": 80}, {"time": 2936, "pitch": 55, "duration": 15, "velocity": 82}, {"time": 2942, "pitch": 47, "duration": 26, "velocity": 74}, {"time": 2948, "pitch": 52, "duration": 14, "velocity": 84}, {"time": 2954, "pitch": 55, "duration": 9, "velocity": 67}, {"time": 2954, "pitch": 64, "duration": 15, "velocity": 85}, {"time": 2966, "pitch": 59, "duration": 7, "velocity": 84}, {"time": 2972, "pitch": 52, "duration": 2, "velocity": 89}, {"time": 2984, "pitch": 38, "duration": 30, "velocity": 85}, {"time": 2984, "pitch": 57, "duration": 7, "velocity": 78}, {"time": 2984, "pitch": 62, "duration": 13, "velocity": 79}, {"time": 2990, "pitch": 45, "duration": 23, "velocity": 71}, {"time": 2996, "pitch": 57, "duration": 8, "velocity": 84}, {"time": 3002, "pitch": 65, "duration": 12, "velocity": 90}, {"time": 3014, "pitch": 62, "duration": 6, "velocity": 85}, {"time": 3020, "pitch": 57, "duration": 6, "velocity": 80}, {"time": 3026, "pitch": 62, "duration": 26, "velocity": 75}, {"time": 3032, "pitch": 43, "duration": 47, "velocity": 84}, {"time": 3032, "pitch": 55, "duration": 13, "velocity": 77}, {"time": 3044, "pitch": 50, "duration": 17, "velocity": 83}, {"time": 3050, "pitch": 55, "duration": 9, "velocity": 86}, {"time": 3056, "pitch": 62, "duration": 24, "velocity": 84}, {"time": 3056, "pitch": 67, "duration": 25, "velocity": 84}, {"time": 3062, "pitch": 55, "duration": 9, "velocity": 82}, {"time": 3068, "pitch": 50, "duration": 12, "velocity": 80}, {"time": 3074, "pitch": 55, "duration": 6, "velocity": 78}, {"time": 3080, "pitch": 43, "duration": 48, "velocity": 86}, {"time": 3080, "pitch": 55, "duration": 8, "velocity": 79}, {"time": 3080, "pitch": 62, "duration": 14, "velocity": 79}, {"time": 3086, "pitch": 50, "duration": 15, "velocity": 80}, {"time": 3092, "pitch": 55, "duration": 3, "velocity": 85}, {"time": 3098, "pitch": 55, "duration": 9, "velocity": 88}, {"time": 3098, "pitch": 62, "duration": 15, "velocity": 86}, {"time": 3098, "pitch": 67, "duration": 12, "velocity": 85}, {"time": 3104, "pitch": 50, "duration": 24, "velocity": 86}, {"time": 3110, "pitch": 55, "duration": 4, "velocity": 86}, {"time": 3116, "pitch": 55, "duration": 12, "velocity": 88}, {"time": 3116, "pitch": 62, "duration": 12, "velocity": 85}, {"time": 3128, "pitch": 48, "duration": 46, "velocity": 86}, {"time": 3128, "pitch": 55, "duration": 7, "velocity": 80}, {"time": 3128, "pitch": 64, "duration": 18, "velocity": 86}, {"time": 3140, "pitch": 55, "duration": 8, "velocity": 80}, {"time": 3146, "pitch": 60, "duration": 3, "velocity": 76}, {"time": 3152, "pitch": 55, "duration": 4, "velocity": 83}, {"time": 3152, "pitch": 60, "duration": 7, "velocity": 86}, {"time": 3152, "pitch": 64, "duration": 19, "velocity": 87}, {"time": 3158, "pitch": 55, "duration": 9, "velocity": 80}, {"time": 3164, "pitch": 60, "duration": 10, "velocity": 82}, {"time": 3170, "pitch": 55, "duration": 4, "velocity": 66}, {"time": 3176, "pitch": 43, "duration": 40, "velocity": 85}, {"time": 3176, "pitch": 55, "duration": 10, "velocity": 77}, {"time": 3176, "pitch": 62, "duration": 18, "velocity": 70}, {"time": 3182, "pitch": 50, "duration": 28, "velocity": 78}, {"time": 3188, "pitch": 55, "duration": 17, "velocity": 77}, {"time": 3194, "pitch": 59, "duration": 10, "velocity": 83}, {"time": 3206, "pitch": 55, "duration": 8, "velocity": 85}, {"time": 3206, "pitch": 59, "duration": 8, "velocity": 87}, {"time": 3206, "pitch": 62, "duration": 9, "velocity": 85}, {"time": 3212, "pitch": 50, "duration": 5, "velocity": 83}, {"time": 3224, "pitch": 45, "duration": 42, "velocity": 85}, {"time": 3224, "pitch": 57, "duration": 8, "velocity": 79}, {"time": 3224, "pitch": 60, "duration": 13, "velocity": 82}, {"time": 3230, "pitch": 52, "duration": 20, "velocity": 76}, {"time": 3236, "pitch": 57, "duration": 9, "velocity": 74}, {"time": 3248, "pitch": 57, "duration": 7, "velocity": 79}, {"time": 3248, "pitch": 60, "duration": 13, "velocity": 85}, {"time": 3248, "pitch": 64, "duration": 11, "velocity": 86}, {"time": 3254, "pitch": 52, "duration": 11, "velocity": 77}, {"time": 3260, "pitch": 57, "duration": 10, "velocity": 83}, {"time": 3266, "pitch": 60, "duration": 4, "velocity": 79}, {"time": 3272, "pitch": 43, "duration": 43, "velocity": 84}, {"time": 3272, "pitch": 55, "duration": 7, "velocity": 80}, {"time": 3272, "pitch": 59, "duration": 13, "velocity": 82}, {"time": 3278, "pitch": 50, "duration": 15, "velocity": 74}, {"time": 3284, "pitch": 55, "duration": 4, "velocity": 85}, {"time": 3290, "pitch": 55, "duration": 9, "velocity": 84}, {"time": 3290, "pitch": 59, "duration": 14, "velocity": 85}, {"time": 3290, "pitch": 62, "duration": 15, "velocity": 84}, {"time": 3296, "pitch": 50, "duration": 19, "velocity": 78}, {"time": 3302, "pitch": 55, "duration": 9, "velocity": 84}, {"time": 3308, "pitch": 59, "duration": 5, "velocity": 85}, {"time": 3320, "pitch": 41, "duration": 35, "velocity": 85}, {"time": 3320, "pitch": 53, "duration": 13, "velocity": 77}, {"time": 3320, "pitch": 57, "duration": 13, "velocity": 80}, {"time": 3326, "pitch": 48, "duration": 17, "velocity": 79}, {"time": 3332, "pitch": 60, "duration": 4, "velocity": 80}, {"time": 3338, "pitch": 53, "duration": 9, "velocity": 84}, {"time": 3338, "pitch": 65, "duration": 10, "velocity": 85}, {"time": 3344, "pitch": 48, "duration": 9, "velocity": 70}, {"time": 3350, "pitch": 57, "duration": 3, "velocity": 85}, {"time": 3350, "pitch": 60, "duration": 4, "velocity": 86}, {"time": 3368, "pitch": 40, "duration": 35, "velocity": 84}, {"time": 3368, "pitch": 59, "duration": 7, "velocity": 81}, {"time": 3368, "pitch": 64, "duration": 13, "velocity": 85}, {"time": 3374, "pitch": 47, "duration": 28, "velocity": 83}, {"time": 3380, "pitch": 59, "duration": 3, "velocity": 84}, {"time": 3386, "pitch": 59, "duration": 9, "velocity": 87}, {"time": 3386, "pitch": 67, "duration": 11, "velocity": 82}, {"time": 3398, "pitch": 64, "duration": 7, "velocity": 86}, {"time": 3404, "pitch": 59, "duration": 3, "velocity": 80}, {"time": 3416, "pitch": 38, "duration": 22, "velocity": 86}, {"time": 3416, "pitch": 57, "duration": 8, "velocity": 82}, {"time": 3416, "pitch": 65, "duration": 14, "velocity": 83}, {"time": 3422, "pitch": 45, "duration": 14, "velocity": 68}, {"time": 3428, "pitch": 57, "duration": 9, "velocity": 84}, {"time": 3434, "pitch": 62, "duration": 4, "velocity": 72}, {"time": 3440, "pitch": 38, "duration": 13, "velocity": 87}, {"time": 3440, "pitch": 57, "duration": 7, "velocity": 78}, {"time": 3440, "pitch": 62, "duration": 14, "velocity": 85}, {"time": 3440, "pitch": 66, "duration": 14, "velocity": 84}, {"time": 3446, "pitch": 45, "duration": 7, "velocity": 66}, {"time": 3452, "pitch": 57, "duration": 4, "velocity": 84}, {"time": 3464, "pitch": 43, "duration": 32, "velocity": 84}, {"time": 3464, "pitch": 53, "duration": 4, "velocity": 75}, {"time": 3464, "pitch": 55, "duration": 4, "velocity": 73}, {"time": 3464, "pitch": 62, "duration": 11, "velocity": 84}, {"time": 3470, "pitch": 50, "duration": 15, "velocity": 79}, {"time": 3476, "pitch": 55, "duration": 4, "velocity": 84}, {"time": 3482, "pitch": 55, "duration": 9, "velocity": 86}, {"time": 3482, "pitch": 67, "duration": 10, "velocity": 84}, {"time": 3488, "pitch": 50, "duration": 10, "velocity": 64}, {"time": 3494, "pitch": 55, "duration": 5, "velocity": 85}, {"time": 3494, "pitch": 62, "duration": 5, "velocity": 84}, {"time": 3500, "pitch": 43, "duration": 3, "velocity": 83}, {"time": 3512, "pitch": 36, "duration": 35, "velocity": 80}, {"time": 3512, "pitch": 55, "duration": 7, "velocity": 85}, {"time": 3512, "pitch": 64, "duration": 14, "velocity": 85}, {"time": 3518, "pitch": 43, "duration": 28, "velocity": 71}, {"time": 3524, "pitch": 55, "duration": 3, "velocity": 81}, {"time": 3530, "pitch": 55, "duration": 4, "velocity": 86}, {"time": 3530, "pitch": 62, "duration": 5, "velocity": 85}, {"time": 3542, "pitch": 55, "duration": 5, "velocity": 82}, {"time": 3542, "pitch": 60, "duration": 6, "velocity": 81}, {"time": 3560, "pitch": 40, "duration": 36, "velocity": 86}, {"time": 3560, "pitch": 59, "duration": 7, "velocity": 81}, {"time": 3560, "pitch": 64, "duration": 14, "velocity": 84}, {"time": 3566, "pitch": 47, "duration": 29, "velocity": 74}, {"time": 3572, "pitch": 59, "duration": 3, "velocity": 74}, {"time": 3578, "pitch": 59, "duration": 5, "velocity": 80}, {"time": 3578, "pitch": 67, "duration": 12, "velocity": 81}, {"time": 3590, "pitch": 59, "duration": 3, "velocity": 77}, {"time": 3590, "pitch": 64, "duration": 8, "velocity": 84}, {"time": 3596, "pitch": 59, "duration": 4, "velocity": 77}, {"time": 3608, "pitch": 45, "duration": 22, "velocity": 84}, {"time": 3608, "pitch": 57, "duration": 9, "velocity": 78}, {"time": 3608, "pitch": 60, "duration": 14, "velocity": 83}, {"time": 3608, "pitch": 64, "duration": 14, "velocity": 85}, {"time": 3614, "pitch": 52, "duration": 16, "velocity": 78}, {"time": 3620, "pitch": 57, "duration": 8, "velocity": 85}, {"time": 3632, "pitch": 43, "duration": 16, "velocity": 84}, {"time": 3632, "pitch": 55, "duration": 8, "velocity": 84}, {"time": 3632, "pitch": 59, "duration": 14, "velocity": 82}, {"time": 3638, "pitch": 50, "duration": 10, "velocity": 80}, {"time": 3644, "pitch": 55, "duration": 8, "velocity": 91}, {"time": 3650, "pitch": 59, "duration": 5, "velocity": 78}, {"time": 3656, "pitch": 42, "duration": 33, "velocity": 85}, {"time": 3656, "pitch": 57, "duration": 8, "velocity": 79}, {"time": 3656, "pitch": 60, "duration": 9, "velocity": 84}, {"time": 3662, "pitch": 48, "duration": 31, "velocity": 73}, {"time": 3668, "pitch": 57, "duration": 5, "velocity": 86}, {"time": 3674, "pitch": 57, "duration": 15, "velocity": 73}, {"time": 3674, "pitch": 64, "duration": 17, "velocity": 85}, {"time": 3704, "pitch": 40, "duration": 35, "velocity": 85}, {"time": 3704, "pitch": 67, "duration": 18, "velocity": 84}, {"time": 3710, "pitch": 47, "duration": 28, "velocity": 71}, {"time": 3716, "pitch": 59, "duration": 27, "velocity": 80}, {"time": 3722, "pitch": 64, "duration": 22, "velocity": 85}, {"time": 3752, "pitch": 45, "duration": 27, "velocity": 84}, {"time": 3752, "pitch": 72, "duration": 12, "velocity": 84}, {"time": 3758, "pitch": 52, "duration": 15, "velocity": 77}, {"time": 3764, "pitch": 71, "duration": 6, "velocity": 81}, {"time": 3770, "pitch": 67, "duration": 13, "velocity": 70}, {"time": 3782, "pitch": 64, "duration": 7, "velocity": 84}, {"time": 3800, "pitch": 38, "duration": 31, "velocity": 85}, {"time": 3800, "pitch": 62, "duration": 8, "velocity": 82}, {"time": 3800, "pitch": 65, "duration": 12, "velocity": 84}, {"time": 3806, "pitch": 45, "duration": 15, "velocity": 73}, {"time": 3812, "pitch": 62, "duration": 3, "velocity": 80}, {"time": 3818, "pitch": 62, "duration": 7, "velocity": 83}, {"time": 3818, "pitch": 65, "duration": 9, "velocity": 84}, {"time": 3824, "pitch": 45, "duration": 8, "velocity": 70}, {"time": 3830, "pitch": 64, "duration": 7, "velocity": 84}, {"time": 3836, "pitch": 62, "duration": 6, "velocity": 80}, {"time": 3842, "pitch": 60, "duration": 7, "velocity": 80}, {"time": 3848, "pitch": 43, "duration": 39, "velocity": 84}, {"time": 3848, "pitch": 62, "duration": 14, "velocity": 82}, {"time": 3854, "pitch": 50, "duration": 16, "velocity": 80}, {"time": 3860, "pitch": 55, "duration": 3, "velocity": 86}, {"time": 3866, "pitch": 55, "duration": 14, "velocity": 86}, {"time": 3866, "pitch": 62, "duration": 20, "velocity": 86}, {"time": 3872, "pitch": 50, "duration": 15, "velocity": 64}, {"time": 3878, "pitch": 67, "duration": 9, "velocity": 82}, {"time": 3884, "pitch": 55, "duration": 5, "velocity": 76}, {"time": 3896, "pitch": 40, "duration": 39, "velocity": 86}, {"time": 3896, "pitch": 59, "duration": 8, "velocity": 84}, {"time": 3896, "pitch": 67, "duration": 15, "velocity": 80}, {"time": 3902, "pitch": 47, "duration": 32, "velocity": 81}, {"time": 3908, "pitch": 59, "duration": 4, "velocity": 85}, {"time": 3914, "pitch": 59, "duration": 9, "velocity": 87}, {"time": 3914, "pitch": 64, "duration": 9, "velocity": 87}, {"time": 3926, "pitch": 59, "duration": 5, "velocity": 85}, {"time": 3926, "pitch": 67, "duration": 8, "velocity": 84}, {"time": 3932, "pitch": 64, "duration": 5, "velocity": 84}, {"time": 3944, "pitch": 41, "duration": 37, "velocity": 85}, {"time": 3944, "pitch": 60, "duration": 7, "velocity": 79}, {"time": 3944, "pitch": 69, "duration": 14, "velocity": 79}, {"time": 3950, "pitch": 48, "duration": 31, "velocity": 78}, {"time": 3956, "pitch": 60, "duration": 3, "velocity": 85}, {"time": 3962, "pitch": 60, "duration": 9, "velocity": 86}, {"time": 3962, "pitch": 65, "duration": 9, "velocity": 83}, {"time": 3974, "pitch": 60, "duration": 3, "velocity": 85}, {"time": 3974, "pitch": 65, "duration": 7, "velocity": 85}, {"time": 3974, "pitch": 69, "duration": 7, "velocity": 85}, {"time": 3980, "pitch": 60, "duration": 3, "velocity": 84}, {"time": 3992, "pitch": 45, "duration": 39, "velocity": 84}, {"time": 3992, "pitch": 57, "duration": 8, "velocity": 84}, {"time": 3992, "pitch": 60, "duration": 9, "velocity": 86}, {"time": 3998, "pitch": 52, "duration": 31, "velocity": 80}, {"time": 4004, "pitch": 64, "duration": 3, "velocity": 84}, {"time": 4010, "pitch": 57, "duration": 6, "velocity": 83}, {"time": 4010, "pitch": 69, "duration": 5, "velocity": 85}, {"time": 4022, "pitch": 57, "duration": 4, "velocity": 84}, {"time": 4022, "pitch": 64, "duration": 8, "velocity": 85}, {"time": 4028, "pitch": 60, "duration": 7, "velocity": 81}, {"time": 4034, "pitch": 57, "duration": 4, "velocity": 72}, {"time": 4040, "pitch": 43, "duration": 41, "velocity": 84}, {"time": 4040, "pitch": 55, "duration": 13, "velocity": 80}, {"time": 4040, "pitch": 59, "duration": 13, "velocity": 77}, {"time": 4046, "pitch": 50, "duration": 33, "velocity": 80}, {"time": 4052, "pitch": 62, "duration": 3, "velocity": 78}, {"time": 4058, "pitch": 55, "duration": 9, "velocity": 85}, {"time": 4058, "pitch": 67, "duration": 7, "velocity": 84}, {"time": 4070, "pitch": 62, "duration": 7, "velocity": 86}, {"time": 4076, "pitch": 55, "duration": 9, "velocity": 80}, {"time": 4082, "pitch": 62, "duration": 3, "velocity": 72}, {"time": 4088, "pitch": 41, "duration": 41, "velocity": 84}, {"time": 4088, "pitch": 60, "duration": 14, "velocity": 90}, {"time": 4094, "pitch": 48, "duration": 27, "velocity": 80}, {"time": 4100, "pitch": 53, "duration": 13, "velocity": 85}, {"time": 4106, "pitch": 60, "duration": 22, "velocity": 84}, {"time": 4118, "pitch": 53, "duration": 8, "velocity": 84}, {"time": 4124, "pitch": 48, "duration": 7, "velocity": 75}, {"time": 4130, "pitch": 53, "duration": 12, "velocity": 81}, {"time": 4136, "pitch": 41, "duration": 42, "velocity": 84}, {"time": 4136, "pitch": 60, "duration": 15, "velocity": 80}, {"time": 4136, "pitch": 65, "duration": 14, "velocity": 84}, {"time": 4142, "pitch": 48, "duration": 35, "velocity": 74}, {"time": 4148, "pitch": 53, "duration": 7, "velocity": 80}, {"time": 4154, "pitch": 65, "duration": 6, "velocity": 81}, {"time": 4172, "pitch": 64, "duration": 7, "velocity": 78}, {"time": 4178, "pitch": 65, "duration": 7, "velocity": 85}, {"time": 4184, "pitch": 43, "duration": 50, "velocity": 85}, {"time": 4184, "pitch": 67, "duration": 16, "velocity": 84}, {"time": 4190, "pitch": 50, "duration": 43, "velocity": 76}, {"time": 4196, "pitch": 55, "duration": 21, "velocity": 85}, {"time": 4202, "pitch": 62, "duration": 31, "velocity": 78}, {"time": 4220, "pitch": 67, "duration": 13, "velocity": 80}, {"time": 4226, "pitch": 55, "duration": 7, "velocity": 78}, {"time": 4232, "pitch": 48, "duration": 46, "velocity": 86}, {"time": 4232, "pitch": 55, "duration": 1, "velocity": 80}, {"time": 4232, "pitch": 64, "duration": 18, "velocity": 86}, {"time": 4244, "pitch": 55, "duration": 8, "velocity": 80}, {"time": 4250, "pitch": 60, "duration": 3, "velocity": 76}, {"time": 4256, "pitch": 55, "duration": 4, "velocity": 83}, {"time": 4256, "pitch": 60, "duration": 7, "velocity": 86}, {"time": 4256, "pitch": 64, "duration": 19, "velocity": 87}, {"time": 4262, "pitch": 55, "duration": 9, "velocity": 80}, {"time": 4268, "pitch": 60, "duration": 10, "velocity": 82}, {"time": 4274, "pitch": 55, "duration": 4, "velocity": 66}, {"time": 4280, "pitch": 43, "duration": 40, "velocity": 85}, {"time": 4280, "pitch": 55, "duration": 10, "velocity": 77}, {"time": 4280, "pitch": 62, "duration": 18, "velocity": 70}, {"time": 4286, "pitch": 50, "duration": 28, "velocity": 78}, {"time": 4292, "pitch": 55, "duration": 17, "velocity": 77}, {"time": 4298, "pitch": 59, "duration": 10, "velocity": 83}, {"time": 4310, "pitch": 55, "duration": 8, "velocity": 85}, {"time": 4310, "pitch": 59, "duration": 8, "velocity": 87}, {"time": 4310, "pitch": 62, "duration": 9, "velocity": 85}, {"time": 4316, "pitch": 50, "duration": 5, "velocity": 83}, {"time": 4328, "pitch": 45, "duration": 42, "velocity": 85}, {"time": 4328, "pitch": 57, "duration": 8, "velocity": 79}, {"time": 4328, "pitch": 60, "duration": 13, "velocity": 82}, {"time": 4334, "pitch": 52, "duration": 20, "velocity": 76}, {"time": 4340, "pitch": 57, "duration": 9, "velocity": 74}, {"time": 4352, "pitch": 57, "duration": 7, "velocity": 79}, {"time": 4352, "pitch": 60, "duration": 13, "velocity": 85}, {"time": 4352, "pitch": 64, "duration": 11, "velocity": 86}, {"time": 4358, "pitch": 52, "duration": 11, "velocity": 77}, {"time": 4364, "pitch": 57, "duration": 10, "velocity": 83}, {"time": 4370, "pitch": 60, "duration": 4, "velocity": 79}, {"time": 4376, "pitch": 43, "duration": 43, "velocity": 84}, {"time": 4376, "pitch": 55, "duration": 7, "velocity": 80}, {"time": 4376, "pitch": 59, "duration": 13, "velocity": 82}, {"time": 4382, "pitch": 50, "duration": 15, "velocity": 74}, {"time": 4388, "pitch": 55, "duration": 4, "velocity": 85}, {"time": 4394, "pitch": 55, "duration": 9, "velocity": 84}, {"time": 4394, "pitch": 59, "duration": 14, "velocity": 85}, {"time": 4394, "pitch": 62, "duration": 15, "velocity": 84}, {"time": 4400, "pitch": 50, "duration": 19, "velocity": 78}, {"time": 4406, "pitch": 55, "duration": 9, "velocity": 84}, {"time": 4412, "pitch": 59, "duration": 5, "velocity": 85}, {"time": 4424, "pitch": 41, "duration": 35, "velocity": 85}, {"time": 4424, "pitch": 53, "duration": 13, "velocity": 77}, {"time": 4424, "pitch": 57, "duration": 13, "velocity": 80}, {"time": 4430, "pitch": 48, "duration": 17, "velocity": 79}, {"time": 4436, "pitch": 60, "duration": 4, "velocity": 80}, {"time": 4442, "pitch": 53, "duration": 9, "velocity": 84}, {"time": 4442, "pitch": 65, "duration": 10, "velocity": 85}, {"time": 4448, "pitch": 48, "duration": 9, "velocity": 70}, {"time": 4454, "pitch": 57, "duration": 3, "velocity": 85}, {"time": 4454, "pitch": 60, "duration": 4, "velocity": 86}, {"time": 4472, "pitch": 40, "duration": 35, "velocity": 84}, {"time": 4472, "pitch": 59, "duration": 7, "velocity": 81}, {"time": 4472, "pitch": 64, "duration": 13, "velocity": 85}, {"time": 4478, "pitch": 47, "duration": 28, "velocity": 83}, {"time": 4484, "pitch": 59, "duration": 3, "velocity": 84}, {"time": 4490, "pitch": 59, "duration": 9, "velocity": 87}, {"time": 4490, "pitch": 67, "duration": 11, "velocity": 82}, {"time": 4502, "pitch": 64, "duration": 7, "velocity": 86}, {"time": 4508, "pitch": 59, "duration": 3, "velocity": 80}, {"time": 4520, "pitch": 38, "duration": 22, "velocity": 86}, {"time": 4520, "pitch": 57, "duration": 8, "velocity": 82}, {"time": 4520, "pitch": 65, "duration": 14, "velocity": 83}, {"time": 4526, "pitch": 45, "duration": 14, "velocity": 68}, {"time": 4532, "pitch": 57, "duration": 9, "velocity": 84}, {"time": 4538, "pitch": 62, "duration": 4, "velocity": 72}, {"time": 4544, "pitch": 38, "duration": 13, "velocity": 87}, {"time": 4544, "pitch": 57, "duration": 7, "velocity": 78}, {"time": 4544, "pitch": 62, "duration": 14, "velocity": 85}, {"time": 4544, "pitch": 66, "duration": 14, "velocity": 84}, {"time": 4550, "pitch": 45, "duration": 7, "velocity": 66}, {"time": 4556, "pitch": 57, "duration": 4, "velocity": 84}, {"time": 4568, "pitch": 43, "duration": 32, "velocity": 84}, {"time": 4568, "pitch": 53, "duration": 4, "velocity": 75}, {"time": 4568, "pitch": 55, "duration": 4, "velocity": 73}, {"time": 4568, "pitch": 62, "duration": 11, "velocity": 84}, {"time": 4574, "pitch": 50, "duration": 15, "velocity": 79}, {"time": 4580, "pitch": 55, "duration": 4, "velocity": 84}, {"time": 4586, "pitch": 55, "duration": 9, "velocity": 86}, {"time": 4586, "pitch": 67, "duration": 10, "velocity": 84}, {"time": 4592, "pitch": 50, "duration": 10, "velocity": 64}, {"time": 4598, "pitch": 55, "duration": 5, "velocity": 85}, {"time": 4598, "pitch": 62, "duration": 5, "velocity": 84}, {"time": 4604, "pitch": 43, "duration": 3, "velocity": 83}, {"time": 4616, "pitch": 36, "duration": 35, "velocity": 80}, {"time": 4616, "pitch": 55, "duration": 7, "velocity": 85}, {"time": 4616, "pitch": 64, "duration": 14, "velocity": 85}, {"time": 4622, "pitch": 43, "duration": 28, "velocity": 71}, {"time": 4628, "pitch": 55, "duration": 3, "velocity": 81}, {"time": 4634, "pitch": 55, "duration": 4, "velocity": 86}, {"time": 4634, "pitch": 62, "duration": 5, "velocity": 85}, {"time": 4646, "pitch": 55, "duration": 5, "velocity": 82}, {"time": 4646, "pitch": 60, "duration": 6, "velocity": 81}, {"time": 4664, "pitch": 40, "duration": 36, "velocity": 86}, {"time": 4664, "pitch": 59, "duration": 7, "velocity": 81}, {"time": 4664, "pitch": 64, "duration": 14, "velocity": 84}, {"time": 4670, "pitch": 47, "duration": 29, "velocity": 74}, {"time": 4676, "pitch": 59, "duration": 3, "velocity": 74}, {"time": 4682, "pitch": 59, "duration": 5, "velocity": 80}, {"time": 4682, "pitch": 67, "duration": 12, "velocity": 81}, {"time": 4694, "pitch": 59, "duration": 3, "velocity": 77}, {"time": 4694, "pitch": 64, "duration": 8, "velocity": 84}, {"time": 4700, "pitch": 59, "duration": 4, "velocity": 77}, {"time": 4712, "pitch": 45, "duration": 22, "velocity": 84}, {"time": 4712, "pitch": 57, "duration": 9, "velocity": 78}, {"time": 4712, "pitch": 60, "duration": 14, "velocity": 83}, {"time": 4712, "pitch": 64, "duration": 14, "velocity": 85}, {"time": 4718, "pitch": 52, "duration": 16, "velocity": 78}, {"time": 4724, "pitch": 57, "duration": 8, "velocity": 85}, {"time": 4736, "pitch": 43, "duration": 16, "velocity": 84}, {"time": 4736, "pitch": 55, "duration": 8, "velocity": 84}, {"time": 4736, "pitch": 59, "duration": 14, "velocity": 82}, {"time": 4742, "pitch": 50, "duration": 10, "velocity": 80}, {"time": 4748, "pitch": 55, "duration": 8, "velocity": 91}, {"time": 4754, "pitch": 59, "duration": 5, "velocity": 78}, {"time": 4760, "pitch": 42, "duration": 33, "velocity": 85}, {"time": 4760, "pitch": 57, "duration": 8, "velocity": 79}, {"time": 4760, "pitch": 60, "duration": 9, "velocity": 84}, {"time": 4766, "pitch": 48, "duration": 31, "velocity": 73}, {"time": 4772, "pitch": 57, "duration": 5, "velocity": 86}, {"time": 4778, "pitch": 57, "duration": 15, "velocity": 73}, {"time": 4778, "pitch": 64, "duration": 17, "velocity": 85}, {"time": 4808, "pitch": 40, "duration": 35, "velocity": 85}, {"time": 4808, "pitch": 67, "duration": 18, "velocity": 84}, {"time": 4814, "pitch": 47, "duration": 28, "velocity": 71}, {"time": 4820, "pitch": 59, "duration": 27, "velocity": 80}, {"time": 4826, "pitch": 64, "duration": 22, "velocity": 85}, {"time": 4856, "pitch": 45, "duration": 27, "velocity": 84}, {"time": 4856, "pitch": 72, "duration": 12, "velocity": 84}, {"time": 4862, "pitch": 52, "duration": 15, "velocity": 77}, {"time": 4868, "pitch": 71, "duration": 6, "velocity": 81}, {"time": 4874, "pitch": 67, "duration": 13, "velocity": 70}, {"time": 4886, "pitch": 64, "duration": 7, "velocity": 84}, {"time": 4904, "pitch": 38, "duration": 31, "velocity": 85}, {"time": 4904, "pitch": 62, "duration": 8, "velocity": 82}, {"time": 4904, "pitch": 65, "duration": 12, "velocity": 84}, {"time": 4910, "pitch": 45, "duration": 15, "velocity": 73}, {"time": 4916, "pitch": 62, "duration": 3, "velocity": 80}, {"time": 4922, "pitch": 62, "duration": 7, "velocity": 83}, {"time": 4922, "pitch": 65, "duration": 9, "velocity": 84}, {"time": 4928, "pitch": 45, "duration": 8, "velocity": 70}, {"time": 4934, "pitch": 64, "duration": 7, "velocity": 84}, {"time": 4940, "pitch": 62, "duration": 6, "velocity": 80}, {"time": 4946, "pitch": 60, "duration": 7, "velocity": 80}, {"time": 4952, "pitch": 43, "duration": 39, "velocity": 84}, {"time": 4952, "pitch": 62, "duration": 14, "velocity": 82}, {"time": 4958, "pitch": 50, "duration": 16, "velocity": 80}, {"time": 4964, "pitch": 55, "duration": 3, "velocity": 86}, {"time": 4970, "pitch": 55, "duration": 14, "velocity": 86}, {"time": 4970, "pitch": 62, "duration": 20, "velocity": 86}, {"time": 4976, "pitch": 50, "duration": 15, "velocity": 64}, {"time": 4982, "pitch": 67, "duration": 9, "velocity": 82}, {"time": 4988, "pitch": 55, "duration": 5, "velocity": 76}, {"time": 5000, "pitch": 48, "duration": 17, "velocity": 77}, {"time": 5000, "pitch": 55, "duration": 12, "velocity": 73}, {"time": 5000, "pitch": 64, "duration": 19, "velocity": 83}, {"time": 5019, "pitch": 55, "duration": 18, "velocity": 73}, {"time": 5019, "pitch": 59, "duration": 24, "velocity": 78}, {"time": 5019, "pitch": 43, "duration": 20, "velocity": 72}, {"time": 5042, "pitch": 57, "duration": 14, "velocity": 70}, {"time": 5042, "pitch": 60, "duration": 19, "velocity": 71}, {"time": 5042, "pitch": 45, "duration": 54, "velocity": 60}, {"time": 5053, "pitch": 52, "duration": 43, "velocity": 70}, {"time": 5060, "pitch": 57, "duration": 37, "velocity": 78}, {"time": 5066, "pitch": 60, "duration": 31, "velocity": 74}, {"time": 5096, "pitch": 45, "duration": 14, "velocity": 80}, {"time": 5096, "pitch": 57, "duration": 1, "velocity": 72}, {"time": 5096, "pitch": 64, "duration": 13, "velocity": 84}, {"time": 5102, "pitch": 52, "duration": 8, "velocity": 72}, {"time": 5108, "pitch": 57, "duration": 3, "velocity": 75}, {"time": 5114, "pitch": 43, "duration": 18, "velocity": 80}, {"time": 5114, "pitch": 55, "duration": 15, "velocity": 70}, {"time": 5114, "pitch": 59, "duration": 16, "velocity": 74}, {"time": 5126, "pitch": 50, "duration": 4, "velocity": 71}, {"time": 5132, "pitch": 55, "duration": 4, "velocity": 82}, {"time": 5138, "pitch": 36, "duration": 5, "velocity": 80}, {"time": 5138, "pitch": 55, "duration": 10, "velocity": 77}, {"time": 5138, "pitch": 60, "duration": 11, "velocity": 79}, {"time": 5150, "pitch": 48, "duration": 41, "velocity": 64}, {"time": 5156, "pitch": 55, "duration": 34, "velocity": 70}, {"time": 5162, "pitch": 62, "duration": 8, "velocity": 79}, {"time": 5168, "pitch": 64, "duration": 9, "velocity": 85}, {"time": 5180, "pitch": 60, "duration": 3, "velocity": 73}, {"time": 5180, "pitch": 64, "duration": 10, "velocity": 83}, {"time": 5180, "pitch": 67, "duration": 10, "velocity": 78}, {"time": 5186, "pitch": 62, "duration": 6, "velocity": 73}, {"time": 5192, "pitch": 48, "duration": 24, "velocity": 82}, {"time": 5192, "pitch": 64, "duration": 12, "velocity": 85}, {"time": 5198, "pitch": 55, "duration": 9, "velocity": 77}, {"time": 5204, "pitch": 60, "duration": 8, "velocity": 75}, {"time": 5210, "pitch": 64, "duration": 8, "velocity": 83}, {"time": 5216, "pitch": 43, "duration": 21, "velocity": 80}, {"time": 5216, "pitch": 62, "duration": 13, "velocity": 80}, {"time": 5222, "pitch": 50, "duration": 16, "velocity": 71}, {"time": 5228, "pitch": 55, "duration": 8, "velocity": 84}, {"time": 5234, "pitch": 59, "duration": 7, "velocity": 77}, {"time": 5240, "pitch": 45, "duration": 21, "velocity": 84}, {"time": 5240, "pitch": 60, "duration": 14, "velocity": 79}, {"time": 5246, "pitch": 52, "duration": 14, "velocity": 75}, {"time": 5252, "pitch": 57, "duration": 8, "velocity": 74}, {"time": 5258, "pitch": 60, "duration": 7, "velocity": 76}, {"time": 5264, "pitch": 43, "duration": 20, "velocity": 84}, {"time": 5264, "pitch": 55, "duration": 8, "velocity": 80}, {"time": 5264, "pitch": 59, "duration": 13, "velocity": 80}, {"time": 5270, "pitch": 50, "duration": 11, "velocity": 77}, {"time": 5276, "pitch": 55, "duration": 9, "velocity": 88}, {"time": 5282, "pitch": 59, "duration": 3, "velocity": 71}, {"time": 5288, "pitch": 41, "duration": 48, "velocity": 83}, {"time": 5288, "pitch": 53, "duration": 7, "velocity": 77}, {"time": 5288, "pitch": 57, "duration": 13, "velocity": 84}, {"time": 5294, "pitch": 48, "duration": 41, "velocity": 71}, {"time": 5300, "pitch": 53, "duration": 19, "velocity": 79}, {"time": 5306, "pitch": 60, "duration": 13, "velocity": 79}, {"time": 5318, "pitch": 65, "duration": 4, "velocity": 79}, {"time": 5334, "pitch": 55, "duration": 5, "velocity": 66}, {"time": 5336, "pitch": 59, "duration": 7, "velocity": 80}, {"time": 5337, "pitch": 43, "duration": 43, "velocity": 84}, {"time": 5337, "pitch": 62, "duration": 7, "velocity": 73}, {"time": 5338, "pitch": 67, "duration": 10, "velocity": 81}, {"time": 5343, "pitch": 50, "duration": 37, "velocity": 73}, {"time": 5348, "pitch": 55, "duration": 20, "velocity": 79}, {"time": 5354, "pitch": 62, "duration": 34, "velocity": 76}, {"time": 5366, "pitch": 67, "duration": 22, "velocity": 77}, {"time": 5493, "pitch": 55, "duration": 20, "velocity": 77}, {"time": 5495, "pitch": 36, "duration": 95, "velocity": 79}, {"time": 5501, "pitch": 43, "duration": 87, "velocity": 75}, {"time": 5507, "pitch": 62, "duration": 9, "velocity": 74}, {"time": 5513, "pitch": 64, "duration": 8, "velocity": 73}, {"time": 5521, "pitch": 67, "duration": 4, "velocity": 79}, {"time": 5529, "pitch": 72, "duration": 5, "velocity": 80}, {"time": 5537, "pitch": 74, "duration": 3, "velocity": 77}, {"time": 5547, "pitch": 76, "duration": 11, "velocity": 74}, {"time": 5558, "pitch": 79, "duration": 4, "velocity": 69}, {"time": 5570, "pitch": 76, "duration": 3, "velocity": 63}, {"time": 5572, "pitch": 79, "duration": 4, "velocity": 71}, {"time": 5574, "pitch": 84, "duration": 4, "velocity": 78}], "annotations": [{"time": 106, "annotation": {"number": 64, "value": 127}, "group": "control_change"}, {"time": 122, "annotation": {"number": 64, "value": 0}, "group": "control_change"}, {"time": 133, "annotation": {"number": 64, "value": 127}, "group": "control_change"}, {"time": 144, "annotation": {"number": 64, "value": 0}, "group": "control_change"}, {"time": 146, "annotation": {"number": 64, "value": 127}, "group": "control_change"}, {"time": 201, "annotation": {"number": 64, "value": 127}, "group": "control_change"}, {"time": 223, "annotation": {"number": 64, "value": 0}, "group": "control_change"}, {"time": 226, "annotation": {"number": 64, "value": 0}, "group": "control_change"}, {"time": 229, "annotation": {"number": 64, "value": 127}, "group": "control_change"}, {"time": 230, "annotation": {"number": 64, "value": 0}, "group": "control_change"}, {"time": 230, "annotation": {"number": 64, "value": 127}, "group": "control_change"}, {"time": 246, "annotation": {"number": 64, "value": 0}, "group": "control_change"}, {"time": 250, "annotation": {"number": 64, "value": 127}, "group": "control_change"}, {"time": 270, "annotation": {"number": 64, "value": 0}, "group": "control_change"}, {"time": 274, "annotation": {"number": 64, "value": 127}, "group": "control_change"}, {"time": 294, "annotation": {"number": 64, "value": 0}, "group": "control_change"}, {"time": 298, "annotation": {"number": 64, "value": 127}, "group": "control_change"}, {"time": 347, "annotation": {"number": 64, "value": 127}, "group": "control_change"}, {"time": 373, "annotation": {"number": 64, "value": 0}, "group": "control_change"}, {"time": 390, "annotation": {"number": 64, "value": 0}, "group": "control_change"}, {"time": 487, "annotation": {"number": 64, "value": 0}, "group": "control_change"}, {"time": 491, "annotation": {"number": 64, "value": 127}, "group": "control_change"}, {"time": 583, "annotation": {"number": 64, "value": 0}, "group": "control_change"}, {"time": 587, "annotation": {"number": 64, "value": 127}, "group": "control_change"}, {"time": 631, "annotation": {"number": 64, "value": 0}, "group": "control_change"}, {"time": 636, "annotation": {"number": 64, "value": 127}, "group": "control_change"}, {"time": 681, "annotation": {"number": 64, "value": 0}, "group": "control_change"}, {"time": 685, "annotation": {"number": 64, "value": 127}, "group": "control_change"}, {"time": 729, "annotation": {"number": 64, "value": 0}, "group": "control_change"}, {"time": 732, "annotation": {"number": 64, "value": 127}, "group": "control_change"}, {"time": 774, "annotation": {"number": 64, "value": 0}, "group": "control_change"}, {"time": 777, "annotation": {"number": 64, "value": 127}, "group": "control_change"}, {"time": 823, "annotation": {"number": 64, "value": 0}, "group": "control_change"}, {"time": 826, "annotation": {"number": 64, "value": 127}, "group": "control_change"}, {"time": 871, "annotation": {"number": 64, "value": 0}, "group": "control_change"}, {"time": 876, "annotation": {"number": 64, "value": 127}, "group": "control_change"}, {"time": 921, "annotation": {"number": 64, "value": 0}, "group": "control_change"}, {"time": 924, "annotation": {"number": 64, "value": 127}, "group": "control_change"}, {"time": 966, "annotation": {"number": 64, "value": 0}, "group": "control_change"}, {"time": 969, "annotation": {"number": 64, "value": 127}, "group": "control_change"}, {"time": 1015, "annotation": {"number": 64, "value": 0}, "group": "control_change"}, {"time": 1019, "annotation": {"number": 64, "value": 127}, "group": "control_change"}, {"time": 1063, "annotation": {"number": 64, "value": 0}, "group": "control_change"}, {"time": 1066, "annotation": {"number": 64, "value": 127}, "group": "control_change"}, {"time": 1110, "annotation": {"number": 64, "value": 0}, "group": "control_change"}, {"time": 1113, "annotation": {"number": 64, "value": 127}, "group": "control_change"}, {"time": 1154, "annotation": {"number": 64, "value": 0}, "group": "control_change"}, {"time": 1208, "annotation": {"number": 64, "value": 0}, "group": "control_change"}, {"time": 1210, "annotation": {"number": 64, "value": 127}, "group": "control_change"}, {"time": 1256, "annotation": {"number": 64, "value": 0}, "group": "control_change"}, {"time": 1260, "annotation": {"number": 64, "value": 127}, "group": "control_change"}, {"time": 1303, "annotation": {"number": 64, "value": 0}, "group": "control_change"}, {"time": 1307, "annotation": {"number": 64, "value": 127}, "group": "control_change"}, {"time": 1351, "annotation": {"number": 64, "value": 0}, "group": "control_change"}, {"time": 1353, "annotation": {"number": 64, "value": 127}, "group": "control_change"}, {"time": 1399, "annotation": {"number": 64, "value": 0}, "group": "control_change"}, {"time": 1402, "annotation": {"number": 64, "value": 127}, "group": "control_change"}, {"time": 1446, "annotation": {"number": 64, "value": 0}, "group": "control_change"}, {"time": 1449, "annotation": {"number": 64, "value": 127}, "group": "control_change"}, {"time": 1495, "annotation": {"number": 64, "value": 0}, "group": "control_change"}, {"time": 1499, "annotation": {"number": 64, "value": 127}, "group": "control_change"}, {"time": 1543, "annotation": {"number": 64, "value": 0}, "group": "control_change"}, {"time": 1546, "annotation": {"number": 64, "value": 127}, "group": "control_change"}, {"time": 1591, "annotation": {"number": 64, "value": 0}, "group": "control_change"}, {"time": 1594, "annotation": {"number": 64, "value": 127}, "group": "control_change"}, {"time": 1638, "annotation": {"number": 64, "value": 0}, "group": "control_change"}, {"time": 1642, "annotation": {"number": 64, "value": 127}, "group": "control_change"}, {"time": 1662, "annotation": {"number": 64, "value": 0}, "group": "control_change"}, {"time": 1664, "annotation": {"number": 64, "value": 127}, "group": "control_change"}, {"time": 1686, "annotation": {"number": 64, "value": 0}, "group": "control_change"}, {"time": 1689, "annotation": {"number": 64, "value": 127}, "group": "control_change"}, {"time": 1737, "annotation": {"number": 64, "value": 127}, "group": "control_change"}, {"time": 1784, "annotation": {"number": 64, "value": 0}, "group": "control_change"}, {"time": 1786, "annotation": {"number": 64, "value": 127}, "group": "control_change"}, {"time": 1829, "annotation": {"number": 64, "value": 0}, "group": "control_change"}, {"time": 1833, "annotation": {"number": 64, "value": 127}, "group": "control_change"}, {"time": 1878, "annotation": {"number": 64, "value": 0}, "group": "control_change"}, {"time": 1883, "annotation": {"number": 64, "value": 127}, "group": "control_change"}, {"time": 2119, "annotation": {"number": 64, "value": 0}, "group": "control_change"}, {"time": 2122, "annotation": {"number": 64, "value": 127}, "group": "control_change"}, {"time": 2168, "annotation": {"number": 64, "value": 0}, "group": "control_change"}, {"time": 2171, "annotation": {"number": 64, "value": 127}, "group": "control_change"}, {"time": 2217, "annotation": {"number": 64, "value": 0}, "group": "control_change"}, {"time": 2220, "annotation": {"number": 64, "value": 127}, "group": "control_change"}, {"time": 2263, "annotation": {"number": 64, "value": 0}, "group": "control_change"}, {"time": 2265, "annotation": {"number": 64, "value": 127}, "group": "control_change"}, {"time": 2288, "annotation": {"number": 64, "value": 0}, "group": "control_change"}, {"time": 2290, "annotation": {"number": 64, "value": 127}, "group": "control_change"}, {"time": 2311, "annotation": {"number": 64, "value": 0}, "group": "control_change"}, {"time": 2407, "annotation": {"number": 64, "value": 0}, "group": "control_change"}, {"time": 2411, "annotation": {"number": 64, "value": 127}, "group": "control_change"}, {"time": 2503, "annotation": {"number": 64, "value": 0}, "group": "control_change"}, {"time": 2507, "annotation": {"number": 64, "value": 127}, "group": "control_change"}, {"time": 2551, "annotation": {"number": 64, "value": 0}, "group": "control_change"}, {"time": 2556, "annotation": {"number": 64, "value": 127}, "group": "control_change"}, {"time": 2601, "annotation": {"number": 64, "value": 0}, "group": "control_change"}, {"time": 2605, "annotation": {"number": 64, "value": 127}, "group": "control_change"}, {"time": 2649, "annotation": {"number": 64, "value": 0}, "group": "control_change"}, {"time": 2652, "annotation": {"number": 64, "value": 127}, "group": "control_change"}, {"time": 2694, "annotation": {"number": 64, "value": 0}, "group": "control_change"}, {"time": 2697, "annotation": {"number": 64, "value": 127}, "group": "control_change"}, {"time": 2743, "annotation": {"number": 64, "value": 0}, "group": "control_change"}, {"time": 2746, "annotation": {"number": 64, "value": 127}, "group": "control_change"}, {"time": 2791, "annotation": {"number": 64, "value": 0}, "group": "control_change"}, {"time": 2796, "annotation": {"number": 64, "value": 127}, "group": "control_change"}, {"time": 2841, "annotation": {"number": 64, "value": 0}, "group": "control_change"}, {"time": 2844, "annotation": {"number": 64, "value": 127}, "group": "control_change"}, {"time": 2886, "annotation": {"number": 64, "value": 0}, "group": "control_change"}, {"time": 2889, "annotation": {"number": 64, "value": 127}, "group": "control_change"}, {"time": 2935, "annotation": {"number": 64, "value": 0}, "group": "control_change"}, {"time": 2939, "annotation": {"number": 64, "value": 127}, "group": "control_change"}, {"time": 2983, "annotation": {"number": 64, "value": 0}, "group": "control_change"}, {"time": 2986, "annotation": {"number": 64, "value": 127}, "group": "control_change"}, {"time": 3030, "annotation": {"number": 64, "value": 0}, "group": "control_change"}, {"time": 3033, "annotation": {"number": 64, "value": 127}, "group": "control_change"}, {"time": 3074, "annotation": {"number": 64, "value": 0}, "group": "control_change"}, {"time": 3081, "annotation": {"number": 64, "value": 127}, "group": "control_change"}, {"time": 3126, "annotation": {"number": 64, "value": 0}, "group": "control_change"}, {"time": 3178, "annotation": {"number": 64, "value": 0}, "group": "control_change"}, {"time": 3182, "annotation": {"number": 64, "value": 127}, "group": "control_change"}, {"time": 3223, "annotation": {"number": 64, "value": 0}, "group": "control_change"}, {"time": 3225, "annotation": {"number": 64, "value": 127}, "group": "control_change"}, {"time": 3272, "annotation": {"number": 64, "value": 0}, "group": "control_change"}, {"time": 3275, "annotation": {"number": 64, "value": 127}, "group": "control_change"}, {"time": 3321, "annotation": {"number": 64, "value": 0}, "group": "control_change"}, {"time": 3324, "annotation": {"number": 64, "value": 127}, "group": "control_change"}, {"time": 3367, "annotation": {"number": 64, "value": 0}, "group": "control_change"}, {"time": 3370, "annotation": {"number": 64, "value": 127}, "group": "control_change"}, {"time": 3413, "annotation": {"number": 64, "value": 0}, "group": "control_change"}, {"time": 3417, "annotation": {"number": 64, "value": 127}, "group": "control_change"}, {"time": 3439, "annotation": {"number": 64, "value": 0}, "group": "control_change"}, {"time": 3441, "annotation": {"number": 64, "value": 127}, "group": "control_change"}, {"time": 3463, "annotation": {"number": 64, "value": 0}, "group": "control_change"}, {"time": 3467, "annotation": {"number": 64, "value": 127}, "group": "control_change"}, {"time": 3509, "annotation": {"number": 64, "value": 0}, "group": "control_change"}, {"time": 3513, "annotation": {"number": 64, "value": 127}, "group": "control_change"}, {"time": 3560, "annotation": {"number": 64, "value": 0}, "group": "control_change"}, {"time": 3563, "annotation": {"number": 64, "value": 127}, "group": "control_change"}, {"time": 3608, "annotation": {"number": 64, "value": 127}, "group": "control_change"}, {"time": 3633, "annotation": {"number": 64, "value": 0}, "group": "control_change"}, {"time": 3636, "annotation": {"number": 64, "value": 127}, "group": "control_change"}, {"time": 3655, "annotation": {"number": 64, "value": 0}, "group": "control_change"}, {"time": 3657, "annotation": {"number": 64, "value": 127}, "group": "control_change"}, {"time": 3704, "annotation": {"number": 64, "value": 0}, "group": "control_change"}, {"time": 3705, "annotation": {"number": 64, "value": 127}, "group": "control_change"}, {"time": 3751, "annotation": {"number": 64, "value": 0}, "group": "control_change"}, {"time": 3754, "annotation": {"number": 64, "value": 127}, "group": "control_change"}, {"time": 3801, "annotation": {"number": 64, "value": 0}, "group": "control_change"}, {"time": 3804, "annotation": {"number": 64, "value": 127}, "group": "control_change"}, {"time": 3845, "annotation": {"number": 64, "value": 0}, "group": "control_change"}, {"time": 3850, "annotation": {"number": 64, "value": 127}, "group": "control_change"}, {"time": 3892, "annotation": {"number": 64, "value": 0}, "group": "control_change"}, {"time": 3895, "annotation": {"number": 64, "value": 127}, "group": "control_change"}, {"time": 3943, "annotation": {"number": 64, "value": 0}, "group": "control_change"}, {"time": 3946, "annotation": {"number": 64, "value": 127}, "group": "control_change"}, {"time": 3991, "annotation": {"number": 64, "value": 0}, "group": "control_change"}, {"time": 3995, "annotation": {"number": 64, "value": 127}, "group": "control_change"}, {"time": 4039, "annotation": {"number": 64, "value": 0}, "group": "control_change"}, {"time": 4042, "annotation": {"number": 64, "value": 127}, "group": "control_change"}, {"time": 4087, "annotation": {"number": 64, "value": 0}, "group": "control_change"}, {"time": 4090, "annotation": {"number": 64, "value": 127}, "group": "control_change"}, {"time": 4134, "annotation": {"number": 64, "value": 0}, "group": "control_change"}, {"time": 4137, "annotation": {"number": 64, "value": 127}, "group": "control_change"}, {"time": 4182, "annotation": {"number": 64, "value": 0}, "group": "control_change"}, {"time": 4186, "annotation": {"number": 64, "value": 127}, "group": "control_change"}, {"time": 4230, "annotation": {"number": 64, "value": 0}, "group": "control_change"}, {"time": 4282, "annotation": {"number": 64, "value": 0}, "group": "control_change"}, {"time": 4286, "annotation": {"number": 64, "value": 127}, "group": "control_change"}, {"time": 4327, "annotation": {"number": 64, "value": 0}, "group": "control_change"}, {"time": 4329, "annotation": {"number": 64, "value": 127}, "group": "control_change"}, {"time": 4376, "annotation": {"number": 64, "value": 0}, "group": "control_change"}, {"time": 4379, "annotation": {"number": 64, "value": 127}, "group": "control_change"}, {"time": 4425, "annotation": {"number": 64, "value": 0}, "group": "control_change"}, {"time": 4428, "annotation": {"number": 64, "value": 127}, "group": "control_change"}, {"time": 4471, "annotation": {"number": 64, "value": 0}, "group": "control_change"}, {"time": 4474, "annotation": {"number": 64, "value": 127}, "group": "control_change"}, {"time": 4517, "annotation": {"number": 64, "value": 0}, "group": "control_change"}, {"time": 4521, "annotation": {"number": 64, "value": 127}, "group": "control_change"}, {"time": 4543, "annotation": {"number": 64, "value": 0}, "group": "control_change"}, {"time": 4545, "annotation": {"number": 64, "value": 127}, "group": "control_change"}, {"time": 4567, "annotation": {"number": 64, "value": 0}, "group": "control_change"}, {"time": 4571, "annotation": {"number": 64, "value": 127}, "group": "control_change"}, {"time": 4613, "annotation": {"number": 64, "value": 0}, "group": "control_change"}, {"time": 4617, "annotation": {"number": 64, "value": 127}, "group": "control_change"}, {"time": 4664, "annotation": {"number": 64, "value": 0}, "group": "control_change"}, {"time": 4667, "annotation": {"number": 64, "value": 127}, "group": "control_change"}, {"time": 4712, "annotation": {"number": 64, "value": 127}, "group": "control_change"}, {"time": 4737, "annotation": {"number": 64, "value": 0}, "group": "control_change"}, {"time": 4740, "annotation": {"number": 64, "value": 127}, "group": "control_change"}, {"time": 4759, "annotation": {"number": 64, "value": 0}, "group": "control_change"}, {"time": 4761, "annotation": {"number": 64, "value": 127}, "group": "control_change"}, {"time": 4808, "annotation": {"number": 64, "value": 0}, "group": "control_change"}, {"time": 4809, "annotation": {"number": 64, "value": 127}, "group": "control_change"}, {"time": 4855, "annotation": {"number": 64, "value": 0}, "group": "control_change"}, {"time": 4858, "annotation": {"number": 64, "value": 127}, "group": "control_change"}, {"time": 4905, "annotation": {"number": 64, "value": 0}, "group": "control_change"}, {"time": 4908, "annotation": {"number": 64, "value": 127}, "group": "control_change"}, {"time": 4949, "annotation": {"number": 64, "value": 0}, "group": "control_change"}, {"time": 4954, "annotation": {"number": 64, "value": 127}, "group": "control_change"}, {"time": 4996, "annotation": {"number": 64, "value": 0}, "group": "control_change"}, {"time": 4999, "annotation": {"number": 64, "value": 127}, "group": "control_change"}, {"time": 5001, "annotation": {"number": 64, "value": 127}, "group": "control_change"}, {"time": 5002, "annotation": {"number": 64, "value": 0}, "group": "control_change"}, {"time": 5002, "annotation": {"number": 64, "value": 127}, "group": "control_change"}, {"time": 5017, "annotation": {"number": 64, "value": 0}, "group": "control_change"}, {"time": 5098, "annotation": {"number": 64, "value": 127}, "group": "control_change"}, {"time": 5114, "annotation": {"number": 64, "value": 0}, "group": "control_change"}, {"time": 5125, "annotation": {"number": 64, "value": 127}, "group": "control_change"}, {"time": 5136, "annotation": {"number": 64, "value": 0}, "group": "control_change"}, {"time": 5138, "annotation": {"number": 64, "value": 127}, "group": "control_change"}, {"time": 5193, "annotation": {"number": 64, "value": 127}, "group": "control_change"}, {"time": 5215, "annotation": {"number": 64, "value": 0}, "group": "control_change"}, {"time": 5218, "annotation": {"number": 64, "value": 0}, "group": "control_change"}, {"time": 5221, "annotation": {"number": 64, "value": 127}, "group": "control_change"}, {"time": 5222, "annotation": {"number": 64, "value": 0}, "group": "control_change"}, {"time": 5222, "annotation": {"number": 64, "value": 127}, "group": "control_change"}, {"time": 5238, "annotation": {"number": 64, "value": 0}, "group": "control_change"}, {"time": 5242, "annotation": {"number": 64, "value": 127}, "group": "control_change"}, {"time": 5262, "annotation": {"number": 64, "value": 0}, "group": "control_change"}, {"time": 5266, "annotation": {"number": 64, "value": 127}, "group": "control_change"}, {"time": 5286, "annotation": {"number": 64, "value": 0}, "group": "control_change"}, {"time": 5290, "annotation": {"number": 64, "value": 127}, "group": "control_change"}, {"time": 5337, "annotation": {"number": 64, "value": 127}, "group": "control_change"}, {"time": 5338, "annotation": {"number": 64, "value": 0}, "group": "control_change"}, {"time": 5338, "annotation": {"number": 64, "value": 127}, "group": "control_change"}, {"time": 5493, "annotation": {"number": 64, "value": 0}, "group": "control_change"}, {"time": 5497, "annotation": {"number": 64, "value": 127}, "group": "control_change"}, {"time": 5669, "annotation": {"number": 64, "value": 0}, "group": "control_change"}]}]}