{"metadata": {"schema_version": "0.2", "title": "None", "source_filename": "715.mid", "source_format": "midi"}, "resolution": 12, "tempos": [{"time": 0, "qpm": 92.00012880018032}], "time_signatures": [{"time": 0, "numerator": 1, "denominator": 4}], "tracks": [{"program": 0, "is_drum": false, "name": "MELODY", "notes": [{"time": 409, "pitch": 68, "duration": 5, "velocity": 86}, {"time": 415, "pitch": 67, "duration": 5, "velocity": 90}, {"time": 421, "pitch": 65, "duration": 16, "velocity": 90}, {"time": 439, "pitch": 63, "duration": 7, "velocity": 88}, {"time": 445, "pitch": 60, "duration": 7, "velocity": 87}, {"time": 451, "pitch": 63, "duration": 6, "velocity": 87}, {"time": 457, "pitch": 65, "duration": 6, "velocity": 88}, {"time": 463, "pitch": 67, "duration": 6, "velocity": 87}, {"time": 469, "pitch": 65, "duration": 32, "velocity": 90}, {"time": 505, "pitch": 68, "duration": 5, "velocity": 87}, {"time": 511, "pitch": 67, "duration": 6, "velocity": 89}, {"time": 517, "pitch": 65, "duration": 15, "velocity": 92}, {"time": 535, "pitch": 63, "duration": 5, "velocity": 88}, {"time": 541, "pitch": 60, "duration": 5, "velocity": 88}, {"time": 547, "pitch": 63, "duration": 5, "velocity": 88}, {"time": 553, "pitch": 65, "duration": 4, "velocity": 89}, {"time": 559, "pitch": 60, "duration": 6, "velocity": 90}, {"time": 565, "pitch": 58, "duration": 31, "velocity": 83}, {"time": 601, "pitch": 58, "duration": 4, "velocity": 87}, {"time": 607, "pitch": 60, "duration": 5, "velocity": 87}, {"time": 613, "pitch": 63, "duration": 15, "velocity": 87}, {"time": 631, "pitch": 60, "duration": 4, "velocity": 89}, {"time": 637, "pitch": 65, "duration": 5, "velocity": 86}, {"time": 643, "pitch": 67, "duration": 6, "velocity": 84}, {"time": 649, "pitch": 65, "duration": 5, "velocity": 92}, {"time": 655, "pitch": 63, "duration": 5, "velocity": 87}, {"time": 661, "pitch": 65, "duration": 6, "velocity": 87}, {"time": 667, "pitch": 63, "duration": 6, "velocity": 83}, {"time": 673, "pitch": 60, "duration": 7, "velocity": 89}, {"time": 679, "pitch": 58, "duration": 6, "velocity": 76}, {"time": 685, "pitch": 56, "duration": 11, "velocity": 88}, {"time": 697, "pitch": 65, "duration": 3, "velocity": 93}, {"time": 703, "pitch": 68, "duration": 4, "velocity": 86}, {"time": 709, "pitch": 70, "duration": 4, "velocity": 86}, {"time": 715, "pitch": 70, "duration": 9, "velocity": 88}, {"time": 727, "pitch": 67, "duration": 4, "velocity": 87}, {"time": 733, "pitch": 65, "duration": 4, "velocity": 88}, {"time": 739, "pitch": 60, "duration": 5, "velocity": 88}, {"time": 745, "pitch": 67, "duration": 5, "velocity": 86}, {"time": 751, "pitch": 65, "duration": 4, "velocity": 86}, {"time": 757, "pitch": 63, "duration": 34, "velocity": 86}, {"time": 793, "pitch": 68, "duration": 5, "velocity": 86}, {"time": 799, "pitch": 67, "duration": 5, "velocity": 90}, {"time": 805, "pitch": 65, "duration": 16, "velocity": 90}, {"time": 823, "pitch": 63, "duration": 7, "velocity": 88}, {"time": 829, "pitch": 60, "duration": 7, "velocity": 87}, {"time": 835, "pitch": 63, "duration": 6, "velocity": 87}, {"time": 841, "pitch": 65, "duration": 6, "velocity": 88}, {"time": 847, "pitch": 67, "duration": 6, "velocity": 87}, {"time": 853, "pitch": 65, "duration": 32, "velocity": 90}, {"time": 889, "pitch": 68, "duration": 5, "velocity": 87}, {"time": 895, "pitch": 67, "duration": 6, "velocity": 89}, {"time": 901, "pitch": 65, "duration": 15, "velocity": 92}, {"time": 919, "pitch": 63, "duration": 5, "velocity": 88}, {"time": 925, "pitch": 60, "duration": 5, "velocity": 88}, {"time": 931, "pitch": 63, "duration": 5, "velocity": 88}, {"time": 937, "pitch": 65, "duration": 4, "velocity": 89}, {"time": 943, "pitch": 60, "duration": 6, "velocity": 90}, {"time": 949, "pitch": 58, "duration": 31, "velocity": 83}, {"time": 985, "pitch": 58, "duration": 4, "velocity": 87}, {"time": 991, "pitch": 60, "duration": 5, "velocity": 87}, {"time": 997, "pitch": 63, "duration": 15, "velocity": 87}, {"time": 1015, "pitch": 60, "duration": 4, "velocity": 89}, {"time": 1021, "pitch": 65, "duration": 5, "velocity": 86}, {"time": 1027, "pitch": 67, "duration": 6, "velocity": 84}, {"time": 1033, "pitch": 65, "duration": 5, "velocity": 92}, {"time": 1039, "pitch": 63, "duration": 5, "velocity": 87}, {"time": 1045, "pitch": 65, "duration": 6, "velocity": 87}, {"time": 1051, "pitch": 63, "duration": 6, "velocity": 83}, {"time": 1057, "pitch": 60, "duration": 7, "velocity": 89}, {"time": 1063, "pitch": 58, "duration": 6, "velocity": 76}, {"time": 1069, "pitch": 56, "duration": 11, "velocity": 88}, {"time": 1081, "pitch": 65, "duration": 3, "velocity": 93}, {"time": 1087, "pitch": 68, "duration": 4, "velocity": 86}, {"time": 1093, "pitch": 70, "duration": 4, "velocity": 86}, {"time": 1099, "pitch": 70, "duration": 6, "velocity": 88}, {"time": 1105, "pitch": 70, "duration": 6, "velocity": 88}, {"time": 1111, "pitch": 67, "duration": 6, "velocity": 88}, {"time": 1117, "pitch": 65, "duration": 6, "velocity": 88}, {"time": 1123, "pitch": 60, "duration": 6, "velocity": 88}, {"time": 1129, "pitch": 63, "duration": 6, "velocity": 86}, {"time": 1135, "pitch": 65, "duration": 6, "velocity": 89}, {"time": 1141, "pitch": 68, "duration": 34, "velocity": 86}, {"time": 1177, "pitch": 65, "duration": 9, "velocity": 95}, {"time": 1189, "pitch": 72, "duration": 36, "velocity": 86}, {"time": 1225, "pitch": 65, "duration": 12, "velocity": 91}, {"time": 1237, "pitch": 63, "duration": 34, "velocity": 87}, {"time": 1273, "pitch": 60, "duration": 11, "velocity": 92}, {"time": 1285, "pitch": 68, "duration": 31, "velocity": 86}, {"time": 1321, "pitch": 60, "duration": 12, "velocity": 87}, {"time": 1333, "pitch": 58, "duration": 33, "velocity": 89}, {"time": 1369, "pitch": 58, "duration": 4, "velocity": 89}, {"time": 1375, "pitch": 60, "duration": 5, "velocity": 87}, {"time": 1381, "pitch": 63, "duration": 14, "velocity": 87}, {"time": 1399, "pitch": 65, "duration": 5, "velocity": 92}, {"time": 1405, "pitch": 68, "duration": 5, "velocity": 86}, {"time": 1411, "pitch": 68, "duration": 9, "velocity": 87}, {"time": 1423, "pitch": 67, "duration": 6, "velocity": 86}, {"time": 1429, "pitch": 65, "duration": 4, "velocity": 89}, {"time": 1435, "pitch": 60, "duration": 6, "velocity": 90}, {"time": 1441, "pitch": 67, "duration": 5, "velocity": 90}, {"time": 1447, "pitch": 65, "duration": 4, "velocity": 87}, {"time": 1453, "pitch": 63, "duration": 10, "velocity": 89}, {"time": 1465, "pitch": 63, "duration": 5, "velocity": 90}, {"time": 1471, "pitch": 65, "duration": 5, "velocity": 87}, {"time": 1477, "pitch": 72, "duration": 32, "velocity": 90}, {"time": 1513, "pitch": 65, "duration": 7, "velocity": 87}, {"time": 1519, "pitch": 67, "duration": 7, "velocity": 87}, {"time": 1525, "pitch": 63, "duration": 30, "velocity": 86}, {"time": 1561, "pitch": 60, "duration": 10, "velocity": 88}, {"time": 1573, "pitch": 68, "duration": 36, "velocity": 86}, {"time": 1609, "pitch": 60, "duration": 12, "velocity": 87}, {"time": 1621, "pitch": 58, "duration": 32, "velocity": 87}, {"time": 1657, "pitch": 58, "duration": 4, "velocity": 87}, {"time": 1663, "pitch": 60, "duration": 5, "velocity": 86}, {"time": 1669, "pitch": 63, "duration": 15, "velocity": 87}, {"time": 1687, "pitch": 65, "duration": 4, "velocity": 88}, {"time": 1693, "pitch": 68, "duration": 12, "velocity": 85}, {"time": 1705, "pitch": 60, "duration": 15, "velocity": 92}, {"time": 1729, "pitch": 65, "duration": 11, "velocity": 93}, {"time": 1741, "pitch": 72, "duration": 33, "velocity": 90}, {"time": 1777, "pitch": 65, "duration": 11, "velocity": 91}, {"time": 1789, "pitch": 68, "duration": 46, "velocity": 86}, {"time": 2209, "pitch": 68, "duration": 5, "velocity": 86}, {"time": 2215, "pitch": 67, "duration": 5, "velocity": 90}, {"time": 2221, "pitch": 65, "duration": 16, "velocity": 90}, {"time": 2239, "pitch": 63, "duration": 7, "velocity": 88}, {"time": 2245, "pitch": 60, "duration": 7, "velocity": 87}, {"time": 2251, "pitch": 63, "duration": 6, "velocity": 87}, {"time": 2257, "pitch": 65, "duration": 6, "velocity": 88}, {"time": 2263, "pitch": 67, "duration": 6, "velocity": 87}, {"time": 2269, "pitch": 65, "duration": 32, "velocity": 90}, {"time": 2305, "pitch": 68, "duration": 5, "velocity": 87}, {"time": 2311, "pitch": 67, "duration": 6, "velocity": 89}, {"time": 2317, "pitch": 65, "duration": 15, "velocity": 92}, {"time": 2335, "pitch": 63, "duration": 5, "velocity": 88}, {"time": 2341, "pitch": 60, "duration": 5, "velocity": 88}, {"time": 2347, "pitch": 63, "duration": 5, "velocity": 88}, {"time": 2353, "pitch": 65, "duration": 4, "velocity": 89}, {"time": 2359, "pitch": 60, "duration": 6, "velocity": 90}, {"time": 2365, "pitch": 58, "duration": 31, "velocity": 83}, {"time": 2401, "pitch": 58, "duration": 4, "velocity": 87}, {"time": 2407, "pitch": 60, "duration": 5, "velocity": 87}, {"time": 2413, "pitch": 63, "duration": 15, "velocity": 87}, {"time": 2431, "pitch": 60, "duration": 4, "velocity": 89}, {"time": 2437, "pitch": 65, "duration": 5, "velocity": 86}, {"time": 2443, "pitch": 67, "duration": 6, "velocity": 84}, {"time": 2449, "pitch": 65, "duration": 5, "velocity": 92}, {"time": 2455, "pitch": 63, "duration": 5, "velocity": 87}, {"time": 2461, "pitch": 65, "duration": 6, "velocity": 87}, {"time": 2467, "pitch": 63, "duration": 6, "velocity": 83}, {"time": 2473, "pitch": 60, "duration": 7, "velocity": 89}, {"time": 2479, "pitch": 58, "duration": 6, "velocity": 76}, {"time": 2485, "pitch": 56, "duration": 11, "velocity": 88}, {"time": 2497, "pitch": 65, "duration": 3, "velocity": 93}, {"time": 2503, "pitch": 68, "duration": 4, "velocity": 86}, {"time": 2509, "pitch": 70, "duration": 4, "velocity": 86}, {"time": 2515, "pitch": 70, "duration": 9, "velocity": 88}, {"time": 2527, "pitch": 67, "duration": 4, "velocity": 87}, {"time": 2533, "pitch": 65, "duration": 4, "velocity": 88}, {"time": 2539, "pitch": 60, "duration": 5, "velocity": 88}, {"time": 2545, "pitch": 67, "duration": 5, "velocity": 86}, {"time": 2551, "pitch": 65, "duration": 4, "velocity": 86}, {"time": 2557, "pitch": 63, "duration": 34, "velocity": 86}, {"time": 2593, "pitch": 68, "duration": 5, "velocity": 86}, {"time": 2599, "pitch": 67, "duration": 5, "velocity": 90}, {"time": 2605, "pitch": 65, "duration": 16, "velocity": 90}, {"time": 2623, "pitch": 63, "duration": 7, "velocity": 88}, {"time": 2629, "pitch": 60, "duration": 7, "velocity": 87}, {"time": 2635, "pitch": 63, "duration": 6, "velocity": 87}, {"time": 2641, "pitch": 65, "duration": 6, "velocity": 88}, {"time": 2647, "pitch": 67, "duration": 6, "velocity": 87}, {"time": 2653, "pitch": 65, "duration": 32, "velocity": 90}, {"time": 2689, "pitch": 68, "duration": 5, "velocity": 87}, {"time": 2695, "pitch": 67, "duration": 6, "velocity": 89}, {"time": 2701, "pitch": 65, "duration": 15, "velocity": 92}, {"time": 2719, "pitch": 63, "duration": 5, "velocity": 88}, {"time": 2725, "pitch": 60, "duration": 5, "velocity": 88}, {"time": 2731, "pitch": 63, "duration": 5, "velocity": 88}, {"time": 2737, "pitch": 65, "duration": 4, "velocity": 89}, {"time": 2743, "pitch": 60, "duration": 6, "velocity": 90}, {"time": 2749, "pitch": 58, "duration": 31, "velocity": 83}, {"time": 2785, "pitch": 58, "duration": 4, "velocity": 87}, {"time": 2791, "pitch": 60, "duration": 5, "velocity": 87}, {"time": 2797, "pitch": 63, "duration": 15, "velocity": 87}, {"time": 2815, "pitch": 60, "duration": 4, "velocity": 89}, {"time": 2821, "pitch": 65, "duration": 5, "velocity": 86}, {"time": 2827, "pitch": 67, "duration": 6, "velocity": 84}, {"time": 2833, "pitch": 65, "duration": 5, "velocity": 92}, {"time": 2839, "pitch": 63, "duration": 5, "velocity": 87}, {"time": 2845, "pitch": 65, "duration": 6, "velocity": 87}, {"time": 2851, "pitch": 63, "duration": 6, "velocity": 83}, {"time": 2857, "pitch": 60, "duration": 7, "velocity": 89}, {"time": 2863, "pitch": 58, "duration": 6, "velocity": 76}, {"time": 2869, "pitch": 56, "duration": 11, "velocity": 88}, {"time": 2881, "pitch": 65, "duration": 3, "velocity": 93}, {"time": 2887, "pitch": 68, "duration": 4, "velocity": 86}, {"time": 2893, "pitch": 70, "duration": 4, "velocity": 86}, {"time": 2899, "pitch": 70, "duration": 6, "velocity": 88}, {"time": 2905, "pitch": 70, "duration": 6, "velocity": 88}, {"time": 2911, "pitch": 67, "duration": 6, "velocity": 88}, {"time": 2917, "pitch": 65, "duration": 6, "velocity": 88}, {"time": 2923, "pitch": 60, "duration": 6, "velocity": 88}, {"time": 2929, "pitch": 63, "duration": 6, "velocity": 86}, {"time": 2935, "pitch": 65, "duration": 6, "velocity": 89}, {"time": 2941, "pitch": 68, "duration": 34, "velocity": 86}, {"time": 2977, "pitch": 65, "duration": 9, "velocity": 95}, {"time": 2989, "pitch": 72, "duration": 36, "velocity": 86}, {"time": 3025, "pitch": 65, "duration": 12, "velocity": 91}, {"time": 3037, "pitch": 63, "duration": 34, "velocity": 87}, {"time": 3073, "pitch": 60, "duration": 11, "velocity": 92}, {"time": 3085, "pitch": 68, "duration": 31, "velocity": 86}, {"time": 3121, "pitch": 60, "duration": 12, "velocity": 87}, {"time": 3133, "pitch": 58, "duration": 33, "velocity": 89}, {"time": 3169, "pitch": 58, "duration": 4, "velocity": 89}, {"time": 3175, "pitch": 60, "duration": 5, "velocity": 87}, {"time": 3181, "pitch": 63, "duration": 14, "velocity": 87}, {"time": 3199, "pitch": 65, "duration": 5, "velocity": 92}, {"time": 3205, "pitch": 68, "duration": 5, "velocity": 86}, {"time": 3211, "pitch": 68, "duration": 9, "velocity": 87}, {"time": 3223, "pitch": 67, "duration": 6, "velocity": 86}, {"time": 3229, "pitch": 65, "duration": 4, "velocity": 89}, {"time": 3235, "pitch": 60, "duration": 6, "velocity": 90}, {"time": 3241, "pitch": 67, "duration": 5, "velocity": 90}, {"time": 3247, "pitch": 65, "duration": 4, "velocity": 87}, {"time": 3253, "pitch": 63, "duration": 10, "velocity": 89}, {"time": 3265, "pitch": 63, "duration": 5, "velocity": 90}, {"time": 3271, "pitch": 65, "duration": 5, "velocity": 87}, {"time": 3277, "pitch": 72, "duration": 32, "velocity": 90}, {"time": 3313, "pitch": 65, "duration": 7, "velocity": 87}, {"time": 3319, "pitch": 67, "duration": 7, "velocity": 87}, {"time": 3325, "pitch": 63, "duration": 30, "velocity": 86}, {"time": 3361, "pitch": 60, "duration": 10, "velocity": 88}, {"time": 3373, "pitch": 68, "duration": 36, "velocity": 86}, {"time": 3409, "pitch": 60, "duration": 12, "velocity": 87}, {"time": 3421, "pitch": 58, "duration": 32, "velocity": 87}, {"time": 3457, "pitch": 58, "duration": 4, "velocity": 87}, {"time": 3463, "pitch": 60, "duration": 5, "velocity": 86}, {"time": 3469, "pitch": 63, "duration": 15, "velocity": 87}, {"time": 3487, "pitch": 65, "duration": 4, "velocity": 88}, {"time": 3493, "pitch": 68, "duration": 12, "velocity": 85}, {"time": 3505, "pitch": 60, "duration": 15, "velocity": 92}, {"time": 3529, "pitch": 65, "duration": 11, "velocity": 93}, {"time": 3541, "pitch": 72, "duration": 33, "velocity": 90}, {"time": 3577, "pitch": 65, "duration": 11, "velocity": 91}, {"time": 3589, "pitch": 68, "duration": 36, "velocity": 86}, {"time": 3625, "pitch": 65, "duration": 12, "velocity": 87}, {"time": 3637, "pitch": 72, "duration": 36, "velocity": 86}, {"time": 3673, "pitch": 65, "duration": 12, "velocity": 91}, {"time": 3685, "pitch": 63, "duration": 34, "velocity": 87}, {"time": 3721, "pitch": 60, "duration": 11, "velocity": 92}, {"time": 3733, "pitch": 68, "duration": 31, "velocity": 86}, {"time": 3769, "pitch": 60, "duration": 12, "velocity": 87}, {"time": 3781, "pitch": 58, "duration": 33, "velocity": 89}, {"time": 3817, "pitch": 58, "duration": 4, "velocity": 89}, {"time": 3823, "pitch": 60, "duration": 5, "velocity": 87}, {"time": 3829, "pitch": 63, "duration": 14, "velocity": 87}, {"time": 3847, "pitch": 65, "duration": 5, "velocity": 92}, {"time": 3853, "pitch": 68, "duration": 5, "velocity": 86}, {"time": 3859, "pitch": 68, "duration": 9, "velocity": 87}, {"time": 3871, "pitch": 67, "duration": 6, "velocity": 86}, {"time": 3877, "pitch": 65, "duration": 4, "velocity": 89}, {"time": 3883, "pitch": 60, "duration": 6, "velocity": 90}, {"time": 3889, "pitch": 67, "duration": 5, "velocity": 90}, {"time": 3895, "pitch": 65, "duration": 4, "velocity": 87}, {"time": 3901, "pitch": 63, "duration": 10, "velocity": 89}, {"time": 3913, "pitch": 63, "duration": 5, "velocity": 90}, {"time": 3919, "pitch": 65, "duration": 5, "velocity": 87}, {"time": 3925, "pitch": 72, "duration": 32, "velocity": 90}, {"time": 3961, "pitch": 65, "duration": 7, "velocity": 87}, {"time": 3967, "pitch": 67, "duration": 7, "velocity": 87}, {"time": 3973, "pitch": 63, "duration": 30, "velocity": 86}, {"time": 4009, "pitch": 60, "duration": 10, "velocity": 88}, {"time": 4021, "pitch": 68, "duration": 36, "velocity": 86}, {"time": 4057, "pitch": 60, "duration": 12, "velocity": 87}, {"time": 4069, "pitch": 58, "duration": 32, "velocity": 87}, {"time": 4105, "pitch": 58, "duration": 4, "velocity": 87}, {"time": 4111, "pitch": 60, "duration": 5, "velocity": 86}, {"time": 4117, "pitch": 63, "duration": 15, "velocity": 87}, {"time": 4135, "pitch": 65, "duration": 4, "velocity": 88}, {"time": 4141, "pitch": 68, "duration": 12, "velocity": 85}, {"time": 4153, "pitch": 60, "duration": 15, "velocity": 92}, {"time": 4177, "pitch": 65, "duration": 11, "velocity": 93}, {"time": 4189, "pitch": 72, "duration": 33, "velocity": 90}, {"time": 4235, "pitch": 65, "duration": 6, "velocity": 87}, {"time": 4240, "pitch": 68, "duration": 8, "velocity": 80}, {"time": 4246, "pitch": 65, "duration": 16, "velocity": 86}, {"time": 4268, "pitch": 68, "duration": 53, "velocity": 85}]}, {"program": 0, "is_drum": false, "name": "PIANO", "notes": [{"time": 33, "pitch": 56, "duration": 28, "velocity": 83}, {"time": 34, "pitch": 60, "duration": 28, "velocity": 84}, {"time": 35, "pitch": 44, "duration": 28, "velocity": 87}, {"time": 36, "pitch": 63, "duration": 26, "velocity": 77}, {"time": 37, "pitch": 68, "duration": 27, "velocity": 77}, {"time": 82, "pitch": 60, "duration": 21, "velocity": 65}, {"time": 84, "pitch": 63, "duration": 24, "velocity": 76}, {"time": 85, "pitch": 67, "duration": 15, "velocity": 74}, {"time": 85, "pitch": 48, "duration": 37, "velocity": 77}, {"time": 103, "pitch": 55, "duration": 17, "velocity": 74}, {"time": 109, "pitch": 60, "duration": 12, "velocity": 74}, {"time": 114, "pitch": 63, "duration": 7, "velocity": 79}, {"time": 120, "pitch": 72, "duration": 2, "velocity": 80}, {"time": 130, "pitch": 56, "duration": 11, "velocity": 72}, {"time": 132, "pitch": 60, "duration": 10, "velocity": 77}, {"time": 132, "pitch": 44, "duration": 28, "velocity": 88}, {"time": 133, "pitch": 63, "duration": 10, "velocity": 82}, {"time": 139, "pitch": 51, "duration": 19, "velocity": 78}, {"time": 144, "pitch": 56, "duration": 12, "velocity": 72}, {"time": 150, "pitch": 60, "duration": 7, "velocity": 78}, {"time": 156, "pitch": 68, "duration": 3, "velocity": 79}, {"time": 176, "pitch": 63, "duration": 4, "velocity": 70}, {"time": 178, "pitch": 67, "duration": 3, "velocity": 73}, {"time": 179, "pitch": 70, "duration": 2, "velocity": 79}, {"time": 180, "pitch": 75, "duration": 3, "velocity": 88}, {"time": 180, "pitch": 39, "duration": 40, "velocity": 88}, {"time": 186, "pitch": 46, "duration": 34, "velocity": 74}, {"time": 193, "pitch": 51, "duration": 4, "velocity": 88}, {"time": 198, "pitch": 55, "duration": 2, "velocity": 87}, {"time": 205, "pitch": 58, "duration": 7, "velocity": 86}, {"time": 211, "pitch": 63, "duration": 6, "velocity": 87}, {"time": 217, "pitch": 67, "duration": 3, "velocity": 87}, {"time": 229, "pitch": 60, "duration": 8, "velocity": 81}, {"time": 229, "pitch": 65, "duration": 13, "velocity": 88}, {"time": 229, "pitch": 41, "duration": 42, "velocity": 89}, {"time": 235, "pitch": 48, "duration": 35, "velocity": 76}, {"time": 241, "pitch": 60, "duration": 28, "velocity": 84}, {"time": 247, "pitch": 65, "duration": 21, "velocity": 82}, {"time": 274, "pitch": 60, "duration": 4, "velocity": 79}, {"time": 276, "pitch": 65, "duration": 13, "velocity": 86}, {"time": 277, "pitch": 41, "duration": 23, "velocity": 90}, {"time": 277, "pitch": 68, "duration": 20, "velocity": 82}, {"time": 282, "pitch": 48, "duration": 16, "velocity": 77}, {"time": 288, "pitch": 60, "duration": 10, "velocity": 74}, {"time": 294, "pitch": 65, "duration": 5, "velocity": 79}, {"time": 322, "pitch": 60, "duration": 10, "velocity": 67}, {"time": 324, "pitch": 63, "duration": 14, "velocity": 78}, {"time": 324, "pitch": 48, "duration": 26, "velocity": 78}, {"time": 325, "pitch": 67, "duration": 12, "velocity": 76}, {"time": 331, "pitch": 55, "duration": 18, "velocity": 77}, {"time": 337, "pitch": 60, "duration": 12, "velocity": 85}, {"time": 342, "pitch": 63, "duration": 7, "velocity": 82}, {"time": 368, "pitch": 68, "duration": 11, "velocity": 72}, {"time": 369, "pitch": 63, "duration": 16, "velocity": 76}, {"time": 370, "pitch": 60, "duration": 11, "velocity": 78}, {"time": 372, "pitch": 56, "duration": 9, "velocity": 78}, {"time": 372, "pitch": 44, "duration": 47, "velocity": 86}, {"time": 378, "pitch": 51, "duration": 41, "velocity": 79}, {"time": 385, "pitch": 56, "duration": 15, "velocity": 88}, {"time": 391, "pitch": 63, "duration": 7, "velocity": 82}, {"time": 396, "pitch": 68, "duration": 24, "velocity": 82}, {"time": 402, "pitch": 63, "duration": 18, "velocity": 77}, {"time": 408, "pitch": 56, "duration": 12, "velocity": 79}, {"time": 421, "pitch": 41, "duration": 45, "velocity": 88}, {"time": 421, "pitch": 60, "duration": 7, "velocity": 83}, {"time": 421, "pitch": 68, "duration": 14, "velocity": 80}, {"time": 427, "pitch": 48, "duration": 38, "velocity": 71}, {"time": 433, "pitch": 60, "duration": 9, "velocity": 92}, {"time": 439, "pitch": 65, "duration": 11, "velocity": 89}, {"time": 451, "pitch": 60, "duration": 7, "velocity": 71}, {"time": 457, "pitch": 68, "duration": 6, "velocity": 82}, {"time": 463, "pitch": 67, "duration": 6, "velocity": 71}, {"time": 469, "pitch": 41, "duration": 26, "velocity": 87}, {"time": 469, "pitch": 65, "duration": 12, "velocity": 81}, {"time": 475, "pitch": 48, "duration": 19, "velocity": 73}, {"time": 481, "pitch": 60, "duration": 13, "velocity": 86}, {"time": 487, "pitch": 65, "duration": 10, "velocity": 95}, {"time": 499, "pitch": 60, "duration": 2, "velocity": 73}, {"time": 505, "pitch": 60, "duration": 3, "velocity": 90}, {"time": 505, "pitch": 68, "duration": 4, "velocity": 82}, {"time": 517, "pitch": 41, "duration": 41, "velocity": 88}, {"time": 517, "pitch": 60, "duration": 8, "velocity": 82}, {"time": 517, "pitch": 65, "duration": 12, "velocity": 87}, {"time": 523, "pitch": 48, "duration": 34, "velocity": 79}, {"time": 529, "pitch": 60, "duration": 9, "velocity": 88}, {"time": 535, "pitch": 65, "duration": 3, "velocity": 86}, {"time": 541, "pitch": 68, "duration": 6, "velocity": 86}, {"time": 547, "pitch": 65, "duration": 7, "velocity": 86}, {"time": 553, "pitch": 60, "duration": 9, "velocity": 86}, {"time": 559, "pitch": 65, "duration": 3, "velocity": 74}, {"time": 565, "pitch": 39, "duration": 28, "velocity": 87}, {"time": 565, "pitch": 63, "duration": 12, "velocity": 82}, {"time": 571, "pitch": 46, "duration": 21, "velocity": 80}, {"time": 577, "pitch": 58, "duration": 7, "velocity": 95}, {"time": 583, "pitch": 63, "duration": 6, "velocity": 88}, {"time": 589, "pitch": 65, "duration": 6, "velocity": 90}, {"time": 595, "pitch": 63, "duration": 3, "velocity": 86}, {"time": 601, "pitch": 58, "duration": 5, "velocity": 82}, {"time": 601, "pitch": 67, "duration": 5, "velocity": 92}, {"time": 613, "pitch": 44, "duration": 15, "velocity": 87}, {"time": 613, "pitch": 56, "duration": 7, "velocity": 76}, {"time": 613, "pitch": 63, "duration": 16, "velocity": 82}, {"time": 619, "pitch": 51, "duration": 9, "velocity": 84}, {"time": 625, "pitch": 56, "duration": 7, "velocity": 90}, {"time": 637, "pitch": 41, "duration": 12, "velocity": 87}, {"time": 637, "pitch": 56, "duration": 7, "velocity": 78}, {"time": 637, "pitch": 60, "duration": 12, "velocity": 82}, {"time": 643, "pitch": 48, "duration": 6, "velocity": 75}, {"time": 649, "pitch": 56, "duration": 6, "velocity": 88}, {"time": 661, "pitch": 49, "duration": 21, "velocity": 87}, {"time": 661, "pitch": 56, "duration": 2, "velocity": 66}, {"time": 661, "pitch": 65, "duration": 17, "velocity": 86}, {"time": 667, "pitch": 53, "duration": 15, "velocity": 87}, {"time": 673, "pitch": 56, "duration": 10, "velocity": 90}, {"time": 679, "pitch": 61, "duration": 4, "velocity": 84}, {"time": 685, "pitch": 44, "duration": 7, "velocity": 82}, {"time": 685, "pitch": 56, "duration": 6, "velocity": 81}, {"time": 685, "pitch": 60, "duration": 6, "velocity": 78}, {"time": 685, "pitch": 63, "duration": 6, "velocity": 81}, {"time": 709, "pitch": 49, "duration": 20, "velocity": 86}, {"time": 709, "pitch": 56, "duration": 7, "velocity": 77}, {"time": 709, "pitch": 61, "duration": 12, "velocity": 80}, {"time": 709, "pitch": 70, "duration": 11, "velocity": 83}, {"time": 715, "pitch": 53, "duration": 13, "velocity": 74}, {"time": 721, "pitch": 56, "duration": 7, "velocity": 91}, {"time": 727, "pitch": 61, "duration": 6, "velocity": 92}, {"time": 733, "pitch": 46, "duration": 17, "velocity": 85}, {"time": 733, "pitch": 62, "duration": 12, "velocity": 82}, {"time": 739, "pitch": 53, "duration": 11, "velocity": 87}, {"time": 745, "pitch": 58, "duration": 8, "velocity": 88}, {"time": 751, "pitch": 62, "duration": 2, "velocity": 91}, {"time": 757, "pitch": 39, "duration": 39, "velocity": 87}, {"time": 757, "pitch": 63, "duration": 11, "velocity": 87}, {"time": 763, "pitch": 46, "duration": 33, "velocity": 80}, {"time": 769, "pitch": 58, "duration": 7, "velocity": 95}, {"time": 775, "pitch": 63, "duration": 4, "velocity": 87}, {"time": 781, "pitch": 65, "duration": 6, "velocity": 95}, {"time": 787, "pitch": 63, "duration": 6, "velocity": 88}, {"time": 793, "pitch": 58, "duration": 5, "velocity": 92}, {"time": 798, "pitch": 60, "duration": 6, "velocity": 80}, {"time": 805, "pitch": 41, "duration": 45, "velocity": 88}, {"time": 805, "pitch": 60, "duration": 7, "velocity": 83}, {"time": 805, "pitch": 68, "duration": 14, "velocity": 80}, {"time": 811, "pitch": 48, "duration": 38, "velocity": 71}, {"time": 817, "pitch": 60, "duration": 9, "velocity": 92}, {"time": 823, "pitch": 65, "duration": 11, "velocity": 89}, {"time": 835, "pitch": 60, "duration": 7, "velocity": 71}, {"time": 841, "pitch": 68, "duration": 6, "velocity": 82}, {"time": 847, "pitch": 67, "duration": 6, "velocity": 71}, {"time": 853, "pitch": 41, "duration": 26, "velocity": 87}, {"time": 853, "pitch": 65, "duration": 12, "velocity": 81}, {"time": 859, "pitch": 48, "duration": 19, "velocity": 73}, {"time": 865, "pitch": 60, "duration": 13, "velocity": 86}, {"time": 871, "pitch": 65, "duration": 10, "velocity": 95}, {"time": 883, "pitch": 60, "duration": 2, "velocity": 73}, {"time": 889, "pitch": 60, "duration": 3, "velocity": 90}, {"time": 889, "pitch": 68, "duration": 4, "velocity": 82}, {"time": 901, "pitch": 41, "duration": 41, "velocity": 88}, {"time": 901, "pitch": 60, "duration": 8, "velocity": 82}, {"time": 901, "pitch": 65, "duration": 12, "velocity": 87}, {"time": 907, "pitch": 48, "duration": 34, "velocity": 79}, {"time": 913, "pitch": 60, "duration": 9, "velocity": 88}, {"time": 919, "pitch": 65, "duration": 3, "velocity": 86}, {"time": 925, "pitch": 68, "duration": 6, "velocity": 86}, {"time": 931, "pitch": 65, "duration": 7, "velocity": 86}, {"time": 937, "pitch": 60, "duration": 9, "velocity": 86}, {"time": 943, "pitch": 65, "duration": 3, "velocity": 74}, {"time": 949, "pitch": 39, "duration": 28, "velocity": 87}, {"time": 949, "pitch": 63, "duration": 12, "velocity": 82}, {"time": 955, "pitch": 46, "duration": 21, "velocity": 80}, {"time": 961, "pitch": 58, "duration": 7, "velocity": 95}, {"time": 967, "pitch": 63, "duration": 6, "velocity": 88}, {"time": 973, "pitch": 65, "duration": 6, "velocity": 90}, {"time": 979, "pitch": 63, "duration": 3, "velocity": 86}, {"time": 985, "pitch": 58, "duration": 5, "velocity": 82}, {"time": 985, "pitch": 67, "duration": 5, "velocity": 92}, {"time": 997, "pitch": 44, "duration": 15, "velocity": 87}, {"time": 997, "pitch": 56, "duration": 7, "velocity": 76}, {"time": 997, "pitch": 63, "duration": 16, "velocity": 82}, {"time": 1003, "pitch": 51, "duration": 9, "velocity": 84}, {"time": 1009, "pitch": 56, "duration": 7, "velocity": 90}, {"time": 1021, "pitch": 41, "duration": 19, "velocity": 87}, {"time": 1021, "pitch": 53, "duration": 12, "velocity": 86}, {"time": 1021, "pitch": 60, "duration": 13, "velocity": 82}, {"time": 1027, "pitch": 48, "duration": 13, "velocity": 81}, {"time": 1033, "pitch": 56, "duration": 6, "velocity": 82}, {"time": 1039, "pitch": 53, "duration": 12, "velocity": 82}, {"time": 1045, "pitch": 41, "duration": 8, "velocity": 87}, {"time": 1045, "pitch": 56, "duration": 7, "velocity": 84}, {"time": 1045, "pitch": 60, "duration": 7, "velocity": 81}, {"time": 1045, "pitch": 65, "duration": 7, "velocity": 87}, {"time": 1069, "pitch": 37, "duration": 2, "velocity": 82}, {"time": 1069, "pitch": 56, "duration": 6, "velocity": 79}, {"time": 1069, "pitch": 61, "duration": 7, "velocity": 79}, {"time": 1069, "pitch": 65, "duration": 8, "velocity": 86}, {"time": 1075, "pitch": 49, "duration": 12, "velocity": 78}, {"time": 1081, "pitch": 56, "duration": 9, "velocity": 87}, {"time": 1087, "pitch": 61, "duration": 2, "velocity": 95}, {"time": 1093, "pitch": 39, "duration": 21, "velocity": 88}, {"time": 1093, "pitch": 58, "duration": 7, "velocity": 80}, {"time": 1093, "pitch": 63, "duration": 13, "velocity": 81}, {"time": 1099, "pitch": 46, "duration": 16, "velocity": 82}, {"time": 1105, "pitch": 58, "duration": 8, "velocity": 90}, {"time": 1111, "pitch": 63, "duration": 5, "velocity": 86}, {"time": 1117, "pitch": 41, "duration": 16, "velocity": 89}, {"time": 1117, "pitch": 65, "duration": 9, "velocity": 86}, {"time": 1123, "pitch": 48, "duration": 10, "velocity": 82}, {"time": 1129, "pitch": 60, "duration": 3, "velocity": 83}, {"time": 1129, "pitch": 65, "duration": 14, "velocity": 85}, {"time": 1129, "pitch": 68, "duration": 15, "velocity": 82}, {"time": 1135, "pitch": 60, "duration": 8, "velocity": 77}, {"time": 1141, "pitch": 44, "duration": 49, "velocity": 87}, {"time": 1147, "pitch": 51, "duration": 21, "velocity": 82}, {"time": 1153, "pitch": 56, "duration": 9, "velocity": 87}, {"time": 1159, "pitch": 63, "duration": 3, "velocity": 84}, {"time": 1165, "pitch": 56, "duration": 3, "velocity": 87}, {"time": 1165, "pitch": 63, "duration": 7, "velocity": 86}, {"time": 1165, "pitch": 68, "duration": 9, "velocity": 82}, {"time": 1171, "pitch": 56, "duration": 2, "velocity": 89}, {"time": 1177, "pitch": 68, "duration": 4, "velocity": 80}, {"time": 1177, "pitch": 72, "duration": 5, "velocity": 86}, {"time": 1183, "pitch": 70, "duration": 6, "velocity": 88}, {"time": 1189, "pitch": 41, "duration": 15, "velocity": 88}, {"time": 1189, "pitch": 60, "duration": 7, "velocity": 86}, {"time": 1189, "pitch": 68, "duration": 14, "velocity": 81}, {"time": 1195, "pitch": 48, "duration": 8, "velocity": 66}, {"time": 1201, "pitch": 60, "duration": 7, "velocity": 97}, {"time": 1207, "pitch": 65, "duration": 4, "velocity": 86}, {"time": 1213, "pitch": 49, "duration": 14, "velocity": 90}, {"time": 1213, "pitch": 61, "duration": 8, "velocity": 76}, {"time": 1213, "pitch": 68, "duration": 14, "velocity": 83}, {"time": 1219, "pitch": 56, "duration": 7, "velocity": 86}, {"time": 1225, "pitch": 61, "duration": 7, "velocity": 91}, {"time": 1237, "pitch": 39, "duration": 20, "velocity": 88}, {"time": 1237, "pitch": 63, "duration": 7, "velocity": 75}, {"time": 1237, "pitch": 68, "duration": 10, "velocity": 75}, {"time": 1243, "pitch": 46, "duration": 14, "velocity": 86}, {"time": 1249, "pitch": 63, "duration": 3, "velocity": 91}, {"time": 1255, "pitch": 63, "duration": 2, "velocity": 80}, {"time": 1255, "pitch": 68, "duration": 3, "velocity": 87}, {"time": 1261, "pitch": 39, "duration": 14, "velocity": 91}, {"time": 1261, "pitch": 63, "duration": 7, "velocity": 84}, {"time": 1261, "pitch": 67, "duration": 7, "velocity": 83}, {"time": 1267, "pitch": 46, "duration": 8, "velocity": 77}, {"time": 1273, "pitch": 63, "duration": 2, "velocity": 81}, {"time": 1273, "pitch": 67, "duration": 4, "velocity": 86}, {"time": 1273, "pitch": 70, "duration": 6, "velocity": 86}, {"time": 1279, "pitch": 63, "duration": 1, "velocity": 78}, {"time": 1285, "pitch": 46, "duration": 26, "velocity": 86}, {"time": 1285, "pitch": 58, "duration": 13, "velocity": 78}, {"time": 1285, "pitch": 61, "duration": 13, "velocity": 78}, {"time": 1291, "pitch": 53, "duration": 20, "velocity": 84}, {"time": 1297, "pitch": 65, "duration": 6, "velocity": 89}, {"time": 1303, "pitch": 58, "duration": 3, "velocity": 44}, {"time": 1303, "pitch": 61, "duration": 3, "velocity": 81}, {"time": 1309, "pitch": 58, "duration": 8, "velocity": 83}, {"time": 1309, "pitch": 70, "duration": 6, "velocity": 87}, {"time": 1315, "pitch": 53, "duration": 8, "velocity": 82}, {"time": 1321, "pitch": 61, "duration": 6, "velocity": 91}, {"time": 1321, "pitch": 65, "duration": 7, "velocity": 92}, {"time": 1327, "pitch": 58, "duration": 3, "velocity": 82}, {"time": 1333, "pitch": 39, "duration": 20, "velocity": 91}, {"time": 1333, "pitch": 58, "duration": 6, "velocity": 81}, {"time": 1333, "pitch": 63, "duration": 8, "velocity": 81}, {"time": 1339, "pitch": 46, "duration": 14, "velocity": 81}, {"time": 1345, "pitch": 63, "duration": 7, "velocity": 83}, {"time": 1351, "pitch": 58, "duration": 4, "velocity": 90}, {"time": 1357, "pitch": 39, "duration": 9, "velocity": 91}, {"time": 1357, "pitch": 58, "duration": 5, "velocity": 86}, {"time": 1357, "pitch": 63, "duration": 7, "velocity": 88}, {"time": 1357, "pitch": 67, "duration": 7, "velocity": 86}, {"time": 1363, "pitch": 46, "duration": 4, "velocity": 85}, {"time": 1369, "pitch": 58, "duration": 2, "velocity": 89}, {"time": 1381, "pitch": 44, "duration": 13, "velocity": 86}, {"time": 1381, "pitch": 56, "duration": 7, "velocity": 79}, {"time": 1381, "pitch": 60, "duration": 8, "velocity": 75}, {"time": 1381, "pitch": 63, "duration": 14, "velocity": 79}, {"time": 1387, "pitch": 51, "duration": 7, "velocity": 80}, {"time": 1393, "pitch": 56, "duration": 8, "velocity": 93}, {"time": 1399, "pitch": 60, "duration": 3, "velocity": 86}, {"time": 1405, "pitch": 41, "duration": 13, "velocity": 88}, {"time": 1405, "pitch": 60, "duration": 9, "velocity": 83}, {"time": 1405, "pitch": 65, "duration": 8, "velocity": 87}, {"time": 1411, "pitch": 48, "duration": 6, "velocity": 75}, {"time": 1417, "pitch": 56, "duration": 3, "velocity": 82}, {"time": 1417, "pitch": 60, "duration": 3, "velocity": 83}, {"time": 1417, "pitch": 65, "duration": 3, "velocity": 88}, {"time": 1429, "pitch": 49, "duration": 11, "velocity": 89}, {"time": 1429, "pitch": 56, "duration": 3, "velocity": 83}, {"time": 1429, "pitch": 61, "duration": 7, "velocity": 83}, {"time": 1435, "pitch": 56, "duration": 7, "velocity": 86}, {"time": 1441, "pitch": 61, "duration": 9, "velocity": 85}, {"time": 1453, "pitch": 39, "duration": 12, "velocity": 88}, {"time": 1453, "pitch": 58, "duration": 5, "velocity": 79}, {"time": 1453, "pitch": 63, "duration": 4, "velocity": 83}, {"time": 1459, "pitch": 46, "duration": 6, "velocity": 82}, {"time": 1465, "pitch": 63, "duration": 8, "velocity": 87}, {"time": 1465, "pitch": 67, "duration": 8, "velocity": 81}, {"time": 1471, "pitch": 58, "duration": 4, "velocity": 76}, {"time": 1477, "pitch": 41, "duration": 22, "velocity": 87}, {"time": 1477, "pitch": 60, "duration": 5, "velocity": 87}, {"time": 1477, "pitch": 68, "duration": 8, "velocity": 83}, {"time": 1483, "pitch": 48, "duration": 14, "velocity": 84}, {"time": 1489, "pitch": 65, "duration": 7, "velocity": 92}, {"time": 1495, "pitch": 68, "duration": 4, "velocity": 88}, {"time": 1501, "pitch": 37, "duration": 15, "velocity": 83}, {"time": 1501, "pitch": 65, "duration": 7, "velocity": 87}, {"time": 1501, "pitch": 68, "duration": 7, "velocity": 86}, {"time": 1501, "pitch": 72, "duration": 6, "velocity": 87}, {"time": 1507, "pitch": 44, "duration": 9, "velocity": 81}, {"time": 1513, "pitch": 65, "duration": 2, "velocity": 90}, {"time": 1513, "pitch": 68, "duration": 6, "velocity": 87}, {"time": 1525, "pitch": 39, "duration": 2, "velocity": 88}, {"time": 1525, "pitch": 63, "duration": 9, "velocity": 86}, {"time": 1525, "pitch": 67, "duration": 10, "velocity": 81}, {"time": 1537, "pitch": 51, "duration": 16, "velocity": 89}, {"time": 1537, "pitch": 63, "duration": 4, "velocity": 88}, {"time": 1537, "pitch": 67, "duration": 7, "velocity": 80}, {"time": 1537, "pitch": 70, "duration": 8, "velocity": 87}, {"time": 1543, "pitch": 58, "duration": 9, "velocity": 85}, {"time": 1549, "pitch": 63, "duration": 9, "velocity": 85}, {"time": 1549, "pitch": 67, "duration": 9, "velocity": 78}, {"time": 1549, "pitch": 70, "duration": 9, "velocity": 83}, {"time": 1549, "pitch": 75, "duration": 8, "velocity": 89}, {"time": 1555, "pitch": 58, "duration": 5, "velocity": 87}, {"time": 1561, "pitch": 63, "duration": 2, "velocity": 84}, {"time": 1561, "pitch": 67, "duration": 4, "velocity": 82}, {"time": 1561, "pitch": 70, "duration": 10, "velocity": 85}, {"time": 1567, "pitch": 63, "duration": 3, "velocity": 75}, {"time": 1573, "pitch": 37, "duration": 13, "velocity": 81}, {"time": 1573, "pitch": 56, "duration": 7, "velocity": 86}, {"time": 1573, "pitch": 65, "duration": 9, "velocity": 87}, {"time": 1579, "pitch": 44, "duration": 7, "velocity": 69}, {"time": 1585, "pitch": 56, "duration": 2, "velocity": 88}, {"time": 1585, "pitch": 61, "duration": 5, "velocity": 88}, {"time": 1597, "pitch": 46, "duration": 14, "velocity": 87}, {"time": 1597, "pitch": 58, "duration": 7, "velocity": 86}, {"time": 1597, "pitch": 62, "duration": 7, "velocity": 86}, {"time": 1603, "pitch": 53, "duration": 7, "velocity": 90}, {"time": 1609, "pitch": 58, "duration": 2, "velocity": 86}, {"time": 1609, "pitch": 62, "duration": 3, "velocity": 87}, {"time": 1609, "pitch": 65, "duration": 12, "velocity": 88}, {"time": 1615, "pitch": 58, "duration": 4, "velocity": 86}, {"time": 1621, "pitch": 39, "duration": 22, "velocity": 87}, {"time": 1621, "pitch": 58, "duration": 8, "velocity": 77}, {"time": 1621, "pitch": 63, "duration": 9, "velocity": 82}, {"time": 1627, "pitch": 46, "duration": 15, "velocity": 82}, {"time": 1633, "pitch": 65, "duration": 5, "velocity": 86}, {"time": 1639, "pitch": 63, "duration": 2, "velocity": 87}, {"time": 1645, "pitch": 39, "duration": 13, "velocity": 92}, {"time": 1645, "pitch": 58, "duration": 4, "velocity": 79}, {"time": 1645, "pitch": 63, "duration": 7, "velocity": 84}, {"time": 1645, "pitch": 67, "duration": 8, "velocity": 82}, {"time": 1651, "pitch": 46, "duration": 8, "velocity": 82}, {"time": 1657, "pitch": 58, "duration": 6, "velocity": 89}, {"time": 1663, "pitch": 63, "duration": 2, "velocity": 84}, {"time": 1669, "pitch": 44, "duration": 12, "velocity": 87}, {"time": 1669, "pitch": 56, "duration": 8, "velocity": 81}, {"time": 1669, "pitch": 60, "duration": 7, "velocity": 83}, {"time": 1675, "pitch": 51, "duration": 6, "velocity": 84}, {"time": 1681, "pitch": 56, "duration": 2, "velocity": 84}, {"time": 1681, "pitch": 60, "duration": 4, "velocity": 87}, {"time": 1681, "pitch": 63, "duration": 5, "velocity": 86}, {"time": 1693, "pitch": 41, "duration": 47, "velocity": 88}, {"time": 1693, "pitch": 53, "duration": 20, "velocity": 86}, {"time": 1693, "pitch": 56, "duration": 12, "velocity": 82}, {"time": 1699, "pitch": 48, "duration": 41, "velocity": 76}, {"time": 1705, "pitch": 60, "duration": 9, "velocity": 84}, {"time": 1711, "pitch": 56, "duration": 3, "velocity": 80}, {"time": 1717, "pitch": 53, "duration": 23, "velocity": 85}, {"time": 1717, "pitch": 56, "duration": 23, "velocity": 86}, {"time": 1717, "pitch": 60, "duration": 24, "velocity": 80}, {"time": 1717, "pitch": 65, "duration": 24, "velocity": 85}, {"time": 1741, "pitch": 37, "duration": 2, "velocity": 86}, {"time": 1741, "pitch": 56, "duration": 7, "velocity": 84}, {"time": 1741, "pitch": 65, "duration": 1, "velocity": 86}, {"time": 1747, "pitch": 49, "duration": 21, "velocity": 86}, {"time": 1753, "pitch": 56, "duration": 13, "velocity": 89}, {"time": 1759, "pitch": 61, "duration": 3, "velocity": 87}, {"time": 1765, "pitch": 61, "duration": 3, "velocity": 78}, {"time": 1765, "pitch": 65, "duration": 3, "velocity": 83}, {"time": 1765, "pitch": 68, "duration": 4, "velocity": 76}, {"time": 1777, "pitch": 39, "duration": 7, "velocity": 88}, {"time": 1777, "pitch": 63, "duration": 9, "velocity": 88}, {"time": 1777, "pitch": 67, "duration": 7, "velocity": 86}, {"time": 1789, "pitch": 44, "duration": 48, "velocity": 86}, {"time": 1789, "pitch": 63, "duration": 6, "velocity": 84}, {"time": 1789, "pitch": 68, "duration": 5, "velocity": 82}, {"time": 1795, "pitch": 51, "duration": 41, "velocity": 74}, {"time": 1801, "pitch": 56, "duration": 8, "velocity": 80}, {"time": 1807, "pitch": 58, "duration": 7, "velocity": 89}, {"time": 1813, "pitch": 60, "duration": 6, "velocity": 90}, {"time": 1819, "pitch": 63, "duration": 2, "velocity": 90}, {"time": 1825, "pitch": 68, "duration": 3, "velocity": 87}, {"time": 1831, "pitch": 70, "duration": 5, "velocity": 87}, {"time": 1837, "pitch": 41, "duration": 31, "velocity": 87}, {"time": 1837, "pitch": 60, "duration": 7, "velocity": 81}, {"time": 1837, "pitch": 65, "duration": 12, "velocity": 86}, {"time": 1843, "pitch": 48, "duration": 20, "velocity": 71}, {"time": 1849, "pitch": 60, "duration": 8, "velocity": 90}, {"time": 1855, "pitch": 65, "duration": 3, "velocity": 93}, {"time": 1861, "pitch": 60, "duration": 7, "velocity": 87}, {"time": 1861, "pitch": 68, "duration": 10, "velocity": 82}, {"time": 1867, "pitch": 48, "duration": 3, "velocity": 83}, {"time": 1873, "pitch": 60, "duration": 1, "velocity": 82}, {"time": 1873, "pitch": 65, "duration": 3, "velocity": 84}, {"time": 1885, "pitch": 44, "duration": 38, "velocity": 86}, {"time": 1885, "pitch": 56, "duration": 10, "velocity": 79}, {"time": 1885, "pitch": 63, "duration": 10, "velocity": 81}, {"time": 1891, "pitch": 51, "duration": 20, "velocity": 80}, {"time": 1897, "pitch": 60, "duration": 7, "velocity": 87}, {"time": 1903, "pitch": 56, "duration": 4, "velocity": 86}, {"time": 1909, "pitch": 56, "duration": 13, "velocity": 87}, {"time": 1909, "pitch": 63, "duration": 7, "velocity": 85}, {"time": 1915, "pitch": 51, "duration": 8, "velocity": 83}, {"time": 1921, "pitch": 60, "duration": 2, "velocity": 79}, {"time": 1921, "pitch": 63, "duration": 3, "velocity": 79}, {"time": 1921, "pitch": 68, "duration": 3, "velocity": 85}, {"time": 1933, "pitch": 48, "duration": 16, "velocity": 87}, {"time": 1933, "pitch": 60, "duration": 13, "velocity": 82}, {"time": 1933, "pitch": 67, "duration": 17, "velocity": 77}, {"time": 1939, "pitch": 55, "duration": 8, "velocity": 83}, {"time": 1945, "pitch": 63, "duration": 5, "velocity": 87}, {"time": 1951, "pitch": 60, "duration": 4, "velocity": 87}, {"time": 1957, "pitch": 46, "duration": 21, "velocity": 86}, {"time": 1957, "pitch": 58, "duration": 7, "velocity": 91}, {"time": 1963, "pitch": 53, "duration": 14, "velocity": 91}, {"time": 1969, "pitch": 58, "duration": 3, "velocity": 86}, {"time": 1969, "pitch": 65, "duration": 6, "velocity": 86}, {"time": 1975, "pitch": 58, "duration": 4, "velocity": 79}, {"time": 1981, "pitch": 51, "duration": 21, "velocity": 91}, {"time": 1981, "pitch": 58, "duration": 3, "velocity": 87}, {"time": 1981, "pitch": 63, "duration": 8, "velocity": 86}, {"time": 1987, "pitch": 58, "duration": 7, "velocity": 86}, {"time": 1993, "pitch": 65, "duration": 2, "velocity": 87}, {"time": 1999, "pitch": 67, "duration": 4, "velocity": 88}, {"time": 2005, "pitch": 51, "duration": 24, "velocity": 86}, {"time": 2005, "pitch": 58, "duration": 4, "velocity": 79}, {"time": 2005, "pitch": 63, "duration": 8, "velocity": 86}, {"time": 2011, "pitch": 58, "duration": 15, "velocity": 80}, {"time": 2017, "pitch": 63, "duration": 11, "velocity": 78}, {"time": 2029, "pitch": 60, "duration": 8, "velocity": 81}, {"time": 2029, "pitch": 65, "duration": 13, "velocity": 88}, {"time": 2029, "pitch": 41, "duration": 42, "velocity": 89}, {"time": 2035, "pitch": 48, "duration": 35, "velocity": 76}, {"time": 2041, "pitch": 60, "duration": 28, "velocity": 84}, {"time": 2047, "pitch": 65, "duration": 21, "velocity": 82}, {"time": 2074, "pitch": 60, "duration": 4, "velocity": 79}, {"time": 2076, "pitch": 65, "duration": 13, "velocity": 86}, {"time": 2077, "pitch": 41, "duration": 23, "velocity": 90}, {"time": 2077, "pitch": 68, "duration": 20, "velocity": 82}, {"time": 2082, "pitch": 48, "duration": 16, "velocity": 77}, {"time": 2088, "pitch": 60, "duration": 10, "velocity": 74}, {"time": 2094, "pitch": 65, "duration": 5, "velocity": 79}, {"time": 2122, "pitch": 60, "duration": 10, "velocity": 67}, {"time": 2124, "pitch": 63, "duration": 14, "velocity": 78}, {"time": 2124, "pitch": 48, "duration": 26, "velocity": 78}, {"time": 2125, "pitch": 67, "duration": 12, "velocity": 76}, {"time": 2131, "pitch": 55, "duration": 18, "velocity": 77}, {"time": 2137, "pitch": 60, "duration": 12, "velocity": 85}, {"time": 2142, "pitch": 63, "duration": 7, "velocity": 82}, {"time": 2168, "pitch": 68, "duration": 11, "velocity": 72}, {"time": 2169, "pitch": 63, "duration": 16, "velocity": 76}, {"time": 2170, "pitch": 60, "duration": 11, "velocity": 78}, {"time": 2172, "pitch": 56, "duration": 9, "velocity": 78}, {"time": 2172, "pitch": 44, "duration": 47, "velocity": 86}, {"time": 2178, "pitch": 51, "duration": 41, "velocity": 79}, {"time": 2185, "pitch": 56, "duration": 15, "velocity": 88}, {"time": 2191, "pitch": 63, "duration": 7, "velocity": 82}, {"time": 2196, "pitch": 68, "duration": 24, "velocity": 82}, {"time": 2202, "pitch": 63, "duration": 18, "velocity": 77}, {"time": 2208, "pitch": 56, "duration": 12, "velocity": 79}, {"time": 2221, "pitch": 41, "duration": 45, "velocity": 88}, {"time": 2221, "pitch": 60, "duration": 7, "velocity": 83}, {"time": 2221, "pitch": 68, "duration": 14, "velocity": 80}, {"time": 2227, "pitch": 48, "duration": 38, "velocity": 71}, {"time": 2233, "pitch": 60, "duration": 9, "velocity": 92}, {"time": 2239, "pitch": 65, "duration": 11, "velocity": 89}, {"time": 2251, "pitch": 60, "duration": 7, "velocity": 71}, {"time": 2257, "pitch": 68, "duration": 6, "velocity": 82}, {"time": 2263, "pitch": 67, "duration": 6, "velocity": 71}, {"time": 2269, "pitch": 41, "duration": 26, "velocity": 87}, {"time": 2269, "pitch": 65, "duration": 12, "velocity": 81}, {"time": 2275, "pitch": 48, "duration": 19, "velocity": 73}, {"time": 2281, "pitch": 60, "duration": 13, "velocity": 86}, {"time": 2287, "pitch": 65, "duration": 10, "velocity": 95}, {"time": 2299, "pitch": 60, "duration": 2, "velocity": 73}, {"time": 2305, "pitch": 60, "duration": 3, "velocity": 90}, {"time": 2305, "pitch": 68, "duration": 4, "velocity": 82}, {"time": 2317, "pitch": 41, "duration": 41, "velocity": 88}, {"time": 2317, "pitch": 60, "duration": 8, "velocity": 82}, {"time": 2317, "pitch": 65, "duration": 12, "velocity": 87}, {"time": 2323, "pitch": 48, "duration": 34, "velocity": 79}, {"time": 2329, "pitch": 60, "duration": 9, "velocity": 88}, {"time": 2335, "pitch": 65, "duration": 3, "velocity": 86}, {"time": 2341, "pitch": 68, "duration": 6, "velocity": 86}, {"time": 2347, "pitch": 65, "duration": 7, "velocity": 86}, {"time": 2353, "pitch": 60, "duration": 9, "velocity": 86}, {"time": 2359, "pitch": 65, "duration": 3, "velocity": 74}, {"time": 2365, "pitch": 39, "duration": 28, "velocity": 87}, {"time": 2365, "pitch": 63, "duration": 12, "velocity": 82}, {"time": 2371, "pitch": 46, "duration": 21, "velocity": 80}, {"time": 2377, "pitch": 58, "duration": 7, "velocity": 95}, {"time": 2383, "pitch": 63, "duration": 6, "velocity": 88}, {"time": 2389, "pitch": 65, "duration": 6, "velocity": 90}, {"time": 2395, "pitch": 63, "duration": 3, "velocity": 86}, {"time": 2401, "pitch": 58, "duration": 5, "velocity": 82}, {"time": 2401, "pitch": 67, "duration": 5, "velocity": 92}, {"time": 2413, "pitch": 44, "duration": 15, "velocity": 87}, {"time": 2413, "pitch": 56, "duration": 7, "velocity": 76}, {"time": 2413, "pitch": 63, "duration": 16, "velocity": 82}, {"time": 2419, "pitch": 51, "duration": 9, "velocity": 84}, {"time": 2425, "pitch": 56, "duration": 7, "velocity": 90}, {"time": 2437, "pitch": 41, "duration": 12, "velocity": 87}, {"time": 2437, "pitch": 56, "duration": 7, "velocity": 78}, {"time": 2437, "pitch": 60, "duration": 12, "velocity": 82}, {"time": 2443, "pitch": 48, "duration": 6, "velocity": 75}, {"time": 2449, "pitch": 56, "duration": 6, "velocity": 88}, {"time": 2461, "pitch": 49, "duration": 21, "velocity": 87}, {"time": 2461, "pitch": 56, "duration": 2, "velocity": 66}, {"time": 2461, "pitch": 65, "duration": 17, "velocity": 86}, {"time": 2467, "pitch": 53, "duration": 15, "velocity": 87}, {"time": 2473, "pitch": 56, "duration": 10, "velocity": 90}, {"time": 2479, "pitch": 61, "duration": 4, "velocity": 84}, {"time": 2485, "pitch": 44, "duration": 7, "velocity": 82}, {"time": 2485, "pitch": 56, "duration": 6, "velocity": 81}, {"time": 2485, "pitch": 60, "duration": 6, "velocity": 78}, {"time": 2485, "pitch": 63, "duration": 6, "velocity": 81}, {"time": 2509, "pitch": 49, "duration": 20, "velocity": 86}, {"time": 2509, "pitch": 56, "duration": 7, "velocity": 77}, {"time": 2509, "pitch": 61, "duration": 12, "velocity": 80}, {"time": 2509, "pitch": 70, "duration": 11, "velocity": 83}, {"time": 2515, "pitch": 53, "duration": 13, "velocity": 74}, {"time": 2521, "pitch": 56, "duration": 7, "velocity": 91}, {"time": 2527, "pitch": 61, "duration": 6, "velocity": 92}, {"time": 2533, "pitch": 46, "duration": 17, "velocity": 85}, {"time": 2533, "pitch": 62, "duration": 12, "velocity": 82}, {"time": 2539, "pitch": 53, "duration": 11, "velocity": 87}, {"time": 2545, "pitch": 58, "duration": 8, "velocity": 88}, {"time": 2551, "pitch": 62, "duration": 2, "velocity": 91}, {"time": 2557, "pitch": 39, "duration": 39, "velocity": 87}, {"time": 2557, "pitch": 63, "duration": 11, "velocity": 87}, {"time": 2563, "pitch": 46, "duration": 33, "velocity": 80}, {"time": 2569, "pitch": 58, "duration": 7, "velocity": 95}, {"time": 2575, "pitch": 63, "duration": 4, "velocity": 87}, {"time": 2581, "pitch": 65, "duration": 6, "velocity": 95}, {"time": 2587, "pitch": 63, "duration": 6, "velocity": 88}, {"time": 2593, "pitch": 58, "duration": 5, "velocity": 92}, {"time": 2598, "pitch": 60, "duration": 6, "velocity": 80}, {"time": 2605, "pitch": 41, "duration": 45, "velocity": 88}, {"time": 2605, "pitch": 60, "duration": 7, "velocity": 83}, {"time": 2605, "pitch": 68, "duration": 14, "velocity": 80}, {"time": 2611, "pitch": 48, "duration": 38, "velocity": 71}, {"time": 2617, "pitch": 60, "duration": 9, "velocity": 92}, {"time": 2623, "pitch": 65, "duration": 11, "velocity": 89}, {"time": 2635, "pitch": 60, "duration": 7, "velocity": 71}, {"time": 2641, "pitch": 68, "duration": 6, "velocity": 82}, {"time": 2647, "pitch": 67, "duration": 6, "velocity": 71}, {"time": 2653, "pitch": 41, "duration": 26, "velocity": 87}, {"time": 2653, "pitch": 65, "duration": 12, "velocity": 81}, {"time": 2659, "pitch": 48, "duration": 19, "velocity": 73}, {"time": 2665, "pitch": 60, "duration": 13, "velocity": 86}, {"time": 2671, "pitch": 65, "duration": 10, "velocity": 95}, {"time": 2683, "pitch": 60, "duration": 2, "velocity": 73}, {"time": 2689, "pitch": 60, "duration": 3, "velocity": 90}, {"time": 2689, "pitch": 68, "duration": 4, "velocity": 82}, {"time": 2701, "pitch": 41, "duration": 41, "velocity": 88}, {"time": 2701, "pitch": 60, "duration": 8, "velocity": 82}, {"time": 2701, "pitch": 65, "duration": 12, "velocity": 87}, {"time": 2707, "pitch": 48, "duration": 34, "velocity": 79}, {"time": 2713, "pitch": 60, "duration": 9, "velocity": 88}, {"time": 2719, "pitch": 65, "duration": 3, "velocity": 86}, {"time": 2725, "pitch": 68, "duration": 6, "velocity": 86}, {"time": 2731, "pitch": 65, "duration": 7, "velocity": 86}, {"time": 2737, "pitch": 60, "duration": 9, "velocity": 86}, {"time": 2743, "pitch": 65, "duration": 3, "velocity": 74}, {"time": 2749, "pitch": 39, "duration": 28, "velocity": 87}, {"time": 2749, "pitch": 63, "duration": 12, "velocity": 82}, {"time": 2755, "pitch": 46, "duration": 21, "velocity": 80}, {"time": 2761, "pitch": 58, "duration": 7, "velocity": 95}, {"time": 2767, "pitch": 63, "duration": 6, "velocity": 88}, {"time": 2773, "pitch": 65, "duration": 6, "velocity": 90}, {"time": 2779, "pitch": 63, "duration": 3, "velocity": 86}, {"time": 2785, "pitch": 58, "duration": 5, "velocity": 82}, {"time": 2785, "pitch": 67, "duration": 5, "velocity": 92}, {"time": 2797, "pitch": 44, "duration": 15, "velocity": 87}, {"time": 2797, "pitch": 56, "duration": 7, "velocity": 76}, {"time": 2797, "pitch": 63, "duration": 16, "velocity": 82}, {"time": 2803, "pitch": 51, "duration": 9, "velocity": 84}, {"time": 2809, "pitch": 56, "duration": 7, "velocity": 90}, {"time": 2821, "pitch": 41, "duration": 19, "velocity": 87}, {"time": 2821, "pitch": 53, "duration": 12, "velocity": 86}, {"time": 2821, "pitch": 60, "duration": 13, "velocity": 82}, {"time": 2827, "pitch": 48, "duration": 13, "velocity": 81}, {"time": 2833, "pitch": 56, "duration": 6, "velocity": 82}, {"time": 2839, "pitch": 53, "duration": 12, "velocity": 82}, {"time": 2845, "pitch": 41, "duration": 8, "velocity": 87}, {"time": 2845, "pitch": 56, "duration": 7, "velocity": 84}, {"time": 2845, "pitch": 60, "duration": 7, "velocity": 81}, {"time": 2845, "pitch": 65, "duration": 7, "velocity": 87}, {"time": 2869, "pitch": 37, "duration": 2, "velocity": 82}, {"time": 2869, "pitch": 56, "duration": 6, "velocity": 79}, {"time": 2869, "pitch": 61, "duration": 7, "velocity": 79}, {"time": 2869, "pitch": 65, "duration": 8, "velocity": 86}, {"time": 2875, "pitch": 49, "duration": 12, "velocity": 78}, {"time": 2881, "pitch": 56, "duration": 9, "velocity": 87}, {"time": 2887, "pitch": 61, "duration": 2, "velocity": 95}, {"time": 2893, "pitch": 39, "duration": 21, "velocity": 88}, {"time": 2893, "pitch": 58, "duration": 7, "velocity": 80}, {"time": 2893, "pitch": 63, "duration": 13, "velocity": 81}, {"time": 2899, "pitch": 46, "duration": 16, "velocity": 82}, {"time": 2905, "pitch": 58, "duration": 8, "velocity": 90}, {"time": 2911, "pitch": 63, "duration": 5, "velocity": 86}, {"time": 2917, "pitch": 41, "duration": 16, "velocity": 89}, {"time": 2917, "pitch": 65, "duration": 9, "velocity": 86}, {"time": 2923, "pitch": 48, "duration": 10, "velocity": 82}, {"time": 2929, "pitch": 60, "duration": 3, "velocity": 83}, {"time": 2929, "pitch": 65, "duration": 14, "velocity": 85}, {"time": 2929, "pitch": 68, "duration": 15, "velocity": 82}, {"time": 2935, "pitch": 60, "duration": 8, "velocity": 77}, {"time": 2941, "pitch": 44, "duration": 49, "velocity": 87}, {"time": 2947, "pitch": 51, "duration": 21, "velocity": 82}, {"time": 2953, "pitch": 56, "duration": 9, "velocity": 87}, {"time": 2959, "pitch": 63, "duration": 3, "velocity": 84}, {"time": 2965, "pitch": 56, "duration": 3, "velocity": 87}, {"time": 2965, "pitch": 63, "duration": 7, "velocity": 86}, {"time": 2965, "pitch": 68, "duration": 9, "velocity": 82}, {"time": 2971, "pitch": 56, "duration": 2, "velocity": 89}, {"time": 2977, "pitch": 68, "duration": 4, "velocity": 80}, {"time": 2977, "pitch": 72, "duration": 5, "velocity": 86}, {"time": 2983, "pitch": 70, "duration": 6, "velocity": 88}, {"time": 2989, "pitch": 41, "duration": 15, "velocity": 88}, {"time": 2989, "pitch": 60, "duration": 7, "velocity": 86}, {"time": 2989, "pitch": 68, "duration": 14, "velocity": 81}, {"time": 2995, "pitch": 48, "duration": 8, "velocity": 66}, {"time": 3001, "pitch": 60, "duration": 7, "velocity": 97}, {"time": 3007, "pitch": 65, "duration": 4, "velocity": 86}, {"time": 3013, "pitch": 49, "duration": 14, "velocity": 90}, {"time": 3013, "pitch": 61, "duration": 8, "velocity": 76}, {"time": 3013, "pitch": 68, "duration": 14, "velocity": 83}, {"time": 3019, "pitch": 56, "duration": 7, "velocity": 86}, {"time": 3025, "pitch": 61, "duration": 7, "velocity": 91}, {"time": 3037, "pitch": 39, "duration": 20, "velocity": 88}, {"time": 3037, "pitch": 63, "duration": 7, "velocity": 75}, {"time": 3037, "pitch": 68, "duration": 10, "velocity": 75}, {"time": 3043, "pitch": 46, "duration": 14, "velocity": 86}, {"time": 3049, "pitch": 63, "duration": 3, "velocity": 91}, {"time": 3055, "pitch": 63, "duration": 2, "velocity": 80}, {"time": 3055, "pitch": 68, "duration": 3, "velocity": 87}, {"time": 3061, "pitch": 39, "duration": 14, "velocity": 91}, {"time": 3061, "pitch": 63, "duration": 7, "velocity": 84}, {"time": 3061, "pitch": 67, "duration": 7, "velocity": 83}, {"time": 3067, "pitch": 46, "duration": 8, "velocity": 77}, {"time": 3073, "pitch": 63, "duration": 2, "velocity": 81}, {"time": 3073, "pitch": 67, "duration": 4, "velocity": 86}, {"time": 3073, "pitch": 70, "duration": 6, "velocity": 86}, {"time": 3079, "pitch": 63, "duration": 1, "velocity": 78}, {"time": 3085, "pitch": 46, "duration": 26, "velocity": 86}, {"time": 3085, "pitch": 58, "duration": 13, "velocity": 78}, {"time": 3085, "pitch": 61, "duration": 13, "velocity": 78}, {"time": 3091, "pitch": 53, "duration": 20, "velocity": 84}, {"time": 3097, "pitch": 65, "duration": 6, "velocity": 89}, {"time": 3103, "pitch": 58, "duration": 3, "velocity": 44}, {"time": 3103, "pitch": 61, "duration": 3, "velocity": 81}, {"time": 3109, "pitch": 58, "duration": 8, "velocity": 83}, {"time": 3109, "pitch": 70, "duration": 6, "velocity": 87}, {"time": 3115, "pitch": 53, "duration": 8, "velocity": 82}, {"time": 3121, "pitch": 61, "duration": 6, "velocity": 91}, {"time": 3121, "pitch": 65, "duration": 7, "velocity": 92}, {"time": 3127, "pitch": 58, "duration": 3, "velocity": 82}, {"time": 3133, "pitch": 39, "duration": 20, "velocity": 91}, {"time": 3133, "pitch": 58, "duration": 6, "velocity": 81}, {"time": 3133, "pitch": 63, "duration": 8, "velocity": 81}, {"time": 3139, "pitch": 46, "duration": 14, "velocity": 81}, {"time": 3145, "pitch": 63, "duration": 7, "velocity": 83}, {"time": 3151, "pitch": 58, "duration": 4, "velocity": 90}, {"time": 3157, "pitch": 39, "duration": 9, "velocity": 91}, {"time": 3157, "pitch": 58, "duration": 5, "velocity": 86}, {"time": 3157, "pitch": 63, "duration": 7, "velocity": 88}, {"time": 3157, "pitch": 67, "duration": 7, "velocity": 86}, {"time": 3163, "pitch": 46, "duration": 4, "velocity": 85}, {"time": 3169, "pitch": 58, "duration": 2, "velocity": 89}, {"time": 3181, "pitch": 44, "duration": 13, "velocity": 86}, {"time": 3181, "pitch": 56, "duration": 7, "velocity": 79}, {"time": 3181, "pitch": 60, "duration": 8, "velocity": 75}, {"time": 3181, "pitch": 63, "duration": 14, "velocity": 79}, {"time": 3187, "pitch": 51, "duration": 7, "velocity": 80}, {"time": 3193, "pitch": 56, "duration": 8, "velocity": 93}, {"time": 3199, "pitch": 60, "duration": 3, "velocity": 86}, {"time": 3205, "pitch": 41, "duration": 13, "velocity": 88}, {"time": 3205, "pitch": 60, "duration": 9, "velocity": 83}, {"time": 3205, "pitch": 65, "duration": 8, "velocity": 87}, {"time": 3211, "pitch": 48, "duration": 6, "velocity": 75}, {"time": 3217, "pitch": 56, "duration": 3, "velocity": 82}, {"time": 3217, "pitch": 60, "duration": 3, "velocity": 83}, {"time": 3217, "pitch": 65, "duration": 3, "velocity": 88}, {"time": 3229, "pitch": 49, "duration": 11, "velocity": 89}, {"time": 3229, "pitch": 56, "duration": 3, "velocity": 83}, {"time": 3229, "pitch": 61, "duration": 7, "velocity": 83}, {"time": 3235, "pitch": 56, "duration": 7, "velocity": 86}, {"time": 3241, "pitch": 61, "duration": 9, "velocity": 85}, {"time": 3253, "pitch": 39, "duration": 12, "velocity": 88}, {"time": 3253, "pitch": 58, "duration": 5, "velocity": 79}, {"time": 3253, "pitch": 63, "duration": 4, "velocity": 83}, {"time": 3259, "pitch": 46, "duration": 6, "velocity": 82}, {"time": 3265, "pitch": 63, "duration": 8, "velocity": 87}, {"time": 3265, "pitch": 67, "duration": 8, "velocity": 81}, {"time": 3271, "pitch": 58, "duration": 4, "velocity": 76}, {"time": 3277, "pitch": 41, "duration": 22, "velocity": 87}, {"time": 3277, "pitch": 60, "duration": 5, "velocity": 87}, {"time": 3277, "pitch": 68, "duration": 8, "velocity": 83}, {"time": 3283, "pitch": 48, "duration": 14, "velocity": 84}, {"time": 3289, "pitch": 65, "duration": 7, "velocity": 92}, {"time": 3295, "pitch": 68, "duration": 4, "velocity": 88}, {"time": 3301, "pitch": 37, "duration": 15, "velocity": 83}, {"time": 3301, "pitch": 65, "duration": 7, "velocity": 87}, {"time": 3301, "pitch": 68, "duration": 7, "velocity": 86}, {"time": 3301, "pitch": 72, "duration": 6, "velocity": 87}, {"time": 3307, "pitch": 44, "duration": 9, "velocity": 81}, {"time": 3313, "pitch": 65, "duration": 2, "velocity": 90}, {"time": 3313, "pitch": 68, "duration": 6, "velocity": 87}, {"time": 3325, "pitch": 39, "duration": 2, "velocity": 88}, {"time": 3325, "pitch": 63, "duration": 9, "velocity": 86}, {"time": 3325, "pitch": 67, "duration": 10, "velocity": 81}, {"time": 3337, "pitch": 51, "duration": 16, "velocity": 89}, {"time": 3337, "pitch": 63, "duration": 4, "velocity": 88}, {"time": 3337, "pitch": 67, "duration": 7, "velocity": 80}, {"time": 3337, "pitch": 70, "duration": 8, "velocity": 87}, {"time": 3343, "pitch": 58, "duration": 9, "velocity": 85}, {"time": 3349, "pitch": 63, "duration": 9, "velocity": 85}, {"time": 3349, "pitch": 67, "duration": 9, "velocity": 78}, {"time": 3349, "pitch": 70, "duration": 9, "velocity": 83}, {"time": 3349, "pitch": 75, "duration": 8, "velocity": 89}, {"time": 3355, "pitch": 58, "duration": 5, "velocity": 87}, {"time": 3361, "pitch": 63, "duration": 2, "velocity": 84}, {"time": 3361, "pitch": 67, "duration": 4, "velocity": 82}, {"time": 3361, "pitch": 70, "duration": 10, "velocity": 85}, {"time": 3367, "pitch": 63, "duration": 3, "velocity": 75}, {"time": 3373, "pitch": 37, "duration": 13, "velocity": 81}, {"time": 3373, "pitch": 56, "duration": 7, "velocity": 86}, {"time": 3373, "pitch": 65, "duration": 9, "velocity": 87}, {"time": 3379, "pitch": 44, "duration": 7, "velocity": 69}, {"time": 3385, "pitch": 56, "duration": 2, "velocity": 88}, {"time": 3385, "pitch": 61, "duration": 5, "velocity": 88}, {"time": 3397, "pitch": 46, "duration": 14, "velocity": 87}, {"time": 3397, "pitch": 58, "duration": 7, "velocity": 86}, {"time": 3397, "pitch": 62, "duration": 7, "velocity": 86}, {"time": 3403, "pitch": 53, "duration": 7, "velocity": 90}, {"time": 3409, "pitch": 58, "duration": 2, "velocity": 86}, {"time": 3409, "pitch": 62, "duration": 3, "velocity": 87}, {"time": 3409, "pitch": 65, "duration": 12, "velocity": 88}, {"time": 3415, "pitch": 58, "duration": 4, "velocity": 86}, {"time": 3421, "pitch": 39, "duration": 22, "velocity": 87}, {"time": 3421, "pitch": 58, "duration": 8, "velocity": 77}, {"time": 3421, "pitch": 63, "duration": 9, "velocity": 82}, {"time": 3427, "pitch": 46, "duration": 15, "velocity": 82}, {"time": 3433, "pitch": 65, "duration": 5, "velocity": 86}, {"time": 3439, "pitch": 63, "duration": 2, "velocity": 87}, {"time": 3445, "pitch": 39, "duration": 13, "velocity": 92}, {"time": 3445, "pitch": 58, "duration": 4, "velocity": 79}, {"time": 3445, "pitch": 63, "duration": 7, "velocity": 84}, {"time": 3445, "pitch": 67, "duration": 8, "velocity": 82}, {"time": 3451, "pitch": 46, "duration": 8, "velocity": 82}, {"time": 3457, "pitch": 58, "duration": 6, "velocity": 89}, {"time": 3463, "pitch": 63, "duration": 2, "velocity": 84}, {"time": 3469, "pitch": 44, "duration": 12, "velocity": 87}, {"time": 3469, "pitch": 56, "duration": 8, "velocity": 81}, {"time": 3469, "pitch": 60, "duration": 7, "velocity": 83}, {"time": 3475, "pitch": 51, "duration": 6, "velocity": 84}, {"time": 3481, "pitch": 56, "duration": 2, "velocity": 84}, {"time": 3481, "pitch": 60, "duration": 4, "velocity": 87}, {"time": 3481, "pitch": 63, "duration": 5, "velocity": 86}, {"time": 3493, "pitch": 41, "duration": 47, "velocity": 88}, {"time": 3493, "pitch": 53, "duration": 20, "velocity": 86}, {"time": 3493, "pitch": 56, "duration": 12, "velocity": 82}, {"time": 3499, "pitch": 48, "duration": 41, "velocity": 76}, {"time": 3505, "pitch": 60, "duration": 9, "velocity": 84}, {"time": 3511, "pitch": 56, "duration": 3, "velocity": 80}, {"time": 3517, "pitch": 53, "duration": 23, "velocity": 85}, {"time": 3517, "pitch": 56, "duration": 23, "velocity": 86}, {"time": 3517, "pitch": 60, "duration": 24, "velocity": 80}, {"time": 3517, "pitch": 65, "duration": 24, "velocity": 85}, {"time": 3541, "pitch": 37, "duration": 2, "velocity": 86}, {"time": 3541, "pitch": 56, "duration": 7, "velocity": 84}, {"time": 3541, "pitch": 65, "duration": 1, "velocity": 86}, {"time": 3547, "pitch": 49, "duration": 21, "velocity": 86}, {"time": 3553, "pitch": 56, "duration": 13, "velocity": 89}, {"time": 3559, "pitch": 61, "duration": 3, "velocity": 87}, {"time": 3565, "pitch": 61, "duration": 3, "velocity": 78}, {"time": 3565, "pitch": 65, "duration": 3, "velocity": 83}, {"time": 3565, "pitch": 68, "duration": 4, "velocity": 76}, {"time": 3577, "pitch": 39, "duration": 7, "velocity": 88}, {"time": 3577, "pitch": 63, "duration": 9, "velocity": 88}, {"time": 3577, "pitch": 67, "duration": 7, "velocity": 86}, {"time": 3589, "pitch": 44, "duration": 48, "velocity": 86}, {"time": 3589, "pitch": 63, "duration": 6, "velocity": 84}, {"time": 3589, "pitch": 68, "duration": 5, "velocity": 82}, {"time": 3595, "pitch": 51, "duration": 41, "velocity": 74}, {"time": 3601, "pitch": 56, "duration": 8, "velocity": 80}, {"time": 3607, "pitch": 58, "duration": 7, "velocity": 89}, {"time": 3613, "pitch": 60, "duration": 6, "velocity": 90}, {"time": 3619, "pitch": 63, "duration": 2, "velocity": 90}, {"time": 3625, "pitch": 68, "duration": 3, "velocity": 87}, {"time": 3631, "pitch": 70, "duration": 5, "velocity": 87}, {"time": 3637, "pitch": 41, "duration": 15, "velocity": 88}, {"time": 3637, "pitch": 60, "duration": 7, "velocity": 86}, {"time": 3637, "pitch": 68, "duration": 14, "velocity": 81}, {"time": 3643, "pitch": 48, "duration": 8, "velocity": 66}, {"time": 3649, "pitch": 60, "duration": 7, "velocity": 97}, {"time": 3655, "pitch": 65, "duration": 4, "velocity": 86}, {"time": 3661, "pitch": 49, "duration": 14, "velocity": 90}, {"time": 3661, "pitch": 61, "duration": 8, "velocity": 76}, {"time": 3661, "pitch": 68, "duration": 14, "velocity": 83}, {"time": 3667, "pitch": 56, "duration": 7, "velocity": 86}, {"time": 3673, "pitch": 61, "duration": 7, "velocity": 91}, {"time": 3685, "pitch": 39, "duration": 20, "velocity": 88}, {"time": 3685, "pitch": 63, "duration": 7, "velocity": 75}, {"time": 3685, "pitch": 68, "duration": 10, "velocity": 75}, {"time": 3691, "pitch": 46, "duration": 14, "velocity": 86}, {"time": 3697, "pitch": 63, "duration": 3, "velocity": 91}, {"time": 3703, "pitch": 63, "duration": 2, "velocity": 80}, {"time": 3703, "pitch": 68, "duration": 3, "velocity": 87}, {"time": 3709, "pitch": 39, "duration": 14, "velocity": 91}, {"time": 3709, "pitch": 63, "duration": 7, "velocity": 84}, {"time": 3709, "pitch": 67, "duration": 7, "velocity": 83}, {"time": 3715, "pitch": 46, "duration": 8, "velocity": 77}, {"time": 3721, "pitch": 63, "duration": 2, "velocity": 81}, {"time": 3721, "pitch": 67, "duration": 4, "velocity": 86}, {"time": 3721, "pitch": 70, "duration": 6, "velocity": 86}, {"time": 3727, "pitch": 63, "duration": 1, "velocity": 78}, {"time": 3733, "pitch": 46, "duration": 26, "velocity": 86}, {"time": 3733, "pitch": 58, "duration": 13, "velocity": 78}, {"time": 3733, "pitch": 61, "duration": 13, "velocity": 78}, {"time": 3739, "pitch": 53, "duration": 20, "velocity": 84}, {"time": 3745, "pitch": 65, "duration": 6, "velocity": 89}, {"time": 3751, "pitch": 58, "duration": 3, "velocity": 44}, {"time": 3751, "pitch": 61, "duration": 3, "velocity": 81}, {"time": 3757, "pitch": 58, "duration": 8, "velocity": 83}, {"time": 3757, "pitch": 70, "duration": 6, "velocity": 87}, {"time": 3763, "pitch": 53, "duration": 8, "velocity": 82}, {"time": 3769, "pitch": 61, "duration": 6, "velocity": 91}, {"time": 3769, "pitch": 65, "duration": 7, "velocity": 92}, {"time": 3775, "pitch": 58, "duration": 3, "velocity": 82}, {"time": 3781, "pitch": 39, "duration": 20, "velocity": 91}, {"time": 3781, "pitch": 58, "duration": 6, "velocity": 81}, {"time": 3781, "pitch": 63, "duration": 8, "velocity": 81}, {"time": 3787, "pitch": 46, "duration": 14, "velocity": 81}, {"time": 3793, "pitch": 63, "duration": 7, "velocity": 83}, {"time": 3799, "pitch": 58, "duration": 4, "velocity": 90}, {"time": 3805, "pitch": 39, "duration": 9, "velocity": 91}, {"time": 3805, "pitch": 58, "duration": 5, "velocity": 86}, {"time": 3805, "pitch": 63, "duration": 7, "velocity": 88}, {"time": 3805, "pitch": 67, "duration": 7, "velocity": 86}, {"time": 3811, "pitch": 46, "duration": 4, "velocity": 85}, {"time": 3817, "pitch": 58, "duration": 2, "velocity": 89}, {"time": 3829, "pitch": 44, "duration": 13, "velocity": 86}, {"time": 3829, "pitch": 56, "duration": 7, "velocity": 79}, {"time": 3829, "pitch": 60, "duration": 8, "velocity": 75}, {"time": 3829, "pitch": 63, "duration": 14, "velocity": 79}, {"time": 3835, "pitch": 51, "duration": 7, "velocity": 80}, {"time": 3841, "pitch": 56, "duration": 8, "velocity": 93}, {"time": 3847, "pitch": 60, "duration": 3, "velocity": 86}, {"time": 3853, "pitch": 41, "duration": 13, "velocity": 88}, {"time": 3853, "pitch": 60, "duration": 9, "velocity": 83}, {"time": 3853, "pitch": 65, "duration": 8, "velocity": 87}, {"time": 3859, "pitch": 48, "duration": 6, "velocity": 75}, {"time": 3865, "pitch": 56, "duration": 3, "velocity": 82}, {"time": 3865, "pitch": 60, "duration": 3, "velocity": 83}, {"time": 3865, "pitch": 65, "duration": 3, "velocity": 88}, {"time": 3877, "pitch": 49, "duration": 11, "velocity": 89}, {"time": 3877, "pitch": 56, "duration": 3, "velocity": 83}, {"time": 3877, "pitch": 61, "duration": 7, "velocity": 83}, {"time": 3883, "pitch": 56, "duration": 7, "velocity": 86}, {"time": 3889, "pitch": 61, "duration": 9, "velocity": 85}, {"time": 3901, "pitch": 39, "duration": 12, "velocity": 88}, {"time": 3901, "pitch": 58, "duration": 5, "velocity": 79}, {"time": 3901, "pitch": 63, "duration": 4, "velocity": 83}, {"time": 3907, "pitch": 46, "duration": 6, "velocity": 82}, {"time": 3913, "pitch": 63, "duration": 8, "velocity": 87}, {"time": 3913, "pitch": 67, "duration": 8, "velocity": 81}, {"time": 3919, "pitch": 58, "duration": 4, "velocity": 76}, {"time": 3925, "pitch": 41, "duration": 22, "velocity": 87}, {"time": 3925, "pitch": 60, "duration": 5, "velocity": 87}, {"time": 3925, "pitch": 68, "duration": 8, "velocity": 83}, {"time": 3931, "pitch": 48, "duration": 14, "velocity": 84}, {"time": 3937, "pitch": 65, "duration": 7, "velocity": 92}, {"time": 3943, "pitch": 68, "duration": 4, "velocity": 88}, {"time": 3949, "pitch": 37, "duration": 15, "velocity": 83}, {"time": 3949, "pitch": 65, "duration": 7, "velocity": 87}, {"time": 3949, "pitch": 68, "duration": 7, "velocity": 86}, {"time": 3949, "pitch": 72, "duration": 6, "velocity": 87}, {"time": 3955, "pitch": 44, "duration": 9, "velocity": 81}, {"time": 3961, "pitch": 65, "duration": 2, "velocity": 90}, {"time": 3961, "pitch": 68, "duration": 6, "velocity": 87}, {"time": 3973, "pitch": 39, "duration": 2, "velocity": 88}, {"time": 3973, "pitch": 63, "duration": 9, "velocity": 86}, {"time": 3973, "pitch": 67, "duration": 10, "velocity": 81}, {"time": 3985, "pitch": 51, "duration": 16, "velocity": 89}, {"time": 3985, "pitch": 63, "duration": 4, "velocity": 88}, {"time": 3985, "pitch": 67, "duration": 7, "velocity": 80}, {"time": 3985, "pitch": 70, "duration": 8, "velocity": 87}, {"time": 3991, "pitch": 58, "duration": 9, "velocity": 85}, {"time": 3997, "pitch": 63, "duration": 9, "velocity": 85}, {"time": 3997, "pitch": 67, "duration": 9, "velocity": 78}, {"time": 3997, "pitch": 70, "duration": 9, "velocity": 83}, {"time": 3997, "pitch": 75, "duration": 8, "velocity": 89}, {"time": 4003, "pitch": 58, "duration": 5, "velocity": 87}, {"time": 4009, "pitch": 63, "duration": 2, "velocity": 84}, {"time": 4009, "pitch": 67, "duration": 4, "velocity": 82}, {"time": 4009, "pitch": 70, "duration": 10, "velocity": 85}, {"time": 4015, "pitch": 63, "duration": 3, "velocity": 75}, {"time": 4021, "pitch": 37, "duration": 13, "velocity": 81}, {"time": 4021, "pitch": 56, "duration": 7, "velocity": 86}, {"time": 4021, "pitch": 65, "duration": 9, "velocity": 87}, {"time": 4027, "pitch": 44, "duration": 7, "velocity": 69}, {"time": 4033, "pitch": 56, "duration": 2, "velocity": 88}, {"time": 4033, "pitch": 61, "duration": 5, "velocity": 88}, {"time": 4045, "pitch": 46, "duration": 14, "velocity": 87}, {"time": 4045, "pitch": 58, "duration": 7, "velocity": 86}, {"time": 4045, "pitch": 62, "duration": 7, "velocity": 86}, {"time": 4051, "pitch": 53, "duration": 7, "velocity": 90}, {"time": 4057, "pitch": 58, "duration": 2, "velocity": 86}, {"time": 4057, "pitch": 62, "duration": 3, "velocity": 87}, {"time": 4057, "pitch": 65, "duration": 12, "velocity": 88}, {"time": 4063, "pitch": 58, "duration": 4, "velocity": 86}, {"time": 4069, "pitch": 39, "duration": 22, "velocity": 87}, {"time": 4069, "pitch": 58, "duration": 8, "velocity": 77}, {"time": 4069, "pitch": 63, "duration": 9, "velocity": 82}, {"time": 4075, "pitch": 46, "duration": 15, "velocity": 82}, {"time": 4081, "pitch": 65, "duration": 5, "velocity": 86}, {"time": 4087, "pitch": 63, "duration": 2, "velocity": 87}, {"time": 4093, "pitch": 39, "duration": 13, "velocity": 92}, {"time": 4093, "pitch": 58, "duration": 4, "velocity": 79}, {"time": 4093, "pitch": 63, "duration": 7, "velocity": 84}, {"time": 4093, "pitch": 67, "duration": 8, "velocity": 82}, {"time": 4099, "pitch": 46, "duration": 8, "velocity": 82}, {"time": 4105, "pitch": 58, "duration": 6, "velocity": 89}, {"time": 4111, "pitch": 63, "duration": 2, "velocity": 84}, {"time": 4117, "pitch": 44, "duration": 12, "velocity": 87}, {"time": 4117, "pitch": 56, "duration": 8, "velocity": 81}, {"time": 4117, "pitch": 60, "duration": 7, "velocity": 83}, {"time": 4123, "pitch": 51, "duration": 6, "velocity": 84}, {"time": 4129, "pitch": 56, "duration": 2, "velocity": 84}, {"time": 4129, "pitch": 60, "duration": 4, "velocity": 87}, {"time": 4129, "pitch": 63, "duration": 5, "velocity": 86}, {"time": 4141, "pitch": 41, "duration": 47, "velocity": 88}, {"time": 4141, "pitch": 53, "duration": 20, "velocity": 86}, {"time": 4141, "pitch": 56, "duration": 12, "velocity": 82}, {"time": 4147, "pitch": 48, "duration": 41, "velocity": 76}, {"time": 4153, "pitch": 60, "duration": 9, "velocity": 84}, {"time": 4159, "pitch": 56, "duration": 3, "velocity": 80}, {"time": 4165, "pitch": 53, "duration": 23, "velocity": 85}, {"time": 4165, "pitch": 56, "duration": 23, "velocity": 86}, {"time": 4165, "pitch": 60, "duration": 24, "velocity": 80}, {"time": 4165, "pitch": 65, "duration": 24, "velocity": 85}, {"time": 4189, "pitch": 37, "duration": 2, "velocity": 87}, {"time": 4189, "pitch": 56, "duration": 5, "velocity": 71}, {"time": 4191, "pitch": 61, "duration": 4, "velocity": 77}, {"time": 4193, "pitch": 65, "duration": 5, "velocity": 82}, {"time": 4198, "pitch": 49, "duration": 40, "velocity": 80}, {"time": 4203, "pitch": 56, "duration": 36, "velocity": 72}, {"time": 4206, "pitch": 61, "duration": 6, "velocity": 79}, {"time": 4211, "pitch": 68, "duration": 6, "velocity": 82}, {"time": 4216, "pitch": 61, "duration": 23, "velocity": 81}, {"time": 4223, "pitch": 73, "duration": 15, "velocity": 34}, {"time": 4264, "pitch": 56, "duration": 10, "velocity": 49}, {"time": 4265, "pitch": 60, "duration": 13, "velocity": 84}, {"time": 4266, "pitch": 63, "duration": 13, "velocity": 80}, {"time": 4266, "pitch": 44, "duration": 45, "velocity": 87}, {"time": 4272, "pitch": 51, "duration": 38, "velocity": 71}, {"time": 4277, "pitch": 56, "duration": 14, "velocity": 82}, {"time": 4284, "pitch": 63, "duration": 15, "velocity": 86}, {"time": 4296, "pitch": 56, "duration": 7, "velocity": 53}, {"time": 4302, "pitch": 68, "duration": 11, "velocity": 83}, {"time": 4302, "pitch": 63, "duration": 9, "velocity": 83}, {"time": 4302, "pitch": 60, "duration": 9, "velocity": 80}, {"time": 4309, "pitch": 56, "duration": 15, "velocity": 74}, {"time": 4314, "pitch": 44, "duration": 43, "velocity": 88}, {"time": 4315, "pitch": 63, "duration": 14, "velocity": 80}, {"time": 4321, "pitch": 51, "duration": 35, "velocity": 77}, {"time": 4327, "pitch": 56, "duration": 12, "velocity": 87}, {"time": 4333, "pitch": 68, "duration": 17, "velocity": 86}, {"time": 4346, "pitch": 56, "duration": 2, "velocity": 72}, {"time": 4351, "pitch": 56, "duration": 4, "velocity": 87}, {"time": 4351, "pitch": 63, "duration": 6, "velocity": 86}, {"time": 4361, "pitch": 56, "duration": 9, "velocity": 73}, {"time": 4362, "pitch": 60, "duration": 16, "velocity": 81}, {"time": 4363, "pitch": 63, "duration": 16, "velocity": 75}, {"time": 4364, "pitch": 68, "duration": 16, "velocity": 83}, {"time": 4364, "pitch": 44, "duration": 51, "velocity": 88}, {"time": 4370, "pitch": 51, "duration": 45, "velocity": 79}, {"time": 4378, "pitch": 56, "duration": 12, "velocity": 87}, {"time": 4386, "pitch": 63, "duration": 5, "velocity": 78}, {"time": 4401, "pitch": 68, "duration": 12, "velocity": 62}, {"time": 4403, "pitch": 80, "duration": 10, "velocity": 72}], "annotations": [{"time": 37, "annotation": {"number": 64, "value": 127}, "group": "control_change"}, {"time": 82, "annotation": {"number": 64, "value": 0}, "group": "control_change"}, {"time": 85, "annotation": {"number": 64, "value": 127}, "group": "control_change"}, {"time": 131, "annotation": {"number": 64, "value": 0}, "group": "control_change"}, {"time": 134, "annotation": {"number": 64, "value": 127}, "group": "control_change"}, {"time": 176, "annotation": {"number": 64, "value": 0}, "group": "control_change"}, {"time": 180, "annotation": {"number": 64, "value": 127}, "group": "control_change"}, {"time": 228, "annotation": {"number": 64, "value": 0}, "group": "control_change"}, {"time": 231, "annotation": {"number": 64, "value": 127}, "group": "control_change"}, {"time": 275, "annotation": {"number": 64, "value": 0}, "group": "control_change"}, {"time": 277, "annotation": {"number": 64, "value": 127}, "group": "control_change"}, {"time": 322, "annotation": {"number": 64, "value": 0}, "group": "control_change"}, {"time": 325, "annotation": {"number": 64, "value": 127}, "group": "control_change"}, {"time": 371, "annotation": {"number": 64, "value": 0}, "group": "control_change"}, {"time": 375, "annotation": {"number": 64, "value": 127}, "group": "control_change"}, {"time": 409, "annotation": {"number": 64, "value": 0}, "group": "control_change"}, {"time": 424, "annotation": {"number": 64, "value": 127}, "group": "control_change"}, {"time": 424, "annotation": {"number": 64, "value": 0}, "group": "control_change"}, {"time": 425, "annotation": {"number": 64, "value": 127}, "group": "control_change"}, {"time": 467, "annotation": {"number": 64, "value": 0}, "group": "control_change"}, {"time": 470, "annotation": {"number": 64, "value": 127}, "group": "control_change"}, {"time": 516, "annotation": {"number": 64, "value": 0}, "group": "control_change"}, {"time": 520, "annotation": {"number": 64, "value": 127}, "group": "control_change"}, {"time": 564, "annotation": {"number": 64, "value": 0}, "group": "control_change"}, {"time": 567, "annotation": {"number": 64, "value": 127}, "group": "control_change"}, {"time": 613, "annotation": {"number": 64, "value": 0}, "group": "control_change"}, {"time": 620, "annotation": {"number": 64, "value": 127}, "group": "control_change"}, {"time": 636, "annotation": {"number": 64, "value": 0}, "group": "control_change"}, {"time": 640, "annotation": {"number": 64, "value": 127}, "group": "control_change"}, {"time": 659, "annotation": {"number": 64, "value": 0}, "group": "control_change"}, {"time": 662, "annotation": {"number": 64, "value": 127}, "group": "control_change"}, {"time": 683, "annotation": {"number": 64, "value": 0}, "group": "control_change"}, {"time": 711, "annotation": {"number": 64, "value": 127}, "group": "control_change"}, {"time": 711, "annotation": {"number": 64, "value": 0}, "group": "control_change"}, {"time": 731, "annotation": {"number": 64, "value": 0}, "group": "control_change"}, {"time": 734, "annotation": {"number": 64, "value": 127}, "group": "control_change"}, {"time": 755, "annotation": {"number": 64, "value": 0}, "group": "control_change"}, {"time": 758, "annotation": {"number": 64, "value": 127}, "group": "control_change"}, {"time": 803, "annotation": {"number": 64, "value": 0}, "group": "control_change"}, {"time": 808, "annotation": {"number": 64, "value": 127}, "group": "control_change"}, {"time": 808, "annotation": {"number": 64, "value": 0}, "group": "control_change"}, {"time": 809, "annotation": {"number": 64, "value": 127}, "group": "control_change"}, {"time": 851, "annotation": {"number": 64, "value": 0}, "group": "control_change"}, {"time": 854, "annotation": {"number": 64, "value": 127}, "group": "control_change"}, {"time": 900, "annotation": {"number": 64, "value": 0}, "group": "control_change"}, {"time": 904, "annotation": {"number": 64, "value": 127}, "group": "control_change"}, {"time": 948, "annotation": {"number": 64, "value": 0}, "group": "control_change"}, {"time": 951, "annotation": {"number": 64, "value": 127}, "group": "control_change"}, {"time": 997, "annotation": {"number": 64, "value": 0}, "group": "control_change"}, {"time": 1004, "annotation": {"number": 64, "value": 127}, "group": "control_change"}, {"time": 1020, "annotation": {"number": 64, "value": 127}, "group": "control_change"}, {"time": 1020, "annotation": {"number": 64, "value": 0}, "group": "control_change"}, {"time": 1043, "annotation": {"number": 64, "value": 0}, "group": "control_change"}, {"time": 1047, "annotation": {"number": 64, "value": 127}, "group": "control_change"}, {"time": 1062, "annotation": {"number": 64, "value": 0}, "group": "control_change"}, {"time": 1070, "annotation": {"number": 64, "value": 127}, "group": "control_change"}, {"time": 1092, "annotation": {"number": 64, "value": 0}, "group": "control_change"}, {"time": 1093, "annotation": {"number": 64, "value": 127}, "group": "control_change"}, {"time": 1115, "annotation": {"number": 64, "value": 0}, "group": "control_change"}, {"time": 1119, "annotation": {"number": 64, "value": 127}, "group": "control_change"}, {"time": 1138, "annotation": {"number": 64, "value": 0}, "group": "control_change"}, {"time": 1142, "annotation": {"number": 64, "value": 127}, "group": "control_change"}, {"time": 1186, "annotation": {"number": 64, "value": 0}, "group": "control_change"}, {"time": 1189, "annotation": {"number": 64, "value": 0}, "group": "control_change"}, {"time": 1189, "annotation": {"number": 64, "value": 127}, "group": "control_change"}, {"time": 1211, "annotation": {"number": 64, "value": 0}, "group": "control_change"}, {"time": 1214, "annotation": {"number": 64, "value": 127}, "group": "control_change"}, {"time": 1236, "annotation": {"number": 64, "value": 0}, "group": "control_change"}, {"time": 1239, "annotation": {"number": 64, "value": 127}, "group": "control_change"}, {"time": 1259, "annotation": {"number": 64, "value": 0}, "group": "control_change"}, {"time": 1261, "annotation": {"number": 64, "value": 127}, "group": "control_change"}, {"time": 1284, "annotation": {"number": 64, "value": 0}, "group": "control_change"}, {"time": 1288, "annotation": {"number": 64, "value": 127}, "group": "control_change"}, {"time": 1330, "annotation": {"number": 64, "value": 0}, "group": "control_change"}, {"time": 1333, "annotation": {"number": 64, "value": 127}, "group": "control_change"}, {"time": 1355, "annotation": {"number": 64, "value": 0}, "group": "control_change"}, {"time": 1358, "annotation": {"number": 64, "value": 127}, "group": "control_change"}, {"time": 1378, "annotation": {"number": 64, "value": 0}, "group": "control_change"}, {"time": 1381, "annotation": {"number": 64, "value": 127}, "group": "control_change"}, {"time": 1402, "annotation": {"number": 64, "value": 0}, "group": "control_change"}, {"time": 1405, "annotation": {"number": 64, "value": 127}, "group": "control_change"}, {"time": 1427, "annotation": {"number": 64, "value": 0}, "group": "control_change"}, {"time": 1430, "annotation": {"number": 64, "value": 127}, "group": "control_change"}, {"time": 1451, "annotation": {"number": 64, "value": 0}, "group": "control_change"}, {"time": 1454, "annotation": {"number": 64, "value": 127}, "group": "control_change"}, {"time": 1474, "annotation": {"number": 64, "value": 0}, "group": "control_change"}, {"time": 1477, "annotation": {"number": 64, "value": 127}, "group": "control_change"}, {"time": 1500, "annotation": {"number": 64, "value": 0}, "group": "control_change"}, {"time": 1503, "annotation": {"number": 64, "value": 127}, "group": "control_change"}, {"time": 1523, "annotation": {"number": 64, "value": 0}, "group": "control_change"}, {"time": 1525, "annotation": {"number": 64, "value": 127}, "group": "control_change"}, {"time": 1572, "annotation": {"number": 64, "value": 0}, "group": "control_change"}, {"time": 1572, "annotation": {"number": 64, "value": 127}, "group": "control_change"}, {"time": 1596, "annotation": {"number": 64, "value": 0}, "group": "control_change"}, {"time": 1600, "annotation": {"number": 64, "value": 127}, "group": "control_change"}, {"time": 1619, "annotation": {"number": 64, "value": 0}, "group": "control_change"}, {"time": 1622, "annotation": {"number": 64, "value": 127}, "group": "control_change"}, {"time": 1643, "annotation": {"number": 64, "value": 0}, "group": "control_change"}, {"time": 1645, "annotation": {"number": 64, "value": 127}, "group": "control_change"}, {"time": 1668, "annotation": {"number": 64, "value": 0}, "group": "control_change"}, {"time": 1671, "annotation": {"number": 64, "value": 127}, "group": "control_change"}, {"time": 1693, "annotation": {"number": 64, "value": 0}, "group": "control_change"}, {"time": 1696, "annotation": {"number": 64, "value": 127}, "group": "control_change"}, {"time": 1732, "annotation": {"number": 64, "value": 0}, "group": "control_change"}, {"time": 1740, "annotation": {"number": 64, "value": 127}, "group": "control_change"}, {"time": 1740, "annotation": {"number": 64, "value": 0}, "group": "control_change"}, {"time": 1741, "annotation": {"number": 64, "value": 127}, "group": "control_change"}, {"time": 1775, "annotation": {"number": 64, "value": 0}, "group": "control_change"}, {"time": 1778, "annotation": {"number": 64, "value": 127}, "group": "control_change"}, {"time": 1788, "annotation": {"number": 64, "value": 0}, "group": "control_change"}, {"time": 1791, "annotation": {"number": 64, "value": 127}, "group": "control_change"}, {"time": 1833, "annotation": {"number": 64, "value": 0}, "group": "control_change"}, {"time": 1838, "annotation": {"number": 64, "value": 127}, "group": "control_change"}, {"time": 1884, "annotation": {"number": 64, "value": 0}, "group": "control_change"}, {"time": 1890, "annotation": {"number": 64, "value": 127}, "group": "control_change"}, {"time": 1932, "annotation": {"number": 64, "value": 0}, "group": "control_change"}, {"time": 1934, "annotation": {"number": 64, "value": 127}, "group": "control_change"}, {"time": 1934, "annotation": {"number": 64, "value": 0}, "group": "control_change"}, {"time": 1955, "annotation": {"number": 64, "value": 0}, "group": "control_change"}, {"time": 1958, "annotation": {"number": 64, "value": 127}, "group": "control_change"}, {"time": 1978, "annotation": {"number": 64, "value": 0}, "group": "control_change"}, {"time": 1981, "annotation": {"number": 64, "value": 127}, "group": "control_change"}, {"time": 2004, "annotation": {"number": 64, "value": 0}, "group": "control_change"}, {"time": 2005, "annotation": {"number": 64, "value": 127}, "group": "control_change"}, {"time": 2026, "annotation": {"number": 64, "value": 0}, "group": "control_change"}, {"time": 2028, "annotation": {"number": 64, "value": 0}, "group": "control_change"}, {"time": 2031, "annotation": {"number": 64, "value": 127}, "group": "control_change"}, {"time": 2075, "annotation": {"number": 64, "value": 0}, "group": "control_change"}, {"time": 2077, "annotation": {"number": 64, "value": 127}, "group": "control_change"}, {"time": 2122, "annotation": {"number": 64, "value": 0}, "group": "control_change"}, {"time": 2125, "annotation": {"number": 64, "value": 127}, "group": "control_change"}, {"time": 2171, "annotation": {"number": 64, "value": 0}, "group": "control_change"}, {"time": 2175, "annotation": {"number": 64, "value": 127}, "group": "control_change"}, {"time": 2209, "annotation": {"number": 64, "value": 0}, "group": "control_change"}, {"time": 2224, "annotation": {"number": 64, "value": 127}, "group": "control_change"}, {"time": 2224, "annotation": {"number": 64, "value": 0}, "group": "control_change"}, {"time": 2225, "annotation": {"number": 64, "value": 127}, "group": "control_change"}, {"time": 2267, "annotation": {"number": 64, "value": 0}, "group": "control_change"}, {"time": 2270, "annotation": {"number": 64, "value": 127}, "group": "control_change"}, {"time": 2316, "annotation": {"number": 64, "value": 0}, "group": "control_change"}, {"time": 2320, "annotation": {"number": 64, "value": 127}, "group": "control_change"}, {"time": 2364, "annotation": {"number": 64, "value": 0}, "group": "control_change"}, {"time": 2367, "annotation": {"number": 64, "value": 127}, "group": "control_change"}, {"time": 2413, "annotation": {"number": 64, "value": 0}, "group": "control_change"}, {"time": 2420, "annotation": {"number": 64, "value": 127}, "group": "control_change"}, {"time": 2436, "annotation": {"number": 64, "value": 0}, "group": "control_change"}, {"time": 2440, "annotation": {"number": 64, "value": 127}, "group": "control_change"}, {"time": 2459, "annotation": {"number": 64, "value": 0}, "group": "control_change"}, {"time": 2462, "annotation": {"number": 64, "value": 127}, "group": "control_change"}, {"time": 2483, "annotation": {"number": 64, "value": 0}, "group": "control_change"}, {"time": 2511, "annotation": {"number": 64, "value": 127}, "group": "control_change"}, {"time": 2511, "annotation": {"number": 64, "value": 0}, "group": "control_change"}, {"time": 2531, "annotation": {"number": 64, "value": 0}, "group": "control_change"}, {"time": 2534, "annotation": {"number": 64, "value": 127}, "group": "control_change"}, {"time": 2555, "annotation": {"number": 64, "value": 0}, "group": "control_change"}, {"time": 2558, "annotation": {"number": 64, "value": 127}, "group": "control_change"}, {"time": 2603, "annotation": {"number": 64, "value": 0}, "group": "control_change"}, {"time": 2608, "annotation": {"number": 64, "value": 127}, "group": "control_change"}, {"time": 2608, "annotation": {"number": 64, "value": 0}, "group": "control_change"}, {"time": 2609, "annotation": {"number": 64, "value": 127}, "group": "control_change"}, {"time": 2651, "annotation": {"number": 64, "value": 0}, "group": "control_change"}, {"time": 2654, "annotation": {"number": 64, "value": 127}, "group": "control_change"}, {"time": 2700, "annotation": {"number": 64, "value": 0}, "group": "control_change"}, {"time": 2704, "annotation": {"number": 64, "value": 127}, "group": "control_change"}, {"time": 2748, "annotation": {"number": 64, "value": 0}, "group": "control_change"}, {"time": 2751, "annotation": {"number": 64, "value": 127}, "group": "control_change"}, {"time": 2797, "annotation": {"number": 64, "value": 0}, "group": "control_change"}, {"time": 2804, "annotation": {"number": 64, "value": 127}, "group": "control_change"}, {"time": 2820, "annotation": {"number": 64, "value": 127}, "group": "control_change"}, {"time": 2820, "annotation": {"number": 64, "value": 0}, "group": "control_change"}, {"time": 2843, "annotation": {"number": 64, "value": 0}, "group": "control_change"}, {"time": 2847, "annotation": {"number": 64, "value": 127}, "group": "control_change"}, {"time": 2862, "annotation": {"number": 64, "value": 0}, "group": "control_change"}, {"time": 2870, "annotation": {"number": 64, "value": 127}, "group": "control_change"}, {"time": 2892, "annotation": {"number": 64, "value": 0}, "group": "control_change"}, {"time": 2893, "annotation": {"number": 64, "value": 127}, "group": "control_change"}, {"time": 2915, "annotation": {"number": 64, "value": 0}, "group": "control_change"}, {"time": 2919, "annotation": {"number": 64, "value": 127}, "group": "control_change"}, {"time": 2938, "annotation": {"number": 64, "value": 0}, "group": "control_change"}, {"time": 2942, "annotation": {"number": 64, "value": 127}, "group": "control_change"}, {"time": 2986, "annotation": {"number": 64, "value": 0}, "group": "control_change"}, {"time": 2989, "annotation": {"number": 64, "value": 0}, "group": "control_change"}, {"time": 2989, "annotation": {"number": 64, "value": 127}, "group": "control_change"}, {"time": 3011, "annotation": {"number": 64, "value": 0}, "group": "control_change"}, {"time": 3014, "annotation": {"number": 64, "value": 127}, "group": "control_change"}, {"time": 3036, "annotation": {"number": 64, "value": 0}, "group": "control_change"}, {"time": 3039, "annotation": {"number": 64, "value": 127}, "group": "control_change"}, {"time": 3059, "annotation": {"number": 64, "value": 0}, "group": "control_change"}, {"time": 3061, "annotation": {"number": 64, "value": 127}, "group": "control_change"}, {"time": 3084, "annotation": {"number": 64, "value": 0}, "group": "control_change"}, {"time": 3088, "annotation": {"number": 64, "value": 127}, "group": "control_change"}, {"time": 3130, "annotation": {"number": 64, "value": 0}, "group": "control_change"}, {"time": 3133, "annotation": {"number": 64, "value": 127}, "group": "control_change"}, {"time": 3155, "annotation": {"number": 64, "value": 0}, "group": "control_change"}, {"time": 3158, "annotation": {"number": 64, "value": 127}, "group": "control_change"}, {"time": 3178, "annotation": {"number": 64, "value": 0}, "group": "control_change"}, {"time": 3181, "annotation": {"number": 64, "value": 127}, "group": "control_change"}, {"time": 3202, "annotation": {"number": 64, "value": 0}, "group": "control_change"}, {"time": 3205, "annotation": {"number": 64, "value": 127}, "group": "control_change"}, {"time": 3227, "annotation": {"number": 64, "value": 0}, "group": "control_change"}, {"time": 3230, "annotation": {"number": 64, "value": 127}, "group": "control_change"}, {"time": 3251, "annotation": {"number": 64, "value": 0}, "group": "control_change"}, {"time": 3254, "annotation": {"number": 64, "value": 127}, "group": "control_change"}, {"time": 3274, "annotation": {"number": 64, "value": 0}, "group": "control_change"}, {"time": 3277, "annotation": {"number": 64, "value": 127}, "group": "control_change"}, {"time": 3300, "annotation": {"number": 64, "value": 0}, "group": "control_change"}, {"time": 3303, "annotation": {"number": 64, "value": 127}, "group": "control_change"}, {"time": 3323, "annotation": {"number": 64, "value": 0}, "group": "control_change"}, {"time": 3325, "annotation": {"number": 64, "value": 127}, "group": "control_change"}, {"time": 3372, "annotation": {"number": 64, "value": 0}, "group": "control_change"}, {"time": 3372, "annotation": {"number": 64, "value": 127}, "group": "control_change"}, {"time": 3396, "annotation": {"number": 64, "value": 0}, "group": "control_change"}, {"time": 3400, "annotation": {"number": 64, "value": 127}, "group": "control_change"}, {"time": 3419, "annotation": {"number": 64, "value": 0}, "group": "control_change"}, {"time": 3422, "annotation": {"number": 64, "value": 127}, "group": "control_change"}, {"time": 3443, "annotation": {"number": 64, "value": 0}, "group": "control_change"}, {"time": 3445, "annotation": {"number": 64, "value": 127}, "group": "control_change"}, {"time": 3468, "annotation": {"number": 64, "value": 0}, "group": "control_change"}, {"time": 3471, "annotation": {"number": 64, "value": 127}, "group": "control_change"}, {"time": 3493, "annotation": {"number": 64, "value": 0}, "group": "control_change"}, {"time": 3496, "annotation": {"number": 64, "value": 127}, "group": "control_change"}, {"time": 3532, "annotation": {"number": 64, "value": 0}, "group": "control_change"}, {"time": 3540, "annotation": {"number": 64, "value": 127}, "group": "control_change"}, {"time": 3540, "annotation": {"number": 64, "value": 0}, "group": "control_change"}, {"time": 3541, "annotation": {"number": 64, "value": 127}, "group": "control_change"}, {"time": 3575, "annotation": {"number": 64, "value": 0}, "group": "control_change"}, {"time": 3578, "annotation": {"number": 64, "value": 127}, "group": "control_change"}, {"time": 3588, "annotation": {"number": 64, "value": 0}, "group": "control_change"}, {"time": 3591, "annotation": {"number": 64, "value": 127}, "group": "control_change"}, {"time": 3633, "annotation": {"number": 64, "value": 0}, "group": "control_change"}, {"time": 3637, "annotation": {"number": 64, "value": 0}, "group": "control_change"}, {"time": 3637, "annotation": {"number": 64, "value": 127}, "group": "control_change"}, {"time": 3659, "annotation": {"number": 64, "value": 0}, "group": "control_change"}, {"time": 3662, "annotation": {"number": 64, "value": 127}, "group": "control_change"}, {"time": 3684, "annotation": {"number": 64, "value": 0}, "group": "control_change"}, {"time": 3687, "annotation": {"number": 64, "value": 127}, "group": "control_change"}, {"time": 3707, "annotation": {"number": 64, "value": 0}, "group": "control_change"}, {"time": 3709, "annotation": {"number": 64, "value": 127}, "group": "control_change"}, {"time": 3732, "annotation": {"number": 64, "value": 0}, "group": "control_change"}, {"time": 3736, "annotation": {"number": 64, "value": 127}, "group": "control_change"}, {"time": 3778, "annotation": {"number": 64, "value": 0}, "group": "control_change"}, {"time": 3781, "annotation": {"number": 64, "value": 127}, "group": "control_change"}, {"time": 3803, "annotation": {"number": 64, "value": 0}, "group": "control_change"}, {"time": 3806, "annotation": {"number": 64, "value": 127}, "group": "control_change"}, {"time": 3826, "annotation": {"number": 64, "value": 0}, "group": "control_change"}, {"time": 3829, "annotation": {"number": 64, "value": 127}, "group": "control_change"}, {"time": 3850, "annotation": {"number": 64, "value": 0}, "group": "control_change"}, {"time": 3853, "annotation": {"number": 64, "value": 127}, "group": "control_change"}, {"time": 3875, "annotation": {"number": 64, "value": 0}, "group": "control_change"}, {"time": 3878, "annotation": {"number": 64, "value": 127}, "group": "control_change"}, {"time": 3899, "annotation": {"number": 64, "value": 0}, "group": "control_change"}, {"time": 3902, "annotation": {"number": 64, "value": 127}, "group": "control_change"}, {"time": 3922, "annotation": {"number": 64, "value": 0}, "group": "control_change"}, {"time": 3925, "annotation": {"number": 64, "value": 127}, "group": "control_change"}, {"time": 3948, "annotation": {"number": 64, "value": 0}, "group": "control_change"}, {"time": 3951, "annotation": {"number": 64, "value": 127}, "group": "control_change"}, {"time": 3971, "annotation": {"number": 64, "value": 0}, "group": "control_change"}, {"time": 3973, "annotation": {"number": 64, "value": 127}, "group": "control_change"}, {"time": 4020, "annotation": {"number": 64, "value": 0}, "group": "control_change"}, {"time": 4020, "annotation": {"number": 64, "value": 127}, "group": "control_change"}, {"time": 4044, "annotation": {"number": 64, "value": 0}, "group": "control_change"}, {"time": 4048, "annotation": {"number": 64, "value": 127}, "group": "control_change"}, {"time": 4067, "annotation": {"number": 64, "value": 0}, "group": "control_change"}, {"time": 4070, "annotation": {"number": 64, "value": 127}, "group": "control_change"}, {"time": 4091, "annotation": {"number": 64, "value": 0}, "group": "control_change"}, {"time": 4093, "annotation": {"number": 64, "value": 127}, "group": "control_change"}, {"time": 4116, "annotation": {"number": 64, "value": 0}, "group": "control_change"}, {"time": 4119, "annotation": {"number": 64, "value": 127}, "group": "control_change"}, {"time": 4141, "annotation": {"number": 64, "value": 0}, "group": "control_change"}, {"time": 4144, "annotation": {"number": 64, "value": 127}, "group": "control_change"}, {"time": 4187, "annotation": {"number": 64, "value": 127}, "group": "control_change"}, {"time": 4264, "annotation": {"number": 64, "value": 0}, "group": "control_change"}, {"time": 4268, "annotation": {"number": 64, "value": 127}, "group": "control_change"}, {"time": 4314, "annotation": {"number": 64, "value": 0}, "group": "control_change"}, {"time": 4318, "annotation": {"number": 64, "value": 127}, "group": "control_change"}, {"time": 4364, "annotation": {"number": 64, "value": 0}, "group": "control_change"}, {"time": 4368, "annotation": {"number": 64, "value": 127}, "group": "control_change"}, {"time": 4457, "annotation": {"number": 64, "value": 0}, "group": "control_change"}]}]}