{"metadata": {"schema_version": "0.2", "title": "None", "source_filename": "716.mid", "source_format": "midi"}, "resolution": 12, "tempos": [{"time": 0, "qpm": 76.00006586672374}, {"time": 199, "qpm": 75.0}, {"time": 210, "qpm": 74.000074000074}, {"time": 272, "qpm": 75.0}], "time_signatures": [{"time": 0, "numerator": 1, "denominator": 4}], "tracks": [{"program": 0, "is_drum": false, "name": "MELODY", "notes": [{"time": 436, "pitch": 62, "duration": 6, "velocity": 85}, {"time": 442, "pitch": 60, "duration": 6, "velocity": 82}, {"time": 448, "pitch": 62, "duration": 6, "velocity": 82}, {"time": 454, "pitch": 63, "duration": 7, "velocity": 77}, {"time": 460, "pitch": 65, "duration": 7, "velocity": 82}, {"time": 466, "pitch": 63, "duration": 7, "velocity": 76}, {"time": 472, "pitch": 62, "duration": 6, "velocity": 82}, {"time": 478, "pitch": 60, "duration": 7, "velocity": 82}, {"time": 484, "pitch": 55, "duration": 43, "velocity": 81}, {"time": 532, "pitch": 62, "duration": 6, "velocity": 82}, {"time": 538, "pitch": 60, "duration": 7, "velocity": 82}, {"time": 544, "pitch": 62, "duration": 6, "velocity": 82}, {"time": 550, "pitch": 63, "duration": 7, "velocity": 75}, {"time": 556, "pitch": 65, "duration": 6, "velocity": 81}, {"time": 562, "pitch": 58, "duration": 6, "velocity": 82}, {"time": 568, "pitch": 70, "duration": 6, "velocity": 82}, {"time": 574, "pitch": 68, "duration": 12, "velocity": 83}, {"time": 586, "pitch": 67, "duration": 35, "velocity": 81}, {"time": 628, "pitch": 65, "duration": 5, "velocity": 81}, {"time": 634, "pitch": 67, "duration": 6, "velocity": 77}, {"time": 640, "pitch": 60, "duration": 8, "velocity": 82}, {"time": 646, "pitch": 68, "duration": 21, "velocity": 82}, {"time": 676, "pitch": 63, "duration": 5, "velocity": 82}, {"time": 682, "pitch": 65, "duration": 4, "velocity": 85}, {"time": 688, "pitch": 67, "duration": 4, "velocity": 82}, {"time": 694, "pitch": 55, "duration": 19, "velocity": 84}, {"time": 724, "pitch": 56, "duration": 5, "velocity": 83}, {"time": 730, "pitch": 58, "duration": 5, "velocity": 85}, {"time": 736, "pitch": 60, "duration": 4, "velocity": 84}, {"time": 742, "pitch": 67, "duration": 4, "velocity": 82}, {"time": 748, "pitch": 65, "duration": 13, "velocity": 87}, {"time": 766, "pitch": 62, "duration": 12, "velocity": 82}, {"time": 778, "pitch": 60, "duration": 38, "velocity": 81}, {"time": 820, "pitch": 62, "duration": 6, "velocity": 83}, {"time": 826, "pitch": 60, "duration": 6, "velocity": 84}, {"time": 832, "pitch": 62, "duration": 6, "velocity": 83}, {"time": 838, "pitch": 63, "duration": 6, "velocity": 85}, {"time": 844, "pitch": 65, "duration": 7, "velocity": 82}, {"time": 850, "pitch": 63, "duration": 6, "velocity": 82}, {"time": 856, "pitch": 62, "duration": 6, "velocity": 82}, {"time": 862, "pitch": 60, "duration": 7, "velocity": 83}, {"time": 868, "pitch": 55, "duration": 37, "velocity": 83}, {"time": 916, "pitch": 62, "duration": 6, "velocity": 82}, {"time": 922, "pitch": 60, "duration": 5, "velocity": 82}, {"time": 928, "pitch": 62, "duration": 6, "velocity": 82}, {"time": 934, "pitch": 63, "duration": 7, "velocity": 85}, {"time": 940, "pitch": 65, "duration": 6, "velocity": 82}, {"time": 946, "pitch": 58, "duration": 4, "velocity": 78}, {"time": 952, "pitch": 70, "duration": 5, "velocity": 82}, {"time": 958, "pitch": 68, "duration": 12, "velocity": 85}, {"time": 970, "pitch": 67, "duration": 37, "velocity": 79}, {"time": 1012, "pitch": 65, "duration": 4, "velocity": 83}, {"time": 1018, "pitch": 67, "duration": 5, "velocity": 82}, {"time": 1024, "pitch": 60, "duration": 5, "velocity": 83}, {"time": 1030, "pitch": 68, "duration": 27, "velocity": 84}, {"time": 1060, "pitch": 63, "duration": 5, "velocity": 82}, {"time": 1066, "pitch": 65, "duration": 5, "velocity": 81}, {"time": 1072, "pitch": 67, "duration": 5, "velocity": 83}, {"time": 1078, "pitch": 72, "duration": 20, "velocity": 86}, {"time": 1108, "pitch": 60, "duration": 5, "velocity": 84}, {"time": 1114, "pitch": 62, "duration": 4, "velocity": 85}, {"time": 1120, "pitch": 63, "duration": 4, "velocity": 83}, {"time": 1126, "pitch": 70, "duration": 6, "velocity": 82}, {"time": 1132, "pitch": 62, "duration": 14, "velocity": 83}, {"time": 1150, "pitch": 63, "duration": 11, "velocity": 87}, {"time": 1162, "pitch": 60, "duration": 39, "velocity": 82}, {"time": 1204, "pitch": 72, "duration": 9, "velocity": 88}, {"time": 1216, "pitch": 63, "duration": 11, "velocity": 83}, {"time": 1228, "pitch": 62, "duration": 9, "velocity": 83}, {"time": 1240, "pitch": 62, "duration": 4, "velocity": 86}, {"time": 1246, "pitch": 62, "duration": 3, "velocity": 86}, {"time": 1252, "pitch": 72, "duration": 4, "velocity": 87}, {"time": 1258, "pitch": 74, "duration": 9, "velocity": 88}, {"time": 1270, "pitch": 70, "duration": 12, "velocity": 90}, {"time": 1282, "pitch": 63, "duration": 18, "velocity": 81}, {"time": 1300, "pitch": 60, "duration": 4, "velocity": 82}, {"time": 1306, "pitch": 62, "duration": 3, "velocity": 82}, {"time": 1309, "pitch": 63, "duration": 7, "velocity": 85}, {"time": 1318, "pitch": 72, "duration": 9, "velocity": 87}, {"time": 1330, "pitch": 70, "duration": 9, "velocity": 86}, {"time": 1342, "pitch": 67, "duration": 2, "velocity": 81}, {"time": 1345, "pitch": 65, "duration": 2, "velocity": 81}, {"time": 1348, "pitch": 65, "duration": 4, "velocity": 83}, {"time": 1354, "pitch": 67, "duration": 10, "velocity": 83}, {"time": 1366, "pitch": 70, "duration": 9, "velocity": 87}, {"time": 1378, "pitch": 67, "duration": 14, "velocity": 81}, {"time": 1396, "pitch": 72, "duration": 8, "velocity": 81}, {"time": 1408, "pitch": 63, "duration": 10, "velocity": 83}, {"time": 1420, "pitch": 62, "duration": 11, "velocity": 82}, {"time": 1432, "pitch": 62, "duration": 4, "velocity": 83}, {"time": 1438, "pitch": 62, "duration": 4, "velocity": 83}, {"time": 1444, "pitch": 72, "duration": 4, "velocity": 86}, {"time": 1450, "pitch": 74, "duration": 8, "velocity": 90}, {"time": 1462, "pitch": 70, "duration": 8, "velocity": 79}, {"time": 1474, "pitch": 63, "duration": 13, "velocity": 82}, {"time": 1492, "pitch": 60, "duration": 4, "velocity": 83}, {"time": 1498, "pitch": 62, "duration": 4, "velocity": 85}, {"time": 1504, "pitch": 63, "duration": 4, "velocity": 82}, {"time": 1510, "pitch": 70, "duration": 5, "velocity": 85}, {"time": 1516, "pitch": 62, "duration": 14, "velocity": 85}, {"time": 1534, "pitch": 63, "duration": 12, "velocity": 87}, {"time": 1546, "pitch": 60, "duration": 39, "velocity": 84}, {"time": 1636, "pitch": 62, "duration": 6, "velocity": 83}, {"time": 1642, "pitch": 60, "duration": 6, "velocity": 84}, {"time": 1648, "pitch": 62, "duration": 6, "velocity": 83}, {"time": 1654, "pitch": 63, "duration": 6, "velocity": 85}, {"time": 1660, "pitch": 65, "duration": 7, "velocity": 82}, {"time": 1666, "pitch": 63, "duration": 6, "velocity": 82}, {"time": 1672, "pitch": 62, "duration": 6, "velocity": 82}, {"time": 1678, "pitch": 60, "duration": 7, "velocity": 83}, {"time": 1684, "pitch": 55, "duration": 37, "velocity": 83}, {"time": 1732, "pitch": 62, "duration": 6, "velocity": 82}, {"time": 1738, "pitch": 60, "duration": 5, "velocity": 82}, {"time": 1744, "pitch": 62, "duration": 6, "velocity": 82}, {"time": 1750, "pitch": 63, "duration": 7, "velocity": 85}, {"time": 1756, "pitch": 65, "duration": 6, "velocity": 82}, {"time": 1762, "pitch": 58, "duration": 4, "velocity": 78}, {"time": 1768, "pitch": 70, "duration": 5, "velocity": 82}, {"time": 1774, "pitch": 68, "duration": 12, "velocity": 85}, {"time": 1786, "pitch": 67, "duration": 37, "velocity": 79}, {"time": 1828, "pitch": 65, "duration": 4, "velocity": 83}, {"time": 1834, "pitch": 67, "duration": 5, "velocity": 82}, {"time": 1840, "pitch": 60, "duration": 5, "velocity": 83}, {"time": 1846, "pitch": 68, "duration": 27, "velocity": 84}, {"time": 1876, "pitch": 63, "duration": 5, "velocity": 82}, {"time": 1882, "pitch": 65, "duration": 5, "velocity": 81}, {"time": 1888, "pitch": 67, "duration": 5, "velocity": 83}, {"time": 1894, "pitch": 72, "duration": 20, "velocity": 86}, {"time": 1924, "pitch": 60, "duration": 5, "velocity": 84}, {"time": 1930, "pitch": 62, "duration": 4, "velocity": 85}, {"time": 1936, "pitch": 63, "duration": 4, "velocity": 83}, {"time": 1942, "pitch": 70, "duration": 6, "velocity": 82}, {"time": 1948, "pitch": 62, "duration": 14, "velocity": 83}, {"time": 1966, "pitch": 63, "duration": 11, "velocity": 87}, {"time": 1978, "pitch": 60, "duration": 39, "velocity": 82}, {"time": 2020, "pitch": 72, "duration": 9, "velocity": 88}, {"time": 2032, "pitch": 63, "duration": 11, "velocity": 83}, {"time": 2044, "pitch": 62, "duration": 9, "velocity": 83}, {"time": 2056, "pitch": 62, "duration": 4, "velocity": 86}, {"time": 2062, "pitch": 62, "duration": 3, "velocity": 86}, {"time": 2068, "pitch": 72, "duration": 4, "velocity": 87}, {"time": 2074, "pitch": 74, "duration": 9, "velocity": 88}, {"time": 2086, "pitch": 70, "duration": 12, "velocity": 90}, {"time": 2098, "pitch": 63, "duration": 18, "velocity": 81}, {"time": 2116, "pitch": 60, "duration": 4, "velocity": 82}, {"time": 2122, "pitch": 62, "duration": 3, "velocity": 82}, {"time": 2125, "pitch": 63, "duration": 7, "velocity": 85}, {"time": 2134, "pitch": 72, "duration": 9, "velocity": 87}, {"time": 2146, "pitch": 70, "duration": 9, "velocity": 86}, {"time": 2158, "pitch": 67, "duration": 2, "velocity": 81}, {"time": 2161, "pitch": 65, "duration": 2, "velocity": 81}, {"time": 2164, "pitch": 65, "duration": 4, "velocity": 83}, {"time": 2170, "pitch": 67, "duration": 10, "velocity": 83}, {"time": 2182, "pitch": 70, "duration": 9, "velocity": 87}, {"time": 2194, "pitch": 67, "duration": 14, "velocity": 81}, {"time": 2212, "pitch": 72, "duration": 8, "velocity": 81}, {"time": 2224, "pitch": 63, "duration": 10, "velocity": 83}, {"time": 2236, "pitch": 62, "duration": 11, "velocity": 82}, {"time": 2248, "pitch": 62, "duration": 4, "velocity": 83}, {"time": 2254, "pitch": 62, "duration": 4, "velocity": 83}, {"time": 2260, "pitch": 72, "duration": 4, "velocity": 86}, {"time": 2266, "pitch": 74, "duration": 8, "velocity": 90}, {"time": 2278, "pitch": 70, "duration": 8, "velocity": 79}, {"time": 2290, "pitch": 63, "duration": 13, "velocity": 82}, {"time": 2308, "pitch": 60, "duration": 4, "velocity": 83}, {"time": 2314, "pitch": 62, "duration": 4, "velocity": 85}, {"time": 2320, "pitch": 63, "duration": 4, "velocity": 82}, {"time": 2326, "pitch": 70, "duration": 5, "velocity": 85}, {"time": 2332, "pitch": 62, "duration": 14, "velocity": 85}, {"time": 2350, "pitch": 63, "duration": 12, "velocity": 87}, {"time": 2362, "pitch": 60, "duration": 39, "velocity": 84}, {"time": 2404, "pitch": 72, "duration": 9, "velocity": 88}, {"time": 2416, "pitch": 63, "duration": 11, "velocity": 83}, {"time": 2428, "pitch": 62, "duration": 9, "velocity": 83}, {"time": 2440, "pitch": 62, "duration": 4, "velocity": 86}, {"time": 2446, "pitch": 62, "duration": 3, "velocity": 86}, {"time": 2452, "pitch": 72, "duration": 4, "velocity": 87}, {"time": 2458, "pitch": 74, "duration": 9, "velocity": 88}, {"time": 2470, "pitch": 70, "duration": 12, "velocity": 90}, {"time": 2482, "pitch": 63, "duration": 18, "velocity": 81}, {"time": 2500, "pitch": 60, "duration": 4, "velocity": 82}, {"time": 2506, "pitch": 62, "duration": 3, "velocity": 82}, {"time": 2509, "pitch": 63, "duration": 7, "velocity": 85}, {"time": 2518, "pitch": 72, "duration": 9, "velocity": 87}, {"time": 2530, "pitch": 70, "duration": 9, "velocity": 86}, {"time": 2542, "pitch": 67, "duration": 2, "velocity": 81}, {"time": 2545, "pitch": 65, "duration": 2, "velocity": 81}, {"time": 2548, "pitch": 65, "duration": 4, "velocity": 83}, {"time": 2554, "pitch": 67, "duration": 10, "velocity": 83}, {"time": 2566, "pitch": 70, "duration": 9, "velocity": 87}, {"time": 2578, "pitch": 67, "duration": 14, "velocity": 81}, {"time": 2596, "pitch": 72, "duration": 8, "velocity": 81}, {"time": 2608, "pitch": 63, "duration": 10, "velocity": 83}, {"time": 2620, "pitch": 62, "duration": 11, "velocity": 82}, {"time": 2632, "pitch": 62, "duration": 4, "velocity": 83}, {"time": 2638, "pitch": 62, "duration": 4, "velocity": 83}, {"time": 2644, "pitch": 72, "duration": 4, "velocity": 86}, {"time": 2650, "pitch": 74, "duration": 8, "velocity": 90}, {"time": 2662, "pitch": 70, "duration": 8, "velocity": 79}, {"time": 2674, "pitch": 63, "duration": 13, "velocity": 82}, {"time": 2692, "pitch": 60, "duration": 4, "velocity": 83}, {"time": 2698, "pitch": 62, "duration": 4, "velocity": 85}, {"time": 2704, "pitch": 63, "duration": 4, "velocity": 82}, {"time": 2710, "pitch": 70, "duration": 5, "velocity": 85}, {"time": 2716, "pitch": 62, "duration": 14, "velocity": 85}, {"time": 2734, "pitch": 63, "duration": 12, "velocity": 87}, {"time": 2746, "pitch": 60, "duration": 39, "velocity": 84}, {"time": 2788, "pitch": 60, "duration": 4, "velocity": 83}, {"time": 2794, "pitch": 62, "duration": 4, "velocity": 85}, {"time": 2800, "pitch": 63, "duration": 4, "velocity": 82}, {"time": 2806, "pitch": 70, "duration": 5, "velocity": 85}, {"time": 2812, "pitch": 62, "duration": 14, "velocity": 85}, {"time": 2830, "pitch": 63, "duration": 12, "velocity": 87}, {"time": 2842, "pitch": 60, "duration": 39, "velocity": 84}, {"time": 2884, "pitch": 60, "duration": 4, "velocity": 83}, {"time": 2890, "pitch": 62, "duration": 4, "velocity": 85}, {"time": 2896, "pitch": 63, "duration": 4, "velocity": 82}, {"time": 2902, "pitch": 70, "duration": 12, "velocity": 85}, {"time": 2914, "pitch": 62, "duration": 27, "velocity": 85}, {"time": 2956, "pitch": 63, "duration": 16, "velocity": 87}, {"time": 2974, "pitch": 60, "duration": 37, "velocity": 82}]}, {"program": 0, "is_drum": false, "name": "BRIDGE", "notes": [{"time": 2, "pitch": 87, "duration": 4, "velocity": 83}, {"time": 6, "pitch": 86, "duration": 3, "velocity": 83}, {"time": 8, "pitch": 87, "duration": 4, "velocity": 83}, {"time": 12, "pitch": 79, "duration": 21, "velocity": 82}, {"time": 26, "pitch": 65, "duration": 4, "velocity": 84}, {"time": 29, "pitch": 67, "duration": 57, "velocity": 80}, {"time": 45, "pitch": 84, "duration": 3, "velocity": 82}, {"time": 48, "pitch": 86, "duration": 3, "velocity": 87}, {"time": 51, "pitch": 87, "duration": 3, "velocity": 83}, {"time": 54, "pitch": 86, "duration": 3, "velocity": 83}, {"time": 57, "pitch": 87, "duration": 3, "velocity": 83}, {"time": 60, "pitch": 79, "duration": 22, "velocity": 82}, {"time": 87, "pitch": 60, "duration": 14, "velocity": 97}, {"time": 99, "pitch": 87, "duration": 3, "velocity": 85}, {"time": 99, "pitch": 63, "duration": 3, "velocity": 83}, {"time": 101, "pitch": 65, "duration": 41, "velocity": 81}, {"time": 102, "pitch": 86, "duration": 3, "velocity": 81}, {"time": 105, "pitch": 87, "duration": 4, "velocity": 87}, {"time": 108, "pitch": 79, "duration": 13, "velocity": 81}, {"time": 141, "pitch": 63, "duration": 7, "velocity": 76}, {"time": 147, "pitch": 62, "duration": 36, "velocity": 82}, {"time": 183, "pitch": 60, "duration": 12, "velocity": 97}, {"time": 183, "pitch": 72, "duration": 9, "velocity": 85}, {"time": 186, "pitch": 74, "duration": 3, "velocity": 88}, {"time": 189, "pitch": 75, "duration": 2, "velocity": 90}, {"time": 192, "pitch": 79, "duration": 4, "velocity": 79}, {"time": 195, "pitch": 72, "duration": 25, "velocity": 86}, {"time": 196, "pitch": 84, "duration": 25, "velocity": 86}, {"time": 219, "pitch": 70, "duration": 20, "velocity": 92}, {"time": 220, "pitch": 82, "duration": 20, "velocity": 92}, {"time": 238, "pitch": 77, "duration": 6, "velocity": 83}, {"time": 238, "pitch": 65, "duration": 7, "velocity": 83}, {"time": 244, "pitch": 79, "duration": 34, "velocity": 83}, {"time": 244, "pitch": 67, "duration": 34, "velocity": 83}, {"time": 279, "pitch": 67, "duration": 13, "velocity": 83}, {"time": 280, "pitch": 79, "duration": 12, "velocity": 83}, {"time": 291, "pitch": 63, "duration": 25, "velocity": 86}, {"time": 292, "pitch": 75, "duration": 24, "velocity": 86}, {"time": 315, "pitch": 62, "duration": 24, "velocity": 85}, {"time": 316, "pitch": 74, "duration": 24, "velocity": 85}, {"time": 339, "pitch": 60, "duration": 92, "velocity": 84}, {"time": 340, "pitch": 72, "duration": 92, "velocity": 84}, {"time": 628, "pitch": 80, "duration": 25, "velocity": 82}, {"time": 664, "pitch": 79, "duration": 6, "velocity": 82}, {"time": 670, "pitch": 77, "duration": 6, "velocity": 85}, {"time": 676, "pitch": 79, "duration": 24, "velocity": 81}, {"time": 706, "pitch": 72, "duration": 5, "velocity": 87}, {"time": 712, "pitch": 74, "duration": 7, "velocity": 87}, {"time": 718, "pitch": 75, "duration": 6, "velocity": 85}, {"time": 724, "pitch": 79, "duration": 23, "velocity": 86}, {"time": 748, "pitch": 77, "duration": 10, "velocity": 83}, {"time": 760, "pitch": 74, "duration": 11, "velocity": 80}, {"time": 772, "pitch": 72, "duration": 38, "velocity": 77}, {"time": 874, "pitch": 77, "duration": 5, "velocity": 81}, {"time": 880, "pitch": 75, "duration": 5, "velocity": 87}, {"time": 886, "pitch": 74, "duration": 6, "velocity": 92}, {"time": 892, "pitch": 67, "duration": 23, "velocity": 86}, {"time": 964, "pitch": 70, "duration": 47, "velocity": 77}, {"time": 976, "pitch": 67, "duration": 34, "velocity": 66}, {"time": 982, "pitch": 75, "duration": 29, "velocity": 67}, {"time": 1012, "pitch": 72, "duration": 19, "velocity": 82}, {"time": 1030, "pitch": 67, "duration": 6, "velocity": 75}, {"time": 1036, "pitch": 65, "duration": 22, "velocity": 78}, {"time": 1060, "pitch": 65, "duration": 19, "velocity": 83}, {"time": 1078, "pitch": 67, "duration": 6, "velocity": 81}, {"time": 1084, "pitch": 72, "duration": 22, "velocity": 83}, {"time": 1108, "pitch": 63, "duration": 23, "velocity": 83}, {"time": 1132, "pitch": 62, "duration": 19, "velocity": 83}, {"time": 1150, "pitch": 63, "duration": 6, "velocity": 81}, {"time": 1156, "pitch": 60, "duration": 45, "velocity": 81}, {"time": 1216, "pitch": 72, "duration": 10, "velocity": 73}, {"time": 1216, "pitch": 75, "duration": 9, "velocity": 81}, {"time": 1228, "pitch": 70, "duration": 25, "velocity": 72}, {"time": 1228, "pitch": 74, "duration": 26, "velocity": 80}, {"time": 1264, "pitch": 70, "duration": 10, "velocity": 75}, {"time": 1264, "pitch": 74, "duration": 11, "velocity": 81}, {"time": 1276, "pitch": 67, "duration": 22, "velocity": 69}, {"time": 1276, "pitch": 72, "duration": 22, "velocity": 74}, {"time": 1300, "pitch": 72, "duration": 24, "velocity": 84}, {"time": 1324, "pitch": 74, "duration": 7, "velocity": 87}, {"time": 1330, "pitch": 72, "duration": 6, "velocity": 84}, {"time": 1336, "pitch": 70, "duration": 7, "velocity": 80}, {"time": 1342, "pitch": 65, "duration": 6, "velocity": 81}, {"time": 1348, "pitch": 67, "duration": 24, "velocity": 75}, {"time": 1378, "pitch": 55, "duration": 6, "velocity": 82}, {"time": 1384, "pitch": 58, "duration": 6, "velocity": 75}, {"time": 1390, "pitch": 60, "duration": 6, "velocity": 83}, {"time": 1396, "pitch": 63, "duration": 21, "velocity": 82}, {"time": 1420, "pitch": 62, "duration": 18, "velocity": 75}, {"time": 1420, "pitch": 65, "duration": 18, "velocity": 76}, {"time": 1438, "pitch": 70, "duration": 7, "velocity": 75}, {"time": 1444, "pitch": 74, "duration": 12, "velocity": 92}, {"time": 1456, "pitch": 77, "duration": 10, "velocity": 83}, {"time": 1468, "pitch": 72, "duration": 8, "velocity": 76}, {"time": 1468, "pitch": 75, "duration": 6, "velocity": 75}, {"time": 1474, "pitch": 74, "duration": 7, "velocity": 81}, {"time": 1480, "pitch": 75, "duration": 7, "velocity": 85}, {"time": 1486, "pitch": 77, "duration": 7, "velocity": 80}, {"time": 1492, "pitch": 72, "duration": 21, "velocity": 77}, {"time": 1492, "pitch": 75, "duration": 21, "velocity": 81}, {"time": 1516, "pitch": 74, "duration": 10, "velocity": 81}, {"time": 1516, "pitch": 77, "duration": 11, "velocity": 75}, {"time": 1528, "pitch": 74, "duration": 10, "velocity": 83}, {"time": 1540, "pitch": 67, "duration": 47, "velocity": 71}, {"time": 1540, "pitch": 72, "duration": 47, "velocity": 76}, {"time": 1588, "pitch": 67, "duration": 13, "velocity": 71}, {"time": 1594, "pitch": 72, "duration": 6, "velocity": 82}, {"time": 1600, "pitch": 74, "duration": 7, "velocity": 85}, {"time": 1606, "pitch": 75, "duration": 29, "velocity": 73}, {"time": 1618, "pitch": 74, "duration": 17, "velocity": 56}, {"time": 1624, "pitch": 72, "duration": 12, "velocity": 75}, {"time": 1630, "pitch": 67, "duration": 6, "velocity": 65}, {"time": 1690, "pitch": 77, "duration": 5, "velocity": 81}, {"time": 1696, "pitch": 75, "duration": 5, "velocity": 87}, {"time": 1702, "pitch": 74, "duration": 6, "velocity": 92}, {"time": 1708, "pitch": 67, "duration": 23, "velocity": 86}, {"time": 1780, "pitch": 70, "duration": 47, "velocity": 77}, {"time": 1792, "pitch": 67, "duration": 34, "velocity": 66}, {"time": 1798, "pitch": 75, "duration": 29, "velocity": 67}, {"time": 1810, "pitch": 56, "duration": 6, "velocity": 70}, {"time": 1816, "pitch": 55, "duration": 12, "velocity": 73}, {"time": 1828, "pitch": 53, "duration": 43, "velocity": 74}, {"time": 1828, "pitch": 72, "duration": 19, "velocity": 82}, {"time": 1846, "pitch": 67, "duration": 6, "velocity": 75}, {"time": 1852, "pitch": 65, "duration": 22, "velocity": 78}, {"time": 1870, "pitch": 51, "duration": 6, "velocity": 79}, {"time": 1876, "pitch": 55, "duration": 37, "velocity": 77}, {"time": 1876, "pitch": 65, "duration": 19, "velocity": 83}, {"time": 1894, "pitch": 67, "duration": 6, "velocity": 81}, {"time": 1900, "pitch": 72, "duration": 22, "velocity": 83}, {"time": 1912, "pitch": 48, "duration": 6, "velocity": 75}, {"time": 1918, "pitch": 50, "duration": 6, "velocity": 75}, {"time": 1924, "pitch": 51, "duration": 24, "velocity": 73}, {"time": 1924, "pitch": 63, "duration": 23, "velocity": 83}, {"time": 1948, "pitch": 50, "duration": 27, "velocity": 82}, {"time": 1948, "pitch": 62, "duration": 19, "velocity": 83}, {"time": 1966, "pitch": 63, "duration": 6, "velocity": 81}, {"time": 1972, "pitch": 48, "duration": 43, "velocity": 81}, {"time": 1972, "pitch": 60, "duration": 45, "velocity": 81}, {"time": 1984, "pitch": 79, "duration": 6, "velocity": 83}, {"time": 1990, "pitch": 77, "duration": 5, "velocity": 82}, {"time": 1996, "pitch": 77, "duration": 6, "velocity": 83}, {"time": 2002, "pitch": 75, "duration": 6, "velocity": 83}, {"time": 2008, "pitch": 74, "duration": 7, "velocity": 85}, {"time": 2014, "pitch": 75, "duration": 6, "velocity": 85}, {"time": 2032, "pitch": 72, "duration": 10, "velocity": 73}, {"time": 2032, "pitch": 75, "duration": 9, "velocity": 81}, {"time": 2044, "pitch": 70, "duration": 25, "velocity": 72}, {"time": 2044, "pitch": 74, "duration": 26, "velocity": 80}, {"time": 2080, "pitch": 70, "duration": 10, "velocity": 75}, {"time": 2080, "pitch": 74, "duration": 11, "velocity": 81}, {"time": 2092, "pitch": 67, "duration": 22, "velocity": 69}, {"time": 2092, "pitch": 72, "duration": 22, "velocity": 74}, {"time": 2116, "pitch": 72, "duration": 24, "velocity": 84}, {"time": 2140, "pitch": 74, "duration": 7, "velocity": 87}, {"time": 2146, "pitch": 72, "duration": 6, "velocity": 84}, {"time": 2152, "pitch": 70, "duration": 7, "velocity": 80}, {"time": 2158, "pitch": 65, "duration": 6, "velocity": 81}, {"time": 2164, "pitch": 67, "duration": 24, "velocity": 75}, {"time": 2194, "pitch": 55, "duration": 6, "velocity": 82}, {"time": 2200, "pitch": 58, "duration": 6, "velocity": 75}, {"time": 2206, "pitch": 60, "duration": 6, "velocity": 83}, {"time": 2212, "pitch": 63, "duration": 21, "velocity": 82}, {"time": 2236, "pitch": 62, "duration": 18, "velocity": 75}, {"time": 2236, "pitch": 65, "duration": 18, "velocity": 76}, {"time": 2254, "pitch": 70, "duration": 7, "velocity": 75}, {"time": 2260, "pitch": 74, "duration": 12, "velocity": 92}, {"time": 2272, "pitch": 77, "duration": 10, "velocity": 83}, {"time": 2284, "pitch": 72, "duration": 8, "velocity": 76}, {"time": 2284, "pitch": 75, "duration": 6, "velocity": 75}, {"time": 2290, "pitch": 74, "duration": 7, "velocity": 81}, {"time": 2296, "pitch": 75, "duration": 7, "velocity": 85}, {"time": 2302, "pitch": 77, "duration": 7, "velocity": 80}, {"time": 2308, "pitch": 72, "duration": 21, "velocity": 77}, {"time": 2308, "pitch": 75, "duration": 21, "velocity": 81}, {"time": 2332, "pitch": 74, "duration": 10, "velocity": 81}, {"time": 2332, "pitch": 77, "duration": 11, "velocity": 75}, {"time": 2344, "pitch": 74, "duration": 10, "velocity": 83}, {"time": 2356, "pitch": 67, "duration": 47, "velocity": 71}, {"time": 2356, "pitch": 72, "duration": 47, "velocity": 76}, {"time": 2404, "pitch": 84, "duration": 25, "velocity": 85}, {"time": 2428, "pitch": 86, "duration": 18, "velocity": 84}, {"time": 2446, "pitch": 84, "duration": 7, "velocity": 86}, {"time": 2452, "pitch": 82, "duration": 29, "velocity": 79}, {"time": 2488, "pitch": 87, "duration": 7, "velocity": 85}, {"time": 2494, "pitch": 86, "duration": 6, "velocity": 84}, {"time": 2500, "pitch": 84, "duration": 20, "velocity": 83}, {"time": 2524, "pitch": 82, "duration": 12, "velocity": 73}, {"time": 2524, "pitch": 86, "duration": 12, "velocity": 82}, {"time": 2536, "pitch": 84, "duration": 12, "velocity": 86}, {"time": 2548, "pitch": 79, "duration": 23, "velocity": 73}, {"time": 2548, "pitch": 82, "duration": 22, "velocity": 81}, {"time": 2578, "pitch": 79, "duration": 5, "velocity": 85}, {"time": 2584, "pitch": 87, "duration": 6, "velocity": 83}, {"time": 2590, "pitch": 86, "duration": 6, "velocity": 85}, {"time": 2596, "pitch": 84, "duration": 22, "velocity": 88}, {"time": 2620, "pitch": 82, "duration": 11, "velocity": 77}, {"time": 2620, "pitch": 86, "duration": 11, "velocity": 81}, {"time": 2632, "pitch": 86, "duration": 5, "velocity": 82}, {"time": 2638, "pitch": 84, "duration": 6, "velocity": 83}, {"time": 2644, "pitch": 82, "duration": 13, "velocity": 78}, {"time": 2656, "pitch": 79, "duration": 12, "velocity": 82}, {"time": 2668, "pitch": 87, "duration": 5, "velocity": 86}, {"time": 2674, "pitch": 86, "duration": 6, "velocity": 83}, {"time": 2680, "pitch": 84, "duration": 10, "velocity": 90}, {"time": 2692, "pitch": 84, "duration": 18, "velocity": 85}, {"time": 2716, "pitch": 86, "duration": 6, "velocity": 82}, {"time": 2722, "pitch": 84, "duration": 7, "velocity": 82}, {"time": 2728, "pitch": 82, "duration": 6, "velocity": 81}, {"time": 2734, "pitch": 79, "duration": 6, "velocity": 76}, {"time": 2740, "pitch": 84, "duration": 45, "velocity": 83}, {"time": 2788, "pitch": 84, "duration": 19, "velocity": 83}, {"time": 2806, "pitch": 87, "duration": 6, "velocity": 81}, {"time": 2812, "pitch": 86, "duration": 6, "velocity": 82}, {"time": 2818, "pitch": 84, "duration": 6, "velocity": 85}, {"time": 2824, "pitch": 82, "duration": 11, "velocity": 75}, {"time": 2836, "pitch": 84, "duration": 41, "velocity": 82}, {"time": 2884, "pitch": 72, "duration": 14, "velocity": 77}, {"time": 2884, "pitch": 75, "duration": 13, "velocity": 82}, {"time": 2896, "pitch": 79, "duration": 14, "velocity": 81}, {"time": 2908, "pitch": 77, "duration": 42, "velocity": 74}, {"time": 2992, "pitch": 63, "duration": 6, "velocity": 92}, {"time": 2998, "pitch": 65, "duration": 5, "velocity": 90}, {"time": 3004, "pitch": 67, "duration": 25, "velocity": 79}, {"time": 3028, "pitch": 70, "duration": 18, "velocity": 87}, {"time": 3046, "pitch": 63, "duration": 3, "velocity": 86}, {"time": 3049, "pitch": 65, "duration": 3, "velocity": 83}, {"time": 3052, "pitch": 67, "duration": 48, "velocity": 83}, {"time": 3100, "pitch": 63, "duration": 24, "velocity": 88}, {"time": 3124, "pitch": 62, "duration": 17, "velocity": 87}, {"time": 3142, "pitch": 62, "duration": 6, "velocity": 81}, {"time": 3148, "pitch": 60, "duration": 84, "velocity": 85}]}, {"program": 0, "is_drum": false, "name": "PIANO", "notes": [{"time": 2, "pitch": 48, "duration": 35, "velocity": 56}, {"time": 8, "pitch": 55, "duration": 8, "velocity": 61}, {"time": 14, "pitch": 60, "duration": 4, "velocity": 69}, {"time": 20, "pitch": 62, "duration": 5, "velocity": 69}, {"time": 25, "pitch": 55, "duration": 15, "velocity": 69}, {"time": 26, "pitch": 60, "duration": 15, "velocity": 69}, {"time": 26, "pitch": 48, "duration": 11, "velocity": 69}, {"time": 27, "pitch": 63, "duration": 15, "velocity": 69}, {"time": 50, "pitch": 56, "duration": 10, "velocity": 63}, {"time": 51, "pitch": 60, "duration": 12, "velocity": 75}, {"time": 51, "pitch": 44, "duration": 33, "velocity": 82}, {"time": 52, "pitch": 63, "duration": 10, "velocity": 69}, {"time": 58, "pitch": 51, "duration": 25, "velocity": 68}, {"time": 64, "pitch": 56, "duration": 14, "velocity": 75}, {"time": 70, "pitch": 63, "duration": 13, "velocity": 68}, {"time": 76, "pitch": 68, "duration": 7, "velocity": 70}, {"time": 97, "pitch": 53, "duration": 5, "velocity": 46}, {"time": 98, "pitch": 58, "duration": 21, "velocity": 58}, {"time": 99, "pitch": 46, "duration": 40, "velocity": 72}, {"time": 105, "pitch": 53, "duration": 7, "velocity": 69}, {"time": 110, "pitch": 62, "duration": 15, "velocity": 73}, {"time": 116, "pitch": 53, "duration": 13, "velocity": 56}, {"time": 123, "pitch": 58, "duration": 7, "velocity": 65}, {"time": 146, "pitch": 55, "duration": 3, "velocity": 66}, {"time": 147, "pitch": 58, "duration": 2, "velocity": 60}, {"time": 147, "pitch": 43, "duration": 44, "velocity": 75}, {"time": 148, "pitch": 62, "duration": 11, "velocity": 73}, {"time": 153, "pitch": 50, "duration": 37, "velocity": 78}, {"time": 160, "pitch": 55, "duration": 30, "velocity": 90}, {"time": 165, "pitch": 62, "duration": 26, "velocity": 73}, {"time": 171, "pitch": 67, "duration": 16, "velocity": 72}, {"time": 193, "pitch": 56, "duration": 9, "velocity": 66}, {"time": 195, "pitch": 60, "duration": 12, "velocity": 77}, {"time": 195, "pitch": 63, "duration": 12, "velocity": 73}, {"time": 196, "pitch": 44, "duration": 12, "velocity": 83}, {"time": 196, "pitch": 68, "duration": 10, "velocity": 73}, {"time": 201, "pitch": 51, "duration": 7, "velocity": 70}, {"time": 207, "pitch": 56, "duration": 1, "velocity": 85}, {"time": 217, "pitch": 53, "duration": 3, "velocity": 67}, {"time": 218, "pitch": 58, "duration": 8, "velocity": 69}, {"time": 219, "pitch": 62, "duration": 12, "velocity": 81}, {"time": 219, "pitch": 46, "duration": 15, "velocity": 77}, {"time": 225, "pitch": 53, "duration": 12, "velocity": 74}, {"time": 231, "pitch": 58, "duration": 6, "velocity": 84}, {"time": 242, "pitch": 55, "duration": 4, "velocity": 64}, {"time": 244, "pitch": 36, "duration": 36, "velocity": 79}, {"time": 244, "pitch": 63, "duration": 18, "velocity": 71}, {"time": 250, "pitch": 43, "duration": 30, "velocity": 64}, {"time": 256, "pitch": 55, "duration": 9, "velocity": 76}, {"time": 261, "pitch": 60, "duration": 5, "velocity": 71}, {"time": 267, "pitch": 63, "duration": 13, "velocity": 75}, {"time": 288, "pitch": 56, "duration": 4, "velocity": 63}, {"time": 290, "pitch": 60, "duration": 9, "velocity": 72}, {"time": 290, "pitch": 63, "duration": 14, "velocity": 75}, {"time": 291, "pitch": 44, "duration": 9, "velocity": 77}, {"time": 291, "pitch": 68, "duration": 11, "velocity": 74}, {"time": 296, "pitch": 51, "duration": 5, "velocity": 73}, {"time": 303, "pitch": 56, "duration": 5, "velocity": 95}, {"time": 308, "pitch": 68, "duration": 2, "velocity": 76}, {"time": 313, "pitch": 53, "duration": 4, "velocity": 73}, {"time": 315, "pitch": 58, "duration": 6, "velocity": 74}, {"time": 315, "pitch": 46, "duration": 12, "velocity": 73}, {"time": 316, "pitch": 62, "duration": 12, "velocity": 76}, {"time": 321, "pitch": 53, "duration": 7, "velocity": 74}, {"time": 327, "pitch": 58, "duration": 2, "velocity": 81}, {"time": 337, "pitch": 55, "duration": 4, "velocity": 64}, {"time": 339, "pitch": 60, "duration": 13, "velocity": 75}, {"time": 339, "pitch": 36, "duration": 2, "velocity": 77}, {"time": 345, "pitch": 48, "duration": 35, "velocity": 78}, {"time": 351, "pitch": 55, "duration": 29, "velocity": 80}, {"time": 357, "pitch": 67, "duration": 7, "velocity": 70}, {"time": 363, "pitch": 72, "duration": 22, "velocity": 82}, {"time": 369, "pitch": 60, "duration": 17, "velocity": 72}, {"time": 375, "pitch": 67, "duration": 10, "velocity": 43}, {"time": 387, "pitch": 36, "duration": 41, "velocity": 77}, {"time": 392, "pitch": 43, "duration": 32, "velocity": 56}, {"time": 398, "pitch": 55, "duration": 4, "velocity": 68}, {"time": 404, "pitch": 60, "duration": 2, "velocity": 73}, {"time": 411, "pitch": 60, "duration": 8, "velocity": 68}, {"time": 411, "pitch": 67, "duration": 6, "velocity": 55}, {"time": 436, "pitch": 36, "duration": 39, "velocity": 77}, {"time": 436, "pitch": 60, "duration": 14, "velocity": 77}, {"time": 442, "pitch": 43, "duration": 32, "velocity": 73}, {"time": 448, "pitch": 55, "duration": 14, "velocity": 81}, {"time": 454, "pitch": 60, "duration": 19, "velocity": 82}, {"time": 472, "pitch": 67, "duration": 5, "velocity": 77}, {"time": 484, "pitch": 43, "duration": 41, "velocity": 81}, {"time": 484, "pitch": 58, "duration": 13, "velocity": 73}, {"time": 484, "pitch": 62, "duration": 13, "velocity": 75}, {"time": 490, "pitch": 50, "duration": 35, "velocity": 77}, {"time": 496, "pitch": 55, "duration": 7, "velocity": 83}, {"time": 502, "pitch": 62, "duration": 10, "velocity": 81}, {"time": 508, "pitch": 67, "duration": 7, "velocity": 77}, {"time": 532, "pitch": 44, "duration": 15, "velocity": 85}, {"time": 532, "pitch": 60, "duration": 12, "velocity": 76}, {"time": 538, "pitch": 51, "duration": 10, "velocity": 76}, {"time": 544, "pitch": 56, "duration": 6, "velocity": 82}, {"time": 550, "pitch": 60, "duration": 1, "velocity": 74}, {"time": 556, "pitch": 46, "duration": 13, "velocity": 82}, {"time": 556, "pitch": 58, "duration": 8, "velocity": 82}, {"time": 562, "pitch": 53, "duration": 7, "velocity": 77}, {"time": 568, "pitch": 58, "duration": 1, "velocity": 74}, {"time": 568, "pitch": 62, "duration": 2, "velocity": 79}, {"time": 580, "pitch": 39, "duration": 36, "velocity": 69}, {"time": 580, "pitch": 63, "duration": 7, "velocity": 76}, {"time": 586, "pitch": 46, "duration": 30, "velocity": 75}, {"time": 592, "pitch": 55, "duration": 13, "velocity": 81}, {"time": 598, "pitch": 58, "duration": 7, "velocity": 83}, {"time": 604, "pitch": 67, "duration": 6, "velocity": 77}, {"time": 628, "pitch": 41, "duration": 35, "velocity": 81}, {"time": 628, "pitch": 53, "duration": 14, "velocity": 72}, {"time": 628, "pitch": 60, "duration": 19, "velocity": 76}, {"time": 634, "pitch": 48, "duration": 29, "velocity": 77}, {"time": 640, "pitch": 56, "duration": 7, "velocity": 81}, {"time": 646, "pitch": 53, "duration": 12, "velocity": 76}, {"time": 652, "pitch": 56, "duration": 6, "velocity": 70}, {"time": 652, "pitch": 60, "duration": 8, "velocity": 77}, {"time": 652, "pitch": 65, "duration": 8, "velocity": 78}, {"time": 676, "pitch": 48, "duration": 40, "velocity": 81}, {"time": 676, "pitch": 67, "duration": 6, "velocity": 82}, {"time": 682, "pitch": 55, "duration": 7, "velocity": 86}, {"time": 688, "pitch": 63, "duration": 5, "velocity": 86}, {"time": 694, "pitch": 55, "duration": 5, "velocity": 75}, {"time": 700, "pitch": 62, "duration": 7, "velocity": 77}, {"time": 712, "pitch": 60, "duration": 3, "velocity": 83}, {"time": 724, "pitch": 44, "duration": 11, "velocity": 76}, {"time": 724, "pitch": 56, "duration": 9, "velocity": 69}, {"time": 724, "pitch": 60, "duration": 11, "velocity": 75}, {"time": 730, "pitch": 51, "duration": 5, "velocity": 76}, {"time": 748, "pitch": 46, "duration": 13, "velocity": 77}, {"time": 748, "pitch": 53, "duration": 3, "velocity": 73}, {"time": 748, "pitch": 58, "duration": 13, "velocity": 69}, {"time": 754, "pitch": 53, "duration": 6, "velocity": 74}, {"time": 760, "pitch": 62, "duration": 3, "velocity": 81}, {"time": 772, "pitch": 36, "duration": 41, "velocity": 76}, {"time": 772, "pitch": 63, "duration": 13, "velocity": 72}, {"time": 778, "pitch": 43, "duration": 35, "velocity": 68}, {"time": 784, "pitch": 55, "duration": 7, "velocity": 85}, {"time": 790, "pitch": 60, "duration": 3, "velocity": 73}, {"time": 796, "pitch": 62, "duration": 7, "velocity": 69}, {"time": 808, "pitch": 55, "duration": 3, "velocity": 76}, {"time": 808, "pitch": 60, "duration": 6, "velocity": 80}, {"time": 820, "pitch": 36, "duration": 39, "velocity": 77}, {"time": 820, "pitch": 60, "duration": 14, "velocity": 77}, {"time": 826, "pitch": 43, "duration": 32, "velocity": 73}, {"time": 832, "pitch": 55, "duration": 14, "velocity": 81}, {"time": 838, "pitch": 60, "duration": 19, "velocity": 82}, {"time": 856, "pitch": 67, "duration": 5, "velocity": 77}, {"time": 868, "pitch": 43, "duration": 41, "velocity": 81}, {"time": 868, "pitch": 58, "duration": 13, "velocity": 73}, {"time": 868, "pitch": 62, "duration": 13, "velocity": 75}, {"time": 874, "pitch": 50, "duration": 35, "velocity": 77}, {"time": 880, "pitch": 55, "duration": 7, "velocity": 83}, {"time": 886, "pitch": 62, "duration": 10, "velocity": 81}, {"time": 892, "pitch": 67, "duration": 7, "velocity": 77}, {"time": 916, "pitch": 44, "duration": 15, "velocity": 85}, {"time": 916, "pitch": 60, "duration": 12, "velocity": 76}, {"time": 922, "pitch": 51, "duration": 10, "velocity": 76}, {"time": 928, "pitch": 56, "duration": 6, "velocity": 82}, {"time": 934, "pitch": 60, "duration": 1, "velocity": 74}, {"time": 940, "pitch": 46, "duration": 13, "velocity": 82}, {"time": 940, "pitch": 58, "duration": 8, "velocity": 82}, {"time": 946, "pitch": 53, "duration": 7, "velocity": 77}, {"time": 952, "pitch": 58, "duration": 1, "velocity": 74}, {"time": 952, "pitch": 62, "duration": 2, "velocity": 79}, {"time": 964, "pitch": 39, "duration": 36, "velocity": 69}, {"time": 964, "pitch": 63, "duration": 7, "velocity": 76}, {"time": 970, "pitch": 46, "duration": 30, "velocity": 75}, {"time": 976, "pitch": 55, "duration": 13, "velocity": 81}, {"time": 982, "pitch": 58, "duration": 7, "velocity": 83}, {"time": 988, "pitch": 67, "duration": 6, "velocity": 77}, {"time": 1012, "pitch": 41, "duration": 35, "velocity": 81}, {"time": 1012, "pitch": 53, "duration": 14, "velocity": 72}, {"time": 1012, "pitch": 60, "duration": 19, "velocity": 76}, {"time": 1018, "pitch": 48, "duration": 29, "velocity": 77}, {"time": 1024, "pitch": 56, "duration": 7, "velocity": 81}, {"time": 1030, "pitch": 53, "duration": 12, "velocity": 76}, {"time": 1036, "pitch": 56, "duration": 6, "velocity": 70}, {"time": 1036, "pitch": 60, "duration": 8, "velocity": 77}, {"time": 1036, "pitch": 65, "duration": 8, "velocity": 78}, {"time": 1060, "pitch": 48, "duration": 40, "velocity": 81}, {"time": 1060, "pitch": 67, "duration": 6, "velocity": 82}, {"time": 1066, "pitch": 55, "duration": 7, "velocity": 86}, {"time": 1072, "pitch": 63, "duration": 5, "velocity": 86}, {"time": 1078, "pitch": 55, "duration": 5, "velocity": 75}, {"time": 1084, "pitch": 62, "duration": 7, "velocity": 77}, {"time": 1096, "pitch": 60, "duration": 3, "velocity": 83}, {"time": 1108, "pitch": 44, "duration": 11, "velocity": 76}, {"time": 1108, "pitch": 56, "duration": 9, "velocity": 69}, {"time": 1108, "pitch": 60, "duration": 11, "velocity": 75}, {"time": 1114, "pitch": 51, "duration": 5, "velocity": 76}, {"time": 1132, "pitch": 46, "duration": 13, "velocity": 77}, {"time": 1132, "pitch": 53, "duration": 3, "velocity": 73}, {"time": 1132, "pitch": 58, "duration": 13, "velocity": 69}, {"time": 1138, "pitch": 53, "duration": 6, "velocity": 74}, {"time": 1144, "pitch": 62, "duration": 3, "velocity": 81}, {"time": 1156, "pitch": 36, "duration": 41, "velocity": 76}, {"time": 1156, "pitch": 63, "duration": 13, "velocity": 72}, {"time": 1162, "pitch": 43, "duration": 35, "velocity": 68}, {"time": 1168, "pitch": 55, "duration": 7, "velocity": 85}, {"time": 1174, "pitch": 60, "duration": 3, "velocity": 73}, {"time": 1180, "pitch": 62, "duration": 7, "velocity": 69}, {"time": 1192, "pitch": 55, "duration": 3, "velocity": 76}, {"time": 1192, "pitch": 60, "duration": 6, "velocity": 80}, {"time": 1204, "pitch": 44, "duration": 12, "velocity": 83}, {"time": 1204, "pitch": 56, "duration": 12, "velocity": 74}, {"time": 1204, "pitch": 63, "duration": 8, "velocity": 77}, {"time": 1210, "pitch": 51, "duration": 7, "velocity": 66}, {"time": 1216, "pitch": 60, "duration": 4, "velocity": 79}, {"time": 1228, "pitch": 46, "duration": 17, "velocity": 81}, {"time": 1228, "pitch": 58, "duration": 7, "velocity": 70}, {"time": 1228, "pitch": 62, "duration": 6, "velocity": 81}, {"time": 1234, "pitch": 53, "duration": 11, "velocity": 83}, {"time": 1240, "pitch": 58, "duration": 7, "velocity": 82}, {"time": 1243, "pitch": 62, "duration": 4, "velocity": 77}, {"time": 1246, "pitch": 65, "duration": 3, "velocity": 80}, {"time": 1252, "pitch": 43, "duration": 18, "velocity": 82}, {"time": 1252, "pitch": 55, "duration": 9, "velocity": 72}, {"time": 1252, "pitch": 58, "duration": 7, "velocity": 71}, {"time": 1252, "pitch": 62, "duration": 7, "velocity": 69}, {"time": 1258, "pitch": 50, "duration": 11, "velocity": 76}, {"time": 1264, "pitch": 58, "duration": 3, "velocity": 85}, {"time": 1276, "pitch": 48, "duration": 17, "velocity": 80}, {"time": 1276, "pitch": 63, "duration": 8, "velocity": 84}, {"time": 1282, "pitch": 55, "duration": 2, "velocity": 70}, {"time": 1288, "pitch": 55, "duration": 4, "velocity": 77}, {"time": 1288, "pitch": 62, "duration": 5, "velocity": 82}, {"time": 1294, "pitch": 60, "duration": 3, "velocity": 85}, {"time": 1297, "pitch": 62, "duration": 3, "velocity": 75}, {"time": 1300, "pitch": 41, "duration": 16, "velocity": 83}, {"time": 1300, "pitch": 60, "duration": 10, "velocity": 77}, {"time": 1306, "pitch": 48, "duration": 10, "velocity": 77}, {"time": 1312, "pitch": 56, "duration": 4, "velocity": 76}, {"time": 1312, "pitch": 60, "duration": 4, "velocity": 82}, {"time": 1324, "pitch": 46, "duration": 16, "velocity": 76}, {"time": 1324, "pitch": 58, "duration": 8, "velocity": 72}, {"time": 1324, "pitch": 62, "duration": 9, "velocity": 77}, {"time": 1330, "pitch": 50, "duration": 10, "velocity": 68}, {"time": 1336, "pitch": 53, "duration": 6, "velocity": 81}, {"time": 1342, "pitch": 58, "duration": 4, "velocity": 68}, {"time": 1345, "pitch": 56, "duration": 3, "velocity": 72}, {"time": 1348, "pitch": 39, "duration": 16, "velocity": 82}, {"time": 1348, "pitch": 55, "duration": 5, "velocity": 81}, {"time": 1354, "pitch": 46, "duration": 10, "velocity": 82}, {"time": 1360, "pitch": 51, "duration": 4, "velocity": 74}, {"time": 1360, "pitch": 55, "duration": 4, "velocity": 70}, {"time": 1360, "pitch": 58, "duration": 5, "velocity": 76}, {"time": 1366, "pitch": 51, "duration": 3, "velocity": 61}, {"time": 1372, "pitch": 51, "duration": 9, "velocity": 77}, {"time": 1372, "pitch": 55, "duration": 6, "velocity": 76}, {"time": 1372, "pitch": 58, "duration": 7, "velocity": 69}, {"time": 1372, "pitch": 63, "duration": 9, "velocity": 79}, {"time": 1378, "pitch": 46, "duration": 9, "velocity": 57}, {"time": 1384, "pitch": 51, "duration": 11, "velocity": 77}, {"time": 1384, "pitch": 55, "duration": 10, "velocity": 83}, {"time": 1384, "pitch": 58, "duration": 11, "velocity": 76}, {"time": 1384, "pitch": 61, "duration": 11, "velocity": 81}, {"time": 1390, "pitch": 39, "duration": 5, "velocity": 92}, {"time": 1396, "pitch": 44, "duration": 16, "velocity": 82}, {"time": 1396, "pitch": 56, "duration": 10, "velocity": 75}, {"time": 1396, "pitch": 63, "duration": 5, "velocity": 71}, {"time": 1402, "pitch": 51, "duration": 9, "velocity": 69}, {"time": 1408, "pitch": 60, "duration": 4, "velocity": 80}, {"time": 1408, "pitch": 63, "duration": 6, "velocity": 80}, {"time": 1420, "pitch": 46, "duration": 18, "velocity": 92}, {"time": 1420, "pitch": 53, "duration": 3, "velocity": 79}, {"time": 1420, "pitch": 58, "duration": 7, "velocity": 76}, {"time": 1426, "pitch": 53, "duration": 7, "velocity": 79}, {"time": 1432, "pitch": 58, "duration": 2, "velocity": 80}, {"time": 1432, "pitch": 62, "duration": 3, "velocity": 86}, {"time": 1438, "pitch": 58, "duration": 3, "velocity": 83}, {"time": 1444, "pitch": 43, "duration": 20, "velocity": 82}, {"time": 1444, "pitch": 55, "duration": 9, "velocity": 78}, {"time": 1450, "pitch": 50, "duration": 13, "velocity": 85}, {"time": 1456, "pitch": 58, "duration": 2, "velocity": 77}, {"time": 1456, "pitch": 62, "duration": 3, "velocity": 83}, {"time": 1462, "pitch": 63, "duration": 2, "velocity": 84}, {"time": 1465, "pitch": 62, "duration": 3, "velocity": 81}, {"time": 1468, "pitch": 48, "duration": 14, "velocity": 83}, {"time": 1468, "pitch": 60, "duration": 7, "velocity": 88}, {"time": 1474, "pitch": 55, "duration": 3, "velocity": 83}, {"time": 1480, "pitch": 55, "duration": 3, "velocity": 82}, {"time": 1480, "pitch": 60, "duration": 2, "velocity": 83}, {"time": 1480, "pitch": 63, "duration": 3, "velocity": 83}, {"time": 1492, "pitch": 44, "duration": 13, "velocity": 83}, {"time": 1498, "pitch": 51, "duration": 9, "velocity": 82}, {"time": 1504, "pitch": 56, "duration": 2, "velocity": 79}, {"time": 1504, "pitch": 60, "duration": 5, "velocity": 81}, {"time": 1504, "pitch": 63, "duration": 5, "velocity": 81}, {"time": 1510, "pitch": 56, "duration": 1, "velocity": 69}, {"time": 1516, "pitch": 46, "duration": 13, "velocity": 76}, {"time": 1516, "pitch": 53, "duration": 3, "velocity": 77}, {"time": 1516, "pitch": 62, "duration": 8, "velocity": 80}, {"time": 1522, "pitch": 53, "duration": 6, "velocity": 66}, {"time": 1528, "pitch": 58, "duration": 1, "velocity": 74}, {"time": 1528, "pitch": 62, "duration": 2, "velocity": 79}, {"time": 1540, "pitch": 36, "duration": 2, "velocity": 74}, {"time": 1540, "pitch": 60, "duration": 8, "velocity": 59}, {"time": 1540, "pitch": 72, "duration": 6, "velocity": 74}, {"time": 1546, "pitch": 48, "duration": 39, "velocity": 77}, {"time": 1552, "pitch": 55, "duration": 15, "velocity": 82}, {"time": 1558, "pitch": 60, "duration": 3, "velocity": 83}, {"time": 1564, "pitch": 60, "duration": 8, "velocity": 70}, {"time": 1564, "pitch": 67, "duration": 8, "velocity": 64}, {"time": 1570, "pitch": 55, "duration": 16, "velocity": 61}, {"time": 1576, "pitch": 60, "duration": 9, "velocity": 38}, {"time": 1576, "pitch": 67, "duration": 9, "velocity": 67}, {"time": 1576, "pitch": 72, "duration": 10, "velocity": 73}, {"time": 1586, "pitch": 55, "duration": 1, "velocity": 71}, {"time": 1587, "pitch": 60, "duration": 20, "velocity": 68}, {"time": 1588, "pitch": 36, "duration": 5, "velocity": 81}, {"time": 1588, "pitch": 63, "duration": 10, "velocity": 68}, {"time": 1593, "pitch": 55, "duration": 6, "velocity": 67}, {"time": 1599, "pitch": 67, "duration": 7, "velocity": 78}, {"time": 1605, "pitch": 55, "duration": 4, "velocity": 72}, {"time": 1612, "pitch": 55, "duration": 3, "velocity": 71}, {"time": 1612, "pitch": 63, "duration": 9, "velocity": 68}, {"time": 1612, "pitch": 60, "duration": 9, "velocity": 71}, {"time": 1618, "pitch": 55, "duration": 3, "velocity": 63}, {"time": 1624, "pitch": 63, "duration": 12, "velocity": 75}, {"time": 1624, "pitch": 60, "duration": 12, "velocity": 75}, {"time": 1624, "pitch": 55, "duration": 12, "velocity": 70}, {"time": 1636, "pitch": 36, "duration": 12, "velocity": 83}, {"time": 1636, "pitch": 55, "duration": 4, "velocity": 75}, {"time": 1636, "pitch": 60, "duration": 8, "velocity": 73}, {"time": 1642, "pitch": 55, "duration": 5, "velocity": 75}, {"time": 1648, "pitch": 55, "duration": 1, "velocity": 72}, {"time": 1648, "pitch": 60, "duration": 3, "velocity": 82}, {"time": 1648, "pitch": 63, "duration": 5, "velocity": 81}, {"time": 1654, "pitch": 55, "duration": 2, "velocity": 68}, {"time": 1660, "pitch": 48, "duration": 15, "velocity": 58}, {"time": 1660, "pitch": 55, "duration": 3, "velocity": 69}, {"time": 1660, "pitch": 60, "duration": 4, "velocity": 61}, {"time": 1666, "pitch": 55, "duration": 2, "velocity": 67}, {"time": 1672, "pitch": 55, "duration": 2, "velocity": 82}, {"time": 1672, "pitch": 60, "duration": 3, "velocity": 83}, {"time": 1672, "pitch": 63, "duration": 4, "velocity": 82}, {"time": 1684, "pitch": 43, "duration": 41, "velocity": 81}, {"time": 1684, "pitch": 55, "duration": 8, "velocity": 76}, {"time": 1684, "pitch": 62, "duration": 6, "velocity": 79}, {"time": 1690, "pitch": 50, "duration": 8, "velocity": 61}, {"time": 1696, "pitch": 55, "duration": 5, "velocity": 81}, {"time": 1696, "pitch": 58, "duration": 6, "velocity": 81}, {"time": 1702, "pitch": 50, "duration": 8, "velocity": 67}, {"time": 1708, "pitch": 62, "duration": 6, "velocity": 76}, {"time": 1714, "pitch": 50, "duration": 10, "velocity": 66}, {"time": 1720, "pitch": 55, "duration": 2, "velocity": 81}, {"time": 1720, "pitch": 58, "duration": 4, "velocity": 87}, {"time": 1720, "pitch": 62, "duration": 8, "velocity": 83}, {"time": 1726, "pitch": 55, "duration": 5, "velocity": 82}, {"time": 1732, "pitch": 44, "duration": 12, "velocity": 83}, {"time": 1732, "pitch": 60, "duration": 7, "velocity": 78}, {"time": 1738, "pitch": 51, "duration": 8, "velocity": 77}, {"time": 1744, "pitch": 56, "duration": 2, "velocity": 85}, {"time": 1744, "pitch": 60, "duration": 2, "velocity": 83}, {"time": 1756, "pitch": 46, "duration": 14, "velocity": 82}, {"time": 1756, "pitch": 58, "duration": 6, "velocity": 77}, {"time": 1756, "pitch": 62, "duration": 5, "velocity": 82}, {"time": 1762, "pitch": 53, "duration": 4, "velocity": 79}, {"time": 1768, "pitch": 58, "duration": 1, "velocity": 86}, {"time": 1774, "pitch": 56, "duration": 6, "velocity": 83}, {"time": 1780, "pitch": 39, "duration": 17, "velocity": 80}, {"time": 1780, "pitch": 55, "duration": 6, "velocity": 82}, {"time": 1786, "pitch": 46, "duration": 8, "velocity": 69}, {"time": 1792, "pitch": 51, "duration": 3, "velocity": 76}, {"time": 1792, "pitch": 55, "duration": 5, "velocity": 85}, {"time": 1798, "pitch": 46, "duration": 10, "velocity": 71}, {"time": 1804, "pitch": 58, "duration": 5, "velocity": 71}, {"time": 1810, "pitch": 51, "duration": 3, "velocity": 75}, {"time": 1816, "pitch": 51, "duration": 2, "velocity": 83}, {"time": 1816, "pitch": 55, "duration": 1, "velocity": 83}, {"time": 1816, "pitch": 58, "duration": 2, "velocity": 82}, {"time": 1816, "pitch": 63, "duration": 3, "velocity": 80}, {"time": 1828, "pitch": 41, "duration": 41, "velocity": 82}, {"time": 1828, "pitch": 53, "duration": 13, "velocity": 76}, {"time": 1828, "pitch": 56, "duration": 12, "velocity": 74}, {"time": 1834, "pitch": 48, "duration": 21, "velocity": 72}, {"time": 1840, "pitch": 60, "duration": 12, "velocity": 81}, {"time": 1846, "pitch": 56, "duration": 5, "velocity": 82}, {"time": 1852, "pitch": 65, "duration": 3, "velocity": 83}, {"time": 1858, "pitch": 48, "duration": 9, "velocity": 71}, {"time": 1864, "pitch": 65, "duration": 12, "velocity": 81}, {"time": 1864, "pitch": 68, "duration": 6, "velocity": 84}, {"time": 1876, "pitch": 36, "duration": 2, "velocity": 79}, {"time": 1876, "pitch": 67, "duration": 11, "velocity": 81}, {"time": 1882, "pitch": 48, "duration": 37, "velocity": 81}, {"time": 1888, "pitch": 60, "duration": 6, "velocity": 76}, {"time": 1888, "pitch": 63, "duration": 7, "velocity": 76}, {"time": 1894, "pitch": 55, "duration": 7, "velocity": 70}, {"time": 1900, "pitch": 60, "duration": 10, "velocity": 81}, {"time": 1900, "pitch": 63, "duration": 9, "velocity": 83}, {"time": 1900, "pitch": 67, "duration": 10, "velocity": 76}, {"time": 1906, "pitch": 55, "duration": 9, "velocity": 73}, {"time": 1912, "pitch": 65, "duration": 11, "velocity": 87}, {"time": 1918, "pitch": 55, "duration": 2, "velocity": 75}, {"time": 1924, "pitch": 44, "duration": 13, "velocity": 84}, {"time": 1924, "pitch": 63, "duration": 8, "velocity": 87}, {"time": 1930, "pitch": 51, "duration": 7, "velocity": 74}, {"time": 1936, "pitch": 56, "duration": 2, "velocity": 81}, {"time": 1936, "pitch": 63, "duration": 2, "velocity": 82}, {"time": 1948, "pitch": 46, "duration": 15, "velocity": 82}, {"time": 1948, "pitch": 58, "duration": 6, "velocity": 74}, {"time": 1948, "pitch": 65, "duration": 8, "velocity": 81}, {"time": 1954, "pitch": 53, "duration": 8, "velocity": 59}, {"time": 1960, "pitch": 62, "duration": 2, "velocity": 84}, {"time": 1966, "pitch": 63, "duration": 6, "velocity": 85}, {"time": 1972, "pitch": 48, "duration": 41, "velocity": 85}, {"time": 1972, "pitch": 60, "duration": 13, "velocity": 83}, {"time": 1978, "pitch": 55, "duration": 8, "velocity": 77}, {"time": 1984, "pitch": 67, "duration": 7, "velocity": 76}, {"time": 1990, "pitch": 55, "duration": 7, "velocity": 70}, {"time": 1996, "pitch": 60, "duration": 7, "velocity": 81}, {"time": 1996, "pitch": 63, "duration": 6, "velocity": 81}, {"time": 1996, "pitch": 67, "duration": 6, "velocity": 82}, {"time": 1996, "pitch": 72, "duration": 6, "velocity": 82}, {"time": 2002, "pitch": 55, "duration": 8, "velocity": 77}, {"time": 2008, "pitch": 60, "duration": 4, "velocity": 82}, {"time": 2008, "pitch": 63, "duration": 5, "velocity": 97}, {"time": 2011, "pitch": 55, "duration": 2, "velocity": 92}, {"time": 2014, "pitch": 62, "duration": 3, "velocity": 82}, {"time": 2017, "pitch": 63, "duration": 3, "velocity": 90}, {"time": 2020, "pitch": 44, "duration": 12, "velocity": 83}, {"time": 2020, "pitch": 56, "duration": 12, "velocity": 74}, {"time": 2020, "pitch": 63, "duration": 8, "velocity": 77}, {"time": 2026, "pitch": 51, "duration": 7, "velocity": 66}, {"time": 2032, "pitch": 60, "duration": 4, "velocity": 79}, {"time": 2044, "pitch": 46, "duration": 17, "velocity": 81}, {"time": 2044, "pitch": 58, "duration": 7, "velocity": 70}, {"time": 2044, "pitch": 62, "duration": 6, "velocity": 81}, {"time": 2050, "pitch": 53, "duration": 11, "velocity": 83}, {"time": 2056, "pitch": 58, "duration": 7, "velocity": 82}, {"time": 2059, "pitch": 62, "duration": 4, "velocity": 77}, {"time": 2062, "pitch": 65, "duration": 3, "velocity": 80}, {"time": 2068, "pitch": 43, "duration": 18, "velocity": 82}, {"time": 2068, "pitch": 55, "duration": 9, "velocity": 72}, {"time": 2068, "pitch": 58, "duration": 7, "velocity": 71}, {"time": 2068, "pitch": 62, "duration": 7, "velocity": 69}, {"time": 2074, "pitch": 50, "duration": 11, "velocity": 76}, {"time": 2080, "pitch": 58, "duration": 3, "velocity": 85}, {"time": 2092, "pitch": 48, "duration": 17, "velocity": 80}, {"time": 2092, "pitch": 63, "duration": 8, "velocity": 84}, {"time": 2098, "pitch": 55, "duration": 2, "velocity": 70}, {"time": 2104, "pitch": 55, "duration": 4, "velocity": 77}, {"time": 2104, "pitch": 62, "duration": 5, "velocity": 82}, {"time": 2110, "pitch": 60, "duration": 3, "velocity": 85}, {"time": 2113, "pitch": 62, "duration": 3, "velocity": 75}, {"time": 2116, "pitch": 41, "duration": 16, "velocity": 83}, {"time": 2116, "pitch": 60, "duration": 10, "velocity": 77}, {"time": 2122, "pitch": 48, "duration": 10, "velocity": 77}, {"time": 2128, "pitch": 56, "duration": 4, "velocity": 76}, {"time": 2128, "pitch": 60, "duration": 4, "velocity": 82}, {"time": 2140, "pitch": 46, "duration": 16, "velocity": 76}, {"time": 2140, "pitch": 58, "duration": 8, "velocity": 72}, {"time": 2140, "pitch": 62, "duration": 9, "velocity": 77}, {"time": 2146, "pitch": 50, "duration": 10, "velocity": 68}, {"time": 2152, "pitch": 53, "duration": 6, "velocity": 81}, {"time": 2158, "pitch": 58, "duration": 4, "velocity": 68}, {"time": 2161, "pitch": 56, "duration": 3, "velocity": 72}, {"time": 2164, "pitch": 39, "duration": 16, "velocity": 82}, {"time": 2164, "pitch": 55, "duration": 5, "velocity": 81}, {"time": 2170, "pitch": 46, "duration": 10, "velocity": 82}, {"time": 2176, "pitch": 51, "duration": 4, "velocity": 74}, {"time": 2176, "pitch": 55, "duration": 4, "velocity": 70}, {"time": 2176, "pitch": 58, "duration": 5, "velocity": 76}, {"time": 2182, "pitch": 51, "duration": 3, "velocity": 61}, {"time": 2188, "pitch": 51, "duration": 9, "velocity": 77}, {"time": 2188, "pitch": 55, "duration": 6, "velocity": 76}, {"time": 2188, "pitch": 58, "duration": 7, "velocity": 69}, {"time": 2188, "pitch": 63, "duration": 9, "velocity": 79}, {"time": 2194, "pitch": 46, "duration": 9, "velocity": 57}, {"time": 2200, "pitch": 51, "duration": 11, "velocity": 77}, {"time": 2200, "pitch": 55, "duration": 10, "velocity": 83}, {"time": 2200, "pitch": 58, "duration": 11, "velocity": 76}, {"time": 2200, "pitch": 61, "duration": 11, "velocity": 81}, {"time": 2206, "pitch": 39, "duration": 5, "velocity": 92}, {"time": 2212, "pitch": 44, "duration": 16, "velocity": 82}, {"time": 2212, "pitch": 56, "duration": 10, "velocity": 75}, {"time": 2212, "pitch": 63, "duration": 5, "velocity": 71}, {"time": 2218, "pitch": 51, "duration": 9, "velocity": 69}, {"time": 2224, "pitch": 60, "duration": 4, "velocity": 80}, {"time": 2224, "pitch": 63, "duration": 6, "velocity": 80}, {"time": 2236, "pitch": 46, "duration": 18, "velocity": 92}, {"time": 2236, "pitch": 53, "duration": 3, "velocity": 79}, {"time": 2236, "pitch": 58, "duration": 7, "velocity": 76}, {"time": 2242, "pitch": 53, "duration": 7, "velocity": 79}, {"time": 2248, "pitch": 58, "duration": 2, "velocity": 80}, {"time": 2248, "pitch": 62, "duration": 3, "velocity": 86}, {"time": 2254, "pitch": 58, "duration": 3, "velocity": 83}, {"time": 2260, "pitch": 43, "duration": 20, "velocity": 82}, {"time": 2260, "pitch": 55, "duration": 9, "velocity": 78}, {"time": 2266, "pitch": 50, "duration": 13, "velocity": 85}, {"time": 2272, "pitch": 58, "duration": 2, "velocity": 77}, {"time": 2272, "pitch": 62, "duration": 3, "velocity": 83}, {"time": 2278, "pitch": 63, "duration": 2, "velocity": 84}, {"time": 2281, "pitch": 62, "duration": 3, "velocity": 81}, {"time": 2284, "pitch": 48, "duration": 14, "velocity": 83}, {"time": 2284, "pitch": 60, "duration": 7, "velocity": 88}, {"time": 2290, "pitch": 55, "duration": 3, "velocity": 83}, {"time": 2296, "pitch": 55, "duration": 3, "velocity": 82}, {"time": 2296, "pitch": 60, "duration": 2, "velocity": 83}, {"time": 2296, "pitch": 63, "duration": 3, "velocity": 83}, {"time": 2308, "pitch": 44, "duration": 13, "velocity": 83}, {"time": 2314, "pitch": 51, "duration": 9, "velocity": 82}, {"time": 2320, "pitch": 56, "duration": 2, "velocity": 79}, {"time": 2320, "pitch": 60, "duration": 5, "velocity": 81}, {"time": 2320, "pitch": 63, "duration": 5, "velocity": 81}, {"time": 2326, "pitch": 56, "duration": 1, "velocity": 69}, {"time": 2332, "pitch": 46, "duration": 13, "velocity": 76}, {"time": 2332, "pitch": 53, "duration": 3, "velocity": 77}, {"time": 2332, "pitch": 62, "duration": 8, "velocity": 80}, {"time": 2338, "pitch": 53, "duration": 6, "velocity": 66}, {"time": 2344, "pitch": 58, "duration": 1, "velocity": 74}, {"time": 2344, "pitch": 62, "duration": 2, "velocity": 79}, {"time": 2356, "pitch": 36, "duration": 2, "velocity": 74}, {"time": 2356, "pitch": 60, "duration": 8, "velocity": 59}, {"time": 2356, "pitch": 72, "duration": 6, "velocity": 74}, {"time": 2362, "pitch": 48, "duration": 39, "velocity": 77}, {"time": 2368, "pitch": 55, "duration": 15, "velocity": 82}, {"time": 2374, "pitch": 60, "duration": 3, "velocity": 83}, {"time": 2380, "pitch": 60, "duration": 8, "velocity": 70}, {"time": 2380, "pitch": 67, "duration": 8, "velocity": 64}, {"time": 2386, "pitch": 55, "duration": 16, "velocity": 61}, {"time": 2392, "pitch": 60, "duration": 9, "velocity": 38}, {"time": 2392, "pitch": 67, "duration": 9, "velocity": 67}, {"time": 2392, "pitch": 72, "duration": 10, "velocity": 73}, {"time": 2404, "pitch": 44, "duration": 12, "velocity": 83}, {"time": 2404, "pitch": 56, "duration": 12, "velocity": 74}, {"time": 2404, "pitch": 63, "duration": 8, "velocity": 77}, {"time": 2410, "pitch": 51, "duration": 7, "velocity": 66}, {"time": 2416, "pitch": 60, "duration": 4, "velocity": 79}, {"time": 2428, "pitch": 46, "duration": 17, "velocity": 81}, {"time": 2428, "pitch": 58, "duration": 7, "velocity": 70}, {"time": 2428, "pitch": 62, "duration": 6, "velocity": 81}, {"time": 2434, "pitch": 53, "duration": 11, "velocity": 83}, {"time": 2440, "pitch": 58, "duration": 7, "velocity": 82}, {"time": 2443, "pitch": 62, "duration": 4, "velocity": 77}, {"time": 2446, "pitch": 65, "duration": 3, "velocity": 80}, {"time": 2452, "pitch": 43, "duration": 18, "velocity": 82}, {"time": 2452, "pitch": 55, "duration": 9, "velocity": 72}, {"time": 2452, "pitch": 58, "duration": 7, "velocity": 71}, {"time": 2452, "pitch": 62, "duration": 7, "velocity": 69}, {"time": 2458, "pitch": 50, "duration": 11, "velocity": 76}, {"time": 2464, "pitch": 58, "duration": 3, "velocity": 85}, {"time": 2476, "pitch": 48, "duration": 17, "velocity": 80}, {"time": 2476, "pitch": 63, "duration": 8, "velocity": 84}, {"time": 2482, "pitch": 55, "duration": 2, "velocity": 70}, {"time": 2488, "pitch": 55, "duration": 4, "velocity": 77}, {"time": 2488, "pitch": 62, "duration": 5, "velocity": 82}, {"time": 2494, "pitch": 60, "duration": 3, "velocity": 85}, {"time": 2497, "pitch": 62, "duration": 3, "velocity": 75}, {"time": 2500, "pitch": 41, "duration": 16, "velocity": 83}, {"time": 2500, "pitch": 60, "duration": 10, "velocity": 77}, {"time": 2506, "pitch": 48, "duration": 10, "velocity": 77}, {"time": 2512, "pitch": 56, "duration": 4, "velocity": 76}, {"time": 2512, "pitch": 60, "duration": 4, "velocity": 82}, {"time": 2524, "pitch": 46, "duration": 16, "velocity": 76}, {"time": 2524, "pitch": 58, "duration": 8, "velocity": 72}, {"time": 2524, "pitch": 62, "duration": 9, "velocity": 77}, {"time": 2530, "pitch": 50, "duration": 10, "velocity": 68}, {"time": 2536, "pitch": 53, "duration": 6, "velocity": 81}, {"time": 2542, "pitch": 58, "duration": 4, "velocity": 68}, {"time": 2545, "pitch": 56, "duration": 3, "velocity": 72}, {"time": 2548, "pitch": 39, "duration": 16, "velocity": 82}, {"time": 2548, "pitch": 55, "duration": 5, "velocity": 81}, {"time": 2554, "pitch": 46, "duration": 10, "velocity": 82}, {"time": 2560, "pitch": 51, "duration": 4, "velocity": 74}, {"time": 2560, "pitch": 55, "duration": 4, "velocity": 70}, {"time": 2560, "pitch": 58, "duration": 5, "velocity": 76}, {"time": 2566, "pitch": 51, "duration": 3, "velocity": 61}, {"time": 2572, "pitch": 51, "duration": 9, "velocity": 77}, {"time": 2572, "pitch": 55, "duration": 6, "velocity": 76}, {"time": 2572, "pitch": 58, "duration": 7, "velocity": 69}, {"time": 2572, "pitch": 63, "duration": 9, "velocity": 79}, {"time": 2578, "pitch": 46, "duration": 9, "velocity": 57}, {"time": 2584, "pitch": 51, "duration": 11, "velocity": 77}, {"time": 2584, "pitch": 55, "duration": 10, "velocity": 83}, {"time": 2584, "pitch": 58, "duration": 11, "velocity": 76}, {"time": 2584, "pitch": 61, "duration": 11, "velocity": 81}, {"time": 2590, "pitch": 39, "duration": 5, "velocity": 92}, {"time": 2596, "pitch": 44, "duration": 16, "velocity": 82}, {"time": 2596, "pitch": 56, "duration": 10, "velocity": 75}, {"time": 2596, "pitch": 63, "duration": 5, "velocity": 71}, {"time": 2602, "pitch": 51, "duration": 9, "velocity": 69}, {"time": 2608, "pitch": 60, "duration": 4, "velocity": 80}, {"time": 2608, "pitch": 63, "duration": 6, "velocity": 80}, {"time": 2620, "pitch": 46, "duration": 18, "velocity": 92}, {"time": 2620, "pitch": 53, "duration": 3, "velocity": 79}, {"time": 2620, "pitch": 58, "duration": 7, "velocity": 76}, {"time": 2626, "pitch": 53, "duration": 7, "velocity": 79}, {"time": 2632, "pitch": 58, "duration": 2, "velocity": 80}, {"time": 2632, "pitch": 62, "duration": 3, "velocity": 86}, {"time": 2638, "pitch": 58, "duration": 3, "velocity": 83}, {"time": 2644, "pitch": 43, "duration": 20, "velocity": 82}, {"time": 2644, "pitch": 55, "duration": 9, "velocity": 78}, {"time": 2650, "pitch": 50, "duration": 13, "velocity": 85}, {"time": 2656, "pitch": 58, "duration": 2, "velocity": 77}, {"time": 2656, "pitch": 62, "duration": 3, "velocity": 83}, {"time": 2662, "pitch": 63, "duration": 2, "velocity": 84}, {"time": 2665, "pitch": 62, "duration": 3, "velocity": 81}, {"time": 2668, "pitch": 48, "duration": 14, "velocity": 83}, {"time": 2668, "pitch": 60, "duration": 7, "velocity": 88}, {"time": 2674, "pitch": 55, "duration": 3, "velocity": 83}, {"time": 2680, "pitch": 55, "duration": 3, "velocity": 82}, {"time": 2680, "pitch": 60, "duration": 2, "velocity": 83}, {"time": 2680, "pitch": 63, "duration": 3, "velocity": 83}, {"time": 2692, "pitch": 44, "duration": 13, "velocity": 83}, {"time": 2698, "pitch": 51, "duration": 9, "velocity": 82}, {"time": 2704, "pitch": 56, "duration": 2, "velocity": 79}, {"time": 2704, "pitch": 60, "duration": 5, "velocity": 81}, {"time": 2704, "pitch": 63, "duration": 5, "velocity": 81}, {"time": 2710, "pitch": 56, "duration": 1, "velocity": 69}, {"time": 2716, "pitch": 46, "duration": 13, "velocity": 76}, {"time": 2716, "pitch": 53, "duration": 3, "velocity": 77}, {"time": 2716, "pitch": 62, "duration": 8, "velocity": 80}, {"time": 2722, "pitch": 53, "duration": 6, "velocity": 66}, {"time": 2728, "pitch": 58, "duration": 1, "velocity": 74}, {"time": 2728, "pitch": 62, "duration": 2, "velocity": 79}, {"time": 2740, "pitch": 36, "duration": 2, "velocity": 74}, {"time": 2740, "pitch": 60, "duration": 8, "velocity": 59}, {"time": 2740, "pitch": 72, "duration": 6, "velocity": 74}, {"time": 2746, "pitch": 48, "duration": 39, "velocity": 77}, {"time": 2752, "pitch": 55, "duration": 15, "velocity": 82}, {"time": 2758, "pitch": 60, "duration": 3, "velocity": 83}, {"time": 2764, "pitch": 60, "duration": 8, "velocity": 70}, {"time": 2764, "pitch": 67, "duration": 8, "velocity": 64}, {"time": 2770, "pitch": 55, "duration": 16, "velocity": 61}, {"time": 2776, "pitch": 60, "duration": 9, "velocity": 38}, {"time": 2776, "pitch": 67, "duration": 9, "velocity": 67}, {"time": 2776, "pitch": 72, "duration": 10, "velocity": 73}, {"time": 2788, "pitch": 44, "duration": 11, "velocity": 84}, {"time": 2788, "pitch": 56, "duration": 13, "velocity": 74}, {"time": 2788, "pitch": 63, "duration": 13, "velocity": 76}, {"time": 2794, "pitch": 51, "duration": 6, "velocity": 66}, {"time": 2800, "pitch": 60, "duration": 4, "velocity": 77}, {"time": 2812, "pitch": 46, "duration": 14, "velocity": 75}, {"time": 2812, "pitch": 62, "duration": 9, "velocity": 81}, {"time": 2818, "pitch": 53, "duration": 7, "velocity": 81}, {"time": 2824, "pitch": 58, "duration": 2, "velocity": 84}, {"time": 2836, "pitch": 36, "duration": 1, "velocity": 77}, {"time": 2836, "pitch": 55, "duration": 4, "velocity": 75}, {"time": 2836, "pitch": 60, "duration": 18, "velocity": 77}, {"time": 2842, "pitch": 48, "duration": 14, "velocity": 81}, {"time": 2848, "pitch": 55, "duration": 8, "velocity": 81}, {"time": 2854, "pitch": 62, "duration": 6, "velocity": 83}, {"time": 2860, "pitch": 63, "duration": 7, "velocity": 90}, {"time": 2866, "pitch": 60, "duration": 3, "velocity": 70}, {"time": 2870, "pitch": 63, "duration": 3, "velocity": 80}, {"time": 2870, "pitch": 67, "duration": 4, "velocity": 81}, {"time": 2870, "pitch": 60, "duration": 4, "velocity": 77}, {"time": 2883, "pitch": 63, "duration": 23, "velocity": 76}, {"time": 2883, "pitch": 56, "duration": 15, "velocity": 73}, {"time": 2883, "pitch": 44, "duration": 15, "velocity": 85}, {"time": 2889, "pitch": 51, "duration": 9, "velocity": 76}, {"time": 2896, "pitch": 60, "duration": 7, "velocity": 81}, {"time": 2902, "pitch": 56, "duration": 4, "velocity": 73}, {"time": 2908, "pitch": 46, "duration": 40, "velocity": 84}, {"time": 2914, "pitch": 58, "duration": 8, "velocity": 74}, {"time": 2921, "pitch": 62, "duration": 3, "velocity": 76}, {"time": 2927, "pitch": 65, "duration": 2, "velocity": 81}, {"time": 2937, "pitch": 65, "duration": 16, "velocity": 69}, {"time": 2939, "pitch": 70, "duration": 14, "velocity": 66}, {"time": 2940, "pitch": 74, "duration": 13, "velocity": 72}, {"time": 2943, "pitch": 77, "duration": 10, "velocity": 57}, {"time": 2954, "pitch": 55, "duration": 8, "velocity": 70}, {"time": 2955, "pitch": 60, "duration": 31, "velocity": 73}, {"time": 2956, "pitch": 36, "duration": 48, "velocity": 78}, {"time": 2956, "pitch": 63, "duration": 9, "velocity": 74}, {"time": 2962, "pitch": 43, "duration": 41, "velocity": 61}, {"time": 2968, "pitch": 55, "duration": 13, "velocity": 73}, {"time": 2973, "pitch": 63, "duration": 13, "velocity": 81}, {"time": 2979, "pitch": 67, "duration": 10, "velocity": 74}, {"time": 2985, "pitch": 55, "duration": 7, "velocity": 67}, {"time": 2991, "pitch": 63, "duration": 13, "velocity": 76}, {"time": 3004, "pitch": 44, "duration": 13, "velocity": 87}, {"time": 3010, "pitch": 51, "duration": 7, "velocity": 70}, {"time": 3016, "pitch": 56, "duration": 6, "velocity": 86}, {"time": 3028, "pitch": 46, "duration": 14, "velocity": 77}, {"time": 3028, "pitch": 58, "duration": 7, "velocity": 74}, {"time": 3028, "pitch": 62, "duration": 11, "velocity": 72}, {"time": 3034, "pitch": 53, "duration": 8, "velocity": 80}, {"time": 3040, "pitch": 58, "duration": 3, "velocity": 85}, {"time": 3052, "pitch": 48, "duration": 38, "velocity": 78}, {"time": 3052, "pitch": 63, "duration": 12, "velocity": 70}, {"time": 3058, "pitch": 55, "duration": 7, "velocity": 82}, {"time": 3064, "pitch": 60, "duration": 7, "velocity": 87}, {"time": 3070, "pitch": 55, "duration": 7, "velocity": 66}, {"time": 3076, "pitch": 67, "duration": 5, "velocity": 82}, {"time": 3082, "pitch": 55, "duration": 4, "velocity": 65}, {"time": 3088, "pitch": 63, "duration": 2, "velocity": 81}, {"time": 3100, "pitch": 44, "duration": 11, "velocity": 83}, {"time": 3100, "pitch": 56, "duration": 8, "velocity": 75}, {"time": 3100, "pitch": 63, "duration": 12, "velocity": 76}, {"time": 3106, "pitch": 51, "duration": 6, "velocity": 75}, {"time": 3112, "pitch": 56, "duration": 3, "velocity": 88}, {"time": 3124, "pitch": 46, "duration": 12, "velocity": 76}, {"time": 3124, "pitch": 58, "duration": 7, "velocity": 66}, {"time": 3124, "pitch": 62, "duration": 12, "velocity": 79}, {"time": 3130, "pitch": 53, "duration": 7, "velocity": 71}, {"time": 3136, "pitch": 58, "duration": 2, "velocity": 73}, {"time": 3148, "pitch": 36, "duration": 2, "velocity": 76}, {"time": 3148, "pitch": 63, "duration": 8, "velocity": 73}, {"time": 3154, "pitch": 48, "duration": 9, "velocity": 81}, {"time": 3160, "pitch": 55, "duration": 3, "velocity": 75}, {"time": 3166, "pitch": 62, "duration": 8, "velocity": 73}, {"time": 3172, "pitch": 63, "duration": 11, "velocity": 64}, {"time": 3183, "pitch": 67, "duration": 3, "velocity": 76}, {"time": 3196, "pitch": 36, "duration": 1, "velocity": 72}, {"time": 3196, "pitch": 63, "duration": 11, "velocity": 68}, {"time": 3196, "pitch": 60, "duration": 11, "velocity": 70}, {"time": 3201, "pitch": 48, "duration": 30, "velocity": 81}, {"time": 3208, "pitch": 55, "duration": 23, "velocity": 77}, {"time": 3214, "pitch": 62, "duration": 3, "velocity": 81}, {"time": 3220, "pitch": 63, "duration": 3, "velocity": 82}, {"time": 3227, "pitch": 67, "duration": 3, "velocity": 79}, {"time": 3240, "pitch": 48, "duration": 18, "velocity": 61}, {"time": 3243, "pitch": 55, "duration": 15, "velocity": 69}, {"time": 3244, "pitch": 67, "duration": 13, "velocity": 64}, {"time": 3246, "pitch": 72, "duration": 11, "velocity": 64}, {"time": 3247, "pitch": 79, "duration": 10, "velocity": 68}], "annotations": [{"time": 29, "annotation": {"number": 64, "value": 127}, "group": "control_change"}, {"time": 50, "annotation": {"number": 64, "value": 0}, "group": "control_change"}, {"time": 58, "annotation": {"number": 64, "value": 127}, "group": "control_change"}, {"time": 98, "annotation": {"number": 64, "value": 0}, "group": "control_change"}, {"time": 101, "annotation": {"number": 64, "value": 127}, "group": "control_change"}, {"time": 147, "annotation": {"number": 64, "value": 0}, "group": "control_change"}, {"time": 151, "annotation": {"number": 64, "value": 127}, "group": "control_change"}, {"time": 197, "annotation": {"number": 64, "value": 127}, "group": "control_change"}, {"time": 197, "annotation": {"number": 64, "value": 0}, "group": "control_change"}, {"time": 198, "annotation": {"number": 64, "value": 127}, "group": "control_change"}, {"time": 218, "annotation": {"number": 64, "value": 0}, "group": "control_change"}, {"time": 223, "annotation": {"number": 64, "value": 127}, "group": "control_change"}, {"time": 243, "annotation": {"number": 64, "value": 0}, "group": "control_change"}, {"time": 245, "annotation": {"number": 64, "value": 127}, "group": "control_change"}, {"time": 288, "annotation": {"number": 64, "value": 0}, "group": "control_change"}, {"time": 292, "annotation": {"number": 64, "value": 127}, "group": "control_change"}, {"time": 314, "annotation": {"number": 64, "value": 0}, "group": "control_change"}, {"time": 316, "annotation": {"number": 64, "value": 127}, "group": "control_change"}, {"time": 337, "annotation": {"number": 64, "value": 0}, "group": "control_change"}, {"time": 339, "annotation": {"number": 64, "value": 127}, "group": "control_change"}, {"time": 383, "annotation": {"number": 64, "value": 0}, "group": "control_change"}, {"time": 388, "annotation": {"number": 64, "value": 127}, "group": "control_change"}, {"time": 388, "annotation": {"number": 64, "value": 0}, "group": "control_change"}, {"time": 389, "annotation": {"number": 64, "value": 127}, "group": "control_change"}, {"time": 389, "annotation": {"number": 64, "value": 0}, "group": "control_change"}, {"time": 436, "annotation": {"number": 64, "value": 127}, "group": "control_change"}, {"time": 483, "annotation": {"number": 64, "value": 0}, "group": "control_change"}, {"time": 489, "annotation": {"number": 64, "value": 127}, "group": "control_change"}, {"time": 531, "annotation": {"number": 64, "value": 0}, "group": "control_change"}, {"time": 534, "annotation": {"number": 64, "value": 127}, "group": "control_change"}, {"time": 555, "annotation": {"number": 64, "value": 0}, "group": "control_change"}, {"time": 557, "annotation": {"number": 64, "value": 127}, "group": "control_change"}, {"time": 578, "annotation": {"number": 64, "value": 0}, "group": "control_change"}, {"time": 582, "annotation": {"number": 64, "value": 127}, "group": "control_change"}, {"time": 626, "annotation": {"number": 64, "value": 0}, "group": "control_change"}, {"time": 635, "annotation": {"number": 64, "value": 127}, "group": "control_change"}, {"time": 674, "annotation": {"number": 64, "value": 0}, "group": "control_change"}, {"time": 678, "annotation": {"number": 64, "value": 127}, "group": "control_change"}, {"time": 721, "annotation": {"number": 64, "value": 0}, "group": "control_change"}, {"time": 726, "annotation": {"number": 64, "value": 127}, "group": "control_change"}, {"time": 747, "annotation": {"number": 64, "value": 0}, "group": "control_change"}, {"time": 750, "annotation": {"number": 64, "value": 127}, "group": "control_change"}, {"time": 771, "annotation": {"number": 64, "value": 0}, "group": "control_change"}, {"time": 774, "annotation": {"number": 64, "value": 127}, "group": "control_change"}, {"time": 820, "annotation": {"number": 64, "value": 127}, "group": "control_change"}, {"time": 867, "annotation": {"number": 64, "value": 0}, "group": "control_change"}, {"time": 873, "annotation": {"number": 64, "value": 127}, "group": "control_change"}, {"time": 915, "annotation": {"number": 64, "value": 0}, "group": "control_change"}, {"time": 918, "annotation": {"number": 64, "value": 127}, "group": "control_change"}, {"time": 939, "annotation": {"number": 64, "value": 0}, "group": "control_change"}, {"time": 941, "annotation": {"number": 64, "value": 127}, "group": "control_change"}, {"time": 962, "annotation": {"number": 64, "value": 0}, "group": "control_change"}, {"time": 966, "annotation": {"number": 64, "value": 127}, "group": "control_change"}, {"time": 1010, "annotation": {"number": 64, "value": 0}, "group": "control_change"}, {"time": 1019, "annotation": {"number": 64, "value": 127}, "group": "control_change"}, {"time": 1058, "annotation": {"number": 64, "value": 0}, "group": "control_change"}, {"time": 1062, "annotation": {"number": 64, "value": 127}, "group": "control_change"}, {"time": 1105, "annotation": {"number": 64, "value": 0}, "group": "control_change"}, {"time": 1110, "annotation": {"number": 64, "value": 127}, "group": "control_change"}, {"time": 1131, "annotation": {"number": 64, "value": 0}, "group": "control_change"}, {"time": 1134, "annotation": {"number": 64, "value": 127}, "group": "control_change"}, {"time": 1155, "annotation": {"number": 64, "value": 0}, "group": "control_change"}, {"time": 1158, "annotation": {"number": 64, "value": 127}, "group": "control_change"}, {"time": 1226, "annotation": {"number": 64, "value": 0}, "group": "control_change"}, {"time": 1228, "annotation": {"number": 64, "value": 127}, "group": "control_change"}, {"time": 1251, "annotation": {"number": 64, "value": 0}, "group": "control_change"}, {"time": 1253, "annotation": {"number": 64, "value": 127}, "group": "control_change"}, {"time": 1273, "annotation": {"number": 64, "value": 0}, "group": "control_change"}, {"time": 1275, "annotation": {"number": 64, "value": 127}, "group": "control_change"}, {"time": 1298, "annotation": {"number": 64, "value": 0}, "group": "control_change"}, {"time": 1300, "annotation": {"number": 64, "value": 127}, "group": "control_change"}, {"time": 1322, "annotation": {"number": 64, "value": 0}, "group": "control_change"}, {"time": 1324, "annotation": {"number": 64, "value": 127}, "group": "control_change"}, {"time": 1346, "annotation": {"number": 64, "value": 0}, "group": "control_change"}, {"time": 1348, "annotation": {"number": 64, "value": 127}, "group": "control_change"}, {"time": 1393, "annotation": {"number": 64, "value": 0}, "group": "control_change"}, {"time": 1396, "annotation": {"number": 64, "value": 127}, "group": "control_change"}, {"time": 1419, "annotation": {"number": 64, "value": 0}, "group": "control_change"}, {"time": 1421, "annotation": {"number": 64, "value": 127}, "group": "control_change"}, {"time": 1443, "annotation": {"number": 64, "value": 0}, "group": "control_change"}, {"time": 1445, "annotation": {"number": 64, "value": 127}, "group": "control_change"}, {"time": 1466, "annotation": {"number": 64, "value": 0}, "group": "control_change"}, {"time": 1468, "annotation": {"number": 64, "value": 127}, "group": "control_change"}, {"time": 1491, "annotation": {"number": 64, "value": 0}, "group": "control_change"}, {"time": 1493, "annotation": {"number": 64, "value": 127}, "group": "control_change"}, {"time": 1514, "annotation": {"number": 64, "value": 0}, "group": "control_change"}, {"time": 1516, "annotation": {"number": 64, "value": 127}, "group": "control_change"}, {"time": 1537, "annotation": {"number": 64, "value": 0}, "group": "control_change"}, {"time": 1539, "annotation": {"number": 64, "value": 127}, "group": "control_change"}, {"time": 1583, "annotation": {"number": 64, "value": 0}, "group": "control_change"}, {"time": 1587, "annotation": {"number": 64, "value": 127}, "group": "control_change"}, {"time": 1634, "annotation": {"number": 64, "value": 0}, "group": "control_change"}, {"time": 1636, "annotation": {"number": 64, "value": 127}, "group": "control_change"}, {"time": 1682, "annotation": {"number": 64, "value": 0}, "group": "control_change"}, {"time": 1685, "annotation": {"number": 64, "value": 127}, "group": "control_change"}, {"time": 1730, "annotation": {"number": 64, "value": 0}, "group": "control_change"}, {"time": 1733, "annotation": {"number": 64, "value": 127}, "group": "control_change"}, {"time": 1754, "annotation": {"number": 64, "value": 0}, "group": "control_change"}, {"time": 1756, "annotation": {"number": 64, "value": 127}, "group": "control_change"}, {"time": 1778, "annotation": {"number": 64, "value": 0}, "group": "control_change"}, {"time": 1780, "annotation": {"number": 64, "value": 127}, "group": "control_change"}, {"time": 1826, "annotation": {"number": 64, "value": 0}, "group": "control_change"}, {"time": 1833, "annotation": {"number": 64, "value": 127}, "group": "control_change"}, {"time": 1873, "annotation": {"number": 64, "value": 0}, "group": "control_change"}, {"time": 1876, "annotation": {"number": 64, "value": 127}, "group": "control_change"}, {"time": 1922, "annotation": {"number": 64, "value": 0}, "group": "control_change"}, {"time": 1924, "annotation": {"number": 64, "value": 127}, "group": "control_change"}, {"time": 1946, "annotation": {"number": 64, "value": 0}, "group": "control_change"}, {"time": 1948, "annotation": {"number": 64, "value": 127}, "group": "control_change"}, {"time": 1970, "annotation": {"number": 64, "value": 0}, "group": "control_change"}, {"time": 1973, "annotation": {"number": 64, "value": 127}, "group": "control_change"}, {"time": 2014, "annotation": {"number": 64, "value": 0}, "group": "control_change"}, {"time": 2042, "annotation": {"number": 64, "value": 0}, "group": "control_change"}, {"time": 2044, "annotation": {"number": 64, "value": 127}, "group": "control_change"}, {"time": 2067, "annotation": {"number": 64, "value": 0}, "group": "control_change"}, {"time": 2069, "annotation": {"number": 64, "value": 127}, "group": "control_change"}, {"time": 2089, "annotation": {"number": 64, "value": 0}, "group": "control_change"}, {"time": 2091, "annotation": {"number": 64, "value": 127}, "group": "control_change"}, {"time": 2114, "annotation": {"number": 64, "value": 0}, "group": "control_change"}, {"time": 2116, "annotation": {"number": 64, "value": 127}, "group": "control_change"}, {"time": 2138, "annotation": {"number": 64, "value": 0}, "group": "control_change"}, {"time": 2140, "annotation": {"number": 64, "value": 127}, "group": "control_change"}, {"time": 2162, "annotation": {"number": 64, "value": 0}, "group": "control_change"}, {"time": 2164, "annotation": {"number": 64, "value": 127}, "group": "control_change"}, {"time": 2209, "annotation": {"number": 64, "value": 0}, "group": "control_change"}, {"time": 2212, "annotation": {"number": 64, "value": 127}, "group": "control_change"}, {"time": 2235, "annotation": {"number": 64, "value": 0}, "group": "control_change"}, {"time": 2237, "annotation": {"number": 64, "value": 127}, "group": "control_change"}, {"time": 2259, "annotation": {"number": 64, "value": 0}, "group": "control_change"}, {"time": 2261, "annotation": {"number": 64, "value": 127}, "group": "control_change"}, {"time": 2282, "annotation": {"number": 64, "value": 0}, "group": "control_change"}, {"time": 2284, "annotation": {"number": 64, "value": 127}, "group": "control_change"}, {"time": 2307, "annotation": {"number": 64, "value": 0}, "group": "control_change"}, {"time": 2309, "annotation": {"number": 64, "value": 127}, "group": "control_change"}, {"time": 2330, "annotation": {"number": 64, "value": 0}, "group": "control_change"}, {"time": 2332, "annotation": {"number": 64, "value": 127}, "group": "control_change"}, {"time": 2353, "annotation": {"number": 64, "value": 0}, "group": "control_change"}, {"time": 2355, "annotation": {"number": 64, "value": 127}, "group": "control_change"}, {"time": 2399, "annotation": {"number": 64, "value": 0}, "group": "control_change"}, {"time": 2426, "annotation": {"number": 64, "value": 0}, "group": "control_change"}, {"time": 2428, "annotation": {"number": 64, "value": 127}, "group": "control_change"}, {"time": 2451, "annotation": {"number": 64, "value": 0}, "group": "control_change"}, {"time": 2453, "annotation": {"number": 64, "value": 127}, "group": "control_change"}, {"time": 2473, "annotation": {"number": 64, "value": 0}, "group": "control_change"}, {"time": 2475, "annotation": {"number": 64, "value": 127}, "group": "control_change"}, {"time": 2498, "annotation": {"number": 64, "value": 0}, "group": "control_change"}, {"time": 2500, "annotation": {"number": 64, "value": 127}, "group": "control_change"}, {"time": 2522, "annotation": {"number": 64, "value": 0}, "group": "control_change"}, {"time": 2524, "annotation": {"number": 64, "value": 127}, "group": "control_change"}, {"time": 2546, "annotation": {"number": 64, "value": 0}, "group": "control_change"}, {"time": 2548, "annotation": {"number": 64, "value": 127}, "group": "control_change"}, {"time": 2593, "annotation": {"number": 64, "value": 0}, "group": "control_change"}, {"time": 2596, "annotation": {"number": 64, "value": 127}, "group": "control_change"}, {"time": 2619, "annotation": {"number": 64, "value": 0}, "group": "control_change"}, {"time": 2621, "annotation": {"number": 64, "value": 127}, "group": "control_change"}, {"time": 2643, "annotation": {"number": 64, "value": 0}, "group": "control_change"}, {"time": 2645, "annotation": {"number": 64, "value": 127}, "group": "control_change"}, {"time": 2666, "annotation": {"number": 64, "value": 0}, "group": "control_change"}, {"time": 2668, "annotation": {"number": 64, "value": 127}, "group": "control_change"}, {"time": 2691, "annotation": {"number": 64, "value": 0}, "group": "control_change"}, {"time": 2693, "annotation": {"number": 64, "value": 127}, "group": "control_change"}, {"time": 2714, "annotation": {"number": 64, "value": 0}, "group": "control_change"}, {"time": 2716, "annotation": {"number": 64, "value": 127}, "group": "control_change"}, {"time": 2737, "annotation": {"number": 64, "value": 0}, "group": "control_change"}, {"time": 2739, "annotation": {"number": 64, "value": 127}, "group": "control_change"}, {"time": 2783, "annotation": {"number": 64, "value": 0}, "group": "control_change"}, {"time": 2788, "annotation": {"number": 64, "value": 127}, "group": "control_change"}, {"time": 2788, "annotation": {"number": 64, "value": 0}, "group": "control_change"}, {"time": 2811, "annotation": {"number": 64, "value": 0}, "group": "control_change"}, {"time": 2814, "annotation": {"number": 64, "value": 127}, "group": "control_change"}, {"time": 2832, "annotation": {"number": 64, "value": 0}, "group": "control_change"}, {"time": 2835, "annotation": {"number": 64, "value": 127}, "group": "control_change"}, {"time": 2883, "annotation": {"number": 64, "value": 0}, "group": "control_change"}, {"time": 2889, "annotation": {"number": 64, "value": 127}, "group": "control_change"}, {"time": 2910, "annotation": {"number": 64, "value": 0}, "group": "control_change"}, {"time": 2910, "annotation": {"number": 64, "value": 127}, "group": "control_change"}, {"time": 2948, "annotation": {"number": 64, "value": 127}, "group": "control_change"}, {"time": 2948, "annotation": {"number": 64, "value": 0}, "group": "control_change"}, {"time": 2954, "annotation": {"number": 64, "value": 0}, "group": "control_change"}, {"time": 2956, "annotation": {"number": 64, "value": 127}, "group": "control_change"}, {"time": 3002, "annotation": {"number": 64, "value": 0}, "group": "control_change"}, {"time": 3007, "annotation": {"number": 64, "value": 127}, "group": "control_change"}, {"time": 3007, "annotation": {"number": 64, "value": 0}, "group": "control_change"}, {"time": 3028, "annotation": {"number": 64, "value": 0}, "group": "control_change"}, {"time": 3030, "annotation": {"number": 64, "value": 127}, "group": "control_change"}, {"time": 3051, "annotation": {"number": 64, "value": 0}, "group": "control_change"}, {"time": 3053, "annotation": {"number": 64, "value": 127}, "group": "control_change"}, {"time": 3099, "annotation": {"number": 64, "value": 0}, "group": "control_change"}, {"time": 3103, "annotation": {"number": 64, "value": 127}, "group": "control_change"}, {"time": 3123, "annotation": {"number": 64, "value": 0}, "group": "control_change"}, {"time": 3126, "annotation": {"number": 64, "value": 127}, "group": "control_change"}, {"time": 3146, "annotation": {"number": 64, "value": 0}, "group": "control_change"}, {"time": 3147, "annotation": {"number": 64, "value": 127}, "group": "control_change"}, {"time": 3194, "annotation": {"number": 64, "value": 0}, "group": "control_change"}, {"time": 3195, "annotation": {"number": 64, "value": 127}, "group": "control_change"}, {"time": 3245, "annotation": {"number": 64, "value": 0}, "group": "control_change"}, {"time": 3245, "annotation": {"number": 64, "value": 127}, "group": "control_change"}]}]}