{"metadata": {"schema_version": "0.2", "title": "None", "source_filename": "717.mid", "source_format": "midi"}, "resolution": 12, "tempos": [{"time": 0, "qpm": 80.0}], "key_signatures": [{"time": 0, "root": 0, "mode": "major"}], "time_signatures": [{"time": 0, "numerator": 4, "denominator": 4}, {"time": 0, "numerator": 1, "denominator": 4}], "tracks": [{"program": 4, "is_drum": false, "name": "MELODY", "notes": [{"time": 432, "pitch": 71, "duration": 6, "velocity": 87}, {"time": 438, "pitch": 76, "duration": 5, "velocity": 89}, {"time": 444, "pitch": 78, "duration": 5, "velocity": 86}, {"time": 450, "pitch": 80, "duration": 5, "velocity": 81}, {"time": 456, "pitch": 78, "duration": 5, "velocity": 83}, {"time": 462, "pitch": 76, "duration": 10, "velocity": 85}, {"time": 474, "pitch": 80, "duration": 10, "velocity": 86}, {"time": 486, "pitch": 78, "duration": 17, "velocity": 85}, {"time": 504, "pitch": 71, "duration": 5, "velocity": 86}, {"time": 510, "pitch": 71, "duration": 15, "velocity": 85}, {"time": 528, "pitch": 68, "duration": 6, "velocity": 91}, {"time": 534, "pitch": 73, "duration": 5, "velocity": 92}, {"time": 540, "pitch": 75, "duration": 5, "velocity": 88}, {"time": 546, "pitch": 76, "duration": 7, "velocity": 86}, {"time": 552, "pitch": 75, "duration": 6, "velocity": 89}, {"time": 558, "pitch": 73, "duration": 10, "velocity": 90}, {"time": 570, "pitch": 76, "duration": 11, "velocity": 87}, {"time": 582, "pitch": 75, "duration": 16, "velocity": 85}, {"time": 600, "pitch": 68, "duration": 5, "velocity": 87}, {"time": 606, "pitch": 71, "duration": 14, "velocity": 86}, {"time": 630, "pitch": 73, "duration": 5, "velocity": 88}, {"time": 636, "pitch": 71, "duration": 5, "velocity": 85}, {"time": 642, "pitch": 71, "duration": 5, "velocity": 85}, {"time": 648, "pitch": 69, "duration": 5, "velocity": 89}, {"time": 654, "pitch": 71, "duration": 5, "velocity": 87}, {"time": 660, "pitch": 76, "duration": 8, "velocity": 81}, {"time": 672, "pitch": 69, "duration": 5, "velocity": 89}, {"time": 678, "pitch": 68, "duration": 12, "velocity": 91}, {"time": 690, "pitch": 78, "duration": 5, "velocity": 92}, {"time": 696, "pitch": 76, "duration": 20, "velocity": 86}, {"time": 720, "pitch": 78, "duration": 2, "velocity": 91}, {"time": 723, "pitch": 80, "duration": 2, "velocity": 85}, {"time": 726, "pitch": 81, "duration": 5, "velocity": 89}, {"time": 732, "pitch": 80, "duration": 5, "velocity": 88}, {"time": 738, "pitch": 78, "duration": 4, "velocity": 88}, {"time": 744, "pitch": 76, "duration": 4, "velocity": 86}, {"time": 750, "pitch": 76, "duration": 9, "velocity": 86}, {"time": 762, "pitch": 73, "duration": 10, "velocity": 94}, {"time": 774, "pitch": 78, "duration": 39, "velocity": 85}, {"time": 816, "pitch": 71, "duration": 6, "velocity": 87}, {"time": 822, "pitch": 76, "duration": 5, "velocity": 89}, {"time": 828, "pitch": 78, "duration": 5, "velocity": 86}, {"time": 834, "pitch": 80, "duration": 5, "velocity": 81}, {"time": 840, "pitch": 78, "duration": 5, "velocity": 83}, {"time": 846, "pitch": 76, "duration": 10, "velocity": 85}, {"time": 858, "pitch": 80, "duration": 10, "velocity": 86}, {"time": 870, "pitch": 78, "duration": 17, "velocity": 85}, {"time": 888, "pitch": 75, "duration": 5, "velocity": 86}, {"time": 894, "pitch": 71, "duration": 15, "velocity": 85}, {"time": 912, "pitch": 68, "duration": 6, "velocity": 91}, {"time": 918, "pitch": 73, "duration": 5, "velocity": 92}, {"time": 924, "pitch": 75, "duration": 5, "velocity": 88}, {"time": 930, "pitch": 76, "duration": 7, "velocity": 86}, {"time": 936, "pitch": 75, "duration": 6, "velocity": 89}, {"time": 942, "pitch": 73, "duration": 10, "velocity": 90}, {"time": 954, "pitch": 76, "duration": 11, "velocity": 87}, {"time": 966, "pitch": 75, "duration": 16, "velocity": 85}, {"time": 984, "pitch": 68, "duration": 5, "velocity": 87}, {"time": 990, "pitch": 71, "duration": 14, "velocity": 86}, {"time": 1014, "pitch": 73, "duration": 5, "velocity": 88}, {"time": 1020, "pitch": 71, "duration": 5, "velocity": 85}, {"time": 1026, "pitch": 71, "duration": 5, "velocity": 85}, {"time": 1032, "pitch": 69, "duration": 5, "velocity": 89}, {"time": 1038, "pitch": 71, "duration": 5, "velocity": 87}, {"time": 1044, "pitch": 76, "duration": 12, "velocity": 81}, {"time": 1062, "pitch": 78, "duration": 12, "velocity": 91}, {"time": 1080, "pitch": 80, "duration": 5, "velocity": 92}, {"time": 1086, "pitch": 76, "duration": 12, "velocity": 86}, {"time": 1098, "pitch": 73, "duration": 5, "velocity": 85}, {"time": 1104, "pitch": 75, "duration": 4, "velocity": 89}, {"time": 1110, "pitch": 76, "duration": 6, "velocity": 89}, {"time": 1116, "pitch": 73, "duration": 3, "velocity": 88}, {"time": 1122, "pitch": 73, "duration": 9, "velocity": 92}, {"time": 1134, "pitch": 76, "duration": 8, "velocity": 89}, {"time": 1143, "pitch": 85, "duration": 8, "velocity": 89}, {"time": 1152, "pitch": 83, "duration": 11, "velocity": 92}, {"time": 1164, "pitch": 83, "duration": 40, "velocity": 90}, {"time": 1242, "pitch": 78, "duration": 6, "velocity": 89}, {"time": 1248, "pitch": 76, "duration": 6, "velocity": 92}, {"time": 1254, "pitch": 83, "duration": 8, "velocity": 89}, {"time": 1263, "pitch": 80, "duration": 8, "velocity": 88}, {"time": 1272, "pitch": 80, "duration": 5, "velocity": 86}, {"time": 1278, "pitch": 78, "duration": 5, "velocity": 86}, {"time": 1284, "pitch": 76, "duration": 6, "velocity": 89}, {"time": 1290, "pitch": 75, "duration": 5, "velocity": 94}, {"time": 1296, "pitch": 76, "duration": 2, "velocity": 87}, {"time": 1299, "pitch": 75, "duration": 2, "velocity": 89}, {"time": 1302, "pitch": 73, "duration": 8, "velocity": 96}, {"time": 1314, "pitch": 68, "duration": 6, "velocity": 86}, {"time": 1320, "pitch": 73, "duration": 16, "velocity": 84}, {"time": 1338, "pitch": 76, "duration": 6, "velocity": 96}, {"time": 1344, "pitch": 78, "duration": 4, "velocity": 87}, {"time": 1347, "pitch": 76, "duration": 3, "velocity": 88}, {"time": 1350, "pitch": 85, "duration": 8, "velocity": 80}, {"time": 1359, "pitch": 81, "duration": 2, "velocity": 87}, {"time": 1362, "pitch": 81, "duration": 5, "velocity": 83}, {"time": 1368, "pitch": 80, "duration": 4, "velocity": 88}, {"time": 1374, "pitch": 81, "duration": 5, "velocity": 87}, {"time": 1380, "pitch": 73, "duration": 5, "velocity": 88}, {"time": 1386, "pitch": 75, "duration": 5, "velocity": 96}, {"time": 1392, "pitch": 76, "duration": 5, "velocity": 87}, {"time": 1398, "pitch": 78, "duration": 30, "velocity": 89}, {"time": 1440, "pitch": 80, "duration": 3, "velocity": 91}, {"time": 1443, "pitch": 81, "duration": 3, "velocity": 86}, {"time": 1446, "pitch": 83, "duration": 5, "velocity": 92}, {"time": 1452, "pitch": 83, "duration": 4, "velocity": 90}, {"time": 1458, "pitch": 83, "duration": 4, "velocity": 94}, {"time": 1464, "pitch": 85, "duration": 6, "velocity": 87}, {"time": 1470, "pitch": 76, "duration": 16, "velocity": 87}, {"time": 1500, "pitch": 83, "duration": 6, "velocity": 86}, {"time": 1506, "pitch": 75, "duration": 7, "velocity": 90}, {"time": 1512, "pitch": 78, "duration": 7, "velocity": 86}, {"time": 1518, "pitch": 76, "duration": 13, "velocity": 85}, {"time": 1536, "pitch": 78, "duration": 2, "velocity": 89}, {"time": 1539, "pitch": 80, "duration": 3, "velocity": 88}, {"time": 1542, "pitch": 73, "duration": 11, "velocity": 96}, {"time": 1554, "pitch": 76, "duration": 11, "velocity": 88}, {"time": 1566, "pitch": 81, "duration": 6, "velocity": 92}, {"time": 1572, "pitch": 80, "duration": 3, "velocity": 86}, {"time": 1575, "pitch": 81, "duration": 7, "velocity": 94}, {"time": 1584, "pitch": 83, "duration": 6, "velocity": 96}, {"time": 1590, "pitch": 80, "duration": 7, "velocity": 89}, {"time": 1596, "pitch": 78, "duration": 20, "velocity": 97}, {"time": 1626, "pitch": 78, "duration": 6, "velocity": 89}, {"time": 1632, "pitch": 76, "duration": 6, "velocity": 92}, {"time": 1638, "pitch": 83, "duration": 8, "velocity": 89}, {"time": 1647, "pitch": 80, "duration": 8, "velocity": 88}, {"time": 1656, "pitch": 80, "duration": 5, "velocity": 86}, {"time": 1662, "pitch": 78, "duration": 5, "velocity": 86}, {"time": 1668, "pitch": 76, "duration": 6, "velocity": 89}, {"time": 1674, "pitch": 75, "duration": 5, "velocity": 94}, {"time": 1680, "pitch": 76, "duration": 2, "velocity": 87}, {"time": 1683, "pitch": 75, "duration": 2, "velocity": 89}, {"time": 1686, "pitch": 73, "duration": 8, "velocity": 96}, {"time": 1698, "pitch": 68, "duration": 6, "velocity": 86}, {"time": 1704, "pitch": 73, "duration": 16, "velocity": 84}, {"time": 1722, "pitch": 76, "duration": 6, "velocity": 96}, {"time": 1728, "pitch": 78, "duration": 4, "velocity": 87}, {"time": 1731, "pitch": 76, "duration": 3, "velocity": 88}, {"time": 1734, "pitch": 85, "duration": 8, "velocity": 80}, {"time": 1743, "pitch": 81, "duration": 2, "velocity": 87}, {"time": 1746, "pitch": 81, "duration": 5, "velocity": 83}, {"time": 1752, "pitch": 80, "duration": 4, "velocity": 88}, {"time": 1758, "pitch": 81, "duration": 5, "velocity": 87}, {"time": 1764, "pitch": 73, "duration": 5, "velocity": 88}, {"time": 1770, "pitch": 75, "duration": 5, "velocity": 96}, {"time": 1776, "pitch": 76, "duration": 5, "velocity": 87}, {"time": 1782, "pitch": 78, "duration": 30, "velocity": 89}, {"time": 1824, "pitch": 80, "duration": 3, "velocity": 91}, {"time": 1827, "pitch": 81, "duration": 3, "velocity": 86}, {"time": 1830, "pitch": 83, "duration": 5, "velocity": 92}, {"time": 1836, "pitch": 83, "duration": 4, "velocity": 90}, {"time": 1842, "pitch": 83, "duration": 4, "velocity": 94}, {"time": 1848, "pitch": 85, "duration": 6, "velocity": 87}, {"time": 1854, "pitch": 76, "duration": 16, "velocity": 87}, {"time": 1890, "pitch": 83, "duration": 6, "velocity": 86}, {"time": 1896, "pitch": 75, "duration": 3, "velocity": 90}, {"time": 1899, "pitch": 78, "duration": 3, "velocity": 86}, {"time": 1902, "pitch": 76, "duration": 13, "velocity": 85}, {"time": 1920, "pitch": 78, "duration": 2, "velocity": 89}, {"time": 1923, "pitch": 80, "duration": 3, "velocity": 88}, {"time": 1926, "pitch": 81, "duration": 11, "velocity": 96}, {"time": 1938, "pitch": 73, "duration": 11, "velocity": 88}, {"time": 1950, "pitch": 81, "duration": 6, "velocity": 92}, {"time": 1956, "pitch": 80, "duration": 6, "velocity": 86}, {"time": 1962, "pitch": 76, "duration": 7, "velocity": 94}, {"time": 1968, "pitch": 78, "duration": 6, "velocity": 96}, {"time": 1974, "pitch": 76, "duration": 36, "velocity": 89}, {"time": 2304, "pitch": 71, "duration": 6, "velocity": 87}, {"time": 2310, "pitch": 76, "duration": 5, "velocity": 89}, {"time": 2316, "pitch": 78, "duration": 5, "velocity": 86}, {"time": 2322, "pitch": 80, "duration": 5, "velocity": 81}, {"time": 2328, "pitch": 78, "duration": 5, "velocity": 83}, {"time": 2334, "pitch": 76, "duration": 10, "velocity": 85}, {"time": 2346, "pitch": 80, "duration": 10, "velocity": 86}, {"time": 2358, "pitch": 78, "duration": 17, "velocity": 85}, {"time": 2376, "pitch": 75, "duration": 5, "velocity": 86}, {"time": 2382, "pitch": 71, "duration": 15, "velocity": 85}, {"time": 2400, "pitch": 68, "duration": 6, "velocity": 91}, {"time": 2406, "pitch": 73, "duration": 5, "velocity": 92}, {"time": 2412, "pitch": 75, "duration": 5, "velocity": 88}, {"time": 2418, "pitch": 76, "duration": 7, "velocity": 86}, {"time": 2424, "pitch": 75, "duration": 6, "velocity": 89}, {"time": 2430, "pitch": 73, "duration": 10, "velocity": 90}, {"time": 2442, "pitch": 76, "duration": 11, "velocity": 87}, {"time": 2454, "pitch": 75, "duration": 16, "velocity": 85}, {"time": 2472, "pitch": 68, "duration": 5, "velocity": 87}, {"time": 2478, "pitch": 71, "duration": 14, "velocity": 86}, {"time": 2502, "pitch": 73, "duration": 5, "velocity": 88}, {"time": 2508, "pitch": 71, "duration": 5, "velocity": 85}, {"time": 2514, "pitch": 71, "duration": 5, "velocity": 85}, {"time": 2520, "pitch": 69, "duration": 5, "velocity": 89}, {"time": 2526, "pitch": 71, "duration": 5, "velocity": 87}, {"time": 2532, "pitch": 76, "duration": 12, "velocity": 81}, {"time": 2550, "pitch": 78, "duration": 12, "velocity": 91}, {"time": 2568, "pitch": 83, "duration": 5, "velocity": 92}, {"time": 2574, "pitch": 80, "duration": 4, "velocity": 97}, {"time": 2577, "pitch": 78, "duration": 5, "velocity": 97}, {"time": 2580, "pitch": 76, "duration": 6, "velocity": 86}, {"time": 2586, "pitch": 73, "duration": 5, "velocity": 85}, {"time": 2592, "pitch": 75, "duration": 4, "velocity": 89}, {"time": 2598, "pitch": 76, "duration": 6, "velocity": 89}, {"time": 2604, "pitch": 73, "duration": 3, "velocity": 88}, {"time": 2610, "pitch": 73, "duration": 9, "velocity": 92}, {"time": 2622, "pitch": 76, "duration": 8, "velocity": 89}, {"time": 2631, "pitch": 85, "duration": 8, "velocity": 89}, {"time": 2640, "pitch": 83, "duration": 11, "velocity": 92}, {"time": 2652, "pitch": 83, "duration": 40, "velocity": 90}, {"time": 2730, "pitch": 78, "duration": 6, "velocity": 89}, {"time": 2736, "pitch": 76, "duration": 6, "velocity": 92}, {"time": 2742, "pitch": 83, "duration": 8, "velocity": 89}, {"time": 2751, "pitch": 80, "duration": 8, "velocity": 88}, {"time": 2760, "pitch": 80, "duration": 5, "velocity": 86}, {"time": 2766, "pitch": 78, "duration": 5, "velocity": 86}, {"time": 2772, "pitch": 76, "duration": 6, "velocity": 89}, {"time": 2778, "pitch": 75, "duration": 5, "velocity": 94}, {"time": 2784, "pitch": 76, "duration": 2, "velocity": 87}, {"time": 2787, "pitch": 75, "duration": 2, "velocity": 89}, {"time": 2790, "pitch": 73, "duration": 8, "velocity": 96}, {"time": 2802, "pitch": 68, "duration": 6, "velocity": 86}, {"time": 2808, "pitch": 73, "duration": 16, "velocity": 84}, {"time": 2826, "pitch": 76, "duration": 6, "velocity": 96}, {"time": 2832, "pitch": 78, "duration": 4, "velocity": 87}, {"time": 2835, "pitch": 76, "duration": 3, "velocity": 88}, {"time": 2838, "pitch": 85, "duration": 8, "velocity": 80}, {"time": 2847, "pitch": 81, "duration": 2, "velocity": 87}, {"time": 2850, "pitch": 81, "duration": 5, "velocity": 83}, {"time": 2856, "pitch": 80, "duration": 4, "velocity": 88}, {"time": 2862, "pitch": 81, "duration": 5, "velocity": 87}, {"time": 2868, "pitch": 73, "duration": 5, "velocity": 88}, {"time": 2874, "pitch": 75, "duration": 5, "velocity": 96}, {"time": 2880, "pitch": 76, "duration": 5, "velocity": 87}, {"time": 2886, "pitch": 78, "duration": 30, "velocity": 89}, {"time": 2928, "pitch": 80, "duration": 3, "velocity": 91}, {"time": 2931, "pitch": 81, "duration": 3, "velocity": 86}, {"time": 2934, "pitch": 83, "duration": 5, "velocity": 92}, {"time": 2940, "pitch": 83, "duration": 4, "velocity": 90}, {"time": 2946, "pitch": 83, "duration": 4, "velocity": 94}, {"time": 2952, "pitch": 85, "duration": 6, "velocity": 87}, {"time": 2958, "pitch": 76, "duration": 16, "velocity": 87}, {"time": 2988, "pitch": 83, "duration": 6, "velocity": 86}, {"time": 2994, "pitch": 75, "duration": 7, "velocity": 90}, {"time": 3000, "pitch": 78, "duration": 7, "velocity": 86}, {"time": 3006, "pitch": 76, "duration": 13, "velocity": 85}, {"time": 3024, "pitch": 78, "duration": 2, "velocity": 89}, {"time": 3027, "pitch": 80, "duration": 3, "velocity": 88}, {"time": 3030, "pitch": 73, "duration": 11, "velocity": 96}, {"time": 3042, "pitch": 76, "duration": 11, "velocity": 88}, {"time": 3054, "pitch": 81, "duration": 6, "velocity": 92}, {"time": 3060, "pitch": 80, "duration": 3, "velocity": 86}, {"time": 3063, "pitch": 81, "duration": 7, "velocity": 94}, {"time": 3072, "pitch": 83, "duration": 6, "velocity": 96}, {"time": 3078, "pitch": 80, "duration": 6, "velocity": 89}, {"time": 3084, "pitch": 78, "duration": 26, "velocity": 87}, {"time": 3114, "pitch": 78, "duration": 6, "velocity": 89}, {"time": 3120, "pitch": 76, "duration": 6, "velocity": 92}, {"time": 3126, "pitch": 83, "duration": 8, "velocity": 89}, {"time": 3135, "pitch": 80, "duration": 8, "velocity": 88}, {"time": 3144, "pitch": 80, "duration": 5, "velocity": 86}, {"time": 3150, "pitch": 78, "duration": 5, "velocity": 86}, {"time": 3156, "pitch": 76, "duration": 6, "velocity": 89}, {"time": 3162, "pitch": 75, "duration": 5, "velocity": 94}, {"time": 3168, "pitch": 76, "duration": 2, "velocity": 87}, {"time": 3171, "pitch": 75, "duration": 2, "velocity": 89}, {"time": 3174, "pitch": 73, "duration": 8, "velocity": 96}, {"time": 3186, "pitch": 68, "duration": 6, "velocity": 86}, {"time": 3192, "pitch": 73, "duration": 16, "velocity": 84}, {"time": 3210, "pitch": 76, "duration": 6, "velocity": 96}, {"time": 3216, "pitch": 78, "duration": 4, "velocity": 87}, {"time": 3219, "pitch": 76, "duration": 3, "velocity": 88}, {"time": 3222, "pitch": 85, "duration": 8, "velocity": 80}, {"time": 3231, "pitch": 81, "duration": 2, "velocity": 87}, {"time": 3234, "pitch": 81, "duration": 5, "velocity": 83}, {"time": 3240, "pitch": 80, "duration": 4, "velocity": 88}, {"time": 3246, "pitch": 81, "duration": 5, "velocity": 87}, {"time": 3252, "pitch": 73, "duration": 5, "velocity": 88}, {"time": 3258, "pitch": 75, "duration": 5, "velocity": 96}, {"time": 3264, "pitch": 76, "duration": 5, "velocity": 87}, {"time": 3270, "pitch": 78, "duration": 30, "velocity": 89}, {"time": 3312, "pitch": 80, "duration": 3, "velocity": 91}, {"time": 3315, "pitch": 81, "duration": 3, "velocity": 86}, {"time": 3318, "pitch": 83, "duration": 5, "velocity": 92}, {"time": 3324, "pitch": 83, "duration": 4, "velocity": 90}, {"time": 3330, "pitch": 83, "duration": 4, "velocity": 94}, {"time": 3336, "pitch": 85, "duration": 6, "velocity": 87}, {"time": 3342, "pitch": 78, "duration": 6, "velocity": 97}, {"time": 3348, "pitch": 76, "duration": 10, "velocity": 87}, {"time": 3379, "pitch": 83, "duration": 5, "velocity": 86}, {"time": 3385, "pitch": 75, "duration": 3, "velocity": 90}, {"time": 3387, "pitch": 78, "duration": 4, "velocity": 86}, {"time": 3390, "pitch": 76, "duration": 13, "velocity": 85}, {"time": 3408, "pitch": 78, "duration": 2, "velocity": 89}, {"time": 3411, "pitch": 80, "duration": 3, "velocity": 88}, {"time": 3414, "pitch": 81, "duration": 11, "velocity": 96}, {"time": 3426, "pitch": 73, "duration": 11, "velocity": 88}, {"time": 3438, "pitch": 81, "duration": 6, "velocity": 92}, {"time": 3444, "pitch": 80, "duration": 6, "velocity": 86}, {"time": 3450, "pitch": 76, "duration": 7, "velocity": 94}, {"time": 3456, "pitch": 78, "duration": 6, "velocity": 96}, {"time": 3462, "pitch": 76, "duration": 36, "velocity": 89}, {"time": 3504, "pitch": 80, "duration": 3, "velocity": 91}, {"time": 3507, "pitch": 81, "duration": 3, "velocity": 86}, {"time": 3510, "pitch": 83, "duration": 5, "velocity": 92}, {"time": 3516, "pitch": 83, "duration": 4, "velocity": 90}, {"time": 3522, "pitch": 83, "duration": 4, "velocity": 94}, {"time": 3528, "pitch": 85, "duration": 6, "velocity": 87}, {"time": 3534, "pitch": 76, "duration": 16, "velocity": 87}, {"time": 3564, "pitch": 83, "duration": 6, "velocity": 86}, {"time": 3570, "pitch": 75, "duration": 7, "velocity": 90}, {"time": 3576, "pitch": 78, "duration": 7, "velocity": 86}, {"time": 3582, "pitch": 76, "duration": 13, "velocity": 85}, {"time": 3600, "pitch": 78, "duration": 2, "velocity": 89}, {"time": 3603, "pitch": 80, "duration": 3, "velocity": 88}, {"time": 3606, "pitch": 80, "duration": 11, "velocity": 96}, {"time": 3618, "pitch": 73, "duration": 11, "velocity": 88}, {"time": 3630, "pitch": 81, "duration": 6, "velocity": 92}, {"time": 3636, "pitch": 80, "duration": 6, "velocity": 86}, {"time": 3642, "pitch": 76, "duration": 7, "velocity": 94}, {"time": 3648, "pitch": 78, "duration": 6, "velocity": 96}, {"time": 3654, "pitch": 76, "duration": 36, "velocity": 89}]}, {"program": 0, "is_drum": false, "name": "PIANO", "notes": [{"time": 5, "pitch": 52, "duration": 9, "velocity": 74}, {"time": 6, "pitch": 45, "duration": 33, "velocity": 87}, {"time": 6, "pitch": 57, "duration": 14, "velocity": 74}, {"time": 19, "pitch": 52, "duration": 3, "velocity": 62}, {"time": 24, "pitch": 57, "duration": 15, "velocity": 75}, {"time": 24, "pitch": 52, "duration": 14, "velocity": 75}, {"time": 24, "pitch": 61, "duration": 16, "velocity": 82}, {"time": 53, "pitch": 54, "duration": 7, "velocity": 66}, {"time": 54, "pitch": 59, "duration": 7, "velocity": 73}, {"time": 54, "pitch": 44, "duration": 38, "velocity": 85}, {"time": 54, "pitch": 63, "duration": 7, "velocity": 84}, {"time": 75, "pitch": 56, "duration": 2, "velocity": 60}, {"time": 76, "pitch": 59, "duration": 2, "velocity": 75}, {"time": 77, "pitch": 63, "duration": 2, "velocity": 66}, {"time": 78, "pitch": 68, "duration": 2, "velocity": 73}, {"time": 100, "pitch": 52, "duration": 9, "velocity": 71}, {"time": 102, "pitch": 57, "duration": 11, "velocity": 79}, {"time": 102, "pitch": 45, "duration": 29, "velocity": 77}, {"time": 103, "pitch": 64, "duration": 8, "velocity": 73}, {"time": 113, "pitch": 52, "duration": 2, "velocity": 69}, {"time": 119, "pitch": 61, "duration": 4, "velocity": 82}, {"time": 120, "pitch": 52, "duration": 2, "velocity": 71}, {"time": 148, "pitch": 56, "duration": 2, "velocity": 58}, {"time": 148, "pitch": 59, "duration": 6, "velocity": 76}, {"time": 149, "pitch": 68, "duration": 7, "velocity": 79}, {"time": 150, "pitch": 63, "duration": 3, "velocity": 50}, {"time": 150, "pitch": 44, "duration": 24, "velocity": 85}, {"time": 155, "pitch": 51, "duration": 19, "velocity": 73}, {"time": 162, "pitch": 56, "duration": 2, "velocity": 85}, {"time": 168, "pitch": 56, "duration": 2, "velocity": 83}, {"time": 168, "pitch": 59, "duration": 3, "velocity": 87}, {"time": 179, "pitch": 59, "duration": 2, "velocity": 80}, {"time": 180, "pitch": 63, "duration": 2, "velocity": 85}, {"time": 180, "pitch": 56, "duration": 1, "velocity": 68}, {"time": 196, "pitch": 50, "duration": 9, "velocity": 78}, {"time": 198, "pitch": 54, "duration": 13, "velocity": 83}, {"time": 198, "pitch": 38, "duration": 35, "velocity": 87}, {"time": 198, "pitch": 57, "duration": 13, "velocity": 77}, {"time": 198, "pitch": 62, "duration": 12, "velocity": 64}, {"time": 204, "pitch": 45, "duration": 29, "velocity": 72}, {"time": 210, "pitch": 50, "duration": 26, "velocity": 94}, {"time": 215, "pitch": 62, "duration": 22, "velocity": 80}, {"time": 215, "pitch": 57, "duration": 22, "velocity": 74}, {"time": 216, "pitch": 54, "duration": 20, "velocity": 74}, {"time": 243, "pitch": 49, "duration": 11, "velocity": 78}, {"time": 244, "pitch": 52, "duration": 16, "velocity": 76}, {"time": 245, "pitch": 56, "duration": 15, "velocity": 72}, {"time": 245, "pitch": 37, "duration": 43, "velocity": 87}, {"time": 246, "pitch": 61, "duration": 14, "velocity": 82}, {"time": 252, "pitch": 44, "duration": 36, "velocity": 74}, {"time": 258, "pitch": 49, "duration": 13, "velocity": 86}, {"time": 264, "pitch": 61, "duration": 29, "velocity": 89}, {"time": 270, "pitch": 56, "duration": 13, "velocity": 77}, {"time": 275, "pitch": 49, "duration": 8, "velocity": 85}, {"time": 292, "pitch": 54, "duration": 9, "velocity": 73}, {"time": 293, "pitch": 57, "duration": 13, "velocity": 74}, {"time": 294, "pitch": 42, "duration": 38, "velocity": 87}, {"time": 295, "pitch": 61, "duration": 10, "velocity": 86}, {"time": 300, "pitch": 49, "duration": 31, "velocity": 83}, {"time": 306, "pitch": 54, "duration": 12, "velocity": 86}, {"time": 311, "pitch": 61, "duration": 11, "velocity": 83}, {"time": 318, "pitch": 66, "duration": 12, "velocity": 84}, {"time": 324, "pitch": 54, "duration": 6, "velocity": 75}, {"time": 329, "pitch": 57, "duration": 3, "velocity": 72}, {"time": 330, "pitch": 61, "duration": 4, "velocity": 77}, {"time": 340, "pitch": 54, "duration": 6, "velocity": 67}, {"time": 341, "pitch": 59, "duration": 13, "velocity": 79}, {"time": 342, "pitch": 35, "duration": 4, "velocity": 86}, {"time": 342, "pitch": 63, "duration": 13, "velocity": 84}, {"time": 353, "pitch": 47, "duration": 23, "velocity": 78}, {"time": 360, "pitch": 61, "duration": 9, "velocity": 85}, {"time": 365, "pitch": 54, "duration": 9, "velocity": 73}, {"time": 371, "pitch": 63, "duration": 3, "velocity": 85}, {"time": 372, "pitch": 59, "duration": 2, "velocity": 80}, {"time": 387, "pitch": 71, "duration": 11, "velocity": 76}, {"time": 388, "pitch": 66, "duration": 14, "velocity": 75}, {"time": 389, "pitch": 63, "duration": 13, "velocity": 78}, {"time": 390, "pitch": 59, "duration": 8, "velocity": 77}, {"time": 390, "pitch": 35, "duration": 24, "velocity": 85}, {"time": 396, "pitch": 42, "duration": 16, "velocity": 67}, {"time": 402, "pitch": 59, "duration": 4, "velocity": 72}, {"time": 408, "pitch": 66, "duration": 3, "velocity": 72}, {"time": 408, "pitch": 63, "duration": 3, "velocity": 80}, {"time": 408, "pitch": 59, "duration": 3, "velocity": 76}, {"time": 438, "pitch": 40, "duration": 44, "velocity": 87}, {"time": 444, "pitch": 47, "duration": 39, "velocity": 71}, {"time": 450, "pitch": 54, "duration": 8, "velocity": 80}, {"time": 456, "pitch": 56, "duration": 9, "velocity": 83}, {"time": 468, "pitch": 52, "duration": 6, "velocity": 73}, {"time": 468, "pitch": 56, "duration": 5, "velocity": 75}, {"time": 468, "pitch": 59, "duration": 6, "velocity": 81}, {"time": 486, "pitch": 47, "duration": 35, "velocity": 74}, {"time": 492, "pitch": 54, "duration": 13, "velocity": 74}, {"time": 498, "pitch": 61, "duration": 7, "velocity": 78}, {"time": 504, "pitch": 63, "duration": 13, "velocity": 87}, {"time": 516, "pitch": 59, "duration": 5, "velocity": 81}, {"time": 534, "pitch": 37, "duration": 35, "velocity": 85}, {"time": 534, "pitch": 64, "duration": 14, "velocity": 65}, {"time": 540, "pitch": 44, "duration": 28, "velocity": 73}, {"time": 546, "pitch": 56, "duration": 8, "velocity": 89}, {"time": 552, "pitch": 61, "duration": 10, "velocity": 76}, {"time": 564, "pitch": 63, "duration": 7, "velocity": 85}, {"time": 570, "pitch": 64, "duration": 5, "velocity": 94}, {"time": 582, "pitch": 44, "duration": 40, "velocity": 86}, {"time": 582, "pitch": 63, "duration": 17, "velocity": 83}, {"time": 588, "pitch": 51, "duration": 27, "velocity": 81}, {"time": 594, "pitch": 54, "duration": 8, "velocity": 81}, {"time": 600, "pitch": 59, "duration": 5, "velocity": 86}, {"time": 612, "pitch": 56, "duration": 8, "velocity": 80}, {"time": 612, "pitch": 63, "duration": 9, "velocity": 85}, {"time": 618, "pitch": 51, "duration": 3, "velocity": 67}, {"time": 630, "pitch": 45, "duration": 39, "velocity": 89}, {"time": 630, "pitch": 57, "duration": 9, "velocity": 73}, {"time": 630, "pitch": 61, "duration": 13, "velocity": 80}, {"time": 636, "pitch": 52, "duration": 36, "velocity": 64}, {"time": 642, "pitch": 57, "duration": 30, "velocity": 82}, {"time": 648, "pitch": 61, "duration": 26, "velocity": 78}, {"time": 672, "pitch": 45, "duration": 5, "velocity": 81}, {"time": 678, "pitch": 44, "duration": 22, "velocity": 86}, {"time": 678, "pitch": 56, "duration": 8, "velocity": 77}, {"time": 678, "pitch": 59, "duration": 13, "velocity": 80}, {"time": 684, "pitch": 51, "duration": 16, "velocity": 78}, {"time": 690, "pitch": 56, "duration": 8, "velocity": 79}, {"time": 696, "pitch": 59, "duration": 5, "velocity": 84}, {"time": 702, "pitch": 49, "duration": 14, "velocity": 83}, {"time": 702, "pitch": 64, "duration": 13, "velocity": 85}, {"time": 708, "pitch": 56, "duration": 7, "velocity": 81}, {"time": 714, "pitch": 63, "duration": 11, "velocity": 82}, {"time": 726, "pitch": 38, "duration": 13, "velocity": 85}, {"time": 726, "pitch": 54, "duration": 12, "velocity": 84}, {"time": 726, "pitch": 57, "duration": 14, "velocity": 75}, {"time": 726, "pitch": 62, "duration": 13, "velocity": 75}, {"time": 732, "pitch": 45, "duration": 8, "velocity": 75}, {"time": 738, "pitch": 50, "duration": 6, "velocity": 92}, {"time": 744, "pitch": 62, "duration": 2, "velocity": 88}, {"time": 750, "pitch": 37, "duration": 14, "velocity": 87}, {"time": 750, "pitch": 56, "duration": 8, "velocity": 79}, {"time": 750, "pitch": 61, "duration": 13, "velocity": 80}, {"time": 756, "pitch": 44, "duration": 8, "velocity": 73}, {"time": 762, "pitch": 56, "duration": 2, "velocity": 88}, {"time": 774, "pitch": 35, "duration": 3, "velocity": 82}, {"time": 774, "pitch": 54, "duration": 8, "velocity": 77}, {"time": 774, "pitch": 59, "duration": 10, "velocity": 79}, {"time": 780, "pitch": 47, "duration": 43, "velocity": 79}, {"time": 786, "pitch": 54, "duration": 15, "velocity": 81}, {"time": 792, "pitch": 61, "duration": 5, "velocity": 80}, {"time": 798, "pitch": 59, "duration": 9, "velocity": 84}, {"time": 798, "pitch": 63, "duration": 9, "velocity": 87}, {"time": 804, "pitch": 54, "duration": 19, "velocity": 73}, {"time": 810, "pitch": 63, "duration": 13, "velocity": 82}, {"time": 810, "pitch": 66, "duration": 13, "velocity": 83}, {"time": 816, "pitch": 59, "duration": 6, "velocity": 79}, {"time": 822, "pitch": 40, "duration": 44, "velocity": 87}, {"time": 828, "pitch": 47, "duration": 39, "velocity": 71}, {"time": 834, "pitch": 54, "duration": 8, "velocity": 80}, {"time": 840, "pitch": 56, "duration": 9, "velocity": 83}, {"time": 852, "pitch": 52, "duration": 6, "velocity": 73}, {"time": 852, "pitch": 56, "duration": 5, "velocity": 75}, {"time": 852, "pitch": 59, "duration": 6, "velocity": 81}, {"time": 870, "pitch": 40, "duration": 48, "velocity": 86}, {"time": 870, "pitch": 63, "duration": 30, "velocity": 86}, {"time": 876, "pitch": 47, "duration": 42, "velocity": 72}, {"time": 882, "pitch": 52, "duration": 18, "velocity": 82}, {"time": 888, "pitch": 59, "duration": 13, "velocity": 81}, {"time": 900, "pitch": 56, "duration": 4, "velocity": 69}, {"time": 906, "pitch": 52, "duration": 2, "velocity": 77}, {"time": 906, "pitch": 56, "duration": 13, "velocity": 79}, {"time": 906, "pitch": 59, "duration": 13, "velocity": 80}, {"time": 912, "pitch": 52, "duration": 6, "velocity": 85}, {"time": 918, "pitch": 37, "duration": 35, "velocity": 85}, {"time": 918, "pitch": 64, "duration": 14, "velocity": 65}, {"time": 924, "pitch": 44, "duration": 28, "velocity": 73}, {"time": 930, "pitch": 56, "duration": 8, "velocity": 89}, {"time": 936, "pitch": 61, "duration": 10, "velocity": 76}, {"time": 948, "pitch": 63, "duration": 7, "velocity": 85}, {"time": 954, "pitch": 64, "duration": 5, "velocity": 94}, {"time": 966, "pitch": 44, "duration": 40, "velocity": 86}, {"time": 966, "pitch": 63, "duration": 17, "velocity": 83}, {"time": 972, "pitch": 51, "duration": 27, "velocity": 81}, {"time": 978, "pitch": 54, "duration": 8, "velocity": 81}, {"time": 984, "pitch": 59, "duration": 5, "velocity": 86}, {"time": 996, "pitch": 56, "duration": 8, "velocity": 80}, {"time": 996, "pitch": 63, "duration": 9, "velocity": 85}, {"time": 1002, "pitch": 51, "duration": 3, "velocity": 67}, {"time": 1014, "pitch": 45, "duration": 39, "velocity": 89}, {"time": 1014, "pitch": 57, "duration": 9, "velocity": 73}, {"time": 1014, "pitch": 61, "duration": 13, "velocity": 80}, {"time": 1020, "pitch": 52, "duration": 36, "velocity": 64}, {"time": 1026, "pitch": 57, "duration": 30, "velocity": 82}, {"time": 1032, "pitch": 61, "duration": 26, "velocity": 78}, {"time": 1056, "pitch": 45, "duration": 5, "velocity": 81}, {"time": 1062, "pitch": 44, "duration": 22, "velocity": 86}, {"time": 1062, "pitch": 56, "duration": 8, "velocity": 77}, {"time": 1062, "pitch": 59, "duration": 13, "velocity": 80}, {"time": 1068, "pitch": 51, "duration": 16, "velocity": 78}, {"time": 1074, "pitch": 56, "duration": 8, "velocity": 79}, {"time": 1080, "pitch": 59, "duration": 5, "velocity": 84}, {"time": 1086, "pitch": 49, "duration": 14, "velocity": 83}, {"time": 1086, "pitch": 64, "duration": 13, "velocity": 85}, {"time": 1092, "pitch": 56, "duration": 7, "velocity": 81}, {"time": 1098, "pitch": 63, "duration": 11, "velocity": 82}, {"time": 1110, "pitch": 38, "duration": 13, "velocity": 85}, {"time": 1110, "pitch": 54, "duration": 12, "velocity": 84}, {"time": 1110, "pitch": 57, "duration": 14, "velocity": 75}, {"time": 1110, "pitch": 62, "duration": 13, "velocity": 75}, {"time": 1116, "pitch": 45, "duration": 8, "velocity": 75}, {"time": 1122, "pitch": 50, "duration": 6, "velocity": 92}, {"time": 1128, "pitch": 62, "duration": 2, "velocity": 88}, {"time": 1134, "pitch": 37, "duration": 14, "velocity": 87}, {"time": 1134, "pitch": 56, "duration": 8, "velocity": 79}, {"time": 1134, "pitch": 61, "duration": 13, "velocity": 80}, {"time": 1140, "pitch": 44, "duration": 8, "velocity": 73}, {"time": 1146, "pitch": 56, "duration": 2, "velocity": 88}, {"time": 1158, "pitch": 35, "duration": 3, "velocity": 82}, {"time": 1158, "pitch": 54, "duration": 8, "velocity": 77}, {"time": 1158, "pitch": 59, "duration": 10, "velocity": 79}, {"time": 1164, "pitch": 47, "duration": 43, "velocity": 79}, {"time": 1170, "pitch": 54, "duration": 15, "velocity": 81}, {"time": 1176, "pitch": 61, "duration": 5, "velocity": 80}, {"time": 1182, "pitch": 59, "duration": 9, "velocity": 84}, {"time": 1182, "pitch": 63, "duration": 9, "velocity": 87}, {"time": 1188, "pitch": 54, "duration": 19, "velocity": 73}, {"time": 1194, "pitch": 63, "duration": 13, "velocity": 82}, {"time": 1194, "pitch": 66, "duration": 13, "velocity": 83}, {"time": 1200, "pitch": 59, "duration": 6, "velocity": 79}, {"time": 1206, "pitch": 35, "duration": 2, "velocity": 83}, {"time": 1206, "pitch": 54, "duration": 1, "velocity": 78}, {"time": 1206, "pitch": 63, "duration": 1, "velocity": 85}, {"time": 1212, "pitch": 47, "duration": 37, "velocity": 86}, {"time": 1218, "pitch": 54, "duration": 27, "velocity": 87}, {"time": 1224, "pitch": 59, "duration": 15, "velocity": 91}, {"time": 1230, "pitch": 66, "duration": 9, "velocity": 85}, {"time": 1236, "pitch": 63, "duration": 3, "velocity": 79}, {"time": 1242, "pitch": 59, "duration": 4, "velocity": 81}, {"time": 1242, "pitch": 63, "duration": 14, "velocity": 90}, {"time": 1242, "pitch": 66, "duration": 14, "velocity": 83}, {"time": 1242, "pitch": 71, "duration": 14, "velocity": 84}, {"time": 1248, "pitch": 59, "duration": 7, "velocity": 85}, {"time": 1254, "pitch": 40, "duration": 16, "velocity": 68}, {"time": 1254, "pitch": 52, "duration": 5, "velocity": 67}, {"time": 1254, "pitch": 59, "duration": 7, "velocity": 81}, {"time": 1254, "pitch": 64, "duration": 7, "velocity": 74}, {"time": 1254, "pitch": 68, "duration": 7, "velocity": 86}, {"time": 1263, "pitch": 52, "duration": 4, "velocity": 44}, {"time": 1266, "pitch": 59, "duration": 8, "velocity": 91}, {"time": 1266, "pitch": 64, "duration": 7, "velocity": 83}, {"time": 1266, "pitch": 68, "duration": 7, "velocity": 92}, {"time": 1272, "pitch": 52, "duration": 3, "velocity": 68}, {"time": 1275, "pitch": 40, "duration": 3, "velocity": 58}, {"time": 1278, "pitch": 39, "duration": 15, "velocity": 50}, {"time": 1278, "pitch": 51, "duration": 5, "velocity": 46}, {"time": 1278, "pitch": 59, "duration": 7, "velocity": 87}, {"time": 1278, "pitch": 63, "duration": 7, "velocity": 84}, {"time": 1278, "pitch": 68, "duration": 7, "velocity": 89}, {"time": 1287, "pitch": 51, "duration": 4, "velocity": 61}, {"time": 1290, "pitch": 59, "duration": 5, "velocity": 99}, {"time": 1290, "pitch": 63, "duration": 5, "velocity": 91}, {"time": 1290, "pitch": 68, "duration": 5, "velocity": 95}, {"time": 1293, "pitch": 51, "duration": 4, "velocity": 68}, {"time": 1296, "pitch": 39, "duration": 2, "velocity": 67}, {"time": 1302, "pitch": 37, "duration": 14, "velocity": 59}, {"time": 1302, "pitch": 49, "duration": 13, "velocity": 54}, {"time": 1302, "pitch": 56, "duration": 7, "velocity": 77}, {"time": 1302, "pitch": 61, "duration": 7, "velocity": 63}, {"time": 1302, "pitch": 64, "duration": 7, "velocity": 63}, {"time": 1302, "pitch": 68, "duration": 7, "velocity": 71}, {"time": 1314, "pitch": 56, "duration": 4, "velocity": 77}, {"time": 1314, "pitch": 61, "duration": 5, "velocity": 63}, {"time": 1314, "pitch": 64, "duration": 5, "velocity": 63}, {"time": 1314, "pitch": 68, "duration": 6, "velocity": 76}, {"time": 1320, "pitch": 49, "duration": 3, "velocity": 59}, {"time": 1323, "pitch": 37, "duration": 3, "velocity": 56}, {"time": 1326, "pitch": 35, "duration": 15, "velocity": 56}, {"time": 1326, "pitch": 47, "duration": 6, "velocity": 43}, {"time": 1326, "pitch": 59, "duration": 8, "velocity": 71}, {"time": 1326, "pitch": 63, "duration": 8, "velocity": 63}, {"time": 1326, "pitch": 66, "duration": 8, "velocity": 68}, {"time": 1326, "pitch": 71, "duration": 8, "velocity": 68}, {"time": 1335, "pitch": 47, "duration": 4, "velocity": 79}, {"time": 1338, "pitch": 59, "duration": 6, "velocity": 100}, {"time": 1338, "pitch": 63, "duration": 6, "velocity": 88}, {"time": 1338, "pitch": 66, "duration": 7, "velocity": 92}, {"time": 1338, "pitch": 71, "duration": 5, "velocity": 92}, {"time": 1341, "pitch": 47, "duration": 4, "velocity": 75}, {"time": 1344, "pitch": 35, "duration": 3, "velocity": 91}, {"time": 1347, "pitch": 47, "duration": 2, "velocity": 67}, {"time": 1350, "pitch": 33, "duration": 19, "velocity": 80}, {"time": 1350, "pitch": 45, "duration": 8, "velocity": 76}, {"time": 1350, "pitch": 57, "duration": 9, "velocity": 91}, {"time": 1350, "pitch": 61, "duration": 9, "velocity": 80}, {"time": 1350, "pitch": 64, "duration": 9, "velocity": 80}, {"time": 1350, "pitch": 69, "duration": 9, "velocity": 86}, {"time": 1359, "pitch": 45, "duration": 4, "velocity": 54}, {"time": 1362, "pitch": 57, "duration": 7, "velocity": 99}, {"time": 1362, "pitch": 61, "duration": 7, "velocity": 72}, {"time": 1362, "pitch": 64, "duration": 7, "velocity": 83}, {"time": 1362, "pitch": 69, "duration": 7, "velocity": 89}, {"time": 1368, "pitch": 45, "duration": 1, "velocity": 57}, {"time": 1374, "pitch": 42, "duration": 15, "velocity": 62}, {"time": 1374, "pitch": 54, "duration": 7, "velocity": 62}, {"time": 1374, "pitch": 57, "duration": 9, "velocity": 80}, {"time": 1374, "pitch": 61, "duration": 9, "velocity": 74}, {"time": 1374, "pitch": 66, "duration": 9, "velocity": 82}, {"time": 1383, "pitch": 54, "duration": 5, "velocity": 81}, {"time": 1386, "pitch": 57, "duration": 4, "velocity": 99}, {"time": 1386, "pitch": 61, "duration": 5, "velocity": 90}, {"time": 1386, "pitch": 66, "duration": 5, "velocity": 101}, {"time": 1389, "pitch": 54, "duration": 4, "velocity": 74}, {"time": 1392, "pitch": 42, "duration": 1, "velocity": 81}, {"time": 1398, "pitch": 35, "duration": 19, "velocity": 77}, {"time": 1398, "pitch": 47, "duration": 13, "velocity": 72}, {"time": 1398, "pitch": 59, "duration": 7, "velocity": 97}, {"time": 1398, "pitch": 63, "duration": 6, "velocity": 90}, {"time": 1398, "pitch": 66, "duration": 7, "velocity": 78}, {"time": 1398, "pitch": 71, "duration": 6, "velocity": 90}, {"time": 1407, "pitch": 59, "duration": 7, "velocity": 100}, {"time": 1407, "pitch": 63, "duration": 7, "velocity": 88}, {"time": 1407, "pitch": 69, "duration": 7, "velocity": 102}, {"time": 1413, "pitch": 47, "duration": 4, "velocity": 79}, {"time": 1416, "pitch": 59, "duration": 10, "velocity": 94}, {"time": 1416, "pitch": 63, "duration": 10, "velocity": 97}, {"time": 1416, "pitch": 68, "duration": 10, "velocity": 101}, {"time": 1422, "pitch": 35, "duration": 18, "velocity": 84}, {"time": 1422, "pitch": 47, "duration": 11, "velocity": 85}, {"time": 1431, "pitch": 59, "duration": 7, "velocity": 104}, {"time": 1431, "pitch": 66, "duration": 11, "velocity": 107}, {"time": 1437, "pitch": 47, "duration": 5, "velocity": 79}, {"time": 1440, "pitch": 35, "duration": 2, "velocity": 75}, {"time": 1446, "pitch": 32, "duration": 16, "velocity": 95}, {"time": 1446, "pitch": 44, "duration": 7, "velocity": 90}, {"time": 1446, "pitch": 56, "duration": 1, "velocity": 54}, {"time": 1446, "pitch": 56, "duration": 1, "velocity": 99}, {"time": 1446, "pitch": 59, "duration": 3, "velocity": 62}, {"time": 1446, "pitch": 63, "duration": 5, "velocity": 79}, {"time": 1446, "pitch": 68, "duration": 5, "velocity": 99}, {"time": 1455, "pitch": 44, "duration": 5, "velocity": 50}, {"time": 1458, "pitch": 56, "duration": 5, "velocity": 99}, {"time": 1458, "pitch": 59, "duration": 3, "velocity": 62}, {"time": 1458, "pitch": 63, "duration": 5, "velocity": 79}, {"time": 1458, "pitch": 68, "duration": 5, "velocity": 99}, {"time": 1461, "pitch": 44, "duration": 4, "velocity": 49}, {"time": 1464, "pitch": 32, "duration": 3, "velocity": 88}, {"time": 1467, "pitch": 44, "duration": 2, "velocity": 45}, {"time": 1470, "pitch": 37, "duration": 15, "velocity": 74}, {"time": 1470, "pitch": 49, "duration": 7, "velocity": 69}, {"time": 1470, "pitch": 56, "duration": 8, "velocity": 84}, {"time": 1470, "pitch": 61, "duration": 8, "velocity": 72}, {"time": 1470, "pitch": 64, "duration": 8, "velocity": 74}, {"time": 1470, "pitch": 68, "duration": 8, "velocity": 86}, {"time": 1479, "pitch": 49, "duration": 4, "velocity": 63}, {"time": 1482, "pitch": 56, "duration": 7, "velocity": 100}, {"time": 1482, "pitch": 61, "duration": 6, "velocity": 75}, {"time": 1482, "pitch": 64, "duration": 6, "velocity": 83}, {"time": 1482, "pitch": 68, "duration": 6, "velocity": 94}, {"time": 1485, "pitch": 49, "duration": 4, "velocity": 59}, {"time": 1488, "pitch": 37, "duration": 1, "velocity": 69}, {"time": 1494, "pitch": 32, "duration": 16, "velocity": 59}, {"time": 1494, "pitch": 44, "duration": 6, "velocity": 56}, {"time": 1494, "pitch": 56, "duration": 7, "velocity": 77}, {"time": 1494, "pitch": 59, "duration": 7, "velocity": 57}, {"time": 1494, "pitch": 63, "duration": 7, "velocity": 65}, {"time": 1494, "pitch": 68, "duration": 7, "velocity": 76}, {"time": 1503, "pitch": 44, "duration": 5, "velocity": 62}, {"time": 1506, "pitch": 56, "duration": 8, "velocity": 95}, {"time": 1506, "pitch": 59, "duration": 6, "velocity": 58}, {"time": 1506, "pitch": 63, "duration": 8, "velocity": 64}, {"time": 1506, "pitch": 68, "duration": 9, "velocity": 101}, {"time": 1512, "pitch": 44, "duration": 3, "velocity": 72}, {"time": 1518, "pitch": 37, "duration": 16, "velocity": 69}, {"time": 1518, "pitch": 49, "duration": 7, "velocity": 71}, {"time": 1518, "pitch": 56, "duration": 8, "velocity": 85}, {"time": 1518, "pitch": 61, "duration": 8, "velocity": 69}, {"time": 1518, "pitch": 64, "duration": 8, "velocity": 71}, {"time": 1518, "pitch": 68, "duration": 8, "velocity": 86}, {"time": 1527, "pitch": 49, "duration": 4, "velocity": 62}, {"time": 1530, "pitch": 56, "duration": 4, "velocity": 91}, {"time": 1530, "pitch": 61, "duration": 5, "velocity": 53}, {"time": 1530, "pitch": 64, "duration": 4, "velocity": 63}, {"time": 1530, "pitch": 68, "duration": 5, "velocity": 87}, {"time": 1533, "pitch": 49, "duration": 5, "velocity": 49}, {"time": 1536, "pitch": 37, "duration": 1, "velocity": 50}, {"time": 1536, "pitch": 57, "duration": 3, "velocity": 83}, {"time": 1536, "pitch": 69, "duration": 2, "velocity": 87}, {"time": 1542, "pitch": 42, "duration": 42, "velocity": 88}, {"time": 1542, "pitch": 54, "duration": 6, "velocity": 90}, {"time": 1542, "pitch": 57, "duration": 8, "velocity": 90}, {"time": 1542, "pitch": 61, "duration": 8, "velocity": 72}, {"time": 1542, "pitch": 66, "duration": 7, "velocity": 26}, {"time": 1542, "pitch": 69, "duration": 8, "velocity": 89}, {"time": 1551, "pitch": 54, "duration": 5, "velocity": 57}, {"time": 1554, "pitch": 57, "duration": 7, "velocity": 94}, {"time": 1554, "pitch": 61, "duration": 8, "velocity": 72}, {"time": 1554, "pitch": 66, "duration": 8, "velocity": 79}, {"time": 1554, "pitch": 69, "duration": 7, "velocity": 89}, {"time": 1560, "pitch": 54, "duration": 2, "velocity": 53}, {"time": 1566, "pitch": 57, "duration": 7, "velocity": 94}, {"time": 1566, "pitch": 61, "duration": 8, "velocity": 81}, {"time": 1566, "pitch": 66, "duration": 7, "velocity": 82}, {"time": 1566, "pitch": 69, "duration": 7, "velocity": 89}, {"time": 1575, "pitch": 56, "duration": 3, "velocity": 97}, {"time": 1575, "pitch": 61, "duration": 1, "velocity": 25}, {"time": 1575, "pitch": 68, "duration": 4, "velocity": 95}, {"time": 1581, "pitch": 54, "duration": 6, "velocity": 87}, {"time": 1584, "pitch": 57, "duration": 2, "velocity": 100}, {"time": 1584, "pitch": 69, "duration": 2, "velocity": 104}, {"time": 1587, "pitch": 42, "duration": 1, "velocity": 75}, {"time": 1590, "pitch": 35, "duration": 38, "velocity": 93}, {"time": 1590, "pitch": 47, "duration": 12, "velocity": 99}, {"time": 1590, "pitch": 59, "duration": 5, "velocity": 104}, {"time": 1590, "pitch": 71, "duration": 4, "velocity": 106}, {"time": 1599, "pitch": 59, "duration": 5, "velocity": 113}, {"time": 1599, "pitch": 69, "duration": 4, "velocity": 115}, {"time": 1605, "pitch": 47, "duration": 12, "velocity": 79}, {"time": 1608, "pitch": 59, "duration": 6, "velocity": 113}, {"time": 1608, "pitch": 68, "duration": 7, "velocity": 113}, {"time": 1617, "pitch": 59, "duration": 6, "velocity": 108}, {"time": 1617, "pitch": 66, "duration": 7, "velocity": 113}, {"time": 1623, "pitch": 47, "duration": 4, "velocity": 94}, {"time": 1626, "pitch": 59, "duration": 4, "velocity": 110}, {"time": 1626, "pitch": 64, "duration": 7, "velocity": 100}, {"time": 1629, "pitch": 47, "duration": 6, "velocity": 80}, {"time": 1632, "pitch": 35, "duration": 1, "velocity": 79}, {"time": 1632, "pitch": 59, "duration": 3, "velocity": 100}, {"time": 1632, "pitch": 66, "duration": 4, "velocity": 99}, {"time": 1638, "pitch": 40, "duration": 19, "velocity": 91}, {"time": 1638, "pitch": 52, "duration": 14, "velocity": 102}, {"time": 1638, "pitch": 59, "duration": 9, "velocity": 110}, {"time": 1638, "pitch": 64, "duration": 8, "velocity": 92}, {"time": 1638, "pitch": 68, "duration": 9, "velocity": 105}, {"time": 1650, "pitch": 59, "duration": 8, "velocity": 113}, {"time": 1650, "pitch": 64, "duration": 7, "velocity": 94}, {"time": 1650, "pitch": 68, "duration": 8, "velocity": 103}, {"time": 1656, "pitch": 52, "duration": 4, "velocity": 59}, {"time": 1659, "pitch": 40, "duration": 2, "velocity": 69}, {"time": 1662, "pitch": 39, "duration": 16, "velocity": 72}, {"time": 1662, "pitch": 51, "duration": 7, "velocity": 76}, {"time": 1662, "pitch": 59, "duration": 9, "velocity": 97}, {"time": 1662, "pitch": 63, "duration": 9, "velocity": 90}, {"time": 1662, "pitch": 68, "duration": 9, "velocity": 95}, {"time": 1671, "pitch": 51, "duration": 5, "velocity": 54}, {"time": 1674, "pitch": 59, "duration": 4, "velocity": 104}, {"time": 1674, "pitch": 63, "duration": 5, "velocity": 95}, {"time": 1674, "pitch": 68, "duration": 4, "velocity": 97}, {"time": 1677, "pitch": 51, "duration": 4, "velocity": 63}, {"time": 1680, "pitch": 39, "duration": 4, "velocity": 59}, {"time": 1683, "pitch": 51, "duration": 2, "velocity": 52}, {"time": 1686, "pitch": 37, "duration": 16, "velocity": 80}, {"time": 1686, "pitch": 49, "duration": 14, "velocity": 72}, {"time": 1686, "pitch": 56, "duration": 8, "velocity": 91}, {"time": 1686, "pitch": 61, "duration": 7, "velocity": 77}, {"time": 1686, "pitch": 64, "duration": 7, "velocity": 75}, {"time": 1686, "pitch": 68, "duration": 7, "velocity": 89}, {"time": 1698, "pitch": 56, "duration": 5, "velocity": 106}, {"time": 1698, "pitch": 61, "duration": 6, "velocity": 84}, {"time": 1698, "pitch": 64, "duration": 6, "velocity": 84}, {"time": 1698, "pitch": 68, "duration": 6, "velocity": 105}, {"time": 1704, "pitch": 49, "duration": 3, "velocity": 69}, {"time": 1707, "pitch": 37, "duration": 3, "velocity": 80}, {"time": 1710, "pitch": 35, "duration": 16, "velocity": 59}, {"time": 1710, "pitch": 47, "duration": 7, "velocity": 42}, {"time": 1710, "pitch": 59, "duration": 9, "velocity": 84}, {"time": 1710, "pitch": 63, "duration": 8, "velocity": 79}, {"time": 1710, "pitch": 66, "duration": 9, "velocity": 75}, {"time": 1710, "pitch": 71, "duration": 8, "velocity": 82}, {"time": 1719, "pitch": 47, "duration": 4, "velocity": 94}, {"time": 1722, "pitch": 59, "duration": 7, "velocity": 113}, {"time": 1722, "pitch": 63, "duration": 7, "velocity": 100}, {"time": 1722, "pitch": 66, "duration": 6, "velocity": 99}, {"time": 1722, "pitch": 71, "duration": 6, "velocity": 110}, {"time": 1725, "pitch": 47, "duration": 7, "velocity": 85}, {"time": 1728, "pitch": 35, "duration": 2, "velocity": 98}, {"time": 1731, "pitch": 35, "duration": 2, "velocity": 93}, {"time": 1734, "pitch": 33, "duration": 18, "velocity": 105}, {"time": 1734, "pitch": 45, "duration": 8, "velocity": 99}, {"time": 1734, "pitch": 57, "duration": 9, "velocity": 106}, {"time": 1734, "pitch": 61, "duration": 9, "velocity": 87}, {"time": 1734, "pitch": 64, "duration": 8, "velocity": 92}, {"time": 1734, "pitch": 69, "duration": 9, "velocity": 96}, {"time": 1743, "pitch": 45, "duration": 5, "velocity": 77}, {"time": 1746, "pitch": 57, "duration": 8, "velocity": 108}, {"time": 1746, "pitch": 61, "duration": 8, "velocity": 91}, {"time": 1746, "pitch": 64, "duration": 8, "velocity": 91}, {"time": 1746, "pitch": 69, "duration": 8, "velocity": 102}, {"time": 1752, "pitch": 45, "duration": 3, "velocity": 75}, {"time": 1755, "pitch": 33, "duration": 1, "velocity": 69}, {"time": 1758, "pitch": 42, "duration": 18, "velocity": 80}, {"time": 1758, "pitch": 54, "duration": 7, "velocity": 95}, {"time": 1758, "pitch": 57, "duration": 10, "velocity": 102}, {"time": 1758, "pitch": 61, "duration": 9, "velocity": 90}, {"time": 1758, "pitch": 66, "duration": 9, "velocity": 97}, {"time": 1767, "pitch": 54, "duration": 5, "velocity": 79}, {"time": 1770, "pitch": 57, "duration": 6, "velocity": 104}, {"time": 1770, "pitch": 61, "duration": 6, "velocity": 94}, {"time": 1770, "pitch": 66, "duration": 7, "velocity": 101}, {"time": 1776, "pitch": 54, "duration": 3, "velocity": 81}, {"time": 1779, "pitch": 42, "duration": 1, "velocity": 76}, {"time": 1782, "pitch": 35, "duration": 37, "velocity": 87}, {"time": 1782, "pitch": 47, "duration": 11, "velocity": 91}, {"time": 1782, "pitch": 59, "duration": 7, "velocity": 104}, {"time": 1782, "pitch": 63, "duration": 7, "velocity": 92}, {"time": 1782, "pitch": 66, "duration": 7, "velocity": 91}, {"time": 1782, "pitch": 71, "duration": 6, "velocity": 93}, {"time": 1791, "pitch": 59, "duration": 7, "velocity": 111}, {"time": 1791, "pitch": 69, "duration": 7, "velocity": 110}, {"time": 1797, "pitch": 47, "duration": 5, "velocity": 88}, {"time": 1800, "pitch": 59, "duration": 9, "velocity": 102}, {"time": 1800, "pitch": 68, "duration": 10, "velocity": 105}, {"time": 1809, "pitch": 47, "duration": 5, "velocity": 99}, {"time": 1812, "pitch": 59, "duration": 4, "velocity": 106}, {"time": 1812, "pitch": 69, "duration": 5, "velocity": 106}, {"time": 1815, "pitch": 47, "duration": 11, "velocity": 85}, {"time": 1818, "pitch": 59, "duration": 5, "velocity": 108}, {"time": 1818, "pitch": 71, "duration": 5, "velocity": 115}, {"time": 1821, "pitch": 35, "duration": 5, "velocity": 109}, {"time": 1824, "pitch": 59, "duration": 4, "velocity": 95}, {"time": 1824, "pitch": 68, "duration": 4, "velocity": 101}, {"time": 1830, "pitch": 32, "duration": 16, "velocity": 94}, {"time": 1830, "pitch": 44, "duration": 8, "velocity": 97}, {"time": 1830, "pitch": 59, "duration": 10, "velocity": 100}, {"time": 1830, "pitch": 63, "duration": 9, "velocity": 88}, {"time": 1830, "pitch": 68, "duration": 9, "velocity": 99}, {"time": 1839, "pitch": 44, "duration": 5, "velocity": 88}, {"time": 1842, "pitch": 59, "duration": 7, "velocity": 111}, {"time": 1842, "pitch": 63, "duration": 7, "velocity": 100}, {"time": 1842, "pitch": 68, "duration": 8, "velocity": 107}, {"time": 1845, "pitch": 44, "duration": 4, "velocity": 79}, {"time": 1848, "pitch": 32, "duration": 4, "velocity": 94}, {"time": 1851, "pitch": 44, "duration": 1, "velocity": 72}, {"time": 1854, "pitch": 37, "duration": 18, "velocity": 95}, {"time": 1854, "pitch": 49, "duration": 8, "velocity": 94}, {"time": 1854, "pitch": 61, "duration": 10, "velocity": 90}, {"time": 1854, "pitch": 64, "duration": 9, "velocity": 77}, {"time": 1854, "pitch": 68, "duration": 10, "velocity": 86}, {"time": 1863, "pitch": 49, "duration": 4, "velocity": 51}, {"time": 1866, "pitch": 61, "duration": 7, "velocity": 83}, {"time": 1866, "pitch": 64, "duration": 6, "velocity": 69}, {"time": 1866, "pitch": 68, "duration": 7, "velocity": 74}, {"time": 1872, "pitch": 49, "duration": 3, "velocity": 63}, {"time": 1875, "pitch": 37, "duration": 1, "velocity": 64}, {"time": 1878, "pitch": 32, "duration": 16, "velocity": 87}, {"time": 1878, "pitch": 44, "duration": 7, "velocity": 79}, {"time": 1878, "pitch": 59, "duration": 9, "velocity": 100}, {"time": 1878, "pitch": 63, "duration": 9, "velocity": 90}, {"time": 1878, "pitch": 68, "duration": 8, "velocity": 95}, {"time": 1887, "pitch": 44, "duration": 5, "velocity": 97}, {"time": 1890, "pitch": 59, "duration": 5, "velocity": 106}, {"time": 1890, "pitch": 63, "duration": 5, "velocity": 97}, {"time": 1890, "pitch": 68, "duration": 6, "velocity": 103}, {"time": 1893, "pitch": 44, "duration": 4, "velocity": 80}, {"time": 1896, "pitch": 32, "duration": 2, "velocity": 91}, {"time": 1902, "pitch": 37, "duration": 16, "velocity": 97}, {"time": 1902, "pitch": 49, "duration": 7, "velocity": 92}, {"time": 1902, "pitch": 61, "duration": 8, "velocity": 95}, {"time": 1902, "pitch": 64, "duration": 7, "velocity": 67}, {"time": 1902, "pitch": 68, "duration": 8, "velocity": 92}, {"time": 1911, "pitch": 49, "duration": 5, "velocity": 97}, {"time": 1914, "pitch": 61, "duration": 9, "velocity": 102}, {"time": 1914, "pitch": 64, "duration": 9, "velocity": 85}, {"time": 1914, "pitch": 68, "duration": 9, "velocity": 97}, {"time": 1917, "pitch": 49, "duration": 4, "velocity": 88}, {"time": 1920, "pitch": 37, "duration": 2, "velocity": 84}, {"time": 1923, "pitch": 32, "duration": 1, "velocity": 97}, {"time": 1923, "pitch": 44, "duration": 1, "velocity": 92}, {"time": 1926, "pitch": 30, "duration": 38, "velocity": 111}, {"time": 1926, "pitch": 42, "duration": 8, "velocity": 104}, {"time": 1935, "pitch": 42, "duration": 12, "velocity": 84}, {"time": 1938, "pitch": 57, "duration": 5, "velocity": 108}, {"time": 1938, "pitch": 61, "duration": 5, "velocity": 95}, {"time": 1938, "pitch": 66, "duration": 5, "velocity": 103}, {"time": 1947, "pitch": 42, "duration": 3, "velocity": 22}, {"time": 1947, "pitch": 57, "duration": 7, "velocity": 84}, {"time": 1947, "pitch": 61, "duration": 7, "velocity": 67}, {"time": 1947, "pitch": 68, "duration": 7, "velocity": 84}, {"time": 1953, "pitch": 42, "duration": 4, "velocity": 83}, {"time": 1956, "pitch": 57, "duration": 5, "velocity": 108}, {"time": 1956, "pitch": 61, "duration": 5, "velocity": 92}, {"time": 1956, "pitch": 69, "duration": 4, "velocity": 106}, {"time": 1962, "pitch": 42, "duration": 4, "velocity": 81}, {"time": 1962, "pitch": 57, "duration": 4, "velocity": 75}, {"time": 1962, "pitch": 61, "duration": 5, "velocity": 67}, {"time": 1962, "pitch": 68, "duration": 4, "velocity": 94}, {"time": 1965, "pitch": 30, "duration": 2, "velocity": 72}, {"time": 1968, "pitch": 57, "duration": 2, "velocity": 80}, {"time": 1968, "pitch": 61, "duration": 2, "velocity": 63}, {"time": 1968, "pitch": 66, "duration": 2, "velocity": 84}, {"time": 1974, "pitch": 40, "duration": 18, "velocity": 86}, {"time": 1974, "pitch": 64, "duration": 17, "velocity": 80}, {"time": 1980, "pitch": 47, "duration": 11, "velocity": 78}, {"time": 1986, "pitch": 52, "duration": 4, "velocity": 91}, {"time": 1992, "pitch": 52, "duration": 9, "velocity": 88}, {"time": 1992, "pitch": 56, "duration": 11, "velocity": 91}, {"time": 1992, "pitch": 59, "duration": 14, "velocity": 87}, {"time": 2010, "pitch": 52, "duration": 3, "velocity": 87}, {"time": 2010, "pitch": 56, "duration": 3, "velocity": 88}, {"time": 2010, "pitch": 59, "duration": 4, "velocity": 87}, {"time": 2010, "pitch": 64, "duration": 3, "velocity": 82}, {"time": 2022, "pitch": 45, "duration": 14, "velocity": 89}, {"time": 2022, "pitch": 52, "duration": 3, "velocity": 83}, {"time": 2022, "pitch": 57, "duration": 7, "velocity": 86}, {"time": 2022, "pitch": 61, "duration": 7, "velocity": 86}, {"time": 2028, "pitch": 52, "duration": 3, "velocity": 77}, {"time": 2034, "pitch": 57, "duration": 2, "velocity": 72}, {"time": 2034, "pitch": 61, "duration": 3, "velocity": 79}, {"time": 2040, "pitch": 47, "duration": 20, "velocity": 89}, {"time": 2040, "pitch": 54, "duration": 6, "velocity": 85}, {"time": 2040, "pitch": 59, "duration": 9, "velocity": 85}, {"time": 2052, "pitch": 54, "duration": 3, "velocity": 74}, {"time": 2058, "pitch": 54, "duration": 4, "velocity": 90}, {"time": 2058, "pitch": 59, "duration": 3, "velocity": 90}, {"time": 2058, "pitch": 63, "duration": 4, "velocity": 91}, {"time": 2070, "pitch": 45, "duration": 14, "velocity": 90}, {"time": 2070, "pitch": 57, "duration": 3, "velocity": 86}, {"time": 2070, "pitch": 61, "duration": 3, "velocity": 86}, {"time": 2076, "pitch": 52, "duration": 8, "velocity": 51}, {"time": 2082, "pitch": 57, "duration": 4, "velocity": 91}, {"time": 2082, "pitch": 61, "duration": 5, "velocity": 88}, {"time": 2088, "pitch": 45, "duration": 3, "velocity": 111}, {"time": 2094, "pitch": 61, "duration": 1, "velocity": 62}, {"time": 2100, "pitch": 57, "duration": 3, "velocity": 71}, {"time": 2100, "pitch": 61, "duration": 2, "velocity": 72}, {"time": 2106, "pitch": 57, "duration": 6, "velocity": 90}, {"time": 2106, "pitch": 61, "duration": 8, "velocity": 91}, {"time": 2112, "pitch": 45, "duration": 2, "velocity": 102}, {"time": 2118, "pitch": 44, "duration": 17, "velocity": 87}, {"time": 2118, "pitch": 54, "duration": 4, "velocity": 86}, {"time": 2118, "pitch": 59, "duration": 7, "velocity": 85}, {"time": 2124, "pitch": 51, "duration": 8, "velocity": 75}, {"time": 2130, "pitch": 56, "duration": 6, "velocity": 79}, {"time": 2130, "pitch": 59, "duration": 6, "velocity": 87}, {"time": 2130, "pitch": 63, "duration": 7, "velocity": 86}, {"time": 2142, "pitch": 44, "duration": 22, "velocity": 86}, {"time": 2142, "pitch": 56, "duration": 4, "velocity": 86}, {"time": 2142, "pitch": 68, "duration": 5, "velocity": 82}, {"time": 2148, "pitch": 51, "duration": 16, "velocity": 76}, {"time": 2154, "pitch": 56, "duration": 3, "velocity": 85}, {"time": 2154, "pitch": 59, "duration": 13, "velocity": 92}, {"time": 2154, "pitch": 63, "duration": 14, "velocity": 90}, {"time": 2160, "pitch": 56, "duration": 8, "velocity": 86}, {"time": 2166, "pitch": 44, "duration": 2, "velocity": 86}, {"time": 2166, "pitch": 51, "duration": 1, "velocity": 86}, {"time": 2172, "pitch": 44, "duration": 2, "velocity": 90}, {"time": 2172, "pitch": 51, "duration": 2, "velocity": 86}, {"time": 2172, "pitch": 56, "duration": 4, "velocity": 83}, {"time": 2172, "pitch": 59, "duration": 1, "velocity": 85}, {"time": 2172, "pitch": 63, "duration": 1, "velocity": 78}, {"time": 2178, "pitch": 42, "duration": 12, "velocity": 87}, {"time": 2178, "pitch": 49, "duration": 12, "velocity": 91}, {"time": 2178, "pitch": 54, "duration": 12, "velocity": 90}, {"time": 2178, "pitch": 66, "duration": 11, "velocity": 86}, {"time": 2188, "pitch": 56, "duration": 3, "velocity": 68}, {"time": 2189, "pitch": 59, "duration": 3, "velocity": 79}, {"time": 2190, "pitch": 63, "duration": 2, "velocity": 80}, {"time": 2190, "pitch": 44, "duration": 2, "velocity": 87}, {"time": 2191, "pitch": 68, "duration": 2, "velocity": 78}, {"time": 2198, "pitch": 69, "duration": 14, "velocity": 80}, {"time": 2198, "pitch": 45, "duration": 15, "velocity": 90}, {"time": 2198, "pitch": 57, "duration": 14, "velocity": 73}, {"time": 2199, "pitch": 61, "duration": 13, "velocity": 86}, {"time": 2212, "pitch": 54, "duration": 8, "velocity": 73}, {"time": 2213, "pitch": 59, "duration": 8, "velocity": 81}, {"time": 2214, "pitch": 35, "duration": 1, "velocity": 86}, {"time": 2214, "pitch": 63, "duration": 8, "velocity": 86}, {"time": 2220, "pitch": 47, "duration": 21, "velocity": 81}, {"time": 2225, "pitch": 54, "duration": 16, "velocity": 85}, {"time": 2231, "pitch": 66, "duration": 25, "velocity": 79}, {"time": 2231, "pitch": 63, "duration": 25, "velocity": 85}, {"time": 2231, "pitch": 59, "duration": 23, "velocity": 79}, {"time": 2244, "pitch": 59, "duration": 10, "velocity": 76}, {"time": 2249, "pitch": 61, "duration": 7, "velocity": 71}, {"time": 2255, "pitch": 63, "duration": 1, "velocity": 85}, {"time": 2260, "pitch": 54, "duration": 41, "velocity": 74}, {"time": 2261, "pitch": 59, "duration": 40, "velocity": 77}, {"time": 2261, "pitch": 35, "duration": 35, "velocity": 78}, {"time": 2262, "pitch": 63, "duration": 39, "velocity": 89}, {"time": 2310, "pitch": 40, "duration": 44, "velocity": 87}, {"time": 2316, "pitch": 47, "duration": 39, "velocity": 71}, {"time": 2322, "pitch": 54, "duration": 8, "velocity": 80}, {"time": 2328, "pitch": 56, "duration": 9, "velocity": 83}, {"time": 2340, "pitch": 52, "duration": 6, "velocity": 73}, {"time": 2340, "pitch": 56, "duration": 5, "velocity": 75}, {"time": 2340, "pitch": 59, "duration": 6, "velocity": 81}, {"time": 2358, "pitch": 40, "duration": 48, "velocity": 86}, {"time": 2358, "pitch": 63, "duration": 30, "velocity": 86}, {"time": 2364, "pitch": 47, "duration": 42, "velocity": 72}, {"time": 2370, "pitch": 52, "duration": 18, "velocity": 82}, {"time": 2376, "pitch": 59, "duration": 13, "velocity": 81}, {"time": 2388, "pitch": 56, "duration": 4, "velocity": 69}, {"time": 2394, "pitch": 52, "duration": 2, "velocity": 77}, {"time": 2394, "pitch": 56, "duration": 13, "velocity": 79}, {"time": 2394, "pitch": 59, "duration": 13, "velocity": 80}, {"time": 2400, "pitch": 52, "duration": 6, "velocity": 85}, {"time": 2406, "pitch": 37, "duration": 35, "velocity": 85}, {"time": 2406, "pitch": 64, "duration": 14, "velocity": 65}, {"time": 2412, "pitch": 44, "duration": 28, "velocity": 73}, {"time": 2418, "pitch": 56, "duration": 8, "velocity": 89}, {"time": 2424, "pitch": 61, "duration": 10, "velocity": 76}, {"time": 2436, "pitch": 63, "duration": 7, "velocity": 85}, {"time": 2442, "pitch": 64, "duration": 5, "velocity": 94}, {"time": 2454, "pitch": 44, "duration": 40, "velocity": 86}, {"time": 2454, "pitch": 63, "duration": 17, "velocity": 83}, {"time": 2460, "pitch": 51, "duration": 27, "velocity": 81}, {"time": 2466, "pitch": 54, "duration": 8, "velocity": 81}, {"time": 2472, "pitch": 59, "duration": 5, "velocity": 86}, {"time": 2484, "pitch": 56, "duration": 8, "velocity": 80}, {"time": 2484, "pitch": 63, "duration": 9, "velocity": 85}, {"time": 2490, "pitch": 51, "duration": 3, "velocity": 67}, {"time": 2502, "pitch": 45, "duration": 39, "velocity": 89}, {"time": 2502, "pitch": 57, "duration": 9, "velocity": 73}, {"time": 2502, "pitch": 61, "duration": 13, "velocity": 80}, {"time": 2508, "pitch": 52, "duration": 36, "velocity": 64}, {"time": 2514, "pitch": 57, "duration": 30, "velocity": 82}, {"time": 2520, "pitch": 61, "duration": 26, "velocity": 78}, {"time": 2544, "pitch": 45, "duration": 5, "velocity": 81}, {"time": 2550, "pitch": 44, "duration": 22, "velocity": 86}, {"time": 2550, "pitch": 56, "duration": 8, "velocity": 77}, {"time": 2550, "pitch": 59, "duration": 13, "velocity": 80}, {"time": 2556, "pitch": 51, "duration": 16, "velocity": 78}, {"time": 2562, "pitch": 56, "duration": 8, "velocity": 79}, {"time": 2568, "pitch": 59, "duration": 5, "velocity": 84}, {"time": 2574, "pitch": 49, "duration": 14, "velocity": 83}, {"time": 2574, "pitch": 64, "duration": 13, "velocity": 85}, {"time": 2580, "pitch": 56, "duration": 7, "velocity": 81}, {"time": 2586, "pitch": 63, "duration": 11, "velocity": 82}, {"time": 2598, "pitch": 38, "duration": 13, "velocity": 85}, {"time": 2598, "pitch": 54, "duration": 12, "velocity": 84}, {"time": 2598, "pitch": 57, "duration": 14, "velocity": 75}, {"time": 2598, "pitch": 62, "duration": 13, "velocity": 75}, {"time": 2604, "pitch": 45, "duration": 8, "velocity": 75}, {"time": 2610, "pitch": 50, "duration": 6, "velocity": 92}, {"time": 2616, "pitch": 62, "duration": 2, "velocity": 88}, {"time": 2622, "pitch": 37, "duration": 14, "velocity": 87}, {"time": 2622, "pitch": 56, "duration": 8, "velocity": 79}, {"time": 2622, "pitch": 61, "duration": 13, "velocity": 80}, {"time": 2628, "pitch": 44, "duration": 8, "velocity": 73}, {"time": 2634, "pitch": 56, "duration": 2, "velocity": 88}, {"time": 2646, "pitch": 35, "duration": 3, "velocity": 82}, {"time": 2646, "pitch": 54, "duration": 8, "velocity": 77}, {"time": 2646, "pitch": 59, "duration": 10, "velocity": 79}, {"time": 2652, "pitch": 47, "duration": 43, "velocity": 79}, {"time": 2658, "pitch": 54, "duration": 15, "velocity": 81}, {"time": 2664, "pitch": 61, "duration": 5, "velocity": 80}, {"time": 2670, "pitch": 59, "duration": 9, "velocity": 84}, {"time": 2670, "pitch": 63, "duration": 9, "velocity": 87}, {"time": 2676, "pitch": 54, "duration": 19, "velocity": 73}, {"time": 2682, "pitch": 63, "duration": 13, "velocity": 82}, {"time": 2682, "pitch": 66, "duration": 13, "velocity": 83}, {"time": 2688, "pitch": 59, "duration": 6, "velocity": 79}, {"time": 2694, "pitch": 35, "duration": 2, "velocity": 83}, {"time": 2694, "pitch": 54, "duration": 1, "velocity": 78}, {"time": 2694, "pitch": 63, "duration": 1, "velocity": 85}, {"time": 2700, "pitch": 47, "duration": 37, "velocity": 86}, {"time": 2706, "pitch": 54, "duration": 27, "velocity": 87}, {"time": 2712, "pitch": 59, "duration": 15, "velocity": 91}, {"time": 2718, "pitch": 66, "duration": 9, "velocity": 85}, {"time": 2724, "pitch": 63, "duration": 3, "velocity": 79}, {"time": 2730, "pitch": 71, "duration": 14, "velocity": 84}, {"time": 2730, "pitch": 59, "duration": 4, "velocity": 81}, {"time": 2730, "pitch": 63, "duration": 14, "velocity": 90}, {"time": 2730, "pitch": 66, "duration": 14, "velocity": 83}, {"time": 2736, "pitch": 59, "duration": 7, "velocity": 85}, {"time": 2742, "pitch": 40, "duration": 16, "velocity": 68}, {"time": 2742, "pitch": 52, "duration": 6, "velocity": 67}, {"time": 2742, "pitch": 59, "duration": 7, "velocity": 81}, {"time": 2742, "pitch": 64, "duration": 7, "velocity": 74}, {"time": 2742, "pitch": 68, "duration": 7, "velocity": 86}, {"time": 2751, "pitch": 52, "duration": 4, "velocity": 44}, {"time": 2754, "pitch": 59, "duration": 8, "velocity": 91}, {"time": 2754, "pitch": 64, "duration": 7, "velocity": 83}, {"time": 2754, "pitch": 68, "duration": 7, "velocity": 92}, {"time": 2760, "pitch": 52, "duration": 3, "velocity": 68}, {"time": 2763, "pitch": 40, "duration": 3, "velocity": 58}, {"time": 2766, "pitch": 39, "duration": 15, "velocity": 50}, {"time": 2766, "pitch": 51, "duration": 5, "velocity": 46}, {"time": 2766, "pitch": 59, "duration": 7, "velocity": 87}, {"time": 2766, "pitch": 63, "duration": 7, "velocity": 84}, {"time": 2766, "pitch": 68, "duration": 7, "velocity": 89}, {"time": 2775, "pitch": 51, "duration": 4, "velocity": 61}, {"time": 2778, "pitch": 59, "duration": 5, "velocity": 99}, {"time": 2778, "pitch": 63, "duration": 5, "velocity": 91}, {"time": 2778, "pitch": 68, "duration": 5, "velocity": 95}, {"time": 2781, "pitch": 51, "duration": 4, "velocity": 68}, {"time": 2784, "pitch": 39, "duration": 2, "velocity": 67}, {"time": 2790, "pitch": 37, "duration": 14, "velocity": 59}, {"time": 2790, "pitch": 49, "duration": 13, "velocity": 54}, {"time": 2790, "pitch": 56, "duration": 7, "velocity": 77}, {"time": 2790, "pitch": 61, "duration": 7, "velocity": 63}, {"time": 2790, "pitch": 64, "duration": 7, "velocity": 63}, {"time": 2790, "pitch": 68, "duration": 7, "velocity": 71}, {"time": 2802, "pitch": 56, "duration": 4, "velocity": 77}, {"time": 2802, "pitch": 61, "duration": 5, "velocity": 63}, {"time": 2802, "pitch": 64, "duration": 5, "velocity": 63}, {"time": 2802, "pitch": 68, "duration": 6, "velocity": 76}, {"time": 2808, "pitch": 49, "duration": 3, "velocity": 59}, {"time": 2811, "pitch": 37, "duration": 3, "velocity": 56}, {"time": 2814, "pitch": 35, "duration": 15, "velocity": 56}, {"time": 2814, "pitch": 47, "duration": 6, "velocity": 43}, {"time": 2814, "pitch": 59, "duration": 8, "velocity": 71}, {"time": 2814, "pitch": 63, "duration": 8, "velocity": 63}, {"time": 2814, "pitch": 66, "duration": 8, "velocity": 68}, {"time": 2814, "pitch": 71, "duration": 8, "velocity": 68}, {"time": 2823, "pitch": 47, "duration": 4, "velocity": 79}, {"time": 2826, "pitch": 59, "duration": 6, "velocity": 100}, {"time": 2826, "pitch": 63, "duration": 7, "velocity": 88}, {"time": 2826, "pitch": 66, "duration": 7, "velocity": 92}, {"time": 2826, "pitch": 71, "duration": 5, "velocity": 92}, {"time": 2829, "pitch": 47, "duration": 4, "velocity": 75}, {"time": 2832, "pitch": 35, "duration": 3, "velocity": 91}, {"time": 2835, "pitch": 47, "duration": 2, "velocity": 67}, {"time": 2838, "pitch": 33, "duration": 19, "velocity": 80}, {"time": 2838, "pitch": 45, "duration": 8, "velocity": 76}, {"time": 2838, "pitch": 57, "duration": 9, "velocity": 91}, {"time": 2838, "pitch": 61, "duration": 9, "velocity": 80}, {"time": 2838, "pitch": 64, "duration": 9, "velocity": 80}, {"time": 2838, "pitch": 69, "duration": 9, "velocity": 86}, {"time": 2847, "pitch": 45, "duration": 4, "velocity": 54}, {"time": 2850, "pitch": 57, "duration": 7, "velocity": 99}, {"time": 2850, "pitch": 61, "duration": 7, "velocity": 72}, {"time": 2850, "pitch": 64, "duration": 7, "velocity": 83}, {"time": 2850, "pitch": 69, "duration": 7, "velocity": 89}, {"time": 2856, "pitch": 45, "duration": 1, "velocity": 57}, {"time": 2862, "pitch": 42, "duration": 15, "velocity": 62}, {"time": 2862, "pitch": 54, "duration": 7, "velocity": 62}, {"time": 2862, "pitch": 57, "duration": 9, "velocity": 80}, {"time": 2862, "pitch": 61, "duration": 9, "velocity": 74}, {"time": 2862, "pitch": 66, "duration": 9, "velocity": 82}, {"time": 2871, "pitch": 54, "duration": 5, "velocity": 81}, {"time": 2874, "pitch": 57, "duration": 4, "velocity": 99}, {"time": 2874, "pitch": 61, "duration": 5, "velocity": 90}, {"time": 2874, "pitch": 66, "duration": 5, "velocity": 101}, {"time": 2877, "pitch": 54, "duration": 4, "velocity": 74}, {"time": 2880, "pitch": 42, "duration": 1, "velocity": 81}, {"time": 2886, "pitch": 35, "duration": 19, "velocity": 77}, {"time": 2886, "pitch": 47, "duration": 13, "velocity": 72}, {"time": 2886, "pitch": 59, "duration": 7, "velocity": 97}, {"time": 2886, "pitch": 63, "duration": 6, "velocity": 90}, {"time": 2886, "pitch": 66, "duration": 7, "velocity": 78}, {"time": 2886, "pitch": 71, "duration": 6, "velocity": 90}, {"time": 2895, "pitch": 59, "duration": 7, "velocity": 100}, {"time": 2895, "pitch": 63, "duration": 7, "velocity": 88}, {"time": 2895, "pitch": 69, "duration": 7, "velocity": 102}, {"time": 2901, "pitch": 47, "duration": 4, "velocity": 79}, {"time": 2904, "pitch": 59, "duration": 10, "velocity": 94}, {"time": 2904, "pitch": 63, "duration": 10, "velocity": 97}, {"time": 2904, "pitch": 68, "duration": 10, "velocity": 101}, {"time": 2910, "pitch": 35, "duration": 18, "velocity": 84}, {"time": 2910, "pitch": 47, "duration": 11, "velocity": 85}, {"time": 2919, "pitch": 59, "duration": 7, "velocity": 104}, {"time": 2919, "pitch": 66, "duration": 11, "velocity": 107}, {"time": 2925, "pitch": 47, "duration": 5, "velocity": 79}, {"time": 2928, "pitch": 35, "duration": 2, "velocity": 75}, {"time": 2934, "pitch": 32, "duration": 16, "velocity": 95}, {"time": 2934, "pitch": 44, "duration": 7, "velocity": 90}, {"time": 2934, "pitch": 56, "duration": 1, "velocity": 54}, {"time": 2934, "pitch": 56, "duration": 1, "velocity": 99}, {"time": 2934, "pitch": 59, "duration": 3, "velocity": 62}, {"time": 2934, "pitch": 63, "duration": 5, "velocity": 79}, {"time": 2934, "pitch": 68, "duration": 5, "velocity": 99}, {"time": 2943, "pitch": 44, "duration": 5, "velocity": 50}, {"time": 2946, "pitch": 56, "duration": 5, "velocity": 99}, {"time": 2946, "pitch": 59, "duration": 3, "velocity": 62}, {"time": 2946, "pitch": 63, "duration": 5, "velocity": 79}, {"time": 2946, "pitch": 68, "duration": 5, "velocity": 99}, {"time": 2949, "pitch": 44, "duration": 4, "velocity": 49}, {"time": 2952, "pitch": 32, "duration": 3, "velocity": 88}, {"time": 2955, "pitch": 44, "duration": 2, "velocity": 45}, {"time": 2958, "pitch": 37, "duration": 15, "velocity": 74}, {"time": 2958, "pitch": 49, "duration": 7, "velocity": 69}, {"time": 2958, "pitch": 56, "duration": 8, "velocity": 84}, {"time": 2958, "pitch": 61, "duration": 8, "velocity": 72}, {"time": 2958, "pitch": 64, "duration": 8, "velocity": 74}, {"time": 2958, "pitch": 68, "duration": 8, "velocity": 86}, {"time": 2967, "pitch": 49, "duration": 4, "velocity": 63}, {"time": 2970, "pitch": 56, "duration": 7, "velocity": 100}, {"time": 2970, "pitch": 61, "duration": 6, "velocity": 75}, {"time": 2970, "pitch": 64, "duration": 6, "velocity": 83}, {"time": 2970, "pitch": 68, "duration": 6, "velocity": 94}, {"time": 2973, "pitch": 49, "duration": 4, "velocity": 59}, {"time": 2976, "pitch": 37, "duration": 1, "velocity": 69}, {"time": 2982, "pitch": 32, "duration": 16, "velocity": 59}, {"time": 2982, "pitch": 44, "duration": 6, "velocity": 56}, {"time": 2982, "pitch": 56, "duration": 7, "velocity": 77}, {"time": 2982, "pitch": 59, "duration": 7, "velocity": 57}, {"time": 2982, "pitch": 63, "duration": 7, "velocity": 65}, {"time": 2982, "pitch": 68, "duration": 7, "velocity": 76}, {"time": 2991, "pitch": 44, "duration": 5, "velocity": 62}, {"time": 2994, "pitch": 56, "duration": 8, "velocity": 95}, {"time": 2994, "pitch": 59, "duration": 6, "velocity": 58}, {"time": 2994, "pitch": 63, "duration": 8, "velocity": 64}, {"time": 2994, "pitch": 68, "duration": 9, "velocity": 101}, {"time": 3000, "pitch": 44, "duration": 3, "velocity": 72}, {"time": 3006, "pitch": 37, "duration": 16, "velocity": 69}, {"time": 3006, "pitch": 49, "duration": 7, "velocity": 71}, {"time": 3006, "pitch": 56, "duration": 8, "velocity": 85}, {"time": 3006, "pitch": 61, "duration": 8, "velocity": 69}, {"time": 3006, "pitch": 64, "duration": 8, "velocity": 71}, {"time": 3006, "pitch": 68, "duration": 8, "velocity": 86}, {"time": 3015, "pitch": 49, "duration": 4, "velocity": 62}, {"time": 3018, "pitch": 56, "duration": 4, "velocity": 91}, {"time": 3018, "pitch": 61, "duration": 5, "velocity": 53}, {"time": 3018, "pitch": 64, "duration": 4, "velocity": 63}, {"time": 3018, "pitch": 68, "duration": 5, "velocity": 87}, {"time": 3021, "pitch": 49, "duration": 5, "velocity": 49}, {"time": 3024, "pitch": 37, "duration": 1, "velocity": 50}, {"time": 3024, "pitch": 57, "duration": 3, "velocity": 83}, {"time": 3024, "pitch": 69, "duration": 2, "velocity": 87}, {"time": 3030, "pitch": 42, "duration": 42, "velocity": 88}, {"time": 3030, "pitch": 54, "duration": 6, "velocity": 90}, {"time": 3030, "pitch": 57, "duration": 8, "velocity": 90}, {"time": 3030, "pitch": 61, "duration": 8, "velocity": 72}, {"time": 3030, "pitch": 66, "duration": 7, "velocity": 26}, {"time": 3030, "pitch": 69, "duration": 8, "velocity": 89}, {"time": 3039, "pitch": 54, "duration": 5, "velocity": 57}, {"time": 3042, "pitch": 57, "duration": 7, "velocity": 94}, {"time": 3042, "pitch": 61, "duration": 8, "velocity": 72}, {"time": 3042, "pitch": 66, "duration": 8, "velocity": 79}, {"time": 3042, "pitch": 69, "duration": 8, "velocity": 89}, {"time": 3048, "pitch": 54, "duration": 2, "velocity": 53}, {"time": 3054, "pitch": 57, "duration": 7, "velocity": 94}, {"time": 3054, "pitch": 61, "duration": 8, "velocity": 81}, {"time": 3054, "pitch": 66, "duration": 7, "velocity": 82}, {"time": 3054, "pitch": 69, "duration": 7, "velocity": 89}, {"time": 3063, "pitch": 56, "duration": 3, "velocity": 97}, {"time": 3063, "pitch": 61, "duration": 1, "velocity": 25}, {"time": 3063, "pitch": 68, "duration": 4, "velocity": 95}, {"time": 3069, "pitch": 54, "duration": 6, "velocity": 87}, {"time": 3072, "pitch": 57, "duration": 2, "velocity": 100}, {"time": 3072, "pitch": 69, "duration": 2, "velocity": 104}, {"time": 3075, "pitch": 42, "duration": 1, "velocity": 75}, {"time": 3078, "pitch": 35, "duration": 38, "velocity": 93}, {"time": 3078, "pitch": 47, "duration": 12, "velocity": 99}, {"time": 3078, "pitch": 59, "duration": 5, "velocity": 104}, {"time": 3078, "pitch": 71, "duration": 4, "velocity": 106}, {"time": 3087, "pitch": 59, "duration": 5, "velocity": 113}, {"time": 3087, "pitch": 69, "duration": 4, "velocity": 115}, {"time": 3093, "pitch": 47, "duration": 12, "velocity": 79}, {"time": 3096, "pitch": 59, "duration": 6, "velocity": 113}, {"time": 3096, "pitch": 68, "duration": 7, "velocity": 113}, {"time": 3105, "pitch": 59, "duration": 7, "velocity": 108}, {"time": 3105, "pitch": 66, "duration": 7, "velocity": 113}, {"time": 3111, "pitch": 47, "duration": 4, "velocity": 94}, {"time": 3114, "pitch": 59, "duration": 4, "velocity": 110}, {"time": 3114, "pitch": 64, "duration": 7, "velocity": 100}, {"time": 3117, "pitch": 47, "duration": 6, "velocity": 80}, {"time": 3120, "pitch": 35, "duration": 1, "velocity": 79}, {"time": 3120, "pitch": 59, "duration": 3, "velocity": 100}, {"time": 3120, "pitch": 66, "duration": 4, "velocity": 99}, {"time": 3126, "pitch": 40, "duration": 19, "velocity": 91}, {"time": 3126, "pitch": 52, "duration": 14, "velocity": 102}, {"time": 3126, "pitch": 59, "duration": 9, "velocity": 110}, {"time": 3126, "pitch": 64, "duration": 8, "velocity": 92}, {"time": 3126, "pitch": 68, "duration": 9, "velocity": 105}, {"time": 3138, "pitch": 59, "duration": 8, "velocity": 113}, {"time": 3138, "pitch": 64, "duration": 7, "velocity": 94}, {"time": 3138, "pitch": 68, "duration": 8, "velocity": 103}, {"time": 3144, "pitch": 52, "duration": 4, "velocity": 59}, {"time": 3147, "pitch": 40, "duration": 2, "velocity": 69}, {"time": 3150, "pitch": 39, "duration": 16, "velocity": 72}, {"time": 3150, "pitch": 51, "duration": 7, "velocity": 76}, {"time": 3150, "pitch": 59, "duration": 9, "velocity": 97}, {"time": 3150, "pitch": 63, "duration": 9, "velocity": 90}, {"time": 3150, "pitch": 68, "duration": 9, "velocity": 95}, {"time": 3159, "pitch": 51, "duration": 5, "velocity": 54}, {"time": 3162, "pitch": 59, "duration": 4, "velocity": 104}, {"time": 3162, "pitch": 63, "duration": 5, "velocity": 95}, {"time": 3162, "pitch": 68, "duration": 4, "velocity": 97}, {"time": 3165, "pitch": 51, "duration": 4, "velocity": 63}, {"time": 3168, "pitch": 39, "duration": 4, "velocity": 59}, {"time": 3171, "pitch": 51, "duration": 2, "velocity": 52}, {"time": 3174, "pitch": 37, "duration": 16, "velocity": 80}, {"time": 3174, "pitch": 49, "duration": 14, "velocity": 72}, {"time": 3174, "pitch": 56, "duration": 8, "velocity": 91}, {"time": 3174, "pitch": 61, "duration": 7, "velocity": 77}, {"time": 3174, "pitch": 64, "duration": 7, "velocity": 75}, {"time": 3174, "pitch": 68, "duration": 8, "velocity": 89}, {"time": 3186, "pitch": 56, "duration": 5, "velocity": 106}, {"time": 3186, "pitch": 61, "duration": 6, "velocity": 84}, {"time": 3186, "pitch": 64, "duration": 6, "velocity": 84}, {"time": 3186, "pitch": 68, "duration": 6, "velocity": 105}, {"time": 3192, "pitch": 49, "duration": 3, "velocity": 69}, {"time": 3195, "pitch": 37, "duration": 3, "velocity": 80}, {"time": 3198, "pitch": 35, "duration": 16, "velocity": 59}, {"time": 3198, "pitch": 47, "duration": 7, "velocity": 42}, {"time": 3198, "pitch": 59, "duration": 9, "velocity": 84}, {"time": 3198, "pitch": 63, "duration": 8, "velocity": 79}, {"time": 3198, "pitch": 66, "duration": 9, "velocity": 75}, {"time": 3198, "pitch": 71, "duration": 8, "velocity": 82}, {"time": 3207, "pitch": 47, "duration": 4, "velocity": 94}, {"time": 3210, "pitch": 59, "duration": 7, "velocity": 113}, {"time": 3210, "pitch": 63, "duration": 7, "velocity": 100}, {"time": 3210, "pitch": 66, "duration": 6, "velocity": 99}, {"time": 3210, "pitch": 71, "duration": 6, "velocity": 110}, {"time": 3213, "pitch": 47, "duration": 7, "velocity": 85}, {"time": 3216, "pitch": 35, "duration": 2, "velocity": 98}, {"time": 3219, "pitch": 35, "duration": 2, "velocity": 93}, {"time": 3222, "pitch": 33, "duration": 18, "velocity": 105}, {"time": 3222, "pitch": 45, "duration": 8, "velocity": 99}, {"time": 3222, "pitch": 57, "duration": 9, "velocity": 106}, {"time": 3222, "pitch": 61, "duration": 9, "velocity": 87}, {"time": 3222, "pitch": 64, "duration": 8, "velocity": 92}, {"time": 3222, "pitch": 69, "duration": 9, "velocity": 96}, {"time": 3231, "pitch": 45, "duration": 5, "velocity": 77}, {"time": 3234, "pitch": 57, "duration": 8, "velocity": 108}, {"time": 3234, "pitch": 61, "duration": 8, "velocity": 91}, {"time": 3234, "pitch": 64, "duration": 8, "velocity": 91}, {"time": 3234, "pitch": 69, "duration": 8, "velocity": 102}, {"time": 3240, "pitch": 45, "duration": 3, "velocity": 75}, {"time": 3243, "pitch": 33, "duration": 1, "velocity": 69}, {"time": 3246, "pitch": 42, "duration": 18, "velocity": 80}, {"time": 3246, "pitch": 54, "duration": 7, "velocity": 95}, {"time": 3246, "pitch": 57, "duration": 10, "velocity": 102}, {"time": 3246, "pitch": 61, "duration": 9, "velocity": 90}, {"time": 3246, "pitch": 66, "duration": 9, "velocity": 97}, {"time": 3255, "pitch": 54, "duration": 5, "velocity": 79}, {"time": 3258, "pitch": 57, "duration": 6, "velocity": 104}, {"time": 3258, "pitch": 61, "duration": 6, "velocity": 94}, {"time": 3258, "pitch": 66, "duration": 7, "velocity": 101}, {"time": 3264, "pitch": 54, "duration": 3, "velocity": 81}, {"time": 3267, "pitch": 42, "duration": 1, "velocity": 76}, {"time": 3270, "pitch": 35, "duration": 37, "velocity": 87}, {"time": 3270, "pitch": 47, "duration": 11, "velocity": 91}, {"time": 3270, "pitch": 59, "duration": 7, "velocity": 104}, {"time": 3270, "pitch": 63, "duration": 7, "velocity": 92}, {"time": 3270, "pitch": 66, "duration": 7, "velocity": 91}, {"time": 3270, "pitch": 71, "duration": 6, "velocity": 93}, {"time": 3279, "pitch": 59, "duration": 7, "velocity": 111}, {"time": 3279, "pitch": 69, "duration": 7, "velocity": 110}, {"time": 3285, "pitch": 47, "duration": 5, "velocity": 88}, {"time": 3288, "pitch": 59, "duration": 9, "velocity": 102}, {"time": 3288, "pitch": 68, "duration": 10, "velocity": 105}, {"time": 3297, "pitch": 47, "duration": 5, "velocity": 99}, {"time": 3300, "pitch": 59, "duration": 4, "velocity": 106}, {"time": 3300, "pitch": 69, "duration": 5, "velocity": 106}, {"time": 3303, "pitch": 47, "duration": 11, "velocity": 85}, {"time": 3306, "pitch": 59, "duration": 5, "velocity": 108}, {"time": 3306, "pitch": 71, "duration": 5, "velocity": 115}, {"time": 3309, "pitch": 35, "duration": 5, "velocity": 109}, {"time": 3312, "pitch": 59, "duration": 4, "velocity": 95}, {"time": 3312, "pitch": 68, "duration": 4, "velocity": 101}, {"time": 3318, "pitch": 32, "duration": 16, "velocity": 94}, {"time": 3318, "pitch": 44, "duration": 8, "velocity": 97}, {"time": 3318, "pitch": 59, "duration": 10, "velocity": 100}, {"time": 3318, "pitch": 63, "duration": 9, "velocity": 88}, {"time": 3318, "pitch": 68, "duration": 9, "velocity": 99}, {"time": 3327, "pitch": 44, "duration": 5, "velocity": 88}, {"time": 3330, "pitch": 59, "duration": 7, "velocity": 111}, {"time": 3330, "pitch": 63, "duration": 7, "velocity": 100}, {"time": 3330, "pitch": 68, "duration": 8, "velocity": 107}, {"time": 3333, "pitch": 44, "duration": 4, "velocity": 79}, {"time": 3336, "pitch": 32, "duration": 4, "velocity": 94}, {"time": 3339, "pitch": 44, "duration": 1, "velocity": 72}, {"time": 3342, "pitch": 37, "duration": 18, "velocity": 95}, {"time": 3342, "pitch": 49, "duration": 8, "velocity": 94}, {"time": 3342, "pitch": 61, "duration": 10, "velocity": 90}, {"time": 3342, "pitch": 64, "duration": 9, "velocity": 77}, {"time": 3342, "pitch": 68, "duration": 10, "velocity": 86}, {"time": 3351, "pitch": 49, "duration": 4, "velocity": 51}, {"time": 3354, "pitch": 61, "duration": 7, "velocity": 83}, {"time": 3354, "pitch": 64, "duration": 6, "velocity": 69}, {"time": 3354, "pitch": 68, "duration": 7, "velocity": 74}, {"time": 3360, "pitch": 49, "duration": 3, "velocity": 63}, {"time": 3363, "pitch": 37, "duration": 1, "velocity": 64}, {"time": 3366, "pitch": 32, "duration": 16, "velocity": 87}, {"time": 3366, "pitch": 44, "duration": 7, "velocity": 79}, {"time": 3366, "pitch": 59, "duration": 9, "velocity": 100}, {"time": 3366, "pitch": 63, "duration": 9, "velocity": 90}, {"time": 3366, "pitch": 68, "duration": 8, "velocity": 95}, {"time": 3375, "pitch": 44, "duration": 5, "velocity": 97}, {"time": 3378, "pitch": 59, "duration": 5, "velocity": 106}, {"time": 3378, "pitch": 63, "duration": 5, "velocity": 97}, {"time": 3378, "pitch": 68, "duration": 6, "velocity": 103}, {"time": 3381, "pitch": 44, "duration": 4, "velocity": 80}, {"time": 3384, "pitch": 32, "duration": 2, "velocity": 91}, {"time": 3390, "pitch": 37, "duration": 16, "velocity": 97}, {"time": 3390, "pitch": 49, "duration": 7, "velocity": 92}, {"time": 3390, "pitch": 61, "duration": 8, "velocity": 95}, {"time": 3390, "pitch": 64, "duration": 7, "velocity": 67}, {"time": 3390, "pitch": 68, "duration": 8, "velocity": 92}, {"time": 3399, "pitch": 49, "duration": 5, "velocity": 97}, {"time": 3402, "pitch": 61, "duration": 9, "velocity": 102}, {"time": 3402, "pitch": 64, "duration": 9, "velocity": 85}, {"time": 3402, "pitch": 68, "duration": 9, "velocity": 97}, {"time": 3405, "pitch": 49, "duration": 4, "velocity": 88}, {"time": 3408, "pitch": 37, "duration": 2, "velocity": 84}, {"time": 3411, "pitch": 32, "duration": 1, "velocity": 97}, {"time": 3411, "pitch": 44, "duration": 1, "velocity": 92}, {"time": 3414, "pitch": 30, "duration": 38, "velocity": 111}, {"time": 3414, "pitch": 42, "duration": 8, "velocity": 104}, {"time": 3423, "pitch": 42, "duration": 12, "velocity": 84}, {"time": 3426, "pitch": 57, "duration": 5, "velocity": 108}, {"time": 3426, "pitch": 61, "duration": 5, "velocity": 95}, {"time": 3426, "pitch": 66, "duration": 5, "velocity": 103}, {"time": 3435, "pitch": 42, "duration": 3, "velocity": 22}, {"time": 3435, "pitch": 57, "duration": 7, "velocity": 84}, {"time": 3435, "pitch": 61, "duration": 7, "velocity": 67}, {"time": 3435, "pitch": 68, "duration": 7, "velocity": 84}, {"time": 3441, "pitch": 42, "duration": 4, "velocity": 83}, {"time": 3444, "pitch": 57, "duration": 5, "velocity": 108}, {"time": 3444, "pitch": 61, "duration": 5, "velocity": 92}, {"time": 3444, "pitch": 69, "duration": 4, "velocity": 106}, {"time": 3450, "pitch": 42, "duration": 4, "velocity": 81}, {"time": 3450, "pitch": 57, "duration": 4, "velocity": 75}, {"time": 3450, "pitch": 61, "duration": 5, "velocity": 67}, {"time": 3450, "pitch": 68, "duration": 4, "velocity": 94}, {"time": 3453, "pitch": 30, "duration": 2, "velocity": 72}, {"time": 3456, "pitch": 57, "duration": 2, "velocity": 80}, {"time": 3456, "pitch": 61, "duration": 2, "velocity": 63}, {"time": 3456, "pitch": 66, "duration": 2, "velocity": 84}, {"time": 3462, "pitch": 40, "duration": 38, "velocity": 84}, {"time": 3462, "pitch": 52, "duration": 8, "velocity": 77}, {"time": 3462, "pitch": 56, "duration": 13, "velocity": 78}, {"time": 3468, "pitch": 47, "duration": 31, "velocity": 69}, {"time": 3474, "pitch": 52, "duration": 8, "velocity": 82}, {"time": 3480, "pitch": 54, "duration": 7, "velocity": 92}, {"time": 3486, "pitch": 56, "duration": 7, "velocity": 87}, {"time": 3492, "pitch": 59, "duration": 8, "velocity": 80}, {"time": 3498, "pitch": 52, "duration": 1, "velocity": 65}, {"time": 3510, "pitch": 44, "duration": 39, "velocity": 83}, {"time": 3510, "pitch": 56, "duration": 9, "velocity": 72}, {"time": 3510, "pitch": 59, "duration": 13, "velocity": 75}, {"time": 3516, "pitch": 51, "duration": 16, "velocity": 72}, {"time": 3522, "pitch": 56, "duration": 8, "velocity": 76}, {"time": 3528, "pitch": 59, "duration": 8, "velocity": 85}, {"time": 3534, "pitch": 49, "duration": 15, "velocity": 86}, {"time": 3534, "pitch": 64, "duration": 13, "velocity": 81}, {"time": 3540, "pitch": 52, "duration": 9, "velocity": 67}, {"time": 3546, "pitch": 63, "duration": 11, "velocity": 89}, {"time": 3558, "pitch": 44, "duration": 20, "velocity": 85}, {"time": 3558, "pitch": 56, "duration": 8, "velocity": 70}, {"time": 3558, "pitch": 59, "duration": 15, "velocity": 79}, {"time": 3564, "pitch": 51, "duration": 11, "velocity": 67}, {"time": 3570, "pitch": 56, "duration": 11, "velocity": 68}, {"time": 3582, "pitch": 49, "duration": 13, "velocity": 83}, {"time": 3582, "pitch": 64, "duration": 13, "velocity": 81}, {"time": 3588, "pitch": 56, "duration": 7, "velocity": 73}, {"time": 3594, "pitch": 63, "duration": 12, "velocity": 85}, {"time": 3606, "pitch": 42, "duration": 18, "velocity": 75}, {"time": 3606, "pitch": 61, "duration": 13, "velocity": 82}, {"time": 3612, "pitch": 49, "duration": 10, "velocity": 73}, {"time": 3618, "pitch": 57, "duration": 3, "velocity": 71}, {"time": 3630, "pitch": 47, "duration": 19, "velocity": 82}, {"time": 3630, "pitch": 54, "duration": 14, "velocity": 73}, {"time": 3630, "pitch": 59, "duration": 14, "velocity": 76}, {"time": 3648, "pitch": 57, "duration": 4, "velocity": 73}, {"time": 3654, "pitch": 45, "duration": 48, "velocity": 74}, {"time": 3654, "pitch": 52, "duration": 4, "velocity": 76}, {"time": 3654, "pitch": 57, "duration": 13, "velocity": 65}, {"time": 3660, "pitch": 52, "duration": 8, "velocity": 77}, {"time": 3666, "pitch": 61, "duration": 6, "velocity": 85}, {"time": 3672, "pitch": 57, "duration": 3, "velocity": 81}, {"time": 3678, "pitch": 64, "duration": 7, "velocity": 86}, {"time": 3684, "pitch": 52, "duration": 6, "velocity": 70}, {"time": 3690, "pitch": 61, "duration": 11, "velocity": 74}, {"time": 3702, "pitch": 45, "duration": 14, "velocity": 73}, {"time": 3702, "pitch": 57, "duration": 11, "velocity": 61}, {"time": 3702, "pitch": 61, "duration": 12, "velocity": 69}, {"time": 3702, "pitch": 64, "duration": 12, "velocity": 66}, {"time": 3738, "pitch": 64, "duration": 8, "velocity": 83}, {"time": 3750, "pitch": 44, "duration": 62, "velocity": 77}, {"time": 3750, "pitch": 56, "duration": 7, "velocity": 73}, {"time": 3750, "pitch": 59, "duration": 13, "velocity": 71}, {"time": 3756, "pitch": 51, "duration": 56, "velocity": 74}, {"time": 3762, "pitch": 54, "duration": 13, "velocity": 81}, {"time": 3768, "pitch": 59, "duration": 15, "velocity": 87}, {"time": 3774, "pitch": 63, "duration": 19, "velocity": 85}, {"time": 3780, "pitch": 54, "duration": 8, "velocity": 73}, {"time": 3786, "pitch": 59, "duration": 7, "velocity": 72}, {"time": 3798, "pitch": 56, "duration": 5, "velocity": 72}, {"time": 3798, "pitch": 59, "duration": 5, "velocity": 74}, {"time": 3798, "pitch": 63, "duration": 5, "velocity": 79}, {"time": 3822, "pitch": 68, "duration": 10, "velocity": 86}, {"time": 3846, "pitch": 54, "duration": 12, "velocity": 77}, {"time": 3846, "pitch": 61, "duration": 8, "velocity": 74}, {"time": 3846, "pitch": 42, "duration": 49, "velocity": 80}, {"time": 3852, "pitch": 49, "duration": 41, "velocity": 72}, {"time": 3858, "pitch": 56, "duration": 8, "velocity": 78}, {"time": 3865, "pitch": 57, "duration": 7, "velocity": 89}, {"time": 3871, "pitch": 61, "duration": 13, "velocity": 83}, {"time": 3901, "pitch": 54, "duration": 6, "velocity": 74}, {"time": 3902, "pitch": 35, "duration": 4, "velocity": 82}, {"time": 3903, "pitch": 59, "duration": 7, "velocity": 70}, {"time": 3905, "pitch": 63, "duration": 8, "velocity": 78}, {"time": 3911, "pitch": 47, "duration": 33, "velocity": 77}, {"time": 3915, "pitch": 54, "duration": 27, "velocity": 72}, {"time": 3918, "pitch": 59, "duration": 3, "velocity": 76}, {"time": 3921, "pitch": 61, "duration": 2, "velocity": 75}, {"time": 3924, "pitch": 63, "duration": 2, "velocity": 80}, {"time": 3927, "pitch": 66, "duration": 4, "velocity": 68}, {"time": 3930, "pitch": 71, "duration": 3, "velocity": 76}, {"time": 3934, "pitch": 73, "duration": 3, "velocity": 80}, {"time": 3940, "pitch": 75, "duration": 3, "velocity": 75}, {"time": 3959, "pitch": 71, "duration": 4, "velocity": 64}, {"time": 3959, "pitch": 40, "duration": 89, "velocity": 85}, {"time": 3962, "pitch": 76, "duration": 4, "velocity": 72}, {"time": 3963, "pitch": 83, "duration": 8, "velocity": 86}, {"time": 3963, "pitch": 47, "duration": 67, "velocity": 74}, {"time": 3970, "pitch": 71, "duration": 2, "velocity": 66}, {"time": 3972, "pitch": 80, "duration": 4, "velocity": 80}, {"time": 3977, "pitch": 71, "duration": 2, "velocity": 64}, {"time": 3978, "pitch": 75, "duration": 3, "velocity": 83}, {"time": 3985, "pitch": 78, "duration": 2, "velocity": 80}, {"time": 3991, "pitch": 73, "duration": 3, "velocity": 81}, {"time": 3997, "pitch": 75, "duration": 2, "velocity": 74}, {"time": 4002, "pitch": 71, "duration": 4, "velocity": 70}, {"time": 4008, "pitch": 68, "duration": 3, "velocity": 66}, {"time": 4015, "pitch": 63, "duration": 4, "velocity": 75}, {"time": 4023, "pitch": 61, "duration": 4, "velocity": 54}, {"time": 4034, "pitch": 47, "duration": 14, "velocity": 64}, {"time": 4037, "pitch": 52, "duration": 12, "velocity": 54}, {"time": 4037, "pitch": 56, "duration": 12, "velocity": 65}], "annotations": [{"time": 6, "annotation": {"number": 64, "value": 127}, "group": "control_change"}, {"time": 52, "annotation": {"number": 64, "value": 0}, "group": "control_change"}, {"time": 55, "annotation": {"number": 64, "value": 127}, "group": "control_change"}, {"time": 101, "annotation": {"number": 64, "value": 0}, "group": "control_change"}, {"time": 103, "annotation": {"number": 64, "value": 127}, "group": "control_change"}, {"time": 148, "annotation": {"number": 64, "value": 0}, "group": "control_change"}, {"time": 151, "annotation": {"number": 64, "value": 127}, "group": "control_change"}, {"time": 198, "annotation": {"number": 64, "value": 127}, "group": "control_change"}, {"time": 246, "annotation": {"number": 64, "value": 0}, "group": "control_change"}, {"time": 254, "annotation": {"number": 64, "value": 127}, "group": "control_change"}, {"time": 294, "annotation": {"number": 64, "value": 0}, "group": "control_change"}, {"time": 300, "annotation": {"number": 64, "value": 127}, "group": "control_change"}, {"time": 341, "annotation": {"number": 64, "value": 127}, "group": "control_change"}, {"time": 389, "annotation": {"number": 64, "value": 0}, "group": "control_change"}, {"time": 391, "annotation": {"number": 64, "value": 127}, "group": "control_change"}, {"time": 436, "annotation": {"number": 64, "value": 0}, "group": "control_change"}, {"time": 445, "annotation": {"number": 64, "value": 127}, "group": "control_change"}, {"time": 445, "annotation": {"number": 64, "value": 0}, "group": "control_change"}, {"time": 449, "annotation": {"number": 64, "value": 127}, "group": "control_change"}, {"time": 486, "annotation": {"number": 64, "value": 0}, "group": "control_change"}, {"time": 489, "annotation": {"number": 64, "value": 127}, "group": "control_change"}, {"time": 531, "annotation": {"number": 64, "value": 0}, "group": "control_change"}, {"time": 538, "annotation": {"number": 64, "value": 127}, "group": "control_change"}, {"time": 582, "annotation": {"number": 64, "value": 0}, "group": "control_change"}, {"time": 589, "annotation": {"number": 64, "value": 127}, "group": "control_change"}, {"time": 628, "annotation": {"number": 64, "value": 0}, "group": "control_change"}, {"time": 632, "annotation": {"number": 64, "value": 127}, "group": "control_change"}, {"time": 678, "annotation": {"number": 64, "value": 0}, "group": "control_change"}, {"time": 683, "annotation": {"number": 64, "value": 127}, "group": "control_change"}, {"time": 700, "annotation": {"number": 64, "value": 0}, "group": "control_change"}, {"time": 703, "annotation": {"number": 64, "value": 127}, "group": "control_change"}, {"time": 726, "annotation": {"number": 64, "value": 0}, "group": "control_change"}, {"time": 728, "annotation": {"number": 64, "value": 127}, "group": "control_change"}, {"time": 750, "annotation": {"number": 64, "value": 0}, "group": "control_change"}, {"time": 753, "annotation": {"number": 64, "value": 127}, "group": "control_change"}, {"time": 772, "annotation": {"number": 64, "value": 0}, "group": "control_change"}, {"time": 774, "annotation": {"number": 64, "value": 127}, "group": "control_change"}, {"time": 817, "annotation": {"number": 64, "value": 0}, "group": "control_change"}, {"time": 829, "annotation": {"number": 64, "value": 127}, "group": "control_change"}, {"time": 829, "annotation": {"number": 64, "value": 0}, "group": "control_change"}, {"time": 833, "annotation": {"number": 64, "value": 127}, "group": "control_change"}, {"time": 870, "annotation": {"number": 64, "value": 127}, "group": "control_change"}, {"time": 870, "annotation": {"number": 64, "value": 0}, "group": "control_change"}, {"time": 915, "annotation": {"number": 64, "value": 0}, "group": "control_change"}, {"time": 922, "annotation": {"number": 64, "value": 127}, "group": "control_change"}, {"time": 966, "annotation": {"number": 64, "value": 0}, "group": "control_change"}, {"time": 973, "annotation": {"number": 64, "value": 127}, "group": "control_change"}, {"time": 1012, "annotation": {"number": 64, "value": 0}, "group": "control_change"}, {"time": 1016, "annotation": {"number": 64, "value": 127}, "group": "control_change"}, {"time": 1062, "annotation": {"number": 64, "value": 0}, "group": "control_change"}, {"time": 1067, "annotation": {"number": 64, "value": 127}, "group": "control_change"}, {"time": 1084, "annotation": {"number": 64, "value": 0}, "group": "control_change"}, {"time": 1087, "annotation": {"number": 64, "value": 127}, "group": "control_change"}, {"time": 1110, "annotation": {"number": 64, "value": 0}, "group": "control_change"}, {"time": 1112, "annotation": {"number": 64, "value": 127}, "group": "control_change"}, {"time": 1134, "annotation": {"number": 64, "value": 0}, "group": "control_change"}, {"time": 1137, "annotation": {"number": 64, "value": 127}, "group": "control_change"}, {"time": 1156, "annotation": {"number": 64, "value": 0}, "group": "control_change"}, {"time": 1158, "annotation": {"number": 64, "value": 127}, "group": "control_change"}, {"time": 1201, "annotation": {"number": 64, "value": 0}, "group": "control_change"}, {"time": 1205, "annotation": {"number": 64, "value": 127}, "group": "control_change"}, {"time": 1251, "annotation": {"number": 64, "value": 0}, "group": "control_change"}, {"time": 1256, "annotation": {"number": 64, "value": 71}, "group": "control_change"}, {"time": 1256, "annotation": {"number": 64, "value": 127}, "group": "control_change"}, {"time": 1279, "annotation": {"number": 64, "value": 71}, "group": "control_change"}, {"time": 1280, "annotation": {"number": 64, "value": 0}, "group": "control_change"}, {"time": 1283, "annotation": {"number": 64, "value": 71}, "group": "control_change"}, {"time": 1283, "annotation": {"number": 64, "value": 127}, "group": "control_change"}, {"time": 1302, "annotation": {"number": 64, "value": 71}, "group": "control_change"}, {"time": 1303, "annotation": {"number": 64, "value": 0}, "group": "control_change"}, {"time": 1307, "annotation": {"number": 64, "value": 71}, "group": "control_change"}, {"time": 1308, "annotation": {"number": 64, "value": 127}, "group": "control_change"}, {"time": 1326, "annotation": {"number": 64, "value": 71}, "group": "control_change"}, {"time": 1327, "annotation": {"number": 64, "value": 0}, "group": "control_change"}, {"time": 1331, "annotation": {"number": 64, "value": 71}, "group": "control_change"}, {"time": 1332, "annotation": {"number": 64, "value": 127}, "group": "control_change"}, {"time": 1351, "annotation": {"number": 64, "value": 71}, "group": "control_change"}, {"time": 1351, "annotation": {"number": 64, "value": 0}, "group": "control_change"}, {"time": 1355, "annotation": {"number": 64, "value": 71}, "group": "control_change"}, {"time": 1356, "annotation": {"number": 64, "value": 127}, "group": "control_change"}, {"time": 1375, "annotation": {"number": 64, "value": 71}, "group": "control_change"}, {"time": 1375, "annotation": {"number": 64, "value": 0}, "group": "control_change"}, {"time": 1379, "annotation": {"number": 64, "value": 71}, "group": "control_change"}, {"time": 1380, "annotation": {"number": 64, "value": 127}, "group": "control_change"}, {"time": 1398, "annotation": {"number": 64, "value": 71}, "group": "control_change"}, {"time": 1399, "annotation": {"number": 64, "value": 0}, "group": "control_change"}, {"time": 1401, "annotation": {"number": 64, "value": 71}, "group": "control_change"}, {"time": 1402, "annotation": {"number": 64, "value": 127}, "group": "control_change"}, {"time": 1422, "annotation": {"number": 64, "value": 71}, "group": "control_change"}, {"time": 1422, "annotation": {"number": 64, "value": 0}, "group": "control_change"}, {"time": 1425, "annotation": {"number": 64, "value": 71}, "group": "control_change"}, {"time": 1425, "annotation": {"number": 64, "value": 127}, "group": "control_change"}, {"time": 1447, "annotation": {"number": 64, "value": 71}, "group": "control_change"}, {"time": 1447, "annotation": {"number": 64, "value": 0}, "group": "control_change"}, {"time": 1451, "annotation": {"number": 64, "value": 71}, "group": "control_change"}, {"time": 1452, "annotation": {"number": 64, "value": 127}, "group": "control_change"}, {"time": 1471, "annotation": {"number": 64, "value": 71}, "group": "control_change"}, {"time": 1471, "annotation": {"number": 64, "value": 0}, "group": "control_change"}, {"time": 1476, "annotation": {"number": 64, "value": 71}, "group": "control_change"}, {"time": 1477, "annotation": {"number": 64, "value": 127}, "group": "control_change"}, {"time": 1495, "annotation": {"number": 64, "value": 71}, "group": "control_change"}, {"time": 1495, "annotation": {"number": 64, "value": 0}, "group": "control_change"}, {"time": 1499, "annotation": {"number": 64, "value": 71}, "group": "control_change"}, {"time": 1500, "annotation": {"number": 64, "value": 127}, "group": "control_change"}, {"time": 1518, "annotation": {"number": 64, "value": 71}, "group": "control_change"}, {"time": 1519, "annotation": {"number": 64, "value": 0}, "group": "control_change"}, {"time": 1522, "annotation": {"number": 64, "value": 71}, "group": "control_change"}, {"time": 1523, "annotation": {"number": 64, "value": 127}, "group": "control_change"}, {"time": 1542, "annotation": {"number": 64, "value": 71}, "group": "control_change"}, {"time": 1543, "annotation": {"number": 64, "value": 0}, "group": "control_change"}, {"time": 1546, "annotation": {"number": 64, "value": 71}, "group": "control_change"}, {"time": 1547, "annotation": {"number": 64, "value": 127}, "group": "control_change"}, {"time": 1590, "annotation": {"number": 64, "value": 71}, "group": "control_change"}, {"time": 1591, "annotation": {"number": 64, "value": 0}, "group": "control_change"}, {"time": 1593, "annotation": {"number": 64, "value": 71}, "group": "control_change"}, {"time": 1594, "annotation": {"number": 64, "value": 127}, "group": "control_change"}, {"time": 1638, "annotation": {"number": 64, "value": 71}, "group": "control_change"}, {"time": 1638, "annotation": {"number": 64, "value": 0}, "group": "control_change"}, {"time": 1643, "annotation": {"number": 64, "value": 71}, "group": "control_change"}, {"time": 1644, "annotation": {"number": 64, "value": 127}, "group": "control_change"}, {"time": 1663, "annotation": {"number": 64, "value": 71}, "group": "control_change"}, {"time": 1663, "annotation": {"number": 64, "value": 0}, "group": "control_change"}, {"time": 1667, "annotation": {"number": 64, "value": 71}, "group": "control_change"}, {"time": 1668, "annotation": {"number": 64, "value": 127}, "group": "control_change"}, {"time": 1687, "annotation": {"number": 64, "value": 71}, "group": "control_change"}, {"time": 1687, "annotation": {"number": 64, "value": 0}, "group": "control_change"}, {"time": 1691, "annotation": {"number": 64, "value": 71}, "group": "control_change"}, {"time": 1691, "annotation": {"number": 64, "value": 127}, "group": "control_change"}, {"time": 1710, "annotation": {"number": 64, "value": 71}, "group": "control_change"}, {"time": 1711, "annotation": {"number": 64, "value": 0}, "group": "control_change"}, {"time": 1713, "annotation": {"number": 64, "value": 71}, "group": "control_change"}, {"time": 1714, "annotation": {"number": 64, "value": 127}, "group": "control_change"}, {"time": 1734, "annotation": {"number": 64, "value": 71}, "group": "control_change"}, {"time": 1735, "annotation": {"number": 64, "value": 0}, "group": "control_change"}, {"time": 1738, "annotation": {"number": 64, "value": 71}, "group": "control_change"}, {"time": 1739, "annotation": {"number": 64, "value": 127}, "group": "control_change"}, {"time": 1758, "annotation": {"number": 64, "value": 71}, "group": "control_change"}, {"time": 1758, "annotation": {"number": 64, "value": 0}, "group": "control_change"}, {"time": 1762, "annotation": {"number": 64, "value": 71}, "group": "control_change"}, {"time": 1763, "annotation": {"number": 64, "value": 127}, "group": "control_change"}, {"time": 1782, "annotation": {"number": 64, "value": 71}, "group": "control_change"}, {"time": 1782, "annotation": {"number": 64, "value": 0}, "group": "control_change"}, {"time": 1784, "annotation": {"number": 64, "value": 71}, "group": "control_change"}, {"time": 1785, "annotation": {"number": 64, "value": 127}, "group": "control_change"}, {"time": 1831, "annotation": {"number": 64, "value": 71}, "group": "control_change"}, {"time": 1831, "annotation": {"number": 64, "value": 0}, "group": "control_change"}, {"time": 1836, "annotation": {"number": 64, "value": 71}, "group": "control_change"}, {"time": 1837, "annotation": {"number": 64, "value": 127}, "group": "control_change"}, {"time": 1855, "annotation": {"number": 64, "value": 71}, "group": "control_change"}, {"time": 1855, "annotation": {"number": 64, "value": 0}, "group": "control_change"}, {"time": 1861, "annotation": {"number": 64, "value": 71}, "group": "control_change"}, {"time": 1861, "annotation": {"number": 64, "value": 127}, "group": "control_change"}, {"time": 1864, "annotation": {"number": 64, "value": 71}, "group": "control_change"}, {"time": 1866, "annotation": {"number": 64, "value": 127}, "group": "control_change"}, {"time": 1879, "annotation": {"number": 64, "value": 71}, "group": "control_change"}, {"time": 1879, "annotation": {"number": 64, "value": 0}, "group": "control_change"}, {"time": 1882, "annotation": {"number": 64, "value": 71}, "group": "control_change"}, {"time": 1882, "annotation": {"number": 64, "value": 127}, "group": "control_change"}, {"time": 1903, "annotation": {"number": 64, "value": 71}, "group": "control_change"}, {"time": 1903, "annotation": {"number": 64, "value": 0}, "group": "control_change"}, {"time": 1906, "annotation": {"number": 64, "value": 71}, "group": "control_change"}, {"time": 1907, "annotation": {"number": 64, "value": 127}, "group": "control_change"}, {"time": 1927, "annotation": {"number": 64, "value": 71}, "group": "control_change"}, {"time": 1927, "annotation": {"number": 64, "value": 0}, "group": "control_change"}, {"time": 1931, "annotation": {"number": 64, "value": 71}, "group": "control_change"}, {"time": 1931, "annotation": {"number": 64, "value": 127}, "group": "control_change"}, {"time": 1948, "annotation": {"number": 64, "value": 71}, "group": "control_change"}, {"time": 1949, "annotation": {"number": 64, "value": 0}, "group": "control_change"}, {"time": 1950, "annotation": {"number": 64, "value": 71}, "group": "control_change"}, {"time": 1951, "annotation": {"number": 64, "value": 127}, "group": "control_change"}, {"time": 1974, "annotation": {"number": 64, "value": 0}, "group": "control_change"}, {"time": 1975, "annotation": {"number": 64, "value": 0}, "group": "control_change"}, {"time": 1980, "annotation": {"number": 64, "value": 127}, "group": "control_change"}, {"time": 2020, "annotation": {"number": 64, "value": 0}, "group": "control_change"}, {"time": 2022, "annotation": {"number": 64, "value": 127}, "group": "control_change"}, {"time": 2038, "annotation": {"number": 64, "value": 0}, "group": "control_change"}, {"time": 2041, "annotation": {"number": 64, "value": 127}, "group": "control_change"}, {"time": 2067, "annotation": {"number": 64, "value": 0}, "group": "control_change"}, {"time": 2070, "annotation": {"number": 64, "value": 127}, "group": "control_change"}, {"time": 2116, "annotation": {"number": 64, "value": 0}, "group": "control_change"}, {"time": 2118, "annotation": {"number": 64, "value": 127}, "group": "control_change"}, {"time": 2118, "annotation": {"number": 64, "value": 0}, "group": "control_change"}, {"time": 2169, "annotation": {"number": 64, "value": 0}, "group": "control_change"}, {"time": 2190, "annotation": {"number": 64, "value": 127}, "group": "control_change"}, {"time": 2198, "annotation": {"number": 64, "value": 0}, "group": "control_change"}, {"time": 2200, "annotation": {"number": 64, "value": 127}, "group": "control_change"}, {"time": 2210, "annotation": {"number": 64, "value": 0}, "group": "control_change"}, {"time": 2213, "annotation": {"number": 64, "value": 127}, "group": "control_change"}, {"time": 2213, "annotation": {"number": 64, "value": 0}, "group": "control_change"}, {"time": 2214, "annotation": {"number": 64, "value": 127}, "group": "control_change"}, {"time": 2250, "annotation": {"number": 64, "value": 127}, "group": "control_change"}, {"time": 2250, "annotation": {"number": 64, "value": 0}, "group": "control_change"}, {"time": 2259, "annotation": {"number": 64, "value": 0}, "group": "control_change"}, {"time": 2262, "annotation": {"number": 64, "value": 127}, "group": "control_change"}, {"time": 2306, "annotation": {"number": 64, "value": 0}, "group": "control_change"}, {"time": 2317, "annotation": {"number": 64, "value": 127}, "group": "control_change"}, {"time": 2317, "annotation": {"number": 64, "value": 0}, "group": "control_change"}, {"time": 2321, "annotation": {"number": 64, "value": 127}, "group": "control_change"}, {"time": 2358, "annotation": {"number": 64, "value": 127}, "group": "control_change"}, {"time": 2358, "annotation": {"number": 64, "value": 0}, "group": "control_change"}, {"time": 2403, "annotation": {"number": 64, "value": 0}, "group": "control_change"}, {"time": 2410, "annotation": {"number": 64, "value": 127}, "group": "control_change"}, {"time": 2454, "annotation": {"number": 64, "value": 0}, "group": "control_change"}, {"time": 2461, "annotation": {"number": 64, "value": 127}, "group": "control_change"}, {"time": 2500, "annotation": {"number": 64, "value": 0}, "group": "control_change"}, {"time": 2504, "annotation": {"number": 64, "value": 127}, "group": "control_change"}, {"time": 2550, "annotation": {"number": 64, "value": 0}, "group": "control_change"}, {"time": 2555, "annotation": {"number": 64, "value": 127}, "group": "control_change"}, {"time": 2572, "annotation": {"number": 64, "value": 0}, "group": "control_change"}, {"time": 2575, "annotation": {"number": 64, "value": 127}, "group": "control_change"}, {"time": 2598, "annotation": {"number": 64, "value": 0}, "group": "control_change"}, {"time": 2600, "annotation": {"number": 64, "value": 127}, "group": "control_change"}, {"time": 2622, "annotation": {"number": 64, "value": 0}, "group": "control_change"}, {"time": 2625, "annotation": {"number": 64, "value": 127}, "group": "control_change"}, {"time": 2644, "annotation": {"number": 64, "value": 0}, "group": "control_change"}, {"time": 2646, "annotation": {"number": 64, "value": 127}, "group": "control_change"}, {"time": 2689, "annotation": {"number": 64, "value": 0}, "group": "control_change"}, {"time": 2693, "annotation": {"number": 64, "value": 127}, "group": "control_change"}, {"time": 2739, "annotation": {"number": 64, "value": 0}, "group": "control_change"}, {"time": 2744, "annotation": {"number": 64, "value": 71}, "group": "control_change"}, {"time": 2744, "annotation": {"number": 64, "value": 127}, "group": "control_change"}, {"time": 2767, "annotation": {"number": 64, "value": 71}, "group": "control_change"}, {"time": 2768, "annotation": {"number": 64, "value": 0}, "group": "control_change"}, {"time": 2771, "annotation": {"number": 64, "value": 71}, "group": "control_change"}, {"time": 2771, "annotation": {"number": 64, "value": 127}, "group": "control_change"}, {"time": 2790, "annotation": {"number": 64, "value": 71}, "group": "control_change"}, {"time": 2791, "annotation": {"number": 64, "value": 0}, "group": "control_change"}, {"time": 2795, "annotation": {"number": 64, "value": 71}, "group": "control_change"}, {"time": 2796, "annotation": {"number": 64, "value": 127}, "group": "control_change"}, {"time": 2814, "annotation": {"number": 64, "value": 71}, "group": "control_change"}, {"time": 2815, "annotation": {"number": 64, "value": 0}, "group": "control_change"}, {"time": 2819, "annotation": {"number": 64, "value": 71}, "group": "control_change"}, {"time": 2820, "annotation": {"number": 64, "value": 127}, "group": "control_change"}, {"time": 2839, "annotation": {"number": 64, "value": 71}, "group": "control_change"}, {"time": 2840, "annotation": {"number": 64, "value": 0}, "group": "control_change"}, {"time": 2843, "annotation": {"number": 64, "value": 71}, "group": "control_change"}, {"time": 2844, "annotation": {"number": 64, "value": 127}, "group": "control_change"}, {"time": 2863, "annotation": {"number": 64, "value": 71}, "group": "control_change"}, {"time": 2863, "annotation": {"number": 64, "value": 0}, "group": "control_change"}, {"time": 2867, "annotation": {"number": 64, "value": 71}, "group": "control_change"}, {"time": 2868, "annotation": {"number": 64, "value": 127}, "group": "control_change"}, {"time": 2886, "annotation": {"number": 64, "value": 71}, "group": "control_change"}, {"time": 2887, "annotation": {"number": 64, "value": 0}, "group": "control_change"}, {"time": 2889, "annotation": {"number": 64, "value": 71}, "group": "control_change"}, {"time": 2890, "annotation": {"number": 64, "value": 127}, "group": "control_change"}, {"time": 2910, "annotation": {"number": 64, "value": 71}, "group": "control_change"}, {"time": 2910, "annotation": {"number": 64, "value": 0}, "group": "control_change"}, {"time": 2913, "annotation": {"number": 64, "value": 71}, "group": "control_change"}, {"time": 2913, "annotation": {"number": 64, "value": 127}, "group": "control_change"}, {"time": 2935, "annotation": {"number": 64, "value": 71}, "group": "control_change"}, {"time": 2935, "annotation": {"number": 64, "value": 0}, "group": "control_change"}, {"time": 2939, "annotation": {"number": 64, "value": 71}, "group": "control_change"}, {"time": 2940, "annotation": {"number": 64, "value": 127}, "group": "control_change"}, {"time": 2959, "annotation": {"number": 64, "value": 71}, "group": "control_change"}, {"time": 2959, "annotation": {"number": 64, "value": 0}, "group": "control_change"}, {"time": 2964, "annotation": {"number": 64, "value": 71}, "group": "control_change"}, {"time": 2965, "annotation": {"number": 64, "value": 127}, "group": "control_change"}, {"time": 2983, "annotation": {"number": 64, "value": 71}, "group": "control_change"}, {"time": 2983, "annotation": {"number": 64, "value": 0}, "group": "control_change"}, {"time": 2987, "annotation": {"number": 64, "value": 71}, "group": "control_change"}, {"time": 2988, "annotation": {"number": 64, "value": 127}, "group": "control_change"}, {"time": 3006, "annotation": {"number": 64, "value": 71}, "group": "control_change"}, {"time": 3007, "annotation": {"number": 64, "value": 0}, "group": "control_change"}, {"time": 3010, "annotation": {"number": 64, "value": 71}, "group": "control_change"}, {"time": 3011, "annotation": {"number": 64, "value": 127}, "group": "control_change"}, {"time": 3030, "annotation": {"number": 64, "value": 71}, "group": "control_change"}, {"time": 3031, "annotation": {"number": 64, "value": 0}, "group": "control_change"}, {"time": 3034, "annotation": {"number": 64, "value": 71}, "group": "control_change"}, {"time": 3035, "annotation": {"number": 64, "value": 127}, "group": "control_change"}, {"time": 3078, "annotation": {"number": 64, "value": 71}, "group": "control_change"}, {"time": 3079, "annotation": {"number": 64, "value": 0}, "group": "control_change"}, {"time": 3081, "annotation": {"number": 64, "value": 71}, "group": "control_change"}, {"time": 3082, "annotation": {"number": 64, "value": 127}, "group": "control_change"}, {"time": 3126, "annotation": {"number": 64, "value": 71}, "group": "control_change"}, {"time": 3126, "annotation": {"number": 64, "value": 0}, "group": "control_change"}, {"time": 3131, "annotation": {"number": 64, "value": 71}, "group": "control_change"}, {"time": 3132, "annotation": {"number": 64, "value": 127}, "group": "control_change"}, {"time": 3151, "annotation": {"number": 64, "value": 71}, "group": "control_change"}, {"time": 3151, "annotation": {"number": 64, "value": 0}, "group": "control_change"}, {"time": 3155, "annotation": {"number": 64, "value": 71}, "group": "control_change"}, {"time": 3156, "annotation": {"number": 64, "value": 127}, "group": "control_change"}, {"time": 3175, "annotation": {"number": 64, "value": 71}, "group": "control_change"}, {"time": 3175, "annotation": {"number": 64, "value": 0}, "group": "control_change"}, {"time": 3179, "annotation": {"number": 64, "value": 71}, "group": "control_change"}, {"time": 3179, "annotation": {"number": 64, "value": 127}, "group": "control_change"}, {"time": 3198, "annotation": {"number": 64, "value": 71}, "group": "control_change"}, {"time": 3199, "annotation": {"number": 64, "value": 0}, "group": "control_change"}, {"time": 3201, "annotation": {"number": 64, "value": 71}, "group": "control_change"}, {"time": 3202, "annotation": {"number": 64, "value": 127}, "group": "control_change"}, {"time": 3222, "annotation": {"number": 64, "value": 71}, "group": "control_change"}, {"time": 3223, "annotation": {"number": 64, "value": 0}, "group": "control_change"}, {"time": 3226, "annotation": {"number": 64, "value": 71}, "group": "control_change"}, {"time": 3227, "annotation": {"number": 64, "value": 127}, "group": "control_change"}, {"time": 3246, "annotation": {"number": 64, "value": 71}, "group": "control_change"}, {"time": 3246, "annotation": {"number": 64, "value": 0}, "group": "control_change"}, {"time": 3251, "annotation": {"number": 64, "value": 71}, "group": "control_change"}, {"time": 3251, "annotation": {"number": 64, "value": 127}, "group": "control_change"}, {"time": 3270, "annotation": {"number": 64, "value": 71}, "group": "control_change"}, {"time": 3270, "annotation": {"number": 64, "value": 0}, "group": "control_change"}, {"time": 3272, "annotation": {"number": 64, "value": 71}, "group": "control_change"}, {"time": 3273, "annotation": {"number": 64, "value": 127}, "group": "control_change"}, {"time": 3319, "annotation": {"number": 64, "value": 71}, "group": "control_change"}, {"time": 3319, "annotation": {"number": 64, "value": 0}, "group": "control_change"}, {"time": 3324, "annotation": {"number": 64, "value": 71}, "group": "control_change"}, {"time": 3325, "annotation": {"number": 64, "value": 127}, "group": "control_change"}, {"time": 3343, "annotation": {"number": 64, "value": 71}, "group": "control_change"}, {"time": 3343, "annotation": {"number": 64, "value": 0}, "group": "control_change"}, {"time": 3349, "annotation": {"number": 64, "value": 71}, "group": "control_change"}, {"time": 3349, "annotation": {"number": 64, "value": 127}, "group": "control_change"}, {"time": 3352, "annotation": {"number": 64, "value": 71}, "group": "control_change"}, {"time": 3354, "annotation": {"number": 64, "value": 127}, "group": "control_change"}, {"time": 3367, "annotation": {"number": 64, "value": 71}, "group": "control_change"}, {"time": 3367, "annotation": {"number": 64, "value": 0}, "group": "control_change"}, {"time": 3370, "annotation": {"number": 64, "value": 71}, "group": "control_change"}, {"time": 3370, "annotation": {"number": 64, "value": 127}, "group": "control_change"}, {"time": 3391, "annotation": {"number": 64, "value": 71}, "group": "control_change"}, {"time": 3391, "annotation": {"number": 64, "value": 0}, "group": "control_change"}, {"time": 3394, "annotation": {"number": 64, "value": 71}, "group": "control_change"}, {"time": 3395, "annotation": {"number": 64, "value": 127}, "group": "control_change"}, {"time": 3415, "annotation": {"number": 64, "value": 71}, "group": "control_change"}, {"time": 3415, "annotation": {"number": 64, "value": 0}, "group": "control_change"}, {"time": 3419, "annotation": {"number": 64, "value": 71}, "group": "control_change"}, {"time": 3419, "annotation": {"number": 64, "value": 127}, "group": "control_change"}, {"time": 3436, "annotation": {"number": 64, "value": 71}, "group": "control_change"}, {"time": 3437, "annotation": {"number": 64, "value": 0}, "group": "control_change"}, {"time": 3438, "annotation": {"number": 64, "value": 71}, "group": "control_change"}, {"time": 3439, "annotation": {"number": 64, "value": 127}, "group": "control_change"}, {"time": 3462, "annotation": {"number": 64, "value": 0}, "group": "control_change"}, {"time": 3463, "annotation": {"number": 64, "value": 127}, "group": "control_change"}, {"time": 3509, "annotation": {"number": 64, "value": 0}, "group": "control_change"}, {"time": 3513, "annotation": {"number": 64, "value": 127}, "group": "control_change"}, {"time": 3532, "annotation": {"number": 64, "value": 0}, "group": "control_change"}, {"time": 3535, "annotation": {"number": 64, "value": 127}, "group": "control_change"}, {"time": 3557, "annotation": {"number": 64, "value": 0}, "group": "control_change"}, {"time": 3561, "annotation": {"number": 64, "value": 127}, "group": "control_change"}, {"time": 3581, "annotation": {"number": 64, "value": 0}, "group": "control_change"}, {"time": 3583, "annotation": {"number": 64, "value": 127}, "group": "control_change"}, {"time": 3604, "annotation": {"number": 64, "value": 0}, "group": "control_change"}, {"time": 3612, "annotation": {"number": 64, "value": 127}, "group": "control_change"}, {"time": 3630, "annotation": {"number": 64, "value": 0}, "group": "control_change"}, {"time": 3640, "annotation": {"number": 64, "value": 127}, "group": "control_change"}, {"time": 3653, "annotation": {"number": 64, "value": 0}, "group": "control_change"}, {"time": 3657, "annotation": {"number": 64, "value": 127}, "group": "control_change"}, {"time": 3657, "annotation": {"number": 64, "value": 0}, "group": "control_change"}, {"time": 3700, "annotation": {"number": 64, "value": 0}, "group": "control_change"}, {"time": 3703, "annotation": {"number": 64, "value": 127}, "group": "control_change"}, {"time": 3751, "annotation": {"number": 64, "value": 0}, "group": "control_change"}, {"time": 3757, "annotation": {"number": 64, "value": 127}, "group": "control_change"}, {"time": 3757, "annotation": {"number": 64, "value": 0}, "group": "control_change"}, {"time": 3846, "annotation": {"number": 64, "value": 0}, "group": "control_change"}, {"time": 3854, "annotation": {"number": 64, "value": 127}, "group": "control_change"}, {"time": 3901, "annotation": {"number": 64, "value": 0}, "group": "control_change"}, {"time": 3903, "annotation": {"number": 64, "value": 127}, "group": "control_change"}, {"time": 3958, "annotation": {"number": 64, "value": 0}, "group": "control_change"}, {"time": 3961, "annotation": {"number": 64, "value": 127}, "group": "control_change"}]}]}