{"metadata": {"schema_version": "0.2", "title": "None", "source_filename": "718.mid", "source_format": "midi"}, "resolution": 12, "tempos": [{"time": 0, "qpm": 114.0001710002565}], "time_signatures": [{"time": 0, "numerator": 1, "denominator": 4}], "tracks": [{"program": 0, "is_drum": false, "name": "MELODY", "notes": [{"time": 498, "pitch": 63, "duration": 4, "velocity": 86}, {"time": 504, "pitch": 65, "duration": 4, "velocity": 87}, {"time": 510, "pitch": 68, "duration": 9, "velocity": 84}, {"time": 522, "pitch": 72, "duration": 8, "velocity": 86}, {"time": 534, "pitch": 70, "duration": 9, "velocity": 86}, {"time": 546, "pitch": 68, "duration": 3, "velocity": 80}, {"time": 552, "pitch": 70, "duration": 9, "velocity": 87}, {"time": 564, "pitch": 72, "duration": 12, "velocity": 87}, {"time": 582, "pitch": 63, "duration": 4, "velocity": 87}, {"time": 588, "pitch": 65, "duration": 3, "velocity": 87}, {"time": 594, "pitch": 68, "duration": 4, "velocity": 85}, {"time": 600, "pitch": 65, "duration": 4, "velocity": 87}, {"time": 606, "pitch": 68, "duration": 9, "velocity": 85}, {"time": 618, "pitch": 72, "duration": 8, "velocity": 86}, {"time": 630, "pitch": 70, "duration": 10, "velocity": 88}, {"time": 642, "pitch": 68, "duration": 3, "velocity": 80}, {"time": 648, "pitch": 70, "duration": 10, "velocity": 86}, {"time": 660, "pitch": 72, "duration": 18, "velocity": 84}, {"time": 678, "pitch": 72, "duration": 15, "velocity": 89}, {"time": 696, "pitch": 70, "duration": 3, "velocity": 86}, {"time": 702, "pitch": 70, "duration": 10, "velocity": 85}, {"time": 714, "pitch": 68, "duration": 21, "velocity": 87}, {"time": 738, "pitch": 65, "duration": 8, "velocity": 87}, {"time": 750, "pitch": 63, "duration": 9, "velocity": 89}, {"time": 762, "pitch": 70, "duration": 5, "velocity": 86}, {"time": 768, "pitch": 68, "duration": 14, "velocity": 85}, {"time": 786, "pitch": 68, "duration": 5, "velocity": 85}, {"time": 792, "pitch": 65, "duration": 5, "velocity": 91}, {"time": 798, "pitch": 72, "duration": 7, "velocity": 89}, {"time": 810, "pitch": 70, "duration": 7, "velocity": 87}, {"time": 822, "pitch": 70, "duration": 8, "velocity": 87}, {"time": 834, "pitch": 70, "duration": 4, "velocity": 85}, {"time": 840, "pitch": 68, "duration": 3, "velocity": 86}, {"time": 846, "pitch": 72, "duration": 12, "velocity": 87}, {"time": 858, "pitch": 70, "duration": 24, "velocity": 81}, {"time": 882, "pitch": 65, "duration": 3, "velocity": 89}, {"time": 888, "pitch": 68, "duration": 4, "velocity": 85}, {"time": 894, "pitch": 68, "duration": 48, "velocity": 85}, {"time": 978, "pitch": 63, "duration": 4, "velocity": 86}, {"time": 984, "pitch": 65, "duration": 4, "velocity": 87}, {"time": 990, "pitch": 68, "duration": 9, "velocity": 84}, {"time": 1002, "pitch": 72, "duration": 8, "velocity": 86}, {"time": 1014, "pitch": 70, "duration": 9, "velocity": 86}, {"time": 1026, "pitch": 68, "duration": 3, "velocity": 80}, {"time": 1032, "pitch": 70, "duration": 9, "velocity": 87}, {"time": 1044, "pitch": 72, "duration": 12, "velocity": 87}, {"time": 1062, "pitch": 63, "duration": 4, "velocity": 87}, {"time": 1068, "pitch": 65, "duration": 3, "velocity": 87}, {"time": 1074, "pitch": 68, "duration": 4, "velocity": 85}, {"time": 1080, "pitch": 65, "duration": 4, "velocity": 87}, {"time": 1086, "pitch": 68, "duration": 9, "velocity": 85}, {"time": 1098, "pitch": 72, "duration": 8, "velocity": 86}, {"time": 1110, "pitch": 70, "duration": 10, "velocity": 88}, {"time": 1122, "pitch": 68, "duration": 3, "velocity": 80}, {"time": 1128, "pitch": 70, "duration": 10, "velocity": 86}, {"time": 1140, "pitch": 72, "duration": 18, "velocity": 84}, {"time": 1158, "pitch": 72, "duration": 6, "velocity": 89}, {"time": 1164, "pitch": 75, "duration": 12, "velocity": 86}, {"time": 1182, "pitch": 70, "duration": 10, "velocity": 85}, {"time": 1194, "pitch": 68, "duration": 21, "velocity": 87}, {"time": 1218, "pitch": 68, "duration": 4, "velocity": 86}, {"time": 1224, "pitch": 65, "duration": 5, "velocity": 89}, {"time": 1230, "pitch": 75, "duration": 3, "velocity": 86}, {"time": 1236, "pitch": 75, "duration": 3, "velocity": 87}, {"time": 1242, "pitch": 75, "duration": 3, "velocity": 96}, {"time": 1248, "pitch": 75, "duration": 4, "velocity": 86}, {"time": 1254, "pitch": 73, "duration": 9, "velocity": 91}, {"time": 1266, "pitch": 72, "duration": 5, "velocity": 89}, {"time": 1272, "pitch": 70, "duration": 12, "velocity": 86}, {"time": 1284, "pitch": 68, "duration": 20, "velocity": 83}, {"time": 1308, "pitch": 65, "duration": 3, "velocity": 89}, {"time": 1314, "pitch": 68, "duration": 5, "velocity": 87}, {"time": 1320, "pitch": 65, "duration": 4, "velocity": 91}, {"time": 1326, "pitch": 70, "duration": 9, "velocity": 87}, {"time": 1338, "pitch": 70, "duration": 3, "velocity": 80}, {"time": 1344, "pitch": 70, "duration": 18, "velocity": 88}, {"time": 1362, "pitch": 72, "duration": 12, "velocity": 88}, {"time": 1374, "pitch": 70, "duration": 11, "velocity": 86}, {"time": 1386, "pitch": 65, "duration": 10, "velocity": 91}, {"time": 1398, "pitch": 70, "duration": 12, "velocity": 85}, {"time": 1410, "pitch": 68, "duration": 33, "velocity": 85}, {"time": 1458, "pitch": 72, "duration": 4, "velocity": 91}, {"time": 1464, "pitch": 75, "duration": 4, "velocity": 96}, {"time": 1470, "pitch": 77, "duration": 5, "velocity": 92}, {"time": 1476, "pitch": 75, "duration": 2, "velocity": 96}, {"time": 1482, "pitch": 75, "duration": 3, "velocity": 94}, {"time": 1488, "pitch": 75, "duration": 8, "velocity": 96}, {"time": 1500, "pitch": 72, "duration": 9, "velocity": 94}, {"time": 1512, "pitch": 75, "duration": 3, "velocity": 94}, {"time": 1518, "pitch": 77, "duration": 4, "velocity": 91}, {"time": 1524, "pitch": 75, "duration": 2, "velocity": 99}, {"time": 1530, "pitch": 75, "duration": 3, "velocity": 92}, {"time": 1536, "pitch": 75, "duration": 8, "velocity": 101}, {"time": 1554, "pitch": 72, "duration": 6, "velocity": 96}, {"time": 1560, "pitch": 75, "duration": 4, "velocity": 92}, {"time": 1566, "pitch": 77, "duration": 9, "velocity": 92}, {"time": 1578, "pitch": 72, "duration": 4, "velocity": 89}, {"time": 1584, "pitch": 72, "duration": 5, "velocity": 86}, {"time": 1590, "pitch": 72, "duration": 8, "velocity": 89}, {"time": 1602, "pitch": 70, "duration": 5, "velocity": 86}, {"time": 1608, "pitch": 75, "duration": 24, "velocity": 88}, {"time": 1650, "pitch": 72, "duration": 4, "velocity": 99}, {"time": 1656, "pitch": 75, "duration": 3, "velocity": 90}, {"time": 1662, "pitch": 77, "duration": 9, "velocity": 91}, {"time": 1674, "pitch": 72, "duration": 8, "velocity": 96}, {"time": 1686, "pitch": 72, "duration": 9, "velocity": 92}, {"time": 1698, "pitch": 72, "duration": 4, "velocity": 90}, {"time": 1704, "pitch": 77, "duration": 4, "velocity": 86}, {"time": 1710, "pitch": 75, "duration": 5, "velocity": 90}, {"time": 1716, "pitch": 72, "duration": 9, "velocity": 91}, {"time": 1728, "pitch": 70, "duration": 12, "velocity": 85}, {"time": 1740, "pitch": 68, "duration": 20, "velocity": 79}, {"time": 1764, "pitch": 70, "duration": 3, "velocity": 87}, {"time": 1770, "pitch": 70, "duration": 3, "velocity": 86}, {"time": 1776, "pitch": 70, "duration": 3, "velocity": 86}, {"time": 1782, "pitch": 70, "duration": 4, "velocity": 87}, {"time": 1788, "pitch": 68, "duration": 3, "velocity": 88}, {"time": 1794, "pitch": 65, "duration": 5, "velocity": 91}, {"time": 1800, "pitch": 77, "duration": 9, "velocity": 94}, {"time": 1812, "pitch": 75, "duration": 2, "velocity": 87}, {"time": 1818, "pitch": 75, "duration": 3, "velocity": 96}, {"time": 1824, "pitch": 77, "duration": 5, "velocity": 89}, {"time": 1830, "pitch": 72, "duration": 4, "velocity": 92}, {"time": 1836, "pitch": 70, "duration": 7, "velocity": 89}, {"time": 1842, "pitch": 72, "duration": 4, "velocity": 91}, {"time": 1848, "pitch": 75, "duration": 4, "velocity": 96}, {"time": 1854, "pitch": 77, "duration": 5, "velocity": 92}, {"time": 1860, "pitch": 75, "duration": 2, "velocity": 96}, {"time": 1866, "pitch": 75, "duration": 3, "velocity": 94}, {"time": 1872, "pitch": 75, "duration": 8, "velocity": 96}, {"time": 1884, "pitch": 72, "duration": 9, "velocity": 94}, {"time": 1896, "pitch": 75, "duration": 3, "velocity": 94}, {"time": 1902, "pitch": 77, "duration": 4, "velocity": 91}, {"time": 1908, "pitch": 75, "duration": 2, "velocity": 99}, {"time": 1914, "pitch": 75, "duration": 3, "velocity": 92}, {"time": 1920, "pitch": 75, "duration": 8, "velocity": 101}, {"time": 1938, "pitch": 72, "duration": 6, "velocity": 96}, {"time": 1944, "pitch": 75, "duration": 4, "velocity": 92}, {"time": 1950, "pitch": 77, "duration": 9, "velocity": 92}, {"time": 1962, "pitch": 72, "duration": 4, "velocity": 89}, {"time": 1968, "pitch": 72, "duration": 5, "velocity": 86}, {"time": 1974, "pitch": 72, "duration": 8, "velocity": 89}, {"time": 1986, "pitch": 70, "duration": 5, "velocity": 86}, {"time": 1992, "pitch": 75, "duration": 24, "velocity": 88}, {"time": 2034, "pitch": 72, "duration": 4, "velocity": 99}, {"time": 2040, "pitch": 75, "duration": 3, "velocity": 90}, {"time": 2046, "pitch": 77, "duration": 9, "velocity": 91}, {"time": 2058, "pitch": 72, "duration": 8, "velocity": 96}, {"time": 2070, "pitch": 72, "duration": 9, "velocity": 92}, {"time": 2082, "pitch": 72, "duration": 4, "velocity": 90}, {"time": 2088, "pitch": 77, "duration": 4, "velocity": 86}, {"time": 2094, "pitch": 75, "duration": 5, "velocity": 90}, {"time": 2100, "pitch": 72, "duration": 9, "velocity": 91}, {"time": 2112, "pitch": 70, "duration": 12, "velocity": 85}, {"time": 2124, "pitch": 68, "duration": 20, "velocity": 79}, {"time": 2148, "pitch": 70, "duration": 3, "velocity": 87}, {"time": 2154, "pitch": 70, "duration": 3, "velocity": 86}, {"time": 2160, "pitch": 70, "duration": 3, "velocity": 86}, {"time": 2166, "pitch": 70, "duration": 4, "velocity": 87}, {"time": 2172, "pitch": 68, "duration": 3, "velocity": 88}, {"time": 2178, "pitch": 65, "duration": 5, "velocity": 91}, {"time": 2184, "pitch": 77, "duration": 9, "velocity": 94}, {"time": 2196, "pitch": 75, "duration": 2, "velocity": 87}, {"time": 2202, "pitch": 75, "duration": 3, "velocity": 96}, {"time": 2208, "pitch": 75, "duration": 5, "velocity": 89}, {"time": 2214, "pitch": 75, "duration": 4, "velocity": 92}, {"time": 2220, "pitch": 75, "duration": 7, "velocity": 89}, {"time": 2232, "pitch": 77, "duration": 4, "velocity": 85}, {"time": 2238, "pitch": 72, "duration": 11, "velocity": 87}, {"time": 2250, "pitch": 70, "duration": 6, "velocity": 86}, {"time": 2256, "pitch": 68, "duration": 62, "velocity": 86}, {"time": 2466, "pitch": 63, "duration": 4, "velocity": 86}, {"time": 2472, "pitch": 65, "duration": 4, "velocity": 87}, {"time": 2478, "pitch": 68, "duration": 9, "velocity": 84}, {"time": 2490, "pitch": 72, "duration": 8, "velocity": 86}, {"time": 2502, "pitch": 70, "duration": 9, "velocity": 86}, {"time": 2514, "pitch": 68, "duration": 3, "velocity": 80}, {"time": 2520, "pitch": 70, "duration": 9, "velocity": 87}, {"time": 2532, "pitch": 72, "duration": 12, "velocity": 87}, {"time": 2550, "pitch": 63, "duration": 4, "velocity": 87}, {"time": 2556, "pitch": 65, "duration": 3, "velocity": 87}, {"time": 2562, "pitch": 68, "duration": 4, "velocity": 85}, {"time": 2568, "pitch": 65, "duration": 4, "velocity": 87}, {"time": 2574, "pitch": 68, "duration": 9, "velocity": 85}, {"time": 2586, "pitch": 72, "duration": 8, "velocity": 86}, {"time": 2598, "pitch": 70, "duration": 10, "velocity": 88}, {"time": 2610, "pitch": 68, "duration": 3, "velocity": 80}, {"time": 2616, "pitch": 70, "duration": 10, "velocity": 86}, {"time": 2628, "pitch": 72, "duration": 18, "velocity": 84}, {"time": 2646, "pitch": 72, "duration": 6, "velocity": 89}, {"time": 2652, "pitch": 75, "duration": 12, "velocity": 86}, {"time": 2670, "pitch": 70, "duration": 10, "velocity": 85}, {"time": 2682, "pitch": 68, "duration": 21, "velocity": 87}, {"time": 2706, "pitch": 68, "duration": 4, "velocity": 86}, {"time": 2712, "pitch": 65, "duration": 5, "velocity": 89}, {"time": 2718, "pitch": 75, "duration": 3, "velocity": 86}, {"time": 2724, "pitch": 75, "duration": 3, "velocity": 87}, {"time": 2730, "pitch": 75, "duration": 3, "velocity": 96}, {"time": 2736, "pitch": 75, "duration": 4, "velocity": 86}, {"time": 2742, "pitch": 73, "duration": 9, "velocity": 91}, {"time": 2754, "pitch": 72, "duration": 5, "velocity": 89}, {"time": 2760, "pitch": 70, "duration": 12, "velocity": 86}, {"time": 2772, "pitch": 68, "duration": 20, "velocity": 83}, {"time": 2796, "pitch": 65, "duration": 3, "velocity": 89}, {"time": 2802, "pitch": 68, "duration": 5, "velocity": 87}, {"time": 2808, "pitch": 65, "duration": 4, "velocity": 91}, {"time": 2814, "pitch": 70, "duration": 9, "velocity": 87}, {"time": 2826, "pitch": 70, "duration": 3, "velocity": 80}, {"time": 2832, "pitch": 70, "duration": 18, "velocity": 88}, {"time": 2850, "pitch": 72, "duration": 12, "velocity": 88}, {"time": 2862, "pitch": 70, "duration": 11, "velocity": 86}, {"time": 2874, "pitch": 65, "duration": 10, "velocity": 91}, {"time": 2886, "pitch": 70, "duration": 12, "velocity": 85}, {"time": 2898, "pitch": 68, "duration": 33, "velocity": 85}, {"time": 2946, "pitch": 72, "duration": 4, "velocity": 91}, {"time": 2952, "pitch": 75, "duration": 4, "velocity": 96}, {"time": 2958, "pitch": 77, "duration": 5, "velocity": 92}, {"time": 2964, "pitch": 75, "duration": 2, "velocity": 96}, {"time": 2970, "pitch": 75, "duration": 3, "velocity": 94}, {"time": 2976, "pitch": 75, "duration": 8, "velocity": 96}, {"time": 2988, "pitch": 72, "duration": 9, "velocity": 94}, {"time": 3000, "pitch": 75, "duration": 3, "velocity": 94}, {"time": 3006, "pitch": 77, "duration": 4, "velocity": 91}, {"time": 3012, "pitch": 75, "duration": 2, "velocity": 99}, {"time": 3018, "pitch": 75, "duration": 3, "velocity": 92}, {"time": 3024, "pitch": 75, "duration": 8, "velocity": 101}, {"time": 3042, "pitch": 72, "duration": 6, "velocity": 96}, {"time": 3048, "pitch": 75, "duration": 4, "velocity": 92}, {"time": 3054, "pitch": 77, "duration": 9, "velocity": 92}, {"time": 3066, "pitch": 72, "duration": 4, "velocity": 89}, {"time": 3072, "pitch": 72, "duration": 5, "velocity": 86}, {"time": 3078, "pitch": 72, "duration": 8, "velocity": 89}, {"time": 3090, "pitch": 70, "duration": 5, "velocity": 86}, {"time": 3096, "pitch": 75, "duration": 24, "velocity": 88}, {"time": 3138, "pitch": 72, "duration": 4, "velocity": 99}, {"time": 3144, "pitch": 75, "duration": 3, "velocity": 90}, {"time": 3150, "pitch": 77, "duration": 9, "velocity": 91}, {"time": 3162, "pitch": 72, "duration": 8, "velocity": 96}, {"time": 3174, "pitch": 72, "duration": 9, "velocity": 92}, {"time": 3186, "pitch": 72, "duration": 4, "velocity": 90}, {"time": 3192, "pitch": 77, "duration": 4, "velocity": 86}, {"time": 3198, "pitch": 75, "duration": 5, "velocity": 90}, {"time": 3204, "pitch": 72, "duration": 9, "velocity": 91}, {"time": 3216, "pitch": 70, "duration": 12, "velocity": 85}, {"time": 3228, "pitch": 68, "duration": 20, "velocity": 79}, {"time": 3252, "pitch": 70, "duration": 3, "velocity": 87}, {"time": 3258, "pitch": 70, "duration": 3, "velocity": 86}, {"time": 3264, "pitch": 70, "duration": 3, "velocity": 86}, {"time": 3270, "pitch": 70, "duration": 4, "velocity": 87}, {"time": 3276, "pitch": 68, "duration": 3, "velocity": 88}, {"time": 3282, "pitch": 65, "duration": 5, "velocity": 91}, {"time": 3288, "pitch": 77, "duration": 9, "velocity": 94}, {"time": 3300, "pitch": 75, "duration": 2, "velocity": 87}, {"time": 3306, "pitch": 75, "duration": 3, "velocity": 96}, {"time": 3312, "pitch": 77, "duration": 5, "velocity": 89}, {"time": 3318, "pitch": 72, "duration": 4, "velocity": 92}, {"time": 3324, "pitch": 70, "duration": 7, "velocity": 89}, {"time": 3330, "pitch": 72, "duration": 4, "velocity": 91}, {"time": 3336, "pitch": 75, "duration": 4, "velocity": 96}, {"time": 3342, "pitch": 77, "duration": 5, "velocity": 92}, {"time": 3348, "pitch": 75, "duration": 2, "velocity": 96}, {"time": 3354, "pitch": 75, "duration": 3, "velocity": 94}, {"time": 3360, "pitch": 75, "duration": 8, "velocity": 96}, {"time": 3372, "pitch": 72, "duration": 9, "velocity": 94}, {"time": 3384, "pitch": 75, "duration": 3, "velocity": 94}, {"time": 3390, "pitch": 77, "duration": 4, "velocity": 91}, {"time": 3396, "pitch": 75, "duration": 2, "velocity": 99}, {"time": 3402, "pitch": 75, "duration": 3, "velocity": 92}, {"time": 3408, "pitch": 75, "duration": 8, "velocity": 101}, {"time": 3426, "pitch": 72, "duration": 6, "velocity": 96}, {"time": 3432, "pitch": 75, "duration": 4, "velocity": 92}, {"time": 3438, "pitch": 77, "duration": 9, "velocity": 92}, {"time": 3450, "pitch": 72, "duration": 4, "velocity": 89}, {"time": 3456, "pitch": 72, "duration": 5, "velocity": 86}, {"time": 3462, "pitch": 72, "duration": 8, "velocity": 89}, {"time": 3474, "pitch": 70, "duration": 5, "velocity": 86}, {"time": 3480, "pitch": 75, "duration": 24, "velocity": 88}, {"time": 3522, "pitch": 72, "duration": 4, "velocity": 99}, {"time": 3528, "pitch": 75, "duration": 3, "velocity": 90}, {"time": 3534, "pitch": 77, "duration": 9, "velocity": 91}, {"time": 3546, "pitch": 72, "duration": 8, "velocity": 96}, {"time": 3558, "pitch": 72, "duration": 9, "velocity": 92}, {"time": 3570, "pitch": 72, "duration": 4, "velocity": 90}, {"time": 3576, "pitch": 77, "duration": 4, "velocity": 86}, {"time": 3582, "pitch": 75, "duration": 5, "velocity": 90}, {"time": 3588, "pitch": 72, "duration": 9, "velocity": 91}, {"time": 3600, "pitch": 70, "duration": 12, "velocity": 85}, {"time": 3612, "pitch": 68, "duration": 20, "velocity": 79}, {"time": 3636, "pitch": 70, "duration": 3, "velocity": 87}, {"time": 3642, "pitch": 70, "duration": 3, "velocity": 86}, {"time": 3648, "pitch": 70, "duration": 3, "velocity": 86}, {"time": 3654, "pitch": 70, "duration": 4, "velocity": 87}, {"time": 3660, "pitch": 68, "duration": 3, "velocity": 88}, {"time": 3666, "pitch": 65, "duration": 5, "velocity": 91}, {"time": 3672, "pitch": 77, "duration": 9, "velocity": 94}, {"time": 3684, "pitch": 75, "duration": 2, "velocity": 87}, {"time": 3690, "pitch": 75, "duration": 3, "velocity": 96}, {"time": 3696, "pitch": 75, "duration": 5, "velocity": 89}, {"time": 3702, "pitch": 75, "duration": 4, "velocity": 92}, {"time": 3708, "pitch": 75, "duration": 7, "velocity": 89}, {"time": 3720, "pitch": 77, "duration": 4, "velocity": 85}, {"time": 3726, "pitch": 72, "duration": 11, "velocity": 87}, {"time": 3738, "pitch": 70, "duration": 6, "velocity": 86}, {"time": 3744, "pitch": 68, "duration": 62, "velocity": 86}, {"time": 3834, "pitch": 72, "duration": 3, "velocity": 87}, {"time": 3840, "pitch": 72, "duration": 3, "velocity": 89}, {"time": 3846, "pitch": 72, "duration": 3, "velocity": 89}, {"time": 3852, "pitch": 72, "duration": 5, "velocity": 90}, {"time": 3858, "pitch": 70, "duration": 5, "velocity": 89}, {"time": 3864, "pitch": 68, "duration": 4, "velocity": 87}, {"time": 3870, "pitch": 70, "duration": 7, "velocity": 91}, {"time": 3876, "pitch": 75, "duration": 6, "velocity": 86}, {"time": 3888, "pitch": 75, "duration": 18, "velocity": 91}, {"time": 3930, "pitch": 73, "duration": 4, "velocity": 90}, {"time": 3936, "pitch": 72, "duration": 3, "velocity": 94}, {"time": 3942, "pitch": 73, "duration": 5, "velocity": 90}, {"time": 3948, "pitch": 72, "duration": 3, "velocity": 91}, {"time": 3954, "pitch": 68, "duration": 4, "velocity": 87}, {"time": 3960, "pitch": 63, "duration": 4, "velocity": 89}, {"time": 3966, "pitch": 70, "duration": 4, "velocity": 91}, {"time": 3972, "pitch": 72, "duration": 10, "velocity": 85}, {"time": 3984, "pitch": 72, "duration": 30, "velocity": 91}, {"time": 4026, "pitch": 72, "duration": 3, "velocity": 87}, {"time": 4032, "pitch": 72, "duration": 3, "velocity": 86}, {"time": 4038, "pitch": 72, "duration": 3, "velocity": 86}, {"time": 4044, "pitch": 72, "duration": 4, "velocity": 87}, {"time": 4050, "pitch": 70, "duration": 3, "velocity": 89}, {"time": 4056, "pitch": 68, "duration": 3, "velocity": 88}, {"time": 4062, "pitch": 70, "duration": 5, "velocity": 88}, {"time": 4068, "pitch": 75, "duration": 9, "velocity": 96}, {"time": 4080, "pitch": 75, "duration": 12, "velocity": 96}, {"time": 4098, "pitch": 70, "duration": 4, "velocity": 92}, {"time": 4104, "pitch": 72, "duration": 4, "velocity": 91}, {"time": 4110, "pitch": 73, "duration": 3, "velocity": 87}, {"time": 4116, "pitch": 72, "duration": 3, "velocity": 87}, {"time": 4122, "pitch": 73, "duration": 3, "velocity": 86}, {"time": 4128, "pitch": 73, "duration": 12, "velocity": 89}, {"time": 4140, "pitch": 77, "duration": 18, "velocity": 89}, {"time": 4158, "pitch": 75, "duration": 30, "velocity": 96}, {"time": 4188, "pitch": 77, "duration": 15, "velocity": 90}, {"time": 4206, "pitch": 75, "duration": 24, "velocity": 91}, {"time": 4242, "pitch": 72, "duration": 4, "velocity": 91}, {"time": 4248, "pitch": 75, "duration": 4, "velocity": 96}, {"time": 4254, "pitch": 77, "duration": 5, "velocity": 92}, {"time": 4260, "pitch": 75, "duration": 2, "velocity": 96}, {"time": 4266, "pitch": 75, "duration": 3, "velocity": 94}, {"time": 4272, "pitch": 75, "duration": 8, "velocity": 96}, {"time": 4284, "pitch": 72, "duration": 9, "velocity": 94}, {"time": 4296, "pitch": 75, "duration": 3, "velocity": 94}, {"time": 4302, "pitch": 77, "duration": 4, "velocity": 91}, {"time": 4308, "pitch": 75, "duration": 2, "velocity": 99}, {"time": 4314, "pitch": 75, "duration": 3, "velocity": 92}, {"time": 4320, "pitch": 75, "duration": 8, "velocity": 101}, {"time": 4338, "pitch": 72, "duration": 6, "velocity": 96}, {"time": 4344, "pitch": 75, "duration": 4, "velocity": 92}, {"time": 4350, "pitch": 77, "duration": 9, "velocity": 92}, {"time": 4362, "pitch": 72, "duration": 4, "velocity": 89}, {"time": 4368, "pitch": 72, "duration": 5, "velocity": 86}, {"time": 4374, "pitch": 72, "duration": 8, "velocity": 89}, {"time": 4386, "pitch": 70, "duration": 5, "velocity": 86}, {"time": 4392, "pitch": 75, "duration": 24, "velocity": 88}, {"time": 4434, "pitch": 72, "duration": 4, "velocity": 99}, {"time": 4440, "pitch": 75, "duration": 3, "velocity": 90}, {"time": 4446, "pitch": 77, "duration": 9, "velocity": 91}, {"time": 4458, "pitch": 72, "duration": 8, "velocity": 96}, {"time": 4470, "pitch": 72, "duration": 9, "velocity": 92}, {"time": 4482, "pitch": 72, "duration": 4, "velocity": 90}, {"time": 4488, "pitch": 77, "duration": 4, "velocity": 86}, {"time": 4494, "pitch": 75, "duration": 5, "velocity": 90}, {"time": 4500, "pitch": 72, "duration": 9, "velocity": 91}, {"time": 4512, "pitch": 70, "duration": 12, "velocity": 85}, {"time": 4524, "pitch": 68, "duration": 20, "velocity": 79}, {"time": 4548, "pitch": 70, "duration": 3, "velocity": 87}, {"time": 4554, "pitch": 70, "duration": 3, "velocity": 86}, {"time": 4560, "pitch": 70, "duration": 3, "velocity": 86}, {"time": 4566, "pitch": 70, "duration": 4, "velocity": 87}, {"time": 4572, "pitch": 68, "duration": 3, "velocity": 88}, {"time": 4578, "pitch": 65, "duration": 5, "velocity": 91}, {"time": 4584, "pitch": 77, "duration": 9, "velocity": 94}, {"time": 4596, "pitch": 75, "duration": 2, "velocity": 87}, {"time": 4602, "pitch": 75, "duration": 3, "velocity": 96}, {"time": 4608, "pitch": 77, "duration": 5, "velocity": 89}, {"time": 4614, "pitch": 72, "duration": 4, "velocity": 92}, {"time": 4620, "pitch": 70, "duration": 7, "velocity": 89}, {"time": 4626, "pitch": 72, "duration": 4, "velocity": 91}, {"time": 4632, "pitch": 75, "duration": 4, "velocity": 96}, {"time": 4638, "pitch": 77, "duration": 5, "velocity": 92}, {"time": 4644, "pitch": 75, "duration": 2, "velocity": 96}, {"time": 4650, "pitch": 75, "duration": 3, "velocity": 94}, {"time": 4656, "pitch": 75, "duration": 8, "velocity": 96}, {"time": 4668, "pitch": 72, "duration": 9, "velocity": 94}, {"time": 4680, "pitch": 75, "duration": 3, "velocity": 94}, {"time": 4686, "pitch": 77, "duration": 4, "velocity": 91}, {"time": 4692, "pitch": 75, "duration": 2, "velocity": 99}, {"time": 4698, "pitch": 75, "duration": 3, "velocity": 92}, {"time": 4704, "pitch": 75, "duration": 8, "velocity": 101}, {"time": 4722, "pitch": 72, "duration": 6, "velocity": 96}, {"time": 4728, "pitch": 75, "duration": 4, "velocity": 92}, {"time": 4734, "pitch": 77, "duration": 9, "velocity": 92}, {"time": 4746, "pitch": 72, "duration": 4, "velocity": 89}, {"time": 4752, "pitch": 72, "duration": 5, "velocity": 86}, {"time": 4758, "pitch": 72, "duration": 8, "velocity": 89}, {"time": 4770, "pitch": 70, "duration": 5, "velocity": 86}, {"time": 4776, "pitch": 75, "duration": 24, "velocity": 88}, {"time": 4818, "pitch": 72, "duration": 4, "velocity": 99}, {"time": 4824, "pitch": 75, "duration": 3, "velocity": 90}, {"time": 4830, "pitch": 77, "duration": 9, "velocity": 91}, {"time": 4842, "pitch": 72, "duration": 8, "velocity": 96}, {"time": 4854, "pitch": 72, "duration": 9, "velocity": 92}, {"time": 4866, "pitch": 72, "duration": 4, "velocity": 90}, {"time": 4872, "pitch": 77, "duration": 4, "velocity": 86}, {"time": 4878, "pitch": 75, "duration": 5, "velocity": 90}, {"time": 4884, "pitch": 72, "duration": 9, "velocity": 91}, {"time": 4896, "pitch": 70, "duration": 12, "velocity": 85}, {"time": 4908, "pitch": 68, "duration": 20, "velocity": 79}, {"time": 4932, "pitch": 70, "duration": 3, "velocity": 87}, {"time": 4938, "pitch": 70, "duration": 3, "velocity": 86}, {"time": 4944, "pitch": 70, "duration": 3, "velocity": 86}, {"time": 4950, "pitch": 70, "duration": 4, "velocity": 87}, {"time": 4956, "pitch": 68, "duration": 3, "velocity": 88}, {"time": 4962, "pitch": 65, "duration": 5, "velocity": 91}, {"time": 4968, "pitch": 77, "duration": 9, "velocity": 94}, {"time": 4980, "pitch": 75, "duration": 2, "velocity": 87}, {"time": 4986, "pitch": 75, "duration": 3, "velocity": 96}, {"time": 4992, "pitch": 75, "duration": 5, "velocity": 89}, {"time": 4998, "pitch": 75, "duration": 4, "velocity": 92}, {"time": 5004, "pitch": 75, "duration": 7, "velocity": 89}, {"time": 5016, "pitch": 77, "duration": 4, "velocity": 85}, {"time": 5022, "pitch": 72, "duration": 11, "velocity": 87}, {"time": 5034, "pitch": 70, "duration": 6, "velocity": 86}, {"time": 5040, "pitch": 68, "duration": 62, "velocity": 86}]}, {"program": 0, "is_drum": false, "name": "BRIDGE", "notes": [{"time": 12, "pitch": 87, "duration": 3, "velocity": 89}, {"time": 18, "pitch": 87, "duration": 4, "velocity": 92}, {"time": 24, "pitch": 87, "duration": 3, "velocity": 94}, {"time": 30, "pitch": 87, "duration": 4, "velocity": 92}, {"time": 36, "pitch": 84, "duration": 3, "velocity": 86}, {"time": 42, "pitch": 84, "duration": 4, "velocity": 87}, {"time": 48, "pitch": 84, "duration": 8, "velocity": 92}, {"time": 60, "pitch": 84, "duration": 3, "velocity": 86}, {"time": 66, "pitch": 84, "duration": 3, "velocity": 89}, {"time": 72, "pitch": 84, "duration": 3, "velocity": 96}, {"time": 78, "pitch": 84, "duration": 5, "velocity": 94}, {"time": 84, "pitch": 82, "duration": 3, "velocity": 87}, {"time": 90, "pitch": 82, "duration": 3, "velocity": 85}, {"time": 96, "pitch": 82, "duration": 12, "velocity": 87}, {"time": 108, "pitch": 82, "duration": 4, "velocity": 83}, {"time": 114, "pitch": 82, "duration": 3, "velocity": 90}, {"time": 120, "pitch": 82, "duration": 3, "velocity": 91}, {"time": 126, "pitch": 82, "duration": 4, "velocity": 94}, {"time": 132, "pitch": 80, "duration": 3, "velocity": 87}, {"time": 138, "pitch": 80, "duration": 3, "velocity": 88}, {"time": 144, "pitch": 80, "duration": 15, "velocity": 90}, {"time": 162, "pitch": 80, "duration": 5, "velocity": 92}, {"time": 168, "pitch": 82, "duration": 3, "velocity": 96}, {"time": 174, "pitch": 84, "duration": 12, "velocity": 92}, {"time": 186, "pitch": 87, "duration": 10, "velocity": 91}, {"time": 198, "pitch": 82, "duration": 10, "velocity": 87}, {"time": 210, "pitch": 80, "duration": 11, "velocity": 89}, {"time": 222, "pitch": 77, "duration": 12, "velocity": 99}, {"time": 234, "pitch": 77, "duration": 6, "velocity": 101}, {"time": 240, "pitch": 79, "duration": 10, "velocity": 92}, {"time": 252, "pitch": 80, "duration": 16, "velocity": 94}, {"time": 270, "pitch": 82, "duration": 10, "velocity": 89}, {"time": 282, "pitch": 80, "duration": 8, "velocity": 92}, {"time": 294, "pitch": 75, "duration": 10, "velocity": 101}, {"time": 301, "pitch": 70, "duration": 10, "velocity": 90}, {"time": 310, "pitch": 68, "duration": 7, "velocity": 92}, {"time": 318, "pitch": 68, "duration": 60, "velocity": 86}, {"time": 384, "pitch": 73, "duration": 6, "velocity": 81}, {"time": 390, "pitch": 72, "duration": 7, "velocity": 86}, {"time": 396, "pitch": 70, "duration": 6, "velocity": 92}, {"time": 402, "pitch": 68, "duration": 3, "velocity": 87}, {"time": 408, "pitch": 63, "duration": 2, "velocity": 87}, {"time": 414, "pitch": 63, "duration": 89, "velocity": 96}, {"time": 894, "pitch": 70, "duration": 16, "velocity": 96}, {"time": 912, "pitch": 68, "duration": 13, "velocity": 94}, {"time": 924, "pitch": 72, "duration": 18, "velocity": 102}, {"time": 942, "pitch": 70, "duration": 19, "velocity": 99}, {"time": 960, "pitch": 68, "duration": 27, "velocity": 92}, {"time": 990, "pitch": 68, "duration": 32, "velocity": 75}, {"time": 990, "pitch": 72, "duration": 37, "velocity": 81}, {"time": 1026, "pitch": 68, "duration": 12, "velocity": 72}, {"time": 1038, "pitch": 70, "duration": 41, "velocity": 76}, {"time": 1086, "pitch": 68, "duration": 31, "velocity": 73}, {"time": 1086, "pitch": 72, "duration": 32, "velocity": 75}, {"time": 1122, "pitch": 68, "duration": 10, "velocity": 74}, {"time": 1122, "pitch": 72, "duration": 12, "velocity": 79}, {"time": 1134, "pitch": 70, "duration": 25, "velocity": 80}, {"time": 1158, "pitch": 68, "duration": 12, "velocity": 78}, {"time": 1170, "pitch": 67, "duration": 13, "velocity": 79}, {"time": 1182, "pitch": 65, "duration": 43, "velocity": 83}, {"time": 1230, "pitch": 63, "duration": 24, "velocity": 85}, {"time": 1254, "pitch": 68, "duration": 18, "velocity": 84}, {"time": 1278, "pitch": 70, "duration": 24, "velocity": 81}, {"time": 1302, "pitch": 72, "duration": 13, "velocity": 85}, {"time": 1314, "pitch": 73, "duration": 14, "velocity": 85}, {"time": 1326, "pitch": 75, "duration": 37, "velocity": 86}, {"time": 1362, "pitch": 63, "duration": 12, "velocity": 78}, {"time": 1374, "pitch": 68, "duration": 48, "velocity": 80}, {"time": 1446, "pitch": 63, "duration": 19, "velocity": 83}, {"time": 1446, "pitch": 67, "duration": 18, "velocity": 81}, {"time": 1470, "pitch": 63, "duration": 35, "velocity": 85}, {"time": 1470, "pitch": 68, "duration": 35, "velocity": 81}, {"time": 1506, "pitch": 70, "duration": 8, "velocity": 82}, {"time": 1512, "pitch": 68, "duration": 7, "velocity": 81}, {"time": 1518, "pitch": 67, "duration": 46, "velocity": 76}, {"time": 1566, "pitch": 68, "duration": 36, "velocity": 80}, {"time": 1602, "pitch": 77, "duration": 11, "velocity": 86}, {"time": 1614, "pitch": 75, "duration": 12, "velocity": 85}, {"time": 1626, "pitch": 77, "duration": 13, "velocity": 80}, {"time": 1638, "pitch": 79, "duration": 20, "velocity": 80}, {"time": 1662, "pitch": 73, "duration": 45, "velocity": 80}, {"time": 1662, "pitch": 77, "duration": 46, "velocity": 85}, {"time": 1710, "pitch": 75, "duration": 25, "velocity": 92}, {"time": 1734, "pitch": 72, "duration": 19, "velocity": 81}, {"time": 1758, "pitch": 70, "duration": 36, "velocity": 79}, {"time": 1758, "pitch": 73, "duration": 37, "velocity": 80}, {"time": 1794, "pitch": 72, "duration": 7, "velocity": 73}, {"time": 1800, "pitch": 73, "duration": 7, "velocity": 78}, {"time": 1806, "pitch": 75, "duration": 37, "velocity": 85}, {"time": 1854, "pitch": 75, "duration": 37, "velocity": 84}, {"time": 1854, "pitch": 80, "duration": 37, "velocity": 79}, {"time": 1890, "pitch": 82, "duration": 7, "velocity": 75}, {"time": 1896, "pitch": 80, "duration": 7, "velocity": 84}, {"time": 1902, "pitch": 79, "duration": 27, "velocity": 83}, {"time": 1926, "pitch": 80, "duration": 12, "velocity": 82}, {"time": 1938, "pitch": 79, "duration": 14, "velocity": 72}, {"time": 1950, "pitch": 77, "duration": 42, "velocity": 84}, {"time": 1998, "pitch": 79, "duration": 25, "velocity": 89}, {"time": 2022, "pitch": 75, "duration": 20, "velocity": 87}, {"time": 2046, "pitch": 73, "duration": 39, "velocity": 80}, {"time": 2046, "pitch": 77, "duration": 36, "velocity": 85}, {"time": 2082, "pitch": 80, "duration": 16, "velocity": 83}, {"time": 2094, "pitch": 75, "duration": 22, "velocity": 87}, {"time": 2118, "pitch": 77, "duration": 12, "velocity": 84}, {"time": 2130, "pitch": 75, "duration": 12, "velocity": 87}, {"time": 2142, "pitch": 70, "duration": 42, "velocity": 78}, {"time": 2142, "pitch": 73, "duration": 44, "velocity": 82}, {"time": 2190, "pitch": 70, "duration": 31, "velocity": 76}, {"time": 2190, "pitch": 75, "duration": 25, "velocity": 81}, {"time": 2214, "pitch": 73, "duration": 24, "velocity": 80}, {"time": 2238, "pitch": 82, "duration": 16, "velocity": 94}, {"time": 2256, "pitch": 80, "duration": 17, "velocity": 101}, {"time": 2274, "pitch": 84, "duration": 9, "velocity": 101}, {"time": 2286, "pitch": 82, "duration": 15, "velocity": 90}, {"time": 2304, "pitch": 75, "duration": 13, "velocity": 102}, {"time": 2322, "pitch": 75, "duration": 5, "velocity": 121}, {"time": 2328, "pitch": 80, "duration": 5, "velocity": 94}, {"time": 2334, "pitch": 82, "duration": 17, "velocity": 96}, {"time": 2352, "pitch": 80, "duration": 13, "velocity": 94}, {"time": 2364, "pitch": 84, "duration": 17, "velocity": 101}, {"time": 2382, "pitch": 82, "duration": 55, "velocity": 94}, {"time": 2478, "pitch": 68, "duration": 32, "velocity": 75}, {"time": 2478, "pitch": 72, "duration": 37, "velocity": 81}, {"time": 2514, "pitch": 68, "duration": 12, "velocity": 72}, {"time": 2526, "pitch": 70, "duration": 41, "velocity": 76}, {"time": 2574, "pitch": 68, "duration": 31, "velocity": 73}, {"time": 2574, "pitch": 72, "duration": 32, "velocity": 75}, {"time": 2610, "pitch": 68, "duration": 10, "velocity": 74}, {"time": 2610, "pitch": 72, "duration": 12, "velocity": 79}, {"time": 2622, "pitch": 70, "duration": 25, "velocity": 80}, {"time": 2646, "pitch": 68, "duration": 12, "velocity": 78}, {"time": 2658, "pitch": 67, "duration": 13, "velocity": 79}, {"time": 2670, "pitch": 65, "duration": 43, "velocity": 83}, {"time": 2718, "pitch": 63, "duration": 24, "velocity": 85}, {"time": 2742, "pitch": 68, "duration": 18, "velocity": 84}, {"time": 2766, "pitch": 70, "duration": 24, "velocity": 81}, {"time": 2790, "pitch": 72, "duration": 13, "velocity": 85}, {"time": 2802, "pitch": 73, "duration": 14, "velocity": 85}, {"time": 2814, "pitch": 75, "duration": 37, "velocity": 86}, {"time": 2850, "pitch": 63, "duration": 12, "velocity": 78}, {"time": 2862, "pitch": 68, "duration": 48, "velocity": 80}, {"time": 2934, "pitch": 63, "duration": 19, "velocity": 83}, {"time": 2934, "pitch": 67, "duration": 18, "velocity": 81}, {"time": 2958, "pitch": 63, "duration": 35, "velocity": 85}, {"time": 2958, "pitch": 68, "duration": 35, "velocity": 81}, {"time": 2994, "pitch": 70, "duration": 8, "velocity": 82}, {"time": 3000, "pitch": 68, "duration": 7, "velocity": 81}, {"time": 3006, "pitch": 67, "duration": 46, "velocity": 76}, {"time": 3054, "pitch": 68, "duration": 36, "velocity": 80}, {"time": 3090, "pitch": 77, "duration": 11, "velocity": 86}, {"time": 3102, "pitch": 75, "duration": 12, "velocity": 85}, {"time": 3114, "pitch": 77, "duration": 13, "velocity": 80}, {"time": 3126, "pitch": 79, "duration": 20, "velocity": 80}, {"time": 3150, "pitch": 73, "duration": 45, "velocity": 80}, {"time": 3150, "pitch": 77, "duration": 46, "velocity": 85}, {"time": 3198, "pitch": 75, "duration": 25, "velocity": 92}, {"time": 3222, "pitch": 72, "duration": 19, "velocity": 81}, {"time": 3246, "pitch": 70, "duration": 36, "velocity": 79}, {"time": 3246, "pitch": 73, "duration": 37, "velocity": 80}, {"time": 3282, "pitch": 72, "duration": 7, "velocity": 73}, {"time": 3288, "pitch": 73, "duration": 7, "velocity": 78}, {"time": 3294, "pitch": 75, "duration": 37, "velocity": 85}, {"time": 3342, "pitch": 75, "duration": 37, "velocity": 84}, {"time": 3342, "pitch": 80, "duration": 37, "velocity": 79}, {"time": 3378, "pitch": 82, "duration": 7, "velocity": 75}, {"time": 3384, "pitch": 80, "duration": 7, "velocity": 84}, {"time": 3390, "pitch": 79, "duration": 27, "velocity": 83}, {"time": 3414, "pitch": 80, "duration": 12, "velocity": 82}, {"time": 3426, "pitch": 79, "duration": 14, "velocity": 72}, {"time": 3438, "pitch": 77, "duration": 42, "velocity": 84}, {"time": 3486, "pitch": 79, "duration": 25, "velocity": 89}, {"time": 3510, "pitch": 75, "duration": 20, "velocity": 87}, {"time": 3534, "pitch": 73, "duration": 39, "velocity": 80}, {"time": 3534, "pitch": 77, "duration": 36, "velocity": 85}, {"time": 3570, "pitch": 80, "duration": 16, "velocity": 83}, {"time": 3582, "pitch": 75, "duration": 22, "velocity": 87}, {"time": 3606, "pitch": 77, "duration": 12, "velocity": 84}, {"time": 3618, "pitch": 75, "duration": 12, "velocity": 87}, {"time": 3630, "pitch": 70, "duration": 42, "velocity": 78}, {"time": 3630, "pitch": 73, "duration": 44, "velocity": 82}, {"time": 3678, "pitch": 70, "duration": 31, "velocity": 76}, {"time": 3678, "pitch": 75, "duration": 25, "velocity": 81}, {"time": 3702, "pitch": 73, "duration": 24, "velocity": 80}, {"time": 3726, "pitch": 82, "duration": 16, "velocity": 94}, {"time": 3744, "pitch": 80, "duration": 17, "velocity": 101}, {"time": 3762, "pitch": 84, "duration": 9, "velocity": 101}, {"time": 3774, "pitch": 82, "duration": 15, "velocity": 90}, {"time": 3792, "pitch": 75, "duration": 13, "velocity": 102}, {"time": 3804, "pitch": 72, "duration": 6, "velocity": 85}, {"time": 3810, "pitch": 73, "duration": 6, "velocity": 87}, {"time": 3816, "pitch": 75, "duration": 3, "velocity": 94}, {"time": 3822, "pitch": 73, "duration": 37, "velocity": 81}, {"time": 3822, "pitch": 77, "duration": 39, "velocity": 88}, {"time": 3858, "pitch": 80, "duration": 11, "velocity": 84}, {"time": 3870, "pitch": 75, "duration": 19, "velocity": 85}, {"time": 3870, "pitch": 79, "duration": 21, "velocity": 82}, {"time": 3894, "pitch": 75, "duration": 13, "velocity": 92}, {"time": 3906, "pitch": 73, "duration": 6, "velocity": 86}, {"time": 3912, "pitch": 72, "duration": 4, "velocity": 80}, {"time": 3918, "pitch": 70, "duration": 37, "velocity": 84}, {"time": 3918, "pitch": 73, "duration": 36, "velocity": 85}, {"time": 3954, "pitch": 75, "duration": 9, "velocity": 86}, {"time": 3966, "pitch": 68, "duration": 41, "velocity": 85}, {"time": 3966, "pitch": 72, "duration": 43, "velocity": 86}, {"time": 3984, "pitch": 75, "duration": 25, "velocity": 85}, {"time": 4014, "pitch": 77, "duration": 26, "velocity": 89}, {"time": 4038, "pitch": 80, "duration": 6, "velocity": 89}, {"time": 4044, "pitch": 82, "duration": 6, "velocity": 83}, {"time": 4050, "pitch": 84, "duration": 6, "velocity": 86}, {"time": 4056, "pitch": 82, "duration": 7, "velocity": 87}, {"time": 4062, "pitch": 84, "duration": 25, "velocity": 86}, {"time": 4086, "pitch": 79, "duration": 12, "velocity": 92}, {"time": 4098, "pitch": 75, "duration": 8, "velocity": 86}, {"time": 4110, "pitch": 73, "duration": 27, "velocity": 87}, {"time": 4110, "pitch": 77, "duration": 39, "velocity": 87}, {"time": 4134, "pitch": 80, "duration": 16, "velocity": 86}, {"time": 4158, "pitch": 75, "duration": 43, "velocity": 83}, {"time": 4158, "pitch": 79, "duration": 44, "velocity": 84}, {"time": 4158, "pitch": 82, "duration": 44, "velocity": 85}, {"time": 4206, "pitch": 75, "duration": 45, "velocity": 85}, {"time": 4206, "pitch": 79, "duration": 45, "velocity": 85}, {"time": 4254, "pitch": 63, "duration": 35, "velocity": 85}, {"time": 4254, "pitch": 68, "duration": 35, "velocity": 81}, {"time": 4290, "pitch": 70, "duration": 8, "velocity": 82}, {"time": 4296, "pitch": 68, "duration": 7, "velocity": 81}, {"time": 4302, "pitch": 67, "duration": 46, "velocity": 76}, {"time": 4350, "pitch": 68, "duration": 36, "velocity": 80}, {"time": 4386, "pitch": 77, "duration": 11, "velocity": 86}, {"time": 4398, "pitch": 75, "duration": 12, "velocity": 85}, {"time": 4410, "pitch": 77, "duration": 13, "velocity": 80}, {"time": 4422, "pitch": 79, "duration": 20, "velocity": 80}, {"time": 4446, "pitch": 73, "duration": 45, "velocity": 80}, {"time": 4446, "pitch": 77, "duration": 46, "velocity": 85}, {"time": 4494, "pitch": 75, "duration": 25, "velocity": 92}, {"time": 4518, "pitch": 72, "duration": 19, "velocity": 81}, {"time": 4542, "pitch": 70, "duration": 36, "velocity": 79}, {"time": 4542, "pitch": 73, "duration": 37, "velocity": 80}, {"time": 4578, "pitch": 72, "duration": 7, "velocity": 73}, {"time": 4584, "pitch": 73, "duration": 7, "velocity": 78}, {"time": 4590, "pitch": 75, "duration": 37, "velocity": 85}, {"time": 4638, "pitch": 75, "duration": 37, "velocity": 84}, {"time": 4638, "pitch": 80, "duration": 37, "velocity": 79}, {"time": 4674, "pitch": 82, "duration": 7, "velocity": 75}, {"time": 4680, "pitch": 80, "duration": 7, "velocity": 84}, {"time": 4686, "pitch": 79, "duration": 27, "velocity": 83}, {"time": 4710, "pitch": 80, "duration": 12, "velocity": 82}, {"time": 4722, "pitch": 79, "duration": 14, "velocity": 72}, {"time": 4734, "pitch": 77, "duration": 42, "velocity": 84}, {"time": 4782, "pitch": 79, "duration": 25, "velocity": 89}, {"time": 4806, "pitch": 75, "duration": 20, "velocity": 87}, {"time": 4830, "pitch": 73, "duration": 39, "velocity": 80}, {"time": 4830, "pitch": 77, "duration": 36, "velocity": 85}, {"time": 4866, "pitch": 80, "duration": 16, "velocity": 83}, {"time": 4878, "pitch": 75, "duration": 22, "velocity": 87}, {"time": 4902, "pitch": 77, "duration": 12, "velocity": 84}, {"time": 4914, "pitch": 75, "duration": 12, "velocity": 87}, {"time": 4926, "pitch": 70, "duration": 42, "velocity": 78}, {"time": 4926, "pitch": 73, "duration": 44, "velocity": 82}, {"time": 4974, "pitch": 70, "duration": 31, "velocity": 76}, {"time": 4974, "pitch": 75, "duration": 25, "velocity": 81}, {"time": 4998, "pitch": 73, "duration": 24, "velocity": 80}, {"time": 5022, "pitch": 82, "duration": 16, "velocity": 94}, {"time": 5040, "pitch": 80, "duration": 17, "velocity": 101}, {"time": 5058, "pitch": 84, "duration": 9, "velocity": 101}, {"time": 5070, "pitch": 82, "duration": 15, "velocity": 90}, {"time": 5088, "pitch": 75, "duration": 13, "velocity": 102}, {"time": 5256, "pitch": 87, "duration": 3, "velocity": 89}, {"time": 5262, "pitch": 87, "duration": 4, "velocity": 92}, {"time": 5268, "pitch": 87, "duration": 3, "velocity": 94}, {"time": 5274, "pitch": 87, "duration": 4, "velocity": 92}, {"time": 5280, "pitch": 84, "duration": 3, "velocity": 86}, {"time": 5286, "pitch": 84, "duration": 4, "velocity": 87}, {"time": 5292, "pitch": 84, "duration": 8, "velocity": 92}, {"time": 5304, "pitch": 84, "duration": 3, "velocity": 86}, {"time": 5310, "pitch": 84, "duration": 3, "velocity": 89}, {"time": 5316, "pitch": 84, "duration": 3, "velocity": 96}, {"time": 5322, "pitch": 84, "duration": 5, "velocity": 94}, {"time": 5328, "pitch": 82, "duration": 3, "velocity": 87}, {"time": 5334, "pitch": 82, "duration": 3, "velocity": 85}, {"time": 5340, "pitch": 82, "duration": 12, "velocity": 87}, {"time": 5352, "pitch": 82, "duration": 4, "velocity": 83}, {"time": 5358, "pitch": 82, "duration": 3, "velocity": 90}, {"time": 5364, "pitch": 82, "duration": 3, "velocity": 91}, {"time": 5370, "pitch": 82, "duration": 4, "velocity": 94}, {"time": 5376, "pitch": 80, "duration": 3, "velocity": 87}, {"time": 5382, "pitch": 80, "duration": 3, "velocity": 88}, {"time": 5388, "pitch": 80, "duration": 15, "velocity": 90}, {"time": 5406, "pitch": 80, "duration": 5, "velocity": 92}, {"time": 5412, "pitch": 82, "duration": 3, "velocity": 96}, {"time": 5418, "pitch": 84, "duration": 12, "velocity": 92}, {"time": 5430, "pitch": 87, "duration": 10, "velocity": 91}, {"time": 5442, "pitch": 82, "duration": 10, "velocity": 87}, {"time": 5454, "pitch": 80, "duration": 11, "velocity": 89}, {"time": 5466, "pitch": 77, "duration": 12, "velocity": 99}, {"time": 5478, "pitch": 77, "duration": 6, "velocity": 101}, {"time": 5484, "pitch": 79, "duration": 10, "velocity": 92}, {"time": 5496, "pitch": 80, "duration": 16, "velocity": 94}, {"time": 5514, "pitch": 82, "duration": 10, "velocity": 89}, {"time": 5526, "pitch": 80, "duration": 8, "velocity": 92}, {"time": 5538, "pitch": 75, "duration": 10, "velocity": 101}, {"time": 5545, "pitch": 70, "duration": 10, "velocity": 90}, {"time": 5554, "pitch": 68, "duration": 7, "velocity": 92}, {"time": 5562, "pitch": 68, "duration": 60, "velocity": 86}, {"time": 5628, "pitch": 73, "duration": 6, "velocity": 81}, {"time": 5634, "pitch": 72, "duration": 7, "velocity": 86}, {"time": 5640, "pitch": 70, "duration": 6, "velocity": 92}, {"time": 5646, "pitch": 68, "duration": 3, "velocity": 87}, {"time": 5652, "pitch": 63, "duration": 2, "velocity": 87}, {"time": 5658, "pitch": 63, "duration": 89, "velocity": 96}], "annotations": [{"time": 401, "annotation": {"number": 64, "value": 127}, "group": "control_change"}, {"time": 416, "annotation": {"number": 64, "value": 0}, "group": "control_change"}, {"time": 430, "annotation": {"number": 64, "value": 127}, "group": "control_change"}, {"time": 431, "annotation": {"number": 64, "value": 0}, "group": "control_change"}, {"time": 432, "annotation": {"number": 64, "value": 127}, "group": "control_change"}, {"time": 443, "annotation": {"number": 64, "value": 0}, "group": "control_change"}, {"time": 5645, "annotation": {"number": 64, "value": 127}, "group": "control_change"}, {"time": 5660, "annotation": {"number": 64, "value": 0}, "group": "control_change"}, {"time": 5674, "annotation": {"number": 64, "value": 127}, "group": "control_change"}, {"time": 5675, "annotation": {"number": 64, "value": 0}, "group": "control_change"}, {"time": 5676, "annotation": {"number": 64, "value": 127}, "group": "control_change"}, {"time": 5687, "annotation": {"number": 64, "value": 0}, "group": "control_change"}]}, {"program": 0, "is_drum": false, "name": "PIANO", "notes": [{"time": 30, "pitch": 44, "duration": 34, "velocity": 85}, {"time": 36, "pitch": 51, "duration": 67, "velocity": 80}, {"time": 42, "pitch": 58, "duration": 6, "velocity": 81}, {"time": 48, "pitch": 56, "duration": 29, "velocity": 84}, {"time": 48, "pitch": 60, "duration": 29, "velocity": 81}, {"time": 78, "pitch": 43, "duration": 33, "velocity": 76}, {"time": 84, "pitch": 55, "duration": 6, "velocity": 75}, {"time": 90, "pitch": 58, "duration": 12, "velocity": 79}, {"time": 96, "pitch": 63, "duration": 15, "velocity": 84}, {"time": 126, "pitch": 41, "duration": 28, "velocity": 85}, {"time": 126, "pitch": 56, "duration": 14, "velocity": 78}, {"time": 132, "pitch": 48, "duration": 19, "velocity": 74}, {"time": 138, "pitch": 53, "duration": 11, "velocity": 83}, {"time": 144, "pitch": 56, "duration": 4, "velocity": 79}, {"time": 144, "pitch": 60, "duration": 6, "velocity": 80}, {"time": 174, "pitch": 39, "duration": 31, "velocity": 74}, {"time": 174, "pitch": 63, "duration": 13, "velocity": 79}, {"time": 180, "pitch": 46, "duration": 25, "velocity": 72}, {"time": 186, "pitch": 58, "duration": 8, "velocity": 75}, {"time": 192, "pitch": 67, "duration": 12, "velocity": 86}, {"time": 222, "pitch": 49, "duration": 31, "velocity": 81}, {"time": 222, "pitch": 65, "duration": 12, "velocity": 85}, {"time": 228, "pitch": 56, "duration": 14, "velocity": 80}, {"time": 234, "pitch": 61, "duration": 7, "velocity": 78}, {"time": 240, "pitch": 63, "duration": 6, "velocity": 83}, {"time": 252, "pitch": 65, "duration": 2, "velocity": 89}, {"time": 270, "pitch": 48, "duration": 34, "velocity": 85}, {"time": 270, "pitch": 60, "duration": 6, "velocity": 79}, {"time": 270, "pitch": 63, "duration": 13, "velocity": 80}, {"time": 276, "pitch": 55, "duration": 24, "velocity": 77}, {"time": 282, "pitch": 60, "duration": 3, "velocity": 80}, {"time": 288, "pitch": 60, "duration": 16, "velocity": 84}, {"time": 288, "pitch": 63, "duration": 15, "velocity": 82}, {"time": 318, "pitch": 42, "duration": 27, "velocity": 85}, {"time": 318, "pitch": 54, "duration": 6, "velocity": 79}, {"time": 318, "pitch": 61, "duration": 10, "velocity": 83}, {"time": 324, "pitch": 49, "duration": 21, "velocity": 75}, {"time": 330, "pitch": 54, "duration": 19, "velocity": 84}, {"time": 336, "pitch": 58, "duration": 13, "velocity": 81}, {"time": 348, "pitch": 66, "duration": 5, "velocity": 88}, {"time": 366, "pitch": 42, "duration": 19, "velocity": 80}, {"time": 366, "pitch": 54, "duration": 17, "velocity": 74}, {"time": 366, "pitch": 58, "duration": 17, "velocity": 77}, {"time": 366, "pitch": 61, "duration": 18, "velocity": 75}, {"time": 414, "pitch": 39, "duration": 39, "velocity": 86}, {"time": 414, "pitch": 51, "duration": 6, "velocity": 80}, {"time": 414, "pitch": 58, "duration": 11, "velocity": 77}, {"time": 420, "pitch": 46, "duration": 28, "velocity": 72}, {"time": 426, "pitch": 51, "duration": 17, "velocity": 85}, {"time": 432, "pitch": 58, "duration": 12, "velocity": 76}, {"time": 450, "pitch": 63, "duration": 6, "velocity": 78}, {"time": 456, "pitch": 70, "duration": 6, "velocity": 75}, {"time": 462, "pitch": 39, "duration": 40, "velocity": 86}, {"time": 462, "pitch": 63, "duration": 43, "velocity": 72}, {"time": 462, "pitch": 67, "duration": 42, "velocity": 73}, {"time": 462, "pitch": 75, "duration": 44, "velocity": 73}, {"time": 510, "pitch": 44, "duration": 34, "velocity": 82}, {"time": 510, "pitch": 56, "duration": 13, "velocity": 77}, {"time": 510, "pitch": 63, "duration": 12, "velocity": 77}, {"time": 522, "pitch": 51, "duration": 37, "velocity": 73}, {"time": 534, "pitch": 60, "duration": 6, "velocity": 85}, {"time": 534, "pitch": 63, "duration": 10, "velocity": 85}, {"time": 558, "pitch": 43, "duration": 38, "velocity": 78}, {"time": 558, "pitch": 58, "duration": 12, "velocity": 71}, {"time": 558, "pitch": 63, "duration": 8, "velocity": 77}, {"time": 570, "pitch": 51, "duration": 24, "velocity": 75}, {"time": 582, "pitch": 58, "duration": 3, "velocity": 32}, {"time": 582, "pitch": 63, "duration": 12, "velocity": 83}, {"time": 582, "pitch": 67, "duration": 10, "velocity": 79}, {"time": 594, "pitch": 58, "duration": 2, "velocity": 77}, {"time": 606, "pitch": 41, "duration": 39, "velocity": 86}, {"time": 606, "pitch": 60, "duration": 13, "velocity": 75}, {"time": 606, "pitch": 65, "duration": 10, "velocity": 80}, {"time": 618, "pitch": 48, "duration": 25, "velocity": 51}, {"time": 630, "pitch": 60, "duration": 4, "velocity": 84}, {"time": 630, "pitch": 65, "duration": 8, "velocity": 91}, {"time": 630, "pitch": 68, "duration": 12, "velocity": 86}, {"time": 654, "pitch": 39, "duration": 31, "velocity": 81}, {"time": 654, "pitch": 58, "duration": 7, "velocity": 74}, {"time": 654, "pitch": 63, "duration": 11, "velocity": 81}, {"time": 654, "pitch": 67, "duration": 11, "velocity": 75}, {"time": 666, "pitch": 46, "duration": 18, "velocity": 64}, {"time": 678, "pitch": 58, "duration": 6, "velocity": 85}, {"time": 678, "pitch": 63, "duration": 9, "velocity": 86}, {"time": 690, "pitch": 61, "duration": 7, "velocity": 83}, {"time": 696, "pitch": 60, "duration": 4, "velocity": 78}, {"time": 702, "pitch": 49, "duration": 32, "velocity": 83}, {"time": 702, "pitch": 56, "duration": 5, "velocity": 78}, {"time": 702, "pitch": 61, "duration": 14, "velocity": 77}, {"time": 714, "pitch": 56, "duration": 4, "velocity": 74}, {"time": 726, "pitch": 56, "duration": 4, "velocity": 80}, {"time": 726, "pitch": 61, "duration": 12, "velocity": 81}, {"time": 726, "pitch": 65, "duration": 14, "velocity": 85}, {"time": 738, "pitch": 56, "duration": 2, "velocity": 73}, {"time": 750, "pitch": 48, "duration": 33, "velocity": 85}, {"time": 750, "pitch": 58, "duration": 11, "velocity": 77}, {"time": 750, "pitch": 63, "duration": 13, "velocity": 80}, {"time": 762, "pitch": 55, "duration": 18, "velocity": 66}, {"time": 774, "pitch": 60, "duration": 5, "velocity": 79}, {"time": 774, "pitch": 63, "duration": 8, "velocity": 81}, {"time": 774, "pitch": 67, "duration": 8, "velocity": 81}, {"time": 798, "pitch": 46, "duration": 32, "velocity": 84}, {"time": 798, "pitch": 56, "duration": 10, "velocity": 75}, {"time": 798, "pitch": 61, "duration": 11, "velocity": 78}, {"time": 810, "pitch": 53, "duration": 14, "velocity": 71}, {"time": 822, "pitch": 58, "duration": 6, "velocity": 80}, {"time": 822, "pitch": 61, "duration": 6, "velocity": 86}, {"time": 822, "pitch": 65, "duration": 6, "velocity": 86}, {"time": 828, "pitch": 53, "duration": 3, "velocity": 81}, {"time": 834, "pitch": 58, "duration": 6, "velocity": 81}, {"time": 840, "pitch": 61, "duration": 7, "velocity": 78}, {"time": 846, "pitch": 39, "duration": 3, "velocity": 88}, {"time": 846, "pitch": 63, "duration": 11, "velocity": 78}, {"time": 858, "pitch": 51, "duration": 18, "velocity": 79}, {"time": 864, "pitch": 58, "duration": 11, "velocity": 80}, {"time": 870, "pitch": 67, "duration": 6, "velocity": 88}, {"time": 876, "pitch": 68, "duration": 7, "velocity": 84}, {"time": 882, "pitch": 70, "duration": 7, "velocity": 85}, {"time": 888, "pitch": 68, "duration": 4, "velocity": 56}, {"time": 894, "pitch": 44, "duration": 42, "velocity": 86}, {"time": 894, "pitch": 72, "duration": 13, "velocity": 86}, {"time": 906, "pitch": 51, "duration": 32, "velocity": 65}, {"time": 918, "pitch": 63, "duration": 4, "velocity": 80}, {"time": 918, "pitch": 68, "duration": 11, "velocity": 81}, {"time": 930, "pitch": 63, "duration": 9, "velocity": 77}, {"time": 942, "pitch": 37, "duration": 14, "velocity": 82}, {"time": 942, "pitch": 61, "duration": 8, "velocity": 76}, {"time": 942, "pitch": 68, "duration": 12, "velocity": 79}, {"time": 948, "pitch": 44, "duration": 8, "velocity": 76}, {"time": 954, "pitch": 61, "duration": 6, "velocity": 85}, {"time": 960, "pitch": 68, "duration": 4, "velocity": 85}, {"time": 966, "pitch": 39, "duration": 11, "velocity": 87}, {"time": 966, "pitch": 63, "duration": 12, "velocity": 84}, {"time": 966, "pitch": 67, "duration": 9, "velocity": 91}, {"time": 990, "pitch": 44, "duration": 31, "velocity": 85}, {"time": 990, "pitch": 63, "duration": 14, "velocity": 78}, {"time": 990, "pitch": 68, "duration": 13, "velocity": 78}, {"time": 1002, "pitch": 51, "duration": 17, "velocity": 70}, {"time": 1014, "pitch": 63, "duration": 4, "velocity": 87}, {"time": 1014, "pitch": 68, "duration": 8, "velocity": 88}, {"time": 1014, "pitch": 72, "duration": 11, "velocity": 88}, {"time": 1026, "pitch": 63, "duration": 9, "velocity": 85}, {"time": 1038, "pitch": 43, "duration": 30, "velocity": 76}, {"time": 1038, "pitch": 51, "duration": 31, "velocity": 56}, {"time": 1038, "pitch": 67, "duration": 14, "velocity": 78}, {"time": 1038, "pitch": 72, "duration": 13, "velocity": 84}, {"time": 1062, "pitch": 63, "duration": 4, "velocity": 85}, {"time": 1062, "pitch": 67, "duration": 11, "velocity": 92}, {"time": 1062, "pitch": 72, "duration": 13, "velocity": 86}, {"time": 1074, "pitch": 43, "duration": 6, "velocity": 86}, {"time": 1074, "pitch": 63, "duration": 4, "velocity": 87}, {"time": 1086, "pitch": 41, "duration": 2, "velocity": 86}, {"time": 1086, "pitch": 65, "duration": 14, "velocity": 79}, {"time": 1086, "pitch": 68, "duration": 15, "velocity": 77}, {"time": 1086, "pitch": 72, "duration": 14, "velocity": 85}, {"time": 1098, "pitch": 53, "duration": 10, "velocity": 86}, {"time": 1110, "pitch": 60, "duration": 5, "velocity": 81}, {"time": 1110, "pitch": 65, "duration": 5, "velocity": 86}, {"time": 1110, "pitch": 68, "duration": 5, "velocity": 84}, {"time": 1110, "pitch": 72, "duration": 12, "velocity": 86}, {"time": 1134, "pitch": 39, "duration": 31, "velocity": 88}, {"time": 1134, "pitch": 63, "duration": 6, "velocity": 79}, {"time": 1134, "pitch": 67, "duration": 11, "velocity": 76}, {"time": 1134, "pitch": 72, "duration": 11, "velocity": 85}, {"time": 1158, "pitch": 63, "duration": 5, "velocity": 86}, {"time": 1158, "pitch": 67, "duration": 5, "velocity": 94}, {"time": 1158, "pitch": 72, "duration": 8, "velocity": 90}, {"time": 1164, "pitch": 46, "duration": 3, "velocity": 82}, {"time": 1170, "pitch": 63, "duration": 4, "velocity": 85}, {"time": 1170, "pitch": 70, "duration": 11, "velocity": 90}, {"time": 1182, "pitch": 49, "duration": 27, "velocity": 87}, {"time": 1182, "pitch": 65, "duration": 5, "velocity": 81}, {"time": 1182, "pitch": 68, "duration": 10, "velocity": 75}, {"time": 1194, "pitch": 56, "duration": 17, "velocity": 72}, {"time": 1206, "pitch": 61, "duration": 6, "velocity": 87}, {"time": 1206, "pitch": 65, "duration": 5, "velocity": 96}, {"time": 1206, "pitch": 68, "duration": 5, "velocity": 86}, {"time": 1218, "pitch": 49, "duration": 2, "velocity": 87}, {"time": 1230, "pitch": 48, "duration": 27, "velocity": 86}, {"time": 1230, "pitch": 60, "duration": 7, "velocity": 80}, {"time": 1230, "pitch": 63, "duration": 8, "velocity": 80}, {"time": 1230, "pitch": 67, "duration": 7, "velocity": 78}, {"time": 1242, "pitch": 55, "duration": 14, "velocity": 62}, {"time": 1254, "pitch": 60, "duration": 5, "velocity": 84}, {"time": 1254, "pitch": 63, "duration": 12, "velocity": 88}, {"time": 1254, "pitch": 67, "duration": 12, "velocity": 86}, {"time": 1254, "pitch": 72, "duration": 12, "velocity": 86}, {"time": 1266, "pitch": 60, "duration": 4, "velocity": 89}, {"time": 1278, "pitch": 46, "duration": 28, "velocity": 86}, {"time": 1278, "pitch": 58, "duration": 6, "velocity": 76}, {"time": 1278, "pitch": 61, "duration": 10, "velocity": 81}, {"time": 1278, "pitch": 70, "duration": 10, "velocity": 85}, {"time": 1290, "pitch": 58, "duration": 3, "velocity": 74}, {"time": 1302, "pitch": 58, "duration": 6, "velocity": 85}, {"time": 1302, "pitch": 61, "duration": 6, "velocity": 88}, {"time": 1302, "pitch": 65, "duration": 7, "velocity": 89}, {"time": 1314, "pitch": 46, "duration": 2, "velocity": 87}, {"time": 1326, "pitch": 39, "duration": 2, "velocity": 87}, {"time": 1326, "pitch": 63, "duration": 10, "velocity": 86}, {"time": 1326, "pitch": 67, "duration": 12, "velocity": 81}, {"time": 1338, "pitch": 51, "duration": 17, "velocity": 86}, {"time": 1344, "pitch": 58, "duration": 10, "velocity": 88}, {"time": 1350, "pitch": 67, "duration": 4, "velocity": 94}, {"time": 1356, "pitch": 68, "duration": 3, "velocity": 86}, {"time": 1362, "pitch": 70, "duration": 10, "velocity": 86}, {"time": 1374, "pitch": 44, "duration": 31, "velocity": 86}, {"time": 1374, "pitch": 63, "duration": 15, "velocity": 85}, {"time": 1374, "pitch": 68, "duration": 14, "velocity": 81}, {"time": 1386, "pitch": 51, "duration": 13, "velocity": 79}, {"time": 1398, "pitch": 63, "duration": 6, "velocity": 86}, {"time": 1398, "pitch": 68, "duration": 7, "velocity": 89}, {"time": 1398, "pitch": 72, "duration": 12, "velocity": 88}, {"time": 1404, "pitch": 51, "duration": 4, "velocity": 86}, {"time": 1410, "pitch": 70, "duration": 6, "velocity": 87}, {"time": 1416, "pitch": 68, "duration": 6, "velocity": 70}, {"time": 1422, "pitch": 39, "duration": 2, "velocity": 92}, {"time": 1422, "pitch": 70, "duration": 14, "velocity": 86}, {"time": 1428, "pitch": 51, "duration": 16, "velocity": 86}, {"time": 1434, "pitch": 58, "duration": 10, "velocity": 87}, {"time": 1440, "pitch": 63, "duration": 4, "velocity": 86}, {"time": 1446, "pitch": 51, "duration": 15, "velocity": 94}, {"time": 1446, "pitch": 58, "duration": 14, "velocity": 86}, {"time": 1446, "pitch": 63, "duration": 20, "velocity": 87}, {"time": 1446, "pitch": 67, "duration": 17, "velocity": 90}, {"time": 1446, "pitch": 70, "duration": 23, "velocity": 91}, {"time": 1446, "pitch": 75, "duration": 17, "velocity": 90}, {"time": 1458, "pitch": 55, "duration": 3, "velocity": 99}, {"time": 1470, "pitch": 44, "duration": 40, "velocity": 86}, {"time": 1470, "pitch": 63, "duration": 12, "velocity": 86}, {"time": 1470, "pitch": 68, "duration": 12, "velocity": 85}, {"time": 1482, "pitch": 51, "duration": 70, "velocity": 78}, {"time": 1494, "pitch": 63, "duration": 5, "velocity": 89}, {"time": 1494, "pitch": 68, "duration": 8, "velocity": 91}, {"time": 1494, "pitch": 72, "duration": 13, "velocity": 89}, {"time": 1506, "pitch": 63, "duration": 11, "velocity": 86}, {"time": 1518, "pitch": 43, "duration": 32, "velocity": 86}, {"time": 1518, "pitch": 63, "duration": 7, "velocity": 79}, {"time": 1518, "pitch": 67, "duration": 13, "velocity": 86}, {"time": 1518, "pitch": 70, "duration": 14, "velocity": 85}, {"time": 1530, "pitch": 63, "duration": 8, "velocity": 83}, {"time": 1542, "pitch": 63, "duration": 6, "velocity": 85}, {"time": 1542, "pitch": 67, "duration": 12, "velocity": 83}, {"time": 1542, "pitch": 70, "duration": 13, "velocity": 86}, {"time": 1542, "pitch": 75, "duration": 10, "velocity": 89}, {"time": 1554, "pitch": 63, "duration": 3, "velocity": 87}, {"time": 1566, "pitch": 41, "duration": 31, "velocity": 87}, {"time": 1566, "pitch": 65, "duration": 9, "velocity": 84}, {"time": 1566, "pitch": 68, "duration": 10, "velocity": 77}, {"time": 1578, "pitch": 48, "duration": 14, "velocity": 78}, {"time": 1590, "pitch": 65, "duration": 4, "velocity": 88}, {"time": 1590, "pitch": 68, "duration": 5, "velocity": 90}, {"time": 1590, "pitch": 72, "duration": 7, "velocity": 90}, {"time": 1596, "pitch": 48, "duration": 2, "velocity": 85}, {"time": 1602, "pitch": 65, "duration": 6, "velocity": 81}, {"time": 1602, "pitch": 70, "duration": 6, "velocity": 85}, {"time": 1608, "pitch": 68, "duration": 4, "velocity": 76}, {"time": 1614, "pitch": 39, "duration": 30, "velocity": 88}, {"time": 1614, "pitch": 70, "duration": 10, "velocity": 84}, {"time": 1626, "pitch": 63, "duration": 4, "velocity": 80}, {"time": 1638, "pitch": 63, "duration": 6, "velocity": 88}, {"time": 1638, "pitch": 67, "duration": 6, "velocity": 88}, {"time": 1644, "pitch": 46, "duration": 2, "velocity": 77}, {"time": 1650, "pitch": 65, "duration": 6, "velocity": 78}, {"time": 1650, "pitch": 68, "duration": 7, "velocity": 84}, {"time": 1656, "pitch": 67, "duration": 6, "velocity": 85}, {"time": 1662, "pitch": 49, "duration": 31, "velocity": 89}, {"time": 1662, "pitch": 65, "duration": 12, "velocity": 90}, {"time": 1674, "pitch": 56, "duration": 15, "velocity": 86}, {"time": 1686, "pitch": 61, "duration": 9, "velocity": 85}, {"time": 1686, "pitch": 65, "duration": 8, "velocity": 89}, {"time": 1686, "pitch": 68, "duration": 12, "velocity": 82}, {"time": 1698, "pitch": 56, "duration": 3, "velocity": 85}, {"time": 1710, "pitch": 48, "duration": 31, "velocity": 87}, {"time": 1710, "pitch": 60, "duration": 7, "velocity": 84}, {"time": 1710, "pitch": 63, "duration": 11, "velocity": 85}, {"time": 1710, "pitch": 67, "duration": 14, "velocity": 86}, {"time": 1716, "pitch": 55, "duration": 20, "velocity": 77}, {"time": 1722, "pitch": 60, "duration": 5, "velocity": 85}, {"time": 1734, "pitch": 60, "duration": 6, "velocity": 87}, {"time": 1734, "pitch": 67, "duration": 8, "velocity": 87}, {"time": 1740, "pitch": 55, "duration": 3, "velocity": 79}, {"time": 1746, "pitch": 60, "duration": 2, "velocity": 80}, {"time": 1746, "pitch": 63, "duration": 2, "velocity": 84}, {"time": 1758, "pitch": 46, "duration": 31, "velocity": 86}, {"time": 1758, "pitch": 56, "duration": 6, "velocity": 85}, {"time": 1758, "pitch": 61, "duration": 12, "velocity": 85}, {"time": 1764, "pitch": 53, "duration": 19, "velocity": 77}, {"time": 1770, "pitch": 56, "duration": 8, "velocity": 85}, {"time": 1776, "pitch": 61, "duration": 2, "velocity": 86}, {"time": 1782, "pitch": 56, "duration": 6, "velocity": 86}, {"time": 1782, "pitch": 61, "duration": 7, "velocity": 94}, {"time": 1782, "pitch": 65, "duration": 7, "velocity": 94}, {"time": 1788, "pitch": 53, "duration": 3, "velocity": 86}, {"time": 1794, "pitch": 46, "duration": 2, "velocity": 86}, {"time": 1806, "pitch": 39, "duration": 2, "velocity": 91}, {"time": 1806, "pitch": 58, "duration": 7, "velocity": 82}, {"time": 1806, "pitch": 63, "duration": 10, "velocity": 85}, {"time": 1818, "pitch": 51, "duration": 19, "velocity": 77}, {"time": 1824, "pitch": 58, "duration": 11, "velocity": 94}, {"time": 1830, "pitch": 63, "duration": 4, "velocity": 87}, {"time": 1830, "pitch": 67, "duration": 4, "velocity": 96}, {"time": 1836, "pitch": 68, "duration": 3, "velocity": 89}, {"time": 1842, "pitch": 70, "duration": 6, "velocity": 89}, {"time": 1848, "pitch": 68, "duration": 2, "velocity": 86}, {"time": 1854, "pitch": 44, "duration": 34, "velocity": 86}, {"time": 1854, "pitch": 63, "duration": 6, "velocity": 78}, {"time": 1854, "pitch": 72, "duration": 11, "velocity": 84}, {"time": 1860, "pitch": 51, "duration": 14, "velocity": 75}, {"time": 1866, "pitch": 63, "duration": 7, "velocity": 84}, {"time": 1872, "pitch": 68, "duration": 7, "velocity": 87}, {"time": 1878, "pitch": 51, "duration": 9, "velocity": 85}, {"time": 1884, "pitch": 63, "duration": 4, "velocity": 86}, {"time": 1884, "pitch": 68, "duration": 5, "velocity": 87}, {"time": 1884, "pitch": 72, "duration": 8, "velocity": 87}, {"time": 1902, "pitch": 43, "duration": 35, "velocity": 76}, {"time": 1902, "pitch": 67, "duration": 12, "velocity": 86}, {"time": 1902, "pitch": 70, "duration": 11, "velocity": 85}, {"time": 1908, "pitch": 51, "duration": 29, "velocity": 56}, {"time": 1914, "pitch": 63, "duration": 2, "velocity": 81}, {"time": 1920, "pitch": 63, "duration": 8, "velocity": 87}, {"time": 1920, "pitch": 67, "duration": 8, "velocity": 96}, {"time": 1920, "pitch": 70, "duration": 8, "velocity": 90}, {"time": 1932, "pitch": 67, "duration": 5, "velocity": 96}, {"time": 1938, "pitch": 63, "duration": 5, "velocity": 83}, {"time": 1950, "pitch": 41, "duration": 28, "velocity": 87}, {"time": 1950, "pitch": 65, "duration": 6, "velocity": 86}, {"time": 1950, "pitch": 68, "duration": 9, "velocity": 85}, {"time": 1956, "pitch": 48, "duration": 21, "velocity": 80}, {"time": 1962, "pitch": 65, "duration": 3, "velocity": 86}, {"time": 1968, "pitch": 67, "duration": 2, "velocity": 89}, {"time": 1974, "pitch": 68, "duration": 5, "velocity": 89}, {"time": 1980, "pitch": 67, "duration": 5, "velocity": 92}, {"time": 1986, "pitch": 65, "duration": 2, "velocity": 84}, {"time": 1998, "pitch": 51, "duration": 29, "velocity": 87}, {"time": 1998, "pitch": 63, "duration": 5, "velocity": 84}, {"time": 1998, "pitch": 67, "duration": 6, "velocity": 85}, {"time": 2004, "pitch": 58, "duration": 13, "velocity": 81}, {"time": 2010, "pitch": 63, "duration": 2, "velocity": 86}, {"time": 2016, "pitch": 63, "duration": 5, "velocity": 88}, {"time": 2016, "pitch": 75, "duration": 4, "velocity": 88}, {"time": 2022, "pitch": 58, "duration": 5, "velocity": 80}, {"time": 2028, "pitch": 63, "duration": 2, "velocity": 79}, {"time": 2028, "pitch": 67, "duration": 5, "velocity": 86}, {"time": 2028, "pitch": 70, "duration": 5, "velocity": 86}, {"time": 2034, "pitch": 63, "duration": 2, "velocity": 82}, {"time": 2046, "pitch": 49, "duration": 27, "velocity": 87}, {"time": 2046, "pitch": 61, "duration": 13, "velocity": 84}, {"time": 2046, "pitch": 65, "duration": 12, "velocity": 85}, {"time": 2058, "pitch": 56, "duration": 13, "velocity": 85}, {"time": 2070, "pitch": 61, "duration": 6, "velocity": 90}, {"time": 2070, "pitch": 65, "duration": 6, "velocity": 99}, {"time": 2070, "pitch": 68, "duration": 7, "velocity": 87}, {"time": 2076, "pitch": 56, "duration": 2, "velocity": 91}, {"time": 2082, "pitch": 61, "duration": 8, "velocity": 92}, {"time": 2088, "pitch": 65, "duration": 2, "velocity": 81}, {"time": 2094, "pitch": 48, "duration": 21, "velocity": 90}, {"time": 2094, "pitch": 60, "duration": 5, "velocity": 88}, {"time": 2094, "pitch": 63, "duration": 8, "velocity": 86}, {"time": 2106, "pitch": 55, "duration": 5, "velocity": 85}, {"time": 2112, "pitch": 60, "duration": 3, "velocity": 94}, {"time": 2118, "pitch": 53, "duration": 13, "velocity": 92}, {"time": 2118, "pitch": 60, "duration": 3, "velocity": 87}, {"time": 2118, "pitch": 65, "duration": 6, "velocity": 89}, {"time": 2124, "pitch": 60, "duration": 2, "velocity": 87}, {"time": 2130, "pitch": 60, "duration": 3, "velocity": 83}, {"time": 2130, "pitch": 68, "duration": 3, "velocity": 85}, {"time": 2142, "pitch": 46, "duration": 34, "velocity": 88}, {"time": 2142, "pitch": 58, "duration": 7, "velocity": 84}, {"time": 2142, "pitch": 61, "duration": 12, "velocity": 85}, {"time": 2148, "pitch": 53, "duration": 19, "velocity": 87}, {"time": 2154, "pitch": 56, "duration": 7, "velocity": 87}, {"time": 2160, "pitch": 61, "duration": 3, "velocity": 86}, {"time": 2166, "pitch": 56, "duration": 6, "velocity": 88}, {"time": 2166, "pitch": 61, "duration": 7, "velocity": 89}, {"time": 2166, "pitch": 65, "duration": 8, "velocity": 91}, {"time": 2172, "pitch": 53, "duration": 3, "velocity": 85}, {"time": 2178, "pitch": 56, "duration": 2, "velocity": 80}, {"time": 2190, "pitch": 39, "duration": 27, "velocity": 89}, {"time": 2190, "pitch": 58, "duration": 5, "velocity": 81}, {"time": 2190, "pitch": 63, "duration": 5, "velocity": 85}, {"time": 2196, "pitch": 46, "duration": 12, "velocity": 80}, {"time": 2202, "pitch": 58, "duration": 2, "velocity": 76}, {"time": 2208, "pitch": 58, "duration": 7, "velocity": 87}, {"time": 2208, "pitch": 67, "duration": 9, "velocity": 87}, {"time": 2214, "pitch": 46, "duration": 4, "velocity": 83}, {"time": 2220, "pitch": 58, "duration": 4, "velocity": 87}, {"time": 2220, "pitch": 63, "duration": 3, "velocity": 86}, {"time": 2238, "pitch": 44, "duration": 35, "velocity": 87}, {"time": 2238, "pitch": 56, "duration": 7, "velocity": 80}, {"time": 2238, "pitch": 63, "duration": 16, "velocity": 82}, {"time": 2244, "pitch": 51, "duration": 43, "velocity": 71}, {"time": 2250, "pitch": 56, "duration": 4, "velocity": 72}, {"time": 2256, "pitch": 60, "duration": 12, "velocity": 78}, {"time": 2286, "pitch": 43, "duration": 42, "velocity": 80}, {"time": 2286, "pitch": 58, "duration": 6, "velocity": 76}, {"time": 2286, "pitch": 63, "duration": 13, "velocity": 84}, {"time": 2292, "pitch": 51, "duration": 39, "velocity": 77}, {"time": 2298, "pitch": 58, "duration": 10, "velocity": 81}, {"time": 2304, "pitch": 63, "duration": 4, "velocity": 85}, {"time": 2304, "pitch": 67, "duration": 4, "velocity": 81}, {"time": 2334, "pitch": 41, "duration": 21, "velocity": 79}, {"time": 2346, "pitch": 53, "duration": 8, "velocity": 87}, {"time": 2352, "pitch": 56, "duration": 9, "velocity": 88}, {"time": 2364, "pitch": 53, "duration": 6, "velocity": 87}, {"time": 2364, "pitch": 56, "duration": 9, "velocity": 89}, {"time": 2364, "pitch": 60, "duration": 10, "velocity": 86}, {"time": 2382, "pitch": 37, "duration": 14, "velocity": 89}, {"time": 2388, "pitch": 44, "duration": 8, "velocity": 88}, {"time": 2394, "pitch": 49, "duration": 7, "velocity": 91}, {"time": 2400, "pitch": 53, "duration": 4, "velocity": 87}, {"time": 2406, "pitch": 39, "duration": 58, "velocity": 94}, {"time": 2406, "pitch": 51, "duration": 60, "velocity": 85}, {"time": 2406, "pitch": 55, "duration": 60, "velocity": 86}, {"time": 2436, "pitch": 82, "duration": 3, "velocity": 67}, {"time": 2442, "pitch": 87, "duration": 2, "velocity": 87}, {"time": 2478, "pitch": 44, "duration": 31, "velocity": 85}, {"time": 2478, "pitch": 63, "duration": 14, "velocity": 78}, {"time": 2478, "pitch": 68, "duration": 13, "velocity": 78}, {"time": 2490, "pitch": 51, "duration": 17, "velocity": 70}, {"time": 2502, "pitch": 63, "duration": 4, "velocity": 87}, {"time": 2502, "pitch": 68, "duration": 8, "velocity": 88}, {"time": 2502, "pitch": 72, "duration": 11, "velocity": 88}, {"time": 2514, "pitch": 63, "duration": 9, "velocity": 85}, {"time": 2526, "pitch": 43, "duration": 30, "velocity": 76}, {"time": 2526, "pitch": 51, "duration": 31, "velocity": 56}, {"time": 2526, "pitch": 67, "duration": 14, "velocity": 78}, {"time": 2526, "pitch": 72, "duration": 13, "velocity": 84}, {"time": 2550, "pitch": 63, "duration": 4, "velocity": 85}, {"time": 2550, "pitch": 67, "duration": 11, "velocity": 92}, {"time": 2550, "pitch": 72, "duration": 13, "velocity": 86}, {"time": 2562, "pitch": 43, "duration": 6, "velocity": 86}, {"time": 2562, "pitch": 63, "duration": 4, "velocity": 87}, {"time": 2574, "pitch": 41, "duration": 2, "velocity": 86}, {"time": 2574, "pitch": 65, "duration": 14, "velocity": 79}, {"time": 2574, "pitch": 68, "duration": 15, "velocity": 77}, {"time": 2574, "pitch": 72, "duration": 14, "velocity": 85}, {"time": 2586, "pitch": 53, "duration": 10, "velocity": 86}, {"time": 2598, "pitch": 60, "duration": 5, "velocity": 81}, {"time": 2598, "pitch": 65, "duration": 5, "velocity": 86}, {"time": 2598, "pitch": 68, "duration": 5, "velocity": 84}, {"time": 2598, "pitch": 72, "duration": 12, "velocity": 86}, {"time": 2622, "pitch": 39, "duration": 31, "velocity": 88}, {"time": 2622, "pitch": 63, "duration": 6, "velocity": 79}, {"time": 2622, "pitch": 67, "duration": 11, "velocity": 76}, {"time": 2622, "pitch": 72, "duration": 11, "velocity": 85}, {"time": 2646, "pitch": 63, "duration": 5, "velocity": 86}, {"time": 2646, "pitch": 67, "duration": 5, "velocity": 94}, {"time": 2646, "pitch": 72, "duration": 8, "velocity": 90}, {"time": 2652, "pitch": 46, "duration": 3, "velocity": 82}, {"time": 2658, "pitch": 63, "duration": 4, "velocity": 85}, {"time": 2658, "pitch": 70, "duration": 11, "velocity": 90}, {"time": 2670, "pitch": 49, "duration": 27, "velocity": 87}, {"time": 2670, "pitch": 65, "duration": 5, "velocity": 81}, {"time": 2670, "pitch": 68, "duration": 10, "velocity": 75}, {"time": 2682, "pitch": 56, "duration": 17, "velocity": 72}, {"time": 2694, "pitch": 61, "duration": 6, "velocity": 87}, {"time": 2694, "pitch": 65, "duration": 5, "velocity": 96}, {"time": 2694, "pitch": 68, "duration": 5, "velocity": 86}, {"time": 2706, "pitch": 49, "duration": 2, "velocity": 87}, {"time": 2718, "pitch": 48, "duration": 27, "velocity": 86}, {"time": 2718, "pitch": 60, "duration": 7, "velocity": 80}, {"time": 2718, "pitch": 63, "duration": 8, "velocity": 80}, {"time": 2718, "pitch": 67, "duration": 7, "velocity": 78}, {"time": 2730, "pitch": 55, "duration": 14, "velocity": 62}, {"time": 2742, "pitch": 60, "duration": 5, "velocity": 84}, {"time": 2742, "pitch": 63, "duration": 12, "velocity": 88}, {"time": 2742, "pitch": 67, "duration": 12, "velocity": 86}, {"time": 2742, "pitch": 72, "duration": 12, "velocity": 86}, {"time": 2754, "pitch": 60, "duration": 4, "velocity": 89}, {"time": 2766, "pitch": 46, "duration": 28, "velocity": 86}, {"time": 2766, "pitch": 58, "duration": 6, "velocity": 76}, {"time": 2766, "pitch": 61, "duration": 10, "velocity": 81}, {"time": 2766, "pitch": 70, "duration": 10, "velocity": 85}, {"time": 2778, "pitch": 58, "duration": 3, "velocity": 74}, {"time": 2790, "pitch": 58, "duration": 6, "velocity": 85}, {"time": 2790, "pitch": 61, "duration": 6, "velocity": 88}, {"time": 2790, "pitch": 65, "duration": 7, "velocity": 89}, {"time": 2802, "pitch": 46, "duration": 2, "velocity": 87}, {"time": 2814, "pitch": 39, "duration": 2, "velocity": 87}, {"time": 2814, "pitch": 63, "duration": 10, "velocity": 86}, {"time": 2814, "pitch": 67, "duration": 12, "velocity": 81}, {"time": 2826, "pitch": 51, "duration": 17, "velocity": 86}, {"time": 2832, "pitch": 58, "duration": 10, "velocity": 88}, {"time": 2838, "pitch": 67, "duration": 4, "velocity": 94}, {"time": 2844, "pitch": 68, "duration": 3, "velocity": 86}, {"time": 2850, "pitch": 70, "duration": 10, "velocity": 86}, {"time": 2862, "pitch": 44, "duration": 31, "velocity": 86}, {"time": 2862, "pitch": 63, "duration": 15, "velocity": 85}, {"time": 2862, "pitch": 68, "duration": 14, "velocity": 81}, {"time": 2874, "pitch": 51, "duration": 13, "velocity": 79}, {"time": 2886, "pitch": 63, "duration": 6, "velocity": 86}, {"time": 2886, "pitch": 68, "duration": 7, "velocity": 89}, {"time": 2886, "pitch": 72, "duration": 12, "velocity": 88}, {"time": 2892, "pitch": 51, "duration": 4, "velocity": 86}, {"time": 2898, "pitch": 70, "duration": 6, "velocity": 87}, {"time": 2904, "pitch": 68, "duration": 6, "velocity": 70}, {"time": 2910, "pitch": 39, "duration": 2, "velocity": 92}, {"time": 2910, "pitch": 70, "duration": 14, "velocity": 86}, {"time": 2916, "pitch": 51, "duration": 16, "velocity": 86}, {"time": 2922, "pitch": 58, "duration": 10, "velocity": 87}, {"time": 2928, "pitch": 63, "duration": 4, "velocity": 86}, {"time": 2934, "pitch": 51, "duration": 15, "velocity": 94}, {"time": 2934, "pitch": 58, "duration": 14, "velocity": 86}, {"time": 2934, "pitch": 63, "duration": 20, "velocity": 87}, {"time": 2934, "pitch": 67, "duration": 17, "velocity": 90}, {"time": 2934, "pitch": 70, "duration": 23, "velocity": 91}, {"time": 2934, "pitch": 75, "duration": 17, "velocity": 90}, {"time": 2946, "pitch": 55, "duration": 3, "velocity": 99}, {"time": 2958, "pitch": 44, "duration": 40, "velocity": 86}, {"time": 2958, "pitch": 63, "duration": 12, "velocity": 86}, {"time": 2958, "pitch": 68, "duration": 12, "velocity": 85}, {"time": 2970, "pitch": 51, "duration": 70, "velocity": 78}, {"time": 2982, "pitch": 63, "duration": 5, "velocity": 89}, {"time": 2982, "pitch": 68, "duration": 8, "velocity": 91}, {"time": 2982, "pitch": 72, "duration": 13, "velocity": 89}, {"time": 2994, "pitch": 63, "duration": 11, "velocity": 86}, {"time": 3006, "pitch": 43, "duration": 32, "velocity": 86}, {"time": 3006, "pitch": 63, "duration": 7, "velocity": 79}, {"time": 3006, "pitch": 67, "duration": 13, "velocity": 86}, {"time": 3006, "pitch": 70, "duration": 14, "velocity": 85}, {"time": 3018, "pitch": 63, "duration": 8, "velocity": 83}, {"time": 3030, "pitch": 63, "duration": 6, "velocity": 85}, {"time": 3030, "pitch": 67, "duration": 12, "velocity": 83}, {"time": 3030, "pitch": 70, "duration": 13, "velocity": 86}, {"time": 3030, "pitch": 75, "duration": 10, "velocity": 89}, {"time": 3042, "pitch": 63, "duration": 3, "velocity": 87}, {"time": 3054, "pitch": 41, "duration": 31, "velocity": 87}, {"time": 3054, "pitch": 65, "duration": 9, "velocity": 84}, {"time": 3054, "pitch": 68, "duration": 10, "velocity": 77}, {"time": 3066, "pitch": 48, "duration": 14, "velocity": 78}, {"time": 3078, "pitch": 65, "duration": 4, "velocity": 88}, {"time": 3078, "pitch": 68, "duration": 5, "velocity": 90}, {"time": 3078, "pitch": 72, "duration": 7, "velocity": 90}, {"time": 3084, "pitch": 48, "duration": 2, "velocity": 85}, {"time": 3090, "pitch": 65, "duration": 6, "velocity": 81}, {"time": 3090, "pitch": 70, "duration": 6, "velocity": 85}, {"time": 3096, "pitch": 68, "duration": 4, "velocity": 76}, {"time": 3102, "pitch": 39, "duration": 30, "velocity": 88}, {"time": 3102, "pitch": 70, "duration": 10, "velocity": 84}, {"time": 3114, "pitch": 63, "duration": 4, "velocity": 80}, {"time": 3126, "pitch": 63, "duration": 6, "velocity": 88}, {"time": 3126, "pitch": 67, "duration": 6, "velocity": 88}, {"time": 3132, "pitch": 46, "duration": 2, "velocity": 77}, {"time": 3138, "pitch": 65, "duration": 6, "velocity": 78}, {"time": 3138, "pitch": 68, "duration": 7, "velocity": 84}, {"time": 3144, "pitch": 67, "duration": 6, "velocity": 85}, {"time": 3150, "pitch": 49, "duration": 31, "velocity": 89}, {"time": 3150, "pitch": 65, "duration": 12, "velocity": 90}, {"time": 3162, "pitch": 56, "duration": 15, "velocity": 86}, {"time": 3174, "pitch": 61, "duration": 9, "velocity": 85}, {"time": 3174, "pitch": 65, "duration": 8, "velocity": 89}, {"time": 3174, "pitch": 68, "duration": 12, "velocity": 82}, {"time": 3186, "pitch": 56, "duration": 3, "velocity": 85}, {"time": 3198, "pitch": 48, "duration": 31, "velocity": 87}, {"time": 3198, "pitch": 60, "duration": 7, "velocity": 84}, {"time": 3198, "pitch": 63, "duration": 11, "velocity": 85}, {"time": 3198, "pitch": 67, "duration": 14, "velocity": 86}, {"time": 3204, "pitch": 55, "duration": 20, "velocity": 77}, {"time": 3210, "pitch": 60, "duration": 5, "velocity": 85}, {"time": 3222, "pitch": 60, "duration": 6, "velocity": 87}, {"time": 3222, "pitch": 67, "duration": 8, "velocity": 87}, {"time": 3228, "pitch": 55, "duration": 3, "velocity": 79}, {"time": 3234, "pitch": 60, "duration": 2, "velocity": 80}, {"time": 3234, "pitch": 63, "duration": 2, "velocity": 84}, {"time": 3246, "pitch": 46, "duration": 31, "velocity": 86}, {"time": 3246, "pitch": 56, "duration": 6, "velocity": 85}, {"time": 3246, "pitch": 61, "duration": 12, "velocity": 85}, {"time": 3252, "pitch": 53, "duration": 19, "velocity": 77}, {"time": 3258, "pitch": 56, "duration": 8, "velocity": 85}, {"time": 3264, "pitch": 61, "duration": 2, "velocity": 86}, {"time": 3270, "pitch": 56, "duration": 6, "velocity": 86}, {"time": 3270, "pitch": 61, "duration": 7, "velocity": 94}, {"time": 3270, "pitch": 65, "duration": 7, "velocity": 94}, {"time": 3276, "pitch": 53, "duration": 3, "velocity": 86}, {"time": 3282, "pitch": 46, "duration": 2, "velocity": 86}, {"time": 3294, "pitch": 39, "duration": 2, "velocity": 91}, {"time": 3294, "pitch": 58, "duration": 7, "velocity": 82}, {"time": 3294, "pitch": 63, "duration": 10, "velocity": 85}, {"time": 3306, "pitch": 51, "duration": 19, "velocity": 77}, {"time": 3312, "pitch": 58, "duration": 11, "velocity": 94}, {"time": 3318, "pitch": 63, "duration": 4, "velocity": 87}, {"time": 3318, "pitch": 67, "duration": 4, "velocity": 96}, {"time": 3324, "pitch": 68, "duration": 3, "velocity": 89}, {"time": 3330, "pitch": 70, "duration": 6, "velocity": 89}, {"time": 3336, "pitch": 68, "duration": 2, "velocity": 86}, {"time": 3342, "pitch": 44, "duration": 34, "velocity": 86}, {"time": 3342, "pitch": 63, "duration": 6, "velocity": 78}, {"time": 3342, "pitch": 72, "duration": 11, "velocity": 84}, {"time": 3348, "pitch": 51, "duration": 14, "velocity": 75}, {"time": 3354, "pitch": 63, "duration": 7, "velocity": 84}, {"time": 3360, "pitch": 68, "duration": 7, "velocity": 87}, {"time": 3366, "pitch": 51, "duration": 9, "velocity": 85}, {"time": 3372, "pitch": 63, "duration": 4, "velocity": 86}, {"time": 3372, "pitch": 68, "duration": 5, "velocity": 87}, {"time": 3372, "pitch": 72, "duration": 8, "velocity": 87}, {"time": 3390, "pitch": 43, "duration": 35, "velocity": 76}, {"time": 3390, "pitch": 67, "duration": 12, "velocity": 86}, {"time": 3390, "pitch": 70, "duration": 11, "velocity": 85}, {"time": 3396, "pitch": 51, "duration": 29, "velocity": 56}, {"time": 3402, "pitch": 63, "duration": 2, "velocity": 81}, {"time": 3408, "pitch": 63, "duration": 8, "velocity": 87}, {"time": 3408, "pitch": 67, "duration": 8, "velocity": 96}, {"time": 3408, "pitch": 70, "duration": 8, "velocity": 90}, {"time": 3420, "pitch": 67, "duration": 5, "velocity": 96}, {"time": 3426, "pitch": 63, "duration": 5, "velocity": 83}, {"time": 3438, "pitch": 41, "duration": 28, "velocity": 87}, {"time": 3438, "pitch": 65, "duration": 6, "velocity": 86}, {"time": 3438, "pitch": 68, "duration": 9, "velocity": 85}, {"time": 3444, "pitch": 48, "duration": 21, "velocity": 80}, {"time": 3450, "pitch": 65, "duration": 3, "velocity": 86}, {"time": 3456, "pitch": 67, "duration": 2, "velocity": 89}, {"time": 3462, "pitch": 68, "duration": 5, "velocity": 89}, {"time": 3468, "pitch": 67, "duration": 5, "velocity": 92}, {"time": 3474, "pitch": 65, "duration": 2, "velocity": 84}, {"time": 3486, "pitch": 51, "duration": 29, "velocity": 87}, {"time": 3486, "pitch": 63, "duration": 5, "velocity": 84}, {"time": 3486, "pitch": 67, "duration": 6, "velocity": 85}, {"time": 3492, "pitch": 58, "duration": 13, "velocity": 81}, {"time": 3498, "pitch": 63, "duration": 2, "velocity": 86}, {"time": 3504, "pitch": 63, "duration": 5, "velocity": 88}, {"time": 3504, "pitch": 75, "duration": 4, "velocity": 88}, {"time": 3510, "pitch": 58, "duration": 5, "velocity": 80}, {"time": 3516, "pitch": 63, "duration": 2, "velocity": 79}, {"time": 3516, "pitch": 67, "duration": 5, "velocity": 86}, {"time": 3516, "pitch": 70, "duration": 5, "velocity": 86}, {"time": 3522, "pitch": 63, "duration": 2, "velocity": 82}, {"time": 3534, "pitch": 49, "duration": 27, "velocity": 87}, {"time": 3534, "pitch": 61, "duration": 13, "velocity": 84}, {"time": 3534, "pitch": 65, "duration": 12, "velocity": 85}, {"time": 3546, "pitch": 56, "duration": 13, "velocity": 85}, {"time": 3558, "pitch": 61, "duration": 6, "velocity": 90}, {"time": 3558, "pitch": 65, "duration": 6, "velocity": 99}, {"time": 3558, "pitch": 68, "duration": 7, "velocity": 87}, {"time": 3564, "pitch": 56, "duration": 2, "velocity": 91}, {"time": 3570, "pitch": 61, "duration": 8, "velocity": 92}, {"time": 3576, "pitch": 65, "duration": 2, "velocity": 81}, {"time": 3582, "pitch": 48, "duration": 21, "velocity": 90}, {"time": 3582, "pitch": 60, "duration": 5, "velocity": 88}, {"time": 3582, "pitch": 63, "duration": 8, "velocity": 86}, {"time": 3594, "pitch": 55, "duration": 5, "velocity": 85}, {"time": 3600, "pitch": 60, "duration": 3, "velocity": 94}, {"time": 3606, "pitch": 53, "duration": 13, "velocity": 92}, {"time": 3606, "pitch": 60, "duration": 3, "velocity": 87}, {"time": 3606, "pitch": 65, "duration": 6, "velocity": 89}, {"time": 3612, "pitch": 60, "duration": 2, "velocity": 87}, {"time": 3618, "pitch": 60, "duration": 3, "velocity": 83}, {"time": 3618, "pitch": 68, "duration": 3, "velocity": 85}, {"time": 3630, "pitch": 46, "duration": 34, "velocity": 88}, {"time": 3630, "pitch": 58, "duration": 7, "velocity": 84}, {"time": 3630, "pitch": 61, "duration": 12, "velocity": 85}, {"time": 3636, "pitch": 53, "duration": 19, "velocity": 87}, {"time": 3642, "pitch": 56, "duration": 7, "velocity": 87}, {"time": 3648, "pitch": 61, "duration": 3, "velocity": 86}, {"time": 3654, "pitch": 56, "duration": 6, "velocity": 88}, {"time": 3654, "pitch": 61, "duration": 7, "velocity": 89}, {"time": 3654, "pitch": 65, "duration": 8, "velocity": 91}, {"time": 3660, "pitch": 53, "duration": 3, "velocity": 85}, {"time": 3666, "pitch": 56, "duration": 2, "velocity": 80}, {"time": 3678, "pitch": 39, "duration": 27, "velocity": 89}, {"time": 3678, "pitch": 58, "duration": 5, "velocity": 81}, {"time": 3678, "pitch": 63, "duration": 5, "velocity": 85}, {"time": 3684, "pitch": 46, "duration": 12, "velocity": 80}, {"time": 3690, "pitch": 58, "duration": 2, "velocity": 76}, {"time": 3696, "pitch": 58, "duration": 7, "velocity": 87}, {"time": 3696, "pitch": 67, "duration": 9, "velocity": 87}, {"time": 3702, "pitch": 46, "duration": 4, "velocity": 83}, {"time": 3708, "pitch": 58, "duration": 4, "velocity": 87}, {"time": 3708, "pitch": 63, "duration": 3, "velocity": 86}, {"time": 3726, "pitch": 44, "duration": 35, "velocity": 87}, {"time": 3726, "pitch": 56, "duration": 7, "velocity": 80}, {"time": 3726, "pitch": 63, "duration": 16, "velocity": 82}, {"time": 3732, "pitch": 51, "duration": 43, "velocity": 71}, {"time": 3738, "pitch": 56, "duration": 4, "velocity": 72}, {"time": 3744, "pitch": 60, "duration": 12, "velocity": 78}, {"time": 3774, "pitch": 43, "duration": 42, "velocity": 80}, {"time": 3774, "pitch": 58, "duration": 6, "velocity": 76}, {"time": 3774, "pitch": 63, "duration": 13, "velocity": 84}, {"time": 3780, "pitch": 51, "duration": 39, "velocity": 77}, {"time": 3786, "pitch": 58, "duration": 10, "velocity": 81}, {"time": 3792, "pitch": 63, "duration": 4, "velocity": 85}, {"time": 3792, "pitch": 67, "duration": 4, "velocity": 81}, {"time": 3822, "pitch": 37, "duration": 13, "velocity": 85}, {"time": 3822, "pitch": 61, "duration": 7, "velocity": 85}, {"time": 3822, "pitch": 68, "duration": 12, "velocity": 83}, {"time": 3828, "pitch": 44, "duration": 6, "velocity": 68}, {"time": 3834, "pitch": 61, "duration": 2, "velocity": 85}, {"time": 3840, "pitch": 61, "duration": 8, "velocity": 85}, {"time": 3840, "pitch": 65, "duration": 8, "velocity": 86}, {"time": 3846, "pitch": 49, "duration": 9, "velocity": 83}, {"time": 3852, "pitch": 61, "duration": 3, "velocity": 86}, {"time": 3852, "pitch": 65, "duration": 2, "velocity": 90}, {"time": 3852, "pitch": 68, "duration": 3, "velocity": 86}, {"time": 3870, "pitch": 48, "duration": 35, "velocity": 85}, {"time": 3870, "pitch": 60, "duration": 7, "velocity": 80}, {"time": 3870, "pitch": 63, "duration": 8, "velocity": 79}, {"time": 3870, "pitch": 67, "duration": 12, "velocity": 78}, {"time": 3876, "pitch": 55, "duration": 13, "velocity": 72}, {"time": 3882, "pitch": 60, "duration": 2, "velocity": 80}, {"time": 3888, "pitch": 60, "duration": 7, "velocity": 85}, {"time": 3888, "pitch": 63, "duration": 7, "velocity": 84}, {"time": 3894, "pitch": 55, "duration": 9, "velocity": 73}, {"time": 3900, "pitch": 60, "duration": 4, "velocity": 84}, {"time": 3906, "pitch": 63, "duration": 5, "velocity": 72}, {"time": 3912, "pitch": 60, "duration": 2, "velocity": 77}, {"time": 3918, "pitch": 46, "duration": 38, "velocity": 85}, {"time": 3918, "pitch": 58, "duration": 7, "velocity": 75}, {"time": 3918, "pitch": 61, "duration": 12, "velocity": 80}, {"time": 3924, "pitch": 53, "duration": 14, "velocity": 74}, {"time": 3930, "pitch": 58, "duration": 2, "velocity": 74}, {"time": 3936, "pitch": 58, "duration": 8, "velocity": 81}, {"time": 3936, "pitch": 61, "duration": 8, "velocity": 82}, {"time": 3948, "pitch": 58, "duration": 5, "velocity": 85}, {"time": 3948, "pitch": 61, "duration": 6, "velocity": 89}, {"time": 3948, "pitch": 65, "duration": 6, "velocity": 86}, {"time": 3954, "pitch": 53, "duration": 2, "velocity": 77}, {"time": 3960, "pitch": 58, "duration": 2, "velocity": 78}, {"time": 3966, "pitch": 44, "duration": 33, "velocity": 85}, {"time": 3966, "pitch": 56, "duration": 7, "velocity": 82}, {"time": 3966, "pitch": 60, "duration": 7, "velocity": 77}, {"time": 3972, "pitch": 51, "duration": 25, "velocity": 76}, {"time": 3978, "pitch": 63, "duration": 2, "velocity": 80}, {"time": 3984, "pitch": 56, "duration": 8, "velocity": 86}, {"time": 3984, "pitch": 63, "duration": 8, "velocity": 85}, {"time": 3996, "pitch": 56, "duration": 4, "velocity": 85}, {"time": 3996, "pitch": 63, "duration": 10, "velocity": 86}, {"time": 3996, "pitch": 68, "duration": 10, "velocity": 84}, {"time": 4002, "pitch": 44, "duration": 7, "velocity": 84}, {"time": 4014, "pitch": 41, "duration": 34, "velocity": 87}, {"time": 4014, "pitch": 60, "duration": 7, "velocity": 81}, {"time": 4014, "pitch": 65, "duration": 13, "velocity": 85}, {"time": 4020, "pitch": 48, "duration": 14, "velocity": 76}, {"time": 4026, "pitch": 60, "duration": 2, "velocity": 80}, {"time": 4032, "pitch": 60, "duration": 13, "velocity": 87}, {"time": 4032, "pitch": 65, "duration": 16, "velocity": 86}, {"time": 4032, "pitch": 68, "duration": 19, "velocity": 81}, {"time": 4044, "pitch": 48, "duration": 5, "velocity": 85}, {"time": 4050, "pitch": 60, "duration": 7, "velocity": 87}, {"time": 4056, "pitch": 65, "duration": 2, "velocity": 78}, {"time": 4062, "pitch": 48, "duration": 26, "velocity": 86}, {"time": 4062, "pitch": 60, "duration": 5, "velocity": 85}, {"time": 4062, "pitch": 63, "duration": 8, "velocity": 88}, {"time": 4074, "pitch": 60, "duration": 1, "velocity": 85}, {"time": 4080, "pitch": 60, "duration": 2, "velocity": 86}, {"time": 4080, "pitch": 67, "duration": 2, "velocity": 82}, {"time": 4086, "pitch": 60, "duration": 7, "velocity": 92}, {"time": 4086, "pitch": 67, "duration": 7, "velocity": 87}, {"time": 4092, "pitch": 55, "duration": 3, "velocity": 86}, {"time": 4098, "pitch": 60, "duration": 2, "velocity": 85}, {"time": 4098, "pitch": 63, "duration": 2, "velocity": 86}, {"time": 4104, "pitch": 60, "duration": 1, "velocity": 80}, {"time": 4110, "pitch": 46, "duration": 32, "velocity": 88}, {"time": 4110, "pitch": 56, "duration": 8, "velocity": 90}, {"time": 4110, "pitch": 61, "duration": 8, "velocity": 87}, {"time": 4122, "pitch": 56, "duration": 1, "velocity": 73}, {"time": 4122, "pitch": 61, "duration": 1, "velocity": 68}, {"time": 4122, "pitch": 65, "duration": 1, "velocity": 77}, {"time": 4128, "pitch": 56, "duration": 8, "velocity": 87}, {"time": 4128, "pitch": 61, "duration": 8, "velocity": 89}, {"time": 4128, "pitch": 65, "duration": 8, "velocity": 87}, {"time": 4134, "pitch": 53, "duration": 8, "velocity": 83}, {"time": 4140, "pitch": 56, "duration": 3, "velocity": 90}, {"time": 4140, "pitch": 61, "duration": 3, "velocity": 91}, {"time": 4158, "pitch": 39, "duration": 2, "velocity": 89}, {"time": 4158, "pitch": 58, "duration": 5, "velocity": 86}, {"time": 4158, "pitch": 63, "duration": 5, "velocity": 86}, {"time": 4158, "pitch": 67, "duration": 7, "velocity": 83}, {"time": 4170, "pitch": 51, "duration": 9, "velocity": 82}, {"time": 4176, "pitch": 63, "duration": 6, "velocity": 87}, {"time": 4176, "pitch": 67, "duration": 5, "velocity": 85}, {"time": 4176, "pitch": 70, "duration": 6, "velocity": 86}, {"time": 4182, "pitch": 58, "duration": 2, "velocity": 74}, {"time": 4188, "pitch": 63, "duration": 3, "velocity": 89}, {"time": 4188, "pitch": 67, "duration": 3, "velocity": 88}, {"time": 4188, "pitch": 70, "duration": 3, "velocity": 88}, {"time": 4188, "pitch": 75, "duration": 3, "velocity": 86}, {"time": 4206, "pitch": 39, "duration": 35, "velocity": 91}, {"time": 4206, "pitch": 63, "duration": 6, "velocity": 88}, {"time": 4206, "pitch": 67, "duration": 5, "velocity": 90}, {"time": 4254, "pitch": 44, "duration": 40, "velocity": 86}, {"time": 4254, "pitch": 63, "duration": 12, "velocity": 86}, {"time": 4254, "pitch": 68, "duration": 12, "velocity": 85}, {"time": 4266, "pitch": 51, "duration": 70, "velocity": 78}, {"time": 4278, "pitch": 63, "duration": 5, "velocity": 89}, {"time": 4278, "pitch": 68, "duration": 8, "velocity": 91}, {"time": 4278, "pitch": 72, "duration": 13, "velocity": 89}, {"time": 4290, "pitch": 63, "duration": 11, "velocity": 86}, {"time": 4302, "pitch": 43, "duration": 32, "velocity": 86}, {"time": 4302, "pitch": 63, "duration": 7, "velocity": 79}, {"time": 4302, "pitch": 67, "duration": 13, "velocity": 86}, {"time": 4302, "pitch": 70, "duration": 14, "velocity": 85}, {"time": 4314, "pitch": 63, "duration": 8, "velocity": 83}, {"time": 4326, "pitch": 63, "duration": 6, "velocity": 85}, {"time": 4326, "pitch": 67, "duration": 12, "velocity": 83}, {"time": 4326, "pitch": 70, "duration": 13, "velocity": 86}, {"time": 4326, "pitch": 75, "duration": 10, "velocity": 89}, {"time": 4338, "pitch": 63, "duration": 3, "velocity": 87}, {"time": 4350, "pitch": 41, "duration": 31, "velocity": 87}, {"time": 4350, "pitch": 65, "duration": 9, "velocity": 84}, {"time": 4350, "pitch": 68, "duration": 10, "velocity": 77}, {"time": 4362, "pitch": 48, "duration": 14, "velocity": 78}, {"time": 4374, "pitch": 65, "duration": 4, "velocity": 88}, {"time": 4374, "pitch": 68, "duration": 5, "velocity": 90}, {"time": 4374, "pitch": 72, "duration": 7, "velocity": 90}, {"time": 4380, "pitch": 48, "duration": 2, "velocity": 85}, {"time": 4386, "pitch": 65, "duration": 6, "velocity": 81}, {"time": 4386, "pitch": 70, "duration": 6, "velocity": 85}, {"time": 4392, "pitch": 68, "duration": 4, "velocity": 76}, {"time": 4398, "pitch": 39, "duration": 30, "velocity": 88}, {"time": 4398, "pitch": 70, "duration": 10, "velocity": 84}, {"time": 4410, "pitch": 63, "duration": 4, "velocity": 80}, {"time": 4422, "pitch": 63, "duration": 6, "velocity": 88}, {"time": 4422, "pitch": 67, "duration": 6, "velocity": 88}, {"time": 4428, "pitch": 46, "duration": 2, "velocity": 77}, {"time": 4434, "pitch": 65, "duration": 6, "velocity": 78}, {"time": 4434, "pitch": 68, "duration": 7, "velocity": 84}, {"time": 4440, "pitch": 67, "duration": 6, "velocity": 85}, {"time": 4446, "pitch": 49, "duration": 31, "velocity": 89}, {"time": 4446, "pitch": 65, "duration": 12, "velocity": 90}, {"time": 4458, "pitch": 56, "duration": 15, "velocity": 86}, {"time": 4470, "pitch": 61, "duration": 9, "velocity": 85}, {"time": 4470, "pitch": 65, "duration": 8, "velocity": 89}, {"time": 4470, "pitch": 68, "duration": 12, "velocity": 82}, {"time": 4482, "pitch": 56, "duration": 3, "velocity": 85}, {"time": 4494, "pitch": 48, "duration": 31, "velocity": 87}, {"time": 4494, "pitch": 60, "duration": 7, "velocity": 84}, {"time": 4494, "pitch": 63, "duration": 11, "velocity": 85}, {"time": 4494, "pitch": 67, "duration": 14, "velocity": 86}, {"time": 4500, "pitch": 55, "duration": 20, "velocity": 77}, {"time": 4506, "pitch": 60, "duration": 5, "velocity": 85}, {"time": 4518, "pitch": 60, "duration": 6, "velocity": 87}, {"time": 4518, "pitch": 67, "duration": 8, "velocity": 87}, {"time": 4524, "pitch": 55, "duration": 3, "velocity": 79}, {"time": 4530, "pitch": 60, "duration": 2, "velocity": 80}, {"time": 4530, "pitch": 63, "duration": 2, "velocity": 84}, {"time": 4542, "pitch": 46, "duration": 31, "velocity": 86}, {"time": 4542, "pitch": 56, "duration": 6, "velocity": 85}, {"time": 4542, "pitch": 61, "duration": 12, "velocity": 85}, {"time": 4548, "pitch": 53, "duration": 19, "velocity": 77}, {"time": 4554, "pitch": 56, "duration": 8, "velocity": 85}, {"time": 4560, "pitch": 61, "duration": 2, "velocity": 86}, {"time": 4566, "pitch": 56, "duration": 6, "velocity": 86}, {"time": 4566, "pitch": 61, "duration": 7, "velocity": 94}, {"time": 4566, "pitch": 65, "duration": 7, "velocity": 94}, {"time": 4572, "pitch": 53, "duration": 3, "velocity": 86}, {"time": 4578, "pitch": 46, "duration": 2, "velocity": 86}, {"time": 4590, "pitch": 39, "duration": 2, "velocity": 91}, {"time": 4590, "pitch": 58, "duration": 7, "velocity": 82}, {"time": 4590, "pitch": 63, "duration": 10, "velocity": 85}, {"time": 4602, "pitch": 51, "duration": 19, "velocity": 77}, {"time": 4608, "pitch": 58, "duration": 11, "velocity": 94}, {"time": 4614, "pitch": 63, "duration": 4, "velocity": 87}, {"time": 4614, "pitch": 67, "duration": 4, "velocity": 96}, {"time": 4620, "pitch": 68, "duration": 3, "velocity": 89}, {"time": 4626, "pitch": 70, "duration": 6, "velocity": 89}, {"time": 4632, "pitch": 68, "duration": 2, "velocity": 86}, {"time": 4638, "pitch": 44, "duration": 34, "velocity": 86}, {"time": 4638, "pitch": 63, "duration": 6, "velocity": 78}, {"time": 4638, "pitch": 72, "duration": 11, "velocity": 84}, {"time": 4644, "pitch": 51, "duration": 14, "velocity": 75}, {"time": 4650, "pitch": 63, "duration": 7, "velocity": 84}, {"time": 4656, "pitch": 68, "duration": 7, "velocity": 87}, {"time": 4662, "pitch": 51, "duration": 9, "velocity": 85}, {"time": 4668, "pitch": 63, "duration": 4, "velocity": 86}, {"time": 4668, "pitch": 68, "duration": 5, "velocity": 87}, {"time": 4668, "pitch": 72, "duration": 8, "velocity": 87}, {"time": 4686, "pitch": 43, "duration": 35, "velocity": 76}, {"time": 4686, "pitch": 67, "duration": 12, "velocity": 86}, {"time": 4686, "pitch": 70, "duration": 11, "velocity": 85}, {"time": 4692, "pitch": 51, "duration": 29, "velocity": 56}, {"time": 4698, "pitch": 63, "duration": 2, "velocity": 81}, {"time": 4704, "pitch": 63, "duration": 8, "velocity": 87}, {"time": 4704, "pitch": 67, "duration": 8, "velocity": 96}, {"time": 4704, "pitch": 70, "duration": 8, "velocity": 90}, {"time": 4716, "pitch": 67, "duration": 5, "velocity": 96}, {"time": 4722, "pitch": 63, "duration": 5, "velocity": 83}, {"time": 4734, "pitch": 41, "duration": 28, "velocity": 87}, {"time": 4734, "pitch": 65, "duration": 6, "velocity": 86}, {"time": 4734, "pitch": 68, "duration": 9, "velocity": 85}, {"time": 4740, "pitch": 48, "duration": 21, "velocity": 80}, {"time": 4746, "pitch": 65, "duration": 3, "velocity": 86}, {"time": 4752, "pitch": 67, "duration": 2, "velocity": 89}, {"time": 4758, "pitch": 68, "duration": 5, "velocity": 89}, {"time": 4764, "pitch": 67, "duration": 5, "velocity": 92}, {"time": 4770, "pitch": 65, "duration": 2, "velocity": 84}, {"time": 4782, "pitch": 51, "duration": 29, "velocity": 87}, {"time": 4782, "pitch": 63, "duration": 5, "velocity": 84}, {"time": 4782, "pitch": 67, "duration": 6, "velocity": 85}, {"time": 4788, "pitch": 58, "duration": 13, "velocity": 81}, {"time": 4794, "pitch": 63, "duration": 2, "velocity": 86}, {"time": 4800, "pitch": 63, "duration": 5, "velocity": 88}, {"time": 4800, "pitch": 75, "duration": 4, "velocity": 88}, {"time": 4806, "pitch": 58, "duration": 5, "velocity": 80}, {"time": 4812, "pitch": 63, "duration": 2, "velocity": 79}, {"time": 4812, "pitch": 67, "duration": 5, "velocity": 86}, {"time": 4812, "pitch": 70, "duration": 5, "velocity": 86}, {"time": 4818, "pitch": 63, "duration": 2, "velocity": 82}, {"time": 4830, "pitch": 49, "duration": 27, "velocity": 87}, {"time": 4830, "pitch": 61, "duration": 13, "velocity": 84}, {"time": 4830, "pitch": 65, "duration": 12, "velocity": 85}, {"time": 4842, "pitch": 56, "duration": 13, "velocity": 85}, {"time": 4854, "pitch": 61, "duration": 6, "velocity": 90}, {"time": 4854, "pitch": 65, "duration": 6, "velocity": 99}, {"time": 4854, "pitch": 68, "duration": 7, "velocity": 87}, {"time": 4860, "pitch": 56, "duration": 2, "velocity": 91}, {"time": 4866, "pitch": 61, "duration": 8, "velocity": 92}, {"time": 4872, "pitch": 65, "duration": 2, "velocity": 81}, {"time": 4878, "pitch": 48, "duration": 21, "velocity": 90}, {"time": 4878, "pitch": 60, "duration": 5, "velocity": 88}, {"time": 4878, "pitch": 63, "duration": 8, "velocity": 86}, {"time": 4890, "pitch": 55, "duration": 5, "velocity": 85}, {"time": 4896, "pitch": 60, "duration": 3, "velocity": 94}, {"time": 4902, "pitch": 53, "duration": 13, "velocity": 92}, {"time": 4902, "pitch": 60, "duration": 3, "velocity": 87}, {"time": 4902, "pitch": 65, "duration": 6, "velocity": 89}, {"time": 4908, "pitch": 60, "duration": 2, "velocity": 87}, {"time": 4914, "pitch": 60, "duration": 3, "velocity": 83}, {"time": 4914, "pitch": 68, "duration": 3, "velocity": 85}, {"time": 4926, "pitch": 46, "duration": 34, "velocity": 88}, {"time": 4926, "pitch": 58, "duration": 7, "velocity": 84}, {"time": 4926, "pitch": 61, "duration": 12, "velocity": 85}, {"time": 4932, "pitch": 53, "duration": 19, "velocity": 87}, {"time": 4938, "pitch": 56, "duration": 7, "velocity": 87}, {"time": 4944, "pitch": 61, "duration": 3, "velocity": 86}, {"time": 4950, "pitch": 56, "duration": 6, "velocity": 88}, {"time": 4950, "pitch": 61, "duration": 7, "velocity": 89}, {"time": 4950, "pitch": 65, "duration": 8, "velocity": 91}, {"time": 4956, "pitch": 53, "duration": 3, "velocity": 85}, {"time": 4962, "pitch": 56, "duration": 2, "velocity": 80}, {"time": 4974, "pitch": 39, "duration": 27, "velocity": 89}, {"time": 4974, "pitch": 58, "duration": 5, "velocity": 81}, {"time": 4974, "pitch": 63, "duration": 5, "velocity": 85}, {"time": 4980, "pitch": 46, "duration": 12, "velocity": 80}, {"time": 4986, "pitch": 58, "duration": 2, "velocity": 76}, {"time": 4992, "pitch": 58, "duration": 7, "velocity": 87}, {"time": 4992, "pitch": 67, "duration": 9, "velocity": 87}, {"time": 4998, "pitch": 46, "duration": 4, "velocity": 83}, {"time": 5004, "pitch": 58, "duration": 4, "velocity": 87}, {"time": 5004, "pitch": 63, "duration": 3, "velocity": 86}, {"time": 5022, "pitch": 44, "duration": 35, "velocity": 87}, {"time": 5022, "pitch": 56, "duration": 7, "velocity": 80}, {"time": 5022, "pitch": 63, "duration": 16, "velocity": 82}, {"time": 5028, "pitch": 51, "duration": 43, "velocity": 71}, {"time": 5034, "pitch": 56, "duration": 4, "velocity": 72}, {"time": 5040, "pitch": 60, "duration": 12, "velocity": 78}, {"time": 5070, "pitch": 42, "duration": 49, "velocity": 85}, {"time": 5076, "pitch": 49, "duration": 42, "velocity": 80}, {"time": 5082, "pitch": 54, "duration": 7, "velocity": 85}, {"time": 5088, "pitch": 56, "duration": 7, "velocity": 86}, {"time": 5094, "pitch": 58, "duration": 6, "velocity": 74}, {"time": 5100, "pitch": 61, "duration": 18, "velocity": 79}, {"time": 5118, "pitch": 41, "duration": 36, "velocity": 86}, {"time": 5118, "pitch": 65, "duration": 32, "velocity": 85}, {"time": 5124, "pitch": 48, "duration": 28, "velocity": 75}, {"time": 5130, "pitch": 53, "duration": 20, "velocity": 79}, {"time": 5136, "pitch": 60, "duration": 14, "velocity": 73}, {"time": 5164, "pitch": 58, "duration": 12, "velocity": 68}, {"time": 5165, "pitch": 39, "duration": 64, "velocity": 86}, {"time": 5165, "pitch": 63, "duration": 17, "velocity": 77}, {"time": 5167, "pitch": 67, "duration": 16, "velocity": 77}, {"time": 5173, "pitch": 46, "duration": 55, "velocity": 76}, {"time": 5181, "pitch": 58, "duration": 48, "velocity": 69}, {"time": 5189, "pitch": 63, "duration": 44, "velocity": 75}, {"time": 5198, "pitch": 67, "duration": 34, "velocity": 74}, {"time": 5209, "pitch": 70, "duration": 24, "velocity": 48}, {"time": 5274, "pitch": 44, "duration": 34, "velocity": 85}, {"time": 5280, "pitch": 51, "duration": 67, "velocity": 80}, {"time": 5286, "pitch": 58, "duration": 6, "velocity": 81}, {"time": 5292, "pitch": 56, "duration": 29, "velocity": 84}, {"time": 5292, "pitch": 60, "duration": 29, "velocity": 81}, {"time": 5322, "pitch": 43, "duration": 33, "velocity": 76}, {"time": 5328, "pitch": 55, "duration": 6, "velocity": 75}, {"time": 5334, "pitch": 58, "duration": 12, "velocity": 79}, {"time": 5340, "pitch": 63, "duration": 15, "velocity": 84}, {"time": 5370, "pitch": 41, "duration": 28, "velocity": 85}, {"time": 5370, "pitch": 56, "duration": 14, "velocity": 78}, {"time": 5376, "pitch": 48, "duration": 19, "velocity": 74}, {"time": 5382, "pitch": 53, "duration": 11, "velocity": 83}, {"time": 5388, "pitch": 56, "duration": 4, "velocity": 79}, {"time": 5388, "pitch": 60, "duration": 6, "velocity": 80}, {"time": 5418, "pitch": 39, "duration": 31, "velocity": 74}, {"time": 5418, "pitch": 63, "duration": 13, "velocity": 79}, {"time": 5424, "pitch": 46, "duration": 25, "velocity": 72}, {"time": 5430, "pitch": 58, "duration": 8, "velocity": 75}, {"time": 5436, "pitch": 67, "duration": 12, "velocity": 86}, {"time": 5466, "pitch": 49, "duration": 31, "velocity": 81}, {"time": 5466, "pitch": 65, "duration": 12, "velocity": 85}, {"time": 5472, "pitch": 56, "duration": 14, "velocity": 80}, {"time": 5478, "pitch": 61, "duration": 7, "velocity": 78}, {"time": 5484, "pitch": 63, "duration": 6, "velocity": 83}, {"time": 5496, "pitch": 65, "duration": 2, "velocity": 89}, {"time": 5514, "pitch": 48, "duration": 34, "velocity": 85}, {"time": 5514, "pitch": 60, "duration": 6, "velocity": 79}, {"time": 5514, "pitch": 63, "duration": 13, "velocity": 80}, {"time": 5520, "pitch": 55, "duration": 24, "velocity": 77}, {"time": 5526, "pitch": 60, "duration": 3, "velocity": 80}, {"time": 5532, "pitch": 60, "duration": 16, "velocity": 84}, {"time": 5532, "pitch": 63, "duration": 15, "velocity": 82}, {"time": 5562, "pitch": 42, "duration": 27, "velocity": 85}, {"time": 5562, "pitch": 54, "duration": 6, "velocity": 79}, {"time": 5562, "pitch": 61, "duration": 10, "velocity": 83}, {"time": 5568, "pitch": 49, "duration": 21, "velocity": 75}, {"time": 5574, "pitch": 54, "duration": 19, "velocity": 84}, {"time": 5580, "pitch": 58, "duration": 13, "velocity": 81}, {"time": 5592, "pitch": 66, "duration": 5, "velocity": 88}, {"time": 5610, "pitch": 42, "duration": 19, "velocity": 80}, {"time": 5610, "pitch": 54, "duration": 17, "velocity": 74}, {"time": 5610, "pitch": 58, "duration": 17, "velocity": 77}, {"time": 5610, "pitch": 61, "duration": 18, "velocity": 75}, {"time": 5657, "pitch": 39, "duration": 39, "velocity": 91}, {"time": 5664, "pitch": 46, "duration": 32, "velocity": 77}, {"time": 5672, "pitch": 51, "duration": 30, "velocity": 81}, {"time": 5679, "pitch": 58, "duration": 25, "velocity": 78}, {"time": 5688, "pitch": 55, "duration": 14, "velocity": 74}, {"time": 5704, "pitch": 44, "duration": 96, "velocity": 82}, {"time": 5709, "pitch": 51, "duration": 90, "velocity": 80}, {"time": 5714, "pitch": 56, "duration": 4, "velocity": 77}, {"time": 5718, "pitch": 58, "duration": 3, "velocity": 78}, {"time": 5722, "pitch": 60, "duration": 6, "velocity": 81}, {"time": 5726, "pitch": 63, "duration": 7, "velocity": 71}, {"time": 5731, "pitch": 68, "duration": 4, "velocity": 68}, {"time": 5736, "pitch": 70, "duration": 4, "velocity": 52}, {"time": 5742, "pitch": 72, "duration": 16, "velocity": 79}, {"time": 5748, "pitch": 75, "duration": 4, "velocity": 79}, {"time": 5756, "pitch": 75, "duration": 3, "velocity": 72}, {"time": 5758, "pitch": 80, "duration": 3, "velocity": 54}, {"time": 5773, "pitch": 84, "duration": 3, "velocity": 67}, {"time": 5774, "pitch": 92, "duration": 3, "velocity": 81}], "annotations": [{"time": 30, "annotation": {"number": 64, "value": 127}, "group": "control_change"}, {"time": 30, "annotation": {"number": 64, "value": 0}, "group": "control_change"}, {"time": 75, "annotation": {"number": 64, "value": 0}, "group": "control_change"}, {"time": 80, "annotation": {"number": 64, "value": 127}, "group": "control_change"}, {"time": 124, "annotation": {"number": 64, "value": 0}, "group": "control_change"}, {"time": 130, "annotation": {"number": 64, "value": 127}, "group": "control_change"}, {"time": 173, "annotation": {"number": 64, "value": 0}, "group": "control_change"}, {"time": 178, "annotation": {"number": 64, "value": 127}, "group": "control_change"}, {"time": 218, "annotation": {"number": 64, "value": 0}, "group": "control_change"}, {"time": 223, "annotation": {"number": 64, "value": 127}, "group": "control_change"}, {"time": 267, "annotation": {"number": 64, "value": 0}, "group": "control_change"}, {"time": 272, "annotation": {"number": 64, "value": 127}, "group": "control_change"}, {"time": 316, "annotation": {"number": 64, "value": 0}, "group": "control_change"}, {"time": 320, "annotation": {"number": 64, "value": 127}, "group": "control_change"}, {"time": 411, "annotation": {"number": 64, "value": 0}, "group": "control_change"}, {"time": 416, "annotation": {"number": 64, "value": 127}, "group": "control_change"}, {"time": 438, "annotation": {"number": 64, "value": 127}, "group": "control_change"}, {"time": 438, "annotation": {"number": 64, "value": 0}, "group": "control_change"}, {"time": 462, "annotation": {"number": 64, "value": 0}, "group": "control_change"}, {"time": 464, "annotation": {"number": 64, "value": 0}, "group": "control_change"}, {"time": 512, "annotation": {"number": 64, "value": 127}, "group": "control_change"}, {"time": 555, "annotation": {"number": 64, "value": 0}, "group": "control_change"}, {"time": 560, "annotation": {"number": 64, "value": 127}, "group": "control_change"}, {"time": 602, "annotation": {"number": 64, "value": 0}, "group": "control_change"}, {"time": 607, "annotation": {"number": 64, "value": 127}, "group": "control_change"}, {"time": 650, "annotation": {"number": 64, "value": 0}, "group": "control_change"}, {"time": 654, "annotation": {"number": 64, "value": 127}, "group": "control_change"}, {"time": 698, "annotation": {"number": 64, "value": 0}, "group": "control_change"}, {"time": 703, "annotation": {"number": 64, "value": 127}, "group": "control_change"}, {"time": 748, "annotation": {"number": 64, "value": 0}, "group": "control_change"}, {"time": 753, "annotation": {"number": 64, "value": 127}, "group": "control_change"}, {"time": 796, "annotation": {"number": 64, "value": 0}, "group": "control_change"}, {"time": 800, "annotation": {"number": 64, "value": 127}, "group": "control_change"}, {"time": 842, "annotation": {"number": 64, "value": 0}, "group": "control_change"}, {"time": 845, "annotation": {"number": 64, "value": 127}, "group": "control_change"}, {"time": 890, "annotation": {"number": 64, "value": 0}, "group": "control_change"}, {"time": 895, "annotation": {"number": 64, "value": 127}, "group": "control_change"}, {"time": 939, "annotation": {"number": 64, "value": 0}, "group": "control_change"}, {"time": 941, "annotation": {"number": 64, "value": 127}, "group": "control_change"}, {"time": 942, "annotation": {"number": 64, "value": 0}, "group": "control_change"}, {"time": 942, "annotation": {"number": 64, "value": 127}, "group": "control_change"}, {"time": 963, "annotation": {"number": 64, "value": 0}, "group": "control_change"}, {"time": 966, "annotation": {"number": 64, "value": 127}, "group": "control_change"}, {"time": 987, "annotation": {"number": 64, "value": 0}, "group": "control_change"}, {"time": 994, "annotation": {"number": 64, "value": 127}, "group": "control_change"}, {"time": 1036, "annotation": {"number": 64, "value": 0}, "group": "control_change"}, {"time": 1038, "annotation": {"number": 64, "value": 127}, "group": "control_change"}, {"time": 1081, "annotation": {"number": 64, "value": 0}, "group": "control_change"}, {"time": 1083, "annotation": {"number": 64, "value": 127}, "group": "control_change"}, {"time": 1130, "annotation": {"number": 64, "value": 0}, "group": "control_change"}, {"time": 1133, "annotation": {"number": 64, "value": 127}, "group": "control_change"}, {"time": 1179, "annotation": {"number": 64, "value": 0}, "group": "control_change"}, {"time": 1182, "annotation": {"number": 64, "value": 127}, "group": "control_change"}, {"time": 1227, "annotation": {"number": 64, "value": 0}, "group": "control_change"}, {"time": 1229, "annotation": {"number": 64, "value": 127}, "group": "control_change"}, {"time": 1276, "annotation": {"number": 64, "value": 0}, "group": "control_change"}, {"time": 1278, "annotation": {"number": 64, "value": 127}, "group": "control_change"}, {"time": 1322, "annotation": {"number": 64, "value": 0}, "group": "control_change"}, {"time": 1324, "annotation": {"number": 64, "value": 127}, "group": "control_change"}, {"time": 1373, "annotation": {"number": 64, "value": 0}, "group": "control_change"}, {"time": 1374, "annotation": {"number": 64, "value": 127}, "group": "control_change"}, {"time": 1374, "annotation": {"number": 64, "value": 0}, "group": "control_change"}, {"time": 1417, "annotation": {"number": 64, "value": 0}, "group": "control_change"}, {"time": 1420, "annotation": {"number": 64, "value": 127}, "group": "control_change"}, {"time": 1466, "annotation": {"number": 64, "value": 0}, "group": "control_change"}, {"time": 1471, "annotation": {"number": 64, "value": 127}, "group": "control_change"}, {"time": 1515, "annotation": {"number": 64, "value": 0}, "group": "control_change"}, {"time": 1518, "annotation": {"number": 64, "value": 127}, "group": "control_change"}, {"time": 1566, "annotation": {"number": 64, "value": 0}, "group": "control_change"}, {"time": 1568, "annotation": {"number": 64, "value": 127}, "group": "control_change"}, {"time": 1612, "annotation": {"number": 64, "value": 0}, "group": "control_change"}, {"time": 1615, "annotation": {"number": 64, "value": 127}, "group": "control_change"}, {"time": 1659, "annotation": {"number": 64, "value": 0}, "group": "control_change"}, {"time": 1664, "annotation": {"number": 64, "value": 127}, "group": "control_change"}, {"time": 1708, "annotation": {"number": 64, "value": 0}, "group": "control_change"}, {"time": 1713, "annotation": {"number": 64, "value": 127}, "group": "control_change"}, {"time": 1756, "annotation": {"number": 64, "value": 0}, "group": "control_change"}, {"time": 1760, "annotation": {"number": 64, "value": 127}, "group": "control_change"}, {"time": 1802, "annotation": {"number": 64, "value": 0}, "group": "control_change"}, {"time": 1805, "annotation": {"number": 64, "value": 127}, "group": "control_change"}, {"time": 1850, "annotation": {"number": 64, "value": 0}, "group": "control_change"}, {"time": 1853, "annotation": {"number": 64, "value": 127}, "group": "control_change"}, {"time": 1900, "annotation": {"number": 64, "value": 0}, "group": "control_change"}, {"time": 1902, "annotation": {"number": 64, "value": 127}, "group": "control_change"}, {"time": 1947, "annotation": {"number": 64, "value": 0}, "group": "control_change"}, {"time": 1950, "annotation": {"number": 64, "value": 127}, "group": "control_change"}, {"time": 1995, "annotation": {"number": 64, "value": 0}, "group": "control_change"}, {"time": 1998, "annotation": {"number": 64, "value": 127}, "group": "control_change"}, {"time": 2044, "annotation": {"number": 64, "value": 0}, "group": "control_change"}, {"time": 2048, "annotation": {"number": 64, "value": 127}, "group": "control_change"}, {"time": 2092, "annotation": {"number": 64, "value": 0}, "group": "control_change"}, {"time": 2094, "annotation": {"number": 64, "value": 127}, "group": "control_change"}, {"time": 2115, "annotation": {"number": 64, "value": 0}, "group": "control_change"}, {"time": 2117, "annotation": {"number": 64, "value": 127}, "group": "control_change"}, {"time": 2141, "annotation": {"number": 64, "value": 0}, "group": "control_change"}, {"time": 2145, "annotation": {"number": 64, "value": 127}, "group": "control_change"}, {"time": 2189, "annotation": {"number": 64, "value": 0}, "group": "control_change"}, {"time": 2192, "annotation": {"number": 64, "value": 127}, "group": "control_change"}, {"time": 2236, "annotation": {"number": 64, "value": 0}, "group": "control_change"}, {"time": 2243, "annotation": {"number": 64, "value": 127}, "group": "control_change"}, {"time": 2284, "annotation": {"number": 64, "value": 0}, "group": "control_change"}, {"time": 2287, "annotation": {"number": 64, "value": 127}, "group": "control_change"}, {"time": 2334, "annotation": {"number": 64, "value": 0}, "group": "control_change"}, {"time": 2337, "annotation": {"number": 64, "value": 127}, "group": "control_change"}, {"time": 2380, "annotation": {"number": 64, "value": 0}, "group": "control_change"}, {"time": 2384, "annotation": {"number": 64, "value": 127}, "group": "control_change"}, {"time": 2405, "annotation": {"number": 64, "value": 0}, "group": "control_change"}, {"time": 2409, "annotation": {"number": 64, "value": 127}, "group": "control_change"}, {"time": 2426, "annotation": {"number": 64, "value": 127}, "group": "control_change"}, {"time": 2426, "annotation": {"number": 64, "value": 0}, "group": "control_change"}, {"time": 2427, "annotation": {"number": 64, "value": 127}, "group": "control_change"}, {"time": 2470, "annotation": {"number": 64, "value": 0}, "group": "control_change"}, {"time": 2471, "annotation": {"number": 64, "value": 0}, "group": "control_change"}, {"time": 2482, "annotation": {"number": 64, "value": 127}, "group": "control_change"}, {"time": 2524, "annotation": {"number": 64, "value": 0}, "group": "control_change"}, {"time": 2526, "annotation": {"number": 64, "value": 127}, "group": "control_change"}, {"time": 2569, "annotation": {"number": 64, "value": 0}, "group": "control_change"}, {"time": 2571, "annotation": {"number": 64, "value": 127}, "group": "control_change"}, {"time": 2618, "annotation": {"number": 64, "value": 0}, "group": "control_change"}, {"time": 2621, "annotation": {"number": 64, "value": 127}, "group": "control_change"}, {"time": 2667, "annotation": {"number": 64, "value": 0}, "group": "control_change"}, {"time": 2670, "annotation": {"number": 64, "value": 127}, "group": "control_change"}, {"time": 2715, "annotation": {"number": 64, "value": 0}, "group": "control_change"}, {"time": 2717, "annotation": {"number": 64, "value": 127}, "group": "control_change"}, {"time": 2764, "annotation": {"number": 64, "value": 0}, "group": "control_change"}, {"time": 2766, "annotation": {"number": 64, "value": 127}, "group": "control_change"}, {"time": 2810, "annotation": {"number": 64, "value": 0}, "group": "control_change"}, {"time": 2812, "annotation": {"number": 64, "value": 127}, "group": "control_change"}, {"time": 2861, "annotation": {"number": 64, "value": 0}, "group": "control_change"}, {"time": 2862, "annotation": {"number": 64, "value": 127}, "group": "control_change"}, {"time": 2862, "annotation": {"number": 64, "value": 0}, "group": "control_change"}, {"time": 2905, "annotation": {"number": 64, "value": 0}, "group": "control_change"}, {"time": 2908, "annotation": {"number": 64, "value": 127}, "group": "control_change"}, {"time": 2954, "annotation": {"number": 64, "value": 0}, "group": "control_change"}, {"time": 2959, "annotation": {"number": 64, "value": 127}, "group": "control_change"}, {"time": 3003, "annotation": {"number": 64, "value": 0}, "group": "control_change"}, {"time": 3006, "annotation": {"number": 64, "value": 127}, "group": "control_change"}, {"time": 3054, "annotation": {"number": 64, "value": 0}, "group": "control_change"}, {"time": 3056, "annotation": {"number": 64, "value": 127}, "group": "control_change"}, {"time": 3100, "annotation": {"number": 64, "value": 0}, "group": "control_change"}, {"time": 3103, "annotation": {"number": 64, "value": 127}, "group": "control_change"}, {"time": 3147, "annotation": {"number": 64, "value": 0}, "group": "control_change"}, {"time": 3152, "annotation": {"number": 64, "value": 127}, "group": "control_change"}, {"time": 3196, "annotation": {"number": 64, "value": 0}, "group": "control_change"}, {"time": 3201, "annotation": {"number": 64, "value": 127}, "group": "control_change"}, {"time": 3244, "annotation": {"number": 64, "value": 0}, "group": "control_change"}, {"time": 3248, "annotation": {"number": 64, "value": 127}, "group": "control_change"}, {"time": 3290, "annotation": {"number": 64, "value": 0}, "group": "control_change"}, {"time": 3293, "annotation": {"number": 64, "value": 127}, "group": "control_change"}, {"time": 3338, "annotation": {"number": 64, "value": 0}, "group": "control_change"}, {"time": 3341, "annotation": {"number": 64, "value": 127}, "group": "control_change"}, {"time": 3388, "annotation": {"number": 64, "value": 0}, "group": "control_change"}, {"time": 3390, "annotation": {"number": 64, "value": 127}, "group": "control_change"}, {"time": 3435, "annotation": {"number": 64, "value": 0}, "group": "control_change"}, {"time": 3438, "annotation": {"number": 64, "value": 127}, "group": "control_change"}, {"time": 3483, "annotation": {"number": 64, "value": 0}, "group": "control_change"}, {"time": 3486, "annotation": {"number": 64, "value": 127}, "group": "control_change"}, {"time": 3532, "annotation": {"number": 64, "value": 0}, "group": "control_change"}, {"time": 3536, "annotation": {"number": 64, "value": 127}, "group": "control_change"}, {"time": 3580, "annotation": {"number": 64, "value": 0}, "group": "control_change"}, {"time": 3582, "annotation": {"number": 64, "value": 127}, "group": "control_change"}, {"time": 3603, "annotation": {"number": 64, "value": 0}, "group": "control_change"}, {"time": 3605, "annotation": {"number": 64, "value": 127}, "group": "control_change"}, {"time": 3629, "annotation": {"number": 64, "value": 0}, "group": "control_change"}, {"time": 3633, "annotation": {"number": 64, "value": 127}, "group": "control_change"}, {"time": 3677, "annotation": {"number": 64, "value": 0}, "group": "control_change"}, {"time": 3680, "annotation": {"number": 64, "value": 127}, "group": "control_change"}, {"time": 3724, "annotation": {"number": 64, "value": 0}, "group": "control_change"}, {"time": 3731, "annotation": {"number": 64, "value": 127}, "group": "control_change"}, {"time": 3772, "annotation": {"number": 64, "value": 0}, "group": "control_change"}, {"time": 3775, "annotation": {"number": 64, "value": 127}, "group": "control_change"}, {"time": 3822, "annotation": {"number": 64, "value": 127}, "group": "control_change"}, {"time": 3868, "annotation": {"number": 64, "value": 0}, "group": "control_change"}, {"time": 3872, "annotation": {"number": 64, "value": 127}, "group": "control_change"}, {"time": 3917, "annotation": {"number": 64, "value": 0}, "group": "control_change"}, {"time": 3920, "annotation": {"number": 64, "value": 127}, "group": "control_change"}, {"time": 3965, "annotation": {"number": 64, "value": 0}, "group": "control_change"}, {"time": 3967, "annotation": {"number": 64, "value": 127}, "group": "control_change"}, {"time": 4011, "annotation": {"number": 64, "value": 0}, "group": "control_change"}, {"time": 4013, "annotation": {"number": 64, "value": 127}, "group": "control_change"}, {"time": 4013, "annotation": {"number": 64, "value": 0}, "group": "control_change"}, {"time": 4014, "annotation": {"number": 64, "value": 127}, "group": "control_change"}, {"time": 4060, "annotation": {"number": 64, "value": 0}, "group": "control_change"}, {"time": 4063, "annotation": {"number": 64, "value": 127}, "group": "control_change"}, {"time": 4107, "annotation": {"number": 64, "value": 0}, "group": "control_change"}, {"time": 4109, "annotation": {"number": 64, "value": 127}, "group": "control_change"}, {"time": 4153, "annotation": {"number": 64, "value": 0}, "group": "control_change"}, {"time": 4156, "annotation": {"number": 64, "value": 127}, "group": "control_change"}, {"time": 4202, "annotation": {"number": 64, "value": 0}, "group": "control_change"}, {"time": 4204, "annotation": {"number": 64, "value": 127}, "group": "control_change"}, {"time": 4243, "annotation": {"number": 64, "value": 0}, "group": "control_change"}, {"time": 4255, "annotation": {"number": 64, "value": 127}, "group": "control_change"}, {"time": 4299, "annotation": {"number": 64, "value": 0}, "group": "control_change"}, {"time": 4302, "annotation": {"number": 64, "value": 127}, "group": "control_change"}, {"time": 4350, "annotation": {"number": 64, "value": 0}, "group": "control_change"}, {"time": 4352, "annotation": {"number": 64, "value": 127}, "group": "control_change"}, {"time": 4396, "annotation": {"number": 64, "value": 0}, "group": "control_change"}, {"time": 4399, "annotation": {"number": 64, "value": 127}, "group": "control_change"}, {"time": 4443, "annotation": {"number": 64, "value": 0}, "group": "control_change"}, {"time": 4448, "annotation": {"number": 64, "value": 127}, "group": "control_change"}, {"time": 4492, "annotation": {"number": 64, "value": 0}, "group": "control_change"}, {"time": 4497, "annotation": {"number": 64, "value": 127}, "group": "control_change"}, {"time": 4540, "annotation": {"number": 64, "value": 0}, "group": "control_change"}, {"time": 4544, "annotation": {"number": 64, "value": 127}, "group": "control_change"}, {"time": 4586, "annotation": {"number": 64, "value": 0}, "group": "control_change"}, {"time": 4589, "annotation": {"number": 64, "value": 127}, "group": "control_change"}, {"time": 4634, "annotation": {"number": 64, "value": 0}, "group": "control_change"}, {"time": 4637, "annotation": {"number": 64, "value": 127}, "group": "control_change"}, {"time": 4684, "annotation": {"number": 64, "value": 0}, "group": "control_change"}, {"time": 4686, "annotation": {"number": 64, "value": 127}, "group": "control_change"}, {"time": 4731, "annotation": {"number": 64, "value": 0}, "group": "control_change"}, {"time": 4734, "annotation": {"number": 64, "value": 127}, "group": "control_change"}, {"time": 4779, "annotation": {"number": 64, "value": 0}, "group": "control_change"}, {"time": 4782, "annotation": {"number": 64, "value": 127}, "group": "control_change"}, {"time": 4828, "annotation": {"number": 64, "value": 0}, "group": "control_change"}, {"time": 4832, "annotation": {"number": 64, "value": 127}, "group": "control_change"}, {"time": 4876, "annotation": {"number": 64, "value": 0}, "group": "control_change"}, {"time": 4878, "annotation": {"number": 64, "value": 127}, "group": "control_change"}, {"time": 4899, "annotation": {"number": 64, "value": 0}, "group": "control_change"}, {"time": 4901, "annotation": {"number": 64, "value": 127}, "group": "control_change"}, {"time": 4925, "annotation": {"number": 64, "value": 0}, "group": "control_change"}, {"time": 4929, "annotation": {"number": 64, "value": 127}, "group": "control_change"}, {"time": 4973, "annotation": {"number": 64, "value": 0}, "group": "control_change"}, {"time": 4976, "annotation": {"number": 64, "value": 127}, "group": "control_change"}, {"time": 5020, "annotation": {"number": 64, "value": 0}, "group": "control_change"}, {"time": 5027, "annotation": {"number": 64, "value": 127}, "group": "control_change"}, {"time": 5068, "annotation": {"number": 64, "value": 0}, "group": "control_change"}, {"time": 5069, "annotation": {"number": 64, "value": 127}, "group": "control_change"}, {"time": 5114, "annotation": {"number": 64, "value": 0}, "group": "control_change"}, {"time": 5119, "annotation": {"number": 64, "value": 127}, "group": "control_change"}, {"time": 5119, "annotation": {"number": 64, "value": 0}, "group": "control_change"}, {"time": 5120, "annotation": {"number": 64, "value": 127}, "group": "control_change"}, {"time": 5163, "annotation": {"number": 64, "value": 0}, "group": "control_change"}, {"time": 5167, "annotation": {"number": 64, "value": 127}, "group": "control_change"}, {"time": 5167, "annotation": {"number": 64, "value": 0}, "group": "control_change"}, {"time": 5274, "annotation": {"number": 64, "value": 127}, "group": "control_change"}, {"time": 5274, "annotation": {"number": 64, "value": 0}, "group": "control_change"}, {"time": 5319, "annotation": {"number": 64, "value": 0}, "group": "control_change"}, {"time": 5324, "annotation": {"number": 64, "value": 127}, "group": "control_change"}, {"time": 5368, "annotation": {"number": 64, "value": 0}, "group": "control_change"}, {"time": 5374, "annotation": {"number": 64, "value": 127}, "group": "control_change"}, {"time": 5417, "annotation": {"number": 64, "value": 0}, "group": "control_change"}, {"time": 5422, "annotation": {"number": 64, "value": 127}, "group": "control_change"}, {"time": 5462, "annotation": {"number": 64, "value": 0}, "group": "control_change"}, {"time": 5467, "annotation": {"number": 64, "value": 127}, "group": "control_change"}, {"time": 5511, "annotation": {"number": 64, "value": 0}, "group": "control_change"}, {"time": 5516, "annotation": {"number": 64, "value": 127}, "group": "control_change"}, {"time": 5560, "annotation": {"number": 64, "value": 0}, "group": "control_change"}, {"time": 5564, "annotation": {"number": 64, "value": 127}, "group": "control_change"}, {"time": 5655, "annotation": {"number": 64, "value": 0}, "group": "control_change"}, {"time": 5658, "annotation": {"number": 64, "value": 127}, "group": "control_change"}, {"time": 5667, "annotation": {"number": 64, "value": 0}, "group": "control_change"}, {"time": 5671, "annotation": {"number": 64, "value": 127}, "group": "control_change"}, {"time": 5705, "annotation": {"number": 64, "value": 0}, "group": "control_change"}, {"time": 5707, "annotation": {"number": 64, "value": 127}, "group": "control_change"}, {"time": 5842, "annotation": {"number": 64, "value": 0}, "group": "control_change"}]}]}