{"metadata": {"schema_version": "0.2", "title": "None", "source_filename": "719.mid", "source_format": "midi"}, "resolution": 12, "tempos": [{"time": 0, "qpm": 57.000031350017245}], "key_signatures": [{"time": 0, "root": 0, "mode": "major"}], "time_signatures": [{"time": 0, "numerator": 4, "denominator": 4}, {"time": 0, "numerator": 1, "denominator": 4}], "tracks": [{"program": 4, "is_drum": false, "name": "MELODY", "notes": [{"time": 222, "pitch": 65, "duration": 1, "velocity": 90}, {"time": 225, "pitch": 65, "duration": 1, "velocity": 66}, {"time": 228, "pitch": 65, "duration": 2, "velocity": 70}, {"time": 231, "pitch": 66, "duration": 2, "velocity": 66}, {"time": 234, "pitch": 68, "duration": 3, "velocity": 83}, {"time": 246, "pitch": 63, "duration": 1, "velocity": 93}, {"time": 249, "pitch": 63, "duration": 1, "velocity": 86}, {"time": 252, "pitch": 63, "duration": 1, "velocity": 73}, {"time": 255, "pitch": 65, "duration": 2, "velocity": 69}, {"time": 258, "pitch": 66, "duration": 3, "velocity": 81}, {"time": 270, "pitch": 61, "duration": 1, "velocity": 73}, {"time": 273, "pitch": 61, "duration": 1, "velocity": 72}, {"time": 276, "pitch": 61, "duration": 2, "velocity": 86}, {"time": 279, "pitch": 63, "duration": 1, "velocity": 83}, {"time": 282, "pitch": 65, "duration": 3, "velocity": 88}, {"time": 294, "pitch": 65, "duration": 4, "velocity": 93}, {"time": 300, "pitch": 63, "duration": 3, "velocity": 96}, {"time": 303, "pitch": 61, "duration": 3, "velocity": 77}, {"time": 309, "pitch": 58, "duration": 3, "velocity": 88}, {"time": 330, "pitch": 58, "duration": 3, "velocity": 93}, {"time": 333, "pitch": 56, "duration": 3, "velocity": 82}, {"time": 342, "pitch": 58, "duration": 2, "velocity": 83}, {"time": 345, "pitch": 61, "duration": 4, "velocity": 77}, {"time": 351, "pitch": 63, "duration": 8, "velocity": 76}, {"time": 357, "pitch": 61, "duration": 7, "velocity": 85}, {"time": 366, "pitch": 65, "duration": 1, "velocity": 79}, {"time": 369, "pitch": 65, "duration": 1, "velocity": 75}, {"time": 372, "pitch": 65, "duration": 1, "velocity": 74}, {"time": 375, "pitch": 66, "duration": 2, "velocity": 85}, {"time": 378, "pitch": 68, "duration": 3, "velocity": 95}, {"time": 390, "pitch": 63, "duration": 1, "velocity": 95}, {"time": 393, "pitch": 63, "duration": 1, "velocity": 86}, {"time": 396, "pitch": 63, "duration": 2, "velocity": 83}, {"time": 399, "pitch": 65, "duration": 2, "velocity": 89}, {"time": 402, "pitch": 66, "duration": 3, "velocity": 97}, {"time": 414, "pitch": 61, "duration": 1, "velocity": 77}, {"time": 417, "pitch": 61, "duration": 1, "velocity": 78}, {"time": 420, "pitch": 61, "duration": 1, "velocity": 85}, {"time": 423, "pitch": 63, "duration": 2, "velocity": 95}, {"time": 426, "pitch": 65, "duration": 3, "velocity": 96}, {"time": 432, "pitch": 63, "duration": 5, "velocity": 97}, {"time": 438, "pitch": 65, "duration": 5, "velocity": 78}, {"time": 444, "pitch": 63, "duration": 4, "velocity": 92}, {"time": 450, "pitch": 65, "duration": 2, "velocity": 83}, {"time": 453, "pitch": 58, "duration": 8, "velocity": 88}, {"time": 477, "pitch": 56, "duration": 1, "velocity": 85}, {"time": 480, "pitch": 56, "duration": 4, "velocity": 82}, {"time": 486, "pitch": 58, "duration": 1, "velocity": 93}, {"time": 489, "pitch": 61, "duration": 3, "velocity": 95}, {"time": 495, "pitch": 63, "duration": 7, "velocity": 99}, {"time": 501, "pitch": 61, "duration": 6, "velocity": 100}, {"time": 510, "pitch": 60, "duration": 1, "velocity": 90}, {"time": 513, "pitch": 61, "duration": 3, "velocity": 76}, {"time": 522, "pitch": 60, "duration": 2, "velocity": 79}, {"time": 525, "pitch": 61, "duration": 3, "velocity": 82}, {"time": 534, "pitch": 60, "duration": 1, "velocity": 93}, {"time": 537, "pitch": 61, "duration": 3, "velocity": 99}, {"time": 546, "pitch": 56, "duration": 1, "velocity": 86}, {"time": 549, "pitch": 56, "duration": 4, "velocity": 86}, {"time": 555, "pitch": 63, "duration": 1, "velocity": 100}, {"time": 558, "pitch": 63, "duration": 2, "velocity": 90}, {"time": 561, "pitch": 61, "duration": 1, "velocity": 78}, {"time": 564, "pitch": 63, "duration": 2, "velocity": 97}, {"time": 567, "pitch": 65, "duration": 2, "velocity": 99}, {"time": 573, "pitch": 63, "duration": 6, "velocity": 86}, {"time": 579, "pitch": 65, "duration": 7, "velocity": 88}, {"time": 594, "pitch": 61, "duration": 6, "velocity": 99}, {"time": 606, "pitch": 60, "duration": 1, "velocity": 90}, {"time": 609, "pitch": 61, "duration": 5, "velocity": 92}, {"time": 618, "pitch": 60, "duration": 1, "velocity": 86}, {"time": 621, "pitch": 61, "duration": 4, "velocity": 100}, {"time": 630, "pitch": 60, "duration": 1, "velocity": 81}, {"time": 633, "pitch": 61, "duration": 5, "velocity": 89}, {"time": 639, "pitch": 63, "duration": 5, "velocity": 102}, {"time": 645, "pitch": 63, "duration": 23, "velocity": 95}, {"time": 702, "pitch": 65, "duration": 2, "velocity": 97}, {"time": 705, "pitch": 63, "duration": 1, "velocity": 56}, {"time": 708, "pitch": 63, "duration": 2, "velocity": 78}, {"time": 711, "pitch": 61, "duration": 2, "velocity": 64}, {"time": 714, "pitch": 63, "duration": 1, "velocity": 90}, {"time": 717, "pitch": 65, "duration": 4, "velocity": 102}, {"time": 723, "pitch": 60, "duration": 1, "velocity": 89}, {"time": 726, "pitch": 60, "duration": 1, "velocity": 83}, {"time": 729, "pitch": 60, "duration": 1, "velocity": 90}, {"time": 732, "pitch": 60, "duration": 1, "velocity": 90}, {"time": 735, "pitch": 63, "duration": 2, "velocity": 93}, {"time": 738, "pitch": 61, "duration": 1, "velocity": 97}, {"time": 741, "pitch": 61, "duration": 8, "velocity": 100}, {"time": 747, "pitch": 60, "duration": 4, "velocity": 88}, {"time": 753, "pitch": 58, "duration": 11, "velocity": 83}, {"time": 798, "pitch": 65, "duration": 2, "velocity": 82}, {"time": 801, "pitch": 63, "duration": 1, "velocity": 86}, {"time": 804, "pitch": 63, "duration": 2, "velocity": 89}, {"time": 807, "pitch": 61, "duration": 2, "velocity": 75}, {"time": 810, "pitch": 63, "duration": 1, "velocity": 93}, {"time": 813, "pitch": 65, "duration": 4, "velocity": 95}, {"time": 819, "pitch": 63, "duration": 1, "velocity": 97}, {"time": 822, "pitch": 63, "duration": 1, "velocity": 95}, {"time": 825, "pitch": 61, "duration": 2, "velocity": 85}, {"time": 828, "pitch": 63, "duration": 1, "velocity": 90}, {"time": 831, "pitch": 61, "duration": 1, "velocity": 85}, {"time": 834, "pitch": 63, "duration": 1, "velocity": 93}, {"time": 837, "pitch": 68, "duration": 6, "velocity": 107}, {"time": 843, "pitch": 63, "duration": 2, "velocity": 95}, {"time": 846, "pitch": 65, "duration": 9, "velocity": 97}, {"time": 885, "pitch": 56, "duration": 1, "velocity": 89}, {"time": 888, "pitch": 58, "duration": 1, "velocity": 90}, {"time": 891, "pitch": 56, "duration": 1, "velocity": 89}, {"time": 894, "pitch": 58, "duration": 1, "velocity": 93}, {"time": 897, "pitch": 56, "duration": 1, "velocity": 92}, {"time": 900, "pitch": 58, "duration": 2, "velocity": 107}, {"time": 903, "pitch": 54, "duration": 2, "velocity": 75}, {"time": 906, "pitch": 58, "duration": 2, "velocity": 99}, {"time": 909, "pitch": 65, "duration": 5, "velocity": 95}, {"time": 915, "pitch": 63, "duration": 1, "velocity": 88}, {"time": 918, "pitch": 63, "duration": 4, "velocity": 95}, {"time": 933, "pitch": 60, "duration": 1, "velocity": 90}, {"time": 936, "pitch": 60, "duration": 2, "velocity": 95}, {"time": 939, "pitch": 58, "duration": 1, "velocity": 89}, {"time": 942, "pitch": 60, "duration": 1, "velocity": 100}, {"time": 945, "pitch": 58, "duration": 1, "velocity": 93}, {"time": 948, "pitch": 60, "duration": 2, "velocity": 127}, {"time": 951, "pitch": 56, "duration": 2, "velocity": 92}, {"time": 954, "pitch": 60, "duration": 1, "velocity": 78}, {"time": 957, "pitch": 63, "duration": 5, "velocity": 102}, {"time": 963, "pitch": 61, "duration": 1, "velocity": 88}, {"time": 966, "pitch": 61, "duration": 5, "velocity": 99}, {"time": 981, "pitch": 56, "duration": 1, "velocity": 93}, {"time": 984, "pitch": 58, "duration": 1, "velocity": 96}, {"time": 987, "pitch": 60, "duration": 1, "velocity": 92}, {"time": 990, "pitch": 61, "duration": 1, "velocity": 117}, {"time": 993, "pitch": 58, "duration": 2, "velocity": 83}, {"time": 996, "pitch": 61, "duration": 2, "velocity": 99}, {"time": 999, "pitch": 65, "duration": 3, "velocity": 90}, {"time": 1005, "pitch": 63, "duration": 11, "velocity": 100}, {"time": 1017, "pitch": 60, "duration": 1, "velocity": 85}, {"time": 1020, "pitch": 60, "duration": 1, "velocity": 82}, {"time": 1023, "pitch": 60, "duration": 1, "velocity": 90}, {"time": 1026, "pitch": 61, "duration": 1, "velocity": 99}, {"time": 1029, "pitch": 63, "duration": 6, "velocity": 100}, {"time": 1038, "pitch": 61, "duration": 1, "velocity": 90}, {"time": 1041, "pitch": 61, "duration": 7, "velocity": 96}, {"time": 1086, "pitch": 65, "duration": 2, "velocity": 122}, {"time": 1089, "pitch": 63, "duration": 1, "velocity": 85}, {"time": 1092, "pitch": 63, "duration": 1, "velocity": 112}, {"time": 1095, "pitch": 61, "duration": 1, "velocity": 95}, {"time": 1098, "pitch": 63, "duration": 1, "velocity": 100}, {"time": 1101, "pitch": 65, "duration": 3, "velocity": 117}, {"time": 1107, "pitch": 60, "duration": 1, "velocity": 90}, {"time": 1110, "pitch": 60, "duration": 1, "velocity": 86}, {"time": 1113, "pitch": 60, "duration": 1, "velocity": 93}, {"time": 1116, "pitch": 60, "duration": 1, "velocity": 99}, {"time": 1119, "pitch": 63, "duration": 2, "velocity": 122}, {"time": 1122, "pitch": 61, "duration": 1, "velocity": 85}, {"time": 1125, "pitch": 61, "duration": 6, "velocity": 112}, {"time": 1131, "pitch": 53, "duration": 3, "velocity": 93}, {"time": 1134, "pitch": 58, "duration": 11, "velocity": 100}, {"time": 1182, "pitch": 65, "duration": 2, "velocity": 102}, {"time": 1185, "pitch": 63, "duration": 1, "velocity": 92}, {"time": 1188, "pitch": 63, "duration": 2, "velocity": 107}, {"time": 1191, "pitch": 61, "duration": 2, "velocity": 85}, {"time": 1194, "pitch": 63, "duration": 1, "velocity": 107}, {"time": 1197, "pitch": 65, "duration": 3, "velocity": 102}, {"time": 1203, "pitch": 63, "duration": 1, "velocity": 100}, {"time": 1206, "pitch": 63, "duration": 2, "velocity": 100}, {"time": 1209, "pitch": 61, "duration": 1, "velocity": 90}, {"time": 1212, "pitch": 63, "duration": 1, "velocity": 112}, {"time": 1215, "pitch": 61, "duration": 2, "velocity": 96}, {"time": 1218, "pitch": 63, "duration": 1, "velocity": 102}, {"time": 1221, "pitch": 68, "duration": 6, "velocity": 102}, {"time": 1227, "pitch": 63, "duration": 2, "velocity": 93}, {"time": 1230, "pitch": 65, "duration": 13, "velocity": 127}, {"time": 1269, "pitch": 56, "duration": 2, "velocity": 89}, {"time": 1272, "pitch": 58, "duration": 1, "velocity": 99}, {"time": 1275, "pitch": 56, "duration": 1, "velocity": 86}, {"time": 1278, "pitch": 58, "duration": 1, "velocity": 93}, {"time": 1281, "pitch": 56, "duration": 1, "velocity": 88}, {"time": 1284, "pitch": 58, "duration": 1, "velocity": 95}, {"time": 1287, "pitch": 54, "duration": 2, "velocity": 97}, {"time": 1290, "pitch": 58, "duration": 2, "velocity": 90}, {"time": 1293, "pitch": 65, "duration": 5, "velocity": 100}, {"time": 1299, "pitch": 66, "duration": 2, "velocity": 102}, {"time": 1302, "pitch": 63, "duration": 6, "velocity": 97}, {"time": 1317, "pitch": 60, "duration": 1, "velocity": 78}, {"time": 1320, "pitch": 60, "duration": 2, "velocity": 100}, {"time": 1323, "pitch": 58, "duration": 1, "velocity": 85}, {"time": 1326, "pitch": 60, "duration": 1, "velocity": 107}, {"time": 1329, "pitch": 58, "duration": 2, "velocity": 93}, {"time": 1332, "pitch": 60, "duration": 2, "velocity": 122}, {"time": 1335, "pitch": 56, "duration": 2, "velocity": 83}, {"time": 1338, "pitch": 60, "duration": 1, "velocity": 99}, {"time": 1341, "pitch": 63, "duration": 5, "velocity": 100}, {"time": 1347, "pitch": 61, "duration": 1, "velocity": 102}, {"time": 1350, "pitch": 61, "duration": 12, "velocity": 117}, {"time": 1362, "pitch": 56, "duration": 1, "velocity": 92}, {"time": 1365, "pitch": 56, "duration": 1, "velocity": 82}, {"time": 1368, "pitch": 58, "duration": 1, "velocity": 97}, {"time": 1371, "pitch": 56, "duration": 2, "velocity": 83}, {"time": 1374, "pitch": 58, "duration": 2, "velocity": 97}, {"time": 1377, "pitch": 54, "duration": 2, "velocity": 88}, {"time": 1380, "pitch": 58, "duration": 2, "velocity": 107}, {"time": 1383, "pitch": 65, "duration": 3, "velocity": 92}, {"time": 1389, "pitch": 63, "duration": 8, "velocity": 117}, {"time": 1404, "pitch": 60, "duration": 1, "velocity": 100}, {"time": 1407, "pitch": 60, "duration": 1, "velocity": 95}, {"time": 1410, "pitch": 61, "duration": 1, "velocity": 107}, {"time": 1413, "pitch": 63, "duration": 5, "velocity": 107}, {"time": 1419, "pitch": 61, "duration": 2, "velocity": 107}, {"time": 1422, "pitch": 61, "duration": 10, "velocity": 107}, {"time": 1614, "pitch": 65, "duration": 1, "velocity": 79}, {"time": 1617, "pitch": 65, "duration": 1, "velocity": 75}, {"time": 1620, "pitch": 65, "duration": 1, "velocity": 74}, {"time": 1623, "pitch": 66, "duration": 2, "velocity": 85}, {"time": 1626, "pitch": 68, "duration": 3, "velocity": 95}, {"time": 1638, "pitch": 63, "duration": 1, "velocity": 95}, {"time": 1641, "pitch": 63, "duration": 1, "velocity": 86}, {"time": 1644, "pitch": 63, "duration": 2, "velocity": 83}, {"time": 1647, "pitch": 65, "duration": 2, "velocity": 89}, {"time": 1650, "pitch": 66, "duration": 3, "velocity": 97}, {"time": 1662, "pitch": 61, "duration": 1, "velocity": 77}, {"time": 1665, "pitch": 61, "duration": 1, "velocity": 78}, {"time": 1668, "pitch": 61, "duration": 1, "velocity": 85}, {"time": 1671, "pitch": 63, "duration": 2, "velocity": 95}, {"time": 1674, "pitch": 65, "duration": 3, "velocity": 96}, {"time": 1680, "pitch": 63, "duration": 5, "velocity": 97}, {"time": 1686, "pitch": 65, "duration": 5, "velocity": 78}, {"time": 1692, "pitch": 63, "duration": 4, "velocity": 92}, {"time": 1698, "pitch": 65, "duration": 2, "velocity": 83}, {"time": 1701, "pitch": 58, "duration": 8, "velocity": 88}, {"time": 1725, "pitch": 56, "duration": 1, "velocity": 85}, {"time": 1728, "pitch": 56, "duration": 4, "velocity": 82}, {"time": 1734, "pitch": 58, "duration": 1, "velocity": 93}, {"time": 1737, "pitch": 61, "duration": 3, "velocity": 95}, {"time": 1743, "pitch": 63, "duration": 7, "velocity": 99}, {"time": 1749, "pitch": 61, "duration": 6, "velocity": 100}, {"time": 1758, "pitch": 60, "duration": 1, "velocity": 90}, {"time": 1761, "pitch": 61, "duration": 3, "velocity": 76}, {"time": 1770, "pitch": 60, "duration": 2, "velocity": 79}, {"time": 1773, "pitch": 61, "duration": 3, "velocity": 82}, {"time": 1782, "pitch": 60, "duration": 1, "velocity": 93}, {"time": 1785, "pitch": 61, "duration": 3, "velocity": 99}, {"time": 1794, "pitch": 56, "duration": 1, "velocity": 86}, {"time": 1797, "pitch": 56, "duration": 4, "velocity": 86}, {"time": 1803, "pitch": 63, "duration": 1, "velocity": 100}, {"time": 1806, "pitch": 63, "duration": 2, "velocity": 90}, {"time": 1809, "pitch": 61, "duration": 1, "velocity": 78}, {"time": 1812, "pitch": 63, "duration": 2, "velocity": 97}, {"time": 1815, "pitch": 65, "duration": 2, "velocity": 99}, {"time": 1821, "pitch": 63, "duration": 6, "velocity": 86}, {"time": 1827, "pitch": 65, "duration": 7, "velocity": 88}, {"time": 1842, "pitch": 61, "duration": 6, "velocity": 99}, {"time": 1854, "pitch": 60, "duration": 1, "velocity": 90}, {"time": 1857, "pitch": 61, "duration": 5, "velocity": 92}, {"time": 1866, "pitch": 60, "duration": 1, "velocity": 86}, {"time": 1869, "pitch": 61, "duration": 4, "velocity": 100}, {"time": 1878, "pitch": 60, "duration": 1, "velocity": 81}, {"time": 1881, "pitch": 61, "duration": 5, "velocity": 89}, {"time": 1887, "pitch": 63, "duration": 5, "velocity": 102}, {"time": 1893, "pitch": 63, "duration": 23, "velocity": 95}, {"time": 1950, "pitch": 65, "duration": 2, "velocity": 97}, {"time": 1953, "pitch": 63, "duration": 1, "velocity": 56}, {"time": 1956, "pitch": 63, "duration": 2, "velocity": 78}, {"time": 1959, "pitch": 61, "duration": 2, "velocity": 64}, {"time": 1962, "pitch": 63, "duration": 1, "velocity": 90}, {"time": 1965, "pitch": 65, "duration": 4, "velocity": 102}, {"time": 1971, "pitch": 60, "duration": 1, "velocity": 89}, {"time": 1974, "pitch": 60, "duration": 1, "velocity": 83}, {"time": 1977, "pitch": 60, "duration": 1, "velocity": 90}, {"time": 1980, "pitch": 60, "duration": 1, "velocity": 90}, {"time": 1983, "pitch": 63, "duration": 2, "velocity": 93}, {"time": 1986, "pitch": 61, "duration": 1, "velocity": 97}, {"time": 1989, "pitch": 61, "duration": 8, "velocity": 100}, {"time": 1995, "pitch": 60, "duration": 4, "velocity": 88}, {"time": 2001, "pitch": 58, "duration": 11, "velocity": 83}, {"time": 2046, "pitch": 65, "duration": 2, "velocity": 82}, {"time": 2049, "pitch": 63, "duration": 1, "velocity": 86}, {"time": 2052, "pitch": 63, "duration": 2, "velocity": 89}, {"time": 2055, "pitch": 61, "duration": 2, "velocity": 75}, {"time": 2058, "pitch": 63, "duration": 1, "velocity": 93}, {"time": 2061, "pitch": 65, "duration": 4, "velocity": 95}, {"time": 2067, "pitch": 63, "duration": 1, "velocity": 97}, {"time": 2070, "pitch": 63, "duration": 1, "velocity": 95}, {"time": 2073, "pitch": 61, "duration": 2, "velocity": 85}, {"time": 2076, "pitch": 63, "duration": 1, "velocity": 90}, {"time": 2079, "pitch": 61, "duration": 1, "velocity": 85}, {"time": 2082, "pitch": 63, "duration": 1, "velocity": 93}, {"time": 2085, "pitch": 68, "duration": 6, "velocity": 107}, {"time": 2091, "pitch": 63, "duration": 2, "velocity": 95}, {"time": 2094, "pitch": 65, "duration": 9, "velocity": 97}, {"time": 2133, "pitch": 56, "duration": 1, "velocity": 89}, {"time": 2136, "pitch": 58, "duration": 1, "velocity": 90}, {"time": 2139, "pitch": 56, "duration": 1, "velocity": 89}, {"time": 2142, "pitch": 58, "duration": 1, "velocity": 93}, {"time": 2145, "pitch": 56, "duration": 1, "velocity": 92}, {"time": 2148, "pitch": 58, "duration": 2, "velocity": 107}, {"time": 2151, "pitch": 54, "duration": 2, "velocity": 75}, {"time": 2154, "pitch": 58, "duration": 2, "velocity": 99}, {"time": 2157, "pitch": 65, "duration": 5, "velocity": 95}, {"time": 2163, "pitch": 63, "duration": 1, "velocity": 88}, {"time": 2166, "pitch": 63, "duration": 4, "velocity": 95}, {"time": 2181, "pitch": 60, "duration": 1, "velocity": 90}, {"time": 2184, "pitch": 60, "duration": 2, "velocity": 95}, {"time": 2187, "pitch": 58, "duration": 1, "velocity": 89}, {"time": 2190, "pitch": 60, "duration": 1, "velocity": 100}, {"time": 2193, "pitch": 58, "duration": 1, "velocity": 93}, {"time": 2196, "pitch": 60, "duration": 2, "velocity": 127}, {"time": 2199, "pitch": 56, "duration": 2, "velocity": 92}, {"time": 2202, "pitch": 60, "duration": 1, "velocity": 78}, {"time": 2205, "pitch": 63, "duration": 5, "velocity": 102}, {"time": 2211, "pitch": 61, "duration": 1, "velocity": 88}, {"time": 2214, "pitch": 61, "duration": 5, "velocity": 99}, {"time": 2229, "pitch": 56, "duration": 1, "velocity": 93}, {"time": 2232, "pitch": 58, "duration": 1, "velocity": 96}, {"time": 2235, "pitch": 60, "duration": 1, "velocity": 92}, {"time": 2238, "pitch": 61, "duration": 1, "velocity": 117}, {"time": 2241, "pitch": 58, "duration": 2, "velocity": 83}, {"time": 2244, "pitch": 61, "duration": 2, "velocity": 99}, {"time": 2247, "pitch": 65, "duration": 3, "velocity": 90}, {"time": 2253, "pitch": 63, "duration": 11, "velocity": 100}, {"time": 2265, "pitch": 60, "duration": 1, "velocity": 85}, {"time": 2268, "pitch": 60, "duration": 1, "velocity": 82}, {"time": 2271, "pitch": 60, "duration": 1, "velocity": 90}, {"time": 2274, "pitch": 61, "duration": 1, "velocity": 99}, {"time": 2277, "pitch": 63, "duration": 6, "velocity": 100}, {"time": 2286, "pitch": 61, "duration": 1, "velocity": 90}, {"time": 2289, "pitch": 61, "duration": 7, "velocity": 96}, {"time": 2334, "pitch": 65, "duration": 2, "velocity": 122}, {"time": 2337, "pitch": 63, "duration": 1, "velocity": 85}, {"time": 2340, "pitch": 63, "duration": 1, "velocity": 112}, {"time": 2343, "pitch": 61, "duration": 1, "velocity": 95}, {"time": 2346, "pitch": 63, "duration": 1, "velocity": 100}, {"time": 2349, "pitch": 65, "duration": 3, "velocity": 117}, {"time": 2355, "pitch": 60, "duration": 1, "velocity": 90}, {"time": 2358, "pitch": 60, "duration": 1, "velocity": 86}, {"time": 2361, "pitch": 60, "duration": 1, "velocity": 93}, {"time": 2364, "pitch": 60, "duration": 1, "velocity": 99}, {"time": 2367, "pitch": 63, "duration": 2, "velocity": 122}, {"time": 2370, "pitch": 61, "duration": 1, "velocity": 85}, {"time": 2373, "pitch": 61, "duration": 6, "velocity": 112}, {"time": 2379, "pitch": 53, "duration": 3, "velocity": 93}, {"time": 2382, "pitch": 58, "duration": 11, "velocity": 100}, {"time": 2430, "pitch": 65, "duration": 2, "velocity": 102}, {"time": 2433, "pitch": 63, "duration": 1, "velocity": 92}, {"time": 2436, "pitch": 63, "duration": 2, "velocity": 107}, {"time": 2439, "pitch": 61, "duration": 2, "velocity": 85}, {"time": 2442, "pitch": 63, "duration": 1, "velocity": 107}, {"time": 2445, "pitch": 65, "duration": 3, "velocity": 102}, {"time": 2451, "pitch": 63, "duration": 1, "velocity": 100}, {"time": 2454, "pitch": 63, "duration": 2, "velocity": 100}, {"time": 2457, "pitch": 61, "duration": 1, "velocity": 90}, {"time": 2460, "pitch": 63, "duration": 1, "velocity": 112}, {"time": 2463, "pitch": 61, "duration": 2, "velocity": 96}, {"time": 2466, "pitch": 63, "duration": 1, "velocity": 102}, {"time": 2469, "pitch": 68, "duration": 6, "velocity": 102}, {"time": 2475, "pitch": 63, "duration": 2, "velocity": 93}, {"time": 2478, "pitch": 65, "duration": 13, "velocity": 127}, {"time": 2517, "pitch": 56, "duration": 2, "velocity": 89}, {"time": 2520, "pitch": 58, "duration": 1, "velocity": 99}, {"time": 2523, "pitch": 56, "duration": 1, "velocity": 86}, {"time": 2526, "pitch": 58, "duration": 1, "velocity": 93}, {"time": 2529, "pitch": 56, "duration": 1, "velocity": 88}, {"time": 2532, "pitch": 58, "duration": 1, "velocity": 95}, {"time": 2535, "pitch": 54, "duration": 2, "velocity": 97}, {"time": 2538, "pitch": 58, "duration": 2, "velocity": 90}, {"time": 2541, "pitch": 65, "duration": 5, "velocity": 100}, {"time": 2547, "pitch": 66, "duration": 2, "velocity": 102}, {"time": 2550, "pitch": 63, "duration": 6, "velocity": 97}, {"time": 2565, "pitch": 60, "duration": 1, "velocity": 78}, {"time": 2568, "pitch": 60, "duration": 2, "velocity": 100}, {"time": 2571, "pitch": 58, "duration": 1, "velocity": 85}, {"time": 2574, "pitch": 60, "duration": 1, "velocity": 107}, {"time": 2577, "pitch": 58, "duration": 2, "velocity": 93}, {"time": 2580, "pitch": 60, "duration": 2, "velocity": 122}, {"time": 2583, "pitch": 56, "duration": 2, "velocity": 83}, {"time": 2586, "pitch": 60, "duration": 1, "velocity": 99}, {"time": 2589, "pitch": 63, "duration": 5, "velocity": 100}, {"time": 2595, "pitch": 61, "duration": 1, "velocity": 102}, {"time": 2598, "pitch": 61, "duration": 12, "velocity": 117}, {"time": 2610, "pitch": 56, "duration": 1, "velocity": 92}, {"time": 2613, "pitch": 56, "duration": 1, "velocity": 82}, {"time": 2616, "pitch": 58, "duration": 1, "velocity": 97}, {"time": 2619, "pitch": 56, "duration": 2, "velocity": 83}, {"time": 2622, "pitch": 58, "duration": 2, "velocity": 97}, {"time": 2625, "pitch": 54, "duration": 2, "velocity": 88}, {"time": 2628, "pitch": 58, "duration": 2, "velocity": 107}, {"time": 2631, "pitch": 65, "duration": 3, "velocity": 92}, {"time": 2637, "pitch": 63, "duration": 8, "velocity": 117}, {"time": 2652, "pitch": 60, "duration": 1, "velocity": 100}, {"time": 2655, "pitch": 60, "duration": 1, "velocity": 95}, {"time": 2658, "pitch": 61, "duration": 1, "velocity": 107}, {"time": 2661, "pitch": 63, "duration": 5, "velocity": 107}, {"time": 2667, "pitch": 61, "duration": 2, "velocity": 107}, {"time": 2670, "pitch": 61, "duration": 10, "velocity": 107}, {"time": 2718, "pitch": 67, "duration": 3, "velocity": 127}, {"time": 2721, "pitch": 65, "duration": 1, "velocity": 82}, {"time": 2724, "pitch": 65, "duration": 2, "velocity": 107}, {"time": 2727, "pitch": 63, "duration": 2, "velocity": 95}, {"time": 2730, "pitch": 65, "duration": 1, "velocity": 112}, {"time": 2733, "pitch": 67, "duration": 4, "velocity": 122}, {"time": 2739, "pitch": 65, "duration": 1, "velocity": 112}, {"time": 2742, "pitch": 65, "duration": 1, "velocity": 100}, {"time": 2745, "pitch": 63, "duration": 1, "velocity": 97}, {"time": 2748, "pitch": 65, "duration": 1, "velocity": 112}, {"time": 2751, "pitch": 63, "duration": 1, "velocity": 100}, {"time": 2754, "pitch": 65, "duration": 1, "velocity": 99}, {"time": 2757, "pitch": 67, "duration": 4, "velocity": 127}, {"time": 2763, "pitch": 60, "duration": 1, "velocity": 97}, {"time": 2766, "pitch": 63, "duration": 13, "velocity": 102}, {"time": 2814, "pitch": 67, "duration": 2, "velocity": 127}, {"time": 2817, "pitch": 65, "duration": 1, "velocity": 96}, {"time": 2820, "pitch": 65, "duration": 2, "velocity": 99}, {"time": 2823, "pitch": 63, "duration": 2, "velocity": 89}, {"time": 2826, "pitch": 65, "duration": 1, "velocity": 92}, {"time": 2829, "pitch": 70, "duration": 4, "velocity": 107}, {"time": 2835, "pitch": 67, "duration": 1, "velocity": 117}, {"time": 2838, "pitch": 67, "duration": 2, "velocity": 102}, {"time": 2841, "pitch": 65, "duration": 2, "velocity": 100}, {"time": 2844, "pitch": 65, "duration": 1, "velocity": 96}, {"time": 2847, "pitch": 63, "duration": 1, "velocity": 95}, {"time": 2850, "pitch": 65, "duration": 1, "velocity": 97}, {"time": 2853, "pitch": 67, "duration": 7, "velocity": 112}, {"time": 2862, "pitch": 60, "duration": 3, "velocity": 99}, {"time": 2865, "pitch": 65, "duration": 3, "velocity": 93}, {"time": 2868, "pitch": 63, "duration": 14, "velocity": 102}, {"time": 2901, "pitch": 58, "duration": 3, "velocity": 93}, {"time": 2904, "pitch": 60, "duration": 3, "velocity": 97}, {"time": 2907, "pitch": 67, "duration": 1, "velocity": 102}, {"time": 2910, "pitch": 67, "duration": 1, "velocity": 107}, {"time": 2913, "pitch": 67, "duration": 1, "velocity": 112}, {"time": 2916, "pitch": 67, "duration": 2, "velocity": 122}, {"time": 2919, "pitch": 67, "duration": 2, "velocity": 102}, {"time": 2922, "pitch": 68, "duration": 2, "velocity": 90}, {"time": 2925, "pitch": 67, "duration": 7, "velocity": 122}, {"time": 2931, "pitch": 65, "duration": 1, "velocity": 92}, {"time": 2934, "pitch": 65, "duration": 8, "velocity": 112}, {"time": 2949, "pitch": 62, "duration": 1, "velocity": 112}, {"time": 2952, "pitch": 62, "duration": 2, "velocity": 117}, {"time": 2955, "pitch": 60, "duration": 1, "velocity": 92}, {"time": 2958, "pitch": 62, "duration": 2, "velocity": 112}, {"time": 2961, "pitch": 60, "duration": 1, "velocity": 90}, {"time": 2964, "pitch": 62, "duration": 2, "velocity": 127}, {"time": 2967, "pitch": 65, "duration": 1, "velocity": 112}, {"time": 2970, "pitch": 65, "duration": 1, "velocity": 97}, {"time": 2973, "pitch": 65, "duration": 5, "velocity": 112}, {"time": 2979, "pitch": 63, "duration": 1, "velocity": 89}, {"time": 2982, "pitch": 63, "duration": 7, "velocity": 97}, {"time": 2997, "pitch": 58, "duration": 1, "velocity": 99}, {"time": 3000, "pitch": 60, "duration": 2, "velocity": 97}, {"time": 3003, "pitch": 58, "duration": 2, "velocity": 95}, {"time": 3006, "pitch": 60, "duration": 2, "velocity": 89}, {"time": 3009, "pitch": 56, "duration": 2, "velocity": 95}, {"time": 3012, "pitch": 60, "duration": 2, "velocity": 100}, {"time": 3015, "pitch": 67, "duration": 3, "velocity": 112}, {"time": 3021, "pitch": 65, "duration": 10, "velocity": 107}, {"time": 3036, "pitch": 62, "duration": 1, "velocity": 117}, {"time": 3039, "pitch": 62, "duration": 1, "velocity": 97}, {"time": 3042, "pitch": 63, "duration": 2, "velocity": 93}, {"time": 3045, "pitch": 65, "duration": 6, "velocity": 117}, {"time": 3051, "pitch": 63, "duration": 1, "velocity": 99}, {"time": 3054, "pitch": 63, "duration": 10, "velocity": 102}]}, {"program": 0, "is_drum": false, "name": "PIANO", "notes": [{"time": 21, "pitch": 41, "duration": 4, "velocity": 74}, {"time": 24, "pitch": 46, "duration": 24, "velocity": 86}, {"time": 30, "pitch": 53, "duration": 13, "velocity": 56}, {"time": 36, "pitch": 61, "duration": 13, "velocity": 90}, {"time": 42, "pitch": 58, "duration": 7, "velocity": 65}, {"time": 48, "pitch": 44, "duration": 18, "velocity": 55}, {"time": 54, "pitch": 51, "duration": 12, "velocity": 60}, {"time": 60, "pitch": 56, "duration": 4, "velocity": 46}, {"time": 60, "pitch": 63, "duration": 15, "velocity": 82}, {"time": 66, "pitch": 60, "duration": 8, "velocity": 62}, {"time": 72, "pitch": 42, "duration": 42, "velocity": 65}, {"time": 78, "pitch": 49, "duration": 11, "velocity": 56}, {"time": 84, "pitch": 54, "duration": 16, "velocity": 47}, {"time": 84, "pitch": 58, "duration": 20, "velocity": 73}, {"time": 90, "pitch": 49, "duration": 23, "velocity": 43}, {"time": 96, "pitch": 61, "duration": 13, "velocity": 57}, {"time": 96, "pitch": 66, "duration": 24, "velocity": 58}, {"time": 102, "pitch": 54, "duration": 8, "velocity": 51}, {"time": 108, "pitch": 58, "duration": 12, "velocity": 83}, {"time": 111, "pitch": 61, "duration": 9, "velocity": 55}, {"time": 114, "pitch": 63, "duration": 6, "velocity": 56}, {"time": 120, "pitch": 46, "duration": 22, "velocity": 74}, {"time": 126, "pitch": 53, "duration": 14, "velocity": 55}, {"time": 132, "pitch": 61, "duration": 14, "velocity": 69}, {"time": 132, "pitch": 65, "duration": 14, "velocity": 61}, {"time": 138, "pitch": 58, "duration": 6, "velocity": 59}, {"time": 144, "pitch": 44, "duration": 18, "velocity": 50}, {"time": 150, "pitch": 51, "duration": 11, "velocity": 57}, {"time": 156, "pitch": 56, "duration": 1, "velocity": 31}, {"time": 156, "pitch": 63, "duration": 14, "velocity": 82}, {"time": 162, "pitch": 56, "duration": 7, "velocity": 60}, {"time": 168, "pitch": 42, "duration": 39, "velocity": 70}, {"time": 174, "pitch": 49, "duration": 31, "velocity": 38}, {"time": 180, "pitch": 54, "duration": 25, "velocity": 54}, {"time": 186, "pitch": 58, "duration": 30, "velocity": 44}, {"time": 192, "pitch": 61, "duration": 25, "velocity": 43}, {"time": 192, "pitch": 66, "duration": 23, "velocity": 43}, {"time": 216, "pitch": 37, "duration": 18, "velocity": 61}, {"time": 222, "pitch": 44, "duration": 11, "velocity": 49}, {"time": 228, "pitch": 49, "duration": 7, "velocity": 51}, {"time": 228, "pitch": 65, "duration": 13, "velocity": 83}, {"time": 234, "pitch": 56, "duration": 6, "velocity": 74}, {"time": 240, "pitch": 48, "duration": 19, "velocity": 71}, {"time": 246, "pitch": 53, "duration": 13, "velocity": 39}, {"time": 252, "pitch": 65, "duration": 12, "velocity": 70}, {"time": 252, "pitch": 68, "duration": 12, "velocity": 69}, {"time": 258, "pitch": 60, "duration": 7, "velocity": 65}, {"time": 264, "pitch": 46, "duration": 17, "velocity": 73}, {"time": 270, "pitch": 53, "duration": 11, "velocity": 38}, {"time": 276, "pitch": 65, "duration": 13, "velocity": 86}, {"time": 282, "pitch": 61, "duration": 7, "velocity": 66}, {"time": 288, "pitch": 44, "duration": 19, "velocity": 71}, {"time": 294, "pitch": 51, "duration": 12, "velocity": 41}, {"time": 300, "pitch": 63, "duration": 13, "velocity": 96}, {"time": 306, "pitch": 60, "duration": 7, "velocity": 67}, {"time": 309, "pitch": 56, "duration": 4, "velocity": 63}, {"time": 312, "pitch": 42, "duration": 19, "velocity": 63}, {"time": 318, "pitch": 49, "duration": 18, "velocity": 48}, {"time": 324, "pitch": 54, "duration": 5, "velocity": 52}, {"time": 324, "pitch": 61, "duration": 14, "velocity": 88}, {"time": 330, "pitch": 58, "duration": 7, "velocity": 62}, {"time": 336, "pitch": 44, "duration": 18, "velocity": 61}, {"time": 342, "pitch": 51, "duration": 11, "velocity": 52}, {"time": 348, "pitch": 63, "duration": 13, "velocity": 96}, {"time": 351, "pitch": 60, "duration": 5, "velocity": 70}, {"time": 354, "pitch": 56, "duration": 7, "velocity": 85}, {"time": 357, "pitch": 60, "duration": 3, "velocity": 61}, {"time": 360, "pitch": 37, "duration": 15, "velocity": 79}, {"time": 366, "pitch": 44, "duration": 8, "velocity": 44}, {"time": 372, "pitch": 49, "duration": 6, "velocity": 60}, {"time": 372, "pitch": 65, "duration": 13, "velocity": 88}, {"time": 375, "pitch": 61, "duration": 10, "velocity": 63}, {"time": 378, "pitch": 56, "duration": 6, "velocity": 89}, {"time": 384, "pitch": 48, "duration": 17, "velocity": 69}, {"time": 390, "pitch": 53, "duration": 11, "velocity": 56}, {"time": 396, "pitch": 65, "duration": 13, "velocity": 75}, {"time": 396, "pitch": 68, "duration": 13, "velocity": 71}, {"time": 402, "pitch": 60, "duration": 7, "velocity": 72}, {"time": 408, "pitch": 46, "duration": 17, "velocity": 69}, {"time": 414, "pitch": 53, "duration": 10, "velocity": 52}, {"time": 420, "pitch": 65, "duration": 13, "velocity": 89}, {"time": 426, "pitch": 61, "duration": 7, "velocity": 70}, {"time": 429, "pitch": 58, "duration": 4, "velocity": 74}, {"time": 432, "pitch": 41, "duration": 17, "velocity": 71}, {"time": 435, "pitch": 48, "duration": 15, "velocity": 59}, {"time": 438, "pitch": 53, "duration": 13, "velocity": 50}, {"time": 444, "pitch": 60, "duration": 12, "velocity": 82}, {"time": 450, "pitch": 56, "duration": 7, "velocity": 77}, {"time": 456, "pitch": 42, "duration": 19, "velocity": 79}, {"time": 462, "pitch": 49, "duration": 18, "velocity": 56}, {"time": 468, "pitch": 61, "duration": 13, "velocity": 93}, {"time": 474, "pitch": 58, "duration": 7, "velocity": 83}, {"time": 480, "pitch": 44, "duration": 19, "velocity": 69}, {"time": 486, "pitch": 51, "duration": 18, "velocity": 59}, {"time": 492, "pitch": 63, "duration": 12, "velocity": 97}, {"time": 498, "pitch": 60, "duration": 6, "velocity": 69}, {"time": 504, "pitch": 46, "duration": 23, "velocity": 65}, {"time": 510, "pitch": 53, "duration": 12, "velocity": 59}, {"time": 516, "pitch": 65, "duration": 12, "velocity": 89}, {"time": 522, "pitch": 61, "duration": 6, "velocity": 72}, {"time": 528, "pitch": 44, "duration": 19, "velocity": 78}, {"time": 534, "pitch": 56, "duration": 7, "velocity": 57}, {"time": 540, "pitch": 63, "duration": 12, "velocity": 96}, {"time": 546, "pitch": 56, "duration": 6, "velocity": 79}, {"time": 552, "pitch": 42, "duration": 21, "velocity": 69}, {"time": 558, "pitch": 49, "duration": 16, "velocity": 48}, {"time": 564, "pitch": 61, "duration": 11, "velocity": 90}, {"time": 570, "pitch": 58, "duration": 5, "velocity": 69}, {"time": 576, "pitch": 46, "duration": 12, "velocity": 71}, {"time": 582, "pitch": 58, "duration": 6, "velocity": 66}, {"time": 588, "pitch": 44, "duration": 7, "velocity": 70}, {"time": 594, "pitch": 56, "duration": 7, "velocity": 76}, {"time": 600, "pitch": 46, "duration": 21, "velocity": 74}, {"time": 606, "pitch": 58, "duration": 7, "velocity": 60}, {"time": 612, "pitch": 61, "duration": 11, "velocity": 90}, {"time": 618, "pitch": 58, "duration": 7, "velocity": 67}, {"time": 624, "pitch": 44, "duration": 22, "velocity": 73}, {"time": 630, "pitch": 56, "duration": 18, "velocity": 61}, {"time": 636, "pitch": 63, "duration": 12, "velocity": 95}, {"time": 642, "pitch": 60, "duration": 6, "velocity": 69}, {"time": 648, "pitch": 42, "duration": 17, "velocity": 67}, {"time": 654, "pitch": 49, "duration": 18, "velocity": 62}, {"time": 660, "pitch": 54, "duration": 4, "velocity": 49}, {"time": 660, "pitch": 61, "duration": 7, "velocity": 79}, {"time": 666, "pitch": 58, "duration": 6, "velocity": 55}, {"time": 672, "pitch": 44, "duration": 18, "velocity": 73}, {"time": 672, "pitch": 56, "duration": 22, "velocity": 66}, {"time": 672, "pitch": 60, "duration": 23, "velocity": 58}, {"time": 672, "pitch": 63, "duration": 24, "velocity": 70}, {"time": 696, "pitch": 49, "duration": 17, "velocity": 82}, {"time": 702, "pitch": 56, "duration": 7, "velocity": 86}, {"time": 705, "pitch": 61, "duration": 5, "velocity": 56}, {"time": 708, "pitch": 68, "duration": 12, "velocity": 97}, {"time": 711, "pitch": 56, "duration": 2, "velocity": 48}, {"time": 714, "pitch": 65, "duration": 6, "velocity": 81}, {"time": 717, "pitch": 61, "duration": 4, "velocity": 51}, {"time": 720, "pitch": 41, "duration": 18, "velocity": 63}, {"time": 723, "pitch": 48, "duration": 15, "velocity": 42}, {"time": 726, "pitch": 53, "duration": 8, "velocity": 72}, {"time": 729, "pitch": 60, "duration": 9, "velocity": 61}, {"time": 732, "pitch": 69, "duration": 12, "velocity": 99}, {"time": 735, "pitch": 53, "duration": 9, "velocity": 56}, {"time": 738, "pitch": 65, "duration": 7, "velocity": 58}, {"time": 741, "pitch": 60, "duration": 5, "velocity": 72}, {"time": 744, "pitch": 46, "duration": 19, "velocity": 68}, {"time": 747, "pitch": 53, "duration": 10, "velocity": 40}, {"time": 750, "pitch": 58, "duration": 5, "velocity": 71}, {"time": 753, "pitch": 61, "duration": 4, "velocity": 61}, {"time": 756, "pitch": 65, "duration": 12, "velocity": 85}, {"time": 759, "pitch": 53, "duration": 3, "velocity": 52}, {"time": 762, "pitch": 61, "duration": 6, "velocity": 58}, {"time": 765, "pitch": 58, "duration": 3, "velocity": 68}, {"time": 768, "pitch": 44, "duration": 18, "velocity": 63}, {"time": 771, "pitch": 51, "duration": 10, "velocity": 41}, {"time": 774, "pitch": 56, "duration": 4, "velocity": 73}, {"time": 777, "pitch": 60, "duration": 4, "velocity": 73}, {"time": 780, "pitch": 63, "duration": 11, "velocity": 93}, {"time": 783, "pitch": 51, "duration": 2, "velocity": 59}, {"time": 786, "pitch": 60, "duration": 5, "velocity": 74}, {"time": 789, "pitch": 56, "duration": 4, "velocity": 72}, {"time": 792, "pitch": 37, "duration": 17, "velocity": 66}, {"time": 795, "pitch": 44, "duration": 14, "velocity": 56}, {"time": 798, "pitch": 49, "duration": 7, "velocity": 68}, {"time": 801, "pitch": 56, "duration": 7, "velocity": 66}, {"time": 804, "pitch": 65, "duration": 12, "velocity": 90}, {"time": 807, "pitch": 49, "duration": 8, "velocity": 66}, {"time": 810, "pitch": 61, "duration": 6, "velocity": 75}, {"time": 813, "pitch": 56, "duration": 3, "velocity": 79}, {"time": 816, "pitch": 41, "duration": 18, "velocity": 70}, {"time": 819, "pitch": 48, "duration": 15, "velocity": 44}, {"time": 822, "pitch": 53, "duration": 7, "velocity": 76}, {"time": 825, "pitch": 60, "duration": 10, "velocity": 65}, {"time": 828, "pitch": 68, "duration": 13, "velocity": 96}, {"time": 831, "pitch": 53, "duration": 9, "velocity": 72}, {"time": 834, "pitch": 65, "duration": 6, "velocity": 81}, {"time": 837, "pitch": 60, "duration": 3, "velocity": 73}, {"time": 840, "pitch": 46, "duration": 18, "velocity": 71}, {"time": 843, "pitch": 53, "duration": 10, "velocity": 48}, {"time": 846, "pitch": 58, "duration": 4, "velocity": 81}, {"time": 849, "pitch": 61, "duration": 3, "velocity": 72}, {"time": 852, "pitch": 65, "duration": 12, "velocity": 96}, {"time": 855, "pitch": 53, "duration": 3, "velocity": 39}, {"time": 858, "pitch": 61, "duration": 6, "velocity": 66}, {"time": 861, "pitch": 58, "duration": 3, "velocity": 70}, {"time": 864, "pitch": 44, "duration": 19, "velocity": 69}, {"time": 867, "pitch": 51, "duration": 10, "velocity": 58}, {"time": 870, "pitch": 56, "duration": 4, "velocity": 85}, {"time": 873, "pitch": 60, "duration": 3, "velocity": 79}, {"time": 876, "pitch": 63, "duration": 13, "velocity": 99}, {"time": 879, "pitch": 51, "duration": 4, "velocity": 61}, {"time": 882, "pitch": 60, "duration": 6, "velocity": 79}, {"time": 885, "pitch": 56, "duration": 4, "velocity": 82}, {"time": 888, "pitch": 42, "duration": 22, "velocity": 68}, {"time": 891, "pitch": 49, "duration": 21, "velocity": 56}, {"time": 894, "pitch": 54, "duration": 7, "velocity": 74}, {"time": 897, "pitch": 58, "duration": 7, "velocity": 71}, {"time": 900, "pitch": 65, "duration": 12, "velocity": 85}, {"time": 903, "pitch": 54, "duration": 3, "velocity": 78}, {"time": 906, "pitch": 61, "duration": 7, "velocity": 61}, {"time": 909, "pitch": 58, "duration": 4, "velocity": 59}, {"time": 912, "pitch": 44, "duration": 18, "velocity": 72}, {"time": 915, "pitch": 51, "duration": 14, "velocity": 61}, {"time": 918, "pitch": 56, "duration": 7, "velocity": 88}, {"time": 921, "pitch": 60, "duration": 4, "velocity": 75}, {"time": 924, "pitch": 63, "duration": 6, "velocity": 100}, {"time": 927, "pitch": 56, "duration": 2, "velocity": 78}, {"time": 930, "pitch": 60, "duration": 6, "velocity": 86}, {"time": 933, "pitch": 63, "duration": 3, "velocity": 68}, {"time": 936, "pitch": 41, "duration": 18, "velocity": 81}, {"time": 939, "pitch": 48, "duration": 15, "velocity": 57}, {"time": 942, "pitch": 53, "duration": 7, "velocity": 75}, {"time": 945, "pitch": 56, "duration": 9, "velocity": 58}, {"time": 948, "pitch": 65, "duration": 13, "velocity": 96}, {"time": 951, "pitch": 53, "duration": 8, "velocity": 66}, {"time": 954, "pitch": 60, "duration": 6, "velocity": 85}, {"time": 957, "pitch": 56, "duration": 3, "velocity": 93}, {"time": 960, "pitch": 46, "duration": 18, "velocity": 76}, {"time": 963, "pitch": 53, "duration": 10, "velocity": 77}, {"time": 966, "pitch": 58, "duration": 4, "velocity": 86}, {"time": 969, "pitch": 61, "duration": 3, "velocity": 88}, {"time": 972, "pitch": 65, "duration": 11, "velocity": 97}, {"time": 975, "pitch": 53, "duration": 2, "velocity": 39}, {"time": 978, "pitch": 61, "duration": 5, "velocity": 93}, {"time": 981, "pitch": 58, "duration": 3, "velocity": 69}, {"time": 984, "pitch": 39, "duration": 16, "velocity": 75}, {"time": 987, "pitch": 46, "duration": 13, "velocity": 65}, {"time": 990, "pitch": 51, "duration": 7, "velocity": 69}, {"time": 993, "pitch": 58, "duration": 7, "velocity": 58}, {"time": 996, "pitch": 66, "duration": 12, "velocity": 93}, {"time": 999, "pitch": 51, "duration": 4, "velocity": 66}, {"time": 1002, "pitch": 63, "duration": 6, "velocity": 93}, {"time": 1005, "pitch": 58, "duration": 3, "velocity": 76}, {"time": 1008, "pitch": 44, "duration": 17, "velocity": 75}, {"time": 1011, "pitch": 51, "duration": 10, "velocity": 40}, {"time": 1014, "pitch": 56, "duration": 4, "velocity": 79}, {"time": 1017, "pitch": 60, "duration": 3, "velocity": 76}, {"time": 1020, "pitch": 63, "duration": 11, "velocity": 96}, {"time": 1023, "pitch": 51, "duration": 2, "velocity": 41}, {"time": 1026, "pitch": 60, "duration": 5, "velocity": 76}, {"time": 1029, "pitch": 56, "duration": 3, "velocity": 69}, {"time": 1032, "pitch": 37, "duration": 23, "velocity": 70}, {"time": 1035, "pitch": 44, "duration": 21, "velocity": 41}, {"time": 1038, "pitch": 49, "duration": 6, "velocity": 70}, {"time": 1041, "pitch": 56, "duration": 7, "velocity": 59}, {"time": 1044, "pitch": 65, "duration": 12, "velocity": 89}, {"time": 1047, "pitch": 49, "duration": 9, "velocity": 71}, {"time": 1050, "pitch": 61, "duration": 6, "velocity": 71}, {"time": 1053, "pitch": 56, "duration": 3, "velocity": 73}, {"time": 1056, "pitch": 44, "duration": 22, "velocity": 69}, {"time": 1056, "pitch": 56, "duration": 5, "velocity": 66}, {"time": 1056, "pitch": 60, "duration": 4, "velocity": 65}, {"time": 1056, "pitch": 63, "duration": 5, "velocity": 60}, {"time": 1062, "pitch": 51, "duration": 9, "velocity": 40}, {"time": 1062, "pitch": 56, "duration": 4, "velocity": 66}, {"time": 1062, "pitch": 60, "duration": 5, "velocity": 67}, {"time": 1062, "pitch": 63, "duration": 5, "velocity": 66}, {"time": 1068, "pitch": 56, "duration": 4, "velocity": 92}, {"time": 1068, "pitch": 60, "duration": 4, "velocity": 92}, {"time": 1068, "pitch": 63, "duration": 4, "velocity": 89}, {"time": 1071, "pitch": 51, "duration": 8, "velocity": 52}, {"time": 1074, "pitch": 56, "duration": 6, "velocity": 97}, {"time": 1074, "pitch": 60, "duration": 6, "velocity": 107}, {"time": 1074, "pitch": 63, "duration": 6, "velocity": 97}, {"time": 1080, "pitch": 37, "duration": 18, "velocity": 75}, {"time": 1086, "pitch": 44, "duration": 11, "velocity": 38}, {"time": 1089, "pitch": 49, "duration": 5, "velocity": 68}, {"time": 1092, "pitch": 65, "duration": 11, "velocity": 96}, {"time": 1095, "pitch": 49, "duration": 6, "velocity": 61}, {"time": 1098, "pitch": 61, "duration": 6, "velocity": 83}, {"time": 1101, "pitch": 56, "duration": 3, "velocity": 73}, {"time": 1104, "pitch": 44, "duration": 22, "velocity": 73}, {"time": 1107, "pitch": 51, "duration": 10, "velocity": 43}, {"time": 1110, "pitch": 56, "duration": 4, "velocity": 83}, {"time": 1113, "pitch": 60, "duration": 3, "velocity": 78}, {"time": 1116, "pitch": 63, "duration": 12, "velocity": 97}, {"time": 1119, "pitch": 51, "duration": 10, "velocity": 59}, {"time": 1122, "pitch": 60, "duration": 6, "velocity": 90}, {"time": 1125, "pitch": 56, "duration": 3, "velocity": 83}, {"time": 1128, "pitch": 46, "duration": 21, "velocity": 76}, {"time": 1131, "pitch": 53, "duration": 10, "velocity": 56}, {"time": 1134, "pitch": 58, "duration": 4, "velocity": 79}, {"time": 1137, "pitch": 61, "duration": 3, "velocity": 85}, {"time": 1140, "pitch": 65, "duration": 13, "velocity": 90}, {"time": 1143, "pitch": 53, "duration": 6, "velocity": 50}, {"time": 1146, "pitch": 61, "duration": 6, "velocity": 69}, {"time": 1149, "pitch": 58, "duration": 3, "velocity": 39}, {"time": 1152, "pitch": 44, "duration": 18, "velocity": 68}, {"time": 1155, "pitch": 51, "duration": 15, "velocity": 53}, {"time": 1158, "pitch": 56, "duration": 9, "velocity": 83}, {"time": 1161, "pitch": 60, "duration": 4, "velocity": 77}, {"time": 1164, "pitch": 68, "duration": 12, "velocity": 97}, {"time": 1167, "pitch": 63, "duration": 3, "velocity": 69}, {"time": 1170, "pitch": 60, "duration": 6, "velocity": 72}, {"time": 1173, "pitch": 63, "duration": 3, "velocity": 55}, {"time": 1176, "pitch": 37, "duration": 17, "velocity": 69}, {"time": 1179, "pitch": 44, "duration": 14, "velocity": 55}, {"time": 1182, "pitch": 49, "duration": 8, "velocity": 64}, {"time": 1185, "pitch": 56, "duration": 10, "velocity": 63}, {"time": 1188, "pitch": 65, "duration": 12, "velocity": 93}, {"time": 1191, "pitch": 49, "duration": 5, "velocity": 61}, {"time": 1194, "pitch": 61, "duration": 6, "velocity": 86}, {"time": 1197, "pitch": 56, "duration": 3, "velocity": 72}, {"time": 1200, "pitch": 44, "duration": 22, "velocity": 70}, {"time": 1203, "pitch": 51, "duration": 10, "velocity": 42}, {"time": 1206, "pitch": 56, "duration": 4, "velocity": 77}, {"time": 1209, "pitch": 60, "duration": 3, "velocity": 79}, {"time": 1212, "pitch": 63, "duration": 12, "velocity": 95}, {"time": 1215, "pitch": 51, "duration": 9, "velocity": 71}, {"time": 1218, "pitch": 60, "duration": 6, "velocity": 86}, {"time": 1221, "pitch": 56, "duration": 3, "velocity": 88}, {"time": 1224, "pitch": 46, "duration": 19, "velocity": 73}, {"time": 1227, "pitch": 53, "duration": 10, "velocity": 55}, {"time": 1230, "pitch": 58, "duration": 4, "velocity": 86}, {"time": 1233, "pitch": 61, "duration": 2, "velocity": 95}, {"time": 1236, "pitch": 65, "duration": 12, "velocity": 99}, {"time": 1239, "pitch": 53, "duration": 3, "velocity": 36}, {"time": 1242, "pitch": 61, "duration": 6, "velocity": 70}, {"time": 1245, "pitch": 58, "duration": 3, "velocity": 71}, {"time": 1248, "pitch": 44, "duration": 17, "velocity": 74}, {"time": 1251, "pitch": 51, "duration": 10, "velocity": 56}, {"time": 1254, "pitch": 56, "duration": 4, "velocity": 77}, {"time": 1257, "pitch": 60, "duration": 3, "velocity": 78}, {"time": 1260, "pitch": 63, "duration": 11, "velocity": 93}, {"time": 1263, "pitch": 51, "duration": 2, "velocity": 48}, {"time": 1266, "pitch": 60, "duration": 5, "velocity": 72}, {"time": 1269, "pitch": 56, "duration": 3, "velocity": 61}, {"time": 1272, "pitch": 42, "duration": 22, "velocity": 69}, {"time": 1275, "pitch": 49, "duration": 22, "velocity": 59}, {"time": 1278, "pitch": 54, "duration": 8, "velocity": 72}, {"time": 1281, "pitch": 58, "duration": 10, "velocity": 65}, {"time": 1284, "pitch": 66, "duration": 12, "velocity": 96}, {"time": 1287, "pitch": 54, "duration": 2, "velocity": 59}, {"time": 1290, "pitch": 61, "duration": 6, "velocity": 81}, {"time": 1293, "pitch": 58, "duration": 3, "velocity": 78}, {"time": 1296, "pitch": 44, "duration": 18, "velocity": 73}, {"time": 1299, "pitch": 51, "duration": 10, "velocity": 44}, {"time": 1302, "pitch": 56, "duration": 4, "velocity": 77}, {"time": 1305, "pitch": 60, "duration": 3, "velocity": 86}, {"time": 1308, "pitch": 63, "duration": 12, "velocity": 99}, {"time": 1311, "pitch": 51, "duration": 3, "velocity": 53}, {"time": 1314, "pitch": 60, "duration": 6, "velocity": 79}, {"time": 1317, "pitch": 56, "duration": 3, "velocity": 69}, {"time": 1320, "pitch": 41, "duration": 17, "velocity": 78}, {"time": 1323, "pitch": 48, "duration": 14, "velocity": 45}, {"time": 1326, "pitch": 53, "duration": 7, "velocity": 72}, {"time": 1329, "pitch": 56, "duration": 3, "velocity": 68}, {"time": 1332, "pitch": 60, "duration": 7, "velocity": 99}, {"time": 1335, "pitch": 53, "duration": 6, "velocity": 77}, {"time": 1338, "pitch": 56, "duration": 4, "velocity": 81}, {"time": 1341, "pitch": 60, "duration": 3, "velocity": 85}, {"time": 1344, "pitch": 46, "duration": 18, "velocity": 63}, {"time": 1347, "pitch": 53, "duration": 11, "velocity": 55}, {"time": 1350, "pitch": 58, "duration": 4, "velocity": 72}, {"time": 1353, "pitch": 61, "duration": 3, "velocity": 83}, {"time": 1356, "pitch": 65, "duration": 11, "velocity": 93}, {"time": 1359, "pitch": 53, "duration": 3, "velocity": 43}, {"time": 1362, "pitch": 61, "duration": 6, "velocity": 93}, {"time": 1365, "pitch": 58, "duration": 3, "velocity": 58}, {"time": 1368, "pitch": 42, "duration": 22, "velocity": 77}, {"time": 1371, "pitch": 49, "duration": 21, "velocity": 46}, {"time": 1374, "pitch": 54, "duration": 7, "velocity": 78}, {"time": 1377, "pitch": 58, "duration": 5, "velocity": 63}, {"time": 1380, "pitch": 66, "duration": 12, "velocity": 95}, {"time": 1383, "pitch": 54, "duration": 2, "velocity": 76}, {"time": 1386, "pitch": 58, "duration": 4, "velocity": 79}, {"time": 1389, "pitch": 61, "duration": 3, "velocity": 72}, {"time": 1392, "pitch": 44, "duration": 16, "velocity": 71}, {"time": 1395, "pitch": 51, "duration": 13, "velocity": 54}, {"time": 1398, "pitch": 56, "duration": 4, "velocity": 76}, {"time": 1401, "pitch": 60, "duration": 3, "velocity": 79}, {"time": 1404, "pitch": 63, "duration": 11, "velocity": 97}, {"time": 1410, "pitch": 60, "duration": 5, "velocity": 77}, {"time": 1413, "pitch": 56, "duration": 3, "velocity": 61}, {"time": 1416, "pitch": 37, "duration": 22, "velocity": 70}, {"time": 1419, "pitch": 44, "duration": 42, "velocity": 54}, {"time": 1422, "pitch": 49, "duration": 7, "velocity": 71}, {"time": 1425, "pitch": 56, "duration": 4, "velocity": 67}, {"time": 1428, "pitch": 61, "duration": 7, "velocity": 100}, {"time": 1431, "pitch": 49, "duration": 29, "velocity": 72}, {"time": 1434, "pitch": 56, "duration": 28, "velocity": 70}, {"time": 1437, "pitch": 65, "duration": 26, "velocity": 77}, {"time": 1440, "pitch": 37, "duration": 21, "velocity": 59}, {"time": 1440, "pitch": 61, "duration": 23, "velocity": 72}, {"time": 1464, "pitch": 42, "duration": 44, "velocity": 86}, {"time": 1470, "pitch": 49, "duration": 40, "velocity": 54}, {"time": 1476, "pitch": 54, "duration": 14, "velocity": 55}, {"time": 1476, "pitch": 61, "duration": 21, "velocity": 72}, {"time": 1482, "pitch": 58, "duration": 19, "velocity": 58}, {"time": 1488, "pitch": 66, "duration": 24, "velocity": 70}, {"time": 1494, "pitch": 54, "duration": 8, "velocity": 47}, {"time": 1500, "pitch": 61, "duration": 12, "velocity": 89}, {"time": 1506, "pitch": 58, "duration": 5, "velocity": 66}, {"time": 1512, "pitch": 46, "duration": 23, "velocity": 75}, {"time": 1518, "pitch": 53, "duration": 12, "velocity": 62}, {"time": 1524, "pitch": 61, "duration": 12, "velocity": 79}, {"time": 1524, "pitch": 65, "duration": 12, "velocity": 79}, {"time": 1530, "pitch": 58, "duration": 6, "velocity": 74}, {"time": 1536, "pitch": 44, "duration": 23, "velocity": 78}, {"time": 1542, "pitch": 51, "duration": 8, "velocity": 63}, {"time": 1548, "pitch": 60, "duration": 12, "velocity": 68}, {"time": 1548, "pitch": 63, "duration": 12, "velocity": 65}, {"time": 1551, "pitch": 51, "duration": 2, "velocity": 29}, {"time": 1554, "pitch": 56, "duration": 5, "velocity": 74}, {"time": 1560, "pitch": 42, "duration": 48, "velocity": 86}, {"time": 1566, "pitch": 49, "duration": 9, "velocity": 38}, {"time": 1572, "pitch": 54, "duration": 16, "velocity": 34}, {"time": 1572, "pitch": 58, "duration": 10, "velocity": 77}, {"time": 1572, "pitch": 61, "duration": 6, "velocity": 81}, {"time": 1578, "pitch": 49, "duration": 30, "velocity": 43}, {"time": 1578, "pitch": 61, "duration": 1, "velocity": 50}, {"time": 1584, "pitch": 58, "duration": 11, "velocity": 60}, {"time": 1584, "pitch": 61, "duration": 10, "velocity": 72}, {"time": 1584, "pitch": 66, "duration": 10, "velocity": 72}, {"time": 1590, "pitch": 54, "duration": 18, "velocity": 55}, {"time": 1596, "pitch": 61, "duration": 11, "velocity": 82}, {"time": 1596, "pitch": 66, "duration": 12, "velocity": 82}, {"time": 1602, "pitch": 58, "duration": 5, "velocity": 65}, {"time": 1608, "pitch": 37, "duration": 15, "velocity": 79}, {"time": 1614, "pitch": 44, "duration": 8, "velocity": 44}, {"time": 1620, "pitch": 49, "duration": 6, "velocity": 60}, {"time": 1620, "pitch": 65, "duration": 13, "velocity": 88}, {"time": 1623, "pitch": 61, "duration": 10, "velocity": 63}, {"time": 1626, "pitch": 56, "duration": 6, "velocity": 89}, {"time": 1632, "pitch": 48, "duration": 17, "velocity": 69}, {"time": 1638, "pitch": 53, "duration": 11, "velocity": 56}, {"time": 1644, "pitch": 65, "duration": 13, "velocity": 75}, {"time": 1644, "pitch": 68, "duration": 13, "velocity": 71}, {"time": 1650, "pitch": 60, "duration": 7, "velocity": 72}, {"time": 1656, "pitch": 46, "duration": 17, "velocity": 69}, {"time": 1662, "pitch": 53, "duration": 10, "velocity": 52}, {"time": 1668, "pitch": 65, "duration": 13, "velocity": 89}, {"time": 1674, "pitch": 61, "duration": 7, "velocity": 70}, {"time": 1677, "pitch": 58, "duration": 4, "velocity": 74}, {"time": 1680, "pitch": 41, "duration": 17, "velocity": 71}, {"time": 1683, "pitch": 48, "duration": 15, "velocity": 59}, {"time": 1686, "pitch": 53, "duration": 13, "velocity": 50}, {"time": 1692, "pitch": 60, "duration": 12, "velocity": 82}, {"time": 1698, "pitch": 56, "duration": 7, "velocity": 77}, {"time": 1704, "pitch": 42, "duration": 19, "velocity": 79}, {"time": 1710, "pitch": 49, "duration": 18, "velocity": 56}, {"time": 1716, "pitch": 61, "duration": 13, "velocity": 93}, {"time": 1722, "pitch": 58, "duration": 7, "velocity": 83}, {"time": 1728, "pitch": 44, "duration": 19, "velocity": 69}, {"time": 1734, "pitch": 51, "duration": 18, "velocity": 59}, {"time": 1740, "pitch": 63, "duration": 12, "velocity": 97}, {"time": 1746, "pitch": 60, "duration": 6, "velocity": 69}, {"time": 1752, "pitch": 46, "duration": 23, "velocity": 65}, {"time": 1752, "pitch": 65, "duration": 4, "velocity": 74}, {"time": 1755, "pitch": 61, "duration": 3, "velocity": 78}, {"time": 1758, "pitch": 53, "duration": 12, "velocity": 59}, {"time": 1758, "pitch": 65, "duration": 4, "velocity": 78}, {"time": 1761, "pitch": 61, "duration": 3, "velocity": 73}, {"time": 1764, "pitch": 65, "duration": 4, "velocity": 81}, {"time": 1764, "pitch": 65, "duration": 4, "velocity": 89}, {"time": 1767, "pitch": 61, "duration": 3, "velocity": 87}, {"time": 1770, "pitch": 61, "duration": 6, "velocity": 72}, {"time": 1770, "pitch": 65, "duration": 4, "velocity": 80}, {"time": 1773, "pitch": 61, "duration": 3, "velocity": 83}, {"time": 1776, "pitch": 44, "duration": 19, "velocity": 78}, {"time": 1776, "pitch": 63, "duration": 3, "velocity": 58}, {"time": 1779, "pitch": 61, "duration": 4, "velocity": 64}, {"time": 1782, "pitch": 56, "duration": 7, "velocity": 57}, {"time": 1782, "pitch": 63, "duration": 4, "velocity": 64}, {"time": 1785, "pitch": 61, "duration": 3, "velocity": 80}, {"time": 1788, "pitch": 63, "duration": 4, "velocity": 69}, {"time": 1788, "pitch": 63, "duration": 4, "velocity": 96}, {"time": 1791, "pitch": 61, "duration": 4, "velocity": 73}, {"time": 1794, "pitch": 56, "duration": 6, "velocity": 79}, {"time": 1794, "pitch": 63, "duration": 3, "velocity": 74}, {"time": 1797, "pitch": 61, "duration": 3, "velocity": 65}, {"time": 1800, "pitch": 42, "duration": 21, "velocity": 69}, {"time": 1800, "pitch": 65, "duration": 3, "velocity": 78}, {"time": 1803, "pitch": 61, "duration": 3, "velocity": 77}, {"time": 1806, "pitch": 49, "duration": 16, "velocity": 48}, {"time": 1806, "pitch": 65, "duration": 3, "velocity": 79}, {"time": 1809, "pitch": 61, "duration": 3, "velocity": 80}, {"time": 1812, "pitch": 61, "duration": 1, "velocity": 90}, {"time": 1812, "pitch": 65, "duration": 3, "velocity": 81}, {"time": 1815, "pitch": 61, "duration": 3, "velocity": 80}, {"time": 1818, "pitch": 58, "duration": 5, "velocity": 69}, {"time": 1818, "pitch": 65, "duration": 4, "velocity": 68}, {"time": 1821, "pitch": 61, "duration": 2, "velocity": 79}, {"time": 1824, "pitch": 46, "duration": 12, "velocity": 71}, {"time": 1824, "pitch": 63, "duration": 3, "velocity": 75}, {"time": 1827, "pitch": 61, "duration": 4, "velocity": 80}, {"time": 1830, "pitch": 58, "duration": 6, "velocity": 66}, {"time": 1830, "pitch": 63, "duration": 3, "velocity": 69}, {"time": 1833, "pitch": 61, "duration": 4, "velocity": 77}, {"time": 1836, "pitch": 44, "duration": 7, "velocity": 70}, {"time": 1836, "pitch": 63, "duration": 4, "velocity": 70}, {"time": 1839, "pitch": 61, "duration": 3, "velocity": 76}, {"time": 1842, "pitch": 56, "duration": 7, "velocity": 76}, {"time": 1842, "pitch": 63, "duration": 3, "velocity": 80}, {"time": 1845, "pitch": 61, "duration": 3, "velocity": 78}, {"time": 1848, "pitch": 46, "duration": 21, "velocity": 74}, {"time": 1848, "pitch": 65, "duration": 4, "velocity": 85}, {"time": 1851, "pitch": 61, "duration": 3, "velocity": 76}, {"time": 1854, "pitch": 58, "duration": 7, "velocity": 60}, {"time": 1854, "pitch": 65, "duration": 4, "velocity": 79}, {"time": 1857, "pitch": 61, "duration": 3, "velocity": 74}, {"time": 1860, "pitch": 61, "duration": 1, "velocity": 90}, {"time": 1860, "pitch": 65, "duration": 4, "velocity": 78}, {"time": 1863, "pitch": 61, "duration": 3, "velocity": 77}, {"time": 1866, "pitch": 58, "duration": 7, "velocity": 67}, {"time": 1866, "pitch": 65, "duration": 4, "velocity": 78}, {"time": 1869, "pitch": 61, "duration": 2, "velocity": 81}, {"time": 1872, "pitch": 44, "duration": 22, "velocity": 73}, {"time": 1872, "pitch": 63, "duration": 3, "velocity": 47}, {"time": 1875, "pitch": 61, "duration": 4, "velocity": 77}, {"time": 1878, "pitch": 56, "duration": 18, "velocity": 61}, {"time": 1878, "pitch": 63, "duration": 3, "velocity": 76}, {"time": 1881, "pitch": 61, "duration": 3, "velocity": 76}, {"time": 1884, "pitch": 63, "duration": 3, "velocity": 78}, {"time": 1884, "pitch": 63, "duration": 3, "velocity": 95}, {"time": 1887, "pitch": 61, "duration": 3, "velocity": 75}, {"time": 1890, "pitch": 60, "duration": 6, "velocity": 69}, {"time": 1890, "pitch": 63, "duration": 4, "velocity": 77}, {"time": 1893, "pitch": 61, "duration": 3, "velocity": 78}, {"time": 1896, "pitch": 42, "duration": 17, "velocity": 67}, {"time": 1902, "pitch": 49, "duration": 18, "velocity": 62}, {"time": 1908, "pitch": 54, "duration": 4, "velocity": 49}, {"time": 1908, "pitch": 61, "duration": 7, "velocity": 79}, {"time": 1914, "pitch": 58, "duration": 6, "velocity": 55}, {"time": 1920, "pitch": 44, "duration": 18, "velocity": 73}, {"time": 1920, "pitch": 56, "duration": 22, "velocity": 66}, {"time": 1920, "pitch": 60, "duration": 23, "velocity": 58}, {"time": 1920, "pitch": 63, "duration": 24, "velocity": 70}, {"time": 1944, "pitch": 49, "duration": 17, "velocity": 82}, {"time": 1950, "pitch": 56, "duration": 7, "velocity": 86}, {"time": 1953, "pitch": 61, "duration": 5, "velocity": 56}, {"time": 1956, "pitch": 68, "duration": 12, "velocity": 97}, {"time": 1959, "pitch": 56, "duration": 2, "velocity": 48}, {"time": 1962, "pitch": 65, "duration": 6, "velocity": 81}, {"time": 1965, "pitch": 61, "duration": 4, "velocity": 51}, {"time": 1968, "pitch": 41, "duration": 18, "velocity": 63}, {"time": 1971, "pitch": 48, "duration": 15, "velocity": 42}, {"time": 1974, "pitch": 53, "duration": 8, "velocity": 72}, {"time": 1977, "pitch": 60, "duration": 9, "velocity": 61}, {"time": 1980, "pitch": 69, "duration": 12, "velocity": 99}, {"time": 1983, "pitch": 53, "duration": 9, "velocity": 56}, {"time": 1986, "pitch": 65, "duration": 7, "velocity": 58}, {"time": 1989, "pitch": 60, "duration": 5, "velocity": 72}, {"time": 1992, "pitch": 46, "duration": 19, "velocity": 68}, {"time": 1995, "pitch": 53, "duration": 10, "velocity": 40}, {"time": 1998, "pitch": 58, "duration": 5, "velocity": 71}, {"time": 2001, "pitch": 61, "duration": 4, "velocity": 61}, {"time": 2004, "pitch": 65, "duration": 12, "velocity": 85}, {"time": 2007, "pitch": 53, "duration": 3, "velocity": 52}, {"time": 2010, "pitch": 61, "duration": 6, "velocity": 58}, {"time": 2013, "pitch": 58, "duration": 3, "velocity": 68}, {"time": 2016, "pitch": 44, "duration": 18, "velocity": 63}, {"time": 2019, "pitch": 51, "duration": 10, "velocity": 41}, {"time": 2022, "pitch": 56, "duration": 4, "velocity": 73}, {"time": 2025, "pitch": 60, "duration": 4, "velocity": 73}, {"time": 2028, "pitch": 63, "duration": 11, "velocity": 93}, {"time": 2031, "pitch": 51, "duration": 2, "velocity": 59}, {"time": 2034, "pitch": 60, "duration": 5, "velocity": 74}, {"time": 2037, "pitch": 56, "duration": 4, "velocity": 72}, {"time": 2040, "pitch": 37, "duration": 17, "velocity": 66}, {"time": 2043, "pitch": 44, "duration": 14, "velocity": 56}, {"time": 2046, "pitch": 49, "duration": 7, "velocity": 68}, {"time": 2049, "pitch": 56, "duration": 7, "velocity": 66}, {"time": 2052, "pitch": 65, "duration": 12, "velocity": 90}, {"time": 2055, "pitch": 49, "duration": 8, "velocity": 66}, {"time": 2058, "pitch": 61, "duration": 6, "velocity": 75}, {"time": 2061, "pitch": 56, "duration": 3, "velocity": 79}, {"time": 2064, "pitch": 41, "duration": 18, "velocity": 70}, {"time": 2067, "pitch": 48, "duration": 15, "velocity": 44}, {"time": 2070, "pitch": 53, "duration": 7, "velocity": 76}, {"time": 2073, "pitch": 60, "duration": 10, "velocity": 65}, {"time": 2076, "pitch": 68, "duration": 13, "velocity": 96}, {"time": 2079, "pitch": 53, "duration": 9, "velocity": 72}, {"time": 2082, "pitch": 65, "duration": 6, "velocity": 81}, {"time": 2085, "pitch": 60, "duration": 3, "velocity": 73}, {"time": 2088, "pitch": 46, "duration": 18, "velocity": 71}, {"time": 2091, "pitch": 53, "duration": 10, "velocity": 48}, {"time": 2094, "pitch": 58, "duration": 4, "velocity": 81}, {"time": 2097, "pitch": 61, "duration": 3, "velocity": 72}, {"time": 2100, "pitch": 65, "duration": 12, "velocity": 96}, {"time": 2103, "pitch": 53, "duration": 3, "velocity": 39}, {"time": 2106, "pitch": 61, "duration": 6, "velocity": 66}, {"time": 2109, "pitch": 58, "duration": 3, "velocity": 70}, {"time": 2112, "pitch": 44, "duration": 19, "velocity": 69}, {"time": 2115, "pitch": 51, "duration": 10, "velocity": 58}, {"time": 2118, "pitch": 56, "duration": 4, "velocity": 85}, {"time": 2121, "pitch": 60, "duration": 3, "velocity": 79}, {"time": 2124, "pitch": 63, "duration": 13, "velocity": 99}, {"time": 2127, "pitch": 51, "duration": 4, "velocity": 61}, {"time": 2130, "pitch": 60, "duration": 6, "velocity": 79}, {"time": 2133, "pitch": 56, "duration": 4, "velocity": 82}, {"time": 2136, "pitch": 42, "duration": 22, "velocity": 68}, {"time": 2139, "pitch": 49, "duration": 21, "velocity": 56}, {"time": 2142, "pitch": 54, "duration": 7, "velocity": 74}, {"time": 2145, "pitch": 58, "duration": 7, "velocity": 71}, {"time": 2148, "pitch": 65, "duration": 12, "velocity": 85}, {"time": 2151, "pitch": 54, "duration": 3, "velocity": 78}, {"time": 2154, "pitch": 61, "duration": 7, "velocity": 61}, {"time": 2157, "pitch": 58, "duration": 4, "velocity": 59}, {"time": 2160, "pitch": 44, "duration": 18, "velocity": 72}, {"time": 2163, "pitch": 51, "duration": 14, "velocity": 61}, {"time": 2166, "pitch": 56, "duration": 7, "velocity": 88}, {"time": 2169, "pitch": 60, "duration": 4, "velocity": 75}, {"time": 2172, "pitch": 63, "duration": 6, "velocity": 100}, {"time": 2175, "pitch": 56, "duration": 2, "velocity": 78}, {"time": 2178, "pitch": 60, "duration": 6, "velocity": 86}, {"time": 2181, "pitch": 63, "duration": 3, "velocity": 68}, {"time": 2184, "pitch": 41, "duration": 18, "velocity": 81}, {"time": 2187, "pitch": 48, "duration": 15, "velocity": 57}, {"time": 2190, "pitch": 53, "duration": 7, "velocity": 75}, {"time": 2193, "pitch": 56, "duration": 9, "velocity": 58}, {"time": 2196, "pitch": 65, "duration": 13, "velocity": 96}, {"time": 2199, "pitch": 53, "duration": 8, "velocity": 66}, {"time": 2202, "pitch": 60, "duration": 6, "velocity": 85}, {"time": 2205, "pitch": 56, "duration": 3, "velocity": 93}, {"time": 2208, "pitch": 46, "duration": 18, "velocity": 76}, {"time": 2211, "pitch": 53, "duration": 10, "velocity": 77}, {"time": 2214, "pitch": 58, "duration": 4, "velocity": 86}, {"time": 2217, "pitch": 61, "duration": 3, "velocity": 88}, {"time": 2220, "pitch": 65, "duration": 11, "velocity": 97}, {"time": 2223, "pitch": 53, "duration": 2, "velocity": 39}, {"time": 2226, "pitch": 61, "duration": 5, "velocity": 93}, {"time": 2229, "pitch": 58, "duration": 3, "velocity": 69}, {"time": 2232, "pitch": 39, "duration": 16, "velocity": 75}, {"time": 2235, "pitch": 46, "duration": 13, "velocity": 65}, {"time": 2238, "pitch": 51, "duration": 7, "velocity": 69}, {"time": 2241, "pitch": 58, "duration": 7, "velocity": 58}, {"time": 2244, "pitch": 66, "duration": 12, "velocity": 93}, {"time": 2247, "pitch": 51, "duration": 4, "velocity": 66}, {"time": 2250, "pitch": 63, "duration": 6, "velocity": 93}, {"time": 2253, "pitch": 58, "duration": 3, "velocity": 76}, {"time": 2256, "pitch": 44, "duration": 17, "velocity": 75}, {"time": 2259, "pitch": 51, "duration": 10, "velocity": 40}, {"time": 2262, "pitch": 56, "duration": 4, "velocity": 79}, {"time": 2265, "pitch": 60, "duration": 3, "velocity": 76}, {"time": 2268, "pitch": 63, "duration": 11, "velocity": 96}, {"time": 2271, "pitch": 51, "duration": 2, "velocity": 41}, {"time": 2274, "pitch": 60, "duration": 5, "velocity": 76}, {"time": 2277, "pitch": 56, "duration": 3, "velocity": 69}, {"time": 2280, "pitch": 37, "duration": 23, "velocity": 70}, {"time": 2283, "pitch": 44, "duration": 21, "velocity": 41}, {"time": 2286, "pitch": 49, "duration": 6, "velocity": 70}, {"time": 2289, "pitch": 56, "duration": 7, "velocity": 59}, {"time": 2292, "pitch": 65, "duration": 12, "velocity": 89}, {"time": 2295, "pitch": 49, "duration": 9, "velocity": 71}, {"time": 2298, "pitch": 61, "duration": 6, "velocity": 71}, {"time": 2301, "pitch": 56, "duration": 3, "velocity": 73}, {"time": 2304, "pitch": 44, "duration": 22, "velocity": 69}, {"time": 2304, "pitch": 56, "duration": 5, "velocity": 66}, {"time": 2304, "pitch": 60, "duration": 4, "velocity": 65}, {"time": 2304, "pitch": 63, "duration": 5, "velocity": 60}, {"time": 2310, "pitch": 51, "duration": 9, "velocity": 40}, {"time": 2310, "pitch": 56, "duration": 4, "velocity": 66}, {"time": 2310, "pitch": 60, "duration": 5, "velocity": 67}, {"time": 2310, "pitch": 63, "duration": 5, "velocity": 66}, {"time": 2316, "pitch": 56, "duration": 4, "velocity": 92}, {"time": 2316, "pitch": 60, "duration": 4, "velocity": 92}, {"time": 2316, "pitch": 63, "duration": 4, "velocity": 89}, {"time": 2319, "pitch": 51, "duration": 8, "velocity": 52}, {"time": 2322, "pitch": 56, "duration": 6, "velocity": 97}, {"time": 2322, "pitch": 60, "duration": 6, "velocity": 107}, {"time": 2322, "pitch": 63, "duration": 6, "velocity": 97}, {"time": 2328, "pitch": 37, "duration": 18, "velocity": 75}, {"time": 2334, "pitch": 44, "duration": 11, "velocity": 38}, {"time": 2337, "pitch": 49, "duration": 5, "velocity": 68}, {"time": 2340, "pitch": 65, "duration": 11, "velocity": 96}, {"time": 2343, "pitch": 49, "duration": 6, "velocity": 61}, {"time": 2346, "pitch": 61, "duration": 6, "velocity": 83}, {"time": 2349, "pitch": 56, "duration": 3, "velocity": 73}, {"time": 2352, "pitch": 44, "duration": 22, "velocity": 73}, {"time": 2355, "pitch": 51, "duration": 10, "velocity": 43}, {"time": 2358, "pitch": 56, "duration": 4, "velocity": 83}, {"time": 2361, "pitch": 60, "duration": 3, "velocity": 78}, {"time": 2364, "pitch": 63, "duration": 12, "velocity": 97}, {"time": 2367, "pitch": 51, "duration": 10, "velocity": 59}, {"time": 2370, "pitch": 60, "duration": 6, "velocity": 90}, {"time": 2373, "pitch": 56, "duration": 3, "velocity": 83}, {"time": 2376, "pitch": 46, "duration": 21, "velocity": 76}, {"time": 2379, "pitch": 53, "duration": 10, "velocity": 56}, {"time": 2382, "pitch": 58, "duration": 4, "velocity": 79}, {"time": 2385, "pitch": 61, "duration": 3, "velocity": 85}, {"time": 2388, "pitch": 65, "duration": 13, "velocity": 90}, {"time": 2391, "pitch": 53, "duration": 6, "velocity": 50}, {"time": 2394, "pitch": 61, "duration": 6, "velocity": 69}, {"time": 2397, "pitch": 58, "duration": 3, "velocity": 39}, {"time": 2400, "pitch": 44, "duration": 18, "velocity": 68}, {"time": 2403, "pitch": 51, "duration": 15, "velocity": 53}, {"time": 2406, "pitch": 56, "duration": 9, "velocity": 83}, {"time": 2409, "pitch": 60, "duration": 4, "velocity": 77}, {"time": 2412, "pitch": 68, "duration": 12, "velocity": 97}, {"time": 2415, "pitch": 63, "duration": 3, "velocity": 69}, {"time": 2418, "pitch": 60, "duration": 6, "velocity": 72}, {"time": 2421, "pitch": 63, "duration": 3, "velocity": 55}, {"time": 2424, "pitch": 37, "duration": 17, "velocity": 69}, {"time": 2427, "pitch": 44, "duration": 14, "velocity": 55}, {"time": 2430, "pitch": 49, "duration": 8, "velocity": 64}, {"time": 2433, "pitch": 56, "duration": 10, "velocity": 63}, {"time": 2436, "pitch": 65, "duration": 12, "velocity": 93}, {"time": 2439, "pitch": 49, "duration": 5, "velocity": 61}, {"time": 2442, "pitch": 61, "duration": 6, "velocity": 86}, {"time": 2445, "pitch": 56, "duration": 3, "velocity": 72}, {"time": 2448, "pitch": 44, "duration": 22, "velocity": 70}, {"time": 2451, "pitch": 51, "duration": 10, "velocity": 42}, {"time": 2454, "pitch": 56, "duration": 4, "velocity": 77}, {"time": 2457, "pitch": 60, "duration": 3, "velocity": 79}, {"time": 2460, "pitch": 63, "duration": 12, "velocity": 95}, {"time": 2463, "pitch": 51, "duration": 9, "velocity": 71}, {"time": 2466, "pitch": 60, "duration": 6, "velocity": 86}, {"time": 2469, "pitch": 56, "duration": 3, "velocity": 88}, {"time": 2472, "pitch": 46, "duration": 19, "velocity": 73}, {"time": 2475, "pitch": 53, "duration": 10, "velocity": 55}, {"time": 2478, "pitch": 58, "duration": 4, "velocity": 86}, {"time": 2481, "pitch": 61, "duration": 2, "velocity": 95}, {"time": 2484, "pitch": 65, "duration": 12, "velocity": 99}, {"time": 2487, "pitch": 53, "duration": 3, "velocity": 36}, {"time": 2490, "pitch": 61, "duration": 6, "velocity": 70}, {"time": 2493, "pitch": 58, "duration": 3, "velocity": 71}, {"time": 2496, "pitch": 44, "duration": 17, "velocity": 74}, {"time": 2499, "pitch": 51, "duration": 10, "velocity": 56}, {"time": 2502, "pitch": 56, "duration": 4, "velocity": 77}, {"time": 2505, "pitch": 60, "duration": 3, "velocity": 78}, {"time": 2508, "pitch": 63, "duration": 11, "velocity": 93}, {"time": 2511, "pitch": 51, "duration": 2, "velocity": 48}, {"time": 2514, "pitch": 60, "duration": 5, "velocity": 72}, {"time": 2517, "pitch": 56, "duration": 3, "velocity": 61}, {"time": 2520, "pitch": 42, "duration": 22, "velocity": 69}, {"time": 2523, "pitch": 49, "duration": 22, "velocity": 59}, {"time": 2526, "pitch": 54, "duration": 8, "velocity": 72}, {"time": 2529, "pitch": 58, "duration": 10, "velocity": 65}, {"time": 2532, "pitch": 66, "duration": 12, "velocity": 96}, {"time": 2535, "pitch": 54, "duration": 2, "velocity": 59}, {"time": 2538, "pitch": 61, "duration": 6, "velocity": 81}, {"time": 2541, "pitch": 58, "duration": 3, "velocity": 78}, {"time": 2544, "pitch": 44, "duration": 18, "velocity": 73}, {"time": 2547, "pitch": 51, "duration": 10, "velocity": 44}, {"time": 2550, "pitch": 56, "duration": 4, "velocity": 77}, {"time": 2553, "pitch": 60, "duration": 3, "velocity": 86}, {"time": 2556, "pitch": 63, "duration": 12, "velocity": 99}, {"time": 2559, "pitch": 51, "duration": 3, "velocity": 53}, {"time": 2562, "pitch": 60, "duration": 6, "velocity": 79}, {"time": 2565, "pitch": 56, "duration": 3, "velocity": 69}, {"time": 2568, "pitch": 41, "duration": 17, "velocity": 78}, {"time": 2571, "pitch": 48, "duration": 14, "velocity": 45}, {"time": 2574, "pitch": 53, "duration": 7, "velocity": 72}, {"time": 2577, "pitch": 56, "duration": 3, "velocity": 68}, {"time": 2580, "pitch": 60, "duration": 7, "velocity": 99}, {"time": 2583, "pitch": 53, "duration": 6, "velocity": 77}, {"time": 2586, "pitch": 56, "duration": 4, "velocity": 81}, {"time": 2589, "pitch": 60, "duration": 3, "velocity": 85}, {"time": 2592, "pitch": 46, "duration": 18, "velocity": 63}, {"time": 2595, "pitch": 53, "duration": 11, "velocity": 55}, {"time": 2598, "pitch": 58, "duration": 4, "velocity": 72}, {"time": 2601, "pitch": 61, "duration": 3, "velocity": 83}, {"time": 2604, "pitch": 65, "duration": 11, "velocity": 93}, {"time": 2607, "pitch": 53, "duration": 3, "velocity": 43}, {"time": 2610, "pitch": 61, "duration": 6, "velocity": 93}, {"time": 2613, "pitch": 58, "duration": 3, "velocity": 58}, {"time": 2616, "pitch": 42, "duration": 22, "velocity": 77}, {"time": 2619, "pitch": 49, "duration": 21, "velocity": 46}, {"time": 2622, "pitch": 54, "duration": 7, "velocity": 78}, {"time": 2625, "pitch": 58, "duration": 5, "velocity": 63}, {"time": 2628, "pitch": 66, "duration": 12, "velocity": 95}, {"time": 2631, "pitch": 54, "duration": 2, "velocity": 76}, {"time": 2634, "pitch": 58, "duration": 4, "velocity": 79}, {"time": 2637, "pitch": 61, "duration": 3, "velocity": 72}, {"time": 2640, "pitch": 44, "duration": 16, "velocity": 71}, {"time": 2643, "pitch": 51, "duration": 13, "velocity": 54}, {"time": 2646, "pitch": 56, "duration": 4, "velocity": 76}, {"time": 2649, "pitch": 60, "duration": 3, "velocity": 79}, {"time": 2652, "pitch": 63, "duration": 11, "velocity": 97}, {"time": 2658, "pitch": 60, "duration": 5, "velocity": 77}, {"time": 2661, "pitch": 56, "duration": 3, "velocity": 61}, {"time": 2664, "pitch": 37, "duration": 24, "velocity": 96}, {"time": 2670, "pitch": 44, "duration": 8, "velocity": 66}, {"time": 2676, "pitch": 49, "duration": 13, "velocity": 71}, {"time": 2676, "pitch": 61, "duration": 10, "velocity": 95}, {"time": 2682, "pitch": 44, "duration": 6, "velocity": 41}, {"time": 2688, "pitch": 61, "duration": 4, "velocity": 89}, {"time": 2688, "pitch": 65, "duration": 4, "velocity": 74}, {"time": 2694, "pitch": 46, "duration": 5, "velocity": 79}, {"time": 2694, "pitch": 53, "duration": 5, "velocity": 75}, {"time": 2694, "pitch": 58, "duration": 5, "velocity": 86}, {"time": 2694, "pitch": 62, "duration": 5, "velocity": 96}, {"time": 2694, "pitch": 65, "duration": 5, "velocity": 90}, {"time": 2700, "pitch": 46, "duration": 1, "velocity": 64}, {"time": 2700, "pitch": 53, "duration": 1, "velocity": 55}, {"time": 2700, "pitch": 58, "duration": 1, "velocity": 69}, {"time": 2700, "pitch": 62, "duration": 2, "velocity": 74}, {"time": 2700, "pitch": 65, "duration": 2, "velocity": 69}, {"time": 2703, "pitch": 46, "duration": 1, "velocity": 66}, {"time": 2703, "pitch": 53, "duration": 1, "velocity": 60}, {"time": 2703, "pitch": 58, "duration": 2, "velocity": 65}, {"time": 2703, "pitch": 62, "duration": 2, "velocity": 68}, {"time": 2703, "pitch": 65, "duration": 1, "velocity": 66}, {"time": 2706, "pitch": 46, "duration": 1, "velocity": 79}, {"time": 2706, "pitch": 53, "duration": 1, "velocity": 75}, {"time": 2706, "pitch": 58, "duration": 2, "velocity": 85}, {"time": 2706, "pitch": 62, "duration": 2, "velocity": 88}, {"time": 2706, "pitch": 65, "duration": 2, "velocity": 81}, {"time": 2709, "pitch": 46, "duration": 3, "velocity": 83}, {"time": 2709, "pitch": 53, "duration": 3, "velocity": 85}, {"time": 2709, "pitch": 58, "duration": 3, "velocity": 89}, {"time": 2709, "pitch": 62, "duration": 3, "velocity": 102}, {"time": 2709, "pitch": 65, "duration": 3, "velocity": 93}, {"time": 2712, "pitch": 39, "duration": 16, "velocity": 79}, {"time": 2715, "pitch": 46, "duration": 14, "velocity": 67}, {"time": 2718, "pitch": 51, "duration": 7, "velocity": 92}, {"time": 2721, "pitch": 58, "duration": 7, "velocity": 82}, {"time": 2724, "pitch": 67, "duration": 13, "velocity": 122}, {"time": 2727, "pitch": 51, "duration": 2, "velocity": 96}, {"time": 2730, "pitch": 63, "duration": 4, "velocity": 71}, {"time": 2733, "pitch": 58, "duration": 6, "velocity": 97}, {"time": 2736, "pitch": 38, "duration": 18, "velocity": 89}, {"time": 2739, "pitch": 50, "duration": 11, "velocity": 72}, {"time": 2742, "pitch": 58, "duration": 9, "velocity": 96}, {"time": 2745, "pitch": 62, "duration": 4, "velocity": 95}, {"time": 2748, "pitch": 67, "duration": 12, "velocity": 122}, {"time": 2751, "pitch": 50, "duration": 5, "velocity": 67}, {"time": 2754, "pitch": 62, "duration": 5, "velocity": 100}, {"time": 2757, "pitch": 58, "duration": 3, "velocity": 90}, {"time": 2760, "pitch": 48, "duration": 22, "velocity": 76}, {"time": 2763, "pitch": 55, "duration": 11, "velocity": 69}, {"time": 2766, "pitch": 60, "duration": 7, "velocity": 86}, {"time": 2769, "pitch": 63, "duration": 3, "velocity": 72}, {"time": 2772, "pitch": 67, "duration": 11, "velocity": 127}, {"time": 2775, "pitch": 55, "duration": 4, "velocity": 69}, {"time": 2778, "pitch": 63, "duration": 5, "velocity": 96}, {"time": 2781, "pitch": 60, "duration": 4, "velocity": 86}, {"time": 2784, "pitch": 46, "duration": 21, "velocity": 73}, {"time": 2787, "pitch": 58, "duration": 4, "velocity": 75}, {"time": 2790, "pitch": 62, "duration": 4, "velocity": 88}, {"time": 2793, "pitch": 58, "duration": 5, "velocity": 78}, {"time": 2796, "pitch": 65, "duration": 11, "velocity": 99}, {"time": 2799, "pitch": 53, "duration": 5, "velocity": 66}, {"time": 2802, "pitch": 62, "duration": 5, "velocity": 97}, {"time": 2805, "pitch": 58, "duration": 3, "velocity": 79}, {"time": 2808, "pitch": 39, "duration": 19, "velocity": 88}, {"time": 2811, "pitch": 46, "duration": 16, "velocity": 43}, {"time": 2814, "pitch": 51, "duration": 8, "velocity": 89}, {"time": 2817, "pitch": 58, "duration": 6, "velocity": 78}, {"time": 2820, "pitch": 67, "duration": 12, "velocity": 127}, {"time": 2823, "pitch": 51, "duration": 6, "velocity": 74}, {"time": 2826, "pitch": 63, "duration": 4, "velocity": 85}, {"time": 2829, "pitch": 58, "duration": 3, "velocity": 90}, {"time": 2832, "pitch": 38, "duration": 21, "velocity": 93}, {"time": 2835, "pitch": 50, "duration": 10, "velocity": 43}, {"time": 2838, "pitch": 58, "duration": 9, "velocity": 76}, {"time": 2841, "pitch": 62, "duration": 4, "velocity": 82}, {"time": 2844, "pitch": 67, "duration": 11, "velocity": 112}, {"time": 2847, "pitch": 50, "duration": 8, "velocity": 69}, {"time": 2850, "pitch": 62, "duration": 5, "velocity": 112}, {"time": 2853, "pitch": 58, "duration": 3, "velocity": 95}, {"time": 2856, "pitch": 48, "duration": 18, "velocity": 83}, {"time": 2859, "pitch": 55, "duration": 11, "velocity": 85}, {"time": 2862, "pitch": 60, "duration": 7, "velocity": 67}, {"time": 2865, "pitch": 63, "duration": 3, "velocity": 48}, {"time": 2868, "pitch": 67, "duration": 9, "velocity": 117}, {"time": 2871, "pitch": 55, "duration": 3, "velocity": 90}, {"time": 2874, "pitch": 63, "duration": 6, "velocity": 85}, {"time": 2877, "pitch": 60, "duration": 4, "velocity": 90}, {"time": 2880, "pitch": 46, "duration": 17, "velocity": 86}, {"time": 2883, "pitch": 53, "duration": 10, "velocity": 69}, {"time": 2886, "pitch": 58, "duration": 5, "velocity": 75}, {"time": 2889, "pitch": 62, "duration": 3, "velocity": 82}, {"time": 2892, "pitch": 65, "duration": 12, "velocity": 96}, {"time": 2895, "pitch": 53, "duration": 2, "velocity": 68}, {"time": 2898, "pitch": 62, "duration": 6, "velocity": 99}, {"time": 2901, "pitch": 58, "duration": 3, "velocity": 75}, {"time": 2904, "pitch": 44, "duration": 22, "velocity": 82}, {"time": 2907, "pitch": 51, "duration": 21, "velocity": 72}, {"time": 2910, "pitch": 56, "duration": 7, "velocity": 89}, {"time": 2913, "pitch": 63, "duration": 9, "velocity": 83}, {"time": 2916, "pitch": 72, "duration": 12, "velocity": 96}, {"time": 2919, "pitch": 56, "duration": 4, "velocity": 90}, {"time": 2922, "pitch": 68, "duration": 5, "velocity": 93}, {"time": 2925, "pitch": 63, "duration": 4, "velocity": 85}, {"time": 2928, "pitch": 46, "duration": 17, "velocity": 74}, {"time": 2931, "pitch": 53, "duration": 10, "velocity": 79}, {"time": 2934, "pitch": 58, "duration": 7, "velocity": 97}, {"time": 2937, "pitch": 65, "duration": 4, "velocity": 89}, {"time": 2940, "pitch": 70, "duration": 7, "velocity": 93}, {"time": 2943, "pitch": 53, "duration": 2, "velocity": 71}, {"time": 2946, "pitch": 65, "duration": 1, "velocity": 31}, {"time": 2946, "pitch": 74, "duration": 6, "velocity": 112}, {"time": 2949, "pitch": 70, "duration": 3, "velocity": 81}, {"time": 2952, "pitch": 43, "duration": 17, "velocity": 90}, {"time": 2955, "pitch": 55, "duration": 10, "velocity": 66}, {"time": 2958, "pitch": 58, "duration": 8, "velocity": 76}, {"time": 2961, "pitch": 62, "duration": 4, "velocity": 96}, {"time": 2964, "pitch": 67, "duration": 12, "velocity": 117}, {"time": 2967, "pitch": 55, "duration": 3, "velocity": 96}, {"time": 2970, "pitch": 62, "duration": 5, "velocity": 117}, {"time": 2973, "pitch": 58, "duration": 3, "velocity": 93}, {"time": 2976, "pitch": 48, "duration": 20, "velocity": 81}, {"time": 2979, "pitch": 55, "duration": 10, "velocity": 83}, {"time": 2982, "pitch": 60, "duration": 7, "velocity": 79}, {"time": 2985, "pitch": 63, "duration": 3, "velocity": 95}, {"time": 2988, "pitch": 67, "duration": 12, "velocity": 117}, {"time": 2991, "pitch": 55, "duration": 4, "velocity": 95}, {"time": 2994, "pitch": 63, "duration": 6, "velocity": 100}, {"time": 2997, "pitch": 60, "duration": 3, "velocity": 93}, {"time": 3000, "pitch": 44, "duration": 22, "velocity": 92}, {"time": 3003, "pitch": 51, "duration": 21, "velocity": 88}, {"time": 3006, "pitch": 56, "duration": 7, "velocity": 93}, {"time": 3009, "pitch": 60, "duration": 4, "velocity": 74}, {"time": 3012, "pitch": 63, "duration": 7, "velocity": 96}, {"time": 3015, "pitch": 56, "duration": 3, "velocity": 81}, {"time": 3018, "pitch": 60, "duration": 4, "velocity": 92}, {"time": 3021, "pitch": 63, "duration": 3, "velocity": 97}, {"time": 3024, "pitch": 46, "duration": 18, "velocity": 72}, {"time": 3027, "pitch": 53, "duration": 10, "velocity": 72}, {"time": 3030, "pitch": 58, "duration": 4, "velocity": 92}, {"time": 3033, "pitch": 62, "duration": 3, "velocity": 93}, {"time": 3036, "pitch": 65, "duration": 12, "velocity": 90}, {"time": 3039, "pitch": 53, "duration": 2, "velocity": 55}, {"time": 3042, "pitch": 62, "duration": 6, "velocity": 99}, {"time": 3045, "pitch": 58, "duration": 4, "velocity": 83}, {"time": 3048, "pitch": 39, "duration": 21, "velocity": 73}, {"time": 3051, "pitch": 46, "duration": 41, "velocity": 52}, {"time": 3054, "pitch": 51, "duration": 7, "velocity": 82}, {"time": 3057, "pitch": 58, "duration": 5, "velocity": 92}, {"time": 3060, "pitch": 67, "duration": 33, "velocity": 99}, {"time": 3063, "pitch": 51, "duration": 29, "velocity": 75}, {"time": 3066, "pitch": 65, "duration": 27, "velocity": 73}, {"time": 3069, "pitch": 58, "duration": 24, "velocity": 55}, {"time": 3072, "pitch": 39, "duration": 22, "velocity": 47}, {"time": 3072, "pitch": 63, "duration": 21, "velocity": 76}, {"time": 3096, "pitch": 44, "duration": 18, "velocity": 85}, {"time": 3102, "pitch": 51, "duration": 18, "velocity": 52}, {"time": 3108, "pitch": 56, "duration": 12, "velocity": 59}, {"time": 3108, "pitch": 63, "duration": 13, "velocity": 83}, {"time": 3114, "pitch": 60, "duration": 8, "velocity": 60}, {"time": 3120, "pitch": 46, "duration": 16, "velocity": 72}, {"time": 3126, "pitch": 53, "duration": 10, "velocity": 58}, {"time": 3132, "pitch": 62, "duration": 13, "velocity": 76}, {"time": 3132, "pitch": 65, "duration": 13, "velocity": 70}, {"time": 3138, "pitch": 58, "duration": 7, "velocity": 49}, {"time": 3144, "pitch": 48, "duration": 23, "velocity": 69}, {"time": 3147, "pitch": 55, "duration": 22, "velocity": 47}, {"time": 3150, "pitch": 60, "duration": 8, "velocity": 74}, {"time": 3153, "pitch": 63, "duration": 4, "velocity": 60}, {"time": 3156, "pitch": 67, "duration": 22, "velocity": 82}, {"time": 3162, "pitch": 62, "duration": 14, "velocity": 59}, {"time": 3165, "pitch": 63, "duration": 11, "velocity": 63}, {"time": 3168, "pitch": 48, "duration": 18, "velocity": 58}, {"time": 3174, "pitch": 55, "duration": 8, "velocity": 48}, {"time": 3180, "pitch": 67, "duration": 12, "velocity": 95}, {"time": 3186, "pitch": 60, "duration": 7, "velocity": 56}, {"time": 3192, "pitch": 44, "duration": 23, "velocity": 89}, {"time": 3195, "pitch": 51, "duration": 21, "velocity": 49}, {"time": 3198, "pitch": 56, "duration": 8, "velocity": 82}, {"time": 3201, "pitch": 68, "duration": 17, "velocity": 99}, {"time": 3204, "pitch": 60, "duration": 7, "velocity": 40}, {"time": 3207, "pitch": 56, "duration": 4, "velocity": 43}, {"time": 3210, "pitch": 63, "duration": 7, "velocity": 58}, {"time": 3213, "pitch": 60, "duration": 4, "velocity": 53}, {"time": 3216, "pitch": 46, "duration": 17, "velocity": 78}, {"time": 3222, "pitch": 53, "duration": 9, "velocity": 57}, {"time": 3228, "pitch": 62, "duration": 8, "velocity": 90}, {"time": 3228, "pitch": 65, "duration": 8, "velocity": 74}, {"time": 3234, "pitch": 58, "duration": 5, "velocity": 72}, {"time": 3240, "pitch": 48, "duration": 57, "velocity": 89}, {"time": 3240, "pitch": 60, "duration": 60, "velocity": 53}, {"time": 3242, "pitch": 63, "duration": 60, "velocity": 75}, {"time": 3243, "pitch": 36, "duration": 57, "velocity": 69}, {"time": 3243, "pitch": 43, "duration": 57, "velocity": 96}, {"time": 3243, "pitch": 67, "duration": 57, "velocity": 102}], "annotations": [{"time": 26, "annotation": {"number": 64, "value": 127}, "group": "control_change"}, {"time": 44, "annotation": {"number": 64, "value": 0}, "group": "control_change"}, {"time": 49, "annotation": {"number": 64, "value": 127}, "group": "control_change"}, {"time": 70, "annotation": {"number": 64, "value": 0}, "group": "control_change"}, {"time": 74, "annotation": {"number": 64, "value": 127}, "group": "control_change"}, {"time": 117, "annotation": {"number": 64, "value": 0}, "group": "control_change"}, {"time": 121, "annotation": {"number": 64, "value": 127}, "group": "control_change"}, {"time": 142, "annotation": {"number": 64, "value": 0}, "group": "control_change"}, {"time": 147, "annotation": {"number": 64, "value": 127}, "group": "control_change"}, {"time": 164, "annotation": {"number": 64, "value": 0}, "group": "control_change"}, {"time": 169, "annotation": {"number": 64, "value": 127}, "group": "control_change"}, {"time": 212, "annotation": {"number": 64, "value": 0}, "group": "control_change"}, {"time": 217, "annotation": {"number": 64, "value": 127}, "group": "control_change"}, {"time": 262, "annotation": {"number": 64, "value": 0}, "group": "control_change"}, {"time": 266, "annotation": {"number": 64, "value": 127}, "group": "control_change"}, {"time": 290, "annotation": {"number": 64, "value": 0}, "group": "control_change"}, {"time": 296, "annotation": {"number": 64, "value": 127}, "group": "control_change"}, {"time": 308, "annotation": {"number": 64, "value": 0}, "group": "control_change"}, {"time": 314, "annotation": {"number": 64, "value": 127}, "group": "control_change"}, {"time": 332, "annotation": {"number": 64, "value": 0}, "group": "control_change"}, {"time": 337, "annotation": {"number": 64, "value": 127}, "group": "control_change"}, {"time": 356, "annotation": {"number": 64, "value": 0}, "group": "control_change"}, {"time": 361, "annotation": {"number": 64, "value": 127}, "group": "control_change"}, {"time": 383, "annotation": {"number": 64, "value": 0}, "group": "control_change"}, {"time": 385, "annotation": {"number": 64, "value": 127}, "group": "control_change"}, {"time": 404, "annotation": {"number": 64, "value": 0}, "group": "control_change"}, {"time": 410, "annotation": {"number": 64, "value": 127}, "group": "control_change"}, {"time": 430, "annotation": {"number": 64, "value": 0}, "group": "control_change"}, {"time": 434, "annotation": {"number": 64, "value": 127}, "group": "control_change"}, {"time": 453, "annotation": {"number": 64, "value": 0}, "group": "control_change"}, {"time": 458, "annotation": {"number": 64, "value": 127}, "group": "control_change"}, {"time": 478, "annotation": {"number": 64, "value": 0}, "group": "control_change"}, {"time": 480, "annotation": {"number": 64, "value": 127}, "group": "control_change"}, {"time": 501, "annotation": {"number": 64, "value": 0}, "group": "control_change"}, {"time": 505, "annotation": {"number": 64, "value": 127}, "group": "control_change"}, {"time": 526, "annotation": {"number": 64, "value": 0}, "group": "control_change"}, {"time": 529, "annotation": {"number": 64, "value": 127}, "group": "control_change"}, {"time": 551, "annotation": {"number": 64, "value": 0}, "group": "control_change"}, {"time": 554, "annotation": {"number": 64, "value": 127}, "group": "control_change"}, {"time": 573, "annotation": {"number": 64, "value": 0}, "group": "control_change"}, {"time": 578, "annotation": {"number": 64, "value": 127}, "group": "control_change"}, {"time": 588, "annotation": {"number": 64, "value": 0}, "group": "control_change"}, {"time": 593, "annotation": {"number": 64, "value": 127}, "group": "control_change"}, {"time": 620, "annotation": {"number": 64, "value": 0}, "group": "control_change"}, {"time": 626, "annotation": {"number": 64, "value": 127}, "group": "control_change"}, {"time": 642, "annotation": {"number": 64, "value": 0}, "group": "control_change"}, {"time": 649, "annotation": {"number": 64, "value": 127}, "group": "control_change"}, {"time": 669, "annotation": {"number": 64, "value": 0}, "group": "control_change"}, {"time": 684, "annotation": {"number": 64, "value": 127}, "group": "control_change"}, {"time": 694, "annotation": {"number": 64, "value": 0}, "group": "control_change"}, {"time": 698, "annotation": {"number": 64, "value": 127}, "group": "control_change"}, {"time": 706, "annotation": {"number": 64, "value": 0}, "group": "control_change"}, {"time": 721, "annotation": {"number": 64, "value": 127}, "group": "control_change"}, {"time": 740, "annotation": {"number": 64, "value": 0}, "group": "control_change"}, {"time": 745, "annotation": {"number": 64, "value": 127}, "group": "control_change"}, {"time": 766, "annotation": {"number": 64, "value": 0}, "group": "control_change"}, {"time": 769, "annotation": {"number": 64, "value": 127}, "group": "control_change"}, {"time": 789, "annotation": {"number": 64, "value": 0}, "group": "control_change"}, {"time": 793, "annotation": {"number": 64, "value": 127}, "group": "control_change"}, {"time": 814, "annotation": {"number": 64, "value": 0}, "group": "control_change"}, {"time": 817, "annotation": {"number": 64, "value": 127}, "group": "control_change"}, {"time": 838, "annotation": {"number": 64, "value": 0}, "group": "control_change"}, {"time": 841, "annotation": {"number": 64, "value": 127}, "group": "control_change"}, {"time": 849, "annotation": {"number": 64, "value": 0}, "group": "control_change"}, {"time": 850, "annotation": {"number": 64, "value": 127}, "group": "control_change"}, {"time": 862, "annotation": {"number": 64, "value": 0}, "group": "control_change"}, {"time": 865, "annotation": {"number": 64, "value": 127}, "group": "control_change"}, {"time": 872, "annotation": {"number": 64, "value": 0}, "group": "control_change"}, {"time": 882, "annotation": {"number": 64, "value": 127}, "group": "control_change"}, {"time": 885, "annotation": {"number": 64, "value": 0}, "group": "control_change"}, {"time": 889, "annotation": {"number": 64, "value": 127}, "group": "control_change"}, {"time": 910, "annotation": {"number": 64, "value": 0}, "group": "control_change"}, {"time": 913, "annotation": {"number": 64, "value": 127}, "group": "control_change"}, {"time": 933, "annotation": {"number": 64, "value": 0}, "group": "control_change"}, {"time": 937, "annotation": {"number": 64, "value": 127}, "group": "control_change"}, {"time": 958, "annotation": {"number": 64, "value": 0}, "group": "control_change"}, {"time": 962, "annotation": {"number": 64, "value": 127}, "group": "control_change"}, {"time": 982, "annotation": {"number": 64, "value": 0}, "group": "control_change"}, {"time": 985, "annotation": {"number": 64, "value": 127}, "group": "control_change"}, {"time": 1006, "annotation": {"number": 64, "value": 0}, "group": "control_change"}, {"time": 1009, "annotation": {"number": 64, "value": 127}, "group": "control_change"}, {"time": 1029, "annotation": {"number": 64, "value": 0}, "group": "control_change"}, {"time": 1033, "annotation": {"number": 64, "value": 127}, "group": "control_change"}, {"time": 1053, "annotation": {"number": 64, "value": 0}, "group": "control_change"}, {"time": 1057, "annotation": {"number": 64, "value": 127}, "group": "control_change"}, {"time": 1065, "annotation": {"number": 64, "value": 0}, "group": "control_change"}, {"time": 1070, "annotation": {"number": 64, "value": 127}, "group": "control_change"}, {"time": 1077, "annotation": {"number": 64, "value": 0}, "group": "control_change"}, {"time": 1082, "annotation": {"number": 64, "value": 127}, "group": "control_change"}, {"time": 1102, "annotation": {"number": 64, "value": 0}, "group": "control_change"}, {"time": 1105, "annotation": {"number": 64, "value": 127}, "group": "control_change"}, {"time": 1126, "annotation": {"number": 64, "value": 0}, "group": "control_change"}, {"time": 1130, "annotation": {"number": 64, "value": 127}, "group": "control_change"}, {"time": 1141, "annotation": {"number": 64, "value": 0}, "group": "control_change"}, {"time": 1154, "annotation": {"number": 64, "value": 127}, "group": "control_change"}, {"time": 1174, "annotation": {"number": 64, "value": 0}, "group": "control_change"}, {"time": 1177, "annotation": {"number": 64, "value": 127}, "group": "control_change"}, {"time": 1198, "annotation": {"number": 64, "value": 0}, "group": "control_change"}, {"time": 1202, "annotation": {"number": 64, "value": 127}, "group": "control_change"}, {"time": 1222, "annotation": {"number": 64, "value": 0}, "group": "control_change"}, {"time": 1225, "annotation": {"number": 64, "value": 127}, "group": "control_change"}, {"time": 1246, "annotation": {"number": 64, "value": 0}, "group": "control_change"}, {"time": 1250, "annotation": {"number": 64, "value": 127}, "group": "control_change"}, {"time": 1270, "annotation": {"number": 64, "value": 0}, "group": "control_change"}, {"time": 1272, "annotation": {"number": 64, "value": 127}, "group": "control_change"}, {"time": 1294, "annotation": {"number": 64, "value": 0}, "group": "control_change"}, {"time": 1297, "annotation": {"number": 64, "value": 127}, "group": "control_change"}, {"time": 1318, "annotation": {"number": 64, "value": 0}, "group": "control_change"}, {"time": 1321, "annotation": {"number": 64, "value": 127}, "group": "control_change"}, {"time": 1342, "annotation": {"number": 64, "value": 0}, "group": "control_change"}, {"time": 1345, "annotation": {"number": 64, "value": 127}, "group": "control_change"}, {"time": 1366, "annotation": {"number": 64, "value": 0}, "group": "control_change"}, {"time": 1369, "annotation": {"number": 64, "value": 127}, "group": "control_change"}, {"time": 1390, "annotation": {"number": 64, "value": 0}, "group": "control_change"}, {"time": 1393, "annotation": {"number": 64, "value": 127}, "group": "control_change"}, {"time": 1412, "annotation": {"number": 64, "value": 0}, "group": "control_change"}, {"time": 1417, "annotation": {"number": 64, "value": 127}, "group": "control_change"}, {"time": 1439, "annotation": {"number": 64, "value": 0}, "group": "control_change"}, {"time": 1466, "annotation": {"number": 64, "value": 127}, "group": "control_change"}, {"time": 1511, "annotation": {"number": 64, "value": 0}, "group": "control_change"}, {"time": 1514, "annotation": {"number": 64, "value": 127}, "group": "control_change"}, {"time": 1533, "annotation": {"number": 64, "value": 0}, "group": "control_change"}, {"time": 1548, "annotation": {"number": 64, "value": 127}, "group": "control_change"}, {"time": 1558, "annotation": {"number": 64, "value": 0}, "group": "control_change"}, {"time": 1561, "annotation": {"number": 64, "value": 127}, "group": "control_change"}, {"time": 1604, "annotation": {"number": 64, "value": 0}, "group": "control_change"}, {"time": 1609, "annotation": {"number": 64, "value": 127}, "group": "control_change"}, {"time": 1631, "annotation": {"number": 64, "value": 0}, "group": "control_change"}, {"time": 1633, "annotation": {"number": 64, "value": 127}, "group": "control_change"}, {"time": 1652, "annotation": {"number": 64, "value": 0}, "group": "control_change"}, {"time": 1658, "annotation": {"number": 64, "value": 127}, "group": "control_change"}, {"time": 1678, "annotation": {"number": 64, "value": 0}, "group": "control_change"}, {"time": 1682, "annotation": {"number": 64, "value": 127}, "group": "control_change"}, {"time": 1701, "annotation": {"number": 64, "value": 0}, "group": "control_change"}, {"time": 1706, "annotation": {"number": 64, "value": 127}, "group": "control_change"}, {"time": 1726, "annotation": {"number": 64, "value": 0}, "group": "control_change"}, {"time": 1728, "annotation": {"number": 64, "value": 127}, "group": "control_change"}, {"time": 1749, "annotation": {"number": 64, "value": 0}, "group": "control_change"}, {"time": 1753, "annotation": {"number": 64, "value": 127}, "group": "control_change"}, {"time": 1774, "annotation": {"number": 64, "value": 0}, "group": "control_change"}, {"time": 1777, "annotation": {"number": 64, "value": 127}, "group": "control_change"}, {"time": 1799, "annotation": {"number": 64, "value": 0}, "group": "control_change"}, {"time": 1802, "annotation": {"number": 64, "value": 127}, "group": "control_change"}, {"time": 1821, "annotation": {"number": 64, "value": 0}, "group": "control_change"}, {"time": 1826, "annotation": {"number": 64, "value": 127}, "group": "control_change"}, {"time": 1836, "annotation": {"number": 64, "value": 0}, "group": "control_change"}, {"time": 1841, "annotation": {"number": 64, "value": 127}, "group": "control_change"}, {"time": 1868, "annotation": {"number": 64, "value": 0}, "group": "control_change"}, {"time": 1874, "annotation": {"number": 64, "value": 127}, "group": "control_change"}, {"time": 1890, "annotation": {"number": 64, "value": 0}, "group": "control_change"}, {"time": 1897, "annotation": {"number": 64, "value": 127}, "group": "control_change"}, {"time": 1917, "annotation": {"number": 64, "value": 0}, "group": "control_change"}, {"time": 1932, "annotation": {"number": 64, "value": 127}, "group": "control_change"}, {"time": 1942, "annotation": {"number": 64, "value": 0}, "group": "control_change"}, {"time": 1946, "annotation": {"number": 64, "value": 127}, "group": "control_change"}, {"time": 1954, "annotation": {"number": 64, "value": 0}, "group": "control_change"}, {"time": 1969, "annotation": {"number": 64, "value": 127}, "group": "control_change"}, {"time": 1988, "annotation": {"number": 64, "value": 0}, "group": "control_change"}, {"time": 1993, "annotation": {"number": 64, "value": 127}, "group": "control_change"}, {"time": 2014, "annotation": {"number": 64, "value": 0}, "group": "control_change"}, {"time": 2017, "annotation": {"number": 64, "value": 127}, "group": "control_change"}, {"time": 2037, "annotation": {"number": 64, "value": 0}, "group": "control_change"}, {"time": 2041, "annotation": {"number": 64, "value": 127}, "group": "control_change"}, {"time": 2062, "annotation": {"number": 64, "value": 0}, "group": "control_change"}, {"time": 2065, "annotation": {"number": 64, "value": 127}, "group": "control_change"}, {"time": 2086, "annotation": {"number": 64, "value": 0}, "group": "control_change"}, {"time": 2089, "annotation": {"number": 64, "value": 127}, "group": "control_change"}, {"time": 2097, "annotation": {"number": 64, "value": 0}, "group": "control_change"}, {"time": 2098, "annotation": {"number": 64, "value": 127}, "group": "control_change"}, {"time": 2110, "annotation": {"number": 64, "value": 0}, "group": "control_change"}, {"time": 2113, "annotation": {"number": 64, "value": 127}, "group": "control_change"}, {"time": 2120, "annotation": {"number": 64, "value": 0}, "group": "control_change"}, {"time": 2130, "annotation": {"number": 64, "value": 127}, "group": "control_change"}, {"time": 2133, "annotation": {"number": 64, "value": 0}, "group": "control_change"}, {"time": 2137, "annotation": {"number": 64, "value": 127}, "group": "control_change"}, {"time": 2158, "annotation": {"number": 64, "value": 0}, "group": "control_change"}, {"time": 2161, "annotation": {"number": 64, "value": 127}, "group": "control_change"}, {"time": 2181, "annotation": {"number": 64, "value": 0}, "group": "control_change"}, {"time": 2185, "annotation": {"number": 64, "value": 127}, "group": "control_change"}, {"time": 2206, "annotation": {"number": 64, "value": 0}, "group": "control_change"}, {"time": 2210, "annotation": {"number": 64, "value": 127}, "group": "control_change"}, {"time": 2230, "annotation": {"number": 64, "value": 0}, "group": "control_change"}, {"time": 2233, "annotation": {"number": 64, "value": 127}, "group": "control_change"}, {"time": 2254, "annotation": {"number": 64, "value": 0}, "group": "control_change"}, {"time": 2257, "annotation": {"number": 64, "value": 127}, "group": "control_change"}, {"time": 2277, "annotation": {"number": 64, "value": 0}, "group": "control_change"}, {"time": 2281, "annotation": {"number": 64, "value": 127}, "group": "control_change"}, {"time": 2301, "annotation": {"number": 64, "value": 0}, "group": "control_change"}, {"time": 2305, "annotation": {"number": 64, "value": 127}, "group": "control_change"}, {"time": 2313, "annotation": {"number": 64, "value": 0}, "group": "control_change"}, {"time": 2318, "annotation": {"number": 64, "value": 127}, "group": "control_change"}, {"time": 2325, "annotation": {"number": 64, "value": 0}, "group": "control_change"}, {"time": 2330, "annotation": {"number": 64, "value": 127}, "group": "control_change"}, {"time": 2350, "annotation": {"number": 64, "value": 0}, "group": "control_change"}, {"time": 2353, "annotation": {"number": 64, "value": 127}, "group": "control_change"}, {"time": 2374, "annotation": {"number": 64, "value": 0}, "group": "control_change"}, {"time": 2378, "annotation": {"number": 64, "value": 127}, "group": "control_change"}, {"time": 2389, "annotation": {"number": 64, "value": 0}, "group": "control_change"}, {"time": 2402, "annotation": {"number": 64, "value": 127}, "group": "control_change"}, {"time": 2422, "annotation": {"number": 64, "value": 0}, "group": "control_change"}, {"time": 2425, "annotation": {"number": 64, "value": 127}, "group": "control_change"}, {"time": 2446, "annotation": {"number": 64, "value": 0}, "group": "control_change"}, {"time": 2450, "annotation": {"number": 64, "value": 127}, "group": "control_change"}, {"time": 2470, "annotation": {"number": 64, "value": 0}, "group": "control_change"}, {"time": 2473, "annotation": {"number": 64, "value": 127}, "group": "control_change"}, {"time": 2494, "annotation": {"number": 64, "value": 0}, "group": "control_change"}, {"time": 2498, "annotation": {"number": 64, "value": 127}, "group": "control_change"}, {"time": 2518, "annotation": {"number": 64, "value": 0}, "group": "control_change"}, {"time": 2520, "annotation": {"number": 64, "value": 127}, "group": "control_change"}, {"time": 2542, "annotation": {"number": 64, "value": 0}, "group": "control_change"}, {"time": 2545, "annotation": {"number": 64, "value": 127}, "group": "control_change"}, {"time": 2566, "annotation": {"number": 64, "value": 0}, "group": "control_change"}, {"time": 2569, "annotation": {"number": 64, "value": 127}, "group": "control_change"}, {"time": 2590, "annotation": {"number": 64, "value": 0}, "group": "control_change"}, {"time": 2593, "annotation": {"number": 64, "value": 127}, "group": "control_change"}, {"time": 2614, "annotation": {"number": 64, "value": 0}, "group": "control_change"}, {"time": 2617, "annotation": {"number": 64, "value": 127}, "group": "control_change"}, {"time": 2638, "annotation": {"number": 64, "value": 0}, "group": "control_change"}, {"time": 2641, "annotation": {"number": 64, "value": 127}, "group": "control_change"}, {"time": 2660, "annotation": {"number": 64, "value": 0}, "group": "control_change"}, {"time": 2665, "annotation": {"number": 64, "value": 127}, "group": "control_change"}, {"time": 2692, "annotation": {"number": 64, "value": 0}, "group": "control_change"}, {"time": 2713, "annotation": {"number": 64, "value": 127}, "group": "control_change"}, {"time": 2735, "annotation": {"number": 64, "value": 0}, "group": "control_change"}, {"time": 2736, "annotation": {"number": 64, "value": 127}, "group": "control_change"}, {"time": 2758, "annotation": {"number": 64, "value": 0}, "group": "control_change"}, {"time": 2761, "annotation": {"number": 64, "value": 127}, "group": "control_change"}, {"time": 2782, "annotation": {"number": 64, "value": 0}, "group": "control_change"}, {"time": 2786, "annotation": {"number": 64, "value": 127}, "group": "control_change"}, {"time": 2806, "annotation": {"number": 64, "value": 0}, "group": "control_change"}, {"time": 2820, "annotation": {"number": 64, "value": 127}, "group": "control_change"}, {"time": 2831, "annotation": {"number": 64, "value": 0}, "group": "control_change"}, {"time": 2833, "annotation": {"number": 64, "value": 127}, "group": "control_change"}, {"time": 2854, "annotation": {"number": 64, "value": 0}, "group": "control_change"}, {"time": 2857, "annotation": {"number": 64, "value": 127}, "group": "control_change"}, {"time": 2878, "annotation": {"number": 64, "value": 0}, "group": "control_change"}, {"time": 2881, "annotation": {"number": 64, "value": 127}, "group": "control_change"}, {"time": 2902, "annotation": {"number": 64, "value": 0}, "group": "control_change"}, {"time": 2905, "annotation": {"number": 64, "value": 127}, "group": "control_change"}, {"time": 2926, "annotation": {"number": 64, "value": 0}, "group": "control_change"}, {"time": 2929, "annotation": {"number": 64, "value": 127}, "group": "control_change"}, {"time": 2950, "annotation": {"number": 64, "value": 0}, "group": "control_change"}, {"time": 2953, "annotation": {"number": 64, "value": 127}, "group": "control_change"}, {"time": 2974, "annotation": {"number": 64, "value": 0}, "group": "control_change"}, {"time": 2977, "annotation": {"number": 64, "value": 127}, "group": "control_change"}, {"time": 2998, "annotation": {"number": 64, "value": 0}, "group": "control_change"}, {"time": 3001, "annotation": {"number": 64, "value": 127}, "group": "control_change"}, {"time": 3022, "annotation": {"number": 64, "value": 0}, "group": "control_change"}, {"time": 3025, "annotation": {"number": 64, "value": 127}, "group": "control_change"}, {"time": 3046, "annotation": {"number": 64, "value": 0}, "group": "control_change"}, {"time": 3049, "annotation": {"number": 64, "value": 127}, "group": "control_change"}, {"time": 3071, "annotation": {"number": 64, "value": 0}, "group": "control_change"}, {"time": 3096, "annotation": {"number": 64, "value": 127}, "group": "control_change"}, {"time": 3116, "annotation": {"number": 64, "value": 0}, "group": "control_change"}, {"time": 3121, "annotation": {"number": 64, "value": 127}, "group": "control_change"}, {"time": 3139, "annotation": {"number": 64, "value": 0}, "group": "control_change"}, {"time": 3146, "annotation": {"number": 64, "value": 127}, "group": "control_change"}, {"time": 3166, "annotation": {"number": 64, "value": 0}, "group": "control_change"}, {"time": 3170, "annotation": {"number": 64, "value": 127}, "group": "control_change"}, {"time": 3188, "annotation": {"number": 64, "value": 0}, "group": "control_change"}, {"time": 3193, "annotation": {"number": 64, "value": 127}, "group": "control_change"}, {"time": 3214, "annotation": {"number": 64, "value": 0}, "group": "control_change"}, {"time": 3217, "annotation": {"number": 64, "value": 127}, "group": "control_change"}, {"time": 3240, "annotation": {"number": 64, "value": 0}, "group": "control_change"}, {"time": 3303, "annotation": {"number": 64, "value": 127}, "group": "control_change"}, {"time": 3310, "annotation": {"number": 64, "value": 0}, "group": "control_change"}, {"time": 3311, "annotation": {"number": 64, "value": 127}, "group": "control_change"}, {"time": 3313, "annotation": {"number": 64, "value": 0}, "group": "control_change"}]}]}