{"metadata": {"schema_version": "0.2", "title": "None", "source_filename": "721.mid", "source_format": "midi"}, "resolution": 12, "tempos": [{"time": 0, "qpm": 74.000074000074}], "time_signatures": [{"time": 0, "numerator": 1, "denominator": 4}], "tracks": [{"program": 4, "is_drum": false, "name": "MELODY", "notes": [{"time": 208, "pitch": 62, "duration": 3, "velocity": 99}, {"time": 214, "pitch": 62, "duration": 3, "velocity": 97}, {"time": 220, "pitch": 61, "duration": 5, "velocity": 95}, {"time": 223, "pitch": 62, "duration": 5, "velocity": 92}, {"time": 232, "pitch": 61, "duration": 4, "velocity": 102}, {"time": 238, "pitch": 59, "duration": 3, "velocity": 90}, {"time": 244, "pitch": 57, "duration": 3, "velocity": 92}, {"time": 250, "pitch": 57, "duration": 4, "velocity": 93}, {"time": 256, "pitch": 57, "duration": 5, "velocity": 96}, {"time": 262, "pitch": 59, "duration": 4, "velocity": 93}, {"time": 268, "pitch": 61, "duration": 17, "velocity": 112}, {"time": 304, "pitch": 62, "duration": 4, "velocity": 90}, {"time": 310, "pitch": 62, "duration": 3, "velocity": 90}, {"time": 316, "pitch": 61, "duration": 1, "velocity": 89}, {"time": 319, "pitch": 62, "duration": 5, "velocity": 90}, {"time": 328, "pitch": 61, "duration": 4, "velocity": 112}, {"time": 334, "pitch": 59, "duration": 3, "velocity": 107}, {"time": 340, "pitch": 57, "duration": 1, "velocity": 89}, {"time": 343, "pitch": 61, "duration": 25, "velocity": 122}, {"time": 394, "pitch": 66, "duration": 14, "velocity": 112}, {"time": 412, "pitch": 61, "duration": 4, "velocity": 107}, {"time": 418, "pitch": 61, "duration": 5, "velocity": 112}, {"time": 424, "pitch": 57, "duration": 4, "velocity": 100}, {"time": 430, "pitch": 57, "duration": 4, "velocity": 90}, {"time": 436, "pitch": 52, "duration": 4, "velocity": 97}, {"time": 442, "pitch": 64, "duration": 3, "velocity": 99}, {"time": 448, "pitch": 64, "duration": 3, "velocity": 100}, {"time": 454, "pitch": 64, "duration": 3, "velocity": 99}, {"time": 460, "pitch": 62, "duration": 1, "velocity": 96}, {"time": 463, "pitch": 61, "duration": 14, "velocity": 96}, {"time": 490, "pitch": 59, "duration": 4, "velocity": 102}, {"time": 496, "pitch": 59, "duration": 2, "velocity": 95}, {"time": 502, "pitch": 59, "duration": 2, "velocity": 93}, {"time": 508, "pitch": 59, "duration": 2, "velocity": 96}, {"time": 514, "pitch": 59, "duration": 3, "velocity": 97}, {"time": 520, "pitch": 57, "duration": 4, "velocity": 97}, {"time": 526, "pitch": 61, "duration": 4, "velocity": 127}, {"time": 532, "pitch": 59, "duration": 18, "velocity": 90}, {"time": 592, "pitch": 62, "duration": 3, "velocity": 95}, {"time": 598, "pitch": 62, "duration": 2, "velocity": 97}, {"time": 604, "pitch": 61, "duration": 2, "velocity": 102}, {"time": 607, "pitch": 62, "duration": 6, "velocity": 96}, {"time": 616, "pitch": 61, "duration": 3, "velocity": 112}, {"time": 622, "pitch": 59, "duration": 3, "velocity": 107}, {"time": 628, "pitch": 57, "duration": 3, "velocity": 93}, {"time": 634, "pitch": 57, "duration": 4, "velocity": 107}, {"time": 640, "pitch": 57, "duration": 4, "velocity": 107}, {"time": 646, "pitch": 59, "duration": 4, "velocity": 97}, {"time": 652, "pitch": 61, "duration": 24, "velocity": 107}, {"time": 688, "pitch": 62, "duration": 4, "velocity": 100}, {"time": 694, "pitch": 62, "duration": 3, "velocity": 95}, {"time": 700, "pitch": 61, "duration": 1, "velocity": 97}, {"time": 703, "pitch": 62, "duration": 6, "velocity": 99}, {"time": 712, "pitch": 61, "duration": 6, "velocity": 112}, {"time": 718, "pitch": 59, "duration": 6, "velocity": 99}, {"time": 724, "pitch": 57, "duration": 3, "velocity": 100}, {"time": 727, "pitch": 61, "duration": 32, "velocity": 112}, {"time": 778, "pitch": 66, "duration": 14, "velocity": 107}, {"time": 796, "pitch": 61, "duration": 4, "velocity": 112}, {"time": 802, "pitch": 61, "duration": 4, "velocity": 112}, {"time": 808, "pitch": 57, "duration": 4, "velocity": 100}, {"time": 814, "pitch": 57, "duration": 4, "velocity": 89}, {"time": 820, "pitch": 52, "duration": 4, "velocity": 96}, {"time": 826, "pitch": 64, "duration": 7, "velocity": 97}, {"time": 832, "pitch": 64, "duration": 1, "velocity": 99}, {"time": 838, "pitch": 64, "duration": 4, "velocity": 112}, {"time": 844, "pitch": 62, "duration": 2, "velocity": 96}, {"time": 847, "pitch": 61, "duration": 8, "velocity": 95}, {"time": 874, "pitch": 59, "duration": 3, "velocity": 107}, {"time": 880, "pitch": 59, "duration": 2, "velocity": 96}, {"time": 886, "pitch": 59, "duration": 2, "velocity": 99}, {"time": 892, "pitch": 59, "duration": 3, "velocity": 107}, {"time": 898, "pitch": 59, "duration": 3, "velocity": 99}, {"time": 904, "pitch": 57, "duration": 3, "velocity": 100}, {"time": 910, "pitch": 64, "duration": 5, "velocity": 102}, {"time": 916, "pitch": 64, "duration": 27, "velocity": 112}, {"time": 952, "pitch": 61, "duration": 4, "velocity": 112}, {"time": 958, "pitch": 69, "duration": 4, "velocity": 97}, {"time": 964, "pitch": 68, "duration": 4, "velocity": 117}, {"time": 970, "pitch": 66, "duration": 4, "velocity": 102}, {"time": 982, "pitch": 62, "duration": 4, "velocity": 112}, {"time": 988, "pitch": 61, "duration": 1, "velocity": 99}, {"time": 991, "pitch": 61, "duration": 4, "velocity": 96}, {"time": 997, "pitch": 59, "duration": 3, "velocity": 95}, {"time": 1006, "pitch": 66, "duration": 3, "velocity": 127}, {"time": 1012, "pitch": 66, "duration": 1, "velocity": 102}, {"time": 1015, "pitch": 68, "duration": 3, "velocity": 112}, {"time": 1021, "pitch": 64, "duration": 6, "velocity": 96}, {"time": 1027, "pitch": 64, "duration": 1, "velocity": 93}, {"time": 1030, "pitch": 64, "duration": 2, "velocity": 107}, {"time": 1036, "pitch": 64, "duration": 1, "velocity": 97}, {"time": 1039, "pitch": 59, "duration": 3, "velocity": 92}, {"time": 1045, "pitch": 61, "duration": 7, "velocity": 102}, {"time": 1057, "pitch": 54, "duration": 1, "velocity": 82}, {"time": 1060, "pitch": 59, "duration": 1, "velocity": 95}, {"time": 1063, "pitch": 61, "duration": 1, "velocity": 112}, {"time": 1066, "pitch": 62, "duration": 3, "velocity": 102}, {"time": 1072, "pitch": 62, "duration": 3, "velocity": 107}, {"time": 1078, "pitch": 62, "duration": 3, "velocity": 100}, {"time": 1084, "pitch": 61, "duration": 1, "velocity": 96}, {"time": 1087, "pitch": 61, "duration": 4, "velocity": 97}, {"time": 1093, "pitch": 59, "duration": 3, "velocity": 100}, {"time": 1099, "pitch": 59, "duration": 3, "velocity": 99}, {"time": 1105, "pitch": 56, "duration": 5, "velocity": 100}, {"time": 1114, "pitch": 57, "duration": 4, "velocity": 95}, {"time": 1120, "pitch": 56, "duration": 2, "velocity": 95}, {"time": 1123, "pitch": 57, "duration": 2, "velocity": 99}, {"time": 1129, "pitch": 59, "duration": 3, "velocity": 86}, {"time": 1135, "pitch": 61, "duration": 8, "velocity": 112}, {"time": 1144, "pitch": 57, "duration": 3, "velocity": 100}, {"time": 1150, "pitch": 69, "duration": 3, "velocity": 107}, {"time": 1156, "pitch": 68, "duration": 3, "velocity": 127}, {"time": 1162, "pitch": 66, "duration": 5, "velocity": 127}, {"time": 1174, "pitch": 66, "duration": 3, "velocity": 122}, {"time": 1180, "pitch": 69, "duration": 1, "velocity": 97}, {"time": 1183, "pitch": 71, "duration": 4, "velocity": 127}, {"time": 1189, "pitch": 68, "duration": 3, "velocity": 122}, {"time": 1195, "pitch": 68, "duration": 3, "velocity": 112}, {"time": 1201, "pitch": 66, "duration": 2, "velocity": 127}, {"time": 1210, "pitch": 71, "duration": 3, "velocity": 112}, {"time": 1216, "pitch": 71, "duration": 1, "velocity": 95}, {"time": 1219, "pitch": 71, "duration": 3, "velocity": 97}, {"time": 1225, "pitch": 73, "duration": 3, "velocity": 122}, {"time": 1231, "pitch": 69, "duration": 9, "velocity": 100}, {"time": 1252, "pitch": 66, "duration": 2, "velocity": 117}, {"time": 1255, "pitch": 68, "duration": 1, "velocity": 102}, {"time": 1258, "pitch": 69, "duration": 3, "velocity": 117}, {"time": 1264, "pitch": 69, "duration": 1, "velocity": 127}, {"time": 1267, "pitch": 69, "duration": 3, "velocity": 117}, {"time": 1276, "pitch": 68, "duration": 4, "velocity": 117}, {"time": 1282, "pitch": 66, "duration": 3, "velocity": 117}, {"time": 1288, "pitch": 71, "duration": 4, "velocity": 100}, {"time": 1294, "pitch": 68, "duration": 4, "velocity": 117}, {"time": 1300, "pitch": 69, "duration": 27, "velocity": 127}, {"time": 1504, "pitch": 62, "duration": 3, "velocity": 95}, {"time": 1510, "pitch": 62, "duration": 2, "velocity": 97}, {"time": 1516, "pitch": 61, "duration": 2, "velocity": 102}, {"time": 1519, "pitch": 62, "duration": 6, "velocity": 96}, {"time": 1528, "pitch": 61, "duration": 3, "velocity": 112}, {"time": 1534, "pitch": 59, "duration": 3, "velocity": 107}, {"time": 1540, "pitch": 57, "duration": 3, "velocity": 93}, {"time": 1546, "pitch": 57, "duration": 4, "velocity": 107}, {"time": 1552, "pitch": 57, "duration": 4, "velocity": 107}, {"time": 1558, "pitch": 59, "duration": 4, "velocity": 97}, {"time": 1564, "pitch": 61, "duration": 24, "velocity": 107}, {"time": 1600, "pitch": 62, "duration": 4, "velocity": 100}, {"time": 1606, "pitch": 62, "duration": 3, "velocity": 95}, {"time": 1612, "pitch": 61, "duration": 1, "velocity": 97}, {"time": 1615, "pitch": 62, "duration": 6, "velocity": 99}, {"time": 1624, "pitch": 61, "duration": 6, "velocity": 112}, {"time": 1630, "pitch": 59, "duration": 6, "velocity": 99}, {"time": 1636, "pitch": 57, "duration": 3, "velocity": 100}, {"time": 1639, "pitch": 61, "duration": 32, "velocity": 112}, {"time": 1690, "pitch": 66, "duration": 14, "velocity": 107}, {"time": 1708, "pitch": 61, "duration": 4, "velocity": 112}, {"time": 1714, "pitch": 61, "duration": 4, "velocity": 112}, {"time": 1720, "pitch": 57, "duration": 4, "velocity": 100}, {"time": 1726, "pitch": 57, "duration": 4, "velocity": 89}, {"time": 1732, "pitch": 52, "duration": 4, "velocity": 96}, {"time": 1738, "pitch": 64, "duration": 7, "velocity": 97}, {"time": 1744, "pitch": 64, "duration": 1, "velocity": 99}, {"time": 1750, "pitch": 64, "duration": 4, "velocity": 112}, {"time": 1756, "pitch": 62, "duration": 2, "velocity": 96}, {"time": 1759, "pitch": 61, "duration": 8, "velocity": 95}, {"time": 1786, "pitch": 59, "duration": 3, "velocity": 107}, {"time": 1792, "pitch": 59, "duration": 2, "velocity": 96}, {"time": 1798, "pitch": 59, "duration": 2, "velocity": 99}, {"time": 1804, "pitch": 59, "duration": 3, "velocity": 107}, {"time": 1810, "pitch": 59, "duration": 3, "velocity": 99}, {"time": 1816, "pitch": 57, "duration": 3, "velocity": 100}, {"time": 1822, "pitch": 64, "duration": 5, "velocity": 102}, {"time": 1828, "pitch": 64, "duration": 27, "velocity": 112}, {"time": 1864, "pitch": 61, "duration": 4, "velocity": 112}, {"time": 1870, "pitch": 69, "duration": 4, "velocity": 97}, {"time": 1876, "pitch": 68, "duration": 4, "velocity": 117}, {"time": 1882, "pitch": 66, "duration": 4, "velocity": 102}, {"time": 1894, "pitch": 62, "duration": 4, "velocity": 112}, {"time": 1900, "pitch": 61, "duration": 1, "velocity": 99}, {"time": 1903, "pitch": 61, "duration": 4, "velocity": 96}, {"time": 1909, "pitch": 59, "duration": 3, "velocity": 95}, {"time": 1918, "pitch": 66, "duration": 3, "velocity": 127}, {"time": 1924, "pitch": 66, "duration": 1, "velocity": 102}, {"time": 1927, "pitch": 68, "duration": 3, "velocity": 112}, {"time": 1933, "pitch": 64, "duration": 6, "velocity": 96}, {"time": 1939, "pitch": 64, "duration": 1, "velocity": 93}, {"time": 1942, "pitch": 64, "duration": 2, "velocity": 107}, {"time": 1948, "pitch": 64, "duration": 1, "velocity": 97}, {"time": 1951, "pitch": 59, "duration": 3, "velocity": 92}, {"time": 1957, "pitch": 61, "duration": 7, "velocity": 102}, {"time": 1969, "pitch": 54, "duration": 1, "velocity": 82}, {"time": 1972, "pitch": 59, "duration": 1, "velocity": 95}, {"time": 1975, "pitch": 61, "duration": 1, "velocity": 112}, {"time": 1978, "pitch": 62, "duration": 3, "velocity": 102}, {"time": 1984, "pitch": 62, "duration": 3, "velocity": 107}, {"time": 1990, "pitch": 62, "duration": 3, "velocity": 100}, {"time": 1996, "pitch": 61, "duration": 1, "velocity": 96}, {"time": 1999, "pitch": 61, "duration": 4, "velocity": 97}, {"time": 2005, "pitch": 59, "duration": 3, "velocity": 100}, {"time": 2011, "pitch": 59, "duration": 3, "velocity": 99}, {"time": 2017, "pitch": 56, "duration": 5, "velocity": 100}, {"time": 2026, "pitch": 57, "duration": 4, "velocity": 95}, {"time": 2032, "pitch": 56, "duration": 2, "velocity": 95}, {"time": 2035, "pitch": 57, "duration": 2, "velocity": 99}, {"time": 2041, "pitch": 59, "duration": 3, "velocity": 86}, {"time": 2047, "pitch": 61, "duration": 8, "velocity": 112}, {"time": 2056, "pitch": 57, "duration": 3, "velocity": 100}, {"time": 2062, "pitch": 69, "duration": 3, "velocity": 107}, {"time": 2068, "pitch": 68, "duration": 3, "velocity": 127}, {"time": 2074, "pitch": 66, "duration": 5, "velocity": 127}, {"time": 2086, "pitch": 66, "duration": 3, "velocity": 122}, {"time": 2092, "pitch": 69, "duration": 1, "velocity": 97}, {"time": 2095, "pitch": 71, "duration": 4, "velocity": 127}, {"time": 2101, "pitch": 68, "duration": 3, "velocity": 122}, {"time": 2107, "pitch": 68, "duration": 3, "velocity": 112}, {"time": 2113, "pitch": 66, "duration": 2, "velocity": 127}, {"time": 2122, "pitch": 71, "duration": 3, "velocity": 112}, {"time": 2128, "pitch": 71, "duration": 1, "velocity": 95}, {"time": 2131, "pitch": 71, "duration": 3, "velocity": 97}, {"time": 2137, "pitch": 73, "duration": 3, "velocity": 122}, {"time": 2143, "pitch": 69, "duration": 9, "velocity": 100}, {"time": 2164, "pitch": 66, "duration": 2, "velocity": 117}, {"time": 2167, "pitch": 68, "duration": 1, "velocity": 102}, {"time": 2170, "pitch": 69, "duration": 3, "velocity": 117}, {"time": 2176, "pitch": 69, "duration": 1, "velocity": 127}, {"time": 2179, "pitch": 69, "duration": 3, "velocity": 117}, {"time": 2188, "pitch": 69, "duration": 2, "velocity": 102}, {"time": 2194, "pitch": 69, "duration": 2, "velocity": 127}, {"time": 2200, "pitch": 66, "duration": 1, "velocity": 102}, {"time": 2203, "pitch": 69, "duration": 3, "velocity": 107}, {"time": 2209, "pitch": 71, "duration": 3, "velocity": 112}, {"time": 2215, "pitch": 71, "duration": 26, "velocity": 127}, {"time": 2248, "pitch": 57, "duration": 3, "velocity": 112}, {"time": 2254, "pitch": 69, "duration": 4, "velocity": 97}, {"time": 2260, "pitch": 68, "duration": 4, "velocity": 117}, {"time": 2266, "pitch": 66, "duration": 4, "velocity": 102}, {"time": 2278, "pitch": 62, "duration": 4, "velocity": 112}, {"time": 2284, "pitch": 61, "duration": 1, "velocity": 99}, {"time": 2287, "pitch": 61, "duration": 4, "velocity": 96}, {"time": 2293, "pitch": 59, "duration": 3, "velocity": 95}, {"time": 2302, "pitch": 66, "duration": 3, "velocity": 127}, {"time": 2308, "pitch": 66, "duration": 1, "velocity": 102}, {"time": 2311, "pitch": 68, "duration": 3, "velocity": 112}, {"time": 2317, "pitch": 64, "duration": 3, "velocity": 96}, {"time": 2323, "pitch": 64, "duration": 1, "velocity": 93}, {"time": 2326, "pitch": 64, "duration": 2, "velocity": 107}, {"time": 2332, "pitch": 64, "duration": 1, "velocity": 97}, {"time": 2335, "pitch": 59, "duration": 3, "velocity": 92}, {"time": 2341, "pitch": 61, "duration": 7, "velocity": 102}, {"time": 2353, "pitch": 54, "duration": 1, "velocity": 82}, {"time": 2356, "pitch": 59, "duration": 1, "velocity": 95}, {"time": 2359, "pitch": 61, "duration": 1, "velocity": 112}, {"time": 2362, "pitch": 62, "duration": 3, "velocity": 102}, {"time": 2368, "pitch": 62, "duration": 3, "velocity": 107}, {"time": 2374, "pitch": 62, "duration": 3, "velocity": 100}, {"time": 2380, "pitch": 61, "duration": 1, "velocity": 96}, {"time": 2383, "pitch": 61, "duration": 4, "velocity": 97}, {"time": 2389, "pitch": 59, "duration": 3, "velocity": 100}, {"time": 2395, "pitch": 59, "duration": 3, "velocity": 99}, {"time": 2401, "pitch": 56, "duration": 5, "velocity": 100}, {"time": 2410, "pitch": 57, "duration": 4, "velocity": 95}, {"time": 2416, "pitch": 56, "duration": 2, "velocity": 95}, {"time": 2419, "pitch": 57, "duration": 2, "velocity": 99}, {"time": 2425, "pitch": 59, "duration": 3, "velocity": 86}, {"time": 2431, "pitch": 61, "duration": 8, "velocity": 112}, {"time": 2440, "pitch": 57, "duration": 3, "velocity": 100}, {"time": 2446, "pitch": 69, "duration": 3, "velocity": 107}, {"time": 2452, "pitch": 68, "duration": 3, "velocity": 127}, {"time": 2458, "pitch": 66, "duration": 5, "velocity": 127}, {"time": 2470, "pitch": 66, "duration": 3, "velocity": 122}, {"time": 2476, "pitch": 69, "duration": 1, "velocity": 97}, {"time": 2479, "pitch": 71, "duration": 4, "velocity": 127}, {"time": 2485, "pitch": 68, "duration": 3, "velocity": 122}, {"time": 2491, "pitch": 68, "duration": 3, "velocity": 112}, {"time": 2497, "pitch": 66, "duration": 2, "velocity": 127}, {"time": 2506, "pitch": 71, "duration": 3, "velocity": 112}, {"time": 2512, "pitch": 71, "duration": 1, "velocity": 95}, {"time": 2515, "pitch": 71, "duration": 3, "velocity": 97}, {"time": 2521, "pitch": 73, "duration": 3, "velocity": 122}, {"time": 2527, "pitch": 69, "duration": 9, "velocity": 100}, {"time": 2548, "pitch": 66, "duration": 2, "velocity": 117}, {"time": 2551, "pitch": 68, "duration": 1, "velocity": 102}, {"time": 2554, "pitch": 69, "duration": 3, "velocity": 117}, {"time": 2560, "pitch": 69, "duration": 1, "velocity": 127}, {"time": 2563, "pitch": 69, "duration": 3, "velocity": 117}, {"time": 2572, "pitch": 69, "duration": 2, "velocity": 102}, {"time": 2578, "pitch": 66, "duration": 4, "velocity": 127}, {"time": 2584, "pitch": 71, "duration": 3, "velocity": 100}, {"time": 2590, "pitch": 68, "duration": 3, "velocity": 127}, {"time": 2596, "pitch": 69, "duration": 23, "velocity": 127}, {"time": 3016, "pitch": 57, "duration": 3, "velocity": 102}, {"time": 3022, "pitch": 69, "duration": 4, "velocity": 97}, {"time": 3028, "pitch": 68, "duration": 4, "velocity": 117}, {"time": 3034, "pitch": 66, "duration": 4, "velocity": 102}, {"time": 3046, "pitch": 62, "duration": 4, "velocity": 112}, {"time": 3052, "pitch": 61, "duration": 1, "velocity": 99}, {"time": 3055, "pitch": 61, "duration": 4, "velocity": 96}, {"time": 3061, "pitch": 59, "duration": 3, "velocity": 95}, {"time": 3070, "pitch": 66, "duration": 3, "velocity": 127}, {"time": 3076, "pitch": 66, "duration": 1, "velocity": 102}, {"time": 3079, "pitch": 68, "duration": 3, "velocity": 112}, {"time": 3085, "pitch": 64, "duration": 6, "velocity": 96}, {"time": 3091, "pitch": 64, "duration": 1, "velocity": 93}, {"time": 3094, "pitch": 64, "duration": 2, "velocity": 107}, {"time": 3100, "pitch": 64, "duration": 1, "velocity": 97}, {"time": 3103, "pitch": 59, "duration": 3, "velocity": 92}, {"time": 3109, "pitch": 61, "duration": 7, "velocity": 102}, {"time": 3121, "pitch": 54, "duration": 1, "velocity": 82}, {"time": 3124, "pitch": 59, "duration": 1, "velocity": 95}, {"time": 3127, "pitch": 61, "duration": 1, "velocity": 112}, {"time": 3130, "pitch": 62, "duration": 3, "velocity": 102}, {"time": 3136, "pitch": 62, "duration": 3, "velocity": 107}, {"time": 3142, "pitch": 62, "duration": 3, "velocity": 100}, {"time": 3148, "pitch": 61, "duration": 1, "velocity": 96}, {"time": 3151, "pitch": 61, "duration": 4, "velocity": 97}, {"time": 3157, "pitch": 59, "duration": 3, "velocity": 100}, {"time": 3163, "pitch": 59, "duration": 3, "velocity": 99}, {"time": 3169, "pitch": 56, "duration": 5, "velocity": 100}, {"time": 3178, "pitch": 57, "duration": 4, "velocity": 95}, {"time": 3184, "pitch": 56, "duration": 2, "velocity": 95}, {"time": 3187, "pitch": 57, "duration": 2, "velocity": 99}, {"time": 3193, "pitch": 59, "duration": 3, "velocity": 86}, {"time": 3199, "pitch": 61, "duration": 8, "velocity": 112}, {"time": 3208, "pitch": 57, "duration": 3, "velocity": 100}, {"time": 3214, "pitch": 69, "duration": 3, "velocity": 107}, {"time": 3220, "pitch": 68, "duration": 3, "velocity": 127}, {"time": 3226, "pitch": 66, "duration": 5, "velocity": 127}, {"time": 3238, "pitch": 66, "duration": 3, "velocity": 122}, {"time": 3244, "pitch": 69, "duration": 1, "velocity": 97}, {"time": 3247, "pitch": 71, "duration": 4, "velocity": 127}, {"time": 3253, "pitch": 68, "duration": 3, "velocity": 122}, {"time": 3259, "pitch": 68, "duration": 3, "velocity": 112}, {"time": 3265, "pitch": 66, "duration": 2, "velocity": 127}, {"time": 3274, "pitch": 71, "duration": 3, "velocity": 112}, {"time": 3280, "pitch": 71, "duration": 1, "velocity": 95}, {"time": 3283, "pitch": 71, "duration": 3, "velocity": 97}, {"time": 3289, "pitch": 73, "duration": 3, "velocity": 122}, {"time": 3295, "pitch": 69, "duration": 9, "velocity": 100}, {"time": 3316, "pitch": 66, "duration": 2, "velocity": 117}, {"time": 3319, "pitch": 68, "duration": 1, "velocity": 102}, {"time": 3322, "pitch": 69, "duration": 3, "velocity": 117}, {"time": 3328, "pitch": 69, "duration": 1, "velocity": 127}, {"time": 3331, "pitch": 69, "duration": 3, "velocity": 117}, {"time": 3340, "pitch": 68, "duration": 4, "velocity": 122}, {"time": 3346, "pitch": 66, "duration": 3, "velocity": 122}, {"time": 3352, "pitch": 71, "duration": 2, "velocity": 102}, {"time": 3358, "pitch": 68, "duration": 2, "velocity": 127}, {"time": 3364, "pitch": 69, "duration": 21, "velocity": 127}, {"time": 3412, "pitch": 66, "duration": 1, "velocity": 112}, {"time": 3415, "pitch": 68, "duration": 1, "velocity": 102}, {"time": 3418, "pitch": 69, "duration": 3, "velocity": 122}, {"time": 3424, "pitch": 69, "duration": 1, "velocity": 102}, {"time": 3427, "pitch": 69, "duration": 5, "velocity": 112}, {"time": 3436, "pitch": 68, "duration": 4, "velocity": 112}, {"time": 3442, "pitch": 66, "duration": 4, "velocity": 112}, {"time": 3448, "pitch": 71, "duration": 3, "velocity": 102}, {"time": 3454, "pitch": 68, "duration": 4, "velocity": 122}, {"time": 3460, "pitch": 69, "duration": 35, "velocity": 112}]}, {"program": 0, "is_drum": false, "name": "PIANO", "notes": [{"time": 10, "pitch": 45, "duration": 36, "velocity": 67}, {"time": 10, "pitch": 64, "duration": 16, "velocity": 49}, {"time": 10, "pitch": 69, "duration": 11, "velocity": 54}, {"time": 10, "pitch": 73, "duration": 22, "velocity": 57}, {"time": 16, "pitch": 52, "duration": 22, "velocity": 56}, {"time": 22, "pitch": 57, "duration": 18, "velocity": 64}, {"time": 28, "pitch": 64, "duration": 18, "velocity": 44}, {"time": 34, "pitch": 73, "duration": 42, "velocity": 64}, {"time": 40, "pitch": 52, "duration": 6, "velocity": 46}, {"time": 46, "pitch": 69, "duration": 20, "velocity": 65}, {"time": 52, "pitch": 64, "duration": 13, "velocity": 56}, {"time": 58, "pitch": 44, "duration": 38, "velocity": 50}, {"time": 64, "pitch": 49, "duration": 30, "velocity": 34}, {"time": 70, "pitch": 64, "duration": 7, "velocity": 66}, {"time": 76, "pitch": 56, "duration": 10, "velocity": 49}, {"time": 82, "pitch": 61, "duration": 1, "velocity": 37}, {"time": 82, "pitch": 64, "duration": 12, "velocity": 59}, {"time": 82, "pitch": 68, "duration": 24, "velocity": 53}, {"time": 88, "pitch": 56, "duration": 6, "velocity": 43}, {"time": 94, "pitch": 61, "duration": 12, "velocity": 62}, {"time": 100, "pitch": 64, "duration": 6, "velocity": 46}, {"time": 106, "pitch": 38, "duration": 40, "velocity": 59}, {"time": 112, "pitch": 45, "duration": 42, "velocity": 51}, {"time": 118, "pitch": 50, "duration": 15, "velocity": 38}, {"time": 124, "pitch": 57, "duration": 10, "velocity": 55}, {"time": 130, "pitch": 62, "duration": 14, "velocity": 63}, {"time": 130, "pitch": 66, "duration": 16, "velocity": 56}, {"time": 136, "pitch": 50, "duration": 6, "velocity": 50}, {"time": 142, "pitch": 57, "duration": 10, "velocity": 60}, {"time": 148, "pitch": 62, "duration": 4, "velocity": 48}, {"time": 154, "pitch": 38, "duration": 39, "velocity": 49}, {"time": 154, "pitch": 57, "duration": 48, "velocity": 66}, {"time": 154, "pitch": 62, "duration": 14, "velocity": 70}, {"time": 154, "pitch": 65, "duration": 48, "velocity": 60}, {"time": 160, "pitch": 45, "duration": 34, "velocity": 30}, {"time": 166, "pitch": 50, "duration": 30, "velocity": 27}, {"time": 172, "pitch": 62, "duration": 31, "velocity": 35}, {"time": 202, "pitch": 47, "duration": 37, "velocity": 70}, {"time": 208, "pitch": 54, "duration": 9, "velocity": 60}, {"time": 214, "pitch": 59, "duration": 19, "velocity": 65}, {"time": 220, "pitch": 54, "duration": 9, "velocity": 47}, {"time": 226, "pitch": 66, "duration": 20, "velocity": 99}, {"time": 232, "pitch": 54, "duration": 5, "velocity": 50}, {"time": 238, "pitch": 62, "duration": 12, "velocity": 86}, {"time": 244, "pitch": 59, "duration": 7, "velocity": 66}, {"time": 250, "pitch": 45, "duration": 39, "velocity": 77}, {"time": 256, "pitch": 52, "duration": 36, "velocity": 58}, {"time": 262, "pitch": 57, "duration": 13, "velocity": 69}, {"time": 268, "pitch": 61, "duration": 11, "velocity": 72}, {"time": 274, "pitch": 69, "duration": 25, "velocity": 69}, {"time": 280, "pitch": 57, "duration": 7, "velocity": 47}, {"time": 286, "pitch": 61, "duration": 13, "velocity": 99}, {"time": 292, "pitch": 64, "duration": 7, "velocity": 69}, {"time": 298, "pitch": 47, "duration": 38, "velocity": 72}, {"time": 304, "pitch": 54, "duration": 31, "velocity": 59}, {"time": 310, "pitch": 59, "duration": 13, "velocity": 69}, {"time": 316, "pitch": 62, "duration": 14, "velocity": 77}, {"time": 322, "pitch": 71, "duration": 25, "velocity": 81}, {"time": 328, "pitch": 59, "duration": 5, "velocity": 50}, {"time": 334, "pitch": 66, "duration": 14, "velocity": 93}, {"time": 340, "pitch": 62, "duration": 8, "velocity": 55}, {"time": 346, "pitch": 45, "duration": 38, "velocity": 66}, {"time": 352, "pitch": 52, "duration": 11, "velocity": 58}, {"time": 358, "pitch": 57, "duration": 17, "velocity": 62}, {"time": 364, "pitch": 61, "duration": 7, "velocity": 54}, {"time": 370, "pitch": 64, "duration": 23, "velocity": 92}, {"time": 376, "pitch": 52, "duration": 6, "velocity": 55}, {"time": 382, "pitch": 61, "duration": 18, "velocity": 107}, {"time": 388, "pitch": 57, "duration": 9, "velocity": 79}, {"time": 394, "pitch": 42, "duration": 38, "velocity": 89}, {"time": 400, "pitch": 54, "duration": 8, "velocity": 63}, {"time": 406, "pitch": 66, "duration": 21, "velocity": 102}, {"time": 412, "pitch": 54, "duration": 8, "velocity": 62}, {"time": 418, "pitch": 61, "duration": 13, "velocity": 78}, {"time": 424, "pitch": 54, "duration": 8, "velocity": 56}, {"time": 430, "pitch": 66, "duration": 14, "velocity": 102}, {"time": 436, "pitch": 57, "duration": 7, "velocity": 72}, {"time": 439, "pitch": 61, "duration": 4, "velocity": 60}, {"time": 442, "pitch": 37, "duration": 40, "velocity": 78}, {"time": 448, "pitch": 44, "duration": 34, "velocity": 40}, {"time": 454, "pitch": 49, "duration": 15, "velocity": 58}, {"time": 460, "pitch": 52, "duration": 14, "velocity": 68}, {"time": 466, "pitch": 61, "duration": 26, "velocity": 90}, {"time": 472, "pitch": 49, "duration": 6, "velocity": 60}, {"time": 478, "pitch": 56, "duration": 13, "velocity": 88}, {"time": 481, "pitch": 49, "duration": 2, "velocity": 58}, {"time": 484, "pitch": 52, "duration": 6, "velocity": 71}, {"time": 490, "pitch": 38, "duration": 39, "velocity": 62}, {"time": 496, "pitch": 45, "duration": 34, "velocity": 41}, {"time": 502, "pitch": 50, "duration": 13, "velocity": 71}, {"time": 508, "pitch": 57, "duration": 12, "velocity": 64}, {"time": 514, "pitch": 62, "duration": 13, "velocity": 68}, {"time": 514, "pitch": 66, "duration": 25, "velocity": 61}, {"time": 520, "pitch": 50, "duration": 5, "velocity": 72}, {"time": 526, "pitch": 57, "duration": 14, "velocity": 75}, {"time": 532, "pitch": 62, "duration": 7, "velocity": 72}, {"time": 538, "pitch": 40, "duration": 42, "velocity": 68}, {"time": 544, "pitch": 47, "duration": 36, "velocity": 47}, {"time": 550, "pitch": 52, "duration": 13, "velocity": 72}, {"time": 556, "pitch": 59, "duration": 17, "velocity": 72}, {"time": 562, "pitch": 64, "duration": 8, "velocity": 73}, {"time": 562, "pitch": 68, "duration": 24, "velocity": 70}, {"time": 568, "pitch": 52, "duration": 9, "velocity": 72}, {"time": 574, "pitch": 64, "duration": 12, "velocity": 71}, {"time": 580, "pitch": 59, "duration": 6, "velocity": 76}, {"time": 586, "pitch": 47, "duration": 37, "velocity": 70}, {"time": 592, "pitch": 54, "duration": 9, "velocity": 60}, {"time": 598, "pitch": 59, "duration": 19, "velocity": 65}, {"time": 604, "pitch": 54, "duration": 9, "velocity": 47}, {"time": 610, "pitch": 66, "duration": 20, "velocity": 99}, {"time": 616, "pitch": 54, "duration": 5, "velocity": 50}, {"time": 622, "pitch": 62, "duration": 12, "velocity": 86}, {"time": 628, "pitch": 59, "duration": 7, "velocity": 66}, {"time": 634, "pitch": 45, "duration": 39, "velocity": 77}, {"time": 640, "pitch": 52, "duration": 36, "velocity": 58}, {"time": 646, "pitch": 57, "duration": 13, "velocity": 69}, {"time": 652, "pitch": 61, "duration": 11, "velocity": 72}, {"time": 658, "pitch": 69, "duration": 25, "velocity": 69}, {"time": 664, "pitch": 57, "duration": 7, "velocity": 47}, {"time": 670, "pitch": 61, "duration": 13, "velocity": 99}, {"time": 676, "pitch": 64, "duration": 7, "velocity": 69}, {"time": 682, "pitch": 47, "duration": 38, "velocity": 72}, {"time": 688, "pitch": 54, "duration": 31, "velocity": 59}, {"time": 694, "pitch": 59, "duration": 13, "velocity": 69}, {"time": 700, "pitch": 62, "duration": 14, "velocity": 77}, {"time": 706, "pitch": 71, "duration": 25, "velocity": 81}, {"time": 712, "pitch": 59, "duration": 5, "velocity": 50}, {"time": 718, "pitch": 66, "duration": 14, "velocity": 93}, {"time": 724, "pitch": 62, "duration": 8, "velocity": 55}, {"time": 730, "pitch": 45, "duration": 38, "velocity": 66}, {"time": 736, "pitch": 52, "duration": 11, "velocity": 58}, {"time": 742, "pitch": 57, "duration": 17, "velocity": 62}, {"time": 748, "pitch": 61, "duration": 7, "velocity": 54}, {"time": 754, "pitch": 64, "duration": 23, "velocity": 92}, {"time": 760, "pitch": 52, "duration": 6, "velocity": 55}, {"time": 766, "pitch": 61, "duration": 18, "velocity": 107}, {"time": 772, "pitch": 57, "duration": 9, "velocity": 79}, {"time": 778, "pitch": 42, "duration": 38, "velocity": 89}, {"time": 784, "pitch": 54, "duration": 8, "velocity": 63}, {"time": 790, "pitch": 66, "duration": 21, "velocity": 102}, {"time": 796, "pitch": 54, "duration": 8, "velocity": 62}, {"time": 802, "pitch": 61, "duration": 13, "velocity": 78}, {"time": 808, "pitch": 54, "duration": 8, "velocity": 56}, {"time": 814, "pitch": 66, "duration": 14, "velocity": 102}, {"time": 820, "pitch": 57, "duration": 7, "velocity": 72}, {"time": 823, "pitch": 61, "duration": 4, "velocity": 60}, {"time": 826, "pitch": 37, "duration": 40, "velocity": 78}, {"time": 832, "pitch": 44, "duration": 34, "velocity": 40}, {"time": 838, "pitch": 49, "duration": 15, "velocity": 58}, {"time": 844, "pitch": 52, "duration": 14, "velocity": 68}, {"time": 850, "pitch": 61, "duration": 26, "velocity": 90}, {"time": 856, "pitch": 49, "duration": 6, "velocity": 60}, {"time": 862, "pitch": 56, "duration": 13, "velocity": 88}, {"time": 865, "pitch": 49, "duration": 2, "velocity": 58}, {"time": 868, "pitch": 52, "duration": 6, "velocity": 71}, {"time": 874, "pitch": 38, "duration": 39, "velocity": 62}, {"time": 880, "pitch": 45, "duration": 34, "velocity": 41}, {"time": 886, "pitch": 50, "duration": 13, "velocity": 71}, {"time": 892, "pitch": 57, "duration": 12, "velocity": 64}, {"time": 898, "pitch": 62, "duration": 13, "velocity": 68}, {"time": 898, "pitch": 66, "duration": 24, "velocity": 61}, {"time": 904, "pitch": 50, "duration": 5, "velocity": 72}, {"time": 910, "pitch": 57, "duration": 12, "velocity": 75}, {"time": 916, "pitch": 62, "duration": 6, "velocity": 72}, {"time": 922, "pitch": 40, "duration": 16, "velocity": 73}, {"time": 922, "pitch": 59, "duration": 4, "velocity": 59}, {"time": 922, "pitch": 64, "duration": 4, "velocity": 68}, {"time": 922, "pitch": 68, "duration": 4, "velocity": 62}, {"time": 928, "pitch": 47, "duration": 10, "velocity": 46}, {"time": 928, "pitch": 59, "duration": 4, "velocity": 60}, {"time": 928, "pitch": 64, "duration": 4, "velocity": 62}, {"time": 928, "pitch": 68, "duration": 4, "velocity": 59}, {"time": 934, "pitch": 52, "duration": 3, "velocity": 34}, {"time": 934, "pitch": 59, "duration": 4, "velocity": 78}, {"time": 934, "pitch": 64, "duration": 4, "velocity": 74}, {"time": 934, "pitch": 68, "duration": 4, "velocity": 68}, {"time": 940, "pitch": 40, "duration": 2, "velocity": 42}, {"time": 940, "pitch": 47, "duration": 2, "velocity": 52}, {"time": 940, "pitch": 52, "duration": 2, "velocity": 55}, {"time": 940, "pitch": 59, "duration": 3, "velocity": 75}, {"time": 940, "pitch": 64, "duration": 3, "velocity": 74}, {"time": 940, "pitch": 68, "duration": 3, "velocity": 69}, {"time": 946, "pitch": 40, "duration": 2, "velocity": 52}, {"time": 946, "pitch": 47, "duration": 2, "velocity": 43}, {"time": 946, "pitch": 52, "duration": 3, "velocity": 75}, {"time": 946, "pitch": 59, "duration": 3, "velocity": 83}, {"time": 946, "pitch": 64, "duration": 4, "velocity": 85}, {"time": 946, "pitch": 68, "duration": 3, "velocity": 83}, {"time": 952, "pitch": 40, "duration": 3, "velocity": 69}, {"time": 952, "pitch": 52, "duration": 3, "velocity": 85}, {"time": 952, "pitch": 59, "duration": 3, "velocity": 89}, {"time": 952, "pitch": 64, "duration": 4, "velocity": 93}, {"time": 952, "pitch": 68, "duration": 3, "velocity": 97}, {"time": 958, "pitch": 40, "duration": 2, "velocity": 66}, {"time": 958, "pitch": 52, "duration": 2, "velocity": 88}, {"time": 958, "pitch": 59, "duration": 3, "velocity": 82}, {"time": 958, "pitch": 64, "duration": 4, "velocity": 83}, {"time": 958, "pitch": 68, "duration": 4, "velocity": 86}, {"time": 964, "pitch": 59, "duration": 5, "velocity": 88}, {"time": 964, "pitch": 64, "duration": 4, "velocity": 93}, {"time": 964, "pitch": 68, "duration": 4, "velocity": 92}, {"time": 967, "pitch": 45, "duration": 1, "velocity": 27}, {"time": 970, "pitch": 38, "duration": 21, "velocity": 93}, {"time": 973, "pitch": 45, "duration": 20, "velocity": 81}, {"time": 976, "pitch": 50, "duration": 8, "velocity": 95}, {"time": 979, "pitch": 62, "duration": 1, "velocity": 59}, {"time": 979, "pitch": 63, "duration": 1, "velocity": 44}, {"time": 979, "pitch": 66, "duration": 1, "velocity": 86}, {"time": 982, "pitch": 62, "duration": 5, "velocity": 90}, {"time": 982, "pitch": 66, "duration": 5, "velocity": 112}, {"time": 985, "pitch": 50, "duration": 4, "velocity": 88}, {"time": 988, "pitch": 57, "duration": 6, "velocity": 90}, {"time": 988, "pitch": 62, "duration": 1, "velocity": 52}, {"time": 988, "pitch": 66, "duration": 1, "velocity": 52}, {"time": 991, "pitch": 62, "duration": 5, "velocity": 92}, {"time": 991, "pitch": 66, "duration": 4, "velocity": 107}, {"time": 994, "pitch": 40, "duration": 16, "velocity": 90}, {"time": 997, "pitch": 47, "duration": 13, "velocity": 90}, {"time": 1000, "pitch": 52, "duration": 7, "velocity": 89}, {"time": 1003, "pitch": 59, "duration": 1, "velocity": 78}, {"time": 1003, "pitch": 64, "duration": 2, "velocity": 78}, {"time": 1003, "pitch": 68, "duration": 1, "velocity": 69}, {"time": 1006, "pitch": 59, "duration": 3, "velocity": 89}, {"time": 1006, "pitch": 64, "duration": 5, "velocity": 112}, {"time": 1006, "pitch": 68, "duration": 9, "velocity": 127}, {"time": 1009, "pitch": 52, "duration": 1, "velocity": 97}, {"time": 1012, "pitch": 59, "duration": 6, "velocity": 95}, {"time": 1015, "pitch": 64, "duration": 2, "velocity": 96}, {"time": 1018, "pitch": 37, "duration": 16, "velocity": 75}, {"time": 1021, "pitch": 44, "duration": 12, "velocity": 34}, {"time": 1024, "pitch": 49, "duration": 7, "velocity": 97}, {"time": 1027, "pitch": 56, "duration": 1, "velocity": 65}, {"time": 1027, "pitch": 61, "duration": 1, "velocity": 48}, {"time": 1027, "pitch": 64, "duration": 1, "velocity": 66}, {"time": 1030, "pitch": 56, "duration": 3, "velocity": 95}, {"time": 1030, "pitch": 61, "duration": 5, "velocity": 97}, {"time": 1030, "pitch": 64, "duration": 10, "velocity": 92}, {"time": 1033, "pitch": 49, "duration": 3, "velocity": 100}, {"time": 1036, "pitch": 56, "duration": 4, "velocity": 96}, {"time": 1039, "pitch": 61, "duration": 5, "velocity": 100}, {"time": 1042, "pitch": 42, "duration": 16, "velocity": 82}, {"time": 1045, "pitch": 49, "duration": 12, "velocity": 35}, {"time": 1048, "pitch": 54, "duration": 7, "velocity": 99}, {"time": 1051, "pitch": 57, "duration": 2, "velocity": 73}, {"time": 1051, "pitch": 61, "duration": 2, "velocity": 86}, {"time": 1051, "pitch": 66, "duration": 1, "velocity": 78}, {"time": 1054, "pitch": 57, "duration": 1, "velocity": 58}, {"time": 1054, "pitch": 61, "duration": 7, "velocity": 107}, {"time": 1054, "pitch": 66, "duration": 12, "velocity": 102}, {"time": 1057, "pitch": 54, "duration": 3, "velocity": 100}, {"time": 1060, "pitch": 57, "duration": 4, "velocity": 93}, {"time": 1063, "pitch": 61, "duration": 2, "velocity": 107}, {"time": 1066, "pitch": 47, "duration": 17, "velocity": 59}, {"time": 1069, "pitch": 54, "duration": 10, "velocity": 92}, {"time": 1072, "pitch": 59, "duration": 3, "velocity": 95}, {"time": 1075, "pitch": 62, "duration": 2, "velocity": 83}, {"time": 1075, "pitch": 66, "duration": 2, "velocity": 85}, {"time": 1078, "pitch": 62, "duration": 6, "velocity": 100}, {"time": 1078, "pitch": 66, "duration": 10, "velocity": 112}, {"time": 1081, "pitch": 54, "duration": 1, "velocity": 96}, {"time": 1084, "pitch": 59, "duration": 6, "velocity": 99}, {"time": 1087, "pitch": 62, "duration": 2, "velocity": 93}, {"time": 1090, "pitch": 37, "duration": 16, "velocity": 81}, {"time": 1093, "pitch": 44, "duration": 13, "velocity": 34}, {"time": 1096, "pitch": 49, "duration": 7, "velocity": 97}, {"time": 1099, "pitch": 56, "duration": 2, "velocity": 86}, {"time": 1099, "pitch": 61, "duration": 2, "velocity": 58}, {"time": 1099, "pitch": 65, "duration": 1, "velocity": 60}, {"time": 1102, "pitch": 56, "duration": 2, "velocity": 90}, {"time": 1102, "pitch": 61, "duration": 4, "velocity": 74}, {"time": 1102, "pitch": 65, "duration": 9, "velocity": 63}, {"time": 1105, "pitch": 49, "duration": 4, "velocity": 107}, {"time": 1108, "pitch": 56, "duration": 5, "velocity": 107}, {"time": 1111, "pitch": 61, "duration": 3, "velocity": 97}, {"time": 1114, "pitch": 42, "duration": 10, "velocity": 73}, {"time": 1117, "pitch": 49, "duration": 7, "velocity": 75}, {"time": 1120, "pitch": 54, "duration": 4, "velocity": 99}, {"time": 1123, "pitch": 57, "duration": 3, "velocity": 96}, {"time": 1126, "pitch": 44, "duration": 11, "velocity": 102}, {"time": 1129, "pitch": 56, "duration": 6, "velocity": 107}, {"time": 1132, "pitch": 57, "duration": 4, "velocity": 82}, {"time": 1135, "pitch": 61, "duration": 4, "velocity": 127}, {"time": 1138, "pitch": 45, "duration": 18, "velocity": 76}, {"time": 1141, "pitch": 52, "duration": 10, "velocity": 93}, {"time": 1144, "pitch": 57, "duration": 3, "velocity": 107}, {"time": 1147, "pitch": 61, "duration": 2, "velocity": 97}, {"time": 1150, "pitch": 64, "duration": 10, "velocity": 100}, {"time": 1153, "pitch": 52, "duration": 2, "velocity": 99}, {"time": 1156, "pitch": 61, "duration": 4, "velocity": 127}, {"time": 1159, "pitch": 57, "duration": 5, "velocity": 107}, {"time": 1162, "pitch": 38, "duration": 22, "velocity": 89}, {"time": 1165, "pitch": 45, "duration": 21, "velocity": 79}, {"time": 1168, "pitch": 50, "duration": 7, "velocity": 88}, {"time": 1171, "pitch": 57, "duration": 2, "velocity": 81}, {"time": 1174, "pitch": 57, "duration": 1, "velocity": 65}, {"time": 1174, "pitch": 62, "duration": 5, "velocity": 100}, {"time": 1174, "pitch": 66, "duration": 7, "velocity": 117}, {"time": 1177, "pitch": 50, "duration": 3, "velocity": 79}, {"time": 1180, "pitch": 57, "duration": 8, "velocity": 99}, {"time": 1180, "pitch": 62, "duration": 1, "velocity": 40}, {"time": 1183, "pitch": 62, "duration": 9, "velocity": 74}, {"time": 1183, "pitch": 63, "duration": 1, "velocity": 66}, {"time": 1183, "pitch": 66, "duration": 4, "velocity": 89}, {"time": 1186, "pitch": 40, "duration": 16, "velocity": 73}, {"time": 1189, "pitch": 47, "duration": 14, "velocity": 63}, {"time": 1192, "pitch": 52, "duration": 7, "velocity": 89}, {"time": 1195, "pitch": 59, "duration": 2, "velocity": 72}, {"time": 1195, "pitch": 64, "duration": 2, "velocity": 74}, {"time": 1195, "pitch": 68, "duration": 1, "velocity": 72}, {"time": 1198, "pitch": 59, "duration": 1, "velocity": 67}, {"time": 1198, "pitch": 64, "duration": 5, "velocity": 97}, {"time": 1198, "pitch": 68, "duration": 12, "velocity": 112}, {"time": 1201, "pitch": 52, "duration": 1, "velocity": 99}, {"time": 1204, "pitch": 59, "duration": 7, "velocity": 96}, {"time": 1207, "pitch": 64, "duration": 3, "velocity": 102}, {"time": 1210, "pitch": 37, "duration": 16, "velocity": 99}, {"time": 1213, "pitch": 44, "duration": 13, "velocity": 62}, {"time": 1216, "pitch": 49, "duration": 6, "velocity": 93}, {"time": 1219, "pitch": 52, "duration": 1, "velocity": 86}, {"time": 1219, "pitch": 56, "duration": 1, "velocity": 96}, {"time": 1222, "pitch": 52, "duration": 3, "velocity": 85}, {"time": 1222, "pitch": 56, "duration": 7, "velocity": 102}, {"time": 1225, "pitch": 49, "duration": 4, "velocity": 112}, {"time": 1228, "pitch": 52, "duration": 4, "velocity": 97}, {"time": 1231, "pitch": 56, "duration": 2, "velocity": 127}, {"time": 1234, "pitch": 42, "duration": 18, "velocity": 79}, {"time": 1237, "pitch": 49, "duration": 3, "velocity": 38}, {"time": 1240, "pitch": 54, "duration": 6, "velocity": 102}, {"time": 1243, "pitch": 49, "duration": 9, "velocity": 34}, {"time": 1243, "pitch": 57, "duration": 2, "velocity": 78}, {"time": 1246, "pitch": 57, "duration": 3, "velocity": 93}, {"time": 1246, "pitch": 61, "duration": 5, "velocity": 122}, {"time": 1249, "pitch": 54, "duration": 5, "velocity": 112}, {"time": 1252, "pitch": 57, "duration": 5, "velocity": 102}, {"time": 1255, "pitch": 61, "duration": 3, "velocity": 127}, {"time": 1258, "pitch": 47, "duration": 17, "velocity": 89}, {"time": 1261, "pitch": 54, "duration": 10, "velocity": 97}, {"time": 1264, "pitch": 59, "duration": 3, "velocity": 88}, {"time": 1267, "pitch": 62, "duration": 2, "velocity": 82}, {"time": 1267, "pitch": 66, "duration": 2, "velocity": 89}, {"time": 1270, "pitch": 62, "duration": 5, "velocity": 99}, {"time": 1270, "pitch": 66, "duration": 8, "velocity": 102}, {"time": 1273, "pitch": 54, "duration": 2, "velocity": 97}, {"time": 1276, "pitch": 59, "duration": 7, "velocity": 95}, {"time": 1276, "pitch": 62, "duration": 1, "velocity": 33}, {"time": 1279, "pitch": 62, "duration": 4, "velocity": 96}, {"time": 1279, "pitch": 66, "duration": 2, "velocity": 67}, {"time": 1282, "pitch": 40, "duration": 21, "velocity": 83}, {"time": 1285, "pitch": 47, "duration": 18, "velocity": 86}, {"time": 1288, "pitch": 52, "duration": 7, "velocity": 86}, {"time": 1291, "pitch": 59, "duration": 2, "velocity": 76}, {"time": 1291, "pitch": 64, "duration": 2, "velocity": 59}, {"time": 1291, "pitch": 68, "duration": 1, "velocity": 53}, {"time": 1294, "pitch": 59, "duration": 3, "velocity": 82}, {"time": 1294, "pitch": 64, "duration": 4, "velocity": 90}, {"time": 1294, "pitch": 68, "duration": 4, "velocity": 95}, {"time": 1297, "pitch": 52, "duration": 6, "velocity": 86}, {"time": 1300, "pitch": 59, "duration": 2, "velocity": 86}, {"time": 1300, "pitch": 64, "duration": 5, "velocity": 69}, {"time": 1300, "pitch": 68, "duration": 5, "velocity": 63}, {"time": 1303, "pitch": 59, "duration": 3, "velocity": 102}, {"time": 1306, "pitch": 45, "duration": 22, "velocity": 90}, {"time": 1309, "pitch": 52, "duration": 9, "velocity": 52}, {"time": 1312, "pitch": 57, "duration": 4, "velocity": 96}, {"time": 1315, "pitch": 61, "duration": 2, "velocity": 95}, {"time": 1318, "pitch": 57, "duration": 3, "velocity": 88}, {"time": 1318, "pitch": 61, "duration": 7, "velocity": 96}, {"time": 1318, "pitch": 64, "duration": 7, "velocity": 89}, {"time": 1321, "pitch": 52, "duration": 8, "velocity": 85}, {"time": 1324, "pitch": 57, "duration": 6, "velocity": 88}, {"time": 1327, "pitch": 61, "duration": 3, "velocity": 92}, {"time": 1327, "pitch": 64, "duration": 3, "velocity": 78}, {"time": 1330, "pitch": 40, "duration": 20, "velocity": 97}, {"time": 1336, "pitch": 47, "duration": 15, "velocity": 58}, {"time": 1342, "pitch": 52, "duration": 9, "velocity": 83}, {"time": 1342, "pitch": 59, "duration": 2, "velocity": 64}, {"time": 1342, "pitch": 64, "duration": 7, "velocity": 83}, {"time": 1342, "pitch": 68, "duration": 10, "velocity": 83}, {"time": 1348, "pitch": 59, "duration": 5, "velocity": 79}, {"time": 1354, "pitch": 44, "duration": 23, "velocity": 70}, {"time": 1360, "pitch": 56, "duration": 7, "velocity": 72}, {"time": 1366, "pitch": 64, "duration": 37, "velocity": 75}, {"time": 1372, "pitch": 56, "duration": 10, "velocity": 77}, {"time": 1378, "pitch": 44, "duration": 11, "velocity": 47}, {"time": 1384, "pitch": 56, "duration": 7, "velocity": 81}, {"time": 1390, "pitch": 61, "duration": 12, "velocity": 112}, {"time": 1396, "pitch": 56, "duration": 6, "velocity": 69}, {"time": 1402, "pitch": 38, "duration": 40, "velocity": 71}, {"time": 1408, "pitch": 45, "duration": 42, "velocity": 60}, {"time": 1414, "pitch": 50, "duration": 15, "velocity": 89}, {"time": 1414, "pitch": 66, "duration": 21, "velocity": 96}, {"time": 1420, "pitch": 57, "duration": 24, "velocity": 63}, {"time": 1426, "pitch": 62, "duration": 10, "velocity": 68}, {"time": 1432, "pitch": 50, "duration": 6, "velocity": 67}, {"time": 1438, "pitch": 66, "duration": 7, "velocity": 89}, {"time": 1444, "pitch": 62, "duration": 7, "velocity": 55}, {"time": 1450, "pitch": 38, "duration": 45, "velocity": 68}, {"time": 1450, "pitch": 65, "duration": 22, "velocity": 67}, {"time": 1456, "pitch": 45, "duration": 38, "velocity": 59}, {"time": 1462, "pitch": 50, "duration": 17, "velocity": 70}, {"time": 1468, "pitch": 57, "duration": 9, "velocity": 63}, {"time": 1474, "pitch": 62, "duration": 8, "velocity": 68}, {"time": 1474, "pitch": 65, "duration": 24, "velocity": 66}, {"time": 1480, "pitch": 50, "duration": 15, "velocity": 63}, {"time": 1486, "pitch": 62, "duration": 12, "velocity": 66}, {"time": 1492, "pitch": 57, "duration": 6, "velocity": 59}, {"time": 1498, "pitch": 47, "duration": 37, "velocity": 70}, {"time": 1504, "pitch": 54, "duration": 9, "velocity": 60}, {"time": 1510, "pitch": 59, "duration": 19, "velocity": 65}, {"time": 1516, "pitch": 54, "duration": 9, "velocity": 47}, {"time": 1522, "pitch": 66, "duration": 20, "velocity": 99}, {"time": 1528, "pitch": 54, "duration": 5, "velocity": 50}, {"time": 1534, "pitch": 62, "duration": 12, "velocity": 86}, {"time": 1540, "pitch": 59, "duration": 7, "velocity": 66}, {"time": 1546, "pitch": 45, "duration": 39, "velocity": 77}, {"time": 1552, "pitch": 52, "duration": 36, "velocity": 58}, {"time": 1558, "pitch": 57, "duration": 13, "velocity": 69}, {"time": 1564, "pitch": 61, "duration": 11, "velocity": 72}, {"time": 1570, "pitch": 69, "duration": 25, "velocity": 69}, {"time": 1576, "pitch": 57, "duration": 7, "velocity": 47}, {"time": 1582, "pitch": 61, "duration": 13, "velocity": 99}, {"time": 1588, "pitch": 64, "duration": 7, "velocity": 69}, {"time": 1594, "pitch": 47, "duration": 38, "velocity": 72}, {"time": 1600, "pitch": 54, "duration": 31, "velocity": 59}, {"time": 1606, "pitch": 59, "duration": 13, "velocity": 69}, {"time": 1612, "pitch": 62, "duration": 14, "velocity": 77}, {"time": 1618, "pitch": 71, "duration": 25, "velocity": 81}, {"time": 1624, "pitch": 59, "duration": 5, "velocity": 50}, {"time": 1630, "pitch": 66, "duration": 14, "velocity": 93}, {"time": 1636, "pitch": 62, "duration": 8, "velocity": 55}, {"time": 1642, "pitch": 45, "duration": 38, "velocity": 66}, {"time": 1648, "pitch": 52, "duration": 11, "velocity": 58}, {"time": 1654, "pitch": 57, "duration": 17, "velocity": 62}, {"time": 1660, "pitch": 61, "duration": 7, "velocity": 54}, {"time": 1666, "pitch": 64, "duration": 23, "velocity": 92}, {"time": 1672, "pitch": 52, "duration": 6, "velocity": 55}, {"time": 1678, "pitch": 61, "duration": 18, "velocity": 107}, {"time": 1684, "pitch": 57, "duration": 9, "velocity": 79}, {"time": 1690, "pitch": 42, "duration": 38, "velocity": 89}, {"time": 1696, "pitch": 54, "duration": 8, "velocity": 63}, {"time": 1702, "pitch": 66, "duration": 21, "velocity": 102}, {"time": 1708, "pitch": 54, "duration": 8, "velocity": 62}, {"time": 1714, "pitch": 61, "duration": 13, "velocity": 78}, {"time": 1720, "pitch": 54, "duration": 8, "velocity": 56}, {"time": 1726, "pitch": 66, "duration": 14, "velocity": 102}, {"time": 1732, "pitch": 57, "duration": 7, "velocity": 72}, {"time": 1735, "pitch": 61, "duration": 4, "velocity": 60}, {"time": 1738, "pitch": 37, "duration": 40, "velocity": 78}, {"time": 1744, "pitch": 44, "duration": 34, "velocity": 40}, {"time": 1750, "pitch": 49, "duration": 15, "velocity": 58}, {"time": 1756, "pitch": 52, "duration": 14, "velocity": 68}, {"time": 1762, "pitch": 61, "duration": 26, "velocity": 90}, {"time": 1768, "pitch": 49, "duration": 6, "velocity": 60}, {"time": 1774, "pitch": 56, "duration": 13, "velocity": 88}, {"time": 1777, "pitch": 49, "duration": 2, "velocity": 58}, {"time": 1780, "pitch": 52, "duration": 6, "velocity": 71}, {"time": 1786, "pitch": 38, "duration": 39, "velocity": 62}, {"time": 1792, "pitch": 45, "duration": 34, "velocity": 41}, {"time": 1798, "pitch": 50, "duration": 13, "velocity": 71}, {"time": 1804, "pitch": 57, "duration": 12, "velocity": 64}, {"time": 1810, "pitch": 62, "duration": 13, "velocity": 68}, {"time": 1810, "pitch": 66, "duration": 25, "velocity": 61}, {"time": 1816, "pitch": 50, "duration": 5, "velocity": 72}, {"time": 1822, "pitch": 57, "duration": 14, "velocity": 75}, {"time": 1828, "pitch": 62, "duration": 7, "velocity": 72}, {"time": 1834, "pitch": 40, "duration": 42, "velocity": 68}, {"time": 1840, "pitch": 47, "duration": 36, "velocity": 47}, {"time": 1846, "pitch": 52, "duration": 13, "velocity": 72}, {"time": 1852, "pitch": 59, "duration": 17, "velocity": 72}, {"time": 1858, "pitch": 64, "duration": 8, "velocity": 73}, {"time": 1858, "pitch": 68, "duration": 24, "velocity": 70}, {"time": 1864, "pitch": 52, "duration": 9, "velocity": 72}, {"time": 1870, "pitch": 64, "duration": 12, "velocity": 71}, {"time": 1876, "pitch": 59, "duration": 6, "velocity": 76}, {"time": 1882, "pitch": 38, "duration": 17, "velocity": 96}, {"time": 1885, "pitch": 45, "duration": 20, "velocity": 93}, {"time": 1888, "pitch": 50, "duration": 7, "velocity": 89}, {"time": 1891, "pitch": 57, "duration": 2, "velocity": 82}, {"time": 1894, "pitch": 62, "duration": 6, "velocity": 95}, {"time": 1894, "pitch": 66, "duration": 12, "velocity": 99}, {"time": 1897, "pitch": 50, "duration": 5, "velocity": 93}, {"time": 1900, "pitch": 57, "duration": 6, "velocity": 96}, {"time": 1903, "pitch": 62, "duration": 3, "velocity": 85}, {"time": 1906, "pitch": 40, "duration": 16, "velocity": 79}, {"time": 1909, "pitch": 47, "duration": 14, "velocity": 97}, {"time": 1912, "pitch": 52, "duration": 7, "velocity": 92}, {"time": 1915, "pitch": 59, "duration": 5, "velocity": 82}, {"time": 1918, "pitch": 64, "duration": 7, "velocity": 96}, {"time": 1918, "pitch": 68, "duration": 7, "velocity": 107}, {"time": 1921, "pitch": 52, "duration": 1, "velocity": 89}, {"time": 1924, "pitch": 59, "duration": 6, "velocity": 96}, {"time": 1927, "pitch": 64, "duration": 2, "velocity": 79}, {"time": 1927, "pitch": 68, "duration": 3, "velocity": 97}, {"time": 1930, "pitch": 37, "duration": 16, "velocity": 82}, {"time": 1933, "pitch": 44, "duration": 13, "velocity": 39}, {"time": 1936, "pitch": 49, "duration": 7, "velocity": 92}, {"time": 1939, "pitch": 52, "duration": 4, "velocity": 92}, {"time": 1942, "pitch": 56, "duration": 7, "velocity": 95}, {"time": 1942, "pitch": 61, "duration": 6, "velocity": 100}, {"time": 1945, "pitch": 49, "duration": 3, "velocity": 93}, {"time": 1948, "pitch": 52, "duration": 5, "velocity": 96}, {"time": 1951, "pitch": 56, "duration": 2, "velocity": 95}, {"time": 1951, "pitch": 61, "duration": 2, "velocity": 97}, {"time": 1954, "pitch": 42, "duration": 17, "velocity": 95}, {"time": 1957, "pitch": 49, "duration": 13, "velocity": 44}, {"time": 1960, "pitch": 54, "duration": 7, "velocity": 99}, {"time": 1963, "pitch": 57, "duration": 4, "velocity": 90}, {"time": 1966, "pitch": 61, "duration": 6, "velocity": 102}, {"time": 1966, "pitch": 66, "duration": 11, "velocity": 107}, {"time": 1969, "pitch": 54, "duration": 3, "velocity": 97}, {"time": 1972, "pitch": 57, "duration": 4, "velocity": 96}, {"time": 1975, "pitch": 61, "duration": 2, "velocity": 117}, {"time": 1978, "pitch": 47, "duration": 17, "velocity": 72}, {"time": 1981, "pitch": 54, "duration": 10, "velocity": 86}, {"time": 1984, "pitch": 59, "duration": 2, "velocity": 93}, {"time": 1987, "pitch": 62, "duration": 2, "velocity": 77}, {"time": 1987, "pitch": 66, "duration": 1, "velocity": 83}, {"time": 1990, "pitch": 62, "duration": 7, "velocity": 100}, {"time": 1990, "pitch": 66, "duration": 7, "velocity": 107}, {"time": 1993, "pitch": 54, "duration": 1, "velocity": 97}, {"time": 1996, "pitch": 59, "duration": 5, "velocity": 117}, {"time": 1999, "pitch": 62, "duration": 2, "velocity": 88}, {"time": 1999, "pitch": 66, "duration": 2, "velocity": 99}, {"time": 2002, "pitch": 37, "duration": 21, "velocity": 89}, {"time": 2005, "pitch": 44, "duration": 17, "velocity": 33}, {"time": 2008, "pitch": 49, "duration": 7, "velocity": 83}, {"time": 2011, "pitch": 53, "duration": 1, "velocity": 55}, {"time": 2011, "pitch": 56, "duration": 2, "velocity": 69}, {"time": 2011, "pitch": 61, "duration": 1, "velocity": 55}, {"time": 2014, "pitch": 53, "duration": 1, "velocity": 48}, {"time": 2014, "pitch": 56, "duration": 4, "velocity": 102}, {"time": 2014, "pitch": 61, "duration": 4, "velocity": 100}, {"time": 2017, "pitch": 49, "duration": 8, "velocity": 97}, {"time": 2020, "pitch": 53, "duration": 6, "velocity": 102}, {"time": 2023, "pitch": 56, "duration": 2, "velocity": 97}, {"time": 2023, "pitch": 61, "duration": 3, "velocity": 107}, {"time": 2026, "pitch": 45, "duration": 38, "velocity": 66}, {"time": 2032, "pitch": 52, "duration": 11, "velocity": 58}, {"time": 2038, "pitch": 57, "duration": 17, "velocity": 62}, {"time": 2044, "pitch": 61, "duration": 7, "velocity": 54}, {"time": 2050, "pitch": 64, "duration": 23, "velocity": 92}, {"time": 2056, "pitch": 52, "duration": 6, "velocity": 55}, {"time": 2062, "pitch": 61, "duration": 18, "velocity": 107}, {"time": 2068, "pitch": 57, "duration": 9, "velocity": 79}, {"time": 2074, "pitch": 42, "duration": 38, "velocity": 89}, {"time": 2080, "pitch": 54, "duration": 8, "velocity": 63}, {"time": 2086, "pitch": 66, "duration": 21, "velocity": 102}, {"time": 2092, "pitch": 54, "duration": 8, "velocity": 62}, {"time": 2098, "pitch": 61, "duration": 13, "velocity": 78}, {"time": 2104, "pitch": 54, "duration": 8, "velocity": 56}, {"time": 2110, "pitch": 66, "duration": 14, "velocity": 102}, {"time": 2116, "pitch": 57, "duration": 7, "velocity": 72}, {"time": 2119, "pitch": 61, "duration": 4, "velocity": 60}, {"time": 2122, "pitch": 37, "duration": 18, "velocity": 95}, {"time": 2125, "pitch": 44, "duration": 15, "velocity": 63}, {"time": 2128, "pitch": 49, "duration": 7, "velocity": 90}, {"time": 2131, "pitch": 56, "duration": 5, "velocity": 69}, {"time": 2134, "pitch": 64, "duration": 10, "velocity": 93}, {"time": 2137, "pitch": 49, "duration": 5, "velocity": 93}, {"time": 2140, "pitch": 56, "duration": 3, "velocity": 96}, {"time": 2143, "pitch": 61, "duration": 4, "velocity": 100}, {"time": 2146, "pitch": 42, "duration": 16, "velocity": 75}, {"time": 2149, "pitch": 49, "duration": 13, "velocity": 67}, {"time": 2152, "pitch": 54, "duration": 6, "velocity": 99}, {"time": 2155, "pitch": 57, "duration": 6, "velocity": 85}, {"time": 2158, "pitch": 66, "duration": 11, "velocity": 117}, {"time": 2161, "pitch": 54, "duration": 4, "velocity": 96}, {"time": 2164, "pitch": 61, "duration": 4, "velocity": 122}, {"time": 2167, "pitch": 57, "duration": 2, "velocity": 96}, {"time": 2170, "pitch": 47, "duration": 22, "velocity": 69}, {"time": 2173, "pitch": 54, "duration": 10, "velocity": 88}, {"time": 2176, "pitch": 59, "duration": 3, "velocity": 93}, {"time": 2179, "pitch": 62, "duration": 3, "velocity": 88}, {"time": 2182, "pitch": 66, "duration": 13, "velocity": 117}, {"time": 2185, "pitch": 54, "duration": 9, "velocity": 100}, {"time": 2188, "pitch": 62, "duration": 7, "velocity": 93}, {"time": 2191, "pitch": 59, "duration": 4, "velocity": 97}, {"time": 2194, "pitch": 47, "duration": 24, "velocity": 79}, {"time": 2197, "pitch": 54, "duration": 10, "velocity": 85}, {"time": 2200, "pitch": 59, "duration": 4, "velocity": 96}, {"time": 2203, "pitch": 62, "duration": 3, "velocity": 90}, {"time": 2206, "pitch": 66, "duration": 12, "velocity": 122}, {"time": 2209, "pitch": 54, "duration": 8, "velocity": 96}, {"time": 2212, "pitch": 62, "duration": 6, "velocity": 102}, {"time": 2215, "pitch": 59, "duration": 3, "velocity": 112}, {"time": 2218, "pitch": 40, "duration": 16, "velocity": 73}, {"time": 2218, "pitch": 59, "duration": 1, "velocity": 59}, {"time": 2218, "pitch": 64, "duration": 4, "velocity": 68}, {"time": 2218, "pitch": 68, "duration": 4, "velocity": 62}, {"time": 2224, "pitch": 47, "duration": 10, "velocity": 46}, {"time": 2224, "pitch": 59, "duration": 4, "velocity": 60}, {"time": 2224, "pitch": 64, "duration": 4, "velocity": 62}, {"time": 2224, "pitch": 68, "duration": 4, "velocity": 59}, {"time": 2230, "pitch": 52, "duration": 3, "velocity": 34}, {"time": 2230, "pitch": 59, "duration": 4, "velocity": 78}, {"time": 2230, "pitch": 64, "duration": 4, "velocity": 74}, {"time": 2230, "pitch": 68, "duration": 4, "velocity": 68}, {"time": 2236, "pitch": 40, "duration": 2, "velocity": 42}, {"time": 2236, "pitch": 47, "duration": 2, "velocity": 52}, {"time": 2236, "pitch": 52, "duration": 2, "velocity": 55}, {"time": 2236, "pitch": 59, "duration": 3, "velocity": 75}, {"time": 2236, "pitch": 64, "duration": 3, "velocity": 74}, {"time": 2236, "pitch": 68, "duration": 3, "velocity": 69}, {"time": 2242, "pitch": 40, "duration": 2, "velocity": 52}, {"time": 2242, "pitch": 47, "duration": 2, "velocity": 43}, {"time": 2242, "pitch": 52, "duration": 3, "velocity": 75}, {"time": 2242, "pitch": 59, "duration": 3, "velocity": 83}, {"time": 2242, "pitch": 64, "duration": 4, "velocity": 85}, {"time": 2242, "pitch": 68, "duration": 3, "velocity": 83}, {"time": 2248, "pitch": 40, "duration": 3, "velocity": 69}, {"time": 2248, "pitch": 52, "duration": 3, "velocity": 85}, {"time": 2248, "pitch": 59, "duration": 3, "velocity": 89}, {"time": 2248, "pitch": 64, "duration": 4, "velocity": 93}, {"time": 2248, "pitch": 68, "duration": 3, "velocity": 97}, {"time": 2254, "pitch": 40, "duration": 2, "velocity": 66}, {"time": 2254, "pitch": 52, "duration": 2, "velocity": 88}, {"time": 2254, "pitch": 59, "duration": 3, "velocity": 82}, {"time": 2254, "pitch": 64, "duration": 4, "velocity": 83}, {"time": 2254, "pitch": 68, "duration": 4, "velocity": 86}, {"time": 2260, "pitch": 59, "duration": 5, "velocity": 88}, {"time": 2260, "pitch": 64, "duration": 4, "velocity": 93}, {"time": 2260, "pitch": 68, "duration": 4, "velocity": 92}, {"time": 2266, "pitch": 38, "duration": 22, "velocity": 86}, {"time": 2269, "pitch": 45, "duration": 20, "velocity": 96}, {"time": 2272, "pitch": 50, "duration": 6, "velocity": 85}, {"time": 2275, "pitch": 57, "duration": 4, "velocity": 90}, {"time": 2278, "pitch": 62, "duration": 7, "velocity": 95}, {"time": 2278, "pitch": 66, "duration": 7, "velocity": 112}, {"time": 2281, "pitch": 50, "duration": 6, "velocity": 97}, {"time": 2284, "pitch": 57, "duration": 7, "velocity": 92}, {"time": 2287, "pitch": 62, "duration": 4, "velocity": 89}, {"time": 2287, "pitch": 66, "duration": 4, "velocity": 99}, {"time": 2290, "pitch": 40, "duration": 16, "velocity": 78}, {"time": 2293, "pitch": 47, "duration": 13, "velocity": 97}, {"time": 2296, "pitch": 52, "duration": 7, "velocity": 92}, {"time": 2299, "pitch": 59, "duration": 2, "velocity": 82}, {"time": 2299, "pitch": 64, "duration": 2, "velocity": 92}, {"time": 2299, "pitch": 68, "duration": 1, "velocity": 90}, {"time": 2302, "pitch": 59, "duration": 1, "velocity": 58}, {"time": 2302, "pitch": 64, "duration": 5, "velocity": 95}, {"time": 2302, "pitch": 68, "duration": 11, "velocity": 112}, {"time": 2305, "pitch": 52, "duration": 1, "velocity": 100}, {"time": 2308, "pitch": 59, "duration": 6, "velocity": 100}, {"time": 2311, "pitch": 64, "duration": 3, "velocity": 92}, {"time": 2314, "pitch": 37, "duration": 16, "velocity": 88}, {"time": 2317, "pitch": 44, "duration": 12, "velocity": 40}, {"time": 2320, "pitch": 49, "duration": 6, "velocity": 93}, {"time": 2323, "pitch": 52, "duration": 1, "velocity": 74}, {"time": 2323, "pitch": 56, "duration": 1, "velocity": 95}, {"time": 2323, "pitch": 61, "duration": 2, "velocity": 85}, {"time": 2326, "pitch": 56, "duration": 7, "velocity": 99}, {"time": 2326, "pitch": 61, "duration": 12, "velocity": 99}, {"time": 2329, "pitch": 49, "duration": 2, "velocity": 107}, {"time": 2332, "pitch": 52, "duration": 5, "velocity": 100}, {"time": 2335, "pitch": 56, "duration": 2, "velocity": 95}, {"time": 2338, "pitch": 42, "duration": 21, "velocity": 82}, {"time": 2341, "pitch": 49, "duration": 15, "velocity": 44}, {"time": 2344, "pitch": 54, "duration": 6, "velocity": 97}, {"time": 2347, "pitch": 57, "duration": 4, "velocity": 81}, {"time": 2347, "pitch": 61, "duration": 4, "velocity": 95}, {"time": 2347, "pitch": 66, "duration": 4, "velocity": 89}, {"time": 2353, "pitch": 61, "duration": 7, "velocity": 112}, {"time": 2353, "pitch": 66, "duration": 8, "velocity": 112}, {"time": 2356, "pitch": 54, "duration": 3, "velocity": 67}, {"time": 2359, "pitch": 57, "duration": 3, "velocity": 107}, {"time": 2362, "pitch": 47, "duration": 16, "velocity": 82}, {"time": 2365, "pitch": 54, "duration": 10, "velocity": 97}, {"time": 2368, "pitch": 59, "duration": 3, "velocity": 93}, {"time": 2371, "pitch": 62, "duration": 2, "velocity": 88}, {"time": 2371, "pitch": 66, "duration": 2, "velocity": 95}, {"time": 2374, "pitch": 62, "duration": 6, "velocity": 100}, {"time": 2374, "pitch": 66, "duration": 10, "velocity": 107}, {"time": 2377, "pitch": 54, "duration": 1, "velocity": 99}, {"time": 2380, "pitch": 59, "duration": 6, "velocity": 100}, {"time": 2383, "pitch": 62, "duration": 2, "velocity": 107}, {"time": 2386, "pitch": 37, "duration": 17, "velocity": 97}, {"time": 2389, "pitch": 44, "duration": 13, "velocity": 34}, {"time": 2392, "pitch": 49, "duration": 7, "velocity": 97}, {"time": 2395, "pitch": 53, "duration": 4, "velocity": 95}, {"time": 2398, "pitch": 56, "duration": 7, "velocity": 96}, {"time": 2398, "pitch": 61, "duration": 7, "velocity": 99}, {"time": 2401, "pitch": 49, "duration": 4, "velocity": 117}, {"time": 2404, "pitch": 53, "duration": 4, "velocity": 100}, {"time": 2407, "pitch": 56, "duration": 2, "velocity": 117}, {"time": 2407, "pitch": 61, "duration": 2, "velocity": 112}, {"time": 2410, "pitch": 42, "duration": 10, "velocity": 78}, {"time": 2413, "pitch": 49, "duration": 8, "velocity": 97}, {"time": 2416, "pitch": 54, "duration": 5, "velocity": 102}, {"time": 2419, "pitch": 57, "duration": 4, "velocity": 99}, {"time": 2422, "pitch": 44, "duration": 10, "velocity": 107}, {"time": 2425, "pitch": 56, "duration": 7, "velocity": 99}, {"time": 2428, "pitch": 57, "duration": 5, "velocity": 90}, {"time": 2431, "pitch": 66, "duration": 2, "velocity": 107}, {"time": 2434, "pitch": 45, "duration": 16, "velocity": 90}, {"time": 2437, "pitch": 52, "duration": 9, "velocity": 86}, {"time": 2440, "pitch": 57, "duration": 3, "velocity": 117}, {"time": 2443, "pitch": 61, "duration": 2, "velocity": 107}, {"time": 2446, "pitch": 64, "duration": 12, "velocity": 100}, {"time": 2449, "pitch": 52, "duration": 2, "velocity": 102}, {"time": 2452, "pitch": 61, "duration": 6, "velocity": 127}, {"time": 2455, "pitch": 59, "duration": 3, "velocity": 102}, {"time": 2458, "pitch": 38, "duration": 21, "velocity": 102}, {"time": 2461, "pitch": 45, "duration": 20, "velocity": 95}, {"time": 2464, "pitch": 50, "duration": 7, "velocity": 82}, {"time": 2467, "pitch": 57, "duration": 4, "velocity": 89}, {"time": 2470, "pitch": 62, "duration": 6, "velocity": 83}, {"time": 2470, "pitch": 66, "duration": 12, "velocity": 100}, {"time": 2473, "pitch": 50, "duration": 3, "velocity": 89}, {"time": 2476, "pitch": 57, "duration": 7, "velocity": 99}, {"time": 2479, "pitch": 62, "duration": 7, "velocity": 99}, {"time": 2482, "pitch": 40, "duration": 16, "velocity": 86}, {"time": 2485, "pitch": 47, "duration": 14, "velocity": 85}, {"time": 2488, "pitch": 52, "duration": 7, "velocity": 85}, {"time": 2491, "pitch": 59, "duration": 2, "velocity": 82}, {"time": 2491, "pitch": 64, "duration": 2, "velocity": 86}, {"time": 2491, "pitch": 68, "duration": 2, "velocity": 89}, {"time": 2494, "pitch": 59, "duration": 1, "velocity": 58}, {"time": 2494, "pitch": 64, "duration": 5, "velocity": 86}, {"time": 2494, "pitch": 68, "duration": 12, "velocity": 100}, {"time": 2497, "pitch": 52, "duration": 1, "velocity": 100}, {"time": 2500, "pitch": 59, "duration": 6, "velocity": 97}, {"time": 2503, "pitch": 64, "duration": 3, "velocity": 96}, {"time": 2506, "pitch": 37, "duration": 16, "velocity": 92}, {"time": 2509, "pitch": 44, "duration": 13, "velocity": 37}, {"time": 2512, "pitch": 49, "duration": 7, "velocity": 83}, {"time": 2515, "pitch": 52, "duration": 4, "velocity": 85}, {"time": 2515, "pitch": 56, "duration": 1, "velocity": 62}, {"time": 2515, "pitch": 61, "duration": 1, "velocity": 50}, {"time": 2518, "pitch": 56, "duration": 7, "velocity": 96}, {"time": 2518, "pitch": 61, "duration": 7, "velocity": 100}, {"time": 2521, "pitch": 49, "duration": 4, "velocity": 102}, {"time": 2524, "pitch": 52, "duration": 5, "velocity": 97}, {"time": 2527, "pitch": 56, "duration": 2, "velocity": 102}, {"time": 2527, "pitch": 61, "duration": 2, "velocity": 90}, {"time": 2530, "pitch": 42, "duration": 16, "velocity": 76}, {"time": 2533, "pitch": 49, "duration": 12, "velocity": 38}, {"time": 2536, "pitch": 54, "duration": 7, "velocity": 93}, {"time": 2539, "pitch": 57, "duration": 1, "velocity": 73}, {"time": 2539, "pitch": 61, "duration": 2, "velocity": 92}, {"time": 2539, "pitch": 66, "duration": 2, "velocity": 86}, {"time": 2542, "pitch": 61, "duration": 7, "velocity": 97}, {"time": 2542, "pitch": 66, "duration": 7, "velocity": 100}, {"time": 2545, "pitch": 54, "duration": 3, "velocity": 100}, {"time": 2548, "pitch": 57, "duration": 4, "velocity": 100}, {"time": 2551, "pitch": 47, "duration": 22, "velocity": 73}, {"time": 2551, "pitch": 61, "duration": 2, "velocity": 112}, {"time": 2551, "pitch": 66, "duration": 2, "velocity": 56}, {"time": 2557, "pitch": 54, "duration": 11, "velocity": 79}, {"time": 2560, "pitch": 59, "duration": 4, "velocity": 81}, {"time": 2563, "pitch": 62, "duration": 2, "velocity": 85}, {"time": 2563, "pitch": 66, "duration": 2, "velocity": 95}, {"time": 2566, "pitch": 62, "duration": 4, "velocity": 96}, {"time": 2566, "pitch": 66, "duration": 4, "velocity": 102}, {"time": 2569, "pitch": 54, "duration": 3, "velocity": 96}, {"time": 2572, "pitch": 62, "duration": 2, "velocity": 96}, {"time": 2572, "pitch": 66, "duration": 2, "velocity": 100}, {"time": 2575, "pitch": 59, "duration": 3, "velocity": 97}, {"time": 2575, "pitch": 62, "duration": 2, "velocity": 59}, {"time": 2575, "pitch": 66, "duration": 1, "velocity": 63}, {"time": 2578, "pitch": 40, "duration": 22, "velocity": 95}, {"time": 2581, "pitch": 47, "duration": 18, "velocity": 88}, {"time": 2584, "pitch": 52, "duration": 6, "velocity": 95}, {"time": 2587, "pitch": 59, "duration": 4, "velocity": 86}, {"time": 2590, "pitch": 64, "duration": 6, "velocity": 112}, {"time": 2590, "pitch": 68, "duration": 7, "velocity": 117}, {"time": 2593, "pitch": 52, "duration": 7, "velocity": 100}, {"time": 2593, "pitch": 59, "duration": 5, "velocity": 95}, {"time": 2596, "pitch": 64, "duration": 1, "velocity": 93}, {"time": 2596, "pitch": 68, "duration": 1, "velocity": 72}, {"time": 2599, "pitch": 45, "duration": 23, "velocity": 97}, {"time": 2602, "pitch": 52, "duration": 10, "velocity": 89}, {"time": 2608, "pitch": 57, "duration": 3, "velocity": 99}, {"time": 2611, "pitch": 61, "duration": 4, "velocity": 100}, {"time": 2614, "pitch": 64, "duration": 8, "velocity": 99}, {"time": 2617, "pitch": 52, "duration": 9, "velocity": 97}, {"time": 2620, "pitch": 61, "duration": 2, "velocity": 112}, {"time": 2623, "pitch": 57, "duration": 5, "velocity": 117}, {"time": 2623, "pitch": 61, "duration": 5, "velocity": 117}, {"time": 2623, "pitch": 64, "duration": 9, "velocity": 95}, {"time": 2626, "pitch": 45, "duration": 24, "velocity": 92}, {"time": 2629, "pitch": 52, "duration": 9, "velocity": 97}, {"time": 2635, "pitch": 57, "duration": 2, "velocity": 74}, {"time": 2635, "pitch": 61, "duration": 2, "velocity": 75}, {"time": 2635, "pitch": 64, "duration": 2, "velocity": 72}, {"time": 2638, "pitch": 57, "duration": 2, "velocity": 86}, {"time": 2638, "pitch": 61, "duration": 3, "velocity": 107}, {"time": 2638, "pitch": 64, "duration": 4, "velocity": 96}, {"time": 2641, "pitch": 52, "duration": 8, "velocity": 93}, {"time": 2644, "pitch": 57, "duration": 2, "velocity": 90}, {"time": 2644, "pitch": 61, "duration": 2, "velocity": 117}, {"time": 2644, "pitch": 64, "duration": 2, "velocity": 97}, {"time": 2647, "pitch": 57, "duration": 3, "velocity": 85}, {"time": 2647, "pitch": 61, "duration": 3, "velocity": 97}, {"time": 2647, "pitch": 64, "duration": 3, "velocity": 89}, {"time": 2650, "pitch": 38, "duration": 21, "velocity": 78}, {"time": 2653, "pitch": 45, "duration": 19, "velocity": 66}, {"time": 2656, "pitch": 50, "duration": 7, "velocity": 82}, {"time": 2659, "pitch": 57, "duration": 6, "velocity": 83}, {"time": 2662, "pitch": 66, "duration": 10, "velocity": 107}, {"time": 2665, "pitch": 50, "duration": 2, "velocity": 81}, {"time": 2668, "pitch": 62, "duration": 4, "velocity": 90}, {"time": 2671, "pitch": 57, "duration": 3, "velocity": 96}, {"time": 2674, "pitch": 40, "duration": 15, "velocity": 77}, {"time": 2677, "pitch": 47, "duration": 12, "velocity": 67}, {"time": 2680, "pitch": 52, "duration": 5, "velocity": 85}, {"time": 2683, "pitch": 59, "duration": 6, "velocity": 93}, {"time": 2686, "pitch": 52, "duration": 1, "velocity": 78}, {"time": 2686, "pitch": 68, "duration": 11, "velocity": 102}, {"time": 2692, "pitch": 64, "duration": 5, "velocity": 86}, {"time": 2695, "pitch": 59, "duration": 3, "velocity": 89}, {"time": 2698, "pitch": 37, "duration": 16, "velocity": 89}, {"time": 2701, "pitch": 44, "duration": 12, "velocity": 35}, {"time": 2704, "pitch": 49, "duration": 7, "velocity": 83}, {"time": 2707, "pitch": 61, "duration": 7, "velocity": 88}, {"time": 2710, "pitch": 68, "duration": 11, "velocity": 102}, {"time": 2713, "pitch": 49, "duration": 3, "velocity": 90}, {"time": 2716, "pitch": 64, "duration": 4, "velocity": 59}, {"time": 2719, "pitch": 61, "duration": 3, "velocity": 92}, {"time": 2722, "pitch": 42, "duration": 16, "velocity": 69}, {"time": 2725, "pitch": 49, "duration": 12, "velocity": 61}, {"time": 2728, "pitch": 54, "duration": 6, "velocity": 82}, {"time": 2731, "pitch": 57, "duration": 6, "velocity": 82}, {"time": 2734, "pitch": 66, "duration": 12, "velocity": 100}, {"time": 2737, "pitch": 54, "duration": 3, "velocity": 82}, {"time": 2740, "pitch": 61, "duration": 5, "velocity": 99}, {"time": 2743, "pitch": 57, "duration": 2, "velocity": 88}, {"time": 2746, "pitch": 47, "duration": 17, "velocity": 64}, {"time": 2749, "pitch": 54, "duration": 10, "velocity": 78}, {"time": 2752, "pitch": 59, "duration": 3, "velocity": 88}, {"time": 2755, "pitch": 62, "duration": 3, "velocity": 95}, {"time": 2758, "pitch": 66, "duration": 11, "velocity": 107}, {"time": 2761, "pitch": 54, "duration": 1, "velocity": 78}, {"time": 2764, "pitch": 62, "duration": 5, "velocity": 93}, {"time": 2767, "pitch": 59, "duration": 3, "velocity": 88}, {"time": 2770, "pitch": 37, "duration": 17, "velocity": 81}, {"time": 2773, "pitch": 44, "duration": 15, "velocity": 54}, {"time": 2776, "pitch": 49, "duration": 6, "velocity": 71}, {"time": 2779, "pitch": 61, "duration": 4, "velocity": 95}, {"time": 2782, "pitch": 65, "duration": 4, "velocity": 69}, {"time": 2782, "pitch": 68, "duration": 12, "velocity": 81}, {"time": 2785, "pitch": 49, "duration": 7, "velocity": 99}, {"time": 2788, "pitch": 61, "duration": 6, "velocity": 92}, {"time": 2791, "pitch": 65, "duration": 2, "velocity": 37}, {"time": 2794, "pitch": 42, "duration": 10, "velocity": 64}, {"time": 2797, "pitch": 54, "duration": 8, "velocity": 93}, {"time": 2800, "pitch": 61, "duration": 5, "velocity": 88}, {"time": 2803, "pitch": 70, "duration": 3, "velocity": 76}, {"time": 2806, "pitch": 44, "duration": 9, "velocity": 95}, {"time": 2809, "pitch": 61, "duration": 6, "velocity": 77}, {"time": 2812, "pitch": 66, "duration": 3, "velocity": 39}, {"time": 2815, "pitch": 70, "duration": 2, "velocity": 74}, {"time": 2818, "pitch": 45, "duration": 17, "velocity": 83}, {"time": 2821, "pitch": 52, "duration": 9, "velocity": 89}, {"time": 2824, "pitch": 57, "duration": 7, "velocity": 73}, {"time": 2827, "pitch": 61, "duration": 3, "velocity": 82}, {"time": 2830, "pitch": 64, "duration": 10, "velocity": 86}, {"time": 2833, "pitch": 52, "duration": 1, "velocity": 74}, {"time": 2836, "pitch": 61, "duration": 4, "velocity": 99}, {"time": 2839, "pitch": 57, "duration": 4, "velocity": 82}, {"time": 2842, "pitch": 38, "duration": 22, "velocity": 82}, {"time": 2845, "pitch": 45, "duration": 21, "velocity": 78}, {"time": 2848, "pitch": 50, "duration": 6, "velocity": 92}, {"time": 2851, "pitch": 57, "duration": 5, "velocity": 82}, {"time": 2854, "pitch": 66, "duration": 12, "velocity": 112}, {"time": 2857, "pitch": 50, "duration": 3, "velocity": 99}, {"time": 2860, "pitch": 62, "duration": 6, "velocity": 96}, {"time": 2863, "pitch": 57, "duration": 3, "velocity": 92}, {"time": 2866, "pitch": 40, "duration": 16, "velocity": 92}, {"time": 2869, "pitch": 47, "duration": 13, "velocity": 89}, {"time": 2872, "pitch": 52, "duration": 6, "velocity": 96}, {"time": 2875, "pitch": 59, "duration": 7, "velocity": 96}, {"time": 2878, "pitch": 68, "duration": 11, "velocity": 107}, {"time": 2881, "pitch": 52, "duration": 1, "velocity": 72}, {"time": 2884, "pitch": 64, "duration": 5, "velocity": 85}, {"time": 2887, "pitch": 59, "duration": 3, "velocity": 90}, {"time": 2890, "pitch": 37, "duration": 16, "velocity": 67}, {"time": 2893, "pitch": 44, "duration": 13, "velocity": 35}, {"time": 2896, "pitch": 49, "duration": 6, "velocity": 78}, {"time": 2899, "pitch": 61, "duration": 7, "velocity": 89}, {"time": 2902, "pitch": 68, "duration": 11, "velocity": 99}, {"time": 2905, "pitch": 49, "duration": 4, "velocity": 90}, {"time": 2908, "pitch": 64, "duration": 5, "velocity": 38}, {"time": 2911, "pitch": 61, "duration": 3, "velocity": 96}, {"time": 2914, "pitch": 42, "duration": 16, "velocity": 72}, {"time": 2917, "pitch": 49, "duration": 12, "velocity": 66}, {"time": 2920, "pitch": 54, "duration": 6, "velocity": 85}, {"time": 2923, "pitch": 66, "duration": 5, "velocity": 99}, {"time": 2926, "pitch": 73, "duration": 11, "velocity": 117}, {"time": 2929, "pitch": 54, "duration": 3, "velocity": 93}, {"time": 2932, "pitch": 69, "duration": 4, "velocity": 59}, {"time": 2935, "pitch": 66, "duration": 3, "velocity": 81}, {"time": 2938, "pitch": 47, "duration": 18, "velocity": 62}, {"time": 2941, "pitch": 54, "duration": 10, "velocity": 72}, {"time": 2944, "pitch": 59, "duration": 3, "velocity": 89}, {"time": 2947, "pitch": 62, "duration": 2, "velocity": 88}, {"time": 2950, "pitch": 66, "duration": 11, "velocity": 107}, {"time": 2953, "pitch": 54, "duration": 1, "velocity": 88}, {"time": 2956, "pitch": 62, "duration": 4, "velocity": 96}, {"time": 2959, "pitch": 59, "duration": 3, "velocity": 93}, {"time": 2962, "pitch": 47, "duration": 17, "velocity": 67}, {"time": 2965, "pitch": 54, "duration": 13, "velocity": 73}, {"time": 2968, "pitch": 59, "duration": 6, "velocity": 69}, {"time": 2971, "pitch": 62, "duration": 4, "velocity": 74}, {"time": 2974, "pitch": 71, "duration": 11, "velocity": 88}, {"time": 2977, "pitch": 59, "duration": 2, "velocity": 82}, {"time": 2980, "pitch": 66, "duration": 4, "velocity": 86}, {"time": 2983, "pitch": 62, "duration": 2, "velocity": 85}, {"time": 2986, "pitch": 40, "duration": 22, "velocity": 78}, {"time": 2989, "pitch": 47, "duration": 21, "velocity": 67}, {"time": 2992, "pitch": 52, "duration": 7, "velocity": 85}, {"time": 2995, "pitch": 59, "duration": 6, "velocity": 68}, {"time": 2998, "pitch": 64, "duration": 7, "velocity": 90}, {"time": 2998, "pitch": 68, "duration": 7, "velocity": 100}, {"time": 3001, "pitch": 52, "duration": 12, "velocity": 96}, {"time": 3004, "pitch": 59, "duration": 4, "velocity": 85}, {"time": 3007, "pitch": 64, "duration": 2, "velocity": 75}, {"time": 3007, "pitch": 68, "duration": 2, "velocity": 88}, {"time": 3010, "pitch": 40, "duration": 17, "velocity": 90}, {"time": 3010, "pitch": 59, "duration": 7, "velocity": 86}, {"time": 3010, "pitch": 64, "duration": 8, "velocity": 100}, {"time": 3010, "pitch": 68, "duration": 10, "velocity": 102}, {"time": 3013, "pitch": 47, "duration": 14, "velocity": 68}, {"time": 3016, "pitch": 52, "duration": 7, "velocity": 89}, {"time": 3019, "pitch": 59, "duration": 4, "velocity": 69}, {"time": 3019, "pitch": 64, "duration": 1, "velocity": 31}, {"time": 3022, "pitch": 64, "duration": 10, "velocity": 82}, {"time": 3022, "pitch": 68, "duration": 11, "velocity": 95}, {"time": 3025, "pitch": 52, "duration": 2, "velocity": 73}, {"time": 3028, "pitch": 59, "duration": 6, "velocity": 72}, {"time": 3031, "pitch": 38, "duration": 22, "velocity": 71}, {"time": 3040, "pitch": 45, "duration": 19, "velocity": 37}, {"time": 3046, "pitch": 50, "duration": 10, "velocity": 37}, {"time": 3046, "pitch": 62, "duration": 14, "velocity": 63}, {"time": 3046, "pitch": 66, "duration": 14, "velocity": 56}, {"time": 3058, "pitch": 40, "duration": 16, "velocity": 50}, {"time": 3064, "pitch": 47, "duration": 10, "velocity": 53}, {"time": 3070, "pitch": 52, "duration": 3, "velocity": 52}, {"time": 3070, "pitch": 64, "duration": 12, "velocity": 61}, {"time": 3070, "pitch": 68, "duration": 2, "velocity": 42}, {"time": 3073, "pitch": 68, "duration": 9, "velocity": 24}, {"time": 3076, "pitch": 59, "duration": 7, "velocity": 59}, {"time": 3082, "pitch": 37, "duration": 15, "velocity": 61}, {"time": 3088, "pitch": 44, "duration": 10, "velocity": 27}, {"time": 3094, "pitch": 49, "duration": 7, "velocity": 39}, {"time": 3094, "pitch": 68, "duration": 13, "velocity": 57}, {"time": 3100, "pitch": 61, "duration": 7, "velocity": 56}, {"time": 3106, "pitch": 42, "duration": 16, "velocity": 47}, {"time": 3112, "pitch": 49, "duration": 10, "velocity": 30}, {"time": 3118, "pitch": 54, "duration": 5, "velocity": 36}, {"time": 3118, "pitch": 61, "duration": 11, "velocity": 74}, {"time": 3124, "pitch": 57, "duration": 6, "velocity": 66}, {"time": 3130, "pitch": 47, "duration": 12, "velocity": 72}, {"time": 3136, "pitch": 54, "duration": 5, "velocity": 56}, {"time": 3142, "pitch": 66, "duration": 12, "velocity": 102}, {"time": 3148, "pitch": 59, "duration": 7, "velocity": 72}, {"time": 3154, "pitch": 37, "duration": 16, "velocity": 75}, {"time": 3160, "pitch": 44, "duration": 10, "velocity": 40}, {"time": 3166, "pitch": 49, "duration": 9, "velocity": 46}, {"time": 3166, "pitch": 56, "duration": 12, "velocity": 83}, {"time": 3172, "pitch": 53, "duration": 5, "velocity": 71}, {"time": 3178, "pitch": 42, "duration": 12, "velocity": 47}, {"time": 3184, "pitch": 54, "duration": 5, "velocity": 86}, {"time": 3190, "pitch": 44, "duration": 10, "velocity": 72}, {"time": 3196, "pitch": 56, "duration": 5, "velocity": 67}, {"time": 3202, "pitch": 45, "duration": 24, "velocity": 56}, {"time": 3208, "pitch": 52, "duration": 8, "velocity": 53}, {"time": 3214, "pitch": 64, "duration": 12, "velocity": 82}, {"time": 3217, "pitch": 52, "duration": 7, "velocity": 56}, {"time": 3220, "pitch": 61, "duration": 5, "velocity": 67}, {"time": 3223, "pitch": 57, "duration": 3, "velocity": 74}, {"time": 3226, "pitch": 38, "duration": 22, "velocity": 82}, {"time": 3229, "pitch": 45, "duration": 21, "velocity": 78}, {"time": 3232, "pitch": 50, "duration": 6, "velocity": 92}, {"time": 3235, "pitch": 57, "duration": 5, "velocity": 82}, {"time": 3238, "pitch": 66, "duration": 12, "velocity": 112}, {"time": 3241, "pitch": 50, "duration": 3, "velocity": 99}, {"time": 3244, "pitch": 62, "duration": 6, "velocity": 96}, {"time": 3247, "pitch": 57, "duration": 3, "velocity": 92}, {"time": 3250, "pitch": 40, "duration": 16, "velocity": 92}, {"time": 3253, "pitch": 47, "duration": 13, "velocity": 89}, {"time": 3256, "pitch": 52, "duration": 6, "velocity": 96}, {"time": 3259, "pitch": 59, "duration": 7, "velocity": 96}, {"time": 3262, "pitch": 68, "duration": 11, "velocity": 107}, {"time": 3265, "pitch": 52, "duration": 1, "velocity": 72}, {"time": 3268, "pitch": 64, "duration": 5, "velocity": 85}, {"time": 3271, "pitch": 59, "duration": 3, "velocity": 90}, {"time": 3274, "pitch": 37, "duration": 16, "velocity": 67}, {"time": 3277, "pitch": 44, "duration": 13, "velocity": 35}, {"time": 3280, "pitch": 49, "duration": 6, "velocity": 78}, {"time": 3283, "pitch": 61, "duration": 7, "velocity": 89}, {"time": 3286, "pitch": 68, "duration": 11, "velocity": 99}, {"time": 3289, "pitch": 49, "duration": 4, "velocity": 90}, {"time": 3292, "pitch": 64, "duration": 5, "velocity": 38}, {"time": 3295, "pitch": 61, "duration": 3, "velocity": 96}, {"time": 3298, "pitch": 42, "duration": 16, "velocity": 72}, {"time": 3301, "pitch": 49, "duration": 12, "velocity": 66}, {"time": 3304, "pitch": 54, "duration": 6, "velocity": 85}, {"time": 3307, "pitch": 66, "duration": 5, "velocity": 99}, {"time": 3310, "pitch": 73, "duration": 11, "velocity": 117}, {"time": 3313, "pitch": 54, "duration": 3, "velocity": 93}, {"time": 3316, "pitch": 69, "duration": 4, "velocity": 59}, {"time": 3319, "pitch": 66, "duration": 3, "velocity": 81}, {"time": 3322, "pitch": 47, "duration": 18, "velocity": 62}, {"time": 3325, "pitch": 54, "duration": 10, "velocity": 72}, {"time": 3328, "pitch": 59, "duration": 3, "velocity": 89}, {"time": 3331, "pitch": 62, "duration": 2, "velocity": 88}, {"time": 3334, "pitch": 66, "duration": 11, "velocity": 107}, {"time": 3337, "pitch": 54, "duration": 1, "velocity": 88}, {"time": 3340, "pitch": 62, "duration": 4, "velocity": 96}, {"time": 3343, "pitch": 59, "duration": 3, "velocity": 93}, {"time": 3346, "pitch": 40, "duration": 17, "velocity": 71}, {"time": 3349, "pitch": 47, "duration": 15, "velocity": 57}, {"time": 3352, "pitch": 52, "duration": 7, "velocity": 89}, {"time": 3355, "pitch": 59, "duration": 7, "velocity": 78}, {"time": 3358, "pitch": 68, "duration": 11, "velocity": 112}, {"time": 3361, "pitch": 52, "duration": 7, "velocity": 95}, {"time": 3364, "pitch": 64, "duration": 5, "velocity": 95}, {"time": 3367, "pitch": 59, "duration": 3, "velocity": 93}, {"time": 3370, "pitch": 45, "duration": 22, "velocity": 97}, {"time": 3373, "pitch": 52, "duration": 10, "velocity": 75}, {"time": 3376, "pitch": 57, "duration": 4, "velocity": 77}, {"time": 3379, "pitch": 61, "duration": 3, "velocity": 56}, {"time": 3382, "pitch": 64, "duration": 16, "velocity": 95}, {"time": 3385, "pitch": 52, "duration": 9, "velocity": 85}, {"time": 3388, "pitch": 61, "duration": 7, "velocity": 107}, {"time": 3391, "pitch": 57, "duration": 8, "velocity": 79}, {"time": 3394, "pitch": 45, "duration": 19, "velocity": 96}, {"time": 3400, "pitch": 52, "duration": 6, "velocity": 66}, {"time": 3400, "pitch": 57, "duration": 4, "velocity": 70}, {"time": 3400, "pitch": 61, "duration": 4, "velocity": 92}, {"time": 3400, "pitch": 64, "duration": 4, "velocity": 78}, {"time": 3406, "pitch": 61, "duration": 7, "velocity": 112}, {"time": 3406, "pitch": 64, "duration": 11, "velocity": 93}, {"time": 3409, "pitch": 52, "duration": 3, "velocity": 99}, {"time": 3412, "pitch": 57, "duration": 5, "velocity": 90}, {"time": 3415, "pitch": 61, "duration": 2, "velocity": 112}, {"time": 3418, "pitch": 47, "duration": 18, "velocity": 88}, {"time": 3418, "pitch": 59, "duration": 11, "velocity": 69}, {"time": 3418, "pitch": 62, "duration": 11, "velocity": 81}, {"time": 3418, "pitch": 66, "duration": 9, "velocity": 78}, {"time": 3424, "pitch": 54, "duration": 9, "velocity": 58}, {"time": 3430, "pitch": 62, "duration": 12, "velocity": 76}, {"time": 3436, "pitch": 59, "duration": 6, "velocity": 57}, {"time": 3441, "pitch": 40, "duration": 17, "velocity": 70}, {"time": 3447, "pitch": 47, "duration": 12, "velocity": 46}, {"time": 3454, "pitch": 64, "duration": 12, "velocity": 66}, {"time": 3454, "pitch": 68, "duration": 12, "velocity": 59}, {"time": 3454, "pitch": 52, "duration": 11, "velocity": 41}, {"time": 3465, "pitch": 45, "duration": 37, "velocity": 65}, {"time": 3472, "pitch": 52, "duration": 30, "velocity": 39}, {"time": 3478, "pitch": 59, "duration": 14, "velocity": 56}, {"time": 3484, "pitch": 57, "duration": 14, "velocity": 48}, {"time": 3490, "pitch": 64, "duration": 27, "velocity": 50}, {"time": 3490, "pitch": 61, "duration": 14, "velocity": 48}, {"time": 3501, "pitch": 59, "duration": 13, "velocity": 44}, {"time": 3513, "pitch": 44, "duration": 35, "velocity": 77}, {"time": 3520, "pitch": 56, "duration": 8, "velocity": 40}, {"time": 3526, "pitch": 61, "duration": 25, "velocity": 51}, {"time": 3532, "pitch": 64, "duration": 30, "velocity": 44}, {"time": 3549, "pitch": 56, "duration": 11, "velocity": 48}, {"time": 3555, "pitch": 61, "duration": 7, "velocity": 50}, {"time": 3561, "pitch": 38, "duration": 47, "velocity": 66}, {"time": 3567, "pitch": 45, "duration": 41, "velocity": 38}, {"time": 3574, "pitch": 50, "duration": 31, "velocity": 63}, {"time": 3580, "pitch": 62, "duration": 27, "velocity": 59}, {"time": 3580, "pitch": 66, "duration": 26, "velocity": 40}, {"time": 3586, "pitch": 57, "duration": 21, "velocity": 45}, {"time": 3610, "pitch": 65, "duration": 21, "velocity": 58}, {"time": 3610, "pitch": 38, "duration": 44, "velocity": 67}, {"time": 3610, "pitch": 62, "duration": 20, "velocity": 45}, {"time": 3610, "pitch": 57, "duration": 15, "velocity": 47}, {"time": 3616, "pitch": 45, "duration": 38, "velocity": 39}, {"time": 3622, "pitch": 50, "duration": 33, "velocity": 41}, {"time": 3628, "pitch": 57, "duration": 32, "velocity": 44}, {"time": 3633, "pitch": 62, "duration": 24, "velocity": 41}, {"time": 3634, "pitch": 65, "duration": 24, "velocity": 38}], "annotations": [{"time": 22, "annotation": {"number": 64, "value": 127}, "group": "control_change"}, {"time": 102, "annotation": {"number": 64, "value": 0}, "group": "control_change"}, {"time": 108, "annotation": {"number": 64, "value": 127}, "group": "control_change"}, {"time": 151, "annotation": {"number": 64, "value": 0}, "group": "control_change"}, {"time": 155, "annotation": {"number": 64, "value": 127}, "group": "control_change"}, {"time": 200, "annotation": {"number": 64, "value": 0}, "group": "control_change"}, {"time": 202, "annotation": {"number": 64, "value": 127}, "group": "control_change"}, {"time": 246, "annotation": {"number": 64, "value": 0}, "group": "control_change"}, {"time": 250, "annotation": {"number": 64, "value": 127}, "group": "control_change"}, {"time": 296, "annotation": {"number": 64, "value": 0}, "group": "control_change"}, {"time": 298, "annotation": {"number": 64, "value": 127}, "group": "control_change"}, {"time": 343, "annotation": {"number": 64, "value": 0}, "group": "control_change"}, {"time": 347, "annotation": {"number": 64, "value": 127}, "group": "control_change"}, {"time": 392, "annotation": {"number": 64, "value": 0}, "group": "control_change"}, {"time": 394, "annotation": {"number": 64, "value": 127}, "group": "control_change"}, {"time": 440, "annotation": {"number": 64, "value": 0}, "group": "control_change"}, {"time": 442, "annotation": {"number": 64, "value": 127}, "group": "control_change"}, {"time": 487, "annotation": {"number": 64, "value": 0}, "group": "control_change"}, {"time": 490, "annotation": {"number": 64, "value": 127}, "group": "control_change"}, {"time": 534, "annotation": {"number": 64, "value": 0}, "group": "control_change"}, {"time": 538, "annotation": {"number": 64, "value": 127}, "group": "control_change"}, {"time": 583, "annotation": {"number": 64, "value": 0}, "group": "control_change"}, {"time": 586, "annotation": {"number": 64, "value": 127}, "group": "control_change"}, {"time": 630, "annotation": {"number": 64, "value": 0}, "group": "control_change"}, {"time": 634, "annotation": {"number": 64, "value": 127}, "group": "control_change"}, {"time": 680, "annotation": {"number": 64, "value": 0}, "group": "control_change"}, {"time": 682, "annotation": {"number": 64, "value": 127}, "group": "control_change"}, {"time": 727, "annotation": {"number": 64, "value": 0}, "group": "control_change"}, {"time": 731, "annotation": {"number": 64, "value": 127}, "group": "control_change"}, {"time": 776, "annotation": {"number": 64, "value": 0}, "group": "control_change"}, {"time": 778, "annotation": {"number": 64, "value": 127}, "group": "control_change"}, {"time": 824, "annotation": {"number": 64, "value": 0}, "group": "control_change"}, {"time": 826, "annotation": {"number": 64, "value": 127}, "group": "control_change"}, {"time": 871, "annotation": {"number": 64, "value": 0}, "group": "control_change"}, {"time": 874, "annotation": {"number": 64, "value": 127}, "group": "control_change"}, {"time": 918, "annotation": {"number": 64, "value": 0}, "group": "control_change"}, {"time": 927, "annotation": {"number": 64, "value": 127}, "group": "control_change"}, {"time": 967, "annotation": {"number": 64, "value": 0}, "group": "control_change"}, {"time": 970, "annotation": {"number": 64, "value": 127}, "group": "control_change"}, {"time": 991, "annotation": {"number": 64, "value": 0}, "group": "control_change"}, {"time": 994, "annotation": {"number": 64, "value": 127}, "group": "control_change"}, {"time": 1015, "annotation": {"number": 64, "value": 0}, "group": "control_change"}, {"time": 1017, "annotation": {"number": 64, "value": 127}, "group": "control_change"}, {"time": 1038, "annotation": {"number": 64, "value": 0}, "group": "control_change"}, {"time": 1041, "annotation": {"number": 64, "value": 127}, "group": "control_change"}, {"time": 1062, "annotation": {"number": 64, "value": 0}, "group": "control_change"}, {"time": 1065, "annotation": {"number": 64, "value": 127}, "group": "control_change"}, {"time": 1087, "annotation": {"number": 64, "value": 0}, "group": "control_change"}, {"time": 1090, "annotation": {"number": 64, "value": 127}, "group": "control_change"}, {"time": 1111, "annotation": {"number": 64, "value": 0}, "group": "control_change"}, {"time": 1114, "annotation": {"number": 64, "value": 127}, "group": "control_change"}, {"time": 1123, "annotation": {"number": 64, "value": 0}, "group": "control_change"}, {"time": 1126, "annotation": {"number": 64, "value": 127}, "group": "control_change"}, {"time": 1136, "annotation": {"number": 64, "value": 0}, "group": "control_change"}, {"time": 1138, "annotation": {"number": 64, "value": 127}, "group": "control_change"}, {"time": 1158, "annotation": {"number": 64, "value": 0}, "group": "control_change"}, {"time": 1161, "annotation": {"number": 64, "value": 127}, "group": "control_change"}, {"time": 1182, "annotation": {"number": 64, "value": 0}, "group": "control_change"}, {"time": 1185, "annotation": {"number": 64, "value": 127}, "group": "control_change"}, {"time": 1207, "annotation": {"number": 64, "value": 0}, "group": "control_change"}, {"time": 1209, "annotation": {"number": 64, "value": 127}, "group": "control_change"}, {"time": 1231, "annotation": {"number": 64, "value": 0}, "group": "control_change"}, {"time": 1234, "annotation": {"number": 64, "value": 127}, "group": "control_change"}, {"time": 1255, "annotation": {"number": 64, "value": 0}, "group": "control_change"}, {"time": 1257, "annotation": {"number": 64, "value": 127}, "group": "control_change"}, {"time": 1278, "annotation": {"number": 64, "value": 0}, "group": "control_change"}, {"time": 1281, "annotation": {"number": 64, "value": 127}, "group": "control_change"}, {"time": 1302, "annotation": {"number": 64, "value": 0}, "group": "control_change"}, {"time": 1330, "annotation": {"number": 64, "value": 127}, "group": "control_change"}, {"time": 1350, "annotation": {"number": 64, "value": 0}, "group": "control_change"}, {"time": 1400, "annotation": {"number": 64, "value": 0}, "group": "control_change"}, {"time": 1402, "annotation": {"number": 64, "value": 127}, "group": "control_change"}, {"time": 1447, "annotation": {"number": 64, "value": 0}, "group": "control_change"}, {"time": 1450, "annotation": {"number": 64, "value": 127}, "group": "control_change"}, {"time": 1495, "annotation": {"number": 64, "value": 0}, "group": "control_change"}, {"time": 1498, "annotation": {"number": 64, "value": 127}, "group": "control_change"}, {"time": 1542, "annotation": {"number": 64, "value": 0}, "group": "control_change"}, {"time": 1546, "annotation": {"number": 64, "value": 127}, "group": "control_change"}, {"time": 1592, "annotation": {"number": 64, "value": 0}, "group": "control_change"}, {"time": 1594, "annotation": {"number": 64, "value": 127}, "group": "control_change"}, {"time": 1639, "annotation": {"number": 64, "value": 0}, "group": "control_change"}, {"time": 1643, "annotation": {"number": 64, "value": 127}, "group": "control_change"}, {"time": 1688, "annotation": {"number": 64, "value": 0}, "group": "control_change"}, {"time": 1690, "annotation": {"number": 64, "value": 127}, "group": "control_change"}, {"time": 1736, "annotation": {"number": 64, "value": 0}, "group": "control_change"}, {"time": 1738, "annotation": {"number": 64, "value": 127}, "group": "control_change"}, {"time": 1783, "annotation": {"number": 64, "value": 0}, "group": "control_change"}, {"time": 1786, "annotation": {"number": 64, "value": 127}, "group": "control_change"}, {"time": 1830, "annotation": {"number": 64, "value": 0}, "group": "control_change"}, {"time": 1834, "annotation": {"number": 64, "value": 127}, "group": "control_change"}, {"time": 1879, "annotation": {"number": 64, "value": 0}, "group": "control_change"}, {"time": 1881, "annotation": {"number": 64, "value": 127}, "group": "control_change"}, {"time": 1902, "annotation": {"number": 64, "value": 0}, "group": "control_change"}, {"time": 1905, "annotation": {"number": 64, "value": 127}, "group": "control_change"}, {"time": 1927, "annotation": {"number": 64, "value": 0}, "group": "control_change"}, {"time": 1930, "annotation": {"number": 64, "value": 127}, "group": "control_change"}, {"time": 1951, "annotation": {"number": 64, "value": 0}, "group": "control_change"}, {"time": 1954, "annotation": {"number": 64, "value": 127}, "group": "control_change"}, {"time": 1975, "annotation": {"number": 64, "value": 0}, "group": "control_change"}, {"time": 1977, "annotation": {"number": 64, "value": 127}, "group": "control_change"}, {"time": 1999, "annotation": {"number": 64, "value": 0}, "group": "control_change"}, {"time": 2002, "annotation": {"number": 64, "value": 127}, "group": "control_change"}, {"time": 2023, "annotation": {"number": 64, "value": 0}, "group": "control_change"}, {"time": 2027, "annotation": {"number": 64, "value": 127}, "group": "control_change"}, {"time": 2072, "annotation": {"number": 64, "value": 0}, "group": "control_change"}, {"time": 2074, "annotation": {"number": 64, "value": 127}, "group": "control_change"}, {"time": 2120, "annotation": {"number": 64, "value": 0}, "group": "control_change"}, {"time": 2123, "annotation": {"number": 64, "value": 127}, "group": "control_change"}, {"time": 2143, "annotation": {"number": 64, "value": 0}, "group": "control_change"}, {"time": 2146, "annotation": {"number": 64, "value": 127}, "group": "control_change"}, {"time": 2166, "annotation": {"number": 64, "value": 0}, "group": "control_change"}, {"time": 2169, "annotation": {"number": 64, "value": 127}, "group": "control_change"}, {"time": 2190, "annotation": {"number": 64, "value": 0}, "group": "control_change"}, {"time": 2193, "annotation": {"number": 64, "value": 127}, "group": "control_change"}, {"time": 2194, "annotation": {"number": 64, "value": 0}, "group": "control_change"}, {"time": 2194, "annotation": {"number": 64, "value": 127}, "group": "control_change"}, {"time": 2215, "annotation": {"number": 64, "value": 0}, "group": "control_change"}, {"time": 2223, "annotation": {"number": 64, "value": 127}, "group": "control_change"}, {"time": 2263, "annotation": {"number": 64, "value": 0}, "group": "control_change"}, {"time": 2265, "annotation": {"number": 64, "value": 127}, "group": "control_change"}, {"time": 2287, "annotation": {"number": 64, "value": 0}, "group": "control_change"}, {"time": 2289, "annotation": {"number": 64, "value": 127}, "group": "control_change"}, {"time": 2310, "annotation": {"number": 64, "value": 0}, "group": "control_change"}, {"time": 2313, "annotation": {"number": 64, "value": 127}, "group": "control_change"}, {"time": 2334, "annotation": {"number": 64, "value": 0}, "group": "control_change"}, {"time": 2337, "annotation": {"number": 64, "value": 127}, "group": "control_change"}, {"time": 2358, "annotation": {"number": 64, "value": 0}, "group": "control_change"}, {"time": 2361, "annotation": {"number": 64, "value": 127}, "group": "control_change"}, {"time": 2383, "annotation": {"number": 64, "value": 0}, "group": "control_change"}, {"time": 2386, "annotation": {"number": 64, "value": 127}, "group": "control_change"}, {"time": 2406, "annotation": {"number": 64, "value": 0}, "group": "control_change"}, {"time": 2410, "annotation": {"number": 64, "value": 127}, "group": "control_change"}, {"time": 2420, "annotation": {"number": 64, "value": 0}, "group": "control_change"}, {"time": 2423, "annotation": {"number": 64, "value": 127}, "group": "control_change"}, {"time": 2432, "annotation": {"number": 64, "value": 0}, "group": "control_change"}, {"time": 2435, "annotation": {"number": 64, "value": 127}, "group": "control_change"}, {"time": 2453, "annotation": {"number": 64, "value": 0}, "group": "control_change"}, {"time": 2457, "annotation": {"number": 64, "value": 127}, "group": "control_change"}, {"time": 2458, "annotation": {"number": 64, "value": 127}, "group": "control_change"}, {"time": 2467, "annotation": {"number": 64, "value": 0}, "group": "control_change"}, {"time": 2469, "annotation": {"number": 64, "value": 127}, "group": "control_change"}, {"time": 2476, "annotation": {"number": 64, "value": 0}, "group": "control_change"}, {"time": 2481, "annotation": {"number": 64, "value": 127}, "group": "control_change"}, {"time": 2502, "annotation": {"number": 64, "value": 0}, "group": "control_change"}, {"time": 2505, "annotation": {"number": 64, "value": 127}, "group": "control_change"}, {"time": 2526, "annotation": {"number": 64, "value": 0}, "group": "control_change"}, {"time": 2529, "annotation": {"number": 64, "value": 127}, "group": "control_change"}, {"time": 2549, "annotation": {"number": 64, "value": 0}, "group": "control_change"}, {"time": 2553, "annotation": {"number": 64, "value": 127}, "group": "control_change"}, {"time": 2574, "annotation": {"number": 64, "value": 0}, "group": "control_change"}, {"time": 2578, "annotation": {"number": 64, "value": 127}, "group": "control_change"}, {"time": 2597, "annotation": {"number": 64, "value": 0}, "group": "control_change"}, {"time": 2601, "annotation": {"number": 64, "value": 127}, "group": "control_change"}, {"time": 2622, "annotation": {"number": 64, "value": 0}, "group": "control_change"}, {"time": 2625, "annotation": {"number": 64, "value": 127}, "group": "control_change"}, {"time": 2645, "annotation": {"number": 64, "value": 0}, "group": "control_change"}, {"time": 2650, "annotation": {"number": 64, "value": 127}, "group": "control_change"}, {"time": 2671, "annotation": {"number": 64, "value": 0}, "group": "control_change"}, {"time": 2674, "annotation": {"number": 64, "value": 127}, "group": "control_change"}, {"time": 2695, "annotation": {"number": 64, "value": 0}, "group": "control_change"}, {"time": 2697, "annotation": {"number": 64, "value": 127}, "group": "control_change"}, {"time": 2719, "annotation": {"number": 64, "value": 0}, "group": "control_change"}, {"time": 2721, "annotation": {"number": 64, "value": 127}, "group": "control_change"}, {"time": 2743, "annotation": {"number": 64, "value": 0}, "group": "control_change"}, {"time": 2745, "annotation": {"number": 64, "value": 127}, "group": "control_change"}, {"time": 2767, "annotation": {"number": 64, "value": 0}, "group": "control_change"}, {"time": 2769, "annotation": {"number": 64, "value": 127}, "group": "control_change"}, {"time": 2791, "annotation": {"number": 64, "value": 0}, "group": "control_change"}, {"time": 2793, "annotation": {"number": 64, "value": 127}, "group": "control_change"}, {"time": 2794, "annotation": {"number": 64, "value": 127}, "group": "control_change"}, {"time": 2804, "annotation": {"number": 64, "value": 0}, "group": "control_change"}, {"time": 2807, "annotation": {"number": 64, "value": 127}, "group": "control_change"}, {"time": 2816, "annotation": {"number": 64, "value": 0}, "group": "control_change"}, {"time": 2818, "annotation": {"number": 64, "value": 127}, "group": "control_change"}, {"time": 2839, "annotation": {"number": 64, "value": 0}, "group": "control_change"}, {"time": 2841, "annotation": {"number": 64, "value": 127}, "group": "control_change"}, {"time": 2863, "annotation": {"number": 64, "value": 0}, "group": "control_change"}, {"time": 2866, "annotation": {"number": 64, "value": 127}, "group": "control_change"}, {"time": 2887, "annotation": {"number": 64, "value": 0}, "group": "control_change"}, {"time": 2890, "annotation": {"number": 64, "value": 127}, "group": "control_change"}, {"time": 2912, "annotation": {"number": 64, "value": 0}, "group": "control_change"}, {"time": 2914, "annotation": {"number": 64, "value": 127}, "group": "control_change"}, {"time": 2935, "annotation": {"number": 64, "value": 0}, "group": "control_change"}, {"time": 2938, "annotation": {"number": 64, "value": 127}, "group": "control_change"}, {"time": 2959, "annotation": {"number": 64, "value": 0}, "group": "control_change"}, {"time": 2962, "annotation": {"number": 64, "value": 127}, "group": "control_change"}, {"time": 2983, "annotation": {"number": 64, "value": 0}, "group": "control_change"}, {"time": 2986, "annotation": {"number": 64, "value": 127}, "group": "control_change"}, {"time": 3007, "annotation": {"number": 64, "value": 0}, "group": "control_change"}, {"time": 3010, "annotation": {"number": 64, "value": 127}, "group": "control_change"}, {"time": 3027, "annotation": {"number": 64, "value": 0}, "group": "control_change"}, {"time": 3033, "annotation": {"number": 64, "value": 127}, "group": "control_change"}, {"time": 3055, "annotation": {"number": 64, "value": 0}, "group": "control_change"}, {"time": 3058, "annotation": {"number": 64, "value": 127}, "group": "control_change"}, {"time": 3079, "annotation": {"number": 64, "value": 0}, "group": "control_change"}, {"time": 3082, "annotation": {"number": 64, "value": 127}, "group": "control_change"}, {"time": 3104, "annotation": {"number": 64, "value": 0}, "group": "control_change"}, {"time": 3106, "annotation": {"number": 64, "value": 127}, "group": "control_change"}, {"time": 3128, "annotation": {"number": 64, "value": 0}, "group": "control_change"}, {"time": 3130, "annotation": {"number": 64, "value": 127}, "group": "control_change"}, {"time": 3151, "annotation": {"number": 64, "value": 0}, "group": "control_change"}, {"time": 3154, "annotation": {"number": 64, "value": 127}, "group": "control_change"}, {"time": 3176, "annotation": {"number": 64, "value": 0}, "group": "control_change"}, {"time": 3179, "annotation": {"number": 64, "value": 127}, "group": "control_change"}, {"time": 3198, "annotation": {"number": 64, "value": 0}, "group": "control_change"}, {"time": 3202, "annotation": {"number": 64, "value": 127}, "group": "control_change"}, {"time": 3224, "annotation": {"number": 64, "value": 0}, "group": "control_change"}, {"time": 3247, "annotation": {"number": 64, "value": 0}, "group": "control_change"}, {"time": 3250, "annotation": {"number": 64, "value": 127}, "group": "control_change"}, {"time": 3271, "annotation": {"number": 64, "value": 0}, "group": "control_change"}, {"time": 3274, "annotation": {"number": 64, "value": 127}, "group": "control_change"}, {"time": 3296, "annotation": {"number": 64, "value": 0}, "group": "control_change"}, {"time": 3298, "annotation": {"number": 64, "value": 127}, "group": "control_change"}, {"time": 3319, "annotation": {"number": 64, "value": 0}, "group": "control_change"}, {"time": 3322, "annotation": {"number": 64, "value": 127}, "group": "control_change"}, {"time": 3343, "annotation": {"number": 64, "value": 0}, "group": "control_change"}, {"time": 3346, "annotation": {"number": 64, "value": 127}, "group": "control_change"}, {"time": 3366, "annotation": {"number": 64, "value": 0}, "group": "control_change"}, {"time": 3370, "annotation": {"number": 64, "value": 127}, "group": "control_change"}, {"time": 3371, "annotation": {"number": 64, "value": 127}, "group": "control_change"}, {"time": 3372, "annotation": {"number": 64, "value": 0}, "group": "control_change"}, {"time": 3375, "annotation": {"number": 64, "value": 127}, "group": "control_change"}, {"time": 3391, "annotation": {"number": 64, "value": 0}, "group": "control_change"}, {"time": 3393, "annotation": {"number": 64, "value": 127}, "group": "control_change"}, {"time": 3414, "annotation": {"number": 64, "value": 0}, "group": "control_change"}, {"time": 3417, "annotation": {"number": 64, "value": 127}, "group": "control_change"}, {"time": 3418, "annotation": {"number": 64, "value": 127}, "group": "control_change"}, {"time": 3442, "annotation": {"number": 64, "value": 0}, "group": "control_change"}, {"time": 3442, "annotation": {"number": 64, "value": 127}, "group": "control_change"}, {"time": 3463, "annotation": {"number": 64, "value": 0}, "group": "control_change"}, {"time": 3466, "annotation": {"number": 64, "value": 127}, "group": "control_change"}, {"time": 3511, "annotation": {"number": 64, "value": 0}, "group": "control_change"}, {"time": 3514, "annotation": {"number": 64, "value": 127}, "group": "control_change"}, {"time": 3558, "annotation": {"number": 64, "value": 0}, "group": "control_change"}, {"time": 3561, "annotation": {"number": 64, "value": 127}, "group": "control_change"}, {"time": 3608, "annotation": {"number": 64, "value": 0}, "group": "control_change"}, {"time": 3622, "annotation": {"number": 64, "value": 127}, "group": "control_change"}]}]}