{"metadata": {"schema_version": "0.2", "title": "None", "source_filename": "722.mid", "source_format": "midi"}, "resolution": 12, "tempos": [{"time": 0, "qpm": 81.70001388900236}, {"time": 228, "qpm": 80.99997165000993}, {"time": 744, "qpm": 82.00014760026568}, {"time": 2052, "qpm": 81.50003531668197}, {"time": 2100, "qpm": 81.8999701065109}, {"time": 2196, "qpm": 81.50003531668197}, {"time": 2628, "qpm": 81.95008420371153}, {"time": 3156, "qpm": 81.70001388900236}, {"time": 3912, "qpm": 82.00014760026568}], "time_signatures": [{"time": 0, "numerator": 1, "denominator": 4}], "tracks": [{"program": 0, "is_drum": false, "name": "MELODY", "notes": [{"time": 560, "pitch": 67, "duration": 5, "velocity": 122}, {"time": 566, "pitch": 67, "duration": 4, "velocity": 102}, {"time": 572, "pitch": 67, "duration": 3, "velocity": 107}, {"time": 578, "pitch": 67, "duration": 3, "velocity": 100}, {"time": 584, "pitch": 67, "duration": 8, "velocity": 117}, {"time": 593, "pitch": 62, "duration": 4, "velocity": 92}, {"time": 602, "pitch": 64, "duration": 5, "velocity": 92}, {"time": 614, "pitch": 67, "duration": 29, "velocity": 99}, {"time": 656, "pitch": 69, "duration": 3, "velocity": 100}, {"time": 662, "pitch": 69, "duration": 3, "velocity": 102}, {"time": 668, "pitch": 69, "duration": 3, "velocity": 107}, {"time": 674, "pitch": 69, "duration": 3, "velocity": 102}, {"time": 680, "pitch": 69, "duration": 8, "velocity": 112}, {"time": 689, "pitch": 65, "duration": 2, "velocity": 90}, {"time": 698, "pitch": 64, "duration": 9, "velocity": 90}, {"time": 707, "pitch": 62, "duration": 39, "velocity": 83}, {"time": 746, "pitch": 60, "duration": 4, "velocity": 95}, {"time": 752, "pitch": 71, "duration": 3, "velocity": 107}, {"time": 758, "pitch": 71, "duration": 3, "velocity": 82}, {"time": 764, "pitch": 71, "duration": 3, "velocity": 117}, {"time": 770, "pitch": 71, "duration": 3, "velocity": 100}, {"time": 776, "pitch": 71, "duration": 5, "velocity": 127}, {"time": 785, "pitch": 67, "duration": 3, "velocity": 90}, {"time": 794, "pitch": 64, "duration": 10, "velocity": 93}, {"time": 806, "pitch": 60, "duration": 25, "velocity": 93}, {"time": 842, "pitch": 60, "duration": 4, "velocity": 93}, {"time": 848, "pitch": 69, "duration": 3, "velocity": 112}, {"time": 854, "pitch": 69, "duration": 3, "velocity": 100}, {"time": 860, "pitch": 69, "duration": 3, "velocity": 112}, {"time": 866, "pitch": 69, "duration": 3, "velocity": 96}, {"time": 872, "pitch": 69, "duration": 5, "velocity": 127}, {"time": 881, "pitch": 65, "duration": 3, "velocity": 90}, {"time": 890, "pitch": 69, "duration": 5, "velocity": 95}, {"time": 902, "pitch": 71, "duration": 28, "velocity": 112}, {"time": 938, "pitch": 67, "duration": 6, "velocity": 83}, {"time": 944, "pitch": 72, "duration": 12, "velocity": 100}, {"time": 959, "pitch": 72, "duration": 10, "velocity": 122}, {"time": 980, "pitch": 64, "duration": 7, "velocity": 96}, {"time": 986, "pitch": 67, "duration": 29, "velocity": 100}, {"time": 1034, "pitch": 67, "duration": 4, "velocity": 95}, {"time": 1040, "pitch": 69, "duration": 5, "velocity": 100}, {"time": 1046, "pitch": 67, "duration": 5, "velocity": 93}, {"time": 1052, "pitch": 69, "duration": 4, "velocity": 95}, {"time": 1058, "pitch": 72, "duration": 8, "velocity": 107}, {"time": 1070, "pitch": 60, "duration": 6, "velocity": 93}, {"time": 1082, "pitch": 67, "duration": 21, "velocity": 99}, {"time": 1130, "pitch": 67, "duration": 4, "velocity": 92}, {"time": 1136, "pitch": 72, "duration": 7, "velocity": 112}, {"time": 1154, "pitch": 72, "duration": 8, "velocity": 122}, {"time": 1172, "pitch": 64, "duration": 5, "velocity": 99}, {"time": 1178, "pitch": 69, "duration": 16, "velocity": 117}, {"time": 1196, "pitch": 67, "duration": 24, "velocity": 107}, {"time": 1226, "pitch": 67, "duration": 3, "velocity": 107}, {"time": 1232, "pitch": 69, "duration": 5, "velocity": 122}, {"time": 1238, "pitch": 67, "duration": 4, "velocity": 97}, {"time": 1244, "pitch": 69, "duration": 4, "velocity": 102}, {"time": 1250, "pitch": 72, "duration": 11, "velocity": 117}, {"time": 1262, "pitch": 69, "duration": 7, "velocity": 107}, {"time": 1274, "pitch": 72, "duration": 6, "velocity": 107}, {"time": 1286, "pitch": 74, "duration": 38, "velocity": 127}, {"time": 1370, "pitch": 67, "duration": 5, "velocity": 107}, {"time": 1376, "pitch": 72, "duration": 5, "velocity": 122}, {"time": 1382, "pitch": 74, "duration": 3, "velocity": 107}, {"time": 1388, "pitch": 74, "duration": 4, "velocity": 127}, {"time": 1394, "pitch": 76, "duration": 4, "velocity": 117}, {"time": 1400, "pitch": 76, "duration": 6, "velocity": 127}, {"time": 1406, "pitch": 74, "duration": 2, "velocity": 122}, {"time": 1412, "pitch": 74, "duration": 4, "velocity": 127}, {"time": 1418, "pitch": 72, "duration": 2, "velocity": 107}, {"time": 1424, "pitch": 71, "duration": 7, "velocity": 93}, {"time": 1430, "pitch": 71, "duration": 1, "velocity": 117}, {"time": 1442, "pitch": 72, "duration": 5, "velocity": 107}, {"time": 1454, "pitch": 67, "duration": 6, "velocity": 99}, {"time": 1466, "pitch": 67, "duration": 4, "velocity": 92}, {"time": 1472, "pitch": 72, "duration": 4, "velocity": 122}, {"time": 1478, "pitch": 74, "duration": 3, "velocity": 127}, {"time": 1484, "pitch": 74, "duration": 4, "velocity": 117}, {"time": 1490, "pitch": 76, "duration": 4, "velocity": 117}, {"time": 1496, "pitch": 76, "duration": 5, "velocity": 127}, {"time": 1502, "pitch": 74, "duration": 3, "velocity": 107}, {"time": 1508, "pitch": 74, "duration": 3, "velocity": 117}, {"time": 1514, "pitch": 72, "duration": 4, "velocity": 112}, {"time": 1520, "pitch": 71, "duration": 7, "velocity": 112}, {"time": 1529, "pitch": 69, "duration": 6, "velocity": 102}, {"time": 1538, "pitch": 71, "duration": 10, "velocity": 112}, {"time": 1550, "pitch": 64, "duration": 5, "velocity": 100}, {"time": 1568, "pitch": 69, "duration": 6, "velocity": 102}, {"time": 1574, "pitch": 71, "duration": 4, "velocity": 107}, {"time": 1580, "pitch": 71, "duration": 5, "velocity": 112}, {"time": 1586, "pitch": 72, "duration": 4, "velocity": 100}, {"time": 1592, "pitch": 72, "duration": 6, "velocity": 122}, {"time": 1598, "pitch": 71, "duration": 3, "velocity": 117}, {"time": 1604, "pitch": 71, "duration": 5, "velocity": 117}, {"time": 1610, "pitch": 69, "duration": 12, "velocity": 112}, {"time": 1616, "pitch": 67, "duration": 8, "velocity": 112}, {"time": 1628, "pitch": 69, "duration": 4, "velocity": 117}, {"time": 1634, "pitch": 71, "duration": 9, "velocity": 99}, {"time": 1646, "pitch": 72, "duration": 8, "velocity": 115}, {"time": 1664, "pitch": 76, "duration": 7, "velocity": 122}, {"time": 1673, "pitch": 74, "duration": 6, "velocity": 122}, {"time": 1682, "pitch": 72, "duration": 7, "velocity": 112}, {"time": 1694, "pitch": 69, "duration": 6, "velocity": 107}, {"time": 1712, "pitch": 76, "duration": 7, "velocity": 122}, {"time": 1721, "pitch": 74, "duration": 5, "velocity": 117}, {"time": 1730, "pitch": 72, "duration": 7, "velocity": 127}, {"time": 1742, "pitch": 67, "duration": 8, "velocity": 100}, {"time": 1754, "pitch": 67, "duration": 4, "velocity": 107}, {"time": 1760, "pitch": 72, "duration": 5, "velocity": 122}, {"time": 1766, "pitch": 74, "duration": 3, "velocity": 117}, {"time": 1772, "pitch": 74, "duration": 4, "velocity": 127}, {"time": 1778, "pitch": 76, "duration": 3, "velocity": 112}, {"time": 1784, "pitch": 76, "duration": 5, "velocity": 127}, {"time": 1790, "pitch": 74, "duration": 3, "velocity": 117}, {"time": 1796, "pitch": 74, "duration": 6, "velocity": 127}, {"time": 1802, "pitch": 72, "duration": 3, "velocity": 122}, {"time": 1808, "pitch": 71, "duration": 8, "velocity": 117}, {"time": 1817, "pitch": 71, "duration": 5, "velocity": 117}, {"time": 1826, "pitch": 71, "duration": 5, "velocity": 93}, {"time": 1838, "pitch": 67, "duration": 8, "velocity": 100}, {"time": 1850, "pitch": 67, "duration": 6, "velocity": 102}, {"time": 1856, "pitch": 72, "duration": 6, "velocity": 122}, {"time": 1862, "pitch": 74, "duration": 4, "velocity": 102}, {"time": 1868, "pitch": 74, "duration": 5, "velocity": 127}, {"time": 1874, "pitch": 76, "duration": 4, "velocity": 112}, {"time": 1880, "pitch": 76, "duration": 5, "velocity": 127}, {"time": 1886, "pitch": 74, "duration": 3, "velocity": 127}, {"time": 1892, "pitch": 74, "duration": 5, "velocity": 127}, {"time": 1898, "pitch": 72, "duration": 4, "velocity": 112}, {"time": 1904, "pitch": 71, "duration": 8, "velocity": 100}, {"time": 1913, "pitch": 69, "duration": 5, "velocity": 117}, {"time": 1922, "pitch": 71, "duration": 6, "velocity": 117}, {"time": 1934, "pitch": 64, "duration": 7, "velocity": 100}, {"time": 1952, "pitch": 69, "duration": 5, "velocity": 112}, {"time": 1958, "pitch": 71, "duration": 3, "velocity": 112}, {"time": 1964, "pitch": 71, "duration": 5, "velocity": 117}, {"time": 1970, "pitch": 72, "duration": 3, "velocity": 102}, {"time": 1976, "pitch": 72, "duration": 8, "velocity": 127}, {"time": 1982, "pitch": 71, "duration": 3, "velocity": 127}, {"time": 1988, "pitch": 71, "duration": 5, "velocity": 117}, {"time": 1994, "pitch": 69, "duration": 2, "velocity": 117}, {"time": 2000, "pitch": 67, "duration": 8, "velocity": 112}, {"time": 2009, "pitch": 69, "duration": 5, "velocity": 107}, {"time": 2018, "pitch": 71, "duration": 11, "velocity": 117}, {"time": 2033, "pitch": 72, "duration": 7, "velocity": 112}, {"time": 2048, "pitch": 76, "duration": 6, "velocity": 127}, {"time": 2057, "pitch": 74, "duration": 3, "velocity": 127}, {"time": 2066, "pitch": 72, "duration": 6, "velocity": 127}, {"time": 2078, "pitch": 69, "duration": 6, "velocity": 122}, {"time": 2096, "pitch": 76, "duration": 5, "velocity": 127}, {"time": 2105, "pitch": 74, "duration": 5, "velocity": 117}, {"time": 2114, "pitch": 72, "duration": 5, "velocity": 127}, {"time": 2120, "pitch": 69, "duration": 7, "velocity": 112}, {"time": 2129, "pitch": 67, "duration": 7, "velocity": 100}, {"time": 2144, "pitch": 69, "duration": 8, "velocity": 102}, {"time": 2153, "pitch": 72, "duration": 20, "velocity": 117}, {"time": 2624, "pitch": 67, "duration": 5, "velocity": 122}, {"time": 2630, "pitch": 67, "duration": 4, "velocity": 102}, {"time": 2636, "pitch": 67, "duration": 3, "velocity": 107}, {"time": 2642, "pitch": 67, "duration": 3, "velocity": 100}, {"time": 2648, "pitch": 67, "duration": 8, "velocity": 117}, {"time": 2657, "pitch": 62, "duration": 4, "velocity": 92}, {"time": 2666, "pitch": 64, "duration": 5, "velocity": 92}, {"time": 2678, "pitch": 67, "duration": 29, "velocity": 99}, {"time": 2720, "pitch": 69, "duration": 3, "velocity": 100}, {"time": 2726, "pitch": 69, "duration": 3, "velocity": 102}, {"time": 2732, "pitch": 69, "duration": 3, "velocity": 107}, {"time": 2738, "pitch": 69, "duration": 3, "velocity": 102}, {"time": 2744, "pitch": 69, "duration": 8, "velocity": 112}, {"time": 2753, "pitch": 65, "duration": 2, "velocity": 90}, {"time": 2762, "pitch": 64, "duration": 9, "velocity": 90}, {"time": 2771, "pitch": 62, "duration": 39, "velocity": 83}, {"time": 2810, "pitch": 60, "duration": 4, "velocity": 95}, {"time": 2816, "pitch": 71, "duration": 3, "velocity": 107}, {"time": 2822, "pitch": 71, "duration": 3, "velocity": 82}, {"time": 2828, "pitch": 71, "duration": 3, "velocity": 117}, {"time": 2834, "pitch": 71, "duration": 3, "velocity": 100}, {"time": 2840, "pitch": 71, "duration": 5, "velocity": 127}, {"time": 2849, "pitch": 67, "duration": 3, "velocity": 90}, {"time": 2858, "pitch": 64, "duration": 10, "velocity": 93}, {"time": 2870, "pitch": 60, "duration": 25, "velocity": 93}, {"time": 2906, "pitch": 60, "duration": 4, "velocity": 93}, {"time": 2912, "pitch": 69, "duration": 3, "velocity": 112}, {"time": 2918, "pitch": 69, "duration": 3, "velocity": 100}, {"time": 2924, "pitch": 69, "duration": 3, "velocity": 112}, {"time": 2930, "pitch": 69, "duration": 3, "velocity": 96}, {"time": 2936, "pitch": 69, "duration": 5, "velocity": 127}, {"time": 2945, "pitch": 65, "duration": 3, "velocity": 90}, {"time": 2954, "pitch": 69, "duration": 5, "velocity": 95}, {"time": 2966, "pitch": 71, "duration": 28, "velocity": 112}, {"time": 3002, "pitch": 67, "duration": 6, "velocity": 83}, {"time": 3008, "pitch": 72, "duration": 12, "velocity": 100}, {"time": 3023, "pitch": 72, "duration": 10, "velocity": 122}, {"time": 3044, "pitch": 64, "duration": 7, "velocity": 96}, {"time": 3050, "pitch": 67, "duration": 29, "velocity": 100}, {"time": 3098, "pitch": 67, "duration": 4, "velocity": 95}, {"time": 3104, "pitch": 69, "duration": 5, "velocity": 100}, {"time": 3110, "pitch": 67, "duration": 5, "velocity": 93}, {"time": 3116, "pitch": 69, "duration": 4, "velocity": 95}, {"time": 3122, "pitch": 72, "duration": 8, "velocity": 107}, {"time": 3134, "pitch": 60, "duration": 6, "velocity": 93}, {"time": 3146, "pitch": 67, "duration": 21, "velocity": 99}, {"time": 3194, "pitch": 67, "duration": 4, "velocity": 92}, {"time": 3200, "pitch": 72, "duration": 7, "velocity": 112}, {"time": 3218, "pitch": 72, "duration": 8, "velocity": 122}, {"time": 3236, "pitch": 64, "duration": 5, "velocity": 99}, {"time": 3242, "pitch": 69, "duration": 16, "velocity": 117}, {"time": 3260, "pitch": 67, "duration": 24, "velocity": 107}, {"time": 3290, "pitch": 67, "duration": 3, "velocity": 107}, {"time": 3296, "pitch": 69, "duration": 5, "velocity": 122}, {"time": 3302, "pitch": 67, "duration": 4, "velocity": 97}, {"time": 3308, "pitch": 69, "duration": 4, "velocity": 102}, {"time": 3314, "pitch": 72, "duration": 11, "velocity": 117}, {"time": 3326, "pitch": 69, "duration": 7, "velocity": 107}, {"time": 3338, "pitch": 72, "duration": 6, "velocity": 107}, {"time": 3350, "pitch": 74, "duration": 38, "velocity": 127}, {"time": 3434, "pitch": 67, "duration": 5, "velocity": 107}, {"time": 3440, "pitch": 72, "duration": 5, "velocity": 122}, {"time": 3446, "pitch": 74, "duration": 3, "velocity": 107}, {"time": 3452, "pitch": 74, "duration": 4, "velocity": 127}, {"time": 3458, "pitch": 76, "duration": 4, "velocity": 117}, {"time": 3464, "pitch": 76, "duration": 6, "velocity": 127}, {"time": 3470, "pitch": 74, "duration": 2, "velocity": 122}, {"time": 3476, "pitch": 74, "duration": 4, "velocity": 127}, {"time": 3482, "pitch": 72, "duration": 2, "velocity": 107}, {"time": 3488, "pitch": 71, "duration": 7, "velocity": 93}, {"time": 3494, "pitch": 71, "duration": 1, "velocity": 117}, {"time": 3506, "pitch": 72, "duration": 5, "velocity": 107}, {"time": 3518, "pitch": 67, "duration": 6, "velocity": 99}, {"time": 3530, "pitch": 67, "duration": 4, "velocity": 92}, {"time": 3536, "pitch": 72, "duration": 4, "velocity": 122}, {"time": 3542, "pitch": 74, "duration": 3, "velocity": 127}, {"time": 3548, "pitch": 74, "duration": 4, "velocity": 117}, {"time": 3554, "pitch": 76, "duration": 4, "velocity": 117}, {"time": 3560, "pitch": 76, "duration": 5, "velocity": 127}, {"time": 3566, "pitch": 74, "duration": 3, "velocity": 107}, {"time": 3572, "pitch": 74, "duration": 3, "velocity": 117}, {"time": 3578, "pitch": 72, "duration": 4, "velocity": 112}, {"time": 3584, "pitch": 71, "duration": 7, "velocity": 112}, {"time": 3593, "pitch": 69, "duration": 6, "velocity": 102}, {"time": 3602, "pitch": 71, "duration": 10, "velocity": 112}, {"time": 3614, "pitch": 64, "duration": 5, "velocity": 100}, {"time": 3632, "pitch": 69, "duration": 6, "velocity": 102}, {"time": 3638, "pitch": 71, "duration": 4, "velocity": 107}, {"time": 3644, "pitch": 71, "duration": 5, "velocity": 112}, {"time": 3650, "pitch": 72, "duration": 4, "velocity": 100}, {"time": 3656, "pitch": 72, "duration": 6, "velocity": 122}, {"time": 3662, "pitch": 71, "duration": 3, "velocity": 117}, {"time": 3668, "pitch": 71, "duration": 5, "velocity": 117}, {"time": 3674, "pitch": 69, "duration": 12, "velocity": 112}, {"time": 3680, "pitch": 67, "duration": 8, "velocity": 112}, {"time": 3692, "pitch": 69, "duration": 4, "velocity": 117}, {"time": 3698, "pitch": 71, "duration": 9, "velocity": 99}, {"time": 3710, "pitch": 72, "duration": 8, "velocity": 115}, {"time": 3728, "pitch": 76, "duration": 7, "velocity": 122}, {"time": 3737, "pitch": 74, "duration": 6, "velocity": 122}, {"time": 3746, "pitch": 72, "duration": 7, "velocity": 112}, {"time": 3758, "pitch": 69, "duration": 6, "velocity": 107}, {"time": 3776, "pitch": 76, "duration": 7, "velocity": 122}, {"time": 3785, "pitch": 74, "duration": 5, "velocity": 117}, {"time": 3794, "pitch": 72, "duration": 7, "velocity": 127}, {"time": 3806, "pitch": 67, "duration": 8, "velocity": 100}, {"time": 3818, "pitch": 67, "duration": 4, "velocity": 107}, {"time": 3824, "pitch": 72, "duration": 5, "velocity": 122}, {"time": 3830, "pitch": 74, "duration": 3, "velocity": 117}, {"time": 3836, "pitch": 74, "duration": 4, "velocity": 127}, {"time": 3842, "pitch": 76, "duration": 3, "velocity": 112}, {"time": 3848, "pitch": 76, "duration": 5, "velocity": 127}, {"time": 3854, "pitch": 74, "duration": 3, "velocity": 117}, {"time": 3860, "pitch": 74, "duration": 6, "velocity": 127}, {"time": 3866, "pitch": 72, "duration": 3, "velocity": 122}, {"time": 3872, "pitch": 71, "duration": 8, "velocity": 117}, {"time": 3881, "pitch": 71, "duration": 5, "velocity": 117}, {"time": 3890, "pitch": 71, "duration": 5, "velocity": 93}, {"time": 3902, "pitch": 67, "duration": 8, "velocity": 100}, {"time": 3914, "pitch": 67, "duration": 6, "velocity": 102}, {"time": 3920, "pitch": 72, "duration": 6, "velocity": 122}, {"time": 3926, "pitch": 74, "duration": 4, "velocity": 102}, {"time": 3932, "pitch": 74, "duration": 5, "velocity": 127}, {"time": 3938, "pitch": 76, "duration": 4, "velocity": 112}, {"time": 3944, "pitch": 76, "duration": 5, "velocity": 127}, {"time": 3950, "pitch": 74, "duration": 3, "velocity": 127}, {"time": 3956, "pitch": 74, "duration": 5, "velocity": 127}, {"time": 3962, "pitch": 72, "duration": 4, "velocity": 112}, {"time": 3968, "pitch": 71, "duration": 8, "velocity": 100}, {"time": 3977, "pitch": 69, "duration": 5, "velocity": 117}, {"time": 3986, "pitch": 71, "duration": 6, "velocity": 117}, {"time": 3998, "pitch": 64, "duration": 7, "velocity": 100}, {"time": 4016, "pitch": 69, "duration": 5, "velocity": 112}, {"time": 4022, "pitch": 71, "duration": 3, "velocity": 112}, {"time": 4028, "pitch": 71, "duration": 5, "velocity": 117}, {"time": 4034, "pitch": 72, "duration": 3, "velocity": 102}, {"time": 4040, "pitch": 72, "duration": 8, "velocity": 127}, {"time": 4046, "pitch": 71, "duration": 3, "velocity": 127}, {"time": 4052, "pitch": 71, "duration": 5, "velocity": 117}, {"time": 4058, "pitch": 69, "duration": 2, "velocity": 117}, {"time": 4064, "pitch": 67, "duration": 8, "velocity": 112}, {"time": 4073, "pitch": 69, "duration": 5, "velocity": 107}, {"time": 4082, "pitch": 71, "duration": 11, "velocity": 117}, {"time": 4097, "pitch": 72, "duration": 7, "velocity": 112}, {"time": 4112, "pitch": 76, "duration": 6, "velocity": 127}, {"time": 4121, "pitch": 74, "duration": 3, "velocity": 127}, {"time": 4130, "pitch": 72, "duration": 6, "velocity": 127}, {"time": 4142, "pitch": 69, "duration": 6, "velocity": 122}, {"time": 4160, "pitch": 76, "duration": 5, "velocity": 127}, {"time": 4169, "pitch": 74, "duration": 5, "velocity": 117}, {"time": 4178, "pitch": 72, "duration": 5, "velocity": 127}, {"time": 4184, "pitch": 69, "duration": 7, "velocity": 112}, {"time": 4193, "pitch": 67, "duration": 7, "velocity": 100}, {"time": 4208, "pitch": 69, "duration": 8, "velocity": 102}, {"time": 4217, "pitch": 72, "duration": 20, "velocity": 117}, {"time": 4304, "pitch": 69, "duration": 5, "velocity": 112}, {"time": 4310, "pitch": 71, "duration": 3, "velocity": 112}, {"time": 4316, "pitch": 71, "duration": 5, "velocity": 117}, {"time": 4322, "pitch": 72, "duration": 3, "velocity": 102}, {"time": 4328, "pitch": 72, "duration": 8, "velocity": 127}, {"time": 4334, "pitch": 71, "duration": 3, "velocity": 127}, {"time": 4340, "pitch": 71, "duration": 5, "velocity": 117}, {"time": 4346, "pitch": 69, "duration": 2, "velocity": 117}, {"time": 4352, "pitch": 67, "duration": 8, "velocity": 112}, {"time": 4361, "pitch": 69, "duration": 5, "velocity": 107}, {"time": 4370, "pitch": 71, "duration": 11, "velocity": 117}, {"time": 4385, "pitch": 72, "duration": 7, "velocity": 112}, {"time": 4400, "pitch": 76, "duration": 6, "velocity": 127}, {"time": 4409, "pitch": 74, "duration": 3, "velocity": 127}, {"time": 4418, "pitch": 72, "duration": 6, "velocity": 127}, {"time": 4430, "pitch": 69, "duration": 6, "velocity": 122}, {"time": 4448, "pitch": 76, "duration": 5, "velocity": 127}, {"time": 4457, "pitch": 74, "duration": 5, "velocity": 117}, {"time": 4466, "pitch": 72, "duration": 5, "velocity": 127}, {"time": 4472, "pitch": 69, "duration": 7, "velocity": 112}, {"time": 4481, "pitch": 67, "duration": 7, "velocity": 100}, {"time": 4505, "pitch": 69, "duration": 7, "velocity": 92}, {"time": 4517, "pitch": 72, "duration": 37, "velocity": 96}]}, {"program": 0, "is_drum": false, "name": "BRIDGE", "notes": [{"time": 26, "pitch": 72, "duration": 3, "velocity": 107}, {"time": 29, "pitch": 74, "duration": 4, "velocity": 92}, {"time": 32, "pitch": 75, "duration": 15, "velocity": 100}, {"time": 50, "pitch": 74, "duration": 12, "velocity": 107}, {"time": 62, "pitch": 72, "duration": 12, "velocity": 97}, {"time": 74, "pitch": 70, "duration": 4, "velocity": 107}, {"time": 77, "pitch": 68, "duration": 3, "velocity": 82}, {"time": 80, "pitch": 67, "duration": 33, "velocity": 93}, {"time": 122, "pitch": 72, "duration": 3, "velocity": 95}, {"time": 125, "pitch": 74, "duration": 3, "velocity": 85}, {"time": 128, "pitch": 75, "duration": 17, "velocity": 99}, {"time": 146, "pitch": 74, "duration": 11, "velocity": 102}, {"time": 158, "pitch": 72, "duration": 9, "velocity": 95}, {"time": 170, "pitch": 72, "duration": 6, "velocity": 97}, {"time": 176, "pitch": 79, "duration": 18, "velocity": 99}, {"time": 200, "pitch": 64, "duration": 6, "velocity": 95}, {"time": 206, "pitch": 65, "duration": 6, "velocity": 97}, {"time": 212, "pitch": 67, "duration": 7, "velocity": 95}, {"time": 218, "pitch": 72, "duration": 7, "velocity": 99}, {"time": 224, "pitch": 79, "duration": 12, "velocity": 117}, {"time": 230, "pitch": 77, "duration": 12, "velocity": 122}, {"time": 242, "pitch": 76, "duration": 10, "velocity": 112}, {"time": 254, "pitch": 74, "duration": 9, "velocity": 127}, {"time": 266, "pitch": 72, "duration": 9, "velocity": 112}, {"time": 272, "pitch": 79, "duration": 5, "velocity": 127}, {"time": 278, "pitch": 77, "duration": 5, "velocity": 102}, {"time": 290, "pitch": 76, "duration": 8, "velocity": 117}, {"time": 302, "pitch": 74, "duration": 5, "velocity": 122}, {"time": 308, "pitch": 74, "duration": 5, "velocity": 102}, {"time": 314, "pitch": 72, "duration": 5, "velocity": 112}, {"time": 320, "pitch": 72, "duration": 6, "velocity": 127}, {"time": 326, "pitch": 71, "duration": 4, "velocity": 82}, {"time": 332, "pitch": 71, "duration": 6, "velocity": 97}, {"time": 338, "pitch": 69, "duration": 4, "velocity": 93}, {"time": 344, "pitch": 69, "duration": 5, "velocity": 100}, {"time": 350, "pitch": 67, "duration": 3, "velocity": 102}, {"time": 356, "pitch": 67, "duration": 6, "velocity": 99}, {"time": 362, "pitch": 64, "duration": 7, "velocity": 112}, {"time": 368, "pitch": 75, "duration": 6, "velocity": 127}, {"time": 374, "pitch": 74, "duration": 5, "velocity": 112}, {"time": 380, "pitch": 74, "duration": 6, "velocity": 117}, {"time": 386, "pitch": 72, "duration": 5, "velocity": 97}, {"time": 392, "pitch": 72, "duration": 6, "velocity": 100}, {"time": 398, "pitch": 70, "duration": 5, "velocity": 122}, {"time": 404, "pitch": 70, "duration": 6, "velocity": 117}, {"time": 410, "pitch": 68, "duration": 6, "velocity": 102}, {"time": 416, "pitch": 67, "duration": 41, "velocity": 100}, {"time": 458, "pitch": 76, "duration": 4, "velocity": 99}, {"time": 461, "pitch": 77, "duration": 4, "velocity": 89}, {"time": 464, "pitch": 79, "duration": 29, "velocity": 102}, {"time": 500, "pitch": 77, "duration": 4, "velocity": 95}, {"time": 503, "pitch": 79, "duration": 3, "velocity": 82}, {"time": 506, "pitch": 81, "duration": 7, "velocity": 90}, {"time": 512, "pitch": 83, "duration": 6, "velocity": 99}, {"time": 518, "pitch": 84, "duration": 7, "velocity": 96}, {"time": 524, "pitch": 86, "duration": 20, "velocity": 100}, {"time": 602, "pitch": 55, "duration": 3, "velocity": 89}, {"time": 605, "pitch": 60, "duration": 3, "velocity": 82}, {"time": 608, "pitch": 59, "duration": 16, "velocity": 89}, {"time": 626, "pitch": 60, "duration": 4, "velocity": 83}, {"time": 629, "pitch": 64, "duration": 3, "velocity": 78}, {"time": 632, "pitch": 67, "duration": 11, "velocity": 96}, {"time": 650, "pitch": 67, "duration": 3, "velocity": 95}, {"time": 653, "pitch": 71, "duration": 3, "velocity": 77}, {"time": 656, "pitch": 69, "duration": 18, "velocity": 93}, {"time": 722, "pitch": 55, "duration": 6, "velocity": 69}, {"time": 728, "pitch": 60, "duration": 6, "velocity": 81}, {"time": 731, "pitch": 59, "duration": 14, "velocity": 88}, {"time": 919, "pitch": 43, "duration": 2, "velocity": 78}, {"time": 920, "pitch": 45, "duration": 2, "velocity": 33}, {"time": 922, "pitch": 47, "duration": 2, "velocity": 58}, {"time": 923, "pitch": 48, "duration": 2, "velocity": 47}, {"time": 925, "pitch": 50, "duration": 1, "velocity": 53}, {"time": 926, "pitch": 52, "duration": 2, "velocity": 58}, {"time": 927, "pitch": 53, "duration": 2, "velocity": 62}, {"time": 928, "pitch": 55, "duration": 2, "velocity": 64}, {"time": 930, "pitch": 57, "duration": 1, "velocity": 64}, {"time": 931, "pitch": 59, "duration": 2, "velocity": 61}, {"time": 932, "pitch": 60, "duration": 1, "velocity": 66}, {"time": 933, "pitch": 62, "duration": 1, "velocity": 72}, {"time": 934, "pitch": 64, "duration": 2, "velocity": 69}, {"time": 935, "pitch": 65, "duration": 2, "velocity": 66}, {"time": 936, "pitch": 67, "duration": 2, "velocity": 69}, {"time": 937, "pitch": 69, "duration": 1, "velocity": 70}, {"time": 938, "pitch": 71, "duration": 2, "velocity": 72}, {"time": 939, "pitch": 72, "duration": 2, "velocity": 71}, {"time": 940, "pitch": 74, "duration": 2, "velocity": 67}, {"time": 942, "pitch": 76, "duration": 1, "velocity": 71}, {"time": 943, "pitch": 77, "duration": 1, "velocity": 74}, {"time": 944, "pitch": 79, "duration": 7, "velocity": 66}, {"time": 2192, "pitch": 63, "duration": 18, "velocity": 127}, {"time": 2210, "pitch": 62, "duration": 17, "velocity": 127}, {"time": 2228, "pitch": 60, "duration": 12, "velocity": 117}, {"time": 2240, "pitch": 67, "duration": 19, "velocity": 112}, {"time": 2270, "pitch": 72, "duration": 2, "velocity": 112}, {"time": 2273, "pitch": 72, "duration": 2, "velocity": 92}, {"time": 2276, "pitch": 72, "duration": 4, "velocity": 117}, {"time": 2282, "pitch": 67, "duration": 2, "velocity": 95}, {"time": 2285, "pitch": 67, "duration": 2, "velocity": 96}, {"time": 2288, "pitch": 67, "duration": 4, "velocity": 99}, {"time": 2294, "pitch": 75, "duration": 2, "velocity": 117}, {"time": 2297, "pitch": 75, "duration": 2, "velocity": 88}, {"time": 2300, "pitch": 75, "duration": 6, "velocity": 127}, {"time": 2330, "pitch": 75, "duration": 3, "velocity": 127}, {"time": 2333, "pitch": 77, "duration": 3, "velocity": 96}, {"time": 2336, "pitch": 79, "duration": 18, "velocity": 127}, {"time": 2354, "pitch": 77, "duration": 4, "velocity": 76}, {"time": 2357, "pitch": 72, "duration": 3, "velocity": 75}, {"time": 2360, "pitch": 79, "duration": 4, "velocity": 97}, {"time": 2363, "pitch": 75, "duration": 3, "velocity": 65}, {"time": 2366, "pitch": 72, "duration": 15, "velocity": 89}, {"time": 2384, "pitch": 76, "duration": 3, "velocity": 100}, {"time": 2387, "pitch": 77, "duration": 3, "velocity": 79}, {"time": 2390, "pitch": 76, "duration": 4, "velocity": 107}, {"time": 2393, "pitch": 72, "duration": 5, "velocity": 89}, {"time": 2396, "pitch": 68, "duration": 4, "velocity": 97}, {"time": 2399, "pitch": 65, "duration": 7, "velocity": 97}, {"time": 2405, "pitch": 68, "duration": 4, "velocity": 99}, {"time": 2408, "pitch": 67, "duration": 13, "velocity": 97}, {"time": 2420, "pitch": 67, "duration": 1, "velocity": 112}, {"time": 2432, "pitch": 64, "duration": 6, "velocity": 112}, {"time": 2438, "pitch": 67, "duration": 6, "velocity": 127}, {"time": 2444, "pitch": 76, "duration": 4, "velocity": 122}, {"time": 2450, "pitch": 76, "duration": 14, "velocity": 127}, {"time": 2468, "pitch": 76, "duration": 3, "velocity": 117}, {"time": 2471, "pitch": 74, "duration": 2, "velocity": 96}, {"time": 2474, "pitch": 72, "duration": 4, "velocity": 100}, {"time": 2480, "pitch": 81, "duration": 10, "velocity": 127}, {"time": 2498, "pitch": 81, "duration": 3, "velocity": 122}, {"time": 2501, "pitch": 76, "duration": 3, "velocity": 89}, {"time": 2504, "pitch": 78, "duration": 11, "velocity": 117}, {"time": 2512, "pitch": 69, "duration": 4, "velocity": 97}, {"time": 2516, "pitch": 67, "duration": 3, "velocity": 92}, {"time": 2519, "pitch": 66, "duration": 6, "velocity": 93}, {"time": 2524, "pitch": 67, "duration": 4, "velocity": 95}, {"time": 2528, "pitch": 69, "duration": 24, "velocity": 112}, {"time": 2552, "pitch": 55, "duration": 28, "velocity": 93}, {"time": 2575, "pitch": 59, "duration": 49, "velocity": 117}, {"time": 2696, "pitch": 83, "duration": 3, "velocity": 127}, {"time": 2699, "pitch": 84, "duration": 4, "velocity": 112}, {"time": 2702, "pitch": 83, "duration": 3, "velocity": 122}, {"time": 2705, "pitch": 84, "duration": 4, "velocity": 124}, {"time": 2708, "pitch": 83, "duration": 4, "velocity": 118}, {"time": 2712, "pitch": 79, "duration": 2, "velocity": 80}, {"time": 2714, "pitch": 74, "duration": 4, "velocity": 100}, {"time": 2717, "pitch": 76, "duration": 4, "velocity": 127}, {"time": 2781, "pitch": 77, "duration": 6, "velocity": 127}, {"time": 2787, "pitch": 79, "duration": 6, "velocity": 127}, {"time": 2793, "pitch": 81, "duration": 6, "velocity": 127}, {"time": 2798, "pitch": 83, "duration": 14, "velocity": 127}, {"time": 4274, "pitch": 72, "duration": 9, "velocity": 99}, {"time": 4285, "pitch": 74, "duration": 11, "velocity": 97}, {"time": 4297, "pitch": 76, "duration": 6, "velocity": 89}, {"time": 4304, "pitch": 69, "duration": 16, "velocity": 86}]}, {"program": 0, "is_drum": false, "name": "PIANO", "notes": [{"time": 32, "pitch": 44, "duration": 35, "velocity": 81}, {"time": 38, "pitch": 56, "duration": 27, "velocity": 45}, {"time": 44, "pitch": 60, "duration": 26, "velocity": 56}, {"time": 50, "pitch": 68, "duration": 30, "velocity": 85}, {"time": 68, "pitch": 63, "duration": 13, "velocity": 72}, {"time": 74, "pitch": 60, "duration": 7, "velocity": 42}, {"time": 80, "pitch": 36, "duration": 35, "velocity": 64}, {"time": 86, "pitch": 43, "duration": 30, "velocity": 59}, {"time": 92, "pitch": 48, "duration": 24, "velocity": 74}, {"time": 98, "pitch": 60, "duration": 16, "velocity": 68}, {"time": 98, "pitch": 64, "duration": 31, "velocity": 71}, {"time": 116, "pitch": 60, "duration": 13, "velocity": 63}, {"time": 122, "pitch": 55, "duration": 8, "velocity": 56}, {"time": 128, "pitch": 41, "duration": 37, "velocity": 77}, {"time": 134, "pitch": 48, "duration": 21, "velocity": 56}, {"time": 140, "pitch": 53, "duration": 11, "velocity": 96}, {"time": 146, "pitch": 56, "duration": 16, "velocity": 89}, {"time": 146, "pitch": 60, "duration": 31, "velocity": 85}, {"time": 158, "pitch": 48, "duration": 6, "velocity": 50}, {"time": 164, "pitch": 56, "duration": 13, "velocity": 96}, {"time": 170, "pitch": 53, "duration": 7, "velocity": 42}, {"time": 176, "pitch": 36, "duration": 37, "velocity": 85}, {"time": 182, "pitch": 43, "duration": 31, "velocity": 47}, {"time": 188, "pitch": 48, "duration": 15, "velocity": 82}, {"time": 194, "pitch": 55, "duration": 17, "velocity": 66}, {"time": 194, "pitch": 60, "duration": 13, "velocity": 96}, {"time": 194, "pitch": 64, "duration": 16, "velocity": 93}, {"time": 206, "pitch": 48, "duration": 14, "velocity": 77}, {"time": 212, "pitch": 60, "duration": 12, "velocity": 97}, {"time": 212, "pitch": 64, "duration": 12, "velocity": 92}, {"time": 218, "pitch": 55, "duration": 6, "velocity": 69}, {"time": 224, "pitch": 41, "duration": 46, "velocity": 86}, {"time": 230, "pitch": 48, "duration": 35, "velocity": 83}, {"time": 236, "pitch": 53, "duration": 15, "velocity": 99}, {"time": 242, "pitch": 60, "duration": 17, "velocity": 96}, {"time": 248, "pitch": 65, "duration": 11, "velocity": 95}, {"time": 248, "pitch": 69, "duration": 11, "velocity": 97}, {"time": 254, "pitch": 53, "duration": 10, "velocity": 71}, {"time": 260, "pitch": 60, "duration": 4, "velocity": 52}, {"time": 260, "pitch": 65, "duration": 12, "velocity": 96}, {"time": 260, "pitch": 69, "duration": 12, "velocity": 95}, {"time": 266, "pitch": 60, "duration": 5, "velocity": 71}, {"time": 272, "pitch": 38, "duration": 40, "velocity": 97}, {"time": 278, "pitch": 45, "duration": 35, "velocity": 47}, {"time": 284, "pitch": 50, "duration": 14, "velocity": 88}, {"time": 290, "pitch": 62, "duration": 16, "velocity": 93}, {"time": 290, "pitch": 65, "duration": 16, "velocity": 93}, {"time": 290, "pitch": 69, "duration": 16, "velocity": 92}, {"time": 302, "pitch": 50, "duration": 19, "velocity": 59}, {"time": 308, "pitch": 62, "duration": 13, "velocity": 95}, {"time": 308, "pitch": 65, "duration": 13, "velocity": 97}, {"time": 308, "pitch": 69, "duration": 13, "velocity": 95}, {"time": 320, "pitch": 43, "duration": 40, "velocity": 90}, {"time": 326, "pitch": 50, "duration": 35, "velocity": 66}, {"time": 332, "pitch": 55, "duration": 15, "velocity": 88}, {"time": 338, "pitch": 62, "duration": 16, "velocity": 99}, {"time": 338, "pitch": 67, "duration": 16, "velocity": 107}, {"time": 338, "pitch": 71, "duration": 16, "velocity": 100}, {"time": 350, "pitch": 55, "duration": 12, "velocity": 53}, {"time": 356, "pitch": 67, "duration": 12, "velocity": 102}, {"time": 356, "pitch": 71, "duration": 12, "velocity": 99}, {"time": 362, "pitch": 62, "duration": 7, "velocity": 72}, {"time": 368, "pitch": 44, "duration": 40, "velocity": 107}, {"time": 374, "pitch": 56, "duration": 21, "velocity": 92}, {"time": 380, "pitch": 60, "duration": 23, "velocity": 92}, {"time": 386, "pitch": 63, "duration": 16, "velocity": 112}, {"time": 386, "pitch": 68, "duration": 16, "velocity": 117}, {"time": 398, "pitch": 56, "duration": 9, "velocity": 89}, {"time": 404, "pitch": 63, "duration": 10, "velocity": 122}, {"time": 404, "pitch": 68, "duration": 10, "velocity": 117}, {"time": 416, "pitch": 36, "duration": 37, "velocity": 67}, {"time": 416, "pitch": 64, "duration": 16, "velocity": 95}, {"time": 419, "pitch": 60, "duration": 41, "velocity": 96}, {"time": 419, "pitch": 67, "duration": 16, "velocity": 83}, {"time": 422, "pitch": 43, "duration": 32, "velocity": 57}, {"time": 428, "pitch": 48, "duration": 27, "velocity": 82}, {"time": 434, "pitch": 64, "duration": 22, "velocity": 64}, {"time": 434, "pitch": 67, "duration": 1, "velocity": 67}, {"time": 464, "pitch": 43, "duration": 46, "velocity": 90}, {"time": 464, "pitch": 55, "duration": 11, "velocity": 79}, {"time": 464, "pitch": 59, "duration": 97, "velocity": 78}, {"time": 464, "pitch": 62, "duration": 97, "velocity": 81}, {"time": 473, "pitch": 50, "duration": 40, "velocity": 53}, {"time": 479, "pitch": 55, "duration": 33, "velocity": 58}, {"time": 482, "pitch": 67, "duration": 79, "velocity": 63}, {"time": 512, "pitch": 43, "duration": 49, "velocity": 83}, {"time": 512, "pitch": 55, "duration": 49, "velocity": 56}, {"time": 560, "pitch": 36, "duration": 37, "velocity": 83}, {"time": 566, "pitch": 43, "duration": 31, "velocity": 57}, {"time": 572, "pitch": 48, "duration": 16, "velocity": 69}, {"time": 578, "pitch": 64, "duration": 31, "velocity": 75}, {"time": 584, "pitch": 60, "duration": 25, "velocity": 56}, {"time": 590, "pitch": 48, "duration": 11, "velocity": 46}, {"time": 596, "pitch": 55, "duration": 13, "velocity": 66}, {"time": 608, "pitch": 40, "duration": 37, "velocity": 70}, {"time": 614, "pitch": 47, "duration": 31, "velocity": 61}, {"time": 620, "pitch": 52, "duration": 14, "velocity": 69}, {"time": 626, "pitch": 67, "duration": 32, "velocity": 95}, {"time": 638, "pitch": 52, "duration": 10, "velocity": 56}, {"time": 644, "pitch": 64, "duration": 13, "velocity": 89}, {"time": 650, "pitch": 59, "duration": 8, "velocity": 69}, {"time": 656, "pitch": 45, "duration": 46, "velocity": 89}, {"time": 662, "pitch": 52, "duration": 21, "velocity": 51}, {"time": 668, "pitch": 57, "duration": 9, "velocity": 95}, {"time": 674, "pitch": 60, "duration": 18, "velocity": 76}, {"time": 680, "pitch": 69, "duration": 25, "velocity": 100}, {"time": 686, "pitch": 52, "duration": 15, "velocity": 55}, {"time": 692, "pitch": 64, "duration": 13, "velocity": 92}, {"time": 698, "pitch": 60, "duration": 8, "velocity": 64}, {"time": 704, "pitch": 43, "duration": 44, "velocity": 88}, {"time": 707, "pitch": 50, "duration": 36, "velocity": 41}, {"time": 713, "pitch": 55, "duration": 17, "velocity": 78}, {"time": 722, "pitch": 59, "duration": 20, "velocity": 61}, {"time": 728, "pitch": 67, "duration": 24, "velocity": 95}, {"time": 734, "pitch": 55, "duration": 6, "velocity": 59}, {"time": 740, "pitch": 62, "duration": 12, "velocity": 93}, {"time": 746, "pitch": 59, "duration": 6, "velocity": 64}, {"time": 752, "pitch": 40, "duration": 39, "velocity": 79}, {"time": 758, "pitch": 47, "duration": 33, "velocity": 42}, {"time": 764, "pitch": 52, "duration": 17, "velocity": 64}, {"time": 770, "pitch": 55, "duration": 18, "velocity": 56}, {"time": 776, "pitch": 64, "duration": 25, "velocity": 90}, {"time": 782, "pitch": 52, "duration": 14, "velocity": 59}, {"time": 788, "pitch": 59, "duration": 13, "velocity": 89}, {"time": 794, "pitch": 55, "duration": 7, "velocity": 66}, {"time": 800, "pitch": 45, "duration": 37, "velocity": 74}, {"time": 806, "pitch": 52, "duration": 22, "velocity": 46}, {"time": 812, "pitch": 57, "duration": 15, "velocity": 72}, {"time": 818, "pitch": 60, "duration": 18, "velocity": 66}, {"time": 824, "pitch": 69, "duration": 25, "velocity": 100}, {"time": 830, "pitch": 52, "duration": 6, "velocity": 78}, {"time": 836, "pitch": 64, "duration": 14, "velocity": 79}, {"time": 842, "pitch": 60, "duration": 7, "velocity": 78}, {"time": 848, "pitch": 41, "duration": 45, "velocity": 81}, {"time": 854, "pitch": 48, "duration": 43, "velocity": 45}, {"time": 860, "pitch": 53, "duration": 15, "velocity": 79}, {"time": 866, "pitch": 57, "duration": 20, "velocity": 72}, {"time": 872, "pitch": 65, "duration": 26, "velocity": 100}, {"time": 878, "pitch": 53, "duration": 6, "velocity": 66}, {"time": 884, "pitch": 60, "duration": 13, "velocity": 79}, {"time": 890, "pitch": 57, "duration": 8, "velocity": 79}, {"time": 896, "pitch": 43, "duration": 44, "velocity": 85}, {"time": 902, "pitch": 50, "duration": 43, "velocity": 59}, {"time": 908, "pitch": 55, "duration": 14, "velocity": 82}, {"time": 914, "pitch": 59, "duration": 10, "velocity": 75}, {"time": 920, "pitch": 67, "duration": 25, "velocity": 99}, {"time": 926, "pitch": 55, "duration": 6, "velocity": 88}, {"time": 932, "pitch": 62, "duration": 14, "velocity": 107}, {"time": 938, "pitch": 59, "duration": 7, "velocity": 90}, {"time": 944, "pitch": 45, "duration": 37, "velocity": 82}, {"time": 950, "pitch": 52, "duration": 21, "velocity": 51}, {"time": 956, "pitch": 57, "duration": 11, "velocity": 83}, {"time": 959, "pitch": 60, "duration": 14, "velocity": 73}, {"time": 968, "pitch": 69, "duration": 25, "velocity": 127}, {"time": 974, "pitch": 52, "duration": 6, "velocity": 66}, {"time": 980, "pitch": 64, "duration": 13, "velocity": 96}, {"time": 986, "pitch": 60, "duration": 7, "velocity": 90}, {"time": 992, "pitch": 40, "duration": 39, "velocity": 86}, {"time": 998, "pitch": 47, "duration": 41, "velocity": 45}, {"time": 1004, "pitch": 52, "duration": 16, "velocity": 71}, {"time": 1007, "pitch": 59, "duration": 20, "velocity": 73}, {"time": 1016, "pitch": 67, "duration": 26, "velocity": 99}, {"time": 1022, "pitch": 52, "duration": 7, "velocity": 68}, {"time": 1028, "pitch": 64, "duration": 13, "velocity": 99}, {"time": 1034, "pitch": 59, "duration": 7, "velocity": 89}, {"time": 1040, "pitch": 41, "duration": 39, "velocity": 73}, {"time": 1046, "pitch": 48, "duration": 33, "velocity": 46}, {"time": 1052, "pitch": 53, "duration": 15, "velocity": 81}, {"time": 1058, "pitch": 57, "duration": 20, "velocity": 82}, {"time": 1064, "pitch": 65, "duration": 27, "velocity": 100}, {"time": 1070, "pitch": 53, "duration": 5, "velocity": 63}, {"time": 1076, "pitch": 60, "duration": 13, "velocity": 107}, {"time": 1082, "pitch": 57, "duration": 8, "velocity": 92}, {"time": 1088, "pitch": 36, "duration": 36, "velocity": 72}, {"time": 1094, "pitch": 43, "duration": 31, "velocity": 55}, {"time": 1100, "pitch": 48, "duration": 16, "velocity": 85}, {"time": 1106, "pitch": 55, "duration": 18, "velocity": 67}, {"time": 1112, "pitch": 64, "duration": 25, "velocity": 97}, {"time": 1118, "pitch": 48, "duration": 9, "velocity": 56}, {"time": 1124, "pitch": 60, "duration": 12, "velocity": 102}, {"time": 1130, "pitch": 55, "duration": 6, "velocity": 42}, {"time": 1136, "pitch": 45, "duration": 37, "velocity": 72}, {"time": 1142, "pitch": 52, "duration": 22, "velocity": 65}, {"time": 1148, "pitch": 57, "duration": 8, "velocity": 90}, {"time": 1154, "pitch": 60, "duration": 6, "velocity": 93}, {"time": 1160, "pitch": 64, "duration": 25, "velocity": 100}, {"time": 1166, "pitch": 52, "duration": 5, "velocity": 78}, {"time": 1172, "pitch": 60, "duration": 13, "velocity": 107}, {"time": 1178, "pitch": 57, "duration": 7, "velocity": 82}, {"time": 1184, "pitch": 40, "duration": 37, "velocity": 86}, {"time": 1190, "pitch": 47, "duration": 33, "velocity": 82}, {"time": 1196, "pitch": 52, "duration": 15, "velocity": 86}, {"time": 1202, "pitch": 59, "duration": 19, "velocity": 93}, {"time": 1208, "pitch": 67, "duration": 25, "velocity": 107}, {"time": 1214, "pitch": 52, "duration": 17, "velocity": 93}, {"time": 1220, "pitch": 64, "duration": 13, "velocity": 102}, {"time": 1226, "pitch": 59, "duration": 8, "velocity": 95}, {"time": 1232, "pitch": 41, "duration": 47, "velocity": 77}, {"time": 1238, "pitch": 48, "duration": 43, "velocity": 67}, {"time": 1244, "pitch": 53, "duration": 15, "velocity": 93}, {"time": 1250, "pitch": 60, "duration": 20, "velocity": 79}, {"time": 1256, "pitch": 69, "duration": 24, "velocity": 107}, {"time": 1262, "pitch": 53, "duration": 8, "velocity": 85}, {"time": 1268, "pitch": 65, "duration": 12, "velocity": 102}, {"time": 1274, "pitch": 60, "duration": 6, "velocity": 93}, {"time": 1280, "pitch": 43, "duration": 46, "velocity": 97}, {"time": 1286, "pitch": 50, "duration": 40, "velocity": 68}, {"time": 1292, "pitch": 55, "duration": 15, "velocity": 93}, {"time": 1298, "pitch": 62, "duration": 20, "velocity": 88}, {"time": 1304, "pitch": 71, "duration": 14, "velocity": 107}, {"time": 1310, "pitch": 55, "duration": 16, "velocity": 86}, {"time": 1316, "pitch": 69, "duration": 11, "velocity": 96}, {"time": 1328, "pitch": 43, "duration": 38, "velocity": 70}, {"time": 1328, "pitch": 50, "duration": 1, "velocity": 55}, {"time": 1328, "pitch": 55, "duration": 33, "velocity": 88}, {"time": 1328, "pitch": 62, "duration": 48, "velocity": 89}, {"time": 1328, "pitch": 67, "duration": 48, "velocity": 78}, {"time": 1328, "pitch": 71, "duration": 48, "velocity": 79}, {"time": 1376, "pitch": 36, "duration": 22, "velocity": 92}, {"time": 1379, "pitch": 43, "duration": 22, "velocity": 75}, {"time": 1382, "pitch": 48, "duration": 8, "velocity": 88}, {"time": 1385, "pitch": 55, "duration": 5, "velocity": 70}, {"time": 1388, "pitch": 64, "duration": 18, "velocity": 85}, {"time": 1391, "pitch": 48, "duration": 11, "velocity": 73}, {"time": 1394, "pitch": 60, "duration": 14, "velocity": 75}, {"time": 1397, "pitch": 55, "duration": 8, "velocity": 73}, {"time": 1400, "pitch": 36, "duration": 17, "velocity": 81}, {"time": 1403, "pitch": 43, "duration": 15, "velocity": 52}, {"time": 1406, "pitch": 48, "duration": 8, "velocity": 66}, {"time": 1409, "pitch": 55, "duration": 5, "velocity": 66}, {"time": 1412, "pitch": 64, "duration": 12, "velocity": 97}, {"time": 1415, "pitch": 48, "duration": 8, "velocity": 74}, {"time": 1418, "pitch": 60, "duration": 6, "velocity": 78}, {"time": 1421, "pitch": 55, "duration": 3, "velocity": 81}, {"time": 1424, "pitch": 40, "duration": 22, "velocity": 71}, {"time": 1427, "pitch": 47, "duration": 22, "velocity": 45}, {"time": 1430, "pitch": 52, "duration": 8, "velocity": 64}, {"time": 1433, "pitch": 59, "duration": 5, "velocity": 65}, {"time": 1436, "pitch": 67, "duration": 19, "velocity": 99}, {"time": 1439, "pitch": 52, "duration": 6, "velocity": 70}, {"time": 1442, "pitch": 64, "duration": 13, "velocity": 57}, {"time": 1445, "pitch": 59, "duration": 10, "velocity": 72}, {"time": 1448, "pitch": 40, "duration": 17, "velocity": 58}, {"time": 1451, "pitch": 47, "duration": 15, "velocity": 41}, {"time": 1454, "pitch": 52, "duration": 8, "velocity": 73}, {"time": 1457, "pitch": 59, "duration": 6, "velocity": 82}, {"time": 1460, "pitch": 67, "duration": 12, "velocity": 100}, {"time": 1463, "pitch": 52, "duration": 9, "velocity": 85}, {"time": 1466, "pitch": 64, "duration": 6, "velocity": 74}, {"time": 1469, "pitch": 59, "duration": 3, "velocity": 83}, {"time": 1472, "pitch": 45, "duration": 23, "velocity": 69}, {"time": 1475, "pitch": 52, "duration": 23, "velocity": 63}, {"time": 1478, "pitch": 57, "duration": 8, "velocity": 82}, {"time": 1481, "pitch": 60, "duration": 5, "velocity": 66}, {"time": 1484, "pitch": 69, "duration": 15, "velocity": 83}, {"time": 1487, "pitch": 57, "duration": 3, "velocity": 72}, {"time": 1490, "pitch": 64, "duration": 7, "velocity": 65}, {"time": 1493, "pitch": 60, "duration": 5, "velocity": 73}, {"time": 1496, "pitch": 45, "duration": 18, "velocity": 63}, {"time": 1499, "pitch": 52, "duration": 11, "velocity": 57}, {"time": 1502, "pitch": 57, "duration": 7, "velocity": 85}, {"time": 1505, "pitch": 60, "duration": 6, "velocity": 73}, {"time": 1508, "pitch": 69, "duration": 12, "velocity": 97}, {"time": 1511, "pitch": 52, "duration": 2, "velocity": 75}, {"time": 1514, "pitch": 64, "duration": 6, "velocity": 89}, {"time": 1517, "pitch": 60, "duration": 4, "velocity": 73}, {"time": 1520, "pitch": 40, "duration": 23, "velocity": 74}, {"time": 1523, "pitch": 47, "duration": 22, "velocity": 55}, {"time": 1526, "pitch": 52, "duration": 8, "velocity": 72}, {"time": 1529, "pitch": 55, "duration": 3, "velocity": 59}, {"time": 1532, "pitch": 59, "duration": 6, "velocity": 89}, {"time": 1535, "pitch": 52, "duration": 4, "velocity": 76}, {"time": 1538, "pitch": 55, "duration": 5, "velocity": 89}, {"time": 1541, "pitch": 59, "duration": 3, "velocity": 66}, {"time": 1544, "pitch": 40, "duration": 20, "velocity": 81}, {"time": 1547, "pitch": 47, "duration": 20, "velocity": 67}, {"time": 1550, "pitch": 52, "duration": 7, "velocity": 73}, {"time": 1553, "pitch": 55, "duration": 5, "velocity": 78}, {"time": 1556, "pitch": 64, "duration": 11, "velocity": 96}, {"time": 1559, "pitch": 52, "duration": 3, "velocity": 85}, {"time": 1562, "pitch": 59, "duration": 5, "velocity": 90}, {"time": 1565, "pitch": 55, "duration": 3, "velocity": 90}, {"time": 1568, "pitch": 41, "duration": 23, "velocity": 72}, {"time": 1571, "pitch": 48, "duration": 22, "velocity": 50}, {"time": 1574, "pitch": 53, "duration": 7, "velocity": 56}, {"time": 1577, "pitch": 57, "duration": 5, "velocity": 69}, {"time": 1580, "pitch": 65, "duration": 15, "velocity": 90}, {"time": 1583, "pitch": 53, "duration": 3, "velocity": 72}, {"time": 1586, "pitch": 60, "duration": 8, "velocity": 68}, {"time": 1589, "pitch": 57, "duration": 6, "velocity": 66}, {"time": 1592, "pitch": 41, "duration": 20, "velocity": 63}, {"time": 1595, "pitch": 48, "duration": 16, "velocity": 49}, {"time": 1598, "pitch": 53, "duration": 7, "velocity": 59}, {"time": 1601, "pitch": 57, "duration": 5, "velocity": 69}, {"time": 1604, "pitch": 65, "duration": 12, "velocity": 100}, {"time": 1607, "pitch": 53, "duration": 3, "velocity": 85}, {"time": 1610, "pitch": 60, "duration": 5, "velocity": 83}, {"time": 1613, "pitch": 57, "duration": 3, "velocity": 92}, {"time": 1616, "pitch": 40, "duration": 18, "velocity": 72}, {"time": 1619, "pitch": 47, "duration": 15, "velocity": 48}, {"time": 1622, "pitch": 52, "duration": 8, "velocity": 72}, {"time": 1625, "pitch": 55, "duration": 5, "velocity": 70}, {"time": 1628, "pitch": 64, "duration": 11, "velocity": 93}, {"time": 1631, "pitch": 52, "duration": 8, "velocity": 77}, {"time": 1634, "pitch": 59, "duration": 5, "velocity": 82}, {"time": 1637, "pitch": 55, "duration": 3, "velocity": 82}, {"time": 1640, "pitch": 45, "duration": 18, "velocity": 65}, {"time": 1643, "pitch": 52, "duration": 11, "velocity": 60}, {"time": 1646, "pitch": 57, "duration": 4, "velocity": 89}, {"time": 1649, "pitch": 60, "duration": 3, "velocity": 93}, {"time": 1652, "pitch": 64, "duration": 11, "velocity": 95}, {"time": 1655, "pitch": 52, "duration": 2, "velocity": 66}, {"time": 1658, "pitch": 60, "duration": 5, "velocity": 96}, {"time": 1661, "pitch": 57, "duration": 4, "velocity": 81}, {"time": 1664, "pitch": 38, "duration": 23, "velocity": 66}, {"time": 1667, "pitch": 45, "duration": 22, "velocity": 51}, {"time": 1670, "pitch": 50, "duration": 8, "velocity": 73}, {"time": 1673, "pitch": 57, "duration": 5, "velocity": 77}, {"time": 1676, "pitch": 65, "duration": 12, "velocity": 99}, {"time": 1679, "pitch": 50, "duration": 4, "velocity": 85}, {"time": 1682, "pitch": 62, "duration": 7, "velocity": 81}, {"time": 1685, "pitch": 57, "duration": 4, "velocity": 88}, {"time": 1688, "pitch": 38, "duration": 17, "velocity": 77}, {"time": 1691, "pitch": 45, "duration": 14, "velocity": 48}, {"time": 1694, "pitch": 50, "duration": 7, "velocity": 77}, {"time": 1697, "pitch": 57, "duration": 5, "velocity": 76}, {"time": 1700, "pitch": 65, "duration": 11, "velocity": 107}, {"time": 1703, "pitch": 50, "duration": 7, "velocity": 92}, {"time": 1706, "pitch": 62, "duration": 6, "velocity": 99}, {"time": 1709, "pitch": 57, "duration": 3, "velocity": 99}, {"time": 1712, "pitch": 43, "duration": 23, "velocity": 92}, {"time": 1715, "pitch": 50, "duration": 23, "velocity": 65}, {"time": 1718, "pitch": 55, "duration": 8, "velocity": 81}, {"time": 1721, "pitch": 59, "duration": 5, "velocity": 79}, {"time": 1724, "pitch": 67, "duration": 10, "velocity": 122}, {"time": 1727, "pitch": 55, "duration": 3, "velocity": 99}, {"time": 1730, "pitch": 62, "duration": 5, "velocity": 112}, {"time": 1733, "pitch": 59, "duration": 3, "velocity": 69}, {"time": 1736, "pitch": 43, "duration": 18, "velocity": 93}, {"time": 1736, "pitch": 59, "duration": 8, "velocity": 78}, {"time": 1736, "pitch": 62, "duration": 8, "velocity": 100}, {"time": 1736, "pitch": 67, "duration": 10, "velocity": 95}, {"time": 1739, "pitch": 50, "duration": 11, "velocity": 88}, {"time": 1742, "pitch": 55, "duration": 5, "velocity": 89}, {"time": 1745, "pitch": 59, "duration": 2, "velocity": 85}, {"time": 1748, "pitch": 62, "duration": 7, "velocity": 112}, {"time": 1748, "pitch": 67, "duration": 10, "velocity": 107}, {"time": 1751, "pitch": 50, "duration": 2, "velocity": 86}, {"time": 1754, "pitch": 59, "duration": 5, "velocity": 100}, {"time": 1760, "pitch": 36, "duration": 22, "velocity": 92}, {"time": 1763, "pitch": 43, "duration": 21, "velocity": 88}, {"time": 1766, "pitch": 48, "duration": 6, "velocity": 89}, {"time": 1769, "pitch": 55, "duration": 5, "velocity": 72}, {"time": 1772, "pitch": 64, "duration": 21, "velocity": 99}, {"time": 1775, "pitch": 48, "duration": 4, "velocity": 89}, {"time": 1778, "pitch": 60, "duration": 15, "velocity": 93}, {"time": 1781, "pitch": 55, "duration": 11, "velocity": 89}, {"time": 1784, "pitch": 36, "duration": 18, "velocity": 73}, {"time": 1787, "pitch": 43, "duration": 16, "velocity": 63}, {"time": 1790, "pitch": 48, "duration": 7, "velocity": 79}, {"time": 1793, "pitch": 55, "duration": 5, "velocity": 79}, {"time": 1796, "pitch": 64, "duration": 10, "velocity": 97}, {"time": 1799, "pitch": 48, "duration": 8, "velocity": 86}, {"time": 1802, "pitch": 60, "duration": 5, "velocity": 90}, {"time": 1805, "pitch": 55, "duration": 3, "velocity": 90}, {"time": 1808, "pitch": 40, "duration": 22, "velocity": 76}, {"time": 1811, "pitch": 47, "duration": 21, "velocity": 48}, {"time": 1814, "pitch": 52, "duration": 7, "velocity": 69}, {"time": 1817, "pitch": 59, "duration": 7, "velocity": 77}, {"time": 1820, "pitch": 67, "duration": 20, "velocity": 92}, {"time": 1823, "pitch": 52, "duration": 5, "velocity": 76}, {"time": 1826, "pitch": 64, "duration": 16, "velocity": 83}, {"time": 1829, "pitch": 59, "duration": 10, "velocity": 77}, {"time": 1832, "pitch": 40, "duration": 18, "velocity": 66}, {"time": 1835, "pitch": 47, "duration": 15, "velocity": 57}, {"time": 1838, "pitch": 52, "duration": 8, "velocity": 76}, {"time": 1841, "pitch": 59, "duration": 5, "velocity": 68}, {"time": 1844, "pitch": 67, "duration": 11, "velocity": 99}, {"time": 1847, "pitch": 52, "duration": 8, "velocity": 69}, {"time": 1850, "pitch": 64, "duration": 6, "velocity": 89}, {"time": 1853, "pitch": 59, "duration": 4, "velocity": 88}, {"time": 1856, "pitch": 45, "duration": 22, "velocity": 63}, {"time": 1859, "pitch": 52, "duration": 11, "velocity": 53}, {"time": 1862, "pitch": 57, "duration": 5, "velocity": 73}, {"time": 1865, "pitch": 60, "duration": 3, "velocity": 75}, {"time": 1868, "pitch": 64, "duration": 12, "velocity": 112}, {"time": 1871, "pitch": 52, "duration": 7, "velocity": 42}, {"time": 1874, "pitch": 60, "duration": 6, "velocity": 86}, {"time": 1877, "pitch": 57, "duration": 3, "velocity": 74}, {"time": 1880, "pitch": 45, "duration": 18, "velocity": 71}, {"time": 1883, "pitch": 52, "duration": 11, "velocity": 61}, {"time": 1886, "pitch": 57, "duration": 5, "velocity": 82}, {"time": 1889, "pitch": 64, "duration": 5, "velocity": 78}, {"time": 1892, "pitch": 72, "duration": 10, "velocity": 100}, {"time": 1895, "pitch": 52, "duration": 2, "velocity": 52}, {"time": 1898, "pitch": 69, "duration": 5, "velocity": 81}, {"time": 1901, "pitch": 64, "duration": 3, "velocity": 83}, {"time": 1904, "pitch": 40, "duration": 23, "velocity": 83}, {"time": 1907, "pitch": 47, "duration": 22, "velocity": 73}, {"time": 1910, "pitch": 52, "duration": 7, "velocity": 65}, {"time": 1913, "pitch": 59, "duration": 6, "velocity": 67}, {"time": 1916, "pitch": 67, "duration": 13, "velocity": 93}, {"time": 1919, "pitch": 52, "duration": 4, "velocity": 72}, {"time": 1922, "pitch": 64, "duration": 7, "velocity": 81}, {"time": 1925, "pitch": 59, "duration": 4, "velocity": 68}, {"time": 1928, "pitch": 40, "duration": 21, "velocity": 72}, {"time": 1931, "pitch": 47, "duration": 20, "velocity": 52}, {"time": 1934, "pitch": 52, "duration": 7, "velocity": 77}, {"time": 1937, "pitch": 59, "duration": 4, "velocity": 79}, {"time": 1940, "pitch": 67, "duration": 11, "velocity": 102}, {"time": 1943, "pitch": 52, "duration": 3, "velocity": 82}, {"time": 1946, "pitch": 64, "duration": 5, "velocity": 95}, {"time": 1949, "pitch": 59, "duration": 4, "velocity": 79}, {"time": 1952, "pitch": 41, "duration": 21, "velocity": 76}, {"time": 1955, "pitch": 48, "duration": 21, "velocity": 85}, {"time": 1958, "pitch": 53, "duration": 8, "velocity": 81}, {"time": 1961, "pitch": 60, "duration": 4, "velocity": 68}, {"time": 1964, "pitch": 65, "duration": 8, "velocity": 83}, {"time": 1964, "pitch": 69, "duration": 20, "velocity": 93}, {"time": 1967, "pitch": 53, "duration": 3, "velocity": 72}, {"time": 1970, "pitch": 60, "duration": 13, "velocity": 76}, {"time": 1973, "pitch": 65, "duration": 11, "velocity": 51}, {"time": 1976, "pitch": 41, "duration": 20, "velocity": 51}, {"time": 1979, "pitch": 48, "duration": 16, "velocity": 58}, {"time": 1982, "pitch": 53, "duration": 7, "velocity": 55}, {"time": 1985, "pitch": 60, "duration": 6, "velocity": 66}, {"time": 1988, "pitch": 69, "duration": 11, "velocity": 97}, {"time": 1991, "pitch": 53, "duration": 2, "velocity": 65}, {"time": 1994, "pitch": 65, "duration": 5, "velocity": 76}, {"time": 1997, "pitch": 60, "duration": 2, "velocity": 43}, {"time": 2000, "pitch": 40, "duration": 19, "velocity": 85}, {"time": 2003, "pitch": 47, "duration": 16, "velocity": 53}, {"time": 2006, "pitch": 52, "duration": 17, "velocity": 74}, {"time": 2009, "pitch": 59, "duration": 4, "velocity": 52}, {"time": 2012, "pitch": 67, "duration": 12, "velocity": 67}, {"time": 2018, "pitch": 64, "duration": 6, "velocity": 95}, {"time": 2024, "pitch": 45, "duration": 19, "velocity": 68}, {"time": 2027, "pitch": 52, "duration": 11, "velocity": 59}, {"time": 2030, "pitch": 57, "duration": 4, "velocity": 82}, {"time": 2033, "pitch": 60, "duration": 3, "velocity": 88}, {"time": 2036, "pitch": 64, "duration": 10, "velocity": 100}, {"time": 2039, "pitch": 52, "duration": 2, "velocity": 52}, {"time": 2042, "pitch": 60, "duration": 5, "velocity": 100}, {"time": 2045, "pitch": 57, "duration": 3, "velocity": 72}, {"time": 2048, "pitch": 38, "duration": 23, "velocity": 86}, {"time": 2051, "pitch": 45, "duration": 21, "velocity": 86}, {"time": 2054, "pitch": 50, "duration": 7, "velocity": 78}, {"time": 2057, "pitch": 57, "duration": 5, "velocity": 73}, {"time": 2060, "pitch": 65, "duration": 21, "velocity": 93}, {"time": 2063, "pitch": 50, "duration": 13, "velocity": 68}, {"time": 2066, "pitch": 62, "duration": 16, "velocity": 83}, {"time": 2069, "pitch": 57, "duration": 11, "velocity": 74}, {"time": 2072, "pitch": 38, "duration": 17, "velocity": 74}, {"time": 2075, "pitch": 45, "duration": 14, "velocity": 56}, {"time": 2078, "pitch": 50, "duration": 8, "velocity": 70}, {"time": 2081, "pitch": 57, "duration": 6, "velocity": 66}, {"time": 2084, "pitch": 65, "duration": 10, "velocity": 102}, {"time": 2087, "pitch": 50, "duration": 7, "velocity": 83}, {"time": 2090, "pitch": 62, "duration": 5, "velocity": 88}, {"time": 2093, "pitch": 57, "duration": 3, "velocity": 83}, {"time": 2096, "pitch": 43, "duration": 21, "velocity": 68}, {"time": 2099, "pitch": 50, "duration": 21, "velocity": 72}, {"time": 2102, "pitch": 55, "duration": 7, "velocity": 78}, {"time": 2105, "pitch": 59, "duration": 5, "velocity": 79}, {"time": 2108, "pitch": 67, "duration": 22, "velocity": 100}, {"time": 2111, "pitch": 55, "duration": 2, "velocity": 81}, {"time": 2114, "pitch": 62, "duration": 16, "velocity": 81}, {"time": 2117, "pitch": 59, "duration": 14, "velocity": 82}, {"time": 2120, "pitch": 43, "duration": 18, "velocity": 74}, {"time": 2126, "pitch": 50, "duration": 8, "velocity": 47}, {"time": 2132, "pitch": 67, "duration": 12, "velocity": 100}, {"time": 2135, "pitch": 50, "duration": 2, "velocity": 56}, {"time": 2138, "pitch": 62, "duration": 7, "velocity": 72}, {"time": 2144, "pitch": 36, "duration": 22, "velocity": 77}, {"time": 2147, "pitch": 43, "duration": 22, "velocity": 77}, {"time": 2150, "pitch": 48, "duration": 7, "velocity": 73}, {"time": 2153, "pitch": 55, "duration": 5, "velocity": 72}, {"time": 2156, "pitch": 64, "duration": 21, "velocity": 95}, {"time": 2159, "pitch": 48, "duration": 5, "velocity": 81}, {"time": 2162, "pitch": 60, "duration": 16, "velocity": 76}, {"time": 2165, "pitch": 55, "duration": 15, "velocity": 72}, {"time": 2168, "pitch": 36, "duration": 21, "velocity": 53}, {"time": 2174, "pitch": 43, "duration": 15, "velocity": 42}, {"time": 2180, "pitch": 64, "duration": 9, "velocity": 95}, {"time": 2183, "pitch": 48, "duration": 6, "velocity": 56}, {"time": 2186, "pitch": 60, "duration": 3, "velocity": 82}, {"time": 2192, "pitch": 46, "duration": 15, "velocity": 127}, {"time": 2192, "pitch": 55, "duration": 13, "velocity": 92}, {"time": 2192, "pitch": 60, "duration": 11, "velocity": 107}, {"time": 2192, "pitch": 64, "duration": 12, "velocity": 93}, {"time": 2210, "pitch": 44, "duration": 22, "velocity": 99}, {"time": 2210, "pitch": 56, "duration": 21, "velocity": 102}, {"time": 2210, "pitch": 60, "duration": 21, "velocity": 99}, {"time": 2210, "pitch": 63, "duration": 21, "velocity": 107}, {"time": 2240, "pitch": 45, "duration": 41, "velocity": 97}, {"time": 2240, "pitch": 57, "duration": 5, "velocity": 93}, {"time": 2240, "pitch": 60, "duration": 8, "velocity": 100}, {"time": 2240, "pitch": 64, "duration": 8, "velocity": 95}, {"time": 2246, "pitch": 52, "duration": 22, "velocity": 93}, {"time": 2252, "pitch": 57, "duration": 5, "velocity": 112}, {"time": 2258, "pitch": 64, "duration": 16, "velocity": 97}, {"time": 2264, "pitch": 60, "duration": 10, "velocity": 117}, {"time": 2270, "pitch": 52, "duration": 7, "velocity": 89}, {"time": 2276, "pitch": 64, "duration": 10, "velocity": 117}, {"time": 2279, "pitch": 52, "duration": 2, "velocity": 86}, {"time": 2282, "pitch": 60, "duration": 4, "velocity": 99}, {"time": 2285, "pitch": 57, "duration": 3, "velocity": 96}, {"time": 2288, "pitch": 44, "duration": 42, "velocity": 82}, {"time": 2294, "pitch": 51, "duration": 35, "velocity": 66}, {"time": 2297, "pitch": 56, "duration": 7, "velocity": 95}, {"time": 2300, "pitch": 60, "duration": 14, "velocity": 86}, {"time": 2306, "pitch": 56, "duration": 8, "velocity": 85}, {"time": 2312, "pitch": 63, "duration": 10, "velocity": 97}, {"time": 2312, "pitch": 68, "duration": 9, "velocity": 100}, {"time": 2318, "pitch": 56, "duration": 6, "velocity": 102}, {"time": 2324, "pitch": 68, "duration": 11, "velocity": 127}, {"time": 2327, "pitch": 56, "duration": 3, "velocity": 96}, {"time": 2327, "pitch": 63, "duration": 4, "velocity": 82}, {"time": 2330, "pitch": 60, "duration": 4, "velocity": 99}, {"time": 2333, "pitch": 63, "duration": 3, "velocity": 92}, {"time": 2336, "pitch": 43, "duration": 48, "velocity": 70}, {"time": 2339, "pitch": 50, "duration": 11, "velocity": 89}, {"time": 2342, "pitch": 55, "duration": 6, "velocity": 92}, {"time": 2345, "pitch": 59, "duration": 3, "velocity": 90}, {"time": 2348, "pitch": 62, "duration": 24, "velocity": 107}, {"time": 2351, "pitch": 50, "duration": 15, "velocity": 72}, {"time": 2354, "pitch": 59, "duration": 18, "velocity": 90}, {"time": 2360, "pitch": 55, "duration": 12, "velocity": 97}, {"time": 2366, "pitch": 50, "duration": 7, "velocity": 76}, {"time": 2372, "pitch": 59, "duration": 7, "velocity": 92}, {"time": 2372, "pitch": 62, "duration": 10, "velocity": 97}, {"time": 2375, "pitch": 50, "duration": 8, "velocity": 71}, {"time": 2378, "pitch": 55, "duration": 4, "velocity": 79}, {"time": 2384, "pitch": 43, "duration": 38, "velocity": 92}, {"time": 2384, "pitch": 55, "duration": 9, "velocity": 100}, {"time": 2384, "pitch": 59, "duration": 11, "velocity": 95}, {"time": 2384, "pitch": 62, "duration": 10, "velocity": 92}, {"time": 2390, "pitch": 50, "duration": 24, "velocity": 66}, {"time": 2396, "pitch": 55, "duration": 5, "velocity": 69}, {"time": 2396, "pitch": 59, "duration": 4, "velocity": 51}, {"time": 2396, "pitch": 62, "duration": 5, "velocity": 66}, {"time": 2402, "pitch": 55, "duration": 1, "velocity": 38}, {"time": 2402, "pitch": 59, "duration": 1, "velocity": 86}, {"time": 2402, "pitch": 62, "duration": 2, "velocity": 74}, {"time": 2408, "pitch": 55, "duration": 9, "velocity": 82}, {"time": 2408, "pitch": 62, "duration": 10, "velocity": 107}, {"time": 2408, "pitch": 67, "duration": 10, "velocity": 122}, {"time": 2408, "pitch": 71, "duration": 10, "velocity": 107}, {"time": 2414, "pitch": 50, "duration": 6, "velocity": 69}, {"time": 2420, "pitch": 67, "duration": 7, "velocity": 127}, {"time": 2420, "pitch": 71, "duration": 10, "velocity": 117}, {"time": 2426, "pitch": 62, "duration": 4, "velocity": 99}, {"time": 2432, "pitch": 40, "duration": 19, "velocity": 86}, {"time": 2432, "pitch": 64, "duration": 3, "velocity": 93}, {"time": 2432, "pitch": 67, "duration": 3, "velocity": 102}, {"time": 2432, "pitch": 71, "duration": 2, "velocity": 97}, {"time": 2438, "pitch": 47, "duration": 18, "velocity": 64}, {"time": 2444, "pitch": 52, "duration": 5, "velocity": 100}, {"time": 2450, "pitch": 55, "duration": 2, "velocity": 90}, {"time": 2456, "pitch": 41, "duration": 16, "velocity": 90}, {"time": 2456, "pitch": 53, "duration": 4, "velocity": 99}, {"time": 2456, "pitch": 57, "duration": 4, "velocity": 99}, {"time": 2456, "pitch": 60, "duration": 5, "velocity": 96}, {"time": 2462, "pitch": 48, "duration": 10, "velocity": 73}, {"time": 2468, "pitch": 53, "duration": 3, "velocity": 96}, {"time": 2468, "pitch": 60, "duration": 4, "velocity": 100}, {"time": 2468, "pitch": 65, "duration": 6, "velocity": 107}, {"time": 2468, "pitch": 69, "duration": 7, "velocity": 107}, {"time": 2474, "pitch": 60, "duration": 3, "velocity": 96}, {"time": 2480, "pitch": 38, "duration": 2, "velocity": 93}, {"time": 2480, "pitch": 62, "duration": 9, "velocity": 99}, {"time": 2480, "pitch": 66, "duration": 11, "velocity": 127}, {"time": 2480, "pitch": 69, "duration": 10, "velocity": 100}, {"time": 2486, "pitch": 50, "duration": 9, "velocity": 74}, {"time": 2492, "pitch": 62, "duration": 4, "velocity": 96}, {"time": 2492, "pitch": 66, "duration": 1, "velocity": 32}, {"time": 2498, "pitch": 54, "duration": 17, "velocity": 117}, {"time": 2498, "pitch": 62, "duration": 16, "velocity": 102}, {"time": 2498, "pitch": 66, "duration": 16, "velocity": 127}, {"time": 2498, "pitch": 69, "duration": 16, "velocity": 102}, {"time": 2516, "pitch": 66, "duration": 7, "velocity": 127}, {"time": 2516, "pitch": 69, "duration": 8, "velocity": 127}, {"time": 2522, "pitch": 62, "duration": 7, "velocity": 89}, {"time": 2528, "pitch": 43, "duration": 43, "velocity": 93}, {"time": 2528, "pitch": 67, "duration": 4, "velocity": 122}, {"time": 2534, "pitch": 50, "duration": 37, "velocity": 90}, {"time": 2537, "pitch": 55, "duration": 12, "velocity": 82}, {"time": 2540, "pitch": 57, "duration": 4, "velocity": 85}, {"time": 2540, "pitch": 59, "duration": 4, "velocity": 81}, {"time": 2543, "pitch": 62, "duration": 1, "velocity": 99}, {"time": 2549, "pitch": 55, "duration": 7, "velocity": 89}, {"time": 2549, "pitch": 62, "duration": 23, "velocity": 93}, {"time": 2549, "pitch": 67, "duration": 11, "velocity": 90}, {"time": 2549, "pitch": 71, "duration": 11, "velocity": 86}, {"time": 2558, "pitch": 55, "duration": 6, "velocity": 71}, {"time": 2564, "pitch": 71, "duration": 7, "velocity": 112}, {"time": 2567, "pitch": 55, "duration": 4, "velocity": 66}, {"time": 2570, "pitch": 69, "duration": 5, "velocity": 99}, {"time": 2576, "pitch": 43, "duration": 48, "velocity": 63}, {"time": 2576, "pitch": 50, "duration": 48, "velocity": 69}, {"time": 2576, "pitch": 55, "duration": 48, "velocity": 89}, {"time": 2576, "pitch": 62, "duration": 48, "velocity": 92}, {"time": 2576, "pitch": 67, "duration": 48, "velocity": 96}, {"time": 2576, "pitch": 71, "duration": 48, "velocity": 90}, {"time": 2624, "pitch": 36, "duration": 37, "velocity": 83}, {"time": 2630, "pitch": 43, "duration": 31, "velocity": 57}, {"time": 2636, "pitch": 48, "duration": 16, "velocity": 69}, {"time": 2642, "pitch": 64, "duration": 31, "velocity": 75}, {"time": 2648, "pitch": 60, "duration": 25, "velocity": 56}, {"time": 2654, "pitch": 48, "duration": 11, "velocity": 46}, {"time": 2660, "pitch": 55, "duration": 13, "velocity": 66}, {"time": 2672, "pitch": 40, "duration": 37, "velocity": 70}, {"time": 2678, "pitch": 47, "duration": 31, "velocity": 61}, {"time": 2684, "pitch": 52, "duration": 14, "velocity": 69}, {"time": 2690, "pitch": 67, "duration": 32, "velocity": 95}, {"time": 2702, "pitch": 52, "duration": 10, "velocity": 56}, {"time": 2708, "pitch": 64, "duration": 13, "velocity": 89}, {"time": 2714, "pitch": 59, "duration": 8, "velocity": 69}, {"time": 2720, "pitch": 45, "duration": 46, "velocity": 89}, {"time": 2726, "pitch": 52, "duration": 21, "velocity": 51}, {"time": 2732, "pitch": 57, "duration": 9, "velocity": 95}, {"time": 2738, "pitch": 60, "duration": 18, "velocity": 76}, {"time": 2744, "pitch": 69, "duration": 25, "velocity": 100}, {"time": 2750, "pitch": 52, "duration": 15, "velocity": 55}, {"time": 2756, "pitch": 64, "duration": 13, "velocity": 92}, {"time": 2762, "pitch": 60, "duration": 8, "velocity": 64}, {"time": 2768, "pitch": 43, "duration": 44, "velocity": 88}, {"time": 2771, "pitch": 50, "duration": 36, "velocity": 41}, {"time": 2777, "pitch": 55, "duration": 17, "velocity": 78}, {"time": 2786, "pitch": 59, "duration": 20, "velocity": 61}, {"time": 2792, "pitch": 67, "duration": 24, "velocity": 95}, {"time": 2798, "pitch": 55, "duration": 6, "velocity": 59}, {"time": 2804, "pitch": 62, "duration": 12, "velocity": 93}, {"time": 2810, "pitch": 59, "duration": 6, "velocity": 64}, {"time": 2816, "pitch": 40, "duration": 39, "velocity": 79}, {"time": 2822, "pitch": 47, "duration": 33, "velocity": 42}, {"time": 2828, "pitch": 52, "duration": 17, "velocity": 64}, {"time": 2834, "pitch": 55, "duration": 18, "velocity": 56}, {"time": 2840, "pitch": 64, "duration": 25, "velocity": 90}, {"time": 2846, "pitch": 52, "duration": 14, "velocity": 59}, {"time": 2852, "pitch": 59, "duration": 13, "velocity": 89}, {"time": 2858, "pitch": 55, "duration": 7, "velocity": 66}, {"time": 2864, "pitch": 45, "duration": 37, "velocity": 74}, {"time": 2870, "pitch": 52, "duration": 22, "velocity": 46}, {"time": 2876, "pitch": 57, "duration": 15, "velocity": 72}, {"time": 2882, "pitch": 60, "duration": 18, "velocity": 66}, {"time": 2888, "pitch": 69, "duration": 25, "velocity": 100}, {"time": 2894, "pitch": 52, "duration": 6, "velocity": 78}, {"time": 2900, "pitch": 64, "duration": 14, "velocity": 79}, {"time": 2906, "pitch": 60, "duration": 7, "velocity": 78}, {"time": 2912, "pitch": 41, "duration": 45, "velocity": 81}, {"time": 2918, "pitch": 48, "duration": 43, "velocity": 45}, {"time": 2924, "pitch": 53, "duration": 15, "velocity": 79}, {"time": 2930, "pitch": 57, "duration": 20, "velocity": 72}, {"time": 2936, "pitch": 65, "duration": 26, "velocity": 100}, {"time": 2942, "pitch": 53, "duration": 6, "velocity": 66}, {"time": 2948, "pitch": 60, "duration": 13, "velocity": 79}, {"time": 2954, "pitch": 57, "duration": 8, "velocity": 79}, {"time": 2960, "pitch": 43, "duration": 44, "velocity": 85}, {"time": 2966, "pitch": 50, "duration": 43, "velocity": 59}, {"time": 2972, "pitch": 55, "duration": 14, "velocity": 82}, {"time": 2978, "pitch": 59, "duration": 10, "velocity": 75}, {"time": 2984, "pitch": 67, "duration": 25, "velocity": 99}, {"time": 2990, "pitch": 55, "duration": 6, "velocity": 88}, {"time": 2996, "pitch": 62, "duration": 14, "velocity": 107}, {"time": 3002, "pitch": 59, "duration": 7, "velocity": 90}, {"time": 3008, "pitch": 45, "duration": 37, "velocity": 82}, {"time": 3014, "pitch": 52, "duration": 21, "velocity": 51}, {"time": 3020, "pitch": 57, "duration": 11, "velocity": 83}, {"time": 3023, "pitch": 60, "duration": 14, "velocity": 73}, {"time": 3032, "pitch": 69, "duration": 25, "velocity": 127}, {"time": 3038, "pitch": 52, "duration": 6, "velocity": 66}, {"time": 3044, "pitch": 64, "duration": 13, "velocity": 96}, {"time": 3050, "pitch": 60, "duration": 7, "velocity": 90}, {"time": 3056, "pitch": 40, "duration": 39, "velocity": 86}, {"time": 3062, "pitch": 47, "duration": 41, "velocity": 45}, {"time": 3068, "pitch": 52, "duration": 16, "velocity": 71}, {"time": 3071, "pitch": 59, "duration": 20, "velocity": 73}, {"time": 3080, "pitch": 67, "duration": 26, "velocity": 99}, {"time": 3086, "pitch": 52, "duration": 7, "velocity": 68}, {"time": 3092, "pitch": 64, "duration": 13, "velocity": 99}, {"time": 3098, "pitch": 59, "duration": 7, "velocity": 89}, {"time": 3104, "pitch": 41, "duration": 39, "velocity": 73}, {"time": 3110, "pitch": 48, "duration": 33, "velocity": 46}, {"time": 3116, "pitch": 53, "duration": 15, "velocity": 81}, {"time": 3122, "pitch": 57, "duration": 20, "velocity": 82}, {"time": 3128, "pitch": 65, "duration": 27, "velocity": 100}, {"time": 3134, "pitch": 53, "duration": 5, "velocity": 63}, {"time": 3140, "pitch": 60, "duration": 13, "velocity": 107}, {"time": 3146, "pitch": 57, "duration": 8, "velocity": 92}, {"time": 3152, "pitch": 36, "duration": 36, "velocity": 72}, {"time": 3158, "pitch": 43, "duration": 31, "velocity": 55}, {"time": 3164, "pitch": 48, "duration": 16, "velocity": 85}, {"time": 3170, "pitch": 55, "duration": 18, "velocity": 67}, {"time": 3176, "pitch": 64, "duration": 25, "velocity": 97}, {"time": 3182, "pitch": 48, "duration": 9, "velocity": 56}, {"time": 3188, "pitch": 60, "duration": 12, "velocity": 102}, {"time": 3194, "pitch": 55, "duration": 6, "velocity": 42}, {"time": 3200, "pitch": 45, "duration": 37, "velocity": 72}, {"time": 3206, "pitch": 52, "duration": 22, "velocity": 65}, {"time": 3212, "pitch": 57, "duration": 8, "velocity": 90}, {"time": 3218, "pitch": 60, "duration": 6, "velocity": 93}, {"time": 3224, "pitch": 64, "duration": 25, "velocity": 100}, {"time": 3230, "pitch": 52, "duration": 5, "velocity": 78}, {"time": 3236, "pitch": 60, "duration": 13, "velocity": 107}, {"time": 3242, "pitch": 57, "duration": 7, "velocity": 82}, {"time": 3248, "pitch": 40, "duration": 37, "velocity": 86}, {"time": 3254, "pitch": 47, "duration": 33, "velocity": 82}, {"time": 3260, "pitch": 52, "duration": 15, "velocity": 86}, {"time": 3266, "pitch": 59, "duration": 19, "velocity": 93}, {"time": 3272, "pitch": 67, "duration": 25, "velocity": 107}, {"time": 3278, "pitch": 52, "duration": 17, "velocity": 93}, {"time": 3284, "pitch": 64, "duration": 13, "velocity": 102}, {"time": 3290, "pitch": 59, "duration": 8, "velocity": 95}, {"time": 3296, "pitch": 41, "duration": 47, "velocity": 77}, {"time": 3302, "pitch": 48, "duration": 43, "velocity": 67}, {"time": 3308, "pitch": 53, "duration": 15, "velocity": 93}, {"time": 3314, "pitch": 60, "duration": 20, "velocity": 79}, {"time": 3320, "pitch": 69, "duration": 24, "velocity": 107}, {"time": 3326, "pitch": 53, "duration": 8, "velocity": 85}, {"time": 3332, "pitch": 65, "duration": 12, "velocity": 102}, {"time": 3338, "pitch": 60, "duration": 6, "velocity": 93}, {"time": 3344, "pitch": 43, "duration": 46, "velocity": 97}, {"time": 3350, "pitch": 50, "duration": 40, "velocity": 68}, {"time": 3356, "pitch": 55, "duration": 15, "velocity": 93}, {"time": 3362, "pitch": 62, "duration": 20, "velocity": 88}, {"time": 3368, "pitch": 71, "duration": 14, "velocity": 107}, {"time": 3374, "pitch": 55, "duration": 16, "velocity": 86}, {"time": 3380, "pitch": 69, "duration": 11, "velocity": 96}, {"time": 3392, "pitch": 43, "duration": 38, "velocity": 70}, {"time": 3392, "pitch": 50, "duration": 1, "velocity": 55}, {"time": 3392, "pitch": 55, "duration": 33, "velocity": 88}, {"time": 3392, "pitch": 62, "duration": 48, "velocity": 89}, {"time": 3392, "pitch": 67, "duration": 48, "velocity": 78}, {"time": 3392, "pitch": 71, "duration": 48, "velocity": 79}, {"time": 3440, "pitch": 36, "duration": 22, "velocity": 92}, {"time": 3443, "pitch": 43, "duration": 22, "velocity": 75}, {"time": 3446, "pitch": 48, "duration": 8, "velocity": 88}, {"time": 3449, "pitch": 55, "duration": 5, "velocity": 70}, {"time": 3452, "pitch": 64, "duration": 18, "velocity": 85}, {"time": 3455, "pitch": 48, "duration": 11, "velocity": 73}, {"time": 3458, "pitch": 60, "duration": 14, "velocity": 75}, {"time": 3461, "pitch": 55, "duration": 8, "velocity": 73}, {"time": 3464, "pitch": 36, "duration": 17, "velocity": 81}, {"time": 3467, "pitch": 43, "duration": 15, "velocity": 52}, {"time": 3470, "pitch": 48, "duration": 8, "velocity": 66}, {"time": 3473, "pitch": 55, "duration": 5, "velocity": 66}, {"time": 3476, "pitch": 64, "duration": 12, "velocity": 97}, {"time": 3479, "pitch": 48, "duration": 8, "velocity": 74}, {"time": 3482, "pitch": 60, "duration": 6, "velocity": 78}, {"time": 3485, "pitch": 55, "duration": 3, "velocity": 81}, {"time": 3488, "pitch": 40, "duration": 22, "velocity": 71}, {"time": 3491, "pitch": 47, "duration": 22, "velocity": 45}, {"time": 3494, "pitch": 52, "duration": 8, "velocity": 64}, {"time": 3497, "pitch": 59, "duration": 5, "velocity": 65}, {"time": 3500, "pitch": 67, "duration": 19, "velocity": 99}, {"time": 3503, "pitch": 52, "duration": 6, "velocity": 70}, {"time": 3506, "pitch": 64, "duration": 13, "velocity": 57}, {"time": 3509, "pitch": 59, "duration": 10, "velocity": 72}, {"time": 3512, "pitch": 40, "duration": 17, "velocity": 58}, {"time": 3515, "pitch": 47, "duration": 15, "velocity": 41}, {"time": 3518, "pitch": 52, "duration": 8, "velocity": 73}, {"time": 3521, "pitch": 59, "duration": 6, "velocity": 82}, {"time": 3524, "pitch": 67, "duration": 12, "velocity": 100}, {"time": 3527, "pitch": 52, "duration": 9, "velocity": 85}, {"time": 3530, "pitch": 64, "duration": 6, "velocity": 74}, {"time": 3533, "pitch": 59, "duration": 3, "velocity": 83}, {"time": 3536, "pitch": 45, "duration": 23, "velocity": 69}, {"time": 3539, "pitch": 52, "duration": 23, "velocity": 63}, {"time": 3542, "pitch": 57, "duration": 8, "velocity": 82}, {"time": 3545, "pitch": 60, "duration": 5, "velocity": 66}, {"time": 3548, "pitch": 69, "duration": 15, "velocity": 83}, {"time": 3551, "pitch": 57, "duration": 3, "velocity": 72}, {"time": 3554, "pitch": 64, "duration": 7, "velocity": 65}, {"time": 3557, "pitch": 60, "duration": 5, "velocity": 73}, {"time": 3560, "pitch": 45, "duration": 18, "velocity": 63}, {"time": 3563, "pitch": 52, "duration": 11, "velocity": 57}, {"time": 3566, "pitch": 57, "duration": 7, "velocity": 85}, {"time": 3569, "pitch": 60, "duration": 6, "velocity": 73}, {"time": 3572, "pitch": 69, "duration": 12, "velocity": 97}, {"time": 3575, "pitch": 52, "duration": 2, "velocity": 75}, {"time": 3578, "pitch": 64, "duration": 6, "velocity": 89}, {"time": 3581, "pitch": 60, "duration": 4, "velocity": 73}, {"time": 3584, "pitch": 40, "duration": 23, "velocity": 74}, {"time": 3587, "pitch": 47, "duration": 22, "velocity": 55}, {"time": 3590, "pitch": 52, "duration": 8, "velocity": 72}, {"time": 3593, "pitch": 55, "duration": 3, "velocity": 59}, {"time": 3596, "pitch": 59, "duration": 6, "velocity": 89}, {"time": 3599, "pitch": 52, "duration": 4, "velocity": 76}, {"time": 3602, "pitch": 55, "duration": 5, "velocity": 89}, {"time": 3605, "pitch": 59, "duration": 3, "velocity": 66}, {"time": 3608, "pitch": 40, "duration": 20, "velocity": 81}, {"time": 3611, "pitch": 47, "duration": 20, "velocity": 67}, {"time": 3614, "pitch": 52, "duration": 7, "velocity": 73}, {"time": 3617, "pitch": 55, "duration": 5, "velocity": 78}, {"time": 3620, "pitch": 64, "duration": 11, "velocity": 96}, {"time": 3623, "pitch": 52, "duration": 3, "velocity": 85}, {"time": 3626, "pitch": 59, "duration": 5, "velocity": 90}, {"time": 3629, "pitch": 55, "duration": 3, "velocity": 90}, {"time": 3632, "pitch": 41, "duration": 23, "velocity": 72}, {"time": 3635, "pitch": 48, "duration": 22, "velocity": 50}, {"time": 3638, "pitch": 53, "duration": 7, "velocity": 56}, {"time": 3641, "pitch": 57, "duration": 5, "velocity": 69}, {"time": 3644, "pitch": 65, "duration": 15, "velocity": 90}, {"time": 3647, "pitch": 53, "duration": 3, "velocity": 72}, {"time": 3650, "pitch": 60, "duration": 8, "velocity": 68}, {"time": 3653, "pitch": 57, "duration": 6, "velocity": 66}, {"time": 3656, "pitch": 41, "duration": 20, "velocity": 63}, {"time": 3659, "pitch": 48, "duration": 16, "velocity": 49}, {"time": 3662, "pitch": 53, "duration": 7, "velocity": 59}, {"time": 3665, "pitch": 57, "duration": 5, "velocity": 69}, {"time": 3668, "pitch": 65, "duration": 12, "velocity": 100}, {"time": 3671, "pitch": 53, "duration": 3, "velocity": 85}, {"time": 3674, "pitch": 60, "duration": 5, "velocity": 83}, {"time": 3677, "pitch": 57, "duration": 3, "velocity": 92}, {"time": 3680, "pitch": 40, "duration": 18, "velocity": 72}, {"time": 3683, "pitch": 47, "duration": 15, "velocity": 48}, {"time": 3686, "pitch": 52, "duration": 8, "velocity": 72}, {"time": 3689, "pitch": 55, "duration": 5, "velocity": 70}, {"time": 3692, "pitch": 64, "duration": 11, "velocity": 93}, {"time": 3695, "pitch": 52, "duration": 8, "velocity": 77}, {"time": 3698, "pitch": 59, "duration": 5, "velocity": 82}, {"time": 3701, "pitch": 55, "duration": 3, "velocity": 82}, {"time": 3704, "pitch": 45, "duration": 18, "velocity": 65}, {"time": 3707, "pitch": 52, "duration": 11, "velocity": 60}, {"time": 3710, "pitch": 57, "duration": 4, "velocity": 89}, {"time": 3713, "pitch": 60, "duration": 3, "velocity": 93}, {"time": 3716, "pitch": 64, "duration": 11, "velocity": 95}, {"time": 3719, "pitch": 52, "duration": 2, "velocity": 66}, {"time": 3722, "pitch": 60, "duration": 5, "velocity": 96}, {"time": 3725, "pitch": 57, "duration": 4, "velocity": 81}, {"time": 3728, "pitch": 38, "duration": 23, "velocity": 66}, {"time": 3731, "pitch": 45, "duration": 22, "velocity": 51}, {"time": 3734, "pitch": 50, "duration": 8, "velocity": 73}, {"time": 3737, "pitch": 57, "duration": 5, "velocity": 77}, {"time": 3740, "pitch": 65, "duration": 12, "velocity": 99}, {"time": 3743, "pitch": 50, "duration": 4, "velocity": 85}, {"time": 3746, "pitch": 62, "duration": 7, "velocity": 81}, {"time": 3749, "pitch": 57, "duration": 4, "velocity": 88}, {"time": 3752, "pitch": 38, "duration": 17, "velocity": 77}, {"time": 3755, "pitch": 45, "duration": 14, "velocity": 48}, {"time": 3758, "pitch": 50, "duration": 7, "velocity": 77}, {"time": 3761, "pitch": 57, "duration": 5, "velocity": 76}, {"time": 3764, "pitch": 65, "duration": 11, "velocity": 107}, {"time": 3767, "pitch": 50, "duration": 7, "velocity": 92}, {"time": 3770, "pitch": 62, "duration": 6, "velocity": 99}, {"time": 3773, "pitch": 57, "duration": 3, "velocity": 99}, {"time": 3776, "pitch": 43, "duration": 23, "velocity": 92}, {"time": 3779, "pitch": 50, "duration": 23, "velocity": 65}, {"time": 3782, "pitch": 55, "duration": 8, "velocity": 81}, {"time": 3785, "pitch": 59, "duration": 5, "velocity": 79}, {"time": 3788, "pitch": 67, "duration": 10, "velocity": 122}, {"time": 3791, "pitch": 55, "duration": 3, "velocity": 99}, {"time": 3794, "pitch": 62, "duration": 5, "velocity": 112}, {"time": 3797, "pitch": 59, "duration": 3, "velocity": 69}, {"time": 3800, "pitch": 43, "duration": 18, "velocity": 93}, {"time": 3800, "pitch": 59, "duration": 8, "velocity": 78}, {"time": 3800, "pitch": 62, "duration": 8, "velocity": 100}, {"time": 3800, "pitch": 67, "duration": 10, "velocity": 95}, {"time": 3803, "pitch": 50, "duration": 11, "velocity": 88}, {"time": 3806, "pitch": 55, "duration": 5, "velocity": 89}, {"time": 3809, "pitch": 59, "duration": 2, "velocity": 85}, {"time": 3812, "pitch": 62, "duration": 7, "velocity": 112}, {"time": 3812, "pitch": 67, "duration": 10, "velocity": 107}, {"time": 3815, "pitch": 50, "duration": 2, "velocity": 86}, {"time": 3818, "pitch": 59, "duration": 5, "velocity": 100}, {"time": 3824, "pitch": 36, "duration": 22, "velocity": 92}, {"time": 3827, "pitch": 43, "duration": 21, "velocity": 88}, {"time": 3830, "pitch": 48, "duration": 6, "velocity": 89}, {"time": 3833, "pitch": 55, "duration": 5, "velocity": 72}, {"time": 3836, "pitch": 64, "duration": 21, "velocity": 99}, {"time": 3839, "pitch": 48, "duration": 4, "velocity": 89}, {"time": 3842, "pitch": 60, "duration": 15, "velocity": 93}, {"time": 3845, "pitch": 55, "duration": 11, "velocity": 89}, {"time": 3848, "pitch": 36, "duration": 18, "velocity": 73}, {"time": 3851, "pitch": 43, "duration": 16, "velocity": 63}, {"time": 3854, "pitch": 48, "duration": 7, "velocity": 79}, {"time": 3857, "pitch": 55, "duration": 5, "velocity": 79}, {"time": 3860, "pitch": 64, "duration": 10, "velocity": 97}, {"time": 3863, "pitch": 48, "duration": 8, "velocity": 86}, {"time": 3866, "pitch": 60, "duration": 5, "velocity": 90}, {"time": 3869, "pitch": 55, "duration": 3, "velocity": 90}, {"time": 3872, "pitch": 40, "duration": 22, "velocity": 76}, {"time": 3875, "pitch": 47, "duration": 21, "velocity": 48}, {"time": 3878, "pitch": 52, "duration": 7, "velocity": 69}, {"time": 3881, "pitch": 59, "duration": 7, "velocity": 77}, {"time": 3884, "pitch": 67, "duration": 20, "velocity": 92}, {"time": 3887, "pitch": 52, "duration": 5, "velocity": 76}, {"time": 3890, "pitch": 64, "duration": 16, "velocity": 83}, {"time": 3893, "pitch": 59, "duration": 10, "velocity": 77}, {"time": 3896, "pitch": 40, "duration": 18, "velocity": 66}, {"time": 3899, "pitch": 47, "duration": 15, "velocity": 57}, {"time": 3902, "pitch": 52, "duration": 8, "velocity": 76}, {"time": 3905, "pitch": 59, "duration": 5, "velocity": 68}, {"time": 3908, "pitch": 67, "duration": 11, "velocity": 99}, {"time": 3911, "pitch": 52, "duration": 8, "velocity": 69}, {"time": 3914, "pitch": 64, "duration": 6, "velocity": 89}, {"time": 3917, "pitch": 59, "duration": 4, "velocity": 88}, {"time": 3920, "pitch": 45, "duration": 22, "velocity": 63}, {"time": 3923, "pitch": 52, "duration": 11, "velocity": 53}, {"time": 3926, "pitch": 57, "duration": 5, "velocity": 73}, {"time": 3929, "pitch": 60, "duration": 3, "velocity": 75}, {"time": 3932, "pitch": 64, "duration": 12, "velocity": 112}, {"time": 3935, "pitch": 52, "duration": 7, "velocity": 42}, {"time": 3938, "pitch": 60, "duration": 6, "velocity": 86}, {"time": 3941, "pitch": 57, "duration": 3, "velocity": 74}, {"time": 3944, "pitch": 45, "duration": 18, "velocity": 71}, {"time": 3947, "pitch": 52, "duration": 11, "velocity": 61}, {"time": 3950, "pitch": 57, "duration": 5, "velocity": 82}, {"time": 3953, "pitch": 64, "duration": 5, "velocity": 78}, {"time": 3956, "pitch": 72, "duration": 10, "velocity": 100}, {"time": 3959, "pitch": 52, "duration": 2, "velocity": 52}, {"time": 3962, "pitch": 69, "duration": 5, "velocity": 81}, {"time": 3965, "pitch": 64, "duration": 3, "velocity": 83}, {"time": 3968, "pitch": 40, "duration": 23, "velocity": 83}, {"time": 3971, "pitch": 47, "duration": 22, "velocity": 73}, {"time": 3974, "pitch": 52, "duration": 7, "velocity": 65}, {"time": 3977, "pitch": 59, "duration": 6, "velocity": 67}, {"time": 3980, "pitch": 67, "duration": 13, "velocity": 93}, {"time": 3983, "pitch": 52, "duration": 4, "velocity": 72}, {"time": 3986, "pitch": 64, "duration": 7, "velocity": 81}, {"time": 3989, "pitch": 59, "duration": 4, "velocity": 68}, {"time": 3992, "pitch": 40, "duration": 21, "velocity": 72}, {"time": 3995, "pitch": 47, "duration": 20, "velocity": 52}, {"time": 3998, "pitch": 52, "duration": 7, "velocity": 77}, {"time": 4001, "pitch": 59, "duration": 4, "velocity": 79}, {"time": 4004, "pitch": 67, "duration": 11, "velocity": 102}, {"time": 4007, "pitch": 52, "duration": 3, "velocity": 82}, {"time": 4010, "pitch": 64, "duration": 5, "velocity": 95}, {"time": 4013, "pitch": 59, "duration": 4, "velocity": 79}, {"time": 4016, "pitch": 41, "duration": 21, "velocity": 76}, {"time": 4019, "pitch": 48, "duration": 21, "velocity": 85}, {"time": 4022, "pitch": 53, "duration": 8, "velocity": 81}, {"time": 4025, "pitch": 60, "duration": 4, "velocity": 68}, {"time": 4028, "pitch": 65, "duration": 8, "velocity": 83}, {"time": 4028, "pitch": 69, "duration": 20, "velocity": 93}, {"time": 4031, "pitch": 53, "duration": 3, "velocity": 72}, {"time": 4034, "pitch": 60, "duration": 13, "velocity": 76}, {"time": 4037, "pitch": 65, "duration": 11, "velocity": 51}, {"time": 4040, "pitch": 41, "duration": 20, "velocity": 51}, {"time": 4043, "pitch": 48, "duration": 16, "velocity": 58}, {"time": 4046, "pitch": 53, "duration": 7, "velocity": 55}, {"time": 4049, "pitch": 60, "duration": 6, "velocity": 66}, {"time": 4052, "pitch": 69, "duration": 11, "velocity": 97}, {"time": 4055, "pitch": 53, "duration": 2, "velocity": 65}, {"time": 4058, "pitch": 65, "duration": 5, "velocity": 76}, {"time": 4061, "pitch": 60, "duration": 2, "velocity": 43}, {"time": 4064, "pitch": 40, "duration": 19, "velocity": 85}, {"time": 4067, "pitch": 47, "duration": 16, "velocity": 53}, {"time": 4070, "pitch": 52, "duration": 17, "velocity": 74}, {"time": 4073, "pitch": 59, "duration": 4, "velocity": 52}, {"time": 4076, "pitch": 67, "duration": 12, "velocity": 67}, {"time": 4082, "pitch": 64, "duration": 6, "velocity": 95}, {"time": 4088, "pitch": 45, "duration": 19, "velocity": 68}, {"time": 4091, "pitch": 52, "duration": 11, "velocity": 59}, {"time": 4094, "pitch": 57, "duration": 4, "velocity": 82}, {"time": 4097, "pitch": 60, "duration": 3, "velocity": 88}, {"time": 4100, "pitch": 64, "duration": 10, "velocity": 100}, {"time": 4103, "pitch": 52, "duration": 2, "velocity": 52}, {"time": 4106, "pitch": 60, "duration": 5, "velocity": 100}, {"time": 4109, "pitch": 57, "duration": 3, "velocity": 72}, {"time": 4112, "pitch": 38, "duration": 23, "velocity": 86}, {"time": 4115, "pitch": 45, "duration": 21, "velocity": 86}, {"time": 4118, "pitch": 50, "duration": 7, "velocity": 78}, {"time": 4121, "pitch": 57, "duration": 5, "velocity": 73}, {"time": 4124, "pitch": 65, "duration": 21, "velocity": 93}, {"time": 4127, "pitch": 50, "duration": 13, "velocity": 68}, {"time": 4130, "pitch": 62, "duration": 16, "velocity": 83}, {"time": 4133, "pitch": 57, "duration": 11, "velocity": 74}, {"time": 4136, "pitch": 38, "duration": 17, "velocity": 74}, {"time": 4139, "pitch": 45, "duration": 14, "velocity": 56}, {"time": 4142, "pitch": 50, "duration": 8, "velocity": 70}, {"time": 4145, "pitch": 57, "duration": 6, "velocity": 66}, {"time": 4148, "pitch": 65, "duration": 10, "velocity": 102}, {"time": 4151, "pitch": 50, "duration": 7, "velocity": 83}, {"time": 4154, "pitch": 62, "duration": 5, "velocity": 88}, {"time": 4157, "pitch": 57, "duration": 3, "velocity": 83}, {"time": 4160, "pitch": 43, "duration": 21, "velocity": 68}, {"time": 4163, "pitch": 50, "duration": 21, "velocity": 72}, {"time": 4166, "pitch": 55, "duration": 7, "velocity": 78}, {"time": 4169, "pitch": 59, "duration": 5, "velocity": 79}, {"time": 4172, "pitch": 67, "duration": 22, "velocity": 100}, {"time": 4175, "pitch": 55, "duration": 2, "velocity": 81}, {"time": 4178, "pitch": 62, "duration": 16, "velocity": 81}, {"time": 4181, "pitch": 59, "duration": 14, "velocity": 82}, {"time": 4184, "pitch": 43, "duration": 18, "velocity": 74}, {"time": 4190, "pitch": 50, "duration": 8, "velocity": 47}, {"time": 4196, "pitch": 67, "duration": 12, "velocity": 100}, {"time": 4199, "pitch": 50, "duration": 2, "velocity": 56}, {"time": 4202, "pitch": 62, "duration": 6, "velocity": 72}, {"time": 4208, "pitch": 36, "duration": 46, "velocity": 86}, {"time": 4208, "pitch": 55, "duration": 14, "velocity": 97}, {"time": 4208, "pitch": 60, "duration": 65, "velocity": 99}, {"time": 4208, "pitch": 64, "duration": 64, "velocity": 96}, {"time": 4214, "pitch": 43, "duration": 44, "velocity": 45}, {"time": 4220, "pitch": 48, "duration": 45, "velocity": 52}, {"time": 4226, "pitch": 55, "duration": 78, "velocity": 76}, {"time": 4256, "pitch": 36, "duration": 42, "velocity": 70}, {"time": 4262, "pitch": 43, "duration": 37, "velocity": 53}, {"time": 4268, "pitch": 48, "duration": 35, "velocity": 61}, {"time": 4274, "pitch": 64, "duration": 31, "velocity": 89}, {"time": 4292, "pitch": 60, "duration": 13, "velocity": 78}, {"time": 4304, "pitch": 41, "duration": 38, "velocity": 71}, {"time": 4310, "pitch": 48, "duration": 31, "velocity": 53}, {"time": 4316, "pitch": 53, "duration": 22, "velocity": 83}, {"time": 4322, "pitch": 57, "duration": 33, "velocity": 65}, {"time": 4328, "pitch": 65, "duration": 29, "velocity": 88}, {"time": 4340, "pitch": 60, "duration": 14, "velocity": 83}, {"time": 4352, "pitch": 40, "duration": 17, "velocity": 67}, {"time": 4358, "pitch": 47, "duration": 11, "velocity": 45}, {"time": 4364, "pitch": 52, "duration": 12, "velocity": 60}, {"time": 4376, "pitch": 45, "duration": 18, "velocity": 73}, {"time": 4382, "pitch": 52, "duration": 10, "velocity": 54}, {"time": 4388, "pitch": 64, "duration": 13, "velocity": 79}, {"time": 4394, "pitch": 60, "duration": 7, "velocity": 59}, {"time": 4400, "pitch": 38, "duration": 46, "velocity": 77}, {"time": 4406, "pitch": 45, "duration": 41, "velocity": 58}, {"time": 4412, "pitch": 50, "duration": 35, "velocity": 82}, {"time": 4418, "pitch": 62, "duration": 30, "velocity": 68}, {"time": 4424, "pitch": 57, "duration": 24, "velocity": 79}, {"time": 4448, "pitch": 43, "duration": 40, "velocity": 74}, {"time": 4448, "pitch": 62, "duration": 15, "velocity": 83}, {"time": 4448, "pitch": 67, "duration": 40, "velocity": 86}, {"time": 4448, "pitch": 71, "duration": 39, "velocity": 83}, {"time": 4454, "pitch": 50, "duration": 31, "velocity": 41}, {"time": 4460, "pitch": 55, "duration": 25, "velocity": 86}, {"time": 4466, "pitch": 62, "duration": 22, "velocity": 59}, {"time": 4496, "pitch": 36, "duration": 40, "velocity": 63}, {"time": 4496, "pitch": 55, "duration": 16, "velocity": 59}, {"time": 4496, "pitch": 60, "duration": 21, "velocity": 62}, {"time": 4496, "pitch": 64, "duration": 21, "velocity": 66}, {"time": 4502, "pitch": 43, "duration": 35, "velocity": 47}, {"time": 4508, "pitch": 48, "duration": 16, "velocity": 83}, {"time": 4514, "pitch": 55, "duration": 19, "velocity": 55}, {"time": 4520, "pitch": 64, "duration": 24, "velocity": 97}, {"time": 4526, "pitch": 48, "duration": 14, "velocity": 51}, {"time": 4532, "pitch": 60, "duration": 12, "velocity": 75}, {"time": 4538, "pitch": 55, "duration": 6, "velocity": 68}, {"time": 4545, "pitch": 60, "duration": 33, "velocity": 73}, {"time": 4545, "pitch": 55, "duration": 33, "velocity": 63}, {"time": 4545, "pitch": 36, "duration": 33, "velocity": 72}, {"time": 4551, "pitch": 43, "duration": 26, "velocity": 36}, {"time": 4556, "pitch": 48, "duration": 24, "velocity": 56}, {"time": 4562, "pitch": 64, "duration": 16, "velocity": 69}, {"time": 4591, "pitch": 54, "duration": 10, "velocity": 76}, {"time": 4591, "pitch": 61, "duration": 36, "velocity": 68}, {"time": 4592, "pitch": 42, "duration": 35, "velocity": 64}, {"time": 4598, "pitch": 49, "duration": 28, "velocity": 34}, {"time": 4603, "pitch": 54, "duration": 24, "velocity": 40}, {"time": 4610, "pitch": 66, "duration": 17, "velocity": 57}, {"time": 4640, "pitch": 60, "duration": 14, "velocity": 72}, {"time": 4640, "pitch": 55, "duration": 33, "velocity": 69}, {"time": 4640, "pitch": 64, "duration": 34, "velocity": 66}, {"time": 4640, "pitch": 36, "duration": 28, "velocity": 75}, {"time": 4646, "pitch": 43, "duration": 22, "velocity": 40}, {"time": 4652, "pitch": 48, "duration": 19, "velocity": 57}, {"time": 4658, "pitch": 60, "duration": 16, "velocity": 65}, {"time": 4689, "pitch": 54, "duration": 35, "velocity": 75}, {"time": 4689, "pitch": 61, "duration": 35, "velocity": 59}, {"time": 4689, "pitch": 42, "duration": 35, "velocity": 59}, {"time": 4700, "pitch": 49, "duration": 23, "velocity": 33}, {"time": 4706, "pitch": 66, "duration": 19, "velocity": 57}, {"time": 4736, "pitch": 60, "duration": 48, "velocity": 71}, {"time": 4736, "pitch": 55, "duration": 48, "velocity": 72}, {"time": 4736, "pitch": 64, "duration": 48, "velocity": 68}, {"time": 4736, "pitch": 36, "duration": 48, "velocity": 53}, {"time": 4736, "pitch": 48, "duration": 48, "velocity": 72}, {"time": 4736, "pitch": 43, "duration": 48, "velocity": 65}], "annotations": [{"time": 32, "annotation": {"number": 64, "value": 127}, "group": "control_change"}, {"time": 79, "annotation": {"number": 64, "value": 0}, "group": "control_change"}, {"time": 82, "annotation": {"number": 64, "value": 127}, "group": "control_change"}, {"time": 125, "annotation": {"number": 64, "value": 0}, "group": "control_change"}, {"time": 130, "annotation": {"number": 64, "value": 127}, "group": "control_change"}, {"time": 175, "annotation": {"number": 64, "value": 0}, "group": "control_change"}, {"time": 178, "annotation": {"number": 64, "value": 127}, "group": "control_change"}, {"time": 224, "annotation": {"number": 64, "value": 0}, "group": "control_change"}, {"time": 226, "annotation": {"number": 64, "value": 127}, "group": "control_change"}, {"time": 270, "annotation": {"number": 64, "value": 0}, "group": "control_change"}, {"time": 274, "annotation": {"number": 64, "value": 127}, "group": "control_change"}, {"time": 318, "annotation": {"number": 64, "value": 0}, "group": "control_change"}, {"time": 322, "annotation": {"number": 64, "value": 127}, "group": "control_change"}, {"time": 367, "annotation": {"number": 64, "value": 0}, "group": "control_change"}, {"time": 369, "annotation": {"number": 64, "value": 127}, "group": "control_change"}, {"time": 416, "annotation": {"number": 64, "value": 0}, "group": "control_change"}, {"time": 418, "annotation": {"number": 64, "value": 127}, "group": "control_change"}, {"time": 463, "annotation": {"number": 64, "value": 0}, "group": "control_change"}, {"time": 465, "annotation": {"number": 64, "value": 127}, "group": "control_change"}, {"time": 512, "annotation": {"number": 64, "value": 0}, "group": "control_change"}, {"time": 514, "annotation": {"number": 64, "value": 127}, "group": "control_change"}, {"time": 555, "annotation": {"number": 64, "value": 0}, "group": "control_change"}, {"time": 560, "annotation": {"number": 64, "value": 127}, "group": "control_change"}, {"time": 606, "annotation": {"number": 64, "value": 0}, "group": "control_change"}, {"time": 609, "annotation": {"number": 64, "value": 127}, "group": "control_change"}, {"time": 654, "annotation": {"number": 64, "value": 0}, "group": "control_change"}, {"time": 656, "annotation": {"number": 64, "value": 127}, "group": "control_change"}, {"time": 701, "annotation": {"number": 64, "value": 0}, "group": "control_change"}, {"time": 704, "annotation": {"number": 64, "value": 127}, "group": "control_change"}, {"time": 749, "annotation": {"number": 64, "value": 0}, "group": "control_change"}, {"time": 752, "annotation": {"number": 64, "value": 127}, "group": "control_change"}, {"time": 797, "annotation": {"number": 64, "value": 0}, "group": "control_change"}, {"time": 800, "annotation": {"number": 64, "value": 127}, "group": "control_change"}, {"time": 844, "annotation": {"number": 64, "value": 0}, "group": "control_change"}, {"time": 847, "annotation": {"number": 64, "value": 127}, "group": "control_change"}, {"time": 895, "annotation": {"number": 64, "value": 0}, "group": "control_change"}, {"time": 896, "annotation": {"number": 64, "value": 127}, "group": "control_change"}, {"time": 939, "annotation": {"number": 64, "value": 0}, "group": "control_change"}, {"time": 944, "annotation": {"number": 64, "value": 127}, "group": "control_change"}, {"time": 987, "annotation": {"number": 64, "value": 0}, "group": "control_change"}, {"time": 992, "annotation": {"number": 64, "value": 127}, "group": "control_change"}, {"time": 1037, "annotation": {"number": 64, "value": 0}, "group": "control_change"}, {"time": 1040, "annotation": {"number": 64, "value": 127}, "group": "control_change"}, {"time": 1084, "annotation": {"number": 64, "value": 0}, "group": "control_change"}, {"time": 1089, "annotation": {"number": 64, "value": 127}, "group": "control_change"}, {"time": 1180, "annotation": {"number": 64, "value": 0}, "group": "control_change"}, {"time": 1184, "annotation": {"number": 64, "value": 127}, "group": "control_change"}, {"time": 1228, "annotation": {"number": 64, "value": 0}, "group": "control_change"}, {"time": 1232, "annotation": {"number": 64, "value": 127}, "group": "control_change"}, {"time": 1278, "annotation": {"number": 64, "value": 0}, "group": "control_change"}, {"time": 1288, "annotation": {"number": 64, "value": 127}, "group": "control_change"}, {"time": 1325, "annotation": {"number": 64, "value": 0}, "group": "control_change"}, {"time": 1329, "annotation": {"number": 64, "value": 127}, "group": "control_change"}, {"time": 1372, "annotation": {"number": 64, "value": 0}, "group": "control_change"}, {"time": 1374, "annotation": {"number": 64, "value": 0}, "group": "control_change"}, {"time": 1376, "annotation": {"number": 64, "value": 127}, "group": "control_change"}, {"time": 1423, "annotation": {"number": 64, "value": 0}, "group": "control_change"}, {"time": 1425, "annotation": {"number": 64, "value": 127}, "group": "control_change"}, {"time": 1470, "annotation": {"number": 64, "value": 0}, "group": "control_change"}, {"time": 1472, "annotation": {"number": 64, "value": 127}, "group": "control_change"}, {"time": 1519, "annotation": {"number": 64, "value": 0}, "group": "control_change"}, {"time": 1521, "annotation": {"number": 64, "value": 127}, "group": "control_change"}, {"time": 1543, "annotation": {"number": 64, "value": 0}, "group": "control_change"}, {"time": 1545, "annotation": {"number": 64, "value": 127}, "group": "control_change"}, {"time": 1614, "annotation": {"number": 64, "value": 0}, "group": "control_change"}, {"time": 1616, "annotation": {"number": 64, "value": 127}, "group": "control_change"}, {"time": 1639, "annotation": {"number": 64, "value": 0}, "group": "control_change"}, {"time": 1640, "annotation": {"number": 64, "value": 127}, "group": "control_change"}, {"time": 1662, "annotation": {"number": 64, "value": 0}, "group": "control_change"}, {"time": 1664, "annotation": {"number": 64, "value": 127}, "group": "control_change"}, {"time": 1687, "annotation": {"number": 64, "value": 0}, "group": "control_change"}, {"time": 1688, "annotation": {"number": 64, "value": 127}, "group": "control_change"}, {"time": 1709, "annotation": {"number": 64, "value": 0}, "group": "control_change"}, {"time": 1711, "annotation": {"number": 64, "value": 127}, "group": "control_change"}, {"time": 1735, "annotation": {"number": 64, "value": 0}, "group": "control_change"}, {"time": 1737, "annotation": {"number": 64, "value": 127}, "group": "control_change"}, {"time": 1759, "annotation": {"number": 64, "value": 0}, "group": "control_change"}, {"time": 1761, "annotation": {"number": 64, "value": 127}, "group": "control_change"}, {"time": 1782, "annotation": {"number": 64, "value": 0}, "group": "control_change"}, {"time": 1784, "annotation": {"number": 64, "value": 127}, "group": "control_change"}, {"time": 1806, "annotation": {"number": 64, "value": 0}, "group": "control_change"}, {"time": 1808, "annotation": {"number": 64, "value": 127}, "group": "control_change"}, {"time": 1831, "annotation": {"number": 64, "value": 0}, "group": "control_change"}, {"time": 1832, "annotation": {"number": 64, "value": 127}, "group": "control_change"}, {"time": 1854, "annotation": {"number": 64, "value": 0}, "group": "control_change"}, {"time": 1856, "annotation": {"number": 64, "value": 127}, "group": "control_change"}, {"time": 1902, "annotation": {"number": 64, "value": 0}, "group": "control_change"}, {"time": 1905, "annotation": {"number": 64, "value": 127}, "group": "control_change"}, {"time": 1950, "annotation": {"number": 64, "value": 0}, "group": "control_change"}, {"time": 1952, "annotation": {"number": 64, "value": 127}, "group": "control_change"}, {"time": 1974, "annotation": {"number": 64, "value": 0}, "group": "control_change"}, {"time": 1975, "annotation": {"number": 64, "value": 127}, "group": "control_change"}, {"time": 1998, "annotation": {"number": 64, "value": 0}, "group": "control_change"}, {"time": 2000, "annotation": {"number": 64, "value": 127}, "group": "control_change"}, {"time": 2022, "annotation": {"number": 64, "value": 0}, "group": "control_change"}, {"time": 2024, "annotation": {"number": 64, "value": 127}, "group": "control_change"}, {"time": 2046, "annotation": {"number": 64, "value": 0}, "group": "control_change"}, {"time": 2048, "annotation": {"number": 64, "value": 127}, "group": "control_change"}, {"time": 2094, "annotation": {"number": 64, "value": 0}, "group": "control_change"}, {"time": 2096, "annotation": {"number": 64, "value": 127}, "group": "control_change"}, {"time": 2143, "annotation": {"number": 64, "value": 0}, "group": "control_change"}, {"time": 2145, "annotation": {"number": 64, "value": 127}, "group": "control_change"}, {"time": 2192, "annotation": {"number": 64, "value": 127}, "group": "control_change"}, {"time": 2212, "annotation": {"number": 64, "value": 0}, "group": "control_change"}, {"time": 2216, "annotation": {"number": 64, "value": 127}, "group": "control_change"}, {"time": 2240, "annotation": {"number": 64, "value": 127}, "group": "control_change"}, {"time": 2286, "annotation": {"number": 64, "value": 0}, "group": "control_change"}, {"time": 2288, "annotation": {"number": 64, "value": 127}, "group": "control_change"}, {"time": 2334, "annotation": {"number": 64, "value": 0}, "group": "control_change"}, {"time": 2336, "annotation": {"number": 64, "value": 127}, "group": "control_change"}, {"time": 2383, "annotation": {"number": 64, "value": 0}, "group": "control_change"}, {"time": 2384, "annotation": {"number": 64, "value": 127}, "group": "control_change"}, {"time": 2430, "annotation": {"number": 64, "value": 0}, "group": "control_change"}, {"time": 2431, "annotation": {"number": 64, "value": 127}, "group": "control_change"}, {"time": 2455, "annotation": {"number": 64, "value": 0}, "group": "control_change"}, {"time": 2457, "annotation": {"number": 64, "value": 127}, "group": "control_change"}, {"time": 2478, "annotation": {"number": 64, "value": 0}, "group": "control_change"}, {"time": 2479, "annotation": {"number": 64, "value": 127}, "group": "control_change"}, {"time": 2501, "annotation": {"number": 64, "value": 0}, "group": "control_change"}, {"time": 2503, "annotation": {"number": 64, "value": 127}, "group": "control_change"}, {"time": 2526, "annotation": {"number": 64, "value": 0}, "group": "control_change"}, {"time": 2528, "annotation": {"number": 64, "value": 127}, "group": "control_change"}, {"time": 2573, "annotation": {"number": 64, "value": 0}, "group": "control_change"}, {"time": 2670, "annotation": {"number": 64, "value": 0}, "group": "control_change"}, {"time": 2673, "annotation": {"number": 64, "value": 127}, "group": "control_change"}, {"time": 2718, "annotation": {"number": 64, "value": 0}, "group": "control_change"}, {"time": 2720, "annotation": {"number": 64, "value": 127}, "group": "control_change"}, {"time": 2765, "annotation": {"number": 64, "value": 0}, "group": "control_change"}, {"time": 2768, "annotation": {"number": 64, "value": 127}, "group": "control_change"}, {"time": 2813, "annotation": {"number": 64, "value": 0}, "group": "control_change"}, {"time": 2816, "annotation": {"number": 64, "value": 127}, "group": "control_change"}, {"time": 2861, "annotation": {"number": 64, "value": 0}, "group": "control_change"}, {"time": 2864, "annotation": {"number": 64, "value": 127}, "group": "control_change"}, {"time": 2908, "annotation": {"number": 64, "value": 0}, "group": "control_change"}, {"time": 2911, "annotation": {"number": 64, "value": 127}, "group": "control_change"}, {"time": 2959, "annotation": {"number": 64, "value": 0}, "group": "control_change"}, {"time": 2960, "annotation": {"number": 64, "value": 127}, "group": "control_change"}, {"time": 3003, "annotation": {"number": 64, "value": 0}, "group": "control_change"}, {"time": 3008, "annotation": {"number": 64, "value": 127}, "group": "control_change"}, {"time": 3051, "annotation": {"number": 64, "value": 0}, "group": "control_change"}, {"time": 3056, "annotation": {"number": 64, "value": 127}, "group": "control_change"}, {"time": 3101, "annotation": {"number": 64, "value": 0}, "group": "control_change"}, {"time": 3104, "annotation": {"number": 64, "value": 127}, "group": "control_change"}, {"time": 3148, "annotation": {"number": 64, "value": 0}, "group": "control_change"}, {"time": 3153, "annotation": {"number": 64, "value": 127}, "group": "control_change"}, {"time": 3244, "annotation": {"number": 64, "value": 0}, "group": "control_change"}, {"time": 3248, "annotation": {"number": 64, "value": 127}, "group": "control_change"}, {"time": 3292, "annotation": {"number": 64, "value": 0}, "group": "control_change"}, {"time": 3296, "annotation": {"number": 64, "value": 127}, "group": "control_change"}, {"time": 3342, "annotation": {"number": 64, "value": 0}, "group": "control_change"}, {"time": 3352, "annotation": {"number": 64, "value": 127}, "group": "control_change"}, {"time": 3389, "annotation": {"number": 64, "value": 0}, "group": "control_change"}, {"time": 3393, "annotation": {"number": 64, "value": 127}, "group": "control_change"}, {"time": 3436, "annotation": {"number": 64, "value": 0}, "group": "control_change"}, {"time": 3438, "annotation": {"number": 64, "value": 0}, "group": "control_change"}, {"time": 3440, "annotation": {"number": 64, "value": 127}, "group": "control_change"}, {"time": 3487, "annotation": {"number": 64, "value": 0}, "group": "control_change"}, {"time": 3489, "annotation": {"number": 64, "value": 127}, "group": "control_change"}, {"time": 3534, "annotation": {"number": 64, "value": 0}, "group": "control_change"}, {"time": 3536, "annotation": {"number": 64, "value": 127}, "group": "control_change"}, {"time": 3583, "annotation": {"number": 64, "value": 0}, "group": "control_change"}, {"time": 3585, "annotation": {"number": 64, "value": 127}, "group": "control_change"}, {"time": 3607, "annotation": {"number": 64, "value": 0}, "group": "control_change"}, {"time": 3609, "annotation": {"number": 64, "value": 127}, "group": "control_change"}, {"time": 3678, "annotation": {"number": 64, "value": 0}, "group": "control_change"}, {"time": 3680, "annotation": {"number": 64, "value": 127}, "group": "control_change"}, {"time": 3703, "annotation": {"number": 64, "value": 0}, "group": "control_change"}, {"time": 3704, "annotation": {"number": 64, "value": 127}, "group": "control_change"}, {"time": 3726, "annotation": {"number": 64, "value": 0}, "group": "control_change"}, {"time": 3728, "annotation": {"number": 64, "value": 127}, "group": "control_change"}, {"time": 3751, "annotation": {"number": 64, "value": 0}, "group": "control_change"}, {"time": 3752, "annotation": {"number": 64, "value": 127}, "group": "control_change"}, {"time": 3773, "annotation": {"number": 64, "value": 0}, "group": "control_change"}, {"time": 3775, "annotation": {"number": 64, "value": 127}, "group": "control_change"}, {"time": 3799, "annotation": {"number": 64, "value": 0}, "group": "control_change"}, {"time": 3801, "annotation": {"number": 64, "value": 127}, "group": "control_change"}, {"time": 3823, "annotation": {"number": 64, "value": 0}, "group": "control_change"}, {"time": 3825, "annotation": {"number": 64, "value": 127}, "group": "control_change"}, {"time": 3846, "annotation": {"number": 64, "value": 0}, "group": "control_change"}, {"time": 3848, "annotation": {"number": 64, "value": 127}, "group": "control_change"}, {"time": 3870, "annotation": {"number": 64, "value": 0}, "group": "control_change"}, {"time": 3872, "annotation": {"number": 64, "value": 127}, "group": "control_change"}, {"time": 3895, "annotation": {"number": 64, "value": 0}, "group": "control_change"}, {"time": 3896, "annotation": {"number": 64, "value": 127}, "group": "control_change"}, {"time": 3918, "annotation": {"number": 64, "value": 0}, "group": "control_change"}, {"time": 3920, "annotation": {"number": 64, "value": 127}, "group": "control_change"}, {"time": 3966, "annotation": {"number": 64, "value": 0}, "group": "control_change"}, {"time": 3969, "annotation": {"number": 64, "value": 127}, "group": "control_change"}, {"time": 4014, "annotation": {"number": 64, "value": 0}, "group": "control_change"}, {"time": 4016, "annotation": {"number": 64, "value": 127}, "group": "control_change"}, {"time": 4038, "annotation": {"number": 64, "value": 0}, "group": "control_change"}, {"time": 4039, "annotation": {"number": 64, "value": 127}, "group": "control_change"}, {"time": 4062, "annotation": {"number": 64, "value": 0}, "group": "control_change"}, {"time": 4064, "annotation": {"number": 64, "value": 127}, "group": "control_change"}, {"time": 4086, "annotation": {"number": 64, "value": 0}, "group": "control_change"}, {"time": 4088, "annotation": {"number": 64, "value": 127}, "group": "control_change"}, {"time": 4110, "annotation": {"number": 64, "value": 0}, "group": "control_change"}, {"time": 4112, "annotation": {"number": 64, "value": 127}, "group": "control_change"}, {"time": 4158, "annotation": {"number": 64, "value": 0}, "group": "control_change"}, {"time": 4160, "annotation": {"number": 64, "value": 127}, "group": "control_change"}, {"time": 4207, "annotation": {"number": 64, "value": 0}, "group": "control_change"}, {"time": 4208, "annotation": {"number": 64, "value": 127}, "group": "control_change"}, {"time": 4301, "annotation": {"number": 64, "value": 0}, "group": "control_change"}, {"time": 4304, "annotation": {"number": 64, "value": 127}, "group": "control_change"}, {"time": 4348, "annotation": {"number": 64, "value": 0}, "group": "control_change"}, {"time": 4354, "annotation": {"number": 64, "value": 127}, "group": "control_change"}, {"time": 4374, "annotation": {"number": 64, "value": 0}, "group": "control_change"}, {"time": 4378, "annotation": {"number": 64, "value": 127}, "group": "control_change"}, {"time": 4397, "annotation": {"number": 64, "value": 0}, "group": "control_change"}, {"time": 4401, "annotation": {"number": 64, "value": 127}, "group": "control_change"}, {"time": 4446, "annotation": {"number": 64, "value": 0}, "group": "control_change"}, {"time": 4449, "annotation": {"number": 64, "value": 127}, "group": "control_change"}, {"time": 4493, "annotation": {"number": 64, "value": 0}, "group": "control_change"}, {"time": 4498, "annotation": {"number": 64, "value": 127}, "group": "control_change"}, {"time": 4541, "annotation": {"number": 64, "value": 0}, "group": "control_change"}, {"time": 4545, "annotation": {"number": 64, "value": 127}, "group": "control_change"}, {"time": 4638, "annotation": {"number": 64, "value": 0}, "group": "control_change"}, {"time": 4641, "annotation": {"number": 64, "value": 127}, "group": "control_change"}, {"time": 4687, "annotation": {"number": 64, "value": 0}, "group": "control_change"}, {"time": 4690, "annotation": {"number": 64, "value": 127}, "group": "control_change"}, {"time": 4735, "annotation": {"number": 64, "value": 0}, "group": "control_change"}, {"time": 4777, "annotation": {"number": 64, "value": 127}, "group": "control_change"}]}]}