{"metadata": {"schema_version": "0.2", "title": "None", "source_filename": "723.mid", "source_format": "midi"}, "resolution": 12, "tempos": [{"time": 0, "qpm": 84.56016032606398}], "time_signatures": [{"time": 0, "numerator": 1, "denominator": 4}], "tracks": [{"program": 0, "is_drum": false, "name": "MELODY", "notes": [{"time": 475, "pitch": 58, "duration": 9, "velocity": 100}, {"time": 487, "pitch": 70, "duration": 23, "velocity": 127}, {"time": 511, "pitch": 70, "duration": 10, "velocity": 127}, {"time": 523, "pitch": 67, "duration": 9, "velocity": 112}, {"time": 535, "pitch": 65, "duration": 8, "velocity": 122}, {"time": 547, "pitch": 63, "duration": 3, "velocity": 99}, {"time": 553, "pitch": 65, "duration": 3, "velocity": 100}, {"time": 559, "pitch": 67, "duration": 9, "velocity": 122}, {"time": 577, "pitch": 65, "duration": 5, "velocity": 107}, {"time": 583, "pitch": 63, "duration": 10, "velocity": 107}, {"time": 595, "pitch": 63, "duration": 5, "velocity": 112}, {"time": 601, "pitch": 55, "duration": 5, "velocity": 127}, {"time": 607, "pitch": 58, "duration": 13, "velocity": 102}, {"time": 622, "pitch": 60, "duration": 6, "velocity": 102}, {"time": 628, "pitch": 63, "duration": 5, "velocity": 95}, {"time": 634, "pitch": 58, "duration": 15, "velocity": 88}, {"time": 679, "pitch": 60, "duration": 14, "velocity": 97}, {"time": 697, "pitch": 58, "duration": 6, "velocity": 92}, {"time": 703, "pitch": 60, "duration": 11, "velocity": 102}, {"time": 715, "pitch": 63, "duration": 6, "velocity": 99}, {"time": 727, "pitch": 65, "duration": 5, "velocity": 107}, {"time": 733, "pitch": 67, "duration": 4, "velocity": 88}, {"time": 736, "pitch": 65, "duration": 2, "velocity": 83}, {"time": 739, "pitch": 63, "duration": 4, "velocity": 93}, {"time": 745, "pitch": 65, "duration": 3, "velocity": 95}, {"time": 751, "pitch": 67, "duration": 10, "velocity": 107}, {"time": 769, "pitch": 70, "duration": 3, "velocity": 100}, {"time": 775, "pitch": 65, "duration": 5, "velocity": 95}, {"time": 781, "pitch": 65, "duration": 7, "velocity": 92}, {"time": 790, "pitch": 67, "duration": 5, "velocity": 99}, {"time": 799, "pitch": 70, "duration": 8, "velocity": 100}, {"time": 814, "pitch": 72, "duration": 6, "velocity": 97}, {"time": 820, "pitch": 75, "duration": 5, "velocity": 100}, {"time": 829, "pitch": 70, "duration": 27, "velocity": 95}, {"time": 871, "pitch": 72, "duration": 4, "velocity": 100}, {"time": 877, "pitch": 72, "duration": 9, "velocity": 107}, {"time": 889, "pitch": 70, "duration": 4, "velocity": 96}, {"time": 895, "pitch": 67, "duration": 9, "velocity": 102}, {"time": 907, "pitch": 67, "duration": 7, "velocity": 127}, {"time": 919, "pitch": 63, "duration": 5, "velocity": 100}, {"time": 925, "pitch": 65, "duration": 4, "velocity": 93}, {"time": 931, "pitch": 67, "duration": 4, "velocity": 102}, {"time": 937, "pitch": 70, "duration": 5, "velocity": 89}, {"time": 943, "pitch": 67, "duration": 15, "velocity": 122}, {"time": 967, "pitch": 65, "duration": 3, "velocity": 100}, {"time": 973, "pitch": 65, "duration": 8, "velocity": 107}, {"time": 985, "pitch": 63, "duration": 3, "velocity": 127}, {"time": 991, "pitch": 60, "duration": 5, "velocity": 92}, {"time": 997, "pitch": 58, "duration": 5, "velocity": 88}, {"time": 1003, "pitch": 60, "duration": 8, "velocity": 90}, {"time": 1009, "pitch": 63, "duration": 5, "velocity": 97}, {"time": 1015, "pitch": 65, "duration": 35, "velocity": 93}, {"time": 1063, "pitch": 67, "duration": 3, "velocity": 122}, {"time": 1069, "pitch": 67, "duration": 9, "velocity": 102}, {"time": 1081, "pitch": 65, "duration": 6, "velocity": 97}, {"time": 1087, "pitch": 67, "duration": 5, "velocity": 117}, {"time": 1093, "pitch": 70, "duration": 6, "velocity": 96}, {"time": 1099, "pitch": 67, "duration": 10, "velocity": 99}, {"time": 1111, "pitch": 65, "duration": 5, "velocity": 117}, {"time": 1117, "pitch": 67, "duration": 4, "velocity": 107}, {"time": 1123, "pitch": 65, "duration": 5, "velocity": 107}, {"time": 1129, "pitch": 63, "duration": 5, "velocity": 99}, {"time": 1135, "pitch": 60, "duration": 14, "velocity": 112}, {"time": 1159, "pitch": 58, "duration": 4, "velocity": 107}, {"time": 1165, "pitch": 70, "duration": 4, "velocity": 102}, {"time": 1171, "pitch": 67, "duration": 5, "velocity": 102}, {"time": 1177, "pitch": 65, "duration": 4, "velocity": 100}, {"time": 1180, "pitch": 67, "duration": 3, "velocity": 102}, {"time": 1183, "pitch": 70, "duration": 5, "velocity": 107}, {"time": 1189, "pitch": 72, "duration": 4, "velocity": 97}, {"time": 1195, "pitch": 67, "duration": 6, "velocity": 97}, {"time": 1201, "pitch": 65, "duration": 5, "velocity": 99}, {"time": 1207, "pitch": 63, "duration": 18, "velocity": 100}, {"time": 1255, "pitch": 72, "duration": 7, "velocity": 127}, {"time": 1264, "pitch": 72, "duration": 1, "velocity": 112}, {"time": 1267, "pitch": 72, "duration": 6, "velocity": 100}, {"time": 1276, "pitch": 70, "duration": 2, "velocity": 93}, {"time": 1279, "pitch": 67, "duration": 2, "velocity": 100}, {"time": 1285, "pitch": 67, "duration": 8, "velocity": 122}, {"time": 1303, "pitch": 65, "duration": 3, "velocity": 96}, {"time": 1309, "pitch": 65, "duration": 8, "velocity": 102}, {"time": 1321, "pitch": 63, "duration": 3, "velocity": 92}, {"time": 1327, "pitch": 60, "duration": 9, "velocity": 100}, {"time": 1336, "pitch": 58, "duration": 2, "velocity": 92}, {"time": 1339, "pitch": 60, "duration": 5, "velocity": 97}, {"time": 1345, "pitch": 63, "duration": 5, "velocity": 107}, {"time": 1351, "pitch": 65, "duration": 36, "velocity": 97}, {"time": 1399, "pitch": 70, "duration": 7, "velocity": 122}, {"time": 1405, "pitch": 72, "duration": 5, "velocity": 83}, {"time": 1411, "pitch": 70, "duration": 4, "velocity": 127}, {"time": 1420, "pitch": 65, "duration": 2, "velocity": 93}, {"time": 1423, "pitch": 67, "duration": 3, "velocity": 100}, {"time": 1429, "pitch": 67, "duration": 8, "velocity": 107}, {"time": 1441, "pitch": 70, "duration": 4, "velocity": 99}, {"time": 1447, "pitch": 65, "duration": 6, "velocity": 96}, {"time": 1456, "pitch": 65, "duration": 1, "velocity": 83}, {"time": 1459, "pitch": 65, "duration": 5, "velocity": 90}, {"time": 1465, "pitch": 63, "duration": 4, "velocity": 99}, {"time": 1471, "pitch": 60, "duration": 7, "velocity": 100}, {"time": 1483, "pitch": 63, "duration": 6, "velocity": 102}, {"time": 1489, "pitch": 65, "duration": 6, "velocity": 100}, {"time": 1495, "pitch": 70, "duration": 27, "velocity": 99}, {"time": 1537, "pitch": 70, "duration": 4, "velocity": 127}, {"time": 1543, "pitch": 72, "duration": 8, "velocity": 107}, {"time": 1555, "pitch": 67, "duration": 4, "velocity": 122}, {"time": 1561, "pitch": 70, "duration": 4, "velocity": 122}, {"time": 1567, "pitch": 72, "duration": 5, "velocity": 127}, {"time": 1579, "pitch": 72, "duration": 5, "velocity": 122}, {"time": 1585, "pitch": 75, "duration": 5, "velocity": 97}, {"time": 1591, "pitch": 70, "duration": 3, "velocity": 99}, {"time": 1594, "pitch": 72, "duration": 3, "velocity": 97}, {"time": 1603, "pitch": 70, "duration": 6, "velocity": 107}, {"time": 1609, "pitch": 67, "duration": 6, "velocity": 90}, {"time": 1615, "pitch": 65, "duration": 14, "velocity": 90}, {"time": 1639, "pitch": 67, "duration": 8, "velocity": 127}, {"time": 1651, "pitch": 65, "duration": 5, "velocity": 107}, {"time": 1657, "pitch": 63, "duration": 6, "velocity": 90}, {"time": 1663, "pitch": 60, "duration": 10, "velocity": 90}, {"time": 1681, "pitch": 63, "duration": 4, "velocity": 95}, {"time": 1687, "pitch": 65, "duration": 5, "velocity": 97}, {"time": 1693, "pitch": 67, "duration": 5, "velocity": 97}, {"time": 1699, "pitch": 63, "duration": 6, "velocity": 99}, {"time": 1705, "pitch": 65, "duration": 5, "velocity": 93}, {"time": 1711, "pitch": 67, "duration": 15, "velocity": 102}, {"time": 1729, "pitch": 70, "duration": 5, "velocity": 99}, {"time": 1735, "pitch": 72, "duration": 11, "velocity": 107}, {"time": 1753, "pitch": 67, "duration": 5, "velocity": 112}, {"time": 1759, "pitch": 65, "duration": 10, "velocity": 100}, {"time": 1771, "pitch": 67, "duration": 6, "velocity": 107}, {"time": 1777, "pitch": 65, "duration": 6, "velocity": 79}, {"time": 1783, "pitch": 63, "duration": 42, "velocity": 97}, {"time": 2251, "pitch": 58, "duration": 9, "velocity": 100}, {"time": 2263, "pitch": 70, "duration": 23, "velocity": 127}, {"time": 2287, "pitch": 70, "duration": 10, "velocity": 127}, {"time": 2299, "pitch": 67, "duration": 9, "velocity": 112}, {"time": 2311, "pitch": 65, "duration": 8, "velocity": 122}, {"time": 2323, "pitch": 63, "duration": 3, "velocity": 99}, {"time": 2329, "pitch": 65, "duration": 3, "velocity": 100}, {"time": 2335, "pitch": 67, "duration": 9, "velocity": 122}, {"time": 2353, "pitch": 65, "duration": 5, "velocity": 107}, {"time": 2359, "pitch": 63, "duration": 10, "velocity": 107}, {"time": 2371, "pitch": 63, "duration": 5, "velocity": 112}, {"time": 2377, "pitch": 55, "duration": 5, "velocity": 127}, {"time": 2383, "pitch": 58, "duration": 13, "velocity": 102}, {"time": 2398, "pitch": 60, "duration": 6, "velocity": 102}, {"time": 2404, "pitch": 63, "duration": 5, "velocity": 95}, {"time": 2410, "pitch": 58, "duration": 15, "velocity": 88}, {"time": 2455, "pitch": 60, "duration": 14, "velocity": 97}, {"time": 2473, "pitch": 58, "duration": 6, "velocity": 92}, {"time": 2479, "pitch": 60, "duration": 11, "velocity": 102}, {"time": 2491, "pitch": 63, "duration": 6, "velocity": 99}, {"time": 2503, "pitch": 65, "duration": 5, "velocity": 107}, {"time": 2509, "pitch": 67, "duration": 4, "velocity": 88}, {"time": 2512, "pitch": 65, "duration": 2, "velocity": 83}, {"time": 2515, "pitch": 63, "duration": 4, "velocity": 93}, {"time": 2521, "pitch": 65, "duration": 3, "velocity": 95}, {"time": 2527, "pitch": 67, "duration": 10, "velocity": 107}, {"time": 2545, "pitch": 70, "duration": 3, "velocity": 100}, {"time": 2551, "pitch": 65, "duration": 5, "velocity": 95}, {"time": 2557, "pitch": 65, "duration": 7, "velocity": 92}, {"time": 2566, "pitch": 67, "duration": 5, "velocity": 99}, {"time": 2575, "pitch": 70, "duration": 8, "velocity": 100}, {"time": 2590, "pitch": 72, "duration": 6, "velocity": 97}, {"time": 2596, "pitch": 75, "duration": 5, "velocity": 100}, {"time": 2605, "pitch": 70, "duration": 27, "velocity": 95}, {"time": 2647, "pitch": 72, "duration": 4, "velocity": 100}, {"time": 2653, "pitch": 72, "duration": 9, "velocity": 107}, {"time": 2665, "pitch": 70, "duration": 4, "velocity": 96}, {"time": 2671, "pitch": 67, "duration": 9, "velocity": 102}, {"time": 2683, "pitch": 67, "duration": 7, "velocity": 127}, {"time": 2695, "pitch": 63, "duration": 5, "velocity": 100}, {"time": 2701, "pitch": 65, "duration": 4, "velocity": 93}, {"time": 2707, "pitch": 67, "duration": 4, "velocity": 102}, {"time": 2713, "pitch": 70, "duration": 5, "velocity": 89}, {"time": 2719, "pitch": 67, "duration": 15, "velocity": 122}, {"time": 2743, "pitch": 65, "duration": 3, "velocity": 100}, {"time": 2749, "pitch": 65, "duration": 8, "velocity": 107}, {"time": 2761, "pitch": 63, "duration": 3, "velocity": 127}, {"time": 2767, "pitch": 60, "duration": 5, "velocity": 92}, {"time": 2773, "pitch": 58, "duration": 5, "velocity": 88}, {"time": 2779, "pitch": 60, "duration": 8, "velocity": 90}, {"time": 2785, "pitch": 63, "duration": 5, "velocity": 97}, {"time": 2791, "pitch": 65, "duration": 35, "velocity": 93}, {"time": 2839, "pitch": 67, "duration": 3, "velocity": 122}, {"time": 2845, "pitch": 67, "duration": 9, "velocity": 102}, {"time": 2857, "pitch": 65, "duration": 6, "velocity": 97}, {"time": 2863, "pitch": 67, "duration": 5, "velocity": 117}, {"time": 2869, "pitch": 70, "duration": 6, "velocity": 96}, {"time": 2875, "pitch": 67, "duration": 10, "velocity": 99}, {"time": 2887, "pitch": 65, "duration": 5, "velocity": 117}, {"time": 2893, "pitch": 67, "duration": 4, "velocity": 107}, {"time": 2899, "pitch": 65, "duration": 5, "velocity": 107}, {"time": 2905, "pitch": 63, "duration": 5, "velocity": 99}, {"time": 2911, "pitch": 60, "duration": 14, "velocity": 112}, {"time": 2935, "pitch": 58, "duration": 4, "velocity": 107}, {"time": 2941, "pitch": 70, "duration": 4, "velocity": 102}, {"time": 2947, "pitch": 67, "duration": 5, "velocity": 102}, {"time": 2953, "pitch": 65, "duration": 4, "velocity": 100}, {"time": 2956, "pitch": 67, "duration": 3, "velocity": 102}, {"time": 2959, "pitch": 70, "duration": 5, "velocity": 107}, {"time": 2965, "pitch": 72, "duration": 4, "velocity": 97}, {"time": 2971, "pitch": 67, "duration": 6, "velocity": 97}, {"time": 2977, "pitch": 65, "duration": 5, "velocity": 99}, {"time": 2983, "pitch": 63, "duration": 18, "velocity": 100}, {"time": 3031, "pitch": 72, "duration": 7, "velocity": 127}, {"time": 3040, "pitch": 72, "duration": 1, "velocity": 112}, {"time": 3043, "pitch": 72, "duration": 6, "velocity": 100}, {"time": 3052, "pitch": 70, "duration": 2, "velocity": 93}, {"time": 3055, "pitch": 67, "duration": 2, "velocity": 100}, {"time": 3061, "pitch": 67, "duration": 8, "velocity": 122}, {"time": 3079, "pitch": 65, "duration": 3, "velocity": 96}, {"time": 3085, "pitch": 65, "duration": 8, "velocity": 102}, {"time": 3097, "pitch": 63, "duration": 3, "velocity": 92}, {"time": 3103, "pitch": 60, "duration": 9, "velocity": 100}, {"time": 3112, "pitch": 58, "duration": 2, "velocity": 92}, {"time": 3115, "pitch": 60, "duration": 5, "velocity": 97}, {"time": 3121, "pitch": 63, "duration": 5, "velocity": 107}, {"time": 3127, "pitch": 65, "duration": 36, "velocity": 97}, {"time": 3175, "pitch": 70, "duration": 7, "velocity": 122}, {"time": 3181, "pitch": 72, "duration": 5, "velocity": 83}, {"time": 3187, "pitch": 70, "duration": 4, "velocity": 127}, {"time": 3196, "pitch": 65, "duration": 2, "velocity": 93}, {"time": 3199, "pitch": 67, "duration": 3, "velocity": 100}, {"time": 3205, "pitch": 67, "duration": 8, "velocity": 107}, {"time": 3217, "pitch": 70, "duration": 4, "velocity": 99}, {"time": 3223, "pitch": 65, "duration": 6, "velocity": 96}, {"time": 3232, "pitch": 65, "duration": 1, "velocity": 83}, {"time": 3235, "pitch": 65, "duration": 5, "velocity": 90}, {"time": 3241, "pitch": 63, "duration": 4, "velocity": 99}, {"time": 3247, "pitch": 60, "duration": 7, "velocity": 100}, {"time": 3259, "pitch": 63, "duration": 6, "velocity": 102}, {"time": 3265, "pitch": 65, "duration": 6, "velocity": 100}, {"time": 3271, "pitch": 70, "duration": 27, "velocity": 99}, {"time": 3313, "pitch": 70, "duration": 4, "velocity": 127}, {"time": 3319, "pitch": 72, "duration": 8, "velocity": 107}, {"time": 3331, "pitch": 67, "duration": 4, "velocity": 122}, {"time": 3337, "pitch": 70, "duration": 4, "velocity": 122}, {"time": 3343, "pitch": 72, "duration": 5, "velocity": 127}, {"time": 3355, "pitch": 72, "duration": 5, "velocity": 122}, {"time": 3361, "pitch": 75, "duration": 5, "velocity": 97}, {"time": 3367, "pitch": 70, "duration": 3, "velocity": 99}, {"time": 3370, "pitch": 72, "duration": 3, "velocity": 97}, {"time": 3379, "pitch": 70, "duration": 6, "velocity": 107}, {"time": 3385, "pitch": 67, "duration": 6, "velocity": 90}, {"time": 3391, "pitch": 65, "duration": 14, "velocity": 90}, {"time": 3415, "pitch": 67, "duration": 8, "velocity": 127}, {"time": 3427, "pitch": 65, "duration": 5, "velocity": 107}, {"time": 3433, "pitch": 63, "duration": 6, "velocity": 90}, {"time": 3439, "pitch": 60, "duration": 10, "velocity": 90}, {"time": 3457, "pitch": 63, "duration": 4, "velocity": 95}, {"time": 3463, "pitch": 65, "duration": 5, "velocity": 97}, {"time": 3469, "pitch": 67, "duration": 5, "velocity": 97}, {"time": 3475, "pitch": 63, "duration": 6, "velocity": 99}, {"time": 3481, "pitch": 65, "duration": 5, "velocity": 93}, {"time": 3487, "pitch": 67, "duration": 15, "velocity": 102}, {"time": 3505, "pitch": 70, "duration": 5, "velocity": 99}, {"time": 3511, "pitch": 72, "duration": 11, "velocity": 107}, {"time": 3529, "pitch": 67, "duration": 5, "velocity": 112}, {"time": 3535, "pitch": 65, "duration": 10, "velocity": 100}, {"time": 3547, "pitch": 67, "duration": 6, "velocity": 107}, {"time": 3553, "pitch": 65, "duration": 6, "velocity": 79}, {"time": 3559, "pitch": 63, "duration": 42, "velocity": 97}]}, {"program": 0, "is_drum": false, "name": "BRIDGE", "notes": [{"time": 7, "pitch": 77, "duration": 5, "velocity": 117}, {"time": 13, "pitch": 79, "duration": 19, "velocity": 100}, {"time": 43, "pitch": 70, "duration": 2, "velocity": 107}, {"time": 46, "pitch": 72, "duration": 3, "velocity": 88}, {"time": 49, "pitch": 75, "duration": 3, "velocity": 96}, {"time": 52, "pitch": 77, "duration": 4, "velocity": 97}, {"time": 55, "pitch": 72, "duration": 21, "velocity": 127}, {"time": 91, "pitch": 75, "duration": 2, "velocity": 102}, {"time": 94, "pitch": 77, "duration": 2, "velocity": 74}, {"time": 97, "pitch": 79, "duration": 3, "velocity": 102}, {"time": 100, "pitch": 77, "duration": 3, "velocity": 99}, {"time": 103, "pitch": 75, "duration": 5, "velocity": 92}, {"time": 109, "pitch": 77, "duration": 5, "velocity": 99}, {"time": 139, "pitch": 72, "duration": 2, "velocity": 100}, {"time": 142, "pitch": 75, "duration": 2, "velocity": 93}, {"time": 145, "pitch": 70, "duration": 2, "velocity": 88}, {"time": 148, "pitch": 72, "duration": 2, "velocity": 97}, {"time": 151, "pitch": 67, "duration": 20, "velocity": 107}, {"time": 187, "pitch": 79, "duration": 6, "velocity": 107}, {"time": 193, "pitch": 77, "duration": 3, "velocity": 78}, {"time": 196, "pitch": 79, "duration": 3, "velocity": 89}, {"time": 199, "pitch": 82, "duration": 6, "velocity": 90}, {"time": 205, "pitch": 84, "duration": 3, "velocity": 92}, {"time": 208, "pitch": 82, "duration": 3, "velocity": 74}, {"time": 211, "pitch": 79, "duration": 6, "velocity": 77}, {"time": 217, "pitch": 82, "duration": 6, "velocity": 88}, {"time": 223, "pitch": 84, "duration": 13, "velocity": 95}, {"time": 235, "pitch": 87, "duration": 6, "velocity": 107}, {"time": 241, "pitch": 84, "duration": 6, "velocity": 89}, {"time": 247, "pitch": 82, "duration": 6, "velocity": 89}, {"time": 253, "pitch": 84, "duration": 6, "velocity": 95}, {"time": 259, "pitch": 82, "duration": 5, "velocity": 79}, {"time": 265, "pitch": 79, "duration": 6, "velocity": 85}, {"time": 271, "pitch": 77, "duration": 13, "velocity": 96}, {"time": 277, "pitch": 82, "duration": 3, "velocity": 122}, {"time": 280, "pitch": 79, "duration": 3, "velocity": 89}, {"time": 283, "pitch": 77, "duration": 1, "velocity": 83}, {"time": 289, "pitch": 75, "duration": 5, "velocity": 88}, {"time": 295, "pitch": 67, "duration": 11, "velocity": 122}, {"time": 295, "pitch": 74, "duration": 13, "velocity": 95}, {"time": 307, "pitch": 65, "duration": 5, "velocity": 99}, {"time": 313, "pitch": 63, "duration": 6, "velocity": 97}, {"time": 319, "pitch": 60, "duration": 12, "velocity": 95}, {"time": 337, "pitch": 63, "duration": 4, "velocity": 72}, {"time": 343, "pitch": 65, "duration": 5, "velocity": 99}, {"time": 349, "pitch": 67, "duration": 5, "velocity": 96}, {"time": 355, "pitch": 63, "duration": 5, "velocity": 95}, {"time": 361, "pitch": 65, "duration": 6, "velocity": 95}, {"time": 367, "pitch": 70, "duration": 6, "velocity": 100}, {"time": 373, "pitch": 67, "duration": 11, "velocity": 107}, {"time": 379, "pitch": 67, "duration": 5, "velocity": 112}, {"time": 385, "pitch": 70, "duration": 5, "velocity": 97}, {"time": 391, "pitch": 72, "duration": 13, "velocity": 127}, {"time": 409, "pitch": 67, "duration": 5, "velocity": 117}, {"time": 415, "pitch": 65, "duration": 7, "velocity": 107}, {"time": 421, "pitch": 70, "duration": 5, "velocity": 100}, {"time": 427, "pitch": 67, "duration": 6, "velocity": 96}, {"time": 433, "pitch": 65, "duration": 5, "velocity": 85}, {"time": 439, "pitch": 63, "duration": 13, "velocity": 95}, {"time": 445, "pitch": 77, "duration": 2, "velocity": 100}, {"time": 448, "pitch": 79, "duration": 2, "velocity": 100}, {"time": 451, "pitch": 75, "duration": 4, "velocity": 78}, {"time": 454, "pitch": 77, "duration": 3, "velocity": 82}, {"time": 457, "pitch": 75, "duration": 3, "velocity": 92}, {"time": 460, "pitch": 77, "duration": 2, "velocity": 74}, {"time": 463, "pitch": 70, "duration": 16, "velocity": 95}, {"time": 643, "pitch": 82, "duration": 4, "velocity": 112}, {"time": 649, "pitch": 79, "duration": 6, "velocity": 96}, {"time": 655, "pitch": 77, "duration": 5, "velocity": 85}, {"time": 661, "pitch": 79, "duration": 5, "velocity": 99}, {"time": 667, "pitch": 74, "duration": 3, "velocity": 100}, {"time": 670, "pitch": 72, "duration": 2, "velocity": 72}, {"time": 673, "pitch": 70, "duration": 6, "velocity": 85}, {"time": 679, "pitch": 72, "duration": 23, "velocity": 89}, {"time": 829, "pitch": 63, "duration": 5, "velocity": 100}, {"time": 835, "pitch": 65, "duration": 6, "velocity": 89}, {"time": 841, "pitch": 72, "duration": 5, "velocity": 95}, {"time": 844, "pitch": 70, "duration": 13, "velocity": 102}, {"time": 859, "pitch": 77, "duration": 3, "velocity": 92}, {"time": 862, "pitch": 79, "duration": 3, "velocity": 92}, {"time": 865, "pitch": 82, "duration": 3, "velocity": 85}, {"time": 868, "pitch": 79, "duration": 2, "velocity": 96}, {"time": 871, "pitch": 84, "duration": 7, "velocity": 90}, {"time": 1022, "pitch": 84, "duration": 3, "velocity": 40}, {"time": 1023, "pitch": 82, "duration": 2, "velocity": 79}, {"time": 1024, "pitch": 80, "duration": 2, "velocity": 73}, {"time": 1026, "pitch": 77, "duration": 9, "velocity": 85}, {"time": 1033, "pitch": 79, "duration": 5, "velocity": 127}, {"time": 1039, "pitch": 74, "duration": 10, "velocity": 97}, {"time": 1045, "pitch": 77, "duration": 6, "velocity": 102}, {"time": 1051, "pitch": 74, "duration": 6, "velocity": 96}, {"time": 1057, "pitch": 72, "duration": 5, "velocity": 83}, {"time": 1063, "pitch": 70, "duration": 20, "velocity": 93}, {"time": 1141, "pitch": 60, "duration": 5, "velocity": 102}, {"time": 1147, "pitch": 65, "duration": 3, "velocity": 99}, {"time": 1150, "pitch": 67, "duration": 3, "velocity": 95}, {"time": 1153, "pitch": 63, "duration": 3, "velocity": 95}, {"time": 1156, "pitch": 60, "duration": 2, "velocity": 77}, {"time": 1159, "pitch": 58, "duration": 21, "velocity": 88}, {"time": 1225, "pitch": 70, "duration": 5, "velocity": 95}, {"time": 1231, "pitch": 75, "duration": 5, "velocity": 112}, {"time": 1237, "pitch": 77, "duration": 6, "velocity": 102}, {"time": 1243, "pitch": 75, "duration": 5, "velocity": 107}, {"time": 1249, "pitch": 70, "duration": 6, "velocity": 93}, {"time": 1255, "pitch": 72, "duration": 22, "velocity": 95}, {"time": 1279, "pitch": 79, "duration": 2, "velocity": 117}, {"time": 1285, "pitch": 79, "duration": 4, "velocity": 112}, {"time": 1291, "pitch": 70, "duration": 6, "velocity": 96}, {"time": 1297, "pitch": 67, "duration": 7, "velocity": 92}, {"time": 1303, "pitch": 65, "duration": 23, "velocity": 78}, {"time": 1357, "pitch": 58, "duration": 6, "velocity": 93}, {"time": 1363, "pitch": 60, "duration": 5, "velocity": 89}, {"time": 1369, "pitch": 67, "duration": 6, "velocity": 96}, {"time": 1375, "pitch": 65, "duration": 13, "velocity": 100}, {"time": 1387, "pitch": 70, "duration": 3, "velocity": 90}, {"time": 1390, "pitch": 72, "duration": 4, "velocity": 86}, {"time": 1393, "pitch": 75, "duration": 4, "velocity": 97}, {"time": 1396, "pitch": 77, "duration": 3, "velocity": 90}, {"time": 1399, "pitch": 82, "duration": 28, "velocity": 122}, {"time": 1435, "pitch": 82, "duration": 6, "velocity": 112}, {"time": 1441, "pitch": 79, "duration": 6, "velocity": 93}, {"time": 1447, "pitch": 77, "duration": 24, "velocity": 82}, {"time": 1465, "pitch": 75, "duration": 5, "velocity": 102}, {"time": 1471, "pitch": 72, "duration": 10, "velocity": 96}, {"time": 1483, "pitch": 75, "duration": 11, "velocity": 97}, {"time": 1495, "pitch": 77, "duration": 30, "velocity": 99}, {"time": 1621, "pitch": 74, "duration": 5, "velocity": 112}, {"time": 1627, "pitch": 75, "duration": 6, "velocity": 99}, {"time": 1633, "pitch": 77, "duration": 6, "velocity": 88}, {"time": 1639, "pitch": 79, "duration": 29, "velocity": 99}, {"time": 1786, "pitch": 75, "duration": 3, "velocity": 86}, {"time": 1789, "pitch": 77, "duration": 6, "velocity": 92}, {"time": 1795, "pitch": 79, "duration": 6, "velocity": 92}, {"time": 1801, "pitch": 82, "duration": 5, "velocity": 100}, {"time": 1807, "pitch": 77, "duration": 6, "velocity": 92}, {"time": 1813, "pitch": 79, "duration": 5, "velocity": 99}, {"time": 1819, "pitch": 75, "duration": 7, "velocity": 92}, {"time": 1825, "pitch": 77, "duration": 5, "velocity": 93}, {"time": 1831, "pitch": 72, "duration": 7, "velocity": 90}, {"time": 1837, "pitch": 75, "duration": 4, "velocity": 96}, {"time": 1843, "pitch": 70, "duration": 8, "velocity": 93}, {"time": 1849, "pitch": 72, "duration": 5, "velocity": 89}, {"time": 1855, "pitch": 67, "duration": 24, "velocity": 88}, {"time": 1873, "pitch": 58, "duration": 5, "velocity": 90}, {"time": 1879, "pitch": 60, "duration": 6, "velocity": 88}, {"time": 1885, "pitch": 63, "duration": 7, "velocity": 92}, {"time": 1891, "pitch": 65, "duration": 5, "velocity": 78}, {"time": 1897, "pitch": 67, "duration": 6, "velocity": 97}, {"time": 1903, "pitch": 70, "duration": 6, "velocity": 93}, {"time": 1909, "pitch": 67, "duration": 5, "velocity": 117}, {"time": 1915, "pitch": 65, "duration": 6, "velocity": 92}, {"time": 1921, "pitch": 63, "duration": 6, "velocity": 83}, {"time": 1927, "pitch": 60, "duration": 8, "velocity": 93}, {"time": 1933, "pitch": 58, "duration": 6, "velocity": 86}, {"time": 1939, "pitch": 60, "duration": 6, "velocity": 95}, {"time": 1945, "pitch": 67, "duration": 6, "velocity": 93}, {"time": 1951, "pitch": 65, "duration": 10, "velocity": 90}, {"time": 1963, "pitch": 67, "duration": 6, "velocity": 117}, {"time": 1969, "pitch": 65, "duration": 3, "velocity": 96}, {"time": 1972, "pitch": 67, "duration": 3, "velocity": 100}, {"time": 1975, "pitch": 70, "duration": 5, "velocity": 90}, {"time": 1981, "pitch": 72, "duration": 3, "velocity": 90}, {"time": 1984, "pitch": 70, "duration": 3, "velocity": 74}, {"time": 1987, "pitch": 67, "duration": 4, "velocity": 97}, {"time": 1993, "pitch": 70, "duration": 4, "velocity": 92}, {"time": 1999, "pitch": 72, "duration": 10, "velocity": 93}, {"time": 2011, "pitch": 75, "duration": 6, "velocity": 102}, {"time": 2017, "pitch": 72, "duration": 5, "velocity": 85}, {"time": 2023, "pitch": 70, "duration": 6, "velocity": 95}, {"time": 2029, "pitch": 70, "duration": 2, "velocity": 93}, {"time": 2032, "pitch": 72, "duration": 2, "velocity": 74}, {"time": 2035, "pitch": 70, "duration": 4, "velocity": 95}, {"time": 2041, "pitch": 67, "duration": 5, "velocity": 107}, {"time": 2047, "pitch": 65, "duration": 8, "velocity": 93}, {"time": 2071, "pitch": 67, "duration": 10, "velocity": 112}, {"time": 2083, "pitch": 65, "duration": 5, "velocity": 92}, {"time": 2089, "pitch": 63, "duration": 4, "velocity": 92}, {"time": 2095, "pitch": 60, "duration": 11, "velocity": 92}, {"time": 2113, "pitch": 63, "duration": 5, "velocity": 107}, {"time": 2119, "pitch": 65, "duration": 5, "velocity": 99}, {"time": 2125, "pitch": 67, "duration": 3, "velocity": 88}, {"time": 2131, "pitch": 63, "duration": 5, "velocity": 95}, {"time": 2137, "pitch": 65, "duration": 4, "velocity": 92}, {"time": 2143, "pitch": 70, "duration": 12, "velocity": 102}, {"time": 2149, "pitch": 67, "duration": 12, "velocity": 102}, {"time": 2155, "pitch": 79, "duration": 5, "velocity": 107}, {"time": 2161, "pitch": 82, "duration": 5, "velocity": 97}, {"time": 2167, "pitch": 84, "duration": 16, "velocity": 122}, {"time": 2185, "pitch": 79, "duration": 4, "velocity": 112}, {"time": 2191, "pitch": 77, "duration": 5, "velocity": 95}, {"time": 2197, "pitch": 82, "duration": 5, "velocity": 97}, {"time": 2203, "pitch": 79, "duration": 6, "velocity": 102}, {"time": 2209, "pitch": 77, "duration": 5, "velocity": 92}, {"time": 2215, "pitch": 75, "duration": 13, "velocity": 99}, {"time": 2221, "pitch": 77, "duration": 2, "velocity": 102}, {"time": 2224, "pitch": 79, "duration": 3, "velocity": 99}, {"time": 2227, "pitch": 75, "duration": 1, "velocity": 99}, {"time": 2230, "pitch": 75, "duration": 3, "velocity": 90}, {"time": 2230, "pitch": 77, "duration": 3, "velocity": 96}, {"time": 2233, "pitch": 72, "duration": 3, "velocity": 100}, {"time": 2236, "pitch": 75, "duration": 2, "velocity": 92}, {"time": 2239, "pitch": 70, "duration": 12, "velocity": 95}, {"time": 2419, "pitch": 82, "duration": 4, "velocity": 112}, {"time": 2425, "pitch": 79, "duration": 6, "velocity": 96}, {"time": 2431, "pitch": 77, "duration": 5, "velocity": 85}, {"time": 2437, "pitch": 79, "duration": 5, "velocity": 99}, {"time": 2443, "pitch": 74, "duration": 3, "velocity": 100}, {"time": 2446, "pitch": 72, "duration": 2, "velocity": 72}, {"time": 2449, "pitch": 70, "duration": 6, "velocity": 85}, {"time": 2455, "pitch": 72, "duration": 23, "velocity": 89}, {"time": 2605, "pitch": 63, "duration": 5, "velocity": 100}, {"time": 2611, "pitch": 65, "duration": 6, "velocity": 89}, {"time": 2617, "pitch": 72, "duration": 5, "velocity": 95}, {"time": 2620, "pitch": 70, "duration": 13, "velocity": 102}, {"time": 2635, "pitch": 77, "duration": 3, "velocity": 92}, {"time": 2638, "pitch": 79, "duration": 3, "velocity": 92}, {"time": 2641, "pitch": 82, "duration": 3, "velocity": 85}, {"time": 2644, "pitch": 79, "duration": 2, "velocity": 96}, {"time": 2647, "pitch": 84, "duration": 7, "velocity": 90}, {"time": 2798, "pitch": 84, "duration": 3, "velocity": 40}, {"time": 2799, "pitch": 82, "duration": 2, "velocity": 79}, {"time": 2800, "pitch": 80, "duration": 2, "velocity": 73}, {"time": 2802, "pitch": 77, "duration": 9, "velocity": 85}, {"time": 2809, "pitch": 79, "duration": 5, "velocity": 127}, {"time": 2815, "pitch": 74, "duration": 10, "velocity": 97}, {"time": 2821, "pitch": 77, "duration": 6, "velocity": 102}, {"time": 2827, "pitch": 74, "duration": 6, "velocity": 96}, {"time": 2833, "pitch": 72, "duration": 5, "velocity": 83}, {"time": 2839, "pitch": 70, "duration": 20, "velocity": 93}, {"time": 2917, "pitch": 60, "duration": 5, "velocity": 102}, {"time": 2923, "pitch": 65, "duration": 3, "velocity": 99}, {"time": 2926, "pitch": 67, "duration": 3, "velocity": 95}, {"time": 2929, "pitch": 63, "duration": 3, "velocity": 95}, {"time": 2932, "pitch": 60, "duration": 2, "velocity": 77}, {"time": 2935, "pitch": 58, "duration": 21, "velocity": 88}, {"time": 3001, "pitch": 70, "duration": 5, "velocity": 95}, {"time": 3007, "pitch": 75, "duration": 5, "velocity": 112}, {"time": 3013, "pitch": 77, "duration": 6, "velocity": 102}, {"time": 3019, "pitch": 75, "duration": 5, "velocity": 107}, {"time": 3025, "pitch": 70, "duration": 6, "velocity": 93}, {"time": 3031, "pitch": 72, "duration": 22, "velocity": 95}, {"time": 3055, "pitch": 79, "duration": 2, "velocity": 117}, {"time": 3061, "pitch": 79, "duration": 4, "velocity": 112}, {"time": 3067, "pitch": 70, "duration": 6, "velocity": 96}, {"time": 3073, "pitch": 67, "duration": 7, "velocity": 92}, {"time": 3079, "pitch": 65, "duration": 23, "velocity": 78}, {"time": 3133, "pitch": 58, "duration": 6, "velocity": 93}, {"time": 3139, "pitch": 60, "duration": 5, "velocity": 89}, {"time": 3145, "pitch": 67, "duration": 6, "velocity": 96}, {"time": 3151, "pitch": 65, "duration": 13, "velocity": 100}, {"time": 3163, "pitch": 70, "duration": 3, "velocity": 90}, {"time": 3166, "pitch": 72, "duration": 4, "velocity": 86}, {"time": 3169, "pitch": 75, "duration": 4, "velocity": 97}, {"time": 3172, "pitch": 77, "duration": 3, "velocity": 90}, {"time": 3175, "pitch": 82, "duration": 28, "velocity": 122}, {"time": 3211, "pitch": 82, "duration": 6, "velocity": 112}, {"time": 3217, "pitch": 79, "duration": 6, "velocity": 93}, {"time": 3223, "pitch": 77, "duration": 24, "velocity": 82}, {"time": 3241, "pitch": 75, "duration": 5, "velocity": 102}, {"time": 3247, "pitch": 72, "duration": 10, "velocity": 96}, {"time": 3259, "pitch": 75, "duration": 11, "velocity": 97}, {"time": 3271, "pitch": 77, "duration": 30, "velocity": 99}, {"time": 3397, "pitch": 74, "duration": 5, "velocity": 112}, {"time": 3403, "pitch": 75, "duration": 6, "velocity": 99}, {"time": 3409, "pitch": 77, "duration": 6, "velocity": 88}, {"time": 3415, "pitch": 79, "duration": 29, "velocity": 99}, {"time": 3559, "pitch": 75, "duration": 5, "velocity": 107}, {"time": 3565, "pitch": 77, "duration": 4, "velocity": 89}, {"time": 3571, "pitch": 79, "duration": 4, "velocity": 112}, {"time": 3577, "pitch": 82, "duration": 6, "velocity": 96}, {"time": 3583, "pitch": 77, "duration": 5, "velocity": 100}, {"time": 3589, "pitch": 79, "duration": 6, "velocity": 99}, {"time": 3595, "pitch": 75, "duration": 5, "velocity": 95}, {"time": 3601, "pitch": 77, "duration": 5, "velocity": 99}, {"time": 3607, "pitch": 72, "duration": 12, "velocity": 96}, {"time": 3613, "pitch": 75, "duration": 5, "velocity": 95}, {"time": 3619, "pitch": 70, "duration": 6, "velocity": 95}, {"time": 3625, "pitch": 72, "duration": 6, "velocity": 93}, {"time": 3631, "pitch": 67, "duration": 12, "velocity": 97}, {"time": 3649, "pitch": 70, "duration": 6, "velocity": 97}, {"time": 3655, "pitch": 72, "duration": 7, "velocity": 99}, {"time": 3664, "pitch": 75, "duration": 9, "velocity": 100}, {"time": 3673, "pitch": 77, "duration": 5, "velocity": 96}, {"time": 3679, "pitch": 79, "duration": 10, "velocity": 100}, {"time": 3688, "pitch": 77, "duration": 9, "velocity": 112}, {"time": 3697, "pitch": 75, "duration": 9, "velocity": 96}, {"time": 3707, "pitch": 72, "duration": 11, "velocity": 96}]}, {"program": 0, "is_drum": false, "name": "PIANO", "notes": [{"time": 7, "pitch": 39, "duration": 36, "velocity": 78}, {"time": 13, "pitch": 46, "duration": 30, "velocity": 53}, {"time": 19, "pitch": 51, "duration": 27, "velocity": 81}, {"time": 25, "pitch": 58, "duration": 19, "velocity": 67}, {"time": 31, "pitch": 67, "duration": 25, "velocity": 96}, {"time": 43, "pitch": 63, "duration": 14, "velocity": 59}, {"time": 55, "pitch": 48, "duration": 35, "velocity": 76}, {"time": 61, "pitch": 60, "duration": 20, "velocity": 77}, {"time": 73, "pitch": 55, "duration": 8, "velocity": 64}, {"time": 79, "pitch": 67, "duration": 21, "velocity": 99}, {"time": 85, "pitch": 55, "duration": 3, "velocity": 66}, {"time": 91, "pitch": 63, "duration": 13, "velocity": 77}, {"time": 97, "pitch": 60, "duration": 19, "velocity": 57}, {"time": 103, "pitch": 44, "duration": 33, "velocity": 63}, {"time": 109, "pitch": 51, "duration": 26, "velocity": 47}, {"time": 115, "pitch": 56, "duration": 15, "velocity": 58}, {"time": 121, "pitch": 60, "duration": 15, "velocity": 74}, {"time": 127, "pitch": 68, "duration": 24, "velocity": 95}, {"time": 133, "pitch": 56, "duration": 2, "velocity": 79}, {"time": 139, "pitch": 63, "duration": 11, "velocity": 61}, {"time": 145, "pitch": 60, "duration": 7, "velocity": 61}, {"time": 151, "pitch": 43, "duration": 37, "velocity": 69}, {"time": 157, "pitch": 50, "duration": 28, "velocity": 27}, {"time": 163, "pitch": 55, "duration": 15, "velocity": 61}, {"time": 169, "pitch": 58, "duration": 19, "velocity": 74}, {"time": 175, "pitch": 67, "duration": 24, "velocity": 99}, {"time": 181, "pitch": 55, "duration": 5, "velocity": 76}, {"time": 187, "pitch": 62, "duration": 8, "velocity": 100}, {"time": 193, "pitch": 58, "duration": 7, "velocity": 82}, {"time": 199, "pitch": 39, "duration": 16, "velocity": 76}, {"time": 205, "pitch": 46, "duration": 10, "velocity": 58}, {"time": 211, "pitch": 51, "duration": 11, "velocity": 89}, {"time": 214, "pitch": 58, "duration": 4, "velocity": 26}, {"time": 217, "pitch": 67, "duration": 7, "velocity": 95}, {"time": 223, "pitch": 44, "duration": 14, "velocity": 72}, {"time": 229, "pitch": 51, "duration": 8, "velocity": 50}, {"time": 235, "pitch": 63, "duration": 12, "velocity": 90}, {"time": 241, "pitch": 60, "duration": 6, "velocity": 69}, {"time": 247, "pitch": 39, "duration": 14, "velocity": 66}, {"time": 253, "pitch": 46, "duration": 9, "velocity": 45}, {"time": 259, "pitch": 51, "duration": 10, "velocity": 49}, {"time": 259, "pitch": 67, "duration": 12, "velocity": 89}, {"time": 265, "pitch": 63, "duration": 6, "velocity": 59}, {"time": 271, "pitch": 46, "duration": 14, "velocity": 68}, {"time": 277, "pitch": 53, "duration": 7, "velocity": 59}, {"time": 283, "pitch": 65, "duration": 12, "velocity": 77}, {"time": 289, "pitch": 62, "duration": 8, "velocity": 78}, {"time": 295, "pitch": 43, "duration": 15, "velocity": 47}, {"time": 301, "pitch": 50, "duration": 8, "velocity": 34}, {"time": 307, "pitch": 55, "duration": 6, "velocity": 56}, {"time": 307, "pitch": 62, "duration": 13, "velocity": 59}, {"time": 307, "pitch": 67, "duration": 15, "velocity": 56}, {"time": 313, "pitch": 58, "duration": 7, "velocity": 73}, {"time": 319, "pitch": 48, "duration": 16, "velocity": 71}, {"time": 325, "pitch": 55, "duration": 7, "velocity": 63}, {"time": 331, "pitch": 67, "duration": 10, "velocity": 95}, {"time": 337, "pitch": 60, "duration": 6, "velocity": 81}, {"time": 343, "pitch": 46, "duration": 14, "velocity": 74}, {"time": 349, "pitch": 53, "duration": 7, "velocity": 48}, {"time": 355, "pitch": 65, "duration": 12, "velocity": 88}, {"time": 361, "pitch": 62, "duration": 6, "velocity": 67}, {"time": 367, "pitch": 39, "duration": 20, "velocity": 72}, {"time": 373, "pitch": 46, "duration": 17, "velocity": 46}, {"time": 379, "pitch": 51, "duration": 5, "velocity": 88}, {"time": 379, "pitch": 67, "duration": 12, "velocity": 93}, {"time": 385, "pitch": 63, "duration": 6, "velocity": 68}, {"time": 391, "pitch": 41, "duration": 12, "velocity": 56}, {"time": 391, "pitch": 48, "duration": 12, "velocity": 62}, {"time": 391, "pitch": 53, "duration": 15, "velocity": 63}, {"time": 391, "pitch": 60, "duration": 14, "velocity": 76}, {"time": 391, "pitch": 65, "duration": 12, "velocity": 79}, {"time": 391, "pitch": 68, "duration": 12, "velocity": 74}, {"time": 415, "pitch": 46, "duration": 15, "velocity": 64}, {"time": 415, "pitch": 53, "duration": 14, "velocity": 65}, {"time": 415, "pitch": 58, "duration": 21, "velocity": 79}, {"time": 415, "pitch": 62, "duration": 17, "velocity": 83}, {"time": 415, "pitch": 65, "duration": 17, "velocity": 72}, {"time": 439, "pitch": 39, "duration": 38, "velocity": 72}, {"time": 439, "pitch": 58, "duration": 15, "velocity": 70}, {"time": 439, "pitch": 63, "duration": 18, "velocity": 81}, {"time": 439, "pitch": 67, "duration": 19, "velocity": 77}, {"time": 445, "pitch": 46, "duration": 41, "velocity": 49}, {"time": 451, "pitch": 51, "duration": 13, "velocity": 63}, {"time": 457, "pitch": 58, "duration": 7, "velocity": 74}, {"time": 463, "pitch": 67, "duration": 13, "velocity": 97}, {"time": 469, "pitch": 51, "duration": 6, "velocity": 70}, {"time": 475, "pitch": 65, "duration": 12, "velocity": 82}, {"time": 487, "pitch": 39, "duration": 36, "velocity": 63}, {"time": 493, "pitch": 46, "duration": 29, "velocity": 36}, {"time": 499, "pitch": 51, "duration": 15, "velocity": 50}, {"time": 505, "pitch": 58, "duration": 13, "velocity": 74}, {"time": 511, "pitch": 67, "duration": 21, "velocity": 97}, {"time": 517, "pitch": 51, "duration": 9, "velocity": 67}, {"time": 523, "pitch": 63, "duration": 15, "velocity": 83}, {"time": 529, "pitch": 58, "duration": 6, "velocity": 72}, {"time": 535, "pitch": 44, "duration": 13, "velocity": 78}, {"time": 541, "pitch": 51, "duration": 6, "velocity": 39}, {"time": 547, "pitch": 63, "duration": 7, "velocity": 78}, {"time": 553, "pitch": 60, "duration": 7, "velocity": 73}, {"time": 559, "pitch": 43, "duration": 14, "velocity": 59}, {"time": 565, "pitch": 50, "duration": 9, "velocity": 59}, {"time": 571, "pitch": 62, "duration": 8, "velocity": 93}, {"time": 577, "pitch": 58, "duration": 7, "velocity": 82}, {"time": 583, "pitch": 48, "duration": 14, "velocity": 66}, {"time": 589, "pitch": 55, "duration": 7, "velocity": 41}, {"time": 595, "pitch": 67, "duration": 14, "velocity": 96}, {"time": 601, "pitch": 60, "duration": 7, "velocity": 82}, {"time": 607, "pitch": 39, "duration": 16, "velocity": 66}, {"time": 613, "pitch": 46, "duration": 10, "velocity": 51}, {"time": 619, "pitch": 51, "duration": 7, "velocity": 70}, {"time": 619, "pitch": 67, "duration": 11, "velocity": 92}, {"time": 622, "pitch": 63, "duration": 6, "velocity": 64}, {"time": 631, "pitch": 46, "duration": 40, "velocity": 72}, {"time": 637, "pitch": 53, "duration": 21, "velocity": 68}, {"time": 643, "pitch": 58, "duration": 14, "velocity": 81}, {"time": 649, "pitch": 62, "duration": 6, "velocity": 78}, {"time": 655, "pitch": 65, "duration": 23, "velocity": 81}, {"time": 661, "pitch": 53, "duration": 16, "velocity": 62}, {"time": 667, "pitch": 62, "duration": 12, "velocity": 96}, {"time": 673, "pitch": 58, "duration": 6, "velocity": 86}, {"time": 679, "pitch": 48, "duration": 22, "velocity": 67}, {"time": 685, "pitch": 55, "duration": 18, "velocity": 76}, {"time": 691, "pitch": 67, "duration": 22, "velocity": 92}, {"time": 697, "pitch": 63, "duration": 15, "velocity": 60}, {"time": 703, "pitch": 48, "duration": 16, "velocity": 62}, {"time": 709, "pitch": 55, "duration": 7, "velocity": 72}, {"time": 715, "pitch": 63, "duration": 13, "velocity": 83}, {"time": 715, "pitch": 67, "duration": 13, "velocity": 72}, {"time": 721, "pitch": 60, "duration": 7, "velocity": 70}, {"time": 727, "pitch": 46, "duration": 14, "velocity": 72}, {"time": 733, "pitch": 53, "duration": 7, "velocity": 38}, {"time": 739, "pitch": 65, "duration": 14, "velocity": 88}, {"time": 745, "pitch": 62, "duration": 6, "velocity": 68}, {"time": 748, "pitch": 58, "duration": 5, "velocity": 78}, {"time": 751, "pitch": 39, "duration": 18, "velocity": 65}, {"time": 757, "pitch": 46, "duration": 17, "velocity": 46}, {"time": 763, "pitch": 51, "duration": 6, "velocity": 59}, {"time": 763, "pitch": 67, "duration": 12, "velocity": 96}, {"time": 769, "pitch": 63, "duration": 7, "velocity": 77}, {"time": 775, "pitch": 41, "duration": 14, "velocity": 69}, {"time": 781, "pitch": 48, "duration": 9, "velocity": 48}, {"time": 787, "pitch": 53, "duration": 6, "velocity": 63}, {"time": 787, "pitch": 68, "duration": 11, "velocity": 78}, {"time": 793, "pitch": 65, "duration": 5, "velocity": 74}, {"time": 799, "pitch": 43, "duration": 16, "velocity": 57}, {"time": 805, "pitch": 50, "duration": 10, "velocity": 40}, {"time": 811, "pitch": 55, "duration": 5, "velocity": 55}, {"time": 811, "pitch": 62, "duration": 13, "velocity": 89}, {"time": 823, "pitch": 46, "duration": 45, "velocity": 71}, {"time": 829, "pitch": 53, "duration": 21, "velocity": 72}, {"time": 835, "pitch": 58, "duration": 14, "velocity": 77}, {"time": 841, "pitch": 62, "duration": 5, "velocity": 88}, {"time": 847, "pitch": 65, "duration": 21, "velocity": 89}, {"time": 853, "pitch": 53, "duration": 18, "velocity": 58}, {"time": 859, "pitch": 62, "duration": 8, "velocity": 107}, {"time": 865, "pitch": 58, "duration": 4, "velocity": 81}, {"time": 871, "pitch": 48, "duration": 12, "velocity": 82}, {"time": 877, "pitch": 55, "duration": 5, "velocity": 44}, {"time": 883, "pitch": 63, "duration": 8, "velocity": 82}, {"time": 883, "pitch": 67, "duration": 11, "velocity": 90}, {"time": 889, "pitch": 60, "duration": 6, "velocity": 58}, {"time": 895, "pitch": 43, "duration": 17, "velocity": 83}, {"time": 901, "pitch": 55, "duration": 9, "velocity": 64}, {"time": 907, "pitch": 58, "duration": 12, "velocity": 79}, {"time": 907, "pitch": 62, "duration": 10, "velocity": 86}, {"time": 919, "pitch": 39, "duration": 12, "velocity": 77}, {"time": 925, "pitch": 46, "duration": 6, "velocity": 52}, {"time": 931, "pitch": 63, "duration": 15, "velocity": 92}, {"time": 931, "pitch": 67, "duration": 14, "velocity": 97}, {"time": 937, "pitch": 58, "duration": 7, "velocity": 72}, {"time": 943, "pitch": 48, "duration": 14, "velocity": 66}, {"time": 949, "pitch": 55, "duration": 6, "velocity": 74}, {"time": 955, "pitch": 63, "duration": 14, "velocity": 93}, {"time": 961, "pitch": 60, "duration": 12, "velocity": 82}, {"time": 967, "pitch": 41, "duration": 18, "velocity": 82}, {"time": 973, "pitch": 48, "duration": 12, "velocity": 55}, {"time": 979, "pitch": 53, "duration": 10, "velocity": 76}, {"time": 979, "pitch": 68, "duration": 12, "velocity": 89}, {"time": 985, "pitch": 60, "duration": 7, "velocity": 88}, {"time": 991, "pitch": 48, "duration": 21, "velocity": 77}, {"time": 997, "pitch": 60, "duration": 8, "velocity": 82}, {"time": 1003, "pitch": 67, "duration": 12, "velocity": 97}, {"time": 1009, "pitch": 60, "duration": 6, "velocity": 85}, {"time": 1015, "pitch": 46, "duration": 35, "velocity": 77}, {"time": 1021, "pitch": 53, "duration": 20, "velocity": 69}, {"time": 1027, "pitch": 58, "duration": 20, "velocity": 86}, {"time": 1033, "pitch": 62, "duration": 7, "velocity": 86}, {"time": 1039, "pitch": 65, "duration": 25, "velocity": 96}, {"time": 1045, "pitch": 53, "duration": 4, "velocity": 66}, {"time": 1051, "pitch": 62, "duration": 12, "velocity": 99}, {"time": 1057, "pitch": 58, "duration": 8, "velocity": 81}, {"time": 1063, "pitch": 39, "duration": 22, "velocity": 75}, {"time": 1069, "pitch": 46, "duration": 18, "velocity": 38}, {"time": 1075, "pitch": 51, "duration": 18, "velocity": 65}, {"time": 1075, "pitch": 67, "duration": 36, "velocity": 96}, {"time": 1081, "pitch": 63, "duration": 30, "velocity": 63}, {"time": 1087, "pitch": 39, "duration": 19, "velocity": 71}, {"time": 1093, "pitch": 46, "duration": 17, "velocity": 48}, {"time": 1099, "pitch": 51, "duration": 4, "velocity": 86}, {"time": 1105, "pitch": 58, "duration": 7, "velocity": 81}, {"time": 1111, "pitch": 41, "duration": 16, "velocity": 68}, {"time": 1117, "pitch": 48, "duration": 10, "velocity": 56}, {"time": 1123, "pitch": 53, "duration": 12, "velocity": 77}, {"time": 1123, "pitch": 68, "duration": 14, "velocity": 93}, {"time": 1129, "pitch": 65, "duration": 7, "velocity": 78}, {"time": 1132, "pitch": 60, "duration": 2, "velocity": 40}, {"time": 1135, "pitch": 44, "duration": 21, "velocity": 69}, {"time": 1141, "pitch": 51, "duration": 7, "velocity": 53}, {"time": 1147, "pitch": 63, "duration": 12, "velocity": 88}, {"time": 1150, "pitch": 51, "duration": 8, "velocity": 58}, {"time": 1153, "pitch": 60, "duration": 5, "velocity": 83}, {"time": 1156, "pitch": 56, "duration": 3, "velocity": 75}, {"time": 1159, "pitch": 46, "duration": 21, "velocity": 74}, {"time": 1165, "pitch": 53, "duration": 18, "velocity": 56}, {"time": 1171, "pitch": 65, "duration": 22, "velocity": 97}, {"time": 1177, "pitch": 62, "duration": 16, "velocity": 72}, {"time": 1183, "pitch": 46, "duration": 16, "velocity": 72}, {"time": 1189, "pitch": 53, "duration": 8, "velocity": 53}, {"time": 1195, "pitch": 62, "duration": 11, "velocity": 97}, {"time": 1195, "pitch": 65, "duration": 12, "velocity": 88}, {"time": 1201, "pitch": 58, "duration": 6, "velocity": 85}, {"time": 1207, "pitch": 39, "duration": 9, "velocity": 88}, {"time": 1210, "pitch": 46, "duration": 9, "velocity": 82}, {"time": 1213, "pitch": 51, "duration": 8, "velocity": 74}, {"time": 1216, "pitch": 58, "duration": 5, "velocity": 81}, {"time": 1219, "pitch": 67, "duration": 4, "velocity": 102}, {"time": 1222, "pitch": 63, "duration": 2, "velocity": 55}, {"time": 1225, "pitch": 51, "duration": 21, "velocity": 88}, {"time": 1228, "pitch": 55, "duration": 17, "velocity": 97}, {"time": 1231, "pitch": 58, "duration": 8, "velocity": 86}, {"time": 1234, "pitch": 63, "duration": 4, "velocity": 92}, {"time": 1237, "pitch": 70, "duration": 6, "velocity": 99}, {"time": 1240, "pitch": 67, "duration": 4, "velocity": 99}, {"time": 1243, "pitch": 58, "duration": 2, "velocity": 72}, {"time": 1243, "pitch": 63, "duration": 3, "velocity": 96}, {"time": 1246, "pitch": 62, "duration": 3, "velocity": 112}, {"time": 1249, "pitch": 63, "duration": 4, "velocity": 81}, {"time": 1252, "pitch": 62, "duration": 2, "velocity": 107}, {"time": 1255, "pitch": 48, "duration": 9, "velocity": 69}, {"time": 1255, "pitch": 60, "duration": 8, "velocity": 85}, {"time": 1255, "pitch": 63, "duration": 8, "velocity": 92}, {"time": 1255, "pitch": 67, "duration": 8, "velocity": 90}, {"time": 1279, "pitch": 43, "duration": 2, "velocity": 71}, {"time": 1279, "pitch": 55, "duration": 2, "velocity": 72}, {"time": 1279, "pitch": 58, "duration": 3, "velocity": 85}, {"time": 1279, "pitch": 62, "duration": 3, "velocity": 97}, {"time": 1279, "pitch": 67, "duration": 2, "velocity": 85}, {"time": 1285, "pitch": 43, "duration": 9, "velocity": 58}, {"time": 1285, "pitch": 55, "duration": 8, "velocity": 76}, {"time": 1285, "pitch": 58, "duration": 9, "velocity": 82}, {"time": 1285, "pitch": 62, "duration": 9, "velocity": 95}, {"time": 1285, "pitch": 67, "duration": 9, "velocity": 89}, {"time": 1303, "pitch": 41, "duration": 22, "velocity": 69}, {"time": 1309, "pitch": 48, "duration": 18, "velocity": 51}, {"time": 1312, "pitch": 53, "duration": 4, "velocity": 69}, {"time": 1315, "pitch": 68, "duration": 12, "velocity": 90}, {"time": 1318, "pitch": 53, "duration": 4, "velocity": 66}, {"time": 1321, "pitch": 65, "duration": 6, "velocity": 81}, {"time": 1324, "pitch": 60, "duration": 3, "velocity": 78}, {"time": 1327, "pitch": 48, "duration": 15, "velocity": 92}, {"time": 1333, "pitch": 55, "duration": 6, "velocity": 60}, {"time": 1339, "pitch": 63, "duration": 11, "velocity": 90}, {"time": 1339, "pitch": 67, "duration": 9, "velocity": 96}, {"time": 1345, "pitch": 60, "duration": 6, "velocity": 70}, {"time": 1351, "pitch": 41, "duration": 18, "velocity": 71}, {"time": 1357, "pitch": 48, "duration": 13, "velocity": 43}, {"time": 1363, "pitch": 53, "duration": 11, "velocity": 77}, {"time": 1363, "pitch": 65, "duration": 11, "velocity": 97}, {"time": 1369, "pitch": 60, "duration": 6, "velocity": 83}, {"time": 1375, "pitch": 46, "duration": 18, "velocity": 67}, {"time": 1381, "pitch": 53, "duration": 7, "velocity": 69}, {"time": 1387, "pitch": 65, "duration": 10, "velocity": 102}, {"time": 1390, "pitch": 53, "duration": 2, "velocity": 56}, {"time": 1393, "pitch": 62, "duration": 4, "velocity": 97}, {"time": 1396, "pitch": 58, "duration": 5, "velocity": 89}, {"time": 1399, "pitch": 39, "duration": 19, "velocity": 72}, {"time": 1405, "pitch": 51, "duration": 7, "velocity": 82}, {"time": 1408, "pitch": 58, "duration": 5, "velocity": 92}, {"time": 1411, "pitch": 51, "duration": 1, "velocity": 66}, {"time": 1411, "pitch": 58, "duration": 2, "velocity": 95}, {"time": 1411, "pitch": 67, "duration": 15, "velocity": 100}, {"time": 1417, "pitch": 63, "duration": 8, "velocity": 63}, {"time": 1420, "pitch": 58, "duration": 6, "velocity": 83}, {"time": 1423, "pitch": 39, "duration": 17, "velocity": 59}, {"time": 1429, "pitch": 51, "duration": 7, "velocity": 69}, {"time": 1432, "pitch": 58, "duration": 5, "velocity": 83}, {"time": 1435, "pitch": 63, "duration": 5, "velocity": 78}, {"time": 1435, "pitch": 67, "duration": 10, "velocity": 100}, {"time": 1435, "pitch": 56, "duration": 19, "velocity": 45}, {"time": 1444, "pitch": 58, "duration": 4, "velocity": 83}, {"time": 1447, "pitch": 41, "duration": 16, "velocity": 64}, {"time": 1453, "pitch": 53, "duration": 7, "velocity": 81}, {"time": 1456, "pitch": 60, "duration": 2, "velocity": 81}, {"time": 1459, "pitch": 60, "duration": 13, "velocity": 62}, {"time": 1459, "pitch": 68, "duration": 11, "velocity": 92}, {"time": 1459, "pitch": 65, "duration": 3, "velocity": 63}, {"time": 1465, "pitch": 65, "duration": 4, "velocity": 82}, {"time": 1471, "pitch": 48, "duration": 19, "velocity": 71}, {"time": 1477, "pitch": 60, "duration": 7, "velocity": 70}, {"time": 1483, "pitch": 67, "duration": 10, "velocity": 96}, {"time": 1483, "pitch": 60, "duration": 1, "velocity": 77}, {"time": 1483, "pitch": 63, "duration": 4, "velocity": 78}, {"time": 1489, "pitch": 55, "duration": 3, "velocity": 78}, {"time": 1492, "pitch": 60, "duration": 3, "velocity": 83}, {"time": 1495, "pitch": 46, "duration": 21, "velocity": 70}, {"time": 1501, "pitch": 58, "duration": 5, "velocity": 74}, {"time": 1507, "pitch": 58, "duration": 9, "velocity": 48}, {"time": 1507, "pitch": 62, "duration": 2, "velocity": 88}, {"time": 1507, "pitch": 65, "duration": 12, "velocity": 81}, {"time": 1516, "pitch": 46, "duration": 1, "velocity": 59}, {"time": 1516, "pitch": 58, "duration": 1, "velocity": 85}, {"time": 1519, "pitch": 53, "duration": 10, "velocity": 69}, {"time": 1525, "pitch": 58, "duration": 3, "velocity": 76}, {"time": 1528, "pitch": 62, "duration": 2, "velocity": 89}, {"time": 1531, "pitch": 65, "duration": 10, "velocity": 85}, {"time": 1534, "pitch": 62, "duration": 3, "velocity": 88}, {"time": 1537, "pitch": 58, "duration": 6, "velocity": 86}, {"time": 1540, "pitch": 62, "duration": 2, "velocity": 81}, {"time": 1543, "pitch": 39, "duration": 17, "velocity": 66}, {"time": 1549, "pitch": 51, "duration": 7, "velocity": 58}, {"time": 1555, "pitch": 67, "duration": 12, "velocity": 92}, {"time": 1555, "pitch": 63, "duration": 3, "velocity": 58}, {"time": 1555, "pitch": 58, "duration": 13, "velocity": 45}, {"time": 1561, "pitch": 63, "duration": 5, "velocity": 70}, {"time": 1567, "pitch": 48, "duration": 17, "velocity": 63}, {"time": 1573, "pitch": 60, "duration": 4, "velocity": 74}, {"time": 1579, "pitch": 63, "duration": 2, "velocity": 56}, {"time": 1579, "pitch": 67, "duration": 10, "velocity": 102}, {"time": 1579, "pitch": 55, "duration": 10, "velocity": 73}, {"time": 1585, "pitch": 63, "duration": 4, "velocity": 81}, {"time": 1588, "pitch": 60, "duration": 3, "velocity": 81}, {"time": 1591, "pitch": 39, "duration": 16, "velocity": 65}, {"time": 1597, "pitch": 51, "duration": 6, "velocity": 58}, {"time": 1603, "pitch": 67, "duration": 10, "velocity": 100}, {"time": 1603, "pitch": 63, "duration": 4, "velocity": 86}, {"time": 1603, "pitch": 58, "duration": 13, "velocity": 64}, {"time": 1612, "pitch": 58, "duration": 4, "velocity": 77}, {"time": 1615, "pitch": 46, "duration": 19, "velocity": 59}, {"time": 1621, "pitch": 58, "duration": 3, "velocity": 67}, {"time": 1627, "pitch": 53, "duration": 10, "velocity": 44}, {"time": 1627, "pitch": 62, "duration": 4, "velocity": 73}, {"time": 1627, "pitch": 65, "duration": 13, "velocity": 66}, {"time": 1636, "pitch": 58, "duration": 4, "velocity": 73}, {"time": 1639, "pitch": 39, "duration": 16, "velocity": 58}, {"time": 1645, "pitch": 51, "duration": 7, "velocity": 71}, {"time": 1651, "pitch": 63, "duration": 4, "velocity": 77}, {"time": 1651, "pitch": 67, "duration": 9, "velocity": 99}, {"time": 1651, "pitch": 58, "duration": 12, "velocity": 72}, {"time": 1654, "pitch": 51, "duration": 7, "velocity": 85}, {"time": 1660, "pitch": 58, "duration": 3, "velocity": 82}, {"time": 1663, "pitch": 44, "duration": 18, "velocity": 67}, {"time": 1669, "pitch": 56, "duration": 5, "velocity": 85}, {"time": 1675, "pitch": 51, "duration": 5, "velocity": 60}, {"time": 1675, "pitch": 60, "duration": 2, "velocity": 75}, {"time": 1675, "pitch": 63, "duration": 10, "velocity": 92}, {"time": 1678, "pitch": 51, "duration": 2, "velocity": 50}, {"time": 1681, "pitch": 60, "duration": 4, "velocity": 77}, {"time": 1684, "pitch": 56, "duration": 3, "velocity": 88}, {"time": 1687, "pitch": 46, "duration": 14, "velocity": 86}, {"time": 1696, "pitch": 58, "duration": 2, "velocity": 70}, {"time": 1699, "pitch": 65, "duration": 11, "velocity": 93}, {"time": 1699, "pitch": 53, "duration": 7, "velocity": 71}, {"time": 1705, "pitch": 62, "duration": 5, "velocity": 92}, {"time": 1708, "pitch": 58, "duration": 5, "velocity": 79}, {"time": 1711, "pitch": 39, "duration": 18, "velocity": 74}, {"time": 1717, "pitch": 51, "duration": 6, "velocity": 76}, {"time": 1723, "pitch": 58, "duration": 12, "velocity": 59}, {"time": 1723, "pitch": 67, "duration": 10, "velocity": 112}, {"time": 1723, "pitch": 63, "duration": 5, "velocity": 90}, {"time": 1726, "pitch": 51, "duration": 3, "velocity": 83}, {"time": 1732, "pitch": 58, "duration": 3, "velocity": 85}, {"time": 1735, "pitch": 41, "duration": 10, "velocity": 53}, {"time": 1735, "pitch": 48, "duration": 10, "velocity": 58}, {"time": 1735, "pitch": 53, "duration": 9, "velocity": 60}, {"time": 1735, "pitch": 60, "duration": 12, "velocity": 88}, {"time": 1735, "pitch": 65, "duration": 12, "velocity": 83}, {"time": 1735, "pitch": 68, "duration": 12, "velocity": 76}, {"time": 1759, "pitch": 46, "duration": 12, "velocity": 81}, {"time": 1759, "pitch": 58, "duration": 11, "velocity": 79}, {"time": 1759, "pitch": 62, "duration": 24, "velocity": 93}, {"time": 1759, "pitch": 65, "duration": 25, "velocity": 83}, {"time": 1771, "pitch": 58, "duration": 12, "velocity": 33}, {"time": 1783, "pitch": 39, "duration": 22, "velocity": 82}, {"time": 1786, "pitch": 46, "duration": 20, "velocity": 72}, {"time": 1789, "pitch": 51, "duration": 6, "velocity": 69}, {"time": 1792, "pitch": 58, "duration": 5, "velocity": 60}, {"time": 1795, "pitch": 67, "duration": 23, "velocity": 95}, {"time": 1798, "pitch": 51, "duration": 30, "velocity": 56}, {"time": 1801, "pitch": 63, "duration": 17, "velocity": 60}, {"time": 1804, "pitch": 58, "duration": 15, "velocity": 52}, {"time": 1807, "pitch": 39, "duration": 18, "velocity": 60}, {"time": 1813, "pitch": 46, "duration": 11, "velocity": 42}, {"time": 1819, "pitch": 58, "duration": 4, "velocity": 33}, {"time": 1819, "pitch": 67, "duration": 16, "velocity": 96}, {"time": 1825, "pitch": 63, "duration": 10, "velocity": 63}, {"time": 1831, "pitch": 48, "duration": 23, "velocity": 72}, {"time": 1837, "pitch": 55, "duration": 18, "velocity": 55}, {"time": 1843, "pitch": 67, "duration": 21, "velocity": 96}, {"time": 1849, "pitch": 63, "duration": 16, "velocity": 63}, {"time": 1855, "pitch": 48, "duration": 14, "velocity": 70}, {"time": 1861, "pitch": 55, "duration": 6, "velocity": 53}, {"time": 1867, "pitch": 67, "duration": 10, "velocity": 96}, {"time": 1873, "pitch": 63, "duration": 11, "velocity": 59}, {"time": 1879, "pitch": 44, "duration": 22, "velocity": 63}, {"time": 1885, "pitch": 51, "duration": 18, "velocity": 42}, {"time": 1891, "pitch": 68, "duration": 24, "velocity": 86}, {"time": 1897, "pitch": 63, "duration": 19, "velocity": 71}, {"time": 1903, "pitch": 44, "duration": 14, "velocity": 64}, {"time": 1909, "pitch": 51, "duration": 6, "velocity": 58}, {"time": 1915, "pitch": 60, "duration": 13, "velocity": 83}, {"time": 1921, "pitch": 68, "duration": 7, "velocity": 95}, {"time": 1927, "pitch": 41, "duration": 16, "velocity": 71}, {"time": 1933, "pitch": 48, "duration": 10, "velocity": 34}, {"time": 1939, "pitch": 53, "duration": 11, "velocity": 90}, {"time": 1945, "pitch": 60, "duration": 7, "velocity": 81}, {"time": 1951, "pitch": 46, "duration": 24, "velocity": 72}, {"time": 1957, "pitch": 53, "duration": 17, "velocity": 47}, {"time": 1963, "pitch": 65, "duration": 12, "velocity": 93}, {"time": 1969, "pitch": 62, "duration": 5, "velocity": 72}, {"time": 1975, "pitch": 39, "duration": 16, "velocity": 76}, {"time": 1981, "pitch": 46, "duration": 10, "velocity": 58}, {"time": 1987, "pitch": 51, "duration": 11, "velocity": 89}, {"time": 1990, "pitch": 58, "duration": 4, "velocity": 26}, {"time": 1993, "pitch": 67, "duration": 7, "velocity": 95}, {"time": 1999, "pitch": 44, "duration": 14, "velocity": 72}, {"time": 2005, "pitch": 51, "duration": 8, "velocity": 50}, {"time": 2011, "pitch": 63, "duration": 12, "velocity": 90}, {"time": 2017, "pitch": 60, "duration": 6, "velocity": 69}, {"time": 2023, "pitch": 39, "duration": 14, "velocity": 66}, {"time": 2029, "pitch": 46, "duration": 9, "velocity": 45}, {"time": 2035, "pitch": 51, "duration": 10, "velocity": 49}, {"time": 2035, "pitch": 67, "duration": 12, "velocity": 89}, {"time": 2041, "pitch": 63, "duration": 6, "velocity": 59}, {"time": 2047, "pitch": 46, "duration": 14, "velocity": 68}, {"time": 2053, "pitch": 53, "duration": 7, "velocity": 59}, {"time": 2059, "pitch": 65, "duration": 12, "velocity": 77}, {"time": 2065, "pitch": 62, "duration": 8, "velocity": 78}, {"time": 2071, "pitch": 43, "duration": 15, "velocity": 47}, {"time": 2077, "pitch": 50, "duration": 8, "velocity": 34}, {"time": 2083, "pitch": 55, "duration": 6, "velocity": 56}, {"time": 2083, "pitch": 62, "duration": 13, "velocity": 59}, {"time": 2083, "pitch": 67, "duration": 15, "velocity": 56}, {"time": 2089, "pitch": 58, "duration": 7, "velocity": 73}, {"time": 2095, "pitch": 48, "duration": 16, "velocity": 71}, {"time": 2101, "pitch": 55, "duration": 7, "velocity": 63}, {"time": 2107, "pitch": 67, "duration": 10, "velocity": 95}, {"time": 2113, "pitch": 60, "duration": 6, "velocity": 81}, {"time": 2119, "pitch": 46, "duration": 14, "velocity": 74}, {"time": 2125, "pitch": 53, "duration": 7, "velocity": 48}, {"time": 2131, "pitch": 65, "duration": 12, "velocity": 88}, {"time": 2137, "pitch": 62, "duration": 6, "velocity": 67}, {"time": 2143, "pitch": 39, "duration": 20, "velocity": 72}, {"time": 2149, "pitch": 46, "duration": 17, "velocity": 46}, {"time": 2155, "pitch": 51, "duration": 5, "velocity": 88}, {"time": 2155, "pitch": 67, "duration": 12, "velocity": 93}, {"time": 2161, "pitch": 63, "duration": 6, "velocity": 68}, {"time": 2167, "pitch": 41, "duration": 12, "velocity": 56}, {"time": 2167, "pitch": 48, "duration": 12, "velocity": 62}, {"time": 2167, "pitch": 53, "duration": 15, "velocity": 63}, {"time": 2167, "pitch": 60, "duration": 14, "velocity": 76}, {"time": 2167, "pitch": 65, "duration": 12, "velocity": 79}, {"time": 2167, "pitch": 68, "duration": 12, "velocity": 74}, {"time": 2191, "pitch": 46, "duration": 15, "velocity": 64}, {"time": 2191, "pitch": 53, "duration": 14, "velocity": 65}, {"time": 2191, "pitch": 58, "duration": 21, "velocity": 79}, {"time": 2191, "pitch": 62, "duration": 17, "velocity": 83}, {"time": 2191, "pitch": 65, "duration": 17, "velocity": 72}, {"time": 2215, "pitch": 39, "duration": 38, "velocity": 72}, {"time": 2215, "pitch": 58, "duration": 15, "velocity": 70}, {"time": 2215, "pitch": 63, "duration": 18, "velocity": 81}, {"time": 2215, "pitch": 67, "duration": 19, "velocity": 77}, {"time": 2221, "pitch": 46, "duration": 41, "velocity": 49}, {"time": 2227, "pitch": 51, "duration": 13, "velocity": 63}, {"time": 2233, "pitch": 58, "duration": 7, "velocity": 74}, {"time": 2239, "pitch": 67, "duration": 13, "velocity": 97}, {"time": 2245, "pitch": 51, "duration": 6, "velocity": 70}, {"time": 2251, "pitch": 65, "duration": 12, "velocity": 82}, {"time": 2263, "pitch": 39, "duration": 36, "velocity": 63}, {"time": 2269, "pitch": 46, "duration": 29, "velocity": 36}, {"time": 2275, "pitch": 51, "duration": 15, "velocity": 50}, {"time": 2281, "pitch": 58, "duration": 13, "velocity": 74}, {"time": 2287, "pitch": 67, "duration": 21, "velocity": 97}, {"time": 2293, "pitch": 51, "duration": 9, "velocity": 67}, {"time": 2299, "pitch": 63, "duration": 15, "velocity": 83}, {"time": 2305, "pitch": 58, "duration": 6, "velocity": 72}, {"time": 2311, "pitch": 44, "duration": 13, "velocity": 78}, {"time": 2317, "pitch": 51, "duration": 6, "velocity": 39}, {"time": 2323, "pitch": 63, "duration": 7, "velocity": 78}, {"time": 2329, "pitch": 60, "duration": 7, "velocity": 73}, {"time": 2335, "pitch": 43, "duration": 14, "velocity": 59}, {"time": 2341, "pitch": 50, "duration": 9, "velocity": 59}, {"time": 2347, "pitch": 62, "duration": 8, "velocity": 93}, {"time": 2353, "pitch": 58, "duration": 7, "velocity": 82}, {"time": 2359, "pitch": 48, "duration": 14, "velocity": 66}, {"time": 2365, "pitch": 55, "duration": 7, "velocity": 41}, {"time": 2371, "pitch": 67, "duration": 14, "velocity": 96}, {"time": 2377, "pitch": 60, "duration": 7, "velocity": 82}, {"time": 2383, "pitch": 39, "duration": 16, "velocity": 66}, {"time": 2389, "pitch": 46, "duration": 10, "velocity": 51}, {"time": 2395, "pitch": 51, "duration": 7, "velocity": 70}, {"time": 2395, "pitch": 67, "duration": 11, "velocity": 92}, {"time": 2398, "pitch": 63, "duration": 6, "velocity": 64}, {"time": 2407, "pitch": 46, "duration": 40, "velocity": 72}, {"time": 2413, "pitch": 53, "duration": 21, "velocity": 68}, {"time": 2419, "pitch": 58, "duration": 14, "velocity": 81}, {"time": 2425, "pitch": 62, "duration": 6, "velocity": 78}, {"time": 2431, "pitch": 65, "duration": 23, "velocity": 81}, {"time": 2437, "pitch": 53, "duration": 16, "velocity": 62}, {"time": 2443, "pitch": 62, "duration": 12, "velocity": 96}, {"time": 2449, "pitch": 58, "duration": 6, "velocity": 86}, {"time": 2455, "pitch": 48, "duration": 22, "velocity": 67}, {"time": 2461, "pitch": 55, "duration": 18, "velocity": 76}, {"time": 2467, "pitch": 67, "duration": 22, "velocity": 92}, {"time": 2473, "pitch": 63, "duration": 15, "velocity": 60}, {"time": 2479, "pitch": 48, "duration": 16, "velocity": 62}, {"time": 2485, "pitch": 55, "duration": 7, "velocity": 72}, {"time": 2491, "pitch": 63, "duration": 13, "velocity": 83}, {"time": 2491, "pitch": 67, "duration": 13, "velocity": 72}, {"time": 2497, "pitch": 60, "duration": 7, "velocity": 70}, {"time": 2503, "pitch": 46, "duration": 14, "velocity": 72}, {"time": 2509, "pitch": 53, "duration": 7, "velocity": 38}, {"time": 2515, "pitch": 65, "duration": 14, "velocity": 88}, {"time": 2521, "pitch": 62, "duration": 6, "velocity": 68}, {"time": 2524, "pitch": 58, "duration": 5, "velocity": 78}, {"time": 2527, "pitch": 39, "duration": 18, "velocity": 65}, {"time": 2533, "pitch": 46, "duration": 17, "velocity": 46}, {"time": 2539, "pitch": 51, "duration": 6, "velocity": 59}, {"time": 2539, "pitch": 67, "duration": 12, "velocity": 96}, {"time": 2545, "pitch": 63, "duration": 7, "velocity": 77}, {"time": 2551, "pitch": 41, "duration": 14, "velocity": 69}, {"time": 2557, "pitch": 48, "duration": 9, "velocity": 48}, {"time": 2563, "pitch": 53, "duration": 6, "velocity": 63}, {"time": 2563, "pitch": 68, "duration": 11, "velocity": 78}, {"time": 2569, "pitch": 65, "duration": 5, "velocity": 74}, {"time": 2575, "pitch": 43, "duration": 16, "velocity": 57}, {"time": 2581, "pitch": 50, "duration": 10, "velocity": 40}, {"time": 2587, "pitch": 55, "duration": 5, "velocity": 55}, {"time": 2587, "pitch": 62, "duration": 13, "velocity": 89}, {"time": 2599, "pitch": 46, "duration": 45, "velocity": 71}, {"time": 2605, "pitch": 53, "duration": 21, "velocity": 72}, {"time": 2611, "pitch": 58, "duration": 14, "velocity": 77}, {"time": 2617, "pitch": 62, "duration": 5, "velocity": 88}, {"time": 2623, "pitch": 65, "duration": 21, "velocity": 89}, {"time": 2629, "pitch": 53, "duration": 18, "velocity": 58}, {"time": 2635, "pitch": 62, "duration": 8, "velocity": 107}, {"time": 2641, "pitch": 58, "duration": 4, "velocity": 81}, {"time": 2647, "pitch": 48, "duration": 12, "velocity": 82}, {"time": 2653, "pitch": 55, "duration": 5, "velocity": 44}, {"time": 2659, "pitch": 63, "duration": 8, "velocity": 82}, {"time": 2659, "pitch": 67, "duration": 11, "velocity": 90}, {"time": 2665, "pitch": 60, "duration": 6, "velocity": 58}, {"time": 2671, "pitch": 43, "duration": 17, "velocity": 83}, {"time": 2677, "pitch": 55, "duration": 9, "velocity": 64}, {"time": 2683, "pitch": 58, "duration": 12, "velocity": 79}, {"time": 2683, "pitch": 62, "duration": 10, "velocity": 86}, {"time": 2695, "pitch": 39, "duration": 12, "velocity": 77}, {"time": 2701, "pitch": 46, "duration": 6, "velocity": 52}, {"time": 2707, "pitch": 63, "duration": 15, "velocity": 92}, {"time": 2707, "pitch": 67, "duration": 14, "velocity": 97}, {"time": 2713, "pitch": 58, "duration": 7, "velocity": 72}, {"time": 2719, "pitch": 48, "duration": 14, "velocity": 66}, {"time": 2725, "pitch": 55, "duration": 6, "velocity": 74}, {"time": 2731, "pitch": 63, "duration": 14, "velocity": 93}, {"time": 2737, "pitch": 60, "duration": 12, "velocity": 82}, {"time": 2743, "pitch": 41, "duration": 18, "velocity": 82}, {"time": 2749, "pitch": 48, "duration": 12, "velocity": 55}, {"time": 2755, "pitch": 53, "duration": 10, "velocity": 76}, {"time": 2755, "pitch": 68, "duration": 12, "velocity": 89}, {"time": 2761, "pitch": 60, "duration": 7, "velocity": 88}, {"time": 2767, "pitch": 48, "duration": 21, "velocity": 77}, {"time": 2773, "pitch": 60, "duration": 8, "velocity": 82}, {"time": 2779, "pitch": 67, "duration": 12, "velocity": 97}, {"time": 2785, "pitch": 60, "duration": 6, "velocity": 85}, {"time": 2791, "pitch": 46, "duration": 35, "velocity": 77}, {"time": 2797, "pitch": 53, "duration": 20, "velocity": 69}, {"time": 2803, "pitch": 58, "duration": 20, "velocity": 86}, {"time": 2809, "pitch": 62, "duration": 7, "velocity": 86}, {"time": 2815, "pitch": 65, "duration": 25, "velocity": 96}, {"time": 2821, "pitch": 53, "duration": 4, "velocity": 66}, {"time": 2827, "pitch": 62, "duration": 12, "velocity": 99}, {"time": 2833, "pitch": 58, "duration": 8, "velocity": 81}, {"time": 2839, "pitch": 39, "duration": 22, "velocity": 75}, {"time": 2845, "pitch": 46, "duration": 18, "velocity": 38}, {"time": 2851, "pitch": 51, "duration": 18, "velocity": 65}, {"time": 2851, "pitch": 67, "duration": 36, "velocity": 96}, {"time": 2857, "pitch": 63, "duration": 30, "velocity": 63}, {"time": 2863, "pitch": 39, "duration": 19, "velocity": 71}, {"time": 2869, "pitch": 46, "duration": 17, "velocity": 48}, {"time": 2875, "pitch": 51, "duration": 4, "velocity": 86}, {"time": 2881, "pitch": 58, "duration": 7, "velocity": 81}, {"time": 2887, "pitch": 41, "duration": 16, "velocity": 68}, {"time": 2893, "pitch": 48, "duration": 10, "velocity": 56}, {"time": 2899, "pitch": 53, "duration": 12, "velocity": 77}, {"time": 2899, "pitch": 68, "duration": 14, "velocity": 93}, {"time": 2905, "pitch": 65, "duration": 7, "velocity": 78}, {"time": 2908, "pitch": 60, "duration": 2, "velocity": 40}, {"time": 2911, "pitch": 44, "duration": 21, "velocity": 69}, {"time": 2917, "pitch": 51, "duration": 7, "velocity": 53}, {"time": 2923, "pitch": 63, "duration": 12, "velocity": 88}, {"time": 2926, "pitch": 51, "duration": 8, "velocity": 58}, {"time": 2929, "pitch": 60, "duration": 5, "velocity": 83}, {"time": 2932, "pitch": 56, "duration": 3, "velocity": 75}, {"time": 2935, "pitch": 46, "duration": 21, "velocity": 74}, {"time": 2941, "pitch": 53, "duration": 18, "velocity": 56}, {"time": 2947, "pitch": 65, "duration": 22, "velocity": 97}, {"time": 2953, "pitch": 62, "duration": 16, "velocity": 72}, {"time": 2959, "pitch": 46, "duration": 16, "velocity": 72}, {"time": 2965, "pitch": 53, "duration": 8, "velocity": 53}, {"time": 2971, "pitch": 62, "duration": 11, "velocity": 97}, {"time": 2971, "pitch": 65, "duration": 12, "velocity": 88}, {"time": 2977, "pitch": 58, "duration": 6, "velocity": 85}, {"time": 2983, "pitch": 39, "duration": 9, "velocity": 88}, {"time": 2986, "pitch": 46, "duration": 9, "velocity": 82}, {"time": 2989, "pitch": 51, "duration": 8, "velocity": 74}, {"time": 2992, "pitch": 58, "duration": 5, "velocity": 81}, {"time": 2995, "pitch": 67, "duration": 4, "velocity": 102}, {"time": 2998, "pitch": 63, "duration": 2, "velocity": 55}, {"time": 3001, "pitch": 51, "duration": 21, "velocity": 88}, {"time": 3004, "pitch": 55, "duration": 17, "velocity": 97}, {"time": 3007, "pitch": 58, "duration": 8, "velocity": 86}, {"time": 3010, "pitch": 63, "duration": 4, "velocity": 92}, {"time": 3013, "pitch": 70, "duration": 6, "velocity": 99}, {"time": 3016, "pitch": 67, "duration": 4, "velocity": 99}, {"time": 3019, "pitch": 58, "duration": 2, "velocity": 72}, {"time": 3019, "pitch": 63, "duration": 3, "velocity": 96}, {"time": 3022, "pitch": 62, "duration": 3, "velocity": 112}, {"time": 3025, "pitch": 63, "duration": 4, "velocity": 81}, {"time": 3028, "pitch": 62, "duration": 2, "velocity": 107}, {"time": 3031, "pitch": 48, "duration": 9, "velocity": 69}, {"time": 3031, "pitch": 60, "duration": 8, "velocity": 85}, {"time": 3031, "pitch": 63, "duration": 8, "velocity": 92}, {"time": 3031, "pitch": 67, "duration": 8, "velocity": 90}, {"time": 3055, "pitch": 43, "duration": 2, "velocity": 71}, {"time": 3055, "pitch": 55, "duration": 2, "velocity": 72}, {"time": 3055, "pitch": 58, "duration": 3, "velocity": 85}, {"time": 3055, "pitch": 62, "duration": 3, "velocity": 97}, {"time": 3055, "pitch": 67, "duration": 2, "velocity": 85}, {"time": 3061, "pitch": 43, "duration": 9, "velocity": 58}, {"time": 3061, "pitch": 55, "duration": 8, "velocity": 76}, {"time": 3061, "pitch": 58, "duration": 9, "velocity": 82}, {"time": 3061, "pitch": 62, "duration": 9, "velocity": 95}, {"time": 3061, "pitch": 67, "duration": 9, "velocity": 89}, {"time": 3079, "pitch": 41, "duration": 22, "velocity": 69}, {"time": 3085, "pitch": 48, "duration": 18, "velocity": 51}, {"time": 3088, "pitch": 53, "duration": 4, "velocity": 69}, {"time": 3091, "pitch": 68, "duration": 12, "velocity": 90}, {"time": 3094, "pitch": 53, "duration": 4, "velocity": 66}, {"time": 3097, "pitch": 65, "duration": 6, "velocity": 81}, {"time": 3100, "pitch": 60, "duration": 3, "velocity": 78}, {"time": 3103, "pitch": 48, "duration": 15, "velocity": 92}, {"time": 3109, "pitch": 55, "duration": 6, "velocity": 60}, {"time": 3115, "pitch": 63, "duration": 11, "velocity": 90}, {"time": 3115, "pitch": 67, "duration": 9, "velocity": 96}, {"time": 3121, "pitch": 60, "duration": 6, "velocity": 70}, {"time": 3127, "pitch": 41, "duration": 18, "velocity": 71}, {"time": 3133, "pitch": 48, "duration": 13, "velocity": 43}, {"time": 3139, "pitch": 53, "duration": 11, "velocity": 77}, {"time": 3139, "pitch": 65, "duration": 11, "velocity": 97}, {"time": 3145, "pitch": 60, "duration": 6, "velocity": 83}, {"time": 3151, "pitch": 46, "duration": 18, "velocity": 67}, {"time": 3157, "pitch": 53, "duration": 7, "velocity": 69}, {"time": 3163, "pitch": 65, "duration": 10, "velocity": 102}, {"time": 3166, "pitch": 53, "duration": 2, "velocity": 56}, {"time": 3169, "pitch": 62, "duration": 4, "velocity": 97}, {"time": 3172, "pitch": 58, "duration": 5, "velocity": 89}, {"time": 3175, "pitch": 39, "duration": 19, "velocity": 72}, {"time": 3181, "pitch": 51, "duration": 7, "velocity": 82}, {"time": 3184, "pitch": 58, "duration": 5, "velocity": 92}, {"time": 3187, "pitch": 51, "duration": 1, "velocity": 66}, {"time": 3187, "pitch": 58, "duration": 2, "velocity": 95}, {"time": 3187, "pitch": 67, "duration": 15, "velocity": 100}, {"time": 3193, "pitch": 63, "duration": 8, "velocity": 63}, {"time": 3196, "pitch": 58, "duration": 6, "velocity": 83}, {"time": 3199, "pitch": 39, "duration": 17, "velocity": 59}, {"time": 3205, "pitch": 51, "duration": 7, "velocity": 69}, {"time": 3208, "pitch": 58, "duration": 5, "velocity": 83}, {"time": 3211, "pitch": 63, "duration": 5, "velocity": 78}, {"time": 3211, "pitch": 67, "duration": 10, "velocity": 100}, {"time": 3211, "pitch": 56, "duration": 19, "velocity": 45}, {"time": 3220, "pitch": 58, "duration": 4, "velocity": 83}, {"time": 3223, "pitch": 41, "duration": 16, "velocity": 64}, {"time": 3229, "pitch": 53, "duration": 7, "velocity": 81}, {"time": 3232, "pitch": 60, "duration": 2, "velocity": 81}, {"time": 3235, "pitch": 60, "duration": 13, "velocity": 62}, {"time": 3235, "pitch": 68, "duration": 11, "velocity": 92}, {"time": 3235, "pitch": 65, "duration": 3, "velocity": 63}, {"time": 3241, "pitch": 65, "duration": 4, "velocity": 82}, {"time": 3247, "pitch": 48, "duration": 19, "velocity": 71}, {"time": 3253, "pitch": 60, "duration": 7, "velocity": 70}, {"time": 3259, "pitch": 67, "duration": 10, "velocity": 96}, {"time": 3259, "pitch": 60, "duration": 1, "velocity": 77}, {"time": 3259, "pitch": 63, "duration": 4, "velocity": 78}, {"time": 3265, "pitch": 55, "duration": 3, "velocity": 78}, {"time": 3268, "pitch": 60, "duration": 3, "velocity": 83}, {"time": 3271, "pitch": 46, "duration": 21, "velocity": 70}, {"time": 3277, "pitch": 58, "duration": 5, "velocity": 74}, {"time": 3283, "pitch": 58, "duration": 9, "velocity": 48}, {"time": 3283, "pitch": 62, "duration": 2, "velocity": 88}, {"time": 3283, "pitch": 65, "duration": 12, "velocity": 81}, {"time": 3292, "pitch": 46, "duration": 1, "velocity": 59}, {"time": 3292, "pitch": 58, "duration": 1, "velocity": 85}, {"time": 3295, "pitch": 53, "duration": 10, "velocity": 69}, {"time": 3301, "pitch": 58, "duration": 3, "velocity": 76}, {"time": 3304, "pitch": 62, "duration": 2, "velocity": 89}, {"time": 3307, "pitch": 65, "duration": 10, "velocity": 85}, {"time": 3310, "pitch": 62, "duration": 3, "velocity": 88}, {"time": 3313, "pitch": 58, "duration": 6, "velocity": 86}, {"time": 3316, "pitch": 62, "duration": 2, "velocity": 81}, {"time": 3319, "pitch": 39, "duration": 17, "velocity": 66}, {"time": 3325, "pitch": 51, "duration": 7, "velocity": 58}, {"time": 3331, "pitch": 67, "duration": 12, "velocity": 92}, {"time": 3331, "pitch": 63, "duration": 3, "velocity": 58}, {"time": 3331, "pitch": 58, "duration": 13, "velocity": 45}, {"time": 3337, "pitch": 63, "duration": 5, "velocity": 70}, {"time": 3343, "pitch": 48, "duration": 17, "velocity": 63}, {"time": 3349, "pitch": 60, "duration": 4, "velocity": 74}, {"time": 3355, "pitch": 63, "duration": 2, "velocity": 56}, {"time": 3355, "pitch": 67, "duration": 10, "velocity": 102}, {"time": 3355, "pitch": 55, "duration": 10, "velocity": 73}, {"time": 3361, "pitch": 63, "duration": 4, "velocity": 81}, {"time": 3364, "pitch": 60, "duration": 3, "velocity": 81}, {"time": 3367, "pitch": 39, "duration": 16, "velocity": 65}, {"time": 3373, "pitch": 51, "duration": 6, "velocity": 58}, {"time": 3379, "pitch": 67, "duration": 10, "velocity": 100}, {"time": 3379, "pitch": 63, "duration": 4, "velocity": 86}, {"time": 3379, "pitch": 58, "duration": 13, "velocity": 64}, {"time": 3388, "pitch": 58, "duration": 4, "velocity": 77}, {"time": 3391, "pitch": 46, "duration": 19, "velocity": 59}, {"time": 3397, "pitch": 58, "duration": 3, "velocity": 67}, {"time": 3403, "pitch": 62, "duration": 4, "velocity": 73}, {"time": 3403, "pitch": 53, "duration": 10, "velocity": 44}, {"time": 3403, "pitch": 65, "duration": 13, "velocity": 66}, {"time": 3412, "pitch": 58, "duration": 4, "velocity": 73}, {"time": 3415, "pitch": 39, "duration": 16, "velocity": 58}, {"time": 3421, "pitch": 51, "duration": 7, "velocity": 71}, {"time": 3427, "pitch": 63, "duration": 4, "velocity": 77}, {"time": 3427, "pitch": 67, "duration": 9, "velocity": 99}, {"time": 3427, "pitch": 58, "duration": 12, "velocity": 72}, {"time": 3430, "pitch": 51, "duration": 7, "velocity": 85}, {"time": 3436, "pitch": 58, "duration": 3, "velocity": 82}, {"time": 3439, "pitch": 44, "duration": 18, "velocity": 67}, {"time": 3445, "pitch": 56, "duration": 5, "velocity": 85}, {"time": 3451, "pitch": 51, "duration": 5, "velocity": 60}, {"time": 3451, "pitch": 60, "duration": 2, "velocity": 75}, {"time": 3451, "pitch": 63, "duration": 10, "velocity": 92}, {"time": 3454, "pitch": 51, "duration": 2, "velocity": 50}, {"time": 3457, "pitch": 60, "duration": 4, "velocity": 77}, {"time": 3460, "pitch": 56, "duration": 3, "velocity": 88}, {"time": 3463, "pitch": 46, "duration": 14, "velocity": 86}, {"time": 3472, "pitch": 58, "duration": 2, "velocity": 70}, {"time": 3475, "pitch": 65, "duration": 11, "velocity": 93}, {"time": 3475, "pitch": 53, "duration": 7, "velocity": 71}, {"time": 3481, "pitch": 62, "duration": 5, "velocity": 92}, {"time": 3484, "pitch": 58, "duration": 5, "velocity": 79}, {"time": 3487, "pitch": 39, "duration": 18, "velocity": 74}, {"time": 3493, "pitch": 51, "duration": 6, "velocity": 76}, {"time": 3499, "pitch": 58, "duration": 12, "velocity": 59}, {"time": 3499, "pitch": 67, "duration": 10, "velocity": 112}, {"time": 3499, "pitch": 63, "duration": 5, "velocity": 90}, {"time": 3502, "pitch": 51, "duration": 3, "velocity": 83}, {"time": 3508, "pitch": 58, "duration": 3, "velocity": 85}, {"time": 3511, "pitch": 41, "duration": 10, "velocity": 53}, {"time": 3511, "pitch": 48, "duration": 10, "velocity": 58}, {"time": 3511, "pitch": 53, "duration": 9, "velocity": 60}, {"time": 3511, "pitch": 60, "duration": 12, "velocity": 88}, {"time": 3511, "pitch": 65, "duration": 12, "velocity": 83}, {"time": 3511, "pitch": 68, "duration": 12, "velocity": 76}, {"time": 3535, "pitch": 46, "duration": 12, "velocity": 81}, {"time": 3535, "pitch": 58, "duration": 11, "velocity": 79}, {"time": 3535, "pitch": 62, "duration": 24, "velocity": 93}, {"time": 3535, "pitch": 65, "duration": 24, "velocity": 83}, {"time": 3547, "pitch": 58, "duration": 12, "velocity": 33}, {"time": 3559, "pitch": 39, "duration": 35, "velocity": 72}, {"time": 3565, "pitch": 46, "duration": 29, "velocity": 51}, {"time": 3571, "pitch": 51, "duration": 16, "velocity": 82}, {"time": 3577, "pitch": 58, "duration": 18, "velocity": 72}, {"time": 3583, "pitch": 67, "duration": 30, "velocity": 117}, {"time": 3589, "pitch": 51, "duration": 7, "velocity": 65}, {"time": 3595, "pitch": 63, "duration": 21, "velocity": 85}, {"time": 3601, "pitch": 58, "duration": 7, "velocity": 72}, {"time": 3607, "pitch": 48, "duration": 31, "velocity": 79}, {"time": 3613, "pitch": 55, "duration": 20, "velocity": 82}, {"time": 3619, "pitch": 60, "duration": 16, "velocity": 78}, {"time": 3625, "pitch": 63, "duration": 6, "velocity": 64}, {"time": 3631, "pitch": 67, "duration": 15, "velocity": 122}, {"time": 3643, "pitch": 63, "duration": 3, "velocity": 88}, {"time": 3655, "pitch": 44, "duration": 25, "velocity": 57}, {"time": 3655, "pitch": 51, "duration": 25, "velocity": 57}, {"time": 3655, "pitch": 56, "duration": 25, "velocity": 76}, {"time": 3655, "pitch": 63, "duration": 26, "velocity": 92}, {"time": 3655, "pitch": 68, "duration": 25, "velocity": 93}, {"time": 3655, "pitch": 72, "duration": 26, "velocity": 92}, {"time": 3688, "pitch": 46, "duration": 24, "velocity": 61}, {"time": 3688, "pitch": 53, "duration": 22, "velocity": 59}, {"time": 3688, "pitch": 58, "duration": 20, "velocity": 78}, {"time": 3688, "pitch": 65, "duration": 36, "velocity": 79}, {"time": 3688, "pitch": 70, "duration": 35, "velocity": 93}, {"time": 3688, "pitch": 74, "duration": 34, "velocity": 100}, {"time": 3745, "pitch": 55, "duration": 3, "velocity": 66}, {"time": 3751, "pitch": 58, "duration": 7, "velocity": 71}, {"time": 3754, "pitch": 62, "duration": 5, "velocity": 69}, {"time": 3757, "pitch": 63, "duration": 2, "velocity": 56}, {"time": 3763, "pitch": 67, "duration": 6, "velocity": 36}, {"time": 3769, "pitch": 70, "duration": 1, "velocity": 65}, {"time": 3775, "pitch": 75, "duration": 21, "velocity": 66}, {"time": 3781, "pitch": 79, "duration": 16, "velocity": 72}, {"time": 3784, "pitch": 82, "duration": 11, "velocity": 63}, {"time": 3793, "pitch": 86, "duration": 4, "velocity": 63}], "annotations": [{"time": 7, "annotation": {"number": 64, "value": 127}, "group": "control_change"}, {"time": 51, "annotation": {"number": 64, "value": 0}, "group": "control_change"}, {"time": 55, "annotation": {"number": 64, "value": 127}, "group": "control_change"}, {"time": 98, "annotation": {"number": 64, "value": 0}, "group": "control_change"}, {"time": 103, "annotation": {"number": 64, "value": 127}, "group": "control_change"}, {"time": 147, "annotation": {"number": 64, "value": 0}, "group": "control_change"}, {"time": 153, "annotation": {"number": 64, "value": 127}, "group": "control_change"}, {"time": 195, "annotation": {"number": 64, "value": 0}, "group": "control_change"}, {"time": 200, "annotation": {"number": 64, "value": 127}, "group": "control_change"}, {"time": 219, "annotation": {"number": 64, "value": 0}, "group": "control_change"}, {"time": 223, "annotation": {"number": 64, "value": 127}, "group": "control_change"}, {"time": 243, "annotation": {"number": 64, "value": 0}, "group": "control_change"}, {"time": 247, "annotation": {"number": 64, "value": 127}, "group": "control_change"}, {"time": 267, "annotation": {"number": 64, "value": 0}, "group": "control_change"}, {"time": 270, "annotation": {"number": 64, "value": 127}, "group": "control_change"}, {"time": 291, "annotation": {"number": 64, "value": 0}, "group": "control_change"}, {"time": 295, "annotation": {"number": 64, "value": 127}, "group": "control_change"}, {"time": 315, "annotation": {"number": 64, "value": 0}, "group": "control_change"}, {"time": 320, "annotation": {"number": 64, "value": 127}, "group": "control_change"}, {"time": 339, "annotation": {"number": 64, "value": 0}, "group": "control_change"}, {"time": 344, "annotation": {"number": 64, "value": 127}, "group": "control_change"}, {"time": 362, "annotation": {"number": 64, "value": 0}, "group": "control_change"}, {"time": 367, "annotation": {"number": 64, "value": 127}, "group": "control_change"}, {"time": 387, "annotation": {"number": 64, "value": 0}, "group": "control_change"}, {"time": 391, "annotation": {"number": 64, "value": 127}, "group": "control_change"}, {"time": 396, "annotation": {"number": 64, "value": 127}, "group": "control_change"}, {"time": 412, "annotation": {"number": 64, "value": 0}, "group": "control_change"}, {"time": 427, "annotation": {"number": 64, "value": 127}, "group": "control_change"}, {"time": 434, "annotation": {"number": 64, "value": 0}, "group": "control_change"}, {"time": 440, "annotation": {"number": 64, "value": 127}, "group": "control_change"}, {"time": 480, "annotation": {"number": 64, "value": 0}, "group": "control_change"}, {"time": 487, "annotation": {"number": 64, "value": 127}, "group": "control_change"}, {"time": 531, "annotation": {"number": 64, "value": 0}, "group": "control_change"}, {"time": 535, "annotation": {"number": 64, "value": 127}, "group": "control_change"}, {"time": 554, "annotation": {"number": 64, "value": 0}, "group": "control_change"}, {"time": 559, "annotation": {"number": 64, "value": 127}, "group": "control_change"}, {"time": 579, "annotation": {"number": 64, "value": 0}, "group": "control_change"}, {"time": 583, "annotation": {"number": 64, "value": 127}, "group": "control_change"}, {"time": 602, "annotation": {"number": 64, "value": 0}, "group": "control_change"}, {"time": 607, "annotation": {"number": 64, "value": 127}, "group": "control_change"}, {"time": 626, "annotation": {"number": 64, "value": 0}, "group": "control_change"}, {"time": 630, "annotation": {"number": 64, "value": 127}, "group": "control_change"}, {"time": 674, "annotation": {"number": 64, "value": 0}, "group": "control_change"}, {"time": 679, "annotation": {"number": 64, "value": 127}, "group": "control_change"}, {"time": 699, "annotation": {"number": 64, "value": 0}, "group": "control_change"}, {"time": 702, "annotation": {"number": 64, "value": 127}, "group": "control_change"}, {"time": 722, "annotation": {"number": 64, "value": 0}, "group": "control_change"}, {"time": 727, "annotation": {"number": 64, "value": 127}, "group": "control_change"}, {"time": 747, "annotation": {"number": 64, "value": 0}, "group": "control_change"}, {"time": 751, "annotation": {"number": 64, "value": 127}, "group": "control_change"}, {"time": 770, "annotation": {"number": 64, "value": 0}, "group": "control_change"}, {"time": 774, "annotation": {"number": 64, "value": 127}, "group": "control_change"}, {"time": 795, "annotation": {"number": 64, "value": 0}, "group": "control_change"}, {"time": 799, "annotation": {"number": 64, "value": 127}, "group": "control_change"}, {"time": 819, "annotation": {"number": 64, "value": 0}, "group": "control_change"}, {"time": 823, "annotation": {"number": 64, "value": 127}, "group": "control_change"}, {"time": 868, "annotation": {"number": 64, "value": 0}, "group": "control_change"}, {"time": 871, "annotation": {"number": 64, "value": 127}, "group": "control_change"}, {"time": 915, "annotation": {"number": 64, "value": 0}, "group": "control_change"}, {"time": 918, "annotation": {"number": 64, "value": 127}, "group": "control_change"}, {"time": 939, "annotation": {"number": 64, "value": 0}, "group": "control_change"}, {"time": 943, "annotation": {"number": 64, "value": 127}, "group": "control_change"}, {"time": 962, "annotation": {"number": 64, "value": 0}, "group": "control_change"}, {"time": 967, "annotation": {"number": 64, "value": 127}, "group": "control_change"}, {"time": 988, "annotation": {"number": 64, "value": 0}, "group": "control_change"}, {"time": 992, "annotation": {"number": 64, "value": 127}, "group": "control_change"}, {"time": 1011, "annotation": {"number": 64, "value": 0}, "group": "control_change"}, {"time": 1015, "annotation": {"number": 64, "value": 127}, "group": "control_change"}, {"time": 1059, "annotation": {"number": 64, "value": 0}, "group": "control_change"}, {"time": 1064, "annotation": {"number": 64, "value": 127}, "group": "control_change"}, {"time": 1084, "annotation": {"number": 64, "value": 0}, "group": "control_change"}, {"time": 1088, "annotation": {"number": 64, "value": 127}, "group": "control_change"}, {"time": 1107, "annotation": {"number": 64, "value": 0}, "group": "control_change"}, {"time": 1111, "annotation": {"number": 64, "value": 127}, "group": "control_change"}, {"time": 1131, "annotation": {"number": 64, "value": 0}, "group": "control_change"}, {"time": 1135, "annotation": {"number": 64, "value": 127}, "group": "control_change"}, {"time": 1155, "annotation": {"number": 64, "value": 0}, "group": "control_change"}, {"time": 1159, "annotation": {"number": 64, "value": 127}, "group": "control_change"}, {"time": 1179, "annotation": {"number": 64, "value": 0}, "group": "control_change"}, {"time": 1184, "annotation": {"number": 64, "value": 127}, "group": "control_change"}, {"time": 1205, "annotation": {"number": 64, "value": 0}, "group": "control_change"}, {"time": 1207, "annotation": {"number": 64, "value": 127}, "group": "control_change"}, {"time": 1250, "annotation": {"number": 64, "value": 127}, "group": "control_change"}, {"time": 1252, "annotation": {"number": 64, "value": 0}, "group": "control_change"}, {"time": 1256, "annotation": {"number": 64, "value": 127}, "group": "control_change"}, {"time": 1262, "annotation": {"number": 64, "value": 0}, "group": "control_change"}, {"time": 1280, "annotation": {"number": 64, "value": 127}, "group": "control_change"}, {"time": 1280, "annotation": {"number": 64, "value": 0}, "group": "control_change"}, {"time": 1303, "annotation": {"number": 64, "value": 127}, "group": "control_change"}, {"time": 1323, "annotation": {"number": 64, "value": 0}, "group": "control_change"}, {"time": 1327, "annotation": {"number": 64, "value": 127}, "group": "control_change"}, {"time": 1349, "annotation": {"number": 64, "value": 0}, "group": "control_change"}, {"time": 1351, "annotation": {"number": 64, "value": 127}, "group": "control_change"}, {"time": 1371, "annotation": {"number": 64, "value": 0}, "group": "control_change"}, {"time": 1375, "annotation": {"number": 64, "value": 127}, "group": "control_change"}, {"time": 1395, "annotation": {"number": 64, "value": 0}, "group": "control_change"}, {"time": 1398, "annotation": {"number": 64, "value": 127}, "group": "control_change"}, {"time": 1419, "annotation": {"number": 64, "value": 0}, "group": "control_change"}, {"time": 1423, "annotation": {"number": 64, "value": 127}, "group": "control_change"}, {"time": 1442, "annotation": {"number": 64, "value": 0}, "group": "control_change"}, {"time": 1447, "annotation": {"number": 64, "value": 127}, "group": "control_change"}, {"time": 1467, "annotation": {"number": 64, "value": 0}, "group": "control_change"}, {"time": 1471, "annotation": {"number": 64, "value": 127}, "group": "control_change"}, {"time": 1492, "annotation": {"number": 64, "value": 0}, "group": "control_change"}, {"time": 1495, "annotation": {"number": 64, "value": 127}, "group": "control_change"}, {"time": 1515, "annotation": {"number": 64, "value": 0}, "group": "control_change"}, {"time": 1517, "annotation": {"number": 64, "value": 127}, "group": "control_change"}, {"time": 1540, "annotation": {"number": 64, "value": 0}, "group": "control_change"}, {"time": 1543, "annotation": {"number": 64, "value": 127}, "group": "control_change"}, {"time": 1564, "annotation": {"number": 64, "value": 0}, "group": "control_change"}, {"time": 1566, "annotation": {"number": 64, "value": 127}, "group": "control_change"}, {"time": 1588, "annotation": {"number": 64, "value": 0}, "group": "control_change"}, {"time": 1590, "annotation": {"number": 64, "value": 127}, "group": "control_change"}, {"time": 1611, "annotation": {"number": 64, "value": 0}, "group": "control_change"}, {"time": 1614, "annotation": {"number": 64, "value": 127}, "group": "control_change"}, {"time": 1636, "annotation": {"number": 64, "value": 0}, "group": "control_change"}, {"time": 1638, "annotation": {"number": 64, "value": 127}, "group": "control_change"}, {"time": 1659, "annotation": {"number": 64, "value": 0}, "group": "control_change"}, {"time": 1662, "annotation": {"number": 64, "value": 127}, "group": "control_change"}, {"time": 1684, "annotation": {"number": 64, "value": 0}, "group": "control_change"}, {"time": 1687, "annotation": {"number": 64, "value": 127}, "group": "control_change"}, {"time": 1708, "annotation": {"number": 64, "value": 0}, "group": "control_change"}, {"time": 1711, "annotation": {"number": 64, "value": 127}, "group": "control_change"}, {"time": 1731, "annotation": {"number": 64, "value": 0}, "group": "control_change"}, {"time": 1733, "annotation": {"number": 64, "value": 127}, "group": "control_change"}, {"time": 1736, "annotation": {"number": 64, "value": 127}, "group": "control_change"}, {"time": 1755, "annotation": {"number": 64, "value": 0}, "group": "control_change"}, {"time": 1759, "annotation": {"number": 64, "value": 127}, "group": "control_change"}, {"time": 1780, "annotation": {"number": 64, "value": 0}, "group": "control_change"}, {"time": 1782, "annotation": {"number": 64, "value": 127}, "group": "control_change"}, {"time": 1805, "annotation": {"number": 64, "value": 0}, "group": "control_change"}, {"time": 1807, "annotation": {"number": 64, "value": 127}, "group": "control_change"}, {"time": 1829, "annotation": {"number": 64, "value": 0}, "group": "control_change"}, {"time": 1832, "annotation": {"number": 64, "value": 127}, "group": "control_change"}, {"time": 1876, "annotation": {"number": 64, "value": 0}, "group": "control_change"}, {"time": 1878, "annotation": {"number": 64, "value": 127}, "group": "control_change"}, {"time": 1900, "annotation": {"number": 64, "value": 0}, "group": "control_change"}, {"time": 1902, "annotation": {"number": 64, "value": 127}, "group": "control_change"}, {"time": 1924, "annotation": {"number": 64, "value": 0}, "group": "control_change"}, {"time": 1927, "annotation": {"number": 64, "value": 127}, "group": "control_change"}, {"time": 1948, "annotation": {"number": 64, "value": 0}, "group": "control_change"}, {"time": 1950, "annotation": {"number": 64, "value": 127}, "group": "control_change"}, {"time": 1968, "annotation": {"number": 64, "value": 0}, "group": "control_change"}, {"time": 1976, "annotation": {"number": 64, "value": 127}, "group": "control_change"}, {"time": 1995, "annotation": {"number": 64, "value": 0}, "group": "control_change"}, {"time": 1999, "annotation": {"number": 64, "value": 127}, "group": "control_change"}, {"time": 2019, "annotation": {"number": 64, "value": 0}, "group": "control_change"}, {"time": 2023, "annotation": {"number": 64, "value": 127}, "group": "control_change"}, {"time": 2043, "annotation": {"number": 64, "value": 0}, "group": "control_change"}, {"time": 2046, "annotation": {"number": 64, "value": 127}, "group": "control_change"}, {"time": 2067, "annotation": {"number": 64, "value": 0}, "group": "control_change"}, {"time": 2071, "annotation": {"number": 64, "value": 127}, "group": "control_change"}, {"time": 2091, "annotation": {"number": 64, "value": 0}, "group": "control_change"}, {"time": 2096, "annotation": {"number": 64, "value": 127}, "group": "control_change"}, {"time": 2115, "annotation": {"number": 64, "value": 0}, "group": "control_change"}, {"time": 2120, "annotation": {"number": 64, "value": 127}, "group": "control_change"}, {"time": 2138, "annotation": {"number": 64, "value": 0}, "group": "control_change"}, {"time": 2143, "annotation": {"number": 64, "value": 127}, "group": "control_change"}, {"time": 2163, "annotation": {"number": 64, "value": 0}, "group": "control_change"}, {"time": 2167, "annotation": {"number": 64, "value": 127}, "group": "control_change"}, {"time": 2172, "annotation": {"number": 64, "value": 127}, "group": "control_change"}, {"time": 2188, "annotation": {"number": 64, "value": 0}, "group": "control_change"}, {"time": 2203, "annotation": {"number": 64, "value": 127}, "group": "control_change"}, {"time": 2210, "annotation": {"number": 64, "value": 0}, "group": "control_change"}, {"time": 2216, "annotation": {"number": 64, "value": 127}, "group": "control_change"}, {"time": 2256, "annotation": {"number": 64, "value": 0}, "group": "control_change"}, {"time": 2263, "annotation": {"number": 64, "value": 127}, "group": "control_change"}, {"time": 2307, "annotation": {"number": 64, "value": 0}, "group": "control_change"}, {"time": 2311, "annotation": {"number": 64, "value": 127}, "group": "control_change"}, {"time": 2330, "annotation": {"number": 64, "value": 0}, "group": "control_change"}, {"time": 2335, "annotation": {"number": 64, "value": 127}, "group": "control_change"}, {"time": 2355, "annotation": {"number": 64, "value": 0}, "group": "control_change"}, {"time": 2359, "annotation": {"number": 64, "value": 127}, "group": "control_change"}, {"time": 2378, "annotation": {"number": 64, "value": 0}, "group": "control_change"}, {"time": 2383, "annotation": {"number": 64, "value": 127}, "group": "control_change"}, {"time": 2402, "annotation": {"number": 64, "value": 0}, "group": "control_change"}, {"time": 2406, "annotation": {"number": 64, "value": 127}, "group": "control_change"}, {"time": 2450, "annotation": {"number": 64, "value": 0}, "group": "control_change"}, {"time": 2455, "annotation": {"number": 64, "value": 127}, "group": "control_change"}, {"time": 2475, "annotation": {"number": 64, "value": 0}, "group": "control_change"}, {"time": 2478, "annotation": {"number": 64, "value": 127}, "group": "control_change"}, {"time": 2498, "annotation": {"number": 64, "value": 0}, "group": "control_change"}, {"time": 2503, "annotation": {"number": 64, "value": 127}, "group": "control_change"}, {"time": 2523, "annotation": {"number": 64, "value": 0}, "group": "control_change"}, {"time": 2527, "annotation": {"number": 64, "value": 127}, "group": "control_change"}, {"time": 2546, "annotation": {"number": 64, "value": 0}, "group": "control_change"}, {"time": 2550, "annotation": {"number": 64, "value": 127}, "group": "control_change"}, {"time": 2571, "annotation": {"number": 64, "value": 0}, "group": "control_change"}, {"time": 2575, "annotation": {"number": 64, "value": 127}, "group": "control_change"}, {"time": 2595, "annotation": {"number": 64, "value": 0}, "group": "control_change"}, {"time": 2599, "annotation": {"number": 64, "value": 127}, "group": "control_change"}, {"time": 2644, "annotation": {"number": 64, "value": 0}, "group": "control_change"}, {"time": 2647, "annotation": {"number": 64, "value": 127}, "group": "control_change"}, {"time": 2691, "annotation": {"number": 64, "value": 0}, "group": "control_change"}, {"time": 2694, "annotation": {"number": 64, "value": 127}, "group": "control_change"}, {"time": 2715, "annotation": {"number": 64, "value": 0}, "group": "control_change"}, {"time": 2719, "annotation": {"number": 64, "value": 127}, "group": "control_change"}, {"time": 2738, "annotation": {"number": 64, "value": 0}, "group": "control_change"}, {"time": 2743, "annotation": {"number": 64, "value": 127}, "group": "control_change"}, {"time": 2764, "annotation": {"number": 64, "value": 0}, "group": "control_change"}, {"time": 2768, "annotation": {"number": 64, "value": 127}, "group": "control_change"}, {"time": 2787, "annotation": {"number": 64, "value": 0}, "group": "control_change"}, {"time": 2791, "annotation": {"number": 64, "value": 127}, "group": "control_change"}, {"time": 2835, "annotation": {"number": 64, "value": 0}, "group": "control_change"}, {"time": 2840, "annotation": {"number": 64, "value": 127}, "group": "control_change"}, {"time": 2860, "annotation": {"number": 64, "value": 0}, "group": "control_change"}, {"time": 2864, "annotation": {"number": 64, "value": 127}, "group": "control_change"}, {"time": 2883, "annotation": {"number": 64, "value": 0}, "group": "control_change"}, {"time": 2887, "annotation": {"number": 64, "value": 127}, "group": "control_change"}, {"time": 2907, "annotation": {"number": 64, "value": 0}, "group": "control_change"}, {"time": 2911, "annotation": {"number": 64, "value": 127}, "group": "control_change"}, {"time": 2931, "annotation": {"number": 64, "value": 0}, "group": "control_change"}, {"time": 2935, "annotation": {"number": 64, "value": 127}, "group": "control_change"}, {"time": 2955, "annotation": {"number": 64, "value": 0}, "group": "control_change"}, {"time": 2960, "annotation": {"number": 64, "value": 127}, "group": "control_change"}, {"time": 2981, "annotation": {"number": 64, "value": 0}, "group": "control_change"}, {"time": 2983, "annotation": {"number": 64, "value": 127}, "group": "control_change"}, {"time": 3026, "annotation": {"number": 64, "value": 127}, "group": "control_change"}, {"time": 3028, "annotation": {"number": 64, "value": 0}, "group": "control_change"}, {"time": 3032, "annotation": {"number": 64, "value": 127}, "group": "control_change"}, {"time": 3038, "annotation": {"number": 64, "value": 0}, "group": "control_change"}, {"time": 3056, "annotation": {"number": 64, "value": 127}, "group": "control_change"}, {"time": 3056, "annotation": {"number": 64, "value": 0}, "group": "control_change"}, {"time": 3079, "annotation": {"number": 64, "value": 127}, "group": "control_change"}, {"time": 3099, "annotation": {"number": 64, "value": 0}, "group": "control_change"}, {"time": 3103, "annotation": {"number": 64, "value": 127}, "group": "control_change"}, {"time": 3125, "annotation": {"number": 64, "value": 0}, "group": "control_change"}, {"time": 3127, "annotation": {"number": 64, "value": 127}, "group": "control_change"}, {"time": 3147, "annotation": {"number": 64, "value": 0}, "group": "control_change"}, {"time": 3151, "annotation": {"number": 64, "value": 127}, "group": "control_change"}, {"time": 3171, "annotation": {"number": 64, "value": 0}, "group": "control_change"}, {"time": 3174, "annotation": {"number": 64, "value": 127}, "group": "control_change"}, {"time": 3195, "annotation": {"number": 64, "value": 0}, "group": "control_change"}, {"time": 3199, "annotation": {"number": 64, "value": 127}, "group": "control_change"}, {"time": 3218, "annotation": {"number": 64, "value": 0}, "group": "control_change"}, {"time": 3223, "annotation": {"number": 64, "value": 127}, "group": "control_change"}, {"time": 3243, "annotation": {"number": 64, "value": 0}, "group": "control_change"}, {"time": 3247, "annotation": {"number": 64, "value": 127}, "group": "control_change"}, {"time": 3268, "annotation": {"number": 64, "value": 0}, "group": "control_change"}, {"time": 3271, "annotation": {"number": 64, "value": 127}, "group": "control_change"}, {"time": 3291, "annotation": {"number": 64, "value": 0}, "group": "control_change"}, {"time": 3293, "annotation": {"number": 64, "value": 127}, "group": "control_change"}, {"time": 3316, "annotation": {"number": 64, "value": 0}, "group": "control_change"}, {"time": 3319, "annotation": {"number": 64, "value": 127}, "group": "control_change"}, {"time": 3340, "annotation": {"number": 64, "value": 0}, "group": "control_change"}, {"time": 3342, "annotation": {"number": 64, "value": 127}, "group": "control_change"}, {"time": 3364, "annotation": {"number": 64, "value": 0}, "group": "control_change"}, {"time": 3366, "annotation": {"number": 64, "value": 127}, "group": "control_change"}, {"time": 3387, "annotation": {"number": 64, "value": 0}, "group": "control_change"}, {"time": 3390, "annotation": {"number": 64, "value": 127}, "group": "control_change"}, {"time": 3412, "annotation": {"number": 64, "value": 0}, "group": "control_change"}, {"time": 3414, "annotation": {"number": 64, "value": 127}, "group": "control_change"}, {"time": 3435, "annotation": {"number": 64, "value": 0}, "group": "control_change"}, {"time": 3438, "annotation": {"number": 64, "value": 127}, "group": "control_change"}, {"time": 3460, "annotation": {"number": 64, "value": 0}, "group": "control_change"}, {"time": 3463, "annotation": {"number": 64, "value": 127}, "group": "control_change"}, {"time": 3484, "annotation": {"number": 64, "value": 0}, "group": "control_change"}, {"time": 3487, "annotation": {"number": 64, "value": 127}, "group": "control_change"}, {"time": 3507, "annotation": {"number": 64, "value": 0}, "group": "control_change"}, {"time": 3509, "annotation": {"number": 64, "value": 127}, "group": "control_change"}, {"time": 3512, "annotation": {"number": 64, "value": 127}, "group": "control_change"}, {"time": 3531, "annotation": {"number": 64, "value": 0}, "group": "control_change"}, {"time": 3535, "annotation": {"number": 64, "value": 127}, "group": "control_change"}, {"time": 3556, "annotation": {"number": 64, "value": 0}, "group": "control_change"}, {"time": 3558, "annotation": {"number": 64, "value": 127}, "group": "control_change"}, {"time": 3560, "annotation": {"number": 64, "value": 127}, "group": "control_change"}, {"time": 3603, "annotation": {"number": 64, "value": 0}, "group": "control_change"}, {"time": 3608, "annotation": {"number": 64, "value": 127}, "group": "control_change"}, {"time": 3654, "annotation": {"number": 64, "value": 0}, "group": "control_change"}, {"time": 3675, "annotation": {"number": 64, "value": 127}, "group": "control_change"}, {"time": 3689, "annotation": {"number": 64, "value": 0}, "group": "control_change"}, {"time": 3711, "annotation": {"number": 64, "value": 127}, "group": "control_change"}]}]}