{"metadata": {"schema_version": "0.2", "title": "None", "source_filename": "724.mid", "source_format": "midi"}, "resolution": 12, "tempos": [{"time": 0, "qpm": 84.76012883539583}], "time_signatures": [{"time": 0, "numerator": 1, "denominator": 4}], "tracks": [{"program": 0, "is_drum": false, "name": "MELODY", "notes": [{"time": 363, "pitch": 58, "duration": 7, "velocity": 96}, {"time": 369, "pitch": 53, "duration": 6, "velocity": 61}, {"time": 375, "pitch": 58, "duration": 5, "velocity": 86}, {"time": 381, "pitch": 61, "duration": 6, "velocity": 95}, {"time": 387, "pitch": 58, "duration": 11, "velocity": 85}, {"time": 405, "pitch": 56, "duration": 6, "velocity": 89}, {"time": 411, "pitch": 58, "duration": 6, "velocity": 93}, {"time": 417, "pitch": 70, "duration": 4, "velocity": 97}, {"time": 423, "pitch": 70, "duration": 5, "velocity": 83}, {"time": 429, "pitch": 68, "duration": 6, "velocity": 82}, {"time": 435, "pitch": 65, "duration": 11, "velocity": 86}, {"time": 459, "pitch": 63, "duration": 6, "velocity": 95}, {"time": 465, "pitch": 68, "duration": 14, "velocity": 99}, {"time": 477, "pitch": 70, "duration": 5, "velocity": 102}, {"time": 483, "pitch": 68, "duration": 6, "velocity": 90}, {"time": 489, "pitch": 65, "duration": 5, "velocity": 88}, {"time": 495, "pitch": 63, "duration": 6, "velocity": 88}, {"time": 501, "pitch": 61, "duration": 3, "velocity": 90}, {"time": 504, "pitch": 63, "duration": 4, "velocity": 88}, {"time": 507, "pitch": 65, "duration": 20, "velocity": 89}, {"time": 549, "pitch": 65, "duration": 3, "velocity": 85}, {"time": 555, "pitch": 65, "duration": 6, "velocity": 97}, {"time": 564, "pitch": 63, "duration": 2, "velocity": 82}, {"time": 567, "pitch": 63, "duration": 4, "velocity": 93}, {"time": 573, "pitch": 58, "duration": 5, "velocity": 95}, {"time": 579, "pitch": 61, "duration": 12, "velocity": 90}, {"time": 597, "pitch": 63, "duration": 7, "velocity": 81}, {"time": 603, "pitch": 53, "duration": 12, "velocity": 89}, {"time": 612, "pitch": 56, "duration": 3, "velocity": 73}, {"time": 615, "pitch": 58, "duration": 6, "velocity": 77}, {"time": 621, "pitch": 61, "duration": 7, "velocity": 82}, {"time": 627, "pitch": 58, "duration": 13, "velocity": 83}, {"time": 651, "pitch": 58, "duration": 6, "velocity": 85}, {"time": 657, "pitch": 63, "duration": 11, "velocity": 100}, {"time": 669, "pitch": 65, "duration": 6, "velocity": 90}, {"time": 675, "pitch": 61, "duration": 8, "velocity": 93}, {"time": 681, "pitch": 61, "duration": 2, "velocity": 102}, {"time": 687, "pitch": 63, "duration": 6, "velocity": 97}, {"time": 693, "pitch": 58, "duration": 6, "velocity": 93}, {"time": 699, "pitch": 56, "duration": 25, "velocity": 93}, {"time": 747, "pitch": 58, "duration": 7, "velocity": 96}, {"time": 753, "pitch": 53, "duration": 6, "velocity": 61}, {"time": 759, "pitch": 58, "duration": 5, "velocity": 86}, {"time": 765, "pitch": 61, "duration": 6, "velocity": 95}, {"time": 771, "pitch": 58, "duration": 11, "velocity": 85}, {"time": 789, "pitch": 56, "duration": 6, "velocity": 89}, {"time": 795, "pitch": 58, "duration": 6, "velocity": 93}, {"time": 801, "pitch": 70, "duration": 4, "velocity": 97}, {"time": 807, "pitch": 70, "duration": 5, "velocity": 83}, {"time": 813, "pitch": 68, "duration": 6, "velocity": 82}, {"time": 819, "pitch": 65, "duration": 11, "velocity": 86}, {"time": 843, "pitch": 63, "duration": 6, "velocity": 95}, {"time": 849, "pitch": 68, "duration": 14, "velocity": 99}, {"time": 861, "pitch": 70, "duration": 5, "velocity": 102}, {"time": 867, "pitch": 68, "duration": 6, "velocity": 90}, {"time": 873, "pitch": 65, "duration": 5, "velocity": 88}, {"time": 879, "pitch": 63, "duration": 6, "velocity": 88}, {"time": 885, "pitch": 61, "duration": 3, "velocity": 90}, {"time": 888, "pitch": 63, "duration": 4, "velocity": 88}, {"time": 891, "pitch": 65, "duration": 20, "velocity": 89}, {"time": 933, "pitch": 65, "duration": 3, "velocity": 85}, {"time": 939, "pitch": 65, "duration": 6, "velocity": 97}, {"time": 948, "pitch": 63, "duration": 2, "velocity": 82}, {"time": 951, "pitch": 63, "duration": 4, "velocity": 93}, {"time": 957, "pitch": 58, "duration": 5, "velocity": 95}, {"time": 963, "pitch": 61, "duration": 12, "velocity": 90}, {"time": 981, "pitch": 63, "duration": 7, "velocity": 81}, {"time": 987, "pitch": 53, "duration": 12, "velocity": 89}, {"time": 996, "pitch": 56, "duration": 3, "velocity": 73}, {"time": 999, "pitch": 58, "duration": 6, "velocity": 77}, {"time": 1005, "pitch": 61, "duration": 7, "velocity": 82}, {"time": 1011, "pitch": 58, "duration": 13, "velocity": 83}, {"time": 1035, "pitch": 58, "duration": 6, "velocity": 85}, {"time": 1041, "pitch": 63, "duration": 11, "velocity": 100}, {"time": 1053, "pitch": 65, "duration": 6, "velocity": 90}, {"time": 1059, "pitch": 63, "duration": 6, "velocity": 97}, {"time": 1065, "pitch": 61, "duration": 5, "velocity": 100}, {"time": 1071, "pitch": 58, "duration": 6, "velocity": 97}, {"time": 1077, "pitch": 56, "duration": 6, "velocity": 90}, {"time": 1080, "pitch": 58, "duration": 3, "velocity": 93}, {"time": 1083, "pitch": 61, "duration": 13, "velocity": 97}, {"time": 1125, "pitch": 61, "duration": 5, "velocity": 92}, {"time": 1131, "pitch": 63, "duration": 7, "velocity": 96}, {"time": 1140, "pitch": 61, "duration": 3, "velocity": 95}, {"time": 1143, "pitch": 63, "duration": 3, "velocity": 69}, {"time": 1146, "pitch": 61, "duration": 4, "velocity": 85}, {"time": 1149, "pitch": 63, "duration": 3, "velocity": 81}, {"time": 1152, "pitch": 65, "duration": 4, "velocity": 89}, {"time": 1155, "pitch": 61, "duration": 3, "velocity": 85}, {"time": 1158, "pitch": 58, "duration": 14, "velocity": 82}, {"time": 1173, "pitch": 68, "duration": 4, "velocity": 96}, {"time": 1176, "pitch": 65, "duration": 3, "velocity": 74}, {"time": 1179, "pitch": 63, "duration": 8, "velocity": 88}, {"time": 1188, "pitch": 61, "duration": 3, "velocity": 78}, {"time": 1191, "pitch": 63, "duration": 3, "velocity": 71}, {"time": 1194, "pitch": 61, "duration": 4, "velocity": 85}, {"time": 1197, "pitch": 63, "duration": 3, "velocity": 82}, {"time": 1200, "pitch": 65, "duration": 4, "velocity": 83}, {"time": 1203, "pitch": 63, "duration": 10, "velocity": 92}, {"time": 1221, "pitch": 65, "duration": 4, "velocity": 76}, {"time": 1224, "pitch": 68, "duration": 3, "velocity": 69}, {"time": 1227, "pitch": 70, "duration": 10, "velocity": 90}, {"time": 1236, "pitch": 68, "duration": 3, "velocity": 83}, {"time": 1239, "pitch": 70, "duration": 5, "velocity": 92}, {"time": 1245, "pitch": 73, "duration": 6, "velocity": 93}, {"time": 1251, "pitch": 70, "duration": 10, "velocity": 95}, {"time": 1269, "pitch": 65, "duration": 4, "velocity": 97}, {"time": 1275, "pitch": 63, "duration": 7, "velocity": 99}, {"time": 1284, "pitch": 61, "duration": 3, "velocity": 95}, {"time": 1287, "pitch": 63, "duration": 3, "velocity": 83}, {"time": 1290, "pitch": 61, "duration": 3, "velocity": 93}, {"time": 1293, "pitch": 63, "duration": 4, "velocity": 96}, {"time": 1296, "pitch": 65, "duration": 3, "velocity": 82}, {"time": 1299, "pitch": 68, "duration": 16, "velocity": 99}, {"time": 1317, "pitch": 61, "duration": 5, "velocity": 97}, {"time": 1323, "pitch": 63, "duration": 8, "velocity": 96}, {"time": 1332, "pitch": 61, "duration": 3, "velocity": 82}, {"time": 1335, "pitch": 63, "duration": 3, "velocity": 90}, {"time": 1338, "pitch": 61, "duration": 4, "velocity": 95}, {"time": 1341, "pitch": 63, "duration": 4, "velocity": 90}, {"time": 1344, "pitch": 65, "duration": 3, "velocity": 90}, {"time": 1347, "pitch": 61, "duration": 4, "velocity": 93}, {"time": 1350, "pitch": 58, "duration": 12, "velocity": 93}, {"time": 1365, "pitch": 68, "duration": 3, "velocity": 102}, {"time": 1368, "pitch": 65, "duration": 2, "velocity": 77}, {"time": 1371, "pitch": 63, "duration": 6, "velocity": 96}, {"time": 1380, "pitch": 61, "duration": 3, "velocity": 93}, {"time": 1383, "pitch": 63, "duration": 3, "velocity": 90}, {"time": 1386, "pitch": 61, "duration": 3, "velocity": 92}, {"time": 1389, "pitch": 63, "duration": 3, "velocity": 73}, {"time": 1392, "pitch": 65, "duration": 4, "velocity": 76}, {"time": 1395, "pitch": 63, "duration": 11, "velocity": 102}, {"time": 1413, "pitch": 65, "duration": 3, "velocity": 66}, {"time": 1416, "pitch": 68, "duration": 4, "velocity": 75}, {"time": 1419, "pitch": 70, "duration": 6, "velocity": 89}, {"time": 1428, "pitch": 68, "duration": 2, "velocity": 89}, {"time": 1431, "pitch": 70, "duration": 3, "velocity": 74}, {"time": 1434, "pitch": 68, "duration": 4, "velocity": 89}, {"time": 1437, "pitch": 70, "duration": 3, "velocity": 88}, {"time": 1440, "pitch": 73, "duration": 4, "velocity": 88}, {"time": 1443, "pitch": 70, "duration": 3, "velocity": 93}, {"time": 1449, "pitch": 70, "duration": 8, "velocity": 96}, {"time": 1461, "pitch": 65, "duration": 5, "velocity": 93}, {"time": 1467, "pitch": 68, "duration": 30, "velocity": 97}, {"time": 1515, "pitch": 58, "duration": 7, "velocity": 96}, {"time": 1521, "pitch": 53, "duration": 6, "velocity": 61}, {"time": 1527, "pitch": 58, "duration": 5, "velocity": 86}, {"time": 1533, "pitch": 61, "duration": 6, "velocity": 95}, {"time": 1539, "pitch": 58, "duration": 11, "velocity": 85}, {"time": 1557, "pitch": 56, "duration": 6, "velocity": 89}, {"time": 1563, "pitch": 58, "duration": 6, "velocity": 93}, {"time": 1569, "pitch": 70, "duration": 4, "velocity": 97}, {"time": 1575, "pitch": 70, "duration": 5, "velocity": 83}, {"time": 1581, "pitch": 68, "duration": 6, "velocity": 82}, {"time": 1587, "pitch": 65, "duration": 11, "velocity": 86}, {"time": 1611, "pitch": 63, "duration": 6, "velocity": 95}, {"time": 1617, "pitch": 68, "duration": 14, "velocity": 99}, {"time": 1629, "pitch": 70, "duration": 5, "velocity": 102}, {"time": 1635, "pitch": 68, "duration": 6, "velocity": 90}, {"time": 1641, "pitch": 65, "duration": 5, "velocity": 88}, {"time": 1647, "pitch": 63, "duration": 6, "velocity": 88}, {"time": 1653, "pitch": 61, "duration": 3, "velocity": 90}, {"time": 1656, "pitch": 63, "duration": 4, "velocity": 88}, {"time": 1659, "pitch": 65, "duration": 20, "velocity": 89}, {"time": 1701, "pitch": 65, "duration": 3, "velocity": 85}, {"time": 1707, "pitch": 65, "duration": 6, "velocity": 97}, {"time": 1716, "pitch": 63, "duration": 2, "velocity": 82}, {"time": 1719, "pitch": 63, "duration": 4, "velocity": 93}, {"time": 1725, "pitch": 58, "duration": 5, "velocity": 95}, {"time": 1731, "pitch": 61, "duration": 12, "velocity": 90}, {"time": 1749, "pitch": 63, "duration": 7, "velocity": 81}, {"time": 1755, "pitch": 53, "duration": 12, "velocity": 89}, {"time": 1764, "pitch": 56, "duration": 3, "velocity": 73}, {"time": 1767, "pitch": 58, "duration": 6, "velocity": 77}, {"time": 1773, "pitch": 61, "duration": 7, "velocity": 82}, {"time": 1779, "pitch": 58, "duration": 13, "velocity": 83}, {"time": 1803, "pitch": 58, "duration": 6, "velocity": 85}, {"time": 1809, "pitch": 63, "duration": 11, "velocity": 100}, {"time": 1821, "pitch": 65, "duration": 6, "velocity": 90}, {"time": 1827, "pitch": 63, "duration": 6, "velocity": 93}, {"time": 1833, "pitch": 63, "duration": 3, "velocity": 100}, {"time": 1836, "pitch": 61, "duration": 3, "velocity": 83}, {"time": 1839, "pitch": 58, "duration": 6, "velocity": 100}, {"time": 1845, "pitch": 56, "duration": 7, "velocity": 89}, {"time": 1848, "pitch": 58, "duration": 5, "velocity": 93}, {"time": 1851, "pitch": 61, "duration": 10, "velocity": 100}, {"time": 2277, "pitch": 61, "duration": 5, "velocity": 92}, {"time": 2283, "pitch": 63, "duration": 7, "velocity": 96}, {"time": 2292, "pitch": 61, "duration": 3, "velocity": 95}, {"time": 2295, "pitch": 63, "duration": 3, "velocity": 69}, {"time": 2298, "pitch": 61, "duration": 4, "velocity": 85}, {"time": 2301, "pitch": 63, "duration": 3, "velocity": 81}, {"time": 2304, "pitch": 65, "duration": 4, "velocity": 89}, {"time": 2307, "pitch": 61, "duration": 3, "velocity": 85}, {"time": 2310, "pitch": 58, "duration": 14, "velocity": 82}, {"time": 2325, "pitch": 68, "duration": 4, "velocity": 96}, {"time": 2328, "pitch": 65, "duration": 3, "velocity": 74}, {"time": 2331, "pitch": 63, "duration": 8, "velocity": 88}, {"time": 2340, "pitch": 61, "duration": 3, "velocity": 78}, {"time": 2343, "pitch": 63, "duration": 3, "velocity": 71}, {"time": 2346, "pitch": 61, "duration": 4, "velocity": 85}, {"time": 2349, "pitch": 63, "duration": 3, "velocity": 82}, {"time": 2352, "pitch": 65, "duration": 4, "velocity": 83}, {"time": 2355, "pitch": 63, "duration": 10, "velocity": 92}, {"time": 2373, "pitch": 65, "duration": 4, "velocity": 76}, {"time": 2376, "pitch": 68, "duration": 3, "velocity": 69}, {"time": 2379, "pitch": 70, "duration": 10, "velocity": 90}, {"time": 2388, "pitch": 68, "duration": 3, "velocity": 83}, {"time": 2391, "pitch": 70, "duration": 5, "velocity": 92}, {"time": 2397, "pitch": 73, "duration": 6, "velocity": 93}, {"time": 2403, "pitch": 70, "duration": 10, "velocity": 95}, {"time": 2421, "pitch": 65, "duration": 4, "velocity": 97}, {"time": 2427, "pitch": 63, "duration": 7, "velocity": 99}, {"time": 2436, "pitch": 61, "duration": 3, "velocity": 95}, {"time": 2439, "pitch": 63, "duration": 3, "velocity": 83}, {"time": 2442, "pitch": 61, "duration": 3, "velocity": 93}, {"time": 2445, "pitch": 63, "duration": 4, "velocity": 96}, {"time": 2448, "pitch": 65, "duration": 3, "velocity": 82}, {"time": 2451, "pitch": 68, "duration": 16, "velocity": 99}, {"time": 2469, "pitch": 61, "duration": 5, "velocity": 97}, {"time": 2475, "pitch": 63, "duration": 8, "velocity": 96}, {"time": 2484, "pitch": 61, "duration": 3, "velocity": 82}, {"time": 2487, "pitch": 63, "duration": 3, "velocity": 90}, {"time": 2490, "pitch": 61, "duration": 4, "velocity": 95}, {"time": 2493, "pitch": 63, "duration": 4, "velocity": 90}, {"time": 2496, "pitch": 65, "duration": 3, "velocity": 90}, {"time": 2499, "pitch": 61, "duration": 4, "velocity": 93}, {"time": 2502, "pitch": 58, "duration": 12, "velocity": 93}, {"time": 2517, "pitch": 68, "duration": 3, "velocity": 102}, {"time": 2520, "pitch": 65, "duration": 2, "velocity": 77}, {"time": 2523, "pitch": 63, "duration": 6, "velocity": 96}, {"time": 2532, "pitch": 61, "duration": 3, "velocity": 93}, {"time": 2535, "pitch": 63, "duration": 3, "velocity": 90}, {"time": 2538, "pitch": 61, "duration": 3, "velocity": 92}, {"time": 2541, "pitch": 63, "duration": 3, "velocity": 73}, {"time": 2544, "pitch": 65, "duration": 4, "velocity": 76}, {"time": 2547, "pitch": 63, "duration": 11, "velocity": 102}, {"time": 2565, "pitch": 65, "duration": 3, "velocity": 66}, {"time": 2568, "pitch": 68, "duration": 4, "velocity": 75}, {"time": 2571, "pitch": 70, "duration": 6, "velocity": 89}, {"time": 2580, "pitch": 68, "duration": 2, "velocity": 89}, {"time": 2583, "pitch": 70, "duration": 3, "velocity": 74}, {"time": 2586, "pitch": 68, "duration": 4, "velocity": 89}, {"time": 2589, "pitch": 70, "duration": 3, "velocity": 88}, {"time": 2592, "pitch": 73, "duration": 4, "velocity": 88}, {"time": 2595, "pitch": 70, "duration": 3, "velocity": 93}, {"time": 2601, "pitch": 70, "duration": 8, "velocity": 96}, {"time": 2613, "pitch": 65, "duration": 5, "velocity": 93}, {"time": 2619, "pitch": 68, "duration": 30, "velocity": 97}, {"time": 2667, "pitch": 58, "duration": 7, "velocity": 96}, {"time": 2673, "pitch": 53, "duration": 6, "velocity": 61}, {"time": 2679, "pitch": 58, "duration": 5, "velocity": 86}, {"time": 2685, "pitch": 61, "duration": 6, "velocity": 95}, {"time": 2691, "pitch": 58, "duration": 11, "velocity": 85}, {"time": 2709, "pitch": 56, "duration": 6, "velocity": 89}, {"time": 2715, "pitch": 58, "duration": 6, "velocity": 93}, {"time": 2721, "pitch": 70, "duration": 4, "velocity": 97}, {"time": 2727, "pitch": 70, "duration": 5, "velocity": 83}, {"time": 2733, "pitch": 68, "duration": 6, "velocity": 82}, {"time": 2739, "pitch": 65, "duration": 11, "velocity": 86}, {"time": 2763, "pitch": 63, "duration": 6, "velocity": 95}, {"time": 2769, "pitch": 68, "duration": 14, "velocity": 99}, {"time": 2781, "pitch": 70, "duration": 5, "velocity": 102}, {"time": 2787, "pitch": 68, "duration": 6, "velocity": 90}, {"time": 2793, "pitch": 65, "duration": 5, "velocity": 88}, {"time": 2799, "pitch": 63, "duration": 6, "velocity": 88}, {"time": 2805, "pitch": 61, "duration": 3, "velocity": 90}, {"time": 2808, "pitch": 63, "duration": 4, "velocity": 88}, {"time": 2811, "pitch": 65, "duration": 20, "velocity": 89}, {"time": 2853, "pitch": 65, "duration": 3, "velocity": 85}, {"time": 2859, "pitch": 65, "duration": 6, "velocity": 97}, {"time": 2868, "pitch": 63, "duration": 2, "velocity": 82}, {"time": 2871, "pitch": 63, "duration": 4, "velocity": 93}, {"time": 2877, "pitch": 58, "duration": 5, "velocity": 95}, {"time": 2883, "pitch": 61, "duration": 12, "velocity": 90}, {"time": 2901, "pitch": 63, "duration": 7, "velocity": 81}, {"time": 2907, "pitch": 53, "duration": 12, "velocity": 89}, {"time": 2916, "pitch": 56, "duration": 3, "velocity": 73}, {"time": 2919, "pitch": 58, "duration": 6, "velocity": 77}, {"time": 2925, "pitch": 61, "duration": 7, "velocity": 82}, {"time": 2931, "pitch": 58, "duration": 13, "velocity": 83}, {"time": 2955, "pitch": 58, "duration": 6, "velocity": 85}, {"time": 2961, "pitch": 63, "duration": 11, "velocity": 100}, {"time": 2973, "pitch": 65, "duration": 6, "velocity": 90}, {"time": 2979, "pitch": 63, "duration": 6, "velocity": 93}, {"time": 2985, "pitch": 63, "duration": 3, "velocity": 100}, {"time": 2988, "pitch": 61, "duration": 3, "velocity": 83}, {"time": 2991, "pitch": 58, "duration": 6, "velocity": 100}, {"time": 2997, "pitch": 56, "duration": 7, "velocity": 89}, {"time": 3000, "pitch": 58, "duration": 5, "velocity": 93}, {"time": 3003, "pitch": 61, "duration": 10, "velocity": 100}]}, {"program": 0, "is_drum": false, "name": "PIANO", "notes": [{"time": 3, "pitch": 46, "duration": 22, "velocity": 89}, {"time": 9, "pitch": 53, "duration": 17, "velocity": 57}, {"time": 15, "pitch": 65, "duration": 21, "velocity": 93}, {"time": 21, "pitch": 61, "duration": 16, "velocity": 60}, {"time": 27, "pitch": 46, "duration": 23, "velocity": 74}, {"time": 33, "pitch": 53, "duration": 13, "velocity": 76}, {"time": 39, "pitch": 65, "duration": 14, "velocity": 89}, {"time": 45, "pitch": 58, "duration": 6, "velocity": 90}, {"time": 51, "pitch": 49, "duration": 15, "velocity": 83}, {"time": 54, "pitch": 56, "duration": 8, "velocity": 59}, {"time": 63, "pitch": 61, "duration": 3, "velocity": 76}, {"time": 63, "pitch": 65, "duration": 13, "velocity": 92}, {"time": 69, "pitch": 56, "duration": 6, "velocity": 54}, {"time": 75, "pitch": 44, "duration": 22, "velocity": 73}, {"time": 81, "pitch": 51, "duration": 18, "velocity": 55}, {"time": 84, "pitch": 56, "duration": 7, "velocity": 82}, {"time": 87, "pitch": 63, "duration": 11, "velocity": 76}, {"time": 93, "pitch": 60, "duration": 6, "velocity": 71}, {"time": 99, "pitch": 49, "duration": 11, "velocity": 96}, {"time": 105, "pitch": 61, "duration": 6, "velocity": 86}, {"time": 111, "pitch": 51, "duration": 11, "velocity": 88}, {"time": 117, "pitch": 63, "duration": 6, "velocity": 96}, {"time": 123, "pitch": 46, "duration": 22, "velocity": 63}, {"time": 129, "pitch": 53, "duration": 18, "velocity": 48}, {"time": 135, "pitch": 65, "duration": 36, "velocity": 86}, {"time": 141, "pitch": 61, "duration": 19, "velocity": 65}, {"time": 144, "pitch": 46, "duration": 1, "velocity": 65}, {"time": 153, "pitch": 53, "duration": 18, "velocity": 90}, {"time": 159, "pitch": 60, "duration": 7, "velocity": 90}, {"time": 165, "pitch": 61, "duration": 6, "velocity": 70}, {"time": 171, "pitch": 42, "duration": 37, "velocity": 72}, {"time": 177, "pitch": 49, "duration": 30, "velocity": 52}, {"time": 183, "pitch": 61, "duration": 20, "velocity": 96}, {"time": 189, "pitch": 58, "duration": 10, "velocity": 78}, {"time": 192, "pitch": 54, "duration": 8, "velocity": 72}, {"time": 198, "pitch": 58, "duration": 1, "velocity": 68}, {"time": 207, "pitch": 61, "duration": 16, "velocity": 92}, {"time": 213, "pitch": 58, "duration": 6, "velocity": 62}, {"time": 219, "pitch": 37, "duration": 13, "velocity": 79}, {"time": 225, "pitch": 56, "duration": 13, "velocity": 72}, {"time": 231, "pitch": 65, "duration": 15, "velocity": 85}, {"time": 237, "pitch": 61, "duration": 8, "velocity": 69}, {"time": 243, "pitch": 46, "duration": 15, "velocity": 72}, {"time": 249, "pitch": 53, "duration": 7, "velocity": 72}, {"time": 255, "pitch": 65, "duration": 13, "velocity": 90}, {"time": 261, "pitch": 61, "duration": 7, "velocity": 63}, {"time": 267, "pitch": 39, "duration": 14, "velocity": 72}, {"time": 273, "pitch": 46, "duration": 9, "velocity": 56}, {"time": 279, "pitch": 63, "duration": 13, "velocity": 67}, {"time": 279, "pitch": 66, "duration": 13, "velocity": 71}, {"time": 285, "pitch": 58, "duration": 8, "velocity": 77}, {"time": 291, "pitch": 44, "duration": 14, "velocity": 72}, {"time": 297, "pitch": 51, "duration": 7, "velocity": 42}, {"time": 303, "pitch": 60, "duration": 11, "velocity": 75}, {"time": 303, "pitch": 63, "duration": 12, "velocity": 78}, {"time": 309, "pitch": 56, "duration": 7, "velocity": 63}, {"time": 315, "pitch": 37, "duration": 38, "velocity": 72}, {"time": 321, "pitch": 44, "duration": 31, "velocity": 44}, {"time": 327, "pitch": 49, "duration": 15, "velocity": 70}, {"time": 333, "pitch": 56, "duration": 8, "velocity": 81}, {"time": 339, "pitch": 65, "duration": 19, "velocity": 85}, {"time": 345, "pitch": 49, "duration": 10, "velocity": 64}, {"time": 351, "pitch": 63, "duration": 7, "velocity": 68}, {"time": 357, "pitch": 61, "duration": 10, "velocity": 67}, {"time": 360, "pitch": 46, "duration": 22, "velocity": 67}, {"time": 369, "pitch": 53, "duration": 18, "velocity": 75}, {"time": 375, "pitch": 65, "duration": 22, "velocity": 85}, {"time": 381, "pitch": 61, "duration": 16, "velocity": 70}, {"time": 387, "pitch": 46, "duration": 22, "velocity": 81}, {"time": 393, "pitch": 53, "duration": 17, "velocity": 72}, {"time": 399, "pitch": 65, "duration": 16, "velocity": 86}, {"time": 405, "pitch": 61, "duration": 10, "velocity": 76}, {"time": 411, "pitch": 46, "duration": 17, "velocity": 86}, {"time": 417, "pitch": 58, "duration": 12, "velocity": 71}, {"time": 423, "pitch": 65, "duration": 8, "velocity": 96}, {"time": 429, "pitch": 48, "duration": 6, "velocity": 95}, {"time": 435, "pitch": 49, "duration": 24, "velocity": 68}, {"time": 441, "pitch": 56, "duration": 19, "velocity": 73}, {"time": 447, "pitch": 65, "duration": 12, "velocity": 81}, {"time": 453, "pitch": 61, "duration": 6, "velocity": 68}, {"time": 456, "pitch": 44, "duration": 15, "velocity": 69}, {"time": 465, "pitch": 51, "duration": 11, "velocity": 59}, {"time": 471, "pitch": 63, "duration": 10, "velocity": 97}, {"time": 477, "pitch": 44, "duration": 6, "velocity": 92}, {"time": 483, "pitch": 49, "duration": 10, "velocity": 81}, {"time": 486, "pitch": 56, "duration": 7, "velocity": 86}, {"time": 492, "pitch": 39, "duration": 10, "velocity": 89}, {"time": 501, "pitch": 56, "duration": 5, "velocity": 82}, {"time": 507, "pitch": 46, "duration": 22, "velocity": 86}, {"time": 513, "pitch": 53, "duration": 18, "velocity": 71}, {"time": 519, "pitch": 65, "duration": 17, "velocity": 93}, {"time": 525, "pitch": 61, "duration": 12, "velocity": 79}, {"time": 531, "pitch": 46, "duration": 17, "velocity": 68}, {"time": 537, "pitch": 53, "duration": 10, "velocity": 66}, {"time": 540, "pitch": 58, "duration": 3, "velocity": 76}, {"time": 543, "pitch": 65, "duration": 11, "velocity": 89}, {"time": 549, "pitch": 61, "duration": 5, "velocity": 85}, {"time": 555, "pitch": 42, "duration": 22, "velocity": 78}, {"time": 561, "pitch": 49, "duration": 19, "velocity": 42}, {"time": 567, "pitch": 54, "duration": 8, "velocity": 78}, {"time": 567, "pitch": 66, "duration": 23, "velocity": 60}, {"time": 573, "pitch": 61, "duration": 21, "velocity": 81}, {"time": 579, "pitch": 42, "duration": 17, "velocity": 63}, {"time": 585, "pitch": 49, "duration": 10, "velocity": 63}, {"time": 591, "pitch": 54, "duration": 4, "velocity": 79}, {"time": 591, "pitch": 70, "duration": 10, "velocity": 96}, {"time": 597, "pitch": 61, "duration": 6, "velocity": 77}, {"time": 600, "pitch": 37, "duration": 14, "velocity": 73}, {"time": 609, "pitch": 44, "duration": 8, "velocity": 61}, {"time": 615, "pitch": 65, "duration": 13, "velocity": 90}, {"time": 621, "pitch": 56, "duration": 5, "velocity": 74}, {"time": 624, "pitch": 46, "duration": 16, "velocity": 74}, {"time": 633, "pitch": 53, "duration": 8, "velocity": 83}, {"time": 639, "pitch": 65, "duration": 12, "velocity": 92}, {"time": 645, "pitch": 61, "duration": 7, "velocity": 77}, {"time": 651, "pitch": 39, "duration": 21, "velocity": 88}, {"time": 657, "pitch": 46, "duration": 19, "velocity": 60}, {"time": 660, "pitch": 66, "duration": 26, "velocity": 77}, {"time": 663, "pitch": 51, "duration": 8, "velocity": 82}, {"time": 669, "pitch": 63, "duration": 16, "velocity": 85}, {"time": 675, "pitch": 39, "duration": 16, "velocity": 78}, {"time": 681, "pitch": 46, "duration": 11, "velocity": 60}, {"time": 687, "pitch": 51, "duration": 7, "velocity": 72}, {"time": 687, "pitch": 63, "duration": 13, "velocity": 93}, {"time": 693, "pitch": 58, "duration": 7, "velocity": 82}, {"time": 699, "pitch": 44, "duration": 21, "velocity": 68}, {"time": 705, "pitch": 51, "duration": 19, "velocity": 58}, {"time": 711, "pitch": 56, "duration": 5, "velocity": 95}, {"time": 717, "pitch": 60, "duration": 5, "velocity": 89}, {"time": 717, "pitch": 63, "duration": 5, "velocity": 90}, {"time": 723, "pitch": 44, "duration": 19, "velocity": 92}, {"time": 723, "pitch": 56, "duration": 4, "velocity": 83}, {"time": 723, "pitch": 60, "duration": 4, "velocity": 85}, {"time": 723, "pitch": 63, "duration": 5, "velocity": 93}, {"time": 729, "pitch": 51, "duration": 19, "velocity": 81}, {"time": 735, "pitch": 56, "duration": 5, "velocity": 90}, {"time": 735, "pitch": 68, "duration": 12, "velocity": 96}, {"time": 735, "pitch": 72, "duration": 12, "velocity": 95}, {"time": 741, "pitch": 63, "duration": 7, "velocity": 86}, {"time": 747, "pitch": 46, "duration": 20, "velocity": 86}, {"time": 753, "pitch": 53, "duration": 17, "velocity": 55}, {"time": 759, "pitch": 65, "duration": 21, "velocity": 99}, {"time": 765, "pitch": 61, "duration": 15, "velocity": 89}, {"time": 771, "pitch": 46, "duration": 22, "velocity": 79}, {"time": 777, "pitch": 53, "duration": 16, "velocity": 78}, {"time": 783, "pitch": 65, "duration": 20, "velocity": 93}, {"time": 789, "pitch": 58, "duration": 9, "velocity": 97}, {"time": 795, "pitch": 46, "duration": 17, "velocity": 93}, {"time": 801, "pitch": 58, "duration": 11, "velocity": 75}, {"time": 807, "pitch": 65, "duration": 8, "velocity": 100}, {"time": 813, "pitch": 48, "duration": 5, "velocity": 78}, {"time": 819, "pitch": 49, "duration": 23, "velocity": 93}, {"time": 822, "pitch": 56, "duration": 10, "velocity": 75}, {"time": 831, "pitch": 65, "duration": 13, "velocity": 92}, {"time": 837, "pitch": 61, "duration": 7, "velocity": 79}, {"time": 843, "pitch": 44, "duration": 19, "velocity": 77}, {"time": 849, "pitch": 51, "duration": 11, "velocity": 78}, {"time": 855, "pitch": 63, "duration": 11, "velocity": 90}, {"time": 861, "pitch": 60, "duration": 5, "velocity": 96}, {"time": 867, "pitch": 37, "duration": 11, "velocity": 93}, {"time": 873, "pitch": 56, "duration": 7, "velocity": 89}, {"time": 879, "pitch": 39, "duration": 7, "velocity": 90}, {"time": 885, "pitch": 63, "duration": 7, "velocity": 95}, {"time": 891, "pitch": 46, "duration": 21, "velocity": 78}, {"time": 897, "pitch": 53, "duration": 19, "velocity": 73}, {"time": 903, "pitch": 65, "duration": 24, "velocity": 95}, {"time": 909, "pitch": 61, "duration": 15, "velocity": 86}, {"time": 912, "pitch": 46, "duration": 1, "velocity": 68}, {"time": 921, "pitch": 53, "duration": 10, "velocity": 96}, {"time": 927, "pitch": 61, "duration": 7, "velocity": 96}, {"time": 933, "pitch": 60, "duration": 8, "velocity": 77}, {"time": 939, "pitch": 42, "duration": 21, "velocity": 78}, {"time": 945, "pitch": 49, "duration": 18, "velocity": 57}, {"time": 951, "pitch": 61, "duration": 23, "velocity": 90}, {"time": 957, "pitch": 58, "duration": 18, "velocity": 92}, {"time": 963, "pitch": 42, "duration": 20, "velocity": 79}, {"time": 969, "pitch": 49, "duration": 14, "velocity": 56}, {"time": 975, "pitch": 54, "duration": 5, "velocity": 76}, {"time": 975, "pitch": 61, "duration": 16, "velocity": 75}, {"time": 981, "pitch": 58, "duration": 6, "velocity": 83}, {"time": 987, "pitch": 37, "duration": 17, "velocity": 77}, {"time": 993, "pitch": 56, "duration": 18, "velocity": 75}, {"time": 996, "pitch": 65, "duration": 16, "velocity": 96}, {"time": 999, "pitch": 44, "duration": 6, "velocity": 58}, {"time": 1005, "pitch": 61, "duration": 9, "velocity": 75}, {"time": 1011, "pitch": 46, "duration": 20, "velocity": 73}, {"time": 1017, "pitch": 53, "duration": 13, "velocity": 69}, {"time": 1023, "pitch": 65, "duration": 12, "velocity": 90}, {"time": 1029, "pitch": 61, "duration": 6, "velocity": 90}, {"time": 1035, "pitch": 39, "duration": 15, "velocity": 74}, {"time": 1041, "pitch": 46, "duration": 9, "velocity": 66}, {"time": 1047, "pitch": 51, "duration": 11, "velocity": 85}, {"time": 1047, "pitch": 66, "duration": 12, "velocity": 96}, {"time": 1053, "pitch": 63, "duration": 6, "velocity": 78}, {"time": 1059, "pitch": 44, "duration": 16, "velocity": 82}, {"time": 1065, "pitch": 51, "duration": 8, "velocity": 70}, {"time": 1071, "pitch": 63, "duration": 12, "velocity": 102}, {"time": 1077, "pitch": 60, "duration": 6, "velocity": 83}, {"time": 1083, "pitch": 37, "duration": 22, "velocity": 82}, {"time": 1089, "pitch": 44, "duration": 19, "velocity": 48}, {"time": 1095, "pitch": 49, "duration": 15, "velocity": 86}, {"time": 1095, "pitch": 61, "duration": 21, "velocity": 76}, {"time": 1095, "pitch": 65, "duration": 22, "velocity": 73}, {"time": 1101, "pitch": 56, "duration": 15, "velocity": 75}, {"time": 1107, "pitch": 37, "duration": 18, "velocity": 83}, {"time": 1113, "pitch": 44, "duration": 18, "velocity": 86}, {"time": 1119, "pitch": 49, "duration": 3, "velocity": 93}, {"time": 1119, "pitch": 61, "duration": 11, "velocity": 88}, {"time": 1119, "pitch": 65, "duration": 12, "velocity": 85}, {"time": 1125, "pitch": 56, "duration": 5, "velocity": 77}, {"time": 1131, "pitch": 39, "duration": 19, "velocity": 88}, {"time": 1134, "pitch": 46, "duration": 16, "velocity": 90}, {"time": 1137, "pitch": 51, "duration": 6, "velocity": 92}, {"time": 1140, "pitch": 58, "duration": 5, "velocity": 74}, {"time": 1143, "pitch": 66, "duration": 10, "velocity": 102}, {"time": 1146, "pitch": 51, "duration": 5, "velocity": 89}, {"time": 1149, "pitch": 63, "duration": 5, "velocity": 96}, {"time": 1152, "pitch": 58, "duration": 4, "velocity": 90}, {"time": 1155, "pitch": 46, "duration": 18, "velocity": 77}, {"time": 1158, "pitch": 53, "duration": 10, "velocity": 72}, {"time": 1161, "pitch": 58, "duration": 4, "velocity": 93}, {"time": 1164, "pitch": 61, "duration": 3, "velocity": 90}, {"time": 1167, "pitch": 65, "duration": 10, "velocity": 96}, {"time": 1170, "pitch": 53, "duration": 2, "velocity": 77}, {"time": 1173, "pitch": 61, "duration": 4, "velocity": 95}, {"time": 1176, "pitch": 58, "duration": 5, "velocity": 89}, {"time": 1179, "pitch": 39, "duration": 16, "velocity": 63}, {"time": 1182, "pitch": 46, "duration": 13, "velocity": 83}, {"time": 1185, "pitch": 51, "duration": 7, "velocity": 89}, {"time": 1188, "pitch": 58, "duration": 5, "velocity": 90}, {"time": 1191, "pitch": 66, "duration": 11, "velocity": 90}, {"time": 1194, "pitch": 51, "duration": 6, "velocity": 66}, {"time": 1197, "pitch": 63, "duration": 5, "velocity": 83}, {"time": 1200, "pitch": 58, "duration": 4, "velocity": 92}, {"time": 1203, "pitch": 44, "duration": 20, "velocity": 81}, {"time": 1206, "pitch": 51, "duration": 10, "velocity": 66}, {"time": 1209, "pitch": 56, "duration": 4, "velocity": 82}, {"time": 1212, "pitch": 60, "duration": 3, "velocity": 82}, {"time": 1215, "pitch": 63, "duration": 11, "velocity": 92}, {"time": 1218, "pitch": 51, "duration": 8, "velocity": 56}, {"time": 1221, "pitch": 60, "duration": 5, "velocity": 77}, {"time": 1224, "pitch": 56, "duration": 3, "velocity": 81}, {"time": 1227, "pitch": 46, "duration": 21, "velocity": 76}, {"time": 1230, "pitch": 53, "duration": 10, "velocity": 41}, {"time": 1233, "pitch": 58, "duration": 5, "velocity": 72}, {"time": 1236, "pitch": 61, "duration": 3, "velocity": 89}, {"time": 1239, "pitch": 65, "duration": 10, "velocity": 89}, {"time": 1242, "pitch": 53, "duration": 8, "velocity": 70}, {"time": 1245, "pitch": 61, "duration": 5, "velocity": 96}, {"time": 1248, "pitch": 58, "duration": 3, "velocity": 85}, {"time": 1251, "pitch": 46, "duration": 19, "velocity": 71}, {"time": 1254, "pitch": 53, "duration": 10, "velocity": 81}, {"time": 1257, "pitch": 58, "duration": 4, "velocity": 82}, {"time": 1260, "pitch": 61, "duration": 3, "velocity": 76}, {"time": 1263, "pitch": 65, "duration": 10, "velocity": 97}, {"time": 1266, "pitch": 53, "duration": 3, "velocity": 72}, {"time": 1269, "pitch": 61, "duration": 4, "velocity": 85}, {"time": 1272, "pitch": 58, "duration": 3, "velocity": 83}, {"time": 1275, "pitch": 44, "duration": 20, "velocity": 72}, {"time": 1278, "pitch": 51, "duration": 10, "velocity": 67}, {"time": 1281, "pitch": 56, "duration": 4, "velocity": 82}, {"time": 1284, "pitch": 60, "duration": 3, "velocity": 92}, {"time": 1287, "pitch": 63, "duration": 11, "velocity": 85}, {"time": 1290, "pitch": 51, "duration": 8, "velocity": 71}, {"time": 1293, "pitch": 60, "duration": 5, "velocity": 83}, {"time": 1296, "pitch": 56, "duration": 2, "velocity": 79}, {"time": 1299, "pitch": 44, "duration": 19, "velocity": 66}, {"time": 1302, "pitch": 51, "duration": 15, "velocity": 71}, {"time": 1305, "pitch": 56, "duration": 7, "velocity": 72}, {"time": 1308, "pitch": 60, "duration": 4, "velocity": 85}, {"time": 1311, "pitch": 63, "duration": 7, "velocity": 90}, {"time": 1314, "pitch": 56, "duration": 2, "velocity": 85}, {"time": 1317, "pitch": 60, "duration": 5, "velocity": 82}, {"time": 1320, "pitch": 63, "duration": 3, "velocity": 61}, {"time": 1323, "pitch": 39, "duration": 17, "velocity": 50}, {"time": 1326, "pitch": 46, "duration": 14, "velocity": 63}, {"time": 1329, "pitch": 51, "duration": 7, "velocity": 85}, {"time": 1332, "pitch": 58, "duration": 5, "velocity": 72}, {"time": 1335, "pitch": 66, "duration": 11, "velocity": 86}, {"time": 1338, "pitch": 51, "duration": 8, "velocity": 75}, {"time": 1341, "pitch": 63, "duration": 5, "velocity": 79}, {"time": 1344, "pitch": 58, "duration": 4, "velocity": 81}, {"time": 1347, "pitch": 46, "duration": 19, "velocity": 66}, {"time": 1350, "pitch": 53, "duration": 11, "velocity": 64}, {"time": 1353, "pitch": 58, "duration": 5, "velocity": 85}, {"time": 1356, "pitch": 61, "duration": 3, "velocity": 83}, {"time": 1359, "pitch": 65, "duration": 10, "velocity": 86}, {"time": 1362, "pitch": 53, "duration": 3, "velocity": 58}, {"time": 1365, "pitch": 61, "duration": 4, "velocity": 79}, {"time": 1368, "pitch": 39, "duration": 17, "velocity": 69}, {"time": 1368, "pitch": 58, "duration": 4, "velocity": 83}, {"time": 1374, "pitch": 46, "duration": 13, "velocity": 75}, {"time": 1377, "pitch": 51, "duration": 7, "velocity": 78}, {"time": 1380, "pitch": 58, "duration": 5, "velocity": 78}, {"time": 1383, "pitch": 66, "duration": 10, "velocity": 92}, {"time": 1386, "pitch": 51, "duration": 9, "velocity": 74}, {"time": 1389, "pitch": 63, "duration": 4, "velocity": 82}, {"time": 1392, "pitch": 58, "duration": 4, "velocity": 86}, {"time": 1395, "pitch": 44, "duration": 21, "velocity": 65}, {"time": 1398, "pitch": 51, "duration": 10, "velocity": 53}, {"time": 1401, "pitch": 56, "duration": 5, "velocity": 88}, {"time": 1404, "pitch": 60, "duration": 3, "velocity": 79}, {"time": 1407, "pitch": 63, "duration": 11, "velocity": 93}, {"time": 1410, "pitch": 51, "duration": 8, "velocity": 54}, {"time": 1413, "pitch": 60, "duration": 4, "velocity": 81}, {"time": 1416, "pitch": 56, "duration": 3, "velocity": 78}, {"time": 1419, "pitch": 46, "duration": 12, "velocity": 102}, {"time": 1425, "pitch": 58, "duration": 4, "velocity": 86}, {"time": 1428, "pitch": 65, "duration": 4, "velocity": 85}, {"time": 1431, "pitch": 44, "duration": 7, "velocity": 76}, {"time": 1437, "pitch": 56, "duration": 6, "velocity": 93}, {"time": 1443, "pitch": 43, "duration": 16, "velocity": 97}, {"time": 1449, "pitch": 55, "duration": 8, "velocity": 86}, {"time": 1455, "pitch": 61, "duration": 7, "velocity": 93}, {"time": 1461, "pitch": 58, "duration": 6, "velocity": 89}, {"time": 1467, "pitch": 44, "duration": 21, "velocity": 74}, {"time": 1470, "pitch": 51, "duration": 6, "velocity": 76}, {"time": 1473, "pitch": 56, "duration": 4, "velocity": 79}, {"time": 1476, "pitch": 51, "duration": 4, "velocity": 75}, {"time": 1479, "pitch": 63, "duration": 11, "velocity": 99}, {"time": 1482, "pitch": 51, "duration": 8, "velocity": 63}, {"time": 1485, "pitch": 60, "duration": 5, "velocity": 90}, {"time": 1488, "pitch": 44, "duration": 1, "velocity": 81}, {"time": 1488, "pitch": 56, "duration": 3, "velocity": 96}, {"time": 1491, "pitch": 51, "duration": 20, "velocity": 85}, {"time": 1494, "pitch": 56, "duration": 7, "velocity": 93}, {"time": 1497, "pitch": 60, "duration": 3, "velocity": 89}, {"time": 1503, "pitch": 63, "duration": 7, "velocity": 95}, {"time": 1506, "pitch": 56, "duration": 4, "velocity": 93}, {"time": 1509, "pitch": 60, "duration": 4, "velocity": 88}, {"time": 1512, "pitch": 63, "duration": 3, "velocity": 78}, {"time": 1515, "pitch": 46, "duration": 20, "velocity": 86}, {"time": 1521, "pitch": 53, "duration": 17, "velocity": 55}, {"time": 1527, "pitch": 65, "duration": 21, "velocity": 99}, {"time": 1533, "pitch": 61, "duration": 15, "velocity": 89}, {"time": 1539, "pitch": 46, "duration": 22, "velocity": 79}, {"time": 1545, "pitch": 53, "duration": 16, "velocity": 78}, {"time": 1551, "pitch": 65, "duration": 20, "velocity": 93}, {"time": 1557, "pitch": 58, "duration": 9, "velocity": 97}, {"time": 1563, "pitch": 46, "duration": 17, "velocity": 93}, {"time": 1569, "pitch": 58, "duration": 11, "velocity": 75}, {"time": 1575, "pitch": 65, "duration": 8, "velocity": 100}, {"time": 1581, "pitch": 48, "duration": 5, "velocity": 78}, {"time": 1587, "pitch": 49, "duration": 23, "velocity": 93}, {"time": 1590, "pitch": 56, "duration": 10, "velocity": 75}, {"time": 1599, "pitch": 65, "duration": 13, "velocity": 92}, {"time": 1605, "pitch": 61, "duration": 7, "velocity": 79}, {"time": 1611, "pitch": 44, "duration": 19, "velocity": 77}, {"time": 1617, "pitch": 51, "duration": 11, "velocity": 78}, {"time": 1623, "pitch": 63, "duration": 11, "velocity": 90}, {"time": 1629, "pitch": 60, "duration": 5, "velocity": 96}, {"time": 1635, "pitch": 37, "duration": 11, "velocity": 93}, {"time": 1641, "pitch": 56, "duration": 7, "velocity": 89}, {"time": 1647, "pitch": 39, "duration": 7, "velocity": 90}, {"time": 1653, "pitch": 63, "duration": 7, "velocity": 95}, {"time": 1659, "pitch": 46, "duration": 21, "velocity": 78}, {"time": 1665, "pitch": 53, "duration": 19, "velocity": 73}, {"time": 1671, "pitch": 65, "duration": 24, "velocity": 95}, {"time": 1677, "pitch": 61, "duration": 15, "velocity": 86}, {"time": 1680, "pitch": 46, "duration": 1, "velocity": 68}, {"time": 1689, "pitch": 53, "duration": 10, "velocity": 96}, {"time": 1695, "pitch": 61, "duration": 7, "velocity": 96}, {"time": 1701, "pitch": 60, "duration": 8, "velocity": 77}, {"time": 1707, "pitch": 42, "duration": 21, "velocity": 78}, {"time": 1713, "pitch": 49, "duration": 18, "velocity": 57}, {"time": 1719, "pitch": 61, "duration": 23, "velocity": 90}, {"time": 1725, "pitch": 58, "duration": 18, "velocity": 92}, {"time": 1731, "pitch": 42, "duration": 20, "velocity": 79}, {"time": 1737, "pitch": 49, "duration": 14, "velocity": 56}, {"time": 1743, "pitch": 54, "duration": 5, "velocity": 76}, {"time": 1743, "pitch": 61, "duration": 16, "velocity": 75}, {"time": 1749, "pitch": 58, "duration": 6, "velocity": 83}, {"time": 1755, "pitch": 37, "duration": 17, "velocity": 77}, {"time": 1761, "pitch": 56, "duration": 18, "velocity": 75}, {"time": 1764, "pitch": 65, "duration": 16, "velocity": 96}, {"time": 1767, "pitch": 44, "duration": 6, "velocity": 58}, {"time": 1773, "pitch": 61, "duration": 9, "velocity": 75}, {"time": 1779, "pitch": 46, "duration": 20, "velocity": 73}, {"time": 1785, "pitch": 53, "duration": 13, "velocity": 69}, {"time": 1791, "pitch": 65, "duration": 12, "velocity": 90}, {"time": 1797, "pitch": 61, "duration": 6, "velocity": 90}, {"time": 1803, "pitch": 39, "duration": 15, "velocity": 74}, {"time": 1809, "pitch": 46, "duration": 9, "velocity": 66}, {"time": 1815, "pitch": 51, "duration": 11, "velocity": 85}, {"time": 1815, "pitch": 66, "duration": 12, "velocity": 96}, {"time": 1821, "pitch": 63, "duration": 6, "velocity": 78}, {"time": 1827, "pitch": 44, "duration": 16, "velocity": 82}, {"time": 1833, "pitch": 51, "duration": 8, "velocity": 70}, {"time": 1839, "pitch": 63, "duration": 12, "velocity": 102}, {"time": 1845, "pitch": 60, "duration": 6, "velocity": 83}, {"time": 1851, "pitch": 37, "duration": 45, "velocity": 89}, {"time": 1857, "pitch": 44, "duration": 38, "velocity": 61}, {"time": 1863, "pitch": 61, "duration": 11, "velocity": 76}, {"time": 1869, "pitch": 49, "duration": 10, "velocity": 75}, {"time": 1875, "pitch": 65, "duration": 25, "velocity": 95}, {"time": 1881, "pitch": 49, "duration": 14, "velocity": 86}, {"time": 1887, "pitch": 61, "duration": 13, "velocity": 83}, {"time": 1893, "pitch": 56, "duration": 6, "velocity": 77}, {"time": 1899, "pitch": 46, "duration": 22, "velocity": 92}, {"time": 1905, "pitch": 53, "duration": 18, "velocity": 72}, {"time": 1911, "pitch": 65, "duration": 21, "velocity": 92}, {"time": 1917, "pitch": 58, "duration": 16, "velocity": 86}, {"time": 1923, "pitch": 46, "duration": 22, "velocity": 71}, {"time": 1929, "pitch": 53, "duration": 13, "velocity": 58}, {"time": 1935, "pitch": 65, "duration": 15, "velocity": 102}, {"time": 1941, "pitch": 58, "duration": 9, "velocity": 88}, {"time": 1947, "pitch": 46, "duration": 19, "velocity": 81}, {"time": 1953, "pitch": 58, "duration": 9, "velocity": 82}, {"time": 1959, "pitch": 65, "duration": 11, "velocity": 96}, {"time": 1965, "pitch": 48, "duration": 6, "velocity": 90}, {"time": 1971, "pitch": 49, "duration": 14, "velocity": 70}, {"time": 1977, "pitch": 56, "duration": 14, "velocity": 70}, {"time": 1983, "pitch": 65, "duration": 13, "velocity": 93}, {"time": 1989, "pitch": 61, "duration": 7, "velocity": 81}, {"time": 1995, "pitch": 44, "duration": 16, "velocity": 85}, {"time": 2001, "pitch": 51, "duration": 8, "velocity": 57}, {"time": 2007, "pitch": 63, "duration": 12, "velocity": 100}, {"time": 2013, "pitch": 60, "duration": 8, "velocity": 89}, {"time": 2019, "pitch": 37, "duration": 11, "velocity": 86}, {"time": 2025, "pitch": 56, "duration": 7, "velocity": 77}, {"time": 2031, "pitch": 39, "duration": 7, "velocity": 68}, {"time": 2037, "pitch": 58, "duration": 7, "velocity": 74}, {"time": 2043, "pitch": 46, "duration": 21, "velocity": 71}, {"time": 2049, "pitch": 53, "duration": 18, "velocity": 81}, {"time": 2055, "pitch": 61, "duration": 5, "velocity": 69}, {"time": 2055, "pitch": 65, "duration": 7, "velocity": 67}, {"time": 2061, "pitch": 60, "duration": 8, "velocity": 61}, {"time": 2061, "pitch": 63, "duration": 9, "velocity": 56}, {"time": 2067, "pitch": 46, "duration": 17, "velocity": 86}, {"time": 2073, "pitch": 53, "duration": 8, "velocity": 88}, {"time": 2079, "pitch": 61, "duration": 8, "velocity": 92}, {"time": 2079, "pitch": 65, "duration": 13, "velocity": 86}, {"time": 2085, "pitch": 56, "duration": 8, "velocity": 72}, {"time": 2091, "pitch": 42, "duration": 22, "velocity": 68}, {"time": 2097, "pitch": 49, "duration": 18, "velocity": 39}, {"time": 2103, "pitch": 61, "duration": 40, "velocity": 77}, {"time": 2109, "pitch": 58, "duration": 21, "velocity": 86}, {"time": 2115, "pitch": 42, "duration": 20, "velocity": 81}, {"time": 2121, "pitch": 49, "duration": 13, "velocity": 76}, {"time": 2127, "pitch": 54, "duration": 6, "velocity": 89}, {"time": 2133, "pitch": 58, "duration": 6, "velocity": 85}, {"time": 2139, "pitch": 37, "duration": 15, "velocity": 75}, {"time": 2145, "pitch": 44, "duration": 8, "velocity": 44}, {"time": 2151, "pitch": 49, "duration": 6, "velocity": 77}, {"time": 2151, "pitch": 65, "duration": 16, "velocity": 92}, {"time": 2157, "pitch": 56, "duration": 6, "velocity": 79}, {"time": 2163, "pitch": 46, "duration": 13, "velocity": 78}, {"time": 2169, "pitch": 53, "duration": 6, "velocity": 75}, {"time": 2175, "pitch": 61, "duration": 16, "velocity": 86}, {"time": 2175, "pitch": 65, "duration": 13, "velocity": 85}, {"time": 2181, "pitch": 58, "duration": 19, "velocity": 65}, {"time": 2187, "pitch": 39, "duration": 16, "velocity": 67}, {"time": 2193, "pitch": 46, "duration": 10, "velocity": 63}, {"time": 2199, "pitch": 51, "duration": 9, "velocity": 77}, {"time": 2199, "pitch": 63, "duration": 9, "velocity": 96}, {"time": 2205, "pitch": 58, "duration": 7, "velocity": 67}, {"time": 2211, "pitch": 44, "duration": 15, "velocity": 83}, {"time": 2217, "pitch": 51, "duration": 7, "velocity": 69}, {"time": 2223, "pitch": 60, "duration": 13, "velocity": 78}, {"time": 2223, "pitch": 63, "duration": 13, "velocity": 88}, {"time": 2229, "pitch": 56, "duration": 13, "velocity": 90}, {"time": 2235, "pitch": 37, "duration": 49, "velocity": 71}, {"time": 2241, "pitch": 44, "duration": 11, "velocity": 73}, {"time": 2247, "pitch": 49, "duration": 13, "velocity": 92}, {"time": 2247, "pitch": 61, "duration": 10, "velocity": 76}, {"time": 2247, "pitch": 65, "duration": 10, "velocity": 79}, {"time": 2253, "pitch": 56, "duration": 16, "velocity": 81}, {"time": 2256, "pitch": 44, "duration": 28, "velocity": 27}, {"time": 2259, "pitch": 63, "duration": 11, "velocity": 93}, {"time": 2265, "pitch": 49, "duration": 14, "velocity": 90}, {"time": 2271, "pitch": 65, "duration": 8, "velocity": 82}, {"time": 2277, "pitch": 63, "duration": 6, "velocity": 69}, {"time": 2283, "pitch": 39, "duration": 19, "velocity": 88}, {"time": 2286, "pitch": 46, "duration": 16, "velocity": 90}, {"time": 2289, "pitch": 51, "duration": 6, "velocity": 92}, {"time": 2292, "pitch": 58, "duration": 5, "velocity": 74}, {"time": 2295, "pitch": 66, "duration": 10, "velocity": 102}, {"time": 2298, "pitch": 51, "duration": 5, "velocity": 89}, {"time": 2301, "pitch": 63, "duration": 5, "velocity": 96}, {"time": 2304, "pitch": 58, "duration": 4, "velocity": 90}, {"time": 2307, "pitch": 46, "duration": 18, "velocity": 77}, {"time": 2310, "pitch": 53, "duration": 10, "velocity": 72}, {"time": 2313, "pitch": 58, "duration": 4, "velocity": 93}, {"time": 2316, "pitch": 61, "duration": 3, "velocity": 90}, {"time": 2319, "pitch": 65, "duration": 10, "velocity": 96}, {"time": 2322, "pitch": 53, "duration": 2, "velocity": 77}, {"time": 2325, "pitch": 61, "duration": 4, "velocity": 95}, {"time": 2328, "pitch": 58, "duration": 5, "velocity": 89}, {"time": 2331, "pitch": 39, "duration": 16, "velocity": 63}, {"time": 2334, "pitch": 46, "duration": 13, "velocity": 83}, {"time": 2337, "pitch": 51, "duration": 7, "velocity": 89}, {"time": 2340, "pitch": 58, "duration": 5, "velocity": 90}, {"time": 2343, "pitch": 66, "duration": 11, "velocity": 90}, {"time": 2346, "pitch": 51, "duration": 6, "velocity": 66}, {"time": 2349, "pitch": 63, "duration": 5, "velocity": 83}, {"time": 2352, "pitch": 58, "duration": 4, "velocity": 92}, {"time": 2355, "pitch": 44, "duration": 20, "velocity": 81}, {"time": 2358, "pitch": 51, "duration": 10, "velocity": 66}, {"time": 2361, "pitch": 56, "duration": 4, "velocity": 82}, {"time": 2364, "pitch": 60, "duration": 3, "velocity": 82}, {"time": 2367, "pitch": 63, "duration": 11, "velocity": 92}, {"time": 2370, "pitch": 51, "duration": 8, "velocity": 56}, {"time": 2373, "pitch": 60, "duration": 5, "velocity": 77}, {"time": 2376, "pitch": 56, "duration": 3, "velocity": 81}, {"time": 2379, "pitch": 46, "duration": 21, "velocity": 76}, {"time": 2382, "pitch": 53, "duration": 10, "velocity": 41}, {"time": 2385, "pitch": 58, "duration": 5, "velocity": 72}, {"time": 2388, "pitch": 61, "duration": 3, "velocity": 89}, {"time": 2391, "pitch": 65, "duration": 10, "velocity": 89}, {"time": 2394, "pitch": 53, "duration": 8, "velocity": 70}, {"time": 2397, "pitch": 61, "duration": 5, "velocity": 96}, {"time": 2400, "pitch": 58, "duration": 3, "velocity": 85}, {"time": 2403, "pitch": 46, "duration": 19, "velocity": 71}, {"time": 2406, "pitch": 53, "duration": 10, "velocity": 81}, {"time": 2409, "pitch": 58, "duration": 4, "velocity": 82}, {"time": 2412, "pitch": 61, "duration": 3, "velocity": 76}, {"time": 2415, "pitch": 65, "duration": 10, "velocity": 97}, {"time": 2418, "pitch": 53, "duration": 3, "velocity": 72}, {"time": 2421, "pitch": 61, "duration": 4, "velocity": 85}, {"time": 2424, "pitch": 58, "duration": 3, "velocity": 83}, {"time": 2427, "pitch": 44, "duration": 20, "velocity": 72}, {"time": 2430, "pitch": 51, "duration": 10, "velocity": 67}, {"time": 2433, "pitch": 56, "duration": 4, "velocity": 82}, {"time": 2436, "pitch": 60, "duration": 3, "velocity": 92}, {"time": 2439, "pitch": 63, "duration": 11, "velocity": 85}, {"time": 2442, "pitch": 51, "duration": 8, "velocity": 71}, {"time": 2445, "pitch": 60, "duration": 5, "velocity": 83}, {"time": 2448, "pitch": 56, "duration": 2, "velocity": 79}, {"time": 2451, "pitch": 44, "duration": 19, "velocity": 66}, {"time": 2454, "pitch": 51, "duration": 15, "velocity": 71}, {"time": 2457, "pitch": 56, "duration": 7, "velocity": 72}, {"time": 2460, "pitch": 60, "duration": 4, "velocity": 85}, {"time": 2463, "pitch": 63, "duration": 7, "velocity": 90}, {"time": 2466, "pitch": 56, "duration": 2, "velocity": 85}, {"time": 2469, "pitch": 60, "duration": 5, "velocity": 82}, {"time": 2472, "pitch": 63, "duration": 3, "velocity": 61}, {"time": 2475, "pitch": 39, "duration": 17, "velocity": 50}, {"time": 2478, "pitch": 46, "duration": 14, "velocity": 63}, {"time": 2481, "pitch": 51, "duration": 7, "velocity": 85}, {"time": 2484, "pitch": 58, "duration": 5, "velocity": 72}, {"time": 2487, "pitch": 66, "duration": 11, "velocity": 86}, {"time": 2490, "pitch": 51, "duration": 8, "velocity": 75}, {"time": 2493, "pitch": 63, "duration": 5, "velocity": 79}, {"time": 2496, "pitch": 58, "duration": 4, "velocity": 81}, {"time": 2499, "pitch": 46, "duration": 19, "velocity": 66}, {"time": 2502, "pitch": 53, "duration": 11, "velocity": 64}, {"time": 2505, "pitch": 58, "duration": 5, "velocity": 85}, {"time": 2508, "pitch": 61, "duration": 3, "velocity": 83}, {"time": 2511, "pitch": 65, "duration": 10, "velocity": 86}, {"time": 2514, "pitch": 53, "duration": 3, "velocity": 58}, {"time": 2517, "pitch": 61, "duration": 4, "velocity": 79}, {"time": 2520, "pitch": 39, "duration": 17, "velocity": 69}, {"time": 2520, "pitch": 58, "duration": 4, "velocity": 83}, {"time": 2526, "pitch": 46, "duration": 13, "velocity": 75}, {"time": 2529, "pitch": 51, "duration": 7, "velocity": 78}, {"time": 2532, "pitch": 58, "duration": 5, "velocity": 78}, {"time": 2535, "pitch": 66, "duration": 10, "velocity": 92}, {"time": 2538, "pitch": 51, "duration": 9, "velocity": 74}, {"time": 2541, "pitch": 63, "duration": 4, "velocity": 82}, {"time": 2544, "pitch": 58, "duration": 4, "velocity": 86}, {"time": 2547, "pitch": 44, "duration": 21, "velocity": 65}, {"time": 2550, "pitch": 51, "duration": 10, "velocity": 53}, {"time": 2553, "pitch": 56, "duration": 5, "velocity": 88}, {"time": 2556, "pitch": 60, "duration": 3, "velocity": 79}, {"time": 2559, "pitch": 63, "duration": 11, "velocity": 93}, {"time": 2562, "pitch": 51, "duration": 8, "velocity": 54}, {"time": 2565, "pitch": 60, "duration": 4, "velocity": 81}, {"time": 2568, "pitch": 56, "duration": 3, "velocity": 78}, {"time": 2571, "pitch": 46, "duration": 12, "velocity": 102}, {"time": 2577, "pitch": 58, "duration": 4, "velocity": 86}, {"time": 2580, "pitch": 65, "duration": 4, "velocity": 85}, {"time": 2583, "pitch": 44, "duration": 7, "velocity": 76}, {"time": 2589, "pitch": 56, "duration": 6, "velocity": 93}, {"time": 2595, "pitch": 43, "duration": 16, "velocity": 97}, {"time": 2601, "pitch": 55, "duration": 8, "velocity": 86}, {"time": 2607, "pitch": 61, "duration": 7, "velocity": 93}, {"time": 2613, "pitch": 58, "duration": 6, "velocity": 89}, {"time": 2619, "pitch": 44, "duration": 21, "velocity": 74}, {"time": 2622, "pitch": 51, "duration": 6, "velocity": 76}, {"time": 2625, "pitch": 56, "duration": 4, "velocity": 79}, {"time": 2628, "pitch": 51, "duration": 4, "velocity": 75}, {"time": 2631, "pitch": 63, "duration": 11, "velocity": 99}, {"time": 2634, "pitch": 51, "duration": 8, "velocity": 63}, {"time": 2637, "pitch": 60, "duration": 5, "velocity": 90}, {"time": 2640, "pitch": 44, "duration": 1, "velocity": 81}, {"time": 2640, "pitch": 56, "duration": 3, "velocity": 96}, {"time": 2643, "pitch": 51, "duration": 20, "velocity": 85}, {"time": 2646, "pitch": 56, "duration": 7, "velocity": 93}, {"time": 2649, "pitch": 60, "duration": 3, "velocity": 89}, {"time": 2655, "pitch": 63, "duration": 7, "velocity": 95}, {"time": 2658, "pitch": 56, "duration": 4, "velocity": 93}, {"time": 2661, "pitch": 60, "duration": 4, "velocity": 88}, {"time": 2664, "pitch": 63, "duration": 3, "velocity": 78}, {"time": 2667, "pitch": 46, "duration": 20, "velocity": 86}, {"time": 2673, "pitch": 53, "duration": 17, "velocity": 55}, {"time": 2679, "pitch": 65, "duration": 21, "velocity": 99}, {"time": 2685, "pitch": 61, "duration": 15, "velocity": 89}, {"time": 2691, "pitch": 46, "duration": 22, "velocity": 79}, {"time": 2697, "pitch": 53, "duration": 16, "velocity": 78}, {"time": 2703, "pitch": 65, "duration": 20, "velocity": 93}, {"time": 2709, "pitch": 58, "duration": 9, "velocity": 97}, {"time": 2715, "pitch": 46, "duration": 17, "velocity": 93}, {"time": 2721, "pitch": 58, "duration": 11, "velocity": 75}, {"time": 2727, "pitch": 65, "duration": 8, "velocity": 100}, {"time": 2733, "pitch": 48, "duration": 5, "velocity": 78}, {"time": 2739, "pitch": 49, "duration": 23, "velocity": 93}, {"time": 2742, "pitch": 56, "duration": 10, "velocity": 75}, {"time": 2751, "pitch": 65, "duration": 13, "velocity": 92}, {"time": 2757, "pitch": 61, "duration": 7, "velocity": 79}, {"time": 2763, "pitch": 44, "duration": 19, "velocity": 77}, {"time": 2769, "pitch": 51, "duration": 11, "velocity": 78}, {"time": 2775, "pitch": 63, "duration": 11, "velocity": 90}, {"time": 2781, "pitch": 60, "duration": 5, "velocity": 96}, {"time": 2787, "pitch": 37, "duration": 11, "velocity": 93}, {"time": 2793, "pitch": 56, "duration": 7, "velocity": 89}, {"time": 2799, "pitch": 39, "duration": 7, "velocity": 90}, {"time": 2805, "pitch": 63, "duration": 7, "velocity": 95}, {"time": 2811, "pitch": 46, "duration": 21, "velocity": 78}, {"time": 2817, "pitch": 53, "duration": 19, "velocity": 73}, {"time": 2823, "pitch": 65, "duration": 24, "velocity": 95}, {"time": 2829, "pitch": 61, "duration": 15, "velocity": 86}, {"time": 2832, "pitch": 46, "duration": 1, "velocity": 68}, {"time": 2841, "pitch": 53, "duration": 10, "velocity": 96}, {"time": 2847, "pitch": 61, "duration": 7, "velocity": 96}, {"time": 2853, "pitch": 60, "duration": 8, "velocity": 77}, {"time": 2859, "pitch": 42, "duration": 21, "velocity": 78}, {"time": 2865, "pitch": 49, "duration": 18, "velocity": 57}, {"time": 2871, "pitch": 61, "duration": 23, "velocity": 90}, {"time": 2877, "pitch": 58, "duration": 18, "velocity": 92}, {"time": 2883, "pitch": 42, "duration": 20, "velocity": 79}, {"time": 2889, "pitch": 49, "duration": 14, "velocity": 56}, {"time": 2895, "pitch": 54, "duration": 5, "velocity": 76}, {"time": 2895, "pitch": 61, "duration": 16, "velocity": 75}, {"time": 2901, "pitch": 58, "duration": 6, "velocity": 83}, {"time": 2907, "pitch": 37, "duration": 17, "velocity": 77}, {"time": 2913, "pitch": 56, "duration": 18, "velocity": 75}, {"time": 2916, "pitch": 65, "duration": 16, "velocity": 96}, {"time": 2919, "pitch": 44, "duration": 6, "velocity": 58}, {"time": 2925, "pitch": 61, "duration": 9, "velocity": 75}, {"time": 2931, "pitch": 46, "duration": 20, "velocity": 73}, {"time": 2937, "pitch": 53, "duration": 13, "velocity": 69}, {"time": 2943, "pitch": 65, "duration": 12, "velocity": 90}, {"time": 2949, "pitch": 61, "duration": 6, "velocity": 90}, {"time": 2955, "pitch": 39, "duration": 15, "velocity": 74}, {"time": 2961, "pitch": 46, "duration": 9, "velocity": 66}, {"time": 2967, "pitch": 51, "duration": 11, "velocity": 85}, {"time": 2967, "pitch": 66, "duration": 12, "velocity": 96}, {"time": 2973, "pitch": 63, "duration": 6, "velocity": 78}, {"time": 2979, "pitch": 44, "duration": 16, "velocity": 82}, {"time": 2985, "pitch": 51, "duration": 8, "velocity": 70}, {"time": 2991, "pitch": 63, "duration": 12, "velocity": 102}, {"time": 2997, "pitch": 60, "duration": 6, "velocity": 83}, {"time": 3003, "pitch": 37, "duration": 45, "velocity": 89}, {"time": 3009, "pitch": 44, "duration": 38, "velocity": 61}, {"time": 3015, "pitch": 61, "duration": 11, "velocity": 76}, {"time": 3021, "pitch": 49, "duration": 10, "velocity": 75}, {"time": 3027, "pitch": 65, "duration": 24, "velocity": 95}, {"time": 3033, "pitch": 49, "duration": 14, "velocity": 86}, {"time": 3039, "pitch": 61, "duration": 12, "velocity": 83}, {"time": 3045, "pitch": 56, "duration": 6, "velocity": 77}, {"time": 3051, "pitch": 46, "duration": 21, "velocity": 90}, {"time": 3057, "pitch": 53, "duration": 18, "velocity": 81}, {"time": 3063, "pitch": 65, "duration": 22, "velocity": 93}, {"time": 3069, "pitch": 61, "duration": 16, "velocity": 88}, {"time": 3075, "pitch": 46, "duration": 22, "velocity": 82}, {"time": 3081, "pitch": 53, "duration": 18, "velocity": 75}, {"time": 3087, "pitch": 65, "duration": 16, "velocity": 90}, {"time": 3093, "pitch": 58, "duration": 8, "velocity": 86}, {"time": 3099, "pitch": 46, "duration": 18, "velocity": 88}, {"time": 3105, "pitch": 58, "duration": 11, "velocity": 74}, {"time": 3111, "pitch": 65, "duration": 8, "velocity": 92}, {"time": 3117, "pitch": 48, "duration": 6, "velocity": 86}, {"time": 3123, "pitch": 49, "duration": 25, "velocity": 68}, {"time": 3129, "pitch": 56, "duration": 10, "velocity": 75}, {"time": 3135, "pitch": 65, "duration": 13, "velocity": 95}, {"time": 3141, "pitch": 61, "duration": 7, "velocity": 78}, {"time": 3147, "pitch": 56, "duration": 28, "velocity": 72}, {"time": 3147, "pitch": 63, "duration": 30, "velocity": 66}, {"time": 3147, "pitch": 60, "duration": 29, "velocity": 65}, {"time": 3147, "pitch": 53, "duration": 28, "velocity": 73}, {"time": 3147, "pitch": 48, "duration": 28, "velocity": 63}, {"time": 3147, "pitch": 41, "duration": 28, "velocity": 54}, {"time": 3203, "pitch": 65, "duration": 64, "velocity": 72}, {"time": 3203, "pitch": 58, "duration": 64, "velocity": 75}, {"time": 3203, "pitch": 46, "duration": 64, "velocity": 65}, {"time": 3203, "pitch": 53, "duration": 64, "velocity": 68}, {"time": 3203, "pitch": 61, "duration": 64, "velocity": 77}], "annotations": [{"time": 4, "annotation": {"number": 64, "value": 127}, "group": "control_change"}, {"time": 23, "annotation": {"number": 64, "value": 0}, "group": "control_change"}, {"time": 27, "annotation": {"number": 64, "value": 127}, "group": "control_change"}, {"time": 46, "annotation": {"number": 64, "value": 0}, "group": "control_change"}, {"time": 52, "annotation": {"number": 64, "value": 127}, "group": "control_change"}, {"time": 71, "annotation": {"number": 64, "value": 0}, "group": "control_change"}, {"time": 76, "annotation": {"number": 64, "value": 127}, "group": "control_change"}, {"time": 97, "annotation": {"number": 64, "value": 0}, "group": "control_change"}, {"time": 100, "annotation": {"number": 64, "value": 127}, "group": "control_change"}, {"time": 107, "annotation": {"number": 64, "value": 0}, "group": "control_change"}, {"time": 122, "annotation": {"number": 64, "value": 127}, "group": "control_change"}, {"time": 142, "annotation": {"number": 64, "value": 0}, "group": "control_change"}, {"time": 147, "annotation": {"number": 64, "value": 127}, "group": "control_change"}, {"time": 162, "annotation": {"number": 64, "value": 0}, "group": "control_change"}, {"time": 170, "annotation": {"number": 64, "value": 127}, "group": "control_change"}, {"time": 171, "annotation": {"number": 64, "value": 127}, "group": "control_change"}, {"time": 191, "annotation": {"number": 64, "value": 0}, "group": "control_change"}, {"time": 196, "annotation": {"number": 64, "value": 127}, "group": "control_change"}, {"time": 214, "annotation": {"number": 64, "value": 0}, "group": "control_change"}, {"time": 219, "annotation": {"number": 64, "value": 127}, "group": "control_change"}, {"time": 239, "annotation": {"number": 64, "value": 0}, "group": "control_change"}, {"time": 244, "annotation": {"number": 64, "value": 127}, "group": "control_change"}, {"time": 263, "annotation": {"number": 64, "value": 0}, "group": "control_change"}, {"time": 268, "annotation": {"number": 64, "value": 127}, "group": "control_change"}, {"time": 287, "annotation": {"number": 64, "value": 0}, "group": "control_change"}, {"time": 291, "annotation": {"number": 64, "value": 127}, "group": "control_change"}, {"time": 311, "annotation": {"number": 64, "value": 0}, "group": "control_change"}, {"time": 315, "annotation": {"number": 64, "value": 127}, "group": "control_change"}, {"time": 360, "annotation": {"number": 64, "value": 0}, "group": "control_change"}, {"time": 362, "annotation": {"number": 64, "value": 127}, "group": "control_change"}, {"time": 406, "annotation": {"number": 64, "value": 0}, "group": "control_change"}, {"time": 411, "annotation": {"number": 64, "value": 127}, "group": "control_change"}, {"time": 424, "annotation": {"number": 64, "value": 0}, "group": "control_change"}, {"time": 435, "annotation": {"number": 64, "value": 127}, "group": "control_change"}, {"time": 453, "annotation": {"number": 64, "value": 0}, "group": "control_change"}, {"time": 458, "annotation": {"number": 64, "value": 127}, "group": "control_change"}, {"time": 479, "annotation": {"number": 64, "value": 0}, "group": "control_change"}, {"time": 484, "annotation": {"number": 64, "value": 127}, "group": "control_change"}, {"time": 492, "annotation": {"number": 64, "value": 0}, "group": "control_change"}, {"time": 516, "annotation": {"number": 64, "value": 127}, "group": "control_change"}, {"time": 552, "annotation": {"number": 64, "value": 0}, "group": "control_change"}, {"time": 555, "annotation": {"number": 64, "value": 127}, "group": "control_change"}, {"time": 576, "annotation": {"number": 64, "value": 0}, "group": "control_change"}, {"time": 580, "annotation": {"number": 64, "value": 127}, "group": "control_change"}, {"time": 600, "annotation": {"number": 64, "value": 0}, "group": "control_change"}, {"time": 603, "annotation": {"number": 64, "value": 127}, "group": "control_change"}, {"time": 624, "annotation": {"number": 64, "value": 0}, "group": "control_change"}, {"time": 626, "annotation": {"number": 64, "value": 127}, "group": "control_change"}, {"time": 647, "annotation": {"number": 64, "value": 0}, "group": "control_change"}, {"time": 651, "annotation": {"number": 64, "value": 127}, "group": "control_change"}, {"time": 673, "annotation": {"number": 64, "value": 0}, "group": "control_change"}, {"time": 676, "annotation": {"number": 64, "value": 127}, "group": "control_change"}, {"time": 696, "annotation": {"number": 64, "value": 0}, "group": "control_change"}, {"time": 700, "annotation": {"number": 64, "value": 127}, "group": "control_change"}, {"time": 744, "annotation": {"number": 64, "value": 0}, "group": "control_change"}, {"time": 748, "annotation": {"number": 64, "value": 127}, "group": "control_change"}, {"time": 761, "annotation": {"number": 64, "value": 0}, "group": "control_change"}, {"time": 771, "annotation": {"number": 64, "value": 127}, "group": "control_change"}, {"time": 792, "annotation": {"number": 64, "value": 0}, "group": "control_change"}, {"time": 796, "annotation": {"number": 64, "value": 127}, "group": "control_change"}, {"time": 810, "annotation": {"number": 64, "value": 0}, "group": "control_change"}, {"time": 819, "annotation": {"number": 64, "value": 127}, "group": "control_change"}, {"time": 838, "annotation": {"number": 64, "value": 0}, "group": "control_change"}, {"time": 843, "annotation": {"number": 64, "value": 127}, "group": "control_change"}, {"time": 863, "annotation": {"number": 64, "value": 0}, "group": "control_change"}, {"time": 867, "annotation": {"number": 64, "value": 127}, "group": "control_change"}, {"time": 877, "annotation": {"number": 64, "value": 0}, "group": "control_change"}, {"time": 880, "annotation": {"number": 64, "value": 127}, "group": "control_change"}, {"time": 887, "annotation": {"number": 64, "value": 0}, "group": "control_change"}, {"time": 891, "annotation": {"number": 64, "value": 127}, "group": "control_change"}, {"time": 911, "annotation": {"number": 64, "value": 0}, "group": "control_change"}, {"time": 915, "annotation": {"number": 64, "value": 127}, "group": "control_change"}, {"time": 935, "annotation": {"number": 64, "value": 0}, "group": "control_change"}, {"time": 939, "annotation": {"number": 64, "value": 127}, "group": "control_change"}, {"time": 959, "annotation": {"number": 64, "value": 0}, "group": "control_change"}, {"time": 964, "annotation": {"number": 64, "value": 127}, "group": "control_change"}, {"time": 976, "annotation": {"number": 64, "value": 0}, "group": "control_change"}, {"time": 987, "annotation": {"number": 64, "value": 127}, "group": "control_change"}, {"time": 1007, "annotation": {"number": 64, "value": 0}, "group": "control_change"}, {"time": 1011, "annotation": {"number": 64, "value": 127}, "group": "control_change"}, {"time": 1031, "annotation": {"number": 64, "value": 0}, "group": "control_change"}, {"time": 1036, "annotation": {"number": 64, "value": 127}, "group": "control_change"}, {"time": 1055, "annotation": {"number": 64, "value": 0}, "group": "control_change"}, {"time": 1060, "annotation": {"number": 64, "value": 127}, "group": "control_change"}, {"time": 1081, "annotation": {"number": 64, "value": 0}, "group": "control_change"}, {"time": 1084, "annotation": {"number": 64, "value": 127}, "group": "control_change"}, {"time": 1104, "annotation": {"number": 64, "value": 0}, "group": "control_change"}, {"time": 1108, "annotation": {"number": 64, "value": 127}, "group": "control_change"}, {"time": 1127, "annotation": {"number": 64, "value": 0}, "group": "control_change"}, {"time": 1131, "annotation": {"number": 64, "value": 127}, "group": "control_change"}, {"time": 1152, "annotation": {"number": 64, "value": 0}, "group": "control_change"}, {"time": 1156, "annotation": {"number": 64, "value": 127}, "group": "control_change"}, {"time": 1176, "annotation": {"number": 64, "value": 0}, "group": "control_change"}, {"time": 1179, "annotation": {"number": 64, "value": 127}, "group": "control_change"}, {"time": 1199, "annotation": {"number": 64, "value": 0}, "group": "control_change"}, {"time": 1204, "annotation": {"number": 64, "value": 127}, "group": "control_change"}, {"time": 1223, "annotation": {"number": 64, "value": 0}, "group": "control_change"}, {"time": 1227, "annotation": {"number": 64, "value": 127}, "group": "control_change"}, {"time": 1247, "annotation": {"number": 64, "value": 0}, "group": "control_change"}, {"time": 1251, "annotation": {"number": 64, "value": 127}, "group": "control_change"}, {"time": 1272, "annotation": {"number": 64, "value": 0}, "group": "control_change"}, {"time": 1275, "annotation": {"number": 64, "value": 127}, "group": "control_change"}, {"time": 1296, "annotation": {"number": 64, "value": 0}, "group": "control_change"}, {"time": 1299, "annotation": {"number": 64, "value": 127}, "group": "control_change"}, {"time": 1320, "annotation": {"number": 64, "value": 0}, "group": "control_change"}, {"time": 1323, "annotation": {"number": 64, "value": 127}, "group": "control_change"}, {"time": 1344, "annotation": {"number": 64, "value": 0}, "group": "control_change"}, {"time": 1347, "annotation": {"number": 64, "value": 127}, "group": "control_change"}, {"time": 1368, "annotation": {"number": 64, "value": 0}, "group": "control_change"}, {"time": 1372, "annotation": {"number": 64, "value": 127}, "group": "control_change"}, {"time": 1392, "annotation": {"number": 64, "value": 0}, "group": "control_change"}, {"time": 1395, "annotation": {"number": 64, "value": 127}, "group": "control_change"}, {"time": 1415, "annotation": {"number": 64, "value": 0}, "group": "control_change"}, {"time": 1419, "annotation": {"number": 64, "value": 127}, "group": "control_change"}, {"time": 1420, "annotation": {"number": 64, "value": 127}, "group": "control_change"}, {"time": 1428, "annotation": {"number": 64, "value": 0}, "group": "control_change"}, {"time": 1432, "annotation": {"number": 64, "value": 127}, "group": "control_change"}, {"time": 1440, "annotation": {"number": 64, "value": 0}, "group": "control_change"}, {"time": 1444, "annotation": {"number": 64, "value": 127}, "group": "control_change"}, {"time": 1463, "annotation": {"number": 64, "value": 0}, "group": "control_change"}, {"time": 1468, "annotation": {"number": 64, "value": 127}, "group": "control_change"}, {"time": 1487, "annotation": {"number": 64, "value": 0}, "group": "control_change"}, {"time": 1491, "annotation": {"number": 64, "value": 127}, "group": "control_change"}, {"time": 1511, "annotation": {"number": 64, "value": 0}, "group": "control_change"}, {"time": 1516, "annotation": {"number": 64, "value": 127}, "group": "control_change"}, {"time": 1529, "annotation": {"number": 64, "value": 0}, "group": "control_change"}, {"time": 1539, "annotation": {"number": 64, "value": 127}, "group": "control_change"}, {"time": 1560, "annotation": {"number": 64, "value": 0}, "group": "control_change"}, {"time": 1564, "annotation": {"number": 64, "value": 127}, "group": "control_change"}, {"time": 1578, "annotation": {"number": 64, "value": 0}, "group": "control_change"}, {"time": 1587, "annotation": {"number": 64, "value": 127}, "group": "control_change"}, {"time": 1606, "annotation": {"number": 64, "value": 0}, "group": "control_change"}, {"time": 1611, "annotation": {"number": 64, "value": 127}, "group": "control_change"}, {"time": 1631, "annotation": {"number": 64, "value": 0}, "group": "control_change"}, {"time": 1635, "annotation": {"number": 64, "value": 127}, "group": "control_change"}, {"time": 1645, "annotation": {"number": 64, "value": 0}, "group": "control_change"}, {"time": 1648, "annotation": {"number": 64, "value": 127}, "group": "control_change"}, {"time": 1655, "annotation": {"number": 64, "value": 0}, "group": "control_change"}, {"time": 1659, "annotation": {"number": 64, "value": 127}, "group": "control_change"}, {"time": 1679, "annotation": {"number": 64, "value": 0}, "group": "control_change"}, {"time": 1683, "annotation": {"number": 64, "value": 127}, "group": "control_change"}, {"time": 1703, "annotation": {"number": 64, "value": 0}, "group": "control_change"}, {"time": 1707, "annotation": {"number": 64, "value": 127}, "group": "control_change"}, {"time": 1727, "annotation": {"number": 64, "value": 0}, "group": "control_change"}, {"time": 1732, "annotation": {"number": 64, "value": 127}, "group": "control_change"}, {"time": 1744, "annotation": {"number": 64, "value": 0}, "group": "control_change"}, {"time": 1755, "annotation": {"number": 64, "value": 127}, "group": "control_change"}, {"time": 1775, "annotation": {"number": 64, "value": 0}, "group": "control_change"}, {"time": 1779, "annotation": {"number": 64, "value": 127}, "group": "control_change"}, {"time": 1799, "annotation": {"number": 64, "value": 0}, "group": "control_change"}, {"time": 1804, "annotation": {"number": 64, "value": 127}, "group": "control_change"}, {"time": 1823, "annotation": {"number": 64, "value": 0}, "group": "control_change"}, {"time": 1828, "annotation": {"number": 64, "value": 127}, "group": "control_change"}, {"time": 1849, "annotation": {"number": 64, "value": 0}, "group": "control_change"}, {"time": 1851, "annotation": {"number": 64, "value": 127}, "group": "control_change"}, {"time": 1896, "annotation": {"number": 64, "value": 0}, "group": "control_change"}, {"time": 1901, "annotation": {"number": 64, "value": 127}, "group": "control_change"}, {"time": 1918, "annotation": {"number": 64, "value": 0}, "group": "control_change"}, {"time": 1923, "annotation": {"number": 64, "value": 127}, "group": "control_change"}, {"time": 1944, "annotation": {"number": 64, "value": 0}, "group": "control_change"}, {"time": 1948, "annotation": {"number": 64, "value": 127}, "group": "control_change"}, {"time": 1966, "annotation": {"number": 64, "value": 0}, "group": "control_change"}, {"time": 1972, "annotation": {"number": 64, "value": 127}, "group": "control_change"}, {"time": 1992, "annotation": {"number": 64, "value": 0}, "group": "control_change"}, {"time": 1996, "annotation": {"number": 64, "value": 127}, "group": "control_change"}, {"time": 2017, "annotation": {"number": 64, "value": 0}, "group": "control_change"}, {"time": 2020, "annotation": {"number": 64, "value": 127}, "group": "control_change"}, {"time": 2029, "annotation": {"number": 64, "value": 0}, "group": "control_change"}, {"time": 2033, "annotation": {"number": 64, "value": 127}, "group": "control_change"}, {"time": 2040, "annotation": {"number": 64, "value": 0}, "group": "control_change"}, {"time": 2043, "annotation": {"number": 64, "value": 127}, "group": "control_change"}, {"time": 2063, "annotation": {"number": 64, "value": 0}, "group": "control_change"}, {"time": 2067, "annotation": {"number": 64, "value": 127}, "group": "control_change"}, {"time": 2088, "annotation": {"number": 64, "value": 0}, "group": "control_change"}, {"time": 2092, "annotation": {"number": 64, "value": 127}, "group": "control_change"}, {"time": 2137, "annotation": {"number": 64, "value": 0}, "group": "control_change"}, {"time": 2140, "annotation": {"number": 64, "value": 127}, "group": "control_change"}, {"time": 2161, "annotation": {"number": 64, "value": 0}, "group": "control_change"}, {"time": 2164, "annotation": {"number": 64, "value": 127}, "group": "control_change"}, {"time": 2184, "annotation": {"number": 64, "value": 0}, "group": "control_change"}, {"time": 2188, "annotation": {"number": 64, "value": 127}, "group": "control_change"}, {"time": 2208, "annotation": {"number": 64, "value": 0}, "group": "control_change"}, {"time": 2212, "annotation": {"number": 64, "value": 127}, "group": "control_change"}, {"time": 2233, "annotation": {"number": 64, "value": 0}, "group": "control_change"}, {"time": 2236, "annotation": {"number": 64, "value": 127}, "group": "control_change"}, {"time": 2279, "annotation": {"number": 64, "value": 0}, "group": "control_change"}, {"time": 2283, "annotation": {"number": 64, "value": 127}, "group": "control_change"}, {"time": 2304, "annotation": {"number": 64, "value": 0}, "group": "control_change"}, {"time": 2308, "annotation": {"number": 64, "value": 127}, "group": "control_change"}, {"time": 2328, "annotation": {"number": 64, "value": 0}, "group": "control_change"}, {"time": 2331, "annotation": {"number": 64, "value": 127}, "group": "control_change"}, {"time": 2351, "annotation": {"number": 64, "value": 0}, "group": "control_change"}, {"time": 2356, "annotation": {"number": 64, "value": 127}, "group": "control_change"}, {"time": 2375, "annotation": {"number": 64, "value": 0}, "group": "control_change"}, {"time": 2379, "annotation": {"number": 64, "value": 127}, "group": "control_change"}, {"time": 2399, "annotation": {"number": 64, "value": 0}, "group": "control_change"}, {"time": 2403, "annotation": {"number": 64, "value": 127}, "group": "control_change"}, {"time": 2424, "annotation": {"number": 64, "value": 0}, "group": "control_change"}, {"time": 2427, "annotation": {"number": 64, "value": 127}, "group": "control_change"}, {"time": 2448, "annotation": {"number": 64, "value": 0}, "group": "control_change"}, {"time": 2451, "annotation": {"number": 64, "value": 127}, "group": "control_change"}, {"time": 2472, "annotation": {"number": 64, "value": 0}, "group": "control_change"}, {"time": 2475, "annotation": {"number": 64, "value": 127}, "group": "control_change"}, {"time": 2496, "annotation": {"number": 64, "value": 0}, "group": "control_change"}, {"time": 2499, "annotation": {"number": 64, "value": 127}, "group": "control_change"}, {"time": 2520, "annotation": {"number": 64, "value": 0}, "group": "control_change"}, {"time": 2524, "annotation": {"number": 64, "value": 127}, "group": "control_change"}, {"time": 2544, "annotation": {"number": 64, "value": 0}, "group": "control_change"}, {"time": 2547, "annotation": {"number": 64, "value": 127}, "group": "control_change"}, {"time": 2567, "annotation": {"number": 64, "value": 0}, "group": "control_change"}, {"time": 2571, "annotation": {"number": 64, "value": 127}, "group": "control_change"}, {"time": 2572, "annotation": {"number": 64, "value": 127}, "group": "control_change"}, {"time": 2580, "annotation": {"number": 64, "value": 0}, "group": "control_change"}, {"time": 2584, "annotation": {"number": 64, "value": 127}, "group": "control_change"}, {"time": 2592, "annotation": {"number": 64, "value": 0}, "group": "control_change"}, {"time": 2596, "annotation": {"number": 64, "value": 127}, "group": "control_change"}, {"time": 2615, "annotation": {"number": 64, "value": 0}, "group": "control_change"}, {"time": 2620, "annotation": {"number": 64, "value": 127}, "group": "control_change"}, {"time": 2639, "annotation": {"number": 64, "value": 0}, "group": "control_change"}, {"time": 2643, "annotation": {"number": 64, "value": 127}, "group": "control_change"}, {"time": 2663, "annotation": {"number": 64, "value": 0}, "group": "control_change"}, {"time": 2668, "annotation": {"number": 64, "value": 127}, "group": "control_change"}, {"time": 2681, "annotation": {"number": 64, "value": 0}, "group": "control_change"}, {"time": 2691, "annotation": {"number": 64, "value": 127}, "group": "control_change"}, {"time": 2712, "annotation": {"number": 64, "value": 0}, "group": "control_change"}, {"time": 2716, "annotation": {"number": 64, "value": 127}, "group": "control_change"}, {"time": 2730, "annotation": {"number": 64, "value": 0}, "group": "control_change"}, {"time": 2739, "annotation": {"number": 64, "value": 127}, "group": "control_change"}, {"time": 2758, "annotation": {"number": 64, "value": 0}, "group": "control_change"}, {"time": 2763, "annotation": {"number": 64, "value": 127}, "group": "control_change"}, {"time": 2783, "annotation": {"number": 64, "value": 0}, "group": "control_change"}, {"time": 2787, "annotation": {"number": 64, "value": 127}, "group": "control_change"}, {"time": 2797, "annotation": {"number": 64, "value": 0}, "group": "control_change"}, {"time": 2800, "annotation": {"number": 64, "value": 127}, "group": "control_change"}, {"time": 2807, "annotation": {"number": 64, "value": 0}, "group": "control_change"}, {"time": 2811, "annotation": {"number": 64, "value": 127}, "group": "control_change"}, {"time": 2831, "annotation": {"number": 64, "value": 0}, "group": "control_change"}, {"time": 2835, "annotation": {"number": 64, "value": 127}, "group": "control_change"}, {"time": 2855, "annotation": {"number": 64, "value": 0}, "group": "control_change"}, {"time": 2859, "annotation": {"number": 64, "value": 127}, "group": "control_change"}, {"time": 2879, "annotation": {"number": 64, "value": 0}, "group": "control_change"}, {"time": 2884, "annotation": {"number": 64, "value": 127}, "group": "control_change"}, {"time": 2896, "annotation": {"number": 64, "value": 0}, "group": "control_change"}, {"time": 2907, "annotation": {"number": 64, "value": 127}, "group": "control_change"}, {"time": 2927, "annotation": {"number": 64, "value": 0}, "group": "control_change"}, {"time": 2931, "annotation": {"number": 64, "value": 127}, "group": "control_change"}, {"time": 2951, "annotation": {"number": 64, "value": 0}, "group": "control_change"}, {"time": 2956, "annotation": {"number": 64, "value": 127}, "group": "control_change"}, {"time": 2975, "annotation": {"number": 64, "value": 0}, "group": "control_change"}, {"time": 2980, "annotation": {"number": 64, "value": 127}, "group": "control_change"}, {"time": 3001, "annotation": {"number": 64, "value": 0}, "group": "control_change"}, {"time": 3003, "annotation": {"number": 64, "value": 127}, "group": "control_change"}, {"time": 3048, "annotation": {"number": 64, "value": 0}, "group": "control_change"}, {"time": 3051, "annotation": {"number": 64, "value": 127}, "group": "control_change"}, {"time": 3072, "annotation": {"number": 64, "value": 0}, "group": "control_change"}, {"time": 3076, "annotation": {"number": 64, "value": 127}, "group": "control_change"}, {"time": 3096, "annotation": {"number": 64, "value": 0}, "group": "control_change"}, {"time": 3101, "annotation": {"number": 64, "value": 127}, "group": "control_change"}, {"time": 3119, "annotation": {"number": 64, "value": 0}, "group": "control_change"}, {"time": 3125, "annotation": {"number": 64, "value": 127}, "group": "control_change"}, {"time": 3142, "annotation": {"number": 64, "value": 0}, "group": "control_change"}, {"time": 3152, "annotation": {"number": 64, "value": 127}, "group": "control_change"}, {"time": 3204, "annotation": {"number": 64, "value": 0}, "group": "control_change"}, {"time": 3233, "annotation": {"number": 64, "value": 127}, "group": "control_change"}, {"time": 3274, "annotation": {"number": 64, "value": 0}, "group": "control_change"}, {"time": 3275, "annotation": {"number": 64, "value": 127}, "group": "control_change"}, {"time": 3278, "annotation": {"number": 64, "value": 0}, "group": "control_change"}]}]}