{"metadata": {"schema_version": "0.2", "title": "None", "source_filename": "725.mid", "source_format": "midi"}, "resolution": 12, "tempos": [{"time": 0, "qpm": 72.00011520018433}], "time_signatures": [{"time": 0, "numerator": 1, "denominator": 4}], "tracks": [{"program": 0, "is_drum": false, "name": "MELODY", "notes": [{"time": 229, "pitch": 57, "duration": 6, "velocity": 97}, {"time": 235, "pitch": 59, "duration": 5, "velocity": 85}, {"time": 241, "pitch": 66, "duration": 14, "velocity": 96}, {"time": 259, "pitch": 64, "duration": 4, "velocity": 100}, {"time": 265, "pitch": 64, "duration": 6, "velocity": 86}, {"time": 271, "pitch": 62, "duration": 4, "velocity": 90}, {"time": 277, "pitch": 62, "duration": 5, "velocity": 88}, {"time": 283, "pitch": 59, "duration": 6, "velocity": 75}, {"time": 289, "pitch": 62, "duration": 31, "velocity": 77}, {"time": 325, "pitch": 66, "duration": 5, "velocity": 96}, {"time": 331, "pitch": 69, "duration": 5, "velocity": 93}, {"time": 337, "pitch": 71, "duration": 15, "velocity": 99}, {"time": 355, "pitch": 69, "duration": 6, "velocity": 96}, {"time": 361, "pitch": 71, "duration": 6, "velocity": 96}, {"time": 367, "pitch": 69, "duration": 3, "velocity": 89}, {"time": 373, "pitch": 66, "duration": 4, "velocity": 77}, {"time": 379, "pitch": 66, "duration": 5, "velocity": 78}, {"time": 385, "pitch": 69, "duration": 30, "velocity": 85}, {"time": 421, "pitch": 69, "duration": 6, "velocity": 90}, {"time": 427, "pitch": 71, "duration": 5, "velocity": 77}, {"time": 433, "pitch": 74, "duration": 14, "velocity": 88}, {"time": 451, "pitch": 71, "duration": 5, "velocity": 86}, {"time": 457, "pitch": 71, "duration": 4, "velocity": 93}, {"time": 463, "pitch": 69, "duration": 4, "velocity": 95}, {"time": 469, "pitch": 66, "duration": 3, "velocity": 93}, {"time": 475, "pitch": 64, "duration": 4, "velocity": 89}, {"time": 481, "pitch": 66, "duration": 6, "velocity": 93}, {"time": 487, "pitch": 66, "duration": 3, "velocity": 92}, {"time": 493, "pitch": 66, "duration": 4, "velocity": 107}, {"time": 499, "pitch": 64, "duration": 5, "velocity": 90}, {"time": 505, "pitch": 62, "duration": 10, "velocity": 93}, {"time": 517, "pitch": 59, "duration": 5, "velocity": 89}, {"time": 523, "pitch": 66, "duration": 4, "velocity": 90}, {"time": 529, "pitch": 64, "duration": 5, "velocity": 88}, {"time": 535, "pitch": 66, "duration": 8, "velocity": 97}, {"time": 547, "pitch": 64, "duration": 3, "velocity": 85}, {"time": 550, "pitch": 66, "duration": 4, "velocity": 86}, {"time": 553, "pitch": 64, "duration": 3, "velocity": 72}, {"time": 559, "pitch": 64, "duration": 4, "velocity": 83}, {"time": 565, "pitch": 64, "duration": 4, "velocity": 76}, {"time": 571, "pitch": 62, "duration": 5, "velocity": 78}, {"time": 577, "pitch": 64, "duration": 24, "velocity": 77}, {"time": 613, "pitch": 57, "duration": 6, "velocity": 90}, {"time": 619, "pitch": 59, "duration": 6, "velocity": 73}, {"time": 625, "pitch": 66, "duration": 15, "velocity": 78}, {"time": 643, "pitch": 64, "duration": 4, "velocity": 79}, {"time": 649, "pitch": 64, "duration": 5, "velocity": 82}, {"time": 655, "pitch": 62, "duration": 4, "velocity": 90}, {"time": 661, "pitch": 59, "duration": 3, "velocity": 96}, {"time": 667, "pitch": 59, "duration": 4, "velocity": 92}, {"time": 673, "pitch": 62, "duration": 22, "velocity": 83}, {"time": 709, "pitch": 66, "duration": 5, "velocity": 99}, {"time": 715, "pitch": 69, "duration": 4, "velocity": 93}, {"time": 721, "pitch": 71, "duration": 13, "velocity": 107}, {"time": 739, "pitch": 69, "duration": 4, "velocity": 96}, {"time": 745, "pitch": 71, "duration": 5, "velocity": 97}, {"time": 751, "pitch": 69, "duration": 4, "velocity": 88}, {"time": 757, "pitch": 66, "duration": 4, "velocity": 79}, {"time": 763, "pitch": 66, "duration": 5, "velocity": 95}, {"time": 769, "pitch": 69, "duration": 25, "velocity": 92}, {"time": 805, "pitch": 69, "duration": 5, "velocity": 95}, {"time": 811, "pitch": 71, "duration": 6, "velocity": 95}, {"time": 817, "pitch": 74, "duration": 11, "velocity": 95}, {"time": 835, "pitch": 71, "duration": 5, "velocity": 100}, {"time": 841, "pitch": 71, "duration": 6, "velocity": 93}, {"time": 847, "pitch": 69, "duration": 5, "velocity": 96}, {"time": 853, "pitch": 66, "duration": 5, "velocity": 97}, {"time": 859, "pitch": 64, "duration": 6, "velocity": 86}, {"time": 865, "pitch": 66, "duration": 4, "velocity": 82}, {"time": 871, "pitch": 66, "duration": 4, "velocity": 100}, {"time": 877, "pitch": 66, "duration": 5, "velocity": 99}, {"time": 883, "pitch": 64, "duration": 5, "velocity": 86}, {"time": 889, "pitch": 62, "duration": 7, "velocity": 82}, {"time": 901, "pitch": 59, "duration": 5, "velocity": 90}, {"time": 907, "pitch": 66, "duration": 6, "velocity": 97}, {"time": 913, "pitch": 64, "duration": 13, "velocity": 86}, {"time": 931, "pitch": 64, "duration": 2, "velocity": 92}, {"time": 934, "pitch": 66, "duration": 4, "velocity": 96}, {"time": 937, "pitch": 64, "duration": 4, "velocity": 89}, {"time": 943, "pitch": 64, "duration": 4, "velocity": 90}, {"time": 949, "pitch": 64, "duration": 5, "velocity": 85}, {"time": 955, "pitch": 62, "duration": 5, "velocity": 96}, {"time": 961, "pitch": 69, "duration": 32, "velocity": 112}, {"time": 997, "pitch": 69, "duration": 5, "velocity": 96}, {"time": 1003, "pitch": 71, "duration": 4, "velocity": 96}, {"time": 1009, "pitch": 74, "duration": 12, "velocity": 99}, {"time": 1027, "pitch": 76, "duration": 3, "velocity": 107}, {"time": 1033, "pitch": 76, "duration": 5, "velocity": 97}, {"time": 1039, "pitch": 74, "duration": 3, "velocity": 97}, {"time": 1045, "pitch": 71, "duration": 4, "velocity": 96}, {"time": 1051, "pitch": 71, "duration": 1, "velocity": 93}, {"time": 1054, "pitch": 71, "duration": 2, "velocity": 92}, {"time": 1057, "pitch": 74, "duration": 18, "velocity": 102}, {"time": 1093, "pitch": 69, "duration": 5, "velocity": 96}, {"time": 1099, "pitch": 71, "duration": 4, "velocity": 96}, {"time": 1105, "pitch": 74, "duration": 12, "velocity": 99}, {"time": 1123, "pitch": 76, "duration": 5, "velocity": 96}, {"time": 1129, "pitch": 76, "duration": 4, "velocity": 96}, {"time": 1135, "pitch": 74, "duration": 4, "velocity": 96}, {"time": 1141, "pitch": 71, "duration": 5, "velocity": 90}, {"time": 1147, "pitch": 69, "duration": 6, "velocity": 96}, {"time": 1153, "pitch": 71, "duration": 19, "velocity": 99}, {"time": 1189, "pitch": 69, "duration": 5, "velocity": 96}, {"time": 1195, "pitch": 71, "duration": 6, "velocity": 100}, {"time": 1201, "pitch": 71, "duration": 4, "velocity": 100}, {"time": 1205, "pitch": 74, "duration": 12, "velocity": 100}, {"time": 1219, "pitch": 76, "duration": 4, "velocity": 122}, {"time": 1225, "pitch": 76, "duration": 5, "velocity": 100}, {"time": 1231, "pitch": 74, "duration": 4, "velocity": 96}, {"time": 1237, "pitch": 71, "duration": 4, "velocity": 92}, {"time": 1243, "pitch": 69, "duration": 5, "velocity": 96}, {"time": 1249, "pitch": 71, "duration": 4, "velocity": 95}, {"time": 1255, "pitch": 71, "duration": 1, "velocity": 99}, {"time": 1258, "pitch": 71, "duration": 1, "velocity": 93}, {"time": 1261, "pitch": 71, "duration": 5, "velocity": 99}, {"time": 1267, "pitch": 69, "duration": 6, "velocity": 95}, {"time": 1273, "pitch": 66, "duration": 9, "velocity": 99}, {"time": 1285, "pitch": 66, "duration": 4, "velocity": 99}, {"time": 1291, "pitch": 71, "duration": 6, "velocity": 93}, {"time": 1297, "pitch": 69, "duration": 12, "velocity": 90}, {"time": 1315, "pitch": 69, "duration": 3, "velocity": 96}, {"time": 1318, "pitch": 71, "duration": 3, "velocity": 77}, {"time": 1321, "pitch": 66, "duration": 6, "velocity": 86}, {"time": 1327, "pitch": 64, "duration": 4, "velocity": 100}, {"time": 1333, "pitch": 64, "duration": 4, "velocity": 77}, {"time": 1339, "pitch": 64, "duration": 3, "velocity": 95}, {"time": 1342, "pitch": 62, "duration": 3, "velocity": 76}, {"time": 1345, "pitch": 66, "duration": 3, "velocity": 102}, {"time": 1348, "pitch": 69, "duration": 22, "velocity": 85}, {"time": 1381, "pitch": 69, "duration": 5, "velocity": 96}, {"time": 1387, "pitch": 71, "duration": 4, "velocity": 96}, {"time": 1393, "pitch": 74, "duration": 12, "velocity": 99}, {"time": 1411, "pitch": 76, "duration": 3, "velocity": 107}, {"time": 1417, "pitch": 76, "duration": 5, "velocity": 97}, {"time": 1423, "pitch": 74, "duration": 3, "velocity": 97}, {"time": 1429, "pitch": 71, "duration": 4, "velocity": 96}, {"time": 1435, "pitch": 71, "duration": 1, "velocity": 93}, {"time": 1438, "pitch": 71, "duration": 2, "velocity": 92}, {"time": 1441, "pitch": 74, "duration": 18, "velocity": 102}, {"time": 1477, "pitch": 69, "duration": 5, "velocity": 96}, {"time": 1483, "pitch": 71, "duration": 4, "velocity": 96}, {"time": 1489, "pitch": 74, "duration": 12, "velocity": 99}, {"time": 1507, "pitch": 76, "duration": 5, "velocity": 96}, {"time": 1513, "pitch": 76, "duration": 4, "velocity": 96}, {"time": 1519, "pitch": 74, "duration": 4, "velocity": 96}, {"time": 1525, "pitch": 71, "duration": 5, "velocity": 90}, {"time": 1531, "pitch": 69, "duration": 6, "velocity": 96}, {"time": 1537, "pitch": 71, "duration": 19, "velocity": 99}, {"time": 1573, "pitch": 69, "duration": 5, "velocity": 96}, {"time": 1579, "pitch": 71, "duration": 5, "velocity": 100}, {"time": 1585, "pitch": 74, "duration": 15, "velocity": 100}, {"time": 1603, "pitch": 76, "duration": 4, "velocity": 122}, {"time": 1609, "pitch": 76, "duration": 5, "velocity": 100}, {"time": 1615, "pitch": 74, "duration": 4, "velocity": 96}, {"time": 1621, "pitch": 71, "duration": 4, "velocity": 92}, {"time": 1627, "pitch": 69, "duration": 5, "velocity": 96}, {"time": 1633, "pitch": 71, "duration": 4, "velocity": 95}, {"time": 1639, "pitch": 71, "duration": 1, "velocity": 99}, {"time": 1642, "pitch": 71, "duration": 1, "velocity": 93}, {"time": 1645, "pitch": 71, "duration": 5, "velocity": 99}, {"time": 1651, "pitch": 69, "duration": 6, "velocity": 95}, {"time": 1657, "pitch": 66, "duration": 9, "velocity": 99}, {"time": 1669, "pitch": 66, "duration": 4, "velocity": 99}, {"time": 1675, "pitch": 71, "duration": 6, "velocity": 93}, {"time": 1681, "pitch": 69, "duration": 12, "velocity": 90}, {"time": 1699, "pitch": 69, "duration": 3, "velocity": 96}, {"time": 1702, "pitch": 71, "duration": 3, "velocity": 77}, {"time": 1705, "pitch": 66, "duration": 6, "velocity": 86}, {"time": 1711, "pitch": 64, "duration": 4, "velocity": 100}, {"time": 1717, "pitch": 64, "duration": 4, "velocity": 77}, {"time": 1723, "pitch": 62, "duration": 4, "velocity": 96}, {"time": 1729, "pitch": 62, "duration": 37, "velocity": 96}, {"time": 2149, "pitch": 57, "duration": 6, "velocity": 97}, {"time": 2155, "pitch": 59, "duration": 5, "velocity": 85}, {"time": 2161, "pitch": 66, "duration": 14, "velocity": 96}, {"time": 2179, "pitch": 64, "duration": 4, "velocity": 100}, {"time": 2185, "pitch": 64, "duration": 6, "velocity": 86}, {"time": 2191, "pitch": 62, "duration": 4, "velocity": 90}, {"time": 2197, "pitch": 62, "duration": 5, "velocity": 88}, {"time": 2203, "pitch": 59, "duration": 6, "velocity": 75}, {"time": 2209, "pitch": 62, "duration": 31, "velocity": 77}, {"time": 2245, "pitch": 66, "duration": 5, "velocity": 96}, {"time": 2251, "pitch": 69, "duration": 5, "velocity": 93}, {"time": 2257, "pitch": 71, "duration": 15, "velocity": 99}, {"time": 2275, "pitch": 69, "duration": 6, "velocity": 96}, {"time": 2281, "pitch": 71, "duration": 6, "velocity": 96}, {"time": 2287, "pitch": 69, "duration": 3, "velocity": 89}, {"time": 2293, "pitch": 66, "duration": 4, "velocity": 77}, {"time": 2299, "pitch": 66, "duration": 5, "velocity": 78}, {"time": 2305, "pitch": 69, "duration": 30, "velocity": 85}, {"time": 2341, "pitch": 69, "duration": 6, "velocity": 90}, {"time": 2347, "pitch": 71, "duration": 5, "velocity": 77}, {"time": 2353, "pitch": 74, "duration": 14, "velocity": 88}, {"time": 2371, "pitch": 71, "duration": 5, "velocity": 86}, {"time": 2377, "pitch": 71, "duration": 4, "velocity": 93}, {"time": 2383, "pitch": 69, "duration": 4, "velocity": 95}, {"time": 2389, "pitch": 66, "duration": 3, "velocity": 93}, {"time": 2395, "pitch": 64, "duration": 4, "velocity": 89}, {"time": 2401, "pitch": 66, "duration": 6, "velocity": 93}, {"time": 2407, "pitch": 66, "duration": 3, "velocity": 92}, {"time": 2413, "pitch": 66, "duration": 4, "velocity": 107}, {"time": 2419, "pitch": 64, "duration": 5, "velocity": 90}, {"time": 2425, "pitch": 62, "duration": 10, "velocity": 93}, {"time": 2437, "pitch": 59, "duration": 5, "velocity": 89}, {"time": 2443, "pitch": 66, "duration": 4, "velocity": 90}, {"time": 2449, "pitch": 64, "duration": 5, "velocity": 88}, {"time": 2455, "pitch": 66, "duration": 8, "velocity": 97}, {"time": 2467, "pitch": 64, "duration": 3, "velocity": 85}, {"time": 2470, "pitch": 66, "duration": 4, "velocity": 86}, {"time": 2473, "pitch": 64, "duration": 3, "velocity": 72}, {"time": 2479, "pitch": 64, "duration": 4, "velocity": 83}, {"time": 2485, "pitch": 64, "duration": 4, "velocity": 76}, {"time": 2491, "pitch": 62, "duration": 5, "velocity": 78}, {"time": 2497, "pitch": 64, "duration": 24, "velocity": 77}, {"time": 2533, "pitch": 57, "duration": 6, "velocity": 90}, {"time": 2539, "pitch": 59, "duration": 6, "velocity": 73}, {"time": 2545, "pitch": 66, "duration": 15, "velocity": 78}, {"time": 2563, "pitch": 64, "duration": 4, "velocity": 79}, {"time": 2569, "pitch": 64, "duration": 5, "velocity": 82}, {"time": 2575, "pitch": 62, "duration": 4, "velocity": 90}, {"time": 2581, "pitch": 59, "duration": 3, "velocity": 96}, {"time": 2587, "pitch": 59, "duration": 4, "velocity": 92}, {"time": 2593, "pitch": 62, "duration": 22, "velocity": 83}, {"time": 2629, "pitch": 66, "duration": 5, "velocity": 99}, {"time": 2635, "pitch": 69, "duration": 4, "velocity": 93}, {"time": 2641, "pitch": 71, "duration": 13, "velocity": 107}, {"time": 2659, "pitch": 69, "duration": 4, "velocity": 96}, {"time": 2665, "pitch": 71, "duration": 5, "velocity": 97}, {"time": 2671, "pitch": 69, "duration": 4, "velocity": 88}, {"time": 2677, "pitch": 66, "duration": 4, "velocity": 79}, {"time": 2683, "pitch": 66, "duration": 5, "velocity": 95}, {"time": 2689, "pitch": 69, "duration": 25, "velocity": 92}, {"time": 2725, "pitch": 69, "duration": 5, "velocity": 95}, {"time": 2731, "pitch": 71, "duration": 6, "velocity": 95}, {"time": 2737, "pitch": 74, "duration": 11, "velocity": 95}, {"time": 2755, "pitch": 71, "duration": 5, "velocity": 100}, {"time": 2761, "pitch": 71, "duration": 6, "velocity": 93}, {"time": 2767, "pitch": 69, "duration": 5, "velocity": 96}, {"time": 2773, "pitch": 66, "duration": 5, "velocity": 97}, {"time": 2779, "pitch": 64, "duration": 6, "velocity": 86}, {"time": 2785, "pitch": 66, "duration": 4, "velocity": 82}, {"time": 2791, "pitch": 66, "duration": 4, "velocity": 100}, {"time": 2797, "pitch": 66, "duration": 5, "velocity": 99}, {"time": 2803, "pitch": 64, "duration": 5, "velocity": 86}, {"time": 2809, "pitch": 62, "duration": 7, "velocity": 82}, {"time": 2821, "pitch": 59, "duration": 5, "velocity": 90}, {"time": 2827, "pitch": 66, "duration": 6, "velocity": 97}, {"time": 2833, "pitch": 64, "duration": 13, "velocity": 86}, {"time": 2851, "pitch": 64, "duration": 2, "velocity": 92}, {"time": 2854, "pitch": 66, "duration": 4, "velocity": 96}, {"time": 2857, "pitch": 64, "duration": 4, "velocity": 89}, {"time": 2863, "pitch": 64, "duration": 4, "velocity": 90}, {"time": 2869, "pitch": 64, "duration": 5, "velocity": 85}, {"time": 2875, "pitch": 62, "duration": 5, "velocity": 96}, {"time": 2881, "pitch": 69, "duration": 32, "velocity": 112}, {"time": 2917, "pitch": 69, "duration": 5, "velocity": 96}, {"time": 2923, "pitch": 71, "duration": 4, "velocity": 96}, {"time": 2929, "pitch": 74, "duration": 12, "velocity": 99}, {"time": 2947, "pitch": 76, "duration": 3, "velocity": 107}, {"time": 2953, "pitch": 76, "duration": 5, "velocity": 97}, {"time": 2959, "pitch": 74, "duration": 3, "velocity": 97}, {"time": 2965, "pitch": 71, "duration": 4, "velocity": 96}, {"time": 2971, "pitch": 71, "duration": 1, "velocity": 93}, {"time": 2974, "pitch": 71, "duration": 2, "velocity": 92}, {"time": 2977, "pitch": 74, "duration": 18, "velocity": 102}, {"time": 3013, "pitch": 69, "duration": 5, "velocity": 96}, {"time": 3019, "pitch": 71, "duration": 4, "velocity": 96}, {"time": 3025, "pitch": 74, "duration": 12, "velocity": 99}, {"time": 3043, "pitch": 76, "duration": 5, "velocity": 96}, {"time": 3049, "pitch": 76, "duration": 4, "velocity": 96}, {"time": 3055, "pitch": 74, "duration": 4, "velocity": 96}, {"time": 3061, "pitch": 71, "duration": 5, "velocity": 90}, {"time": 3067, "pitch": 69, "duration": 6, "velocity": 96}, {"time": 3073, "pitch": 71, "duration": 19, "velocity": 99}, {"time": 3109, "pitch": 69, "duration": 5, "velocity": 96}, {"time": 3115, "pitch": 71, "duration": 5, "velocity": 100}, {"time": 3121, "pitch": 74, "duration": 15, "velocity": 100}, {"time": 3139, "pitch": 76, "duration": 4, "velocity": 122}, {"time": 3145, "pitch": 76, "duration": 5, "velocity": 100}, {"time": 3151, "pitch": 74, "duration": 4, "velocity": 96}, {"time": 3157, "pitch": 71, "duration": 4, "velocity": 92}, {"time": 3163, "pitch": 69, "duration": 5, "velocity": 96}, {"time": 3169, "pitch": 71, "duration": 4, "velocity": 95}, {"time": 3175, "pitch": 71, "duration": 1, "velocity": 99}, {"time": 3178, "pitch": 71, "duration": 1, "velocity": 93}, {"time": 3181, "pitch": 71, "duration": 5, "velocity": 99}, {"time": 3187, "pitch": 69, "duration": 6, "velocity": 95}, {"time": 3193, "pitch": 66, "duration": 9, "velocity": 99}, {"time": 3205, "pitch": 66, "duration": 4, "velocity": 99}, {"time": 3211, "pitch": 71, "duration": 6, "velocity": 93}, {"time": 3217, "pitch": 69, "duration": 12, "velocity": 90}, {"time": 3235, "pitch": 69, "duration": 3, "velocity": 96}, {"time": 3238, "pitch": 71, "duration": 3, "velocity": 77}, {"time": 3241, "pitch": 66, "duration": 6, "velocity": 86}, {"time": 3247, "pitch": 64, "duration": 4, "velocity": 100}, {"time": 3253, "pitch": 64, "duration": 4, "velocity": 77}, {"time": 3259, "pitch": 64, "duration": 3, "velocity": 95}, {"time": 3262, "pitch": 62, "duration": 3, "velocity": 76}, {"time": 3265, "pitch": 66, "duration": 3, "velocity": 102}, {"time": 3268, "pitch": 69, "duration": 22, "velocity": 85}, {"time": 3301, "pitch": 69, "duration": 5, "velocity": 96}, {"time": 3307, "pitch": 71, "duration": 4, "velocity": 96}, {"time": 3313, "pitch": 74, "duration": 12, "velocity": 99}, {"time": 3331, "pitch": 76, "duration": 3, "velocity": 107}, {"time": 3337, "pitch": 76, "duration": 5, "velocity": 97}, {"time": 3343, "pitch": 74, "duration": 3, "velocity": 97}, {"time": 3349, "pitch": 71, "duration": 4, "velocity": 96}, {"time": 3355, "pitch": 71, "duration": 1, "velocity": 93}, {"time": 3358, "pitch": 71, "duration": 2, "velocity": 92}, {"time": 3361, "pitch": 74, "duration": 18, "velocity": 102}, {"time": 3397, "pitch": 69, "duration": 5, "velocity": 96}, {"time": 3403, "pitch": 71, "duration": 4, "velocity": 96}, {"time": 3409, "pitch": 74, "duration": 12, "velocity": 99}, {"time": 3427, "pitch": 76, "duration": 5, "velocity": 96}, {"time": 3433, "pitch": 76, "duration": 4, "velocity": 96}, {"time": 3439, "pitch": 74, "duration": 4, "velocity": 96}, {"time": 3445, "pitch": 71, "duration": 5, "velocity": 90}, {"time": 3451, "pitch": 69, "duration": 6, "velocity": 96}, {"time": 3457, "pitch": 71, "duration": 19, "velocity": 99}, {"time": 3493, "pitch": 69, "duration": 5, "velocity": 96}, {"time": 3499, "pitch": 71, "duration": 5, "velocity": 100}, {"time": 3505, "pitch": 74, "duration": 15, "velocity": 100}, {"time": 3523, "pitch": 76, "duration": 4, "velocity": 122}, {"time": 3529, "pitch": 76, "duration": 5, "velocity": 100}, {"time": 3535, "pitch": 74, "duration": 4, "velocity": 96}, {"time": 3541, "pitch": 71, "duration": 4, "velocity": 92}, {"time": 3547, "pitch": 69, "duration": 5, "velocity": 96}, {"time": 3553, "pitch": 71, "duration": 4, "velocity": 95}, {"time": 3559, "pitch": 71, "duration": 1, "velocity": 99}, {"time": 3562, "pitch": 71, "duration": 1, "velocity": 93}, {"time": 3565, "pitch": 71, "duration": 5, "velocity": 99}, {"time": 3571, "pitch": 69, "duration": 6, "velocity": 95}, {"time": 3577, "pitch": 66, "duration": 9, "velocity": 99}, {"time": 3589, "pitch": 66, "duration": 4, "velocity": 99}, {"time": 3595, "pitch": 71, "duration": 6, "velocity": 93}, {"time": 3601, "pitch": 69, "duration": 12, "velocity": 90}, {"time": 3619, "pitch": 69, "duration": 3, "velocity": 96}, {"time": 3622, "pitch": 71, "duration": 3, "velocity": 77}, {"time": 3625, "pitch": 66, "duration": 6, "velocity": 86}, {"time": 3631, "pitch": 64, "duration": 4, "velocity": 100}, {"time": 3637, "pitch": 64, "duration": 4, "velocity": 77}, {"time": 3643, "pitch": 62, "duration": 4, "velocity": 96}, {"time": 3649, "pitch": 62, "duration": 32, "velocity": 96}, {"time": 3685, "pitch": 69, "duration": 5, "velocity": 96}, {"time": 3691, "pitch": 71, "duration": 4, "velocity": 96}, {"time": 3697, "pitch": 74, "duration": 12, "velocity": 99}, {"time": 3715, "pitch": 76, "duration": 3, "velocity": 107}, {"time": 3721, "pitch": 76, "duration": 5, "velocity": 97}, {"time": 3727, "pitch": 74, "duration": 3, "velocity": 97}, {"time": 3733, "pitch": 71, "duration": 4, "velocity": 96}, {"time": 3739, "pitch": 71, "duration": 1, "velocity": 93}, {"time": 3742, "pitch": 71, "duration": 2, "velocity": 92}, {"time": 3745, "pitch": 74, "duration": 18, "velocity": 102}, {"time": 3781, "pitch": 69, "duration": 5, "velocity": 96}, {"time": 3787, "pitch": 71, "duration": 4, "velocity": 96}, {"time": 3793, "pitch": 74, "duration": 12, "velocity": 99}, {"time": 3811, "pitch": 76, "duration": 5, "velocity": 96}, {"time": 3817, "pitch": 76, "duration": 4, "velocity": 96}, {"time": 3823, "pitch": 74, "duration": 4, "velocity": 96}, {"time": 3829, "pitch": 71, "duration": 5, "velocity": 90}, {"time": 3835, "pitch": 69, "duration": 6, "velocity": 96}, {"time": 3841, "pitch": 71, "duration": 19, "velocity": 99}, {"time": 3877, "pitch": 69, "duration": 5, "velocity": 96}, {"time": 3883, "pitch": 71, "duration": 5, "velocity": 100}, {"time": 3889, "pitch": 74, "duration": 15, "velocity": 100}, {"time": 3907, "pitch": 76, "duration": 4, "velocity": 122}, {"time": 3913, "pitch": 76, "duration": 5, "velocity": 100}, {"time": 3919, "pitch": 74, "duration": 4, "velocity": 96}, {"time": 3925, "pitch": 71, "duration": 4, "velocity": 92}, {"time": 3931, "pitch": 69, "duration": 5, "velocity": 96}, {"time": 3937, "pitch": 71, "duration": 4, "velocity": 95}, {"time": 3943, "pitch": 71, "duration": 1, "velocity": 99}, {"time": 3946, "pitch": 71, "duration": 1, "velocity": 93}, {"time": 3949, "pitch": 71, "duration": 5, "velocity": 99}, {"time": 3955, "pitch": 69, "duration": 6, "velocity": 95}, {"time": 3961, "pitch": 66, "duration": 9, "velocity": 99}, {"time": 3973, "pitch": 66, "duration": 4, "velocity": 99}, {"time": 3979, "pitch": 71, "duration": 6, "velocity": 93}, {"time": 3985, "pitch": 69, "duration": 12, "velocity": 90}, {"time": 4003, "pitch": 69, "duration": 3, "velocity": 96}, {"time": 4006, "pitch": 71, "duration": 3, "velocity": 77}, {"time": 4009, "pitch": 66, "duration": 6, "velocity": 86}, {"time": 4015, "pitch": 64, "duration": 4, "velocity": 100}, {"time": 4021, "pitch": 64, "duration": 4, "velocity": 77}, {"time": 4027, "pitch": 64, "duration": 3, "velocity": 95}, {"time": 4030, "pitch": 62, "duration": 3, "velocity": 76}, {"time": 4033, "pitch": 66, "duration": 3, "velocity": 102}, {"time": 4036, "pitch": 69, "duration": 22, "velocity": 85}, {"time": 4069, "pitch": 69, "duration": 5, "velocity": 96}, {"time": 4075, "pitch": 71, "duration": 4, "velocity": 96}, {"time": 4081, "pitch": 74, "duration": 12, "velocity": 99}, {"time": 4099, "pitch": 76, "duration": 3, "velocity": 107}, {"time": 4105, "pitch": 76, "duration": 5, "velocity": 97}, {"time": 4111, "pitch": 74, "duration": 3, "velocity": 97}, {"time": 4117, "pitch": 71, "duration": 4, "velocity": 96}, {"time": 4123, "pitch": 71, "duration": 1, "velocity": 93}, {"time": 4126, "pitch": 71, "duration": 2, "velocity": 92}, {"time": 4129, "pitch": 74, "duration": 18, "velocity": 102}, {"time": 4165, "pitch": 69, "duration": 5, "velocity": 96}, {"time": 4171, "pitch": 71, "duration": 4, "velocity": 96}, {"time": 4177, "pitch": 74, "duration": 12, "velocity": 99}, {"time": 4195, "pitch": 76, "duration": 5, "velocity": 96}, {"time": 4201, "pitch": 76, "duration": 4, "velocity": 96}, {"time": 4207, "pitch": 74, "duration": 4, "velocity": 96}, {"time": 4213, "pitch": 71, "duration": 5, "velocity": 90}, {"time": 4219, "pitch": 69, "duration": 6, "velocity": 96}, {"time": 4225, "pitch": 71, "duration": 19, "velocity": 99}, {"time": 4261, "pitch": 69, "duration": 5, "velocity": 96}, {"time": 4267, "pitch": 71, "duration": 5, "velocity": 100}, {"time": 4273, "pitch": 74, "duration": 15, "velocity": 100}, {"time": 4291, "pitch": 76, "duration": 4, "velocity": 122}, {"time": 4297, "pitch": 76, "duration": 5, "velocity": 100}, {"time": 4303, "pitch": 74, "duration": 4, "velocity": 96}, {"time": 4309, "pitch": 71, "duration": 4, "velocity": 92}, {"time": 4315, "pitch": 69, "duration": 5, "velocity": 96}, {"time": 4321, "pitch": 71, "duration": 4, "velocity": 95}, {"time": 4327, "pitch": 71, "duration": 1, "velocity": 99}, {"time": 4330, "pitch": 71, "duration": 1, "velocity": 93}, {"time": 4333, "pitch": 71, "duration": 5, "velocity": 99}, {"time": 4339, "pitch": 69, "duration": 6, "velocity": 95}, {"time": 4345, "pitch": 66, "duration": 9, "velocity": 99}, {"time": 4357, "pitch": 66, "duration": 4, "velocity": 99}, {"time": 4363, "pitch": 71, "duration": 6, "velocity": 93}, {"time": 4369, "pitch": 69, "duration": 12, "velocity": 90}, {"time": 4387, "pitch": 69, "duration": 3, "velocity": 96}, {"time": 4390, "pitch": 71, "duration": 3, "velocity": 77}, {"time": 4393, "pitch": 66, "duration": 6, "velocity": 86}, {"time": 4399, "pitch": 64, "duration": 4, "velocity": 100}, {"time": 4405, "pitch": 64, "duration": 4, "velocity": 77}, {"time": 4411, "pitch": 62, "duration": 4, "velocity": 96}, {"time": 4417, "pitch": 62, "duration": 32, "velocity": 96}]}, {"program": 0, "is_drum": false, "name": "PIANO", "notes": [{"time": 49, "pitch": 38, "duration": 38, "velocity": 89}, {"time": 55, "pitch": 45, "duration": 32, "velocity": 60}, {"time": 61, "pitch": 57, "duration": 17, "velocity": 69}, {"time": 61, "pitch": 62, "duration": 19, "velocity": 74}, {"time": 67, "pitch": 50, "duration": 9, "velocity": 62}, {"time": 73, "pitch": 66, "duration": 30, "velocity": 93}, {"time": 79, "pitch": 50, "duration": 5, "velocity": 70}, {"time": 85, "pitch": 62, "duration": 16, "velocity": 99}, {"time": 91, "pitch": 57, "duration": 8, "velocity": 55}, {"time": 94, "pitch": 42, "duration": 2, "velocity": 33}, {"time": 97, "pitch": 35, "duration": 37, "velocity": 88}, {"time": 103, "pitch": 42, "duration": 30, "velocity": 47}, {"time": 109, "pitch": 59, "duration": 15, "velocity": 73}, {"time": 109, "pitch": 62, "duration": 12, "velocity": 81}, {"time": 115, "pitch": 47, "duration": 9, "velocity": 55}, {"time": 121, "pitch": 66, "duration": 20, "velocity": 90}, {"time": 127, "pitch": 47, "duration": 6, "velocity": 66}, {"time": 133, "pitch": 62, "duration": 8, "velocity": 72}, {"time": 139, "pitch": 59, "duration": 7, "velocity": 71}, {"time": 145, "pitch": 33, "duration": 35, "velocity": 74}, {"time": 151, "pitch": 40, "duration": 30, "velocity": 44}, {"time": 157, "pitch": 64, "duration": 37, "velocity": 85}, {"time": 163, "pitch": 45, "duration": 9, "velocity": 66}, {"time": 169, "pitch": 61, "duration": 14, "velocity": 85}, {"time": 175, "pitch": 45, "duration": 11, "velocity": 59}, {"time": 181, "pitch": 57, "duration": 23, "velocity": 83}, {"time": 187, "pitch": 61, "duration": 7, "velocity": 56}, {"time": 193, "pitch": 38, "duration": 42, "velocity": 88}, {"time": 199, "pitch": 45, "duration": 42, "velocity": 46}, {"time": 205, "pitch": 57, "duration": 1, "velocity": 30}, {"time": 205, "pitch": 62, "duration": 11, "velocity": 71}, {"time": 211, "pitch": 50, "duration": 9, "velocity": 67}, {"time": 217, "pitch": 62, "duration": 7, "velocity": 67}, {"time": 217, "pitch": 66, "duration": 30, "velocity": 99}, {"time": 223, "pitch": 50, "duration": 6, "velocity": 62}, {"time": 229, "pitch": 61, "duration": 12, "velocity": 63}, {"time": 235, "pitch": 57, "duration": 14, "velocity": 49}, {"time": 241, "pitch": 38, "duration": 20, "velocity": 82}, {"time": 247, "pitch": 45, "duration": 15, "velocity": 48}, {"time": 253, "pitch": 62, "duration": 15, "velocity": 72}, {"time": 259, "pitch": 50, "duration": 2, "velocity": 58}, {"time": 265, "pitch": 35, "duration": 16, "velocity": 73}, {"time": 271, "pitch": 42, "duration": 9, "velocity": 55}, {"time": 277, "pitch": 62, "duration": 13, "velocity": 70}, {"time": 277, "pitch": 66, "duration": 13, "velocity": 79}, {"time": 283, "pitch": 59, "duration": 8, "velocity": 61}, {"time": 289, "pitch": 33, "duration": 43, "velocity": 77}, {"time": 295, "pitch": 40, "duration": 39, "velocity": 59}, {"time": 301, "pitch": 57, "duration": 25, "velocity": 58}, {"time": 301, "pitch": 61, "duration": 10, "velocity": 58}, {"time": 301, "pitch": 64, "duration": 10, "velocity": 55}, {"time": 307, "pitch": 45, "duration": 9, "velocity": 59}, {"time": 313, "pitch": 61, "duration": 8, "velocity": 48}, {"time": 313, "pitch": 64, "duration": 24, "velocity": 63}, {"time": 319, "pitch": 45, "duration": 13, "velocity": 56}, {"time": 325, "pitch": 59, "duration": 12, "velocity": 71}, {"time": 325, "pitch": 61, "duration": 12, "velocity": 65}, {"time": 331, "pitch": 57, "duration": 7, "velocity": 69}, {"time": 337, "pitch": 35, "duration": 37, "velocity": 74}, {"time": 343, "pitch": 42, "duration": 32, "velocity": 59}, {"time": 349, "pitch": 59, "duration": 11, "velocity": 69}, {"time": 349, "pitch": 62, "duration": 5, "velocity": 76}, {"time": 355, "pitch": 47, "duration": 9, "velocity": 73}, {"time": 361, "pitch": 59, "duration": 14, "velocity": 54}, {"time": 361, "pitch": 62, "duration": 25, "velocity": 67}, {"time": 361, "pitch": 66, "duration": 25, "velocity": 71}, {"time": 367, "pitch": 47, "duration": 9, "velocity": 66}, {"time": 373, "pitch": 69, "duration": 13, "velocity": 60}, {"time": 379, "pitch": 59, "duration": 8, "velocity": 55}, {"time": 385, "pitch": 45, "duration": 38, "velocity": 74}, {"time": 391, "pitch": 52, "duration": 9, "velocity": 56}, {"time": 397, "pitch": 57, "duration": 14, "velocity": 68}, {"time": 397, "pitch": 61, "duration": 7, "velocity": 62}, {"time": 397, "pitch": 64, "duration": 33, "velocity": 65}, {"time": 403, "pitch": 52, "duration": 8, "velocity": 78}, {"time": 409, "pitch": 59, "duration": 9, "velocity": 70}, {"time": 415, "pitch": 52, "duration": 6, "velocity": 53}, {"time": 421, "pitch": 61, "duration": 7, "velocity": 79}, {"time": 427, "pitch": 57, "duration": 38, "velocity": 61}, {"time": 433, "pitch": 38, "duration": 39, "velocity": 82}, {"time": 439, "pitch": 45, "duration": 33, "velocity": 50}, {"time": 445, "pitch": 62, "duration": 7, "velocity": 83}, {"time": 451, "pitch": 50, "duration": 8, "velocity": 67}, {"time": 454, "pitch": 66, "duration": 1, "velocity": 16}, {"time": 457, "pitch": 62, "duration": 10, "velocity": 76}, {"time": 457, "pitch": 66, "duration": 49, "velocity": 74}, {"time": 463, "pitch": 50, "duration": 11, "velocity": 71}, {"time": 469, "pitch": 62, "duration": 12, "velocity": 88}, {"time": 475, "pitch": 57, "duration": 10, "velocity": 69}, {"time": 481, "pitch": 42, "duration": 16, "velocity": 66}, {"time": 487, "pitch": 49, "duration": 9, "velocity": 34}, {"time": 493, "pitch": 54, "duration": 4, "velocity": 53}, {"time": 493, "pitch": 61, "duration": 11, "velocity": 90}, {"time": 499, "pitch": 57, "duration": 7, "velocity": 71}, {"time": 505, "pitch": 47, "duration": 14, "velocity": 69}, {"time": 511, "pitch": 54, "duration": 6, "velocity": 55}, {"time": 517, "pitch": 62, "duration": 6, "velocity": 72}, {"time": 517, "pitch": 66, "duration": 7, "velocity": 83}, {"time": 523, "pitch": 59, "duration": 8, "velocity": 66}, {"time": 529, "pitch": 40, "duration": 17, "velocity": 72}, {"time": 535, "pitch": 47, "duration": 10, "velocity": 54}, {"time": 541, "pitch": 55, "duration": 11, "velocity": 50}, {"time": 541, "pitch": 59, "duration": 12, "velocity": 67}, {"time": 547, "pitch": 52, "duration": 15, "velocity": 59}, {"time": 553, "pitch": 33, "duration": 14, "velocity": 72}, {"time": 559, "pitch": 40, "duration": 9, "velocity": 44}, {"time": 565, "pitch": 61, "duration": 12, "velocity": 97}, {"time": 571, "pitch": 57, "duration": 6, "velocity": 70}, {"time": 577, "pitch": 33, "duration": 41, "velocity": 83}, {"time": 583, "pitch": 40, "duration": 35, "velocity": 61}, {"time": 589, "pitch": 57, "duration": 23, "velocity": 93}, {"time": 595, "pitch": 45, "duration": 9, "velocity": 71}, {"time": 601, "pitch": 61, "duration": 8, "velocity": 100}, {"time": 607, "pitch": 45, "duration": 17, "velocity": 77}, {"time": 613, "pitch": 61, "duration": 13, "velocity": 96}, {"time": 619, "pitch": 57, "duration": 7, "velocity": 83}, {"time": 625, "pitch": 38, "duration": 23, "velocity": 77}, {"time": 631, "pitch": 45, "duration": 17, "velocity": 52}, {"time": 637, "pitch": 57, "duration": 4, "velocity": 29}, {"time": 637, "pitch": 66, "duration": 16, "velocity": 95}, {"time": 643, "pitch": 50, "duration": 4, "velocity": 78}, {"time": 649, "pitch": 35, "duration": 18, "velocity": 69}, {"time": 655, "pitch": 42, "duration": 12, "velocity": 67}, {"time": 661, "pitch": 47, "duration": 5, "velocity": 45}, {"time": 661, "pitch": 62, "duration": 6, "velocity": 60}, {"time": 667, "pitch": 59, "duration": 6, "velocity": 70}, {"time": 673, "pitch": 33, "duration": 38, "velocity": 66}, {"time": 679, "pitch": 40, "duration": 35, "velocity": 50}, {"time": 685, "pitch": 57, "duration": 13, "velocity": 69}, {"time": 691, "pitch": 45, "duration": 10, "velocity": 66}, {"time": 697, "pitch": 61, "duration": 24, "velocity": 93}, {"time": 703, "pitch": 45, "duration": 5, "velocity": 63}, {"time": 709, "pitch": 57, "duration": 12, "velocity": 82}, {"time": 715, "pitch": 52, "duration": 6, "velocity": 62}, {"time": 721, "pitch": 35, "duration": 22, "velocity": 72}, {"time": 727, "pitch": 42, "duration": 18, "velocity": 56}, {"time": 733, "pitch": 62, "duration": 8, "velocity": 69}, {"time": 733, "pitch": 66, "duration": 25, "velocity": 78}, {"time": 739, "pitch": 59, "duration": 15, "velocity": 72}, {"time": 745, "pitch": 35, "duration": 17, "velocity": 67}, {"time": 751, "pitch": 42, "duration": 11, "velocity": 41}, {"time": 757, "pitch": 47, "duration": 7, "velocity": 43}, {"time": 757, "pitch": 62, "duration": 13, "velocity": 77}, {"time": 763, "pitch": 59, "duration": 8, "velocity": 60}, {"time": 769, "pitch": 45, "duration": 38, "velocity": 72}, {"time": 775, "pitch": 52, "duration": 9, "velocity": 47}, {"time": 781, "pitch": 57, "duration": 37, "velocity": 83}, {"time": 787, "pitch": 52, "duration": 10, "velocity": 59}, {"time": 793, "pitch": 61, "duration": 9, "velocity": 89}, {"time": 799, "pitch": 52, "duration": 7, "velocity": 68}, {"time": 805, "pitch": 64, "duration": 13, "velocity": 97}, {"time": 811, "pitch": 61, "duration": 7, "velocity": 100}, {"time": 817, "pitch": 38, "duration": 41, "velocity": 86}, {"time": 823, "pitch": 45, "duration": 9, "velocity": 78}, {"time": 829, "pitch": 54, "duration": 11, "velocity": 97}, {"time": 835, "pitch": 45, "duration": 10, "velocity": 63}, {"time": 841, "pitch": 57, "duration": 24, "velocity": 88}, {"time": 847, "pitch": 45, "duration": 11, "velocity": 51}, {"time": 853, "pitch": 54, "duration": 12, "velocity": 92}, {"time": 859, "pitch": 50, "duration": 5, "velocity": 67}, {"time": 865, "pitch": 42, "duration": 12, "velocity": 82}, {"time": 871, "pitch": 54, "duration": 8, "velocity": 71}, {"time": 877, "pitch": 61, "duration": 11, "velocity": 88}, {"time": 883, "pitch": 54, "duration": 5, "velocity": 66}, {"time": 889, "pitch": 35, "duration": 16, "velocity": 74}, {"time": 895, "pitch": 42, "duration": 8, "velocity": 50}, {"time": 901, "pitch": 54, "duration": 12, "velocity": 82}, {"time": 907, "pitch": 50, "duration": 6, "velocity": 67}, {"time": 913, "pitch": 40, "duration": 45, "velocity": 72}, {"time": 919, "pitch": 47, "duration": 19, "velocity": 59}, {"time": 925, "pitch": 59, "duration": 37, "velocity": 90}, {"time": 931, "pitch": 55, "duration": 13, "velocity": 64}, {"time": 937, "pitch": 52, "duration": 23, "velocity": 77}, {"time": 943, "pitch": 47, "duration": 14, "velocity": 69}, {"time": 949, "pitch": 55, "duration": 12, "velocity": 78}, {"time": 955, "pitch": 54, "duration": 6, "velocity": 55}, {"time": 961, "pitch": 33, "duration": 36, "velocity": 78}, {"time": 967, "pitch": 40, "duration": 31, "velocity": 39}, {"time": 973, "pitch": 57, "duration": 11, "velocity": 76}, {"time": 979, "pitch": 45, "duration": 9, "velocity": 81}, {"time": 985, "pitch": 52, "duration": 1, "velocity": 26}, {"time": 985, "pitch": 61, "duration": 22, "velocity": 117}, {"time": 991, "pitch": 45, "duration": 10, "velocity": 102}, {"time": 997, "pitch": 57, "duration": 12, "velocity": 100}, {"time": 1003, "pitch": 52, "duration": 5, "velocity": 93}, {"time": 1009, "pitch": 38, "duration": 23, "velocity": 88}, {"time": 1012, "pitch": 45, "duration": 23, "velocity": 69}, {"time": 1015, "pitch": 50, "duration": 7, "velocity": 53}, {"time": 1018, "pitch": 54, "duration": 4, "velocity": 69}, {"time": 1021, "pitch": 57, "duration": 6, "velocity": 55}, {"time": 1024, "pitch": 50, "duration": 4, "velocity": 76}, {"time": 1027, "pitch": 54, "duration": 9, "velocity": 73}, {"time": 1030, "pitch": 57, "duration": 7, "velocity": 68}, {"time": 1033, "pitch": 60, "duration": 5, "velocity": 69}, {"time": 1036, "pitch": 38, "duration": 16, "velocity": 58}, {"time": 1039, "pitch": 54, "duration": 8, "velocity": 62}, {"time": 1042, "pitch": 45, "duration": 5, "velocity": 60}, {"time": 1045, "pitch": 57, "duration": 1, "velocity": 20}, {"time": 1045, "pitch": 60, "duration": 11, "velocity": 70}, {"time": 1048, "pitch": 45, "duration": 3, "velocity": 63}, {"time": 1051, "pitch": 54, "duration": 6, "velocity": 65}, {"time": 1054, "pitch": 57, "duration": 3, "velocity": 69}, {"time": 1057, "pitch": 35, "duration": 22, "velocity": 65}, {"time": 1060, "pitch": 42, "duration": 22, "velocity": 47}, {"time": 1063, "pitch": 47, "duration": 6, "velocity": 70}, {"time": 1066, "pitch": 50, "duration": 5, "velocity": 65}, {"time": 1069, "pitch": 59, "duration": 20, "velocity": 90}, {"time": 1072, "pitch": 47, "duration": 11, "velocity": 86}, {"time": 1075, "pitch": 54, "duration": 13, "velocity": 79}, {"time": 1078, "pitch": 50, "duration": 10, "velocity": 96}, {"time": 1081, "pitch": 35, "duration": 17, "velocity": 73}, {"time": 1084, "pitch": 42, "duration": 15, "velocity": 74}, {"time": 1087, "pitch": 47, "duration": 7, "velocity": 86}, {"time": 1090, "pitch": 50, "duration": 8, "velocity": 74}, {"time": 1093, "pitch": 59, "duration": 11, "velocity": 96}, {"time": 1096, "pitch": 47, "duration": 8, "velocity": 88}, {"time": 1099, "pitch": 54, "duration": 4, "velocity": 93}, {"time": 1102, "pitch": 50, "duration": 3, "velocity": 76}, {"time": 1105, "pitch": 38, "duration": 21, "velocity": 67}, {"time": 1108, "pitch": 45, "duration": 10, "velocity": 72}, {"time": 1111, "pitch": 50, "duration": 4, "velocity": 83}, {"time": 1114, "pitch": 54, "duration": 4, "velocity": 68}, {"time": 1117, "pitch": 57, "duration": 11, "velocity": 82}, {"time": 1120, "pitch": 45, "duration": 8, "velocity": 66}, {"time": 1123, "pitch": 54, "duration": 5, "velocity": 69}, {"time": 1126, "pitch": 50, "duration": 2, "velocity": 81}, {"time": 1129, "pitch": 38, "duration": 20, "velocity": 81}, {"time": 1132, "pitch": 45, "duration": 16, "velocity": 71}, {"time": 1135, "pitch": 50, "duration": 7, "velocity": 75}, {"time": 1138, "pitch": 53, "duration": 5, "velocity": 81}, {"time": 1141, "pitch": 60, "duration": 12, "velocity": 89}, {"time": 1144, "pitch": 50, "duration": 2, "velocity": 73}, {"time": 1147, "pitch": 57, "duration": 5, "velocity": 70}, {"time": 1150, "pitch": 53, "duration": 3, "velocity": 72}, {"time": 1153, "pitch": 35, "duration": 22, "velocity": 78}, {"time": 1156, "pitch": 42, "duration": 21, "velocity": 86}, {"time": 1159, "pitch": 47, "duration": 6, "velocity": 75}, {"time": 1162, "pitch": 50, "duration": 4, "velocity": 65}, {"time": 1165, "pitch": 59, "duration": 22, "velocity": 83}, {"time": 1168, "pitch": 47, "duration": 11, "velocity": 77}, {"time": 1171, "pitch": 54, "duration": 16, "velocity": 63}, {"time": 1174, "pitch": 50, "duration": 10, "velocity": 57}, {"time": 1177, "pitch": 35, "duration": 17, "velocity": 61}, {"time": 1180, "pitch": 42, "duration": 14, "velocity": 63}, {"time": 1183, "pitch": 47, "duration": 7, "velocity": 73}, {"time": 1186, "pitch": 50, "duration": 7, "velocity": 58}, {"time": 1189, "pitch": 59, "duration": 11, "velocity": 86}, {"time": 1192, "pitch": 47, "duration": 7, "velocity": 81}, {"time": 1195, "pitch": 54, "duration": 4, "velocity": 88}, {"time": 1198, "pitch": 50, "duration": 2, "velocity": 72}, {"time": 1201, "pitch": 38, "duration": 22, "velocity": 66}, {"time": 1204, "pitch": 45, "duration": 21, "velocity": 69}, {"time": 1207, "pitch": 50, "duration": 6, "velocity": 79}, {"time": 1210, "pitch": 54, "duration": 5, "velocity": 52}, {"time": 1213, "pitch": 62, "duration": 11, "velocity": 71}, {"time": 1216, "pitch": 50, "duration": 3, "velocity": 81}, {"time": 1219, "pitch": 54, "duration": 7, "velocity": 72}, {"time": 1222, "pitch": 57, "duration": 4, "velocity": 47}, {"time": 1225, "pitch": 38, "duration": 20, "velocity": 70}, {"time": 1228, "pitch": 45, "duration": 20, "velocity": 53}, {"time": 1231, "pitch": 50, "duration": 7, "velocity": 67}, {"time": 1234, "pitch": 54, "duration": 5, "velocity": 47}, {"time": 1237, "pitch": 57, "duration": 1, "velocity": 25}, {"time": 1237, "pitch": 60, "duration": 10, "velocity": 68}, {"time": 1240, "pitch": 50, "duration": 2, "velocity": 72}, {"time": 1243, "pitch": 54, "duration": 5, "velocity": 67}, {"time": 1246, "pitch": 57, "duration": 3, "velocity": 71}, {"time": 1249, "pitch": 40, "duration": 17, "velocity": 68}, {"time": 1252, "pitch": 47, "duration": 10, "velocity": 69}, {"time": 1255, "pitch": 52, "duration": 7, "velocity": 63}, {"time": 1258, "pitch": 56, "duration": 3, "velocity": 63}, {"time": 1261, "pitch": 59, "duration": 10, "velocity": 92}, {"time": 1264, "pitch": 47, "duration": 2, "velocity": 70}, {"time": 1267, "pitch": 56, "duration": 5, "velocity": 93}, {"time": 1270, "pitch": 52, "duration": 3, "velocity": 72}, {"time": 1273, "pitch": 35, "duration": 18, "velocity": 61}, {"time": 1276, "pitch": 42, "duration": 10, "velocity": 50}, {"time": 1279, "pitch": 47, "duration": 6, "velocity": 70}, {"time": 1282, "pitch": 51, "duration": 4, "velocity": 71}, {"time": 1285, "pitch": 54, "duration": 11, "velocity": 82}, {"time": 1288, "pitch": 42, "duration": 2, "velocity": 74}, {"time": 1291, "pitch": 51, "duration": 5, "velocity": 59}, {"time": 1294, "pitch": 47, "duration": 2, "velocity": 74}, {"time": 1297, "pitch": 33, "duration": 21, "velocity": 68}, {"time": 1300, "pitch": 40, "duration": 20, "velocity": 53}, {"time": 1303, "pitch": 45, "duration": 7, "velocity": 46}, {"time": 1306, "pitch": 49, "duration": 5, "velocity": 53}, {"time": 1309, "pitch": 57, "duration": 11, "velocity": 55}, {"time": 1312, "pitch": 45, "duration": 9, "velocity": 67}, {"time": 1315, "pitch": 49, "duration": 6, "velocity": 55}, {"time": 1318, "pitch": 52, "duration": 3, "velocity": 60}, {"time": 1321, "pitch": 35, "duration": 19, "velocity": 59}, {"time": 1324, "pitch": 42, "duration": 10, "velocity": 66}, {"time": 1327, "pitch": 47, "duration": 8, "velocity": 57}, {"time": 1330, "pitch": 51, "duration": 3, "velocity": 51}, {"time": 1333, "pitch": 54, "duration": 11, "velocity": 107}, {"time": 1336, "pitch": 42, "duration": 2, "velocity": 61}, {"time": 1339, "pitch": 51, "duration": 6, "velocity": 92}, {"time": 1342, "pitch": 47, "duration": 3, "velocity": 70}, {"time": 1345, "pitch": 33, "duration": 23, "velocity": 69}, {"time": 1348, "pitch": 40, "duration": 21, "velocity": 52}, {"time": 1351, "pitch": 45, "duration": 6, "velocity": 66}, {"time": 1354, "pitch": 49, "duration": 5, "velocity": 62}, {"time": 1357, "pitch": 57, "duration": 15, "velocity": 59}, {"time": 1360, "pitch": 45, "duration": 9, "velocity": 66}, {"time": 1363, "pitch": 49, "duration": 8, "velocity": 63}, {"time": 1366, "pitch": 52, "duration": 5, "velocity": 54}, {"time": 1369, "pitch": 33, "duration": 21, "velocity": 63}, {"time": 1372, "pitch": 40, "duration": 18, "velocity": 45}, {"time": 1375, "pitch": 45, "duration": 8, "velocity": 73}, {"time": 1378, "pitch": 49, "duration": 5, "velocity": 56}, {"time": 1381, "pitch": 57, "duration": 11, "velocity": 63}, {"time": 1384, "pitch": 45, "duration": 6, "velocity": 67}, {"time": 1387, "pitch": 49, "duration": 5, "velocity": 66}, {"time": 1390, "pitch": 52, "duration": 2, "velocity": 63}, {"time": 1393, "pitch": 38, "duration": 23, "velocity": 88}, {"time": 1396, "pitch": 45, "duration": 23, "velocity": 69}, {"time": 1399, "pitch": 50, "duration": 7, "velocity": 53}, {"time": 1402, "pitch": 54, "duration": 4, "velocity": 69}, {"time": 1405, "pitch": 57, "duration": 6, "velocity": 55}, {"time": 1408, "pitch": 50, "duration": 4, "velocity": 76}, {"time": 1411, "pitch": 54, "duration": 9, "velocity": 73}, {"time": 1414, "pitch": 57, "duration": 7, "velocity": 68}, {"time": 1417, "pitch": 60, "duration": 5, "velocity": 69}, {"time": 1420, "pitch": 38, "duration": 16, "velocity": 58}, {"time": 1423, "pitch": 54, "duration": 8, "velocity": 62}, {"time": 1426, "pitch": 45, "duration": 5, "velocity": 60}, {"time": 1429, "pitch": 57, "duration": 1, "velocity": 20}, {"time": 1429, "pitch": 60, "duration": 11, "velocity": 70}, {"time": 1432, "pitch": 45, "duration": 3, "velocity": 63}, {"time": 1435, "pitch": 54, "duration": 6, "velocity": 65}, {"time": 1438, "pitch": 57, "duration": 3, "velocity": 69}, {"time": 1441, "pitch": 35, "duration": 22, "velocity": 65}, {"time": 1444, "pitch": 42, "duration": 22, "velocity": 47}, {"time": 1447, "pitch": 47, "duration": 6, "velocity": 70}, {"time": 1450, "pitch": 50, "duration": 5, "velocity": 65}, {"time": 1453, "pitch": 59, "duration": 20, "velocity": 90}, {"time": 1456, "pitch": 47, "duration": 11, "velocity": 86}, {"time": 1459, "pitch": 54, "duration": 13, "velocity": 79}, {"time": 1462, "pitch": 50, "duration": 10, "velocity": 96}, {"time": 1465, "pitch": 35, "duration": 17, "velocity": 73}, {"time": 1468, "pitch": 42, "duration": 15, "velocity": 74}, {"time": 1471, "pitch": 47, "duration": 7, "velocity": 86}, {"time": 1474, "pitch": 50, "duration": 8, "velocity": 74}, {"time": 1477, "pitch": 59, "duration": 11, "velocity": 96}, {"time": 1480, "pitch": 47, "duration": 8, "velocity": 88}, {"time": 1483, "pitch": 54, "duration": 4, "velocity": 93}, {"time": 1486, "pitch": 50, "duration": 3, "velocity": 76}, {"time": 1489, "pitch": 38, "duration": 21, "velocity": 67}, {"time": 1492, "pitch": 45, "duration": 10, "velocity": 72}, {"time": 1495, "pitch": 50, "duration": 4, "velocity": 83}, {"time": 1498, "pitch": 54, "duration": 4, "velocity": 68}, {"time": 1501, "pitch": 57, "duration": 11, "velocity": 82}, {"time": 1504, "pitch": 45, "duration": 8, "velocity": 66}, {"time": 1507, "pitch": 54, "duration": 5, "velocity": 69}, {"time": 1510, "pitch": 50, "duration": 2, "velocity": 81}, {"time": 1513, "pitch": 38, "duration": 20, "velocity": 81}, {"time": 1516, "pitch": 45, "duration": 16, "velocity": 71}, {"time": 1519, "pitch": 50, "duration": 7, "velocity": 75}, {"time": 1522, "pitch": 53, "duration": 5, "velocity": 81}, {"time": 1525, "pitch": 60, "duration": 12, "velocity": 89}, {"time": 1528, "pitch": 50, "duration": 2, "velocity": 73}, {"time": 1531, "pitch": 57, "duration": 5, "velocity": 70}, {"time": 1534, "pitch": 53, "duration": 3, "velocity": 72}, {"time": 1537, "pitch": 35, "duration": 22, "velocity": 78}, {"time": 1540, "pitch": 42, "duration": 21, "velocity": 86}, {"time": 1543, "pitch": 47, "duration": 6, "velocity": 75}, {"time": 1546, "pitch": 50, "duration": 4, "velocity": 65}, {"time": 1549, "pitch": 59, "duration": 22, "velocity": 83}, {"time": 1552, "pitch": 47, "duration": 11, "velocity": 77}, {"time": 1555, "pitch": 54, "duration": 16, "velocity": 63}, {"time": 1558, "pitch": 50, "duration": 10, "velocity": 57}, {"time": 1561, "pitch": 35, "duration": 17, "velocity": 61}, {"time": 1564, "pitch": 42, "duration": 14, "velocity": 63}, {"time": 1567, "pitch": 47, "duration": 7, "velocity": 73}, {"time": 1570, "pitch": 50, "duration": 7, "velocity": 58}, {"time": 1573, "pitch": 59, "duration": 11, "velocity": 86}, {"time": 1576, "pitch": 47, "duration": 7, "velocity": 81}, {"time": 1579, "pitch": 54, "duration": 4, "velocity": 88}, {"time": 1582, "pitch": 50, "duration": 2, "velocity": 72}, {"time": 1585, "pitch": 38, "duration": 22, "velocity": 66}, {"time": 1588, "pitch": 45, "duration": 21, "velocity": 69}, {"time": 1591, "pitch": 50, "duration": 6, "velocity": 79}, {"time": 1594, "pitch": 54, "duration": 5, "velocity": 52}, {"time": 1597, "pitch": 62, "duration": 11, "velocity": 71}, {"time": 1600, "pitch": 50, "duration": 3, "velocity": 81}, {"time": 1603, "pitch": 54, "duration": 7, "velocity": 72}, {"time": 1606, "pitch": 57, "duration": 4, "velocity": 47}, {"time": 1609, "pitch": 38, "duration": 20, "velocity": 70}, {"time": 1612, "pitch": 45, "duration": 20, "velocity": 53}, {"time": 1615, "pitch": 50, "duration": 7, "velocity": 67}, {"time": 1618, "pitch": 54, "duration": 5, "velocity": 47}, {"time": 1621, "pitch": 57, "duration": 1, "velocity": 25}, {"time": 1621, "pitch": 60, "duration": 10, "velocity": 68}, {"time": 1624, "pitch": 50, "duration": 2, "velocity": 72}, {"time": 1627, "pitch": 54, "duration": 5, "velocity": 67}, {"time": 1630, "pitch": 57, "duration": 3, "velocity": 71}, {"time": 1633, "pitch": 40, "duration": 17, "velocity": 68}, {"time": 1636, "pitch": 47, "duration": 10, "velocity": 69}, {"time": 1639, "pitch": 52, "duration": 7, "velocity": 63}, {"time": 1642, "pitch": 56, "duration": 3, "velocity": 63}, {"time": 1645, "pitch": 59, "duration": 10, "velocity": 92}, {"time": 1648, "pitch": 47, "duration": 2, "velocity": 70}, {"time": 1651, "pitch": 56, "duration": 5, "velocity": 93}, {"time": 1654, "pitch": 52, "duration": 3, "velocity": 72}, {"time": 1657, "pitch": 35, "duration": 18, "velocity": 61}, {"time": 1660, "pitch": 42, "duration": 10, "velocity": 50}, {"time": 1663, "pitch": 47, "duration": 6, "velocity": 70}, {"time": 1666, "pitch": 51, "duration": 4, "velocity": 71}, {"time": 1669, "pitch": 54, "duration": 11, "velocity": 82}, {"time": 1672, "pitch": 42, "duration": 2, "velocity": 74}, {"time": 1675, "pitch": 51, "duration": 5, "velocity": 59}, {"time": 1678, "pitch": 47, "duration": 2, "velocity": 74}, {"time": 1681, "pitch": 33, "duration": 22, "velocity": 82}, {"time": 1684, "pitch": 40, "duration": 22, "velocity": 53}, {"time": 1687, "pitch": 45, "duration": 7, "velocity": 76}, {"time": 1690, "pitch": 49, "duration": 5, "velocity": 70}, {"time": 1693, "pitch": 57, "duration": 17, "velocity": 58}, {"time": 1696, "pitch": 45, "duration": 10, "velocity": 72}, {"time": 1699, "pitch": 49, "duration": 13, "velocity": 59}, {"time": 1702, "pitch": 52, "duration": 16, "velocity": 55}, {"time": 1705, "pitch": 33, "duration": 18, "velocity": 65}, {"time": 1708, "pitch": 40, "duration": 15, "velocity": 50}, {"time": 1711, "pitch": 45, "duration": 7, "velocity": 66}, {"time": 1714, "pitch": 49, "duration": 5, "velocity": 59}, {"time": 1717, "pitch": 57, "duration": 11, "velocity": 67}, {"time": 1720, "pitch": 45, "duration": 8, "velocity": 65}, {"time": 1723, "pitch": 49, "duration": 5, "velocity": 73}, {"time": 1726, "pitch": 52, "duration": 2, "velocity": 72}, {"time": 1729, "pitch": 38, "duration": 22, "velocity": 66}, {"time": 1732, "pitch": 45, "duration": 10, "velocity": 68}, {"time": 1735, "pitch": 50, "duration": 5, "velocity": 86}, {"time": 1738, "pitch": 54, "duration": 4, "velocity": 69}, {"time": 1741, "pitch": 57, "duration": 13, "velocity": 90}, {"time": 1744, "pitch": 45, "duration": 9, "velocity": 54}, {"time": 1747, "pitch": 54, "duration": 7, "velocity": 72}, {"time": 1750, "pitch": 50, "duration": 3, "velocity": 73}, {"time": 1753, "pitch": 38, "duration": 18, "velocity": 53}, {"time": 1756, "pitch": 45, "duration": 11, "velocity": 65}, {"time": 1759, "pitch": 50, "duration": 5, "velocity": 68}, {"time": 1762, "pitch": 54, "duration": 3, "velocity": 48}, {"time": 1765, "pitch": 57, "duration": 11, "velocity": 85}, {"time": 1768, "pitch": 45, "duration": 2, "velocity": 49}, {"time": 1771, "pitch": 54, "duration": 5, "velocity": 82}, {"time": 1774, "pitch": 50, "duration": 3, "velocity": 62}, {"time": 1777, "pitch": 33, "duration": 22, "velocity": 69}, {"time": 1780, "pitch": 40, "duration": 21, "velocity": 42}, {"time": 1783, "pitch": 45, "duration": 6, "velocity": 82}, {"time": 1786, "pitch": 49, "duration": 5, "velocity": 61}, {"time": 1789, "pitch": 57, "duration": 10, "velocity": 59}, {"time": 1792, "pitch": 45, "duration": 5, "velocity": 78}, {"time": 1795, "pitch": 49, "duration": 14, "velocity": 62}, {"time": 1798, "pitch": 52, "duration": 15, "velocity": 68}, {"time": 1801, "pitch": 33, "duration": 17, "velocity": 62}, {"time": 1804, "pitch": 40, "duration": 14, "velocity": 44}, {"time": 1807, "pitch": 45, "duration": 6, "velocity": 61}, {"time": 1810, "pitch": 49, "duration": 5, "velocity": 60}, {"time": 1813, "pitch": 57, "duration": 10, "velocity": 69}, {"time": 1816, "pitch": 45, "duration": 2, "velocity": 73}, {"time": 1819, "pitch": 49, "duration": 5, "velocity": 99}, {"time": 1822, "pitch": 52, "duration": 2, "velocity": 66}, {"time": 1825, "pitch": 31, "duration": 16, "velocity": 81}, {"time": 1828, "pitch": 38, "duration": 14, "velocity": 73}, {"time": 1831, "pitch": 43, "duration": 6, "velocity": 73}, {"time": 1834, "pitch": 50, "duration": 8, "velocity": 55}, {"time": 1837, "pitch": 59, "duration": 12, "velocity": 92}, {"time": 1840, "pitch": 43, "duration": 8, "velocity": 77}, {"time": 1843, "pitch": 55, "duration": 5, "velocity": 69}, {"time": 1846, "pitch": 50, "duration": 3, "velocity": 73}, {"time": 1849, "pitch": 35, "duration": 20, "velocity": 78}, {"time": 1852, "pitch": 42, "duration": 11, "velocity": 68}, {"time": 1855, "pitch": 47, "duration": 5, "velocity": 81}, {"time": 1858, "pitch": 51, "duration": 4, "velocity": 82}, {"time": 1861, "pitch": 54, "duration": 11, "velocity": 99}, {"time": 1864, "pitch": 42, "duration": 3, "velocity": 69}, {"time": 1867, "pitch": 51, "duration": 5, "velocity": 69}, {"time": 1870, "pitch": 47, "duration": 2, "velocity": 82}, {"time": 1873, "pitch": 29, "duration": 41, "velocity": 92}, {"time": 1876, "pitch": 36, "duration": 38, "velocity": 69}, {"time": 1879, "pitch": 41, "duration": 7, "velocity": 48}, {"time": 1882, "pitch": 53, "duration": 5, "velocity": 78}, {"time": 1885, "pitch": 60, "duration": 18, "velocity": 102}, {"time": 1888, "pitch": 41, "duration": 6, "velocity": 59}, {"time": 1891, "pitch": 57, "duration": 10, "velocity": 59}, {"time": 1894, "pitch": 53, "duration": 4, "velocity": 82}, {"time": 1897, "pitch": 41, "duration": 14, "velocity": 78}, {"time": 1900, "pitch": 53, "duration": 7, "velocity": 63}, {"time": 1903, "pitch": 57, "duration": 7, "velocity": 51}, {"time": 1909, "pitch": 60, "duration": 12, "velocity": 99}, {"time": 1912, "pitch": 41, "duration": 3, "velocity": 82}, {"time": 1915, "pitch": 57, "duration": 5, "velocity": 85}, {"time": 1918, "pitch": 53, "duration": 2, "velocity": 85}, {"time": 1921, "pitch": 40, "duration": 22, "velocity": 81}, {"time": 1924, "pitch": 47, "duration": 22, "velocity": 58}, {"time": 1927, "pitch": 52, "duration": 7, "velocity": 66}, {"time": 1930, "pitch": 56, "duration": 5, "velocity": 66}, {"time": 1933, "pitch": 64, "duration": 18, "velocity": 67}, {"time": 1936, "pitch": 52, "duration": 3, "velocity": 82}, {"time": 1939, "pitch": 56, "duration": 13, "velocity": 69}, {"time": 1942, "pitch": 59, "duration": 10, "velocity": 55}, {"time": 1945, "pitch": 40, "duration": 23, "velocity": 70}, {"time": 1948, "pitch": 47, "duration": 19, "velocity": 50}, {"time": 1951, "pitch": 52, "duration": 7, "velocity": 76}, {"time": 1954, "pitch": 56, "duration": 5, "velocity": 75}, {"time": 1957, "pitch": 64, "duration": 12, "velocity": 79}, {"time": 1960, "pitch": 52, "duration": 4, "velocity": 74}, {"time": 1963, "pitch": 56, "duration": 5, "velocity": 97}, {"time": 1966, "pitch": 59, "duration": 3, "velocity": 73}, {"time": 1969, "pitch": 38, "duration": 38, "velocity": 89}, {"time": 1975, "pitch": 45, "duration": 32, "velocity": 60}, {"time": 1981, "pitch": 57, "duration": 17, "velocity": 69}, {"time": 1981, "pitch": 62, "duration": 19, "velocity": 74}, {"time": 1987, "pitch": 50, "duration": 9, "velocity": 62}, {"time": 1993, "pitch": 66, "duration": 30, "velocity": 93}, {"time": 1999, "pitch": 50, "duration": 5, "velocity": 70}, {"time": 2005, "pitch": 62, "duration": 16, "velocity": 99}, {"time": 2011, "pitch": 57, "duration": 8, "velocity": 55}, {"time": 2014, "pitch": 42, "duration": 2, "velocity": 33}, {"time": 2017, "pitch": 35, "duration": 37, "velocity": 88}, {"time": 2023, "pitch": 42, "duration": 30, "velocity": 47}, {"time": 2029, "pitch": 59, "duration": 15, "velocity": 73}, {"time": 2029, "pitch": 62, "duration": 12, "velocity": 81}, {"time": 2035, "pitch": 47, "duration": 9, "velocity": 55}, {"time": 2041, "pitch": 66, "duration": 20, "velocity": 90}, {"time": 2047, "pitch": 47, "duration": 6, "velocity": 66}, {"time": 2053, "pitch": 62, "duration": 8, "velocity": 72}, {"time": 2059, "pitch": 59, "duration": 7, "velocity": 71}, {"time": 2065, "pitch": 33, "duration": 35, "velocity": 74}, {"time": 2071, "pitch": 40, "duration": 30, "velocity": 44}, {"time": 2077, "pitch": 64, "duration": 37, "velocity": 85}, {"time": 2083, "pitch": 45, "duration": 9, "velocity": 66}, {"time": 2089, "pitch": 61, "duration": 14, "velocity": 85}, {"time": 2095, "pitch": 45, "duration": 11, "velocity": 59}, {"time": 2101, "pitch": 57, "duration": 23, "velocity": 83}, {"time": 2107, "pitch": 61, "duration": 7, "velocity": 56}, {"time": 2113, "pitch": 38, "duration": 42, "velocity": 88}, {"time": 2119, "pitch": 45, "duration": 42, "velocity": 46}, {"time": 2125, "pitch": 57, "duration": 1, "velocity": 30}, {"time": 2125, "pitch": 62, "duration": 11, "velocity": 71}, {"time": 2131, "pitch": 50, "duration": 9, "velocity": 67}, {"time": 2137, "pitch": 62, "duration": 7, "velocity": 67}, {"time": 2137, "pitch": 66, "duration": 30, "velocity": 99}, {"time": 2143, "pitch": 50, "duration": 6, "velocity": 62}, {"time": 2149, "pitch": 61, "duration": 12, "velocity": 63}, {"time": 2155, "pitch": 57, "duration": 14, "velocity": 49}, {"time": 2161, "pitch": 38, "duration": 20, "velocity": 82}, {"time": 2167, "pitch": 45, "duration": 15, "velocity": 48}, {"time": 2173, "pitch": 62, "duration": 15, "velocity": 72}, {"time": 2179, "pitch": 50, "duration": 2, "velocity": 58}, {"time": 2185, "pitch": 35, "duration": 16, "velocity": 73}, {"time": 2191, "pitch": 42, "duration": 9, "velocity": 55}, {"time": 2197, "pitch": 62, "duration": 13, "velocity": 70}, {"time": 2197, "pitch": 66, "duration": 13, "velocity": 79}, {"time": 2203, "pitch": 59, "duration": 8, "velocity": 61}, {"time": 2209, "pitch": 33, "duration": 43, "velocity": 77}, {"time": 2215, "pitch": 40, "duration": 39, "velocity": 59}, {"time": 2221, "pitch": 57, "duration": 25, "velocity": 58}, {"time": 2221, "pitch": 61, "duration": 10, "velocity": 58}, {"time": 2221, "pitch": 64, "duration": 10, "velocity": 55}, {"time": 2227, "pitch": 45, "duration": 9, "velocity": 59}, {"time": 2233, "pitch": 61, "duration": 8, "velocity": 48}, {"time": 2233, "pitch": 64, "duration": 24, "velocity": 63}, {"time": 2239, "pitch": 45, "duration": 13, "velocity": 56}, {"time": 2245, "pitch": 59, "duration": 12, "velocity": 71}, {"time": 2245, "pitch": 61, "duration": 12, "velocity": 65}, {"time": 2251, "pitch": 57, "duration": 7, "velocity": 69}, {"time": 2257, "pitch": 35, "duration": 37, "velocity": 74}, {"time": 2263, "pitch": 42, "duration": 32, "velocity": 59}, {"time": 2269, "pitch": 59, "duration": 11, "velocity": 69}, {"time": 2269, "pitch": 62, "duration": 5, "velocity": 76}, {"time": 2275, "pitch": 47, "duration": 9, "velocity": 73}, {"time": 2281, "pitch": 59, "duration": 14, "velocity": 54}, {"time": 2281, "pitch": 62, "duration": 25, "velocity": 67}, {"time": 2281, "pitch": 66, "duration": 25, "velocity": 71}, {"time": 2287, "pitch": 47, "duration": 9, "velocity": 66}, {"time": 2293, "pitch": 69, "duration": 13, "velocity": 60}, {"time": 2299, "pitch": 59, "duration": 8, "velocity": 55}, {"time": 2305, "pitch": 45, "duration": 38, "velocity": 74}, {"time": 2311, "pitch": 52, "duration": 9, "velocity": 56}, {"time": 2317, "pitch": 57, "duration": 14, "velocity": 68}, {"time": 2317, "pitch": 61, "duration": 7, "velocity": 62}, {"time": 2317, "pitch": 64, "duration": 33, "velocity": 65}, {"time": 2323, "pitch": 52, "duration": 8, "velocity": 78}, {"time": 2329, "pitch": 59, "duration": 9, "velocity": 70}, {"time": 2335, "pitch": 52, "duration": 6, "velocity": 53}, {"time": 2341, "pitch": 61, "duration": 7, "velocity": 79}, {"time": 2347, "pitch": 57, "duration": 38, "velocity": 61}, {"time": 2353, "pitch": 38, "duration": 39, "velocity": 82}, {"time": 2359, "pitch": 45, "duration": 33, "velocity": 50}, {"time": 2365, "pitch": 62, "duration": 7, "velocity": 83}, {"time": 2371, "pitch": 50, "duration": 8, "velocity": 67}, {"time": 2374, "pitch": 66, "duration": 1, "velocity": 16}, {"time": 2377, "pitch": 62, "duration": 10, "velocity": 76}, {"time": 2377, "pitch": 66, "duration": 49, "velocity": 74}, {"time": 2383, "pitch": 50, "duration": 11, "velocity": 71}, {"time": 2389, "pitch": 62, "duration": 12, "velocity": 88}, {"time": 2395, "pitch": 57, "duration": 10, "velocity": 69}, {"time": 2401, "pitch": 42, "duration": 16, "velocity": 66}, {"time": 2407, "pitch": 49, "duration": 9, "velocity": 34}, {"time": 2413, "pitch": 54, "duration": 4, "velocity": 53}, {"time": 2413, "pitch": 61, "duration": 11, "velocity": 90}, {"time": 2419, "pitch": 57, "duration": 7, "velocity": 71}, {"time": 2425, "pitch": 47, "duration": 14, "velocity": 69}, {"time": 2431, "pitch": 54, "duration": 6, "velocity": 55}, {"time": 2437, "pitch": 62, "duration": 6, "velocity": 72}, {"time": 2437, "pitch": 66, "duration": 7, "velocity": 83}, {"time": 2443, "pitch": 59, "duration": 8, "velocity": 66}, {"time": 2449, "pitch": 40, "duration": 17, "velocity": 72}, {"time": 2455, "pitch": 47, "duration": 10, "velocity": 54}, {"time": 2461, "pitch": 55, "duration": 11, "velocity": 50}, {"time": 2461, "pitch": 59, "duration": 12, "velocity": 67}, {"time": 2467, "pitch": 52, "duration": 15, "velocity": 59}, {"time": 2473, "pitch": 33, "duration": 14, "velocity": 72}, {"time": 2479, "pitch": 40, "duration": 9, "velocity": 44}, {"time": 2485, "pitch": 61, "duration": 12, "velocity": 97}, {"time": 2491, "pitch": 57, "duration": 6, "velocity": 70}, {"time": 2497, "pitch": 33, "duration": 41, "velocity": 83}, {"time": 2503, "pitch": 40, "duration": 35, "velocity": 61}, {"time": 2509, "pitch": 57, "duration": 23, "velocity": 93}, {"time": 2515, "pitch": 45, "duration": 9, "velocity": 71}, {"time": 2521, "pitch": 61, "duration": 8, "velocity": 100}, {"time": 2527, "pitch": 45, "duration": 17, "velocity": 77}, {"time": 2533, "pitch": 61, "duration": 13, "velocity": 96}, {"time": 2539, "pitch": 57, "duration": 7, "velocity": 83}, {"time": 2545, "pitch": 38, "duration": 23, "velocity": 77}, {"time": 2551, "pitch": 45, "duration": 17, "velocity": 52}, {"time": 2557, "pitch": 57, "duration": 4, "velocity": 29}, {"time": 2557, "pitch": 66, "duration": 16, "velocity": 95}, {"time": 2563, "pitch": 50, "duration": 4, "velocity": 78}, {"time": 2569, "pitch": 35, "duration": 18, "velocity": 69}, {"time": 2575, "pitch": 42, "duration": 12, "velocity": 67}, {"time": 2581, "pitch": 47, "duration": 5, "velocity": 45}, {"time": 2581, "pitch": 62, "duration": 6, "velocity": 60}, {"time": 2587, "pitch": 59, "duration": 6, "velocity": 70}, {"time": 2593, "pitch": 33, "duration": 38, "velocity": 66}, {"time": 2599, "pitch": 40, "duration": 35, "velocity": 50}, {"time": 2605, "pitch": 57, "duration": 13, "velocity": 69}, {"time": 2611, "pitch": 45, "duration": 10, "velocity": 66}, {"time": 2617, "pitch": 61, "duration": 24, "velocity": 93}, {"time": 2623, "pitch": 45, "duration": 5, "velocity": 63}, {"time": 2629, "pitch": 57, "duration": 12, "velocity": 82}, {"time": 2635, "pitch": 52, "duration": 6, "velocity": 62}, {"time": 2641, "pitch": 35, "duration": 22, "velocity": 72}, {"time": 2647, "pitch": 42, "duration": 18, "velocity": 56}, {"time": 2653, "pitch": 62, "duration": 8, "velocity": 69}, {"time": 2653, "pitch": 66, "duration": 25, "velocity": 78}, {"time": 2659, "pitch": 59, "duration": 15, "velocity": 72}, {"time": 2665, "pitch": 35, "duration": 17, "velocity": 67}, {"time": 2671, "pitch": 42, "duration": 11, "velocity": 41}, {"time": 2677, "pitch": 47, "duration": 7, "velocity": 43}, {"time": 2677, "pitch": 62, "duration": 13, "velocity": 77}, {"time": 2683, "pitch": 59, "duration": 8, "velocity": 60}, {"time": 2689, "pitch": 45, "duration": 38, "velocity": 72}, {"time": 2695, "pitch": 52, "duration": 9, "velocity": 47}, {"time": 2701, "pitch": 57, "duration": 37, "velocity": 83}, {"time": 2707, "pitch": 52, "duration": 10, "velocity": 59}, {"time": 2713, "pitch": 61, "duration": 9, "velocity": 89}, {"time": 2719, "pitch": 52, "duration": 7, "velocity": 68}, {"time": 2725, "pitch": 64, "duration": 13, "velocity": 97}, {"time": 2731, "pitch": 61, "duration": 7, "velocity": 100}, {"time": 2737, "pitch": 38, "duration": 41, "velocity": 86}, {"time": 2743, "pitch": 45, "duration": 9, "velocity": 78}, {"time": 2749, "pitch": 54, "duration": 11, "velocity": 97}, {"time": 2755, "pitch": 45, "duration": 10, "velocity": 63}, {"time": 2761, "pitch": 57, "duration": 24, "velocity": 88}, {"time": 2767, "pitch": 45, "duration": 11, "velocity": 51}, {"time": 2773, "pitch": 54, "duration": 12, "velocity": 92}, {"time": 2779, "pitch": 50, "duration": 5, "velocity": 67}, {"time": 2785, "pitch": 42, "duration": 12, "velocity": 82}, {"time": 2791, "pitch": 54, "duration": 8, "velocity": 71}, {"time": 2797, "pitch": 61, "duration": 11, "velocity": 88}, {"time": 2803, "pitch": 54, "duration": 5, "velocity": 66}, {"time": 2809, "pitch": 35, "duration": 16, "velocity": 74}, {"time": 2815, "pitch": 42, "duration": 8, "velocity": 50}, {"time": 2821, "pitch": 54, "duration": 12, "velocity": 82}, {"time": 2827, "pitch": 50, "duration": 6, "velocity": 67}, {"time": 2833, "pitch": 40, "duration": 45, "velocity": 72}, {"time": 2839, "pitch": 47, "duration": 19, "velocity": 59}, {"time": 2845, "pitch": 59, "duration": 37, "velocity": 90}, {"time": 2851, "pitch": 55, "duration": 13, "velocity": 64}, {"time": 2857, "pitch": 52, "duration": 23, "velocity": 77}, {"time": 2863, "pitch": 47, "duration": 14, "velocity": 69}, {"time": 2869, "pitch": 55, "duration": 12, "velocity": 78}, {"time": 2875, "pitch": 54, "duration": 6, "velocity": 55}, {"time": 2881, "pitch": 33, "duration": 36, "velocity": 78}, {"time": 2887, "pitch": 40, "duration": 31, "velocity": 39}, {"time": 2893, "pitch": 57, "duration": 11, "velocity": 76}, {"time": 2899, "pitch": 45, "duration": 9, "velocity": 81}, {"time": 2905, "pitch": 52, "duration": 1, "velocity": 26}, {"time": 2905, "pitch": 61, "duration": 22, "velocity": 117}, {"time": 2911, "pitch": 45, "duration": 10, "velocity": 102}, {"time": 2917, "pitch": 57, "duration": 12, "velocity": 100}, {"time": 2923, "pitch": 52, "duration": 5, "velocity": 93}, {"time": 2929, "pitch": 38, "duration": 23, "velocity": 88}, {"time": 2932, "pitch": 45, "duration": 23, "velocity": 69}, {"time": 2935, "pitch": 50, "duration": 7, "velocity": 53}, {"time": 2938, "pitch": 54, "duration": 4, "velocity": 69}, {"time": 2941, "pitch": 57, "duration": 6, "velocity": 55}, {"time": 2944, "pitch": 50, "duration": 4, "velocity": 76}, {"time": 2947, "pitch": 54, "duration": 9, "velocity": 73}, {"time": 2950, "pitch": 57, "duration": 7, "velocity": 68}, {"time": 2953, "pitch": 60, "duration": 5, "velocity": 69}, {"time": 2956, "pitch": 38, "duration": 16, "velocity": 58}, {"time": 2959, "pitch": 54, "duration": 8, "velocity": 62}, {"time": 2962, "pitch": 45, "duration": 5, "velocity": 60}, {"time": 2965, "pitch": 57, "duration": 1, "velocity": 20}, {"time": 2965, "pitch": 60, "duration": 11, "velocity": 70}, {"time": 2968, "pitch": 45, "duration": 3, "velocity": 63}, {"time": 2971, "pitch": 54, "duration": 6, "velocity": 65}, {"time": 2974, "pitch": 57, "duration": 3, "velocity": 69}, {"time": 2977, "pitch": 35, "duration": 22, "velocity": 65}, {"time": 2980, "pitch": 42, "duration": 22, "velocity": 47}, {"time": 2983, "pitch": 47, "duration": 6, "velocity": 70}, {"time": 2986, "pitch": 50, "duration": 5, "velocity": 65}, {"time": 2989, "pitch": 59, "duration": 20, "velocity": 90}, {"time": 2992, "pitch": 47, "duration": 11, "velocity": 86}, {"time": 2995, "pitch": 54, "duration": 13, "velocity": 79}, {"time": 2998, "pitch": 50, "duration": 10, "velocity": 96}, {"time": 3001, "pitch": 35, "duration": 17, "velocity": 73}, {"time": 3004, "pitch": 42, "duration": 15, "velocity": 74}, {"time": 3007, "pitch": 47, "duration": 7, "velocity": 86}, {"time": 3010, "pitch": 50, "duration": 8, "velocity": 74}, {"time": 3013, "pitch": 59, "duration": 11, "velocity": 96}, {"time": 3016, "pitch": 47, "duration": 8, "velocity": 88}, {"time": 3019, "pitch": 54, "duration": 4, "velocity": 93}, {"time": 3022, "pitch": 50, "duration": 3, "velocity": 76}, {"time": 3025, "pitch": 38, "duration": 21, "velocity": 67}, {"time": 3028, "pitch": 45, "duration": 10, "velocity": 72}, {"time": 3031, "pitch": 50, "duration": 4, "velocity": 83}, {"time": 3034, "pitch": 54, "duration": 4, "velocity": 68}, {"time": 3037, "pitch": 57, "duration": 11, "velocity": 82}, {"time": 3040, "pitch": 45, "duration": 8, "velocity": 66}, {"time": 3043, "pitch": 54, "duration": 5, "velocity": 69}, {"time": 3046, "pitch": 50, "duration": 2, "velocity": 81}, {"time": 3049, "pitch": 38, "duration": 20, "velocity": 81}, {"time": 3052, "pitch": 45, "duration": 16, "velocity": 71}, {"time": 3055, "pitch": 50, "duration": 7, "velocity": 75}, {"time": 3058, "pitch": 53, "duration": 5, "velocity": 81}, {"time": 3061, "pitch": 60, "duration": 12, "velocity": 89}, {"time": 3064, "pitch": 50, "duration": 2, "velocity": 73}, {"time": 3067, "pitch": 57, "duration": 5, "velocity": 70}, {"time": 3070, "pitch": 53, "duration": 3, "velocity": 72}, {"time": 3073, "pitch": 35, "duration": 22, "velocity": 78}, {"time": 3076, "pitch": 42, "duration": 21, "velocity": 86}, {"time": 3079, "pitch": 47, "duration": 6, "velocity": 75}, {"time": 3082, "pitch": 50, "duration": 4, "velocity": 65}, {"time": 3085, "pitch": 59, "duration": 22, "velocity": 83}, {"time": 3088, "pitch": 47, "duration": 11, "velocity": 77}, {"time": 3091, "pitch": 54, "duration": 16, "velocity": 63}, {"time": 3094, "pitch": 50, "duration": 10, "velocity": 57}, {"time": 3097, "pitch": 35, "duration": 17, "velocity": 61}, {"time": 3100, "pitch": 42, "duration": 14, "velocity": 63}, {"time": 3103, "pitch": 47, "duration": 7, "velocity": 73}, {"time": 3106, "pitch": 50, "duration": 7, "velocity": 58}, {"time": 3109, "pitch": 59, "duration": 11, "velocity": 86}, {"time": 3112, "pitch": 47, "duration": 7, "velocity": 81}, {"time": 3115, "pitch": 54, "duration": 4, "velocity": 88}, {"time": 3118, "pitch": 50, "duration": 2, "velocity": 72}, {"time": 3121, "pitch": 38, "duration": 22, "velocity": 66}, {"time": 3124, "pitch": 45, "duration": 21, "velocity": 69}, {"time": 3127, "pitch": 50, "duration": 6, "velocity": 79}, {"time": 3130, "pitch": 54, "duration": 5, "velocity": 52}, {"time": 3133, "pitch": 62, "duration": 11, "velocity": 71}, {"time": 3136, "pitch": 50, "duration": 3, "velocity": 81}, {"time": 3139, "pitch": 54, "duration": 7, "velocity": 72}, {"time": 3142, "pitch": 57, "duration": 4, "velocity": 47}, {"time": 3145, "pitch": 38, "duration": 20, "velocity": 70}, {"time": 3148, "pitch": 45, "duration": 20, "velocity": 53}, {"time": 3151, "pitch": 50, "duration": 7, "velocity": 67}, {"time": 3154, "pitch": 54, "duration": 5, "velocity": 47}, {"time": 3157, "pitch": 57, "duration": 1, "velocity": 25}, {"time": 3157, "pitch": 60, "duration": 10, "velocity": 68}, {"time": 3160, "pitch": 50, "duration": 2, "velocity": 72}, {"time": 3163, "pitch": 54, "duration": 5, "velocity": 67}, {"time": 3166, "pitch": 57, "duration": 3, "velocity": 71}, {"time": 3169, "pitch": 40, "duration": 17, "velocity": 68}, {"time": 3172, "pitch": 47, "duration": 10, "velocity": 69}, {"time": 3175, "pitch": 52, "duration": 7, "velocity": 63}, {"time": 3178, "pitch": 56, "duration": 3, "velocity": 63}, {"time": 3181, "pitch": 59, "duration": 10, "velocity": 92}, {"time": 3184, "pitch": 47, "duration": 2, "velocity": 70}, {"time": 3187, "pitch": 56, "duration": 5, "velocity": 93}, {"time": 3190, "pitch": 52, "duration": 3, "velocity": 72}, {"time": 3193, "pitch": 35, "duration": 18, "velocity": 61}, {"time": 3196, "pitch": 42, "duration": 10, "velocity": 50}, {"time": 3199, "pitch": 47, "duration": 6, "velocity": 70}, {"time": 3202, "pitch": 51, "duration": 4, "velocity": 71}, {"time": 3205, "pitch": 54, "duration": 11, "velocity": 82}, {"time": 3208, "pitch": 42, "duration": 2, "velocity": 74}, {"time": 3211, "pitch": 51, "duration": 5, "velocity": 59}, {"time": 3214, "pitch": 47, "duration": 2, "velocity": 74}, {"time": 3217, "pitch": 33, "duration": 21, "velocity": 68}, {"time": 3220, "pitch": 40, "duration": 20, "velocity": 53}, {"time": 3223, "pitch": 45, "duration": 7, "velocity": 46}, {"time": 3226, "pitch": 49, "duration": 5, "velocity": 53}, {"time": 3229, "pitch": 57, "duration": 11, "velocity": 55}, {"time": 3232, "pitch": 45, "duration": 9, "velocity": 67}, {"time": 3235, "pitch": 49, "duration": 6, "velocity": 55}, {"time": 3238, "pitch": 52, "duration": 3, "velocity": 60}, {"time": 3241, "pitch": 35, "duration": 19, "velocity": 59}, {"time": 3244, "pitch": 42, "duration": 10, "velocity": 66}, {"time": 3247, "pitch": 47, "duration": 8, "velocity": 57}, {"time": 3250, "pitch": 51, "duration": 3, "velocity": 51}, {"time": 3253, "pitch": 54, "duration": 11, "velocity": 107}, {"time": 3256, "pitch": 42, "duration": 2, "velocity": 61}, {"time": 3259, "pitch": 51, "duration": 6, "velocity": 92}, {"time": 3262, "pitch": 47, "duration": 3, "velocity": 70}, {"time": 3265, "pitch": 33, "duration": 23, "velocity": 69}, {"time": 3268, "pitch": 40, "duration": 21, "velocity": 52}, {"time": 3271, "pitch": 45, "duration": 6, "velocity": 66}, {"time": 3274, "pitch": 49, "duration": 5, "velocity": 62}, {"time": 3277, "pitch": 57, "duration": 15, "velocity": 59}, {"time": 3280, "pitch": 45, "duration": 9, "velocity": 66}, {"time": 3283, "pitch": 49, "duration": 8, "velocity": 63}, {"time": 3286, "pitch": 52, "duration": 5, "velocity": 54}, {"time": 3289, "pitch": 33, "duration": 21, "velocity": 63}, {"time": 3292, "pitch": 40, "duration": 18, "velocity": 45}, {"time": 3295, "pitch": 45, "duration": 8, "velocity": 73}, {"time": 3298, "pitch": 49, "duration": 5, "velocity": 56}, {"time": 3301, "pitch": 57, "duration": 11, "velocity": 63}, {"time": 3304, "pitch": 45, "duration": 6, "velocity": 67}, {"time": 3307, "pitch": 49, "duration": 5, "velocity": 66}, {"time": 3310, "pitch": 52, "duration": 2, "velocity": 63}, {"time": 3313, "pitch": 38, "duration": 23, "velocity": 88}, {"time": 3316, "pitch": 45, "duration": 23, "velocity": 69}, {"time": 3319, "pitch": 50, "duration": 7, "velocity": 53}, {"time": 3322, "pitch": 54, "duration": 4, "velocity": 69}, {"time": 3325, "pitch": 57, "duration": 6, "velocity": 55}, {"time": 3328, "pitch": 50, "duration": 4, "velocity": 76}, {"time": 3331, "pitch": 54, "duration": 9, "velocity": 73}, {"time": 3334, "pitch": 57, "duration": 7, "velocity": 68}, {"time": 3337, "pitch": 60, "duration": 5, "velocity": 69}, {"time": 3340, "pitch": 38, "duration": 16, "velocity": 58}, {"time": 3343, "pitch": 54, "duration": 8, "velocity": 62}, {"time": 3346, "pitch": 45, "duration": 5, "velocity": 60}, {"time": 3349, "pitch": 57, "duration": 1, "velocity": 20}, {"time": 3349, "pitch": 60, "duration": 11, "velocity": 70}, {"time": 3352, "pitch": 45, "duration": 3, "velocity": 63}, {"time": 3355, "pitch": 54, "duration": 6, "velocity": 65}, {"time": 3358, "pitch": 57, "duration": 3, "velocity": 69}, {"time": 3361, "pitch": 35, "duration": 22, "velocity": 65}, {"time": 3364, "pitch": 42, "duration": 22, "velocity": 47}, {"time": 3367, "pitch": 47, "duration": 6, "velocity": 70}, {"time": 3370, "pitch": 50, "duration": 5, "velocity": 65}, {"time": 3373, "pitch": 59, "duration": 20, "velocity": 90}, {"time": 3376, "pitch": 47, "duration": 11, "velocity": 86}, {"time": 3379, "pitch": 54, "duration": 13, "velocity": 79}, {"time": 3382, "pitch": 50, "duration": 10, "velocity": 96}, {"time": 3385, "pitch": 35, "duration": 17, "velocity": 73}, {"time": 3388, "pitch": 42, "duration": 15, "velocity": 74}, {"time": 3391, "pitch": 47, "duration": 7, "velocity": 86}, {"time": 3394, "pitch": 50, "duration": 8, "velocity": 74}, {"time": 3397, "pitch": 59, "duration": 11, "velocity": 96}, {"time": 3400, "pitch": 47, "duration": 8, "velocity": 88}, {"time": 3403, "pitch": 54, "duration": 4, "velocity": 93}, {"time": 3406, "pitch": 50, "duration": 3, "velocity": 76}, {"time": 3409, "pitch": 38, "duration": 21, "velocity": 67}, {"time": 3412, "pitch": 45, "duration": 10, "velocity": 72}, {"time": 3415, "pitch": 50, "duration": 4, "velocity": 83}, {"time": 3418, "pitch": 54, "duration": 4, "velocity": 68}, {"time": 3421, "pitch": 57, "duration": 11, "velocity": 82}, {"time": 3424, "pitch": 45, "duration": 8, "velocity": 66}, {"time": 3427, "pitch": 54, "duration": 5, "velocity": 69}, {"time": 3430, "pitch": 50, "duration": 2, "velocity": 81}, {"time": 3433, "pitch": 38, "duration": 20, "velocity": 81}, {"time": 3436, "pitch": 45, "duration": 16, "velocity": 71}, {"time": 3439, "pitch": 50, "duration": 7, "velocity": 75}, {"time": 3442, "pitch": 53, "duration": 5, "velocity": 81}, {"time": 3445, "pitch": 60, "duration": 12, "velocity": 89}, {"time": 3448, "pitch": 50, "duration": 2, "velocity": 73}, {"time": 3451, "pitch": 57, "duration": 5, "velocity": 70}, {"time": 3454, "pitch": 53, "duration": 3, "velocity": 72}, {"time": 3457, "pitch": 35, "duration": 22, "velocity": 78}, {"time": 3460, "pitch": 42, "duration": 21, "velocity": 86}, {"time": 3463, "pitch": 47, "duration": 6, "velocity": 75}, {"time": 3466, "pitch": 50, "duration": 4, "velocity": 65}, {"time": 3469, "pitch": 59, "duration": 22, "velocity": 83}, {"time": 3472, "pitch": 47, "duration": 11, "velocity": 77}, {"time": 3475, "pitch": 54, "duration": 16, "velocity": 63}, {"time": 3478, "pitch": 50, "duration": 10, "velocity": 57}, {"time": 3481, "pitch": 35, "duration": 17, "velocity": 61}, {"time": 3484, "pitch": 42, "duration": 14, "velocity": 63}, {"time": 3487, "pitch": 47, "duration": 7, "velocity": 73}, {"time": 3490, "pitch": 50, "duration": 7, "velocity": 58}, {"time": 3493, "pitch": 59, "duration": 11, "velocity": 86}, {"time": 3496, "pitch": 47, "duration": 7, "velocity": 81}, {"time": 3499, "pitch": 54, "duration": 4, "velocity": 88}, {"time": 3502, "pitch": 50, "duration": 2, "velocity": 72}, {"time": 3505, "pitch": 38, "duration": 22, "velocity": 66}, {"time": 3508, "pitch": 45, "duration": 21, "velocity": 69}, {"time": 3511, "pitch": 50, "duration": 6, "velocity": 79}, {"time": 3514, "pitch": 54, "duration": 5, "velocity": 52}, {"time": 3517, "pitch": 62, "duration": 11, "velocity": 71}, {"time": 3520, "pitch": 50, "duration": 3, "velocity": 81}, {"time": 3523, "pitch": 54, "duration": 7, "velocity": 72}, {"time": 3526, "pitch": 57, "duration": 4, "velocity": 47}, {"time": 3529, "pitch": 38, "duration": 20, "velocity": 70}, {"time": 3532, "pitch": 45, "duration": 20, "velocity": 53}, {"time": 3535, "pitch": 50, "duration": 7, "velocity": 67}, {"time": 3538, "pitch": 54, "duration": 5, "velocity": 47}, {"time": 3541, "pitch": 57, "duration": 1, "velocity": 25}, {"time": 3541, "pitch": 60, "duration": 10, "velocity": 68}, {"time": 3544, "pitch": 50, "duration": 2, "velocity": 72}, {"time": 3547, "pitch": 54, "duration": 5, "velocity": 67}, {"time": 3550, "pitch": 57, "duration": 3, "velocity": 71}, {"time": 3553, "pitch": 40, "duration": 17, "velocity": 68}, {"time": 3556, "pitch": 47, "duration": 10, "velocity": 69}, {"time": 3559, "pitch": 52, "duration": 7, "velocity": 63}, {"time": 3562, "pitch": 56, "duration": 3, "velocity": 63}, {"time": 3565, "pitch": 59, "duration": 10, "velocity": 92}, {"time": 3568, "pitch": 47, "duration": 2, "velocity": 70}, {"time": 3571, "pitch": 56, "duration": 5, "velocity": 93}, {"time": 3574, "pitch": 52, "duration": 3, "velocity": 72}, {"time": 3577, "pitch": 35, "duration": 18, "velocity": 61}, {"time": 3580, "pitch": 42, "duration": 10, "velocity": 50}, {"time": 3583, "pitch": 47, "duration": 6, "velocity": 70}, {"time": 3586, "pitch": 51, "duration": 4, "velocity": 71}, {"time": 3589, "pitch": 54, "duration": 11, "velocity": 82}, {"time": 3592, "pitch": 42, "duration": 2, "velocity": 74}, {"time": 3595, "pitch": 51, "duration": 5, "velocity": 59}, {"time": 3598, "pitch": 47, "duration": 2, "velocity": 74}, {"time": 3601, "pitch": 33, "duration": 23, "velocity": 78}, {"time": 3604, "pitch": 40, "duration": 21, "velocity": 48}, {"time": 3607, "pitch": 45, "duration": 7, "velocity": 86}, {"time": 3610, "pitch": 52, "duration": 5, "velocity": 72}, {"time": 3613, "pitch": 61, "duration": 6, "velocity": 100}, {"time": 3616, "pitch": 45, "duration": 9, "velocity": 68}, {"time": 3619, "pitch": 57, "duration": 5, "velocity": 63}, {"time": 3622, "pitch": 52, "duration": 2, "velocity": 42}, {"time": 3625, "pitch": 33, "duration": 17, "velocity": 64}, {"time": 3625, "pitch": 52, "duration": 3, "velocity": 59}, {"time": 3625, "pitch": 57, "duration": 15, "velocity": 73}, {"time": 3625, "pitch": 60, "duration": 7, "velocity": 76}, {"time": 3628, "pitch": 40, "duration": 14, "velocity": 57}, {"time": 3631, "pitch": 45, "duration": 7, "velocity": 61}, {"time": 3637, "pitch": 64, "duration": 11, "velocity": 72}, {"time": 3640, "pitch": 45, "duration": 7, "velocity": 62}, {"time": 3643, "pitch": 57, "duration": 6, "velocity": 77}, {"time": 3649, "pitch": 38, "duration": 23, "velocity": 72}, {"time": 3652, "pitch": 45, "duration": 22, "velocity": 70}, {"time": 3655, "pitch": 50, "duration": 7, "velocity": 81}, {"time": 3658, "pitch": 57, "duration": 7, "velocity": 64}, {"time": 3661, "pitch": 66, "duration": 20, "velocity": 107}, {"time": 3664, "pitch": 50, "duration": 4, "velocity": 76}, {"time": 3667, "pitch": 64, "duration": 10, "velocity": 72}, {"time": 3670, "pitch": 57, "duration": 10, "velocity": 30}, {"time": 3670, "pitch": 62, "duration": 10, "velocity": 58}, {"time": 3673, "pitch": 38, "duration": 21, "velocity": 67}, {"time": 3676, "pitch": 45, "duration": 18, "velocity": 55}, {"time": 3679, "pitch": 50, "duration": 7, "velocity": 75}, {"time": 3682, "pitch": 57, "duration": 12, "velocity": 68}, {"time": 3685, "pitch": 66, "duration": 11, "velocity": 100}, {"time": 3688, "pitch": 50, "duration": 5, "velocity": 82}, {"time": 3691, "pitch": 64, "duration": 5, "velocity": 81}, {"time": 3694, "pitch": 62, "duration": 3, "velocity": 73}, {"time": 3697, "pitch": 38, "duration": 23, "velocity": 88}, {"time": 3700, "pitch": 45, "duration": 23, "velocity": 69}, {"time": 3703, "pitch": 50, "duration": 7, "velocity": 53}, {"time": 3706, "pitch": 54, "duration": 4, "velocity": 69}, {"time": 3709, "pitch": 57, "duration": 6, "velocity": 55}, {"time": 3712, "pitch": 50, "duration": 4, "velocity": 76}, {"time": 3715, "pitch": 54, "duration": 9, "velocity": 73}, {"time": 3718, "pitch": 57, "duration": 7, "velocity": 68}, {"time": 3721, "pitch": 60, "duration": 5, "velocity": 69}, {"time": 3724, "pitch": 38, "duration": 16, "velocity": 58}, {"time": 3727, "pitch": 54, "duration": 8, "velocity": 62}, {"time": 3730, "pitch": 45, "duration": 5, "velocity": 60}, {"time": 3733, "pitch": 57, "duration": 1, "velocity": 20}, {"time": 3733, "pitch": 60, "duration": 11, "velocity": 70}, {"time": 3736, "pitch": 45, "duration": 3, "velocity": 63}, {"time": 3739, "pitch": 54, "duration": 6, "velocity": 65}, {"time": 3742, "pitch": 57, "duration": 3, "velocity": 69}, {"time": 3745, "pitch": 35, "duration": 22, "velocity": 65}, {"time": 3748, "pitch": 42, "duration": 22, "velocity": 47}, {"time": 3751, "pitch": 47, "duration": 6, "velocity": 70}, {"time": 3754, "pitch": 50, "duration": 5, "velocity": 65}, {"time": 3757, "pitch": 59, "duration": 20, "velocity": 90}, {"time": 3760, "pitch": 47, "duration": 11, "velocity": 86}, {"time": 3763, "pitch": 54, "duration": 13, "velocity": 79}, {"time": 3766, "pitch": 50, "duration": 10, "velocity": 96}, {"time": 3769, "pitch": 35, "duration": 17, "velocity": 73}, {"time": 3772, "pitch": 42, "duration": 15, "velocity": 74}, {"time": 3775, "pitch": 47, "duration": 7, "velocity": 86}, {"time": 3778, "pitch": 50, "duration": 8, "velocity": 74}, {"time": 3781, "pitch": 59, "duration": 11, "velocity": 96}, {"time": 3784, "pitch": 47, "duration": 8, "velocity": 88}, {"time": 3787, "pitch": 54, "duration": 4, "velocity": 93}, {"time": 3790, "pitch": 50, "duration": 3, "velocity": 76}, {"time": 3793, "pitch": 38, "duration": 21, "velocity": 67}, {"time": 3796, "pitch": 45, "duration": 10, "velocity": 72}, {"time": 3799, "pitch": 50, "duration": 4, "velocity": 83}, {"time": 3802, "pitch": 54, "duration": 4, "velocity": 68}, {"time": 3805, "pitch": 57, "duration": 11, "velocity": 82}, {"time": 3808, "pitch": 45, "duration": 8, "velocity": 66}, {"time": 3811, "pitch": 54, "duration": 5, "velocity": 69}, {"time": 3814, "pitch": 50, "duration": 2, "velocity": 81}, {"time": 3817, "pitch": 38, "duration": 20, "velocity": 81}, {"time": 3820, "pitch": 45, "duration": 16, "velocity": 71}, {"time": 3823, "pitch": 50, "duration": 7, "velocity": 75}, {"time": 3826, "pitch": 53, "duration": 5, "velocity": 81}, {"time": 3829, "pitch": 60, "duration": 12, "velocity": 89}, {"time": 3832, "pitch": 50, "duration": 2, "velocity": 73}, {"time": 3835, "pitch": 57, "duration": 5, "velocity": 70}, {"time": 3838, "pitch": 53, "duration": 3, "velocity": 72}, {"time": 3841, "pitch": 35, "duration": 22, "velocity": 78}, {"time": 3844, "pitch": 42, "duration": 21, "velocity": 86}, {"time": 3847, "pitch": 47, "duration": 6, "velocity": 75}, {"time": 3850, "pitch": 50, "duration": 4, "velocity": 65}, {"time": 3853, "pitch": 59, "duration": 22, "velocity": 83}, {"time": 3856, "pitch": 47, "duration": 11, "velocity": 77}, {"time": 3859, "pitch": 54, "duration": 16, "velocity": 63}, {"time": 3862, "pitch": 50, "duration": 10, "velocity": 57}, {"time": 3865, "pitch": 35, "duration": 17, "velocity": 61}, {"time": 3868, "pitch": 42, "duration": 14, "velocity": 63}, {"time": 3871, "pitch": 47, "duration": 7, "velocity": 73}, {"time": 3874, "pitch": 50, "duration": 7, "velocity": 58}, {"time": 3877, "pitch": 59, "duration": 11, "velocity": 86}, {"time": 3880, "pitch": 47, "duration": 7, "velocity": 81}, {"time": 3883, "pitch": 54, "duration": 4, "velocity": 88}, {"time": 3886, "pitch": 50, "duration": 2, "velocity": 72}, {"time": 3889, "pitch": 38, "duration": 22, "velocity": 66}, {"time": 3892, "pitch": 45, "duration": 21, "velocity": 69}, {"time": 3895, "pitch": 50, "duration": 6, "velocity": 79}, {"time": 3898, "pitch": 54, "duration": 5, "velocity": 52}, {"time": 3901, "pitch": 62, "duration": 11, "velocity": 71}, {"time": 3904, "pitch": 50, "duration": 3, "velocity": 81}, {"time": 3907, "pitch": 54, "duration": 7, "velocity": 72}, {"time": 3910, "pitch": 57, "duration": 4, "velocity": 47}, {"time": 3913, "pitch": 38, "duration": 20, "velocity": 70}, {"time": 3916, "pitch": 45, "duration": 20, "velocity": 53}, {"time": 3919, "pitch": 50, "duration": 7, "velocity": 67}, {"time": 3922, "pitch": 54, "duration": 5, "velocity": 47}, {"time": 3925, "pitch": 57, "duration": 1, "velocity": 25}, {"time": 3925, "pitch": 60, "duration": 10, "velocity": 68}, {"time": 3928, "pitch": 50, "duration": 2, "velocity": 72}, {"time": 3931, "pitch": 54, "duration": 5, "velocity": 67}, {"time": 3934, "pitch": 57, "duration": 3, "velocity": 71}, {"time": 3937, "pitch": 40, "duration": 17, "velocity": 68}, {"time": 3940, "pitch": 47, "duration": 10, "velocity": 69}, {"time": 3943, "pitch": 52, "duration": 7, "velocity": 63}, {"time": 3946, "pitch": 56, "duration": 3, "velocity": 63}, {"time": 3949, "pitch": 59, "duration": 10, "velocity": 92}, {"time": 3952, "pitch": 47, "duration": 2, "velocity": 70}, {"time": 3955, "pitch": 56, "duration": 5, "velocity": 93}, {"time": 3958, "pitch": 52, "duration": 3, "velocity": 72}, {"time": 3961, "pitch": 35, "duration": 18, "velocity": 61}, {"time": 3964, "pitch": 42, "duration": 10, "velocity": 50}, {"time": 3967, "pitch": 47, "duration": 6, "velocity": 70}, {"time": 3970, "pitch": 51, "duration": 4, "velocity": 71}, {"time": 3973, "pitch": 54, "duration": 11, "velocity": 82}, {"time": 3976, "pitch": 42, "duration": 2, "velocity": 74}, {"time": 3979, "pitch": 51, "duration": 5, "velocity": 59}, {"time": 3982, "pitch": 47, "duration": 2, "velocity": 74}, {"time": 3985, "pitch": 33, "duration": 21, "velocity": 68}, {"time": 3988, "pitch": 40, "duration": 20, "velocity": 53}, {"time": 3991, "pitch": 45, "duration": 7, "velocity": 46}, {"time": 3994, "pitch": 49, "duration": 5, "velocity": 53}, {"time": 3997, "pitch": 57, "duration": 11, "velocity": 55}, {"time": 4000, "pitch": 45, "duration": 9, "velocity": 67}, {"time": 4003, "pitch": 49, "duration": 6, "velocity": 55}, {"time": 4006, "pitch": 52, "duration": 3, "velocity": 60}, {"time": 4009, "pitch": 35, "duration": 19, "velocity": 59}, {"time": 4012, "pitch": 42, "duration": 10, "velocity": 66}, {"time": 4015, "pitch": 47, "duration": 8, "velocity": 57}, {"time": 4018, "pitch": 51, "duration": 3, "velocity": 51}, {"time": 4021, "pitch": 54, "duration": 11, "velocity": 107}, {"time": 4024, "pitch": 42, "duration": 2, "velocity": 61}, {"time": 4027, "pitch": 51, "duration": 6, "velocity": 92}, {"time": 4030, "pitch": 47, "duration": 3, "velocity": 70}, {"time": 4033, "pitch": 33, "duration": 23, "velocity": 69}, {"time": 4036, "pitch": 40, "duration": 21, "velocity": 52}, {"time": 4039, "pitch": 45, "duration": 6, "velocity": 66}, {"time": 4042, "pitch": 49, "duration": 5, "velocity": 62}, {"time": 4045, "pitch": 57, "duration": 15, "velocity": 59}, {"time": 4048, "pitch": 45, "duration": 9, "velocity": 66}, {"time": 4051, "pitch": 49, "duration": 8, "velocity": 63}, {"time": 4054, "pitch": 52, "duration": 5, "velocity": 54}, {"time": 4057, "pitch": 33, "duration": 21, "velocity": 63}, {"time": 4060, "pitch": 40, "duration": 18, "velocity": 45}, {"time": 4063, "pitch": 45, "duration": 8, "velocity": 73}, {"time": 4066, "pitch": 49, "duration": 5, "velocity": 56}, {"time": 4069, "pitch": 57, "duration": 11, "velocity": 63}, {"time": 4072, "pitch": 45, "duration": 6, "velocity": 67}, {"time": 4075, "pitch": 49, "duration": 5, "velocity": 66}, {"time": 4078, "pitch": 52, "duration": 2, "velocity": 63}, {"time": 4081, "pitch": 38, "duration": 23, "velocity": 88}, {"time": 4084, "pitch": 45, "duration": 23, "velocity": 69}, {"time": 4087, "pitch": 50, "duration": 7, "velocity": 53}, {"time": 4090, "pitch": 54, "duration": 4, "velocity": 69}, {"time": 4093, "pitch": 57, "duration": 6, "velocity": 55}, {"time": 4096, "pitch": 50, "duration": 4, "velocity": 76}, {"time": 4099, "pitch": 54, "duration": 9, "velocity": 73}, {"time": 4102, "pitch": 57, "duration": 7, "velocity": 68}, {"time": 4105, "pitch": 60, "duration": 5, "velocity": 69}, {"time": 4108, "pitch": 38, "duration": 16, "velocity": 58}, {"time": 4111, "pitch": 54, "duration": 8, "velocity": 62}, {"time": 4114, "pitch": 45, "duration": 5, "velocity": 60}, {"time": 4117, "pitch": 57, "duration": 1, "velocity": 20}, {"time": 4117, "pitch": 60, "duration": 11, "velocity": 70}, {"time": 4120, "pitch": 45, "duration": 3, "velocity": 63}, {"time": 4123, "pitch": 54, "duration": 6, "velocity": 65}, {"time": 4126, "pitch": 57, "duration": 3, "velocity": 69}, {"time": 4129, "pitch": 35, "duration": 22, "velocity": 65}, {"time": 4132, "pitch": 42, "duration": 22, "velocity": 47}, {"time": 4135, "pitch": 47, "duration": 6, "velocity": 70}, {"time": 4138, "pitch": 50, "duration": 5, "velocity": 65}, {"time": 4141, "pitch": 59, "duration": 20, "velocity": 90}, {"time": 4144, "pitch": 47, "duration": 11, "velocity": 86}, {"time": 4147, "pitch": 54, "duration": 13, "velocity": 79}, {"time": 4150, "pitch": 50, "duration": 10, "velocity": 96}, {"time": 4153, "pitch": 35, "duration": 17, "velocity": 73}, {"time": 4156, "pitch": 42, "duration": 15, "velocity": 74}, {"time": 4159, "pitch": 47, "duration": 7, "velocity": 86}, {"time": 4162, "pitch": 50, "duration": 8, "velocity": 74}, {"time": 4165, "pitch": 59, "duration": 11, "velocity": 96}, {"time": 4168, "pitch": 47, "duration": 8, "velocity": 88}, {"time": 4171, "pitch": 54, "duration": 4, "velocity": 93}, {"time": 4174, "pitch": 50, "duration": 3, "velocity": 76}, {"time": 4177, "pitch": 38, "duration": 21, "velocity": 67}, {"time": 4180, "pitch": 45, "duration": 10, "velocity": 72}, {"time": 4183, "pitch": 50, "duration": 4, "velocity": 83}, {"time": 4186, "pitch": 54, "duration": 4, "velocity": 68}, {"time": 4189, "pitch": 57, "duration": 11, "velocity": 82}, {"time": 4192, "pitch": 45, "duration": 8, "velocity": 66}, {"time": 4195, "pitch": 54, "duration": 5, "velocity": 69}, {"time": 4198, "pitch": 50, "duration": 2, "velocity": 81}, {"time": 4201, "pitch": 38, "duration": 20, "velocity": 81}, {"time": 4204, "pitch": 45, "duration": 16, "velocity": 71}, {"time": 4207, "pitch": 50, "duration": 7, "velocity": 75}, {"time": 4210, "pitch": 53, "duration": 5, "velocity": 81}, {"time": 4213, "pitch": 60, "duration": 12, "velocity": 89}, {"time": 4216, "pitch": 50, "duration": 2, "velocity": 73}, {"time": 4219, "pitch": 57, "duration": 5, "velocity": 70}, {"time": 4222, "pitch": 53, "duration": 3, "velocity": 72}, {"time": 4225, "pitch": 35, "duration": 22, "velocity": 78}, {"time": 4228, "pitch": 42, "duration": 21, "velocity": 86}, {"time": 4231, "pitch": 47, "duration": 6, "velocity": 75}, {"time": 4234, "pitch": 50, "duration": 4, "velocity": 65}, {"time": 4237, "pitch": 59, "duration": 22, "velocity": 83}, {"time": 4240, "pitch": 47, "duration": 11, "velocity": 77}, {"time": 4243, "pitch": 54, "duration": 16, "velocity": 63}, {"time": 4246, "pitch": 50, "duration": 10, "velocity": 57}, {"time": 4249, "pitch": 35, "duration": 17, "velocity": 61}, {"time": 4252, "pitch": 42, "duration": 14, "velocity": 63}, {"time": 4255, "pitch": 47, "duration": 7, "velocity": 73}, {"time": 4258, "pitch": 50, "duration": 7, "velocity": 58}, {"time": 4261, "pitch": 59, "duration": 11, "velocity": 86}, {"time": 4264, "pitch": 47, "duration": 7, "velocity": 81}, {"time": 4267, "pitch": 54, "duration": 4, "velocity": 88}, {"time": 4270, "pitch": 50, "duration": 2, "velocity": 72}, {"time": 4273, "pitch": 38, "duration": 22, "velocity": 66}, {"time": 4276, "pitch": 45, "duration": 21, "velocity": 69}, {"time": 4279, "pitch": 50, "duration": 6, "velocity": 79}, {"time": 4282, "pitch": 54, "duration": 5, "velocity": 52}, {"time": 4285, "pitch": 62, "duration": 11, "velocity": 71}, {"time": 4288, "pitch": 50, "duration": 3, "velocity": 81}, {"time": 4291, "pitch": 54, "duration": 7, "velocity": 72}, {"time": 4294, "pitch": 57, "duration": 4, "velocity": 47}, {"time": 4297, "pitch": 38, "duration": 20, "velocity": 70}, {"time": 4300, "pitch": 45, "duration": 20, "velocity": 53}, {"time": 4303, "pitch": 50, "duration": 7, "velocity": 67}, {"time": 4306, "pitch": 54, "duration": 5, "velocity": 47}, {"time": 4309, "pitch": 57, "duration": 1, "velocity": 25}, {"time": 4309, "pitch": 60, "duration": 10, "velocity": 68}, {"time": 4312, "pitch": 50, "duration": 2, "velocity": 72}, {"time": 4315, "pitch": 54, "duration": 5, "velocity": 67}, {"time": 4318, "pitch": 57, "duration": 3, "velocity": 71}, {"time": 4321, "pitch": 40, "duration": 17, "velocity": 68}, {"time": 4324, "pitch": 47, "duration": 10, "velocity": 69}, {"time": 4327, "pitch": 52, "duration": 7, "velocity": 63}, {"time": 4330, "pitch": 56, "duration": 3, "velocity": 63}, {"time": 4333, "pitch": 59, "duration": 10, "velocity": 92}, {"time": 4336, "pitch": 47, "duration": 2, "velocity": 70}, {"time": 4339, "pitch": 56, "duration": 5, "velocity": 93}, {"time": 4342, "pitch": 52, "duration": 3, "velocity": 72}, {"time": 4345, "pitch": 35, "duration": 18, "velocity": 61}, {"time": 4348, "pitch": 42, "duration": 10, "velocity": 50}, {"time": 4351, "pitch": 47, "duration": 6, "velocity": 70}, {"time": 4354, "pitch": 51, "duration": 4, "velocity": 71}, {"time": 4357, "pitch": 54, "duration": 11, "velocity": 82}, {"time": 4360, "pitch": 42, "duration": 2, "velocity": 74}, {"time": 4363, "pitch": 51, "duration": 5, "velocity": 59}, {"time": 4366, "pitch": 47, "duration": 2, "velocity": 74}, {"time": 4369, "pitch": 33, "duration": 22, "velocity": 85}, {"time": 4372, "pitch": 40, "duration": 21, "velocity": 56}, {"time": 4375, "pitch": 45, "duration": 7, "velocity": 83}, {"time": 4378, "pitch": 49, "duration": 6, "velocity": 62}, {"time": 4381, "pitch": 57, "duration": 17, "velocity": 58}, {"time": 4384, "pitch": 45, "duration": 4, "velocity": 78}, {"time": 4387, "pitch": 49, "duration": 8, "velocity": 78}, {"time": 4390, "pitch": 52, "duration": 6, "velocity": 66}, {"time": 4393, "pitch": 33, "duration": 17, "velocity": 64}, {"time": 4396, "pitch": 40, "duration": 14, "velocity": 61}, {"time": 4399, "pitch": 45, "duration": 7, "velocity": 85}, {"time": 4402, "pitch": 49, "duration": 6, "velocity": 64}, {"time": 4405, "pitch": 57, "duration": 12, "velocity": 72}, {"time": 4408, "pitch": 45, "duration": 7, "velocity": 86}, {"time": 4411, "pitch": 49, "duration": 5, "velocity": 88}, {"time": 4414, "pitch": 52, "duration": 3, "velocity": 66}, {"time": 4417, "pitch": 38, "duration": 22, "velocity": 72}, {"time": 4420, "pitch": 45, "duration": 21, "velocity": 75}, {"time": 4423, "pitch": 50, "duration": 6, "velocity": 85}, {"time": 4426, "pitch": 57, "duration": 7, "velocity": 72}, {"time": 4429, "pitch": 66, "duration": 22, "velocity": 107}, {"time": 4432, "pitch": 50, "duration": 5, "velocity": 77}, {"time": 4435, "pitch": 62, "duration": 14, "velocity": 67}, {"time": 4438, "pitch": 57, "duration": 10, "velocity": 62}, {"time": 4441, "pitch": 38, "duration": 21, "velocity": 67}, {"time": 4444, "pitch": 45, "duration": 19, "velocity": 59}, {"time": 4447, "pitch": 50, "duration": 7, "velocity": 69}, {"time": 4450, "pitch": 57, "duration": 6, "velocity": 61}, {"time": 4453, "pitch": 66, "duration": 12, "velocity": 102}, {"time": 4456, "pitch": 50, "duration": 7, "velocity": 71}, {"time": 4459, "pitch": 62, "duration": 6, "velocity": 67}, {"time": 4462, "pitch": 57, "duration": 3, "velocity": 76}, {"time": 4465, "pitch": 33, "duration": 16, "velocity": 82}, {"time": 4468, "pitch": 40, "duration": 13, "velocity": 59}, {"time": 4471, "pitch": 45, "duration": 7, "velocity": 64}, {"time": 4474, "pitch": 52, "duration": 6, "velocity": 56}, {"time": 4477, "pitch": 61, "duration": 7, "velocity": 96}, {"time": 4480, "pitch": 45, "duration": 3, "velocity": 57}, {"time": 4483, "pitch": 57, "duration": 1, "velocity": 58}, {"time": 4489, "pitch": 38, "duration": 58, "velocity": 54}, {"time": 4489, "pitch": 45, "duration": 58, "velocity": 57}, {"time": 4489, "pitch": 50, "duration": 58, "velocity": 67}, {"time": 4489, "pitch": 57, "duration": 58, "velocity": 69}, {"time": 4489, "pitch": 62, "duration": 58, "velocity": 69}, {"time": 4489, "pitch": 66, "duration": 58, "velocity": 69}], "annotations": [{"time": 50, "annotation": {"number": 64, "value": 127}, "group": "control_change"}, {"time": 95, "annotation": {"number": 64, "value": 0}, "group": "control_change"}, {"time": 96, "annotation": {"number": 64, "value": 127}, "group": "control_change"}, {"time": 143, "annotation": {"number": 64, "value": 0}, "group": "control_change"}, {"time": 146, "annotation": {"number": 64, "value": 127}, "group": "control_change"}, {"time": 190, "annotation": {"number": 64, "value": 0}, "group": "control_change"}, {"time": 194, "annotation": {"number": 64, "value": 127}, "group": "control_change"}, {"time": 215, "annotation": {"number": 64, "value": 0}, "group": "control_change"}, {"time": 218, "annotation": {"number": 64, "value": 127}, "group": "control_change"}, {"time": 236, "annotation": {"number": 64, "value": 0}, "group": "control_change"}, {"time": 241, "annotation": {"number": 64, "value": 127}, "group": "control_change"}, {"time": 262, "annotation": {"number": 64, "value": 0}, "group": "control_change"}, {"time": 265, "annotation": {"number": 64, "value": 127}, "group": "control_change"}, {"time": 286, "annotation": {"number": 64, "value": 0}, "group": "control_change"}, {"time": 289, "annotation": {"number": 64, "value": 127}, "group": "control_change"}, {"time": 335, "annotation": {"number": 64, "value": 0}, "group": "control_change"}, {"time": 337, "annotation": {"number": 64, "value": 127}, "group": "control_change"}, {"time": 382, "annotation": {"number": 64, "value": 0}, "group": "control_change"}, {"time": 385, "annotation": {"number": 64, "value": 127}, "group": "control_change"}, {"time": 429, "annotation": {"number": 64, "value": 0}, "group": "control_change"}, {"time": 433, "annotation": {"number": 64, "value": 127}, "group": "control_change"}, {"time": 455, "annotation": {"number": 64, "value": 0}, "group": "control_change"}, {"time": 457, "annotation": {"number": 64, "value": 127}, "group": "control_change"}, {"time": 480, "annotation": {"number": 64, "value": 0}, "group": "control_change"}, {"time": 482, "annotation": {"number": 64, "value": 127}, "group": "control_change"}, {"time": 502, "annotation": {"number": 64, "value": 0}, "group": "control_change"}, {"time": 505, "annotation": {"number": 64, "value": 127}, "group": "control_change"}, {"time": 527, "annotation": {"number": 64, "value": 0}, "group": "control_change"}, {"time": 530, "annotation": {"number": 64, "value": 127}, "group": "control_change"}, {"time": 551, "annotation": {"number": 64, "value": 0}, "group": "control_change"}, {"time": 553, "annotation": {"number": 64, "value": 127}, "group": "control_change"}, {"time": 575, "annotation": {"number": 64, "value": 0}, "group": "control_change"}, {"time": 577, "annotation": {"number": 64, "value": 127}, "group": "control_change"}, {"time": 599, "annotation": {"number": 64, "value": 0}, "group": "control_change"}, {"time": 602, "annotation": {"number": 64, "value": 127}, "group": "control_change"}, {"time": 622, "annotation": {"number": 64, "value": 0}, "group": "control_change"}, {"time": 626, "annotation": {"number": 64, "value": 127}, "group": "control_change"}, {"time": 647, "annotation": {"number": 64, "value": 0}, "group": "control_change"}, {"time": 661, "annotation": {"number": 64, "value": 127}, "group": "control_change"}, {"time": 670, "annotation": {"number": 64, "value": 0}, "group": "control_change"}, {"time": 674, "annotation": {"number": 64, "value": 127}, "group": "control_change"}, {"time": 694, "annotation": {"number": 64, "value": 0}, "group": "control_change"}, {"time": 698, "annotation": {"number": 64, "value": 127}, "group": "control_change"}, {"time": 718, "annotation": {"number": 64, "value": 0}, "group": "control_change"}, {"time": 721, "annotation": {"number": 64, "value": 127}, "group": "control_change"}, {"time": 743, "annotation": {"number": 64, "value": 0}, "group": "control_change"}, {"time": 745, "annotation": {"number": 64, "value": 127}, "group": "control_change"}, {"time": 767, "annotation": {"number": 64, "value": 0}, "group": "control_change"}, {"time": 770, "annotation": {"number": 64, "value": 127}, "group": "control_change"}, {"time": 790, "annotation": {"number": 64, "value": 0}, "group": "control_change"}, {"time": 793, "annotation": {"number": 64, "value": 127}, "group": "control_change"}, {"time": 803, "annotation": {"number": 64, "value": 0}, "group": "control_change"}, {"time": 806, "annotation": {"number": 64, "value": 127}, "group": "control_change"}, {"time": 814, "annotation": {"number": 64, "value": 0}, "group": "control_change"}, {"time": 818, "annotation": {"number": 64, "value": 127}, "group": "control_change"}, {"time": 839, "annotation": {"number": 64, "value": 0}, "group": "control_change"}, {"time": 842, "annotation": {"number": 64, "value": 127}, "group": "control_change"}, {"time": 863, "annotation": {"number": 64, "value": 0}, "group": "control_change"}, {"time": 866, "annotation": {"number": 64, "value": 127}, "group": "control_change"}, {"time": 884, "annotation": {"number": 64, "value": 0}, "group": "control_change"}, {"time": 889, "annotation": {"number": 64, "value": 127}, "group": "control_change"}, {"time": 910, "annotation": {"number": 64, "value": 0}, "group": "control_change"}, {"time": 913, "annotation": {"number": 64, "value": 127}, "group": "control_change"}, {"time": 957, "annotation": {"number": 64, "value": 0}, "group": "control_change"}, {"time": 961, "annotation": {"number": 64, "value": 127}, "group": "control_change"}, {"time": 983, "annotation": {"number": 64, "value": 0}, "group": "control_change"}, {"time": 985, "annotation": {"number": 64, "value": 127}, "group": "control_change"}, {"time": 1005, "annotation": {"number": 64, "value": 0}, "group": "control_change"}, {"time": 1009, "annotation": {"number": 64, "value": 127}, "group": "control_change"}, {"time": 1030, "annotation": {"number": 64, "value": 0}, "group": "control_change"}, {"time": 1033, "annotation": {"number": 64, "value": 127}, "group": "control_change"}, {"time": 1054, "annotation": {"number": 64, "value": 0}, "group": "control_change"}, {"time": 1057, "annotation": {"number": 64, "value": 127}, "group": "control_change"}, {"time": 1078, "annotation": {"number": 64, "value": 0}, "group": "control_change"}, {"time": 1080, "annotation": {"number": 64, "value": 127}, "group": "control_change"}, {"time": 1103, "annotation": {"number": 64, "value": 0}, "group": "control_change"}, {"time": 1105, "annotation": {"number": 64, "value": 127}, "group": "control_change"}, {"time": 1126, "annotation": {"number": 64, "value": 0}, "group": "control_change"}, {"time": 1128, "annotation": {"number": 64, "value": 127}, "group": "control_change"}, {"time": 1150, "annotation": {"number": 64, "value": 0}, "group": "control_change"}, {"time": 1152, "annotation": {"number": 64, "value": 127}, "group": "control_change"}, {"time": 1154, "annotation": {"number": 64, "value": 127}, "group": "control_change"}, {"time": 1174, "annotation": {"number": 64, "value": 0}, "group": "control_change"}, {"time": 1176, "annotation": {"number": 64, "value": 127}, "group": "control_change"}, {"time": 1198, "annotation": {"number": 64, "value": 0}, "group": "control_change"}, {"time": 1201, "annotation": {"number": 64, "value": 127}, "group": "control_change"}, {"time": 1222, "annotation": {"number": 64, "value": 0}, "group": "control_change"}, {"time": 1225, "annotation": {"number": 64, "value": 127}, "group": "control_change"}, {"time": 1246, "annotation": {"number": 64, "value": 0}, "group": "control_change"}, {"time": 1248, "annotation": {"number": 64, "value": 127}, "group": "control_change"}, {"time": 1271, "annotation": {"number": 64, "value": 0}, "group": "control_change"}, {"time": 1272, "annotation": {"number": 64, "value": 127}, "group": "control_change"}, {"time": 1294, "annotation": {"number": 64, "value": 0}, "group": "control_change"}, {"time": 1297, "annotation": {"number": 64, "value": 127}, "group": "control_change"}, {"time": 1318, "annotation": {"number": 64, "value": 0}, "group": "control_change"}, {"time": 1320, "annotation": {"number": 64, "value": 127}, "group": "control_change"}, {"time": 1342, "annotation": {"number": 64, "value": 0}, "group": "control_change"}, {"time": 1345, "annotation": {"number": 64, "value": 127}, "group": "control_change"}, {"time": 1367, "annotation": {"number": 64, "value": 0}, "group": "control_change"}, {"time": 1369, "annotation": {"number": 64, "value": 127}, "group": "control_change"}, {"time": 1387, "annotation": {"number": 64, "value": 0}, "group": "control_change"}, {"time": 1393, "annotation": {"number": 64, "value": 127}, "group": "control_change"}, {"time": 1414, "annotation": {"number": 64, "value": 0}, "group": "control_change"}, {"time": 1417, "annotation": {"number": 64, "value": 127}, "group": "control_change"}, {"time": 1438, "annotation": {"number": 64, "value": 0}, "group": "control_change"}, {"time": 1441, "annotation": {"number": 64, "value": 127}, "group": "control_change"}, {"time": 1462, "annotation": {"number": 64, "value": 0}, "group": "control_change"}, {"time": 1464, "annotation": {"number": 64, "value": 127}, "group": "control_change"}, {"time": 1487, "annotation": {"number": 64, "value": 0}, "group": "control_change"}, {"time": 1489, "annotation": {"number": 64, "value": 127}, "group": "control_change"}, {"time": 1510, "annotation": {"number": 64, "value": 0}, "group": "control_change"}, {"time": 1512, "annotation": {"number": 64, "value": 127}, "group": "control_change"}, {"time": 1534, "annotation": {"number": 64, "value": 0}, "group": "control_change"}, {"time": 1536, "annotation": {"number": 64, "value": 127}, "group": "control_change"}, {"time": 1538, "annotation": {"number": 64, "value": 127}, "group": "control_change"}, {"time": 1558, "annotation": {"number": 64, "value": 0}, "group": "control_change"}, {"time": 1560, "annotation": {"number": 64, "value": 127}, "group": "control_change"}, {"time": 1582, "annotation": {"number": 64, "value": 0}, "group": "control_change"}, {"time": 1585, "annotation": {"number": 64, "value": 127}, "group": "control_change"}, {"time": 1606, "annotation": {"number": 64, "value": 0}, "group": "control_change"}, {"time": 1609, "annotation": {"number": 64, "value": 127}, "group": "control_change"}, {"time": 1630, "annotation": {"number": 64, "value": 0}, "group": "control_change"}, {"time": 1632, "annotation": {"number": 64, "value": 127}, "group": "control_change"}, {"time": 1655, "annotation": {"number": 64, "value": 0}, "group": "control_change"}, {"time": 1656, "annotation": {"number": 64, "value": 127}, "group": "control_change"}, {"time": 1678, "annotation": {"number": 64, "value": 0}, "group": "control_change"}, {"time": 1681, "annotation": {"number": 64, "value": 127}, "group": "control_change"}, {"time": 1689, "annotation": {"number": 64, "value": 0}, "group": "control_change"}, {"time": 1691, "annotation": {"number": 64, "value": 127}, "group": "control_change"}, {"time": 1701, "annotation": {"number": 64, "value": 0}, "group": "control_change"}, {"time": 1705, "annotation": {"number": 64, "value": 127}, "group": "control_change"}, {"time": 1726, "annotation": {"number": 64, "value": 0}, "group": "control_change"}, {"time": 1729, "annotation": {"number": 64, "value": 127}, "group": "control_change"}, {"time": 1750, "annotation": {"number": 64, "value": 0}, "group": "control_change"}, {"time": 1754, "annotation": {"number": 64, "value": 127}, "group": "control_change"}, {"time": 1774, "annotation": {"number": 64, "value": 0}, "group": "control_change"}, {"time": 1778, "annotation": {"number": 64, "value": 127}, "group": "control_change"}, {"time": 1798, "annotation": {"number": 64, "value": 0}, "group": "control_change"}, {"time": 1801, "annotation": {"number": 64, "value": 127}, "group": "control_change"}, {"time": 1823, "annotation": {"number": 64, "value": 0}, "group": "control_change"}, {"time": 1825, "annotation": {"number": 64, "value": 127}, "group": "control_change"}, {"time": 1847, "annotation": {"number": 64, "value": 0}, "group": "control_change"}, {"time": 1849, "annotation": {"number": 64, "value": 127}, "group": "control_change"}, {"time": 1871, "annotation": {"number": 64, "value": 0}, "group": "control_change"}, {"time": 1873, "annotation": {"number": 64, "value": 127}, "group": "control_change"}, {"time": 1919, "annotation": {"number": 64, "value": 0}, "group": "control_change"}, {"time": 1921, "annotation": {"number": 64, "value": 127}, "group": "control_change"}, {"time": 1942, "annotation": {"number": 64, "value": 0}, "group": "control_change"}, {"time": 1970, "annotation": {"number": 64, "value": 127}, "group": "control_change"}, {"time": 2015, "annotation": {"number": 64, "value": 0}, "group": "control_change"}, {"time": 2016, "annotation": {"number": 64, "value": 127}, "group": "control_change"}, {"time": 2063, "annotation": {"number": 64, "value": 0}, "group": "control_change"}, {"time": 2066, "annotation": {"number": 64, "value": 127}, "group": "control_change"}, {"time": 2110, "annotation": {"number": 64, "value": 0}, "group": "control_change"}, {"time": 2114, "annotation": {"number": 64, "value": 127}, "group": "control_change"}, {"time": 2135, "annotation": {"number": 64, "value": 0}, "group": "control_change"}, {"time": 2138, "annotation": {"number": 64, "value": 127}, "group": "control_change"}, {"time": 2156, "annotation": {"number": 64, "value": 0}, "group": "control_change"}, {"time": 2161, "annotation": {"number": 64, "value": 127}, "group": "control_change"}, {"time": 2182, "annotation": {"number": 64, "value": 0}, "group": "control_change"}, {"time": 2185, "annotation": {"number": 64, "value": 127}, "group": "control_change"}, {"time": 2206, "annotation": {"number": 64, "value": 0}, "group": "control_change"}, {"time": 2209, "annotation": {"number": 64, "value": 127}, "group": "control_change"}, {"time": 2255, "annotation": {"number": 64, "value": 0}, "group": "control_change"}, {"time": 2257, "annotation": {"number": 64, "value": 127}, "group": "control_change"}, {"time": 2302, "annotation": {"number": 64, "value": 0}, "group": "control_change"}, {"time": 2305, "annotation": {"number": 64, "value": 127}, "group": "control_change"}, {"time": 2349, "annotation": {"number": 64, "value": 0}, "group": "control_change"}, {"time": 2353, "annotation": {"number": 64, "value": 127}, "group": "control_change"}, {"time": 2375, "annotation": {"number": 64, "value": 0}, "group": "control_change"}, {"time": 2377, "annotation": {"number": 64, "value": 127}, "group": "control_change"}, {"time": 2400, "annotation": {"number": 64, "value": 0}, "group": "control_change"}, {"time": 2402, "annotation": {"number": 64, "value": 127}, "group": "control_change"}, {"time": 2422, "annotation": {"number": 64, "value": 0}, "group": "control_change"}, {"time": 2425, "annotation": {"number": 64, "value": 127}, "group": "control_change"}, {"time": 2447, "annotation": {"number": 64, "value": 0}, "group": "control_change"}, {"time": 2450, "annotation": {"number": 64, "value": 127}, "group": "control_change"}, {"time": 2471, "annotation": {"number": 64, "value": 0}, "group": "control_change"}, {"time": 2473, "annotation": {"number": 64, "value": 127}, "group": "control_change"}, {"time": 2495, "annotation": {"number": 64, "value": 0}, "group": "control_change"}, {"time": 2497, "annotation": {"number": 64, "value": 127}, "group": "control_change"}, {"time": 2519, "annotation": {"number": 64, "value": 0}, "group": "control_change"}, {"time": 2522, "annotation": {"number": 64, "value": 127}, "group": "control_change"}, {"time": 2542, "annotation": {"number": 64, "value": 0}, "group": "control_change"}, {"time": 2546, "annotation": {"number": 64, "value": 127}, "group": "control_change"}, {"time": 2567, "annotation": {"number": 64, "value": 0}, "group": "control_change"}, {"time": 2581, "annotation": {"number": 64, "value": 127}, "group": "control_change"}, {"time": 2590, "annotation": {"number": 64, "value": 0}, "group": "control_change"}, {"time": 2594, "annotation": {"number": 64, "value": 127}, "group": "control_change"}, {"time": 2614, "annotation": {"number": 64, "value": 0}, "group": "control_change"}, {"time": 2618, "annotation": {"number": 64, "value": 127}, "group": "control_change"}, {"time": 2638, "annotation": {"number": 64, "value": 0}, "group": "control_change"}, {"time": 2641, "annotation": {"number": 64, "value": 127}, "group": "control_change"}, {"time": 2663, "annotation": {"number": 64, "value": 0}, "group": "control_change"}, {"time": 2665, "annotation": {"number": 64, "value": 127}, "group": "control_change"}, {"time": 2687, "annotation": {"number": 64, "value": 0}, "group": "control_change"}, {"time": 2690, "annotation": {"number": 64, "value": 127}, "group": "control_change"}, {"time": 2710, "annotation": {"number": 64, "value": 0}, "group": "control_change"}, {"time": 2713, "annotation": {"number": 64, "value": 127}, "group": "control_change"}, {"time": 2723, "annotation": {"number": 64, "value": 0}, "group": "control_change"}, {"time": 2726, "annotation": {"number": 64, "value": 127}, "group": "control_change"}, {"time": 2734, "annotation": {"number": 64, "value": 0}, "group": "control_change"}, {"time": 2738, "annotation": {"number": 64, "value": 127}, "group": "control_change"}, {"time": 2759, "annotation": {"number": 64, "value": 0}, "group": "control_change"}, {"time": 2762, "annotation": {"number": 64, "value": 127}, "group": "control_change"}, {"time": 2783, "annotation": {"number": 64, "value": 0}, "group": "control_change"}, {"time": 2786, "annotation": {"number": 64, "value": 127}, "group": "control_change"}, {"time": 2804, "annotation": {"number": 64, "value": 0}, "group": "control_change"}, {"time": 2809, "annotation": {"number": 64, "value": 127}, "group": "control_change"}, {"time": 2830, "annotation": {"number": 64, "value": 0}, "group": "control_change"}, {"time": 2833, "annotation": {"number": 64, "value": 127}, "group": "control_change"}, {"time": 2877, "annotation": {"number": 64, "value": 0}, "group": "control_change"}, {"time": 2881, "annotation": {"number": 64, "value": 127}, "group": "control_change"}, {"time": 2903, "annotation": {"number": 64, "value": 0}, "group": "control_change"}, {"time": 2905, "annotation": {"number": 64, "value": 127}, "group": "control_change"}, {"time": 2925, "annotation": {"number": 64, "value": 0}, "group": "control_change"}, {"time": 2929, "annotation": {"number": 64, "value": 127}, "group": "control_change"}, {"time": 2950, "annotation": {"number": 64, "value": 0}, "group": "control_change"}, {"time": 2953, "annotation": {"number": 64, "value": 127}, "group": "control_change"}, {"time": 2974, "annotation": {"number": 64, "value": 0}, "group": "control_change"}, {"time": 2977, "annotation": {"number": 64, "value": 127}, "group": "control_change"}, {"time": 2998, "annotation": {"number": 64, "value": 0}, "group": "control_change"}, {"time": 3000, "annotation": {"number": 64, "value": 127}, "group": "control_change"}, {"time": 3023, "annotation": {"number": 64, "value": 0}, "group": "control_change"}, {"time": 3025, "annotation": {"number": 64, "value": 127}, "group": "control_change"}, {"time": 3046, "annotation": {"number": 64, "value": 0}, "group": "control_change"}, {"time": 3048, "annotation": {"number": 64, "value": 127}, "group": "control_change"}, {"time": 3070, "annotation": {"number": 64, "value": 0}, "group": "control_change"}, {"time": 3072, "annotation": {"number": 64, "value": 127}, "group": "control_change"}, {"time": 3074, "annotation": {"number": 64, "value": 127}, "group": "control_change"}, {"time": 3094, "annotation": {"number": 64, "value": 0}, "group": "control_change"}, {"time": 3096, "annotation": {"number": 64, "value": 127}, "group": "control_change"}, {"time": 3118, "annotation": {"number": 64, "value": 0}, "group": "control_change"}, {"time": 3121, "annotation": {"number": 64, "value": 127}, "group": "control_change"}, {"time": 3142, "annotation": {"number": 64, "value": 0}, "group": "control_change"}, {"time": 3145, "annotation": {"number": 64, "value": 127}, "group": "control_change"}, {"time": 3166, "annotation": {"number": 64, "value": 0}, "group": "control_change"}, {"time": 3168, "annotation": {"number": 64, "value": 127}, "group": "control_change"}, {"time": 3191, "annotation": {"number": 64, "value": 0}, "group": "control_change"}, {"time": 3192, "annotation": {"number": 64, "value": 127}, "group": "control_change"}, {"time": 3214, "annotation": {"number": 64, "value": 0}, "group": "control_change"}, {"time": 3217, "annotation": {"number": 64, "value": 127}, "group": "control_change"}, {"time": 3238, "annotation": {"number": 64, "value": 0}, "group": "control_change"}, {"time": 3240, "annotation": {"number": 64, "value": 127}, "group": "control_change"}, {"time": 3262, "annotation": {"number": 64, "value": 0}, "group": "control_change"}, {"time": 3265, "annotation": {"number": 64, "value": 127}, "group": "control_change"}, {"time": 3287, "annotation": {"number": 64, "value": 0}, "group": "control_change"}, {"time": 3289, "annotation": {"number": 64, "value": 127}, "group": "control_change"}, {"time": 3307, "annotation": {"number": 64, "value": 0}, "group": "control_change"}, {"time": 3313, "annotation": {"number": 64, "value": 127}, "group": "control_change"}, {"time": 3334, "annotation": {"number": 64, "value": 0}, "group": "control_change"}, {"time": 3337, "annotation": {"number": 64, "value": 127}, "group": "control_change"}, {"time": 3358, "annotation": {"number": 64, "value": 0}, "group": "control_change"}, {"time": 3361, "annotation": {"number": 64, "value": 127}, "group": "control_change"}, {"time": 3382, "annotation": {"number": 64, "value": 0}, "group": "control_change"}, {"time": 3384, "annotation": {"number": 64, "value": 127}, "group": "control_change"}, {"time": 3407, "annotation": {"number": 64, "value": 0}, "group": "control_change"}, {"time": 3409, "annotation": {"number": 64, "value": 127}, "group": "control_change"}, {"time": 3430, "annotation": {"number": 64, "value": 0}, "group": "control_change"}, {"time": 3432, "annotation": {"number": 64, "value": 127}, "group": "control_change"}, {"time": 3454, "annotation": {"number": 64, "value": 0}, "group": "control_change"}, {"time": 3456, "annotation": {"number": 64, "value": 127}, "group": "control_change"}, {"time": 3458, "annotation": {"number": 64, "value": 127}, "group": "control_change"}, {"time": 3478, "annotation": {"number": 64, "value": 0}, "group": "control_change"}, {"time": 3480, "annotation": {"number": 64, "value": 127}, "group": "control_change"}, {"time": 3502, "annotation": {"number": 64, "value": 0}, "group": "control_change"}, {"time": 3505, "annotation": {"number": 64, "value": 127}, "group": "control_change"}, {"time": 3526, "annotation": {"number": 64, "value": 0}, "group": "control_change"}, {"time": 3529, "annotation": {"number": 64, "value": 127}, "group": "control_change"}, {"time": 3550, "annotation": {"number": 64, "value": 0}, "group": "control_change"}, {"time": 3552, "annotation": {"number": 64, "value": 127}, "group": "control_change"}, {"time": 3575, "annotation": {"number": 64, "value": 0}, "group": "control_change"}, {"time": 3576, "annotation": {"number": 64, "value": 127}, "group": "control_change"}, {"time": 3598, "annotation": {"number": 64, "value": 0}, "group": "control_change"}, {"time": 3600, "annotation": {"number": 64, "value": 127}, "group": "control_change"}, {"time": 3622, "annotation": {"number": 64, "value": 0}, "group": "control_change"}, {"time": 3625, "annotation": {"number": 64, "value": 127}, "group": "control_change"}, {"time": 3646, "annotation": {"number": 64, "value": 0}, "group": "control_change"}, {"time": 3649, "annotation": {"number": 64, "value": 127}, "group": "control_change"}, {"time": 3670, "annotation": {"number": 64, "value": 0}, "group": "control_change"}, {"time": 3673, "annotation": {"number": 64, "value": 127}, "group": "control_change"}, {"time": 3691, "annotation": {"number": 64, "value": 0}, "group": "control_change"}, {"time": 3697, "annotation": {"number": 64, "value": 127}, "group": "control_change"}, {"time": 3718, "annotation": {"number": 64, "value": 0}, "group": "control_change"}, {"time": 3721, "annotation": {"number": 64, "value": 127}, "group": "control_change"}, {"time": 3742, "annotation": {"number": 64, "value": 0}, "group": "control_change"}, {"time": 3745, "annotation": {"number": 64, "value": 127}, "group": "control_change"}, {"time": 3766, "annotation": {"number": 64, "value": 0}, "group": "control_change"}, {"time": 3768, "annotation": {"number": 64, "value": 127}, "group": "control_change"}, {"time": 3791, "annotation": {"number": 64, "value": 0}, "group": "control_change"}, {"time": 3793, "annotation": {"number": 64, "value": 127}, "group": "control_change"}, {"time": 3814, "annotation": {"number": 64, "value": 0}, "group": "control_change"}, {"time": 3816, "annotation": {"number": 64, "value": 127}, "group": "control_change"}, {"time": 3838, "annotation": {"number": 64, "value": 0}, "group": "control_change"}, {"time": 3840, "annotation": {"number": 64, "value": 127}, "group": "control_change"}, {"time": 3842, "annotation": {"number": 64, "value": 127}, "group": "control_change"}, {"time": 3862, "annotation": {"number": 64, "value": 0}, "group": "control_change"}, {"time": 3864, "annotation": {"number": 64, "value": 127}, "group": "control_change"}, {"time": 3886, "annotation": {"number": 64, "value": 0}, "group": "control_change"}, {"time": 3889, "annotation": {"number": 64, "value": 127}, "group": "control_change"}, {"time": 3910, "annotation": {"number": 64, "value": 0}, "group": "control_change"}, {"time": 3913, "annotation": {"number": 64, "value": 127}, "group": "control_change"}, {"time": 3934, "annotation": {"number": 64, "value": 0}, "group": "control_change"}, {"time": 3936, "annotation": {"number": 64, "value": 127}, "group": "control_change"}, {"time": 3959, "annotation": {"number": 64, "value": 0}, "group": "control_change"}, {"time": 3960, "annotation": {"number": 64, "value": 127}, "group": "control_change"}, {"time": 3982, "annotation": {"number": 64, "value": 0}, "group": "control_change"}, {"time": 3985, "annotation": {"number": 64, "value": 127}, "group": "control_change"}, {"time": 4006, "annotation": {"number": 64, "value": 0}, "group": "control_change"}, {"time": 4008, "annotation": {"number": 64, "value": 127}, "group": "control_change"}, {"time": 4030, "annotation": {"number": 64, "value": 0}, "group": "control_change"}, {"time": 4033, "annotation": {"number": 64, "value": 127}, "group": "control_change"}, {"time": 4055, "annotation": {"number": 64, "value": 0}, "group": "control_change"}, {"time": 4057, "annotation": {"number": 64, "value": 127}, "group": "control_change"}, {"time": 4075, "annotation": {"number": 64, "value": 0}, "group": "control_change"}, {"time": 4081, "annotation": {"number": 64, "value": 127}, "group": "control_change"}, {"time": 4102, "annotation": {"number": 64, "value": 0}, "group": "control_change"}, {"time": 4105, "annotation": {"number": 64, "value": 127}, "group": "control_change"}, {"time": 4126, "annotation": {"number": 64, "value": 0}, "group": "control_change"}, {"time": 4129, "annotation": {"number": 64, "value": 127}, "group": "control_change"}, {"time": 4150, "annotation": {"number": 64, "value": 0}, "group": "control_change"}, {"time": 4152, "annotation": {"number": 64, "value": 127}, "group": "control_change"}, {"time": 4175, "annotation": {"number": 64, "value": 0}, "group": "control_change"}, {"time": 4177, "annotation": {"number": 64, "value": 127}, "group": "control_change"}, {"time": 4198, "annotation": {"number": 64, "value": 0}, "group": "control_change"}, {"time": 4200, "annotation": {"number": 64, "value": 127}, "group": "control_change"}, {"time": 4222, "annotation": {"number": 64, "value": 0}, "group": "control_change"}, {"time": 4224, "annotation": {"number": 64, "value": 127}, "group": "control_change"}, {"time": 4226, "annotation": {"number": 64, "value": 127}, "group": "control_change"}, {"time": 4246, "annotation": {"number": 64, "value": 0}, "group": "control_change"}, {"time": 4248, "annotation": {"number": 64, "value": 127}, "group": "control_change"}, {"time": 4270, "annotation": {"number": 64, "value": 0}, "group": "control_change"}, {"time": 4273, "annotation": {"number": 64, "value": 127}, "group": "control_change"}, {"time": 4294, "annotation": {"number": 64, "value": 0}, "group": "control_change"}, {"time": 4297, "annotation": {"number": 64, "value": 127}, "group": "control_change"}, {"time": 4318, "annotation": {"number": 64, "value": 0}, "group": "control_change"}, {"time": 4320, "annotation": {"number": 64, "value": 127}, "group": "control_change"}, {"time": 4343, "annotation": {"number": 64, "value": 0}, "group": "control_change"}, {"time": 4344, "annotation": {"number": 64, "value": 127}, "group": "control_change"}, {"time": 4366, "annotation": {"number": 64, "value": 0}, "group": "control_change"}, {"time": 4369, "annotation": {"number": 64, "value": 127}, "group": "control_change"}, {"time": 4390, "annotation": {"number": 64, "value": 0}, "group": "control_change"}, {"time": 4393, "annotation": {"number": 64, "value": 127}, "group": "control_change"}, {"time": 4414, "annotation": {"number": 64, "value": 0}, "group": "control_change"}, {"time": 4417, "annotation": {"number": 64, "value": 127}, "group": "control_change"}, {"time": 4438, "annotation": {"number": 64, "value": 0}, "group": "control_change"}, {"time": 4441, "annotation": {"number": 64, "value": 127}, "group": "control_change"}, {"time": 4460, "annotation": {"number": 64, "value": 0}, "group": "control_change"}, {"time": 4465, "annotation": {"number": 64, "value": 127}, "group": "control_change"}, {"time": 4489, "annotation": {"number": 64, "value": 0}, "group": "control_change"}, {"time": 4545, "annotation": {"number": 64, "value": 127}, "group": "control_change"}, {"time": 4550, "annotation": {"number": 64, "value": 0}, "group": "control_change"}, {"time": 4552, "annotation": {"number": 64, "value": 127}, "group": "control_change"}, {"time": 4553, "annotation": {"number": 64, "value": 0}, "group": "control_change"}]}]}