{"metadata": {"schema_version": "0.2", "title": "None", "source_filename": "726.mid", "source_format": "midi"}, "resolution": 12, "tempos": [{"time": 0, "qpm": 60.0}], "time_signatures": [{"time": 0, "numerator": 1, "denominator": 4}], "tracks": [{"program": 0, "is_drum": false, "name": "MELODY", "notes": [{"time": 220, "pitch": 60, "duration": 1, "velocity": 117}, {"time": 223, "pitch": 60, "duration": 1, "velocity": 93}, {"time": 226, "pitch": 60, "duration": 1, "velocity": 93}, {"time": 229, "pitch": 60, "duration": 1, "velocity": 96}, {"time": 232, "pitch": 60, "duration": 1, "velocity": 93}, {"time": 235, "pitch": 60, "duration": 1, "velocity": 89}, {"time": 238, "pitch": 61, "duration": 2, "velocity": 112}, {"time": 241, "pitch": 60, "duration": 3, "velocity": 77}, {"time": 244, "pitch": 58, "duration": 2, "velocity": 85}, {"time": 247, "pitch": 56, "duration": 1, "velocity": 79}, {"time": 250, "pitch": 58, "duration": 12, "velocity": 93}, {"time": 268, "pitch": 63, "duration": 1, "velocity": 96}, {"time": 271, "pitch": 63, "duration": 1, "velocity": 95}, {"time": 274, "pitch": 63, "duration": 1, "velocity": 95}, {"time": 277, "pitch": 63, "duration": 1, "velocity": 96}, {"time": 280, "pitch": 63, "duration": 1, "velocity": 95}, {"time": 283, "pitch": 63, "duration": 1, "velocity": 97}, {"time": 286, "pitch": 63, "duration": 1, "velocity": 102}, {"time": 289, "pitch": 63, "duration": 2, "velocity": 102}, {"time": 292, "pitch": 55, "duration": 1, "velocity": 93}, {"time": 295, "pitch": 55, "duration": 1, "velocity": 100}, {"time": 298, "pitch": 56, "duration": 11, "velocity": 95}, {"time": 316, "pitch": 63, "duration": 1, "velocity": 127}, {"time": 319, "pitch": 63, "duration": 1, "velocity": 107}, {"time": 322, "pitch": 63, "duration": 1, "velocity": 102}, {"time": 325, "pitch": 63, "duration": 1, "velocity": 102}, {"time": 328, "pitch": 63, "duration": 1, "velocity": 107}, {"time": 331, "pitch": 63, "duration": 1, "velocity": 112}, {"time": 334, "pitch": 63, "duration": 1, "velocity": 97}, {"time": 337, "pitch": 63, "duration": 1, "velocity": 122}, {"time": 340, "pitch": 56, "duration": 1, "velocity": 95}, {"time": 343, "pitch": 60, "duration": 2, "velocity": 97}, {"time": 346, "pitch": 58, "duration": 6, "velocity": 93}, {"time": 352, "pitch": 56, "duration": 1, "velocity": 65}, {"time": 355, "pitch": 58, "duration": 2, "velocity": 100}, {"time": 358, "pitch": 60, "duration": 1, "velocity": 99}, {"time": 364, "pitch": 56, "duration": 1, "velocity": 93}, {"time": 367, "pitch": 58, "duration": 1, "velocity": 93}, {"time": 370, "pitch": 60, "duration": 1, "velocity": 95}, {"time": 376, "pitch": 61, "duration": 5, "velocity": 117}, {"time": 382, "pitch": 60, "duration": 1, "velocity": 76}, {"time": 385, "pitch": 60, "duration": 10, "velocity": 100}, {"time": 412, "pitch": 63, "duration": 1, "velocity": 117}, {"time": 413, "pitch": 63, "duration": 1, "velocity": 88}, {"time": 415, "pitch": 63, "duration": 1, "velocity": 122}, {"time": 418, "pitch": 63, "duration": 1, "velocity": 100}, {"time": 421, "pitch": 63, "duration": 1, "velocity": 100}, {"time": 424, "pitch": 63, "duration": 1, "velocity": 95}, {"time": 427, "pitch": 63, "duration": 1, "velocity": 100}, {"time": 430, "pitch": 63, "duration": 1, "velocity": 102}, {"time": 433, "pitch": 63, "duration": 1, "velocity": 117}, {"time": 436, "pitch": 56, "duration": 1, "velocity": 100}, {"time": 439, "pitch": 60, "duration": 2, "velocity": 90}, {"time": 442, "pitch": 58, "duration": 9, "velocity": 93}, {"time": 460, "pitch": 63, "duration": 1, "velocity": 99}, {"time": 461, "pitch": 63, "duration": 1, "velocity": 82}, {"time": 463, "pitch": 63, "duration": 1, "velocity": 89}, {"time": 466, "pitch": 63, "duration": 1, "velocity": 112}, {"time": 469, "pitch": 63, "duration": 1, "velocity": 100}, {"time": 472, "pitch": 63, "duration": 1, "velocity": 112}, {"time": 475, "pitch": 63, "duration": 1, "velocity": 99}, {"time": 478, "pitch": 63, "duration": 2, "velocity": 117}, {"time": 481, "pitch": 67, "duration": 2, "velocity": 112}, {"time": 484, "pitch": 68, "duration": 2, "velocity": 92}, {"time": 487, "pitch": 67, "duration": 1, "velocity": 112}, {"time": 490, "pitch": 65, "duration": 7, "velocity": 100}, {"time": 496, "pitch": 53, "duration": 2, "velocity": 93}, {"time": 499, "pitch": 55, "duration": 2, "velocity": 95}, {"time": 502, "pitch": 56, "duration": 2, "velocity": 96}, {"time": 508, "pitch": 63, "duration": 1, "velocity": 127}, {"time": 511, "pitch": 63, "duration": 1, "velocity": 100}, {"time": 514, "pitch": 63, "duration": 1, "velocity": 100}, {"time": 517, "pitch": 63, "duration": 1, "velocity": 107}, {"time": 520, "pitch": 63, "duration": 1, "velocity": 100}, {"time": 523, "pitch": 65, "duration": 2, "velocity": 122}, {"time": 526, "pitch": 63, "duration": 3, "velocity": 122}, {"time": 532, "pitch": 63, "duration": 1, "velocity": 127}, {"time": 535, "pitch": 63, "duration": 1, "velocity": 102}, {"time": 538, "pitch": 63, "duration": 1, "velocity": 99}, {"time": 541, "pitch": 63, "duration": 2, "velocity": 127}, {"time": 544, "pitch": 60, "duration": 3, "velocity": 100}, {"time": 547, "pitch": 65, "duration": 2, "velocity": 127}, {"time": 550, "pitch": 63, "duration": 22, "velocity": 127}, {"time": 595, "pitch": 65, "duration": 2, "velocity": 112}, {"time": 598, "pitch": 67, "duration": 2, "velocity": 117}, {"time": 601, "pitch": 68, "duration": 1, "velocity": 100}, {"time": 604, "pitch": 68, "duration": 1, "velocity": 100}, {"time": 607, "pitch": 68, "duration": 1, "velocity": 100}, {"time": 610, "pitch": 68, "duration": 1, "velocity": 107}, {"time": 613, "pitch": 68, "duration": 2, "velocity": 117}, {"time": 616, "pitch": 68, "duration": 1, "velocity": 122}, {"time": 619, "pitch": 68, "duration": 1, "velocity": 100}, {"time": 622, "pitch": 68, "duration": 1, "velocity": 107}, {"time": 625, "pitch": 68, "duration": 1, "velocity": 122}, {"time": 628, "pitch": 67, "duration": 1, "velocity": 127}, {"time": 631, "pitch": 67, "duration": 1, "velocity": 122}, {"time": 634, "pitch": 67, "duration": 3, "velocity": 127}, {"time": 643, "pitch": 63, "duration": 3, "velocity": 100}, {"time": 646, "pitch": 65, "duration": 2, "velocity": 99}, {"time": 649, "pitch": 67, "duration": 1, "velocity": 107}, {"time": 652, "pitch": 67, "duration": 1, "velocity": 112}, {"time": 655, "pitch": 67, "duration": 1, "velocity": 117}, {"time": 658, "pitch": 67, "duration": 1, "velocity": 102}, {"time": 661, "pitch": 67, "duration": 1, "velocity": 127}, {"time": 664, "pitch": 67, "duration": 1, "velocity": 127}, {"time": 667, "pitch": 67, "duration": 1, "velocity": 127}, {"time": 670, "pitch": 68, "duration": 2, "velocity": 117}, {"time": 673, "pitch": 67, "duration": 3, "velocity": 112}, {"time": 679, "pitch": 65, "duration": 2, "velocity": 102}, {"time": 682, "pitch": 65, "duration": 6, "velocity": 107}, {"time": 691, "pitch": 65, "duration": 3, "velocity": 97}, {"time": 694, "pitch": 67, "duration": 1, "velocity": 117}, {"time": 697, "pitch": 68, "duration": 2, "velocity": 97}, {"time": 700, "pitch": 65, "duration": 2, "velocity": 93}, {"time": 703, "pitch": 68, "duration": 1, "velocity": 96}, {"time": 706, "pitch": 65, "duration": 2, "velocity": 102}, {"time": 709, "pitch": 68, "duration": 3, "velocity": 112}, {"time": 718, "pitch": 67, "duration": 6, "velocity": 117}, {"time": 724, "pitch": 63, "duration": 2, "velocity": 89}, {"time": 727, "pitch": 67, "duration": 3, "velocity": 117}, {"time": 730, "pitch": 63, "duration": 3, "velocity": 93}, {"time": 733, "pitch": 67, "duration": 3, "velocity": 117}, {"time": 739, "pitch": 63, "duration": 1, "velocity": 97}, {"time": 742, "pitch": 63, "duration": 1, "velocity": 93}, {"time": 745, "pitch": 68, "duration": 2, "velocity": 107}, {"time": 748, "pitch": 68, "duration": 2, "velocity": 112}, {"time": 754, "pitch": 68, "duration": 1, "velocity": 107}, {"time": 757, "pitch": 68, "duration": 2, "velocity": 112}, {"time": 763, "pitch": 68, "duration": 3, "velocity": 112}, {"time": 766, "pitch": 67, "duration": 13, "velocity": 102}, {"time": 787, "pitch": 65, "duration": 2, "velocity": 107}, {"time": 790, "pitch": 67, "duration": 1, "velocity": 127}, {"time": 793, "pitch": 68, "duration": 1, "velocity": 100}, {"time": 796, "pitch": 68, "duration": 1, "velocity": 107}, {"time": 799, "pitch": 68, "duration": 1, "velocity": 112}, {"time": 802, "pitch": 68, "duration": 1, "velocity": 112}, {"time": 805, "pitch": 68, "duration": 1, "velocity": 127}, {"time": 808, "pitch": 68, "duration": 1, "velocity": 127}, {"time": 811, "pitch": 68, "duration": 1, "velocity": 93}, {"time": 814, "pitch": 68, "duration": 1, "velocity": 102}, {"time": 817, "pitch": 68, "duration": 5, "velocity": 100}, {"time": 823, "pitch": 67, "duration": 1, "velocity": 99}, {"time": 826, "pitch": 67, "duration": 3, "velocity": 122}, {"time": 835, "pitch": 63, "duration": 1, "velocity": 112}, {"time": 838, "pitch": 65, "duration": 1, "velocity": 100}, {"time": 841, "pitch": 67, "duration": 1, "velocity": 122}, {"time": 844, "pitch": 67, "duration": 1, "velocity": 122}, {"time": 847, "pitch": 67, "duration": 1, "velocity": 127}, {"time": 850, "pitch": 67, "duration": 1, "velocity": 122}, {"time": 853, "pitch": 67, "duration": 1, "velocity": 122}, {"time": 856, "pitch": 67, "duration": 1, "velocity": 102}, {"time": 859, "pitch": 67, "duration": 1, "velocity": 122}, {"time": 862, "pitch": 68, "duration": 1, "velocity": 100}, {"time": 865, "pitch": 67, "duration": 2, "velocity": 117}, {"time": 871, "pitch": 65, "duration": 1, "velocity": 102}, {"time": 874, "pitch": 65, "duration": 4, "velocity": 102}, {"time": 883, "pitch": 65, "duration": 1, "velocity": 102}, {"time": 886, "pitch": 67, "duration": 1, "velocity": 117}, {"time": 889, "pitch": 68, "duration": 1, "velocity": 112}, {"time": 892, "pitch": 65, "duration": 1, "velocity": 95}, {"time": 895, "pitch": 68, "duration": 1, "velocity": 107}, {"time": 898, "pitch": 65, "duration": 1, "velocity": 96}, {"time": 901, "pitch": 68, "duration": 3, "velocity": 127}, {"time": 910, "pitch": 67, "duration": 4, "velocity": 117}, {"time": 916, "pitch": 63, "duration": 2, "velocity": 96}, {"time": 919, "pitch": 67, "duration": 2, "velocity": 107}, {"time": 922, "pitch": 63, "duration": 2, "velocity": 93}, {"time": 925, "pitch": 67, "duration": 2, "velocity": 127}, {"time": 931, "pitch": 70, "duration": 1, "velocity": 122}, {"time": 934, "pitch": 70, "duration": 4, "velocity": 100}, {"time": 940, "pitch": 68, "duration": 9, "velocity": 102}, {"time": 1132, "pitch": 60, "duration": 1, "velocity": 117}, {"time": 1135, "pitch": 60, "duration": 1, "velocity": 93}, {"time": 1138, "pitch": 60, "duration": 1, "velocity": 93}, {"time": 1141, "pitch": 60, "duration": 1, "velocity": 96}, {"time": 1144, "pitch": 60, "duration": 1, "velocity": 93}, {"time": 1147, "pitch": 60, "duration": 1, "velocity": 89}, {"time": 1150, "pitch": 61, "duration": 2, "velocity": 112}, {"time": 1153, "pitch": 60, "duration": 3, "velocity": 77}, {"time": 1156, "pitch": 58, "duration": 2, "velocity": 85}, {"time": 1159, "pitch": 56, "duration": 1, "velocity": 79}, {"time": 1162, "pitch": 58, "duration": 12, "velocity": 93}, {"time": 1180, "pitch": 63, "duration": 1, "velocity": 96}, {"time": 1183, "pitch": 63, "duration": 1, "velocity": 95}, {"time": 1186, "pitch": 63, "duration": 1, "velocity": 95}, {"time": 1189, "pitch": 63, "duration": 1, "velocity": 96}, {"time": 1192, "pitch": 63, "duration": 1, "velocity": 95}, {"time": 1195, "pitch": 63, "duration": 1, "velocity": 97}, {"time": 1198, "pitch": 63, "duration": 1, "velocity": 102}, {"time": 1201, "pitch": 63, "duration": 2, "velocity": 102}, {"time": 1204, "pitch": 55, "duration": 1, "velocity": 93}, {"time": 1207, "pitch": 55, "duration": 1, "velocity": 100}, {"time": 1210, "pitch": 56, "duration": 11, "velocity": 95}, {"time": 1228, "pitch": 63, "duration": 1, "velocity": 127}, {"time": 1231, "pitch": 63, "duration": 1, "velocity": 107}, {"time": 1234, "pitch": 63, "duration": 1, "velocity": 102}, {"time": 1237, "pitch": 63, "duration": 1, "velocity": 102}, {"time": 1240, "pitch": 63, "duration": 1, "velocity": 107}, {"time": 1243, "pitch": 63, "duration": 1, "velocity": 112}, {"time": 1246, "pitch": 63, "duration": 1, "velocity": 97}, {"time": 1249, "pitch": 63, "duration": 1, "velocity": 122}, {"time": 1252, "pitch": 56, "duration": 1, "velocity": 95}, {"time": 1255, "pitch": 60, "duration": 2, "velocity": 97}, {"time": 1258, "pitch": 58, "duration": 6, "velocity": 93}, {"time": 1264, "pitch": 56, "duration": 1, "velocity": 65}, {"time": 1267, "pitch": 58, "duration": 2, "velocity": 100}, {"time": 1270, "pitch": 60, "duration": 1, "velocity": 99}, {"time": 1276, "pitch": 56, "duration": 1, "velocity": 93}, {"time": 1279, "pitch": 58, "duration": 1, "velocity": 93}, {"time": 1282, "pitch": 60, "duration": 1, "velocity": 95}, {"time": 1288, "pitch": 61, "duration": 5, "velocity": 117}, {"time": 1294, "pitch": 60, "duration": 1, "velocity": 76}, {"time": 1297, "pitch": 60, "duration": 10, "velocity": 100}, {"time": 1324, "pitch": 63, "duration": 1, "velocity": 117}, {"time": 1325, "pitch": 63, "duration": 1, "velocity": 88}, {"time": 1327, "pitch": 63, "duration": 1, "velocity": 122}, {"time": 1330, "pitch": 63, "duration": 1, "velocity": 100}, {"time": 1333, "pitch": 63, "duration": 1, "velocity": 100}, {"time": 1336, "pitch": 63, "duration": 1, "velocity": 95}, {"time": 1339, "pitch": 63, "duration": 1, "velocity": 100}, {"time": 1342, "pitch": 63, "duration": 1, "velocity": 102}, {"time": 1345, "pitch": 63, "duration": 1, "velocity": 117}, {"time": 1348, "pitch": 56, "duration": 1, "velocity": 100}, {"time": 1351, "pitch": 60, "duration": 2, "velocity": 90}, {"time": 1354, "pitch": 58, "duration": 9, "velocity": 93}, {"time": 1372, "pitch": 63, "duration": 1, "velocity": 99}, {"time": 1373, "pitch": 63, "duration": 1, "velocity": 82}, {"time": 1375, "pitch": 63, "duration": 1, "velocity": 89}, {"time": 1378, "pitch": 63, "duration": 1, "velocity": 112}, {"time": 1381, "pitch": 63, "duration": 1, "velocity": 100}, {"time": 1384, "pitch": 63, "duration": 1, "velocity": 112}, {"time": 1387, "pitch": 63, "duration": 1, "velocity": 99}, {"time": 1390, "pitch": 63, "duration": 2, "velocity": 117}, {"time": 1393, "pitch": 67, "duration": 2, "velocity": 112}, {"time": 1396, "pitch": 68, "duration": 2, "velocity": 92}, {"time": 1399, "pitch": 67, "duration": 1, "velocity": 112}, {"time": 1402, "pitch": 65, "duration": 7, "velocity": 100}, {"time": 1408, "pitch": 53, "duration": 2, "velocity": 93}, {"time": 1411, "pitch": 55, "duration": 2, "velocity": 95}, {"time": 1414, "pitch": 56, "duration": 2, "velocity": 96}, {"time": 1420, "pitch": 63, "duration": 1, "velocity": 127}, {"time": 1423, "pitch": 63, "duration": 1, "velocity": 100}, {"time": 1426, "pitch": 63, "duration": 1, "velocity": 100}, {"time": 1429, "pitch": 63, "duration": 1, "velocity": 107}, {"time": 1432, "pitch": 63, "duration": 1, "velocity": 100}, {"time": 1435, "pitch": 65, "duration": 2, "velocity": 122}, {"time": 1438, "pitch": 63, "duration": 3, "velocity": 122}, {"time": 1444, "pitch": 63, "duration": 1, "velocity": 127}, {"time": 1447, "pitch": 63, "duration": 1, "velocity": 102}, {"time": 1450, "pitch": 63, "duration": 1, "velocity": 99}, {"time": 1453, "pitch": 63, "duration": 2, "velocity": 127}, {"time": 1456, "pitch": 60, "duration": 3, "velocity": 100}, {"time": 1459, "pitch": 65, "duration": 2, "velocity": 127}, {"time": 1462, "pitch": 63, "duration": 22, "velocity": 127}, {"time": 1507, "pitch": 65, "duration": 2, "velocity": 112}, {"time": 1510, "pitch": 67, "duration": 2, "velocity": 117}, {"time": 1513, "pitch": 68, "duration": 1, "velocity": 100}, {"time": 1516, "pitch": 68, "duration": 1, "velocity": 100}, {"time": 1519, "pitch": 68, "duration": 1, "velocity": 100}, {"time": 1522, "pitch": 68, "duration": 1, "velocity": 107}, {"time": 1525, "pitch": 68, "duration": 2, "velocity": 117}, {"time": 1528, "pitch": 68, "duration": 1, "velocity": 122}, {"time": 1531, "pitch": 68, "duration": 1, "velocity": 100}, {"time": 1534, "pitch": 68, "duration": 1, "velocity": 107}, {"time": 1537, "pitch": 68, "duration": 1, "velocity": 122}, {"time": 1540, "pitch": 67, "duration": 1, "velocity": 127}, {"time": 1543, "pitch": 67, "duration": 1, "velocity": 122}, {"time": 1546, "pitch": 67, "duration": 3, "velocity": 127}, {"time": 1555, "pitch": 63, "duration": 3, "velocity": 100}, {"time": 1558, "pitch": 65, "duration": 2, "velocity": 99}, {"time": 1561, "pitch": 67, "duration": 1, "velocity": 107}, {"time": 1564, "pitch": 67, "duration": 1, "velocity": 112}, {"time": 1567, "pitch": 67, "duration": 1, "velocity": 117}, {"time": 1570, "pitch": 67, "duration": 1, "velocity": 102}, {"time": 1573, "pitch": 67, "duration": 1, "velocity": 127}, {"time": 1576, "pitch": 67, "duration": 1, "velocity": 127}, {"time": 1579, "pitch": 67, "duration": 1, "velocity": 127}, {"time": 1582, "pitch": 68, "duration": 2, "velocity": 117}, {"time": 1585, "pitch": 67, "duration": 3, "velocity": 112}, {"time": 1591, "pitch": 65, "duration": 2, "velocity": 102}, {"time": 1594, "pitch": 65, "duration": 6, "velocity": 107}, {"time": 1603, "pitch": 65, "duration": 3, "velocity": 97}, {"time": 1606, "pitch": 67, "duration": 1, "velocity": 117}, {"time": 1609, "pitch": 68, "duration": 2, "velocity": 97}, {"time": 1612, "pitch": 65, "duration": 2, "velocity": 93}, {"time": 1615, "pitch": 68, "duration": 1, "velocity": 96}, {"time": 1618, "pitch": 65, "duration": 2, "velocity": 102}, {"time": 1621, "pitch": 68, "duration": 3, "velocity": 112}, {"time": 1630, "pitch": 67, "duration": 6, "velocity": 117}, {"time": 1636, "pitch": 63, "duration": 2, "velocity": 89}, {"time": 1639, "pitch": 67, "duration": 3, "velocity": 117}, {"time": 1642, "pitch": 63, "duration": 3, "velocity": 93}, {"time": 1645, "pitch": 67, "duration": 3, "velocity": 117}, {"time": 1651, "pitch": 63, "duration": 1, "velocity": 97}, {"time": 1654, "pitch": 63, "duration": 1, "velocity": 93}, {"time": 1657, "pitch": 68, "duration": 2, "velocity": 107}, {"time": 1660, "pitch": 68, "duration": 2, "velocity": 112}, {"time": 1666, "pitch": 68, "duration": 1, "velocity": 107}, {"time": 1669, "pitch": 68, "duration": 2, "velocity": 112}, {"time": 1675, "pitch": 68, "duration": 3, "velocity": 112}, {"time": 1678, "pitch": 67, "duration": 13, "velocity": 102}, {"time": 1699, "pitch": 65, "duration": 2, "velocity": 107}, {"time": 1702, "pitch": 67, "duration": 1, "velocity": 127}, {"time": 1705, "pitch": 68, "duration": 1, "velocity": 100}, {"time": 1708, "pitch": 68, "duration": 1, "velocity": 107}, {"time": 1711, "pitch": 68, "duration": 1, "velocity": 112}, {"time": 1714, "pitch": 68, "duration": 1, "velocity": 112}, {"time": 1717, "pitch": 68, "duration": 1, "velocity": 127}, {"time": 1720, "pitch": 68, "duration": 1, "velocity": 127}, {"time": 1723, "pitch": 68, "duration": 1, "velocity": 93}, {"time": 1726, "pitch": 68, "duration": 1, "velocity": 102}, {"time": 1729, "pitch": 68, "duration": 5, "velocity": 100}, {"time": 1735, "pitch": 67, "duration": 1, "velocity": 99}, {"time": 1738, "pitch": 67, "duration": 3, "velocity": 122}, {"time": 1747, "pitch": 63, "duration": 1, "velocity": 112}, {"time": 1750, "pitch": 65, "duration": 1, "velocity": 100}, {"time": 1753, "pitch": 67, "duration": 1, "velocity": 122}, {"time": 1756, "pitch": 67, "duration": 1, "velocity": 122}, {"time": 1759, "pitch": 67, "duration": 1, "velocity": 127}, {"time": 1762, "pitch": 67, "duration": 1, "velocity": 122}, {"time": 1765, "pitch": 67, "duration": 1, "velocity": 122}, {"time": 1768, "pitch": 67, "duration": 1, "velocity": 102}, {"time": 1771, "pitch": 67, "duration": 1, "velocity": 122}, {"time": 1774, "pitch": 68, "duration": 1, "velocity": 100}, {"time": 1777, "pitch": 67, "duration": 2, "velocity": 117}, {"time": 1783, "pitch": 65, "duration": 1, "velocity": 102}, {"time": 1786, "pitch": 65, "duration": 4, "velocity": 102}, {"time": 1795, "pitch": 65, "duration": 1, "velocity": 102}, {"time": 1798, "pitch": 67, "duration": 1, "velocity": 117}, {"time": 1801, "pitch": 68, "duration": 1, "velocity": 112}, {"time": 1804, "pitch": 65, "duration": 1, "velocity": 95}, {"time": 1807, "pitch": 68, "duration": 1, "velocity": 107}, {"time": 1810, "pitch": 65, "duration": 1, "velocity": 96}, {"time": 1813, "pitch": 68, "duration": 3, "velocity": 127}, {"time": 1822, "pitch": 67, "duration": 4, "velocity": 117}, {"time": 1828, "pitch": 63, "duration": 2, "velocity": 96}, {"time": 1831, "pitch": 67, "duration": 2, "velocity": 107}, {"time": 1834, "pitch": 63, "duration": 2, "velocity": 93}, {"time": 1837, "pitch": 67, "duration": 2, "velocity": 127}, {"time": 1843, "pitch": 70, "duration": 1, "velocity": 122}, {"time": 1846, "pitch": 70, "duration": 4, "velocity": 100}, {"time": 1852, "pitch": 68, "duration": 9, "velocity": 102}, {"time": 1891, "pitch": 65, "duration": 2, "velocity": 112}, {"time": 1894, "pitch": 67, "duration": 2, "velocity": 117}, {"time": 1897, "pitch": 68, "duration": 1, "velocity": 100}, {"time": 1900, "pitch": 68, "duration": 1, "velocity": 100}, {"time": 1903, "pitch": 68, "duration": 1, "velocity": 100}, {"time": 1906, "pitch": 68, "duration": 1, "velocity": 107}, {"time": 1909, "pitch": 68, "duration": 2, "velocity": 117}, {"time": 1912, "pitch": 68, "duration": 1, "velocity": 122}, {"time": 1915, "pitch": 68, "duration": 1, "velocity": 100}, {"time": 1918, "pitch": 68, "duration": 1, "velocity": 107}, {"time": 1921, "pitch": 68, "duration": 1, "velocity": 122}, {"time": 1924, "pitch": 67, "duration": 1, "velocity": 127}, {"time": 1927, "pitch": 67, "duration": 1, "velocity": 122}, {"time": 1930, "pitch": 67, "duration": 3, "velocity": 127}, {"time": 1939, "pitch": 63, "duration": 3, "velocity": 100}, {"time": 1942, "pitch": 65, "duration": 2, "velocity": 99}, {"time": 1945, "pitch": 67, "duration": 1, "velocity": 107}, {"time": 1948, "pitch": 67, "duration": 1, "velocity": 112}, {"time": 1951, "pitch": 67, "duration": 1, "velocity": 117}, {"time": 1954, "pitch": 67, "duration": 1, "velocity": 102}, {"time": 1957, "pitch": 67, "duration": 1, "velocity": 127}, {"time": 1960, "pitch": 67, "duration": 1, "velocity": 127}, {"time": 1963, "pitch": 67, "duration": 1, "velocity": 127}, {"time": 1966, "pitch": 68, "duration": 2, "velocity": 117}, {"time": 1969, "pitch": 67, "duration": 3, "velocity": 112}, {"time": 1975, "pitch": 65, "duration": 2, "velocity": 102}, {"time": 1978, "pitch": 65, "duration": 6, "velocity": 107}, {"time": 1987, "pitch": 65, "duration": 3, "velocity": 97}, {"time": 1990, "pitch": 67, "duration": 1, "velocity": 117}, {"time": 1993, "pitch": 68, "duration": 2, "velocity": 97}, {"time": 1996, "pitch": 65, "duration": 2, "velocity": 93}, {"time": 1999, "pitch": 68, "duration": 1, "velocity": 96}, {"time": 2002, "pitch": 65, "duration": 2, "velocity": 102}, {"time": 2005, "pitch": 68, "duration": 3, "velocity": 112}, {"time": 2014, "pitch": 67, "duration": 6, "velocity": 117}, {"time": 2020, "pitch": 63, "duration": 2, "velocity": 89}, {"time": 2023, "pitch": 67, "duration": 3, "velocity": 117}, {"time": 2026, "pitch": 63, "duration": 3, "velocity": 93}, {"time": 2029, "pitch": 67, "duration": 3, "velocity": 117}, {"time": 2035, "pitch": 63, "duration": 1, "velocity": 97}, {"time": 2038, "pitch": 63, "duration": 1, "velocity": 93}, {"time": 2041, "pitch": 68, "duration": 2, "velocity": 107}, {"time": 2044, "pitch": 68, "duration": 2, "velocity": 112}, {"time": 2050, "pitch": 68, "duration": 1, "velocity": 107}, {"time": 2053, "pitch": 68, "duration": 2, "velocity": 112}, {"time": 2059, "pitch": 68, "duration": 3, "velocity": 112}, {"time": 2062, "pitch": 67, "duration": 13, "velocity": 102}, {"time": 2083, "pitch": 65, "duration": 2, "velocity": 107}, {"time": 2086, "pitch": 67, "duration": 1, "velocity": 127}, {"time": 2089, "pitch": 68, "duration": 1, "velocity": 100}, {"time": 2092, "pitch": 68, "duration": 1, "velocity": 107}, {"time": 2095, "pitch": 68, "duration": 1, "velocity": 112}, {"time": 2098, "pitch": 68, "duration": 1, "velocity": 112}, {"time": 2101, "pitch": 68, "duration": 1, "velocity": 127}, {"time": 2104, "pitch": 68, "duration": 1, "velocity": 127}, {"time": 2107, "pitch": 68, "duration": 1, "velocity": 93}, {"time": 2110, "pitch": 68, "duration": 1, "velocity": 102}, {"time": 2113, "pitch": 68, "duration": 5, "velocity": 100}, {"time": 2119, "pitch": 67, "duration": 1, "velocity": 99}, {"time": 2122, "pitch": 67, "duration": 3, "velocity": 122}, {"time": 2131, "pitch": 63, "duration": 1, "velocity": 112}, {"time": 2134, "pitch": 65, "duration": 1, "velocity": 100}, {"time": 2137, "pitch": 67, "duration": 1, "velocity": 122}, {"time": 2140, "pitch": 67, "duration": 1, "velocity": 122}, {"time": 2143, "pitch": 67, "duration": 1, "velocity": 127}, {"time": 2146, "pitch": 67, "duration": 1, "velocity": 122}, {"time": 2149, "pitch": 67, "duration": 1, "velocity": 122}, {"time": 2152, "pitch": 67, "duration": 1, "velocity": 102}, {"time": 2155, "pitch": 67, "duration": 1, "velocity": 122}, {"time": 2158, "pitch": 68, "duration": 1, "velocity": 100}, {"time": 2161, "pitch": 67, "duration": 2, "velocity": 117}, {"time": 2167, "pitch": 65, "duration": 1, "velocity": 102}, {"time": 2170, "pitch": 65, "duration": 4, "velocity": 102}, {"time": 2179, "pitch": 65, "duration": 1, "velocity": 102}, {"time": 2182, "pitch": 67, "duration": 1, "velocity": 117}, {"time": 2185, "pitch": 68, "duration": 1, "velocity": 112}, {"time": 2188, "pitch": 65, "duration": 1, "velocity": 95}, {"time": 2191, "pitch": 68, "duration": 1, "velocity": 107}, {"time": 2194, "pitch": 65, "duration": 1, "velocity": 96}, {"time": 2197, "pitch": 68, "duration": 3, "velocity": 127}, {"time": 2206, "pitch": 67, "duration": 4, "velocity": 117}, {"time": 2212, "pitch": 63, "duration": 2, "velocity": 96}, {"time": 2215, "pitch": 67, "duration": 2, "velocity": 107}, {"time": 2218, "pitch": 63, "duration": 2, "velocity": 93}, {"time": 2221, "pitch": 67, "duration": 2, "velocity": 127}, {"time": 2227, "pitch": 70, "duration": 1, "velocity": 122}, {"time": 2230, "pitch": 70, "duration": 4, "velocity": 100}, {"time": 2236, "pitch": 68, "duration": 9, "velocity": 102}]}, {"program": 0, "is_drum": false, "name": "BRIDGE", "notes": [{"time": 16, "pitch": 63, "duration": 3, "velocity": 102}, {"time": 19, "pitch": 68, "duration": 3, "velocity": 99}, {"time": 22, "pitch": 70, "duration": 3, "velocity": 99}, {"time": 25, "pitch": 72, "duration": 8, "velocity": 117}, {"time": 31, "pitch": 73, "duration": 3, "velocity": 127}, {"time": 34, "pitch": 72, "duration": 5, "velocity": 93}, {"time": 40, "pitch": 68, "duration": 8, "velocity": 112}, {"time": 49, "pitch": 75, "duration": 10, "velocity": 127}, {"time": 64, "pitch": 73, "duration": 3, "velocity": 127}, {"time": 67, "pitch": 72, "duration": 3, "velocity": 89}, {"time": 70, "pitch": 68, "duration": 3, "velocity": 97}, {"time": 73, "pitch": 72, "duration": 6, "velocity": 107}, {"time": 79, "pitch": 73, "duration": 2, "velocity": 107}, {"time": 82, "pitch": 72, "duration": 6, "velocity": 102}, {"time": 88, "pitch": 68, "duration": 8, "velocity": 102}, {"time": 97, "pitch": 75, "duration": 11, "velocity": 122}, {"time": 112, "pitch": 72, "duration": 3, "velocity": 102}, {"time": 115, "pitch": 73, "duration": 3, "velocity": 99}, {"time": 118, "pitch": 75, "duration": 3, "velocity": 97}, {"time": 121, "pitch": 73, "duration": 6, "velocity": 107}, {"time": 127, "pitch": 72, "duration": 2, "velocity": 117}, {"time": 130, "pitch": 68, "duration": 5, "velocity": 99}, {"time": 136, "pitch": 65, "duration": 8, "velocity": 117}, {"time": 145, "pitch": 64, "duration": 5, "velocity": 122}, {"time": 151, "pitch": 61, "duration": 3, "velocity": 100}, {"time": 154, "pitch": 73, "duration": 8, "velocity": 99}, {"time": 160, "pitch": 72, "duration": 3, "velocity": 112}, {"time": 163, "pitch": 70, "duration": 2, "velocity": 89}, {"time": 166, "pitch": 68, "duration": 3, "velocity": 92}, {"time": 169, "pitch": 67, "duration": 7, "velocity": 112}, {"time": 175, "pitch": 68, "duration": 2, "velocity": 102}, {"time": 178, "pitch": 67, "duration": 8, "velocity": 100}, {"time": 184, "pitch": 64, "duration": 5, "velocity": 122}, {"time": 190, "pitch": 61, "duration": 3, "velocity": 82}, {"time": 193, "pitch": 63, "duration": 19, "velocity": 100}, {"time": 388, "pitch": 75, "duration": 1, "velocity": 95}, {"time": 389, "pitch": 77, "duration": 2, "velocity": 76}, {"time": 391, "pitch": 75, "duration": 2, "velocity": 99}, {"time": 394, "pitch": 70, "duration": 1, "velocity": 97}, {"time": 395, "pitch": 72, "duration": 2, "velocity": 77}, {"time": 397, "pitch": 70, "duration": 3, "velocity": 96}, {"time": 400, "pitch": 68, "duration": 2, "velocity": 100}, {"time": 403, "pitch": 68, "duration": 3, "velocity": 100}, {"time": 406, "pitch": 65, "duration": 10, "velocity": 96}, {"time": 544, "pitch": 70, "duration": 6, "velocity": 127}, {"time": 550, "pitch": 68, "duration": 17, "velocity": 95}, {"time": 577, "pitch": 60, "duration": 1, "velocity": 107}, {"time": 581, "pitch": 58, "duration": 1, "velocity": 107}, {"time": 586, "pitch": 56, "duration": 1, "velocity": 96}, {"time": 589, "pitch": 54, "duration": 11, "velocity": 97}, {"time": 772, "pitch": 65, "duration": 2, "velocity": 81}, {"time": 773, "pitch": 68, "duration": 2, "velocity": 82}, {"time": 775, "pitch": 76, "duration": 3, "velocity": 107}, {"time": 778, "pitch": 70, "duration": 1, "velocity": 93}, {"time": 779, "pitch": 72, "duration": 2, "velocity": 82}, {"time": 781, "pitch": 70, "duration": 4, "velocity": 93}, {"time": 784, "pitch": 68, "duration": 1, "velocity": 99}, {"time": 785, "pitch": 70, "duration": 2, "velocity": 88}, {"time": 787, "pitch": 68, "duration": 2, "velocity": 102}, {"time": 790, "pitch": 65, "duration": 10, "velocity": 74}, {"time": 937, "pitch": 72, "duration": 8, "velocity": 117}, {"time": 943, "pitch": 73, "duration": 3, "velocity": 127}, {"time": 946, "pitch": 72, "duration": 5, "velocity": 93}, {"time": 952, "pitch": 68, "duration": 8, "velocity": 112}, {"time": 961, "pitch": 75, "duration": 10, "velocity": 127}, {"time": 976, "pitch": 73, "duration": 3, "velocity": 127}, {"time": 979, "pitch": 72, "duration": 3, "velocity": 89}, {"time": 982, "pitch": 68, "duration": 3, "velocity": 97}, {"time": 985, "pitch": 72, "duration": 6, "velocity": 107}, {"time": 991, "pitch": 73, "duration": 2, "velocity": 107}, {"time": 994, "pitch": 72, "duration": 6, "velocity": 102}, {"time": 1000, "pitch": 68, "duration": 8, "velocity": 102}, {"time": 1009, "pitch": 75, "duration": 11, "velocity": 122}, {"time": 1024, "pitch": 72, "duration": 3, "velocity": 102}, {"time": 1027, "pitch": 73, "duration": 3, "velocity": 99}, {"time": 1030, "pitch": 75, "duration": 3, "velocity": 97}, {"time": 1033, "pitch": 73, "duration": 6, "velocity": 107}, {"time": 1039, "pitch": 72, "duration": 2, "velocity": 117}, {"time": 1042, "pitch": 68, "duration": 5, "velocity": 99}, {"time": 1048, "pitch": 65, "duration": 8, "velocity": 117}, {"time": 1057, "pitch": 64, "duration": 5, "velocity": 122}, {"time": 1063, "pitch": 61, "duration": 3, "velocity": 100}, {"time": 1066, "pitch": 73, "duration": 8, "velocity": 99}, {"time": 1072, "pitch": 72, "duration": 3, "velocity": 112}, {"time": 1075, "pitch": 70, "duration": 2, "velocity": 89}, {"time": 1078, "pitch": 68, "duration": 3, "velocity": 92}, {"time": 1081, "pitch": 67, "duration": 7, "velocity": 112}, {"time": 1087, "pitch": 68, "duration": 2, "velocity": 102}, {"time": 1090, "pitch": 67, "duration": 8, "velocity": 100}, {"time": 1096, "pitch": 64, "duration": 5, "velocity": 122}, {"time": 1102, "pitch": 61, "duration": 3, "velocity": 82}, {"time": 1105, "pitch": 63, "duration": 19, "velocity": 100}, {"time": 1300, "pitch": 75, "duration": 1, "velocity": 95}, {"time": 1301, "pitch": 77, "duration": 2, "velocity": 76}, {"time": 1303, "pitch": 75, "duration": 2, "velocity": 99}, {"time": 1306, "pitch": 70, "duration": 1, "velocity": 97}, {"time": 1307, "pitch": 72, "duration": 2, "velocity": 77}, {"time": 1309, "pitch": 70, "duration": 3, "velocity": 96}, {"time": 1312, "pitch": 68, "duration": 2, "velocity": 100}, {"time": 1315, "pitch": 68, "duration": 3, "velocity": 100}, {"time": 1318, "pitch": 65, "duration": 10, "velocity": 96}, {"time": 1456, "pitch": 70, "duration": 6, "velocity": 127}, {"time": 1462, "pitch": 68, "duration": 17, "velocity": 95}, {"time": 1489, "pitch": 60, "duration": 1, "velocity": 107}, {"time": 1493, "pitch": 58, "duration": 1, "velocity": 107}, {"time": 1498, "pitch": 56, "duration": 1, "velocity": 96}, {"time": 1501, "pitch": 54, "duration": 11, "velocity": 97}, {"time": 1684, "pitch": 65, "duration": 2, "velocity": 81}, {"time": 1685, "pitch": 68, "duration": 2, "velocity": 82}, {"time": 1687, "pitch": 76, "duration": 3, "velocity": 107}, {"time": 1690, "pitch": 70, "duration": 1, "velocity": 93}, {"time": 1691, "pitch": 72, "duration": 2, "velocity": 82}, {"time": 1693, "pitch": 70, "duration": 4, "velocity": 93}, {"time": 1696, "pitch": 68, "duration": 1, "velocity": 99}, {"time": 1697, "pitch": 70, "duration": 2, "velocity": 88}, {"time": 1699, "pitch": 68, "duration": 2, "velocity": 102}, {"time": 1702, "pitch": 65, "duration": 10, "velocity": 74}, {"time": 1945, "pitch": 87, "duration": 3, "velocity": 110}, {"time": 1948, "pitch": 84, "duration": 3, "velocity": 108}, {"time": 1951, "pitch": 79, "duration": 3, "velocity": 105}, {"time": 1953, "pitch": 75, "duration": 4, "velocity": 102}, {"time": 1957, "pitch": 79, "duration": 3, "velocity": 99}, {"time": 1960, "pitch": 75, "duration": 3, "velocity": 97}, {"time": 1962, "pitch": 72, "duration": 2, "velocity": 95}, {"time": 1965, "pitch": 67, "duration": 4, "velocity": 92}, {"time": 1968, "pitch": 72, "duration": 4, "velocity": 89}, {"time": 1971, "pitch": 68, "duration": 4, "velocity": 86}, {"time": 1974, "pitch": 65, "duration": 4, "velocity": 83}, {"time": 1977, "pitch": 60, "duration": 3, "velocity": 82}, {"time": 2068, "pitch": 65, "duration": 2, "velocity": 81}, {"time": 2069, "pitch": 68, "duration": 2, "velocity": 82}, {"time": 2071, "pitch": 76, "duration": 3, "velocity": 107}, {"time": 2074, "pitch": 70, "duration": 1, "velocity": 93}, {"time": 2075, "pitch": 72, "duration": 2, "velocity": 82}, {"time": 2077, "pitch": 70, "duration": 4, "velocity": 93}, {"time": 2080, "pitch": 68, "duration": 1, "velocity": 99}, {"time": 2081, "pitch": 70, "duration": 2, "velocity": 88}, {"time": 2083, "pitch": 68, "duration": 2, "velocity": 102}, {"time": 2086, "pitch": 65, "duration": 10, "velocity": 74}, {"time": 2233, "pitch": 72, "duration": 8, "velocity": 117}, {"time": 2239, "pitch": 73, "duration": 3, "velocity": 127}, {"time": 2242, "pitch": 72, "duration": 5, "velocity": 93}, {"time": 2248, "pitch": 68, "duration": 8, "velocity": 112}, {"time": 2257, "pitch": 75, "duration": 10, "velocity": 127}, {"time": 2272, "pitch": 73, "duration": 3, "velocity": 127}, {"time": 2275, "pitch": 72, "duration": 3, "velocity": 89}, {"time": 2278, "pitch": 68, "duration": 3, "velocity": 97}, {"time": 2281, "pitch": 72, "duration": 6, "velocity": 107}, {"time": 2287, "pitch": 73, "duration": 2, "velocity": 107}, {"time": 2290, "pitch": 72, "duration": 6, "velocity": 102}, {"time": 2296, "pitch": 68, "duration": 8, "velocity": 102}, {"time": 2305, "pitch": 75, "duration": 11, "velocity": 122}, {"time": 2320, "pitch": 72, "duration": 3, "velocity": 102}, {"time": 2323, "pitch": 73, "duration": 3, "velocity": 99}, {"time": 2326, "pitch": 75, "duration": 3, "velocity": 97}, {"time": 2329, "pitch": 73, "duration": 6, "velocity": 107}, {"time": 2335, "pitch": 72, "duration": 2, "velocity": 117}, {"time": 2338, "pitch": 68, "duration": 5, "velocity": 99}, {"time": 2344, "pitch": 65, "duration": 8, "velocity": 117}, {"time": 2353, "pitch": 64, "duration": 5, "velocity": 122}, {"time": 2359, "pitch": 61, "duration": 3, "velocity": 100}, {"time": 2362, "pitch": 73, "duration": 8, "velocity": 99}, {"time": 2368, "pitch": 72, "duration": 3, "velocity": 112}, {"time": 2371, "pitch": 70, "duration": 2, "velocity": 89}, {"time": 2374, "pitch": 68, "duration": 3, "velocity": 92}, {"time": 2377, "pitch": 67, "duration": 7, "velocity": 112}, {"time": 2383, "pitch": 68, "duration": 2, "velocity": 102}, {"time": 2386, "pitch": 67, "duration": 8, "velocity": 100}, {"time": 2392, "pitch": 64, "duration": 5, "velocity": 122}, {"time": 2398, "pitch": 61, "duration": 3, "velocity": 82}, {"time": 2401, "pitch": 63, "duration": 19, "velocity": 100}]}, {"program": 0, "is_drum": false, "name": "PIANO", "notes": [{"time": 25, "pitch": 44, "duration": 17, "velocity": 82}, {"time": 28, "pitch": 51, "duration": 10, "velocity": 66}, {"time": 31, "pitch": 56, "duration": 4, "velocity": 76}, {"time": 34, "pitch": 68, "duration": 15, "velocity": 97}, {"time": 40, "pitch": 51, "duration": 2, "velocity": 47}, {"time": 46, "pitch": 63, "duration": 4, "velocity": 72}, {"time": 49, "pitch": 43, "duration": 17, "velocity": 77}, {"time": 52, "pitch": 55, "duration": 7, "velocity": 82}, {"time": 55, "pitch": 60, "duration": 7, "velocity": 73}, {"time": 58, "pitch": 67, "duration": 11, "velocity": 112}, {"time": 64, "pitch": 55, "duration": 2, "velocity": 61}, {"time": 67, "pitch": 63, "duration": 5, "velocity": 97}, {"time": 70, "pitch": 60, "duration": 6, "velocity": 79}, {"time": 73, "pitch": 41, "duration": 17, "velocity": 64}, {"time": 76, "pitch": 48, "duration": 15, "velocity": 52}, {"time": 79, "pitch": 53, "duration": 7, "velocity": 90}, {"time": 82, "pitch": 68, "duration": 15, "velocity": 97}, {"time": 85, "pitch": 65, "duration": 7, "velocity": 74}, {"time": 88, "pitch": 53, "duration": 6, "velocity": 73}, {"time": 91, "pitch": 60, "duration": 6, "velocity": 75}, {"time": 94, "pitch": 65, "duration": 3, "velocity": 67}, {"time": 97, "pitch": 48, "duration": 17, "velocity": 71}, {"time": 100, "pitch": 55, "duration": 11, "velocity": 70}, {"time": 103, "pitch": 60, "duration": 5, "velocity": 70}, {"time": 106, "pitch": 67, "duration": 14, "velocity": 107}, {"time": 112, "pitch": 55, "duration": 2, "velocity": 53}, {"time": 115, "pitch": 63, "duration": 5, "velocity": 99}, {"time": 118, "pitch": 60, "duration": 3, "velocity": 72}, {"time": 121, "pitch": 37, "duration": 22, "velocity": 77}, {"time": 124, "pitch": 44, "duration": 21, "velocity": 48}, {"time": 127, "pitch": 49, "duration": 7, "velocity": 82}, {"time": 130, "pitch": 65, "duration": 10, "velocity": 99}, {"time": 136, "pitch": 49, "duration": 3, "velocity": 46}, {"time": 139, "pitch": 61, "duration": 4, "velocity": 83}, {"time": 142, "pitch": 56, "duration": 10, "velocity": 25}, {"time": 145, "pitch": 37, "duration": 21, "velocity": 74}, {"time": 145, "pitch": 64, "duration": 8, "velocity": 90}, {"time": 148, "pitch": 44, "duration": 20, "velocity": 50}, {"time": 151, "pitch": 49, "duration": 6, "velocity": 81}, {"time": 154, "pitch": 56, "duration": 1, "velocity": 47}, {"time": 154, "pitch": 61, "duration": 15, "velocity": 72}, {"time": 154, "pitch": 64, "duration": 15, "velocity": 72}, {"time": 160, "pitch": 49, "duration": 2, "velocity": 69}, {"time": 163, "pitch": 56, "duration": 6, "velocity": 82}, {"time": 169, "pitch": 39, "duration": 22, "velocity": 72}, {"time": 172, "pitch": 46, "duration": 38, "velocity": 66}, {"time": 175, "pitch": 51, "duration": 7, "velocity": 77}, {"time": 178, "pitch": 55, "duration": 9, "velocity": 73}, {"time": 184, "pitch": 51, "duration": 3, "velocity": 55}, {"time": 187, "pitch": 58, "duration": 5, "velocity": 82}, {"time": 193, "pitch": 39, "duration": 18, "velocity": 38}, {"time": 193, "pitch": 51, "duration": 16, "velocity": 79}, {"time": 193, "pitch": 58, "duration": 23, "velocity": 69}, {"time": 193, "pitch": 63, "duration": 23, "velocity": 74}, {"time": 193, "pitch": 67, "duration": 23, "velocity": 76}, {"time": 217, "pitch": 37, "duration": 19, "velocity": 85}, {"time": 223, "pitch": 44, "duration": 17, "velocity": 43}, {"time": 229, "pitch": 49, "duration": 5, "velocity": 58}, {"time": 229, "pitch": 65, "duration": 14, "velocity": 85}, {"time": 235, "pitch": 61, "duration": 7, "velocity": 86}, {"time": 238, "pitch": 42, "duration": 1, "velocity": 27}, {"time": 241, "pitch": 39, "duration": 17, "velocity": 75}, {"time": 247, "pitch": 46, "duration": 11, "velocity": 41}, {"time": 253, "pitch": 51, "duration": 7, "velocity": 57}, {"time": 253, "pitch": 67, "duration": 13, "velocity": 107}, {"time": 259, "pitch": 63, "duration": 6, "velocity": 56}, {"time": 262, "pitch": 58, "duration": 3, "velocity": 59}, {"time": 265, "pitch": 48, "duration": 17, "velocity": 81}, {"time": 271, "pitch": 55, "duration": 8, "velocity": 88}, {"time": 277, "pitch": 67, "duration": 12, "velocity": 100}, {"time": 283, "pitch": 63, "duration": 6, "velocity": 89}, {"time": 289, "pitch": 41, "duration": 19, "velocity": 78}, {"time": 295, "pitch": 48, "duration": 12, "velocity": 66}, {"time": 301, "pitch": 53, "duration": 5, "velocity": 67}, {"time": 301, "pitch": 68, "duration": 12, "velocity": 100}, {"time": 304, "pitch": 65, "duration": 9, "velocity": 72}, {"time": 307, "pitch": 60, "duration": 6, "velocity": 71}, {"time": 313, "pitch": 37, "duration": 20, "velocity": 88}, {"time": 319, "pitch": 44, "duration": 17, "velocity": 36}, {"time": 325, "pitch": 49, "duration": 4, "velocity": 65}, {"time": 325, "pitch": 65, "duration": 13, "velocity": 90}, {"time": 331, "pitch": 61, "duration": 6, "velocity": 88}, {"time": 337, "pitch": 39, "duration": 17, "velocity": 82}, {"time": 343, "pitch": 46, "duration": 11, "velocity": 55}, {"time": 349, "pitch": 51, "duration": 8, "velocity": 60}, {"time": 349, "pitch": 67, "duration": 12, "velocity": 100}, {"time": 355, "pitch": 63, "duration": 5, "velocity": 76}, {"time": 361, "pitch": 44, "duration": 21, "velocity": 86}, {"time": 367, "pitch": 51, "duration": 17, "velocity": 43}, {"time": 373, "pitch": 56, "duration": 3, "velocity": 69}, {"time": 373, "pitch": 63, "duration": 12, "velocity": 93}, {"time": 379, "pitch": 60, "duration": 6, "velocity": 63}, {"time": 382, "pitch": 56, "duration": 3, "velocity": 67}, {"time": 385, "pitch": 44, "duration": 18, "velocity": 78}, {"time": 391, "pitch": 51, "duration": 11, "velocity": 53}, {"time": 394, "pitch": 56, "duration": 4, "velocity": 75}, {"time": 397, "pitch": 63, "duration": 11, "velocity": 99}, {"time": 400, "pitch": 56, "duration": 1, "velocity": 88}, {"time": 403, "pitch": 60, "duration": 6, "velocity": 95}, {"time": 409, "pitch": 37, "duration": 20, "velocity": 93}, {"time": 415, "pitch": 44, "duration": 17, "velocity": 39}, {"time": 421, "pitch": 49, "duration": 3, "velocity": 69}, {"time": 421, "pitch": 65, "duration": 12, "velocity": 97}, {"time": 427, "pitch": 61, "duration": 5, "velocity": 69}, {"time": 433, "pitch": 39, "duration": 17, "velocity": 66}, {"time": 439, "pitch": 46, "duration": 11, "velocity": 41}, {"time": 445, "pitch": 51, "duration": 6, "velocity": 70}, {"time": 445, "pitch": 67, "duration": 14, "velocity": 100}, {"time": 451, "pitch": 63, "duration": 7, "velocity": 78}, {"time": 457, "pitch": 48, "duration": 18, "velocity": 77}, {"time": 463, "pitch": 55, "duration": 10, "velocity": 73}, {"time": 469, "pitch": 67, "duration": 12, "velocity": 99}, {"time": 475, "pitch": 63, "duration": 6, "velocity": 76}, {"time": 478, "pitch": 60, "duration": 1, "velocity": 56}, {"time": 481, "pitch": 41, "duration": 18, "velocity": 77}, {"time": 487, "pitch": 48, "duration": 11, "velocity": 35}, {"time": 493, "pitch": 53, "duration": 4, "velocity": 76}, {"time": 493, "pitch": 68, "duration": 12, "velocity": 95}, {"time": 496, "pitch": 65, "duration": 9, "velocity": 77}, {"time": 499, "pitch": 60, "duration": 6, "velocity": 92}, {"time": 505, "pitch": 37, "duration": 20, "velocity": 86}, {"time": 511, "pitch": 44, "duration": 16, "velocity": 49}, {"time": 517, "pitch": 49, "duration": 4, "velocity": 63}, {"time": 517, "pitch": 65, "duration": 13, "velocity": 95}, {"time": 523, "pitch": 61, "duration": 6, "velocity": 77}, {"time": 526, "pitch": 56, "duration": 4, "velocity": 82}, {"time": 529, "pitch": 39, "duration": 18, "velocity": 58}, {"time": 535, "pitch": 46, "duration": 11, "velocity": 40}, {"time": 541, "pitch": 51, "duration": 4, "velocity": 68}, {"time": 541, "pitch": 67, "duration": 13, "velocity": 112}, {"time": 544, "pitch": 63, "duration": 10, "velocity": 81}, {"time": 547, "pitch": 58, "duration": 7, "velocity": 97}, {"time": 553, "pitch": 44, "duration": 22, "velocity": 79}, {"time": 556, "pitch": 51, "duration": 9, "velocity": 71}, {"time": 559, "pitch": 56, "duration": 4, "velocity": 89}, {"time": 562, "pitch": 63, "duration": 13, "velocity": 102}, {"time": 568, "pitch": 51, "duration": 7, "velocity": 72}, {"time": 571, "pitch": 60, "duration": 4, "velocity": 93}, {"time": 574, "pitch": 56, "duration": 1, "velocity": 61}, {"time": 577, "pitch": 44, "duration": 1, "velocity": 92}, {"time": 577, "pitch": 56, "duration": 1, "velocity": 81}, {"time": 577, "pitch": 60, "duration": 1, "velocity": 93}, {"time": 577, "pitch": 63, "duration": 1, "velocity": 85}, {"time": 581, "pitch": 44, "duration": 1, "velocity": 78}, {"time": 581, "pitch": 56, "duration": 1, "velocity": 76}, {"time": 581, "pitch": 60, "duration": 1, "velocity": 83}, {"time": 581, "pitch": 63, "duration": 1, "velocity": 81}, {"time": 586, "pitch": 44, "duration": 1, "velocity": 88}, {"time": 586, "pitch": 56, "duration": 1, "velocity": 77}, {"time": 586, "pitch": 60, "duration": 1, "velocity": 74}, {"time": 586, "pitch": 63, "duration": 1, "velocity": 74}, {"time": 589, "pitch": 44, "duration": 12, "velocity": 102}, {"time": 589, "pitch": 56, "duration": 12, "velocity": 89}, {"time": 589, "pitch": 60, "duration": 11, "velocity": 99}, {"time": 589, "pitch": 63, "duration": 12, "velocity": 90}, {"time": 589, "pitch": 66, "duration": 12, "velocity": 82}, {"time": 601, "pitch": 37, "duration": 22, "velocity": 93}, {"time": 604, "pitch": 44, "duration": 20, "velocity": 93}, {"time": 607, "pitch": 49, "duration": 7, "velocity": 99}, {"time": 610, "pitch": 56, "duration": 6, "velocity": 92}, {"time": 613, "pitch": 65, "duration": 13, "velocity": 99}, {"time": 616, "pitch": 49, "duration": 2, "velocity": 102}, {"time": 619, "pitch": 61, "duration": 6, "velocity": 107}, {"time": 622, "pitch": 56, "duration": 4, "velocity": 93}, {"time": 625, "pitch": 39, "duration": 19, "velocity": 85}, {"time": 628, "pitch": 46, "duration": 15, "velocity": 89}, {"time": 631, "pitch": 51, "duration": 6, "velocity": 95}, {"time": 634, "pitch": 58, "duration": 6, "velocity": 86}, {"time": 637, "pitch": 67, "duration": 12, "velocity": 122}, {"time": 640, "pitch": 51, "duration": 5, "velocity": 99}, {"time": 643, "pitch": 63, "duration": 6, "velocity": 96}, {"time": 646, "pitch": 58, "duration": 3, "velocity": 97}, {"time": 649, "pitch": 48, "duration": 17, "velocity": 93}, {"time": 652, "pitch": 55, "duration": 10, "velocity": 99}, {"time": 655, "pitch": 60, "duration": 3, "velocity": 100}, {"time": 658, "pitch": 63, "duration": 3, "velocity": 112}, {"time": 661, "pitch": 67, "duration": 8, "velocity": 127}, {"time": 664, "pitch": 55, "duration": 2, "velocity": 92}, {"time": 667, "pitch": 63, "duration": 3, "velocity": 117}, {"time": 670, "pitch": 60, "duration": 7, "velocity": 99}, {"time": 673, "pitch": 41, "duration": 19, "velocity": 81}, {"time": 676, "pitch": 48, "duration": 16, "velocity": 93}, {"time": 679, "pitch": 53, "duration": 7, "velocity": 96}, {"time": 682, "pitch": 60, "duration": 7, "velocity": 96}, {"time": 685, "pitch": 68, "duration": 11, "velocity": 122}, {"time": 688, "pitch": 53, "duration": 2, "velocity": 96}, {"time": 691, "pitch": 65, "duration": 6, "velocity": 107}, {"time": 694, "pitch": 60, "duration": 3, "velocity": 102}, {"time": 697, "pitch": 37, "duration": 22, "velocity": 95}, {"time": 700, "pitch": 44, "duration": 21, "velocity": 96}, {"time": 703, "pitch": 49, "duration": 7, "velocity": 107}, {"time": 706, "pitch": 56, "duration": 5, "velocity": 95}, {"time": 709, "pitch": 65, "duration": 12, "velocity": 117}, {"time": 712, "pitch": 49, "duration": 2, "velocity": 107}, {"time": 715, "pitch": 61, "duration": 6, "velocity": 107}, {"time": 718, "pitch": 56, "duration": 4, "velocity": 99}, {"time": 721, "pitch": 39, "duration": 18, "velocity": 79}, {"time": 724, "pitch": 46, "duration": 15, "velocity": 99}, {"time": 727, "pitch": 51, "duration": 6, "velocity": 97}, {"time": 730, "pitch": 58, "duration": 6, "velocity": 99}, {"time": 733, "pitch": 67, "duration": 11, "velocity": 127}, {"time": 736, "pitch": 51, "duration": 7, "velocity": 97}, {"time": 739, "pitch": 63, "duration": 6, "velocity": 99}, {"time": 742, "pitch": 58, "duration": 3, "velocity": 102}, {"time": 745, "pitch": 44, "duration": 18, "velocity": 93}, {"time": 748, "pitch": 51, "duration": 10, "velocity": 92}, {"time": 751, "pitch": 56, "duration": 6, "velocity": 95}, {"time": 754, "pitch": 60, "duration": 4, "velocity": 95}, {"time": 757, "pitch": 68, "duration": 11, "velocity": 112}, {"time": 760, "pitch": 51, "duration": 3, "velocity": 99}, {"time": 763, "pitch": 63, "duration": 4, "velocity": 112}, {"time": 766, "pitch": 60, "duration": 3, "velocity": 100}, {"time": 769, "pitch": 48, "duration": 18, "velocity": 102}, {"time": 772, "pitch": 55, "duration": 10, "velocity": 100}, {"time": 775, "pitch": 60, "duration": 3, "velocity": 99}, {"time": 778, "pitch": 64, "duration": 7, "velocity": 112}, {"time": 781, "pitch": 67, "duration": 12, "velocity": 117}, {"time": 784, "pitch": 55, "duration": 2, "velocity": 112}, {"time": 787, "pitch": 64, "duration": 6, "velocity": 127}, {"time": 790, "pitch": 60, "duration": 4, "velocity": 99}, {"time": 793, "pitch": 37, "duration": 21, "velocity": 93}, {"time": 796, "pitch": 44, "duration": 20, "velocity": 97}, {"time": 799, "pitch": 49, "duration": 6, "velocity": 97}, {"time": 802, "pitch": 56, "duration": 4, "velocity": 100}, {"time": 805, "pitch": 65, "duration": 11, "velocity": 102}, {"time": 808, "pitch": 49, "duration": 3, "velocity": 107}, {"time": 811, "pitch": 61, "duration": 6, "velocity": 93}, {"time": 814, "pitch": 56, "duration": 3, "velocity": 97}, {"time": 817, "pitch": 39, "duration": 18, "velocity": 69}, {"time": 820, "pitch": 46, "duration": 15, "velocity": 90}, {"time": 823, "pitch": 51, "duration": 7, "velocity": 89}, {"time": 826, "pitch": 58, "duration": 7, "velocity": 93}, {"time": 829, "pitch": 67, "duration": 12, "velocity": 100}, {"time": 832, "pitch": 51, "duration": 4, "velocity": 89}, {"time": 835, "pitch": 63, "duration": 6, "velocity": 90}, {"time": 838, "pitch": 58, "duration": 3, "velocity": 97}, {"time": 841, "pitch": 48, "duration": 18, "velocity": 76}, {"time": 844, "pitch": 55, "duration": 10, "velocity": 107}, {"time": 847, "pitch": 60, "duration": 3, "velocity": 96}, {"time": 850, "pitch": 63, "duration": 3, "velocity": 100}, {"time": 853, "pitch": 67, "duration": 10, "velocity": 122}, {"time": 856, "pitch": 55, "duration": 2, "velocity": 97}, {"time": 859, "pitch": 63, "duration": 4, "velocity": 100}, {"time": 862, "pitch": 60, "duration": 4, "velocity": 99}, {"time": 865, "pitch": 41, "duration": 19, "velocity": 81}, {"time": 868, "pitch": 48, "duration": 16, "velocity": 92}, {"time": 871, "pitch": 53, "duration": 7, "velocity": 92}, {"time": 874, "pitch": 60, "duration": 4, "velocity": 99}, {"time": 877, "pitch": 68, "duration": 12, "velocity": 112}, {"time": 880, "pitch": 53, "duration": 3, "velocity": 96}, {"time": 883, "pitch": 65, "duration": 6, "velocity": 93}, {"time": 886, "pitch": 60, "duration": 3, "velocity": 97}, {"time": 889, "pitch": 37, "duration": 22, "velocity": 90}, {"time": 892, "pitch": 44, "duration": 21, "velocity": 99}, {"time": 895, "pitch": 49, "duration": 7, "velocity": 85}, {"time": 898, "pitch": 56, "duration": 3, "velocity": 99}, {"time": 901, "pitch": 61, "duration": 7, "velocity": 92}, {"time": 901, "pitch": 65, "duration": 13, "velocity": 99}, {"time": 904, "pitch": 49, "duration": 2, "velocity": 93}, {"time": 907, "pitch": 56, "duration": 5, "velocity": 95}, {"time": 910, "pitch": 61, "duration": 3, "velocity": 95}, {"time": 913, "pitch": 39, "duration": 23, "velocity": 63}, {"time": 916, "pitch": 46, "duration": 15, "velocity": 70}, {"time": 919, "pitch": 51, "duration": 6, "velocity": 88}, {"time": 922, "pitch": 58, "duration": 6, "velocity": 88}, {"time": 925, "pitch": 67, "duration": 11, "velocity": 127}, {"time": 928, "pitch": 51, "duration": 4, "velocity": 93}, {"time": 931, "pitch": 63, "duration": 5, "velocity": 95}, {"time": 937, "pitch": 44, "duration": 17, "velocity": 82}, {"time": 940, "pitch": 51, "duration": 10, "velocity": 66}, {"time": 943, "pitch": 56, "duration": 4, "velocity": 76}, {"time": 946, "pitch": 68, "duration": 15, "velocity": 97}, {"time": 952, "pitch": 51, "duration": 2, "velocity": 47}, {"time": 958, "pitch": 63, "duration": 4, "velocity": 72}, {"time": 961, "pitch": 43, "duration": 17, "velocity": 77}, {"time": 964, "pitch": 55, "duration": 7, "velocity": 82}, {"time": 967, "pitch": 60, "duration": 7, "velocity": 73}, {"time": 970, "pitch": 67, "duration": 11, "velocity": 112}, {"time": 976, "pitch": 55, "duration": 2, "velocity": 61}, {"time": 979, "pitch": 63, "duration": 5, "velocity": 97}, {"time": 982, "pitch": 60, "duration": 6, "velocity": 79}, {"time": 985, "pitch": 41, "duration": 17, "velocity": 64}, {"time": 988, "pitch": 48, "duration": 15, "velocity": 52}, {"time": 991, "pitch": 53, "duration": 7, "velocity": 90}, {"time": 994, "pitch": 68, "duration": 15, "velocity": 97}, {"time": 997, "pitch": 65, "duration": 7, "velocity": 74}, {"time": 1000, "pitch": 53, "duration": 6, "velocity": 73}, {"time": 1003, "pitch": 60, "duration": 6, "velocity": 75}, {"time": 1006, "pitch": 65, "duration": 3, "velocity": 67}, {"time": 1009, "pitch": 48, "duration": 17, "velocity": 71}, {"time": 1012, "pitch": 55, "duration": 11, "velocity": 70}, {"time": 1015, "pitch": 60, "duration": 5, "velocity": 70}, {"time": 1018, "pitch": 67, "duration": 14, "velocity": 107}, {"time": 1024, "pitch": 55, "duration": 2, "velocity": 53}, {"time": 1027, "pitch": 63, "duration": 5, "velocity": 99}, {"time": 1030, "pitch": 60, "duration": 3, "velocity": 72}, {"time": 1033, "pitch": 37, "duration": 22, "velocity": 77}, {"time": 1036, "pitch": 44, "duration": 21, "velocity": 48}, {"time": 1039, "pitch": 49, "duration": 7, "velocity": 82}, {"time": 1042, "pitch": 65, "duration": 10, "velocity": 99}, {"time": 1048, "pitch": 49, "duration": 3, "velocity": 46}, {"time": 1051, "pitch": 61, "duration": 4, "velocity": 83}, {"time": 1054, "pitch": 56, "duration": 10, "velocity": 25}, {"time": 1057, "pitch": 37, "duration": 21, "velocity": 74}, {"time": 1057, "pitch": 64, "duration": 8, "velocity": 90}, {"time": 1060, "pitch": 44, "duration": 20, "velocity": 50}, {"time": 1063, "pitch": 49, "duration": 6, "velocity": 81}, {"time": 1066, "pitch": 56, "duration": 1, "velocity": 47}, {"time": 1066, "pitch": 61, "duration": 15, "velocity": 72}, {"time": 1066, "pitch": 64, "duration": 15, "velocity": 72}, {"time": 1072, "pitch": 49, "duration": 2, "velocity": 69}, {"time": 1075, "pitch": 56, "duration": 6, "velocity": 82}, {"time": 1081, "pitch": 39, "duration": 22, "velocity": 72}, {"time": 1084, "pitch": 46, "duration": 38, "velocity": 66}, {"time": 1087, "pitch": 51, "duration": 7, "velocity": 77}, {"time": 1090, "pitch": 55, "duration": 9, "velocity": 73}, {"time": 1096, "pitch": 51, "duration": 3, "velocity": 55}, {"time": 1099, "pitch": 58, "duration": 5, "velocity": 82}, {"time": 1105, "pitch": 39, "duration": 18, "velocity": 38}, {"time": 1105, "pitch": 51, "duration": 16, "velocity": 79}, {"time": 1105, "pitch": 58, "duration": 23, "velocity": 69}, {"time": 1105, "pitch": 63, "duration": 23, "velocity": 74}, {"time": 1105, "pitch": 67, "duration": 23, "velocity": 76}, {"time": 1129, "pitch": 37, "duration": 19, "velocity": 85}, {"time": 1135, "pitch": 44, "duration": 17, "velocity": 43}, {"time": 1141, "pitch": 49, "duration": 5, "velocity": 58}, {"time": 1141, "pitch": 65, "duration": 14, "velocity": 85}, {"time": 1147, "pitch": 61, "duration": 7, "velocity": 86}, {"time": 1150, "pitch": 42, "duration": 1, "velocity": 27}, {"time": 1153, "pitch": 39, "duration": 17, "velocity": 75}, {"time": 1159, "pitch": 46, "duration": 11, "velocity": 41}, {"time": 1165, "pitch": 51, "duration": 7, "velocity": 57}, {"time": 1165, "pitch": 67, "duration": 13, "velocity": 107}, {"time": 1171, "pitch": 63, "duration": 6, "velocity": 56}, {"time": 1174, "pitch": 58, "duration": 3, "velocity": 59}, {"time": 1177, "pitch": 48, "duration": 17, "velocity": 81}, {"time": 1183, "pitch": 55, "duration": 8, "velocity": 88}, {"time": 1189, "pitch": 67, "duration": 12, "velocity": 100}, {"time": 1195, "pitch": 63, "duration": 6, "velocity": 89}, {"time": 1201, "pitch": 41, "duration": 19, "velocity": 78}, {"time": 1207, "pitch": 48, "duration": 12, "velocity": 66}, {"time": 1213, "pitch": 53, "duration": 5, "velocity": 67}, {"time": 1213, "pitch": 68, "duration": 12, "velocity": 100}, {"time": 1216, "pitch": 65, "duration": 9, "velocity": 72}, {"time": 1219, "pitch": 60, "duration": 6, "velocity": 71}, {"time": 1225, "pitch": 37, "duration": 20, "velocity": 88}, {"time": 1231, "pitch": 44, "duration": 17, "velocity": 36}, {"time": 1237, "pitch": 49, "duration": 4, "velocity": 65}, {"time": 1237, "pitch": 65, "duration": 13, "velocity": 90}, {"time": 1243, "pitch": 61, "duration": 6, "velocity": 88}, {"time": 1249, "pitch": 39, "duration": 17, "velocity": 82}, {"time": 1255, "pitch": 46, "duration": 11, "velocity": 55}, {"time": 1261, "pitch": 51, "duration": 8, "velocity": 60}, {"time": 1261, "pitch": 67, "duration": 12, "velocity": 100}, {"time": 1267, "pitch": 63, "duration": 5, "velocity": 76}, {"time": 1273, "pitch": 44, "duration": 21, "velocity": 86}, {"time": 1279, "pitch": 51, "duration": 17, "velocity": 43}, {"time": 1285, "pitch": 56, "duration": 3, "velocity": 69}, {"time": 1285, "pitch": 63, "duration": 12, "velocity": 93}, {"time": 1291, "pitch": 60, "duration": 6, "velocity": 63}, {"time": 1294, "pitch": 56, "duration": 3, "velocity": 67}, {"time": 1297, "pitch": 44, "duration": 18, "velocity": 78}, {"time": 1303, "pitch": 51, "duration": 11, "velocity": 53}, {"time": 1306, "pitch": 56, "duration": 4, "velocity": 75}, {"time": 1309, "pitch": 63, "duration": 11, "velocity": 99}, {"time": 1312, "pitch": 56, "duration": 1, "velocity": 88}, {"time": 1315, "pitch": 60, "duration": 6, "velocity": 95}, {"time": 1321, "pitch": 37, "duration": 20, "velocity": 93}, {"time": 1327, "pitch": 44, "duration": 17, "velocity": 39}, {"time": 1333, "pitch": 49, "duration": 3, "velocity": 69}, {"time": 1333, "pitch": 65, "duration": 12, "velocity": 97}, {"time": 1339, "pitch": 61, "duration": 5, "velocity": 69}, {"time": 1345, "pitch": 39, "duration": 17, "velocity": 66}, {"time": 1351, "pitch": 46, "duration": 11, "velocity": 41}, {"time": 1357, "pitch": 51, "duration": 6, "velocity": 70}, {"time": 1357, "pitch": 67, "duration": 14, "velocity": 100}, {"time": 1363, "pitch": 63, "duration": 7, "velocity": 78}, {"time": 1369, "pitch": 48, "duration": 18, "velocity": 77}, {"time": 1375, "pitch": 55, "duration": 10, "velocity": 73}, {"time": 1381, "pitch": 67, "duration": 12, "velocity": 99}, {"time": 1387, "pitch": 63, "duration": 6, "velocity": 76}, {"time": 1390, "pitch": 60, "duration": 1, "velocity": 56}, {"time": 1393, "pitch": 41, "duration": 18, "velocity": 77}, {"time": 1399, "pitch": 48, "duration": 11, "velocity": 35}, {"time": 1405, "pitch": 53, "duration": 4, "velocity": 76}, {"time": 1405, "pitch": 68, "duration": 12, "velocity": 95}, {"time": 1408, "pitch": 65, "duration": 9, "velocity": 77}, {"time": 1411, "pitch": 60, "duration": 6, "velocity": 92}, {"time": 1417, "pitch": 37, "duration": 20, "velocity": 86}, {"time": 1423, "pitch": 44, "duration": 16, "velocity": 49}, {"time": 1429, "pitch": 49, "duration": 4, "velocity": 63}, {"time": 1429, "pitch": 65, "duration": 13, "velocity": 95}, {"time": 1435, "pitch": 61, "duration": 6, "velocity": 77}, {"time": 1438, "pitch": 56, "duration": 4, "velocity": 82}, {"time": 1441, "pitch": 39, "duration": 18, "velocity": 58}, {"time": 1447, "pitch": 46, "duration": 11, "velocity": 40}, {"time": 1453, "pitch": 51, "duration": 4, "velocity": 68}, {"time": 1453, "pitch": 67, "duration": 13, "velocity": 112}, {"time": 1456, "pitch": 63, "duration": 10, "velocity": 81}, {"time": 1459, "pitch": 58, "duration": 7, "velocity": 97}, {"time": 1465, "pitch": 44, "duration": 22, "velocity": 79}, {"time": 1468, "pitch": 51, "duration": 9, "velocity": 71}, {"time": 1471, "pitch": 56, "duration": 4, "velocity": 89}, {"time": 1474, "pitch": 63, "duration": 13, "velocity": 102}, {"time": 1480, "pitch": 51, "duration": 7, "velocity": 72}, {"time": 1483, "pitch": 60, "duration": 4, "velocity": 93}, {"time": 1486, "pitch": 56, "duration": 1, "velocity": 61}, {"time": 1489, "pitch": 44, "duration": 1, "velocity": 92}, {"time": 1489, "pitch": 56, "duration": 1, "velocity": 81}, {"time": 1489, "pitch": 60, "duration": 1, "velocity": 93}, {"time": 1489, "pitch": 63, "duration": 1, "velocity": 85}, {"time": 1493, "pitch": 44, "duration": 1, "velocity": 78}, {"time": 1493, "pitch": 56, "duration": 1, "velocity": 76}, {"time": 1493, "pitch": 60, "duration": 1, "velocity": 83}, {"time": 1493, "pitch": 63, "duration": 1, "velocity": 81}, {"time": 1498, "pitch": 44, "duration": 1, "velocity": 88}, {"time": 1498, "pitch": 56, "duration": 1, "velocity": 77}, {"time": 1498, "pitch": 60, "duration": 1, "velocity": 74}, {"time": 1498, "pitch": 63, "duration": 1, "velocity": 74}, {"time": 1501, "pitch": 44, "duration": 12, "velocity": 102}, {"time": 1501, "pitch": 56, "duration": 12, "velocity": 89}, {"time": 1501, "pitch": 60, "duration": 11, "velocity": 99}, {"time": 1501, "pitch": 63, "duration": 12, "velocity": 90}, {"time": 1501, "pitch": 66, "duration": 12, "velocity": 82}, {"time": 1513, "pitch": 37, "duration": 22, "velocity": 93}, {"time": 1516, "pitch": 44, "duration": 20, "velocity": 93}, {"time": 1519, "pitch": 49, "duration": 7, "velocity": 99}, {"time": 1522, "pitch": 56, "duration": 6, "velocity": 92}, {"time": 1525, "pitch": 65, "duration": 13, "velocity": 99}, {"time": 1528, "pitch": 49, "duration": 2, "velocity": 102}, {"time": 1531, "pitch": 61, "duration": 6, "velocity": 107}, {"time": 1534, "pitch": 56, "duration": 4, "velocity": 93}, {"time": 1537, "pitch": 39, "duration": 19, "velocity": 85}, {"time": 1540, "pitch": 46, "duration": 15, "velocity": 89}, {"time": 1543, "pitch": 51, "duration": 6, "velocity": 95}, {"time": 1546, "pitch": 58, "duration": 6, "velocity": 86}, {"time": 1549, "pitch": 67, "duration": 12, "velocity": 122}, {"time": 1552, "pitch": 51, "duration": 5, "velocity": 99}, {"time": 1555, "pitch": 63, "duration": 6, "velocity": 96}, {"time": 1558, "pitch": 58, "duration": 3, "velocity": 97}, {"time": 1561, "pitch": 48, "duration": 17, "velocity": 93}, {"time": 1564, "pitch": 55, "duration": 10, "velocity": 99}, {"time": 1567, "pitch": 60, "duration": 3, "velocity": 100}, {"time": 1570, "pitch": 63, "duration": 3, "velocity": 112}, {"time": 1573, "pitch": 67, "duration": 8, "velocity": 127}, {"time": 1576, "pitch": 55, "duration": 2, "velocity": 92}, {"time": 1579, "pitch": 63, "duration": 3, "velocity": 117}, {"time": 1582, "pitch": 60, "duration": 7, "velocity": 99}, {"time": 1585, "pitch": 41, "duration": 19, "velocity": 81}, {"time": 1588, "pitch": 48, "duration": 16, "velocity": 93}, {"time": 1591, "pitch": 53, "duration": 7, "velocity": 96}, {"time": 1594, "pitch": 60, "duration": 7, "velocity": 96}, {"time": 1597, "pitch": 68, "duration": 11, "velocity": 122}, {"time": 1600, "pitch": 53, "duration": 2, "velocity": 96}, {"time": 1603, "pitch": 65, "duration": 6, "velocity": 107}, {"time": 1606, "pitch": 60, "duration": 3, "velocity": 102}, {"time": 1609, "pitch": 37, "duration": 22, "velocity": 95}, {"time": 1612, "pitch": 44, "duration": 21, "velocity": 96}, {"time": 1615, "pitch": 49, "duration": 7, "velocity": 107}, {"time": 1618, "pitch": 56, "duration": 5, "velocity": 95}, {"time": 1621, "pitch": 65, "duration": 12, "velocity": 117}, {"time": 1624, "pitch": 49, "duration": 2, "velocity": 107}, {"time": 1627, "pitch": 61, "duration": 6, "velocity": 107}, {"time": 1630, "pitch": 56, "duration": 4, "velocity": 99}, {"time": 1633, "pitch": 39, "duration": 18, "velocity": 79}, {"time": 1636, "pitch": 46, "duration": 15, "velocity": 99}, {"time": 1639, "pitch": 51, "duration": 6, "velocity": 97}, {"time": 1642, "pitch": 58, "duration": 6, "velocity": 99}, {"time": 1645, "pitch": 67, "duration": 11, "velocity": 127}, {"time": 1648, "pitch": 51, "duration": 7, "velocity": 97}, {"time": 1651, "pitch": 63, "duration": 6, "velocity": 99}, {"time": 1654, "pitch": 58, "duration": 3, "velocity": 102}, {"time": 1657, "pitch": 44, "duration": 18, "velocity": 93}, {"time": 1660, "pitch": 51, "duration": 10, "velocity": 92}, {"time": 1663, "pitch": 56, "duration": 6, "velocity": 95}, {"time": 1666, "pitch": 60, "duration": 4, "velocity": 95}, {"time": 1669, "pitch": 68, "duration": 11, "velocity": 112}, {"time": 1672, "pitch": 51, "duration": 3, "velocity": 99}, {"time": 1675, "pitch": 63, "duration": 4, "velocity": 112}, {"time": 1678, "pitch": 60, "duration": 3, "velocity": 100}, {"time": 1681, "pitch": 48, "duration": 18, "velocity": 102}, {"time": 1684, "pitch": 55, "duration": 10, "velocity": 100}, {"time": 1687, "pitch": 60, "duration": 3, "velocity": 99}, {"time": 1690, "pitch": 64, "duration": 7, "velocity": 112}, {"time": 1693, "pitch": 67, "duration": 12, "velocity": 117}, {"time": 1696, "pitch": 55, "duration": 2, "velocity": 112}, {"time": 1699, "pitch": 64, "duration": 6, "velocity": 127}, {"time": 1702, "pitch": 60, "duration": 4, "velocity": 99}, {"time": 1705, "pitch": 37, "duration": 21, "velocity": 93}, {"time": 1708, "pitch": 44, "duration": 20, "velocity": 97}, {"time": 1711, "pitch": 49, "duration": 6, "velocity": 97}, {"time": 1714, "pitch": 56, "duration": 4, "velocity": 100}, {"time": 1717, "pitch": 65, "duration": 11, "velocity": 102}, {"time": 1720, "pitch": 49, "duration": 3, "velocity": 107}, {"time": 1723, "pitch": 61, "duration": 6, "velocity": 93}, {"time": 1726, "pitch": 56, "duration": 3, "velocity": 97}, {"time": 1729, "pitch": 39, "duration": 18, "velocity": 69}, {"time": 1732, "pitch": 46, "duration": 15, "velocity": 90}, {"time": 1735, "pitch": 51, "duration": 7, "velocity": 89}, {"time": 1738, "pitch": 58, "duration": 7, "velocity": 93}, {"time": 1741, "pitch": 67, "duration": 12, "velocity": 100}, {"time": 1744, "pitch": 51, "duration": 4, "velocity": 89}, {"time": 1747, "pitch": 63, "duration": 6, "velocity": 90}, {"time": 1750, "pitch": 58, "duration": 3, "velocity": 97}, {"time": 1753, "pitch": 48, "duration": 18, "velocity": 76}, {"time": 1756, "pitch": 55, "duration": 10, "velocity": 107}, {"time": 1759, "pitch": 60, "duration": 3, "velocity": 96}, {"time": 1762, "pitch": 63, "duration": 3, "velocity": 100}, {"time": 1765, "pitch": 67, "duration": 10, "velocity": 122}, {"time": 1768, "pitch": 55, "duration": 2, "velocity": 97}, {"time": 1771, "pitch": 63, "duration": 4, "velocity": 100}, {"time": 1774, "pitch": 60, "duration": 4, "velocity": 99}, {"time": 1777, "pitch": 41, "duration": 19, "velocity": 81}, {"time": 1780, "pitch": 48, "duration": 16, "velocity": 92}, {"time": 1783, "pitch": 53, "duration": 7, "velocity": 92}, {"time": 1786, "pitch": 60, "duration": 4, "velocity": 99}, {"time": 1789, "pitch": 68, "duration": 12, "velocity": 112}, {"time": 1792, "pitch": 53, "duration": 3, "velocity": 96}, {"time": 1795, "pitch": 65, "duration": 6, "velocity": 93}, {"time": 1798, "pitch": 60, "duration": 3, "velocity": 97}, {"time": 1801, "pitch": 37, "duration": 22, "velocity": 90}, {"time": 1804, "pitch": 44, "duration": 21, "velocity": 99}, {"time": 1807, "pitch": 49, "duration": 7, "velocity": 85}, {"time": 1810, "pitch": 56, "duration": 3, "velocity": 99}, {"time": 1813, "pitch": 61, "duration": 7, "velocity": 92}, {"time": 1813, "pitch": 65, "duration": 13, "velocity": 99}, {"time": 1816, "pitch": 49, "duration": 2, "velocity": 93}, {"time": 1819, "pitch": 56, "duration": 5, "velocity": 95}, {"time": 1822, "pitch": 61, "duration": 3, "velocity": 95}, {"time": 1825, "pitch": 39, "duration": 23, "velocity": 63}, {"time": 1828, "pitch": 46, "duration": 15, "velocity": 70}, {"time": 1831, "pitch": 51, "duration": 6, "velocity": 88}, {"time": 1834, "pitch": 58, "duration": 6, "velocity": 88}, {"time": 1837, "pitch": 67, "duration": 11, "velocity": 127}, {"time": 1840, "pitch": 51, "duration": 4, "velocity": 93}, {"time": 1843, "pitch": 63, "duration": 5, "velocity": 95}, {"time": 1849, "pitch": 44, "duration": 22, "velocity": 97}, {"time": 1852, "pitch": 51, "duration": 21, "velocity": 83}, {"time": 1855, "pitch": 56, "duration": 7, "velocity": 93}, {"time": 1858, "pitch": 60, "duration": 9, "velocity": 88}, {"time": 1861, "pitch": 68, "duration": 23, "velocity": 97}, {"time": 1864, "pitch": 56, "duration": 22, "velocity": 95}, {"time": 1867, "pitch": 63, "duration": 29, "velocity": 92}, {"time": 1870, "pitch": 60, "duration": 26, "velocity": 86}, {"time": 1873, "pitch": 44, "duration": 17, "velocity": 86}, {"time": 1885, "pitch": 68, "duration": 11, "velocity": 52}, {"time": 1897, "pitch": 37, "duration": 20, "velocity": 79}, {"time": 1903, "pitch": 44, "duration": 17, "velocity": 57}, {"time": 1909, "pitch": 61, "duration": 13, "velocity": 72}, {"time": 1909, "pitch": 65, "duration": 14, "velocity": 73}, {"time": 1921, "pitch": 39, "duration": 16, "velocity": 73}, {"time": 1927, "pitch": 46, "duration": 10, "velocity": 42}, {"time": 1933, "pitch": 51, "duration": 5, "velocity": 58}, {"time": 1933, "pitch": 63, "duration": 13, "velocity": 81}, {"time": 1933, "pitch": 67, "duration": 14, "velocity": 90}, {"time": 1939, "pitch": 58, "duration": 5, "velocity": 78}, {"time": 1945, "pitch": 48, "duration": 18, "velocity": 78}, {"time": 1948, "pitch": 55, "duration": 14, "velocity": 82}, {"time": 1951, "pitch": 60, "duration": 5, "velocity": 77}, {"time": 1954, "pitch": 67, "duration": 15, "velocity": 112}, {"time": 1963, "pitch": 63, "duration": 6, "velocity": 74}, {"time": 1966, "pitch": 60, "duration": 3, "velocity": 76}, {"time": 1969, "pitch": 41, "duration": 20, "velocity": 77}, {"time": 1972, "pitch": 48, "duration": 16, "velocity": 68}, {"time": 1975, "pitch": 53, "duration": 7, "velocity": 71}, {"time": 1978, "pitch": 68, "duration": 15, "velocity": 97}, {"time": 1984, "pitch": 53, "duration": 2, "velocity": 51}, {"time": 1987, "pitch": 65, "duration": 5, "velocity": 64}, {"time": 1993, "pitch": 37, "duration": 22, "velocity": 72}, {"time": 1996, "pitch": 44, "duration": 20, "velocity": 63}, {"time": 1999, "pitch": 49, "duration": 10, "velocity": 81}, {"time": 2002, "pitch": 65, "duration": 16, "velocity": 97}, {"time": 2011, "pitch": 61, "duration": 7, "velocity": 74}, {"time": 2014, "pitch": 56, "duration": 3, "velocity": 49}, {"time": 2017, "pitch": 39, "duration": 17, "velocity": 65}, {"time": 2020, "pitch": 46, "duration": 14, "velocity": 45}, {"time": 2023, "pitch": 51, "duration": 7, "velocity": 61}, {"time": 2026, "pitch": 67, "duration": 15, "velocity": 122}, {"time": 2032, "pitch": 51, "duration": 8, "velocity": 63}, {"time": 2035, "pitch": 63, "duration": 6, "velocity": 82}, {"time": 2038, "pitch": 58, "duration": 3, "velocity": 93}, {"time": 2041, "pitch": 44, "duration": 18, "velocity": 71}, {"time": 2044, "pitch": 51, "duration": 15, "velocity": 53}, {"time": 2047, "pitch": 56, "duration": 7, "velocity": 79}, {"time": 2050, "pitch": 60, "duration": 2, "velocity": 96}, {"time": 2053, "pitch": 63, "duration": 6, "velocity": 107}, {"time": 2056, "pitch": 56, "duration": 3, "velocity": 89}, {"time": 2059, "pitch": 60, "duration": 4, "velocity": 96}, {"time": 2065, "pitch": 48, "duration": 22, "velocity": 74}, {"time": 2065, "pitch": 60, "duration": 8, "velocity": 83}, {"time": 2065, "pitch": 64, "duration": 11, "velocity": 102}, {"time": 2065, "pitch": 67, "duration": 9, "velocity": 93}, {"time": 2068, "pitch": 52, "duration": 14, "velocity": 89}, {"time": 2071, "pitch": 55, "duration": 6, "velocity": 79}, {"time": 2074, "pitch": 60, "duration": 4, "velocity": 69}, {"time": 2077, "pitch": 64, "duration": 7, "velocity": 122}, {"time": 2077, "pitch": 67, "duration": 13, "velocity": 127}, {"time": 2080, "pitch": 55, "duration": 3, "velocity": 95}, {"time": 2083, "pitch": 60, "duration": 6, "velocity": 96}, {"time": 2086, "pitch": 64, "duration": 3, "velocity": 127}, {"time": 2089, "pitch": 37, "duration": 21, "velocity": 93}, {"time": 2092, "pitch": 44, "duration": 20, "velocity": 97}, {"time": 2095, "pitch": 49, "duration": 6, "velocity": 97}, {"time": 2098, "pitch": 56, "duration": 4, "velocity": 100}, {"time": 2101, "pitch": 65, "duration": 11, "velocity": 102}, {"time": 2104, "pitch": 49, "duration": 3, "velocity": 107}, {"time": 2107, "pitch": 61, "duration": 6, "velocity": 93}, {"time": 2110, "pitch": 56, "duration": 3, "velocity": 97}, {"time": 2113, "pitch": 39, "duration": 18, "velocity": 69}, {"time": 2116, "pitch": 46, "duration": 15, "velocity": 90}, {"time": 2119, "pitch": 51, "duration": 7, "velocity": 89}, {"time": 2122, "pitch": 58, "duration": 7, "velocity": 93}, {"time": 2125, "pitch": 67, "duration": 12, "velocity": 100}, {"time": 2128, "pitch": 51, "duration": 4, "velocity": 89}, {"time": 2131, "pitch": 63, "duration": 6, "velocity": 90}, {"time": 2134, "pitch": 58, "duration": 3, "velocity": 97}, {"time": 2137, "pitch": 48, "duration": 18, "velocity": 76}, {"time": 2140, "pitch": 55, "duration": 10, "velocity": 107}, {"time": 2143, "pitch": 60, "duration": 3, "velocity": 96}, {"time": 2146, "pitch": 63, "duration": 3, "velocity": 100}, {"time": 2149, "pitch": 67, "duration": 10, "velocity": 122}, {"time": 2152, "pitch": 55, "duration": 2, "velocity": 97}, {"time": 2155, "pitch": 63, "duration": 4, "velocity": 100}, {"time": 2158, "pitch": 60, "duration": 4, "velocity": 99}, {"time": 2161, "pitch": 41, "duration": 19, "velocity": 81}, {"time": 2164, "pitch": 48, "duration": 16, "velocity": 92}, {"time": 2167, "pitch": 53, "duration": 7, "velocity": 92}, {"time": 2170, "pitch": 60, "duration": 4, "velocity": 99}, {"time": 2173, "pitch": 68, "duration": 12, "velocity": 112}, {"time": 2176, "pitch": 53, "duration": 3, "velocity": 96}, {"time": 2179, "pitch": 65, "duration": 6, "velocity": 93}, {"time": 2182, "pitch": 60, "duration": 3, "velocity": 97}, {"time": 2185, "pitch": 37, "duration": 22, "velocity": 90}, {"time": 2188, "pitch": 44, "duration": 21, "velocity": 99}, {"time": 2191, "pitch": 49, "duration": 7, "velocity": 85}, {"time": 2194, "pitch": 56, "duration": 3, "velocity": 99}, {"time": 2197, "pitch": 61, "duration": 7, "velocity": 92}, {"time": 2197, "pitch": 65, "duration": 13, "velocity": 99}, {"time": 2200, "pitch": 49, "duration": 2, "velocity": 93}, {"time": 2203, "pitch": 56, "duration": 5, "velocity": 95}, {"time": 2206, "pitch": 61, "duration": 3, "velocity": 95}, {"time": 2209, "pitch": 39, "duration": 23, "velocity": 63}, {"time": 2212, "pitch": 46, "duration": 15, "velocity": 70}, {"time": 2215, "pitch": 51, "duration": 6, "velocity": 88}, {"time": 2218, "pitch": 58, "duration": 6, "velocity": 88}, {"time": 2221, "pitch": 67, "duration": 11, "velocity": 127}, {"time": 2224, "pitch": 51, "duration": 4, "velocity": 93}, {"time": 2227, "pitch": 63, "duration": 5, "velocity": 95}, {"time": 2233, "pitch": 44, "duration": 18, "velocity": 89}, {"time": 2239, "pitch": 51, "duration": 12, "velocity": 53}, {"time": 2245, "pitch": 56, "duration": 3, "velocity": 61}, {"time": 2245, "pitch": 63, "duration": 19, "velocity": 99}, {"time": 2251, "pitch": 60, "duration": 8, "velocity": 79}, {"time": 2257, "pitch": 43, "duration": 19, "velocity": 96}, {"time": 2263, "pitch": 55, "duration": 6, "velocity": 59}, {"time": 2266, "pitch": 60, "duration": 1, "velocity": 26}, {"time": 2266, "pitch": 67, "duration": 16, "velocity": 102}, {"time": 2272, "pitch": 55, "duration": 2, "velocity": 68}, {"time": 2275, "pitch": 63, "duration": 7, "velocity": 95}, {"time": 2281, "pitch": 41, "duration": 17, "velocity": 69}, {"time": 2287, "pitch": 48, "duration": 11, "velocity": 51}, {"time": 2293, "pitch": 53, "duration": 7, "velocity": 41}, {"time": 2293, "pitch": 65, "duration": 12, "velocity": 76}, {"time": 2293, "pitch": 68, "duration": 12, "velocity": 76}, {"time": 2299, "pitch": 60, "duration": 7, "velocity": 73}, {"time": 2305, "pitch": 48, "duration": 17, "velocity": 75}, {"time": 2308, "pitch": 55, "duration": 11, "velocity": 82}, {"time": 2311, "pitch": 60, "duration": 4, "velocity": 85}, {"time": 2314, "pitch": 67, "duration": 14, "velocity": 102}, {"time": 2317, "pitch": 63, "duration": 11, "velocity": 77}, {"time": 2320, "pitch": 55, "duration": 1, "velocity": 63}, {"time": 2323, "pitch": 60, "duration": 5, "velocity": 83}, {"time": 2329, "pitch": 37, "duration": 22, "velocity": 82}, {"time": 2332, "pitch": 44, "duration": 21, "velocity": 75}, {"time": 2335, "pitch": 49, "duration": 6, "velocity": 74}, {"time": 2338, "pitch": 65, "duration": 10, "velocity": 99}, {"time": 2344, "pitch": 49, "duration": 3, "velocity": 68}, {"time": 2347, "pitch": 61, "duration": 4, "velocity": 31}, {"time": 2353, "pitch": 37, "duration": 21, "velocity": 70}, {"time": 2353, "pitch": 56, "duration": 8, "velocity": 69}, {"time": 2353, "pitch": 61, "duration": 8, "velocity": 82}, {"time": 2353, "pitch": 64, "duration": 8, "velocity": 89}, {"time": 2356, "pitch": 44, "duration": 20, "velocity": 60}, {"time": 2359, "pitch": 49, "duration": 7, "velocity": 79}, {"time": 2362, "pitch": 56, "duration": 2, "velocity": 49}, {"time": 2362, "pitch": 61, "duration": 1, "velocity": 83}, {"time": 2362, "pitch": 64, "duration": 15, "velocity": 97}, {"time": 2368, "pitch": 49, "duration": 2, "velocity": 70}, {"time": 2371, "pitch": 61, "duration": 7, "velocity": 72}, {"time": 2377, "pitch": 39, "duration": 18, "velocity": 71}, {"time": 2380, "pitch": 46, "duration": 10, "velocity": 67}, {"time": 2383, "pitch": 51, "duration": 8, "velocity": 76}, {"time": 2386, "pitch": 58, "duration": 14, "velocity": 93}, {"time": 2392, "pitch": 46, "duration": 4, "velocity": 63}, {"time": 2401, "pitch": 39, "duration": 14, "velocity": 63}, {"time": 2401, "pitch": 55, "duration": 16, "velocity": 76}, {"time": 2401, "pitch": 58, "duration": 16, "velocity": 68}, {"time": 2425, "pitch": 32, "duration": 34, "velocity": 64}, {"time": 2425, "pitch": 39, "duration": 34, "velocity": 60}, {"time": 2425, "pitch": 44, "duration": 33, "velocity": 62}, {"time": 2425, "pitch": 56, "duration": 34, "velocity": 72}, {"time": 2425, "pitch": 60, "duration": 34, "velocity": 72}, {"time": 2425, "pitch": 63, "duration": 34, "velocity": 71}], "annotations": [{"time": 25, "annotation": {"number": 64, "value": 127}, "group": "control_change"}, {"time": 48, "annotation": {"number": 64, "value": 0}, "group": "control_change"}, {"time": 48, "annotation": {"number": 64, "value": 127}, "group": "control_change"}, {"time": 56, "annotation": {"number": 64, "value": 0}, "group": "control_change"}, {"time": 57, "annotation": {"number": 64, "value": 127}, "group": "control_change"}, {"time": 71, "annotation": {"number": 64, "value": 0}, "group": "control_change"}, {"time": 72, "annotation": {"number": 64, "value": 127}, "group": "control_change"}, {"time": 95, "annotation": {"number": 64, "value": 0}, "group": "control_change"}, {"time": 97, "annotation": {"number": 64, "value": 127}, "group": "control_change"}, {"time": 120, "annotation": {"number": 64, "value": 0}, "group": "control_change"}, {"time": 121, "annotation": {"number": 64, "value": 127}, "group": "control_change"}, {"time": 143, "annotation": {"number": 64, "value": 0}, "group": "control_change"}, {"time": 145, "annotation": {"number": 64, "value": 127}, "group": "control_change"}, {"time": 167, "annotation": {"number": 64, "value": 0}, "group": "control_change"}, {"time": 169, "annotation": {"number": 64, "value": 127}, "group": "control_change"}, {"time": 214, "annotation": {"number": 64, "value": 0}, "group": "control_change"}, {"time": 217, "annotation": {"number": 64, "value": 127}, "group": "control_change"}, {"time": 239, "annotation": {"number": 64, "value": 0}, "group": "control_change"}, {"time": 240, "annotation": {"number": 64, "value": 127}, "group": "control_change"}, {"time": 263, "annotation": {"number": 64, "value": 0}, "group": "control_change"}, {"time": 265, "annotation": {"number": 64, "value": 127}, "group": "control_change"}, {"time": 287, "annotation": {"number": 64, "value": 0}, "group": "control_change"}, {"time": 289, "annotation": {"number": 64, "value": 127}, "group": "control_change"}, {"time": 311, "annotation": {"number": 64, "value": 0}, "group": "control_change"}, {"time": 313, "annotation": {"number": 64, "value": 127}, "group": "control_change"}, {"time": 335, "annotation": {"number": 64, "value": 0}, "group": "control_change"}, {"time": 336, "annotation": {"number": 64, "value": 127}, "group": "control_change"}, {"time": 359, "annotation": {"number": 64, "value": 0}, "group": "control_change"}, {"time": 361, "annotation": {"number": 64, "value": 127}, "group": "control_change"}, {"time": 383, "annotation": {"number": 64, "value": 0}, "group": "control_change"}, {"time": 385, "annotation": {"number": 64, "value": 127}, "group": "control_change"}, {"time": 407, "annotation": {"number": 64, "value": 0}, "group": "control_change"}, {"time": 409, "annotation": {"number": 64, "value": 127}, "group": "control_change"}, {"time": 431, "annotation": {"number": 64, "value": 0}, "group": "control_change"}, {"time": 432, "annotation": {"number": 64, "value": 127}, "group": "control_change"}, {"time": 455, "annotation": {"number": 64, "value": 0}, "group": "control_change"}, {"time": 457, "annotation": {"number": 64, "value": 127}, "group": "control_change"}, {"time": 479, "annotation": {"number": 64, "value": 0}, "group": "control_change"}, {"time": 481, "annotation": {"number": 64, "value": 127}, "group": "control_change"}, {"time": 503, "annotation": {"number": 64, "value": 0}, "group": "control_change"}, {"time": 505, "annotation": {"number": 64, "value": 127}, "group": "control_change"}, {"time": 527, "annotation": {"number": 64, "value": 0}, "group": "control_change"}, {"time": 529, "annotation": {"number": 64, "value": 127}, "group": "control_change"}, {"time": 551, "annotation": {"number": 64, "value": 0}, "group": "control_change"}, {"time": 553, "annotation": {"number": 64, "value": 127}, "group": "control_change"}, {"time": 571, "annotation": {"number": 64, "value": 127}, "group": "control_change"}, {"time": 574, "annotation": {"number": 64, "value": 0}, "group": "control_change"}, {"time": 576, "annotation": {"number": 64, "value": 0}, "group": "control_change"}, {"time": 580, "annotation": {"number": 64, "value": 127}, "group": "control_change"}, {"time": 581, "annotation": {"number": 64, "value": 0}, "group": "control_change"}, {"time": 600, "annotation": {"number": 64, "value": 127}, "group": "control_change"}, {"time": 622, "annotation": {"number": 64, "value": 0}, "group": "control_change"}, {"time": 624, "annotation": {"number": 64, "value": 127}, "group": "control_change"}, {"time": 647, "annotation": {"number": 64, "value": 0}, "group": "control_change"}, {"time": 648, "annotation": {"number": 64, "value": 127}, "group": "control_change"}, {"time": 670, "annotation": {"number": 64, "value": 0}, "group": "control_change"}, {"time": 672, "annotation": {"number": 64, "value": 127}, "group": "control_change"}, {"time": 695, "annotation": {"number": 64, "value": 0}, "group": "control_change"}, {"time": 697, "annotation": {"number": 64, "value": 127}, "group": "control_change"}, {"time": 718, "annotation": {"number": 64, "value": 0}, "group": "control_change"}, {"time": 720, "annotation": {"number": 64, "value": 127}, "group": "control_change"}, {"time": 742, "annotation": {"number": 64, "value": 0}, "group": "control_change"}, {"time": 744, "annotation": {"number": 64, "value": 127}, "group": "control_change"}, {"time": 767, "annotation": {"number": 64, "value": 0}, "group": "control_change"}, {"time": 768, "annotation": {"number": 64, "value": 127}, "group": "control_change"}, {"time": 769, "annotation": {"number": 64, "value": 127}, "group": "control_change"}, {"time": 791, "annotation": {"number": 64, "value": 0}, "group": "control_change"}, {"time": 793, "annotation": {"number": 64, "value": 127}, "group": "control_change"}, {"time": 815, "annotation": {"number": 64, "value": 0}, "group": "control_change"}, {"time": 816, "annotation": {"number": 64, "value": 127}, "group": "control_change"}, {"time": 839, "annotation": {"number": 64, "value": 0}, "group": "control_change"}, {"time": 840, "annotation": {"number": 64, "value": 127}, "group": "control_change"}, {"time": 863, "annotation": {"number": 64, "value": 0}, "group": "control_change"}, {"time": 864, "annotation": {"number": 64, "value": 127}, "group": "control_change"}, {"time": 887, "annotation": {"number": 64, "value": 0}, "group": "control_change"}, {"time": 889, "annotation": {"number": 64, "value": 127}, "group": "control_change"}, {"time": 911, "annotation": {"number": 64, "value": 0}, "group": "control_change"}, {"time": 912, "annotation": {"number": 64, "value": 127}, "group": "control_change"}, {"time": 932, "annotation": {"number": 64, "value": 0}, "group": "control_change"}, {"time": 937, "annotation": {"number": 64, "value": 127}, "group": "control_change"}, {"time": 960, "annotation": {"number": 64, "value": 0}, "group": "control_change"}, {"time": 960, "annotation": {"number": 64, "value": 127}, "group": "control_change"}, {"time": 968, "annotation": {"number": 64, "value": 0}, "group": "control_change"}, {"time": 969, "annotation": {"number": 64, "value": 127}, "group": "control_change"}, {"time": 983, "annotation": {"number": 64, "value": 0}, "group": "control_change"}, {"time": 984, "annotation": {"number": 64, "value": 127}, "group": "control_change"}, {"time": 1007, "annotation": {"number": 64, "value": 0}, "group": "control_change"}, {"time": 1009, "annotation": {"number": 64, "value": 127}, "group": "control_change"}, {"time": 1032, "annotation": {"number": 64, "value": 0}, "group": "control_change"}, {"time": 1033, "annotation": {"number": 64, "value": 127}, "group": "control_change"}, {"time": 1055, "annotation": {"number": 64, "value": 0}, "group": "control_change"}, {"time": 1057, "annotation": {"number": 64, "value": 127}, "group": "control_change"}, {"time": 1079, "annotation": {"number": 64, "value": 0}, "group": "control_change"}, {"time": 1081, "annotation": {"number": 64, "value": 127}, "group": "control_change"}, {"time": 1126, "annotation": {"number": 64, "value": 0}, "group": "control_change"}, {"time": 1129, "annotation": {"number": 64, "value": 127}, "group": "control_change"}, {"time": 1151, "annotation": {"number": 64, "value": 0}, "group": "control_change"}, {"time": 1152, "annotation": {"number": 64, "value": 127}, "group": "control_change"}, {"time": 1175, "annotation": {"number": 64, "value": 0}, "group": "control_change"}, {"time": 1177, "annotation": {"number": 64, "value": 127}, "group": "control_change"}, {"time": 1199, "annotation": {"number": 64, "value": 0}, "group": "control_change"}, {"time": 1201, "annotation": {"number": 64, "value": 127}, "group": "control_change"}, {"time": 1223, "annotation": {"number": 64, "value": 0}, "group": "control_change"}, {"time": 1225, "annotation": {"number": 64, "value": 127}, "group": "control_change"}, {"time": 1247, "annotation": {"number": 64, "value": 0}, "group": "control_change"}, {"time": 1248, "annotation": {"number": 64, "value": 127}, "group": "control_change"}, {"time": 1271, "annotation": {"number": 64, "value": 0}, "group": "control_change"}, {"time": 1273, "annotation": {"number": 64, "value": 127}, "group": "control_change"}, {"time": 1295, "annotation": {"number": 64, "value": 0}, "group": "control_change"}, {"time": 1297, "annotation": {"number": 64, "value": 127}, "group": "control_change"}, {"time": 1319, "annotation": {"number": 64, "value": 0}, "group": "control_change"}, {"time": 1321, "annotation": {"number": 64, "value": 127}, "group": "control_change"}, {"time": 1343, "annotation": {"number": 64, "value": 0}, "group": "control_change"}, {"time": 1344, "annotation": {"number": 64, "value": 127}, "group": "control_change"}, {"time": 1367, "annotation": {"number": 64, "value": 0}, "group": "control_change"}, {"time": 1369, "annotation": {"number": 64, "value": 127}, "group": "control_change"}, {"time": 1391, "annotation": {"number": 64, "value": 0}, "group": "control_change"}, {"time": 1393, "annotation": {"number": 64, "value": 127}, "group": "control_change"}, {"time": 1415, "annotation": {"number": 64, "value": 0}, "group": "control_change"}, {"time": 1417, "annotation": {"number": 64, "value": 127}, "group": "control_change"}, {"time": 1439, "annotation": {"number": 64, "value": 0}, "group": "control_change"}, {"time": 1441, "annotation": {"number": 64, "value": 127}, "group": "control_change"}, {"time": 1463, "annotation": {"number": 64, "value": 0}, "group": "control_change"}, {"time": 1465, "annotation": {"number": 64, "value": 127}, "group": "control_change"}, {"time": 1483, "annotation": {"number": 64, "value": 127}, "group": "control_change"}, {"time": 1486, "annotation": {"number": 64, "value": 0}, "group": "control_change"}, {"time": 1488, "annotation": {"number": 64, "value": 0}, "group": "control_change"}, {"time": 1492, "annotation": {"number": 64, "value": 127}, "group": "control_change"}, {"time": 1493, "annotation": {"number": 64, "value": 0}, "group": "control_change"}, {"time": 1512, "annotation": {"number": 64, "value": 127}, "group": "control_change"}, {"time": 1534, "annotation": {"number": 64, "value": 0}, "group": "control_change"}, {"time": 1536, "annotation": {"number": 64, "value": 127}, "group": "control_change"}, {"time": 1559, "annotation": {"number": 64, "value": 0}, "group": "control_change"}, {"time": 1560, "annotation": {"number": 64, "value": 127}, "group": "control_change"}, {"time": 1582, "annotation": {"number": 64, "value": 0}, "group": "control_change"}, {"time": 1584, "annotation": {"number": 64, "value": 127}, "group": "control_change"}, {"time": 1607, "annotation": {"number": 64, "value": 0}, "group": "control_change"}, {"time": 1609, "annotation": {"number": 64, "value": 127}, "group": "control_change"}, {"time": 1630, "annotation": {"number": 64, "value": 0}, "group": "control_change"}, {"time": 1632, "annotation": {"number": 64, "value": 127}, "group": "control_change"}, {"time": 1654, "annotation": {"number": 64, "value": 0}, "group": "control_change"}, {"time": 1656, "annotation": {"number": 64, "value": 127}, "group": "control_change"}, {"time": 1679, "annotation": {"number": 64, "value": 0}, "group": "control_change"}, {"time": 1680, "annotation": {"number": 64, "value": 127}, "group": "control_change"}, {"time": 1681, "annotation": {"number": 64, "value": 127}, "group": "control_change"}, {"time": 1703, "annotation": {"number": 64, "value": 0}, "group": "control_change"}, {"time": 1705, "annotation": {"number": 64, "value": 127}, "group": "control_change"}, {"time": 1727, "annotation": {"number": 64, "value": 0}, "group": "control_change"}, {"time": 1728, "annotation": {"number": 64, "value": 127}, "group": "control_change"}, {"time": 1751, "annotation": {"number": 64, "value": 0}, "group": "control_change"}, {"time": 1752, "annotation": {"number": 64, "value": 127}, "group": "control_change"}, {"time": 1775, "annotation": {"number": 64, "value": 0}, "group": "control_change"}, {"time": 1776, "annotation": {"number": 64, "value": 127}, "group": "control_change"}, {"time": 1799, "annotation": {"number": 64, "value": 0}, "group": "control_change"}, {"time": 1801, "annotation": {"number": 64, "value": 127}, "group": "control_change"}, {"time": 1823, "annotation": {"number": 64, "value": 0}, "group": "control_change"}, {"time": 1824, "annotation": {"number": 64, "value": 127}, "group": "control_change"}, {"time": 1844, "annotation": {"number": 64, "value": 0}, "group": "control_change"}, {"time": 1849, "annotation": {"number": 64, "value": 127}, "group": "control_change"}, {"time": 1872, "annotation": {"number": 64, "value": 0}, "group": "control_change"}, {"time": 1872, "annotation": {"number": 64, "value": 127}, "group": "control_change"}, {"time": 1874, "annotation": {"number": 64, "value": 127}, "group": "control_change"}, {"time": 1895, "annotation": {"number": 64, "value": 0}, "group": "control_change"}, {"time": 1897, "annotation": {"number": 64, "value": 127}, "group": "control_change"}, {"time": 1919, "annotation": {"number": 64, "value": 0}, "group": "control_change"}, {"time": 1921, "annotation": {"number": 64, "value": 127}, "group": "control_change"}, {"time": 1943, "annotation": {"number": 64, "value": 0}, "group": "control_change"}, {"time": 1945, "annotation": {"number": 64, "value": 127}, "group": "control_change"}, {"time": 1967, "annotation": {"number": 64, "value": 0}, "group": "control_change"}, {"time": 1969, "annotation": {"number": 64, "value": 127}, "group": "control_change"}, {"time": 1991, "annotation": {"number": 64, "value": 0}, "group": "control_change"}, {"time": 1993, "annotation": {"number": 64, "value": 127}, "group": "control_change"}, {"time": 2015, "annotation": {"number": 64, "value": 0}, "group": "control_change"}, {"time": 2017, "annotation": {"number": 64, "value": 127}, "group": "control_change"}, {"time": 2039, "annotation": {"number": 64, "value": 0}, "group": "control_change"}, {"time": 2041, "annotation": {"number": 64, "value": 127}, "group": "control_change"}, {"time": 2063, "annotation": {"number": 64, "value": 0}, "group": "control_change"}, {"time": 2064, "annotation": {"number": 64, "value": 127}, "group": "control_change"}, {"time": 2087, "annotation": {"number": 64, "value": 0}, "group": "control_change"}, {"time": 2089, "annotation": {"number": 64, "value": 127}, "group": "control_change"}, {"time": 2111, "annotation": {"number": 64, "value": 0}, "group": "control_change"}, {"time": 2112, "annotation": {"number": 64, "value": 127}, "group": "control_change"}, {"time": 2135, "annotation": {"number": 64, "value": 0}, "group": "control_change"}, {"time": 2136, "annotation": {"number": 64, "value": 127}, "group": "control_change"}, {"time": 2159, "annotation": {"number": 64, "value": 0}, "group": "control_change"}, {"time": 2160, "annotation": {"number": 64, "value": 127}, "group": "control_change"}, {"time": 2183, "annotation": {"number": 64, "value": 0}, "group": "control_change"}, {"time": 2185, "annotation": {"number": 64, "value": 127}, "group": "control_change"}, {"time": 2207, "annotation": {"number": 64, "value": 0}, "group": "control_change"}, {"time": 2208, "annotation": {"number": 64, "value": 127}, "group": "control_change"}, {"time": 2228, "annotation": {"number": 64, "value": 0}, "group": "control_change"}, {"time": 2235, "annotation": {"number": 64, "value": 127}, "group": "control_change"}, {"time": 2254, "annotation": {"number": 64, "value": 0}, "group": "control_change"}, {"time": 2257, "annotation": {"number": 64, "value": 127}, "group": "control_change"}, {"time": 2279, "annotation": {"number": 64, "value": 0}, "group": "control_change"}, {"time": 2281, "annotation": {"number": 64, "value": 127}, "group": "control_change"}, {"time": 2303, "annotation": {"number": 64, "value": 0}, "group": "control_change"}, {"time": 2305, "annotation": {"number": 64, "value": 127}, "group": "control_change"}, {"time": 2327, "annotation": {"number": 64, "value": 0}, "group": "control_change"}, {"time": 2329, "annotation": {"number": 64, "value": 127}, "group": "control_change"}, {"time": 2351, "annotation": {"number": 64, "value": 0}, "group": "control_change"}, {"time": 2353, "annotation": {"number": 64, "value": 127}, "group": "control_change"}, {"time": 2375, "annotation": {"number": 64, "value": 0}, "group": "control_change"}, {"time": 2377, "annotation": {"number": 64, "value": 127}, "group": "control_change"}, {"time": 2400, "annotation": {"number": 64, "value": 0}, "group": "control_change"}, {"time": 2401, "annotation": {"number": 64, "value": 127}, "group": "control_change"}, {"time": 2424, "annotation": {"number": 64, "value": 0}, "group": "control_change"}, {"time": 2439, "annotation": {"number": 64, "value": 127}, "group": "control_change"}, {"time": 2444, "annotation": {"number": 64, "value": 0}, "group": "control_change"}, {"time": 2454, "annotation": {"number": 64, "value": 127}, "group": "control_change"}, {"time": 2470, "annotation": {"number": 64, "value": 0}, "group": "control_change"}, {"time": 2471, "annotation": {"number": 64, "value": 127}, "group": "control_change"}, {"time": 2472, "annotation": {"number": 64, "value": 0}, "group": "control_change"}, {"time": 2473, "annotation": {"number": 64, "value": 127}, "group": "control_change"}, {"time": 2476, "annotation": {"number": 64, "value": 0}, "group": "control_change"}]}]}