{"metadata": {"schema_version": "0.2", "title": "None", "source_filename": "727.mid", "source_format": "midi"}, "resolution": 12, "tempos": [{"time": 0, "qpm": 80.99997165000993}], "time_signatures": [{"time": 0, "numerator": 1, "denominator": 4}], "tracks": [{"program": 0, "is_drum": false, "name": "MELODY", "notes": [{"time": 496, "pitch": 56, "duration": 6, "velocity": 96}, {"time": 502, "pitch": 58, "duration": 6, "velocity": 82}, {"time": 508, "pitch": 61, "duration": 15, "velocity": 100}, {"time": 526, "pitch": 61, "duration": 3, "velocity": 88}, {"time": 532, "pitch": 61, "duration": 10, "velocity": 89}, {"time": 544, "pitch": 63, "duration": 4, "velocity": 97}, {"time": 550, "pitch": 65, "duration": 3, "velocity": 86}, {"time": 556, "pitch": 63, "duration": 8, "velocity": 100}, {"time": 568, "pitch": 61, "duration": 14, "velocity": 88}, {"time": 592, "pitch": 61, "duration": 3, "velocity": 96}, {"time": 598, "pitch": 63, "duration": 3, "velocity": 97}, {"time": 604, "pitch": 65, "duration": 13, "velocity": 97}, {"time": 622, "pitch": 63, "duration": 3, "velocity": 107}, {"time": 628, "pitch": 61, "duration": 6, "velocity": 96}, {"time": 634, "pitch": 65, "duration": 4, "velocity": 95}, {"time": 640, "pitch": 68, "duration": 3, "velocity": 96}, {"time": 646, "pitch": 68, "duration": 18, "velocity": 95}, {"time": 688, "pitch": 65, "duration": 2, "velocity": 96}, {"time": 694, "pitch": 68, "duration": 2, "velocity": 97}, {"time": 700, "pitch": 68, "duration": 10, "velocity": 99}, {"time": 718, "pitch": 65, "duration": 2, "velocity": 97}, {"time": 724, "pitch": 65, "duration": 7, "velocity": 90}, {"time": 736, "pitch": 63, "duration": 5, "velocity": 95}, {"time": 742, "pitch": 61, "duration": 5, "velocity": 81}, {"time": 748, "pitch": 63, "duration": 4, "velocity": 100}, {"time": 754, "pitch": 65, "duration": 3, "velocity": 93}, {"time": 760, "pitch": 58, "duration": 14, "velocity": 86}, {"time": 784, "pitch": 58, "duration": 5, "velocity": 90}, {"time": 790, "pitch": 61, "duration": 3, "velocity": 93}, {"time": 796, "pitch": 63, "duration": 13, "velocity": 90}, {"time": 814, "pitch": 65, "duration": 2, "velocity": 97}, {"time": 820, "pitch": 63, "duration": 6, "velocity": 99}, {"time": 826, "pitch": 61, "duration": 3, "velocity": 82}, {"time": 838, "pitch": 58, "duration": 5, "velocity": 85}, {"time": 844, "pitch": 63, "duration": 25, "velocity": 90}, {"time": 880, "pitch": 56, "duration": 6, "velocity": 96}, {"time": 886, "pitch": 58, "duration": 6, "velocity": 82}, {"time": 892, "pitch": 61, "duration": 15, "velocity": 100}, {"time": 910, "pitch": 61, "duration": 3, "velocity": 88}, {"time": 916, "pitch": 61, "duration": 5, "velocity": 89}, {"time": 922, "pitch": 61, "duration": 3, "velocity": 97}, {"time": 928, "pitch": 63, "duration": 4, "velocity": 97}, {"time": 934, "pitch": 65, "duration": 3, "velocity": 86}, {"time": 940, "pitch": 63, "duration": 8, "velocity": 100}, {"time": 952, "pitch": 61, "duration": 14, "velocity": 88}, {"time": 976, "pitch": 61, "duration": 3, "velocity": 96}, {"time": 982, "pitch": 63, "duration": 3, "velocity": 97}, {"time": 988, "pitch": 65, "duration": 13, "velocity": 97}, {"time": 1006, "pitch": 63, "duration": 3, "velocity": 107}, {"time": 1012, "pitch": 61, "duration": 6, "velocity": 96}, {"time": 1018, "pitch": 65, "duration": 4, "velocity": 95}, {"time": 1024, "pitch": 68, "duration": 2, "velocity": 96}, {"time": 1033, "pitch": 68, "duration": 18, "velocity": 95}, {"time": 1072, "pitch": 65, "duration": 2, "velocity": 96}, {"time": 1078, "pitch": 68, "duration": 2, "velocity": 97}, {"time": 1084, "pitch": 68, "duration": 10, "velocity": 99}, {"time": 1102, "pitch": 65, "duration": 2, "velocity": 97}, {"time": 1108, "pitch": 65, "duration": 7, "velocity": 90}, {"time": 1120, "pitch": 63, "duration": 5, "velocity": 95}, {"time": 1126, "pitch": 61, "duration": 5, "velocity": 81}, {"time": 1132, "pitch": 63, "duration": 4, "velocity": 100}, {"time": 1138, "pitch": 65, "duration": 3, "velocity": 93}, {"time": 1144, "pitch": 58, "duration": 14, "velocity": 86}, {"time": 1168, "pitch": 58, "duration": 5, "velocity": 90}, {"time": 1174, "pitch": 61, "duration": 3, "velocity": 93}, {"time": 1180, "pitch": 63, "duration": 13, "velocity": 90}, {"time": 1198, "pitch": 65, "duration": 2, "velocity": 97}, {"time": 1204, "pitch": 63, "duration": 6, "velocity": 99}, {"time": 1210, "pitch": 61, "duration": 3, "velocity": 82}, {"time": 1222, "pitch": 63, "duration": 6, "velocity": 100}, {"time": 1228, "pitch": 61, "duration": 25, "velocity": 99}, {"time": 1264, "pitch": 61, "duration": 3, "velocity": 107}, {"time": 1270, "pitch": 61, "duration": 4, "velocity": 100}, {"time": 1276, "pitch": 70, "duration": 12, "velocity": 127}, {"time": 1294, "pitch": 61, "duration": 5, "velocity": 127}, {"time": 1300, "pitch": 60, "duration": 6, "velocity": 122}, {"time": 1306, "pitch": 61, "duration": 5, "velocity": 127}, {"time": 1312, "pitch": 70, "duration": 4, "velocity": 122}, {"time": 1318, "pitch": 72, "duration": 7, "velocity": 117}, {"time": 1330, "pitch": 68, "duration": 14, "velocity": 122}, {"time": 1360, "pitch": 66, "duration": 4, "velocity": 112}, {"time": 1366, "pitch": 65, "duration": 4, "velocity": 102}, {"time": 1372, "pitch": 66, "duration": 11, "velocity": 107}, {"time": 1390, "pitch": 66, "duration": 3, "velocity": 107}, {"time": 1396, "pitch": 65, "duration": 4, "velocity": 102}, {"time": 1402, "pitch": 69, "duration": 4, "velocity": 127}, {"time": 1414, "pitch": 63, "duration": 3, "velocity": 107}, {"time": 1420, "pitch": 63, "duration": 6, "velocity": 112}, {"time": 1426, "pitch": 61, "duration": 16, "velocity": 83}, {"time": 1450, "pitch": 61, "duration": 3, "velocity": 102}, {"time": 1456, "pitch": 63, "duration": 4, "velocity": 112}, {"time": 1462, "pitch": 65, "duration": 3, "velocity": 117}, {"time": 1468, "pitch": 63, "duration": 11, "velocity": 127}, {"time": 1486, "pitch": 63, "duration": 2, "velocity": 99}, {"time": 1492, "pitch": 63, "duration": 4, "velocity": 102}, {"time": 1498, "pitch": 65, "duration": 3, "velocity": 99}, {"time": 1504, "pitch": 66, "duration": 4, "velocity": 100}, {"time": 1510, "pitch": 63, "duration": 4, "velocity": 97}, {"time": 1516, "pitch": 65, "duration": 5, "velocity": 102}, {"time": 1522, "pitch": 68, "duration": 3, "velocity": 107}, {"time": 1528, "pitch": 68, "duration": 5, "velocity": 102}, {"time": 1534, "pitch": 65, "duration": 4, "velocity": 107}, {"time": 1540, "pitch": 73, "duration": 14, "velocity": 127}, {"time": 1558, "pitch": 73, "duration": 2, "velocity": 127}, {"time": 1561, "pitch": 72, "duration": 2, "velocity": 89}, {"time": 1564, "pitch": 70, "duration": 9, "velocity": 99}, {"time": 1582, "pitch": 70, "duration": 3, "velocity": 127}, {"time": 1588, "pitch": 70, "duration": 4, "velocity": 122}, {"time": 1594, "pitch": 72, "duration": 3, "velocity": 107}, {"time": 1600, "pitch": 70, "duration": 4, "velocity": 112}, {"time": 1606, "pitch": 72, "duration": 4, "velocity": 117}, {"time": 1612, "pitch": 68, "duration": 12, "velocity": 102}, {"time": 1624, "pitch": 70, "duration": 8, "velocity": 122}, {"time": 1636, "pitch": 72, "duration": 5, "velocity": 127}, {"time": 1642, "pitch": 68, "duration": 4, "velocity": 107}, {"time": 1648, "pitch": 73, "duration": 4, "velocity": 127}, {"time": 1654, "pitch": 72, "duration": 4, "velocity": 117}, {"time": 1660, "pitch": 70, "duration": 7, "velocity": 112}, {"time": 1678, "pitch": 65, "duration": 4, "velocity": 100}, {"time": 1684, "pitch": 66, "duration": 4, "velocity": 112}, {"time": 1690, "pitch": 68, "duration": 5, "velocity": 122}, {"time": 1702, "pitch": 70, "duration": 4, "velocity": 122}, {"time": 1708, "pitch": 68, "duration": 8, "velocity": 117}, {"time": 1720, "pitch": 65, "duration": 2, "velocity": 107}, {"time": 1726, "pitch": 63, "duration": 2, "velocity": 100}, {"time": 1732, "pitch": 61, "duration": 7, "velocity": 93}, {"time": 1744, "pitch": 58, "duration": 5, "velocity": 102}, {"time": 1750, "pitch": 61, "duration": 4, "velocity": 99}, {"time": 1756, "pitch": 66, "duration": 10, "velocity": 99}, {"time": 1774, "pitch": 68, "duration": 1, "velocity": 122}, {"time": 1780, "pitch": 65, "duration": 8, "velocity": 112}, {"time": 1786, "pitch": 63, "duration": 6, "velocity": 107}, {"time": 1792, "pitch": 61, "duration": 2, "velocity": 117}, {"time": 1804, "pitch": 63, "duration": 5, "velocity": 107}, {"time": 1810, "pitch": 61, "duration": 23, "velocity": 92}, {"time": 1984, "pitch": 56, "duration": 6, "velocity": 96}, {"time": 1990, "pitch": 58, "duration": 6, "velocity": 82}, {"time": 1996, "pitch": 61, "duration": 15, "velocity": 100}, {"time": 2014, "pitch": 61, "duration": 3, "velocity": 88}, {"time": 2020, "pitch": 61, "duration": 5, "velocity": 89}, {"time": 2026, "pitch": 61, "duration": 3, "velocity": 97}, {"time": 2032, "pitch": 63, "duration": 4, "velocity": 97}, {"time": 2038, "pitch": 65, "duration": 3, "velocity": 86}, {"time": 2044, "pitch": 63, "duration": 8, "velocity": 100}, {"time": 2056, "pitch": 61, "duration": 14, "velocity": 88}, {"time": 2080, "pitch": 61, "duration": 3, "velocity": 96}, {"time": 2086, "pitch": 63, "duration": 3, "velocity": 97}, {"time": 2092, "pitch": 65, "duration": 13, "velocity": 97}, {"time": 2110, "pitch": 63, "duration": 3, "velocity": 107}, {"time": 2116, "pitch": 61, "duration": 6, "velocity": 96}, {"time": 2122, "pitch": 65, "duration": 4, "velocity": 95}, {"time": 2129, "pitch": 68, "duration": 3, "velocity": 96}, {"time": 2134, "pitch": 68, "duration": 18, "velocity": 95}, {"time": 2176, "pitch": 65, "duration": 2, "velocity": 96}, {"time": 2182, "pitch": 68, "duration": 2, "velocity": 97}, {"time": 2188, "pitch": 68, "duration": 10, "velocity": 99}, {"time": 2206, "pitch": 65, "duration": 2, "velocity": 97}, {"time": 2212, "pitch": 65, "duration": 7, "velocity": 90}, {"time": 2224, "pitch": 63, "duration": 5, "velocity": 95}, {"time": 2230, "pitch": 61, "duration": 5, "velocity": 81}, {"time": 2236, "pitch": 63, "duration": 4, "velocity": 100}, {"time": 2242, "pitch": 65, "duration": 3, "velocity": 93}, {"time": 2248, "pitch": 58, "duration": 14, "velocity": 86}, {"time": 2272, "pitch": 58, "duration": 5, "velocity": 90}, {"time": 2278, "pitch": 61, "duration": 3, "velocity": 93}, {"time": 2284, "pitch": 63, "duration": 13, "velocity": 90}, {"time": 2302, "pitch": 65, "duration": 2, "velocity": 97}, {"time": 2308, "pitch": 63, "duration": 6, "velocity": 99}, {"time": 2314, "pitch": 61, "duration": 3, "velocity": 82}, {"time": 2326, "pitch": 63, "duration": 6, "velocity": 100}, {"time": 2332, "pitch": 61, "duration": 25, "velocity": 99}, {"time": 2368, "pitch": 61, "duration": 3, "velocity": 107}, {"time": 2374, "pitch": 61, "duration": 4, "velocity": 100}, {"time": 2380, "pitch": 70, "duration": 12, "velocity": 127}, {"time": 2398, "pitch": 61, "duration": 5, "velocity": 127}, {"time": 2404, "pitch": 60, "duration": 6, "velocity": 122}, {"time": 2410, "pitch": 61, "duration": 5, "velocity": 127}, {"time": 2416, "pitch": 70, "duration": 4, "velocity": 122}, {"time": 2422, "pitch": 72, "duration": 7, "velocity": 117}, {"time": 2434, "pitch": 68, "duration": 14, "velocity": 122}, {"time": 2464, "pitch": 66, "duration": 4, "velocity": 112}, {"time": 2470, "pitch": 65, "duration": 4, "velocity": 102}, {"time": 2476, "pitch": 66, "duration": 11, "velocity": 107}, {"time": 2494, "pitch": 66, "duration": 3, "velocity": 107}, {"time": 2500, "pitch": 65, "duration": 4, "velocity": 102}, {"time": 2506, "pitch": 69, "duration": 4, "velocity": 127}, {"time": 2518, "pitch": 63, "duration": 3, "velocity": 107}, {"time": 2524, "pitch": 63, "duration": 6, "velocity": 112}, {"time": 2530, "pitch": 61, "duration": 16, "velocity": 83}, {"time": 2554, "pitch": 61, "duration": 3, "velocity": 102}, {"time": 2560, "pitch": 63, "duration": 4, "velocity": 112}, {"time": 2566, "pitch": 65, "duration": 3, "velocity": 117}, {"time": 2572, "pitch": 63, "duration": 11, "velocity": 127}, {"time": 2590, "pitch": 63, "duration": 2, "velocity": 99}, {"time": 2596, "pitch": 63, "duration": 4, "velocity": 102}, {"time": 2602, "pitch": 65, "duration": 3, "velocity": 99}, {"time": 2608, "pitch": 66, "duration": 4, "velocity": 100}, {"time": 2614, "pitch": 63, "duration": 4, "velocity": 97}, {"time": 2620, "pitch": 65, "duration": 5, "velocity": 102}, {"time": 2626, "pitch": 68, "duration": 3, "velocity": 107}, {"time": 2632, "pitch": 68, "duration": 5, "velocity": 102}, {"time": 2638, "pitch": 65, "duration": 4, "velocity": 107}, {"time": 2644, "pitch": 73, "duration": 14, "velocity": 127}, {"time": 2662, "pitch": 73, "duration": 2, "velocity": 127}, {"time": 2665, "pitch": 72, "duration": 2, "velocity": 89}, {"time": 2668, "pitch": 70, "duration": 9, "velocity": 99}, {"time": 2686, "pitch": 70, "duration": 3, "velocity": 127}, {"time": 2692, "pitch": 70, "duration": 4, "velocity": 122}, {"time": 2698, "pitch": 72, "duration": 3, "velocity": 107}, {"time": 2704, "pitch": 70, "duration": 4, "velocity": 112}, {"time": 2710, "pitch": 72, "duration": 4, "velocity": 117}, {"time": 2716, "pitch": 68, "duration": 12, "velocity": 102}, {"time": 2728, "pitch": 70, "duration": 8, "velocity": 122}, {"time": 2740, "pitch": 72, "duration": 5, "velocity": 127}, {"time": 2746, "pitch": 68, "duration": 4, "velocity": 107}, {"time": 2752, "pitch": 73, "duration": 4, "velocity": 127}, {"time": 2758, "pitch": 72, "duration": 4, "velocity": 117}, {"time": 2764, "pitch": 70, "duration": 7, "velocity": 112}, {"time": 2782, "pitch": 65, "duration": 4, "velocity": 100}, {"time": 2788, "pitch": 66, "duration": 4, "velocity": 112}, {"time": 2794, "pitch": 68, "duration": 5, "velocity": 122}, {"time": 2806, "pitch": 70, "duration": 4, "velocity": 122}, {"time": 2812, "pitch": 68, "duration": 8, "velocity": 117}, {"time": 2824, "pitch": 65, "duration": 2, "velocity": 107}, {"time": 2830, "pitch": 63, "duration": 2, "velocity": 100}, {"time": 2836, "pitch": 61, "duration": 7, "velocity": 93}, {"time": 2848, "pitch": 58, "duration": 5, "velocity": 102}, {"time": 2854, "pitch": 61, "duration": 4, "velocity": 99}, {"time": 2860, "pitch": 66, "duration": 10, "velocity": 99}, {"time": 2878, "pitch": 68, "duration": 1, "velocity": 89}, {"time": 2884, "pitch": 65, "duration": 8, "velocity": 89}, {"time": 2890, "pitch": 63, "duration": 6, "velocity": 89}, {"time": 2918, "pitch": 63, "duration": 5, "velocity": 107}, {"time": 2924, "pitch": 61, "duration": 24, "velocity": 92}, {"time": 3376, "pitch": 61, "duration": 3, "velocity": 107}, {"time": 3382, "pitch": 61, "duration": 4, "velocity": 100}, {"time": 3388, "pitch": 70, "duration": 12, "velocity": 127}, {"time": 3406, "pitch": 61, "duration": 5, "velocity": 127}, {"time": 3412, "pitch": 60, "duration": 6, "velocity": 122}, {"time": 3418, "pitch": 61, "duration": 5, "velocity": 127}, {"time": 3424, "pitch": 70, "duration": 4, "velocity": 122}, {"time": 3430, "pitch": 72, "duration": 7, "velocity": 117}, {"time": 3442, "pitch": 68, "duration": 14, "velocity": 122}, {"time": 3472, "pitch": 66, "duration": 4, "velocity": 112}, {"time": 3478, "pitch": 65, "duration": 4, "velocity": 102}, {"time": 3484, "pitch": 66, "duration": 11, "velocity": 107}, {"time": 3502, "pitch": 66, "duration": 3, "velocity": 107}, {"time": 3508, "pitch": 65, "duration": 4, "velocity": 102}, {"time": 3514, "pitch": 69, "duration": 4, "velocity": 127}, {"time": 3526, "pitch": 63, "duration": 3, "velocity": 107}, {"time": 3532, "pitch": 63, "duration": 6, "velocity": 112}, {"time": 3538, "pitch": 61, "duration": 16, "velocity": 83}, {"time": 3562, "pitch": 61, "duration": 3, "velocity": 102}, {"time": 3568, "pitch": 63, "duration": 4, "velocity": 112}, {"time": 3574, "pitch": 65, "duration": 3, "velocity": 117}, {"time": 3580, "pitch": 63, "duration": 11, "velocity": 127}, {"time": 3598, "pitch": 63, "duration": 2, "velocity": 99}, {"time": 3604, "pitch": 63, "duration": 4, "velocity": 102}, {"time": 3610, "pitch": 65, "duration": 3, "velocity": 99}, {"time": 3616, "pitch": 66, "duration": 4, "velocity": 100}, {"time": 3622, "pitch": 63, "duration": 4, "velocity": 97}, {"time": 3628, "pitch": 65, "duration": 5, "velocity": 102}, {"time": 3634, "pitch": 68, "duration": 3, "velocity": 107}, {"time": 3640, "pitch": 68, "duration": 5, "velocity": 102}, {"time": 3646, "pitch": 65, "duration": 4, "velocity": 107}, {"time": 3652, "pitch": 73, "duration": 14, "velocity": 127}, {"time": 3670, "pitch": 73, "duration": 2, "velocity": 127}, {"time": 3673, "pitch": 72, "duration": 2, "velocity": 89}, {"time": 3676, "pitch": 70, "duration": 9, "velocity": 99}, {"time": 3694, "pitch": 70, "duration": 3, "velocity": 127}, {"time": 3700, "pitch": 70, "duration": 4, "velocity": 122}, {"time": 3706, "pitch": 72, "duration": 3, "velocity": 107}, {"time": 3712, "pitch": 70, "duration": 4, "velocity": 112}, {"time": 3718, "pitch": 72, "duration": 4, "velocity": 117}, {"time": 3724, "pitch": 68, "duration": 12, "velocity": 102}, {"time": 3736, "pitch": 70, "duration": 8, "velocity": 122}, {"time": 3748, "pitch": 72, "duration": 5, "velocity": 127}, {"time": 3754, "pitch": 68, "duration": 4, "velocity": 107}, {"time": 3760, "pitch": 73, "duration": 4, "velocity": 127}, {"time": 3766, "pitch": 72, "duration": 4, "velocity": 117}, {"time": 3772, "pitch": 70, "duration": 7, "velocity": 112}, {"time": 3790, "pitch": 65, "duration": 4, "velocity": 100}, {"time": 3796, "pitch": 66, "duration": 4, "velocity": 112}, {"time": 3802, "pitch": 68, "duration": 5, "velocity": 122}, {"time": 3814, "pitch": 70, "duration": 4, "velocity": 122}, {"time": 3820, "pitch": 68, "duration": 8, "velocity": 117}, {"time": 3832, "pitch": 65, "duration": 2, "velocity": 107}, {"time": 3838, "pitch": 63, "duration": 2, "velocity": 100}, {"time": 3844, "pitch": 61, "duration": 7, "velocity": 93}, {"time": 3856, "pitch": 58, "duration": 5, "velocity": 102}, {"time": 3862, "pitch": 61, "duration": 4, "velocity": 99}, {"time": 3868, "pitch": 66, "duration": 10, "velocity": 99}, {"time": 3886, "pitch": 68, "duration": 1, "velocity": 122}, {"time": 3892, "pitch": 65, "duration": 8, "velocity": 112}, {"time": 3898, "pitch": 63, "duration": 6, "velocity": 107}, {"time": 3904, "pitch": 61, "duration": 2, "velocity": 117}, {"time": 3937, "pitch": 63, "duration": 13, "velocity": 112}, {"time": 3958, "pitch": 61, "duration": 32, "velocity": 112}]}, {"program": 0, "is_drum": false, "name": "BRIDGE", "notes": [{"time": 19, "pitch": 61, "duration": 3, "velocity": 100}, {"time": 22, "pitch": 63, "duration": 4, "velocity": 77}, {"time": 26, "pitch": 65, "duration": 4, "velocity": 90}, {"time": 29, "pitch": 66, "duration": 6, "velocity": 100}, {"time": 33, "pitch": 72, "duration": 8, "velocity": 122}, {"time": 41, "pitch": 70, "duration": 17, "velocity": 97}, {"time": 53, "pitch": 68, "duration": 10, "velocity": 99}, {"time": 63, "pitch": 70, "duration": 15, "velocity": 96}, {"time": 74, "pitch": 68, "duration": 15, "velocity": 93}, {"time": 98, "pitch": 71, "duration": 9, "velocity": 117}, {"time": 107, "pitch": 70, "duration": 7, "velocity": 112}, {"time": 113, "pitch": 68, "duration": 8, "velocity": 88}, {"time": 120, "pitch": 65, "duration": 9, "velocity": 89}, {"time": 129, "pitch": 68, "duration": 9, "velocity": 97}, {"time": 137, "pitch": 66, "duration": 10, "velocity": 107}, {"time": 145, "pitch": 65, "duration": 8, "velocity": 86}, {"time": 152, "pitch": 66, "duration": 9, "velocity": 96}, {"time": 161, "pitch": 77, "duration": 14, "velocity": 95}, {"time": 178, "pitch": 75, "duration": 23, "velocity": 82}, {"time": 201, "pitch": 78, "duration": 16, "velocity": 102}, {"time": 217, "pitch": 77, "duration": 30, "velocity": 117}, {"time": 243, "pitch": 80, "duration": 70, "velocity": 100}, {"time": 321, "pitch": 89, "duration": 7, "velocity": 100}, {"time": 327, "pitch": 90, "duration": 6, "velocity": 100}, {"time": 333, "pitch": 92, "duration": 6, "velocity": 97}, {"time": 339, "pitch": 80, "duration": 11, "velocity": 89}, {"time": 357, "pitch": 87, "duration": 4, "velocity": 117}, {"time": 363, "pitch": 85, "duration": 12, "velocity": 102}, {"time": 418, "pitch": 89, "duration": 5, "velocity": 122}, {"time": 424, "pitch": 90, "duration": 5, "velocity": 102}, {"time": 429, "pitch": 92, "duration": 7, "velocity": 86}, {"time": 435, "pitch": 80, "duration": 11, "velocity": 79}, {"time": 453, "pitch": 89, "duration": 6, "velocity": 112}, {"time": 459, "pitch": 87, "duration": 19, "velocity": 99}, {"time": 856, "pitch": 61, "duration": 10, "velocity": 93}, {"time": 868, "pitch": 60, "duration": 5, "velocity": 92}, {"time": 874, "pitch": 61, "duration": 6, "velocity": 71}, {"time": 880, "pitch": 63, "duration": 14, "velocity": 71}, {"time": 892, "pitch": 65, "duration": 15, "velocity": 69}, {"time": 1036, "pitch": 80, "duration": 32, "velocity": 112}, {"time": 1240, "pitch": 73, "duration": 12, "velocity": 100}, {"time": 1252, "pitch": 75, "duration": 12, "velocity": 112}, {"time": 1264, "pitch": 77, "duration": 13, "velocity": 112}, {"time": 1276, "pitch": 82, "duration": 29, "velocity": 107}, {"time": 1780, "pitch": 77, "duration": 13, "velocity": 97}, {"time": 1792, "pitch": 75, "duration": 12, "velocity": 89}, {"time": 1804, "pitch": 73, "duration": 20, "velocity": 86}, {"time": 1804, "pitch": 85, "duration": 5, "velocity": 122}, {"time": 1810, "pitch": 84, "duration": 6, "velocity": 90}, {"time": 1816, "pitch": 80, "duration": 6, "velocity": 99}, {"time": 1822, "pitch": 75, "duration": 9, "velocity": 100}, {"time": 1828, "pitch": 84, "duration": 6, "velocity": 102}, {"time": 1834, "pitch": 85, "duration": 6, "velocity": 95}, {"time": 1840, "pitch": 84, "duration": 7, "velocity": 99}, {"time": 1846, "pitch": 80, "duration": 10, "velocity": 75}, {"time": 1855, "pitch": 75, "duration": 25, "velocity": 82}, {"time": 1894, "pitch": 84, "duration": 3, "velocity": 100}, {"time": 1897, "pitch": 85, "duration": 3, "velocity": 100}, {"time": 1900, "pitch": 87, "duration": 5, "velocity": 112}, {"time": 1906, "pitch": 85, "duration": 5, "velocity": 112}, {"time": 1912, "pitch": 80, "duration": 6, "velocity": 102}, {"time": 1918, "pitch": 75, "duration": 18, "velocity": 99}, {"time": 1954, "pitch": 56, "duration": 1, "velocity": 81}, {"time": 1954, "pitch": 58, "duration": 1, "velocity": 92}, {"time": 1954, "pitch": 60, "duration": 1, "velocity": 96}, {"time": 1954, "pitch": 63, "duration": 1, "velocity": 89}, {"time": 1960, "pitch": 56, "duration": 9, "velocity": 93}, {"time": 1960, "pitch": 58, "duration": 9, "velocity": 99}, {"time": 1960, "pitch": 60, "duration": 9, "velocity": 97}, {"time": 1960, "pitch": 63, "duration": 10, "velocity": 95}, {"time": 1964, "pitch": 42, "duration": 1, "velocity": 41}, {"time": 1965, "pitch": 44, "duration": 1, "velocity": 42}, {"time": 1965, "pitch": 46, "duration": 1, "velocity": 45}, {"time": 1966, "pitch": 48, "duration": 1, "velocity": 49}, {"time": 1966, "pitch": 49, "duration": 1, "velocity": 52}, {"time": 1967, "pitch": 51, "duration": 1, "velocity": 56}, {"time": 1967, "pitch": 53, "duration": 1, "velocity": 57}, {"time": 1968, "pitch": 54, "duration": 1, "velocity": 58}, {"time": 1968, "pitch": 56, "duration": 1, "velocity": 59}, {"time": 1968, "pitch": 58, "duration": 1, "velocity": 61}, {"time": 1969, "pitch": 60, "duration": 1, "velocity": 61}, {"time": 1969, "pitch": 61, "duration": 1, "velocity": 61}, {"time": 1970, "pitch": 63, "duration": 1, "velocity": 62}, {"time": 1970, "pitch": 65, "duration": 1, "velocity": 63}, {"time": 1970, "pitch": 66, "duration": 1, "velocity": 63}, {"time": 1971, "pitch": 68, "duration": 1, "velocity": 64}, {"time": 1971, "pitch": 70, "duration": 1, "velocity": 64}, {"time": 1972, "pitch": 72, "duration": 1, "velocity": 64}, {"time": 1972, "pitch": 73, "duration": 1, "velocity": 66}, {"time": 1972, "pitch": 75, "duration": 1, "velocity": 66}, {"time": 1973, "pitch": 77, "duration": 1, "velocity": 67}, {"time": 1973, "pitch": 78, "duration": 1, "velocity": 67}, {"time": 1973, "pitch": 80, "duration": 1, "velocity": 67}, {"time": 1974, "pitch": 82, "duration": 1, "velocity": 67}, {"time": 1974, "pitch": 84, "duration": 1, "velocity": 67}, {"time": 1975, "pitch": 85, "duration": 1, "velocity": 67}, {"time": 1975, "pitch": 87, "duration": 1, "velocity": 67}, {"time": 1975, "pitch": 89, "duration": 1, "velocity": 67}, {"time": 1976, "pitch": 90, "duration": 1, "velocity": 66}, {"time": 1976, "pitch": 92, "duration": 1, "velocity": 65}, {"time": 1977, "pitch": 94, "duration": 1, "velocity": 64}, {"time": 1977, "pitch": 96, "duration": 1, "velocity": 63}, {"time": 1977, "pitch": 97, "duration": 1, "velocity": 62}, {"time": 1978, "pitch": 87, "duration": 1, "velocity": 60}, {"time": 1978, "pitch": 85, "duration": 1, "velocity": 60}, {"time": 1979, "pitch": 84, "duration": 1, "velocity": 59}, {"time": 1979, "pitch": 82, "duration": 1, "velocity": 59}, {"time": 1980, "pitch": 80, "duration": 1, "velocity": 59}, {"time": 1980, "pitch": 78, "duration": 1, "velocity": 58}, {"time": 1981, "pitch": 77, "duration": 1, "velocity": 58}, {"time": 1981, "pitch": 75, "duration": 1, "velocity": 57}, {"time": 1982, "pitch": 73, "duration": 1, "velocity": 56}, {"time": 1982, "pitch": 72, "duration": 1, "velocity": 55}, {"time": 1983, "pitch": 70, "duration": 1, "velocity": 55}, {"time": 1983, "pitch": 68, "duration": 1, "velocity": 54}, {"time": 1984, "pitch": 66, "duration": 1, "velocity": 54}, {"time": 1984, "pitch": 65, "duration": 1, "velocity": 53}, {"time": 1985, "pitch": 63, "duration": 1, "velocity": 52}, {"time": 1985, "pitch": 61, "duration": 1, "velocity": 49}, {"time": 1986, "pitch": 60, "duration": 1, "velocity": 49}, {"time": 1986, "pitch": 58, "duration": 1, "velocity": 48}, {"time": 1987, "pitch": 56, "duration": 1, "velocity": 46}, {"time": 1988, "pitch": 54, "duration": 1, "velocity": 46}, {"time": 1988, "pitch": 53, "duration": 1, "velocity": 44}, {"time": 2140, "pitch": 80, "duration": 17, "velocity": 102}, {"time": 2158, "pitch": 77, "duration": 13, "velocity": 90}, {"time": 2344, "pitch": 73, "duration": 12, "velocity": 96}, {"time": 2356, "pitch": 75, "duration": 12, "velocity": 107}, {"time": 2368, "pitch": 77, "duration": 13, "velocity": 99}, {"time": 2380, "pitch": 82, "duration": 20, "velocity": 102}, {"time": 2866, "pitch": 77, "duration": 11, "velocity": 97}, {"time": 2878, "pitch": 78, "duration": 7, "velocity": 92}, {"time": 2884, "pitch": 80, "duration": 20, "velocity": 117}, {"time": 2896, "pitch": 75, "duration": 12, "velocity": 92}, {"time": 2908, "pitch": 73, "duration": 25, "velocity": 93}, {"time": 2944, "pitch": 56, "duration": 5, "velocity": 107}, {"time": 2950, "pitch": 58, "duration": 6, "velocity": 102}, {"time": 2956, "pitch": 61, "duration": 15, "velocity": 107}, {"time": 2974, "pitch": 61, "duration": 4, "velocity": 127}, {"time": 2980, "pitch": 61, "duration": 7, "velocity": 112}, {"time": 2992, "pitch": 63, "duration": 5, "velocity": 107}, {"time": 2998, "pitch": 65, "duration": 5, "velocity": 107}, {"time": 3004, "pitch": 63, "duration": 5, "velocity": 112}, {"time": 3010, "pitch": 61, "duration": 4, "velocity": 90}, {"time": 3016, "pitch": 61, "duration": 19, "velocity": 92}, {"time": 3040, "pitch": 61, "duration": 5, "velocity": 107}, {"time": 3046, "pitch": 63, "duration": 5, "velocity": 100}, {"time": 3052, "pitch": 65, "duration": 10, "velocity": 117}, {"time": 3070, "pitch": 63, "duration": 5, "velocity": 127}, {"time": 3076, "pitch": 61, "duration": 6, "velocity": 100}, {"time": 3082, "pitch": 65, "duration": 5, "velocity": 112}, {"time": 3088, "pitch": 68, "duration": 3, "velocity": 100}, {"time": 3094, "pitch": 68, "duration": 4, "velocity": 112}, {"time": 3100, "pitch": 68, "duration": 18, "velocity": 107}, {"time": 3136, "pitch": 65, "duration": 6, "velocity": 102}, {"time": 3142, "pitch": 68, "duration": 4, "velocity": 102}, {"time": 3148, "pitch": 68, "duration": 11, "velocity": 99}, {"time": 3166, "pitch": 65, "duration": 3, "velocity": 117}, {"time": 3172, "pitch": 65, "duration": 8, "velocity": 102}, {"time": 3184, "pitch": 63, "duration": 6, "velocity": 112}, {"time": 3190, "pitch": 61, "duration": 5, "velocity": 99}, {"time": 3196, "pitch": 63, "duration": 5, "velocity": 117}, {"time": 3202, "pitch": 65, "duration": 5, "velocity": 93}, {"time": 3208, "pitch": 58, "duration": 4, "velocity": 96}, {"time": 3214, "pitch": 58, "duration": 16, "velocity": 99}, {"time": 3232, "pitch": 58, "duration": 4, "velocity": 107}, {"time": 3238, "pitch": 61, "duration": 5, "velocity": 92}, {"time": 3244, "pitch": 63, "duration": 14, "velocity": 100}, {"time": 3259, "pitch": 65, "duration": 6, "velocity": 100}, {"time": 3268, "pitch": 63, "duration": 7, "velocity": 102}, {"time": 3274, "pitch": 61, "duration": 4, "velocity": 97}, {"time": 3280, "pitch": 61, "duration": 5, "velocity": 97}, {"time": 3286, "pitch": 63, "duration": 5, "velocity": 97}, {"time": 3292, "pitch": 61, "duration": 21, "velocity": 107}, {"time": 3328, "pitch": 65, "duration": 10, "velocity": 112}, {"time": 3340, "pitch": 70, "duration": 12, "velocity": 117}, {"time": 3352, "pitch": 68, "duration": 9, "velocity": 112}, {"time": 3364, "pitch": 75, "duration": 11, "velocity": 127}, {"time": 3376, "pitch": 73, "duration": 13, "velocity": 127}, {"time": 3940, "pitch": 80, "duration": 14, "velocity": 107}, {"time": 3957, "pitch": 68, "duration": 6, "velocity": 102}, {"time": 3963, "pitch": 72, "duration": 12, "velocity": 117}, {"time": 3971, "pitch": 73, "duration": 10, "velocity": 102}, {"time": 3981, "pitch": 84, "duration": 6, "velocity": 117}, {"time": 3987, "pitch": 80, "duration": 21, "velocity": 112}, {"time": 4010, "pitch": 77, "duration": 14, "velocity": 90}, {"time": 4030, "pitch": 75, "duration": 2, "velocity": 97}, {"time": 4033, "pitch": 77, "duration": 3, "velocity": 75}, {"time": 4036, "pitch": 78, "duration": 12, "velocity": 97}, {"time": 4036, "pitch": 78, "duration": 12, "velocity": 102}, {"time": 4060, "pitch": 75, "duration": 27, "velocity": 99}, {"time": 4089, "pitch": 78, "duration": 16, "velocity": 107}, {"time": 4104, "pitch": 77, "duration": 38, "velocity": 117}, {"time": 4138, "pitch": 78, "duration": 38, "velocity": 95}, {"time": 4178, "pitch": 80, "duration": 72, "velocity": 117}]}, {"program": 0, "is_drum": false, "name": "PIANO", "notes": [{"time": 34, "pitch": 66, "duration": 30, "velocity": 96}, {"time": 67, "pitch": 65, "duration": 25, "velocity": 93}, {"time": 91, "pitch": 59, "duration": 7, "velocity": 77}, {"time": 100, "pitch": 46, "duration": 27, "velocity": 68}, {"time": 100, "pitch": 58, "duration": 20, "velocity": 71}, {"time": 127, "pitch": 51, "duration": 37, "velocity": 82}, {"time": 127, "pitch": 63, "duration": 37, "velocity": 85}, {"time": 166, "pitch": 56, "duration": 46, "velocity": 75}, {"time": 166, "pitch": 68, "duration": 45, "velocity": 77}, {"time": 211, "pitch": 56, "duration": 1, "velocity": 43}, {"time": 211, "pitch": 68, "duration": 1, "velocity": 47}, {"time": 211, "pitch": 80, "duration": 35, "velocity": 48}, {"time": 247, "pitch": 68, "duration": 68, "velocity": 75}, {"time": 247, "pitch": 80, "duration": 68, "velocity": 78}, {"time": 250, "pitch": 56, "duration": 68, "velocity": 67}, {"time": 316, "pitch": 37, "duration": 18, "velocity": 78}, {"time": 322, "pitch": 44, "duration": 17, "velocity": 50}, {"time": 328, "pitch": 49, "duration": 11, "velocity": 57}, {"time": 328, "pitch": 65, "duration": 12, "velocity": 86}, {"time": 334, "pitch": 61, "duration": 8, "velocity": 64}, {"time": 340, "pitch": 39, "duration": 16, "velocity": 70}, {"time": 346, "pitch": 46, "duration": 10, "velocity": 52}, {"time": 352, "pitch": 58, "duration": 13, "velocity": 69}, {"time": 352, "pitch": 63, "duration": 12, "velocity": 76}, {"time": 364, "pitch": 41, "duration": 15, "velocity": 72}, {"time": 370, "pitch": 48, "duration": 11, "velocity": 52}, {"time": 376, "pitch": 56, "duration": 12, "velocity": 65}, {"time": 376, "pitch": 60, "duration": 13, "velocity": 58}, {"time": 388, "pitch": 42, "duration": 17, "velocity": 66}, {"time": 394, "pitch": 49, "duration": 9, "velocity": 56}, {"time": 400, "pitch": 58, "duration": 12, "velocity": 82}, {"time": 400, "pitch": 61, "duration": 12, "velocity": 77}, {"time": 406, "pitch": 54, "duration": 7, "velocity": 66}, {"time": 412, "pitch": 37, "duration": 15, "velocity": 86}, {"time": 418, "pitch": 44, "duration": 9, "velocity": 40}, {"time": 424, "pitch": 61, "duration": 13, "velocity": 107}, {"time": 424, "pitch": 65, "duration": 14, "velocity": 93}, {"time": 430, "pitch": 56, "duration": 6, "velocity": 59}, {"time": 436, "pitch": 46, "duration": 23, "velocity": 73}, {"time": 442, "pitch": 53, "duration": 10, "velocity": 79}, {"time": 448, "pitch": 61, "duration": 12, "velocity": 90}, {"time": 454, "pitch": 58, "duration": 7, "velocity": 69}, {"time": 460, "pitch": 44, "duration": 38, "velocity": 78}, {"time": 466, "pitch": 51, "duration": 30, "velocity": 69}, {"time": 472, "pitch": 56, "duration": 36, "velocity": 69}, {"time": 478, "pitch": 60, "duration": 30, "velocity": 56}, {"time": 484, "pitch": 63, "duration": 24, "velocity": 66}, {"time": 508, "pitch": 37, "duration": 20, "velocity": 78}, {"time": 514, "pitch": 44, "duration": 17, "velocity": 44}, {"time": 520, "pitch": 56, "duration": 1, "velocity": 42}, {"time": 520, "pitch": 61, "duration": 18, "velocity": 79}, {"time": 526, "pitch": 56, "duration": 3, "velocity": 67}, {"time": 532, "pitch": 39, "duration": 21, "velocity": 65}, {"time": 544, "pitch": 58, "duration": 2, "velocity": 43}, {"time": 544, "pitch": 63, "duration": 11, "velocity": 88}, {"time": 550, "pitch": 58, "duration": 7, "velocity": 69}, {"time": 556, "pitch": 41, "duration": 15, "velocity": 69}, {"time": 562, "pitch": 53, "duration": 7, "velocity": 44}, {"time": 568, "pitch": 56, "duration": 13, "velocity": 66}, {"time": 568, "pitch": 60, "duration": 13, "velocity": 69}, {"time": 574, "pitch": 53, "duration": 6, "velocity": 57}, {"time": 577, "pitch": 42, "duration": 15, "velocity": 72}, {"time": 586, "pitch": 49, "duration": 8, "velocity": 56}, {"time": 592, "pitch": 58, "duration": 12, "velocity": 86}, {"time": 592, "pitch": 61, "duration": 12, "velocity": 86}, {"time": 598, "pitch": 54, "duration": 6, "velocity": 65}, {"time": 604, "pitch": 49, "duration": 22, "velocity": 68}, {"time": 610, "pitch": 56, "duration": 18, "velocity": 79}, {"time": 616, "pitch": 65, "duration": 16, "velocity": 86}, {"time": 622, "pitch": 61, "duration": 10, "velocity": 68}, {"time": 628, "pitch": 46, "duration": 22, "velocity": 73}, {"time": 634, "pitch": 53, "duration": 9, "velocity": 69}, {"time": 640, "pitch": 61, "duration": 14, "velocity": 71}, {"time": 640, "pitch": 65, "duration": 14, "velocity": 76}, {"time": 646, "pitch": 58, "duration": 6, "velocity": 55}, {"time": 652, "pitch": 44, "duration": 40, "velocity": 79}, {"time": 658, "pitch": 51, "duration": 29, "velocity": 46}, {"time": 664, "pitch": 56, "duration": 4, "velocity": 65}, {"time": 670, "pitch": 60, "duration": 30, "velocity": 68}, {"time": 676, "pitch": 56, "duration": 15, "velocity": 81}, {"time": 688, "pitch": 63, "duration": 11, "velocity": 77}, {"time": 694, "pitch": 56, "duration": 6, "velocity": 58}, {"time": 700, "pitch": 37, "duration": 17, "velocity": 82}, {"time": 706, "pitch": 44, "duration": 12, "velocity": 48}, {"time": 712, "pitch": 61, "duration": 13, "velocity": 86}, {"time": 712, "pitch": 65, "duration": 13, "velocity": 90}, {"time": 718, "pitch": 56, "duration": 10, "velocity": 66}, {"time": 724, "pitch": 41, "duration": 22, "velocity": 77}, {"time": 730, "pitch": 48, "duration": 18, "velocity": 53}, {"time": 736, "pitch": 60, "duration": 13, "velocity": 81}, {"time": 742, "pitch": 53, "duration": 6, "velocity": 78}, {"time": 748, "pitch": 42, "duration": 37, "velocity": 57}, {"time": 754, "pitch": 49, "duration": 21, "velocity": 62}, {"time": 760, "pitch": 58, "duration": 22, "velocity": 69}, {"time": 760, "pitch": 61, "duration": 21, "velocity": 78}, {"time": 766, "pitch": 54, "duration": 19, "velocity": 68}, {"time": 778, "pitch": 49, "duration": 6, "velocity": 42}, {"time": 784, "pitch": 58, "duration": 12, "velocity": 56}, {"time": 784, "pitch": 61, "duration": 13, "velocity": 76}, {"time": 790, "pitch": 54, "duration": 6, "velocity": 43}, {"time": 796, "pitch": 39, "duration": 38, "velocity": 69}, {"time": 802, "pitch": 46, "duration": 33, "velocity": 45}, {"time": 808, "pitch": 63, "duration": 16, "velocity": 81}, {"time": 808, "pitch": 66, "duration": 17, "velocity": 79}, {"time": 814, "pitch": 58, "duration": 29, "velocity": 75}, {"time": 820, "pitch": 51, "duration": 14, "velocity": 44}, {"time": 826, "pitch": 63, "duration": 7, "velocity": 64}, {"time": 832, "pitch": 66, "duration": 13, "velocity": 82}, {"time": 838, "pitch": 63, "duration": 6, "velocity": 48}, {"time": 844, "pitch": 44, "duration": 37, "velocity": 62}, {"time": 850, "pitch": 51, "duration": 22, "velocity": 48}, {"time": 856, "pitch": 56, "duration": 9, "velocity": 90}, {"time": 862, "pitch": 60, "duration": 18, "velocity": 82}, {"time": 868, "pitch": 68, "duration": 23, "velocity": 93}, {"time": 874, "pitch": 51, "duration": 5, "velocity": 49}, {"time": 880, "pitch": 63, "duration": 11, "velocity": 88}, {"time": 886, "pitch": 60, "duration": 6, "velocity": 77}, {"time": 892, "pitch": 37, "duration": 38, "velocity": 99}, {"time": 898, "pitch": 44, "duration": 31, "velocity": 58}, {"time": 904, "pitch": 49, "duration": 14, "velocity": 96}, {"time": 910, "pitch": 56, "duration": 31, "velocity": 89}, {"time": 916, "pitch": 61, "duration": 14, "velocity": 97}, {"time": 916, "pitch": 65, "duration": 26, "velocity": 97}, {"time": 922, "pitch": 49, "duration": 17, "velocity": 79}, {"time": 928, "pitch": 60, "duration": 13, "velocity": 93}, {"time": 934, "pitch": 61, "duration": 8, "velocity": 57}, {"time": 940, "pitch": 42, "duration": 41, "velocity": 75}, {"time": 946, "pitch": 49, "duration": 35, "velocity": 58}, {"time": 952, "pitch": 54, "duration": 15, "velocity": 83}, {"time": 958, "pitch": 58, "duration": 32, "velocity": 85}, {"time": 958, "pitch": 61, "duration": 5, "velocity": 34}, {"time": 964, "pitch": 65, "duration": 26, "velocity": 96}, {"time": 970, "pitch": 54, "duration": 6, "velocity": 76}, {"time": 976, "pitch": 61, "duration": 1, "velocity": 29}, {"time": 976, "pitch": 66, "duration": 13, "velocity": 69}, {"time": 982, "pitch": 63, "duration": 7, "velocity": 51}, {"time": 988, "pitch": 37, "duration": 41, "velocity": 81}, {"time": 994, "pitch": 44, "duration": 35, "velocity": 50}, {"time": 1000, "pitch": 49, "duration": 14, "velocity": 102}, {"time": 1006, "pitch": 56, "duration": 19, "velocity": 82}, {"time": 1012, "pitch": 65, "duration": 26, "velocity": 99}, {"time": 1018, "pitch": 49, "duration": 11, "velocity": 62}, {"time": 1024, "pitch": 61, "duration": 14, "velocity": 99}, {"time": 1030, "pitch": 56, "duration": 7, "velocity": 63}, {"time": 1036, "pitch": 44, "duration": 35, "velocity": 71}, {"time": 1042, "pitch": 51, "duration": 29, "velocity": 44}, {"time": 1048, "pitch": 56, "duration": 14, "velocity": 89}, {"time": 1054, "pitch": 60, "duration": 14, "velocity": 67}, {"time": 1060, "pitch": 68, "duration": 21, "velocity": 99}, {"time": 1066, "pitch": 56, "duration": 3, "velocity": 76}, {"time": 1069, "pitch": 63, "duration": 11, "velocity": 92}, {"time": 1075, "pitch": 60, "duration": 7, "velocity": 74}, {"time": 1084, "pitch": 37, "duration": 40, "velocity": 69}, {"time": 1090, "pitch": 44, "duration": 33, "velocity": 52}, {"time": 1093, "pitch": 49, "duration": 5, "velocity": 60}, {"time": 1096, "pitch": 59, "duration": 21, "velocity": 77}, {"time": 1096, "pitch": 61, "duration": 21, "velocity": 82}, {"time": 1096, "pitch": 65, "duration": 20, "velocity": 82}, {"time": 1102, "pitch": 49, "duration": 8, "velocity": 66}, {"time": 1108, "pitch": 56, "duration": 11, "velocity": 85}, {"time": 1114, "pitch": 49, "duration": 16, "velocity": 78}, {"time": 1120, "pitch": 59, "duration": 1, "velocity": 69}, {"time": 1120, "pitch": 61, "duration": 13, "velocity": 95}, {"time": 1120, "pitch": 65, "duration": 14, "velocity": 86}, {"time": 1126, "pitch": 59, "duration": 6, "velocity": 69}, {"time": 1132, "pitch": 42, "duration": 39, "velocity": 72}, {"time": 1138, "pitch": 49, "duration": 32, "velocity": 47}, {"time": 1144, "pitch": 54, "duration": 14, "velocity": 95}, {"time": 1150, "pitch": 58, "duration": 19, "velocity": 85}, {"time": 1156, "pitch": 66, "duration": 24, "velocity": 112}, {"time": 1162, "pitch": 54, "duration": 5, "velocity": 85}, {"time": 1168, "pitch": 61, "duration": 12, "velocity": 97}, {"time": 1174, "pitch": 58, "duration": 9, "velocity": 82}, {"time": 1180, "pitch": 39, "duration": 15, "velocity": 55}, {"time": 1186, "pitch": 46, "duration": 10, "velocity": 52}, {"time": 1192, "pitch": 51, "duration": 10, "velocity": 79}, {"time": 1192, "pitch": 63, "duration": 11, "velocity": 89}, {"time": 1198, "pitch": 58, "duration": 7, "velocity": 76}, {"time": 1204, "pitch": 44, "duration": 15, "velocity": 73}, {"time": 1210, "pitch": 51, "duration": 8, "velocity": 88}, {"time": 1216, "pitch": 63, "duration": 11, "velocity": 107}, {"time": 1222, "pitch": 60, "duration": 5, "velocity": 90}, {"time": 1228, "pitch": 37, "duration": 18, "velocity": 95}, {"time": 1234, "pitch": 44, "duration": 39, "velocity": 62}, {"time": 1240, "pitch": 49, "duration": 15, "velocity": 93}, {"time": 1246, "pitch": 37, "duration": 6, "velocity": 100}, {"time": 1246, "pitch": 56, "duration": 16, "velocity": 74}, {"time": 1252, "pitch": 37, "duration": 6, "velocity": 100}, {"time": 1252, "pitch": 61, "duration": 10, "velocity": 90}, {"time": 1252, "pitch": 65, "duration": 10, "velocity": 96}, {"time": 1258, "pitch": 37, "duration": 6, "velocity": 100}, {"time": 1258, "pitch": 49, "duration": 9, "velocity": 69}, {"time": 1264, "pitch": 37, "duration": 6, "velocity": 100}, {"time": 1264, "pitch": 56, "duration": 12, "velocity": 83}, {"time": 1264, "pitch": 61, "duration": 12, "velocity": 93}, {"time": 1264, "pitch": 65, "duration": 12, "velocity": 89}, {"time": 1270, "pitch": 37, "duration": 6, "velocity": 100}, {"time": 1276, "pitch": 42, "duration": 15, "velocity": 88}, {"time": 1282, "pitch": 49, "duration": 18, "velocity": 77}, {"time": 1288, "pitch": 54, "duration": 7, "velocity": 96}, {"time": 1288, "pitch": 61, "duration": 4, "velocity": 69}, {"time": 1288, "pitch": 66, "duration": 8, "velocity": 97}, {"time": 1288, "pitch": 70, "duration": 7, "velocity": 102}, {"time": 1294, "pitch": 42, "duration": 6, "velocity": 84}, {"time": 1300, "pitch": 44, "duration": 10, "velocity": 89}, {"time": 1306, "pitch": 51, "duration": 8, "velocity": 83}, {"time": 1312, "pitch": 42, "duration": 10, "velocity": 93}, {"time": 1324, "pitch": 41, "duration": 16, "velocity": 97}, {"time": 1330, "pitch": 48, "duration": 10, "velocity": 60}, {"time": 1336, "pitch": 53, "duration": 8, "velocity": 95}, {"time": 1336, "pitch": 65, "duration": 11, "velocity": 100}, {"time": 1336, "pitch": 68, "duration": 11, "velocity": 99}, {"time": 1342, "pitch": 60, "duration": 8, "velocity": 95}, {"time": 1348, "pitch": 46, "duration": 13, "velocity": 102}, {"time": 1354, "pitch": 53, "duration": 7, "velocity": 96}, {"time": 1360, "pitch": 61, "duration": 6, "velocity": 100}, {"time": 1360, "pitch": 65, "duration": 10, "velocity": 99}, {"time": 1366, "pitch": 58, "duration": 5, "velocity": 102}, {"time": 1372, "pitch": 39, "duration": 22, "velocity": 92}, {"time": 1378, "pitch": 46, "duration": 17, "velocity": 51}, {"time": 1384, "pitch": 51, "duration": 7, "velocity": 82}, {"time": 1384, "pitch": 63, "duration": 12, "velocity": 107}, {"time": 1384, "pitch": 66, "duration": 11, "velocity": 100}, {"time": 1390, "pitch": 58, "duration": 6, "velocity": 90}, {"time": 1396, "pitch": 41, "duration": 17, "velocity": 89}, {"time": 1402, "pitch": 48, "duration": 8, "velocity": 83}, {"time": 1408, "pitch": 53, "duration": 4, "velocity": 95}, {"time": 1408, "pitch": 57, "duration": 11, "velocity": 99}, {"time": 1408, "pitch": 60, "duration": 11, "velocity": 92}, {"time": 1408, "pitch": 63, "duration": 12, "velocity": 89}, {"time": 1414, "pitch": 53, "duration": 4, "velocity": 86}, {"time": 1420, "pitch": 46, "duration": 23, "velocity": 99}, {"time": 1426, "pitch": 53, "duration": 8, "velocity": 100}, {"time": 1432, "pitch": 58, "duration": 3, "velocity": 89}, {"time": 1432, "pitch": 61, "duration": 12, "velocity": 102}, {"time": 1432, "pitch": 65, "duration": 13, "velocity": 97}, {"time": 1438, "pitch": 53, "duration": 6, "velocity": 88}, {"time": 1444, "pitch": 46, "duration": 16, "velocity": 93}, {"time": 1444, "pitch": 58, "duration": 3, "velocity": 107}, {"time": 1450, "pitch": 53, "duration": 10, "velocity": 92}, {"time": 1453, "pitch": 58, "duration": 2, "velocity": 100}, {"time": 1453, "pitch": 65, "duration": 4, "velocity": 78}, {"time": 1456, "pitch": 70, "duration": 6, "velocity": 102}, {"time": 1456, "pitch": 73, "duration": 10, "velocity": 100}, {"time": 1459, "pitch": 58, "duration": 1, "velocity": 100}, {"time": 1462, "pitch": 65, "duration": 6, "velocity": 112}, {"time": 1465, "pitch": 70, "duration": 2, "velocity": 96}, {"time": 1468, "pitch": 39, "duration": 18, "velocity": 90}, {"time": 1474, "pitch": 46, "duration": 12, "velocity": 50}, {"time": 1480, "pitch": 51, "duration": 9, "velocity": 86}, {"time": 1480, "pitch": 66, "duration": 11, "velocity": 93}, {"time": 1480, "pitch": 70, "duration": 10, "velocity": 96}, {"time": 1486, "pitch": 63, "duration": 6, "velocity": 96}, {"time": 1492, "pitch": 44, "duration": 10, "velocity": 93}, {"time": 1498, "pitch": 51, "duration": 4, "velocity": 88}, {"time": 1504, "pitch": 42, "duration": 11, "velocity": 102}, {"time": 1510, "pitch": 66, "duration": 5, "velocity": 117}, {"time": 1516, "pitch": 41, "duration": 18, "velocity": 75}, {"time": 1522, "pitch": 48, "duration": 12, "velocity": 73}, {"time": 1528, "pitch": 53, "duration": 12, "velocity": 79}, {"time": 1528, "pitch": 60, "duration": 1, "velocity": 81}, {"time": 1528, "pitch": 65, "duration": 13, "velocity": 97}, {"time": 1528, "pitch": 68, "duration": 13, "velocity": 96}, {"time": 1534, "pitch": 60, "duration": 8, "velocity": 97}, {"time": 1540, "pitch": 46, "duration": 20, "velocity": 78}, {"time": 1546, "pitch": 53, "duration": 6, "velocity": 97}, {"time": 1552, "pitch": 53, "duration": 1, "velocity": 112}, {"time": 1552, "pitch": 61, "duration": 12, "velocity": 112}, {"time": 1552, "pitch": 65, "duration": 12, "velocity": 100}, {"time": 1564, "pitch": 39, "duration": 18, "velocity": 99}, {"time": 1570, "pitch": 46, "duration": 18, "velocity": 77}, {"time": 1576, "pitch": 58, "duration": 2, "velocity": 92}, {"time": 1576, "pitch": 63, "duration": 7, "velocity": 92}, {"time": 1576, "pitch": 67, "duration": 7, "velocity": 92}, {"time": 1582, "pitch": 39, "duration": 3, "velocity": 100}, {"time": 1582, "pitch": 51, "duration": 6, "velocity": 85}, {"time": 1588, "pitch": 39, "duration": 15, "velocity": 86}, {"time": 1588, "pitch": 58, "duration": 12, "velocity": 100}, {"time": 1588, "pitch": 63, "duration": 12, "velocity": 95}, {"time": 1588, "pitch": 67, "duration": 12, "velocity": 102}, {"time": 1594, "pitch": 46, "duration": 10, "velocity": 71}, {"time": 1600, "pitch": 51, "duration": 6, "velocity": 86}, {"time": 1600, "pitch": 63, "duration": 1, "velocity": 86}, {"time": 1600, "pitch": 67, "duration": 1, "velocity": 86}, {"time": 1606, "pitch": 58, "duration": 6, "velocity": 97}, {"time": 1612, "pitch": 44, "duration": 22, "velocity": 96}, {"time": 1618, "pitch": 51, "duration": 9, "velocity": 78}, {"time": 1624, "pitch": 56, "duration": 4, "velocity": 95}, {"time": 1624, "pitch": 60, "duration": 3, "velocity": 99}, {"time": 1624, "pitch": 63, "duration": 9, "velocity": 107}, {"time": 1630, "pitch": 51, "duration": 4, "velocity": 77}, {"time": 1633, "pitch": 56, "duration": 2, "velocity": 93}, {"time": 1636, "pitch": 44, "duration": 12, "velocity": 97}, {"time": 1636, "pitch": 56, "duration": 8, "velocity": 93}, {"time": 1636, "pitch": 60, "duration": 8, "velocity": 97}, {"time": 1636, "pitch": 63, "duration": 8, "velocity": 100}, {"time": 1648, "pitch": 44, "duration": 12, "velocity": 100}, {"time": 1648, "pitch": 56, "duration": 5, "velocity": 102}, {"time": 1648, "pitch": 60, "duration": 5, "velocity": 97}, {"time": 1648, "pitch": 63, "duration": 5, "velocity": 96}, {"time": 1654, "pitch": 51, "duration": 9, "velocity": 68}, {"time": 1660, "pitch": 46, "duration": 16, "velocity": 81}, {"time": 1666, "pitch": 53, "duration": 9, "velocity": 93}, {"time": 1672, "pitch": 58, "duration": 8, "velocity": 97}, {"time": 1672, "pitch": 61, "duration": 16, "velocity": 93}, {"time": 1672, "pitch": 65, "duration": 16, "velocity": 92}, {"time": 1684, "pitch": 42, "duration": 21, "velocity": 88}, {"time": 1690, "pitch": 49, "duration": 16, "velocity": 78}, {"time": 1696, "pitch": 54, "duration": 5, "velocity": 83}, {"time": 1696, "pitch": 58, "duration": 6, "velocity": 93}, {"time": 1696, "pitch": 61, "duration": 11, "velocity": 97}, {"time": 1708, "pitch": 41, "duration": 23, "velocity": 89}, {"time": 1714, "pitch": 48, "duration": 16, "velocity": 74}, {"time": 1720, "pitch": 53, "duration": 6, "velocity": 95}, {"time": 1720, "pitch": 56, "duration": 12, "velocity": 89}, {"time": 1720, "pitch": 60, "duration": 12, "velocity": 86}, {"time": 1732, "pitch": 46, "duration": 14, "velocity": 68}, {"time": 1738, "pitch": 53, "duration": 9, "velocity": 66}, {"time": 1744, "pitch": 58, "duration": 4, "velocity": 73}, {"time": 1744, "pitch": 61, "duration": 2, "velocity": 75}, {"time": 1744, "pitch": 65, "duration": 12, "velocity": 90}, {"time": 1750, "pitch": 53, "duration": 5, "velocity": 64}, {"time": 1756, "pitch": 39, "duration": 14, "velocity": 71}, {"time": 1762, "pitch": 46, "duration": 8, "velocity": 57}, {"time": 1768, "pitch": 51, "duration": 11, "velocity": 78}, {"time": 1768, "pitch": 58, "duration": 6, "velocity": 64}, {"time": 1768, "pitch": 66, "duration": 12, "velocity": 85}, {"time": 1774, "pitch": 63, "duration": 5, "velocity": 74}, {"time": 1780, "pitch": 44, "duration": 17, "velocity": 83}, {"time": 1792, "pitch": 60, "duration": 12, "velocity": 66}, {"time": 1792, "pitch": 63, "duration": 12, "velocity": 69}, {"time": 1804, "pitch": 37, "duration": 45, "velocity": 75}, {"time": 1810, "pitch": 44, "duration": 40, "velocity": 40}, {"time": 1816, "pitch": 61, "duration": 23, "velocity": 72}, {"time": 1816, "pitch": 65, "duration": 22, "velocity": 67}, {"time": 1822, "pitch": 49, "duration": 23, "velocity": 65}, {"time": 1840, "pitch": 65, "duration": 10, "velocity": 78}, {"time": 1846, "pitch": 56, "duration": 4, "velocity": 45}, {"time": 1852, "pitch": 37, "duration": 45, "velocity": 64}, {"time": 1852, "pitch": 56, "duration": 15, "velocity": 67}, {"time": 1852, "pitch": 60, "duration": 15, "velocity": 79}, {"time": 1852, "pitch": 61, "duration": 15, "velocity": 83}, {"time": 1852, "pitch": 65, "duration": 15, "velocity": 79}, {"time": 1858, "pitch": 44, "duration": 42, "velocity": 35}, {"time": 1864, "pitch": 49, "duration": 36, "velocity": 49}, {"time": 1870, "pitch": 56, "duration": 27, "velocity": 63}, {"time": 1870, "pitch": 60, "duration": 27, "velocity": 70}, {"time": 1870, "pitch": 61, "duration": 27, "velocity": 65}, {"time": 1870, "pitch": 65, "duration": 27, "velocity": 68}, {"time": 1900, "pitch": 37, "duration": 58, "velocity": 75}, {"time": 1900, "pitch": 56, "duration": 12, "velocity": 61}, {"time": 1900, "pitch": 60, "duration": 14, "velocity": 56}, {"time": 1900, "pitch": 61, "duration": 15, "velocity": 63}, {"time": 1900, "pitch": 65, "duration": 15, "velocity": 63}, {"time": 1906, "pitch": 44, "duration": 50, "velocity": 37}, {"time": 1912, "pitch": 49, "duration": 14, "velocity": 68}, {"time": 1918, "pitch": 56, "duration": 16, "velocity": 79}, {"time": 1918, "pitch": 60, "duration": 21, "velocity": 75}, {"time": 1918, "pitch": 61, "duration": 37, "velocity": 72}, {"time": 1918, "pitch": 65, "duration": 40, "velocity": 71}, {"time": 1930, "pitch": 49, "duration": 26, "velocity": 35}, {"time": 1936, "pitch": 56, "duration": 19, "velocity": 61}, {"time": 1939, "pitch": 60, "duration": 1, "velocity": 43}, {"time": 1954, "pitch": 44, "duration": 2, "velocity": 83}, {"time": 1954, "pitch": 53, "duration": 1, "velocity": 83}, {"time": 1954, "pitch": 56, "duration": 1, "velocity": 89}, {"time": 1954, "pitch": 58, "duration": 1, "velocity": 89}, {"time": 1954, "pitch": 61, "duration": 1, "velocity": 89}, {"time": 1960, "pitch": 44, "duration": 33, "velocity": 92}, {"time": 1960, "pitch": 53, "duration": 33, "velocity": 88}, {"time": 1960, "pitch": 56, "duration": 33, "velocity": 85}, {"time": 1960, "pitch": 58, "duration": 33, "velocity": 93}, {"time": 1960, "pitch": 61, "duration": 33, "velocity": 95}, {"time": 1996, "pitch": 37, "duration": 38, "velocity": 99}, {"time": 2002, "pitch": 44, "duration": 31, "velocity": 58}, {"time": 2008, "pitch": 49, "duration": 14, "velocity": 96}, {"time": 2014, "pitch": 56, "duration": 31, "velocity": 89}, {"time": 2020, "pitch": 61, "duration": 14, "velocity": 97}, {"time": 2020, "pitch": 65, "duration": 26, "velocity": 97}, {"time": 2026, "pitch": 49, "duration": 17, "velocity": 79}, {"time": 2032, "pitch": 60, "duration": 13, "velocity": 93}, {"time": 2038, "pitch": 61, "duration": 8, "velocity": 57}, {"time": 2044, "pitch": 42, "duration": 41, "velocity": 75}, {"time": 2050, "pitch": 49, "duration": 35, "velocity": 58}, {"time": 2056, "pitch": 54, "duration": 15, "velocity": 83}, {"time": 2062, "pitch": 58, "duration": 32, "velocity": 85}, {"time": 2062, "pitch": 61, "duration": 5, "velocity": 34}, {"time": 2068, "pitch": 65, "duration": 26, "velocity": 96}, {"time": 2074, "pitch": 54, "duration": 6, "velocity": 76}, {"time": 2080, "pitch": 61, "duration": 1, "velocity": 29}, {"time": 2080, "pitch": 66, "duration": 13, "velocity": 69}, {"time": 2086, "pitch": 63, "duration": 7, "velocity": 51}, {"time": 2092, "pitch": 37, "duration": 41, "velocity": 81}, {"time": 2098, "pitch": 44, "duration": 35, "velocity": 50}, {"time": 2104, "pitch": 49, "duration": 14, "velocity": 102}, {"time": 2110, "pitch": 56, "duration": 19, "velocity": 82}, {"time": 2116, "pitch": 65, "duration": 26, "velocity": 99}, {"time": 2122, "pitch": 49, "duration": 11, "velocity": 62}, {"time": 2128, "pitch": 61, "duration": 14, "velocity": 99}, {"time": 2134, "pitch": 56, "duration": 7, "velocity": 63}, {"time": 2140, "pitch": 44, "duration": 35, "velocity": 71}, {"time": 2146, "pitch": 51, "duration": 29, "velocity": 44}, {"time": 2152, "pitch": 56, "duration": 14, "velocity": 89}, {"time": 2158, "pitch": 60, "duration": 14, "velocity": 67}, {"time": 2164, "pitch": 68, "duration": 21, "velocity": 99}, {"time": 2170, "pitch": 56, "duration": 3, "velocity": 76}, {"time": 2173, "pitch": 63, "duration": 11, "velocity": 92}, {"time": 2179, "pitch": 60, "duration": 7, "velocity": 74}, {"time": 2188, "pitch": 37, "duration": 40, "velocity": 69}, {"time": 2194, "pitch": 44, "duration": 33, "velocity": 52}, {"time": 2197, "pitch": 49, "duration": 5, "velocity": 60}, {"time": 2200, "pitch": 59, "duration": 21, "velocity": 77}, {"time": 2200, "pitch": 61, "duration": 21, "velocity": 82}, {"time": 2200, "pitch": 65, "duration": 20, "velocity": 82}, {"time": 2206, "pitch": 49, "duration": 8, "velocity": 66}, {"time": 2212, "pitch": 56, "duration": 11, "velocity": 85}, {"time": 2218, "pitch": 49, "duration": 16, "velocity": 78}, {"time": 2224, "pitch": 59, "duration": 1, "velocity": 69}, {"time": 2224, "pitch": 61, "duration": 13, "velocity": 95}, {"time": 2224, "pitch": 65, "duration": 14, "velocity": 86}, {"time": 2230, "pitch": 59, "duration": 6, "velocity": 69}, {"time": 2236, "pitch": 42, "duration": 39, "velocity": 72}, {"time": 2242, "pitch": 49, "duration": 32, "velocity": 47}, {"time": 2248, "pitch": 54, "duration": 14, "velocity": 95}, {"time": 2254, "pitch": 58, "duration": 19, "velocity": 85}, {"time": 2260, "pitch": 66, "duration": 24, "velocity": 112}, {"time": 2266, "pitch": 54, "duration": 5, "velocity": 85}, {"time": 2272, "pitch": 61, "duration": 12, "velocity": 97}, {"time": 2278, "pitch": 58, "duration": 9, "velocity": 82}, {"time": 2284, "pitch": 39, "duration": 15, "velocity": 55}, {"time": 2290, "pitch": 46, "duration": 10, "velocity": 52}, {"time": 2296, "pitch": 51, "duration": 10, "velocity": 79}, {"time": 2296, "pitch": 63, "duration": 11, "velocity": 89}, {"time": 2302, "pitch": 58, "duration": 7, "velocity": 76}, {"time": 2308, "pitch": 44, "duration": 15, "velocity": 73}, {"time": 2314, "pitch": 51, "duration": 8, "velocity": 88}, {"time": 2320, "pitch": 63, "duration": 11, "velocity": 107}, {"time": 2326, "pitch": 60, "duration": 5, "velocity": 90}, {"time": 2332, "pitch": 37, "duration": 18, "velocity": 95}, {"time": 2338, "pitch": 44, "duration": 39, "velocity": 62}, {"time": 2344, "pitch": 49, "duration": 15, "velocity": 93}, {"time": 2350, "pitch": 37, "duration": 6, "velocity": 100}, {"time": 2350, "pitch": 56, "duration": 16, "velocity": 74}, {"time": 2356, "pitch": 37, "duration": 6, "velocity": 100}, {"time": 2356, "pitch": 61, "duration": 10, "velocity": 90}, {"time": 2356, "pitch": 65, "duration": 10, "velocity": 96}, {"time": 2362, "pitch": 37, "duration": 6, "velocity": 100}, {"time": 2362, "pitch": 49, "duration": 9, "velocity": 69}, {"time": 2368, "pitch": 37, "duration": 6, "velocity": 100}, {"time": 2368, "pitch": 56, "duration": 12, "velocity": 83}, {"time": 2368, "pitch": 61, "duration": 12, "velocity": 93}, {"time": 2368, "pitch": 65, "duration": 12, "velocity": 89}, {"time": 2374, "pitch": 37, "duration": 6, "velocity": 100}, {"time": 2380, "pitch": 42, "duration": 15, "velocity": 88}, {"time": 2386, "pitch": 49, "duration": 18, "velocity": 77}, {"time": 2392, "pitch": 54, "duration": 7, "velocity": 96}, {"time": 2392, "pitch": 61, "duration": 4, "velocity": 69}, {"time": 2392, "pitch": 66, "duration": 8, "velocity": 97}, {"time": 2392, "pitch": 70, "duration": 7, "velocity": 102}, {"time": 2398, "pitch": 42, "duration": 6, "velocity": 84}, {"time": 2404, "pitch": 44, "duration": 10, "velocity": 89}, {"time": 2410, "pitch": 51, "duration": 8, "velocity": 83}, {"time": 2416, "pitch": 42, "duration": 10, "velocity": 93}, {"time": 2428, "pitch": 41, "duration": 16, "velocity": 97}, {"time": 2434, "pitch": 48, "duration": 10, "velocity": 60}, {"time": 2440, "pitch": 53, "duration": 8, "velocity": 95}, {"time": 2440, "pitch": 65, "duration": 11, "velocity": 100}, {"time": 2440, "pitch": 68, "duration": 11, "velocity": 99}, {"time": 2446, "pitch": 60, "duration": 8, "velocity": 95}, {"time": 2452, "pitch": 46, "duration": 13, "velocity": 102}, {"time": 2458, "pitch": 53, "duration": 7, "velocity": 96}, {"time": 2464, "pitch": 61, "duration": 6, "velocity": 100}, {"time": 2464, "pitch": 65, "duration": 10, "velocity": 99}, {"time": 2470, "pitch": 58, "duration": 5, "velocity": 102}, {"time": 2476, "pitch": 39, "duration": 22, "velocity": 92}, {"time": 2482, "pitch": 46, "duration": 17, "velocity": 51}, {"time": 2488, "pitch": 51, "duration": 7, "velocity": 82}, {"time": 2488, "pitch": 63, "duration": 12, "velocity": 107}, {"time": 2488, "pitch": 66, "duration": 11, "velocity": 100}, {"time": 2494, "pitch": 58, "duration": 6, "velocity": 90}, {"time": 2500, "pitch": 41, "duration": 17, "velocity": 89}, {"time": 2506, "pitch": 48, "duration": 8, "velocity": 83}, {"time": 2512, "pitch": 53, "duration": 4, "velocity": 95}, {"time": 2512, "pitch": 57, "duration": 11, "velocity": 99}, {"time": 2512, "pitch": 60, "duration": 11, "velocity": 92}, {"time": 2512, "pitch": 63, "duration": 12, "velocity": 89}, {"time": 2518, "pitch": 53, "duration": 4, "velocity": 86}, {"time": 2524, "pitch": 46, "duration": 23, "velocity": 99}, {"time": 2530, "pitch": 53, "duration": 8, "velocity": 100}, {"time": 2536, "pitch": 58, "duration": 3, "velocity": 89}, {"time": 2536, "pitch": 61, "duration": 12, "velocity": 102}, {"time": 2536, "pitch": 65, "duration": 13, "velocity": 97}, {"time": 2542, "pitch": 53, "duration": 6, "velocity": 88}, {"time": 2548, "pitch": 46, "duration": 16, "velocity": 93}, {"time": 2548, "pitch": 58, "duration": 3, "velocity": 107}, {"time": 2554, "pitch": 53, "duration": 10, "velocity": 92}, {"time": 2557, "pitch": 58, "duration": 2, "velocity": 100}, {"time": 2557, "pitch": 65, "duration": 4, "velocity": 78}, {"time": 2560, "pitch": 70, "duration": 6, "velocity": 102}, {"time": 2560, "pitch": 73, "duration": 10, "velocity": 100}, {"time": 2563, "pitch": 58, "duration": 1, "velocity": 100}, {"time": 2566, "pitch": 65, "duration": 6, "velocity": 112}, {"time": 2569, "pitch": 70, "duration": 2, "velocity": 96}, {"time": 2572, "pitch": 39, "duration": 18, "velocity": 90}, {"time": 2578, "pitch": 46, "duration": 12, "velocity": 50}, {"time": 2584, "pitch": 51, "duration": 9, "velocity": 86}, {"time": 2584, "pitch": 66, "duration": 11, "velocity": 93}, {"time": 2584, "pitch": 70, "duration": 10, "velocity": 96}, {"time": 2590, "pitch": 63, "duration": 6, "velocity": 96}, {"time": 2596, "pitch": 44, "duration": 10, "velocity": 93}, {"time": 2602, "pitch": 51, "duration": 4, "velocity": 88}, {"time": 2608, "pitch": 42, "duration": 11, "velocity": 102}, {"time": 2614, "pitch": 66, "duration": 5, "velocity": 117}, {"time": 2620, "pitch": 41, "duration": 18, "velocity": 75}, {"time": 2626, "pitch": 48, "duration": 12, "velocity": 73}, {"time": 2632, "pitch": 53, "duration": 12, "velocity": 79}, {"time": 2632, "pitch": 60, "duration": 1, "velocity": 81}, {"time": 2632, "pitch": 65, "duration": 13, "velocity": 97}, {"time": 2632, "pitch": 68, "duration": 13, "velocity": 96}, {"time": 2638, "pitch": 60, "duration": 8, "velocity": 97}, {"time": 2644, "pitch": 46, "duration": 20, "velocity": 78}, {"time": 2650, "pitch": 53, "duration": 6, "velocity": 97}, {"time": 2656, "pitch": 53, "duration": 1, "velocity": 112}, {"time": 2656, "pitch": 61, "duration": 12, "velocity": 112}, {"time": 2656, "pitch": 65, "duration": 12, "velocity": 100}, {"time": 2668, "pitch": 39, "duration": 18, "velocity": 99}, {"time": 2674, "pitch": 46, "duration": 18, "velocity": 77}, {"time": 2680, "pitch": 58, "duration": 2, "velocity": 92}, {"time": 2680, "pitch": 63, "duration": 7, "velocity": 92}, {"time": 2680, "pitch": 67, "duration": 7, "velocity": 92}, {"time": 2686, "pitch": 39, "duration": 3, "velocity": 100}, {"time": 2686, "pitch": 51, "duration": 6, "velocity": 85}, {"time": 2692, "pitch": 39, "duration": 15, "velocity": 86}, {"time": 2692, "pitch": 58, "duration": 12, "velocity": 100}, {"time": 2692, "pitch": 63, "duration": 12, "velocity": 95}, {"time": 2692, "pitch": 67, "duration": 12, "velocity": 102}, {"time": 2698, "pitch": 46, "duration": 10, "velocity": 71}, {"time": 2704, "pitch": 51, "duration": 6, "velocity": 86}, {"time": 2704, "pitch": 63, "duration": 1, "velocity": 86}, {"time": 2704, "pitch": 67, "duration": 1, "velocity": 86}, {"time": 2710, "pitch": 58, "duration": 6, "velocity": 97}, {"time": 2716, "pitch": 44, "duration": 22, "velocity": 96}, {"time": 2722, "pitch": 51, "duration": 9, "velocity": 78}, {"time": 2728, "pitch": 56, "duration": 4, "velocity": 95}, {"time": 2728, "pitch": 60, "duration": 3, "velocity": 99}, {"time": 2728, "pitch": 63, "duration": 9, "velocity": 107}, {"time": 2734, "pitch": 51, "duration": 4, "velocity": 77}, {"time": 2737, "pitch": 56, "duration": 2, "velocity": 93}, {"time": 2740, "pitch": 44, "duration": 12, "velocity": 97}, {"time": 2740, "pitch": 56, "duration": 8, "velocity": 93}, {"time": 2740, "pitch": 60, "duration": 8, "velocity": 97}, {"time": 2740, "pitch": 63, "duration": 8, "velocity": 100}, {"time": 2752, "pitch": 44, "duration": 12, "velocity": 100}, {"time": 2752, "pitch": 56, "duration": 5, "velocity": 102}, {"time": 2752, "pitch": 60, "duration": 5, "velocity": 97}, {"time": 2752, "pitch": 63, "duration": 5, "velocity": 96}, {"time": 2758, "pitch": 51, "duration": 9, "velocity": 68}, {"time": 2764, "pitch": 46, "duration": 16, "velocity": 81}, {"time": 2770, "pitch": 53, "duration": 9, "velocity": 93}, {"time": 2776, "pitch": 58, "duration": 8, "velocity": 97}, {"time": 2776, "pitch": 61, "duration": 16, "velocity": 93}, {"time": 2776, "pitch": 65, "duration": 16, "velocity": 92}, {"time": 2788, "pitch": 42, "duration": 21, "velocity": 88}, {"time": 2794, "pitch": 49, "duration": 16, "velocity": 78}, {"time": 2800, "pitch": 54, "duration": 5, "velocity": 83}, {"time": 2800, "pitch": 58, "duration": 6, "velocity": 93}, {"time": 2800, "pitch": 61, "duration": 11, "velocity": 97}, {"time": 2812, "pitch": 41, "duration": 23, "velocity": 89}, {"time": 2818, "pitch": 48, "duration": 16, "velocity": 74}, {"time": 2824, "pitch": 53, "duration": 6, "velocity": 95}, {"time": 2824, "pitch": 56, "duration": 12, "velocity": 89}, {"time": 2824, "pitch": 60, "duration": 12, "velocity": 86}, {"time": 2836, "pitch": 46, "duration": 14, "velocity": 68}, {"time": 2842, "pitch": 53, "duration": 9, "velocity": 66}, {"time": 2848, "pitch": 58, "duration": 4, "velocity": 73}, {"time": 2848, "pitch": 61, "duration": 2, "velocity": 75}, {"time": 2848, "pitch": 65, "duration": 12, "velocity": 90}, {"time": 2854, "pitch": 53, "duration": 5, "velocity": 64}, {"time": 2860, "pitch": 39, "duration": 14, "velocity": 71}, {"time": 2866, "pitch": 46, "duration": 11, "velocity": 57}, {"time": 2872, "pitch": 51, "duration": 11, "velocity": 78}, {"time": 2872, "pitch": 58, "duration": 6, "velocity": 64}, {"time": 2872, "pitch": 66, "duration": 12, "velocity": 85}, {"time": 2878, "pitch": 63, "duration": 5, "velocity": 74}, {"time": 2884, "pitch": 44, "duration": 17, "velocity": 83}, {"time": 2896, "pitch": 60, "duration": 12, "velocity": 66}, {"time": 2896, "pitch": 63, "duration": 12, "velocity": 69}, {"time": 2908, "pitch": 37, "duration": 37, "velocity": 74}, {"time": 2914, "pitch": 44, "duration": 31, "velocity": 44}, {"time": 2920, "pitch": 49, "duration": 15, "velocity": 89}, {"time": 2926, "pitch": 56, "duration": 13, "velocity": 74}, {"time": 2932, "pitch": 65, "duration": 24, "velocity": 96}, {"time": 2938, "pitch": 49, "duration": 15, "velocity": 66}, {"time": 2944, "pitch": 61, "duration": 12, "velocity": 90}, {"time": 2950, "pitch": 56, "duration": 6, "velocity": 71}, {"time": 2956, "pitch": 37, "duration": 16, "velocity": 93}, {"time": 2962, "pitch": 44, "duration": 13, "velocity": 88}, {"time": 2968, "pitch": 49, "duration": 6, "velocity": 85}, {"time": 2968, "pitch": 56, "duration": 4, "velocity": 79}, {"time": 2968, "pitch": 65, "duration": 12, "velocity": 97}, {"time": 2974, "pitch": 61, "duration": 5, "velocity": 86}, {"time": 2980, "pitch": 42, "duration": 18, "velocity": 63}, {"time": 2986, "pitch": 49, "duration": 10, "velocity": 65}, {"time": 2992, "pitch": 54, "duration": 5, "velocity": 90}, {"time": 2992, "pitch": 61, "duration": 5, "velocity": 89}, {"time": 2992, "pitch": 70, "duration": 12, "velocity": 100}, {"time": 2998, "pitch": 66, "duration": 5, "velocity": 89}, {"time": 3004, "pitch": 41, "duration": 19, "velocity": 79}, {"time": 3010, "pitch": 48, "duration": 17, "velocity": 77}, {"time": 3016, "pitch": 53, "duration": 7, "velocity": 79}, {"time": 3016, "pitch": 56, "duration": 3, "velocity": 100}, {"time": 3016, "pitch": 65, "duration": 12, "velocity": 99}, {"time": 3022, "pitch": 60, "duration": 4, "velocity": 85}, {"time": 3028, "pitch": 42, "duration": 18, "velocity": 73}, {"time": 3034, "pitch": 49, "duration": 13, "velocity": 86}, {"time": 3040, "pitch": 54, "duration": 7, "velocity": 99}, {"time": 3040, "pitch": 58, "duration": 4, "velocity": 99}, {"time": 3040, "pitch": 66, "duration": 11, "velocity": 102}, {"time": 3046, "pitch": 61, "duration": 5, "velocity": 92}, {"time": 3052, "pitch": 37, "duration": 16, "velocity": 73}, {"time": 3058, "pitch": 44, "duration": 12, "velocity": 82}, {"time": 3064, "pitch": 49, "duration": 12, "velocity": 96}, {"time": 3064, "pitch": 56, "duration": 4, "velocity": 90}, {"time": 3064, "pitch": 65, "duration": 12, "velocity": 117}, {"time": 3070, "pitch": 61, "duration": 6, "velocity": 97}, {"time": 3076, "pitch": 46, "duration": 14, "velocity": 81}, {"time": 3082, "pitch": 53, "duration": 9, "velocity": 76}, {"time": 3088, "pitch": 58, "duration": 3, "velocity": 100}, {"time": 3088, "pitch": 61, "duration": 3, "velocity": 97}, {"time": 3088, "pitch": 65, "duration": 10, "velocity": 100}, {"time": 3094, "pitch": 58, "duration": 4, "velocity": 89}, {"time": 3100, "pitch": 41, "duration": 22, "velocity": 68}, {"time": 3106, "pitch": 48, "duration": 21, "velocity": 82}, {"time": 3112, "pitch": 53, "duration": 6, "velocity": 86}, {"time": 3112, "pitch": 60, "duration": 4, "velocity": 90}, {"time": 3112, "pitch": 68, "duration": 19, "velocity": 107}, {"time": 3118, "pitch": 65, "duration": 14, "velocity": 88}, {"time": 3124, "pitch": 41, "duration": 17, "velocity": 69}, {"time": 3130, "pitch": 48, "duration": 13, "velocity": 72}, {"time": 3136, "pitch": 53, "duration": 6, "velocity": 92}, {"time": 3136, "pitch": 60, "duration": 5, "velocity": 90}, {"time": 3136, "pitch": 68, "duration": 10, "velocity": 112}, {"time": 3142, "pitch": 65, "duration": 4, "velocity": 107}, {"time": 3148, "pitch": 37, "duration": 22, "velocity": 82}, {"time": 3154, "pitch": 44, "duration": 12, "velocity": 76}, {"time": 3160, "pitch": 49, "duration": 4, "velocity": 90}, {"time": 3160, "pitch": 56, "duration": 19, "velocity": 95}, {"time": 3160, "pitch": 65, "duration": 13, "velocity": 79}, {"time": 3166, "pitch": 61, "duration": 15, "velocity": 90}, {"time": 3172, "pitch": 37, "duration": 16, "velocity": 78}, {"time": 3178, "pitch": 44, "duration": 13, "velocity": 83}, {"time": 3184, "pitch": 49, "duration": 7, "velocity": 99}, {"time": 3184, "pitch": 56, "duration": 12, "velocity": 82}, {"time": 3184, "pitch": 65, "duration": 12, "velocity": 97}, {"time": 3190, "pitch": 61, "duration": 6, "velocity": 85}, {"time": 3196, "pitch": 42, "duration": 22, "velocity": 65}, {"time": 3202, "pitch": 49, "duration": 7, "velocity": 82}, {"time": 3208, "pitch": 61, "duration": 6, "velocity": 77}, {"time": 3208, "pitch": 70, "duration": 20, "velocity": 107}, {"time": 3214, "pitch": 66, "duration": 15, "velocity": 81}, {"time": 3220, "pitch": 42, "duration": 13, "velocity": 65}, {"time": 3226, "pitch": 49, "duration": 10, "velocity": 89}, {"time": 3232, "pitch": 54, "duration": 3, "velocity": 97}, {"time": 3232, "pitch": 61, "duration": 4, "velocity": 90}, {"time": 3232, "pitch": 70, "duration": 11, "velocity": 99}, {"time": 3238, "pitch": 61, "duration": 6, "velocity": 89}, {"time": 3244, "pitch": 39, "duration": 14, "velocity": 69}, {"time": 3250, "pitch": 46, "duration": 11, "velocity": 71}, {"time": 3256, "pitch": 51, "duration": 8, "velocity": 81}, {"time": 3256, "pitch": 58, "duration": 4, "velocity": 89}, {"time": 3256, "pitch": 66, "duration": 12, "velocity": 85}, {"time": 3262, "pitch": 58, "duration": 4, "velocity": 95}, {"time": 3268, "pitch": 44, "duration": 17, "velocity": 66}, {"time": 3274, "pitch": 51, "duration": 9, "velocity": 66}, {"time": 3280, "pitch": 56, "duration": 7, "velocity": 90}, {"time": 3280, "pitch": 60, "duration": 5, "velocity": 85}, {"time": 3280, "pitch": 68, "duration": 10, "velocity": 107}, {"time": 3286, "pitch": 63, "duration": 4, "velocity": 97}, {"time": 3292, "pitch": 37, "duration": 22, "velocity": 82}, {"time": 3298, "pitch": 44, "duration": 22, "velocity": 85}, {"time": 3304, "pitch": 49, "duration": 7, "velocity": 92}, {"time": 3304, "pitch": 56, "duration": 6, "velocity": 74}, {"time": 3304, "pitch": 65, "duration": 21, "velocity": 112}, {"time": 3310, "pitch": 61, "duration": 16, "velocity": 93}, {"time": 3316, "pitch": 37, "duration": 17, "velocity": 66}, {"time": 3322, "pitch": 44, "duration": 14, "velocity": 59}, {"time": 3328, "pitch": 49, "duration": 6, "velocity": 85}, {"time": 3328, "pitch": 56, "duration": 4, "velocity": 74}, {"time": 3328, "pitch": 65, "duration": 9, "velocity": 99}, {"time": 3334, "pitch": 61, "duration": 9, "velocity": 95}, {"time": 3337, "pitch": 56, "duration": 6, "velocity": 85}, {"time": 3340, "pitch": 44, "duration": 10, "velocity": 95}, {"time": 3346, "pitch": 56, "duration": 5, "velocity": 90}, {"time": 3346, "pitch": 59, "duration": 4, "velocity": 117}, {"time": 3346, "pitch": 61, "duration": 4, "velocity": 99}, {"time": 3346, "pitch": 65, "duration": 4, "velocity": 95}, {"time": 3352, "pitch": 44, "duration": 5, "velocity": 89}, {"time": 3352, "pitch": 56, "duration": 4, "velocity": 92}, {"time": 3352, "pitch": 59, "duration": 5, "velocity": 112}, {"time": 3352, "pitch": 61, "duration": 4, "velocity": 93}, {"time": 3352, "pitch": 65, "duration": 4, "velocity": 89}, {"time": 3358, "pitch": 44, "duration": 4, "velocity": 88}, {"time": 3358, "pitch": 56, "duration": 4, "velocity": 92}, {"time": 3358, "pitch": 59, "duration": 4, "velocity": 112}, {"time": 3358, "pitch": 61, "duration": 4, "velocity": 97}, {"time": 3358, "pitch": 65, "duration": 4, "velocity": 92}, {"time": 3364, "pitch": 44, "duration": 10, "velocity": 92}, {"time": 3364, "pitch": 56, "duration": 4, "velocity": 88}, {"time": 3364, "pitch": 59, "duration": 4, "velocity": 112}, {"time": 3364, "pitch": 61, "duration": 4, "velocity": 102}, {"time": 3364, "pitch": 65, "duration": 4, "velocity": 99}, {"time": 3370, "pitch": 59, "duration": 4, "velocity": 127}, {"time": 3370, "pitch": 61, "duration": 4, "velocity": 112}, {"time": 3370, "pitch": 65, "duration": 4, "velocity": 99}, {"time": 3376, "pitch": 44, "duration": 9, "velocity": 93}, {"time": 3376, "pitch": 59, "duration": 4, "velocity": 122}, {"time": 3376, "pitch": 61, "duration": 4, "velocity": 100}, {"time": 3376, "pitch": 65, "duration": 4, "velocity": 97}, {"time": 3382, "pitch": 56, "duration": 3, "velocity": 92}, {"time": 3382, "pitch": 59, "duration": 3, "velocity": 117}, {"time": 3382, "pitch": 61, "duration": 4, "velocity": 107}, {"time": 3382, "pitch": 65, "duration": 4, "velocity": 97}, {"time": 3388, "pitch": 42, "duration": 21, "velocity": 88}, {"time": 3391, "pitch": 49, "duration": 21, "velocity": 77}, {"time": 3394, "pitch": 54, "duration": 7, "velocity": 96}, {"time": 3397, "pitch": 61, "duration": 4, "velocity": 69}, {"time": 3400, "pitch": 66, "duration": 8, "velocity": 97}, {"time": 3400, "pitch": 70, "duration": 7, "velocity": 102}, {"time": 3403, "pitch": 54, "duration": 3, "velocity": 76}, {"time": 3406, "pitch": 61, "duration": 7, "velocity": 97}, {"time": 3409, "pitch": 66, "duration": 10, "velocity": 90}, {"time": 3409, "pitch": 70, "duration": 4, "velocity": 86}, {"time": 3412, "pitch": 44, "duration": 10, "velocity": 89}, {"time": 3415, "pitch": 51, "duration": 8, "velocity": 100}, {"time": 3418, "pitch": 56, "duration": 3, "velocity": 97}, {"time": 3421, "pitch": 63, "duration": 3, "velocity": 70}, {"time": 3421, "pitch": 68, "duration": 4, "velocity": 95}, {"time": 3421, "pitch": 72, "duration": 2, "velocity": 92}, {"time": 3424, "pitch": 42, "duration": 10, "velocity": 93}, {"time": 3427, "pitch": 61, "duration": 4, "velocity": 96}, {"time": 3430, "pitch": 66, "duration": 5, "velocity": 99}, {"time": 3430, "pitch": 70, "duration": 5, "velocity": 96}, {"time": 3433, "pitch": 61, "duration": 2, "velocity": 33}, {"time": 3436, "pitch": 41, "duration": 16, "velocity": 97}, {"time": 3442, "pitch": 48, "duration": 10, "velocity": 60}, {"time": 3448, "pitch": 53, "duration": 8, "velocity": 95}, {"time": 3448, "pitch": 65, "duration": 11, "velocity": 100}, {"time": 3448, "pitch": 68, "duration": 11, "velocity": 99}, {"time": 3454, "pitch": 60, "duration": 8, "velocity": 95}, {"time": 3460, "pitch": 46, "duration": 13, "velocity": 102}, {"time": 3466, "pitch": 53, "duration": 7, "velocity": 96}, {"time": 3472, "pitch": 61, "duration": 6, "velocity": 100}, {"time": 3472, "pitch": 65, "duration": 10, "velocity": 99}, {"time": 3478, "pitch": 58, "duration": 5, "velocity": 102}, {"time": 3484, "pitch": 39, "duration": 22, "velocity": 92}, {"time": 3490, "pitch": 46, "duration": 17, "velocity": 51}, {"time": 3496, "pitch": 51, "duration": 7, "velocity": 82}, {"time": 3496, "pitch": 63, "duration": 12, "velocity": 107}, {"time": 3496, "pitch": 66, "duration": 11, "velocity": 100}, {"time": 3502, "pitch": 58, "duration": 6, "velocity": 90}, {"time": 3508, "pitch": 41, "duration": 17, "velocity": 89}, {"time": 3514, "pitch": 48, "duration": 8, "velocity": 83}, {"time": 3520, "pitch": 53, "duration": 4, "velocity": 95}, {"time": 3520, "pitch": 57, "duration": 11, "velocity": 99}, {"time": 3520, "pitch": 60, "duration": 11, "velocity": 92}, {"time": 3520, "pitch": 63, "duration": 12, "velocity": 89}, {"time": 3526, "pitch": 53, "duration": 4, "velocity": 86}, {"time": 3532, "pitch": 46, "duration": 23, "velocity": 99}, {"time": 3538, "pitch": 53, "duration": 8, "velocity": 100}, {"time": 3544, "pitch": 58, "duration": 3, "velocity": 89}, {"time": 3544, "pitch": 61, "duration": 12, "velocity": 102}, {"time": 3544, "pitch": 65, "duration": 13, "velocity": 97}, {"time": 3547, "pitch": 53, "duration": 9, "velocity": 88}, {"time": 3553, "pitch": 58, "duration": 3, "velocity": 107}, {"time": 3556, "pitch": 46, "duration": 16, "velocity": 93}, {"time": 3559, "pitch": 53, "duration": 13, "velocity": 92}, {"time": 3562, "pitch": 58, "duration": 5, "velocity": 100}, {"time": 3565, "pitch": 65, "duration": 4, "velocity": 78}, {"time": 3568, "pitch": 70, "duration": 6, "velocity": 102}, {"time": 3568, "pitch": 73, "duration": 10, "velocity": 100}, {"time": 3571, "pitch": 58, "duration": 1, "velocity": 100}, {"time": 3574, "pitch": 65, "duration": 6, "velocity": 112}, {"time": 3577, "pitch": 70, "duration": 2, "velocity": 96}, {"time": 3580, "pitch": 39, "duration": 18, "velocity": 90}, {"time": 3586, "pitch": 46, "duration": 12, "velocity": 50}, {"time": 3592, "pitch": 51, "duration": 9, "velocity": 86}, {"time": 3592, "pitch": 66, "duration": 11, "velocity": 93}, {"time": 3592, "pitch": 70, "duration": 10, "velocity": 96}, {"time": 3598, "pitch": 63, "duration": 6, "velocity": 96}, {"time": 3604, "pitch": 44, "duration": 10, "velocity": 93}, {"time": 3610, "pitch": 51, "duration": 4, "velocity": 88}, {"time": 3616, "pitch": 42, "duration": 11, "velocity": 102}, {"time": 3622, "pitch": 66, "duration": 5, "velocity": 117}, {"time": 3628, "pitch": 41, "duration": 18, "velocity": 75}, {"time": 3634, "pitch": 48, "duration": 12, "velocity": 73}, {"time": 3640, "pitch": 53, "duration": 12, "velocity": 79}, {"time": 3640, "pitch": 60, "duration": 1, "velocity": 81}, {"time": 3640, "pitch": 65, "duration": 13, "velocity": 97}, {"time": 3640, "pitch": 68, "duration": 13, "velocity": 96}, {"time": 3646, "pitch": 60, "duration": 8, "velocity": 97}, {"time": 3652, "pitch": 46, "duration": 20, "velocity": 78}, {"time": 3658, "pitch": 53, "duration": 6, "velocity": 97}, {"time": 3664, "pitch": 61, "duration": 4, "velocity": 112}, {"time": 3664, "pitch": 65, "duration": 4, "velocity": 100}, {"time": 3667, "pitch": 53, "duration": 3, "velocity": 112}, {"time": 3670, "pitch": 58, "duration": 7, "velocity": 107}, {"time": 3670, "pitch": 61, "duration": 1, "velocity": 57}, {"time": 3670, "pitch": 65, "duration": 5, "velocity": 83}, {"time": 3673, "pitch": 61, "duration": 3, "velocity": 102}, {"time": 3676, "pitch": 39, "duration": 22, "velocity": 99}, {"time": 3682, "pitch": 46, "duration": 18, "velocity": 77}, {"time": 3688, "pitch": 51, "duration": 1, "velocity": 34}, {"time": 3688, "pitch": 58, "duration": 2, "velocity": 96}, {"time": 3688, "pitch": 63, "duration": 7, "velocity": 117}, {"time": 3688, "pitch": 67, "duration": 7, "velocity": 127}, {"time": 3691, "pitch": 51, "duration": 9, "velocity": 85}, {"time": 3694, "pitch": 58, "duration": 15, "velocity": 100}, {"time": 3697, "pitch": 63, "duration": 12, "velocity": 95}, {"time": 3697, "pitch": 67, "duration": 12, "velocity": 102}, {"time": 3700, "pitch": 39, "duration": 15, "velocity": 86}, {"time": 3706, "pitch": 46, "duration": 10, "velocity": 71}, {"time": 3712, "pitch": 51, "duration": 6, "velocity": 99}, {"time": 3712, "pitch": 63, "duration": 12, "velocity": 112}, {"time": 3712, "pitch": 67, "duration": 12, "velocity": 122}, {"time": 3718, "pitch": 58, "duration": 6, "velocity": 97}, {"time": 3724, "pitch": 44, "duration": 22, "velocity": 96}, {"time": 3727, "pitch": 51, "duration": 9, "velocity": 78}, {"time": 3730, "pitch": 56, "duration": 4, "velocity": 95}, {"time": 3733, "pitch": 60, "duration": 3, "velocity": 99}, {"time": 3736, "pitch": 63, "duration": 9, "velocity": 107}, {"time": 3739, "pitch": 51, "duration": 9, "velocity": 97}, {"time": 3742, "pitch": 60, "duration": 4, "velocity": 122}, {"time": 3745, "pitch": 56, "duration": 2, "velocity": 93}, {"time": 3748, "pitch": 44, "duration": 21, "velocity": 97}, {"time": 3748, "pitch": 56, "duration": 8, "velocity": 93}, {"time": 3748, "pitch": 60, "duration": 8, "velocity": 97}, {"time": 3748, "pitch": 63, "duration": 8, "velocity": 100}, {"time": 3754, "pitch": 51, "duration": 7, "velocity": 90}, {"time": 3757, "pitch": 60, "duration": 5, "velocity": 99}, {"time": 3757, "pitch": 63, "duration": 5, "velocity": 99}, {"time": 3760, "pitch": 51, "duration": 1, "velocity": 68}, {"time": 3766, "pitch": 56, "duration": 5, "velocity": 102}, {"time": 3766, "pitch": 60, "duration": 5, "velocity": 97}, {"time": 3766, "pitch": 63, "duration": 5, "velocity": 96}, {"time": 3772, "pitch": 46, "duration": 16, "velocity": 81}, {"time": 3778, "pitch": 53, "duration": 9, "velocity": 93}, {"time": 3784, "pitch": 61, "duration": 16, "velocity": 93}, {"time": 3784, "pitch": 65, "duration": 16, "velocity": 92}, {"time": 3790, "pitch": 58, "duration": 8, "velocity": 97}, {"time": 3796, "pitch": 42, "duration": 21, "velocity": 88}, {"time": 3802, "pitch": 49, "duration": 16, "velocity": 78}, {"time": 3808, "pitch": 54, "duration": 5, "velocity": 83}, {"time": 3808, "pitch": 61, "duration": 11, "velocity": 97}, {"time": 3814, "pitch": 58, "duration": 6, "velocity": 93}, {"time": 3820, "pitch": 41, "duration": 23, "velocity": 89}, {"time": 3826, "pitch": 48, "duration": 16, "velocity": 74}, {"time": 3832, "pitch": 56, "duration": 12, "velocity": 89}, {"time": 3832, "pitch": 60, "duration": 12, "velocity": 86}, {"time": 3838, "pitch": 53, "duration": 6, "velocity": 95}, {"time": 3844, "pitch": 46, "duration": 14, "velocity": 68}, {"time": 3847, "pitch": 53, "duration": 9, "velocity": 44}, {"time": 3850, "pitch": 58, "duration": 4, "velocity": 90}, {"time": 3853, "pitch": 61, "duration": 2, "velocity": 75}, {"time": 3856, "pitch": 65, "duration": 12, "velocity": 90}, {"time": 3862, "pitch": 61, "duration": 5, "velocity": 64}, {"time": 3868, "pitch": 39, "duration": 14, "velocity": 71}, {"time": 3871, "pitch": 46, "duration": 11, "velocity": 57}, {"time": 3874, "pitch": 51, "duration": 11, "velocity": 78}, {"time": 3877, "pitch": 58, "duration": 6, "velocity": 64}, {"time": 3880, "pitch": 66, "duration": 12, "velocity": 85}, {"time": 3886, "pitch": 63, "duration": 5, "velocity": 74}, {"time": 3892, "pitch": 44, "duration": 1, "velocity": 57}, {"time": 3892, "pitch": 51, "duration": 1, "velocity": 81}, {"time": 3892, "pitch": 54, "duration": 1, "velocity": 83}, {"time": 3892, "pitch": 58, "duration": 1, "velocity": 83}, {"time": 3892, "pitch": 61, "duration": 1, "velocity": 77}, {"time": 3898, "pitch": 44, "duration": 40, "velocity": 73}, {"time": 3898, "pitch": 51, "duration": 40, "velocity": 90}, {"time": 3898, "pitch": 54, "duration": 40, "velocity": 89}, {"time": 3898, "pitch": 58, "duration": 40, "velocity": 97}, {"time": 3898, "pitch": 61, "duration": 40, "velocity": 96}, {"time": 3940, "pitch": 37, "duration": 38, "velocity": 93}, {"time": 3946, "pitch": 44, "duration": 32, "velocity": 60}, {"time": 3952, "pitch": 49, "duration": 16, "velocity": 65}, {"time": 3958, "pitch": 56, "duration": 18, "velocity": 69}, {"time": 3964, "pitch": 65, "duration": 35, "velocity": 97}, {"time": 3970, "pitch": 49, "duration": 11, "velocity": 42}, {"time": 3976, "pitch": 61, "duration": 23, "velocity": 92}, {"time": 3979, "pitch": 56, "duration": 7, "velocity": 69}, {"time": 3988, "pitch": 46, "duration": 40, "velocity": 78}, {"time": 3994, "pitch": 53, "duration": 22, "velocity": 70}, {"time": 4000, "pitch": 58, "duration": 10, "velocity": 88}, {"time": 4006, "pitch": 61, "duration": 39, "velocity": 99}, {"time": 4012, "pitch": 65, "duration": 33, "velocity": 88}, {"time": 4018, "pitch": 53, "duration": 8, "velocity": 66}, {"time": 4024, "pitch": 58, "duration": 19, "velocity": 79}, {"time": 4036, "pitch": 39, "duration": 41, "velocity": 76}, {"time": 4042, "pitch": 46, "duration": 34, "velocity": 61}, {"time": 4048, "pitch": 51, "duration": 16, "velocity": 88}, {"time": 4054, "pitch": 58, "duration": 51, "velocity": 78}, {"time": 4060, "pitch": 66, "duration": 43, "velocity": 97}, {"time": 4066, "pitch": 51, "duration": 12, "velocity": 53}, {"time": 4072, "pitch": 63, "duration": 37, "velocity": 81}, {"time": 4087, "pitch": 44, "duration": 80, "velocity": 88}, {"time": 4096, "pitch": 51, "duration": 69, "velocity": 93}, {"time": 4102, "pitch": 56, "duration": 58, "velocity": 99}, {"time": 4111, "pitch": 60, "duration": 59, "velocity": 93}, {"time": 4120, "pitch": 68, "duration": 48, "velocity": 99}, {"time": 4141, "pitch": 63, "duration": 29, "velocity": 35}, {"time": 4180, "pitch": 65, "duration": 11, "velocity": 60}, {"time": 4183, "pitch": 37, "duration": 114, "velocity": 78}, {"time": 4183, "pitch": 56, "duration": 9, "velocity": 47}, {"time": 4183, "pitch": 61, "duration": 10, "velocity": 69}, {"time": 4183, "pitch": 63, "duration": 10, "velocity": 59}, {"time": 4192, "pitch": 44, "duration": 105, "velocity": 44}, {"time": 4195, "pitch": 49, "duration": 101, "velocity": 92}, {"time": 4201, "pitch": 53, "duration": 8, "velocity": 62}, {"time": 4204, "pitch": 56, "duration": 4, "velocity": 86}, {"time": 4207, "pitch": 60, "duration": 3, "velocity": 72}, {"time": 4213, "pitch": 61, "duration": 6, "velocity": 81}, {"time": 4219, "pitch": 65, "duration": 6, "velocity": 60}, {"time": 4222, "pitch": 68, "duration": 4, "velocity": 60}, {"time": 4228, "pitch": 72, "duration": 7, "velocity": 95}, {"time": 4237, "pitch": 73, "duration": 6, "velocity": 66}, {"time": 4243, "pitch": 77, "duration": 1, "velocity": 71}, {"time": 4249, "pitch": 80, "duration": 8, "velocity": 72}, {"time": 4258, "pitch": 84, "duration": 8, "velocity": 54}, {"time": 4264, "pitch": 85, "duration": 2, "velocity": 49}, {"time": 4279, "pitch": 85, "duration": 20, "velocity": 51}, {"time": 4279, "pitch": 89, "duration": 19, "velocity": 48}, {"time": 4282, "pitch": 92, "duration": 17, "velocity": 55}, {"time": 4282, "pitch": 97, "duration": 15, "velocity": 89}], "annotations": [{"time": 316, "annotation": {"number": 64, "value": 127}, "group": "control_change"}, {"time": 337, "annotation": {"number": 64, "value": 0}, "group": "control_change"}, {"time": 340, "annotation": {"number": 64, "value": 127}, "group": "control_change"}, {"time": 360, "annotation": {"number": 64, "value": 0}, "group": "control_change"}, {"time": 364, "annotation": {"number": 64, "value": 127}, "group": "control_change"}, {"time": 384, "annotation": {"number": 64, "value": 0}, "group": "control_change"}, {"time": 388, "annotation": {"number": 64, "value": 127}, "group": "control_change"}, {"time": 406, "annotation": {"number": 64, "value": 0}, "group": "control_change"}, {"time": 412, "annotation": {"number": 64, "value": 127}, "group": "control_change"}, {"time": 430, "annotation": {"number": 64, "value": 0}, "group": "control_change"}, {"time": 430, "annotation": {"number": 64, "value": 127}, "group": "control_change"}, {"time": 432, "annotation": {"number": 64, "value": 0}, "group": "control_change"}, {"time": 436, "annotation": {"number": 64, "value": 127}, "group": "control_change"}, {"time": 455, "annotation": {"number": 64, "value": 0}, "group": "control_change"}, {"time": 460, "annotation": {"number": 64, "value": 127}, "group": "control_change"}, {"time": 476, "annotation": {"number": 64, "value": 0}, "group": "control_change"}, {"time": 476, "annotation": {"number": 64, "value": 127}, "group": "control_change"}, {"time": 504, "annotation": {"number": 64, "value": 0}, "group": "control_change"}, {"time": 508, "annotation": {"number": 64, "value": 127}, "group": "control_change"}, {"time": 528, "annotation": {"number": 64, "value": 0}, "group": "control_change"}, {"time": 531, "annotation": {"number": 64, "value": 127}, "group": "control_change"}, {"time": 550, "annotation": {"number": 64, "value": 0}, "group": "control_change"}, {"time": 556, "annotation": {"number": 64, "value": 127}, "group": "control_change"}, {"time": 557, "annotation": {"number": 64, "value": 0}, "group": "control_change"}, {"time": 557, "annotation": {"number": 64, "value": 127}, "group": "control_change"}, {"time": 574, "annotation": {"number": 64, "value": 0}, "group": "control_change"}, {"time": 580, "annotation": {"number": 64, "value": 127}, "group": "control_change"}, {"time": 599, "annotation": {"number": 64, "value": 0}, "group": "control_change"}, {"time": 605, "annotation": {"number": 64, "value": 127}, "group": "control_change"}, {"time": 622, "annotation": {"number": 64, "value": 0}, "group": "control_change"}, {"time": 628, "annotation": {"number": 64, "value": 127}, "group": "control_change"}, {"time": 647, "annotation": {"number": 64, "value": 0}, "group": "control_change"}, {"time": 654, "annotation": {"number": 64, "value": 127}, "group": "control_change"}, {"time": 673, "annotation": {"number": 64, "value": 0}, "group": "control_change"}, {"time": 681, "annotation": {"number": 64, "value": 127}, "group": "control_change"}, {"time": 695, "annotation": {"number": 64, "value": 0}, "group": "control_change"}, {"time": 700, "annotation": {"number": 64, "value": 127}, "group": "control_change"}, {"time": 719, "annotation": {"number": 64, "value": 0}, "group": "control_change"}, {"time": 725, "annotation": {"number": 64, "value": 127}, "group": "control_change"}, {"time": 743, "annotation": {"number": 64, "value": 0}, "group": "control_change"}, {"time": 751, "annotation": {"number": 64, "value": 127}, "group": "control_change"}, {"time": 792, "annotation": {"number": 64, "value": 0}, "group": "control_change"}, {"time": 797, "annotation": {"number": 64, "value": 127}, "group": "control_change"}, {"time": 839, "annotation": {"number": 64, "value": 0}, "group": "control_change"}, {"time": 869, "annotation": {"number": 64, "value": 127}, "group": "control_change"}, {"time": 886, "annotation": {"number": 64, "value": 0}, "group": "control_change"}, {"time": 892, "annotation": {"number": 64, "value": 127}, "group": "control_change"}, {"time": 936, "annotation": {"number": 64, "value": 0}, "group": "control_change"}, {"time": 940, "annotation": {"number": 64, "value": 127}, "group": "control_change"}, {"time": 984, "annotation": {"number": 64, "value": 0}, "group": "control_change"}, {"time": 988, "annotation": {"number": 64, "value": 127}, "group": "control_change"}, {"time": 1030, "annotation": {"number": 64, "value": 0}, "group": "control_change"}, {"time": 1040, "annotation": {"number": 64, "value": 127}, "group": "control_change"}, {"time": 1044, "annotation": {"number": 64, "value": 0}, "group": "control_change"}, {"time": 1054, "annotation": {"number": 64, "value": 127}, "group": "control_change"}, {"time": 1079, "annotation": {"number": 64, "value": 0}, "group": "control_change"}, {"time": 1084, "annotation": {"number": 64, "value": 127}, "group": "control_change"}, {"time": 1126, "annotation": {"number": 64, "value": 0}, "group": "control_change"}, {"time": 1132, "annotation": {"number": 64, "value": 127}, "group": "control_change"}, {"time": 1176, "annotation": {"number": 64, "value": 0}, "group": "control_change"}, {"time": 1181, "annotation": {"number": 64, "value": 127}, "group": "control_change"}, {"time": 1198, "annotation": {"number": 64, "value": 0}, "group": "control_change"}, {"time": 1204, "annotation": {"number": 64, "value": 127}, "group": "control_change"}, {"time": 1223, "annotation": {"number": 64, "value": 0}, "group": "control_change"}, {"time": 1228, "annotation": {"number": 64, "value": 127}, "group": "control_change"}, {"time": 1250, "annotation": {"number": 64, "value": 0}, "group": "control_change"}, {"time": 1275, "annotation": {"number": 64, "value": 127}, "group": "control_change"}, {"time": 1300, "annotation": {"number": 64, "value": 0}, "group": "control_change"}, {"time": 1311, "annotation": {"number": 64, "value": 0}, "group": "control_change"}, {"time": 1324, "annotation": {"number": 64, "value": 127}, "group": "control_change"}, {"time": 1345, "annotation": {"number": 64, "value": 0}, "group": "control_change"}, {"time": 1348, "annotation": {"number": 64, "value": 127}, "group": "control_change"}, {"time": 1368, "annotation": {"number": 64, "value": 0}, "group": "control_change"}, {"time": 1371, "annotation": {"number": 64, "value": 127}, "group": "control_change"}, {"time": 1392, "annotation": {"number": 64, "value": 0}, "group": "control_change"}, {"time": 1395, "annotation": {"number": 64, "value": 127}, "group": "control_change"}, {"time": 1416, "annotation": {"number": 64, "value": 0}, "group": "control_change"}, {"time": 1419, "annotation": {"number": 64, "value": 127}, "group": "control_change"}, {"time": 1442, "annotation": {"number": 64, "value": 0}, "group": "control_change"}, {"time": 1444, "annotation": {"number": 64, "value": 127}, "group": "control_change"}, {"time": 1465, "annotation": {"number": 64, "value": 0}, "group": "control_change"}, {"time": 1467, "annotation": {"number": 64, "value": 127}, "group": "control_change"}, {"time": 1489, "annotation": {"number": 64, "value": 0}, "group": "control_change"}, {"time": 1491, "annotation": {"number": 64, "value": 127}, "group": "control_change"}, {"time": 1492, "annotation": {"number": 64, "value": 127}, "group": "control_change"}, {"time": 1504, "annotation": {"number": 64, "value": 0}, "group": "control_change"}, {"time": 1516, "annotation": {"number": 64, "value": 127}, "group": "control_change"}, {"time": 1536, "annotation": {"number": 64, "value": 0}, "group": "control_change"}, {"time": 1540, "annotation": {"number": 64, "value": 127}, "group": "control_change"}, {"time": 1559, "annotation": {"number": 64, "value": 0}, "group": "control_change"}, {"time": 1563, "annotation": {"number": 64, "value": 127}, "group": "control_change"}, {"time": 1584, "annotation": {"number": 64, "value": 0}, "group": "control_change"}, {"time": 1587, "annotation": {"number": 64, "value": 127}, "group": "control_change"}, {"time": 1607, "annotation": {"number": 64, "value": 0}, "group": "control_change"}, {"time": 1611, "annotation": {"number": 64, "value": 127}, "group": "control_change"}, {"time": 1631, "annotation": {"number": 64, "value": 0}, "group": "control_change"}, {"time": 1635, "annotation": {"number": 64, "value": 127}, "group": "control_change"}, {"time": 1656, "annotation": {"number": 64, "value": 0}, "group": "control_change"}, {"time": 1660, "annotation": {"number": 64, "value": 127}, "group": "control_change"}, {"time": 1679, "annotation": {"number": 64, "value": 0}, "group": "control_change"}, {"time": 1684, "annotation": {"number": 64, "value": 127}, "group": "control_change"}, {"time": 1704, "annotation": {"number": 64, "value": 0}, "group": "control_change"}, {"time": 1708, "annotation": {"number": 64, "value": 127}, "group": "control_change"}, {"time": 1731, "annotation": {"number": 64, "value": 0}, "group": "control_change"}, {"time": 1732, "annotation": {"number": 64, "value": 127}, "group": "control_change"}, {"time": 1752, "annotation": {"number": 64, "value": 0}, "group": "control_change"}, {"time": 1756, "annotation": {"number": 64, "value": 127}, "group": "control_change"}, {"time": 1776, "annotation": {"number": 64, "value": 0}, "group": "control_change"}, {"time": 1780, "annotation": {"number": 64, "value": 127}, "group": "control_change"}, {"time": 1801, "annotation": {"number": 64, "value": 0}, "group": "control_change"}, {"time": 1804, "annotation": {"number": 64, "value": 127}, "group": "control_change"}, {"time": 1848, "annotation": {"number": 64, "value": 0}, "group": "control_change"}, {"time": 1851, "annotation": {"number": 64, "value": 127}, "group": "control_change"}, {"time": 1895, "annotation": {"number": 64, "value": 0}, "group": "control_change"}, {"time": 1899, "annotation": {"number": 64, "value": 127}, "group": "control_change"}, {"time": 1955, "annotation": {"number": 64, "value": 0}, "group": "control_change"}, {"time": 1958, "annotation": {"number": 64, "value": 127}, "group": "control_change"}, {"time": 1962, "annotation": {"number": 64, "value": 0}, "group": "control_change"}, {"time": 1996, "annotation": {"number": 64, "value": 127}, "group": "control_change"}, {"time": 2040, "annotation": {"number": 64, "value": 0}, "group": "control_change"}, {"time": 2044, "annotation": {"number": 64, "value": 127}, "group": "control_change"}, {"time": 2088, "annotation": {"number": 64, "value": 0}, "group": "control_change"}, {"time": 2092, "annotation": {"number": 64, "value": 127}, "group": "control_change"}, {"time": 2134, "annotation": {"number": 64, "value": 0}, "group": "control_change"}, {"time": 2144, "annotation": {"number": 64, "value": 127}, "group": "control_change"}, {"time": 2148, "annotation": {"number": 64, "value": 0}, "group": "control_change"}, {"time": 2158, "annotation": {"number": 64, "value": 127}, "group": "control_change"}, {"time": 2183, "annotation": {"number": 64, "value": 0}, "group": "control_change"}, {"time": 2188, "annotation": {"number": 64, "value": 127}, "group": "control_change"}, {"time": 2230, "annotation": {"number": 64, "value": 0}, "group": "control_change"}, {"time": 2236, "annotation": {"number": 64, "value": 127}, "group": "control_change"}, {"time": 2280, "annotation": {"number": 64, "value": 0}, "group": "control_change"}, {"time": 2285, "annotation": {"number": 64, "value": 127}, "group": "control_change"}, {"time": 2302, "annotation": {"number": 64, "value": 0}, "group": "control_change"}, {"time": 2308, "annotation": {"number": 64, "value": 127}, "group": "control_change"}, {"time": 2327, "annotation": {"number": 64, "value": 0}, "group": "control_change"}, {"time": 2332, "annotation": {"number": 64, "value": 127}, "group": "control_change"}, {"time": 2354, "annotation": {"number": 64, "value": 0}, "group": "control_change"}, {"time": 2379, "annotation": {"number": 64, "value": 127}, "group": "control_change"}, {"time": 2404, "annotation": {"number": 64, "value": 0}, "group": "control_change"}, {"time": 2415, "annotation": {"number": 64, "value": 0}, "group": "control_change"}, {"time": 2428, "annotation": {"number": 64, "value": 127}, "group": "control_change"}, {"time": 2449, "annotation": {"number": 64, "value": 0}, "group": "control_change"}, {"time": 2452, "annotation": {"number": 64, "value": 127}, "group": "control_change"}, {"time": 2472, "annotation": {"number": 64, "value": 0}, "group": "control_change"}, {"time": 2475, "annotation": {"number": 64, "value": 127}, "group": "control_change"}, {"time": 2496, "annotation": {"number": 64, "value": 0}, "group": "control_change"}, {"time": 2499, "annotation": {"number": 64, "value": 127}, "group": "control_change"}, {"time": 2520, "annotation": {"number": 64, "value": 0}, "group": "control_change"}, {"time": 2523, "annotation": {"number": 64, "value": 127}, "group": "control_change"}, {"time": 2546, "annotation": {"number": 64, "value": 0}, "group": "control_change"}, {"time": 2548, "annotation": {"number": 64, "value": 127}, "group": "control_change"}, {"time": 2569, "annotation": {"number": 64, "value": 0}, "group": "control_change"}, {"time": 2571, "annotation": {"number": 64, "value": 127}, "group": "control_change"}, {"time": 2593, "annotation": {"number": 64, "value": 0}, "group": "control_change"}, {"time": 2595, "annotation": {"number": 64, "value": 127}, "group": "control_change"}, {"time": 2596, "annotation": {"number": 64, "value": 127}, "group": "control_change"}, {"time": 2608, "annotation": {"number": 64, "value": 0}, "group": "control_change"}, {"time": 2620, "annotation": {"number": 64, "value": 127}, "group": "control_change"}, {"time": 2640, "annotation": {"number": 64, "value": 0}, "group": "control_change"}, {"time": 2644, "annotation": {"number": 64, "value": 127}, "group": "control_change"}, {"time": 2663, "annotation": {"number": 64, "value": 0}, "group": "control_change"}, {"time": 2667, "annotation": {"number": 64, "value": 127}, "group": "control_change"}, {"time": 2688, "annotation": {"number": 64, "value": 0}, "group": "control_change"}, {"time": 2691, "annotation": {"number": 64, "value": 127}, "group": "control_change"}, {"time": 2711, "annotation": {"number": 64, "value": 0}, "group": "control_change"}, {"time": 2715, "annotation": {"number": 64, "value": 127}, "group": "control_change"}, {"time": 2735, "annotation": {"number": 64, "value": 0}, "group": "control_change"}, {"time": 2739, "annotation": {"number": 64, "value": 127}, "group": "control_change"}, {"time": 2760, "annotation": {"number": 64, "value": 0}, "group": "control_change"}, {"time": 2764, "annotation": {"number": 64, "value": 127}, "group": "control_change"}, {"time": 2783, "annotation": {"number": 64, "value": 0}, "group": "control_change"}, {"time": 2788, "annotation": {"number": 64, "value": 127}, "group": "control_change"}, {"time": 2808, "annotation": {"number": 64, "value": 0}, "group": "control_change"}, {"time": 2812, "annotation": {"number": 64, "value": 127}, "group": "control_change"}, {"time": 2835, "annotation": {"number": 64, "value": 0}, "group": "control_change"}, {"time": 2836, "annotation": {"number": 64, "value": 127}, "group": "control_change"}, {"time": 2856, "annotation": {"number": 64, "value": 0}, "group": "control_change"}, {"time": 2860, "annotation": {"number": 64, "value": 127}, "group": "control_change"}, {"time": 2880, "annotation": {"number": 64, "value": 0}, "group": "control_change"}, {"time": 2884, "annotation": {"number": 64, "value": 127}, "group": "control_change"}, {"time": 2905, "annotation": {"number": 64, "value": 0}, "group": "control_change"}, {"time": 2908, "annotation": {"number": 64, "value": 127}, "group": "control_change"}, {"time": 2952, "annotation": {"number": 64, "value": 0}, "group": "control_change"}, {"time": 2956, "annotation": {"number": 64, "value": 127}, "group": "control_change"}, {"time": 2976, "annotation": {"number": 64, "value": 0}, "group": "control_change"}, {"time": 2978, "annotation": {"number": 64, "value": 127}, "group": "control_change"}, {"time": 3000, "annotation": {"number": 64, "value": 0}, "group": "control_change"}, {"time": 3003, "annotation": {"number": 64, "value": 127}, "group": "control_change"}, {"time": 3024, "annotation": {"number": 64, "value": 0}, "group": "control_change"}, {"time": 3027, "annotation": {"number": 64, "value": 127}, "group": "control_change"}, {"time": 3049, "annotation": {"number": 64, "value": 0}, "group": "control_change"}, {"time": 3051, "annotation": {"number": 64, "value": 127}, "group": "control_change"}, {"time": 3067, "annotation": {"number": 64, "value": 0}, "group": "control_change"}, {"time": 3069, "annotation": {"number": 64, "value": 127}, "group": "control_change"}, {"time": 3074, "annotation": {"number": 64, "value": 0}, "group": "control_change"}, {"time": 3076, "annotation": {"number": 64, "value": 127}, "group": "control_change"}, {"time": 3096, "annotation": {"number": 64, "value": 0}, "group": "control_change"}, {"time": 3099, "annotation": {"number": 64, "value": 127}, "group": "control_change"}, {"time": 3120, "annotation": {"number": 64, "value": 0}, "group": "control_change"}, {"time": 3122, "annotation": {"number": 64, "value": 127}, "group": "control_change"}, {"time": 3144, "annotation": {"number": 64, "value": 0}, "group": "control_change"}, {"time": 3146, "annotation": {"number": 64, "value": 127}, "group": "control_change"}, {"time": 3168, "annotation": {"number": 64, "value": 0}, "group": "control_change"}, {"time": 3171, "annotation": {"number": 64, "value": 127}, "group": "control_change"}, {"time": 3191, "annotation": {"number": 64, "value": 0}, "group": "control_change"}, {"time": 3195, "annotation": {"number": 64, "value": 127}, "group": "control_change"}, {"time": 3216, "annotation": {"number": 64, "value": 0}, "group": "control_change"}, {"time": 3218, "annotation": {"number": 64, "value": 127}, "group": "control_change"}, {"time": 3240, "annotation": {"number": 64, "value": 0}, "group": "control_change"}, {"time": 3243, "annotation": {"number": 64, "value": 127}, "group": "control_change"}, {"time": 3264, "annotation": {"number": 64, "value": 0}, "group": "control_change"}, {"time": 3267, "annotation": {"number": 64, "value": 127}, "group": "control_change"}, {"time": 3288, "annotation": {"number": 64, "value": 0}, "group": "control_change"}, {"time": 3291, "annotation": {"number": 64, "value": 127}, "group": "control_change"}, {"time": 3312, "annotation": {"number": 64, "value": 0}, "group": "control_change"}, {"time": 3315, "annotation": {"number": 64, "value": 127}, "group": "control_change"}, {"time": 3336, "annotation": {"number": 64, "value": 0}, "group": "control_change"}, {"time": 3338, "annotation": {"number": 64, "value": 127}, "group": "control_change"}, {"time": 3351, "annotation": {"number": 64, "value": 0}, "group": "control_change"}, {"time": 3387, "annotation": {"number": 64, "value": 127}, "group": "control_change"}, {"time": 3410, "annotation": {"number": 64, "value": 0}, "group": "control_change"}, {"time": 3411, "annotation": {"number": 64, "value": 127}, "group": "control_change"}, {"time": 3423, "annotation": {"number": 64, "value": 0}, "group": "control_change"}, {"time": 3436, "annotation": {"number": 64, "value": 127}, "group": "control_change"}, {"time": 3457, "annotation": {"number": 64, "value": 0}, "group": "control_change"}, {"time": 3460, "annotation": {"number": 64, "value": 127}, "group": "control_change"}, {"time": 3480, "annotation": {"number": 64, "value": 0}, "group": "control_change"}, {"time": 3483, "annotation": {"number": 64, "value": 127}, "group": "control_change"}, {"time": 3504, "annotation": {"number": 64, "value": 0}, "group": "control_change"}, {"time": 3508, "annotation": {"number": 64, "value": 127}, "group": "control_change"}, {"time": 3529, "annotation": {"number": 64, "value": 0}, "group": "control_change"}, {"time": 3532, "annotation": {"number": 64, "value": 127}, "group": "control_change"}, {"time": 3554, "annotation": {"number": 64, "value": 0}, "group": "control_change"}, {"time": 3557, "annotation": {"number": 64, "value": 127}, "group": "control_change"}, {"time": 3577, "annotation": {"number": 64, "value": 0}, "group": "control_change"}, {"time": 3579, "annotation": {"number": 64, "value": 127}, "group": "control_change"}, {"time": 3601, "annotation": {"number": 64, "value": 0}, "group": "control_change"}, {"time": 3604, "annotation": {"number": 64, "value": 127}, "group": "control_change"}, {"time": 3605, "annotation": {"number": 64, "value": 127}, "group": "control_change"}, {"time": 3616, "annotation": {"number": 64, "value": 0}, "group": "control_change"}, {"time": 3628, "annotation": {"number": 64, "value": 127}, "group": "control_change"}, {"time": 3648, "annotation": {"number": 64, "value": 0}, "group": "control_change"}, {"time": 3652, "annotation": {"number": 64, "value": 127}, "group": "control_change"}, {"time": 3672, "annotation": {"number": 64, "value": 0}, "group": "control_change"}, {"time": 3675, "annotation": {"number": 64, "value": 127}, "group": "control_change"}, {"time": 3696, "annotation": {"number": 64, "value": 0}, "group": "control_change"}, {"time": 3700, "annotation": {"number": 64, "value": 127}, "group": "control_change"}, {"time": 3719, "annotation": {"number": 64, "value": 0}, "group": "control_change"}, {"time": 3723, "annotation": {"number": 64, "value": 127}, "group": "control_change"}, {"time": 3744, "annotation": {"number": 64, "value": 0}, "group": "control_change"}, {"time": 3747, "annotation": {"number": 64, "value": 127}, "group": "control_change"}, {"time": 3768, "annotation": {"number": 64, "value": 0}, "group": "control_change"}, {"time": 3772, "annotation": {"number": 64, "value": 127}, "group": "control_change"}, {"time": 3792, "annotation": {"number": 64, "value": 0}, "group": "control_change"}, {"time": 3796, "annotation": {"number": 64, "value": 127}, "group": "control_change"}, {"time": 3816, "annotation": {"number": 64, "value": 0}, "group": "control_change"}, {"time": 3820, "annotation": {"number": 64, "value": 127}, "group": "control_change"}, {"time": 3843, "annotation": {"number": 64, "value": 0}, "group": "control_change"}, {"time": 3864, "annotation": {"number": 64, "value": 0}, "group": "control_change"}, {"time": 3868, "annotation": {"number": 64, "value": 127}, "group": "control_change"}, {"time": 3880, "annotation": {"number": 64, "value": 127}, "group": "control_change"}, {"time": 3888, "annotation": {"number": 64, "value": 0}, "group": "control_change"}, {"time": 3889, "annotation": {"number": 64, "value": 0}, "group": "control_change"}, {"time": 3892, "annotation": {"number": 64, "value": 127}, "group": "control_change"}, {"time": 3901, "annotation": {"number": 64, "value": 127}, "group": "control_change"}, {"time": 3913, "annotation": {"number": 64, "value": 0}, "group": "control_change"}, {"time": 3937, "annotation": {"number": 64, "value": 0}, "group": "control_change"}, {"time": 3940, "annotation": {"number": 64, "value": 127}, "group": "control_change"}, {"time": 3984, "annotation": {"number": 64, "value": 0}, "group": "control_change"}, {"time": 3988, "annotation": {"number": 64, "value": 127}, "group": "control_change"}, {"time": 4031, "annotation": {"number": 64, "value": 0}, "group": "control_change"}, {"time": 4036, "annotation": {"number": 64, "value": 127}, "group": "control_change"}, {"time": 4044, "annotation": {"number": 64, "value": 0}, "group": "control_change"}, {"time": 4047, "annotation": {"number": 64, "value": 0}, "group": "control_change"}, {"time": 4053, "annotation": {"number": 64, "value": 127}, "group": "control_change"}, {"time": 4080, "annotation": {"number": 64, "value": 0}, "group": "control_change"}, {"time": 4087, "annotation": {"number": 64, "value": 127}, "group": "control_change"}, {"time": 4183, "annotation": {"number": 64, "value": 0}, "group": "control_change"}, {"time": 4187, "annotation": {"number": 64, "value": 127}, "group": "control_change"}, {"time": 4316, "annotation": {"number": 64, "value": 0}, "group": "control_change"}, {"time": 4317, "annotation": {"number": 64, "value": 127}, "group": "control_change"}, {"time": 4320, "annotation": {"number": 64, "value": 0}, "group": "control_change"}, {"time": 4321, "annotation": {"number": 64, "value": 127}, "group": "control_change"}, {"time": 4327, "annotation": {"number": 64, "value": 0}, "group": "control_change"}]}]}