{"metadata": {"schema_version": "0.2", "title": "None", "source_filename": "728.mid", "source_format": "midi"}, "resolution": 12, "tempos": [{"time": 0, "qpm": 70.05000402787523}], "time_signatures": [{"time": 0, "numerator": 1, "denominator": 4}], "tracks": [{"program": 0, "is_drum": false, "name": "MELODY", "notes": [{"time": 88, "pitch": 57, "duration": 7, "velocity": 96}, {"time": 94, "pitch": 59, "duration": 5, "velocity": 100}, {"time": 100, "pitch": 61, "duration": 6, "velocity": 95}, {"time": 106, "pitch": 54, "duration": 16, "velocity": 81}, {"time": 184, "pitch": 52, "duration": 5, "velocity": 92}, {"time": 190, "pitch": 54, "duration": 5, "velocity": 95}, {"time": 196, "pitch": 57, "duration": 5, "velocity": 88}, {"time": 202, "pitch": 61, "duration": 11, "velocity": 122}, {"time": 214, "pitch": 59, "duration": 3, "velocity": 107}, {"time": 217, "pitch": 61, "duration": 2, "velocity": 78}, {"time": 218, "pitch": 59, "duration": 2, "velocity": 66}, {"time": 220, "pitch": 57, "duration": 3, "velocity": 72}, {"time": 223, "pitch": 59, "duration": 3, "velocity": 85}, {"time": 226, "pitch": 57, "duration": 26, "velocity": 92}, {"time": 274, "pitch": 52, "duration": 4, "velocity": 93}, {"time": 280, "pitch": 52, "duration": 1, "velocity": 88}, {"time": 283, "pitch": 52, "duration": 2, "velocity": 79}, {"time": 286, "pitch": 57, "duration": 6, "velocity": 92}, {"time": 292, "pitch": 59, "duration": 4, "velocity": 83}, {"time": 295, "pitch": 61, "duration": 2, "velocity": 79}, {"time": 298, "pitch": 64, "duration": 12, "velocity": 90}, {"time": 316, "pitch": 69, "duration": 5, "velocity": 100}, {"time": 322, "pitch": 66, "duration": 7, "velocity": 93}, {"time": 328, "pitch": 66, "duration": 1, "velocity": 102}, {"time": 334, "pitch": 61, "duration": 6, "velocity": 100}, {"time": 340, "pitch": 59, "duration": 6, "velocity": 78}, {"time": 346, "pitch": 57, "duration": 11, "velocity": 74}, {"time": 370, "pitch": 61, "duration": 3, "velocity": 100}, {"time": 376, "pitch": 61, "duration": 5, "velocity": 97}, {"time": 382, "pitch": 64, "duration": 7, "velocity": 93}, {"time": 388, "pitch": 69, "duration": 5, "velocity": 99}, {"time": 394, "pitch": 69, "duration": 11, "velocity": 97}, {"time": 406, "pitch": 66, "duration": 5, "velocity": 100}, {"time": 412, "pitch": 64, "duration": 3, "velocity": 85}, {"time": 415, "pitch": 66, "duration": 3, "velocity": 93}, {"time": 418, "pitch": 64, "duration": 19, "velocity": 89}, {"time": 466, "pitch": 61, "duration": 3, "velocity": 95}, {"time": 472, "pitch": 61, "duration": 5, "velocity": 107}, {"time": 478, "pitch": 64, "duration": 6, "velocity": 97}, {"time": 484, "pitch": 69, "duration": 4, "velocity": 92}, {"time": 490, "pitch": 69, "duration": 9, "velocity": 100}, {"time": 508, "pitch": 66, "duration": 3, "velocity": 112}, {"time": 511, "pitch": 64, "duration": 3, "velocity": 74}, {"time": 514, "pitch": 66, "duration": 6, "velocity": 102}, {"time": 526, "pitch": 66, "duration": 5, "velocity": 97}, {"time": 532, "pitch": 61, "duration": 2, "velocity": 90}, {"time": 535, "pitch": 64, "duration": 3, "velocity": 81}, {"time": 538, "pitch": 61, "duration": 9, "velocity": 107}, {"time": 562, "pitch": 52, "duration": 4, "velocity": 90}, {"time": 568, "pitch": 52, "duration": 6, "velocity": 90}, {"time": 571, "pitch": 57, "duration": 4, "velocity": 76}, {"time": 580, "pitch": 59, "duration": 4, "velocity": 86}, {"time": 583, "pitch": 61, "duration": 3, "velocity": 96}, {"time": 586, "pitch": 64, "duration": 10, "velocity": 89}, {"time": 598, "pitch": 64, "duration": 5, "velocity": 89}, {"time": 604, "pitch": 57, "duration": 3, "velocity": 83}, {"time": 607, "pitch": 61, "duration": 3, "velocity": 79}, {"time": 610, "pitch": 59, "duration": 14, "velocity": 89}, {"time": 658, "pitch": 61, "duration": 4, "velocity": 97}, {"time": 664, "pitch": 61, "duration": 5, "velocity": 93}, {"time": 670, "pitch": 64, "duration": 7, "velocity": 88}, {"time": 676, "pitch": 66, "duration": 3, "velocity": 117}, {"time": 679, "pitch": 69, "duration": 2, "velocity": 79}, {"time": 682, "pitch": 69, "duration": 12, "velocity": 100}, {"time": 697, "pitch": 69, "duration": 3, "velocity": 81}, {"time": 700, "pitch": 66, "duration": 3, "velocity": 88}, {"time": 703, "pitch": 64, "duration": 3, "velocity": 83}, {"time": 706, "pitch": 66, "duration": 9, "velocity": 100}, {"time": 718, "pitch": 66, "duration": 5, "velocity": 99}, {"time": 724, "pitch": 61, "duration": 3, "velocity": 85}, {"time": 727, "pitch": 64, "duration": 4, "velocity": 77}, {"time": 730, "pitch": 61, "duration": 14, "velocity": 99}, {"time": 754, "pitch": 66, "duration": 5, "velocity": 96}, {"time": 760, "pitch": 64, "duration": 5, "velocity": 82}, {"time": 766, "pitch": 59, "duration": 5, "velocity": 90}, {"time": 772, "pitch": 61, "duration": 3, "velocity": 88}, {"time": 775, "pitch": 64, "duration": 1, "velocity": 93}, {"time": 778, "pitch": 64, "duration": 9, "velocity": 95}, {"time": 802, "pitch": 52, "duration": 6, "velocity": 89}, {"time": 808, "pitch": 54, "duration": 5, "velocity": 88}, {"time": 814, "pitch": 61, "duration": 6, "velocity": 81}, {"time": 820, "pitch": 59, "duration": 6, "velocity": 82}, {"time": 826, "pitch": 57, "duration": 21, "velocity": 92}, {"time": 856, "pitch": 59, "duration": 6, "velocity": 88}, {"time": 862, "pitch": 61, "duration": 11, "velocity": 85}, {"time": 871, "pitch": 64, "duration": 12, "velocity": 93}, {"time": 910, "pitch": 61, "duration": 4, "velocity": 112}, {"time": 916, "pitch": 64, "duration": 3, "velocity": 81}, {"time": 919, "pitch": 66, "duration": 3, "velocity": 96}, {"time": 922, "pitch": 69, "duration": 10, "velocity": 100}, {"time": 940, "pitch": 71, "duration": 1, "velocity": 99}, {"time": 946, "pitch": 71, "duration": 9, "velocity": 117}, {"time": 958, "pitch": 69, "duration": 5, "velocity": 112}, {"time": 964, "pitch": 66, "duration": 3, "velocity": 102}, {"time": 967, "pitch": 69, "duration": 3, "velocity": 92}, {"time": 970, "pitch": 66, "duration": 14, "velocity": 127}, {"time": 1006, "pitch": 64, "duration": 6, "velocity": 102}, {"time": 1012, "pitch": 66, "duration": 3, "velocity": 93}, {"time": 1015, "pitch": 69, "duration": 3, "velocity": 82}, {"time": 1018, "pitch": 66, "duration": 15, "velocity": 112}, {"time": 1036, "pitch": 66, "duration": 6, "velocity": 102}, {"time": 1042, "pitch": 61, "duration": 5, "velocity": 99}, {"time": 1048, "pitch": 59, "duration": 3, "velocity": 82}, {"time": 1051, "pitch": 57, "duration": 3, "velocity": 69}, {"time": 1054, "pitch": 59, "duration": 7, "velocity": 89}, {"time": 1060, "pitch": 61, "duration": 5, "velocity": 85}, {"time": 1066, "pitch": 64, "duration": 20, "velocity": 97}, {"time": 1102, "pitch": 61, "duration": 5, "velocity": 112}, {"time": 1108, "pitch": 64, "duration": 4, "velocity": 96}, {"time": 1111, "pitch": 66, "duration": 3, "velocity": 93}, {"time": 1114, "pitch": 69, "duration": 8, "velocity": 97}, {"time": 1132, "pitch": 71, "duration": 3, "velocity": 102}, {"time": 1138, "pitch": 71, "duration": 7, "velocity": 112}, {"time": 1150, "pitch": 69, "duration": 5, "velocity": 99}, {"time": 1156, "pitch": 66, "duration": 3, "velocity": 93}, {"time": 1159, "pitch": 69, "duration": 3, "velocity": 85}, {"time": 1162, "pitch": 66, "duration": 12, "velocity": 112}, {"time": 1198, "pitch": 64, "duration": 4, "velocity": 100}, {"time": 1204, "pitch": 64, "duration": 3, "velocity": 95}, {"time": 1207, "pitch": 69, "duration": 3, "velocity": 92}, {"time": 1210, "pitch": 66, "duration": 7, "velocity": 117}, {"time": 1228, "pitch": 64, "duration": 2, "velocity": 100}, {"time": 1231, "pitch": 66, "duration": 3, "velocity": 69}, {"time": 1234, "pitch": 61, "duration": 3, "velocity": 100}, {"time": 1243, "pitch": 61, "duration": 3, "velocity": 97}, {"time": 1246, "pitch": 57, "duration": 5, "velocity": 93}, {"time": 1252, "pitch": 54, "duration": 6, "velocity": 77}, {"time": 1258, "pitch": 52, "duration": 11, "velocity": 76}, {"time": 1276, "pitch": 64, "duration": 3, "velocity": 90}, {"time": 1282, "pitch": 61, "duration": 8, "velocity": 92}, {"time": 1294, "pitch": 59, "duration": 5, "velocity": 86}, {"time": 1300, "pitch": 57, "duration": 3, "velocity": 72}, {"time": 1303, "pitch": 59, "duration": 3, "velocity": 72}, {"time": 1306, "pitch": 57, "duration": 23, "velocity": 86}, {"time": 1408, "pitch": 57, "duration": 7, "velocity": 96}, {"time": 1414, "pitch": 59, "duration": 5, "velocity": 100}, {"time": 1420, "pitch": 61, "duration": 6, "velocity": 95}, {"time": 1426, "pitch": 54, "duration": 16, "velocity": 81}, {"time": 1504, "pitch": 52, "duration": 5, "velocity": 92}, {"time": 1510, "pitch": 54, "duration": 5, "velocity": 95}, {"time": 1516, "pitch": 57, "duration": 5, "velocity": 88}, {"time": 1522, "pitch": 61, "duration": 11, "velocity": 122}, {"time": 1534, "pitch": 59, "duration": 3, "velocity": 107}, {"time": 1537, "pitch": 61, "duration": 2, "velocity": 78}, {"time": 1538, "pitch": 59, "duration": 2, "velocity": 66}, {"time": 1540, "pitch": 57, "duration": 3, "velocity": 72}, {"time": 1543, "pitch": 59, "duration": 3, "velocity": 85}, {"time": 1546, "pitch": 57, "duration": 26, "velocity": 92}, {"time": 1594, "pitch": 52, "duration": 4, "velocity": 93}, {"time": 1600, "pitch": 52, "duration": 1, "velocity": 88}, {"time": 1603, "pitch": 52, "duration": 2, "velocity": 79}, {"time": 1606, "pitch": 57, "duration": 6, "velocity": 92}, {"time": 1612, "pitch": 59, "duration": 4, "velocity": 83}, {"time": 1615, "pitch": 61, "duration": 2, "velocity": 79}, {"time": 1618, "pitch": 64, "duration": 12, "velocity": 90}, {"time": 1636, "pitch": 69, "duration": 5, "velocity": 100}, {"time": 1642, "pitch": 66, "duration": 7, "velocity": 93}, {"time": 1648, "pitch": 66, "duration": 1, "velocity": 102}, {"time": 1654, "pitch": 61, "duration": 6, "velocity": 100}, {"time": 1660, "pitch": 59, "duration": 6, "velocity": 78}, {"time": 1666, "pitch": 57, "duration": 11, "velocity": 74}, {"time": 1690, "pitch": 61, "duration": 3, "velocity": 100}, {"time": 1696, "pitch": 61, "duration": 5, "velocity": 97}, {"time": 1702, "pitch": 64, "duration": 7, "velocity": 93}, {"time": 1708, "pitch": 69, "duration": 5, "velocity": 99}, {"time": 1714, "pitch": 69, "duration": 11, "velocity": 97}, {"time": 1726, "pitch": 66, "duration": 5, "velocity": 100}, {"time": 1732, "pitch": 64, "duration": 3, "velocity": 85}, {"time": 1735, "pitch": 66, "duration": 3, "velocity": 93}, {"time": 1738, "pitch": 64, "duration": 19, "velocity": 89}, {"time": 1786, "pitch": 61, "duration": 3, "velocity": 95}, {"time": 1792, "pitch": 61, "duration": 5, "velocity": 107}, {"time": 1798, "pitch": 64, "duration": 6, "velocity": 97}, {"time": 1804, "pitch": 69, "duration": 4, "velocity": 92}, {"time": 1810, "pitch": 69, "duration": 9, "velocity": 100}, {"time": 1828, "pitch": 66, "duration": 3, "velocity": 112}, {"time": 1831, "pitch": 64, "duration": 3, "velocity": 74}, {"time": 1834, "pitch": 66, "duration": 6, "velocity": 102}, {"time": 1846, "pitch": 66, "duration": 5, "velocity": 97}, {"time": 1852, "pitch": 61, "duration": 2, "velocity": 90}, {"time": 1855, "pitch": 64, "duration": 3, "velocity": 81}, {"time": 1858, "pitch": 61, "duration": 9, "velocity": 107}, {"time": 1882, "pitch": 52, "duration": 4, "velocity": 90}, {"time": 1888, "pitch": 52, "duration": 6, "velocity": 90}, {"time": 1891, "pitch": 57, "duration": 4, "velocity": 76}, {"time": 1900, "pitch": 59, "duration": 4, "velocity": 86}, {"time": 1903, "pitch": 61, "duration": 3, "velocity": 96}, {"time": 1906, "pitch": 64, "duration": 10, "velocity": 89}, {"time": 1918, "pitch": 64, "duration": 5, "velocity": 89}, {"time": 1924, "pitch": 57, "duration": 3, "velocity": 83}, {"time": 1927, "pitch": 61, "duration": 3, "velocity": 79}, {"time": 1930, "pitch": 59, "duration": 14, "velocity": 89}, {"time": 1978, "pitch": 61, "duration": 4, "velocity": 97}, {"time": 1984, "pitch": 61, "duration": 5, "velocity": 93}, {"time": 1990, "pitch": 64, "duration": 7, "velocity": 88}, {"time": 1996, "pitch": 66, "duration": 3, "velocity": 117}, {"time": 1999, "pitch": 69, "duration": 2, "velocity": 79}, {"time": 2002, "pitch": 69, "duration": 12, "velocity": 100}, {"time": 2017, "pitch": 69, "duration": 3, "velocity": 81}, {"time": 2020, "pitch": 66, "duration": 3, "velocity": 88}, {"time": 2023, "pitch": 64, "duration": 3, "velocity": 83}, {"time": 2026, "pitch": 66, "duration": 9, "velocity": 100}, {"time": 2038, "pitch": 66, "duration": 5, "velocity": 99}, {"time": 2044, "pitch": 61, "duration": 3, "velocity": 85}, {"time": 2047, "pitch": 64, "duration": 4, "velocity": 77}, {"time": 2050, "pitch": 61, "duration": 14, "velocity": 99}, {"time": 2074, "pitch": 66, "duration": 5, "velocity": 96}, {"time": 2080, "pitch": 64, "duration": 5, "velocity": 82}, {"time": 2086, "pitch": 59, "duration": 5, "velocity": 90}, {"time": 2092, "pitch": 61, "duration": 3, "velocity": 88}, {"time": 2095, "pitch": 64, "duration": 1, "velocity": 93}, {"time": 2098, "pitch": 64, "duration": 9, "velocity": 95}, {"time": 2122, "pitch": 52, "duration": 6, "velocity": 89}, {"time": 2128, "pitch": 54, "duration": 5, "velocity": 88}, {"time": 2134, "pitch": 61, "duration": 6, "velocity": 81}, {"time": 2140, "pitch": 59, "duration": 6, "velocity": 82}, {"time": 2146, "pitch": 57, "duration": 21, "velocity": 92}, {"time": 2176, "pitch": 59, "duration": 6, "velocity": 88}, {"time": 2182, "pitch": 61, "duration": 11, "velocity": 85}, {"time": 2191, "pitch": 64, "duration": 12, "velocity": 93}, {"time": 2230, "pitch": 61, "duration": 4, "velocity": 112}, {"time": 2236, "pitch": 64, "duration": 3, "velocity": 81}, {"time": 2239, "pitch": 66, "duration": 3, "velocity": 96}, {"time": 2242, "pitch": 69, "duration": 10, "velocity": 100}, {"time": 2260, "pitch": 71, "duration": 1, "velocity": 99}, {"time": 2266, "pitch": 71, "duration": 9, "velocity": 117}, {"time": 2278, "pitch": 69, "duration": 5, "velocity": 112}, {"time": 2284, "pitch": 66, "duration": 3, "velocity": 102}, {"time": 2287, "pitch": 69, "duration": 3, "velocity": 92}, {"time": 2290, "pitch": 66, "duration": 14, "velocity": 127}, {"time": 2326, "pitch": 64, "duration": 6, "velocity": 102}, {"time": 2332, "pitch": 66, "duration": 3, "velocity": 93}, {"time": 2335, "pitch": 69, "duration": 3, "velocity": 82}, {"time": 2338, "pitch": 66, "duration": 15, "velocity": 112}, {"time": 2356, "pitch": 66, "duration": 6, "velocity": 102}, {"time": 2362, "pitch": 61, "duration": 5, "velocity": 99}, {"time": 2368, "pitch": 59, "duration": 3, "velocity": 82}, {"time": 2371, "pitch": 57, "duration": 3, "velocity": 69}, {"time": 2374, "pitch": 59, "duration": 7, "velocity": 89}, {"time": 2380, "pitch": 61, "duration": 5, "velocity": 85}, {"time": 2386, "pitch": 64, "duration": 20, "velocity": 97}, {"time": 2422, "pitch": 61, "duration": 5, "velocity": 112}, {"time": 2428, "pitch": 64, "duration": 4, "velocity": 96}, {"time": 2431, "pitch": 66, "duration": 3, "velocity": 93}, {"time": 2434, "pitch": 69, "duration": 8, "velocity": 97}, {"time": 2452, "pitch": 71, "duration": 3, "velocity": 102}, {"time": 2458, "pitch": 71, "duration": 7, "velocity": 112}, {"time": 2470, "pitch": 69, "duration": 5, "velocity": 99}, {"time": 2476, "pitch": 66, "duration": 3, "velocity": 93}, {"time": 2479, "pitch": 69, "duration": 3, "velocity": 85}, {"time": 2482, "pitch": 66, "duration": 12, "velocity": 112}, {"time": 2518, "pitch": 64, "duration": 4, "velocity": 100}, {"time": 2524, "pitch": 64, "duration": 3, "velocity": 95}, {"time": 2527, "pitch": 69, "duration": 3, "velocity": 92}, {"time": 2530, "pitch": 66, "duration": 7, "velocity": 117}, {"time": 2548, "pitch": 64, "duration": 2, "velocity": 100}, {"time": 2551, "pitch": 66, "duration": 3, "velocity": 69}, {"time": 2554, "pitch": 61, "duration": 3, "velocity": 100}, {"time": 2563, "pitch": 61, "duration": 3, "velocity": 97}, {"time": 2566, "pitch": 57, "duration": 5, "velocity": 93}, {"time": 2572, "pitch": 54, "duration": 6, "velocity": 77}, {"time": 2578, "pitch": 52, "duration": 11, "velocity": 76}, {"time": 2596, "pitch": 64, "duration": 3, "velocity": 90}, {"time": 2602, "pitch": 61, "duration": 8, "velocity": 92}, {"time": 2626, "pitch": 64, "duration": 13, "velocity": 107}, {"time": 2638, "pitch": 66, "duration": 6, "velocity": 95}, {"time": 2644, "pitch": 69, "duration": 4, "velocity": 97}, {"time": 2650, "pitch": 69, "duration": 53, "velocity": 127}]}, {"program": 0, "is_drum": false, "name": "BRIDGE", "notes": [{"time": 22, "pitch": 73, "duration": 6, "velocity": 99}, {"time": 28, "pitch": 76, "duration": 3, "velocity": 89}, {"time": 31, "pitch": 78, "duration": 4, "velocity": 97}, {"time": 34, "pitch": 81, "duration": 13, "velocity": 100}, {"time": 52, "pitch": 83, "duration": 4, "velocity": 100}, {"time": 58, "pitch": 83, "duration": 9, "velocity": 93}, {"time": 70, "pitch": 81, "duration": 5, "velocity": 99}, {"time": 76, "pitch": 78, "duration": 3, "velocity": 79}, {"time": 79, "pitch": 81, "duration": 3, "velocity": 83}, {"time": 82, "pitch": 78, "duration": 16, "velocity": 112}, {"time": 118, "pitch": 76, "duration": 6, "velocity": 96}, {"time": 124, "pitch": 78, "duration": 3, "velocity": 93}, {"time": 127, "pitch": 81, "duration": 3, "velocity": 83}, {"time": 130, "pitch": 78, "duration": 11, "velocity": 112}, {"time": 148, "pitch": 76, "duration": 3, "velocity": 96}, {"time": 151, "pitch": 78, "duration": 3, "velocity": 79}, {"time": 154, "pitch": 73, "duration": 8, "velocity": 96}, {"time": 163, "pitch": 71, "duration": 3, "velocity": 93}, {"time": 166, "pitch": 69, "duration": 6, "velocity": 92}, {"time": 172, "pitch": 66, "duration": 6, "velocity": 88}, {"time": 178, "pitch": 64, "duration": 17, "velocity": 89}, {"time": 196, "pitch": 76, "duration": 6, "velocity": 93}, {"time": 202, "pitch": 85, "duration": 9, "velocity": 100}, {"time": 214, "pitch": 83, "duration": 3, "velocity": 93}, {"time": 217, "pitch": 85, "duration": 3, "velocity": 48}, {"time": 220, "pitch": 81, "duration": 3, "velocity": 67}, {"time": 223, "pitch": 83, "duration": 3, "velocity": 74}, {"time": 226, "pitch": 81, "duration": 23, "velocity": 82}, {"time": 1342, "pitch": 73, "duration": 6, "velocity": 99}, {"time": 1348, "pitch": 76, "duration": 3, "velocity": 89}, {"time": 1351, "pitch": 78, "duration": 4, "velocity": 97}, {"time": 1354, "pitch": 81, "duration": 13, "velocity": 100}, {"time": 1372, "pitch": 83, "duration": 4, "velocity": 100}, {"time": 1378, "pitch": 83, "duration": 9, "velocity": 93}, {"time": 1390, "pitch": 81, "duration": 5, "velocity": 99}, {"time": 1396, "pitch": 78, "duration": 3, "velocity": 79}, {"time": 1399, "pitch": 81, "duration": 3, "velocity": 83}, {"time": 1402, "pitch": 78, "duration": 16, "velocity": 112}, {"time": 1438, "pitch": 76, "duration": 6, "velocity": 96}, {"time": 1444, "pitch": 78, "duration": 3, "velocity": 93}, {"time": 1447, "pitch": 81, "duration": 3, "velocity": 83}, {"time": 1450, "pitch": 78, "duration": 11, "velocity": 112}, {"time": 1468, "pitch": 76, "duration": 3, "velocity": 96}, {"time": 1471, "pitch": 78, "duration": 3, "velocity": 79}, {"time": 1474, "pitch": 73, "duration": 8, "velocity": 96}, {"time": 1483, "pitch": 71, "duration": 3, "velocity": 93}, {"time": 1486, "pitch": 69, "duration": 6, "velocity": 92}, {"time": 1492, "pitch": 66, "duration": 6, "velocity": 88}, {"time": 1498, "pitch": 64, "duration": 17, "velocity": 89}, {"time": 1516, "pitch": 76, "duration": 6, "velocity": 93}, {"time": 1522, "pitch": 85, "duration": 9, "velocity": 100}, {"time": 1534, "pitch": 83, "duration": 3, "velocity": 93}, {"time": 1537, "pitch": 85, "duration": 3, "velocity": 48}, {"time": 1540, "pitch": 81, "duration": 3, "velocity": 67}, {"time": 1543, "pitch": 83, "duration": 3, "velocity": 74}, {"time": 1546, "pitch": 81, "duration": 23, "velocity": 82}]}, {"program": 0, "is_drum": false, "name": "PIANO", "notes": [{"time": 34, "pitch": 45, "duration": 17, "velocity": 93}, {"time": 40, "pitch": 52, "duration": 10, "velocity": 53}, {"time": 46, "pitch": 64, "duration": 12, "velocity": 92}, {"time": 52, "pitch": 61, "duration": 6, "velocity": 63}, {"time": 58, "pitch": 38, "duration": 14, "velocity": 77}, {"time": 64, "pitch": 45, "duration": 10, "velocity": 59}, {"time": 70, "pitch": 66, "duration": 12, "velocity": 96}, {"time": 76, "pitch": 57, "duration": 6, "velocity": 86}, {"time": 82, "pitch": 42, "duration": 22, "velocity": 77}, {"time": 88, "pitch": 49, "duration": 17, "velocity": 41}, {"time": 94, "pitch": 54, "duration": 25, "velocity": 50}, {"time": 94, "pitch": 61, "duration": 19, "velocity": 69}, {"time": 94, "pitch": 66, "duration": 35, "velocity": 72}, {"time": 100, "pitch": 57, "duration": 19, "velocity": 71}, {"time": 106, "pitch": 42, "duration": 15, "velocity": 76}, {"time": 112, "pitch": 49, "duration": 7, "velocity": 62}, {"time": 118, "pitch": 61, "duration": 11, "velocity": 90}, {"time": 124, "pitch": 57, "duration": 7, "velocity": 65}, {"time": 130, "pitch": 38, "duration": 22, "velocity": 81}, {"time": 136, "pitch": 45, "duration": 18, "velocity": 51}, {"time": 142, "pitch": 50, "duration": 24, "velocity": 69}, {"time": 142, "pitch": 62, "duration": 19, "velocity": 67}, {"time": 142, "pitch": 66, "duration": 20, "velocity": 63}, {"time": 148, "pitch": 57, "duration": 18, "velocity": 63}, {"time": 154, "pitch": 38, "duration": 16, "velocity": 63}, {"time": 160, "pitch": 45, "duration": 12, "velocity": 40}, {"time": 166, "pitch": 62, "duration": 12, "velocity": 70}, {"time": 172, "pitch": 57, "duration": 7, "velocity": 71}, {"time": 178, "pitch": 40, "duration": 22, "velocity": 89}, {"time": 184, "pitch": 47, "duration": 7, "velocity": 59}, {"time": 190, "pitch": 59, "duration": 12, "velocity": 92}, {"time": 193, "pitch": 47, "duration": 8, "velocity": 53}, {"time": 196, "pitch": 56, "duration": 6, "velocity": 67}, {"time": 199, "pitch": 52, "duration": 3, "velocity": 73}, {"time": 202, "pitch": 40, "duration": 16, "velocity": 77}, {"time": 214, "pitch": 64, "duration": 12, "velocity": 48}, {"time": 214, "pitch": 68, "duration": 12, "velocity": 53}, {"time": 214, "pitch": 71, "duration": 12, "velocity": 50}, {"time": 226, "pitch": 45, "duration": 22, "velocity": 59}, {"time": 232, "pitch": 52, "duration": 18, "velocity": 59}, {"time": 238, "pitch": 61, "duration": 18, "velocity": 69}, {"time": 238, "pitch": 64, "duration": 36, "velocity": 54}, {"time": 244, "pitch": 59, "duration": 9, "velocity": 46}, {"time": 250, "pitch": 45, "duration": 15, "velocity": 58}, {"time": 256, "pitch": 52, "duration": 8, "velocity": 49}, {"time": 262, "pitch": 61, "duration": 12, "velocity": 86}, {"time": 274, "pitch": 45, "duration": 22, "velocity": 71}, {"time": 280, "pitch": 52, "duration": 18, "velocity": 45}, {"time": 286, "pitch": 64, "duration": 22, "velocity": 75}, {"time": 292, "pitch": 61, "duration": 15, "velocity": 59}, {"time": 298, "pitch": 45, "duration": 22, "velocity": 72}, {"time": 304, "pitch": 52, "duration": 17, "velocity": 59}, {"time": 310, "pitch": 64, "duration": 23, "velocity": 83}, {"time": 316, "pitch": 61, "duration": 17, "velocity": 56}, {"time": 322, "pitch": 45, "duration": 16, "velocity": 67}, {"time": 328, "pitch": 52, "duration": 12, "velocity": 46}, {"time": 334, "pitch": 57, "duration": 18, "velocity": 63}, {"time": 334, "pitch": 61, "duration": 18, "velocity": 61}, {"time": 334, "pitch": 64, "duration": 18, "velocity": 63}, {"time": 340, "pitch": 45, "duration": 4, "velocity": 52}, {"time": 346, "pitch": 45, "duration": 14, "velocity": 82}, {"time": 352, "pitch": 52, "duration": 8, "velocity": 63}, {"time": 358, "pitch": 64, "duration": 12, "velocity": 90}, {"time": 364, "pitch": 57, "duration": 6, "velocity": 72}, {"time": 370, "pitch": 42, "duration": 18, "velocity": 81}, {"time": 376, "pitch": 49, "duration": 10, "velocity": 33}, {"time": 379, "pitch": 54, "duration": 4, "velocity": 55}, {"time": 382, "pitch": 66, "duration": 11, "velocity": 90}, {"time": 388, "pitch": 57, "duration": 5, "velocity": 79}, {"time": 394, "pitch": 38, "duration": 18, "velocity": 71}, {"time": 400, "pitch": 45, "duration": 14, "velocity": 58}, {"time": 406, "pitch": 62, "duration": 16, "velocity": 77}, {"time": 412, "pitch": 57, "duration": 6, "velocity": 68}, {"time": 418, "pitch": 40, "duration": 22, "velocity": 59}, {"time": 424, "pitch": 47, "duration": 18, "velocity": 44}, {"time": 427, "pitch": 59, "duration": 2, "velocity": 17}, {"time": 430, "pitch": 52, "duration": 11, "velocity": 40}, {"time": 430, "pitch": 64, "duration": 12, "velocity": 69}, {"time": 436, "pitch": 59, "duration": 7, "velocity": 67}, {"time": 442, "pitch": 40, "duration": 17, "velocity": 79}, {"time": 448, "pitch": 47, "duration": 6, "velocity": 48}, {"time": 454, "pitch": 59, "duration": 11, "velocity": 90}, {"time": 457, "pitch": 47, "duration": 3, "velocity": 42}, {"time": 460, "pitch": 56, "duration": 6, "velocity": 51}, {"time": 463, "pitch": 52, "duration": 3, "velocity": 53}, {"time": 466, "pitch": 45, "duration": 22, "velocity": 73}, {"time": 472, "pitch": 52, "duration": 18, "velocity": 53}, {"time": 478, "pitch": 61, "duration": 17, "velocity": 71}, {"time": 478, "pitch": 64, "duration": 22, "velocity": 65}, {"time": 484, "pitch": 57, "duration": 24, "velocity": 66}, {"time": 490, "pitch": 45, "duration": 21, "velocity": 70}, {"time": 496, "pitch": 52, "duration": 15, "velocity": 44}, {"time": 502, "pitch": 64, "duration": 12, "velocity": 75}, {"time": 508, "pitch": 61, "duration": 6, "velocity": 59}, {"time": 514, "pitch": 42, "duration": 16, "velocity": 86}, {"time": 520, "pitch": 54, "duration": 7, "velocity": 69}, {"time": 526, "pitch": 66, "duration": 10, "velocity": 90}, {"time": 532, "pitch": 57, "duration": 5, "velocity": 75}, {"time": 538, "pitch": 37, "duration": 15, "velocity": 79}, {"time": 544, "pitch": 49, "duration": 10, "velocity": 59}, {"time": 550, "pitch": 64, "duration": 12, "velocity": 72}, {"time": 556, "pitch": 56, "duration": 5, "velocity": 78}, {"time": 562, "pitch": 45, "duration": 22, "velocity": 66}, {"time": 568, "pitch": 52, "duration": 18, "velocity": 58}, {"time": 574, "pitch": 64, "duration": 22, "velocity": 77}, {"time": 580, "pitch": 61, "duration": 16, "velocity": 61}, {"time": 586, "pitch": 45, "duration": 22, "velocity": 63}, {"time": 592, "pitch": 52, "duration": 17, "velocity": 43}, {"time": 598, "pitch": 61, "duration": 13, "velocity": 60}, {"time": 598, "pitch": 64, "duration": 13, "velocity": 62}, {"time": 604, "pitch": 57, "duration": 7, "velocity": 63}, {"time": 610, "pitch": 47, "duration": 18, "velocity": 66}, {"time": 616, "pitch": 54, "duration": 9, "velocity": 58}, {"time": 622, "pitch": 66, "duration": 12, "velocity": 92}, {"time": 628, "pitch": 62, "duration": 6, "velocity": 68}, {"time": 634, "pitch": 40, "duration": 18, "velocity": 74}, {"time": 637, "pitch": 47, "duration": 9, "velocity": 53}, {"time": 640, "pitch": 52, "duration": 4, "velocity": 69}, {"time": 643, "pitch": 56, "duration": 15, "velocity": 60}, {"time": 646, "pitch": 59, "duration": 12, "velocity": 70}, {"time": 649, "pitch": 47, "duration": 2, "velocity": 47}, {"time": 652, "pitch": 52, "duration": 5, "velocity": 70}, {"time": 658, "pitch": 45, "duration": 18, "velocity": 69}, {"time": 664, "pitch": 52, "duration": 11, "velocity": 55}, {"time": 670, "pitch": 64, "duration": 12, "velocity": 90}, {"time": 676, "pitch": 61, "duration": 6, "velocity": 90}, {"time": 682, "pitch": 38, "duration": 15, "velocity": 76}, {"time": 688, "pitch": 45, "duration": 9, "velocity": 63}, {"time": 694, "pitch": 66, "duration": 12, "velocity": 89}, {"time": 700, "pitch": 57, "duration": 6, "velocity": 82}, {"time": 706, "pitch": 42, "duration": 16, "velocity": 69}, {"time": 712, "pitch": 49, "duration": 9, "velocity": 44}, {"time": 718, "pitch": 54, "duration": 3, "velocity": 50}, {"time": 718, "pitch": 61, "duration": 11, "velocity": 97}, {"time": 724, "pitch": 57, "duration": 6, "velocity": 68}, {"time": 730, "pitch": 37, "duration": 18, "velocity": 78}, {"time": 736, "pitch": 44, "duration": 7, "velocity": 33}, {"time": 742, "pitch": 49, "duration": 6, "velocity": 58}, {"time": 742, "pitch": 56, "duration": 11, "velocity": 78}, {"time": 748, "pitch": 59, "duration": 6, "velocity": 63}, {"time": 754, "pitch": 42, "duration": 15, "velocity": 64}, {"time": 760, "pitch": 54, "duration": 7, "velocity": 67}, {"time": 766, "pitch": 61, "duration": 14, "velocity": 93}, {"time": 772, "pitch": 57, "duration": 5, "velocity": 63}, {"time": 778, "pitch": 40, "duration": 22, "velocity": 71}, {"time": 784, "pitch": 47, "duration": 18, "velocity": 55}, {"time": 790, "pitch": 52, "duration": 18, "velocity": 55}, {"time": 790, "pitch": 64, "duration": 20, "velocity": 78}, {"time": 796, "pitch": 59, "duration": 18, "velocity": 56}, {"time": 802, "pitch": 40, "duration": 16, "velocity": 66}, {"time": 808, "pitch": 47, "duration": 11, "velocity": 39}, {"time": 814, "pitch": 52, "duration": 6, "velocity": 62}, {"time": 814, "pitch": 64, "duration": 11, "velocity": 72}, {"time": 820, "pitch": 59, "duration": 6, "velocity": 78}, {"time": 826, "pitch": 45, "duration": 22, "velocity": 77}, {"time": 832, "pitch": 52, "duration": 18, "velocity": 63}, {"time": 838, "pitch": 61, "duration": 18, "velocity": 74}, {"time": 838, "pitch": 64, "duration": 19, "velocity": 66}, {"time": 844, "pitch": 59, "duration": 9, "velocity": 64}, {"time": 850, "pitch": 45, "duration": 22, "velocity": 69}, {"time": 856, "pitch": 52, "duration": 18, "velocity": 47}, {"time": 862, "pitch": 61, "duration": 12, "velocity": 90}, {"time": 862, "pitch": 64, "duration": 12, "velocity": 66}, {"time": 868, "pitch": 59, "duration": 6, "velocity": 61}, {"time": 874, "pitch": 45, "duration": 21, "velocity": 68}, {"time": 880, "pitch": 52, "duration": 18, "velocity": 62}, {"time": 886, "pitch": 57, "duration": 1, "velocity": 40}, {"time": 886, "pitch": 64, "duration": 22, "velocity": 79}, {"time": 892, "pitch": 61, "duration": 17, "velocity": 69}, {"time": 898, "pitch": 45, "duration": 22, "velocity": 71}, {"time": 904, "pitch": 52, "duration": 7, "velocity": 49}, {"time": 910, "pitch": 61, "duration": 11, "velocity": 112}, {"time": 910, "pitch": 64, "duration": 11, "velocity": 83}, {"time": 913, "pitch": 52, "duration": 7, "velocity": 73}, {"time": 916, "pitch": 59, "duration": 5, "velocity": 82}, {"time": 922, "pitch": 42, "duration": 18, "velocity": 96}, {"time": 922, "pitch": 57, "duration": 10, "velocity": 92}, {"time": 922, "pitch": 61, "duration": 10, "velocity": 100}, {"time": 922, "pitch": 66, "duration": 8, "velocity": 97}, {"time": 928, "pitch": 49, "duration": 12, "velocity": 34}, {"time": 931, "pitch": 54, "duration": 4, "velocity": 93}, {"time": 934, "pitch": 61, "duration": 1, "velocity": 89}, {"time": 934, "pitch": 66, "duration": 12, "velocity": 117}, {"time": 937, "pitch": 54, "duration": 3, "velocity": 92}, {"time": 940, "pitch": 57, "duration": 5, "velocity": 86}, {"time": 943, "pitch": 61, "duration": 2, "velocity": 127}, {"time": 946, "pitch": 47, "duration": 17, "velocity": 73}, {"time": 949, "pitch": 54, "duration": 11, "velocity": 99}, {"time": 952, "pitch": 59, "duration": 5, "velocity": 72}, {"time": 955, "pitch": 62, "duration": 1, "velocity": 78}, {"time": 955, "pitch": 66, "duration": 1, "velocity": 89}, {"time": 958, "pitch": 62, "duration": 6, "velocity": 112}, {"time": 958, "pitch": 66, "duration": 7, "velocity": 107}, {"time": 961, "pitch": 54, "duration": 1, "velocity": 81}, {"time": 964, "pitch": 59, "duration": 4, "velocity": 100}, {"time": 967, "pitch": 62, "duration": 2, "velocity": 83}, {"time": 967, "pitch": 66, "duration": 2, "velocity": 96}, {"time": 970, "pitch": 42, "duration": 22, "velocity": 93}, {"time": 976, "pitch": 49, "duration": 17, "velocity": 33}, {"time": 976, "pitch": 57, "duration": 4, "velocity": 77}, {"time": 976, "pitch": 61, "duration": 4, "velocity": 93}, {"time": 976, "pitch": 66, "duration": 4, "velocity": 86}, {"time": 982, "pitch": 61, "duration": 7, "velocity": 117}, {"time": 982, "pitch": 66, "duration": 7, "velocity": 117}, {"time": 985, "pitch": 54, "duration": 9, "velocity": 93}, {"time": 988, "pitch": 57, "duration": 12, "velocity": 100}, {"time": 991, "pitch": 61, "duration": 9, "velocity": 92}, {"time": 991, "pitch": 66, "duration": 9, "velocity": 92}, {"time": 994, "pitch": 42, "duration": 18, "velocity": 83}, {"time": 1000, "pitch": 49, "duration": 9, "velocity": 35}, {"time": 1003, "pitch": 61, "duration": 2, "velocity": 68}, {"time": 1003, "pitch": 66, "duration": 2, "velocity": 67}, {"time": 1006, "pitch": 54, "duration": 3, "velocity": 97}, {"time": 1006, "pitch": 61, "duration": 7, "velocity": 112}, {"time": 1006, "pitch": 66, "duration": 10, "velocity": 100}, {"time": 1012, "pitch": 57, "duration": 7, "velocity": 102}, {"time": 1015, "pitch": 61, "duration": 4, "velocity": 122}, {"time": 1018, "pitch": 38, "duration": 21, "velocity": 83}, {"time": 1024, "pitch": 45, "duration": 9, "velocity": 55}, {"time": 1024, "pitch": 57, "duration": 3, "velocity": 73}, {"time": 1024, "pitch": 62, "duration": 4, "velocity": 88}, {"time": 1024, "pitch": 66, "duration": 3, "velocity": 78}, {"time": 1030, "pitch": 50, "duration": 7, "velocity": 79}, {"time": 1030, "pitch": 62, "duration": 7, "velocity": 99}, {"time": 1030, "pitch": 66, "duration": 13, "velocity": 102}, {"time": 1033, "pitch": 45, "duration": 1, "velocity": 52}, {"time": 1036, "pitch": 57, "duration": 7, "velocity": 88}, {"time": 1039, "pitch": 62, "duration": 3, "velocity": 90}, {"time": 1042, "pitch": 42, "duration": 17, "velocity": 102}, {"time": 1048, "pitch": 54, "duration": 8, "velocity": 99}, {"time": 1051, "pitch": 57, "duration": 2, "velocity": 65}, {"time": 1054, "pitch": 57, "duration": 1, "velocity": 58}, {"time": 1054, "pitch": 61, "duration": 6, "velocity": 112}, {"time": 1054, "pitch": 66, "duration": 10, "velocity": 122}, {"time": 1057, "pitch": 54, "duration": 1, "velocity": 96}, {"time": 1060, "pitch": 57, "duration": 6, "velocity": 99}, {"time": 1063, "pitch": 61, "duration": 4, "velocity": 99}, {"time": 1066, "pitch": 40, "duration": 22, "velocity": 83}, {"time": 1072, "pitch": 47, "duration": 7, "velocity": 36}, {"time": 1072, "pitch": 59, "duration": 4, "velocity": 73}, {"time": 1072, "pitch": 64, "duration": 4, "velocity": 83}, {"time": 1072, "pitch": 68, "duration": 3, "velocity": 74}, {"time": 1078, "pitch": 52, "duration": 5, "velocity": 79}, {"time": 1078, "pitch": 64, "duration": 4, "velocity": 112}, {"time": 1078, "pitch": 68, "duration": 7, "velocity": 112}, {"time": 1081, "pitch": 47, "duration": 8, "velocity": 60}, {"time": 1084, "pitch": 59, "duration": 12, "velocity": 95}, {"time": 1084, "pitch": 64, "duration": 1, "velocity": 39}, {"time": 1087, "pitch": 64, "duration": 9, "velocity": 96}, {"time": 1087, "pitch": 68, "duration": 9, "velocity": 99}, {"time": 1090, "pitch": 40, "duration": 17, "velocity": 85}, {"time": 1093, "pitch": 47, "duration": 14, "velocity": 89}, {"time": 1096, "pitch": 52, "duration": 6, "velocity": 92}, {"time": 1099, "pitch": 59, "duration": 1, "velocity": 72}, {"time": 1099, "pitch": 64, "duration": 1, "velocity": 79}, {"time": 1099, "pitch": 68, "duration": 1, "velocity": 79}, {"time": 1102, "pitch": 59, "duration": 2, "velocity": 85}, {"time": 1102, "pitch": 64, "duration": 6, "velocity": 99}, {"time": 1102, "pitch": 68, "duration": 8, "velocity": 100}, {"time": 1105, "pitch": 52, "duration": 5, "velocity": 97}, {"time": 1108, "pitch": 59, "duration": 6, "velocity": 99}, {"time": 1111, "pitch": 64, "duration": 3, "velocity": 96}, {"time": 1111, "pitch": 68, "duration": 1, "velocity": 42}, {"time": 1114, "pitch": 45, "duration": 22, "velocity": 89}, {"time": 1120, "pitch": 52, "duration": 6, "velocity": 63}, {"time": 1120, "pitch": 57, "duration": 3, "velocity": 64}, {"time": 1120, "pitch": 61, "duration": 4, "velocity": 82}, {"time": 1120, "pitch": 64, "duration": 4, "velocity": 78}, {"time": 1126, "pitch": 61, "duration": 4, "velocity": 102}, {"time": 1126, "pitch": 64, "duration": 4, "velocity": 83}, {"time": 1129, "pitch": 52, "duration": 9, "velocity": 88}, {"time": 1132, "pitch": 57, "duration": 5, "velocity": 112}, {"time": 1132, "pitch": 61, "duration": 1, "velocity": 40}, {"time": 1132, "pitch": 64, "duration": 1, "velocity": 42}, {"time": 1135, "pitch": 61, "duration": 2, "velocity": 102}, {"time": 1135, "pitch": 64, "duration": 2, "velocity": 88}, {"time": 1138, "pitch": 47, "duration": 17, "velocity": 89}, {"time": 1144, "pitch": 54, "duration": 7, "velocity": 76}, {"time": 1150, "pitch": 59, "duration": 1, "velocity": 81}, {"time": 1150, "pitch": 62, "duration": 7, "velocity": 97}, {"time": 1150, "pitch": 66, "duration": 10, "velocity": 100}, {"time": 1153, "pitch": 54, "duration": 2, "velocity": 88}, {"time": 1156, "pitch": 59, "duration": 4, "velocity": 97}, {"time": 1159, "pitch": 62, "duration": 1, "velocity": 93}, {"time": 1162, "pitch": 42, "duration": 23, "velocity": 93}, {"time": 1162, "pitch": 57, "duration": 10, "velocity": 89}, {"time": 1162, "pitch": 61, "duration": 10, "velocity": 97}, {"time": 1168, "pitch": 49, "duration": 7, "velocity": 33}, {"time": 1174, "pitch": 54, "duration": 15, "velocity": 81}, {"time": 1174, "pitch": 61, "duration": 7, "velocity": 96}, {"time": 1174, "pitch": 66, "duration": 7, "velocity": 102}, {"time": 1177, "pitch": 49, "duration": 9, "velocity": 28}, {"time": 1180, "pitch": 57, "duration": 13, "velocity": 93}, {"time": 1186, "pitch": 42, "duration": 17, "velocity": 72}, {"time": 1186, "pitch": 61, "duration": 7, "velocity": 95}, {"time": 1186, "pitch": 66, "duration": 7, "velocity": 99}, {"time": 1192, "pitch": 49, "duration": 10, "velocity": 37}, {"time": 1198, "pitch": 61, "duration": 7, "velocity": 112}, {"time": 1198, "pitch": 66, "duration": 9, "velocity": 102}, {"time": 1201, "pitch": 54, "duration": 1, "velocity": 102}, {"time": 1204, "pitch": 57, "duration": 4, "velocity": 100}, {"time": 1207, "pitch": 61, "duration": 1, "velocity": 112}, {"time": 1210, "pitch": 38, "duration": 16, "velocity": 71}, {"time": 1210, "pitch": 57, "duration": 9, "velocity": 89}, {"time": 1210, "pitch": 62, "duration": 9, "velocity": 97}, {"time": 1210, "pitch": 66, "duration": 9, "velocity": 100}, {"time": 1216, "pitch": 45, "duration": 10, "velocity": 64}, {"time": 1222, "pitch": 62, "duration": 7, "velocity": 99}, {"time": 1222, "pitch": 66, "duration": 6, "velocity": 107}, {"time": 1225, "pitch": 50, "duration": 3, "velocity": 60}, {"time": 1228, "pitch": 57, "duration": 4, "velocity": 99}, {"time": 1234, "pitch": 42, "duration": 19, "velocity": 95}, {"time": 1234, "pitch": 57, "duration": 9, "velocity": 96}, {"time": 1234, "pitch": 61, "duration": 9, "velocity": 102}, {"time": 1234, "pitch": 66, "duration": 9, "velocity": 92}, {"time": 1240, "pitch": 49, "duration": 6, "velocity": 32}, {"time": 1246, "pitch": 54, "duration": 6, "velocity": 88}, {"time": 1246, "pitch": 61, "duration": 10, "velocity": 112}, {"time": 1246, "pitch": 66, "duration": 7, "velocity": 95}, {"time": 1252, "pitch": 49, "duration": 1, "velocity": 72}, {"time": 1252, "pitch": 57, "duration": 4, "velocity": 99}, {"time": 1258, "pitch": 40, "duration": 22, "velocity": 76}, {"time": 1258, "pitch": 59, "duration": 9, "velocity": 90}, {"time": 1258, "pitch": 64, "duration": 9, "velocity": 95}, {"time": 1258, "pitch": 68, "duration": 9, "velocity": 92}, {"time": 1264, "pitch": 47, "duration": 18, "velocity": 56}, {"time": 1267, "pitch": 52, "duration": 3, "velocity": 83}, {"time": 1270, "pitch": 64, "duration": 7, "velocity": 97}, {"time": 1270, "pitch": 68, "duration": 7, "velocity": 112}, {"time": 1273, "pitch": 52, "duration": 3, "velocity": 83}, {"time": 1276, "pitch": 59, "duration": 4, "velocity": 90}, {"time": 1279, "pitch": 64, "duration": 1, "velocity": 53}, {"time": 1282, "pitch": 40, "duration": 24, "velocity": 74}, {"time": 1282, "pitch": 59, "duration": 9, "velocity": 89}, {"time": 1282, "pitch": 64, "duration": 9, "velocity": 88}, {"time": 1282, "pitch": 68, "duration": 9, "velocity": 95}, {"time": 1288, "pitch": 47, "duration": 17, "velocity": 56}, {"time": 1291, "pitch": 52, "duration": 4, "velocity": 67}, {"time": 1294, "pitch": 64, "duration": 12, "velocity": 97}, {"time": 1294, "pitch": 68, "duration": 12, "velocity": 99}, {"time": 1297, "pitch": 52, "duration": 7, "velocity": 66}, {"time": 1300, "pitch": 59, "duration": 5, "velocity": 93}, {"time": 1309, "pitch": 52, "duration": 10, "velocity": 39}, {"time": 1312, "pitch": 57, "duration": 7, "velocity": 68}, {"time": 1315, "pitch": 59, "duration": 3, "velocity": 72}, {"time": 1318, "pitch": 64, "duration": 35, "velocity": 78}, {"time": 1321, "pitch": 52, "duration": 9, "velocity": 39}, {"time": 1324, "pitch": 61, "duration": 14, "velocity": 52}, {"time": 1330, "pitch": 45, "duration": 22, "velocity": 56}, {"time": 1330, "pitch": 57, "duration": 12, "velocity": 63}, {"time": 1336, "pitch": 52, "duration": 12, "velocity": 54}, {"time": 1342, "pitch": 59, "duration": 11, "velocity": 76}, {"time": 1348, "pitch": 57, "duration": 5, "velocity": 53}, {"time": 1354, "pitch": 45, "duration": 17, "velocity": 93}, {"time": 1360, "pitch": 52, "duration": 10, "velocity": 53}, {"time": 1366, "pitch": 64, "duration": 12, "velocity": 92}, {"time": 1372, "pitch": 61, "duration": 6, "velocity": 63}, {"time": 1378, "pitch": 38, "duration": 14, "velocity": 77}, {"time": 1384, "pitch": 45, "duration": 10, "velocity": 59}, {"time": 1390, "pitch": 66, "duration": 12, "velocity": 96}, {"time": 1396, "pitch": 57, "duration": 6, "velocity": 86}, {"time": 1402, "pitch": 42, "duration": 22, "velocity": 77}, {"time": 1408, "pitch": 49, "duration": 17, "velocity": 41}, {"time": 1414, "pitch": 54, "duration": 25, "velocity": 50}, {"time": 1414, "pitch": 61, "duration": 19, "velocity": 69}, {"time": 1414, "pitch": 66, "duration": 35, "velocity": 72}, {"time": 1420, "pitch": 57, "duration": 19, "velocity": 71}, {"time": 1426, "pitch": 42, "duration": 15, "velocity": 76}, {"time": 1432, "pitch": 49, "duration": 7, "velocity": 62}, {"time": 1438, "pitch": 61, "duration": 11, "velocity": 90}, {"time": 1444, "pitch": 57, "duration": 7, "velocity": 65}, {"time": 1450, "pitch": 38, "duration": 22, "velocity": 81}, {"time": 1456, "pitch": 45, "duration": 18, "velocity": 51}, {"time": 1462, "pitch": 50, "duration": 24, "velocity": 69}, {"time": 1462, "pitch": 62, "duration": 19, "velocity": 67}, {"time": 1462, "pitch": 66, "duration": 20, "velocity": 63}, {"time": 1468, "pitch": 57, "duration": 18, "velocity": 63}, {"time": 1474, "pitch": 38, "duration": 16, "velocity": 63}, {"time": 1480, "pitch": 45, "duration": 12, "velocity": 40}, {"time": 1486, "pitch": 62, "duration": 12, "velocity": 70}, {"time": 1492, "pitch": 57, "duration": 7, "velocity": 71}, {"time": 1498, "pitch": 40, "duration": 22, "velocity": 89}, {"time": 1504, "pitch": 47, "duration": 7, "velocity": 59}, {"time": 1510, "pitch": 59, "duration": 12, "velocity": 92}, {"time": 1513, "pitch": 47, "duration": 8, "velocity": 53}, {"time": 1516, "pitch": 56, "duration": 6, "velocity": 67}, {"time": 1519, "pitch": 52, "duration": 3, "velocity": 73}, {"time": 1522, "pitch": 40, "duration": 16, "velocity": 77}, {"time": 1534, "pitch": 64, "duration": 12, "velocity": 48}, {"time": 1534, "pitch": 68, "duration": 12, "velocity": 53}, {"time": 1534, "pitch": 71, "duration": 12, "velocity": 50}, {"time": 1546, "pitch": 45, "duration": 22, "velocity": 59}, {"time": 1552, "pitch": 52, "duration": 18, "velocity": 59}, {"time": 1558, "pitch": 61, "duration": 18, "velocity": 69}, {"time": 1558, "pitch": 64, "duration": 36, "velocity": 54}, {"time": 1564, "pitch": 59, "duration": 9, "velocity": 46}, {"time": 1570, "pitch": 45, "duration": 15, "velocity": 58}, {"time": 1576, "pitch": 52, "duration": 8, "velocity": 49}, {"time": 1582, "pitch": 61, "duration": 12, "velocity": 86}, {"time": 1594, "pitch": 45, "duration": 22, "velocity": 71}, {"time": 1600, "pitch": 52, "duration": 18, "velocity": 45}, {"time": 1606, "pitch": 64, "duration": 22, "velocity": 75}, {"time": 1612, "pitch": 61, "duration": 15, "velocity": 59}, {"time": 1618, "pitch": 45, "duration": 22, "velocity": 72}, {"time": 1624, "pitch": 52, "duration": 17, "velocity": 59}, {"time": 1630, "pitch": 64, "duration": 23, "velocity": 83}, {"time": 1636, "pitch": 61, "duration": 17, "velocity": 56}, {"time": 1642, "pitch": 45, "duration": 16, "velocity": 67}, {"time": 1648, "pitch": 52, "duration": 12, "velocity": 46}, {"time": 1654, "pitch": 57, "duration": 18, "velocity": 63}, {"time": 1654, "pitch": 61, "duration": 18, "velocity": 61}, {"time": 1654, "pitch": 64, "duration": 18, "velocity": 63}, {"time": 1660, "pitch": 45, "duration": 4, "velocity": 52}, {"time": 1666, "pitch": 45, "duration": 14, "velocity": 82}, {"time": 1672, "pitch": 52, "duration": 8, "velocity": 63}, {"time": 1678, "pitch": 64, "duration": 12, "velocity": 90}, {"time": 1684, "pitch": 57, "duration": 6, "velocity": 72}, {"time": 1690, "pitch": 42, "duration": 18, "velocity": 81}, {"time": 1696, "pitch": 49, "duration": 10, "velocity": 33}, {"time": 1699, "pitch": 54, "duration": 4, "velocity": 55}, {"time": 1702, "pitch": 66, "duration": 11, "velocity": 90}, {"time": 1708, "pitch": 57, "duration": 5, "velocity": 79}, {"time": 1714, "pitch": 38, "duration": 18, "velocity": 71}, {"time": 1720, "pitch": 45, "duration": 14, "velocity": 58}, {"time": 1726, "pitch": 62, "duration": 16, "velocity": 77}, {"time": 1732, "pitch": 57, "duration": 6, "velocity": 68}, {"time": 1738, "pitch": 40, "duration": 22, "velocity": 59}, {"time": 1744, "pitch": 47, "duration": 18, "velocity": 44}, {"time": 1747, "pitch": 59, "duration": 2, "velocity": 17}, {"time": 1750, "pitch": 52, "duration": 11, "velocity": 40}, {"time": 1750, "pitch": 64, "duration": 12, "velocity": 69}, {"time": 1756, "pitch": 59, "duration": 7, "velocity": 67}, {"time": 1762, "pitch": 40, "duration": 17, "velocity": 79}, {"time": 1768, "pitch": 47, "duration": 6, "velocity": 48}, {"time": 1774, "pitch": 59, "duration": 11, "velocity": 90}, {"time": 1777, "pitch": 47, "duration": 3, "velocity": 42}, {"time": 1780, "pitch": 56, "duration": 6, "velocity": 51}, {"time": 1783, "pitch": 52, "duration": 3, "velocity": 53}, {"time": 1786, "pitch": 45, "duration": 22, "velocity": 73}, {"time": 1792, "pitch": 52, "duration": 18, "velocity": 53}, {"time": 1798, "pitch": 61, "duration": 17, "velocity": 71}, {"time": 1798, "pitch": 64, "duration": 22, "velocity": 65}, {"time": 1804, "pitch": 57, "duration": 24, "velocity": 66}, {"time": 1810, "pitch": 45, "duration": 21, "velocity": 70}, {"time": 1816, "pitch": 52, "duration": 15, "velocity": 44}, {"time": 1822, "pitch": 64, "duration": 12, "velocity": 75}, {"time": 1828, "pitch": 61, "duration": 6, "velocity": 59}, {"time": 1834, "pitch": 42, "duration": 16, "velocity": 86}, {"time": 1840, "pitch": 54, "duration": 7, "velocity": 69}, {"time": 1846, "pitch": 66, "duration": 10, "velocity": 90}, {"time": 1852, "pitch": 57, "duration": 5, "velocity": 75}, {"time": 1858, "pitch": 37, "duration": 15, "velocity": 79}, {"time": 1864, "pitch": 49, "duration": 10, "velocity": 59}, {"time": 1870, "pitch": 64, "duration": 12, "velocity": 72}, {"time": 1876, "pitch": 56, "duration": 5, "velocity": 78}, {"time": 1882, "pitch": 45, "duration": 22, "velocity": 66}, {"time": 1888, "pitch": 52, "duration": 18, "velocity": 58}, {"time": 1894, "pitch": 64, "duration": 22, "velocity": 77}, {"time": 1900, "pitch": 61, "duration": 16, "velocity": 61}, {"time": 1906, "pitch": 45, "duration": 22, "velocity": 63}, {"time": 1912, "pitch": 52, "duration": 17, "velocity": 43}, {"time": 1918, "pitch": 61, "duration": 13, "velocity": 60}, {"time": 1918, "pitch": 64, "duration": 13, "velocity": 62}, {"time": 1924, "pitch": 57, "duration": 7, "velocity": 63}, {"time": 1930, "pitch": 47, "duration": 18, "velocity": 66}, {"time": 1936, "pitch": 54, "duration": 9, "velocity": 58}, {"time": 1942, "pitch": 66, "duration": 12, "velocity": 92}, {"time": 1948, "pitch": 62, "duration": 6, "velocity": 68}, {"time": 1954, "pitch": 40, "duration": 18, "velocity": 74}, {"time": 1957, "pitch": 47, "duration": 9, "velocity": 53}, {"time": 1960, "pitch": 52, "duration": 4, "velocity": 69}, {"time": 1963, "pitch": 56, "duration": 15, "velocity": 60}, {"time": 1966, "pitch": 59, "duration": 12, "velocity": 70}, {"time": 1969, "pitch": 47, "duration": 2, "velocity": 47}, {"time": 1972, "pitch": 52, "duration": 5, "velocity": 70}, {"time": 1978, "pitch": 45, "duration": 18, "velocity": 69}, {"time": 1984, "pitch": 52, "duration": 11, "velocity": 55}, {"time": 1990, "pitch": 64, "duration": 12, "velocity": 90}, {"time": 1996, "pitch": 61, "duration": 6, "velocity": 90}, {"time": 2002, "pitch": 38, "duration": 15, "velocity": 76}, {"time": 2008, "pitch": 45, "duration": 9, "velocity": 63}, {"time": 2014, "pitch": 66, "duration": 12, "velocity": 89}, {"time": 2020, "pitch": 57, "duration": 6, "velocity": 82}, {"time": 2026, "pitch": 42, "duration": 16, "velocity": 69}, {"time": 2032, "pitch": 49, "duration": 9, "velocity": 44}, {"time": 2038, "pitch": 54, "duration": 3, "velocity": 50}, {"time": 2038, "pitch": 61, "duration": 11, "velocity": 97}, {"time": 2044, "pitch": 57, "duration": 6, "velocity": 68}, {"time": 2050, "pitch": 37, "duration": 18, "velocity": 78}, {"time": 2056, "pitch": 44, "duration": 7, "velocity": 33}, {"time": 2062, "pitch": 49, "duration": 6, "velocity": 58}, {"time": 2062, "pitch": 56, "duration": 11, "velocity": 78}, {"time": 2068, "pitch": 59, "duration": 6, "velocity": 63}, {"time": 2074, "pitch": 42, "duration": 15, "velocity": 64}, {"time": 2080, "pitch": 54, "duration": 7, "velocity": 67}, {"time": 2086, "pitch": 61, "duration": 14, "velocity": 93}, {"time": 2092, "pitch": 57, "duration": 5, "velocity": 63}, {"time": 2098, "pitch": 40, "duration": 22, "velocity": 71}, {"time": 2104, "pitch": 47, "duration": 18, "velocity": 55}, {"time": 2110, "pitch": 52, "duration": 18, "velocity": 55}, {"time": 2110, "pitch": 64, "duration": 20, "velocity": 78}, {"time": 2116, "pitch": 59, "duration": 18, "velocity": 56}, {"time": 2122, "pitch": 40, "duration": 16, "velocity": 66}, {"time": 2128, "pitch": 47, "duration": 11, "velocity": 39}, {"time": 2134, "pitch": 52, "duration": 6, "velocity": 62}, {"time": 2134, "pitch": 64, "duration": 11, "velocity": 72}, {"time": 2140, "pitch": 59, "duration": 6, "velocity": 78}, {"time": 2146, "pitch": 45, "duration": 22, "velocity": 77}, {"time": 2152, "pitch": 52, "duration": 18, "velocity": 63}, {"time": 2158, "pitch": 61, "duration": 18, "velocity": 74}, {"time": 2158, "pitch": 64, "duration": 19, "velocity": 66}, {"time": 2164, "pitch": 59, "duration": 9, "velocity": 64}, {"time": 2170, "pitch": 45, "duration": 22, "velocity": 69}, {"time": 2176, "pitch": 52, "duration": 18, "velocity": 47}, {"time": 2182, "pitch": 61, "duration": 12, "velocity": 90}, {"time": 2182, "pitch": 64, "duration": 12, "velocity": 66}, {"time": 2188, "pitch": 59, "duration": 6, "velocity": 61}, {"time": 2194, "pitch": 45, "duration": 21, "velocity": 68}, {"time": 2200, "pitch": 52, "duration": 18, "velocity": 62}, {"time": 2206, "pitch": 57, "duration": 1, "velocity": 40}, {"time": 2206, "pitch": 64, "duration": 22, "velocity": 79}, {"time": 2212, "pitch": 61, "duration": 17, "velocity": 69}, {"time": 2218, "pitch": 45, "duration": 22, "velocity": 71}, {"time": 2224, "pitch": 52, "duration": 7, "velocity": 49}, {"time": 2230, "pitch": 61, "duration": 11, "velocity": 112}, {"time": 2230, "pitch": 64, "duration": 11, "velocity": 83}, {"time": 2233, "pitch": 52, "duration": 7, "velocity": 73}, {"time": 2236, "pitch": 59, "duration": 5, "velocity": 82}, {"time": 2242, "pitch": 42, "duration": 16, "velocity": 99}, {"time": 2242, "pitch": 57, "duration": 14, "velocity": 82}, {"time": 2242, "pitch": 61, "duration": 14, "velocity": 95}, {"time": 2242, "pitch": 66, "duration": 12, "velocity": 85}, {"time": 2248, "pitch": 49, "duration": 11, "velocity": 62}, {"time": 2254, "pitch": 54, "duration": 6, "velocity": 102}, {"time": 2260, "pitch": 57, "duration": 3, "velocity": 82}, {"time": 2260, "pitch": 61, "duration": 4, "velocity": 102}, {"time": 2260, "pitch": 66, "duration": 4, "velocity": 92}, {"time": 2266, "pitch": 47, "duration": 16, "velocity": 86}, {"time": 2266, "pitch": 59, "duration": 8, "velocity": 72}, {"time": 2266, "pitch": 62, "duration": 9, "velocity": 88}, {"time": 2266, "pitch": 66, "duration": 7, "velocity": 96}, {"time": 2272, "pitch": 54, "duration": 7, "velocity": 85}, {"time": 2278, "pitch": 62, "duration": 4, "velocity": 96}, {"time": 2278, "pitch": 66, "duration": 11, "velocity": 112}, {"time": 2281, "pitch": 54, "duration": 1, "velocity": 86}, {"time": 2284, "pitch": 59, "duration": 6, "velocity": 100}, {"time": 2287, "pitch": 62, "duration": 2, "velocity": 74}, {"time": 2290, "pitch": 42, "duration": 22, "velocity": 93}, {"time": 2296, "pitch": 49, "duration": 17, "velocity": 63}, {"time": 2296, "pitch": 57, "duration": 1, "velocity": 53}, {"time": 2296, "pitch": 61, "duration": 1, "velocity": 36}, {"time": 2302, "pitch": 54, "duration": 12, "velocity": 83}, {"time": 2308, "pitch": 57, "duration": 4, "velocity": 82}, {"time": 2308, "pitch": 61, "duration": 4, "velocity": 97}, {"time": 2308, "pitch": 66, "duration": 4, "velocity": 90}, {"time": 2314, "pitch": 42, "duration": 19, "velocity": 75}, {"time": 2314, "pitch": 57, "duration": 6, "velocity": 82}, {"time": 2314, "pitch": 61, "duration": 7, "velocity": 107}, {"time": 2314, "pitch": 66, "duration": 7, "velocity": 89}, {"time": 2317, "pitch": 49, "duration": 14, "velocity": 35}, {"time": 2320, "pitch": 54, "duration": 6, "velocity": 86}, {"time": 2323, "pitch": 57, "duration": 4, "velocity": 86}, {"time": 2326, "pitch": 61, "duration": 6, "velocity": 96}, {"time": 2326, "pitch": 66, "duration": 7, "velocity": 93}, {"time": 2329, "pitch": 54, "duration": 2, "velocity": 99}, {"time": 2332, "pitch": 57, "duration": 5, "velocity": 107}, {"time": 2335, "pitch": 61, "duration": 2, "velocity": 90}, {"time": 2338, "pitch": 38, "duration": 15, "velocity": 88}, {"time": 2338, "pitch": 57, "duration": 10, "velocity": 72}, {"time": 2338, "pitch": 62, "duration": 10, "velocity": 85}, {"time": 2338, "pitch": 66, "duration": 9, "velocity": 85}, {"time": 2344, "pitch": 45, "duration": 11, "velocity": 65}, {"time": 2350, "pitch": 50, "duration": 4, "velocity": 66}, {"time": 2350, "pitch": 62, "duration": 10, "velocity": 100}, {"time": 2350, "pitch": 66, "duration": 10, "velocity": 117}, {"time": 2356, "pitch": 38, "duration": 3, "velocity": 93}, {"time": 2362, "pitch": 42, "duration": 18, "velocity": 127}, {"time": 2362, "pitch": 57, "duration": 6, "velocity": 70}, {"time": 2362, "pitch": 61, "duration": 7, "velocity": 79}, {"time": 2368, "pitch": 54, "duration": 6, "velocity": 77}, {"time": 2371, "pitch": 57, "duration": 2, "velocity": 26}, {"time": 2374, "pitch": 61, "duration": 6, "velocity": 102}, {"time": 2374, "pitch": 66, "duration": 9, "velocity": 99}, {"time": 2377, "pitch": 54, "duration": 2, "velocity": 102}, {"time": 2380, "pitch": 57, "duration": 4, "velocity": 100}, {"time": 2383, "pitch": 61, "duration": 2, "velocity": 102}, {"time": 2386, "pitch": 40, "duration": 16, "velocity": 90}, {"time": 2386, "pitch": 59, "duration": 10, "velocity": 85}, {"time": 2386, "pitch": 64, "duration": 10, "velocity": 90}, {"time": 2386, "pitch": 68, "duration": 9, "velocity": 93}, {"time": 2392, "pitch": 47, "duration": 11, "velocity": 49}, {"time": 2398, "pitch": 52, "duration": 3, "velocity": 45}, {"time": 2398, "pitch": 59, "duration": 4, "velocity": 67}, {"time": 2398, "pitch": 64, "duration": 4, "velocity": 97}, {"time": 2398, "pitch": 68, "duration": 4, "velocity": 112}, {"time": 2404, "pitch": 40, "duration": 22, "velocity": 95}, {"time": 2404, "pitch": 59, "duration": 3, "velocity": 85}, {"time": 2404, "pitch": 64, "duration": 3, "velocity": 89}, {"time": 2404, "pitch": 68, "duration": 3, "velocity": 99}, {"time": 2410, "pitch": 52, "duration": 12, "velocity": 93}, {"time": 2410, "pitch": 59, "duration": 9, "velocity": 95}, {"time": 2410, "pitch": 64, "duration": 9, "velocity": 97}, {"time": 2410, "pitch": 68, "duration": 9, "velocity": 107}, {"time": 2416, "pitch": 47, "duration": 11, "velocity": 69}, {"time": 2422, "pitch": 64, "duration": 5, "velocity": 100}, {"time": 2422, "pitch": 68, "duration": 5, "velocity": 107}, {"time": 2425, "pitch": 52, "duration": 5, "velocity": 92}, {"time": 2428, "pitch": 59, "duration": 5, "velocity": 96}, {"time": 2434, "pitch": 45, "duration": 17, "velocity": 90}, {"time": 2434, "pitch": 57, "duration": 1, "velocity": 73}, {"time": 2434, "pitch": 61, "duration": 10, "velocity": 112}, {"time": 2434, "pitch": 64, "duration": 10, "velocity": 89}, {"time": 2440, "pitch": 52, "duration": 8, "velocity": 70}, {"time": 2443, "pitch": 57, "duration": 1, "velocity": 41}, {"time": 2446, "pitch": 61, "duration": 5, "velocity": 122}, {"time": 2446, "pitch": 64, "duration": 5, "velocity": 95}, {"time": 2452, "pitch": 45, "duration": 1, "velocity": 26}, {"time": 2452, "pitch": 52, "duration": 6, "velocity": 93}, {"time": 2452, "pitch": 57, "duration": 3, "velocity": 96}, {"time": 2458, "pitch": 47, "duration": 16, "velocity": 88}, {"time": 2458, "pitch": 59, "duration": 9, "velocity": 89}, {"time": 2458, "pitch": 62, "duration": 9, "velocity": 96}, {"time": 2458, "pitch": 66, "duration": 9, "velocity": 93}, {"time": 2464, "pitch": 54, "duration": 6, "velocity": 64}, {"time": 2470, "pitch": 62, "duration": 7, "velocity": 97}, {"time": 2470, "pitch": 66, "duration": 6, "velocity": 107}, {"time": 2473, "pitch": 54, "duration": 2, "velocity": 92}, {"time": 2476, "pitch": 59, "duration": 3, "velocity": 100}, {"time": 2479, "pitch": 61, "duration": 1, "velocity": 34}, {"time": 2482, "pitch": 42, "duration": 22, "velocity": 95}, {"time": 2482, "pitch": 57, "duration": 11, "velocity": 96}, {"time": 2482, "pitch": 61, "duration": 7, "velocity": 96}, {"time": 2488, "pitch": 49, "duration": 17, "velocity": 36}, {"time": 2494, "pitch": 54, "duration": 13, "velocity": 79}, {"time": 2494, "pitch": 61, "duration": 3, "velocity": 107}, {"time": 2494, "pitch": 66, "duration": 3, "velocity": 102}, {"time": 2497, "pitch": 57, "duration": 8, "velocity": 55}, {"time": 2500, "pitch": 61, "duration": 4, "velocity": 89}, {"time": 2500, "pitch": 66, "duration": 4, "velocity": 99}, {"time": 2506, "pitch": 42, "duration": 17, "velocity": 86}, {"time": 2506, "pitch": 57, "duration": 9, "velocity": 90}, {"time": 2506, "pitch": 61, "duration": 8, "velocity": 112}, {"time": 2506, "pitch": 66, "duration": 9, "velocity": 102}, {"time": 2512, "pitch": 49, "duration": 9, "velocity": 35}, {"time": 2518, "pitch": 61, "duration": 6, "velocity": 122}, {"time": 2518, "pitch": 66, "duration": 9, "velocity": 102}, {"time": 2521, "pitch": 54, "duration": 1, "velocity": 93}, {"time": 2524, "pitch": 57, "duration": 4, "velocity": 107}, {"time": 2527, "pitch": 61, "duration": 1, "velocity": 95}, {"time": 2530, "pitch": 38, "duration": 16, "velocity": 77}, {"time": 2530, "pitch": 57, "duration": 9, "velocity": 89}, {"time": 2530, "pitch": 62, "duration": 9, "velocity": 99}, {"time": 2530, "pitch": 66, "duration": 9, "velocity": 100}, {"time": 2536, "pitch": 45, "duration": 10, "velocity": 49}, {"time": 2542, "pitch": 62, "duration": 5, "velocity": 99}, {"time": 2542, "pitch": 66, "duration": 7, "velocity": 102}, {"time": 2545, "pitch": 50, "duration": 2, "velocity": 70}, {"time": 2548, "pitch": 57, "duration": 4, "velocity": 97}, {"time": 2554, "pitch": 42, "duration": 19, "velocity": 86}, {"time": 2554, "pitch": 57, "duration": 9, "velocity": 93}, {"time": 2554, "pitch": 61, "duration": 9, "velocity": 100}, {"time": 2554, "pitch": 66, "duration": 9, "velocity": 92}, {"time": 2560, "pitch": 49, "duration": 11, "velocity": 38}, {"time": 2566, "pitch": 57, "duration": 2, "velocity": 56}, {"time": 2566, "pitch": 61, "duration": 7, "velocity": 102}, {"time": 2566, "pitch": 66, "duration": 7, "velocity": 96}, {"time": 2569, "pitch": 54, "duration": 2, "velocity": 93}, {"time": 2572, "pitch": 57, "duration": 4, "velocity": 95}, {"time": 2575, "pitch": 61, "duration": 1, "velocity": 26}, {"time": 2578, "pitch": 40, "duration": 21, "velocity": 89}, {"time": 2578, "pitch": 59, "duration": 10, "velocity": 95}, {"time": 2578, "pitch": 64, "duration": 9, "velocity": 90}, {"time": 2578, "pitch": 68, "duration": 9, "velocity": 92}, {"time": 2584, "pitch": 47, "duration": 17, "velocity": 58}, {"time": 2587, "pitch": 52, "duration": 3, "velocity": 92}, {"time": 2590, "pitch": 64, "duration": 6, "velocity": 95}, {"time": 2590, "pitch": 68, "duration": 7, "velocity": 100}, {"time": 2593, "pitch": 52, "duration": 7, "velocity": 83}, {"time": 2596, "pitch": 59, "duration": 4, "velocity": 90}, {"time": 2599, "pitch": 64, "duration": 1, "velocity": 42}, {"time": 2599, "pitch": 68, "duration": 1, "velocity": 30}, {"time": 2602, "pitch": 40, "duration": 25, "velocity": 81}, {"time": 2602, "pitch": 52, "duration": 13, "velocity": 78}, {"time": 2602, "pitch": 59, "duration": 10, "velocity": 86}, {"time": 2602, "pitch": 64, "duration": 10, "velocity": 92}, {"time": 2602, "pitch": 68, "duration": 9, "velocity": 93}, {"time": 2614, "pitch": 64, "duration": 12, "velocity": 95}, {"time": 2614, "pitch": 68, "duration": 12, "velocity": 97}, {"time": 2617, "pitch": 52, "duration": 9, "velocity": 78}, {"time": 2620, "pitch": 59, "duration": 6, "velocity": 78}, {"time": 2626, "pitch": 40, "duration": 1, "velocity": 73}, {"time": 2626, "pitch": 52, "duration": 1, "velocity": 89}, {"time": 2626, "pitch": 56, "duration": 22, "velocity": 90}, {"time": 2626, "pitch": 59, "duration": 23, "velocity": 88}, {"time": 2650, "pitch": 33, "duration": 18, "velocity": 90}, {"time": 2656, "pitch": 40, "duration": 10, "velocity": 36}, {"time": 2662, "pitch": 57, "duration": 11, "velocity": 100}, {"time": 2662, "pitch": 61, "duration": 11, "velocity": 112}, {"time": 2668, "pitch": 52, "duration": 5, "velocity": 89}, {"time": 2674, "pitch": 38, "duration": 19, "velocity": 88}, {"time": 2680, "pitch": 45, "duration": 11, "velocity": 57}, {"time": 2686, "pitch": 50, "duration": 5, "velocity": 79}, {"time": 2686, "pitch": 62, "duration": 12, "velocity": 102}, {"time": 2686, "pitch": 66, "duration": 12, "velocity": 112}, {"time": 2692, "pitch": 57, "duration": 6, "velocity": 93}, {"time": 2698, "pitch": 33, "duration": 21, "velocity": 89}, {"time": 2704, "pitch": 40, "duration": 8, "velocity": 41}, {"time": 2710, "pitch": 45, "duration": 8, "velocity": 76}, {"time": 2710, "pitch": 57, "duration": 31, "velocity": 72}, {"time": 2710, "pitch": 61, "duration": 31, "velocity": 68}, {"time": 2716, "pitch": 52, "duration": 21, "velocity": 62}, {"time": 2722, "pitch": 33, "duration": 50, "velocity": 64}, {"time": 2731, "pitch": 40, "duration": 15, "velocity": 36}, {"time": 2734, "pitch": 45, "duration": 38, "velocity": 92}, {"time": 2740, "pitch": 52, "duration": 33, "velocity": 58}, {"time": 2746, "pitch": 40, "duration": 26, "velocity": 56}, {"time": 2746, "pitch": 57, "duration": 27, "velocity": 73}, {"time": 2746, "pitch": 61, "duration": 27, "velocity": 81}], "annotations": [{"time": 34, "annotation": {"number": 64, "value": 127}, "group": "control_change"}, {"time": 55, "annotation": {"number": 64, "value": 0}, "group": "control_change"}, {"time": 58, "annotation": {"number": 64, "value": 127}, "group": "control_change"}, {"time": 77, "annotation": {"number": 64, "value": 0}, "group": "control_change"}, {"time": 77, "annotation": {"number": 64, "value": 127}, "group": "control_change"}, {"time": 78, "annotation": {"number": 64, "value": 0}, "group": "control_change"}, {"time": 81, "annotation": {"number": 64, "value": 127}, "group": "control_change"}, {"time": 102, "annotation": {"number": 64, "value": 0}, "group": "control_change"}, {"time": 106, "annotation": {"number": 64, "value": 127}, "group": "control_change"}, {"time": 125, "annotation": {"number": 64, "value": 0}, "group": "control_change"}, {"time": 130, "annotation": {"number": 64, "value": 127}, "group": "control_change"}, {"time": 150, "annotation": {"number": 64, "value": 0}, "group": "control_change"}, {"time": 154, "annotation": {"number": 64, "value": 127}, "group": "control_change"}, {"time": 173, "annotation": {"number": 64, "value": 0}, "group": "control_change"}, {"time": 178, "annotation": {"number": 64, "value": 127}, "group": "control_change"}, {"time": 198, "annotation": {"number": 64, "value": 0}, "group": "control_change"}, {"time": 202, "annotation": {"number": 64, "value": 127}, "group": "control_change"}, {"time": 221, "annotation": {"number": 64, "value": 0}, "group": "control_change"}, {"time": 226, "annotation": {"number": 64, "value": 127}, "group": "control_change"}, {"time": 246, "annotation": {"number": 64, "value": 0}, "group": "control_change"}, {"time": 249, "annotation": {"number": 64, "value": 127}, "group": "control_change"}, {"time": 265, "annotation": {"number": 64, "value": 0}, "group": "control_change"}, {"time": 273, "annotation": {"number": 64, "value": 127}, "group": "control_change"}, {"time": 292, "annotation": {"number": 64, "value": 0}, "group": "control_change"}, {"time": 297, "annotation": {"number": 64, "value": 127}, "group": "control_change"}, {"time": 305, "annotation": {"number": 64, "value": 0}, "group": "control_change"}, {"time": 321, "annotation": {"number": 64, "value": 127}, "group": "control_change"}, {"time": 334, "annotation": {"number": 64, "value": 0}, "group": "control_change"}, {"time": 346, "annotation": {"number": 64, "value": 127}, "group": "control_change"}, {"time": 351, "annotation": {"number": 64, "value": 0}, "group": "control_change"}, {"time": 369, "annotation": {"number": 64, "value": 127}, "group": "control_change"}, {"time": 382, "annotation": {"number": 64, "value": 0}, "group": "control_change"}, {"time": 386, "annotation": {"number": 64, "value": 127}, "group": "control_change"}, {"time": 389, "annotation": {"number": 64, "value": 0}, "group": "control_change"}, {"time": 393, "annotation": {"number": 64, "value": 127}, "group": "control_change"}, {"time": 412, "annotation": {"number": 64, "value": 0}, "group": "control_change"}, {"time": 417, "annotation": {"number": 64, "value": 127}, "group": "control_change"}, {"time": 435, "annotation": {"number": 64, "value": 0}, "group": "control_change"}, {"time": 441, "annotation": {"number": 64, "value": 127}, "group": "control_change"}, {"time": 461, "annotation": {"number": 64, "value": 0}, "group": "control_change"}, {"time": 465, "annotation": {"number": 64, "value": 127}, "group": "control_change"}, {"time": 482, "annotation": {"number": 64, "value": 0}, "group": "control_change"}, {"time": 489, "annotation": {"number": 64, "value": 127}, "group": "control_change"}, {"time": 497, "annotation": {"number": 64, "value": 0}, "group": "control_change"}, {"time": 497, "annotation": {"number": 64, "value": 127}, "group": "control_change"}, {"time": 513, "annotation": {"number": 64, "value": 127}, "group": "control_change"}, {"time": 522, "annotation": {"number": 64, "value": 0}, "group": "control_change"}, {"time": 529, "annotation": {"number": 64, "value": 127}, "group": "control_change"}, {"time": 534, "annotation": {"number": 64, "value": 0}, "group": "control_change"}, {"time": 537, "annotation": {"number": 64, "value": 127}, "group": "control_change"}, {"time": 556, "annotation": {"number": 64, "value": 0}, "group": "control_change"}, {"time": 561, "annotation": {"number": 64, "value": 127}, "group": "control_change"}, {"time": 579, "annotation": {"number": 64, "value": 0}, "group": "control_change"}, {"time": 585, "annotation": {"number": 64, "value": 127}, "group": "control_change"}, {"time": 587, "annotation": {"number": 64, "value": 0}, "group": "control_change"}, {"time": 609, "annotation": {"number": 64, "value": 127}, "group": "control_change"}, {"time": 629, "annotation": {"number": 64, "value": 0}, "group": "control_change"}, {"time": 633, "annotation": {"number": 64, "value": 127}, "group": "control_change"}, {"time": 640, "annotation": {"number": 64, "value": 0}, "group": "control_change"}, {"time": 641, "annotation": {"number": 64, "value": 127}, "group": "control_change"}, {"time": 651, "annotation": {"number": 64, "value": 0}, "group": "control_change"}, {"time": 657, "annotation": {"number": 64, "value": 127}, "group": "control_change"}, {"time": 661, "annotation": {"number": 64, "value": 0}, "group": "control_change"}, {"time": 681, "annotation": {"number": 64, "value": 127}, "group": "control_change"}, {"time": 696, "annotation": {"number": 64, "value": 0}, "group": "control_change"}, {"time": 696, "annotation": {"number": 64, "value": 127}, "group": "control_change"}, {"time": 701, "annotation": {"number": 64, "value": 0}, "group": "control_change"}, {"time": 705, "annotation": {"number": 64, "value": 127}, "group": "control_change"}, {"time": 726, "annotation": {"number": 64, "value": 0}, "group": "control_change"}, {"time": 730, "annotation": {"number": 64, "value": 127}, "group": "control_change"}, {"time": 749, "annotation": {"number": 64, "value": 0}, "group": "control_change"}, {"time": 753, "annotation": {"number": 64, "value": 127}, "group": "control_change"}, {"time": 772, "annotation": {"number": 64, "value": 0}, "group": "control_change"}, {"time": 777, "annotation": {"number": 64, "value": 127}, "group": "control_change"}, {"time": 796, "annotation": {"number": 64, "value": 0}, "group": "control_change"}, {"time": 801, "annotation": {"number": 64, "value": 127}, "group": "control_change"}, {"time": 805, "annotation": {"number": 64, "value": 0}, "group": "control_change"}, {"time": 815, "annotation": {"number": 64, "value": 127}, "group": "control_change"}, {"time": 821, "annotation": {"number": 64, "value": 0}, "group": "control_change"}, {"time": 825, "annotation": {"number": 64, "value": 127}, "group": "control_change"}, {"time": 833, "annotation": {"number": 64, "value": 0}, "group": "control_change"}, {"time": 849, "annotation": {"number": 64, "value": 127}, "group": "control_change"}, {"time": 852, "annotation": {"number": 64, "value": 0}, "group": "control_change"}, {"time": 873, "annotation": {"number": 64, "value": 127}, "group": "control_change"}, {"time": 886, "annotation": {"number": 64, "value": 0}, "group": "control_change"}, {"time": 897, "annotation": {"number": 64, "value": 127}, "group": "control_change"}, {"time": 911, "annotation": {"number": 64, "value": 0}, "group": "control_change"}, {"time": 921, "annotation": {"number": 64, "value": 127}, "group": "control_change"}, {"time": 922, "annotation": {"number": 64, "value": 127}, "group": "control_change"}, {"time": 943, "annotation": {"number": 64, "value": 0}, "group": "control_change"}, {"time": 945, "annotation": {"number": 64, "value": 127}, "group": "control_change"}, {"time": 968, "annotation": {"number": 64, "value": 0}, "group": "control_change"}, {"time": 969, "annotation": {"number": 64, "value": 127}, "group": "control_change"}, {"time": 992, "annotation": {"number": 64, "value": 0}, "group": "control_change"}, {"time": 993, "annotation": {"number": 64, "value": 127}, "group": "control_change"}, {"time": 1016, "annotation": {"number": 64, "value": 0}, "group": "control_change"}, {"time": 1018, "annotation": {"number": 64, "value": 127}, "group": "control_change"}, {"time": 1040, "annotation": {"number": 64, "value": 0}, "group": "control_change"}, {"time": 1042, "annotation": {"number": 64, "value": 127}, "group": "control_change"}, {"time": 1063, "annotation": {"number": 64, "value": 0}, "group": "control_change"}, {"time": 1065, "annotation": {"number": 64, "value": 127}, "group": "control_change"}, {"time": 1088, "annotation": {"number": 64, "value": 0}, "group": "control_change"}, {"time": 1089, "annotation": {"number": 64, "value": 127}, "group": "control_change"}, {"time": 1111, "annotation": {"number": 64, "value": 0}, "group": "control_change"}, {"time": 1113, "annotation": {"number": 64, "value": 127}, "group": "control_change"}, {"time": 1135, "annotation": {"number": 64, "value": 0}, "group": "control_change"}, {"time": 1137, "annotation": {"number": 64, "value": 127}, "group": "control_change"}, {"time": 1159, "annotation": {"number": 64, "value": 0}, "group": "control_change"}, {"time": 1161, "annotation": {"number": 64, "value": 127}, "group": "control_change"}, {"time": 1184, "annotation": {"number": 64, "value": 0}, "group": "control_change"}, {"time": 1186, "annotation": {"number": 64, "value": 127}, "group": "control_change"}, {"time": 1207, "annotation": {"number": 64, "value": 0}, "group": "control_change"}, {"time": 1209, "annotation": {"number": 64, "value": 127}, "group": "control_change"}, {"time": 1232, "annotation": {"number": 64, "value": 0}, "group": "control_change"}, {"time": 1233, "annotation": {"number": 64, "value": 127}, "group": "control_change"}, {"time": 1256, "annotation": {"number": 64, "value": 0}, "group": "control_change"}, {"time": 1258, "annotation": {"number": 64, "value": 127}, "group": "control_change"}, {"time": 1280, "annotation": {"number": 64, "value": 0}, "group": "control_change"}, {"time": 1281, "annotation": {"number": 64, "value": 127}, "group": "control_change"}, {"time": 1303, "annotation": {"number": 64, "value": 0}, "group": "control_change"}, {"time": 1309, "annotation": {"number": 64, "value": 0}, "group": "control_change"}, {"time": 1315, "annotation": {"number": 64, "value": 127}, "group": "control_change"}, {"time": 1329, "annotation": {"number": 64, "value": 0}, "group": "control_change"}, {"time": 1354, "annotation": {"number": 64, "value": 127}, "group": "control_change"}, {"time": 1375, "annotation": {"number": 64, "value": 0}, "group": "control_change"}, {"time": 1378, "annotation": {"number": 64, "value": 127}, "group": "control_change"}, {"time": 1397, "annotation": {"number": 64, "value": 0}, "group": "control_change"}, {"time": 1397, "annotation": {"number": 64, "value": 127}, "group": "control_change"}, {"time": 1398, "annotation": {"number": 64, "value": 0}, "group": "control_change"}, {"time": 1401, "annotation": {"number": 64, "value": 127}, "group": "control_change"}, {"time": 1422, "annotation": {"number": 64, "value": 0}, "group": "control_change"}, {"time": 1426, "annotation": {"number": 64, "value": 127}, "group": "control_change"}, {"time": 1445, "annotation": {"number": 64, "value": 0}, "group": "control_change"}, {"time": 1450, "annotation": {"number": 64, "value": 127}, "group": "control_change"}, {"time": 1470, "annotation": {"number": 64, "value": 0}, "group": "control_change"}, {"time": 1474, "annotation": {"number": 64, "value": 127}, "group": "control_change"}, {"time": 1493, "annotation": {"number": 64, "value": 0}, "group": "control_change"}, {"time": 1498, "annotation": {"number": 64, "value": 127}, "group": "control_change"}, {"time": 1518, "annotation": {"number": 64, "value": 0}, "group": "control_change"}, {"time": 1522, "annotation": {"number": 64, "value": 127}, "group": "control_change"}, {"time": 1541, "annotation": {"number": 64, "value": 0}, "group": "control_change"}, {"time": 1546, "annotation": {"number": 64, "value": 127}, "group": "control_change"}, {"time": 1566, "annotation": {"number": 64, "value": 0}, "group": "control_change"}, {"time": 1569, "annotation": {"number": 64, "value": 127}, "group": "control_change"}, {"time": 1585, "annotation": {"number": 64, "value": 0}, "group": "control_change"}, {"time": 1593, "annotation": {"number": 64, "value": 127}, "group": "control_change"}, {"time": 1612, "annotation": {"number": 64, "value": 0}, "group": "control_change"}, {"time": 1617, "annotation": {"number": 64, "value": 127}, "group": "control_change"}, {"time": 1625, "annotation": {"number": 64, "value": 0}, "group": "control_change"}, {"time": 1641, "annotation": {"number": 64, "value": 127}, "group": "control_change"}, {"time": 1654, "annotation": {"number": 64, "value": 0}, "group": "control_change"}, {"time": 1666, "annotation": {"number": 64, "value": 127}, "group": "control_change"}, {"time": 1671, "annotation": {"number": 64, "value": 0}, "group": "control_change"}, {"time": 1689, "annotation": {"number": 64, "value": 127}, "group": "control_change"}, {"time": 1702, "annotation": {"number": 64, "value": 0}, "group": "control_change"}, {"time": 1706, "annotation": {"number": 64, "value": 127}, "group": "control_change"}, {"time": 1709, "annotation": {"number": 64, "value": 0}, "group": "control_change"}, {"time": 1713, "annotation": {"number": 64, "value": 127}, "group": "control_change"}, {"time": 1732, "annotation": {"number": 64, "value": 0}, "group": "control_change"}, {"time": 1737, "annotation": {"number": 64, "value": 127}, "group": "control_change"}, {"time": 1755, "annotation": {"number": 64, "value": 0}, "group": "control_change"}, {"time": 1761, "annotation": {"number": 64, "value": 127}, "group": "control_change"}, {"time": 1781, "annotation": {"number": 64, "value": 0}, "group": "control_change"}, {"time": 1785, "annotation": {"number": 64, "value": 127}, "group": "control_change"}, {"time": 1802, "annotation": {"number": 64, "value": 0}, "group": "control_change"}, {"time": 1809, "annotation": {"number": 64, "value": 127}, "group": "control_change"}, {"time": 1817, "annotation": {"number": 64, "value": 0}, "group": "control_change"}, {"time": 1817, "annotation": {"number": 64, "value": 127}, "group": "control_change"}, {"time": 1833, "annotation": {"number": 64, "value": 127}, "group": "control_change"}, {"time": 1842, "annotation": {"number": 64, "value": 0}, "group": "control_change"}, {"time": 1849, "annotation": {"number": 64, "value": 127}, "group": "control_change"}, {"time": 1854, "annotation": {"number": 64, "value": 0}, "group": "control_change"}, {"time": 1857, "annotation": {"number": 64, "value": 127}, "group": "control_change"}, {"time": 1876, "annotation": {"number": 64, "value": 0}, "group": "control_change"}, {"time": 1881, "annotation": {"number": 64, "value": 127}, "group": "control_change"}, {"time": 1899, "annotation": {"number": 64, "value": 0}, "group": "control_change"}, {"time": 1905, "annotation": {"number": 64, "value": 127}, "group": "control_change"}, {"time": 1907, "annotation": {"number": 64, "value": 0}, "group": "control_change"}, {"time": 1929, "annotation": {"number": 64, "value": 127}, "group": "control_change"}, {"time": 1949, "annotation": {"number": 64, "value": 0}, "group": "control_change"}, {"time": 1953, "annotation": {"number": 64, "value": 127}, "group": "control_change"}, {"time": 1960, "annotation": {"number": 64, "value": 0}, "group": "control_change"}, {"time": 1961, "annotation": {"number": 64, "value": 127}, "group": "control_change"}, {"time": 1971, "annotation": {"number": 64, "value": 0}, "group": "control_change"}, {"time": 1977, "annotation": {"number": 64, "value": 127}, "group": "control_change"}, {"time": 1981, "annotation": {"number": 64, "value": 0}, "group": "control_change"}, {"time": 2001, "annotation": {"number": 64, "value": 127}, "group": "control_change"}, {"time": 2016, "annotation": {"number": 64, "value": 0}, "group": "control_change"}, {"time": 2016, "annotation": {"number": 64, "value": 127}, "group": "control_change"}, {"time": 2021, "annotation": {"number": 64, "value": 0}, "group": "control_change"}, {"time": 2025, "annotation": {"number": 64, "value": 127}, "group": "control_change"}, {"time": 2046, "annotation": {"number": 64, "value": 0}, "group": "control_change"}, {"time": 2050, "annotation": {"number": 64, "value": 127}, "group": "control_change"}, {"time": 2069, "annotation": {"number": 64, "value": 0}, "group": "control_change"}, {"time": 2073, "annotation": {"number": 64, "value": 127}, "group": "control_change"}, {"time": 2092, "annotation": {"number": 64, "value": 0}, "group": "control_change"}, {"time": 2097, "annotation": {"number": 64, "value": 127}, "group": "control_change"}, {"time": 2116, "annotation": {"number": 64, "value": 0}, "group": "control_change"}, {"time": 2121, "annotation": {"number": 64, "value": 127}, "group": "control_change"}, {"time": 2125, "annotation": {"number": 64, "value": 0}, "group": "control_change"}, {"time": 2135, "annotation": {"number": 64, "value": 127}, "group": "control_change"}, {"time": 2141, "annotation": {"number": 64, "value": 0}, "group": "control_change"}, {"time": 2145, "annotation": {"number": 64, "value": 127}, "group": "control_change"}, {"time": 2153, "annotation": {"number": 64, "value": 0}, "group": "control_change"}, {"time": 2169, "annotation": {"number": 64, "value": 127}, "group": "control_change"}, {"time": 2172, "annotation": {"number": 64, "value": 0}, "group": "control_change"}, {"time": 2193, "annotation": {"number": 64, "value": 127}, "group": "control_change"}, {"time": 2206, "annotation": {"number": 64, "value": 0}, "group": "control_change"}, {"time": 2217, "annotation": {"number": 64, "value": 127}, "group": "control_change"}, {"time": 2231, "annotation": {"number": 64, "value": 0}, "group": "control_change"}, {"time": 2241, "annotation": {"number": 64, "value": 127}, "group": "control_change"}, {"time": 2242, "annotation": {"number": 64, "value": 127}, "group": "control_change"}, {"time": 2263, "annotation": {"number": 64, "value": 0}, "group": "control_change"}, {"time": 2265, "annotation": {"number": 64, "value": 127}, "group": "control_change"}, {"time": 2288, "annotation": {"number": 64, "value": 0}, "group": "control_change"}, {"time": 2290, "annotation": {"number": 64, "value": 127}, "group": "control_change"}, {"time": 2312, "annotation": {"number": 64, "value": 0}, "group": "control_change"}, {"time": 2313, "annotation": {"number": 64, "value": 127}, "group": "control_change"}, {"time": 2336, "annotation": {"number": 64, "value": 0}, "group": "control_change"}, {"time": 2338, "annotation": {"number": 64, "value": 127}, "group": "control_change"}, {"time": 2360, "annotation": {"number": 64, "value": 0}, "group": "control_change"}, {"time": 2362, "annotation": {"number": 64, "value": 127}, "group": "control_change"}, {"time": 2384, "annotation": {"number": 64, "value": 0}, "group": "control_change"}, {"time": 2386, "annotation": {"number": 64, "value": 127}, "group": "control_change"}, {"time": 2407, "annotation": {"number": 64, "value": 0}, "group": "control_change"}, {"time": 2410, "annotation": {"number": 64, "value": 127}, "group": "control_change"}, {"time": 2432, "annotation": {"number": 64, "value": 0}, "group": "control_change"}, {"time": 2434, "annotation": {"number": 64, "value": 127}, "group": "control_change"}, {"time": 2455, "annotation": {"number": 64, "value": 0}, "group": "control_change"}, {"time": 2457, "annotation": {"number": 64, "value": 127}, "group": "control_change"}, {"time": 2479, "annotation": {"number": 64, "value": 0}, "group": "control_change"}, {"time": 2481, "annotation": {"number": 64, "value": 127}, "group": "control_change"}, {"time": 2498, "annotation": {"number": 64, "value": 0}, "group": "control_change"}, {"time": 2500, "annotation": {"number": 64, "value": 127}, "group": "control_change"}, {"time": 2504, "annotation": {"number": 64, "value": 0}, "group": "control_change"}, {"time": 2506, "annotation": {"number": 64, "value": 127}, "group": "control_change"}, {"time": 2528, "annotation": {"number": 64, "value": 0}, "group": "control_change"}, {"time": 2530, "annotation": {"number": 64, "value": 127}, "group": "control_change"}, {"time": 2552, "annotation": {"number": 64, "value": 0}, "group": "control_change"}, {"time": 2554, "annotation": {"number": 64, "value": 127}, "group": "control_change"}, {"time": 2576, "annotation": {"number": 64, "value": 0}, "group": "control_change"}, {"time": 2578, "annotation": {"number": 64, "value": 127}, "group": "control_change"}, {"time": 2600, "annotation": {"number": 64, "value": 0}, "group": "control_change"}, {"time": 2601, "annotation": {"number": 64, "value": 127}, "group": "control_change"}, {"time": 2623, "annotation": {"number": 64, "value": 0}, "group": "control_change"}, {"time": 2635, "annotation": {"number": 64, "value": 127}, "group": "control_change"}, {"time": 2646, "annotation": {"number": 64, "value": 0}, "group": "control_change"}, {"time": 2649, "annotation": {"number": 64, "value": 127}, "group": "control_change"}, {"time": 2671, "annotation": {"number": 64, "value": 0}, "group": "control_change"}, {"time": 2673, "annotation": {"number": 64, "value": 127}, "group": "control_change"}, {"time": 2694, "annotation": {"number": 64, "value": 0}, "group": "control_change"}, {"time": 2698, "annotation": {"number": 64, "value": 127}, "group": "control_change"}, {"time": 2718, "annotation": {"number": 64, "value": 0}, "group": "control_change"}, {"time": 2722, "annotation": {"number": 64, "value": 127}, "group": "control_change"}, {"time": 2741, "annotation": {"number": 64, "value": 0}, "group": "control_change"}, {"time": 2767, "annotation": {"number": 64, "value": 127}, "group": "control_change"}, {"time": 2779, "annotation": {"number": 64, "value": 0}, "group": "control_change"}, {"time": 2781, "annotation": {"number": 64, "value": 127}, "group": "control_change"}, {"time": 2782, "annotation": {"number": 64, "value": 0}, "group": "control_change"}]}]}