{"metadata": {"schema_version": "0.2", "title": "None", "source_filename": "729.mid", "source_format": "midi"}, "resolution": 12, "tempos": [{"time": 0, "qpm": 80.0}], "time_signatures": [{"time": 0, "numerator": 1, "denominator": 4}], "tracks": [{"program": 4, "is_drum": false, "name": "MELODY", "notes": [{"time": 224, "pitch": 57, "duration": 5, "velocity": 112}, {"time": 230, "pitch": 69, "duration": 5, "velocity": 107}, {"time": 236, "pitch": 66, "duration": 5, "velocity": 117}, {"time": 242, "pitch": 66, "duration": 6, "velocity": 96}, {"time": 248, "pitch": 64, "duration": 3, "velocity": 96}, {"time": 254, "pitch": 64, "duration": 5, "velocity": 93}, {"time": 260, "pitch": 62, "duration": 8, "velocity": 95}, {"time": 272, "pitch": 64, "duration": 11, "velocity": 93}, {"time": 320, "pitch": 64, "duration": 11, "velocity": 83}, {"time": 332, "pitch": 66, "duration": 6, "velocity": 92}, {"time": 338, "pitch": 64, "duration": 8, "velocity": 78}, {"time": 344, "pitch": 62, "duration": 5, "velocity": 95}, {"time": 350, "pitch": 62, "duration": 6, "velocity": 86}, {"time": 356, "pitch": 59, "duration": 6, "velocity": 90}, {"time": 362, "pitch": 59, "duration": 7, "velocity": 95}, {"time": 368, "pitch": 66, "duration": 33, "velocity": 96}, {"time": 416, "pitch": 57, "duration": 5, "velocity": 96}, {"time": 422, "pitch": 71, "duration": 6, "velocity": 102}, {"time": 428, "pitch": 66, "duration": 6, "velocity": 89}, {"time": 434, "pitch": 66, "duration": 5, "velocity": 93}, {"time": 440, "pitch": 64, "duration": 4, "velocity": 99}, {"time": 446, "pitch": 64, "duration": 5, "velocity": 99}, {"time": 452, "pitch": 62, "duration": 7, "velocity": 102}, {"time": 464, "pitch": 64, "duration": 29, "velocity": 92}, {"time": 512, "pitch": 62, "duration": 6, "velocity": 85}, {"time": 518, "pitch": 64, "duration": 7, "velocity": 81}, {"time": 524, "pitch": 66, "duration": 6, "velocity": 93}, {"time": 530, "pitch": 64, "duration": 8, "velocity": 82}, {"time": 536, "pitch": 62, "duration": 5, "velocity": 100}, {"time": 542, "pitch": 62, "duration": 5, "velocity": 102}, {"time": 548, "pitch": 59, "duration": 6, "velocity": 85}, {"time": 554, "pitch": 62, "duration": 2, "velocity": 93}, {"time": 557, "pitch": 59, "duration": 3, "velocity": 82}, {"time": 560, "pitch": 62, "duration": 37, "velocity": 93}, {"time": 608, "pitch": 57, "duration": 5, "velocity": 112}, {"time": 614, "pitch": 69, "duration": 5, "velocity": 107}, {"time": 620, "pitch": 66, "duration": 5, "velocity": 117}, {"time": 626, "pitch": 66, "duration": 6, "velocity": 96}, {"time": 632, "pitch": 64, "duration": 3, "velocity": 96}, {"time": 638, "pitch": 64, "duration": 5, "velocity": 93}, {"time": 644, "pitch": 62, "duration": 8, "velocity": 95}, {"time": 656, "pitch": 64, "duration": 11, "velocity": 93}, {"time": 704, "pitch": 64, "duration": 11, "velocity": 83}, {"time": 716, "pitch": 66, "duration": 6, "velocity": 92}, {"time": 722, "pitch": 64, "duration": 8, "velocity": 78}, {"time": 728, "pitch": 62, "duration": 5, "velocity": 95}, {"time": 734, "pitch": 62, "duration": 6, "velocity": 86}, {"time": 740, "pitch": 59, "duration": 6, "velocity": 90}, {"time": 746, "pitch": 59, "duration": 7, "velocity": 95}, {"time": 752, "pitch": 66, "duration": 33, "velocity": 96}, {"time": 800, "pitch": 57, "duration": 5, "velocity": 96}, {"time": 806, "pitch": 71, "duration": 6, "velocity": 102}, {"time": 812, "pitch": 66, "duration": 6, "velocity": 89}, {"time": 818, "pitch": 66, "duration": 5, "velocity": 93}, {"time": 824, "pitch": 64, "duration": 4, "velocity": 99}, {"time": 830, "pitch": 64, "duration": 5, "velocity": 99}, {"time": 836, "pitch": 62, "duration": 7, "velocity": 102}, {"time": 848, "pitch": 64, "duration": 29, "velocity": 92}, {"time": 896, "pitch": 62, "duration": 6, "velocity": 85}, {"time": 902, "pitch": 64, "duration": 7, "velocity": 81}, {"time": 908, "pitch": 66, "duration": 6, "velocity": 93}, {"time": 914, "pitch": 64, "duration": 8, "velocity": 82}, {"time": 920, "pitch": 62, "duration": 5, "velocity": 100}, {"time": 926, "pitch": 62, "duration": 5, "velocity": 102}, {"time": 932, "pitch": 59, "duration": 6, "velocity": 85}, {"time": 938, "pitch": 62, "duration": 2, "velocity": 93}, {"time": 941, "pitch": 59, "duration": 3, "velocity": 82}, {"time": 944, "pitch": 62, "duration": 18, "velocity": 93}, {"time": 974, "pitch": 66, "duration": 5, "velocity": 127}, {"time": 980, "pitch": 69, "duration": 4, "velocity": 112}, {"time": 986, "pitch": 71, "duration": 29, "velocity": 117}, {"time": 1022, "pitch": 66, "duration": 5, "velocity": 127}, {"time": 1028, "pitch": 71, "duration": 8, "velocity": 122}, {"time": 1034, "pitch": 69, "duration": 30, "velocity": 127}, {"time": 1070, "pitch": 66, "duration": 5, "velocity": 117}, {"time": 1076, "pitch": 69, "duration": 5, "velocity": 112}, {"time": 1082, "pitch": 71, "duration": 12, "velocity": 127}, {"time": 1100, "pitch": 69, "duration": 5, "velocity": 95}, {"time": 1106, "pitch": 62, "duration": 10, "velocity": 102}, {"time": 1118, "pitch": 64, "duration": 4, "velocity": 96}, {"time": 1121, "pitch": 66, "duration": 4, "velocity": 73}, {"time": 1124, "pitch": 69, "duration": 6, "velocity": 95}, {"time": 1136, "pitch": 66, "duration": 14, "velocity": 102}, {"time": 1166, "pitch": 66, "duration": 5, "velocity": 112}, {"time": 1172, "pitch": 69, "duration": 4, "velocity": 102}, {"time": 1178, "pitch": 71, "duration": 10, "velocity": 117}, {"time": 1196, "pitch": 73, "duration": 6, "velocity": 117}, {"time": 1202, "pitch": 71, "duration": 9, "velocity": 99}, {"time": 1214, "pitch": 69, "duration": 5, "velocity": 107}, {"time": 1220, "pitch": 66, "duration": 6, "velocity": 96}, {"time": 1226, "pitch": 64, "duration": 15, "velocity": 107}, {"time": 1244, "pitch": 62, "duration": 5, "velocity": 92}, {"time": 1250, "pitch": 59, "duration": 13, "velocity": 99}, {"time": 1280, "pitch": 57, "duration": 4, "velocity": 102}, {"time": 1286, "pitch": 71, "duration": 6, "velocity": 102}, {"time": 1292, "pitch": 66, "duration": 5, "velocity": 117}, {"time": 1298, "pitch": 69, "duration": 6, "velocity": 107}, {"time": 1304, "pitch": 64, "duration": 4, "velocity": 97}, {"time": 1310, "pitch": 59, "duration": 4, "velocity": 96}, {"time": 1316, "pitch": 66, "duration": 11, "velocity": 117}, {"time": 1328, "pitch": 62, "duration": 26, "velocity": 95}, {"time": 1358, "pitch": 66, "duration": 5, "velocity": 127}, {"time": 1364, "pitch": 69, "duration": 4, "velocity": 112}, {"time": 1370, "pitch": 71, "duration": 29, "velocity": 117}, {"time": 1406, "pitch": 66, "duration": 5, "velocity": 127}, {"time": 1412, "pitch": 71, "duration": 8, "velocity": 122}, {"time": 1418, "pitch": 69, "duration": 30, "velocity": 127}, {"time": 1454, "pitch": 66, "duration": 5, "velocity": 117}, {"time": 1460, "pitch": 69, "duration": 5, "velocity": 112}, {"time": 1466, "pitch": 71, "duration": 12, "velocity": 127}, {"time": 1484, "pitch": 69, "duration": 5, "velocity": 107}, {"time": 1490, "pitch": 62, "duration": 10, "velocity": 102}, {"time": 1502, "pitch": 64, "duration": 4, "velocity": 96}, {"time": 1505, "pitch": 66, "duration": 4, "velocity": 73}, {"time": 1508, "pitch": 69, "duration": 6, "velocity": 95}, {"time": 1520, "pitch": 66, "duration": 14, "velocity": 102}, {"time": 1550, "pitch": 66, "duration": 5, "velocity": 112}, {"time": 1556, "pitch": 69, "duration": 4, "velocity": 102}, {"time": 1562, "pitch": 71, "duration": 10, "velocity": 117}, {"time": 1580, "pitch": 73, "duration": 6, "velocity": 117}, {"time": 1586, "pitch": 71, "duration": 9, "velocity": 99}, {"time": 1598, "pitch": 69, "duration": 5, "velocity": 107}, {"time": 1604, "pitch": 66, "duration": 6, "velocity": 96}, {"time": 1610, "pitch": 64, "duration": 15, "velocity": 107}, {"time": 1628, "pitch": 62, "duration": 5, "velocity": 92}, {"time": 1634, "pitch": 59, "duration": 13, "velocity": 99}, {"time": 1664, "pitch": 57, "duration": 4, "velocity": 102}, {"time": 1670, "pitch": 71, "duration": 6, "velocity": 102}, {"time": 1676, "pitch": 66, "duration": 5, "velocity": 117}, {"time": 1682, "pitch": 69, "duration": 6, "velocity": 107}, {"time": 1688, "pitch": 64, "duration": 4, "velocity": 97}, {"time": 1694, "pitch": 59, "duration": 4, "velocity": 96}, {"time": 1700, "pitch": 66, "duration": 11, "velocity": 117}, {"time": 1712, "pitch": 62, "duration": 26, "velocity": 95}, {"time": 1952, "pitch": 57, "duration": 5, "velocity": 112}, {"time": 1958, "pitch": 69, "duration": 5, "velocity": 107}, {"time": 1964, "pitch": 66, "duration": 5, "velocity": 117}, {"time": 1970, "pitch": 66, "duration": 6, "velocity": 96}, {"time": 1976, "pitch": 64, "duration": 3, "velocity": 96}, {"time": 1982, "pitch": 64, "duration": 5, "velocity": 93}, {"time": 1988, "pitch": 62, "duration": 8, "velocity": 95}, {"time": 2000, "pitch": 64, "duration": 11, "velocity": 93}, {"time": 2048, "pitch": 64, "duration": 11, "velocity": 83}, {"time": 2060, "pitch": 66, "duration": 6, "velocity": 92}, {"time": 2066, "pitch": 64, "duration": 8, "velocity": 78}, {"time": 2072, "pitch": 62, "duration": 5, "velocity": 95}, {"time": 2078, "pitch": 62, "duration": 6, "velocity": 86}, {"time": 2084, "pitch": 59, "duration": 6, "velocity": 90}, {"time": 2090, "pitch": 59, "duration": 7, "velocity": 95}, {"time": 2096, "pitch": 66, "duration": 33, "velocity": 96}, {"time": 2144, "pitch": 57, "duration": 5, "velocity": 96}, {"time": 2150, "pitch": 71, "duration": 6, "velocity": 102}, {"time": 2156, "pitch": 66, "duration": 6, "velocity": 89}, {"time": 2162, "pitch": 66, "duration": 5, "velocity": 93}, {"time": 2168, "pitch": 64, "duration": 4, "velocity": 99}, {"time": 2174, "pitch": 64, "duration": 5, "velocity": 99}, {"time": 2180, "pitch": 62, "duration": 7, "velocity": 102}, {"time": 2192, "pitch": 64, "duration": 29, "velocity": 92}, {"time": 2240, "pitch": 62, "duration": 6, "velocity": 85}, {"time": 2246, "pitch": 64, "duration": 7, "velocity": 81}, {"time": 2252, "pitch": 66, "duration": 6, "velocity": 93}, {"time": 2258, "pitch": 64, "duration": 8, "velocity": 82}, {"time": 2264, "pitch": 62, "duration": 5, "velocity": 100}, {"time": 2270, "pitch": 62, "duration": 5, "velocity": 102}, {"time": 2276, "pitch": 59, "duration": 6, "velocity": 85}, {"time": 2282, "pitch": 62, "duration": 2, "velocity": 93}, {"time": 2285, "pitch": 59, "duration": 3, "velocity": 82}, {"time": 2288, "pitch": 62, "duration": 37, "velocity": 93}, {"time": 2336, "pitch": 57, "duration": 5, "velocity": 112}, {"time": 2342, "pitch": 69, "duration": 5, "velocity": 107}, {"time": 2348, "pitch": 66, "duration": 5, "velocity": 117}, {"time": 2354, "pitch": 66, "duration": 6, "velocity": 96}, {"time": 2360, "pitch": 64, "duration": 3, "velocity": 96}, {"time": 2366, "pitch": 64, "duration": 5, "velocity": 93}, {"time": 2372, "pitch": 62, "duration": 8, "velocity": 95}, {"time": 2384, "pitch": 64, "duration": 11, "velocity": 93}, {"time": 2432, "pitch": 64, "duration": 11, "velocity": 83}, {"time": 2444, "pitch": 66, "duration": 6, "velocity": 92}, {"time": 2450, "pitch": 64, "duration": 8, "velocity": 78}, {"time": 2456, "pitch": 62, "duration": 5, "velocity": 95}, {"time": 2462, "pitch": 62, "duration": 6, "velocity": 86}, {"time": 2468, "pitch": 59, "duration": 6, "velocity": 90}, {"time": 2474, "pitch": 59, "duration": 7, "velocity": 95}, {"time": 2480, "pitch": 66, "duration": 33, "velocity": 96}, {"time": 2528, "pitch": 57, "duration": 5, "velocity": 96}, {"time": 2534, "pitch": 71, "duration": 6, "velocity": 102}, {"time": 2540, "pitch": 66, "duration": 6, "velocity": 89}, {"time": 2546, "pitch": 66, "duration": 5, "velocity": 93}, {"time": 2552, "pitch": 64, "duration": 4, "velocity": 99}, {"time": 2558, "pitch": 64, "duration": 5, "velocity": 99}, {"time": 2564, "pitch": 62, "duration": 7, "velocity": 102}, {"time": 2576, "pitch": 64, "duration": 29, "velocity": 92}, {"time": 2624, "pitch": 62, "duration": 6, "velocity": 85}, {"time": 2630, "pitch": 64, "duration": 7, "velocity": 81}, {"time": 2636, "pitch": 66, "duration": 6, "velocity": 93}, {"time": 2642, "pitch": 64, "duration": 8, "velocity": 82}, {"time": 2648, "pitch": 62, "duration": 5, "velocity": 100}, {"time": 2654, "pitch": 62, "duration": 5, "velocity": 102}, {"time": 2660, "pitch": 59, "duration": 6, "velocity": 85}, {"time": 2666, "pitch": 62, "duration": 2, "velocity": 93}, {"time": 2669, "pitch": 59, "duration": 3, "velocity": 82}, {"time": 2672, "pitch": 62, "duration": 18, "velocity": 93}, {"time": 2702, "pitch": 66, "duration": 5, "velocity": 127}, {"time": 2708, "pitch": 69, "duration": 4, "velocity": 112}, {"time": 2714, "pitch": 71, "duration": 29, "velocity": 117}, {"time": 2750, "pitch": 66, "duration": 5, "velocity": 127}, {"time": 2756, "pitch": 71, "duration": 8, "velocity": 122}, {"time": 2762, "pitch": 69, "duration": 30, "velocity": 127}, {"time": 2798, "pitch": 66, "duration": 5, "velocity": 117}, {"time": 2804, "pitch": 69, "duration": 5, "velocity": 112}, {"time": 2810, "pitch": 71, "duration": 12, "velocity": 127}, {"time": 2828, "pitch": 69, "duration": 5, "velocity": 95}, {"time": 2834, "pitch": 62, "duration": 10, "velocity": 102}, {"time": 2846, "pitch": 64, "duration": 4, "velocity": 96}, {"time": 2849, "pitch": 66, "duration": 4, "velocity": 73}, {"time": 2852, "pitch": 69, "duration": 6, "velocity": 95}, {"time": 2864, "pitch": 66, "duration": 14, "velocity": 102}, {"time": 2894, "pitch": 66, "duration": 5, "velocity": 112}, {"time": 2900, "pitch": 69, "duration": 4, "velocity": 102}, {"time": 2906, "pitch": 71, "duration": 10, "velocity": 117}, {"time": 2924, "pitch": 73, "duration": 6, "velocity": 117}, {"time": 2930, "pitch": 71, "duration": 9, "velocity": 99}, {"time": 2942, "pitch": 69, "duration": 5, "velocity": 107}, {"time": 2948, "pitch": 66, "duration": 6, "velocity": 96}, {"time": 2954, "pitch": 64, "duration": 15, "velocity": 107}, {"time": 2972, "pitch": 62, "duration": 5, "velocity": 92}, {"time": 2978, "pitch": 59, "duration": 13, "velocity": 99}, {"time": 3008, "pitch": 57, "duration": 4, "velocity": 102}, {"time": 3014, "pitch": 71, "duration": 6, "velocity": 102}, {"time": 3020, "pitch": 66, "duration": 5, "velocity": 117}, {"time": 3026, "pitch": 69, "duration": 6, "velocity": 107}, {"time": 3032, "pitch": 64, "duration": 4, "velocity": 97}, {"time": 3038, "pitch": 59, "duration": 4, "velocity": 96}, {"time": 3044, "pitch": 66, "duration": 11, "velocity": 117}, {"time": 3056, "pitch": 62, "duration": 26, "velocity": 95}, {"time": 3086, "pitch": 66, "duration": 5, "velocity": 127}, {"time": 3092, "pitch": 69, "duration": 4, "velocity": 112}, {"time": 3098, "pitch": 71, "duration": 29, "velocity": 117}, {"time": 3134, "pitch": 66, "duration": 5, "velocity": 127}, {"time": 3140, "pitch": 71, "duration": 8, "velocity": 122}, {"time": 3146, "pitch": 69, "duration": 30, "velocity": 127}, {"time": 3182, "pitch": 66, "duration": 5, "velocity": 117}, {"time": 3188, "pitch": 69, "duration": 5, "velocity": 112}, {"time": 3194, "pitch": 71, "duration": 12, "velocity": 127}, {"time": 3212, "pitch": 69, "duration": 5, "velocity": 107}, {"time": 3218, "pitch": 62, "duration": 10, "velocity": 102}, {"time": 3230, "pitch": 64, "duration": 4, "velocity": 96}, {"time": 3233, "pitch": 66, "duration": 4, "velocity": 73}, {"time": 3236, "pitch": 69, "duration": 6, "velocity": 95}, {"time": 3248, "pitch": 66, "duration": 14, "velocity": 102}, {"time": 3278, "pitch": 66, "duration": 5, "velocity": 112}, {"time": 3284, "pitch": 69, "duration": 4, "velocity": 102}, {"time": 3290, "pitch": 71, "duration": 10, "velocity": 117}, {"time": 3308, "pitch": 73, "duration": 6, "velocity": 117}, {"time": 3314, "pitch": 71, "duration": 9, "velocity": 99}, {"time": 3326, "pitch": 69, "duration": 5, "velocity": 107}, {"time": 3332, "pitch": 66, "duration": 6, "velocity": 96}, {"time": 3338, "pitch": 64, "duration": 15, "velocity": 107}, {"time": 3356, "pitch": 62, "duration": 5, "velocity": 92}, {"time": 3362, "pitch": 59, "duration": 13, "velocity": 99}, {"time": 3392, "pitch": 57, "duration": 4, "velocity": 102}, {"time": 3398, "pitch": 71, "duration": 6, "velocity": 102}, {"time": 3404, "pitch": 66, "duration": 5, "velocity": 117}, {"time": 3410, "pitch": 69, "duration": 6, "velocity": 107}, {"time": 3416, "pitch": 64, "duration": 4, "velocity": 97}, {"time": 3422, "pitch": 59, "duration": 4, "velocity": 96}, {"time": 3428, "pitch": 66, "duration": 11, "velocity": 117}, {"time": 3440, "pitch": 62, "duration": 26, "velocity": 95}, {"time": 3470, "pitch": 66, "duration": 5, "velocity": 112}, {"time": 3476, "pitch": 69, "duration": 4, "velocity": 102}, {"time": 3482, "pitch": 71, "duration": 10, "velocity": 117}, {"time": 3500, "pitch": 73, "duration": 6, "velocity": 117}, {"time": 3506, "pitch": 71, "duration": 9, "velocity": 99}, {"time": 3518, "pitch": 69, "duration": 5, "velocity": 107}, {"time": 3524, "pitch": 66, "duration": 6, "velocity": 96}, {"time": 3530, "pitch": 64, "duration": 15, "velocity": 107}, {"time": 3548, "pitch": 62, "duration": 5, "velocity": 92}, {"time": 3554, "pitch": 59, "duration": 13, "velocity": 99}, {"time": 3584, "pitch": 57, "duration": 4, "velocity": 102}, {"time": 3590, "pitch": 71, "duration": 6, "velocity": 102}, {"time": 3596, "pitch": 66, "duration": 5, "velocity": 117}, {"time": 3602, "pitch": 69, "duration": 6, "velocity": 107}, {"time": 3612, "pitch": 64, "duration": 6, "velocity": 92}, {"time": 3620, "pitch": 59, "duration": 8, "velocity": 89}, {"time": 3629, "pitch": 66, "duration": 43, "velocity": 97}, {"time": 3676, "pitch": 66, "duration": 10, "velocity": 117}, {"time": 3688, "pitch": 64, "duration": 5, "velocity": 96}, {"time": 3692, "pitch": 66, "duration": 5, "velocity": 99}, {"time": 3696, "pitch": 64, "duration": 6, "velocity": 90}, {"time": 3701, "pitch": 66, "duration": 8, "velocity": 102}, {"time": 3708, "pitch": 62, "duration": 47, "velocity": 96}]}, {"program": 0, "is_drum": false, "name": "PIANO", "notes": [{"time": 26, "pitch": 47, "duration": 22, "velocity": 69}, {"time": 32, "pitch": 54, "duration": 8, "velocity": 67}, {"time": 38, "pitch": 66, "duration": 22, "velocity": 112}, {"time": 41, "pitch": 54, "duration": 9, "velocity": 72}, {"time": 44, "pitch": 62, "duration": 17, "velocity": 63}, {"time": 47, "pitch": 59, "duration": 2, "velocity": 50}, {"time": 50, "pitch": 47, "duration": 13, "velocity": 82}, {"time": 56, "pitch": 54, "duration": 7, "velocity": 56}, {"time": 62, "pitch": 66, "duration": 13, "velocity": 102}, {"time": 68, "pitch": 59, "duration": 7, "velocity": 74}, {"time": 74, "pitch": 42, "duration": 18, "velocity": 85}, {"time": 80, "pitch": 49, "duration": 11, "velocity": 72}, {"time": 86, "pitch": 66, "duration": 12, "velocity": 107}, {"time": 89, "pitch": 54, "duration": 3, "velocity": 54}, {"time": 92, "pitch": 61, "duration": 6, "velocity": 72}, {"time": 95, "pitch": 57, "duration": 3, "velocity": 83}, {"time": 98, "pitch": 43, "duration": 22, "velocity": 72}, {"time": 101, "pitch": 50, "duration": 11, "velocity": 69}, {"time": 104, "pitch": 55, "duration": 6, "velocity": 90}, {"time": 107, "pitch": 62, "duration": 15, "velocity": 89}, {"time": 110, "pitch": 59, "duration": 8, "velocity": 77}, {"time": 113, "pitch": 50, "duration": 7, "velocity": 65}, {"time": 116, "pitch": 55, "duration": 5, "velocity": 62}, {"time": 119, "pitch": 59, "duration": 3, "velocity": 45}, {"time": 122, "pitch": 45, "duration": 23, "velocity": 93}, {"time": 128, "pitch": 52, "duration": 18, "velocity": 65}, {"time": 134, "pitch": 64, "duration": 22, "velocity": 97}, {"time": 140, "pitch": 61, "duration": 17, "velocity": 51}, {"time": 146, "pitch": 45, "duration": 17, "velocity": 76}, {"time": 152, "pitch": 52, "duration": 9, "velocity": 56}, {"time": 158, "pitch": 64, "duration": 13, "velocity": 93}, {"time": 164, "pitch": 57, "duration": 7, "velocity": 81}, {"time": 170, "pitch": 38, "duration": 44, "velocity": 76}, {"time": 176, "pitch": 45, "duration": 32, "velocity": 50}, {"time": 182, "pitch": 54, "duration": 12, "velocity": 74}, {"time": 188, "pitch": 50, "duration": 8, "velocity": 71}, {"time": 194, "pitch": 57, "duration": 13, "velocity": 85}, {"time": 200, "pitch": 50, "duration": 6, "velocity": 59}, {"time": 206, "pitch": 54, "duration": 8, "velocity": 92}, {"time": 212, "pitch": 45, "duration": 7, "velocity": 68}, {"time": 218, "pitch": 38, "duration": 15, "velocity": 72}, {"time": 218, "pitch": 50, "duration": 15, "velocity": 69}, {"time": 218, "pitch": 54, "duration": 15, "velocity": 63}, {"time": 218, "pitch": 57, "duration": 15, "velocity": 69}, {"time": 266, "pitch": 40, "duration": 41, "velocity": 78}, {"time": 272, "pitch": 47, "duration": 35, "velocity": 46}, {"time": 278, "pitch": 55, "duration": 14, "velocity": 73}, {"time": 284, "pitch": 52, "duration": 9, "velocity": 64}, {"time": 290, "pitch": 59, "duration": 13, "velocity": 78}, {"time": 296, "pitch": 52, "duration": 8, "velocity": 69}, {"time": 302, "pitch": 64, "duration": 14, "velocity": 79}, {"time": 308, "pitch": 55, "duration": 7, "velocity": 71}, {"time": 314, "pitch": 45, "duration": 39, "velocity": 74}, {"time": 320, "pitch": 52, "duration": 9, "velocity": 59}, {"time": 326, "pitch": 57, "duration": 25, "velocity": 77}, {"time": 332, "pitch": 52, "duration": 8, "velocity": 41}, {"time": 338, "pitch": 64, "duration": 27, "velocity": 66}, {"time": 344, "pitch": 52, "duration": 7, "velocity": 50}, {"time": 350, "pitch": 61, "duration": 14, "velocity": 88}, {"time": 356, "pitch": 57, "duration": 8, "velocity": 68}, {"time": 362, "pitch": 38, "duration": 46, "velocity": 76}, {"time": 368, "pitch": 45, "duration": 42, "velocity": 44}, {"time": 374, "pitch": 54, "duration": 17, "velocity": 70}, {"time": 380, "pitch": 50, "duration": 8, "velocity": 48}, {"time": 386, "pitch": 57, "duration": 14, "velocity": 85}, {"time": 392, "pitch": 50, "duration": 11, "velocity": 54}, {"time": 398, "pitch": 62, "duration": 9, "velocity": 75}, {"time": 404, "pitch": 54, "duration": 11, "velocity": 66}, {"time": 410, "pitch": 38, "duration": 41, "velocity": 74}, {"time": 416, "pitch": 45, "duration": 36, "velocity": 59}, {"time": 422, "pitch": 54, "duration": 37, "velocity": 70}, {"time": 428, "pitch": 49, "duration": 10, "velocity": 64}, {"time": 434, "pitch": 61, "duration": 25, "velocity": 82}, {"time": 440, "pitch": 49, "duration": 8, "velocity": 59}, {"time": 446, "pitch": 50, "duration": 12, "velocity": 66}, {"time": 458, "pitch": 40, "duration": 39, "velocity": 70}, {"time": 464, "pitch": 47, "duration": 33, "velocity": 46}, {"time": 470, "pitch": 55, "duration": 26, "velocity": 76}, {"time": 476, "pitch": 52, "duration": 9, "velocity": 60}, {"time": 482, "pitch": 64, "duration": 26, "velocity": 79}, {"time": 488, "pitch": 52, "duration": 12, "velocity": 68}, {"time": 494, "pitch": 59, "duration": 13, "velocity": 92}, {"time": 500, "pitch": 55, "duration": 7, "velocity": 66}, {"time": 506, "pitch": 45, "duration": 38, "velocity": 72}, {"time": 512, "pitch": 52, "duration": 8, "velocity": 49}, {"time": 518, "pitch": 57, "duration": 24, "velocity": 82}, {"time": 524, "pitch": 52, "duration": 9, "velocity": 55}, {"time": 530, "pitch": 64, "duration": 24, "velocity": 81}, {"time": 536, "pitch": 52, "duration": 7, "velocity": 42}, {"time": 542, "pitch": 61, "duration": 12, "velocity": 99}, {"time": 548, "pitch": 57, "duration": 9, "velocity": 70}, {"time": 554, "pitch": 38, "duration": 46, "velocity": 77}, {"time": 560, "pitch": 45, "duration": 41, "velocity": 39}, {"time": 566, "pitch": 62, "duration": 12, "velocity": 70}, {"time": 572, "pitch": 50, "duration": 9, "velocity": 55}, {"time": 578, "pitch": 66, "duration": 16, "velocity": 97}, {"time": 584, "pitch": 50, "duration": 7, "velocity": 70}, {"time": 590, "pitch": 64, "duration": 10, "velocity": 86}, {"time": 596, "pitch": 50, "duration": 5, "velocity": 69}, {"time": 602, "pitch": 38, "duration": 11, "velocity": 59}, {"time": 602, "pitch": 50, "duration": 7, "velocity": 62}, {"time": 602, "pitch": 57, "duration": 8, "velocity": 64}, {"time": 602, "pitch": 62, "duration": 9, "velocity": 71}, {"time": 602, "pitch": 66, "duration": 11, "velocity": 66}, {"time": 650, "pitch": 40, "duration": 41, "velocity": 78}, {"time": 656, "pitch": 47, "duration": 35, "velocity": 46}, {"time": 662, "pitch": 55, "duration": 14, "velocity": 73}, {"time": 668, "pitch": 52, "duration": 9, "velocity": 64}, {"time": 674, "pitch": 59, "duration": 13, "velocity": 78}, {"time": 680, "pitch": 52, "duration": 8, "velocity": 69}, {"time": 686, "pitch": 64, "duration": 14, "velocity": 79}, {"time": 692, "pitch": 55, "duration": 7, "velocity": 71}, {"time": 698, "pitch": 45, "duration": 39, "velocity": 74}, {"time": 704, "pitch": 52, "duration": 9, "velocity": 59}, {"time": 710, "pitch": 57, "duration": 25, "velocity": 77}, {"time": 716, "pitch": 52, "duration": 8, "velocity": 41}, {"time": 722, "pitch": 64, "duration": 27, "velocity": 66}, {"time": 728, "pitch": 52, "duration": 7, "velocity": 50}, {"time": 734, "pitch": 61, "duration": 14, "velocity": 88}, {"time": 740, "pitch": 57, "duration": 8, "velocity": 68}, {"time": 746, "pitch": 38, "duration": 46, "velocity": 76}, {"time": 752, "pitch": 45, "duration": 42, "velocity": 44}, {"time": 758, "pitch": 54, "duration": 17, "velocity": 70}, {"time": 764, "pitch": 50, "duration": 8, "velocity": 48}, {"time": 770, "pitch": 57, "duration": 14, "velocity": 85}, {"time": 776, "pitch": 50, "duration": 11, "velocity": 54}, {"time": 782, "pitch": 62, "duration": 9, "velocity": 75}, {"time": 788, "pitch": 54, "duration": 11, "velocity": 66}, {"time": 794, "pitch": 38, "duration": 41, "velocity": 74}, {"time": 800, "pitch": 45, "duration": 36, "velocity": 59}, {"time": 806, "pitch": 54, "duration": 37, "velocity": 70}, {"time": 812, "pitch": 49, "duration": 10, "velocity": 64}, {"time": 818, "pitch": 61, "duration": 25, "velocity": 82}, {"time": 824, "pitch": 49, "duration": 8, "velocity": 59}, {"time": 830, "pitch": 50, "duration": 12, "velocity": 66}, {"time": 842, "pitch": 40, "duration": 39, "velocity": 70}, {"time": 848, "pitch": 47, "duration": 33, "velocity": 46}, {"time": 854, "pitch": 55, "duration": 26, "velocity": 76}, {"time": 860, "pitch": 52, "duration": 9, "velocity": 60}, {"time": 866, "pitch": 64, "duration": 26, "velocity": 79}, {"time": 872, "pitch": 52, "duration": 12, "velocity": 68}, {"time": 878, "pitch": 59, "duration": 13, "velocity": 92}, {"time": 884, "pitch": 55, "duration": 7, "velocity": 66}, {"time": 890, "pitch": 45, "duration": 38, "velocity": 72}, {"time": 896, "pitch": 52, "duration": 8, "velocity": 49}, {"time": 902, "pitch": 57, "duration": 24, "velocity": 82}, {"time": 908, "pitch": 52, "duration": 9, "velocity": 55}, {"time": 914, "pitch": 64, "duration": 24, "velocity": 81}, {"time": 920, "pitch": 52, "duration": 7, "velocity": 42}, {"time": 926, "pitch": 61, "duration": 12, "velocity": 99}, {"time": 932, "pitch": 57, "duration": 9, "velocity": 70}, {"time": 938, "pitch": 38, "duration": 46, "velocity": 77}, {"time": 944, "pitch": 45, "duration": 41, "velocity": 39}, {"time": 950, "pitch": 62, "duration": 12, "velocity": 70}, {"time": 956, "pitch": 50, "duration": 9, "velocity": 55}, {"time": 962, "pitch": 66, "duration": 16, "velocity": 97}, {"time": 968, "pitch": 50, "duration": 7, "velocity": 70}, {"time": 974, "pitch": 64, "duration": 10, "velocity": 86}, {"time": 980, "pitch": 50, "duration": 5, "velocity": 69}, {"time": 986, "pitch": 47, "duration": 22, "velocity": 88}, {"time": 989, "pitch": 54, "duration": 5, "velocity": 93}, {"time": 992, "pitch": 59, "duration": 9, "velocity": 71}, {"time": 995, "pitch": 54, "duration": 4, "velocity": 67}, {"time": 998, "pitch": 66, "duration": 14, "velocity": 93}, {"time": 1001, "pitch": 54, "duration": 8, "velocity": 68}, {"time": 1004, "pitch": 59, "duration": 10, "velocity": 68}, {"time": 1007, "pitch": 62, "duration": 8, "velocity": 65}, {"time": 1010, "pitch": 47, "duration": 17, "velocity": 70}, {"time": 1013, "pitch": 54, "duration": 10, "velocity": 66}, {"time": 1016, "pitch": 59, "duration": 8, "velocity": 64}, {"time": 1019, "pitch": 62, "duration": 3, "velocity": 75}, {"time": 1022, "pitch": 66, "duration": 11, "velocity": 102}, {"time": 1025, "pitch": 54, "duration": 2, "velocity": 83}, {"time": 1028, "pitch": 62, "duration": 4, "velocity": 96}, {"time": 1031, "pitch": 59, "duration": 4, "velocity": 81}, {"time": 1034, "pitch": 42, "duration": 22, "velocity": 69}, {"time": 1037, "pitch": 49, "duration": 20, "velocity": 40}, {"time": 1040, "pitch": 54, "duration": 7, "velocity": 74}, {"time": 1043, "pitch": 57, "duration": 4, "velocity": 88}, {"time": 1046, "pitch": 61, "duration": 8, "velocity": 73}, {"time": 1049, "pitch": 54, "duration": 10, "velocity": 77}, {"time": 1052, "pitch": 57, "duration": 13, "velocity": 71}, {"time": 1055, "pitch": 66, "duration": 11, "velocity": 81}, {"time": 1058, "pitch": 42, "duration": 18, "velocity": 63}, {"time": 1061, "pitch": 49, "duration": 14, "velocity": 65}, {"time": 1064, "pitch": 54, "duration": 7, "velocity": 73}, {"time": 1067, "pitch": 57, "duration": 6, "velocity": 75}, {"time": 1070, "pitch": 66, "duration": 10, "velocity": 89}, {"time": 1073, "pitch": 54, "duration": 3, "velocity": 81}, {"time": 1076, "pitch": 61, "duration": 5, "velocity": 99}, {"time": 1079, "pitch": 57, "duration": 3, "velocity": 82}, {"time": 1082, "pitch": 43, "duration": 22, "velocity": 65}, {"time": 1085, "pitch": 50, "duration": 21, "velocity": 70}, {"time": 1088, "pitch": 55, "duration": 7, "velocity": 72}, {"time": 1091, "pitch": 59, "duration": 5, "velocity": 68}, {"time": 1094, "pitch": 62, "duration": 8, "velocity": 61}, {"time": 1097, "pitch": 55, "duration": 3, "velocity": 71}, {"time": 1100, "pitch": 59, "duration": 10, "velocity": 66}, {"time": 1103, "pitch": 67, "duration": 10, "velocity": 76}, {"time": 1106, "pitch": 43, "duration": 19, "velocity": 64}, {"time": 1109, "pitch": 50, "duration": 11, "velocity": 55}, {"time": 1112, "pitch": 55, "duration": 5, "velocity": 69}, {"time": 1115, "pitch": 59, "duration": 6, "velocity": 76}, {"time": 1118, "pitch": 67, "duration": 12, "velocity": 82}, {"time": 1121, "pitch": 50, "duration": 3, "velocity": 61}, {"time": 1124, "pitch": 62, "duration": 5, "velocity": 77}, {"time": 1127, "pitch": 59, "duration": 3, "velocity": 83}, {"time": 1130, "pitch": 38, "duration": 22, "velocity": 72}, {"time": 1133, "pitch": 45, "duration": 21, "velocity": 45}, {"time": 1136, "pitch": 50, "duration": 7, "velocity": 74}, {"time": 1139, "pitch": 57, "duration": 5, "velocity": 74}, {"time": 1142, "pitch": 62, "duration": 7, "velocity": 66}, {"time": 1145, "pitch": 50, "duration": 5, "velocity": 71}, {"time": 1148, "pitch": 57, "duration": 14, "velocity": 70}, {"time": 1151, "pitch": 66, "duration": 12, "velocity": 89}, {"time": 1154, "pitch": 38, "duration": 17, "velocity": 67}, {"time": 1157, "pitch": 45, "duration": 14, "velocity": 68}, {"time": 1160, "pitch": 50, "duration": 7, "velocity": 75}, {"time": 1163, "pitch": 57, "duration": 6, "velocity": 82}, {"time": 1166, "pitch": 66, "duration": 12, "velocity": 102}, {"time": 1169, "pitch": 50, "duration": 4, "velocity": 89}, {"time": 1172, "pitch": 62, "duration": 6, "velocity": 89}, {"time": 1175, "pitch": 57, "duration": 4, "velocity": 100}, {"time": 1178, "pitch": 47, "duration": 23, "velocity": 72}, {"time": 1181, "pitch": 54, "duration": 10, "velocity": 68}, {"time": 1184, "pitch": 59, "duration": 5, "velocity": 81}, {"time": 1187, "pitch": 62, "duration": 3, "velocity": 69}, {"time": 1190, "pitch": 66, "duration": 13, "velocity": 112}, {"time": 1193, "pitch": 54, "duration": 10, "velocity": 89}, {"time": 1196, "pitch": 62, "duration": 7, "velocity": 85}, {"time": 1199, "pitch": 59, "duration": 4, "velocity": 85}, {"time": 1202, "pitch": 47, "duration": 17, "velocity": 79}, {"time": 1205, "pitch": 54, "duration": 10, "velocity": 57}, {"time": 1208, "pitch": 59, "duration": 5, "velocity": 82}, {"time": 1211, "pitch": 62, "duration": 3, "velocity": 75}, {"time": 1214, "pitch": 66, "duration": 11, "velocity": 102}, {"time": 1217, "pitch": 54, "duration": 2, "velocity": 85}, {"time": 1220, "pitch": 62, "duration": 4, "velocity": 81}, {"time": 1223, "pitch": 59, "duration": 4, "velocity": 85}, {"time": 1226, "pitch": 42, "duration": 22, "velocity": 68}, {"time": 1229, "pitch": 49, "duration": 17, "velocity": 35}, {"time": 1232, "pitch": 54, "duration": 8, "velocity": 99}, {"time": 1235, "pitch": 57, "duration": 8, "velocity": 89}, {"time": 1238, "pitch": 61, "duration": 6, "velocity": 99}, {"time": 1241, "pitch": 54, "duration": 7, "velocity": 93}, {"time": 1244, "pitch": 66, "duration": 5, "velocity": 99}, {"time": 1247, "pitch": 57, "duration": 3, "velocity": 85}, {"time": 1250, "pitch": 43, "duration": 22, "velocity": 67}, {"time": 1253, "pitch": 50, "duration": 11, "velocity": 77}, {"time": 1256, "pitch": 55, "duration": 4, "velocity": 86}, {"time": 1259, "pitch": 59, "duration": 4, "velocity": 82}, {"time": 1262, "pitch": 62, "duration": 12, "velocity": 100}, {"time": 1265, "pitch": 50, "duration": 8, "velocity": 88}, {"time": 1268, "pitch": 59, "duration": 5, "velocity": 90}, {"time": 1271, "pitch": 55, "duration": 3, "velocity": 86}, {"time": 1274, "pitch": 45, "duration": 22, "velocity": 82}, {"time": 1277, "pitch": 52, "duration": 10, "velocity": 74}, {"time": 1280, "pitch": 57, "duration": 5, "velocity": 83}, {"time": 1283, "pitch": 61, "duration": 3, "velocity": 86}, {"time": 1286, "pitch": 64, "duration": 16, "velocity": 88}, {"time": 1289, "pitch": 52, "duration": 9, "velocity": 65}, {"time": 1292, "pitch": 61, "duration": 11, "velocity": 92}, {"time": 1295, "pitch": 57, "duration": 6, "velocity": 72}, {"time": 1298, "pitch": 45, "duration": 14, "velocity": 72}, {"time": 1301, "pitch": 52, "duration": 9, "velocity": 79}, {"time": 1304, "pitch": 57, "duration": 7, "velocity": 79}, {"time": 1307, "pitch": 61, "duration": 4, "velocity": 69}, {"time": 1310, "pitch": 64, "duration": 13, "velocity": 79}, {"time": 1316, "pitch": 61, "duration": 6, "velocity": 69}, {"time": 1319, "pitch": 57, "duration": 4, "velocity": 55}, {"time": 1322, "pitch": 38, "duration": 21, "velocity": 69}, {"time": 1325, "pitch": 45, "duration": 21, "velocity": 52}, {"time": 1328, "pitch": 50, "duration": 7, "velocity": 73}, {"time": 1331, "pitch": 57, "duration": 5, "velocity": 69}, {"time": 1334, "pitch": 62, "duration": 8, "velocity": 68}, {"time": 1337, "pitch": 50, "duration": 4, "velocity": 73}, {"time": 1340, "pitch": 57, "duration": 14, "velocity": 68}, {"time": 1343, "pitch": 66, "duration": 13, "velocity": 85}, {"time": 1346, "pitch": 38, "duration": 25, "velocity": 67}, {"time": 1349, "pitch": 45, "duration": 21, "velocity": 85}, {"time": 1352, "pitch": 50, "duration": 7, "velocity": 90}, {"time": 1355, "pitch": 57, "duration": 15, "velocity": 85}, {"time": 1358, "pitch": 66, "duration": 13, "velocity": 122}, {"time": 1361, "pitch": 50, "duration": 3, "velocity": 90}, {"time": 1364, "pitch": 64, "duration": 7, "velocity": 96}, {"time": 1367, "pitch": 62, "duration": 4, "velocity": 82}, {"time": 1371, "pitch": 47, "duration": 22, "velocity": 88}, {"time": 1374, "pitch": 54, "duration": 5, "velocity": 93}, {"time": 1377, "pitch": 59, "duration": 8, "velocity": 71}, {"time": 1380, "pitch": 54, "duration": 3, "velocity": 67}, {"time": 1383, "pitch": 66, "duration": 13, "velocity": 93}, {"time": 1386, "pitch": 54, "duration": 8, "velocity": 68}, {"time": 1389, "pitch": 59, "duration": 9, "velocity": 68}, {"time": 1392, "pitch": 62, "duration": 8, "velocity": 65}, {"time": 1395, "pitch": 47, "duration": 16, "velocity": 70}, {"time": 1398, "pitch": 54, "duration": 9, "velocity": 66}, {"time": 1401, "pitch": 59, "duration": 7, "velocity": 64}, {"time": 1404, "pitch": 62, "duration": 2, "velocity": 75}, {"time": 1407, "pitch": 66, "duration": 10, "velocity": 102}, {"time": 1410, "pitch": 54, "duration": 1, "velocity": 83}, {"time": 1413, "pitch": 62, "duration": 3, "velocity": 96}, {"time": 1416, "pitch": 59, "duration": 3, "velocity": 81}, {"time": 1419, "pitch": 42, "duration": 22, "velocity": 69}, {"time": 1422, "pitch": 49, "duration": 19, "velocity": 40}, {"time": 1425, "pitch": 54, "duration": 6, "velocity": 74}, {"time": 1428, "pitch": 57, "duration": 3, "velocity": 88}, {"time": 1431, "pitch": 61, "duration": 7, "velocity": 73}, {"time": 1434, "pitch": 54, "duration": 10, "velocity": 77}, {"time": 1437, "pitch": 57, "duration": 12, "velocity": 71}, {"time": 1440, "pitch": 66, "duration": 10, "velocity": 81}, {"time": 1443, "pitch": 42, "duration": 17, "velocity": 63}, {"time": 1446, "pitch": 49, "duration": 13, "velocity": 65}, {"time": 1449, "pitch": 54, "duration": 7, "velocity": 73}, {"time": 1452, "pitch": 57, "duration": 6, "velocity": 75}, {"time": 1455, "pitch": 66, "duration": 9, "velocity": 89}, {"time": 1458, "pitch": 54, "duration": 2, "velocity": 81}, {"time": 1461, "pitch": 61, "duration": 5, "velocity": 99}, {"time": 1464, "pitch": 57, "duration": 3, "velocity": 82}, {"time": 1467, "pitch": 43, "duration": 21, "velocity": 65}, {"time": 1470, "pitch": 50, "duration": 20, "velocity": 70}, {"time": 1473, "pitch": 55, "duration": 6, "velocity": 72}, {"time": 1476, "pitch": 59, "duration": 4, "velocity": 68}, {"time": 1479, "pitch": 62, "duration": 7, "velocity": 61}, {"time": 1482, "pitch": 55, "duration": 3, "velocity": 71}, {"time": 1485, "pitch": 59, "duration": 9, "velocity": 66}, {"time": 1488, "pitch": 67, "duration": 10, "velocity": 76}, {"time": 1491, "pitch": 43, "duration": 18, "velocity": 64}, {"time": 1494, "pitch": 50, "duration": 10, "velocity": 55}, {"time": 1497, "pitch": 55, "duration": 4, "velocity": 69}, {"time": 1500, "pitch": 59, "duration": 5, "velocity": 76}, {"time": 1503, "pitch": 67, "duration": 11, "velocity": 82}, {"time": 1506, "pitch": 50, "duration": 2, "velocity": 61}, {"time": 1509, "pitch": 62, "duration": 5, "velocity": 77}, {"time": 1512, "pitch": 59, "duration": 3, "velocity": 83}, {"time": 1515, "pitch": 38, "duration": 21, "velocity": 72}, {"time": 1518, "pitch": 45, "duration": 20, "velocity": 45}, {"time": 1521, "pitch": 50, "duration": 6, "velocity": 74}, {"time": 1524, "pitch": 57, "duration": 4, "velocity": 74}, {"time": 1527, "pitch": 62, "duration": 7, "velocity": 66}, {"time": 1530, "pitch": 50, "duration": 4, "velocity": 71}, {"time": 1533, "pitch": 57, "duration": 13, "velocity": 70}, {"time": 1536, "pitch": 66, "duration": 11, "velocity": 89}, {"time": 1539, "pitch": 38, "duration": 16, "velocity": 67}, {"time": 1542, "pitch": 45, "duration": 13, "velocity": 68}, {"time": 1545, "pitch": 50, "duration": 7, "velocity": 75}, {"time": 1548, "pitch": 57, "duration": 6, "velocity": 82}, {"time": 1551, "pitch": 66, "duration": 11, "velocity": 102}, {"time": 1554, "pitch": 50, "duration": 3, "velocity": 89}, {"time": 1557, "pitch": 62, "duration": 5, "velocity": 89}, {"time": 1560, "pitch": 57, "duration": 3, "velocity": 100}, {"time": 1563, "pitch": 47, "duration": 22, "velocity": 72}, {"time": 1566, "pitch": 54, "duration": 10, "velocity": 68}, {"time": 1569, "pitch": 59, "duration": 5, "velocity": 81}, {"time": 1572, "pitch": 62, "duration": 3, "velocity": 69}, {"time": 1575, "pitch": 66, "duration": 12, "velocity": 112}, {"time": 1578, "pitch": 54, "duration": 9, "velocity": 89}, {"time": 1581, "pitch": 62, "duration": 6, "velocity": 85}, {"time": 1584, "pitch": 59, "duration": 3, "velocity": 85}, {"time": 1587, "pitch": 47, "duration": 16, "velocity": 79}, {"time": 1590, "pitch": 54, "duration": 10, "velocity": 57}, {"time": 1593, "pitch": 59, "duration": 4, "velocity": 82}, {"time": 1596, "pitch": 62, "duration": 3, "velocity": 75}, {"time": 1599, "pitch": 66, "duration": 10, "velocity": 102}, {"time": 1602, "pitch": 54, "duration": 1, "velocity": 85}, {"time": 1605, "pitch": 62, "duration": 3, "velocity": 81}, {"time": 1608, "pitch": 59, "duration": 4, "velocity": 85}, {"time": 1611, "pitch": 42, "duration": 21, "velocity": 68}, {"time": 1614, "pitch": 49, "duration": 17, "velocity": 35}, {"time": 1617, "pitch": 54, "duration": 7, "velocity": 99}, {"time": 1620, "pitch": 57, "duration": 7, "velocity": 89}, {"time": 1623, "pitch": 61, "duration": 6, "velocity": 99}, {"time": 1626, "pitch": 54, "duration": 6, "velocity": 93}, {"time": 1629, "pitch": 66, "duration": 5, "velocity": 99}, {"time": 1632, "pitch": 57, "duration": 2, "velocity": 85}, {"time": 1635, "pitch": 43, "duration": 21, "velocity": 67}, {"time": 1638, "pitch": 50, "duration": 10, "velocity": 77}, {"time": 1641, "pitch": 55, "duration": 3, "velocity": 86}, {"time": 1644, "pitch": 59, "duration": 3, "velocity": 82}, {"time": 1647, "pitch": 62, "duration": 11, "velocity": 100}, {"time": 1650, "pitch": 50, "duration": 8, "velocity": 88}, {"time": 1653, "pitch": 59, "duration": 5, "velocity": 90}, {"time": 1656, "pitch": 55, "duration": 3, "velocity": 86}, {"time": 1659, "pitch": 45, "duration": 21, "velocity": 82}, {"time": 1662, "pitch": 52, "duration": 10, "velocity": 74}, {"time": 1665, "pitch": 57, "duration": 4, "velocity": 83}, {"time": 1668, "pitch": 61, "duration": 2, "velocity": 86}, {"time": 1671, "pitch": 64, "duration": 16, "velocity": 88}, {"time": 1674, "pitch": 52, "duration": 9, "velocity": 65}, {"time": 1677, "pitch": 61, "duration": 10, "velocity": 92}, {"time": 1680, "pitch": 57, "duration": 5, "velocity": 72}, {"time": 1683, "pitch": 45, "duration": 14, "velocity": 72}, {"time": 1686, "pitch": 52, "duration": 9, "velocity": 79}, {"time": 1689, "pitch": 57, "duration": 6, "velocity": 79}, {"time": 1692, "pitch": 61, "duration": 3, "velocity": 69}, {"time": 1695, "pitch": 64, "duration": 12, "velocity": 79}, {"time": 1701, "pitch": 61, "duration": 5, "velocity": 69}, {"time": 1704, "pitch": 57, "duration": 3, "velocity": 55}, {"time": 1707, "pitch": 38, "duration": 21, "velocity": 69}, {"time": 1710, "pitch": 45, "duration": 21, "velocity": 52}, {"time": 1713, "pitch": 50, "duration": 6, "velocity": 73}, {"time": 1716, "pitch": 57, "duration": 4, "velocity": 69}, {"time": 1719, "pitch": 62, "duration": 7, "velocity": 68}, {"time": 1722, "pitch": 50, "duration": 3, "velocity": 73}, {"time": 1725, "pitch": 57, "duration": 13, "velocity": 68}, {"time": 1728, "pitch": 66, "duration": 12, "velocity": 85}, {"time": 1731, "pitch": 38, "duration": 24, "velocity": 67}, {"time": 1734, "pitch": 45, "duration": 20, "velocity": 85}, {"time": 1737, "pitch": 50, "duration": 7, "velocity": 90}, {"time": 1740, "pitch": 57, "duration": 15, "velocity": 85}, {"time": 1743, "pitch": 66, "duration": 12, "velocity": 122}, {"time": 1746, "pitch": 50, "duration": 2, "velocity": 90}, {"time": 1749, "pitch": 64, "duration": 7, "velocity": 96}, {"time": 1752, "pitch": 62, "duration": 4, "velocity": 82}, {"time": 1754, "pitch": 47, "duration": 22, "velocity": 69}, {"time": 1760, "pitch": 54, "duration": 8, "velocity": 67}, {"time": 1766, "pitch": 66, "duration": 22, "velocity": 112}, {"time": 1769, "pitch": 54, "duration": 9, "velocity": 72}, {"time": 1772, "pitch": 62, "duration": 17, "velocity": 63}, {"time": 1775, "pitch": 59, "duration": 2, "velocity": 50}, {"time": 1778, "pitch": 47, "duration": 13, "velocity": 82}, {"time": 1784, "pitch": 54, "duration": 7, "velocity": 56}, {"time": 1790, "pitch": 66, "duration": 13, "velocity": 102}, {"time": 1796, "pitch": 59, "duration": 7, "velocity": 74}, {"time": 1802, "pitch": 42, "duration": 18, "velocity": 85}, {"time": 1808, "pitch": 49, "duration": 11, "velocity": 72}, {"time": 1814, "pitch": 66, "duration": 12, "velocity": 107}, {"time": 1817, "pitch": 54, "duration": 3, "velocity": 54}, {"time": 1820, "pitch": 61, "duration": 6, "velocity": 72}, {"time": 1823, "pitch": 57, "duration": 3, "velocity": 83}, {"time": 1826, "pitch": 43, "duration": 22, "velocity": 72}, {"time": 1829, "pitch": 50, "duration": 11, "velocity": 69}, {"time": 1832, "pitch": 55, "duration": 6, "velocity": 90}, {"time": 1835, "pitch": 62, "duration": 15, "velocity": 89}, {"time": 1838, "pitch": 59, "duration": 8, "velocity": 77}, {"time": 1841, "pitch": 50, "duration": 7, "velocity": 65}, {"time": 1844, "pitch": 55, "duration": 5, "velocity": 62}, {"time": 1847, "pitch": 59, "duration": 3, "velocity": 45}, {"time": 1850, "pitch": 45, "duration": 23, "velocity": 93}, {"time": 1856, "pitch": 52, "duration": 18, "velocity": 65}, {"time": 1862, "pitch": 64, "duration": 22, "velocity": 97}, {"time": 1868, "pitch": 61, "duration": 17, "velocity": 51}, {"time": 1874, "pitch": 45, "duration": 17, "velocity": 76}, {"time": 1880, "pitch": 52, "duration": 9, "velocity": 56}, {"time": 1886, "pitch": 64, "duration": 13, "velocity": 93}, {"time": 1892, "pitch": 57, "duration": 7, "velocity": 81}, {"time": 1898, "pitch": 38, "duration": 44, "velocity": 76}, {"time": 1904, "pitch": 45, "duration": 32, "velocity": 50}, {"time": 1910, "pitch": 54, "duration": 12, "velocity": 74}, {"time": 1916, "pitch": 50, "duration": 8, "velocity": 71}, {"time": 1922, "pitch": 57, "duration": 13, "velocity": 85}, {"time": 1928, "pitch": 50, "duration": 6, "velocity": 59}, {"time": 1934, "pitch": 54, "duration": 8, "velocity": 92}, {"time": 1940, "pitch": 45, "duration": 7, "velocity": 68}, {"time": 1946, "pitch": 38, "duration": 15, "velocity": 72}, {"time": 1946, "pitch": 50, "duration": 15, "velocity": 69}, {"time": 1946, "pitch": 54, "duration": 15, "velocity": 63}, {"time": 1946, "pitch": 57, "duration": 15, "velocity": 69}, {"time": 1994, "pitch": 40, "duration": 41, "velocity": 78}, {"time": 2000, "pitch": 47, "duration": 35, "velocity": 46}, {"time": 2006, "pitch": 55, "duration": 14, "velocity": 73}, {"time": 2012, "pitch": 52, "duration": 9, "velocity": 64}, {"time": 2018, "pitch": 59, "duration": 13, "velocity": 78}, {"time": 2024, "pitch": 52, "duration": 8, "velocity": 69}, {"time": 2030, "pitch": 64, "duration": 14, "velocity": 79}, {"time": 2036, "pitch": 55, "duration": 7, "velocity": 71}, {"time": 2042, "pitch": 45, "duration": 39, "velocity": 74}, {"time": 2048, "pitch": 52, "duration": 9, "velocity": 59}, {"time": 2054, "pitch": 57, "duration": 25, "velocity": 77}, {"time": 2060, "pitch": 52, "duration": 8, "velocity": 41}, {"time": 2066, "pitch": 64, "duration": 27, "velocity": 66}, {"time": 2072, "pitch": 52, "duration": 7, "velocity": 50}, {"time": 2078, "pitch": 61, "duration": 14, "velocity": 88}, {"time": 2084, "pitch": 57, "duration": 8, "velocity": 68}, {"time": 2090, "pitch": 38, "duration": 46, "velocity": 76}, {"time": 2096, "pitch": 45, "duration": 42, "velocity": 44}, {"time": 2102, "pitch": 54, "duration": 17, "velocity": 70}, {"time": 2108, "pitch": 50, "duration": 8, "velocity": 48}, {"time": 2114, "pitch": 57, "duration": 14, "velocity": 85}, {"time": 2120, "pitch": 50, "duration": 11, "velocity": 54}, {"time": 2126, "pitch": 62, "duration": 9, "velocity": 75}, {"time": 2132, "pitch": 54, "duration": 11, "velocity": 66}, {"time": 2138, "pitch": 38, "duration": 41, "velocity": 74}, {"time": 2144, "pitch": 45, "duration": 36, "velocity": 59}, {"time": 2150, "pitch": 54, "duration": 37, "velocity": 70}, {"time": 2156, "pitch": 49, "duration": 10, "velocity": 64}, {"time": 2162, "pitch": 61, "duration": 25, "velocity": 82}, {"time": 2168, "pitch": 49, "duration": 8, "velocity": 59}, {"time": 2174, "pitch": 50, "duration": 12, "velocity": 66}, {"time": 2186, "pitch": 40, "duration": 39, "velocity": 70}, {"time": 2192, "pitch": 47, "duration": 33, "velocity": 46}, {"time": 2198, "pitch": 55, "duration": 26, "velocity": 76}, {"time": 2204, "pitch": 52, "duration": 9, "velocity": 60}, {"time": 2210, "pitch": 64, "duration": 26, "velocity": 79}, {"time": 2216, "pitch": 52, "duration": 12, "velocity": 68}, {"time": 2222, "pitch": 59, "duration": 13, "velocity": 92}, {"time": 2228, "pitch": 55, "duration": 7, "velocity": 66}, {"time": 2234, "pitch": 45, "duration": 38, "velocity": 72}, {"time": 2240, "pitch": 52, "duration": 8, "velocity": 49}, {"time": 2246, "pitch": 57, "duration": 24, "velocity": 82}, {"time": 2252, "pitch": 52, "duration": 9, "velocity": 55}, {"time": 2258, "pitch": 64, "duration": 24, "velocity": 81}, {"time": 2264, "pitch": 52, "duration": 7, "velocity": 42}, {"time": 2270, "pitch": 61, "duration": 12, "velocity": 99}, {"time": 2276, "pitch": 57, "duration": 9, "velocity": 70}, {"time": 2282, "pitch": 38, "duration": 46, "velocity": 77}, {"time": 2288, "pitch": 45, "duration": 41, "velocity": 39}, {"time": 2294, "pitch": 62, "duration": 12, "velocity": 70}, {"time": 2300, "pitch": 50, "duration": 9, "velocity": 55}, {"time": 2306, "pitch": 66, "duration": 16, "velocity": 97}, {"time": 2312, "pitch": 50, "duration": 7, "velocity": 70}, {"time": 2318, "pitch": 64, "duration": 10, "velocity": 86}, {"time": 2324, "pitch": 50, "duration": 5, "velocity": 69}, {"time": 2330, "pitch": 38, "duration": 11, "velocity": 59}, {"time": 2330, "pitch": 50, "duration": 7, "velocity": 62}, {"time": 2330, "pitch": 57, "duration": 8, "velocity": 64}, {"time": 2330, "pitch": 62, "duration": 9, "velocity": 71}, {"time": 2330, "pitch": 66, "duration": 11, "velocity": 66}, {"time": 2378, "pitch": 40, "duration": 41, "velocity": 78}, {"time": 2384, "pitch": 47, "duration": 35, "velocity": 46}, {"time": 2390, "pitch": 55, "duration": 14, "velocity": 73}, {"time": 2396, "pitch": 52, "duration": 9, "velocity": 64}, {"time": 2402, "pitch": 59, "duration": 13, "velocity": 78}, {"time": 2408, "pitch": 52, "duration": 8, "velocity": 69}, {"time": 2414, "pitch": 64, "duration": 14, "velocity": 79}, {"time": 2420, "pitch": 55, "duration": 7, "velocity": 71}, {"time": 2426, "pitch": 45, "duration": 39, "velocity": 74}, {"time": 2432, "pitch": 52, "duration": 9, "velocity": 59}, {"time": 2438, "pitch": 57, "duration": 25, "velocity": 77}, {"time": 2444, "pitch": 52, "duration": 8, "velocity": 41}, {"time": 2450, "pitch": 64, "duration": 27, "velocity": 66}, {"time": 2456, "pitch": 52, "duration": 7, "velocity": 50}, {"time": 2462, "pitch": 61, "duration": 14, "velocity": 88}, {"time": 2468, "pitch": 57, "duration": 8, "velocity": 68}, {"time": 2474, "pitch": 38, "duration": 46, "velocity": 76}, {"time": 2480, "pitch": 45, "duration": 42, "velocity": 44}, {"time": 2486, "pitch": 54, "duration": 17, "velocity": 70}, {"time": 2492, "pitch": 50, "duration": 8, "velocity": 48}, {"time": 2498, "pitch": 57, "duration": 14, "velocity": 85}, {"time": 2504, "pitch": 50, "duration": 11, "velocity": 54}, {"time": 2510, "pitch": 62, "duration": 9, "velocity": 75}, {"time": 2516, "pitch": 54, "duration": 11, "velocity": 66}, {"time": 2522, "pitch": 38, "duration": 41, "velocity": 74}, {"time": 2528, "pitch": 45, "duration": 36, "velocity": 59}, {"time": 2534, "pitch": 54, "duration": 37, "velocity": 70}, {"time": 2540, "pitch": 49, "duration": 10, "velocity": 64}, {"time": 2546, "pitch": 61, "duration": 25, "velocity": 82}, {"time": 2552, "pitch": 49, "duration": 8, "velocity": 59}, {"time": 2558, "pitch": 50, "duration": 12, "velocity": 66}, {"time": 2570, "pitch": 40, "duration": 39, "velocity": 70}, {"time": 2576, "pitch": 47, "duration": 33, "velocity": 46}, {"time": 2582, "pitch": 55, "duration": 26, "velocity": 76}, {"time": 2588, "pitch": 52, "duration": 9, "velocity": 60}, {"time": 2594, "pitch": 64, "duration": 26, "velocity": 79}, {"time": 2600, "pitch": 52, "duration": 12, "velocity": 68}, {"time": 2606, "pitch": 59, "duration": 13, "velocity": 92}, {"time": 2612, "pitch": 55, "duration": 7, "velocity": 66}, {"time": 2618, "pitch": 45, "duration": 38, "velocity": 72}, {"time": 2624, "pitch": 52, "duration": 8, "velocity": 49}, {"time": 2630, "pitch": 57, "duration": 24, "velocity": 82}, {"time": 2636, "pitch": 52, "duration": 9, "velocity": 55}, {"time": 2642, "pitch": 64, "duration": 24, "velocity": 81}, {"time": 2648, "pitch": 52, "duration": 7, "velocity": 42}, {"time": 2654, "pitch": 61, "duration": 12, "velocity": 99}, {"time": 2660, "pitch": 57, "duration": 9, "velocity": 70}, {"time": 2666, "pitch": 38, "duration": 46, "velocity": 77}, {"time": 2672, "pitch": 45, "duration": 41, "velocity": 39}, {"time": 2678, "pitch": 62, "duration": 12, "velocity": 70}, {"time": 2684, "pitch": 50, "duration": 9, "velocity": 55}, {"time": 2690, "pitch": 66, "duration": 16, "velocity": 97}, {"time": 2696, "pitch": 50, "duration": 7, "velocity": 70}, {"time": 2702, "pitch": 64, "duration": 10, "velocity": 86}, {"time": 2708, "pitch": 50, "duration": 5, "velocity": 69}, {"time": 2714, "pitch": 47, "duration": 22, "velocity": 88}, {"time": 2717, "pitch": 54, "duration": 5, "velocity": 93}, {"time": 2720, "pitch": 59, "duration": 9, "velocity": 71}, {"time": 2723, "pitch": 54, "duration": 4, "velocity": 67}, {"time": 2726, "pitch": 66, "duration": 14, "velocity": 93}, {"time": 2729, "pitch": 54, "duration": 8, "velocity": 68}, {"time": 2732, "pitch": 59, "duration": 10, "velocity": 68}, {"time": 2735, "pitch": 62, "duration": 8, "velocity": 65}, {"time": 2738, "pitch": 47, "duration": 17, "velocity": 70}, {"time": 2741, "pitch": 54, "duration": 10, "velocity": 66}, {"time": 2744, "pitch": 59, "duration": 8, "velocity": 64}, {"time": 2747, "pitch": 62, "duration": 3, "velocity": 75}, {"time": 2750, "pitch": 66, "duration": 11, "velocity": 102}, {"time": 2753, "pitch": 54, "duration": 2, "velocity": 83}, {"time": 2756, "pitch": 62, "duration": 4, "velocity": 96}, {"time": 2759, "pitch": 59, "duration": 4, "velocity": 81}, {"time": 2762, "pitch": 42, "duration": 22, "velocity": 69}, {"time": 2765, "pitch": 49, "duration": 20, "velocity": 40}, {"time": 2768, "pitch": 54, "duration": 7, "velocity": 74}, {"time": 2771, "pitch": 57, "duration": 4, "velocity": 88}, {"time": 2774, "pitch": 61, "duration": 8, "velocity": 73}, {"time": 2777, "pitch": 54, "duration": 10, "velocity": 77}, {"time": 2780, "pitch": 57, "duration": 13, "velocity": 71}, {"time": 2783, "pitch": 66, "duration": 11, "velocity": 81}, {"time": 2786, "pitch": 42, "duration": 18, "velocity": 63}, {"time": 2789, "pitch": 49, "duration": 14, "velocity": 65}, {"time": 2792, "pitch": 54, "duration": 7, "velocity": 73}, {"time": 2795, "pitch": 57, "duration": 6, "velocity": 75}, {"time": 2798, "pitch": 66, "duration": 10, "velocity": 89}, {"time": 2801, "pitch": 54, "duration": 3, "velocity": 81}, {"time": 2804, "pitch": 61, "duration": 5, "velocity": 99}, {"time": 2807, "pitch": 57, "duration": 3, "velocity": 82}, {"time": 2810, "pitch": 43, "duration": 22, "velocity": 65}, {"time": 2813, "pitch": 50, "duration": 21, "velocity": 70}, {"time": 2816, "pitch": 55, "duration": 7, "velocity": 72}, {"time": 2819, "pitch": 59, "duration": 5, "velocity": 68}, {"time": 2822, "pitch": 62, "duration": 8, "velocity": 61}, {"time": 2825, "pitch": 55, "duration": 3, "velocity": 71}, {"time": 2828, "pitch": 59, "duration": 10, "velocity": 66}, {"time": 2831, "pitch": 67, "duration": 10, "velocity": 76}, {"time": 2834, "pitch": 43, "duration": 19, "velocity": 64}, {"time": 2837, "pitch": 50, "duration": 11, "velocity": 55}, {"time": 2840, "pitch": 55, "duration": 5, "velocity": 69}, {"time": 2843, "pitch": 59, "duration": 6, "velocity": 76}, {"time": 2846, "pitch": 67, "duration": 12, "velocity": 82}, {"time": 2849, "pitch": 50, "duration": 3, "velocity": 61}, {"time": 2852, "pitch": 62, "duration": 5, "velocity": 77}, {"time": 2855, "pitch": 59, "duration": 3, "velocity": 83}, {"time": 2858, "pitch": 38, "duration": 22, "velocity": 72}, {"time": 2861, "pitch": 45, "duration": 21, "velocity": 45}, {"time": 2864, "pitch": 50, "duration": 7, "velocity": 74}, {"time": 2867, "pitch": 57, "duration": 5, "velocity": 74}, {"time": 2870, "pitch": 62, "duration": 7, "velocity": 66}, {"time": 2873, "pitch": 50, "duration": 5, "velocity": 71}, {"time": 2876, "pitch": 57, "duration": 14, "velocity": 70}, {"time": 2879, "pitch": 66, "duration": 12, "velocity": 89}, {"time": 2882, "pitch": 38, "duration": 17, "velocity": 67}, {"time": 2885, "pitch": 45, "duration": 14, "velocity": 68}, {"time": 2888, "pitch": 50, "duration": 7, "velocity": 75}, {"time": 2891, "pitch": 57, "duration": 6, "velocity": 82}, {"time": 2894, "pitch": 66, "duration": 12, "velocity": 102}, {"time": 2897, "pitch": 50, "duration": 4, "velocity": 89}, {"time": 2900, "pitch": 62, "duration": 6, "velocity": 89}, {"time": 2903, "pitch": 57, "duration": 4, "velocity": 100}, {"time": 2906, "pitch": 47, "duration": 23, "velocity": 72}, {"time": 2909, "pitch": 54, "duration": 10, "velocity": 68}, {"time": 2912, "pitch": 59, "duration": 5, "velocity": 81}, {"time": 2915, "pitch": 62, "duration": 3, "velocity": 69}, {"time": 2918, "pitch": 66, "duration": 13, "velocity": 112}, {"time": 2921, "pitch": 54, "duration": 10, "velocity": 89}, {"time": 2924, "pitch": 62, "duration": 7, "velocity": 85}, {"time": 2927, "pitch": 59, "duration": 4, "velocity": 85}, {"time": 2930, "pitch": 47, "duration": 17, "velocity": 79}, {"time": 2933, "pitch": 54, "duration": 10, "velocity": 57}, {"time": 2936, "pitch": 59, "duration": 5, "velocity": 82}, {"time": 2939, "pitch": 62, "duration": 3, "velocity": 75}, {"time": 2942, "pitch": 66, "duration": 11, "velocity": 102}, {"time": 2945, "pitch": 54, "duration": 2, "velocity": 85}, {"time": 2948, "pitch": 62, "duration": 4, "velocity": 81}, {"time": 2951, "pitch": 59, "duration": 4, "velocity": 85}, {"time": 2954, "pitch": 42, "duration": 22, "velocity": 68}, {"time": 2957, "pitch": 49, "duration": 17, "velocity": 35}, {"time": 2960, "pitch": 54, "duration": 8, "velocity": 99}, {"time": 2963, "pitch": 57, "duration": 8, "velocity": 89}, {"time": 2966, "pitch": 61, "duration": 6, "velocity": 99}, {"time": 2969, "pitch": 54, "duration": 7, "velocity": 93}, {"time": 2972, "pitch": 66, "duration": 5, "velocity": 99}, {"time": 2975, "pitch": 57, "duration": 3, "velocity": 85}, {"time": 2978, "pitch": 43, "duration": 22, "velocity": 67}, {"time": 2981, "pitch": 50, "duration": 11, "velocity": 77}, {"time": 2984, "pitch": 55, "duration": 4, "velocity": 86}, {"time": 2987, "pitch": 59, "duration": 4, "velocity": 82}, {"time": 2990, "pitch": 62, "duration": 12, "velocity": 100}, {"time": 2993, "pitch": 50, "duration": 8, "velocity": 88}, {"time": 2996, "pitch": 59, "duration": 5, "velocity": 90}, {"time": 2999, "pitch": 55, "duration": 3, "velocity": 86}, {"time": 3002, "pitch": 45, "duration": 22, "velocity": 82}, {"time": 3005, "pitch": 52, "duration": 10, "velocity": 74}, {"time": 3008, "pitch": 57, "duration": 5, "velocity": 83}, {"time": 3011, "pitch": 61, "duration": 3, "velocity": 86}, {"time": 3014, "pitch": 64, "duration": 16, "velocity": 88}, {"time": 3017, "pitch": 52, "duration": 9, "velocity": 65}, {"time": 3020, "pitch": 61, "duration": 11, "velocity": 92}, {"time": 3023, "pitch": 57, "duration": 6, "velocity": 72}, {"time": 3026, "pitch": 45, "duration": 14, "velocity": 72}, {"time": 3029, "pitch": 52, "duration": 9, "velocity": 79}, {"time": 3032, "pitch": 57, "duration": 7, "velocity": 79}, {"time": 3035, "pitch": 61, "duration": 4, "velocity": 69}, {"time": 3038, "pitch": 64, "duration": 13, "velocity": 79}, {"time": 3044, "pitch": 61, "duration": 6, "velocity": 69}, {"time": 3047, "pitch": 57, "duration": 4, "velocity": 55}, {"time": 3050, "pitch": 38, "duration": 21, "velocity": 69}, {"time": 3053, "pitch": 45, "duration": 21, "velocity": 52}, {"time": 3056, "pitch": 50, "duration": 7, "velocity": 73}, {"time": 3059, "pitch": 57, "duration": 5, "velocity": 69}, {"time": 3062, "pitch": 62, "duration": 8, "velocity": 68}, {"time": 3065, "pitch": 50, "duration": 4, "velocity": 73}, {"time": 3068, "pitch": 57, "duration": 14, "velocity": 68}, {"time": 3071, "pitch": 66, "duration": 13, "velocity": 85}, {"time": 3074, "pitch": 38, "duration": 25, "velocity": 67}, {"time": 3077, "pitch": 45, "duration": 21, "velocity": 85}, {"time": 3080, "pitch": 50, "duration": 7, "velocity": 90}, {"time": 3083, "pitch": 57, "duration": 15, "velocity": 85}, {"time": 3086, "pitch": 66, "duration": 13, "velocity": 122}, {"time": 3089, "pitch": 50, "duration": 3, "velocity": 90}, {"time": 3092, "pitch": 64, "duration": 7, "velocity": 96}, {"time": 3095, "pitch": 62, "duration": 4, "velocity": 82}, {"time": 3099, "pitch": 47, "duration": 22, "velocity": 88}, {"time": 3102, "pitch": 54, "duration": 5, "velocity": 93}, {"time": 3105, "pitch": 59, "duration": 8, "velocity": 71}, {"time": 3108, "pitch": 54, "duration": 3, "velocity": 67}, {"time": 3111, "pitch": 66, "duration": 13, "velocity": 93}, {"time": 3114, "pitch": 54, "duration": 8, "velocity": 68}, {"time": 3117, "pitch": 59, "duration": 9, "velocity": 68}, {"time": 3120, "pitch": 62, "duration": 8, "velocity": 65}, {"time": 3123, "pitch": 47, "duration": 16, "velocity": 70}, {"time": 3126, "pitch": 54, "duration": 9, "velocity": 66}, {"time": 3129, "pitch": 59, "duration": 7, "velocity": 64}, {"time": 3132, "pitch": 62, "duration": 2, "velocity": 75}, {"time": 3135, "pitch": 66, "duration": 10, "velocity": 102}, {"time": 3138, "pitch": 54, "duration": 1, "velocity": 83}, {"time": 3141, "pitch": 62, "duration": 3, "velocity": 96}, {"time": 3144, "pitch": 59, "duration": 3, "velocity": 81}, {"time": 3147, "pitch": 42, "duration": 22, "velocity": 69}, {"time": 3150, "pitch": 49, "duration": 19, "velocity": 40}, {"time": 3153, "pitch": 54, "duration": 6, "velocity": 74}, {"time": 3156, "pitch": 57, "duration": 3, "velocity": 88}, {"time": 3159, "pitch": 61, "duration": 7, "velocity": 73}, {"time": 3162, "pitch": 54, "duration": 10, "velocity": 77}, {"time": 3165, "pitch": 57, "duration": 12, "velocity": 71}, {"time": 3168, "pitch": 66, "duration": 10, "velocity": 81}, {"time": 3171, "pitch": 42, "duration": 17, "velocity": 63}, {"time": 3174, "pitch": 49, "duration": 13, "velocity": 65}, {"time": 3177, "pitch": 54, "duration": 7, "velocity": 73}, {"time": 3180, "pitch": 57, "duration": 6, "velocity": 75}, {"time": 3183, "pitch": 66, "duration": 9, "velocity": 89}, {"time": 3186, "pitch": 54, "duration": 2, "velocity": 81}, {"time": 3189, "pitch": 61, "duration": 5, "velocity": 99}, {"time": 3192, "pitch": 57, "duration": 3, "velocity": 82}, {"time": 3195, "pitch": 43, "duration": 21, "velocity": 65}, {"time": 3198, "pitch": 50, "duration": 20, "velocity": 70}, {"time": 3201, "pitch": 55, "duration": 6, "velocity": 72}, {"time": 3204, "pitch": 59, "duration": 4, "velocity": 68}, {"time": 3207, "pitch": 62, "duration": 7, "velocity": 61}, {"time": 3210, "pitch": 55, "duration": 3, "velocity": 71}, {"time": 3213, "pitch": 59, "duration": 9, "velocity": 66}, {"time": 3216, "pitch": 67, "duration": 10, "velocity": 76}, {"time": 3219, "pitch": 43, "duration": 18, "velocity": 64}, {"time": 3222, "pitch": 50, "duration": 10, "velocity": 55}, {"time": 3225, "pitch": 55, "duration": 4, "velocity": 69}, {"time": 3228, "pitch": 59, "duration": 5, "velocity": 76}, {"time": 3231, "pitch": 67, "duration": 11, "velocity": 82}, {"time": 3234, "pitch": 50, "duration": 2, "velocity": 61}, {"time": 3237, "pitch": 62, "duration": 5, "velocity": 77}, {"time": 3240, "pitch": 59, "duration": 3, "velocity": 83}, {"time": 3243, "pitch": 38, "duration": 21, "velocity": 72}, {"time": 3246, "pitch": 45, "duration": 20, "velocity": 45}, {"time": 3249, "pitch": 50, "duration": 6, "velocity": 74}, {"time": 3252, "pitch": 57, "duration": 4, "velocity": 74}, {"time": 3255, "pitch": 62, "duration": 7, "velocity": 66}, {"time": 3258, "pitch": 50, "duration": 4, "velocity": 71}, {"time": 3261, "pitch": 57, "duration": 13, "velocity": 70}, {"time": 3264, "pitch": 66, "duration": 11, "velocity": 89}, {"time": 3267, "pitch": 38, "duration": 16, "velocity": 67}, {"time": 3270, "pitch": 45, "duration": 13, "velocity": 68}, {"time": 3273, "pitch": 50, "duration": 7, "velocity": 75}, {"time": 3276, "pitch": 57, "duration": 6, "velocity": 82}, {"time": 3279, "pitch": 66, "duration": 11, "velocity": 102}, {"time": 3282, "pitch": 50, "duration": 3, "velocity": 89}, {"time": 3285, "pitch": 62, "duration": 5, "velocity": 89}, {"time": 3288, "pitch": 57, "duration": 3, "velocity": 100}, {"time": 3291, "pitch": 47, "duration": 22, "velocity": 72}, {"time": 3294, "pitch": 54, "duration": 10, "velocity": 68}, {"time": 3297, "pitch": 59, "duration": 5, "velocity": 81}, {"time": 3300, "pitch": 62, "duration": 3, "velocity": 69}, {"time": 3303, "pitch": 66, "duration": 12, "velocity": 112}, {"time": 3306, "pitch": 54, "duration": 9, "velocity": 89}, {"time": 3309, "pitch": 62, "duration": 6, "velocity": 85}, {"time": 3312, "pitch": 59, "duration": 3, "velocity": 85}, {"time": 3315, "pitch": 47, "duration": 16, "velocity": 79}, {"time": 3318, "pitch": 54, "duration": 10, "velocity": 57}, {"time": 3321, "pitch": 59, "duration": 4, "velocity": 82}, {"time": 3324, "pitch": 62, "duration": 3, "velocity": 75}, {"time": 3327, "pitch": 66, "duration": 10, "velocity": 102}, {"time": 3330, "pitch": 54, "duration": 1, "velocity": 85}, {"time": 3333, "pitch": 62, "duration": 3, "velocity": 81}, {"time": 3336, "pitch": 59, "duration": 4, "velocity": 85}, {"time": 3339, "pitch": 42, "duration": 21, "velocity": 68}, {"time": 3342, "pitch": 49, "duration": 17, "velocity": 35}, {"time": 3345, "pitch": 54, "duration": 7, "velocity": 99}, {"time": 3348, "pitch": 57, "duration": 7, "velocity": 89}, {"time": 3351, "pitch": 61, "duration": 6, "velocity": 99}, {"time": 3354, "pitch": 54, "duration": 6, "velocity": 93}, {"time": 3357, "pitch": 66, "duration": 5, "velocity": 99}, {"time": 3360, "pitch": 57, "duration": 2, "velocity": 85}, {"time": 3363, "pitch": 43, "duration": 21, "velocity": 67}, {"time": 3366, "pitch": 50, "duration": 10, "velocity": 77}, {"time": 3369, "pitch": 55, "duration": 3, "velocity": 86}, {"time": 3372, "pitch": 59, "duration": 3, "velocity": 82}, {"time": 3375, "pitch": 62, "duration": 11, "velocity": 100}, {"time": 3378, "pitch": 50, "duration": 8, "velocity": 88}, {"time": 3381, "pitch": 59, "duration": 5, "velocity": 90}, {"time": 3384, "pitch": 55, "duration": 3, "velocity": 86}, {"time": 3387, "pitch": 45, "duration": 21, "velocity": 82}, {"time": 3390, "pitch": 52, "duration": 10, "velocity": 74}, {"time": 3393, "pitch": 57, "duration": 4, "velocity": 83}, {"time": 3396, "pitch": 61, "duration": 2, "velocity": 86}, {"time": 3399, "pitch": 64, "duration": 16, "velocity": 88}, {"time": 3402, "pitch": 52, "duration": 9, "velocity": 65}, {"time": 3405, "pitch": 61, "duration": 10, "velocity": 92}, {"time": 3408, "pitch": 57, "duration": 5, "velocity": 72}, {"time": 3411, "pitch": 45, "duration": 14, "velocity": 72}, {"time": 3414, "pitch": 52, "duration": 9, "velocity": 79}, {"time": 3417, "pitch": 57, "duration": 6, "velocity": 79}, {"time": 3420, "pitch": 61, "duration": 3, "velocity": 69}, {"time": 3423, "pitch": 64, "duration": 12, "velocity": 79}, {"time": 3429, "pitch": 61, "duration": 5, "velocity": 69}, {"time": 3432, "pitch": 57, "duration": 3, "velocity": 55}, {"time": 3435, "pitch": 38, "duration": 21, "velocity": 69}, {"time": 3438, "pitch": 45, "duration": 21, "velocity": 52}, {"time": 3441, "pitch": 50, "duration": 6, "velocity": 73}, {"time": 3444, "pitch": 57, "duration": 4, "velocity": 69}, {"time": 3447, "pitch": 62, "duration": 7, "velocity": 68}, {"time": 3450, "pitch": 50, "duration": 3, "velocity": 73}, {"time": 3453, "pitch": 57, "duration": 13, "velocity": 68}, {"time": 3456, "pitch": 66, "duration": 12, "velocity": 85}, {"time": 3459, "pitch": 38, "duration": 24, "velocity": 67}, {"time": 3462, "pitch": 45, "duration": 20, "velocity": 85}, {"time": 3465, "pitch": 50, "duration": 7, "velocity": 90}, {"time": 3468, "pitch": 57, "duration": 15, "velocity": 85}, {"time": 3471, "pitch": 66, "duration": 12, "velocity": 122}, {"time": 3474, "pitch": 50, "duration": 2, "velocity": 90}, {"time": 3477, "pitch": 64, "duration": 7, "velocity": 96}, {"time": 3480, "pitch": 62, "duration": 4, "velocity": 82}, {"time": 3482, "pitch": 47, "duration": 22, "velocity": 81}, {"time": 3485, "pitch": 54, "duration": 10, "velocity": 82}, {"time": 3488, "pitch": 59, "duration": 8, "velocity": 68}, {"time": 3491, "pitch": 62, "duration": 3, "velocity": 72}, {"time": 3494, "pitch": 66, "duration": 13, "velocity": 102}, {"time": 3497, "pitch": 54, "duration": 8, "velocity": 73}, {"time": 3500, "pitch": 62, "duration": 7, "velocity": 77}, {"time": 3503, "pitch": 59, "duration": 4, "velocity": 88}, {"time": 3506, "pitch": 47, "duration": 18, "velocity": 63}, {"time": 3509, "pitch": 54, "duration": 11, "velocity": 92}, {"time": 3512, "pitch": 59, "duration": 7, "velocity": 64}, {"time": 3515, "pitch": 62, "duration": 4, "velocity": 71}, {"time": 3518, "pitch": 66, "duration": 11, "velocity": 102}, {"time": 3521, "pitch": 54, "duration": 2, "velocity": 68}, {"time": 3524, "pitch": 62, "duration": 5, "velocity": 78}, {"time": 3527, "pitch": 59, "duration": 4, "velocity": 74}, {"time": 3530, "pitch": 42, "duration": 18, "velocity": 70}, {"time": 3533, "pitch": 49, "duration": 13, "velocity": 48}, {"time": 3536, "pitch": 54, "duration": 7, "velocity": 67}, {"time": 3539, "pitch": 57, "duration": 6, "velocity": 68}, {"time": 3542, "pitch": 66, "duration": 10, "velocity": 95}, {"time": 3545, "pitch": 54, "duration": 3, "velocity": 78}, {"time": 3548, "pitch": 61, "duration": 5, "velocity": 90}, {"time": 3551, "pitch": 43, "duration": 25, "velocity": 63}, {"time": 3551, "pitch": 57, "duration": 3, "velocity": 77}, {"time": 3557, "pitch": 50, "duration": 21, "velocity": 62}, {"time": 3560, "pitch": 55, "duration": 7, "velocity": 82}, {"time": 3563, "pitch": 59, "duration": 4, "velocity": 82}, {"time": 3566, "pitch": 62, "duration": 7, "velocity": 95}, {"time": 3569, "pitch": 55, "duration": 3, "velocity": 75}, {"time": 3572, "pitch": 59, "duration": 6, "velocity": 89}, {"time": 3575, "pitch": 62, "duration": 4, "velocity": 65}, {"time": 3578, "pitch": 61, "duration": 7, "velocity": 86}, {"time": 3578, "pitch": 57, "duration": 7, "velocity": 83}, {"time": 3578, "pitch": 45, "duration": 8, "velocity": 69}, {"time": 3578, "pitch": 52, "duration": 7, "velocity": 69}, {"time": 3578, "pitch": 64, "duration": 7, "velocity": 83}, {"time": 3671, "pitch": 57, "duration": 16, "velocity": 51}, {"time": 3673, "pitch": 54, "duration": 11, "velocity": 52}, {"time": 3674, "pitch": 50, "duration": 9, "velocity": 52}, {"time": 3675, "pitch": 38, "duration": 93, "velocity": 82}, {"time": 3683, "pitch": 45, "duration": 84, "velocity": 52}, {"time": 3686, "pitch": 50, "duration": 81, "velocity": 56}, {"time": 3689, "pitch": 54, "duration": 4, "velocity": 66}, {"time": 3693, "pitch": 57, "duration": 1, "velocity": 62}, {"time": 3696, "pitch": 62, "duration": 8, "velocity": 66}, {"time": 3700, "pitch": 66, "duration": 4, "velocity": 62}, {"time": 3704, "pitch": 69, "duration": 1, "velocity": 63}, {"time": 3708, "pitch": 74, "duration": 9, "velocity": 69}, {"time": 3712, "pitch": 78, "duration": 5, "velocity": 59}, {"time": 3716, "pitch": 81, "duration": 2, "velocity": 72}, {"time": 3722, "pitch": 86, "duration": 45, "velocity": 73}, {"time": 3727, "pitch": 81, "duration": 6, "velocity": 33}, {"time": 3729, "pitch": 90, "duration": 38, "velocity": 95}, {"time": 3738, "pitch": 81, "duration": 30, "velocity": 41}], "annotations": [{"time": 27, "annotation": {"number": 64, "value": 127}, "group": "control_change"}, {"time": 47, "annotation": {"number": 64, "value": 0}, "group": "control_change"}, {"time": 50, "annotation": {"number": 64, "value": 127}, "group": "control_change"}, {"time": 71, "annotation": {"number": 64, "value": 0}, "group": "control_change"}, {"time": 71, "annotation": {"number": 64, "value": 127}, "group": "control_change"}, {"time": 73, "annotation": {"number": 64, "value": 127}, "group": "control_change"}, {"time": 96, "annotation": {"number": 64, "value": 0}, "group": "control_change"}, {"time": 98, "annotation": {"number": 64, "value": 127}, "group": "control_change"}, {"time": 119, "annotation": {"number": 64, "value": 0}, "group": "control_change"}, {"time": 122, "annotation": {"number": 64, "value": 127}, "group": "control_change"}, {"time": 168, "annotation": {"number": 64, "value": 0}, "group": "control_change"}, {"time": 170, "annotation": {"number": 64, "value": 127}, "group": "control_change"}, {"time": 217, "annotation": {"number": 64, "value": 0}, "group": "control_change"}, {"time": 266, "annotation": {"number": 64, "value": 127}, "group": "control_change"}, {"time": 311, "annotation": {"number": 64, "value": 0}, "group": "control_change"}, {"time": 314, "annotation": {"number": 64, "value": 127}, "group": "control_change"}, {"time": 360, "annotation": {"number": 64, "value": 0}, "group": "control_change"}, {"time": 362, "annotation": {"number": 64, "value": 127}, "group": "control_change"}, {"time": 408, "annotation": {"number": 64, "value": 0}, "group": "control_change"}, {"time": 410, "annotation": {"number": 64, "value": 127}, "group": "control_change"}, {"time": 456, "annotation": {"number": 64, "value": 0}, "group": "control_change"}, {"time": 458, "annotation": {"number": 64, "value": 127}, "group": "control_change"}, {"time": 503, "annotation": {"number": 64, "value": 0}, "group": "control_change"}, {"time": 506, "annotation": {"number": 64, "value": 127}, "group": "control_change"}, {"time": 552, "annotation": {"number": 64, "value": 0}, "group": "control_change"}, {"time": 554, "annotation": {"number": 64, "value": 127}, "group": "control_change"}, {"time": 599, "annotation": {"number": 64, "value": 0}, "group": "control_change"}, {"time": 695, "annotation": {"number": 64, "value": 0}, "group": "control_change"}, {"time": 698, "annotation": {"number": 64, "value": 127}, "group": "control_change"}, {"time": 744, "annotation": {"number": 64, "value": 0}, "group": "control_change"}, {"time": 746, "annotation": {"number": 64, "value": 127}, "group": "control_change"}, {"time": 792, "annotation": {"number": 64, "value": 0}, "group": "control_change"}, {"time": 794, "annotation": {"number": 64, "value": 127}, "group": "control_change"}, {"time": 840, "annotation": {"number": 64, "value": 0}, "group": "control_change"}, {"time": 842, "annotation": {"number": 64, "value": 127}, "group": "control_change"}, {"time": 887, "annotation": {"number": 64, "value": 0}, "group": "control_change"}, {"time": 890, "annotation": {"number": 64, "value": 127}, "group": "control_change"}, {"time": 936, "annotation": {"number": 64, "value": 0}, "group": "control_change"}, {"time": 938, "annotation": {"number": 64, "value": 127}, "group": "control_change"}, {"time": 983, "annotation": {"number": 64, "value": 0}, "group": "control_change"}, {"time": 986, "annotation": {"number": 64, "value": 127}, "group": "control_change"}, {"time": 1031, "annotation": {"number": 64, "value": 0}, "group": "control_change"}, {"time": 1033, "annotation": {"number": 64, "value": 127}, "group": "control_change"}, {"time": 1055, "annotation": {"number": 64, "value": 0}, "group": "control_change"}, {"time": 1057, "annotation": {"number": 64, "value": 127}, "group": "control_change"}, {"time": 1079, "annotation": {"number": 64, "value": 0}, "group": "control_change"}, {"time": 1081, "annotation": {"number": 64, "value": 127}, "group": "control_change"}, {"time": 1103, "annotation": {"number": 64, "value": 0}, "group": "control_change"}, {"time": 1105, "annotation": {"number": 64, "value": 127}, "group": "control_change"}, {"time": 1127, "annotation": {"number": 64, "value": 0}, "group": "control_change"}, {"time": 1129, "annotation": {"number": 64, "value": 127}, "group": "control_change"}, {"time": 1152, "annotation": {"number": 64, "value": 0}, "group": "control_change"}, {"time": 1154, "annotation": {"number": 64, "value": 127}, "group": "control_change"}, {"time": 1164, "annotation": {"number": 64, "value": 0}, "group": "control_change"}, {"time": 1165, "annotation": {"number": 64, "value": 127}, "group": "control_change"}, {"time": 1175, "annotation": {"number": 64, "value": 0}, "group": "control_change"}, {"time": 1177, "annotation": {"number": 64, "value": 127}, "group": "control_change"}, {"time": 1199, "annotation": {"number": 64, "value": 0}, "group": "control_change"}, {"time": 1201, "annotation": {"number": 64, "value": 127}, "group": "control_change"}, {"time": 1201, "annotation": {"number": 64, "value": 0}, "group": "control_change"}, {"time": 1223, "annotation": {"number": 64, "value": 0}, "group": "control_change"}, {"time": 1225, "annotation": {"number": 64, "value": 127}, "group": "control_change"}, {"time": 1231, "annotation": {"number": 64, "value": 0}, "group": "control_change"}, {"time": 1233, "annotation": {"number": 64, "value": 127}, "group": "control_change"}, {"time": 1247, "annotation": {"number": 64, "value": 0}, "group": "control_change"}, {"time": 1249, "annotation": {"number": 64, "value": 127}, "group": "control_change"}, {"time": 1250, "annotation": {"number": 64, "value": 0}, "group": "control_change"}, {"time": 1253, "annotation": {"number": 64, "value": 127}, "group": "control_change"}, {"time": 1270, "annotation": {"number": 64, "value": 0}, "group": "control_change"}, {"time": 1273, "annotation": {"number": 64, "value": 127}, "group": "control_change"}, {"time": 1295, "annotation": {"number": 64, "value": 0}, "group": "control_change"}, {"time": 1297, "annotation": {"number": 64, "value": 127}, "group": "control_change"}, {"time": 1319, "annotation": {"number": 64, "value": 0}, "group": "control_change"}, {"time": 1322, "annotation": {"number": 64, "value": 127}, "group": "control_change"}, {"time": 1343, "annotation": {"number": 64, "value": 0}, "group": "control_change"}, {"time": 1345, "annotation": {"number": 64, "value": 127}, "group": "control_change"}, {"time": 1366, "annotation": {"number": 64, "value": 0}, "group": "control_change"}, {"time": 1370, "annotation": {"number": 64, "value": 127}, "group": "control_change"}, {"time": 1415, "annotation": {"number": 64, "value": 0}, "group": "control_change"}, {"time": 1418, "annotation": {"number": 64, "value": 127}, "group": "control_change"}, {"time": 1440, "annotation": {"number": 64, "value": 0}, "group": "control_change"}, {"time": 1442, "annotation": {"number": 64, "value": 127}, "group": "control_change"}, {"time": 1463, "annotation": {"number": 64, "value": 0}, "group": "control_change"}, {"time": 1466, "annotation": {"number": 64, "value": 127}, "group": "control_change"}, {"time": 1487, "annotation": {"number": 64, "value": 0}, "group": "control_change"}, {"time": 1489, "annotation": {"number": 64, "value": 127}, "group": "control_change"}, {"time": 1511, "annotation": {"number": 64, "value": 0}, "group": "control_change"}, {"time": 1513, "annotation": {"number": 64, "value": 127}, "group": "control_change"}, {"time": 1536, "annotation": {"number": 64, "value": 0}, "group": "control_change"}, {"time": 1538, "annotation": {"number": 64, "value": 127}, "group": "control_change"}, {"time": 1548, "annotation": {"number": 64, "value": 0}, "group": "control_change"}, {"time": 1549, "annotation": {"number": 64, "value": 127}, "group": "control_change"}, {"time": 1559, "annotation": {"number": 64, "value": 0}, "group": "control_change"}, {"time": 1561, "annotation": {"number": 64, "value": 127}, "group": "control_change"}, {"time": 1583, "annotation": {"number": 64, "value": 0}, "group": "control_change"}, {"time": 1585, "annotation": {"number": 64, "value": 127}, "group": "control_change"}, {"time": 1586, "annotation": {"number": 64, "value": 0}, "group": "control_change"}, {"time": 1586, "annotation": {"number": 64, "value": 127}, "group": "control_change"}, {"time": 1607, "annotation": {"number": 64, "value": 0}, "group": "control_change"}, {"time": 1609, "annotation": {"number": 64, "value": 127}, "group": "control_change"}, {"time": 1616, "annotation": {"number": 64, "value": 0}, "group": "control_change"}, {"time": 1617, "annotation": {"number": 64, "value": 127}, "group": "control_change"}, {"time": 1631, "annotation": {"number": 64, "value": 0}, "group": "control_change"}, {"time": 1634, "annotation": {"number": 64, "value": 127}, "group": "control_change"}, {"time": 1634, "annotation": {"number": 64, "value": 0}, "group": "control_change"}, {"time": 1637, "annotation": {"number": 64, "value": 127}, "group": "control_change"}, {"time": 1655, "annotation": {"number": 64, "value": 0}, "group": "control_change"}, {"time": 1657, "annotation": {"number": 64, "value": 127}, "group": "control_change"}, {"time": 1679, "annotation": {"number": 64, "value": 0}, "group": "control_change"}, {"time": 1682, "annotation": {"number": 64, "value": 127}, "group": "control_change"}, {"time": 1704, "annotation": {"number": 64, "value": 0}, "group": "control_change"}, {"time": 1706, "annotation": {"number": 64, "value": 127}, "group": "control_change"}, {"time": 1727, "annotation": {"number": 64, "value": 0}, "group": "control_change"}, {"time": 1730, "annotation": {"number": 64, "value": 127}, "group": "control_change"}, {"time": 1750, "annotation": {"number": 64, "value": 0}, "group": "control_change"}, {"time": 1755, "annotation": {"number": 64, "value": 127}, "group": "control_change"}, {"time": 1775, "annotation": {"number": 64, "value": 0}, "group": "control_change"}, {"time": 1778, "annotation": {"number": 64, "value": 127}, "group": "control_change"}, {"time": 1799, "annotation": {"number": 64, "value": 0}, "group": "control_change"}, {"time": 1799, "annotation": {"number": 64, "value": 127}, "group": "control_change"}, {"time": 1801, "annotation": {"number": 64, "value": 127}, "group": "control_change"}, {"time": 1824, "annotation": {"number": 64, "value": 0}, "group": "control_change"}, {"time": 1826, "annotation": {"number": 64, "value": 127}, "group": "control_change"}, {"time": 1847, "annotation": {"number": 64, "value": 0}, "group": "control_change"}, {"time": 1850, "annotation": {"number": 64, "value": 127}, "group": "control_change"}, {"time": 1896, "annotation": {"number": 64, "value": 0}, "group": "control_change"}, {"time": 1898, "annotation": {"number": 64, "value": 127}, "group": "control_change"}, {"time": 1945, "annotation": {"number": 64, "value": 0}, "group": "control_change"}, {"time": 1994, "annotation": {"number": 64, "value": 127}, "group": "control_change"}, {"time": 2039, "annotation": {"number": 64, "value": 0}, "group": "control_change"}, {"time": 2042, "annotation": {"number": 64, "value": 127}, "group": "control_change"}, {"time": 2088, "annotation": {"number": 64, "value": 0}, "group": "control_change"}, {"time": 2090, "annotation": {"number": 64, "value": 127}, "group": "control_change"}, {"time": 2136, "annotation": {"number": 64, "value": 0}, "group": "control_change"}, {"time": 2138, "annotation": {"number": 64, "value": 127}, "group": "control_change"}, {"time": 2184, "annotation": {"number": 64, "value": 0}, "group": "control_change"}, {"time": 2186, "annotation": {"number": 64, "value": 127}, "group": "control_change"}, {"time": 2231, "annotation": {"number": 64, "value": 0}, "group": "control_change"}, {"time": 2234, "annotation": {"number": 64, "value": 127}, "group": "control_change"}, {"time": 2280, "annotation": {"number": 64, "value": 0}, "group": "control_change"}, {"time": 2282, "annotation": {"number": 64, "value": 127}, "group": "control_change"}, {"time": 2327, "annotation": {"number": 64, "value": 0}, "group": "control_change"}, {"time": 2423, "annotation": {"number": 64, "value": 0}, "group": "control_change"}, {"time": 2426, "annotation": {"number": 64, "value": 127}, "group": "control_change"}, {"time": 2472, "annotation": {"number": 64, "value": 0}, "group": "control_change"}, {"time": 2474, "annotation": {"number": 64, "value": 127}, "group": "control_change"}, {"time": 2520, "annotation": {"number": 64, "value": 0}, "group": "control_change"}, {"time": 2522, "annotation": {"number": 64, "value": 127}, "group": "control_change"}, {"time": 2568, "annotation": {"number": 64, "value": 0}, "group": "control_change"}, {"time": 2570, "annotation": {"number": 64, "value": 127}, "group": "control_change"}, {"time": 2615, "annotation": {"number": 64, "value": 0}, "group": "control_change"}, {"time": 2618, "annotation": {"number": 64, "value": 127}, "group": "control_change"}, {"time": 2664, "annotation": {"number": 64, "value": 0}, "group": "control_change"}, {"time": 2666, "annotation": {"number": 64, "value": 127}, "group": "control_change"}, {"time": 2711, "annotation": {"number": 64, "value": 0}, "group": "control_change"}, {"time": 2714, "annotation": {"number": 64, "value": 127}, "group": "control_change"}, {"time": 2759, "annotation": {"number": 64, "value": 0}, "group": "control_change"}, {"time": 2761, "annotation": {"number": 64, "value": 127}, "group": "control_change"}, {"time": 2783, "annotation": {"number": 64, "value": 0}, "group": "control_change"}, {"time": 2785, "annotation": {"number": 64, "value": 127}, "group": "control_change"}, {"time": 2807, "annotation": {"number": 64, "value": 0}, "group": "control_change"}, {"time": 2809, "annotation": {"number": 64, "value": 127}, "group": "control_change"}, {"time": 2831, "annotation": {"number": 64, "value": 0}, "group": "control_change"}, {"time": 2833, "annotation": {"number": 64, "value": 127}, "group": "control_change"}, {"time": 2855, "annotation": {"number": 64, "value": 0}, "group": "control_change"}, {"time": 2857, "annotation": {"number": 64, "value": 127}, "group": "control_change"}, {"time": 2880, "annotation": {"number": 64, "value": 0}, "group": "control_change"}, {"time": 2882, "annotation": {"number": 64, "value": 127}, "group": "control_change"}, {"time": 2892, "annotation": {"number": 64, "value": 0}, "group": "control_change"}, {"time": 2893, "annotation": {"number": 64, "value": 127}, "group": "control_change"}, {"time": 2903, "annotation": {"number": 64, "value": 0}, "group": "control_change"}, {"time": 2905, "annotation": {"number": 64, "value": 127}, "group": "control_change"}, {"time": 2927, "annotation": {"number": 64, "value": 0}, "group": "control_change"}, {"time": 2929, "annotation": {"number": 64, "value": 127}, "group": "control_change"}, {"time": 2929, "annotation": {"number": 64, "value": 0}, "group": "control_change"}, {"time": 2951, "annotation": {"number": 64, "value": 0}, "group": "control_change"}, {"time": 2953, "annotation": {"number": 64, "value": 127}, "group": "control_change"}, {"time": 2959, "annotation": {"number": 64, "value": 0}, "group": "control_change"}, {"time": 2961, "annotation": {"number": 64, "value": 127}, "group": "control_change"}, {"time": 2975, "annotation": {"number": 64, "value": 0}, "group": "control_change"}, {"time": 2977, "annotation": {"number": 64, "value": 127}, "group": "control_change"}, {"time": 2978, "annotation": {"number": 64, "value": 0}, "group": "control_change"}, {"time": 2981, "annotation": {"number": 64, "value": 127}, "group": "control_change"}, {"time": 2998, "annotation": {"number": 64, "value": 0}, "group": "control_change"}, {"time": 3001, "annotation": {"number": 64, "value": 127}, "group": "control_change"}, {"time": 3023, "annotation": {"number": 64, "value": 0}, "group": "control_change"}, {"time": 3025, "annotation": {"number": 64, "value": 127}, "group": "control_change"}, {"time": 3047, "annotation": {"number": 64, "value": 0}, "group": "control_change"}, {"time": 3050, "annotation": {"number": 64, "value": 127}, "group": "control_change"}, {"time": 3071, "annotation": {"number": 64, "value": 0}, "group": "control_change"}, {"time": 3073, "annotation": {"number": 64, "value": 127}, "group": "control_change"}, {"time": 3094, "annotation": {"number": 64, "value": 0}, "group": "control_change"}, {"time": 3098, "annotation": {"number": 64, "value": 127}, "group": "control_change"}, {"time": 3143, "annotation": {"number": 64, "value": 0}, "group": "control_change"}, {"time": 3146, "annotation": {"number": 64, "value": 127}, "group": "control_change"}, {"time": 3168, "annotation": {"number": 64, "value": 0}, "group": "control_change"}, {"time": 3170, "annotation": {"number": 64, "value": 127}, "group": "control_change"}, {"time": 3191, "annotation": {"number": 64, "value": 0}, "group": "control_change"}, {"time": 3194, "annotation": {"number": 64, "value": 127}, "group": "control_change"}, {"time": 3215, "annotation": {"number": 64, "value": 0}, "group": "control_change"}, {"time": 3217, "annotation": {"number": 64, "value": 127}, "group": "control_change"}, {"time": 3239, "annotation": {"number": 64, "value": 0}, "group": "control_change"}, {"time": 3241, "annotation": {"number": 64, "value": 127}, "group": "control_change"}, {"time": 3264, "annotation": {"number": 64, "value": 0}, "group": "control_change"}, {"time": 3266, "annotation": {"number": 64, "value": 127}, "group": "control_change"}, {"time": 3276, "annotation": {"number": 64, "value": 0}, "group": "control_change"}, {"time": 3277, "annotation": {"number": 64, "value": 127}, "group": "control_change"}, {"time": 3287, "annotation": {"number": 64, "value": 0}, "group": "control_change"}, {"time": 3289, "annotation": {"number": 64, "value": 127}, "group": "control_change"}, {"time": 3311, "annotation": {"number": 64, "value": 0}, "group": "control_change"}, {"time": 3313, "annotation": {"number": 64, "value": 127}, "group": "control_change"}, {"time": 3314, "annotation": {"number": 64, "value": 0}, "group": "control_change"}, {"time": 3314, "annotation": {"number": 64, "value": 127}, "group": "control_change"}, {"time": 3335, "annotation": {"number": 64, "value": 0}, "group": "control_change"}, {"time": 3337, "annotation": {"number": 64, "value": 127}, "group": "control_change"}, {"time": 3344, "annotation": {"number": 64, "value": 0}, "group": "control_change"}, {"time": 3345, "annotation": {"number": 64, "value": 127}, "group": "control_change"}, {"time": 3359, "annotation": {"number": 64, "value": 0}, "group": "control_change"}, {"time": 3362, "annotation": {"number": 64, "value": 127}, "group": "control_change"}, {"time": 3362, "annotation": {"number": 64, "value": 0}, "group": "control_change"}, {"time": 3365, "annotation": {"number": 64, "value": 127}, "group": "control_change"}, {"time": 3383, "annotation": {"number": 64, "value": 0}, "group": "control_change"}, {"time": 3385, "annotation": {"number": 64, "value": 127}, "group": "control_change"}, {"time": 3407, "annotation": {"number": 64, "value": 0}, "group": "control_change"}, {"time": 3410, "annotation": {"number": 64, "value": 127}, "group": "control_change"}, {"time": 3432, "annotation": {"number": 64, "value": 0}, "group": "control_change"}, {"time": 3434, "annotation": {"number": 64, "value": 127}, "group": "control_change"}, {"time": 3455, "annotation": {"number": 64, "value": 0}, "group": "control_change"}, {"time": 3458, "annotation": {"number": 64, "value": 127}, "group": "control_change"}, {"time": 3478, "annotation": {"number": 64, "value": 0}, "group": "control_change"}, {"time": 3482, "annotation": {"number": 64, "value": 127}, "group": "control_change"}, {"time": 3502, "annotation": {"number": 64, "value": 0}, "group": "control_change"}, {"time": 3505, "annotation": {"number": 64, "value": 127}, "group": "control_change"}, {"time": 3527, "annotation": {"number": 64, "value": 0}, "group": "control_change"}, {"time": 3529, "annotation": {"number": 64, "value": 127}, "group": "control_change"}, {"time": 3531, "annotation": {"number": 64, "value": 0}, "group": "control_change"}, {"time": 3532, "annotation": {"number": 64, "value": 127}, "group": "control_change"}, {"time": 3550, "annotation": {"number": 64, "value": 0}, "group": "control_change"}, {"time": 3552, "annotation": {"number": 64, "value": 127}, "group": "control_change"}, {"time": 3573, "annotation": {"number": 64, "value": 0}, "group": "control_change"}, {"time": 3581, "annotation": {"number": 64, "value": 127}, "group": "control_change"}, {"time": 3583, "annotation": {"number": 64, "value": 0}, "group": "control_change"}, {"time": 3675, "annotation": {"number": 64, "value": 127}, "group": "control_change"}, {"time": 3783, "annotation": {"number": 64, "value": 0}, "group": "control_change"}]}]}