{"metadata": {"schema_version": "0.2", "title": "None", "source_filename": "730.mid", "source_format": "midi"}, "resolution": 12, "tempos": [{"time": 0, "qpm": 90.44998869375141}, {"time": 1061, "qpm": 90.99995298335763}, {"time": 1397, "qpm": 90.5000580708706}, {"time": 1805, "qpm": 90.99995298335763}, {"time": 2165, "qpm": 90.5000580708706}, {"time": 2309, "qpm": 90.79999334133382}, {"time": 2453, "qpm": 90.99995298335763}], "time_signatures": [{"time": 0, "numerator": 1, "denominator": 4}], "tracks": [{"program": 0, "is_drum": false, "name": "MELODY", "notes": [{"time": 197, "pitch": 60, "duration": 14, "velocity": 97}, {"time": 215, "pitch": 57, "duration": 5, "velocity": 100}, {"time": 221, "pitch": 60, "duration": 7, "velocity": 112}, {"time": 227, "pitch": 62, "duration": 5, "velocity": 95}, {"time": 233, "pitch": 65, "duration": 5, "velocity": 99}, {"time": 239, "pitch": 67, "duration": 4, "velocity": 93}, {"time": 245, "pitch": 69, "duration": 12, "velocity": 102}, {"time": 293, "pitch": 72, "duration": 7, "velocity": 117}, {"time": 305, "pitch": 72, "duration": 5, "velocity": 112}, {"time": 311, "pitch": 74, "duration": 4, "velocity": 89}, {"time": 317, "pitch": 69, "duration": 6, "velocity": 95}, {"time": 323, "pitch": 67, "duration": 4, "velocity": 89}, {"time": 329, "pitch": 65, "duration": 4, "velocity": 89}, {"time": 335, "pitch": 65, "duration": 2, "velocity": 89}, {"time": 338, "pitch": 69, "duration": 3, "velocity": 83}, {"time": 341, "pitch": 67, "duration": 20, "velocity": 92}, {"time": 389, "pitch": 67, "duration": 17, "velocity": 99}, {"time": 407, "pitch": 69, "duration": 5, "velocity": 95}, {"time": 413, "pitch": 72, "duration": 9, "velocity": 102}, {"time": 425, "pitch": 69, "duration": 11, "velocity": 122}, {"time": 437, "pitch": 67, "duration": 6, "velocity": 117}, {"time": 443, "pitch": 65, "duration": 5, "velocity": 102}, {"time": 449, "pitch": 62, "duration": 5, "velocity": 93}, {"time": 455, "pitch": 60, "duration": 6, "velocity": 93}, {"time": 461, "pitch": 62, "duration": 18, "velocity": 99}, {"time": 485, "pitch": 65, "duration": 7, "velocity": 97}, {"time": 497, "pitch": 62, "duration": 6, "velocity": 95}, {"time": 503, "pitch": 60, "duration": 4, "velocity": 89}, {"time": 509, "pitch": 57, "duration": 6, "velocity": 95}, {"time": 515, "pitch": 60, "duration": 6, "velocity": 89}, {"time": 521, "pitch": 62, "duration": 5, "velocity": 96}, {"time": 527, "pitch": 65, "duration": 5, "velocity": 88}, {"time": 533, "pitch": 60, "duration": 23, "velocity": 90}, {"time": 581, "pitch": 60, "duration": 9, "velocity": 100}, {"time": 593, "pitch": 57, "duration": 5, "velocity": 89}, {"time": 599, "pitch": 60, "duration": 5, "velocity": 89}, {"time": 605, "pitch": 62, "duration": 10, "velocity": 93}, {"time": 617, "pitch": 65, "duration": 3, "velocity": 107}, {"time": 629, "pitch": 67, "duration": 6, "velocity": 107}, {"time": 635, "pitch": 69, "duration": 5, "velocity": 85}, {"time": 641, "pitch": 65, "duration": 5, "velocity": 89}, {"time": 647, "pitch": 67, "duration": 5, "velocity": 95}, {"time": 653, "pitch": 69, "duration": 14, "velocity": 122}, {"time": 677, "pitch": 67, "duration": 6, "velocity": 97}, {"time": 683, "pitch": 69, "duration": 6, "velocity": 97}, {"time": 689, "pitch": 74, "duration": 8, "velocity": 90}, {"time": 701, "pitch": 72, "duration": 6, "velocity": 117}, {"time": 707, "pitch": 69, "duration": 4, "velocity": 107}, {"time": 713, "pitch": 67, "duration": 5, "velocity": 95}, {"time": 719, "pitch": 65, "duration": 5, "velocity": 96}, {"time": 725, "pitch": 67, "duration": 7, "velocity": 107}, {"time": 773, "pitch": 65, "duration": 6, "velocity": 97}, {"time": 779, "pitch": 67, "duration": 9, "velocity": 99}, {"time": 791, "pitch": 69, "duration": 5, "velocity": 107}, {"time": 797, "pitch": 72, "duration": 7, "velocity": 122}, {"time": 809, "pitch": 72, "duration": 5, "velocity": 112}, {"time": 815, "pitch": 69, "duration": 5, "velocity": 97}, {"time": 821, "pitch": 67, "duration": 6, "velocity": 97}, {"time": 827, "pitch": 65, "duration": 5, "velocity": 102}, {"time": 833, "pitch": 62, "duration": 5, "velocity": 99}, {"time": 839, "pitch": 60, "duration": 6, "velocity": 100}, {"time": 845, "pitch": 62, "duration": 11, "velocity": 97}, {"time": 869, "pitch": 65, "duration": 6, "velocity": 99}, {"time": 875, "pitch": 67, "duration": 5, "velocity": 96}, {"time": 881, "pitch": 69, "duration": 5, "velocity": 102}, {"time": 887, "pitch": 72, "duration": 6, "velocity": 97}, {"time": 893, "pitch": 67, "duration": 6, "velocity": 102}, {"time": 899, "pitch": 60, "duration": 4, "velocity": 99}, {"time": 905, "pitch": 72, "duration": 6, "velocity": 117}, {"time": 911, "pitch": 67, "duration": 5, "velocity": 96}, {"time": 917, "pitch": 65, "duration": 26, "velocity": 93}, {"time": 1061, "pitch": 60, "duration": 14, "velocity": 97}, {"time": 1079, "pitch": 57, "duration": 5, "velocity": 100}, {"time": 1085, "pitch": 60, "duration": 7, "velocity": 112}, {"time": 1091, "pitch": 62, "duration": 5, "velocity": 95}, {"time": 1097, "pitch": 65, "duration": 5, "velocity": 99}, {"time": 1103, "pitch": 67, "duration": 4, "velocity": 93}, {"time": 1109, "pitch": 69, "duration": 12, "velocity": 102}, {"time": 1157, "pitch": 72, "duration": 7, "velocity": 117}, {"time": 1169, "pitch": 72, "duration": 5, "velocity": 112}, {"time": 1175, "pitch": 74, "duration": 4, "velocity": 89}, {"time": 1181, "pitch": 69, "duration": 6, "velocity": 95}, {"time": 1187, "pitch": 67, "duration": 4, "velocity": 89}, {"time": 1193, "pitch": 65, "duration": 4, "velocity": 89}, {"time": 1199, "pitch": 65, "duration": 2, "velocity": 89}, {"time": 1202, "pitch": 69, "duration": 3, "velocity": 83}, {"time": 1205, "pitch": 67, "duration": 20, "velocity": 92}, {"time": 1253, "pitch": 67, "duration": 17, "velocity": 99}, {"time": 1271, "pitch": 69, "duration": 5, "velocity": 95}, {"time": 1277, "pitch": 72, "duration": 9, "velocity": 102}, {"time": 1289, "pitch": 69, "duration": 11, "velocity": 122}, {"time": 1301, "pitch": 67, "duration": 6, "velocity": 117}, {"time": 1307, "pitch": 65, "duration": 5, "velocity": 102}, {"time": 1313, "pitch": 62, "duration": 5, "velocity": 93}, {"time": 1319, "pitch": 60, "duration": 6, "velocity": 93}, {"time": 1325, "pitch": 62, "duration": 18, "velocity": 99}, {"time": 1349, "pitch": 65, "duration": 7, "velocity": 97}, {"time": 1361, "pitch": 62, "duration": 6, "velocity": 95}, {"time": 1367, "pitch": 60, "duration": 4, "velocity": 89}, {"time": 1373, "pitch": 57, "duration": 6, "velocity": 95}, {"time": 1379, "pitch": 60, "duration": 6, "velocity": 89}, {"time": 1385, "pitch": 62, "duration": 5, "velocity": 96}, {"time": 1391, "pitch": 65, "duration": 5, "velocity": 88}, {"time": 1397, "pitch": 60, "duration": 23, "velocity": 90}, {"time": 1445, "pitch": 60, "duration": 9, "velocity": 100}, {"time": 1457, "pitch": 57, "duration": 5, "velocity": 89}, {"time": 1463, "pitch": 60, "duration": 5, "velocity": 89}, {"time": 1469, "pitch": 62, "duration": 10, "velocity": 93}, {"time": 1481, "pitch": 65, "duration": 3, "velocity": 107}, {"time": 1493, "pitch": 67, "duration": 6, "velocity": 107}, {"time": 1499, "pitch": 69, "duration": 5, "velocity": 85}, {"time": 1505, "pitch": 65, "duration": 5, "velocity": 89}, {"time": 1511, "pitch": 67, "duration": 5, "velocity": 95}, {"time": 1517, "pitch": 69, "duration": 14, "velocity": 122}, {"time": 1541, "pitch": 67, "duration": 6, "velocity": 97}, {"time": 1547, "pitch": 69, "duration": 6, "velocity": 97}, {"time": 1553, "pitch": 74, "duration": 8, "velocity": 90}, {"time": 1565, "pitch": 72, "duration": 6, "velocity": 117}, {"time": 1571, "pitch": 69, "duration": 4, "velocity": 107}, {"time": 1577, "pitch": 67, "duration": 5, "velocity": 95}, {"time": 1583, "pitch": 65, "duration": 5, "velocity": 96}, {"time": 1589, "pitch": 67, "duration": 7, "velocity": 107}, {"time": 1637, "pitch": 65, "duration": 6, "velocity": 97}, {"time": 1643, "pitch": 67, "duration": 9, "velocity": 99}, {"time": 1655, "pitch": 69, "duration": 5, "velocity": 107}, {"time": 1661, "pitch": 72, "duration": 7, "velocity": 122}, {"time": 1673, "pitch": 72, "duration": 5, "velocity": 112}, {"time": 1679, "pitch": 69, "duration": 5, "velocity": 97}, {"time": 1685, "pitch": 67, "duration": 6, "velocity": 97}, {"time": 1691, "pitch": 65, "duration": 5, "velocity": 102}, {"time": 1697, "pitch": 62, "duration": 5, "velocity": 99}, {"time": 1703, "pitch": 60, "duration": 6, "velocity": 100}, {"time": 1709, "pitch": 62, "duration": 11, "velocity": 97}, {"time": 1733, "pitch": 65, "duration": 6, "velocity": 99}, {"time": 1739, "pitch": 67, "duration": 5, "velocity": 96}, {"time": 1745, "pitch": 69, "duration": 5, "velocity": 102}, {"time": 1751, "pitch": 72, "duration": 6, "velocity": 97}, {"time": 1757, "pitch": 67, "duration": 6, "velocity": 102}, {"time": 1763, "pitch": 60, "duration": 4, "velocity": 99}, {"time": 1769, "pitch": 72, "duration": 6, "velocity": 117}, {"time": 1775, "pitch": 67, "duration": 5, "velocity": 96}, {"time": 1781, "pitch": 65, "duration": 26, "velocity": 93}, {"time": 2021, "pitch": 60, "duration": 14, "velocity": 97}, {"time": 2039, "pitch": 57, "duration": 5, "velocity": 100}, {"time": 2045, "pitch": 60, "duration": 7, "velocity": 112}, {"time": 2051, "pitch": 62, "duration": 5, "velocity": 95}, {"time": 2057, "pitch": 65, "duration": 5, "velocity": 99}, {"time": 2063, "pitch": 67, "duration": 4, "velocity": 93}, {"time": 2069, "pitch": 69, "duration": 12, "velocity": 102}, {"time": 2117, "pitch": 72, "duration": 7, "velocity": 117}, {"time": 2129, "pitch": 72, "duration": 5, "velocity": 112}, {"time": 2135, "pitch": 74, "duration": 4, "velocity": 89}, {"time": 2141, "pitch": 69, "duration": 6, "velocity": 95}, {"time": 2147, "pitch": 67, "duration": 4, "velocity": 89}, {"time": 2153, "pitch": 65, "duration": 4, "velocity": 89}, {"time": 2159, "pitch": 65, "duration": 2, "velocity": 89}, {"time": 2162, "pitch": 69, "duration": 3, "velocity": 83}, {"time": 2165, "pitch": 67, "duration": 20, "velocity": 92}, {"time": 2213, "pitch": 67, "duration": 17, "velocity": 99}, {"time": 2231, "pitch": 69, "duration": 5, "velocity": 95}, {"time": 2237, "pitch": 72, "duration": 9, "velocity": 102}, {"time": 2249, "pitch": 69, "duration": 11, "velocity": 122}, {"time": 2261, "pitch": 67, "duration": 6, "velocity": 117}, {"time": 2267, "pitch": 65, "duration": 5, "velocity": 102}, {"time": 2273, "pitch": 62, "duration": 5, "velocity": 93}, {"time": 2279, "pitch": 60, "duration": 6, "velocity": 93}, {"time": 2285, "pitch": 62, "duration": 18, "velocity": 99}, {"time": 2309, "pitch": 65, "duration": 7, "velocity": 97}, {"time": 2321, "pitch": 62, "duration": 6, "velocity": 95}, {"time": 2327, "pitch": 60, "duration": 4, "velocity": 89}, {"time": 2333, "pitch": 57, "duration": 6, "velocity": 95}, {"time": 2339, "pitch": 60, "duration": 6, "velocity": 89}, {"time": 2345, "pitch": 62, "duration": 5, "velocity": 96}, {"time": 2351, "pitch": 65, "duration": 5, "velocity": 88}, {"time": 2357, "pitch": 60, "duration": 23, "velocity": 90}, {"time": 2405, "pitch": 60, "duration": 9, "velocity": 100}, {"time": 2417, "pitch": 57, "duration": 5, "velocity": 89}, {"time": 2423, "pitch": 60, "duration": 5, "velocity": 89}, {"time": 2429, "pitch": 62, "duration": 10, "velocity": 93}, {"time": 2441, "pitch": 65, "duration": 3, "velocity": 107}, {"time": 2453, "pitch": 67, "duration": 6, "velocity": 107}, {"time": 2459, "pitch": 69, "duration": 5, "velocity": 85}, {"time": 2465, "pitch": 65, "duration": 5, "velocity": 89}, {"time": 2471, "pitch": 67, "duration": 5, "velocity": 95}, {"time": 2477, "pitch": 69, "duration": 14, "velocity": 122}, {"time": 2501, "pitch": 67, "duration": 6, "velocity": 97}, {"time": 2507, "pitch": 69, "duration": 6, "velocity": 97}, {"time": 2513, "pitch": 74, "duration": 8, "velocity": 90}, {"time": 2525, "pitch": 72, "duration": 6, "velocity": 117}, {"time": 2531, "pitch": 69, "duration": 4, "velocity": 107}, {"time": 2537, "pitch": 67, "duration": 5, "velocity": 95}, {"time": 2543, "pitch": 65, "duration": 5, "velocity": 96}, {"time": 2549, "pitch": 67, "duration": 7, "velocity": 107}, {"time": 2597, "pitch": 65, "duration": 6, "velocity": 97}, {"time": 2603, "pitch": 67, "duration": 9, "velocity": 99}, {"time": 2615, "pitch": 69, "duration": 5, "velocity": 107}, {"time": 2621, "pitch": 72, "duration": 7, "velocity": 122}, {"time": 2633, "pitch": 72, "duration": 5, "velocity": 112}, {"time": 2639, "pitch": 69, "duration": 5, "velocity": 97}, {"time": 2645, "pitch": 67, "duration": 6, "velocity": 97}, {"time": 2651, "pitch": 65, "duration": 5, "velocity": 102}, {"time": 2657, "pitch": 62, "duration": 5, "velocity": 99}, {"time": 2663, "pitch": 60, "duration": 6, "velocity": 100}, {"time": 2669, "pitch": 62, "duration": 11, "velocity": 97}, {"time": 2693, "pitch": 65, "duration": 6, "velocity": 99}, {"time": 2699, "pitch": 67, "duration": 5, "velocity": 96}, {"time": 2705, "pitch": 69, "duration": 5, "velocity": 102}, {"time": 2711, "pitch": 72, "duration": 6, "velocity": 97}, {"time": 2717, "pitch": 67, "duration": 6, "velocity": 102}, {"time": 2723, "pitch": 60, "duration": 4, "velocity": 99}, {"time": 2729, "pitch": 72, "duration": 6, "velocity": 117}, {"time": 2735, "pitch": 67, "duration": 5, "velocity": 96}, {"time": 2741, "pitch": 65, "duration": 26, "velocity": 93}], "annotations": [{"time": 0, "annotation": {"number": 7, "value": 101}, "group": "control_change"}, {"time": 2742, "annotation": {"number": 7, "value": 101}, "group": "control_change"}, {"time": 2744, "annotation": {"number": 7, "value": 100}, "group": "control_change"}, {"time": 2745, "annotation": {"number": 7, "value": 99}, "group": "control_change"}, {"time": 2747, "annotation": {"number": 7, "value": 97}, "group": "control_change"}, {"time": 2748, "annotation": {"number": 7, "value": 96}, "group": "control_change"}, {"time": 2750, "annotation": {"number": 7, "value": 95}, "group": "control_change"}, {"time": 2751, "annotation": {"number": 7, "value": 94}, "group": "control_change"}, {"time": 2753, "annotation": {"number": 7, "value": 92}, "group": "control_change"}, {"time": 2754, "annotation": {"number": 7, "value": 91}, "group": "control_change"}, {"time": 2756, "annotation": {"number": 7, "value": 90}, "group": "control_change"}, {"time": 2757, "annotation": {"number": 7, "value": 89}, "group": "control_change"}, {"time": 2759, "annotation": {"number": 7, "value": 88}, "group": "control_change"}, {"time": 2760, "annotation": {"number": 7, "value": 86}, "group": "control_change"}, {"time": 2762, "annotation": {"number": 7, "value": 85}, "group": "control_change"}, {"time": 2763, "annotation": {"number": 7, "value": 84}, "group": "control_change"}, {"time": 2765, "annotation": {"number": 7, "value": 83}, "group": "control_change"}, {"time": 2766, "annotation": {"number": 7, "value": 81}, "group": "control_change"}, {"time": 2768, "annotation": {"number": 7, "value": 80}, "group": "control_change"}, {"time": 2769, "annotation": {"number": 7, "value": 79}, "group": "control_change"}, {"time": 2771, "annotation": {"number": 7, "value": 78}, "group": "control_change"}, {"time": 2772, "annotation": {"number": 7, "value": 77}, "group": "control_change"}, {"time": 2774, "annotation": {"number": 7, "value": 75}, "group": "control_change"}, {"time": 2775, "annotation": {"number": 7, "value": 74}, "group": "control_change"}, {"time": 2777, "annotation": {"number": 7, "value": 73}, "group": "control_change"}, {"time": 2778, "annotation": {"number": 7, "value": 72}, "group": "control_change"}, {"time": 2780, "annotation": {"number": 7, "value": 70}, "group": "control_change"}, {"time": 2781, "annotation": {"number": 7, "value": 69}, "group": "control_change"}, {"time": 2783, "annotation": {"number": 7, "value": 68}, "group": "control_change"}, {"time": 2784, "annotation": {"number": 7, "value": 67}, "group": "control_change"}, {"time": 2786, "annotation": {"number": 7, "value": 66}, "group": "control_change"}, {"time": 2787, "annotation": {"number": 7, "value": 64}, "group": "control_change"}, {"time": 2789, "annotation": {"number": 7, "value": 63}, "group": "control_change"}, {"time": 2790, "annotation": {"number": 7, "value": 62}, "group": "control_change"}, {"time": 2792, "annotation": {"number": 7, "value": 61}, "group": "control_change"}, {"time": 2793, "annotation": {"number": 7, "value": 59}, "group": "control_change"}, {"time": 2795, "annotation": {"number": 7, "value": 58}, "group": "control_change"}, {"time": 2796, "annotation": {"number": 7, "value": 57}, "group": "control_change"}, {"time": 2798, "annotation": {"number": 7, "value": 56}, "group": "control_change"}, {"time": 2799, "annotation": {"number": 7, "value": 55}, "group": "control_change"}, {"time": 2801, "annotation": {"number": 7, "value": 53}, "group": "control_change"}, {"time": 2802, "annotation": {"number": 7, "value": 52}, "group": "control_change"}, {"time": 2804, "annotation": {"number": 7, "value": 51}, "group": "control_change"}, {"time": 2805, "annotation": {"number": 7, "value": 50}, "group": "control_change"}, {"time": 2807, "annotation": {"number": 7, "value": 48}, "group": "control_change"}, {"time": 2808, "annotation": {"number": 7, "value": 47}, "group": "control_change"}, {"time": 2810, "annotation": {"number": 7, "value": 46}, "group": "control_change"}, {"time": 2811, "annotation": {"number": 7, "value": 45}, "group": "control_change"}, {"time": 2813, "annotation": {"number": 7, "value": 44}, "group": "control_change"}, {"time": 2814, "annotation": {"number": 7, "value": 42}, "group": "control_change"}, {"time": 2816, "annotation": {"number": 7, "value": 41}, "group": "control_change"}, {"time": 2817, "annotation": {"number": 7, "value": 40}, "group": "control_change"}, {"time": 2819, "annotation": {"number": 7, "value": 39}, "group": "control_change"}, {"time": 2820, "annotation": {"number": 7, "value": 37}, "group": "control_change"}, {"time": 2822, "annotation": {"number": 7, "value": 36}, "group": "control_change"}, {"time": 2823, "annotation": {"number": 7, "value": 35}, "group": "control_change"}, {"time": 2825, "annotation": {"number": 7, "value": 34}, "group": "control_change"}, {"time": 2826, "annotation": {"number": 7, "value": 33}, "group": "control_change"}, {"time": 2828, "annotation": {"number": 7, "value": 31}, "group": "control_change"}, {"time": 2829, "annotation": {"number": 7, "value": 30}, "group": "control_change"}, {"time": 2831, "annotation": {"number": 7, "value": 29}, "group": "control_change"}, {"time": 2832, "annotation": {"number": 7, "value": 28}, "group": "control_change"}, {"time": 2834, "annotation": {"number": 7, "value": 26}, "group": "control_change"}, {"time": 2835, "annotation": {"number": 7, "value": 25}, "group": "control_change"}, {"time": 2837, "annotation": {"number": 7, "value": 24}, "group": "control_change"}, {"time": 2838, "annotation": {"number": 7, "value": 23}, "group": "control_change"}, {"time": 2840, "annotation": {"number": 7, "value": 22}, "group": "control_change"}, {"time": 2841, "annotation": {"number": 7, "value": 20}, "group": "control_change"}, {"time": 2843, "annotation": {"number": 7, "value": 19}, "group": "control_change"}, {"time": 2844, "annotation": {"number": 7, "value": 18}, "group": "control_change"}, {"time": 2846, "annotation": {"number": 7, "value": 17}, "group": "control_change"}, {"time": 2847, "annotation": {"number": 7, "value": 15}, "group": "control_change"}, {"time": 2849, "annotation": {"number": 7, "value": 14}, "group": "control_change"}, {"time": 2850, "annotation": {"number": 7, "value": 13}, "group": "control_change"}, {"time": 2852, "annotation": {"number": 7, "value": 12}, "group": "control_change"}, {"time": 2853, "annotation": {"number": 7, "value": 10}, "group": "control_change"}, {"time": 2855, "annotation": {"number": 7, "value": 9}, "group": "control_change"}, {"time": 2856, "annotation": {"number": 7, "value": 8}, "group": "control_change"}, {"time": 2858, "annotation": {"number": 7, "value": 7}, "group": "control_change"}, {"time": 2859, "annotation": {"number": 7, "value": 6}, "group": "control_change"}, {"time": 2861, "annotation": {"number": 7, "value": 4}, "group": "control_change"}, {"time": 2862, "annotation": {"number": 7, "value": 3}, "group": "control_change"}, {"time": 2864, "annotation": {"number": 7, "value": 2}, "group": "control_change"}, {"time": 2865, "annotation": {"number": 7, "value": 1}, "group": "control_change"}, {"time": 2866, "annotation": {"number": 7, "value": 0}, "group": "control_change"}]}, {"program": 0, "is_drum": false, "name": "BRIDGE", "notes": [{"time": 5, "pitch": 60, "duration": 6, "velocity": 107}, {"time": 11, "pitch": 62, "duration": 3, "velocity": 93}, {"time": 14, "pitch": 60, "duration": 2, "velocity": 86}, {"time": 17, "pitch": 57, "duration": 6, "velocity": 95}, {"time": 23, "pitch": 60, "duration": 4, "velocity": 97}, {"time": 35, "pitch": 67, "duration": 6, "velocity": 93}, {"time": 41, "pitch": 62, "duration": 10, "velocity": 93}, {"time": 53, "pitch": 65, "duration": 4, "velocity": 100}, {"time": 59, "pitch": 67, "duration": 2, "velocity": 81}, {"time": 62, "pitch": 65, "duration": 2, "velocity": 69}, {"time": 65, "pitch": 62, "duration": 6, "velocity": 93}, {"time": 71, "pitch": 65, "duration": 6, "velocity": 96}, {"time": 77, "pitch": 69, "duration": 5, "velocity": 99}, {"time": 83, "pitch": 72, "duration": 5, "velocity": 100}, {"time": 89, "pitch": 67, "duration": 9, "velocity": 100}, {"time": 101, "pitch": 72, "duration": 3, "velocity": 112}, {"time": 107, "pitch": 72, "duration": 1, "velocity": 102}, {"time": 110, "pitch": 72, "duration": 1, "velocity": 89}, {"time": 113, "pitch": 72, "duration": 3, "velocity": 97}, {"time": 119, "pitch": 74, "duration": 4, "velocity": 97}, {"time": 125, "pitch": 69, "duration": 3, "velocity": 99}, {"time": 131, "pitch": 72, "duration": 3, "velocity": 100}, {"time": 137, "pitch": 67, "duration": 4, "velocity": 92}, {"time": 143, "pitch": 69, "duration": 4, "velocity": 92}, {"time": 149, "pitch": 65, "duration": 18, "velocity": 99}, {"time": 155, "pitch": 62, "duration": 1, "velocity": 122}, {"time": 158, "pitch": 62, "duration": 2, "velocity": 85}, {"time": 161, "pitch": 60, "duration": 3, "velocity": 96}, {"time": 167, "pitch": 62, "duration": 2, "velocity": 95}, {"time": 173, "pitch": 60, "duration": 7, "velocity": 96}, {"time": 263, "pitch": 74, "duration": 1, "velocity": 99}, {"time": 266, "pitch": 74, "duration": 2, "velocity": 81}, {"time": 269, "pitch": 72, "duration": 3, "velocity": 97}, {"time": 275, "pitch": 74, "duration": 2, "velocity": 95}, {"time": 281, "pitch": 69, "duration": 4, "velocity": 100}, {"time": 359, "pitch": 72, "duration": 1, "velocity": 93}, {"time": 362, "pitch": 72, "duration": 2, "velocity": 73}, {"time": 365, "pitch": 69, "duration": 2, "velocity": 95}, {"time": 371, "pitch": 72, "duration": 2, "velocity": 95}, {"time": 377, "pitch": 67, "duration": 3, "velocity": 93}, {"time": 467, "pitch": 60, "duration": 2, "velocity": 107}, {"time": 473, "pitch": 69, "duration": 2, "velocity": 99}, {"time": 479, "pitch": 67, "duration": 2, "velocity": 95}, {"time": 485, "pitch": 65, "duration": 2, "velocity": 88}, {"time": 551, "pitch": 74, "duration": 1, "velocity": 112}, {"time": 554, "pitch": 74, "duration": 2, "velocity": 81}, {"time": 557, "pitch": 72, "duration": 2, "velocity": 97}, {"time": 563, "pitch": 74, "duration": 2, "velocity": 99}, {"time": 569, "pitch": 69, "duration": 2, "velocity": 85}, {"time": 575, "pitch": 67, "duration": 2, "velocity": 90}, {"time": 581, "pitch": 69, "duration": 3, "velocity": 102}, {"time": 659, "pitch": 74, "duration": 2, "velocity": 112}, {"time": 665, "pitch": 74, "duration": 2, "velocity": 122}, {"time": 725, "pitch": 67, "duration": 3, "velocity": 99}, {"time": 743, "pitch": 69, "duration": 1, "velocity": 97}, {"time": 746, "pitch": 69, "duration": 2, "velocity": 81}, {"time": 749, "pitch": 67, "duration": 2, "velocity": 102}, {"time": 755, "pitch": 69, "duration": 2, "velocity": 100}, {"time": 761, "pitch": 67, "duration": 2, "velocity": 112}, {"time": 851, "pitch": 72, "duration": 5, "velocity": 97}, {"time": 857, "pitch": 81, "duration": 6, "velocity": 100}, {"time": 863, "pitch": 79, "duration": 6, "velocity": 97}, {"time": 869, "pitch": 77, "duration": 19, "velocity": 95}, {"time": 923, "pitch": 72, "duration": 5, "velocity": 99}, {"time": 929, "pitch": 74, "duration": 5, "velocity": 100}, {"time": 935, "pitch": 72, "duration": 5, "velocity": 96}, {"time": 941, "pitch": 77, "duration": 19, "velocity": 112}, {"time": 965, "pitch": 62, "duration": 12, "velocity": 107}, {"time": 977, "pitch": 69, "duration": 6, "velocity": 102}, {"time": 983, "pitch": 67, "duration": 4, "velocity": 107}, {"time": 989, "pitch": 67, "duration": 11, "velocity": 102}, {"time": 1001, "pitch": 62, "duration": 5, "velocity": 117}, {"time": 1007, "pitch": 60, "duration": 6, "velocity": 86}, {"time": 1013, "pitch": 65, "duration": 17, "velocity": 90}, {"time": 1031, "pitch": 62, "duration": 1, "velocity": 127}, {"time": 1034, "pitch": 62, "duration": 2, "velocity": 90}, {"time": 1037, "pitch": 60, "duration": 4, "velocity": 97}, {"time": 1043, "pitch": 62, "duration": 3, "velocity": 95}, {"time": 1049, "pitch": 60, "duration": 10, "velocity": 112}, {"time": 1127, "pitch": 74, "duration": 1, "velocity": 99}, {"time": 1130, "pitch": 74, "duration": 2, "velocity": 81}, {"time": 1133, "pitch": 72, "duration": 3, "velocity": 97}, {"time": 1139, "pitch": 74, "duration": 2, "velocity": 95}, {"time": 1145, "pitch": 69, "duration": 4, "velocity": 100}, {"time": 1223, "pitch": 72, "duration": 1, "velocity": 93}, {"time": 1226, "pitch": 72, "duration": 2, "velocity": 73}, {"time": 1229, "pitch": 69, "duration": 2, "velocity": 95}, {"time": 1235, "pitch": 72, "duration": 2, "velocity": 95}, {"time": 1241, "pitch": 67, "duration": 3, "velocity": 93}, {"time": 1331, "pitch": 60, "duration": 2, "velocity": 107}, {"time": 1337, "pitch": 69, "duration": 2, "velocity": 99}, {"time": 1343, "pitch": 67, "duration": 2, "velocity": 95}, {"time": 1349, "pitch": 65, "duration": 2, "velocity": 88}, {"time": 1415, "pitch": 74, "duration": 1, "velocity": 112}, {"time": 1418, "pitch": 74, "duration": 2, "velocity": 81}, {"time": 1421, "pitch": 72, "duration": 2, "velocity": 97}, {"time": 1427, "pitch": 74, "duration": 2, "velocity": 99}, {"time": 1433, "pitch": 69, "duration": 2, "velocity": 85}, {"time": 1439, "pitch": 67, "duration": 2, "velocity": 90}, {"time": 1445, "pitch": 69, "duration": 3, "velocity": 102}, {"time": 1523, "pitch": 74, "duration": 2, "velocity": 112}, {"time": 1529, "pitch": 74, "duration": 2, "velocity": 122}, {"time": 1589, "pitch": 67, "duration": 3, "velocity": 99}, {"time": 1607, "pitch": 69, "duration": 1, "velocity": 97}, {"time": 1610, "pitch": 69, "duration": 2, "velocity": 81}, {"time": 1613, "pitch": 67, "duration": 2, "velocity": 102}, {"time": 1619, "pitch": 69, "duration": 2, "velocity": 100}, {"time": 1625, "pitch": 67, "duration": 2, "velocity": 112}, {"time": 1715, "pitch": 72, "duration": 5, "velocity": 97}, {"time": 1721, "pitch": 81, "duration": 6, "velocity": 100}, {"time": 1727, "pitch": 79, "duration": 6, "velocity": 97}, {"time": 1733, "pitch": 77, "duration": 19, "velocity": 95}, {"time": 1787, "pitch": 72, "duration": 5, "velocity": 100}, {"time": 1793, "pitch": 74, "duration": 5, "velocity": 96}, {"time": 1799, "pitch": 72, "duration": 5, "velocity": 99}, {"time": 1805, "pitch": 77, "duration": 20, "velocity": 117}, {"time": 1829, "pitch": 60, "duration": 6, "velocity": 107}, {"time": 1835, "pitch": 62, "duration": 3, "velocity": 93}, {"time": 1838, "pitch": 60, "duration": 2, "velocity": 86}, {"time": 1841, "pitch": 57, "duration": 6, "velocity": 95}, {"time": 1847, "pitch": 60, "duration": 4, "velocity": 97}, {"time": 1853, "pitch": 65, "duration": 5, "velocity": 99}, {"time": 1859, "pitch": 67, "duration": 6, "velocity": 93}, {"time": 1865, "pitch": 62, "duration": 10, "velocity": 93}, {"time": 1877, "pitch": 65, "duration": 4, "velocity": 100}, {"time": 1883, "pitch": 67, "duration": 2, "velocity": 81}, {"time": 1886, "pitch": 65, "duration": 2, "velocity": 69}, {"time": 1889, "pitch": 62, "duration": 6, "velocity": 93}, {"time": 1895, "pitch": 65, "duration": 6, "velocity": 96}, {"time": 1901, "pitch": 69, "duration": 5, "velocity": 99}, {"time": 1907, "pitch": 72, "duration": 5, "velocity": 100}, {"time": 1913, "pitch": 67, "duration": 9, "velocity": 100}, {"time": 1925, "pitch": 72, "duration": 3, "velocity": 112}, {"time": 1931, "pitch": 72, "duration": 1, "velocity": 102}, {"time": 1934, "pitch": 72, "duration": 1, "velocity": 89}, {"time": 1937, "pitch": 72, "duration": 3, "velocity": 97}, {"time": 1943, "pitch": 74, "duration": 4, "velocity": 97}, {"time": 1949, "pitch": 69, "duration": 3, "velocity": 99}, {"time": 1955, "pitch": 72, "duration": 3, "velocity": 100}, {"time": 1961, "pitch": 67, "duration": 4, "velocity": 92}, {"time": 1967, "pitch": 69, "duration": 4, "velocity": 92}, {"time": 1973, "pitch": 65, "duration": 18, "velocity": 99}, {"time": 1979, "pitch": 62, "duration": 1, "velocity": 122}, {"time": 1982, "pitch": 62, "duration": 2, "velocity": 85}, {"time": 1985, "pitch": 60, "duration": 3, "velocity": 96}, {"time": 1991, "pitch": 62, "duration": 2, "velocity": 95}, {"time": 1997, "pitch": 60, "duration": 7, "velocity": 96}, {"time": 2087, "pitch": 74, "duration": 1, "velocity": 99}, {"time": 2090, "pitch": 74, "duration": 2, "velocity": 81}, {"time": 2093, "pitch": 72, "duration": 3, "velocity": 97}, {"time": 2099, "pitch": 74, "duration": 2, "velocity": 95}, {"time": 2105, "pitch": 69, "duration": 4, "velocity": 100}, {"time": 2183, "pitch": 72, "duration": 1, "velocity": 93}, {"time": 2186, "pitch": 72, "duration": 2, "velocity": 73}, {"time": 2189, "pitch": 69, "duration": 2, "velocity": 95}, {"time": 2195, "pitch": 72, "duration": 2, "velocity": 95}, {"time": 2201, "pitch": 67, "duration": 3, "velocity": 93}, {"time": 2291, "pitch": 60, "duration": 2, "velocity": 107}, {"time": 2297, "pitch": 69, "duration": 2, "velocity": 99}, {"time": 2303, "pitch": 67, "duration": 2, "velocity": 95}, {"time": 2309, "pitch": 65, "duration": 2, "velocity": 88}, {"time": 2375, "pitch": 74, "duration": 1, "velocity": 112}, {"time": 2378, "pitch": 74, "duration": 2, "velocity": 81}, {"time": 2381, "pitch": 72, "duration": 2, "velocity": 97}, {"time": 2387, "pitch": 74, "duration": 2, "velocity": 99}, {"time": 2393, "pitch": 69, "duration": 2, "velocity": 85}, {"time": 2399, "pitch": 67, "duration": 2, "velocity": 90}, {"time": 2405, "pitch": 69, "duration": 3, "velocity": 102}, {"time": 2483, "pitch": 74, "duration": 2, "velocity": 112}, {"time": 2489, "pitch": 74, "duration": 2, "velocity": 122}, {"time": 2549, "pitch": 67, "duration": 3, "velocity": 99}, {"time": 2567, "pitch": 69, "duration": 1, "velocity": 97}, {"time": 2570, "pitch": 69, "duration": 2, "velocity": 81}, {"time": 2573, "pitch": 67, "duration": 2, "velocity": 102}, {"time": 2579, "pitch": 69, "duration": 2, "velocity": 100}, {"time": 2585, "pitch": 67, "duration": 2, "velocity": 112}, {"time": 2675, "pitch": 72, "duration": 5, "velocity": 97}, {"time": 2681, "pitch": 81, "duration": 6, "velocity": 100}, {"time": 2687, "pitch": 79, "duration": 6, "velocity": 97}, {"time": 2693, "pitch": 77, "duration": 19, "velocity": 95}, {"time": 2747, "pitch": 72, "duration": 5, "velocity": 99}, {"time": 2753, "pitch": 74, "duration": 5, "velocity": 100}, {"time": 2759, "pitch": 72, "duration": 5, "velocity": 96}, {"time": 2765, "pitch": 77, "duration": 19, "velocity": 112}, {"time": 2843, "pitch": 72, "duration": 6, "velocity": 90}, {"time": 2849, "pitch": 74, "duration": 5, "velocity": 83}, {"time": 2855, "pitch": 72, "duration": 6, "velocity": 82}, {"time": 2861, "pitch": 77, "duration": 14, "velocity": 72}], "annotations": [{"time": 0, "annotation": {"number": 7, "value": 101}, "group": "control_change"}, {"time": 2747, "annotation": {"number": 7, "value": 101}, "group": "control_change"}, {"time": 2749, "annotation": {"number": 7, "value": 100}, "group": "control_change"}, {"time": 2750, "annotation": {"number": 7, "value": 98}, "group": "control_change"}, {"time": 2752, "annotation": {"number": 7, "value": 97}, "group": "control_change"}, {"time": 2753, "annotation": {"number": 7, "value": 96}, "group": "control_change"}, {"time": 2755, "annotation": {"number": 7, "value": 94}, "group": "control_change"}, {"time": 2756, "annotation": {"number": 7, "value": 93}, "group": "control_change"}, {"time": 2758, "annotation": {"number": 7, "value": 92}, "group": "control_change"}, {"time": 2759, "annotation": {"number": 7, "value": 90}, "group": "control_change"}, {"time": 2761, "annotation": {"number": 7, "value": 89}, "group": "control_change"}, {"time": 2762, "annotation": {"number": 7, "value": 88}, "group": "control_change"}, {"time": 2764, "annotation": {"number": 7, "value": 87}, "group": "control_change"}, {"time": 2765, "annotation": {"number": 7, "value": 85}, "group": "control_change"}, {"time": 2767, "annotation": {"number": 7, "value": 84}, "group": "control_change"}, {"time": 2768, "annotation": {"number": 7, "value": 83}, "group": "control_change"}, {"time": 2770, "annotation": {"number": 7, "value": 81}, "group": "control_change"}, {"time": 2771, "annotation": {"number": 7, "value": 80}, "group": "control_change"}, {"time": 2773, "annotation": {"number": 7, "value": 79}, "group": "control_change"}, {"time": 2774, "annotation": {"number": 7, "value": 77}, "group": "control_change"}, {"time": 2776, "annotation": {"number": 7, "value": 76}, "group": "control_change"}, {"time": 2777, "annotation": {"number": 7, "value": 75}, "group": "control_change"}, {"time": 2779, "annotation": {"number": 7, "value": 73}, "group": "control_change"}, {"time": 2780, "annotation": {"number": 7, "value": 72}, "group": "control_change"}, {"time": 2782, "annotation": {"number": 7, "value": 71}, "group": "control_change"}, {"time": 2783, "annotation": {"number": 7, "value": 69}, "group": "control_change"}, {"time": 2785, "annotation": {"number": 7, "value": 68}, "group": "control_change"}, {"time": 2786, "annotation": {"number": 7, "value": 67}, "group": "control_change"}, {"time": 2788, "annotation": {"number": 7, "value": 65}, "group": "control_change"}, {"time": 2789, "annotation": {"number": 7, "value": 64}, "group": "control_change"}, {"time": 2791, "annotation": {"number": 7, "value": 63}, "group": "control_change"}, {"time": 2792, "annotation": {"number": 7, "value": 62}, "group": "control_change"}, {"time": 2794, "annotation": {"number": 7, "value": 60}, "group": "control_change"}, {"time": 2795, "annotation": {"number": 7, "value": 59}, "group": "control_change"}, {"time": 2797, "annotation": {"number": 7, "value": 58}, "group": "control_change"}, {"time": 2798, "annotation": {"number": 7, "value": 56}, "group": "control_change"}, {"time": 2800, "annotation": {"number": 7, "value": 55}, "group": "control_change"}, {"time": 2801, "annotation": {"number": 7, "value": 54}, "group": "control_change"}, {"time": 2803, "annotation": {"number": 7, "value": 52}, "group": "control_change"}, {"time": 2804, "annotation": {"number": 7, "value": 51}, "group": "control_change"}, {"time": 2806, "annotation": {"number": 7, "value": 50}, "group": "control_change"}, {"time": 2807, "annotation": {"number": 7, "value": 48}, "group": "control_change"}, {"time": 2809, "annotation": {"number": 7, "value": 47}, "group": "control_change"}, {"time": 2810, "annotation": {"number": 7, "value": 46}, "group": "control_change"}, {"time": 2812, "annotation": {"number": 7, "value": 44}, "group": "control_change"}, {"time": 2813, "annotation": {"number": 7, "value": 43}, "group": "control_change"}, {"time": 2815, "annotation": {"number": 7, "value": 42}, "group": "control_change"}, {"time": 2816, "annotation": {"number": 7, "value": 40}, "group": "control_change"}, {"time": 2818, "annotation": {"number": 7, "value": 39}, "group": "control_change"}, {"time": 2819, "annotation": {"number": 7, "value": 38}, "group": "control_change"}, {"time": 2821, "annotation": {"number": 7, "value": 37}, "group": "control_change"}, {"time": 2822, "annotation": {"number": 7, "value": 35}, "group": "control_change"}, {"time": 2824, "annotation": {"number": 7, "value": 34}, "group": "control_change"}, {"time": 2825, "annotation": {"number": 7, "value": 33}, "group": "control_change"}, {"time": 2827, "annotation": {"number": 7, "value": 31}, "group": "control_change"}, {"time": 2828, "annotation": {"number": 7, "value": 30}, "group": "control_change"}, {"time": 2830, "annotation": {"number": 7, "value": 29}, "group": "control_change"}, {"time": 2831, "annotation": {"number": 7, "value": 27}, "group": "control_change"}, {"time": 2833, "annotation": {"number": 7, "value": 26}, "group": "control_change"}, {"time": 2834, "annotation": {"number": 7, "value": 25}, "group": "control_change"}, {"time": 2836, "annotation": {"number": 7, "value": 23}, "group": "control_change"}, {"time": 2837, "annotation": {"number": 7, "value": 22}, "group": "control_change"}, {"time": 2839, "annotation": {"number": 7, "value": 21}, "group": "control_change"}, {"time": 2840, "annotation": {"number": 7, "value": 19}, "group": "control_change"}, {"time": 2842, "annotation": {"number": 7, "value": 18}, "group": "control_change"}, {"time": 2843, "annotation": {"number": 7, "value": 17}, "group": "control_change"}, {"time": 2845, "annotation": {"number": 7, "value": 15}, "group": "control_change"}, {"time": 2846, "annotation": {"number": 7, "value": 14}, "group": "control_change"}, {"time": 2848, "annotation": {"number": 7, "value": 13}, "group": "control_change"}, {"time": 2849, "annotation": {"number": 7, "value": 12}, "group": "control_change"}, {"time": 2851, "annotation": {"number": 7, "value": 10}, "group": "control_change"}, {"time": 2852, "annotation": {"number": 7, "value": 9}, "group": "control_change"}, {"time": 2854, "annotation": {"number": 7, "value": 8}, "group": "control_change"}, {"time": 2855, "annotation": {"number": 7, "value": 6}, "group": "control_change"}, {"time": 2857, "annotation": {"number": 7, "value": 5}, "group": "control_change"}, {"time": 2858, "annotation": {"number": 7, "value": 4}, "group": "control_change"}, {"time": 2860, "annotation": {"number": 7, "value": 2}, "group": "control_change"}, {"time": 2861, "annotation": {"number": 7, "value": 1}, "group": "control_change"}, {"time": 2862, "annotation": {"number": 7, "value": 0}, "group": "control_change"}]}, {"program": 0, "is_drum": false, "name": "PIANO", "notes": [{"time": 5, "pitch": 41, "duration": 17, "velocity": 85}, {"time": 11, "pitch": 48, "duration": 10, "velocity": 79}, {"time": 17, "pitch": 60, "duration": 12, "velocity": 79}, {"time": 23, "pitch": 53, "duration": 6, "velocity": 81}, {"time": 29, "pitch": 38, "duration": 15, "velocity": 83}, {"time": 35, "pitch": 45, "duration": 12, "velocity": 66}, {"time": 41, "pitch": 62, "duration": 14, "velocity": 78}, {"time": 53, "pitch": 38, "duration": 14, "velocity": 83}, {"time": 59, "pitch": 45, "duration": 10, "velocity": 48}, {"time": 65, "pitch": 62, "duration": 11, "velocity": 86}, {"time": 71, "pitch": 57, "duration": 8, "velocity": 74}, {"time": 77, "pitch": 43, "duration": 22, "velocity": 81}, {"time": 83, "pitch": 50, "duration": 17, "velocity": 59}, {"time": 89, "pitch": 62, "duration": 12, "velocity": 88}, {"time": 95, "pitch": 55, "duration": 6, "velocity": 75}, {"time": 101, "pitch": 36, "duration": 22, "velocity": 86}, {"time": 107, "pitch": 43, "duration": 19, "velocity": 67}, {"time": 113, "pitch": 48, "duration": 12, "velocity": 71}, {"time": 113, "pitch": 55, "duration": 1, "velocity": 52}, {"time": 113, "pitch": 60, "duration": 21, "velocity": 78}, {"time": 119, "pitch": 55, "duration": 16, "velocity": 81}, {"time": 125, "pitch": 36, "duration": 15, "velocity": 70}, {"time": 131, "pitch": 43, "duration": 10, "velocity": 40}, {"time": 137, "pitch": 48, "duration": 11, "velocity": 72}, {"time": 137, "pitch": 60, "duration": 12, "velocity": 93}, {"time": 143, "pitch": 55, "duration": 6, "velocity": 64}, {"time": 149, "pitch": 41, "duration": 22, "velocity": 70}, {"time": 155, "pitch": 48, "duration": 7, "velocity": 53}, {"time": 161, "pitch": 53, "duration": 12, "velocity": 74}, {"time": 161, "pitch": 57, "duration": 24, "velocity": 88}, {"time": 167, "pitch": 48, "duration": 6, "velocity": 47}, {"time": 173, "pitch": 41, "duration": 21, "velocity": 72}, {"time": 179, "pitch": 48, "duration": 17, "velocity": 50}, {"time": 185, "pitch": 53, "duration": 4, "velocity": 74}, {"time": 185, "pitch": 60, "duration": 11, "velocity": 68}, {"time": 191, "pitch": 57, "duration": 6, "velocity": 67}, {"time": 197, "pitch": 41, "duration": 18, "velocity": 81}, {"time": 203, "pitch": 48, "duration": 18, "velocity": 53}, {"time": 209, "pitch": 53, "duration": 19, "velocity": 66}, {"time": 209, "pitch": 57, "duration": 19, "velocity": 69}, {"time": 209, "pitch": 60, "duration": 24, "velocity": 58}, {"time": 215, "pitch": 36, "duration": 6, "velocity": 70}, {"time": 221, "pitch": 41, "duration": 6, "velocity": 69}, {"time": 227, "pitch": 41, "duration": 15, "velocity": 58}, {"time": 227, "pitch": 48, "duration": 18, "velocity": 58}, {"time": 233, "pitch": 53, "duration": 6, "velocity": 66}, {"time": 233, "pitch": 65, "duration": 60, "velocity": 67}, {"time": 239, "pitch": 60, "duration": 13, "velocity": 64}, {"time": 245, "pitch": 41, "duration": 18, "velocity": 67}, {"time": 251, "pitch": 48, "duration": 18, "velocity": 52}, {"time": 257, "pitch": 53, "duration": 5, "velocity": 76}, {"time": 257, "pitch": 57, "duration": 18, "velocity": 78}, {"time": 257, "pitch": 60, "duration": 19, "velocity": 73}, {"time": 263, "pitch": 36, "duration": 6, "velocity": 75}, {"time": 269, "pitch": 41, "duration": 6, "velocity": 75}, {"time": 275, "pitch": 41, "duration": 14, "velocity": 60}, {"time": 275, "pitch": 48, "duration": 17, "velocity": 39}, {"time": 281, "pitch": 53, "duration": 4, "velocity": 75}, {"time": 281, "pitch": 57, "duration": 6, "velocity": 74}, {"time": 281, "pitch": 60, "duration": 12, "velocity": 81}, {"time": 293, "pitch": 41, "duration": 18, "velocity": 82}, {"time": 299, "pitch": 48, "duration": 17, "velocity": 43}, {"time": 305, "pitch": 53, "duration": 16, "velocity": 72}, {"time": 305, "pitch": 57, "duration": 20, "velocity": 71}, {"time": 311, "pitch": 36, "duration": 6, "velocity": 71}, {"time": 317, "pitch": 41, "duration": 6, "velocity": 65}, {"time": 323, "pitch": 41, "duration": 12, "velocity": 65}, {"time": 323, "pitch": 48, "duration": 8, "velocity": 65}, {"time": 329, "pitch": 53, "duration": 5, "velocity": 78}, {"time": 329, "pitch": 60, "duration": 11, "velocity": 65}, {"time": 341, "pitch": 36, "duration": 18, "velocity": 71}, {"time": 347, "pitch": 43, "duration": 6, "velocity": 35}, {"time": 353, "pitch": 48, "duration": 23, "velocity": 56}, {"time": 353, "pitch": 55, "duration": 21, "velocity": 70}, {"time": 353, "pitch": 60, "duration": 21, "velocity": 70}, {"time": 359, "pitch": 43, "duration": 6, "velocity": 70}, {"time": 365, "pitch": 36, "duration": 6, "velocity": 71}, {"time": 371, "pitch": 36, "duration": 16, "velocity": 73}, {"time": 371, "pitch": 43, "duration": 19, "velocity": 39}, {"time": 377, "pitch": 60, "duration": 10, "velocity": 81}, {"time": 377, "pitch": 64, "duration": 22, "velocity": 90}, {"time": 389, "pitch": 36, "duration": 15, "velocity": 68}, {"time": 395, "pitch": 43, "duration": 9, "velocity": 39}, {"time": 401, "pitch": 48, "duration": 11, "velocity": 63}, {"time": 401, "pitch": 60, "duration": 11, "velocity": 88}, {"time": 401, "pitch": 64, "duration": 11, "velocity": 55}, {"time": 407, "pitch": 55, "duration": 7, "velocity": 59}, {"time": 413, "pitch": 41, "duration": 6, "velocity": 73}, {"time": 419, "pitch": 41, "duration": 12, "velocity": 78}, {"time": 425, "pitch": 48, "duration": 8, "velocity": 78}, {"time": 425, "pitch": 53, "duration": 5, "velocity": 76}, {"time": 425, "pitch": 60, "duration": 11, "velocity": 88}, {"time": 437, "pitch": 38, "duration": 21, "velocity": 86}, {"time": 443, "pitch": 45, "duration": 16, "velocity": 56}, {"time": 449, "pitch": 50, "duration": 5, "velocity": 72}, {"time": 449, "pitch": 65, "duration": 12, "velocity": 67}, {"time": 461, "pitch": 38, "duration": 16, "velocity": 66}, {"time": 467, "pitch": 45, "duration": 11, "velocity": 41}, {"time": 473, "pitch": 50, "duration": 11, "velocity": 71}, {"time": 473, "pitch": 65, "duration": 12, "velocity": 82}, {"time": 479, "pitch": 62, "duration": 6, "velocity": 75}, {"time": 485, "pitch": 41, "duration": 18, "velocity": 76}, {"time": 491, "pitch": 48, "duration": 17, "velocity": 51}, {"time": 497, "pitch": 53, "duration": 6, "velocity": 79}, {"time": 497, "pitch": 60, "duration": 45, "velocity": 78}, {"time": 503, "pitch": 36, "duration": 6, "velocity": 78}, {"time": 509, "pitch": 41, "duration": 6, "velocity": 78}, {"time": 509, "pitch": 48, "duration": 17, "velocity": 78}, {"time": 515, "pitch": 41, "duration": 15, "velocity": 67}, {"time": 521, "pitch": 57, "duration": 21, "velocity": 75}, {"time": 527, "pitch": 53, "duration": 11, "velocity": 65}, {"time": 533, "pitch": 41, "duration": 18, "velocity": 63}, {"time": 545, "pitch": 48, "duration": 12, "velocity": 50}, {"time": 545, "pitch": 53, "duration": 12, "velocity": 71}, {"time": 545, "pitch": 60, "duration": 21, "velocity": 71}, {"time": 551, "pitch": 36, "duration": 6, "velocity": 81}, {"time": 557, "pitch": 41, "duration": 6, "velocity": 83}, {"time": 563, "pitch": 41, "duration": 16, "velocity": 85}, {"time": 569, "pitch": 48, "duration": 6, "velocity": 76}, {"time": 569, "pitch": 53, "duration": 5, "velocity": 88}, {"time": 569, "pitch": 60, "duration": 12, "velocity": 73}, {"time": 581, "pitch": 41, "duration": 17, "velocity": 86}, {"time": 587, "pitch": 48, "duration": 9, "velocity": 55}, {"time": 593, "pitch": 53, "duration": 3, "velocity": 88}, {"time": 593, "pitch": 65, "duration": 11, "velocity": 89}, {"time": 593, "pitch": 69, "duration": 11, "velocity": 92}, {"time": 599, "pitch": 36, "duration": 6, "velocity": 81}, {"time": 599, "pitch": 60, "duration": 7, "velocity": 80}, {"time": 605, "pitch": 38, "duration": 6, "velocity": 75}, {"time": 611, "pitch": 38, "duration": 10, "velocity": 78}, {"time": 611, "pitch": 45, "duration": 11, "velocity": 63}, {"time": 617, "pitch": 50, "duration": 9, "velocity": 86}, {"time": 617, "pitch": 57, "duration": 8, "velocity": 95}, {"time": 617, "pitch": 62, "duration": 12, "velocity": 88}, {"time": 617, "pitch": 65, "duration": 13, "velocity": 85}, {"time": 629, "pitch": 43, "duration": 14, "velocity": 74}, {"time": 635, "pitch": 50, "duration": 7, "velocity": 72}, {"time": 641, "pitch": 55, "duration": 6, "velocity": 95}, {"time": 641, "pitch": 58, "duration": 11, "velocity": 78}, {"time": 641, "pitch": 62, "duration": 11, "velocity": 78}, {"time": 647, "pitch": 43, "duration": 6, "velocity": 73}, {"time": 653, "pitch": 38, "duration": 18, "velocity": 74}, {"time": 659, "pitch": 45, "duration": 6, "velocity": 84}, {"time": 659, "pitch": 57, "duration": 5, "velocity": 78}, {"time": 659, "pitch": 62, "duration": 4, "velocity": 81}, {"time": 659, "pitch": 65, "duration": 4, "velocity": 71}, {"time": 665, "pitch": 50, "duration": 4, "velocity": 80}, {"time": 665, "pitch": 62, "duration": 21, "velocity": 80}, {"time": 665, "pitch": 65, "duration": 21, "velocity": 80}, {"time": 671, "pitch": 45, "duration": 6, "velocity": 74}, {"time": 671, "pitch": 57, "duration": 16, "velocity": 74}, {"time": 677, "pitch": 38, "duration": 14, "velocity": 73}, {"time": 683, "pitch": 45, "duration": 9, "velocity": 81}, {"time": 689, "pitch": 50, "duration": 6, "velocity": 77}, {"time": 689, "pitch": 62, "duration": 11, "velocity": 92}, {"time": 689, "pitch": 65, "duration": 11, "velocity": 89}, {"time": 695, "pitch": 57, "duration": 8, "velocity": 92}, {"time": 701, "pitch": 43, "duration": 14, "velocity": 77}, {"time": 707, "pitch": 50, "duration": 7, "velocity": 74}, {"time": 713, "pitch": 58, "duration": 12, "velocity": 99}, {"time": 713, "pitch": 62, "duration": 13, "velocity": 88}, {"time": 719, "pitch": 55, "duration": 7, "velocity": 90}, {"time": 725, "pitch": 36, "duration": 18, "velocity": 83}, {"time": 731, "pitch": 43, "duration": 9, "velocity": 62}, {"time": 737, "pitch": 48, "duration": 10, "velocity": 85}, {"time": 737, "pitch": 55, "duration": 15, "velocity": 76}, {"time": 737, "pitch": 60, "duration": 19, "velocity": 85}, {"time": 737, "pitch": 64, "duration": 20, "velocity": 85}, {"time": 743, "pitch": 43, "duration": 6, "velocity": 80}, {"time": 749, "pitch": 36, "duration": 6, "velocity": 76}, {"time": 755, "pitch": 36, "duration": 15, "velocity": 86}, {"time": 761, "pitch": 48, "duration": 5, "velocity": 86}, {"time": 761, "pitch": 60, "duration": 13, "velocity": 99}, {"time": 761, "pitch": 64, "duration": 13, "velocity": 92}, {"time": 767, "pitch": 55, "duration": 7, "velocity": 95}, {"time": 773, "pitch": 36, "duration": 16, "velocity": 85}, {"time": 779, "pitch": 43, "duration": 11, "velocity": 58}, {"time": 785, "pitch": 48, "duration": 10, "velocity": 86}, {"time": 785, "pitch": 60, "duration": 11, "velocity": 93}, {"time": 785, "pitch": 64, "duration": 12, "velocity": 92}, {"time": 791, "pitch": 55, "duration": 5, "velocity": 93}, {"time": 797, "pitch": 41, "duration": 21, "velocity": 79}, {"time": 803, "pitch": 48, "duration": 9, "velocity": 61}, {"time": 809, "pitch": 53, "duration": 6, "velocity": 90}, {"time": 809, "pitch": 65, "duration": 12, "velocity": 96}, {"time": 809, "pitch": 69, "duration": 12, "velocity": 93}, {"time": 815, "pitch": 48, "duration": 4, "velocity": 59}, {"time": 815, "pitch": 60, "duration": 6, "velocity": 92}, {"time": 821, "pitch": 38, "duration": 21, "velocity": 81}, {"time": 827, "pitch": 45, "duration": 18, "velocity": 54}, {"time": 833, "pitch": 50, "duration": 10, "velocity": 76}, {"time": 833, "pitch": 62, "duration": 20, "velocity": 92}, {"time": 833, "pitch": 65, "duration": 20, "velocity": 85}, {"time": 839, "pitch": 57, "duration": 14, "velocity": 93}, {"time": 845, "pitch": 38, "duration": 16, "velocity": 72}, {"time": 851, "pitch": 45, "duration": 11, "velocity": 58}, {"time": 857, "pitch": 50, "duration": 12, "velocity": 93}, {"time": 857, "pitch": 62, "duration": 13, "velocity": 99}, {"time": 857, "pitch": 65, "duration": 13, "velocity": 96}, {"time": 863, "pitch": 57, "duration": 8, "velocity": 75}, {"time": 869, "pitch": 41, "duration": 15, "velocity": 78}, {"time": 875, "pitch": 48, "duration": 7, "velocity": 93}, {"time": 881, "pitch": 57, "duration": 13, "velocity": 96}, {"time": 881, "pitch": 60, "duration": 11, "velocity": 97}, {"time": 887, "pitch": 53, "duration": 7, "velocity": 88}, {"time": 893, "pitch": 36, "duration": 14, "velocity": 89}, {"time": 899, "pitch": 43, "duration": 8, "velocity": 66}, {"time": 905, "pitch": 48, "duration": 9, "velocity": 92}, {"time": 905, "pitch": 60, "duration": 11, "velocity": 93}, {"time": 905, "pitch": 64, "duration": 11, "velocity": 88}, {"time": 911, "pitch": 55, "duration": 6, "velocity": 83}, {"time": 917, "pitch": 41, "duration": 18, "velocity": 79}, {"time": 923, "pitch": 48, "duration": 18, "velocity": 46}, {"time": 929, "pitch": 53, "duration": 9, "velocity": 83}, {"time": 929, "pitch": 60, "duration": 21, "velocity": 83}, {"time": 929, "pitch": 65, "duration": 21, "velocity": 83}, {"time": 935, "pitch": 36, "duration": 6, "velocity": 78}, {"time": 935, "pitch": 57, "duration": 14, "velocity": 76}, {"time": 941, "pitch": 41, "duration": 6, "velocity": 77}, {"time": 947, "pitch": 41, "duration": 11, "velocity": 72}, {"time": 947, "pitch": 48, "duration": 10, "velocity": 74}, {"time": 953, "pitch": 53, "duration": 3, "velocity": 89}, {"time": 953, "pitch": 60, "duration": 13, "velocity": 95}, {"time": 953, "pitch": 65, "duration": 12, "velocity": 92}, {"time": 959, "pitch": 57, "duration": 7, "velocity": 97}, {"time": 965, "pitch": 38, "duration": 22, "velocity": 90}, {"time": 971, "pitch": 45, "duration": 17, "velocity": 35}, {"time": 977, "pitch": 50, "duration": 6, "velocity": 86}, {"time": 977, "pitch": 62, "duration": 13, "velocity": 86}, {"time": 977, "pitch": 65, "duration": 12, "velocity": 86}, {"time": 983, "pitch": 57, "duration": 6, "velocity": 97}, {"time": 989, "pitch": 36, "duration": 6, "velocity": 83}, {"time": 995, "pitch": 36, "duration": 8, "velocity": 85}, {"time": 995, "pitch": 43, "duration": 9, "velocity": 53}, {"time": 1001, "pitch": 48, "duration": 6, "velocity": 78}, {"time": 1001, "pitch": 60, "duration": 12, "velocity": 96}, {"time": 1001, "pitch": 64, "duration": 12, "velocity": 96}, {"time": 1007, "pitch": 55, "duration": 6, "velocity": 93}, {"time": 1013, "pitch": 41, "duration": 18, "velocity": 90}, {"time": 1019, "pitch": 48, "duration": 17, "velocity": 54}, {"time": 1025, "pitch": 53, "duration": 10, "velocity": 79}, {"time": 1025, "pitch": 65, "duration": 14, "velocity": 99}, {"time": 1025, "pitch": 69, "duration": 14, "velocity": 96}, {"time": 1031, "pitch": 36, "duration": 6, "velocity": 87}, {"time": 1031, "pitch": 60, "duration": 10, "velocity": 88}, {"time": 1037, "pitch": 41, "duration": 6, "velocity": 87}, {"time": 1037, "pitch": 53, "duration": 11, "velocity": 88}, {"time": 1043, "pitch": 41, "duration": 18, "velocity": 67}, {"time": 1043, "pitch": 48, "duration": 17, "velocity": 38}, {"time": 1043, "pitch": 60, "duration": 5, "velocity": 63}, {"time": 1043, "pitch": 65, "duration": 5, "velocity": 99}, {"time": 1043, "pitch": 69, "duration": 4, "velocity": 97}, {"time": 1049, "pitch": 53, "duration": 7, "velocity": 82}, {"time": 1049, "pitch": 65, "duration": 12, "velocity": 100}, {"time": 1049, "pitch": 69, "duration": 12, "velocity": 107}, {"time": 1055, "pitch": 60, "duration": 6, "velocity": 83}, {"time": 1061, "pitch": 41, "duration": 1, "velocity": 81}, {"time": 1067, "pitch": 48, "duration": 18, "velocity": 53}, {"time": 1073, "pitch": 53, "duration": 19, "velocity": 66}, {"time": 1073, "pitch": 57, "duration": 19, "velocity": 69}, {"time": 1073, "pitch": 60, "duration": 24, "velocity": 58}, {"time": 1079, "pitch": 36, "duration": 6, "velocity": 70}, {"time": 1085, "pitch": 41, "duration": 6, "velocity": 69}, {"time": 1091, "pitch": 41, "duration": 15, "velocity": 58}, {"time": 1091, "pitch": 48, "duration": 18, "velocity": 58}, {"time": 1097, "pitch": 53, "duration": 6, "velocity": 66}, {"time": 1097, "pitch": 65, "duration": 60, "velocity": 67}, {"time": 1103, "pitch": 60, "duration": 13, "velocity": 64}, {"time": 1109, "pitch": 41, "duration": 18, "velocity": 67}, {"time": 1115, "pitch": 48, "duration": 18, "velocity": 52}, {"time": 1121, "pitch": 53, "duration": 5, "velocity": 76}, {"time": 1121, "pitch": 57, "duration": 18, "velocity": 78}, {"time": 1121, "pitch": 60, "duration": 19, "velocity": 73}, {"time": 1127, "pitch": 36, "duration": 6, "velocity": 75}, {"time": 1133, "pitch": 41, "duration": 6, "velocity": 60}, {"time": 1133, "pitch": 41, "duration": 6, "velocity": 75}, {"time": 1139, "pitch": 41, "duration": 14, "velocity": 60}, {"time": 1139, "pitch": 48, "duration": 17, "velocity": 39}, {"time": 1145, "pitch": 53, "duration": 4, "velocity": 75}, {"time": 1145, "pitch": 57, "duration": 6, "velocity": 74}, {"time": 1145, "pitch": 60, "duration": 12, "velocity": 81}, {"time": 1151, "pitch": 57, "duration": 6, "velocity": 74}, {"time": 1157, "pitch": 41, "duration": 18, "velocity": 82}, {"time": 1163, "pitch": 48, "duration": 17, "velocity": 43}, {"time": 1169, "pitch": 53, "duration": 16, "velocity": 72}, {"time": 1169, "pitch": 57, "duration": 20, "velocity": 71}, {"time": 1169, "pitch": 57, "duration": 20, "velocity": 89}, {"time": 1175, "pitch": 36, "duration": 6, "velocity": 71}, {"time": 1175, "pitch": 53, "duration": 10, "velocity": 68}, {"time": 1181, "pitch": 41, "duration": 6, "velocity": 65}, {"time": 1181, "pitch": 41, "duration": 6, "velocity": 67}, {"time": 1187, "pitch": 41, "duration": 9, "velocity": 65}, {"time": 1187, "pitch": 48, "duration": 8, "velocity": 56}, {"time": 1187, "pitch": 48, "duration": 8, "velocity": 65}, {"time": 1193, "pitch": 53, "duration": 5, "velocity": 78}, {"time": 1193, "pitch": 60, "duration": 11, "velocity": 65}, {"time": 1193, "pitch": 60, "duration": 11, "velocity": 96}, {"time": 1199, "pitch": 53, "duration": 5, "velocity": 78}, {"time": 1205, "pitch": 36, "duration": 18, "velocity": 71}, {"time": 1211, "pitch": 43, "duration": 6, "velocity": 35}, {"time": 1217, "pitch": 48, "duration": 23, "velocity": 56}, {"time": 1217, "pitch": 55, "duration": 21, "velocity": 70}, {"time": 1217, "pitch": 60, "duration": 21, "velocity": 70}, {"time": 1223, "pitch": 43, "duration": 5, "velocity": 70}, {"time": 1223, "pitch": 55, "duration": 15, "velocity": 66}, {"time": 1229, "pitch": 36, "duration": 6, "velocity": 71}, {"time": 1229, "pitch": 36, "duration": 6, "velocity": 73}, {"time": 1235, "pitch": 36, "duration": 16, "velocity": 73}, {"time": 1235, "pitch": 43, "duration": 19, "velocity": 39}, {"time": 1241, "pitch": 60, "duration": 10, "velocity": 81}, {"time": 1241, "pitch": 64, "duration": 22, "velocity": 90}, {"time": 1247, "pitch": 60, "duration": 4, "velocity": 81}, {"time": 1253, "pitch": 36, "duration": 15, "velocity": 68}, {"time": 1259, "pitch": 43, "duration": 9, "velocity": 39}, {"time": 1265, "pitch": 48, "duration": 11, "velocity": 63}, {"time": 1265, "pitch": 60, "duration": 11, "velocity": 88}, {"time": 1265, "pitch": 64, "duration": 11, "velocity": 55}, {"time": 1271, "pitch": 55, "duration": 7, "velocity": 59}, {"time": 1277, "pitch": 41, "duration": 6, "velocity": 73}, {"time": 1283, "pitch": 41, "duration": 9, "velocity": 78}, {"time": 1283, "pitch": 48, "duration": 8, "velocity": 54}, {"time": 1289, "pitch": 48, "duration": 2, "velocity": 78}, {"time": 1289, "pitch": 53, "duration": 5, "velocity": 76}, {"time": 1289, "pitch": 60, "duration": 11, "velocity": 88}, {"time": 1295, "pitch": 53, "duration": 5, "velocity": 76}, {"time": 1301, "pitch": 38, "duration": 21, "velocity": 86}, {"time": 1307, "pitch": 45, "duration": 16, "velocity": 56}, {"time": 1313, "pitch": 50, "duration": 5, "velocity": 72}, {"time": 1313, "pitch": 65, "duration": 12, "velocity": 67}, {"time": 1325, "pitch": 38, "duration": 16, "velocity": 66}, {"time": 1331, "pitch": 45, "duration": 11, "velocity": 41}, {"time": 1337, "pitch": 50, "duration": 11, "velocity": 71}, {"time": 1337, "pitch": 65, "duration": 12, "velocity": 82}, {"time": 1343, "pitch": 62, "duration": 6, "velocity": 75}, {"time": 1349, "pitch": 41, "duration": 18, "velocity": 76}, {"time": 1355, "pitch": 48, "duration": 17, "velocity": 51}, {"time": 1361, "pitch": 53, "duration": 6, "velocity": 79}, {"time": 1361, "pitch": 60, "duration": 45, "velocity": 78}, {"time": 1361, "pitch": 60, "duration": 45, "velocity": 97}, {"time": 1367, "pitch": 36, "duration": 6, "velocity": 78}, {"time": 1367, "pitch": 53, "duration": 1, "velocity": 79}, {"time": 1373, "pitch": 41, "duration": 6, "velocity": 67}, {"time": 1373, "pitch": 41, "duration": 6, "velocity": 78}, {"time": 1373, "pitch": 48, "duration": 17, "velocity": 78}, {"time": 1379, "pitch": 41, "duration": 15, "velocity": 67}, {"time": 1379, "pitch": 48, "duration": 11, "velocity": 45}, {"time": 1385, "pitch": 57, "duration": 21, "velocity": 75}, {"time": 1391, "pitch": 53, "duration": 11, "velocity": 65}, {"time": 1397, "pitch": 41, "duration": 18, "velocity": 63}, {"time": 1403, "pitch": 48, "duration": 15, "velocity": 50}, {"time": 1409, "pitch": 48, "duration": 9, "velocity": 50}, {"time": 1409, "pitch": 53, "duration": 12, "velocity": 71}, {"time": 1409, "pitch": 60, "duration": 21, "velocity": 71}, {"time": 1409, "pitch": 60, "duration": 21, "velocity": 93}, {"time": 1415, "pitch": 36, "duration": 6, "velocity": 81}, {"time": 1415, "pitch": 53, "duration": 6, "velocity": 81}, {"time": 1421, "pitch": 41, "duration": 6, "velocity": 83}, {"time": 1427, "pitch": 41, "duration": 16, "velocity": 85}, {"time": 1427, "pitch": 48, "duration": 12, "velocity": 85}, {"time": 1433, "pitch": 48, "duration": 6, "velocity": 76}, {"time": 1433, "pitch": 53, "duration": 5, "velocity": 88}, {"time": 1433, "pitch": 60, "duration": 12, "velocity": 73}, {"time": 1433, "pitch": 60, "duration": 12, "velocity": 93}, {"time": 1439, "pitch": 53, "duration": 5, "velocity": 88}, {"time": 1445, "pitch": 41, "duration": 17, "velocity": 86}, {"time": 1451, "pitch": 48, "duration": 9, "velocity": 55}, {"time": 1451, "pitch": 60, "duration": 1, "velocity": 30}, {"time": 1457, "pitch": 53, "duration": 3, "velocity": 88}, {"time": 1457, "pitch": 65, "duration": 11, "velocity": 89}, {"time": 1457, "pitch": 69, "duration": 11, "velocity": 92}, {"time": 1463, "pitch": 36, "duration": 6, "velocity": 81}, {"time": 1463, "pitch": 60, "duration": 7, "velocity": 80}, {"time": 1463, "pitch": 60, "duration": 7, "velocity": 93}, {"time": 1469, "pitch": 38, "duration": 6, "velocity": 75}, {"time": 1469, "pitch": 38, "duration": 6, "velocity": 78}, {"time": 1475, "pitch": 38, "duration": 10, "velocity": 78}, {"time": 1475, "pitch": 45, "duration": 11, "velocity": 63}, {"time": 1475, "pitch": 57, "duration": 7, "velocity": 85}, {"time": 1481, "pitch": 50, "duration": 9, "velocity": 86}, {"time": 1481, "pitch": 57, "duration": 1, "velocity": 95}, {"time": 1481, "pitch": 62, "duration": 12, "velocity": 88}, {"time": 1481, "pitch": 65, "duration": 13, "velocity": 85}, {"time": 1487, "pitch": 57, "duration": 2, "velocity": 95}, {"time": 1493, "pitch": 43, "duration": 14, "velocity": 74}, {"time": 1499, "pitch": 50, "duration": 7, "velocity": 72}, {"time": 1505, "pitch": 55, "duration": 6, "velocity": 95}, {"time": 1505, "pitch": 58, "duration": 11, "velocity": 78}, {"time": 1505, "pitch": 58, "duration": 11, "velocity": 100}, {"time": 1505, "pitch": 62, "duration": 11, "velocity": 78}, {"time": 1505, "pitch": 62, "duration": 11, "velocity": 93}, {"time": 1511, "pitch": 43, "duration": 6, "velocity": 73}, {"time": 1511, "pitch": 55, "duration": 1, "velocity": 95}, {"time": 1517, "pitch": 38, "duration": 18, "velocity": 74}, {"time": 1523, "pitch": 45, "duration": 6, "velocity": 67}, {"time": 1523, "pitch": 45, "duration": 6, "velocity": 84}, {"time": 1523, "pitch": 57, "duration": 5, "velocity": 78}, {"time": 1523, "pitch": 62, "duration": 4, "velocity": 81}, {"time": 1523, "pitch": 65, "duration": 4, "velocity": 71}, {"time": 1529, "pitch": 50, "duration": 4, "velocity": 80}, {"time": 1529, "pitch": 50, "duration": 4, "velocity": 95}, {"time": 1529, "pitch": 62, "duration": 21, "velocity": 80}, {"time": 1529, "pitch": 62, "duration": 21, "velocity": 96}, {"time": 1529, "pitch": 65, "duration": 21, "velocity": 80}, {"time": 1529, "pitch": 65, "duration": 21, "velocity": 88}, {"time": 1535, "pitch": 45, "duration": 6, "velocity": 74}, {"time": 1535, "pitch": 57, "duration": 16, "velocity": 74}, {"time": 1535, "pitch": 57, "duration": 16, "velocity": 97}, {"time": 1541, "pitch": 38, "duration": 14, "velocity": 73}, {"time": 1547, "pitch": 45, "duration": 9, "velocity": 81}, {"time": 1553, "pitch": 50, "duration": 6, "velocity": 77}, {"time": 1553, "pitch": 62, "duration": 11, "velocity": 92}, {"time": 1553, "pitch": 65, "duration": 11, "velocity": 89}, {"time": 1559, "pitch": 57, "duration": 8, "velocity": 92}, {"time": 1565, "pitch": 43, "duration": 14, "velocity": 77}, {"time": 1571, "pitch": 50, "duration": 7, "velocity": 74}, {"time": 1577, "pitch": 58, "duration": 12, "velocity": 99}, {"time": 1577, "pitch": 62, "duration": 13, "velocity": 88}, {"time": 1583, "pitch": 55, "duration": 7, "velocity": 90}, {"time": 1589, "pitch": 36, "duration": 18, "velocity": 83}, {"time": 1595, "pitch": 43, "duration": 9, "velocity": 62}, {"time": 1601, "pitch": 48, "duration": 10, "velocity": 79}, {"time": 1601, "pitch": 48, "duration": 10, "velocity": 85}, {"time": 1601, "pitch": 55, "duration": 15, "velocity": 76}, {"time": 1601, "pitch": 60, "duration": 19, "velocity": 85}, {"time": 1601, "pitch": 60, "duration": 19, "velocity": 89}, {"time": 1601, "pitch": 64, "duration": 20, "velocity": 85}, {"time": 1601, "pitch": 64, "duration": 20, "velocity": 86}, {"time": 1607, "pitch": 43, "duration": 6, "velocity": 80}, {"time": 1607, "pitch": 55, "duration": 9, "velocity": 93}, {"time": 1613, "pitch": 36, "duration": 6, "velocity": 76}, {"time": 1613, "pitch": 36, "duration": 6, "velocity": 86}, {"time": 1619, "pitch": 36, "duration": 15, "velocity": 86}, {"time": 1619, "pitch": 43, "duration": 16, "velocity": 81}, {"time": 1625, "pitch": 48, "duration": 5, "velocity": 86}, {"time": 1625, "pitch": 60, "duration": 13, "velocity": 99}, {"time": 1625, "pitch": 64, "duration": 13, "velocity": 92}, {"time": 1631, "pitch": 55, "duration": 7, "velocity": 95}, {"time": 1637, "pitch": 36, "duration": 16, "velocity": 85}, {"time": 1643, "pitch": 43, "duration": 11, "velocity": 58}, {"time": 1649, "pitch": 48, "duration": 10, "velocity": 86}, {"time": 1649, "pitch": 60, "duration": 11, "velocity": 93}, {"time": 1649, "pitch": 64, "duration": 12, "velocity": 92}, {"time": 1655, "pitch": 55, "duration": 5, "velocity": 93}, {"time": 1661, "pitch": 41, "duration": 21, "velocity": 79}, {"time": 1667, "pitch": 48, "duration": 9, "velocity": 61}, {"time": 1673, "pitch": 53, "duration": 6, "velocity": 90}, {"time": 1673, "pitch": 65, "duration": 12, "velocity": 96}, {"time": 1673, "pitch": 69, "duration": 12, "velocity": 93}, {"time": 1679, "pitch": 48, "duration": 4, "velocity": 59}, {"time": 1679, "pitch": 60, "duration": 6, "velocity": 92}, {"time": 1685, "pitch": 38, "duration": 21, "velocity": 81}, {"time": 1691, "pitch": 45, "duration": 18, "velocity": 54}, {"time": 1697, "pitch": 50, "duration": 10, "velocity": 76}, {"time": 1697, "pitch": 62, "duration": 20, "velocity": 92}, {"time": 1697, "pitch": 65, "duration": 20, "velocity": 85}, {"time": 1703, "pitch": 57, "duration": 14, "velocity": 93}, {"time": 1709, "pitch": 38, "duration": 16, "velocity": 72}, {"time": 1715, "pitch": 45, "duration": 11, "velocity": 58}, {"time": 1721, "pitch": 50, "duration": 12, "velocity": 93}, {"time": 1721, "pitch": 62, "duration": 13, "velocity": 99}, {"time": 1721, "pitch": 65, "duration": 13, "velocity": 96}, {"time": 1727, "pitch": 57, "duration": 8, "velocity": 75}, {"time": 1733, "pitch": 41, "duration": 15, "velocity": 78}, {"time": 1739, "pitch": 48, "duration": 7, "velocity": 93}, {"time": 1745, "pitch": 57, "duration": 13, "velocity": 96}, {"time": 1745, "pitch": 60, "duration": 11, "velocity": 97}, {"time": 1751, "pitch": 53, "duration": 7, "velocity": 88}, {"time": 1757, "pitch": 36, "duration": 14, "velocity": 89}, {"time": 1763, "pitch": 43, "duration": 8, "velocity": 66}, {"time": 1769, "pitch": 48, "duration": 9, "velocity": 92}, {"time": 1769, "pitch": 60, "duration": 11, "velocity": 93}, {"time": 1769, "pitch": 64, "duration": 11, "velocity": 88}, {"time": 1775, "pitch": 55, "duration": 6, "velocity": 83}, {"time": 1781, "pitch": 41, "duration": 22, "velocity": 79}, {"time": 1787, "pitch": 48, "duration": 18, "velocity": 46}, {"time": 1793, "pitch": 53, "duration": 9, "velocity": 83}, {"time": 1793, "pitch": 60, "duration": 21, "velocity": 83}, {"time": 1793, "pitch": 65, "duration": 21, "velocity": 83}, {"time": 1799, "pitch": 57, "duration": 14, "velocity": 100}, {"time": 1805, "pitch": 41, "duration": 17, "velocity": 72}, {"time": 1811, "pitch": 48, "duration": 10, "velocity": 74}, {"time": 1817, "pitch": 53, "duration": 3, "velocity": 89}, {"time": 1817, "pitch": 60, "duration": 11, "velocity": 95}, {"time": 1817, "pitch": 65, "duration": 11, "velocity": 92}, {"time": 1823, "pitch": 57, "duration": 5, "velocity": 97}, {"time": 1829, "pitch": 41, "duration": 17, "velocity": 85}, {"time": 1835, "pitch": 48, "duration": 10, "velocity": 79}, {"time": 1841, "pitch": 60, "duration": 12, "velocity": 79}, {"time": 1847, "pitch": 45, "duration": 6, "velocity": 79}, {"time": 1847, "pitch": 53, "duration": 6, "velocity": 78}, {"time": 1853, "pitch": 38, "duration": 6, "velocity": 79}, {"time": 1859, "pitch": 38, "duration": 9, "velocity": 83}, {"time": 1865, "pitch": 62, "duration": 14, "velocity": 78}, {"time": 1877, "pitch": 38, "duration": 14, "velocity": 83}, {"time": 1883, "pitch": 45, "duration": 10, "velocity": 48}, {"time": 1889, "pitch": 62, "duration": 11, "velocity": 86}, {"time": 1895, "pitch": 38, "duration": 6, "velocity": 88}, {"time": 1895, "pitch": 57, "duration": 8, "velocity": 88}, {"time": 1901, "pitch": 43, "duration": 6, "velocity": 81}, {"time": 1907, "pitch": 43, "duration": 16, "velocity": 81}, {"time": 1907, "pitch": 50, "duration": 17, "velocity": 59}, {"time": 1913, "pitch": 62, "duration": 12, "velocity": 88}, {"time": 1919, "pitch": 55, "duration": 6, "velocity": 75}, {"time": 1925, "pitch": 36, "duration": 18, "velocity": 86}, {"time": 1931, "pitch": 43, "duration": 12, "velocity": 67}, {"time": 1937, "pitch": 48, "duration": 12, "velocity": 71}, {"time": 1937, "pitch": 55, "duration": 1, "velocity": 52}, {"time": 1937, "pitch": 60, "duration": 21, "velocity": 78}, {"time": 1943, "pitch": 43, "duration": 6, "velocity": 79}, {"time": 1943, "pitch": 55, "duration": 16, "velocity": 79}, {"time": 1949, "pitch": 36, "duration": 6, "velocity": 74}, {"time": 1955, "pitch": 36, "duration": 9, "velocity": 70}, {"time": 1961, "pitch": 48, "duration": 11, "velocity": 72}, {"time": 1961, "pitch": 60, "duration": 12, "velocity": 93}, {"time": 1967, "pitch": 55, "duration": 6, "velocity": 64}, {"time": 1973, "pitch": 41, "duration": 18, "velocity": 70}, {"time": 1979, "pitch": 48, "duration": 7, "velocity": 53}, {"time": 1985, "pitch": 53, "duration": 12, "velocity": 74}, {"time": 1985, "pitch": 57, "duration": 24, "velocity": 74}, {"time": 1991, "pitch": 36, "duration": 6, "velocity": 79}, {"time": 1991, "pitch": 48, "duration": 6, "velocity": 79}, {"time": 1997, "pitch": 41, "duration": 6, "velocity": 100}, {"time": 2003, "pitch": 41, "duration": 15, "velocity": 72}, {"time": 2003, "pitch": 48, "duration": 17, "velocity": 50}, {"time": 2009, "pitch": 53, "duration": 4, "velocity": 74}, {"time": 2009, "pitch": 60, "duration": 11, "velocity": 68}, {"time": 2015, "pitch": 57, "duration": 6, "velocity": 67}, {"time": 2021, "pitch": 41, "duration": 18, "velocity": 81}, {"time": 2027, "pitch": 48, "duration": 18, "velocity": 53}, {"time": 2033, "pitch": 53, "duration": 19, "velocity": 66}, {"time": 2033, "pitch": 57, "duration": 19, "velocity": 69}, {"time": 2033, "pitch": 60, "duration": 24, "velocity": 58}, {"time": 2039, "pitch": 36, "duration": 6, "velocity": 70}, {"time": 2045, "pitch": 41, "duration": 6, "velocity": 69}, {"time": 2051, "pitch": 41, "duration": 15, "velocity": 58}, {"time": 2051, "pitch": 48, "duration": 18, "velocity": 58}, {"time": 2057, "pitch": 53, "duration": 6, "velocity": 66}, {"time": 2057, "pitch": 65, "duration": 60, "velocity": 67}, {"time": 2063, "pitch": 60, "duration": 13, "velocity": 64}, {"time": 2069, "pitch": 41, "duration": 18, "velocity": 67}, {"time": 2075, "pitch": 48, "duration": 18, "velocity": 52}, {"time": 2081, "pitch": 53, "duration": 5, "velocity": 76}, {"time": 2081, "pitch": 57, "duration": 18, "velocity": 78}, {"time": 2081, "pitch": 60, "duration": 19, "velocity": 73}, {"time": 2087, "pitch": 36, "duration": 6, "velocity": 75}, {"time": 2093, "pitch": 41, "duration": 6, "velocity": 75}, {"time": 2099, "pitch": 41, "duration": 14, "velocity": 60}, {"time": 2099, "pitch": 48, "duration": 17, "velocity": 39}, {"time": 2105, "pitch": 53, "duration": 4, "velocity": 75}, {"time": 2105, "pitch": 57, "duration": 6, "velocity": 74}, {"time": 2105, "pitch": 60, "duration": 12, "velocity": 81}, {"time": 2117, "pitch": 41, "duration": 18, "velocity": 82}, {"time": 2123, "pitch": 48, "duration": 17, "velocity": 43}, {"time": 2129, "pitch": 53, "duration": 16, "velocity": 72}, {"time": 2129, "pitch": 57, "duration": 20, "velocity": 71}, {"time": 2135, "pitch": 36, "duration": 6, "velocity": 71}, {"time": 2141, "pitch": 41, "duration": 6, "velocity": 65}, {"time": 2147, "pitch": 41, "duration": 12, "velocity": 65}, {"time": 2147, "pitch": 48, "duration": 8, "velocity": 65}, {"time": 2153, "pitch": 53, "duration": 5, "velocity": 78}, {"time": 2153, "pitch": 60, "duration": 11, "velocity": 65}, {"time": 2165, "pitch": 36, "duration": 18, "velocity": 71}, {"time": 2171, "pitch": 43, "duration": 6, "velocity": 35}, {"time": 2177, "pitch": 48, "duration": 23, "velocity": 56}, {"time": 2177, "pitch": 55, "duration": 21, "velocity": 70}, {"time": 2177, "pitch": 60, "duration": 21, "velocity": 70}, {"time": 2183, "pitch": 43, "duration": 6, "velocity": 70}, {"time": 2189, "pitch": 36, "duration": 6, "velocity": 71}, {"time": 2195, "pitch": 36, "duration": 16, "velocity": 73}, {"time": 2195, "pitch": 43, "duration": 19, "velocity": 39}, {"time": 2201, "pitch": 60, "duration": 10, "velocity": 81}, {"time": 2201, "pitch": 64, "duration": 22, "velocity": 90}, {"time": 2213, "pitch": 36, "duration": 15, "velocity": 68}, {"time": 2219, "pitch": 43, "duration": 9, "velocity": 39}, {"time": 2225, "pitch": 48, "duration": 11, "velocity": 63}, {"time": 2225, "pitch": 60, "duration": 11, "velocity": 88}, {"time": 2225, "pitch": 64, "duration": 11, "velocity": 55}, {"time": 2231, "pitch": 55, "duration": 7, "velocity": 59}, {"time": 2237, "pitch": 41, "duration": 6, "velocity": 73}, {"time": 2243, "pitch": 41, "duration": 12, "velocity": 78}, {"time": 2249, "pitch": 48, "duration": 8, "velocity": 78}, {"time": 2249, "pitch": 53, "duration": 5, "velocity": 76}, {"time": 2249, "pitch": 60, "duration": 11, "velocity": 88}, {"time": 2261, "pitch": 38, "duration": 21, "velocity": 86}, {"time": 2267, "pitch": 45, "duration": 16, "velocity": 56}, {"time": 2273, "pitch": 50, "duration": 5, "velocity": 72}, {"time": 2273, "pitch": 65, "duration": 12, "velocity": 67}, {"time": 2285, "pitch": 38, "duration": 16, "velocity": 66}, {"time": 2291, "pitch": 45, "duration": 11, "velocity": 41}, {"time": 2297, "pitch": 50, "duration": 11, "velocity": 71}, {"time": 2297, "pitch": 65, "duration": 12, "velocity": 82}, {"time": 2303, "pitch": 62, "duration": 6, "velocity": 75}, {"time": 2309, "pitch": 41, "duration": 18, "velocity": 76}, {"time": 2315, "pitch": 48, "duration": 17, "velocity": 51}, {"time": 2321, "pitch": 53, "duration": 6, "velocity": 79}, {"time": 2321, "pitch": 60, "duration": 45, "velocity": 78}, {"time": 2327, "pitch": 36, "duration": 6, "velocity": 78}, {"time": 2333, "pitch": 41, "duration": 6, "velocity": 78}, {"time": 2333, "pitch": 48, "duration": 17, "velocity": 78}, {"time": 2339, "pitch": 41, "duration": 15, "velocity": 67}, {"time": 2345, "pitch": 57, "duration": 21, "velocity": 75}, {"time": 2351, "pitch": 53, "duration": 11, "velocity": 65}, {"time": 2357, "pitch": 41, "duration": 18, "velocity": 63}, {"time": 2369, "pitch": 48, "duration": 12, "velocity": 50}, {"time": 2369, "pitch": 53, "duration": 12, "velocity": 71}, {"time": 2369, "pitch": 60, "duration": 21, "velocity": 71}, {"time": 2375, "pitch": 36, "duration": 6, "velocity": 81}, {"time": 2381, "pitch": 41, "duration": 6, "velocity": 83}, {"time": 2387, "pitch": 41, "duration": 16, "velocity": 85}, {"time": 2393, "pitch": 48, "duration": 6, "velocity": 76}, {"time": 2393, "pitch": 53, "duration": 5, "velocity": 88}, {"time": 2393, "pitch": 60, "duration": 12, "velocity": 73}, {"time": 2405, "pitch": 41, "duration": 17, "velocity": 86}, {"time": 2411, "pitch": 48, "duration": 9, "velocity": 55}, {"time": 2417, "pitch": 53, "duration": 3, "velocity": 88}, {"time": 2417, "pitch": 65, "duration": 11, "velocity": 89}, {"time": 2417, "pitch": 69, "duration": 11, "velocity": 92}, {"time": 2423, "pitch": 36, "duration": 6, "velocity": 81}, {"time": 2423, "pitch": 60, "duration": 7, "velocity": 80}, {"time": 2429, "pitch": 38, "duration": 6, "velocity": 75}, {"time": 2435, "pitch": 38, "duration": 10, "velocity": 78}, {"time": 2435, "pitch": 45, "duration": 11, "velocity": 63}, {"time": 2441, "pitch": 50, "duration": 9, "velocity": 86}, {"time": 2441, "pitch": 57, "duration": 8, "velocity": 95}, {"time": 2441, "pitch": 62, "duration": 12, "velocity": 88}, {"time": 2441, "pitch": 65, "duration": 13, "velocity": 85}, {"time": 2453, "pitch": 43, "duration": 14, "velocity": 74}, {"time": 2459, "pitch": 50, "duration": 7, "velocity": 72}, {"time": 2465, "pitch": 55, "duration": 6, "velocity": 95}, {"time": 2465, "pitch": 58, "duration": 11, "velocity": 78}, {"time": 2465, "pitch": 62, "duration": 11, "velocity": 78}, {"time": 2471, "pitch": 43, "duration": 6, "velocity": 73}, {"time": 2477, "pitch": 38, "duration": 18, "velocity": 74}, {"time": 2483, "pitch": 45, "duration": 6, "velocity": 84}, {"time": 2483, "pitch": 57, "duration": 5, "velocity": 78}, {"time": 2483, "pitch": 62, "duration": 4, "velocity": 81}, {"time": 2483, "pitch": 65, "duration": 4, "velocity": 71}, {"time": 2489, "pitch": 50, "duration": 4, "velocity": 80}, {"time": 2489, "pitch": 62, "duration": 21, "velocity": 80}, {"time": 2489, "pitch": 65, "duration": 21, "velocity": 80}, {"time": 2495, "pitch": 45, "duration": 6, "velocity": 74}, {"time": 2495, "pitch": 57, "duration": 16, "velocity": 74}, {"time": 2501, "pitch": 38, "duration": 14, "velocity": 73}, {"time": 2507, "pitch": 45, "duration": 9, "velocity": 81}, {"time": 2513, "pitch": 50, "duration": 6, "velocity": 77}, {"time": 2513, "pitch": 62, "duration": 11, "velocity": 92}, {"time": 2513, "pitch": 65, "duration": 11, "velocity": 89}, {"time": 2519, "pitch": 57, "duration": 8, "velocity": 92}, {"time": 2525, "pitch": 43, "duration": 14, "velocity": 77}, {"time": 2531, "pitch": 50, "duration": 7, "velocity": 74}, {"time": 2537, "pitch": 58, "duration": 12, "velocity": 99}, {"time": 2537, "pitch": 62, "duration": 13, "velocity": 88}, {"time": 2543, "pitch": 55, "duration": 7, "velocity": 90}, {"time": 2549, "pitch": 36, "duration": 18, "velocity": 83}, {"time": 2555, "pitch": 43, "duration": 9, "velocity": 62}, {"time": 2561, "pitch": 48, "duration": 10, "velocity": 85}, {"time": 2561, "pitch": 55, "duration": 15, "velocity": 76}, {"time": 2561, "pitch": 60, "duration": 19, "velocity": 85}, {"time": 2561, "pitch": 64, "duration": 20, "velocity": 85}, {"time": 2567, "pitch": 43, "duration": 6, "velocity": 80}, {"time": 2573, "pitch": 36, "duration": 6, "velocity": 76}, {"time": 2579, "pitch": 36, "duration": 15, "velocity": 86}, {"time": 2585, "pitch": 48, "duration": 5, "velocity": 86}, {"time": 2585, "pitch": 60, "duration": 13, "velocity": 99}, {"time": 2585, "pitch": 64, "duration": 13, "velocity": 92}, {"time": 2591, "pitch": 55, "duration": 7, "velocity": 95}, {"time": 2597, "pitch": 36, "duration": 16, "velocity": 85}, {"time": 2603, "pitch": 43, "duration": 11, "velocity": 58}, {"time": 2609, "pitch": 48, "duration": 10, "velocity": 86}, {"time": 2609, "pitch": 60, "duration": 11, "velocity": 93}, {"time": 2609, "pitch": 64, "duration": 12, "velocity": 92}, {"time": 2615, "pitch": 55, "duration": 5, "velocity": 93}, {"time": 2621, "pitch": 41, "duration": 21, "velocity": 79}, {"time": 2627, "pitch": 48, "duration": 9, "velocity": 61}, {"time": 2633, "pitch": 53, "duration": 6, "velocity": 90}, {"time": 2633, "pitch": 65, "duration": 12, "velocity": 96}, {"time": 2633, "pitch": 69, "duration": 12, "velocity": 93}, {"time": 2639, "pitch": 48, "duration": 4, "velocity": 59}, {"time": 2639, "pitch": 60, "duration": 6, "velocity": 92}, {"time": 2645, "pitch": 38, "duration": 21, "velocity": 81}, {"time": 2651, "pitch": 45, "duration": 18, "velocity": 54}, {"time": 2657, "pitch": 50, "duration": 10, "velocity": 76}, {"time": 2657, "pitch": 62, "duration": 20, "velocity": 92}, {"time": 2657, "pitch": 65, "duration": 20, "velocity": 85}, {"time": 2663, "pitch": 57, "duration": 14, "velocity": 93}, {"time": 2669, "pitch": 38, "duration": 16, "velocity": 72}, {"time": 2675, "pitch": 45, "duration": 11, "velocity": 58}, {"time": 2681, "pitch": 50, "duration": 12, "velocity": 93}, {"time": 2681, "pitch": 62, "duration": 13, "velocity": 99}, {"time": 2681, "pitch": 65, "duration": 13, "velocity": 96}, {"time": 2687, "pitch": 57, "duration": 8, "velocity": 75}, {"time": 2693, "pitch": 41, "duration": 15, "velocity": 78}, {"time": 2699, "pitch": 48, "duration": 7, "velocity": 93}, {"time": 2705, "pitch": 57, "duration": 13, "velocity": 96}, {"time": 2705, "pitch": 60, "duration": 11, "velocity": 97}, {"time": 2711, "pitch": 53, "duration": 7, "velocity": 88}, {"time": 2717, "pitch": 36, "duration": 14, "velocity": 89}, {"time": 2723, "pitch": 43, "duration": 8, "velocity": 66}, {"time": 2729, "pitch": 48, "duration": 9, "velocity": 92}, {"time": 2729, "pitch": 60, "duration": 11, "velocity": 93}, {"time": 2729, "pitch": 64, "duration": 11, "velocity": 88}, {"time": 2735, "pitch": 55, "duration": 6, "velocity": 83}, {"time": 2741, "pitch": 41, "duration": 18, "velocity": 79}, {"time": 2747, "pitch": 48, "duration": 18, "velocity": 46}, {"time": 2753, "pitch": 53, "duration": 9, "velocity": 83}, {"time": 2753, "pitch": 60, "duration": 21, "velocity": 83}, {"time": 2753, "pitch": 65, "duration": 21, "velocity": 83}, {"time": 2759, "pitch": 57, "duration": 14, "velocity": 100}, {"time": 2765, "pitch": 41, "duration": 17, "velocity": 72}, {"time": 2771, "pitch": 48, "duration": 10, "velocity": 74}, {"time": 2777, "pitch": 53, "duration": 3, "velocity": 89}, {"time": 2777, "pitch": 60, "duration": 11, "velocity": 95}, {"time": 2777, "pitch": 65, "duration": 11, "velocity": 92}, {"time": 2783, "pitch": 57, "duration": 5, "velocity": 97}, {"time": 2789, "pitch": 41, "duration": 15, "velocity": 78}, {"time": 2795, "pitch": 48, "duration": 7, "velocity": 93}, {"time": 2801, "pitch": 57, "duration": 13, "velocity": 96}, {"time": 2801, "pitch": 60, "duration": 11, "velocity": 97}, {"time": 2807, "pitch": 53, "duration": 7, "velocity": 88}, {"time": 2813, "pitch": 36, "duration": 14, "velocity": 89}, {"time": 2819, "pitch": 43, "duration": 8, "velocity": 66}, {"time": 2825, "pitch": 48, "duration": 9, "velocity": 92}, {"time": 2825, "pitch": 60, "duration": 11, "velocity": 93}, {"time": 2825, "pitch": 64, "duration": 11, "velocity": 88}, {"time": 2831, "pitch": 55, "duration": 6, "velocity": 83}, {"time": 2837, "pitch": 41, "duration": 22, "velocity": 79}, {"time": 2843, "pitch": 48, "duration": 18, "velocity": 46}, {"time": 2849, "pitch": 53, "duration": 9, "velocity": 83}, {"time": 2849, "pitch": 60, "duration": 21, "velocity": 83}, {"time": 2849, "pitch": 65, "duration": 21, "velocity": 83}, {"time": 2855, "pitch": 57, "duration": 14, "velocity": 100}, {"time": 2861, "pitch": 41, "duration": 17, "velocity": 72}, {"time": 2867, "pitch": 48, "duration": 10, "velocity": 74}, {"time": 2873, "pitch": 53, "duration": 3, "velocity": 89}, {"time": 2873, "pitch": 60, "duration": 11, "velocity": 95}, {"time": 2873, "pitch": 65, "duration": 11, "velocity": 92}, {"time": 2879, "pitch": 57, "duration": 5, "velocity": 97}], "annotations": [{"time": 0, "annotation": {"number": 7, "value": 101}, "group": "control_change"}, {"time": 6, "annotation": {"number": 64, "value": 127}, "group": "control_change"}, {"time": 9, "annotation": {"number": 64, "value": 0}, "group": "control_change"}, {"time": 16, "annotation": {"number": 64, "value": 127}, "group": "control_change"}, {"time": 25, "annotation": {"number": 64, "value": 0}, "group": "control_change"}, {"time": 30, "annotation": {"number": 64, "value": 127}, "group": "control_change"}, {"time": 50, "annotation": {"number": 64, "value": 0}, "group": "control_change"}, {"time": 52, "annotation": {"number": 64, "value": 127}, "group": "control_change"}, {"time": 74, "annotation": {"number": 64, "value": 0}, "group": "control_change"}, {"time": 76, "annotation": {"number": 64, "value": 127}, "group": "control_change"}, {"time": 97, "annotation": {"number": 64, "value": 0}, "group": "control_change"}, {"time": 102, "annotation": {"number": 64, "value": 127}, "group": "control_change"}, {"time": 121, "annotation": {"number": 64, "value": 0}, "group": "control_change"}, {"time": 126, "annotation": {"number": 64, "value": 127}, "group": "control_change"}, {"time": 147, "annotation": {"number": 64, "value": 0}, "group": "control_change"}, {"time": 149, "annotation": {"number": 64, "value": 127}, "group": "control_change"}, {"time": 171, "annotation": {"number": 64, "value": 0}, "group": "control_change"}, {"time": 173, "annotation": {"number": 64, "value": 127}, "group": "control_change"}, {"time": 194, "annotation": {"number": 64, "value": 0}, "group": "control_change"}, {"time": 197, "annotation": {"number": 64, "value": 127}, "group": "control_change"}, {"time": 217, "annotation": {"number": 64, "value": 0}, "group": "control_change"}, {"time": 221, "annotation": {"number": 64, "value": 127}, "group": "control_change"}, {"time": 240, "annotation": {"number": 64, "value": 0}, "group": "control_change"}, {"time": 245, "annotation": {"number": 64, "value": 127}, "group": "control_change"}, {"time": 266, "annotation": {"number": 64, "value": 0}, "group": "control_change"}, {"time": 269, "annotation": {"number": 64, "value": 127}, "group": "control_change"}, {"time": 290, "annotation": {"number": 64, "value": 0}, "group": "control_change"}, {"time": 294, "annotation": {"number": 64, "value": 127}, "group": "control_change"}, {"time": 312, "annotation": {"number": 64, "value": 0}, "group": "control_change"}, {"time": 316, "annotation": {"number": 64, "value": 127}, "group": "control_change"}, {"time": 338, "annotation": {"number": 64, "value": 0}, "group": "control_change"}, {"time": 341, "annotation": {"number": 64, "value": 127}, "group": "control_change"}, {"time": 360, "annotation": {"number": 64, "value": 0}, "group": "control_change"}, {"time": 365, "annotation": {"number": 64, "value": 127}, "group": "control_change"}, {"time": 385, "annotation": {"number": 64, "value": 0}, "group": "control_change"}, {"time": 389, "annotation": {"number": 64, "value": 127}, "group": "control_change"}, {"time": 410, "annotation": {"number": 64, "value": 0}, "group": "control_change"}, {"time": 413, "annotation": {"number": 64, "value": 127}, "group": "control_change"}, {"time": 434, "annotation": {"number": 64, "value": 0}, "group": "control_change"}, {"time": 437, "annotation": {"number": 64, "value": 127}, "group": "control_change"}, {"time": 459, "annotation": {"number": 64, "value": 0}, "group": "control_change"}, {"time": 462, "annotation": {"number": 64, "value": 127}, "group": "control_change"}, {"time": 482, "annotation": {"number": 64, "value": 0}, "group": "control_change"}, {"time": 485, "annotation": {"number": 64, "value": 127}, "group": "control_change"}, {"time": 506, "annotation": {"number": 64, "value": 0}, "group": "control_change"}, {"time": 509, "annotation": {"number": 64, "value": 127}, "group": "control_change"}, {"time": 529, "annotation": {"number": 64, "value": 0}, "group": "control_change"}, {"time": 532, "annotation": {"number": 64, "value": 127}, "group": "control_change"}, {"time": 554, "annotation": {"number": 64, "value": 0}, "group": "control_change"}, {"time": 556, "annotation": {"number": 64, "value": 127}, "group": "control_change"}, {"time": 578, "annotation": {"number": 64, "value": 0}, "group": "control_change"}, {"time": 580, "annotation": {"number": 64, "value": 127}, "group": "control_change"}, {"time": 581, "annotation": {"number": 64, "value": 127}, "group": "control_change"}, {"time": 603, "annotation": {"number": 64, "value": 0}, "group": "control_change"}, {"time": 605, "annotation": {"number": 64, "value": 127}, "group": "control_change"}, {"time": 627, "annotation": {"number": 64, "value": 0}, "group": "control_change"}, {"time": 629, "annotation": {"number": 64, "value": 127}, "group": "control_change"}, {"time": 650, "annotation": {"number": 64, "value": 0}, "group": "control_change"}, {"time": 653, "annotation": {"number": 64, "value": 127}, "group": "control_change"}, {"time": 674, "annotation": {"number": 64, "value": 0}, "group": "control_change"}, {"time": 677, "annotation": {"number": 64, "value": 127}, "group": "control_change"}, {"time": 698, "annotation": {"number": 64, "value": 0}, "group": "control_change"}, {"time": 700, "annotation": {"number": 64, "value": 127}, "group": "control_change"}, {"time": 722, "annotation": {"number": 64, "value": 0}, "group": "control_change"}, {"time": 724, "annotation": {"number": 64, "value": 127}, "group": "control_change"}, {"time": 746, "annotation": {"number": 64, "value": 0}, "group": "control_change"}, {"time": 749, "annotation": {"number": 64, "value": 127}, "group": "control_change"}, {"time": 770, "annotation": {"number": 64, "value": 0}, "group": "control_change"}, {"time": 773, "annotation": {"number": 64, "value": 127}, "group": "control_change"}, {"time": 795, "annotation": {"number": 64, "value": 0}, "group": "control_change"}, {"time": 797, "annotation": {"number": 64, "value": 127}, "group": "control_change"}, {"time": 819, "annotation": {"number": 64, "value": 0}, "group": "control_change"}, {"time": 821, "annotation": {"number": 64, "value": 127}, "group": "control_change"}, {"time": 842, "annotation": {"number": 64, "value": 0}, "group": "control_change"}, {"time": 844, "annotation": {"number": 64, "value": 127}, "group": "control_change"}, {"time": 866, "annotation": {"number": 64, "value": 0}, "group": "control_change"}, {"time": 868, "annotation": {"number": 64, "value": 127}, "group": "control_change"}, {"time": 889, "annotation": {"number": 64, "value": 0}, "group": "control_change"}, {"time": 892, "annotation": {"number": 64, "value": 127}, "group": "control_change"}, {"time": 914, "annotation": {"number": 64, "value": 0}, "group": "control_change"}, {"time": 916, "annotation": {"number": 64, "value": 127}, "group": "control_change"}, {"time": 938, "annotation": {"number": 64, "value": 0}, "group": "control_change"}, {"time": 940, "annotation": {"number": 64, "value": 127}, "group": "control_change"}, {"time": 961, "annotation": {"number": 64, "value": 0}, "group": "control_change"}, {"time": 964, "annotation": {"number": 64, "value": 127}, "group": "control_change"}, {"time": 987, "annotation": {"number": 64, "value": 0}, "group": "control_change"}, {"time": 989, "annotation": {"number": 64, "value": 127}, "group": "control_change"}, {"time": 1010, "annotation": {"number": 64, "value": 0}, "group": "control_change"}, {"time": 1013, "annotation": {"number": 64, "value": 127}, "group": "control_change"}, {"time": 1034, "annotation": {"number": 64, "value": 0}, "group": "control_change"}, {"time": 1037, "annotation": {"number": 64, "value": 127}, "group": "control_change"}, {"time": 1054, "annotation": {"number": 64, "value": 0}, "group": "control_change"}, {"time": 1061, "annotation": {"number": 64, "value": 127}, "group": "control_change"}, {"time": 1081, "annotation": {"number": 64, "value": 0}, "group": "control_change"}, {"time": 1085, "annotation": {"number": 64, "value": 127}, "group": "control_change"}, {"time": 1104, "annotation": {"number": 64, "value": 0}, "group": "control_change"}, {"time": 1109, "annotation": {"number": 64, "value": 127}, "group": "control_change"}, {"time": 1130, "annotation": {"number": 64, "value": 0}, "group": "control_change"}, {"time": 1133, "annotation": {"number": 64, "value": 127}, "group": "control_change"}, {"time": 1154, "annotation": {"number": 64, "value": 0}, "group": "control_change"}, {"time": 1158, "annotation": {"number": 64, "value": 127}, "group": "control_change"}, {"time": 1176, "annotation": {"number": 64, "value": 0}, "group": "control_change"}, {"time": 1180, "annotation": {"number": 64, "value": 127}, "group": "control_change"}, {"time": 1202, "annotation": {"number": 64, "value": 0}, "group": "control_change"}, {"time": 1205, "annotation": {"number": 64, "value": 127}, "group": "control_change"}, {"time": 1224, "annotation": {"number": 64, "value": 0}, "group": "control_change"}, {"time": 1229, "annotation": {"number": 64, "value": 127}, "group": "control_change"}, {"time": 1249, "annotation": {"number": 64, "value": 0}, "group": "control_change"}, {"time": 1253, "annotation": {"number": 64, "value": 127}, "group": "control_change"}, {"time": 1274, "annotation": {"number": 64, "value": 0}, "group": "control_change"}, {"time": 1277, "annotation": {"number": 64, "value": 127}, "group": "control_change"}, {"time": 1298, "annotation": {"number": 64, "value": 0}, "group": "control_change"}, {"time": 1301, "annotation": {"number": 64, "value": 127}, "group": "control_change"}, {"time": 1323, "annotation": {"number": 64, "value": 0}, "group": "control_change"}, {"time": 1326, "annotation": {"number": 64, "value": 127}, "group": "control_change"}, {"time": 1346, "annotation": {"number": 64, "value": 0}, "group": "control_change"}, {"time": 1349, "annotation": {"number": 64, "value": 127}, "group": "control_change"}, {"time": 1370, "annotation": {"number": 64, "value": 0}, "group": "control_change"}, {"time": 1373, "annotation": {"number": 64, "value": 127}, "group": "control_change"}, {"time": 1393, "annotation": {"number": 64, "value": 0}, "group": "control_change"}, {"time": 1396, "annotation": {"number": 64, "value": 127}, "group": "control_change"}, {"time": 1418, "annotation": {"number": 64, "value": 0}, "group": "control_change"}, {"time": 1420, "annotation": {"number": 64, "value": 127}, "group": "control_change"}, {"time": 1442, "annotation": {"number": 64, "value": 0}, "group": "control_change"}, {"time": 1444, "annotation": {"number": 64, "value": 127}, "group": "control_change"}, {"time": 1445, "annotation": {"number": 64, "value": 127}, "group": "control_change"}, {"time": 1467, "annotation": {"number": 64, "value": 0}, "group": "control_change"}, {"time": 1469, "annotation": {"number": 64, "value": 127}, "group": "control_change"}, {"time": 1491, "annotation": {"number": 64, "value": 0}, "group": "control_change"}, {"time": 1493, "annotation": {"number": 64, "value": 127}, "group": "control_change"}, {"time": 1514, "annotation": {"number": 64, "value": 0}, "group": "control_change"}, {"time": 1515, "annotation": {"number": 64, "value": 0}, "group": "control_change"}, {"time": 1517, "annotation": {"number": 64, "value": 127}, "group": "control_change"}, {"time": 1538, "annotation": {"number": 64, "value": 0}, "group": "control_change"}, {"time": 1539, "annotation": {"number": 64, "value": 0}, "group": "control_change"}, {"time": 1541, "annotation": {"number": 64, "value": 127}, "group": "control_change"}, {"time": 1562, "annotation": {"number": 64, "value": 0}, "group": "control_change"}, {"time": 1564, "annotation": {"number": 64, "value": 127}, "group": "control_change"}, {"time": 1586, "annotation": {"number": 64, "value": 0}, "group": "control_change"}, {"time": 1588, "annotation": {"number": 64, "value": 127}, "group": "control_change"}, {"time": 1589, "annotation": {"number": 64, "value": 127}, "group": "control_change"}, {"time": 1610, "annotation": {"number": 64, "value": 0}, "group": "control_change"}, {"time": 1613, "annotation": {"number": 64, "value": 127}, "group": "control_change"}, {"time": 1634, "annotation": {"number": 64, "value": 0}, "group": "control_change"}, {"time": 1637, "annotation": {"number": 64, "value": 127}, "group": "control_change"}, {"time": 1659, "annotation": {"number": 64, "value": 0}, "group": "control_change"}, {"time": 1661, "annotation": {"number": 64, "value": 127}, "group": "control_change"}, {"time": 1683, "annotation": {"number": 64, "value": 0}, "group": "control_change"}, {"time": 1685, "annotation": {"number": 64, "value": 127}, "group": "control_change"}, {"time": 1706, "annotation": {"number": 64, "value": 0}, "group": "control_change"}, {"time": 1707, "annotation": {"number": 64, "value": 0}, "group": "control_change"}, {"time": 1708, "annotation": {"number": 64, "value": 127}, "group": "control_change"}, {"time": 1709, "annotation": {"number": 64, "value": 127}, "group": "control_change"}, {"time": 1730, "annotation": {"number": 64, "value": 0}, "group": "control_change"}, {"time": 1731, "annotation": {"number": 64, "value": 0}, "group": "control_change"}, {"time": 1732, "annotation": {"number": 64, "value": 127}, "group": "control_change"}, {"time": 1753, "annotation": {"number": 64, "value": 0}, "group": "control_change"}, {"time": 1754, "annotation": {"number": 64, "value": 0}, "group": "control_change"}, {"time": 1756, "annotation": {"number": 64, "value": 127}, "group": "control_change"}, {"time": 1778, "annotation": {"number": 64, "value": 0}, "group": "control_change"}, {"time": 1780, "annotation": {"number": 64, "value": 127}, "group": "control_change"}, {"time": 1802, "annotation": {"number": 64, "value": 0}, "group": "control_change"}, {"time": 1805, "annotation": {"number": 64, "value": 127}, "group": "control_change"}, {"time": 1826, "annotation": {"number": 64, "value": 0}, "group": "control_change"}, {"time": 1830, "annotation": {"number": 64, "value": 127}, "group": "control_change"}, {"time": 1833, "annotation": {"number": 64, "value": 0}, "group": "control_change"}, {"time": 1840, "annotation": {"number": 64, "value": 127}, "group": "control_change"}, {"time": 1849, "annotation": {"number": 64, "value": 0}, "group": "control_change"}, {"time": 1854, "annotation": {"number": 64, "value": 127}, "group": "control_change"}, {"time": 1874, "annotation": {"number": 64, "value": 0}, "group": "control_change"}, {"time": 1876, "annotation": {"number": 64, "value": 127}, "group": "control_change"}, {"time": 1898, "annotation": {"number": 64, "value": 0}, "group": "control_change"}, {"time": 1900, "annotation": {"number": 64, "value": 127}, "group": "control_change"}, {"time": 1921, "annotation": {"number": 64, "value": 0}, "group": "control_change"}, {"time": 1926, "annotation": {"number": 64, "value": 127}, "group": "control_change"}, {"time": 1945, "annotation": {"number": 64, "value": 0}, "group": "control_change"}, {"time": 1950, "annotation": {"number": 64, "value": 127}, "group": "control_change"}, {"time": 1971, "annotation": {"number": 64, "value": 0}, "group": "control_change"}, {"time": 1973, "annotation": {"number": 64, "value": 127}, "group": "control_change"}, {"time": 1995, "annotation": {"number": 64, "value": 0}, "group": "control_change"}, {"time": 1997, "annotation": {"number": 64, "value": 127}, "group": "control_change"}, {"time": 2018, "annotation": {"number": 64, "value": 0}, "group": "control_change"}, {"time": 2021, "annotation": {"number": 64, "value": 127}, "group": "control_change"}, {"time": 2041, "annotation": {"number": 64, "value": 0}, "group": "control_change"}, {"time": 2045, "annotation": {"number": 64, "value": 127}, "group": "control_change"}, {"time": 2064, "annotation": {"number": 64, "value": 0}, "group": "control_change"}, {"time": 2069, "annotation": {"number": 64, "value": 127}, "group": "control_change"}, {"time": 2090, "annotation": {"number": 64, "value": 0}, "group": "control_change"}, {"time": 2093, "annotation": {"number": 64, "value": 127}, "group": "control_change"}, {"time": 2114, "annotation": {"number": 64, "value": 0}, "group": "control_change"}, {"time": 2118, "annotation": {"number": 64, "value": 127}, "group": "control_change"}, {"time": 2136, "annotation": {"number": 64, "value": 0}, "group": "control_change"}, {"time": 2140, "annotation": {"number": 64, "value": 127}, "group": "control_change"}, {"time": 2162, "annotation": {"number": 64, "value": 0}, "group": "control_change"}, {"time": 2165, "annotation": {"number": 64, "value": 127}, "group": "control_change"}, {"time": 2184, "annotation": {"number": 64, "value": 0}, "group": "control_change"}, {"time": 2189, "annotation": {"number": 64, "value": 127}, "group": "control_change"}, {"time": 2209, "annotation": {"number": 64, "value": 0}, "group": "control_change"}, {"time": 2213, "annotation": {"number": 64, "value": 127}, "group": "control_change"}, {"time": 2234, "annotation": {"number": 64, "value": 0}, "group": "control_change"}, {"time": 2237, "annotation": {"number": 64, "value": 127}, "group": "control_change"}, {"time": 2258, "annotation": {"number": 64, "value": 0}, "group": "control_change"}, {"time": 2261, "annotation": {"number": 64, "value": 127}, "group": "control_change"}, {"time": 2283, "annotation": {"number": 64, "value": 0}, "group": "control_change"}, {"time": 2286, "annotation": {"number": 64, "value": 127}, "group": "control_change"}, {"time": 2306, "annotation": {"number": 64, "value": 0}, "group": "control_change"}, {"time": 2309, "annotation": {"number": 64, "value": 127}, "group": "control_change"}, {"time": 2330, "annotation": {"number": 64, "value": 0}, "group": "control_change"}, {"time": 2333, "annotation": {"number": 64, "value": 127}, "group": "control_change"}, {"time": 2353, "annotation": {"number": 64, "value": 0}, "group": "control_change"}, {"time": 2356, "annotation": {"number": 64, "value": 127}, "group": "control_change"}, {"time": 2378, "annotation": {"number": 64, "value": 0}, "group": "control_change"}, {"time": 2380, "annotation": {"number": 64, "value": 127}, "group": "control_change"}, {"time": 2402, "annotation": {"number": 64, "value": 0}, "group": "control_change"}, {"time": 2404, "annotation": {"number": 64, "value": 127}, "group": "control_change"}, {"time": 2405, "annotation": {"number": 64, "value": 127}, "group": "control_change"}, {"time": 2427, "annotation": {"number": 64, "value": 0}, "group": "control_change"}, {"time": 2429, "annotation": {"number": 64, "value": 127}, "group": "control_change"}, {"time": 2451, "annotation": {"number": 64, "value": 0}, "group": "control_change"}, {"time": 2453, "annotation": {"number": 64, "value": 127}, "group": "control_change"}, {"time": 2474, "annotation": {"number": 64, "value": 0}, "group": "control_change"}, {"time": 2477, "annotation": {"number": 64, "value": 127}, "group": "control_change"}, {"time": 2498, "annotation": {"number": 64, "value": 0}, "group": "control_change"}, {"time": 2501, "annotation": {"number": 64, "value": 127}, "group": "control_change"}, {"time": 2522, "annotation": {"number": 64, "value": 0}, "group": "control_change"}, {"time": 2524, "annotation": {"number": 64, "value": 127}, "group": "control_change"}, {"time": 2546, "annotation": {"number": 64, "value": 0}, "group": "control_change"}, {"time": 2548, "annotation": {"number": 64, "value": 127}, "group": "control_change"}, {"time": 2570, "annotation": {"number": 64, "value": 0}, "group": "control_change"}, {"time": 2573, "annotation": {"number": 64, "value": 127}, "group": "control_change"}, {"time": 2594, "annotation": {"number": 64, "value": 0}, "group": "control_change"}, {"time": 2597, "annotation": {"number": 64, "value": 127}, "group": "control_change"}, {"time": 2619, "annotation": {"number": 64, "value": 0}, "group": "control_change"}, {"time": 2621, "annotation": {"number": 64, "value": 127}, "group": "control_change"}, {"time": 2643, "annotation": {"number": 64, "value": 0}, "group": "control_change"}, {"time": 2645, "annotation": {"number": 64, "value": 127}, "group": "control_change"}, {"time": 2666, "annotation": {"number": 64, "value": 0}, "group": "control_change"}, {"time": 2668, "annotation": {"number": 64, "value": 127}, "group": "control_change"}, {"time": 2690, "annotation": {"number": 64, "value": 0}, "group": "control_change"}, {"time": 2692, "annotation": {"number": 64, "value": 127}, "group": "control_change"}, {"time": 2713, "annotation": {"number": 64, "value": 0}, "group": "control_change"}, {"time": 2716, "annotation": {"number": 64, "value": 127}, "group": "control_change"}, {"time": 2738, "annotation": {"number": 64, "value": 0}, "group": "control_change"}, {"time": 2740, "annotation": {"number": 64, "value": 127}, "group": "control_change"}, {"time": 2754, "annotation": {"number": 7, "value": 94}, "group": "control_change"}, {"time": 2756, "annotation": {"number": 7, "value": 93}, "group": "control_change"}, {"time": 2757, "annotation": {"number": 7, "value": 92}, "group": "control_change"}, {"time": 2759, "annotation": {"number": 7, "value": 90}, "group": "control_change"}, {"time": 2760, "annotation": {"number": 7, "value": 89}, "group": "control_change"}, {"time": 2762, "annotation": {"number": 7, "value": 88}, "group": "control_change"}, {"time": 2762, "annotation": {"number": 64, "value": 0}, "group": "control_change"}, {"time": 2763, "annotation": {"number": 7, "value": 86}, "group": "control_change"}, {"time": 2765, "annotation": {"number": 64, "value": 127}, "group": "control_change"}, {"time": 2765, "annotation": {"number": 7, "value": 85}, "group": "control_change"}, {"time": 2766, "annotation": {"number": 7, "value": 84}, "group": "control_change"}, {"time": 2768, "annotation": {"number": 7, "value": 82}, "group": "control_change"}, {"time": 2769, "annotation": {"number": 7, "value": 81}, "group": "control_change"}, {"time": 2771, "annotation": {"number": 7, "value": 80}, "group": "control_change"}, {"time": 2772, "annotation": {"number": 7, "value": 78}, "group": "control_change"}, {"time": 2774, "annotation": {"number": 7, "value": 77}, "group": "control_change"}, {"time": 2775, "annotation": {"number": 7, "value": 76}, "group": "control_change"}, {"time": 2777, "annotation": {"number": 7, "value": 74}, "group": "control_change"}, {"time": 2778, "annotation": {"number": 7, "value": 73}, "group": "control_change"}, {"time": 2780, "annotation": {"number": 7, "value": 72}, "group": "control_change"}, {"time": 2781, "annotation": {"number": 7, "value": 70}, "group": "control_change"}, {"time": 2783, "annotation": {"number": 7, "value": 69}, "group": "control_change"}, {"time": 2784, "annotation": {"number": 7, "value": 68}, "group": "control_change"}, {"time": 2786, "annotation": {"number": 64, "value": 0}, "group": "control_change"}, {"time": 2786, "annotation": {"number": 7, "value": 66}, "group": "control_change"}, {"time": 2787, "annotation": {"number": 7, "value": 65}, "group": "control_change"}, {"time": 2789, "annotation": {"number": 7, "value": 64}, "group": "control_change"}, {"time": 2790, "annotation": {"number": 7, "value": 62}, "group": "control_change"}, {"time": 2792, "annotation": {"number": 7, "value": 61}, "group": "control_change"}, {"time": 2793, "annotation": {"number": 7, "value": 60}, "group": "control_change"}, {"time": 2795, "annotation": {"number": 7, "value": 58}, "group": "control_change"}, {"time": 2796, "annotation": {"number": 7, "value": 57}, "group": "control_change"}, {"time": 2798, "annotation": {"number": 7, "value": 56}, "group": "control_change"}, {"time": 2799, "annotation": {"number": 7, "value": 54}, "group": "control_change"}, {"time": 2801, "annotation": {"number": 7, "value": 53}, "group": "control_change"}, {"time": 2802, "annotation": {"number": 7, "value": 52}, "group": "control_change"}, {"time": 2804, "annotation": {"number": 7, "value": 50}, "group": "control_change"}, {"time": 2805, "annotation": {"number": 7, "value": 49}, "group": "control_change"}, {"time": 2807, "annotation": {"number": 7, "value": 48}, "group": "control_change"}, {"time": 2808, "annotation": {"number": 7, "value": 46}, "group": "control_change"}, {"time": 2810, "annotation": {"number": 7, "value": 45}, "group": "control_change"}, {"time": 2810, "annotation": {"number": 64, "value": 0}, "group": "control_change"}, {"time": 2811, "annotation": {"number": 7, "value": 44}, "group": "control_change"}, {"time": 2812, "annotation": {"number": 64, "value": 127}, "group": "control_change"}, {"time": 2813, "annotation": {"number": 7, "value": 42}, "group": "control_change"}, {"time": 2814, "annotation": {"number": 7, "value": 41}, "group": "control_change"}, {"time": 2816, "annotation": {"number": 7, "value": 40}, "group": "control_change"}, {"time": 2817, "annotation": {"number": 7, "value": 38}, "group": "control_change"}, {"time": 2819, "annotation": {"number": 7, "value": 37}, "group": "control_change"}, {"time": 2820, "annotation": {"number": 7, "value": 36}, "group": "control_change"}, {"time": 2822, "annotation": {"number": 7, "value": 34}, "group": "control_change"}, {"time": 2823, "annotation": {"number": 7, "value": 33}, "group": "control_change"}, {"time": 2825, "annotation": {"number": 7, "value": 32}, "group": "control_change"}, {"time": 2826, "annotation": {"number": 7, "value": 30}, "group": "control_change"}, {"time": 2828, "annotation": {"number": 7, "value": 29}, "group": "control_change"}, {"time": 2829, "annotation": {"number": 7, "value": 28}, "group": "control_change"}, {"time": 2831, "annotation": {"number": 7, "value": 26}, "group": "control_change"}, {"time": 2832, "annotation": {"number": 7, "value": 25}, "group": "control_change"}, {"time": 2834, "annotation": {"number": 7, "value": 24}, "group": "control_change"}, {"time": 2834, "annotation": {"number": 64, "value": 0}, "group": "control_change"}, {"time": 2835, "annotation": {"number": 7, "value": 22}, "group": "control_change"}, {"time": 2836, "annotation": {"number": 64, "value": 127}, "group": "control_change"}, {"time": 2837, "annotation": {"number": 7, "value": 21}, "group": "control_change"}, {"time": 2838, "annotation": {"number": 7, "value": 20}, "group": "control_change"}, {"time": 2840, "annotation": {"number": 7, "value": 18}, "group": "control_change"}, {"time": 2841, "annotation": {"number": 7, "value": 17}, "group": "control_change"}, {"time": 2843, "annotation": {"number": 7, "value": 16}, "group": "control_change"}, {"time": 2844, "annotation": {"number": 7, "value": 14}, "group": "control_change"}, {"time": 2846, "annotation": {"number": 7, "value": 13}, "group": "control_change"}, {"time": 2847, "annotation": {"number": 7, "value": 12}, "group": "control_change"}, {"time": 2849, "annotation": {"number": 7, "value": 10}, "group": "control_change"}, {"time": 2850, "annotation": {"number": 7, "value": 9}, "group": "control_change"}, {"time": 2852, "annotation": {"number": 7, "value": 8}, "group": "control_change"}, {"time": 2853, "annotation": {"number": 7, "value": 6}, "group": "control_change"}, {"time": 2855, "annotation": {"number": 7, "value": 5}, "group": "control_change"}, {"time": 2856, "annotation": {"number": 7, "value": 4}, "group": "control_change"}, {"time": 2858, "annotation": {"number": 7, "value": 2}, "group": "control_change"}, {"time": 2858, "annotation": {"number": 64, "value": 0}, "group": "control_change"}, {"time": 2859, "annotation": {"number": 7, "value": 1}, "group": "control_change"}, {"time": 2860, "annotation": {"number": 7, "value": 0}, "group": "control_change"}, {"time": 2861, "annotation": {"number": 64, "value": 127}, "group": "control_change"}, {"time": 2882, "annotation": {"number": 64, "value": 0}, "group": "control_change"}]}]}