{"metadata": {"schema_version": "0.2", "title": "None", "source_filename": "731.mid", "source_format": "midi"}, "resolution": 12, "tempos": [{"time": 0, "qpm": 68.0000725334107}], "time_signatures": [{"time": 0, "numerator": 1, "denominator": 4}], "tracks": [{"program": 0, "is_drum": false, "name": "MELODY", "notes": [{"time": 207, "pitch": 59, "duration": 5, "velocity": 89}, {"time": 213, "pitch": 59, "duration": 5, "velocity": 100}, {"time": 219, "pitch": 59, "duration": 2, "velocity": 92}, {"time": 222, "pitch": 59, "duration": 2, "velocity": 93}, {"time": 228, "pitch": 54, "duration": 13, "velocity": 92}, {"time": 243, "pitch": 54, "duration": 2, "velocity": 74}, {"time": 246, "pitch": 61, "duration": 6, "velocity": 79}, {"time": 255, "pitch": 63, "duration": 4, "velocity": 89}, {"time": 258, "pitch": 59, "duration": 17, "velocity": 65}, {"time": 303, "pitch": 59, "duration": 3, "velocity": 95}, {"time": 309, "pitch": 59, "duration": 3, "velocity": 97}, {"time": 315, "pitch": 59, "duration": 2, "velocity": 95}, {"time": 318, "pitch": 59, "duration": 2, "velocity": 92}, {"time": 324, "pitch": 59, "duration": 3, "velocity": 100}, {"time": 333, "pitch": 59, "duration": 3, "velocity": 86}, {"time": 339, "pitch": 51, "duration": 4, "velocity": 76}, {"time": 345, "pitch": 52, "duration": 8, "velocity": 95}, {"time": 354, "pitch": 59, "duration": 22, "velocity": 86}, {"time": 399, "pitch": 59, "duration": 3, "velocity": 100}, {"time": 405, "pitch": 59, "duration": 3, "velocity": 93}, {"time": 411, "pitch": 59, "duration": 2, "velocity": 89}, {"time": 414, "pitch": 59, "duration": 7, "velocity": 88}, {"time": 423, "pitch": 59, "duration": 2, "velocity": 95}, {"time": 426, "pitch": 61, "duration": 8, "velocity": 97}, {"time": 435, "pitch": 63, "duration": 2, "velocity": 102}, {"time": 441, "pitch": 64, "duration": 6, "velocity": 100}, {"time": 447, "pitch": 59, "duration": 2, "velocity": 90}, {"time": 450, "pitch": 61, "duration": 5, "velocity": 95}, {"time": 459, "pitch": 59, "duration": 21, "velocity": 95}, {"time": 495, "pitch": 63, "duration": 4, "velocity": 93}, {"time": 501, "pitch": 63, "duration": 5, "velocity": 95}, {"time": 507, "pitch": 66, "duration": 5, "velocity": 100}, {"time": 513, "pitch": 66, "duration": 5, "velocity": 99}, {"time": 519, "pitch": 59, "duration": 4, "velocity": 90}, {"time": 525, "pitch": 59, "duration": 5, "velocity": 97}, {"time": 531, "pitch": 56, "duration": 5, "velocity": 95}, {"time": 537, "pitch": 63, "duration": 11, "velocity": 107}, {"time": 555, "pitch": 64, "duration": 3, "velocity": 93}, {"time": 558, "pitch": 61, "duration": 18, "velocity": 90}, {"time": 639, "pitch": 54, "duration": 3, "velocity": 92}, {"time": 642, "pitch": 59, "duration": 9, "velocity": 92}, {"time": 651, "pitch": 61, "duration": 3, "velocity": 99}, {"time": 654, "pitch": 63, "duration": 9, "velocity": 97}, {"time": 663, "pitch": 61, "duration": 5, "velocity": 99}, {"time": 669, "pitch": 59, "duration": 6, "velocity": 93}, {"time": 675, "pitch": 58, "duration": 7, "velocity": 88}, {"time": 681, "pitch": 59, "duration": 8, "velocity": 93}, {"time": 687, "pitch": 59, "duration": 2, "velocity": 96}, {"time": 690, "pitch": 59, "duration": 5, "velocity": 82}, {"time": 699, "pitch": 61, "duration": 3, "velocity": 90}, {"time": 702, "pitch": 63, "duration": 8, "velocity": 95}, {"time": 711, "pitch": 61, "duration": 1, "velocity": 96}, {"time": 714, "pitch": 59, "duration": 8, "velocity": 88}, {"time": 720, "pitch": 61, "duration": 9, "velocity": 83}, {"time": 735, "pitch": 66, "duration": 4, "velocity": 97}, {"time": 741, "pitch": 66, "duration": 4, "velocity": 100}, {"time": 747, "pitch": 66, "duration": 2, "velocity": 93}, {"time": 750, "pitch": 66, "duration": 3, "velocity": 100}, {"time": 756, "pitch": 58, "duration": 4, "velocity": 90}, {"time": 762, "pitch": 59, "duration": 7, "velocity": 85}, {"time": 774, "pitch": 56, "duration": 2, "velocity": 97}, {"time": 777, "pitch": 61, "duration": 5, "velocity": 100}, {"time": 783, "pitch": 63, "duration": 2, "velocity": 93}, {"time": 786, "pitch": 64, "duration": 5, "velocity": 99}, {"time": 795, "pitch": 63, "duration": 2, "velocity": 86}, {"time": 798, "pitch": 61, "duration": 7, "velocity": 88}, {"time": 807, "pitch": 63, "duration": 10, "velocity": 95}, {"time": 831, "pitch": 54, "duration": 3, "velocity": 96}, {"time": 834, "pitch": 59, "duration": 8, "velocity": 122}, {"time": 843, "pitch": 61, "duration": 3, "velocity": 102}, {"time": 846, "pitch": 63, "duration": 7, "velocity": 117}, {"time": 855, "pitch": 61, "duration": 2, "velocity": 102}, {"time": 858, "pitch": 59, "duration": 7, "velocity": 95}, {"time": 867, "pitch": 58, "duration": 3, "velocity": 93}, {"time": 870, "pitch": 59, "duration": 9, "velocity": 96}, {"time": 879, "pitch": 59, "duration": 1, "velocity": 96}, {"time": 882, "pitch": 59, "duration": 4, "velocity": 97}, {"time": 888, "pitch": 61, "duration": 4, "velocity": 102}, {"time": 894, "pitch": 63, "duration": 6, "velocity": 102}, {"time": 903, "pitch": 64, "duration": 2, "velocity": 99}, {"time": 906, "pitch": 63, "duration": 6, "velocity": 89}, {"time": 915, "pitch": 59, "duration": 7, "velocity": 99}, {"time": 927, "pitch": 66, "duration": 4, "velocity": 117}, {"time": 933, "pitch": 66, "duration": 4, "velocity": 117}, {"time": 939, "pitch": 68, "duration": 3, "velocity": 112}, {"time": 942, "pitch": 66, "duration": 4, "velocity": 112}, {"time": 951, "pitch": 58, "duration": 2, "velocity": 99}, {"time": 954, "pitch": 59, "duration": 8, "velocity": 107}, {"time": 963, "pitch": 61, "duration": 3, "velocity": 100}, {"time": 966, "pitch": 63, "duration": 2, "velocity": 90}, {"time": 969, "pitch": 64, "duration": 13, "velocity": 102}, {"time": 990, "pitch": 56, "duration": 2, "velocity": 90}, {"time": 993, "pitch": 63, "duration": 4, "velocity": 100}, {"time": 999, "pitch": 61, "duration": 2, "velocity": 99}, {"time": 1002, "pitch": 59, "duration": 7, "velocity": 100}, {"time": 1011, "pitch": 58, "duration": 5, "velocity": 92}, {"time": 1017, "pitch": 59, "duration": 26, "velocity": 100}, {"time": 1215, "pitch": 59, "duration": 3, "velocity": 100}, {"time": 1221, "pitch": 59, "duration": 2, "velocity": 100}, {"time": 1224, "pitch": 59, "duration": 3, "velocity": 107}, {"time": 1230, "pitch": 59, "duration": 6, "velocity": 102}, {"time": 1236, "pitch": 59, "duration": 5, "velocity": 96}, {"time": 1245, "pitch": 61, "duration": 4, "velocity": 100}, {"time": 1251, "pitch": 63, "duration": 2, "velocity": 102}, {"time": 1254, "pitch": 61, "duration": 4, "velocity": 100}, {"time": 1263, "pitch": 59, "duration": 20, "velocity": 112}, {"time": 1311, "pitch": 59, "duration": 3, "velocity": 95}, {"time": 1317, "pitch": 59, "duration": 3, "velocity": 97}, {"time": 1323, "pitch": 59, "duration": 2, "velocity": 95}, {"time": 1326, "pitch": 59, "duration": 2, "velocity": 92}, {"time": 1332, "pitch": 59, "duration": 3, "velocity": 100}, {"time": 1341, "pitch": 59, "duration": 3, "velocity": 86}, {"time": 1347, "pitch": 51, "duration": 4, "velocity": 76}, {"time": 1353, "pitch": 52, "duration": 8, "velocity": 95}, {"time": 1362, "pitch": 59, "duration": 22, "velocity": 86}, {"time": 1386, "pitch": 63, "duration": 3, "velocity": 92}, {"time": 1389, "pitch": 61, "duration": 8, "velocity": 89}, {"time": 1398, "pitch": 63, "duration": 2, "velocity": 75}, {"time": 1401, "pitch": 59, "duration": 3, "velocity": 93}, {"time": 1407, "pitch": 59, "duration": 3, "velocity": 100}, {"time": 1413, "pitch": 59, "duration": 3, "velocity": 93}, {"time": 1419, "pitch": 59, "duration": 2, "velocity": 89}, {"time": 1422, "pitch": 59, "duration": 7, "velocity": 88}, {"time": 1431, "pitch": 59, "duration": 2, "velocity": 95}, {"time": 1434, "pitch": 61, "duration": 8, "velocity": 97}, {"time": 1443, "pitch": 63, "duration": 2, "velocity": 102}, {"time": 1449, "pitch": 64, "duration": 6, "velocity": 100}, {"time": 1455, "pitch": 59, "duration": 2, "velocity": 90}, {"time": 1458, "pitch": 61, "duration": 5, "velocity": 95}, {"time": 1467, "pitch": 59, "duration": 21, "velocity": 95}, {"time": 1503, "pitch": 63, "duration": 4, "velocity": 93}, {"time": 1509, "pitch": 63, "duration": 5, "velocity": 95}, {"time": 1515, "pitch": 66, "duration": 5, "velocity": 100}, {"time": 1521, "pitch": 66, "duration": 5, "velocity": 99}, {"time": 1527, "pitch": 59, "duration": 4, "velocity": 90}, {"time": 1533, "pitch": 59, "duration": 5, "velocity": 97}, {"time": 1539, "pitch": 56, "duration": 5, "velocity": 95}, {"time": 1545, "pitch": 63, "duration": 11, "velocity": 107}, {"time": 1563, "pitch": 64, "duration": 3, "velocity": 93}, {"time": 1566, "pitch": 61, "duration": 18, "velocity": 90}, {"time": 1647, "pitch": 54, "duration": 3, "velocity": 92}, {"time": 1650, "pitch": 59, "duration": 9, "velocity": 92}, {"time": 1659, "pitch": 61, "duration": 3, "velocity": 99}, {"time": 1662, "pitch": 63, "duration": 9, "velocity": 97}, {"time": 1671, "pitch": 61, "duration": 5, "velocity": 99}, {"time": 1677, "pitch": 59, "duration": 6, "velocity": 93}, {"time": 1683, "pitch": 58, "duration": 7, "velocity": 88}, {"time": 1689, "pitch": 59, "duration": 8, "velocity": 93}, {"time": 1695, "pitch": 59, "duration": 2, "velocity": 96}, {"time": 1698, "pitch": 59, "duration": 5, "velocity": 82}, {"time": 1707, "pitch": 61, "duration": 3, "velocity": 90}, {"time": 1710, "pitch": 63, "duration": 8, "velocity": 95}, {"time": 1719, "pitch": 61, "duration": 1, "velocity": 96}, {"time": 1722, "pitch": 59, "duration": 8, "velocity": 88}, {"time": 1728, "pitch": 61, "duration": 9, "velocity": 83}, {"time": 1743, "pitch": 66, "duration": 4, "velocity": 97}, {"time": 1749, "pitch": 66, "duration": 4, "velocity": 100}, {"time": 1755, "pitch": 66, "duration": 2, "velocity": 93}, {"time": 1758, "pitch": 66, "duration": 3, "velocity": 100}, {"time": 1764, "pitch": 58, "duration": 4, "velocity": 90}, {"time": 1770, "pitch": 59, "duration": 7, "velocity": 85}, {"time": 1782, "pitch": 56, "duration": 2, "velocity": 97}, {"time": 1785, "pitch": 61, "duration": 5, "velocity": 100}, {"time": 1791, "pitch": 63, "duration": 2, "velocity": 93}, {"time": 1794, "pitch": 64, "duration": 5, "velocity": 99}, {"time": 1803, "pitch": 63, "duration": 2, "velocity": 86}, {"time": 1806, "pitch": 61, "duration": 7, "velocity": 88}, {"time": 1815, "pitch": 63, "duration": 10, "velocity": 95}, {"time": 1839, "pitch": 54, "duration": 3, "velocity": 96}, {"time": 1842, "pitch": 59, "duration": 8, "velocity": 122}, {"time": 1851, "pitch": 61, "duration": 3, "velocity": 102}, {"time": 1854, "pitch": 63, "duration": 7, "velocity": 117}, {"time": 1863, "pitch": 61, "duration": 2, "velocity": 102}, {"time": 1866, "pitch": 59, "duration": 7, "velocity": 95}, {"time": 1875, "pitch": 58, "duration": 3, "velocity": 93}, {"time": 1878, "pitch": 59, "duration": 9, "velocity": 96}, {"time": 1887, "pitch": 59, "duration": 1, "velocity": 96}, {"time": 1890, "pitch": 59, "duration": 4, "velocity": 97}, {"time": 1896, "pitch": 61, "duration": 4, "velocity": 102}, {"time": 1902, "pitch": 63, "duration": 6, "velocity": 102}, {"time": 1911, "pitch": 64, "duration": 2, "velocity": 99}, {"time": 1914, "pitch": 63, "duration": 6, "velocity": 89}, {"time": 1923, "pitch": 59, "duration": 7, "velocity": 99}, {"time": 1935, "pitch": 66, "duration": 4, "velocity": 117}, {"time": 1941, "pitch": 66, "duration": 4, "velocity": 117}, {"time": 1947, "pitch": 68, "duration": 3, "velocity": 112}, {"time": 1950, "pitch": 66, "duration": 4, "velocity": 112}, {"time": 1959, "pitch": 58, "duration": 2, "velocity": 99}, {"time": 1962, "pitch": 59, "duration": 8, "velocity": 107}, {"time": 1971, "pitch": 61, "duration": 3, "velocity": 100}, {"time": 1974, "pitch": 63, "duration": 2, "velocity": 90}, {"time": 1977, "pitch": 64, "duration": 13, "velocity": 102}, {"time": 1998, "pitch": 56, "duration": 2, "velocity": 90}, {"time": 2001, "pitch": 63, "duration": 4, "velocity": 100}, {"time": 2007, "pitch": 61, "duration": 2, "velocity": 99}, {"time": 2010, "pitch": 59, "duration": 7, "velocity": 100}, {"time": 2019, "pitch": 58, "duration": 5, "velocity": 92}, {"time": 2025, "pitch": 59, "duration": 9, "velocity": 100}, {"time": 2031, "pitch": 59, "duration": 3, "velocity": 102}, {"time": 2037, "pitch": 59, "duration": 4, "velocity": 112}, {"time": 2043, "pitch": 61, "duration": 4, "velocity": 112}, {"time": 2049, "pitch": 59, "duration": 5, "velocity": 107}, {"time": 2055, "pitch": 54, "duration": 2, "velocity": 93}, {"time": 2058, "pitch": 54, "duration": 6, "velocity": 90}, {"time": 2070, "pitch": 54, "duration": 2, "velocity": 93}, {"time": 2073, "pitch": 56, "duration": 4, "velocity": 102}, {"time": 2079, "pitch": 54, "duration": 2, "velocity": 89}, {"time": 2082, "pitch": 56, "duration": 4, "velocity": 112}, {"time": 2088, "pitch": 59, "duration": 3, "velocity": 107}, {"time": 2094, "pitch": 63, "duration": 6, "velocity": 127}, {"time": 2103, "pitch": 64, "duration": 3, "velocity": 102}, {"time": 2106, "pitch": 61, "duration": 4, "velocity": 100}, {"time": 2112, "pitch": 63, "duration": 7, "velocity": 112}, {"time": 2127, "pitch": 59, "duration": 4, "velocity": 107}, {"time": 2133, "pitch": 59, "duration": 3, "velocity": 107}, {"time": 2139, "pitch": 61, "duration": 4, "velocity": 112}, {"time": 2145, "pitch": 59, "duration": 4, "velocity": 117}, {"time": 2151, "pitch": 54, "duration": 2, "velocity": 117}, {"time": 2154, "pitch": 54, "duration": 5, "velocity": 100}, {"time": 2166, "pitch": 54, "duration": 2, "velocity": 100}, {"time": 2169, "pitch": 64, "duration": 7, "velocity": 100}, {"time": 2178, "pitch": 63, "duration": 6, "velocity": 127}, {"time": 2184, "pitch": 61, "duration": 5, "velocity": 102}, {"time": 2193, "pitch": 61, "duration": 9, "velocity": 122}, {"time": 2202, "pitch": 59, "duration": 2, "velocity": 102}, {"time": 2202, "pitch": 61, "duration": 2, "velocity": 107}, {"time": 2205, "pitch": 63, "duration": 16, "velocity": 102}, {"time": 2223, "pitch": 56, "duration": 3, "velocity": 92}, {"time": 2226, "pitch": 61, "duration": 9, "velocity": 92}, {"time": 2235, "pitch": 63, "duration": 3, "velocity": 99}, {"time": 2238, "pitch": 65, "duration": 9, "velocity": 97}, {"time": 2247, "pitch": 63, "duration": 5, "velocity": 99}, {"time": 2253, "pitch": 61, "duration": 6, "velocity": 93}, {"time": 2259, "pitch": 60, "duration": 7, "velocity": 88}, {"time": 2265, "pitch": 61, "duration": 8, "velocity": 93}, {"time": 2271, "pitch": 61, "duration": 2, "velocity": 96}, {"time": 2274, "pitch": 61, "duration": 5, "velocity": 82}, {"time": 2283, "pitch": 63, "duration": 3, "velocity": 90}, {"time": 2286, "pitch": 65, "duration": 8, "velocity": 95}, {"time": 2295, "pitch": 63, "duration": 1, "velocity": 96}, {"time": 2298, "pitch": 61, "duration": 8, "velocity": 88}, {"time": 2304, "pitch": 63, "duration": 9, "velocity": 83}, {"time": 2319, "pitch": 68, "duration": 4, "velocity": 97}, {"time": 2325, "pitch": 68, "duration": 4, "velocity": 100}, {"time": 2331, "pitch": 68, "duration": 2, "velocity": 93}, {"time": 2334, "pitch": 68, "duration": 3, "velocity": 100}, {"time": 2340, "pitch": 60, "duration": 4, "velocity": 90}, {"time": 2346, "pitch": 61, "duration": 7, "velocity": 85}, {"time": 2358, "pitch": 58, "duration": 2, "velocity": 97}, {"time": 2361, "pitch": 63, "duration": 5, "velocity": 100}, {"time": 2367, "pitch": 65, "duration": 2, "velocity": 93}, {"time": 2370, "pitch": 66, "duration": 5, "velocity": 99}, {"time": 2379, "pitch": 65, "duration": 2, "velocity": 86}, {"time": 2382, "pitch": 63, "duration": 7, "velocity": 88}, {"time": 2391, "pitch": 65, "duration": 10, "velocity": 95}, {"time": 2415, "pitch": 56, "duration": 3, "velocity": 96}, {"time": 2418, "pitch": 61, "duration": 8, "velocity": 122}, {"time": 2427, "pitch": 63, "duration": 3, "velocity": 102}, {"time": 2430, "pitch": 65, "duration": 7, "velocity": 117}, {"time": 2439, "pitch": 63, "duration": 2, "velocity": 102}, {"time": 2442, "pitch": 61, "duration": 7, "velocity": 95}, {"time": 2451, "pitch": 60, "duration": 3, "velocity": 93}, {"time": 2454, "pitch": 61, "duration": 9, "velocity": 96}, {"time": 2463, "pitch": 61, "duration": 1, "velocity": 96}, {"time": 2466, "pitch": 61, "duration": 4, "velocity": 97}, {"time": 2472, "pitch": 63, "duration": 4, "velocity": 102}, {"time": 2478, "pitch": 65, "duration": 6, "velocity": 102}, {"time": 2487, "pitch": 66, "duration": 2, "velocity": 99}, {"time": 2490, "pitch": 65, "duration": 6, "velocity": 89}, {"time": 2499, "pitch": 61, "duration": 7, "velocity": 99}, {"time": 2511, "pitch": 68, "duration": 4, "velocity": 117}, {"time": 2517, "pitch": 68, "duration": 4, "velocity": 117}, {"time": 2523, "pitch": 70, "duration": 3, "velocity": 112}, {"time": 2526, "pitch": 68, "duration": 4, "velocity": 112}, {"time": 2535, "pitch": 60, "duration": 2, "velocity": 99}, {"time": 2538, "pitch": 61, "duration": 8, "velocity": 107}, {"time": 2547, "pitch": 63, "duration": 3, "velocity": 100}, {"time": 2550, "pitch": 65, "duration": 2, "velocity": 90}, {"time": 2553, "pitch": 66, "duration": 13, "velocity": 102}, {"time": 2574, "pitch": 58, "duration": 2, "velocity": 90}, {"time": 2577, "pitch": 65, "duration": 4, "velocity": 100}, {"time": 2583, "pitch": 63, "duration": 2, "velocity": 99}, {"time": 2586, "pitch": 61, "duration": 7, "velocity": 100}, {"time": 2595, "pitch": 60, "duration": 5, "velocity": 92}, {"time": 2601, "pitch": 61, "duration": 32, "velocity": 100}, {"time": 2655, "pitch": 68, "duration": 4, "velocity": 107}, {"time": 2661, "pitch": 68, "duration": 4, "velocity": 100}, {"time": 2667, "pitch": 70, "duration": 4, "velocity": 107}, {"time": 2673, "pitch": 68, "duration": 3, "velocity": 112}, {"time": 2679, "pitch": 60, "duration": 3, "velocity": 112}, {"time": 2682, "pitch": 61, "duration": 9, "velocity": 96}, {"time": 2692, "pitch": 63, "duration": 4, "velocity": 88}, {"time": 2695, "pitch": 65, "duration": 4, "velocity": 85}, {"time": 2699, "pitch": 66, "duration": 15, "velocity": 96}, {"time": 2720, "pitch": 58, "duration": 3, "velocity": 77}, {"time": 2724, "pitch": 65, "duration": 4, "velocity": 102}, {"time": 2731, "pitch": 63, "duration": 3, "velocity": 90}, {"time": 2736, "pitch": 61, "duration": 7, "velocity": 93}, {"time": 2749, "pitch": 60, "duration": 4, "velocity": 92}, {"time": 2754, "pitch": 63, "duration": 6, "velocity": 92}, {"time": 2760, "pitch": 61, "duration": 24, "velocity": 100}]}, {"program": 0, "is_drum": false, "name": "BRIDGE", "notes": [{"time": 9, "pitch": 59, "duration": 7, "velocity": 86}, {"time": 15, "pitch": 66, "duration": 6, "velocity": 72}, {"time": 21, "pitch": 71, "duration": 6, "velocity": 75}, {"time": 27, "pitch": 73, "duration": 7, "velocity": 77}, {"time": 33, "pitch": 75, "duration": 8, "velocity": 92}, {"time": 39, "pitch": 73, "duration": 3, "velocity": 99}, {"time": 42, "pitch": 71, "duration": 7, "velocity": 73}, {"time": 51, "pitch": 70, "duration": 3, "velocity": 92}, {"time": 54, "pitch": 71, "duration": 8, "velocity": 83}, {"time": 72, "pitch": 66, "duration": 3, "velocity": 86}, {"time": 75, "pitch": 71, "duration": 4, "velocity": 78}, {"time": 78, "pitch": 73, "duration": 4, "velocity": 82}, {"time": 81, "pitch": 75, "duration": 8, "velocity": 100}, {"time": 87, "pitch": 76, "duration": 3, "velocity": 95}, {"time": 90, "pitch": 78, "duration": 5, "velocity": 97}, {"time": 99, "pitch": 73, "duration": 7, "velocity": 100}, {"time": 105, "pitch": 71, "duration": 20, "velocity": 79}, {"time": 114, "pitch": 66, "duration": 2, "velocity": 83}, {"time": 117, "pitch": 75, "duration": 3, "velocity": 102}, {"time": 120, "pitch": 73, "duration": 3, "velocity": 89}, {"time": 123, "pitch": 71, "duration": 2, "velocity": 83}, {"time": 126, "pitch": 75, "duration": 11, "velocity": 112}, {"time": 138, "pitch": 73, "duration": 10, "velocity": 107}, {"time": 147, "pitch": 78, "duration": 4, "velocity": 95}, {"time": 150, "pitch": 81, "duration": 3, "velocity": 96}, {"time": 153, "pitch": 83, "duration": 5, "velocity": 107}, {"time": 159, "pitch": 81, "duration": 2, "velocity": 122}, {"time": 165, "pitch": 78, "duration": 6, "velocity": 99}, {"time": 171, "pitch": 76, "duration": 8, "velocity": 95}, {"time": 282, "pitch": 66, "duration": 3, "velocity": 79}, {"time": 285, "pitch": 76, "duration": 6, "velocity": 100}, {"time": 291, "pitch": 73, "duration": 7, "velocity": 90}, {"time": 297, "pitch": 75, "duration": 18, "velocity": 97}, {"time": 363, "pitch": 68, "duration": 3, "velocity": 82}, {"time": 366, "pitch": 70, "duration": 3, "velocity": 72}, {"time": 369, "pitch": 71, "duration": 10, "velocity": 89}, {"time": 381, "pitch": 70, "duration": 11, "velocity": 96}, {"time": 579, "pitch": 51, "duration": 3, "velocity": 82}, {"time": 582, "pitch": 52, "duration": 3, "velocity": 61}, {"time": 585, "pitch": 54, "duration": 11, "velocity": 93}, {"time": 585, "pitch": 76, "duration": 11, "velocity": 107}, {"time": 588, "pitch": 68, "duration": 2, "velocity": 78}, {"time": 591, "pitch": 68, "duration": 4, "velocity": 85}, {"time": 594, "pitch": 76, "duration": 2, "velocity": 88}, {"time": 597, "pitch": 52, "duration": 9, "velocity": 88}, {"time": 597, "pitch": 75, "duration": 11, "velocity": 90}, {"time": 606, "pitch": 47, "duration": 4, "velocity": 93}, {"time": 609, "pitch": 45, "duration": 13, "velocity": 89}, {"time": 609, "pitch": 71, "duration": 11, "velocity": 86}, {"time": 609, "pitch": 75, "duration": 11, "velocity": 90}, {"time": 621, "pitch": 42, "duration": 11, "velocity": 92}, {"time": 621, "pitch": 68, "duration": 13, "velocity": 82}, {"time": 621, "pitch": 71, "duration": 12, "velocity": 73}, {"time": 1017, "pitch": 75, "duration": 9, "velocity": 95}, {"time": 1029, "pitch": 61, "duration": 3, "velocity": 88}, {"time": 1032, "pitch": 66, "duration": 7, "velocity": 69}, {"time": 1035, "pitch": 70, "duration": 3, "velocity": 93}, {"time": 1038, "pitch": 71, "duration": 4, "velocity": 88}, {"time": 1041, "pitch": 70, "duration": 12, "velocity": 93}, {"time": 1053, "pitch": 68, "duration": 11, "velocity": 88}, {"time": 1065, "pitch": 66, "duration": 13, "velocity": 90}, {"time": 1077, "pitch": 59, "duration": 4, "velocity": 88}, {"time": 1080, "pitch": 58, "duration": 3, "velocity": 71}, {"time": 1083, "pitch": 59, "duration": 3, "velocity": 85}, {"time": 1086, "pitch": 66, "duration": 5, "velocity": 96}, {"time": 1098, "pitch": 59, "duration": 3, "velocity": 81}, {"time": 1101, "pitch": 63, "duration": 3, "velocity": 93}, {"time": 1103, "pitch": 64, "duration": 2, "velocity": 96}, {"time": 1105, "pitch": 66, "duration": 3, "velocity": 83}, {"time": 1107, "pitch": 68, "duration": 1, "velocity": 96}, {"time": 1108, "pitch": 70, "duration": 2, "velocity": 95}, {"time": 1110, "pitch": 71, "duration": 3, "velocity": 82}, {"time": 1112, "pitch": 73, "duration": 3, "velocity": 102}, {"time": 1114, "pitch": 75, "duration": 9, "velocity": 122}, {"time": 1128, "pitch": 78, "duration": 2, "velocity": 78}, {"time": 1131, "pitch": 80, "duration": 2, "velocity": 90}, {"time": 1134, "pitch": 83, "duration": 13, "velocity": 112}, {"time": 1144, "pitch": 80, "duration": 1, "velocity": 107}, {"time": 1147, "pitch": 78, "duration": 6, "velocity": 93}, {"time": 1155, "pitch": 80, "duration": 2, "velocity": 122}, {"time": 1159, "pitch": 78, "duration": 6, "velocity": 97}, {"time": 1173, "pitch": 78, "duration": 3, "velocity": 92}, {"time": 1176, "pitch": 71, "duration": 3, "velocity": 78}, {"time": 1179, "pitch": 66, "duration": 28, "velocity": 81}, {"time": 1287, "pitch": 66, "duration": 7, "velocity": 81}, {"time": 1293, "pitch": 71, "duration": 10, "velocity": 89}, {"time": 1302, "pitch": 70, "duration": 4, "velocity": 69}, {"time": 1305, "pitch": 66, "duration": 13, "velocity": 75}, {"time": 1473, "pitch": 73, "duration": 7, "velocity": 99}, {"time": 1482, "pitch": 73, "duration": 3, "velocity": 83}, {"time": 1485, "pitch": 75, "duration": 11, "velocity": 96}, {"time": 1497, "pitch": 76, "duration": 13, "velocity": 89}, {"time": 1581, "pitch": 70, "duration": 10, "velocity": 82}, {"time": 1593, "pitch": 71, "duration": 11, "velocity": 122}, {"time": 1605, "pitch": 73, "duration": 9, "velocity": 127}, {"time": 1617, "pitch": 74, "duration": 11, "velocity": 127}, {"time": 1629, "pitch": 73, "duration": 12, "velocity": 117}, {"time": 1642, "pitch": 75, "duration": 19, "velocity": 97}, {"time": 2616, "pitch": 56, "duration": 3, "velocity": 76}, {"time": 2619, "pitch": 61, "duration": 4, "velocity": 62}, {"time": 2622, "pitch": 63, "duration": 4, "velocity": 78}, {"time": 2625, "pitch": 65, "duration": 11, "velocity": 100}, {"time": 2631, "pitch": 68, "duration": 6, "velocity": 79}, {"time": 2637, "pitch": 73, "duration": 6, "velocity": 69}, {"time": 2643, "pitch": 75, "duration": 7, "velocity": 82}, {"time": 2649, "pitch": 77, "duration": 24, "velocity": 97}, {"time": 2766, "pitch": 61, "duration": 6, "velocity": 78}, {"time": 2772, "pitch": 68, "duration": 6, "velocity": 63}, {"time": 2778, "pitch": 73, "duration": 9, "velocity": 67}, {"time": 2784, "pitch": 75, "duration": 6, "velocity": 82}, {"time": 2790, "pitch": 77, "duration": 10, "velocity": 83}, {"time": 2796, "pitch": 75, "duration": 3, "velocity": 95}, {"time": 2799, "pitch": 73, "duration": 9, "velocity": 81}, {"time": 2807, "pitch": 72, "duration": 7, "velocity": 85}, {"time": 2813, "pitch": 73, "duration": 12, "velocity": 88}, {"time": 2826, "pitch": 61, "duration": 4, "velocity": 90}, {"time": 2829, "pitch": 60, "duration": 4, "velocity": 76}, {"time": 2832, "pitch": 61, "duration": 3, "velocity": 75}, {"time": 2836, "pitch": 68, "duration": 12, "velocity": 88}, {"time": 2842, "pitch": 60, "duration": 3, "velocity": 56}, {"time": 2845, "pitch": 61, "duration": 10, "velocity": 59}, {"time": 2849, "pitch": 68, "duration": 3, "velocity": 77}, {"time": 2852, "pitch": 66, "duration": 18, "velocity": 86}, {"time": 2881, "pitch": 68, "duration": 38, "velocity": 50}, {"time": 2882, "pitch": 65, "duration": 37, "velocity": 53}, {"time": 2884, "pitch": 61, "duration": 35, "velocity": 46}]}, {"program": 0, "is_drum": false, "name": "PIANO", "notes": [{"time": 9, "pitch": 35, "duration": 19, "velocity": 57}, {"time": 15, "pitch": 47, "duration": 15, "velocity": 35}, {"time": 21, "pitch": 63, "duration": 23, "velocity": 74}, {"time": 27, "pitch": 54, "duration": 7, "velocity": 54}, {"time": 33, "pitch": 46, "duration": 20, "velocity": 65}, {"time": 45, "pitch": 63, "duration": 15, "velocity": 71}, {"time": 51, "pitch": 59, "duration": 9, "velocity": 33}, {"time": 57, "pitch": 44, "duration": 16, "velocity": 68}, {"time": 63, "pitch": 51, "duration": 8, "velocity": 56}, {"time": 69, "pitch": 63, "duration": 14, "velocity": 75}, {"time": 75, "pitch": 56, "duration": 8, "velocity": 50}, {"time": 81, "pitch": 42, "duration": 17, "velocity": 68}, {"time": 87, "pitch": 49, "duration": 9, "velocity": 54}, {"time": 93, "pitch": 61, "duration": 12, "velocity": 89}, {"time": 99, "pitch": 54, "duration": 7, "velocity": 42}, {"time": 105, "pitch": 40, "duration": 22, "velocity": 83}, {"time": 108, "pitch": 47, "duration": 21, "velocity": 42}, {"time": 111, "pitch": 52, "duration": 7, "velocity": 63}, {"time": 114, "pitch": 56, "duration": 16, "velocity": 59}, {"time": 117, "pitch": 64, "duration": 13, "velocity": 73}, {"time": 129, "pitch": 42, "duration": 17, "velocity": 62}, {"time": 135, "pitch": 49, "duration": 9, "velocity": 45}, {"time": 138, "pitch": 54, "duration": 15, "velocity": 58}, {"time": 141, "pitch": 61, "duration": 12, "velocity": 95}, {"time": 147, "pitch": 58, "duration": 5, "velocity": 50}, {"time": 153, "pitch": 43, "duration": 17, "velocity": 86}, {"time": 159, "pitch": 55, "duration": 8, "velocity": 72}, {"time": 165, "pitch": 62, "duration": 3, "velocity": 76}, {"time": 171, "pitch": 45, "duration": 22, "velocity": 63}, {"time": 171, "pitch": 52, "duration": 29, "velocity": 63}, {"time": 171, "pitch": 57, "duration": 28, "velocity": 67}, {"time": 171, "pitch": 61, "duration": 28, "velocity": 69}, {"time": 201, "pitch": 35, "duration": 39, "velocity": 67}, {"time": 207, "pitch": 42, "duration": 33, "velocity": 48}, {"time": 213, "pitch": 47, "duration": 15, "velocity": 44}, {"time": 213, "pitch": 63, "duration": 21, "velocity": 92}, {"time": 219, "pitch": 54, "duration": 17, "velocity": 51}, {"time": 225, "pitch": 59, "duration": 10, "velocity": 65}, {"time": 231, "pitch": 47, "duration": 8, "velocity": 42}, {"time": 237, "pitch": 59, "duration": 13, "velocity": 73}, {"time": 237, "pitch": 63, "duration": 13, "velocity": 88}, {"time": 243, "pitch": 54, "duration": 7, "velocity": 63}, {"time": 249, "pitch": 40, "duration": 42, "velocity": 78}, {"time": 255, "pitch": 47, "duration": 32, "velocity": 55}, {"time": 261, "pitch": 52, "duration": 15, "velocity": 72}, {"time": 267, "pitch": 56, "duration": 19, "velocity": 63}, {"time": 273, "pitch": 59, "duration": 11, "velocity": 69}, {"time": 273, "pitch": 64, "duration": 25, "velocity": 70}, {"time": 279, "pitch": 52, "duration": 10, "velocity": 59}, {"time": 285, "pitch": 59, "duration": 8, "velocity": 81}, {"time": 288, "pitch": 47, "duration": 3, "velocity": 68}, {"time": 291, "pitch": 56, "duration": 7, "velocity": 82}, {"time": 294, "pitch": 59, "duration": 5, "velocity": 59}, {"time": 297, "pitch": 35, "duration": 41, "velocity": 69}, {"time": 303, "pitch": 42, "duration": 8, "velocity": 54}, {"time": 309, "pitch": 47, "duration": 15, "velocity": 47}, {"time": 309, "pitch": 54, "duration": 37, "velocity": 58}, {"time": 309, "pitch": 59, "duration": 10, "velocity": 71}, {"time": 309, "pitch": 63, "duration": 22, "velocity": 71}, {"time": 315, "pitch": 42, "duration": 23, "velocity": 39}, {"time": 321, "pitch": 59, "duration": 11, "velocity": 63}, {"time": 327, "pitch": 47, "duration": 6, "velocity": 42}, {"time": 333, "pitch": 63, "duration": 14, "velocity": 89}, {"time": 339, "pitch": 59, "duration": 7, "velocity": 58}, {"time": 345, "pitch": 37, "duration": 22, "velocity": 74}, {"time": 351, "pitch": 44, "duration": 18, "velocity": 37}, {"time": 357, "pitch": 49, "duration": 7, "velocity": 49}, {"time": 357, "pitch": 61, "duration": 7, "velocity": 65}, {"time": 357, "pitch": 64, "duration": 7, "velocity": 55}, {"time": 363, "pitch": 56, "duration": 2, "velocity": 61}, {"time": 369, "pitch": 39, "duration": 12, "velocity": 63}, {"time": 369, "pitch": 51, "duration": 11, "velocity": 64}, {"time": 369, "pitch": 54, "duration": 7, "velocity": 69}, {"time": 369, "pitch": 58, "duration": 11, "velocity": 72}, {"time": 381, "pitch": 43, "duration": 6, "velocity": 58}, {"time": 381, "pitch": 51, "duration": 12, "velocity": 67}, {"time": 381, "pitch": 55, "duration": 13, "velocity": 77}, {"time": 381, "pitch": 58, "duration": 13, "velocity": 72}, {"time": 393, "pitch": 44, "duration": 15, "velocity": 70}, {"time": 399, "pitch": 51, "duration": 10, "velocity": 58}, {"time": 405, "pitch": 59, "duration": 13, "velocity": 74}, {"time": 405, "pitch": 63, "duration": 14, "velocity": 79}, {"time": 411, "pitch": 56, "duration": 7, "velocity": 59}, {"time": 417, "pitch": 42, "duration": 17, "velocity": 72}, {"time": 423, "pitch": 49, "duration": 10, "velocity": 61}, {"time": 429, "pitch": 61, "duration": 13, "velocity": 79}, {"time": 435, "pitch": 58, "duration": 7, "velocity": 83}, {"time": 441, "pitch": 40, "duration": 40, "velocity": 79}, {"time": 447, "pitch": 47, "duration": 8, "velocity": 56}, {"time": 453, "pitch": 52, "duration": 15, "velocity": 73}, {"time": 453, "pitch": 59, "duration": 18, "velocity": 72}, {"time": 459, "pitch": 47, "duration": 21, "velocity": 55}, {"time": 465, "pitch": 64, "duration": 25, "velocity": 83}, {"time": 471, "pitch": 52, "duration": 8, "velocity": 63}, {"time": 477, "pitch": 59, "duration": 13, "velocity": 77}, {"time": 483, "pitch": 56, "duration": 6, "velocity": 55}, {"time": 489, "pitch": 37, "duration": 17, "velocity": 77}, {"time": 495, "pitch": 44, "duration": 13, "velocity": 54}, {"time": 501, "pitch": 52, "duration": 12, "velocity": 81}, {"time": 501, "pitch": 56, "duration": 12, "velocity": 85}, {"time": 507, "pitch": 49, "duration": 7, "velocity": 61}, {"time": 513, "pitch": 39, "duration": 19, "velocity": 83}, {"time": 519, "pitch": 46, "duration": 13, "velocity": 44}, {"time": 525, "pitch": 51, "duration": 6, "velocity": 53}, {"time": 525, "pitch": 58, "duration": 12, "velocity": 90}, {"time": 531, "pitch": 54, "duration": 7, "velocity": 67}, {"time": 537, "pitch": 40, "duration": 19, "velocity": 81}, {"time": 543, "pitch": 47, "duration": 17, "velocity": 51}, {"time": 549, "pitch": 52, "duration": 4, "velocity": 55}, {"time": 549, "pitch": 59, "duration": 13, "velocity": 96}, {"time": 555, "pitch": 56, "duration": 7, "velocity": 62}, {"time": 558, "pitch": 46, "duration": 3, "velocity": 27}, {"time": 561, "pitch": 42, "duration": 22, "velocity": 72}, {"time": 567, "pitch": 49, "duration": 8, "velocity": 45}, {"time": 573, "pitch": 61, "duration": 10, "velocity": 97}, {"time": 576, "pitch": 49, "duration": 6, "velocity": 53}, {"time": 579, "pitch": 58, "duration": 4, "velocity": 72}, {"time": 585, "pitch": 59, "duration": 11, "velocity": 70}, {"time": 585, "pitch": 63, "duration": 13, "velocity": 72}, {"time": 585, "pitch": 66, "duration": 12, "velocity": 66}, {"time": 597, "pitch": 58, "duration": 10, "velocity": 63}, {"time": 609, "pitch": 59, "duration": 13, "velocity": 79}, {"time": 609, "pitch": 63, "duration": 13, "velocity": 82}, {"time": 609, "pitch": 66, "duration": 12, "velocity": 77}, {"time": 621, "pitch": 56, "duration": 12, "velocity": 89}, {"time": 621, "pitch": 63, "duration": 1, "velocity": 83}, {"time": 633, "pitch": 35, "duration": 18, "velocity": 89}, {"time": 636, "pitch": 42, "duration": 14, "velocity": 63}, {"time": 639, "pitch": 47, "duration": 7, "velocity": 79}, {"time": 642, "pitch": 54, "duration": 5, "velocity": 72}, {"time": 645, "pitch": 63, "duration": 17, "velocity": 96}, {"time": 648, "pitch": 47, "duration": 6, "velocity": 76}, {"time": 651, "pitch": 54, "duration": 5, "velocity": 78}, {"time": 654, "pitch": 59, "duration": 9, "velocity": 73}, {"time": 657, "pitch": 46, "duration": 14, "velocity": 99}, {"time": 663, "pitch": 58, "duration": 9, "velocity": 57}, {"time": 666, "pitch": 63, "duration": 5, "velocity": 51}, {"time": 669, "pitch": 66, "duration": 12, "velocity": 88}, {"time": 672, "pitch": 46, "duration": 3, "velocity": 69}, {"time": 675, "pitch": 63, "duration": 6, "velocity": 72}, {"time": 678, "pitch": 58, "duration": 3, "velocity": 76}, {"time": 681, "pitch": 44, "duration": 17, "velocity": 58}, {"time": 684, "pitch": 51, "duration": 9, "velocity": 57}, {"time": 687, "pitch": 56, "duration": 3, "velocity": 72}, {"time": 690, "pitch": 59, "duration": 4, "velocity": 79}, {"time": 693, "pitch": 63, "duration": 12, "velocity": 96}, {"time": 696, "pitch": 51, "duration": 2, "velocity": 81}, {"time": 699, "pitch": 59, "duration": 6, "velocity": 93}, {"time": 702, "pitch": 56, "duration": 4, "velocity": 95}, {"time": 705, "pitch": 39, "duration": 21, "velocity": 72}, {"time": 708, "pitch": 46, "duration": 21, "velocity": 55}, {"time": 711, "pitch": 51, "duration": 7, "velocity": 82}, {"time": 714, "pitch": 58, "duration": 6, "velocity": 75}, {"time": 717, "pitch": 66, "duration": 12, "velocity": 99}, {"time": 720, "pitch": 51, "duration": 2, "velocity": 67}, {"time": 723, "pitch": 63, "duration": 6, "velocity": 73}, {"time": 726, "pitch": 58, "duration": 4, "velocity": 72}, {"time": 729, "pitch": 40, "duration": 19, "velocity": 66}, {"time": 732, "pitch": 47, "duration": 10, "velocity": 58}, {"time": 735, "pitch": 52, "duration": 4, "velocity": 75}, {"time": 738, "pitch": 56, "duration": 10, "velocity": 79}, {"time": 741, "pitch": 64, "duration": 14, "velocity": 96}, {"time": 744, "pitch": 47, "duration": 3, "velocity": 79}, {"time": 747, "pitch": 59, "duration": 8, "velocity": 82}, {"time": 750, "pitch": 56, "duration": 5, "velocity": 85}, {"time": 753, "pitch": 39, "duration": 20, "velocity": 78}, {"time": 756, "pitch": 46, "duration": 18, "velocity": 46}, {"time": 759, "pitch": 51, "duration": 8, "velocity": 83}, {"time": 762, "pitch": 58, "duration": 10, "velocity": 92}, {"time": 765, "pitch": 63, "duration": 13, "velocity": 90}, {"time": 768, "pitch": 51, "duration": 3, "velocity": 88}, {"time": 771, "pitch": 54, "duration": 6, "velocity": 81}, {"time": 774, "pitch": 58, "duration": 3, "velocity": 93}, {"time": 777, "pitch": 37, "duration": 17, "velocity": 68}, {"time": 780, "pitch": 44, "duration": 14, "velocity": 83}, {"time": 783, "pitch": 49, "duration": 7, "velocity": 82}, {"time": 786, "pitch": 56, "duration": 7, "velocity": 93}, {"time": 789, "pitch": 64, "duration": 12, "velocity": 112}, {"time": 792, "pitch": 49, "duration": 4, "velocity": 93}, {"time": 795, "pitch": 61, "duration": 6, "velocity": 97}, {"time": 798, "pitch": 56, "duration": 3, "velocity": 96}, {"time": 801, "pitch": 42, "duration": 21, "velocity": 75}, {"time": 804, "pitch": 49, "duration": 11, "velocity": 83}, {"time": 807, "pitch": 54, "duration": 5, "velocity": 107}, {"time": 810, "pitch": 58, "duration": 7, "velocity": 95}, {"time": 813, "pitch": 66, "duration": 12, "velocity": 122}, {"time": 816, "pitch": 49, "duration": 5, "velocity": 97}, {"time": 819, "pitch": 61, "duration": 6, "velocity": 122}, {"time": 822, "pitch": 58, "duration": 3, "velocity": 99}, {"time": 825, "pitch": 35, "duration": 17, "velocity": 93}, {"time": 828, "pitch": 42, "duration": 11, "velocity": 90}, {"time": 831, "pitch": 47, "duration": 7, "velocity": 90}, {"time": 834, "pitch": 54, "duration": 6, "velocity": 90}, {"time": 837, "pitch": 63, "duration": 14, "velocity": 117}, {"time": 840, "pitch": 47, "duration": 3, "velocity": 88}, {"time": 843, "pitch": 54, "duration": 4, "velocity": 95}, {"time": 846, "pitch": 59, "duration": 5, "velocity": 102}, {"time": 849, "pitch": 46, "duration": 19, "velocity": 81}, {"time": 852, "pitch": 51, "duration": 11, "velocity": 75}, {"time": 855, "pitch": 58, "duration": 9, "velocity": 89}, {"time": 858, "pitch": 63, "duration": 5, "velocity": 75}, {"time": 861, "pitch": 66, "duration": 12, "velocity": 97}, {"time": 864, "pitch": 51, "duration": 3, "velocity": 66}, {"time": 867, "pitch": 63, "duration": 6, "velocity": 82}, {"time": 870, "pitch": 58, "duration": 4, "velocity": 89}, {"time": 873, "pitch": 44, "duration": 17, "velocity": 75}, {"time": 876, "pitch": 51, "duration": 11, "velocity": 69}, {"time": 879, "pitch": 56, "duration": 3, "velocity": 99}, {"time": 882, "pitch": 59, "duration": 4, "velocity": 78}, {"time": 885, "pitch": 63, "duration": 12, "velocity": 100}, {"time": 888, "pitch": 51, "duration": 2, "velocity": 56}, {"time": 891, "pitch": 59, "duration": 6, "velocity": 89}, {"time": 894, "pitch": 56, "duration": 4, "velocity": 86}, {"time": 897, "pitch": 39, "duration": 23, "velocity": 79}, {"time": 900, "pitch": 46, "duration": 21, "velocity": 81}, {"time": 903, "pitch": 51, "duration": 8, "velocity": 78}, {"time": 906, "pitch": 58, "duration": 8, "velocity": 83}, {"time": 909, "pitch": 66, "duration": 12, "velocity": 100}, {"time": 912, "pitch": 51, "duration": 3, "velocity": 77}, {"time": 915, "pitch": 63, "duration": 6, "velocity": 86}, {"time": 918, "pitch": 58, "duration": 4, "velocity": 88}, {"time": 921, "pitch": 40, "duration": 18, "velocity": 86}, {"time": 924, "pitch": 47, "duration": 11, "velocity": 85}, {"time": 927, "pitch": 52, "duration": 7, "velocity": 89}, {"time": 930, "pitch": 56, "duration": 5, "velocity": 85}, {"time": 933, "pitch": 64, "duration": 12, "velocity": 96}, {"time": 936, "pitch": 47, "duration": 3, "velocity": 74}, {"time": 939, "pitch": 59, "duration": 6, "velocity": 92}, {"time": 942, "pitch": 56, "duration": 4, "velocity": 96}, {"time": 945, "pitch": 39, "duration": 22, "velocity": 85}, {"time": 948, "pitch": 46, "duration": 19, "velocity": 73}, {"time": 951, "pitch": 51, "duration": 8, "velocity": 76}, {"time": 954, "pitch": 54, "duration": 7, "velocity": 83}, {"time": 957, "pitch": 63, "duration": 12, "velocity": 95}, {"time": 960, "pitch": 51, "duration": 4, "velocity": 75}, {"time": 963, "pitch": 58, "duration": 6, "velocity": 82}, {"time": 966, "pitch": 54, "duration": 3, "velocity": 86}, {"time": 969, "pitch": 37, "duration": 17, "velocity": 74}, {"time": 972, "pitch": 44, "duration": 14, "velocity": 72}, {"time": 975, "pitch": 49, "duration": 8, "velocity": 89}, {"time": 978, "pitch": 52, "duration": 11, "velocity": 74}, {"time": 981, "pitch": 61, "duration": 14, "velocity": 96}, {"time": 984, "pitch": 49, "duration": 4, "velocity": 66}, {"time": 987, "pitch": 56, "duration": 7, "velocity": 71}, {"time": 993, "pitch": 42, "duration": 15, "velocity": 83}, {"time": 996, "pitch": 49, "duration": 11, "velocity": 79}, {"time": 999, "pitch": 54, "duration": 5, "velocity": 69}, {"time": 1002, "pitch": 58, "duration": 15, "velocity": 76}, {"time": 1005, "pitch": 61, "duration": 12, "velocity": 86}, {"time": 1011, "pitch": 54, "duration": 8, "velocity": 59}, {"time": 1017, "pitch": 35, "duration": 23, "velocity": 67}, {"time": 1023, "pitch": 42, "duration": 19, "velocity": 48}, {"time": 1029, "pitch": 47, "duration": 4, "velocity": 55}, {"time": 1029, "pitch": 59, "duration": 14, "velocity": 67}, {"time": 1029, "pitch": 63, "duration": 14, "velocity": 61}, {"time": 1035, "pitch": 54, "duration": 7, "velocity": 47}, {"time": 1041, "pitch": 37, "duration": 22, "velocity": 75}, {"time": 1044, "pitch": 44, "duration": 21, "velocity": 36}, {"time": 1047, "pitch": 49, "duration": 8, "velocity": 52}, {"time": 1050, "pitch": 56, "duration": 10, "velocity": 66}, {"time": 1053, "pitch": 64, "duration": 13, "velocity": 92}, {"time": 1059, "pitch": 61, "duration": 7, "velocity": 56}, {"time": 1065, "pitch": 39, "duration": 19, "velocity": 63}, {"time": 1071, "pitch": 46, "duration": 17, "velocity": 55}, {"time": 1077, "pitch": 51, "duration": 3, "velocity": 56}, {"time": 1077, "pitch": 66, "duration": 12, "velocity": 81}, {"time": 1083, "pitch": 63, "duration": 6, "velocity": 60}, {"time": 1089, "pitch": 40, "duration": 20, "velocity": 74}, {"time": 1092, "pitch": 47, "duration": 20, "velocity": 68}, {"time": 1095, "pitch": 52, "duration": 8, "velocity": 76}, {"time": 1098, "pitch": 64, "duration": 14, "velocity": 90}, {"time": 1104, "pitch": 52, "duration": 3, "velocity": 68}, {"time": 1107, "pitch": 59, "duration": 6, "velocity": 82}, {"time": 1113, "pitch": 44, "duration": 18, "velocity": 92}, {"time": 1116, "pitch": 51, "duration": 11, "velocity": 73}, {"time": 1119, "pitch": 56, "duration": 3, "velocity": 95}, {"time": 1122, "pitch": 59, "duration": 4, "velocity": 95}, {"time": 1125, "pitch": 63, "duration": 12, "velocity": 93}, {"time": 1128, "pitch": 51, "duration": 3, "velocity": 44}, {"time": 1131, "pitch": 59, "duration": 6, "velocity": 85}, {"time": 1134, "pitch": 56, "duration": 3, "velocity": 76}, {"time": 1137, "pitch": 40, "duration": 18, "velocity": 79}, {"time": 1140, "pitch": 47, "duration": 11, "velocity": 79}, {"time": 1143, "pitch": 52, "duration": 7, "velocity": 74}, {"time": 1146, "pitch": 56, "duration": 7, "velocity": 73}, {"time": 1149, "pitch": 64, "duration": 12, "velocity": 90}, {"time": 1152, "pitch": 47, "duration": 3, "velocity": 55}, {"time": 1155, "pitch": 59, "duration": 6, "velocity": 83}, {"time": 1158, "pitch": 56, "duration": 3, "velocity": 76}, {"time": 1161, "pitch": 37, "duration": 13, "velocity": 74}, {"time": 1164, "pitch": 44, "duration": 11, "velocity": 67}, {"time": 1167, "pitch": 49, "duration": 10, "velocity": 77}, {"time": 1170, "pitch": 56, "duration": 8, "velocity": 63}, {"time": 1173, "pitch": 64, "duration": 2, "velocity": 93}, {"time": 1179, "pitch": 42, "duration": 30, "velocity": 64}, {"time": 1179, "pitch": 49, "duration": 29, "velocity": 74}, {"time": 1179, "pitch": 54, "duration": 29, "velocity": 81}, {"time": 1179, "pitch": 58, "duration": 29, "velocity": 69}, {"time": 1179, "pitch": 61, "duration": 30, "velocity": 75}, {"time": 1209, "pitch": 35, "duration": 23, "velocity": 93}, {"time": 1215, "pitch": 42, "duration": 19, "velocity": 44}, {"time": 1221, "pitch": 63, "duration": 22, "velocity": 96}, {"time": 1227, "pitch": 47, "duration": 20, "velocity": 61}, {"time": 1233, "pitch": 35, "duration": 21, "velocity": 85}, {"time": 1239, "pitch": 42, "duration": 18, "velocity": 44}, {"time": 1245, "pitch": 63, "duration": 22, "velocity": 95}, {"time": 1248, "pitch": 47, "duration": 3, "velocity": 39}, {"time": 1251, "pitch": 59, "duration": 17, "velocity": 72}, {"time": 1254, "pitch": 54, "duration": 15, "velocity": 62}, {"time": 1257, "pitch": 35, "duration": 46, "velocity": 74}, {"time": 1263, "pitch": 42, "duration": 43, "velocity": 46}, {"time": 1269, "pitch": 54, "duration": 7, "velocity": 36}, {"time": 1269, "pitch": 63, "duration": 23, "velocity": 93}, {"time": 1275, "pitch": 59, "duration": 18, "velocity": 69}, {"time": 1287, "pitch": 47, "duration": 7, "velocity": 38}, {"time": 1293, "pitch": 63, "duration": 20, "velocity": 88}, {"time": 1296, "pitch": 47, "duration": 3, "velocity": 42}, {"time": 1299, "pitch": 61, "duration": 9, "velocity": 77}, {"time": 1302, "pitch": 59, "duration": 11, "velocity": 60}, {"time": 1305, "pitch": 35, "duration": 41, "velocity": 68}, {"time": 1311, "pitch": 42, "duration": 40, "velocity": 41}, {"time": 1317, "pitch": 63, "duration": 22, "velocity": 97}, {"time": 1323, "pitch": 47, "duration": 10, "velocity": 69}, {"time": 1329, "pitch": 54, "duration": 10, "velocity": 40}, {"time": 1335, "pitch": 47, "duration": 7, "velocity": 58}, {"time": 1341, "pitch": 63, "duration": 13, "velocity": 97}, {"time": 1344, "pitch": 47, "duration": 3, "velocity": 79}, {"time": 1347, "pitch": 54, "duration": 6, "velocity": 75}, {"time": 1350, "pitch": 59, "duration": 3, "velocity": 67}, {"time": 1353, "pitch": 37, "duration": 19, "velocity": 75}, {"time": 1359, "pitch": 44, "duration": 16, "velocity": 45}, {"time": 1365, "pitch": 49, "duration": 4, "velocity": 79}, {"time": 1365, "pitch": 64, "duration": 7, "velocity": 95}, {"time": 1371, "pitch": 56, "duration": 3, "velocity": 71}, {"time": 1377, "pitch": 39, "duration": 12, "velocity": 86}, {"time": 1377, "pitch": 51, "duration": 12, "velocity": 92}, {"time": 1377, "pitch": 58, "duration": 11, "velocity": 83}, {"time": 1389, "pitch": 43, "duration": 7, "velocity": 61}, {"time": 1389, "pitch": 51, "duration": 12, "velocity": 66}, {"time": 1389, "pitch": 55, "duration": 12, "velocity": 97}, {"time": 1389, "pitch": 58, "duration": 12, "velocity": 82}, {"time": 1401, "pitch": 44, "duration": 20, "velocity": 85}, {"time": 1404, "pitch": 51, "duration": 16, "velocity": 71}, {"time": 1407, "pitch": 56, "duration": 5, "velocity": 68}, {"time": 1410, "pitch": 59, "duration": 5, "velocity": 59}, {"time": 1413, "pitch": 63, "duration": 13, "velocity": 95}, {"time": 1419, "pitch": 56, "duration": 7, "velocity": 71}, {"time": 1425, "pitch": 42, "duration": 19, "velocity": 76}, {"time": 1431, "pitch": 49, "duration": 11, "velocity": 38}, {"time": 1437, "pitch": 54, "duration": 3, "velocity": 73}, {"time": 1437, "pitch": 66, "duration": 12, "velocity": 75}, {"time": 1443, "pitch": 58, "duration": 7, "velocity": 79}, {"time": 1449, "pitch": 40, "duration": 42, "velocity": 88}, {"time": 1455, "pitch": 47, "duration": 8, "velocity": 44}, {"time": 1461, "pitch": 52, "duration": 19, "velocity": 79}, {"time": 1461, "pitch": 64, "duration": 21, "velocity": 97}, {"time": 1467, "pitch": 56, "duration": 25, "velocity": 83}, {"time": 1479, "pitch": 47, "duration": 8, "velocity": 76}, {"time": 1485, "pitch": 64, "duration": 13, "velocity": 97}, {"time": 1488, "pitch": 47, "duration": 2, "velocity": 82}, {"time": 1491, "pitch": 59, "duration": 6, "velocity": 90}, {"time": 1494, "pitch": 56, "duration": 4, "velocity": 82}, {"time": 1497, "pitch": 37, "duration": 20, "velocity": 92}, {"time": 1503, "pitch": 44, "duration": 17, "velocity": 58}, {"time": 1509, "pitch": 49, "duration": 3, "velocity": 82}, {"time": 1509, "pitch": 64, "duration": 13, "velocity": 102}, {"time": 1515, "pitch": 61, "duration": 6, "velocity": 85}, {"time": 1521, "pitch": 39, "duration": 20, "velocity": 89}, {"time": 1527, "pitch": 46, "duration": 17, "velocity": 44}, {"time": 1533, "pitch": 51, "duration": 5, "velocity": 76}, {"time": 1533, "pitch": 58, "duration": 12, "velocity": 88}, {"time": 1533, "pitch": 63, "duration": 12, "velocity": 89}, {"time": 1539, "pitch": 54, "duration": 6, "velocity": 79}, {"time": 1545, "pitch": 40, "duration": 23, "velocity": 97}, {"time": 1551, "pitch": 47, "duration": 17, "velocity": 44}, {"time": 1557, "pitch": 52, "duration": 3, "velocity": 86}, {"time": 1557, "pitch": 59, "duration": 12, "velocity": 117}, {"time": 1563, "pitch": 56, "duration": 6, "velocity": 86}, {"time": 1569, "pitch": 42, "duration": 24, "velocity": 86}, {"time": 1575, "pitch": 49, "duration": 7, "velocity": 72}, {"time": 1581, "pitch": 54, "duration": 6, "velocity": 88}, {"time": 1581, "pitch": 66, "duration": 12, "velocity": 77}, {"time": 1581, "pitch": 70, "duration": 12, "velocity": 85}, {"time": 1587, "pitch": 49, "duration": 7, "velocity": 45}, {"time": 1587, "pitch": 61, "duration": 6, "velocity": 81}, {"time": 1593, "pitch": 40, "duration": 11, "velocity": 95}, {"time": 1599, "pitch": 64, "duration": 5, "velocity": 107}, {"time": 1602, "pitch": 59, "duration": 4, "velocity": 66}, {"time": 1605, "pitch": 39, "duration": 12, "velocity": 90}, {"time": 1608, "pitch": 58, "duration": 4, "velocity": 56}, {"time": 1611, "pitch": 63, "duration": 3, "velocity": 89}, {"time": 1614, "pitch": 58, "duration": 2, "velocity": 39}, {"time": 1617, "pitch": 38, "duration": 11, "velocity": 90}, {"time": 1617, "pitch": 62, "duration": 11, "velocity": 112}, {"time": 1617, "pitch": 66, "duration": 10, "velocity": 79}, {"time": 1629, "pitch": 37, "duration": 12, "velocity": 88}, {"time": 1629, "pitch": 61, "duration": 12, "velocity": 97}, {"time": 1629, "pitch": 68, "duration": 12, "velocity": 102}, {"time": 1641, "pitch": 35, "duration": 18, "velocity": 90}, {"time": 1644, "pitch": 42, "duration": 14, "velocity": 89}, {"time": 1647, "pitch": 47, "duration": 7, "velocity": 83}, {"time": 1650, "pitch": 54, "duration": 6, "velocity": 88}, {"time": 1653, "pitch": 63, "duration": 13, "velocity": 99}, {"time": 1656, "pitch": 47, "duration": 5, "velocity": 78}, {"time": 1659, "pitch": 54, "duration": 4, "velocity": 89}, {"time": 1662, "pitch": 59, "duration": 4, "velocity": 96}, {"time": 1665, "pitch": 46, "duration": 15, "velocity": 97}, {"time": 1668, "pitch": 58, "duration": 5, "velocity": 85}, {"time": 1671, "pitch": 63, "duration": 6, "velocity": 74}, {"time": 1674, "pitch": 58, "duration": 5, "velocity": 73}, {"time": 1677, "pitch": 66, "duration": 12, "velocity": 107}, {"time": 1680, "pitch": 58, "duration": 5, "velocity": 55}, {"time": 1683, "pitch": 63, "duration": 6, "velocity": 69}, {"time": 1686, "pitch": 58, "duration": 3, "velocity": 83}, {"time": 1689, "pitch": 44, "duration": 18, "velocity": 69}, {"time": 1692, "pitch": 51, "duration": 11, "velocity": 70}, {"time": 1695, "pitch": 56, "duration": 4, "velocity": 86}, {"time": 1698, "pitch": 59, "duration": 7, "velocity": 81}, {"time": 1701, "pitch": 68, "duration": 13, "velocity": 96}, {"time": 1704, "pitch": 51, "duration": 2, "velocity": 82}, {"time": 1707, "pitch": 63, "duration": 6, "velocity": 77}, {"time": 1710, "pitch": 59, "duration": 4, "velocity": 83}, {"time": 1713, "pitch": 39, "duration": 20, "velocity": 71}, {"time": 1716, "pitch": 46, "duration": 20, "velocity": 69}, {"time": 1719, "pitch": 51, "duration": 8, "velocity": 89}, {"time": 1722, "pitch": 54, "duration": 7, "velocity": 82}, {"time": 1725, "pitch": 63, "duration": 12, "velocity": 99}, {"time": 1728, "pitch": 51, "duration": 3, "velocity": 76}, {"time": 1731, "pitch": 58, "duration": 6, "velocity": 88}, {"time": 1734, "pitch": 54, "duration": 4, "velocity": 92}, {"time": 1737, "pitch": 40, "duration": 18, "velocity": 79}, {"time": 1740, "pitch": 47, "duration": 11, "velocity": 77}, {"time": 1743, "pitch": 52, "duration": 5, "velocity": 95}, {"time": 1746, "pitch": 56, "duration": 7, "velocity": 88}, {"time": 1749, "pitch": 64, "duration": 13, "velocity": 97}, {"time": 1752, "pitch": 47, "duration": 2, "velocity": 77}, {"time": 1755, "pitch": 59, "duration": 7, "velocity": 97}, {"time": 1758, "pitch": 56, "duration": 4, "velocity": 78}, {"time": 1761, "pitch": 39, "duration": 19, "velocity": 77}, {"time": 1764, "pitch": 46, "duration": 15, "velocity": 89}, {"time": 1767, "pitch": 51, "duration": 8, "velocity": 82}, {"time": 1770, "pitch": 54, "duration": 7, "velocity": 81}, {"time": 1773, "pitch": 63, "duration": 12, "velocity": 100}, {"time": 1776, "pitch": 51, "duration": 3, "velocity": 76}, {"time": 1779, "pitch": 58, "duration": 6, "velocity": 93}, {"time": 1782, "pitch": 54, "duration": 3, "velocity": 79}, {"time": 1785, "pitch": 37, "duration": 16, "velocity": 83}, {"time": 1788, "pitch": 44, "duration": 13, "velocity": 81}, {"time": 1791, "pitch": 49, "duration": 7, "velocity": 90}, {"time": 1794, "pitch": 56, "duration": 8, "velocity": 92}, {"time": 1797, "pitch": 64, "duration": 12, "velocity": 100}, {"time": 1800, "pitch": 49, "duration": 4, "velocity": 99}, {"time": 1803, "pitch": 61, "duration": 6, "velocity": 93}, {"time": 1806, "pitch": 56, "duration": 3, "velocity": 95}, {"time": 1809, "pitch": 45, "duration": 7, "velocity": 83}, {"time": 1809, "pitch": 59, "duration": 10, "velocity": 81}, {"time": 1809, "pitch": 63, "duration": 9, "velocity": 92}, {"time": 1809, "pitch": 66, "duration": 9, "velocity": 89}, {"time": 1809, "pitch": 69, "duration": 8, "velocity": 85}, {"time": 1821, "pitch": 42, "duration": 7, "velocity": 75}, {"time": 1821, "pitch": 54, "duration": 11, "velocity": 100}, {"time": 1821, "pitch": 61, "duration": 9, "velocity": 85}, {"time": 1833, "pitch": 35, "duration": 17, "velocity": 85}, {"time": 1836, "pitch": 42, "duration": 14, "velocity": 82}, {"time": 1839, "pitch": 47, "duration": 7, "velocity": 81}, {"time": 1842, "pitch": 54, "duration": 7, "velocity": 86}, {"time": 1845, "pitch": 63, "duration": 13, "velocity": 93}, {"time": 1848, "pitch": 47, "duration": 3, "velocity": 90}, {"time": 1851, "pitch": 59, "duration": 6, "velocity": 88}, {"time": 1854, "pitch": 54, "duration": 3, "velocity": 78}, {"time": 1857, "pitch": 46, "duration": 17, "velocity": 88}, {"time": 1860, "pitch": 58, "duration": 5, "velocity": 79}, {"time": 1863, "pitch": 63, "duration": 5, "velocity": 75}, {"time": 1866, "pitch": 58, "duration": 5, "velocity": 86}, {"time": 1869, "pitch": 66, "duration": 13, "velocity": 100}, {"time": 1872, "pitch": 58, "duration": 4, "velocity": 63}, {"time": 1875, "pitch": 63, "duration": 6, "velocity": 76}, {"time": 1878, "pitch": 58, "duration": 4, "velocity": 88}, {"time": 1881, "pitch": 44, "duration": 17, "velocity": 72}, {"time": 1884, "pitch": 51, "duration": 10, "velocity": 71}, {"time": 1887, "pitch": 56, "duration": 3, "velocity": 89}, {"time": 1890, "pitch": 59, "duration": 4, "velocity": 86}, {"time": 1893, "pitch": 63, "duration": 11, "velocity": 97}, {"time": 1896, "pitch": 51, "duration": 2, "velocity": 55}, {"time": 1899, "pitch": 59, "duration": 6, "velocity": 68}, {"time": 1902, "pitch": 56, "duration": 4, "velocity": 82}, {"time": 1905, "pitch": 39, "duration": 22, "velocity": 70}, {"time": 1908, "pitch": 46, "duration": 21, "velocity": 62}, {"time": 1911, "pitch": 51, "duration": 7, "velocity": 82}, {"time": 1914, "pitch": 58, "duration": 7, "velocity": 93}, {"time": 1917, "pitch": 66, "duration": 12, "velocity": 102}, {"time": 1920, "pitch": 51, "duration": 3, "velocity": 89}, {"time": 1923, "pitch": 63, "duration": 6, "velocity": 88}, {"time": 1926, "pitch": 58, "duration": 4, "velocity": 77}, {"time": 1929, "pitch": 40, "duration": 18, "velocity": 64}, {"time": 1932, "pitch": 47, "duration": 15, "velocity": 66}, {"time": 1935, "pitch": 52, "duration": 7, "velocity": 82}, {"time": 1938, "pitch": 56, "duration": 10, "velocity": 83}, {"time": 1941, "pitch": 63, "duration": 13, "velocity": 97}, {"time": 1944, "pitch": 52, "duration": 2, "velocity": 73}, {"time": 1947, "pitch": 59, "duration": 7, "velocity": 97}, {"time": 1950, "pitch": 56, "duration": 4, "velocity": 77}, {"time": 1953, "pitch": 39, "duration": 18, "velocity": 69}, {"time": 1956, "pitch": 46, "duration": 14, "velocity": 63}, {"time": 1959, "pitch": 51, "duration": 8, "velocity": 78}, {"time": 1962, "pitch": 54, "duration": 7, "velocity": 93}, {"time": 1965, "pitch": 63, "duration": 12, "velocity": 99}, {"time": 1968, "pitch": 51, "duration": 2, "velocity": 82}, {"time": 1971, "pitch": 58, "duration": 5, "velocity": 83}, {"time": 1974, "pitch": 54, "duration": 3, "velocity": 89}, {"time": 1977, "pitch": 37, "duration": 17, "velocity": 73}, {"time": 1980, "pitch": 44, "duration": 13, "velocity": 74}, {"time": 1983, "pitch": 49, "duration": 7, "velocity": 77}, {"time": 1986, "pitch": 56, "duration": 7, "velocity": 88}, {"time": 1989, "pitch": 64, "duration": 11, "velocity": 107}, {"time": 1992, "pitch": 49, "duration": 4, "velocity": 83}, {"time": 1995, "pitch": 61, "duration": 5, "velocity": 81}, {"time": 1998, "pitch": 56, "duration": 3, "velocity": 83}, {"time": 2001, "pitch": 42, "duration": 19, "velocity": 71}, {"time": 2004, "pitch": 49, "duration": 11, "velocity": 58}, {"time": 2007, "pitch": 54, "duration": 4, "velocity": 74}, {"time": 2013, "pitch": 54, "duration": 4, "velocity": 90}, {"time": 2013, "pitch": 58, "duration": 12, "velocity": 93}, {"time": 2013, "pitch": 61, "duration": 12, "velocity": 99}, {"time": 2016, "pitch": 49, "duration": 2, "velocity": 76}, {"time": 2019, "pitch": 54, "duration": 6, "velocity": 107}, {"time": 2025, "pitch": 40, "duration": 20, "velocity": 95}, {"time": 2028, "pitch": 47, "duration": 16, "velocity": 97}, {"time": 2031, "pitch": 52, "duration": 7, "velocity": 81}, {"time": 2034, "pitch": 59, "duration": 5, "velocity": 90}, {"time": 2037, "pitch": 64, "duration": 7, "velocity": 95}, {"time": 2037, "pitch": 68, "duration": 12, "velocity": 100}, {"time": 2040, "pitch": 52, "duration": 2, "velocity": 95}, {"time": 2043, "pitch": 59, "duration": 6, "velocity": 95}, {"time": 2046, "pitch": 64, "duration": 3, "velocity": 97}, {"time": 2049, "pitch": 39, "duration": 19, "velocity": 86}, {"time": 2052, "pitch": 46, "duration": 11, "velocity": 78}, {"time": 2055, "pitch": 51, "duration": 7, "velocity": 93}, {"time": 2058, "pitch": 58, "duration": 6, "velocity": 77}, {"time": 2061, "pitch": 66, "duration": 12, "velocity": 102}, {"time": 2064, "pitch": 46, "duration": 3, "velocity": 66}, {"time": 2067, "pitch": 63, "duration": 6, "velocity": 86}, {"time": 2070, "pitch": 58, "duration": 3, "velocity": 86}, {"time": 2073, "pitch": 37, "duration": 18, "velocity": 78}, {"time": 2076, "pitch": 44, "duration": 15, "velocity": 76}, {"time": 2079, "pitch": 49, "duration": 7, "velocity": 90}, {"time": 2082, "pitch": 56, "duration": 7, "velocity": 100}, {"time": 2085, "pitch": 64, "duration": 11, "velocity": 112}, {"time": 2088, "pitch": 49, "duration": 2, "velocity": 92}, {"time": 2091, "pitch": 61, "duration": 5, "velocity": 107}, {"time": 2094, "pitch": 56, "duration": 3, "velocity": 95}, {"time": 2097, "pitch": 35, "duration": 17, "velocity": 86}, {"time": 2100, "pitch": 42, "duration": 14, "velocity": 97}, {"time": 2103, "pitch": 47, "duration": 8, "velocity": 99}, {"time": 2106, "pitch": 54, "duration": 6, "velocity": 96}, {"time": 2109, "pitch": 63, "duration": 12, "velocity": 127}, {"time": 2112, "pitch": 47, "duration": 4, "velocity": 100}, {"time": 2115, "pitch": 59, "duration": 6, "velocity": 107}, {"time": 2118, "pitch": 54, "duration": 3, "velocity": 96}, {"time": 2121, "pitch": 40, "duration": 19, "velocity": 90}, {"time": 2124, "pitch": 47, "duration": 15, "velocity": 96}, {"time": 2127, "pitch": 52, "duration": 8, "velocity": 95}, {"time": 2130, "pitch": 59, "duration": 16, "velocity": 99}, {"time": 2133, "pitch": 64, "duration": 8, "velocity": 96}, {"time": 2133, "pitch": 68, "duration": 13, "velocity": 99}, {"time": 2136, "pitch": 52, "duration": 2, "velocity": 83}, {"time": 2139, "pitch": 63, "duration": 7, "velocity": 92}, {"time": 2142, "pitch": 64, "duration": 4, "velocity": 67}, {"time": 2145, "pitch": 39, "duration": 18, "velocity": 85}, {"time": 2148, "pitch": 46, "duration": 15, "velocity": 89}, {"time": 2151, "pitch": 51, "duration": 8, "velocity": 89}, {"time": 2154, "pitch": 54, "duration": 9, "velocity": 70}, {"time": 2157, "pitch": 63, "duration": 11, "velocity": 112}, {"time": 2160, "pitch": 51, "duration": 5, "velocity": 95}, {"time": 2163, "pitch": 58, "duration": 5, "velocity": 97}, {"time": 2166, "pitch": 54, "duration": 3, "velocity": 95}, {"time": 2169, "pitch": 45, "duration": 21, "velocity": 122}, {"time": 2172, "pitch": 52, "duration": 8, "velocity": 78}, {"time": 2175, "pitch": 57, "duration": 4, "velocity": 92}, {"time": 2178, "pitch": 61, "duration": 14, "velocity": 102}, {"time": 2187, "pitch": 57, "duration": 5, "velocity": 100}, {"time": 2193, "pitch": 42, "duration": 12, "velocity": 90}, {"time": 2193, "pitch": 54, "duration": 10, "velocity": 99}, {"time": 2193, "pitch": 58, "duration": 10, "velocity": 99}, {"time": 2193, "pitch": 61, "duration": 10, "velocity": 100}, {"time": 2205, "pitch": 44, "duration": 8, "velocity": 127}, {"time": 2205, "pitch": 56, "duration": 12, "velocity": 112}, {"time": 2205, "pitch": 60, "duration": 10, "velocity": 127}, {"time": 2205, "pitch": 63, "duration": 11, "velocity": 127}, {"time": 2217, "pitch": 37, "duration": 17, "velocity": 96}, {"time": 2220, "pitch": 44, "duration": 14, "velocity": 97}, {"time": 2223, "pitch": 49, "duration": 7, "velocity": 102}, {"time": 2226, "pitch": 56, "duration": 8, "velocity": 92}, {"time": 2229, "pitch": 65, "duration": 13, "velocity": 127}, {"time": 2232, "pitch": 49, "duration": 3, "velocity": 95}, {"time": 2235, "pitch": 61, "duration": 4, "velocity": 90}, {"time": 2238, "pitch": 56, "duration": 5, "velocity": 100}, {"time": 2241, "pitch": 36, "duration": 17, "velocity": 102}, {"time": 2244, "pitch": 48, "duration": 9, "velocity": 72}, {"time": 2247, "pitch": 56, "duration": 7, "velocity": 83}, {"time": 2250, "pitch": 60, "duration": 4, "velocity": 72}, {"time": 2253, "pitch": 65, "duration": 13, "velocity": 122}, {"time": 2256, "pitch": 48, "duration": 3, "velocity": 83}, {"time": 2259, "pitch": 56, "duration": 6, "velocity": 99}, {"time": 2262, "pitch": 60, "duration": 3, "velocity": 102}, {"time": 2265, "pitch": 46, "duration": 18, "velocity": 85}, {"time": 2268, "pitch": 53, "duration": 11, "velocity": 97}, {"time": 2271, "pitch": 58, "duration": 8, "velocity": 81}, {"time": 2274, "pitch": 61, "duration": 4, "velocity": 92}, {"time": 2277, "pitch": 65, "duration": 10, "velocity": 122}, {"time": 2280, "pitch": 53, "duration": 2, "velocity": 95}, {"time": 2283, "pitch": 61, "duration": 6, "velocity": 93}, {"time": 2286, "pitch": 58, "duration": 5, "velocity": 96}, {"time": 2289, "pitch": 44, "duration": 18, "velocity": 88}, {"time": 2292, "pitch": 51, "duration": 10, "velocity": 90}, {"time": 2295, "pitch": 56, "duration": 5, "velocity": 90}, {"time": 2298, "pitch": 60, "duration": 4, "velocity": 90}, {"time": 2301, "pitch": 63, "duration": 11, "velocity": 100}, {"time": 2304, "pitch": 51, "duration": 2, "velocity": 90}, {"time": 2307, "pitch": 60, "duration": 5, "velocity": 107}, {"time": 2310, "pitch": 56, "duration": 3, "velocity": 95}, {"time": 2313, "pitch": 42, "duration": 17, "velocity": 88}, {"time": 2316, "pitch": 49, "duration": 14, "velocity": 88}, {"time": 2319, "pitch": 54, "duration": 7, "velocity": 88}, {"time": 2322, "pitch": 58, "duration": 6, "velocity": 90}, {"time": 2325, "pitch": 66, "duration": 10, "velocity": 112}, {"time": 2328, "pitch": 54, "duration": 2, "velocity": 85}, {"time": 2331, "pitch": 61, "duration": 4, "velocity": 99}, {"time": 2334, "pitch": 58, "duration": 4, "velocity": 90}, {"time": 2337, "pitch": 41, "duration": 19, "velocity": 71}, {"time": 2340, "pitch": 48, "duration": 14, "velocity": 35}, {"time": 2343, "pitch": 53, "duration": 7, "velocity": 90}, {"time": 2346, "pitch": 56, "duration": 8, "velocity": 93}, {"time": 2349, "pitch": 65, "duration": 11, "velocity": 127}, {"time": 2352, "pitch": 53, "duration": 2, "velocity": 89}, {"time": 2355, "pitch": 60, "duration": 5, "velocity": 107}, {"time": 2358, "pitch": 56, "duration": 4, "velocity": 97}, {"time": 2361, "pitch": 39, "duration": 19, "velocity": 75}, {"time": 2364, "pitch": 46, "duration": 14, "velocity": 83}, {"time": 2367, "pitch": 51, "duration": 7, "velocity": 93}, {"time": 2370, "pitch": 58, "duration": 5, "velocity": 92}, {"time": 2373, "pitch": 66, "duration": 7, "velocity": 112}, {"time": 2376, "pitch": 51, "duration": 6, "velocity": 97}, {"time": 2379, "pitch": 58, "duration": 3, "velocity": 100}, {"time": 2385, "pitch": 45, "duration": 12, "velocity": 112}, {"time": 2385, "pitch": 52, "duration": 10, "velocity": 93}, {"time": 2385, "pitch": 57, "duration": 11, "velocity": 102}, {"time": 2385, "pitch": 61, "duration": 8, "velocity": 99}, {"time": 2397, "pitch": 44, "duration": 9, "velocity": 89}, {"time": 2397, "pitch": 56, "duration": 12, "velocity": 100}, {"time": 2397, "pitch": 60, "duration": 11, "velocity": 117}, {"time": 2397, "pitch": 63, "duration": 11, "velocity": 107}, {"time": 2409, "pitch": 37, "duration": 16, "velocity": 93}, {"time": 2412, "pitch": 44, "duration": 13, "velocity": 93}, {"time": 2415, "pitch": 49, "duration": 6, "velocity": 90}, {"time": 2418, "pitch": 56, "duration": 6, "velocity": 95}, {"time": 2421, "pitch": 65, "duration": 7, "velocity": 122}, {"time": 2424, "pitch": 49, "duration": 2, "velocity": 88}, {"time": 2427, "pitch": 56, "duration": 11, "velocity": 95}, {"time": 2430, "pitch": 65, "duration": 12, "velocity": 122}, {"time": 2433, "pitch": 36, "duration": 18, "velocity": 79}, {"time": 2439, "pitch": 48, "duration": 8, "velocity": 76}, {"time": 2442, "pitch": 60, "duration": 4, "velocity": 86}, {"time": 2445, "pitch": 65, "duration": 13, "velocity": 107}, {"time": 2448, "pitch": 48, "duration": 4, "velocity": 89}, {"time": 2451, "pitch": 60, "duration": 6, "velocity": 93}, {"time": 2454, "pitch": 56, "duration": 4, "velocity": 90}, {"time": 2457, "pitch": 46, "duration": 17, "velocity": 77}, {"time": 2460, "pitch": 53, "duration": 11, "velocity": 85}, {"time": 2463, "pitch": 58, "duration": 8, "velocity": 69}, {"time": 2466, "pitch": 61, "duration": 4, "velocity": 85}, {"time": 2469, "pitch": 65, "duration": 11, "velocity": 102}, {"time": 2472, "pitch": 53, "duration": 3, "velocity": 99}, {"time": 2475, "pitch": 61, "duration": 5, "velocity": 93}, {"time": 2478, "pitch": 58, "duration": 5, "velocity": 97}, {"time": 2481, "pitch": 44, "duration": 18, "velocity": 77}, {"time": 2484, "pitch": 51, "duration": 10, "velocity": 89}, {"time": 2487, "pitch": 56, "duration": 9, "velocity": 74}, {"time": 2490, "pitch": 60, "duration": 6, "velocity": 102}, {"time": 2493, "pitch": 63, "duration": 12, "velocity": 95}, {"time": 2496, "pitch": 51, "duration": 3, "velocity": 97}, {"time": 2499, "pitch": 60, "duration": 6, "velocity": 122}, {"time": 2502, "pitch": 56, "duration": 4, "velocity": 96}, {"time": 2505, "pitch": 42, "duration": 17, "velocity": 81}, {"time": 2508, "pitch": 49, "duration": 14, "velocity": 82}, {"time": 2511, "pitch": 54, "duration": 7, "velocity": 95}, {"time": 2514, "pitch": 58, "duration": 6, "velocity": 93}, {"time": 2517, "pitch": 66, "duration": 12, "velocity": 95}, {"time": 2520, "pitch": 54, "duration": 2, "velocity": 82}, {"time": 2523, "pitch": 61, "duration": 5, "velocity": 96}, {"time": 2526, "pitch": 58, "duration": 4, "velocity": 93}, {"time": 2529, "pitch": 41, "duration": 18, "velocity": 73}, {"time": 2532, "pitch": 48, "duration": 14, "velocity": 88}, {"time": 2535, "pitch": 53, "duration": 7, "velocity": 93}, {"time": 2538, "pitch": 56, "duration": 6, "velocity": 89}, {"time": 2541, "pitch": 65, "duration": 12, "velocity": 117}, {"time": 2544, "pitch": 53, "duration": 2, "velocity": 85}, {"time": 2547, "pitch": 56, "duration": 6, "velocity": 85}, {"time": 2550, "pitch": 60, "duration": 3, "velocity": 117}, {"time": 2553, "pitch": 39, "duration": 17, "velocity": 73}, {"time": 2556, "pitch": 46, "duration": 14, "velocity": 77}, {"time": 2559, "pitch": 51, "duration": 7, "velocity": 90}, {"time": 2562, "pitch": 54, "duration": 10, "velocity": 85}, {"time": 2565, "pitch": 63, "duration": 12, "velocity": 99}, {"time": 2568, "pitch": 51, "duration": 5, "velocity": 81}, {"time": 2571, "pitch": 58, "duration": 5, "velocity": 93}, {"time": 2574, "pitch": 54, "duration": 3, "velocity": 93}, {"time": 2577, "pitch": 44, "duration": 15, "velocity": 76}, {"time": 2580, "pitch": 51, "duration": 11, "velocity": 66}, {"time": 2583, "pitch": 56, "duration": 4, "velocity": 78}, {"time": 2586, "pitch": 60, "duration": 16, "velocity": 76}, {"time": 2589, "pitch": 63, "duration": 12, "velocity": 77}, {"time": 2601, "pitch": 37, "duration": 24, "velocity": 88}, {"time": 2607, "pitch": 44, "duration": 18, "velocity": 44}, {"time": 2613, "pitch": 49, "duration": 11, "velocity": 63}, {"time": 2613, "pitch": 61, "duration": 10, "velocity": 71}, {"time": 2613, "pitch": 65, "duration": 11, "velocity": 62}, {"time": 2619, "pitch": 56, "duration": 6, "velocity": 51}, {"time": 2625, "pitch": 37, "duration": 17, "velocity": 56}, {"time": 2625, "pitch": 44, "duration": 17, "velocity": 56}, {"time": 2625, "pitch": 49, "duration": 20, "velocity": 72}, {"time": 2625, "pitch": 56, "duration": 11, "velocity": 72}, {"time": 2625, "pitch": 61, "duration": 11, "velocity": 88}, {"time": 2625, "pitch": 65, "duration": 11, "velocity": 81}, {"time": 2637, "pitch": 56, "duration": 13, "velocity": 45}, {"time": 2637, "pitch": 61, "duration": 13, "velocity": 63}, {"time": 2637, "pitch": 65, "duration": 13, "velocity": 58}, {"time": 2649, "pitch": 42, "duration": 22, "velocity": 63}, {"time": 2649, "pitch": 54, "duration": 11, "velocity": 72}, {"time": 2649, "pitch": 58, "duration": 11, "velocity": 72}, {"time": 2649, "pitch": 61, "duration": 1, "velocity": 69}, {"time": 2655, "pitch": 49, "duration": 14, "velocity": 38}, {"time": 2661, "pitch": 61, "duration": 12, "velocity": 64}, {"time": 2661, "pitch": 58, "duration": 11, "velocity": 58}, {"time": 2667, "pitch": 54, "duration": 5, "velocity": 56}, {"time": 2673, "pitch": 60, "duration": 12, "velocity": 76}, {"time": 2673, "pitch": 65, "duration": 11, "velocity": 76}, {"time": 2674, "pitch": 41, "duration": 15, "velocity": 53}, {"time": 2679, "pitch": 53, "duration": 7, "velocity": 52}, {"time": 2686, "pitch": 60, "duration": 11, "velocity": 66}, {"time": 2686, "pitch": 65, "duration": 9, "velocity": 62}, {"time": 2692, "pitch": 56, "duration": 3, "velocity": 37}, {"time": 2698, "pitch": 39, "duration": 17, "velocity": 56}, {"time": 2698, "pitch": 63, "duration": 6, "velocity": 68}, {"time": 2698, "pitch": 58, "duration": 14, "velocity": 68}, {"time": 2704, "pitch": 46, "duration": 12, "velocity": 34}, {"time": 2710, "pitch": 66, "duration": 9, "velocity": 72}, {"time": 2710, "pitch": 51, "duration": 6, "velocity": 40}, {"time": 2716, "pitch": 58, "duration": 4, "velocity": 59}, {"time": 2722, "pitch": 60, "duration": 12, "velocity": 64}, {"time": 2722, "pitch": 63, "duration": 46, "velocity": 70}, {"time": 2722, "pitch": 56, "duration": 46, "velocity": 75}, {"time": 2722, "pitch": 44, "duration": 31, "velocity": 74}, {"time": 2730, "pitch": 51, "duration": 18, "velocity": 43}, {"time": 2736, "pitch": 58, "duration": 32, "velocity": 53}, {"time": 2766, "pitch": 65, "duration": 13, "velocity": 65}, {"time": 2766, "pitch": 61, "duration": 13, "velocity": 68}, {"time": 2766, "pitch": 56, "duration": 2, "velocity": 53}, {"time": 2766, "pitch": 37, "duration": 15, "velocity": 57}, {"time": 2772, "pitch": 49, "duration": 17, "velocity": 37}, {"time": 2777, "pitch": 56, "duration": 19, "velocity": 62}, {"time": 2783, "pitch": 65, "duration": 15, "velocity": 57}, {"time": 2789, "pitch": 48, "duration": 23, "velocity": 63}, {"time": 2795, "pitch": 60, "duration": 20, "velocity": 52}, {"time": 2802, "pitch": 65, "duration": 15, "velocity": 69}, {"time": 2814, "pitch": 46, "duration": 24, "velocity": 65}, {"time": 2820, "pitch": 53, "duration": 18, "velocity": 52}, {"time": 2826, "pitch": 65, "duration": 12, "velocity": 77}, {"time": 2832, "pitch": 58, "duration": 6, "velocity": 53}, {"time": 2839, "pitch": 54, "duration": 10, "velocity": 57}, {"time": 2839, "pitch": 63, "duration": 11, "velocity": 61}, {"time": 2839, "pitch": 59, "duration": 11, "velocity": 61}, {"time": 2839, "pitch": 47, "duration": 10, "velocity": 44}, {"time": 2839, "pitch": 35, "duration": 8, "velocity": 38}, {"time": 2854, "pitch": 56, "duration": 22, "velocity": 50}, {"time": 2854, "pitch": 60, "duration": 20, "velocity": 53}, {"time": 2854, "pitch": 63, "duration": 22, "velocity": 60}, {"time": 2855, "pitch": 51, "duration": 18, "velocity": 61}, {"time": 2855, "pitch": 44, "duration": 18, "velocity": 54}, {"time": 2884, "pitch": 65, "duration": 6, "velocity": 56}, {"time": 2886, "pitch": 61, "duration": 4, "velocity": 31}, {"time": 2886, "pitch": 37, "duration": 77, "velocity": 67}, {"time": 2887, "pitch": 56, "duration": 3, "velocity": 27}, {"time": 2891, "pitch": 44, "duration": 71, "velocity": 39}, {"time": 2895, "pitch": 49, "duration": 67, "velocity": 59}, {"time": 2897, "pitch": 53, "duration": 3, "velocity": 52}, {"time": 2900, "pitch": 56, "duration": 1, "velocity": 55}, {"time": 2903, "pitch": 61, "duration": 7, "velocity": 64}, {"time": 2906, "pitch": 65, "duration": 4, "velocity": 47}, {"time": 2909, "pitch": 68, "duration": 2, "velocity": 66}, {"time": 2913, "pitch": 73, "duration": 9, "velocity": 62}, {"time": 2917, "pitch": 77, "duration": 5, "velocity": 43}, {"time": 2921, "pitch": 80, "duration": 2, "velocity": 59}, {"time": 2926, "pitch": 85, "duration": 36, "velocity": 54}, {"time": 2932, "pitch": 89, "duration": 30, "velocity": 53}, {"time": 2937, "pitch": 92, "duration": 25, "velocity": 56}, {"time": 2948, "pitch": 97, "duration": 15, "velocity": 39}], "annotations": [{"time": 10, "annotation": {"number": 64, "value": 127}, "group": "control_change"}, {"time": 32, "annotation": {"number": 64, "value": 0}, "group": "control_change"}, {"time": 39, "annotation": {"number": 64, "value": 127}, "group": "control_change"}, {"time": 54, "annotation": {"number": 64, "value": 0}, "group": "control_change"}, {"time": 54, "annotation": {"number": 64, "value": 127}, "group": "control_change"}, {"time": 166, "annotation": {"number": 64, "value": 127}, "group": "control_change"}, {"time": 169, "annotation": {"number": 64, "value": 0}, "group": "control_change"}, {"time": 189, "annotation": {"number": 64, "value": 127}, "group": "control_change"}, {"time": 198, "annotation": {"number": 64, "value": 0}, "group": "control_change"}, {"time": 202, "annotation": {"number": 64, "value": 127}, "group": "control_change"}, {"time": 245, "annotation": {"number": 64, "value": 0}, "group": "control_change"}, {"time": 298, "annotation": {"number": 64, "value": 127}, "group": "control_change"}, {"time": 342, "annotation": {"number": 64, "value": 0}, "group": "control_change"}, {"time": 370, "annotation": {"number": 64, "value": 127}, "group": "control_change"}, {"time": 377, "annotation": {"number": 64, "value": 0}, "group": "control_change"}, {"time": 378, "annotation": {"number": 64, "value": 127}, "group": "control_change"}, {"time": 378, "annotation": {"number": 64, "value": 0}, "group": "control_change"}, {"time": 382, "annotation": {"number": 64, "value": 127}, "group": "control_change"}, {"time": 391, "annotation": {"number": 64, "value": 0}, "group": "control_change"}, {"time": 394, "annotation": {"number": 64, "value": 127}, "group": "control_change"}, {"time": 414, "annotation": {"number": 64, "value": 0}, "group": "control_change"}, {"time": 469, "annotation": {"number": 64, "value": 127}, "group": "control_change"}, {"time": 470, "annotation": {"number": 64, "value": 0}, "group": "control_change"}, {"time": 490, "annotation": {"number": 64, "value": 127}, "group": "control_change"}, {"time": 507, "annotation": {"number": 64, "value": 0}, "group": "control_change"}, {"time": 514, "annotation": {"number": 64, "value": 127}, "group": "control_change"}, {"time": 532, "annotation": {"number": 64, "value": 0}, "group": "control_change"}, {"time": 532, "annotation": {"number": 64, "value": 127}, "group": "control_change"}, {"time": 533, "annotation": {"number": 64, "value": 0}, "group": "control_change"}, {"time": 538, "annotation": {"number": 64, "value": 127}, "group": "control_change"}, {"time": 556, "annotation": {"number": 64, "value": 0}, "group": "control_change"}, {"time": 562, "annotation": {"number": 64, "value": 127}, "group": "control_change"}, {"time": 567, "annotation": {"number": 64, "value": 0}, "group": "control_change"}, {"time": 567, "annotation": {"number": 64, "value": 127}, "group": "control_change"}, {"time": 573, "annotation": {"number": 64, "value": 0}, "group": "control_change"}, {"time": 573, "annotation": {"number": 64, "value": 127}, "group": "control_change"}, {"time": 574, "annotation": {"number": 64, "value": 0}, "group": "control_change"}, {"time": 574, "annotation": {"number": 64, "value": 127}, "group": "control_change"}, {"time": 633, "annotation": {"number": 64, "value": 127}, "group": "control_change"}, {"time": 655, "annotation": {"number": 64, "value": 0}, "group": "control_change"}, {"time": 658, "annotation": {"number": 64, "value": 127}, "group": "control_change"}, {"time": 679, "annotation": {"number": 64, "value": 0}, "group": "control_change"}, {"time": 682, "annotation": {"number": 64, "value": 127}, "group": "control_change"}, {"time": 703, "annotation": {"number": 64, "value": 0}, "group": "control_change"}, {"time": 706, "annotation": {"number": 64, "value": 127}, "group": "control_change"}, {"time": 726, "annotation": {"number": 64, "value": 0}, "group": "control_change"}, {"time": 730, "annotation": {"number": 64, "value": 127}, "group": "control_change"}, {"time": 751, "annotation": {"number": 64, "value": 0}, "group": "control_change"}, {"time": 778, "annotation": {"number": 64, "value": 127}, "group": "control_change"}, {"time": 798, "annotation": {"number": 64, "value": 0}, "group": "control_change"}, {"time": 802, "annotation": {"number": 64, "value": 127}, "group": "control_change"}, {"time": 823, "annotation": {"number": 64, "value": 0}, "group": "control_change"}, {"time": 826, "annotation": {"number": 64, "value": 127}, "group": "control_change"}, {"time": 846, "annotation": {"number": 64, "value": 0}, "group": "control_change"}, {"time": 849, "annotation": {"number": 64, "value": 127}, "group": "control_change"}, {"time": 871, "annotation": {"number": 64, "value": 0}, "group": "control_change"}, {"time": 874, "annotation": {"number": 64, "value": 127}, "group": "control_change"}, {"time": 895, "annotation": {"number": 64, "value": 0}, "group": "control_change"}, {"time": 897, "annotation": {"number": 64, "value": 127}, "group": "control_change"}, {"time": 918, "annotation": {"number": 64, "value": 0}, "group": "control_change"}, {"time": 922, "annotation": {"number": 64, "value": 127}, "group": "control_change"}, {"time": 943, "annotation": {"number": 64, "value": 0}, "group": "control_change"}, {"time": 946, "annotation": {"number": 64, "value": 127}, "group": "control_change"}, {"time": 966, "annotation": {"number": 64, "value": 0}, "group": "control_change"}, {"time": 970, "annotation": {"number": 64, "value": 127}, "group": "control_change"}, {"time": 990, "annotation": {"number": 64, "value": 0}, "group": "control_change"}, {"time": 995, "annotation": {"number": 64, "value": 127}, "group": "control_change"}, {"time": 1013, "annotation": {"number": 64, "value": 0}, "group": "control_change"}, {"time": 1018, "annotation": {"number": 64, "value": 127}, "group": "control_change"}, {"time": 1038, "annotation": {"number": 64, "value": 0}, "group": "control_change"}, {"time": 1043, "annotation": {"number": 64, "value": 127}, "group": "control_change"}, {"time": 1063, "annotation": {"number": 64, "value": 0}, "group": "control_change"}, {"time": 1066, "annotation": {"number": 64, "value": 127}, "group": "control_change"}, {"time": 1086, "annotation": {"number": 64, "value": 0}, "group": "control_change"}, {"time": 1090, "annotation": {"number": 64, "value": 127}, "group": "control_change"}, {"time": 1108, "annotation": {"number": 64, "value": 0}, "group": "control_change"}, {"time": 1114, "annotation": {"number": 64, "value": 127}, "group": "control_change"}, {"time": 1131, "annotation": {"number": 64, "value": 0}, "group": "control_change"}, {"time": 1146, "annotation": {"number": 64, "value": 127}, "group": "control_change"}, {"time": 1158, "annotation": {"number": 64, "value": 0}, "group": "control_change"}, {"time": 1162, "annotation": {"number": 64, "value": 127}, "group": "control_change"}, {"time": 1176, "annotation": {"number": 64, "value": 0}, "group": "control_change"}, {"time": 1210, "annotation": {"number": 64, "value": 127}, "group": "control_change"}, {"time": 1219, "annotation": {"number": 64, "value": 0}, "group": "control_change"}, {"time": 1277, "annotation": {"number": 64, "value": 127}, "group": "control_change"}, {"time": 1289, "annotation": {"number": 64, "value": 0}, "group": "control_change"}, {"time": 1306, "annotation": {"number": 64, "value": 127}, "group": "control_change"}, {"time": 1350, "annotation": {"number": 64, "value": 0}, "group": "control_change"}, {"time": 1354, "annotation": {"number": 64, "value": 127}, "group": "control_change"}, {"time": 1374, "annotation": {"number": 64, "value": 0}, "group": "control_change"}, {"time": 1377, "annotation": {"number": 64, "value": 127}, "group": "control_change"}, {"time": 1388, "annotation": {"number": 64, "value": 0}, "group": "control_change"}, {"time": 1402, "annotation": {"number": 64, "value": 127}, "group": "control_change"}, {"time": 1423, "annotation": {"number": 64, "value": 0}, "group": "control_change"}, {"time": 1426, "annotation": {"number": 64, "value": 127}, "group": "control_change"}, {"time": 1432, "annotation": {"number": 64, "value": 0}, "group": "control_change"}, {"time": 1432, "annotation": {"number": 64, "value": 127}, "group": "control_change"}, {"time": 1435, "annotation": {"number": 64, "value": 0}, "group": "control_change"}, {"time": 1439, "annotation": {"number": 64, "value": 127}, "group": "control_change"}, {"time": 1440, "annotation": {"number": 64, "value": 0}, "group": "control_change"}, {"time": 1440, "annotation": {"number": 64, "value": 127}, "group": "control_change"}, {"time": 1446, "annotation": {"number": 64, "value": 0}, "group": "control_change"}, {"time": 1451, "annotation": {"number": 64, "value": 127}, "group": "control_change"}, {"time": 1459, "annotation": {"number": 64, "value": 0}, "group": "control_change"}, {"time": 1467, "annotation": {"number": 64, "value": 127}, "group": "control_change"}, {"time": 1482, "annotation": {"number": 64, "value": 0}, "group": "control_change"}, {"time": 1483, "annotation": {"number": 64, "value": 127}, "group": "control_change"}, {"time": 1494, "annotation": {"number": 64, "value": 0}, "group": "control_change"}, {"time": 1498, "annotation": {"number": 64, "value": 127}, "group": "control_change"}, {"time": 1518, "annotation": {"number": 64, "value": 0}, "group": "control_change"}, {"time": 1521, "annotation": {"number": 64, "value": 127}, "group": "control_change"}, {"time": 1542, "annotation": {"number": 64, "value": 0}, "group": "control_change"}, {"time": 1545, "annotation": {"number": 64, "value": 127}, "group": "control_change"}, {"time": 1565, "annotation": {"number": 64, "value": 0}, "group": "control_change"}, {"time": 1570, "annotation": {"number": 64, "value": 127}, "group": "control_change"}, {"time": 1588, "annotation": {"number": 64, "value": 0}, "group": "control_change"}, {"time": 1594, "annotation": {"number": 64, "value": 127}, "group": "control_change"}, {"time": 1603, "annotation": {"number": 64, "value": 0}, "group": "control_change"}, {"time": 1606, "annotation": {"number": 64, "value": 127}, "group": "control_change"}, {"time": 1614, "annotation": {"number": 64, "value": 0}, "group": "control_change"}, {"time": 1618, "annotation": {"number": 64, "value": 127}, "group": "control_change"}, {"time": 1624, "annotation": {"number": 64, "value": 0}, "group": "control_change"}, {"time": 1624, "annotation": {"number": 64, "value": 127}, "group": "control_change"}, {"time": 1642, "annotation": {"number": 64, "value": 127}, "group": "control_change"}, {"time": 1662, "annotation": {"number": 64, "value": 0}, "group": "control_change"}, {"time": 1665, "annotation": {"number": 64, "value": 127}, "group": "control_change"}, {"time": 1686, "annotation": {"number": 64, "value": 0}, "group": "control_change"}, {"time": 1706, "annotation": {"number": 64, "value": 127}, "group": "control_change"}, {"time": 1711, "annotation": {"number": 64, "value": 0}, "group": "control_change"}, {"time": 1714, "annotation": {"number": 64, "value": 127}, "group": "control_change"}, {"time": 1734, "annotation": {"number": 64, "value": 0}, "group": "control_change"}, {"time": 1738, "annotation": {"number": 64, "value": 127}, "group": "control_change"}, {"time": 1759, "annotation": {"number": 64, "value": 0}, "group": "control_change"}, {"time": 1762, "annotation": {"number": 64, "value": 127}, "group": "control_change"}, {"time": 1782, "annotation": {"number": 64, "value": 0}, "group": "control_change"}, {"time": 1785, "annotation": {"number": 64, "value": 127}, "group": "control_change"}, {"time": 1806, "annotation": {"number": 64, "value": 0}, "group": "control_change"}, {"time": 1810, "annotation": {"number": 64, "value": 127}, "group": "control_change"}, {"time": 1820, "annotation": {"number": 64, "value": 0}, "group": "control_change"}, {"time": 1834, "annotation": {"number": 64, "value": 127}, "group": "control_change"}, {"time": 1853, "annotation": {"number": 64, "value": 0}, "group": "control_change"}, {"time": 1858, "annotation": {"number": 64, "value": 127}, "group": "control_change"}, {"time": 1865, "annotation": {"number": 64, "value": 0}, "group": "control_change"}, {"time": 1895, "annotation": {"number": 64, "value": 127}, "group": "control_change"}, {"time": 1902, "annotation": {"number": 64, "value": 0}, "group": "control_change"}, {"time": 1906, "annotation": {"number": 64, "value": 127}, "group": "control_change"}, {"time": 1926, "annotation": {"number": 64, "value": 0}, "group": "control_change"}, {"time": 1954, "annotation": {"number": 64, "value": 127}, "group": "control_change"}, {"time": 1972, "annotation": {"number": 64, "value": 0}, "group": "control_change"}, {"time": 2026, "annotation": {"number": 64, "value": 127}, "group": "control_change"}, {"time": 2047, "annotation": {"number": 64, "value": 0}, "group": "control_change"}, {"time": 2050, "annotation": {"number": 64, "value": 127}, "group": "control_change"}, {"time": 2069, "annotation": {"number": 64, "value": 0}, "group": "control_change"}, {"time": 2073, "annotation": {"number": 64, "value": 127}, "group": "control_change"}, {"time": 2094, "annotation": {"number": 64, "value": 0}, "group": "control_change"}, {"time": 2098, "annotation": {"number": 64, "value": 127}, "group": "control_change"}, {"time": 2118, "annotation": {"number": 64, "value": 0}, "group": "control_change"}, {"time": 2121, "annotation": {"number": 64, "value": 127}, "group": "control_change"}, {"time": 2141, "annotation": {"number": 64, "value": 0}, "group": "control_change"}, {"time": 2145, "annotation": {"number": 64, "value": 127}, "group": "control_change"}, {"time": 2167, "annotation": {"number": 64, "value": 0}, "group": "control_change"}, {"time": 2170, "annotation": {"number": 64, "value": 127}, "group": "control_change"}, {"time": 2190, "annotation": {"number": 64, "value": 0}, "group": "control_change"}, {"time": 2195, "annotation": {"number": 64, "value": 127}, "group": "control_change"}, {"time": 2202, "annotation": {"number": 64, "value": 0}, "group": "control_change"}, {"time": 2218, "annotation": {"number": 64, "value": 127}, "group": "control_change"}, {"time": 2238, "annotation": {"number": 64, "value": 0}, "group": "control_change"}, {"time": 2241, "annotation": {"number": 64, "value": 127}, "group": "control_change"}, {"time": 2263, "annotation": {"number": 64, "value": 0}, "group": "control_change"}, {"time": 2279, "annotation": {"number": 64, "value": 127}, "group": "control_change"}, {"time": 2284, "annotation": {"number": 64, "value": 0}, "group": "control_change"}, {"time": 2290, "annotation": {"number": 64, "value": 127}, "group": "control_change"}, {"time": 2292, "annotation": {"number": 64, "value": 0}, "group": "control_change"}, {"time": 2293, "annotation": {"number": 64, "value": 127}, "group": "control_change"}, {"time": 2295, "annotation": {"number": 64, "value": 0}, "group": "control_change"}, {"time": 2300, "annotation": {"number": 64, "value": 127}, "group": "control_change"}, {"time": 2310, "annotation": {"number": 64, "value": 0}, "group": "control_change"}, {"time": 2314, "annotation": {"number": 64, "value": 127}, "group": "control_change"}, {"time": 2316, "annotation": {"number": 64, "value": 0}, "group": "control_change"}, {"time": 2317, "annotation": {"number": 64, "value": 127}, "group": "control_change"}, {"time": 2319, "annotation": {"number": 64, "value": 0}, "group": "control_change"}, {"time": 2325, "annotation": {"number": 64, "value": 127}, "group": "control_change"}, {"time": 2335, "annotation": {"number": 64, "value": 0}, "group": "control_change"}, {"time": 2338, "annotation": {"number": 64, "value": 127}, "group": "control_change"}, {"time": 2358, "annotation": {"number": 64, "value": 0}, "group": "control_change"}, {"time": 2362, "annotation": {"number": 64, "value": 127}, "group": "control_change"}, {"time": 2383, "annotation": {"number": 64, "value": 0}, "group": "control_change"}, {"time": 2386, "annotation": {"number": 64, "value": 127}, "group": "control_change"}, {"time": 2395, "annotation": {"number": 64, "value": 0}, "group": "control_change"}, {"time": 2410, "annotation": {"number": 64, "value": 127}, "group": "control_change"}, {"time": 2432, "annotation": {"number": 64, "value": 0}, "group": "control_change"}, {"time": 2433, "annotation": {"number": 64, "value": 127}, "group": "control_change"}, {"time": 2455, "annotation": {"number": 64, "value": 0}, "group": "control_change"}, {"time": 2457, "annotation": {"number": 64, "value": 127}, "group": "control_change"}, {"time": 2478, "annotation": {"number": 64, "value": 0}, "group": "control_change"}, {"time": 2481, "annotation": {"number": 64, "value": 127}, "group": "control_change"}, {"time": 2502, "annotation": {"number": 64, "value": 0}, "group": "control_change"}, {"time": 2506, "annotation": {"number": 64, "value": 127}, "group": "control_change"}, {"time": 2527, "annotation": {"number": 64, "value": 0}, "group": "control_change"}, {"time": 2529, "annotation": {"number": 64, "value": 127}, "group": "control_change"}, {"time": 2531, "annotation": {"number": 64, "value": 0}, "group": "control_change"}, {"time": 2532, "annotation": {"number": 64, "value": 127}, "group": "control_change"}, {"time": 2551, "annotation": {"number": 64, "value": 0}, "group": "control_change"}, {"time": 2554, "annotation": {"number": 64, "value": 127}, "group": "control_change"}, {"time": 2573, "annotation": {"number": 64, "value": 0}, "group": "control_change"}, {"time": 2577, "annotation": {"number": 64, "value": 127}, "group": "control_change"}, {"time": 2597, "annotation": {"number": 64, "value": 0}, "group": "control_change"}, {"time": 2601, "annotation": {"number": 64, "value": 127}, "group": "control_change"}, {"time": 2624, "annotation": {"number": 64, "value": 0}, "group": "control_change"}, {"time": 2630, "annotation": {"number": 64, "value": 127}, "group": "control_change"}, {"time": 2646, "annotation": {"number": 64, "value": 0}, "group": "control_change"}, {"time": 2650, "annotation": {"number": 64, "value": 127}, "group": "control_change"}, {"time": 2671, "annotation": {"number": 64, "value": 0}, "group": "control_change"}, {"time": 2674, "annotation": {"number": 64, "value": 127}, "group": "control_change"}, {"time": 2694, "annotation": {"number": 64, "value": 0}, "group": "control_change"}, {"time": 2699, "annotation": {"number": 64, "value": 127}, "group": "control_change"}, {"time": 2719, "annotation": {"number": 64, "value": 0}, "group": "control_change"}, {"time": 2724, "annotation": {"number": 64, "value": 127}, "group": "control_change"}, {"time": 2768, "annotation": {"number": 64, "value": 0}, "group": "control_change"}, {"time": 2815, "annotation": {"number": 64, "value": 127}, "group": "control_change"}, {"time": 2836, "annotation": {"number": 64, "value": 0}, "group": "control_change"}, {"time": 2847, "annotation": {"number": 64, "value": 127}, "group": "control_change"}, {"time": 2853, "annotation": {"number": 64, "value": 0}, "group": "control_change"}, {"time": 2869, "annotation": {"number": 64, "value": 127}, "group": "control_change"}, {"time": 2982, "annotation": {"number": 64, "value": 0}, "group": "control_change"}]}]}