{"metadata": {"schema_version": "0.2", "title": "None", "source_filename": "732.mid", "source_format": "midi"}, "resolution": 12, "tempos": [{"time": 0, "qpm": 90.00009000009}], "time_signatures": [{"time": 0, "numerator": 1, "denominator": 4}], "tracks": [{"program": 0, "is_drum": false, "name": "MELODY", "notes": [{"time": 63, "pitch": 65, "duration": 5, "velocity": 112}, {"time": 69, "pitch": 63, "duration": 4, "velocity": 89}, {"time": 75, "pitch": 65, "duration": 3, "velocity": 122}, {"time": 81, "pitch": 68, "duration": 3, "velocity": 102}, {"time": 87, "pitch": 70, "duration": 10, "velocity": 112}, {"time": 105, "pitch": 68, "duration": 2, "velocity": 89}, {"time": 108, "pitch": 70, "duration": 3, "velocity": 90}, {"time": 111, "pitch": 72, "duration": 3, "velocity": 97}, {"time": 117, "pitch": 72, "duration": 3, "velocity": 100}, {"time": 123, "pitch": 72, "duration": 2, "velocity": 107}, {"time": 129, "pitch": 68, "duration": 2, "velocity": 97}, {"time": 135, "pitch": 70, "duration": 6, "velocity": 117}, {"time": 159, "pitch": 63, "duration": 5, "velocity": 112}, {"time": 165, "pitch": 61, "duration": 5, "velocity": 85}, {"time": 171, "pitch": 63, "duration": 4, "velocity": 100}, {"time": 177, "pitch": 65, "duration": 4, "velocity": 92}, {"time": 183, "pitch": 68, "duration": 5, "velocity": 99}, {"time": 189, "pitch": 65, "duration": 5, "velocity": 117}, {"time": 195, "pitch": 68, "duration": 4, "velocity": 100}, {"time": 201, "pitch": 65, "duration": 5, "velocity": 92}, {"time": 207, "pitch": 68, "duration": 4, "velocity": 96}, {"time": 213, "pitch": 70, "duration": 3, "velocity": 112}, {"time": 219, "pitch": 72, "duration": 5, "velocity": 107}, {"time": 225, "pitch": 68, "duration": 5, "velocity": 95}, {"time": 231, "pitch": 65, "duration": 13, "velocity": 97}, {"time": 255, "pitch": 65, "duration": 4, "velocity": 117}, {"time": 261, "pitch": 63, "duration": 3, "velocity": 86}, {"time": 267, "pitch": 65, "duration": 3, "velocity": 99}, {"time": 273, "pitch": 68, "duration": 3, "velocity": 102}, {"time": 279, "pitch": 70, "duration": 5, "velocity": 112}, {"time": 297, "pitch": 68, "duration": 2, "velocity": 100}, {"time": 300, "pitch": 70, "duration": 2, "velocity": 88}, {"time": 303, "pitch": 72, "duration": 3, "velocity": 92}, {"time": 309, "pitch": 73, "duration": 4, "velocity": 95}, {"time": 315, "pitch": 72, "duration": 4, "velocity": 107}, {"time": 321, "pitch": 68, "duration": 3, "velocity": 100}, {"time": 327, "pitch": 77, "duration": 4, "velocity": 127}, {"time": 351, "pitch": 70, "duration": 2, "velocity": 112}, {"time": 357, "pitch": 68, "duration": 2, "velocity": 97}, {"time": 363, "pitch": 70, "duration": 2, "velocity": 117}, {"time": 369, "pitch": 77, "duration": 2, "velocity": 88}, {"time": 375, "pitch": 70, "duration": 2, "velocity": 100}, {"time": 381, "pitch": 68, "duration": 2, "velocity": 100}, {"time": 387, "pitch": 70, "duration": 3, "velocity": 127}, {"time": 393, "pitch": 77, "duration": 3, "velocity": 117}, {"time": 399, "pitch": 75, "duration": 3, "velocity": 117}, {"time": 405, "pitch": 72, "duration": 3, "velocity": 117}, {"time": 411, "pitch": 68, "duration": 4, "velocity": 97}, {"time": 417, "pitch": 70, "duration": 2, "velocity": 100}, {"time": 423, "pitch": 70, "duration": 18, "velocity": 122}, {"time": 447, "pitch": 70, "duration": 4, "velocity": 99}, {"time": 453, "pitch": 77, "duration": 3, "velocity": 96}, {"time": 459, "pitch": 70, "duration": 3, "velocity": 100}, {"time": 465, "pitch": 77, "duration": 2, "velocity": 100}, {"time": 471, "pitch": 70, "duration": 5, "velocity": 107}, {"time": 489, "pitch": 75, "duration": 2, "velocity": 127}, {"time": 492, "pitch": 73, "duration": 3, "velocity": 90}, {"time": 495, "pitch": 75, "duration": 2, "velocity": 100}, {"time": 501, "pitch": 73, "duration": 5, "velocity": 122}, {"time": 507, "pitch": 72, "duration": 3, "velocity": 100}, {"time": 513, "pitch": 68, "duration": 5, "velocity": 99}, {"time": 519, "pitch": 65, "duration": 8, "velocity": 96}, {"time": 543, "pitch": 75, "duration": 3, "velocity": 122}, {"time": 549, "pitch": 75, "duration": 2, "velocity": 122}, {"time": 555, "pitch": 75, "duration": 3, "velocity": 127}, {"time": 561, "pitch": 73, "duration": 2, "velocity": 112}, {"time": 564, "pitch": 77, "duration": 6, "velocity": 117}, {"time": 573, "pitch": 75, "duration": 5, "velocity": 127}, {"time": 579, "pitch": 75, "duration": 4, "velocity": 112}, {"time": 585, "pitch": 68, "duration": 5, "velocity": 96}, {"time": 591, "pitch": 72, "duration": 4, "velocity": 102}, {"time": 597, "pitch": 65, "duration": 5, "velocity": 102}, {"time": 603, "pitch": 68, "duration": 5, "velocity": 107}, {"time": 609, "pitch": 70, "duration": 2, "velocity": 102}, {"time": 615, "pitch": 70, "duration": 21, "velocity": 122}, {"time": 639, "pitch": 70, "duration": 4, "velocity": 100}, {"time": 645, "pitch": 77, "duration": 3, "velocity": 100}, {"time": 651, "pitch": 70, "duration": 5, "velocity": 100}, {"time": 657, "pitch": 77, "duration": 3, "velocity": 107}, {"time": 663, "pitch": 70, "duration": 6, "velocity": 107}, {"time": 681, "pitch": 75, "duration": 3, "velocity": 127}, {"time": 684, "pitch": 73, "duration": 2, "velocity": 97}, {"time": 687, "pitch": 75, "duration": 3, "velocity": 122}, {"time": 693, "pitch": 73, "duration": 3, "velocity": 127}, {"time": 699, "pitch": 72, "duration": 4, "velocity": 112}, {"time": 705, "pitch": 68, "duration": 5, "velocity": 107}, {"time": 711, "pitch": 65, "duration": 6, "velocity": 100}, {"time": 735, "pitch": 75, "duration": 2, "velocity": 127}, {"time": 741, "pitch": 75, "duration": 2, "velocity": 127}, {"time": 747, "pitch": 75, "duration": 2, "velocity": 127}, {"time": 753, "pitch": 73, "duration": 2, "velocity": 122}, {"time": 759, "pitch": 77, "duration": 3, "velocity": 117}, {"time": 765, "pitch": 75, "duration": 1, "velocity": 127}, {"time": 768, "pitch": 75, "duration": 4, "velocity": 122}, {"time": 777, "pitch": 73, "duration": 5, "velocity": 127}, {"time": 783, "pitch": 72, "duration": 5, "velocity": 127}, {"time": 789, "pitch": 65, "duration": 5, "velocity": 112}, {"time": 795, "pitch": 68, "duration": 5, "velocity": 100}, {"time": 801, "pitch": 70, "duration": 1, "velocity": 99}, {"time": 807, "pitch": 70, "duration": 11, "velocity": 117}, {"time": 1023, "pitch": 65, "duration": 5, "velocity": 112}, {"time": 1029, "pitch": 63, "duration": 4, "velocity": 89}, {"time": 1035, "pitch": 65, "duration": 3, "velocity": 122}, {"time": 1041, "pitch": 68, "duration": 3, "velocity": 102}, {"time": 1047, "pitch": 70, "duration": 10, "velocity": 112}, {"time": 1065, "pitch": 68, "duration": 2, "velocity": 89}, {"time": 1068, "pitch": 70, "duration": 3, "velocity": 90}, {"time": 1071, "pitch": 72, "duration": 3, "velocity": 97}, {"time": 1077, "pitch": 72, "duration": 3, "velocity": 100}, {"time": 1083, "pitch": 72, "duration": 2, "velocity": 107}, {"time": 1089, "pitch": 68, "duration": 2, "velocity": 97}, {"time": 1095, "pitch": 70, "duration": 6, "velocity": 117}, {"time": 1119, "pitch": 63, "duration": 5, "velocity": 112}, {"time": 1125, "pitch": 61, "duration": 5, "velocity": 85}, {"time": 1131, "pitch": 63, "duration": 4, "velocity": 100}, {"time": 1137, "pitch": 65, "duration": 4, "velocity": 92}, {"time": 1143, "pitch": 68, "duration": 5, "velocity": 99}, {"time": 1149, "pitch": 65, "duration": 5, "velocity": 117}, {"time": 1155, "pitch": 68, "duration": 4, "velocity": 100}, {"time": 1161, "pitch": 65, "duration": 5, "velocity": 92}, {"time": 1167, "pitch": 68, "duration": 4, "velocity": 96}, {"time": 1173, "pitch": 70, "duration": 3, "velocity": 112}, {"time": 1179, "pitch": 72, "duration": 5, "velocity": 107}, {"time": 1185, "pitch": 68, "duration": 5, "velocity": 95}, {"time": 1191, "pitch": 65, "duration": 13, "velocity": 97}, {"time": 1215, "pitch": 65, "duration": 4, "velocity": 117}, {"time": 1221, "pitch": 63, "duration": 3, "velocity": 86}, {"time": 1227, "pitch": 65, "duration": 3, "velocity": 99}, {"time": 1233, "pitch": 68, "duration": 3, "velocity": 102}, {"time": 1239, "pitch": 70, "duration": 5, "velocity": 112}, {"time": 1257, "pitch": 68, "duration": 2, "velocity": 100}, {"time": 1260, "pitch": 70, "duration": 2, "velocity": 88}, {"time": 1263, "pitch": 72, "duration": 3, "velocity": 92}, {"time": 1269, "pitch": 73, "duration": 4, "velocity": 95}, {"time": 1275, "pitch": 72, "duration": 4, "velocity": 107}, {"time": 1281, "pitch": 68, "duration": 3, "velocity": 100}, {"time": 1287, "pitch": 77, "duration": 4, "velocity": 127}, {"time": 1311, "pitch": 70, "duration": 2, "velocity": 112}, {"time": 1317, "pitch": 68, "duration": 2, "velocity": 97}, {"time": 1323, "pitch": 70, "duration": 2, "velocity": 117}, {"time": 1329, "pitch": 77, "duration": 2, "velocity": 88}, {"time": 1335, "pitch": 70, "duration": 2, "velocity": 100}, {"time": 1341, "pitch": 68, "duration": 2, "velocity": 100}, {"time": 1347, "pitch": 70, "duration": 3, "velocity": 127}, {"time": 1353, "pitch": 77, "duration": 3, "velocity": 117}, {"time": 1359, "pitch": 75, "duration": 3, "velocity": 117}, {"time": 1365, "pitch": 72, "duration": 3, "velocity": 117}, {"time": 1371, "pitch": 68, "duration": 4, "velocity": 97}, {"time": 1377, "pitch": 70, "duration": 2, "velocity": 100}, {"time": 1383, "pitch": 70, "duration": 18, "velocity": 122}, {"time": 1407, "pitch": 70, "duration": 4, "velocity": 99}, {"time": 1413, "pitch": 77, "duration": 3, "velocity": 96}, {"time": 1419, "pitch": 70, "duration": 3, "velocity": 100}, {"time": 1425, "pitch": 77, "duration": 2, "velocity": 100}, {"time": 1431, "pitch": 70, "duration": 5, "velocity": 107}, {"time": 1449, "pitch": 75, "duration": 2, "velocity": 127}, {"time": 1452, "pitch": 73, "duration": 3, "velocity": 90}, {"time": 1455, "pitch": 75, "duration": 2, "velocity": 100}, {"time": 1461, "pitch": 73, "duration": 5, "velocity": 122}, {"time": 1467, "pitch": 72, "duration": 3, "velocity": 100}, {"time": 1473, "pitch": 68, "duration": 5, "velocity": 99}, {"time": 1479, "pitch": 65, "duration": 8, "velocity": 96}, {"time": 1503, "pitch": 75, "duration": 3, "velocity": 122}, {"time": 1509, "pitch": 75, "duration": 2, "velocity": 122}, {"time": 1515, "pitch": 75, "duration": 3, "velocity": 127}, {"time": 1521, "pitch": 73, "duration": 2, "velocity": 112}, {"time": 1524, "pitch": 77, "duration": 6, "velocity": 117}, {"time": 1533, "pitch": 75, "duration": 5, "velocity": 127}, {"time": 1539, "pitch": 75, "duration": 4, "velocity": 112}, {"time": 1545, "pitch": 68, "duration": 5, "velocity": 96}, {"time": 1551, "pitch": 72, "duration": 4, "velocity": 102}, {"time": 1557, "pitch": 65, "duration": 5, "velocity": 102}, {"time": 1563, "pitch": 68, "duration": 5, "velocity": 107}, {"time": 1569, "pitch": 70, "duration": 2, "velocity": 102}, {"time": 1575, "pitch": 70, "duration": 21, "velocity": 122}, {"time": 1599, "pitch": 70, "duration": 4, "velocity": 100}, {"time": 1605, "pitch": 77, "duration": 3, "velocity": 100}, {"time": 1611, "pitch": 70, "duration": 5, "velocity": 100}, {"time": 1617, "pitch": 77, "duration": 3, "velocity": 107}, {"time": 1623, "pitch": 70, "duration": 6, "velocity": 107}, {"time": 1641, "pitch": 75, "duration": 3, "velocity": 127}, {"time": 1644, "pitch": 73, "duration": 2, "velocity": 97}, {"time": 1647, "pitch": 75, "duration": 3, "velocity": 122}, {"time": 1653, "pitch": 73, "duration": 3, "velocity": 127}, {"time": 1659, "pitch": 72, "duration": 4, "velocity": 112}, {"time": 1665, "pitch": 68, "duration": 5, "velocity": 107}, {"time": 1671, "pitch": 65, "duration": 6, "velocity": 100}, {"time": 1695, "pitch": 75, "duration": 2, "velocity": 127}, {"time": 1701, "pitch": 75, "duration": 2, "velocity": 127}, {"time": 1707, "pitch": 75, "duration": 2, "velocity": 127}, {"time": 1713, "pitch": 73, "duration": 2, "velocity": 122}, {"time": 1719, "pitch": 77, "duration": 3, "velocity": 117}, {"time": 1725, "pitch": 75, "duration": 1, "velocity": 127}, {"time": 1728, "pitch": 75, "duration": 4, "velocity": 122}, {"time": 1737, "pitch": 73, "duration": 5, "velocity": 127}, {"time": 1743, "pitch": 72, "duration": 5, "velocity": 127}, {"time": 1749, "pitch": 65, "duration": 5, "velocity": 112}, {"time": 1755, "pitch": 68, "duration": 5, "velocity": 100}, {"time": 1761, "pitch": 70, "duration": 1, "velocity": 99}, {"time": 1767, "pitch": 70, "duration": 11, "velocity": 117}, {"time": 1791, "pitch": 70, "duration": 4, "velocity": 99}, {"time": 1797, "pitch": 77, "duration": 3, "velocity": 96}, {"time": 1803, "pitch": 70, "duration": 3, "velocity": 100}, {"time": 1809, "pitch": 77, "duration": 2, "velocity": 100}, {"time": 1815, "pitch": 70, "duration": 5, "velocity": 107}, {"time": 1833, "pitch": 75, "duration": 2, "velocity": 127}, {"time": 1836, "pitch": 73, "duration": 3, "velocity": 90}, {"time": 1839, "pitch": 75, "duration": 2, "velocity": 100}, {"time": 1845, "pitch": 73, "duration": 5, "velocity": 122}, {"time": 1851, "pitch": 72, "duration": 3, "velocity": 100}, {"time": 1857, "pitch": 68, "duration": 5, "velocity": 99}, {"time": 1863, "pitch": 65, "duration": 8, "velocity": 96}, {"time": 1887, "pitch": 75, "duration": 3, "velocity": 122}, {"time": 1893, "pitch": 75, "duration": 2, "velocity": 122}, {"time": 1899, "pitch": 75, "duration": 3, "velocity": 127}, {"time": 1905, "pitch": 73, "duration": 2, "velocity": 112}, {"time": 1908, "pitch": 77, "duration": 6, "velocity": 117}, {"time": 1917, "pitch": 75, "duration": 5, "velocity": 127}, {"time": 1923, "pitch": 75, "duration": 4, "velocity": 112}, {"time": 1929, "pitch": 68, "duration": 5, "velocity": 96}, {"time": 1935, "pitch": 72, "duration": 4, "velocity": 102}, {"time": 1941, "pitch": 65, "duration": 5, "velocity": 102}, {"time": 1947, "pitch": 68, "duration": 5, "velocity": 107}, {"time": 1953, "pitch": 70, "duration": 2, "velocity": 102}, {"time": 1959, "pitch": 70, "duration": 21, "velocity": 122}, {"time": 1983, "pitch": 70, "duration": 4, "velocity": 100}, {"time": 1989, "pitch": 77, "duration": 3, "velocity": 100}, {"time": 1995, "pitch": 70, "duration": 5, "velocity": 100}, {"time": 2001, "pitch": 77, "duration": 3, "velocity": 107}, {"time": 2007, "pitch": 70, "duration": 6, "velocity": 107}, {"time": 2025, "pitch": 75, "duration": 3, "velocity": 127}, {"time": 2028, "pitch": 73, "duration": 2, "velocity": 97}, {"time": 2031, "pitch": 75, "duration": 3, "velocity": 122}, {"time": 2037, "pitch": 73, "duration": 3, "velocity": 127}, {"time": 2043, "pitch": 72, "duration": 4, "velocity": 112}, {"time": 2049, "pitch": 68, "duration": 5, "velocity": 107}, {"time": 2055, "pitch": 65, "duration": 6, "velocity": 100}, {"time": 2079, "pitch": 75, "duration": 2, "velocity": 127}, {"time": 2085, "pitch": 75, "duration": 2, "velocity": 127}, {"time": 2091, "pitch": 75, "duration": 2, "velocity": 127}, {"time": 2097, "pitch": 73, "duration": 2, "velocity": 122}, {"time": 2103, "pitch": 77, "duration": 3, "velocity": 117}, {"time": 2109, "pitch": 75, "duration": 1, "velocity": 127}, {"time": 2112, "pitch": 75, "duration": 4, "velocity": 122}, {"time": 2121, "pitch": 73, "duration": 5, "velocity": 127}, {"time": 2127, "pitch": 72, "duration": 5, "velocity": 127}, {"time": 2133, "pitch": 65, "duration": 5, "velocity": 112}, {"time": 2139, "pitch": 68, "duration": 5, "velocity": 100}, {"time": 2145, "pitch": 70, "duration": 1, "velocity": 99}, {"time": 2151, "pitch": 70, "duration": 11, "velocity": 117}, {"time": 2607, "pitch": 70, "duration": 4, "velocity": 99}, {"time": 2613, "pitch": 77, "duration": 3, "velocity": 96}, {"time": 2619, "pitch": 70, "duration": 3, "velocity": 100}, {"time": 2625, "pitch": 77, "duration": 2, "velocity": 100}, {"time": 2631, "pitch": 70, "duration": 5, "velocity": 107}, {"time": 2649, "pitch": 75, "duration": 2, "velocity": 127}, {"time": 2652, "pitch": 73, "duration": 3, "velocity": 90}, {"time": 2655, "pitch": 75, "duration": 2, "velocity": 100}, {"time": 2661, "pitch": 73, "duration": 5, "velocity": 122}, {"time": 2667, "pitch": 72, "duration": 3, "velocity": 100}, {"time": 2673, "pitch": 68, "duration": 5, "velocity": 99}, {"time": 2679, "pitch": 65, "duration": 8, "velocity": 96}, {"time": 2703, "pitch": 75, "duration": 3, "velocity": 122}, {"time": 2709, "pitch": 75, "duration": 2, "velocity": 122}, {"time": 2715, "pitch": 75, "duration": 3, "velocity": 127}, {"time": 2721, "pitch": 73, "duration": 2, "velocity": 112}, {"time": 2724, "pitch": 77, "duration": 6, "velocity": 117}, {"time": 2733, "pitch": 75, "duration": 5, "velocity": 127}, {"time": 2739, "pitch": 75, "duration": 4, "velocity": 112}, {"time": 2745, "pitch": 68, "duration": 5, "velocity": 96}, {"time": 2751, "pitch": 72, "duration": 4, "velocity": 102}, {"time": 2757, "pitch": 65, "duration": 5, "velocity": 102}, {"time": 2763, "pitch": 68, "duration": 5, "velocity": 107}, {"time": 2769, "pitch": 70, "duration": 2, "velocity": 102}, {"time": 2775, "pitch": 70, "duration": 21, "velocity": 122}, {"time": 2799, "pitch": 70, "duration": 4, "velocity": 100}, {"time": 2805, "pitch": 77, "duration": 3, "velocity": 100}, {"time": 2811, "pitch": 70, "duration": 5, "velocity": 100}, {"time": 2817, "pitch": 77, "duration": 3, "velocity": 107}, {"time": 2823, "pitch": 70, "duration": 6, "velocity": 107}, {"time": 2841, "pitch": 75, "duration": 3, "velocity": 127}, {"time": 2844, "pitch": 73, "duration": 2, "velocity": 97}, {"time": 2847, "pitch": 75, "duration": 3, "velocity": 122}, {"time": 2853, "pitch": 73, "duration": 3, "velocity": 127}, {"time": 2859, "pitch": 72, "duration": 4, "velocity": 112}, {"time": 2865, "pitch": 68, "duration": 5, "velocity": 107}, {"time": 2871, "pitch": 65, "duration": 6, "velocity": 100}, {"time": 2895, "pitch": 75, "duration": 2, "velocity": 127}, {"time": 2901, "pitch": 75, "duration": 2, "velocity": 127}, {"time": 2907, "pitch": 75, "duration": 2, "velocity": 127}, {"time": 2913, "pitch": 73, "duration": 2, "velocity": 122}, {"time": 2919, "pitch": 77, "duration": 3, "velocity": 117}, {"time": 2925, "pitch": 75, "duration": 1, "velocity": 127}, {"time": 2928, "pitch": 75, "duration": 4, "velocity": 122}, {"time": 2937, "pitch": 73, "duration": 5, "velocity": 127}, {"time": 2943, "pitch": 72, "duration": 5, "velocity": 127}, {"time": 2949, "pitch": 65, "duration": 5, "velocity": 112}, {"time": 2955, "pitch": 68, "duration": 5, "velocity": 100}, {"time": 2961, "pitch": 70, "duration": 1, "velocity": 99}, {"time": 2967, "pitch": 70, "duration": 11, "velocity": 117}, {"time": 2991, "pitch": 71, "duration": 4, "velocity": 99}, {"time": 2997, "pitch": 78, "duration": 3, "velocity": 96}, {"time": 3003, "pitch": 71, "duration": 3, "velocity": 100}, {"time": 3009, "pitch": 78, "duration": 2, "velocity": 100}, {"time": 3015, "pitch": 71, "duration": 5, "velocity": 107}, {"time": 3033, "pitch": 76, "duration": 2, "velocity": 127}, {"time": 3036, "pitch": 74, "duration": 3, "velocity": 90}, {"time": 3039, "pitch": 76, "duration": 2, "velocity": 100}, {"time": 3045, "pitch": 74, "duration": 5, "velocity": 122}, {"time": 3051, "pitch": 73, "duration": 3, "velocity": 100}, {"time": 3057, "pitch": 69, "duration": 5, "velocity": 99}, {"time": 3063, "pitch": 66, "duration": 8, "velocity": 96}, {"time": 3087, "pitch": 76, "duration": 3, "velocity": 122}, {"time": 3093, "pitch": 76, "duration": 2, "velocity": 122}, {"time": 3099, "pitch": 76, "duration": 3, "velocity": 127}, {"time": 3105, "pitch": 74, "duration": 2, "velocity": 112}, {"time": 3108, "pitch": 78, "duration": 6, "velocity": 117}, {"time": 3117, "pitch": 76, "duration": 5, "velocity": 127}, {"time": 3123, "pitch": 76, "duration": 4, "velocity": 112}, {"time": 3129, "pitch": 69, "duration": 5, "velocity": 96}, {"time": 3135, "pitch": 73, "duration": 4, "velocity": 102}, {"time": 3141, "pitch": 66, "duration": 5, "velocity": 102}, {"time": 3147, "pitch": 69, "duration": 5, "velocity": 107}, {"time": 3153, "pitch": 71, "duration": 2, "velocity": 102}, {"time": 3159, "pitch": 71, "duration": 21, "velocity": 122}, {"time": 3183, "pitch": 71, "duration": 4, "velocity": 100}, {"time": 3189, "pitch": 78, "duration": 3, "velocity": 100}, {"time": 3195, "pitch": 71, "duration": 5, "velocity": 100}, {"time": 3201, "pitch": 78, "duration": 3, "velocity": 107}, {"time": 3207, "pitch": 71, "duration": 6, "velocity": 107}, {"time": 3225, "pitch": 76, "duration": 3, "velocity": 127}, {"time": 3228, "pitch": 74, "duration": 2, "velocity": 97}, {"time": 3231, "pitch": 76, "duration": 3, "velocity": 122}, {"time": 3237, "pitch": 74, "duration": 3, "velocity": 127}, {"time": 3243, "pitch": 73, "duration": 4, "velocity": 112}, {"time": 3249, "pitch": 69, "duration": 5, "velocity": 107}, {"time": 3255, "pitch": 66, "duration": 6, "velocity": 100}, {"time": 3279, "pitch": 76, "duration": 2, "velocity": 127}, {"time": 3285, "pitch": 76, "duration": 2, "velocity": 127}, {"time": 3291, "pitch": 76, "duration": 2, "velocity": 127}, {"time": 3297, "pitch": 74, "duration": 2, "velocity": 122}, {"time": 3303, "pitch": 78, "duration": 3, "velocity": 117}, {"time": 3309, "pitch": 76, "duration": 1, "velocity": 127}, {"time": 3312, "pitch": 76, "duration": 4, "velocity": 122}, {"time": 3321, "pitch": 74, "duration": 5, "velocity": 127}, {"time": 3327, "pitch": 73, "duration": 5, "velocity": 127}, {"time": 3333, "pitch": 66, "duration": 5, "velocity": 112}, {"time": 3339, "pitch": 69, "duration": 5, "velocity": 100}, {"time": 3345, "pitch": 71, "duration": 1, "velocity": 99}, {"time": 3351, "pitch": 71, "duration": 11, "velocity": 117}, {"time": 3375, "pitch": 76, "duration": 2, "velocity": 127}, {"time": 3381, "pitch": 76, "duration": 2, "velocity": 127}, {"time": 3387, "pitch": 76, "duration": 2, "velocity": 127}, {"time": 3393, "pitch": 74, "duration": 2, "velocity": 122}, {"time": 3399, "pitch": 78, "duration": 3, "velocity": 117}, {"time": 3405, "pitch": 76, "duration": 1, "velocity": 127}, {"time": 3408, "pitch": 76, "duration": 4, "velocity": 122}, {"time": 3417, "pitch": 74, "duration": 5, "velocity": 127}, {"time": 3423, "pitch": 73, "duration": 5, "velocity": 127}, {"time": 3429, "pitch": 66, "duration": 22, "velocity": 112}, {"time": 3459, "pitch": 69, "duration": 2, "velocity": 122}, {"time": 3465, "pitch": 74, "duration": 6, "velocity": 122}, {"time": 3471, "pitch": 71, "duration": 30, "velocity": 127}]}, {"program": 0, "is_drum": false, "name": "PIANO", "notes": [{"time": 63, "pitch": 46, "duration": 9, "velocity": 88}, {"time": 69, "pitch": 58, "duration": 1, "velocity": 88}, {"time": 69, "pitch": 61, "duration": 2, "velocity": 77}, {"time": 69, "pitch": 65, "duration": 2, "velocity": 76}, {"time": 75, "pitch": 53, "duration": 8, "velocity": 58}, {"time": 81, "pitch": 56, "duration": 1, "velocity": 73}, {"time": 81, "pitch": 58, "duration": 1, "velocity": 75}, {"time": 81, "pitch": 61, "duration": 1, "velocity": 82}, {"time": 81, "pitch": 65, "duration": 1, "velocity": 75}, {"time": 87, "pitch": 46, "duration": 9, "velocity": 71}, {"time": 93, "pitch": 58, "duration": 1, "velocity": 82}, {"time": 93, "pitch": 61, "duration": 1, "velocity": 90}, {"time": 93, "pitch": 65, "duration": 1, "velocity": 79}, {"time": 99, "pitch": 53, "duration": 5, "velocity": 63}, {"time": 105, "pitch": 58, "duration": 1, "velocity": 92}, {"time": 105, "pitch": 61, "duration": 1, "velocity": 97}, {"time": 105, "pitch": 65, "duration": 1, "velocity": 86}, {"time": 111, "pitch": 44, "duration": 8, "velocity": 81}, {"time": 117, "pitch": 56, "duration": 1, "velocity": 89}, {"time": 117, "pitch": 60, "duration": 1, "velocity": 95}, {"time": 117, "pitch": 63, "duration": 1, "velocity": 97}, {"time": 123, "pitch": 51, "duration": 8, "velocity": 62}, {"time": 129, "pitch": 56, "duration": 1, "velocity": 92}, {"time": 129, "pitch": 60, "duration": 1, "velocity": 95}, {"time": 129, "pitch": 63, "duration": 1, "velocity": 89}, {"time": 135, "pitch": 46, "duration": 8, "velocity": 74}, {"time": 141, "pitch": 58, "duration": 1, "velocity": 97}, {"time": 141, "pitch": 61, "duration": 1, "velocity": 100}, {"time": 141, "pitch": 65, "duration": 1, "velocity": 95}, {"time": 147, "pitch": 53, "duration": 5, "velocity": 55}, {"time": 153, "pitch": 58, "duration": 1, "velocity": 95}, {"time": 153, "pitch": 61, "duration": 1, "velocity": 96}, {"time": 153, "pitch": 65, "duration": 1, "velocity": 93}, {"time": 156, "pitch": 58, "duration": 1, "velocity": 52}, {"time": 156, "pitch": 61, "duration": 1, "velocity": 69}, {"time": 156, "pitch": 65, "duration": 1, "velocity": 63}, {"time": 159, "pitch": 39, "duration": 11, "velocity": 60}, {"time": 165, "pitch": 58, "duration": 1, "velocity": 77}, {"time": 165, "pitch": 63, "duration": 1, "velocity": 92}, {"time": 165, "pitch": 66, "duration": 1, "velocity": 79}, {"time": 171, "pitch": 51, "duration": 8, "velocity": 58}, {"time": 177, "pitch": 58, "duration": 1, "velocity": 88}, {"time": 177, "pitch": 63, "duration": 1, "velocity": 97}, {"time": 177, "pitch": 66, "duration": 1, "velocity": 83}, {"time": 183, "pitch": 39, "duration": 10, "velocity": 55}, {"time": 189, "pitch": 58, "duration": 1, "velocity": 92}, {"time": 189, "pitch": 63, "duration": 1, "velocity": 99}, {"time": 189, "pitch": 66, "duration": 1, "velocity": 88}, {"time": 195, "pitch": 51, "duration": 6, "velocity": 66}, {"time": 201, "pitch": 58, "duration": 1, "velocity": 97}, {"time": 201, "pitch": 63, "duration": 1, "velocity": 107}, {"time": 201, "pitch": 66, "duration": 1, "velocity": 90}, {"time": 207, "pitch": 44, "duration": 12, "velocity": 61}, {"time": 213, "pitch": 56, "duration": 1, "velocity": 82}, {"time": 213, "pitch": 60, "duration": 1, "velocity": 92}, {"time": 213, "pitch": 63, "duration": 1, "velocity": 89}, {"time": 219, "pitch": 51, "duration": 4, "velocity": 60}, {"time": 225, "pitch": 56, "duration": 2, "velocity": 89}, {"time": 225, "pitch": 60, "duration": 2, "velocity": 89}, {"time": 225, "pitch": 63, "duration": 3, "velocity": 90}, {"time": 231, "pitch": 37, "duration": 11, "velocity": 78}, {"time": 237, "pitch": 56, "duration": 6, "velocity": 96}, {"time": 243, "pitch": 49, "duration": 7, "velocity": 71}, {"time": 243, "pitch": 61, "duration": 10, "velocity": 92}, {"time": 243, "pitch": 65, "duration": 11, "velocity": 93}, {"time": 249, "pitch": 56, "duration": 5, "velocity": 97}, {"time": 255, "pitch": 46, "duration": 6, "velocity": 74}, {"time": 261, "pitch": 58, "duration": 1, "velocity": 92}, {"time": 261, "pitch": 61, "duration": 1, "velocity": 95}, {"time": 261, "pitch": 65, "duration": 1, "velocity": 92}, {"time": 267, "pitch": 53, "duration": 8, "velocity": 63}, {"time": 273, "pitch": 58, "duration": 1, "velocity": 85}, {"time": 273, "pitch": 61, "duration": 1, "velocity": 88}, {"time": 273, "pitch": 65, "duration": 1, "velocity": 82}, {"time": 279, "pitch": 46, "duration": 9, "velocity": 73}, {"time": 285, "pitch": 58, "duration": 1, "velocity": 89}, {"time": 285, "pitch": 61, "duration": 1, "velocity": 86}, {"time": 285, "pitch": 65, "duration": 1, "velocity": 82}, {"time": 291, "pitch": 53, "duration": 8, "velocity": 76}, {"time": 297, "pitch": 58, "duration": 2, "velocity": 88}, {"time": 297, "pitch": 61, "duration": 2, "velocity": 86}, {"time": 297, "pitch": 65, "duration": 2, "velocity": 79}, {"time": 303, "pitch": 44, "duration": 10, "velocity": 77}, {"time": 309, "pitch": 56, "duration": 1, "velocity": 86}, {"time": 309, "pitch": 60, "duration": 1, "velocity": 86}, {"time": 309, "pitch": 63, "duration": 1, "velocity": 83}, {"time": 315, "pitch": 51, "duration": 9, "velocity": 81}, {"time": 321, "pitch": 56, "duration": 2, "velocity": 82}, {"time": 321, "pitch": 60, "duration": 2, "velocity": 86}, {"time": 321, "pitch": 63, "duration": 2, "velocity": 85}, {"time": 327, "pitch": 46, "duration": 11, "velocity": 71}, {"time": 333, "pitch": 58, "duration": 2, "velocity": 72}, {"time": 333, "pitch": 61, "duration": 1, "velocity": 76}, {"time": 333, "pitch": 65, "duration": 2, "velocity": 77}, {"time": 339, "pitch": 53, "duration": 6, "velocity": 77}, {"time": 345, "pitch": 58, "duration": 2, "velocity": 90}, {"time": 345, "pitch": 61, "duration": 2, "velocity": 92}, {"time": 345, "pitch": 65, "duration": 2, "velocity": 86}, {"time": 351, "pitch": 39, "duration": 9, "velocity": 75}, {"time": 357, "pitch": 58, "duration": 1, "velocity": 89}, {"time": 357, "pitch": 63, "duration": 1, "velocity": 89}, {"time": 357, "pitch": 66, "duration": 1, "velocity": 76}, {"time": 363, "pitch": 51, "duration": 7, "velocity": 66}, {"time": 369, "pitch": 58, "duration": 2, "velocity": 90}, {"time": 369, "pitch": 63, "duration": 1, "velocity": 89}, {"time": 369, "pitch": 66, "duration": 2, "velocity": 83}, {"time": 375, "pitch": 39, "duration": 10, "velocity": 73}, {"time": 381, "pitch": 58, "duration": 2, "velocity": 83}, {"time": 381, "pitch": 63, "duration": 1, "velocity": 93}, {"time": 381, "pitch": 66, "duration": 2, "velocity": 86}, {"time": 387, "pitch": 46, "duration": 8, "velocity": 69}, {"time": 393, "pitch": 58, "duration": 2, "velocity": 93}, {"time": 393, "pitch": 63, "duration": 1, "velocity": 93}, {"time": 393, "pitch": 66, "duration": 1, "velocity": 82}, {"time": 399, "pitch": 44, "duration": 9, "velocity": 67}, {"time": 405, "pitch": 56, "duration": 2, "velocity": 75}, {"time": 405, "pitch": 60, "duration": 1, "velocity": 79}, {"time": 405, "pitch": 63, "duration": 1, "velocity": 77}, {"time": 411, "pitch": 51, "duration": 8, "velocity": 54}, {"time": 417, "pitch": 56, "duration": 1, "velocity": 88}, {"time": 417, "pitch": 60, "duration": 1, "velocity": 86}, {"time": 417, "pitch": 63, "duration": 2, "velocity": 83}, {"time": 423, "pitch": 46, "duration": 11, "velocity": 72}, {"time": 429, "pitch": 58, "duration": 1, "velocity": 85}, {"time": 429, "pitch": 61, "duration": 1, "velocity": 96}, {"time": 429, "pitch": 65, "duration": 1, "velocity": 86}, {"time": 435, "pitch": 53, "duration": 8, "velocity": 68}, {"time": 441, "pitch": 58, "duration": 1, "velocity": 93}, {"time": 441, "pitch": 61, "duration": 1, "velocity": 97}, {"time": 441, "pitch": 65, "duration": 1, "velocity": 88}, {"time": 447, "pitch": 46, "duration": 9, "velocity": 73}, {"time": 453, "pitch": 58, "duration": 1, "velocity": 93}, {"time": 453, "pitch": 61, "duration": 1, "velocity": 100}, {"time": 453, "pitch": 65, "duration": 1, "velocity": 92}, {"time": 459, "pitch": 53, "duration": 9, "velocity": 99}, {"time": 465, "pitch": 58, "duration": 1, "velocity": 107}, {"time": 465, "pitch": 61, "duration": 1, "velocity": 127}, {"time": 465, "pitch": 65, "duration": 1, "velocity": 99}, {"time": 468, "pitch": 58, "duration": 1, "velocity": 89}, {"time": 468, "pitch": 61, "duration": 1, "velocity": 95}, {"time": 468, "pitch": 65, "duration": 1, "velocity": 83}, {"time": 471, "pitch": 46, "duration": 10, "velocity": 83}, {"time": 477, "pitch": 58, "duration": 1, "velocity": 100}, {"time": 477, "pitch": 61, "duration": 1, "velocity": 100}, {"time": 477, "pitch": 65, "duration": 1, "velocity": 92}, {"time": 480, "pitch": 58, "duration": 1, "velocity": 77}, {"time": 480, "pitch": 61, "duration": 1, "velocity": 85}, {"time": 480, "pitch": 65, "duration": 2, "velocity": 86}, {"time": 483, "pitch": 53, "duration": 5, "velocity": 97}, {"time": 489, "pitch": 58, "duration": 2, "velocity": 100}, {"time": 489, "pitch": 61, "duration": 1, "velocity": 96}, {"time": 489, "pitch": 65, "duration": 2, "velocity": 88}, {"time": 495, "pitch": 44, "duration": 11, "velocity": 95}, {"time": 501, "pitch": 56, "duration": 1, "velocity": 92}, {"time": 501, "pitch": 60, "duration": 1, "velocity": 102}, {"time": 501, "pitch": 63, "duration": 1, "velocity": 97}, {"time": 504, "pitch": 56, "duration": 1, "velocity": 73}, {"time": 504, "pitch": 60, "duration": 2, "velocity": 89}, {"time": 504, "pitch": 63, "duration": 2, "velocity": 83}, {"time": 507, "pitch": 51, "duration": 8, "velocity": 89}, {"time": 513, "pitch": 56, "duration": 1, "velocity": 89}, {"time": 513, "pitch": 60, "duration": 1, "velocity": 92}, {"time": 513, "pitch": 63, "duration": 1, "velocity": 93}, {"time": 516, "pitch": 56, "duration": 1, "velocity": 67}, {"time": 516, "pitch": 60, "duration": 1, "velocity": 82}, {"time": 516, "pitch": 63, "duration": 1, "velocity": 72}, {"time": 519, "pitch": 46, "duration": 11, "velocity": 79}, {"time": 525, "pitch": 58, "duration": 1, "velocity": 90}, {"time": 525, "pitch": 61, "duration": 1, "velocity": 100}, {"time": 525, "pitch": 65, "duration": 1, "velocity": 88}, {"time": 528, "pitch": 58, "duration": 1, "velocity": 76}, {"time": 528, "pitch": 61, "duration": 1, "velocity": 85}, {"time": 528, "pitch": 65, "duration": 1, "velocity": 77}, {"time": 531, "pitch": 53, "duration": 5, "velocity": 71}, {"time": 534, "pitch": 58, "duration": 1, "velocity": 93}, {"time": 534, "pitch": 61, "duration": 1, "velocity": 100}, {"time": 534, "pitch": 65, "duration": 1, "velocity": 92}, {"time": 537, "pitch": 58, "duration": 2, "velocity": 85}, {"time": 537, "pitch": 61, "duration": 2, "velocity": 93}, {"time": 537, "pitch": 65, "duration": 2, "velocity": 81}, {"time": 543, "pitch": 39, "duration": 9, "velocity": 78}, {"time": 549, "pitch": 58, "duration": 1, "velocity": 86}, {"time": 549, "pitch": 63, "duration": 1, "velocity": 99}, {"time": 549, "pitch": 66, "duration": 1, "velocity": 90}, {"time": 552, "pitch": 58, "duration": 2, "velocity": 88}, {"time": 552, "pitch": 63, "duration": 2, "velocity": 95}, {"time": 552, "pitch": 66, "duration": 2, "velocity": 89}, {"time": 555, "pitch": 51, "duration": 8, "velocity": 67}, {"time": 561, "pitch": 58, "duration": 2, "velocity": 90}, {"time": 561, "pitch": 63, "duration": 2, "velocity": 99}, {"time": 561, "pitch": 66, "duration": 2, "velocity": 93}, {"time": 567, "pitch": 39, "duration": 11, "velocity": 71}, {"time": 573, "pitch": 58, "duration": 1, "velocity": 86}, {"time": 573, "pitch": 63, "duration": 1, "velocity": 100}, {"time": 573, "pitch": 66, "duration": 1, "velocity": 90}, {"time": 576, "pitch": 58, "duration": 2, "velocity": 88}, {"time": 576, "pitch": 63, "duration": 2, "velocity": 97}, {"time": 576, "pitch": 66, "duration": 2, "velocity": 89}, {"time": 579, "pitch": 46, "duration": 5, "velocity": 85}, {"time": 582, "pitch": 58, "duration": 1, "velocity": 79}, {"time": 582, "pitch": 63, "duration": 1, "velocity": 88}, {"time": 582, "pitch": 66, "duration": 1, "velocity": 79}, {"time": 585, "pitch": 58, "duration": 1, "velocity": 92}, {"time": 585, "pitch": 63, "duration": 2, "velocity": 100}, {"time": 585, "pitch": 66, "duration": 2, "velocity": 90}, {"time": 591, "pitch": 44, "duration": 11, "velocity": 72}, {"time": 597, "pitch": 56, "duration": 1, "velocity": 92}, {"time": 597, "pitch": 60, "duration": 1, "velocity": 97}, {"time": 597, "pitch": 63, "duration": 1, "velocity": 88}, {"time": 600, "pitch": 56, "duration": 2, "velocity": 81}, {"time": 600, "pitch": 60, "duration": 1, "velocity": 95}, {"time": 600, "pitch": 63, "duration": 1, "velocity": 83}, {"time": 603, "pitch": 51, "duration": 10, "velocity": 74}, {"time": 609, "pitch": 56, "duration": 1, "velocity": 86}, {"time": 609, "pitch": 60, "duration": 1, "velocity": 90}, {"time": 609, "pitch": 63, "duration": 1, "velocity": 92}, {"time": 615, "pitch": 46, "duration": 11, "velocity": 72}, {"time": 621, "pitch": 58, "duration": 1, "velocity": 96}, {"time": 621, "pitch": 61, "duration": 1, "velocity": 107}, {"time": 621, "pitch": 65, "duration": 1, "velocity": 96}, {"time": 624, "pitch": 58, "duration": 2, "velocity": 77}, {"time": 624, "pitch": 61, "duration": 1, "velocity": 93}, {"time": 624, "pitch": 65, "duration": 2, "velocity": 79}, {"time": 627, "pitch": 53, "duration": 11, "velocity": 69}, {"time": 630, "pitch": 58, "duration": 1, "velocity": 90}, {"time": 630, "pitch": 61, "duration": 1, "velocity": 97}, {"time": 630, "pitch": 65, "duration": 1, "velocity": 93}, {"time": 633, "pitch": 58, "duration": 1, "velocity": 79}, {"time": 633, "pitch": 61, "duration": 1, "velocity": 100}, {"time": 633, "pitch": 65, "duration": 1, "velocity": 77}, {"time": 636, "pitch": 58, "duration": 1, "velocity": 85}, {"time": 636, "pitch": 61, "duration": 1, "velocity": 96}, {"time": 636, "pitch": 65, "duration": 2, "velocity": 83}, {"time": 639, "pitch": 46, "duration": 11, "velocity": 83}, {"time": 645, "pitch": 58, "duration": 1, "velocity": 86}, {"time": 645, "pitch": 61, "duration": 1, "velocity": 97}, {"time": 645, "pitch": 65, "duration": 1, "velocity": 86}, {"time": 648, "pitch": 58, "duration": 1, "velocity": 88}, {"time": 648, "pitch": 61, "duration": 1, "velocity": 96}, {"time": 648, "pitch": 65, "duration": 1, "velocity": 79}, {"time": 651, "pitch": 53, "duration": 11, "velocity": 85}, {"time": 657, "pitch": 58, "duration": 1, "velocity": 85}, {"time": 657, "pitch": 61, "duration": 1, "velocity": 85}, {"time": 657, "pitch": 65, "duration": 1, "velocity": 79}, {"time": 663, "pitch": 46, "duration": 11, "velocity": 77}, {"time": 669, "pitch": 58, "duration": 1, "velocity": 88}, {"time": 669, "pitch": 61, "duration": 1, "velocity": 102}, {"time": 669, "pitch": 65, "duration": 1, "velocity": 93}, {"time": 672, "pitch": 58, "duration": 2, "velocity": 79}, {"time": 672, "pitch": 61, "duration": 1, "velocity": 90}, {"time": 672, "pitch": 65, "duration": 2, "velocity": 79}, {"time": 675, "pitch": 53, "duration": 3, "velocity": 82}, {"time": 678, "pitch": 58, "duration": 1, "velocity": 86}, {"time": 678, "pitch": 61, "duration": 1, "velocity": 97}, {"time": 678, "pitch": 65, "duration": 1, "velocity": 90}, {"time": 681, "pitch": 58, "duration": 2, "velocity": 88}, {"time": 681, "pitch": 61, "duration": 1, "velocity": 95}, {"time": 681, "pitch": 65, "duration": 2, "velocity": 90}, {"time": 687, "pitch": 44, "duration": 11, "velocity": 66}, {"time": 693, "pitch": 56, "duration": 1, "velocity": 88}, {"time": 693, "pitch": 60, "duration": 1, "velocity": 93}, {"time": 693, "pitch": 63, "duration": 1, "velocity": 88}, {"time": 696, "pitch": 56, "duration": 1, "velocity": 72}, {"time": 696, "pitch": 60, "duration": 1, "velocity": 76}, {"time": 696, "pitch": 63, "duration": 2, "velocity": 73}, {"time": 699, "pitch": 51, "duration": 9, "velocity": 97}, {"time": 705, "pitch": 56, "duration": 1, "velocity": 96}, {"time": 705, "pitch": 60, "duration": 1, "velocity": 99}, {"time": 705, "pitch": 63, "duration": 1, "velocity": 92}, {"time": 711, "pitch": 46, "duration": 11, "velocity": 72}, {"time": 717, "pitch": 58, "duration": 1, "velocity": 86}, {"time": 717, "pitch": 61, "duration": 1, "velocity": 90}, {"time": 717, "pitch": 65, "duration": 1, "velocity": 81}, {"time": 720, "pitch": 58, "duration": 1, "velocity": 86}, {"time": 720, "pitch": 61, "duration": 1, "velocity": 93}, {"time": 720, "pitch": 65, "duration": 1, "velocity": 79}, {"time": 723, "pitch": 53, "duration": 4, "velocity": 77}, {"time": 726, "pitch": 58, "duration": 1, "velocity": 82}, {"time": 726, "pitch": 61, "duration": 1, "velocity": 93}, {"time": 726, "pitch": 65, "duration": 1, "velocity": 83}, {"time": 729, "pitch": 58, "duration": 1, "velocity": 92}, {"time": 729, "pitch": 61, "duration": 1, "velocity": 93}, {"time": 729, "pitch": 65, "duration": 2, "velocity": 89}, {"time": 735, "pitch": 39, "duration": 11, "velocity": 85}, {"time": 741, "pitch": 58, "duration": 1, "velocity": 85}, {"time": 741, "pitch": 63, "duration": 1, "velocity": 100}, {"time": 741, "pitch": 66, "duration": 1, "velocity": 88}, {"time": 744, "pitch": 58, "duration": 2, "velocity": 77}, {"time": 744, "pitch": 63, "duration": 2, "velocity": 88}, {"time": 744, "pitch": 66, "duration": 2, "velocity": 81}, {"time": 747, "pitch": 46, "duration": 9, "velocity": 63}, {"time": 750, "pitch": 58, "duration": 1, "velocity": 77}, {"time": 750, "pitch": 63, "duration": 1, "velocity": 95}, {"time": 750, "pitch": 66, "duration": 1, "velocity": 78}, {"time": 753, "pitch": 58, "duration": 2, "velocity": 86}, {"time": 753, "pitch": 63, "duration": 2, "velocity": 95}, {"time": 753, "pitch": 66, "duration": 2, "velocity": 88}, {"time": 759, "pitch": 39, "duration": 11, "velocity": 69}, {"time": 765, "pitch": 58, "duration": 1, "velocity": 78}, {"time": 765, "pitch": 63, "duration": 1, "velocity": 85}, {"time": 765, "pitch": 66, "duration": 1, "velocity": 58}, {"time": 768, "pitch": 58, "duration": 1, "velocity": 75}, {"time": 768, "pitch": 63, "duration": 2, "velocity": 95}, {"time": 768, "pitch": 66, "duration": 1, "velocity": 85}, {"time": 771, "pitch": 46, "duration": 6, "velocity": 63}, {"time": 774, "pitch": 58, "duration": 1, "velocity": 81}, {"time": 774, "pitch": 63, "duration": 2, "velocity": 90}, {"time": 774, "pitch": 66, "duration": 1, "velocity": 83}, {"time": 777, "pitch": 58, "duration": 2, "velocity": 97}, {"time": 777, "pitch": 63, "duration": 2, "velocity": 100}, {"time": 777, "pitch": 66, "duration": 1, "velocity": 93}, {"time": 783, "pitch": 44, "duration": 7, "velocity": 69}, {"time": 789, "pitch": 56, "duration": 1, "velocity": 79}, {"time": 789, "pitch": 60, "duration": 1, "velocity": 88}, {"time": 789, "pitch": 63, "duration": 1, "velocity": 86}, {"time": 792, "pitch": 56, "duration": 2, "velocity": 76}, {"time": 792, "pitch": 60, "duration": 2, "velocity": 83}, {"time": 792, "pitch": 63, "duration": 2, "velocity": 83}, {"time": 795, "pitch": 51, "duration": 11, "velocity": 54}, {"time": 801, "pitch": 56, "duration": 1, "velocity": 89}, {"time": 801, "pitch": 60, "duration": 1, "velocity": 89}, {"time": 801, "pitch": 63, "duration": 2, "velocity": 88}, {"time": 807, "pitch": 46, "duration": 11, "velocity": 65}, {"time": 813, "pitch": 58, "duration": 1, "velocity": 88}, {"time": 813, "pitch": 61, "duration": 1, "velocity": 99}, {"time": 813, "pitch": 65, "duration": 1, "velocity": 92}, {"time": 816, "pitch": 58, "duration": 2, "velocity": 78}, {"time": 816, "pitch": 61, "duration": 2, "velocity": 90}, {"time": 816, "pitch": 65, "duration": 2, "velocity": 83}, {"time": 819, "pitch": 53, "duration": 10, "velocity": 66}, {"time": 822, "pitch": 58, "duration": 1, "velocity": 79}, {"time": 822, "pitch": 61, "duration": 1, "velocity": 88}, {"time": 822, "pitch": 65, "duration": 1, "velocity": 83}, {"time": 825, "pitch": 58, "duration": 2, "velocity": 85}, {"time": 825, "pitch": 61, "duration": 1, "velocity": 92}, {"time": 825, "pitch": 65, "duration": 1, "velocity": 85}, {"time": 831, "pitch": 46, "duration": 9, "velocity": 70}, {"time": 837, "pitch": 58, "duration": 1, "velocity": 95}, {"time": 837, "pitch": 61, "duration": 1, "velocity": 99}, {"time": 837, "pitch": 65, "duration": 1, "velocity": 92}, {"time": 843, "pitch": 53, "duration": 10, "velocity": 67}, {"time": 849, "pitch": 58, "duration": 1, "velocity": 90}, {"time": 849, "pitch": 61, "duration": 1, "velocity": 93}, {"time": 849, "pitch": 65, "duration": 1, "velocity": 88}, {"time": 855, "pitch": 46, "duration": 11, "velocity": 71}, {"time": 861, "pitch": 58, "duration": 1, "velocity": 83}, {"time": 861, "pitch": 61, "duration": 1, "velocity": 90}, {"time": 861, "pitch": 65, "duration": 1, "velocity": 85}, {"time": 864, "pitch": 58, "duration": 1, "velocity": 56}, {"time": 864, "pitch": 61, "duration": 1, "velocity": 73}, {"time": 864, "pitch": 65, "duration": 1, "velocity": 60}, {"time": 867, "pitch": 53, "duration": 6, "velocity": 92}, {"time": 873, "pitch": 58, "duration": 1, "velocity": 97}, {"time": 873, "pitch": 61, "duration": 1, "velocity": 100}, {"time": 873, "pitch": 65, "duration": 1, "velocity": 93}, {"time": 879, "pitch": 44, "duration": 11, "velocity": 66}, {"time": 885, "pitch": 56, "duration": 1, "velocity": 89}, {"time": 885, "pitch": 60, "duration": 1, "velocity": 97}, {"time": 885, "pitch": 63, "duration": 1, "velocity": 95}, {"time": 888, "pitch": 56, "duration": 1, "velocity": 69}, {"time": 888, "pitch": 60, "duration": 1, "velocity": 85}, {"time": 888, "pitch": 63, "duration": 1, "velocity": 74}, {"time": 891, "pitch": 51, "duration": 9, "velocity": 75}, {"time": 897, "pitch": 56, "duration": 1, "velocity": 93}, {"time": 897, "pitch": 60, "duration": 1, "velocity": 95}, {"time": 897, "pitch": 63, "duration": 1, "velocity": 93}, {"time": 903, "pitch": 46, "duration": 10, "velocity": 77}, {"time": 909, "pitch": 58, "duration": 1, "velocity": 100}, {"time": 909, "pitch": 61, "duration": 1, "velocity": 117}, {"time": 909, "pitch": 65, "duration": 1, "velocity": 95}, {"time": 915, "pitch": 53, "duration": 5, "velocity": 96}, {"time": 927, "pitch": 39, "duration": 11, "velocity": 78}, {"time": 933, "pitch": 58, "duration": 1, "velocity": 75}, {"time": 933, "pitch": 63, "duration": 1, "velocity": 95}, {"time": 933, "pitch": 66, "duration": 1, "velocity": 79}, {"time": 939, "pitch": 46, "duration": 11, "velocity": 64}, {"time": 945, "pitch": 58, "duration": 1, "velocity": 92}, {"time": 945, "pitch": 63, "duration": 1, "velocity": 99}, {"time": 945, "pitch": 66, "duration": 1, "velocity": 89}, {"time": 951, "pitch": 39, "duration": 11, "velocity": 56}, {"time": 957, "pitch": 58, "duration": 1, "velocity": 82}, {"time": 957, "pitch": 63, "duration": 1, "velocity": 97}, {"time": 957, "pitch": 66, "duration": 1, "velocity": 89}, {"time": 963, "pitch": 46, "duration": 8, "velocity": 63}, {"time": 969, "pitch": 58, "duration": 2, "velocity": 95}, {"time": 969, "pitch": 63, "duration": 1, "velocity": 99}, {"time": 969, "pitch": 66, "duration": 1, "velocity": 88}, {"time": 975, "pitch": 44, "duration": 11, "velocity": 63}, {"time": 981, "pitch": 56, "duration": 1, "velocity": 77}, {"time": 981, "pitch": 60, "duration": 1, "velocity": 86}, {"time": 981, "pitch": 63, "duration": 1, "velocity": 82}, {"time": 984, "pitch": 56, "duration": 1, "velocity": 73}, {"time": 984, "pitch": 60, "duration": 1, "velocity": 79}, {"time": 984, "pitch": 63, "duration": 1, "velocity": 73}, {"time": 987, "pitch": 51, "duration": 12, "velocity": 70}, {"time": 993, "pitch": 56, "duration": 1, "velocity": 83}, {"time": 993, "pitch": 60, "duration": 1, "velocity": 86}, {"time": 993, "pitch": 63, "duration": 1, "velocity": 72}, {"time": 999, "pitch": 46, "duration": 11, "velocity": 69}, {"time": 1005, "pitch": 58, "duration": 1, "velocity": 81}, {"time": 1005, "pitch": 61, "duration": 1, "velocity": 88}, {"time": 1005, "pitch": 65, "duration": 1, "velocity": 79}, {"time": 1008, "pitch": 58, "duration": 1, "velocity": 73}, {"time": 1008, "pitch": 61, "duration": 1, "velocity": 90}, {"time": 1008, "pitch": 65, "duration": 1, "velocity": 81}, {"time": 1011, "pitch": 53, "duration": 7, "velocity": 82}, {"time": 1017, "pitch": 58, "duration": 1, "velocity": 93}, {"time": 1017, "pitch": 61, "duration": 1, "velocity": 99}, {"time": 1017, "pitch": 65, "duration": 2, "velocity": 92}, {"time": 1023, "pitch": 46, "duration": 9, "velocity": 88}, {"time": 1029, "pitch": 58, "duration": 1, "velocity": 88}, {"time": 1029, "pitch": 61, "duration": 2, "velocity": 77}, {"time": 1029, "pitch": 65, "duration": 2, "velocity": 76}, {"time": 1035, "pitch": 53, "duration": 8, "velocity": 58}, {"time": 1041, "pitch": 56, "duration": 1, "velocity": 73}, {"time": 1041, "pitch": 58, "duration": 1, "velocity": 75}, {"time": 1041, "pitch": 61, "duration": 1, "velocity": 82}, {"time": 1041, "pitch": 65, "duration": 1, "velocity": 75}, {"time": 1047, "pitch": 46, "duration": 9, "velocity": 71}, {"time": 1053, "pitch": 58, "duration": 1, "velocity": 82}, {"time": 1053, "pitch": 61, "duration": 1, "velocity": 90}, {"time": 1053, "pitch": 65, "duration": 1, "velocity": 79}, {"time": 1059, "pitch": 53, "duration": 5, "velocity": 63}, {"time": 1065, "pitch": 58, "duration": 1, "velocity": 92}, {"time": 1065, "pitch": 61, "duration": 1, "velocity": 97}, {"time": 1065, "pitch": 65, "duration": 1, "velocity": 86}, {"time": 1071, "pitch": 44, "duration": 8, "velocity": 81}, {"time": 1077, "pitch": 56, "duration": 1, "velocity": 89}, {"time": 1077, "pitch": 60, "duration": 1, "velocity": 95}, {"time": 1077, "pitch": 63, "duration": 1, "velocity": 97}, {"time": 1083, "pitch": 51, "duration": 8, "velocity": 62}, {"time": 1089, "pitch": 56, "duration": 1, "velocity": 92}, {"time": 1089, "pitch": 60, "duration": 1, "velocity": 95}, {"time": 1089, "pitch": 63, "duration": 1, "velocity": 89}, {"time": 1095, "pitch": 46, "duration": 8, "velocity": 74}, {"time": 1101, "pitch": 58, "duration": 1, "velocity": 97}, {"time": 1101, "pitch": 61, "duration": 1, "velocity": 100}, {"time": 1101, "pitch": 65, "duration": 1, "velocity": 95}, {"time": 1107, "pitch": 53, "duration": 5, "velocity": 55}, {"time": 1113, "pitch": 58, "duration": 1, "velocity": 95}, {"time": 1113, "pitch": 61, "duration": 1, "velocity": 96}, {"time": 1113, "pitch": 65, "duration": 1, "velocity": 93}, {"time": 1116, "pitch": 58, "duration": 1, "velocity": 52}, {"time": 1116, "pitch": 61, "duration": 1, "velocity": 69}, {"time": 1116, "pitch": 65, "duration": 1, "velocity": 63}, {"time": 1119, "pitch": 39, "duration": 11, "velocity": 60}, {"time": 1125, "pitch": 58, "duration": 1, "velocity": 77}, {"time": 1125, "pitch": 63, "duration": 1, "velocity": 92}, {"time": 1125, "pitch": 66, "duration": 1, "velocity": 79}, {"time": 1131, "pitch": 51, "duration": 8, "velocity": 58}, {"time": 1137, "pitch": 58, "duration": 1, "velocity": 88}, {"time": 1137, "pitch": 63, "duration": 1, "velocity": 97}, {"time": 1137, "pitch": 66, "duration": 1, "velocity": 83}, {"time": 1143, "pitch": 39, "duration": 10, "velocity": 55}, {"time": 1149, "pitch": 58, "duration": 1, "velocity": 92}, {"time": 1149, "pitch": 63, "duration": 1, "velocity": 99}, {"time": 1149, "pitch": 66, "duration": 1, "velocity": 88}, {"time": 1155, "pitch": 51, "duration": 6, "velocity": 66}, {"time": 1161, "pitch": 58, "duration": 1, "velocity": 97}, {"time": 1161, "pitch": 63, "duration": 1, "velocity": 107}, {"time": 1161, "pitch": 66, "duration": 1, "velocity": 90}, {"time": 1167, "pitch": 44, "duration": 12, "velocity": 61}, {"time": 1173, "pitch": 56, "duration": 1, "velocity": 82}, {"time": 1173, "pitch": 60, "duration": 1, "velocity": 92}, {"time": 1173, "pitch": 63, "duration": 1, "velocity": 89}, {"time": 1179, "pitch": 51, "duration": 4, "velocity": 60}, {"time": 1185, "pitch": 56, "duration": 2, "velocity": 89}, {"time": 1185, "pitch": 60, "duration": 2, "velocity": 89}, {"time": 1185, "pitch": 63, "duration": 3, "velocity": 90}, {"time": 1191, "pitch": 37, "duration": 11, "velocity": 78}, {"time": 1197, "pitch": 56, "duration": 6, "velocity": 96}, {"time": 1203, "pitch": 49, "duration": 7, "velocity": 71}, {"time": 1203, "pitch": 61, "duration": 10, "velocity": 92}, {"time": 1203, "pitch": 65, "duration": 11, "velocity": 93}, {"time": 1209, "pitch": 56, "duration": 5, "velocity": 97}, {"time": 1215, "pitch": 46, "duration": 6, "velocity": 74}, {"time": 1221, "pitch": 58, "duration": 1, "velocity": 92}, {"time": 1221, "pitch": 61, "duration": 1, "velocity": 95}, {"time": 1221, "pitch": 65, "duration": 1, "velocity": 92}, {"time": 1227, "pitch": 53, "duration": 8, "velocity": 63}, {"time": 1233, "pitch": 58, "duration": 1, "velocity": 85}, {"time": 1233, "pitch": 61, "duration": 1, "velocity": 88}, {"time": 1233, "pitch": 65, "duration": 1, "velocity": 82}, {"time": 1239, "pitch": 46, "duration": 9, "velocity": 73}, {"time": 1245, "pitch": 58, "duration": 1, "velocity": 89}, {"time": 1245, "pitch": 61, "duration": 1, "velocity": 86}, {"time": 1245, "pitch": 65, "duration": 1, "velocity": 82}, {"time": 1251, "pitch": 53, "duration": 8, "velocity": 76}, {"time": 1257, "pitch": 58, "duration": 2, "velocity": 88}, {"time": 1257, "pitch": 61, "duration": 2, "velocity": 86}, {"time": 1257, "pitch": 65, "duration": 2, "velocity": 79}, {"time": 1263, "pitch": 44, "duration": 10, "velocity": 77}, {"time": 1269, "pitch": 56, "duration": 1, "velocity": 86}, {"time": 1269, "pitch": 60, "duration": 1, "velocity": 86}, {"time": 1269, "pitch": 63, "duration": 1, "velocity": 83}, {"time": 1275, "pitch": 51, "duration": 9, "velocity": 81}, {"time": 1281, "pitch": 56, "duration": 2, "velocity": 82}, {"time": 1281, "pitch": 60, "duration": 2, "velocity": 86}, {"time": 1281, "pitch": 63, "duration": 2, "velocity": 85}, {"time": 1287, "pitch": 46, "duration": 11, "velocity": 71}, {"time": 1293, "pitch": 58, "duration": 2, "velocity": 72}, {"time": 1293, "pitch": 61, "duration": 1, "velocity": 76}, {"time": 1293, "pitch": 65, "duration": 2, "velocity": 77}, {"time": 1299, "pitch": 53, "duration": 6, "velocity": 77}, {"time": 1305, "pitch": 58, "duration": 2, "velocity": 90}, {"time": 1305, "pitch": 61, "duration": 2, "velocity": 92}, {"time": 1305, "pitch": 65, "duration": 2, "velocity": 86}, {"time": 1311, "pitch": 39, "duration": 9, "velocity": 75}, {"time": 1317, "pitch": 58, "duration": 1, "velocity": 89}, {"time": 1317, "pitch": 63, "duration": 1, "velocity": 89}, {"time": 1317, "pitch": 66, "duration": 1, "velocity": 76}, {"time": 1323, "pitch": 51, "duration": 7, "velocity": 66}, {"time": 1329, "pitch": 58, "duration": 2, "velocity": 90}, {"time": 1329, "pitch": 63, "duration": 1, "velocity": 89}, {"time": 1329, "pitch": 66, "duration": 2, "velocity": 83}, {"time": 1335, "pitch": 39, "duration": 10, "velocity": 73}, {"time": 1341, "pitch": 58, "duration": 2, "velocity": 83}, {"time": 1341, "pitch": 63, "duration": 1, "velocity": 93}, {"time": 1341, "pitch": 66, "duration": 2, "velocity": 86}, {"time": 1347, "pitch": 46, "duration": 8, "velocity": 69}, {"time": 1353, "pitch": 58, "duration": 2, "velocity": 93}, {"time": 1353, "pitch": 63, "duration": 1, "velocity": 93}, {"time": 1353, "pitch": 66, "duration": 1, "velocity": 82}, {"time": 1359, "pitch": 44, "duration": 9, "velocity": 67}, {"time": 1365, "pitch": 56, "duration": 2, "velocity": 75}, {"time": 1365, "pitch": 60, "duration": 1, "velocity": 79}, {"time": 1365, "pitch": 63, "duration": 1, "velocity": 77}, {"time": 1371, "pitch": 51, "duration": 8, "velocity": 54}, {"time": 1377, "pitch": 56, "duration": 1, "velocity": 88}, {"time": 1377, "pitch": 60, "duration": 1, "velocity": 86}, {"time": 1377, "pitch": 63, "duration": 2, "velocity": 83}, {"time": 1383, "pitch": 46, "duration": 11, "velocity": 72}, {"time": 1389, "pitch": 58, "duration": 1, "velocity": 85}, {"time": 1389, "pitch": 61, "duration": 1, "velocity": 96}, {"time": 1389, "pitch": 65, "duration": 1, "velocity": 86}, {"time": 1395, "pitch": 53, "duration": 8, "velocity": 68}, {"time": 1401, "pitch": 58, "duration": 1, "velocity": 93}, {"time": 1401, "pitch": 61, "duration": 1, "velocity": 97}, {"time": 1401, "pitch": 65, "duration": 1, "velocity": 88}, {"time": 1407, "pitch": 46, "duration": 9, "velocity": 73}, {"time": 1413, "pitch": 58, "duration": 1, "velocity": 93}, {"time": 1413, "pitch": 61, "duration": 1, "velocity": 100}, {"time": 1413, "pitch": 65, "duration": 1, "velocity": 92}, {"time": 1419, "pitch": 53, "duration": 9, "velocity": 99}, {"time": 1425, "pitch": 58, "duration": 1, "velocity": 107}, {"time": 1425, "pitch": 61, "duration": 1, "velocity": 127}, {"time": 1425, "pitch": 65, "duration": 1, "velocity": 99}, {"time": 1428, "pitch": 58, "duration": 1, "velocity": 89}, {"time": 1428, "pitch": 61, "duration": 1, "velocity": 95}, {"time": 1428, "pitch": 65, "duration": 1, "velocity": 83}, {"time": 1431, "pitch": 46, "duration": 10, "velocity": 83}, {"time": 1437, "pitch": 58, "duration": 1, "velocity": 100}, {"time": 1437, "pitch": 61, "duration": 1, "velocity": 100}, {"time": 1437, "pitch": 65, "duration": 1, "velocity": 92}, {"time": 1440, "pitch": 58, "duration": 1, "velocity": 77}, {"time": 1440, "pitch": 61, "duration": 1, "velocity": 85}, {"time": 1440, "pitch": 65, "duration": 2, "velocity": 86}, {"time": 1443, "pitch": 53, "duration": 5, "velocity": 97}, {"time": 1449, "pitch": 58, "duration": 2, "velocity": 100}, {"time": 1449, "pitch": 61, "duration": 1, "velocity": 96}, {"time": 1449, "pitch": 65, "duration": 2, "velocity": 88}, {"time": 1455, "pitch": 44, "duration": 11, "velocity": 95}, {"time": 1461, "pitch": 56, "duration": 1, "velocity": 92}, {"time": 1461, "pitch": 60, "duration": 1, "velocity": 102}, {"time": 1461, "pitch": 63, "duration": 1, "velocity": 97}, {"time": 1464, "pitch": 56, "duration": 1, "velocity": 73}, {"time": 1464, "pitch": 60, "duration": 2, "velocity": 89}, {"time": 1464, "pitch": 63, "duration": 2, "velocity": 83}, {"time": 1467, "pitch": 51, "duration": 8, "velocity": 89}, {"time": 1473, "pitch": 56, "duration": 1, "velocity": 89}, {"time": 1473, "pitch": 60, "duration": 1, "velocity": 92}, {"time": 1473, "pitch": 63, "duration": 1, "velocity": 93}, {"time": 1476, "pitch": 56, "duration": 1, "velocity": 67}, {"time": 1476, "pitch": 60, "duration": 1, "velocity": 82}, {"time": 1476, "pitch": 63, "duration": 1, "velocity": 72}, {"time": 1479, "pitch": 46, "duration": 11, "velocity": 79}, {"time": 1485, "pitch": 58, "duration": 1, "velocity": 90}, {"time": 1485, "pitch": 61, "duration": 1, "velocity": 100}, {"time": 1485, "pitch": 65, "duration": 1, "velocity": 88}, {"time": 1488, "pitch": 58, "duration": 1, "velocity": 76}, {"time": 1488, "pitch": 61, "duration": 1, "velocity": 85}, {"time": 1488, "pitch": 65, "duration": 1, "velocity": 77}, {"time": 1491, "pitch": 53, "duration": 5, "velocity": 71}, {"time": 1494, "pitch": 58, "duration": 1, "velocity": 93}, {"time": 1494, "pitch": 61, "duration": 1, "velocity": 100}, {"time": 1494, "pitch": 65, "duration": 1, "velocity": 92}, {"time": 1497, "pitch": 58, "duration": 2, "velocity": 85}, {"time": 1497, "pitch": 61, "duration": 2, "velocity": 93}, {"time": 1497, "pitch": 65, "duration": 2, "velocity": 81}, {"time": 1503, "pitch": 39, "duration": 9, "velocity": 78}, {"time": 1509, "pitch": 58, "duration": 1, "velocity": 86}, {"time": 1509, "pitch": 63, "duration": 1, "velocity": 99}, {"time": 1509, "pitch": 66, "duration": 1, "velocity": 90}, {"time": 1512, "pitch": 58, "duration": 2, "velocity": 88}, {"time": 1512, "pitch": 63, "duration": 2, "velocity": 95}, {"time": 1512, "pitch": 66, "duration": 2, "velocity": 89}, {"time": 1515, "pitch": 51, "duration": 8, "velocity": 67}, {"time": 1521, "pitch": 58, "duration": 2, "velocity": 90}, {"time": 1521, "pitch": 63, "duration": 2, "velocity": 99}, {"time": 1521, "pitch": 66, "duration": 2, "velocity": 93}, {"time": 1527, "pitch": 39, "duration": 11, "velocity": 71}, {"time": 1533, "pitch": 58, "duration": 1, "velocity": 86}, {"time": 1533, "pitch": 63, "duration": 1, "velocity": 100}, {"time": 1533, "pitch": 66, "duration": 1, "velocity": 90}, {"time": 1536, "pitch": 58, "duration": 2, "velocity": 88}, {"time": 1536, "pitch": 63, "duration": 2, "velocity": 97}, {"time": 1536, "pitch": 66, "duration": 2, "velocity": 89}, {"time": 1539, "pitch": 46, "duration": 5, "velocity": 85}, {"time": 1542, "pitch": 58, "duration": 1, "velocity": 79}, {"time": 1542, "pitch": 63, "duration": 1, "velocity": 88}, {"time": 1542, "pitch": 66, "duration": 1, "velocity": 79}, {"time": 1545, "pitch": 58, "duration": 1, "velocity": 92}, {"time": 1545, "pitch": 63, "duration": 2, "velocity": 100}, {"time": 1545, "pitch": 66, "duration": 2, "velocity": 90}, {"time": 1551, "pitch": 44, "duration": 11, "velocity": 72}, {"time": 1557, "pitch": 56, "duration": 1, "velocity": 92}, {"time": 1557, "pitch": 60, "duration": 1, "velocity": 97}, {"time": 1557, "pitch": 63, "duration": 1, "velocity": 88}, {"time": 1560, "pitch": 56, "duration": 2, "velocity": 81}, {"time": 1560, "pitch": 60, "duration": 1, "velocity": 95}, {"time": 1560, "pitch": 63, "duration": 1, "velocity": 83}, {"time": 1563, "pitch": 51, "duration": 10, "velocity": 74}, {"time": 1569, "pitch": 56, "duration": 1, "velocity": 86}, {"time": 1569, "pitch": 60, "duration": 1, "velocity": 90}, {"time": 1569, "pitch": 63, "duration": 1, "velocity": 92}, {"time": 1575, "pitch": 46, "duration": 11, "velocity": 72}, {"time": 1581, "pitch": 58, "duration": 1, "velocity": 96}, {"time": 1581, "pitch": 61, "duration": 1, "velocity": 107}, {"time": 1581, "pitch": 65, "duration": 1, "velocity": 96}, {"time": 1584, "pitch": 58, "duration": 2, "velocity": 77}, {"time": 1584, "pitch": 61, "duration": 1, "velocity": 93}, {"time": 1584, "pitch": 65, "duration": 2, "velocity": 79}, {"time": 1587, "pitch": 53, "duration": 11, "velocity": 69}, {"time": 1590, "pitch": 58, "duration": 1, "velocity": 90}, {"time": 1590, "pitch": 61, "duration": 1, "velocity": 97}, {"time": 1590, "pitch": 65, "duration": 1, "velocity": 93}, {"time": 1593, "pitch": 58, "duration": 1, "velocity": 79}, {"time": 1593, "pitch": 61, "duration": 1, "velocity": 100}, {"time": 1593, "pitch": 65, "duration": 1, "velocity": 77}, {"time": 1596, "pitch": 58, "duration": 1, "velocity": 85}, {"time": 1596, "pitch": 61, "duration": 1, "velocity": 96}, {"time": 1596, "pitch": 65, "duration": 2, "velocity": 83}, {"time": 1599, "pitch": 46, "duration": 11, "velocity": 83}, {"time": 1605, "pitch": 58, "duration": 1, "velocity": 86}, {"time": 1605, "pitch": 61, "duration": 1, "velocity": 97}, {"time": 1605, "pitch": 65, "duration": 1, "velocity": 86}, {"time": 1608, "pitch": 58, "duration": 1, "velocity": 88}, {"time": 1608, "pitch": 61, "duration": 1, "velocity": 96}, {"time": 1608, "pitch": 65, "duration": 1, "velocity": 79}, {"time": 1611, "pitch": 53, "duration": 11, "velocity": 85}, {"time": 1617, "pitch": 58, "duration": 1, "velocity": 85}, {"time": 1617, "pitch": 61, "duration": 1, "velocity": 85}, {"time": 1617, "pitch": 65, "duration": 1, "velocity": 79}, {"time": 1623, "pitch": 46, "duration": 11, "velocity": 77}, {"time": 1629, "pitch": 58, "duration": 1, "velocity": 88}, {"time": 1629, "pitch": 61, "duration": 1, "velocity": 102}, {"time": 1629, "pitch": 65, "duration": 1, "velocity": 93}, {"time": 1632, "pitch": 58, "duration": 2, "velocity": 79}, {"time": 1632, "pitch": 61, "duration": 1, "velocity": 90}, {"time": 1632, "pitch": 65, "duration": 2, "velocity": 79}, {"time": 1635, "pitch": 53, "duration": 3, "velocity": 82}, {"time": 1638, "pitch": 58, "duration": 1, "velocity": 86}, {"time": 1638, "pitch": 61, "duration": 1, "velocity": 97}, {"time": 1638, "pitch": 65, "duration": 1, "velocity": 90}, {"time": 1641, "pitch": 58, "duration": 2, "velocity": 88}, {"time": 1641, "pitch": 61, "duration": 1, "velocity": 95}, {"time": 1641, "pitch": 65, "duration": 2, "velocity": 90}, {"time": 1647, "pitch": 44, "duration": 11, "velocity": 66}, {"time": 1653, "pitch": 56, "duration": 1, "velocity": 88}, {"time": 1653, "pitch": 60, "duration": 1, "velocity": 93}, {"time": 1653, "pitch": 63, "duration": 1, "velocity": 88}, {"time": 1656, "pitch": 56, "duration": 1, "velocity": 72}, {"time": 1656, "pitch": 60, "duration": 1, "velocity": 76}, {"time": 1656, "pitch": 63, "duration": 2, "velocity": 73}, {"time": 1659, "pitch": 51, "duration": 9, "velocity": 97}, {"time": 1665, "pitch": 56, "duration": 1, "velocity": 96}, {"time": 1665, "pitch": 60, "duration": 1, "velocity": 99}, {"time": 1665, "pitch": 63, "duration": 1, "velocity": 92}, {"time": 1671, "pitch": 46, "duration": 11, "velocity": 72}, {"time": 1677, "pitch": 58, "duration": 1, "velocity": 86}, {"time": 1677, "pitch": 61, "duration": 1, "velocity": 90}, {"time": 1677, "pitch": 65, "duration": 1, "velocity": 81}, {"time": 1680, "pitch": 58, "duration": 1, "velocity": 86}, {"time": 1680, "pitch": 61, "duration": 1, "velocity": 93}, {"time": 1680, "pitch": 65, "duration": 1, "velocity": 79}, {"time": 1683, "pitch": 53, "duration": 4, "velocity": 77}, {"time": 1686, "pitch": 58, "duration": 1, "velocity": 82}, {"time": 1686, "pitch": 61, "duration": 1, "velocity": 93}, {"time": 1686, "pitch": 65, "duration": 1, "velocity": 83}, {"time": 1689, "pitch": 58, "duration": 1, "velocity": 92}, {"time": 1689, "pitch": 61, "duration": 1, "velocity": 93}, {"time": 1689, "pitch": 65, "duration": 2, "velocity": 89}, {"time": 1695, "pitch": 39, "duration": 11, "velocity": 85}, {"time": 1701, "pitch": 58, "duration": 1, "velocity": 85}, {"time": 1701, "pitch": 63, "duration": 1, "velocity": 100}, {"time": 1701, "pitch": 66, "duration": 1, "velocity": 88}, {"time": 1704, "pitch": 58, "duration": 2, "velocity": 77}, {"time": 1704, "pitch": 63, "duration": 2, "velocity": 88}, {"time": 1704, "pitch": 66, "duration": 2, "velocity": 81}, {"time": 1707, "pitch": 46, "duration": 9, "velocity": 63}, {"time": 1710, "pitch": 58, "duration": 1, "velocity": 77}, {"time": 1710, "pitch": 63, "duration": 1, "velocity": 95}, {"time": 1710, "pitch": 66, "duration": 1, "velocity": 78}, {"time": 1713, "pitch": 58, "duration": 2, "velocity": 86}, {"time": 1713, "pitch": 63, "duration": 2, "velocity": 95}, {"time": 1713, "pitch": 66, "duration": 2, "velocity": 88}, {"time": 1719, "pitch": 39, "duration": 11, "velocity": 69}, {"time": 1725, "pitch": 58, "duration": 1, "velocity": 78}, {"time": 1725, "pitch": 63, "duration": 1, "velocity": 85}, {"time": 1725, "pitch": 66, "duration": 1, "velocity": 58}, {"time": 1728, "pitch": 58, "duration": 1, "velocity": 75}, {"time": 1728, "pitch": 63, "duration": 2, "velocity": 95}, {"time": 1728, "pitch": 66, "duration": 1, "velocity": 85}, {"time": 1731, "pitch": 46, "duration": 6, "velocity": 63}, {"time": 1734, "pitch": 58, "duration": 1, "velocity": 81}, {"time": 1734, "pitch": 63, "duration": 2, "velocity": 90}, {"time": 1734, "pitch": 66, "duration": 1, "velocity": 83}, {"time": 1737, "pitch": 58, "duration": 2, "velocity": 97}, {"time": 1737, "pitch": 63, "duration": 2, "velocity": 100}, {"time": 1737, "pitch": 66, "duration": 1, "velocity": 93}, {"time": 1743, "pitch": 44, "duration": 7, "velocity": 69}, {"time": 1749, "pitch": 56, "duration": 1, "velocity": 79}, {"time": 1749, "pitch": 60, "duration": 1, "velocity": 88}, {"time": 1749, "pitch": 63, "duration": 1, "velocity": 86}, {"time": 1752, "pitch": 56, "duration": 2, "velocity": 76}, {"time": 1752, "pitch": 60, "duration": 2, "velocity": 83}, {"time": 1752, "pitch": 63, "duration": 2, "velocity": 83}, {"time": 1755, "pitch": 51, "duration": 11, "velocity": 54}, {"time": 1761, "pitch": 56, "duration": 1, "velocity": 89}, {"time": 1761, "pitch": 60, "duration": 1, "velocity": 89}, {"time": 1761, "pitch": 63, "duration": 2, "velocity": 88}, {"time": 1767, "pitch": 46, "duration": 11, "velocity": 65}, {"time": 1773, "pitch": 58, "duration": 1, "velocity": 88}, {"time": 1773, "pitch": 61, "duration": 1, "velocity": 99}, {"time": 1773, "pitch": 65, "duration": 1, "velocity": 92}, {"time": 1776, "pitch": 58, "duration": 2, "velocity": 78}, {"time": 1776, "pitch": 61, "duration": 2, "velocity": 90}, {"time": 1776, "pitch": 65, "duration": 2, "velocity": 83}, {"time": 1779, "pitch": 53, "duration": 10, "velocity": 66}, {"time": 1782, "pitch": 58, "duration": 1, "velocity": 79}, {"time": 1782, "pitch": 61, "duration": 1, "velocity": 88}, {"time": 1782, "pitch": 65, "duration": 1, "velocity": 83}, {"time": 1785, "pitch": 58, "duration": 2, "velocity": 85}, {"time": 1785, "pitch": 61, "duration": 1, "velocity": 92}, {"time": 1785, "pitch": 65, "duration": 1, "velocity": 85}, {"time": 1791, "pitch": 46, "duration": 9, "velocity": 73}, {"time": 1797, "pitch": 58, "duration": 1, "velocity": 93}, {"time": 1797, "pitch": 61, "duration": 1, "velocity": 100}, {"time": 1797, "pitch": 65, "duration": 1, "velocity": 92}, {"time": 1803, "pitch": 53, "duration": 9, "velocity": 99}, {"time": 1809, "pitch": 58, "duration": 1, "velocity": 107}, {"time": 1809, "pitch": 61, "duration": 1, "velocity": 127}, {"time": 1809, "pitch": 65, "duration": 1, "velocity": 99}, {"time": 1812, "pitch": 58, "duration": 1, "velocity": 89}, {"time": 1812, "pitch": 61, "duration": 1, "velocity": 95}, {"time": 1812, "pitch": 65, "duration": 1, "velocity": 83}, {"time": 1815, "pitch": 46, "duration": 10, "velocity": 83}, {"time": 1821, "pitch": 58, "duration": 1, "velocity": 100}, {"time": 1821, "pitch": 61, "duration": 1, "velocity": 100}, {"time": 1821, "pitch": 65, "duration": 1, "velocity": 92}, {"time": 1824, "pitch": 58, "duration": 1, "velocity": 77}, {"time": 1824, "pitch": 61, "duration": 1, "velocity": 85}, {"time": 1824, "pitch": 65, "duration": 2, "velocity": 86}, {"time": 1827, "pitch": 53, "duration": 5, "velocity": 97}, {"time": 1833, "pitch": 58, "duration": 2, "velocity": 100}, {"time": 1833, "pitch": 61, "duration": 1, "velocity": 96}, {"time": 1833, "pitch": 65, "duration": 2, "velocity": 88}, {"time": 1839, "pitch": 44, "duration": 11, "velocity": 95}, {"time": 1845, "pitch": 56, "duration": 1, "velocity": 92}, {"time": 1845, "pitch": 60, "duration": 1, "velocity": 102}, {"time": 1845, "pitch": 63, "duration": 1, "velocity": 97}, {"time": 1848, "pitch": 56, "duration": 1, "velocity": 73}, {"time": 1848, "pitch": 60, "duration": 2, "velocity": 89}, {"time": 1848, "pitch": 63, "duration": 2, "velocity": 83}, {"time": 1851, "pitch": 51, "duration": 8, "velocity": 89}, {"time": 1857, "pitch": 56, "duration": 1, "velocity": 89}, {"time": 1857, "pitch": 60, "duration": 1, "velocity": 92}, {"time": 1857, "pitch": 63, "duration": 1, "velocity": 93}, {"time": 1860, "pitch": 56, "duration": 1, "velocity": 67}, {"time": 1860, "pitch": 60, "duration": 1, "velocity": 82}, {"time": 1860, "pitch": 63, "duration": 1, "velocity": 72}, {"time": 1863, "pitch": 46, "duration": 11, "velocity": 79}, {"time": 1869, "pitch": 58, "duration": 1, "velocity": 90}, {"time": 1869, "pitch": 61, "duration": 1, "velocity": 100}, {"time": 1869, "pitch": 65, "duration": 1, "velocity": 88}, {"time": 1872, "pitch": 58, "duration": 1, "velocity": 76}, {"time": 1872, "pitch": 61, "duration": 1, "velocity": 85}, {"time": 1872, "pitch": 65, "duration": 1, "velocity": 77}, {"time": 1875, "pitch": 53, "duration": 5, "velocity": 71}, {"time": 1878, "pitch": 58, "duration": 1, "velocity": 93}, {"time": 1878, "pitch": 61, "duration": 1, "velocity": 100}, {"time": 1878, "pitch": 65, "duration": 1, "velocity": 92}, {"time": 1881, "pitch": 58, "duration": 2, "velocity": 85}, {"time": 1881, "pitch": 61, "duration": 2, "velocity": 93}, {"time": 1881, "pitch": 65, "duration": 2, "velocity": 81}, {"time": 1887, "pitch": 39, "duration": 9, "velocity": 78}, {"time": 1893, "pitch": 58, "duration": 1, "velocity": 86}, {"time": 1893, "pitch": 63, "duration": 1, "velocity": 99}, {"time": 1893, "pitch": 66, "duration": 1, "velocity": 90}, {"time": 1896, "pitch": 58, "duration": 2, "velocity": 88}, {"time": 1896, "pitch": 63, "duration": 2, "velocity": 95}, {"time": 1896, "pitch": 66, "duration": 2, "velocity": 89}, {"time": 1899, "pitch": 51, "duration": 8, "velocity": 67}, {"time": 1905, "pitch": 58, "duration": 2, "velocity": 90}, {"time": 1905, "pitch": 63, "duration": 2, "velocity": 99}, {"time": 1905, "pitch": 66, "duration": 2, "velocity": 93}, {"time": 1911, "pitch": 39, "duration": 11, "velocity": 71}, {"time": 1917, "pitch": 58, "duration": 1, "velocity": 86}, {"time": 1917, "pitch": 63, "duration": 1, "velocity": 100}, {"time": 1917, "pitch": 66, "duration": 1, "velocity": 90}, {"time": 1920, "pitch": 58, "duration": 2, "velocity": 88}, {"time": 1920, "pitch": 63, "duration": 2, "velocity": 97}, {"time": 1920, "pitch": 66, "duration": 2, "velocity": 89}, {"time": 1923, "pitch": 46, "duration": 5, "velocity": 85}, {"time": 1926, "pitch": 58, "duration": 1, "velocity": 79}, {"time": 1926, "pitch": 63, "duration": 1, "velocity": 88}, {"time": 1926, "pitch": 66, "duration": 1, "velocity": 79}, {"time": 1929, "pitch": 58, "duration": 1, "velocity": 92}, {"time": 1929, "pitch": 63, "duration": 2, "velocity": 100}, {"time": 1929, "pitch": 66, "duration": 2, "velocity": 90}, {"time": 1935, "pitch": 44, "duration": 11, "velocity": 72}, {"time": 1941, "pitch": 56, "duration": 1, "velocity": 92}, {"time": 1941, "pitch": 60, "duration": 1, "velocity": 97}, {"time": 1941, "pitch": 63, "duration": 1, "velocity": 88}, {"time": 1944, "pitch": 56, "duration": 2, "velocity": 81}, {"time": 1944, "pitch": 60, "duration": 1, "velocity": 95}, {"time": 1944, "pitch": 63, "duration": 1, "velocity": 83}, {"time": 1947, "pitch": 51, "duration": 10, "velocity": 74}, {"time": 1953, "pitch": 56, "duration": 1, "velocity": 86}, {"time": 1953, "pitch": 60, "duration": 1, "velocity": 90}, {"time": 1953, "pitch": 63, "duration": 1, "velocity": 92}, {"time": 1959, "pitch": 46, "duration": 11, "velocity": 72}, {"time": 1965, "pitch": 58, "duration": 1, "velocity": 96}, {"time": 1965, "pitch": 61, "duration": 1, "velocity": 107}, {"time": 1965, "pitch": 65, "duration": 1, "velocity": 96}, {"time": 1968, "pitch": 58, "duration": 2, "velocity": 77}, {"time": 1968, "pitch": 61, "duration": 1, "velocity": 93}, {"time": 1968, "pitch": 65, "duration": 2, "velocity": 79}, {"time": 1971, "pitch": 53, "duration": 11, "velocity": 69}, {"time": 1974, "pitch": 58, "duration": 1, "velocity": 90}, {"time": 1974, "pitch": 61, "duration": 1, "velocity": 97}, {"time": 1974, "pitch": 65, "duration": 1, "velocity": 93}, {"time": 1977, "pitch": 58, "duration": 1, "velocity": 79}, {"time": 1977, "pitch": 61, "duration": 1, "velocity": 100}, {"time": 1977, "pitch": 65, "duration": 1, "velocity": 77}, {"time": 1980, "pitch": 58, "duration": 1, "velocity": 85}, {"time": 1980, "pitch": 61, "duration": 1, "velocity": 96}, {"time": 1980, "pitch": 65, "duration": 2, "velocity": 83}, {"time": 1983, "pitch": 46, "duration": 11, "velocity": 83}, {"time": 1989, "pitch": 58, "duration": 1, "velocity": 86}, {"time": 1989, "pitch": 61, "duration": 1, "velocity": 97}, {"time": 1989, "pitch": 65, "duration": 1, "velocity": 86}, {"time": 1992, "pitch": 58, "duration": 1, "velocity": 88}, {"time": 1992, "pitch": 61, "duration": 1, "velocity": 96}, {"time": 1992, "pitch": 65, "duration": 1, "velocity": 79}, {"time": 1995, "pitch": 53, "duration": 11, "velocity": 85}, {"time": 2001, "pitch": 58, "duration": 1, "velocity": 85}, {"time": 2001, "pitch": 61, "duration": 1, "velocity": 85}, {"time": 2001, "pitch": 65, "duration": 1, "velocity": 79}, {"time": 2007, "pitch": 46, "duration": 11, "velocity": 77}, {"time": 2013, "pitch": 58, "duration": 1, "velocity": 88}, {"time": 2013, "pitch": 61, "duration": 1, "velocity": 102}, {"time": 2013, "pitch": 65, "duration": 1, "velocity": 93}, {"time": 2016, "pitch": 58, "duration": 2, "velocity": 79}, {"time": 2016, "pitch": 61, "duration": 1, "velocity": 90}, {"time": 2016, "pitch": 65, "duration": 2, "velocity": 79}, {"time": 2019, "pitch": 53, "duration": 3, "velocity": 82}, {"time": 2022, "pitch": 58, "duration": 1, "velocity": 86}, {"time": 2022, "pitch": 61, "duration": 1, "velocity": 97}, {"time": 2022, "pitch": 65, "duration": 1, "velocity": 90}, {"time": 2025, "pitch": 58, "duration": 2, "velocity": 88}, {"time": 2025, "pitch": 61, "duration": 1, "velocity": 95}, {"time": 2025, "pitch": 65, "duration": 2, "velocity": 90}, {"time": 2031, "pitch": 44, "duration": 11, "velocity": 66}, {"time": 2037, "pitch": 56, "duration": 1, "velocity": 88}, {"time": 2037, "pitch": 60, "duration": 1, "velocity": 93}, {"time": 2037, "pitch": 63, "duration": 1, "velocity": 88}, {"time": 2040, "pitch": 56, "duration": 1, "velocity": 72}, {"time": 2040, "pitch": 60, "duration": 1, "velocity": 76}, {"time": 2040, "pitch": 63, "duration": 2, "velocity": 73}, {"time": 2043, "pitch": 51, "duration": 9, "velocity": 97}, {"time": 2049, "pitch": 56, "duration": 1, "velocity": 96}, {"time": 2049, "pitch": 60, "duration": 1, "velocity": 99}, {"time": 2049, "pitch": 63, "duration": 1, "velocity": 92}, {"time": 2055, "pitch": 46, "duration": 11, "velocity": 72}, {"time": 2061, "pitch": 58, "duration": 1, "velocity": 86}, {"time": 2061, "pitch": 61, "duration": 1, "velocity": 90}, {"time": 2061, "pitch": 65, "duration": 1, "velocity": 81}, {"time": 2064, "pitch": 58, "duration": 1, "velocity": 86}, {"time": 2064, "pitch": 61, "duration": 1, "velocity": 93}, {"time": 2064, "pitch": 65, "duration": 1, "velocity": 79}, {"time": 2067, "pitch": 53, "duration": 4, "velocity": 77}, {"time": 2070, "pitch": 58, "duration": 1, "velocity": 82}, {"time": 2070, "pitch": 61, "duration": 1, "velocity": 93}, {"time": 2070, "pitch": 65, "duration": 1, "velocity": 83}, {"time": 2073, "pitch": 58, "duration": 1, "velocity": 92}, {"time": 2073, "pitch": 61, "duration": 1, "velocity": 93}, {"time": 2073, "pitch": 65, "duration": 2, "velocity": 89}, {"time": 2079, "pitch": 39, "duration": 11, "velocity": 85}, {"time": 2085, "pitch": 58, "duration": 1, "velocity": 85}, {"time": 2085, "pitch": 63, "duration": 1, "velocity": 100}, {"time": 2085, "pitch": 66, "duration": 1, "velocity": 88}, {"time": 2088, "pitch": 58, "duration": 2, "velocity": 77}, {"time": 2088, "pitch": 63, "duration": 2, "velocity": 88}, {"time": 2088, "pitch": 66, "duration": 2, "velocity": 81}, {"time": 2091, "pitch": 46, "duration": 9, "velocity": 63}, {"time": 2094, "pitch": 58, "duration": 1, "velocity": 77}, {"time": 2094, "pitch": 63, "duration": 1, "velocity": 95}, {"time": 2094, "pitch": 66, "duration": 1, "velocity": 78}, {"time": 2097, "pitch": 58, "duration": 2, "velocity": 86}, {"time": 2097, "pitch": 63, "duration": 2, "velocity": 95}, {"time": 2097, "pitch": 66, "duration": 2, "velocity": 88}, {"time": 2103, "pitch": 39, "duration": 11, "velocity": 69}, {"time": 2109, "pitch": 58, "duration": 1, "velocity": 78}, {"time": 2109, "pitch": 63, "duration": 1, "velocity": 85}, {"time": 2109, "pitch": 66, "duration": 1, "velocity": 58}, {"time": 2112, "pitch": 58, "duration": 1, "velocity": 75}, {"time": 2112, "pitch": 63, "duration": 2, "velocity": 95}, {"time": 2112, "pitch": 66, "duration": 1, "velocity": 85}, {"time": 2115, "pitch": 46, "duration": 6, "velocity": 63}, {"time": 2118, "pitch": 58, "duration": 1, "velocity": 81}, {"time": 2118, "pitch": 63, "duration": 2, "velocity": 90}, {"time": 2118, "pitch": 66, "duration": 1, "velocity": 83}, {"time": 2121, "pitch": 58, "duration": 2, "velocity": 97}, {"time": 2121, "pitch": 63, "duration": 2, "velocity": 100}, {"time": 2121, "pitch": 66, "duration": 1, "velocity": 93}, {"time": 2127, "pitch": 44, "duration": 7, "velocity": 69}, {"time": 2133, "pitch": 56, "duration": 1, "velocity": 79}, {"time": 2133, "pitch": 60, "duration": 1, "velocity": 88}, {"time": 2133, "pitch": 63, "duration": 1, "velocity": 86}, {"time": 2136, "pitch": 56, "duration": 2, "velocity": 76}, {"time": 2136, "pitch": 60, "duration": 2, "velocity": 83}, {"time": 2136, "pitch": 63, "duration": 2, "velocity": 83}, {"time": 2139, "pitch": 51, "duration": 11, "velocity": 54}, {"time": 2145, "pitch": 56, "duration": 1, "velocity": 89}, {"time": 2145, "pitch": 60, "duration": 1, "velocity": 89}, {"time": 2145, "pitch": 63, "duration": 2, "velocity": 88}, {"time": 2151, "pitch": 46, "duration": 11, "velocity": 65}, {"time": 2157, "pitch": 58, "duration": 1, "velocity": 88}, {"time": 2157, "pitch": 61, "duration": 1, "velocity": 99}, {"time": 2157, "pitch": 65, "duration": 1, "velocity": 92}, {"time": 2160, "pitch": 58, "duration": 2, "velocity": 78}, {"time": 2160, "pitch": 61, "duration": 2, "velocity": 90}, {"time": 2160, "pitch": 65, "duration": 2, "velocity": 83}, {"time": 2163, "pitch": 53, "duration": 10, "velocity": 66}, {"time": 2166, "pitch": 58, "duration": 1, "velocity": 79}, {"time": 2166, "pitch": 61, "duration": 1, "velocity": 88}, {"time": 2166, "pitch": 65, "duration": 1, "velocity": 83}, {"time": 2169, "pitch": 58, "duration": 2, "velocity": 85}, {"time": 2169, "pitch": 61, "duration": 1, "velocity": 92}, {"time": 2169, "pitch": 65, "duration": 1, "velocity": 85}, {"time": 2175, "pitch": 46, "duration": 3, "velocity": 97}, {"time": 2187, "pitch": 53, "duration": 6, "velocity": 97}, {"time": 2193, "pitch": 46, "duration": 2, "velocity": 66}, {"time": 2205, "pitch": 53, "duration": 6, "velocity": 89}, {"time": 2211, "pitch": 46, "duration": 5, "velocity": 70}, {"time": 2217, "pitch": 53, "duration": 3, "velocity": 71}, {"time": 2223, "pitch": 46, "duration": 9, "velocity": 82}, {"time": 2229, "pitch": 58, "duration": 1, "velocity": 77}, {"time": 2229, "pitch": 61, "duration": 1, "velocity": 73}, {"time": 2229, "pitch": 65, "duration": 1, "velocity": 72}, {"time": 2235, "pitch": 53, "duration": 9, "velocity": 52}, {"time": 2241, "pitch": 58, "duration": 1, "velocity": 77}, {"time": 2241, "pitch": 61, "duration": 1, "velocity": 82}, {"time": 2241, "pitch": 65, "duration": 1, "velocity": 74}, {"time": 2247, "pitch": 46, "duration": 11, "velocity": 63}, {"time": 2253, "pitch": 58, "duration": 1, "velocity": 85}, {"time": 2253, "pitch": 61, "duration": 1, "velocity": 85}, {"time": 2253, "pitch": 65, "duration": 1, "velocity": 79}, {"time": 2259, "pitch": 53, "duration": 7, "velocity": 70}, {"time": 2265, "pitch": 58, "duration": 1, "velocity": 92}, {"time": 2265, "pitch": 61, "duration": 1, "velocity": 100}, {"time": 2265, "pitch": 65, "duration": 1, "velocity": 95}, {"time": 2271, "pitch": 44, "duration": 10, "velocity": 82}, {"time": 2277, "pitch": 56, "duration": 1, "velocity": 90}, {"time": 2277, "pitch": 60, "duration": 1, "velocity": 96}, {"time": 2277, "pitch": 63, "duration": 1, "velocity": 93}, {"time": 2283, "pitch": 51, "duration": 9, "velocity": 61}, {"time": 2289, "pitch": 56, "duration": 1, "velocity": 86}, {"time": 2289, "pitch": 60, "duration": 1, "velocity": 93}, {"time": 2289, "pitch": 63, "duration": 2, "velocity": 86}, {"time": 2295, "pitch": 46, "duration": 9, "velocity": 63}, {"time": 2301, "pitch": 58, "duration": 1, "velocity": 95}, {"time": 2301, "pitch": 61, "duration": 1, "velocity": 96}, {"time": 2301, "pitch": 65, "duration": 1, "velocity": 93}, {"time": 2307, "pitch": 53, "duration": 4, "velocity": 81}, {"time": 2313, "pitch": 58, "duration": 1, "velocity": 92}, {"time": 2313, "pitch": 61, "duration": 1, "velocity": 96}, {"time": 2313, "pitch": 65, "duration": 2, "velocity": 90}, {"time": 2319, "pitch": 39, "duration": 10, "velocity": 65}, {"time": 2325, "pitch": 58, "duration": 1, "velocity": 92}, {"time": 2325, "pitch": 63, "duration": 1, "velocity": 99}, {"time": 2325, "pitch": 66, "duration": 1, "velocity": 90}, {"time": 2331, "pitch": 46, "duration": 10, "velocity": 68}, {"time": 2337, "pitch": 58, "duration": 2, "velocity": 86}, {"time": 2337, "pitch": 63, "duration": 2, "velocity": 93}, {"time": 2337, "pitch": 66, "duration": 2, "velocity": 79}, {"time": 2343, "pitch": 39, "duration": 9, "velocity": 72}, {"time": 2349, "pitch": 58, "duration": 1, "velocity": 86}, {"time": 2349, "pitch": 63, "duration": 1, "velocity": 99}, {"time": 2349, "pitch": 66, "duration": 1, "velocity": 92}, {"time": 2355, "pitch": 46, "duration": 8, "velocity": 72}, {"time": 2361, "pitch": 58, "duration": 1, "velocity": 99}, {"time": 2361, "pitch": 63, "duration": 1, "velocity": 107}, {"time": 2361, "pitch": 66, "duration": 1, "velocity": 92}, {"time": 2367, "pitch": 44, "duration": 9, "velocity": 82}, {"time": 2373, "pitch": 56, "duration": 1, "velocity": 85}, {"time": 2373, "pitch": 60, "duration": 1, "velocity": 93}, {"time": 2373, "pitch": 63, "duration": 1, "velocity": 90}, {"time": 2379, "pitch": 51, "duration": 10, "velocity": 67}, {"time": 2385, "pitch": 56, "duration": 1, "velocity": 90}, {"time": 2385, "pitch": 60, "duration": 1, "velocity": 93}, {"time": 2385, "pitch": 63, "duration": 1, "velocity": 90}, {"time": 2391, "pitch": 46, "duration": 7, "velocity": 92}, {"time": 2397, "pitch": 58, "duration": 1, "velocity": 93}, {"time": 2397, "pitch": 61, "duration": 1, "velocity": 97}, {"time": 2397, "pitch": 65, "duration": 1, "velocity": 86}, {"time": 2403, "pitch": 46, "duration": 7, "velocity": 89}, {"time": 2409, "pitch": 58, "duration": 1, "velocity": 90}, {"time": 2409, "pitch": 61, "duration": 1, "velocity": 96}, {"time": 2409, "pitch": 65, "duration": 1, "velocity": 85}, {"time": 2415, "pitch": 46, "duration": 9, "velocity": 78}, {"time": 2421, "pitch": 58, "duration": 1, "velocity": 93}, {"time": 2421, "pitch": 61, "duration": 1, "velocity": 93}, {"time": 2421, "pitch": 65, "duration": 1, "velocity": 88}, {"time": 2427, "pitch": 53, "duration": 9, "velocity": 61}, {"time": 2433, "pitch": 58, "duration": 1, "velocity": 86}, {"time": 2433, "pitch": 61, "duration": 1, "velocity": 92}, {"time": 2433, "pitch": 65, "duration": 1, "velocity": 88}, {"time": 2439, "pitch": 46, "duration": 8, "velocity": 71}, {"time": 2445, "pitch": 58, "duration": 1, "velocity": 82}, {"time": 2445, "pitch": 61, "duration": 1, "velocity": 88}, {"time": 2445, "pitch": 65, "duration": 1, "velocity": 88}, {"time": 2451, "pitch": 53, "duration": 9, "velocity": 67}, {"time": 2457, "pitch": 58, "duration": 1, "velocity": 90}, {"time": 2457, "pitch": 61, "duration": 1, "velocity": 96}, {"time": 2457, "pitch": 65, "duration": 1, "velocity": 86}, {"time": 2463, "pitch": 44, "duration": 9, "velocity": 67}, {"time": 2469, "pitch": 56, "duration": 1, "velocity": 86}, {"time": 2469, "pitch": 60, "duration": 1, "velocity": 93}, {"time": 2469, "pitch": 63, "duration": 1, "velocity": 92}, {"time": 2475, "pitch": 51, "duration": 7, "velocity": 62}, {"time": 2481, "pitch": 56, "duration": 1, "velocity": 83}, {"time": 2481, "pitch": 60, "duration": 1, "velocity": 89}, {"time": 2481, "pitch": 63, "duration": 2, "velocity": 89}, {"time": 2487, "pitch": 46, "duration": 8, "velocity": 73}, {"time": 2493, "pitch": 58, "duration": 1, "velocity": 83}, {"time": 2493, "pitch": 61, "duration": 1, "velocity": 90}, {"time": 2493, "pitch": 65, "duration": 1, "velocity": 85}, {"time": 2499, "pitch": 53, "duration": 3, "velocity": 66}, {"time": 2505, "pitch": 58, "duration": 1, "velocity": 86}, {"time": 2505, "pitch": 61, "duration": 1, "velocity": 93}, {"time": 2505, "pitch": 65, "duration": 1, "velocity": 86}, {"time": 2511, "pitch": 39, "duration": 9, "velocity": 66}, {"time": 2517, "pitch": 58, "duration": 1, "velocity": 79}, {"time": 2517, "pitch": 63, "duration": 1, "velocity": 93}, {"time": 2517, "pitch": 66, "duration": 1, "velocity": 89}, {"time": 2523, "pitch": 46, "duration": 9, "velocity": 58}, {"time": 2529, "pitch": 58, "duration": 2, "velocity": 83}, {"time": 2529, "pitch": 63, "duration": 2, "velocity": 95}, {"time": 2529, "pitch": 66, "duration": 1, "velocity": 83}, {"time": 2535, "pitch": 39, "duration": 12, "velocity": 68}, {"time": 2541, "pitch": 58, "duration": 1, "velocity": 96}, {"time": 2541, "pitch": 63, "duration": 1, "velocity": 112}, {"time": 2541, "pitch": 66, "duration": 1, "velocity": 99}, {"time": 2544, "pitch": 58, "duration": 1, "velocity": 66}, {"time": 2544, "pitch": 63, "duration": 1, "velocity": 73}, {"time": 2544, "pitch": 66, "duration": 1, "velocity": 71}, {"time": 2547, "pitch": 46, "duration": 7, "velocity": 63}, {"time": 2553, "pitch": 58, "duration": 1, "velocity": 92}, {"time": 2553, "pitch": 63, "duration": 1, "velocity": 112}, {"time": 2553, "pitch": 66, "duration": 1, "velocity": 83}, {"time": 2559, "pitch": 44, "duration": 12, "velocity": 66}, {"time": 2565, "pitch": 56, "duration": 1, "velocity": 93}, {"time": 2565, "pitch": 60, "duration": 1, "velocity": 97}, {"time": 2565, "pitch": 63, "duration": 1, "velocity": 89}, {"time": 2568, "pitch": 56, "duration": 1, "velocity": 63}, {"time": 2568, "pitch": 60, "duration": 1, "velocity": 78}, {"time": 2568, "pitch": 63, "duration": 1, "velocity": 72}, {"time": 2571, "pitch": 51, "duration": 11, "velocity": 64}, {"time": 2577, "pitch": 56, "duration": 1, "velocity": 89}, {"time": 2577, "pitch": 60, "duration": 1, "velocity": 96}, {"time": 2577, "pitch": 63, "duration": 2, "velocity": 96}, {"time": 2583, "pitch": 46, "duration": 11, "velocity": 88}, {"time": 2589, "pitch": 58, "duration": 1, "velocity": 89}, {"time": 2589, "pitch": 61, "duration": 1, "velocity": 92}, {"time": 2589, "pitch": 65, "duration": 1, "velocity": 85}, {"time": 2592, "pitch": 58, "duration": 1, "velocity": 73}, {"time": 2592, "pitch": 61, "duration": 1, "velocity": 86}, {"time": 2592, "pitch": 65, "duration": 1, "velocity": 81}, {"time": 2595, "pitch": 53, "duration": 8, "velocity": 82}, {"time": 2601, "pitch": 58, "duration": 1, "velocity": 95}, {"time": 2601, "pitch": 61, "duration": 1, "velocity": 97}, {"time": 2601, "pitch": 65, "duration": 1, "velocity": 89}, {"time": 2619, "pitch": 46, "duration": 9, "velocity": 78}, {"time": 2619, "pitch": 58, "duration": 8, "velocity": 88}, {"time": 2619, "pitch": 61, "duration": 9, "velocity": 95}, {"time": 2619, "pitch": 65, "duration": 9, "velocity": 92}, {"time": 2643, "pitch": 46, "duration": 11, "velocity": 96}, {"time": 2643, "pitch": 58, "duration": 10, "velocity": 88}, {"time": 2643, "pitch": 61, "duration": 10, "velocity": 92}, {"time": 2643, "pitch": 65, "duration": 10, "velocity": 89}, {"time": 2667, "pitch": 44, "duration": 8, "velocity": 93}, {"time": 2667, "pitch": 56, "duration": 8, "velocity": 79}, {"time": 2667, "pitch": 60, "duration": 8, "velocity": 88}, {"time": 2667, "pitch": 63, "duration": 8, "velocity": 83}, {"time": 2691, "pitch": 44, "duration": 9, "velocity": 85}, {"time": 2691, "pitch": 56, "duration": 9, "velocity": 96}, {"time": 2691, "pitch": 60, "duration": 9, "velocity": 95}, {"time": 2691, "pitch": 63, "duration": 9, "velocity": 93}, {"time": 2703, "pitch": 39, "duration": 5, "velocity": 53}, {"time": 2709, "pitch": 58, "duration": 1, "velocity": 75}, {"time": 2709, "pitch": 63, "duration": 1, "velocity": 85}, {"time": 2709, "pitch": 66, "duration": 1, "velocity": 81}, {"time": 2715, "pitch": 46, "duration": 4, "velocity": 39}, {"time": 2721, "pitch": 58, "duration": 1, "velocity": 70}, {"time": 2721, "pitch": 63, "duration": 1, "velocity": 78}, {"time": 2721, "pitch": 66, "duration": 1, "velocity": 69}, {"time": 2727, "pitch": 39, "duration": 6, "velocity": 37}, {"time": 2733, "pitch": 58, "duration": 1, "velocity": 85}, {"time": 2733, "pitch": 63, "duration": 1, "velocity": 89}, {"time": 2733, "pitch": 66, "duration": 1, "velocity": 78}, {"time": 2739, "pitch": 46, "duration": 6, "velocity": 44}, {"time": 2745, "pitch": 58, "duration": 1, "velocity": 61}, {"time": 2745, "pitch": 63, "duration": 1, "velocity": 85}, {"time": 2745, "pitch": 66, "duration": 1, "velocity": 79}, {"time": 2751, "pitch": 44, "duration": 6, "velocity": 52}, {"time": 2757, "pitch": 56, "duration": 1, "velocity": 78}, {"time": 2757, "pitch": 60, "duration": 1, "velocity": 83}, {"time": 2757, "pitch": 63, "duration": 1, "velocity": 83}, {"time": 2763, "pitch": 51, "duration": 8, "velocity": 50}, {"time": 2769, "pitch": 56, "duration": 1, "velocity": 71}, {"time": 2769, "pitch": 60, "duration": 1, "velocity": 73}, {"time": 2769, "pitch": 63, "duration": 1, "velocity": 70}, {"time": 2775, "pitch": 46, "duration": 7, "velocity": 50}, {"time": 2781, "pitch": 58, "duration": 1, "velocity": 82}, {"time": 2781, "pitch": 61, "duration": 1, "velocity": 89}, {"time": 2781, "pitch": 65, "duration": 1, "velocity": 88}, {"time": 2787, "pitch": 51, "duration": 1, "velocity": 58}, {"time": 2787, "pitch": 53, "duration": 7, "velocity": 64}, {"time": 2793, "pitch": 58, "duration": 1, "velocity": 100}, {"time": 2793, "pitch": 61, "duration": 1, "velocity": 102}, {"time": 2793, "pitch": 65, "duration": 1, "velocity": 96}, {"time": 2799, "pitch": 46, "duration": 8, "velocity": 88}, {"time": 2805, "pitch": 58, "duration": 1, "velocity": 97}, {"time": 2805, "pitch": 61, "duration": 1, "velocity": 96}, {"time": 2805, "pitch": 65, "duration": 1, "velocity": 89}, {"time": 2811, "pitch": 53, "duration": 10, "velocity": 71}, {"time": 2817, "pitch": 58, "duration": 1, "velocity": 83}, {"time": 2817, "pitch": 61, "duration": 1, "velocity": 88}, {"time": 2817, "pitch": 65, "duration": 1, "velocity": 79}, {"time": 2820, "pitch": 58, "duration": 1, "velocity": 58}, {"time": 2820, "pitch": 61, "duration": 1, "velocity": 70}, {"time": 2820, "pitch": 65, "duration": 1, "velocity": 71}, {"time": 2823, "pitch": 46, "duration": 6, "velocity": 73}, {"time": 2829, "pitch": 58, "duration": 1, "velocity": 89}, {"time": 2829, "pitch": 61, "duration": 1, "velocity": 99}, {"time": 2829, "pitch": 65, "duration": 1, "velocity": 82}, {"time": 2835, "pitch": 53, "duration": 8, "velocity": 65}, {"time": 2841, "pitch": 58, "duration": 1, "velocity": 93}, {"time": 2841, "pitch": 61, "duration": 1, "velocity": 95}, {"time": 2841, "pitch": 65, "duration": 1, "velocity": 86}, {"time": 2847, "pitch": 44, "duration": 7, "velocity": 74}, {"time": 2853, "pitch": 56, "duration": 1, "velocity": 89}, {"time": 2853, "pitch": 60, "duration": 1, "velocity": 89}, {"time": 2853, "pitch": 63, "duration": 1, "velocity": 81}, {"time": 2859, "pitch": 51, "duration": 8, "velocity": 51}, {"time": 2865, "pitch": 56, "duration": 1, "velocity": 83}, {"time": 2865, "pitch": 60, "duration": 1, "velocity": 79}, {"time": 2865, "pitch": 63, "duration": 2, "velocity": 79}, {"time": 2871, "pitch": 46, "duration": 8, "velocity": 63}, {"time": 2877, "pitch": 58, "duration": 1, "velocity": 77}, {"time": 2877, "pitch": 61, "duration": 1, "velocity": 89}, {"time": 2877, "pitch": 65, "duration": 1, "velocity": 81}, {"time": 2883, "pitch": 53, "duration": 4, "velocity": 52}, {"time": 2889, "pitch": 58, "duration": 1, "velocity": 89}, {"time": 2889, "pitch": 61, "duration": 1, "velocity": 97}, {"time": 2889, "pitch": 65, "duration": 1, "velocity": 90}, {"time": 2895, "pitch": 39, "duration": 11, "velocity": 81}, {"time": 2901, "pitch": 58, "duration": 1, "velocity": 89}, {"time": 2901, "pitch": 63, "duration": 1, "velocity": 97}, {"time": 2901, "pitch": 66, "duration": 1, "velocity": 85}, {"time": 2904, "pitch": 58, "duration": 1, "velocity": 54}, {"time": 2904, "pitch": 63, "duration": 1, "velocity": 81}, {"time": 2904, "pitch": 66, "duration": 1, "velocity": 76}, {"time": 2907, "pitch": 46, "duration": 8, "velocity": 63}, {"time": 2913, "pitch": 58, "duration": 1, "velocity": 95}, {"time": 2913, "pitch": 63, "duration": 1, "velocity": 100}, {"time": 2913, "pitch": 66, "duration": 1, "velocity": 92}, {"time": 2919, "pitch": 39, "duration": 9, "velocity": 65}, {"time": 2925, "pitch": 58, "duration": 1, "velocity": 81}, {"time": 2925, "pitch": 63, "duration": 1, "velocity": 97}, {"time": 2925, "pitch": 66, "duration": 1, "velocity": 86}, {"time": 2931, "pitch": 46, "duration": 8, "velocity": 100}, {"time": 2937, "pitch": 58, "duration": 1, "velocity": 95}, {"time": 2937, "pitch": 63, "duration": 1, "velocity": 99}, {"time": 2937, "pitch": 66, "duration": 1, "velocity": 88}, {"time": 2943, "pitch": 44, "duration": 7, "velocity": 89}, {"time": 2949, "pitch": 56, "duration": 2, "velocity": 89}, {"time": 2949, "pitch": 60, "duration": 1, "velocity": 96}, {"time": 2949, "pitch": 63, "duration": 1, "velocity": 88}, {"time": 2952, "pitch": 56, "duration": 1, "velocity": 55}, {"time": 2952, "pitch": 60, "duration": 2, "velocity": 79}, {"time": 2952, "pitch": 63, "duration": 1, "velocity": 71}, {"time": 2955, "pitch": 51, "duration": 9, "velocity": 72}, {"time": 2961, "pitch": 56, "duration": 1, "velocity": 96}, {"time": 2961, "pitch": 60, "duration": 1, "velocity": 96}, {"time": 2961, "pitch": 63, "duration": 1, "velocity": 96}, {"time": 2967, "pitch": 46, "duration": 3, "velocity": 90}, {"time": 2967, "pitch": 58, "duration": 4, "velocity": 96}, {"time": 2967, "pitch": 61, "duration": 4, "velocity": 102}, {"time": 2967, "pitch": 65, "duration": 5, "velocity": 96}, {"time": 2973, "pitch": 47, "duration": 3, "velocity": 95}, {"time": 2973, "pitch": 59, "duration": 2, "velocity": 107}, {"time": 2973, "pitch": 62, "duration": 2, "velocity": 102}, {"time": 2979, "pitch": 47, "duration": 7, "velocity": 100}, {"time": 2979, "pitch": 59, "duration": 7, "velocity": 102}, {"time": 2979, "pitch": 62, "duration": 8, "velocity": 100}, {"time": 2979, "pitch": 66, "duration": 8, "velocity": 89}, {"time": 2991, "pitch": 47, "duration": 9, "velocity": 73}, {"time": 2997, "pitch": 59, "duration": 1, "velocity": 93}, {"time": 2997, "pitch": 62, "duration": 1, "velocity": 100}, {"time": 2997, "pitch": 66, "duration": 1, "velocity": 92}, {"time": 3003, "pitch": 54, "duration": 9, "velocity": 99}, {"time": 3009, "pitch": 59, "duration": 1, "velocity": 107}, {"time": 3009, "pitch": 62, "duration": 1, "velocity": 127}, {"time": 3009, "pitch": 66, "duration": 1, "velocity": 99}, {"time": 3012, "pitch": 59, "duration": 1, "velocity": 89}, {"time": 3012, "pitch": 62, "duration": 1, "velocity": 95}, {"time": 3012, "pitch": 66, "duration": 1, "velocity": 83}, {"time": 3015, "pitch": 47, "duration": 10, "velocity": 83}, {"time": 3021, "pitch": 59, "duration": 1, "velocity": 100}, {"time": 3021, "pitch": 62, "duration": 1, "velocity": 100}, {"time": 3021, "pitch": 66, "duration": 1, "velocity": 92}, {"time": 3024, "pitch": 59, "duration": 1, "velocity": 77}, {"time": 3024, "pitch": 62, "duration": 1, "velocity": 85}, {"time": 3024, "pitch": 66, "duration": 2, "velocity": 86}, {"time": 3027, "pitch": 54, "duration": 5, "velocity": 97}, {"time": 3033, "pitch": 59, "duration": 2, "velocity": 100}, {"time": 3033, "pitch": 62, "duration": 1, "velocity": 96}, {"time": 3033, "pitch": 66, "duration": 2, "velocity": 88}, {"time": 3039, "pitch": 45, "duration": 11, "velocity": 95}, {"time": 3045, "pitch": 57, "duration": 1, "velocity": 92}, {"time": 3045, "pitch": 61, "duration": 1, "velocity": 102}, {"time": 3045, "pitch": 64, "duration": 1, "velocity": 97}, {"time": 3048, "pitch": 57, "duration": 1, "velocity": 73}, {"time": 3048, "pitch": 61, "duration": 2, "velocity": 89}, {"time": 3048, "pitch": 64, "duration": 2, "velocity": 83}, {"time": 3051, "pitch": 52, "duration": 8, "velocity": 89}, {"time": 3057, "pitch": 57, "duration": 1, "velocity": 89}, {"time": 3057, "pitch": 61, "duration": 1, "velocity": 92}, {"time": 3057, "pitch": 64, "duration": 1, "velocity": 93}, {"time": 3060, "pitch": 57, "duration": 1, "velocity": 67}, {"time": 3060, "pitch": 61, "duration": 1, "velocity": 82}, {"time": 3060, "pitch": 64, "duration": 1, "velocity": 72}, {"time": 3063, "pitch": 47, "duration": 11, "velocity": 79}, {"time": 3069, "pitch": 59, "duration": 1, "velocity": 90}, {"time": 3069, "pitch": 62, "duration": 1, "velocity": 100}, {"time": 3069, "pitch": 66, "duration": 1, "velocity": 88}, {"time": 3072, "pitch": 59, "duration": 1, "velocity": 76}, {"time": 3072, "pitch": 62, "duration": 1, "velocity": 85}, {"time": 3072, "pitch": 66, "duration": 1, "velocity": 77}, {"time": 3075, "pitch": 54, "duration": 5, "velocity": 71}, {"time": 3078, "pitch": 59, "duration": 1, "velocity": 93}, {"time": 3078, "pitch": 62, "duration": 1, "velocity": 100}, {"time": 3078, "pitch": 66, "duration": 1, "velocity": 92}, {"time": 3081, "pitch": 59, "duration": 2, "velocity": 85}, {"time": 3081, "pitch": 62, "duration": 2, "velocity": 93}, {"time": 3081, "pitch": 66, "duration": 2, "velocity": 81}, {"time": 3087, "pitch": 40, "duration": 9, "velocity": 78}, {"time": 3093, "pitch": 59, "duration": 1, "velocity": 86}, {"time": 3093, "pitch": 64, "duration": 1, "velocity": 99}, {"time": 3093, "pitch": 67, "duration": 1, "velocity": 90}, {"time": 3096, "pitch": 59, "duration": 2, "velocity": 88}, {"time": 3096, "pitch": 64, "duration": 2, "velocity": 95}, {"time": 3096, "pitch": 67, "duration": 2, "velocity": 89}, {"time": 3099, "pitch": 52, "duration": 8, "velocity": 67}, {"time": 3105, "pitch": 59, "duration": 2, "velocity": 90}, {"time": 3105, "pitch": 64, "duration": 2, "velocity": 99}, {"time": 3105, "pitch": 67, "duration": 2, "velocity": 93}, {"time": 3111, "pitch": 40, "duration": 11, "velocity": 71}, {"time": 3117, "pitch": 59, "duration": 1, "velocity": 86}, {"time": 3117, "pitch": 64, "duration": 1, "velocity": 100}, {"time": 3117, "pitch": 67, "duration": 1, "velocity": 90}, {"time": 3120, "pitch": 59, "duration": 2, "velocity": 88}, {"time": 3120, "pitch": 64, "duration": 2, "velocity": 97}, {"time": 3120, "pitch": 67, "duration": 2, "velocity": 89}, {"time": 3123, "pitch": 47, "duration": 5, "velocity": 85}, {"time": 3126, "pitch": 59, "duration": 1, "velocity": 79}, {"time": 3126, "pitch": 64, "duration": 1, "velocity": 88}, {"time": 3126, "pitch": 67, "duration": 1, "velocity": 79}, {"time": 3129, "pitch": 59, "duration": 1, "velocity": 92}, {"time": 3129, "pitch": 64, "duration": 2, "velocity": 100}, {"time": 3129, "pitch": 67, "duration": 2, "velocity": 90}, {"time": 3135, "pitch": 45, "duration": 11, "velocity": 72}, {"time": 3141, "pitch": 57, "duration": 1, "velocity": 92}, {"time": 3141, "pitch": 61, "duration": 1, "velocity": 97}, {"time": 3141, "pitch": 64, "duration": 1, "velocity": 88}, {"time": 3144, "pitch": 57, "duration": 2, "velocity": 81}, {"time": 3144, "pitch": 61, "duration": 1, "velocity": 95}, {"time": 3144, "pitch": 64, "duration": 1, "velocity": 83}, {"time": 3147, "pitch": 52, "duration": 10, "velocity": 74}, {"time": 3153, "pitch": 57, "duration": 1, "velocity": 86}, {"time": 3153, "pitch": 61, "duration": 1, "velocity": 90}, {"time": 3153, "pitch": 64, "duration": 1, "velocity": 92}, {"time": 3159, "pitch": 47, "duration": 11, "velocity": 72}, {"time": 3165, "pitch": 59, "duration": 1, "velocity": 96}, {"time": 3165, "pitch": 62, "duration": 1, "velocity": 107}, {"time": 3165, "pitch": 66, "duration": 1, "velocity": 96}, {"time": 3168, "pitch": 59, "duration": 2, "velocity": 77}, {"time": 3168, "pitch": 62, "duration": 1, "velocity": 93}, {"time": 3168, "pitch": 66, "duration": 2, "velocity": 79}, {"time": 3171, "pitch": 54, "duration": 11, "velocity": 69}, {"time": 3174, "pitch": 59, "duration": 1, "velocity": 90}, {"time": 3174, "pitch": 62, "duration": 1, "velocity": 97}, {"time": 3174, "pitch": 66, "duration": 1, "velocity": 93}, {"time": 3177, "pitch": 59, "duration": 1, "velocity": 79}, {"time": 3177, "pitch": 62, "duration": 1, "velocity": 100}, {"time": 3177, "pitch": 66, "duration": 1, "velocity": 77}, {"time": 3180, "pitch": 59, "duration": 1, "velocity": 85}, {"time": 3180, "pitch": 62, "duration": 1, "velocity": 96}, {"time": 3180, "pitch": 66, "duration": 2, "velocity": 83}, {"time": 3183, "pitch": 47, "duration": 11, "velocity": 83}, {"time": 3189, "pitch": 59, "duration": 1, "velocity": 86}, {"time": 3189, "pitch": 62, "duration": 1, "velocity": 97}, {"time": 3189, "pitch": 66, "duration": 1, "velocity": 86}, {"time": 3192, "pitch": 59, "duration": 1, "velocity": 88}, {"time": 3192, "pitch": 62, "duration": 1, "velocity": 96}, {"time": 3192, "pitch": 66, "duration": 1, "velocity": 79}, {"time": 3195, "pitch": 54, "duration": 11, "velocity": 85}, {"time": 3201, "pitch": 59, "duration": 1, "velocity": 85}, {"time": 3201, "pitch": 62, "duration": 1, "velocity": 85}, {"time": 3201, "pitch": 66, "duration": 1, "velocity": 79}, {"time": 3207, "pitch": 47, "duration": 11, "velocity": 77}, {"time": 3213, "pitch": 59, "duration": 1, "velocity": 88}, {"time": 3213, "pitch": 62, "duration": 1, "velocity": 102}, {"time": 3213, "pitch": 66, "duration": 1, "velocity": 93}, {"time": 3216, "pitch": 59, "duration": 2, "velocity": 79}, {"time": 3216, "pitch": 62, "duration": 1, "velocity": 90}, {"time": 3216, "pitch": 66, "duration": 2, "velocity": 79}, {"time": 3219, "pitch": 54, "duration": 3, "velocity": 82}, {"time": 3222, "pitch": 59, "duration": 1, "velocity": 86}, {"time": 3222, "pitch": 62, "duration": 1, "velocity": 97}, {"time": 3222, "pitch": 66, "duration": 1, "velocity": 90}, {"time": 3225, "pitch": 59, "duration": 2, "velocity": 88}, {"time": 3225, "pitch": 62, "duration": 1, "velocity": 95}, {"time": 3225, "pitch": 66, "duration": 2, "velocity": 90}, {"time": 3231, "pitch": 45, "duration": 11, "velocity": 66}, {"time": 3237, "pitch": 57, "duration": 1, "velocity": 88}, {"time": 3237, "pitch": 61, "duration": 1, "velocity": 93}, {"time": 3237, "pitch": 64, "duration": 1, "velocity": 88}, {"time": 3240, "pitch": 57, "duration": 1, "velocity": 72}, {"time": 3240, "pitch": 61, "duration": 1, "velocity": 76}, {"time": 3240, "pitch": 64, "duration": 2, "velocity": 73}, {"time": 3243, "pitch": 52, "duration": 9, "velocity": 97}, {"time": 3249, "pitch": 57, "duration": 1, "velocity": 96}, {"time": 3249, "pitch": 61, "duration": 1, "velocity": 99}, {"time": 3249, "pitch": 64, "duration": 1, "velocity": 92}, {"time": 3255, "pitch": 47, "duration": 11, "velocity": 72}, {"time": 3261, "pitch": 59, "duration": 1, "velocity": 86}, {"time": 3261, "pitch": 62, "duration": 1, "velocity": 90}, {"time": 3261, "pitch": 66, "duration": 1, "velocity": 81}, {"time": 3264, "pitch": 59, "duration": 1, "velocity": 86}, {"time": 3264, "pitch": 62, "duration": 1, "velocity": 93}, {"time": 3264, "pitch": 66, "duration": 1, "velocity": 79}, {"time": 3267, "pitch": 54, "duration": 4, "velocity": 77}, {"time": 3270, "pitch": 59, "duration": 1, "velocity": 82}, {"time": 3270, "pitch": 62, "duration": 1, "velocity": 93}, {"time": 3270, "pitch": 66, "duration": 1, "velocity": 83}, {"time": 3273, "pitch": 59, "duration": 1, "velocity": 92}, {"time": 3273, "pitch": 62, "duration": 1, "velocity": 93}, {"time": 3273, "pitch": 66, "duration": 2, "velocity": 89}, {"time": 3279, "pitch": 40, "duration": 11, "velocity": 85}, {"time": 3285, "pitch": 59, "duration": 1, "velocity": 85}, {"time": 3285, "pitch": 64, "duration": 1, "velocity": 100}, {"time": 3285, "pitch": 67, "duration": 1, "velocity": 88}, {"time": 3288, "pitch": 59, "duration": 2, "velocity": 77}, {"time": 3288, "pitch": 64, "duration": 2, "velocity": 88}, {"time": 3288, "pitch": 67, "duration": 2, "velocity": 81}, {"time": 3291, "pitch": 47, "duration": 9, "velocity": 63}, {"time": 3294, "pitch": 59, "duration": 1, "velocity": 77}, {"time": 3294, "pitch": 64, "duration": 1, "velocity": 95}, {"time": 3294, "pitch": 67, "duration": 1, "velocity": 78}, {"time": 3297, "pitch": 59, "duration": 2, "velocity": 86}, {"time": 3297, "pitch": 64, "duration": 2, "velocity": 95}, {"time": 3297, "pitch": 67, "duration": 2, "velocity": 88}, {"time": 3303, "pitch": 40, "duration": 11, "velocity": 69}, {"time": 3309, "pitch": 59, "duration": 1, "velocity": 78}, {"time": 3309, "pitch": 64, "duration": 1, "velocity": 85}, {"time": 3309, "pitch": 67, "duration": 1, "velocity": 58}, {"time": 3312, "pitch": 59, "duration": 1, "velocity": 75}, {"time": 3312, "pitch": 64, "duration": 2, "velocity": 95}, {"time": 3312, "pitch": 67, "duration": 1, "velocity": 85}, {"time": 3315, "pitch": 47, "duration": 6, "velocity": 63}, {"time": 3318, "pitch": 59, "duration": 1, "velocity": 81}, {"time": 3318, "pitch": 64, "duration": 2, "velocity": 90}, {"time": 3318, "pitch": 67, "duration": 1, "velocity": 83}, {"time": 3321, "pitch": 59, "duration": 2, "velocity": 97}, {"time": 3321, "pitch": 64, "duration": 2, "velocity": 100}, {"time": 3321, "pitch": 67, "duration": 1, "velocity": 93}, {"time": 3327, "pitch": 45, "duration": 7, "velocity": 69}, {"time": 3333, "pitch": 57, "duration": 1, "velocity": 79}, {"time": 3333, "pitch": 61, "duration": 1, "velocity": 88}, {"time": 3333, "pitch": 64, "duration": 1, "velocity": 86}, {"time": 3336, "pitch": 57, "duration": 2, "velocity": 76}, {"time": 3336, "pitch": 61, "duration": 2, "velocity": 83}, {"time": 3336, "pitch": 64, "duration": 2, "velocity": 83}, {"time": 3339, "pitch": 52, "duration": 11, "velocity": 54}, {"time": 3345, "pitch": 57, "duration": 1, "velocity": 89}, {"time": 3345, "pitch": 61, "duration": 1, "velocity": 89}, {"time": 3345, "pitch": 64, "duration": 2, "velocity": 88}, {"time": 3351, "pitch": 47, "duration": 11, "velocity": 65}, {"time": 3357, "pitch": 59, "duration": 1, "velocity": 88}, {"time": 3357, "pitch": 62, "duration": 1, "velocity": 99}, {"time": 3357, "pitch": 66, "duration": 1, "velocity": 92}, {"time": 3360, "pitch": 59, "duration": 2, "velocity": 78}, {"time": 3360, "pitch": 62, "duration": 2, "velocity": 90}, {"time": 3360, "pitch": 66, "duration": 2, "velocity": 83}, {"time": 3363, "pitch": 54, "duration": 10, "velocity": 66}, {"time": 3366, "pitch": 59, "duration": 1, "velocity": 79}, {"time": 3366, "pitch": 62, "duration": 1, "velocity": 88}, {"time": 3366, "pitch": 66, "duration": 1, "velocity": 83}, {"time": 3369, "pitch": 59, "duration": 2, "velocity": 85}, {"time": 3369, "pitch": 62, "duration": 1, "velocity": 92}, {"time": 3369, "pitch": 66, "duration": 1, "velocity": 85}, {"time": 3375, "pitch": 40, "duration": 8, "velocity": 78}, {"time": 3381, "pitch": 59, "duration": 1, "velocity": 89}, {"time": 3381, "pitch": 64, "duration": 1, "velocity": 89}, {"time": 3381, "pitch": 67, "duration": 1, "velocity": 88}, {"time": 3384, "pitch": 59, "duration": 2, "velocity": 74}, {"time": 3384, "pitch": 64, "duration": 1, "velocity": 72}, {"time": 3384, "pitch": 67, "duration": 1, "velocity": 79}, {"time": 3387, "pitch": 47, "duration": 3, "velocity": 77}, {"time": 3393, "pitch": 59, "duration": 1, "velocity": 97}, {"time": 3393, "pitch": 64, "duration": 1, "velocity": 102}, {"time": 3393, "pitch": 67, "duration": 1, "velocity": 102}, {"time": 3399, "pitch": 40, "duration": 10, "velocity": 64}, {"time": 3405, "pitch": 59, "duration": 1, "velocity": 99}, {"time": 3405, "pitch": 64, "duration": 1, "velocity": 112}, {"time": 3405, "pitch": 67, "duration": 1, "velocity": 97}, {"time": 3408, "pitch": 59, "duration": 1, "velocity": 72}, {"time": 3408, "pitch": 64, "duration": 1, "velocity": 85}, {"time": 3408, "pitch": 67, "duration": 1, "velocity": 88}, {"time": 3411, "pitch": 47, "duration": 7, "velocity": 89}, {"time": 3417, "pitch": 59, "duration": 1, "velocity": 100}, {"time": 3417, "pitch": 67, "duration": 1, "velocity": 76}, {"time": 3423, "pitch": 45, "duration": 6, "velocity": 85}, {"time": 3423, "pitch": 52, "duration": 6, "velocity": 89}, {"time": 3423, "pitch": 57, "duration": 6, "velocity": 97}, {"time": 3423, "pitch": 61, "duration": 6, "velocity": 102}, {"time": 3423, "pitch": 64, "duration": 6, "velocity": 102}, {"time": 3471, "pitch": 47, "duration": 11, "velocity": 89}, {"time": 3477, "pitch": 59, "duration": 1, "velocity": 100}, {"time": 3477, "pitch": 62, "duration": 1, "velocity": 107}, {"time": 3477, "pitch": 66, "duration": 1, "velocity": 61}, {"time": 3480, "pitch": 59, "duration": 2, "velocity": 67}, {"time": 3480, "pitch": 62, "duration": 1, "velocity": 62}, {"time": 3480, "pitch": 66, "duration": 1, "velocity": 32}, {"time": 3483, "pitch": 54, "duration": 9, "velocity": 53}, {"time": 3489, "pitch": 59, "duration": 1, "velocity": 97}, {"time": 3489, "pitch": 62, "duration": 1, "velocity": 102}, {"time": 3489, "pitch": 66, "duration": 1, "velocity": 64}, {"time": 3495, "pitch": 47, "duration": 12, "velocity": 75}, {"time": 3501, "pitch": 59, "duration": 1, "velocity": 97}, {"time": 3501, "pitch": 62, "duration": 1, "velocity": 100}, {"time": 3501, "pitch": 66, "duration": 1, "velocity": 42}, {"time": 3504, "pitch": 59, "duration": 1, "velocity": 82}, {"time": 3504, "pitch": 62, "duration": 1, "velocity": 92}, {"time": 3504, "pitch": 66, "duration": 1, "velocity": 75}, {"time": 3507, "pitch": 54, "duration": 7, "velocity": 62}, {"time": 3513, "pitch": 59, "duration": 1, "velocity": 99}, {"time": 3513, "pitch": 62, "duration": 1, "velocity": 102}, {"time": 3513, "pitch": 66, "duration": 1, "velocity": 74}, {"time": 3519, "pitch": 45, "duration": 6, "velocity": 89}, {"time": 3525, "pitch": 57, "duration": 1, "velocity": 95}, {"time": 3525, "pitch": 61, "duration": 1, "velocity": 86}, {"time": 3525, "pitch": 64, "duration": 1, "velocity": 56}, {"time": 3528, "pitch": 57, "duration": 1, "velocity": 75}, {"time": 3528, "pitch": 61, "duration": 1, "velocity": 85}, {"time": 3528, "pitch": 64, "duration": 1, "velocity": 83}, {"time": 3531, "pitch": 52, "duration": 7, "velocity": 59}, {"time": 3537, "pitch": 57, "duration": 1, "velocity": 97}, {"time": 3537, "pitch": 61, "duration": 1, "velocity": 102}, {"time": 3537, "pitch": 64, "duration": 1, "velocity": 99}, {"time": 3543, "pitch": 45, "duration": 8, "velocity": 70}, {"time": 3549, "pitch": 57, "duration": 1, "velocity": 88}, {"time": 3549, "pitch": 61, "duration": 1, "velocity": 92}, {"time": 3549, "pitch": 64, "duration": 1, "velocity": 83}, {"time": 3552, "pitch": 57, "duration": 1, "velocity": 75}, {"time": 3552, "pitch": 61, "duration": 1, "velocity": 83}, {"time": 3552, "pitch": 64, "duration": 1, "velocity": 75}, {"time": 3555, "pitch": 52, "duration": 7, "velocity": 70}, {"time": 3561, "pitch": 57, "duration": 1, "velocity": 99}, {"time": 3561, "pitch": 61, "duration": 1, "velocity": 99}, {"time": 3561, "pitch": 64, "duration": 1, "velocity": 69}, {"time": 3567, "pitch": 47, "duration": 17, "velocity": 97}, {"time": 3567, "pitch": 59, "duration": 43, "velocity": 107}, {"time": 3567, "pitch": 62, "duration": 43, "velocity": 102}, {"time": 3567, "pitch": 66, "duration": 43, "velocity": 76}], "annotations": [{"time": 354, "annotation": {"number": 64, "value": 127}, "group": "control_change"}, {"time": 359, "annotation": {"number": 64, "value": 0}, "group": "control_change"}, {"time": 1314, "annotation": {"number": 64, "value": 127}, "group": "control_change"}, {"time": 1319, "annotation": {"number": 64, "value": 0}, "group": "control_change"}]}]}