{"metadata": {"schema_version": "0.2", "title": "None", "source_filename": "733.mid", "source_format": "midi"}, "resolution": 12, "tempos": [{"time": 0, "qpm": 72.00002880001152}], "key_signatures": [{"time": 0, "root": 0, "mode": "major"}], "time_signatures": [{"time": 0, "numerator": 1, "denominator": 4}], "tracks": [{"program": 0, "is_drum": false, "name": "MELODY", "notes": [{"time": 500, "pitch": 72, "duration": 2, "velocity": 81}, {"time": 503, "pitch": 72, "duration": 2, "velocity": 82}, {"time": 506, "pitch": 72, "duration": 4, "velocity": 93}, {"time": 512, "pitch": 70, "duration": 2, "velocity": 72}, {"time": 515, "pitch": 72, "duration": 3, "velocity": 96}, {"time": 521, "pitch": 67, "duration": 2, "velocity": 77}, {"time": 527, "pitch": 67, "duration": 2, "velocity": 83}, {"time": 530, "pitch": 65, "duration": 5, "velocity": 81}, {"time": 536, "pitch": 63, "duration": 4, "velocity": 85}, {"time": 542, "pitch": 67, "duration": 17, "velocity": 93}, {"time": 596, "pitch": 72, "duration": 2, "velocity": 100}, {"time": 599, "pitch": 72, "duration": 2, "velocity": 77}, {"time": 602, "pitch": 72, "duration": 3, "velocity": 100}, {"time": 608, "pitch": 72, "duration": 2, "velocity": 93}, {"time": 611, "pitch": 70, "duration": 2, "velocity": 88}, {"time": 614, "pitch": 72, "duration": 3, "velocity": 95}, {"time": 620, "pitch": 60, "duration": 3, "velocity": 90}, {"time": 626, "pitch": 60, "duration": 3, "velocity": 92}, {"time": 632, "pitch": 63, "duration": 1, "velocity": 79}, {"time": 635, "pitch": 67, "duration": 4, "velocity": 81}, {"time": 644, "pitch": 65, "duration": 7, "velocity": 77}, {"time": 692, "pitch": 65, "duration": 1, "velocity": 93}, {"time": 695, "pitch": 65, "duration": 1, "velocity": 75}, {"time": 698, "pitch": 65, "duration": 4, "velocity": 86}, {"time": 704, "pitch": 65, "duration": 2, "velocity": 68}, {"time": 710, "pitch": 65, "duration": 3, "velocity": 78}, {"time": 716, "pitch": 63, "duration": 3, "velocity": 89}, {"time": 722, "pitch": 63, "duration": 4, "velocity": 107}, {"time": 728, "pitch": 70, "duration": 2, "velocity": 107}, {"time": 731, "pitch": 65, "duration": 2, "velocity": 88}, {"time": 734, "pitch": 67, "duration": 15, "velocity": 97}, {"time": 776, "pitch": 60, "duration": 2, "velocity": 96}, {"time": 779, "pitch": 63, "duration": 2, "velocity": 92}, {"time": 782, "pitch": 65, "duration": 14, "velocity": 96}, {"time": 800, "pitch": 65, "duration": 2, "velocity": 86}, {"time": 803, "pitch": 67, "duration": 2, "velocity": 85}, {"time": 806, "pitch": 70, "duration": 3, "velocity": 86}, {"time": 812, "pitch": 67, "duration": 4, "velocity": 88}, {"time": 818, "pitch": 67, "duration": 3, "velocity": 99}, {"time": 821, "pitch": 65, "duration": 4, "velocity": 79}, {"time": 827, "pitch": 63, "duration": 4, "velocity": 79}, {"time": 836, "pitch": 60, "duration": 19, "velocity": 74}, {"time": 884, "pitch": 72, "duration": 2, "velocity": 89}, {"time": 887, "pitch": 70, "duration": 2, "velocity": 86}, {"time": 890, "pitch": 72, "duration": 2, "velocity": 96}, {"time": 896, "pitch": 72, "duration": 2, "velocity": 99}, {"time": 899, "pitch": 70, "duration": 2, "velocity": 95}, {"time": 902, "pitch": 72, "duration": 4, "velocity": 100}, {"time": 908, "pitch": 67, "duration": 2, "velocity": 86}, {"time": 911, "pitch": 67, "duration": 1, "velocity": 89}, {"time": 914, "pitch": 67, "duration": 3, "velocity": 99}, {"time": 920, "pitch": 65, "duration": 2, "velocity": 93}, {"time": 923, "pitch": 63, "duration": 3, "velocity": 99}, {"time": 929, "pitch": 67, "duration": 14, "velocity": 97}, {"time": 980, "pitch": 72, "duration": 2, "velocity": 88}, {"time": 983, "pitch": 70, "duration": 2, "velocity": 81}, {"time": 986, "pitch": 72, "duration": 2, "velocity": 95}, {"time": 992, "pitch": 72, "duration": 3, "velocity": 90}, {"time": 995, "pitch": 70, "duration": 2, "velocity": 89}, {"time": 998, "pitch": 72, "duration": 2, "velocity": 97}, {"time": 1004, "pitch": 60, "duration": 1, "velocity": 93}, {"time": 1007, "pitch": 60, "duration": 2, "velocity": 78}, {"time": 1010, "pitch": 60, "duration": 3, "velocity": 85}, {"time": 1013, "pitch": 70, "duration": 3, "velocity": 93}, {"time": 1019, "pitch": 67, "duration": 4, "velocity": 92}, {"time": 1022, "pitch": 65, "duration": 20, "velocity": 76}, {"time": 1076, "pitch": 65, "duration": 2, "velocity": 99}, {"time": 1079, "pitch": 65, "duration": 1, "velocity": 76}, {"time": 1082, "pitch": 65, "duration": 3, "velocity": 95}, {"time": 1088, "pitch": 65, "duration": 4, "velocity": 102}, {"time": 1094, "pitch": 65, "duration": 3, "velocity": 102}, {"time": 1100, "pitch": 63, "duration": 4, "velocity": 90}, {"time": 1106, "pitch": 63, "duration": 6, "velocity": 97}, {"time": 1112, "pitch": 60, "duration": 4, "velocity": 88}, {"time": 1118, "pitch": 70, "duration": 4, "velocity": 117}, {"time": 1127, "pitch": 67, "duration": 19, "velocity": 96}, {"time": 1160, "pitch": 60, "duration": 2, "velocity": 92}, {"time": 1163, "pitch": 63, "duration": 3, "velocity": 79}, {"time": 1166, "pitch": 65, "duration": 4, "velocity": 89}, {"time": 1172, "pitch": 65, "duration": 10, "velocity": 97}, {"time": 1187, "pitch": 67, "duration": 2, "velocity": 79}, {"time": 1190, "pitch": 70, "duration": 4, "velocity": 93}, {"time": 1196, "pitch": 67, "duration": 2, "velocity": 89}, {"time": 1202, "pitch": 67, "duration": 4, "velocity": 96}, {"time": 1208, "pitch": 65, "duration": 3, "velocity": 97}, {"time": 1214, "pitch": 67, "duration": 4, "velocity": 95}, {"time": 1220, "pitch": 60, "duration": 17, "velocity": 81}, {"time": 1262, "pitch": 72, "duration": 4, "velocity": 112}, {"time": 1268, "pitch": 79, "duration": 1, "velocity": 97}, {"time": 1271, "pitch": 79, "duration": 1, "velocity": 83}, {"time": 1274, "pitch": 79, "duration": 3, "velocity": 99}, {"time": 1280, "pitch": 72, "duration": 4, "velocity": 107}, {"time": 1286, "pitch": 77, "duration": 14, "velocity": 127}, {"time": 1310, "pitch": 72, "duration": 3, "velocity": 107}, {"time": 1316, "pitch": 77, "duration": 1, "velocity": 107}, {"time": 1319, "pitch": 77, "duration": 1, "velocity": 92}, {"time": 1322, "pitch": 77, "duration": 3, "velocity": 100}, {"time": 1328, "pitch": 72, "duration": 3, "velocity": 100}, {"time": 1334, "pitch": 75, "duration": 2, "velocity": 127}, {"time": 1337, "pitch": 72, "duration": 10, "velocity": 99}, {"time": 1358, "pitch": 70, "duration": 3, "velocity": 117}, {"time": 1364, "pitch": 70, "duration": 2, "velocity": 97}, {"time": 1370, "pitch": 70, "duration": 2, "velocity": 102}, {"time": 1376, "pitch": 70, "duration": 2, "velocity": 127}, {"time": 1379, "pitch": 72, "duration": 1, "velocity": 92}, {"time": 1382, "pitch": 75, "duration": 5, "velocity": 117}, {"time": 1391, "pitch": 77, "duration": 2, "velocity": 96}, {"time": 1394, "pitch": 75, "duration": 6, "velocity": 112}, {"time": 1406, "pitch": 77, "duration": 1, "velocity": 102}, {"time": 1409, "pitch": 77, "duration": 2, "velocity": 93}, {"time": 1415, "pitch": 77, "duration": 1, "velocity": 95}, {"time": 1418, "pitch": 77, "duration": 1, "velocity": 99}, {"time": 1422, "pitch": 75, "duration": 1, "velocity": 122}, {"time": 1426, "pitch": 79, "duration": 1, "velocity": 100}, {"time": 1430, "pitch": 77, "duration": 10, "velocity": 127}, {"time": 1454, "pitch": 72, "duration": 4, "velocity": 112}, {"time": 1460, "pitch": 79, "duration": 1, "velocity": 97}, {"time": 1463, "pitch": 79, "duration": 1, "velocity": 83}, {"time": 1466, "pitch": 79, "duration": 3, "velocity": 99}, {"time": 1472, "pitch": 72, "duration": 4, "velocity": 107}, {"time": 1478, "pitch": 77, "duration": 14, "velocity": 127}, {"time": 1502, "pitch": 72, "duration": 3, "velocity": 107}, {"time": 1508, "pitch": 77, "duration": 1, "velocity": 107}, {"time": 1511, "pitch": 77, "duration": 1, "velocity": 92}, {"time": 1514, "pitch": 77, "duration": 3, "velocity": 100}, {"time": 1520, "pitch": 72, "duration": 3, "velocity": 100}, {"time": 1526, "pitch": 75, "duration": 2, "velocity": 127}, {"time": 1529, "pitch": 72, "duration": 10, "velocity": 99}, {"time": 1550, "pitch": 70, "duration": 3, "velocity": 117}, {"time": 1553, "pitch": 70, "duration": 2, "velocity": 107}, {"time": 1559, "pitch": 70, "duration": 2, "velocity": 117}, {"time": 1562, "pitch": 70, "duration": 2, "velocity": 102}, {"time": 1568, "pitch": 72, "duration": 6, "velocity": 92}, {"time": 1574, "pitch": 75, "duration": 3, "velocity": 117}, {"time": 1577, "pitch": 75, "duration": 3, "velocity": 102}, {"time": 1583, "pitch": 77, "duration": 2, "velocity": 95}, {"time": 1586, "pitch": 75, "duration": 6, "velocity": 112}, {"time": 1598, "pitch": 77, "duration": 1, "velocity": 112}, {"time": 1601, "pitch": 77, "duration": 1, "velocity": 83}, {"time": 1604, "pitch": 77, "duration": 2, "velocity": 96}, {"time": 1607, "pitch": 79, "duration": 2, "velocity": 97}, {"time": 1610, "pitch": 77, "duration": 2, "velocity": 112}, {"time": 1616, "pitch": 75, "duration": 2, "velocity": 107}, {"time": 1619, "pitch": 70, "duration": 2, "velocity": 86}, {"time": 1625, "pitch": 75, "duration": 4, "velocity": 107}, {"time": 1628, "pitch": 72, "duration": 25, "velocity": 68}, {"time": 2036, "pitch": 72, "duration": 2, "velocity": 89}, {"time": 2039, "pitch": 70, "duration": 2, "velocity": 86}, {"time": 2042, "pitch": 72, "duration": 2, "velocity": 96}, {"time": 2048, "pitch": 72, "duration": 2, "velocity": 99}, {"time": 2051, "pitch": 70, "duration": 2, "velocity": 95}, {"time": 2054, "pitch": 72, "duration": 4, "velocity": 100}, {"time": 2060, "pitch": 67, "duration": 2, "velocity": 86}, {"time": 2063, "pitch": 67, "duration": 1, "velocity": 89}, {"time": 2066, "pitch": 67, "duration": 3, "velocity": 99}, {"time": 2072, "pitch": 65, "duration": 2, "velocity": 93}, {"time": 2075, "pitch": 63, "duration": 3, "velocity": 99}, {"time": 2081, "pitch": 67, "duration": 14, "velocity": 97}, {"time": 2132, "pitch": 72, "duration": 2, "velocity": 88}, {"time": 2135, "pitch": 70, "duration": 2, "velocity": 81}, {"time": 2138, "pitch": 72, "duration": 2, "velocity": 95}, {"time": 2144, "pitch": 72, "duration": 3, "velocity": 90}, {"time": 2147, "pitch": 70, "duration": 2, "velocity": 89}, {"time": 2150, "pitch": 72, "duration": 2, "velocity": 97}, {"time": 2156, "pitch": 60, "duration": 1, "velocity": 93}, {"time": 2159, "pitch": 60, "duration": 2, "velocity": 78}, {"time": 2162, "pitch": 60, "duration": 3, "velocity": 85}, {"time": 2165, "pitch": 70, "duration": 3, "velocity": 93}, {"time": 2171, "pitch": 67, "duration": 4, "velocity": 92}, {"time": 2174, "pitch": 65, "duration": 20, "velocity": 76}, {"time": 2228, "pitch": 65, "duration": 2, "velocity": 99}, {"time": 2231, "pitch": 65, "duration": 1, "velocity": 76}, {"time": 2234, "pitch": 65, "duration": 3, "velocity": 95}, {"time": 2240, "pitch": 65, "duration": 4, "velocity": 102}, {"time": 2246, "pitch": 65, "duration": 3, "velocity": 102}, {"time": 2252, "pitch": 63, "duration": 4, "velocity": 90}, {"time": 2258, "pitch": 63, "duration": 6, "velocity": 97}, {"time": 2264, "pitch": 60, "duration": 4, "velocity": 88}, {"time": 2270, "pitch": 70, "duration": 4, "velocity": 117}, {"time": 2279, "pitch": 67, "duration": 19, "velocity": 96}, {"time": 2312, "pitch": 60, "duration": 2, "velocity": 92}, {"time": 2315, "pitch": 63, "duration": 3, "velocity": 79}, {"time": 2318, "pitch": 65, "duration": 4, "velocity": 89}, {"time": 2324, "pitch": 65, "duration": 10, "velocity": 97}, {"time": 2339, "pitch": 67, "duration": 2, "velocity": 79}, {"time": 2342, "pitch": 70, "duration": 4, "velocity": 93}, {"time": 2348, "pitch": 67, "duration": 2, "velocity": 89}, {"time": 2354, "pitch": 67, "duration": 4, "velocity": 96}, {"time": 2360, "pitch": 65, "duration": 3, "velocity": 97}, {"time": 2366, "pitch": 67, "duration": 4, "velocity": 95}, {"time": 2372, "pitch": 60, "duration": 17, "velocity": 81}, {"time": 2414, "pitch": 72, "duration": 4, "velocity": 112}, {"time": 2420, "pitch": 79, "duration": 1, "velocity": 97}, {"time": 2423, "pitch": 79, "duration": 1, "velocity": 83}, {"time": 2426, "pitch": 79, "duration": 3, "velocity": 99}, {"time": 2432, "pitch": 72, "duration": 4, "velocity": 107}, {"time": 2438, "pitch": 77, "duration": 14, "velocity": 127}, {"time": 2462, "pitch": 72, "duration": 3, "velocity": 107}, {"time": 2468, "pitch": 77, "duration": 1, "velocity": 107}, {"time": 2471, "pitch": 77, "duration": 1, "velocity": 92}, {"time": 2474, "pitch": 77, "duration": 3, "velocity": 100}, {"time": 2480, "pitch": 72, "duration": 3, "velocity": 100}, {"time": 2486, "pitch": 75, "duration": 2, "velocity": 127}, {"time": 2489, "pitch": 72, "duration": 10, "velocity": 99}, {"time": 2510, "pitch": 70, "duration": 3, "velocity": 117}, {"time": 2516, "pitch": 70, "duration": 2, "velocity": 97}, {"time": 2522, "pitch": 70, "duration": 2, "velocity": 102}, {"time": 2528, "pitch": 70, "duration": 2, "velocity": 127}, {"time": 2531, "pitch": 72, "duration": 1, "velocity": 92}, {"time": 2534, "pitch": 75, "duration": 5, "velocity": 117}, {"time": 2543, "pitch": 77, "duration": 2, "velocity": 96}, {"time": 2546, "pitch": 75, "duration": 6, "velocity": 112}, {"time": 2558, "pitch": 77, "duration": 1, "velocity": 102}, {"time": 2561, "pitch": 77, "duration": 2, "velocity": 93}, {"time": 2567, "pitch": 77, "duration": 1, "velocity": 95}, {"time": 2570, "pitch": 77, "duration": 1, "velocity": 99}, {"time": 2574, "pitch": 75, "duration": 1, "velocity": 122}, {"time": 2578, "pitch": 79, "duration": 1, "velocity": 100}, {"time": 2582, "pitch": 77, "duration": 10, "velocity": 127}, {"time": 2606, "pitch": 72, "duration": 4, "velocity": 112}, {"time": 2612, "pitch": 79, "duration": 1, "velocity": 97}, {"time": 2615, "pitch": 79, "duration": 1, "velocity": 83}, {"time": 2618, "pitch": 79, "duration": 3, "velocity": 99}, {"time": 2624, "pitch": 72, "duration": 4, "velocity": 107}, {"time": 2630, "pitch": 77, "duration": 14, "velocity": 127}, {"time": 2654, "pitch": 72, "duration": 3, "velocity": 107}, {"time": 2660, "pitch": 77, "duration": 1, "velocity": 107}, {"time": 2663, "pitch": 77, "duration": 1, "velocity": 92}, {"time": 2666, "pitch": 77, "duration": 3, "velocity": 100}, {"time": 2672, "pitch": 72, "duration": 3, "velocity": 100}, {"time": 2678, "pitch": 75, "duration": 2, "velocity": 127}, {"time": 2681, "pitch": 72, "duration": 10, "velocity": 99}, {"time": 2702, "pitch": 70, "duration": 3, "velocity": 117}, {"time": 2705, "pitch": 70, "duration": 2, "velocity": 107}, {"time": 2711, "pitch": 70, "duration": 2, "velocity": 117}, {"time": 2714, "pitch": 70, "duration": 2, "velocity": 102}, {"time": 2720, "pitch": 72, "duration": 6, "velocity": 92}, {"time": 2726, "pitch": 75, "duration": 3, "velocity": 117}, {"time": 2729, "pitch": 75, "duration": 3, "velocity": 102}, {"time": 2735, "pitch": 77, "duration": 2, "velocity": 95}, {"time": 2738, "pitch": 75, "duration": 6, "velocity": 112}, {"time": 2750, "pitch": 77, "duration": 1, "velocity": 112}, {"time": 2753, "pitch": 77, "duration": 1, "velocity": 83}, {"time": 2756, "pitch": 77, "duration": 2, "velocity": 96}, {"time": 2759, "pitch": 79, "duration": 2, "velocity": 97}, {"time": 2762, "pitch": 77, "duration": 2, "velocity": 112}, {"time": 2768, "pitch": 75, "duration": 2, "velocity": 107}, {"time": 2771, "pitch": 70, "duration": 2, "velocity": 86}, {"time": 2776, "pitch": 75, "duration": 3, "velocity": 107}, {"time": 2778, "pitch": 72, "duration": 17, "velocity": 103}, {"time": 2798, "pitch": 72, "duration": 4, "velocity": 112}, {"time": 2804, "pitch": 79, "duration": 1, "velocity": 97}, {"time": 2807, "pitch": 79, "duration": 1, "velocity": 83}, {"time": 2810, "pitch": 79, "duration": 3, "velocity": 99}, {"time": 2816, "pitch": 72, "duration": 4, "velocity": 107}, {"time": 2822, "pitch": 77, "duration": 14, "velocity": 127}, {"time": 2846, "pitch": 72, "duration": 3, "velocity": 107}, {"time": 2852, "pitch": 77, "duration": 1, "velocity": 107}, {"time": 2855, "pitch": 77, "duration": 1, "velocity": 92}, {"time": 2858, "pitch": 77, "duration": 3, "velocity": 100}, {"time": 2864, "pitch": 72, "duration": 3, "velocity": 100}, {"time": 2870, "pitch": 75, "duration": 2, "velocity": 127}, {"time": 2873, "pitch": 72, "duration": 10, "velocity": 99}, {"time": 2894, "pitch": 70, "duration": 3, "velocity": 117}, {"time": 2900, "pitch": 70, "duration": 2, "velocity": 97}, {"time": 2906, "pitch": 70, "duration": 2, "velocity": 102}, {"time": 2912, "pitch": 70, "duration": 2, "velocity": 127}, {"time": 2915, "pitch": 72, "duration": 1, "velocity": 92}, {"time": 2918, "pitch": 75, "duration": 5, "velocity": 117}, {"time": 2927, "pitch": 77, "duration": 2, "velocity": 96}, {"time": 2930, "pitch": 75, "duration": 6, "velocity": 112}, {"time": 2942, "pitch": 77, "duration": 1, "velocity": 102}, {"time": 2945, "pitch": 77, "duration": 2, "velocity": 93}, {"time": 2951, "pitch": 77, "duration": 1, "velocity": 95}, {"time": 2954, "pitch": 77, "duration": 1, "velocity": 99}, {"time": 2958, "pitch": 75, "duration": 1, "velocity": 122}, {"time": 2962, "pitch": 79, "duration": 1, "velocity": 100}, {"time": 2966, "pitch": 77, "duration": 10, "velocity": 127}, {"time": 2990, "pitch": 72, "duration": 4, "velocity": 112}, {"time": 2996, "pitch": 79, "duration": 1, "velocity": 97}, {"time": 2999, "pitch": 79, "duration": 1, "velocity": 83}, {"time": 3002, "pitch": 79, "duration": 3, "velocity": 99}, {"time": 3008, "pitch": 72, "duration": 4, "velocity": 107}, {"time": 3014, "pitch": 77, "duration": 14, "velocity": 127}, {"time": 3038, "pitch": 72, "duration": 3, "velocity": 107}, {"time": 3044, "pitch": 77, "duration": 1, "velocity": 107}, {"time": 3047, "pitch": 77, "duration": 1, "velocity": 92}, {"time": 3050, "pitch": 77, "duration": 3, "velocity": 100}, {"time": 3056, "pitch": 72, "duration": 3, "velocity": 100}, {"time": 3062, "pitch": 75, "duration": 2, "velocity": 127}, {"time": 3065, "pitch": 72, "duration": 10, "velocity": 99}, {"time": 3086, "pitch": 70, "duration": 3, "velocity": 117}, {"time": 3089, "pitch": 70, "duration": 2, "velocity": 107}, {"time": 3095, "pitch": 70, "duration": 2, "velocity": 117}, {"time": 3098, "pitch": 70, "duration": 2, "velocity": 102}, {"time": 3104, "pitch": 72, "duration": 6, "velocity": 92}, {"time": 3110, "pitch": 75, "duration": 3, "velocity": 117}, {"time": 3113, "pitch": 75, "duration": 3, "velocity": 102}, {"time": 3119, "pitch": 77, "duration": 2, "velocity": 95}, {"time": 3122, "pitch": 75, "duration": 6, "velocity": 112}, {"time": 3134, "pitch": 77, "duration": 1, "velocity": 112}, {"time": 3137, "pitch": 77, "duration": 1, "velocity": 83}, {"time": 3140, "pitch": 77, "duration": 2, "velocity": 96}, {"time": 3143, "pitch": 79, "duration": 2, "velocity": 97}, {"time": 3146, "pitch": 77, "duration": 2, "velocity": 112}, {"time": 3152, "pitch": 75, "duration": 2, "velocity": 107}, {"time": 3155, "pitch": 70, "duration": 2, "velocity": 86}, {"time": 3158, "pitch": 75, "duration": 4, "velocity": 107}, {"time": 3162, "pitch": 72, "duration": 25, "velocity": 103}, {"time": 3206, "pitch": 77, "duration": 4, "velocity": 97}, {"time": 3212, "pitch": 77, "duration": 4, "velocity": 95}, {"time": 3218, "pitch": 77, "duration": 5, "velocity": 112}, {"time": 3224, "pitch": 79, "duration": 5, "velocity": 97}, {"time": 3233, "pitch": 77, "duration": 8, "velocity": 102}, {"time": 3242, "pitch": 75, "duration": 6, "velocity": 96}, {"time": 3251, "pitch": 70, "duration": 19, "velocity": 99}, {"time": 3280, "pitch": 72, "duration": 43, "velocity": 100}]}, {"program": 0, "is_drum": false, "name": "BRIDGE", "notes": [{"time": 44, "pitch": 67, "duration": 7, "velocity": 77}, {"time": 50, "pitch": 65, "duration": 4, "velocity": 66}, {"time": 53, "pitch": 67, "duration": 4, "velocity": 58}, {"time": 56, "pitch": 70, "duration": 26, "velocity": 72}, {"time": 92, "pitch": 67, "duration": 6, "velocity": 77}, {"time": 98, "pitch": 65, "duration": 4, "velocity": 66}, {"time": 101, "pitch": 67, "duration": 3, "velocity": 76}, {"time": 104, "pitch": 70, "duration": 6, "velocity": 88}, {"time": 110, "pitch": 72, "duration": 5, "velocity": 96}, {"time": 116, "pitch": 79, "duration": 5, "velocity": 86}, {"time": 122, "pitch": 79, "duration": 5, "velocity": 89}, {"time": 128, "pitch": 72, "duration": 3, "velocity": 86}, {"time": 131, "pitch": 75, "duration": 4, "velocity": 89}, {"time": 134, "pitch": 77, "duration": 22, "velocity": 92}, {"time": 158, "pitch": 77, "duration": 9, "velocity": 97}, {"time": 167, "pitch": 79, "duration": 5, "velocity": 76}, {"time": 170, "pitch": 77, "duration": 5, "velocity": 72}, {"time": 176, "pitch": 75, "duration": 4, "velocity": 83}, {"time": 179, "pitch": 72, "duration": 3, "velocity": 73}, {"time": 182, "pitch": 75, "duration": 20, "velocity": 93}, {"time": 206, "pitch": 67, "duration": 9, "velocity": 86}, {"time": 215, "pitch": 70, "duration": 2, "velocity": 71}, {"time": 218, "pitch": 70, "duration": 7, "velocity": 95}, {"time": 224, "pitch": 67, "duration": 3, "velocity": 83}, {"time": 227, "pitch": 70, "duration": 4, "velocity": 89}, {"time": 230, "pitch": 72, "duration": 12, "velocity": 88}, {"time": 239, "pitch": 75, "duration": 3, "velocity": 100}, {"time": 242, "pitch": 72, "duration": 11, "velocity": 86}, {"time": 254, "pitch": 77, "duration": 4, "velocity": 88}, {"time": 260, "pitch": 77, "duration": 2, "velocity": 73}, {"time": 263, "pitch": 75, "duration": 4, "velocity": 59}, {"time": 266, "pitch": 77, "duration": 6, "velocity": 83}, {"time": 272, "pitch": 79, "duration": 6, "velocity": 79}, {"time": 278, "pitch": 77, "duration": 19, "velocity": 73}, {"time": 302, "pitch": 72, "duration": 5, "velocity": 95}, {"time": 308, "pitch": 79, "duration": 4, "velocity": 86}, {"time": 314, "pitch": 79, "duration": 6, "velocity": 93}, {"time": 320, "pitch": 72, "duration": 3, "velocity": 88}, {"time": 323, "pitch": 75, "duration": 4, "velocity": 69}, {"time": 326, "pitch": 77, "duration": 15, "velocity": 97}, {"time": 350, "pitch": 77, "duration": 9, "velocity": 92}, {"time": 359, "pitch": 79, "duration": 4, "velocity": 89}, {"time": 362, "pitch": 77, "duration": 6, "velocity": 81}, {"time": 368, "pitch": 75, "duration": 3, "velocity": 71}, {"time": 371, "pitch": 72, "duration": 2, "velocity": 82}, {"time": 374, "pitch": 72, "duration": 20, "velocity": 82}, {"time": 398, "pitch": 67, "duration": 9, "velocity": 92}, {"time": 407, "pitch": 70, "duration": 1, "velocity": 81}, {"time": 410, "pitch": 70, "duration": 7, "velocity": 89}, {"time": 416, "pitch": 67, "duration": 3, "velocity": 75}, {"time": 419, "pitch": 70, "duration": 3, "velocity": 92}, {"time": 422, "pitch": 72, "duration": 6, "velocity": 88}, {"time": 428, "pitch": 72, "duration": 3, "velocity": 100}, {"time": 431, "pitch": 75, "duration": 3, "velocity": 83}, {"time": 434, "pitch": 72, "duration": 9, "velocity": 93}, {"time": 446, "pitch": 77, "duration": 4, "velocity": 95}, {"time": 452, "pitch": 77, "duration": 4, "velocity": 65}, {"time": 455, "pitch": 75, "duration": 4, "velocity": 73}, {"time": 458, "pitch": 74, "duration": 5, "velocity": 75}, {"time": 464, "pitch": 70, "duration": 5, "velocity": 72}, {"time": 470, "pitch": 72, "duration": 11, "velocity": 85}, {"time": 482, "pitch": 62, "duration": 3, "velocity": 81}, {"time": 485, "pitch": 63, "duration": 3, "velocity": 73}, {"time": 488, "pitch": 62, "duration": 3, "velocity": 55}, {"time": 491, "pitch": 58, "duration": 4, "velocity": 56}, {"time": 494, "pitch": 60, "duration": 22, "velocity": 72}, {"time": 560, "pitch": 63, "duration": 6, "velocity": 74}, {"time": 566, "pitch": 67, "duration": 8, "velocity": 73}, {"time": 578, "pitch": 53, "duration": 4, "velocity": 58}, {"time": 581, "pitch": 55, "duration": 4, "velocity": 69}, {"time": 584, "pitch": 58, "duration": 7, "velocity": 74}, {"time": 590, "pitch": 60, "duration": 24, "velocity": 66}, {"time": 656, "pitch": 63, "duration": 3, "velocity": 97}, {"time": 659, "pitch": 67, "duration": 3, "velocity": 71}, {"time": 662, "pitch": 65, "duration": 8, "velocity": 88}, {"time": 674, "pitch": 63, "duration": 3, "velocity": 97}, {"time": 677, "pitch": 65, "duration": 4, "velocity": 66}, {"time": 680, "pitch": 63, "duration": 4, "velocity": 92}, {"time": 683, "pitch": 60, "duration": 4, "velocity": 61}, {"time": 686, "pitch": 62, "duration": 16, "velocity": 70}, {"time": 752, "pitch": 63, "duration": 4, "velocity": 76}, {"time": 755, "pitch": 65, "duration": 4, "velocity": 51}, {"time": 758, "pitch": 67, "duration": 6, "velocity": 69}, {"time": 770, "pitch": 53, "duration": 3, "velocity": 59}, {"time": 773, "pitch": 55, "duration": 3, "velocity": 59}, {"time": 776, "pitch": 58, "duration": 7, "velocity": 68}, {"time": 782, "pitch": 56, "duration": 16, "velocity": 63}, {"time": 836, "pitch": 55, "duration": 4, "velocity": 70}, {"time": 842, "pitch": 63, "duration": 4, "velocity": 92}, {"time": 845, "pitch": 62, "duration": 3, "velocity": 59}, {"time": 848, "pitch": 60, "duration": 4, "velocity": 68}, {"time": 851, "pitch": 58, "duration": 3, "velocity": 73}, {"time": 854, "pitch": 60, "duration": 11, "velocity": 63}, {"time": 866, "pitch": 53, "duration": 3, "velocity": 65}, {"time": 869, "pitch": 55, "duration": 3, "velocity": 40}, {"time": 872, "pitch": 53, "duration": 3, "velocity": 53}, {"time": 875, "pitch": 48, "duration": 4, "velocity": 51}, {"time": 878, "pitch": 51, "duration": 10, "velocity": 61}, {"time": 938, "pitch": 67, "duration": 7, "velocity": 76}, {"time": 944, "pitch": 70, "duration": 4, "velocity": 69}, {"time": 947, "pitch": 72, "duration": 4, "velocity": 69}, {"time": 950, "pitch": 70, "duration": 12, "velocity": 74}, {"time": 962, "pitch": 67, "duration": 6, "velocity": 75}, {"time": 968, "pitch": 65, "duration": 6, "velocity": 72}, {"time": 974, "pitch": 67, "duration": 22, "velocity": 77}, {"time": 1037, "pitch": 63, "duration": 4, "velocity": 85}, {"time": 1040, "pitch": 65, "duration": 4, "velocity": 64}, {"time": 1043, "pitch": 67, "duration": 4, "velocity": 72}, {"time": 1046, "pitch": 65, "duration": 10, "velocity": 72}, {"time": 1058, "pitch": 70, "duration": 7, "velocity": 100}, {"time": 1064, "pitch": 65, "duration": 6, "velocity": 64}, {"time": 1070, "pitch": 62, "duration": 26, "velocity": 77}, {"time": 1130, "pitch": 70, "duration": 5, "velocity": 100}, {"time": 1136, "pitch": 72, "duration": 5, "velocity": 89}, {"time": 1142, "pitch": 74, "duration": 10, "velocity": 117}, {"time": 1154, "pitch": 72, "duration": 4, "velocity": 82}, {"time": 1157, "pitch": 75, "duration": 4, "velocity": 61}, {"time": 1160, "pitch": 77, "duration": 4, "velocity": 61}, {"time": 1163, "pitch": 79, "duration": 4, "velocity": 69}, {"time": 1166, "pitch": 77, "duration": 20, "velocity": 83}, {"time": 1226, "pitch": 63, "duration": 3, "velocity": 102}, {"time": 1229, "pitch": 62, "duration": 4, "velocity": 70}, {"time": 1232, "pitch": 60, "duration": 3, "velocity": 88}, {"time": 1235, "pitch": 58, "duration": 3, "velocity": 86}, {"time": 1238, "pitch": 60, "duration": 3, "velocity": 88}, {"time": 1250, "pitch": 67, "duration": 3, "velocity": 100}, {"time": 1253, "pitch": 65, "duration": 4, "velocity": 63}, {"time": 1256, "pitch": 67, "duration": 3, "velocity": 79}, {"time": 1259, "pitch": 70, "duration": 2, "velocity": 93}, {"time": 1262, "pitch": 72, "duration": 24, "velocity": 99}, {"time": 1292, "pitch": 72, "duration": 6, "velocity": 89}, {"time": 1298, "pitch": 75, "duration": 6, "velocity": 96}, {"time": 1304, "pitch": 79, "duration": 7, "velocity": 82}, {"time": 1310, "pitch": 77, "duration": 21, "velocity": 83}, {"time": 1340, "pitch": 75, "duration": 6, "velocity": 122}, {"time": 1346, "pitch": 74, "duration": 6, "velocity": 102}, {"time": 1352, "pitch": 72, "duration": 6, "velocity": 78}, {"time": 1358, "pitch": 70, "duration": 23, "velocity": 96}, {"time": 1433, "pitch": 67, "duration": 3, "velocity": 78}, {"time": 1436, "pitch": 70, "duration": 3, "velocity": 78}, {"time": 1439, "pitch": 67, "duration": 2, "velocity": 92}, {"time": 1442, "pitch": 70, "duration": 3, "velocity": 92}, {"time": 1445, "pitch": 72, "duration": 3, "velocity": 79}, {"time": 1448, "pitch": 75, "duration": 2, "velocity": 93}, {"time": 1451, "pitch": 77, "duration": 2, "velocity": 92}, {"time": 1454, "pitch": 79, "duration": 8, "velocity": 93}, {"time": 1484, "pitch": 72, "duration": 6, "velocity": 95}, {"time": 1490, "pitch": 75, "duration": 6, "velocity": 99}, {"time": 1496, "pitch": 79, "duration": 7, "velocity": 93}, {"time": 1502, "pitch": 77, "duration": 14, "velocity": 89}, {"time": 1532, "pitch": 75, "duration": 5, "velocity": 127}, {"time": 1538, "pitch": 74, "duration": 6, "velocity": 99}, {"time": 1544, "pitch": 72, "duration": 7, "velocity": 86}, {"time": 1550, "pitch": 70, "duration": 16, "velocity": 96}, {"time": 1640, "pitch": 65, "duration": 3, "velocity": 88}, {"time": 1643, "pitch": 67, "duration": 3, "velocity": 71}, {"time": 1646, "pitch": 75, "duration": 5, "velocity": 97}, {"time": 1652, "pitch": 75, "duration": 2, "velocity": 102}, {"time": 1655, "pitch": 75, "duration": 9, "velocity": 99}, {"time": 1664, "pitch": 74, "duration": 4, "velocity": 97}, {"time": 1667, "pitch": 75, "duration": 2, "velocity": 75}, {"time": 1669, "pitch": 74, "duration": 1, "velocity": 67}, {"time": 1670, "pitch": 72, "duration": 15, "velocity": 83}, {"time": 1697, "pitch": 74, "duration": 3, "velocity": 90}, {"time": 1703, "pitch": 74, "duration": 2, "velocity": 86}, {"time": 1706, "pitch": 74, "duration": 4, "velocity": 97}, {"time": 1709, "pitch": 72, "duration": 4, "velocity": 92}, {"time": 1715, "pitch": 70, "duration": 3, "velocity": 82}, {"time": 1718, "pitch": 67, "duration": 13, "velocity": 89}, {"time": 1736, "pitch": 67, "duration": 3, "velocity": 79}, {"time": 1739, "pitch": 70, "duration": 4, "velocity": 93}, {"time": 1742, "pitch": 72, "duration": 5, "velocity": 99}, {"time": 1748, "pitch": 72, "duration": 2, "velocity": 82}, {"time": 1751, "pitch": 72, "duration": 7, "velocity": 82}, {"time": 1760, "pitch": 70, "duration": 2, "velocity": 100}, {"time": 1763, "pitch": 72, "duration": 2, "velocity": 78}, {"time": 1765, "pitch": 70, "duration": 1, "velocity": 89}, {"time": 1766, "pitch": 68, "duration": 5, "velocity": 79}, {"time": 1793, "pitch": 65, "duration": 5, "velocity": 90}, {"time": 1799, "pitch": 67, "duration": 3, "velocity": 75}, {"time": 1802, "pitch": 70, "duration": 3, "velocity": 90}, {"time": 1805, "pitch": 70, "duration": 1, "velocity": 88}, {"time": 1808, "pitch": 72, "duration": 4, "velocity": 88}, {"time": 1811, "pitch": 65, "duration": 4, "velocity": 71}, {"time": 1814, "pitch": 67, "duration": 15, "velocity": 86}, {"time": 1838, "pitch": 72, "duration": 5, "velocity": 95}, {"time": 1844, "pitch": 79, "duration": 4, "velocity": 86}, {"time": 1850, "pitch": 79, "duration": 6, "velocity": 93}, {"time": 1856, "pitch": 72, "duration": 3, "velocity": 88}, {"time": 1859, "pitch": 75, "duration": 4, "velocity": 69}, {"time": 1862, "pitch": 77, "duration": 15, "velocity": 97}, {"time": 1886, "pitch": 77, "duration": 9, "velocity": 92}, {"time": 1895, "pitch": 79, "duration": 4, "velocity": 89}, {"time": 1898, "pitch": 77, "duration": 6, "velocity": 81}, {"time": 1904, "pitch": 75, "duration": 3, "velocity": 71}, {"time": 1907, "pitch": 72, "duration": 2, "velocity": 82}, {"time": 1910, "pitch": 72, "duration": 20, "velocity": 82}, {"time": 1934, "pitch": 67, "duration": 9, "velocity": 92}, {"time": 1943, "pitch": 70, "duration": 1, "velocity": 81}, {"time": 1946, "pitch": 70, "duration": 7, "velocity": 89}, {"time": 1952, "pitch": 67, "duration": 3, "velocity": 75}, {"time": 1955, "pitch": 70, "duration": 3, "velocity": 92}, {"time": 1958, "pitch": 72, "duration": 6, "velocity": 88}, {"time": 1964, "pitch": 72, "duration": 3, "velocity": 100}, {"time": 1967, "pitch": 75, "duration": 3, "velocity": 83}, {"time": 1970, "pitch": 72, "duration": 9, "velocity": 93}, {"time": 1982, "pitch": 77, "duration": 4, "velocity": 95}, {"time": 1988, "pitch": 77, "duration": 4, "velocity": 65}, {"time": 1991, "pitch": 75, "duration": 4, "velocity": 73}, {"time": 1994, "pitch": 74, "duration": 5, "velocity": 75}, {"time": 2000, "pitch": 70, "duration": 5, "velocity": 72}, {"time": 2006, "pitch": 72, "duration": 11, "velocity": 85}, {"time": 2018, "pitch": 62, "duration": 3, "velocity": 81}, {"time": 2021, "pitch": 63, "duration": 3, "velocity": 73}, {"time": 2024, "pitch": 62, "duration": 3, "velocity": 55}, {"time": 2027, "pitch": 58, "duration": 4, "velocity": 56}, {"time": 2030, "pitch": 60, "duration": 22, "velocity": 72}, {"time": 2090, "pitch": 67, "duration": 7, "velocity": 76}, {"time": 2096, "pitch": 70, "duration": 4, "velocity": 69}, {"time": 2099, "pitch": 72, "duration": 4, "velocity": 69}, {"time": 2102, "pitch": 70, "duration": 12, "velocity": 74}, {"time": 2114, "pitch": 67, "duration": 6, "velocity": 75}, {"time": 2120, "pitch": 65, "duration": 6, "velocity": 72}, {"time": 2126, "pitch": 67, "duration": 22, "velocity": 77}, {"time": 2189, "pitch": 63, "duration": 4, "velocity": 85}, {"time": 2192, "pitch": 65, "duration": 4, "velocity": 64}, {"time": 2195, "pitch": 67, "duration": 4, "velocity": 72}, {"time": 2198, "pitch": 65, "duration": 10, "velocity": 72}, {"time": 2210, "pitch": 70, "duration": 7, "velocity": 100}, {"time": 2216, "pitch": 65, "duration": 6, "velocity": 64}, {"time": 2222, "pitch": 62, "duration": 26, "velocity": 77}, {"time": 2282, "pitch": 70, "duration": 5, "velocity": 100}, {"time": 2288, "pitch": 72, "duration": 5, "velocity": 89}, {"time": 2294, "pitch": 74, "duration": 10, "velocity": 117}, {"time": 2306, "pitch": 72, "duration": 4, "velocity": 82}, {"time": 2309, "pitch": 75, "duration": 4, "velocity": 61}, {"time": 2312, "pitch": 77, "duration": 4, "velocity": 61}, {"time": 2315, "pitch": 79, "duration": 4, "velocity": 69}, {"time": 2318, "pitch": 77, "duration": 20, "velocity": 83}, {"time": 2378, "pitch": 63, "duration": 3, "velocity": 102}, {"time": 2381, "pitch": 62, "duration": 4, "velocity": 70}, {"time": 2384, "pitch": 60, "duration": 3, "velocity": 88}, {"time": 2387, "pitch": 58, "duration": 3, "velocity": 86}, {"time": 2390, "pitch": 60, "duration": 3, "velocity": 88}, {"time": 2402, "pitch": 67, "duration": 3, "velocity": 100}, {"time": 2405, "pitch": 65, "duration": 4, "velocity": 63}, {"time": 2408, "pitch": 67, "duration": 3, "velocity": 79}, {"time": 2411, "pitch": 70, "duration": 2, "velocity": 93}, {"time": 2414, "pitch": 72, "duration": 24, "velocity": 99}, {"time": 2444, "pitch": 72, "duration": 6, "velocity": 89}, {"time": 2450, "pitch": 75, "duration": 6, "velocity": 96}, {"time": 2456, "pitch": 79, "duration": 7, "velocity": 82}, {"time": 2462, "pitch": 77, "duration": 21, "velocity": 83}, {"time": 2492, "pitch": 75, "duration": 6, "velocity": 122}, {"time": 2498, "pitch": 74, "duration": 6, "velocity": 102}, {"time": 2504, "pitch": 72, "duration": 6, "velocity": 78}, {"time": 2510, "pitch": 70, "duration": 23, "velocity": 96}, {"time": 2585, "pitch": 67, "duration": 3, "velocity": 78}, {"time": 2588, "pitch": 70, "duration": 3, "velocity": 78}, {"time": 2591, "pitch": 67, "duration": 2, "velocity": 92}, {"time": 2594, "pitch": 70, "duration": 3, "velocity": 92}, {"time": 2597, "pitch": 72, "duration": 3, "velocity": 79}, {"time": 2600, "pitch": 75, "duration": 2, "velocity": 93}, {"time": 2603, "pitch": 77, "duration": 2, "velocity": 92}, {"time": 2606, "pitch": 79, "duration": 8, "velocity": 93}, {"time": 2636, "pitch": 72, "duration": 6, "velocity": 95}, {"time": 2642, "pitch": 75, "duration": 6, "velocity": 99}, {"time": 2648, "pitch": 79, "duration": 7, "velocity": 93}, {"time": 2654, "pitch": 77, "duration": 14, "velocity": 89}, {"time": 2684, "pitch": 75, "duration": 5, "velocity": 127}, {"time": 2690, "pitch": 74, "duration": 6, "velocity": 99}, {"time": 2696, "pitch": 72, "duration": 7, "velocity": 86}, {"time": 2702, "pitch": 70, "duration": 16, "velocity": 96}, {"time": 2726, "pitch": 79, "duration": 21, "velocity": 90}, {"time": 2738, "pitch": 75, "duration": 12, "velocity": 96}, {"time": 2750, "pitch": 77, "duration": 13, "velocity": 93}, {"time": 2762, "pitch": 70, "duration": 12, "velocity": 90}, {"time": 2774, "pitch": 72, "duration": 24, "velocity": 92}, {"time": 2828, "pitch": 75, "duration": 7, "velocity": 68}, {"time": 2834, "pitch": 77, "duration": 7, "velocity": 83}, {"time": 2840, "pitch": 79, "duration": 6, "velocity": 88}, {"time": 2846, "pitch": 77, "duration": 18, "velocity": 85}, {"time": 2876, "pitch": 75, "duration": 5, "velocity": 96}, {"time": 2882, "pitch": 74, "duration": 7, "velocity": 75}, {"time": 2888, "pitch": 72, "duration": 6, "velocity": 71}, {"time": 2894, "pitch": 67, "duration": 19, "velocity": 69}, {"time": 2969, "pitch": 67, "duration": 3, "velocity": 78}, {"time": 2972, "pitch": 70, "duration": 3, "velocity": 78}, {"time": 2975, "pitch": 67, "duration": 2, "velocity": 92}, {"time": 2978, "pitch": 70, "duration": 3, "velocity": 92}, {"time": 2981, "pitch": 72, "duration": 3, "velocity": 79}, {"time": 2984, "pitch": 75, "duration": 2, "velocity": 93}, {"time": 2987, "pitch": 77, "duration": 2, "velocity": 92}, {"time": 2990, "pitch": 79, "duration": 8, "velocity": 93}, {"time": 3020, "pitch": 72, "duration": 6, "velocity": 95}, {"time": 3026, "pitch": 75, "duration": 6, "velocity": 99}, {"time": 3032, "pitch": 79, "duration": 7, "velocity": 93}, {"time": 3038, "pitch": 77, "duration": 14, "velocity": 89}, {"time": 3068, "pitch": 75, "duration": 5, "velocity": 127}, {"time": 3074, "pitch": 74, "duration": 6, "velocity": 99}, {"time": 3080, "pitch": 72, "duration": 7, "velocity": 86}, {"time": 3086, "pitch": 70, "duration": 16, "velocity": 96}, {"time": 3110, "pitch": 79, "duration": 21, "velocity": 90}, {"time": 3122, "pitch": 75, "duration": 12, "velocity": 96}, {"time": 3134, "pitch": 77, "duration": 13, "velocity": 93}, {"time": 3146, "pitch": 70, "duration": 12, "velocity": 90}, {"time": 3158, "pitch": 72, "duration": 24, "velocity": 92}, {"time": 3284, "pitch": 75, "duration": 17, "velocity": 96}, {"time": 3302, "pitch": 72, "duration": 24, "velocity": 93}, {"time": 3326, "pitch": 70, "duration": 35, "velocity": 95}, {"time": 3340, "pitch": 82, "duration": 15, "velocity": 88}, {"time": 3353, "pitch": 79, "duration": 15, "velocity": 82}, {"time": 3377, "pitch": 84, "duration": 3, "velocity": 107}, {"time": 3379, "pitch": 87, "duration": 3, "velocity": 95}, {"time": 3382, "pitch": 84, "duration": 53, "velocity": 79}]}, {"program": 0, "is_drum": false, "name": "PIANO", "notes": [{"time": 14, "pitch": 36, "duration": 47, "velocity": 73}, {"time": 20, "pitch": 43, "duration": 43, "velocity": 56}, {"time": 26, "pitch": 60, "duration": 23, "velocity": 66}, {"time": 32, "pitch": 48, "duration": 9, "velocity": 43}, {"time": 38, "pitch": 55, "duration": 1, "velocity": 34}, {"time": 38, "pitch": 63, "duration": 35, "velocity": 68}, {"time": 44, "pitch": 48, "duration": 11, "velocity": 55}, {"time": 50, "pitch": 60, "duration": 18, "velocity": 79}, {"time": 56, "pitch": 55, "duration": 15, "velocity": 72}, {"time": 62, "pitch": 36, "duration": 46, "velocity": 66}, {"time": 68, "pitch": 43, "duration": 42, "velocity": 56}, {"time": 74, "pitch": 60, "duration": 14, "velocity": 71}, {"time": 80, "pitch": 48, "duration": 8, "velocity": 40}, {"time": 86, "pitch": 63, "duration": 29, "velocity": 86}, {"time": 92, "pitch": 48, "duration": 16, "velocity": 54}, {"time": 98, "pitch": 60, "duration": 18, "velocity": 77}, {"time": 104, "pitch": 55, "duration": 31, "velocity": 69}, {"time": 110, "pitch": 36, "duration": 14, "velocity": 65}, {"time": 116, "pitch": 43, "duration": 10, "velocity": 52}, {"time": 122, "pitch": 63, "duration": 12, "velocity": 107}, {"time": 128, "pitch": 60, "duration": 6, "velocity": 68}, {"time": 134, "pitch": 41, "duration": 18, "velocity": 71}, {"time": 140, "pitch": 48, "duration": 12, "velocity": 53}, {"time": 146, "pitch": 60, "duration": 12, "velocity": 86}, {"time": 152, "pitch": 56, "duration": 6, "velocity": 79}, {"time": 158, "pitch": 46, "duration": 13, "velocity": 85}, {"time": 164, "pitch": 53, "duration": 19, "velocity": 58}, {"time": 170, "pitch": 62, "duration": 12, "velocity": 92}, {"time": 176, "pitch": 58, "duration": 7, "velocity": 70}, {"time": 182, "pitch": 36, "duration": 17, "velocity": 74}, {"time": 188, "pitch": 43, "duration": 11, "velocity": 40}, {"time": 194, "pitch": 48, "duration": 5, "velocity": 44}, {"time": 194, "pitch": 63, "duration": 13, "velocity": 95}, {"time": 200, "pitch": 60, "duration": 7, "velocity": 66}, {"time": 206, "pitch": 39, "duration": 18, "velocity": 79}, {"time": 212, "pitch": 46, "duration": 10, "velocity": 32}, {"time": 218, "pitch": 51, "duration": 4, "velocity": 51}, {"time": 218, "pitch": 63, "duration": 12, "velocity": 95}, {"time": 224, "pitch": 58, "duration": 7, "velocity": 63}, {"time": 230, "pitch": 36, "duration": 18, "velocity": 68}, {"time": 236, "pitch": 43, "duration": 13, "velocity": 42}, {"time": 242, "pitch": 48, "duration": 9, "velocity": 48}, {"time": 242, "pitch": 63, "duration": 12, "velocity": 92}, {"time": 248, "pitch": 60, "duration": 5, "velocity": 79}, {"time": 254, "pitch": 44, "duration": 17, "velocity": 79}, {"time": 260, "pitch": 51, "duration": 9, "velocity": 44}, {"time": 266, "pitch": 63, "duration": 12, "velocity": 76}, {"time": 272, "pitch": 56, "duration": 6, "velocity": 78}, {"time": 278, "pitch": 46, "duration": 13, "velocity": 68}, {"time": 284, "pitch": 53, "duration": 8, "velocity": 55}, {"time": 290, "pitch": 62, "duration": 12, "velocity": 82}, {"time": 293, "pitch": 58, "duration": 9, "velocity": 90}, {"time": 296, "pitch": 53, "duration": 7, "velocity": 79}, {"time": 302, "pitch": 36, "duration": 17, "velocity": 71}, {"time": 308, "pitch": 43, "duration": 11, "velocity": 44}, {"time": 314, "pitch": 48, "duration": 10, "velocity": 44}, {"time": 314, "pitch": 63, "duration": 13, "velocity": 99}, {"time": 320, "pitch": 60, "duration": 7, "velocity": 73}, {"time": 326, "pitch": 41, "duration": 18, "velocity": 71}, {"time": 332, "pitch": 48, "duration": 13, "velocity": 73}, {"time": 338, "pitch": 60, "duration": 12, "velocity": 90}, {"time": 344, "pitch": 56, "duration": 6, "velocity": 81}, {"time": 350, "pitch": 46, "duration": 12, "velocity": 95}, {"time": 356, "pitch": 53, "duration": 18, "velocity": 78}, {"time": 362, "pitch": 62, "duration": 13, "velocity": 92}, {"time": 368, "pitch": 58, "duration": 6, "velocity": 93}, {"time": 374, "pitch": 36, "duration": 15, "velocity": 76}, {"time": 380, "pitch": 43, "duration": 9, "velocity": 59}, {"time": 386, "pitch": 48, "duration": 5, "velocity": 52}, {"time": 386, "pitch": 63, "duration": 12, "velocity": 99}, {"time": 392, "pitch": 60, "duration": 6, "velocity": 72}, {"time": 398, "pitch": 39, "duration": 17, "velocity": 75}, {"time": 404, "pitch": 46, "duration": 9, "velocity": 35}, {"time": 410, "pitch": 51, "duration": 4, "velocity": 47}, {"time": 410, "pitch": 63, "duration": 12, "velocity": 93}, {"time": 416, "pitch": 58, "duration": 6, "velocity": 77}, {"time": 422, "pitch": 36, "duration": 15, "velocity": 79}, {"time": 428, "pitch": 43, "duration": 9, "velocity": 47}, {"time": 434, "pitch": 48, "duration": 6, "velocity": 50}, {"time": 434, "pitch": 63, "duration": 11, "velocity": 95}, {"time": 440, "pitch": 60, "duration": 7, "velocity": 75}, {"time": 446, "pitch": 44, "duration": 12, "velocity": 85}, {"time": 452, "pitch": 56, "duration": 5, "velocity": 85}, {"time": 458, "pitch": 46, "duration": 6, "velocity": 72}, {"time": 464, "pitch": 58, "duration": 7, "velocity": 69}, {"time": 470, "pitch": 36, "duration": 23, "velocity": 67}, {"time": 476, "pitch": 43, "duration": 18, "velocity": 49}, {"time": 482, "pitch": 48, "duration": 14, "velocity": 45}, {"time": 482, "pitch": 63, "duration": 22, "velocity": 81}, {"time": 488, "pitch": 60, "duration": 17, "velocity": 67}, {"time": 494, "pitch": 36, "duration": 21, "velocity": 61}, {"time": 500, "pitch": 48, "duration": 17, "velocity": 62}, {"time": 506, "pitch": 63, "duration": 13, "velocity": 88}, {"time": 512, "pitch": 60, "duration": 6, "velocity": 66}, {"time": 518, "pitch": 36, "duration": 21, "velocity": 69}, {"time": 524, "pitch": 48, "duration": 17, "velocity": 45}, {"time": 530, "pitch": 63, "duration": 12, "velocity": 86}, {"time": 536, "pitch": 60, "duration": 5, "velocity": 63}, {"time": 542, "pitch": 43, "duration": 22, "velocity": 68}, {"time": 548, "pitch": 50, "duration": 18, "velocity": 55}, {"time": 554, "pitch": 62, "duration": 13, "velocity": 83}, {"time": 560, "pitch": 58, "duration": 7, "velocity": 63}, {"time": 566, "pitch": 43, "duration": 17, "velocity": 63}, {"time": 572, "pitch": 50, "duration": 10, "velocity": 47}, {"time": 578, "pitch": 55, "duration": 3, "velocity": 41}, {"time": 578, "pitch": 67, "duration": 12, "velocity": 72}, {"time": 584, "pitch": 62, "duration": 7, "velocity": 68}, {"time": 590, "pitch": 36, "duration": 21, "velocity": 69}, {"time": 596, "pitch": 43, "duration": 17, "velocity": 48}, {"time": 602, "pitch": 48, "duration": 6, "velocity": 43}, {"time": 602, "pitch": 63, "duration": 16, "velocity": 86}, {"time": 608, "pitch": 60, "duration": 7, "velocity": 56}, {"time": 614, "pitch": 36, "duration": 16, "velocity": 62}, {"time": 620, "pitch": 43, "duration": 10, "velocity": 35}, {"time": 626, "pitch": 48, "duration": 7, "velocity": 54}, {"time": 626, "pitch": 63, "duration": 10, "velocity": 88}, {"time": 632, "pitch": 60, "duration": 6, "velocity": 64}, {"time": 638, "pitch": 41, "duration": 21, "velocity": 69}, {"time": 644, "pitch": 48, "duration": 18, "velocity": 56}, {"time": 650, "pitch": 60, "duration": 20, "velocity": 76}, {"time": 656, "pitch": 56, "duration": 12, "velocity": 66}, {"time": 662, "pitch": 41, "duration": 15, "velocity": 65}, {"time": 668, "pitch": 48, "duration": 9, "velocity": 75}, {"time": 674, "pitch": 60, "duration": 12, "velocity": 75}, {"time": 677, "pitch": 56, "duration": 9, "velocity": 64}, {"time": 680, "pitch": 53, "duration": 10, "velocity": 65}, {"time": 686, "pitch": 46, "duration": 19, "velocity": 72}, {"time": 692, "pitch": 53, "duration": 22, "velocity": 68}, {"time": 698, "pitch": 62, "duration": 17, "velocity": 75}, {"time": 704, "pitch": 58, "duration": 13, "velocity": 52}, {"time": 710, "pitch": 46, "duration": 16, "velocity": 76}, {"time": 716, "pitch": 53, "duration": 18, "velocity": 66}, {"time": 722, "pitch": 62, "duration": 12, "velocity": 90}, {"time": 728, "pitch": 58, "duration": 6, "velocity": 74}, {"time": 734, "pitch": 43, "duration": 22, "velocity": 81}, {"time": 740, "pitch": 50, "duration": 17, "velocity": 59}, {"time": 746, "pitch": 62, "duration": 13, "velocity": 99}, {"time": 752, "pitch": 58, "duration": 7, "velocity": 52}, {"time": 755, "pitch": 55, "duration": 4, "velocity": 39}, {"time": 758, "pitch": 43, "duration": 16, "velocity": 65}, {"time": 764, "pitch": 50, "duration": 8, "velocity": 50}, {"time": 770, "pitch": 70, "duration": 12, "velocity": 99}, {"time": 773, "pitch": 67, "duration": 9, "velocity": 59}, {"time": 776, "pitch": 62, "duration": 7, "velocity": 86}, {"time": 782, "pitch": 41, "duration": 18, "velocity": 82}, {"time": 788, "pitch": 48, "duration": 11, "velocity": 55}, {"time": 794, "pitch": 60, "duration": 12, "velocity": 95}, {"time": 800, "pitch": 56, "duration": 6, "velocity": 76}, {"time": 806, "pitch": 43, "duration": 16, "velocity": 76}, {"time": 812, "pitch": 50, "duration": 8, "velocity": 40}, {"time": 818, "pitch": 62, "duration": 12, "velocity": 90}, {"time": 824, "pitch": 58, "duration": 6, "velocity": 59}, {"time": 830, "pitch": 36, "duration": 49, "velocity": 82}, {"time": 836, "pitch": 43, "duration": 10, "velocity": 34}, {"time": 842, "pitch": 48, "duration": 13, "velocity": 48}, {"time": 842, "pitch": 63, "duration": 12, "velocity": 97}, {"time": 848, "pitch": 43, "duration": 30, "velocity": 44}, {"time": 854, "pitch": 62, "duration": 9, "velocity": 72}, {"time": 860, "pitch": 48, "duration": 13, "velocity": 63}, {"time": 866, "pitch": 63, "duration": 13, "velocity": 92}, {"time": 872, "pitch": 60, "duration": 7, "velocity": 66}, {"time": 878, "pitch": 36, "duration": 1, "velocity": 61}, {"time": 884, "pitch": 48, "duration": 17, "velocity": 62}, {"time": 890, "pitch": 63, "duration": 13, "velocity": 88}, {"time": 896, "pitch": 60, "duration": 6, "velocity": 66}, {"time": 902, "pitch": 36, "duration": 21, "velocity": 69}, {"time": 908, "pitch": 48, "duration": 17, "velocity": 45}, {"time": 914, "pitch": 63, "duration": 12, "velocity": 86}, {"time": 920, "pitch": 60, "duration": 5, "velocity": 63}, {"time": 926, "pitch": 43, "duration": 22, "velocity": 68}, {"time": 932, "pitch": 50, "duration": 18, "velocity": 55}, {"time": 938, "pitch": 62, "duration": 13, "velocity": 83}, {"time": 944, "pitch": 58, "duration": 7, "velocity": 63}, {"time": 950, "pitch": 43, "duration": 17, "velocity": 63}, {"time": 956, "pitch": 50, "duration": 10, "velocity": 47}, {"time": 962, "pitch": 55, "duration": 3, "velocity": 41}, {"time": 962, "pitch": 67, "duration": 12, "velocity": 72}, {"time": 968, "pitch": 62, "duration": 7, "velocity": 68}, {"time": 974, "pitch": 36, "duration": 21, "velocity": 69}, {"time": 980, "pitch": 43, "duration": 17, "velocity": 48}, {"time": 986, "pitch": 48, "duration": 6, "velocity": 43}, {"time": 986, "pitch": 63, "duration": 16, "velocity": 86}, {"time": 992, "pitch": 60, "duration": 7, "velocity": 56}, {"time": 998, "pitch": 36, "duration": 16, "velocity": 62}, {"time": 1004, "pitch": 43, "duration": 10, "velocity": 35}, {"time": 1010, "pitch": 48, "duration": 7, "velocity": 54}, {"time": 1010, "pitch": 63, "duration": 10, "velocity": 88}, {"time": 1016, "pitch": 60, "duration": 6, "velocity": 64}, {"time": 1022, "pitch": 41, "duration": 21, "velocity": 69}, {"time": 1028, "pitch": 48, "duration": 18, "velocity": 56}, {"time": 1034, "pitch": 60, "duration": 20, "velocity": 76}, {"time": 1040, "pitch": 56, "duration": 12, "velocity": 66}, {"time": 1046, "pitch": 41, "duration": 15, "velocity": 65}, {"time": 1052, "pitch": 48, "duration": 9, "velocity": 75}, {"time": 1058, "pitch": 60, "duration": 12, "velocity": 75}, {"time": 1061, "pitch": 56, "duration": 9, "velocity": 64}, {"time": 1064, "pitch": 53, "duration": 10, "velocity": 65}, {"time": 1070, "pitch": 46, "duration": 19, "velocity": 72}, {"time": 1076, "pitch": 53, "duration": 22, "velocity": 68}, {"time": 1082, "pitch": 62, "duration": 17, "velocity": 75}, {"time": 1088, "pitch": 58, "duration": 13, "velocity": 52}, {"time": 1094, "pitch": 46, "duration": 16, "velocity": 76}, {"time": 1100, "pitch": 53, "duration": 18, "velocity": 66}, {"time": 1106, "pitch": 62, "duration": 12, "velocity": 90}, {"time": 1112, "pitch": 58, "duration": 6, "velocity": 74}, {"time": 1118, "pitch": 43, "duration": 22, "velocity": 81}, {"time": 1124, "pitch": 50, "duration": 17, "velocity": 59}, {"time": 1130, "pitch": 62, "duration": 13, "velocity": 99}, {"time": 1136, "pitch": 58, "duration": 7, "velocity": 52}, {"time": 1139, "pitch": 55, "duration": 4, "velocity": 39}, {"time": 1142, "pitch": 43, "duration": 16, "velocity": 65}, {"time": 1148, "pitch": 50, "duration": 8, "velocity": 50}, {"time": 1154, "pitch": 70, "duration": 12, "velocity": 99}, {"time": 1157, "pitch": 67, "duration": 9, "velocity": 59}, {"time": 1160, "pitch": 62, "duration": 7, "velocity": 86}, {"time": 1166, "pitch": 41, "duration": 18, "velocity": 82}, {"time": 1172, "pitch": 48, "duration": 11, "velocity": 55}, {"time": 1178, "pitch": 60, "duration": 12, "velocity": 95}, {"time": 1184, "pitch": 56, "duration": 6, "velocity": 76}, {"time": 1190, "pitch": 43, "duration": 16, "velocity": 76}, {"time": 1196, "pitch": 50, "duration": 8, "velocity": 40}, {"time": 1202, "pitch": 62, "duration": 12, "velocity": 90}, {"time": 1208, "pitch": 58, "duration": 6, "velocity": 59}, {"time": 1214, "pitch": 36, "duration": 20, "velocity": 88}, {"time": 1220, "pitch": 43, "duration": 14, "velocity": 47}, {"time": 1226, "pitch": 63, "duration": 7, "velocity": 107}, {"time": 1229, "pitch": 48, "duration": 4, "velocity": 77}, {"time": 1232, "pitch": 60, "duration": 4, "velocity": 99}, {"time": 1235, "pitch": 55, "duration": 7, "velocity": 82}, {"time": 1238, "pitch": 36, "duration": 4, "velocity": 59}, {"time": 1238, "pitch": 48, "duration": 4, "velocity": 82}, {"time": 1238, "pitch": 60, "duration": 3, "velocity": 93}, {"time": 1238, "pitch": 63, "duration": 3, "velocity": 99}, {"time": 1262, "pitch": 36, "duration": 17, "velocity": 95}, {"time": 1265, "pitch": 43, "duration": 14, "velocity": 78}, {"time": 1268, "pitch": 48, "duration": 7, "velocity": 82}, {"time": 1271, "pitch": 55, "duration": 5, "velocity": 76}, {"time": 1274, "pitch": 63, "duration": 11, "velocity": 127}, {"time": 1277, "pitch": 48, "duration": 3, "velocity": 92}, {"time": 1280, "pitch": 60, "duration": 6, "velocity": 95}, {"time": 1283, "pitch": 55, "duration": 3, "velocity": 85}, {"time": 1286, "pitch": 41, "duration": 16, "velocity": 86}, {"time": 1289, "pitch": 48, "duration": 13, "velocity": 86}, {"time": 1292, "pitch": 53, "duration": 7, "velocity": 90}, {"time": 1295, "pitch": 60, "duration": 6, "velocity": 88}, {"time": 1298, "pitch": 68, "duration": 12, "velocity": 117}, {"time": 1301, "pitch": 53, "duration": 3, "velocity": 74}, {"time": 1304, "pitch": 65, "duration": 7, "velocity": 88}, {"time": 1307, "pitch": 60, "duration": 4, "velocity": 88}, {"time": 1310, "pitch": 46, "duration": 17, "velocity": 88}, {"time": 1313, "pitch": 53, "duration": 13, "velocity": 38}, {"time": 1316, "pitch": 58, "duration": 7, "velocity": 82}, {"time": 1319, "pitch": 62, "duration": 6, "velocity": 78}, {"time": 1322, "pitch": 70, "duration": 11, "velocity": 112}, {"time": 1325, "pitch": 58, "duration": 2, "velocity": 97}, {"time": 1328, "pitch": 65, "duration": 5, "velocity": 86}, {"time": 1331, "pitch": 62, "duration": 3, "velocity": 96}, {"time": 1334, "pitch": 36, "duration": 17, "velocity": 77}, {"time": 1337, "pitch": 43, "duration": 13, "velocity": 63}, {"time": 1340, "pitch": 48, "duration": 7, "velocity": 85}, {"time": 1343, "pitch": 55, "duration": 7, "velocity": 77}, {"time": 1346, "pitch": 63, "duration": 11, "velocity": 107}, {"time": 1349, "pitch": 48, "duration": 3, "velocity": 86}, {"time": 1352, "pitch": 60, "duration": 5, "velocity": 99}, {"time": 1355, "pitch": 55, "duration": 4, "velocity": 85}, {"time": 1358, "pitch": 39, "duration": 17, "velocity": 92}, {"time": 1361, "pitch": 46, "duration": 13, "velocity": 42}, {"time": 1364, "pitch": 51, "duration": 7, "velocity": 92}, {"time": 1367, "pitch": 55, "duration": 6, "velocity": 78}, {"time": 1370, "pitch": 63, "duration": 9, "velocity": 102}, {"time": 1373, "pitch": 51, "duration": 2, "velocity": 92}, {"time": 1376, "pitch": 58, "duration": 4, "velocity": 82}, {"time": 1379, "pitch": 55, "duration": 5, "velocity": 92}, {"time": 1382, "pitch": 36, "duration": 16, "velocity": 72}, {"time": 1385, "pitch": 43, "duration": 12, "velocity": 76}, {"time": 1388, "pitch": 48, "duration": 7, "velocity": 90}, {"time": 1391, "pitch": 55, "duration": 5, "velocity": 81}, {"time": 1394, "pitch": 63, "duration": 10, "velocity": 112}, {"time": 1397, "pitch": 48, "duration": 3, "velocity": 92}, {"time": 1400, "pitch": 60, "duration": 4, "velocity": 95}, {"time": 1403, "pitch": 55, "duration": 3, "velocity": 86}, {"time": 1406, "pitch": 44, "duration": 17, "velocity": 90}, {"time": 1409, "pitch": 51, "duration": 13, "velocity": 31}, {"time": 1412, "pitch": 56, "duration": 7, "velocity": 77}, {"time": 1415, "pitch": 60, "duration": 5, "velocity": 83}, {"time": 1418, "pitch": 68, "duration": 11, "velocity": 107}, {"time": 1421, "pitch": 56, "duration": 4, "velocity": 86}, {"time": 1424, "pitch": 63, "duration": 4, "velocity": 99}, {"time": 1427, "pitch": 60, "duration": 3, "velocity": 93}, {"time": 1430, "pitch": 46, "duration": 22, "velocity": 89}, {"time": 1433, "pitch": 53, "duration": 17, "velocity": 67}, {"time": 1436, "pitch": 58, "duration": 7, "velocity": 96}, {"time": 1439, "pitch": 62, "duration": 5, "velocity": 86}, {"time": 1442, "pitch": 70, "duration": 12, "velocity": 117}, {"time": 1445, "pitch": 58, "duration": 5, "velocity": 99}, {"time": 1448, "pitch": 65, "duration": 6, "velocity": 88}, {"time": 1451, "pitch": 62, "duration": 3, "velocity": 95}, {"time": 1454, "pitch": 36, "duration": 17, "velocity": 95}, {"time": 1457, "pitch": 43, "duration": 14, "velocity": 78}, {"time": 1460, "pitch": 48, "duration": 7, "velocity": 82}, {"time": 1463, "pitch": 55, "duration": 5, "velocity": 76}, {"time": 1466, "pitch": 63, "duration": 11, "velocity": 127}, {"time": 1469, "pitch": 48, "duration": 3, "velocity": 92}, {"time": 1472, "pitch": 60, "duration": 6, "velocity": 95}, {"time": 1475, "pitch": 55, "duration": 3, "velocity": 85}, {"time": 1478, "pitch": 41, "duration": 16, "velocity": 86}, {"time": 1481, "pitch": 48, "duration": 13, "velocity": 86}, {"time": 1484, "pitch": 53, "duration": 7, "velocity": 90}, {"time": 1487, "pitch": 60, "duration": 6, "velocity": 88}, {"time": 1490, "pitch": 68, "duration": 12, "velocity": 117}, {"time": 1493, "pitch": 53, "duration": 3, "velocity": 74}, {"time": 1496, "pitch": 65, "duration": 7, "velocity": 88}, {"time": 1499, "pitch": 60, "duration": 4, "velocity": 88}, {"time": 1502, "pitch": 46, "duration": 17, "velocity": 88}, {"time": 1505, "pitch": 53, "duration": 13, "velocity": 38}, {"time": 1508, "pitch": 58, "duration": 7, "velocity": 82}, {"time": 1511, "pitch": 62, "duration": 6, "velocity": 78}, {"time": 1514, "pitch": 70, "duration": 11, "velocity": 112}, {"time": 1517, "pitch": 58, "duration": 2, "velocity": 97}, {"time": 1520, "pitch": 65, "duration": 5, "velocity": 86}, {"time": 1523, "pitch": 62, "duration": 3, "velocity": 96}, {"time": 1526, "pitch": 36, "duration": 17, "velocity": 77}, {"time": 1529, "pitch": 43, "duration": 13, "velocity": 63}, {"time": 1532, "pitch": 48, "duration": 7, "velocity": 85}, {"time": 1535, "pitch": 55, "duration": 7, "velocity": 77}, {"time": 1538, "pitch": 63, "duration": 11, "velocity": 107}, {"time": 1541, "pitch": 48, "duration": 3, "velocity": 86}, {"time": 1544, "pitch": 60, "duration": 5, "velocity": 99}, {"time": 1547, "pitch": 55, "duration": 4, "velocity": 85}, {"time": 1550, "pitch": 39, "duration": 17, "velocity": 92}, {"time": 1553, "pitch": 46, "duration": 13, "velocity": 42}, {"time": 1556, "pitch": 51, "duration": 7, "velocity": 92}, {"time": 1559, "pitch": 55, "duration": 6, "velocity": 78}, {"time": 1562, "pitch": 63, "duration": 9, "velocity": 102}, {"time": 1565, "pitch": 51, "duration": 2, "velocity": 92}, {"time": 1568, "pitch": 58, "duration": 4, "velocity": 82}, {"time": 1571, "pitch": 55, "duration": 5, "velocity": 92}, {"time": 1574, "pitch": 36, "duration": 16, "velocity": 72}, {"time": 1577, "pitch": 43, "duration": 12, "velocity": 76}, {"time": 1580, "pitch": 48, "duration": 7, "velocity": 90}, {"time": 1583, "pitch": 55, "duration": 5, "velocity": 81}, {"time": 1586, "pitch": 63, "duration": 10, "velocity": 112}, {"time": 1589, "pitch": 48, "duration": 3, "velocity": 92}, {"time": 1592, "pitch": 60, "duration": 4, "velocity": 95}, {"time": 1595, "pitch": 55, "duration": 3, "velocity": 86}, {"time": 1598, "pitch": 44, "duration": 10, "velocity": 73}, {"time": 1601, "pitch": 56, "duration": 4, "velocity": 77}, {"time": 1604, "pitch": 60, "duration": 5, "velocity": 85}, {"time": 1607, "pitch": 68, "duration": 2, "velocity": 107}, {"time": 1610, "pitch": 46, "duration": 7, "velocity": 85}, {"time": 1613, "pitch": 53, "duration": 8, "velocity": 74}, {"time": 1616, "pitch": 58, "duration": 4, "velocity": 95}, {"time": 1619, "pitch": 62, "duration": 3, "velocity": 83}, {"time": 1622, "pitch": 36, "duration": 22, "velocity": 68}, {"time": 1625, "pitch": 43, "duration": 21, "velocity": 53}, {"time": 1628, "pitch": 48, "duration": 6, "velocity": 72}, {"time": 1631, "pitch": 55, "duration": 10, "velocity": 74}, {"time": 1634, "pitch": 63, "duration": 12, "velocity": 96}, {"time": 1637, "pitch": 48, "duration": 4, "velocity": 75}, {"time": 1640, "pitch": 62, "duration": 4, "velocity": 31}, {"time": 1646, "pitch": 36, "duration": 15, "velocity": 82}, {"time": 1652, "pitch": 43, "duration": 9, "velocity": 43}, {"time": 1658, "pitch": 48, "duration": 5, "velocity": 55}, {"time": 1658, "pitch": 63, "duration": 12, "velocity": 92}, {"time": 1664, "pitch": 60, "duration": 7, "velocity": 66}, {"time": 1670, "pitch": 41, "duration": 14, "velocity": 69}, {"time": 1676, "pitch": 48, "duration": 10, "velocity": 61}, {"time": 1682, "pitch": 60, "duration": 12, "velocity": 93}, {"time": 1688, "pitch": 56, "duration": 5, "velocity": 81}, {"time": 1694, "pitch": 46, "duration": 16, "velocity": 95}, {"time": 1700, "pitch": 53, "duration": 17, "velocity": 72}, {"time": 1706, "pitch": 62, "duration": 12, "velocity": 96}, {"time": 1712, "pitch": 58, "duration": 6, "velocity": 68}, {"time": 1718, "pitch": 36, "duration": 20, "velocity": 70}, {"time": 1724, "pitch": 43, "duration": 19, "velocity": 37}, {"time": 1730, "pitch": 63, "duration": 13, "velocity": 117}, {"time": 1733, "pitch": 48, "duration": 2, "velocity": 55}, {"time": 1736, "pitch": 60, "duration": 7, "velocity": 66}, {"time": 1739, "pitch": 55, "duration": 5, "velocity": 61}, {"time": 1742, "pitch": 36, "duration": 16, "velocity": 65}, {"time": 1748, "pitch": 43, "duration": 10, "velocity": 43}, {"time": 1754, "pitch": 48, "duration": 6, "velocity": 63}, {"time": 1754, "pitch": 63, "duration": 13, "velocity": 88}, {"time": 1760, "pitch": 60, "duration": 6, "velocity": 73}, {"time": 1766, "pitch": 41, "duration": 17, "velocity": 70}, {"time": 1772, "pitch": 48, "duration": 7, "velocity": 62}, {"time": 1778, "pitch": 60, "duration": 11, "velocity": 82}, {"time": 1781, "pitch": 48, "duration": 2, "velocity": 61}, {"time": 1784, "pitch": 56, "duration": 4, "velocity": 62}, {"time": 1787, "pitch": 53, "duration": 3, "velocity": 58}, {"time": 1790, "pitch": 46, "duration": 17, "velocity": 96}, {"time": 1796, "pitch": 58, "duration": 7, "velocity": 79}, {"time": 1802, "pitch": 65, "duration": 8, "velocity": 92}, {"time": 1805, "pitch": 58, "duration": 2, "velocity": 59}, {"time": 1808, "pitch": 62, "duration": 6, "velocity": 67}, {"time": 1814, "pitch": 43, "duration": 18, "velocity": 83}, {"time": 1817, "pitch": 50, "duration": 2, "velocity": 40}, {"time": 1820, "pitch": 55, "duration": 7, "velocity": 92}, {"time": 1826, "pitch": 59, "duration": 7, "velocity": 93}, {"time": 1826, "pitch": 62, "duration": 12, "velocity": 96}, {"time": 1829, "pitch": 50, "duration": 3, "velocity": 74}, {"time": 1832, "pitch": 55, "duration": 7, "velocity": 92}, {"time": 1835, "pitch": 59, "duration": 3, "velocity": 95}, {"time": 1838, "pitch": 36, "duration": 16, "velocity": 88}, {"time": 1841, "pitch": 43, "duration": 13, "velocity": 90}, {"time": 1844, "pitch": 48, "duration": 7, "velocity": 90}, {"time": 1847, "pitch": 55, "duration": 7, "velocity": 89}, {"time": 1850, "pitch": 63, "duration": 12, "velocity": 95}, {"time": 1853, "pitch": 48, "duration": 6, "velocity": 78}, {"time": 1856, "pitch": 60, "duration": 6, "velocity": 75}, {"time": 1859, "pitch": 55, "duration": 3, "velocity": 64}, {"time": 1862, "pitch": 41, "duration": 17, "velocity": 66}, {"time": 1865, "pitch": 48, "duration": 13, "velocity": 52}, {"time": 1868, "pitch": 53, "duration": 13, "velocity": 75}, {"time": 1871, "pitch": 60, "duration": 17, "velocity": 69}, {"time": 1874, "pitch": 68, "duration": 13, "velocity": 96}, {"time": 1880, "pitch": 65, "duration": 7, "velocity": 79}, {"time": 1886, "pitch": 46, "duration": 18, "velocity": 82}, {"time": 1889, "pitch": 53, "duration": 12, "velocity": 27}, {"time": 1892, "pitch": 58, "duration": 7, "velocity": 78}, {"time": 1895, "pitch": 62, "duration": 6, "velocity": 69}, {"time": 1898, "pitch": 70, "duration": 11, "velocity": 102}, {"time": 1901, "pitch": 58, "duration": 2, "velocity": 99}, {"time": 1904, "pitch": 65, "duration": 5, "velocity": 70}, {"time": 1907, "pitch": 62, "duration": 3, "velocity": 79}, {"time": 1910, "pitch": 48, "duration": 14, "velocity": 68}, {"time": 1916, "pitch": 55, "duration": 8, "velocity": 59}, {"time": 1919, "pitch": 60, "duration": 4, "velocity": 78}, {"time": 1922, "pitch": 63, "duration": 12, "velocity": 95}, {"time": 1925, "pitch": 60, "duration": 4, "velocity": 63}, {"time": 1928, "pitch": 55, "duration": 7, "velocity": 72}, {"time": 1931, "pitch": 60, "duration": 3, "velocity": 61}, {"time": 1934, "pitch": 39, "duration": 18, "velocity": 81}, {"time": 1937, "pitch": 46, "duration": 13, "velocity": 32}, {"time": 1940, "pitch": 51, "duration": 7, "velocity": 89}, {"time": 1943, "pitch": 55, "duration": 5, "velocity": 65}, {"time": 1946, "pitch": 63, "duration": 10, "velocity": 100}, {"time": 1949, "pitch": 51, "duration": 2, "velocity": 82}, {"time": 1952, "pitch": 58, "duration": 4, "velocity": 74}, {"time": 1955, "pitch": 55, "duration": 6, "velocity": 81}, {"time": 1958, "pitch": 36, "duration": 17, "velocity": 65}, {"time": 1961, "pitch": 43, "duration": 13, "velocity": 52}, {"time": 1964, "pitch": 48, "duration": 7, "velocity": 73}, {"time": 1967, "pitch": 55, "duration": 7, "velocity": 74}, {"time": 1970, "pitch": 63, "duration": 8, "velocity": 97}, {"time": 1973, "pitch": 48, "duration": 3, "velocity": 63}, {"time": 1976, "pitch": 60, "duration": 5, "velocity": 68}, {"time": 1979, "pitch": 55, "duration": 2, "velocity": 81}, {"time": 1982, "pitch": 44, "duration": 12, "velocity": 93}, {"time": 1985, "pitch": 56, "duration": 5, "velocity": 67}, {"time": 1988, "pitch": 63, "duration": 5, "velocity": 88}, {"time": 1991, "pitch": 56, "duration": 3, "velocity": 77}, {"time": 1994, "pitch": 46, "duration": 7, "velocity": 69}, {"time": 1997, "pitch": 53, "duration": 9, "velocity": 68}, {"time": 1997, "pitch": 55, "duration": 18, "velocity": 89}, {"time": 2000, "pitch": 62, "duration": 6, "velocity": 88}, {"time": 2003, "pitch": 58, "duration": 3, "velocity": 95}, {"time": 2006, "pitch": 36, "duration": 22, "velocity": 66}, {"time": 2009, "pitch": 43, "duration": 21, "velocity": 63}, {"time": 2012, "pitch": 48, "duration": 18, "velocity": 56}, {"time": 2015, "pitch": 55, "duration": 10, "velocity": 69}, {"time": 2018, "pitch": 63, "duration": 12, "velocity": 88}, {"time": 2024, "pitch": 60, "duration": 6, "velocity": 62}, {"time": 2027, "pitch": 55, "duration": 3, "velocity": 59}, {"time": 2030, "pitch": 36, "duration": 21, "velocity": 61}, {"time": 2036, "pitch": 48, "duration": 17, "velocity": 62}, {"time": 2042, "pitch": 63, "duration": 13, "velocity": 88}, {"time": 2048, "pitch": 60, "duration": 6, "velocity": 66}, {"time": 2054, "pitch": 36, "duration": 21, "velocity": 69}, {"time": 2060, "pitch": 48, "duration": 17, "velocity": 45}, {"time": 2066, "pitch": 63, "duration": 12, "velocity": 86}, {"time": 2072, "pitch": 60, "duration": 5, "velocity": 63}, {"time": 2078, "pitch": 43, "duration": 22, "velocity": 68}, {"time": 2084, "pitch": 50, "duration": 18, "velocity": 55}, {"time": 2090, "pitch": 62, "duration": 13, "velocity": 83}, {"time": 2096, "pitch": 58, "duration": 7, "velocity": 63}, {"time": 2102, "pitch": 43, "duration": 17, "velocity": 63}, {"time": 2108, "pitch": 50, "duration": 10, "velocity": 47}, {"time": 2114, "pitch": 55, "duration": 3, "velocity": 41}, {"time": 2114, "pitch": 67, "duration": 12, "velocity": 72}, {"time": 2120, "pitch": 62, "duration": 7, "velocity": 68}, {"time": 2126, "pitch": 36, "duration": 21, "velocity": 69}, {"time": 2132, "pitch": 43, "duration": 17, "velocity": 48}, {"time": 2138, "pitch": 48, "duration": 6, "velocity": 43}, {"time": 2138, "pitch": 63, "duration": 16, "velocity": 86}, {"time": 2144, "pitch": 60, "duration": 7, "velocity": 56}, {"time": 2150, "pitch": 36, "duration": 16, "velocity": 62}, {"time": 2156, "pitch": 43, "duration": 10, "velocity": 35}, {"time": 2162, "pitch": 48, "duration": 7, "velocity": 54}, {"time": 2162, "pitch": 63, "duration": 10, "velocity": 88}, {"time": 2168, "pitch": 60, "duration": 6, "velocity": 64}, {"time": 2174, "pitch": 41, "duration": 21, "velocity": 69}, {"time": 2180, "pitch": 48, "duration": 18, "velocity": 56}, {"time": 2186, "pitch": 60, "duration": 20, "velocity": 76}, {"time": 2192, "pitch": 56, "duration": 12, "velocity": 66}, {"time": 2198, "pitch": 41, "duration": 15, "velocity": 65}, {"time": 2204, "pitch": 48, "duration": 9, "velocity": 75}, {"time": 2210, "pitch": 60, "duration": 12, "velocity": 75}, {"time": 2213, "pitch": 56, "duration": 9, "velocity": 64}, {"time": 2216, "pitch": 53, "duration": 10, "velocity": 65}, {"time": 2222, "pitch": 46, "duration": 19, "velocity": 72}, {"time": 2228, "pitch": 53, "duration": 22, "velocity": 68}, {"time": 2234, "pitch": 62, "duration": 17, "velocity": 75}, {"time": 2240, "pitch": 58, "duration": 13, "velocity": 52}, {"time": 2246, "pitch": 46, "duration": 16, "velocity": 76}, {"time": 2252, "pitch": 53, "duration": 18, "velocity": 66}, {"time": 2258, "pitch": 62, "duration": 12, "velocity": 90}, {"time": 2264, "pitch": 58, "duration": 6, "velocity": 74}, {"time": 2270, "pitch": 43, "duration": 22, "velocity": 81}, {"time": 2276, "pitch": 50, "duration": 17, "velocity": 59}, {"time": 2282, "pitch": 62, "duration": 13, "velocity": 99}, {"time": 2288, "pitch": 58, "duration": 7, "velocity": 52}, {"time": 2291, "pitch": 55, "duration": 4, "velocity": 39}, {"time": 2294, "pitch": 43, "duration": 16, "velocity": 65}, {"time": 2300, "pitch": 50, "duration": 8, "velocity": 50}, {"time": 2306, "pitch": 70, "duration": 12, "velocity": 99}, {"time": 2309, "pitch": 67, "duration": 9, "velocity": 59}, {"time": 2312, "pitch": 62, "duration": 7, "velocity": 86}, {"time": 2318, "pitch": 41, "duration": 18, "velocity": 82}, {"time": 2324, "pitch": 48, "duration": 11, "velocity": 55}, {"time": 2330, "pitch": 60, "duration": 12, "velocity": 95}, {"time": 2336, "pitch": 56, "duration": 6, "velocity": 76}, {"time": 2342, "pitch": 43, "duration": 16, "velocity": 76}, {"time": 2348, "pitch": 50, "duration": 8, "velocity": 40}, {"time": 2354, "pitch": 62, "duration": 12, "velocity": 90}, {"time": 2360, "pitch": 58, "duration": 6, "velocity": 59}, {"time": 2366, "pitch": 36, "duration": 20, "velocity": 88}, {"time": 2372, "pitch": 43, "duration": 14, "velocity": 47}, {"time": 2378, "pitch": 63, "duration": 7, "velocity": 107}, {"time": 2381, "pitch": 48, "duration": 4, "velocity": 77}, {"time": 2384, "pitch": 60, "duration": 4, "velocity": 99}, {"time": 2387, "pitch": 55, "duration": 7, "velocity": 82}, {"time": 2390, "pitch": 36, "duration": 4, "velocity": 59}, {"time": 2390, "pitch": 48, "duration": 4, "velocity": 82}, {"time": 2390, "pitch": 60, "duration": 3, "velocity": 93}, {"time": 2390, "pitch": 63, "duration": 3, "velocity": 99}, {"time": 2414, "pitch": 36, "duration": 17, "velocity": 95}, {"time": 2417, "pitch": 43, "duration": 14, "velocity": 78}, {"time": 2420, "pitch": 48, "duration": 7, "velocity": 82}, {"time": 2423, "pitch": 55, "duration": 5, "velocity": 76}, {"time": 2426, "pitch": 63, "duration": 11, "velocity": 127}, {"time": 2429, "pitch": 48, "duration": 3, "velocity": 92}, {"time": 2432, "pitch": 60, "duration": 6, "velocity": 95}, {"time": 2435, "pitch": 55, "duration": 3, "velocity": 85}, {"time": 2438, "pitch": 41, "duration": 16, "velocity": 86}, {"time": 2441, "pitch": 48, "duration": 13, "velocity": 86}, {"time": 2444, "pitch": 53, "duration": 7, "velocity": 90}, {"time": 2447, "pitch": 60, "duration": 6, "velocity": 88}, {"time": 2450, "pitch": 68, "duration": 12, "velocity": 117}, {"time": 2453, "pitch": 53, "duration": 3, "velocity": 74}, {"time": 2456, "pitch": 65, "duration": 7, "velocity": 88}, {"time": 2459, "pitch": 60, "duration": 4, "velocity": 88}, {"time": 2462, "pitch": 46, "duration": 17, "velocity": 88}, {"time": 2465, "pitch": 53, "duration": 13, "velocity": 38}, {"time": 2468, "pitch": 58, "duration": 7, "velocity": 82}, {"time": 2471, "pitch": 62, "duration": 6, "velocity": 78}, {"time": 2474, "pitch": 70, "duration": 11, "velocity": 112}, {"time": 2477, "pitch": 58, "duration": 2, "velocity": 97}, {"time": 2480, "pitch": 65, "duration": 5, "velocity": 86}, {"time": 2483, "pitch": 62, "duration": 3, "velocity": 96}, {"time": 2486, "pitch": 36, "duration": 17, "velocity": 77}, {"time": 2489, "pitch": 43, "duration": 13, "velocity": 63}, {"time": 2492, "pitch": 48, "duration": 7, "velocity": 85}, {"time": 2495, "pitch": 55, "duration": 7, "velocity": 77}, {"time": 2498, "pitch": 63, "duration": 11, "velocity": 107}, {"time": 2501, "pitch": 48, "duration": 3, "velocity": 86}, {"time": 2504, "pitch": 60, "duration": 5, "velocity": 99}, {"time": 2507, "pitch": 55, "duration": 4, "velocity": 85}, {"time": 2510, "pitch": 39, "duration": 17, "velocity": 92}, {"time": 2513, "pitch": 46, "duration": 13, "velocity": 42}, {"time": 2516, "pitch": 51, "duration": 7, "velocity": 92}, {"time": 2519, "pitch": 55, "duration": 6, "velocity": 78}, {"time": 2522, "pitch": 63, "duration": 9, "velocity": 102}, {"time": 2525, "pitch": 51, "duration": 2, "velocity": 92}, {"time": 2528, "pitch": 58, "duration": 4, "velocity": 82}, {"time": 2531, "pitch": 55, "duration": 5, "velocity": 92}, {"time": 2534, "pitch": 36, "duration": 16, "velocity": 72}, {"time": 2537, "pitch": 43, "duration": 12, "velocity": 76}, {"time": 2540, "pitch": 48, "duration": 7, "velocity": 90}, {"time": 2543, "pitch": 55, "duration": 5, "velocity": 81}, {"time": 2546, "pitch": 63, "duration": 10, "velocity": 112}, {"time": 2549, "pitch": 48, "duration": 3, "velocity": 92}, {"time": 2552, "pitch": 60, "duration": 4, "velocity": 95}, {"time": 2555, "pitch": 55, "duration": 3, "velocity": 86}, {"time": 2558, "pitch": 44, "duration": 17, "velocity": 90}, {"time": 2561, "pitch": 51, "duration": 13, "velocity": 31}, {"time": 2564, "pitch": 56, "duration": 7, "velocity": 77}, {"time": 2567, "pitch": 60, "duration": 5, "velocity": 83}, {"time": 2570, "pitch": 68, "duration": 11, "velocity": 107}, {"time": 2573, "pitch": 56, "duration": 4, "velocity": 86}, {"time": 2576, "pitch": 63, "duration": 4, "velocity": 99}, {"time": 2579, "pitch": 60, "duration": 3, "velocity": 93}, {"time": 2582, "pitch": 46, "duration": 22, "velocity": 89}, {"time": 2585, "pitch": 53, "duration": 17, "velocity": 67}, {"time": 2588, "pitch": 58, "duration": 7, "velocity": 96}, {"time": 2591, "pitch": 62, "duration": 5, "velocity": 86}, {"time": 2594, "pitch": 70, "duration": 12, "velocity": 117}, {"time": 2597, "pitch": 58, "duration": 5, "velocity": 99}, {"time": 2600, "pitch": 65, "duration": 6, "velocity": 88}, {"time": 2603, "pitch": 62, "duration": 3, "velocity": 95}, {"time": 2606, "pitch": 36, "duration": 17, "velocity": 95}, {"time": 2609, "pitch": 43, "duration": 14, "velocity": 78}, {"time": 2612, "pitch": 48, "duration": 7, "velocity": 82}, {"time": 2615, "pitch": 55, "duration": 5, "velocity": 76}, {"time": 2618, "pitch": 63, "duration": 11, "velocity": 127}, {"time": 2621, "pitch": 48, "duration": 3, "velocity": 92}, {"time": 2624, "pitch": 60, "duration": 6, "velocity": 95}, {"time": 2627, "pitch": 55, "duration": 3, "velocity": 85}, {"time": 2630, "pitch": 41, "duration": 16, "velocity": 86}, {"time": 2633, "pitch": 48, "duration": 13, "velocity": 86}, {"time": 2636, "pitch": 53, "duration": 7, "velocity": 90}, {"time": 2639, "pitch": 60, "duration": 6, "velocity": 88}, {"time": 2642, "pitch": 68, "duration": 12, "velocity": 117}, {"time": 2645, "pitch": 53, "duration": 3, "velocity": 74}, {"time": 2648, "pitch": 65, "duration": 7, "velocity": 88}, {"time": 2651, "pitch": 60, "duration": 4, "velocity": 88}, {"time": 2654, "pitch": 46, "duration": 17, "velocity": 88}, {"time": 2657, "pitch": 53, "duration": 13, "velocity": 38}, {"time": 2660, "pitch": 58, "duration": 7, "velocity": 82}, {"time": 2663, "pitch": 62, "duration": 6, "velocity": 78}, {"time": 2666, "pitch": 70, "duration": 11, "velocity": 112}, {"time": 2669, "pitch": 58, "duration": 2, "velocity": 97}, {"time": 2672, "pitch": 65, "duration": 5, "velocity": 86}, {"time": 2675, "pitch": 62, "duration": 3, "velocity": 96}, {"time": 2678, "pitch": 36, "duration": 17, "velocity": 77}, {"time": 2681, "pitch": 43, "duration": 13, "velocity": 63}, {"time": 2684, "pitch": 48, "duration": 7, "velocity": 85}, {"time": 2687, "pitch": 55, "duration": 7, "velocity": 77}, {"time": 2690, "pitch": 63, "duration": 11, "velocity": 107}, {"time": 2693, "pitch": 48, "duration": 3, "velocity": 86}, {"time": 2696, "pitch": 60, "duration": 5, "velocity": 99}, {"time": 2699, "pitch": 55, "duration": 4, "velocity": 85}, {"time": 2702, "pitch": 39, "duration": 17, "velocity": 92}, {"time": 2705, "pitch": 46, "duration": 13, "velocity": 42}, {"time": 2708, "pitch": 51, "duration": 7, "velocity": 92}, {"time": 2711, "pitch": 55, "duration": 6, "velocity": 78}, {"time": 2714, "pitch": 63, "duration": 9, "velocity": 102}, {"time": 2717, "pitch": 51, "duration": 2, "velocity": 92}, {"time": 2720, "pitch": 58, "duration": 4, "velocity": 82}, {"time": 2723, "pitch": 55, "duration": 5, "velocity": 92}, {"time": 2726, "pitch": 36, "duration": 16, "velocity": 72}, {"time": 2729, "pitch": 43, "duration": 12, "velocity": 76}, {"time": 2732, "pitch": 48, "duration": 7, "velocity": 90}, {"time": 2735, "pitch": 55, "duration": 5, "velocity": 81}, {"time": 2738, "pitch": 63, "duration": 10, "velocity": 112}, {"time": 2741, "pitch": 48, "duration": 3, "velocity": 92}, {"time": 2744, "pitch": 60, "duration": 4, "velocity": 95}, {"time": 2747, "pitch": 55, "duration": 3, "velocity": 86}, {"time": 2750, "pitch": 44, "duration": 10, "velocity": 73}, {"time": 2753, "pitch": 56, "duration": 4, "velocity": 77}, {"time": 2756, "pitch": 60, "duration": 5, "velocity": 85}, {"time": 2759, "pitch": 68, "duration": 2, "velocity": 107}, {"time": 2762, "pitch": 46, "duration": 7, "velocity": 85}, {"time": 2765, "pitch": 53, "duration": 8, "velocity": 74}, {"time": 2768, "pitch": 58, "duration": 4, "velocity": 95}, {"time": 2771, "pitch": 62, "duration": 3, "velocity": 83}, {"time": 2774, "pitch": 36, "duration": 22, "velocity": 68}, {"time": 2777, "pitch": 43, "duration": 21, "velocity": 53}, {"time": 2780, "pitch": 48, "duration": 6, "velocity": 72}, {"time": 2783, "pitch": 55, "duration": 10, "velocity": 74}, {"time": 2786, "pitch": 63, "duration": 12, "velocity": 96}, {"time": 2789, "pitch": 48, "duration": 4, "velocity": 75}, {"time": 2792, "pitch": 62, "duration": 4, "velocity": 31}, {"time": 2798, "pitch": 36, "duration": 15, "velocity": 78}, {"time": 2804, "pitch": 43, "duration": 9, "velocity": 52}, {"time": 2810, "pitch": 48, "duration": 3, "velocity": 35}, {"time": 2810, "pitch": 63, "duration": 11, "velocity": 81}, {"time": 2816, "pitch": 60, "duration": 5, "velocity": 81}, {"time": 2822, "pitch": 41, "duration": 14, "velocity": 68}, {"time": 2828, "pitch": 48, "duration": 8, "velocity": 52}, {"time": 2834, "pitch": 53, "duration": 5, "velocity": 48}, {"time": 2834, "pitch": 68, "duration": 10, "velocity": 102}, {"time": 2840, "pitch": 65, "duration": 5, "velocity": 58}, {"time": 2846, "pitch": 46, "duration": 13, "velocity": 78}, {"time": 2852, "pitch": 53, "duration": 18, "velocity": 66}, {"time": 2858, "pitch": 62, "duration": 13, "velocity": 93}, {"time": 2864, "pitch": 58, "duration": 6, "velocity": 65}, {"time": 2870, "pitch": 36, "duration": 15, "velocity": 69}, {"time": 2876, "pitch": 43, "duration": 8, "velocity": 35}, {"time": 2882, "pitch": 48, "duration": 5, "velocity": 59}, {"time": 2882, "pitch": 63, "duration": 12, "velocity": 100}, {"time": 2888, "pitch": 60, "duration": 6, "velocity": 67}, {"time": 2891, "pitch": 55, "duration": 4, "velocity": 72}, {"time": 2894, "pitch": 39, "duration": 17, "velocity": 77}, {"time": 2900, "pitch": 46, "duration": 9, "velocity": 32}, {"time": 2906, "pitch": 51, "duration": 3, "velocity": 58}, {"time": 2906, "pitch": 63, "duration": 13, "velocity": 100}, {"time": 2912, "pitch": 58, "duration": 6, "velocity": 45}, {"time": 2918, "pitch": 36, "duration": 16, "velocity": 66}, {"time": 2924, "pitch": 43, "duration": 9, "velocity": 52}, {"time": 2930, "pitch": 48, "duration": 8, "velocity": 55}, {"time": 2930, "pitch": 63, "duration": 11, "velocity": 102}, {"time": 2936, "pitch": 60, "duration": 6, "velocity": 65}, {"time": 2942, "pitch": 44, "duration": 22, "velocity": 100}, {"time": 2948, "pitch": 56, "duration": 8, "velocity": 89}, {"time": 2954, "pitch": 63, "duration": 10, "velocity": 127}, {"time": 2960, "pitch": 56, "duration": 4, "velocity": 93}, {"time": 2966, "pitch": 46, "duration": 25, "velocity": 127}, {"time": 2969, "pitch": 53, "duration": 5, "velocity": 74}, {"time": 2972, "pitch": 58, "duration": 5, "velocity": 102}, {"time": 2975, "pitch": 53, "duration": 4, "velocity": 86}, {"time": 2978, "pitch": 65, "duration": 5, "velocity": 97}, {"time": 2981, "pitch": 53, "duration": 7, "velocity": 88}, {"time": 2984, "pitch": 58, "duration": 4, "velocity": 96}, {"time": 2987, "pitch": 62, "duration": 3, "velocity": 92}, {"time": 2990, "pitch": 36, "duration": 17, "velocity": 95}, {"time": 2993, "pitch": 43, "duration": 14, "velocity": 78}, {"time": 2996, "pitch": 48, "duration": 7, "velocity": 82}, {"time": 2999, "pitch": 55, "duration": 5, "velocity": 76}, {"time": 3002, "pitch": 63, "duration": 11, "velocity": 127}, {"time": 3005, "pitch": 48, "duration": 3, "velocity": 92}, {"time": 3008, "pitch": 60, "duration": 6, "velocity": 95}, {"time": 3011, "pitch": 55, "duration": 3, "velocity": 85}, {"time": 3014, "pitch": 41, "duration": 16, "velocity": 86}, {"time": 3017, "pitch": 48, "duration": 13, "velocity": 86}, {"time": 3020, "pitch": 53, "duration": 7, "velocity": 90}, {"time": 3023, "pitch": 60, "duration": 6, "velocity": 88}, {"time": 3026, "pitch": 68, "duration": 12, "velocity": 117}, {"time": 3029, "pitch": 53, "duration": 3, "velocity": 74}, {"time": 3032, "pitch": 65, "duration": 7, "velocity": 88}, {"time": 3035, "pitch": 60, "duration": 4, "velocity": 88}, {"time": 3038, "pitch": 46, "duration": 17, "velocity": 88}, {"time": 3041, "pitch": 53, "duration": 13, "velocity": 38}, {"time": 3044, "pitch": 58, "duration": 7, "velocity": 82}, {"time": 3047, "pitch": 62, "duration": 6, "velocity": 78}, {"time": 3050, "pitch": 70, "duration": 11, "velocity": 112}, {"time": 3053, "pitch": 58, "duration": 2, "velocity": 97}, {"time": 3056, "pitch": 65, "duration": 5, "velocity": 86}, {"time": 3059, "pitch": 62, "duration": 3, "velocity": 96}, {"time": 3062, "pitch": 36, "duration": 17, "velocity": 77}, {"time": 3065, "pitch": 43, "duration": 13, "velocity": 63}, {"time": 3068, "pitch": 48, "duration": 7, "velocity": 85}, {"time": 3071, "pitch": 55, "duration": 7, "velocity": 77}, {"time": 3074, "pitch": 63, "duration": 11, "velocity": 107}, {"time": 3077, "pitch": 48, "duration": 3, "velocity": 86}, {"time": 3080, "pitch": 60, "duration": 5, "velocity": 99}, {"time": 3083, "pitch": 55, "duration": 4, "velocity": 85}, {"time": 3086, "pitch": 39, "duration": 17, "velocity": 92}, {"time": 3089, "pitch": 46, "duration": 13, "velocity": 42}, {"time": 3092, "pitch": 51, "duration": 7, "velocity": 92}, {"time": 3095, "pitch": 55, "duration": 6, "velocity": 78}, {"time": 3098, "pitch": 63, "duration": 9, "velocity": 102}, {"time": 3101, "pitch": 51, "duration": 2, "velocity": 92}, {"time": 3104, "pitch": 58, "duration": 4, "velocity": 82}, {"time": 3107, "pitch": 55, "duration": 5, "velocity": 92}, {"time": 3110, "pitch": 36, "duration": 16, "velocity": 72}, {"time": 3113, "pitch": 43, "duration": 12, "velocity": 76}, {"time": 3116, "pitch": 48, "duration": 7, "velocity": 90}, {"time": 3119, "pitch": 55, "duration": 5, "velocity": 81}, {"time": 3122, "pitch": 63, "duration": 10, "velocity": 112}, {"time": 3125, "pitch": 48, "duration": 3, "velocity": 92}, {"time": 3128, "pitch": 60, "duration": 4, "velocity": 95}, {"time": 3131, "pitch": 55, "duration": 3, "velocity": 86}, {"time": 3134, "pitch": 44, "duration": 10, "velocity": 73}, {"time": 3137, "pitch": 56, "duration": 4, "velocity": 77}, {"time": 3140, "pitch": 60, "duration": 5, "velocity": 85}, {"time": 3143, "pitch": 68, "duration": 2, "velocity": 107}, {"time": 3146, "pitch": 46, "duration": 7, "velocity": 85}, {"time": 3149, "pitch": 53, "duration": 8, "velocity": 74}, {"time": 3152, "pitch": 58, "duration": 4, "velocity": 95}, {"time": 3155, "pitch": 62, "duration": 3, "velocity": 83}, {"time": 3158, "pitch": 36, "duration": 28, "velocity": 70}, {"time": 3158, "pitch": 48, "duration": 25, "velocity": 85}, {"time": 3158, "pitch": 55, "duration": 29, "velocity": 79}, {"time": 3158, "pitch": 60, "duration": 30, "velocity": 83}, {"time": 3158, "pitch": 63, "duration": 31, "velocity": 82}, {"time": 3207, "pitch": 41, "duration": 20, "velocity": 71}, {"time": 3207, "pitch": 60, "duration": 18, "velocity": 67}, {"time": 3207, "pitch": 53, "duration": 20, "velocity": 60}, {"time": 3207, "pitch": 56, "duration": 17, "velocity": 56}, {"time": 3230, "pitch": 53, "duration": 44, "velocity": 58}, {"time": 3231, "pitch": 58, "duration": 46, "velocity": 72}, {"time": 3231, "pitch": 46, "duration": 43, "velocity": 35}, {"time": 3232, "pitch": 62, "duration": 44, "velocity": 82}, {"time": 3278, "pitch": 36, "duration": 15, "velocity": 86}, {"time": 3284, "pitch": 43, "duration": 8, "velocity": 59}, {"time": 3290, "pitch": 48, "duration": 6, "velocity": 53}, {"time": 3290, "pitch": 63, "duration": 12, "velocity": 96}, {"time": 3296, "pitch": 60, "duration": 7, "velocity": 67}, {"time": 3302, "pitch": 41, "duration": 20, "velocity": 68}, {"time": 3308, "pitch": 48, "duration": 18, "velocity": 59}, {"time": 3314, "pitch": 60, "duration": 13, "velocity": 77}, {"time": 3320, "pitch": 56, "duration": 6, "velocity": 59}, {"time": 3326, "pitch": 43, "duration": 42, "velocity": 72}, {"time": 3332, "pitch": 50, "duration": 31, "velocity": 49}, {"time": 3339, "pitch": 58, "duration": 31, "velocity": 83}, {"time": 3345, "pitch": 62, "duration": 26, "velocity": 66}, {"time": 3383, "pitch": 36, "duration": 6, "velocity": 68}, {"time": 3385, "pitch": 60, "duration": 16, "velocity": 47}, {"time": 3385, "pitch": 43, "duration": 5, "velocity": 45}, {"time": 3386, "pitch": 63, "duration": 15, "velocity": 73}, {"time": 3386, "pitch": 48, "duration": 6, "velocity": 53}, {"time": 3388, "pitch": 67, "duration": 13, "velocity": 85}, {"time": 3396, "pitch": 48, "duration": 48, "velocity": 37}, {"time": 3398, "pitch": 51, "duration": 46, "velocity": 40}, {"time": 3401, "pitch": 55, "duration": 43, "velocity": 62}, {"time": 3403, "pitch": 60, "duration": 4, "velocity": 59}, {"time": 3405, "pitch": 63, "duration": 3, "velocity": 58}, {"time": 3408, "pitch": 67, "duration": 1, "velocity": 66}, {"time": 3411, "pitch": 72, "duration": 6, "velocity": 48}, {"time": 3414, "pitch": 75, "duration": 3, "velocity": 52}, {"time": 3417, "pitch": 79, "duration": 1, "velocity": 66}, {"time": 3421, "pitch": 84, "duration": 25, "velocity": 37}, {"time": 3425, "pitch": 87, "duration": 21, "velocity": 54}, {"time": 3429, "pitch": 91, "duration": 17, "velocity": 49}, {"time": 3437, "pitch": 96, "duration": 9, "velocity": 48}], "annotations": [{"time": 15, "annotation": {"number": 64, "value": 127}, "group": "control_change"}, {"time": 60, "annotation": {"number": 64, "value": 0}, "group": "control_change"}, {"time": 63, "annotation": {"number": 64, "value": 127}, "group": "control_change"}, {"time": 107, "annotation": {"number": 64, "value": 0}, "group": "control_change"}, {"time": 111, "annotation": {"number": 64, "value": 127}, "group": "control_change"}, {"time": 132, "annotation": {"number": 64, "value": 0}, "group": "control_change"}, {"time": 135, "annotation": {"number": 64, "value": 127}, "group": "control_change"}, {"time": 156, "annotation": {"number": 64, "value": 0}, "group": "control_change"}, {"time": 159, "annotation": {"number": 64, "value": 127}, "group": "control_change"}, {"time": 180, "annotation": {"number": 64, "value": 0}, "group": "control_change"}, {"time": 182, "annotation": {"number": 64, "value": 127}, "group": "control_change"}, {"time": 205, "annotation": {"number": 64, "value": 0}, "group": "control_change"}, {"time": 206, "annotation": {"number": 64, "value": 127}, "group": "control_change"}, {"time": 229, "annotation": {"number": 64, "value": 0}, "group": "control_change"}, {"time": 231, "annotation": {"number": 64, "value": 127}, "group": "control_change"}, {"time": 252, "annotation": {"number": 64, "value": 0}, "group": "control_change"}, {"time": 254, "annotation": {"number": 64, "value": 127}, "group": "control_change"}, {"time": 276, "annotation": {"number": 64, "value": 0}, "group": "control_change"}, {"time": 278, "annotation": {"number": 64, "value": 127}, "group": "control_change"}, {"time": 300, "annotation": {"number": 64, "value": 0}, "group": "control_change"}, {"time": 302, "annotation": {"number": 64, "value": 127}, "group": "control_change"}, {"time": 324, "annotation": {"number": 64, "value": 0}, "group": "control_change"}, {"time": 326, "annotation": {"number": 64, "value": 127}, "group": "control_change"}, {"time": 349, "annotation": {"number": 64, "value": 0}, "group": "control_change"}, {"time": 350, "annotation": {"number": 64, "value": 127}, "group": "control_change"}, {"time": 371, "annotation": {"number": 64, "value": 0}, "group": "control_change"}, {"time": 374, "annotation": {"number": 64, "value": 127}, "group": "control_change"}, {"time": 396, "annotation": {"number": 64, "value": 0}, "group": "control_change"}, {"time": 398, "annotation": {"number": 64, "value": 127}, "group": "control_change"}, {"time": 420, "annotation": {"number": 64, "value": 0}, "group": "control_change"}, {"time": 422, "annotation": {"number": 64, "value": 127}, "group": "control_change"}, {"time": 444, "annotation": {"number": 64, "value": 0}, "group": "control_change"}, {"time": 446, "annotation": {"number": 64, "value": 127}, "group": "control_change"}, {"time": 455, "annotation": {"number": 64, "value": 0}, "group": "control_change"}, {"time": 458, "annotation": {"number": 64, "value": 127}, "group": "control_change"}, {"time": 468, "annotation": {"number": 64, "value": 0}, "group": "control_change"}, {"time": 470, "annotation": {"number": 64, "value": 127}, "group": "control_change"}, {"time": 492, "annotation": {"number": 64, "value": 0}, "group": "control_change"}, {"time": 494, "annotation": {"number": 64, "value": 127}, "group": "control_change"}, {"time": 516, "annotation": {"number": 64, "value": 0}, "group": "control_change"}, {"time": 519, "annotation": {"number": 64, "value": 127}, "group": "control_change"}, {"time": 540, "annotation": {"number": 64, "value": 0}, "group": "control_change"}, {"time": 542, "annotation": {"number": 64, "value": 127}, "group": "control_change"}, {"time": 563, "annotation": {"number": 64, "value": 0}, "group": "control_change"}, {"time": 566, "annotation": {"number": 64, "value": 127}, "group": "control_change"}, {"time": 589, "annotation": {"number": 64, "value": 0}, "group": "control_change"}, {"time": 591, "annotation": {"number": 64, "value": 127}, "group": "control_change"}, {"time": 611, "annotation": {"number": 64, "value": 0}, "group": "control_change"}, {"time": 614, "annotation": {"number": 64, "value": 127}, "group": "control_change"}, {"time": 636, "annotation": {"number": 64, "value": 0}, "group": "control_change"}, {"time": 638, "annotation": {"number": 64, "value": 127}, "group": "control_change"}, {"time": 659, "annotation": {"number": 64, "value": 0}, "group": "control_change"}, {"time": 662, "annotation": {"number": 64, "value": 127}, "group": "control_change"}, {"time": 683, "annotation": {"number": 64, "value": 0}, "group": "control_change"}, {"time": 686, "annotation": {"number": 64, "value": 127}, "group": "control_change"}, {"time": 707, "annotation": {"number": 64, "value": 0}, "group": "control_change"}, {"time": 710, "annotation": {"number": 64, "value": 127}, "group": "control_change"}, {"time": 730, "annotation": {"number": 64, "value": 0}, "group": "control_change"}, {"time": 734, "annotation": {"number": 64, "value": 127}, "group": "control_change"}, {"time": 756, "annotation": {"number": 64, "value": 0}, "group": "control_change"}, {"time": 757, "annotation": {"number": 64, "value": 127}, "group": "control_change"}, {"time": 780, "annotation": {"number": 64, "value": 0}, "group": "control_change"}, {"time": 782, "annotation": {"number": 64, "value": 127}, "group": "control_change"}, {"time": 803, "annotation": {"number": 64, "value": 0}, "group": "control_change"}, {"time": 806, "annotation": {"number": 64, "value": 127}, "group": "control_change"}, {"time": 828, "annotation": {"number": 64, "value": 0}, "group": "control_change"}, {"time": 830, "annotation": {"number": 64, "value": 127}, "group": "control_change"}, {"time": 875, "annotation": {"number": 64, "value": 0}, "group": "control_change"}, {"time": 878, "annotation": {"number": 64, "value": 127}, "group": "control_change"}, {"time": 900, "annotation": {"number": 64, "value": 0}, "group": "control_change"}, {"time": 903, "annotation": {"number": 64, "value": 127}, "group": "control_change"}, {"time": 924, "annotation": {"number": 64, "value": 0}, "group": "control_change"}, {"time": 926, "annotation": {"number": 64, "value": 127}, "group": "control_change"}, {"time": 947, "annotation": {"number": 64, "value": 0}, "group": "control_change"}, {"time": 950, "annotation": {"number": 64, "value": 127}, "group": "control_change"}, {"time": 973, "annotation": {"number": 64, "value": 0}, "group": "control_change"}, {"time": 975, "annotation": {"number": 64, "value": 127}, "group": "control_change"}, {"time": 995, "annotation": {"number": 64, "value": 0}, "group": "control_change"}, {"time": 998, "annotation": {"number": 64, "value": 127}, "group": "control_change"}, {"time": 1020, "annotation": {"number": 64, "value": 0}, "group": "control_change"}, {"time": 1022, "annotation": {"number": 64, "value": 127}, "group": "control_change"}, {"time": 1043, "annotation": {"number": 64, "value": 0}, "group": "control_change"}, {"time": 1046, "annotation": {"number": 64, "value": 127}, "group": "control_change"}, {"time": 1067, "annotation": {"number": 64, "value": 0}, "group": "control_change"}, {"time": 1070, "annotation": {"number": 64, "value": 127}, "group": "control_change"}, {"time": 1091, "annotation": {"number": 64, "value": 0}, "group": "control_change"}, {"time": 1094, "annotation": {"number": 64, "value": 127}, "group": "control_change"}, {"time": 1114, "annotation": {"number": 64, "value": 0}, "group": "control_change"}, {"time": 1118, "annotation": {"number": 64, "value": 127}, "group": "control_change"}, {"time": 1140, "annotation": {"number": 64, "value": 0}, "group": "control_change"}, {"time": 1141, "annotation": {"number": 64, "value": 127}, "group": "control_change"}, {"time": 1164, "annotation": {"number": 64, "value": 0}, "group": "control_change"}, {"time": 1166, "annotation": {"number": 64, "value": 127}, "group": "control_change"}, {"time": 1187, "annotation": {"number": 64, "value": 0}, "group": "control_change"}, {"time": 1190, "annotation": {"number": 64, "value": 127}, "group": "control_change"}, {"time": 1212, "annotation": {"number": 64, "value": 0}, "group": "control_change"}, {"time": 1214, "annotation": {"number": 64, "value": 127}, "group": "control_change"}, {"time": 1236, "annotation": {"number": 64, "value": 0}, "group": "control_change"}, {"time": 1262, "annotation": {"number": 64, "value": 127}, "group": "control_change"}, {"time": 1284, "annotation": {"number": 64, "value": 0}, "group": "control_change"}, {"time": 1286, "annotation": {"number": 64, "value": 127}, "group": "control_change"}, {"time": 1308, "annotation": {"number": 64, "value": 0}, "group": "control_change"}, {"time": 1310, "annotation": {"number": 64, "value": 127}, "group": "control_change"}, {"time": 1332, "annotation": {"number": 64, "value": 0}, "group": "control_change"}, {"time": 1334, "annotation": {"number": 64, "value": 127}, "group": "control_change"}, {"time": 1356, "annotation": {"number": 64, "value": 0}, "group": "control_change"}, {"time": 1358, "annotation": {"number": 64, "value": 127}, "group": "control_change"}, {"time": 1380, "annotation": {"number": 64, "value": 0}, "group": "control_change"}, {"time": 1382, "annotation": {"number": 64, "value": 127}, "group": "control_change"}, {"time": 1404, "annotation": {"number": 64, "value": 0}, "group": "control_change"}, {"time": 1406, "annotation": {"number": 64, "value": 127}, "group": "control_change"}, {"time": 1428, "annotation": {"number": 64, "value": 0}, "group": "control_change"}, {"time": 1430, "annotation": {"number": 64, "value": 127}, "group": "control_change"}, {"time": 1451, "annotation": {"number": 64, "value": 0}, "group": "control_change"}, {"time": 1454, "annotation": {"number": 64, "value": 127}, "group": "control_change"}, {"time": 1476, "annotation": {"number": 64, "value": 0}, "group": "control_change"}, {"time": 1478, "annotation": {"number": 64, "value": 127}, "group": "control_change"}, {"time": 1500, "annotation": {"number": 64, "value": 0}, "group": "control_change"}, {"time": 1502, "annotation": {"number": 64, "value": 127}, "group": "control_change"}, {"time": 1524, "annotation": {"number": 64, "value": 0}, "group": "control_change"}, {"time": 1526, "annotation": {"number": 64, "value": 127}, "group": "control_change"}, {"time": 1548, "annotation": {"number": 64, "value": 0}, "group": "control_change"}, {"time": 1550, "annotation": {"number": 64, "value": 127}, "group": "control_change"}, {"time": 1572, "annotation": {"number": 64, "value": 0}, "group": "control_change"}, {"time": 1574, "annotation": {"number": 64, "value": 127}, "group": "control_change"}, {"time": 1596, "annotation": {"number": 64, "value": 0}, "group": "control_change"}, {"time": 1598, "annotation": {"number": 64, "value": 127}, "group": "control_change"}, {"time": 1599, "annotation": {"number": 64, "value": 127}, "group": "control_change"}, {"time": 1608, "annotation": {"number": 64, "value": 0}, "group": "control_change"}, {"time": 1610, "annotation": {"number": 64, "value": 127}, "group": "control_change"}, {"time": 1620, "annotation": {"number": 64, "value": 0}, "group": "control_change"}, {"time": 1622, "annotation": {"number": 64, "value": 127}, "group": "control_change"}, {"time": 1646, "annotation": {"number": 64, "value": 0}, "group": "control_change"}, {"time": 1646, "annotation": {"number": 64, "value": 127}, "group": "control_change"}, {"time": 1668, "annotation": {"number": 64, "value": 0}, "group": "control_change"}, {"time": 1670, "annotation": {"number": 64, "value": 127}, "group": "control_change"}, {"time": 1693, "annotation": {"number": 64, "value": 0}, "group": "control_change"}, {"time": 1694, "annotation": {"number": 64, "value": 127}, "group": "control_change"}, {"time": 1716, "annotation": {"number": 64, "value": 0}, "group": "control_change"}, {"time": 1718, "annotation": {"number": 64, "value": 127}, "group": "control_change"}, {"time": 1740, "annotation": {"number": 64, "value": 0}, "group": "control_change"}, {"time": 1742, "annotation": {"number": 64, "value": 127}, "group": "control_change"}, {"time": 1764, "annotation": {"number": 64, "value": 0}, "group": "control_change"}, {"time": 1766, "annotation": {"number": 64, "value": 127}, "group": "control_change"}, {"time": 1788, "annotation": {"number": 64, "value": 0}, "group": "control_change"}, {"time": 1790, "annotation": {"number": 64, "value": 127}, "group": "control_change"}, {"time": 1812, "annotation": {"number": 64, "value": 0}, "group": "control_change"}, {"time": 1814, "annotation": {"number": 64, "value": 127}, "group": "control_change"}, {"time": 1836, "annotation": {"number": 64, "value": 0}, "group": "control_change"}, {"time": 1839, "annotation": {"number": 64, "value": 127}, "group": "control_change"}, {"time": 1860, "annotation": {"number": 64, "value": 0}, "group": "control_change"}, {"time": 1862, "annotation": {"number": 64, "value": 127}, "group": "control_change"}, {"time": 1884, "annotation": {"number": 64, "value": 0}, "group": "control_change"}, {"time": 1887, "annotation": {"number": 64, "value": 127}, "group": "control_change"}, {"time": 1908, "annotation": {"number": 64, "value": 0}, "group": "control_change"}, {"time": 1911, "annotation": {"number": 64, "value": 127}, "group": "control_change"}, {"time": 1932, "annotation": {"number": 64, "value": 0}, "group": "control_change"}, {"time": 1935, "annotation": {"number": 64, "value": 127}, "group": "control_change"}, {"time": 1957, "annotation": {"number": 64, "value": 0}, "group": "control_change"}, {"time": 1958, "annotation": {"number": 64, "value": 127}, "group": "control_change"}, {"time": 1980, "annotation": {"number": 64, "value": 0}, "group": "control_change"}, {"time": 1982, "annotation": {"number": 64, "value": 127}, "group": "control_change"}, {"time": 1993, "annotation": {"number": 64, "value": 0}, "group": "control_change"}, {"time": 1995, "annotation": {"number": 64, "value": 127}, "group": "control_change"}, {"time": 2005, "annotation": {"number": 64, "value": 0}, "group": "control_change"}, {"time": 2007, "annotation": {"number": 64, "value": 127}, "group": "control_change"}, {"time": 2030, "annotation": {"number": 64, "value": 127}, "group": "control_change"}, {"time": 2052, "annotation": {"number": 64, "value": 0}, "group": "control_change"}, {"time": 2055, "annotation": {"number": 64, "value": 127}, "group": "control_change"}, {"time": 2076, "annotation": {"number": 64, "value": 0}, "group": "control_change"}, {"time": 2078, "annotation": {"number": 64, "value": 127}, "group": "control_change"}, {"time": 2099, "annotation": {"number": 64, "value": 0}, "group": "control_change"}, {"time": 2102, "annotation": {"number": 64, "value": 127}, "group": "control_change"}, {"time": 2125, "annotation": {"number": 64, "value": 0}, "group": "control_change"}, {"time": 2127, "annotation": {"number": 64, "value": 127}, "group": "control_change"}, {"time": 2147, "annotation": {"number": 64, "value": 0}, "group": "control_change"}, {"time": 2150, "annotation": {"number": 64, "value": 127}, "group": "control_change"}, {"time": 2172, "annotation": {"number": 64, "value": 0}, "group": "control_change"}, {"time": 2174, "annotation": {"number": 64, "value": 127}, "group": "control_change"}, {"time": 2195, "annotation": {"number": 64, "value": 0}, "group": "control_change"}, {"time": 2198, "annotation": {"number": 64, "value": 127}, "group": "control_change"}, {"time": 2219, "annotation": {"number": 64, "value": 0}, "group": "control_change"}, {"time": 2222, "annotation": {"number": 64, "value": 127}, "group": "control_change"}, {"time": 2243, "annotation": {"number": 64, "value": 0}, "group": "control_change"}, {"time": 2246, "annotation": {"number": 64, "value": 127}, "group": "control_change"}, {"time": 2266, "annotation": {"number": 64, "value": 0}, "group": "control_change"}, {"time": 2270, "annotation": {"number": 64, "value": 127}, "group": "control_change"}, {"time": 2292, "annotation": {"number": 64, "value": 0}, "group": "control_change"}, {"time": 2293, "annotation": {"number": 64, "value": 127}, "group": "control_change"}, {"time": 2316, "annotation": {"number": 64, "value": 0}, "group": "control_change"}, {"time": 2318, "annotation": {"number": 64, "value": 127}, "group": "control_change"}, {"time": 2339, "annotation": {"number": 64, "value": 0}, "group": "control_change"}, {"time": 2342, "annotation": {"number": 64, "value": 127}, "group": "control_change"}, {"time": 2364, "annotation": {"number": 64, "value": 0}, "group": "control_change"}, {"time": 2366, "annotation": {"number": 64, "value": 127}, "group": "control_change"}, {"time": 2388, "annotation": {"number": 64, "value": 0}, "group": "control_change"}, {"time": 2414, "annotation": {"number": 64, "value": 127}, "group": "control_change"}, {"time": 2436, "annotation": {"number": 64, "value": 0}, "group": "control_change"}, {"time": 2438, "annotation": {"number": 64, "value": 127}, "group": "control_change"}, {"time": 2460, "annotation": {"number": 64, "value": 0}, "group": "control_change"}, {"time": 2462, "annotation": {"number": 64, "value": 127}, "group": "control_change"}, {"time": 2484, "annotation": {"number": 64, "value": 0}, "group": "control_change"}, {"time": 2486, "annotation": {"number": 64, "value": 127}, "group": "control_change"}, {"time": 2508, "annotation": {"number": 64, "value": 0}, "group": "control_change"}, {"time": 2510, "annotation": {"number": 64, "value": 127}, "group": "control_change"}, {"time": 2532, "annotation": {"number": 64, "value": 0}, "group": "control_change"}, {"time": 2534, "annotation": {"number": 64, "value": 127}, "group": "control_change"}, {"time": 2556, "annotation": {"number": 64, "value": 0}, "group": "control_change"}, {"time": 2558, "annotation": {"number": 64, "value": 127}, "group": "control_change"}, {"time": 2580, "annotation": {"number": 64, "value": 0}, "group": "control_change"}, {"time": 2582, "annotation": {"number": 64, "value": 127}, "group": "control_change"}, {"time": 2603, "annotation": {"number": 64, "value": 0}, "group": "control_change"}, {"time": 2606, "annotation": {"number": 64, "value": 127}, "group": "control_change"}, {"time": 2628, "annotation": {"number": 64, "value": 0}, "group": "control_change"}, {"time": 2630, "annotation": {"number": 64, "value": 127}, "group": "control_change"}, {"time": 2652, "annotation": {"number": 64, "value": 0}, "group": "control_change"}, {"time": 2654, "annotation": {"number": 64, "value": 127}, "group": "control_change"}, {"time": 2676, "annotation": {"number": 64, "value": 0}, "group": "control_change"}, {"time": 2678, "annotation": {"number": 64, "value": 127}, "group": "control_change"}, {"time": 2700, "annotation": {"number": 64, "value": 0}, "group": "control_change"}, {"time": 2702, "annotation": {"number": 64, "value": 127}, "group": "control_change"}, {"time": 2724, "annotation": {"number": 64, "value": 0}, "group": "control_change"}, {"time": 2726, "annotation": {"number": 64, "value": 127}, "group": "control_change"}, {"time": 2748, "annotation": {"number": 64, "value": 0}, "group": "control_change"}, {"time": 2750, "annotation": {"number": 64, "value": 127}, "group": "control_change"}, {"time": 2751, "annotation": {"number": 64, "value": 127}, "group": "control_change"}, {"time": 2760, "annotation": {"number": 64, "value": 0}, "group": "control_change"}, {"time": 2762, "annotation": {"number": 64, "value": 127}, "group": "control_change"}, {"time": 2772, "annotation": {"number": 64, "value": 0}, "group": "control_change"}, {"time": 2774, "annotation": {"number": 64, "value": 127}, "group": "control_change"}, {"time": 2798, "annotation": {"number": 64, "value": 0}, "group": "control_change"}, {"time": 2798, "annotation": {"number": 64, "value": 127}, "group": "control_change"}, {"time": 2806, "annotation": {"number": 64, "value": 127}, "group": "control_change"}, {"time": 2820, "annotation": {"number": 64, "value": 0}, "group": "control_change"}, {"time": 2822, "annotation": {"number": 64, "value": 127}, "group": "control_change"}, {"time": 2844, "annotation": {"number": 64, "value": 0}, "group": "control_change"}, {"time": 2846, "annotation": {"number": 64, "value": 127}, "group": "control_change"}, {"time": 2868, "annotation": {"number": 64, "value": 0}, "group": "control_change"}, {"time": 2870, "annotation": {"number": 64, "value": 127}, "group": "control_change"}, {"time": 2892, "annotation": {"number": 64, "value": 0}, "group": "control_change"}, {"time": 2894, "annotation": {"number": 64, "value": 127}, "group": "control_change"}, {"time": 2917, "annotation": {"number": 64, "value": 0}, "group": "control_change"}, {"time": 2919, "annotation": {"number": 64, "value": 127}, "group": "control_change"}, {"time": 2941, "annotation": {"number": 64, "value": 0}, "group": "control_change"}, {"time": 2943, "annotation": {"number": 64, "value": 127}, "group": "control_change"}, {"time": 2964, "annotation": {"number": 64, "value": 0}, "group": "control_change"}, {"time": 2966, "annotation": {"number": 64, "value": 127}, "group": "control_change"}, {"time": 2988, "annotation": {"number": 64, "value": 0}, "group": "control_change"}, {"time": 2990, "annotation": {"number": 64, "value": 127}, "group": "control_change"}, {"time": 3012, "annotation": {"number": 64, "value": 0}, "group": "control_change"}, {"time": 3014, "annotation": {"number": 64, "value": 127}, "group": "control_change"}, {"time": 3036, "annotation": {"number": 64, "value": 0}, "group": "control_change"}, {"time": 3038, "annotation": {"number": 64, "value": 127}, "group": "control_change"}, {"time": 3060, "annotation": {"number": 64, "value": 0}, "group": "control_change"}, {"time": 3062, "annotation": {"number": 64, "value": 127}, "group": "control_change"}, {"time": 3084, "annotation": {"number": 64, "value": 0}, "group": "control_change"}, {"time": 3086, "annotation": {"number": 64, "value": 127}, "group": "control_change"}, {"time": 3108, "annotation": {"number": 64, "value": 0}, "group": "control_change"}, {"time": 3110, "annotation": {"number": 64, "value": 127}, "group": "control_change"}, {"time": 3132, "annotation": {"number": 64, "value": 0}, "group": "control_change"}, {"time": 3134, "annotation": {"number": 64, "value": 127}, "group": "control_change"}, {"time": 3135, "annotation": {"number": 64, "value": 127}, "group": "control_change"}, {"time": 3144, "annotation": {"number": 64, "value": 0}, "group": "control_change"}, {"time": 3146, "annotation": {"number": 64, "value": 127}, "group": "control_change"}, {"time": 3156, "annotation": {"number": 64, "value": 0}, "group": "control_change"}, {"time": 3160, "annotation": {"number": 64, "value": 127}, "group": "control_change"}, {"time": 3212, "annotation": {"number": 64, "value": 127}, "group": "control_change"}, {"time": 3231, "annotation": {"number": 64, "value": 0}, "group": "control_change"}, {"time": 3278, "annotation": {"number": 64, "value": 127}, "group": "control_change"}, {"time": 3299, "annotation": {"number": 64, "value": 0}, "group": "control_change"}, {"time": 3303, "annotation": {"number": 64, "value": 127}, "group": "control_change"}, {"time": 3323, "annotation": {"number": 64, "value": 0}, "group": "control_change"}, {"time": 3328, "annotation": {"number": 64, "value": 127}, "group": "control_change"}, {"time": 3454, "annotation": {"number": 64, "value": 0}, "group": "control_change"}, {"time": 3454, "annotation": {"number": 64, "value": 127}, "group": "control_change"}, {"time": 3456, "annotation": {"number": 64, "value": 0}, "group": "control_change"}, {"time": 3456, "annotation": {"number": 64, "value": 127}, "group": "control_change"}, {"time": 3461, "annotation": {"number": 64, "value": 0}, "group": "control_change"}]}]}