{"metadata": {"schema_version": "0.2", "title": "None", "source_filename": "734.mid", "source_format": "midi"}, "resolution": 12, "tempos": [{"time": 0, "qpm": 61.99999586666694}], "time_signatures": [{"time": 0, "numerator": 1, "denominator": 4}], "tracks": [{"program": 0, "is_drum": false, "name": "MELODY", "notes": [{"time": 517, "pitch": 68, "duration": 3, "velocity": 107}, {"time": 520, "pitch": 73, "duration": 2, "velocity": 83}, {"time": 523, "pitch": 73, "duration": 1, "velocity": 93}, {"time": 526, "pitch": 73, "duration": 1, "velocity": 99}, {"time": 529, "pitch": 73, "duration": 6, "velocity": 112}, {"time": 535, "pitch": 71, "duration": 3, "velocity": 96}, {"time": 538, "pitch": 73, "duration": 2, "velocity": 102}, {"time": 541, "pitch": 73, "duration": 15, "velocity": 112}, {"time": 565, "pitch": 71, "duration": 2, "velocity": 92}, {"time": 568, "pitch": 71, "duration": 1, "velocity": 71}, {"time": 571, "pitch": 71, "duration": 1, "velocity": 71}, {"time": 574, "pitch": 71, "duration": 1, "velocity": 73}, {"time": 577, "pitch": 71, "duration": 4, "velocity": 90}, {"time": 583, "pitch": 66, "duration": 4, "velocity": 89}, {"time": 589, "pitch": 68, "duration": 5, "velocity": 86}, {"time": 613, "pitch": 68, "duration": 3, "velocity": 92}, {"time": 619, "pitch": 73, "duration": 2, "velocity": 93}, {"time": 622, "pitch": 73, "duration": 1, "velocity": 93}, {"time": 625, "pitch": 73, "duration": 4, "velocity": 102}, {"time": 631, "pitch": 68, "duration": 1, "velocity": 92}, {"time": 634, "pitch": 68, "duration": 1, "velocity": 78}, {"time": 637, "pitch": 68, "duration": 6, "velocity": 85}, {"time": 646, "pitch": 66, "duration": 2, "velocity": 74}, {"time": 649, "pitch": 66, "duration": 8, "velocity": 79}, {"time": 661, "pitch": 66, "duration": 4, "velocity": 89}, {"time": 667, "pitch": 66, "duration": 1, "velocity": 90}, {"time": 670, "pitch": 66, "duration": 2, "velocity": 88}, {"time": 673, "pitch": 71, "duration": 4, "velocity": 89}, {"time": 679, "pitch": 68, "duration": 2, "velocity": 96}, {"time": 682, "pitch": 66, "duration": 2, "velocity": 71}, {"time": 685, "pitch": 68, "duration": 16, "velocity": 97}, {"time": 709, "pitch": 68, "duration": 5, "velocity": 88}, {"time": 715, "pitch": 73, "duration": 2, "velocity": 90}, {"time": 718, "pitch": 73, "duration": 2, "velocity": 78}, {"time": 721, "pitch": 76, "duration": 4, "velocity": 76}, {"time": 727, "pitch": 75, "duration": 3, "velocity": 112}, {"time": 730, "pitch": 71, "duration": 3, "velocity": 73}, {"time": 733, "pitch": 73, "duration": 18, "velocity": 93}, {"time": 757, "pitch": 71, "duration": 1, "velocity": 90}, {"time": 760, "pitch": 71, "duration": 1, "velocity": 74}, {"time": 763, "pitch": 71, "duration": 2, "velocity": 88}, {"time": 766, "pitch": 68, "duration": 2, "velocity": 100}, {"time": 769, "pitch": 66, "duration": 2, "velocity": 85}, {"time": 772, "pitch": 68, "duration": 2, "velocity": 95}, {"time": 775, "pitch": 70, "duration": 4, "velocity": 89}, {"time": 781, "pitch": 68, "duration": 14, "velocity": 90}, {"time": 805, "pitch": 68, "duration": 1, "velocity": 112}, {"time": 808, "pitch": 73, "duration": 3, "velocity": 96}, {"time": 814, "pitch": 73, "duration": 1, "velocity": 93}, {"time": 817, "pitch": 73, "duration": 2, "velocity": 99}, {"time": 823, "pitch": 68, "duration": 1, "velocity": 100}, {"time": 826, "pitch": 68, "duration": 1, "velocity": 92}, {"time": 829, "pitch": 68, "duration": 7, "velocity": 100}, {"time": 841, "pitch": 66, "duration": 7, "velocity": 85}, {"time": 850, "pitch": 59, "duration": 2, "velocity": 75}, {"time": 853, "pitch": 63, "duration": 2, "velocity": 86}, {"time": 856, "pitch": 63, "duration": 1, "velocity": 77}, {"time": 859, "pitch": 63, "duration": 2, "velocity": 99}, {"time": 862, "pitch": 64, "duration": 3, "velocity": 73}, {"time": 865, "pitch": 66, "duration": 5, "velocity": 95}, {"time": 868, "pitch": 64, "duration": 2, "velocity": 85}, {"time": 874, "pitch": 63, "duration": 2, "velocity": 74}, {"time": 877, "pitch": 61, "duration": 16, "velocity": 77}, {"time": 901, "pitch": 64, "duration": 2, "velocity": 77}, {"time": 904, "pitch": 64, "duration": 1, "velocity": 69}, {"time": 907, "pitch": 64, "duration": 2, "velocity": 69}, {"time": 910, "pitch": 61, "duration": 3, "velocity": 78}, {"time": 913, "pitch": 64, "duration": 4, "velocity": 75}, {"time": 919, "pitch": 66, "duration": 5, "velocity": 82}, {"time": 925, "pitch": 68, "duration": 2, "velocity": 93}, {"time": 928, "pitch": 71, "duration": 3, "velocity": 77}, {"time": 931, "pitch": 66, "duration": 3, "velocity": 81}, {"time": 934, "pitch": 71, "duration": 3, "velocity": 77}, {"time": 937, "pitch": 68, "duration": 9, "velocity": 96}, {"time": 949, "pitch": 73, "duration": 1, "velocity": 112}, {"time": 952, "pitch": 73, "duration": 1, "velocity": 83}, {"time": 955, "pitch": 73, "duration": 2, "velocity": 97}, {"time": 958, "pitch": 71, "duration": 2, "velocity": 86}, {"time": 961, "pitch": 66, "duration": 4, "velocity": 83}, {"time": 964, "pitch": 68, "duration": 3, "velocity": 81}, {"time": 967, "pitch": 70, "duration": 6, "velocity": 86}, {"time": 973, "pitch": 68, "duration": 9, "velocity": 97}, {"time": 997, "pitch": 68, "duration": 4, "velocity": 97}, {"time": 1003, "pitch": 73, "duration": 4, "velocity": 99}, {"time": 1009, "pitch": 73, "duration": 4, "velocity": 97}, {"time": 1015, "pitch": 68, "duration": 5, "velocity": 96}, {"time": 1021, "pitch": 66, "duration": 3, "velocity": 95}, {"time": 1024, "pitch": 68, "duration": 4, "velocity": 107}, {"time": 1030, "pitch": 66, "duration": 1, "velocity": 97}, {"time": 1033, "pitch": 66, "duration": 5, "velocity": 107}, {"time": 1042, "pitch": 68, "duration": 1, "velocity": 95}, {"time": 1045, "pitch": 71, "duration": 1, "velocity": 77}, {"time": 1048, "pitch": 71, "duration": 1, "velocity": 81}, {"time": 1051, "pitch": 71, "duration": 1, "velocity": 85}, {"time": 1054, "pitch": 68, "duration": 2, "velocity": 95}, {"time": 1057, "pitch": 71, "duration": 2, "velocity": 93}, {"time": 1063, "pitch": 73, "duration": 2, "velocity": 107}, {"time": 1069, "pitch": 73, "duration": 20, "velocity": 97}, {"time": 1117, "pitch": 73, "duration": 6, "velocity": 112}, {"time": 1126, "pitch": 76, "duration": 3, "velocity": 95}, {"time": 1129, "pitch": 73, "duration": 3, "velocity": 93}, {"time": 1135, "pitch": 80, "duration": 3, "velocity": 112}, {"time": 1138, "pitch": 78, "duration": 3, "velocity": 102}, {"time": 1141, "pitch": 76, "duration": 9, "velocity": 93}, {"time": 1165, "pitch": 75, "duration": 6, "velocity": 112}, {"time": 1174, "pitch": 75, "duration": 1, "velocity": 99}, {"time": 1177, "pitch": 75, "duration": 4, "velocity": 95}, {"time": 1183, "pitch": 73, "duration": 3, "velocity": 99}, {"time": 1186, "pitch": 71, "duration": 3, "velocity": 86}, {"time": 1189, "pitch": 73, "duration": 20, "velocity": 112}, {"time": 1213, "pitch": 68, "duration": 3, "velocity": 102}, {"time": 1216, "pitch": 73, "duration": 4, "velocity": 93}, {"time": 1222, "pitch": 73, "duration": 2, "velocity": 95}, {"time": 1225, "pitch": 73, "duration": 3, "velocity": 102}, {"time": 1231, "pitch": 68, "duration": 4, "velocity": 102}, {"time": 1237, "pitch": 66, "duration": 2, "velocity": 102}, {"time": 1240, "pitch": 68, "duration": 4, "velocity": 96}, {"time": 1246, "pitch": 66, "duration": 2, "velocity": 95}, {"time": 1249, "pitch": 66, "duration": 4, "velocity": 112}, {"time": 1261, "pitch": 66, "duration": 1, "velocity": 107}, {"time": 1264, "pitch": 66, "duration": 2, "velocity": 86}, {"time": 1267, "pitch": 66, "duration": 2, "velocity": 96}, {"time": 1270, "pitch": 64, "duration": 3, "velocity": 82}, {"time": 1273, "pitch": 66, "duration": 5, "velocity": 99}, {"time": 1279, "pitch": 71, "duration": 3, "velocity": 100}, {"time": 1282, "pitch": 73, "duration": 3, "velocity": 86}, {"time": 1285, "pitch": 68, "duration": 10, "velocity": 107}, {"time": 1309, "pitch": 73, "duration": 6, "velocity": 117}, {"time": 1318, "pitch": 76, "duration": 3, "velocity": 99}, {"time": 1321, "pitch": 73, "duration": 3, "velocity": 102}, {"time": 1327, "pitch": 80, "duration": 3, "velocity": 127}, {"time": 1330, "pitch": 78, "duration": 3, "velocity": 99}, {"time": 1333, "pitch": 76, "duration": 13, "velocity": 100}, {"time": 1357, "pitch": 75, "duration": 6, "velocity": 122}, {"time": 1366, "pitch": 75, "duration": 1, "velocity": 99}, {"time": 1369, "pitch": 75, "duration": 4, "velocity": 107}, {"time": 1375, "pitch": 73, "duration": 3, "velocity": 112}, {"time": 1378, "pitch": 71, "duration": 2, "velocity": 83}, {"time": 1381, "pitch": 73, "duration": 16, "velocity": 117}, {"time": 1402, "pitch": 71, "duration": 2, "velocity": 97}, {"time": 1405, "pitch": 73, "duration": 3, "velocity": 122}, {"time": 1411, "pitch": 76, "duration": 2, "velocity": 100}, {"time": 1414, "pitch": 76, "duration": 2, "velocity": 95}, {"time": 1417, "pitch": 76, "duration": 3, "velocity": 102}, {"time": 1423, "pitch": 73, "duration": 2, "velocity": 100}, {"time": 1426, "pitch": 73, "duration": 2, "velocity": 95}, {"time": 1429, "pitch": 78, "duration": 2, "velocity": 102}, {"time": 1432, "pitch": 80, "duration": 5, "velocity": 112}, {"time": 1438, "pitch": 78, "duration": 2, "velocity": 112}, {"time": 1441, "pitch": 78, "duration": 5, "velocity": 112}, {"time": 1450, "pitch": 73, "duration": 2, "velocity": 93}, {"time": 1453, "pitch": 75, "duration": 1, "velocity": 112}, {"time": 1456, "pitch": 75, "duration": 1, "velocity": 93}, {"time": 1459, "pitch": 75, "duration": 2, "velocity": 102}, {"time": 1462, "pitch": 73, "duration": 2, "velocity": 117}, {"time": 1465, "pitch": 71, "duration": 3, "velocity": 100}, {"time": 1471, "pitch": 73, "duration": 4, "velocity": 107}, {"time": 1477, "pitch": 73, "duration": 12, "velocity": 122}, {"time": 1909, "pitch": 68, "duration": 5, "velocity": 88}, {"time": 1915, "pitch": 73, "duration": 2, "velocity": 90}, {"time": 1918, "pitch": 73, "duration": 2, "velocity": 78}, {"time": 1921, "pitch": 76, "duration": 4, "velocity": 76}, {"time": 1927, "pitch": 75, "duration": 3, "velocity": 112}, {"time": 1930, "pitch": 71, "duration": 3, "velocity": 73}, {"time": 1933, "pitch": 73, "duration": 18, "velocity": 93}, {"time": 1957, "pitch": 71, "duration": 1, "velocity": 90}, {"time": 1960, "pitch": 71, "duration": 1, "velocity": 74}, {"time": 1963, "pitch": 71, "duration": 2, "velocity": 88}, {"time": 1966, "pitch": 68, "duration": 2, "velocity": 100}, {"time": 1969, "pitch": 66, "duration": 2, "velocity": 85}, {"time": 1972, "pitch": 68, "duration": 2, "velocity": 95}, {"time": 1975, "pitch": 70, "duration": 4, "velocity": 89}, {"time": 1981, "pitch": 68, "duration": 14, "velocity": 90}, {"time": 2005, "pitch": 68, "duration": 1, "velocity": 112}, {"time": 2008, "pitch": 73, "duration": 3, "velocity": 96}, {"time": 2014, "pitch": 73, "duration": 1, "velocity": 93}, {"time": 2017, "pitch": 73, "duration": 2, "velocity": 99}, {"time": 2023, "pitch": 68, "duration": 1, "velocity": 100}, {"time": 2026, "pitch": 68, "duration": 1, "velocity": 92}, {"time": 2029, "pitch": 68, "duration": 7, "velocity": 100}, {"time": 2041, "pitch": 66, "duration": 7, "velocity": 85}, {"time": 2050, "pitch": 59, "duration": 2, "velocity": 75}, {"time": 2053, "pitch": 63, "duration": 2, "velocity": 86}, {"time": 2056, "pitch": 63, "duration": 1, "velocity": 77}, {"time": 2059, "pitch": 63, "duration": 2, "velocity": 99}, {"time": 2062, "pitch": 64, "duration": 3, "velocity": 73}, {"time": 2065, "pitch": 66, "duration": 5, "velocity": 95}, {"time": 2068, "pitch": 64, "duration": 2, "velocity": 85}, {"time": 2074, "pitch": 63, "duration": 2, "velocity": 74}, {"time": 2077, "pitch": 61, "duration": 16, "velocity": 77}, {"time": 2101, "pitch": 64, "duration": 2, "velocity": 77}, {"time": 2104, "pitch": 64, "duration": 1, "velocity": 69}, {"time": 2107, "pitch": 64, "duration": 2, "velocity": 69}, {"time": 2110, "pitch": 61, "duration": 3, "velocity": 78}, {"time": 2113, "pitch": 64, "duration": 4, "velocity": 75}, {"time": 2119, "pitch": 66, "duration": 5, "velocity": 82}, {"time": 2125, "pitch": 68, "duration": 2, "velocity": 93}, {"time": 2128, "pitch": 71, "duration": 3, "velocity": 77}, {"time": 2131, "pitch": 66, "duration": 3, "velocity": 81}, {"time": 2134, "pitch": 71, "duration": 3, "velocity": 77}, {"time": 2137, "pitch": 68, "duration": 9, "velocity": 96}, {"time": 2149, "pitch": 73, "duration": 1, "velocity": 112}, {"time": 2152, "pitch": 73, "duration": 1, "velocity": 83}, {"time": 2155, "pitch": 73, "duration": 2, "velocity": 97}, {"time": 2158, "pitch": 71, "duration": 2, "velocity": 86}, {"time": 2161, "pitch": 66, "duration": 4, "velocity": 83}, {"time": 2164, "pitch": 68, "duration": 3, "velocity": 81}, {"time": 2167, "pitch": 70, "duration": 6, "velocity": 86}, {"time": 2173, "pitch": 68, "duration": 9, "velocity": 97}, {"time": 2197, "pitch": 68, "duration": 4, "velocity": 97}, {"time": 2203, "pitch": 73, "duration": 4, "velocity": 99}, {"time": 2209, "pitch": 73, "duration": 4, "velocity": 97}, {"time": 2215, "pitch": 68, "duration": 5, "velocity": 96}, {"time": 2221, "pitch": 66, "duration": 3, "velocity": 95}, {"time": 2224, "pitch": 68, "duration": 4, "velocity": 107}, {"time": 2230, "pitch": 66, "duration": 1, "velocity": 97}, {"time": 2233, "pitch": 66, "duration": 5, "velocity": 107}, {"time": 2242, "pitch": 68, "duration": 1, "velocity": 95}, {"time": 2245, "pitch": 71, "duration": 1, "velocity": 77}, {"time": 2248, "pitch": 71, "duration": 1, "velocity": 81}, {"time": 2251, "pitch": 71, "duration": 1, "velocity": 85}, {"time": 2254, "pitch": 68, "duration": 2, "velocity": 95}, {"time": 2257, "pitch": 71, "duration": 2, "velocity": 93}, {"time": 2263, "pitch": 73, "duration": 2, "velocity": 107}, {"time": 2269, "pitch": 73, "duration": 20, "velocity": 97}, {"time": 2317, "pitch": 73, "duration": 6, "velocity": 112}, {"time": 2326, "pitch": 76, "duration": 3, "velocity": 95}, {"time": 2329, "pitch": 73, "duration": 3, "velocity": 93}, {"time": 2335, "pitch": 80, "duration": 3, "velocity": 112}, {"time": 2338, "pitch": 78, "duration": 3, "velocity": 102}, {"time": 2341, "pitch": 76, "duration": 9, "velocity": 93}, {"time": 2365, "pitch": 75, "duration": 6, "velocity": 112}, {"time": 2374, "pitch": 75, "duration": 1, "velocity": 99}, {"time": 2377, "pitch": 75, "duration": 4, "velocity": 95}, {"time": 2383, "pitch": 73, "duration": 3, "velocity": 99}, {"time": 2386, "pitch": 71, "duration": 3, "velocity": 86}, {"time": 2389, "pitch": 73, "duration": 20, "velocity": 112}, {"time": 2413, "pitch": 68, "duration": 3, "velocity": 102}, {"time": 2416, "pitch": 73, "duration": 4, "velocity": 93}, {"time": 2422, "pitch": 73, "duration": 2, "velocity": 95}, {"time": 2425, "pitch": 73, "duration": 3, "velocity": 102}, {"time": 2431, "pitch": 68, "duration": 4, "velocity": 102}, {"time": 2437, "pitch": 66, "duration": 2, "velocity": 102}, {"time": 2440, "pitch": 68, "duration": 4, "velocity": 96}, {"time": 2446, "pitch": 66, "duration": 2, "velocity": 95}, {"time": 2449, "pitch": 66, "duration": 4, "velocity": 112}, {"time": 2461, "pitch": 66, "duration": 1, "velocity": 107}, {"time": 2464, "pitch": 66, "duration": 2, "velocity": 86}, {"time": 2467, "pitch": 66, "duration": 2, "velocity": 96}, {"time": 2470, "pitch": 64, "duration": 3, "velocity": 82}, {"time": 2473, "pitch": 66, "duration": 5, "velocity": 99}, {"time": 2479, "pitch": 71, "duration": 3, "velocity": 100}, {"time": 2482, "pitch": 73, "duration": 3, "velocity": 86}, {"time": 2485, "pitch": 68, "duration": 10, "velocity": 107}, {"time": 2509, "pitch": 73, "duration": 6, "velocity": 117}, {"time": 2518, "pitch": 76, "duration": 3, "velocity": 99}, {"time": 2521, "pitch": 73, "duration": 3, "velocity": 102}, {"time": 2527, "pitch": 80, "duration": 3, "velocity": 127}, {"time": 2530, "pitch": 78, "duration": 3, "velocity": 99}, {"time": 2533, "pitch": 76, "duration": 13, "velocity": 100}, {"time": 2557, "pitch": 75, "duration": 6, "velocity": 122}, {"time": 2566, "pitch": 75, "duration": 1, "velocity": 99}, {"time": 2569, "pitch": 75, "duration": 4, "velocity": 107}, {"time": 2575, "pitch": 73, "duration": 3, "velocity": 112}, {"time": 2578, "pitch": 71, "duration": 2, "velocity": 83}, {"time": 2581, "pitch": 73, "duration": 16, "velocity": 117}, {"time": 2602, "pitch": 71, "duration": 2, "velocity": 97}, {"time": 2605, "pitch": 73, "duration": 3, "velocity": 122}, {"time": 2611, "pitch": 76, "duration": 2, "velocity": 100}, {"time": 2614, "pitch": 76, "duration": 2, "velocity": 95}, {"time": 2617, "pitch": 76, "duration": 3, "velocity": 102}, {"time": 2623, "pitch": 73, "duration": 2, "velocity": 100}, {"time": 2626, "pitch": 73, "duration": 2, "velocity": 95}, {"time": 2629, "pitch": 78, "duration": 2, "velocity": 102}, {"time": 2632, "pitch": 80, "duration": 5, "velocity": 112}, {"time": 2638, "pitch": 78, "duration": 2, "velocity": 112}, {"time": 2641, "pitch": 78, "duration": 5, "velocity": 112}, {"time": 2650, "pitch": 73, "duration": 2, "velocity": 93}, {"time": 2653, "pitch": 75, "duration": 1, "velocity": 112}, {"time": 2656, "pitch": 75, "duration": 1, "velocity": 93}, {"time": 2659, "pitch": 75, "duration": 2, "velocity": 102}, {"time": 2662, "pitch": 73, "duration": 2, "velocity": 117}, {"time": 2665, "pitch": 71, "duration": 3, "velocity": 100}, {"time": 2671, "pitch": 73, "duration": 4, "velocity": 107}, {"time": 2677, "pitch": 73, "duration": 12, "velocity": 122}, {"time": 2725, "pitch": 73, "duration": 6, "velocity": 112}, {"time": 2734, "pitch": 76, "duration": 3, "velocity": 95}, {"time": 2737, "pitch": 73, "duration": 3, "velocity": 93}, {"time": 2743, "pitch": 80, "duration": 3, "velocity": 112}, {"time": 2746, "pitch": 78, "duration": 3, "velocity": 102}, {"time": 2749, "pitch": 76, "duration": 9, "velocity": 93}, {"time": 2773, "pitch": 75, "duration": 6, "velocity": 112}, {"time": 2782, "pitch": 75, "duration": 1, "velocity": 99}, {"time": 2785, "pitch": 75, "duration": 4, "velocity": 95}, {"time": 2791, "pitch": 73, "duration": 3, "velocity": 99}, {"time": 2794, "pitch": 71, "duration": 3, "velocity": 86}, {"time": 2797, "pitch": 73, "duration": 20, "velocity": 112}, {"time": 2821, "pitch": 68, "duration": 3, "velocity": 102}, {"time": 2824, "pitch": 73, "duration": 4, "velocity": 93}, {"time": 2830, "pitch": 73, "duration": 2, "velocity": 95}, {"time": 2833, "pitch": 73, "duration": 3, "velocity": 102}, {"time": 2839, "pitch": 68, "duration": 4, "velocity": 102}, {"time": 2845, "pitch": 66, "duration": 2, "velocity": 102}, {"time": 2848, "pitch": 68, "duration": 4, "velocity": 96}, {"time": 2854, "pitch": 66, "duration": 2, "velocity": 95}, {"time": 2857, "pitch": 66, "duration": 4, "velocity": 112}, {"time": 2869, "pitch": 66, "duration": 1, "velocity": 107}, {"time": 2872, "pitch": 66, "duration": 2, "velocity": 86}, {"time": 2875, "pitch": 66, "duration": 2, "velocity": 96}, {"time": 2878, "pitch": 64, "duration": 3, "velocity": 82}, {"time": 2881, "pitch": 66, "duration": 5, "velocity": 99}, {"time": 2887, "pitch": 71, "duration": 3, "velocity": 100}, {"time": 2890, "pitch": 73, "duration": 3, "velocity": 86}, {"time": 2893, "pitch": 68, "duration": 10, "velocity": 107}, {"time": 2917, "pitch": 73, "duration": 6, "velocity": 117}, {"time": 2926, "pitch": 76, "duration": 3, "velocity": 99}, {"time": 2929, "pitch": 73, "duration": 3, "velocity": 102}, {"time": 2935, "pitch": 80, "duration": 3, "velocity": 127}, {"time": 2938, "pitch": 78, "duration": 3, "velocity": 99}, {"time": 2941, "pitch": 76, "duration": 13, "velocity": 100}, {"time": 2965, "pitch": 75, "duration": 6, "velocity": 122}, {"time": 2974, "pitch": 75, "duration": 1, "velocity": 99}, {"time": 2977, "pitch": 75, "duration": 4, "velocity": 107}, {"time": 2983, "pitch": 73, "duration": 3, "velocity": 112}, {"time": 2986, "pitch": 71, "duration": 2, "velocity": 83}, {"time": 2989, "pitch": 73, "duration": 16, "velocity": 117}, {"time": 3010, "pitch": 71, "duration": 2, "velocity": 97}, {"time": 3013, "pitch": 73, "duration": 3, "velocity": 122}, {"time": 3019, "pitch": 76, "duration": 2, "velocity": 100}, {"time": 3022, "pitch": 76, "duration": 2, "velocity": 95}, {"time": 3025, "pitch": 76, "duration": 3, "velocity": 102}, {"time": 3031, "pitch": 73, "duration": 2, "velocity": 100}, {"time": 3034, "pitch": 73, "duration": 2, "velocity": 95}, {"time": 3037, "pitch": 78, "duration": 2, "velocity": 102}, {"time": 3040, "pitch": 80, "duration": 5, "velocity": 112}, {"time": 3046, "pitch": 78, "duration": 2, "velocity": 112}, {"time": 3049, "pitch": 78, "duration": 5, "velocity": 112}, {"time": 3058, "pitch": 73, "duration": 2, "velocity": 93}, {"time": 3061, "pitch": 75, "duration": 1, "velocity": 112}, {"time": 3064, "pitch": 75, "duration": 1, "velocity": 93}, {"time": 3067, "pitch": 75, "duration": 2, "velocity": 102}, {"time": 3070, "pitch": 73, "duration": 2, "velocity": 117}, {"time": 3073, "pitch": 71, "duration": 3, "velocity": 100}, {"time": 3079, "pitch": 73, "duration": 4, "velocity": 107}, {"time": 3085, "pitch": 73, "duration": 12, "velocity": 122}, {"time": 3133, "pitch": 68, "duration": 3, "velocity": 107}, {"time": 3136, "pitch": 73, "duration": 2, "velocity": 83}, {"time": 3139, "pitch": 73, "duration": 1, "velocity": 93}, {"time": 3142, "pitch": 73, "duration": 1, "velocity": 99}, {"time": 3145, "pitch": 73, "duration": 6, "velocity": 112}, {"time": 3151, "pitch": 71, "duration": 3, "velocity": 96}, {"time": 3154, "pitch": 73, "duration": 2, "velocity": 102}, {"time": 3157, "pitch": 73, "duration": 15, "velocity": 112}, {"time": 3181, "pitch": 71, "duration": 2, "velocity": 92}, {"time": 3184, "pitch": 71, "duration": 1, "velocity": 71}, {"time": 3187, "pitch": 71, "duration": 1, "velocity": 71}, {"time": 3190, "pitch": 71, "duration": 1, "velocity": 73}, {"time": 3193, "pitch": 71, "duration": 4, "velocity": 90}, {"time": 3199, "pitch": 66, "duration": 4, "velocity": 89}, {"time": 3205, "pitch": 68, "duration": 5, "velocity": 86}, {"time": 3229, "pitch": 68, "duration": 3, "velocity": 92}, {"time": 3235, "pitch": 73, "duration": 2, "velocity": 93}, {"time": 3238, "pitch": 73, "duration": 1, "velocity": 93}, {"time": 3241, "pitch": 73, "duration": 4, "velocity": 102}, {"time": 3247, "pitch": 68, "duration": 1, "velocity": 92}, {"time": 3250, "pitch": 68, "duration": 1, "velocity": 78}, {"time": 3253, "pitch": 68, "duration": 6, "velocity": 85}, {"time": 3262, "pitch": 66, "duration": 2, "velocity": 74}, {"time": 3265, "pitch": 66, "duration": 8, "velocity": 79}, {"time": 3277, "pitch": 63, "duration": 4, "velocity": 102}, {"time": 3283, "pitch": 63, "duration": 13, "velocity": 93}, {"time": 3295, "pitch": 64, "duration": 3, "velocity": 79}, {"time": 3301, "pitch": 66, "duration": 7, "velocity": 97}, {"time": 3307, "pitch": 64, "duration": 13, "velocity": 75}, {"time": 3319, "pitch": 63, "duration": 30, "velocity": 82}, {"time": 3348, "pitch": 61, "duration": 51, "velocity": 60}]}, {"program": 0, "is_drum": false, "name": "PIANO", "notes": [{"time": 13, "pitch": 49, "duration": 23, "velocity": 42}, {"time": 19, "pitch": 61, "duration": 20, "velocity": 46}, {"time": 25, "pitch": 68, "duration": 16, "velocity": 38}, {"time": 37, "pitch": 49, "duration": 23, "velocity": 36}, {"time": 43, "pitch": 61, "duration": 8, "velocity": 39}, {"time": 49, "pitch": 68, "duration": 19, "velocity": 52}, {"time": 61, "pitch": 49, "duration": 22, "velocity": 40}, {"time": 67, "pitch": 61, "duration": 8, "velocity": 35}, {"time": 73, "pitch": 68, "duration": 19, "velocity": 59}, {"time": 85, "pitch": 49, "duration": 14, "velocity": 75}, {"time": 91, "pitch": 61, "duration": 7, "velocity": 52}, {"time": 97, "pitch": 68, "duration": 12, "velocity": 112}, {"time": 100, "pitch": 49, "duration": 2, "velocity": 45}, {"time": 103, "pitch": 64, "duration": 2, "velocity": 51}, {"time": 106, "pitch": 61, "duration": 5, "velocity": 78}, {"time": 109, "pitch": 37, "duration": 16, "velocity": 93}, {"time": 112, "pitch": 49, "duration": 10, "velocity": 74}, {"time": 115, "pitch": 61, "duration": 8, "velocity": 64}, {"time": 118, "pitch": 64, "duration": 3, "velocity": 55}, {"time": 121, "pitch": 68, "duration": 11, "velocity": 127}, {"time": 124, "pitch": 49, "duration": 2, "velocity": 79}, {"time": 127, "pitch": 61, "duration": 6, "velocity": 90}, {"time": 130, "pitch": 64, "duration": 3, "velocity": 49}, {"time": 133, "pitch": 45, "duration": 19, "velocity": 74}, {"time": 136, "pitch": 52, "duration": 10, "velocity": 88}, {"time": 139, "pitch": 57, "duration": 7, "velocity": 77}, {"time": 142, "pitch": 61, "duration": 4, "velocity": 99}, {"time": 145, "pitch": 64, "duration": 12, "velocity": 99}, {"time": 148, "pitch": 52, "duration": 5, "velocity": 72}, {"time": 151, "pitch": 61, "duration": 6, "velocity": 83}, {"time": 157, "pitch": 47, "duration": 17, "velocity": 79}, {"time": 160, "pitch": 54, "duration": 10, "velocity": 76}, {"time": 163, "pitch": 59, "duration": 8, "velocity": 55}, {"time": 166, "pitch": 63, "duration": 5, "velocity": 76}, {"time": 169, "pitch": 66, "duration": 12, "velocity": 107}, {"time": 172, "pitch": 54, "duration": 2, "velocity": 75}, {"time": 175, "pitch": 63, "duration": 6, "velocity": 92}, {"time": 178, "pitch": 59, "duration": 3, "velocity": 69}, {"time": 181, "pitch": 37, "duration": 22, "velocity": 74}, {"time": 184, "pitch": 44, "duration": 20, "velocity": 58}, {"time": 187, "pitch": 49, "duration": 7, "velocity": 79}, {"time": 190, "pitch": 61, "duration": 7, "velocity": 78}, {"time": 193, "pitch": 68, "duration": 18, "velocity": 117}, {"time": 196, "pitch": 49, "duration": 8, "velocity": 89}, {"time": 199, "pitch": 64, "duration": 10, "velocity": 58}, {"time": 202, "pitch": 61, "duration": 6, "velocity": 88}, {"time": 205, "pitch": 37, "duration": 15, "velocity": 81}, {"time": 208, "pitch": 44, "duration": 13, "velocity": 47}, {"time": 211, "pitch": 49, "duration": 13, "velocity": 64}, {"time": 214, "pitch": 61, "duration": 16, "velocity": 53}, {"time": 217, "pitch": 68, "duration": 13, "velocity": 107}, {"time": 223, "pitch": 64, "duration": 6, "velocity": 63}, {"time": 229, "pitch": 42, "duration": 16, "velocity": 74}, {"time": 235, "pitch": 49, "duration": 10, "velocity": 35}, {"time": 241, "pitch": 54, "duration": 6, "velocity": 47}, {"time": 241, "pitch": 61, "duration": 14, "velocity": 95}, {"time": 247, "pitch": 57, "duration": 7, "velocity": 72}, {"time": 253, "pitch": 47, "duration": 17, "velocity": 63}, {"time": 259, "pitch": 54, "duration": 8, "velocity": 72}, {"time": 265, "pitch": 66, "duration": 12, "velocity": 90}, {"time": 271, "pitch": 59, "duration": 20, "velocity": 77}, {"time": 277, "pitch": 40, "duration": 17, "velocity": 77}, {"time": 283, "pitch": 47, "duration": 11, "velocity": 51}, {"time": 289, "pitch": 52, "duration": 3, "velocity": 77}, {"time": 289, "pitch": 68, "duration": 13, "velocity": 97}, {"time": 292, "pitch": 64, "duration": 9, "velocity": 77}, {"time": 295, "pitch": 59, "duration": 6, "velocity": 73}, {"time": 301, "pitch": 37, "duration": 16, "velocity": 73}, {"time": 304, "pitch": 44, "duration": 13, "velocity": 66}, {"time": 307, "pitch": 49, "duration": 6, "velocity": 76}, {"time": 310, "pitch": 61, "duration": 5, "velocity": 85}, {"time": 313, "pitch": 68, "duration": 11, "velocity": 112}, {"time": 316, "pitch": 49, "duration": 2, "velocity": 88}, {"time": 319, "pitch": 64, "duration": 4, "velocity": 65}, {"time": 322, "pitch": 61, "duration": 3, "velocity": 102}, {"time": 325, "pitch": 45, "duration": 19, "velocity": 81}, {"time": 328, "pitch": 52, "duration": 10, "velocity": 82}, {"time": 331, "pitch": 57, "duration": 8, "velocity": 74}, {"time": 334, "pitch": 61, "duration": 3, "velocity": 90}, {"time": 337, "pitch": 64, "duration": 12, "velocity": 85}, {"time": 340, "pitch": 52, "duration": 5, "velocity": 75}, {"time": 343, "pitch": 57, "duration": 6, "velocity": 88}, {"time": 346, "pitch": 61, "duration": 3, "velocity": 95}, {"time": 349, "pitch": 47, "duration": 17, "velocity": 68}, {"time": 352, "pitch": 54, "duration": 11, "velocity": 72}, {"time": 355, "pitch": 59, "duration": 8, "velocity": 62}, {"time": 358, "pitch": 63, "duration": 5, "velocity": 92}, {"time": 361, "pitch": 66, "duration": 11, "velocity": 96}, {"time": 364, "pitch": 54, "duration": 2, "velocity": 78}, {"time": 367, "pitch": 63, "duration": 5, "velocity": 100}, {"time": 370, "pitch": 59, "duration": 4, "velocity": 89}, {"time": 373, "pitch": 37, "duration": 22, "velocity": 82}, {"time": 376, "pitch": 44, "duration": 20, "velocity": 33}, {"time": 379, "pitch": 49, "duration": 7, "velocity": 72}, {"time": 382, "pitch": 56, "duration": 5, "velocity": 79}, {"time": 385, "pitch": 64, "duration": 17, "velocity": 90}, {"time": 388, "pitch": 49, "duration": 8, "velocity": 89}, {"time": 391, "pitch": 61, "duration": 6, "velocity": 88}, {"time": 394, "pitch": 56, "duration": 3, "velocity": 73}, {"time": 397, "pitch": 37, "duration": 14, "velocity": 89}, {"time": 403, "pitch": 44, "duration": 9, "velocity": 38}, {"time": 409, "pitch": 49, "duration": 6, "velocity": 63}, {"time": 409, "pitch": 64, "duration": 13, "velocity": 73}, {"time": 415, "pitch": 61, "duration": 7, "velocity": 66}, {"time": 421, "pitch": 42, "duration": 17, "velocity": 64}, {"time": 427, "pitch": 49, "duration": 11, "velocity": 36}, {"time": 433, "pitch": 54, "duration": 5, "velocity": 72}, {"time": 433, "pitch": 66, "duration": 12, "velocity": 92}, {"time": 439, "pitch": 57, "duration": 6, "velocity": 74}, {"time": 445, "pitch": 44, "duration": 4, "velocity": 50}, {"time": 445, "pitch": 56, "duration": 4, "velocity": 67}, {"time": 445, "pitch": 59, "duration": 5, "velocity": 73}, {"time": 445, "pitch": 63, "duration": 5, "velocity": 88}, {"time": 445, "pitch": 68, "duration": 5, "velocity": 82}, {"time": 451, "pitch": 44, "duration": 10, "velocity": 59}, {"time": 451, "pitch": 56, "duration": 7, "velocity": 73}, {"time": 451, "pitch": 59, "duration": 10, "velocity": 76}, {"time": 451, "pitch": 63, "duration": 10, "velocity": 72}, {"time": 451, "pitch": 68, "duration": 10, "velocity": 69}, {"time": 469, "pitch": 37, "duration": 46, "velocity": 76}, {"time": 475, "pitch": 44, "duration": 41, "velocity": 33}, {"time": 481, "pitch": 49, "duration": 35, "velocity": 35}, {"time": 481, "pitch": 61, "duration": 39, "velocity": 52}, {"time": 481, "pitch": 64, "duration": 39, "velocity": 36}, {"time": 517, "pitch": 37, "duration": 22, "velocity": 68}, {"time": 523, "pitch": 44, "duration": 19, "velocity": 34}, {"time": 529, "pitch": 49, "duration": 25, "velocity": 47}, {"time": 529, "pitch": 64, "duration": 20, "velocity": 58}, {"time": 535, "pitch": 61, "duration": 18, "velocity": 59}, {"time": 541, "pitch": 37, "duration": 16, "velocity": 55}, {"time": 547, "pitch": 44, "duration": 9, "velocity": 27}, {"time": 553, "pitch": 64, "duration": 11, "velocity": 82}, {"time": 556, "pitch": 49, "duration": 3, "velocity": 54}, {"time": 559, "pitch": 61, "duration": 6, "velocity": 54}, {"time": 565, "pitch": 44, "duration": 22, "velocity": 59}, {"time": 568, "pitch": 51, "duration": 20, "velocity": 27}, {"time": 571, "pitch": 56, "duration": 7, "velocity": 53}, {"time": 574, "pitch": 59, "duration": 6, "velocity": 54}, {"time": 577, "pitch": 68, "duration": 22, "velocity": 75}, {"time": 583, "pitch": 63, "duration": 17, "velocity": 36}, {"time": 589, "pitch": 44, "duration": 16, "velocity": 45}, {"time": 595, "pitch": 51, "duration": 8, "velocity": 35}, {"time": 601, "pitch": 56, "duration": 2, "velocity": 41}, {"time": 601, "pitch": 68, "duration": 13, "velocity": 90}, {"time": 604, "pitch": 63, "duration": 10, "velocity": 46}, {"time": 607, "pitch": 59, "duration": 7, "velocity": 55}, {"time": 613, "pitch": 37, "duration": 15, "velocity": 54}, {"time": 619, "pitch": 44, "duration": 9, "velocity": 26}, {"time": 625, "pitch": 64, "duration": 13, "velocity": 67}, {"time": 631, "pitch": 56, "duration": 7, "velocity": 65}, {"time": 637, "pitch": 42, "duration": 17, "velocity": 63}, {"time": 643, "pitch": 49, "duration": 10, "velocity": 38}, {"time": 649, "pitch": 54, "duration": 5, "velocity": 45}, {"time": 649, "pitch": 61, "duration": 14, "velocity": 93}, {"time": 655, "pitch": 57, "duration": 7, "velocity": 68}, {"time": 661, "pitch": 47, "duration": 15, "velocity": 70}, {"time": 667, "pitch": 54, "duration": 7, "velocity": 58}, {"time": 673, "pitch": 63, "duration": 13, "velocity": 89}, {"time": 673, "pitch": 66, "duration": 13, "velocity": 93}, {"time": 679, "pitch": 59, "duration": 7, "velocity": 57}, {"time": 685, "pitch": 44, "duration": 22, "velocity": 81}, {"time": 691, "pitch": 51, "duration": 7, "velocity": 38}, {"time": 697, "pitch": 59, "duration": 5, "velocity": 60}, {"time": 697, "pitch": 63, "duration": 12, "velocity": 77}, {"time": 700, "pitch": 51, "duration": 5, "velocity": 41}, {"time": 703, "pitch": 56, "duration": 5, "velocity": 89}, {"time": 706, "pitch": 59, "duration": 3, "velocity": 65}, {"time": 709, "pitch": 37, "duration": 22, "velocity": 95}, {"time": 715, "pitch": 49, "duration": 8, "velocity": 67}, {"time": 721, "pitch": 61, "duration": 7, "velocity": 69}, {"time": 721, "pitch": 64, "duration": 21, "velocity": 76}, {"time": 724, "pitch": 49, "duration": 10, "velocity": 72}, {"time": 727, "pitch": 56, "duration": 10, "velocity": 66}, {"time": 730, "pitch": 61, "duration": 8, "velocity": 57}, {"time": 733, "pitch": 37, "duration": 16, "velocity": 65}, {"time": 736, "pitch": 49, "duration": 10, "velocity": 59}, {"time": 739, "pitch": 56, "duration": 9, "velocity": 52}, {"time": 742, "pitch": 61, "duration": 4, "velocity": 37}, {"time": 745, "pitch": 64, "duration": 12, "velocity": 88}, {"time": 748, "pitch": 49, "duration": 3, "velocity": 61}, {"time": 751, "pitch": 56, "duration": 6, "velocity": 71}, {"time": 757, "pitch": 44, "duration": 22, "velocity": 76}, {"time": 763, "pitch": 51, "duration": 16, "velocity": 22}, {"time": 769, "pitch": 56, "duration": 20, "velocity": 44}, {"time": 769, "pitch": 63, "duration": 19, "velocity": 72}, {"time": 769, "pitch": 68, "duration": 22, "velocity": 76}, {"time": 775, "pitch": 59, "duration": 21, "velocity": 68}, {"time": 781, "pitch": 44, "duration": 18, "velocity": 58}, {"time": 787, "pitch": 51, "duration": 10, "velocity": 33}, {"time": 793, "pitch": 56, "duration": 4, "velocity": 51}, {"time": 793, "pitch": 68, "duration": 13, "velocity": 89}, {"time": 796, "pitch": 63, "duration": 10, "velocity": 73}, {"time": 799, "pitch": 59, "duration": 7, "velocity": 62}, {"time": 805, "pitch": 37, "duration": 15, "velocity": 72}, {"time": 811, "pitch": 44, "duration": 9, "velocity": 52}, {"time": 817, "pitch": 49, "duration": 6, "velocity": 48}, {"time": 817, "pitch": 56, "duration": 2, "velocity": 34}, {"time": 817, "pitch": 64, "duration": 12, "velocity": 72}, {"time": 820, "pitch": 56, "duration": 7, "velocity": 61}, {"time": 823, "pitch": 61, "duration": 7, "velocity": 60}, {"time": 829, "pitch": 42, "duration": 18, "velocity": 70}, {"time": 835, "pitch": 49, "duration": 10, "velocity": 27}, {"time": 841, "pitch": 54, "duration": 5, "velocity": 57}, {"time": 841, "pitch": 66, "duration": 12, "velocity": 90}, {"time": 844, "pitch": 61, "duration": 9, "velocity": 47}, {"time": 847, "pitch": 57, "duration": 7, "velocity": 74}, {"time": 853, "pitch": 44, "duration": 14, "velocity": 63}, {"time": 859, "pitch": 56, "duration": 10, "velocity": 65}, {"time": 865, "pitch": 63, "duration": 12, "velocity": 73}, {"time": 868, "pitch": 59, "duration": 8, "velocity": 55}, {"time": 871, "pitch": 56, "duration": 13, "velocity": 63}, {"time": 877, "pitch": 37, "duration": 22, "velocity": 66}, {"time": 880, "pitch": 44, "duration": 20, "velocity": 56}, {"time": 883, "pitch": 49, "duration": 6, "velocity": 60}, {"time": 886, "pitch": 56, "duration": 7, "velocity": 86}, {"time": 889, "pitch": 64, "duration": 12, "velocity": 85}, {"time": 892, "pitch": 49, "duration": 4, "velocity": 59}, {"time": 895, "pitch": 61, "duration": 6, "velocity": 60}, {"time": 898, "pitch": 56, "duration": 3, "velocity": 74}, {"time": 901, "pitch": 37, "duration": 15, "velocity": 93}, {"time": 907, "pitch": 44, "duration": 8, "velocity": 34}, {"time": 913, "pitch": 49, "duration": 6, "velocity": 68}, {"time": 913, "pitch": 61, "duration": 13, "velocity": 68}, {"time": 913, "pitch": 64, "duration": 12, "velocity": 70}, {"time": 919, "pitch": 56, "duration": 6, "velocity": 64}, {"time": 925, "pitch": 44, "duration": 17, "velocity": 88}, {"time": 931, "pitch": 56, "duration": 7, "velocity": 52}, {"time": 937, "pitch": 63, "duration": 11, "velocity": 92}, {"time": 937, "pitch": 68, "duration": 11, "velocity": 97}, {"time": 940, "pitch": 56, "duration": 3, "velocity": 72}, {"time": 943, "pitch": 59, "duration": 7, "velocity": 86}, {"time": 949, "pitch": 45, "duration": 7, "velocity": 79}, {"time": 955, "pitch": 57, "duration": 7, "velocity": 60}, {"time": 955, "pitch": 61, "duration": 5, "velocity": 58}, {"time": 955, "pitch": 64, "duration": 5, "velocity": 63}, {"time": 961, "pitch": 42, "duration": 7, "velocity": 89}, {"time": 967, "pitch": 54, "duration": 7, "velocity": 52}, {"time": 967, "pitch": 57, "duration": 6, "velocity": 54}, {"time": 967, "pitch": 61, "duration": 7, "velocity": 59}, {"time": 973, "pitch": 44, "duration": 18, "velocity": 100}, {"time": 979, "pitch": 56, "duration": 7, "velocity": 53}, {"time": 985, "pitch": 59, "duration": 4, "velocity": 65}, {"time": 985, "pitch": 63, "duration": 12, "velocity": 76}, {"time": 988, "pitch": 56, "duration": 2, "velocity": 69}, {"time": 991, "pitch": 59, "duration": 7, "velocity": 70}, {"time": 997, "pitch": 37, "duration": 17, "velocity": 82}, {"time": 1003, "pitch": 49, "duration": 8, "velocity": 73}, {"time": 1009, "pitch": 61, "duration": 13, "velocity": 88}, {"time": 1009, "pitch": 64, "duration": 13, "velocity": 77}, {"time": 1012, "pitch": 49, "duration": 4, "velocity": 56}, {"time": 1015, "pitch": 56, "duration": 6, "velocity": 72}, {"time": 1021, "pitch": 42, "duration": 21, "velocity": 86}, {"time": 1027, "pitch": 54, "duration": 8, "velocity": 72}, {"time": 1033, "pitch": 57, "duration": 5, "velocity": 72}, {"time": 1033, "pitch": 61, "duration": 11, "velocity": 85}, {"time": 1033, "pitch": 66, "duration": 11, "velocity": 74}, {"time": 1036, "pitch": 54, "duration": 2, "velocity": 27}, {"time": 1039, "pitch": 57, "duration": 5, "velocity": 67}, {"time": 1045, "pitch": 44, "duration": 14, "velocity": 92}, {"time": 1051, "pitch": 56, "duration": 6, "velocity": 77}, {"time": 1057, "pitch": 63, "duration": 12, "velocity": 82}, {"time": 1057, "pitch": 68, "duration": 11, "velocity": 75}, {"time": 1063, "pitch": 59, "duration": 6, "velocity": 68}, {"time": 1069, "pitch": 37, "duration": 23, "velocity": 66}, {"time": 1072, "pitch": 44, "duration": 20, "velocity": 36}, {"time": 1075, "pitch": 49, "duration": 7, "velocity": 76}, {"time": 1078, "pitch": 56, "duration": 7, "velocity": 69}, {"time": 1081, "pitch": 64, "duration": 18, "velocity": 86}, {"time": 1084, "pitch": 49, "duration": 14, "velocity": 75}, {"time": 1087, "pitch": 61, "duration": 12, "velocity": 55}, {"time": 1090, "pitch": 56, "duration": 10, "velocity": 68}, {"time": 1093, "pitch": 37, "duration": 20, "velocity": 65}, {"time": 1096, "pitch": 44, "duration": 20, "velocity": 50}, {"time": 1099, "pitch": 49, "duration": 7, "velocity": 82}, {"time": 1102, "pitch": 56, "duration": 2, "velocity": 76}, {"time": 1102, "pitch": 61, "duration": 2, "velocity": 61}, {"time": 1102, "pitch": 64, "duration": 2, "velocity": 63}, {"time": 1105, "pitch": 56, "duration": 1, "velocity": 81}, {"time": 1105, "pitch": 61, "duration": 7, "velocity": 112}, {"time": 1105, "pitch": 64, "duration": 10, "velocity": 92}, {"time": 1108, "pitch": 49, "duration": 8, "velocity": 107}, {"time": 1111, "pitch": 56, "duration": 8, "velocity": 117}, {"time": 1114, "pitch": 61, "duration": 5, "velocity": 127}, {"time": 1117, "pitch": 37, "duration": 17, "velocity": 96}, {"time": 1120, "pitch": 44, "duration": 13, "velocity": 100}, {"time": 1123, "pitch": 49, "duration": 7, "velocity": 122}, {"time": 1126, "pitch": 56, "duration": 5, "velocity": 100}, {"time": 1129, "pitch": 64, "duration": 13, "velocity": 100}, {"time": 1132, "pitch": 49, "duration": 4, "velocity": 112}, {"time": 1135, "pitch": 61, "duration": 6, "velocity": 122}, {"time": 1138, "pitch": 56, "duration": 3, "velocity": 112}, {"time": 1141, "pitch": 45, "duration": 22, "velocity": 89}, {"time": 1144, "pitch": 52, "duration": 11, "velocity": 71}, {"time": 1147, "pitch": 57, "duration": 3, "velocity": 99}, {"time": 1150, "pitch": 61, "duration": 4, "velocity": 127}, {"time": 1153, "pitch": 64, "duration": 12, "velocity": 93}, {"time": 1156, "pitch": 52, "duration": 9, "velocity": 93}, {"time": 1159, "pitch": 61, "duration": 7, "velocity": 122}, {"time": 1162, "pitch": 57, "duration": 4, "velocity": 97}, {"time": 1165, "pitch": 47, "duration": 17, "velocity": 79}, {"time": 1168, "pitch": 54, "duration": 11, "velocity": 85}, {"time": 1171, "pitch": 59, "duration": 3, "velocity": 89}, {"time": 1174, "pitch": 63, "duration": 4, "velocity": 117}, {"time": 1177, "pitch": 66, "duration": 11, "velocity": 112}, {"time": 1180, "pitch": 54, "duration": 2, "velocity": 95}, {"time": 1183, "pitch": 63, "duration": 6, "velocity": 127}, {"time": 1186, "pitch": 59, "duration": 4, "velocity": 102}, {"time": 1189, "pitch": 37, "duration": 19, "velocity": 88}, {"time": 1192, "pitch": 44, "duration": 15, "velocity": 78}, {"time": 1195, "pitch": 49, "duration": 7, "velocity": 82}, {"time": 1198, "pitch": 56, "duration": 9, "velocity": 97}, {"time": 1201, "pitch": 64, "duration": 13, "velocity": 95}, {"time": 1204, "pitch": 49, "duration": 5, "velocity": 90}, {"time": 1207, "pitch": 63, "duration": 7, "velocity": 112}, {"time": 1213, "pitch": 37, "duration": 16, "velocity": 83}, {"time": 1216, "pitch": 44, "duration": 13, "velocity": 32}, {"time": 1219, "pitch": 49, "duration": 7, "velocity": 89}, {"time": 1222, "pitch": 56, "duration": 5, "velocity": 90}, {"time": 1225, "pitch": 64, "duration": 12, "velocity": 92}, {"time": 1228, "pitch": 49, "duration": 4, "velocity": 89}, {"time": 1231, "pitch": 61, "duration": 7, "velocity": 82}, {"time": 1234, "pitch": 56, "duration": 3, "velocity": 89}, {"time": 1237, "pitch": 42, "duration": 17, "velocity": 68}, {"time": 1240, "pitch": 49, "duration": 13, "velocity": 46}, {"time": 1243, "pitch": 54, "duration": 7, "velocity": 82}, {"time": 1246, "pitch": 57, "duration": 7, "velocity": 79}, {"time": 1249, "pitch": 66, "duration": 13, "velocity": 97}, {"time": 1252, "pitch": 54, "duration": 3, "velocity": 83}, {"time": 1255, "pitch": 61, "duration": 6, "velocity": 95}, {"time": 1258, "pitch": 57, "duration": 4, "velocity": 92}, {"time": 1261, "pitch": 47, "duration": 18, "velocity": 64}, {"time": 1264, "pitch": 54, "duration": 10, "velocity": 83}, {"time": 1267, "pitch": 59, "duration": 8, "velocity": 71}, {"time": 1270, "pitch": 63, "duration": 4, "velocity": 99}, {"time": 1273, "pitch": 66, "duration": 9, "velocity": 102}, {"time": 1276, "pitch": 54, "duration": 2, "velocity": 95}, {"time": 1279, "pitch": 63, "duration": 4, "velocity": 117}, {"time": 1282, "pitch": 59, "duration": 5, "velocity": 93}, {"time": 1285, "pitch": 40, "duration": 17, "velocity": 83}, {"time": 1288, "pitch": 47, "duration": 14, "velocity": 99}, {"time": 1291, "pitch": 52, "duration": 7, "velocity": 90}, {"time": 1294, "pitch": 59, "duration": 8, "velocity": 93}, {"time": 1294, "pitch": 64, "duration": 1, "velocity": 36}, {"time": 1297, "pitch": 68, "duration": 13, "velocity": 127}, {"time": 1300, "pitch": 52, "duration": 2, "velocity": 97}, {"time": 1303, "pitch": 59, "duration": 1, "velocity": 26}, {"time": 1303, "pitch": 64, "duration": 2, "velocity": 97}, {"time": 1306, "pitch": 63, "duration": 5, "velocity": 117}, {"time": 1309, "pitch": 37, "duration": 17, "velocity": 74}, {"time": 1312, "pitch": 44, "duration": 14, "velocity": 72}, {"time": 1315, "pitch": 49, "duration": 7, "velocity": 90}, {"time": 1318, "pitch": 56, "duration": 5, "velocity": 92}, {"time": 1321, "pitch": 64, "duration": 13, "velocity": 96}, {"time": 1324, "pitch": 49, "duration": 2, "velocity": 96}, {"time": 1327, "pitch": 56, "duration": 4, "velocity": 107}, {"time": 1330, "pitch": 61, "duration": 4, "velocity": 93}, {"time": 1333, "pitch": 45, "duration": 21, "velocity": 85}, {"time": 1336, "pitch": 52, "duration": 10, "velocity": 85}, {"time": 1339, "pitch": 57, "duration": 7, "velocity": 76}, {"time": 1342, "pitch": 61, "duration": 3, "velocity": 102}, {"time": 1345, "pitch": 64, "duration": 12, "velocity": 97}, {"time": 1348, "pitch": 52, "duration": 8, "velocity": 88}, {"time": 1351, "pitch": 61, "duration": 6, "velocity": 127}, {"time": 1354, "pitch": 57, "duration": 3, "velocity": 96}, {"time": 1357, "pitch": 47, "duration": 17, "velocity": 74}, {"time": 1360, "pitch": 54, "duration": 10, "velocity": 86}, {"time": 1363, "pitch": 59, "duration": 8, "velocity": 72}, {"time": 1366, "pitch": 63, "duration": 4, "velocity": 112}, {"time": 1369, "pitch": 66, "duration": 11, "velocity": 102}, {"time": 1372, "pitch": 54, "duration": 2, "velocity": 86}, {"time": 1375, "pitch": 63, "duration": 6, "velocity": 122}, {"time": 1378, "pitch": 59, "duration": 4, "velocity": 95}, {"time": 1381, "pitch": 37, "duration": 22, "velocity": 83}, {"time": 1384, "pitch": 44, "duration": 20, "velocity": 39}, {"time": 1387, "pitch": 49, "duration": 7, "velocity": 88}, {"time": 1390, "pitch": 56, "duration": 6, "velocity": 96}, {"time": 1393, "pitch": 64, "duration": 8, "velocity": 95}, {"time": 1396, "pitch": 49, "duration": 8, "velocity": 90}, {"time": 1399, "pitch": 56, "duration": 1, "velocity": 26}, {"time": 1399, "pitch": 63, "duration": 6, "velocity": 95}, {"time": 1402, "pitch": 56, "duration": 5, "velocity": 72}, {"time": 1405, "pitch": 37, "duration": 18, "velocity": 79}, {"time": 1408, "pitch": 44, "duration": 14, "velocity": 71}, {"time": 1411, "pitch": 49, "duration": 7, "velocity": 88}, {"time": 1414, "pitch": 56, "duration": 15, "velocity": 85}, {"time": 1417, "pitch": 64, "duration": 10, "velocity": 97}, {"time": 1420, "pitch": 49, "duration": 5, "velocity": 89}, {"time": 1423, "pitch": 63, "duration": 4, "velocity": 93}, {"time": 1426, "pitch": 61, "duration": 3, "velocity": 52}, {"time": 1429, "pitch": 42, "duration": 17, "velocity": 85}, {"time": 1432, "pitch": 49, "duration": 14, "velocity": 67}, {"time": 1435, "pitch": 54, "duration": 7, "velocity": 83}, {"time": 1438, "pitch": 57, "duration": 7, "velocity": 81}, {"time": 1441, "pitch": 66, "duration": 12, "velocity": 107}, {"time": 1444, "pitch": 54, "duration": 5, "velocity": 93}, {"time": 1447, "pitch": 61, "duration": 6, "velocity": 100}, {"time": 1450, "pitch": 57, "duration": 3, "velocity": 92}, {"time": 1453, "pitch": 44, "duration": 17, "velocity": 70}, {"time": 1456, "pitch": 51, "duration": 13, "velocity": 66}, {"time": 1459, "pitch": 56, "duration": 7, "velocity": 85}, {"time": 1462, "pitch": 59, "duration": 5, "velocity": 73}, {"time": 1465, "pitch": 63, "duration": 7, "velocity": 93}, {"time": 1465, "pitch": 68, "duration": 12, "velocity": 100}, {"time": 1468, "pitch": 56, "duration": 2, "velocity": 85}, {"time": 1471, "pitch": 59, "duration": 7, "velocity": 92}, {"time": 1474, "pitch": 63, "duration": 4, "velocity": 92}, {"time": 1477, "pitch": 37, "duration": 23, "velocity": 82}, {"time": 1480, "pitch": 44, "duration": 20, "velocity": 31}, {"time": 1483, "pitch": 49, "duration": 18, "velocity": 69}, {"time": 1486, "pitch": 56, "duration": 28, "velocity": 53}, {"time": 1489, "pitch": 64, "duration": 44, "velocity": 78}, {"time": 1501, "pitch": 37, "duration": 22, "velocity": 70}, {"time": 1513, "pitch": 61, "duration": 14, "velocity": 50}, {"time": 1519, "pitch": 56, "duration": 13, "velocity": 45}, {"time": 1525, "pitch": 37, "duration": 22, "velocity": 78}, {"time": 1531, "pitch": 44, "duration": 17, "velocity": 26}, {"time": 1537, "pitch": 49, "duration": 13, "velocity": 33}, {"time": 1537, "pitch": 61, "duration": 23, "velocity": 42}, {"time": 1537, "pitch": 64, "duration": 22, "velocity": 58}, {"time": 1543, "pitch": 56, "duration": 13, "velocity": 55}, {"time": 1549, "pitch": 37, "duration": 16, "velocity": 48}, {"time": 1552, "pitch": 44, "duration": 13, "velocity": 37}, {"time": 1555, "pitch": 49, "duration": 7, "velocity": 39}, {"time": 1558, "pitch": 56, "duration": 6, "velocity": 50}, {"time": 1561, "pitch": 61, "duration": 13, "velocity": 39}, {"time": 1561, "pitch": 64, "duration": 12, "velocity": 59}, {"time": 1564, "pitch": 49, "duration": 1, "velocity": 26}, {"time": 1567, "pitch": 56, "duration": 5, "velocity": 63}, {"time": 1573, "pitch": 42, "duration": 22, "velocity": 46}, {"time": 1582, "pitch": 49, "duration": 15, "velocity": 20}, {"time": 1585, "pitch": 66, "duration": 22, "velocity": 88}, {"time": 1588, "pitch": 54, "duration": 22, "velocity": 42}, {"time": 1591, "pitch": 61, "duration": 17, "velocity": 34}, {"time": 1594, "pitch": 57, "duration": 20, "velocity": 53}, {"time": 1597, "pitch": 42, "duration": 17, "velocity": 61}, {"time": 1603, "pitch": 49, "duration": 10, "velocity": 27}, {"time": 1609, "pitch": 66, "duration": 13, "velocity": 100}, {"time": 1612, "pitch": 54, "duration": 3, "velocity": 51}, {"time": 1615, "pitch": 61, "duration": 7, "velocity": 64}, {"time": 1621, "pitch": 47, "duration": 23, "velocity": 72}, {"time": 1627, "pitch": 54, "duration": 19, "velocity": 45}, {"time": 1633, "pitch": 66, "duration": 20, "velocity": 102}, {"time": 1639, "pitch": 63, "duration": 16, "velocity": 52}, {"time": 1642, "pitch": 59, "duration": 13, "velocity": 53}, {"time": 1645, "pitch": 47, "duration": 14, "velocity": 68}, {"time": 1651, "pitch": 54, "duration": 7, "velocity": 56}, {"time": 1657, "pitch": 63, "duration": 12, "velocity": 96}, {"time": 1657, "pitch": 66, "duration": 12, "velocity": 97}, {"time": 1663, "pitch": 59, "duration": 6, "velocity": 75}, {"time": 1669, "pitch": 40, "duration": 17, "velocity": 77}, {"time": 1672, "pitch": 47, "duration": 14, "velocity": 49}, {"time": 1675, "pitch": 52, "duration": 7, "velocity": 58}, {"time": 1678, "pitch": 59, "duration": 7, "velocity": 65}, {"time": 1681, "pitch": 68, "duration": 11, "velocity": 99}, {"time": 1684, "pitch": 52, "duration": 3, "velocity": 77}, {"time": 1687, "pitch": 64, "duration": 4, "velocity": 70}, {"time": 1690, "pitch": 59, "duration": 5, "velocity": 82}, {"time": 1693, "pitch": 44, "duration": 17, "velocity": 99}, {"time": 1696, "pitch": 56, "duration": 9, "velocity": 90}, {"time": 1699, "pitch": 59, "duration": 5, "velocity": 67}, {"time": 1702, "pitch": 63, "duration": 3, "velocity": 86}, {"time": 1702, "pitch": 68, "duration": 2, "velocity": 92}, {"time": 1705, "pitch": 63, "duration": 7, "velocity": 112}, {"time": 1705, "pitch": 68, "duration": 11, "velocity": 107}, {"time": 1708, "pitch": 56, "duration": 2, "velocity": 107}, {"time": 1711, "pitch": 59, "duration": 6, "velocity": 112}, {"time": 1714, "pitch": 63, "duration": 3, "velocity": 127}, {"time": 1717, "pitch": 37, "duration": 22, "velocity": 92}, {"time": 1720, "pitch": 44, "duration": 20, "velocity": 33}, {"time": 1723, "pitch": 49, "duration": 6, "velocity": 69}, {"time": 1726, "pitch": 56, "duration": 5, "velocity": 86}, {"time": 1729, "pitch": 64, "duration": 23, "velocity": 90}, {"time": 1732, "pitch": 49, "duration": 11, "velocity": 93}, {"time": 1735, "pitch": 61, "duration": 14, "velocity": 69}, {"time": 1738, "pitch": 56, "duration": 10, "velocity": 93}, {"time": 1741, "pitch": 37, "duration": 18, "velocity": 76}, {"time": 1744, "pitch": 44, "duration": 15, "velocity": 47}, {"time": 1747, "pitch": 49, "duration": 7, "velocity": 69}, {"time": 1750, "pitch": 56, "duration": 7, "velocity": 73}, {"time": 1753, "pitch": 61, "duration": 5, "velocity": 45}, {"time": 1753, "pitch": 64, "duration": 12, "velocity": 85}, {"time": 1756, "pitch": 49, "duration": 8, "velocity": 89}, {"time": 1759, "pitch": 56, "duration": 5, "velocity": 92}, {"time": 1762, "pitch": 61, "duration": 5, "velocity": 69}, {"time": 1765, "pitch": 42, "duration": 22, "velocity": 93}, {"time": 1768, "pitch": 54, "duration": 10, "velocity": 83}, {"time": 1771, "pitch": 57, "duration": 9, "velocity": 72}, {"time": 1774, "pitch": 61, "duration": 3, "velocity": 90}, {"time": 1777, "pitch": 66, "duration": 21, "velocity": 107}, {"time": 1780, "pitch": 54, "duration": 10, "velocity": 88}, {"time": 1783, "pitch": 61, "duration": 13, "velocity": 89}, {"time": 1786, "pitch": 57, "duration": 7, "velocity": 83}, {"time": 1789, "pitch": 42, "duration": 17, "velocity": 67}, {"time": 1792, "pitch": 54, "duration": 10, "velocity": 83}, {"time": 1795, "pitch": 57, "duration": 9, "velocity": 81}, {"time": 1798, "pitch": 61, "duration": 4, "velocity": 72}, {"time": 1801, "pitch": 66, "duration": 13, "velocity": 107}, {"time": 1804, "pitch": 54, "duration": 5, "velocity": 90}, {"time": 1807, "pitch": 61, "duration": 6, "velocity": 107}, {"time": 1810, "pitch": 57, "duration": 3, "velocity": 76}, {"time": 1813, "pitch": 44, "duration": 22, "velocity": 78}, {"time": 1816, "pitch": 51, "duration": 19, "velocity": 26}, {"time": 1819, "pitch": 56, "duration": 7, "velocity": 85}, {"time": 1822, "pitch": 59, "duration": 7, "velocity": 63}, {"time": 1825, "pitch": 68, "duration": 20, "velocity": 107}, {"time": 1828, "pitch": 56, "duration": 12, "velocity": 59}, {"time": 1831, "pitch": 63, "duration": 17, "velocity": 90}, {"time": 1834, "pitch": 59, "duration": 10, "velocity": 68}, {"time": 1837, "pitch": 44, "duration": 17, "velocity": 69}, {"time": 1840, "pitch": 51, "duration": 13, "velocity": 47}, {"time": 1843, "pitch": 56, "duration": 7, "velocity": 70}, {"time": 1846, "pitch": 59, "duration": 10, "velocity": 76}, {"time": 1849, "pitch": 68, "duration": 12, "velocity": 102}, {"time": 1852, "pitch": 56, "duration": 1, "velocity": 82}, {"time": 1855, "pitch": 63, "duration": 6, "velocity": 92}, {"time": 1858, "pitch": 59, "duration": 4, "velocity": 82}, {"time": 1861, "pitch": 37, "duration": 22, "velocity": 74}, {"time": 1864, "pitch": 44, "duration": 21, "velocity": 58}, {"time": 1867, "pitch": 49, "duration": 7, "velocity": 81}, {"time": 1870, "pitch": 56, "duration": 40, "velocity": 69}, {"time": 1873, "pitch": 64, "duration": 8, "velocity": 70}, {"time": 1876, "pitch": 49, "duration": 34, "velocity": 71}, {"time": 1879, "pitch": 63, "duration": 5, "velocity": 31}, {"time": 1885, "pitch": 37, "duration": 25, "velocity": 59}, {"time": 1885, "pitch": 61, "duration": 24, "velocity": 66}, {"time": 1885, "pitch": 64, "duration": 25, "velocity": 45}, {"time": 1909, "pitch": 37, "duration": 1, "velocity": 95}, {"time": 1915, "pitch": 49, "duration": 8, "velocity": 67}, {"time": 1921, "pitch": 61, "duration": 7, "velocity": 69}, {"time": 1921, "pitch": 64, "duration": 21, "velocity": 76}, {"time": 1924, "pitch": 49, "duration": 10, "velocity": 72}, {"time": 1927, "pitch": 56, "duration": 10, "velocity": 66}, {"time": 1930, "pitch": 61, "duration": 8, "velocity": 57}, {"time": 1933, "pitch": 37, "duration": 16, "velocity": 65}, {"time": 1936, "pitch": 49, "duration": 10, "velocity": 59}, {"time": 1939, "pitch": 56, "duration": 9, "velocity": 52}, {"time": 1942, "pitch": 61, "duration": 4, "velocity": 37}, {"time": 1945, "pitch": 64, "duration": 12, "velocity": 88}, {"time": 1948, "pitch": 49, "duration": 3, "velocity": 61}, {"time": 1951, "pitch": 56, "duration": 6, "velocity": 71}, {"time": 1957, "pitch": 44, "duration": 22, "velocity": 76}, {"time": 1963, "pitch": 51, "duration": 16, "velocity": 22}, {"time": 1969, "pitch": 56, "duration": 20, "velocity": 44}, {"time": 1969, "pitch": 63, "duration": 19, "velocity": 72}, {"time": 1969, "pitch": 68, "duration": 22, "velocity": 76}, {"time": 1975, "pitch": 59, "duration": 21, "velocity": 68}, {"time": 1981, "pitch": 44, "duration": 18, "velocity": 58}, {"time": 1987, "pitch": 51, "duration": 10, "velocity": 33}, {"time": 1993, "pitch": 56, "duration": 4, "velocity": 51}, {"time": 1993, "pitch": 68, "duration": 13, "velocity": 89}, {"time": 1996, "pitch": 63, "duration": 10, "velocity": 73}, {"time": 1999, "pitch": 59, "duration": 7, "velocity": 62}, {"time": 2005, "pitch": 37, "duration": 15, "velocity": 72}, {"time": 2011, "pitch": 44, "duration": 9, "velocity": 52}, {"time": 2017, "pitch": 49, "duration": 6, "velocity": 48}, {"time": 2017, "pitch": 56, "duration": 2, "velocity": 34}, {"time": 2017, "pitch": 64, "duration": 12, "velocity": 72}, {"time": 2020, "pitch": 56, "duration": 7, "velocity": 61}, {"time": 2023, "pitch": 61, "duration": 7, "velocity": 60}, {"time": 2029, "pitch": 42, "duration": 18, "velocity": 70}, {"time": 2035, "pitch": 49, "duration": 10, "velocity": 27}, {"time": 2041, "pitch": 54, "duration": 5, "velocity": 57}, {"time": 2041, "pitch": 66, "duration": 12, "velocity": 90}, {"time": 2044, "pitch": 61, "duration": 9, "velocity": 47}, {"time": 2047, "pitch": 57, "duration": 7, "velocity": 74}, {"time": 2053, "pitch": 44, "duration": 14, "velocity": 63}, {"time": 2059, "pitch": 56, "duration": 10, "velocity": 65}, {"time": 2065, "pitch": 63, "duration": 12, "velocity": 73}, {"time": 2068, "pitch": 59, "duration": 8, "velocity": 55}, {"time": 2071, "pitch": 56, "duration": 13, "velocity": 63}, {"time": 2077, "pitch": 37, "duration": 22, "velocity": 66}, {"time": 2080, "pitch": 44, "duration": 20, "velocity": 56}, {"time": 2083, "pitch": 49, "duration": 6, "velocity": 60}, {"time": 2086, "pitch": 56, "duration": 7, "velocity": 86}, {"time": 2089, "pitch": 64, "duration": 12, "velocity": 85}, {"time": 2092, "pitch": 49, "duration": 4, "velocity": 59}, {"time": 2095, "pitch": 61, "duration": 6, "velocity": 60}, {"time": 2098, "pitch": 56, "duration": 3, "velocity": 74}, {"time": 2101, "pitch": 37, "duration": 15, "velocity": 93}, {"time": 2107, "pitch": 44, "duration": 8, "velocity": 34}, {"time": 2113, "pitch": 49, "duration": 6, "velocity": 68}, {"time": 2113, "pitch": 61, "duration": 13, "velocity": 68}, {"time": 2113, "pitch": 64, "duration": 12, "velocity": 70}, {"time": 2119, "pitch": 56, "duration": 6, "velocity": 64}, {"time": 2125, "pitch": 44, "duration": 17, "velocity": 88}, {"time": 2131, "pitch": 56, "duration": 7, "velocity": 52}, {"time": 2137, "pitch": 63, "duration": 11, "velocity": 92}, {"time": 2137, "pitch": 68, "duration": 11, "velocity": 97}, {"time": 2140, "pitch": 56, "duration": 3, "velocity": 72}, {"time": 2143, "pitch": 59, "duration": 7, "velocity": 86}, {"time": 2149, "pitch": 45, "duration": 7, "velocity": 79}, {"time": 2155, "pitch": 57, "duration": 7, "velocity": 60}, {"time": 2155, "pitch": 61, "duration": 5, "velocity": 58}, {"time": 2155, "pitch": 64, "duration": 5, "velocity": 63}, {"time": 2161, "pitch": 42, "duration": 7, "velocity": 89}, {"time": 2167, "pitch": 54, "duration": 7, "velocity": 52}, {"time": 2167, "pitch": 57, "duration": 6, "velocity": 54}, {"time": 2167, "pitch": 61, "duration": 7, "velocity": 59}, {"time": 2173, "pitch": 44, "duration": 18, "velocity": 100}, {"time": 2179, "pitch": 56, "duration": 7, "velocity": 53}, {"time": 2185, "pitch": 59, "duration": 4, "velocity": 65}, {"time": 2185, "pitch": 63, "duration": 12, "velocity": 76}, {"time": 2188, "pitch": 56, "duration": 2, "velocity": 69}, {"time": 2191, "pitch": 59, "duration": 7, "velocity": 70}, {"time": 2197, "pitch": 37, "duration": 17, "velocity": 82}, {"time": 2203, "pitch": 49, "duration": 8, "velocity": 73}, {"time": 2209, "pitch": 61, "duration": 13, "velocity": 88}, {"time": 2209, "pitch": 64, "duration": 13, "velocity": 77}, {"time": 2212, "pitch": 49, "duration": 4, "velocity": 56}, {"time": 2215, "pitch": 56, "duration": 6, "velocity": 72}, {"time": 2221, "pitch": 42, "duration": 21, "velocity": 86}, {"time": 2227, "pitch": 54, "duration": 8, "velocity": 72}, {"time": 2233, "pitch": 57, "duration": 5, "velocity": 72}, {"time": 2233, "pitch": 61, "duration": 11, "velocity": 85}, {"time": 2233, "pitch": 66, "duration": 11, "velocity": 74}, {"time": 2236, "pitch": 54, "duration": 2, "velocity": 27}, {"time": 2239, "pitch": 57, "duration": 5, "velocity": 67}, {"time": 2245, "pitch": 44, "duration": 14, "velocity": 92}, {"time": 2251, "pitch": 56, "duration": 6, "velocity": 77}, {"time": 2257, "pitch": 63, "duration": 12, "velocity": 82}, {"time": 2257, "pitch": 68, "duration": 11, "velocity": 75}, {"time": 2263, "pitch": 59, "duration": 6, "velocity": 68}, {"time": 2269, "pitch": 37, "duration": 23, "velocity": 66}, {"time": 2272, "pitch": 44, "duration": 20, "velocity": 36}, {"time": 2275, "pitch": 49, "duration": 7, "velocity": 76}, {"time": 2278, "pitch": 56, "duration": 7, "velocity": 69}, {"time": 2281, "pitch": 64, "duration": 18, "velocity": 86}, {"time": 2284, "pitch": 49, "duration": 14, "velocity": 75}, {"time": 2287, "pitch": 61, "duration": 12, "velocity": 55}, {"time": 2290, "pitch": 56, "duration": 10, "velocity": 68}, {"time": 2293, "pitch": 37, "duration": 20, "velocity": 65}, {"time": 2296, "pitch": 44, "duration": 20, "velocity": 50}, {"time": 2299, "pitch": 49, "duration": 7, "velocity": 82}, {"time": 2302, "pitch": 56, "duration": 2, "velocity": 76}, {"time": 2302, "pitch": 61, "duration": 2, "velocity": 61}, {"time": 2302, "pitch": 64, "duration": 2, "velocity": 63}, {"time": 2305, "pitch": 56, "duration": 1, "velocity": 81}, {"time": 2305, "pitch": 61, "duration": 7, "velocity": 112}, {"time": 2305, "pitch": 64, "duration": 10, "velocity": 92}, {"time": 2308, "pitch": 49, "duration": 8, "velocity": 107}, {"time": 2311, "pitch": 56, "duration": 8, "velocity": 117}, {"time": 2314, "pitch": 61, "duration": 5, "velocity": 127}, {"time": 2317, "pitch": 37, "duration": 17, "velocity": 96}, {"time": 2320, "pitch": 44, "duration": 13, "velocity": 100}, {"time": 2323, "pitch": 49, "duration": 7, "velocity": 122}, {"time": 2326, "pitch": 56, "duration": 5, "velocity": 100}, {"time": 2329, "pitch": 64, "duration": 13, "velocity": 100}, {"time": 2332, "pitch": 49, "duration": 4, "velocity": 112}, {"time": 2335, "pitch": 61, "duration": 6, "velocity": 122}, {"time": 2338, "pitch": 56, "duration": 3, "velocity": 112}, {"time": 2341, "pitch": 45, "duration": 22, "velocity": 89}, {"time": 2344, "pitch": 52, "duration": 11, "velocity": 71}, {"time": 2347, "pitch": 57, "duration": 3, "velocity": 99}, {"time": 2350, "pitch": 61, "duration": 4, "velocity": 127}, {"time": 2353, "pitch": 64, "duration": 12, "velocity": 93}, {"time": 2356, "pitch": 52, "duration": 9, "velocity": 93}, {"time": 2359, "pitch": 61, "duration": 7, "velocity": 122}, {"time": 2362, "pitch": 57, "duration": 4, "velocity": 97}, {"time": 2365, "pitch": 47, "duration": 17, "velocity": 79}, {"time": 2368, "pitch": 54, "duration": 11, "velocity": 85}, {"time": 2371, "pitch": 59, "duration": 3, "velocity": 89}, {"time": 2374, "pitch": 63, "duration": 4, "velocity": 117}, {"time": 2377, "pitch": 66, "duration": 11, "velocity": 112}, {"time": 2380, "pitch": 54, "duration": 2, "velocity": 95}, {"time": 2383, "pitch": 63, "duration": 6, "velocity": 127}, {"time": 2386, "pitch": 59, "duration": 4, "velocity": 102}, {"time": 2389, "pitch": 37, "duration": 19, "velocity": 88}, {"time": 2392, "pitch": 44, "duration": 15, "velocity": 78}, {"time": 2395, "pitch": 49, "duration": 7, "velocity": 82}, {"time": 2398, "pitch": 56, "duration": 9, "velocity": 97}, {"time": 2401, "pitch": 64, "duration": 13, "velocity": 95}, {"time": 2404, "pitch": 49, "duration": 5, "velocity": 90}, {"time": 2407, "pitch": 63, "duration": 7, "velocity": 112}, {"time": 2413, "pitch": 37, "duration": 16, "velocity": 83}, {"time": 2416, "pitch": 44, "duration": 13, "velocity": 32}, {"time": 2419, "pitch": 49, "duration": 7, "velocity": 89}, {"time": 2422, "pitch": 56, "duration": 5, "velocity": 90}, {"time": 2425, "pitch": 64, "duration": 12, "velocity": 92}, {"time": 2428, "pitch": 49, "duration": 4, "velocity": 89}, {"time": 2431, "pitch": 61, "duration": 7, "velocity": 82}, {"time": 2434, "pitch": 56, "duration": 3, "velocity": 89}, {"time": 2437, "pitch": 42, "duration": 17, "velocity": 68}, {"time": 2440, "pitch": 49, "duration": 13, "velocity": 46}, {"time": 2443, "pitch": 54, "duration": 7, "velocity": 82}, {"time": 2446, "pitch": 57, "duration": 7, "velocity": 79}, {"time": 2449, "pitch": 66, "duration": 13, "velocity": 97}, {"time": 2452, "pitch": 54, "duration": 3, "velocity": 83}, {"time": 2455, "pitch": 61, "duration": 6, "velocity": 95}, {"time": 2458, "pitch": 57, "duration": 4, "velocity": 92}, {"time": 2461, "pitch": 47, "duration": 18, "velocity": 64}, {"time": 2464, "pitch": 54, "duration": 10, "velocity": 83}, {"time": 2467, "pitch": 59, "duration": 8, "velocity": 71}, {"time": 2470, "pitch": 63, "duration": 4, "velocity": 99}, {"time": 2473, "pitch": 66, "duration": 9, "velocity": 102}, {"time": 2476, "pitch": 54, "duration": 2, "velocity": 95}, {"time": 2479, "pitch": 63, "duration": 4, "velocity": 117}, {"time": 2482, "pitch": 59, "duration": 5, "velocity": 93}, {"time": 2485, "pitch": 40, "duration": 17, "velocity": 83}, {"time": 2488, "pitch": 47, "duration": 14, "velocity": 99}, {"time": 2491, "pitch": 52, "duration": 7, "velocity": 90}, {"time": 2494, "pitch": 59, "duration": 8, "velocity": 93}, {"time": 2494, "pitch": 64, "duration": 1, "velocity": 36}, {"time": 2497, "pitch": 68, "duration": 13, "velocity": 127}, {"time": 2500, "pitch": 52, "duration": 2, "velocity": 97}, {"time": 2503, "pitch": 59, "duration": 1, "velocity": 26}, {"time": 2503, "pitch": 64, "duration": 2, "velocity": 97}, {"time": 2506, "pitch": 63, "duration": 5, "velocity": 117}, {"time": 2509, "pitch": 37, "duration": 17, "velocity": 74}, {"time": 2512, "pitch": 44, "duration": 14, "velocity": 72}, {"time": 2515, "pitch": 49, "duration": 7, "velocity": 90}, {"time": 2518, "pitch": 56, "duration": 5, "velocity": 92}, {"time": 2521, "pitch": 64, "duration": 13, "velocity": 96}, {"time": 2524, "pitch": 49, "duration": 2, "velocity": 96}, {"time": 2527, "pitch": 56, "duration": 4, "velocity": 107}, {"time": 2530, "pitch": 61, "duration": 4, "velocity": 93}, {"time": 2533, "pitch": 45, "duration": 21, "velocity": 85}, {"time": 2536, "pitch": 52, "duration": 10, "velocity": 85}, {"time": 2539, "pitch": 57, "duration": 7, "velocity": 76}, {"time": 2542, "pitch": 61, "duration": 3, "velocity": 102}, {"time": 2545, "pitch": 64, "duration": 12, "velocity": 97}, {"time": 2548, "pitch": 52, "duration": 8, "velocity": 88}, {"time": 2551, "pitch": 61, "duration": 6, "velocity": 127}, {"time": 2554, "pitch": 57, "duration": 3, "velocity": 96}, {"time": 2557, "pitch": 47, "duration": 17, "velocity": 74}, {"time": 2560, "pitch": 54, "duration": 10, "velocity": 86}, {"time": 2563, "pitch": 59, "duration": 8, "velocity": 72}, {"time": 2566, "pitch": 63, "duration": 4, "velocity": 112}, {"time": 2569, "pitch": 66, "duration": 11, "velocity": 102}, {"time": 2572, "pitch": 54, "duration": 2, "velocity": 86}, {"time": 2575, "pitch": 63, "duration": 6, "velocity": 122}, {"time": 2578, "pitch": 59, "duration": 4, "velocity": 95}, {"time": 2581, "pitch": 37, "duration": 22, "velocity": 83}, {"time": 2584, "pitch": 44, "duration": 20, "velocity": 39}, {"time": 2587, "pitch": 49, "duration": 7, "velocity": 88}, {"time": 2590, "pitch": 56, "duration": 6, "velocity": 96}, {"time": 2593, "pitch": 64, "duration": 8, "velocity": 95}, {"time": 2596, "pitch": 49, "duration": 8, "velocity": 90}, {"time": 2599, "pitch": 56, "duration": 1, "velocity": 26}, {"time": 2599, "pitch": 63, "duration": 6, "velocity": 95}, {"time": 2602, "pitch": 56, "duration": 5, "velocity": 72}, {"time": 2605, "pitch": 37, "duration": 18, "velocity": 79}, {"time": 2608, "pitch": 44, "duration": 14, "velocity": 71}, {"time": 2611, "pitch": 49, "duration": 7, "velocity": 88}, {"time": 2614, "pitch": 56, "duration": 15, "velocity": 85}, {"time": 2617, "pitch": 64, "duration": 10, "velocity": 97}, {"time": 2620, "pitch": 49, "duration": 5, "velocity": 89}, {"time": 2623, "pitch": 63, "duration": 4, "velocity": 93}, {"time": 2626, "pitch": 61, "duration": 3, "velocity": 52}, {"time": 2629, "pitch": 42, "duration": 17, "velocity": 85}, {"time": 2632, "pitch": 49, "duration": 14, "velocity": 67}, {"time": 2635, "pitch": 54, "duration": 7, "velocity": 83}, {"time": 2638, "pitch": 57, "duration": 7, "velocity": 81}, {"time": 2641, "pitch": 66, "duration": 12, "velocity": 107}, {"time": 2644, "pitch": 54, "duration": 5, "velocity": 93}, {"time": 2647, "pitch": 61, "duration": 6, "velocity": 100}, {"time": 2650, "pitch": 57, "duration": 3, "velocity": 92}, {"time": 2653, "pitch": 44, "duration": 17, "velocity": 70}, {"time": 2656, "pitch": 51, "duration": 13, "velocity": 66}, {"time": 2659, "pitch": 56, "duration": 7, "velocity": 85}, {"time": 2662, "pitch": 59, "duration": 5, "velocity": 73}, {"time": 2665, "pitch": 63, "duration": 7, "velocity": 93}, {"time": 2665, "pitch": 68, "duration": 12, "velocity": 100}, {"time": 2668, "pitch": 56, "duration": 2, "velocity": 85}, {"time": 2671, "pitch": 59, "duration": 6, "velocity": 92}, {"time": 2674, "pitch": 63, "duration": 3, "velocity": 92}, {"time": 2677, "pitch": 37, "duration": 5, "velocity": 53}, {"time": 2677, "pitch": 44, "duration": 2, "velocity": 66}, {"time": 2677, "pitch": 49, "duration": 4, "velocity": 93}, {"time": 2677, "pitch": 56, "duration": 5, "velocity": 75}, {"time": 2677, "pitch": 61, "duration": 5, "velocity": 36}, {"time": 2677, "pitch": 64, "duration": 5, "velocity": 71}, {"time": 2683, "pitch": 37, "duration": 4, "velocity": 58}, {"time": 2683, "pitch": 44, "duration": 4, "velocity": 69}, {"time": 2683, "pitch": 49, "duration": 4, "velocity": 69}, {"time": 2683, "pitch": 56, "duration": 5, "velocity": 69}, {"time": 2683, "pitch": 61, "duration": 4, "velocity": 48}, {"time": 2683, "pitch": 64, "duration": 5, "velocity": 64}, {"time": 2689, "pitch": 37, "duration": 4, "velocity": 63}, {"time": 2689, "pitch": 44, "duration": 4, "velocity": 47}, {"time": 2689, "pitch": 49, "duration": 4, "velocity": 93}, {"time": 2689, "pitch": 56, "duration": 4, "velocity": 88}, {"time": 2689, "pitch": 61, "duration": 4, "velocity": 76}, {"time": 2689, "pitch": 64, "duration": 4, "velocity": 68}, {"time": 2695, "pitch": 37, "duration": 3, "velocity": 56}, {"time": 2695, "pitch": 44, "duration": 3, "velocity": 92}, {"time": 2695, "pitch": 49, "duration": 3, "velocity": 96}, {"time": 2695, "pitch": 56, "duration": 3, "velocity": 93}, {"time": 2695, "pitch": 61, "duration": 3, "velocity": 88}, {"time": 2695, "pitch": 64, "duration": 3, "velocity": 83}, {"time": 2701, "pitch": 45, "duration": 4, "velocity": 92}, {"time": 2701, "pitch": 57, "duration": 4, "velocity": 92}, {"time": 2701, "pitch": 61, "duration": 4, "velocity": 99}, {"time": 2701, "pitch": 64, "duration": 4, "velocity": 92}, {"time": 2707, "pitch": 45, "duration": 5, "velocity": 100}, {"time": 2707, "pitch": 57, "duration": 4, "velocity": 93}, {"time": 2707, "pitch": 61, "duration": 5, "velocity": 117}, {"time": 2707, "pitch": 64, "duration": 4, "velocity": 82}, {"time": 2713, "pitch": 47, "duration": 4, "velocity": 102}, {"time": 2713, "pitch": 59, "duration": 4, "velocity": 85}, {"time": 2713, "pitch": 63, "duration": 4, "velocity": 117}, {"time": 2713, "pitch": 66, "duration": 4, "velocity": 117}, {"time": 2719, "pitch": 47, "duration": 4, "velocity": 107}, {"time": 2719, "pitch": 59, "duration": 4, "velocity": 85}, {"time": 2719, "pitch": 63, "duration": 5, "velocity": 112}, {"time": 2719, "pitch": 66, "duration": 5, "velocity": 99}, {"time": 2725, "pitch": 37, "duration": 5, "velocity": 92}, {"time": 2725, "pitch": 49, "duration": 4, "velocity": 100}, {"time": 2725, "pitch": 56, "duration": 4, "velocity": 100}, {"time": 2725, "pitch": 61, "duration": 4, "velocity": 100}, {"time": 2725, "pitch": 64, "duration": 5, "velocity": 95}, {"time": 2755, "pitch": 45, "duration": 3, "velocity": 99}, {"time": 2755, "pitch": 57, "duration": 2, "velocity": 112}, {"time": 2758, "pitch": 47, "duration": 2, "velocity": 102}, {"time": 2758, "pitch": 59, "duration": 2, "velocity": 93}, {"time": 2761, "pitch": 49, "duration": 2, "velocity": 127}, {"time": 2761, "pitch": 61, "duration": 3, "velocity": 112}, {"time": 2767, "pitch": 45, "duration": 4, "velocity": 99}, {"time": 2767, "pitch": 57, "duration": 3, "velocity": 92}, {"time": 2767, "pitch": 61, "duration": 4, "velocity": 100}, {"time": 2767, "pitch": 64, "duration": 3, "velocity": 90}, {"time": 2773, "pitch": 47, "duration": 4, "velocity": 112}, {"time": 2773, "pitch": 59, "duration": 4, "velocity": 89}, {"time": 2773, "pitch": 63, "duration": 4, "velocity": 127}, {"time": 2773, "pitch": 66, "duration": 4, "velocity": 122}, {"time": 2803, "pitch": 37, "duration": 16, "velocity": 93}, {"time": 2803, "pitch": 49, "duration": 16, "velocity": 95}, {"time": 2803, "pitch": 56, "duration": 17, "velocity": 96}, {"time": 2803, "pitch": 61, "duration": 16, "velocity": 100}, {"time": 2803, "pitch": 64, "duration": 17, "velocity": 90}, {"time": 2821, "pitch": 37, "duration": 17, "velocity": 92}, {"time": 2824, "pitch": 44, "duration": 13, "velocity": 33}, {"time": 2827, "pitch": 49, "duration": 7, "velocity": 93}, {"time": 2830, "pitch": 56, "duration": 5, "velocity": 77}, {"time": 2833, "pitch": 64, "duration": 12, "velocity": 90}, {"time": 2836, "pitch": 49, "duration": 3, "velocity": 92}, {"time": 2839, "pitch": 61, "duration": 5, "velocity": 74}, {"time": 2842, "pitch": 56, "duration": 3, "velocity": 86}, {"time": 2845, "pitch": 42, "duration": 17, "velocity": 72}, {"time": 2848, "pitch": 49, "duration": 12, "velocity": 32}, {"time": 2851, "pitch": 54, "duration": 6, "velocity": 71}, {"time": 2854, "pitch": 57, "duration": 7, "velocity": 81}, {"time": 2857, "pitch": 66, "duration": 12, "velocity": 112}, {"time": 2860, "pitch": 54, "duration": 3, "velocity": 86}, {"time": 2863, "pitch": 61, "duration": 6, "velocity": 95}, {"time": 2866, "pitch": 57, "duration": 4, "velocity": 93}, {"time": 2869, "pitch": 47, "duration": 18, "velocity": 73}, {"time": 2872, "pitch": 54, "duration": 10, "velocity": 72}, {"time": 2875, "pitch": 59, "duration": 8, "velocity": 72}, {"time": 2878, "pitch": 63, "duration": 4, "velocity": 96}, {"time": 2881, "pitch": 66, "duration": 9, "velocity": 102}, {"time": 2884, "pitch": 54, "duration": 2, "velocity": 72}, {"time": 2887, "pitch": 63, "duration": 5, "velocity": 112}, {"time": 2890, "pitch": 59, "duration": 10, "velocity": 92}, {"time": 2893, "pitch": 40, "duration": 18, "velocity": 82}, {"time": 2896, "pitch": 47, "duration": 15, "velocity": 95}, {"time": 2899, "pitch": 52, "duration": 7, "velocity": 93}, {"time": 2902, "pitch": 59, "duration": 4, "velocity": 95}, {"time": 2905, "pitch": 64, "duration": 7, "velocity": 93}, {"time": 2905, "pitch": 68, "duration": 12, "velocity": 117}, {"time": 2908, "pitch": 52, "duration": 2, "velocity": 95}, {"time": 2911, "pitch": 59, "duration": 7, "velocity": 97}, {"time": 2914, "pitch": 64, "duration": 3, "velocity": 66}, {"time": 2917, "pitch": 37, "duration": 17, "velocity": 96}, {"time": 2920, "pitch": 44, "duration": 14, "velocity": 65}, {"time": 2923, "pitch": 49, "duration": 7, "velocity": 86}, {"time": 2926, "pitch": 56, "duration": 7, "velocity": 88}, {"time": 2929, "pitch": 64, "duration": 11, "velocity": 90}, {"time": 2932, "pitch": 49, "duration": 3, "velocity": 95}, {"time": 2935, "pitch": 56, "duration": 4, "velocity": 112}, {"time": 2938, "pitch": 61, "duration": 4, "velocity": 100}, {"time": 2941, "pitch": 45, "duration": 22, "velocity": 85}, {"time": 2944, "pitch": 52, "duration": 10, "velocity": 93}, {"time": 2947, "pitch": 57, "duration": 6, "velocity": 85}, {"time": 2950, "pitch": 61, "duration": 3, "velocity": 102}, {"time": 2953, "pitch": 64, "duration": 12, "velocity": 99}, {"time": 2956, "pitch": 52, "duration": 8, "velocity": 88}, {"time": 2959, "pitch": 61, "duration": 5, "velocity": 117}, {"time": 2962, "pitch": 57, "duration": 4, "velocity": 107}, {"time": 2965, "pitch": 47, "duration": 18, "velocity": 79}, {"time": 2968, "pitch": 54, "duration": 10, "velocity": 92}, {"time": 2971, "pitch": 59, "duration": 8, "velocity": 76}, {"time": 2974, "pitch": 63, "duration": 4, "velocity": 112}, {"time": 2977, "pitch": 66, "duration": 11, "velocity": 107}, {"time": 2980, "pitch": 54, "duration": 2, "velocity": 82}, {"time": 2983, "pitch": 63, "duration": 6, "velocity": 112}, {"time": 2986, "pitch": 59, "duration": 3, "velocity": 88}, {"time": 2989, "pitch": 37, "duration": 22, "velocity": 88}, {"time": 2992, "pitch": 44, "duration": 20, "velocity": 35}, {"time": 2995, "pitch": 49, "duration": 7, "velocity": 79}, {"time": 2998, "pitch": 56, "duration": 7, "velocity": 72}, {"time": 3001, "pitch": 64, "duration": 19, "velocity": 92}, {"time": 3004, "pitch": 49, "duration": 8, "velocity": 90}, {"time": 3007, "pitch": 61, "duration": 8, "velocity": 97}, {"time": 3010, "pitch": 56, "duration": 5, "velocity": 99}, {"time": 3013, "pitch": 37, "duration": 17, "velocity": 82}, {"time": 3016, "pitch": 44, "duration": 14, "velocity": 66}, {"time": 3019, "pitch": 49, "duration": 7, "velocity": 89}, {"time": 3022, "pitch": 56, "duration": 7, "velocity": 92}, {"time": 3025, "pitch": 64, "duration": 11, "velocity": 96}, {"time": 3028, "pitch": 49, "duration": 4, "velocity": 78}, {"time": 3031, "pitch": 61, "duration": 6, "velocity": 75}, {"time": 3034, "pitch": 56, "duration": 3, "velocity": 95}, {"time": 3037, "pitch": 42, "duration": 18, "velocity": 64}, {"time": 3040, "pitch": 49, "duration": 16, "velocity": 37}, {"time": 3043, "pitch": 54, "duration": 7, "velocity": 77}, {"time": 3046, "pitch": 57, "duration": 8, "velocity": 85}, {"time": 3049, "pitch": 66, "duration": 13, "velocity": 112}, {"time": 3052, "pitch": 54, "duration": 7, "velocity": 86}, {"time": 3055, "pitch": 61, "duration": 5, "velocity": 107}, {"time": 3058, "pitch": 57, "duration": 4, "velocity": 97}, {"time": 3061, "pitch": 44, "duration": 18, "velocity": 58}, {"time": 3064, "pitch": 51, "duration": 14, "velocity": 45}, {"time": 3067, "pitch": 56, "duration": 7, "velocity": 79}, {"time": 3070, "pitch": 59, "duration": 6, "velocity": 82}, {"time": 3073, "pitch": 63, "duration": 8, "velocity": 122}, {"time": 3076, "pitch": 56, "duration": 2, "velocity": 83}, {"time": 3079, "pitch": 59, "duration": 6, "velocity": 92}, {"time": 3082, "pitch": 63, "duration": 2, "velocity": 37}, {"time": 3085, "pitch": 37, "duration": 47, "velocity": 53}, {"time": 3085, "pitch": 44, "duration": 48, "velocity": 95}, {"time": 3085, "pitch": 49, "duration": 47, "velocity": 89}, {"time": 3085, "pitch": 56, "duration": 54, "velocity": 97}, {"time": 3085, "pitch": 61, "duration": 2, "velocity": 88}, {"time": 3085, "pitch": 64, "duration": 50, "velocity": 79}, {"time": 3088, "pitch": 61, "duration": 50, "velocity": 26}, {"time": 3133, "pitch": 37, "duration": 22, "velocity": 81}, {"time": 3139, "pitch": 44, "duration": 18, "velocity": 35}, {"time": 3139, "pitch": 75, "duration": 3, "velocity": 90}, {"time": 3142, "pitch": 76, "duration": 3, "velocity": 71}, {"time": 3145, "pitch": 49, "duration": 25, "velocity": 38}, {"time": 3145, "pitch": 61, "duration": 37, "velocity": 55}, {"time": 3145, "pitch": 64, "duration": 22, "velocity": 58}, {"time": 3145, "pitch": 80, "duration": 4, "velocity": 85}, {"time": 3148, "pitch": 76, "duration": 4, "velocity": 71}, {"time": 3151, "pitch": 56, "duration": 20, "velocity": 44}, {"time": 3151, "pitch": 75, "duration": 4, "velocity": 73}, {"time": 3154, "pitch": 68, "duration": 8, "velocity": 64}, {"time": 3157, "pitch": 37, "duration": 18, "velocity": 59}, {"time": 3160, "pitch": 68, "duration": 2, "velocity": 97}, {"time": 3163, "pitch": 44, "duration": 11, "velocity": 48}, {"time": 3163, "pitch": 75, "duration": 3, "velocity": 90}, {"time": 3166, "pitch": 76, "duration": 3, "velocity": 71}, {"time": 3169, "pitch": 64, "duration": 12, "velocity": 76}, {"time": 3169, "pitch": 80, "duration": 4, "velocity": 85}, {"time": 3172, "pitch": 49, "duration": 4, "velocity": 41}, {"time": 3172, "pitch": 76, "duration": 4, "velocity": 71}, {"time": 3175, "pitch": 56, "duration": 5, "velocity": 68}, {"time": 3175, "pitch": 75, "duration": 4, "velocity": 73}, {"time": 3178, "pitch": 68, "duration": 8, "velocity": 64}, {"time": 3181, "pitch": 44, "duration": 22, "velocity": 73}, {"time": 3187, "pitch": 51, "duration": 18, "velocity": 33}, {"time": 3193, "pitch": 56, "duration": 23, "velocity": 39}, {"time": 3193, "pitch": 63, "duration": 22, "velocity": 61}, {"time": 3193, "pitch": 68, "duration": 22, "velocity": 66}, {"time": 3199, "pitch": 59, "duration": 31, "velocity": 41}, {"time": 3205, "pitch": 44, "duration": 14, "velocity": 56}, {"time": 3211, "pitch": 51, "duration": 6, "velocity": 35}, {"time": 3217, "pitch": 68, "duration": 12, "velocity": 74}, {"time": 3223, "pitch": 63, "duration": 7, "velocity": 66}, {"time": 3229, "pitch": 37, "duration": 17, "velocity": 71}, {"time": 3235, "pitch": 44, "duration": 10, "velocity": 37}, {"time": 3241, "pitch": 49, "duration": 7, "velocity": 35}, {"time": 3241, "pitch": 61, "duration": 4, "velocity": 29}, {"time": 3241, "pitch": 64, "duration": 13, "velocity": 63}, {"time": 3247, "pitch": 56, "duration": 6, "velocity": 58}, {"time": 3247, "pitch": 61, "duration": 7, "velocity": 23}, {"time": 3253, "pitch": 42, "duration": 22, "velocity": 59}, {"time": 3259, "pitch": 49, "duration": 13, "velocity": 30}, {"time": 3265, "pitch": 54, "duration": 10, "velocity": 44}, {"time": 3265, "pitch": 61, "duration": 10, "velocity": 57}, {"time": 3265, "pitch": 66, "duration": 11, "velocity": 53}, {"time": 3277, "pitch": 51, "duration": 27, "velocity": 72}, {"time": 3277, "pitch": 56, "duration": 28, "velocity": 71}, {"time": 3277, "pitch": 63, "duration": 28, "velocity": 67}, {"time": 3277, "pitch": 44, "duration": 28, "velocity": 53}, {"time": 3277, "pitch": 59, "duration": 28, "velocity": 63}, {"time": 3348, "pitch": 37, "duration": 86, "velocity": 73}, {"time": 3354, "pitch": 44, "duration": 79, "velocity": 40}, {"time": 3358, "pitch": 49, "duration": 75, "velocity": 72}, {"time": 3362, "pitch": 52, "duration": 4, "velocity": 52}, {"time": 3365, "pitch": 54, "duration": 2, "velocity": 52}, {"time": 3367, "pitch": 56, "duration": 1, "velocity": 42}, {"time": 3370, "pitch": 61, "duration": 4, "velocity": 79}, {"time": 3373, "pitch": 63, "duration": 3, "velocity": 59}, {"time": 3376, "pitch": 64, "duration": 3, "velocity": 58}, {"time": 3379, "pitch": 66, "duration": 4, "velocity": 39}, {"time": 3383, "pitch": 68, "duration": 1, "velocity": 40}, {"time": 3387, "pitch": 73, "duration": 3, "velocity": 64}, {"time": 3390, "pitch": 76, "duration": 2, "velocity": 58}, {"time": 3395, "pitch": 80, "duration": 1, "velocity": 72}, {"time": 3399, "pitch": 85, "duration": 2, "velocity": 74}, {"time": 3404, "pitch": 88, "duration": 1, "velocity": 62}, {"time": 3409, "pitch": 92, "duration": 1, "velocity": 66}, {"time": 3413, "pitch": 97, "duration": 2, "velocity": 72}, {"time": 3421, "pitch": 100, "duration": 6, "velocity": 47}], "annotations": [{"time": 14, "annotation": {"number": 64, "value": 127}, "group": "control_change"}, {"time": 35, "annotation": {"number": 64, "value": 0}, "group": "control_change"}, {"time": 38, "annotation": {"number": 64, "value": 127}, "group": "control_change"}, {"time": 59, "annotation": {"number": 64, "value": 0}, "group": "control_change"}, {"time": 62, "annotation": {"number": 64, "value": 127}, "group": "control_change"}, {"time": 82, "annotation": {"number": 64, "value": 0}, "group": "control_change"}, {"time": 86, "annotation": {"number": 64, "value": 127}, "group": "control_change"}, {"time": 107, "annotation": {"number": 64, "value": 0}, "group": "control_change"}, {"time": 109, "annotation": {"number": 64, "value": 127}, "group": "control_change"}, {"time": 132, "annotation": {"number": 64, "value": 0}, "group": "control_change"}, {"time": 133, "annotation": {"number": 64, "value": 127}, "group": "control_change"}, {"time": 155, "annotation": {"number": 64, "value": 0}, "group": "control_change"}, {"time": 157, "annotation": {"number": 64, "value": 127}, "group": "control_change"}, {"time": 180, "annotation": {"number": 64, "value": 0}, "group": "control_change"}, {"time": 181, "annotation": {"number": 64, "value": 127}, "group": "control_change"}, {"time": 204, "annotation": {"number": 64, "value": 0}, "group": "control_change"}, {"time": 205, "annotation": {"number": 64, "value": 127}, "group": "control_change"}, {"time": 226, "annotation": {"number": 64, "value": 0}, "group": "control_change"}, {"time": 229, "annotation": {"number": 64, "value": 127}, "group": "control_change"}, {"time": 250, "annotation": {"number": 64, "value": 0}, "group": "control_change"}, {"time": 253, "annotation": {"number": 64, "value": 127}, "group": "control_change"}, {"time": 274, "annotation": {"number": 64, "value": 0}, "group": "control_change"}, {"time": 278, "annotation": {"number": 64, "value": 127}, "group": "control_change"}, {"time": 299, "annotation": {"number": 64, "value": 0}, "group": "control_change"}, {"time": 301, "annotation": {"number": 64, "value": 127}, "group": "control_change"}, {"time": 322, "annotation": {"number": 64, "value": 0}, "group": "control_change"}, {"time": 325, "annotation": {"number": 64, "value": 127}, "group": "control_change"}, {"time": 346, "annotation": {"number": 64, "value": 0}, "group": "control_change"}, {"time": 349, "annotation": {"number": 64, "value": 127}, "group": "control_change"}, {"time": 370, "annotation": {"number": 64, "value": 0}, "group": "control_change"}, {"time": 373, "annotation": {"number": 64, "value": 127}, "group": "control_change"}, {"time": 395, "annotation": {"number": 64, "value": 0}, "group": "control_change"}, {"time": 397, "annotation": {"number": 64, "value": 127}, "group": "control_change"}, {"time": 418, "annotation": {"number": 64, "value": 0}, "group": "control_change"}, {"time": 421, "annotation": {"number": 64, "value": 127}, "group": "control_change"}, {"time": 442, "annotation": {"number": 64, "value": 0}, "group": "control_change"}, {"time": 444, "annotation": {"number": 64, "value": 127}, "group": "control_change"}, {"time": 447, "annotation": {"number": 64, "value": 0}, "group": "control_change"}, {"time": 457, "annotation": {"number": 64, "value": 127}, "group": "control_change"}, {"time": 464, "annotation": {"number": 64, "value": 0}, "group": "control_change"}, {"time": 469, "annotation": {"number": 64, "value": 127}, "group": "control_change"}, {"time": 515, "annotation": {"number": 64, "value": 0}, "group": "control_change"}, {"time": 517, "annotation": {"number": 64, "value": 127}, "group": "control_change"}, {"time": 539, "annotation": {"number": 64, "value": 0}, "group": "control_change"}, {"time": 541, "annotation": {"number": 64, "value": 127}, "group": "control_change"}, {"time": 563, "annotation": {"number": 64, "value": 0}, "group": "control_change"}, {"time": 565, "annotation": {"number": 64, "value": 127}, "group": "control_change"}, {"time": 587, "annotation": {"number": 64, "value": 0}, "group": "control_change"}, {"time": 590, "annotation": {"number": 64, "value": 127}, "group": "control_change"}, {"time": 612, "annotation": {"number": 64, "value": 0}, "group": "control_change"}, {"time": 613, "annotation": {"number": 64, "value": 127}, "group": "control_change"}, {"time": 635, "annotation": {"number": 64, "value": 0}, "group": "control_change"}, {"time": 637, "annotation": {"number": 64, "value": 127}, "group": "control_change"}, {"time": 659, "annotation": {"number": 64, "value": 0}, "group": "control_change"}, {"time": 662, "annotation": {"number": 64, "value": 127}, "group": "control_change"}, {"time": 683, "annotation": {"number": 64, "value": 0}, "group": "control_change"}, {"time": 686, "annotation": {"number": 64, "value": 127}, "group": "control_change"}, {"time": 707, "annotation": {"number": 64, "value": 0}, "group": "control_change"}, {"time": 710, "annotation": {"number": 64, "value": 127}, "group": "control_change"}, {"time": 730, "annotation": {"number": 64, "value": 0}, "group": "control_change"}, {"time": 733, "annotation": {"number": 64, "value": 127}, "group": "control_change"}, {"time": 755, "annotation": {"number": 64, "value": 0}, "group": "control_change"}, {"time": 757, "annotation": {"number": 64, "value": 127}, "group": "control_change"}, {"time": 778, "annotation": {"number": 64, "value": 0}, "group": "control_change"}, {"time": 782, "annotation": {"number": 64, "value": 127}, "group": "control_change"}, {"time": 803, "annotation": {"number": 64, "value": 0}, "group": "control_change"}, {"time": 805, "annotation": {"number": 64, "value": 127}, "group": "control_change"}, {"time": 826, "annotation": {"number": 64, "value": 0}, "group": "control_change"}, {"time": 829, "annotation": {"number": 64, "value": 127}, "group": "control_change"}, {"time": 851, "annotation": {"number": 64, "value": 0}, "group": "control_change"}, {"time": 853, "annotation": {"number": 64, "value": 127}, "group": "control_change"}, {"time": 874, "annotation": {"number": 64, "value": 0}, "group": "control_change"}, {"time": 877, "annotation": {"number": 64, "value": 127}, "group": "control_change"}, {"time": 899, "annotation": {"number": 64, "value": 0}, "group": "control_change"}, {"time": 901, "annotation": {"number": 64, "value": 127}, "group": "control_change"}, {"time": 923, "annotation": {"number": 64, "value": 0}, "group": "control_change"}, {"time": 925, "annotation": {"number": 64, "value": 127}, "group": "control_change"}, {"time": 947, "annotation": {"number": 64, "value": 0}, "group": "control_change"}, {"time": 949, "annotation": {"number": 64, "value": 127}, "group": "control_change"}, {"time": 958, "annotation": {"number": 64, "value": 0}, "group": "control_change"}, {"time": 961, "annotation": {"number": 64, "value": 127}, "group": "control_change"}, {"time": 972, "annotation": {"number": 64, "value": 0}, "group": "control_change"}, {"time": 973, "annotation": {"number": 64, "value": 127}, "group": "control_change"}, {"time": 994, "annotation": {"number": 64, "value": 0}, "group": "control_change"}, {"time": 997, "annotation": {"number": 64, "value": 127}, "group": "control_change"}, {"time": 1018, "annotation": {"number": 64, "value": 0}, "group": "control_change"}, {"time": 1021, "annotation": {"number": 64, "value": 127}, "group": "control_change"}, {"time": 1042, "annotation": {"number": 64, "value": 0}, "group": "control_change"}, {"time": 1045, "annotation": {"number": 64, "value": 127}, "group": "control_change"}, {"time": 1066, "annotation": {"number": 64, "value": 0}, "group": "control_change"}, {"time": 1069, "annotation": {"number": 64, "value": 127}, "group": "control_change"}, {"time": 1090, "annotation": {"number": 64, "value": 0}, "group": "control_change"}, {"time": 1094, "annotation": {"number": 64, "value": 127}, "group": "control_change"}, {"time": 1115, "annotation": {"number": 64, "value": 0}, "group": "control_change"}, {"time": 1117, "annotation": {"number": 64, "value": 127}, "group": "control_change"}, {"time": 1139, "annotation": {"number": 64, "value": 0}, "group": "control_change"}, {"time": 1142, "annotation": {"number": 64, "value": 127}, "group": "control_change"}, {"time": 1163, "annotation": {"number": 64, "value": 0}, "group": "control_change"}, {"time": 1165, "annotation": {"number": 64, "value": 127}, "group": "control_change"}, {"time": 1212, "annotation": {"number": 64, "value": 0}, "group": "control_change"}, {"time": 1213, "annotation": {"number": 64, "value": 127}, "group": "control_change"}, {"time": 1214, "annotation": {"number": 64, "value": 127}, "group": "control_change"}, {"time": 1215, "annotation": {"number": 64, "value": 0}, "group": "control_change"}, {"time": 1216, "annotation": {"number": 64, "value": 127}, "group": "control_change"}, {"time": 1235, "annotation": {"number": 64, "value": 0}, "group": "control_change"}, {"time": 1237, "annotation": {"number": 64, "value": 127}, "group": "control_change"}, {"time": 1259, "annotation": {"number": 64, "value": 0}, "group": "control_change"}, {"time": 1261, "annotation": {"number": 64, "value": 127}, "group": "control_change"}, {"time": 1283, "annotation": {"number": 64, "value": 0}, "group": "control_change"}, {"time": 1285, "annotation": {"number": 64, "value": 127}, "group": "control_change"}, {"time": 1307, "annotation": {"number": 64, "value": 0}, "group": "control_change"}, {"time": 1309, "annotation": {"number": 64, "value": 127}, "group": "control_change"}, {"time": 1331, "annotation": {"number": 64, "value": 0}, "group": "control_change"}, {"time": 1333, "annotation": {"number": 64, "value": 127}, "group": "control_change"}, {"time": 1355, "annotation": {"number": 64, "value": 0}, "group": "control_change"}, {"time": 1357, "annotation": {"number": 64, "value": 127}, "group": "control_change"}, {"time": 1379, "annotation": {"number": 64, "value": 0}, "group": "control_change"}, {"time": 1381, "annotation": {"number": 64, "value": 127}, "group": "control_change"}, {"time": 1403, "annotation": {"number": 64, "value": 0}, "group": "control_change"}, {"time": 1405, "annotation": {"number": 64, "value": 127}, "group": "control_change"}, {"time": 1427, "annotation": {"number": 64, "value": 0}, "group": "control_change"}, {"time": 1429, "annotation": {"number": 64, "value": 127}, "group": "control_change"}, {"time": 1451, "annotation": {"number": 64, "value": 0}, "group": "control_change"}, {"time": 1453, "annotation": {"number": 64, "value": 127}, "group": "control_change"}, {"time": 1475, "annotation": {"number": 64, "value": 0}, "group": "control_change"}, {"time": 1477, "annotation": {"number": 64, "value": 127}, "group": "control_change"}, {"time": 1499, "annotation": {"number": 64, "value": 0}, "group": "control_change"}, {"time": 1501, "annotation": {"number": 64, "value": 127}, "group": "control_change"}, {"time": 1523, "annotation": {"number": 64, "value": 0}, "group": "control_change"}, {"time": 1525, "annotation": {"number": 64, "value": 127}, "group": "control_change"}, {"time": 1547, "annotation": {"number": 64, "value": 0}, "group": "control_change"}, {"time": 1549, "annotation": {"number": 64, "value": 127}, "group": "control_change"}, {"time": 1571, "annotation": {"number": 64, "value": 0}, "group": "control_change"}, {"time": 1573, "annotation": {"number": 64, "value": 127}, "group": "control_change"}, {"time": 1594, "annotation": {"number": 64, "value": 0}, "group": "control_change"}, {"time": 1597, "annotation": {"number": 64, "value": 127}, "group": "control_change"}, {"time": 1619, "annotation": {"number": 64, "value": 0}, "group": "control_change"}, {"time": 1622, "annotation": {"number": 64, "value": 127}, "group": "control_change"}, {"time": 1642, "annotation": {"number": 64, "value": 0}, "group": "control_change"}, {"time": 1645, "annotation": {"number": 64, "value": 127}, "group": "control_change"}, {"time": 1668, "annotation": {"number": 64, "value": 0}, "group": "control_change"}, {"time": 1669, "annotation": {"number": 64, "value": 127}, "group": "control_change"}, {"time": 1691, "annotation": {"number": 64, "value": 0}, "group": "control_change"}, {"time": 1692, "annotation": {"number": 64, "value": 127}, "group": "control_change"}, {"time": 1715, "annotation": {"number": 64, "value": 0}, "group": "control_change"}, {"time": 1718, "annotation": {"number": 64, "value": 127}, "group": "control_change"}, {"time": 1739, "annotation": {"number": 64, "value": 0}, "group": "control_change"}, {"time": 1742, "annotation": {"number": 64, "value": 127}, "group": "control_change"}, {"time": 1763, "annotation": {"number": 64, "value": 0}, "group": "control_change"}, {"time": 1765, "annotation": {"number": 64, "value": 127}, "group": "control_change"}, {"time": 1787, "annotation": {"number": 64, "value": 0}, "group": "control_change"}, {"time": 1789, "annotation": {"number": 64, "value": 127}, "group": "control_change"}, {"time": 1811, "annotation": {"number": 64, "value": 0}, "group": "control_change"}, {"time": 1814, "annotation": {"number": 64, "value": 127}, "group": "control_change"}, {"time": 1835, "annotation": {"number": 64, "value": 0}, "group": "control_change"}, {"time": 1837, "annotation": {"number": 64, "value": 127}, "group": "control_change"}, {"time": 1859, "annotation": {"number": 64, "value": 0}, "group": "control_change"}, {"time": 1861, "annotation": {"number": 64, "value": 127}, "group": "control_change"}, {"time": 1883, "annotation": {"number": 64, "value": 0}, "group": "control_change"}, {"time": 1885, "annotation": {"number": 64, "value": 127}, "group": "control_change"}, {"time": 1907, "annotation": {"number": 64, "value": 0}, "group": "control_change"}, {"time": 1910, "annotation": {"number": 64, "value": 127}, "group": "control_change"}, {"time": 1930, "annotation": {"number": 64, "value": 0}, "group": "control_change"}, {"time": 1933, "annotation": {"number": 64, "value": 127}, "group": "control_change"}, {"time": 1955, "annotation": {"number": 64, "value": 0}, "group": "control_change"}, {"time": 1957, "annotation": {"number": 64, "value": 127}, "group": "control_change"}, {"time": 1978, "annotation": {"number": 64, "value": 0}, "group": "control_change"}, {"time": 1982, "annotation": {"number": 64, "value": 127}, "group": "control_change"}, {"time": 2003, "annotation": {"number": 64, "value": 0}, "group": "control_change"}, {"time": 2005, "annotation": {"number": 64, "value": 127}, "group": "control_change"}, {"time": 2026, "annotation": {"number": 64, "value": 0}, "group": "control_change"}, {"time": 2029, "annotation": {"number": 64, "value": 127}, "group": "control_change"}, {"time": 2051, "annotation": {"number": 64, "value": 0}, "group": "control_change"}, {"time": 2053, "annotation": {"number": 64, "value": 127}, "group": "control_change"}, {"time": 2074, "annotation": {"number": 64, "value": 0}, "group": "control_change"}, {"time": 2077, "annotation": {"number": 64, "value": 127}, "group": "control_change"}, {"time": 2099, "annotation": {"number": 64, "value": 0}, "group": "control_change"}, {"time": 2101, "annotation": {"number": 64, "value": 127}, "group": "control_change"}, {"time": 2123, "annotation": {"number": 64, "value": 0}, "group": "control_change"}, {"time": 2125, "annotation": {"number": 64, "value": 127}, "group": "control_change"}, {"time": 2147, "annotation": {"number": 64, "value": 0}, "group": "control_change"}, {"time": 2149, "annotation": {"number": 64, "value": 127}, "group": "control_change"}, {"time": 2158, "annotation": {"number": 64, "value": 0}, "group": "control_change"}, {"time": 2161, "annotation": {"number": 64, "value": 127}, "group": "control_change"}, {"time": 2172, "annotation": {"number": 64, "value": 0}, "group": "control_change"}, {"time": 2173, "annotation": {"number": 64, "value": 127}, "group": "control_change"}, {"time": 2194, "annotation": {"number": 64, "value": 0}, "group": "control_change"}, {"time": 2197, "annotation": {"number": 64, "value": 127}, "group": "control_change"}, {"time": 2218, "annotation": {"number": 64, "value": 0}, "group": "control_change"}, {"time": 2221, "annotation": {"number": 64, "value": 127}, "group": "control_change"}, {"time": 2242, "annotation": {"number": 64, "value": 0}, "group": "control_change"}, {"time": 2245, "annotation": {"number": 64, "value": 127}, "group": "control_change"}, {"time": 2266, "annotation": {"number": 64, "value": 0}, "group": "control_change"}, {"time": 2269, "annotation": {"number": 64, "value": 127}, "group": "control_change"}, {"time": 2290, "annotation": {"number": 64, "value": 0}, "group": "control_change"}, {"time": 2294, "annotation": {"number": 64, "value": 127}, "group": "control_change"}, {"time": 2315, "annotation": {"number": 64, "value": 0}, "group": "control_change"}, {"time": 2317, "annotation": {"number": 64, "value": 127}, "group": "control_change"}, {"time": 2339, "annotation": {"number": 64, "value": 0}, "group": "control_change"}, {"time": 2342, "annotation": {"number": 64, "value": 127}, "group": "control_change"}, {"time": 2363, "annotation": {"number": 64, "value": 0}, "group": "control_change"}, {"time": 2365, "annotation": {"number": 64, "value": 127}, "group": "control_change"}, {"time": 2412, "annotation": {"number": 64, "value": 0}, "group": "control_change"}, {"time": 2413, "annotation": {"number": 64, "value": 127}, "group": "control_change"}, {"time": 2414, "annotation": {"number": 64, "value": 127}, "group": "control_change"}, {"time": 2415, "annotation": {"number": 64, "value": 0}, "group": "control_change"}, {"time": 2416, "annotation": {"number": 64, "value": 127}, "group": "control_change"}, {"time": 2435, "annotation": {"number": 64, "value": 0}, "group": "control_change"}, {"time": 2437, "annotation": {"number": 64, "value": 127}, "group": "control_change"}, {"time": 2459, "annotation": {"number": 64, "value": 0}, "group": "control_change"}, {"time": 2461, "annotation": {"number": 64, "value": 127}, "group": "control_change"}, {"time": 2483, "annotation": {"number": 64, "value": 0}, "group": "control_change"}, {"time": 2485, "annotation": {"number": 64, "value": 127}, "group": "control_change"}, {"time": 2507, "annotation": {"number": 64, "value": 0}, "group": "control_change"}, {"time": 2509, "annotation": {"number": 64, "value": 127}, "group": "control_change"}, {"time": 2531, "annotation": {"number": 64, "value": 0}, "group": "control_change"}, {"time": 2533, "annotation": {"number": 64, "value": 127}, "group": "control_change"}, {"time": 2555, "annotation": {"number": 64, "value": 0}, "group": "control_change"}, {"time": 2557, "annotation": {"number": 64, "value": 127}, "group": "control_change"}, {"time": 2579, "annotation": {"number": 64, "value": 0}, "group": "control_change"}, {"time": 2581, "annotation": {"number": 64, "value": 127}, "group": "control_change"}, {"time": 2603, "annotation": {"number": 64, "value": 0}, "group": "control_change"}, {"time": 2605, "annotation": {"number": 64, "value": 127}, "group": "control_change"}, {"time": 2627, "annotation": {"number": 64, "value": 0}, "group": "control_change"}, {"time": 2629, "annotation": {"number": 64, "value": 127}, "group": "control_change"}, {"time": 2651, "annotation": {"number": 64, "value": 0}, "group": "control_change"}, {"time": 2653, "annotation": {"number": 64, "value": 127}, "group": "control_change"}, {"time": 2675, "annotation": {"number": 64, "value": 0}, "group": "control_change"}, {"time": 2676, "annotation": {"number": 64, "value": 127}, "group": "control_change"}, {"time": 2677, "annotation": {"number": 64, "value": 127}, "group": "control_change"}, {"time": 2679, "annotation": {"number": 64, "value": 0}, "group": "control_change"}, {"time": 2701, "annotation": {"number": 64, "value": 127}, "group": "control_change"}, {"time": 2707, "annotation": {"number": 64, "value": 0}, "group": "control_change"}, {"time": 2730, "annotation": {"number": 64, "value": 127}, "group": "control_change"}, {"time": 2731, "annotation": {"number": 64, "value": 0}, "group": "control_change"}, {"time": 2821, "annotation": {"number": 64, "value": 127}, "group": "control_change"}, {"time": 2843, "annotation": {"number": 64, "value": 0}, "group": "control_change"}, {"time": 2845, "annotation": {"number": 64, "value": 127}, "group": "control_change"}, {"time": 2867, "annotation": {"number": 64, "value": 0}, "group": "control_change"}, {"time": 2869, "annotation": {"number": 64, "value": 127}, "group": "control_change"}, {"time": 2891, "annotation": {"number": 64, "value": 0}, "group": "control_change"}, {"time": 2893, "annotation": {"number": 64, "value": 127}, "group": "control_change"}, {"time": 2915, "annotation": {"number": 64, "value": 0}, "group": "control_change"}, {"time": 2917, "annotation": {"number": 64, "value": 127}, "group": "control_change"}, {"time": 2939, "annotation": {"number": 64, "value": 0}, "group": "control_change"}, {"time": 2941, "annotation": {"number": 64, "value": 127}, "group": "control_change"}, {"time": 2963, "annotation": {"number": 64, "value": 0}, "group": "control_change"}, {"time": 2965, "annotation": {"number": 64, "value": 127}, "group": "control_change"}, {"time": 2987, "annotation": {"number": 64, "value": 0}, "group": "control_change"}, {"time": 2989, "annotation": {"number": 64, "value": 127}, "group": "control_change"}, {"time": 3011, "annotation": {"number": 64, "value": 0}, "group": "control_change"}, {"time": 3013, "annotation": {"number": 64, "value": 127}, "group": "control_change"}, {"time": 3035, "annotation": {"number": 64, "value": 0}, "group": "control_change"}, {"time": 3037, "annotation": {"number": 64, "value": 127}, "group": "control_change"}, {"time": 3059, "annotation": {"number": 64, "value": 0}, "group": "control_change"}, {"time": 3061, "annotation": {"number": 64, "value": 127}, "group": "control_change"}, {"time": 3083, "annotation": {"number": 64, "value": 0}, "group": "control_change"}, {"time": 3106, "annotation": {"number": 64, "value": 127}, "group": "control_change"}, {"time": 3132, "annotation": {"number": 64, "value": 0}, "group": "control_change"}, {"time": 3173, "annotation": {"number": 64, "value": 127}, "group": "control_change"}, {"time": 3180, "annotation": {"number": 64, "value": 0}, "group": "control_change"}, {"time": 3181, "annotation": {"number": 64, "value": 127}, "group": "control_change"}, {"time": 3202, "annotation": {"number": 64, "value": 0}, "group": "control_change"}, {"time": 3206, "annotation": {"number": 64, "value": 127}, "group": "control_change"}, {"time": 3226, "annotation": {"number": 64, "value": 0}, "group": "control_change"}, {"time": 3229, "annotation": {"number": 64, "value": 127}, "group": "control_change"}, {"time": 3250, "annotation": {"number": 64, "value": 0}, "group": "control_change"}, {"time": 3253, "annotation": {"number": 64, "value": 127}, "group": "control_change"}, {"time": 3273, "annotation": {"number": 64, "value": 0}, "group": "control_change"}, {"time": 3285, "annotation": {"number": 64, "value": 127}, "group": "control_change"}, {"time": 3347, "annotation": {"number": 64, "value": 0}, "group": "control_change"}, {"time": 3355, "annotation": {"number": 64, "value": 127}, "group": "control_change"}, {"time": 3437, "annotation": {"number": 64, "value": 0}, "group": "control_change"}, {"time": 3437, "annotation": {"number": 64, "value": 127}, "group": "control_change"}, {"time": 3441, "annotation": {"number": 64, "value": 0}, "group": "control_change"}]}]}