{"metadata": {"schema_version": "0.2", "title": "None", "source_filename": "735.mid", "source_format": "midi"}, "resolution": 12, "tempos": [{"time": 0, "qpm": 72.02016564638099}], "time_signatures": [{"time": 0, "numerator": 1, "denominator": 4}], "tracks": [{"program": 0, "is_drum": false, "name": "MELODY", "notes": [{"time": 299, "pitch": 67, "duration": 3, "velocity": 77}, {"time": 305, "pitch": 67, "duration": 1, "velocity": 75}, {"time": 308, "pitch": 67, "duration": 7, "velocity": 89}, {"time": 317, "pitch": 67, "duration": 1, "velocity": 72}, {"time": 320, "pitch": 67, "duration": 1, "velocity": 70}, {"time": 323, "pitch": 67, "duration": 4, "velocity": 85}, {"time": 329, "pitch": 69, "duration": 2, "velocity": 86}, {"time": 332, "pitch": 67, "duration": 8, "velocity": 75}, {"time": 341, "pitch": 65, "duration": 2, "velocity": 83}, {"time": 347, "pitch": 64, "duration": 3, "velocity": 81}, {"time": 353, "pitch": 69, "duration": 1, "velocity": 85}, {"time": 356, "pitch": 71, "duration": 7, "velocity": 78}, {"time": 365, "pitch": 72, "duration": 3, "velocity": 95}, {"time": 371, "pitch": 71, "duration": 3, "velocity": 88}, {"time": 374, "pitch": 67, "duration": 5, "velocity": 89}, {"time": 389, "pitch": 67, "duration": 1, "velocity": 95}, {"time": 392, "pitch": 67, "duration": 1, "velocity": 63}, {"time": 395, "pitch": 69, "duration": 3, "velocity": 93}, {"time": 401, "pitch": 60, "duration": 1, "velocity": 79}, {"time": 404, "pitch": 60, "duration": 3, "velocity": 73}, {"time": 413, "pitch": 62, "duration": 2, "velocity": 90}, {"time": 416, "pitch": 64, "duration": 3, "velocity": 69}, {"time": 422, "pitch": 67, "duration": 7, "velocity": 78}, {"time": 440, "pitch": 67, "duration": 1, "velocity": 86}, {"time": 443, "pitch": 65, "duration": 4, "velocity": 75}, {"time": 449, "pitch": 67, "duration": 2, "velocity": 66}, {"time": 452, "pitch": 65, "duration": 5, "velocity": 75}, {"time": 458, "pitch": 62, "duration": 1, "velocity": 62}, {"time": 461, "pitch": 60, "duration": 3, "velocity": 73}, {"time": 464, "pitch": 62, "duration": 13, "velocity": 56}, {"time": 491, "pitch": 67, "duration": 3, "velocity": 83}, {"time": 497, "pitch": 67, "duration": 1, "velocity": 65}, {"time": 500, "pitch": 67, "duration": 5, "velocity": 74}, {"time": 509, "pitch": 67, "duration": 3, "velocity": 76}, {"time": 515, "pitch": 67, "duration": 2, "velocity": 95}, {"time": 521, "pitch": 69, "duration": 2, "velocity": 86}, {"time": 524, "pitch": 67, "duration": 6, "velocity": 72}, {"time": 533, "pitch": 65, "duration": 2, "velocity": 82}, {"time": 539, "pitch": 64, "duration": 6, "velocity": 78}, {"time": 545, "pitch": 69, "duration": 1, "velocity": 70}, {"time": 548, "pitch": 71, "duration": 6, "velocity": 83}, {"time": 557, "pitch": 72, "duration": 2, "velocity": 61}, {"time": 563, "pitch": 71, "duration": 1, "velocity": 92}, {"time": 566, "pitch": 67, "duration": 13, "velocity": 76}, {"time": 581, "pitch": 67, "duration": 1, "velocity": 92}, {"time": 584, "pitch": 67, "duration": 1, "velocity": 71}, {"time": 587, "pitch": 69, "duration": 3, "velocity": 77}, {"time": 593, "pitch": 60, "duration": 1, "velocity": 86}, {"time": 596, "pitch": 60, "duration": 6, "velocity": 79}, {"time": 605, "pitch": 62, "duration": 2, "velocity": 73}, {"time": 611, "pitch": 64, "duration": 5, "velocity": 76}, {"time": 614, "pitch": 67, "duration": 7, "velocity": 69}, {"time": 632, "pitch": 67, "duration": 2, "velocity": 83}, {"time": 635, "pitch": 65, "duration": 6, "velocity": 78}, {"time": 641, "pitch": 67, "duration": 1, "velocity": 66}, {"time": 644, "pitch": 64, "duration": 6, "velocity": 81}, {"time": 650, "pitch": 62, "duration": 3, "velocity": 52}, {"time": 653, "pitch": 60, "duration": 2, "velocity": 71}, {"time": 659, "pitch": 60, "duration": 7, "velocity": 69}, {"time": 671, "pitch": 72, "duration": 2, "velocity": 100}, {"time": 677, "pitch": 71, "duration": 2, "velocity": 83}, {"time": 683, "pitch": 69, "duration": 3, "velocity": 73}, {"time": 689, "pitch": 69, "duration": 2, "velocity": 71}, {"time": 692, "pitch": 71, "duration": 3, "velocity": 72}, {"time": 695, "pitch": 72, "duration": 4, "velocity": 68}, {"time": 701, "pitch": 74, "duration": 1, "velocity": 102}, {"time": 704, "pitch": 76, "duration": 3, "velocity": 90}, {"time": 710, "pitch": 71, "duration": 9, "velocity": 82}, {"time": 725, "pitch": 67, "duration": 1, "velocity": 82}, {"time": 728, "pitch": 67, "duration": 2, "velocity": 71}, {"time": 731, "pitch": 69, "duration": 4, "velocity": 99}, {"time": 737, "pitch": 76, "duration": 1, "velocity": 88}, {"time": 740, "pitch": 76, "duration": 2, "velocity": 97}, {"time": 742, "pitch": 74, "duration": 3, "velocity": 81}, {"time": 749, "pitch": 72, "duration": 2, "velocity": 82}, {"time": 755, "pitch": 72, "duration": 10, "velocity": 86}, {"time": 767, "pitch": 72, "duration": 3, "velocity": 102}, {"time": 773, "pitch": 71, "duration": 4, "velocity": 96}, {"time": 779, "pitch": 69, "duration": 4, "velocity": 69}, {"time": 785, "pitch": 71, "duration": 3, "velocity": 90}, {"time": 788, "pitch": 72, "duration": 4, "velocity": 90}, {"time": 797, "pitch": 74, "duration": 3, "velocity": 93}, {"time": 800, "pitch": 76, "duration": 4, "velocity": 81}, {"time": 809, "pitch": 71, "duration": 7, "velocity": 83}, {"time": 821, "pitch": 67, "duration": 1, "velocity": 93}, {"time": 824, "pitch": 67, "duration": 2, "velocity": 77}, {"time": 827, "pitch": 69, "duration": 4, "velocity": 90}, {"time": 833, "pitch": 76, "duration": 1, "velocity": 95}, {"time": 836, "pitch": 76, "duration": 3, "velocity": 82}, {"time": 839, "pitch": 74, "duration": 3, "velocity": 78}, {"time": 845, "pitch": 72, "duration": 3, "velocity": 92}, {"time": 851, "pitch": 72, "duration": 8, "velocity": 89}, {"time": 941, "pitch": 72, "duration": 1, "velocity": 93}, {"time": 944, "pitch": 72, "duration": 1, "velocity": 86}, {"time": 947, "pitch": 79, "duration": 3, "velocity": 92}, {"time": 953, "pitch": 79, "duration": 1, "velocity": 89}, {"time": 956, "pitch": 79, "duration": 4, "velocity": 97}, {"time": 965, "pitch": 79, "duration": 1, "velocity": 93}, {"time": 971, "pitch": 79, "duration": 3, "velocity": 95}, {"time": 977, "pitch": 71, "duration": 1, "velocity": 77}, {"time": 980, "pitch": 71, "duration": 5, "velocity": 85}, {"time": 989, "pitch": 71, "duration": 1, "velocity": 79}, {"time": 992, "pitch": 71, "duration": 2, "velocity": 75}, {"time": 995, "pitch": 79, "duration": 3, "velocity": 97}, {"time": 1001, "pitch": 79, "duration": 1, "velocity": 99}, {"time": 1004, "pitch": 79, "duration": 4, "velocity": 107}, {"time": 1013, "pitch": 81, "duration": 3, "velocity": 107}, {"time": 1019, "pitch": 79, "duration": 3, "velocity": 79}, {"time": 1025, "pitch": 72, "duration": 1, "velocity": 93}, {"time": 1028, "pitch": 72, "duration": 5, "velocity": 81}, {"time": 1037, "pitch": 72, "duration": 2, "velocity": 92}, {"time": 1040, "pitch": 74, "duration": 2, "velocity": 59}, {"time": 1043, "pitch": 76, "duration": 4, "velocity": 95}, {"time": 1049, "pitch": 74, "duration": 2, "velocity": 88}, {"time": 1055, "pitch": 77, "duration": 5, "velocity": 89}, {"time": 1061, "pitch": 76, "duration": 2, "velocity": 82}, {"time": 1067, "pitch": 76, "duration": 5, "velocity": 100}, {"time": 1073, "pitch": 74, "duration": 2, "velocity": 88}, {"time": 1076, "pitch": 77, "duration": 6, "velocity": 92}, {"time": 1085, "pitch": 76, "duration": 2, "velocity": 89}, {"time": 1091, "pitch": 76, "duration": 4, "velocity": 97}, {"time": 1097, "pitch": 74, "duration": 4, "velocity": 92}, {"time": 1103, "pitch": 77, "duration": 4, "velocity": 100}, {"time": 1109, "pitch": 76, "duration": 2, "velocity": 85}, {"time": 1115, "pitch": 79, "duration": 8, "velocity": 97}, {"time": 1133, "pitch": 72, "duration": 1, "velocity": 95}, {"time": 1136, "pitch": 72, "duration": 1, "velocity": 76}, {"time": 1139, "pitch": 79, "duration": 3, "velocity": 92}, {"time": 1145, "pitch": 79, "duration": 1, "velocity": 97}, {"time": 1148, "pitch": 79, "duration": 4, "velocity": 93}, {"time": 1157, "pitch": 79, "duration": 2, "velocity": 93}, {"time": 1163, "pitch": 79, "duration": 3, "velocity": 95}, {"time": 1169, "pitch": 71, "duration": 1, "velocity": 90}, {"time": 1172, "pitch": 71, "duration": 5, "velocity": 88}, {"time": 1181, "pitch": 71, "duration": 1, "velocity": 92}, {"time": 1184, "pitch": 71, "duration": 1, "velocity": 78}, {"time": 1187, "pitch": 79, "duration": 3, "velocity": 95}, {"time": 1193, "pitch": 79, "duration": 1, "velocity": 93}, {"time": 1196, "pitch": 79, "duration": 1, "velocity": 83}, {"time": 1199, "pitch": 79, "duration": 3, "velocity": 93}, {"time": 1205, "pitch": 81, "duration": 3, "velocity": 102}, {"time": 1211, "pitch": 79, "duration": 3, "velocity": 93}, {"time": 1217, "pitch": 72, "duration": 1, "velocity": 85}, {"time": 1220, "pitch": 72, "duration": 6, "velocity": 88}, {"time": 1229, "pitch": 72, "duration": 2, "velocity": 95}, {"time": 1232, "pitch": 74, "duration": 2, "velocity": 72}, {"time": 1235, "pitch": 76, "duration": 3, "velocity": 89}, {"time": 1241, "pitch": 74, "duration": 2, "velocity": 93}, {"time": 1244, "pitch": 77, "duration": 6, "velocity": 85}, {"time": 1253, "pitch": 76, "duration": 2, "velocity": 100}, {"time": 1259, "pitch": 76, "duration": 3, "velocity": 95}, {"time": 1265, "pitch": 74, "duration": 2, "velocity": 86}, {"time": 1268, "pitch": 72, "duration": 8, "velocity": 73}, {"time": 1277, "pitch": 71, "duration": 4, "velocity": 75}, {"time": 1283, "pitch": 72, "duration": 19, "velocity": 81}, {"time": 1379, "pitch": 67, "duration": 3, "velocity": 77}, {"time": 1385, "pitch": 67, "duration": 1, "velocity": 75}, {"time": 1388, "pitch": 67, "duration": 7, "velocity": 89}, {"time": 1397, "pitch": 67, "duration": 1, "velocity": 72}, {"time": 1400, "pitch": 67, "duration": 1, "velocity": 70}, {"time": 1403, "pitch": 67, "duration": 4, "velocity": 85}, {"time": 1409, "pitch": 69, "duration": 2, "velocity": 86}, {"time": 1412, "pitch": 67, "duration": 8, "velocity": 75}, {"time": 1421, "pitch": 65, "duration": 2, "velocity": 83}, {"time": 1427, "pitch": 64, "duration": 3, "velocity": 81}, {"time": 1433, "pitch": 69, "duration": 1, "velocity": 85}, {"time": 1436, "pitch": 71, "duration": 7, "velocity": 78}, {"time": 1445, "pitch": 72, "duration": 3, "velocity": 95}, {"time": 1451, "pitch": 71, "duration": 3, "velocity": 88}, {"time": 1454, "pitch": 67, "duration": 5, "velocity": 89}, {"time": 1469, "pitch": 67, "duration": 1, "velocity": 95}, {"time": 1472, "pitch": 67, "duration": 1, "velocity": 63}, {"time": 1475, "pitch": 69, "duration": 3, "velocity": 93}, {"time": 1481, "pitch": 60, "duration": 1, "velocity": 79}, {"time": 1484, "pitch": 60, "duration": 3, "velocity": 73}, {"time": 1493, "pitch": 62, "duration": 2, "velocity": 90}, {"time": 1496, "pitch": 64, "duration": 3, "velocity": 69}, {"time": 1502, "pitch": 67, "duration": 7, "velocity": 78}, {"time": 1520, "pitch": 67, "duration": 1, "velocity": 86}, {"time": 1523, "pitch": 65, "duration": 4, "velocity": 75}, {"time": 1529, "pitch": 67, "duration": 2, "velocity": 66}, {"time": 1532, "pitch": 65, "duration": 5, "velocity": 75}, {"time": 1538, "pitch": 62, "duration": 1, "velocity": 62}, {"time": 1541, "pitch": 60, "duration": 3, "velocity": 73}, {"time": 1544, "pitch": 62, "duration": 13, "velocity": 56}, {"time": 1571, "pitch": 67, "duration": 3, "velocity": 83}, {"time": 1577, "pitch": 67, "duration": 1, "velocity": 65}, {"time": 1580, "pitch": 67, "duration": 5, "velocity": 74}, {"time": 1589, "pitch": 67, "duration": 3, "velocity": 76}, {"time": 1595, "pitch": 67, "duration": 2, "velocity": 95}, {"time": 1601, "pitch": 69, "duration": 2, "velocity": 86}, {"time": 1604, "pitch": 67, "duration": 6, "velocity": 72}, {"time": 1613, "pitch": 65, "duration": 2, "velocity": 82}, {"time": 1619, "pitch": 64, "duration": 6, "velocity": 78}, {"time": 1625, "pitch": 69, "duration": 1, "velocity": 70}, {"time": 1628, "pitch": 71, "duration": 6, "velocity": 83}, {"time": 1637, "pitch": 72, "duration": 2, "velocity": 61}, {"time": 1643, "pitch": 71, "duration": 1, "velocity": 92}, {"time": 1646, "pitch": 67, "duration": 13, "velocity": 76}, {"time": 1661, "pitch": 67, "duration": 1, "velocity": 92}, {"time": 1664, "pitch": 67, "duration": 1, "velocity": 71}, {"time": 1667, "pitch": 69, "duration": 3, "velocity": 77}, {"time": 1673, "pitch": 60, "duration": 1, "velocity": 86}, {"time": 1676, "pitch": 60, "duration": 6, "velocity": 79}, {"time": 1685, "pitch": 62, "duration": 2, "velocity": 73}, {"time": 1691, "pitch": 64, "duration": 5, "velocity": 76}, {"time": 1694, "pitch": 67, "duration": 7, "velocity": 69}, {"time": 1712, "pitch": 67, "duration": 2, "velocity": 83}, {"time": 1715, "pitch": 65, "duration": 6, "velocity": 78}, {"time": 1721, "pitch": 67, "duration": 1, "velocity": 66}, {"time": 1724, "pitch": 64, "duration": 6, "velocity": 81}, {"time": 1730, "pitch": 62, "duration": 3, "velocity": 52}, {"time": 1733, "pitch": 60, "duration": 2, "velocity": 71}, {"time": 1739, "pitch": 60, "duration": 7, "velocity": 69}, {"time": 1751, "pitch": 72, "duration": 2, "velocity": 100}, {"time": 1757, "pitch": 71, "duration": 2, "velocity": 83}, {"time": 1763, "pitch": 69, "duration": 3, "velocity": 73}, {"time": 1769, "pitch": 71, "duration": 6, "velocity": 71}, {"time": 1775, "pitch": 72, "duration": 4, "velocity": 68}, {"time": 1781, "pitch": 74, "duration": 1, "velocity": 102}, {"time": 1784, "pitch": 76, "duration": 3, "velocity": 90}, {"time": 1790, "pitch": 71, "duration": 9, "velocity": 82}, {"time": 1805, "pitch": 67, "duration": 1, "velocity": 82}, {"time": 1808, "pitch": 67, "duration": 2, "velocity": 71}, {"time": 1811, "pitch": 69, "duration": 4, "velocity": 99}, {"time": 1817, "pitch": 76, "duration": 1, "velocity": 88}, {"time": 1820, "pitch": 76, "duration": 3, "velocity": 97}, {"time": 1823, "pitch": 74, "duration": 3, "velocity": 97}, {"time": 1829, "pitch": 72, "duration": 2, "velocity": 82}, {"time": 1832, "pitch": 72, "duration": 10, "velocity": 86}, {"time": 1847, "pitch": 72, "duration": 3, "velocity": 102}, {"time": 1853, "pitch": 71, "duration": 4, "velocity": 96}, {"time": 1859, "pitch": 69, "duration": 4, "velocity": 69}, {"time": 1865, "pitch": 71, "duration": 3, "velocity": 90}, {"time": 1868, "pitch": 72, "duration": 4, "velocity": 90}, {"time": 1877, "pitch": 74, "duration": 3, "velocity": 93}, {"time": 1880, "pitch": 76, "duration": 4, "velocity": 81}, {"time": 1889, "pitch": 71, "duration": 7, "velocity": 83}, {"time": 1901, "pitch": 67, "duration": 1, "velocity": 93}, {"time": 1904, "pitch": 67, "duration": 2, "velocity": 77}, {"time": 1907, "pitch": 69, "duration": 4, "velocity": 90}, {"time": 1913, "pitch": 76, "duration": 1, "velocity": 95}, {"time": 1916, "pitch": 76, "duration": 2, "velocity": 82}, {"time": 1918, "pitch": 74, "duration": 3, "velocity": 78}, {"time": 1925, "pitch": 72, "duration": 3, "velocity": 92}, {"time": 1931, "pitch": 72, "duration": 8, "velocity": 89}, {"time": 2021, "pitch": 72, "duration": 1, "velocity": 93}, {"time": 2024, "pitch": 72, "duration": 1, "velocity": 86}, {"time": 2027, "pitch": 79, "duration": 3, "velocity": 92}, {"time": 2033, "pitch": 79, "duration": 1, "velocity": 89}, {"time": 2036, "pitch": 79, "duration": 4, "velocity": 97}, {"time": 2045, "pitch": 79, "duration": 1, "velocity": 93}, {"time": 2051, "pitch": 79, "duration": 3, "velocity": 95}, {"time": 2057, "pitch": 71, "duration": 1, "velocity": 77}, {"time": 2060, "pitch": 71, "duration": 5, "velocity": 85}, {"time": 2069, "pitch": 71, "duration": 1, "velocity": 79}, {"time": 2072, "pitch": 71, "duration": 2, "velocity": 75}, {"time": 2075, "pitch": 79, "duration": 3, "velocity": 97}, {"time": 2081, "pitch": 79, "duration": 1, "velocity": 99}, {"time": 2084, "pitch": 79, "duration": 4, "velocity": 107}, {"time": 2093, "pitch": 81, "duration": 3, "velocity": 107}, {"time": 2099, "pitch": 79, "duration": 3, "velocity": 79}, {"time": 2105, "pitch": 72, "duration": 1, "velocity": 93}, {"time": 2108, "pitch": 72, "duration": 5, "velocity": 81}, {"time": 2117, "pitch": 72, "duration": 2, "velocity": 92}, {"time": 2120, "pitch": 74, "duration": 2, "velocity": 59}, {"time": 2123, "pitch": 76, "duration": 4, "velocity": 95}, {"time": 2129, "pitch": 74, "duration": 2, "velocity": 88}, {"time": 2135, "pitch": 77, "duration": 5, "velocity": 89}, {"time": 2141, "pitch": 76, "duration": 2, "velocity": 82}, {"time": 2147, "pitch": 76, "duration": 5, "velocity": 100}, {"time": 2153, "pitch": 74, "duration": 2, "velocity": 88}, {"time": 2156, "pitch": 77, "duration": 6, "velocity": 92}, {"time": 2165, "pitch": 76, "duration": 2, "velocity": 89}, {"time": 2171, "pitch": 76, "duration": 4, "velocity": 97}, {"time": 2177, "pitch": 74, "duration": 4, "velocity": 92}, {"time": 2183, "pitch": 77, "duration": 4, "velocity": 100}, {"time": 2189, "pitch": 76, "duration": 2, "velocity": 85}, {"time": 2195, "pitch": 79, "duration": 8, "velocity": 97}, {"time": 2213, "pitch": 72, "duration": 1, "velocity": 95}, {"time": 2216, "pitch": 72, "duration": 1, "velocity": 76}, {"time": 2219, "pitch": 79, "duration": 3, "velocity": 92}, {"time": 2225, "pitch": 79, "duration": 1, "velocity": 97}, {"time": 2228, "pitch": 79, "duration": 4, "velocity": 93}, {"time": 2237, "pitch": 79, "duration": 2, "velocity": 93}, {"time": 2243, "pitch": 79, "duration": 3, "velocity": 95}, {"time": 2249, "pitch": 71, "duration": 1, "velocity": 90}, {"time": 2252, "pitch": 71, "duration": 5, "velocity": 88}, {"time": 2261, "pitch": 71, "duration": 1, "velocity": 92}, {"time": 2264, "pitch": 71, "duration": 1, "velocity": 78}, {"time": 2267, "pitch": 79, "duration": 3, "velocity": 95}, {"time": 2273, "pitch": 79, "duration": 1, "velocity": 93}, {"time": 2276, "pitch": 79, "duration": 1, "velocity": 83}, {"time": 2279, "pitch": 79, "duration": 3, "velocity": 93}, {"time": 2285, "pitch": 81, "duration": 3, "velocity": 102}, {"time": 2291, "pitch": 79, "duration": 3, "velocity": 93}, {"time": 2297, "pitch": 72, "duration": 1, "velocity": 85}, {"time": 2300, "pitch": 72, "duration": 6, "velocity": 88}, {"time": 2309, "pitch": 72, "duration": 2, "velocity": 95}, {"time": 2312, "pitch": 74, "duration": 2, "velocity": 72}, {"time": 2315, "pitch": 76, "duration": 3, "velocity": 89}, {"time": 2321, "pitch": 74, "duration": 2, "velocity": 93}, {"time": 2324, "pitch": 77, "duration": 6, "velocity": 85}, {"time": 2333, "pitch": 76, "duration": 2, "velocity": 100}, {"time": 2339, "pitch": 76, "duration": 3, "velocity": 95}, {"time": 2345, "pitch": 74, "duration": 2, "velocity": 86}, {"time": 2348, "pitch": 72, "duration": 8, "velocity": 73}, {"time": 2357, "pitch": 71, "duration": 4, "velocity": 75}, {"time": 2363, "pitch": 72, "duration": 19, "velocity": 81}, {"time": 2831, "pitch": 72, "duration": 2, "velocity": 100}, {"time": 2837, "pitch": 71, "duration": 2, "velocity": 83}, {"time": 2843, "pitch": 69, "duration": 3, "velocity": 73}, {"time": 2849, "pitch": 71, "duration": 3, "velocity": 72}, {"time": 2852, "pitch": 72, "duration": 4, "velocity": 68}, {"time": 2861, "pitch": 74, "duration": 1, "velocity": 102}, {"time": 2867, "pitch": 76, "duration": 3, "velocity": 90}, {"time": 2873, "pitch": 71, "duration": 2, "velocity": 82}, {"time": 2876, "pitch": 71, "duration": 5, "velocity": 82}, {"time": 2885, "pitch": 67, "duration": 1, "velocity": 82}, {"time": 2888, "pitch": 67, "duration": 2, "velocity": 71}, {"time": 2891, "pitch": 69, "duration": 4, "velocity": 99}, {"time": 2897, "pitch": 76, "duration": 1, "velocity": 88}, {"time": 2903, "pitch": 76, "duration": 4, "velocity": 97}, {"time": 2909, "pitch": 72, "duration": 2, "velocity": 82}, {"time": 2915, "pitch": 72, "duration": 10, "velocity": 86}, {"time": 2927, "pitch": 72, "duration": 3, "velocity": 102}, {"time": 2933, "pitch": 71, "duration": 4, "velocity": 96}, {"time": 2939, "pitch": 69, "duration": 4, "velocity": 69}, {"time": 2945, "pitch": 71, "duration": 3, "velocity": 90}, {"time": 2948, "pitch": 72, "duration": 4, "velocity": 90}, {"time": 2957, "pitch": 74, "duration": 3, "velocity": 93}, {"time": 2963, "pitch": 76, "duration": 4, "velocity": 81}, {"time": 2969, "pitch": 71, "duration": 1, "velocity": 83}, {"time": 2972, "pitch": 71, "duration": 2, "velocity": 83}, {"time": 2987, "pitch": 69, "duration": 4, "velocity": 90}, {"time": 2993, "pitch": 76, "duration": 1, "velocity": 95}, {"time": 2996, "pitch": 76, "duration": 3, "velocity": 82}, {"time": 2999, "pitch": 74, "duration": 2, "velocity": 78}, {"time": 3005, "pitch": 72, "duration": 3, "velocity": 92}, {"time": 3011, "pitch": 72, "duration": 8, "velocity": 89}, {"time": 3101, "pitch": 72, "duration": 1, "velocity": 93}, {"time": 3104, "pitch": 72, "duration": 1, "velocity": 86}, {"time": 3107, "pitch": 79, "duration": 3, "velocity": 92}, {"time": 3113, "pitch": 79, "duration": 1, "velocity": 89}, {"time": 3116, "pitch": 79, "duration": 4, "velocity": 97}, {"time": 3125, "pitch": 79, "duration": 1, "velocity": 93}, {"time": 3131, "pitch": 79, "duration": 3, "velocity": 95}, {"time": 3137, "pitch": 71, "duration": 1, "velocity": 77}, {"time": 3140, "pitch": 71, "duration": 5, "velocity": 85}, {"time": 3149, "pitch": 71, "duration": 1, "velocity": 79}, {"time": 3152, "pitch": 71, "duration": 2, "velocity": 75}, {"time": 3155, "pitch": 79, "duration": 3, "velocity": 97}, {"time": 3161, "pitch": 79, "duration": 1, "velocity": 99}, {"time": 3164, "pitch": 79, "duration": 4, "velocity": 107}, {"time": 3173, "pitch": 81, "duration": 3, "velocity": 107}, {"time": 3179, "pitch": 79, "duration": 3, "velocity": 79}, {"time": 3185, "pitch": 72, "duration": 1, "velocity": 93}, {"time": 3188, "pitch": 72, "duration": 5, "velocity": 81}, {"time": 3197, "pitch": 72, "duration": 2, "velocity": 92}, {"time": 3200, "pitch": 74, "duration": 2, "velocity": 59}, {"time": 3203, "pitch": 76, "duration": 4, "velocity": 95}, {"time": 3209, "pitch": 74, "duration": 2, "velocity": 88}, {"time": 3215, "pitch": 77, "duration": 5, "velocity": 89}, {"time": 3221, "pitch": 76, "duration": 2, "velocity": 82}, {"time": 3227, "pitch": 76, "duration": 5, "velocity": 100}, {"time": 3233, "pitch": 74, "duration": 2, "velocity": 88}, {"time": 3236, "pitch": 77, "duration": 6, "velocity": 92}, {"time": 3245, "pitch": 76, "duration": 2, "velocity": 89}, {"time": 3251, "pitch": 76, "duration": 4, "velocity": 97}, {"time": 3257, "pitch": 74, "duration": 4, "velocity": 92}, {"time": 3263, "pitch": 77, "duration": 4, "velocity": 100}, {"time": 3269, "pitch": 76, "duration": 2, "velocity": 85}, {"time": 3275, "pitch": 79, "duration": 8, "velocity": 97}, {"time": 3293, "pitch": 72, "duration": 1, "velocity": 95}, {"time": 3296, "pitch": 72, "duration": 1, "velocity": 76}, {"time": 3299, "pitch": 79, "duration": 3, "velocity": 92}, {"time": 3305, "pitch": 79, "duration": 1, "velocity": 97}, {"time": 3308, "pitch": 79, "duration": 4, "velocity": 93}, {"time": 3317, "pitch": 79, "duration": 2, "velocity": 93}, {"time": 3323, "pitch": 79, "duration": 3, "velocity": 95}, {"time": 3329, "pitch": 71, "duration": 1, "velocity": 90}, {"time": 3332, "pitch": 71, "duration": 5, "velocity": 88}, {"time": 3341, "pitch": 71, "duration": 1, "velocity": 92}, {"time": 3344, "pitch": 71, "duration": 1, "velocity": 78}, {"time": 3347, "pitch": 79, "duration": 3, "velocity": 95}, {"time": 3353, "pitch": 79, "duration": 1, "velocity": 93}, {"time": 3356, "pitch": 79, "duration": 1, "velocity": 83}, {"time": 3359, "pitch": 79, "duration": 3, "velocity": 93}, {"time": 3365, "pitch": 81, "duration": 3, "velocity": 102}, {"time": 3371, "pitch": 79, "duration": 3, "velocity": 93}, {"time": 3377, "pitch": 72, "duration": 1, "velocity": 85}, {"time": 3380, "pitch": 72, "duration": 6, "velocity": 88}, {"time": 3389, "pitch": 72, "duration": 2, "velocity": 95}, {"time": 3392, "pitch": 74, "duration": 2, "velocity": 72}, {"time": 3395, "pitch": 76, "duration": 3, "velocity": 89}, {"time": 3401, "pitch": 74, "duration": 2, "velocity": 93}, {"time": 3404, "pitch": 77, "duration": 6, "velocity": 85}, {"time": 3413, "pitch": 76, "duration": 2, "velocity": 100}, {"time": 3419, "pitch": 76, "duration": 3, "velocity": 95}, {"time": 3425, "pitch": 74, "duration": 2, "velocity": 86}, {"time": 3428, "pitch": 72, "duration": 8, "velocity": 73}, {"time": 3437, "pitch": 71, "duration": 4, "velocity": 75}, {"time": 3443, "pitch": 72, "duration": 12, "velocity": 81}, {"time": 3461, "pitch": 72, "duration": 1, "velocity": 107}, {"time": 3464, "pitch": 76, "duration": 15, "velocity": 102}, {"time": 3485, "pitch": 72, "duration": 1, "velocity": 93}, {"time": 3488, "pitch": 72, "duration": 1, "velocity": 86}, {"time": 3491, "pitch": 79, "duration": 3, "velocity": 92}, {"time": 3497, "pitch": 79, "duration": 1, "velocity": 89}, {"time": 3500, "pitch": 79, "duration": 4, "velocity": 97}, {"time": 3509, "pitch": 79, "duration": 1, "velocity": 93}, {"time": 3515, "pitch": 79, "duration": 3, "velocity": 95}, {"time": 3521, "pitch": 71, "duration": 1, "velocity": 77}, {"time": 3524, "pitch": 71, "duration": 5, "velocity": 85}, {"time": 3533, "pitch": 71, "duration": 1, "velocity": 79}, {"time": 3536, "pitch": 71, "duration": 2, "velocity": 75}, {"time": 3539, "pitch": 79, "duration": 3, "velocity": 97}, {"time": 3545, "pitch": 79, "duration": 1, "velocity": 99}, {"time": 3548, "pitch": 79, "duration": 4, "velocity": 107}, {"time": 3557, "pitch": 81, "duration": 3, "velocity": 107}, {"time": 3563, "pitch": 79, "duration": 3, "velocity": 79}, {"time": 3569, "pitch": 72, "duration": 1, "velocity": 93}, {"time": 3572, "pitch": 72, "duration": 5, "velocity": 81}, {"time": 3581, "pitch": 72, "duration": 2, "velocity": 92}, {"time": 3584, "pitch": 74, "duration": 2, "velocity": 59}, {"time": 3587, "pitch": 76, "duration": 4, "velocity": 95}, {"time": 3593, "pitch": 74, "duration": 2, "velocity": 88}, {"time": 3599, "pitch": 77, "duration": 5, "velocity": 89}, {"time": 3605, "pitch": 76, "duration": 2, "velocity": 82}, {"time": 3611, "pitch": 76, "duration": 5, "velocity": 100}, {"time": 3617, "pitch": 74, "duration": 2, "velocity": 88}, {"time": 3620, "pitch": 77, "duration": 6, "velocity": 92}, {"time": 3629, "pitch": 76, "duration": 2, "velocity": 89}, {"time": 3635, "pitch": 76, "duration": 4, "velocity": 97}, {"time": 3641, "pitch": 74, "duration": 4, "velocity": 92}, {"time": 3647, "pitch": 77, "duration": 4, "velocity": 100}, {"time": 3653, "pitch": 76, "duration": 2, "velocity": 85}, {"time": 3659, "pitch": 79, "duration": 8, "velocity": 97}, {"time": 3677, "pitch": 72, "duration": 1, "velocity": 95}, {"time": 3680, "pitch": 72, "duration": 1, "velocity": 76}, {"time": 3683, "pitch": 79, "duration": 3, "velocity": 92}, {"time": 3689, "pitch": 79, "duration": 1, "velocity": 97}, {"time": 3692, "pitch": 79, "duration": 4, "velocity": 93}, {"time": 3701, "pitch": 79, "duration": 2, "velocity": 93}, {"time": 3707, "pitch": 79, "duration": 3, "velocity": 95}, {"time": 3713, "pitch": 71, "duration": 1, "velocity": 90}, {"time": 3716, "pitch": 71, "duration": 5, "velocity": 88}, {"time": 3725, "pitch": 71, "duration": 1, "velocity": 92}, {"time": 3728, "pitch": 71, "duration": 1, "velocity": 78}, {"time": 3731, "pitch": 79, "duration": 3, "velocity": 95}, {"time": 3737, "pitch": 79, "duration": 1, "velocity": 93}, {"time": 3740, "pitch": 79, "duration": 1, "velocity": 83}, {"time": 3743, "pitch": 79, "duration": 3, "velocity": 93}, {"time": 3749, "pitch": 81, "duration": 3, "velocity": 102}, {"time": 3755, "pitch": 79, "duration": 3, "velocity": 93}, {"time": 3761, "pitch": 72, "duration": 1, "velocity": 85}, {"time": 3764, "pitch": 72, "duration": 6, "velocity": 88}, {"time": 3773, "pitch": 72, "duration": 2, "velocity": 95}, {"time": 3776, "pitch": 74, "duration": 2, "velocity": 72}, {"time": 3779, "pitch": 76, "duration": 3, "velocity": 89}, {"time": 3785, "pitch": 74, "duration": 2, "velocity": 93}, {"time": 3788, "pitch": 77, "duration": 6, "velocity": 85}, {"time": 3797, "pitch": 76, "duration": 2, "velocity": 100}, {"time": 3803, "pitch": 76, "duration": 3, "velocity": 95}, {"time": 3809, "pitch": 74, "duration": 2, "velocity": 86}, {"time": 3812, "pitch": 72, "duration": 8, "velocity": 73}, {"time": 3821, "pitch": 71, "duration": 4, "velocity": 75}, {"time": 3827, "pitch": 72, "duration": 19, "velocity": 81}, {"time": 3869, "pitch": 72, "duration": 3, "velocity": 93}, {"time": 3872, "pitch": 74, "duration": 2, "velocity": 86}, {"time": 3875, "pitch": 76, "duration": 5, "velocity": 88}, {"time": 3881, "pitch": 74, "duration": 4, "velocity": 83}, {"time": 3887, "pitch": 77, "duration": 5, "velocity": 95}, {"time": 3893, "pitch": 76, "duration": 3, "velocity": 72}, {"time": 3899, "pitch": 76, "duration": 8, "velocity": 99}, {"time": 3905, "pitch": 74, "duration": 1, "velocity": 97}, {"time": 3911, "pitch": 72, "duration": 6, "velocity": 81}, {"time": 3917, "pitch": 71, "duration": 9, "velocity": 78}, {"time": 3923, "pitch": 72, "duration": 27, "velocity": 93}]}, {"program": 0, "is_drum": false, "name": "PIANO", "notes": [{"time": 11, "pitch": 36, "duration": 16, "velocity": 62}, {"time": 17, "pitch": 43, "duration": 11, "velocity": 35}, {"time": 23, "pitch": 60, "duration": 7, "velocity": 53}, {"time": 23, "pitch": 64, "duration": 12, "velocity": 59}, {"time": 26, "pitch": 48, "duration": 4, "velocity": 35}, {"time": 29, "pitch": 55, "duration": 6, "velocity": 43}, {"time": 35, "pitch": 41, "duration": 16, "velocity": 62}, {"time": 41, "pitch": 48, "duration": 6, "velocity": 49}, {"time": 47, "pitch": 56, "duration": 11, "velocity": 63}, {"time": 47, "pitch": 60, "duration": 12, "velocity": 60}, {"time": 50, "pitch": 48, "duration": 1, "velocity": 46}, {"time": 53, "pitch": 53, "duration": 6, "velocity": 50}, {"time": 59, "pitch": 36, "duration": 17, "velocity": 58}, {"time": 65, "pitch": 43, "duration": 10, "velocity": 27}, {"time": 71, "pitch": 60, "duration": 12, "velocity": 68}, {"time": 71, "pitch": 64, "duration": 12, "velocity": 63}, {"time": 74, "pitch": 48, "duration": 4, "velocity": 33}, {"time": 77, "pitch": 55, "duration": 6, "velocity": 59}, {"time": 83, "pitch": 41, "duration": 17, "velocity": 55}, {"time": 89, "pitch": 48, "duration": 6, "velocity": 34}, {"time": 95, "pitch": 56, "duration": 8, "velocity": 55}, {"time": 95, "pitch": 60, "duration": 8, "velocity": 56}, {"time": 98, "pitch": 48, "duration": 1, "velocity": 40}, {"time": 101, "pitch": 53, "duration": 2, "velocity": 43}, {"time": 107, "pitch": 36, "duration": 11, "velocity": 60}, {"time": 119, "pitch": 43, "duration": 10, "velocity": 40}, {"time": 119, "pitch": 55, "duration": 8, "velocity": 49}, {"time": 119, "pitch": 59, "duration": 10, "velocity": 53}, {"time": 119, "pitch": 62, "duration": 7, "velocity": 47}, {"time": 131, "pitch": 45, "duration": 10, "velocity": 39}, {"time": 131, "pitch": 57, "duration": 8, "velocity": 37}, {"time": 131, "pitch": 60, "duration": 10, "velocity": 42}, {"time": 131, "pitch": 64, "duration": 6, "velocity": 51}, {"time": 143, "pitch": 43, "duration": 9, "velocity": 34}, {"time": 143, "pitch": 55, "duration": 12, "velocity": 38}, {"time": 143, "pitch": 59, "duration": 12, "velocity": 53}, {"time": 143, "pitch": 62, "duration": 12, "velocity": 49}, {"time": 155, "pitch": 41, "duration": 18, "velocity": 61}, {"time": 161, "pitch": 48, "duration": 7, "velocity": 37}, {"time": 167, "pitch": 57, "duration": 6, "velocity": 48}, {"time": 167, "pitch": 60, "duration": 8, "velocity": 52}, {"time": 170, "pitch": 48, "duration": 5, "velocity": 44}, {"time": 173, "pitch": 53, "duration": 4, "velocity": 37}, {"time": 179, "pitch": 41, "duration": 12, "velocity": 45}, {"time": 179, "pitch": 53, "duration": 10, "velocity": 43}, {"time": 179, "pitch": 56, "duration": 10, "velocity": 53}, {"time": 179, "pitch": 60, "duration": 10, "velocity": 56}, {"time": 191, "pitch": 56, "duration": 12, "velocity": 66}, {"time": 191, "pitch": 60, "duration": 12, "velocity": 59}, {"time": 194, "pitch": 41, "duration": 2, "velocity": 37}, {"time": 197, "pitch": 53, "duration": 6, "velocity": 50}, {"time": 203, "pitch": 36, "duration": 21, "velocity": 66}, {"time": 209, "pitch": 43, "duration": 15, "velocity": 36}, {"time": 215, "pitch": 64, "duration": 21, "velocity": 66}, {"time": 218, "pitch": 48, "duration": 6, "velocity": 42}, {"time": 221, "pitch": 55, "duration": 15, "velocity": 63}, {"time": 227, "pitch": 36, "duration": 17, "velocity": 61}, {"time": 233, "pitch": 43, "duration": 10, "velocity": 27}, {"time": 239, "pitch": 64, "duration": 7, "velocity": 64}, {"time": 242, "pitch": 48, "duration": 5, "velocity": 39}, {"time": 245, "pitch": 55, "duration": 4, "velocity": 55}, {"time": 251, "pitch": 43, "duration": 10, "velocity": 40}, {"time": 251, "pitch": 55, "duration": 8, "velocity": 53}, {"time": 251, "pitch": 59, "duration": 10, "velocity": 52}, {"time": 251, "pitch": 62, "duration": 9, "velocity": 61}, {"time": 263, "pitch": 45, "duration": 8, "velocity": 51}, {"time": 263, "pitch": 57, "duration": 7, "velocity": 53}, {"time": 263, "pitch": 60, "duration": 7, "velocity": 55}, {"time": 263, "pitch": 64, "duration": 5, "velocity": 51}, {"time": 275, "pitch": 47, "duration": 15, "velocity": 37}, {"time": 275, "pitch": 55, "duration": 22, "velocity": 49}, {"time": 275, "pitch": 59, "duration": 21, "velocity": 57}, {"time": 275, "pitch": 62, "duration": 21, "velocity": 55}, {"time": 299, "pitch": 36, "duration": 16, "velocity": 54}, {"time": 305, "pitch": 43, "duration": 9, "velocity": 27}, {"time": 311, "pitch": 48, "duration": 3, "velocity": 37}, {"time": 311, "pitch": 60, "duration": 13, "velocity": 50}, {"time": 311, "pitch": 64, "duration": 13, "velocity": 52}, {"time": 317, "pitch": 55, "duration": 6, "velocity": 39}, {"time": 323, "pitch": 43, "duration": 18, "velocity": 60}, {"time": 329, "pitch": 50, "duration": 6, "velocity": 34}, {"time": 335, "pitch": 59, "duration": 7, "velocity": 45}, {"time": 335, "pitch": 62, "duration": 12, "velocity": 47}, {"time": 338, "pitch": 50, "duration": 5, "velocity": 44}, {"time": 341, "pitch": 55, "duration": 5, "velocity": 56}, {"time": 344, "pitch": 59, "duration": 3, "velocity": 52}, {"time": 347, "pitch": 45, "duration": 17, "velocity": 48}, {"time": 353, "pitch": 52, "duration": 7, "velocity": 48}, {"time": 359, "pitch": 60, "duration": 7, "velocity": 53}, {"time": 359, "pitch": 64, "duration": 12, "velocity": 56}, {"time": 362, "pitch": 52, "duration": 1, "velocity": 50}, {"time": 365, "pitch": 57, "duration": 6, "velocity": 54}, {"time": 368, "pitch": 60, "duration": 3, "velocity": 55}, {"time": 371, "pitch": 40, "duration": 16, "velocity": 62}, {"time": 377, "pitch": 47, "duration": 6, "velocity": 39}, {"time": 383, "pitch": 59, "duration": 6, "velocity": 48}, {"time": 383, "pitch": 64, "duration": 12, "velocity": 55}, {"time": 386, "pitch": 47, "duration": 2, "velocity": 40}, {"time": 389, "pitch": 55, "duration": 5, "velocity": 54}, {"time": 392, "pitch": 59, "duration": 3, "velocity": 54}, {"time": 395, "pitch": 41, "duration": 17, "velocity": 48}, {"time": 401, "pitch": 48, "duration": 7, "velocity": 57}, {"time": 407, "pitch": 57, "duration": 6, "velocity": 53}, {"time": 407, "pitch": 60, "duration": 11, "velocity": 54}, {"time": 410, "pitch": 48, "duration": 1, "velocity": 44}, {"time": 413, "pitch": 53, "duration": 5, "velocity": 57}, {"time": 416, "pitch": 57, "duration": 2, "velocity": 58}, {"time": 419, "pitch": 36, "duration": 19, "velocity": 56}, {"time": 425, "pitch": 43, "duration": 7, "velocity": 49}, {"time": 431, "pitch": 60, "duration": 6, "velocity": 58}, {"time": 431, "pitch": 64, "duration": 12, "velocity": 58}, {"time": 434, "pitch": 43, "duration": 7, "velocity": 42}, {"time": 437, "pitch": 55, "duration": 5, "velocity": 56}, {"time": 440, "pitch": 60, "duration": 2, "velocity": 54}, {"time": 443, "pitch": 38, "duration": 16, "velocity": 47}, {"time": 449, "pitch": 45, "duration": 7, "velocity": 42}, {"time": 455, "pitch": 62, "duration": 7, "velocity": 59}, {"time": 455, "pitch": 65, "duration": 11, "velocity": 48}, {"time": 458, "pitch": 45, "duration": 2, "velocity": 44}, {"time": 461, "pitch": 57, "duration": 6, "velocity": 55}, {"time": 464, "pitch": 62, "duration": 2, "velocity": 58}, {"time": 467, "pitch": 43, "duration": 17, "velocity": 56}, {"time": 470, "pitch": 50, "duration": 9, "velocity": 59}, {"time": 473, "pitch": 55, "duration": 7, "velocity": 39}, {"time": 476, "pitch": 59, "duration": 3, "velocity": 53}, {"time": 479, "pitch": 62, "duration": 11, "velocity": 66}, {"time": 482, "pitch": 50, "duration": 2, "velocity": 43}, {"time": 485, "pitch": 59, "duration": 5, "velocity": 43}, {"time": 488, "pitch": 55, "duration": 2, "velocity": 45}, {"time": 491, "pitch": 36, "duration": 16, "velocity": 58}, {"time": 494, "pitch": 43, "duration": 13, "velocity": 48}, {"time": 497, "pitch": 48, "duration": 6, "velocity": 56}, {"time": 500, "pitch": 55, "duration": 3, "velocity": 39}, {"time": 503, "pitch": 60, "duration": 6, "velocity": 60}, {"time": 503, "pitch": 64, "duration": 12, "velocity": 61}, {"time": 506, "pitch": 48, "duration": 2, "velocity": 54}, {"time": 509, "pitch": 55, "duration": 7, "velocity": 58}, {"time": 512, "pitch": 60, "duration": 3, "velocity": 53}, {"time": 515, "pitch": 43, "duration": 17, "velocity": 59}, {"time": 518, "pitch": 50, "duration": 9, "velocity": 49}, {"time": 521, "pitch": 55, "duration": 6, "velocity": 51}, {"time": 524, "pitch": 59, "duration": 9, "velocity": 55}, {"time": 527, "pitch": 62, "duration": 12, "velocity": 69}, {"time": 530, "pitch": 50, "duration": 6, "velocity": 40}, {"time": 533, "pitch": 55, "duration": 5, "velocity": 56}, {"time": 536, "pitch": 59, "duration": 2, "velocity": 54}, {"time": 539, "pitch": 45, "duration": 14, "velocity": 50}, {"time": 542, "pitch": 52, "duration": 10, "velocity": 36}, {"time": 545, "pitch": 57, "duration": 6, "velocity": 42}, {"time": 551, "pitch": 60, "duration": 12, "velocity": 64}, {"time": 551, "pitch": 64, "duration": 12, "velocity": 60}, {"time": 557, "pitch": 57, "duration": 6, "velocity": 43}, {"time": 563, "pitch": 40, "duration": 13, "velocity": 57}, {"time": 569, "pitch": 47, "duration": 7, "velocity": 45}, {"time": 575, "pitch": 55, "duration": 7, "velocity": 57}, {"time": 575, "pitch": 59, "duration": 12, "velocity": 66}, {"time": 581, "pitch": 52, "duration": 5, "velocity": 48}, {"time": 584, "pitch": 55, "duration": 3, "velocity": 63}, {"time": 587, "pitch": 41, "duration": 17, "velocity": 57}, {"time": 593, "pitch": 48, "duration": 7, "velocity": 40}, {"time": 599, "pitch": 57, "duration": 12, "velocity": 66}, {"time": 599, "pitch": 60, "duration": 12, "velocity": 59}, {"time": 602, "pitch": 48, "duration": 2, "velocity": 45}, {"time": 605, "pitch": 53, "duration": 6, "velocity": 47}, {"time": 611, "pitch": 48, "duration": 12, "velocity": 55}, {"time": 617, "pitch": 55, "duration": 7, "velocity": 56}, {"time": 623, "pitch": 60, "duration": 9, "velocity": 64}, {"time": 623, "pitch": 64, "duration": 9, "velocity": 58}, {"time": 626, "pitch": 48, "duration": 1, "velocity": 39}, {"time": 629, "pitch": 55, "duration": 3, "velocity": 61}, {"time": 635, "pitch": 38, "duration": 8, "velocity": 45}, {"time": 635, "pitch": 57, "duration": 9, "velocity": 43}, {"time": 635, "pitch": 62, "duration": 7, "velocity": 38}, {"time": 635, "pitch": 65, "duration": 6, "velocity": 52}, {"time": 647, "pitch": 43, "duration": 5, "velocity": 37}, {"time": 647, "pitch": 55, "duration": 9, "velocity": 51}, {"time": 647, "pitch": 59, "duration": 9, "velocity": 59}, {"time": 647, "pitch": 62, "duration": 7, "velocity": 57}, {"time": 659, "pitch": 36, "duration": 16, "velocity": 56}, {"time": 659, "pitch": 55, "duration": 11, "velocity": 53}, {"time": 659, "pitch": 60, "duration": 10, "velocity": 52}, {"time": 659, "pitch": 64, "duration": 10, "velocity": 54}, {"time": 665, "pitch": 43, "duration": 10, "velocity": 32}, {"time": 671, "pitch": 55, "duration": 2, "velocity": 37}, {"time": 671, "pitch": 60, "duration": 12, "velocity": 82}, {"time": 671, "pitch": 64, "duration": 12, "velocity": 79}, {"time": 674, "pitch": 48, "duration": 3, "velocity": 44}, {"time": 677, "pitch": 55, "duration": 3, "velocity": 81}, {"time": 680, "pitch": 59, "duration": 3, "velocity": 69}, {"time": 683, "pitch": 45, "duration": 17, "velocity": 66}, {"time": 686, "pitch": 52, "duration": 7, "velocity": 45}, {"time": 689, "pitch": 57, "duration": 6, "velocity": 61}, {"time": 692, "pitch": 60, "duration": 5, "velocity": 55}, {"time": 695, "pitch": 64, "duration": 11, "velocity": 86}, {"time": 698, "pitch": 52, "duration": 2, "velocity": 44}, {"time": 701, "pitch": 57, "duration": 6, "velocity": 72}, {"time": 704, "pitch": 60, "duration": 3, "velocity": 50}, {"time": 707, "pitch": 40, "duration": 17, "velocity": 53}, {"time": 710, "pitch": 47, "duration": 18, "velocity": 40}, {"time": 713, "pitch": 52, "duration": 6, "velocity": 41}, {"time": 716, "pitch": 59, "duration": 6, "velocity": 63}, {"time": 719, "pitch": 67, "duration": 10, "velocity": 90}, {"time": 722, "pitch": 52, "duration": 2, "velocity": 55}, {"time": 725, "pitch": 64, "duration": 4, "velocity": 67}, {"time": 728, "pitch": 59, "duration": 2, "velocity": 65}, {"time": 731, "pitch": 41, "duration": 9, "velocity": 61}, {"time": 734, "pitch": 48, "duration": 8, "velocity": 39}, {"time": 737, "pitch": 53, "duration": 5, "velocity": 66}, {"time": 740, "pitch": 60, "duration": 2, "velocity": 75}, {"time": 743, "pitch": 43, "duration": 6, "velocity": 57}, {"time": 746, "pitch": 55, "duration": 9, "velocity": 63}, {"time": 749, "pitch": 59, "duration": 4, "velocity": 55}, {"time": 752, "pitch": 62, "duration": 2, "velocity": 69}, {"time": 755, "pitch": 36, "duration": 16, "velocity": 58}, {"time": 758, "pitch": 43, "duration": 12, "velocity": 42}, {"time": 761, "pitch": 48, "duration": 6, "velocity": 58}, {"time": 764, "pitch": 55, "duration": 3, "velocity": 69}, {"time": 767, "pitch": 64, "duration": 13, "velocity": 95}, {"time": 770, "pitch": 48, "duration": 3, "velocity": 61}, {"time": 770, "pitch": 60, "duration": 3, "velocity": 75}, {"time": 773, "pitch": 59, "duration": 4, "velocity": 72}, {"time": 776, "pitch": 60, "duration": 3, "velocity": 54}, {"time": 779, "pitch": 45, "duration": 17, "velocity": 66}, {"time": 782, "pitch": 52, "duration": 8, "velocity": 56}, {"time": 785, "pitch": 57, "duration": 5, "velocity": 56}, {"time": 788, "pitch": 60, "duration": 4, "velocity": 47}, {"time": 791, "pitch": 64, "duration": 10, "velocity": 95}, {"time": 794, "pitch": 52, "duration": 1, "velocity": 55}, {"time": 797, "pitch": 60, "duration": 5, "velocity": 85}, {"time": 800, "pitch": 57, "duration": 3, "velocity": 71}, {"time": 803, "pitch": 40, "duration": 18, "velocity": 52}, {"time": 806, "pitch": 47, "duration": 20, "velocity": 40}, {"time": 809, "pitch": 52, "duration": 7, "velocity": 56}, {"time": 812, "pitch": 59, "duration": 6, "velocity": 67}, {"time": 815, "pitch": 67, "duration": 9, "velocity": 93}, {"time": 818, "pitch": 52, "duration": 2, "velocity": 68}, {"time": 821, "pitch": 64, "duration": 4, "velocity": 65}, {"time": 824, "pitch": 59, "duration": 2, "velocity": 71}, {"time": 827, "pitch": 41, "duration": 10, "velocity": 69}, {"time": 830, "pitch": 53, "duration": 7, "velocity": 61}, {"time": 833, "pitch": 60, "duration": 5, "velocity": 82}, {"time": 836, "pitch": 57, "duration": 2, "velocity": 69}, {"time": 839, "pitch": 43, "duration": 6, "velocity": 66}, {"time": 842, "pitch": 55, "duration": 9, "velocity": 72}, {"time": 845, "pitch": 59, "duration": 4, "velocity": 72}, {"time": 848, "pitch": 62, "duration": 3, "velocity": 77}, {"time": 851, "pitch": 36, "duration": 16, "velocity": 63}, {"time": 854, "pitch": 43, "duration": 13, "velocity": 56}, {"time": 857, "pitch": 48, "duration": 6, "velocity": 76}, {"time": 860, "pitch": 55, "duration": 7, "velocity": 78}, {"time": 863, "pitch": 64, "duration": 9, "velocity": 93}, {"time": 866, "pitch": 48, "duration": 3, "velocity": 68}, {"time": 869, "pitch": 60, "duration": 3, "velocity": 65}, {"time": 872, "pitch": 55, "duration": 3, "velocity": 63}, {"time": 875, "pitch": 36, "duration": 18, "velocity": 66}, {"time": 878, "pitch": 43, "duration": 15, "velocity": 54}, {"time": 881, "pitch": 48, "duration": 7, "velocity": 47}, {"time": 884, "pitch": 55, "duration": 5, "velocity": 45}, {"time": 887, "pitch": 64, "duration": 9, "velocity": 66}, {"time": 890, "pitch": 48, "duration": 3, "velocity": 50}, {"time": 893, "pitch": 60, "duration": 3, "velocity": 58}, {"time": 896, "pitch": 55, "duration": 2, "velocity": 38}, {"time": 899, "pitch": 43, "duration": 10, "velocity": 50}, {"time": 899, "pitch": 55, "duration": 8, "velocity": 53}, {"time": 899, "pitch": 59, "duration": 10, "velocity": 65}, {"time": 899, "pitch": 62, "duration": 7, "velocity": 51}, {"time": 911, "pitch": 45, "duration": 9, "velocity": 44}, {"time": 911, "pitch": 57, "duration": 9, "velocity": 53}, {"time": 911, "pitch": 60, "duration": 9, "velocity": 52}, {"time": 911, "pitch": 64, "duration": 6, "velocity": 55}, {"time": 923, "pitch": 43, "duration": 9, "velocity": 35}, {"time": 923, "pitch": 55, "duration": 11, "velocity": 38}, {"time": 923, "pitch": 59, "duration": 11, "velocity": 44}, {"time": 923, "pitch": 62, "duration": 11, "velocity": 45}, {"time": 947, "pitch": 41, "duration": 21, "velocity": 71}, {"time": 950, "pitch": 48, "duration": 9, "velocity": 58}, {"time": 953, "pitch": 53, "duration": 4, "velocity": 66}, {"time": 956, "pitch": 57, "duration": 5, "velocity": 81}, {"time": 959, "pitch": 65, "duration": 11, "velocity": 88}, {"time": 962, "pitch": 48, "duration": 7, "velocity": 56}, {"time": 965, "pitch": 60, "duration": 5, "velocity": 72}, {"time": 968, "pitch": 57, "duration": 3, "velocity": 82}, {"time": 971, "pitch": 43, "duration": 17, "velocity": 72}, {"time": 974, "pitch": 50, "duration": 9, "velocity": 51}, {"time": 977, "pitch": 55, "duration": 3, "velocity": 69}, {"time": 980, "pitch": 59, "duration": 4, "velocity": 83}, {"time": 983, "pitch": 67, "duration": 12, "velocity": 92}, {"time": 986, "pitch": 62, "duration": 3, "velocity": 78}, {"time": 989, "pitch": 59, "duration": 6, "velocity": 36}, {"time": 992, "pitch": 62, "duration": 3, "velocity": 59}, {"time": 995, "pitch": 40, "duration": 16, "velocity": 72}, {"time": 998, "pitch": 47, "duration": 10, "velocity": 50}, {"time": 1001, "pitch": 52, "duration": 4, "velocity": 66}, {"time": 1004, "pitch": 55, "duration": 5, "velocity": 69}, {"time": 1007, "pitch": 64, "duration": 13, "velocity": 92}, {"time": 1010, "pitch": 59, "duration": 3, "velocity": 68}, {"time": 1013, "pitch": 55, "duration": 5, "velocity": 79}, {"time": 1016, "pitch": 59, "duration": 3, "velocity": 69}, {"time": 1019, "pitch": 45, "duration": 17, "velocity": 61}, {"time": 1022, "pitch": 52, "duration": 9, "velocity": 57}, {"time": 1025, "pitch": 57, "duration": 7, "velocity": 72}, {"time": 1028, "pitch": 60, "duration": 3, "velocity": 62}, {"time": 1031, "pitch": 64, "duration": 10, "velocity": 96}, {"time": 1034, "pitch": 52, "duration": 1, "velocity": 50}, {"time": 1037, "pitch": 60, "duration": 4, "velocity": 79}, {"time": 1040, "pitch": 57, "duration": 10, "velocity": 81}, {"time": 1043, "pitch": 38, "duration": 18, "velocity": 66}, {"time": 1046, "pitch": 45, "duration": 15, "velocity": 66}, {"time": 1049, "pitch": 50, "duration": 7, "velocity": 73}, {"time": 1052, "pitch": 57, "duration": 7, "velocity": 70}, {"time": 1055, "pitch": 65, "duration": 11, "velocity": 96}, {"time": 1058, "pitch": 50, "duration": 7, "velocity": 69}, {"time": 1061, "pitch": 62, "duration": 5, "velocity": 65}, {"time": 1064, "pitch": 57, "duration": 3, "velocity": 72}, {"time": 1067, "pitch": 43, "duration": 17, "velocity": 68}, {"time": 1070, "pitch": 50, "duration": 9, "velocity": 58}, {"time": 1073, "pitch": 55, "duration": 7, "velocity": 47}, {"time": 1076, "pitch": 59, "duration": 3, "velocity": 63}, {"time": 1079, "pitch": 62, "duration": 10, "velocity": 86}, {"time": 1082, "pitch": 50, "duration": 1, "velocity": 56}, {"time": 1085, "pitch": 59, "duration": 4, "velocity": 72}, {"time": 1088, "pitch": 55, "duration": 3, "velocity": 67}, {"time": 1091, "pitch": 36, "duration": 16, "velocity": 67}, {"time": 1094, "pitch": 43, "duration": 13, "velocity": 40}, {"time": 1097, "pitch": 48, "duration": 7, "velocity": 66}, {"time": 1100, "pitch": 55, "duration": 5, "velocity": 63}, {"time": 1103, "pitch": 64, "duration": 11, "velocity": 96}, {"time": 1106, "pitch": 48, "duration": 2, "velocity": 82}, {"time": 1109, "pitch": 60, "duration": 4, "velocity": 74}, {"time": 1112, "pitch": 55, "duration": 3, "velocity": 93}, {"time": 1115, "pitch": 45, "duration": 17, "velocity": 89}, {"time": 1118, "pitch": 49, "duration": 14, "velocity": 92}, {"time": 1121, "pitch": 52, "duration": 6, "velocity": 70}, {"time": 1124, "pitch": 57, "duration": 5, "velocity": 83}, {"time": 1127, "pitch": 64, "duration": 11, "velocity": 97}, {"time": 1130, "pitch": 52, "duration": 3, "velocity": 78}, {"time": 1133, "pitch": 61, "duration": 5, "velocity": 83}, {"time": 1136, "pitch": 57, "duration": 3, "velocity": 83}, {"time": 1139, "pitch": 41, "duration": 21, "velocity": 69}, {"time": 1142, "pitch": 48, "duration": 10, "velocity": 67}, {"time": 1145, "pitch": 53, "duration": 3, "velocity": 82}, {"time": 1148, "pitch": 57, "duration": 6, "velocity": 79}, {"time": 1151, "pitch": 65, "duration": 11, "velocity": 95}, {"time": 1154, "pitch": 48, "duration": 8, "velocity": 53}, {"time": 1157, "pitch": 60, "duration": 5, "velocity": 83}, {"time": 1160, "pitch": 57, "duration": 3, "velocity": 82}, {"time": 1163, "pitch": 43, "duration": 17, "velocity": 72}, {"time": 1166, "pitch": 50, "duration": 10, "velocity": 52}, {"time": 1169, "pitch": 55, "duration": 3, "velocity": 74}, {"time": 1172, "pitch": 59, "duration": 4, "velocity": 79}, {"time": 1175, "pitch": 67, "duration": 11, "velocity": 92}, {"time": 1178, "pitch": 50, "duration": 2, "velocity": 63}, {"time": 1181, "pitch": 62, "duration": 5, "velocity": 76}, {"time": 1184, "pitch": 59, "duration": 3, "velocity": 68}, {"time": 1187, "pitch": 40, "duration": 17, "velocity": 60}, {"time": 1190, "pitch": 47, "duration": 15, "velocity": 42}, {"time": 1193, "pitch": 52, "duration": 6, "velocity": 64}, {"time": 1196, "pitch": 55, "duration": 4, "velocity": 77}, {"time": 1199, "pitch": 64, "duration": 12, "velocity": 85}, {"time": 1202, "pitch": 52, "duration": 5, "velocity": 82}, {"time": 1205, "pitch": 59, "duration": 6, "velocity": 73}, {"time": 1208, "pitch": 55, "duration": 3, "velocity": 74}, {"time": 1211, "pitch": 45, "duration": 16, "velocity": 59}, {"time": 1214, "pitch": 52, "duration": 9, "velocity": 39}, {"time": 1217, "pitch": 57, "duration": 4, "velocity": 56}, {"time": 1220, "pitch": 60, "duration": 4, "velocity": 60}, {"time": 1223, "pitch": 64, "duration": 10, "velocity": 88}, {"time": 1226, "pitch": 52, "duration": 1, "velocity": 48}, {"time": 1229, "pitch": 60, "duration": 5, "velocity": 73}, {"time": 1232, "pitch": 57, "duration": 3, "velocity": 62}, {"time": 1235, "pitch": 38, "duration": 17, "velocity": 58}, {"time": 1238, "pitch": 45, "duration": 14, "velocity": 56}, {"time": 1241, "pitch": 50, "duration": 6, "velocity": 58}, {"time": 1244, "pitch": 57, "duration": 5, "velocity": 73}, {"time": 1247, "pitch": 65, "duration": 11, "velocity": 95}, {"time": 1250, "pitch": 50, "duration": 3, "velocity": 77}, {"time": 1253, "pitch": 62, "duration": 5, "velocity": 58}, {"time": 1256, "pitch": 57, "duration": 3, "velocity": 77}, {"time": 1259, "pitch": 43, "duration": 17, "velocity": 56}, {"time": 1262, "pitch": 50, "duration": 9, "velocity": 48}, {"time": 1265, "pitch": 55, "duration": 3, "velocity": 61}, {"time": 1268, "pitch": 59, "duration": 3, "velocity": 59}, {"time": 1271, "pitch": 62, "duration": 11, "velocity": 85}, {"time": 1274, "pitch": 50, "duration": 1, "velocity": 33}, {"time": 1277, "pitch": 59, "duration": 5, "velocity": 67}, {"time": 1280, "pitch": 55, "duration": 3, "velocity": 63}, {"time": 1283, "pitch": 36, "duration": 14, "velocity": 60}, {"time": 1286, "pitch": 43, "duration": 11, "velocity": 39}, {"time": 1289, "pitch": 48, "duration": 7, "velocity": 52}, {"time": 1292, "pitch": 55, "duration": 4, "velocity": 57}, {"time": 1295, "pitch": 64, "duration": 7, "velocity": 78}, {"time": 1301, "pitch": 55, "duration": 4, "velocity": 60}, {"time": 1307, "pitch": 41, "duration": 16, "velocity": 52}, {"time": 1307, "pitch": 53, "duration": 15, "velocity": 40}, {"time": 1307, "pitch": 56, "duration": 23, "velocity": 47}, {"time": 1307, "pitch": 60, "duration": 23, "velocity": 42}, {"time": 1325, "pitch": 55, "duration": 6, "velocity": 47}, {"time": 1331, "pitch": 36, "duration": 16, "velocity": 61}, {"time": 1337, "pitch": 43, "duration": 10, "velocity": 49}, {"time": 1343, "pitch": 60, "duration": 6, "velocity": 64}, {"time": 1343, "pitch": 64, "duration": 6, "velocity": 59}, {"time": 1346, "pitch": 48, "duration": 4, "velocity": 56}, {"time": 1349, "pitch": 55, "duration": 3, "velocity": 51}, {"time": 1355, "pitch": 41, "duration": 22, "velocity": 34}, {"time": 1355, "pitch": 48, "duration": 23, "velocity": 46}, {"time": 1355, "pitch": 53, "duration": 23, "velocity": 45}, {"time": 1355, "pitch": 56, "duration": 22, "velocity": 51}, {"time": 1355, "pitch": 60, "duration": 23, "velocity": 53}, {"time": 1379, "pitch": 36, "duration": 16, "velocity": 54}, {"time": 1385, "pitch": 43, "duration": 9, "velocity": 27}, {"time": 1391, "pitch": 48, "duration": 3, "velocity": 37}, {"time": 1391, "pitch": 60, "duration": 13, "velocity": 50}, {"time": 1391, "pitch": 64, "duration": 13, "velocity": 52}, {"time": 1397, "pitch": 55, "duration": 6, "velocity": 39}, {"time": 1403, "pitch": 43, "duration": 18, "velocity": 60}, {"time": 1409, "pitch": 50, "duration": 6, "velocity": 34}, {"time": 1415, "pitch": 59, "duration": 7, "velocity": 45}, {"time": 1415, "pitch": 62, "duration": 12, "velocity": 47}, {"time": 1418, "pitch": 50, "duration": 5, "velocity": 44}, {"time": 1421, "pitch": 55, "duration": 5, "velocity": 56}, {"time": 1424, "pitch": 59, "duration": 3, "velocity": 52}, {"time": 1427, "pitch": 45, "duration": 17, "velocity": 48}, {"time": 1433, "pitch": 52, "duration": 7, "velocity": 48}, {"time": 1439, "pitch": 60, "duration": 7, "velocity": 53}, {"time": 1439, "pitch": 64, "duration": 12, "velocity": 56}, {"time": 1442, "pitch": 52, "duration": 1, "velocity": 50}, {"time": 1445, "pitch": 57, "duration": 6, "velocity": 54}, {"time": 1448, "pitch": 60, "duration": 3, "velocity": 55}, {"time": 1451, "pitch": 40, "duration": 16, "velocity": 62}, {"time": 1457, "pitch": 47, "duration": 6, "velocity": 39}, {"time": 1463, "pitch": 59, "duration": 6, "velocity": 48}, {"time": 1463, "pitch": 64, "duration": 12, "velocity": 55}, {"time": 1466, "pitch": 47, "duration": 2, "velocity": 40}, {"time": 1469, "pitch": 55, "duration": 5, "velocity": 54}, {"time": 1472, "pitch": 59, "duration": 3, "velocity": 54}, {"time": 1475, "pitch": 41, "duration": 17, "velocity": 48}, {"time": 1481, "pitch": 48, "duration": 7, "velocity": 57}, {"time": 1487, "pitch": 57, "duration": 6, "velocity": 53}, {"time": 1487, "pitch": 60, "duration": 11, "velocity": 54}, {"time": 1490, "pitch": 48, "duration": 1, "velocity": 44}, {"time": 1493, "pitch": 53, "duration": 5, "velocity": 57}, {"time": 1496, "pitch": 57, "duration": 2, "velocity": 58}, {"time": 1499, "pitch": 36, "duration": 19, "velocity": 56}, {"time": 1505, "pitch": 43, "duration": 7, "velocity": 49}, {"time": 1511, "pitch": 60, "duration": 6, "velocity": 58}, {"time": 1511, "pitch": 64, "duration": 12, "velocity": 58}, {"time": 1514, "pitch": 43, "duration": 7, "velocity": 42}, {"time": 1517, "pitch": 55, "duration": 5, "velocity": 56}, {"time": 1520, "pitch": 60, "duration": 2, "velocity": 54}, {"time": 1523, "pitch": 38, "duration": 16, "velocity": 47}, {"time": 1529, "pitch": 45, "duration": 7, "velocity": 42}, {"time": 1535, "pitch": 62, "duration": 7, "velocity": 59}, {"time": 1535, "pitch": 65, "duration": 11, "velocity": 48}, {"time": 1538, "pitch": 45, "duration": 2, "velocity": 44}, {"time": 1541, "pitch": 57, "duration": 6, "velocity": 55}, {"time": 1544, "pitch": 62, "duration": 2, "velocity": 58}, {"time": 1547, "pitch": 43, "duration": 17, "velocity": 56}, {"time": 1550, "pitch": 50, "duration": 9, "velocity": 59}, {"time": 1553, "pitch": 55, "duration": 7, "velocity": 39}, {"time": 1556, "pitch": 59, "duration": 3, "velocity": 53}, {"time": 1559, "pitch": 62, "duration": 11, "velocity": 66}, {"time": 1562, "pitch": 50, "duration": 2, "velocity": 43}, {"time": 1565, "pitch": 59, "duration": 5, "velocity": 43}, {"time": 1568, "pitch": 55, "duration": 2, "velocity": 45}, {"time": 1571, "pitch": 36, "duration": 16, "velocity": 58}, {"time": 1574, "pitch": 43, "duration": 13, "velocity": 48}, {"time": 1577, "pitch": 48, "duration": 6, "velocity": 56}, {"time": 1580, "pitch": 55, "duration": 3, "velocity": 39}, {"time": 1583, "pitch": 60, "duration": 6, "velocity": 60}, {"time": 1583, "pitch": 64, "duration": 12, "velocity": 61}, {"time": 1586, "pitch": 48, "duration": 2, "velocity": 54}, {"time": 1589, "pitch": 55, "duration": 7, "velocity": 58}, {"time": 1592, "pitch": 60, "duration": 3, "velocity": 53}, {"time": 1595, "pitch": 43, "duration": 17, "velocity": 59}, {"time": 1598, "pitch": 50, "duration": 9, "velocity": 49}, {"time": 1601, "pitch": 55, "duration": 6, "velocity": 51}, {"time": 1604, "pitch": 59, "duration": 9, "velocity": 55}, {"time": 1607, "pitch": 62, "duration": 12, "velocity": 69}, {"time": 1610, "pitch": 50, "duration": 6, "velocity": 40}, {"time": 1613, "pitch": 55, "duration": 5, "velocity": 56}, {"time": 1616, "pitch": 59, "duration": 2, "velocity": 54}, {"time": 1619, "pitch": 45, "duration": 14, "velocity": 50}, {"time": 1622, "pitch": 52, "duration": 10, "velocity": 36}, {"time": 1625, "pitch": 57, "duration": 6, "velocity": 42}, {"time": 1631, "pitch": 60, "duration": 12, "velocity": 64}, {"time": 1631, "pitch": 64, "duration": 12, "velocity": 60}, {"time": 1637, "pitch": 57, "duration": 6, "velocity": 43}, {"time": 1643, "pitch": 40, "duration": 13, "velocity": 57}, {"time": 1649, "pitch": 47, "duration": 7, "velocity": 45}, {"time": 1655, "pitch": 55, "duration": 7, "velocity": 57}, {"time": 1655, "pitch": 59, "duration": 12, "velocity": 66}, {"time": 1661, "pitch": 52, "duration": 5, "velocity": 48}, {"time": 1664, "pitch": 55, "duration": 3, "velocity": 63}, {"time": 1667, "pitch": 41, "duration": 17, "velocity": 57}, {"time": 1673, "pitch": 48, "duration": 7, "velocity": 40}, {"time": 1679, "pitch": 57, "duration": 12, "velocity": 66}, {"time": 1679, "pitch": 60, "duration": 12, "velocity": 59}, {"time": 1682, "pitch": 48, "duration": 2, "velocity": 45}, {"time": 1685, "pitch": 53, "duration": 6, "velocity": 47}, {"time": 1691, "pitch": 48, "duration": 12, "velocity": 55}, {"time": 1697, "pitch": 55, "duration": 7, "velocity": 56}, {"time": 1703, "pitch": 60, "duration": 9, "velocity": 64}, {"time": 1703, "pitch": 64, "duration": 9, "velocity": 58}, {"time": 1706, "pitch": 48, "duration": 1, "velocity": 39}, {"time": 1709, "pitch": 55, "duration": 3, "velocity": 61}, {"time": 1715, "pitch": 38, "duration": 8, "velocity": 45}, {"time": 1715, "pitch": 57, "duration": 9, "velocity": 43}, {"time": 1715, "pitch": 62, "duration": 7, "velocity": 38}, {"time": 1715, "pitch": 65, "duration": 6, "velocity": 52}, {"time": 1727, "pitch": 43, "duration": 5, "velocity": 37}, {"time": 1727, "pitch": 55, "duration": 9, "velocity": 51}, {"time": 1727, "pitch": 59, "duration": 9, "velocity": 59}, {"time": 1727, "pitch": 62, "duration": 7, "velocity": 57}, {"time": 1739, "pitch": 36, "duration": 16, "velocity": 56}, {"time": 1739, "pitch": 55, "duration": 11, "velocity": 53}, {"time": 1739, "pitch": 60, "duration": 10, "velocity": 52}, {"time": 1739, "pitch": 64, "duration": 10, "velocity": 54}, {"time": 1745, "pitch": 43, "duration": 10, "velocity": 32}, {"time": 1751, "pitch": 55, "duration": 2, "velocity": 37}, {"time": 1751, "pitch": 60, "duration": 12, "velocity": 82}, {"time": 1751, "pitch": 64, "duration": 12, "velocity": 79}, {"time": 1754, "pitch": 48, "duration": 3, "velocity": 44}, {"time": 1757, "pitch": 55, "duration": 3, "velocity": 81}, {"time": 1760, "pitch": 59, "duration": 3, "velocity": 69}, {"time": 1763, "pitch": 45, "duration": 17, "velocity": 66}, {"time": 1766, "pitch": 52, "duration": 7, "velocity": 45}, {"time": 1769, "pitch": 57, "duration": 6, "velocity": 61}, {"time": 1772, "pitch": 60, "duration": 5, "velocity": 55}, {"time": 1775, "pitch": 64, "duration": 11, "velocity": 86}, {"time": 1778, "pitch": 52, "duration": 2, "velocity": 44}, {"time": 1781, "pitch": 57, "duration": 6, "velocity": 72}, {"time": 1784, "pitch": 60, "duration": 3, "velocity": 50}, {"time": 1787, "pitch": 40, "duration": 17, "velocity": 53}, {"time": 1790, "pitch": 47, "duration": 18, "velocity": 40}, {"time": 1793, "pitch": 52, "duration": 6, "velocity": 41}, {"time": 1796, "pitch": 59, "duration": 6, "velocity": 63}, {"time": 1799, "pitch": 67, "duration": 10, "velocity": 90}, {"time": 1802, "pitch": 52, "duration": 2, "velocity": 55}, {"time": 1805, "pitch": 64, "duration": 4, "velocity": 67}, {"time": 1808, "pitch": 59, "duration": 2, "velocity": 65}, {"time": 1811, "pitch": 41, "duration": 9, "velocity": 61}, {"time": 1814, "pitch": 48, "duration": 8, "velocity": 39}, {"time": 1817, "pitch": 53, "duration": 5, "velocity": 66}, {"time": 1820, "pitch": 60, "duration": 2, "velocity": 75}, {"time": 1823, "pitch": 43, "duration": 6, "velocity": 57}, {"time": 1826, "pitch": 55, "duration": 9, "velocity": 63}, {"time": 1829, "pitch": 59, "duration": 4, "velocity": 55}, {"time": 1832, "pitch": 62, "duration": 2, "velocity": 69}, {"time": 1835, "pitch": 36, "duration": 16, "velocity": 58}, {"time": 1838, "pitch": 43, "duration": 12, "velocity": 42}, {"time": 1841, "pitch": 48, "duration": 6, "velocity": 58}, {"time": 1844, "pitch": 55, "duration": 3, "velocity": 69}, {"time": 1847, "pitch": 64, "duration": 13, "velocity": 95}, {"time": 1850, "pitch": 48, "duration": 3, "velocity": 61}, {"time": 1850, "pitch": 60, "duration": 3, "velocity": 75}, {"time": 1853, "pitch": 59, "duration": 4, "velocity": 72}, {"time": 1856, "pitch": 60, "duration": 3, "velocity": 54}, {"time": 1859, "pitch": 45, "duration": 17, "velocity": 66}, {"time": 1862, "pitch": 52, "duration": 8, "velocity": 56}, {"time": 1865, "pitch": 57, "duration": 5, "velocity": 56}, {"time": 1868, "pitch": 60, "duration": 4, "velocity": 47}, {"time": 1871, "pitch": 64, "duration": 10, "velocity": 95}, {"time": 1874, "pitch": 52, "duration": 1, "velocity": 55}, {"time": 1877, "pitch": 60, "duration": 5, "velocity": 85}, {"time": 1880, "pitch": 57, "duration": 3, "velocity": 71}, {"time": 1883, "pitch": 40, "duration": 18, "velocity": 52}, {"time": 1886, "pitch": 47, "duration": 20, "velocity": 40}, {"time": 1889, "pitch": 52, "duration": 7, "velocity": 56}, {"time": 1892, "pitch": 59, "duration": 6, "velocity": 67}, {"time": 1895, "pitch": 67, "duration": 9, "velocity": 93}, {"time": 1898, "pitch": 52, "duration": 2, "velocity": 68}, {"time": 1901, "pitch": 64, "duration": 4, "velocity": 65}, {"time": 1904, "pitch": 59, "duration": 2, "velocity": 71}, {"time": 1907, "pitch": 41, "duration": 10, "velocity": 69}, {"time": 1910, "pitch": 53, "duration": 7, "velocity": 61}, {"time": 1913, "pitch": 60, "duration": 5, "velocity": 82}, {"time": 1916, "pitch": 57, "duration": 2, "velocity": 69}, {"time": 1919, "pitch": 43, "duration": 6, "velocity": 66}, {"time": 1922, "pitch": 55, "duration": 9, "velocity": 72}, {"time": 1925, "pitch": 59, "duration": 4, "velocity": 72}, {"time": 1928, "pitch": 62, "duration": 3, "velocity": 77}, {"time": 1931, "pitch": 36, "duration": 16, "velocity": 63}, {"time": 1934, "pitch": 43, "duration": 13, "velocity": 56}, {"time": 1937, "pitch": 48, "duration": 6, "velocity": 76}, {"time": 1940, "pitch": 55, "duration": 7, "velocity": 78}, {"time": 1943, "pitch": 64, "duration": 9, "velocity": 93}, {"time": 1946, "pitch": 48, "duration": 3, "velocity": 68}, {"time": 1949, "pitch": 60, "duration": 3, "velocity": 65}, {"time": 1952, "pitch": 55, "duration": 3, "velocity": 63}, {"time": 1955, "pitch": 36, "duration": 18, "velocity": 66}, {"time": 1958, "pitch": 43, "duration": 15, "velocity": 54}, {"time": 1961, "pitch": 48, "duration": 7, "velocity": 47}, {"time": 1964, "pitch": 55, "duration": 5, "velocity": 45}, {"time": 1967, "pitch": 64, "duration": 9, "velocity": 66}, {"time": 1970, "pitch": 48, "duration": 3, "velocity": 50}, {"time": 1973, "pitch": 60, "duration": 3, "velocity": 58}, {"time": 1976, "pitch": 55, "duration": 2, "velocity": 38}, {"time": 1979, "pitch": 43, "duration": 10, "velocity": 50}, {"time": 1979, "pitch": 55, "duration": 8, "velocity": 53}, {"time": 1979, "pitch": 59, "duration": 10, "velocity": 65}, {"time": 1979, "pitch": 62, "duration": 7, "velocity": 51}, {"time": 1991, "pitch": 45, "duration": 9, "velocity": 44}, {"time": 1991, "pitch": 57, "duration": 9, "velocity": 53}, {"time": 1991, "pitch": 60, "duration": 9, "velocity": 52}, {"time": 1991, "pitch": 64, "duration": 6, "velocity": 55}, {"time": 2003, "pitch": 43, "duration": 9, "velocity": 35}, {"time": 2003, "pitch": 55, "duration": 11, "velocity": 38}, {"time": 2003, "pitch": 59, "duration": 11, "velocity": 44}, {"time": 2003, "pitch": 62, "duration": 11, "velocity": 45}, {"time": 2027, "pitch": 41, "duration": 21, "velocity": 71}, {"time": 2030, "pitch": 48, "duration": 9, "velocity": 58}, {"time": 2033, "pitch": 53, "duration": 4, "velocity": 66}, {"time": 2036, "pitch": 57, "duration": 5, "velocity": 81}, {"time": 2039, "pitch": 65, "duration": 11, "velocity": 88}, {"time": 2042, "pitch": 48, "duration": 7, "velocity": 56}, {"time": 2045, "pitch": 60, "duration": 5, "velocity": 72}, {"time": 2048, "pitch": 57, "duration": 3, "velocity": 82}, {"time": 2051, "pitch": 43, "duration": 17, "velocity": 72}, {"time": 2054, "pitch": 50, "duration": 9, "velocity": 51}, {"time": 2057, "pitch": 55, "duration": 3, "velocity": 69}, {"time": 2060, "pitch": 59, "duration": 4, "velocity": 83}, {"time": 2063, "pitch": 67, "duration": 12, "velocity": 92}, {"time": 2066, "pitch": 62, "duration": 3, "velocity": 78}, {"time": 2069, "pitch": 59, "duration": 6, "velocity": 36}, {"time": 2072, "pitch": 62, "duration": 3, "velocity": 59}, {"time": 2075, "pitch": 40, "duration": 16, "velocity": 72}, {"time": 2078, "pitch": 47, "duration": 10, "velocity": 50}, {"time": 2081, "pitch": 52, "duration": 4, "velocity": 66}, {"time": 2084, "pitch": 55, "duration": 5, "velocity": 69}, {"time": 2087, "pitch": 64, "duration": 13, "velocity": 92}, {"time": 2090, "pitch": 59, "duration": 3, "velocity": 68}, {"time": 2093, "pitch": 55, "duration": 5, "velocity": 79}, {"time": 2096, "pitch": 59, "duration": 3, "velocity": 69}, {"time": 2099, "pitch": 45, "duration": 17, "velocity": 61}, {"time": 2102, "pitch": 52, "duration": 9, "velocity": 57}, {"time": 2105, "pitch": 57, "duration": 7, "velocity": 72}, {"time": 2108, "pitch": 60, "duration": 3, "velocity": 62}, {"time": 2111, "pitch": 64, "duration": 10, "velocity": 96}, {"time": 2114, "pitch": 52, "duration": 1, "velocity": 50}, {"time": 2117, "pitch": 60, "duration": 4, "velocity": 79}, {"time": 2120, "pitch": 57, "duration": 10, "velocity": 81}, {"time": 2123, "pitch": 38, "duration": 18, "velocity": 66}, {"time": 2126, "pitch": 45, "duration": 15, "velocity": 66}, {"time": 2129, "pitch": 50, "duration": 7, "velocity": 73}, {"time": 2132, "pitch": 57, "duration": 7, "velocity": 70}, {"time": 2135, "pitch": 65, "duration": 11, "velocity": 96}, {"time": 2138, "pitch": 50, "duration": 7, "velocity": 69}, {"time": 2141, "pitch": 62, "duration": 5, "velocity": 65}, {"time": 2144, "pitch": 57, "duration": 3, "velocity": 72}, {"time": 2147, "pitch": 43, "duration": 17, "velocity": 68}, {"time": 2150, "pitch": 50, "duration": 9, "velocity": 58}, {"time": 2153, "pitch": 55, "duration": 7, "velocity": 47}, {"time": 2156, "pitch": 59, "duration": 3, "velocity": 63}, {"time": 2159, "pitch": 62, "duration": 10, "velocity": 86}, {"time": 2162, "pitch": 50, "duration": 1, "velocity": 56}, {"time": 2165, "pitch": 59, "duration": 4, "velocity": 72}, {"time": 2168, "pitch": 55, "duration": 3, "velocity": 67}, {"time": 2171, "pitch": 36, "duration": 16, "velocity": 67}, {"time": 2174, "pitch": 43, "duration": 13, "velocity": 40}, {"time": 2177, "pitch": 48, "duration": 7, "velocity": 66}, {"time": 2180, "pitch": 55, "duration": 5, "velocity": 63}, {"time": 2183, "pitch": 64, "duration": 11, "velocity": 96}, {"time": 2186, "pitch": 48, "duration": 2, "velocity": 82}, {"time": 2189, "pitch": 60, "duration": 4, "velocity": 74}, {"time": 2192, "pitch": 55, "duration": 3, "velocity": 93}, {"time": 2195, "pitch": 45, "duration": 17, "velocity": 89}, {"time": 2198, "pitch": 49, "duration": 14, "velocity": 92}, {"time": 2201, "pitch": 52, "duration": 6, "velocity": 70}, {"time": 2204, "pitch": 57, "duration": 5, "velocity": 83}, {"time": 2207, "pitch": 64, "duration": 11, "velocity": 97}, {"time": 2210, "pitch": 52, "duration": 3, "velocity": 78}, {"time": 2213, "pitch": 61, "duration": 5, "velocity": 83}, {"time": 2216, "pitch": 57, "duration": 3, "velocity": 83}, {"time": 2219, "pitch": 41, "duration": 21, "velocity": 69}, {"time": 2222, "pitch": 48, "duration": 10, "velocity": 67}, {"time": 2225, "pitch": 53, "duration": 3, "velocity": 82}, {"time": 2228, "pitch": 57, "duration": 6, "velocity": 79}, {"time": 2231, "pitch": 65, "duration": 11, "velocity": 95}, {"time": 2234, "pitch": 48, "duration": 8, "velocity": 53}, {"time": 2237, "pitch": 60, "duration": 5, "velocity": 83}, {"time": 2240, "pitch": 57, "duration": 3, "velocity": 82}, {"time": 2243, "pitch": 43, "duration": 17, "velocity": 72}, {"time": 2246, "pitch": 50, "duration": 10, "velocity": 52}, {"time": 2249, "pitch": 55, "duration": 3, "velocity": 74}, {"time": 2252, "pitch": 59, "duration": 4, "velocity": 79}, {"time": 2255, "pitch": 67, "duration": 11, "velocity": 92}, {"time": 2258, "pitch": 50, "duration": 2, "velocity": 63}, {"time": 2261, "pitch": 62, "duration": 5, "velocity": 76}, {"time": 2264, "pitch": 59, "duration": 3, "velocity": 68}, {"time": 2267, "pitch": 40, "duration": 17, "velocity": 60}, {"time": 2270, "pitch": 47, "duration": 15, "velocity": 42}, {"time": 2273, "pitch": 52, "duration": 6, "velocity": 64}, {"time": 2276, "pitch": 55, "duration": 4, "velocity": 77}, {"time": 2279, "pitch": 64, "duration": 12, "velocity": 85}, {"time": 2282, "pitch": 52, "duration": 5, "velocity": 82}, {"time": 2285, "pitch": 59, "duration": 6, "velocity": 73}, {"time": 2288, "pitch": 55, "duration": 3, "velocity": 74}, {"time": 2291, "pitch": 45, "duration": 16, "velocity": 59}, {"time": 2294, "pitch": 52, "duration": 9, "velocity": 39}, {"time": 2297, "pitch": 57, "duration": 4, "velocity": 56}, {"time": 2300, "pitch": 60, "duration": 4, "velocity": 60}, {"time": 2303, "pitch": 64, "duration": 10, "velocity": 88}, {"time": 2306, "pitch": 52, "duration": 1, "velocity": 48}, {"time": 2309, "pitch": 60, "duration": 5, "velocity": 73}, {"time": 2312, "pitch": 57, "duration": 3, "velocity": 62}, {"time": 2315, "pitch": 38, "duration": 17, "velocity": 58}, {"time": 2318, "pitch": 45, "duration": 14, "velocity": 56}, {"time": 2321, "pitch": 50, "duration": 6, "velocity": 58}, {"time": 2324, "pitch": 57, "duration": 5, "velocity": 73}, {"time": 2327, "pitch": 65, "duration": 11, "velocity": 95}, {"time": 2330, "pitch": 50, "duration": 3, "velocity": 77}, {"time": 2333, "pitch": 62, "duration": 5, "velocity": 58}, {"time": 2336, "pitch": 57, "duration": 3, "velocity": 77}, {"time": 2339, "pitch": 43, "duration": 17, "velocity": 56}, {"time": 2342, "pitch": 50, "duration": 9, "velocity": 48}, {"time": 2345, "pitch": 55, "duration": 3, "velocity": 61}, {"time": 2348, "pitch": 59, "duration": 3, "velocity": 59}, {"time": 2351, "pitch": 62, "duration": 11, "velocity": 85}, {"time": 2354, "pitch": 50, "duration": 1, "velocity": 33}, {"time": 2357, "pitch": 59, "duration": 5, "velocity": 67}, {"time": 2360, "pitch": 55, "duration": 3, "velocity": 63}, {"time": 2363, "pitch": 36, "duration": 14, "velocity": 60}, {"time": 2366, "pitch": 43, "duration": 11, "velocity": 39}, {"time": 2369, "pitch": 48, "duration": 7, "velocity": 52}, {"time": 2372, "pitch": 55, "duration": 4, "velocity": 57}, {"time": 2375, "pitch": 64, "duration": 7, "velocity": 78}, {"time": 2381, "pitch": 55, "duration": 4, "velocity": 60}, {"time": 2387, "pitch": 41, "duration": 17, "velocity": 64}, {"time": 2390, "pitch": 48, "duration": 9, "velocity": 47}, {"time": 2393, "pitch": 53, "duration": 7, "velocity": 43}, {"time": 2402, "pitch": 48, "duration": 1, "velocity": 55}, {"time": 2405, "pitch": 56, "duration": 5, "velocity": 66}, {"time": 2408, "pitch": 53, "duration": 2, "velocity": 58}, {"time": 2411, "pitch": 36, "duration": 16, "velocity": 69}, {"time": 2414, "pitch": 43, "duration": 13, "velocity": 55}, {"time": 2417, "pitch": 48, "duration": 6, "velocity": 55}, {"time": 2426, "pitch": 48, "duration": 3, "velocity": 71}, {"time": 2429, "pitch": 55, "duration": 3, "velocity": 76}, {"time": 2435, "pitch": 41, "duration": 16, "velocity": 68}, {"time": 2435, "pitch": 53, "duration": 7, "velocity": 88}, {"time": 2435, "pitch": 56, "duration": 7, "velocity": 74}, {"time": 2435, "pitch": 60, "duration": 7, "velocity": 72}, {"time": 2441, "pitch": 48, "duration": 7, "velocity": 72}, {"time": 2444, "pitch": 56, "duration": 1, "velocity": 59}, {"time": 2444, "pitch": 60, "duration": 1, "velocity": 54}, {"time": 2447, "pitch": 56, "duration": 6, "velocity": 122}, {"time": 2447, "pitch": 60, "duration": 11, "velocity": 97}, {"time": 2450, "pitch": 48, "duration": 1, "velocity": 75}, {"time": 2453, "pitch": 53, "duration": 4, "velocity": 90}, {"time": 2456, "pitch": 56, "duration": 2, "velocity": 102}, {"time": 2459, "pitch": 36, "duration": 22, "velocity": 95}, {"time": 2465, "pitch": 43, "duration": 17, "velocity": 89}, {"time": 2471, "pitch": 55, "duration": 10, "velocity": 86}, {"time": 2471, "pitch": 64, "duration": 11, "velocity": 107}, {"time": 2471, "pitch": 48, "duration": 5, "velocity": 86}, {"time": 2477, "pitch": 48, "duration": 6, "velocity": 97}, {"time": 2483, "pitch": 43, "duration": 17, "velocity": 81}, {"time": 2489, "pitch": 50, "duration": 9, "velocity": 64}, {"time": 2494, "pitch": 55, "duration": 7, "velocity": 86}, {"time": 2494, "pitch": 59, "duration": 6, "velocity": 90}, {"time": 2494, "pitch": 62, "duration": 6, "velocity": 88}, {"time": 2501, "pitch": 55, "duration": 1, "velocity": 93}, {"time": 2507, "pitch": 45, "duration": 17, "velocity": 74}, {"time": 2513, "pitch": 57, "duration": 4, "velocity": 76}, {"time": 2513, "pitch": 52, "duration": 9, "velocity": 48}, {"time": 2516, "pitch": 60, "duration": 2, "velocity": 68}, {"time": 2516, "pitch": 64, "duration": 2, "velocity": 66}, {"time": 2519, "pitch": 60, "duration": 6, "velocity": 86}, {"time": 2519, "pitch": 64, "duration": 11, "velocity": 97}, {"time": 2522, "pitch": 52, "duration": 1, "velocity": 71}, {"time": 2525, "pitch": 57, "duration": 5, "velocity": 83}, {"time": 2531, "pitch": 40, "duration": 20, "velocity": 69}, {"time": 2536, "pitch": 47, "duration": 22, "velocity": 43}, {"time": 2542, "pitch": 52, "duration": 6, "velocity": 75}, {"time": 2543, "pitch": 64, "duration": 6, "velocity": 93}, {"time": 2543, "pitch": 67, "duration": 11, "velocity": 96}, {"time": 2543, "pitch": 59, "duration": 4, "velocity": 71}, {"time": 2546, "pitch": 52, "duration": 2, "velocity": 93}, {"time": 2549, "pitch": 59, "duration": 6, "velocity": 90}, {"time": 2552, "pitch": 64, "duration": 2, "velocity": 92}, {"time": 2555, "pitch": 41, "duration": 17, "velocity": 85}, {"time": 2561, "pitch": 48, "duration": 10, "velocity": 53}, {"time": 2566, "pitch": 53, "duration": 4, "velocity": 82}, {"time": 2566, "pitch": 57, "duration": 4, "velocity": 78}, {"time": 2567, "pitch": 60, "duration": 11, "velocity": 112}, {"time": 2573, "pitch": 57, "duration": 5, "velocity": 92}, {"time": 2576, "pitch": 53, "duration": 3, "velocity": 73}, {"time": 2579, "pitch": 36, "duration": 16, "velocity": 78}, {"time": 2585, "pitch": 43, "duration": 13, "velocity": 81}, {"time": 2590, "pitch": 55, "duration": 4, "velocity": 102}, {"time": 2591, "pitch": 48, "duration": 6, "velocity": 90}, {"time": 2591, "pitch": 60, "duration": 6, "velocity": 97}, {"time": 2591, "pitch": 64, "duration": 6, "velocity": 97}, {"time": 2597, "pitch": 55, "duration": 6, "velocity": 93}, {"time": 2603, "pitch": 38, "duration": 15, "velocity": 83}, {"time": 2609, "pitch": 45, "duration": 12, "velocity": 82}, {"time": 2614, "pitch": 50, "duration": 7, "velocity": 85}, {"time": 2615, "pitch": 65, "duration": 11, "velocity": 97}, {"time": 2615, "pitch": 57, "duration": 5, "velocity": 83}, {"time": 2621, "pitch": 62, "duration": 5, "velocity": 90}, {"time": 2624, "pitch": 57, "duration": 2, "velocity": 77}, {"time": 2627, "pitch": 43, "duration": 16, "velocity": 78}, {"time": 2633, "pitch": 50, "duration": 10, "velocity": 82}, {"time": 2636, "pitch": 55, "duration": 3, "velocity": 88}, {"time": 2636, "pitch": 62, "duration": 1, "velocity": 76}, {"time": 2636, "pitch": 67, "duration": 2, "velocity": 86}, {"time": 2636, "pitch": 71, "duration": 2, "velocity": 82}, {"time": 2639, "pitch": 67, "duration": 6, "velocity": 100}, {"time": 2639, "pitch": 71, "duration": 11, "velocity": 99}, {"time": 2642, "pitch": 50, "duration": 1, "velocity": 72}, {"time": 2645, "pitch": 62, "duration": 6, "velocity": 102}, {"time": 2648, "pitch": 67, "duration": 2, "velocity": 99}, {"time": 2651, "pitch": 36, "duration": 15, "velocity": 69}, {"time": 2657, "pitch": 43, "duration": 13, "velocity": 68}, {"time": 2662, "pitch": 48, "duration": 7, "velocity": 82}, {"time": 2663, "pitch": 64, "duration": 11, "velocity": 102}, {"time": 2663, "pitch": 55, "duration": 7, "velocity": 83}, {"time": 2669, "pitch": 60, "duration": 5, "velocity": 100}, {"time": 2672, "pitch": 55, "duration": 2, "velocity": 92}, {"time": 2675, "pitch": 43, "duration": 19, "velocity": 73}, {"time": 2681, "pitch": 50, "duration": 10, "velocity": 74}, {"time": 2686, "pitch": 59, "duration": 5, "velocity": 86}, {"time": 2686, "pitch": 55, "duration": 5, "velocity": 88}, {"time": 2687, "pitch": 67, "duration": 11, "velocity": 99}, {"time": 2693, "pitch": 62, "duration": 5, "velocity": 90}, {"time": 2699, "pitch": 45, "duration": 16, "velocity": 81}, {"time": 2705, "pitch": 52, "duration": 9, "velocity": 71}, {"time": 2710, "pitch": 57, "duration": 3, "velocity": 78}, {"time": 2711, "pitch": 64, "duration": 11, "velocity": 89}, {"time": 2711, "pitch": 60, "duration": 3, "velocity": 88}, {"time": 2717, "pitch": 60, "duration": 5, "velocity": 85}, {"time": 2723, "pitch": 40, "duration": 19, "velocity": 79}, {"time": 2728, "pitch": 47, "duration": 20, "velocity": 81}, {"time": 2735, "pitch": 67, "duration": 11, "velocity": 100}, {"time": 2735, "pitch": 59, "duration": 5, "velocity": 85}, {"time": 2735, "pitch": 52, "duration": 7, "velocity": 90}, {"time": 2741, "pitch": 64, "duration": 5, "velocity": 90}, {"time": 2747, "pitch": 41, "duration": 17, "velocity": 78}, {"time": 2753, "pitch": 48, "duration": 13, "velocity": 73}, {"time": 2758, "pitch": 57, "duration": 5, "velocity": 78}, {"time": 2759, "pitch": 53, "duration": 6, "velocity": 86}, {"time": 2759, "pitch": 65, "duration": 10, "velocity": 96}, {"time": 2765, "pitch": 60, "duration": 6, "velocity": 86}, {"time": 2771, "pitch": 36, "duration": 16, "velocity": 75}, {"time": 2777, "pitch": 43, "duration": 14, "velocity": 68}, {"time": 2783, "pitch": 48, "duration": 7, "velocity": 88}, {"time": 2783, "pitch": 55, "duration": 5, "velocity": 83}, {"time": 2783, "pitch": 64, "duration": 11, "velocity": 96}, {"time": 2789, "pitch": 60, "duration": 4, "velocity": 95}, {"time": 2792, "pitch": 55, "duration": 2, "velocity": 89}, {"time": 2795, "pitch": 41, "duration": 10, "velocity": 72}, {"time": 2798, "pitch": 48, "duration": 8, "velocity": 69}, {"time": 2801, "pitch": 53, "duration": 2, "velocity": 93}, {"time": 2804, "pitch": 57, "duration": 2, "velocity": 92}, {"time": 2807, "pitch": 43, "duration": 6, "velocity": 83}, {"time": 2810, "pitch": 55, "duration": 8, "velocity": 71}, {"time": 2813, "pitch": 59, "duration": 4, "velocity": 74}, {"time": 2816, "pitch": 62, "duration": 2, "velocity": 82}, {"time": 2819, "pitch": 36, "duration": 23, "velocity": 79}, {"time": 2822, "pitch": 43, "duration": 20, "velocity": 68}, {"time": 2825, "pitch": 48, "duration": 6, "velocity": 88}, {"time": 2828, "pitch": 55, "duration": 5, "velocity": 74}, {"time": 2831, "pitch": 64, "duration": 12, "velocity": 96}, {"time": 2834, "pitch": 48, "duration": 2, "velocity": 90}, {"time": 2837, "pitch": 60, "duration": 6, "velocity": 86}, {"time": 2840, "pitch": 57, "duration": 2, "velocity": 54}, {"time": 2840, "pitch": 59, "duration": 1, "velocity": 54}, {"time": 2843, "pitch": 45, "duration": 17, "velocity": 66}, {"time": 2846, "pitch": 52, "duration": 7, "velocity": 45}, {"time": 2849, "pitch": 57, "duration": 6, "velocity": 61}, {"time": 2852, "pitch": 60, "duration": 5, "velocity": 55}, {"time": 2855, "pitch": 64, "duration": 11, "velocity": 86}, {"time": 2858, "pitch": 52, "duration": 2, "velocity": 44}, {"time": 2861, "pitch": 57, "duration": 6, "velocity": 72}, {"time": 2864, "pitch": 60, "duration": 3, "velocity": 50}, {"time": 2867, "pitch": 40, "duration": 17, "velocity": 53}, {"time": 2870, "pitch": 47, "duration": 18, "velocity": 40}, {"time": 2873, "pitch": 52, "duration": 6, "velocity": 41}, {"time": 2876, "pitch": 59, "duration": 6, "velocity": 63}, {"time": 2879, "pitch": 67, "duration": 10, "velocity": 90}, {"time": 2882, "pitch": 52, "duration": 2, "velocity": 55}, {"time": 2885, "pitch": 64, "duration": 4, "velocity": 67}, {"time": 2888, "pitch": 59, "duration": 2, "velocity": 65}, {"time": 2891, "pitch": 41, "duration": 9, "velocity": 61}, {"time": 2894, "pitch": 48, "duration": 8, "velocity": 39}, {"time": 2897, "pitch": 53, "duration": 5, "velocity": 66}, {"time": 2900, "pitch": 60, "duration": 2, "velocity": 75}, {"time": 2903, "pitch": 43, "duration": 6, "velocity": 57}, {"time": 2906, "pitch": 55, "duration": 9, "velocity": 63}, {"time": 2909, "pitch": 59, "duration": 4, "velocity": 55}, {"time": 2912, "pitch": 62, "duration": 2, "velocity": 69}, {"time": 2915, "pitch": 36, "duration": 16, "velocity": 58}, {"time": 2918, "pitch": 43, "duration": 12, "velocity": 42}, {"time": 2921, "pitch": 48, "duration": 6, "velocity": 58}, {"time": 2924, "pitch": 55, "duration": 3, "velocity": 69}, {"time": 2927, "pitch": 64, "duration": 13, "velocity": 95}, {"time": 2930, "pitch": 48, "duration": 3, "velocity": 61}, {"time": 2930, "pitch": 60, "duration": 3, "velocity": 75}, {"time": 2933, "pitch": 59, "duration": 4, "velocity": 72}, {"time": 2936, "pitch": 60, "duration": 3, "velocity": 54}, {"time": 2939, "pitch": 45, "duration": 17, "velocity": 66}, {"time": 2942, "pitch": 52, "duration": 8, "velocity": 56}, {"time": 2945, "pitch": 57, "duration": 5, "velocity": 56}, {"time": 2948, "pitch": 60, "duration": 4, "velocity": 47}, {"time": 2951, "pitch": 64, "duration": 10, "velocity": 95}, {"time": 2954, "pitch": 52, "duration": 1, "velocity": 55}, {"time": 2957, "pitch": 60, "duration": 5, "velocity": 85}, {"time": 2960, "pitch": 57, "duration": 3, "velocity": 71}, {"time": 2963, "pitch": 40, "duration": 18, "velocity": 52}, {"time": 2966, "pitch": 47, "duration": 20, "velocity": 40}, {"time": 2969, "pitch": 52, "duration": 7, "velocity": 56}, {"time": 2972, "pitch": 59, "duration": 6, "velocity": 67}, {"time": 2975, "pitch": 67, "duration": 9, "velocity": 93}, {"time": 2978, "pitch": 52, "duration": 2, "velocity": 68}, {"time": 2981, "pitch": 64, "duration": 4, "velocity": 65}, {"time": 2984, "pitch": 59, "duration": 2, "velocity": 71}, {"time": 2987, "pitch": 41, "duration": 10, "velocity": 69}, {"time": 2990, "pitch": 53, "duration": 7, "velocity": 61}, {"time": 2993, "pitch": 60, "duration": 5, "velocity": 82}, {"time": 2996, "pitch": 57, "duration": 2, "velocity": 69}, {"time": 2999, "pitch": 43, "duration": 6, "velocity": 66}, {"time": 3002, "pitch": 55, "duration": 9, "velocity": 72}, {"time": 3005, "pitch": 59, "duration": 4, "velocity": 72}, {"time": 3008, "pitch": 62, "duration": 3, "velocity": 77}, {"time": 3011, "pitch": 36, "duration": 16, "velocity": 63}, {"time": 3014, "pitch": 43, "duration": 13, "velocity": 56}, {"time": 3017, "pitch": 48, "duration": 6, "velocity": 76}, {"time": 3020, "pitch": 55, "duration": 7, "velocity": 78}, {"time": 3023, "pitch": 64, "duration": 9, "velocity": 93}, {"time": 3026, "pitch": 48, "duration": 3, "velocity": 68}, {"time": 3029, "pitch": 60, "duration": 3, "velocity": 65}, {"time": 3032, "pitch": 55, "duration": 3, "velocity": 63}, {"time": 3035, "pitch": 36, "duration": 18, "velocity": 66}, {"time": 3038, "pitch": 43, "duration": 15, "velocity": 54}, {"time": 3041, "pitch": 48, "duration": 7, "velocity": 47}, {"time": 3044, "pitch": 55, "duration": 5, "velocity": 45}, {"time": 3047, "pitch": 64, "duration": 9, "velocity": 66}, {"time": 3050, "pitch": 48, "duration": 3, "velocity": 50}, {"time": 3053, "pitch": 60, "duration": 3, "velocity": 58}, {"time": 3056, "pitch": 55, "duration": 2, "velocity": 38}, {"time": 3059, "pitch": 43, "duration": 10, "velocity": 50}, {"time": 3059, "pitch": 55, "duration": 8, "velocity": 53}, {"time": 3059, "pitch": 59, "duration": 10, "velocity": 65}, {"time": 3059, "pitch": 62, "duration": 7, "velocity": 51}, {"time": 3071, "pitch": 45, "duration": 9, "velocity": 44}, {"time": 3071, "pitch": 57, "duration": 9, "velocity": 53}, {"time": 3071, "pitch": 60, "duration": 9, "velocity": 52}, {"time": 3071, "pitch": 64, "duration": 6, "velocity": 55}, {"time": 3083, "pitch": 43, "duration": 9, "velocity": 35}, {"time": 3083, "pitch": 55, "duration": 11, "velocity": 38}, {"time": 3083, "pitch": 59, "duration": 11, "velocity": 44}, {"time": 3083, "pitch": 62, "duration": 11, "velocity": 45}, {"time": 3107, "pitch": 41, "duration": 21, "velocity": 71}, {"time": 3110, "pitch": 48, "duration": 9, "velocity": 58}, {"time": 3113, "pitch": 53, "duration": 4, "velocity": 66}, {"time": 3116, "pitch": 57, "duration": 5, "velocity": 81}, {"time": 3119, "pitch": 65, "duration": 11, "velocity": 88}, {"time": 3122, "pitch": 48, "duration": 7, "velocity": 56}, {"time": 3125, "pitch": 60, "duration": 5, "velocity": 72}, {"time": 3128, "pitch": 57, "duration": 3, "velocity": 82}, {"time": 3131, "pitch": 43, "duration": 17, "velocity": 72}, {"time": 3134, "pitch": 50, "duration": 9, "velocity": 51}, {"time": 3137, "pitch": 55, "duration": 3, "velocity": 69}, {"time": 3140, "pitch": 59, "duration": 4, "velocity": 83}, {"time": 3143, "pitch": 67, "duration": 12, "velocity": 92}, {"time": 3146, "pitch": 62, "duration": 3, "velocity": 78}, {"time": 3149, "pitch": 59, "duration": 6, "velocity": 36}, {"time": 3152, "pitch": 62, "duration": 3, "velocity": 59}, {"time": 3155, "pitch": 40, "duration": 16, "velocity": 72}, {"time": 3158, "pitch": 47, "duration": 10, "velocity": 50}, {"time": 3161, "pitch": 52, "duration": 4, "velocity": 66}, {"time": 3164, "pitch": 55, "duration": 5, "velocity": 69}, {"time": 3167, "pitch": 64, "duration": 13, "velocity": 92}, {"time": 3170, "pitch": 59, "duration": 3, "velocity": 68}, {"time": 3173, "pitch": 55, "duration": 5, "velocity": 79}, {"time": 3176, "pitch": 59, "duration": 3, "velocity": 69}, {"time": 3179, "pitch": 45, "duration": 17, "velocity": 61}, {"time": 3182, "pitch": 52, "duration": 9, "velocity": 57}, {"time": 3185, "pitch": 57, "duration": 7, "velocity": 72}, {"time": 3188, "pitch": 60, "duration": 3, "velocity": 62}, {"time": 3191, "pitch": 64, "duration": 10, "velocity": 96}, {"time": 3194, "pitch": 52, "duration": 1, "velocity": 50}, {"time": 3197, "pitch": 60, "duration": 4, "velocity": 79}, {"time": 3200, "pitch": 57, "duration": 10, "velocity": 81}, {"time": 3203, "pitch": 38, "duration": 18, "velocity": 66}, {"time": 3206, "pitch": 45, "duration": 15, "velocity": 66}, {"time": 3209, "pitch": 50, "duration": 7, "velocity": 73}, {"time": 3212, "pitch": 57, "duration": 7, "velocity": 70}, {"time": 3215, "pitch": 65, "duration": 11, "velocity": 96}, {"time": 3218, "pitch": 50, "duration": 7, "velocity": 69}, {"time": 3221, "pitch": 62, "duration": 5, "velocity": 65}, {"time": 3224, "pitch": 57, "duration": 3, "velocity": 72}, {"time": 3227, "pitch": 43, "duration": 17, "velocity": 68}, {"time": 3230, "pitch": 50, "duration": 9, "velocity": 58}, {"time": 3233, "pitch": 55, "duration": 7, "velocity": 47}, {"time": 3236, "pitch": 59, "duration": 3, "velocity": 63}, {"time": 3239, "pitch": 62, "duration": 10, "velocity": 86}, {"time": 3242, "pitch": 50, "duration": 1, "velocity": 56}, {"time": 3245, "pitch": 59, "duration": 4, "velocity": 72}, {"time": 3248, "pitch": 55, "duration": 3, "velocity": 67}, {"time": 3251, "pitch": 36, "duration": 16, "velocity": 67}, {"time": 3254, "pitch": 43, "duration": 13, "velocity": 40}, {"time": 3257, "pitch": 48, "duration": 7, "velocity": 66}, {"time": 3260, "pitch": 55, "duration": 5, "velocity": 63}, {"time": 3263, "pitch": 64, "duration": 11, "velocity": 96}, {"time": 3266, "pitch": 48, "duration": 2, "velocity": 82}, {"time": 3269, "pitch": 60, "duration": 4, "velocity": 74}, {"time": 3272, "pitch": 55, "duration": 3, "velocity": 93}, {"time": 3275, "pitch": 45, "duration": 17, "velocity": 89}, {"time": 3278, "pitch": 49, "duration": 14, "velocity": 92}, {"time": 3281, "pitch": 52, "duration": 6, "velocity": 70}, {"time": 3284, "pitch": 57, "duration": 5, "velocity": 83}, {"time": 3287, "pitch": 64, "duration": 11, "velocity": 97}, {"time": 3290, "pitch": 52, "duration": 3, "velocity": 78}, {"time": 3293, "pitch": 61, "duration": 5, "velocity": 83}, {"time": 3296, "pitch": 57, "duration": 3, "velocity": 83}, {"time": 3299, "pitch": 41, "duration": 21, "velocity": 69}, {"time": 3302, "pitch": 48, "duration": 10, "velocity": 67}, {"time": 3305, "pitch": 53, "duration": 3, "velocity": 82}, {"time": 3308, "pitch": 57, "duration": 6, "velocity": 79}, {"time": 3311, "pitch": 65, "duration": 11, "velocity": 95}, {"time": 3314, "pitch": 48, "duration": 8, "velocity": 53}, {"time": 3317, "pitch": 60, "duration": 5, "velocity": 83}, {"time": 3320, "pitch": 57, "duration": 3, "velocity": 82}, {"time": 3323, "pitch": 43, "duration": 17, "velocity": 72}, {"time": 3326, "pitch": 50, "duration": 10, "velocity": 52}, {"time": 3329, "pitch": 55, "duration": 3, "velocity": 74}, {"time": 3332, "pitch": 59, "duration": 4, "velocity": 79}, {"time": 3335, "pitch": 67, "duration": 11, "velocity": 92}, {"time": 3338, "pitch": 50, "duration": 2, "velocity": 63}, {"time": 3341, "pitch": 62, "duration": 5, "velocity": 76}, {"time": 3344, "pitch": 59, "duration": 3, "velocity": 68}, {"time": 3347, "pitch": 40, "duration": 17, "velocity": 60}, {"time": 3350, "pitch": 47, "duration": 15, "velocity": 42}, {"time": 3353, "pitch": 52, "duration": 6, "velocity": 64}, {"time": 3356, "pitch": 55, "duration": 4, "velocity": 77}, {"time": 3359, "pitch": 64, "duration": 12, "velocity": 85}, {"time": 3362, "pitch": 52, "duration": 5, "velocity": 82}, {"time": 3365, "pitch": 59, "duration": 6, "velocity": 73}, {"time": 3368, "pitch": 55, "duration": 3, "velocity": 74}, {"time": 3371, "pitch": 45, "duration": 16, "velocity": 59}, {"time": 3374, "pitch": 52, "duration": 9, "velocity": 39}, {"time": 3377, "pitch": 57, "duration": 4, "velocity": 56}, {"time": 3380, "pitch": 60, "duration": 4, "velocity": 60}, {"time": 3383, "pitch": 64, "duration": 10, "velocity": 88}, {"time": 3386, "pitch": 52, "duration": 1, "velocity": 48}, {"time": 3389, "pitch": 60, "duration": 5, "velocity": 73}, {"time": 3392, "pitch": 57, "duration": 3, "velocity": 62}, {"time": 3395, "pitch": 38, "duration": 17, "velocity": 58}, {"time": 3398, "pitch": 45, "duration": 14, "velocity": 56}, {"time": 3401, "pitch": 50, "duration": 6, "velocity": 58}, {"time": 3404, "pitch": 57, "duration": 5, "velocity": 73}, {"time": 3407, "pitch": 65, "duration": 11, "velocity": 95}, {"time": 3410, "pitch": 50, "duration": 3, "velocity": 77}, {"time": 3413, "pitch": 62, "duration": 5, "velocity": 58}, {"time": 3416, "pitch": 57, "duration": 3, "velocity": 77}, {"time": 3419, "pitch": 43, "duration": 17, "velocity": 56}, {"time": 3422, "pitch": 50, "duration": 9, "velocity": 48}, {"time": 3425, "pitch": 55, "duration": 3, "velocity": 61}, {"time": 3428, "pitch": 59, "duration": 3, "velocity": 59}, {"time": 3431, "pitch": 62, "duration": 11, "velocity": 85}, {"time": 3434, "pitch": 50, "duration": 1, "velocity": 33}, {"time": 3437, "pitch": 59, "duration": 5, "velocity": 67}, {"time": 3440, "pitch": 55, "duration": 3, "velocity": 63}, {"time": 3443, "pitch": 36, "duration": 16, "velocity": 88}, {"time": 3446, "pitch": 43, "duration": 13, "velocity": 88}, {"time": 3449, "pitch": 48, "duration": 7, "velocity": 88}, {"time": 3452, "pitch": 55, "duration": 4, "velocity": 72}, {"time": 3455, "pitch": 64, "duration": 11, "velocity": 99}, {"time": 3458, "pitch": 48, "duration": 2, "velocity": 92}, {"time": 3461, "pitch": 60, "duration": 4, "velocity": 97}, {"time": 3464, "pitch": 55, "duration": 2, "velocity": 88}, {"time": 3467, "pitch": 45, "duration": 23, "velocity": 96}, {"time": 3470, "pitch": 49, "duration": 16, "velocity": 107}, {"time": 3473, "pitch": 52, "duration": 6, "velocity": 83}, {"time": 3476, "pitch": 57, "duration": 5, "velocity": 90}, {"time": 3479, "pitch": 64, "duration": 11, "velocity": 112}, {"time": 3482, "pitch": 52, "duration": 5, "velocity": 92}, {"time": 3485, "pitch": 61, "duration": 5, "velocity": 99}, {"time": 3488, "pitch": 57, "duration": 3, "velocity": 88}, {"time": 3491, "pitch": 41, "duration": 21, "velocity": 71}, {"time": 3494, "pitch": 48, "duration": 9, "velocity": 58}, {"time": 3497, "pitch": 53, "duration": 4, "velocity": 66}, {"time": 3500, "pitch": 57, "duration": 5, "velocity": 81}, {"time": 3503, "pitch": 65, "duration": 11, "velocity": 88}, {"time": 3506, "pitch": 48, "duration": 7, "velocity": 56}, {"time": 3509, "pitch": 60, "duration": 5, "velocity": 72}, {"time": 3512, "pitch": 57, "duration": 3, "velocity": 82}, {"time": 3515, "pitch": 43, "duration": 17, "velocity": 72}, {"time": 3518, "pitch": 50, "duration": 9, "velocity": 51}, {"time": 3521, "pitch": 55, "duration": 3, "velocity": 69}, {"time": 3524, "pitch": 59, "duration": 4, "velocity": 83}, {"time": 3527, "pitch": 67, "duration": 12, "velocity": 92}, {"time": 3530, "pitch": 62, "duration": 3, "velocity": 78}, {"time": 3533, "pitch": 59, "duration": 6, "velocity": 36}, {"time": 3536, "pitch": 62, "duration": 3, "velocity": 59}, {"time": 3539, "pitch": 40, "duration": 16, "velocity": 72}, {"time": 3542, "pitch": 47, "duration": 10, "velocity": 50}, {"time": 3545, "pitch": 52, "duration": 4, "velocity": 66}, {"time": 3548, "pitch": 55, "duration": 5, "velocity": 69}, {"time": 3551, "pitch": 64, "duration": 13, "velocity": 92}, {"time": 3554, "pitch": 59, "duration": 3, "velocity": 68}, {"time": 3557, "pitch": 55, "duration": 5, "velocity": 79}, {"time": 3560, "pitch": 59, "duration": 3, "velocity": 69}, {"time": 3563, "pitch": 45, "duration": 17, "velocity": 61}, {"time": 3566, "pitch": 52, "duration": 9, "velocity": 57}, {"time": 3569, "pitch": 57, "duration": 7, "velocity": 72}, {"time": 3572, "pitch": 60, "duration": 3, "velocity": 62}, {"time": 3575, "pitch": 64, "duration": 10, "velocity": 96}, {"time": 3578, "pitch": 52, "duration": 1, "velocity": 50}, {"time": 3581, "pitch": 60, "duration": 4, "velocity": 79}, {"time": 3584, "pitch": 57, "duration": 10, "velocity": 81}, {"time": 3587, "pitch": 38, "duration": 18, "velocity": 66}, {"time": 3590, "pitch": 45, "duration": 15, "velocity": 66}, {"time": 3593, "pitch": 50, "duration": 7, "velocity": 73}, {"time": 3596, "pitch": 57, "duration": 7, "velocity": 70}, {"time": 3599, "pitch": 65, "duration": 11, "velocity": 96}, {"time": 3602, "pitch": 50, "duration": 7, "velocity": 69}, {"time": 3605, "pitch": 62, "duration": 5, "velocity": 65}, {"time": 3608, "pitch": 57, "duration": 3, "velocity": 72}, {"time": 3611, "pitch": 43, "duration": 17, "velocity": 68}, {"time": 3614, "pitch": 50, "duration": 9, "velocity": 58}, {"time": 3617, "pitch": 55, "duration": 7, "velocity": 47}, {"time": 3620, "pitch": 59, "duration": 3, "velocity": 63}, {"time": 3623, "pitch": 62, "duration": 10, "velocity": 86}, {"time": 3626, "pitch": 50, "duration": 1, "velocity": 56}, {"time": 3629, "pitch": 59, "duration": 4, "velocity": 72}, {"time": 3632, "pitch": 55, "duration": 3, "velocity": 67}, {"time": 3635, "pitch": 36, "duration": 16, "velocity": 67}, {"time": 3638, "pitch": 43, "duration": 13, "velocity": 40}, {"time": 3641, "pitch": 48, "duration": 7, "velocity": 66}, {"time": 3644, "pitch": 55, "duration": 5, "velocity": 63}, {"time": 3647, "pitch": 64, "duration": 11, "velocity": 96}, {"time": 3650, "pitch": 48, "duration": 2, "velocity": 82}, {"time": 3653, "pitch": 60, "duration": 4, "velocity": 74}, {"time": 3656, "pitch": 55, "duration": 3, "velocity": 93}, {"time": 3659, "pitch": 45, "duration": 17, "velocity": 89}, {"time": 3662, "pitch": 49, "duration": 14, "velocity": 92}, {"time": 3665, "pitch": 52, "duration": 6, "velocity": 70}, {"time": 3668, "pitch": 57, "duration": 5, "velocity": 83}, {"time": 3671, "pitch": 64, "duration": 11, "velocity": 97}, {"time": 3674, "pitch": 52, "duration": 3, "velocity": 78}, {"time": 3677, "pitch": 61, "duration": 5, "velocity": 83}, {"time": 3680, "pitch": 57, "duration": 3, "velocity": 83}, {"time": 3683, "pitch": 41, "duration": 21, "velocity": 69}, {"time": 3686, "pitch": 48, "duration": 10, "velocity": 67}, {"time": 3689, "pitch": 53, "duration": 3, "velocity": 82}, {"time": 3692, "pitch": 57, "duration": 6, "velocity": 79}, {"time": 3695, "pitch": 65, "duration": 11, "velocity": 95}, {"time": 3698, "pitch": 48, "duration": 8, "velocity": 53}, {"time": 3701, "pitch": 60, "duration": 5, "velocity": 83}, {"time": 3704, "pitch": 57, "duration": 3, "velocity": 82}, {"time": 3707, "pitch": 43, "duration": 17, "velocity": 72}, {"time": 3710, "pitch": 50, "duration": 10, "velocity": 52}, {"time": 3713, "pitch": 55, "duration": 3, "velocity": 74}, {"time": 3716, "pitch": 59, "duration": 4, "velocity": 79}, {"time": 3719, "pitch": 67, "duration": 11, "velocity": 92}, {"time": 3722, "pitch": 50, "duration": 2, "velocity": 63}, {"time": 3725, "pitch": 62, "duration": 5, "velocity": 76}, {"time": 3728, "pitch": 59, "duration": 3, "velocity": 68}, {"time": 3731, "pitch": 40, "duration": 17, "velocity": 60}, {"time": 3734, "pitch": 47, "duration": 15, "velocity": 42}, {"time": 3737, "pitch": 52, "duration": 6, "velocity": 64}, {"time": 3740, "pitch": 55, "duration": 4, "velocity": 77}, {"time": 3743, "pitch": 64, "duration": 12, "velocity": 85}, {"time": 3746, "pitch": 52, "duration": 5, "velocity": 82}, {"time": 3749, "pitch": 59, "duration": 6, "velocity": 73}, {"time": 3752, "pitch": 55, "duration": 3, "velocity": 74}, {"time": 3755, "pitch": 45, "duration": 16, "velocity": 59}, {"time": 3758, "pitch": 52, "duration": 9, "velocity": 39}, {"time": 3761, "pitch": 57, "duration": 4, "velocity": 56}, {"time": 3764, "pitch": 60, "duration": 4, "velocity": 60}, {"time": 3767, "pitch": 64, "duration": 10, "velocity": 88}, {"time": 3770, "pitch": 52, "duration": 1, "velocity": 48}, {"time": 3773, "pitch": 60, "duration": 5, "velocity": 73}, {"time": 3776, "pitch": 57, "duration": 3, "velocity": 62}, {"time": 3779, "pitch": 38, "duration": 17, "velocity": 58}, {"time": 3782, "pitch": 45, "duration": 14, "velocity": 56}, {"time": 3785, "pitch": 50, "duration": 6, "velocity": 58}, {"time": 3788, "pitch": 57, "duration": 5, "velocity": 73}, {"time": 3791, "pitch": 65, "duration": 11, "velocity": 95}, {"time": 3794, "pitch": 50, "duration": 3, "velocity": 77}, {"time": 3797, "pitch": 62, "duration": 5, "velocity": 58}, {"time": 3800, "pitch": 57, "duration": 3, "velocity": 77}, {"time": 3803, "pitch": 43, "duration": 17, "velocity": 56}, {"time": 3806, "pitch": 50, "duration": 9, "velocity": 48}, {"time": 3809, "pitch": 55, "duration": 3, "velocity": 61}, {"time": 3812, "pitch": 59, "duration": 3, "velocity": 59}, {"time": 3815, "pitch": 62, "duration": 11, "velocity": 85}, {"time": 3818, "pitch": 50, "duration": 1, "velocity": 33}, {"time": 3821, "pitch": 59, "duration": 5, "velocity": 67}, {"time": 3824, "pitch": 55, "duration": 3, "velocity": 63}, {"time": 3827, "pitch": 36, "duration": 15, "velocity": 85}, {"time": 3830, "pitch": 43, "duration": 12, "velocity": 77}, {"time": 3833, "pitch": 48, "duration": 6, "velocity": 88}, {"time": 3836, "pitch": 55, "duration": 3, "velocity": 72}, {"time": 3839, "pitch": 64, "duration": 10, "velocity": 100}, {"time": 3842, "pitch": 48, "duration": 2, "velocity": 79}, {"time": 3845, "pitch": 60, "duration": 4, "velocity": 102}, {"time": 3848, "pitch": 55, "duration": 2, "velocity": 85}, {"time": 3851, "pitch": 45, "duration": 22, "velocity": 83}, {"time": 3851, "pitch": 52, "duration": 9, "velocity": 95}, {"time": 3851, "pitch": 57, "duration": 4, "velocity": 102}, {"time": 3851, "pitch": 61, "duration": 4, "velocity": 88}, {"time": 3851, "pitch": 64, "duration": 4, "velocity": 73}, {"time": 3857, "pitch": 49, "duration": 5, "velocity": 39}, {"time": 3857, "pitch": 57, "duration": 4, "velocity": 86}, {"time": 3857, "pitch": 61, "duration": 5, "velocity": 97}, {"time": 3857, "pitch": 64, "duration": 4, "velocity": 93}, {"time": 3863, "pitch": 52, "duration": 7, "velocity": 100}, {"time": 3863, "pitch": 57, "duration": 4, "velocity": 86}, {"time": 3863, "pitch": 61, "duration": 4, "velocity": 93}, {"time": 3863, "pitch": 64, "duration": 4, "velocity": 88}, {"time": 3869, "pitch": 57, "duration": 5, "velocity": 90}, {"time": 3869, "pitch": 61, "duration": 4, "velocity": 112}, {"time": 3869, "pitch": 64, "duration": 5, "velocity": 97}, {"time": 3875, "pitch": 38, "duration": 12, "velocity": 82}, {"time": 3881, "pitch": 45, "duration": 7, "velocity": 51}, {"time": 3887, "pitch": 62, "duration": 12, "velocity": 68}, {"time": 3887, "pitch": 65, "duration": 12, "velocity": 83}, {"time": 3899, "pitch": 43, "duration": 24, "velocity": 72}, {"time": 3905, "pitch": 50, "duration": 18, "velocity": 53}, {"time": 3911, "pitch": 59, "duration": 11, "velocity": 61}, {"time": 3911, "pitch": 62, "duration": 11, "velocity": 60}, {"time": 3923, "pitch": 36, "duration": 17, "velocity": 58}, {"time": 3929, "pitch": 43, "duration": 12, "velocity": 64}, {"time": 3935, "pitch": 48, "duration": 7, "velocity": 61}, {"time": 3935, "pitch": 60, "duration": 7, "velocity": 69}, {"time": 3935, "pitch": 64, "duration": 13, "velocity": 66}, {"time": 3941, "pitch": 55, "duration": 6, "velocity": 53}, {"time": 3944, "pitch": 60, "duration": 3, "velocity": 55}, {"time": 3947, "pitch": 41, "duration": 18, "velocity": 72}, {"time": 3953, "pitch": 48, "duration": 7, "velocity": 59}, {"time": 3959, "pitch": 56, "duration": 11, "velocity": 75}, {"time": 3959, "pitch": 60, "duration": 12, "velocity": 68}, {"time": 3962, "pitch": 48, "duration": 2, "velocity": 50}, {"time": 3965, "pitch": 53, "duration": 6, "velocity": 61}, {"time": 3971, "pitch": 36, "duration": 16, "velocity": 65}, {"time": 3977, "pitch": 43, "duration": 11, "velocity": 44}, {"time": 3983, "pitch": 60, "duration": 11, "velocity": 71}, {"time": 3983, "pitch": 64, "duration": 12, "velocity": 68}, {"time": 3986, "pitch": 48, "duration": 2, "velocity": 42}, {"time": 3989, "pitch": 55, "duration": 6, "velocity": 60}, {"time": 3995, "pitch": 41, "duration": 17, "velocity": 62}, {"time": 4001, "pitch": 48, "duration": 6, "velocity": 49}, {"time": 4007, "pitch": 56, "duration": 11, "velocity": 83}, {"time": 4007, "pitch": 60, "duration": 11, "velocity": 70}, {"time": 4010, "pitch": 48, "duration": 2, "velocity": 52}, {"time": 4013, "pitch": 53, "duration": 5, "velocity": 71}, {"time": 4018, "pitch": 36, "duration": 4, "velocity": 85}, {"time": 4018, "pitch": 55, "duration": 11, "velocity": 99}, {"time": 4018, "pitch": 60, "duration": 1, "velocity": 99}, {"time": 4018, "pitch": 64, "duration": 11, "velocity": 96}, {"time": 4030, "pitch": 47, "duration": 11, "velocity": 95}, {"time": 4030, "pitch": 59, "duration": 11, "velocity": 102}, {"time": 4030, "pitch": 62, "duration": 6, "velocity": 99}, {"time": 4042, "pitch": 45, "duration": 11, "velocity": 95}, {"time": 4042, "pitch": 60, "duration": 11, "velocity": 95}, {"time": 4042, "pitch": 57, "duration": 11, "velocity": 89}, {"time": 4042, "pitch": 64, "duration": 7, "velocity": 89}, {"time": 4054, "pitch": 59, "duration": 13, "velocity": 81}, {"time": 4054, "pitch": 55, "duration": 12, "velocity": 92}, {"time": 4054, "pitch": 43, "duration": 11, "velocity": 85}, {"time": 4054, "pitch": 62, "duration": 13, "velocity": 81}, {"time": 4067, "pitch": 41, "duration": 21, "velocity": 89}, {"time": 4070, "pitch": 48, "duration": 20, "velocity": 71}, {"time": 4072, "pitch": 53, "duration": 6, "velocity": 75}, {"time": 4075, "pitch": 57, "duration": 5, "velocity": 79}, {"time": 4079, "pitch": 65, "duration": 9, "velocity": 97}, {"time": 4081, "pitch": 53, "duration": 2, "velocity": 78}, {"time": 4084, "pitch": 60, "duration": 4, "velocity": 74}, {"time": 4087, "pitch": 57, "duration": 3, "velocity": 81}, {"time": 4090, "pitch": 41, "duration": 20, "velocity": 79}, {"time": 4094, "pitch": 48, "duration": 10, "velocity": 59}, {"time": 4097, "pitch": 53, "duration": 4, "velocity": 64}, {"time": 4100, "pitch": 56, "duration": 4, "velocity": 64}, {"time": 4103, "pitch": 60, "duration": 11, "velocity": 88}, {"time": 4106, "pitch": 48, "duration": 3, "velocity": 61}, {"time": 4109, "pitch": 56, "duration": 5, "velocity": 93}, {"time": 4114, "pitch": 36, "duration": 49, "velocity": 93}, {"time": 4121, "pitch": 43, "duration": 45, "velocity": 44}, {"time": 4127, "pitch": 60, "duration": 7, "velocity": 96}, {"time": 4127, "pitch": 55, "duration": 7, "velocity": 82}, {"time": 4127, "pitch": 64, "duration": 10, "velocity": 88}, {"time": 4132, "pitch": 48, "duration": 10, "velocity": 72}, {"time": 4136, "pitch": 55, "duration": 14, "velocity": 54}, {"time": 4139, "pitch": 64, "duration": 11, "velocity": 72}, {"time": 4139, "pitch": 60, "duration": 11, "velocity": 79}, {"time": 4146, "pitch": 48, "duration": 10, "velocity": 59}, {"time": 4152, "pitch": 55, "duration": 12, "velocity": 89}, {"time": 4152, "pitch": 64, "duration": 12, "velocity": 88}, {"time": 4152, "pitch": 60, "duration": 12, "velocity": 96}, {"time": 4159, "pitch": 48, "duration": 4, "velocity": 72}, {"time": 4166, "pitch": 36, "duration": 69, "velocity": 68}, {"time": 4167, "pitch": 55, "duration": 68, "velocity": 48}, {"time": 4168, "pitch": 43, "duration": 66, "velocity": 59}, {"time": 4168, "pitch": 60, "duration": 67, "velocity": 72}, {"time": 4168, "pitch": 48, "duration": 66, "velocity": 75}, {"time": 4170, "pitch": 64, "duration": 65, "velocity": 92}], "annotations": [{"time": 18, "annotation": {"number": 64, "value": 127}, "group": "control_change"}, {"time": 33, "annotation": {"number": 64, "value": 0}, "group": "control_change"}, {"time": 34, "annotation": {"number": 64, "value": 127}, "group": "control_change"}, {"time": 56, "annotation": {"number": 64, "value": 0}, "group": "control_change"}, {"time": 58, "annotation": {"number": 64, "value": 127}, "group": "control_change"}, {"time": 80, "annotation": {"number": 64, "value": 0}, "group": "control_change"}, {"time": 82, "annotation": {"number": 64, "value": 127}, "group": "control_change"}, {"time": 104, "annotation": {"number": 64, "value": 0}, "group": "control_change"}, {"time": 106, "annotation": {"number": 64, "value": 127}, "group": "control_change"}, {"time": 115, "annotation": {"number": 64, "value": 0}, "group": "control_change"}, {"time": 118, "annotation": {"number": 64, "value": 127}, "group": "control_change"}, {"time": 126, "annotation": {"number": 64, "value": 0}, "group": "control_change"}, {"time": 130, "annotation": {"number": 64, "value": 127}, "group": "control_change"}, {"time": 136, "annotation": {"number": 64, "value": 0}, "group": "control_change"}, {"time": 142, "annotation": {"number": 64, "value": 127}, "group": "control_change"}, {"time": 146, "annotation": {"number": 64, "value": 0}, "group": "control_change"}, {"time": 154, "annotation": {"number": 64, "value": 127}, "group": "control_change"}, {"time": 175, "annotation": {"number": 64, "value": 0}, "group": "control_change"}, {"time": 178, "annotation": {"number": 64, "value": 127}, "group": "control_change"}, {"time": 199, "annotation": {"number": 64, "value": 0}, "group": "control_change"}, {"time": 202, "annotation": {"number": 64, "value": 127}, "group": "control_change"}, {"time": 224, "annotation": {"number": 64, "value": 0}, "group": "control_change"}, {"time": 226, "annotation": {"number": 64, "value": 127}, "group": "control_change"}, {"time": 248, "annotation": {"number": 64, "value": 0}, "group": "control_change"}, {"time": 250, "annotation": {"number": 64, "value": 127}, "group": "control_change"}, {"time": 250, "annotation": {"number": 64, "value": 0}, "group": "control_change"}, {"time": 257, "annotation": {"number": 64, "value": 0}, "group": "control_change"}, {"time": 298, "annotation": {"number": 64, "value": 127}, "group": "control_change"}, {"time": 320, "annotation": {"number": 64, "value": 0}, "group": "control_change"}, {"time": 322, "annotation": {"number": 64, "value": 127}, "group": "control_change"}, {"time": 344, "annotation": {"number": 64, "value": 0}, "group": "control_change"}, {"time": 346, "annotation": {"number": 64, "value": 127}, "group": "control_change"}, {"time": 369, "annotation": {"number": 64, "value": 0}, "group": "control_change"}, {"time": 371, "annotation": {"number": 64, "value": 127}, "group": "control_change"}, {"time": 392, "annotation": {"number": 64, "value": 0}, "group": "control_change"}, {"time": 394, "annotation": {"number": 64, "value": 127}, "group": "control_change"}, {"time": 416, "annotation": {"number": 64, "value": 0}, "group": "control_change"}, {"time": 418, "annotation": {"number": 64, "value": 127}, "group": "control_change"}, {"time": 440, "annotation": {"number": 64, "value": 0}, "group": "control_change"}, {"time": 442, "annotation": {"number": 64, "value": 127}, "group": "control_change"}, {"time": 464, "annotation": {"number": 64, "value": 0}, "group": "control_change"}, {"time": 466, "annotation": {"number": 64, "value": 127}, "group": "control_change"}, {"time": 488, "annotation": {"number": 64, "value": 0}, "group": "control_change"}, {"time": 490, "annotation": {"number": 64, "value": 127}, "group": "control_change"}, {"time": 512, "annotation": {"number": 64, "value": 0}, "group": "control_change"}, {"time": 514, "annotation": {"number": 64, "value": 127}, "group": "control_change"}, {"time": 536, "annotation": {"number": 64, "value": 0}, "group": "control_change"}, {"time": 538, "annotation": {"number": 64, "value": 127}, "group": "control_change"}, {"time": 561, "annotation": {"number": 64, "value": 0}, "group": "control_change"}, {"time": 563, "annotation": {"number": 64, "value": 127}, "group": "control_change"}, {"time": 585, "annotation": {"number": 64, "value": 0}, "group": "control_change"}, {"time": 587, "annotation": {"number": 64, "value": 127}, "group": "control_change"}, {"time": 608, "annotation": {"number": 64, "value": 0}, "group": "control_change"}, {"time": 610, "annotation": {"number": 64, "value": 127}, "group": "control_change"}, {"time": 632, "annotation": {"number": 64, "value": 0}, "group": "control_change"}, {"time": 634, "annotation": {"number": 64, "value": 127}, "group": "control_change"}, {"time": 644, "annotation": {"number": 64, "value": 0}, "group": "control_change"}, {"time": 646, "annotation": {"number": 64, "value": 127}, "group": "control_change"}, {"time": 657, "annotation": {"number": 64, "value": 0}, "group": "control_change"}, {"time": 659, "annotation": {"number": 64, "value": 127}, "group": "control_change"}, {"time": 680, "annotation": {"number": 64, "value": 0}, "group": "control_change"}, {"time": 683, "annotation": {"number": 64, "value": 127}, "group": "control_change"}, {"time": 704, "annotation": {"number": 64, "value": 0}, "group": "control_change"}, {"time": 706, "annotation": {"number": 64, "value": 127}, "group": "control_change"}, {"time": 727, "annotation": {"number": 64, "value": 0}, "group": "control_change"}, {"time": 729, "annotation": {"number": 64, "value": 127}, "group": "control_change"}, {"time": 740, "annotation": {"number": 64, "value": 0}, "group": "control_change"}, {"time": 742, "annotation": {"number": 64, "value": 127}, "group": "control_change"}, {"time": 752, "annotation": {"number": 64, "value": 0}, "group": "control_change"}, {"time": 754, "annotation": {"number": 64, "value": 127}, "group": "control_change"}, {"time": 776, "annotation": {"number": 64, "value": 0}, "group": "control_change"}, {"time": 779, "annotation": {"number": 64, "value": 127}, "group": "control_change"}, {"time": 800, "annotation": {"number": 64, "value": 0}, "group": "control_change"}, {"time": 802, "annotation": {"number": 64, "value": 127}, "group": "control_change"}, {"time": 823, "annotation": {"number": 64, "value": 0}, "group": "control_change"}, {"time": 826, "annotation": {"number": 64, "value": 127}, "group": "control_change"}, {"time": 836, "annotation": {"number": 64, "value": 0}, "group": "control_change"}, {"time": 838, "annotation": {"number": 64, "value": 127}, "group": "control_change"}, {"time": 848, "annotation": {"number": 64, "value": 0}, "group": "control_change"}, {"time": 850, "annotation": {"number": 64, "value": 127}, "group": "control_change"}, {"time": 872, "annotation": {"number": 64, "value": 0}, "group": "control_change"}, {"time": 874, "annotation": {"number": 64, "value": 127}, "group": "control_change"}, {"time": 875, "annotation": {"number": 64, "value": 127}, "group": "control_change"}, {"time": 897, "annotation": {"number": 64, "value": 0}, "group": "control_change"}, {"time": 924, "annotation": {"number": 64, "value": 127}, "group": "control_change"}, {"time": 944, "annotation": {"number": 64, "value": 0}, "group": "control_change"}, {"time": 946, "annotation": {"number": 64, "value": 127}, "group": "control_change"}, {"time": 947, "annotation": {"number": 64, "value": 127}, "group": "control_change"}, {"time": 968, "annotation": {"number": 64, "value": 0}, "group": "control_change"}, {"time": 970, "annotation": {"number": 64, "value": 127}, "group": "control_change"}, {"time": 993, "annotation": {"number": 64, "value": 0}, "group": "control_change"}, {"time": 995, "annotation": {"number": 64, "value": 127}, "group": "control_change"}, {"time": 1017, "annotation": {"number": 64, "value": 0}, "group": "control_change"}, {"time": 1018, "annotation": {"number": 64, "value": 127}, "group": "control_change"}, {"time": 1041, "annotation": {"number": 64, "value": 0}, "group": "control_change"}, {"time": 1042, "annotation": {"number": 64, "value": 127}, "group": "control_change"}, {"time": 1064, "annotation": {"number": 64, "value": 0}, "group": "control_change"}, {"time": 1066, "annotation": {"number": 64, "value": 127}, "group": "control_change"}, {"time": 1088, "annotation": {"number": 64, "value": 0}, "group": "control_change"}, {"time": 1090, "annotation": {"number": 64, "value": 127}, "group": "control_change"}, {"time": 1112, "annotation": {"number": 64, "value": 0}, "group": "control_change"}, {"time": 1114, "annotation": {"number": 64, "value": 127}, "group": "control_change"}, {"time": 1135, "annotation": {"number": 64, "value": 0}, "group": "control_change"}, {"time": 1138, "annotation": {"number": 64, "value": 127}, "group": "control_change"}, {"time": 1159, "annotation": {"number": 64, "value": 0}, "group": "control_change"}, {"time": 1162, "annotation": {"number": 64, "value": 127}, "group": "control_change"}, {"time": 1184, "annotation": {"number": 64, "value": 0}, "group": "control_change"}, {"time": 1186, "annotation": {"number": 64, "value": 127}, "group": "control_change"}, {"time": 1208, "annotation": {"number": 64, "value": 0}, "group": "control_change"}, {"time": 1210, "annotation": {"number": 64, "value": 127}, "group": "control_change"}, {"time": 1231, "annotation": {"number": 64, "value": 0}, "group": "control_change"}, {"time": 1234, "annotation": {"number": 64, "value": 127}, "group": "control_change"}, {"time": 1256, "annotation": {"number": 64, "value": 0}, "group": "control_change"}, {"time": 1258, "annotation": {"number": 64, "value": 127}, "group": "control_change"}, {"time": 1280, "annotation": {"number": 64, "value": 0}, "group": "control_change"}, {"time": 1282, "annotation": {"number": 64, "value": 127}, "group": "control_change"}, {"time": 1305, "annotation": {"number": 64, "value": 0}, "group": "control_change"}, {"time": 1312, "annotation": {"number": 64, "value": 127}, "group": "control_change"}, {"time": 1328, "annotation": {"number": 64, "value": 0}, "group": "control_change"}, {"time": 1331, "annotation": {"number": 64, "value": 127}, "group": "control_change"}, {"time": 1352, "annotation": {"number": 64, "value": 0}, "group": "control_change"}, {"time": 1354, "annotation": {"number": 64, "value": 127}, "group": "control_change"}, {"time": 1375, "annotation": {"number": 64, "value": 0}, "group": "control_change"}, {"time": 1400, "annotation": {"number": 64, "value": 0}, "group": "control_change"}, {"time": 1402, "annotation": {"number": 64, "value": 127}, "group": "control_change"}, {"time": 1424, "annotation": {"number": 64, "value": 0}, "group": "control_change"}, {"time": 1426, "annotation": {"number": 64, "value": 127}, "group": "control_change"}, {"time": 1449, "annotation": {"number": 64, "value": 0}, "group": "control_change"}, {"time": 1451, "annotation": {"number": 64, "value": 127}, "group": "control_change"}, {"time": 1472, "annotation": {"number": 64, "value": 0}, "group": "control_change"}, {"time": 1474, "annotation": {"number": 64, "value": 127}, "group": "control_change"}, {"time": 1496, "annotation": {"number": 64, "value": 0}, "group": "control_change"}, {"time": 1498, "annotation": {"number": 64, "value": 127}, "group": "control_change"}, {"time": 1520, "annotation": {"number": 64, "value": 0}, "group": "control_change"}, {"time": 1522, "annotation": {"number": 64, "value": 127}, "group": "control_change"}, {"time": 1544, "annotation": {"number": 64, "value": 0}, "group": "control_change"}, {"time": 1546, "annotation": {"number": 64, "value": 127}, "group": "control_change"}, {"time": 1568, "annotation": {"number": 64, "value": 0}, "group": "control_change"}, {"time": 1570, "annotation": {"number": 64, "value": 127}, "group": "control_change"}, {"time": 1592, "annotation": {"number": 64, "value": 0}, "group": "control_change"}, {"time": 1594, "annotation": {"number": 64, "value": 127}, "group": "control_change"}, {"time": 1616, "annotation": {"number": 64, "value": 0}, "group": "control_change"}, {"time": 1618, "annotation": {"number": 64, "value": 127}, "group": "control_change"}, {"time": 1641, "annotation": {"number": 64, "value": 0}, "group": "control_change"}, {"time": 1643, "annotation": {"number": 64, "value": 127}, "group": "control_change"}, {"time": 1665, "annotation": {"number": 64, "value": 0}, "group": "control_change"}, {"time": 1667, "annotation": {"number": 64, "value": 127}, "group": "control_change"}, {"time": 1688, "annotation": {"number": 64, "value": 0}, "group": "control_change"}, {"time": 1690, "annotation": {"number": 64, "value": 127}, "group": "control_change"}, {"time": 1712, "annotation": {"number": 64, "value": 0}, "group": "control_change"}, {"time": 1714, "annotation": {"number": 64, "value": 127}, "group": "control_change"}, {"time": 1724, "annotation": {"number": 64, "value": 0}, "group": "control_change"}, {"time": 1726, "annotation": {"number": 64, "value": 127}, "group": "control_change"}, {"time": 1737, "annotation": {"number": 64, "value": 0}, "group": "control_change"}, {"time": 1739, "annotation": {"number": 64, "value": 127}, "group": "control_change"}, {"time": 1760, "annotation": {"number": 64, "value": 0}, "group": "control_change"}, {"time": 1763, "annotation": {"number": 64, "value": 127}, "group": "control_change"}, {"time": 1784, "annotation": {"number": 64, "value": 0}, "group": "control_change"}, {"time": 1786, "annotation": {"number": 64, "value": 127}, "group": "control_change"}, {"time": 1807, "annotation": {"number": 64, "value": 0}, "group": "control_change"}, {"time": 1809, "annotation": {"number": 64, "value": 127}, "group": "control_change"}, {"time": 1820, "annotation": {"number": 64, "value": 0}, "group": "control_change"}, {"time": 1822, "annotation": {"number": 64, "value": 127}, "group": "control_change"}, {"time": 1832, "annotation": {"number": 64, "value": 0}, "group": "control_change"}, {"time": 1834, "annotation": {"number": 64, "value": 127}, "group": "control_change"}, {"time": 1856, "annotation": {"number": 64, "value": 0}, "group": "control_change"}, {"time": 1859, "annotation": {"number": 64, "value": 127}, "group": "control_change"}, {"time": 1880, "annotation": {"number": 64, "value": 0}, "group": "control_change"}, {"time": 1882, "annotation": {"number": 64, "value": 127}, "group": "control_change"}, {"time": 1903, "annotation": {"number": 64, "value": 0}, "group": "control_change"}, {"time": 1906, "annotation": {"number": 64, "value": 127}, "group": "control_change"}, {"time": 1916, "annotation": {"number": 64, "value": 0}, "group": "control_change"}, {"time": 1918, "annotation": {"number": 64, "value": 127}, "group": "control_change"}, {"time": 1928, "annotation": {"number": 64, "value": 0}, "group": "control_change"}, {"time": 1930, "annotation": {"number": 64, "value": 127}, "group": "control_change"}, {"time": 1952, "annotation": {"number": 64, "value": 0}, "group": "control_change"}, {"time": 1954, "annotation": {"number": 64, "value": 127}, "group": "control_change"}, {"time": 1955, "annotation": {"number": 64, "value": 127}, "group": "control_change"}, {"time": 1977, "annotation": {"number": 64, "value": 0}, "group": "control_change"}, {"time": 2004, "annotation": {"number": 64, "value": 127}, "group": "control_change"}, {"time": 2024, "annotation": {"number": 64, "value": 0}, "group": "control_change"}, {"time": 2026, "annotation": {"number": 64, "value": 127}, "group": "control_change"}, {"time": 2027, "annotation": {"number": 64, "value": 127}, "group": "control_change"}, {"time": 2048, "annotation": {"number": 64, "value": 0}, "group": "control_change"}, {"time": 2050, "annotation": {"number": 64, "value": 127}, "group": "control_change"}, {"time": 2073, "annotation": {"number": 64, "value": 0}, "group": "control_change"}, {"time": 2075, "annotation": {"number": 64, "value": 127}, "group": "control_change"}, {"time": 2097, "annotation": {"number": 64, "value": 0}, "group": "control_change"}, {"time": 2098, "annotation": {"number": 64, "value": 127}, "group": "control_change"}, {"time": 2121, "annotation": {"number": 64, "value": 0}, "group": "control_change"}, {"time": 2122, "annotation": {"number": 64, "value": 127}, "group": "control_change"}, {"time": 2144, "annotation": {"number": 64, "value": 0}, "group": "control_change"}, {"time": 2146, "annotation": {"number": 64, "value": 127}, "group": "control_change"}, {"time": 2168, "annotation": {"number": 64, "value": 0}, "group": "control_change"}, {"time": 2170, "annotation": {"number": 64, "value": 127}, "group": "control_change"}, {"time": 2192, "annotation": {"number": 64, "value": 0}, "group": "control_change"}, {"time": 2194, "annotation": {"number": 64, "value": 127}, "group": "control_change"}, {"time": 2215, "annotation": {"number": 64, "value": 0}, "group": "control_change"}, {"time": 2218, "annotation": {"number": 64, "value": 127}, "group": "control_change"}, {"time": 2239, "annotation": {"number": 64, "value": 0}, "group": "control_change"}, {"time": 2242, "annotation": {"number": 64, "value": 127}, "group": "control_change"}, {"time": 2264, "annotation": {"number": 64, "value": 0}, "group": "control_change"}, {"time": 2266, "annotation": {"number": 64, "value": 127}, "group": "control_change"}, {"time": 2288, "annotation": {"number": 64, "value": 0}, "group": "control_change"}, {"time": 2290, "annotation": {"number": 64, "value": 127}, "group": "control_change"}, {"time": 2311, "annotation": {"number": 64, "value": 0}, "group": "control_change"}, {"time": 2314, "annotation": {"number": 64, "value": 127}, "group": "control_change"}, {"time": 2336, "annotation": {"number": 64, "value": 0}, "group": "control_change"}, {"time": 2338, "annotation": {"number": 64, "value": 127}, "group": "control_change"}, {"time": 2360, "annotation": {"number": 64, "value": 0}, "group": "control_change"}, {"time": 2362, "annotation": {"number": 64, "value": 127}, "group": "control_change"}, {"time": 2385, "annotation": {"number": 64, "value": 0}, "group": "control_change"}, {"time": 2387, "annotation": {"number": 64, "value": 127}, "group": "control_change"}, {"time": 2409, "annotation": {"number": 64, "value": 0}, "group": "control_change"}, {"time": 2411, "annotation": {"number": 64, "value": 127}, "group": "control_change"}, {"time": 2433, "annotation": {"number": 64, "value": 0}, "group": "control_change"}, {"time": 2435, "annotation": {"number": 64, "value": 127}, "group": "control_change"}, {"time": 2456, "annotation": {"number": 64, "value": 0}, "group": "control_change"}, {"time": 2458, "annotation": {"number": 64, "value": 127}, "group": "control_change"}, {"time": 2480, "annotation": {"number": 64, "value": 0}, "group": "control_change"}, {"time": 2482, "annotation": {"number": 64, "value": 127}, "group": "control_change"}, {"time": 2504, "annotation": {"number": 64, "value": 0}, "group": "control_change"}, {"time": 2506, "annotation": {"number": 64, "value": 127}, "group": "control_change"}, {"time": 2528, "annotation": {"number": 64, "value": 0}, "group": "control_change"}, {"time": 2530, "annotation": {"number": 64, "value": 127}, "group": "control_change"}, {"time": 2551, "annotation": {"number": 64, "value": 0}, "group": "control_change"}, {"time": 2554, "annotation": {"number": 64, "value": 127}, "group": "control_change"}, {"time": 2577, "annotation": {"number": 64, "value": 0}, "group": "control_change"}, {"time": 2578, "annotation": {"number": 64, "value": 127}, "group": "control_change"}, {"time": 2600, "annotation": {"number": 64, "value": 0}, "group": "control_change"}, {"time": 2602, "annotation": {"number": 64, "value": 127}, "group": "control_change"}, {"time": 2603, "annotation": {"number": 64, "value": 127}, "group": "control_change"}, {"time": 2624, "annotation": {"number": 64, "value": 0}, "group": "control_change"}, {"time": 2626, "annotation": {"number": 64, "value": 127}, "group": "control_change"}, {"time": 2649, "annotation": {"number": 64, "value": 0}, "group": "control_change"}, {"time": 2651, "annotation": {"number": 64, "value": 127}, "group": "control_change"}, {"time": 2672, "annotation": {"number": 64, "value": 0}, "group": "control_change"}, {"time": 2675, "annotation": {"number": 64, "value": 127}, "group": "control_change"}, {"time": 2696, "annotation": {"number": 64, "value": 0}, "group": "control_change"}, {"time": 2698, "annotation": {"number": 64, "value": 127}, "group": "control_change"}, {"time": 2720, "annotation": {"number": 64, "value": 0}, "group": "control_change"}, {"time": 2722, "annotation": {"number": 64, "value": 127}, "group": "control_change"}, {"time": 2744, "annotation": {"number": 64, "value": 0}, "group": "control_change"}, {"time": 2746, "annotation": {"number": 64, "value": 127}, "group": "control_change"}, {"time": 2768, "annotation": {"number": 64, "value": 0}, "group": "control_change"}, {"time": 2770, "annotation": {"number": 64, "value": 127}, "group": "control_change"}, {"time": 2792, "annotation": {"number": 64, "value": 0}, "group": "control_change"}, {"time": 2794, "annotation": {"number": 64, "value": 127}, "group": "control_change"}, {"time": 2804, "annotation": {"number": 64, "value": 0}, "group": "control_change"}, {"time": 2806, "annotation": {"number": 64, "value": 127}, "group": "control_change"}, {"time": 2816, "annotation": {"number": 64, "value": 0}, "group": "control_change"}, {"time": 2819, "annotation": {"number": 64, "value": 127}, "group": "control_change"}, {"time": 2839, "annotation": {"number": 64, "value": 0}, "group": "control_change"}, {"time": 2843, "annotation": {"number": 64, "value": 127}, "group": "control_change"}, {"time": 2864, "annotation": {"number": 64, "value": 0}, "group": "control_change"}, {"time": 2866, "annotation": {"number": 64, "value": 127}, "group": "control_change"}, {"time": 2887, "annotation": {"number": 64, "value": 0}, "group": "control_change"}, {"time": 2889, "annotation": {"number": 64, "value": 127}, "group": "control_change"}, {"time": 2900, "annotation": {"number": 64, "value": 0}, "group": "control_change"}, {"time": 2902, "annotation": {"number": 64, "value": 127}, "group": "control_change"}, {"time": 2912, "annotation": {"number": 64, "value": 0}, "group": "control_change"}, {"time": 2914, "annotation": {"number": 64, "value": 127}, "group": "control_change"}, {"time": 2936, "annotation": {"number": 64, "value": 0}, "group": "control_change"}, {"time": 2939, "annotation": {"number": 64, "value": 127}, "group": "control_change"}, {"time": 2960, "annotation": {"number": 64, "value": 0}, "group": "control_change"}, {"time": 2962, "annotation": {"number": 64, "value": 127}, "group": "control_change"}, {"time": 2983, "annotation": {"number": 64, "value": 0}, "group": "control_change"}, {"time": 2986, "annotation": {"number": 64, "value": 127}, "group": "control_change"}, {"time": 2996, "annotation": {"number": 64, "value": 0}, "group": "control_change"}, {"time": 2998, "annotation": {"number": 64, "value": 127}, "group": "control_change"}, {"time": 3008, "annotation": {"number": 64, "value": 0}, "group": "control_change"}, {"time": 3010, "annotation": {"number": 64, "value": 127}, "group": "control_change"}, {"time": 3032, "annotation": {"number": 64, "value": 0}, "group": "control_change"}, {"time": 3034, "annotation": {"number": 64, "value": 127}, "group": "control_change"}, {"time": 3035, "annotation": {"number": 64, "value": 127}, "group": "control_change"}, {"time": 3057, "annotation": {"number": 64, "value": 0}, "group": "control_change"}, {"time": 3084, "annotation": {"number": 64, "value": 127}, "group": "control_change"}, {"time": 3104, "annotation": {"number": 64, "value": 0}, "group": "control_change"}, {"time": 3106, "annotation": {"number": 64, "value": 127}, "group": "control_change"}, {"time": 3107, "annotation": {"number": 64, "value": 127}, "group": "control_change"}, {"time": 3128, "annotation": {"number": 64, "value": 0}, "group": "control_change"}, {"time": 3130, "annotation": {"number": 64, "value": 127}, "group": "control_change"}, {"time": 3153, "annotation": {"number": 64, "value": 0}, "group": "control_change"}, {"time": 3155, "annotation": {"number": 64, "value": 127}, "group": "control_change"}, {"time": 3177, "annotation": {"number": 64, "value": 0}, "group": "control_change"}, {"time": 3178, "annotation": {"number": 64, "value": 127}, "group": "control_change"}, {"time": 3201, "annotation": {"number": 64, "value": 0}, "group": "control_change"}, {"time": 3202, "annotation": {"number": 64, "value": 127}, "group": "control_change"}, {"time": 3224, "annotation": {"number": 64, "value": 0}, "group": "control_change"}, {"time": 3226, "annotation": {"number": 64, "value": 127}, "group": "control_change"}, {"time": 3248, "annotation": {"number": 64, "value": 0}, "group": "control_change"}, {"time": 3250, "annotation": {"number": 64, "value": 127}, "group": "control_change"}, {"time": 3272, "annotation": {"number": 64, "value": 0}, "group": "control_change"}, {"time": 3274, "annotation": {"number": 64, "value": 127}, "group": "control_change"}, {"time": 3295, "annotation": {"number": 64, "value": 0}, "group": "control_change"}, {"time": 3298, "annotation": {"number": 64, "value": 127}, "group": "control_change"}, {"time": 3319, "annotation": {"number": 64, "value": 0}, "group": "control_change"}, {"time": 3322, "annotation": {"number": 64, "value": 127}, "group": "control_change"}, {"time": 3344, "annotation": {"number": 64, "value": 0}, "group": "control_change"}, {"time": 3346, "annotation": {"number": 64, "value": 127}, "group": "control_change"}, {"time": 3368, "annotation": {"number": 64, "value": 0}, "group": "control_change"}, {"time": 3370, "annotation": {"number": 64, "value": 127}, "group": "control_change"}, {"time": 3391, "annotation": {"number": 64, "value": 0}, "group": "control_change"}, {"time": 3394, "annotation": {"number": 64, "value": 127}, "group": "control_change"}, {"time": 3416, "annotation": {"number": 64, "value": 0}, "group": "control_change"}, {"time": 3418, "annotation": {"number": 64, "value": 127}, "group": "control_change"}, {"time": 3440, "annotation": {"number": 64, "value": 0}, "group": "control_change"}, {"time": 3442, "annotation": {"number": 64, "value": 127}, "group": "control_change"}, {"time": 3443, "annotation": {"number": 64, "value": 127}, "group": "control_change"}, {"time": 3465, "annotation": {"number": 64, "value": 0}, "group": "control_change"}, {"time": 3467, "annotation": {"number": 64, "value": 127}, "group": "control_change"}, {"time": 3488, "annotation": {"number": 64, "value": 0}, "group": "control_change"}, {"time": 3491, "annotation": {"number": 64, "value": 127}, "group": "control_change"}, {"time": 3512, "annotation": {"number": 64, "value": 0}, "group": "control_change"}, {"time": 3514, "annotation": {"number": 64, "value": 127}, "group": "control_change"}, {"time": 3537, "annotation": {"number": 64, "value": 0}, "group": "control_change"}, {"time": 3539, "annotation": {"number": 64, "value": 127}, "group": "control_change"}, {"time": 3561, "annotation": {"number": 64, "value": 0}, "group": "control_change"}, {"time": 3562, "annotation": {"number": 64, "value": 127}, "group": "control_change"}, {"time": 3585, "annotation": {"number": 64, "value": 0}, "group": "control_change"}, {"time": 3586, "annotation": {"number": 64, "value": 127}, "group": "control_change"}, {"time": 3608, "annotation": {"number": 64, "value": 0}, "group": "control_change"}, {"time": 3610, "annotation": {"number": 64, "value": 127}, "group": "control_change"}, {"time": 3632, "annotation": {"number": 64, "value": 0}, "group": "control_change"}, {"time": 3634, "annotation": {"number": 64, "value": 127}, "group": "control_change"}, {"time": 3656, "annotation": {"number": 64, "value": 0}, "group": "control_change"}, {"time": 3658, "annotation": {"number": 64, "value": 127}, "group": "control_change"}, {"time": 3679, "annotation": {"number": 64, "value": 0}, "group": "control_change"}, {"time": 3682, "annotation": {"number": 64, "value": 127}, "group": "control_change"}, {"time": 3703, "annotation": {"number": 64, "value": 0}, "group": "control_change"}, {"time": 3706, "annotation": {"number": 64, "value": 127}, "group": "control_change"}, {"time": 3728, "annotation": {"number": 64, "value": 0}, "group": "control_change"}, {"time": 3730, "annotation": {"number": 64, "value": 127}, "group": "control_change"}, {"time": 3752, "annotation": {"number": 64, "value": 0}, "group": "control_change"}, {"time": 3754, "annotation": {"number": 64, "value": 127}, "group": "control_change"}, {"time": 3775, "annotation": {"number": 64, "value": 0}, "group": "control_change"}, {"time": 3778, "annotation": {"number": 64, "value": 127}, "group": "control_change"}, {"time": 3800, "annotation": {"number": 64, "value": 0}, "group": "control_change"}, {"time": 3802, "annotation": {"number": 64, "value": 127}, "group": "control_change"}, {"time": 3824, "annotation": {"number": 64, "value": 0}, "group": "control_change"}, {"time": 3826, "annotation": {"number": 64, "value": 127}, "group": "control_change"}, {"time": 3827, "annotation": {"number": 64, "value": 127}, "group": "control_change"}, {"time": 3848, "annotation": {"number": 64, "value": 0}, "group": "control_change"}, {"time": 3850, "annotation": {"number": 64, "value": 127}, "group": "control_change"}, {"time": 3864, "annotation": {"number": 64, "value": 0}, "group": "control_change"}, {"time": 3875, "annotation": {"number": 64, "value": 127}, "group": "control_change"}, {"time": 3897, "annotation": {"number": 64, "value": 0}, "group": "control_change"}, {"time": 3899, "annotation": {"number": 64, "value": 127}, "group": "control_change"}, {"time": 3920, "annotation": {"number": 64, "value": 0}, "group": "control_change"}, {"time": 3923, "annotation": {"number": 64, "value": 127}, "group": "control_change"}, {"time": 3945, "annotation": {"number": 64, "value": 0}, "group": "control_change"}, {"time": 3947, "annotation": {"number": 64, "value": 127}, "group": "control_change"}, {"time": 3969, "annotation": {"number": 64, "value": 0}, "group": "control_change"}, {"time": 3971, "annotation": {"number": 64, "value": 127}, "group": "control_change"}, {"time": 3993, "annotation": {"number": 64, "value": 0}, "group": "control_change"}, {"time": 3995, "annotation": {"number": 64, "value": 127}, "group": "control_change"}, {"time": 4016, "annotation": {"number": 64, "value": 0}, "group": "control_change"}, {"time": 4018, "annotation": {"number": 64, "value": 127}, "group": "control_change"}, {"time": 4029, "annotation": {"number": 64, "value": 0}, "group": "control_change"}, {"time": 4031, "annotation": {"number": 64, "value": 127}, "group": "control_change"}, {"time": 4040, "annotation": {"number": 64, "value": 0}, "group": "control_change"}, {"time": 4042, "annotation": {"number": 64, "value": 127}, "group": "control_change"}, {"time": 4052, "annotation": {"number": 64, "value": 0}, "group": "control_change"}, {"time": 4055, "annotation": {"number": 64, "value": 127}, "group": "control_change"}, {"time": 4064, "annotation": {"number": 64, "value": 0}, "group": "control_change"}, {"time": 4067, "annotation": {"number": 64, "value": 127}, "group": "control_change"}, {"time": 4089, "annotation": {"number": 64, "value": 0}, "group": "control_change"}, {"time": 4091, "annotation": {"number": 64, "value": 127}, "group": "control_change"}, {"time": 4112, "annotation": {"number": 64, "value": 0}, "group": "control_change"}, {"time": 4115, "annotation": {"number": 64, "value": 127}, "group": "control_change"}, {"time": 4137, "annotation": {"number": 64, "value": 0}, "group": "control_change"}, {"time": 4139, "annotation": {"number": 64, "value": 127}, "group": "control_change"}, {"time": 4166, "annotation": {"number": 64, "value": 0}, "group": "control_change"}, {"time": 4227, "annotation": {"number": 64, "value": 127}, "group": "control_change"}, {"time": 4255, "annotation": {"number": 64, "value": 0}, "group": "control_change"}, {"time": 4256, "annotation": {"number": 64, "value": 127}, "group": "control_change"}, {"time": 4262, "annotation": {"number": 64, "value": 0}, "group": "control_change"}, {"time": 4263, "annotation": {"number": 64, "value": 127}, "group": "control_change"}]}]}