{"metadata": {"schema_version": "0.2", "title": "None", "source_filename": "736.mid", "source_format": "midi"}, "resolution": 12, "tempos": [{"time": 0, "qpm": 74.000074000074}], "time_signatures": [{"time": 0, "numerator": 1, "denominator": 4}], "tracks": [{"program": 0, "is_drum": false, "name": "MELODY", "notes": [{"time": 436, "pitch": 60, "duration": 6, "velocity": 77}, {"time": 442, "pitch": 62, "duration": 6, "velocity": 89}, {"time": 448, "pitch": 65, "duration": 5, "velocity": 99}, {"time": 454, "pitch": 72, "duration": 6, "velocity": 100}, {"time": 460, "pitch": 69, "duration": 9, "velocity": 86}, {"time": 472, "pitch": 67, "duration": 6, "velocity": 88}, {"time": 478, "pitch": 65, "duration": 5, "velocity": 74}, {"time": 484, "pitch": 62, "duration": 6, "velocity": 79}, {"time": 490, "pitch": 60, "duration": 13, "velocity": 78}, {"time": 532, "pitch": 65, "duration": 6, "velocity": 89}, {"time": 538, "pitch": 67, "duration": 6, "velocity": 74}, {"time": 544, "pitch": 69, "duration": 7, "velocity": 73}, {"time": 550, "pitch": 74, "duration": 5, "velocity": 95}, {"time": 556, "pitch": 74, "duration": 7, "velocity": 93}, {"time": 562, "pitch": 69, "duration": 12, "velocity": 95}, {"time": 574, "pitch": 72, "duration": 6, "velocity": 89}, {"time": 580, "pitch": 67, "duration": 25, "velocity": 74}, {"time": 628, "pitch": 69, "duration": 6, "velocity": 96}, {"time": 634, "pitch": 72, "duration": 5, "velocity": 92}, {"time": 646, "pitch": 65, "duration": 5, "velocity": 97}, {"time": 652, "pitch": 62, "duration": 14, "velocity": 88}, {"time": 670, "pitch": 69, "duration": 4, "velocity": 99}, {"time": 676, "pitch": 67, "duration": 5, "velocity": 99}, {"time": 682, "pitch": 65, "duration": 6, "velocity": 86}, {"time": 694, "pitch": 67, "duration": 3, "velocity": 90}, {"time": 697, "pitch": 65, "duration": 3, "velocity": 62}, {"time": 700, "pitch": 62, "duration": 12, "velocity": 81}, {"time": 724, "pitch": 60, "duration": 6, "velocity": 96}, {"time": 730, "pitch": 62, "duration": 6, "velocity": 85}, {"time": 736, "pitch": 65, "duration": 6, "velocity": 88}, {"time": 742, "pitch": 69, "duration": 6, "velocity": 79}, {"time": 748, "pitch": 67, "duration": 6, "velocity": 79}, {"time": 754, "pitch": 65, "duration": 4, "velocity": 95}, {"time": 760, "pitch": 67, "duration": 3, "velocity": 86}, {"time": 766, "pitch": 62, "duration": 6, "velocity": 82}, {"time": 772, "pitch": 60, "duration": 16, "velocity": 79}, {"time": 820, "pitch": 60, "duration": 6, "velocity": 77}, {"time": 826, "pitch": 62, "duration": 6, "velocity": 89}, {"time": 832, "pitch": 65, "duration": 5, "velocity": 99}, {"time": 838, "pitch": 72, "duration": 6, "velocity": 100}, {"time": 844, "pitch": 69, "duration": 9, "velocity": 86}, {"time": 856, "pitch": 67, "duration": 6, "velocity": 88}, {"time": 862, "pitch": 65, "duration": 5, "velocity": 74}, {"time": 868, "pitch": 62, "duration": 6, "velocity": 79}, {"time": 874, "pitch": 60, "duration": 13, "velocity": 78}, {"time": 916, "pitch": 65, "duration": 6, "velocity": 89}, {"time": 922, "pitch": 67, "duration": 6, "velocity": 74}, {"time": 928, "pitch": 69, "duration": 7, "velocity": 73}, {"time": 934, "pitch": 74, "duration": 5, "velocity": 95}, {"time": 940, "pitch": 74, "duration": 7, "velocity": 93}, {"time": 946, "pitch": 69, "duration": 12, "velocity": 95}, {"time": 958, "pitch": 72, "duration": 6, "velocity": 89}, {"time": 964, "pitch": 67, "duration": 25, "velocity": 74}, {"time": 1012, "pitch": 69, "duration": 6, "velocity": 96}, {"time": 1018, "pitch": 72, "duration": 5, "velocity": 92}, {"time": 1030, "pitch": 65, "duration": 5, "velocity": 97}, {"time": 1036, "pitch": 62, "duration": 14, "velocity": 88}, {"time": 1054, "pitch": 69, "duration": 4, "velocity": 99}, {"time": 1060, "pitch": 67, "duration": 5, "velocity": 99}, {"time": 1066, "pitch": 65, "duration": 6, "velocity": 86}, {"time": 1078, "pitch": 67, "duration": 3, "velocity": 90}, {"time": 1081, "pitch": 65, "duration": 3, "velocity": 62}, {"time": 1084, "pitch": 62, "duration": 12, "velocity": 81}, {"time": 1108, "pitch": 60, "duration": 6, "velocity": 96}, {"time": 1114, "pitch": 62, "duration": 6, "velocity": 85}, {"time": 1120, "pitch": 65, "duration": 6, "velocity": 88}, {"time": 1126, "pitch": 69, "duration": 6, "velocity": 79}, {"time": 1132, "pitch": 67, "duration": 6, "velocity": 79}, {"time": 1138, "pitch": 65, "duration": 4, "velocity": 95}, {"time": 1144, "pitch": 67, "duration": 6, "velocity": 99}, {"time": 1150, "pitch": 69, "duration": 6, "velocity": 99}, {"time": 1156, "pitch": 65, "duration": 29, "velocity": 92}, {"time": 1198, "pitch": 72, "duration": 4, "velocity": 127}, {"time": 1204, "pitch": 72, "duration": 14, "velocity": 99}, {"time": 1222, "pitch": 72, "duration": 5, "velocity": 127}, {"time": 1228, "pitch": 74, "duration": 7, "velocity": 112}, {"time": 1234, "pitch": 77, "duration": 4, "velocity": 112}, {"time": 1240, "pitch": 74, "duration": 5, "velocity": 99}, {"time": 1246, "pitch": 72, "duration": 6, "velocity": 117}, {"time": 1252, "pitch": 69, "duration": 11, "velocity": 97}, {"time": 1288, "pitch": 62, "duration": 5, "velocity": 107}, {"time": 1294, "pitch": 65, "duration": 5, "velocity": 99}, {"time": 1300, "pitch": 67, "duration": 11, "velocity": 95}, {"time": 1318, "pitch": 69, "duration": 4, "velocity": 97}, {"time": 1324, "pitch": 72, "duration": 5, "velocity": 112}, {"time": 1330, "pitch": 74, "duration": 4, "velocity": 89}, {"time": 1336, "pitch": 74, "duration": 5, "velocity": 93}, {"time": 1342, "pitch": 72, "duration": 6, "velocity": 102}, {"time": 1348, "pitch": 69, "duration": 15, "velocity": 97}, {"time": 1384, "pitch": 69, "duration": 5, "velocity": 112}, {"time": 1390, "pitch": 72, "duration": 4, "velocity": 117}, {"time": 1396, "pitch": 72, "duration": 10, "velocity": 117}, {"time": 1414, "pitch": 69, "duration": 4, "velocity": 99}, {"time": 1420, "pitch": 77, "duration": 5, "velocity": 107}, {"time": 1426, "pitch": 76, "duration": 4, "velocity": 99}, {"time": 1432, "pitch": 74, "duration": 5, "velocity": 102}, {"time": 1438, "pitch": 72, "duration": 5, "velocity": 107}, {"time": 1444, "pitch": 74, "duration": 11, "velocity": 99}, {"time": 1480, "pitch": 72, "duration": 5, "velocity": 112}, {"time": 1486, "pitch": 69, "duration": 6, "velocity": 99}, {"time": 1492, "pitch": 67, "duration": 5, "velocity": 93}, {"time": 1498, "pitch": 67, "duration": 6, "velocity": 95}, {"time": 1510, "pitch": 69, "duration": 5, "velocity": 102}, {"time": 1516, "pitch": 76, "duration": 6, "velocity": 107}, {"time": 1522, "pitch": 74, "duration": 6, "velocity": 107}, {"time": 1534, "pitch": 74, "duration": 4, "velocity": 127}, {"time": 1537, "pitch": 76, "duration": 3, "velocity": 97}, {"time": 1540, "pitch": 72, "duration": 19, "velocity": 102}, {"time": 1576, "pitch": 69, "duration": 5, "velocity": 112}, {"time": 1582, "pitch": 72, "duration": 4, "velocity": 117}, {"time": 1588, "pitch": 72, "duration": 10, "velocity": 117}, {"time": 1606, "pitch": 72, "duration": 4, "velocity": 117}, {"time": 1612, "pitch": 74, "duration": 4, "velocity": 100}, {"time": 1618, "pitch": 77, "duration": 5, "velocity": 107}, {"time": 1624, "pitch": 74, "duration": 5, "velocity": 100}, {"time": 1630, "pitch": 72, "duration": 4, "velocity": 107}, {"time": 1636, "pitch": 69, "duration": 16, "velocity": 99}, {"time": 1672, "pitch": 62, "duration": 5, "velocity": 107}, {"time": 1678, "pitch": 65, "duration": 5, "velocity": 112}, {"time": 1684, "pitch": 67, "duration": 9, "velocity": 107}, {"time": 1702, "pitch": 69, "duration": 4, "velocity": 95}, {"time": 1708, "pitch": 72, "duration": 5, "velocity": 100}, {"time": 1714, "pitch": 74, "duration": 4, "velocity": 96}, {"time": 1720, "pitch": 74, "duration": 5, "velocity": 112}, {"time": 1726, "pitch": 72, "duration": 6, "velocity": 97}, {"time": 1738, "pitch": 69, "duration": 12, "velocity": 95}, {"time": 1768, "pitch": 69, "duration": 5, "velocity": 100}, {"time": 1774, "pitch": 72, "duration": 5, "velocity": 117}, {"time": 1780, "pitch": 72, "duration": 9, "velocity": 117}, {"time": 1798, "pitch": 69, "duration": 4, "velocity": 99}, {"time": 1804, "pitch": 77, "duration": 4, "velocity": 112}, {"time": 1810, "pitch": 76, "duration": 4, "velocity": 99}, {"time": 1816, "pitch": 74, "duration": 4, "velocity": 117}, {"time": 1822, "pitch": 72, "duration": 5, "velocity": 107}, {"time": 1828, "pitch": 74, "duration": 8, "velocity": 99}, {"time": 1864, "pitch": 72, "duration": 6, "velocity": 112}, {"time": 1870, "pitch": 69, "duration": 6, "velocity": 99}, {"time": 1876, "pitch": 67, "duration": 3, "velocity": 96}, {"time": 1882, "pitch": 67, "duration": 7, "velocity": 100}, {"time": 1894, "pitch": 69, "duration": 5, "velocity": 97}, {"time": 1900, "pitch": 72, "duration": 5, "velocity": 117}, {"time": 1906, "pitch": 74, "duration": 4, "velocity": 107}, {"time": 1912, "pitch": 67, "duration": 6, "velocity": 100}, {"time": 1918, "pitch": 69, "duration": 6, "velocity": 112}, {"time": 1924, "pitch": 65, "duration": 16, "velocity": 100}, {"time": 2356, "pitch": 60, "duration": 6, "velocity": 77}, {"time": 2362, "pitch": 62, "duration": 6, "velocity": 89}, {"time": 2368, "pitch": 65, "duration": 5, "velocity": 99}, {"time": 2374, "pitch": 72, "duration": 6, "velocity": 100}, {"time": 2380, "pitch": 69, "duration": 9, "velocity": 86}, {"time": 2392, "pitch": 67, "duration": 6, "velocity": 88}, {"time": 2398, "pitch": 65, "duration": 5, "velocity": 74}, {"time": 2404, "pitch": 62, "duration": 6, "velocity": 79}, {"time": 2410, "pitch": 60, "duration": 13, "velocity": 78}, {"time": 2452, "pitch": 65, "duration": 6, "velocity": 89}, {"time": 2458, "pitch": 67, "duration": 6, "velocity": 74}, {"time": 2464, "pitch": 69, "duration": 7, "velocity": 73}, {"time": 2470, "pitch": 74, "duration": 5, "velocity": 95}, {"time": 2476, "pitch": 74, "duration": 7, "velocity": 93}, {"time": 2482, "pitch": 69, "duration": 12, "velocity": 95}, {"time": 2494, "pitch": 72, "duration": 6, "velocity": 89}, {"time": 2500, "pitch": 67, "duration": 25, "velocity": 74}, {"time": 2548, "pitch": 69, "duration": 6, "velocity": 96}, {"time": 2554, "pitch": 72, "duration": 5, "velocity": 92}, {"time": 2566, "pitch": 65, "duration": 5, "velocity": 97}, {"time": 2572, "pitch": 62, "duration": 14, "velocity": 88}, {"time": 2590, "pitch": 69, "duration": 4, "velocity": 99}, {"time": 2596, "pitch": 67, "duration": 5, "velocity": 99}, {"time": 2602, "pitch": 65, "duration": 6, "velocity": 86}, {"time": 2614, "pitch": 67, "duration": 3, "velocity": 90}, {"time": 2617, "pitch": 65, "duration": 3, "velocity": 62}, {"time": 2620, "pitch": 62, "duration": 12, "velocity": 81}, {"time": 2644, "pitch": 60, "duration": 6, "velocity": 96}, {"time": 2650, "pitch": 62, "duration": 6, "velocity": 85}, {"time": 2656, "pitch": 65, "duration": 6, "velocity": 88}, {"time": 2662, "pitch": 69, "duration": 6, "velocity": 79}, {"time": 2668, "pitch": 67, "duration": 6, "velocity": 79}, {"time": 2674, "pitch": 65, "duration": 4, "velocity": 95}, {"time": 2680, "pitch": 67, "duration": 6, "velocity": 99}, {"time": 2686, "pitch": 69, "duration": 6, "velocity": 99}, {"time": 2692, "pitch": 65, "duration": 29, "velocity": 92}, {"time": 2734, "pitch": 72, "duration": 4, "velocity": 127}, {"time": 2740, "pitch": 72, "duration": 14, "velocity": 99}, {"time": 2758, "pitch": 72, "duration": 5, "velocity": 127}, {"time": 2764, "pitch": 74, "duration": 7, "velocity": 112}, {"time": 2770, "pitch": 77, "duration": 4, "velocity": 112}, {"time": 2776, "pitch": 74, "duration": 5, "velocity": 99}, {"time": 2782, "pitch": 72, "duration": 6, "velocity": 117}, {"time": 2788, "pitch": 69, "duration": 11, "velocity": 97}, {"time": 2824, "pitch": 62, "duration": 5, "velocity": 107}, {"time": 2830, "pitch": 65, "duration": 5, "velocity": 99}, {"time": 2836, "pitch": 67, "duration": 11, "velocity": 95}, {"time": 2854, "pitch": 69, "duration": 4, "velocity": 97}, {"time": 2860, "pitch": 72, "duration": 5, "velocity": 112}, {"time": 2866, "pitch": 74, "duration": 4, "velocity": 89}, {"time": 2872, "pitch": 74, "duration": 5, "velocity": 93}, {"time": 2878, "pitch": 72, "duration": 6, "velocity": 102}, {"time": 2884, "pitch": 69, "duration": 15, "velocity": 97}, {"time": 2920, "pitch": 69, "duration": 5, "velocity": 112}, {"time": 2926, "pitch": 72, "duration": 4, "velocity": 117}, {"time": 2932, "pitch": 72, "duration": 10, "velocity": 117}, {"time": 2950, "pitch": 69, "duration": 4, "velocity": 99}, {"time": 2956, "pitch": 77, "duration": 5, "velocity": 107}, {"time": 2962, "pitch": 76, "duration": 4, "velocity": 99}, {"time": 2968, "pitch": 74, "duration": 5, "velocity": 102}, {"time": 2974, "pitch": 72, "duration": 5, "velocity": 107}, {"time": 2980, "pitch": 74, "duration": 11, "velocity": 99}, {"time": 3016, "pitch": 72, "duration": 5, "velocity": 112}, {"time": 3022, "pitch": 69, "duration": 6, "velocity": 99}, {"time": 3028, "pitch": 67, "duration": 5, "velocity": 93}, {"time": 3034, "pitch": 67, "duration": 6, "velocity": 95}, {"time": 3046, "pitch": 69, "duration": 5, "velocity": 102}, {"time": 3052, "pitch": 76, "duration": 6, "velocity": 107}, {"time": 3058, "pitch": 74, "duration": 6, "velocity": 107}, {"time": 3070, "pitch": 74, "duration": 4, "velocity": 127}, {"time": 3073, "pitch": 76, "duration": 3, "velocity": 97}, {"time": 3076, "pitch": 72, "duration": 19, "velocity": 102}, {"time": 3112, "pitch": 69, "duration": 5, "velocity": 112}, {"time": 3118, "pitch": 72, "duration": 4, "velocity": 117}, {"time": 3124, "pitch": 72, "duration": 10, "velocity": 117}, {"time": 3142, "pitch": 72, "duration": 4, "velocity": 117}, {"time": 3148, "pitch": 74, "duration": 4, "velocity": 100}, {"time": 3154, "pitch": 77, "duration": 5, "velocity": 107}, {"time": 3160, "pitch": 74, "duration": 5, "velocity": 100}, {"time": 3166, "pitch": 72, "duration": 4, "velocity": 107}, {"time": 3172, "pitch": 69, "duration": 16, "velocity": 99}, {"time": 3208, "pitch": 62, "duration": 5, "velocity": 107}, {"time": 3214, "pitch": 65, "duration": 5, "velocity": 112}, {"time": 3220, "pitch": 67, "duration": 9, "velocity": 107}, {"time": 3238, "pitch": 69, "duration": 4, "velocity": 95}, {"time": 3244, "pitch": 72, "duration": 5, "velocity": 100}, {"time": 3250, "pitch": 74, "duration": 4, "velocity": 96}, {"time": 3256, "pitch": 74, "duration": 5, "velocity": 112}, {"time": 3262, "pitch": 72, "duration": 6, "velocity": 97}, {"time": 3274, "pitch": 69, "duration": 12, "velocity": 95}, {"time": 3304, "pitch": 69, "duration": 5, "velocity": 100}, {"time": 3310, "pitch": 72, "duration": 5, "velocity": 117}, {"time": 3316, "pitch": 72, "duration": 9, "velocity": 117}, {"time": 3334, "pitch": 69, "duration": 4, "velocity": 99}, {"time": 3340, "pitch": 77, "duration": 4, "velocity": 112}, {"time": 3346, "pitch": 76, "duration": 4, "velocity": 99}, {"time": 3352, "pitch": 74, "duration": 4, "velocity": 117}, {"time": 3358, "pitch": 72, "duration": 5, "velocity": 107}, {"time": 3364, "pitch": 74, "duration": 8, "velocity": 99}, {"time": 3400, "pitch": 72, "duration": 6, "velocity": 112}, {"time": 3406, "pitch": 69, "duration": 6, "velocity": 99}, {"time": 3412, "pitch": 67, "duration": 3, "velocity": 96}, {"time": 3418, "pitch": 67, "duration": 7, "velocity": 100}, {"time": 3430, "pitch": 69, "duration": 5, "velocity": 97}, {"time": 3436, "pitch": 72, "duration": 5, "velocity": 117}, {"time": 3442, "pitch": 74, "duration": 4, "velocity": 107}, {"time": 3448, "pitch": 67, "duration": 6, "velocity": 100}, {"time": 3454, "pitch": 69, "duration": 6, "velocity": 112}, {"time": 3460, "pitch": 65, "duration": 16, "velocity": 100}, {"time": 3496, "pitch": 72, "duration": 5, "velocity": 117}, {"time": 3502, "pitch": 69, "duration": 6, "velocity": 93}, {"time": 3508, "pitch": 67, "duration": 5, "velocity": 60}, {"time": 3514, "pitch": 67, "duration": 10, "velocity": 90}, {"time": 3530, "pitch": 69, "duration": 7, "velocity": 95}, {"time": 3538, "pitch": 72, "duration": 13, "velocity": 97}, {"time": 3550, "pitch": 74, "duration": 8, "velocity": 92}, {"time": 3558, "pitch": 67, "duration": 14, "velocity": 78}, {"time": 3570, "pitch": 69, "duration": 30, "velocity": 77}, {"time": 3599, "pitch": 65, "duration": 53, "velocity": 97}]}, {"program": 0, "is_drum": false, "name": "PIANO", "notes": [{"time": 52, "pitch": 41, "duration": 36, "velocity": 56}, {"time": 52, "pitch": 60, "duration": 15, "velocity": 70}, {"time": 52, "pitch": 65, "duration": 18, "velocity": 66}, {"time": 52, "pitch": 69, "duration": 17, "velocity": 60}, {"time": 58, "pitch": 48, "duration": 31, "velocity": 47}, {"time": 64, "pitch": 53, "duration": 15, "velocity": 47}, {"time": 70, "pitch": 60, "duration": 6, "velocity": 41}, {"time": 76, "pitch": 60, "duration": 9, "velocity": 72}, {"time": 76, "pitch": 65, "duration": 10, "velocity": 71}, {"time": 76, "pitch": 69, "duration": 7, "velocity": 69}, {"time": 82, "pitch": 53, "duration": 6, "velocity": 45}, {"time": 88, "pitch": 65, "duration": 5, "velocity": 77}, {"time": 88, "pitch": 69, "duration": 5, "velocity": 69}, {"time": 100, "pitch": 45, "duration": 48, "velocity": 70}, {"time": 100, "pitch": 60, "duration": 7, "velocity": 76}, {"time": 100, "pitch": 64, "duration": 7, "velocity": 66}, {"time": 106, "pitch": 52, "duration": 8, "velocity": 61}, {"time": 112, "pitch": 57, "duration": 11, "velocity": 79}, {"time": 112, "pitch": 60, "duration": 10, "velocity": 71}, {"time": 112, "pitch": 64, "duration": 7, "velocity": 69}, {"time": 118, "pitch": 52, "duration": 10, "velocity": 72}, {"time": 124, "pitch": 60, "duration": 11, "velocity": 78}, {"time": 130, "pitch": 52, "duration": 18, "velocity": 72}, {"time": 136, "pitch": 60, "duration": 12, "velocity": 79}, {"time": 136, "pitch": 64, "duration": 12, "velocity": 72}, {"time": 142, "pitch": 57, "duration": 6, "velocity": 76}, {"time": 148, "pitch": 43, "duration": 12, "velocity": 51}, {"time": 148, "pitch": 55, "duration": 9, "velocity": 59}, {"time": 148, "pitch": 58, "duration": 10, "velocity": 59}, {"time": 148, "pitch": 62, "duration": 7, "velocity": 61}, {"time": 154, "pitch": 50, "duration": 6, "velocity": 42}, {"time": 160, "pitch": 58, "duration": 8, "velocity": 72}, {"time": 160, "pitch": 62, "duration": 6, "velocity": 62}, {"time": 166, "pitch": 55, "duration": 6, "velocity": 66}, {"time": 172, "pitch": 36, "duration": 16, "velocity": 62}, {"time": 172, "pitch": 55, "duration": 11, "velocity": 68}, {"time": 172, "pitch": 60, "duration": 8, "velocity": 66}, {"time": 172, "pitch": 64, "duration": 7, "velocity": 65}, {"time": 178, "pitch": 43, "duration": 11, "velocity": 43}, {"time": 184, "pitch": 48, "duration": 12, "velocity": 51}, {"time": 184, "pitch": 60, "duration": 7, "velocity": 71}, {"time": 184, "pitch": 64, "duration": 6, "velocity": 69}, {"time": 190, "pitch": 55, "duration": 3, "velocity": 56}, {"time": 196, "pitch": 41, "duration": 37, "velocity": 64}, {"time": 196, "pitch": 53, "duration": 5, "velocity": 56}, {"time": 196, "pitch": 57, "duration": 6, "velocity": 54}, {"time": 196, "pitch": 60, "duration": 6, "velocity": 53}, {"time": 202, "pitch": 48, "duration": 33, "velocity": 40}, {"time": 208, "pitch": 53, "duration": 14, "velocity": 44}, {"time": 214, "pitch": 60, "duration": 17, "velocity": 43}, {"time": 220, "pitch": 65, "duration": 10, "velocity": 55}, {"time": 220, "pitch": 69, "duration": 8, "velocity": 54}, {"time": 226, "pitch": 53, "duration": 7, "velocity": 36}, {"time": 232, "pitch": 60, "duration": 4, "velocity": 34}, {"time": 232, "pitch": 65, "duration": 6, "velocity": 61}, {"time": 232, "pitch": 69, "duration": 6, "velocity": 59}, {"time": 238, "pitch": 60, "duration": 2, "velocity": 48}, {"time": 244, "pitch": 45, "duration": 41, "velocity": 66}, {"time": 244, "pitch": 57, "duration": 7, "velocity": 60}, {"time": 244, "pitch": 60, "duration": 8, "velocity": 56}, {"time": 244, "pitch": 64, "duration": 7, "velocity": 56}, {"time": 250, "pitch": 52, "duration": 9, "velocity": 42}, {"time": 256, "pitch": 60, "duration": 6, "velocity": 67}, {"time": 256, "pitch": 64, "duration": 6, "velocity": 69}, {"time": 262, "pitch": 52, "duration": 8, "velocity": 39}, {"time": 268, "pitch": 57, "duration": 2, "velocity": 76}, {"time": 268, "pitch": 60, "duration": 2, "velocity": 74}, {"time": 268, "pitch": 64, "duration": 2, "velocity": 69}, {"time": 274, "pitch": 52, "duration": 7, "velocity": 34}, {"time": 280, "pitch": 64, "duration": 4, "velocity": 77}, {"time": 280, "pitch": 69, "duration": 7, "velocity": 86}, {"time": 280, "pitch": 72, "duration": 6, "velocity": 82}, {"time": 283, "pitch": 52, "duration": 2, "velocity": 52}, {"time": 286, "pitch": 64, "duration": 2, "velocity": 54}, {"time": 292, "pitch": 38, "duration": 36, "velocity": 71}, {"time": 292, "pitch": 62, "duration": 2, "velocity": 67}, {"time": 292, "pitch": 65, "duration": 2, "velocity": 66}, {"time": 292, "pitch": 69, "duration": 2, "velocity": 69}, {"time": 298, "pitch": 45, "duration": 31, "velocity": 46}, {"time": 304, "pitch": 53, "duration": 7, "velocity": 56}, {"time": 304, "pitch": 57, "duration": 7, "velocity": 68}, {"time": 304, "pitch": 62, "duration": 7, "velocity": 61}, {"time": 310, "pitch": 50, "duration": 9, "velocity": 44}, {"time": 316, "pitch": 53, "duration": 7, "velocity": 39}, {"time": 316, "pitch": 57, "duration": 7, "velocity": 45}, {"time": 316, "pitch": 62, "duration": 7, "velocity": 42}, {"time": 322, "pitch": 50, "duration": 6, "velocity": 59}, {"time": 328, "pitch": 57, "duration": 6, "velocity": 71}, {"time": 328, "pitch": 62, "duration": 7, "velocity": 78}, {"time": 334, "pitch": 53, "duration": 2, "velocity": 60}, {"time": 340, "pitch": 43, "duration": 12, "velocity": 59}, {"time": 340, "pitch": 55, "duration": 8, "velocity": 61}, {"time": 340, "pitch": 58, "duration": 10, "velocity": 62}, {"time": 340, "pitch": 62, "duration": 7, "velocity": 65}, {"time": 346, "pitch": 50, "duration": 6, "velocity": 46}, {"time": 352, "pitch": 58, "duration": 8, "velocity": 86}, {"time": 352, "pitch": 62, "duration": 6, "velocity": 72}, {"time": 358, "pitch": 55, "duration": 5, "velocity": 63}, {"time": 364, "pitch": 36, "duration": 14, "velocity": 65}, {"time": 364, "pitch": 55, "duration": 10, "velocity": 59}, {"time": 364, "pitch": 60, "duration": 8, "velocity": 63}, {"time": 364, "pitch": 64, "duration": 7, "velocity": 62}, {"time": 376, "pitch": 60, "duration": 7, "velocity": 68}, {"time": 376, "pitch": 64, "duration": 6, "velocity": 66}, {"time": 382, "pitch": 55, "duration": 4, "velocity": 57}, {"time": 388, "pitch": 41, "duration": 46, "velocity": 62}, {"time": 388, "pitch": 53, "duration": 6, "velocity": 62}, {"time": 388, "pitch": 57, "duration": 14, "velocity": 59}, {"time": 388, "pitch": 60, "duration": 14, "velocity": 52}, {"time": 394, "pitch": 48, "duration": 42, "velocity": 57}, {"time": 400, "pitch": 55, "duration": 12, "velocity": 48}, {"time": 406, "pitch": 53, "duration": 18, "velocity": 36}, {"time": 412, "pitch": 57, "duration": 22, "velocity": 35}, {"time": 412, "pitch": 60, "duration": 22, "velocity": 32}, {"time": 436, "pitch": 41, "duration": 43, "velocity": 68}, {"time": 436, "pitch": 57, "duration": 8, "velocity": 66}, {"time": 436, "pitch": 60, "duration": 6, "velocity": 64}, {"time": 442, "pitch": 48, "duration": 39, "velocity": 37}, {"time": 448, "pitch": 57, "duration": 8, "velocity": 51}, {"time": 448, "pitch": 60, "duration": 8, "velocity": 55}, {"time": 448, "pitch": 65, "duration": 8, "velocity": 56}, {"time": 454, "pitch": 53, "duration": 20, "velocity": 33}, {"time": 460, "pitch": 57, "duration": 10, "velocity": 26}, {"time": 460, "pitch": 60, "duration": 10, "velocity": 28}, {"time": 460, "pitch": 65, "duration": 10, "velocity": 29}, {"time": 472, "pitch": 60, "duration": 8, "velocity": 66}, {"time": 472, "pitch": 65, "duration": 6, "velocity": 66}, {"time": 478, "pitch": 53, "duration": 6, "velocity": 36}, {"time": 478, "pitch": 57, "duration": 5, "velocity": 41}, {"time": 484, "pitch": 45, "duration": 38, "velocity": 60}, {"time": 484, "pitch": 57, "duration": 8, "velocity": 41}, {"time": 484, "pitch": 60, "duration": 8, "velocity": 47}, {"time": 484, "pitch": 64, "duration": 7, "velocity": 61}, {"time": 490, "pitch": 52, "duration": 9, "velocity": 38}, {"time": 496, "pitch": 60, "duration": 22, "velocity": 47}, {"time": 496, "pitch": 64, "duration": 21, "velocity": 50}, {"time": 502, "pitch": 52, "duration": 8, "velocity": 39}, {"time": 508, "pitch": 57, "duration": 8, "velocity": 48}, {"time": 514, "pitch": 52, "duration": 7, "velocity": 37}, {"time": 520, "pitch": 60, "duration": 10, "velocity": 69}, {"time": 520, "pitch": 64, "duration": 7, "velocity": 76}, {"time": 526, "pitch": 57, "duration": 4, "velocity": 48}, {"time": 532, "pitch": 38, "duration": 36, "velocity": 63}, {"time": 532, "pitch": 57, "duration": 15, "velocity": 63}, {"time": 532, "pitch": 62, "duration": 15, "velocity": 56}, {"time": 532, "pitch": 65, "duration": 16, "velocity": 53}, {"time": 538, "pitch": 45, "duration": 30, "velocity": 33}, {"time": 544, "pitch": 50, "duration": 14, "velocity": 42}, {"time": 550, "pitch": 57, "duration": 12, "velocity": 41}, {"time": 556, "pitch": 62, "duration": 14, "velocity": 52}, {"time": 556, "pitch": 65, "duration": 15, "velocity": 52}, {"time": 562, "pitch": 50, "duration": 5, "velocity": 47}, {"time": 568, "pitch": 57, "duration": 7, "velocity": 50}, {"time": 580, "pitch": 43, "duration": 42, "velocity": 53}, {"time": 580, "pitch": 55, "duration": 11, "velocity": 41}, {"time": 580, "pitch": 58, "duration": 10, "velocity": 48}, {"time": 580, "pitch": 62, "duration": 8, "velocity": 50}, {"time": 586, "pitch": 50, "duration": 9, "velocity": 35}, {"time": 592, "pitch": 58, "duration": 22, "velocity": 52}, {"time": 592, "pitch": 62, "duration": 20, "velocity": 53}, {"time": 598, "pitch": 50, "duration": 9, "velocity": 37}, {"time": 604, "pitch": 55, "duration": 10, "velocity": 45}, {"time": 610, "pitch": 50, "duration": 7, "velocity": 39}, {"time": 616, "pitch": 58, "duration": 11, "velocity": 82}, {"time": 616, "pitch": 62, "duration": 7, "velocity": 74}, {"time": 619, "pitch": 50, "duration": 9, "velocity": 50}, {"time": 622, "pitch": 55, "duration": 5, "velocity": 70}, {"time": 628, "pitch": 45, "duration": 23, "velocity": 58}, {"time": 628, "pitch": 57, "duration": 11, "velocity": 68}, {"time": 628, "pitch": 60, "duration": 10, "velocity": 50}, {"time": 628, "pitch": 64, "duration": 9, "velocity": 58}, {"time": 640, "pitch": 60, "duration": 7, "velocity": 72}, {"time": 640, "pitch": 64, "duration": 7, "velocity": 65}, {"time": 646, "pitch": 57, "duration": 5, "velocity": 53}, {"time": 652, "pitch": 50, "duration": 23, "velocity": 49}, {"time": 652, "pitch": 57, "duration": 10, "velocity": 40}, {"time": 652, "pitch": 62, "duration": 10, "velocity": 58}, {"time": 652, "pitch": 65, "duration": 9, "velocity": 60}, {"time": 664, "pitch": 62, "duration": 8, "velocity": 85}, {"time": 664, "pitch": 65, "duration": 7, "velocity": 73}, {"time": 670, "pitch": 57, "duration": 4, "velocity": 69}, {"time": 676, "pitch": 43, "duration": 20, "velocity": 53}, {"time": 676, "pitch": 55, "duration": 10, "velocity": 70}, {"time": 676, "pitch": 58, "duration": 10, "velocity": 57}, {"time": 676, "pitch": 62, "duration": 6, "velocity": 58}, {"time": 682, "pitch": 50, "duration": 16, "velocity": 50}, {"time": 688, "pitch": 55, "duration": 9, "velocity": 40}, {"time": 688, "pitch": 58, "duration": 8, "velocity": 67}, {"time": 688, "pitch": 62, "duration": 7, "velocity": 55}, {"time": 700, "pitch": 50, "duration": 24, "velocity": 59}, {"time": 700, "pitch": 57, "duration": 10, "velocity": 63}, {"time": 700, "pitch": 62, "duration": 10, "velocity": 58}, {"time": 700, "pitch": 65, "duration": 10, "velocity": 55}, {"time": 712, "pitch": 62, "duration": 7, "velocity": 78}, {"time": 712, "pitch": 65, "duration": 6, "velocity": 70}, {"time": 718, "pitch": 57, "duration": 3, "velocity": 48}, {"time": 724, "pitch": 43, "duration": 23, "velocity": 58}, {"time": 724, "pitch": 55, "duration": 10, "velocity": 69}, {"time": 724, "pitch": 58, "duration": 10, "velocity": 58}, {"time": 724, "pitch": 62, "duration": 9, "velocity": 63}, {"time": 736, "pitch": 58, "duration": 8, "velocity": 78}, {"time": 736, "pitch": 62, "duration": 8, "velocity": 68}, {"time": 742, "pitch": 55, "duration": 4, "velocity": 51}, {"time": 748, "pitch": 47, "duration": 14, "velocity": 57}, {"time": 748, "pitch": 55, "duration": 10, "velocity": 61}, {"time": 748, "pitch": 59, "duration": 10, "velocity": 66}, {"time": 748, "pitch": 62, "duration": 9, "velocity": 60}, {"time": 760, "pitch": 55, "duration": 10, "velocity": 56}, {"time": 760, "pitch": 59, "duration": 10, "velocity": 58}, {"time": 760, "pitch": 62, "duration": 7, "velocity": 57}, {"time": 772, "pitch": 36, "duration": 47, "velocity": 60}, {"time": 772, "pitch": 55, "duration": 11, "velocity": 77}, {"time": 772, "pitch": 60, "duration": 10, "velocity": 73}, {"time": 772, "pitch": 64, "duration": 7, "velocity": 66}, {"time": 778, "pitch": 43, "duration": 40, "velocity": 45}, {"time": 784, "pitch": 55, "duration": 9, "velocity": 60}, {"time": 784, "pitch": 60, "duration": 6, "velocity": 59}, {"time": 784, "pitch": 64, "duration": 6, "velocity": 58}, {"time": 790, "pitch": 48, "duration": 10, "velocity": 47}, {"time": 796, "pitch": 55, "duration": 11, "velocity": 56}, {"time": 796, "pitch": 60, "duration": 10, "velocity": 55}, {"time": 796, "pitch": 64, "duration": 7, "velocity": 56}, {"time": 802, "pitch": 48, "duration": 8, "velocity": 33}, {"time": 808, "pitch": 60, "duration": 12, "velocity": 85}, {"time": 808, "pitch": 64, "duration": 12, "velocity": 75}, {"time": 811, "pitch": 48, "duration": 6, "velocity": 48}, {"time": 814, "pitch": 55, "duration": 5, "velocity": 69}, {"time": 820, "pitch": 41, "duration": 41, "velocity": 69}, {"time": 820, "pitch": 65, "duration": 10, "velocity": 75}, {"time": 820, "pitch": 69, "duration": 7, "velocity": 88}, {"time": 826, "pitch": 48, "duration": 36, "velocity": 34}, {"time": 832, "pitch": 60, "duration": 9, "velocity": 78}, {"time": 832, "pitch": 65, "duration": 8, "velocity": 82}, {"time": 832, "pitch": 69, "duration": 7, "velocity": 78}, {"time": 838, "pitch": 53, "duration": 11, "velocity": 66}, {"time": 844, "pitch": 60, "duration": 10, "velocity": 59}, {"time": 844, "pitch": 65, "duration": 10, "velocity": 55}, {"time": 844, "pitch": 69, "duration": 9, "velocity": 59}, {"time": 856, "pitch": 65, "duration": 6, "velocity": 86}, {"time": 856, "pitch": 69, "duration": 6, "velocity": 82}, {"time": 859, "pitch": 53, "duration": 3, "velocity": 50}, {"time": 862, "pitch": 60, "duration": 3, "velocity": 63}, {"time": 868, "pitch": 45, "duration": 17, "velocity": 69}, {"time": 868, "pitch": 57, "duration": 9, "velocity": 65}, {"time": 868, "pitch": 60, "duration": 9, "velocity": 56}, {"time": 868, "pitch": 64, "duration": 6, "velocity": 58}, {"time": 874, "pitch": 52, "duration": 18, "velocity": 45}, {"time": 880, "pitch": 60, "duration": 19, "velocity": 72}, {"time": 880, "pitch": 64, "duration": 19, "velocity": 68}, {"time": 886, "pitch": 57, "duration": 13, "velocity": 75}, {"time": 892, "pitch": 45, "duration": 15, "velocity": 59}, {"time": 898, "pitch": 52, "duration": 7, "velocity": 56}, {"time": 904, "pitch": 60, "duration": 10, "velocity": 86}, {"time": 904, "pitch": 64, "duration": 6, "velocity": 81}, {"time": 910, "pitch": 57, "duration": 5, "velocity": 58}, {"time": 916, "pitch": 38, "duration": 41, "velocity": 66}, {"time": 916, "pitch": 57, "duration": 11, "velocity": 72}, {"time": 916, "pitch": 62, "duration": 11, "velocity": 76}, {"time": 916, "pitch": 65, "duration": 10, "velocity": 79}, {"time": 922, "pitch": 45, "duration": 36, "velocity": 34}, {"time": 928, "pitch": 57, "duration": 10, "velocity": 69}, {"time": 928, "pitch": 62, "duration": 8, "velocity": 64}, {"time": 928, "pitch": 65, "duration": 8, "velocity": 63}, {"time": 934, "pitch": 50, "duration": 10, "velocity": 36}, {"time": 940, "pitch": 57, "duration": 7, "velocity": 47}, {"time": 940, "pitch": 62, "duration": 7, "velocity": 41}, {"time": 940, "pitch": 65, "duration": 6, "velocity": 43}, {"time": 946, "pitch": 50, "duration": 8, "velocity": 38}, {"time": 952, "pitch": 62, "duration": 7, "velocity": 95}, {"time": 952, "pitch": 65, "duration": 6, "velocity": 88}, {"time": 958, "pitch": 57, "duration": 4, "velocity": 52}, {"time": 964, "pitch": 43, "duration": 45, "velocity": 66}, {"time": 964, "pitch": 55, "duration": 9, "velocity": 79}, {"time": 964, "pitch": 58, "duration": 9, "velocity": 64}, {"time": 964, "pitch": 62, "duration": 6, "velocity": 64}, {"time": 970, "pitch": 50, "duration": 9, "velocity": 48}, {"time": 976, "pitch": 55, "duration": 8, "velocity": 53}, {"time": 976, "pitch": 58, "duration": 7, "velocity": 49}, {"time": 976, "pitch": 62, "duration": 6, "velocity": 51}, {"time": 982, "pitch": 50, "duration": 8, "velocity": 32}, {"time": 988, "pitch": 55, "duration": 7, "velocity": 44}, {"time": 988, "pitch": 58, "duration": 6, "velocity": 44}, {"time": 988, "pitch": 62, "duration": 6, "velocity": 49}, {"time": 994, "pitch": 50, "duration": 7, "velocity": 25}, {"time": 1000, "pitch": 55, "duration": 8, "velocity": 65}, {"time": 1000, "pitch": 58, "duration": 6, "velocity": 81}, {"time": 1000, "pitch": 62, "duration": 6, "velocity": 70}, {"time": 1006, "pitch": 50, "duration": 7, "velocity": 36}, {"time": 1012, "pitch": 45, "duration": 16, "velocity": 57}, {"time": 1012, "pitch": 57, "duration": 9, "velocity": 75}, {"time": 1012, "pitch": 60, "duration": 7, "velocity": 72}, {"time": 1012, "pitch": 64, "duration": 6, "velocity": 71}, {"time": 1018, "pitch": 52, "duration": 9, "velocity": 36}, {"time": 1024, "pitch": 57, "duration": 3, "velocity": 66}, {"time": 1024, "pitch": 60, "duration": 11, "velocity": 72}, {"time": 1024, "pitch": 64, "duration": 7, "velocity": 66}, {"time": 1030, "pitch": 57, "duration": 5, "velocity": 57}, {"time": 1036, "pitch": 38, "duration": 14, "velocity": 65}, {"time": 1036, "pitch": 57, "duration": 11, "velocity": 66}, {"time": 1036, "pitch": 62, "duration": 7, "velocity": 71}, {"time": 1036, "pitch": 65, "duration": 7, "velocity": 68}, {"time": 1042, "pitch": 45, "duration": 9, "velocity": 41}, {"time": 1048, "pitch": 50, "duration": 11, "velocity": 48}, {"time": 1048, "pitch": 62, "duration": 6, "velocity": 76}, {"time": 1048, "pitch": 65, "duration": 6, "velocity": 69}, {"time": 1054, "pitch": 57, "duration": 4, "velocity": 62}, {"time": 1060, "pitch": 43, "duration": 16, "velocity": 65}, {"time": 1060, "pitch": 55, "duration": 10, "velocity": 82}, {"time": 1060, "pitch": 58, "duration": 10, "velocity": 63}, {"time": 1060, "pitch": 62, "duration": 7, "velocity": 59}, {"time": 1072, "pitch": 55, "duration": 7, "velocity": 73}, {"time": 1072, "pitch": 58, "duration": 7, "velocity": 89}, {"time": 1072, "pitch": 62, "duration": 6, "velocity": 66}, {"time": 1078, "pitch": 43, "duration": 6, "velocity": 66}, {"time": 1084, "pitch": 50, "duration": 15, "velocity": 60}, {"time": 1084, "pitch": 57, "duration": 10, "velocity": 72}, {"time": 1084, "pitch": 62, "duration": 10, "velocity": 69}, {"time": 1084, "pitch": 65, "duration": 10, "velocity": 63}, {"time": 1096, "pitch": 57, "duration": 9, "velocity": 66}, {"time": 1096, "pitch": 62, "duration": 5, "velocity": 77}, {"time": 1096, "pitch": 65, "duration": 4, "velocity": 68}, {"time": 1102, "pitch": 50, "duration": 5, "velocity": 52}, {"time": 1108, "pitch": 46, "duration": 15, "velocity": 90}, {"time": 1108, "pitch": 58, "duration": 10, "velocity": 100}, {"time": 1108, "pitch": 62, "duration": 9, "velocity": 79}, {"time": 1108, "pitch": 65, "duration": 7, "velocity": 72}, {"time": 1120, "pitch": 58, "duration": 10, "velocity": 90}, {"time": 1120, "pitch": 62, "duration": 7, "velocity": 75}, {"time": 1120, "pitch": 65, "duration": 6, "velocity": 67}, {"time": 1126, "pitch": 46, "duration": 6, "velocity": 65}, {"time": 1132, "pitch": 48, "duration": 17, "velocity": 81}, {"time": 1132, "pitch": 55, "duration": 10, "velocity": 82}, {"time": 1132, "pitch": 60, "duration": 10, "velocity": 81}, {"time": 1132, "pitch": 64, "duration": 10, "velocity": 79}, {"time": 1144, "pitch": 55, "duration": 12, "velocity": 90}, {"time": 1144, "pitch": 60, "duration": 12, "velocity": 92}, {"time": 1144, "pitch": 64, "duration": 12, "velocity": 89}, {"time": 1150, "pitch": 48, "duration": 6, "velocity": 83}, {"time": 1156, "pitch": 41, "duration": 48, "velocity": 86}, {"time": 1156, "pitch": 60, "duration": 10, "velocity": 96}, {"time": 1156, "pitch": 65, "duration": 10, "velocity": 93}, {"time": 1156, "pitch": 69, "duration": 8, "velocity": 82}, {"time": 1162, "pitch": 48, "duration": 8, "velocity": 62}, {"time": 1168, "pitch": 53, "duration": 14, "velocity": 79}, {"time": 1168, "pitch": 60, "duration": 8, "velocity": 90}, {"time": 1168, "pitch": 65, "duration": 7, "velocity": 86}, {"time": 1168, "pitch": 69, "duration": 7, "velocity": 76}, {"time": 1174, "pitch": 48, "duration": 30, "velocity": 39}, {"time": 1177, "pitch": 65, "duration": 1, "velocity": 38}, {"time": 1180, "pitch": 60, "duration": 7, "velocity": 102}, {"time": 1180, "pitch": 65, "duration": 7, "velocity": 93}, {"time": 1180, "pitch": 69, "duration": 7, "velocity": 89}, {"time": 1186, "pitch": 53, "duration": 7, "velocity": 90}, {"time": 1189, "pitch": 60, "duration": 2, "velocity": 89}, {"time": 1189, "pitch": 65, "duration": 2, "velocity": 92}, {"time": 1189, "pitch": 69, "duration": 2, "velocity": 85}, {"time": 1192, "pitch": 60, "duration": 4, "velocity": 100}, {"time": 1192, "pitch": 65, "duration": 4, "velocity": 99}, {"time": 1192, "pitch": 69, "duration": 4, "velocity": 95}, {"time": 1198, "pitch": 53, "duration": 4, "velocity": 66}, {"time": 1198, "pitch": 60, "duration": 6, "velocity": 99}, {"time": 1198, "pitch": 65, "duration": 6, "velocity": 95}, {"time": 1198, "pitch": 69, "duration": 6, "velocity": 97}, {"time": 1204, "pitch": 41, "duration": 20, "velocity": 92}, {"time": 1204, "pitch": 60, "duration": 10, "velocity": 93}, {"time": 1204, "pitch": 65, "duration": 7, "velocity": 90}, {"time": 1204, "pitch": 69, "duration": 7, "velocity": 82}, {"time": 1210, "pitch": 48, "duration": 7, "velocity": 52}, {"time": 1216, "pitch": 53, "duration": 6, "velocity": 99}, {"time": 1216, "pitch": 65, "duration": 7, "velocity": 99}, {"time": 1216, "pitch": 69, "duration": 21, "velocity": 95}, {"time": 1222, "pitch": 48, "duration": 7, "velocity": 46}, {"time": 1222, "pitch": 60, "duration": 16, "velocity": 89}, {"time": 1225, "pitch": 65, "duration": 13, "velocity": 93}, {"time": 1228, "pitch": 41, "duration": 22, "velocity": 88}, {"time": 1234, "pitch": 48, "duration": 8, "velocity": 66}, {"time": 1240, "pitch": 53, "duration": 6, "velocity": 99}, {"time": 1240, "pitch": 65, "duration": 6, "velocity": 93}, {"time": 1240, "pitch": 69, "duration": 5, "velocity": 90}, {"time": 1246, "pitch": 48, "duration": 5, "velocity": 81}, {"time": 1252, "pitch": 38, "duration": 22, "velocity": 85}, {"time": 1258, "pitch": 45, "duration": 8, "velocity": 71}, {"time": 1264, "pitch": 50, "duration": 6, "velocity": 71}, {"time": 1264, "pitch": 62, "duration": 10, "velocity": 93}, {"time": 1264, "pitch": 65, "duration": 11, "velocity": 85}, {"time": 1270, "pitch": 45, "duration": 6, "velocity": 90}, {"time": 1273, "pitch": 57, "duration": 15, "velocity": 89}, {"time": 1276, "pitch": 38, "duration": 18, "velocity": 83}, {"time": 1282, "pitch": 45, "duration": 8, "velocity": 77}, {"time": 1288, "pitch": 50, "duration": 7, "velocity": 86}, {"time": 1288, "pitch": 62, "duration": 6, "velocity": 100}, {"time": 1288, "pitch": 65, "duration": 6, "velocity": 93}, {"time": 1294, "pitch": 45, "duration": 6, "velocity": 71}, {"time": 1294, "pitch": 57, "duration": 4, "velocity": 88}, {"time": 1300, "pitch": 43, "duration": 18, "velocity": 68}, {"time": 1300, "pitch": 55, "duration": 9, "velocity": 90}, {"time": 1300, "pitch": 58, "duration": 10, "velocity": 92}, {"time": 1300, "pitch": 62, "duration": 7, "velocity": 81}, {"time": 1306, "pitch": 50, "duration": 7, "velocity": 97}, {"time": 1312, "pitch": 58, "duration": 7, "velocity": 102}, {"time": 1312, "pitch": 62, "duration": 10, "velocity": 90}, {"time": 1315, "pitch": 50, "duration": 2, "velocity": 93}, {"time": 1318, "pitch": 55, "duration": 5, "velocity": 99}, {"time": 1321, "pitch": 58, "duration": 2, "velocity": 93}, {"time": 1324, "pitch": 36, "duration": 18, "velocity": 83}, {"time": 1324, "pitch": 55, "duration": 11, "velocity": 70}, {"time": 1324, "pitch": 60, "duration": 10, "velocity": 99}, {"time": 1324, "pitch": 64, "duration": 10, "velocity": 95}, {"time": 1330, "pitch": 43, "duration": 7, "velocity": 46}, {"time": 1336, "pitch": 48, "duration": 12, "velocity": 97}, {"time": 1336, "pitch": 60, "duration": 6, "velocity": 102}, {"time": 1336, "pitch": 64, "duration": 6, "velocity": 96}, {"time": 1342, "pitch": 55, "duration": 4, "velocity": 88}, {"time": 1348, "pitch": 41, "duration": 22, "velocity": 86}, {"time": 1348, "pitch": 53, "duration": 5, "velocity": 96}, {"time": 1348, "pitch": 57, "duration": 5, "velocity": 86}, {"time": 1348, "pitch": 60, "duration": 6, "velocity": 82}, {"time": 1354, "pitch": 48, "duration": 9, "velocity": 59}, {"time": 1360, "pitch": 53, "duration": 7, "velocity": 85}, {"time": 1360, "pitch": 60, "duration": 10, "velocity": 100}, {"time": 1360, "pitch": 65, "duration": 10, "velocity": 100}, {"time": 1360, "pitch": 69, "duration": 8, "velocity": 97}, {"time": 1366, "pitch": 48, "duration": 6, "velocity": 97}, {"time": 1372, "pitch": 41, "duration": 23, "velocity": 74}, {"time": 1372, "pitch": 60, "duration": 7, "velocity": 88}, {"time": 1372, "pitch": 65, "duration": 8, "velocity": 76}, {"time": 1372, "pitch": 69, "duration": 8, "velocity": 73}, {"time": 1375, "pitch": 48, "duration": 21, "velocity": 99}, {"time": 1378, "pitch": 53, "duration": 7, "velocity": 97}, {"time": 1381, "pitch": 60, "duration": 5, "velocity": 83}, {"time": 1381, "pitch": 65, "duration": 1, "velocity": 33}, {"time": 1384, "pitch": 65, "duration": 7, "velocity": 97}, {"time": 1384, "pitch": 69, "duration": 8, "velocity": 96}, {"time": 1387, "pitch": 53, "duration": 4, "velocity": 93}, {"time": 1390, "pitch": 60, "duration": 4, "velocity": 85}, {"time": 1393, "pitch": 65, "duration": 1, "velocity": 38}, {"time": 1396, "pitch": 45, "duration": 21, "velocity": 73}, {"time": 1396, "pitch": 57, "duration": 10, "velocity": 92}, {"time": 1396, "pitch": 60, "duration": 8, "velocity": 90}, {"time": 1396, "pitch": 64, "duration": 8, "velocity": 85}, {"time": 1402, "pitch": 52, "duration": 8, "velocity": 86}, {"time": 1408, "pitch": 60, "duration": 7, "velocity": 95}, {"time": 1408, "pitch": 64, "duration": 9, "velocity": 90}, {"time": 1411, "pitch": 52, "duration": 9, "velocity": 86}, {"time": 1414, "pitch": 57, "duration": 16, "velocity": 96}, {"time": 1420, "pitch": 45, "duration": 18, "velocity": 74}, {"time": 1420, "pitch": 60, "duration": 10, "velocity": 90}, {"time": 1420, "pitch": 64, "duration": 8, "velocity": 89}, {"time": 1426, "pitch": 52, "duration": 7, "velocity": 86}, {"time": 1432, "pitch": 60, "duration": 11, "velocity": 99}, {"time": 1432, "pitch": 64, "duration": 7, "velocity": 93}, {"time": 1435, "pitch": 52, "duration": 3, "velocity": 90}, {"time": 1438, "pitch": 57, "duration": 17, "velocity": 112}, {"time": 1444, "pitch": 38, "duration": 20, "velocity": 73}, {"time": 1444, "pitch": 62, "duration": 10, "velocity": 95}, {"time": 1444, "pitch": 65, "duration": 10, "velocity": 93}, {"time": 1450, "pitch": 45, "duration": 7, "velocity": 48}, {"time": 1456, "pitch": 50, "duration": 7, "velocity": 99}, {"time": 1456, "pitch": 62, "duration": 10, "velocity": 100}, {"time": 1456, "pitch": 65, "duration": 10, "velocity": 92}, {"time": 1462, "pitch": 45, "duration": 6, "velocity": 93}, {"time": 1468, "pitch": 38, "duration": 18, "velocity": 73}, {"time": 1468, "pitch": 57, "duration": 11, "velocity": 93}, {"time": 1468, "pitch": 62, "duration": 10, "velocity": 90}, {"time": 1468, "pitch": 65, "duration": 10, "velocity": 81}, {"time": 1474, "pitch": 45, "duration": 8, "velocity": 55}, {"time": 1480, "pitch": 50, "duration": 7, "velocity": 88}, {"time": 1480, "pitch": 62, "duration": 7, "velocity": 97}, {"time": 1480, "pitch": 65, "duration": 6, "velocity": 95}, {"time": 1486, "pitch": 45, "duration": 6, "velocity": 78}, {"time": 1486, "pitch": 57, "duration": 2, "velocity": 60}, {"time": 1492, "pitch": 43, "duration": 21, "velocity": 68}, {"time": 1492, "pitch": 55, "duration": 10, "velocity": 93}, {"time": 1492, "pitch": 58, "duration": 10, "velocity": 96}, {"time": 1492, "pitch": 62, "duration": 8, "velocity": 86}, {"time": 1498, "pitch": 50, "duration": 7, "velocity": 63}, {"time": 1504, "pitch": 58, "duration": 7, "velocity": 107}, {"time": 1504, "pitch": 62, "duration": 8, "velocity": 89}, {"time": 1507, "pitch": 50, "duration": 8, "velocity": 74}, {"time": 1510, "pitch": 55, "duration": 4, "velocity": 90}, {"time": 1516, "pitch": 43, "duration": 18, "velocity": 73}, {"time": 1516, "pitch": 55, "duration": 9, "velocity": 89}, {"time": 1516, "pitch": 58, "duration": 10, "velocity": 100}, {"time": 1516, "pitch": 62, "duration": 8, "velocity": 89}, {"time": 1522, "pitch": 50, "duration": 8, "velocity": 83}, {"time": 1528, "pitch": 58, "duration": 7, "velocity": 117}, {"time": 1528, "pitch": 62, "duration": 7, "velocity": 89}, {"time": 1531, "pitch": 50, "duration": 3, "velocity": 66}, {"time": 1534, "pitch": 55, "duration": 5, "velocity": 99}, {"time": 1540, "pitch": 36, "duration": 24, "velocity": 88}, {"time": 1540, "pitch": 55, "duration": 10, "velocity": 90}, {"time": 1540, "pitch": 60, "duration": 10, "velocity": 97}, {"time": 1540, "pitch": 64, "duration": 10, "velocity": 90}, {"time": 1546, "pitch": 43, "duration": 18, "velocity": 52}, {"time": 1552, "pitch": 60, "duration": 7, "velocity": 107}, {"time": 1552, "pitch": 64, "duration": 7, "velocity": 96}, {"time": 1555, "pitch": 48, "duration": 10, "velocity": 81}, {"time": 1558, "pitch": 55, "duration": 6, "velocity": 97}, {"time": 1564, "pitch": 36, "duration": 1, "velocity": 70}, {"time": 1564, "pitch": 55, "duration": 1, "velocity": 92}, {"time": 1564, "pitch": 60, "duration": 7, "velocity": 93}, {"time": 1564, "pitch": 64, "duration": 7, "velocity": 86}, {"time": 1570, "pitch": 43, "duration": 12, "velocity": 89}, {"time": 1570, "pitch": 60, "duration": 1, "velocity": 102}, {"time": 1570, "pitch": 72, "duration": 4, "velocity": 99}, {"time": 1576, "pitch": 48, "duration": 7, "velocity": 107}, {"time": 1576, "pitch": 62, "duration": 4, "velocity": 102}, {"time": 1576, "pitch": 74, "duration": 4, "velocity": 107}, {"time": 1582, "pitch": 64, "duration": 2, "velocity": 122}, {"time": 1582, "pitch": 76, "duration": 1, "velocity": 93}, {"time": 1588, "pitch": 41, "duration": 20, "velocity": 92}, {"time": 1588, "pitch": 60, "duration": 10, "velocity": 93}, {"time": 1588, "pitch": 65, "duration": 7, "velocity": 90}, {"time": 1588, "pitch": 69, "duration": 7, "velocity": 82}, {"time": 1594, "pitch": 48, "duration": 7, "velocity": 52}, {"time": 1600, "pitch": 53, "duration": 6, "velocity": 99}, {"time": 1600, "pitch": 65, "duration": 7, "velocity": 99}, {"time": 1600, "pitch": 69, "duration": 21, "velocity": 95}, {"time": 1606, "pitch": 48, "duration": 7, "velocity": 46}, {"time": 1606, "pitch": 60, "duration": 16, "velocity": 89}, {"time": 1609, "pitch": 65, "duration": 13, "velocity": 93}, {"time": 1612, "pitch": 41, "duration": 22, "velocity": 88}, {"time": 1618, "pitch": 48, "duration": 8, "velocity": 66}, {"time": 1624, "pitch": 53, "duration": 6, "velocity": 99}, {"time": 1624, "pitch": 65, "duration": 6, "velocity": 93}, {"time": 1624, "pitch": 69, "duration": 5, "velocity": 90}, {"time": 1630, "pitch": 48, "duration": 5, "velocity": 81}, {"time": 1636, "pitch": 38, "duration": 22, "velocity": 85}, {"time": 1642, "pitch": 45, "duration": 8, "velocity": 71}, {"time": 1648, "pitch": 50, "duration": 6, "velocity": 71}, {"time": 1648, "pitch": 62, "duration": 10, "velocity": 93}, {"time": 1648, "pitch": 65, "duration": 11, "velocity": 85}, {"time": 1654, "pitch": 45, "duration": 6, "velocity": 90}, {"time": 1657, "pitch": 57, "duration": 15, "velocity": 89}, {"time": 1660, "pitch": 38, "duration": 18, "velocity": 83}, {"time": 1666, "pitch": 45, "duration": 8, "velocity": 77}, {"time": 1672, "pitch": 50, "duration": 7, "velocity": 86}, {"time": 1672, "pitch": 62, "duration": 6, "velocity": 100}, {"time": 1672, "pitch": 65, "duration": 6, "velocity": 93}, {"time": 1678, "pitch": 45, "duration": 6, "velocity": 71}, {"time": 1678, "pitch": 57, "duration": 4, "velocity": 88}, {"time": 1684, "pitch": 43, "duration": 18, "velocity": 68}, {"time": 1684, "pitch": 55, "duration": 9, "velocity": 90}, {"time": 1684, "pitch": 58, "duration": 10, "velocity": 92}, {"time": 1684, "pitch": 62, "duration": 7, "velocity": 81}, {"time": 1690, "pitch": 50, "duration": 7, "velocity": 97}, {"time": 1696, "pitch": 58, "duration": 7, "velocity": 102}, {"time": 1696, "pitch": 62, "duration": 10, "velocity": 90}, {"time": 1699, "pitch": 50, "duration": 2, "velocity": 93}, {"time": 1702, "pitch": 55, "duration": 5, "velocity": 99}, {"time": 1705, "pitch": 58, "duration": 2, "velocity": 93}, {"time": 1708, "pitch": 36, "duration": 18, "velocity": 83}, {"time": 1708, "pitch": 55, "duration": 11, "velocity": 70}, {"time": 1708, "pitch": 60, "duration": 10, "velocity": 99}, {"time": 1708, "pitch": 64, "duration": 10, "velocity": 95}, {"time": 1714, "pitch": 43, "duration": 7, "velocity": 46}, {"time": 1720, "pitch": 48, "duration": 12, "velocity": 97}, {"time": 1720, "pitch": 60, "duration": 6, "velocity": 102}, {"time": 1720, "pitch": 64, "duration": 6, "velocity": 96}, {"time": 1726, "pitch": 55, "duration": 4, "velocity": 88}, {"time": 1732, "pitch": 41, "duration": 22, "velocity": 86}, {"time": 1732, "pitch": 53, "duration": 5, "velocity": 96}, {"time": 1732, "pitch": 57, "duration": 5, "velocity": 86}, {"time": 1732, "pitch": 60, "duration": 6, "velocity": 82}, {"time": 1738, "pitch": 48, "duration": 9, "velocity": 59}, {"time": 1744, "pitch": 53, "duration": 7, "velocity": 85}, {"time": 1744, "pitch": 60, "duration": 10, "velocity": 100}, {"time": 1744, "pitch": 65, "duration": 10, "velocity": 100}, {"time": 1744, "pitch": 69, "duration": 8, "velocity": 97}, {"time": 1750, "pitch": 48, "duration": 6, "velocity": 97}, {"time": 1756, "pitch": 41, "duration": 23, "velocity": 74}, {"time": 1756, "pitch": 60, "duration": 7, "velocity": 88}, {"time": 1756, "pitch": 65, "duration": 8, "velocity": 76}, {"time": 1756, "pitch": 69, "duration": 8, "velocity": 73}, {"time": 1759, "pitch": 48, "duration": 21, "velocity": 99}, {"time": 1762, "pitch": 53, "duration": 7, "velocity": 97}, {"time": 1765, "pitch": 60, "duration": 5, "velocity": 83}, {"time": 1765, "pitch": 65, "duration": 1, "velocity": 33}, {"time": 1768, "pitch": 65, "duration": 7, "velocity": 97}, {"time": 1768, "pitch": 69, "duration": 8, "velocity": 96}, {"time": 1771, "pitch": 53, "duration": 4, "velocity": 93}, {"time": 1774, "pitch": 60, "duration": 4, "velocity": 85}, {"time": 1777, "pitch": 65, "duration": 1, "velocity": 38}, {"time": 1780, "pitch": 45, "duration": 21, "velocity": 73}, {"time": 1780, "pitch": 57, "duration": 10, "velocity": 92}, {"time": 1780, "pitch": 60, "duration": 8, "velocity": 90}, {"time": 1780, "pitch": 64, "duration": 8, "velocity": 85}, {"time": 1786, "pitch": 52, "duration": 8, "velocity": 86}, {"time": 1792, "pitch": 60, "duration": 7, "velocity": 95}, {"time": 1792, "pitch": 64, "duration": 9, "velocity": 90}, {"time": 1795, "pitch": 52, "duration": 9, "velocity": 86}, {"time": 1798, "pitch": 57, "duration": 16, "velocity": 96}, {"time": 1804, "pitch": 45, "duration": 18, "velocity": 74}, {"time": 1804, "pitch": 60, "duration": 10, "velocity": 90}, {"time": 1804, "pitch": 64, "duration": 8, "velocity": 89}, {"time": 1810, "pitch": 52, "duration": 7, "velocity": 86}, {"time": 1816, "pitch": 60, "duration": 11, "velocity": 99}, {"time": 1816, "pitch": 64, "duration": 7, "velocity": 93}, {"time": 1819, "pitch": 52, "duration": 3, "velocity": 90}, {"time": 1822, "pitch": 57, "duration": 17, "velocity": 112}, {"time": 1828, "pitch": 38, "duration": 20, "velocity": 73}, {"time": 1828, "pitch": 62, "duration": 10, "velocity": 95}, {"time": 1828, "pitch": 65, "duration": 10, "velocity": 93}, {"time": 1834, "pitch": 45, "duration": 7, "velocity": 48}, {"time": 1840, "pitch": 50, "duration": 7, "velocity": 99}, {"time": 1840, "pitch": 62, "duration": 10, "velocity": 100}, {"time": 1840, "pitch": 65, "duration": 10, "velocity": 92}, {"time": 1846, "pitch": 45, "duration": 6, "velocity": 93}, {"time": 1852, "pitch": 38, "duration": 18, "velocity": 73}, {"time": 1852, "pitch": 57, "duration": 11, "velocity": 93}, {"time": 1852, "pitch": 62, "duration": 10, "velocity": 90}, {"time": 1852, "pitch": 65, "duration": 10, "velocity": 81}, {"time": 1858, "pitch": 45, "duration": 8, "velocity": 55}, {"time": 1864, "pitch": 50, "duration": 7, "velocity": 88}, {"time": 1864, "pitch": 62, "duration": 7, "velocity": 97}, {"time": 1864, "pitch": 65, "duration": 6, "velocity": 95}, {"time": 1870, "pitch": 45, "duration": 6, "velocity": 78}, {"time": 1870, "pitch": 57, "duration": 2, "velocity": 60}, {"time": 1876, "pitch": 43, "duration": 21, "velocity": 68}, {"time": 1876, "pitch": 55, "duration": 10, "velocity": 93}, {"time": 1876, "pitch": 58, "duration": 10, "velocity": 96}, {"time": 1876, "pitch": 62, "duration": 8, "velocity": 86}, {"time": 1882, "pitch": 50, "duration": 7, "velocity": 63}, {"time": 1888, "pitch": 58, "duration": 7, "velocity": 107}, {"time": 1888, "pitch": 62, "duration": 8, "velocity": 89}, {"time": 1891, "pitch": 50, "duration": 8, "velocity": 74}, {"time": 1894, "pitch": 55, "duration": 4, "velocity": 90}, {"time": 1900, "pitch": 36, "duration": 24, "velocity": 52}, {"time": 1900, "pitch": 43, "duration": 24, "velocity": 69}, {"time": 1900, "pitch": 48, "duration": 24, "velocity": 83}, {"time": 1900, "pitch": 55, "duration": 24, "velocity": 88}, {"time": 1900, "pitch": 60, "duration": 24, "velocity": 88}, {"time": 1900, "pitch": 64, "duration": 24, "velocity": 82}, {"time": 1924, "pitch": 41, "duration": 48, "velocity": 73}, {"time": 1924, "pitch": 60, "duration": 22, "velocity": 79}, {"time": 1924, "pitch": 65, "duration": 9, "velocity": 79}, {"time": 1924, "pitch": 69, "duration": 12, "velocity": 77}, {"time": 1930, "pitch": 48, "duration": 41, "velocity": 44}, {"time": 1936, "pitch": 67, "duration": 11, "velocity": 92}, {"time": 1942, "pitch": 53, "duration": 9, "velocity": 74}, {"time": 1948, "pitch": 60, "duration": 12, "velocity": 71}, {"time": 1948, "pitch": 65, "duration": 10, "velocity": 70}, {"time": 1948, "pitch": 69, "duration": 10, "velocity": 71}, {"time": 1954, "pitch": 53, "duration": 7, "velocity": 61}, {"time": 1960, "pitch": 65, "duration": 12, "velocity": 88}, {"time": 1960, "pitch": 69, "duration": 12, "velocity": 82}, {"time": 1963, "pitch": 53, "duration": 3, "velocity": 60}, {"time": 1966, "pitch": 60, "duration": 6, "velocity": 86}, {"time": 1972, "pitch": 41, "duration": 46, "velocity": 69}, {"time": 1972, "pitch": 60, "duration": 10, "velocity": 88}, {"time": 1972, "pitch": 65, "duration": 10, "velocity": 72}, {"time": 1972, "pitch": 69, "duration": 7, "velocity": 76}, {"time": 1978, "pitch": 48, "duration": 39, "velocity": 49}, {"time": 1984, "pitch": 60, "duration": 11, "velocity": 85}, {"time": 1984, "pitch": 65, "duration": 10, "velocity": 79}, {"time": 1984, "pitch": 69, "duration": 9, "velocity": 73}, {"time": 1990, "pitch": 53, "duration": 8, "velocity": 34}, {"time": 1996, "pitch": 60, "duration": 23, "velocity": 61}, {"time": 1996, "pitch": 65, "duration": 13, "velocity": 73}, {"time": 2002, "pitch": 53, "duration": 9, "velocity": 62}, {"time": 2008, "pitch": 69, "duration": 11, "velocity": 96}, {"time": 2014, "pitch": 65, "duration": 5, "velocity": 82}, {"time": 2020, "pitch": 45, "duration": 47, "velocity": 72}, {"time": 2020, "pitch": 60, "duration": 11, "velocity": 93}, {"time": 2020, "pitch": 64, "duration": 11, "velocity": 86}, {"time": 2026, "pitch": 52, "duration": 9, "velocity": 53}, {"time": 2032, "pitch": 60, "duration": 10, "velocity": 83}, {"time": 2032, "pitch": 64, "duration": 10, "velocity": 73}, {"time": 2038, "pitch": 52, "duration": 9, "velocity": 54}, {"time": 2044, "pitch": 57, "duration": 10, "velocity": 70}, {"time": 2044, "pitch": 60, "duration": 10, "velocity": 71}, {"time": 2044, "pitch": 64, "duration": 8, "velocity": 69}, {"time": 2050, "pitch": 52, "duration": 9, "velocity": 54}, {"time": 2056, "pitch": 60, "duration": 11, "velocity": 75}, {"time": 2056, "pitch": 64, "duration": 11, "velocity": 72}, {"time": 2062, "pitch": 57, "duration": 5, "velocity": 83}, {"time": 2068, "pitch": 43, "duration": 15, "velocity": 81}, {"time": 2074, "pitch": 50, "duration": 7, "velocity": 60}, {"time": 2080, "pitch": 62, "duration": 12, "velocity": 89}, {"time": 2086, "pitch": 58, "duration": 6, "velocity": 79}, {"time": 2092, "pitch": 36, "duration": 16, "velocity": 76}, {"time": 2098, "pitch": 43, "duration": 10, "velocity": 34}, {"time": 2104, "pitch": 48, "duration": 8, "velocity": 79}, {"time": 2104, "pitch": 64, "duration": 12, "velocity": 86}, {"time": 2110, "pitch": 60, "duration": 7, "velocity": 77}, {"time": 2116, "pitch": 41, "duration": 23, "velocity": 72}, {"time": 2122, "pitch": 48, "duration": 17, "velocity": 40}, {"time": 2128, "pitch": 53, "duration": 10, "velocity": 75}, {"time": 2128, "pitch": 60, "duration": 10, "velocity": 90}, {"time": 2134, "pitch": 57, "duration": 5, "velocity": 89}, {"time": 2140, "pitch": 41, "duration": 1, "velocity": 66}, {"time": 2140, "pitch": 57, "duration": 11, "velocity": 95}, {"time": 2140, "pitch": 60, "duration": 11, "velocity": 100}, {"time": 2140, "pitch": 63, "duration": 11, "velocity": 127}, {"time": 2146, "pitch": 41, "duration": 11, "velocity": 69}, {"time": 2149, "pitch": 48, "duration": 4, "velocity": 56}, {"time": 2152, "pitch": 60, "duration": 7, "velocity": 96}, {"time": 2152, "pitch": 63, "duration": 10, "velocity": 122}, {"time": 2155, "pitch": 48, "duration": 3, "velocity": 85}, {"time": 2158, "pitch": 57, "duration": 6, "velocity": 96}, {"time": 2161, "pitch": 60, "duration": 3, "velocity": 102}, {"time": 2164, "pitch": 46, "duration": 19, "velocity": 97}, {"time": 2167, "pitch": 50, "duration": 16, "velocity": 65}, {"time": 2170, "pitch": 53, "duration": 6, "velocity": 90}, {"time": 2173, "pitch": 58, "duration": 3, "velocity": 93}, {"time": 2176, "pitch": 65, "duration": 8, "velocity": 93}, {"time": 2179, "pitch": 53, "duration": 7, "velocity": 88}, {"time": 2182, "pitch": 58, "duration": 6, "velocity": 99}, {"time": 2185, "pitch": 62, "duration": 4, "velocity": 72}, {"time": 2188, "pitch": 46, "duration": 19, "velocity": 95}, {"time": 2191, "pitch": 50, "duration": 15, "velocity": 64}, {"time": 2194, "pitch": 53, "duration": 7, "velocity": 82}, {"time": 2197, "pitch": 58, "duration": 3, "velocity": 90}, {"time": 2200, "pitch": 65, "duration": 8, "velocity": 82}, {"time": 2203, "pitch": 53, "duration": 5, "velocity": 74}, {"time": 2206, "pitch": 58, "duration": 5, "velocity": 93}, {"time": 2209, "pitch": 62, "duration": 3, "velocity": 78}, {"time": 2212, "pitch": 45, "duration": 21, "velocity": 74}, {"time": 2215, "pitch": 52, "duration": 21, "velocity": 58}, {"time": 2218, "pitch": 57, "duration": 7, "velocity": 82}, {"time": 2221, "pitch": 60, "duration": 7, "velocity": 83}, {"time": 2224, "pitch": 69, "duration": 12, "velocity": 93}, {"time": 2227, "pitch": 57, "duration": 2, "velocity": 86}, {"time": 2230, "pitch": 64, "duration": 6, "velocity": 88}, {"time": 2233, "pitch": 60, "duration": 3, "velocity": 78}, {"time": 2236, "pitch": 38, "duration": 16, "velocity": 77}, {"time": 2239, "pitch": 45, "duration": 13, "velocity": 67}, {"time": 2242, "pitch": 50, "duration": 6, "velocity": 82}, {"time": 2245, "pitch": 57, "duration": 5, "velocity": 86}, {"time": 2248, "pitch": 65, "duration": 11, "velocity": 99}, {"time": 2251, "pitch": 50, "duration": 3, "velocity": 90}, {"time": 2254, "pitch": 62, "duration": 5, "velocity": 83}, {"time": 2257, "pitch": 57, "duration": 3, "velocity": 89}, {"time": 2260, "pitch": 43, "duration": 15, "velocity": 79}, {"time": 2263, "pitch": 50, "duration": 11, "velocity": 66}, {"time": 2266, "pitch": 55, "duration": 4, "velocity": 72}, {"time": 2269, "pitch": 58, "duration": 3, "velocity": 77}, {"time": 2272, "pitch": 62, "duration": 11, "velocity": 86}, {"time": 2278, "pitch": 58, "duration": 5, "velocity": 102}, {"time": 2284, "pitch": 36, "duration": 14, "velocity": 89}, {"time": 2290, "pitch": 43, "duration": 7, "velocity": 40}, {"time": 2296, "pitch": 60, "duration": 12, "velocity": 76}, {"time": 2296, "pitch": 64, "duration": 13, "velocity": 75}, {"time": 2308, "pitch": 41, "duration": 48, "velocity": 78}, {"time": 2314, "pitch": 48, "duration": 42, "velocity": 56}, {"time": 2320, "pitch": 53, "duration": 15, "velocity": 88}, {"time": 2326, "pitch": 55, "duration": 19, "velocity": 66}, {"time": 2332, "pitch": 57, "duration": 17, "velocity": 63}, {"time": 2338, "pitch": 53, "duration": 8, "velocity": 58}, {"time": 2344, "pitch": 60, "duration": 12, "velocity": 86}, {"time": 2350, "pitch": 57, "duration": 6, "velocity": 67}, {"time": 2356, "pitch": 41, "duration": 1, "velocity": 69}, {"time": 2356, "pitch": 65, "duration": 10, "velocity": 75}, {"time": 2356, "pitch": 69, "duration": 7, "velocity": 88}, {"time": 2362, "pitch": 48, "duration": 36, "velocity": 34}, {"time": 2368, "pitch": 60, "duration": 9, "velocity": 78}, {"time": 2368, "pitch": 65, "duration": 8, "velocity": 82}, {"time": 2368, "pitch": 69, "duration": 7, "velocity": 78}, {"time": 2374, "pitch": 53, "duration": 11, "velocity": 66}, {"time": 2380, "pitch": 60, "duration": 10, "velocity": 59}, {"time": 2380, "pitch": 65, "duration": 10, "velocity": 55}, {"time": 2380, "pitch": 69, "duration": 9, "velocity": 59}, {"time": 2392, "pitch": 65, "duration": 6, "velocity": 86}, {"time": 2392, "pitch": 69, "duration": 6, "velocity": 82}, {"time": 2395, "pitch": 53, "duration": 3, "velocity": 50}, {"time": 2398, "pitch": 60, "duration": 3, "velocity": 63}, {"time": 2404, "pitch": 45, "duration": 17, "velocity": 69}, {"time": 2404, "pitch": 57, "duration": 9, "velocity": 65}, {"time": 2404, "pitch": 60, "duration": 9, "velocity": 56}, {"time": 2404, "pitch": 64, "duration": 6, "velocity": 58}, {"time": 2410, "pitch": 52, "duration": 18, "velocity": 45}, {"time": 2416, "pitch": 60, "duration": 19, "velocity": 72}, {"time": 2416, "pitch": 64, "duration": 19, "velocity": 68}, {"time": 2422, "pitch": 57, "duration": 13, "velocity": 75}, {"time": 2428, "pitch": 45, "duration": 15, "velocity": 59}, {"time": 2434, "pitch": 52, "duration": 7, "velocity": 56}, {"time": 2440, "pitch": 60, "duration": 10, "velocity": 86}, {"time": 2440, "pitch": 64, "duration": 6, "velocity": 81}, {"time": 2446, "pitch": 57, "duration": 5, "velocity": 58}, {"time": 2452, "pitch": 38, "duration": 41, "velocity": 66}, {"time": 2452, "pitch": 57, "duration": 11, "velocity": 72}, {"time": 2452, "pitch": 62, "duration": 11, "velocity": 76}, {"time": 2452, "pitch": 65, "duration": 10, "velocity": 79}, {"time": 2458, "pitch": 45, "duration": 36, "velocity": 34}, {"time": 2464, "pitch": 57, "duration": 10, "velocity": 69}, {"time": 2464, "pitch": 62, "duration": 8, "velocity": 64}, {"time": 2464, "pitch": 65, "duration": 8, "velocity": 63}, {"time": 2470, "pitch": 50, "duration": 10, "velocity": 36}, {"time": 2476, "pitch": 57, "duration": 7, "velocity": 47}, {"time": 2476, "pitch": 62, "duration": 7, "velocity": 41}, {"time": 2476, "pitch": 65, "duration": 6, "velocity": 43}, {"time": 2482, "pitch": 50, "duration": 8, "velocity": 38}, {"time": 2488, "pitch": 62, "duration": 7, "velocity": 95}, {"time": 2488, "pitch": 65, "duration": 6, "velocity": 88}, {"time": 2494, "pitch": 57, "duration": 4, "velocity": 52}, {"time": 2500, "pitch": 43, "duration": 45, "velocity": 66}, {"time": 2500, "pitch": 55, "duration": 9, "velocity": 79}, {"time": 2500, "pitch": 58, "duration": 9, "velocity": 64}, {"time": 2500, "pitch": 62, "duration": 6, "velocity": 64}, {"time": 2506, "pitch": 50, "duration": 9, "velocity": 48}, {"time": 2512, "pitch": 55, "duration": 8, "velocity": 53}, {"time": 2512, "pitch": 58, "duration": 7, "velocity": 49}, {"time": 2512, "pitch": 62, "duration": 6, "velocity": 51}, {"time": 2518, "pitch": 50, "duration": 8, "velocity": 32}, {"time": 2524, "pitch": 55, "duration": 7, "velocity": 44}, {"time": 2524, "pitch": 58, "duration": 6, "velocity": 44}, {"time": 2524, "pitch": 62, "duration": 6, "velocity": 49}, {"time": 2530, "pitch": 50, "duration": 7, "velocity": 25}, {"time": 2536, "pitch": 55, "duration": 8, "velocity": 65}, {"time": 2536, "pitch": 58, "duration": 6, "velocity": 81}, {"time": 2536, "pitch": 62, "duration": 6, "velocity": 70}, {"time": 2542, "pitch": 50, "duration": 7, "velocity": 36}, {"time": 2548, "pitch": 45, "duration": 16, "velocity": 57}, {"time": 2548, "pitch": 57, "duration": 9, "velocity": 75}, {"time": 2548, "pitch": 60, "duration": 7, "velocity": 72}, {"time": 2548, "pitch": 64, "duration": 6, "velocity": 71}, {"time": 2554, "pitch": 52, "duration": 9, "velocity": 36}, {"time": 2560, "pitch": 57, "duration": 3, "velocity": 66}, {"time": 2560, "pitch": 60, "duration": 11, "velocity": 72}, {"time": 2560, "pitch": 64, "duration": 7, "velocity": 66}, {"time": 2566, "pitch": 57, "duration": 5, "velocity": 57}, {"time": 2572, "pitch": 38, "duration": 14, "velocity": 65}, {"time": 2572, "pitch": 57, "duration": 11, "velocity": 66}, {"time": 2572, "pitch": 62, "duration": 7, "velocity": 71}, {"time": 2572, "pitch": 65, "duration": 7, "velocity": 68}, {"time": 2578, "pitch": 45, "duration": 9, "velocity": 41}, {"time": 2584, "pitch": 50, "duration": 11, "velocity": 48}, {"time": 2584, "pitch": 62, "duration": 6, "velocity": 76}, {"time": 2584, "pitch": 65, "duration": 6, "velocity": 69}, {"time": 2590, "pitch": 57, "duration": 4, "velocity": 62}, {"time": 2596, "pitch": 43, "duration": 16, "velocity": 65}, {"time": 2596, "pitch": 55, "duration": 10, "velocity": 82}, {"time": 2596, "pitch": 58, "duration": 10, "velocity": 63}, {"time": 2596, "pitch": 62, "duration": 7, "velocity": 59}, {"time": 2608, "pitch": 55, "duration": 7, "velocity": 73}, {"time": 2608, "pitch": 58, "duration": 7, "velocity": 89}, {"time": 2608, "pitch": 62, "duration": 6, "velocity": 66}, {"time": 2614, "pitch": 43, "duration": 6, "velocity": 66}, {"time": 2620, "pitch": 50, "duration": 15, "velocity": 60}, {"time": 2620, "pitch": 57, "duration": 10, "velocity": 72}, {"time": 2620, "pitch": 62, "duration": 10, "velocity": 69}, {"time": 2620, "pitch": 65, "duration": 10, "velocity": 63}, {"time": 2632, "pitch": 57, "duration": 9, "velocity": 66}, {"time": 2632, "pitch": 62, "duration": 5, "velocity": 77}, {"time": 2632, "pitch": 65, "duration": 4, "velocity": 68}, {"time": 2638, "pitch": 50, "duration": 5, "velocity": 52}, {"time": 2644, "pitch": 46, "duration": 15, "velocity": 90}, {"time": 2644, "pitch": 58, "duration": 10, "velocity": 100}, {"time": 2644, "pitch": 62, "duration": 9, "velocity": 79}, {"time": 2644, "pitch": 65, "duration": 7, "velocity": 72}, {"time": 2656, "pitch": 58, "duration": 10, "velocity": 90}, {"time": 2656, "pitch": 62, "duration": 7, "velocity": 75}, {"time": 2656, "pitch": 65, "duration": 6, "velocity": 67}, {"time": 2662, "pitch": 46, "duration": 6, "velocity": 65}, {"time": 2668, "pitch": 48, "duration": 17, "velocity": 81}, {"time": 2668, "pitch": 55, "duration": 10, "velocity": 82}, {"time": 2668, "pitch": 60, "duration": 10, "velocity": 81}, {"time": 2668, "pitch": 64, "duration": 10, "velocity": 79}, {"time": 2680, "pitch": 55, "duration": 12, "velocity": 90}, {"time": 2680, "pitch": 60, "duration": 12, "velocity": 92}, {"time": 2680, "pitch": 64, "duration": 12, "velocity": 89}, {"time": 2686, "pitch": 48, "duration": 6, "velocity": 83}, {"time": 2692, "pitch": 41, "duration": 48, "velocity": 86}, {"time": 2692, "pitch": 60, "duration": 10, "velocity": 96}, {"time": 2692, "pitch": 65, "duration": 10, "velocity": 93}, {"time": 2692, "pitch": 69, "duration": 8, "velocity": 82}, {"time": 2698, "pitch": 48, "duration": 8, "velocity": 62}, {"time": 2704, "pitch": 53, "duration": 14, "velocity": 79}, {"time": 2704, "pitch": 60, "duration": 8, "velocity": 90}, {"time": 2704, "pitch": 65, "duration": 7, "velocity": 86}, {"time": 2704, "pitch": 69, "duration": 7, "velocity": 76}, {"time": 2710, "pitch": 48, "duration": 30, "velocity": 39}, {"time": 2713, "pitch": 65, "duration": 1, "velocity": 38}, {"time": 2716, "pitch": 60, "duration": 7, "velocity": 102}, {"time": 2716, "pitch": 65, "duration": 7, "velocity": 93}, {"time": 2716, "pitch": 69, "duration": 7, "velocity": 89}, {"time": 2722, "pitch": 53, "duration": 7, "velocity": 90}, {"time": 2725, "pitch": 60, "duration": 2, "velocity": 89}, {"time": 2725, "pitch": 65, "duration": 2, "velocity": 92}, {"time": 2725, "pitch": 69, "duration": 2, "velocity": 85}, {"time": 2728, "pitch": 60, "duration": 4, "velocity": 100}, {"time": 2728, "pitch": 65, "duration": 4, "velocity": 99}, {"time": 2728, "pitch": 69, "duration": 4, "velocity": 95}, {"time": 2734, "pitch": 53, "duration": 4, "velocity": 66}, {"time": 2734, "pitch": 60, "duration": 6, "velocity": 99}, {"time": 2734, "pitch": 65, "duration": 6, "velocity": 95}, {"time": 2734, "pitch": 69, "duration": 6, "velocity": 97}, {"time": 2740, "pitch": 41, "duration": 20, "velocity": 92}, {"time": 2740, "pitch": 60, "duration": 10, "velocity": 93}, {"time": 2740, "pitch": 65, "duration": 7, "velocity": 90}, {"time": 2740, "pitch": 69, "duration": 7, "velocity": 82}, {"time": 2746, "pitch": 48, "duration": 7, "velocity": 52}, {"time": 2752, "pitch": 53, "duration": 6, "velocity": 99}, {"time": 2752, "pitch": 65, "duration": 7, "velocity": 99}, {"time": 2752, "pitch": 69, "duration": 21, "velocity": 95}, {"time": 2758, "pitch": 48, "duration": 7, "velocity": 46}, {"time": 2758, "pitch": 60, "duration": 16, "velocity": 89}, {"time": 2761, "pitch": 65, "duration": 13, "velocity": 93}, {"time": 2764, "pitch": 41, "duration": 22, "velocity": 88}, {"time": 2770, "pitch": 48, "duration": 8, "velocity": 66}, {"time": 2776, "pitch": 53, "duration": 6, "velocity": 99}, {"time": 2776, "pitch": 65, "duration": 6, "velocity": 93}, {"time": 2776, "pitch": 69, "duration": 5, "velocity": 90}, {"time": 2782, "pitch": 48, "duration": 5, "velocity": 81}, {"time": 2788, "pitch": 38, "duration": 22, "velocity": 85}, {"time": 2794, "pitch": 45, "duration": 8, "velocity": 71}, {"time": 2800, "pitch": 50, "duration": 6, "velocity": 71}, {"time": 2800, "pitch": 62, "duration": 10, "velocity": 93}, {"time": 2800, "pitch": 65, "duration": 11, "velocity": 85}, {"time": 2806, "pitch": 45, "duration": 6, "velocity": 90}, {"time": 2809, "pitch": 57, "duration": 15, "velocity": 89}, {"time": 2812, "pitch": 38, "duration": 18, "velocity": 83}, {"time": 2818, "pitch": 45, "duration": 8, "velocity": 77}, {"time": 2824, "pitch": 50, "duration": 7, "velocity": 86}, {"time": 2824, "pitch": 62, "duration": 6, "velocity": 100}, {"time": 2824, "pitch": 65, "duration": 6, "velocity": 93}, {"time": 2830, "pitch": 45, "duration": 6, "velocity": 71}, {"time": 2830, "pitch": 57, "duration": 4, "velocity": 88}, {"time": 2836, "pitch": 43, "duration": 18, "velocity": 68}, {"time": 2836, "pitch": 55, "duration": 9, "velocity": 90}, {"time": 2836, "pitch": 58, "duration": 10, "velocity": 92}, {"time": 2836, "pitch": 62, "duration": 7, "velocity": 81}, {"time": 2842, "pitch": 50, "duration": 7, "velocity": 97}, {"time": 2848, "pitch": 58, "duration": 7, "velocity": 102}, {"time": 2848, "pitch": 62, "duration": 10, "velocity": 90}, {"time": 2851, "pitch": 50, "duration": 2, "velocity": 93}, {"time": 2854, "pitch": 55, "duration": 5, "velocity": 99}, {"time": 2857, "pitch": 58, "duration": 2, "velocity": 93}, {"time": 2860, "pitch": 36, "duration": 18, "velocity": 83}, {"time": 2860, "pitch": 55, "duration": 11, "velocity": 70}, {"time": 2860, "pitch": 60, "duration": 10, "velocity": 99}, {"time": 2860, "pitch": 64, "duration": 10, "velocity": 95}, {"time": 2866, "pitch": 43, "duration": 7, "velocity": 46}, {"time": 2872, "pitch": 48, "duration": 12, "velocity": 97}, {"time": 2872, "pitch": 60, "duration": 6, "velocity": 102}, {"time": 2872, "pitch": 64, "duration": 6, "velocity": 96}, {"time": 2878, "pitch": 55, "duration": 4, "velocity": 88}, {"time": 2884, "pitch": 41, "duration": 22, "velocity": 86}, {"time": 2884, "pitch": 53, "duration": 5, "velocity": 96}, {"time": 2884, "pitch": 57, "duration": 5, "velocity": 86}, {"time": 2884, "pitch": 60, "duration": 6, "velocity": 82}, {"time": 2890, "pitch": 48, "duration": 9, "velocity": 59}, {"time": 2896, "pitch": 53, "duration": 7, "velocity": 85}, {"time": 2896, "pitch": 60, "duration": 10, "velocity": 100}, {"time": 2896, "pitch": 65, "duration": 10, "velocity": 100}, {"time": 2896, "pitch": 69, "duration": 8, "velocity": 97}, {"time": 2902, "pitch": 48, "duration": 6, "velocity": 97}, {"time": 2908, "pitch": 41, "duration": 23, "velocity": 74}, {"time": 2908, "pitch": 60, "duration": 7, "velocity": 88}, {"time": 2908, "pitch": 65, "duration": 8, "velocity": 76}, {"time": 2908, "pitch": 69, "duration": 8, "velocity": 73}, {"time": 2911, "pitch": 48, "duration": 21, "velocity": 99}, {"time": 2914, "pitch": 53, "duration": 7, "velocity": 97}, {"time": 2917, "pitch": 60, "duration": 5, "velocity": 83}, {"time": 2917, "pitch": 65, "duration": 1, "velocity": 33}, {"time": 2920, "pitch": 65, "duration": 7, "velocity": 97}, {"time": 2920, "pitch": 69, "duration": 8, "velocity": 96}, {"time": 2923, "pitch": 53, "duration": 4, "velocity": 93}, {"time": 2926, "pitch": 60, "duration": 4, "velocity": 85}, {"time": 2929, "pitch": 65, "duration": 1, "velocity": 38}, {"time": 2932, "pitch": 45, "duration": 21, "velocity": 73}, {"time": 2932, "pitch": 57, "duration": 10, "velocity": 92}, {"time": 2932, "pitch": 60, "duration": 8, "velocity": 90}, {"time": 2932, "pitch": 64, "duration": 8, "velocity": 85}, {"time": 2938, "pitch": 52, "duration": 8, "velocity": 86}, {"time": 2944, "pitch": 60, "duration": 7, "velocity": 95}, {"time": 2944, "pitch": 64, "duration": 9, "velocity": 90}, {"time": 2947, "pitch": 52, "duration": 9, "velocity": 86}, {"time": 2950, "pitch": 57, "duration": 16, "velocity": 96}, {"time": 2956, "pitch": 45, "duration": 18, "velocity": 74}, {"time": 2956, "pitch": 60, "duration": 10, "velocity": 90}, {"time": 2956, "pitch": 64, "duration": 8, "velocity": 89}, {"time": 2962, "pitch": 52, "duration": 7, "velocity": 86}, {"time": 2968, "pitch": 60, "duration": 11, "velocity": 99}, {"time": 2968, "pitch": 64, "duration": 7, "velocity": 93}, {"time": 2971, "pitch": 52, "duration": 3, "velocity": 90}, {"time": 2974, "pitch": 57, "duration": 17, "velocity": 112}, {"time": 2980, "pitch": 38, "duration": 20, "velocity": 73}, {"time": 2980, "pitch": 62, "duration": 10, "velocity": 95}, {"time": 2980, "pitch": 65, "duration": 10, "velocity": 93}, {"time": 2986, "pitch": 45, "duration": 7, "velocity": 48}, {"time": 2992, "pitch": 50, "duration": 7, "velocity": 99}, {"time": 2992, "pitch": 62, "duration": 10, "velocity": 100}, {"time": 2992, "pitch": 65, "duration": 10, "velocity": 92}, {"time": 2998, "pitch": 45, "duration": 6, "velocity": 93}, {"time": 3004, "pitch": 38, "duration": 18, "velocity": 73}, {"time": 3004, "pitch": 57, "duration": 11, "velocity": 93}, {"time": 3004, "pitch": 62, "duration": 10, "velocity": 90}, {"time": 3004, "pitch": 65, "duration": 10, "velocity": 81}, {"time": 3010, "pitch": 45, "duration": 8, "velocity": 55}, {"time": 3016, "pitch": 50, "duration": 7, "velocity": 88}, {"time": 3016, "pitch": 62, "duration": 7, "velocity": 97}, {"time": 3016, "pitch": 65, "duration": 6, "velocity": 95}, {"time": 3022, "pitch": 45, "duration": 6, "velocity": 78}, {"time": 3022, "pitch": 57, "duration": 2, "velocity": 60}, {"time": 3028, "pitch": 43, "duration": 21, "velocity": 68}, {"time": 3028, "pitch": 55, "duration": 10, "velocity": 93}, {"time": 3028, "pitch": 58, "duration": 10, "velocity": 96}, {"time": 3028, "pitch": 62, "duration": 8, "velocity": 86}, {"time": 3034, "pitch": 50, "duration": 7, "velocity": 63}, {"time": 3040, "pitch": 58, "duration": 7, "velocity": 107}, {"time": 3040, "pitch": 62, "duration": 8, "velocity": 89}, {"time": 3043, "pitch": 50, "duration": 8, "velocity": 74}, {"time": 3046, "pitch": 55, "duration": 4, "velocity": 90}, {"time": 3052, "pitch": 43, "duration": 18, "velocity": 73}, {"time": 3052, "pitch": 55, "duration": 9, "velocity": 89}, {"time": 3052, "pitch": 58, "duration": 10, "velocity": 100}, {"time": 3052, "pitch": 62, "duration": 8, "velocity": 89}, {"time": 3058, "pitch": 50, "duration": 8, "velocity": 83}, {"time": 3064, "pitch": 58, "duration": 7, "velocity": 117}, {"time": 3064, "pitch": 62, "duration": 7, "velocity": 89}, {"time": 3067, "pitch": 50, "duration": 3, "velocity": 66}, {"time": 3070, "pitch": 55, "duration": 5, "velocity": 99}, {"time": 3076, "pitch": 36, "duration": 24, "velocity": 88}, {"time": 3076, "pitch": 55, "duration": 10, "velocity": 90}, {"time": 3076, "pitch": 60, "duration": 10, "velocity": 97}, {"time": 3076, "pitch": 64, "duration": 10, "velocity": 90}, {"time": 3082, "pitch": 43, "duration": 18, "velocity": 52}, {"time": 3088, "pitch": 60, "duration": 7, "velocity": 107}, {"time": 3088, "pitch": 64, "duration": 7, "velocity": 96}, {"time": 3091, "pitch": 48, "duration": 10, "velocity": 81}, {"time": 3094, "pitch": 55, "duration": 6, "velocity": 97}, {"time": 3100, "pitch": 36, "duration": 1, "velocity": 70}, {"time": 3100, "pitch": 55, "duration": 1, "velocity": 92}, {"time": 3100, "pitch": 60, "duration": 7, "velocity": 93}, {"time": 3100, "pitch": 64, "duration": 7, "velocity": 86}, {"time": 3106, "pitch": 43, "duration": 12, "velocity": 89}, {"time": 3106, "pitch": 60, "duration": 1, "velocity": 102}, {"time": 3106, "pitch": 72, "duration": 4, "velocity": 99}, {"time": 3112, "pitch": 48, "duration": 7, "velocity": 107}, {"time": 3112, "pitch": 62, "duration": 4, "velocity": 102}, {"time": 3112, "pitch": 74, "duration": 4, "velocity": 107}, {"time": 3118, "pitch": 64, "duration": 2, "velocity": 122}, {"time": 3118, "pitch": 76, "duration": 1, "velocity": 93}, {"time": 3124, "pitch": 41, "duration": 20, "velocity": 92}, {"time": 3124, "pitch": 60, "duration": 10, "velocity": 93}, {"time": 3124, "pitch": 65, "duration": 7, "velocity": 90}, {"time": 3124, "pitch": 69, "duration": 7, "velocity": 82}, {"time": 3130, "pitch": 48, "duration": 7, "velocity": 52}, {"time": 3136, "pitch": 53, "duration": 6, "velocity": 99}, {"time": 3136, "pitch": 65, "duration": 7, "velocity": 99}, {"time": 3136, "pitch": 69, "duration": 21, "velocity": 95}, {"time": 3142, "pitch": 48, "duration": 7, "velocity": 46}, {"time": 3142, "pitch": 60, "duration": 16, "velocity": 89}, {"time": 3145, "pitch": 65, "duration": 13, "velocity": 93}, {"time": 3148, "pitch": 41, "duration": 22, "velocity": 88}, {"time": 3154, "pitch": 48, "duration": 8, "velocity": 66}, {"time": 3160, "pitch": 53, "duration": 6, "velocity": 99}, {"time": 3160, "pitch": 65, "duration": 6, "velocity": 93}, {"time": 3160, "pitch": 69, "duration": 5, "velocity": 90}, {"time": 3166, "pitch": 48, "duration": 5, "velocity": 81}, {"time": 3172, "pitch": 38, "duration": 22, "velocity": 85}, {"time": 3178, "pitch": 45, "duration": 8, "velocity": 71}, {"time": 3184, "pitch": 50, "duration": 6, "velocity": 71}, {"time": 3184, "pitch": 62, "duration": 10, "velocity": 93}, {"time": 3184, "pitch": 65, "duration": 11, "velocity": 85}, {"time": 3190, "pitch": 45, "duration": 6, "velocity": 90}, {"time": 3193, "pitch": 57, "duration": 15, "velocity": 89}, {"time": 3196, "pitch": 38, "duration": 18, "velocity": 83}, {"time": 3202, "pitch": 45, "duration": 8, "velocity": 77}, {"time": 3208, "pitch": 50, "duration": 7, "velocity": 86}, {"time": 3208, "pitch": 62, "duration": 6, "velocity": 100}, {"time": 3208, "pitch": 65, "duration": 6, "velocity": 93}, {"time": 3214, "pitch": 45, "duration": 6, "velocity": 71}, {"time": 3214, "pitch": 57, "duration": 4, "velocity": 88}, {"time": 3220, "pitch": 43, "duration": 18, "velocity": 68}, {"time": 3220, "pitch": 55, "duration": 9, "velocity": 90}, {"time": 3220, "pitch": 58, "duration": 10, "velocity": 92}, {"time": 3220, "pitch": 62, "duration": 7, "velocity": 81}, {"time": 3226, "pitch": 50, "duration": 7, "velocity": 97}, {"time": 3232, "pitch": 58, "duration": 7, "velocity": 102}, {"time": 3232, "pitch": 62, "duration": 10, "velocity": 90}, {"time": 3235, "pitch": 50, "duration": 2, "velocity": 93}, {"time": 3238, "pitch": 55, "duration": 5, "velocity": 99}, {"time": 3241, "pitch": 58, "duration": 2, "velocity": 93}, {"time": 3244, "pitch": 36, "duration": 18, "velocity": 83}, {"time": 3244, "pitch": 55, "duration": 11, "velocity": 70}, {"time": 3244, "pitch": 60, "duration": 10, "velocity": 99}, {"time": 3244, "pitch": 64, "duration": 10, "velocity": 95}, {"time": 3250, "pitch": 43, "duration": 7, "velocity": 46}, {"time": 3256, "pitch": 48, "duration": 12, "velocity": 97}, {"time": 3256, "pitch": 60, "duration": 6, "velocity": 102}, {"time": 3256, "pitch": 64, "duration": 6, "velocity": 96}, {"time": 3262, "pitch": 55, "duration": 4, "velocity": 88}, {"time": 3268, "pitch": 41, "duration": 22, "velocity": 86}, {"time": 3268, "pitch": 53, "duration": 5, "velocity": 96}, {"time": 3268, "pitch": 57, "duration": 5, "velocity": 86}, {"time": 3268, "pitch": 60, "duration": 6, "velocity": 82}, {"time": 3274, "pitch": 48, "duration": 9, "velocity": 59}, {"time": 3280, "pitch": 53, "duration": 7, "velocity": 85}, {"time": 3280, "pitch": 60, "duration": 10, "velocity": 100}, {"time": 3280, "pitch": 65, "duration": 10, "velocity": 100}, {"time": 3280, "pitch": 69, "duration": 8, "velocity": 97}, {"time": 3286, "pitch": 48, "duration": 6, "velocity": 97}, {"time": 3292, "pitch": 41, "duration": 23, "velocity": 74}, {"time": 3292, "pitch": 60, "duration": 7, "velocity": 88}, {"time": 3292, "pitch": 65, "duration": 8, "velocity": 76}, {"time": 3292, "pitch": 69, "duration": 8, "velocity": 73}, {"time": 3295, "pitch": 48, "duration": 21, "velocity": 99}, {"time": 3298, "pitch": 53, "duration": 7, "velocity": 97}, {"time": 3301, "pitch": 60, "duration": 5, "velocity": 83}, {"time": 3301, "pitch": 65, "duration": 1, "velocity": 33}, {"time": 3304, "pitch": 65, "duration": 7, "velocity": 97}, {"time": 3304, "pitch": 69, "duration": 8, "velocity": 96}, {"time": 3307, "pitch": 53, "duration": 4, "velocity": 93}, {"time": 3310, "pitch": 60, "duration": 4, "velocity": 85}, {"time": 3313, "pitch": 65, "duration": 1, "velocity": 38}, {"time": 3316, "pitch": 45, "duration": 21, "velocity": 73}, {"time": 3316, "pitch": 57, "duration": 10, "velocity": 92}, {"time": 3316, "pitch": 60, "duration": 8, "velocity": 90}, {"time": 3316, "pitch": 64, "duration": 8, "velocity": 85}, {"time": 3322, "pitch": 52, "duration": 8, "velocity": 86}, {"time": 3328, "pitch": 60, "duration": 7, "velocity": 95}, {"time": 3328, "pitch": 64, "duration": 9, "velocity": 90}, {"time": 3331, "pitch": 52, "duration": 9, "velocity": 86}, {"time": 3334, "pitch": 57, "duration": 16, "velocity": 96}, {"time": 3340, "pitch": 45, "duration": 18, "velocity": 74}, {"time": 3340, "pitch": 60, "duration": 10, "velocity": 90}, {"time": 3340, "pitch": 64, "duration": 8, "velocity": 89}, {"time": 3346, "pitch": 52, "duration": 7, "velocity": 86}, {"time": 3352, "pitch": 60, "duration": 11, "velocity": 99}, {"time": 3352, "pitch": 64, "duration": 7, "velocity": 93}, {"time": 3355, "pitch": 52, "duration": 3, "velocity": 90}, {"time": 3358, "pitch": 57, "duration": 17, "velocity": 112}, {"time": 3364, "pitch": 38, "duration": 20, "velocity": 73}, {"time": 3364, "pitch": 62, "duration": 10, "velocity": 95}, {"time": 3364, "pitch": 65, "duration": 10, "velocity": 93}, {"time": 3370, "pitch": 45, "duration": 7, "velocity": 48}, {"time": 3376, "pitch": 50, "duration": 7, "velocity": 99}, {"time": 3376, "pitch": 62, "duration": 10, "velocity": 100}, {"time": 3376, "pitch": 65, "duration": 10, "velocity": 92}, {"time": 3382, "pitch": 45, "duration": 6, "velocity": 93}, {"time": 3388, "pitch": 38, "duration": 18, "velocity": 73}, {"time": 3388, "pitch": 57, "duration": 11, "velocity": 93}, {"time": 3388, "pitch": 62, "duration": 10, "velocity": 90}, {"time": 3388, "pitch": 65, "duration": 10, "velocity": 81}, {"time": 3394, "pitch": 45, "duration": 8, "velocity": 55}, {"time": 3400, "pitch": 50, "duration": 7, "velocity": 88}, {"time": 3400, "pitch": 62, "duration": 7, "velocity": 97}, {"time": 3400, "pitch": 65, "duration": 6, "velocity": 95}, {"time": 3406, "pitch": 45, "duration": 6, "velocity": 78}, {"time": 3406, "pitch": 57, "duration": 2, "velocity": 60}, {"time": 3412, "pitch": 43, "duration": 21, "velocity": 68}, {"time": 3412, "pitch": 55, "duration": 10, "velocity": 93}, {"time": 3412, "pitch": 58, "duration": 10, "velocity": 96}, {"time": 3412, "pitch": 62, "duration": 8, "velocity": 86}, {"time": 3418, "pitch": 50, "duration": 7, "velocity": 63}, {"time": 3424, "pitch": 58, "duration": 7, "velocity": 107}, {"time": 3424, "pitch": 62, "duration": 8, "velocity": 89}, {"time": 3427, "pitch": 50, "duration": 8, "velocity": 74}, {"time": 3430, "pitch": 55, "duration": 4, "velocity": 90}, {"time": 3436, "pitch": 36, "duration": 15, "velocity": 52}, {"time": 3436, "pitch": 36, "duration": 15, "velocity": 88}, {"time": 3436, "pitch": 43, "duration": 24, "velocity": 69}, {"time": 3436, "pitch": 48, "duration": 24, "velocity": 83}, {"time": 3436, "pitch": 55, "duration": 17, "velocity": 88}, {"time": 3436, "pitch": 55, "duration": 17, "velocity": 99}, {"time": 3436, "pitch": 60, "duration": 17, "velocity": 88}, {"time": 3436, "pitch": 60, "duration": 17, "velocity": 99}, {"time": 3436, "pitch": 64, "duration": 18, "velocity": 82}, {"time": 3436, "pitch": 64, "duration": 18, "velocity": 95}, {"time": 3460, "pitch": 41, "duration": 48, "velocity": 73}, {"time": 3460, "pitch": 60, "duration": 22, "velocity": 79}, {"time": 3460, "pitch": 65, "duration": 9, "velocity": 79}, {"time": 3460, "pitch": 69, "duration": 12, "velocity": 77}, {"time": 3466, "pitch": 48, "duration": 41, "velocity": 44}, {"time": 3472, "pitch": 67, "duration": 11, "velocity": 92}, {"time": 3478, "pitch": 53, "duration": 9, "velocity": 74}, {"time": 3484, "pitch": 60, "duration": 12, "velocity": 71}, {"time": 3484, "pitch": 65, "duration": 10, "velocity": 70}, {"time": 3484, "pitch": 69, "duration": 10, "velocity": 71}, {"time": 3490, "pitch": 53, "duration": 7, "velocity": 61}, {"time": 3496, "pitch": 65, "duration": 12, "velocity": 88}, {"time": 3496, "pitch": 69, "duration": 12, "velocity": 82}, {"time": 3499, "pitch": 53, "duration": 3, "velocity": 60}, {"time": 3502, "pitch": 60, "duration": 6, "velocity": 86}, {"time": 3505, "pitch": 43, "duration": 18, "velocity": 41}, {"time": 3505, "pitch": 50, "duration": 16, "velocity": 53}, {"time": 3505, "pitch": 62, "duration": 17, "velocity": 66}, {"time": 3508, "pitch": 55, "duration": 18, "velocity": 40}, {"time": 3508, "pitch": 66, "duration": 5, "velocity": 43}, {"time": 3508, "pitch": 67, "duration": 16, "velocity": 69}, {"time": 3508, "pitch": 70, "duration": 15, "velocity": 89}, {"time": 3532, "pitch": 48, "duration": 69, "velocity": 19}, {"time": 3532, "pitch": 55, "duration": 66, "velocity": 35}, {"time": 3532, "pitch": 60, "duration": 62, "velocity": 45}, {"time": 3532, "pitch": 67, "duration": 65, "velocity": 67}, {"time": 3535, "pitch": 72, "duration": 65, "velocity": 81}, {"time": 3535, "pitch": 76, "duration": 64, "velocity": 75}, {"time": 3601, "pitch": 69, "duration": 8, "velocity": 51}, {"time": 3601, "pitch": 72, "duration": 9, "velocity": 36}, {"time": 3604, "pitch": 41, "duration": 110, "velocity": 90}, {"time": 3604, "pitch": 65, "duration": 7, "velocity": 56}, {"time": 3604, "pitch": 67, "duration": 7, "velocity": 48}, {"time": 3610, "pitch": 48, "duration": 102, "velocity": 62}, {"time": 3616, "pitch": 53, "duration": 96, "velocity": 63}, {"time": 3622, "pitch": 55, "duration": 12, "velocity": 58}, {"time": 3628, "pitch": 57, "duration": 6, "velocity": 62}, {"time": 3634, "pitch": 60, "duration": 2, "velocity": 72}, {"time": 3640, "pitch": 65, "duration": 8, "velocity": 73}, {"time": 3649, "pitch": 67, "duration": 7, "velocity": 55}, {"time": 3655, "pitch": 69, "duration": 2, "velocity": 61}, {"time": 3661, "pitch": 77, "duration": 9, "velocity": 73}, {"time": 3667, "pitch": 79, "duration": 9, "velocity": 66}, {"time": 3676, "pitch": 81, "duration": 8, "velocity": 59}, {"time": 3682, "pitch": 84, "duration": 2, "velocity": 52}, {"time": 3691, "pitch": 89, "duration": 21, "velocity": 31}, {"time": 3691, "pitch": 91, "duration": 20, "velocity": 45}, {"time": 3694, "pitch": 93, "duration": 19, "velocity": 40}, {"time": 3694, "pitch": 96, "duration": 18, "velocity": 47}], "annotations": [{"time": 53, "annotation": {"number": 64, "value": 127}, "group": "control_change"}, {"time": 98, "annotation": {"number": 64, "value": 0}, "group": "control_change"}, {"time": 100, "annotation": {"number": 64, "value": 127}, "group": "control_change"}, {"time": 148, "annotation": {"number": 64, "value": 127}, "group": "control_change"}, {"time": 169, "annotation": {"number": 64, "value": 0}, "group": "control_change"}, {"time": 172, "annotation": {"number": 64, "value": 127}, "group": "control_change"}, {"time": 194, "annotation": {"number": 64, "value": 0}, "group": "control_change"}, {"time": 196, "annotation": {"number": 64, "value": 127}, "group": "control_change"}, {"time": 242, "annotation": {"number": 64, "value": 0}, "group": "control_change"}, {"time": 244, "annotation": {"number": 64, "value": 127}, "group": "control_change"}, {"time": 290, "annotation": {"number": 64, "value": 0}, "group": "control_change"}, {"time": 292, "annotation": {"number": 64, "value": 127}, "group": "control_change"}, {"time": 337, "annotation": {"number": 64, "value": 0}, "group": "control_change"}, {"time": 340, "annotation": {"number": 64, "value": 127}, "group": "control_change"}, {"time": 361, "annotation": {"number": 64, "value": 0}, "group": "control_change"}, {"time": 364, "annotation": {"number": 64, "value": 127}, "group": "control_change"}, {"time": 386, "annotation": {"number": 64, "value": 0}, "group": "control_change"}, {"time": 388, "annotation": {"number": 64, "value": 127}, "group": "control_change"}, {"time": 433, "annotation": {"number": 64, "value": 0}, "group": "control_change"}, {"time": 436, "annotation": {"number": 64, "value": 127}, "group": "control_change"}, {"time": 481, "annotation": {"number": 64, "value": 0}, "group": "control_change"}, {"time": 484, "annotation": {"number": 64, "value": 127}, "group": "control_change"}, {"time": 529, "annotation": {"number": 64, "value": 0}, "group": "control_change"}, {"time": 532, "annotation": {"number": 64, "value": 127}, "group": "control_change"}, {"time": 578, "annotation": {"number": 64, "value": 0}, "group": "control_change"}, {"time": 580, "annotation": {"number": 64, "value": 127}, "group": "control_change"}, {"time": 625, "annotation": {"number": 64, "value": 0}, "group": "control_change"}, {"time": 628, "annotation": {"number": 64, "value": 127}, "group": "control_change"}, {"time": 649, "annotation": {"number": 64, "value": 0}, "group": "control_change"}, {"time": 652, "annotation": {"number": 64, "value": 127}, "group": "control_change"}, {"time": 674, "annotation": {"number": 64, "value": 0}, "group": "control_change"}, {"time": 676, "annotation": {"number": 64, "value": 127}, "group": "control_change"}, {"time": 697, "annotation": {"number": 64, "value": 0}, "group": "control_change"}, {"time": 701, "annotation": {"number": 64, "value": 127}, "group": "control_change"}, {"time": 721, "annotation": {"number": 64, "value": 0}, "group": "control_change"}, {"time": 724, "annotation": {"number": 64, "value": 127}, "group": "control_change"}, {"time": 745, "annotation": {"number": 64, "value": 0}, "group": "control_change"}, {"time": 748, "annotation": {"number": 64, "value": 127}, "group": "control_change"}, {"time": 769, "annotation": {"number": 64, "value": 0}, "group": "control_change"}, {"time": 772, "annotation": {"number": 64, "value": 127}, "group": "control_change"}, {"time": 794, "annotation": {"number": 64, "value": 0}, "group": "control_change"}, {"time": 796, "annotation": {"number": 64, "value": 127}, "group": "control_change"}, {"time": 816, "annotation": {"number": 64, "value": 0}, "group": "control_change"}, {"time": 865, "annotation": {"number": 64, "value": 0}, "group": "control_change"}, {"time": 868, "annotation": {"number": 64, "value": 127}, "group": "control_change"}, {"time": 888, "annotation": {"number": 64, "value": 0}, "group": "control_change"}, {"time": 892, "annotation": {"number": 64, "value": 127}, "group": "control_change"}, {"time": 912, "annotation": {"number": 64, "value": 0}, "group": "control_change"}, {"time": 915, "annotation": {"number": 64, "value": 127}, "group": "control_change"}, {"time": 937, "annotation": {"number": 64, "value": 0}, "group": "control_change"}, {"time": 940, "annotation": {"number": 64, "value": 127}, "group": "control_change"}, {"time": 961, "annotation": {"number": 64, "value": 0}, "group": "control_change"}, {"time": 964, "annotation": {"number": 64, "value": 127}, "group": "control_change"}, {"time": 1009, "annotation": {"number": 64, "value": 0}, "group": "control_change"}, {"time": 1011, "annotation": {"number": 64, "value": 127}, "group": "control_change"}, {"time": 1033, "annotation": {"number": 64, "value": 0}, "group": "control_change"}, {"time": 1036, "annotation": {"number": 64, "value": 127}, "group": "control_change"}, {"time": 1057, "annotation": {"number": 64, "value": 0}, "group": "control_change"}, {"time": 1059, "annotation": {"number": 64, "value": 127}, "group": "control_change"}, {"time": 1082, "annotation": {"number": 64, "value": 0}, "group": "control_change"}, {"time": 1085, "annotation": {"number": 64, "value": 127}, "group": "control_change"}, {"time": 1104, "annotation": {"number": 64, "value": 0}, "group": "control_change"}, {"time": 1108, "annotation": {"number": 64, "value": 127}, "group": "control_change"}, {"time": 1129, "annotation": {"number": 64, "value": 0}, "group": "control_change"}, {"time": 1132, "annotation": {"number": 64, "value": 127}, "group": "control_change"}, {"time": 1152, "annotation": {"number": 64, "value": 0}, "group": "control_change"}, {"time": 1155, "annotation": {"number": 64, "value": 127}, "group": "control_change"}, {"time": 1200, "annotation": {"number": 64, "value": 0}, "group": "control_change"}, {"time": 1587, "annotation": {"number": 64, "value": 0}, "group": "control_change"}, {"time": 1588, "annotation": {"number": 64, "value": 127}, "group": "control_change"}, {"time": 1968, "annotation": {"number": 64, "value": 0}, "group": "control_change"}, {"time": 1972, "annotation": {"number": 64, "value": 127}, "group": "control_change"}, {"time": 2017, "annotation": {"number": 64, "value": 0}, "group": "control_change"}, {"time": 2090, "annotation": {"number": 64, "value": 0}, "group": "control_change"}, {"time": 2092, "annotation": {"number": 64, "value": 127}, "group": "control_change"}, {"time": 2114, "annotation": {"number": 64, "value": 0}, "group": "control_change"}, {"time": 2116, "annotation": {"number": 64, "value": 127}, "group": "control_change"}, {"time": 2137, "annotation": {"number": 64, "value": 0}, "group": "control_change"}, {"time": 2140, "annotation": {"number": 64, "value": 127}, "group": "control_change"}, {"time": 2162, "annotation": {"number": 64, "value": 0}, "group": "control_change"}, {"time": 2164, "annotation": {"number": 64, "value": 127}, "group": "control_change"}, {"time": 2186, "annotation": {"number": 64, "value": 0}, "group": "control_change"}, {"time": 2188, "annotation": {"number": 64, "value": 127}, "group": "control_change"}, {"time": 2210, "annotation": {"number": 64, "value": 0}, "group": "control_change"}, {"time": 2212, "annotation": {"number": 64, "value": 127}, "group": "control_change"}, {"time": 2233, "annotation": {"number": 64, "value": 0}, "group": "control_change"}, {"time": 2236, "annotation": {"number": 64, "value": 127}, "group": "control_change"}, {"time": 2258, "annotation": {"number": 64, "value": 0}, "group": "control_change"}, {"time": 2260, "annotation": {"number": 64, "value": 127}, "group": "control_change"}, {"time": 2281, "annotation": {"number": 64, "value": 0}, "group": "control_change"}, {"time": 2284, "annotation": {"number": 64, "value": 127}, "group": "control_change"}, {"time": 2306, "annotation": {"number": 64, "value": 0}, "group": "control_change"}, {"time": 2308, "annotation": {"number": 64, "value": 127}, "group": "control_change"}, {"time": 2349, "annotation": {"number": 64, "value": 0}, "group": "control_change"}, {"time": 2401, "annotation": {"number": 64, "value": 0}, "group": "control_change"}, {"time": 2404, "annotation": {"number": 64, "value": 127}, "group": "control_change"}, {"time": 2424, "annotation": {"number": 64, "value": 0}, "group": "control_change"}, {"time": 2428, "annotation": {"number": 64, "value": 127}, "group": "control_change"}, {"time": 2448, "annotation": {"number": 64, "value": 0}, "group": "control_change"}, {"time": 2451, "annotation": {"number": 64, "value": 127}, "group": "control_change"}, {"time": 2473, "annotation": {"number": 64, "value": 0}, "group": "control_change"}, {"time": 2476, "annotation": {"number": 64, "value": 127}, "group": "control_change"}, {"time": 2497, "annotation": {"number": 64, "value": 0}, "group": "control_change"}, {"time": 2500, "annotation": {"number": 64, "value": 127}, "group": "control_change"}, {"time": 2545, "annotation": {"number": 64, "value": 0}, "group": "control_change"}, {"time": 2547, "annotation": {"number": 64, "value": 127}, "group": "control_change"}, {"time": 2569, "annotation": {"number": 64, "value": 0}, "group": "control_change"}, {"time": 2572, "annotation": {"number": 64, "value": 127}, "group": "control_change"}, {"time": 2593, "annotation": {"number": 64, "value": 0}, "group": "control_change"}, {"time": 2595, "annotation": {"number": 64, "value": 127}, "group": "control_change"}, {"time": 2618, "annotation": {"number": 64, "value": 0}, "group": "control_change"}, {"time": 2621, "annotation": {"number": 64, "value": 127}, "group": "control_change"}, {"time": 2640, "annotation": {"number": 64, "value": 0}, "group": "control_change"}, {"time": 2644, "annotation": {"number": 64, "value": 127}, "group": "control_change"}, {"time": 2665, "annotation": {"number": 64, "value": 0}, "group": "control_change"}, {"time": 2668, "annotation": {"number": 64, "value": 127}, "group": "control_change"}, {"time": 2688, "annotation": {"number": 64, "value": 0}, "group": "control_change"}, {"time": 2691, "annotation": {"number": 64, "value": 127}, "group": "control_change"}, {"time": 2736, "annotation": {"number": 64, "value": 0}, "group": "control_change"}, {"time": 3123, "annotation": {"number": 64, "value": 0}, "group": "control_change"}, {"time": 3124, "annotation": {"number": 64, "value": 127}, "group": "control_change"}, {"time": 3458, "annotation": {"number": 64, "value": 0}, "group": "control_change"}, {"time": 3460, "annotation": {"number": 64, "value": 127}, "group": "control_change"}, {"time": 3504, "annotation": {"number": 64, "value": 0}, "group": "control_change"}, {"time": 3510, "annotation": {"number": 64, "value": 127}, "group": "control_change"}, {"time": 3535, "annotation": {"number": 64, "value": 0}, "group": "control_change"}, {"time": 3601, "annotation": {"number": 64, "value": 0}, "group": "control_change"}, {"time": 3605, "annotation": {"number": 64, "value": 127}, "group": "control_change"}, {"time": 3729, "annotation": {"number": 64, "value": 0}, "group": "control_change"}, {"time": 3735, "annotation": {"number": 64, "value": 127}, "group": "control_change"}, {"time": 3736, "annotation": {"number": 64, "value": 0}, "group": "control_change"}]}]}