{"metadata": {"schema_version": "0.2", "title": "None", "source_filename": "737.mid", "source_format": "midi"}, "resolution": 12, "tempos": [{"time": 0, "qpm": 115.00002875000719}, {"time": 5412, "qpm": 190.0002850004275}, {"time": 5424, "qpm": 115.00002875000719}], "time_signatures": [{"time": 0, "numerator": 1, "denominator": 4}], "tracks": [{"program": 0, "is_drum": false, "name": "MELODY", "notes": [{"time": 440, "pitch": 59, "duration": 5, "velocity": 95}, {"time": 446, "pitch": 62, "duration": 3, "velocity": 82}, {"time": 452, "pitch": 62, "duration": 7, "velocity": 95}, {"time": 464, "pitch": 62, "duration": 6, "velocity": 107}, {"time": 482, "pitch": 62, "duration": 2, "velocity": 96}, {"time": 488, "pitch": 62, "duration": 5, "velocity": 99}, {"time": 494, "pitch": 55, "duration": 5, "velocity": 88}, {"time": 500, "pitch": 57, "duration": 8, "velocity": 92}, {"time": 512, "pitch": 57, "duration": 11, "velocity": 93}, {"time": 524, "pitch": 57, "duration": 5, "velocity": 100}, {"time": 530, "pitch": 59, "duration": 4, "velocity": 89}, {"time": 536, "pitch": 60, "duration": 3, "velocity": 97}, {"time": 542, "pitch": 60, "duration": 9, "velocity": 89}, {"time": 554, "pitch": 60, "duration": 5, "velocity": 112}, {"time": 566, "pitch": 60, "duration": 5, "velocity": 100}, {"time": 578, "pitch": 60, "duration": 5, "velocity": 86}, {"time": 584, "pitch": 59, "duration": 4, "velocity": 88}, {"time": 590, "pitch": 55, "duration": 6, "velocity": 85}, {"time": 596, "pitch": 57, "duration": 7, "velocity": 92}, {"time": 608, "pitch": 57, "duration": 15, "velocity": 92}, {"time": 620, "pitch": 52, "duration": 5, "velocity": 72}, {"time": 626, "pitch": 50, "duration": 5, "velocity": 69}, {"time": 644, "pitch": 59, "duration": 3, "velocity": 92}, {"time": 650, "pitch": 62, "duration": 3, "velocity": 92}, {"time": 656, "pitch": 64, "duration": 7, "velocity": 97}, {"time": 662, "pitch": 62, "duration": 7, "velocity": 96}, {"time": 674, "pitch": 62, "duration": 4, "velocity": 95}, {"time": 680, "pitch": 64, "duration": 5, "velocity": 97}, {"time": 686, "pitch": 67, "duration": 2, "velocity": 96}, {"time": 692, "pitch": 64, "duration": 9, "velocity": 97}, {"time": 704, "pitch": 69, "duration": 7, "velocity": 97}, {"time": 716, "pitch": 64, "duration": 5, "velocity": 97}, {"time": 722, "pitch": 62, "duration": 5, "velocity": 86}, {"time": 728, "pitch": 67, "duration": 6, "velocity": 100}, {"time": 734, "pitch": 65, "duration": 3, "velocity": 86}, {"time": 740, "pitch": 65, "duration": 6, "velocity": 89}, {"time": 746, "pitch": 64, "duration": 4, "velocity": 79}, {"time": 752, "pitch": 64, "duration": 6, "velocity": 88}, {"time": 758, "pitch": 62, "duration": 3, "velocity": 72}, {"time": 764, "pitch": 62, "duration": 5, "velocity": 95}, {"time": 770, "pitch": 60, "duration": 9, "velocity": 97}, {"time": 800, "pitch": 62, "duration": 2, "velocity": 96}, {"time": 806, "pitch": 55, "duration": 3, "velocity": 78}, {"time": 812, "pitch": 57, "duration": 2, "velocity": 86}, {"time": 818, "pitch": 59, "duration": 13, "velocity": 89}, {"time": 830, "pitch": 60, "duration": 7, "velocity": 86}, {"time": 836, "pitch": 59, "duration": 33, "velocity": 85}, {"time": 1016, "pitch": 59, "duration": 5, "velocity": 95}, {"time": 1022, "pitch": 62, "duration": 3, "velocity": 82}, {"time": 1028, "pitch": 62, "duration": 7, "velocity": 95}, {"time": 1040, "pitch": 62, "duration": 6, "velocity": 107}, {"time": 1058, "pitch": 62, "duration": 2, "velocity": 96}, {"time": 1064, "pitch": 62, "duration": 5, "velocity": 99}, {"time": 1070, "pitch": 55, "duration": 5, "velocity": 88}, {"time": 1076, "pitch": 57, "duration": 8, "velocity": 92}, {"time": 1088, "pitch": 57, "duration": 11, "velocity": 93}, {"time": 1100, "pitch": 57, "duration": 5, "velocity": 100}, {"time": 1106, "pitch": 59, "duration": 4, "velocity": 89}, {"time": 1112, "pitch": 60, "duration": 3, "velocity": 97}, {"time": 1118, "pitch": 60, "duration": 9, "velocity": 89}, {"time": 1130, "pitch": 60, "duration": 5, "velocity": 112}, {"time": 1136, "pitch": 62, "duration": 4, "velocity": 102}, {"time": 1142, "pitch": 60, "duration": 5, "velocity": 100}, {"time": 1154, "pitch": 60, "duration": 5, "velocity": 86}, {"time": 1160, "pitch": 59, "duration": 4, "velocity": 88}, {"time": 1166, "pitch": 55, "duration": 6, "velocity": 85}, {"time": 1172, "pitch": 57, "duration": 7, "velocity": 92}, {"time": 1184, "pitch": 57, "duration": 15, "velocity": 92}, {"time": 1196, "pitch": 52, "duration": 5, "velocity": 72}, {"time": 1202, "pitch": 50, "duration": 5, "velocity": 69}, {"time": 1220, "pitch": 59, "duration": 3, "velocity": 92}, {"time": 1226, "pitch": 62, "duration": 3, "velocity": 92}, {"time": 1232, "pitch": 64, "duration": 7, "velocity": 97}, {"time": 1238, "pitch": 62, "duration": 7, "velocity": 96}, {"time": 1250, "pitch": 62, "duration": 4, "velocity": 95}, {"time": 1256, "pitch": 64, "duration": 5, "velocity": 97}, {"time": 1262, "pitch": 67, "duration": 2, "velocity": 96}, {"time": 1268, "pitch": 64, "duration": 9, "velocity": 97}, {"time": 1280, "pitch": 69, "duration": 7, "velocity": 97}, {"time": 1292, "pitch": 64, "duration": 5, "velocity": 97}, {"time": 1298, "pitch": 62, "duration": 5, "velocity": 86}, {"time": 1304, "pitch": 67, "duration": 6, "velocity": 100}, {"time": 1310, "pitch": 65, "duration": 3, "velocity": 86}, {"time": 1316, "pitch": 65, "duration": 6, "velocity": 89}, {"time": 1322, "pitch": 64, "duration": 4, "velocity": 79}, {"time": 1328, "pitch": 64, "duration": 6, "velocity": 88}, {"time": 1334, "pitch": 62, "duration": 3, "velocity": 72}, {"time": 1340, "pitch": 62, "duration": 5, "velocity": 95}, {"time": 1346, "pitch": 60, "duration": 9, "velocity": 97}, {"time": 1376, "pitch": 62, "duration": 2, "velocity": 96}, {"time": 1382, "pitch": 55, "duration": 3, "velocity": 78}, {"time": 1388, "pitch": 57, "duration": 2, "velocity": 86}, {"time": 1394, "pitch": 59, "duration": 6, "velocity": 89}, {"time": 1400, "pitch": 62, "duration": 51, "velocity": 97}, {"time": 1484, "pitch": 64, "duration": 5, "velocity": 112}, {"time": 1490, "pitch": 62, "duration": 4, "velocity": 93}, {"time": 1496, "pitch": 69, "duration": 5, "velocity": 127}, {"time": 1502, "pitch": 71, "duration": 2, "velocity": 92}, {"time": 1508, "pitch": 71, "duration": 3, "velocity": 102}, {"time": 1514, "pitch": 71, "duration": 4, "velocity": 112}, {"time": 1520, "pitch": 71, "duration": 5, "velocity": 117}, {"time": 1526, "pitch": 71, "duration": 9, "velocity": 102}, {"time": 1538, "pitch": 71, "duration": 4, "velocity": 102}, {"time": 1544, "pitch": 69, "duration": 5, "velocity": 107}, {"time": 1550, "pitch": 62, "duration": 5, "velocity": 88}, {"time": 1556, "pitch": 64, "duration": 11, "velocity": 96}, {"time": 1565, "pitch": 62, "duration": 6, "velocity": 96}, {"time": 1580, "pitch": 62, "duration": 4, "velocity": 112}, {"time": 1586, "pitch": 59, "duration": 4, "velocity": 90}, {"time": 1592, "pitch": 64, "duration": 8, "velocity": 102}, {"time": 1598, "pitch": 67, "duration": 7, "velocity": 127}, {"time": 1610, "pitch": 67, "duration": 3, "velocity": 100}, {"time": 1616, "pitch": 69, "duration": 6, "velocity": 117}, {"time": 1622, "pitch": 67, "duration": 9, "velocity": 97}, {"time": 1634, "pitch": 67, "duration": 4, "velocity": 107}, {"time": 1640, "pitch": 66, "duration": 5, "velocity": 112}, {"time": 1646, "pitch": 62, "duration": 6, "velocity": 95}, {"time": 1652, "pitch": 64, "duration": 11, "velocity": 100}, {"time": 1664, "pitch": 62, "duration": 7, "velocity": 95}, {"time": 1694, "pitch": 64, "duration": 2, "velocity": 112}, {"time": 1700, "pitch": 64, "duration": 2, "velocity": 96}, {"time": 1706, "pitch": 64, "duration": 2, "velocity": 99}, {"time": 1712, "pitch": 65, "duration": 5, "velocity": 127}, {"time": 1718, "pitch": 64, "duration": 7, "velocity": 93}, {"time": 1730, "pitch": 64, "duration": 2, "velocity": 112}, {"time": 1736, "pitch": 62, "duration": 3, "velocity": 93}, {"time": 1742, "pitch": 59, "duration": 6, "velocity": 97}, {"time": 1748, "pitch": 69, "duration": 11, "velocity": 107}, {"time": 1760, "pitch": 67, "duration": 9, "velocity": 112}, {"time": 1778, "pitch": 67, "duration": 2, "velocity": 100}, {"time": 1784, "pitch": 71, "duration": 5, "velocity": 99}, {"time": 1790, "pitch": 67, "duration": 6, "velocity": 93}, {"time": 1796, "pitch": 69, "duration": 8, "velocity": 102}, {"time": 1808, "pitch": 64, "duration": 6, "velocity": 93}, {"time": 1814, "pitch": 62, "duration": 13, "velocity": 92}, {"time": 1832, "pitch": 71, "duration": 2, "velocity": 112}, {"time": 1838, "pitch": 67, "duration": 2, "velocity": 95}, {"time": 1844, "pitch": 71, "duration": 2, "velocity": 100}, {"time": 1850, "pitch": 67, "duration": 2, "velocity": 102}, {"time": 1856, "pitch": 69, "duration": 8, "velocity": 127}, {"time": 1868, "pitch": 64, "duration": 5, "velocity": 112}, {"time": 1874, "pitch": 62, "duration": 4, "velocity": 93}, {"time": 1880, "pitch": 69, "duration": 5, "velocity": 127}, {"time": 1886, "pitch": 71, "duration": 2, "velocity": 92}, {"time": 1892, "pitch": 71, "duration": 3, "velocity": 102}, {"time": 1898, "pitch": 71, "duration": 4, "velocity": 112}, {"time": 1904, "pitch": 71, "duration": 5, "velocity": 117}, {"time": 1910, "pitch": 71, "duration": 9, "velocity": 102}, {"time": 1922, "pitch": 71, "duration": 4, "velocity": 102}, {"time": 1928, "pitch": 69, "duration": 5, "velocity": 107}, {"time": 1934, "pitch": 71, "duration": 3, "velocity": 99}, {"time": 1940, "pitch": 69, "duration": 5, "velocity": 107}, {"time": 1952, "pitch": 62, "duration": 4, "velocity": 100}, {"time": 1964, "pitch": 62, "duration": 4, "velocity": 112}, {"time": 1970, "pitch": 59, "duration": 4, "velocity": 90}, {"time": 1976, "pitch": 64, "duration": 8, "velocity": 102}, {"time": 1982, "pitch": 67, "duration": 7, "velocity": 127}, {"time": 1994, "pitch": 67, "duration": 3, "velocity": 100}, {"time": 2000, "pitch": 69, "duration": 6, "velocity": 117}, {"time": 2006, "pitch": 67, "duration": 9, "velocity": 97}, {"time": 2018, "pitch": 67, "duration": 4, "velocity": 107}, {"time": 2024, "pitch": 66, "duration": 5, "velocity": 112}, {"time": 2030, "pitch": 69, "duration": 3, "velocity": 107}, {"time": 2036, "pitch": 64, "duration": 12, "velocity": 96}, {"time": 2048, "pitch": 62, "duration": 5, "velocity": 96}, {"time": 2060, "pitch": 57, "duration": 5, "velocity": 95}, {"time": 2066, "pitch": 55, "duration": 4, "velocity": 73}, {"time": 2078, "pitch": 64, "duration": 2, "velocity": 112}, {"time": 2084, "pitch": 64, "duration": 2, "velocity": 96}, {"time": 2090, "pitch": 64, "duration": 2, "velocity": 99}, {"time": 2096, "pitch": 65, "duration": 5, "velocity": 127}, {"time": 2102, "pitch": 64, "duration": 7, "velocity": 93}, {"time": 2114, "pitch": 64, "duration": 2, "velocity": 112}, {"time": 2120, "pitch": 62, "duration": 3, "velocity": 93}, {"time": 2126, "pitch": 59, "duration": 6, "velocity": 97}, {"time": 2132, "pitch": 69, "duration": 11, "velocity": 107}, {"time": 2144, "pitch": 67, "duration": 4, "velocity": 112}, {"time": 2150, "pitch": 64, "duration": 4, "velocity": 112}, {"time": 2156, "pitch": 64, "duration": 3, "velocity": 99}, {"time": 2162, "pitch": 62, "duration": 3, "velocity": 102}, {"time": 2168, "pitch": 67, "duration": 5, "velocity": 117}, {"time": 2174, "pitch": 65, "duration": 2, "velocity": 97}, {"time": 2180, "pitch": 65, "duration": 6, "velocity": 107}, {"time": 2186, "pitch": 64, "duration": 2, "velocity": 95}, {"time": 2192, "pitch": 64, "duration": 6, "velocity": 102}, {"time": 2198, "pitch": 62, "duration": 2, "velocity": 89}, {"time": 2204, "pitch": 62, "duration": 5, "velocity": 102}, {"time": 2210, "pitch": 60, "duration": 7, "velocity": 89}, {"time": 2240, "pitch": 62, "duration": 5, "velocity": 95}, {"time": 2246, "pitch": 55, "duration": 5, "velocity": 85}, {"time": 2252, "pitch": 57, "duration": 4, "velocity": 85}, {"time": 2258, "pitch": 59, "duration": 11, "velocity": 85}, {"time": 2273, "pitch": 55, "duration": 43, "velocity": 95}, {"time": 2912, "pitch": 59, "duration": 5, "velocity": 95}, {"time": 2918, "pitch": 62, "duration": 3, "velocity": 82}, {"time": 2924, "pitch": 62, "duration": 7, "velocity": 95}, {"time": 2936, "pitch": 62, "duration": 6, "velocity": 107}, {"time": 2954, "pitch": 62, "duration": 2, "velocity": 96}, {"time": 2960, "pitch": 62, "duration": 5, "velocity": 99}, {"time": 2966, "pitch": 55, "duration": 5, "velocity": 88}, {"time": 2972, "pitch": 57, "duration": 8, "velocity": 92}, {"time": 2984, "pitch": 57, "duration": 11, "velocity": 93}, {"time": 2996, "pitch": 57, "duration": 5, "velocity": 100}, {"time": 3002, "pitch": 59, "duration": 4, "velocity": 89}, {"time": 3008, "pitch": 60, "duration": 3, "velocity": 97}, {"time": 3014, "pitch": 60, "duration": 9, "velocity": 89}, {"time": 3026, "pitch": 60, "duration": 5, "velocity": 112}, {"time": 3032, "pitch": 62, "duration": 4, "velocity": 102}, {"time": 3038, "pitch": 60, "duration": 5, "velocity": 100}, {"time": 3050, "pitch": 60, "duration": 5, "velocity": 86}, {"time": 3056, "pitch": 59, "duration": 4, "velocity": 88}, {"time": 3062, "pitch": 55, "duration": 6, "velocity": 85}, {"time": 3068, "pitch": 57, "duration": 7, "velocity": 92}, {"time": 3080, "pitch": 57, "duration": 15, "velocity": 92}, {"time": 3092, "pitch": 52, "duration": 5, "velocity": 72}, {"time": 3098, "pitch": 50, "duration": 5, "velocity": 69}, {"time": 3116, "pitch": 59, "duration": 3, "velocity": 92}, {"time": 3122, "pitch": 62, "duration": 3, "velocity": 92}, {"time": 3128, "pitch": 64, "duration": 7, "velocity": 97}, {"time": 3134, "pitch": 62, "duration": 7, "velocity": 96}, {"time": 3146, "pitch": 62, "duration": 4, "velocity": 95}, {"time": 3152, "pitch": 64, "duration": 5, "velocity": 97}, {"time": 3158, "pitch": 67, "duration": 2, "velocity": 96}, {"time": 3164, "pitch": 64, "duration": 9, "velocity": 97}, {"time": 3176, "pitch": 69, "duration": 7, "velocity": 97}, {"time": 3188, "pitch": 64, "duration": 5, "velocity": 97}, {"time": 3194, "pitch": 62, "duration": 5, "velocity": 86}, {"time": 3200, "pitch": 67, "duration": 6, "velocity": 100}, {"time": 3206, "pitch": 65, "duration": 3, "velocity": 86}, {"time": 3212, "pitch": 65, "duration": 6, "velocity": 89}, {"time": 3218, "pitch": 64, "duration": 4, "velocity": 79}, {"time": 3224, "pitch": 64, "duration": 6, "velocity": 88}, {"time": 3230, "pitch": 62, "duration": 3, "velocity": 72}, {"time": 3236, "pitch": 62, "duration": 5, "velocity": 95}, {"time": 3242, "pitch": 60, "duration": 9, "velocity": 97}, {"time": 3272, "pitch": 62, "duration": 2, "velocity": 96}, {"time": 3278, "pitch": 55, "duration": 3, "velocity": 78}, {"time": 3284, "pitch": 57, "duration": 2, "velocity": 86}, {"time": 3290, "pitch": 59, "duration": 6, "velocity": 89}, {"time": 3296, "pitch": 62, "duration": 51, "velocity": 97}, {"time": 3380, "pitch": 64, "duration": 5, "velocity": 112}, {"time": 3386, "pitch": 62, "duration": 4, "velocity": 93}, {"time": 3392, "pitch": 69, "duration": 5, "velocity": 127}, {"time": 3398, "pitch": 71, "duration": 2, "velocity": 92}, {"time": 3404, "pitch": 71, "duration": 3, "velocity": 102}, {"time": 3410, "pitch": 71, "duration": 4, "velocity": 112}, {"time": 3416, "pitch": 71, "duration": 5, "velocity": 117}, {"time": 3422, "pitch": 71, "duration": 9, "velocity": 102}, {"time": 3434, "pitch": 71, "duration": 4, "velocity": 102}, {"time": 3440, "pitch": 69, "duration": 5, "velocity": 107}, {"time": 3446, "pitch": 62, "duration": 5, "velocity": 88}, {"time": 3452, "pitch": 64, "duration": 11, "velocity": 96}, {"time": 3464, "pitch": 62, "duration": 6, "velocity": 96}, {"time": 3476, "pitch": 62, "duration": 4, "velocity": 112}, {"time": 3482, "pitch": 59, "duration": 4, "velocity": 90}, {"time": 3488, "pitch": 64, "duration": 8, "velocity": 102}, {"time": 3494, "pitch": 67, "duration": 7, "velocity": 127}, {"time": 3506, "pitch": 67, "duration": 3, "velocity": 100}, {"time": 3512, "pitch": 69, "duration": 6, "velocity": 117}, {"time": 3518, "pitch": 67, "duration": 9, "velocity": 97}, {"time": 3530, "pitch": 67, "duration": 4, "velocity": 107}, {"time": 3536, "pitch": 66, "duration": 5, "velocity": 112}, {"time": 3542, "pitch": 62, "duration": 6, "velocity": 95}, {"time": 3548, "pitch": 64, "duration": 11, "velocity": 100}, {"time": 3560, "pitch": 62, "duration": 7, "velocity": 95}, {"time": 3590, "pitch": 64, "duration": 2, "velocity": 112}, {"time": 3596, "pitch": 64, "duration": 2, "velocity": 96}, {"time": 3602, "pitch": 64, "duration": 2, "velocity": 99}, {"time": 3608, "pitch": 65, "duration": 5, "velocity": 127}, {"time": 3614, "pitch": 64, "duration": 7, "velocity": 93}, {"time": 3626, "pitch": 64, "duration": 2, "velocity": 112}, {"time": 3632, "pitch": 62, "duration": 3, "velocity": 93}, {"time": 3638, "pitch": 59, "duration": 6, "velocity": 97}, {"time": 3644, "pitch": 69, "duration": 11, "velocity": 107}, {"time": 3656, "pitch": 67, "duration": 9, "velocity": 112}, {"time": 3674, "pitch": 67, "duration": 2, "velocity": 100}, {"time": 3680, "pitch": 71, "duration": 5, "velocity": 99}, {"time": 3686, "pitch": 67, "duration": 6, "velocity": 93}, {"time": 3692, "pitch": 69, "duration": 8, "velocity": 102}, {"time": 3704, "pitch": 64, "duration": 6, "velocity": 93}, {"time": 3710, "pitch": 62, "duration": 13, "velocity": 92}, {"time": 3728, "pitch": 71, "duration": 2, "velocity": 112}, {"time": 3734, "pitch": 67, "duration": 2, "velocity": 95}, {"time": 3740, "pitch": 71, "duration": 2, "velocity": 100}, {"time": 3746, "pitch": 67, "duration": 2, "velocity": 102}, {"time": 3752, "pitch": 69, "duration": 8, "velocity": 127}, {"time": 3764, "pitch": 64, "duration": 5, "velocity": 112}, {"time": 3770, "pitch": 62, "duration": 4, "velocity": 93}, {"time": 3776, "pitch": 69, "duration": 5, "velocity": 127}, {"time": 3782, "pitch": 71, "duration": 2, "velocity": 92}, {"time": 3788, "pitch": 71, "duration": 3, "velocity": 102}, {"time": 3794, "pitch": 71, "duration": 4, "velocity": 112}, {"time": 3800, "pitch": 71, "duration": 5, "velocity": 117}, {"time": 3806, "pitch": 71, "duration": 9, "velocity": 102}, {"time": 3818, "pitch": 71, "duration": 4, "velocity": 102}, {"time": 3824, "pitch": 69, "duration": 5, "velocity": 107}, {"time": 3830, "pitch": 71, "duration": 3, "velocity": 99}, {"time": 3836, "pitch": 69, "duration": 5, "velocity": 107}, {"time": 3848, "pitch": 62, "duration": 4, "velocity": 100}, {"time": 3860, "pitch": 62, "duration": 4, "velocity": 112}, {"time": 3866, "pitch": 59, "duration": 4, "velocity": 90}, {"time": 3872, "pitch": 64, "duration": 8, "velocity": 102}, {"time": 3878, "pitch": 67, "duration": 7, "velocity": 127}, {"time": 3890, "pitch": 67, "duration": 3, "velocity": 100}, {"time": 3896, "pitch": 69, "duration": 6, "velocity": 117}, {"time": 3902, "pitch": 67, "duration": 9, "velocity": 97}, {"time": 3914, "pitch": 67, "duration": 4, "velocity": 107}, {"time": 3920, "pitch": 66, "duration": 5, "velocity": 112}, {"time": 3926, "pitch": 69, "duration": 3, "velocity": 107}, {"time": 3932, "pitch": 64, "duration": 12, "velocity": 96}, {"time": 3944, "pitch": 62, "duration": 5, "velocity": 96}, {"time": 3956, "pitch": 57, "duration": 5, "velocity": 95}, {"time": 3962, "pitch": 55, "duration": 4, "velocity": 73}, {"time": 3974, "pitch": 64, "duration": 2, "velocity": 112}, {"time": 3980, "pitch": 64, "duration": 2, "velocity": 96}, {"time": 3986, "pitch": 64, "duration": 2, "velocity": 99}, {"time": 3992, "pitch": 65, "duration": 5, "velocity": 127}, {"time": 3998, "pitch": 64, "duration": 7, "velocity": 93}, {"time": 4010, "pitch": 64, "duration": 2, "velocity": 112}, {"time": 4016, "pitch": 62, "duration": 3, "velocity": 93}, {"time": 4022, "pitch": 59, "duration": 6, "velocity": 97}, {"time": 4028, "pitch": 69, "duration": 11, "velocity": 107}, {"time": 4040, "pitch": 67, "duration": 4, "velocity": 112}, {"time": 4046, "pitch": 64, "duration": 4, "velocity": 112}, {"time": 4052, "pitch": 64, "duration": 3, "velocity": 99}, {"time": 4058, "pitch": 62, "duration": 3, "velocity": 102}, {"time": 4064, "pitch": 67, "duration": 5, "velocity": 117}, {"time": 4070, "pitch": 65, "duration": 2, "velocity": 97}, {"time": 4076, "pitch": 65, "duration": 6, "velocity": 107}, {"time": 4082, "pitch": 64, "duration": 2, "velocity": 95}, {"time": 4088, "pitch": 64, "duration": 6, "velocity": 102}, {"time": 4094, "pitch": 62, "duration": 2, "velocity": 89}, {"time": 4100, "pitch": 62, "duration": 5, "velocity": 102}, {"time": 4106, "pitch": 60, "duration": 7, "velocity": 89}, {"time": 4136, "pitch": 62, "duration": 5, "velocity": 95}, {"time": 4142, "pitch": 55, "duration": 5, "velocity": 85}, {"time": 4148, "pitch": 57, "duration": 4, "velocity": 85}, {"time": 4154, "pitch": 59, "duration": 11, "velocity": 85}, {"time": 4166, "pitch": 62, "duration": 18, "velocity": 97}, {"time": 4196, "pitch": 69, "duration": 3, "velocity": 117}, {"time": 4202, "pitch": 69, "duration": 14, "velocity": 127}, {"time": 4214, "pitch": 67, "duration": 23, "velocity": 100}, {"time": 4244, "pitch": 64, "duration": 5, "velocity": 112}, {"time": 4250, "pitch": 62, "duration": 4, "velocity": 93}, {"time": 4256, "pitch": 69, "duration": 5, "velocity": 127}, {"time": 4262, "pitch": 71, "duration": 2, "velocity": 92}, {"time": 4268, "pitch": 71, "duration": 3, "velocity": 102}, {"time": 4274, "pitch": 71, "duration": 4, "velocity": 112}, {"time": 4280, "pitch": 71, "duration": 5, "velocity": 117}, {"time": 4286, "pitch": 71, "duration": 9, "velocity": 102}, {"time": 4298, "pitch": 71, "duration": 4, "velocity": 102}, {"time": 4304, "pitch": 69, "duration": 5, "velocity": 107}, {"time": 4310, "pitch": 62, "duration": 5, "velocity": 88}, {"time": 4316, "pitch": 64, "duration": 11, "velocity": 96}, {"time": 4328, "pitch": 62, "duration": 6, "velocity": 96}, {"time": 4340, "pitch": 62, "duration": 4, "velocity": 112}, {"time": 4346, "pitch": 59, "duration": 4, "velocity": 90}, {"time": 4352, "pitch": 64, "duration": 8, "velocity": 102}, {"time": 4358, "pitch": 67, "duration": 7, "velocity": 127}, {"time": 4370, "pitch": 67, "duration": 3, "velocity": 100}, {"time": 4376, "pitch": 69, "duration": 6, "velocity": 117}, {"time": 4382, "pitch": 67, "duration": 9, "velocity": 97}, {"time": 4394, "pitch": 67, "duration": 4, "velocity": 107}, {"time": 4400, "pitch": 66, "duration": 5, "velocity": 112}, {"time": 4406, "pitch": 62, "duration": 6, "velocity": 95}, {"time": 4412, "pitch": 64, "duration": 11, "velocity": 100}, {"time": 4424, "pitch": 62, "duration": 7, "velocity": 95}, {"time": 4454, "pitch": 64, "duration": 2, "velocity": 112}, {"time": 4460, "pitch": 64, "duration": 2, "velocity": 96}, {"time": 4466, "pitch": 64, "duration": 2, "velocity": 99}, {"time": 4472, "pitch": 65, "duration": 5, "velocity": 127}, {"time": 4478, "pitch": 64, "duration": 7, "velocity": 93}, {"time": 4490, "pitch": 64, "duration": 2, "velocity": 112}, {"time": 4496, "pitch": 62, "duration": 3, "velocity": 93}, {"time": 4502, "pitch": 59, "duration": 6, "velocity": 97}, {"time": 4508, "pitch": 69, "duration": 11, "velocity": 107}, {"time": 4520, "pitch": 67, "duration": 9, "velocity": 112}, {"time": 4538, "pitch": 67, "duration": 2, "velocity": 100}, {"time": 4544, "pitch": 71, "duration": 5, "velocity": 99}, {"time": 4550, "pitch": 67, "duration": 6, "velocity": 93}, {"time": 4556, "pitch": 69, "duration": 8, "velocity": 102}, {"time": 4568, "pitch": 64, "duration": 6, "velocity": 93}, {"time": 4574, "pitch": 62, "duration": 13, "velocity": 92}, {"time": 4592, "pitch": 71, "duration": 2, "velocity": 112}, {"time": 4598, "pitch": 67, "duration": 2, "velocity": 95}, {"time": 4604, "pitch": 71, "duration": 2, "velocity": 100}, {"time": 4610, "pitch": 67, "duration": 2, "velocity": 102}, {"time": 4616, "pitch": 69, "duration": 8, "velocity": 127}, {"time": 4628, "pitch": 64, "duration": 5, "velocity": 112}, {"time": 4634, "pitch": 62, "duration": 4, "velocity": 93}, {"time": 4640, "pitch": 69, "duration": 5, "velocity": 127}, {"time": 4646, "pitch": 71, "duration": 2, "velocity": 92}, {"time": 4652, "pitch": 71, "duration": 3, "velocity": 102}, {"time": 4658, "pitch": 71, "duration": 4, "velocity": 112}, {"time": 4664, "pitch": 71, "duration": 5, "velocity": 117}, {"time": 4670, "pitch": 71, "duration": 9, "velocity": 102}, {"time": 4682, "pitch": 71, "duration": 4, "velocity": 102}, {"time": 4688, "pitch": 69, "duration": 5, "velocity": 107}, {"time": 4694, "pitch": 71, "duration": 3, "velocity": 99}, {"time": 4700, "pitch": 69, "duration": 5, "velocity": 107}, {"time": 4712, "pitch": 62, "duration": 4, "velocity": 100}, {"time": 4724, "pitch": 62, "duration": 4, "velocity": 112}, {"time": 4730, "pitch": 59, "duration": 4, "velocity": 90}, {"time": 4736, "pitch": 64, "duration": 8, "velocity": 102}, {"time": 4742, "pitch": 67, "duration": 7, "velocity": 127}, {"time": 4754, "pitch": 67, "duration": 3, "velocity": 100}, {"time": 4760, "pitch": 69, "duration": 6, "velocity": 117}, {"time": 4766, "pitch": 67, "duration": 9, "velocity": 97}, {"time": 4778, "pitch": 67, "duration": 4, "velocity": 107}, {"time": 4784, "pitch": 66, "duration": 5, "velocity": 112}, {"time": 4790, "pitch": 69, "duration": 3, "velocity": 107}, {"time": 4796, "pitch": 64, "duration": 12, "velocity": 96}, {"time": 4808, "pitch": 62, "duration": 5, "velocity": 96}, {"time": 4820, "pitch": 57, "duration": 5, "velocity": 95}, {"time": 4826, "pitch": 55, "duration": 4, "velocity": 73}, {"time": 4838, "pitch": 64, "duration": 2, "velocity": 112}, {"time": 4844, "pitch": 64, "duration": 2, "velocity": 96}, {"time": 4850, "pitch": 64, "duration": 2, "velocity": 99}, {"time": 4856, "pitch": 65, "duration": 5, "velocity": 127}, {"time": 4862, "pitch": 64, "duration": 7, "velocity": 93}, {"time": 4874, "pitch": 64, "duration": 2, "velocity": 112}, {"time": 4880, "pitch": 62, "duration": 3, "velocity": 93}, {"time": 4886, "pitch": 59, "duration": 6, "velocity": 97}, {"time": 4892, "pitch": 69, "duration": 11, "velocity": 107}, {"time": 4904, "pitch": 67, "duration": 4, "velocity": 112}, {"time": 4910, "pitch": 64, "duration": 4, "velocity": 112}, {"time": 4916, "pitch": 64, "duration": 3, "velocity": 99}, {"time": 4922, "pitch": 62, "duration": 3, "velocity": 102}, {"time": 4928, "pitch": 67, "duration": 5, "velocity": 117}, {"time": 4934, "pitch": 65, "duration": 2, "velocity": 97}, {"time": 4940, "pitch": 65, "duration": 6, "velocity": 107}, {"time": 4946, "pitch": 64, "duration": 2, "velocity": 95}, {"time": 4952, "pitch": 64, "duration": 6, "velocity": 102}, {"time": 4958, "pitch": 62, "duration": 2, "velocity": 89}, {"time": 4964, "pitch": 62, "duration": 5, "velocity": 102}, {"time": 4970, "pitch": 60, "duration": 7, "velocity": 89}, {"time": 5000, "pitch": 62, "duration": 5, "velocity": 95}, {"time": 5006, "pitch": 55, "duration": 5, "velocity": 85}, {"time": 5012, "pitch": 57, "duration": 4, "velocity": 85}, {"time": 5018, "pitch": 59, "duration": 11, "velocity": 85}, {"time": 5030, "pitch": 62, "duration": 18, "velocity": 97}, {"time": 5066, "pitch": 64, "duration": 4, "velocity": 93}, {"time": 5072, "pitch": 62, "duration": 9, "velocity": 99}, {"time": 5096, "pitch": 62, "duration": 4, "velocity": 93}, {"time": 5102, "pitch": 64, "duration": 3, "velocity": 97}, {"time": 5108, "pitch": 66, "duration": 9, "velocity": 112}, {"time": 5120, "pitch": 67, "duration": 14, "velocity": 117}, {"time": 5150, "pitch": 69, "duration": 5, "velocity": 117}, {"time": 5156, "pitch": 71, "duration": 5, "velocity": 102}, {"time": 5162, "pitch": 62, "duration": 6, "velocity": 99}, {"time": 5168, "pitch": 64, "duration": 16, "velocity": 95}, {"time": 5192, "pitch": 62, "duration": 5, "velocity": 102}, {"time": 5198, "pitch": 55, "duration": 4, "velocity": 92}, {"time": 5204, "pitch": 57, "duration": 13, "velocity": 97}, {"time": 5216, "pitch": 59, "duration": 16, "velocity": 96}, {"time": 5258, "pitch": 60, "duration": 6, "velocity": 112}, {"time": 5264, "pitch": 57, "duration": 18, "velocity": 92}, {"time": 5288, "pitch": 62, "duration": 6, "velocity": 102}, {"time": 5294, "pitch": 64, "duration": 3, "velocity": 90}, {"time": 5300, "pitch": 66, "duration": 9, "velocity": 112}, {"time": 5312, "pitch": 67, "duration": 20, "velocity": 122}, {"time": 5342, "pitch": 69, "duration": 3, "velocity": 112}, {"time": 5348, "pitch": 71, "duration": 5, "velocity": 112}, {"time": 5354, "pitch": 62, "duration": 6, "velocity": 100}, {"time": 5360, "pitch": 64, "duration": 17, "velocity": 93}, {"time": 5384, "pitch": 62, "duration": 5, "velocity": 107}, {"time": 5390, "pitch": 64, "duration": 7, "velocity": 100}]}, {"program": 0, "is_drum": false, "name": "PIANO", "notes": [{"time": 56, "pitch": 43, "duration": 40, "velocity": 76}, {"time": 62, "pitch": 50, "duration": 21, "velocity": 59}, {"time": 62, "pitch": 62, "duration": 6, "velocity": 68}, {"time": 68, "pitch": 59, "duration": 22, "velocity": 58}, {"time": 68, "pitch": 62, "duration": 1, "velocity": 54}, {"time": 68, "pitch": 67, "duration": 6, "velocity": 56}, {"time": 74, "pitch": 55, "duration": 16, "velocity": 59}, {"time": 74, "pitch": 69, "duration": 25, "velocity": 81}, {"time": 86, "pitch": 50, "duration": 9, "velocity": 59}, {"time": 86, "pitch": 57, "duration": 7, "velocity": 49}, {"time": 92, "pitch": 59, "duration": 13, "velocity": 72}, {"time": 92, "pitch": 62, "duration": 7, "velocity": 63}, {"time": 92, "pitch": 62, "duration": 7, "velocity": 73}, {"time": 98, "pitch": 55, "duration": 6, "velocity": 40}, {"time": 98, "pitch": 67, "duration": 13, "velocity": 74}, {"time": 104, "pitch": 42, "duration": 38, "velocity": 82}, {"time": 110, "pitch": 54, "duration": 13, "velocity": 39}, {"time": 110, "pitch": 57, "duration": 5, "velocity": 74}, {"time": 116, "pitch": 62, "duration": 7, "velocity": 81}, {"time": 116, "pitch": 62, "duration": 7, "velocity": 83}, {"time": 122, "pitch": 59, "duration": 20, "velocity": 61}, {"time": 122, "pitch": 69, "duration": 17, "velocity": 89}, {"time": 131, "pitch": 54, "duration": 6, "velocity": 38}, {"time": 134, "pitch": 57, "duration": 7, "velocity": 63}, {"time": 140, "pitch": 62, "duration": 7, "velocity": 72}, {"time": 140, "pitch": 62, "duration": 7, "velocity": 75}, {"time": 146, "pitch": 59, "duration": 7, "velocity": 55}, {"time": 146, "pitch": 67, "duration": 15, "velocity": 78}, {"time": 152, "pitch": 41, "duration": 40, "velocity": 66}, {"time": 158, "pitch": 48, "duration": 19, "velocity": 59}, {"time": 158, "pitch": 60, "duration": 6, "velocity": 81}, {"time": 164, "pitch": 60, "duration": 1, "velocity": 65}, {"time": 164, "pitch": 62, "duration": 9, "velocity": 68}, {"time": 170, "pitch": 57, "duration": 19, "velocity": 70}, {"time": 170, "pitch": 69, "duration": 5, "velocity": 81}, {"time": 176, "pitch": 67, "duration": 13, "velocity": 74}, {"time": 182, "pitch": 48, "duration": 8, "velocity": 54}, {"time": 182, "pitch": 60, "duration": 3, "velocity": 76}, {"time": 188, "pitch": 60, "duration": 1, "velocity": 85}, {"time": 188, "pitch": 62, "duration": 6, "velocity": 77}, {"time": 194, "pitch": 57, "duration": 5, "velocity": 64}, {"time": 194, "pitch": 67, "duration": 11, "velocity": 85}, {"time": 200, "pitch": 40, "duration": 21, "velocity": 72}, {"time": 206, "pitch": 47, "duration": 16, "velocity": 53}, {"time": 206, "pitch": 55, "duration": 5, "velocity": 78}, {"time": 212, "pitch": 59, "duration": 10, "velocity": 73}, {"time": 212, "pitch": 60, "duration": 7, "velocity": 77}, {"time": 218, "pitch": 55, "duration": 4, "velocity": 57}, {"time": 218, "pitch": 62, "duration": 12, "velocity": 77}, {"time": 224, "pitch": 41, "duration": 20, "velocity": 81}, {"time": 230, "pitch": 48, "duration": 16, "velocity": 53}, {"time": 230, "pitch": 60, "duration": 6, "velocity": 69}, {"time": 236, "pitch": 53, "duration": 11, "velocity": 75}, {"time": 236, "pitch": 67, "duration": 18, "velocity": 88}, {"time": 242, "pitch": 60, "duration": 6, "velocity": 90}, {"time": 248, "pitch": 43, "duration": 35, "velocity": 69}, {"time": 254, "pitch": 50, "duration": 19, "velocity": 56}, {"time": 254, "pitch": 62, "duration": 6, "velocity": 68}, {"time": 260, "pitch": 62, "duration": 1, "velocity": 88}, {"time": 260, "pitch": 67, "duration": 6, "velocity": 56}, {"time": 266, "pitch": 59, "duration": 19, "velocity": 75}, {"time": 266, "pitch": 69, "duration": 25, "velocity": 81}, {"time": 278, "pitch": 50, "duration": 7, "velocity": 55}, {"time": 278, "pitch": 57, "duration": 7, "velocity": 49}, {"time": 284, "pitch": 62, "duration": 7, "velocity": 63}, {"time": 284, "pitch": 62, "duration": 7, "velocity": 83}, {"time": 290, "pitch": 67, "duration": 13, "velocity": 74}, {"time": 296, "pitch": 42, "duration": 26, "velocity": 65}, {"time": 302, "pitch": 55, "duration": 6, "velocity": 52}, {"time": 302, "pitch": 57, "duration": 5, "velocity": 74}, {"time": 308, "pitch": 62, "duration": 7, "velocity": 83}, {"time": 308, "pitch": 62, "duration": 7, "velocity": 90}, {"time": 314, "pitch": 59, "duration": 18, "velocity": 63}, {"time": 314, "pitch": 69, "duration": 17, "velocity": 89}, {"time": 326, "pitch": 42, "duration": 9, "velocity": 50}, {"time": 326, "pitch": 57, "duration": 7, "velocity": 63}, {"time": 332, "pitch": 62, "duration": 7, "velocity": 72}, {"time": 332, "pitch": 62, "duration": 7, "velocity": 89}, {"time": 338, "pitch": 59, "duration": 5, "velocity": 64}, {"time": 338, "pitch": 67, "duration": 15, "velocity": 78}, {"time": 344, "pitch": 41, "duration": 37, "velocity": 65}, {"time": 350, "pitch": 48, "duration": 19, "velocity": 55}, {"time": 350, "pitch": 60, "duration": 6, "velocity": 81}, {"time": 356, "pitch": 60, "duration": 1, "velocity": 88}, {"time": 356, "pitch": 62, "duration": 9, "velocity": 68}, {"time": 362, "pitch": 57, "duration": 25, "velocity": 73}, {"time": 362, "pitch": 69, "duration": 5, "velocity": 81}, {"time": 368, "pitch": 67, "duration": 13, "velocity": 74}, {"time": 374, "pitch": 48, "duration": 6, "velocity": 41}, {"time": 374, "pitch": 60, "duration": 6, "velocity": 76}, {"time": 380, "pitch": 53, "duration": 9, "velocity": 68}, {"time": 380, "pitch": 62, "duration": 6, "velocity": 77}, {"time": 386, "pitch": 67, "duration": 11, "velocity": 85}, {"time": 392, "pitch": 40, "duration": 22, "velocity": 73}, {"time": 398, "pitch": 52, "duration": 13, "velocity": 54}, {"time": 398, "pitch": 55, "duration": 5, "velocity": 78}, {"time": 404, "pitch": 59, "duration": 9, "velocity": 62}, {"time": 404, "pitch": 60, "duration": 7, "velocity": 77}, {"time": 410, "pitch": 55, "duration": 4, "velocity": 50}, {"time": 410, "pitch": 62, "duration": 12, "velocity": 77}, {"time": 416, "pitch": 41, "duration": 26, "velocity": 63}, {"time": 416, "pitch": 53, "duration": 26, "velocity": 61}, {"time": 416, "pitch": 57, "duration": 26, "velocity": 69}, {"time": 416, "pitch": 60, "duration": 12, "velocity": 72}, {"time": 422, "pitch": 60, "duration": 6, "velocity": 69}, {"time": 428, "pitch": 67, "duration": 18, "velocity": 88}, {"time": 440, "pitch": 43, "duration": 41, "velocity": 67}, {"time": 446, "pitch": 50, "duration": 15, "velocity": 64}, {"time": 452, "pitch": 62, "duration": 20, "velocity": 86}, {"time": 458, "pitch": 59, "duration": 29, "velocity": 76}, {"time": 470, "pitch": 50, "duration": 10, "velocity": 54}, {"time": 476, "pitch": 62, "duration": 11, "velocity": 89}, {"time": 482, "pitch": 55, "duration": 6, "velocity": 61}, {"time": 488, "pitch": 38, "duration": 35, "velocity": 63}, {"time": 494, "pitch": 45, "duration": 30, "velocity": 36}, {"time": 500, "pitch": 66, "duration": 20, "velocity": 86}, {"time": 506, "pitch": 62, "duration": 29, "velocity": 61}, {"time": 518, "pitch": 50, "duration": 13, "velocity": 40}, {"time": 524, "pitch": 66, "duration": 11, "velocity": 92}, {"time": 536, "pitch": 41, "duration": 39, "velocity": 66}, {"time": 542, "pitch": 48, "duration": 21, "velocity": 60}, {"time": 548, "pitch": 60, "duration": 21, "velocity": 68}, {"time": 554, "pitch": 57, "duration": 26, "velocity": 72}, {"time": 566, "pitch": 48, "duration": 9, "velocity": 49}, {"time": 572, "pitch": 60, "duration": 8, "velocity": 76}, {"time": 584, "pitch": 48, "duration": 11, "velocity": 69}, {"time": 590, "pitch": 55, "duration": 13, "velocity": 72}, {"time": 596, "pitch": 64, "duration": 10, "velocity": 88}, {"time": 602, "pitch": 60, "duration": 5, "velocity": 71}, {"time": 608, "pitch": 38, "duration": 12, "velocity": 70}, {"time": 614, "pitch": 57, "duration": 20, "velocity": 75}, {"time": 620, "pitch": 66, "duration": 12, "velocity": 86}, {"time": 626, "pitch": 62, "duration": 5, "velocity": 56}, {"time": 632, "pitch": 43, "duration": 38, "velocity": 61}, {"time": 638, "pitch": 50, "duration": 20, "velocity": 51}, {"time": 644, "pitch": 62, "duration": 20, "velocity": 85}, {"time": 650, "pitch": 59, "duration": 29, "velocity": 83}, {"time": 662, "pitch": 50, "duration": 6, "velocity": 46}, {"time": 668, "pitch": 62, "duration": 11, "velocity": 76}, {"time": 674, "pitch": 55, "duration": 6, "velocity": 48}, {"time": 680, "pitch": 38, "duration": 37, "velocity": 69}, {"time": 686, "pitch": 45, "duration": 34, "velocity": 39}, {"time": 692, "pitch": 50, "duration": 14, "velocity": 58}, {"time": 698, "pitch": 66, "duration": 28, "velocity": 97}, {"time": 710, "pitch": 50, "duration": 5, "velocity": 69}, {"time": 716, "pitch": 62, "duration": 11, "velocity": 68}, {"time": 722, "pitch": 57, "duration": 6, "velocity": 74}, {"time": 728, "pitch": 41, "duration": 35, "velocity": 50}, {"time": 734, "pitch": 48, "duration": 20, "velocity": 49}, {"time": 740, "pitch": 53, "duration": 9, "velocity": 74}, {"time": 746, "pitch": 60, "duration": 28, "velocity": 95}, {"time": 758, "pitch": 48, "duration": 4, "velocity": 50}, {"time": 764, "pitch": 57, "duration": 11, "velocity": 82}, {"time": 770, "pitch": 53, "duration": 5, "velocity": 58}, {"time": 776, "pitch": 36, "duration": 22, "velocity": 79}, {"time": 782, "pitch": 43, "duration": 18, "velocity": 53}, {"time": 788, "pitch": 48, "duration": 6, "velocity": 81}, {"time": 794, "pitch": 64, "duration": 5, "velocity": 78}, {"time": 800, "pitch": 38, "duration": 17, "velocity": 88}, {"time": 806, "pitch": 45, "duration": 12, "velocity": 54}, {"time": 812, "pitch": 50, "duration": 11, "velocity": 86}, {"time": 812, "pitch": 66, "duration": 12, "velocity": 112}, {"time": 818, "pitch": 62, "duration": 7, "velocity": 65}, {"time": 824, "pitch": 43, "duration": 42, "velocity": 65}, {"time": 830, "pitch": 50, "duration": 21, "velocity": 58}, {"time": 836, "pitch": 55, "duration": 8, "velocity": 71}, {"time": 842, "pitch": 62, "duration": 28, "velocity": 97}, {"time": 854, "pitch": 50, "duration": 10, "velocity": 62}, {"time": 860, "pitch": 59, "duration": 10, "velocity": 81}, {"time": 866, "pitch": 55, "duration": 6, "velocity": 70}, {"time": 872, "pitch": 38, "duration": 43, "velocity": 73}, {"time": 878, "pitch": 45, "duration": 37, "velocity": 57}, {"time": 884, "pitch": 50, "duration": 15, "velocity": 89}, {"time": 890, "pitch": 57, "duration": 13, "velocity": 83}, {"time": 896, "pitch": 66, "duration": 22, "velocity": 122}, {"time": 902, "pitch": 50, "duration": 6, "velocity": 83}, {"time": 908, "pitch": 62, "duration": 10, "velocity": 93}, {"time": 914, "pitch": 57, "duration": 6, "velocity": 92}, {"time": 920, "pitch": 41, "duration": 34, "velocity": 83}, {"time": 926, "pitch": 48, "duration": 19, "velocity": 78}, {"time": 932, "pitch": 60, "duration": 32, "velocity": 88}, {"time": 938, "pitch": 57, "duration": 20, "velocity": 96}, {"time": 950, "pitch": 48, "duration": 4, "velocity": 59}, {"time": 956, "pitch": 53, "duration": 8, "velocity": 88}, {"time": 962, "pitch": 57, "duration": 3, "velocity": 59}, {"time": 968, "pitch": 36, "duration": 22, "velocity": 82}, {"time": 974, "pitch": 55, "duration": 11, "velocity": 77}, {"time": 980, "pitch": 64, "duration": 10, "velocity": 85}, {"time": 986, "pitch": 60, "duration": 7, "velocity": 88}, {"time": 992, "pitch": 38, "duration": 23, "velocity": 90}, {"time": 998, "pitch": 57, "duration": 8, "velocity": 82}, {"time": 1004, "pitch": 62, "duration": 11, "velocity": 96}, {"time": 1010, "pitch": 57, "duration": 6, "velocity": 92}, {"time": 1016, "pitch": 43, "duration": 41, "velocity": 67}, {"time": 1022, "pitch": 50, "duration": 15, "velocity": 64}, {"time": 1028, "pitch": 62, "duration": 20, "velocity": 86}, {"time": 1034, "pitch": 59, "duration": 29, "velocity": 76}, {"time": 1046, "pitch": 50, "duration": 10, "velocity": 54}, {"time": 1052, "pitch": 62, "duration": 11, "velocity": 89}, {"time": 1058, "pitch": 55, "duration": 6, "velocity": 61}, {"time": 1064, "pitch": 38, "duration": 35, "velocity": 63}, {"time": 1070, "pitch": 45, "duration": 30, "velocity": 36}, {"time": 1076, "pitch": 66, "duration": 20, "velocity": 86}, {"time": 1082, "pitch": 62, "duration": 29, "velocity": 61}, {"time": 1094, "pitch": 50, "duration": 13, "velocity": 40}, {"time": 1100, "pitch": 66, "duration": 11, "velocity": 92}, {"time": 1112, "pitch": 41, "duration": 39, "velocity": 66}, {"time": 1118, "pitch": 48, "duration": 21, "velocity": 60}, {"time": 1124, "pitch": 60, "duration": 21, "velocity": 68}, {"time": 1130, "pitch": 57, "duration": 26, "velocity": 72}, {"time": 1142, "pitch": 48, "duration": 9, "velocity": 49}, {"time": 1148, "pitch": 60, "duration": 8, "velocity": 76}, {"time": 1160, "pitch": 48, "duration": 11, "velocity": 69}, {"time": 1166, "pitch": 55, "duration": 13, "velocity": 72}, {"time": 1172, "pitch": 64, "duration": 10, "velocity": 88}, {"time": 1178, "pitch": 60, "duration": 5, "velocity": 71}, {"time": 1184, "pitch": 38, "duration": 12, "velocity": 70}, {"time": 1190, "pitch": 57, "duration": 20, "velocity": 75}, {"time": 1196, "pitch": 66, "duration": 12, "velocity": 86}, {"time": 1202, "pitch": 62, "duration": 5, "velocity": 56}, {"time": 1208, "pitch": 43, "duration": 38, "velocity": 61}, {"time": 1214, "pitch": 50, "duration": 20, "velocity": 51}, {"time": 1220, "pitch": 62, "duration": 20, "velocity": 85}, {"time": 1226, "pitch": 59, "duration": 29, "velocity": 83}, {"time": 1238, "pitch": 50, "duration": 6, "velocity": 46}, {"time": 1244, "pitch": 62, "duration": 11, "velocity": 76}, {"time": 1250, "pitch": 55, "duration": 6, "velocity": 48}, {"time": 1256, "pitch": 38, "duration": 37, "velocity": 69}, {"time": 1262, "pitch": 45, "duration": 34, "velocity": 39}, {"time": 1268, "pitch": 50, "duration": 14, "velocity": 58}, {"time": 1274, "pitch": 66, "duration": 28, "velocity": 97}, {"time": 1286, "pitch": 50, "duration": 5, "velocity": 69}, {"time": 1292, "pitch": 62, "duration": 11, "velocity": 68}, {"time": 1298, "pitch": 57, "duration": 6, "velocity": 74}, {"time": 1304, "pitch": 41, "duration": 35, "velocity": 50}, {"time": 1310, "pitch": 48, "duration": 20, "velocity": 49}, {"time": 1316, "pitch": 53, "duration": 9, "velocity": 74}, {"time": 1322, "pitch": 60, "duration": 28, "velocity": 95}, {"time": 1334, "pitch": 48, "duration": 4, "velocity": 50}, {"time": 1340, "pitch": 57, "duration": 11, "velocity": 82}, {"time": 1346, "pitch": 53, "duration": 5, "velocity": 58}, {"time": 1352, "pitch": 36, "duration": 22, "velocity": 79}, {"time": 1358, "pitch": 43, "duration": 18, "velocity": 53}, {"time": 1364, "pitch": 48, "duration": 6, "velocity": 81}, {"time": 1370, "pitch": 64, "duration": 5, "velocity": 78}, {"time": 1376, "pitch": 38, "duration": 17, "velocity": 88}, {"time": 1382, "pitch": 45, "duration": 12, "velocity": 54}, {"time": 1388, "pitch": 50, "duration": 11, "velocity": 86}, {"time": 1388, "pitch": 66, "duration": 12, "velocity": 112}, {"time": 1394, "pitch": 62, "duration": 6, "velocity": 65}, {"time": 1400, "pitch": 43, "duration": 39, "velocity": 88}, {"time": 1406, "pitch": 50, "duration": 32, "velocity": 47}, {"time": 1412, "pitch": 55, "duration": 14, "velocity": 90}, {"time": 1418, "pitch": 71, "duration": 33, "velocity": 90}, {"time": 1424, "pitch": 67, "duration": 14, "velocity": 63}, {"time": 1430, "pitch": 55, "duration": 6, "velocity": 59}, {"time": 1436, "pitch": 62, "duration": 7, "velocity": 93}, {"time": 1442, "pitch": 67, "duration": 9, "velocity": 69}, {"time": 1448, "pitch": 40, "duration": 22, "velocity": 92}, {"time": 1454, "pitch": 64, "duration": 7, "velocity": 69}, {"time": 1460, "pitch": 71, "duration": 8, "velocity": 93}, {"time": 1466, "pitch": 64, "duration": 4, "velocity": 83}, {"time": 1472, "pitch": 42, "duration": 16, "velocity": 102}, {"time": 1478, "pitch": 62, "duration": 16, "velocity": 63}, {"time": 1484, "pitch": 66, "duration": 11, "velocity": 102}, {"time": 1496, "pitch": 43, "duration": 39, "velocity": 96}, {"time": 1502, "pitch": 50, "duration": 31, "velocity": 76}, {"time": 1508, "pitch": 55, "duration": 14, "velocity": 112}, {"time": 1514, "pitch": 62, "duration": 9, "velocity": 92}, {"time": 1520, "pitch": 71, "duration": 21, "velocity": 117}, {"time": 1526, "pitch": 55, "duration": 6, "velocity": 102}, {"time": 1532, "pitch": 67, "duration": 8, "velocity": 99}, {"time": 1538, "pitch": 62, "duration": 6, "velocity": 79}, {"time": 1544, "pitch": 38, "duration": 44, "velocity": 97}, {"time": 1550, "pitch": 45, "duration": 42, "velocity": 77}, {"time": 1556, "pitch": 50, "duration": 14, "velocity": 92}, {"time": 1562, "pitch": 62, "duration": 4, "velocity": 77}, {"time": 1562, "pitch": 66, "duration": 4, "velocity": 72}, {"time": 1568, "pitch": 62, "duration": 15, "velocity": 107}, {"time": 1568, "pitch": 66, "duration": 15, "velocity": 117}, {"time": 1574, "pitch": 50, "duration": 6, "velocity": 89}, {"time": 1580, "pitch": 57, "duration": 9, "velocity": 95}, {"time": 1586, "pitch": 62, "duration": 4, "velocity": 85}, {"time": 1586, "pitch": 66, "duration": 6, "velocity": 93}, {"time": 1592, "pitch": 40, "duration": 35, "velocity": 89}, {"time": 1598, "pitch": 47, "duration": 30, "velocity": 69}, {"time": 1604, "pitch": 52, "duration": 13, "velocity": 88}, {"time": 1610, "pitch": 59, "duration": 13, "velocity": 82}, {"time": 1616, "pitch": 67, "duration": 23, "velocity": 97}, {"time": 1622, "pitch": 52, "duration": 8, "velocity": 85}, {"time": 1628, "pitch": 64, "duration": 10, "velocity": 93}, {"time": 1634, "pitch": 59, "duration": 5, "velocity": 82}, {"time": 1640, "pitch": 47, "duration": 35, "velocity": 75}, {"time": 1646, "pitch": 54, "duration": 28, "velocity": 86}, {"time": 1652, "pitch": 59, "duration": 13, "velocity": 85}, {"time": 1658, "pitch": 66, "duration": 4, "velocity": 90}, {"time": 1658, "pitch": 71, "duration": 4, "velocity": 77}, {"time": 1664, "pitch": 66, "duration": 14, "velocity": 107}, {"time": 1664, "pitch": 71, "duration": 22, "velocity": 92}, {"time": 1670, "pitch": 59, "duration": 4, "velocity": 93}, {"time": 1676, "pitch": 62, "duration": 11, "velocity": 99}, {"time": 1682, "pitch": 66, "duration": 5, "velocity": 97}, {"time": 1688, "pitch": 36, "duration": 31, "velocity": 85}, {"time": 1694, "pitch": 43, "duration": 25, "velocity": 74}, {"time": 1700, "pitch": 48, "duration": 13, "velocity": 81}, {"time": 1706, "pitch": 55, "duration": 13, "velocity": 79}, {"time": 1712, "pitch": 64, "duration": 22, "velocity": 96}, {"time": 1718, "pitch": 48, "duration": 4, "velocity": 90}, {"time": 1721, "pitch": 60, "duration": 10, "velocity": 88}, {"time": 1730, "pitch": 55, "duration": 5, "velocity": 81}, {"time": 1736, "pitch": 47, "duration": 15, "velocity": 78}, {"time": 1742, "pitch": 54, "duration": 7, "velocity": 75}, {"time": 1748, "pitch": 66, "duration": 10, "velocity": 117}, {"time": 1754, "pitch": 62, "duration": 5, "velocity": 81}, {"time": 1760, "pitch": 40, "duration": 16, "velocity": 90}, {"time": 1766, "pitch": 47, "duration": 11, "velocity": 72}, {"time": 1772, "pitch": 52, "duration": 10, "velocity": 95}, {"time": 1772, "pitch": 67, "duration": 12, "velocity": 83}, {"time": 1778, "pitch": 64, "duration": 5, "velocity": 85}, {"time": 1784, "pitch": 45, "duration": 35, "velocity": 74}, {"time": 1790, "pitch": 52, "duration": 21, "velocity": 67}, {"time": 1796, "pitch": 57, "duration": 7, "velocity": 83}, {"time": 1802, "pitch": 60, "duration": 7, "velocity": 79}, {"time": 1808, "pitch": 64, "duration": 22, "velocity": 96}, {"time": 1814, "pitch": 52, "duration": 4, "velocity": 67}, {"time": 1820, "pitch": 60, "duration": 10, "velocity": 96}, {"time": 1826, "pitch": 57, "duration": 6, "velocity": 77}, {"time": 1832, "pitch": 38, "duration": 37, "velocity": 90}, {"time": 1838, "pitch": 45, "duration": 32, "velocity": 83}, {"time": 1844, "pitch": 50, "duration": 15, "velocity": 85}, {"time": 1850, "pitch": 57, "duration": 15, "velocity": 86}, {"time": 1856, "pitch": 66, "duration": 10, "velocity": 127}, {"time": 1862, "pitch": 50, "duration": 8, "velocity": 96}, {"time": 1868, "pitch": 62, "duration": 11, "velocity": 96}, {"time": 1868, "pitch": 66, "duration": 11, "velocity": 107}, {"time": 1874, "pitch": 57, "duration": 5, "velocity": 97}, {"time": 1880, "pitch": 43, "duration": 37, "velocity": 93}, {"time": 1886, "pitch": 50, "duration": 30, "velocity": 100}, {"time": 1892, "pitch": 55, "duration": 15, "velocity": 107}, {"time": 1898, "pitch": 62, "duration": 12, "velocity": 90}, {"time": 1904, "pitch": 71, "duration": 22, "velocity": 112}, {"time": 1910, "pitch": 55, "duration": 4, "velocity": 95}, {"time": 1916, "pitch": 67, "duration": 10, "velocity": 99}, {"time": 1922, "pitch": 62, "duration": 6, "velocity": 100}, {"time": 1928, "pitch": 38, "duration": 39, "velocity": 81}, {"time": 1934, "pitch": 45, "duration": 36, "velocity": 63}, {"time": 1940, "pitch": 50, "duration": 14, "velocity": 78}, {"time": 1946, "pitch": 57, "duration": 7, "velocity": 86}, {"time": 1952, "pitch": 62, "duration": 14, "velocity": 83}, {"time": 1952, "pitch": 66, "duration": 25, "velocity": 93}, {"time": 1958, "pitch": 50, "duration": 5, "velocity": 95}, {"time": 1964, "pitch": 57, "duration": 10, "velocity": 95}, {"time": 1970, "pitch": 62, "duration": 6, "velocity": 97}, {"time": 1976, "pitch": 40, "duration": 33, "velocity": 78}, {"time": 1982, "pitch": 47, "duration": 28, "velocity": 69}, {"time": 1988, "pitch": 52, "duration": 14, "velocity": 92}, {"time": 1994, "pitch": 59, "duration": 17, "velocity": 83}, {"time": 2000, "pitch": 67, "duration": 22, "velocity": 99}, {"time": 2006, "pitch": 52, "duration": 5, "velocity": 95}, {"time": 2012, "pitch": 64, "duration": 10, "velocity": 86}, {"time": 2018, "pitch": 59, "duration": 6, "velocity": 93}, {"time": 2024, "pitch": 47, "duration": 34, "velocity": 79}, {"time": 2030, "pitch": 54, "duration": 22, "velocity": 59}, {"time": 2036, "pitch": 59, "duration": 6, "velocity": 96}, {"time": 2042, "pitch": 62, "duration": 6, "velocity": 88}, {"time": 2048, "pitch": 66, "duration": 23, "velocity": 102}, {"time": 2054, "pitch": 54, "duration": 3, "velocity": 77}, {"time": 2060, "pitch": 62, "duration": 12, "velocity": 90}, {"time": 2066, "pitch": 59, "duration": 6, "velocity": 85}, {"time": 2072, "pitch": 36, "duration": 34, "velocity": 85}, {"time": 2078, "pitch": 43, "duration": 27, "velocity": 74}, {"time": 2084, "pitch": 48, "duration": 14, "velocity": 83}, {"time": 2090, "pitch": 55, "duration": 3, "velocity": 38}, {"time": 2090, "pitch": 60, "duration": 5, "velocity": 73}, {"time": 2090, "pitch": 64, "duration": 4, "velocity": 72}, {"time": 2096, "pitch": 60, "duration": 14, "velocity": 100}, {"time": 2096, "pitch": 64, "duration": 22, "velocity": 95}, {"time": 2102, "pitch": 48, "duration": 6, "velocity": 86}, {"time": 2108, "pitch": 55, "duration": 7, "velocity": 92}, {"time": 2114, "pitch": 60, "duration": 5, "velocity": 97}, {"time": 2120, "pitch": 47, "duration": 14, "velocity": 76}, {"time": 2126, "pitch": 54, "duration": 7, "velocity": 82}, {"time": 2132, "pitch": 62, "duration": 11, "velocity": 70}, {"time": 2132, "pitch": 66, "duration": 10, "velocity": 90}, {"time": 2138, "pitch": 59, "duration": 7, "velocity": 73}, {"time": 2144, "pitch": 40, "duration": 22, "velocity": 76}, {"time": 2150, "pitch": 47, "duration": 16, "velocity": 75}, {"time": 2156, "pitch": 52, "duration": 8, "velocity": 72}, {"time": 2156, "pitch": 64, "duration": 10, "velocity": 77}, {"time": 2156, "pitch": 67, "duration": 10, "velocity": 76}, {"time": 2162, "pitch": 59, "duration": 4, "velocity": 90}, {"time": 2168, "pitch": 41, "duration": 41, "velocity": 82}, {"time": 2174, "pitch": 48, "duration": 34, "velocity": 72}, {"time": 2180, "pitch": 53, "duration": 14, "velocity": 85}, {"time": 2186, "pitch": 60, "duration": 10, "velocity": 78}, {"time": 2192, "pitch": 65, "duration": 14, "velocity": 82}, {"time": 2192, "pitch": 69, "duration": 14, "velocity": 89}, {"time": 2198, "pitch": 53, "duration": 6, "velocity": 85}, {"time": 2204, "pitch": 60, "duration": 11, "velocity": 92}, {"time": 2210, "pitch": 65, "duration": 4, "velocity": 88}, {"time": 2210, "pitch": 69, "duration": 4, "velocity": 90}, {"time": 2216, "pitch": 36, "duration": 21, "velocity": 73}, {"time": 2222, "pitch": 60, "duration": 7, "velocity": 59}, {"time": 2228, "pitch": 48, "duration": 6, "velocity": 42}, {"time": 2228, "pitch": 64, "duration": 11, "velocity": 88}, {"time": 2228, "pitch": 67, "duration": 10, "velocity": 90}, {"time": 2234, "pitch": 60, "duration": 6, "velocity": 86}, {"time": 2240, "pitch": 38, "duration": 12, "velocity": 85}, {"time": 2246, "pitch": 45, "duration": 8, "velocity": 76}, {"time": 2252, "pitch": 62, "duration": 12, "velocity": 79}, {"time": 2252, "pitch": 66, "duration": 13, "velocity": 82}, {"time": 2255, "pitch": 57, "duration": 7, "velocity": 69}, {"time": 2264, "pitch": 43, "duration": 46, "velocity": 68}, {"time": 2270, "pitch": 50, "duration": 21, "velocity": 72}, {"time": 2276, "pitch": 55, "duration": 11, "velocity": 81}, {"time": 2282, "pitch": 59, "duration": 16, "velocity": 72}, {"time": 2288, "pitch": 67, "duration": 24, "velocity": 97}, {"time": 2294, "pitch": 50, "duration": 18, "velocity": 71}, {"time": 2300, "pitch": 62, "duration": 12, "velocity": 88}, {"time": 2306, "pitch": 59, "duration": 6, "velocity": 72}, {"time": 2312, "pitch": 42, "duration": 36, "velocity": 86}, {"time": 2312, "pitch": 62, "duration": 15, "velocity": 69}, {"time": 2312, "pitch": 66, "duration": 15, "velocity": 69}, {"time": 2324, "pitch": 54, "duration": 12, "velocity": 34}, {"time": 2330, "pitch": 59, "duration": 13, "velocity": 63}, {"time": 2330, "pitch": 62, "duration": 15, "velocity": 79}, {"time": 2330, "pitch": 66, "duration": 22, "velocity": 77}, {"time": 2342, "pitch": 54, "duration": 5, "velocity": 72}, {"time": 2348, "pitch": 62, "duration": 10, "velocity": 86}, {"time": 2354, "pitch": 59, "duration": 6, "velocity": 69}, {"time": 2360, "pitch": 41, "duration": 35, "velocity": 75}, {"time": 2366, "pitch": 48, "duration": 28, "velocity": 38}, {"time": 2372, "pitch": 53, "duration": 12, "velocity": 73}, {"time": 2378, "pitch": 65, "duration": 27, "velocity": 72}, {"time": 2390, "pitch": 53, "duration": 4, "velocity": 68}, {"time": 2396, "pitch": 69, "duration": 10, "velocity": 86}, {"time": 2402, "pitch": 60, "duration": 7, "velocity": 74}, {"time": 2408, "pitch": 36, "duration": 20, "velocity": 72}, {"time": 2414, "pitch": 60, "duration": 14, "velocity": 77}, {"time": 2420, "pitch": 67, "duration": 10, "velocity": 90}, {"time": 2426, "pitch": 64, "duration": 5, "velocity": 73}, {"time": 2432, "pitch": 38, "duration": 9, "velocity": 74}, {"time": 2438, "pitch": 57, "duration": 14, "velocity": 61}, {"time": 2444, "pitch": 66, "duration": 12, "velocity": 102}, {"time": 2450, "pitch": 62, "duration": 6, "velocity": 77}, {"time": 2456, "pitch": 43, "duration": 36, "velocity": 89}, {"time": 2462, "pitch": 50, "duration": 21, "velocity": 49}, {"time": 2468, "pitch": 55, "duration": 7, "velocity": 96}, {"time": 2474, "pitch": 67, "duration": 20, "velocity": 92}, {"time": 2474, "pitch": 71, "duration": 20, "velocity": 93}, {"time": 2486, "pitch": 50, "duration": 6, "velocity": 79}, {"time": 2492, "pitch": 62, "duration": 17, "velocity": 88}, {"time": 2498, "pitch": 71, "duration": 18, "velocity": 88}, {"time": 2504, "pitch": 42, "duration": 37, "velocity": 88}, {"time": 2510, "pitch": 54, "duration": 18, "velocity": 81}, {"time": 2516, "pitch": 62, "duration": 31, "velocity": 65}, {"time": 2522, "pitch": 66, "duration": 16, "velocity": 97}, {"time": 2531, "pitch": 54, "duration": 7, "velocity": 82}, {"time": 2540, "pitch": 71, "duration": 11, "velocity": 95}, {"time": 2546, "pitch": 66, "duration": 5, "velocity": 82}, {"time": 2549, "pitch": 41, "duration": 35, "velocity": 66}, {"time": 2558, "pitch": 48, "duration": 18, "velocity": 55}, {"time": 2564, "pitch": 53, "duration": 8, "velocity": 73}, {"time": 2570, "pitch": 60, "duration": 2, "velocity": 41}, {"time": 2570, "pitch": 65, "duration": 20, "velocity": 81}, {"time": 2570, "pitch": 69, "duration": 29, "velocity": 86}, {"time": 2579, "pitch": 48, "duration": 4, "velocity": 69}, {"time": 2588, "pitch": 60, "duration": 12, "velocity": 93}, {"time": 2594, "pitch": 65, "duration": 5, "velocity": 70}, {"time": 2600, "pitch": 36, "duration": 21, "velocity": 81}, {"time": 2606, "pitch": 43, "duration": 18, "velocity": 66}, {"time": 2612, "pitch": 48, "duration": 6, "velocity": 96}, {"time": 2618, "pitch": 64, "duration": 6, "velocity": 93}, {"time": 2624, "pitch": 38, "duration": 15, "velocity": 95}, {"time": 2630, "pitch": 45, "duration": 10, "velocity": 81}, {"time": 2636, "pitch": 50, "duration": 9, "velocity": 88}, {"time": 2636, "pitch": 66, "duration": 12, "velocity": 89}, {"time": 2642, "pitch": 62, "duration": 5, "velocity": 85}, {"time": 2648, "pitch": 43, "duration": 35, "velocity": 89}, {"time": 2654, "pitch": 50, "duration": 20, "velocity": 74}, {"time": 2660, "pitch": 55, "duration": 8, "velocity": 99}, {"time": 2666, "pitch": 62, "duration": 13, "velocity": 86}, {"time": 2672, "pitch": 71, "duration": 22, "velocity": 102}, {"time": 2678, "pitch": 50, "duration": 4, "velocity": 90}, {"time": 2684, "pitch": 67, "duration": 11, "velocity": 97}, {"time": 2687, "pitch": 62, "duration": 6, "velocity": 92}, {"time": 2696, "pitch": 41, "duration": 14, "velocity": 85}, {"time": 2702, "pitch": 48, "duration": 7, "velocity": 74}, {"time": 2708, "pitch": 69, "duration": 10, "velocity": 96}, {"time": 2714, "pitch": 65, "duration": 5, "velocity": 83}, {"time": 2720, "pitch": 38, "duration": 20, "velocity": 78}, {"time": 2726, "pitch": 57, "duration": 11, "velocity": 55}, {"time": 2732, "pitch": 66, "duration": 10, "velocity": 100}, {"time": 2738, "pitch": 62, "duration": 6, "velocity": 66}, {"time": 2744, "pitch": 36, "duration": 33, "velocity": 90}, {"time": 2750, "pitch": 43, "duration": 27, "velocity": 64}, {"time": 2756, "pitch": 48, "duration": 15, "velocity": 81}, {"time": 2762, "pitch": 60, "duration": 7, "velocity": 89}, {"time": 2768, "pitch": 64, "duration": 12, "velocity": 90}, {"time": 2774, "pitch": 48, "duration": 4, "velocity": 85}, {"time": 2780, "pitch": 60, "duration": 10, "velocity": 83}, {"time": 2786, "pitch": 64, "duration": 6, "velocity": 95}, {"time": 2792, "pitch": 39, "duration": 34, "velocity": 93}, {"time": 2798, "pitch": 46, "duration": 28, "velocity": 62}, {"time": 2804, "pitch": 51, "duration": 14, "velocity": 92}, {"time": 2810, "pitch": 55, "duration": 13, "velocity": 89}, {"time": 2816, "pitch": 63, "duration": 23, "velocity": 117}, {"time": 2822, "pitch": 51, "duration": 6, "velocity": 99}, {"time": 2828, "pitch": 58, "duration": 10, "velocity": 122}, {"time": 2834, "pitch": 55, "duration": 5, "velocity": 97}, {"time": 2840, "pitch": 41, "duration": 20, "velocity": 88}, {"time": 2846, "pitch": 48, "duration": 15, "velocity": 65}, {"time": 2852, "pitch": 53, "duration": 7, "velocity": 92}, {"time": 2858, "pitch": 60, "duration": 52, "velocity": 79}, {"time": 2864, "pitch": 41, "duration": 45, "velocity": 63}, {"time": 2864, "pitch": 48, "duration": 45, "velocity": 62}, {"time": 2864, "pitch": 53, "duration": 46, "velocity": 83}, {"time": 2864, "pitch": 65, "duration": 46, "velocity": 79}, {"time": 2864, "pitch": 69, "duration": 46, "velocity": 86}, {"time": 2912, "pitch": 43, "duration": 41, "velocity": 67}, {"time": 2918, "pitch": 50, "duration": 15, "velocity": 64}, {"time": 2924, "pitch": 62, "duration": 20, "velocity": 86}, {"time": 2930, "pitch": 59, "duration": 29, "velocity": 76}, {"time": 2942, "pitch": 50, "duration": 10, "velocity": 54}, {"time": 2948, "pitch": 62, "duration": 11, "velocity": 89}, {"time": 2954, "pitch": 55, "duration": 6, "velocity": 61}, {"time": 2960, "pitch": 38, "duration": 35, "velocity": 63}, {"time": 2966, "pitch": 45, "duration": 30, "velocity": 36}, {"time": 2972, "pitch": 66, "duration": 20, "velocity": 86}, {"time": 2978, "pitch": 62, "duration": 29, "velocity": 61}, {"time": 2990, "pitch": 50, "duration": 13, "velocity": 40}, {"time": 2996, "pitch": 66, "duration": 11, "velocity": 92}, {"time": 3008, "pitch": 41, "duration": 39, "velocity": 66}, {"time": 3014, "pitch": 48, "duration": 21, "velocity": 60}, {"time": 3020, "pitch": 60, "duration": 21, "velocity": 68}, {"time": 3026, "pitch": 57, "duration": 26, "velocity": 72}, {"time": 3038, "pitch": 48, "duration": 9, "velocity": 49}, {"time": 3044, "pitch": 60, "duration": 8, "velocity": 76}, {"time": 3056, "pitch": 48, "duration": 11, "velocity": 69}, {"time": 3062, "pitch": 55, "duration": 13, "velocity": 72}, {"time": 3068, "pitch": 64, "duration": 10, "velocity": 88}, {"time": 3074, "pitch": 60, "duration": 5, "velocity": 71}, {"time": 3080, "pitch": 38, "duration": 12, "velocity": 70}, {"time": 3086, "pitch": 57, "duration": 20, "velocity": 75}, {"time": 3092, "pitch": 66, "duration": 12, "velocity": 86}, {"time": 3098, "pitch": 62, "duration": 5, "velocity": 56}, {"time": 3104, "pitch": 43, "duration": 38, "velocity": 61}, {"time": 3110, "pitch": 50, "duration": 20, "velocity": 51}, {"time": 3116, "pitch": 62, "duration": 20, "velocity": 85}, {"time": 3122, "pitch": 59, "duration": 29, "velocity": 83}, {"time": 3134, "pitch": 50, "duration": 6, "velocity": 46}, {"time": 3140, "pitch": 62, "duration": 11, "velocity": 76}, {"time": 3146, "pitch": 55, "duration": 6, "velocity": 48}, {"time": 3152, "pitch": 38, "duration": 37, "velocity": 69}, {"time": 3158, "pitch": 45, "duration": 34, "velocity": 39}, {"time": 3164, "pitch": 50, "duration": 14, "velocity": 58}, {"time": 3170, "pitch": 66, "duration": 28, "velocity": 97}, {"time": 3182, "pitch": 50, "duration": 5, "velocity": 69}, {"time": 3188, "pitch": 62, "duration": 11, "velocity": 68}, {"time": 3194, "pitch": 57, "duration": 6, "velocity": 74}, {"time": 3200, "pitch": 41, "duration": 35, "velocity": 50}, {"time": 3206, "pitch": 48, "duration": 20, "velocity": 49}, {"time": 3212, "pitch": 53, "duration": 9, "velocity": 74}, {"time": 3218, "pitch": 60, "duration": 28, "velocity": 95}, {"time": 3230, "pitch": 48, "duration": 4, "velocity": 50}, {"time": 3236, "pitch": 57, "duration": 11, "velocity": 82}, {"time": 3242, "pitch": 53, "duration": 5, "velocity": 58}, {"time": 3248, "pitch": 36, "duration": 22, "velocity": 79}, {"time": 3254, "pitch": 43, "duration": 18, "velocity": 53}, {"time": 3260, "pitch": 48, "duration": 6, "velocity": 81}, {"time": 3266, "pitch": 64, "duration": 5, "velocity": 78}, {"time": 3272, "pitch": 38, "duration": 17, "velocity": 88}, {"time": 3278, "pitch": 45, "duration": 12, "velocity": 54}, {"time": 3284, "pitch": 50, "duration": 11, "velocity": 86}, {"time": 3284, "pitch": 66, "duration": 12, "velocity": 112}, {"time": 3290, "pitch": 62, "duration": 6, "velocity": 65}, {"time": 3296, "pitch": 43, "duration": 39, "velocity": 88}, {"time": 3302, "pitch": 50, "duration": 32, "velocity": 47}, {"time": 3308, "pitch": 55, "duration": 14, "velocity": 90}, {"time": 3314, "pitch": 71, "duration": 33, "velocity": 90}, {"time": 3320, "pitch": 67, "duration": 14, "velocity": 63}, {"time": 3326, "pitch": 55, "duration": 6, "velocity": 59}, {"time": 3332, "pitch": 62, "duration": 7, "velocity": 93}, {"time": 3338, "pitch": 67, "duration": 9, "velocity": 69}, {"time": 3344, "pitch": 40, "duration": 22, "velocity": 92}, {"time": 3350, "pitch": 64, "duration": 7, "velocity": 69}, {"time": 3356, "pitch": 71, "duration": 8, "velocity": 93}, {"time": 3359, "pitch": 64, "duration": 4, "velocity": 83}, {"time": 3368, "pitch": 42, "duration": 16, "velocity": 102}, {"time": 3374, "pitch": 62, "duration": 16, "velocity": 63}, {"time": 3380, "pitch": 66, "duration": 11, "velocity": 102}, {"time": 3392, "pitch": 43, "duration": 39, "velocity": 96}, {"time": 3398, "pitch": 50, "duration": 31, "velocity": 76}, {"time": 3404, "pitch": 55, "duration": 14, "velocity": 112}, {"time": 3410, "pitch": 62, "duration": 9, "velocity": 92}, {"time": 3416, "pitch": 71, "duration": 21, "velocity": 117}, {"time": 3422, "pitch": 55, "duration": 6, "velocity": 102}, {"time": 3428, "pitch": 67, "duration": 8, "velocity": 99}, {"time": 3434, "pitch": 62, "duration": 6, "velocity": 79}, {"time": 3440, "pitch": 38, "duration": 44, "velocity": 97}, {"time": 3446, "pitch": 45, "duration": 42, "velocity": 77}, {"time": 3452, "pitch": 50, "duration": 14, "velocity": 92}, {"time": 3458, "pitch": 62, "duration": 4, "velocity": 77}, {"time": 3458, "pitch": 66, "duration": 4, "velocity": 72}, {"time": 3464, "pitch": 62, "duration": 15, "velocity": 107}, {"time": 3464, "pitch": 66, "duration": 15, "velocity": 117}, {"time": 3470, "pitch": 50, "duration": 6, "velocity": 89}, {"time": 3476, "pitch": 57, "duration": 9, "velocity": 95}, {"time": 3482, "pitch": 62, "duration": 4, "velocity": 85}, {"time": 3482, "pitch": 66, "duration": 6, "velocity": 93}, {"time": 3488, "pitch": 40, "duration": 35, "velocity": 89}, {"time": 3494, "pitch": 47, "duration": 30, "velocity": 69}, {"time": 3500, "pitch": 52, "duration": 13, "velocity": 88}, {"time": 3506, "pitch": 59, "duration": 13, "velocity": 82}, {"time": 3512, "pitch": 67, "duration": 23, "velocity": 97}, {"time": 3518, "pitch": 52, "duration": 8, "velocity": 85}, {"time": 3524, "pitch": 64, "duration": 10, "velocity": 93}, {"time": 3530, "pitch": 59, "duration": 5, "velocity": 82}, {"time": 3536, "pitch": 47, "duration": 35, "velocity": 75}, {"time": 3542, "pitch": 54, "duration": 28, "velocity": 86}, {"time": 3548, "pitch": 59, "duration": 13, "velocity": 85}, {"time": 3554, "pitch": 66, "duration": 4, "velocity": 90}, {"time": 3554, "pitch": 71, "duration": 4, "velocity": 77}, {"time": 3560, "pitch": 66, "duration": 14, "velocity": 107}, {"time": 3560, "pitch": 71, "duration": 22, "velocity": 92}, {"time": 3566, "pitch": 59, "duration": 4, "velocity": 93}, {"time": 3572, "pitch": 62, "duration": 11, "velocity": 99}, {"time": 3578, "pitch": 66, "duration": 5, "velocity": 97}, {"time": 3584, "pitch": 36, "duration": 31, "velocity": 85}, {"time": 3590, "pitch": 43, "duration": 25, "velocity": 74}, {"time": 3596, "pitch": 48, "duration": 13, "velocity": 81}, {"time": 3602, "pitch": 55, "duration": 13, "velocity": 79}, {"time": 3608, "pitch": 64, "duration": 22, "velocity": 96}, {"time": 3611, "pitch": 48, "duration": 4, "velocity": 90}, {"time": 3620, "pitch": 60, "duration": 10, "velocity": 88}, {"time": 3626, "pitch": 55, "duration": 5, "velocity": 81}, {"time": 3632, "pitch": 47, "duration": 15, "velocity": 78}, {"time": 3638, "pitch": 54, "duration": 7, "velocity": 75}, {"time": 3644, "pitch": 66, "duration": 10, "velocity": 117}, {"time": 3650, "pitch": 62, "duration": 5, "velocity": 81}, {"time": 3656, "pitch": 40, "duration": 16, "velocity": 90}, {"time": 3662, "pitch": 47, "duration": 11, "velocity": 72}, {"time": 3668, "pitch": 52, "duration": 10, "velocity": 95}, {"time": 3668, "pitch": 67, "duration": 12, "velocity": 83}, {"time": 3674, "pitch": 64, "duration": 5, "velocity": 85}, {"time": 3680, "pitch": 45, "duration": 35, "velocity": 74}, {"time": 3686, "pitch": 52, "duration": 21, "velocity": 67}, {"time": 3692, "pitch": 57, "duration": 7, "velocity": 83}, {"time": 3698, "pitch": 60, "duration": 7, "velocity": 79}, {"time": 3704, "pitch": 64, "duration": 22, "velocity": 96}, {"time": 3710, "pitch": 52, "duration": 4, "velocity": 67}, {"time": 3716, "pitch": 60, "duration": 10, "velocity": 96}, {"time": 3722, "pitch": 57, "duration": 6, "velocity": 77}, {"time": 3728, "pitch": 38, "duration": 37, "velocity": 90}, {"time": 3734, "pitch": 45, "duration": 32, "velocity": 83}, {"time": 3740, "pitch": 50, "duration": 15, "velocity": 85}, {"time": 3746, "pitch": 57, "duration": 15, "velocity": 86}, {"time": 3752, "pitch": 66, "duration": 10, "velocity": 127}, {"time": 3758, "pitch": 50, "duration": 8, "velocity": 96}, {"time": 3764, "pitch": 62, "duration": 11, "velocity": 96}, {"time": 3764, "pitch": 66, "duration": 11, "velocity": 107}, {"time": 3770, "pitch": 57, "duration": 5, "velocity": 97}, {"time": 3776, "pitch": 43, "duration": 37, "velocity": 93}, {"time": 3782, "pitch": 50, "duration": 30, "velocity": 100}, {"time": 3788, "pitch": 55, "duration": 15, "velocity": 107}, {"time": 3794, "pitch": 62, "duration": 12, "velocity": 90}, {"time": 3800, "pitch": 71, "duration": 22, "velocity": 112}, {"time": 3806, "pitch": 55, "duration": 4, "velocity": 95}, {"time": 3812, "pitch": 67, "duration": 10, "velocity": 99}, {"time": 3818, "pitch": 62, "duration": 6, "velocity": 100}, {"time": 3824, "pitch": 38, "duration": 39, "velocity": 81}, {"time": 3830, "pitch": 45, "duration": 36, "velocity": 63}, {"time": 3836, "pitch": 50, "duration": 14, "velocity": 78}, {"time": 3842, "pitch": 57, "duration": 7, "velocity": 86}, {"time": 3848, "pitch": 62, "duration": 14, "velocity": 83}, {"time": 3848, "pitch": 66, "duration": 25, "velocity": 93}, {"time": 3854, "pitch": 50, "duration": 5, "velocity": 95}, {"time": 3860, "pitch": 57, "duration": 10, "velocity": 95}, {"time": 3866, "pitch": 62, "duration": 6, "velocity": 97}, {"time": 3872, "pitch": 40, "duration": 33, "velocity": 78}, {"time": 3878, "pitch": 47, "duration": 28, "velocity": 69}, {"time": 3884, "pitch": 52, "duration": 14, "velocity": 92}, {"time": 3890, "pitch": 59, "duration": 17, "velocity": 83}, {"time": 3896, "pitch": 67, "duration": 22, "velocity": 99}, {"time": 3902, "pitch": 52, "duration": 5, "velocity": 95}, {"time": 3908, "pitch": 64, "duration": 10, "velocity": 86}, {"time": 3914, "pitch": 59, "duration": 6, "velocity": 93}, {"time": 3920, "pitch": 47, "duration": 34, "velocity": 79}, {"time": 3926, "pitch": 54, "duration": 22, "velocity": 59}, {"time": 3932, "pitch": 59, "duration": 6, "velocity": 96}, {"time": 3938, "pitch": 62, "duration": 6, "velocity": 88}, {"time": 3944, "pitch": 66, "duration": 23, "velocity": 102}, {"time": 3950, "pitch": 54, "duration": 3, "velocity": 77}, {"time": 3956, "pitch": 62, "duration": 12, "velocity": 90}, {"time": 3962, "pitch": 59, "duration": 6, "velocity": 85}, {"time": 3968, "pitch": 36, "duration": 34, "velocity": 85}, {"time": 3974, "pitch": 43, "duration": 27, "velocity": 74}, {"time": 3980, "pitch": 48, "duration": 14, "velocity": 83}, {"time": 3986, "pitch": 55, "duration": 3, "velocity": 38}, {"time": 3986, "pitch": 60, "duration": 5, "velocity": 73}, {"time": 3986, "pitch": 64, "duration": 4, "velocity": 72}, {"time": 3992, "pitch": 60, "duration": 14, "velocity": 100}, {"time": 3992, "pitch": 64, "duration": 22, "velocity": 95}, {"time": 3998, "pitch": 48, "duration": 6, "velocity": 86}, {"time": 4004, "pitch": 55, "duration": 7, "velocity": 92}, {"time": 4010, "pitch": 60, "duration": 5, "velocity": 97}, {"time": 4016, "pitch": 47, "duration": 14, "velocity": 76}, {"time": 4022, "pitch": 54, "duration": 7, "velocity": 82}, {"time": 4028, "pitch": 62, "duration": 11, "velocity": 70}, {"time": 4028, "pitch": 66, "duration": 10, "velocity": 90}, {"time": 4034, "pitch": 59, "duration": 7, "velocity": 73}, {"time": 4040, "pitch": 40, "duration": 22, "velocity": 76}, {"time": 4046, "pitch": 47, "duration": 16, "velocity": 75}, {"time": 4052, "pitch": 52, "duration": 8, "velocity": 72}, {"time": 4052, "pitch": 64, "duration": 10, "velocity": 77}, {"time": 4052, "pitch": 67, "duration": 10, "velocity": 76}, {"time": 4058, "pitch": 59, "duration": 4, "velocity": 90}, {"time": 4064, "pitch": 41, "duration": 41, "velocity": 82}, {"time": 4070, "pitch": 48, "duration": 34, "velocity": 72}, {"time": 4076, "pitch": 53, "duration": 14, "velocity": 85}, {"time": 4082, "pitch": 60, "duration": 10, "velocity": 78}, {"time": 4088, "pitch": 65, "duration": 14, "velocity": 82}, {"time": 4088, "pitch": 69, "duration": 14, "velocity": 89}, {"time": 4094, "pitch": 53, "duration": 6, "velocity": 85}, {"time": 4100, "pitch": 60, "duration": 11, "velocity": 92}, {"time": 4106, "pitch": 65, "duration": 4, "velocity": 88}, {"time": 4106, "pitch": 69, "duration": 4, "velocity": 90}, {"time": 4112, "pitch": 36, "duration": 21, "velocity": 73}, {"time": 4118, "pitch": 60, "duration": 7, "velocity": 59}, {"time": 4124, "pitch": 48, "duration": 6, "velocity": 42}, {"time": 4124, "pitch": 64, "duration": 11, "velocity": 88}, {"time": 4124, "pitch": 67, "duration": 10, "velocity": 90}, {"time": 4130, "pitch": 60, "duration": 6, "velocity": 86}, {"time": 4136, "pitch": 38, "duration": 12, "velocity": 85}, {"time": 4142, "pitch": 45, "duration": 8, "velocity": 76}, {"time": 4148, "pitch": 62, "duration": 12, "velocity": 79}, {"time": 4148, "pitch": 66, "duration": 13, "velocity": 82}, {"time": 4151, "pitch": 57, "duration": 7, "velocity": 69}, {"time": 4160, "pitch": 43, "duration": 46, "velocity": 68}, {"time": 4166, "pitch": 50, "duration": 21, "velocity": 72}, {"time": 4172, "pitch": 55, "duration": 11, "velocity": 81}, {"time": 4178, "pitch": 59, "duration": 16, "velocity": 72}, {"time": 4184, "pitch": 67, "duration": 24, "velocity": 97}, {"time": 4190, "pitch": 50, "duration": 18, "velocity": 71}, {"time": 4196, "pitch": 62, "duration": 12, "velocity": 88}, {"time": 4202, "pitch": 59, "duration": 6, "velocity": 72}, {"time": 4208, "pitch": 41, "duration": 20, "velocity": 78}, {"time": 4208, "pitch": 65, "duration": 15, "velocity": 88}, {"time": 4208, "pitch": 67, "duration": 15, "velocity": 90}, {"time": 4208, "pitch": 71, "duration": 15, "velocity": 92}, {"time": 4214, "pitch": 48, "duration": 13, "velocity": 47}, {"time": 4220, "pitch": 53, "duration": 6, "velocity": 83}, {"time": 4226, "pitch": 65, "duration": 4, "velocity": 81}, {"time": 4226, "pitch": 67, "duration": 4, "velocity": 93}, {"time": 4226, "pitch": 71, "duration": 4, "velocity": 90}, {"time": 4232, "pitch": 38, "duration": 25, "velocity": 88}, {"time": 4238, "pitch": 45, "duration": 18, "velocity": 42}, {"time": 4244, "pitch": 50, "duration": 8, "velocity": 96}, {"time": 4244, "pitch": 62, "duration": 4, "velocity": 85}, {"time": 4244, "pitch": 66, "duration": 12, "velocity": 83}, {"time": 4244, "pitch": 69, "duration": 13, "velocity": 73}, {"time": 4256, "pitch": 43, "duration": 34, "velocity": 88}, {"time": 4262, "pitch": 50, "duration": 21, "velocity": 65}, {"time": 4268, "pitch": 55, "duration": 8, "velocity": 78}, {"time": 4274, "pitch": 62, "duration": 15, "velocity": 73}, {"time": 4280, "pitch": 71, "duration": 24, "velocity": 97}, {"time": 4286, "pitch": 50, "duration": 4, "velocity": 47}, {"time": 4292, "pitch": 67, "duration": 12, "velocity": 73}, {"time": 4304, "pitch": 38, "duration": 37, "velocity": 67}, {"time": 4307, "pitch": 62, "duration": 2, "velocity": 30}, {"time": 4310, "pitch": 45, "duration": 32, "velocity": 37}, {"time": 4310, "pitch": 62, "duration": 3, "velocity": 93}, {"time": 4316, "pitch": 50, "duration": 20, "velocity": 60}, {"time": 4322, "pitch": 57, "duration": 19, "velocity": 60}, {"time": 4328, "pitch": 66, "duration": 25, "velocity": 107}, {"time": 4340, "pitch": 62, "duration": 12, "velocity": 67}, {"time": 4352, "pitch": 40, "duration": 31, "velocity": 61}, {"time": 4364, "pitch": 47, "duration": 21, "velocity": 51}, {"time": 4376, "pitch": 52, "duration": 11, "velocity": 61}, {"time": 4376, "pitch": 67, "duration": 24, "velocity": 90}, {"time": 4382, "pitch": 64, "duration": 18, "velocity": 66}, {"time": 4388, "pitch": 59, "duration": 12, "velocity": 76}, {"time": 4400, "pitch": 47, "duration": 33, "velocity": 86}, {"time": 4406, "pitch": 54, "duration": 11, "velocity": 64}, {"time": 4412, "pitch": 59, "duration": 24, "velocity": 66}, {"time": 4418, "pitch": 54, "duration": 9, "velocity": 63}, {"time": 4424, "pitch": 66, "duration": 24, "velocity": 100}, {"time": 4436, "pitch": 62, "duration": 12, "velocity": 82}, {"time": 4448, "pitch": 36, "duration": 29, "velocity": 66}, {"time": 4454, "pitch": 43, "duration": 22, "velocity": 41}, {"time": 4460, "pitch": 48, "duration": 16, "velocity": 66}, {"time": 4466, "pitch": 55, "duration": 19, "velocity": 79}, {"time": 4472, "pitch": 64, "duration": 23, "velocity": 93}, {"time": 4484, "pitch": 60, "duration": 11, "velocity": 61}, {"time": 4496, "pitch": 47, "duration": 14, "velocity": 74}, {"time": 4502, "pitch": 54, "duration": 6, "velocity": 78}, {"time": 4508, "pitch": 66, "duration": 12, "velocity": 93}, {"time": 4517, "pitch": 40, "duration": 14, "velocity": 69}, {"time": 4526, "pitch": 47, "duration": 9, "velocity": 65}, {"time": 4532, "pitch": 67, "duration": 13, "velocity": 89}, {"time": 4538, "pitch": 64, "duration": 7, "velocity": 70}, {"time": 4544, "pitch": 45, "duration": 35, "velocity": 69}, {"time": 4550, "pitch": 52, "duration": 21, "velocity": 63}, {"time": 4556, "pitch": 57, "duration": 15, "velocity": 66}, {"time": 4562, "pitch": 60, "duration": 8, "velocity": 76}, {"time": 4568, "pitch": 64, "duration": 23, "velocity": 90}, {"time": 4574, "pitch": 52, "duration": 4, "velocity": 53}, {"time": 4580, "pitch": 60, "duration": 11, "velocity": 83}, {"time": 4586, "pitch": 57, "duration": 4, "velocity": 34}, {"time": 4592, "pitch": 38, "duration": 35, "velocity": 73}, {"time": 4598, "pitch": 45, "duration": 30, "velocity": 55}, {"time": 4604, "pitch": 50, "duration": 14, "velocity": 85}, {"time": 4610, "pitch": 57, "duration": 8, "velocity": 79}, {"time": 4616, "pitch": 62, "duration": 15, "velocity": 100}, {"time": 4616, "pitch": 66, "duration": 24, "velocity": 127}, {"time": 4622, "pitch": 50, "duration": 14, "velocity": 95}, {"time": 4628, "pitch": 57, "duration": 9, "velocity": 112}, {"time": 4634, "pitch": 62, "duration": 5, "velocity": 102}, {"time": 4640, "pitch": 43, "duration": 35, "velocity": 96}, {"time": 4643, "pitch": 50, "duration": 22, "velocity": 99}, {"time": 4652, "pitch": 55, "duration": 8, "velocity": 112}, {"time": 4658, "pitch": 62, "duration": 14, "velocity": 96}, {"time": 4664, "pitch": 71, "duration": 23, "velocity": 117}, {"time": 4670, "pitch": 50, "duration": 4, "velocity": 96}, {"time": 4676, "pitch": 67, "duration": 11, "velocity": 102}, {"time": 4682, "pitch": 62, "duration": 6, "velocity": 107}, {"time": 4688, "pitch": 38, "duration": 40, "velocity": 83}, {"time": 4694, "pitch": 45, "duration": 41, "velocity": 85}, {"time": 4700, "pitch": 50, "duration": 14, "velocity": 86}, {"time": 4706, "pitch": 57, "duration": 15, "velocity": 93}, {"time": 4712, "pitch": 66, "duration": 24, "velocity": 117}, {"time": 4718, "pitch": 50, "duration": 4, "velocity": 92}, {"time": 4721, "pitch": 62, "duration": 12, "velocity": 95}, {"time": 4730, "pitch": 57, "duration": 7, "velocity": 81}, {"time": 4736, "pitch": 40, "duration": 32, "velocity": 77}, {"time": 4742, "pitch": 47, "duration": 27, "velocity": 69}, {"time": 4748, "pitch": 52, "duration": 14, "velocity": 90}, {"time": 4754, "pitch": 59, "duration": 17, "velocity": 74}, {"time": 4760, "pitch": 67, "duration": 22, "velocity": 107}, {"time": 4766, "pitch": 52, "duration": 5, "velocity": 62}, {"time": 4772, "pitch": 64, "duration": 9, "velocity": 93}, {"time": 4778, "pitch": 59, "duration": 7, "velocity": 96}, {"time": 4784, "pitch": 47, "duration": 34, "velocity": 73}, {"time": 4790, "pitch": 54, "duration": 21, "velocity": 92}, {"time": 4796, "pitch": 59, "duration": 16, "velocity": 72}, {"time": 4802, "pitch": 62, "duration": 6, "velocity": 95}, {"time": 4808, "pitch": 66, "duration": 22, "velocity": 122}, {"time": 4814, "pitch": 54, "duration": 4, "velocity": 75}, {"time": 4820, "pitch": 62, "duration": 11, "velocity": 96}, {"time": 4826, "pitch": 59, "duration": 6, "velocity": 86}, {"time": 4832, "pitch": 36, "duration": 33, "velocity": 82}, {"time": 4838, "pitch": 43, "duration": 28, "velocity": 74}, {"time": 4844, "pitch": 48, "duration": 15, "velocity": 88}, {"time": 4850, "pitch": 55, "duration": 15, "velocity": 86}, {"time": 4856, "pitch": 64, "duration": 24, "velocity": 100}, {"time": 4862, "pitch": 48, "duration": 5, "velocity": 82}, {"time": 4868, "pitch": 60, "duration": 12, "velocity": 89}, {"time": 4874, "pitch": 55, "duration": 6, "velocity": 82}, {"time": 4880, "pitch": 47, "duration": 15, "velocity": 82}, {"time": 4886, "pitch": 54, "duration": 8, "velocity": 90}, {"time": 4892, "pitch": 62, "duration": 11, "velocity": 82}, {"time": 4892, "pitch": 66, "duration": 12, "velocity": 107}, {"time": 4898, "pitch": 59, "duration": 7, "velocity": 88}, {"time": 4904, "pitch": 40, "duration": 20, "velocity": 82}, {"time": 4910, "pitch": 47, "duration": 15, "velocity": 89}, {"time": 4916, "pitch": 52, "duration": 9, "velocity": 76}, {"time": 4916, "pitch": 64, "duration": 10, "velocity": 82}, {"time": 4916, "pitch": 67, "duration": 10, "velocity": 77}, {"time": 4922, "pitch": 59, "duration": 4, "velocity": 86}, {"time": 4928, "pitch": 41, "duration": 39, "velocity": 88}, {"time": 4934, "pitch": 48, "duration": 31, "velocity": 83}, {"time": 4940, "pitch": 53, "duration": 15, "velocity": 83}, {"time": 4946, "pitch": 60, "duration": 8, "velocity": 82}, {"time": 4952, "pitch": 65, "duration": 14, "velocity": 86}, {"time": 4952, "pitch": 69, "duration": 22, "velocity": 95}, {"time": 4958, "pitch": 53, "duration": 5, "velocity": 76}, {"time": 4964, "pitch": 60, "duration": 11, "velocity": 93}, {"time": 4970, "pitch": 65, "duration": 4, "velocity": 67}, {"time": 4976, "pitch": 36, "duration": 21, "velocity": 71}, {"time": 4982, "pitch": 43, "duration": 17, "velocity": 77}, {"time": 4988, "pitch": 48, "duration": 9, "velocity": 88}, {"time": 4994, "pitch": 64, "duration": 6, "velocity": 81}, {"time": 4994, "pitch": 67, "duration": 6, "velocity": 82}, {"time": 5000, "pitch": 38, "duration": 14, "velocity": 81}, {"time": 5006, "pitch": 45, "duration": 9, "velocity": 96}, {"time": 5012, "pitch": 62, "duration": 12, "velocity": 83}, {"time": 5012, "pitch": 66, "duration": 12, "velocity": 81}, {"time": 5024, "pitch": 43, "duration": 49, "velocity": 72}, {"time": 5030, "pitch": 50, "duration": 21, "velocity": 47}, {"time": 5033, "pitch": 55, "duration": 10, "velocity": 77}, {"time": 5042, "pitch": 59, "duration": 10, "velocity": 66}, {"time": 5048, "pitch": 62, "duration": 24, "velocity": 93}, {"time": 5054, "pitch": 50, "duration": 17, "velocity": 58}, {"time": 5060, "pitch": 59, "duration": 11, "velocity": 70}, {"time": 5066, "pitch": 55, "duration": 6, "velocity": 77}, {"time": 5072, "pitch": 38, "duration": 39, "velocity": 89}, {"time": 5078, "pitch": 45, "duration": 40, "velocity": 82}, {"time": 5084, "pitch": 50, "duration": 14, "velocity": 81}, {"time": 5090, "pitch": 57, "duration": 14, "velocity": 71}, {"time": 5096, "pitch": 66, "duration": 18, "velocity": 117}, {"time": 5102, "pitch": 50, "duration": 4, "velocity": 76}, {"time": 5108, "pitch": 62, "duration": 11, "velocity": 93}, {"time": 5114, "pitch": 57, "duration": 6, "velocity": 81}, {"time": 5120, "pitch": 40, "duration": 34, "velocity": 81}, {"time": 5126, "pitch": 47, "duration": 21, "velocity": 89}, {"time": 5132, "pitch": 52, "duration": 11, "velocity": 93}, {"time": 5138, "pitch": 59, "duration": 11, "velocity": 88}, {"time": 5144, "pitch": 67, "duration": 19, "velocity": 99}, {"time": 5150, "pitch": 47, "duration": 4, "velocity": 88}, {"time": 5156, "pitch": 64, "duration": 8, "velocity": 90}, {"time": 5162, "pitch": 59, "duration": 4, "velocity": 90}, {"time": 5168, "pitch": 36, "duration": 14, "velocity": 72}, {"time": 5174, "pitch": 55, "duration": 14, "velocity": 69}, {"time": 5180, "pitch": 64, "duration": 12, "velocity": 96}, {"time": 5186, "pitch": 60, "duration": 6, "velocity": 89}, {"time": 5192, "pitch": 38, "duration": 14, "velocity": 71}, {"time": 5198, "pitch": 45, "duration": 9, "velocity": 96}, {"time": 5204, "pitch": 62, "duration": 12, "velocity": 75}, {"time": 5204, "pitch": 66, "duration": 13, "velocity": 72}, {"time": 5210, "pitch": 57, "duration": 6, "velocity": 69}, {"time": 5216, "pitch": 43, "duration": 45, "velocity": 66}, {"time": 5222, "pitch": 50, "duration": 21, "velocity": 72}, {"time": 5228, "pitch": 55, "duration": 9, "velocity": 66}, {"time": 5234, "pitch": 62, "duration": 8, "velocity": 88}, {"time": 5240, "pitch": 67, "duration": 16, "velocity": 75}, {"time": 5240, "pitch": 71, "duration": 16, "velocity": 92}, {"time": 5246, "pitch": 50, "duration": 18, "velocity": 71}, {"time": 5252, "pitch": 62, "duration": 12, "velocity": 93}, {"time": 5258, "pitch": 67, "duration": 6, "velocity": 85}, {"time": 5258, "pitch": 71, "duration": 6, "velocity": 95}, {"time": 5264, "pitch": 38, "duration": 40, "velocity": 89}, {"time": 5270, "pitch": 45, "duration": 39, "velocity": 81}, {"time": 5276, "pitch": 50, "duration": 14, "velocity": 83}, {"time": 5282, "pitch": 57, "duration": 13, "velocity": 95}, {"time": 5288, "pitch": 66, "duration": 22, "velocity": 122}, {"time": 5294, "pitch": 50, "duration": 7, "velocity": 81}, {"time": 5300, "pitch": 62, "duration": 10, "velocity": 92}, {"time": 5306, "pitch": 57, "duration": 4, "velocity": 96}, {"time": 5312, "pitch": 40, "duration": 34, "velocity": 85}, {"time": 5318, "pitch": 47, "duration": 21, "velocity": 85}, {"time": 5324, "pitch": 52, "duration": 9, "velocity": 92}, {"time": 5330, "pitch": 59, "duration": 14, "velocity": 83}, {"time": 5336, "pitch": 67, "duration": 20, "velocity": 107}, {"time": 5342, "pitch": 47, "duration": 3, "velocity": 65}, {"time": 5348, "pitch": 64, "duration": 9, "velocity": 96}, {"time": 5351, "pitch": 59, "duration": 6, "velocity": 93}, {"time": 5360, "pitch": 36, "duration": 21, "velocity": 73}, {"time": 5366, "pitch": 43, "duration": 18, "velocity": 51}, {"time": 5372, "pitch": 48, "duration": 5, "velocity": 89}, {"time": 5378, "pitch": 64, "duration": 6, "velocity": 93}, {"time": 5381, "pitch": 57, "duration": 36, "velocity": 58}, {"time": 5384, "pitch": 38, "duration": 36, "velocity": 57}, {"time": 5384, "pitch": 45, "duration": 36, "velocity": 49}, {"time": 5384, "pitch": 50, "duration": 36, "velocity": 47}, {"time": 5384, "pitch": 62, "duration": 36, "velocity": 70}, {"time": 5384, "pitch": 66, "duration": 36, "velocity": 78}, {"time": 5420, "pitch": 43, "duration": 40, "velocity": 76}, {"time": 5426, "pitch": 50, "duration": 21, "velocity": 59}, {"time": 5426, "pitch": 62, "duration": 6, "velocity": 68}, {"time": 5432, "pitch": 59, "duration": 22, "velocity": 58}, {"time": 5432, "pitch": 62, "duration": 1, "velocity": 54}, {"time": 5432, "pitch": 67, "duration": 6, "velocity": 56}, {"time": 5438, "pitch": 55, "duration": 16, "velocity": 59}, {"time": 5438, "pitch": 69, "duration": 25, "velocity": 81}, {"time": 5450, "pitch": 50, "duration": 9, "velocity": 59}, {"time": 5450, "pitch": 57, "duration": 7, "velocity": 49}, {"time": 5456, "pitch": 59, "duration": 13, "velocity": 72}, {"time": 5456, "pitch": 62, "duration": 7, "velocity": 63}, {"time": 5456, "pitch": 62, "duration": 7, "velocity": 73}, {"time": 5462, "pitch": 55, "duration": 6, "velocity": 40}, {"time": 5462, "pitch": 67, "duration": 13, "velocity": 74}, {"time": 5468, "pitch": 42, "duration": 38, "velocity": 82}, {"time": 5474, "pitch": 54, "duration": 13, "velocity": 39}, {"time": 5474, "pitch": 57, "duration": 5, "velocity": 74}, {"time": 5480, "pitch": 62, "duration": 7, "velocity": 81}, {"time": 5480, "pitch": 62, "duration": 7, "velocity": 83}, {"time": 5486, "pitch": 59, "duration": 20, "velocity": 61}, {"time": 5486, "pitch": 69, "duration": 17, "velocity": 89}, {"time": 5495, "pitch": 54, "duration": 6, "velocity": 38}, {"time": 5498, "pitch": 57, "duration": 7, "velocity": 63}, {"time": 5504, "pitch": 62, "duration": 7, "velocity": 72}, {"time": 5504, "pitch": 62, "duration": 7, "velocity": 75}, {"time": 5510, "pitch": 59, "duration": 7, "velocity": 55}, {"time": 5510, "pitch": 67, "duration": 15, "velocity": 78}, {"time": 5516, "pitch": 41, "duration": 40, "velocity": 66}, {"time": 5522, "pitch": 48, "duration": 19, "velocity": 59}, {"time": 5522, "pitch": 60, "duration": 6, "velocity": 81}, {"time": 5528, "pitch": 60, "duration": 1, "velocity": 65}, {"time": 5528, "pitch": 62, "duration": 9, "velocity": 68}, {"time": 5534, "pitch": 57, "duration": 19, "velocity": 70}, {"time": 5534, "pitch": 69, "duration": 5, "velocity": 81}, {"time": 5540, "pitch": 67, "duration": 13, "velocity": 74}, {"time": 5546, "pitch": 48, "duration": 8, "velocity": 54}, {"time": 5546, "pitch": 60, "duration": 3, "velocity": 76}, {"time": 5552, "pitch": 60, "duration": 1, "velocity": 85}, {"time": 5552, "pitch": 62, "duration": 6, "velocity": 77}, {"time": 5558, "pitch": 57, "duration": 5, "velocity": 64}, {"time": 5558, "pitch": 67, "duration": 11, "velocity": 85}, {"time": 5564, "pitch": 40, "duration": 21, "velocity": 72}, {"time": 5570, "pitch": 47, "duration": 16, "velocity": 53}, {"time": 5570, "pitch": 55, "duration": 5, "velocity": 78}, {"time": 5576, "pitch": 59, "duration": 10, "velocity": 73}, {"time": 5576, "pitch": 60, "duration": 7, "velocity": 77}, {"time": 5582, "pitch": 55, "duration": 4, "velocity": 57}, {"time": 5582, "pitch": 62, "duration": 12, "velocity": 77}, {"time": 5588, "pitch": 41, "duration": 20, "velocity": 81}, {"time": 5594, "pitch": 48, "duration": 16, "velocity": 53}, {"time": 5594, "pitch": 60, "duration": 6, "velocity": 69}, {"time": 5600, "pitch": 53, "duration": 11, "velocity": 75}, {"time": 5600, "pitch": 67, "duration": 18, "velocity": 88}, {"time": 5606, "pitch": 60, "duration": 6, "velocity": 90}, {"time": 5612, "pitch": 43, "duration": 35, "velocity": 69}, {"time": 5618, "pitch": 50, "duration": 19, "velocity": 56}, {"time": 5618, "pitch": 62, "duration": 6, "velocity": 68}, {"time": 5624, "pitch": 62, "duration": 1, "velocity": 88}, {"time": 5624, "pitch": 67, "duration": 6, "velocity": 56}, {"time": 5630, "pitch": 59, "duration": 19, "velocity": 75}, {"time": 5630, "pitch": 69, "duration": 25, "velocity": 81}, {"time": 5642, "pitch": 50, "duration": 7, "velocity": 55}, {"time": 5642, "pitch": 57, "duration": 7, "velocity": 49}, {"time": 5648, "pitch": 62, "duration": 7, "velocity": 63}, {"time": 5648, "pitch": 62, "duration": 7, "velocity": 83}, {"time": 5654, "pitch": 67, "duration": 13, "velocity": 74}, {"time": 5660, "pitch": 42, "duration": 26, "velocity": 65}, {"time": 5666, "pitch": 55, "duration": 6, "velocity": 52}, {"time": 5666, "pitch": 57, "duration": 5, "velocity": 74}, {"time": 5672, "pitch": 62, "duration": 7, "velocity": 83}, {"time": 5672, "pitch": 62, "duration": 7, "velocity": 90}, {"time": 5678, "pitch": 59, "duration": 18, "velocity": 63}, {"time": 5678, "pitch": 69, "duration": 17, "velocity": 89}, {"time": 5690, "pitch": 42, "duration": 9, "velocity": 50}, {"time": 5690, "pitch": 57, "duration": 7, "velocity": 63}, {"time": 5696, "pitch": 62, "duration": 7, "velocity": 72}, {"time": 5696, "pitch": 62, "duration": 7, "velocity": 89}, {"time": 5702, "pitch": 59, "duration": 5, "velocity": 64}, {"time": 5702, "pitch": 67, "duration": 15, "velocity": 78}, {"time": 5708, "pitch": 41, "duration": 37, "velocity": 65}, {"time": 5714, "pitch": 48, "duration": 19, "velocity": 55}, {"time": 5714, "pitch": 60, "duration": 6, "velocity": 81}, {"time": 5720, "pitch": 60, "duration": 1, "velocity": 88}, {"time": 5720, "pitch": 62, "duration": 9, "velocity": 68}, {"time": 5726, "pitch": 57, "duration": 25, "velocity": 73}, {"time": 5726, "pitch": 69, "duration": 5, "velocity": 81}, {"time": 5732, "pitch": 67, "duration": 13, "velocity": 74}, {"time": 5738, "pitch": 48, "duration": 6, "velocity": 41}, {"time": 5738, "pitch": 60, "duration": 6, "velocity": 76}, {"time": 5744, "pitch": 53, "duration": 9, "velocity": 68}, {"time": 5744, "pitch": 62, "duration": 6, "velocity": 77}, {"time": 5750, "pitch": 67, "duration": 11, "velocity": 85}, {"time": 5751, "pitch": 39, "duration": 21, "velocity": 32}, {"time": 5752, "pitch": 62, "duration": 22, "velocity": 61}, {"time": 5753, "pitch": 51, "duration": 19, "velocity": 42}, {"time": 5754, "pitch": 63, "duration": 23, "velocity": 67}, {"time": 5756, "pitch": 67, "duration": 5, "velocity": 60}, {"time": 5757, "pitch": 70, "duration": 16, "velocity": 85}, {"time": 5778, "pitch": 60, "duration": 29, "velocity": 72}, {"time": 5778, "pitch": 41, "duration": 17, "velocity": 37}, {"time": 5780, "pitch": 65, "duration": 25, "velocity": 55}, {"time": 5782, "pitch": 69, "duration": 23, "velocity": 66}, {"time": 5806, "pitch": 43, "duration": 102, "velocity": 38}, {"time": 5810, "pitch": 50, "duration": 98, "velocity": 33}, {"time": 5811, "pitch": 55, "duration": 97, "velocity": 65}, {"time": 5812, "pitch": 62, "duration": 98, "velocity": 41}, {"time": 5814, "pitch": 67, "duration": 96, "velocity": 44}, {"time": 5816, "pitch": 71, "duration": 94, "velocity": 75}], "annotations": [{"time": 57, "annotation": {"number": 64, "value": 127}, "group": "control_change"}, {"time": 99, "annotation": {"number": 64, "value": 0}, "group": "control_change"}, {"time": 104, "annotation": {"number": 64, "value": 127}, "group": "control_change"}, {"time": 146, "annotation": {"number": 64, "value": 0}, "group": "control_change"}, {"time": 151, "annotation": {"number": 64, "value": 127}, "group": "control_change"}, {"time": 195, "annotation": {"number": 64, "value": 0}, "group": "control_change"}, {"time": 202, "annotation": {"number": 64, "value": 127}, "group": "control_change"}, {"time": 221, "annotation": {"number": 64, "value": 0}, "group": "control_change"}, {"time": 249, "annotation": {"number": 64, "value": 127}, "group": "control_change"}, {"time": 292, "annotation": {"number": 64, "value": 0}, "group": "control_change"}, {"time": 297, "annotation": {"number": 64, "value": 127}, "group": "control_change"}, {"time": 340, "annotation": {"number": 64, "value": 0}, "group": "control_change"}, {"time": 344, "annotation": {"number": 64, "value": 127}, "group": "control_change"}, {"time": 385, "annotation": {"number": 64, "value": 0}, "group": "control_change"}, {"time": 393, "annotation": {"number": 64, "value": 127}, "group": "control_change"}, {"time": 412, "annotation": {"number": 64, "value": 0}, "group": "control_change"}, {"time": 441, "annotation": {"number": 64, "value": 127}, "group": "control_change"}, {"time": 484, "annotation": {"number": 64, "value": 0}, "group": "control_change"}, {"time": 489, "annotation": {"number": 64, "value": 127}, "group": "control_change"}, {"time": 532, "annotation": {"number": 64, "value": 0}, "group": "control_change"}, {"time": 537, "annotation": {"number": 64, "value": 127}, "group": "control_change"}, {"time": 581, "annotation": {"number": 64, "value": 0}, "group": "control_change"}, {"time": 584, "annotation": {"number": 64, "value": 127}, "group": "control_change"}, {"time": 604, "annotation": {"number": 64, "value": 0}, "group": "control_change"}, {"time": 608, "annotation": {"number": 64, "value": 127}, "group": "control_change"}, {"time": 628, "annotation": {"number": 64, "value": 0}, "group": "control_change"}, {"time": 631, "annotation": {"number": 64, "value": 127}, "group": "control_change"}, {"time": 676, "annotation": {"number": 64, "value": 0}, "group": "control_change"}, {"time": 680, "annotation": {"number": 64, "value": 127}, "group": "control_change"}, {"time": 724, "annotation": {"number": 64, "value": 0}, "group": "control_change"}, {"time": 727, "annotation": {"number": 64, "value": 127}, "group": "control_change"}, {"time": 771, "annotation": {"number": 64, "value": 0}, "group": "control_change"}, {"time": 775, "annotation": {"number": 64, "value": 127}, "group": "control_change"}, {"time": 796, "annotation": {"number": 64, "value": 0}, "group": "control_change"}, {"time": 800, "annotation": {"number": 64, "value": 127}, "group": "control_change"}, {"time": 820, "annotation": {"number": 64, "value": 0}, "group": "control_change"}, {"time": 824, "annotation": {"number": 64, "value": 127}, "group": "control_change"}, {"time": 867, "annotation": {"number": 64, "value": 0}, "group": "control_change"}, {"time": 872, "annotation": {"number": 64, "value": 127}, "group": "control_change"}, {"time": 914, "annotation": {"number": 64, "value": 0}, "group": "control_change"}, {"time": 922, "annotation": {"number": 64, "value": 127}, "group": "control_change"}, {"time": 965, "annotation": {"number": 64, "value": 0}, "group": "control_change"}, {"time": 968, "annotation": {"number": 64, "value": 127}, "group": "control_change"}, {"time": 987, "annotation": {"number": 64, "value": 0}, "group": "control_change"}, {"time": 1017, "annotation": {"number": 64, "value": 127}, "group": "control_change"}, {"time": 1060, "annotation": {"number": 64, "value": 0}, "group": "control_change"}, {"time": 1065, "annotation": {"number": 64, "value": 127}, "group": "control_change"}, {"time": 1108, "annotation": {"number": 64, "value": 0}, "group": "control_change"}, {"time": 1113, "annotation": {"number": 64, "value": 127}, "group": "control_change"}, {"time": 1157, "annotation": {"number": 64, "value": 0}, "group": "control_change"}, {"time": 1160, "annotation": {"number": 64, "value": 127}, "group": "control_change"}, {"time": 1180, "annotation": {"number": 64, "value": 0}, "group": "control_change"}, {"time": 1184, "annotation": {"number": 64, "value": 127}, "group": "control_change"}, {"time": 1204, "annotation": {"number": 64, "value": 0}, "group": "control_change"}, {"time": 1207, "annotation": {"number": 64, "value": 127}, "group": "control_change"}, {"time": 1252, "annotation": {"number": 64, "value": 0}, "group": "control_change"}, {"time": 1256, "annotation": {"number": 64, "value": 127}, "group": "control_change"}, {"time": 1300, "annotation": {"number": 64, "value": 0}, "group": "control_change"}, {"time": 1303, "annotation": {"number": 64, "value": 127}, "group": "control_change"}, {"time": 1347, "annotation": {"number": 64, "value": 0}, "group": "control_change"}, {"time": 1351, "annotation": {"number": 64, "value": 127}, "group": "control_change"}, {"time": 1372, "annotation": {"number": 64, "value": 0}, "group": "control_change"}, {"time": 1376, "annotation": {"number": 64, "value": 127}, "group": "control_change"}, {"time": 1396, "annotation": {"number": 64, "value": 0}, "group": "control_change"}, {"time": 1400, "annotation": {"number": 64, "value": 127}, "group": "control_change"}, {"time": 1402, "annotation": {"number": 64, "value": 127}, "group": "control_change"}, {"time": 1444, "annotation": {"number": 64, "value": 0}, "group": "control_change"}, {"time": 1448, "annotation": {"number": 64, "value": 127}, "group": "control_change"}, {"time": 1468, "annotation": {"number": 64, "value": 0}, "group": "control_change"}, {"time": 1472, "annotation": {"number": 64, "value": 127}, "group": "control_change"}, {"time": 1493, "annotation": {"number": 64, "value": 0}, "group": "control_change"}, {"time": 1497, "annotation": {"number": 64, "value": 127}, "group": "control_change"}, {"time": 1539, "annotation": {"number": 64, "value": 0}, "group": "control_change"}, {"time": 1542, "annotation": {"number": 64, "value": 127}, "group": "control_change"}, {"time": 1587, "annotation": {"number": 64, "value": 0}, "group": "control_change"}, {"time": 1591, "annotation": {"number": 64, "value": 127}, "group": "control_change"}, {"time": 1636, "annotation": {"number": 64, "value": 0}, "group": "control_change"}, {"time": 1640, "annotation": {"number": 64, "value": 127}, "group": "control_change"}, {"time": 1685, "annotation": {"number": 64, "value": 0}, "group": "control_change"}, {"time": 1688, "annotation": {"number": 64, "value": 127}, "group": "control_change"}, {"time": 1730, "annotation": {"number": 64, "value": 0}, "group": "control_change"}, {"time": 1735, "annotation": {"number": 64, "value": 127}, "group": "control_change"}, {"time": 1756, "annotation": {"number": 64, "value": 0}, "group": "control_change"}, {"time": 1760, "annotation": {"number": 64, "value": 127}, "group": "control_change"}, {"time": 1781, "annotation": {"number": 64, "value": 0}, "group": "control_change"}, {"time": 1784, "annotation": {"number": 64, "value": 127}, "group": "control_change"}, {"time": 1828, "annotation": {"number": 64, "value": 0}, "group": "control_change"}, {"time": 1832, "annotation": {"number": 64, "value": 127}, "group": "control_change"}, {"time": 1877, "annotation": {"number": 64, "value": 0}, "group": "control_change"}, {"time": 1880, "annotation": {"number": 64, "value": 127}, "group": "control_change"}, {"time": 1924, "annotation": {"number": 64, "value": 0}, "group": "control_change"}, {"time": 1927, "annotation": {"number": 64, "value": 127}, "group": "control_change"}, {"time": 1931, "annotation": {"number": 64, "value": 0}, "group": "control_change"}, {"time": 1932, "annotation": {"number": 64, "value": 127}, "group": "control_change"}, {"time": 1972, "annotation": {"number": 64, "value": 0}, "group": "control_change"}, {"time": 1975, "annotation": {"number": 64, "value": 127}, "group": "control_change"}, {"time": 2020, "annotation": {"number": 64, "value": 0}, "group": "control_change"}, {"time": 2023, "annotation": {"number": 64, "value": 127}, "group": "control_change"}, {"time": 2067, "annotation": {"number": 64, "value": 0}, "group": "control_change"}, {"time": 2070, "annotation": {"number": 64, "value": 127}, "group": "control_change"}, {"time": 2115, "annotation": {"number": 64, "value": 0}, "group": "control_change"}, {"time": 2119, "annotation": {"number": 64, "value": 127}, "group": "control_change"}, {"time": 2140, "annotation": {"number": 64, "value": 0}, "group": "control_change"}, {"time": 2143, "annotation": {"number": 64, "value": 127}, "group": "control_change"}, {"time": 2164, "annotation": {"number": 64, "value": 0}, "group": "control_change"}, {"time": 2168, "annotation": {"number": 64, "value": 127}, "group": "control_change"}, {"time": 2213, "annotation": {"number": 64, "value": 0}, "group": "control_change"}, {"time": 2216, "annotation": {"number": 64, "value": 127}, "group": "control_change"}, {"time": 2236, "annotation": {"number": 64, "value": 0}, "group": "control_change"}, {"time": 2240, "annotation": {"number": 64, "value": 127}, "group": "control_change"}, {"time": 2261, "annotation": {"number": 64, "value": 0}, "group": "control_change"}, {"time": 2264, "annotation": {"number": 64, "value": 127}, "group": "control_change"}, {"time": 2308, "annotation": {"number": 64, "value": 0}, "group": "control_change"}, {"time": 2312, "annotation": {"number": 64, "value": 127}, "group": "control_change"}, {"time": 2355, "annotation": {"number": 64, "value": 0}, "group": "control_change"}, {"time": 2358, "annotation": {"number": 64, "value": 127}, "group": "control_change"}, {"time": 2403, "annotation": {"number": 64, "value": 0}, "group": "control_change"}, {"time": 2406, "annotation": {"number": 64, "value": 127}, "group": "control_change"}, {"time": 2427, "annotation": {"number": 64, "value": 0}, "group": "control_change"}, {"time": 2431, "annotation": {"number": 64, "value": 127}, "group": "control_change"}, {"time": 2452, "annotation": {"number": 64, "value": 0}, "group": "control_change"}, {"time": 2456, "annotation": {"number": 64, "value": 127}, "group": "control_change"}, {"time": 2499, "annotation": {"number": 64, "value": 0}, "group": "control_change"}, {"time": 2502, "annotation": {"number": 64, "value": 127}, "group": "control_change"}, {"time": 2547, "annotation": {"number": 64, "value": 0}, "group": "control_change"}, {"time": 2550, "annotation": {"number": 64, "value": 127}, "group": "control_change"}, {"time": 2595, "annotation": {"number": 64, "value": 0}, "group": "control_change"}, {"time": 2598, "annotation": {"number": 64, "value": 127}, "group": "control_change"}, {"time": 2603, "annotation": {"number": 64, "value": 127}, "group": "control_change"}, {"time": 2620, "annotation": {"number": 64, "value": 0}, "group": "control_change"}, {"time": 2624, "annotation": {"number": 64, "value": 127}, "group": "control_change"}, {"time": 2644, "annotation": {"number": 64, "value": 0}, "group": "control_change"}, {"time": 2647, "annotation": {"number": 64, "value": 127}, "group": "control_change"}, {"time": 2691, "annotation": {"number": 64, "value": 0}, "group": "control_change"}, {"time": 2695, "annotation": {"number": 64, "value": 127}, "group": "control_change"}, {"time": 2698, "annotation": {"number": 64, "value": 127}, "group": "control_change"}, {"time": 2719, "annotation": {"number": 64, "value": 0}, "group": "control_change"}, {"time": 2722, "annotation": {"number": 64, "value": 127}, "group": "control_change"}, {"time": 2742, "annotation": {"number": 64, "value": 0}, "group": "control_change"}, {"time": 2745, "annotation": {"number": 64, "value": 127}, "group": "control_change"}, {"time": 2790, "annotation": {"number": 64, "value": 0}, "group": "control_change"}, {"time": 2794, "annotation": {"number": 64, "value": 127}, "group": "control_change"}, {"time": 2836, "annotation": {"number": 64, "value": 0}, "group": "control_change"}, {"time": 2841, "annotation": {"number": 64, "value": 127}, "group": "control_change"}, {"time": 2862, "annotation": {"number": 64, "value": 0}, "group": "control_change"}, {"time": 2913, "annotation": {"number": 64, "value": 127}, "group": "control_change"}, {"time": 2956, "annotation": {"number": 64, "value": 0}, "group": "control_change"}, {"time": 2961, "annotation": {"number": 64, "value": 127}, "group": "control_change"}, {"time": 3004, "annotation": {"number": 64, "value": 0}, "group": "control_change"}, {"time": 3009, "annotation": {"number": 64, "value": 127}, "group": "control_change"}, {"time": 3053, "annotation": {"number": 64, "value": 0}, "group": "control_change"}, {"time": 3056, "annotation": {"number": 64, "value": 127}, "group": "control_change"}, {"time": 3076, "annotation": {"number": 64, "value": 0}, "group": "control_change"}, {"time": 3080, "annotation": {"number": 64, "value": 127}, "group": "control_change"}, {"time": 3100, "annotation": {"number": 64, "value": 0}, "group": "control_change"}, {"time": 3103, "annotation": {"number": 64, "value": 127}, "group": "control_change"}, {"time": 3148, "annotation": {"number": 64, "value": 0}, "group": "control_change"}, {"time": 3152, "annotation": {"number": 64, "value": 127}, "group": "control_change"}, {"time": 3196, "annotation": {"number": 64, "value": 0}, "group": "control_change"}, {"time": 3199, "annotation": {"number": 64, "value": 127}, "group": "control_change"}, {"time": 3243, "annotation": {"number": 64, "value": 0}, "group": "control_change"}, {"time": 3247, "annotation": {"number": 64, "value": 127}, "group": "control_change"}, {"time": 3268, "annotation": {"number": 64, "value": 0}, "group": "control_change"}, {"time": 3272, "annotation": {"number": 64, "value": 127}, "group": "control_change"}, {"time": 3292, "annotation": {"number": 64, "value": 0}, "group": "control_change"}, {"time": 3296, "annotation": {"number": 64, "value": 127}, "group": "control_change"}, {"time": 3298, "annotation": {"number": 64, "value": 127}, "group": "control_change"}, {"time": 3340, "annotation": {"number": 64, "value": 0}, "group": "control_change"}, {"time": 3344, "annotation": {"number": 64, "value": 127}, "group": "control_change"}, {"time": 3364, "annotation": {"number": 64, "value": 0}, "group": "control_change"}, {"time": 3368, "annotation": {"number": 64, "value": 127}, "group": "control_change"}, {"time": 3389, "annotation": {"number": 64, "value": 0}, "group": "control_change"}, {"time": 3393, "annotation": {"number": 64, "value": 127}, "group": "control_change"}, {"time": 3435, "annotation": {"number": 64, "value": 0}, "group": "control_change"}, {"time": 3438, "annotation": {"number": 64, "value": 127}, "group": "control_change"}, {"time": 3483, "annotation": {"number": 64, "value": 0}, "group": "control_change"}, {"time": 3487, "annotation": {"number": 64, "value": 127}, "group": "control_change"}, {"time": 3532, "annotation": {"number": 64, "value": 0}, "group": "control_change"}, {"time": 3536, "annotation": {"number": 64, "value": 127}, "group": "control_change"}, {"time": 3581, "annotation": {"number": 64, "value": 0}, "group": "control_change"}, {"time": 3584, "annotation": {"number": 64, "value": 127}, "group": "control_change"}, {"time": 3626, "annotation": {"number": 64, "value": 0}, "group": "control_change"}, {"time": 3631, "annotation": {"number": 64, "value": 127}, "group": "control_change"}, {"time": 3652, "annotation": {"number": 64, "value": 0}, "group": "control_change"}, {"time": 3656, "annotation": {"number": 64, "value": 127}, "group": "control_change"}, {"time": 3677, "annotation": {"number": 64, "value": 0}, "group": "control_change"}, {"time": 3680, "annotation": {"number": 64, "value": 127}, "group": "control_change"}, {"time": 3724, "annotation": {"number": 64, "value": 0}, "group": "control_change"}, {"time": 3728, "annotation": {"number": 64, "value": 127}, "group": "control_change"}, {"time": 3773, "annotation": {"number": 64, "value": 0}, "group": "control_change"}, {"time": 3776, "annotation": {"number": 64, "value": 127}, "group": "control_change"}, {"time": 3820, "annotation": {"number": 64, "value": 0}, "group": "control_change"}, {"time": 3823, "annotation": {"number": 64, "value": 127}, "group": "control_change"}, {"time": 3827, "annotation": {"number": 64, "value": 0}, "group": "control_change"}, {"time": 3828, "annotation": {"number": 64, "value": 127}, "group": "control_change"}, {"time": 3868, "annotation": {"number": 64, "value": 0}, "group": "control_change"}, {"time": 3871, "annotation": {"number": 64, "value": 127}, "group": "control_change"}, {"time": 3916, "annotation": {"number": 64, "value": 0}, "group": "control_change"}, {"time": 3919, "annotation": {"number": 64, "value": 127}, "group": "control_change"}, {"time": 3963, "annotation": {"number": 64, "value": 0}, "group": "control_change"}, {"time": 3966, "annotation": {"number": 64, "value": 127}, "group": "control_change"}, {"time": 4011, "annotation": {"number": 64, "value": 0}, "group": "control_change"}, {"time": 4015, "annotation": {"number": 64, "value": 127}, "group": "control_change"}, {"time": 4036, "annotation": {"number": 64, "value": 0}, "group": "control_change"}, {"time": 4039, "annotation": {"number": 64, "value": 127}, "group": "control_change"}, {"time": 4060, "annotation": {"number": 64, "value": 0}, "group": "control_change"}, {"time": 4064, "annotation": {"number": 64, "value": 127}, "group": "control_change"}, {"time": 4109, "annotation": {"number": 64, "value": 0}, "group": "control_change"}, {"time": 4112, "annotation": {"number": 64, "value": 127}, "group": "control_change"}, {"time": 4132, "annotation": {"number": 64, "value": 0}, "group": "control_change"}, {"time": 4136, "annotation": {"number": 64, "value": 127}, "group": "control_change"}, {"time": 4157, "annotation": {"number": 64, "value": 0}, "group": "control_change"}, {"time": 4160, "annotation": {"number": 64, "value": 127}, "group": "control_change"}, {"time": 4204, "annotation": {"number": 64, "value": 0}, "group": "control_change"}, {"time": 4208, "annotation": {"number": 64, "value": 127}, "group": "control_change"}, {"time": 4210, "annotation": {"number": 64, "value": 127}, "group": "control_change"}, {"time": 4227, "annotation": {"number": 64, "value": 0}, "group": "control_change"}, {"time": 4255, "annotation": {"number": 64, "value": 127}, "group": "control_change"}, {"time": 4300, "annotation": {"number": 64, "value": 0}, "group": "control_change"}, {"time": 4304, "annotation": {"number": 64, "value": 127}, "group": "control_change"}, {"time": 4347, "annotation": {"number": 64, "value": 0}, "group": "control_change"}, {"time": 4353, "annotation": {"number": 64, "value": 127}, "group": "control_change"}, {"time": 4395, "annotation": {"number": 64, "value": 0}, "group": "control_change"}, {"time": 4400, "annotation": {"number": 64, "value": 127}, "group": "control_change"}, {"time": 4442, "annotation": {"number": 64, "value": 0}, "group": "control_change"}, {"time": 4448, "annotation": {"number": 64, "value": 127}, "group": "control_change"}, {"time": 4490, "annotation": {"number": 64, "value": 0}, "group": "control_change"}, {"time": 4497, "annotation": {"number": 64, "value": 127}, "group": "control_change"}, {"time": 4515, "annotation": {"number": 64, "value": 0}, "group": "control_change"}, {"time": 4520, "annotation": {"number": 64, "value": 127}, "group": "control_change"}, {"time": 4539, "annotation": {"number": 64, "value": 0}, "group": "control_change"}, {"time": 4544, "annotation": {"number": 64, "value": 127}, "group": "control_change"}, {"time": 4588, "annotation": {"number": 64, "value": 0}, "group": "control_change"}, {"time": 4592, "annotation": {"number": 64, "value": 127}, "group": "control_change"}, {"time": 4636, "annotation": {"number": 64, "value": 0}, "group": "control_change"}, {"time": 4640, "annotation": {"number": 64, "value": 127}, "group": "control_change"}, {"time": 4643, "annotation": {"number": 64, "value": 0}, "group": "control_change"}, {"time": 4644, "annotation": {"number": 64, "value": 127}, "group": "control_change"}, {"time": 4684, "annotation": {"number": 64, "value": 0}, "group": "control_change"}, {"time": 4687, "annotation": {"number": 64, "value": 127}, "group": "control_change"}, {"time": 4733, "annotation": {"number": 64, "value": 0}, "group": "control_change"}, {"time": 4736, "annotation": {"number": 64, "value": 127}, "group": "control_change"}, {"time": 4739, "annotation": {"number": 64, "value": 0}, "group": "control_change"}, {"time": 4741, "annotation": {"number": 64, "value": 127}, "group": "control_change"}, {"time": 4780, "annotation": {"number": 64, "value": 0}, "group": "control_change"}, {"time": 4783, "annotation": {"number": 64, "value": 127}, "group": "control_change"}, {"time": 4829, "annotation": {"number": 64, "value": 0}, "group": "control_change"}, {"time": 4832, "annotation": {"number": 64, "value": 127}, "group": "control_change"}, {"time": 4876, "annotation": {"number": 64, "value": 0}, "group": "control_change"}, {"time": 4879, "annotation": {"number": 64, "value": 127}, "group": "control_change"}, {"time": 4901, "annotation": {"number": 64, "value": 0}, "group": "control_change"}, {"time": 4904, "annotation": {"number": 64, "value": 127}, "group": "control_change"}, {"time": 4924, "annotation": {"number": 64, "value": 0}, "group": "control_change"}, {"time": 4929, "annotation": {"number": 64, "value": 127}, "group": "control_change"}, {"time": 4972, "annotation": {"number": 64, "value": 0}, "group": "control_change"}, {"time": 4976, "annotation": {"number": 64, "value": 127}, "group": "control_change"}, {"time": 4996, "annotation": {"number": 64, "value": 0}, "group": "control_change"}, {"time": 4999, "annotation": {"number": 64, "value": 127}, "group": "control_change"}, {"time": 5019, "annotation": {"number": 64, "value": 0}, "group": "control_change"}, {"time": 5024, "annotation": {"number": 64, "value": 127}, "group": "control_change"}, {"time": 5066, "annotation": {"number": 64, "value": 0}, "group": "control_change"}, {"time": 5071, "annotation": {"number": 64, "value": 127}, "group": "control_change"}, {"time": 5113, "annotation": {"number": 64, "value": 0}, "group": "control_change"}, {"time": 5119, "annotation": {"number": 64, "value": 127}, "group": "control_change"}, {"time": 5163, "annotation": {"number": 64, "value": 0}, "group": "control_change"}, {"time": 5166, "annotation": {"number": 64, "value": 127}, "group": "control_change"}, {"time": 5187, "annotation": {"number": 64, "value": 0}, "group": "control_change"}, {"time": 5191, "annotation": {"number": 64, "value": 127}, "group": "control_change"}, {"time": 5213, "annotation": {"number": 64, "value": 0}, "group": "control_change"}, {"time": 5216, "annotation": {"number": 64, "value": 127}, "group": "control_change"}, {"time": 5260, "annotation": {"number": 64, "value": 0}, "group": "control_change"}, {"time": 5264, "annotation": {"number": 64, "value": 127}, "group": "control_change"}, {"time": 5307, "annotation": {"number": 64, "value": 0}, "group": "control_change"}, {"time": 5313, "annotation": {"number": 64, "value": 127}, "group": "control_change"}, {"time": 5355, "annotation": {"number": 64, "value": 0}, "group": "control_change"}, {"time": 5359, "annotation": {"number": 64, "value": 127}, "group": "control_change"}, {"time": 5379, "annotation": {"number": 64, "value": 0}, "group": "control_change"}, {"time": 5383, "annotation": {"number": 64, "value": 127}, "group": "control_change"}, {"time": 5388, "annotation": {"number": 64, "value": 127}, "group": "control_change"}, {"time": 5396, "annotation": {"number": 64, "value": 0}, "group": "control_change"}, {"time": 5421, "annotation": {"number": 64, "value": 127}, "group": "control_change"}, {"time": 5463, "annotation": {"number": 64, "value": 0}, "group": "control_change"}, {"time": 5468, "annotation": {"number": 64, "value": 127}, "group": "control_change"}, {"time": 5510, "annotation": {"number": 64, "value": 0}, "group": "control_change"}, {"time": 5515, "annotation": {"number": 64, "value": 127}, "group": "control_change"}, {"time": 5559, "annotation": {"number": 64, "value": 0}, "group": "control_change"}, {"time": 5566, "annotation": {"number": 64, "value": 127}, "group": "control_change"}, {"time": 5585, "annotation": {"number": 64, "value": 0}, "group": "control_change"}, {"time": 5613, "annotation": {"number": 64, "value": 127}, "group": "control_change"}, {"time": 5656, "annotation": {"number": 64, "value": 0}, "group": "control_change"}, {"time": 5661, "annotation": {"number": 64, "value": 127}, "group": "control_change"}, {"time": 5704, "annotation": {"number": 64, "value": 0}, "group": "control_change"}, {"time": 5708, "annotation": {"number": 64, "value": 127}, "group": "control_change"}, {"time": 5749, "annotation": {"number": 64, "value": 0}, "group": "control_change"}, {"time": 5757, "annotation": {"number": 64, "value": 127}, "group": "control_change"}]}]}