{"metadata": {"schema_version": "0.2", "title": "None", "source_filename": "738.mid", "source_format": "midi"}, "resolution": 12, "tempos": [{"time": 0, "qpm": 66.02999082183128}, {"time": 1056, "qpm": 66.50004710420004}, {"time": 1104, "qpm": 68.0000725334107}, {"time": 1188, "qpm": 66.50004710420004}, {"time": 1320, "qpm": 67.00002903334591}, {"time": 1776, "qpm": 67.5000675000675}, {"time": 1848, "qpm": 67.00002903334591}, {"time": 3192, "qpm": 52.000006933334255}, {"time": 3228, "qpm": 62.99999685000016}, {"time": 3276, "qpm": 73.00007178340392}, {"time": 3288, "qpm": 67.5000675000675}, {"time": 3300, "qpm": 67.10005848888432}], "time_signatures": [{"time": 0, "numerator": 1, "denominator": 4}], "tracks": [{"program": 4, "is_drum": false, "name": "MELODY", "notes": [{"time": 192, "pitch": 71, "duration": 15, "velocity": 112}, {"time": 216, "pitch": 70, "duration": 6, "velocity": 97}, {"time": 222, "pitch": 71, "duration": 7, "velocity": 90}, {"time": 228, "pitch": 73, "duration": 8, "velocity": 88}, {"time": 240, "pitch": 70, "duration": 6, "velocity": 97}, {"time": 246, "pitch": 66, "duration": 25, "velocity": 93}, {"time": 288, "pitch": 71, "duration": 13, "velocity": 95}, {"time": 312, "pitch": 70, "duration": 3, "velocity": 100}, {"time": 318, "pitch": 71, "duration": 2, "velocity": 92}, {"time": 321, "pitch": 73, "duration": 6, "velocity": 112}, {"time": 330, "pitch": 66, "duration": 2, "velocity": 92}, {"time": 336, "pitch": 75, "duration": 15, "velocity": 100}, {"time": 372, "pitch": 75, "duration": 5, "velocity": 107}, {"time": 378, "pitch": 78, "duration": 4, "velocity": 117}, {"time": 384, "pitch": 78, "duration": 5, "velocity": 122}, {"time": 390, "pitch": 71, "duration": 1, "velocity": 89}, {"time": 396, "pitch": 71, "duration": 3, "velocity": 112}, {"time": 399, "pitch": 73, "duration": 1, "velocity": 97}, {"time": 405, "pitch": 73, "duration": 10, "velocity": 107}, {"time": 420, "pitch": 70, "duration": 2, "velocity": 107}, {"time": 426, "pitch": 78, "duration": 3, "velocity": 122}, {"time": 432, "pitch": 78, "duration": 5, "velocity": 127}, {"time": 438, "pitch": 71, "duration": 2, "velocity": 122}, {"time": 444, "pitch": 71, "duration": 2, "velocity": 117}, {"time": 450, "pitch": 70, "duration": 2, "velocity": 100}, {"time": 453, "pitch": 71, "duration": 13, "velocity": 127}, {"time": 468, "pitch": 73, "duration": 3, "velocity": 122}, {"time": 471, "pitch": 74, "duration": 3, "velocity": 100}, {"time": 474, "pitch": 73, "duration": 8, "velocity": 99}, {"time": 486, "pitch": 71, "duration": 4, "velocity": 107}, {"time": 489, "pitch": 75, "duration": 4, "velocity": 99}, {"time": 495, "pitch": 73, "duration": 16, "velocity": 93}, {"time": 522, "pitch": 68, "duration": 3, "velocity": 95}, {"time": 528, "pitch": 71, "duration": 11, "velocity": 99}, {"time": 546, "pitch": 73, "duration": 2, "velocity": 102}, {"time": 552, "pitch": 73, "duration": 17, "velocity": 127}, {"time": 576, "pitch": 71, "duration": 9, "velocity": 97}, {"time": 600, "pitch": 70, "duration": 3, "velocity": 97}, {"time": 606, "pitch": 71, "duration": 2, "velocity": 95}, {"time": 609, "pitch": 73, "duration": 4, "velocity": 107}, {"time": 615, "pitch": 66, "duration": 5, "velocity": 99}, {"time": 624, "pitch": 75, "duration": 13, "velocity": 122}, {"time": 672, "pitch": 71, "duration": 18, "velocity": 100}, {"time": 696, "pitch": 70, "duration": 4, "velocity": 93}, {"time": 702, "pitch": 71, "duration": 2, "velocity": 96}, {"time": 705, "pitch": 73, "duration": 7, "velocity": 107}, {"time": 714, "pitch": 66, "duration": 4, "velocity": 100}, {"time": 720, "pitch": 76, "duration": 7, "velocity": 127}, {"time": 732, "pitch": 78, "duration": 11, "velocity": 127}, {"time": 744, "pitch": 75, "duration": 9, "velocity": 122}, {"time": 756, "pitch": 75, "duration": 4, "velocity": 117}, {"time": 762, "pitch": 78, "duration": 4, "velocity": 117}, {"time": 768, "pitch": 78, "duration": 4, "velocity": 117}, {"time": 774, "pitch": 71, "duration": 3, "velocity": 102}, {"time": 780, "pitch": 71, "duration": 4, "velocity": 112}, {"time": 783, "pitch": 73, "duration": 4, "velocity": 127}, {"time": 792, "pitch": 73, "duration": 10, "velocity": 122}, {"time": 804, "pitch": 71, "duration": 5, "velocity": 100}, {"time": 810, "pitch": 78, "duration": 5, "velocity": 122}, {"time": 816, "pitch": 78, "duration": 4, "velocity": 127}, {"time": 822, "pitch": 71, "duration": 2, "velocity": 107}, {"time": 828, "pitch": 71, "duration": 1, "velocity": 112}, {"time": 831, "pitch": 70, "duration": 2, "velocity": 100}, {"time": 837, "pitch": 71, "duration": 10, "velocity": 117}, {"time": 852, "pitch": 74, "duration": 3, "velocity": 127}, {"time": 855, "pitch": 73, "duration": 5, "velocity": 102}, {"time": 861, "pitch": 71, "duration": 2, "velocity": 89}, {"time": 864, "pitch": 75, "duration": 6, "velocity": 127}, {"time": 873, "pitch": 73, "duration": 12, "velocity": 122}, {"time": 906, "pitch": 68, "duration": 2, "velocity": 100}, {"time": 912, "pitch": 75, "duration": 10, "velocity": 127}, {"time": 930, "pitch": 76, "duration": 4, "velocity": 117}, {"time": 936, "pitch": 75, "duration": 5, "velocity": 127}, {"time": 942, "pitch": 73, "duration": 14, "velocity": 96}, {"time": 960, "pitch": 78, "duration": 5, "velocity": 127}, {"time": 966, "pitch": 78, "duration": 2, "velocity": 112}, {"time": 969, "pitch": 78, "duration": 6, "velocity": 122}, {"time": 978, "pitch": 78, "duration": 1, "velocity": 107}, {"time": 981, "pitch": 78, "duration": 5, "velocity": 127}, {"time": 990, "pitch": 76, "duration": 3, "velocity": 117}, {"time": 993, "pitch": 75, "duration": 6, "velocity": 93}, {"time": 999, "pitch": 73, "duration": 7, "velocity": 93}, {"time": 1008, "pitch": 73, "duration": 12, "velocity": 107}, {"time": 1026, "pitch": 73, "duration": 3, "velocity": 117}, {"time": 1029, "pitch": 71, "duration": 4, "velocity": 76}, {"time": 1032, "pitch": 75, "duration": 11, "velocity": 117}, {"time": 1056, "pitch": 78, "duration": 4, "velocity": 100}, {"time": 1062, "pitch": 78, "duration": 1, "velocity": 102}, {"time": 1065, "pitch": 78, "duration": 6, "velocity": 100}, {"time": 1074, "pitch": 78, "duration": 1, "velocity": 112}, {"time": 1077, "pitch": 78, "duration": 5, "velocity": 122}, {"time": 1086, "pitch": 76, "duration": 2, "velocity": 107}, {"time": 1089, "pitch": 75, "duration": 5, "velocity": 96}, {"time": 1095, "pitch": 73, "duration": 3, "velocity": 102}, {"time": 1104, "pitch": 73, "duration": 5, "velocity": 127}, {"time": 1116, "pitch": 50, "duration": 39, "velocity": 1}, {"time": 1116, "pitch": 78, "duration": 6, "velocity": 127}, {"time": 1125, "pitch": 75, "duration": 5, "velocity": 122}, {"time": 1140, "pitch": 73, "duration": 4, "velocity": 117}, {"time": 1146, "pitch": 75, "duration": 3, "velocity": 117}, {"time": 1152, "pitch": 71, "duration": 6, "velocity": 127}, {"time": 1164, "pitch": 75, "duration": 8, "velocity": 127}, {"time": 1176, "pitch": 70, "duration": 9, "velocity": 127}, {"time": 1185, "pitch": 66, "duration": 2, "velocity": 86}, {"time": 1188, "pitch": 66, "duration": 8, "velocity": 102}, {"time": 1200, "pitch": 68, "duration": 5, "velocity": 99}, {"time": 1206, "pitch": 70, "duration": 4, "velocity": 95}, {"time": 1212, "pitch": 71, "duration": 5, "velocity": 112}, {"time": 1218, "pitch": 73, "duration": 6, "velocity": 107}, {"time": 1230, "pitch": 71, "duration": 9, "velocity": 107}, {"time": 1245, "pitch": 66, "duration": 2, "velocity": 93}, {"time": 1248, "pitch": 76, "duration": 4, "velocity": 122}, {"time": 1254, "pitch": 76, "duration": 1, "velocity": 117}, {"time": 1257, "pitch": 75, "duration": 3, "velocity": 112}, {"time": 1263, "pitch": 73, "duration": 6, "velocity": 117}, {"time": 1272, "pitch": 71, "duration": 10, "velocity": 102}, {"time": 1293, "pitch": 66, "duration": 2, "velocity": 99}, {"time": 1296, "pitch": 76, "duration": 4, "velocity": 122}, {"time": 1302, "pitch": 76, "duration": 2, "velocity": 117}, {"time": 1305, "pitch": 75, "duration": 3, "velocity": 127}, {"time": 1311, "pitch": 71, "duration": 3, "velocity": 102}, {"time": 1317, "pitch": 78, "duration": 23, "velocity": 127}, {"time": 1344, "pitch": 78, "duration": 4, "velocity": 127}, {"time": 1350, "pitch": 78, "duration": 1, "velocity": 107}, {"time": 1353, "pitch": 78, "duration": 5, "velocity": 107}, {"time": 1362, "pitch": 78, "duration": 2, "velocity": 127}, {"time": 1368, "pitch": 78, "duration": 3, "velocity": 127}, {"time": 1374, "pitch": 76, "duration": 2, "velocity": 122}, {"time": 1377, "pitch": 75, "duration": 6, "velocity": 107}, {"time": 1383, "pitch": 73, "duration": 5, "velocity": 127}, {"time": 1392, "pitch": 73, "duration": 5, "velocity": 122}, {"time": 1404, "pitch": 73, "duration": 6, "velocity": 127}, {"time": 1410, "pitch": 71, "duration": 2, "velocity": 86}, {"time": 1413, "pitch": 75, "duration": 13, "velocity": 127}, {"time": 1440, "pitch": 78, "duration": 3, "velocity": 127}, {"time": 1446, "pitch": 78, "duration": 1, "velocity": 102}, {"time": 1449, "pitch": 78, "duration": 6, "velocity": 127}, {"time": 1458, "pitch": 78, "duration": 2, "velocity": 117}, {"time": 1464, "pitch": 78, "duration": 4, "velocity": 127}, {"time": 1470, "pitch": 76, "duration": 1, "velocity": 122}, {"time": 1473, "pitch": 75, "duration": 4, "velocity": 127}, {"time": 1479, "pitch": 73, "duration": 5, "velocity": 117}, {"time": 1488, "pitch": 73, "duration": 8, "velocity": 112}, {"time": 1500, "pitch": 78, "duration": 8, "velocity": 127}, {"time": 1509, "pitch": 75, "duration": 12, "velocity": 107}, {"time": 1524, "pitch": 73, "duration": 4, "velocity": 117}, {"time": 1530, "pitch": 75, "duration": 3, "velocity": 122}, {"time": 1536, "pitch": 71, "duration": 10, "velocity": 117}, {"time": 1548, "pitch": 75, "duration": 8, "velocity": 127}, {"time": 1560, "pitch": 70, "duration": 9, "velocity": 117}, {"time": 1572, "pitch": 66, "duration": 6, "velocity": 107}, {"time": 1584, "pitch": 68, "duration": 5, "velocity": 112}, {"time": 1590, "pitch": 71, "duration": 1, "velocity": 117}, {"time": 1593, "pitch": 71, "duration": 4, "velocity": 122}, {"time": 1599, "pitch": 73, "duration": 7, "velocity": 100}, {"time": 1608, "pitch": 71, "duration": 18, "velocity": 102}, {"time": 1629, "pitch": 68, "duration": 2, "velocity": 96}, {"time": 1632, "pitch": 76, "duration": 8, "velocity": 112}, {"time": 1644, "pitch": 75, "duration": 7, "velocity": 112}, {"time": 1656, "pitch": 73, "duration": 7, "velocity": 117}, {"time": 1677, "pitch": 71, "duration": 2, "velocity": 95}, {"time": 1683, "pitch": 71, "duration": 28, "velocity": 96}, {"time": 1848, "pitch": 71, "duration": 9, "velocity": 97}, {"time": 1872, "pitch": 70, "duration": 3, "velocity": 97}, {"time": 1878, "pitch": 71, "duration": 2, "velocity": 95}, {"time": 1881, "pitch": 73, "duration": 4, "velocity": 107}, {"time": 1887, "pitch": 66, "duration": 5, "velocity": 99}, {"time": 1896, "pitch": 75, "duration": 13, "velocity": 122}, {"time": 1944, "pitch": 71, "duration": 18, "velocity": 100}, {"time": 1968, "pitch": 70, "duration": 4, "velocity": 93}, {"time": 1974, "pitch": 71, "duration": 2, "velocity": 96}, {"time": 1977, "pitch": 73, "duration": 7, "velocity": 107}, {"time": 1986, "pitch": 66, "duration": 4, "velocity": 100}, {"time": 1992, "pitch": 76, "duration": 7, "velocity": 127}, {"time": 2004, "pitch": 78, "duration": 11, "velocity": 127}, {"time": 2016, "pitch": 75, "duration": 9, "velocity": 122}, {"time": 2028, "pitch": 75, "duration": 4, "velocity": 117}, {"time": 2034, "pitch": 78, "duration": 4, "velocity": 117}, {"time": 2040, "pitch": 78, "duration": 4, "velocity": 117}, {"time": 2046, "pitch": 71, "duration": 3, "velocity": 102}, {"time": 2052, "pitch": 71, "duration": 4, "velocity": 112}, {"time": 2055, "pitch": 73, "duration": 4, "velocity": 127}, {"time": 2064, "pitch": 73, "duration": 10, "velocity": 122}, {"time": 2076, "pitch": 71, "duration": 5, "velocity": 100}, {"time": 2082, "pitch": 78, "duration": 5, "velocity": 122}, {"time": 2088, "pitch": 78, "duration": 4, "velocity": 127}, {"time": 2094, "pitch": 71, "duration": 2, "velocity": 107}, {"time": 2100, "pitch": 71, "duration": 1, "velocity": 112}, {"time": 2103, "pitch": 70, "duration": 2, "velocity": 100}, {"time": 2109, "pitch": 71, "duration": 10, "velocity": 117}, {"time": 2124, "pitch": 74, "duration": 3, "velocity": 127}, {"time": 2127, "pitch": 73, "duration": 5, "velocity": 102}, {"time": 2133, "pitch": 71, "duration": 2, "velocity": 89}, {"time": 2136, "pitch": 75, "duration": 6, "velocity": 127}, {"time": 2145, "pitch": 73, "duration": 12, "velocity": 122}, {"time": 2178, "pitch": 68, "duration": 2, "velocity": 100}, {"time": 2184, "pitch": 75, "duration": 10, "velocity": 127}, {"time": 2202, "pitch": 76, "duration": 4, "velocity": 117}, {"time": 2208, "pitch": 75, "duration": 5, "velocity": 127}, {"time": 2214, "pitch": 73, "duration": 14, "velocity": 96}, {"time": 2232, "pitch": 78, "duration": 5, "velocity": 127}, {"time": 2238, "pitch": 78, "duration": 2, "velocity": 112}, {"time": 2241, "pitch": 78, "duration": 6, "velocity": 122}, {"time": 2250, "pitch": 78, "duration": 1, "velocity": 107}, {"time": 2253, "pitch": 78, "duration": 5, "velocity": 127}, {"time": 2262, "pitch": 76, "duration": 3, "velocity": 117}, {"time": 2265, "pitch": 75, "duration": 6, "velocity": 93}, {"time": 2271, "pitch": 73, "duration": 7, "velocity": 93}, {"time": 2280, "pitch": 73, "duration": 12, "velocity": 107}, {"time": 2298, "pitch": 73, "duration": 3, "velocity": 117}, {"time": 2301, "pitch": 71, "duration": 4, "velocity": 76}, {"time": 2304, "pitch": 75, "duration": 11, "velocity": 117}, {"time": 2328, "pitch": 78, "duration": 4, "velocity": 100}, {"time": 2334, "pitch": 78, "duration": 1, "velocity": 102}, {"time": 2337, "pitch": 78, "duration": 6, "velocity": 100}, {"time": 2346, "pitch": 78, "duration": 1, "velocity": 112}, {"time": 2349, "pitch": 78, "duration": 5, "velocity": 122}, {"time": 2358, "pitch": 76, "duration": 2, "velocity": 107}, {"time": 2361, "pitch": 75, "duration": 5, "velocity": 96}, {"time": 2367, "pitch": 73, "duration": 3, "velocity": 102}, {"time": 2376, "pitch": 73, "duration": 5, "velocity": 127}, {"time": 2388, "pitch": 50, "duration": 39, "velocity": 1}, {"time": 2388, "pitch": 78, "duration": 6, "velocity": 127}, {"time": 2397, "pitch": 75, "duration": 5, "velocity": 122}, {"time": 2412, "pitch": 73, "duration": 4, "velocity": 117}, {"time": 2418, "pitch": 75, "duration": 3, "velocity": 117}, {"time": 2424, "pitch": 71, "duration": 6, "velocity": 127}, {"time": 2436, "pitch": 75, "duration": 8, "velocity": 127}, {"time": 2448, "pitch": 70, "duration": 9, "velocity": 127}, {"time": 2457, "pitch": 66, "duration": 2, "velocity": 86}, {"time": 2460, "pitch": 66, "duration": 8, "velocity": 102}, {"time": 2472, "pitch": 68, "duration": 5, "velocity": 99}, {"time": 2478, "pitch": 70, "duration": 4, "velocity": 95}, {"time": 2484, "pitch": 71, "duration": 5, "velocity": 112}, {"time": 2490, "pitch": 73, "duration": 6, "velocity": 107}, {"time": 2496, "pitch": 71, "duration": 13, "velocity": 102}, {"time": 2517, "pitch": 66, "duration": 2, "velocity": 93}, {"time": 2520, "pitch": 76, "duration": 4, "velocity": 122}, {"time": 2526, "pitch": 76, "duration": 1, "velocity": 117}, {"time": 2529, "pitch": 75, "duration": 3, "velocity": 112}, {"time": 2535, "pitch": 73, "duration": 6, "velocity": 117}, {"time": 2544, "pitch": 71, "duration": 10, "velocity": 102}, {"time": 2565, "pitch": 66, "duration": 2, "velocity": 99}, {"time": 2568, "pitch": 76, "duration": 4, "velocity": 122}, {"time": 2574, "pitch": 76, "duration": 2, "velocity": 117}, {"time": 2577, "pitch": 75, "duration": 3, "velocity": 127}, {"time": 2583, "pitch": 71, "duration": 3, "velocity": 102}, {"time": 2589, "pitch": 78, "duration": 23, "velocity": 127}, {"time": 2616, "pitch": 78, "duration": 4, "velocity": 127}, {"time": 2622, "pitch": 78, "duration": 1, "velocity": 107}, {"time": 2625, "pitch": 78, "duration": 5, "velocity": 107}, {"time": 2634, "pitch": 78, "duration": 2, "velocity": 127}, {"time": 2640, "pitch": 78, "duration": 3, "velocity": 127}, {"time": 2646, "pitch": 76, "duration": 2, "velocity": 122}, {"time": 2649, "pitch": 75, "duration": 6, "velocity": 107}, {"time": 2655, "pitch": 73, "duration": 5, "velocity": 127}, {"time": 2664, "pitch": 73, "duration": 5, "velocity": 122}, {"time": 2676, "pitch": 73, "duration": 6, "velocity": 127}, {"time": 2682, "pitch": 71, "duration": 2, "velocity": 86}, {"time": 2685, "pitch": 75, "duration": 13, "velocity": 127}, {"time": 2712, "pitch": 78, "duration": 3, "velocity": 127}, {"time": 2718, "pitch": 78, "duration": 1, "velocity": 102}, {"time": 2721, "pitch": 78, "duration": 6, "velocity": 127}, {"time": 2730, "pitch": 78, "duration": 2, "velocity": 117}, {"time": 2736, "pitch": 78, "duration": 4, "velocity": 127}, {"time": 2742, "pitch": 76, "duration": 1, "velocity": 122}, {"time": 2745, "pitch": 75, "duration": 4, "velocity": 127}, {"time": 2751, "pitch": 73, "duration": 5, "velocity": 117}, {"time": 2760, "pitch": 73, "duration": 8, "velocity": 112}, {"time": 2772, "pitch": 78, "duration": 8, "velocity": 127}, {"time": 2781, "pitch": 75, "duration": 12, "velocity": 107}, {"time": 2796, "pitch": 73, "duration": 4, "velocity": 117}, {"time": 2802, "pitch": 75, "duration": 3, "velocity": 122}, {"time": 2808, "pitch": 71, "duration": 10, "velocity": 117}, {"time": 2820, "pitch": 75, "duration": 8, "velocity": 127}, {"time": 2832, "pitch": 70, "duration": 9, "velocity": 117}, {"time": 2844, "pitch": 66, "duration": 6, "velocity": 107}, {"time": 2856, "pitch": 68, "duration": 5, "velocity": 112}, {"time": 2862, "pitch": 71, "duration": 1, "velocity": 117}, {"time": 2865, "pitch": 71, "duration": 4, "velocity": 122}, {"time": 2871, "pitch": 73, "duration": 7, "velocity": 100}, {"time": 2880, "pitch": 71, "duration": 18, "velocity": 102}, {"time": 2901, "pitch": 68, "duration": 2, "velocity": 96}, {"time": 2904, "pitch": 76, "duration": 8, "velocity": 112}, {"time": 2916, "pitch": 75, "duration": 7, "velocity": 112}, {"time": 2928, "pitch": 73, "duration": 7, "velocity": 117}, {"time": 2946, "pitch": 70, "duration": 2, "velocity": 102}, {"time": 2952, "pitch": 73, "duration": 8, "velocity": 127}, {"time": 2958, "pitch": 71, "duration": 32, "velocity": 96}, {"time": 3228, "pitch": 79, "duration": 5, "velocity": 127}, {"time": 3234, "pitch": 79, "duration": 2, "velocity": 100}, {"time": 3237, "pitch": 79, "duration": 6, "velocity": 127}, {"time": 3246, "pitch": 79, "duration": 1, "velocity": 107}, {"time": 3249, "pitch": 79, "duration": 3, "velocity": 127}, {"time": 3258, "pitch": 77, "duration": 1, "velocity": 127}, {"time": 3261, "pitch": 76, "duration": 4, "velocity": 117}, {"time": 3267, "pitch": 74, "duration": 6, "velocity": 122}, {"time": 3279, "pitch": 74, "duration": 13, "velocity": 127}, {"time": 3297, "pitch": 72, "duration": 2, "velocity": 127}, {"time": 3300, "pitch": 76, "duration": 13, "velocity": 127}, {"time": 3324, "pitch": 79, "duration": 3, "velocity": 127}, {"time": 3329, "pitch": 79, "duration": 2, "velocity": 122}, {"time": 3332, "pitch": 79, "duration": 7, "velocity": 122}, {"time": 3341, "pitch": 79, "duration": 2, "velocity": 127}, {"time": 3346, "pitch": 79, "duration": 6, "velocity": 112}, {"time": 3353, "pitch": 77, "duration": 3, "velocity": 127}, {"time": 3356, "pitch": 76, "duration": 5, "velocity": 112}, {"time": 3362, "pitch": 74, "duration": 9, "velocity": 127}, {"time": 3372, "pitch": 74, "duration": 5, "velocity": 127}, {"time": 3384, "pitch": 51, "duration": 39, "velocity": 1}, {"time": 3384, "pitch": 79, "duration": 6, "velocity": 127}, {"time": 3393, "pitch": 76, "duration": 5, "velocity": 122}, {"time": 3408, "pitch": 74, "duration": 4, "velocity": 117}, {"time": 3414, "pitch": 76, "duration": 3, "velocity": 117}, {"time": 3420, "pitch": 72, "duration": 6, "velocity": 127}, {"time": 3432, "pitch": 76, "duration": 8, "velocity": 127}, {"time": 3444, "pitch": 71, "duration": 9, "velocity": 127}, {"time": 3453, "pitch": 67, "duration": 2, "velocity": 86}, {"time": 3456, "pitch": 67, "duration": 8, "velocity": 102}, {"time": 3468, "pitch": 69, "duration": 5, "velocity": 99}, {"time": 3474, "pitch": 71, "duration": 4, "velocity": 95}, {"time": 3480, "pitch": 72, "duration": 5, "velocity": 112}, {"time": 3486, "pitch": 74, "duration": 6, "velocity": 107}, {"time": 3492, "pitch": 72, "duration": 13, "velocity": 102}, {"time": 3513, "pitch": 67, "duration": 2, "velocity": 93}, {"time": 3516, "pitch": 77, "duration": 4, "velocity": 122}, {"time": 3522, "pitch": 77, "duration": 1, "velocity": 117}, {"time": 3525, "pitch": 76, "duration": 3, "velocity": 112}, {"time": 3531, "pitch": 74, "duration": 6, "velocity": 117}, {"time": 3540, "pitch": 72, "duration": 10, "velocity": 102}, {"time": 3561, "pitch": 67, "duration": 2, "velocity": 99}, {"time": 3564, "pitch": 77, "duration": 4, "velocity": 122}, {"time": 3570, "pitch": 77, "duration": 2, "velocity": 117}, {"time": 3573, "pitch": 76, "duration": 3, "velocity": 127}, {"time": 3579, "pitch": 72, "duration": 3, "velocity": 102}, {"time": 3585, "pitch": 79, "duration": 23, "velocity": 127}, {"time": 3612, "pitch": 79, "duration": 4, "velocity": 127}, {"time": 3618, "pitch": 79, "duration": 1, "velocity": 107}, {"time": 3621, "pitch": 79, "duration": 5, "velocity": 107}, {"time": 3630, "pitch": 79, "duration": 2, "velocity": 127}, {"time": 3636, "pitch": 79, "duration": 3, "velocity": 127}, {"time": 3642, "pitch": 77, "duration": 2, "velocity": 122}, {"time": 3645, "pitch": 76, "duration": 6, "velocity": 107}, {"time": 3651, "pitch": 74, "duration": 5, "velocity": 127}, {"time": 3660, "pitch": 74, "duration": 5, "velocity": 122}, {"time": 3672, "pitch": 74, "duration": 6, "velocity": 127}, {"time": 3678, "pitch": 72, "duration": 2, "velocity": 86}, {"time": 3681, "pitch": 76, "duration": 13, "velocity": 127}, {"time": 3708, "pitch": 79, "duration": 3, "velocity": 127}, {"time": 3714, "pitch": 79, "duration": 1, "velocity": 102}, {"time": 3717, "pitch": 79, "duration": 6, "velocity": 127}, {"time": 3726, "pitch": 79, "duration": 2, "velocity": 117}, {"time": 3732, "pitch": 79, "duration": 4, "velocity": 127}, {"time": 3738, "pitch": 84, "duration": 2, "velocity": 127}, {"time": 3741, "pitch": 83, "duration": 3, "velocity": 122}, {"time": 3747, "pitch": 81, "duration": 4, "velocity": 127}, {"time": 3753, "pitch": 79, "duration": 9, "velocity": 127}, {"time": 3792, "pitch": 79, "duration": 4, "velocity": 127}, {"time": 3798, "pitch": 77, "duration": 4, "velocity": 127}, {"time": 3804, "pitch": 76, "duration": 8, "velocity": 117}, {"time": 3816, "pitch": 79, "duration": 8, "velocity": 127}, {"time": 3828, "pitch": 81, "duration": 10, "velocity": 127}, {"time": 3840, "pitch": 79, "duration": 7, "velocity": 127}, {"time": 3852, "pitch": 79, "duration": 3, "velocity": 127}, {"time": 3858, "pitch": 76, "duration": 2, "velocity": 102}, {"time": 3861, "pitch": 74, "duration": 5, "velocity": 127}, {"time": 3867, "pitch": 72, "duration": 3, "velocity": 127}, {"time": 3873, "pitch": 72, "duration": 19, "velocity": 127}, {"time": 3899, "pitch": 67, "duration": 5, "velocity": 79}, {"time": 3904, "pitch": 77, "duration": 10, "velocity": 107}, {"time": 3916, "pitch": 76, "duration": 11, "velocity": 95}, {"time": 3928, "pitch": 74, "duration": 20, "velocity": 93}, {"time": 3954, "pitch": 72, "duration": 3, "velocity": 99}, {"time": 3961, "pitch": 72, "duration": 11, "velocity": 95}, {"time": 3982, "pitch": 72, "duration": 6, "velocity": 90}, {"time": 3987, "pitch": 74, "duration": 5, "velocity": 88}, {"time": 3992, "pitch": 76, "duration": 5, "velocity": 78}, {"time": 3997, "pitch": 81, "duration": 33, "velocity": 99}, {"time": 4042, "pitch": 69, "duration": 9, "velocity": 76}, {"time": 4050, "pitch": 77, "duration": 11, "velocity": 99}, {"time": 4067, "pitch": 76, "duration": 7, "velocity": 92}, {"time": 4081, "pitch": 74, "duration": 14, "velocity": 100}, {"time": 4111, "pitch": 72, "duration": 6, "velocity": 88}, {"time": 4122, "pitch": 72, "duration": 45, "velocity": 99}]}, {"program": 0, "is_drum": false, "name": "PIANO", "notes": [{"time": 24, "pitch": 40, "duration": 39, "velocity": 52}, {"time": 24, "pitch": 56, "duration": 28, "velocity": 54}, {"time": 24, "pitch": 59, "duration": 32, "velocity": 54}, {"time": 24, "pitch": 63, "duration": 44, "velocity": 58}, {"time": 24, "pitch": 66, "duration": 21, "velocity": 78}, {"time": 48, "pitch": 66, "duration": 21, "velocity": 76}, {"time": 54, "pitch": 56, "duration": 15, "velocity": 41}, {"time": 60, "pitch": 59, "duration": 9, "velocity": 55}, {"time": 72, "pitch": 44, "duration": 17, "velocity": 45}, {"time": 72, "pitch": 56, "duration": 16, "velocity": 51}, {"time": 72, "pitch": 59, "duration": 21, "velocity": 52}, {"time": 72, "pitch": 63, "duration": 11, "velocity": 60}, {"time": 84, "pitch": 63, "duration": 8, "velocity": 66}, {"time": 90, "pitch": 56, "duration": 7, "velocity": 47}, {"time": 96, "pitch": 42, "duration": 15, "velocity": 62}, {"time": 96, "pitch": 58, "duration": 20, "velocity": 51}, {"time": 96, "pitch": 61, "duration": 10, "velocity": 54}, {"time": 102, "pitch": 49, "duration": 9, "velocity": 41}, {"time": 108, "pitch": 61, "duration": 8, "velocity": 68}, {"time": 120, "pitch": 40, "duration": 22, "velocity": 56}, {"time": 120, "pitch": 52, "duration": 2, "velocity": 38}, {"time": 120, "pitch": 56, "duration": 19, "velocity": 55}, {"time": 120, "pitch": 59, "duration": 22, "velocity": 68}, {"time": 126, "pitch": 47, "duration": 16, "velocity": 48}, {"time": 132, "pitch": 52, "duration": 4, "velocity": 58}, {"time": 138, "pitch": 52, "duration": 5, "velocity": 48}, {"time": 144, "pitch": 40, "duration": 24, "velocity": 57}, {"time": 144, "pitch": 52, "duration": 44, "velocity": 65}, {"time": 144, "pitch": 55, "duration": 44, "velocity": 85}, {"time": 144, "pitch": 59, "duration": 44, "velocity": 76}, {"time": 192, "pitch": 39, "duration": 21, "velocity": 58}, {"time": 192, "pitch": 56, "duration": 21, "velocity": 74}, {"time": 192, "pitch": 59, "duration": 21, "velocity": 78}, {"time": 192, "pitch": 63, "duration": 21, "velocity": 71}, {"time": 216, "pitch": 39, "duration": 22, "velocity": 66}, {"time": 216, "pitch": 58, "duration": 22, "velocity": 93}, {"time": 216, "pitch": 61, "duration": 19, "velocity": 90}, {"time": 240, "pitch": 39, "duration": 46, "velocity": 73}, {"time": 240, "pitch": 58, "duration": 46, "velocity": 90}, {"time": 240, "pitch": 63, "duration": 46, "velocity": 83}, {"time": 288, "pitch": 40, "duration": 24, "velocity": 67}, {"time": 288, "pitch": 56, "duration": 23, "velocity": 72}, {"time": 288, "pitch": 59, "duration": 23, "velocity": 86}, {"time": 288, "pitch": 63, "duration": 23, "velocity": 75}, {"time": 312, "pitch": 40, "duration": 23, "velocity": 72}, {"time": 312, "pitch": 58, "duration": 23, "velocity": 86}, {"time": 312, "pitch": 61, "duration": 23, "velocity": 79}, {"time": 336, "pitch": 44, "duration": 35, "velocity": 78}, {"time": 336, "pitch": 56, "duration": 44, "velocity": 81}, {"time": 336, "pitch": 59, "duration": 44, "velocity": 93}, {"time": 336, "pitch": 63, "duration": 44, "velocity": 79}, {"time": 384, "pitch": 40, "duration": 23, "velocity": 56}, {"time": 384, "pitch": 52, "duration": 10, "velocity": 72}, {"time": 384, "pitch": 56, "duration": 14, "velocity": 82}, {"time": 384, "pitch": 59, "duration": 23, "velocity": 67}, {"time": 384, "pitch": 63, "duration": 23, "velocity": 66}, {"time": 390, "pitch": 47, "duration": 19, "velocity": 55}, {"time": 396, "pitch": 52, "duration": 11, "velocity": 63}, {"time": 402, "pitch": 56, "duration": 5, "velocity": 48}, {"time": 408, "pitch": 40, "duration": 17, "velocity": 63}, {"time": 408, "pitch": 52, "duration": 14, "velocity": 75}, {"time": 408, "pitch": 56, "duration": 11, "velocity": 76}, {"time": 408, "pitch": 59, "duration": 18, "velocity": 62}, {"time": 408, "pitch": 63, "duration": 18, "velocity": 71}, {"time": 414, "pitch": 47, "duration": 9, "velocity": 48}, {"time": 420, "pitch": 56, "duration": 6, "velocity": 69}, {"time": 432, "pitch": 39, "duration": 13, "velocity": 65}, {"time": 432, "pitch": 54, "duration": 14, "velocity": 71}, {"time": 432, "pitch": 58, "duration": 24, "velocity": 69}, {"time": 432, "pitch": 61, "duration": 24, "velocity": 76}, {"time": 438, "pitch": 46, "duration": 7, "velocity": 58}, {"time": 444, "pitch": 51, "duration": 6, "velocity": 82}, {"time": 450, "pitch": 54, "duration": 6, "velocity": 70}, {"time": 456, "pitch": 44, "duration": 18, "velocity": 76}, {"time": 462, "pitch": 51, "duration": 8, "velocity": 63}, {"time": 468, "pitch": 63, "duration": 11, "velocity": 122}, {"time": 471, "pitch": 51, "duration": 2, "velocity": 66}, {"time": 474, "pitch": 59, "duration": 5, "velocity": 102}, {"time": 477, "pitch": 56, "duration": 3, "velocity": 69}, {"time": 480, "pitch": 45, "duration": 21, "velocity": 95}, {"time": 486, "pitch": 52, "duration": 13, "velocity": 72}, {"time": 492, "pitch": 61, "duration": 22, "velocity": 100}, {"time": 498, "pitch": 57, "duration": 18, "velocity": 72}, {"time": 501, "pitch": 52, "duration": 27, "velocity": 52}, {"time": 504, "pitch": 45, "duration": 16, "velocity": 59}, {"time": 516, "pitch": 61, "duration": 12, "velocity": 83}, {"time": 522, "pitch": 57, "duration": 6, "velocity": 60}, {"time": 528, "pitch": 42, "duration": 43, "velocity": 71}, {"time": 534, "pitch": 49, "duration": 36, "velocity": 36}, {"time": 540, "pitch": 54, "duration": 7, "velocity": 74}, {"time": 546, "pitch": 58, "duration": 30, "velocity": 48}, {"time": 552, "pitch": 54, "duration": 15, "velocity": 50}, {"time": 552, "pitch": 61, "duration": 24, "velocity": 70}, {"time": 570, "pitch": 54, "duration": 5, "velocity": 66}, {"time": 576, "pitch": 40, "duration": 22, "velocity": 81}, {"time": 579, "pitch": 47, "duration": 21, "velocity": 47}, {"time": 582, "pitch": 52, "duration": 7, "velocity": 86}, {"time": 585, "pitch": 56, "duration": 6, "velocity": 65}, {"time": 588, "pitch": 64, "duration": 13, "velocity": 76}, {"time": 591, "pitch": 52, "duration": 2, "velocity": 82}, {"time": 594, "pitch": 56, "duration": 7, "velocity": 82}, {"time": 600, "pitch": 42, "duration": 16, "velocity": 79}, {"time": 606, "pitch": 49, "duration": 9, "velocity": 60}, {"time": 612, "pitch": 61, "duration": 12, "velocity": 100}, {"time": 618, "pitch": 58, "duration": 6, "velocity": 76}, {"time": 624, "pitch": 44, "duration": 41, "velocity": 90}, {"time": 630, "pitch": 51, "duration": 9, "velocity": 63}, {"time": 636, "pitch": 59, "duration": 24, "velocity": 96}, {"time": 642, "pitch": 51, "duration": 8, "velocity": 47}, {"time": 648, "pitch": 58, "duration": 12, "velocity": 77}, {"time": 654, "pitch": 51, "duration": 8, "velocity": 53}, {"time": 660, "pitch": 63, "duration": 13, "velocity": 99}, {"time": 663, "pitch": 59, "duration": 10, "velocity": 75}, {"time": 666, "pitch": 56, "duration": 7, "velocity": 83}, {"time": 672, "pitch": 40, "duration": 15, "velocity": 79}, {"time": 678, "pitch": 47, "duration": 9, "velocity": 69}, {"time": 684, "pitch": 59, "duration": 13, "velocity": 99}, {"time": 690, "pitch": 56, "duration": 6, "velocity": 77}, {"time": 696, "pitch": 42, "duration": 16, "velocity": 86}, {"time": 702, "pitch": 49, "duration": 8, "velocity": 93}, {"time": 708, "pitch": 61, "duration": 12, "velocity": 112}, {"time": 714, "pitch": 58, "duration": 6, "velocity": 95}, {"time": 720, "pitch": 35, "duration": 31, "velocity": 97}, {"time": 726, "pitch": 42, "duration": 24, "velocity": 67}, {"time": 732, "pitch": 47, "duration": 15, "velocity": 102}, {"time": 738, "pitch": 54, "duration": 29, "velocity": 90}, {"time": 744, "pitch": 59, "duration": 20, "velocity": 112}, {"time": 744, "pitch": 63, "duration": 20, "velocity": 112}, {"time": 750, "pitch": 47, "duration": 5, "velocity": 85}, {"time": 756, "pitch": 46, "duration": 12, "velocity": 77}, {"time": 768, "pitch": 40, "duration": 22, "velocity": 70}, {"time": 774, "pitch": 47, "duration": 18, "velocity": 59}, {"time": 780, "pitch": 52, "duration": 4, "velocity": 95}, {"time": 786, "pitch": 56, "duration": 7, "velocity": 83}, {"time": 792, "pitch": 42, "duration": 21, "velocity": 96}, {"time": 798, "pitch": 49, "duration": 9, "velocity": 88}, {"time": 804, "pitch": 58, "duration": 12, "velocity": 83}, {"time": 804, "pitch": 61, "duration": 11, "velocity": 93}, {"time": 810, "pitch": 54, "duration": 6, "velocity": 69}, {"time": 816, "pitch": 47, "duration": 12, "velocity": 112}, {"time": 822, "pitch": 54, "duration": 6, "velocity": 62}, {"time": 822, "pitch": 59, "duration": 14, "velocity": 93}, {"time": 822, "pitch": 63, "duration": 14, "velocity": 89}, {"time": 828, "pitch": 46, "duration": 12, "velocity": 100}, {"time": 834, "pitch": 58, "duration": 6, "velocity": 97}, {"time": 840, "pitch": 44, "duration": 14, "velocity": 69}, {"time": 846, "pitch": 51, "duration": 7, "velocity": 66}, {"time": 852, "pitch": 59, "duration": 6, "velocity": 90}, {"time": 852, "pitch": 63, "duration": 6, "velocity": 79}, {"time": 864, "pitch": 37, "duration": 38, "velocity": 71}, {"time": 864, "pitch": 49, "duration": 19, "velocity": 89}, {"time": 864, "pitch": 53, "duration": 11, "velocity": 95}, {"time": 864, "pitch": 56, "duration": 10, "velocity": 86}, {"time": 870, "pitch": 44, "duration": 9, "velocity": 41}, {"time": 876, "pitch": 53, "duration": 22, "velocity": 58}, {"time": 876, "pitch": 56, "duration": 22, "velocity": 66}, {"time": 882, "pitch": 44, "duration": 9, "velocity": 53}, {"time": 888, "pitch": 49, "duration": 14, "velocity": 78}, {"time": 894, "pitch": 44, "duration": 8, "velocity": 55}, {"time": 900, "pitch": 53, "duration": 11, "velocity": 100}, {"time": 900, "pitch": 56, "duration": 12, "velocity": 54}, {"time": 906, "pitch": 49, "duration": 5, "velocity": 62}, {"time": 912, "pitch": 42, "duration": 23, "velocity": 90}, {"time": 918, "pitch": 49, "duration": 18, "velocity": 60}, {"time": 924, "pitch": 54, "duration": 5, "velocity": 97}, {"time": 930, "pitch": 58, "duration": 6, "velocity": 102}, {"time": 936, "pitch": 42, "duration": 19, "velocity": 95}, {"time": 936, "pitch": 54, "duration": 11, "velocity": 96}, {"time": 936, "pitch": 58, "duration": 11, "velocity": 83}, {"time": 936, "pitch": 61, "duration": 11, "velocity": 95}, {"time": 948, "pitch": 54, "duration": 10, "velocity": 73}, {"time": 948, "pitch": 58, "duration": 10, "velocity": 96}, {"time": 948, "pitch": 61, "duration": 9, "velocity": 102}, {"time": 960, "pitch": 40, "duration": 22, "velocity": 77}, {"time": 960, "pitch": 56, "duration": 10, "velocity": 102}, {"time": 960, "pitch": 59, "duration": 10, "velocity": 100}, {"time": 966, "pitch": 47, "duration": 7, "velocity": 65}, {"time": 972, "pitch": 59, "duration": 12, "velocity": 102}, {"time": 975, "pitch": 47, "duration": 9, "velocity": 92}, {"time": 978, "pitch": 52, "duration": 4, "velocity": 96}, {"time": 981, "pitch": 56, "duration": 3, "velocity": 112}, {"time": 984, "pitch": 42, "duration": 18, "velocity": 90}, {"time": 987, "pitch": 49, "duration": 10, "velocity": 97}, {"time": 990, "pitch": 54, "duration": 3, "velocity": 100}, {"time": 993, "pitch": 58, "duration": 3, "velocity": 127}, {"time": 996, "pitch": 61, "duration": 11, "velocity": 112}, {"time": 999, "pitch": 49, "duration": 2, "velocity": 92}, {"time": 1002, "pitch": 58, "duration": 6, "velocity": 100}, {"time": 1005, "pitch": 54, "duration": 3, "velocity": 89}, {"time": 1008, "pitch": 39, "duration": 17, "velocity": 79}, {"time": 1011, "pitch": 46, "duration": 15, "velocity": 78}, {"time": 1014, "pitch": 51, "duration": 7, "velocity": 88}, {"time": 1017, "pitch": 54, "duration": 6, "velocity": 85}, {"time": 1020, "pitch": 63, "duration": 12, "velocity": 112}, {"time": 1023, "pitch": 51, "duration": 5, "velocity": 93}, {"time": 1026, "pitch": 58, "duration": 5, "velocity": 82}, {"time": 1029, "pitch": 54, "duration": 3, "velocity": 93}, {"time": 1032, "pitch": 44, "duration": 17, "velocity": 77}, {"time": 1035, "pitch": 51, "duration": 11, "velocity": 53}, {"time": 1038, "pitch": 56, "duration": 5, "velocity": 92}, {"time": 1041, "pitch": 59, "duration": 3, "velocity": 93}, {"time": 1044, "pitch": 63, "duration": 12, "velocity": 112}, {"time": 1047, "pitch": 51, "duration": 2, "velocity": 67}, {"time": 1050, "pitch": 59, "duration": 6, "velocity": 107}, {"time": 1053, "pitch": 56, "duration": 3, "velocity": 82}, {"time": 1056, "pitch": 40, "duration": 22, "velocity": 75}, {"time": 1059, "pitch": 47, "duration": 21, "velocity": 67}, {"time": 1062, "pitch": 52, "duration": 7, "velocity": 88}, {"time": 1065, "pitch": 56, "duration": 8, "velocity": 77}, {"time": 1068, "pitch": 63, "duration": 13, "velocity": 112}, {"time": 1071, "pitch": 52, "duration": 2, "velocity": 90}, {"time": 1074, "pitch": 59, "duration": 6, "velocity": 97}, {"time": 1077, "pitch": 56, "duration": 4, "velocity": 85}, {"time": 1080, "pitch": 42, "duration": 17, "velocity": 82}, {"time": 1083, "pitch": 49, "duration": 10, "velocity": 90}, {"time": 1086, "pitch": 54, "duration": 3, "velocity": 86}, {"time": 1089, "pitch": 58, "duration": 3, "velocity": 96}, {"time": 1092, "pitch": 61, "duration": 11, "velocity": 107}, {"time": 1095, "pitch": 49, "duration": 2, "velocity": 65}, {"time": 1098, "pitch": 58, "duration": 5, "velocity": 99}, {"time": 1101, "pitch": 54, "duration": 7, "velocity": 92}, {"time": 1104, "pitch": 35, "duration": 23, "velocity": 88}, {"time": 1107, "pitch": 42, "duration": 21, "velocity": 70}, {"time": 1110, "pitch": 47, "duration": 7, "velocity": 89}, {"time": 1113, "pitch": 54, "duration": 10, "velocity": 83}, {"time": 1116, "pitch": 63, "duration": 20, "velocity": 112}, {"time": 1119, "pitch": 47, "duration": 4, "velocity": 90}, {"time": 1122, "pitch": 59, "duration": 18, "velocity": 100}, {"time": 1125, "pitch": 54, "duration": 10, "velocity": 86}, {"time": 1128, "pitch": 35, "duration": 9, "velocity": 86}, {"time": 1131, "pitch": 42, "duration": 5, "velocity": 83}, {"time": 1134, "pitch": 47, "duration": 5, "velocity": 95}, {"time": 1137, "pitch": 54, "duration": 6, "velocity": 86}, {"time": 1137, "pitch": 63, "duration": 3, "velocity": 59}, {"time": 1140, "pitch": 46, "duration": 7, "velocity": 122}, {"time": 1143, "pitch": 58, "duration": 4, "velocity": 96}, {"time": 1146, "pitch": 59, "duration": 6, "velocity": 96}, {"time": 1146, "pitch": 63, "duration": 2, "velocity": 35}, {"time": 1149, "pitch": 58, "duration": 3, "velocity": 81}, {"time": 1152, "pitch": 44, "duration": 18, "velocity": 76}, {"time": 1155, "pitch": 51, "duration": 11, "velocity": 75}, {"time": 1158, "pitch": 56, "duration": 3, "velocity": 86}, {"time": 1161, "pitch": 59, "duration": 4, "velocity": 85}, {"time": 1164, "pitch": 63, "duration": 12, "velocity": 96}, {"time": 1167, "pitch": 51, "duration": 3, "velocity": 54}, {"time": 1170, "pitch": 59, "duration": 6, "velocity": 93}, {"time": 1173, "pitch": 56, "duration": 3, "velocity": 93}, {"time": 1176, "pitch": 42, "duration": 20, "velocity": 61}, {"time": 1179, "pitch": 49, "duration": 10, "velocity": 67}, {"time": 1182, "pitch": 54, "duration": 4, "velocity": 79}, {"time": 1185, "pitch": 58, "duration": 13, "velocity": 79}, {"time": 1188, "pitch": 61, "duration": 9, "velocity": 93}, {"time": 1191, "pitch": 49, "duration": 4, "velocity": 47}, {"time": 1194, "pitch": 54, "duration": 4, "velocity": 82}, {"time": 1200, "pitch": 41, "duration": 42, "velocity": 64}, {"time": 1200, "pitch": 53, "duration": 47, "velocity": 99}, {"time": 1200, "pitch": 56, "duration": 47, "velocity": 74}, {"time": 1212, "pitch": 59, "duration": 36, "velocity": 74}, {"time": 1248, "pitch": 37, "duration": 22, "velocity": 82}, {"time": 1251, "pitch": 44, "duration": 21, "velocity": 72}, {"time": 1254, "pitch": 49, "duration": 7, "velocity": 93}, {"time": 1257, "pitch": 56, "duration": 10, "velocity": 86}, {"time": 1260, "pitch": 64, "duration": 21, "velocity": 100}, {"time": 1263, "pitch": 49, "duration": 3, "velocity": 89}, {"time": 1266, "pitch": 61, "duration": 16, "velocity": 89}, {"time": 1269, "pitch": 56, "duration": 10, "velocity": 85}, {"time": 1272, "pitch": 37, "duration": 18, "velocity": 70}, {"time": 1275, "pitch": 44, "duration": 15, "velocity": 67}, {"time": 1278, "pitch": 49, "duration": 7, "velocity": 77}, {"time": 1281, "pitch": 56, "duration": 10, "velocity": 58}, {"time": 1284, "pitch": 64, "duration": 12, "velocity": 112}, {"time": 1287, "pitch": 49, "duration": 4, "velocity": 69}, {"time": 1290, "pitch": 61, "duration": 6, "velocity": 97}, {"time": 1293, "pitch": 56, "duration": 3, "velocity": 92}, {"time": 1296, "pitch": 40, "duration": 22, "velocity": 76}, {"time": 1299, "pitch": 47, "duration": 10, "velocity": 89}, {"time": 1302, "pitch": 52, "duration": 3, "velocity": 95}, {"time": 1305, "pitch": 56, "duration": 4, "velocity": 102}, {"time": 1308, "pitch": 59, "duration": 12, "velocity": 112}, {"time": 1311, "pitch": 47, "duration": 9, "velocity": 102}, {"time": 1314, "pitch": 56, "duration": 6, "velocity": 117}, {"time": 1317, "pitch": 52, "duration": 3, "velocity": 95}, {"time": 1320, "pitch": 42, "duration": 23, "velocity": 89}, {"time": 1323, "pitch": 49, "duration": 11, "velocity": 97}, {"time": 1326, "pitch": 54, "duration": 3, "velocity": 100}, {"time": 1329, "pitch": 58, "duration": 4, "velocity": 122}, {"time": 1332, "pitch": 61, "duration": 12, "velocity": 112}, {"time": 1335, "pitch": 49, "duration": 8, "velocity": 83}, {"time": 1338, "pitch": 58, "duration": 5, "velocity": 122}, {"time": 1341, "pitch": 54, "duration": 2, "velocity": 99}, {"time": 1344, "pitch": 40, "duration": 22, "velocity": 88}, {"time": 1347, "pitch": 47, "duration": 21, "velocity": 90}, {"time": 1350, "pitch": 52, "duration": 7, "velocity": 97}, {"time": 1353, "pitch": 56, "duration": 8, "velocity": 95}, {"time": 1356, "pitch": 63, "duration": 13, "velocity": 100}, {"time": 1359, "pitch": 52, "duration": 2, "velocity": 88}, {"time": 1362, "pitch": 59, "duration": 6, "velocity": 97}, {"time": 1365, "pitch": 56, "duration": 3, "velocity": 89}, {"time": 1368, "pitch": 42, "duration": 17, "velocity": 85}, {"time": 1371, "pitch": 49, "duration": 10, "velocity": 77}, {"time": 1374, "pitch": 54, "duration": 3, "velocity": 82}, {"time": 1377, "pitch": 58, "duration": 4, "velocity": 93}, {"time": 1380, "pitch": 61, "duration": 12, "velocity": 99}, {"time": 1383, "pitch": 49, "duration": 2, "velocity": 58}, {"time": 1386, "pitch": 58, "duration": 6, "velocity": 79}, {"time": 1389, "pitch": 54, "duration": 3, "velocity": 90}, {"time": 1392, "pitch": 39, "duration": 17, "velocity": 70}, {"time": 1395, "pitch": 46, "duration": 14, "velocity": 53}, {"time": 1398, "pitch": 51, "duration": 7, "velocity": 67}, {"time": 1401, "pitch": 54, "duration": 4, "velocity": 65}, {"time": 1404, "pitch": 63, "duration": 12, "velocity": 99}, {"time": 1407, "pitch": 51, "duration": 7, "velocity": 71}, {"time": 1410, "pitch": 58, "duration": 6, "velocity": 78}, {"time": 1413, "pitch": 54, "duration": 3, "velocity": 85}, {"time": 1416, "pitch": 44, "duration": 17, "velocity": 62}, {"time": 1419, "pitch": 51, "duration": 13, "velocity": 53}, {"time": 1422, "pitch": 56, "duration": 4, "velocity": 78}, {"time": 1425, "pitch": 59, "duration": 4, "velocity": 76}, {"time": 1428, "pitch": 63, "duration": 13, "velocity": 99}, {"time": 1434, "pitch": 59, "duration": 7, "velocity": 76}, {"time": 1440, "pitch": 40, "duration": 21, "velocity": 56}, {"time": 1446, "pitch": 47, "duration": 18, "velocity": 63}, {"time": 1449, "pitch": 52, "duration": 5, "velocity": 90}, {"time": 1452, "pitch": 59, "duration": 7, "velocity": 102}, {"time": 1455, "pitch": 52, "duration": 2, "velocity": 86}, {"time": 1458, "pitch": 56, "duration": 4, "velocity": 97}, {"time": 1461, "pitch": 59, "duration": 3, "velocity": 90}, {"time": 1464, "pitch": 42, "duration": 18, "velocity": 54}, {"time": 1467, "pitch": 49, "duration": 10, "velocity": 64}, {"time": 1470, "pitch": 54, "duration": 4, "velocity": 59}, {"time": 1473, "pitch": 58, "duration": 3, "velocity": 85}, {"time": 1476, "pitch": 61, "duration": 11, "velocity": 97}, {"time": 1479, "pitch": 49, "duration": 2, "velocity": 89}, {"time": 1482, "pitch": 58, "duration": 5, "velocity": 102}, {"time": 1485, "pitch": 54, "duration": 3, "velocity": 83}, {"time": 1488, "pitch": 35, "duration": 21, "velocity": 70}, {"time": 1491, "pitch": 42, "duration": 21, "velocity": 56}, {"time": 1494, "pitch": 47, "duration": 7, "velocity": 78}, {"time": 1497, "pitch": 54, "duration": 6, "velocity": 86}, {"time": 1500, "pitch": 63, "duration": 36, "velocity": 102}, {"time": 1503, "pitch": 47, "duration": 7, "velocity": 90}, {"time": 1506, "pitch": 59, "duration": 21, "velocity": 96}, {"time": 1509, "pitch": 54, "duration": 9, "velocity": 96}, {"time": 1512, "pitch": 35, "duration": 8, "velocity": 83}, {"time": 1515, "pitch": 42, "duration": 4, "velocity": 89}, {"time": 1518, "pitch": 47, "duration": 5, "velocity": 99}, {"time": 1521, "pitch": 54, "duration": 3, "velocity": 107}, {"time": 1524, "pitch": 46, "duration": 7, "velocity": 97}, {"time": 1527, "pitch": 54, "duration": 4, "velocity": 85}, {"time": 1530, "pitch": 58, "duration": 5, "velocity": 95}, {"time": 1533, "pitch": 59, "duration": 4, "velocity": 78}, {"time": 1536, "pitch": 44, "duration": 18, "velocity": 68}, {"time": 1539, "pitch": 51, "duration": 11, "velocity": 73}, {"time": 1542, "pitch": 56, "duration": 4, "velocity": 88}, {"time": 1545, "pitch": 59, "duration": 4, "velocity": 69}, {"time": 1548, "pitch": 63, "duration": 12, "velocity": 99}, {"time": 1551, "pitch": 51, "duration": 2, "velocity": 44}, {"time": 1554, "pitch": 59, "duration": 6, "velocity": 75}, {"time": 1560, "pitch": 42, "duration": 22, "velocity": 74}, {"time": 1563, "pitch": 49, "duration": 10, "velocity": 79}, {"time": 1566, "pitch": 54, "duration": 7, "velocity": 57}, {"time": 1569, "pitch": 58, "duration": 2, "velocity": 65}, {"time": 1572, "pitch": 61, "duration": 12, "velocity": 100}, {"time": 1575, "pitch": 49, "duration": 8, "velocity": 58}, {"time": 1578, "pitch": 58, "duration": 5, "velocity": 63}, {"time": 1581, "pitch": 54, "duration": 2, "velocity": 73}, {"time": 1584, "pitch": 41, "duration": 40, "velocity": 78}, {"time": 1584, "pitch": 53, "duration": 39, "velocity": 96}, {"time": 1584, "pitch": 56, "duration": 39, "velocity": 92}, {"time": 1584, "pitch": 59, "duration": 40, "velocity": 86}, {"time": 1632, "pitch": 37, "duration": 49, "velocity": 81}, {"time": 1635, "pitch": 44, "duration": 46, "velocity": 66}, {"time": 1638, "pitch": 49, "duration": 8, "velocity": 81}, {"time": 1641, "pitch": 56, "duration": 41, "velocity": 77}, {"time": 1644, "pitch": 64, "duration": 37, "velocity": 96}, {"time": 1656, "pitch": 49, "duration": 18, "velocity": 52}, {"time": 1656, "pitch": 61, "duration": 24, "velocity": 58}, {"time": 1680, "pitch": 40, "duration": 21, "velocity": 78}, {"time": 1683, "pitch": 47, "duration": 19, "velocity": 43}, {"time": 1686, "pitch": 52, "duration": 8, "velocity": 66}, {"time": 1689, "pitch": 56, "duration": 4, "velocity": 66}, {"time": 1692, "pitch": 59, "duration": 12, "velocity": 97}, {"time": 1698, "pitch": 56, "duration": 6, "velocity": 73}, {"time": 1704, "pitch": 43, "duration": 16, "velocity": 93}, {"time": 1707, "pitch": 51, "duration": 5, "velocity": 63}, {"time": 1710, "pitch": 55, "duration": 9, "velocity": 77}, {"time": 1713, "pitch": 51, "duration": 3, "velocity": 24}, {"time": 1713, "pitch": 58, "duration": 14, "velocity": 73}, {"time": 1716, "pitch": 61, "duration": 12, "velocity": 74}, {"time": 1719, "pitch": 51, "duration": 9, "velocity": 68}, {"time": 1722, "pitch": 55, "duration": 6, "velocity": 74}, {"time": 1728, "pitch": 44, "duration": 18, "velocity": 74}, {"time": 1731, "pitch": 51, "duration": 14, "velocity": 50}, {"time": 1734, "pitch": 56, "duration": 4, "velocity": 82}, {"time": 1737, "pitch": 59, "duration": 4, "velocity": 68}, {"time": 1740, "pitch": 63, "duration": 12, "velocity": 95}, {"time": 1746, "pitch": 59, "duration": 6, "velocity": 58}, {"time": 1752, "pitch": 42, "duration": 17, "velocity": 77}, {"time": 1755, "pitch": 49, "duration": 13, "velocity": 76}, {"time": 1758, "pitch": 54, "duration": 4, "velocity": 76}, {"time": 1761, "pitch": 58, "duration": 13, "velocity": 89}, {"time": 1764, "pitch": 61, "duration": 9, "velocity": 96}, {"time": 1770, "pitch": 54, "duration": 6, "velocity": 73}, {"time": 1776, "pitch": 40, "duration": 23, "velocity": 85}, {"time": 1782, "pitch": 47, "duration": 19, "velocity": 63}, {"time": 1788, "pitch": 52, "duration": 5, "velocity": 82}, {"time": 1788, "pitch": 56, "duration": 7, "velocity": 93}, {"time": 1794, "pitch": 59, "duration": 5, "velocity": 90}, {"time": 1800, "pitch": 40, "duration": 47, "velocity": 93}, {"time": 1800, "pitch": 52, "duration": 14, "velocity": 93}, {"time": 1800, "pitch": 55, "duration": 11, "velocity": 102}, {"time": 1800, "pitch": 59, "duration": 11, "velocity": 93}, {"time": 1812, "pitch": 55, "duration": 35, "velocity": 71}, {"time": 1812, "pitch": 59, "duration": 36, "velocity": 74}, {"time": 1824, "pitch": 47, "duration": 24, "velocity": 41}, {"time": 1824, "pitch": 52, "duration": 23, "velocity": 52}, {"time": 1848, "pitch": 40, "duration": 22, "velocity": 83}, {"time": 1854, "pitch": 47, "duration": 17, "velocity": 65}, {"time": 1860, "pitch": 59, "duration": 12, "velocity": 99}, {"time": 1866, "pitch": 56, "duration": 7, "velocity": 72}, {"time": 1872, "pitch": 42, "duration": 23, "velocity": 88}, {"time": 1878, "pitch": 49, "duration": 14, "velocity": 60}, {"time": 1884, "pitch": 61, "duration": 13, "velocity": 96}, {"time": 1890, "pitch": 58, "duration": 7, "velocity": 59}, {"time": 1896, "pitch": 44, "duration": 41, "velocity": 78}, {"time": 1902, "pitch": 51, "duration": 23, "velocity": 78}, {"time": 1908, "pitch": 63, "duration": 20, "velocity": 102}, {"time": 1914, "pitch": 59, "duration": 16, "velocity": 92}, {"time": 1920, "pitch": 56, "duration": 10, "velocity": 83}, {"time": 1926, "pitch": 51, "duration": 7, "velocity": 48}, {"time": 1932, "pitch": 59, "duration": 13, "velocity": 92}, {"time": 1932, "pitch": 63, "duration": 13, "velocity": 99}, {"time": 1935, "pitch": 51, "duration": 1, "velocity": 39}, {"time": 1938, "pitch": 56, "duration": 7, "velocity": 81}, {"time": 1944, "pitch": 40, "duration": 17, "velocity": 73}, {"time": 1950, "pitch": 47, "duration": 14, "velocity": 83}, {"time": 1956, "pitch": 59, "duration": 12, "velocity": 112}, {"time": 1962, "pitch": 56, "duration": 6, "velocity": 93}, {"time": 1968, "pitch": 42, "duration": 17, "velocity": 83}, {"time": 1974, "pitch": 49, "duration": 9, "velocity": 82}, {"time": 1980, "pitch": 61, "duration": 11, "velocity": 107}, {"time": 1986, "pitch": 58, "duration": 6, "velocity": 90}, {"time": 1992, "pitch": 35, "duration": 38, "velocity": 92}, {"time": 1998, "pitch": 42, "duration": 32, "velocity": 47}, {"time": 2004, "pitch": 47, "duration": 15, "velocity": 75}, {"time": 2004, "pitch": 63, "duration": 37, "velocity": 102}, {"time": 2010, "pitch": 54, "duration": 13, "velocity": 75}, {"time": 2016, "pitch": 59, "duration": 10, "velocity": 95}, {"time": 2022, "pitch": 47, "duration": 8, "velocity": 71}, {"time": 2028, "pitch": 59, "duration": 13, "velocity": 107}, {"time": 2034, "pitch": 54, "duration": 6, "velocity": 86}, {"time": 2040, "pitch": 40, "duration": 17, "velocity": 86}, {"time": 2046, "pitch": 47, "duration": 12, "velocity": 69}, {"time": 2052, "pitch": 59, "duration": 12, "velocity": 100}, {"time": 2058, "pitch": 56, "duration": 6, "velocity": 81}, {"time": 2064, "pitch": 42, "duration": 21, "velocity": 82}, {"time": 2070, "pitch": 49, "duration": 12, "velocity": 73}, {"time": 2076, "pitch": 58, "duration": 14, "velocity": 86}, {"time": 2076, "pitch": 61, "duration": 13, "velocity": 100}, {"time": 2082, "pitch": 54, "duration": 7, "velocity": 78}, {"time": 2088, "pitch": 47, "duration": 11, "velocity": 107}, {"time": 2094, "pitch": 54, "duration": 4, "velocity": 47}, {"time": 2094, "pitch": 59, "duration": 7, "velocity": 99}, {"time": 2094, "pitch": 63, "duration": 6, "velocity": 97}, {"time": 2100, "pitch": 46, "duration": 11, "velocity": 97}, {"time": 2106, "pitch": 58, "duration": 7, "velocity": 97}, {"time": 2112, "pitch": 44, "duration": 15, "velocity": 86}, {"time": 2118, "pitch": 51, "duration": 9, "velocity": 88}, {"time": 2124, "pitch": 63, "duration": 12, "velocity": 100}, {"time": 2130, "pitch": 56, "duration": 6, "velocity": 79}, {"time": 2136, "pitch": 37, "duration": 39, "velocity": 88}, {"time": 2142, "pitch": 44, "duration": 23, "velocity": 72}, {"time": 2148, "pitch": 53, "duration": 9, "velocity": 93}, {"time": 2148, "pitch": 56, "duration": 22, "velocity": 93}, {"time": 2154, "pitch": 49, "duration": 19, "velocity": 68}, {"time": 2160, "pitch": 53, "duration": 10, "velocity": 96}, {"time": 2166, "pitch": 44, "duration": 8, "velocity": 63}, {"time": 2172, "pitch": 56, "duration": 11, "velocity": 95}, {"time": 2178, "pitch": 53, "duration": 5, "velocity": 85}, {"time": 2184, "pitch": 42, "duration": 23, "velocity": 112}, {"time": 2190, "pitch": 49, "duration": 8, "velocity": 90}, {"time": 2196, "pitch": 54, "duration": 10, "velocity": 107}, {"time": 2196, "pitch": 58, "duration": 10, "velocity": 107}, {"time": 2196, "pitch": 61, "duration": 11, "velocity": 100}, {"time": 2202, "pitch": 49, "duration": 7, "velocity": 95}, {"time": 2208, "pitch": 42, "duration": 5, "velocity": 107}, {"time": 2208, "pitch": 54, "duration": 4, "velocity": 102}, {"time": 2208, "pitch": 58, "duration": 5, "velocity": 102}, {"time": 2208, "pitch": 61, "duration": 5, "velocity": 99}, {"time": 2232, "pitch": 40, "duration": 21, "velocity": 100}, {"time": 2235, "pitch": 47, "duration": 20, "velocity": 74}, {"time": 2238, "pitch": 52, "duration": 6, "velocity": 97}, {"time": 2241, "pitch": 56, "duration": 4, "velocity": 93}, {"time": 2244, "pitch": 59, "duration": 6, "velocity": 102}, {"time": 2247, "pitch": 52, "duration": 2, "velocity": 88}, {"time": 2250, "pitch": 56, "duration": 5, "velocity": 99}, {"time": 2253, "pitch": 59, "duration": 3, "velocity": 102}, {"time": 2256, "pitch": 42, "duration": 17, "velocity": 78}, {"time": 2259, "pitch": 49, "duration": 10, "velocity": 78}, {"time": 2262, "pitch": 54, "duration": 4, "velocity": 93}, {"time": 2265, "pitch": 58, "duration": 5, "velocity": 77}, {"time": 2268, "pitch": 66, "duration": 12, "velocity": 99}, {"time": 2271, "pitch": 49, "duration": 2, "velocity": 52}, {"time": 2274, "pitch": 61, "duration": 6, "velocity": 70}, {"time": 2277, "pitch": 58, "duration": 3, "velocity": 90}, {"time": 2280, "pitch": 39, "duration": 18, "velocity": 82}, {"time": 2283, "pitch": 46, "duration": 10, "velocity": 69}, {"time": 2286, "pitch": 51, "duration": 5, "velocity": 88}, {"time": 2289, "pitch": 54, "duration": 4, "velocity": 88}, {"time": 2292, "pitch": 58, "duration": 7, "velocity": 97}, {"time": 2295, "pitch": 46, "duration": 3, "velocity": 53}, {"time": 2298, "pitch": 54, "duration": 4, "velocity": 92}, {"time": 2301, "pitch": 58, "duration": 3, "velocity": 95}, {"time": 2304, "pitch": 44, "duration": 17, "velocity": 75}, {"time": 2307, "pitch": 51, "duration": 10, "velocity": 82}, {"time": 2310, "pitch": 56, "duration": 4, "velocity": 81}, {"time": 2313, "pitch": 59, "duration": 3, "velocity": 99}, {"time": 2316, "pitch": 63, "duration": 12, "velocity": 112}, {"time": 2319, "pitch": 51, "duration": 2, "velocity": 90}, {"time": 2322, "pitch": 59, "duration": 7, "velocity": 117}, {"time": 2325, "pitch": 56, "duration": 7, "velocity": 93}, {"time": 2328, "pitch": 40, "duration": 21, "velocity": 75}, {"time": 2331, "pitch": 47, "duration": 21, "velocity": 83}, {"time": 2334, "pitch": 52, "duration": 8, "velocity": 88}, {"time": 2337, "pitch": 56, "duration": 8, "velocity": 90}, {"time": 2340, "pitch": 63, "duration": 12, "velocity": 100}, {"time": 2343, "pitch": 52, "duration": 2, "velocity": 86}, {"time": 2346, "pitch": 59, "duration": 6, "velocity": 97}, {"time": 2349, "pitch": 56, "duration": 3, "velocity": 97}, {"time": 2352, "pitch": 42, "duration": 17, "velocity": 65}, {"time": 2355, "pitch": 49, "duration": 10, "velocity": 66}, {"time": 2358, "pitch": 54, "duration": 4, "velocity": 71}, {"time": 2361, "pitch": 58, "duration": 3, "velocity": 92}, {"time": 2364, "pitch": 61, "duration": 10, "velocity": 100}, {"time": 2367, "pitch": 49, "duration": 2, "velocity": 65}, {"time": 2370, "pitch": 58, "duration": 5, "velocity": 92}, {"time": 2373, "pitch": 54, "duration": 3, "velocity": 81}, {"time": 2376, "pitch": 35, "duration": 21, "velocity": 78}, {"time": 2379, "pitch": 42, "duration": 20, "velocity": 56}, {"time": 2382, "pitch": 47, "duration": 7, "velocity": 81}, {"time": 2385, "pitch": 54, "duration": 6, "velocity": 86}, {"time": 2388, "pitch": 63, "duration": 25, "velocity": 100}, {"time": 2391, "pitch": 47, "duration": 8, "velocity": 89}, {"time": 2394, "pitch": 59, "duration": 12, "velocity": 85}, {"time": 2397, "pitch": 54, "duration": 8, "velocity": 96}, {"time": 2400, "pitch": 35, "duration": 8, "velocity": 93}, {"time": 2403, "pitch": 47, "duration": 7, "velocity": 97}, {"time": 2406, "pitch": 54, "duration": 4, "velocity": 92}, {"time": 2409, "pitch": 59, "duration": 5, "velocity": 97}, {"time": 2412, "pitch": 46, "duration": 7, "velocity": 100}, {"time": 2415, "pitch": 58, "duration": 6, "velocity": 96}, {"time": 2418, "pitch": 59, "duration": 7, "velocity": 107}, {"time": 2421, "pitch": 63, "duration": 5, "velocity": 96}, {"time": 2424, "pitch": 44, "duration": 18, "velocity": 81}, {"time": 2427, "pitch": 51, "duration": 10, "velocity": 69}, {"time": 2430, "pitch": 56, "duration": 7, "velocity": 67}, {"time": 2433, "pitch": 59, "duration": 2, "velocity": 58}, {"time": 2436, "pitch": 63, "duration": 11, "velocity": 100}, {"time": 2439, "pitch": 51, "duration": 3, "velocity": 73}, {"time": 2442, "pitch": 59, "duration": 5, "velocity": 89}, {"time": 2445, "pitch": 56, "duration": 3, "velocity": 85}, {"time": 2448, "pitch": 42, "duration": 20, "velocity": 86}, {"time": 2451, "pitch": 49, "duration": 10, "velocity": 71}, {"time": 2454, "pitch": 54, "duration": 7, "velocity": 59}, {"time": 2457, "pitch": 58, "duration": 4, "velocity": 69}, {"time": 2460, "pitch": 61, "duration": 9, "velocity": 97}, {"time": 2463, "pitch": 49, "duration": 5, "velocity": 73}, {"time": 2466, "pitch": 54, "duration": 4, "velocity": 83}, {"time": 2472, "pitch": 41, "duration": 23, "velocity": 92}, {"time": 2472, "pitch": 53, "duration": 11, "velocity": 90}, {"time": 2472, "pitch": 56, "duration": 11, "velocity": 81}, {"time": 2472, "pitch": 59, "duration": 9, "velocity": 31}, {"time": 2484, "pitch": 53, "duration": 10, "velocity": 83}, {"time": 2484, "pitch": 56, "duration": 10, "velocity": 76}, {"time": 2484, "pitch": 59, "duration": 10, "velocity": 67}, {"time": 2496, "pitch": 41, "duration": 17, "velocity": 63}, {"time": 2496, "pitch": 53, "duration": 11, "velocity": 66}, {"time": 2496, "pitch": 56, "duration": 11, "velocity": 67}, {"time": 2496, "pitch": 59, "duration": 10, "velocity": 63}, {"time": 2508, "pitch": 53, "duration": 11, "velocity": 63}, {"time": 2508, "pitch": 56, "duration": 12, "velocity": 63}, {"time": 2508, "pitch": 59, "duration": 12, "velocity": 68}, {"time": 2520, "pitch": 37, "duration": 23, "velocity": 75}, {"time": 2523, "pitch": 44, "duration": 21, "velocity": 66}, {"time": 2526, "pitch": 49, "duration": 7, "velocity": 85}, {"time": 2529, "pitch": 56, "duration": 7, "velocity": 82}, {"time": 2532, "pitch": 64, "duration": 19, "velocity": 117}, {"time": 2535, "pitch": 49, "duration": 4, "velocity": 90}, {"time": 2538, "pitch": 61, "duration": 14, "velocity": 95}, {"time": 2541, "pitch": 56, "duration": 10, "velocity": 96}, {"time": 2544, "pitch": 37, "duration": 17, "velocity": 82}, {"time": 2547, "pitch": 44, "duration": 15, "velocity": 68}, {"time": 2550, "pitch": 49, "duration": 7, "velocity": 82}, {"time": 2553, "pitch": 56, "duration": 6, "velocity": 72}, {"time": 2556, "pitch": 64, "duration": 11, "velocity": 117}, {"time": 2559, "pitch": 49, "duration": 8, "velocity": 100}, {"time": 2562, "pitch": 61, "duration": 4, "velocity": 107}, {"time": 2565, "pitch": 56, "duration": 3, "velocity": 102}, {"time": 2568, "pitch": 40, "duration": 22, "velocity": 65}, {"time": 2571, "pitch": 47, "duration": 10, "velocity": 81}, {"time": 2574, "pitch": 52, "duration": 4, "velocity": 93}, {"time": 2577, "pitch": 56, "duration": 2, "velocity": 100}, {"time": 2580, "pitch": 59, "duration": 6, "velocity": 122}, {"time": 2583, "pitch": 47, "duration": 9, "velocity": 92}, {"time": 2586, "pitch": 56, "duration": 4, "velocity": 117}, {"time": 2589, "pitch": 59, "duration": 3, "velocity": 122}, {"time": 2592, "pitch": 42, "duration": 22, "velocity": 95}, {"time": 2595, "pitch": 49, "duration": 10, "velocity": 99}, {"time": 2598, "pitch": 54, "duration": 3, "velocity": 99}, {"time": 2601, "pitch": 58, "duration": 3, "velocity": 107}, {"time": 2604, "pitch": 61, "duration": 11, "velocity": 122}, {"time": 2607, "pitch": 49, "duration": 7, "velocity": 90}, {"time": 2610, "pitch": 58, "duration": 5, "velocity": 107}, {"time": 2613, "pitch": 54, "duration": 4, "velocity": 97}, {"time": 2616, "pitch": 40, "duration": 22, "velocity": 82}, {"time": 2619, "pitch": 47, "duration": 21, "velocity": 92}, {"time": 2622, "pitch": 52, "duration": 8, "velocity": 90}, {"time": 2625, "pitch": 56, "duration": 4, "velocity": 77}, {"time": 2628, "pitch": 63, "duration": 12, "velocity": 100}, {"time": 2631, "pitch": 52, "duration": 2, "velocity": 92}, {"time": 2634, "pitch": 59, "duration": 5, "velocity": 100}, {"time": 2637, "pitch": 56, "duration": 3, "velocity": 99}, {"time": 2640, "pitch": 42, "duration": 18, "velocity": 81}, {"time": 2643, "pitch": 49, "duration": 11, "velocity": 74}, {"time": 2646, "pitch": 54, "duration": 3, "velocity": 85}, {"time": 2649, "pitch": 58, "duration": 3, "velocity": 96}, {"time": 2652, "pitch": 61, "duration": 10, "velocity": 107}, {"time": 2655, "pitch": 49, "duration": 2, "velocity": 73}, {"time": 2658, "pitch": 58, "duration": 5, "velocity": 95}, {"time": 2661, "pitch": 54, "duration": 4, "velocity": 97}, {"time": 2664, "pitch": 39, "duration": 17, "velocity": 78}, {"time": 2667, "pitch": 46, "duration": 14, "velocity": 73}, {"time": 2670, "pitch": 51, "duration": 7, "velocity": 90}, {"time": 2673, "pitch": 54, "duration": 4, "velocity": 81}, {"time": 2676, "pitch": 63, "duration": 12, "velocity": 102}, {"time": 2679, "pitch": 51, "duration": 6, "velocity": 92}, {"time": 2682, "pitch": 58, "duration": 5, "velocity": 86}, {"time": 2685, "pitch": 54, "duration": 3, "velocity": 95}, {"time": 2688, "pitch": 44, "duration": 18, "velocity": 69}, {"time": 2691, "pitch": 51, "duration": 10, "velocity": 71}, {"time": 2694, "pitch": 56, "duration": 4, "velocity": 83}, {"time": 2697, "pitch": 59, "duration": 2, "velocity": 92}, {"time": 2700, "pitch": 63, "duration": 12, "velocity": 112}, {"time": 2703, "pitch": 51, "duration": 2, "velocity": 85}, {"time": 2706, "pitch": 59, "duration": 6, "velocity": 107}, {"time": 2709, "pitch": 56, "duration": 3, "velocity": 97}, {"time": 2712, "pitch": 40, "duration": 21, "velocity": 73}, {"time": 2715, "pitch": 47, "duration": 21, "velocity": 68}, {"time": 2718, "pitch": 52, "duration": 7, "velocity": 81}, {"time": 2721, "pitch": 56, "duration": 4, "velocity": 75}, {"time": 2724, "pitch": 63, "duration": 11, "velocity": 99}, {"time": 2727, "pitch": 52, "duration": 3, "velocity": 85}, {"time": 2730, "pitch": 59, "duration": 4, "velocity": 92}, {"time": 2733, "pitch": 56, "duration": 4, "velocity": 89}, {"time": 2736, "pitch": 42, "duration": 17, "velocity": 73}, {"time": 2739, "pitch": 49, "duration": 11, "velocity": 52}, {"time": 2742, "pitch": 54, "duration": 4, "velocity": 85}, {"time": 2745, "pitch": 58, "duration": 4, "velocity": 79}, {"time": 2748, "pitch": 61, "duration": 10, "velocity": 97}, {"time": 2751, "pitch": 49, "duration": 2, "velocity": 69}, {"time": 2754, "pitch": 58, "duration": 4, "velocity": 93}, {"time": 2757, "pitch": 54, "duration": 4, "velocity": 96}, {"time": 2760, "pitch": 35, "duration": 31, "velocity": 73}, {"time": 2763, "pitch": 42, "duration": 28, "velocity": 76}, {"time": 2766, "pitch": 47, "duration": 7, "velocity": 81}, {"time": 2769, "pitch": 54, "duration": 7, "velocity": 82}, {"time": 2772, "pitch": 63, "duration": 7, "velocity": 100}, {"time": 2775, "pitch": 47, "duration": 10, "velocity": 90}, {"time": 2778, "pitch": 54, "duration": 18, "velocity": 92}, {"time": 2784, "pitch": 59, "duration": 9, "velocity": 97}, {"time": 2784, "pitch": 63, "duration": 9, "velocity": 99}, {"time": 2790, "pitch": 47, "duration": 6, "velocity": 97}, {"time": 2796, "pitch": 46, "duration": 10, "velocity": 79}, {"time": 2796, "pitch": 58, "duration": 12, "velocity": 95}, {"time": 2796, "pitch": 61, "duration": 12, "velocity": 100}, {"time": 2808, "pitch": 44, "duration": 18, "velocity": 73}, {"time": 2811, "pitch": 51, "duration": 10, "velocity": 79}, {"time": 2814, "pitch": 56, "duration": 4, "velocity": 82}, {"time": 2817, "pitch": 59, "duration": 3, "velocity": 90}, {"time": 2820, "pitch": 63, "duration": 11, "velocity": 100}, {"time": 2823, "pitch": 51, "duration": 2, "velocity": 66}, {"time": 2826, "pitch": 59, "duration": 5, "velocity": 97}, {"time": 2829, "pitch": 56, "duration": 3, "velocity": 95}, {"time": 2832, "pitch": 42, "duration": 17, "velocity": 76}, {"time": 2835, "pitch": 49, "duration": 10, "velocity": 69}, {"time": 2838, "pitch": 54, "duration": 4, "velocity": 86}, {"time": 2841, "pitch": 58, "duration": 4, "velocity": 89}, {"time": 2844, "pitch": 61, "duration": 8, "velocity": 97}, {"time": 2847, "pitch": 49, "duration": 2, "velocity": 77}, {"time": 2850, "pitch": 54, "duration": 5, "velocity": 88}, {"time": 2856, "pitch": 41, "duration": 22, "velocity": 85}, {"time": 2856, "pitch": 56, "duration": 23, "velocity": 92}, {"time": 2856, "pitch": 59, "duration": 11, "velocity": 95}, {"time": 2862, "pitch": 53, "duration": 8, "velocity": 76}, {"time": 2868, "pitch": 59, "duration": 11, "velocity": 79}, {"time": 2874, "pitch": 53, "duration": 5, "velocity": 39}, {"time": 2880, "pitch": 41, "duration": 19, "velocity": 71}, {"time": 2880, "pitch": 53, "duration": 18, "velocity": 53}, {"time": 2880, "pitch": 56, "duration": 22, "velocity": 74}, {"time": 2880, "pitch": 59, "duration": 22, "velocity": 81}, {"time": 2904, "pitch": 37, "duration": 19, "velocity": 86}, {"time": 2904, "pitch": 56, "duration": 11, "velocity": 90}, {"time": 2904, "pitch": 61, "duration": 10, "velocity": 90}, {"time": 2904, "pitch": 64, "duration": 10, "velocity": 89}, {"time": 2910, "pitch": 44, "duration": 13, "velocity": 62}, {"time": 2916, "pitch": 49, "duration": 11, "velocity": 97}, {"time": 2916, "pitch": 56, "duration": 4, "velocity": 69}, {"time": 2916, "pitch": 61, "duration": 7, "velocity": 102}, {"time": 2916, "pitch": 64, "duration": 7, "velocity": 102}, {"time": 2922, "pitch": 56, "duration": 4, "velocity": 97}, {"time": 2928, "pitch": 42, "duration": 10, "velocity": 96}, {"time": 2928, "pitch": 49, "duration": 10, "velocity": 82}, {"time": 2928, "pitch": 54, "duration": 5, "velocity": 100}, {"time": 2928, "pitch": 58, "duration": 10, "velocity": 107}, {"time": 2928, "pitch": 61, "duration": 10, "velocity": 102}, {"time": 2934, "pitch": 54, "duration": 4, "velocity": 95}, {"time": 2940, "pitch": 42, "duration": 11, "velocity": 97}, {"time": 2940, "pitch": 49, "duration": 12, "velocity": 92}, {"time": 2940, "pitch": 54, "duration": 4, "velocity": 97}, {"time": 2940, "pitch": 58, "duration": 4, "velocity": 100}, {"time": 2940, "pitch": 61, "duration": 4, "velocity": 100}, {"time": 2946, "pitch": 54, "duration": 6, "velocity": 102}, {"time": 2946, "pitch": 58, "duration": 6, "velocity": 100}, {"time": 2946, "pitch": 61, "duration": 6, "velocity": 97}, {"time": 2952, "pitch": 43, "duration": 4, "velocity": 99}, {"time": 2952, "pitch": 55, "duration": 4, "velocity": 99}, {"time": 2952, "pitch": 59, "duration": 4, "velocity": 107}, {"time": 2952, "pitch": 62, "duration": 4, "velocity": 97}, {"time": 2958, "pitch": 43, "duration": 4, "velocity": 85}, {"time": 2958, "pitch": 55, "duration": 4, "velocity": 89}, {"time": 2958, "pitch": 59, "duration": 4, "velocity": 90}, {"time": 2958, "pitch": 62, "duration": 4, "velocity": 92}, {"time": 2964, "pitch": 43, "duration": 5, "velocity": 95}, {"time": 2964, "pitch": 55, "duration": 5, "velocity": 96}, {"time": 2964, "pitch": 59, "duration": 5, "velocity": 97}, {"time": 2964, "pitch": 62, "duration": 5, "velocity": 99}, {"time": 2970, "pitch": 43, "duration": 5, "velocity": 90}, {"time": 2970, "pitch": 55, "duration": 4, "velocity": 92}, {"time": 2970, "pitch": 59, "duration": 1, "velocity": 86}, {"time": 2970, "pitch": 62, "duration": 4, "velocity": 95}, {"time": 2976, "pitch": 41, "duration": 5, "velocity": 99}, {"time": 2976, "pitch": 53, "duration": 4, "velocity": 99}, {"time": 2976, "pitch": 57, "duration": 4, "velocity": 107}, {"time": 2976, "pitch": 60, "duration": 4, "velocity": 96}, {"time": 2982, "pitch": 41, "duration": 4, "velocity": 81}, {"time": 2982, "pitch": 53, "duration": 4, "velocity": 95}, {"time": 2982, "pitch": 57, "duration": 4, "velocity": 107}, {"time": 2982, "pitch": 60, "duration": 4, "velocity": 96}, {"time": 2988, "pitch": 41, "duration": 4, "velocity": 97}, {"time": 2988, "pitch": 53, "duration": 4, "velocity": 96}, {"time": 2988, "pitch": 57, "duration": 4, "velocity": 107}, {"time": 2988, "pitch": 60, "duration": 4, "velocity": 99}, {"time": 2994, "pitch": 41, "duration": 5, "velocity": 97}, {"time": 2994, "pitch": 53, "duration": 5, "velocity": 100}, {"time": 2994, "pitch": 57, "duration": 1, "velocity": 75}, {"time": 2994, "pitch": 60, "duration": 5, "velocity": 112}, {"time": 3000, "pitch": 48, "duration": 22, "velocity": 97}, {"time": 3000, "pitch": 60, "duration": 4, "velocity": 92}, {"time": 3000, "pitch": 62, "duration": 8, "velocity": 102}, {"time": 3000, "pitch": 64, "duration": 5, "velocity": 88}, {"time": 3000, "pitch": 67, "duration": 8, "velocity": 122}, {"time": 3003, "pitch": 55, "duration": 11, "velocity": 107}, {"time": 3006, "pitch": 60, "duration": 5, "velocity": 70}, {"time": 3012, "pitch": 60, "duration": 4, "velocity": 72}, {"time": 3012, "pitch": 62, "duration": 7, "velocity": 83}, {"time": 3012, "pitch": 64, "duration": 17, "velocity": 72}, {"time": 3012, "pitch": 67, "duration": 8, "velocity": 83}, {"time": 3015, "pitch": 55, "duration": 9, "velocity": 63}, {"time": 3018, "pitch": 60, "duration": 10, "velocity": 81}, {"time": 3021, "pitch": 62, "duration": 9, "velocity": 93}, {"time": 3021, "pitch": 67, "duration": 8, "velocity": 40}, {"time": 3024, "pitch": 48, "duration": 17, "velocity": 95}, {"time": 3027, "pitch": 55, "duration": 11, "velocity": 97}, {"time": 3030, "pitch": 60, "duration": 10, "velocity": 72}, {"time": 3030, "pitch": 67, "duration": 1, "velocity": 27}, {"time": 3033, "pitch": 62, "duration": 10, "velocity": 90}, {"time": 3036, "pitch": 64, "duration": 11, "velocity": 78}, {"time": 3036, "pitch": 67, "duration": 11, "velocity": 58}, {"time": 3039, "pitch": 55, "duration": 1, "velocity": 90}, {"time": 3042, "pitch": 60, "duration": 6, "velocity": 93}, {"time": 3045, "pitch": 62, "duration": 3, "velocity": 97}, {"time": 3048, "pitch": 40, "duration": 22, "velocity": 75}, {"time": 3051, "pitch": 47, "duration": 10, "velocity": 69}, {"time": 3054, "pitch": 52, "duration": 5, "velocity": 77}, {"time": 3057, "pitch": 55, "duration": 4, "velocity": 100}, {"time": 3060, "pitch": 59, "duration": 12, "velocity": 107}, {"time": 3063, "pitch": 47, "duration": 9, "velocity": 86}, {"time": 3066, "pitch": 55, "duration": 6, "velocity": 96}, {"time": 3069, "pitch": 52, "duration": 3, "velocity": 97}, {"time": 3072, "pitch": 40, "duration": 16, "velocity": 69}, {"time": 3075, "pitch": 47, "duration": 14, "velocity": 79}, {"time": 3078, "pitch": 52, "duration": 6, "velocity": 82}, {"time": 3081, "pitch": 59, "duration": 7, "velocity": 99}, {"time": 3084, "pitch": 67, "duration": 12, "velocity": 122}, {"time": 3087, "pitch": 52, "duration": 2, "velocity": 90}, {"time": 3090, "pitch": 64, "duration": 5, "velocity": 117}, {"time": 3093, "pitch": 59, "duration": 3, "velocity": 102}, {"time": 3096, "pitch": 41, "duration": 22, "velocity": 95}, {"time": 3099, "pitch": 48, "duration": 20, "velocity": 70}, {"time": 3102, "pitch": 53, "duration": 6, "velocity": 97}, {"time": 3105, "pitch": 57, "duration": 5, "velocity": 112}, {"time": 3108, "pitch": 65, "duration": 19, "velocity": 122}, {"time": 3111, "pitch": 53, "duration": 12, "velocity": 95}, {"time": 3114, "pitch": 60, "duration": 14, "velocity": 112}, {"time": 3117, "pitch": 57, "duration": 10, "velocity": 107}, {"time": 3120, "pitch": 41, "duration": 17, "velocity": 82}, {"time": 3123, "pitch": 48, "duration": 14, "velocity": 90}, {"time": 3126, "pitch": 53, "duration": 7, "velocity": 93}, {"time": 3129, "pitch": 57, "duration": 7, "velocity": 99}, {"time": 3132, "pitch": 65, "duration": 11, "velocity": 127}, {"time": 3135, "pitch": 53, "duration": 6, "velocity": 95}, {"time": 3138, "pitch": 60, "duration": 5, "velocity": 96}, {"time": 3141, "pitch": 57, "duration": 3, "velocity": 99}, {"time": 3144, "pitch": 43, "duration": 23, "velocity": 77}, {"time": 3147, "pitch": 50, "duration": 21, "velocity": 39}, {"time": 3150, "pitch": 55, "duration": 7, "velocity": 99}, {"time": 3153, "pitch": 59, "duration": 5, "velocity": 96}, {"time": 3156, "pitch": 62, "duration": 7, "velocity": 99}, {"time": 3156, "pitch": 67, "duration": 8, "velocity": 127}, {"time": 3159, "pitch": 55, "duration": 10, "velocity": 100}, {"time": 3162, "pitch": 59, "duration": 5, "velocity": 96}, {"time": 3165, "pitch": 62, "duration": 2, "velocity": 112}, {"time": 3168, "pitch": 43, "duration": 22, "velocity": 107}, {"time": 3168, "pitch": 59, "duration": 5, "velocity": 78}, {"time": 3168, "pitch": 62, "duration": 5, "velocity": 117}, {"time": 3168, "pitch": 67, "duration": 5, "velocity": 107}, {"time": 3174, "pitch": 50, "duration": 7, "velocity": 36}, {"time": 3174, "pitch": 59, "duration": 5, "velocity": 72}, {"time": 3174, "pitch": 62, "duration": 4, "velocity": 107}, {"time": 3174, "pitch": 67, "duration": 4, "velocity": 89}, {"time": 3180, "pitch": 55, "duration": 10, "velocity": 102}, {"time": 3180, "pitch": 59, "duration": 5, "velocity": 95}, {"time": 3180, "pitch": 62, "duration": 5, "velocity": 112}, {"time": 3180, "pitch": 67, "duration": 4, "velocity": 100}, {"time": 3186, "pitch": 50, "duration": 4, "velocity": 57}, {"time": 3186, "pitch": 59, "duration": 4, "velocity": 90}, {"time": 3186, "pitch": 62, "duration": 4, "velocity": 112}, {"time": 3186, "pitch": 67, "duration": 4, "velocity": 102}, {"time": 3192, "pitch": 43, "duration": 37, "velocity": 79}, {"time": 3192, "pitch": 50, "duration": 36, "velocity": 93}, {"time": 3192, "pitch": 55, "duration": 36, "velocity": 92}, {"time": 3192, "pitch": 59, "duration": 36, "velocity": 89}, {"time": 3192, "pitch": 62, "duration": 36, "velocity": 122}, {"time": 3192, "pitch": 67, "duration": 37, "velocity": 107}, {"time": 3228, "pitch": 41, "duration": 21, "velocity": 77}, {"time": 3228, "pitch": 53, "duration": 22, "velocity": 86}, {"time": 3228, "pitch": 60, "duration": 22, "velocity": 85}, {"time": 3228, "pitch": 65, "duration": 23, "velocity": 78}, {"time": 3228, "pitch": 69, "duration": 21, "velocity": 52}, {"time": 3252, "pitch": 43, "duration": 16, "velocity": 55}, {"time": 3252, "pitch": 55, "duration": 15, "velocity": 50}, {"time": 3252, "pitch": 67, "duration": 16, "velocity": 59}, {"time": 3252, "pitch": 71, "duration": 15, "velocity": 66}, {"time": 3282, "pitch": 43, "duration": 3, "velocity": 127}, {"time": 3282, "pitch": 55, "duration": 3, "velocity": 127}, {"time": 3286, "pitch": 45, "duration": 2, "velocity": 97}, {"time": 3286, "pitch": 57, "duration": 2, "velocity": 97}, {"time": 3288, "pitch": 47, "duration": 3, "velocity": 122}, {"time": 3288, "pitch": 59, "duration": 3, "velocity": 122}, {"time": 3292, "pitch": 48, "duration": 2, "velocity": 127}, {"time": 3292, "pitch": 60, "duration": 2, "velocity": 127}, {"time": 3296, "pitch": 50, "duration": 2, "velocity": 127}, {"time": 3296, "pitch": 62, "duration": 2, "velocity": 127}, {"time": 3300, "pitch": 52, "duration": 7, "velocity": 127}, {"time": 3300, "pitch": 64, "duration": 7, "velocity": 127}, {"time": 3324, "pitch": 41, "duration": 21, "velocity": 75}, {"time": 3327, "pitch": 48, "duration": 21, "velocity": 83}, {"time": 3330, "pitch": 53, "duration": 8, "velocity": 88}, {"time": 3333, "pitch": 57, "duration": 8, "velocity": 90}, {"time": 3336, "pitch": 64, "duration": 12, "velocity": 100}, {"time": 3339, "pitch": 53, "duration": 2, "velocity": 86}, {"time": 3342, "pitch": 60, "duration": 6, "velocity": 97}, {"time": 3345, "pitch": 57, "duration": 3, "velocity": 97}, {"time": 3348, "pitch": 43, "duration": 17, "velocity": 65}, {"time": 3351, "pitch": 50, "duration": 10, "velocity": 66}, {"time": 3354, "pitch": 55, "duration": 4, "velocity": 71}, {"time": 3357, "pitch": 59, "duration": 3, "velocity": 92}, {"time": 3360, "pitch": 62, "duration": 10, "velocity": 100}, {"time": 3363, "pitch": 50, "duration": 2, "velocity": 65}, {"time": 3366, "pitch": 59, "duration": 5, "velocity": 92}, {"time": 3369, "pitch": 55, "duration": 3, "velocity": 81}, {"time": 3372, "pitch": 36, "duration": 21, "velocity": 78}, {"time": 3375, "pitch": 43, "duration": 20, "velocity": 56}, {"time": 3378, "pitch": 48, "duration": 7, "velocity": 81}, {"time": 3381, "pitch": 55, "duration": 6, "velocity": 86}, {"time": 3384, "pitch": 64, "duration": 25, "velocity": 100}, {"time": 3387, "pitch": 48, "duration": 8, "velocity": 89}, {"time": 3390, "pitch": 60, "duration": 12, "velocity": 85}, {"time": 3393, "pitch": 55, "duration": 8, "velocity": 96}, {"time": 3396, "pitch": 36, "duration": 8, "velocity": 93}, {"time": 3399, "pitch": 48, "duration": 7, "velocity": 97}, {"time": 3402, "pitch": 55, "duration": 4, "velocity": 92}, {"time": 3405, "pitch": 60, "duration": 5, "velocity": 97}, {"time": 3408, "pitch": 47, "duration": 7, "velocity": 100}, {"time": 3411, "pitch": 59, "duration": 6, "velocity": 96}, {"time": 3414, "pitch": 60, "duration": 7, "velocity": 107}, {"time": 3417, "pitch": 64, "duration": 5, "velocity": 96}, {"time": 3420, "pitch": 45, "duration": 18, "velocity": 81}, {"time": 3423, "pitch": 52, "duration": 10, "velocity": 69}, {"time": 3426, "pitch": 57, "duration": 7, "velocity": 67}, {"time": 3429, "pitch": 60, "duration": 2, "velocity": 58}, {"time": 3432, "pitch": 64, "duration": 11, "velocity": 100}, {"time": 3435, "pitch": 52, "duration": 3, "velocity": 73}, {"time": 3438, "pitch": 60, "duration": 5, "velocity": 89}, {"time": 3441, "pitch": 57, "duration": 3, "velocity": 85}, {"time": 3444, "pitch": 43, "duration": 20, "velocity": 86}, {"time": 3447, "pitch": 50, "duration": 10, "velocity": 71}, {"time": 3450, "pitch": 55, "duration": 7, "velocity": 59}, {"time": 3453, "pitch": 59, "duration": 4, "velocity": 69}, {"time": 3456, "pitch": 62, "duration": 9, "velocity": 97}, {"time": 3459, "pitch": 50, "duration": 5, "velocity": 73}, {"time": 3462, "pitch": 55, "duration": 4, "velocity": 83}, {"time": 3468, "pitch": 42, "duration": 23, "velocity": 92}, {"time": 3468, "pitch": 54, "duration": 11, "velocity": 90}, {"time": 3468, "pitch": 57, "duration": 11, "velocity": 81}, {"time": 3468, "pitch": 60, "duration": 9, "velocity": 31}, {"time": 3480, "pitch": 54, "duration": 10, "velocity": 83}, {"time": 3480, "pitch": 57, "duration": 10, "velocity": 76}, {"time": 3480, "pitch": 60, "duration": 10, "velocity": 67}, {"time": 3492, "pitch": 42, "duration": 17, "velocity": 63}, {"time": 3492, "pitch": 54, "duration": 11, "velocity": 66}, {"time": 3492, "pitch": 57, "duration": 11, "velocity": 67}, {"time": 3492, "pitch": 60, "duration": 10, "velocity": 63}, {"time": 3504, "pitch": 54, "duration": 11, "velocity": 63}, {"time": 3504, "pitch": 57, "duration": 12, "velocity": 63}, {"time": 3504, "pitch": 60, "duration": 12, "velocity": 68}, {"time": 3516, "pitch": 38, "duration": 23, "velocity": 75}, {"time": 3519, "pitch": 45, "duration": 21, "velocity": 66}, {"time": 3522, "pitch": 50, "duration": 7, "velocity": 85}, {"time": 3525, "pitch": 57, "duration": 7, "velocity": 82}, {"time": 3528, "pitch": 65, "duration": 19, "velocity": 117}, {"time": 3531, "pitch": 50, "duration": 4, "velocity": 90}, {"time": 3534, "pitch": 62, "duration": 14, "velocity": 95}, {"time": 3537, "pitch": 57, "duration": 10, "velocity": 96}, {"time": 3540, "pitch": 38, "duration": 17, "velocity": 82}, {"time": 3543, "pitch": 45, "duration": 15, "velocity": 68}, {"time": 3546, "pitch": 50, "duration": 7, "velocity": 82}, {"time": 3549, "pitch": 57, "duration": 6, "velocity": 72}, {"time": 3552, "pitch": 65, "duration": 11, "velocity": 117}, {"time": 3555, "pitch": 50, "duration": 8, "velocity": 100}, {"time": 3558, "pitch": 62, "duration": 4, "velocity": 107}, {"time": 3561, "pitch": 57, "duration": 3, "velocity": 102}, {"time": 3564, "pitch": 41, "duration": 22, "velocity": 65}, {"time": 3567, "pitch": 48, "duration": 10, "velocity": 81}, {"time": 3570, "pitch": 53, "duration": 4, "velocity": 93}, {"time": 3573, "pitch": 57, "duration": 2, "velocity": 100}, {"time": 3576, "pitch": 60, "duration": 6, "velocity": 122}, {"time": 3579, "pitch": 48, "duration": 9, "velocity": 92}, {"time": 3582, "pitch": 57, "duration": 4, "velocity": 117}, {"time": 3585, "pitch": 60, "duration": 3, "velocity": 122}, {"time": 3588, "pitch": 43, "duration": 22, "velocity": 95}, {"time": 3591, "pitch": 50, "duration": 10, "velocity": 99}, {"time": 3594, "pitch": 55, "duration": 3, "velocity": 99}, {"time": 3597, "pitch": 59, "duration": 3, "velocity": 107}, {"time": 3600, "pitch": 62, "duration": 11, "velocity": 122}, {"time": 3603, "pitch": 50, "duration": 7, "velocity": 90}, {"time": 3606, "pitch": 59, "duration": 5, "velocity": 107}, {"time": 3609, "pitch": 55, "duration": 4, "velocity": 97}, {"time": 3612, "pitch": 41, "duration": 22, "velocity": 82}, {"time": 3615, "pitch": 48, "duration": 21, "velocity": 92}, {"time": 3618, "pitch": 53, "duration": 8, "velocity": 90}, {"time": 3621, "pitch": 57, "duration": 4, "velocity": 77}, {"time": 3624, "pitch": 64, "duration": 12, "velocity": 100}, {"time": 3627, "pitch": 53, "duration": 2, "velocity": 92}, {"time": 3630, "pitch": 60, "duration": 5, "velocity": 100}, {"time": 3633, "pitch": 57, "duration": 3, "velocity": 99}, {"time": 3636, "pitch": 43, "duration": 18, "velocity": 81}, {"time": 3639, "pitch": 50, "duration": 11, "velocity": 74}, {"time": 3642, "pitch": 55, "duration": 3, "velocity": 85}, {"time": 3645, "pitch": 59, "duration": 3, "velocity": 96}, {"time": 3648, "pitch": 62, "duration": 10, "velocity": 107}, {"time": 3651, "pitch": 50, "duration": 2, "velocity": 73}, {"time": 3654, "pitch": 59, "duration": 5, "velocity": 95}, {"time": 3657, "pitch": 55, "duration": 4, "velocity": 97}, {"time": 3660, "pitch": 40, "duration": 17, "velocity": 78}, {"time": 3663, "pitch": 47, "duration": 14, "velocity": 73}, {"time": 3666, "pitch": 52, "duration": 7, "velocity": 90}, {"time": 3669, "pitch": 55, "duration": 4, "velocity": 81}, {"time": 3672, "pitch": 64, "duration": 12, "velocity": 102}, {"time": 3675, "pitch": 52, "duration": 6, "velocity": 92}, {"time": 3678, "pitch": 59, "duration": 5, "velocity": 86}, {"time": 3681, "pitch": 55, "duration": 3, "velocity": 95}, {"time": 3684, "pitch": 45, "duration": 18, "velocity": 69}, {"time": 3687, "pitch": 52, "duration": 10, "velocity": 71}, {"time": 3690, "pitch": 57, "duration": 4, "velocity": 83}, {"time": 3693, "pitch": 60, "duration": 2, "velocity": 92}, {"time": 3696, "pitch": 64, "duration": 12, "velocity": 112}, {"time": 3699, "pitch": 52, "duration": 2, "velocity": 85}, {"time": 3702, "pitch": 60, "duration": 6, "velocity": 107}, {"time": 3705, "pitch": 57, "duration": 3, "velocity": 97}, {"time": 3708, "pitch": 41, "duration": 21, "velocity": 73}, {"time": 3711, "pitch": 48, "duration": 21, "velocity": 68}, {"time": 3714, "pitch": 53, "duration": 7, "velocity": 81}, {"time": 3717, "pitch": 57, "duration": 4, "velocity": 75}, {"time": 3720, "pitch": 64, "duration": 11, "velocity": 99}, {"time": 3723, "pitch": 53, "duration": 3, "velocity": 85}, {"time": 3726, "pitch": 60, "duration": 4, "velocity": 92}, {"time": 3729, "pitch": 57, "duration": 4, "velocity": 89}, {"time": 3732, "pitch": 43, "duration": 17, "velocity": 73}, {"time": 3735, "pitch": 50, "duration": 11, "velocity": 52}, {"time": 3738, "pitch": 55, "duration": 4, "velocity": 85}, {"time": 3741, "pitch": 59, "duration": 4, "velocity": 79}, {"time": 3744, "pitch": 62, "duration": 10, "velocity": 97}, {"time": 3747, "pitch": 50, "duration": 2, "velocity": 69}, {"time": 3750, "pitch": 59, "duration": 4, "velocity": 93}, {"time": 3753, "pitch": 55, "duration": 4, "velocity": 96}, {"time": 3756, "pitch": 36, "duration": 31, "velocity": 73}, {"time": 3759, "pitch": 43, "duration": 28, "velocity": 76}, {"time": 3762, "pitch": 48, "duration": 7, "velocity": 81}, {"time": 3765, "pitch": 55, "duration": 7, "velocity": 82}, {"time": 3768, "pitch": 64, "duration": 7, "velocity": 100}, {"time": 3771, "pitch": 48, "duration": 10, "velocity": 90}, {"time": 3774, "pitch": 55, "duration": 18, "velocity": 92}, {"time": 3780, "pitch": 60, "duration": 9, "velocity": 97}, {"time": 3780, "pitch": 64, "duration": 9, "velocity": 99}, {"time": 3786, "pitch": 48, "duration": 6, "velocity": 97}, {"time": 3792, "pitch": 47, "duration": 10, "velocity": 79}, {"time": 3792, "pitch": 59, "duration": 12, "velocity": 95}, {"time": 3792, "pitch": 62, "duration": 12, "velocity": 100}, {"time": 3804, "pitch": 45, "duration": 18, "velocity": 73}, {"time": 3807, "pitch": 52, "duration": 10, "velocity": 79}, {"time": 3810, "pitch": 57, "duration": 4, "velocity": 82}, {"time": 3813, "pitch": 60, "duration": 3, "velocity": 90}, {"time": 3816, "pitch": 64, "duration": 11, "velocity": 100}, {"time": 3819, "pitch": 52, "duration": 2, "velocity": 66}, {"time": 3822, "pitch": 60, "duration": 5, "velocity": 97}, {"time": 3825, "pitch": 57, "duration": 3, "velocity": 95}, {"time": 3828, "pitch": 43, "duration": 17, "velocity": 76}, {"time": 3831, "pitch": 50, "duration": 10, "velocity": 69}, {"time": 3834, "pitch": 55, "duration": 4, "velocity": 86}, {"time": 3837, "pitch": 59, "duration": 4, "velocity": 89}, {"time": 3840, "pitch": 62, "duration": 8, "velocity": 97}, {"time": 3843, "pitch": 50, "duration": 2, "velocity": 77}, {"time": 3846, "pitch": 55, "duration": 5, "velocity": 88}, {"time": 3852, "pitch": 42, "duration": 22, "velocity": 85}, {"time": 3852, "pitch": 57, "duration": 23, "velocity": 92}, {"time": 3852, "pitch": 60, "duration": 11, "velocity": 95}, {"time": 3858, "pitch": 54, "duration": 8, "velocity": 76}, {"time": 3864, "pitch": 60, "duration": 11, "velocity": 79}, {"time": 3870, "pitch": 54, "duration": 5, "velocity": 39}, {"time": 3876, "pitch": 42, "duration": 19, "velocity": 71}, {"time": 3876, "pitch": 54, "duration": 18, "velocity": 53}, {"time": 3876, "pitch": 57, "duration": 22, "velocity": 74}, {"time": 3876, "pitch": 60, "duration": 22, "velocity": 81}, {"time": 3897, "pitch": 69, "duration": 12, "velocity": 73}, {"time": 3898, "pitch": 74, "duration": 16, "velocity": 76}, {"time": 3899, "pitch": 50, "duration": 17, "velocity": 35}, {"time": 3899, "pitch": 77, "duration": 18, "velocity": 90}, {"time": 3901, "pitch": 62, "duration": 19, "velocity": 63}, {"time": 3912, "pitch": 69, "duration": 14, "velocity": 83}, {"time": 3918, "pitch": 77, "duration": 9, "velocity": 96}, {"time": 3925, "pitch": 55, "duration": 30, "velocity": 90}, {"time": 3931, "pitch": 62, "duration": 23, "velocity": 38}, {"time": 3937, "pitch": 67, "duration": 17, "velocity": 50}, {"time": 3937, "pitch": 71, "duration": 18, "velocity": 61}, {"time": 3954, "pitch": 45, "duration": 16, "velocity": 74}, {"time": 3954, "pitch": 67, "duration": 1, "velocity": 72}, {"time": 3954, "pitch": 64, "duration": 6, "velocity": 62}, {"time": 3958, "pitch": 60, "duration": 16, "velocity": 66}, {"time": 3963, "pitch": 67, "duration": 12, "velocity": 66}, {"time": 3968, "pitch": 64, "duration": 5, "velocity": 57}, {"time": 3973, "pitch": 43, "duration": 27, "velocity": 63}, {"time": 3979, "pitch": 55, "duration": 21, "velocity": 77}, {"time": 3985, "pitch": 59, "duration": 16, "velocity": 76}, {"time": 3990, "pitch": 62, "duration": 11, "velocity": 63}, {"time": 3998, "pitch": 42, "duration": 31, "velocity": 61}, {"time": 3999, "pitch": 54, "duration": 30, "velocity": 61}, {"time": 4000, "pitch": 57, "duration": 29, "velocity": 82}, {"time": 4001, "pitch": 60, "duration": 28, "velocity": 75}, {"time": 4049, "pitch": 62, "duration": 11, "velocity": 57}, {"time": 4050, "pitch": 38, "duration": 20, "velocity": 38}, {"time": 4050, "pitch": 65, "duration": 21, "velocity": 65}, {"time": 4051, "pitch": 69, "duration": 20, "velocity": 66}, {"time": 4056, "pitch": 50, "duration": 16, "velocity": 68}, {"time": 4063, "pitch": 62, "duration": 8, "velocity": 66}, {"time": 4076, "pitch": 55, "duration": 22, "velocity": 58}, {"time": 4077, "pitch": 59, "duration": 21, "velocity": 55}, {"time": 4077, "pitch": 43, "duration": 21, "velocity": 62}, {"time": 4078, "pitch": 62, "duration": 20, "velocity": 83}, {"time": 4116, "pitch": 67, "duration": 15, "velocity": 50}, {"time": 4117, "pitch": 64, "duration": 16, "velocity": 41}, {"time": 4118, "pitch": 60, "duration": 24, "velocity": 51}, {"time": 4119, "pitch": 36, "duration": 66, "velocity": 81}, {"time": 4125, "pitch": 43, "duration": 59, "velocity": 55}, {"time": 4130, "pitch": 48, "duration": 54, "velocity": 73}, {"time": 4135, "pitch": 64, "duration": 7, "velocity": 70}, {"time": 4140, "pitch": 67, "duration": 2, "velocity": 45}, {"time": 4145, "pitch": 72, "duration": 7, "velocity": 35}, {"time": 4151, "pitch": 76, "duration": 1, "velocity": 47}, {"time": 4158, "pitch": 79, "duration": 4, "velocity": 35}, {"time": 4172, "pitch": 79, "duration": 12, "velocity": 12}, {"time": 4173, "pitch": 84, "duration": 11, "velocity": 36}, {"time": 4175, "pitch": 88, "duration": 9, "velocity": 27}], "annotations": [{"time": 34, "annotation": {"number": 64, "value": 127}, "group": "control_change"}, {"time": 50, "annotation": {"number": 64, "value": 0}, "group": "control_change"}, {"time": 50, "annotation": {"number": 64, "value": 127}, "group": "control_change"}, {"time": 68, "annotation": {"number": 64, "value": 0}, "group": "control_change"}, {"time": 74, "annotation": {"number": 64, "value": 127}, "group": "control_change"}, {"time": 94, "annotation": {"number": 64, "value": 0}, "group": "control_change"}, {"time": 96, "annotation": {"number": 64, "value": 127}, "group": "control_change"}, {"time": 116, "annotation": {"number": 64, "value": 0}, "group": "control_change"}, {"time": 122, "annotation": {"number": 64, "value": 127}, "group": "control_change"}, {"time": 142, "annotation": {"number": 64, "value": 0}, "group": "control_change"}, {"time": 385, "annotation": {"number": 64, "value": 127}, "group": "control_change"}, {"time": 409, "annotation": {"number": 64, "value": 0}, "group": "control_change"}, {"time": 412, "annotation": {"number": 64, "value": 127}, "group": "control_change"}, {"time": 432, "annotation": {"number": 64, "value": 0}, "group": "control_change"}, {"time": 433, "annotation": {"number": 64, "value": 127}, "group": "control_change"}, {"time": 456, "annotation": {"number": 64, "value": 0}, "group": "control_change"}, {"time": 457, "annotation": {"number": 64, "value": 127}, "group": "control_change"}, {"time": 479, "annotation": {"number": 64, "value": 0}, "group": "control_change"}, {"time": 482, "annotation": {"number": 64, "value": 127}, "group": "control_change"}, {"time": 502, "annotation": {"number": 64, "value": 0}, "group": "control_change"}, {"time": 505, "annotation": {"number": 64, "value": 127}, "group": "control_change"}, {"time": 525, "annotation": {"number": 64, "value": 0}, "group": "control_change"}, {"time": 531, "annotation": {"number": 64, "value": 127}, "group": "control_change"}, {"time": 573, "annotation": {"number": 64, "value": 0}, "group": "control_change"}, {"time": 581, "annotation": {"number": 64, "value": 127}, "group": "control_change"}, {"time": 598, "annotation": {"number": 64, "value": 0}, "group": "control_change"}, {"time": 602, "annotation": {"number": 64, "value": 127}, "group": "control_change"}, {"time": 622, "annotation": {"number": 64, "value": 0}, "group": "control_change"}, {"time": 626, "annotation": {"number": 64, "value": 127}, "group": "control_change"}, {"time": 669, "annotation": {"number": 64, "value": 0}, "group": "control_change"}, {"time": 674, "annotation": {"number": 64, "value": 127}, "group": "control_change"}, {"time": 693, "annotation": {"number": 64, "value": 0}, "group": "control_change"}, {"time": 698, "annotation": {"number": 64, "value": 127}, "group": "control_change"}, {"time": 717, "annotation": {"number": 64, "value": 0}, "group": "control_change"}, {"time": 717, "annotation": {"number": 64, "value": 127}, "group": "control_change"}, {"time": 718, "annotation": {"number": 64, "value": 0}, "group": "control_change"}, {"time": 722, "annotation": {"number": 64, "value": 127}, "group": "control_change"}, {"time": 757, "annotation": {"number": 64, "value": 0}, "group": "control_change"}, {"time": 770, "annotation": {"number": 64, "value": 127}, "group": "control_change"}, {"time": 790, "annotation": {"number": 64, "value": 0}, "group": "control_change"}, {"time": 790, "annotation": {"number": 64, "value": 127}, "group": "control_change"}, {"time": 794, "annotation": {"number": 64, "value": 127}, "group": "control_change"}, {"time": 814, "annotation": {"number": 64, "value": 0}, "group": "control_change"}, {"time": 818, "annotation": {"number": 64, "value": 127}, "group": "control_change"}, {"time": 831, "annotation": {"number": 64, "value": 0}, "group": "control_change"}, {"time": 842, "annotation": {"number": 64, "value": 127}, "group": "control_change"}, {"time": 864, "annotation": {"number": 64, "value": 0}, "group": "control_change"}, {"time": 866, "annotation": {"number": 64, "value": 127}, "group": "control_change"}, {"time": 910, "annotation": {"number": 64, "value": 0}, "group": "control_change"}, {"time": 915, "annotation": {"number": 64, "value": 127}, "group": "control_change"}, {"time": 936, "annotation": {"number": 64, "value": 0}, "group": "control_change"}, {"time": 962, "annotation": {"number": 64, "value": 127}, "group": "control_change"}, {"time": 983, "annotation": {"number": 64, "value": 0}, "group": "control_change"}, {"time": 984, "annotation": {"number": 64, "value": 127}, "group": "control_change"}, {"time": 1006, "annotation": {"number": 64, "value": 0}, "group": "control_change"}, {"time": 1010, "annotation": {"number": 64, "value": 127}, "group": "control_change"}, {"time": 1031, "annotation": {"number": 64, "value": 0}, "group": "control_change"}, {"time": 1033, "annotation": {"number": 64, "value": 127}, "group": "control_change"}, {"time": 1055, "annotation": {"number": 64, "value": 0}, "group": "control_change"}, {"time": 1057, "annotation": {"number": 64, "value": 127}, "group": "control_change"}, {"time": 1079, "annotation": {"number": 64, "value": 0}, "group": "control_change"}, {"time": 1080, "annotation": {"number": 64, "value": 127}, "group": "control_change"}, {"time": 1102, "annotation": {"number": 64, "value": 0}, "group": "control_change"}, {"time": 1104, "annotation": {"number": 64, "value": 127}, "group": "control_change"}, {"time": 1126, "annotation": {"number": 64, "value": 0}, "group": "control_change"}, {"time": 1129, "annotation": {"number": 64, "value": 127}, "group": "control_change"}, {"time": 1150, "annotation": {"number": 64, "value": 0}, "group": "control_change"}, {"time": 1153, "annotation": {"number": 64, "value": 127}, "group": "control_change"}, {"time": 1174, "annotation": {"number": 64, "value": 0}, "group": "control_change"}, {"time": 1177, "annotation": {"number": 64, "value": 127}, "group": "control_change"}, {"time": 1198, "annotation": {"number": 64, "value": 0}, "group": "control_change"}, {"time": 1206, "annotation": {"number": 64, "value": 127}, "group": "control_change"}, {"time": 1247, "annotation": {"number": 64, "value": 0}, "group": "control_change"}, {"time": 1249, "annotation": {"number": 64, "value": 127}, "group": "control_change"}, {"time": 1271, "annotation": {"number": 64, "value": 0}, "group": "control_change"}, {"time": 1273, "annotation": {"number": 64, "value": 127}, "group": "control_change"}, {"time": 1294, "annotation": {"number": 64, "value": 0}, "group": "control_change"}, {"time": 1296, "annotation": {"number": 64, "value": 127}, "group": "control_change"}, {"time": 1318, "annotation": {"number": 64, "value": 0}, "group": "control_change"}, {"time": 1320, "annotation": {"number": 64, "value": 127}, "group": "control_change"}, {"time": 1342, "annotation": {"number": 64, "value": 0}, "group": "control_change"}, {"time": 1346, "annotation": {"number": 64, "value": 127}, "group": "control_change"}, {"time": 1367, "annotation": {"number": 64, "value": 0}, "group": "control_change"}, {"time": 1369, "annotation": {"number": 64, "value": 127}, "group": "control_change"}, {"time": 1415, "annotation": {"number": 64, "value": 0}, "group": "control_change"}, {"time": 1416, "annotation": {"number": 64, "value": 127}, "group": "control_change"}, {"time": 1439, "annotation": {"number": 64, "value": 0}, "group": "control_change"}, {"time": 1440, "annotation": {"number": 64, "value": 127}, "group": "control_change"}, {"time": 1463, "annotation": {"number": 64, "value": 0}, "group": "control_change"}, {"time": 1464, "annotation": {"number": 64, "value": 127}, "group": "control_change"}, {"time": 1487, "annotation": {"number": 64, "value": 0}, "group": "control_change"}, {"time": 1489, "annotation": {"number": 64, "value": 127}, "group": "control_change"}, {"time": 1511, "annotation": {"number": 64, "value": 0}, "group": "control_change"}, {"time": 1512, "annotation": {"number": 64, "value": 127}, "group": "control_change"}, {"time": 1533, "annotation": {"number": 64, "value": 0}, "group": "control_change"}, {"time": 1538, "annotation": {"number": 64, "value": 127}, "group": "control_change"}, {"time": 1558, "annotation": {"number": 64, "value": 0}, "group": "control_change"}, {"time": 1561, "annotation": {"number": 64, "value": 127}, "group": "control_change"}, {"time": 1583, "annotation": {"number": 64, "value": 0}, "group": "control_change"}, {"time": 1589, "annotation": {"number": 64, "value": 127}, "group": "control_change"}, {"time": 1630, "annotation": {"number": 64, "value": 0}, "group": "control_change"}, {"time": 1634, "annotation": {"number": 64, "value": 127}, "group": "control_change"}, {"time": 1680, "annotation": {"number": 64, "value": 0}, "group": "control_change"}, {"time": 1680, "annotation": {"number": 64, "value": 127}, "group": "control_change"}, {"time": 1702, "annotation": {"number": 64, "value": 0}, "group": "control_change"}, {"time": 1705, "annotation": {"number": 64, "value": 127}, "group": "control_change"}, {"time": 1749, "annotation": {"number": 64, "value": 0}, "group": "control_change"}, {"time": 1753, "annotation": {"number": 64, "value": 127}, "group": "control_change"}, {"time": 1773, "annotation": {"number": 64, "value": 0}, "group": "control_change"}, {"time": 1777, "annotation": {"number": 64, "value": 127}, "group": "control_change"}, {"time": 1799, "annotation": {"number": 64, "value": 0}, "group": "control_change"}, {"time": 1802, "annotation": {"number": 64, "value": 127}, "group": "control_change"}, {"time": 1828, "annotation": {"number": 64, "value": 0}, "group": "control_change"}, {"time": 1854, "annotation": {"number": 64, "value": 127}, "group": "control_change"}, {"time": 1869, "annotation": {"number": 64, "value": 0}, "group": "control_change"}, {"time": 1872, "annotation": {"number": 64, "value": 127}, "group": "control_change"}, {"time": 1894, "annotation": {"number": 64, "value": 0}, "group": "control_change"}, {"time": 1897, "annotation": {"number": 64, "value": 127}, "group": "control_change"}, {"time": 1941, "annotation": {"number": 64, "value": 0}, "group": "control_change"}, {"time": 1945, "annotation": {"number": 64, "value": 127}, "group": "control_change"}, {"time": 1966, "annotation": {"number": 64, "value": 0}, "group": "control_change"}, {"time": 1969, "annotation": {"number": 64, "value": 127}, "group": "control_change"}, {"time": 1988, "annotation": {"number": 64, "value": 0}, "group": "control_change"}, {"time": 1993, "annotation": {"number": 64, "value": 127}, "group": "control_change"}, {"time": 2036, "annotation": {"number": 64, "value": 0}, "group": "control_change"}, {"time": 2042, "annotation": {"number": 64, "value": 127}, "group": "control_change"}, {"time": 2052, "annotation": {"number": 64, "value": 0}, "group": "control_change"}, {"time": 2065, "annotation": {"number": 64, "value": 127}, "group": "control_change"}, {"time": 2086, "annotation": {"number": 64, "value": 0}, "group": "control_change"}, {"time": 2089, "annotation": {"number": 64, "value": 127}, "group": "control_change"}, {"time": 2102, "annotation": {"number": 64, "value": 0}, "group": "control_change"}, {"time": 2112, "annotation": {"number": 64, "value": 127}, "group": "control_change"}, {"time": 2134, "annotation": {"number": 64, "value": 0}, "group": "control_change"}, {"time": 2136, "annotation": {"number": 64, "value": 127}, "group": "control_change"}, {"time": 2157, "annotation": {"number": 64, "value": 0}, "group": "control_change"}, {"time": 2160, "annotation": {"number": 64, "value": 127}, "group": "control_change"}, {"time": 2181, "annotation": {"number": 64, "value": 0}, "group": "control_change"}, {"time": 2185, "annotation": {"number": 64, "value": 127}, "group": "control_change"}, {"time": 2205, "annotation": {"number": 64, "value": 0}, "group": "control_change"}, {"time": 2232, "annotation": {"number": 64, "value": 127}, "group": "control_change"}, {"time": 2252, "annotation": {"number": 64, "value": 0}, "group": "control_change"}, {"time": 2256, "annotation": {"number": 64, "value": 127}, "group": "control_change"}, {"time": 2276, "annotation": {"number": 64, "value": 0}, "group": "control_change"}, {"time": 2280, "annotation": {"number": 64, "value": 127}, "group": "control_change"}, {"time": 2302, "annotation": {"number": 64, "value": 0}, "group": "control_change"}, {"time": 2305, "annotation": {"number": 64, "value": 127}, "group": "control_change"}, {"time": 2325, "annotation": {"number": 64, "value": 0}, "group": "control_change"}, {"time": 2328, "annotation": {"number": 64, "value": 127}, "group": "control_change"}, {"time": 2349, "annotation": {"number": 64, "value": 0}, "group": "control_change"}, {"time": 2353, "annotation": {"number": 64, "value": 127}, "group": "control_change"}, {"time": 2373, "annotation": {"number": 64, "value": 0}, "group": "control_change"}, {"time": 2376, "annotation": {"number": 64, "value": 127}, "group": "control_change"}, {"time": 2421, "annotation": {"number": 64, "value": 0}, "group": "control_change"}, {"time": 2424, "annotation": {"number": 64, "value": 127}, "group": "control_change"}, {"time": 2445, "annotation": {"number": 64, "value": 0}, "group": "control_change"}, {"time": 2448, "annotation": {"number": 64, "value": 127}, "group": "control_change"}, {"time": 2469, "annotation": {"number": 64, "value": 0}, "group": "control_change"}, {"time": 2472, "annotation": {"number": 64, "value": 127}, "group": "control_change"}, {"time": 2493, "annotation": {"number": 64, "value": 0}, "group": "control_change"}, {"time": 2508, "annotation": {"number": 64, "value": 127}, "group": "control_change"}, {"time": 2516, "annotation": {"number": 64, "value": 0}, "group": "control_change"}, {"time": 2520, "annotation": {"number": 64, "value": 127}, "group": "control_change"}, {"time": 2541, "annotation": {"number": 64, "value": 0}, "group": "control_change"}, {"time": 2545, "annotation": {"number": 64, "value": 127}, "group": "control_change"}, {"time": 2565, "annotation": {"number": 64, "value": 0}, "group": "control_change"}, {"time": 2568, "annotation": {"number": 64, "value": 127}, "group": "control_change"}, {"time": 2589, "annotation": {"number": 64, "value": 0}, "group": "control_change"}, {"time": 2592, "annotation": {"number": 64, "value": 127}, "group": "control_change"}, {"time": 2613, "annotation": {"number": 64, "value": 0}, "group": "control_change"}, {"time": 2616, "annotation": {"number": 64, "value": 127}, "group": "control_change"}, {"time": 2637, "annotation": {"number": 64, "value": 0}, "group": "control_change"}, {"time": 2640, "annotation": {"number": 64, "value": 127}, "group": "control_change"}, {"time": 2661, "annotation": {"number": 64, "value": 0}, "group": "control_change"}, {"time": 2665, "annotation": {"number": 64, "value": 127}, "group": "control_change"}, {"time": 2685, "annotation": {"number": 64, "value": 0}, "group": "control_change"}, {"time": 2689, "annotation": {"number": 64, "value": 127}, "group": "control_change"}, {"time": 2708, "annotation": {"number": 64, "value": 0}, "group": "control_change"}, {"time": 2712, "annotation": {"number": 64, "value": 127}, "group": "control_change"}, {"time": 2733, "annotation": {"number": 64, "value": 0}, "group": "control_change"}, {"time": 2736, "annotation": {"number": 64, "value": 127}, "group": "control_change"}, {"time": 2757, "annotation": {"number": 64, "value": 0}, "group": "control_change"}, {"time": 2760, "annotation": {"number": 64, "value": 127}, "group": "control_change"}, {"time": 2794, "annotation": {"number": 64, "value": 0}, "group": "control_change"}, {"time": 2808, "annotation": {"number": 64, "value": 127}, "group": "control_change"}, {"time": 2829, "annotation": {"number": 64, "value": 0}, "group": "control_change"}, {"time": 2832, "annotation": {"number": 64, "value": 127}, "group": "control_change"}, {"time": 2854, "annotation": {"number": 64, "value": 0}, "group": "control_change"}, {"time": 2857, "annotation": {"number": 64, "value": 127}, "group": "control_change"}, {"time": 2878, "annotation": {"number": 64, "value": 0}, "group": "control_change"}, {"time": 2904, "annotation": {"number": 64, "value": 127}, "group": "control_change"}, {"time": 2926, "annotation": {"number": 64, "value": 0}, "group": "control_change"}, {"time": 2952, "annotation": {"number": 64, "value": 127}, "group": "control_change"}, {"time": 2954, "annotation": {"number": 64, "value": 0}, "group": "control_change"}, {"time": 2964, "annotation": {"number": 64, "value": 127}, "group": "control_change"}, {"time": 2972, "annotation": {"number": 64, "value": 0}, "group": "control_change"}, {"time": 2976, "annotation": {"number": 64, "value": 127}, "group": "control_change"}, {"time": 2980, "annotation": {"number": 64, "value": 0}, "group": "control_change"}, {"time": 3000, "annotation": {"number": 64, "value": 127}, "group": "control_change"}, {"time": 3022, "annotation": {"number": 64, "value": 0}, "group": "control_change"}, {"time": 3024, "annotation": {"number": 64, "value": 127}, "group": "control_change"}, {"time": 3046, "annotation": {"number": 64, "value": 0}, "group": "control_change"}, {"time": 3048, "annotation": {"number": 64, "value": 127}, "group": "control_change"}, {"time": 3070, "annotation": {"number": 64, "value": 0}, "group": "control_change"}, {"time": 3071, "annotation": {"number": 64, "value": 127}, "group": "control_change"}, {"time": 3094, "annotation": {"number": 64, "value": 0}, "group": "control_change"}, {"time": 3096, "annotation": {"number": 64, "value": 127}, "group": "control_change"}, {"time": 3117, "annotation": {"number": 64, "value": 0}, "group": "control_change"}, {"time": 3120, "annotation": {"number": 64, "value": 127}, "group": "control_change"}, {"time": 3142, "annotation": {"number": 64, "value": 0}, "group": "control_change"}, {"time": 3144, "annotation": {"number": 64, "value": 127}, "group": "control_change"}, {"time": 3165, "annotation": {"number": 64, "value": 0}, "group": "control_change"}, {"time": 3169, "annotation": {"number": 64, "value": 127}, "group": "control_change"}, {"time": 3178, "annotation": {"number": 64, "value": 0}, "group": "control_change"}, {"time": 3178, "annotation": {"number": 64, "value": 127}, "group": "control_change"}, {"time": 3179, "annotation": {"number": 64, "value": 0}, "group": "control_change"}, {"time": 3179, "annotation": {"number": 64, "value": 127}, "group": "control_change"}, {"time": 3181, "annotation": {"number": 64, "value": 0}, "group": "control_change"}, {"time": 3182, "annotation": {"number": 64, "value": 127}, "group": "control_change"}, {"time": 3182, "annotation": {"number": 64, "value": 0}, "group": "control_change"}, {"time": 3255, "annotation": {"number": 64, "value": 127}, "group": "control_change"}, {"time": 3276, "annotation": {"number": 64, "value": 0}, "group": "control_change"}, {"time": 3324, "annotation": {"number": 64, "value": 127}, "group": "control_change"}, {"time": 3345, "annotation": {"number": 64, "value": 0}, "group": "control_change"}, {"time": 3349, "annotation": {"number": 64, "value": 127}, "group": "control_change"}, {"time": 3369, "annotation": {"number": 64, "value": 0}, "group": "control_change"}, {"time": 3372, "annotation": {"number": 64, "value": 127}, "group": "control_change"}, {"time": 3417, "annotation": {"number": 64, "value": 0}, "group": "control_change"}, {"time": 3420, "annotation": {"number": 64, "value": 127}, "group": "control_change"}, {"time": 3441, "annotation": {"number": 64, "value": 0}, "group": "control_change"}, {"time": 3444, "annotation": {"number": 64, "value": 127}, "group": "control_change"}, {"time": 3465, "annotation": {"number": 64, "value": 0}, "group": "control_change"}, {"time": 3468, "annotation": {"number": 64, "value": 127}, "group": "control_change"}, {"time": 3489, "annotation": {"number": 64, "value": 0}, "group": "control_change"}, {"time": 3504, "annotation": {"number": 64, "value": 127}, "group": "control_change"}, {"time": 3512, "annotation": {"number": 64, "value": 0}, "group": "control_change"}, {"time": 3516, "annotation": {"number": 64, "value": 127}, "group": "control_change"}, {"time": 3537, "annotation": {"number": 64, "value": 0}, "group": "control_change"}, {"time": 3541, "annotation": {"number": 64, "value": 127}, "group": "control_change"}, {"time": 3561, "annotation": {"number": 64, "value": 0}, "group": "control_change"}, {"time": 3564, "annotation": {"number": 64, "value": 127}, "group": "control_change"}, {"time": 3585, "annotation": {"number": 64, "value": 0}, "group": "control_change"}, {"time": 3588, "annotation": {"number": 64, "value": 127}, "group": "control_change"}, {"time": 3609, "annotation": {"number": 64, "value": 0}, "group": "control_change"}, {"time": 3612, "annotation": {"number": 64, "value": 127}, "group": "control_change"}, {"time": 3633, "annotation": {"number": 64, "value": 0}, "group": "control_change"}, {"time": 3636, "annotation": {"number": 64, "value": 127}, "group": "control_change"}, {"time": 3657, "annotation": {"number": 64, "value": 0}, "group": "control_change"}, {"time": 3661, "annotation": {"number": 64, "value": 127}, "group": "control_change"}, {"time": 3681, "annotation": {"number": 64, "value": 0}, "group": "control_change"}, {"time": 3685, "annotation": {"number": 64, "value": 127}, "group": "control_change"}, {"time": 3704, "annotation": {"number": 64, "value": 0}, "group": "control_change"}, {"time": 3708, "annotation": {"number": 64, "value": 127}, "group": "control_change"}, {"time": 3729, "annotation": {"number": 64, "value": 0}, "group": "control_change"}, {"time": 3732, "annotation": {"number": 64, "value": 127}, "group": "control_change"}, {"time": 3753, "annotation": {"number": 64, "value": 0}, "group": "control_change"}, {"time": 3756, "annotation": {"number": 64, "value": 127}, "group": "control_change"}, {"time": 3790, "annotation": {"number": 64, "value": 0}, "group": "control_change"}, {"time": 3804, "annotation": {"number": 64, "value": 127}, "group": "control_change"}, {"time": 3825, "annotation": {"number": 64, "value": 0}, "group": "control_change"}, {"time": 3828, "annotation": {"number": 64, "value": 127}, "group": "control_change"}, {"time": 3850, "annotation": {"number": 64, "value": 0}, "group": "control_change"}, {"time": 3853, "annotation": {"number": 64, "value": 127}, "group": "control_change"}, {"time": 3874, "annotation": {"number": 64, "value": 0}, "group": "control_change"}, {"time": 3911, "annotation": {"number": 64, "value": 127}, "group": "control_change"}, {"time": 3923, "annotation": {"number": 64, "value": 0}, "group": "control_change"}, {"time": 3925, "annotation": {"number": 64, "value": 127}, "group": "control_change"}, {"time": 3956, "annotation": {"number": 64, "value": 0}, "group": "control_change"}, {"time": 3958, "annotation": {"number": 64, "value": 127}, "group": "control_change"}, {"time": 3972, "annotation": {"number": 64, "value": 0}, "group": "control_change"}, {"time": 3975, "annotation": {"number": 64, "value": 127}, "group": "control_change"}, {"time": 4000, "annotation": {"number": 64, "value": 0}, "group": "control_change"}, {"time": 4017, "annotation": {"number": 64, "value": 127}, "group": "control_change"}, {"time": 4064, "annotation": {"number": 64, "value": 127}, "group": "control_change"}, {"time": 4079, "annotation": {"number": 64, "value": 0}, "group": "control_change"}, {"time": 4086, "annotation": {"number": 64, "value": 127}, "group": "control_change"}, {"time": 4120, "annotation": {"number": 64, "value": 0}, "group": "control_change"}, {"time": 4123, "annotation": {"number": 64, "value": 127}, "group": "control_change"}]}]}