{"metadata": {"schema_version": "0.2", "title": "None", "source_filename": "739.mid", "source_format": "midi"}, "resolution": 12, "tempos": [{"time": 0, "qpm": 64.99999458333379}], "time_signatures": [{"time": 0, "numerator": 1, "denominator": 4}], "tracks": [{"program": 4, "is_drum": false, "name": "MELODY", "notes": [{"time": 196, "pitch": 51, "duration": 6, "velocity": 71}, {"time": 202, "pitch": 63, "duration": 4, "velocity": 88}, {"time": 208, "pitch": 63, "duration": 4, "velocity": 100}, {"time": 214, "pitch": 63, "duration": 4, "velocity": 88}, {"time": 220, "pitch": 62, "duration": 10, "velocity": 82}, {"time": 232, "pitch": 58, "duration": 9, "velocity": 88}, {"time": 244, "pitch": 60, "duration": 4, "velocity": 95}, {"time": 250, "pitch": 60, "duration": 4, "velocity": 92}, {"time": 256, "pitch": 58, "duration": 4, "velocity": 97}, {"time": 262, "pitch": 56, "duration": 6, "velocity": 83}, {"time": 268, "pitch": 58, "duration": 12, "velocity": 82}, {"time": 292, "pitch": 51, "duration": 4, "velocity": 81}, {"time": 298, "pitch": 63, "duration": 4, "velocity": 92}, {"time": 304, "pitch": 63, "duration": 4, "velocity": 95}, {"time": 310, "pitch": 63, "duration": 4, "velocity": 99}, {"time": 316, "pitch": 62, "duration": 9, "velocity": 81}, {"time": 334, "pitch": 58, "duration": 6, "velocity": 88}, {"time": 340, "pitch": 60, "duration": 28, "velocity": 78}, {"time": 388, "pitch": 51, "duration": 5, "velocity": 76}, {"time": 394, "pitch": 63, "duration": 4, "velocity": 90}, {"time": 400, "pitch": 63, "duration": 3, "velocity": 92}, {"time": 406, "pitch": 63, "duration": 6, "velocity": 92}, {"time": 412, "pitch": 62, "duration": 12, "velocity": 79}, {"time": 424, "pitch": 58, "duration": 11, "velocity": 66}, {"time": 436, "pitch": 60, "duration": 4, "velocity": 86}, {"time": 442, "pitch": 60, "duration": 3, "velocity": 85}, {"time": 448, "pitch": 58, "duration": 4, "velocity": 90}, {"time": 454, "pitch": 56, "duration": 6, "velocity": 73}, {"time": 460, "pitch": 58, "duration": 13, "velocity": 76}, {"time": 478, "pitch": 55, "duration": 3, "velocity": 73}, {"time": 481, "pitch": 53, "duration": 2, "velocity": 61}, {"time": 484, "pitch": 51, "duration": 3, "velocity": 78}, {"time": 490, "pitch": 63, "duration": 2, "velocity": 92}, {"time": 496, "pitch": 63, "duration": 5, "velocity": 95}, {"time": 502, "pitch": 67, "duration": 6, "velocity": 83}, {"time": 508, "pitch": 65, "duration": 5, "velocity": 86}, {"time": 514, "pitch": 63, "duration": 6, "velocity": 95}, {"time": 520, "pitch": 62, "duration": 4, "velocity": 89}, {"time": 526, "pitch": 58, "duration": 6, "velocity": 88}, {"time": 532, "pitch": 63, "duration": 16, "velocity": 95}, {"time": 550, "pitch": 60, "duration": 2, "velocity": 81}, {"time": 553, "pitch": 62, "duration": 2, "velocity": 63}, {"time": 556, "pitch": 63, "duration": 5, "velocity": 97}, {"time": 562, "pitch": 62, "duration": 3, "velocity": 85}, {"time": 565, "pitch": 63, "duration": 7, "velocity": 93}, {"time": 574, "pitch": 58, "duration": 4, "velocity": 90}, {"time": 580, "pitch": 65, "duration": 26, "velocity": 89}, {"time": 634, "pitch": 67, "duration": 1, "velocity": 96}, {"time": 637, "pitch": 67, "duration": 6, "velocity": 88}, {"time": 646, "pitch": 65, "duration": 3, "velocity": 96}, {"time": 649, "pitch": 63, "duration": 2, "velocity": 88}, {"time": 652, "pitch": 65, "duration": 5, "velocity": 96}, {"time": 658, "pitch": 60, "duration": 3, "velocity": 81}, {"time": 661, "pitch": 63, "duration": 16, "velocity": 93}, {"time": 682, "pitch": 67, "duration": 2, "velocity": 85}, {"time": 685, "pitch": 67, "duration": 6, "velocity": 97}, {"time": 694, "pitch": 65, "duration": 3, "velocity": 99}, {"time": 697, "pitch": 63, "duration": 2, "velocity": 97}, {"time": 700, "pitch": 65, "duration": 4, "velocity": 95}, {"time": 703, "pitch": 63, "duration": 2, "velocity": 96}, {"time": 709, "pitch": 58, "duration": 15, "velocity": 97}, {"time": 727, "pitch": 55, "duration": 3, "velocity": 71}, {"time": 730, "pitch": 67, "duration": 1, "velocity": 89}, {"time": 733, "pitch": 67, "duration": 6, "velocity": 92}, {"time": 742, "pitch": 65, "duration": 2, "velocity": 95}, {"time": 745, "pitch": 63, "duration": 2, "velocity": 90}, {"time": 748, "pitch": 65, "duration": 5, "velocity": 99}, {"time": 754, "pitch": 60, "duration": 3, "velocity": 79}, {"time": 757, "pitch": 63, "duration": 7, "velocity": 100}, {"time": 769, "pitch": 63, "duration": 1, "velocity": 93}, {"time": 772, "pitch": 63, "duration": 5, "velocity": 95}, {"time": 778, "pitch": 62, "duration": 2, "velocity": 75}, {"time": 781, "pitch": 62, "duration": 7, "velocity": 90}, {"time": 790, "pitch": 60, "duration": 1, "velocity": 92}, {"time": 793, "pitch": 60, "duration": 7, "velocity": 90}, {"time": 802, "pitch": 58, "duration": 2, "velocity": 88}, {"time": 805, "pitch": 58, "duration": 18, "velocity": 97}, {"time": 826, "pitch": 67, "duration": 1, "velocity": 82}, {"time": 829, "pitch": 67, "duration": 6, "velocity": 99}, {"time": 838, "pitch": 65, "duration": 2, "velocity": 96}, {"time": 841, "pitch": 63, "duration": 2, "velocity": 90}, {"time": 844, "pitch": 65, "duration": 4, "velocity": 95}, {"time": 850, "pitch": 60, "duration": 2, "velocity": 75}, {"time": 853, "pitch": 63, "duration": 16, "velocity": 95}, {"time": 874, "pitch": 62, "duration": 2, "velocity": 88}, {"time": 877, "pitch": 62, "duration": 4, "velocity": 86}, {"time": 883, "pitch": 63, "duration": 3, "velocity": 93}, {"time": 889, "pitch": 65, "duration": 1, "velocity": 90}, {"time": 892, "pitch": 58, "duration": 5, "velocity": 81}, {"time": 898, "pitch": 55, "duration": 2, "velocity": 85}, {"time": 901, "pitch": 58, "duration": 4, "velocity": 90}, {"time": 907, "pitch": 65, "duration": 9, "velocity": 95}, {"time": 916, "pitch": 63, "duration": 10, "velocity": 92}, {"time": 925, "pitch": 58, "duration": 1, "velocity": 85}, {"time": 928, "pitch": 58, "duration": 4, "velocity": 96}, {"time": 934, "pitch": 56, "duration": 3, "velocity": 86}, {"time": 937, "pitch": 55, "duration": 3, "velocity": 68}, {"time": 940, "pitch": 56, "duration": 5, "velocity": 92}, {"time": 946, "pitch": 63, "duration": 2, "velocity": 95}, {"time": 949, "pitch": 63, "duration": 12, "velocity": 99}, {"time": 973, "pitch": 58, "duration": 1, "velocity": 90}, {"time": 976, "pitch": 58, "duration": 3, "velocity": 93}, {"time": 982, "pitch": 56, "duration": 3, "velocity": 97}, {"time": 985, "pitch": 55, "duration": 3, "velocity": 73}, {"time": 988, "pitch": 56, "duration": 4, "velocity": 99}, {"time": 994, "pitch": 65, "duration": 1, "velocity": 100}, {"time": 997, "pitch": 65, "duration": 12, "velocity": 112}, {"time": 1021, "pitch": 63, "duration": 1, "velocity": 97}, {"time": 1024, "pitch": 63, "duration": 3, "velocity": 93}, {"time": 1030, "pitch": 62, "duration": 3, "velocity": 67}, {"time": 1033, "pitch": 63, "duration": 35, "velocity": 64}, {"time": 1084, "pitch": 51, "duration": 6, "velocity": 71}, {"time": 1090, "pitch": 63, "duration": 4, "velocity": 88}, {"time": 1096, "pitch": 63, "duration": 4, "velocity": 100}, {"time": 1102, "pitch": 63, "duration": 4, "velocity": 88}, {"time": 1108, "pitch": 62, "duration": 10, "velocity": 82}, {"time": 1120, "pitch": 58, "duration": 9, "velocity": 88}, {"time": 1132, "pitch": 60, "duration": 4, "velocity": 95}, {"time": 1138, "pitch": 60, "duration": 4, "velocity": 92}, {"time": 1144, "pitch": 58, "duration": 4, "velocity": 97}, {"time": 1150, "pitch": 56, "duration": 6, "velocity": 83}, {"time": 1156, "pitch": 58, "duration": 12, "velocity": 82}, {"time": 1180, "pitch": 51, "duration": 4, "velocity": 81}, {"time": 1186, "pitch": 63, "duration": 4, "velocity": 92}, {"time": 1192, "pitch": 63, "duration": 4, "velocity": 95}, {"time": 1198, "pitch": 63, "duration": 4, "velocity": 99}, {"time": 1204, "pitch": 62, "duration": 9, "velocity": 81}, {"time": 1222, "pitch": 63, "duration": 5, "velocity": 127}, {"time": 1228, "pitch": 60, "duration": 23, "velocity": 95}, {"time": 1255, "pitch": 60, "duration": 3, "velocity": 93}, {"time": 1258, "pitch": 58, "duration": 3, "velocity": 93}, {"time": 1261, "pitch": 56, "duration": 8, "velocity": 85}, {"time": 1276, "pitch": 51, "duration": 5, "velocity": 76}, {"time": 1282, "pitch": 63, "duration": 4, "velocity": 90}, {"time": 1288, "pitch": 63, "duration": 3, "velocity": 92}, {"time": 1294, "pitch": 63, "duration": 6, "velocity": 92}, {"time": 1300, "pitch": 62, "duration": 12, "velocity": 79}, {"time": 1312, "pitch": 58, "duration": 11, "velocity": 66}, {"time": 1324, "pitch": 60, "duration": 4, "velocity": 86}, {"time": 1330, "pitch": 63, "duration": 4, "velocity": 112}, {"time": 1333, "pitch": 65, "duration": 9, "velocity": 90}, {"time": 1342, "pitch": 63, "duration": 3, "velocity": 95}, {"time": 1345, "pitch": 58, "duration": 11, "velocity": 75}, {"time": 1366, "pitch": 55, "duration": 3, "velocity": 95}, {"time": 1369, "pitch": 53, "duration": 3, "velocity": 77}, {"time": 1372, "pitch": 51, "duration": 4, "velocity": 73}, {"time": 1378, "pitch": 63, "duration": 2, "velocity": 92}, {"time": 1384, "pitch": 63, "duration": 5, "velocity": 95}, {"time": 1390, "pitch": 67, "duration": 6, "velocity": 83}, {"time": 1396, "pitch": 65, "duration": 5, "velocity": 86}, {"time": 1402, "pitch": 63, "duration": 6, "velocity": 95}, {"time": 1408, "pitch": 62, "duration": 4, "velocity": 89}, {"time": 1414, "pitch": 58, "duration": 6, "velocity": 88}, {"time": 1420, "pitch": 63, "duration": 16, "velocity": 95}, {"time": 1438, "pitch": 60, "duration": 2, "velocity": 81}, {"time": 1441, "pitch": 62, "duration": 2, "velocity": 63}, {"time": 1444, "pitch": 63, "duration": 5, "velocity": 97}, {"time": 1450, "pitch": 62, "duration": 3, "velocity": 85}, {"time": 1453, "pitch": 63, "duration": 7, "velocity": 93}, {"time": 1462, "pitch": 58, "duration": 4, "velocity": 90}, {"time": 1468, "pitch": 67, "duration": 7, "velocity": 89}, {"time": 1476, "pitch": 65, "duration": 16, "velocity": 89}, {"time": 1498, "pitch": 67, "duration": 1, "velocity": 96}, {"time": 1501, "pitch": 67, "duration": 6, "velocity": 88}, {"time": 1510, "pitch": 65, "duration": 3, "velocity": 96}, {"time": 1513, "pitch": 63, "duration": 2, "velocity": 88}, {"time": 1516, "pitch": 65, "duration": 5, "velocity": 96}, {"time": 1522, "pitch": 60, "duration": 3, "velocity": 81}, {"time": 1525, "pitch": 63, "duration": 19, "velocity": 93}, {"time": 1546, "pitch": 67, "duration": 2, "velocity": 85}, {"time": 1549, "pitch": 67, "duration": 6, "velocity": 97}, {"time": 1558, "pitch": 65, "duration": 3, "velocity": 99}, {"time": 1561, "pitch": 63, "duration": 2, "velocity": 97}, {"time": 1564, "pitch": 65, "duration": 4, "velocity": 95}, {"time": 1567, "pitch": 63, "duration": 2, "velocity": 96}, {"time": 1573, "pitch": 58, "duration": 15, "velocity": 97}, {"time": 1591, "pitch": 55, "duration": 3, "velocity": 71}, {"time": 1594, "pitch": 67, "duration": 1, "velocity": 89}, {"time": 1597, "pitch": 67, "duration": 6, "velocity": 92}, {"time": 1606, "pitch": 65, "duration": 2, "velocity": 95}, {"time": 1609, "pitch": 63, "duration": 2, "velocity": 90}, {"time": 1612, "pitch": 65, "duration": 5, "velocity": 99}, {"time": 1618, "pitch": 60, "duration": 3, "velocity": 79}, {"time": 1621, "pitch": 63, "duration": 7, "velocity": 100}, {"time": 1633, "pitch": 63, "duration": 1, "velocity": 93}, {"time": 1636, "pitch": 63, "duration": 5, "velocity": 95}, {"time": 1642, "pitch": 62, "duration": 2, "velocity": 75}, {"time": 1645, "pitch": 62, "duration": 7, "velocity": 90}, {"time": 1654, "pitch": 60, "duration": 1, "velocity": 92}, {"time": 1657, "pitch": 60, "duration": 7, "velocity": 90}, {"time": 1666, "pitch": 58, "duration": 2, "velocity": 88}, {"time": 1669, "pitch": 58, "duration": 18, "velocity": 97}, {"time": 1690, "pitch": 67, "duration": 1, "velocity": 82}, {"time": 1693, "pitch": 67, "duration": 6, "velocity": 99}, {"time": 1702, "pitch": 65, "duration": 2, "velocity": 96}, {"time": 1705, "pitch": 63, "duration": 2, "velocity": 90}, {"time": 1708, "pitch": 65, "duration": 4, "velocity": 95}, {"time": 1714, "pitch": 60, "duration": 2, "velocity": 75}, {"time": 1717, "pitch": 63, "duration": 16, "velocity": 95}, {"time": 1738, "pitch": 62, "duration": 2, "velocity": 88}, {"time": 1741, "pitch": 62, "duration": 4, "velocity": 86}, {"time": 1747, "pitch": 63, "duration": 3, "velocity": 93}, {"time": 1753, "pitch": 65, "duration": 1, "velocity": 90}, {"time": 1756, "pitch": 58, "duration": 5, "velocity": 81}, {"time": 1762, "pitch": 55, "duration": 2, "velocity": 85}, {"time": 1765, "pitch": 58, "duration": 4, "velocity": 90}, {"time": 1771, "pitch": 65, "duration": 9, "velocity": 95}, {"time": 1780, "pitch": 63, "duration": 10, "velocity": 92}, {"time": 1789, "pitch": 58, "duration": 1, "velocity": 85}, {"time": 1792, "pitch": 58, "duration": 4, "velocity": 96}, {"time": 1798, "pitch": 56, "duration": 3, "velocity": 86}, {"time": 1801, "pitch": 55, "duration": 3, "velocity": 68}, {"time": 1804, "pitch": 56, "duration": 5, "velocity": 92}, {"time": 1810, "pitch": 63, "duration": 2, "velocity": 95}, {"time": 1813, "pitch": 63, "duration": 12, "velocity": 99}, {"time": 1837, "pitch": 58, "duration": 1, "velocity": 90}, {"time": 1840, "pitch": 58, "duration": 3, "velocity": 93}, {"time": 1846, "pitch": 56, "duration": 3, "velocity": 97}, {"time": 1849, "pitch": 55, "duration": 3, "velocity": 73}, {"time": 1852, "pitch": 56, "duration": 4, "velocity": 99}, {"time": 1858, "pitch": 65, "duration": 1, "velocity": 100}, {"time": 1861, "pitch": 65, "duration": 12, "velocity": 112}, {"time": 1885, "pitch": 63, "duration": 1, "velocity": 97}, {"time": 1888, "pitch": 63, "duration": 3, "velocity": 93}, {"time": 1894, "pitch": 62, "duration": 3, "velocity": 67}, {"time": 1897, "pitch": 63, "duration": 35, "velocity": 64}, {"time": 1942, "pitch": 63, "duration": 3, "velocity": 117}, {"time": 1945, "pitch": 62, "duration": 1, "velocity": 92}, {"time": 1948, "pitch": 63, "duration": 7, "velocity": 117}, {"time": 1966, "pitch": 63, "duration": 2, "velocity": 122}, {"time": 1969, "pitch": 62, "duration": 2, "velocity": 89}, {"time": 1972, "pitch": 65, "duration": 9, "velocity": 122}, {"time": 1987, "pitch": 63, "duration": 1, "velocity": 117}, {"time": 1990, "pitch": 63, "duration": 1, "velocity": 117}, {"time": 1993, "pitch": 65, "duration": 2, "velocity": 93}, {"time": 1996, "pitch": 67, "duration": 4, "velocity": 102}, {"time": 2002, "pitch": 65, "duration": 1, "velocity": 92}, {"time": 2005, "pitch": 63, "duration": 4, "velocity": 95}, {"time": 2014, "pitch": 58, "duration": 3, "velocity": 107}, {"time": 2017, "pitch": 60, "duration": 14, "velocity": 89}, {"time": 2035, "pitch": 58, "duration": 2, "velocity": 93}, {"time": 2038, "pitch": 56, "duration": 3, "velocity": 92}, {"time": 2041, "pitch": 55, "duration": 2, "velocity": 85}, {"time": 2044, "pitch": 56, "duration": 5, "velocity": 97}, {"time": 2050, "pitch": 63, "duration": 1, "velocity": 102}, {"time": 2053, "pitch": 63, "duration": 9, "velocity": 112}, {"time": 2062, "pitch": 56, "duration": 2, "velocity": 102}, {"time": 2065, "pitch": 55, "duration": 2, "velocity": 78}, {"time": 2068, "pitch": 56, "duration": 2, "velocity": 112}, {"time": 2074, "pitch": 63, "duration": 2, "velocity": 117}, {"time": 2077, "pitch": 67, "duration": 6, "velocity": 97}, {"time": 2086, "pitch": 63, "duration": 2, "velocity": 107}, {"time": 2089, "pitch": 65, "duration": 1, "velocity": 95}, {"time": 2092, "pitch": 65, "duration": 24, "velocity": 96}, {"time": 2146, "pitch": 67, "duration": 2, "velocity": 96}, {"time": 2149, "pitch": 67, "duration": 5, "velocity": 102}, {"time": 2158, "pitch": 65, "duration": 2, "velocity": 95}, {"time": 2161, "pitch": 63, "duration": 3, "velocity": 95}, {"time": 2164, "pitch": 65, "duration": 5, "velocity": 96}, {"time": 2170, "pitch": 60, "duration": 3, "velocity": 81}, {"time": 2173, "pitch": 63, "duration": 19, "velocity": 93}, {"time": 2194, "pitch": 67, "duration": 2, "velocity": 85}, {"time": 2197, "pitch": 67, "duration": 6, "velocity": 97}, {"time": 2206, "pitch": 65, "duration": 3, "velocity": 99}, {"time": 2209, "pitch": 63, "duration": 2, "velocity": 97}, {"time": 2212, "pitch": 65, "duration": 4, "velocity": 95}, {"time": 2215, "pitch": 63, "duration": 2, "velocity": 96}, {"time": 2224, "pitch": 58, "duration": 15, "velocity": 97}, {"time": 2239, "pitch": 55, "duration": 3, "velocity": 71}, {"time": 2242, "pitch": 67, "duration": 1, "velocity": 89}, {"time": 2245, "pitch": 67, "duration": 6, "velocity": 92}, {"time": 2254, "pitch": 65, "duration": 2, "velocity": 95}, {"time": 2257, "pitch": 63, "duration": 2, "velocity": 90}, {"time": 2260, "pitch": 65, "duration": 5, "velocity": 99}, {"time": 2266, "pitch": 60, "duration": 3, "velocity": 79}, {"time": 2269, "pitch": 63, "duration": 7, "velocity": 100}, {"time": 2281, "pitch": 63, "duration": 1, "velocity": 93}, {"time": 2284, "pitch": 63, "duration": 5, "velocity": 95}, {"time": 2290, "pitch": 62, "duration": 2, "velocity": 75}, {"time": 2293, "pitch": 62, "duration": 7, "velocity": 90}, {"time": 2302, "pitch": 60, "duration": 1, "velocity": 92}, {"time": 2305, "pitch": 60, "duration": 7, "velocity": 90}, {"time": 2314, "pitch": 58, "duration": 2, "velocity": 88}, {"time": 2317, "pitch": 58, "duration": 18, "velocity": 97}, {"time": 2338, "pitch": 67, "duration": 1, "velocity": 82}, {"time": 2341, "pitch": 67, "duration": 6, "velocity": 99}, {"time": 2350, "pitch": 65, "duration": 2, "velocity": 96}, {"time": 2353, "pitch": 63, "duration": 2, "velocity": 90}, {"time": 2356, "pitch": 65, "duration": 4, "velocity": 95}, {"time": 2362, "pitch": 60, "duration": 2, "velocity": 75}, {"time": 2365, "pitch": 63, "duration": 16, "velocity": 95}, {"time": 2386, "pitch": 62, "duration": 2, "velocity": 88}, {"time": 2389, "pitch": 62, "duration": 4, "velocity": 86}, {"time": 2395, "pitch": 63, "duration": 3, "velocity": 93}, {"time": 2401, "pitch": 65, "duration": 1, "velocity": 90}, {"time": 2404, "pitch": 58, "duration": 5, "velocity": 81}, {"time": 2410, "pitch": 55, "duration": 2, "velocity": 85}, {"time": 2413, "pitch": 58, "duration": 4, "velocity": 90}, {"time": 2419, "pitch": 70, "duration": 9, "velocity": 95}, {"time": 2428, "pitch": 63, "duration": 10, "velocity": 92}, {"time": 2437, "pitch": 58, "duration": 1, "velocity": 85}, {"time": 2440, "pitch": 58, "duration": 4, "velocity": 96}, {"time": 2446, "pitch": 56, "duration": 3, "velocity": 86}, {"time": 2449, "pitch": 55, "duration": 3, "velocity": 68}, {"time": 2452, "pitch": 56, "duration": 5, "velocity": 92}, {"time": 2458, "pitch": 63, "duration": 2, "velocity": 95}, {"time": 2461, "pitch": 63, "duration": 12, "velocity": 99}, {"time": 2485, "pitch": 58, "duration": 1, "velocity": 90}, {"time": 2488, "pitch": 58, "duration": 3, "velocity": 93}, {"time": 2494, "pitch": 56, "duration": 3, "velocity": 97}, {"time": 2497, "pitch": 55, "duration": 3, "velocity": 73}, {"time": 2500, "pitch": 56, "duration": 4, "velocity": 99}, {"time": 2506, "pitch": 65, "duration": 1, "velocity": 100}, {"time": 2509, "pitch": 65, "duration": 12, "velocity": 112}, {"time": 2536, "pitch": 63, "duration": 6, "velocity": 99}, {"time": 2542, "pitch": 62, "duration": 5, "velocity": 82}, {"time": 2548, "pitch": 63, "duration": 32, "velocity": 93}, {"time": 2581, "pitch": 58, "duration": 2, "velocity": 86}, {"time": 2585, "pitch": 58, "duration": 3, "velocity": 97}, {"time": 2590, "pitch": 56, "duration": 2, "velocity": 92}, {"time": 2593, "pitch": 55, "duration": 4, "velocity": 68}, {"time": 2597, "pitch": 56, "duration": 5, "velocity": 78}, {"time": 2605, "pitch": 63, "duration": 2, "velocity": 55}, {"time": 2610, "pitch": 63, "duration": 12, "velocity": 89}, {"time": 2629, "pitch": 58, "duration": 1, "velocity": 90}, {"time": 2632, "pitch": 58, "duration": 3, "velocity": 90}, {"time": 2638, "pitch": 56, "duration": 3, "velocity": 89}, {"time": 2641, "pitch": 55, "duration": 4, "velocity": 60}, {"time": 2644, "pitch": 56, "duration": 6, "velocity": 78}, {"time": 2650, "pitch": 65, "duration": 2, "velocity": 79}, {"time": 2653, "pitch": 65, "duration": 19, "velocity": 78}, {"time": 2686, "pitch": 63, "duration": 2, "velocity": 86}, {"time": 2689, "pitch": 63, "duration": 11, "velocity": 86}, {"time": 2707, "pitch": 62, "duration": 7, "velocity": 74}, {"time": 2713, "pitch": 65, "duration": 7, "velocity": 72}, {"time": 2719, "pitch": 63, "duration": 51, "velocity": 63}]}, {"program": 0, "is_drum": false, "name": "PIANO", "notes": [{"time": 4, "pitch": 36, "duration": 16, "velocity": 58}, {"time": 7, "pitch": 43, "duration": 10, "velocity": 33}, {"time": 10, "pitch": 60, "duration": 3, "velocity": 53}, {"time": 10, "pitch": 63, "duration": 4, "velocity": 53}, {"time": 13, "pitch": 48, "duration": 2, "velocity": 38}, {"time": 16, "pitch": 60, "duration": 4, "velocity": 53}, {"time": 16, "pitch": 63, "duration": 4, "velocity": 53}, {"time": 19, "pitch": 48, "duration": 3, "velocity": 46}, {"time": 22, "pitch": 60, "duration": 4, "velocity": 53}, {"time": 22, "pitch": 63, "duration": 4, "velocity": 53}, {"time": 28, "pitch": 43, "duration": 13, "velocity": 58}, {"time": 31, "pitch": 50, "duration": 3, "velocity": 63}, {"time": 34, "pitch": 58, "duration": 3, "velocity": 58}, {"time": 34, "pitch": 62, "duration": 2, "velocity": 56}, {"time": 37, "pitch": 50, "duration": 3, "velocity": 52}, {"time": 40, "pitch": 58, "duration": 11, "velocity": 58}, {"time": 40, "pitch": 62, "duration": 11, "velocity": 56}, {"time": 52, "pitch": 44, "duration": 12, "velocity": 52}, {"time": 55, "pitch": 51, "duration": 3, "velocity": 58}, {"time": 58, "pitch": 56, "duration": 2, "velocity": 53}, {"time": 61, "pitch": 51, "duration": 2, "velocity": 45}, {"time": 64, "pitch": 46, "duration": 6, "velocity": 51}, {"time": 67, "pitch": 53, "duration": 3, "velocity": 53}, {"time": 70, "pitch": 58, "duration": 1, "velocity": 42}, {"time": 73, "pitch": 58, "duration": 1, "velocity": 42}, {"time": 76, "pitch": 39, "duration": 11, "velocity": 60}, {"time": 76, "pitch": 51, "duration": 3, "velocity": 56}, {"time": 79, "pitch": 58, "duration": 3, "velocity": 56}, {"time": 82, "pitch": 63, "duration": 3, "velocity": 56}, {"time": 85, "pitch": 67, "duration": 3, "velocity": 55}, {"time": 87, "pitch": 38, "duration": 12, "velocity": 55}, {"time": 88, "pitch": 65, "duration": 3, "velocity": 55}, {"time": 91, "pitch": 53, "duration": 3, "velocity": 56}, {"time": 94, "pitch": 58, "duration": 3, "velocity": 60}, {"time": 97, "pitch": 62, "duration": 3, "velocity": 63}, {"time": 99, "pitch": 36, "duration": 16, "velocity": 63}, {"time": 100, "pitch": 63, "duration": 3, "velocity": 63}, {"time": 100, "pitch": 48, "duration": 8, "velocity": 45}, {"time": 103, "pitch": 55, "duration": 3, "velocity": 65}, {"time": 109, "pitch": 58, "duration": 3, "velocity": 65}, {"time": 112, "pitch": 60, "duration": 14, "velocity": 66}, {"time": 112, "pitch": 63, "duration": 14, "velocity": 56}, {"time": 118, "pitch": 55, "duration": 6, "velocity": 42}, {"time": 123, "pitch": 43, "duration": 19, "velocity": 58}, {"time": 127, "pitch": 50, "duration": 12, "velocity": 60}, {"time": 133, "pitch": 58, "duration": 3, "velocity": 61}, {"time": 135, "pitch": 62, "duration": 13, "velocity": 77}, {"time": 147, "pitch": 44, "duration": 38, "velocity": 68}, {"time": 154, "pitch": 51, "duration": 30, "velocity": 43}, {"time": 157, "pitch": 56, "duration": 35, "velocity": 47}, {"time": 160, "pitch": 58, "duration": 29, "velocity": 50}, {"time": 163, "pitch": 60, "duration": 23, "velocity": 61}, {"time": 166, "pitch": 63, "duration": 10, "velocity": 65}, {"time": 169, "pitch": 68, "duration": 3, "velocity": 71}, {"time": 172, "pitch": 70, "duration": 13, "velocity": 73}, {"time": 195, "pitch": 36, "duration": 18, "velocity": 78}, {"time": 202, "pitch": 43, "duration": 11, "velocity": 38}, {"time": 207, "pitch": 63, "duration": 13, "velocity": 67}, {"time": 207, "pitch": 48, "duration": 7, "velocity": 57}, {"time": 213, "pitch": 60, "duration": 8, "velocity": 62}, {"time": 219, "pitch": 43, "duration": 15, "velocity": 63}, {"time": 225, "pitch": 50, "duration": 9, "velocity": 59}, {"time": 231, "pitch": 62, "duration": 13, "velocity": 69}, {"time": 238, "pitch": 58, "duration": 6, "velocity": 55}, {"time": 244, "pitch": 44, "duration": 11, "velocity": 60}, {"time": 250, "pitch": 63, "duration": 5, "velocity": 58}, {"time": 256, "pitch": 46, "duration": 6, "velocity": 53}, {"time": 261, "pitch": 58, "duration": 7, "velocity": 69}, {"time": 268, "pitch": 39, "duration": 11, "velocity": 39}, {"time": 273, "pitch": 51, "duration": 5, "velocity": 38}, {"time": 277, "pitch": 63, "duration": 5, "velocity": 55}, {"time": 280, "pitch": 38, "duration": 11, "velocity": 55}, {"time": 286, "pitch": 62, "duration": 4, "velocity": 59}, {"time": 289, "pitch": 63, "duration": 3, "velocity": 52}, {"time": 291, "pitch": 36, "duration": 17, "velocity": 60}, {"time": 297, "pitch": 43, "duration": 13, "velocity": 39}, {"time": 303, "pitch": 63, "duration": 15, "velocity": 66}, {"time": 310, "pitch": 60, "duration": 8, "velocity": 48}, {"time": 316, "pitch": 43, "duration": 13, "velocity": 49}, {"time": 322, "pitch": 50, "duration": 7, "velocity": 55}, {"time": 328, "pitch": 58, "duration": 12, "velocity": 57}, {"time": 328, "pitch": 62, "duration": 12, "velocity": 52}, {"time": 340, "pitch": 44, "duration": 1, "velocity": 62}, {"time": 340, "pitch": 44, "duration": 22, "velocity": 70}, {"time": 346, "pitch": 51, "duration": 15, "velocity": 40}, {"time": 352, "pitch": 63, "duration": 15, "velocity": 72}, {"time": 358, "pitch": 56, "duration": 7, "velocity": 53}, {"time": 364, "pitch": 44, "duration": 12, "velocity": 75}, {"time": 367, "pitch": 56, "duration": 4, "velocity": 58}, {"time": 370, "pitch": 63, "duration": 5, "velocity": 73}, {"time": 373, "pitch": 56, "duration": 2, "velocity": 70}, {"time": 376, "pitch": 46, "duration": 8, "velocity": 92}, {"time": 382, "pitch": 58, "duration": 7, "velocity": 65}, {"time": 388, "pitch": 36, "duration": 14, "velocity": 58}, {"time": 394, "pitch": 43, "duration": 9, "velocity": 39}, {"time": 400, "pitch": 63, "duration": 12, "velocity": 79}, {"time": 406, "pitch": 60, "duration": 7, "velocity": 59}, {"time": 412, "pitch": 43, "duration": 15, "velocity": 63}, {"time": 418, "pitch": 50, "duration": 9, "velocity": 49}, {"time": 424, "pitch": 58, "duration": 10, "velocity": 57}, {"time": 424, "pitch": 62, "duration": 10, "velocity": 59}, {"time": 436, "pitch": 44, "duration": 13, "velocity": 57}, {"time": 442, "pitch": 63, "duration": 6, "velocity": 45}, {"time": 448, "pitch": 46, "duration": 8, "velocity": 52}, {"time": 454, "pitch": 58, "duration": 6, "velocity": 58}, {"time": 460, "pitch": 51, "duration": 11, "velocity": 56}, {"time": 466, "pitch": 63, "duration": 6, "velocity": 59}, {"time": 466, "pitch": 67, "duration": 6, "velocity": 58}, {"time": 472, "pitch": 50, "duration": 11, "velocity": 62}, {"time": 478, "pitch": 62, "duration": 5, "velocity": 55}, {"time": 481, "pitch": 63, "duration": 3, "velocity": 48}, {"time": 484, "pitch": 48, "duration": 17, "velocity": 59}, {"time": 490, "pitch": 55, "duration": 18, "velocity": 55}, {"time": 496, "pitch": 63, "duration": 11, "velocity": 75}, {"time": 502, "pitch": 60, "duration": 6, "velocity": 63}, {"time": 508, "pitch": 43, "duration": 19, "velocity": 66}, {"time": 514, "pitch": 50, "duration": 11, "velocity": 57}, {"time": 520, "pitch": 58, "duration": 10, "velocity": 76}, {"time": 520, "pitch": 62, "duration": 10, "velocity": 68}, {"time": 526, "pitch": 55, "duration": 5, "velocity": 58}, {"time": 532, "pitch": 44, "duration": 23, "velocity": 70}, {"time": 538, "pitch": 56, "duration": 7, "velocity": 42}, {"time": 544, "pitch": 60, "duration": 10, "velocity": 67}, {"time": 544, "pitch": 63, "duration": 12, "velocity": 72}, {"time": 550, "pitch": 56, "duration": 2, "velocity": 44}, {"time": 556, "pitch": 47, "duration": 12, "velocity": 69}, {"time": 556, "pitch": 59, "duration": 12, "velocity": 102}, {"time": 568, "pitch": 44, "duration": 11, "velocity": 68}, {"time": 568, "pitch": 56, "duration": 11, "velocity": 82}, {"time": 580, "pitch": 46, "duration": 17, "velocity": 83}, {"time": 580, "pitch": 53, "duration": 11, "velocity": 69}, {"time": 580, "pitch": 58, "duration": 12, "velocity": 74}, {"time": 580, "pitch": 62, "duration": 11, "velocity": 77}, {"time": 592, "pitch": 53, "duration": 7, "velocity": 48}, {"time": 592, "pitch": 58, "duration": 7, "velocity": 70}, {"time": 592, "pitch": 62, "duration": 7, "velocity": 72}, {"time": 598, "pitch": 46, "duration": 5, "velocity": 63}, {"time": 601, "pitch": 53, "duration": 40, "velocity": 38}, {"time": 604, "pitch": 46, "duration": 36, "velocity": 63}, {"time": 604, "pitch": 58, "duration": 37, "velocity": 66}, {"time": 604, "pitch": 62, "duration": 37, "velocity": 62}, {"time": 652, "pitch": 44, "duration": 21, "velocity": 74}, {"time": 655, "pitch": 51, "duration": 4, "velocity": 73}, {"time": 658, "pitch": 68, "duration": 11, "velocity": 73}, {"time": 658, "pitch": 56, "duration": 8, "velocity": 72}, {"time": 661, "pitch": 72, "duration": 9, "velocity": 72}, {"time": 661, "pitch": 51, "duration": 4, "velocity": 72}, {"time": 664, "pitch": 77, "duration": 17, "velocity": 72}, {"time": 667, "pitch": 51, "duration": 8, "velocity": 74}, {"time": 670, "pitch": 56, "duration": 9, "velocity": 76}, {"time": 673, "pitch": 60, "duration": 6, "velocity": 80}, {"time": 676, "pitch": 75, "duration": 9, "velocity": 83}, {"time": 679, "pitch": 51, "duration": 11, "velocity": 85}, {"time": 682, "pitch": 56, "duration": 7, "velocity": 85}, {"time": 685, "pitch": 60, "duration": 5, "velocity": 86}, {"time": 688, "pitch": 62, "duration": 12, "velocity": 66}, {"time": 691, "pitch": 51, "duration": 4, "velocity": 56}, {"time": 694, "pitch": 56, "duration": 6, "velocity": 61}, {"time": 697, "pitch": 60, "duration": 3, "velocity": 64}, {"time": 700, "pitch": 43, "duration": 17, "velocity": 69}, {"time": 703, "pitch": 50, "duration": 9, "velocity": 63}, {"time": 706, "pitch": 55, "duration": 6, "velocity": 59}, {"time": 709, "pitch": 58, "duration": 4, "velocity": 73}, {"time": 712, "pitch": 62, "duration": 10, "velocity": 93}, {"time": 715, "pitch": 50, "duration": 2, "velocity": 58}, {"time": 718, "pitch": 58, "duration": 5, "velocity": 92}, {"time": 721, "pitch": 55, "duration": 5, "velocity": 72}, {"time": 724, "pitch": 36, "duration": 17, "velocity": 69}, {"time": 727, "pitch": 43, "duration": 14, "velocity": 59}, {"time": 730, "pitch": 48, "duration": 7, "velocity": 86}, {"time": 733, "pitch": 55, "duration": 5, "velocity": 76}, {"time": 736, "pitch": 63, "duration": 10, "velocity": 122}, {"time": 739, "pitch": 48, "duration": 4, "velocity": 63}, {"time": 742, "pitch": 60, "duration": 4, "velocity": 88}, {"time": 745, "pitch": 55, "duration": 3, "velocity": 86}, {"time": 748, "pitch": 41, "duration": 18, "velocity": 67}, {"time": 751, "pitch": 48, "duration": 9, "velocity": 46}, {"time": 754, "pitch": 53, "duration": 3, "velocity": 66}, {"time": 757, "pitch": 56, "duration": 2, "velocity": 83}, {"time": 760, "pitch": 60, "duration": 11, "velocity": 78}, {"time": 763, "pitch": 48, "duration": 4, "velocity": 83}, {"time": 766, "pitch": 56, "duration": 4, "velocity": 102}, {"time": 769, "pitch": 53, "duration": 3, "velocity": 78}, {"time": 772, "pitch": 46, "duration": 11, "velocity": 96}, {"time": 775, "pitch": 53, "duration": 4, "velocity": 57}, {"time": 778, "pitch": 58, "duration": 4, "velocity": 76}, {"time": 781, "pitch": 53, "duration": 5, "velocity": 72}, {"time": 784, "pitch": 62, "duration": 10, "velocity": 96}, {"time": 787, "pitch": 58, "duration": 3, "velocity": 83}, {"time": 790, "pitch": 53, "duration": 4, "velocity": 83}, {"time": 793, "pitch": 58, "duration": 2, "velocity": 69}, {"time": 796, "pitch": 39, "duration": 22, "velocity": 70}, {"time": 799, "pitch": 46, "duration": 20, "velocity": 30}, {"time": 802, "pitch": 51, "duration": 6, "velocity": 63}, {"time": 805, "pitch": 55, "duration": 6, "velocity": 77}, {"time": 808, "pitch": 63, "duration": 9, "velocity": 102}, {"time": 811, "pitch": 51, "duration": 10, "velocity": 95}, {"time": 814, "pitch": 58, "duration": 4, "velocity": 100}, {"time": 817, "pitch": 55, "duration": 7, "velocity": 79}, {"time": 820, "pitch": 39, "duration": 16, "velocity": 93}, {"time": 820, "pitch": 61, "duration": 9, "velocity": 107}, {"time": 823, "pitch": 46, "duration": 12, "velocity": 58}, {"time": 826, "pitch": 51, "duration": 7, "velocity": 99}, {"time": 829, "pitch": 55, "duration": 6, "velocity": 72}, {"time": 832, "pitch": 61, "duration": 8, "velocity": 97}, {"time": 835, "pitch": 51, "duration": 3, "velocity": 90}, {"time": 838, "pitch": 58, "duration": 5, "velocity": 102}, {"time": 841, "pitch": 55, "duration": 3, "velocity": 93}, {"time": 844, "pitch": 44, "duration": 22, "velocity": 67}, {"time": 847, "pitch": 51, "duration": 20, "velocity": 64}, {"time": 850, "pitch": 56, "duration": 6, "velocity": 85}, {"time": 853, "pitch": 60, "duration": 5, "velocity": 82}, {"time": 856, "pitch": 63, "duration": 5, "velocity": 102}, {"time": 859, "pitch": 56, "duration": 9, "velocity": 92}, {"time": 862, "pitch": 60, "duration": 6, "velocity": 77}, {"time": 865, "pitch": 63, "duration": 3, "velocity": 102}, {"time": 868, "pitch": 44, "duration": 19, "velocity": 83}, {"time": 868, "pitch": 62, "duration": 9, "velocity": 93}, {"time": 871, "pitch": 51, "duration": 15, "velocity": 70}, {"time": 874, "pitch": 56, "duration": 7, "velocity": 72}, {"time": 880, "pitch": 62, "duration": 6, "velocity": 76}, {"time": 883, "pitch": 56, "duration": 3, "velocity": 83}, {"time": 886, "pitch": 58, "duration": 4, "velocity": 92}, {"time": 889, "pitch": 62, "duration": 3, "velocity": 73}, {"time": 892, "pitch": 43, "duration": 15, "velocity": 67}, {"time": 895, "pitch": 50, "duration": 11, "velocity": 67}, {"time": 898, "pitch": 55, "duration": 12, "velocity": 64}, {"time": 901, "pitch": 58, "duration": 3, "velocity": 68}, {"time": 904, "pitch": 62, "duration": 1, "velocity": 72}, {"time": 907, "pitch": 47, "duration": 4, "velocity": 59}, {"time": 907, "pitch": 59, "duration": 3, "velocity": 82}, {"time": 907, "pitch": 62, "duration": 3, "velocity": 90}, {"time": 916, "pitch": 48, "duration": 15, "velocity": 64}, {"time": 916, "pitch": 55, "duration": 8, "velocity": 73}, {"time": 916, "pitch": 60, "duration": 9, "velocity": 72}, {"time": 916, "pitch": 63, "duration": 9, "velocity": 75}, {"time": 925, "pitch": 55, "duration": 4, "velocity": 74}, {"time": 928, "pitch": 63, "duration": 11, "velocity": 95}, {"time": 931, "pitch": 60, "duration": 4, "velocity": 68}, {"time": 934, "pitch": 55, "duration": 5, "velocity": 85}, {"time": 937, "pitch": 60, "duration": 3, "velocity": 69}, {"time": 940, "pitch": 41, "duration": 20, "velocity": 67}, {"time": 943, "pitch": 48, "duration": 9, "velocity": 53}, {"time": 946, "pitch": 53, "duration": 4, "velocity": 72}, {"time": 949, "pitch": 56, "duration": 2, "velocity": 76}, {"time": 952, "pitch": 60, "duration": 11, "velocity": 89}, {"time": 955, "pitch": 48, "duration": 8, "velocity": 67}, {"time": 958, "pitch": 56, "duration": 4, "velocity": 82}, {"time": 961, "pitch": 53, "duration": 2, "velocity": 55}, {"time": 964, "pitch": 43, "duration": 16, "velocity": 82}, {"time": 967, "pitch": 50, "duration": 9, "velocity": 54}, {"time": 970, "pitch": 55, "duration": 7, "velocity": 59}, {"time": 973, "pitch": 58, "duration": 3, "velocity": 59}, {"time": 976, "pitch": 62, "duration": 11, "velocity": 92}, {"time": 979, "pitch": 50, "duration": 2, "velocity": 65}, {"time": 982, "pitch": 58, "duration": 5, "velocity": 73}, {"time": 985, "pitch": 55, "duration": 3, "velocity": 82}, {"time": 988, "pitch": 44, "duration": 20, "velocity": 74}, {"time": 991, "pitch": 51, "duration": 10, "velocity": 36}, {"time": 994, "pitch": 56, "duration": 6, "velocity": 59}, {"time": 997, "pitch": 60, "duration": 3, "velocity": 72}, {"time": 1000, "pitch": 63, "duration": 11, "velocity": 93}, {"time": 1003, "pitch": 51, "duration": 4, "velocity": 54}, {"time": 1006, "pitch": 56, "duration": 4, "velocity": 76}, {"time": 1009, "pitch": 60, "duration": 2, "velocity": 63}, {"time": 1012, "pitch": 46, "duration": 16, "velocity": 63}, {"time": 1015, "pitch": 53, "duration": 4, "velocity": 50}, {"time": 1018, "pitch": 58, "duration": 4, "velocity": 62}, {"time": 1021, "pitch": 53, "duration": 4, "velocity": 73}, {"time": 1024, "pitch": 62, "duration": 12, "velocity": 89}, {"time": 1030, "pitch": 58, "duration": 6, "velocity": 81}, {"time": 1036, "pitch": 39, "duration": 20, "velocity": 85}, {"time": 1039, "pitch": 46, "duration": 20, "velocity": 35}, {"time": 1042, "pitch": 51, "duration": 6, "velocity": 77}, {"time": 1045, "pitch": 55, "duration": 8, "velocity": 63}, {"time": 1048, "pitch": 63, "duration": 34, "velocity": 88}, {"time": 1051, "pitch": 51, "duration": 21, "velocity": 72}, {"time": 1054, "pitch": 58, "duration": 28, "velocity": 52}, {"time": 1057, "pitch": 55, "duration": 26, "velocity": 56}, {"time": 1060, "pitch": 39, "duration": 14, "velocity": 70}, {"time": 1084, "pitch": 36, "duration": 15, "velocity": 90}, {"time": 1090, "pitch": 43, "duration": 9, "velocity": 54}, {"time": 1096, "pitch": 48, "duration": 5, "velocity": 67}, {"time": 1096, "pitch": 60, "duration": 12, "velocity": 78}, {"time": 1096, "pitch": 63, "duration": 12, "velocity": 90}, {"time": 1102, "pitch": 55, "duration": 6, "velocity": 74}, {"time": 1108, "pitch": 43, "duration": 17, "velocity": 74}, {"time": 1114, "pitch": 50, "duration": 8, "velocity": 68}, {"time": 1120, "pitch": 62, "duration": 12, "velocity": 86}, {"time": 1123, "pitch": 50, "duration": 2, "velocity": 69}, {"time": 1126, "pitch": 58, "duration": 6, "velocity": 76}, {"time": 1129, "pitch": 55, "duration": 3, "velocity": 70}, {"time": 1132, "pitch": 44, "duration": 10, "velocity": 75}, {"time": 1138, "pitch": 63, "duration": 5, "velocity": 81}, {"time": 1144, "pitch": 46, "duration": 6, "velocity": 88}, {"time": 1150, "pitch": 58, "duration": 7, "velocity": 86}, {"time": 1153, "pitch": 62, "duration": 3, "velocity": 58}, {"time": 1156, "pitch": 39, "duration": 10, "velocity": 72}, {"time": 1162, "pitch": 58, "duration": 4, "velocity": 79}, {"time": 1165, "pitch": 63, "duration": 3, "velocity": 75}, {"time": 1168, "pitch": 38, "duration": 11, "velocity": 73}, {"time": 1174, "pitch": 62, "duration": 6, "velocity": 69}, {"time": 1180, "pitch": 36, "duration": 15, "velocity": 73}, {"time": 1186, "pitch": 43, "duration": 8, "velocity": 53}, {"time": 1192, "pitch": 48, "duration": 5, "velocity": 48}, {"time": 1192, "pitch": 63, "duration": 8, "velocity": 96}, {"time": 1198, "pitch": 60, "duration": 6, "velocity": 78}, {"time": 1204, "pitch": 43, "duration": 18, "velocity": 67}, {"time": 1210, "pitch": 50, "duration": 8, "velocity": 59}, {"time": 1216, "pitch": 62, "duration": 13, "velocity": 102}, {"time": 1219, "pitch": 50, "duration": 2, "velocity": 52}, {"time": 1222, "pitch": 58, "duration": 6, "velocity": 63}, {"time": 1225, "pitch": 55, "duration": 3, "velocity": 78}, {"time": 1228, "pitch": 44, "duration": 23, "velocity": 83}, {"time": 1234, "pitch": 51, "duration": 8, "velocity": 88}, {"time": 1240, "pitch": 60, "duration": 7, "velocity": 92}, {"time": 1240, "pitch": 63, "duration": 10, "velocity": 95}, {"time": 1246, "pitch": 51, "duration": 8, "velocity": 41}, {"time": 1249, "pitch": 56, "duration": 7, "velocity": 37}, {"time": 1252, "pitch": 60, "duration": 6, "velocity": 82}, {"time": 1252, "pitch": 63, "duration": 10, "velocity": 93}, {"time": 1252, "pitch": 44, "duration": 12, "velocity": 97}, {"time": 1258, "pitch": 51, "duration": 5, "velocity": 82}, {"time": 1261, "pitch": 56, "duration": 3, "velocity": 93}, {"time": 1264, "pitch": 34, "duration": 12, "velocity": 97}, {"time": 1264, "pitch": 63, "duration": 13, "velocity": 97}, {"time": 1264, "pitch": 58, "duration": 12, "velocity": 102}, {"time": 1264, "pitch": 46, "duration": 12, "velocity": 97}, {"time": 1264, "pitch": 53, "duration": 11, "velocity": 97}, {"time": 1276, "pitch": 36, "duration": 14, "velocity": 70}, {"time": 1276, "pitch": 48, "duration": 5, "velocity": 97}, {"time": 1282, "pitch": 55, "duration": 8, "velocity": 39}, {"time": 1288, "pitch": 48, "duration": 5, "velocity": 72}, {"time": 1288, "pitch": 60, "duration": 13, "velocity": 83}, {"time": 1288, "pitch": 63, "duration": 13, "velocity": 96}, {"time": 1294, "pitch": 55, "duration": 7, "velocity": 66}, {"time": 1300, "pitch": 43, "duration": 18, "velocity": 71}, {"time": 1306, "pitch": 50, "duration": 7, "velocity": 67}, {"time": 1312, "pitch": 62, "duration": 11, "velocity": 100}, {"time": 1315, "pitch": 50, "duration": 2, "velocity": 58}, {"time": 1318, "pitch": 58, "duration": 5, "velocity": 88}, {"time": 1321, "pitch": 55, "duration": 3, "velocity": 82}, {"time": 1324, "pitch": 44, "duration": 11, "velocity": 96}, {"time": 1330, "pitch": 63, "duration": 5, "velocity": 93}, {"time": 1336, "pitch": 46, "duration": 6, "velocity": 95}, {"time": 1342, "pitch": 58, "duration": 6, "velocity": 90}, {"time": 1348, "pitch": 39, "duration": 10, "velocity": 100}, {"time": 1354, "pitch": 63, "duration": 6, "velocity": 90}, {"time": 1360, "pitch": 38, "duration": 11, "velocity": 73}, {"time": 1366, "pitch": 62, "duration": 6, "velocity": 77}, {"time": 1372, "pitch": 36, "duration": 16, "velocity": 72}, {"time": 1378, "pitch": 43, "duration": 10, "velocity": 61}, {"time": 1384, "pitch": 48, "duration": 5, "velocity": 58}, {"time": 1384, "pitch": 60, "duration": 12, "velocity": 62}, {"time": 1384, "pitch": 63, "duration": 11, "velocity": 69}, {"time": 1390, "pitch": 55, "duration": 6, "velocity": 64}, {"time": 1396, "pitch": 43, "duration": 19, "velocity": 69}, {"time": 1402, "pitch": 50, "duration": 7, "velocity": 81}, {"time": 1408, "pitch": 62, "duration": 8, "velocity": 96}, {"time": 1411, "pitch": 50, "duration": 2, "velocity": 72}, {"time": 1414, "pitch": 55, "duration": 2, "velocity": 85}, {"time": 1420, "pitch": 44, "duration": 14, "velocity": 97}, {"time": 1420, "pitch": 56, "duration": 4, "velocity": 90}, {"time": 1420, "pitch": 60, "duration": 10, "velocity": 99}, {"time": 1420, "pitch": 63, "duration": 10, "velocity": 107}, {"time": 1426, "pitch": 56, "duration": 4, "velocity": 49}, {"time": 1432, "pitch": 56, "duration": 4, "velocity": 90}, {"time": 1432, "pitch": 60, "duration": 7, "velocity": 93}, {"time": 1432, "pitch": 63, "duration": 10, "velocity": 97}, {"time": 1435, "pitch": 44, "duration": 8, "velocity": 81}, {"time": 1438, "pitch": 56, "duration": 3, "velocity": 76}, {"time": 1444, "pitch": 47, "duration": 10, "velocity": 102}, {"time": 1444, "pitch": 59, "duration": 9, "velocity": 93}, {"time": 1444, "pitch": 62, "duration": 7, "velocity": 96}, {"time": 1456, "pitch": 44, "duration": 10, "velocity": 95}, {"time": 1456, "pitch": 56, "duration": 8, "velocity": 97}, {"time": 1456, "pitch": 60, "duration": 7, "velocity": 112}, {"time": 1456, "pitch": 63, "duration": 8, "velocity": 99}, {"time": 1468, "pitch": 46, "duration": 13, "velocity": 100}, {"time": 1468, "pitch": 53, "duration": 4, "velocity": 75}, {"time": 1468, "pitch": 58, "duration": 8, "velocity": 100}, {"time": 1468, "pitch": 62, "duration": 10, "velocity": 95}, {"time": 1474, "pitch": 53, "duration": 5, "velocity": 76}, {"time": 1477, "pitch": 58, "duration": 1, "velocity": 45}, {"time": 1480, "pitch": 53, "duration": 3, "velocity": 69}, {"time": 1480, "pitch": 58, "duration": 6, "velocity": 122}, {"time": 1480, "pitch": 62, "duration": 7, "velocity": 107}, {"time": 1483, "pitch": 46, "duration": 3, "velocity": 112}, {"time": 1486, "pitch": 53, "duration": 4, "velocity": 93}, {"time": 1489, "pitch": 58, "duration": 2, "velocity": 92}, {"time": 1492, "pitch": 46, "duration": 4, "velocity": 127}, {"time": 1492, "pitch": 53, "duration": 3, "velocity": 99}, {"time": 1492, "pitch": 58, "duration": 3, "velocity": 127}, {"time": 1492, "pitch": 62, "duration": 3, "velocity": 97}, {"time": 1516, "pitch": 44, "duration": 22, "velocity": 89}, {"time": 1519, "pitch": 51, "duration": 19, "velocity": 61}, {"time": 1522, "pitch": 56, "duration": 6, "velocity": 89}, {"time": 1525, "pitch": 60, "duration": 4, "velocity": 83}, {"time": 1528, "pitch": 63, "duration": 7, "velocity": 107}, {"time": 1531, "pitch": 56, "duration": 8, "velocity": 96}, {"time": 1534, "pitch": 60, "duration": 4, "velocity": 63}, {"time": 1537, "pitch": 63, "duration": 10, "velocity": 95}, {"time": 1540, "pitch": 44, "duration": 21, "velocity": 89}, {"time": 1543, "pitch": 51, "duration": 15, "velocity": 33}, {"time": 1546, "pitch": 56, "duration": 6, "velocity": 88}, {"time": 1549, "pitch": 60, "duration": 3, "velocity": 78}, {"time": 1552, "pitch": 62, "duration": 6, "velocity": 96}, {"time": 1555, "pitch": 56, "duration": 3, "velocity": 97}, {"time": 1558, "pitch": 60, "duration": 4, "velocity": 82}, {"time": 1561, "pitch": 62, "duration": 2, "velocity": 85}, {"time": 1564, "pitch": 43, "duration": 17, "velocity": 76}, {"time": 1567, "pitch": 50, "duration": 9, "velocity": 59}, {"time": 1570, "pitch": 55, "duration": 7, "velocity": 74}, {"time": 1573, "pitch": 58, "duration": 3, "velocity": 95}, {"time": 1576, "pitch": 62, "duration": 11, "velocity": 100}, {"time": 1579, "pitch": 50, "duration": 2, "velocity": 74}, {"time": 1582, "pitch": 58, "duration": 5, "velocity": 107}, {"time": 1585, "pitch": 55, "duration": 4, "velocity": 74}, {"time": 1588, "pitch": 36, "duration": 17, "velocity": 75}, {"time": 1591, "pitch": 43, "duration": 14, "velocity": 69}, {"time": 1594, "pitch": 48, "duration": 8, "velocity": 85}, {"time": 1597, "pitch": 55, "duration": 5, "velocity": 82}, {"time": 1600, "pitch": 63, "duration": 11, "velocity": 127}, {"time": 1603, "pitch": 48, "duration": 4, "velocity": 93}, {"time": 1606, "pitch": 60, "duration": 5, "velocity": 102}, {"time": 1609, "pitch": 55, "duration": 3, "velocity": 89}, {"time": 1612, "pitch": 41, "duration": 18, "velocity": 74}, {"time": 1615, "pitch": 48, "duration": 10, "velocity": 86}, {"time": 1618, "pitch": 53, "duration": 3, "velocity": 88}, {"time": 1621, "pitch": 56, "duration": 3, "velocity": 100}, {"time": 1624, "pitch": 60, "duration": 11, "velocity": 100}, {"time": 1627, "pitch": 48, "duration": 4, "velocity": 99}, {"time": 1630, "pitch": 56, "duration": 4, "velocity": 122}, {"time": 1633, "pitch": 53, "duration": 4, "velocity": 88}, {"time": 1636, "pitch": 46, "duration": 14, "velocity": 112}, {"time": 1639, "pitch": 53, "duration": 4, "velocity": 70}, {"time": 1642, "pitch": 58, "duration": 4, "velocity": 100}, {"time": 1645, "pitch": 53, "duration": 6, "velocity": 82}, {"time": 1648, "pitch": 62, "duration": 10, "velocity": 127}, {"time": 1651, "pitch": 46, "duration": 1, "velocity": 99}, {"time": 1654, "pitch": 58, "duration": 5, "velocity": 102}, {"time": 1657, "pitch": 53, "duration": 3, "velocity": 95}, {"time": 1660, "pitch": 39, "duration": 22, "velocity": 83}, {"time": 1663, "pitch": 46, "duration": 20, "velocity": 83}, {"time": 1666, "pitch": 51, "duration": 7, "velocity": 95}, {"time": 1669, "pitch": 55, "duration": 4, "velocity": 85}, {"time": 1672, "pitch": 58, "duration": 7, "velocity": 117}, {"time": 1675, "pitch": 51, "duration": 8, "velocity": 99}, {"time": 1678, "pitch": 55, "duration": 8, "velocity": 89}, {"time": 1681, "pitch": 63, "duration": 2, "velocity": 102}, {"time": 1684, "pitch": 39, "duration": 17, "velocity": 79}, {"time": 1684, "pitch": 58, "duration": 1, "velocity": 83}, {"time": 1684, "pitch": 61, "duration": 9, "velocity": 99}, {"time": 1687, "pitch": 46, "duration": 14, "velocity": 93}, {"time": 1690, "pitch": 51, "duration": 7, "velocity": 102}, {"time": 1693, "pitch": 55, "duration": 7, "velocity": 82}, {"time": 1696, "pitch": 61, "duration": 7, "velocity": 122}, {"time": 1699, "pitch": 51, "duration": 4, "velocity": 96}, {"time": 1702, "pitch": 58, "duration": 5, "velocity": 122}, {"time": 1705, "pitch": 55, "duration": 3, "velocity": 99}, {"time": 1708, "pitch": 44, "duration": 22, "velocity": 90}, {"time": 1711, "pitch": 51, "duration": 20, "velocity": 78}, {"time": 1714, "pitch": 56, "duration": 7, "velocity": 93}, {"time": 1717, "pitch": 60, "duration": 3, "velocity": 89}, {"time": 1720, "pitch": 63, "duration": 6, "velocity": 112}, {"time": 1723, "pitch": 56, "duration": 7, "velocity": 90}, {"time": 1726, "pitch": 60, "duration": 4, "velocity": 89}, {"time": 1729, "pitch": 63, "duration": 12, "velocity": 112}, {"time": 1732, "pitch": 44, "duration": 18, "velocity": 78}, {"time": 1735, "pitch": 51, "duration": 15, "velocity": 57}, {"time": 1738, "pitch": 56, "duration": 7, "velocity": 83}, {"time": 1741, "pitch": 60, "duration": 4, "velocity": 88}, {"time": 1744, "pitch": 62, "duration": 6, "velocity": 100}, {"time": 1747, "pitch": 56, "duration": 2, "velocity": 102}, {"time": 1750, "pitch": 60, "duration": 4, "velocity": 83}, {"time": 1753, "pitch": 62, "duration": 3, "velocity": 78}, {"time": 1756, "pitch": 43, "duration": 14, "velocity": 90}, {"time": 1756, "pitch": 58, "duration": 7, "velocity": 83}, {"time": 1756, "pitch": 62, "duration": 8, "velocity": 77}, {"time": 1759, "pitch": 50, "duration": 10, "velocity": 81}, {"time": 1762, "pitch": 55, "duration": 8, "velocity": 73}, {"time": 1765, "pitch": 58, "duration": 3, "velocity": 88}, {"time": 1768, "pitch": 62, "duration": 1, "velocity": 90}, {"time": 1771, "pitch": 47, "duration": 7, "velocity": 93}, {"time": 1771, "pitch": 55, "duration": 9, "velocity": 82}, {"time": 1771, "pitch": 59, "duration": 9, "velocity": 93}, {"time": 1771, "pitch": 62, "duration": 7, "velocity": 97}, {"time": 1780, "pitch": 36, "duration": 16, "velocity": 96}, {"time": 1783, "pitch": 43, "duration": 15, "velocity": 85}, {"time": 1786, "pitch": 48, "duration": 8, "velocity": 86}, {"time": 1789, "pitch": 55, "duration": 8, "velocity": 86}, {"time": 1792, "pitch": 63, "duration": 10, "velocity": 117}, {"time": 1795, "pitch": 48, "duration": 5, "velocity": 76}, {"time": 1798, "pitch": 60, "duration": 5, "velocity": 97}, {"time": 1801, "pitch": 55, "duration": 3, "velocity": 77}, {"time": 1804, "pitch": 41, "duration": 22, "velocity": 70}, {"time": 1807, "pitch": 48, "duration": 11, "velocity": 43}, {"time": 1810, "pitch": 53, "duration": 3, "velocity": 81}, {"time": 1813, "pitch": 56, "duration": 3, "velocity": 88}, {"time": 1816, "pitch": 60, "duration": 11, "velocity": 92}, {"time": 1819, "pitch": 48, "duration": 8, "velocity": 41}, {"time": 1822, "pitch": 56, "duration": 5, "velocity": 92}, {"time": 1825, "pitch": 53, "duration": 2, "velocity": 73}, {"time": 1828, "pitch": 43, "duration": 18, "velocity": 76}, {"time": 1831, "pitch": 50, "duration": 11, "velocity": 63}, {"time": 1834, "pitch": 55, "duration": 3, "velocity": 76}, {"time": 1837, "pitch": 58, "duration": 5, "velocity": 65}, {"time": 1840, "pitch": 62, "duration": 11, "velocity": 96}, {"time": 1843, "pitch": 50, "duration": 3, "velocity": 65}, {"time": 1846, "pitch": 58, "duration": 4, "velocity": 99}, {"time": 1849, "pitch": 55, "duration": 2, "velocity": 82}, {"time": 1852, "pitch": 44, "duration": 14, "velocity": 100}, {"time": 1855, "pitch": 56, "duration": 4, "velocity": 73}, {"time": 1858, "pitch": 60, "duration": 3, "velocity": 64}, {"time": 1861, "pitch": 56, "duration": 5, "velocity": 76}, {"time": 1864, "pitch": 63, "duration": 10, "velocity": 112}, {"time": 1867, "pitch": 44, "duration": 7, "velocity": 90}, {"time": 1870, "pitch": 56, "duration": 5, "velocity": 88}, {"time": 1873, "pitch": 60, "duration": 1, "velocity": 66}, {"time": 1876, "pitch": 46, "duration": 13, "velocity": 107}, {"time": 1879, "pitch": 53, "duration": 4, "velocity": 47}, {"time": 1882, "pitch": 58, "duration": 4, "velocity": 88}, {"time": 1885, "pitch": 53, "duration": 6, "velocity": 85}, {"time": 1888, "pitch": 62, "duration": 10, "velocity": 122}, {"time": 1891, "pitch": 46, "duration": 1, "velocity": 107}, {"time": 1894, "pitch": 58, "duration": 4, "velocity": 117}, {"time": 1897, "pitch": 53, "duration": 2, "velocity": 93}, {"time": 1900, "pitch": 39, "duration": 22, "velocity": 93}, {"time": 1903, "pitch": 46, "duration": 20, "velocity": 36}, {"time": 1906, "pitch": 51, "duration": 6, "velocity": 92}, {"time": 1909, "pitch": 55, "duration": 6, "velocity": 89}, {"time": 1912, "pitch": 63, "duration": 19, "velocity": 122}, {"time": 1915, "pitch": 51, "duration": 10, "velocity": 97}, {"time": 1918, "pitch": 58, "duration": 13, "velocity": 97}, {"time": 1921, "pitch": 55, "duration": 9, "velocity": 81}, {"time": 1924, "pitch": 39, "duration": 17, "velocity": 85}, {"time": 1927, "pitch": 46, "duration": 14, "velocity": 69}, {"time": 1930, "pitch": 51, "duration": 6, "velocity": 95}, {"time": 1933, "pitch": 55, "duration": 2, "velocity": 89}, {"time": 1933, "pitch": 58, "duration": 2, "velocity": 78}, {"time": 1933, "pitch": 63, "duration": 2, "velocity": 72}, {"time": 1936, "pitch": 58, "duration": 6, "velocity": 117}, {"time": 1936, "pitch": 63, "duration": 10, "velocity": 122}, {"time": 1939, "pitch": 51, "duration": 3, "velocity": 112}, {"time": 1942, "pitch": 55, "duration": 3, "velocity": 112}, {"time": 1948, "pitch": 44, "duration": 19, "velocity": 100}, {"time": 1948, "pitch": 56, "duration": 8, "velocity": 102}, {"time": 1948, "pitch": 60, "duration": 8, "velocity": 112}, {"time": 1948, "pitch": 63, "duration": 10, "velocity": 107}, {"time": 1954, "pitch": 48, "duration": 12, "velocity": 47}, {"time": 1957, "pitch": 51, "duration": 3, "velocity": 85}, {"time": 1960, "pitch": 56, "duration": 4, "velocity": 122}, {"time": 1960, "pitch": 60, "duration": 4, "velocity": 127}, {"time": 1960, "pitch": 63, "duration": 7, "velocity": 127}, {"time": 1963, "pitch": 51, "duration": 3, "velocity": 102}, {"time": 1966, "pitch": 56, "duration": 3, "velocity": 122}, {"time": 1969, "pitch": 58, "duration": 2, "velocity": 41}, {"time": 1972, "pitch": 46, "duration": 8, "velocity": 127}, {"time": 1975, "pitch": 53, "duration": 5, "velocity": 72}, {"time": 1978, "pitch": 58, "duration": 4, "velocity": 122}, {"time": 1981, "pitch": 46, "duration": 2, "velocity": 96}, {"time": 1981, "pitch": 53, "duration": 4, "velocity": 92}, {"time": 1984, "pitch": 46, "duration": 5, "velocity": 127}, {"time": 1984, "pitch": 58, "duration": 4, "velocity": 88}, {"time": 1984, "pitch": 62, "duration": 4, "velocity": 102}, {"time": 1987, "pitch": 53, "duration": 4, "velocity": 90}, {"time": 1990, "pitch": 46, "duration": 5, "velocity": 112}, {"time": 1990, "pitch": 58, "duration": 5, "velocity": 95}, {"time": 1990, "pitch": 62, "duration": 4, "velocity": 93}, {"time": 1993, "pitch": 53, "duration": 1, "velocity": 97}, {"time": 1996, "pitch": 43, "duration": 10, "velocity": 73}, {"time": 1996, "pitch": 55, "duration": 4, "velocity": 100}, {"time": 1999, "pitch": 50, "duration": 3, "velocity": 93}, {"time": 2002, "pitch": 55, "duration": 5, "velocity": 102}, {"time": 2005, "pitch": 50, "duration": 2, "velocity": 93}, {"time": 2005, "pitch": 58, "duration": 2, "velocity": 99}, {"time": 2008, "pitch": 43, "duration": 8, "velocity": 99}, {"time": 2008, "pitch": 55, "duration": 1, "velocity": 57}, {"time": 2008, "pitch": 58, "duration": 4, "velocity": 69}, {"time": 2008, "pitch": 62, "duration": 4, "velocity": 96}, {"time": 2011, "pitch": 50, "duration": 4, "velocity": 79}, {"time": 2011, "pitch": 55, "duration": 2, "velocity": 65}, {"time": 2014, "pitch": 55, "duration": 1, "velocity": 36}, {"time": 2014, "pitch": 58, "duration": 4, "velocity": 112}, {"time": 2014, "pitch": 62, "duration": 4, "velocity": 97}, {"time": 2017, "pitch": 55, "duration": 11, "velocity": 92}, {"time": 2020, "pitch": 36, "duration": 7, "velocity": 85}, {"time": 2020, "pitch": 60, "duration": 7, "velocity": 90}, {"time": 2020, "pitch": 63, "duration": 7, "velocity": 112}, {"time": 2023, "pitch": 43, "duration": 7, "velocity": 90}, {"time": 2026, "pitch": 48, "duration": 2, "velocity": 99}, {"time": 2029, "pitch": 36, "duration": 1, "velocity": 74}, {"time": 2029, "pitch": 55, "duration": 2, "velocity": 53}, {"time": 2029, "pitch": 60, "duration": 1, "velocity": 83}, {"time": 2029, "pitch": 63, "duration": 1, "velocity": 102}, {"time": 2032, "pitch": 36, "duration": 7, "velocity": 97}, {"time": 2032, "pitch": 60, "duration": 5, "velocity": 92}, {"time": 2032, "pitch": 63, "duration": 5, "velocity": 102}, {"time": 2035, "pitch": 43, "duration": 4, "velocity": 95}, {"time": 2038, "pitch": 48, "duration": 5, "velocity": 100}, {"time": 2038, "pitch": 55, "duration": 6, "velocity": 97}, {"time": 2038, "pitch": 60, "duration": 1, "velocity": 50}, {"time": 2038, "pitch": 63, "duration": 1, "velocity": 38}, {"time": 2041, "pitch": 60, "duration": 2, "velocity": 83}, {"time": 2041, "pitch": 63, "duration": 1, "velocity": 89}, {"time": 2044, "pitch": 41, "duration": 11, "velocity": 92}, {"time": 2047, "pitch": 48, "duration": 11, "velocity": 93}, {"time": 2050, "pitch": 53, "duration": 2, "velocity": 95}, {"time": 2053, "pitch": 56, "duration": 2, "velocity": 90}, {"time": 2053, "pitch": 60, "duration": 2, "velocity": 82}, {"time": 2056, "pitch": 53, "duration": 4, "velocity": 89}, {"time": 2056, "pitch": 56, "duration": 4, "velocity": 112}, {"time": 2056, "pitch": 60, "duration": 4, "velocity": 96}, {"time": 2059, "pitch": 41, "duration": 5, "velocity": 93}, {"time": 2062, "pitch": 56, "duration": 4, "velocity": 127}, {"time": 2062, "pitch": 60, "duration": 5, "velocity": 96}, {"time": 2065, "pitch": 53, "duration": 2, "velocity": 92}, {"time": 2068, "pitch": 44, "duration": 16, "velocity": 97}, {"time": 2071, "pitch": 48, "duration": 13, "velocity": 66}, {"time": 2074, "pitch": 51, "duration": 6, "velocity": 100}, {"time": 2077, "pitch": 56, "duration": 2, "velocity": 93}, {"time": 2080, "pitch": 56, "duration": 4, "velocity": 107}, {"time": 2080, "pitch": 60, "duration": 4, "velocity": 127}, {"time": 2080, "pitch": 63, "duration": 9, "velocity": 127}, {"time": 2083, "pitch": 51, "duration": 1, "velocity": 107}, {"time": 2086, "pitch": 56, "duration": 3, "velocity": 117}, {"time": 2092, "pitch": 49, "duration": 5, "velocity": 92}, {"time": 2092, "pitch": 61, "duration": 6, "velocity": 122}, {"time": 2092, "pitch": 65, "duration": 6, "velocity": 92}, {"time": 2098, "pitch": 48, "duration": 5, "velocity": 70}, {"time": 2098, "pitch": 60, "duration": 5, "velocity": 100}, {"time": 2104, "pitch": 47, "duration": 10, "velocity": 89}, {"time": 2104, "pitch": 59, "duration": 10, "velocity": 99}, {"time": 2116, "pitch": 46, "duration": 48, "velocity": 93}, {"time": 2116, "pitch": 53, "duration": 46, "velocity": 79}, {"time": 2116, "pitch": 58, "duration": 47, "velocity": 89}, {"time": 2116, "pitch": 62, "duration": 47, "velocity": 63}, {"time": 2164, "pitch": 44, "duration": 40, "velocity": 64}, {"time": 2164, "pitch": 60, "duration": 34, "velocity": 71}, {"time": 2164, "pitch": 63, "duration": 9, "velocity": 66}, {"time": 2170, "pitch": 51, "duration": 33, "velocity": 35}, {"time": 2176, "pitch": 56, "duration": 18, "velocity": 59}, {"time": 2182, "pitch": 63, "duration": 17, "velocity": 53}, {"time": 2194, "pitch": 56, "duration": 6, "velocity": 50}, {"time": 2200, "pitch": 63, "duration": 12, "velocity": 93}, {"time": 2203, "pitch": 56, "duration": 1, "velocity": 50}, {"time": 2206, "pitch": 60, "duration": 6, "velocity": 44}, {"time": 2212, "pitch": 43, "duration": 18, "velocity": 71}, {"time": 2218, "pitch": 50, "duration": 10, "velocity": 63}, {"time": 2224, "pitch": 62, "duration": 12, "velocity": 86}, {"time": 2230, "pitch": 58, "duration": 6, "velocity": 50}, {"time": 2236, "pitch": 48, "duration": 13, "velocity": 70}, {"time": 2242, "pitch": 55, "duration": 13, "velocity": 56}, {"time": 2248, "pitch": 63, "duration": 11, "velocity": 97}, {"time": 2254, "pitch": 60, "duration": 6, "velocity": 66}, {"time": 2260, "pitch": 41, "duration": 20, "velocity": 82}, {"time": 2266, "pitch": 48, "duration": 16, "velocity": 86}, {"time": 2272, "pitch": 60, "duration": 11, "velocity": 107}, {"time": 2278, "pitch": 56, "duration": 4, "velocity": 68}, {"time": 2284, "pitch": 46, "duration": 17, "velocity": 102}, {"time": 2290, "pitch": 53, "duration": 7, "velocity": 58}, {"time": 2296, "pitch": 58, "duration": 7, "velocity": 97}, {"time": 2296, "pitch": 62, "duration": 9, "velocity": 99}, {"time": 2302, "pitch": 53, "duration": 4, "velocity": 86}, {"time": 2308, "pitch": 39, "duration": 16, "velocity": 88}, {"time": 2308, "pitch": 58, "duration": 11, "velocity": 96}, {"time": 2308, "pitch": 63, "duration": 10, "velocity": 93}, {"time": 2314, "pitch": 46, "duration": 10, "velocity": 54}, {"time": 2317, "pitch": 51, "duration": 6, "velocity": 96}, {"time": 2320, "pitch": 63, "duration": 3, "velocity": 117}, {"time": 2323, "pitch": 55, "duration": 2, "velocity": 72}, {"time": 2326, "pitch": 39, "duration": 24, "velocity": 72}, {"time": 2326, "pitch": 46, "duration": 24, "velocity": 92}, {"time": 2326, "pitch": 51, "duration": 13, "velocity": 102}, {"time": 2326, "pitch": 55, "duration": 8, "velocity": 58}, {"time": 2326, "pitch": 58, "duration": 10, "velocity": 100}, {"time": 2326, "pitch": 61, "duration": 10, "velocity": 112}, {"time": 2338, "pitch": 55, "duration": 4, "velocity": 78}, {"time": 2338, "pitch": 58, "duration": 5, "velocity": 99}, {"time": 2338, "pitch": 61, "duration": 5, "velocity": 117}, {"time": 2341, "pitch": 51, "duration": 9, "velocity": 82}, {"time": 2350, "pitch": 55, "duration": 6, "velocity": 85}, {"time": 2350, "pitch": 58, "duration": 6, "velocity": 107}, {"time": 2350, "pitch": 61, "duration": 6, "velocity": 127}, {"time": 2356, "pitch": 57, "duration": 10, "velocity": 92}, {"time": 2356, "pitch": 60, "duration": 10, "velocity": 100}, {"time": 2356, "pitch": 63, "duration": 10, "velocity": 107}, {"time": 2356, "pitch": 41, "duration": 20, "velocity": 95}, {"time": 2368, "pitch": 57, "duration": 6, "velocity": 78}, {"time": 2368, "pitch": 60, "duration": 9, "velocity": 112}, {"time": 2368, "pitch": 63, "duration": 7, "velocity": 127}, {"time": 2380, "pitch": 44, "duration": 22, "velocity": 89}, {"time": 2380, "pitch": 56, "duration": 10, "velocity": 89}, {"time": 2380, "pitch": 60, "duration": 10, "velocity": 102}, {"time": 2380, "pitch": 63, "duration": 10, "velocity": 102}, {"time": 2392, "pitch": 56, "duration": 4, "velocity": 96}, {"time": 2392, "pitch": 60, "duration": 9, "velocity": 112}, {"time": 2392, "pitch": 63, "duration": 9, "velocity": 100}, {"time": 2398, "pitch": 56, "duration": 3, "velocity": 59}, {"time": 2404, "pitch": 43, "duration": 18, "velocity": 99}, {"time": 2407, "pitch": 50, "duration": 9, "velocity": 81}, {"time": 2410, "pitch": 55, "duration": 7, "velocity": 66}, {"time": 2413, "pitch": 58, "duration": 2, "velocity": 82}, {"time": 2416, "pitch": 62, "duration": 9, "velocity": 96}, {"time": 2419, "pitch": 50, "duration": 2, "velocity": 81}, {"time": 2422, "pitch": 58, "duration": 4, "velocity": 100}, {"time": 2425, "pitch": 55, "duration": 10, "velocity": 67}, {"time": 2428, "pitch": 36, "duration": 17, "velocity": 81}, {"time": 2428, "pitch": 60, "duration": 10, "velocity": 89}, {"time": 2428, "pitch": 63, "duration": 10, "velocity": 100}, {"time": 2431, "pitch": 43, "duration": 14, "velocity": 83}, {"time": 2434, "pitch": 48, "duration": 6, "velocity": 90}, {"time": 2437, "pitch": 55, "duration": 5, "velocity": 89}, {"time": 2440, "pitch": 60, "duration": 1, "velocity": 93}, {"time": 2440, "pitch": 63, "duration": 11, "velocity": 127}, {"time": 2443, "pitch": 48, "duration": 5, "velocity": 99}, {"time": 2446, "pitch": 60, "duration": 5, "velocity": 95}, {"time": 2449, "pitch": 55, "duration": 3, "velocity": 76}, {"time": 2452, "pitch": 41, "duration": 22, "velocity": 73}, {"time": 2455, "pitch": 48, "duration": 10, "velocity": 67}, {"time": 2458, "pitch": 53, "duration": 3, "velocity": 85}, {"time": 2461, "pitch": 56, "duration": 2, "velocity": 100}, {"time": 2464, "pitch": 60, "duration": 11, "velocity": 97}, {"time": 2467, "pitch": 48, "duration": 9, "velocity": 93}, {"time": 2470, "pitch": 56, "duration": 5, "velocity": 122}, {"time": 2473, "pitch": 53, "duration": 2, "velocity": 97}, {"time": 2476, "pitch": 43, "duration": 17, "velocity": 99}, {"time": 2479, "pitch": 50, "duration": 10, "velocity": 112}, {"time": 2482, "pitch": 55, "duration": 10, "velocity": 99}, {"time": 2485, "pitch": 58, "duration": 3, "velocity": 102}, {"time": 2488, "pitch": 62, "duration": 11, "velocity": 107}, {"time": 2491, "pitch": 50, "duration": 2, "velocity": 93}, {"time": 2494, "pitch": 55, "duration": 5, "velocity": 107}, {"time": 2497, "pitch": 58, "duration": 2, "velocity": 102}, {"time": 2500, "pitch": 44, "duration": 13, "velocity": 85}, {"time": 2503, "pitch": 56, "duration": 4, "velocity": 60}, {"time": 2506, "pitch": 60, "duration": 3, "velocity": 67}, {"time": 2509, "pitch": 56, "duration": 7, "velocity": 85}, {"time": 2512, "pitch": 63, "duration": 9, "velocity": 117}, {"time": 2515, "pitch": 44, "duration": 9, "velocity": 93}, {"time": 2518, "pitch": 56, "duration": 4, "velocity": 83}, {"time": 2524, "pitch": 46, "duration": 26, "velocity": 72}, {"time": 2524, "pitch": 53, "duration": 26, "velocity": 74}, {"time": 2524, "pitch": 58, "duration": 25, "velocity": 89}, {"time": 2524, "pitch": 62, "duration": 26, "velocity": 88}, {"time": 2548, "pitch": 39, "duration": 39, "velocity": 85}, {"time": 2554, "pitch": 51, "duration": 9, "velocity": 83}, {"time": 2560, "pitch": 55, "duration": 37, "velocity": 70}, {"time": 2566, "pitch": 51, "duration": 22, "velocity": 42}, {"time": 2571, "pitch": 58, "duration": 26, "velocity": 62}, {"time": 2572, "pitch": 63, "duration": 25, "velocity": 53}, {"time": 2596, "pitch": 41, "duration": 21, "velocity": 57}, {"time": 2602, "pitch": 48, "duration": 36, "velocity": 41}, {"time": 2608, "pitch": 60, "duration": 33, "velocity": 59}, {"time": 2608, "pitch": 56, "duration": 33, "velocity": 52}, {"time": 2614, "pitch": 53, "duration": 26, "velocity": 40}, {"time": 2619, "pitch": 41, "duration": 17, "velocity": 21}, {"time": 2644, "pitch": 56, "duration": 8, "velocity": 56}, {"time": 2644, "pitch": 60, "duration": 11, "velocity": 41}, {"time": 2644, "pitch": 44, "duration": 19, "velocity": 76}, {"time": 2644, "pitch": 63, "duration": 17, "velocity": 38}, {"time": 2650, "pitch": 55, "duration": 12, "velocity": 44}, {"time": 2655, "pitch": 56, "duration": 8, "velocity": 61}, {"time": 2661, "pitch": 60, "duration": 2, "velocity": 53}, {"time": 2668, "pitch": 53, "duration": 47, "velocity": 34}, {"time": 2668, "pitch": 58, "duration": 47, "velocity": 66}, {"time": 2668, "pitch": 46, "duration": 47, "velocity": 41}, {"time": 2668, "pitch": 62, "duration": 47, "velocity": 66}, {"time": 2748, "pitch": 48, "duration": 13, "velocity": 38}, {"time": 2748, "pitch": 60, "duration": 8, "velocity": 39}, {"time": 2748, "pitch": 63, "duration": 9, "velocity": 42}, {"time": 2754, "pitch": 55, "duration": 8, "velocity": 42}, {"time": 2760, "pitch": 63, "duration": 6, "velocity": 55}, {"time": 2760, "pitch": 60, "duration": 8, "velocity": 53}, {"time": 2765, "pitch": 55, "duration": 7, "velocity": 44}, {"time": 2771, "pitch": 43, "duration": 15, "velocity": 58}, {"time": 2778, "pitch": 50, "duration": 8, "velocity": 34}, {"time": 2783, "pitch": 55, "duration": 7, "velocity": 39}, {"time": 2783, "pitch": 58, "duration": 6, "velocity": 53}, {"time": 2784, "pitch": 62, "duration": 6, "velocity": 47}, {"time": 2795, "pitch": 56, "duration": 8, "velocity": 54}, {"time": 2795, "pitch": 44, "duration": 13, "velocity": 44}, {"time": 2802, "pitch": 63, "duration": 2, "velocity": 53}, {"time": 2808, "pitch": 46, "duration": 5, "velocity": 47}, {"time": 2808, "pitch": 58, "duration": 7, "velocity": 55}, {"time": 2813, "pitch": 62, "duration": 6, "velocity": 48}, {"time": 2816, "pitch": 58, "duration": 3, "velocity": 38}, {"time": 2819, "pitch": 51, "duration": 12, "velocity": 53}, {"time": 2825, "pitch": 63, "duration": 7, "velocity": 51}, {"time": 2831, "pitch": 50, "duration": 12, "velocity": 52}, {"time": 2838, "pitch": 62, "duration": 4, "velocity": 52}, {"time": 2844, "pitch": 48, "duration": 13, "velocity": 47}, {"time": 2849, "pitch": 55, "duration": 8, "velocity": 53}, {"time": 2855, "pitch": 60, "duration": 5, "velocity": 57}, {"time": 2855, "pitch": 63, "duration": 6, "velocity": 63}, {"time": 2862, "pitch": 63, "duration": 8, "velocity": 58}, {"time": 2862, "pitch": 60, "duration": 10, "velocity": 58}, {"time": 2867, "pitch": 46, "duration": 21, "velocity": 66}, {"time": 2873, "pitch": 50, "duration": 15, "velocity": 55}, {"time": 2880, "pitch": 58, "duration": 13, "velocity": 59}, {"time": 2880, "pitch": 55, "duration": 14, "velocity": 55}, {"time": 2880, "pitch": 62, "duration": 13, "velocity": 61}, {"time": 2892, "pitch": 44, "duration": 42, "velocity": 55}, {"time": 2899, "pitch": 56, "duration": 13, "velocity": 41}, {"time": 2905, "pitch": 60, "duration": 12, "velocity": 39}, {"time": 2906, "pitch": 44, "duration": 28, "velocity": 37}, {"time": 2910, "pitch": 56, "duration": 2, "velocity": 53}, {"time": 2910, "pitch": 63, "duration": 9, "velocity": 42}, {"time": 2912, "pitch": 60, "duration": 5, "velocity": 63}, {"time": 2915, "pitch": 63, "duration": 4, "velocity": 73}, {"time": 2918, "pitch": 56, "duration": 16, "velocity": 43}, {"time": 2918, "pitch": 68, "duration": 1, "velocity": 77}, {"time": 2922, "pitch": 72, "duration": 2, "velocity": 58}, {"time": 2925, "pitch": 75, "duration": 2, "velocity": 93}, {"time": 2932, "pitch": 80, "duration": 1, "velocity": 69}, {"time": 2937, "pitch": 84, "duration": 1, "velocity": 51}, {"time": 2942, "pitch": 87, "duration": 1, "velocity": 78}, {"time": 2947, "pitch": 92, "duration": 10, "velocity": 75}, {"time": 2957, "pitch": 39, "duration": 28, "velocity": 35}, {"time": 2959, "pitch": 46, "duration": 25, "velocity": 26}, {"time": 2959, "pitch": 62, "duration": 26, "velocity": 38}, {"time": 2960, "pitch": 51, "duration": 24, "velocity": 36}, {"time": 2961, "pitch": 63, "duration": 24, "velocity": 44}, {"time": 2963, "pitch": 67, "duration": 22, "velocity": 50}, {"time": 2964, "pitch": 70, "duration": 21, "velocity": 58}], "annotations": [{"time": 3, "annotation": {"number": 64, "value": 127}, "group": "control_change"}, {"time": 26, "annotation": {"number": 64, "value": 0}, "group": "control_change"}, {"time": 27, "annotation": {"number": 64, "value": 127}, "group": "control_change"}, {"time": 50, "annotation": {"number": 64, "value": 0}, "group": "control_change"}, {"time": 52, "annotation": {"number": 64, "value": 127}, "group": "control_change"}, {"time": 146, "annotation": {"number": 64, "value": 0}, "group": "control_change"}, {"time": 148, "annotation": {"number": 64, "value": 127}, "group": "control_change"}, {"time": 194, "annotation": {"number": 64, "value": 0}, "group": "control_change"}, {"time": 196, "annotation": {"number": 64, "value": 127}, "group": "control_change"}, {"time": 218, "annotation": {"number": 64, "value": 0}, "group": "control_change"}, {"time": 220, "annotation": {"number": 64, "value": 127}, "group": "control_change"}, {"time": 242, "annotation": {"number": 64, "value": 0}, "group": "control_change"}, {"time": 244, "annotation": {"number": 64, "value": 127}, "group": "control_change"}, {"time": 290, "annotation": {"number": 64, "value": 0}, "group": "control_change"}, {"time": 292, "annotation": {"number": 64, "value": 127}, "group": "control_change"}, {"time": 315, "annotation": {"number": 64, "value": 0}, "group": "control_change"}, {"time": 316, "annotation": {"number": 64, "value": 127}, "group": "control_change"}, {"time": 339, "annotation": {"number": 64, "value": 0}, "group": "control_change"}, {"time": 341, "annotation": {"number": 64, "value": 127}, "group": "control_change"}, {"time": 375, "annotation": {"number": 64, "value": 0}, "group": "control_change"}, {"time": 377, "annotation": {"number": 64, "value": 127}, "group": "control_change"}, {"time": 386, "annotation": {"number": 64, "value": 0}, "group": "control_change"}, {"time": 388, "annotation": {"number": 64, "value": 127}, "group": "control_change"}, {"time": 410, "annotation": {"number": 64, "value": 0}, "group": "control_change"}, {"time": 411, "annotation": {"number": 64, "value": 127}, "group": "control_change"}, {"time": 434, "annotation": {"number": 64, "value": 0}, "group": "control_change"}, {"time": 436, "annotation": {"number": 64, "value": 127}, "group": "control_change"}, {"time": 458, "annotation": {"number": 64, "value": 0}, "group": "control_change"}, {"time": 461, "annotation": {"number": 64, "value": 127}, "group": "control_change"}, {"time": 482, "annotation": {"number": 64, "value": 0}, "group": "control_change"}, {"time": 484, "annotation": {"number": 64, "value": 127}, "group": "control_change"}, {"time": 506, "annotation": {"number": 64, "value": 0}, "group": "control_change"}, {"time": 508, "annotation": {"number": 64, "value": 127}, "group": "control_change"}, {"time": 531, "annotation": {"number": 64, "value": 0}, "group": "control_change"}, {"time": 533, "annotation": {"number": 64, "value": 127}, "group": "control_change"}, {"time": 554, "annotation": {"number": 64, "value": 0}, "group": "control_change"}, {"time": 556, "annotation": {"number": 64, "value": 127}, "group": "control_change"}, {"time": 566, "annotation": {"number": 64, "value": 0}, "group": "control_change"}, {"time": 580, "annotation": {"number": 64, "value": 127}, "group": "control_change"}, {"time": 603, "annotation": {"number": 64, "value": 0}, "group": "control_change"}, {"time": 652, "annotation": {"number": 64, "value": 127}, "group": "control_change"}, {"time": 698, "annotation": {"number": 64, "value": 0}, "group": "control_change"}, {"time": 700, "annotation": {"number": 64, "value": 127}, "group": "control_change"}, {"time": 722, "annotation": {"number": 64, "value": 0}, "group": "control_change"}, {"time": 724, "annotation": {"number": 64, "value": 127}, "group": "control_change"}, {"time": 745, "annotation": {"number": 64, "value": 0}, "group": "control_change"}, {"time": 747, "annotation": {"number": 64, "value": 127}, "group": "control_change"}, {"time": 770, "annotation": {"number": 64, "value": 0}, "group": "control_change"}, {"time": 771, "annotation": {"number": 64, "value": 127}, "group": "control_change"}, {"time": 794, "annotation": {"number": 64, "value": 0}, "group": "control_change"}, {"time": 795, "annotation": {"number": 64, "value": 127}, "group": "control_change"}, {"time": 817, "annotation": {"number": 64, "value": 0}, "group": "control_change"}, {"time": 820, "annotation": {"number": 64, "value": 127}, "group": "control_change"}, {"time": 842, "annotation": {"number": 64, "value": 0}, "group": "control_change"}, {"time": 844, "annotation": {"number": 64, "value": 127}, "group": "control_change"}, {"time": 866, "annotation": {"number": 64, "value": 0}, "group": "control_change"}, {"time": 868, "annotation": {"number": 64, "value": 127}, "group": "control_change"}, {"time": 889, "annotation": {"number": 64, "value": 0}, "group": "control_change"}, {"time": 892, "annotation": {"number": 64, "value": 127}, "group": "control_change"}, {"time": 906, "annotation": {"number": 64, "value": 0}, "group": "control_change"}, {"time": 916, "annotation": {"number": 64, "value": 127}, "group": "control_change"}, {"time": 938, "annotation": {"number": 64, "value": 0}, "group": "control_change"}, {"time": 940, "annotation": {"number": 64, "value": 127}, "group": "control_change"}, {"time": 962, "annotation": {"number": 64, "value": 0}, "group": "control_change"}, {"time": 964, "annotation": {"number": 64, "value": 127}, "group": "control_change"}, {"time": 986, "annotation": {"number": 64, "value": 0}, "group": "control_change"}, {"time": 987, "annotation": {"number": 64, "value": 127}, "group": "control_change"}, {"time": 1010, "annotation": {"number": 64, "value": 0}, "group": "control_change"}, {"time": 1011, "annotation": {"number": 64, "value": 127}, "group": "control_change"}, {"time": 1034, "annotation": {"number": 64, "value": 0}, "group": "control_change"}, {"time": 1036, "annotation": {"number": 64, "value": 127}, "group": "control_change"}, {"time": 1081, "annotation": {"number": 64, "value": 0}, "group": "control_change"}, {"time": 1084, "annotation": {"number": 64, "value": 127}, "group": "control_change"}, {"time": 1106, "annotation": {"number": 64, "value": 0}, "group": "control_change"}, {"time": 1108, "annotation": {"number": 64, "value": 127}, "group": "control_change"}, {"time": 1130, "annotation": {"number": 64, "value": 0}, "group": "control_change"}, {"time": 1132, "annotation": {"number": 64, "value": 127}, "group": "control_change"}, {"time": 1142, "annotation": {"number": 64, "value": 0}, "group": "control_change"}, {"time": 1144, "annotation": {"number": 64, "value": 127}, "group": "control_change"}, {"time": 1155, "annotation": {"number": 64, "value": 0}, "group": "control_change"}, {"time": 1155, "annotation": {"number": 64, "value": 127}, "group": "control_change"}, {"time": 1166, "annotation": {"number": 64, "value": 0}, "group": "control_change"}, {"time": 1180, "annotation": {"number": 64, "value": 127}, "group": "control_change"}, {"time": 1202, "annotation": {"number": 64, "value": 0}, "group": "control_change"}, {"time": 1204, "annotation": {"number": 64, "value": 127}, "group": "control_change"}, {"time": 1226, "annotation": {"number": 64, "value": 0}, "group": "control_change"}, {"time": 1228, "annotation": {"number": 64, "value": 127}, "group": "control_change"}, {"time": 1274, "annotation": {"number": 64, "value": 0}, "group": "control_change"}, {"time": 1276, "annotation": {"number": 64, "value": 127}, "group": "control_change"}, {"time": 1298, "annotation": {"number": 64, "value": 0}, "group": "control_change"}, {"time": 1300, "annotation": {"number": 64, "value": 127}, "group": "control_change"}, {"time": 1322, "annotation": {"number": 64, "value": 0}, "group": "control_change"}, {"time": 1323, "annotation": {"number": 64, "value": 127}, "group": "control_change"}, {"time": 1334, "annotation": {"number": 64, "value": 0}, "group": "control_change"}, {"time": 1336, "annotation": {"number": 64, "value": 127}, "group": "control_change"}, {"time": 1346, "annotation": {"number": 64, "value": 0}, "group": "control_change"}, {"time": 1348, "annotation": {"number": 64, "value": 127}, "group": "control_change"}, {"time": 1358, "annotation": {"number": 64, "value": 0}, "group": "control_change"}, {"time": 1359, "annotation": {"number": 64, "value": 127}, "group": "control_change"}, {"time": 1369, "annotation": {"number": 64, "value": 0}, "group": "control_change"}, {"time": 1371, "annotation": {"number": 64, "value": 127}, "group": "control_change"}, {"time": 1394, "annotation": {"number": 64, "value": 0}, "group": "control_change"}, {"time": 1396, "annotation": {"number": 64, "value": 127}, "group": "control_change"}, {"time": 1418, "annotation": {"number": 64, "value": 0}, "group": "control_change"}, {"time": 1420, "annotation": {"number": 64, "value": 127}, "group": "control_change"}, {"time": 1443, "annotation": {"number": 64, "value": 0}, "group": "control_change"}, {"time": 1444, "annotation": {"number": 64, "value": 127}, "group": "control_change"}, {"time": 1453, "annotation": {"number": 64, "value": 0}, "group": "control_change"}, {"time": 1468, "annotation": {"number": 64, "value": 127}, "group": "control_change"}, {"time": 1490, "annotation": {"number": 64, "value": 0}, "group": "control_change"}, {"time": 1515, "annotation": {"number": 64, "value": 127}, "group": "control_change"}, {"time": 1538, "annotation": {"number": 64, "value": 0}, "group": "control_change"}, {"time": 1540, "annotation": {"number": 64, "value": 127}, "group": "control_change"}, {"time": 1562, "annotation": {"number": 64, "value": 0}, "group": "control_change"}, {"time": 1564, "annotation": {"number": 64, "value": 127}, "group": "control_change"}, {"time": 1585, "annotation": {"number": 64, "value": 0}, "group": "control_change"}, {"time": 1588, "annotation": {"number": 64, "value": 127}, "group": "control_change"}, {"time": 1610, "annotation": {"number": 64, "value": 0}, "group": "control_change"}, {"time": 1611, "annotation": {"number": 64, "value": 127}, "group": "control_change"}, {"time": 1634, "annotation": {"number": 64, "value": 0}, "group": "control_change"}, {"time": 1636, "annotation": {"number": 64, "value": 127}, "group": "control_change"}, {"time": 1657, "annotation": {"number": 64, "value": 0}, "group": "control_change"}, {"time": 1659, "annotation": {"number": 64, "value": 127}, "group": "control_change"}, {"time": 1682, "annotation": {"number": 64, "value": 0}, "group": "control_change"}, {"time": 1684, "annotation": {"number": 64, "value": 127}, "group": "control_change"}, {"time": 1706, "annotation": {"number": 64, "value": 0}, "group": "control_change"}, {"time": 1708, "annotation": {"number": 64, "value": 127}, "group": "control_change"}, {"time": 1730, "annotation": {"number": 64, "value": 0}, "group": "control_change"}, {"time": 1731, "annotation": {"number": 64, "value": 127}, "group": "control_change"}, {"time": 1753, "annotation": {"number": 64, "value": 0}, "group": "control_change"}, {"time": 1755, "annotation": {"number": 64, "value": 127}, "group": "control_change"}, {"time": 1756, "annotation": {"number": 64, "value": 127}, "group": "control_change"}, {"time": 1769, "annotation": {"number": 64, "value": 0}, "group": "control_change"}, {"time": 1780, "annotation": {"number": 64, "value": 127}, "group": "control_change"}, {"time": 1801, "annotation": {"number": 64, "value": 0}, "group": "control_change"}, {"time": 1803, "annotation": {"number": 64, "value": 127}, "group": "control_change"}, {"time": 1825, "annotation": {"number": 64, "value": 0}, "group": "control_change"}, {"time": 1827, "annotation": {"number": 64, "value": 127}, "group": "control_change"}, {"time": 1850, "annotation": {"number": 64, "value": 0}, "group": "control_change"}, {"time": 1852, "annotation": {"number": 64, "value": 127}, "group": "control_change"}, {"time": 1873, "annotation": {"number": 64, "value": 0}, "group": "control_change"}, {"time": 1875, "annotation": {"number": 64, "value": 127}, "group": "control_change"}, {"time": 1897, "annotation": {"number": 64, "value": 0}, "group": "control_change"}, {"time": 1899, "annotation": {"number": 64, "value": 127}, "group": "control_change"}, {"time": 1921, "annotation": {"number": 64, "value": 0}, "group": "control_change"}, {"time": 1923, "annotation": {"number": 64, "value": 127}, "group": "control_change"}, {"time": 1946, "annotation": {"number": 64, "value": 0}, "group": "control_change"}, {"time": 1948, "annotation": {"number": 64, "value": 127}, "group": "control_change"}, {"time": 1970, "annotation": {"number": 64, "value": 0}, "group": "control_change"}, {"time": 1971, "annotation": {"number": 64, "value": 127}, "group": "control_change"}, {"time": 1994, "annotation": {"number": 64, "value": 0}, "group": "control_change"}, {"time": 1996, "annotation": {"number": 64, "value": 127}, "group": "control_change"}, {"time": 2018, "annotation": {"number": 64, "value": 0}, "group": "control_change"}, {"time": 2020, "annotation": {"number": 64, "value": 127}, "group": "control_change"}, {"time": 2031, "annotation": {"number": 64, "value": 0}, "group": "control_change"}, {"time": 2032, "annotation": {"number": 64, "value": 127}, "group": "control_change"}, {"time": 2042, "annotation": {"number": 64, "value": 0}, "group": "control_change"}, {"time": 2044, "annotation": {"number": 64, "value": 127}, "group": "control_change"}, {"time": 2065, "annotation": {"number": 64, "value": 0}, "group": "control_change"}, {"time": 2067, "annotation": {"number": 64, "value": 127}, "group": "control_change"}, {"time": 2090, "annotation": {"number": 64, "value": 0}, "group": "control_change"}, {"time": 2091, "annotation": {"number": 64, "value": 127}, "group": "control_change"}, {"time": 2092, "annotation": {"number": 64, "value": 127}, "group": "control_change"}, {"time": 2095, "annotation": {"number": 64, "value": 0}, "group": "control_change"}, {"time": 2115, "annotation": {"number": 64, "value": 127}, "group": "control_change"}, {"time": 2118, "annotation": {"number": 64, "value": 0}, "group": "control_change"}, {"time": 2165, "annotation": {"number": 64, "value": 127}, "group": "control_change"}, {"time": 2210, "annotation": {"number": 64, "value": 0}, "group": "control_change"}, {"time": 2212, "annotation": {"number": 64, "value": 127}, "group": "control_change"}, {"time": 2233, "annotation": {"number": 64, "value": 0}, "group": "control_change"}, {"time": 2236, "annotation": {"number": 64, "value": 127}, "group": "control_change"}, {"time": 2256, "annotation": {"number": 64, "value": 0}, "group": "control_change"}, {"time": 2260, "annotation": {"number": 64, "value": 127}, "group": "control_change"}, {"time": 2280, "annotation": {"number": 64, "value": 0}, "group": "control_change"}, {"time": 2284, "annotation": {"number": 64, "value": 127}, "group": "control_change"}, {"time": 2306, "annotation": {"number": 64, "value": 0}, "group": "control_change"}, {"time": 2308, "annotation": {"number": 64, "value": 127}, "group": "control_change"}, {"time": 2323, "annotation": {"number": 64, "value": 0}, "group": "control_change"}, {"time": 2363, "annotation": {"number": 64, "value": 127}, "group": "control_change"}, {"time": 2377, "annotation": {"number": 64, "value": 0}, "group": "control_change"}, {"time": 2380, "annotation": {"number": 64, "value": 127}, "group": "control_change"}, {"time": 2401, "annotation": {"number": 64, "value": 0}, "group": "control_change"}, {"time": 2403, "annotation": {"number": 64, "value": 127}, "group": "control_change"}, {"time": 2426, "annotation": {"number": 64, "value": 0}, "group": "control_change"}, {"time": 2427, "annotation": {"number": 64, "value": 127}, "group": "control_change"}, {"time": 2449, "annotation": {"number": 64, "value": 0}, "group": "control_change"}, {"time": 2451, "annotation": {"number": 64, "value": 127}, "group": "control_change"}, {"time": 2473, "annotation": {"number": 64, "value": 0}, "group": "control_change"}, {"time": 2475, "annotation": {"number": 64, "value": 127}, "group": "control_change"}, {"time": 2497, "annotation": {"number": 64, "value": 0}, "group": "control_change"}, {"time": 2499, "annotation": {"number": 64, "value": 127}, "group": "control_change"}, {"time": 2522, "annotation": {"number": 64, "value": 0}, "group": "control_change"}, {"time": 2524, "annotation": {"number": 64, "value": 127}, "group": "control_change"}, {"time": 2544, "annotation": {"number": 64, "value": 0}, "group": "control_change"}, {"time": 2549, "annotation": {"number": 64, "value": 127}, "group": "control_change"}, {"time": 2595, "annotation": {"number": 64, "value": 0}, "group": "control_change"}, {"time": 2597, "annotation": {"number": 64, "value": 127}, "group": "control_change"}, {"time": 2641, "annotation": {"number": 64, "value": 0}, "group": "control_change"}, {"time": 2644, "annotation": {"number": 64, "value": 127}, "group": "control_change"}, {"time": 2668, "annotation": {"number": 64, "value": 0}, "group": "control_change"}, {"time": 2755, "annotation": {"number": 64, "value": 127}, "group": "control_change"}, {"time": 2769, "annotation": {"number": 64, "value": 0}, "group": "control_change"}, {"time": 2772, "annotation": {"number": 64, "value": 127}, "group": "control_change"}, {"time": 2793, "annotation": {"number": 64, "value": 0}, "group": "control_change"}, {"time": 2796, "annotation": {"number": 64, "value": 127}, "group": "control_change"}, {"time": 2806, "annotation": {"number": 64, "value": 0}, "group": "control_change"}, {"time": 2808, "annotation": {"number": 64, "value": 127}, "group": "control_change"}, {"time": 2818, "annotation": {"number": 64, "value": 0}, "group": "control_change"}, {"time": 2820, "annotation": {"number": 64, "value": 127}, "group": "control_change"}, {"time": 2829, "annotation": {"number": 64, "value": 0}, "group": "control_change"}, {"time": 2832, "annotation": {"number": 64, "value": 127}, "group": "control_change"}, {"time": 2841, "annotation": {"number": 64, "value": 0}, "group": "control_change"}, {"time": 2844, "annotation": {"number": 64, "value": 127}, "group": "control_change"}, {"time": 2864, "annotation": {"number": 64, "value": 0}, "group": "control_change"}, {"time": 2868, "annotation": {"number": 64, "value": 127}, "group": "control_change"}, {"time": 2892, "annotation": {"number": 64, "value": 0}, "group": "control_change"}, {"time": 2893, "annotation": {"number": 64, "value": 127}, "group": "control_change"}, {"time": 2909, "annotation": {"number": 64, "value": 127}, "group": "control_change"}, {"time": 2932, "annotation": {"number": 64, "value": 0}, "group": "control_change"}, {"time": 2932, "annotation": {"number": 64, "value": 118}, "group": "control_change"}, {"time": 2944, "annotation": {"number": 64, "value": 123}, "group": "control_change"}, {"time": 2956, "annotation": {"number": 64, "value": 127}, "group": "control_change"}, {"time": 2964, "annotation": {"number": 64, "value": 0}, "group": "control_change"}, {"time": 2964, "annotation": {"number": 64, "value": 127}, "group": "control_change"}]}]}