{"metadata": {"schema_version": "0.2", "title": "None", "source_filename": "740.mid", "source_format": "midi"}, "resolution": 12, "tempos": [{"time": 0, "qpm": 68.0000725334107}, {"time": 900, "qpm": 48.9999918333347}, {"time": 1308, "qpm": 68.0000725334107}, {"time": 1932, "qpm": 48.9999918333347}, {"time": 2376, "qpm": 45.000011250002814}, {"time": 2388, "qpm": 69.00009660013524}, {"time": 2664, "qpm": 68.0000725334107}, {"time": 2724, "qpm": 54.00000540000054}, {"time": 2736, "qpm": 69.00009660013524}, {"time": 2928, "qpm": 68.0000725334107}, {"time": 3096, "qpm": 60.0}, {"time": 3132, "qpm": 55.99997760000896}, {"time": 3144, "qpm": 54.00000540000054}, {"time": 3156, "qpm": 52.000006933334255}, {"time": 3192, "qpm": 48.9999918333347}, {"time": 3288, "qpm": 58.00004253336452}, {"time": 3312, "qpm": 69.00009660013524}, {"time": 3324, "qpm": 68.0000725334107}, {"time": 3360, "qpm": 69.00009660013524}], "key_signatures": [{"time": 0, "root": 0, "mode": "major"}], "time_signatures": [{"time": 0, "numerator": 4, "denominator": 4}, {"time": 0, "numerator": 1, "denominator": 4}], "tracks": [{"program": 4, "is_drum": false, "name": "MELODY", "notes": [{"time": 490, "pitch": 67, "duration": 10, "velocity": 86}, {"time": 508, "pitch": 66, "duration": 3, "velocity": 92}, {"time": 511, "pitch": 64, "duration": 4, "velocity": 63}, {"time": 514, "pitch": 66, "duration": 5, "velocity": 90}, {"time": 526, "pitch": 59, "duration": 5, "velocity": 89}, {"time": 538, "pitch": 64, "duration": 12, "velocity": 83}, {"time": 556, "pitch": 62, "duration": 2, "velocity": 90}, {"time": 559, "pitch": 60, "duration": 4, "velocity": 64}, {"time": 562, "pitch": 62, "duration": 16, "velocity": 88}, {"time": 586, "pitch": 60, "duration": 6, "velocity": 93}, {"time": 604, "pitch": 59, "duration": 2, "velocity": 90}, {"time": 607, "pitch": 57, "duration": 3, "velocity": 62}, {"time": 610, "pitch": 59, "duration": 9, "velocity": 77}, {"time": 616, "pitch": 63, "duration": 6, "velocity": 99}, {"time": 622, "pitch": 64, "duration": 6, "velocity": 96}, {"time": 634, "pitch": 59, "duration": 4, "velocity": 86}, {"time": 646, "pitch": 60, "duration": 12, "velocity": 76}, {"time": 658, "pitch": 59, "duration": 18, "velocity": 77}, {"time": 682, "pitch": 67, "duration": 7, "velocity": 93}, {"time": 700, "pitch": 66, "duration": 3, "velocity": 97}, {"time": 703, "pitch": 64, "duration": 3, "velocity": 76}, {"time": 706, "pitch": 66, "duration": 9, "velocity": 95}, {"time": 718, "pitch": 59, "duration": 7, "velocity": 90}, {"time": 730, "pitch": 71, "duration": 8, "velocity": 117}, {"time": 742, "pitch": 71, "duration": 3, "velocity": 102}, {"time": 745, "pitch": 67, "duration": 2, "velocity": 92}, {"time": 748, "pitch": 69, "duration": 3, "velocity": 92}, {"time": 751, "pitch": 67, "duration": 2, "velocity": 90}, {"time": 754, "pitch": 66, "duration": 12, "velocity": 95}, {"time": 778, "pitch": 69, "duration": 14, "velocity": 107}, {"time": 796, "pitch": 67, "duration": 2, "velocity": 100}, {"time": 799, "pitch": 66, "duration": 2, "velocity": 100}, {"time": 802, "pitch": 67, "duration": 6, "velocity": 99}, {"time": 814, "pitch": 64, "duration": 2, "velocity": 99}, {"time": 826, "pitch": 66, "duration": 4, "velocity": 117}, {"time": 832, "pitch": 67, "duration": 4, "velocity": 97}, {"time": 838, "pitch": 69, "duration": 5, "velocity": 107}, {"time": 844, "pitch": 71, "duration": 10, "velocity": 96}, {"time": 856, "pitch": 66, "duration": 17, "velocity": 92}, {"time": 913, "pitch": 67, "duration": 1, "velocity": 74}, {"time": 916, "pitch": 67, "duration": 2, "velocity": 78}, {"time": 919, "pitch": 66, "duration": 1, "velocity": 96}, {"time": 922, "pitch": 67, "duration": 8, "velocity": 99}, {"time": 931, "pitch": 66, "duration": 1, "velocity": 102}, {"time": 934, "pitch": 67, "duration": 2, "velocity": 95}, {"time": 940, "pitch": 59, "duration": 5, "velocity": 95}, {"time": 946, "pitch": 59, "duration": 2, "velocity": 88}, {"time": 949, "pitch": 67, "duration": 2, "velocity": 96}, {"time": 952, "pitch": 66, "duration": 2, "velocity": 99}, {"time": 955, "pitch": 67, "duration": 3, "velocity": 95}, {"time": 958, "pitch": 66, "duration": 4, "velocity": 107}, {"time": 964, "pitch": 64, "duration": 2, "velocity": 100}, {"time": 967, "pitch": 62, "duration": 3, "velocity": 93}, {"time": 970, "pitch": 64, "duration": 6, "velocity": 97}, {"time": 979, "pitch": 64, "duration": 1, "velocity": 86}, {"time": 982, "pitch": 64, "duration": 1, "velocity": 99}, {"time": 985, "pitch": 66, "duration": 2, "velocity": 97}, {"time": 988, "pitch": 67, "duration": 3, "velocity": 90}, {"time": 991, "pitch": 64, "duration": 2, "velocity": 92}, {"time": 994, "pitch": 62, "duration": 6, "velocity": 92}, {"time": 1009, "pitch": 60, "duration": 1, "velocity": 100}, {"time": 1012, "pitch": 60, "duration": 2, "velocity": 95}, {"time": 1015, "pitch": 59, "duration": 2, "velocity": 90}, {"time": 1018, "pitch": 60, "duration": 6, "velocity": 107}, {"time": 1027, "pitch": 59, "duration": 2, "velocity": 96}, {"time": 1030, "pitch": 60, "duration": 5, "velocity": 107}, {"time": 1042, "pitch": 59, "duration": 6, "velocity": 95}, {"time": 1048, "pitch": 57, "duration": 2, "velocity": 96}, {"time": 1054, "pitch": 55, "duration": 5, "velocity": 79}, {"time": 1060, "pitch": 54, "duration": 5, "velocity": 79}, {"time": 1066, "pitch": 57, "duration": 5, "velocity": 97}, {"time": 1072, "pitch": 59, "duration": 5, "velocity": 107}, {"time": 1078, "pitch": 60, "duration": 4, "velocity": 112}, {"time": 1084, "pitch": 62, "duration": 3, "velocity": 96}, {"time": 1087, "pitch": 60, "duration": 2, "velocity": 85}, {"time": 1090, "pitch": 59, "duration": 10, "velocity": 96}, {"time": 1105, "pitch": 67, "duration": 1, "velocity": 74}, {"time": 1108, "pitch": 67, "duration": 2, "velocity": 78}, {"time": 1111, "pitch": 66, "duration": 1, "velocity": 96}, {"time": 1114, "pitch": 67, "duration": 8, "velocity": 99}, {"time": 1123, "pitch": 66, "duration": 1, "velocity": 102}, {"time": 1126, "pitch": 67, "duration": 2, "velocity": 95}, {"time": 1132, "pitch": 59, "duration": 5, "velocity": 95}, {"time": 1138, "pitch": 59, "duration": 2, "velocity": 88}, {"time": 1141, "pitch": 67, "duration": 2, "velocity": 96}, {"time": 1144, "pitch": 66, "duration": 2, "velocity": 99}, {"time": 1147, "pitch": 67, "duration": 3, "velocity": 95}, {"time": 1150, "pitch": 66, "duration": 4, "velocity": 107}, {"time": 1156, "pitch": 64, "duration": 2, "velocity": 100}, {"time": 1159, "pitch": 62, "duration": 3, "velocity": 93}, {"time": 1162, "pitch": 64, "duration": 6, "velocity": 97}, {"time": 1171, "pitch": 64, "duration": 1, "velocity": 86}, {"time": 1174, "pitch": 64, "duration": 1, "velocity": 99}, {"time": 1177, "pitch": 66, "duration": 2, "velocity": 97}, {"time": 1180, "pitch": 67, "duration": 3, "velocity": 90}, {"time": 1183, "pitch": 69, "duration": 5, "velocity": 99}, {"time": 1189, "pitch": 66, "duration": 9, "velocity": 86}, {"time": 1207, "pitch": 64, "duration": 2, "velocity": 89}, {"time": 1210, "pitch": 69, "duration": 5, "velocity": 107}, {"time": 1216, "pitch": 64, "duration": 6, "velocity": 100}, {"time": 1222, "pitch": 66, "duration": 6, "velocity": 96}, {"time": 1228, "pitch": 64, "duration": 4, "velocity": 97}, {"time": 1234, "pitch": 69, "duration": 4, "velocity": 127}, {"time": 1240, "pitch": 64, "duration": 5, "velocity": 102}, {"time": 1246, "pitch": 66, "duration": 5, "velocity": 117}, {"time": 1252, "pitch": 64, "duration": 3, "velocity": 112}, {"time": 1258, "pitch": 71, "duration": 4, "velocity": 127}, {"time": 1264, "pitch": 69, "duration": 4, "velocity": 122}, {"time": 1270, "pitch": 67, "duration": 4, "velocity": 102}, {"time": 1276, "pitch": 69, "duration": 5, "velocity": 127}, {"time": 1282, "pitch": 71, "duration": 3, "velocity": 127}, {"time": 1294, "pitch": 59, "duration": 8, "velocity": 92}, {"time": 1309, "pitch": 64, "duration": 27, "velocity": 100}, {"time": 1546, "pitch": 67, "duration": 10, "velocity": 86}, {"time": 1564, "pitch": 66, "duration": 3, "velocity": 92}, {"time": 1567, "pitch": 64, "duration": 4, "velocity": 63}, {"time": 1570, "pitch": 66, "duration": 5, "velocity": 90}, {"time": 1582, "pitch": 59, "duration": 5, "velocity": 89}, {"time": 1594, "pitch": 64, "duration": 12, "velocity": 83}, {"time": 1612, "pitch": 62, "duration": 2, "velocity": 90}, {"time": 1615, "pitch": 60, "duration": 4, "velocity": 64}, {"time": 1618, "pitch": 62, "duration": 16, "velocity": 88}, {"time": 1642, "pitch": 60, "duration": 6, "velocity": 93}, {"time": 1660, "pitch": 59, "duration": 2, "velocity": 90}, {"time": 1663, "pitch": 57, "duration": 3, "velocity": 62}, {"time": 1666, "pitch": 59, "duration": 9, "velocity": 77}, {"time": 1672, "pitch": 63, "duration": 6, "velocity": 99}, {"time": 1678, "pitch": 64, "duration": 6, "velocity": 96}, {"time": 1690, "pitch": 59, "duration": 4, "velocity": 86}, {"time": 1702, "pitch": 60, "duration": 12, "velocity": 76}, {"time": 1714, "pitch": 59, "duration": 18, "velocity": 77}, {"time": 1738, "pitch": 67, "duration": 7, "velocity": 93}, {"time": 1756, "pitch": 66, "duration": 3, "velocity": 97}, {"time": 1759, "pitch": 64, "duration": 3, "velocity": 76}, {"time": 1762, "pitch": 66, "duration": 9, "velocity": 95}, {"time": 1774, "pitch": 59, "duration": 7, "velocity": 90}, {"time": 1786, "pitch": 71, "duration": 8, "velocity": 117}, {"time": 1798, "pitch": 71, "duration": 3, "velocity": 102}, {"time": 1801, "pitch": 67, "duration": 2, "velocity": 92}, {"time": 1804, "pitch": 69, "duration": 3, "velocity": 92}, {"time": 1807, "pitch": 67, "duration": 2, "velocity": 90}, {"time": 1810, "pitch": 66, "duration": 12, "velocity": 95}, {"time": 1834, "pitch": 69, "duration": 14, "velocity": 107}, {"time": 1852, "pitch": 67, "duration": 2, "velocity": 100}, {"time": 1855, "pitch": 66, "duration": 2, "velocity": 100}, {"time": 1858, "pitch": 67, "duration": 6, "velocity": 99}, {"time": 1870, "pitch": 64, "duration": 2, "velocity": 99}, {"time": 1882, "pitch": 66, "duration": 4, "velocity": 117}, {"time": 1888, "pitch": 67, "duration": 4, "velocity": 97}, {"time": 1894, "pitch": 69, "duration": 5, "velocity": 107}, {"time": 1900, "pitch": 71, "duration": 10, "velocity": 96}, {"time": 1912, "pitch": 66, "duration": 17, "velocity": 92}, {"time": 1945, "pitch": 67, "duration": 1, "velocity": 74}, {"time": 1948, "pitch": 67, "duration": 2, "velocity": 78}, {"time": 1951, "pitch": 66, "duration": 1, "velocity": 96}, {"time": 1954, "pitch": 67, "duration": 8, "velocity": 99}, {"time": 1963, "pitch": 66, "duration": 1, "velocity": 102}, {"time": 1966, "pitch": 67, "duration": 2, "velocity": 95}, {"time": 1972, "pitch": 59, "duration": 5, "velocity": 95}, {"time": 1978, "pitch": 59, "duration": 2, "velocity": 88}, {"time": 1981, "pitch": 67, "duration": 2, "velocity": 96}, {"time": 1984, "pitch": 66, "duration": 2, "velocity": 99}, {"time": 1987, "pitch": 67, "duration": 3, "velocity": 95}, {"time": 1990, "pitch": 66, "duration": 4, "velocity": 107}, {"time": 1996, "pitch": 64, "duration": 2, "velocity": 100}, {"time": 1999, "pitch": 62, "duration": 3, "velocity": 93}, {"time": 2002, "pitch": 64, "duration": 6, "velocity": 97}, {"time": 2011, "pitch": 64, "duration": 1, "velocity": 86}, {"time": 2014, "pitch": 64, "duration": 1, "velocity": 99}, {"time": 2017, "pitch": 66, "duration": 2, "velocity": 97}, {"time": 2020, "pitch": 67, "duration": 3, "velocity": 90}, {"time": 2023, "pitch": 64, "duration": 2, "velocity": 92}, {"time": 2026, "pitch": 62, "duration": 6, "velocity": 92}, {"time": 2041, "pitch": 60, "duration": 1, "velocity": 100}, {"time": 2044, "pitch": 60, "duration": 2, "velocity": 95}, {"time": 2047, "pitch": 59, "duration": 2, "velocity": 90}, {"time": 2050, "pitch": 60, "duration": 6, "velocity": 107}, {"time": 2059, "pitch": 59, "duration": 2, "velocity": 96}, {"time": 2062, "pitch": 60, "duration": 5, "velocity": 107}, {"time": 2074, "pitch": 59, "duration": 6, "velocity": 95}, {"time": 2080, "pitch": 57, "duration": 2, "velocity": 96}, {"time": 2086, "pitch": 55, "duration": 5, "velocity": 79}, {"time": 2092, "pitch": 54, "duration": 5, "velocity": 79}, {"time": 2098, "pitch": 57, "duration": 5, "velocity": 97}, {"time": 2104, "pitch": 59, "duration": 5, "velocity": 107}, {"time": 2110, "pitch": 60, "duration": 4, "velocity": 112}, {"time": 2116, "pitch": 62, "duration": 3, "velocity": 96}, {"time": 2119, "pitch": 60, "duration": 2, "velocity": 85}, {"time": 2122, "pitch": 59, "duration": 10, "velocity": 96}, {"time": 2137, "pitch": 67, "duration": 1, "velocity": 74}, {"time": 2140, "pitch": 67, "duration": 2, "velocity": 78}, {"time": 2143, "pitch": 66, "duration": 1, "velocity": 96}, {"time": 2146, "pitch": 67, "duration": 8, "velocity": 99}, {"time": 2155, "pitch": 66, "duration": 1, "velocity": 102}, {"time": 2158, "pitch": 67, "duration": 2, "velocity": 95}, {"time": 2164, "pitch": 59, "duration": 5, "velocity": 95}, {"time": 2170, "pitch": 59, "duration": 2, "velocity": 88}, {"time": 2173, "pitch": 67, "duration": 2, "velocity": 96}, {"time": 2176, "pitch": 66, "duration": 2, "velocity": 99}, {"time": 2179, "pitch": 67, "duration": 3, "velocity": 95}, {"time": 2182, "pitch": 66, "duration": 4, "velocity": 107}, {"time": 2188, "pitch": 64, "duration": 2, "velocity": 100}, {"time": 2191, "pitch": 62, "duration": 3, "velocity": 93}, {"time": 2194, "pitch": 64, "duration": 6, "velocity": 97}, {"time": 2203, "pitch": 64, "duration": 1, "velocity": 86}, {"time": 2206, "pitch": 64, "duration": 1, "velocity": 99}, {"time": 2209, "pitch": 66, "duration": 2, "velocity": 97}, {"time": 2212, "pitch": 67, "duration": 3, "velocity": 90}, {"time": 2215, "pitch": 69, "duration": 5, "velocity": 99}, {"time": 2221, "pitch": 66, "duration": 9, "velocity": 86}, {"time": 2239, "pitch": 64, "duration": 2, "velocity": 89}, {"time": 2242, "pitch": 69, "duration": 5, "velocity": 107}, {"time": 2248, "pitch": 64, "duration": 6, "velocity": 100}, {"time": 2254, "pitch": 66, "duration": 6, "velocity": 96}, {"time": 2260, "pitch": 64, "duration": 4, "velocity": 97}, {"time": 2266, "pitch": 69, "duration": 4, "velocity": 127}, {"time": 2272, "pitch": 64, "duration": 5, "velocity": 102}, {"time": 2278, "pitch": 66, "duration": 5, "velocity": 117}, {"time": 2284, "pitch": 64, "duration": 3, "velocity": 112}, {"time": 2290, "pitch": 71, "duration": 4, "velocity": 127}, {"time": 2296, "pitch": 69, "duration": 4, "velocity": 122}, {"time": 2302, "pitch": 67, "duration": 4, "velocity": 102}, {"time": 2308, "pitch": 69, "duration": 5, "velocity": 127}, {"time": 2314, "pitch": 71, "duration": 3, "velocity": 127}, {"time": 2326, "pitch": 59, "duration": 8, "velocity": 92}, {"time": 2341, "pitch": 64, "duration": 27, "velocity": 100}, {"time": 2443, "pitch": 59, "duration": 2, "velocity": 95}, {"time": 2446, "pitch": 64, "duration": 15, "velocity": 99}, {"time": 2467, "pitch": 67, "duration": 2, "velocity": 97}, {"time": 2470, "pitch": 66, "duration": 14, "velocity": 100}, {"time": 2491, "pitch": 69, "duration": 2, "velocity": 100}, {"time": 2494, "pitch": 67, "duration": 8, "velocity": 97}, {"time": 2509, "pitch": 71, "duration": 1, "velocity": 100}, {"time": 2512, "pitch": 69, "duration": 1, "velocity": 100}, {"time": 2515, "pitch": 67, "duration": 1, "velocity": 90}, {"time": 2518, "pitch": 69, "duration": 3, "velocity": 127}, {"time": 2524, "pitch": 71, "duration": 3, "velocity": 107}, {"time": 2530, "pitch": 72, "duration": 4, "velocity": 127}, {"time": 2536, "pitch": 59, "duration": 5, "velocity": 112}, {"time": 2542, "pitch": 64, "duration": 8, "velocity": 117}, {"time": 2563, "pitch": 67, "duration": 2, "velocity": 97}, {"time": 2566, "pitch": 66, "duration": 12, "velocity": 122}, {"time": 2587, "pitch": 69, "duration": 2, "velocity": 117}, {"time": 2590, "pitch": 67, "duration": 10, "velocity": 127}, {"time": 2605, "pitch": 71, "duration": 2, "velocity": 127}, {"time": 2608, "pitch": 69, "duration": 2, "velocity": 100}, {"time": 2611, "pitch": 67, "duration": 1, "velocity": 99}, {"time": 2614, "pitch": 69, "duration": 4, "velocity": 127}, {"time": 2620, "pitch": 71, "duration": 4, "velocity": 127}, {"time": 2626, "pitch": 72, "duration": 5, "velocity": 107}, {"time": 2632, "pitch": 59, "duration": 4, "velocity": 102}, {"time": 2638, "pitch": 64, "duration": 12, "velocity": 112}, {"time": 2659, "pitch": 67, "duration": 2, "velocity": 102}, {"time": 2662, "pitch": 66, "duration": 10, "velocity": 117}, {"time": 2683, "pitch": 69, "duration": 2, "velocity": 107}, {"time": 2686, "pitch": 67, "duration": 12, "velocity": 100}, {"time": 2701, "pitch": 71, "duration": 3, "velocity": 107}, {"time": 2704, "pitch": 69, "duration": 2, "velocity": 99}, {"time": 2707, "pitch": 67, "duration": 4, "velocity": 77}, {"time": 2710, "pitch": 69, "duration": 4, "velocity": 127}, {"time": 2716, "pitch": 71, "duration": 4, "velocity": 127}, {"time": 2722, "pitch": 73, "duration": 5, "velocity": 122}, {"time": 2728, "pitch": 75, "duration": 5, "velocity": 127}, {"time": 2734, "pitch": 76, "duration": 28, "velocity": 127}, {"time": 2758, "pitch": 75, "duration": 9, "velocity": 127}, {"time": 2770, "pitch": 71, "duration": 8, "velocity": 117}, {"time": 2782, "pitch": 69, "duration": 11, "velocity": 112}, {"time": 2797, "pitch": 67, "duration": 1, "velocity": 99}, {"time": 2800, "pitch": 67, "duration": 2, "velocity": 96}, {"time": 2803, "pitch": 66, "duration": 2, "velocity": 112}, {"time": 2806, "pitch": 67, "duration": 4, "velocity": 117}, {"time": 2812, "pitch": 69, "duration": 3, "velocity": 112}, {"time": 2818, "pitch": 71, "duration": 5, "velocity": 127}, {"time": 2830, "pitch": 76, "duration": 11, "velocity": 127}, {"time": 2848, "pitch": 75, "duration": 2, "velocity": 127}, {"time": 2851, "pitch": 73, "duration": 2, "velocity": 97}, {"time": 2854, "pitch": 75, "duration": 11, "velocity": 127}, {"time": 2866, "pitch": 71, "duration": 10, "velocity": 107}, {"time": 2878, "pitch": 69, "duration": 12, "velocity": 117}, {"time": 2893, "pitch": 67, "duration": 1, "velocity": 100}, {"time": 2896, "pitch": 67, "duration": 1, "velocity": 100}, {"time": 2899, "pitch": 66, "duration": 1, "velocity": 122}, {"time": 2902, "pitch": 67, "duration": 4, "velocity": 112}, {"time": 2908, "pitch": 66, "duration": 3, "velocity": 112}, {"time": 2914, "pitch": 64, "duration": 6, "velocity": 122}, {"time": 2926, "pitch": 66, "duration": 3, "velocity": 127}, {"time": 2932, "pitch": 67, "duration": 4, "velocity": 107}, {"time": 2938, "pitch": 69, "duration": 3, "velocity": 127}, {"time": 2944, "pitch": 71, "duration": 3, "velocity": 127}, {"time": 2950, "pitch": 72, "duration": 4, "velocity": 127}, {"time": 2962, "pitch": 74, "duration": 9, "velocity": 127}, {"time": 2974, "pitch": 76, "duration": 28, "velocity": 122}, {"time": 3007, "pitch": 75, "duration": 14, "velocity": 102}, {"time": 3022, "pitch": 75, "duration": 2, "velocity": 122}, {"time": 3028, "pitch": 73, "duration": 2, "velocity": 93}, {"time": 3034, "pitch": 75, "duration": 19, "velocity": 117}, {"time": 3130, "pitch": 76, "duration": 2, "velocity": 95}, {"time": 3136, "pitch": 71, "duration": 2, "velocity": 75}, {"time": 3142, "pitch": 72, "duration": 2, "velocity": 85}, {"time": 3148, "pitch": 74, "duration": 2, "velocity": 90}, {"time": 3154, "pitch": 71, "duration": 8, "velocity": 93}, {"time": 3166, "pitch": 69, "duration": 3, "velocity": 93}, {"time": 3172, "pitch": 67, "duration": 2, "velocity": 88}, {"time": 3178, "pitch": 66, "duration": 5, "velocity": 93}, {"time": 3190, "pitch": 71, "duration": 4, "velocity": 93}, {"time": 3202, "pitch": 64, "duration": 13, "velocity": 92}, {"time": 3226, "pitch": 76, "duration": 2, "velocity": 95}, {"time": 3232, "pitch": 71, "duration": 2, "velocity": 75}, {"time": 3238, "pitch": 72, "duration": 2, "velocity": 85}, {"time": 3244, "pitch": 74, "duration": 2, "velocity": 90}, {"time": 3250, "pitch": 71, "duration": 8, "velocity": 93}, {"time": 3262, "pitch": 69, "duration": 3, "velocity": 93}, {"time": 3268, "pitch": 67, "duration": 2, "velocity": 88}, {"time": 3274, "pitch": 66, "duration": 5, "velocity": 93}, {"time": 3286, "pitch": 71, "duration": 4, "velocity": 93}, {"time": 3310, "pitch": 64, "duration": 13, "velocity": 92}, {"time": 3358, "pitch": 67, "duration": 9, "velocity": 88}, {"time": 3376, "pitch": 66, "duration": 3, "velocity": 95}, {"time": 3379, "pitch": 64, "duration": 1, "velocity": 76}, {"time": 3382, "pitch": 66, "duration": 8, "velocity": 100}, {"time": 3394, "pitch": 59, "duration": 6, "velocity": 92}, {"time": 3406, "pitch": 64, "duration": 7, "velocity": 96}, {"time": 3424, "pitch": 62, "duration": 2, "velocity": 99}, {"time": 3427, "pitch": 60, "duration": 1, "velocity": 78}, {"time": 3430, "pitch": 62, "duration": 8, "velocity": 90}, {"time": 3454, "pitch": 60, "duration": 6, "velocity": 102}, {"time": 3472, "pitch": 59, "duration": 2, "velocity": 75}, {"time": 3475, "pitch": 57, "duration": 3, "velocity": 72}, {"time": 3478, "pitch": 59, "duration": 5, "velocity": 83}, {"time": 3484, "pitch": 63, "duration": 4, "velocity": 99}, {"time": 3490, "pitch": 64, "duration": 7, "velocity": 96}, {"time": 3502, "pitch": 59, "duration": 5, "velocity": 88}, {"time": 3514, "pitch": 60, "duration": 3, "velocity": 88}, {"time": 3526, "pitch": 59, "duration": 8, "velocity": 79}, {"time": 3550, "pitch": 67, "duration": 6, "velocity": 99}, {"time": 3568, "pitch": 66, "duration": 3, "velocity": 99}, {"time": 3571, "pitch": 64, "duration": 2, "velocity": 90}, {"time": 3574, "pitch": 66, "duration": 7, "velocity": 102}, {"time": 3586, "pitch": 59, "duration": 6, "velocity": 96}, {"time": 3598, "pitch": 71, "duration": 10, "velocity": 117}, {"time": 3610, "pitch": 71, "duration": 3, "velocity": 96}, {"time": 3613, "pitch": 67, "duration": 1, "velocity": 89}, {"time": 3616, "pitch": 69, "duration": 3, "velocity": 95}, {"time": 3622, "pitch": 67, "duration": 3, "velocity": 95}, {"time": 3628, "pitch": 66, "duration": 5, "velocity": 112}, {"time": 3646, "pitch": 69, "duration": 5, "velocity": 112}, {"time": 3664, "pitch": 67, "duration": 2, "velocity": 99}, {"time": 3667, "pitch": 66, "duration": 1, "velocity": 97}, {"time": 3670, "pitch": 67, "duration": 5, "velocity": 107}, {"time": 3682, "pitch": 64, "duration": 5, "velocity": 100}, {"time": 3694, "pitch": 66, "duration": 4, "velocity": 117}, {"time": 3700, "pitch": 67, "duration": 5, "velocity": 93}, {"time": 3706, "pitch": 69, "duration": 7, "velocity": 99}, {"time": 3715, "pitch": 71, "duration": 14, "velocity": 95}, {"time": 3736, "pitch": 66, "duration": 39, "velocity": 78}]}, {"program": 0, "is_drum": false, "name": "PIANO", "notes": [{"time": 9, "pitch": 40, "duration": 1, "velocity": 53}, {"time": 9, "pitch": 52, "duration": 1, "velocity": 52}, {"time": 15, "pitch": 55, "duration": 1, "velocity": 39}, {"time": 15, "pitch": 59, "duration": 1, "velocity": 39}, {"time": 15, "pitch": 64, "duration": 1, "velocity": 61}, {"time": 21, "pitch": 40, "duration": 1, "velocity": 53}, {"time": 21, "pitch": 52, "duration": 1, "velocity": 52}, {"time": 27, "pitch": 55, "duration": 1, "velocity": 59}, {"time": 27, "pitch": 59, "duration": 1, "velocity": 50}, {"time": 27, "pitch": 64, "duration": 1, "velocity": 63}, {"time": 33, "pitch": 40, "duration": 1, "velocity": 59}, {"time": 33, "pitch": 52, "duration": 1, "velocity": 50}, {"time": 39, "pitch": 58, "duration": 1, "velocity": 59}, {"time": 39, "pitch": 61, "duration": 1, "velocity": 50}, {"time": 39, "pitch": 67, "duration": 1, "velocity": 58}, {"time": 45, "pitch": 40, "duration": 1, "velocity": 58}, {"time": 45, "pitch": 52, "duration": 1, "velocity": 53}, {"time": 51, "pitch": 57, "duration": 1, "velocity": 58}, {"time": 51, "pitch": 60, "duration": 1, "velocity": 51}, {"time": 51, "pitch": 63, "duration": 1, "velocity": 58}, {"time": 57, "pitch": 40, "duration": 1, "velocity": 63}, {"time": 57, "pitch": 52, "duration": 1, "velocity": 59}, {"time": 63, "pitch": 55, "duration": 1, "velocity": 74}, {"time": 63, "pitch": 59, "duration": 1, "velocity": 53}, {"time": 63, "pitch": 64, "duration": 1, "velocity": 59}, {"time": 69, "pitch": 40, "duration": 1, "velocity": 67}, {"time": 69, "pitch": 52, "duration": 1, "velocity": 59}, {"time": 75, "pitch": 57, "duration": 1, "velocity": 67}, {"time": 75, "pitch": 60, "duration": 1, "velocity": 56}, {"time": 75, "pitch": 66, "duration": 1, "velocity": 74}, {"time": 81, "pitch": 40, "duration": 1, "velocity": 71}, {"time": 81, "pitch": 52, "duration": 1, "velocity": 67}, {"time": 87, "pitch": 58, "duration": 1, "velocity": 68}, {"time": 87, "pitch": 61, "duration": 1, "velocity": 61}, {"time": 87, "pitch": 67, "duration": 1, "velocity": 68}, {"time": 93, "pitch": 40, "duration": 1, "velocity": 67}, {"time": 93, "pitch": 52, "duration": 1, "velocity": 57}, {"time": 99, "pitch": 59, "duration": 1, "velocity": 51}, {"time": 99, "pitch": 62, "duration": 1, "velocity": 46}, {"time": 99, "pitch": 68, "duration": 1, "velocity": 74}, {"time": 105, "pitch": 40, "duration": 1, "velocity": 58}, {"time": 105, "pitch": 52, "duration": 1, "velocity": 51}, {"time": 111, "pitch": 61, "duration": 1, "velocity": 62}, {"time": 111, "pitch": 64, "duration": 1, "velocity": 63}, {"time": 117, "pitch": 40, "duration": 1, "velocity": 63}, {"time": 117, "pitch": 52, "duration": 1, "velocity": 53}, {"time": 123, "pitch": 63, "duration": 1, "velocity": 61}, {"time": 123, "pitch": 66, "duration": 1, "velocity": 62}, {"time": 129, "pitch": 52, "duration": 1, "velocity": 67}, {"time": 129, "pitch": 59, "duration": 1, "velocity": 57}, {"time": 129, "pitch": 64, "duration": 1, "velocity": 64}, {"time": 135, "pitch": 52, "duration": 1, "velocity": 61}, {"time": 135, "pitch": 57, "duration": 1, "velocity": 43}, {"time": 135, "pitch": 64, "duration": 1, "velocity": 56}, {"time": 141, "pitch": 52, "duration": 1, "velocity": 67}, {"time": 141, "pitch": 59, "duration": 1, "velocity": 53}, {"time": 141, "pitch": 64, "duration": 1, "velocity": 56}, {"time": 147, "pitch": 52, "duration": 2, "velocity": 80}, {"time": 149, "pitch": 50, "duration": 2, "velocity": 69}, {"time": 150, "pitch": 48, "duration": 2, "velocity": 67}, {"time": 151, "pitch": 47, "duration": 2, "velocity": 77}, {"time": 153, "pitch": 34, "duration": 12, "velocity": 69}, {"time": 153, "pitch": 46, "duration": 8, "velocity": 72}, {"time": 159, "pitch": 52, "duration": 1, "velocity": 63}, {"time": 159, "pitch": 55, "duration": 1, "velocity": 53}, {"time": 159, "pitch": 60, "duration": 1, "velocity": 59}, {"time": 165, "pitch": 33, "duration": 7, "velocity": 53}, {"time": 165, "pitch": 45, "duration": 7, "velocity": 43}, {"time": 171, "pitch": 54, "duration": 1, "velocity": 51}, {"time": 171, "pitch": 60, "duration": 1, "velocity": 50}, {"time": 177, "pitch": 31, "duration": 6, "velocity": 55}, {"time": 177, "pitch": 41, "duration": 1, "velocity": 42}, {"time": 177, "pitch": 43, "duration": 6, "velocity": 47}, {"time": 183, "pitch": 52, "duration": 1, "velocity": 54}, {"time": 183, "pitch": 59, "duration": 1, "velocity": 74}, {"time": 189, "pitch": 30, "duration": 7, "velocity": 48}, {"time": 189, "pitch": 42, "duration": 7, "velocity": 47}, {"time": 195, "pitch": 54, "duration": 1, "velocity": 64}, {"time": 195, "pitch": 58, "duration": 1, "velocity": 59}, {"time": 195, "pitch": 61, "duration": 1, "velocity": 62}, {"time": 201, "pitch": 42, "duration": 1, "velocity": 57}, {"time": 201, "pitch": 54, "duration": 1, "velocity": 64}, {"time": 207, "pitch": 56, "duration": 1, "velocity": 67}, {"time": 207, "pitch": 59, "duration": 1, "velocity": 56}, {"time": 207, "pitch": 62, "duration": 1, "velocity": 63}, {"time": 213, "pitch": 30, "duration": 7, "velocity": 51}, {"time": 213, "pitch": 42, "duration": 7, "velocity": 53}, {"time": 219, "pitch": 54, "duration": 1, "velocity": 53}, {"time": 219, "pitch": 61, "duration": 1, "velocity": 56}, {"time": 219, "pitch": 64, "duration": 1, "velocity": 58}, {"time": 219, "pitch": 66, "duration": 1, "velocity": 62}, {"time": 225, "pitch": 35, "duration": 1, "velocity": 53}, {"time": 225, "pitch": 47, "duration": 1, "velocity": 44}, {"time": 225, "pitch": 59, "duration": 1, "velocity": 59}, {"time": 225, "pitch": 63, "duration": 1, "velocity": 67}, {"time": 225, "pitch": 66, "duration": 1, "velocity": 78}, {"time": 231, "pitch": 36, "duration": 1, "velocity": 53}, {"time": 231, "pitch": 48, "duration": 1, "velocity": 50}, {"time": 231, "pitch": 58, "duration": 1, "velocity": 69}, {"time": 231, "pitch": 64, "duration": 1, "velocity": 67}, {"time": 231, "pitch": 66, "duration": 1, "velocity": 63}, {"time": 237, "pitch": 35, "duration": 1, "velocity": 83}, {"time": 237, "pitch": 47, "duration": 1, "velocity": 72}, {"time": 237, "pitch": 59, "duration": 1, "velocity": 71}, {"time": 237, "pitch": 63, "duration": 1, "velocity": 67}, {"time": 237, "pitch": 66, "duration": 1, "velocity": 63}, {"time": 243, "pitch": 59, "duration": 3, "velocity": 67}, {"time": 244, "pitch": 57, "duration": 3, "velocity": 55}, {"time": 246, "pitch": 55, "duration": 1, "velocity": 67}, {"time": 248, "pitch": 54, "duration": 2, "velocity": 71}, {"time": 249, "pitch": 28, "duration": 2, "velocity": 72}, {"time": 249, "pitch": 40, "duration": 2, "velocity": 68}, {"time": 255, "pitch": 55, "duration": 1, "velocity": 52}, {"time": 255, "pitch": 59, "duration": 1, "velocity": 58}, {"time": 255, "pitch": 64, "duration": 1, "velocity": 56}, {"time": 261, "pitch": 28, "duration": 1, "velocity": 67}, {"time": 261, "pitch": 40, "duration": 1, "velocity": 59}, {"time": 267, "pitch": 57, "duration": 1, "velocity": 61}, {"time": 267, "pitch": 60, "duration": 1, "velocity": 48}, {"time": 267, "pitch": 66, "duration": 1, "velocity": 70}, {"time": 273, "pitch": 28, "duration": 1, "velocity": 76}, {"time": 273, "pitch": 40, "duration": 1, "velocity": 69}, {"time": 279, "pitch": 58, "duration": 1, "velocity": 58}, {"time": 279, "pitch": 61, "duration": 1, "velocity": 59}, {"time": 279, "pitch": 67, "duration": 1, "velocity": 63}, {"time": 285, "pitch": 28, "duration": 1, "velocity": 74}, {"time": 285, "pitch": 40, "duration": 1, "velocity": 63}, {"time": 291, "pitch": 59, "duration": 1, "velocity": 53}, {"time": 291, "pitch": 62, "duration": 1, "velocity": 53}, {"time": 291, "pitch": 68, "duration": 1, "velocity": 49}, {"time": 297, "pitch": 28, "duration": 1, "velocity": 67}, {"time": 297, "pitch": 40, "duration": 1, "velocity": 59}, {"time": 303, "pitch": 61, "duration": 1, "velocity": 67}, {"time": 303, "pitch": 64, "duration": 1, "velocity": 40}, {"time": 309, "pitch": 28, "duration": 1, "velocity": 63}, {"time": 309, "pitch": 40, "duration": 1, "velocity": 50}, {"time": 315, "pitch": 63, "duration": 1, "velocity": 61}, {"time": 315, "pitch": 66, "duration": 1, "velocity": 60}, {"time": 321, "pitch": 52, "duration": 1, "velocity": 72}, {"time": 321, "pitch": 59, "duration": 1, "velocity": 58}, {"time": 321, "pitch": 64, "duration": 1, "velocity": 61}, {"time": 327, "pitch": 52, "duration": 1, "velocity": 72}, {"time": 327, "pitch": 57, "duration": 1, "velocity": 64}, {"time": 327, "pitch": 64, "duration": 1, "velocity": 67}, {"time": 333, "pitch": 52, "duration": 1, "velocity": 76}, {"time": 333, "pitch": 57, "duration": 1, "velocity": 47}, {"time": 333, "pitch": 64, "duration": 1, "velocity": 57}, {"time": 339, "pitch": 67, "duration": 2, "velocity": 66}, {"time": 340, "pitch": 66, "duration": 2, "velocity": 61}, {"time": 342, "pitch": 64, "duration": 2, "velocity": 64}, {"time": 344, "pitch": 62, "duration": 2, "velocity": 63}, {"time": 345, "pitch": 54, "duration": 12, "velocity": 79}, {"time": 345, "pitch": 58, "duration": 13, "velocity": 88}, {"time": 345, "pitch": 61, "duration": 12, "velocity": 87}, {"time": 345, "pitch": 64, "duration": 13, "velocity": 85}, {"time": 363, "pitch": 59, "duration": 1, "velocity": 80}, {"time": 363, "pitch": 66, "duration": 1, "velocity": 76}, {"time": 364, "pitch": 64, "duration": 2, "velocity": 67}, {"time": 366, "pitch": 63, "duration": 2, "velocity": 79}, {"time": 368, "pitch": 61, "duration": 1, "velocity": 77}, {"time": 369, "pitch": 52, "duration": 12, "velocity": 79}, {"time": 369, "pitch": 56, "duration": 13, "velocity": 84}, {"time": 369, "pitch": 59, "duration": 13, "velocity": 88}, {"time": 369, "pitch": 62, "duration": 13, "velocity": 81}, {"time": 387, "pitch": 57, "duration": 1, "velocity": 91}, {"time": 387, "pitch": 64, "duration": 2, "velocity": 67}, {"time": 388, "pitch": 62, "duration": 2, "velocity": 67}, {"time": 390, "pitch": 61, "duration": 2, "velocity": 74}, {"time": 392, "pitch": 59, "duration": 1, "velocity": 72}, {"time": 393, "pitch": 50, "duration": 12, "velocity": 77}, {"time": 393, "pitch": 54, "duration": 12, "velocity": 83}, {"time": 393, "pitch": 57, "duration": 13, "velocity": 87}, {"time": 393, "pitch": 60, "duration": 13, "velocity": 83}, {"time": 411, "pitch": 55, "duration": 1, "velocity": 91}, {"time": 411, "pitch": 62, "duration": 1, "velocity": 56}, {"time": 412, "pitch": 60, "duration": 2, "velocity": 65}, {"time": 414, "pitch": 59, "duration": 1, "velocity": 61}, {"time": 415, "pitch": 57, "duration": 2, "velocity": 62}, {"time": 417, "pitch": 55, "duration": 1, "velocity": 83}, {"time": 417, "pitch": 59, "duration": 1, "velocity": 80}, {"time": 417, "pitch": 63, "duration": 1, "velocity": 85}, {"time": 423, "pitch": 54, "duration": 1, "velocity": 88}, {"time": 423, "pitch": 57, "duration": 1, "velocity": 91}, {"time": 423, "pitch": 59, "duration": 1, "velocity": 67}, {"time": 423, "pitch": 69, "duration": 1, "velocity": 75}, {"time": 426, "pitch": 59, "duration": 1, "velocity": 61}, {"time": 426, "pitch": 67, "duration": 1, "velocity": 71}, {"time": 429, "pitch": 52, "duration": 1, "velocity": 79}, {"time": 429, "pitch": 55, "duration": 1, "velocity": 87}, {"time": 429, "pitch": 59, "duration": 1, "velocity": 90}, {"time": 442, "pitch": 64, "duration": 3, "velocity": 64}, {"time": 445, "pitch": 71, "duration": 3, "velocity": 57}, {"time": 448, "pitch": 67, "duration": 3, "velocity": 62}, {"time": 451, "pitch": 71, "duration": 3, "velocity": 55}, {"time": 454, "pitch": 64, "duration": 3, "velocity": 53}, {"time": 457, "pitch": 71, "duration": 3, "velocity": 63}, {"time": 460, "pitch": 67, "duration": 3, "velocity": 53}, {"time": 463, "pitch": 71, "duration": 2, "velocity": 54}, {"time": 466, "pitch": 64, "duration": 3, "velocity": 46}, {"time": 469, "pitch": 71, "duration": 3, "velocity": 57}, {"time": 472, "pitch": 67, "duration": 3, "velocity": 49}, {"time": 475, "pitch": 71, "duration": 3, "velocity": 55}, {"time": 478, "pitch": 64, "duration": 4, "velocity": 42}, {"time": 481, "pitch": 71, "duration": 3, "velocity": 59}, {"time": 484, "pitch": 67, "duration": 3, "velocity": 53}, {"time": 487, "pitch": 71, "duration": 2, "velocity": 69}, {"time": 490, "pitch": 40, "duration": 21, "velocity": 42}, {"time": 490, "pitch": 64, "duration": 2, "velocity": 66}, {"time": 493, "pitch": 71, "duration": 2, "velocity": 65}, {"time": 496, "pitch": 67, "duration": 3, "velocity": 44}, {"time": 499, "pitch": 71, "duration": 3, "velocity": 61}, {"time": 502, "pitch": 64, "duration": 3, "velocity": 50}, {"time": 505, "pitch": 71, "duration": 2, "velocity": 57}, {"time": 508, "pitch": 67, "duration": 4, "velocity": 51}, {"time": 511, "pitch": 71, "duration": 2, "velocity": 56}, {"time": 514, "pitch": 38, "duration": 23, "velocity": 34}, {"time": 514, "pitch": 62, "duration": 3, "velocity": 58}, {"time": 517, "pitch": 71, "duration": 3, "velocity": 64}, {"time": 520, "pitch": 67, "duration": 3, "velocity": 53}, {"time": 523, "pitch": 71, "duration": 2, "velocity": 61}, {"time": 526, "pitch": 62, "duration": 3, "velocity": 39}, {"time": 529, "pitch": 71, "duration": 2, "velocity": 72}, {"time": 532, "pitch": 67, "duration": 3, "velocity": 51}, {"time": 535, "pitch": 71, "duration": 3, "velocity": 68}, {"time": 538, "pitch": 36, "duration": 22, "velocity": 35}, {"time": 538, "pitch": 64, "duration": 3, "velocity": 40}, {"time": 541, "pitch": 71, "duration": 3, "velocity": 55}, {"time": 544, "pitch": 67, "duration": 3, "velocity": 53}, {"time": 547, "pitch": 71, "duration": 3, "velocity": 57}, {"time": 550, "pitch": 64, "duration": 3, "velocity": 43}, {"time": 553, "pitch": 71, "duration": 2, "velocity": 63}, {"time": 556, "pitch": 64, "duration": 2, "velocity": 55}, {"time": 559, "pitch": 71, "duration": 3, "velocity": 61}, {"time": 562, "pitch": 43, "duration": 18, "velocity": 39}, {"time": 562, "pitch": 67, "duration": 2, "velocity": 44}, {"time": 565, "pitch": 62, "duration": 3, "velocity": 38}, {"time": 568, "pitch": 71, "duration": 4, "velocity": 72}, {"time": 571, "pitch": 62, "duration": 3, "velocity": 52}, {"time": 574, "pitch": 71, "duration": 3, "velocity": 69}, {"time": 577, "pitch": 62, "duration": 6, "velocity": 51}, {"time": 580, "pitch": 67, "duration": 3, "velocity": 43}, {"time": 583, "pitch": 71, "duration": 1, "velocity": 62}, {"time": 586, "pitch": 45, "duration": 15, "velocity": 40}, {"time": 586, "pitch": 69, "duration": 3, "velocity": 58}, {"time": 589, "pitch": 64, "duration": 4, "velocity": 41}, {"time": 592, "pitch": 52, "duration": 6, "velocity": 34}, {"time": 592, "pitch": 69, "duration": 3, "velocity": 50}, {"time": 595, "pitch": 64, "duration": 4, "velocity": 49}, {"time": 598, "pitch": 72, "duration": 8, "velocity": 69}, {"time": 601, "pitch": 64, "duration": 3, "velocity": 62}, {"time": 604, "pitch": 69, "duration": 2, "velocity": 42}, {"time": 607, "pitch": 64, "duration": 3, "velocity": 53}, {"time": 610, "pitch": 43, "duration": 18, "velocity": 54}, {"time": 610, "pitch": 71, "duration": 4, "velocity": 60}, {"time": 613, "pitch": 62, "duration": 4, "velocity": 38}, {"time": 616, "pitch": 67, "duration": 3, "velocity": 52}, {"time": 619, "pitch": 62, "duration": 4, "velocity": 48}, {"time": 622, "pitch": 71, "duration": 7, "velocity": 69}, {"time": 625, "pitch": 67, "duration": 2, "velocity": 41}, {"time": 628, "pitch": 62, "duration": 4, "velocity": 47}, {"time": 634, "pitch": 42, "duration": 15, "velocity": 67}, {"time": 634, "pitch": 66, "duration": 3, "velocity": 63}, {"time": 637, "pitch": 69, "duration": 3, "velocity": 61}, {"time": 640, "pitch": 66, "duration": 7, "velocity": 56}, {"time": 643, "pitch": 69, "duration": 3, "velocity": 55}, {"time": 646, "pitch": 54, "duration": 1, "velocity": 41}, {"time": 646, "pitch": 72, "duration": 4, "velocity": 64}, {"time": 649, "pitch": 66, "duration": 7, "velocity": 58}, {"time": 652, "pitch": 69, "duration": 5, "velocity": 59}, {"time": 655, "pitch": 72, "duration": 2, "velocity": 52}, {"time": 658, "pitch": 47, "duration": 17, "velocity": 52}, {"time": 661, "pitch": 54, "duration": 10, "velocity": 45}, {"time": 664, "pitch": 59, "duration": 7, "velocity": 54}, {"time": 667, "pitch": 63, "duration": 4, "velocity": 50}, {"time": 670, "pitch": 66, "duration": 9, "velocity": 83}, {"time": 673, "pitch": 54, "duration": 2, "velocity": 48}, {"time": 676, "pitch": 63, "duration": 4, "velocity": 57}, {"time": 682, "pitch": 40, "duration": 24, "velocity": 57}, {"time": 682, "pitch": 64, "duration": 4, "velocity": 72}, {"time": 685, "pitch": 71, "duration": 4, "velocity": 66}, {"time": 688, "pitch": 47, "duration": 11, "velocity": 27}, {"time": 688, "pitch": 67, "duration": 3, "velocity": 45}, {"time": 691, "pitch": 71, "duration": 3, "velocity": 69}, {"time": 694, "pitch": 52, "duration": 4, "velocity": 29}, {"time": 694, "pitch": 67, "duration": 3, "velocity": 52}, {"time": 697, "pitch": 71, "duration": 6, "velocity": 66}, {"time": 700, "pitch": 67, "duration": 3, "velocity": 49}, {"time": 703, "pitch": 64, "duration": 2, "velocity": 57}, {"time": 706, "pitch": 38, "duration": 24, "velocity": 36}, {"time": 706, "pitch": 71, "duration": 4, "velocity": 55}, {"time": 709, "pitch": 67, "duration": 3, "velocity": 48}, {"time": 712, "pitch": 62, "duration": 4, "velocity": 61}, {"time": 715, "pitch": 67, "duration": 2, "velocity": 55}, {"time": 718, "pitch": 71, "duration": 5, "velocity": 75}, {"time": 721, "pitch": 67, "duration": 2, "velocity": 48}, {"time": 724, "pitch": 62, "duration": 6, "velocity": 50}, {"time": 727, "pitch": 71, "duration": 1, "velocity": 56}, {"time": 730, "pitch": 36, "duration": 15, "velocity": 48}, {"time": 730, "pitch": 67, "duration": 1, "velocity": 27}, {"time": 733, "pitch": 64, "duration": 3, "velocity": 59}, {"time": 733, "pitch": 67, "duration": 1, "velocity": 31}, {"time": 736, "pitch": 60, "duration": 7, "velocity": 63}, {"time": 739, "pitch": 64, "duration": 2, "velocity": 50}, {"time": 742, "pitch": 67, "duration": 5, "velocity": 81}, {"time": 745, "pitch": 64, "duration": 2, "velocity": 68}, {"time": 748, "pitch": 60, "duration": 4, "velocity": 63}, {"time": 751, "pitch": 67, "duration": 2, "velocity": 78}, {"time": 754, "pitch": 47, "duration": 15, "velocity": 67}, {"time": 754, "pitch": 59, "duration": 3, "velocity": 58}, {"time": 757, "pitch": 51, "duration": 11, "velocity": 72}, {"time": 760, "pitch": 54, "duration": 7, "velocity": 64}, {"time": 763, "pitch": 59, "duration": 4, "velocity": 64}, {"time": 766, "pitch": 66, "duration": 11, "velocity": 96}, {"time": 769, "pitch": 63, "duration": 8, "velocity": 90}, {"time": 772, "pitch": 59, "duration": 6, "velocity": 66}, {"time": 778, "pitch": 45, "duration": 13, "velocity": 69}, {"time": 781, "pitch": 52, "duration": 9, "velocity": 54}, {"time": 784, "pitch": 57, "duration": 6, "velocity": 56}, {"time": 787, "pitch": 60, "duration": 2, "velocity": 52}, {"time": 790, "pitch": 64, "duration": 12, "velocity": 76}, {"time": 802, "pitch": 43, "duration": 14, "velocity": 62}, {"time": 805, "pitch": 50, "duration": 10, "velocity": 59}, {"time": 808, "pitch": 55, "duration": 6, "velocity": 50}, {"time": 811, "pitch": 59, "duration": 4, "velocity": 56}, {"time": 814, "pitch": 62, "duration": 11, "velocity": 78}, {"time": 820, "pitch": 59, "duration": 4, "velocity": 56}, {"time": 826, "pitch": 42, "duration": 16, "velocity": 61}, {"time": 829, "pitch": 54, "duration": 10, "velocity": 55}, {"time": 832, "pitch": 57, "duration": 5, "velocity": 52}, {"time": 835, "pitch": 60, "duration": 2, "velocity": 69}, {"time": 838, "pitch": 60, "duration": 6, "velocity": 85}, {"time": 841, "pitch": 54, "duration": 2, "velocity": 77}, {"time": 844, "pitch": 57, "duration": 5, "velocity": 79}, {"time": 847, "pitch": 60, "duration": 2, "velocity": 79}, {"time": 850, "pitch": 47, "duration": 21, "velocity": 60}, {"time": 853, "pitch": 54, "duration": 10, "velocity": 59}, {"time": 856, "pitch": 59, "duration": 8, "velocity": 59}, {"time": 859, "pitch": 63, "duration": 4, "velocity": 75}, {"time": 862, "pitch": 66, "duration": 7, "velocity": 90}, {"time": 865, "pitch": 54, "duration": 7, "velocity": 75}, {"time": 868, "pitch": 63, "duration": 4, "velocity": 67}, {"time": 871, "pitch": 59, "duration": 44, "velocity": 63}, {"time": 874, "pitch": 47, "duration": 41, "velocity": 48}, {"time": 874, "pitch": 54, "duration": 42, "velocity": 59}, {"time": 874, "pitch": 63, "duration": 41, "velocity": 61}, {"time": 874, "pitch": 66, "duration": 41, "velocity": 61}, {"time": 880, "pitch": 81, "duration": 4, "velocity": 62}, {"time": 883, "pitch": 83, "duration": 2, "velocity": 57}, {"time": 886, "pitch": 87, "duration": 4, "velocity": 85}, {"time": 889, "pitch": 83, "duration": 4, "velocity": 64}, {"time": 892, "pitch": 90, "duration": 4, "velocity": 71}, {"time": 895, "pitch": 83, "duration": 3, "velocity": 62}, {"time": 898, "pitch": 95, "duration": 9, "velocity": 71}, {"time": 922, "pitch": 40, "duration": 22, "velocity": 81}, {"time": 925, "pitch": 47, "duration": 18, "velocity": 40}, {"time": 928, "pitch": 52, "duration": 14, "velocity": 51}, {"time": 931, "pitch": 59, "duration": 4, "velocity": 47}, {"time": 934, "pitch": 67, "duration": 12, "velocity": 78}, {"time": 937, "pitch": 59, "duration": 3, "velocity": 52}, {"time": 940, "pitch": 64, "duration": 6, "velocity": 63}, {"time": 943, "pitch": 59, "duration": 3, "velocity": 58}, {"time": 946, "pitch": 38, "duration": 20, "velocity": 56}, {"time": 949, "pitch": 45, "duration": 15, "velocity": 38}, {"time": 952, "pitch": 50, "duration": 11, "velocity": 51}, {"time": 955, "pitch": 57, "duration": 9, "velocity": 33}, {"time": 958, "pitch": 66, "duration": 12, "velocity": 85}, {"time": 964, "pitch": 62, "duration": 5, "velocity": 47}, {"time": 970, "pitch": 36, "duration": 15, "velocity": 61}, {"time": 973, "pitch": 43, "duration": 13, "velocity": 37}, {"time": 976, "pitch": 48, "duration": 9, "velocity": 59}, {"time": 979, "pitch": 55, "duration": 10, "velocity": 56}, {"time": 982, "pitch": 64, "duration": 12, "velocity": 79}, {"time": 988, "pitch": 60, "duration": 6, "velocity": 63}, {"time": 994, "pitch": 47, "duration": 16, "velocity": 63}, {"time": 997, "pitch": 54, "duration": 13, "velocity": 63}, {"time": 1000, "pitch": 59, "duration": 7, "velocity": 56}, {"time": 1003, "pitch": 62, "duration": 4, "velocity": 68}, {"time": 1006, "pitch": 66, "duration": 12, "velocity": 88}, {"time": 1009, "pitch": 62, "duration": 3, "velocity": 66}, {"time": 1012, "pitch": 59, "duration": 6, "velocity": 59}, {"time": 1015, "pitch": 62, "duration": 3, "velocity": 60}, {"time": 1018, "pitch": 45, "duration": 19, "velocity": 68}, {"time": 1021, "pitch": 52, "duration": 15, "velocity": 57}, {"time": 1024, "pitch": 57, "duration": 7, "velocity": 56}, {"time": 1027, "pitch": 60, "duration": 3, "velocity": 63}, {"time": 1030, "pitch": 64, "duration": 12, "velocity": 86}, {"time": 1036, "pitch": 60, "duration": 6, "velocity": 47}, {"time": 1042, "pitch": 43, "duration": 22, "velocity": 68}, {"time": 1045, "pitch": 50, "duration": 10, "velocity": 44}, {"time": 1048, "pitch": 55, "duration": 4, "velocity": 63}, {"time": 1051, "pitch": 59, "duration": 4, "velocity": 66}, {"time": 1054, "pitch": 62, "duration": 12, "velocity": 88}, {"time": 1057, "pitch": 50, "duration": 7, "velocity": 55}, {"time": 1060, "pitch": 59, "duration": 6, "velocity": 62}, {"time": 1063, "pitch": 55, "duration": 2, "velocity": 45}, {"time": 1066, "pitch": 42, "duration": 18, "velocity": 58}, {"time": 1069, "pitch": 48, "duration": 11, "velocity": 50}, {"time": 1072, "pitch": 54, "duration": 6, "velocity": 73}, {"time": 1075, "pitch": 57, "duration": 8, "velocity": 58}, {"time": 1078, "pitch": 60, "duration": 7, "velocity": 66}, {"time": 1081, "pitch": 48, "duration": 4, "velocity": 50}, {"time": 1084, "pitch": 54, "duration": 5, "velocity": 69}, {"time": 1084, "pitch": 57, "duration": 1, "velocity": 25}, {"time": 1087, "pitch": 57, "duration": 1, "velocity": 30}, {"time": 1090, "pitch": 47, "duration": 16, "velocity": 55}, {"time": 1093, "pitch": 54, "duration": 11, "velocity": 73}, {"time": 1096, "pitch": 59, "duration": 4, "velocity": 88}, {"time": 1099, "pitch": 63, "duration": 3, "velocity": 88}, {"time": 1102, "pitch": 66, "duration": 11, "velocity": 112}, {"time": 1105, "pitch": 54, "duration": 1, "velocity": 69}, {"time": 1108, "pitch": 63, "duration": 5, "velocity": 93}, {"time": 1111, "pitch": 59, "duration": 4, "velocity": 78}, {"time": 1114, "pitch": 40, "duration": 18, "velocity": 83}, {"time": 1117, "pitch": 47, "duration": 11, "velocity": 58}, {"time": 1120, "pitch": 52, "duration": 4, "velocity": 89}, {"time": 1123, "pitch": 59, "duration": 9, "velocity": 79}, {"time": 1126, "pitch": 67, "duration": 11, "velocity": 112}, {"time": 1129, "pitch": 47, "duration": 3, "velocity": 68}, {"time": 1132, "pitch": 64, "duration": 6, "velocity": 96}, {"time": 1135, "pitch": 59, "duration": 3, "velocity": 81}, {"time": 1138, "pitch": 38, "duration": 18, "velocity": 82}, {"time": 1141, "pitch": 45, "duration": 10, "velocity": 58}, {"time": 1144, "pitch": 50, "duration": 7, "velocity": 79}, {"time": 1147, "pitch": 57, "duration": 6, "velocity": 81}, {"time": 1150, "pitch": 66, "duration": 11, "velocity": 112}, {"time": 1153, "pitch": 45, "duration": 3, "velocity": 81}, {"time": 1156, "pitch": 62, "duration": 5, "velocity": 95}, {"time": 1159, "pitch": 57, "duration": 3, "velocity": 93}, {"time": 1162, "pitch": 36, "duration": 16, "velocity": 77}, {"time": 1165, "pitch": 43, "duration": 13, "velocity": 62}, {"time": 1168, "pitch": 48, "duration": 7, "velocity": 86}, {"time": 1171, "pitch": 55, "duration": 9, "velocity": 79}, {"time": 1174, "pitch": 64, "duration": 7, "velocity": 99}, {"time": 1177, "pitch": 48, "duration": 3, "velocity": 88}, {"time": 1180, "pitch": 60, "duration": 5, "velocity": 88}, {"time": 1183, "pitch": 64, "duration": 2, "velocity": 82}, {"time": 1186, "pitch": 47, "duration": 18, "velocity": 72}, {"time": 1189, "pitch": 54, "duration": 10, "velocity": 77}, {"time": 1192, "pitch": 59, "duration": 8, "velocity": 58}, {"time": 1195, "pitch": 63, "duration": 4, "velocity": 63}, {"time": 1198, "pitch": 66, "duration": 12, "velocity": 100}, {"time": 1201, "pitch": 54, "duration": 3, "velocity": 57}, {"time": 1204, "pitch": 63, "duration": 6, "velocity": 64}, {"time": 1210, "pitch": 45, "duration": 19, "velocity": 78}, {"time": 1213, "pitch": 52, "duration": 10, "velocity": 71}, {"time": 1216, "pitch": 57, "duration": 5, "velocity": 75}, {"time": 1219, "pitch": 60, "duration": 2, "velocity": 69}, {"time": 1222, "pitch": 64, "duration": 12, "velocity": 100}, {"time": 1225, "pitch": 52, "duration": 3, "velocity": 67}, {"time": 1228, "pitch": 60, "duration": 6, "velocity": 73}, {"time": 1231, "pitch": 57, "duration": 3, "velocity": 70}, {"time": 1234, "pitch": 43, "duration": 19, "velocity": 76}, {"time": 1237, "pitch": 50, "duration": 11, "velocity": 60}, {"time": 1240, "pitch": 59, "duration": 3, "velocity": 75}, {"time": 1243, "pitch": 55, "duration": 4, "velocity": 77}, {"time": 1246, "pitch": 62, "duration": 11, "velocity": 99}, {"time": 1249, "pitch": 50, "duration": 4, "velocity": 77}, {"time": 1252, "pitch": 59, "duration": 5, "velocity": 112}, {"time": 1255, "pitch": 55, "duration": 2, "velocity": 88}, {"time": 1258, "pitch": 42, "duration": 16, "velocity": 100}, {"time": 1261, "pitch": 54, "duration": 9, "velocity": 90}, {"time": 1264, "pitch": 57, "duration": 3, "velocity": 93}, {"time": 1267, "pitch": 60, "duration": 2, "velocity": 95}, {"time": 1270, "pitch": 60, "duration": 6, "velocity": 117}, {"time": 1273, "pitch": 54, "duration": 2, "velocity": 95}, {"time": 1276, "pitch": 57, "duration": 4, "velocity": 92}, {"time": 1279, "pitch": 60, "duration": 3, "velocity": 90}, {"time": 1282, "pitch": 47, "duration": 42, "velocity": 78}, {"time": 1285, "pitch": 54, "duration": 36, "velocity": 62}, {"time": 1288, "pitch": 59, "duration": 7, "velocity": 83}, {"time": 1291, "pitch": 63, "duration": 32, "velocity": 53}, {"time": 1294, "pitch": 66, "duration": 29, "velocity": 83}, {"time": 1330, "pitch": 52, "duration": 24, "velocity": 60}, {"time": 1333, "pitch": 67, "duration": 3, "velocity": 61}, {"time": 1336, "pitch": 64, "duration": 7, "velocity": 48}, {"time": 1339, "pitch": 67, "duration": 2, "velocity": 48}, {"time": 1342, "pitch": 71, "duration": 6, "velocity": 72}, {"time": 1345, "pitch": 64, "duration": 6, "velocity": 49}, {"time": 1348, "pitch": 67, "duration": 5, "velocity": 56}, {"time": 1351, "pitch": 71, "duration": 3, "velocity": 68}, {"time": 1354, "pitch": 51, "duration": 22, "velocity": 50}, {"time": 1357, "pitch": 63, "duration": 4, "velocity": 49}, {"time": 1360, "pitch": 67, "duration": 6, "velocity": 58}, {"time": 1363, "pitch": 63, "duration": 3, "velocity": 56}, {"time": 1366, "pitch": 71, "duration": 12, "velocity": 59}, {"time": 1369, "pitch": 63, "duration": 4, "velocity": 41}, {"time": 1372, "pitch": 67, "duration": 5, "velocity": 44}, {"time": 1375, "pitch": 63, "duration": 3, "velocity": 53}, {"time": 1378, "pitch": 51, "duration": 18, "velocity": 47}, {"time": 1381, "pitch": 63, "duration": 4, "velocity": 50}, {"time": 1384, "pitch": 67, "duration": 6, "velocity": 56}, {"time": 1387, "pitch": 63, "duration": 4, "velocity": 54}, {"time": 1390, "pitch": 71, "duration": 12, "velocity": 62}, {"time": 1393, "pitch": 63, "duration": 3, "velocity": 47}, {"time": 1396, "pitch": 67, "duration": 5, "velocity": 56}, {"time": 1399, "pitch": 63, "duration": 2, "velocity": 48}, {"time": 1402, "pitch": 52, "duration": 13, "velocity": 47}, {"time": 1405, "pitch": 64, "duration": 4, "velocity": 44}, {"time": 1408, "pitch": 67, "duration": 4, "velocity": 61}, {"time": 1411, "pitch": 64, "duration": 4, "velocity": 53}, {"time": 1414, "pitch": 71, "duration": 10, "velocity": 77}, {"time": 1417, "pitch": 64, "duration": 3, "velocity": 53}, {"time": 1420, "pitch": 67, "duration": 4, "velocity": 47}, {"time": 1423, "pitch": 64, "duration": 3, "velocity": 59}, {"time": 1426, "pitch": 49, "duration": 18, "velocity": 52}, {"time": 1429, "pitch": 61, "duration": 4, "velocity": 69}, {"time": 1432, "pitch": 64, "duration": 9, "velocity": 56}, {"time": 1435, "pitch": 61, "duration": 3, "velocity": 43}, {"time": 1438, "pitch": 67, "duration": 11, "velocity": 55}, {"time": 1441, "pitch": 61, "duration": 4, "velocity": 50}, {"time": 1444, "pitch": 64, "duration": 6, "velocity": 63}, {"time": 1447, "pitch": 61, "duration": 3, "velocity": 55}, {"time": 1450, "pitch": 48, "duration": 23, "velocity": 50}, {"time": 1453, "pitch": 60, "duration": 4, "velocity": 56}, {"time": 1453, "pitch": 64, "duration": 1, "velocity": 23}, {"time": 1456, "pitch": 64, "duration": 6, "velocity": 64}, {"time": 1459, "pitch": 60, "duration": 4, "velocity": 53}, {"time": 1462, "pitch": 67, "duration": 11, "velocity": 85}, {"time": 1465, "pitch": 60, "duration": 3, "velocity": 63}, {"time": 1468, "pitch": 64, "duration": 5, "velocity": 64}, {"time": 1471, "pitch": 60, "duration": 3, "velocity": 74}, {"time": 1474, "pitch": 47, "duration": 21, "velocity": 64}, {"time": 1477, "pitch": 59, "duration": 4, "velocity": 52}, {"time": 1480, "pitch": 62, "duration": 4, "velocity": 54}, {"time": 1483, "pitch": 59, "duration": 4, "velocity": 64}, {"time": 1486, "pitch": 65, "duration": 10, "velocity": 79}, {"time": 1489, "pitch": 59, "duration": 3, "velocity": 62}, {"time": 1492, "pitch": 62, "duration": 4, "velocity": 64}, {"time": 1495, "pitch": 59, "duration": 3, "velocity": 72}, {"time": 1498, "pitch": 46, "duration": 24, "velocity": 52}, {"time": 1501, "pitch": 58, "duration": 4, "velocity": 38}, {"time": 1504, "pitch": 62, "duration": 8, "velocity": 60}, {"time": 1507, "pitch": 58, "duration": 4, "velocity": 50}, {"time": 1510, "pitch": 65, "duration": 11, "velocity": 51}, {"time": 1513, "pitch": 58, "duration": 4, "velocity": 42}, {"time": 1516, "pitch": 62, "duration": 5, "velocity": 65}, {"time": 1519, "pitch": 58, "duration": 2, "velocity": 51}, {"time": 1522, "pitch": 47, "duration": 1, "velocity": 76}, {"time": 1522, "pitch": 59, "duration": 1, "velocity": 85}, {"time": 1525, "pitch": 46, "duration": 1, "velocity": 86}, {"time": 1525, "pitch": 58, "duration": 1, "velocity": 77}, {"time": 1528, "pitch": 47, "duration": 1, "velocity": 79}, {"time": 1528, "pitch": 59, "duration": 1, "velocity": 78}, {"time": 1531, "pitch": 48, "duration": 1, "velocity": 89}, {"time": 1531, "pitch": 60, "duration": 1, "velocity": 97}, {"time": 1534, "pitch": 47, "duration": 1, "velocity": 96}, {"time": 1534, "pitch": 59, "duration": 1, "velocity": 93}, {"time": 1537, "pitch": 45, "duration": 1, "velocity": 81}, {"time": 1537, "pitch": 57, "duration": 1, "velocity": 92}, {"time": 1540, "pitch": 43, "duration": 1, "velocity": 89}, {"time": 1540, "pitch": 55, "duration": 1, "velocity": 88}, {"time": 1543, "pitch": 42, "duration": 1, "velocity": 102}, {"time": 1543, "pitch": 54, "duration": 1, "velocity": 79}, {"time": 1546, "pitch": 40, "duration": 18, "velocity": 85}, {"time": 1552, "pitch": 47, "duration": 11, "velocity": 95}, {"time": 1558, "pitch": 55, "duration": 12, "velocity": 89}, {"time": 1558, "pitch": 59, "duration": 12, "velocity": 90}, {"time": 1564, "pitch": 52, "duration": 6, "velocity": 66}, {"time": 1570, "pitch": 38, "duration": 18, "velocity": 70}, {"time": 1576, "pitch": 45, "duration": 12, "velocity": 85}, {"time": 1582, "pitch": 57, "duration": 12, "velocity": 96}, {"time": 1588, "pitch": 54, "duration": 6, "velocity": 69}, {"time": 1594, "pitch": 36, "duration": 16, "velocity": 81}, {"time": 1600, "pitch": 43, "duration": 10, "velocity": 57}, {"time": 1606, "pitch": 52, "duration": 11, "velocity": 74}, {"time": 1606, "pitch": 55, "duration": 11, "velocity": 82}, {"time": 1612, "pitch": 48, "duration": 6, "velocity": 61}, {"time": 1618, "pitch": 35, "duration": 18, "velocity": 76}, {"time": 1624, "pitch": 42, "duration": 10, "velocity": 46}, {"time": 1630, "pitch": 54, "duration": 11, "velocity": 90}, {"time": 1636, "pitch": 50, "duration": 6, "velocity": 76}, {"time": 1642, "pitch": 33, "duration": 17, "velocity": 75}, {"time": 1648, "pitch": 40, "duration": 11, "velocity": 50}, {"time": 1654, "pitch": 57, "duration": 11, "velocity": 79}, {"time": 1654, "pitch": 60, "duration": 12, "velocity": 76}, {"time": 1660, "pitch": 52, "duration": 6, "velocity": 62}, {"time": 1666, "pitch": 31, "duration": 19, "velocity": 73}, {"time": 1672, "pitch": 43, "duration": 15, "velocity": 58}, {"time": 1678, "pitch": 55, "duration": 11, "velocity": 86}, {"time": 1678, "pitch": 59, "duration": 11, "velocity": 83}, {"time": 1684, "pitch": 50, "duration": 6, "velocity": 85}, {"time": 1690, "pitch": 42, "duration": 16, "velocity": 100}, {"time": 1696, "pitch": 54, "duration": 4, "velocity": 72}, {"time": 1702, "pitch": 54, "duration": 3, "velocity": 71}, {"time": 1702, "pitch": 57, "duration": 12, "velocity": 83}, {"time": 1702, "pitch": 60, "duration": 11, "velocity": 66}, {"time": 1708, "pitch": 54, "duration": 6, "velocity": 55}, {"time": 1714, "pitch": 35, "duration": 16, "velocity": 75}, {"time": 1717, "pitch": 42, "duration": 13, "velocity": 57}, {"time": 1720, "pitch": 47, "duration": 7, "velocity": 85}, {"time": 1723, "pitch": 51, "duration": 3, "velocity": 78}, {"time": 1726, "pitch": 54, "duration": 7, "velocity": 107}, {"time": 1729, "pitch": 47, "duration": 4, "velocity": 81}, {"time": 1732, "pitch": 51, "duration": 5, "velocity": 92}, {"time": 1735, "pitch": 54, "duration": 2, "velocity": 81}, {"time": 1738, "pitch": 40, "duration": 18, "velocity": 85}, {"time": 1744, "pitch": 47, "duration": 8, "velocity": 56}, {"time": 1750, "pitch": 59, "duration": 12, "velocity": 90}, {"time": 1753, "pitch": 47, "duration": 3, "velocity": 63}, {"time": 1756, "pitch": 55, "duration": 6, "velocity": 74}, {"time": 1759, "pitch": 52, "duration": 3, "velocity": 71}, {"time": 1762, "pitch": 38, "duration": 18, "velocity": 77}, {"time": 1768, "pitch": 45, "duration": 10, "velocity": 26}, {"time": 1774, "pitch": 54, "duration": 11, "velocity": 85}, {"time": 1774, "pitch": 57, "duration": 12, "velocity": 79}, {"time": 1780, "pitch": 50, "duration": 5, "velocity": 66}, {"time": 1786, "pitch": 36, "duration": 19, "velocity": 90}, {"time": 1792, "pitch": 43, "duration": 13, "velocity": 71}, {"time": 1798, "pitch": 55, "duration": 12, "velocity": 97}, {"time": 1804, "pitch": 52, "duration": 6, "velocity": 90}, {"time": 1810, "pitch": 35, "duration": 16, "velocity": 88}, {"time": 1816, "pitch": 47, "duration": 7, "velocity": 85}, {"time": 1822, "pitch": 51, "duration": 10, "velocity": 82}, {"time": 1822, "pitch": 54, "duration": 11, "velocity": 86}, {"time": 1834, "pitch": 45, "duration": 19, "velocity": 85}, {"time": 1840, "pitch": 52, "duration": 12, "velocity": 79}, {"time": 1846, "pitch": 60, "duration": 4, "velocity": 96}, {"time": 1849, "pitch": 57, "duration": 9, "velocity": 72}, {"time": 1852, "pitch": 64, "duration": 6, "velocity": 73}, {"time": 1858, "pitch": 43, "duration": 15, "velocity": 81}, {"time": 1864, "pitch": 50, "duration": 7, "velocity": 41}, {"time": 1870, "pitch": 59, "duration": 10, "velocity": 82}, {"time": 1870, "pitch": 62, "duration": 10, "velocity": 85}, {"time": 1876, "pitch": 55, "duration": 6, "velocity": 70}, {"time": 1882, "pitch": 42, "duration": 14, "velocity": 83}, {"time": 1888, "pitch": 54, "duration": 6, "velocity": 85}, {"time": 1894, "pitch": 57, "duration": 12, "velocity": 83}, {"time": 1900, "pitch": 60, "duration": 6, "velocity": 73}, {"time": 1906, "pitch": 35, "duration": 41, "velocity": 72}, {"time": 1912, "pitch": 42, "duration": 35, "velocity": 51}, {"time": 1918, "pitch": 47, "duration": 28, "velocity": 52}, {"time": 1924, "pitch": 51, "duration": 21, "velocity": 55}, {"time": 1930, "pitch": 54, "duration": 15, "velocity": 69}, {"time": 1954, "pitch": 40, "duration": 20, "velocity": 60}, {"time": 1957, "pitch": 47, "duration": 16, "velocity": 38}, {"time": 1960, "pitch": 52, "duration": 7, "velocity": 52}, {"time": 1963, "pitch": 55, "duration": 4, "velocity": 53}, {"time": 1966, "pitch": 59, "duration": 13, "velocity": 67}, {"time": 1969, "pitch": 52, "duration": 3, "velocity": 55}, {"time": 1972, "pitch": 55, "duration": 6, "velocity": 54}, {"time": 1975, "pitch": 52, "duration": 3, "velocity": 41}, {"time": 1978, "pitch": 38, "duration": 17, "velocity": 66}, {"time": 1981, "pitch": 45, "duration": 10, "velocity": 45}, {"time": 1984, "pitch": 50, "duration": 8, "velocity": 50}, {"time": 1987, "pitch": 54, "duration": 3, "velocity": 59}, {"time": 1990, "pitch": 57, "duration": 11, "velocity": 95}, {"time": 1993, "pitch": 45, "duration": 2, "velocity": 60}, {"time": 1996, "pitch": 54, "duration": 5, "velocity": 81}, {"time": 1999, "pitch": 50, "duration": 2, "velocity": 68}, {"time": 2002, "pitch": 36, "duration": 17, "velocity": 69}, {"time": 2005, "pitch": 43, "duration": 14, "velocity": 53}, {"time": 2008, "pitch": 48, "duration": 8, "velocity": 63}, {"time": 2011, "pitch": 55, "duration": 10, "velocity": 71}, {"time": 2014, "pitch": 64, "duration": 12, "velocity": 86}, {"time": 2017, "pitch": 48, "duration": 3, "velocity": 53}, {"time": 2020, "pitch": 60, "duration": 6, "velocity": 52}, {"time": 2023, "pitch": 55, "duration": 3, "velocity": 72}, {"time": 2026, "pitch": 47, "duration": 18, "velocity": 65}, {"time": 2029, "pitch": 54, "duration": 10, "velocity": 49}, {"time": 2032, "pitch": 59, "duration": 9, "velocity": 63}, {"time": 2035, "pitch": 62, "duration": 3, "velocity": 59}, {"time": 2038, "pitch": 66, "duration": 11, "velocity": 102}, {"time": 2041, "pitch": 54, "duration": 2, "velocity": 51}, {"time": 2044, "pitch": 62, "duration": 6, "velocity": 71}, {"time": 2047, "pitch": 59, "duration": 3, "velocity": 58}, {"time": 2050, "pitch": 45, "duration": 18, "velocity": 79}, {"time": 2053, "pitch": 52, "duration": 10, "velocity": 58}, {"time": 2056, "pitch": 57, "duration": 6, "velocity": 77}, {"time": 2059, "pitch": 60, "duration": 3, "velocity": 73}, {"time": 2062, "pitch": 64, "duration": 12, "velocity": 100}, {"time": 2065, "pitch": 52, "duration": 3, "velocity": 59}, {"time": 2068, "pitch": 60, "duration": 6, "velocity": 102}, {"time": 2071, "pitch": 57, "duration": 3, "velocity": 72}, {"time": 2074, "pitch": 43, "duration": 17, "velocity": 78}, {"time": 2077, "pitch": 50, "duration": 11, "velocity": 65}, {"time": 2080, "pitch": 55, "duration": 7, "velocity": 61}, {"time": 2083, "pitch": 59, "duration": 4, "velocity": 58}, {"time": 2086, "pitch": 62, "duration": 12, "velocity": 97}, {"time": 2089, "pitch": 50, "duration": 2, "velocity": 53}, {"time": 2092, "pitch": 55, "duration": 4, "velocity": 79}, {"time": 2095, "pitch": 55, "duration": 1, "velocity": 29}, {"time": 2095, "pitch": 59, "duration": 3, "velocity": 63}, {"time": 2098, "pitch": 42, "duration": 16, "velocity": 85}, {"time": 2101, "pitch": 54, "duration": 9, "velocity": 61}, {"time": 2104, "pitch": 57, "duration": 3, "velocity": 68}, {"time": 2107, "pitch": 60, "duration": 2, "velocity": 72}, {"time": 2110, "pitch": 60, "duration": 6, "velocity": 85}, {"time": 2113, "pitch": 54, "duration": 2, "velocity": 68}, {"time": 2116, "pitch": 57, "duration": 4, "velocity": 81}, {"time": 2119, "pitch": 60, "duration": 2, "velocity": 83}, {"time": 2122, "pitch": 47, "duration": 17, "velocity": 65}, {"time": 2125, "pitch": 54, "duration": 10, "velocity": 71}, {"time": 2128, "pitch": 59, "duration": 7, "velocity": 76}, {"time": 2131, "pitch": 63, "duration": 3, "velocity": 96}, {"time": 2134, "pitch": 66, "duration": 11, "velocity": 122}, {"time": 2137, "pitch": 54, "duration": 1, "velocity": 83}, {"time": 2140, "pitch": 63, "duration": 6, "velocity": 122}, {"time": 2143, "pitch": 59, "duration": 3, "velocity": 96}, {"time": 2146, "pitch": 40, "duration": 21, "velocity": 81}, {"time": 2149, "pitch": 47, "duration": 17, "velocity": 64}, {"time": 2152, "pitch": 52, "duration": 7, "velocity": 90}, {"time": 2155, "pitch": 59, "duration": 4, "velocity": 86}, {"time": 2158, "pitch": 67, "duration": 11, "velocity": 102}, {"time": 2161, "pitch": 52, "duration": 2, "velocity": 82}, {"time": 2164, "pitch": 64, "duration": 6, "velocity": 93}, {"time": 2167, "pitch": 59, "duration": 3, "velocity": 70}, {"time": 2170, "pitch": 38, "duration": 18, "velocity": 72}, {"time": 2173, "pitch": 45, "duration": 11, "velocity": 44}, {"time": 2176, "pitch": 50, "duration": 7, "velocity": 85}, {"time": 2179, "pitch": 57, "duration": 6, "velocity": 81}, {"time": 2182, "pitch": 66, "duration": 12, "velocity": 122}, {"time": 2185, "pitch": 62, "duration": 9, "velocity": 77}, {"time": 2188, "pitch": 57, "duration": 6, "velocity": 78}, {"time": 2194, "pitch": 36, "duration": 17, "velocity": 63}, {"time": 2197, "pitch": 43, "duration": 14, "velocity": 45}, {"time": 2200, "pitch": 48, "duration": 7, "velocity": 53}, {"time": 2203, "pitch": 55, "duration": 4, "velocity": 75}, {"time": 2206, "pitch": 64, "duration": 11, "velocity": 92}, {"time": 2209, "pitch": 48, "duration": 3, "velocity": 50}, {"time": 2212, "pitch": 60, "duration": 5, "velocity": 59}, {"time": 2215, "pitch": 55, "duration": 2, "velocity": 71}, {"time": 2218, "pitch": 47, "duration": 17, "velocity": 72}, {"time": 2221, "pitch": 54, "duration": 14, "velocity": 59}, {"time": 2224, "pitch": 59, "duration": 7, "velocity": 57}, {"time": 2227, "pitch": 63, "duration": 15, "velocity": 78}, {"time": 2230, "pitch": 66, "duration": 11, "velocity": 97}, {"time": 2236, "pitch": 59, "duration": 6, "velocity": 73}, {"time": 2242, "pitch": 45, "duration": 18, "velocity": 82}, {"time": 2245, "pitch": 52, "duration": 10, "velocity": 55}, {"time": 2248, "pitch": 57, "duration": 7, "velocity": 78}, {"time": 2251, "pitch": 60, "duration": 3, "velocity": 78}, {"time": 2254, "pitch": 64, "duration": 12, "velocity": 107}, {"time": 2257, "pitch": 52, "duration": 2, "velocity": 69}, {"time": 2260, "pitch": 60, "duration": 6, "velocity": 96}, {"time": 2263, "pitch": 57, "duration": 3, "velocity": 85}, {"time": 2266, "pitch": 43, "duration": 16, "velocity": 81}, {"time": 2269, "pitch": 50, "duration": 10, "velocity": 78}, {"time": 2272, "pitch": 55, "duration": 7, "velocity": 82}, {"time": 2275, "pitch": 59, "duration": 2, "velocity": 89}, {"time": 2278, "pitch": 59, "duration": 6, "velocity": 79}, {"time": 2278, "pitch": 62, "duration": 11, "velocity": 102}, {"time": 2281, "pitch": 50, "duration": 1, "velocity": 85}, {"time": 2284, "pitch": 55, "duration": 5, "velocity": 83}, {"time": 2287, "pitch": 59, "duration": 3, "velocity": 99}, {"time": 2290, "pitch": 42, "duration": 16, "velocity": 107}, {"time": 2293, "pitch": 54, "duration": 10, "velocity": 77}, {"time": 2296, "pitch": 57, "duration": 3, "velocity": 90}, {"time": 2299, "pitch": 60, "duration": 2, "velocity": 78}, {"time": 2302, "pitch": 60, "duration": 6, "velocity": 122}, {"time": 2305, "pitch": 54, "duration": 2, "velocity": 85}, {"time": 2308, "pitch": 57, "duration": 1, "velocity": 99}, {"time": 2314, "pitch": 47, "duration": 30, "velocity": 75}, {"time": 2314, "pitch": 59, "duration": 4, "velocity": 75}, {"time": 2314, "pitch": 63, "duration": 7, "velocity": 85}, {"time": 2314, "pitch": 66, "duration": 9, "velocity": 85}, {"time": 2317, "pitch": 54, "duration": 26, "velocity": 63}, {"time": 2320, "pitch": 59, "duration": 23, "velocity": 66}, {"time": 2323, "pitch": 63, "duration": 20, "velocity": 38}, {"time": 2326, "pitch": 66, "duration": 17, "velocity": 56}, {"time": 2338, "pitch": 40, "duration": 32, "velocity": 36}, {"time": 2338, "pitch": 47, "duration": 6, "velocity": 40}, {"time": 2338, "pitch": 52, "duration": 32, "velocity": 37}, {"time": 2338, "pitch": 59, "duration": 5, "velocity": 45}, {"time": 2338, "pitch": 64, "duration": 33, "velocity": 55}, {"time": 2338, "pitch": 67, "duration": 33, "velocity": 51}, {"time": 2398, "pitch": 52, "duration": 2, "velocity": 72}, {"time": 2410, "pitch": 52, "duration": 1, "velocity": 83}, {"time": 2416, "pitch": 47, "duration": 2, "velocity": 79}, {"time": 2422, "pitch": 45, "duration": 5, "velocity": 122}, {"time": 2422, "pitch": 52, "duration": 1, "velocity": 86}, {"time": 2428, "pitch": 47, "duration": 5, "velocity": 117}, {"time": 2434, "pitch": 48, "duration": 5, "velocity": 112}, {"time": 2440, "pitch": 47, "duration": 6, "velocity": 127}, {"time": 2446, "pitch": 40, "duration": 17, "velocity": 93}, {"time": 2449, "pitch": 47, "duration": 14, "velocity": 56}, {"time": 2452, "pitch": 52, "duration": 6, "velocity": 75}, {"time": 2455, "pitch": 59, "duration": 7, "velocity": 77}, {"time": 2458, "pitch": 67, "duration": 13, "velocity": 107}, {"time": 2461, "pitch": 52, "duration": 3, "velocity": 92}, {"time": 2464, "pitch": 64, "duration": 6, "velocity": 97}, {"time": 2467, "pitch": 59, "duration": 4, "velocity": 92}, {"time": 2470, "pitch": 42, "duration": 16, "velocity": 89}, {"time": 2473, "pitch": 54, "duration": 9, "velocity": 81}, {"time": 2476, "pitch": 57, "duration": 6, "velocity": 61}, {"time": 2482, "pitch": 60, "duration": 6, "velocity": 117}, {"time": 2485, "pitch": 54, "duration": 2, "velocity": 95}, {"time": 2488, "pitch": 57, "duration": 4, "velocity": 127}, {"time": 2491, "pitch": 60, "duration": 2, "velocity": 100}, {"time": 2494, "pitch": 43, "duration": 18, "velocity": 78}, {"time": 2497, "pitch": 50, "duration": 10, "velocity": 78}, {"time": 2500, "pitch": 55, "duration": 4, "velocity": 83}, {"time": 2503, "pitch": 62, "duration": 1, "velocity": 99}, {"time": 2506, "pitch": 62, "duration": 10, "velocity": 122}, {"time": 2509, "pitch": 50, "duration": 3, "velocity": 92}, {"time": 2512, "pitch": 55, "duration": 3, "velocity": 102}, {"time": 2515, "pitch": 60, "duration": 1, "velocity": 89}, {"time": 2518, "pitch": 43, "duration": 1, "velocity": 82}, {"time": 2518, "pitch": 45, "duration": 5, "velocity": 100}, {"time": 2518, "pitch": 57, "duration": 4, "velocity": 117}, {"time": 2524, "pitch": 47, "duration": 4, "velocity": 107}, {"time": 2524, "pitch": 59, "duration": 4, "velocity": 127}, {"time": 2530, "pitch": 48, "duration": 5, "velocity": 122}, {"time": 2530, "pitch": 60, "duration": 4, "velocity": 127}, {"time": 2536, "pitch": 47, "duration": 3, "velocity": 112}, {"time": 2536, "pitch": 59, "duration": 4, "velocity": 127}, {"time": 2542, "pitch": 40, "duration": 16, "velocity": 90}, {"time": 2545, "pitch": 47, "duration": 14, "velocity": 95}, {"time": 2548, "pitch": 52, "duration": 7, "velocity": 100}, {"time": 2551, "pitch": 59, "duration": 5, "velocity": 96}, {"time": 2554, "pitch": 67, "duration": 11, "velocity": 127}, {"time": 2557, "pitch": 52, "duration": 2, "velocity": 99}, {"time": 2560, "pitch": 64, "duration": 5, "velocity": 112}, {"time": 2563, "pitch": 59, "duration": 3, "velocity": 99}, {"time": 2566, "pitch": 42, "duration": 16, "velocity": 117}, {"time": 2569, "pitch": 54, "duration": 10, "velocity": 78}, {"time": 2572, "pitch": 57, "duration": 5, "velocity": 77}, {"time": 2575, "pitch": 60, "duration": 2, "velocity": 81}, {"time": 2578, "pitch": 60, "duration": 5, "velocity": 95}, {"time": 2581, "pitch": 54, "duration": 2, "velocity": 99}, {"time": 2584, "pitch": 57, "duration": 4, "velocity": 97}, {"time": 2587, "pitch": 60, "duration": 2, "velocity": 107}, {"time": 2590, "pitch": 43, "duration": 19, "velocity": 81}, {"time": 2593, "pitch": 50, "duration": 9, "velocity": 96}, {"time": 2596, "pitch": 55, "duration": 5, "velocity": 72}, {"time": 2599, "pitch": 59, "duration": 2, "velocity": 93}, {"time": 2602, "pitch": 62, "duration": 5, "velocity": 122}, {"time": 2605, "pitch": 50, "duration": 4, "velocity": 102}, {"time": 2608, "pitch": 59, "duration": 3, "velocity": 112}, {"time": 2611, "pitch": 62, "duration": 2, "velocity": 102}, {"time": 2614, "pitch": 45, "duration": 4, "velocity": 107}, {"time": 2614, "pitch": 57, "duration": 4, "velocity": 117}, {"time": 2620, "pitch": 47, "duration": 4, "velocity": 99}, {"time": 2620, "pitch": 59, "duration": 4, "velocity": 127}, {"time": 2626, "pitch": 48, "duration": 5, "velocity": 117}, {"time": 2626, "pitch": 60, "duration": 4, "velocity": 127}, {"time": 2632, "pitch": 47, "duration": 4, "velocity": 107}, {"time": 2632, "pitch": 59, "duration": 4, "velocity": 127}, {"time": 2638, "pitch": 40, "duration": 16, "velocity": 82}, {"time": 2641, "pitch": 47, "duration": 14, "velocity": 92}, {"time": 2644, "pitch": 52, "duration": 7, "velocity": 96}, {"time": 2647, "pitch": 59, "duration": 5, "velocity": 85}, {"time": 2650, "pitch": 67, "duration": 11, "velocity": 117}, {"time": 2653, "pitch": 52, "duration": 3, "velocity": 92}, {"time": 2656, "pitch": 64, "duration": 4, "velocity": 96}, {"time": 2659, "pitch": 59, "duration": 3, "velocity": 97}, {"time": 2662, "pitch": 42, "duration": 16, "velocity": 117}, {"time": 2665, "pitch": 54, "duration": 10, "velocity": 86}, {"time": 2668, "pitch": 57, "duration": 3, "velocity": 96}, {"time": 2671, "pitch": 60, "duration": 1, "velocity": 100}, {"time": 2674, "pitch": 60, "duration": 5, "velocity": 122}, {"time": 2677, "pitch": 54, "duration": 2, "velocity": 99}, {"time": 2680, "pitch": 57, "duration": 3, "velocity": 100}, {"time": 2683, "pitch": 60, "duration": 2, "velocity": 102}, {"time": 2686, "pitch": 43, "duration": 22, "velocity": 81}, {"time": 2689, "pitch": 50, "duration": 9, "velocity": 99}, {"time": 2692, "pitch": 55, "duration": 4, "velocity": 77}, {"time": 2695, "pitch": 59, "duration": 2, "velocity": 92}, {"time": 2698, "pitch": 62, "duration": 5, "velocity": 112}, {"time": 2701, "pitch": 50, "duration": 6, "velocity": 96}, {"time": 2704, "pitch": 59, "duration": 3, "velocity": 102}, {"time": 2707, "pitch": 62, "duration": 1, "velocity": 100}, {"time": 2710, "pitch": 45, "duration": 5, "velocity": 107}, {"time": 2710, "pitch": 57, "duration": 4, "velocity": 127}, {"time": 2716, "pitch": 47, "duration": 4, "velocity": 117}, {"time": 2716, "pitch": 59, "duration": 4, "velocity": 122}, {"time": 2722, "pitch": 49, "duration": 3, "velocity": 117}, {"time": 2722, "pitch": 61, "duration": 3, "velocity": 127}, {"time": 2728, "pitch": 51, "duration": 10, "velocity": 127}, {"time": 2728, "pitch": 63, "duration": 10, "velocity": 127}, {"time": 2734, "pitch": 40, "duration": 16, "velocity": 89}, {"time": 2737, "pitch": 47, "duration": 10, "velocity": 88}, {"time": 2740, "pitch": 52, "duration": 3, "velocity": 92}, {"time": 2743, "pitch": 55, "duration": 3, "velocity": 92}, {"time": 2746, "pitch": 59, "duration": 13, "velocity": 97}, {"time": 2749, "pitch": 47, "duration": 1, "velocity": 75}, {"time": 2752, "pitch": 55, "duration": 6, "velocity": 93}, {"time": 2755, "pitch": 52, "duration": 3, "velocity": 90}, {"time": 2758, "pitch": 39, "duration": 18, "velocity": 96}, {"time": 2761, "pitch": 51, "duration": 9, "velocity": 83}, {"time": 2764, "pitch": 55, "duration": 3, "velocity": 85}, {"time": 2767, "pitch": 59, "duration": 1, "velocity": 107}, {"time": 2770, "pitch": 59, "duration": 5, "velocity": 99}, {"time": 2773, "pitch": 51, "duration": 2, "velocity": 93}, {"time": 2776, "pitch": 55, "duration": 4, "velocity": 93}, {"time": 2779, "pitch": 59, "duration": 2, "velocity": 102}, {"time": 2782, "pitch": 38, "duration": 16, "velocity": 72}, {"time": 2785, "pitch": 45, "duration": 9, "velocity": 79}, {"time": 2788, "pitch": 50, "duration": 5, "velocity": 81}, {"time": 2791, "pitch": 54, "duration": 2, "velocity": 96}, {"time": 2794, "pitch": 57, "duration": 10, "velocity": 100}, {"time": 2797, "pitch": 45, "duration": 1, "velocity": 95}, {"time": 2800, "pitch": 54, "duration": 4, "velocity": 112}, {"time": 2803, "pitch": 50, "duration": 3, "velocity": 97}, {"time": 2806, "pitch": 37, "duration": 17, "velocity": 96}, {"time": 2809, "pitch": 49, "duration": 10, "velocity": 81}, {"time": 2812, "pitch": 52, "duration": 4, "velocity": 86}, {"time": 2815, "pitch": 55, "duration": 2, "velocity": 77}, {"time": 2818, "pitch": 55, "duration": 7, "velocity": 99}, {"time": 2821, "pitch": 49, "duration": 2, "velocity": 95}, {"time": 2824, "pitch": 52, "duration": 3, "velocity": 100}, {"time": 2827, "pitch": 55, "duration": 2, "velocity": 89}, {"time": 2830, "pitch": 40, "duration": 16, "velocity": 86}, {"time": 2833, "pitch": 47, "duration": 10, "velocity": 88}, {"time": 2836, "pitch": 52, "duration": 2, "velocity": 92}, {"time": 2839, "pitch": 55, "duration": 2, "velocity": 93}, {"time": 2842, "pitch": 59, "duration": 6, "velocity": 117}, {"time": 2845, "pitch": 47, "duration": 2, "velocity": 82}, {"time": 2848, "pitch": 55, "duration": 3, "velocity": 95}, {"time": 2851, "pitch": 59, "duration": 6, "velocity": 93}, {"time": 2854, "pitch": 39, "duration": 18, "velocity": 99}, {"time": 2857, "pitch": 51, "duration": 10, "velocity": 82}, {"time": 2860, "pitch": 55, "duration": 3, "velocity": 78}, {"time": 2863, "pitch": 59, "duration": 2, "velocity": 99}, {"time": 2866, "pitch": 59, "duration": 6, "velocity": 96}, {"time": 2869, "pitch": 51, "duration": 2, "velocity": 92}, {"time": 2872, "pitch": 55, "duration": 4, "velocity": 88}, {"time": 2875, "pitch": 59, "duration": 3, "velocity": 93}, {"time": 2878, "pitch": 38, "duration": 16, "velocity": 69}, {"time": 2881, "pitch": 45, "duration": 9, "velocity": 78}, {"time": 2884, "pitch": 50, "duration": 4, "velocity": 75}, {"time": 2887, "pitch": 54, "duration": 2, "velocity": 89}, {"time": 2890, "pitch": 57, "duration": 10, "velocity": 99}, {"time": 2893, "pitch": 45, "duration": 2, "velocity": 88}, {"time": 2896, "pitch": 54, "duration": 5, "velocity": 100}, {"time": 2899, "pitch": 50, "duration": 2, "velocity": 92}, {"time": 2902, "pitch": 37, "duration": 20, "velocity": 89}, {"time": 2905, "pitch": 49, "duration": 10, "velocity": 82}, {"time": 2908, "pitch": 52, "duration": 5, "velocity": 88}, {"time": 2914, "pitch": 52, "duration": 3, "velocity": 76}, {"time": 2914, "pitch": 55, "duration": 7, "velocity": 97}, {"time": 2917, "pitch": 49, "duration": 3, "velocity": 85}, {"time": 2920, "pitch": 52, "duration": 4, "velocity": 102}, {"time": 2923, "pitch": 55, "duration": 3, "velocity": 97}, {"time": 2926, "pitch": 42, "duration": 4, "velocity": 76}, {"time": 2926, "pitch": 53, "duration": 2, "velocity": 61}, {"time": 2926, "pitch": 54, "duration": 2, "velocity": 117}, {"time": 2926, "pitch": 57, "duration": 4, "velocity": 78}, {"time": 2926, "pitch": 60, "duration": 4, "velocity": 76}, {"time": 2932, "pitch": 42, "duration": 4, "velocity": 65}, {"time": 2932, "pitch": 54, "duration": 4, "velocity": 117}, {"time": 2932, "pitch": 57, "duration": 4, "velocity": 90}, {"time": 2932, "pitch": 60, "duration": 4, "velocity": 85}, {"time": 2938, "pitch": 42, "duration": 3, "velocity": 95}, {"time": 2938, "pitch": 54, "duration": 3, "velocity": 122}, {"time": 2938, "pitch": 57, "duration": 3, "velocity": 102}, {"time": 2938, "pitch": 60, "duration": 3, "velocity": 99}, {"time": 2944, "pitch": 42, "duration": 3, "velocity": 112}, {"time": 2944, "pitch": 54, "duration": 1, "velocity": 122}, {"time": 2944, "pitch": 57, "duration": 1, "velocity": 95}, {"time": 2944, "pitch": 60, "duration": 1, "velocity": 86}, {"time": 2950, "pitch": 48, "duration": 4, "velocity": 88}, {"time": 2950, "pitch": 55, "duration": 4, "velocity": 92}, {"time": 2950, "pitch": 60, "duration": 4, "velocity": 99}, {"time": 2950, "pitch": 64, "duration": 4, "velocity": 95}, {"time": 2956, "pitch": 48, "duration": 3, "velocity": 93}, {"time": 2956, "pitch": 55, "duration": 4, "velocity": 93}, {"time": 2956, "pitch": 60, "duration": 4, "velocity": 99}, {"time": 2956, "pitch": 64, "duration": 3, "velocity": 89}, {"time": 2962, "pitch": 48, "duration": 4, "velocity": 96}, {"time": 2962, "pitch": 55, "duration": 4, "velocity": 97}, {"time": 2962, "pitch": 60, "duration": 4, "velocity": 107}, {"time": 2962, "pitch": 64, "duration": 4, "velocity": 97}, {"time": 2968, "pitch": 48, "duration": 4, "velocity": 107}, {"time": 2968, "pitch": 55, "duration": 3, "velocity": 97}, {"time": 2968, "pitch": 60, "duration": 2, "velocity": 88}, {"time": 2968, "pitch": 64, "duration": 2, "velocity": 82}, {"time": 2974, "pitch": 49, "duration": 5, "velocity": 112}, {"time": 2974, "pitch": 61, "duration": 4, "velocity": 127}, {"time": 2974, "pitch": 64, "duration": 4, "velocity": 92}, {"time": 2974, "pitch": 67, "duration": 4, "velocity": 89}, {"time": 2980, "pitch": 49, "duration": 4, "velocity": 69}, {"time": 2980, "pitch": 61, "duration": 4, "velocity": 112}, {"time": 2980, "pitch": 64, "duration": 4, "velocity": 85}, {"time": 2980, "pitch": 67, "duration": 4, "velocity": 82}, {"time": 2986, "pitch": 49, "duration": 4, "velocity": 96}, {"time": 2986, "pitch": 61, "duration": 4, "velocity": 122}, {"time": 2986, "pitch": 64, "duration": 4, "velocity": 96}, {"time": 2986, "pitch": 67, "duration": 4, "velocity": 92}, {"time": 2992, "pitch": 49, "duration": 5, "velocity": 117}, {"time": 2992, "pitch": 61, "duration": 4, "velocity": 127}, {"time": 2992, "pitch": 64, "duration": 4, "velocity": 97}, {"time": 2992, "pitch": 67, "duration": 4, "velocity": 96}, {"time": 2998, "pitch": 49, "duration": 24, "velocity": 99}, {"time": 2998, "pitch": 61, "duration": 23, "velocity": 122}, {"time": 2998, "pitch": 64, "duration": 23, "velocity": 95}, {"time": 2998, "pitch": 67, "duration": 23, "velocity": 86}, {"time": 3021, "pitch": 66, "duration": 6, "velocity": 39}, {"time": 3022, "pitch": 63, "duration": 4, "velocity": 50}, {"time": 3023, "pitch": 47, "duration": 68, "velocity": 75}, {"time": 3023, "pitch": 59, "duration": 2, "velocity": 42}, {"time": 3029, "pitch": 54, "duration": 61, "velocity": 61}, {"time": 3033, "pitch": 59, "duration": 57, "velocity": 92}, {"time": 3037, "pitch": 63, "duration": 4, "velocity": 75}, {"time": 3040, "pitch": 66, "duration": 2, "velocity": 82}, {"time": 3043, "pitch": 71, "duration": 5, "velocity": 70}, {"time": 3047, "pitch": 75, "duration": 4, "velocity": 77}, {"time": 3050, "pitch": 78, "duration": 2, "velocity": 71}, {"time": 3054, "pitch": 83, "duration": 8, "velocity": 65}, {"time": 3058, "pitch": 87, "duration": 4, "velocity": 81}, {"time": 3061, "pitch": 90, "duration": 2, "velocity": 72}, {"time": 3065, "pitch": 95, "duration": 24, "velocity": 66}, {"time": 3070, "pitch": 99, "duration": 19, "velocity": 40}, {"time": 3076, "pitch": 102, "duration": 13, "velocity": 56}, {"time": 3127, "pitch": 57, "duration": 11, "velocity": 41}, {"time": 3128, "pitch": 60, "duration": 10, "velocity": 47}, {"time": 3128, "pitch": 52, "duration": 8, "velocity": 46}, {"time": 3128, "pitch": 45, "duration": 8, "velocity": 37}, {"time": 3129, "pitch": 64, "duration": 9, "velocity": 57}, {"time": 3140, "pitch": 57, "duration": 8, "velocity": 58}, {"time": 3141, "pitch": 62, "duration": 6, "velocity": 51}, {"time": 3141, "pitch": 50, "duration": 4, "velocity": 29}, {"time": 3142, "pitch": 66, "duration": 5, "velocity": 61}, {"time": 3151, "pitch": 55, "duration": 26, "velocity": 38}, {"time": 3152, "pitch": 59, "duration": 25, "velocity": 40}, {"time": 3153, "pitch": 43, "duration": 24, "velocity": 44}, {"time": 3153, "pitch": 62, "duration": 24, "velocity": 55}, {"time": 3175, "pitch": 54, "duration": 6, "velocity": 44}, {"time": 3177, "pitch": 57, "duration": 4, "velocity": 48}, {"time": 3177, "pitch": 42, "duration": 4, "velocity": 36}, {"time": 3178, "pitch": 60, "duration": 4, "velocity": 40}, {"time": 3188, "pitch": 59, "duration": 13, "velocity": 51}, {"time": 3189, "pitch": 63, "duration": 12, "velocity": 42}, {"time": 3190, "pitch": 54, "duration": 9, "velocity": 33}, {"time": 3190, "pitch": 66, "duration": 11, "velocity": 61}, {"time": 3190, "pitch": 47, "duration": 11, "velocity": 36}, {"time": 3199, "pitch": 59, "duration": 2, "velocity": 34}, {"time": 3199, "pitch": 64, "duration": 7, "velocity": 48}, {"time": 3200, "pitch": 67, "duration": 6, "velocity": 53}, {"time": 3201, "pitch": 40, "duration": 22, "velocity": 59}, {"time": 3206, "pitch": 47, "duration": 17, "velocity": 48}, {"time": 3212, "pitch": 59, "duration": 12, "velocity": 44}, {"time": 3212, "pitch": 55, "duration": 12, "velocity": 42}, {"time": 3223, "pitch": 57, "duration": 3, "velocity": 55}, {"time": 3224, "pitch": 52, "duration": 3, "velocity": 39}, {"time": 3224, "pitch": 45, "duration": 5, "velocity": 25}, {"time": 3224, "pitch": 60, "duration": 6, "velocity": 40}, {"time": 3225, "pitch": 64, "duration": 5, "velocity": 67}, {"time": 3236, "pitch": 50, "duration": 3, "velocity": 37}, {"time": 3236, "pitch": 54, "duration": 5, "velocity": 44}, {"time": 3237, "pitch": 38, "duration": 3, "velocity": 35}, {"time": 3237, "pitch": 57, "duration": 5, "velocity": 57}, {"time": 3248, "pitch": 55, "duration": 17, "velocity": 39}, {"time": 3248, "pitch": 59, "duration": 26, "velocity": 37}, {"time": 3249, "pitch": 50, "duration": 25, "velocity": 37}, {"time": 3249, "pitch": 43, "duration": 25, "velocity": 34}, {"time": 3249, "pitch": 62, "duration": 25, "velocity": 67}, {"time": 3272, "pitch": 54, "duration": 6, "velocity": 40}, {"time": 3272, "pitch": 42, "duration": 6, "velocity": 32}, {"time": 3273, "pitch": 57, "duration": 5, "velocity": 45}, {"time": 3274, "pitch": 60, "duration": 4, "velocity": 49}, {"time": 3285, "pitch": 59, "duration": 8, "velocity": 45}, {"time": 3286, "pitch": 63, "duration": 7, "velocity": 37}, {"time": 3286, "pitch": 54, "duration": 6, "velocity": 27}, {"time": 3287, "pitch": 47, "duration": 5, "velocity": 46}, {"time": 3287, "pitch": 66, "duration": 6, "velocity": 64}, {"time": 3308, "pitch": 52, "duration": 49, "velocity": 35}, {"time": 3308, "pitch": 40, "duration": 49, "velocity": 27}, {"time": 3308, "pitch": 47, "duration": 49, "velocity": 30}, {"time": 3308, "pitch": 55, "duration": 49, "velocity": 43}, {"time": 3309, "pitch": 59, "duration": 49, "velocity": 54}, {"time": 3358, "pitch": 64, "duration": 3, "velocity": 65}, {"time": 3358, "pitch": 40, "duration": 23, "velocity": 33}, {"time": 3361, "pitch": 71, "duration": 3, "velocity": 68}, {"time": 3364, "pitch": 67, "duration": 3, "velocity": 50}, {"time": 3367, "pitch": 71, "duration": 2, "velocity": 69}, {"time": 3370, "pitch": 64, "duration": 3, "velocity": 55}, {"time": 3373, "pitch": 71, "duration": 3, "velocity": 67}, {"time": 3376, "pitch": 67, "duration": 3, "velocity": 48}, {"time": 3379, "pitch": 71, "duration": 2, "velocity": 67}, {"time": 3382, "pitch": 62, "duration": 3, "velocity": 55}, {"time": 3382, "pitch": 38, "duration": 23, "velocity": 30}, {"time": 3385, "pitch": 71, "duration": 3, "velocity": 63}, {"time": 3388, "pitch": 67, "duration": 3, "velocity": 56}, {"time": 3391, "pitch": 71, "duration": 3, "velocity": 63}, {"time": 3394, "pitch": 62, "duration": 4, "velocity": 44}, {"time": 3397, "pitch": 71, "duration": 3, "velocity": 68}, {"time": 3400, "pitch": 67, "duration": 3, "velocity": 51}, {"time": 3403, "pitch": 71, "duration": 3, "velocity": 74}, {"time": 3405, "pitch": 36, "duration": 24, "velocity": 45}, {"time": 3405, "pitch": 64, "duration": 4, "velocity": 54}, {"time": 3409, "pitch": 71, "duration": 3, "velocity": 69}, {"time": 3412, "pitch": 67, "duration": 3, "velocity": 56}, {"time": 3415, "pitch": 71, "duration": 4, "velocity": 68}, {"time": 3418, "pitch": 64, "duration": 5, "velocity": 50}, {"time": 3421, "pitch": 67, "duration": 2, "velocity": 53}, {"time": 3423, "pitch": 71, "duration": 7, "velocity": 67}, {"time": 3426, "pitch": 64, "duration": 3, "velocity": 48}, {"time": 3429, "pitch": 43, "duration": 17, "velocity": 38}, {"time": 3429, "pitch": 67, "duration": 4, "velocity": 40}, {"time": 3432, "pitch": 62, "duration": 4, "velocity": 38}, {"time": 3436, "pitch": 67, "duration": 3, "velocity": 53}, {"time": 3438, "pitch": 62, "duration": 4, "velocity": 51}, {"time": 3441, "pitch": 71, "duration": 4, "velocity": 77}, {"time": 3444, "pitch": 62, "duration": 7, "velocity": 69}, {"time": 3447, "pitch": 67, "duration": 4, "velocity": 50}, {"time": 3450, "pitch": 71, "duration": 4, "velocity": 66}, {"time": 3453, "pitch": 45, "duration": 19, "velocity": 42}, {"time": 3454, "pitch": 69, "duration": 2, "velocity": 47}, {"time": 3457, "pitch": 64, "duration": 3, "velocity": 47}, {"time": 3460, "pitch": 69, "duration": 4, "velocity": 57}, {"time": 3463, "pitch": 64, "duration": 4, "velocity": 50}, {"time": 3465, "pitch": 72, "duration": 6, "velocity": 79}, {"time": 3468, "pitch": 64, "duration": 4, "velocity": 63}, {"time": 3472, "pitch": 72, "duration": 2, "velocity": 28}, {"time": 3472, "pitch": 69, "duration": 3, "velocity": 55}, {"time": 3474, "pitch": 64, "duration": 4, "velocity": 71}, {"time": 3477, "pitch": 67, "duration": 4, "velocity": 46}, {"time": 3478, "pitch": 43, "duration": 19, "velocity": 46}, {"time": 3480, "pitch": 62, "duration": 3, "velocity": 47}, {"time": 3484, "pitch": 67, "duration": 4, "velocity": 52}, {"time": 3486, "pitch": 62, "duration": 4, "velocity": 54}, {"time": 3490, "pitch": 71, "duration": 4, "velocity": 72}, {"time": 3492, "pitch": 62, "duration": 3, "velocity": 58}, {"time": 3496, "pitch": 67, "duration": 2, "velocity": 56}, {"time": 3498, "pitch": 62, "duration": 3, "velocity": 67}, {"time": 3501, "pitch": 66, "duration": 3, "velocity": 68}, {"time": 3501, "pitch": 42, "duration": 15, "velocity": 41}, {"time": 3504, "pitch": 69, "duration": 3, "velocity": 61}, {"time": 3507, "pitch": 66, "duration": 5, "velocity": 67}, {"time": 3510, "pitch": 69, "duration": 4, "velocity": 64}, {"time": 3513, "pitch": 72, "duration": 5, "velocity": 73}, {"time": 3517, "pitch": 66, "duration": 8, "velocity": 60}, {"time": 3520, "pitch": 69, "duration": 5, "velocity": 63}, {"time": 3523, "pitch": 72, "duration": 2, "velocity": 41}, {"time": 3526, "pitch": 47, "duration": 16, "velocity": 42}, {"time": 3529, "pitch": 54, "duration": 11, "velocity": 64}, {"time": 3532, "pitch": 59, "duration": 8, "velocity": 55}, {"time": 3535, "pitch": 63, "duration": 3, "velocity": 64}, {"time": 3538, "pitch": 66, "duration": 10, "velocity": 90}, {"time": 3541, "pitch": 63, "duration": 3, "velocity": 77}, {"time": 3544, "pitch": 59, "duration": 4, "velocity": 48}, {"time": 3546, "pitch": 63, "duration": 2, "velocity": 69}, {"time": 3550, "pitch": 40, "duration": 17, "velocity": 50}, {"time": 3550, "pitch": 64, "duration": 2, "velocity": 69}, {"time": 3553, "pitch": 71, "duration": 3, "velocity": 69}, {"time": 3556, "pitch": 67, "duration": 3, "velocity": 66}, {"time": 3556, "pitch": 47, "duration": 9, "velocity": 42}, {"time": 3558, "pitch": 71, "duration": 4, "velocity": 77}, {"time": 3562, "pitch": 52, "duration": 2, "velocity": 40}, {"time": 3562, "pitch": 64, "duration": 3, "velocity": 76}, {"time": 3564, "pitch": 71, "duration": 4, "velocity": 89}, {"time": 3567, "pitch": 67, "duration": 4, "velocity": 72}, {"time": 3570, "pitch": 71, "duration": 4, "velocity": 72}, {"time": 3573, "pitch": 38, "duration": 15, "velocity": 51}, {"time": 3573, "pitch": 62, "duration": 4, "velocity": 53}, {"time": 3576, "pitch": 66, "duration": 3, "velocity": 65}, {"time": 3579, "pitch": 69, "duration": 4, "velocity": 77}, {"time": 3582, "pitch": 66, "duration": 4, "velocity": 58}, {"time": 3585, "pitch": 62, "duration": 4, "velocity": 86}, {"time": 3586, "pitch": 45, "duration": 1, "velocity": 34}, {"time": 3588, "pitch": 69, "duration": 5, "velocity": 81}, {"time": 3591, "pitch": 66, "duration": 4, "velocity": 79}, {"time": 3594, "pitch": 62, "duration": 3, "velocity": 66}, {"time": 3597, "pitch": 36, "duration": 14, "velocity": 56}, {"time": 3597, "pitch": 67, "duration": 5, "velocity": 72}, {"time": 3600, "pitch": 64, "duration": 4, "velocity": 43}, {"time": 3603, "pitch": 60, "duration": 5, "velocity": 59}, {"time": 3603, "pitch": 43, "duration": 8, "velocity": 27}, {"time": 3606, "pitch": 64, "duration": 2, "velocity": 59}, {"time": 3609, "pitch": 67, "duration": 5, "velocity": 90}, {"time": 3609, "pitch": 48, "duration": 3, "velocity": 43}, {"time": 3612, "pitch": 64, "duration": 3, "velocity": 64}, {"time": 3615, "pitch": 60, "duration": 5, "velocity": 63}, {"time": 3618, "pitch": 67, "duration": 2, "velocity": 73}, {"time": 3621, "pitch": 47, "duration": 18, "velocity": 49}, {"time": 3624, "pitch": 54, "duration": 11, "velocity": 37}, {"time": 3627, "pitch": 59, "duration": 8, "velocity": 55}, {"time": 3630, "pitch": 63, "duration": 6, "velocity": 65}, {"time": 3633, "pitch": 66, "duration": 13, "velocity": 86}, {"time": 3636, "pitch": 54, "duration": 3, "velocity": 66}, {"time": 3639, "pitch": 63, "duration": 7, "velocity": 56}, {"time": 3646, "pitch": 45, "duration": 13, "velocity": 61}, {"time": 3649, "pitch": 52, "duration": 9, "velocity": 50}, {"time": 3652, "pitch": 57, "duration": 6, "velocity": 69}, {"time": 3654, "pitch": 60, "duration": 3, "velocity": 64}, {"time": 3657, "pitch": 64, "duration": 12, "velocity": 89}, {"time": 3660, "pitch": 60, "duration": 3, "velocity": 55}, {"time": 3663, "pitch": 57, "duration": 6, "velocity": 57}, {"time": 3666, "pitch": 60, "duration": 3, "velocity": 63}, {"time": 3669, "pitch": 43, "duration": 16, "velocity": 63}, {"time": 3672, "pitch": 50, "duration": 10, "velocity": 39}, {"time": 3675, "pitch": 55, "duration": 3, "velocity": 67}, {"time": 3678, "pitch": 59, "duration": 3, "velocity": 71}, {"time": 3681, "pitch": 62, "duration": 11, "velocity": 89}, {"time": 3683, "pitch": 50, "duration": 2, "velocity": 63}, {"time": 3688, "pitch": 59, "duration": 4, "velocity": 66}, {"time": 3690, "pitch": 55, "duration": 3, "velocity": 57}, {"time": 3694, "pitch": 57, "duration": 14, "velocity": 63}, {"time": 3694, "pitch": 42, "duration": 25, "velocity": 86}, {"time": 3694, "pitch": 60, "duration": 11, "velocity": 63}, {"time": 3701, "pitch": 54, "duration": 21, "velocity": 35}, {"time": 3707, "pitch": 60, "duration": 13, "velocity": 63}, {"time": 3713, "pitch": 57, "duration": 12, "velocity": 61}, {"time": 3736, "pitch": 47, "duration": 54, "velocity": 37}, {"time": 3737, "pitch": 54, "duration": 53, "velocity": 43}, {"time": 3737, "pitch": 59, "duration": 36, "velocity": 35}, {"time": 3738, "pitch": 63, "duration": 52, "velocity": 52}, {"time": 3739, "pitch": 66, "duration": 51, "velocity": 52}, {"time": 3741, "pitch": 69, "duration": 49, "velocity": 38}, {"time": 3776, "pitch": 59, "duration": 14, "velocity": 33}, {"time": 3782, "pitch": 28, "duration": 75, "velocity": 58}, {"time": 3794, "pitch": 55, "duration": 5, "velocity": 63}, {"time": 3799, "pitch": 57, "duration": 5, "velocity": 60}, {"time": 3804, "pitch": 55, "duration": 5, "velocity": 65}, {"time": 3809, "pitch": 57, "duration": 5, "velocity": 62}, {"time": 3815, "pitch": 55, "duration": 12, "velocity": 50}, {"time": 3826, "pitch": 58, "duration": 11, "velocity": 58}, {"time": 3837, "pitch": 57, "duration": 22, "velocity": 72}, {"time": 3858, "pitch": 59, "duration": 41, "velocity": 39}, {"time": 3859, "pitch": 64, "duration": 40, "velocity": 57}, {"time": 3859, "pitch": 28, "duration": 39, "velocity": 56}, {"time": 3860, "pitch": 67, "duration": 39, "velocity": 69}], "annotations": [{"time": 432, "annotation": {"number": 64, "value": 127}, "group": "control_change"}, {"time": 441, "annotation": {"number": 64, "value": 127}, "group": "control_change"}, {"time": 487, "annotation": {"number": 64, "value": 0}, "group": "control_change"}, {"time": 490, "annotation": {"number": 64, "value": 127}, "group": "control_change"}, {"time": 536, "annotation": {"number": 64, "value": 0}, "group": "control_change"}, {"time": 538, "annotation": {"number": 64, "value": 127}, "group": "control_change"}, {"time": 560, "annotation": {"number": 64, "value": 0}, "group": "control_change"}, {"time": 562, "annotation": {"number": 64, "value": 127}, "group": "control_change"}, {"time": 584, "annotation": {"number": 64, "value": 0}, "group": "control_change"}, {"time": 584, "annotation": {"number": 64, "value": 127}, "group": "control_change"}, {"time": 585, "annotation": {"number": 64, "value": 127}, "group": "control_change"}, {"time": 608, "annotation": {"number": 64, "value": 0}, "group": "control_change"}, {"time": 609, "annotation": {"number": 64, "value": 127}, "group": "control_change"}, {"time": 632, "annotation": {"number": 64, "value": 0}, "group": "control_change"}, {"time": 634, "annotation": {"number": 64, "value": 127}, "group": "control_change"}, {"time": 657, "annotation": {"number": 64, "value": 0}, "group": "control_change"}, {"time": 658, "annotation": {"number": 64, "value": 127}, "group": "control_change"}, {"time": 680, "annotation": {"number": 64, "value": 0}, "group": "control_change"}, {"time": 681, "annotation": {"number": 64, "value": 127}, "group": "control_change"}, {"time": 704, "annotation": {"number": 64, "value": 0}, "group": "control_change"}, {"time": 706, "annotation": {"number": 64, "value": 127}, "group": "control_change"}, {"time": 728, "annotation": {"number": 64, "value": 0}, "group": "control_change"}, {"time": 729, "annotation": {"number": 64, "value": 127}, "group": "control_change"}, {"time": 752, "annotation": {"number": 64, "value": 0}, "group": "control_change"}, {"time": 754, "annotation": {"number": 64, "value": 127}, "group": "control_change"}, {"time": 776, "annotation": {"number": 64, "value": 0}, "group": "control_change"}, {"time": 778, "annotation": {"number": 64, "value": 127}, "group": "control_change"}, {"time": 801, "annotation": {"number": 64, "value": 0}, "group": "control_change"}, {"time": 802, "annotation": {"number": 64, "value": 127}, "group": "control_change"}, {"time": 824, "annotation": {"number": 64, "value": 0}, "group": "control_change"}, {"time": 826, "annotation": {"number": 64, "value": 127}, "group": "control_change"}, {"time": 848, "annotation": {"number": 64, "value": 0}, "group": "control_change"}, {"time": 849, "annotation": {"number": 64, "value": 127}, "group": "control_change"}, {"time": 874, "annotation": {"number": 64, "value": 0}, "group": "control_change"}, {"time": 922, "annotation": {"number": 64, "value": 127}, "group": "control_change"}, {"time": 945, "annotation": {"number": 64, "value": 0}, "group": "control_change"}, {"time": 946, "annotation": {"number": 64, "value": 127}, "group": "control_change"}, {"time": 968, "annotation": {"number": 64, "value": 0}, "group": "control_change"}, {"time": 969, "annotation": {"number": 64, "value": 127}, "group": "control_change"}, {"time": 993, "annotation": {"number": 64, "value": 0}, "group": "control_change"}, {"time": 994, "annotation": {"number": 64, "value": 127}, "group": "control_change"}, {"time": 1017, "annotation": {"number": 64, "value": 0}, "group": "control_change"}, {"time": 1018, "annotation": {"number": 64, "value": 127}, "group": "control_change"}, {"time": 1039, "annotation": {"number": 64, "value": 0}, "group": "control_change"}, {"time": 1039, "annotation": {"number": 64, "value": 127}, "group": "control_change"}, {"time": 1042, "annotation": {"number": 64, "value": 127}, "group": "control_change"}, {"time": 1065, "annotation": {"number": 64, "value": 0}, "group": "control_change"}, {"time": 1066, "annotation": {"number": 64, "value": 127}, "group": "control_change"}, {"time": 1089, "annotation": {"number": 64, "value": 0}, "group": "control_change"}, {"time": 1090, "annotation": {"number": 64, "value": 127}, "group": "control_change"}, {"time": 1112, "annotation": {"number": 64, "value": 0}, "group": "control_change"}, {"time": 1114, "annotation": {"number": 64, "value": 127}, "group": "control_change"}, {"time": 1136, "annotation": {"number": 64, "value": 0}, "group": "control_change"}, {"time": 1138, "annotation": {"number": 64, "value": 127}, "group": "control_change"}, {"time": 1160, "annotation": {"number": 64, "value": 0}, "group": "control_change"}, {"time": 1161, "annotation": {"number": 64, "value": 127}, "group": "control_change"}, {"time": 1184, "annotation": {"number": 64, "value": 0}, "group": "control_change"}, {"time": 1185, "annotation": {"number": 64, "value": 127}, "group": "control_change"}, {"time": 1207, "annotation": {"number": 64, "value": 0}, "group": "control_change"}, {"time": 1209, "annotation": {"number": 64, "value": 127}, "group": "control_change"}, {"time": 1232, "annotation": {"number": 64, "value": 0}, "group": "control_change"}, {"time": 1234, "annotation": {"number": 64, "value": 127}, "group": "control_change"}, {"time": 1256, "annotation": {"number": 64, "value": 0}, "group": "control_change"}, {"time": 1258, "annotation": {"number": 64, "value": 127}, "group": "control_change"}, {"time": 1280, "annotation": {"number": 64, "value": 0}, "group": "control_change"}, {"time": 1281, "annotation": {"number": 64, "value": 127}, "group": "control_change"}, {"time": 1312, "annotation": {"number": 64, "value": 0}, "group": "control_change"}, {"time": 1330, "annotation": {"number": 64, "value": 127}, "group": "control_change"}, {"time": 1351, "annotation": {"number": 64, "value": 0}, "group": "control_change"}, {"time": 1354, "annotation": {"number": 64, "value": 127}, "group": "control_change"}, {"time": 1375, "annotation": {"number": 64, "value": 0}, "group": "control_change"}, {"time": 1378, "annotation": {"number": 64, "value": 127}, "group": "control_change"}, {"time": 1399, "annotation": {"number": 64, "value": 0}, "group": "control_change"}, {"time": 1402, "annotation": {"number": 64, "value": 127}, "group": "control_change"}, {"time": 1473, "annotation": {"number": 64, "value": 0}, "group": "control_change"}, {"time": 1474, "annotation": {"number": 64, "value": 127}, "group": "control_change"}, {"time": 1495, "annotation": {"number": 64, "value": 0}, "group": "control_change"}, {"time": 1498, "annotation": {"number": 64, "value": 127}, "group": "control_change"}, {"time": 1519, "annotation": {"number": 64, "value": 0}, "group": "control_change"}, {"time": 1551, "annotation": {"number": 64, "value": 127}, "group": "control_change"}, {"time": 1567, "annotation": {"number": 64, "value": 0}, "group": "control_change"}, {"time": 1570, "annotation": {"number": 64, "value": 127}, "group": "control_change"}, {"time": 1591, "annotation": {"number": 64, "value": 0}, "group": "control_change"}, {"time": 1594, "annotation": {"number": 64, "value": 127}, "group": "control_change"}, {"time": 1615, "annotation": {"number": 64, "value": 0}, "group": "control_change"}, {"time": 1618, "annotation": {"number": 64, "value": 127}, "group": "control_change"}, {"time": 1639, "annotation": {"number": 64, "value": 0}, "group": "control_change"}, {"time": 1642, "annotation": {"number": 64, "value": 127}, "group": "control_change"}, {"time": 1663, "annotation": {"number": 64, "value": 0}, "group": "control_change"}, {"time": 1666, "annotation": {"number": 64, "value": 127}, "group": "control_change"}, {"time": 1687, "annotation": {"number": 64, "value": 0}, "group": "control_change"}, {"time": 1690, "annotation": {"number": 64, "value": 127}, "group": "control_change"}, {"time": 1710, "annotation": {"number": 64, "value": 0}, "group": "control_change"}, {"time": 1713, "annotation": {"number": 64, "value": 127}, "group": "control_change"}, {"time": 1735, "annotation": {"number": 64, "value": 0}, "group": "control_change"}, {"time": 1738, "annotation": {"number": 64, "value": 127}, "group": "control_change"}, {"time": 1758, "annotation": {"number": 64, "value": 0}, "group": "control_change"}, {"time": 1761, "annotation": {"number": 64, "value": 127}, "group": "control_change"}, {"time": 1783, "annotation": {"number": 64, "value": 0}, "group": "control_change"}, {"time": 1786, "annotation": {"number": 64, "value": 127}, "group": "control_change"}, {"time": 1807, "annotation": {"number": 64, "value": 0}, "group": "control_change"}, {"time": 1810, "annotation": {"number": 64, "value": 127}, "group": "control_change"}, {"time": 1831, "annotation": {"number": 64, "value": 0}, "group": "control_change"}, {"time": 1834, "annotation": {"number": 64, "value": 127}, "group": "control_change"}, {"time": 1855, "annotation": {"number": 64, "value": 0}, "group": "control_change"}, {"time": 1858, "annotation": {"number": 64, "value": 127}, "group": "control_change"}, {"time": 1879, "annotation": {"number": 64, "value": 0}, "group": "control_change"}, {"time": 1882, "annotation": {"number": 64, "value": 127}, "group": "control_change"}, {"time": 1902, "annotation": {"number": 64, "value": 0}, "group": "control_change"}, {"time": 1906, "annotation": {"number": 64, "value": 127}, "group": "control_change"}, {"time": 1943, "annotation": {"number": 64, "value": 0}, "group": "control_change"}, {"time": 1955, "annotation": {"number": 64, "value": 127}, "group": "control_change"}, {"time": 1975, "annotation": {"number": 64, "value": 0}, "group": "control_change"}, {"time": 1978, "annotation": {"number": 64, "value": 127}, "group": "control_change"}, {"time": 2000, "annotation": {"number": 64, "value": 0}, "group": "control_change"}, {"time": 2002, "annotation": {"number": 64, "value": 127}, "group": "control_change"}, {"time": 2024, "annotation": {"number": 64, "value": 0}, "group": "control_change"}, {"time": 2026, "annotation": {"number": 64, "value": 127}, "group": "control_change"}, {"time": 2047, "annotation": {"number": 64, "value": 0}, "group": "control_change"}, {"time": 2050, "annotation": {"number": 64, "value": 127}, "group": "control_change"}, {"time": 2071, "annotation": {"number": 64, "value": 0}, "group": "control_change"}, {"time": 2073, "annotation": {"number": 64, "value": 127}, "group": "control_change"}, {"time": 2095, "annotation": {"number": 64, "value": 0}, "group": "control_change"}, {"time": 2098, "annotation": {"number": 64, "value": 127}, "group": "control_change"}, {"time": 2120, "annotation": {"number": 64, "value": 0}, "group": "control_change"}, {"time": 2122, "annotation": {"number": 64, "value": 127}, "group": "control_change"}, {"time": 2143, "annotation": {"number": 64, "value": 0}, "group": "control_change"}, {"time": 2146, "annotation": {"number": 64, "value": 127}, "group": "control_change"}, {"time": 2167, "annotation": {"number": 64, "value": 0}, "group": "control_change"}, {"time": 2169, "annotation": {"number": 64, "value": 127}, "group": "control_change"}, {"time": 2190, "annotation": {"number": 64, "value": 0}, "group": "control_change"}, {"time": 2193, "annotation": {"number": 64, "value": 127}, "group": "control_change"}, {"time": 2215, "annotation": {"number": 64, "value": 0}, "group": "control_change"}, {"time": 2218, "annotation": {"number": 64, "value": 127}, "group": "control_change"}, {"time": 2237, "annotation": {"number": 64, "value": 0}, "group": "control_change"}, {"time": 2241, "annotation": {"number": 64, "value": 127}, "group": "control_change"}, {"time": 2262, "annotation": {"number": 64, "value": 0}, "group": "control_change"}, {"time": 2266, "annotation": {"number": 64, "value": 127}, "group": "control_change"}, {"time": 2287, "annotation": {"number": 64, "value": 0}, "group": "control_change"}, {"time": 2290, "annotation": {"number": 64, "value": 127}, "group": "control_change"}, {"time": 2312, "annotation": {"number": 64, "value": 0}, "group": "control_change"}, {"time": 2314, "annotation": {"number": 64, "value": 127}, "group": "control_change"}, {"time": 2338, "annotation": {"number": 64, "value": 0}, "group": "control_change"}, {"time": 2446, "annotation": {"number": 64, "value": 127}, "group": "control_change"}, {"time": 2467, "annotation": {"number": 64, "value": 0}, "group": "control_change"}, {"time": 2469, "annotation": {"number": 64, "value": 127}, "group": "control_change"}, {"time": 2491, "annotation": {"number": 64, "value": 0}, "group": "control_change"}, {"time": 2493, "annotation": {"number": 64, "value": 127}, "group": "control_change"}, {"time": 2516, "annotation": {"number": 64, "value": 0}, "group": "control_change"}, {"time": 2542, "annotation": {"number": 64, "value": 127}, "group": "control_change"}, {"time": 2564, "annotation": {"number": 64, "value": 0}, "group": "control_change"}, {"time": 2565, "annotation": {"number": 64, "value": 127}, "group": "control_change"}, {"time": 2588, "annotation": {"number": 64, "value": 0}, "group": "control_change"}, {"time": 2590, "annotation": {"number": 64, "value": 127}, "group": "control_change"}, {"time": 2612, "annotation": {"number": 64, "value": 0}, "group": "control_change"}, {"time": 2637, "annotation": {"number": 64, "value": 127}, "group": "control_change"}, {"time": 2660, "annotation": {"number": 64, "value": 0}, "group": "control_change"}, {"time": 2662, "annotation": {"number": 64, "value": 127}, "group": "control_change"}, {"time": 2683, "annotation": {"number": 64, "value": 0}, "group": "control_change"}, {"time": 2687, "annotation": {"number": 64, "value": 127}, "group": "control_change"}, {"time": 2707, "annotation": {"number": 64, "value": 0}, "group": "control_change"}, {"time": 2734, "annotation": {"number": 64, "value": 127}, "group": "control_change"}, {"time": 2756, "annotation": {"number": 64, "value": 0}, "group": "control_change"}, {"time": 2758, "annotation": {"number": 64, "value": 127}, "group": "control_change"}, {"time": 2780, "annotation": {"number": 64, "value": 0}, "group": "control_change"}, {"time": 2782, "annotation": {"number": 64, "value": 127}, "group": "control_change"}, {"time": 2804, "annotation": {"number": 64, "value": 0}, "group": "control_change"}, {"time": 2806, "annotation": {"number": 64, "value": 127}, "group": "control_change"}, {"time": 2828, "annotation": {"number": 64, "value": 0}, "group": "control_change"}, {"time": 2831, "annotation": {"number": 64, "value": 127}, "group": "control_change"}, {"time": 2852, "annotation": {"number": 64, "value": 0}, "group": "control_change"}, {"time": 2854, "annotation": {"number": 64, "value": 127}, "group": "control_change"}, {"time": 2876, "annotation": {"number": 64, "value": 0}, "group": "control_change"}, {"time": 2878, "annotation": {"number": 64, "value": 127}, "group": "control_change"}, {"time": 2900, "annotation": {"number": 64, "value": 0}, "group": "control_change"}, {"time": 2902, "annotation": {"number": 64, "value": 127}, "group": "control_change"}, {"time": 2923, "annotation": {"number": 64, "value": 0}, "group": "control_change"}, {"time": 2930, "annotation": {"number": 64, "value": 127}, "group": "control_change"}, {"time": 2947, "annotation": {"number": 64, "value": 0}, "group": "control_change"}, {"time": 2950, "annotation": {"number": 64, "value": 127}, "group": "control_change"}, {"time": 2960, "annotation": {"number": 64, "value": 0}, "group": "control_change"}, {"time": 2961, "annotation": {"number": 64, "value": 127}, "group": "control_change"}, {"time": 2970, "annotation": {"number": 64, "value": 0}, "group": "control_change"}, {"time": 2973, "annotation": {"number": 64, "value": 127}, "group": "control_change"}, {"time": 2993, "annotation": {"number": 64, "value": 0}, "group": "control_change"}, {"time": 3001, "annotation": {"number": 64, "value": 127}, "group": "control_change"}, {"time": 3009, "annotation": {"number": 64, "value": 0}, "group": "control_change"}, {"time": 3024, "annotation": {"number": 64, "value": 127}, "group": "control_change"}, {"time": 3101, "annotation": {"number": 64, "value": 0}, "group": "control_change"}, {"time": 3102, "annotation": {"number": 64, "value": 127}, "group": "control_change"}, {"time": 3102, "annotation": {"number": 64, "value": 0}, "group": "control_change"}, {"time": 3116, "annotation": {"number": 64, "value": 127}, "group": "control_change"}, {"time": 3118, "annotation": {"number": 64, "value": 0}, "group": "control_change"}, {"time": 3130, "annotation": {"number": 64, "value": 127}, "group": "control_change"}, {"time": 3139, "annotation": {"number": 64, "value": 0}, "group": "control_change"}, {"time": 3143, "annotation": {"number": 64, "value": 127}, "group": "control_change"}, {"time": 3151, "annotation": {"number": 64, "value": 0}, "group": "control_change"}, {"time": 3154, "annotation": {"number": 64, "value": 127}, "group": "control_change"}, {"time": 3173, "annotation": {"number": 64, "value": 0}, "group": "control_change"}, {"time": 3173, "annotation": {"number": 64, "value": 127}, "group": "control_change"}, {"time": 3175, "annotation": {"number": 64, "value": 0}, "group": "control_change"}, {"time": 3178, "annotation": {"number": 64, "value": 127}, "group": "control_change"}, {"time": 3190, "annotation": {"number": 64, "value": 0}, "group": "control_change"}, {"time": 3201, "annotation": {"number": 64, "value": 127}, "group": "control_change"}, {"time": 3223, "annotation": {"number": 64, "value": 0}, "group": "control_change"}, {"time": 3225, "annotation": {"number": 64, "value": 127}, "group": "control_change"}, {"time": 3236, "annotation": {"number": 64, "value": 0}, "group": "control_change"}, {"time": 3239, "annotation": {"number": 64, "value": 127}, "group": "control_change"}, {"time": 3247, "annotation": {"number": 64, "value": 0}, "group": "control_change"}, {"time": 3251, "annotation": {"number": 64, "value": 127}, "group": "control_change"}, {"time": 3260, "annotation": {"number": 64, "value": 0}, "group": "control_change"}, {"time": 3274, "annotation": {"number": 64, "value": 127}, "group": "control_change"}, {"time": 3285, "annotation": {"number": 64, "value": 0}, "group": "control_change"}, {"time": 3290, "annotation": {"number": 64, "value": 127}, "group": "control_change"}, {"time": 3308, "annotation": {"number": 64, "value": 0}, "group": "control_change"}, {"time": 3358, "annotation": {"number": 64, "value": 127}, "group": "control_change"}, {"time": 3380, "annotation": {"number": 64, "value": 0}, "group": "control_change"}, {"time": 3382, "annotation": {"number": 64, "value": 127}, "group": "control_change"}, {"time": 3404, "annotation": {"number": 64, "value": 0}, "group": "control_change"}, {"time": 3406, "annotation": {"number": 64, "value": 127}, "group": "control_change"}, {"time": 3427, "annotation": {"number": 64, "value": 0}, "group": "control_change"}, {"time": 3430, "annotation": {"number": 64, "value": 127}, "group": "control_change"}, {"time": 3451, "annotation": {"number": 64, "value": 0}, "group": "control_change"}, {"time": 3454, "annotation": {"number": 64, "value": 127}, "group": "control_change"}, {"time": 3475, "annotation": {"number": 64, "value": 0}, "group": "control_change"}, {"time": 3478, "annotation": {"number": 64, "value": 127}, "group": "control_change"}, {"time": 3499, "annotation": {"number": 64, "value": 0}, "group": "control_change"}, {"time": 3502, "annotation": {"number": 64, "value": 127}, "group": "control_change"}, {"time": 3523, "annotation": {"number": 64, "value": 0}, "group": "control_change"}, {"time": 3526, "annotation": {"number": 64, "value": 127}, "group": "control_change"}, {"time": 3547, "annotation": {"number": 64, "value": 0}, "group": "control_change"}, {"time": 3550, "annotation": {"number": 64, "value": 127}, "group": "control_change"}, {"time": 3571, "annotation": {"number": 64, "value": 0}, "group": "control_change"}, {"time": 3574, "annotation": {"number": 64, "value": 127}, "group": "control_change"}, {"time": 3595, "annotation": {"number": 64, "value": 0}, "group": "control_change"}, {"time": 3597, "annotation": {"number": 64, "value": 127}, "group": "control_change"}, {"time": 3619, "annotation": {"number": 64, "value": 0}, "group": "control_change"}, {"time": 3622, "annotation": {"number": 64, "value": 127}, "group": "control_change"}, {"time": 3642, "annotation": {"number": 64, "value": 0}, "group": "control_change"}, {"time": 3646, "annotation": {"number": 64, "value": 127}, "group": "control_change"}, {"time": 3666, "annotation": {"number": 64, "value": 0}, "group": "control_change"}, {"time": 3669, "annotation": {"number": 64, "value": 127}, "group": "control_change"}, {"time": 3690, "annotation": {"number": 64, "value": 0}, "group": "control_change"}, {"time": 3694, "annotation": {"number": 64, "value": 127}, "group": "control_change"}, {"time": 3738, "annotation": {"number": 64, "value": 0}, "group": "control_change"}, {"time": 3861, "annotation": {"number": 64, "value": 127}, "group": "control_change"}, {"time": 3934, "annotation": {"number": 64, "value": 0}, "group": "control_change"}, {"time": 3939, "annotation": {"number": 64, "value": 127}, "group": "control_change"}, {"time": 3940, "annotation": {"number": 64, "value": 0}, "group": "control_change"}]}]}