{"metadata": {"schema_version": "0.2", "title": "None", "source_filename": "741.mid", "source_format": "midi"}, "resolution": 12, "tempos": [{"time": 0, "qpm": 73.00007178340392}], "time_signatures": [{"time": 0, "numerator": 1, "denominator": 4}], "tracks": [{"program": 4, "is_drum": false, "name": "MELODY", "notes": [{"time": 364, "pitch": 68, "duration": 8, "velocity": 102}, {"time": 376, "pitch": 70, "duration": 5, "velocity": 127}, {"time": 382, "pitch": 65, "duration": 7, "velocity": 97}, {"time": 412, "pitch": 65, "duration": 8, "velocity": 99}, {"time": 421, "pitch": 63, "duration": 3, "velocity": 97}, {"time": 424, "pitch": 65, "duration": 5, "velocity": 95}, {"time": 430, "pitch": 61, "duration": 14, "velocity": 96}, {"time": 460, "pitch": 56, "duration": 8, "velocity": 93}, {"time": 468, "pitch": 58, "duration": 5, "velocity": 74}, {"time": 472, "pitch": 68, "duration": 6, "velocity": 93}, {"time": 480, "pitch": 65, "duration": 18, "velocity": 99}, {"time": 504, "pitch": 65, "duration": 3, "velocity": 96}, {"time": 508, "pitch": 68, "duration": 6, "velocity": 92}, {"time": 516, "pitch": 65, "duration": 2, "velocity": 99}, {"time": 520, "pitch": 61, "duration": 6, "velocity": 96}, {"time": 528, "pitch": 58, "duration": 16, "velocity": 102}, {"time": 568, "pitch": 70, "duration": 5, "velocity": 112}, {"time": 576, "pitch": 70, "duration": 3, "velocity": 102}, {"time": 580, "pitch": 68, "duration": 5, "velocity": 102}, {"time": 588, "pitch": 70, "duration": 2, "velocity": 102}, {"time": 592, "pitch": 65, "duration": 13, "velocity": 100}, {"time": 616, "pitch": 70, "duration": 1, "velocity": 112}, {"time": 620, "pitch": 70, "duration": 2, "velocity": 100}, {"time": 624, "pitch": 68, "duration": 2, "velocity": 100}, {"time": 628, "pitch": 70, "duration": 4, "velocity": 107}, {"time": 632, "pitch": 68, "duration": 2, "velocity": 99}, {"time": 636, "pitch": 63, "duration": 4, "velocity": 100}, {"time": 640, "pitch": 65, "duration": 13, "velocity": 112}, {"time": 664, "pitch": 63, "duration": 5, "velocity": 102}, {"time": 672, "pitch": 61, "duration": 2, "velocity": 93}, {"time": 676, "pitch": 63, "duration": 5, "velocity": 102}, {"time": 684, "pitch": 61, "duration": 2, "velocity": 99}, {"time": 688, "pitch": 63, "duration": 2, "velocity": 107}, {"time": 692, "pitch": 63, "duration": 2, "velocity": 102}, {"time": 696, "pitch": 61, "duration": 2, "velocity": 97}, {"time": 700, "pitch": 63, "duration": 2, "velocity": 102}, {"time": 704, "pitch": 63, "duration": 2, "velocity": 107}, {"time": 708, "pitch": 65, "duration": 2, "velocity": 97}, {"time": 713, "pitch": 63, "duration": 3, "velocity": 122}, {"time": 717, "pitch": 63, "duration": 1, "velocity": 122}, {"time": 720, "pitch": 61, "duration": 2, "velocity": 93}, {"time": 724, "pitch": 63, "duration": 2, "velocity": 112}, {"time": 728, "pitch": 63, "duration": 2, "velocity": 102}, {"time": 732, "pitch": 61, "duration": 2, "velocity": 95}, {"time": 736, "pitch": 65, "duration": 6, "velocity": 127}, {"time": 752, "pitch": 68, "duration": 7, "velocity": 117}, {"time": 760, "pitch": 70, "duration": 4, "velocity": 122}, {"time": 767, "pitch": 65, "duration": 3, "velocity": 102}, {"time": 770, "pitch": 63, "duration": 3, "velocity": 97}, {"time": 774, "pitch": 65, "duration": 6, "velocity": 102}, {"time": 796, "pitch": 65, "duration": 5, "velocity": 97}, {"time": 801, "pitch": 63, "duration": 5, "velocity": 122}, {"time": 808, "pitch": 65, "duration": 5, "velocity": 100}, {"time": 812, "pitch": 61, "duration": 17, "velocity": 112}, {"time": 845, "pitch": 56, "duration": 6, "velocity": 99}, {"time": 852, "pitch": 58, "duration": 2, "velocity": 102}, {"time": 857, "pitch": 68, "duration": 7, "velocity": 102}, {"time": 864, "pitch": 65, "duration": 16, "velocity": 117}, {"time": 888, "pitch": 65, "duration": 2, "velocity": 95}, {"time": 892, "pitch": 68, "duration": 4, "velocity": 107}, {"time": 900, "pitch": 63, "duration": 2, "velocity": 97}, {"time": 904, "pitch": 61, "duration": 7, "velocity": 99}, {"time": 911, "pitch": 58, "duration": 22, "velocity": 92}, {"time": 953, "pitch": 70, "duration": 4, "velocity": 127}, {"time": 960, "pitch": 70, "duration": 3, "velocity": 117}, {"time": 964, "pitch": 68, "duration": 6, "velocity": 127}, {"time": 972, "pitch": 70, "duration": 2, "velocity": 122}, {"time": 976, "pitch": 65, "duration": 14, "velocity": 112}, {"time": 1000, "pitch": 70, "duration": 2, "velocity": 112}, {"time": 1004, "pitch": 70, "duration": 2, "velocity": 102}, {"time": 1008, "pitch": 68, "duration": 1, "velocity": 102}, {"time": 1012, "pitch": 70, "duration": 2, "velocity": 122}, {"time": 1016, "pitch": 68, "duration": 1, "velocity": 102}, {"time": 1020, "pitch": 63, "duration": 2, "velocity": 99}, {"time": 1024, "pitch": 65, "duration": 13, "velocity": 122}, {"time": 1048, "pitch": 63, "duration": 5, "velocity": 107}, {"time": 1056, "pitch": 61, "duration": 2, "velocity": 100}, {"time": 1060, "pitch": 63, "duration": 4, "velocity": 117}, {"time": 1068, "pitch": 61, "duration": 2, "velocity": 97}, {"time": 1073, "pitch": 63, "duration": 1, "velocity": 107}, {"time": 1076, "pitch": 63, "duration": 2, "velocity": 99}, {"time": 1080, "pitch": 61, "duration": 2, "velocity": 97}, {"time": 1084, "pitch": 63, "duration": 3, "velocity": 122}, {"time": 1088, "pitch": 63, "duration": 1, "velocity": 107}, {"time": 1092, "pitch": 65, "duration": 1, "velocity": 99}, {"time": 1096, "pitch": 63, "duration": 1, "velocity": 107}, {"time": 1100, "pitch": 63, "duration": 1, "velocity": 96}, {"time": 1104, "pitch": 61, "duration": 2, "velocity": 97}, {"time": 1108, "pitch": 63, "duration": 1, "velocity": 127}, {"time": 1112, "pitch": 63, "duration": 2, "velocity": 99}, {"time": 1116, "pitch": 65, "duration": 2, "velocity": 112}, {"time": 1120, "pitch": 70, "duration": 2, "velocity": 127}, {"time": 1124, "pitch": 70, "duration": 3, "velocity": 127}, {"time": 1144, "pitch": 73, "duration": 2, "velocity": 127}, {"time": 1148, "pitch": 70, "duration": 1, "velocity": 99}, {"time": 1152, "pitch": 70, "duration": 1, "velocity": 107}, {"time": 1156, "pitch": 70, "duration": 1, "velocity": 117}, {"time": 1160, "pitch": 68, "duration": 1, "velocity": 92}, {"time": 1164, "pitch": 70, "duration": 1, "velocity": 99}, {"time": 1168, "pitch": 68, "duration": 1, "velocity": 127}, {"time": 1172, "pitch": 65, "duration": 1, "velocity": 96}, {"time": 1176, "pitch": 65, "duration": 1, "velocity": 102}, {"time": 1180, "pitch": 65, "duration": 4, "velocity": 112}, {"time": 1185, "pitch": 63, "duration": 1, "velocity": 107}, {"time": 1188, "pitch": 65, "duration": 2, "velocity": 100}, {"time": 1192, "pitch": 68, "duration": 3, "velocity": 112}, {"time": 1196, "pitch": 68, "duration": 2, "velocity": 127}, {"time": 1200, "pitch": 65, "duration": 2, "velocity": 102}, {"time": 1204, "pitch": 63, "duration": 2, "velocity": 102}, {"time": 1208, "pitch": 63, "duration": 2, "velocity": 117}, {"time": 1212, "pitch": 68, "duration": 2, "velocity": 112}, {"time": 1216, "pitch": 65, "duration": 2, "velocity": 107}, {"time": 1220, "pitch": 65, "duration": 2, "velocity": 102}, {"time": 1224, "pitch": 63, "duration": 2, "velocity": 102}, {"time": 1229, "pitch": 65, "duration": 3, "velocity": 127}, {"time": 1240, "pitch": 73, "duration": 2, "velocity": 127}, {"time": 1244, "pitch": 70, "duration": 2, "velocity": 102}, {"time": 1248, "pitch": 70, "duration": 2, "velocity": 107}, {"time": 1252, "pitch": 70, "duration": 1, "velocity": 112}, {"time": 1256, "pitch": 68, "duration": 1, "velocity": 102}, {"time": 1260, "pitch": 70, "duration": 1, "velocity": 112}, {"time": 1264, "pitch": 68, "duration": 1, "velocity": 122}, {"time": 1268, "pitch": 65, "duration": 1, "velocity": 97}, {"time": 1272, "pitch": 65, "duration": 1, "velocity": 97}, {"time": 1276, "pitch": 65, "duration": 2, "velocity": 112}, {"time": 1280, "pitch": 63, "duration": 2, "velocity": 97}, {"time": 1284, "pitch": 65, "duration": 1, "velocity": 97}, {"time": 1288, "pitch": 68, "duration": 2, "velocity": 107}, {"time": 1292, "pitch": 68, "duration": 2, "velocity": 102}, {"time": 1296, "pitch": 65, "duration": 2, "velocity": 102}, {"time": 1300, "pitch": 63, "duration": 2, "velocity": 112}, {"time": 1304, "pitch": 63, "duration": 2, "velocity": 107}, {"time": 1308, "pitch": 68, "duration": 2, "velocity": 100}, {"time": 1312, "pitch": 70, "duration": 1, "velocity": 127}, {"time": 1316, "pitch": 70, "duration": 1, "velocity": 117}, {"time": 1320, "pitch": 68, "duration": 1, "velocity": 112}, {"time": 1324, "pitch": 70, "duration": 1, "velocity": 127}, {"time": 1348, "pitch": 58, "duration": 7, "velocity": 107}, {"time": 1356, "pitch": 61, "duration": 3, "velocity": 112}, {"time": 1361, "pitch": 65, "duration": 7, "velocity": 107}, {"time": 1368, "pitch": 63, "duration": 23, "velocity": 96}, {"time": 1395, "pitch": 65, "duration": 7, "velocity": 100}, {"time": 1403, "pitch": 68, "duration": 4, "velocity": 102}, {"time": 1408, "pitch": 73, "duration": 8, "velocity": 112}, {"time": 1415, "pitch": 70, "duration": 17, "velocity": 107}, {"time": 1432, "pitch": 70, "duration": 5, "velocity": 122}, {"time": 1438, "pitch": 68, "duration": 5, "velocity": 112}, {"time": 1444, "pitch": 72, "duration": 5, "velocity": 117}, {"time": 1450, "pitch": 68, "duration": 5, "velocity": 112}, {"time": 1457, "pitch": 70, "duration": 35, "velocity": 122}, {"time": 1880, "pitch": 68, "duration": 7, "velocity": 117}, {"time": 1888, "pitch": 70, "duration": 4, "velocity": 122}, {"time": 1896, "pitch": 65, "duration": 4, "velocity": 102}, {"time": 1900, "pitch": 63, "duration": 2, "velocity": 97}, {"time": 1902, "pitch": 65, "duration": 8, "velocity": 102}, {"time": 1924, "pitch": 65, "duration": 4, "velocity": 122}, {"time": 1929, "pitch": 63, "duration": 5, "velocity": 97}, {"time": 1936, "pitch": 65, "duration": 5, "velocity": 100}, {"time": 1942, "pitch": 61, "duration": 15, "velocity": 112}, {"time": 1973, "pitch": 56, "duration": 6, "velocity": 99}, {"time": 1980, "pitch": 58, "duration": 2, "velocity": 102}, {"time": 1985, "pitch": 68, "duration": 7, "velocity": 102}, {"time": 1992, "pitch": 65, "duration": 16, "velocity": 117}, {"time": 2016, "pitch": 65, "duration": 2, "velocity": 95}, {"time": 2020, "pitch": 68, "duration": 4, "velocity": 107}, {"time": 2028, "pitch": 63, "duration": 2, "velocity": 97}, {"time": 2032, "pitch": 61, "duration": 7, "velocity": 99}, {"time": 2039, "pitch": 58, "duration": 22, "velocity": 92}, {"time": 2081, "pitch": 70, "duration": 4, "velocity": 127}, {"time": 2088, "pitch": 70, "duration": 3, "velocity": 117}, {"time": 2092, "pitch": 68, "duration": 6, "velocity": 127}, {"time": 2100, "pitch": 70, "duration": 2, "velocity": 122}, {"time": 2104, "pitch": 65, "duration": 14, "velocity": 112}, {"time": 2128, "pitch": 70, "duration": 2, "velocity": 112}, {"time": 2132, "pitch": 70, "duration": 2, "velocity": 102}, {"time": 2136, "pitch": 68, "duration": 1, "velocity": 102}, {"time": 2140, "pitch": 70, "duration": 2, "velocity": 122}, {"time": 2144, "pitch": 68, "duration": 1, "velocity": 102}, {"time": 2148, "pitch": 63, "duration": 2, "velocity": 99}, {"time": 2152, "pitch": 65, "duration": 13, "velocity": 122}, {"time": 2176, "pitch": 63, "duration": 5, "velocity": 107}, {"time": 2184, "pitch": 61, "duration": 2, "velocity": 100}, {"time": 2188, "pitch": 63, "duration": 4, "velocity": 117}, {"time": 2196, "pitch": 61, "duration": 2, "velocity": 97}, {"time": 2201, "pitch": 63, "duration": 1, "velocity": 107}, {"time": 2204, "pitch": 63, "duration": 2, "velocity": 99}, {"time": 2208, "pitch": 61, "duration": 2, "velocity": 97}, {"time": 2212, "pitch": 63, "duration": 3, "velocity": 122}, {"time": 2216, "pitch": 63, "duration": 1, "velocity": 107}, {"time": 2220, "pitch": 65, "duration": 1, "velocity": 99}, {"time": 2224, "pitch": 63, "duration": 1, "velocity": 107}, {"time": 2228, "pitch": 63, "duration": 1, "velocity": 96}, {"time": 2232, "pitch": 61, "duration": 2, "velocity": 97}, {"time": 2236, "pitch": 63, "duration": 1, "velocity": 127}, {"time": 2240, "pitch": 63, "duration": 2, "velocity": 99}, {"time": 2244, "pitch": 65, "duration": 2, "velocity": 112}, {"time": 2248, "pitch": 70, "duration": 2, "velocity": 127}, {"time": 2252, "pitch": 70, "duration": 3, "velocity": 127}, {"time": 2272, "pitch": 73, "duration": 2, "velocity": 127}, {"time": 2276, "pitch": 70, "duration": 1, "velocity": 99}, {"time": 2280, "pitch": 70, "duration": 1, "velocity": 107}, {"time": 2284, "pitch": 70, "duration": 1, "velocity": 117}, {"time": 2288, "pitch": 68, "duration": 1, "velocity": 92}, {"time": 2292, "pitch": 70, "duration": 1, "velocity": 99}, {"time": 2296, "pitch": 68, "duration": 1, "velocity": 127}, {"time": 2300, "pitch": 65, "duration": 1, "velocity": 96}, {"time": 2304, "pitch": 65, "duration": 1, "velocity": 102}, {"time": 2308, "pitch": 65, "duration": 4, "velocity": 112}, {"time": 2313, "pitch": 63, "duration": 1, "velocity": 107}, {"time": 2316, "pitch": 65, "duration": 2, "velocity": 100}, {"time": 2320, "pitch": 68, "duration": 3, "velocity": 112}, {"time": 2324, "pitch": 68, "duration": 2, "velocity": 127}, {"time": 2328, "pitch": 65, "duration": 2, "velocity": 102}, {"time": 2332, "pitch": 63, "duration": 2, "velocity": 102}, {"time": 2336, "pitch": 63, "duration": 2, "velocity": 117}, {"time": 2340, "pitch": 68, "duration": 2, "velocity": 112}, {"time": 2344, "pitch": 65, "duration": 2, "velocity": 107}, {"time": 2348, "pitch": 65, "duration": 2, "velocity": 102}, {"time": 2352, "pitch": 63, "duration": 2, "velocity": 102}, {"time": 2357, "pitch": 65, "duration": 3, "velocity": 127}, {"time": 2368, "pitch": 73, "duration": 2, "velocity": 127}, {"time": 2372, "pitch": 70, "duration": 2, "velocity": 102}, {"time": 2376, "pitch": 70, "duration": 2, "velocity": 107}, {"time": 2380, "pitch": 70, "duration": 1, "velocity": 112}, {"time": 2384, "pitch": 68, "duration": 1, "velocity": 102}, {"time": 2388, "pitch": 70, "duration": 1, "velocity": 112}, {"time": 2392, "pitch": 68, "duration": 1, "velocity": 122}, {"time": 2396, "pitch": 65, "duration": 1, "velocity": 97}, {"time": 2400, "pitch": 65, "duration": 1, "velocity": 97}, {"time": 2404, "pitch": 65, "duration": 2, "velocity": 112}, {"time": 2408, "pitch": 63, "duration": 2, "velocity": 97}, {"time": 2412, "pitch": 65, "duration": 1, "velocity": 97}, {"time": 2416, "pitch": 68, "duration": 2, "velocity": 107}, {"time": 2420, "pitch": 68, "duration": 2, "velocity": 102}, {"time": 2424, "pitch": 65, "duration": 2, "velocity": 102}, {"time": 2428, "pitch": 63, "duration": 2, "velocity": 112}, {"time": 2432, "pitch": 63, "duration": 2, "velocity": 107}, {"time": 2436, "pitch": 68, "duration": 2, "velocity": 100}, {"time": 2440, "pitch": 70, "duration": 1, "velocity": 127}, {"time": 2444, "pitch": 70, "duration": 1, "velocity": 117}, {"time": 2448, "pitch": 68, "duration": 1, "velocity": 112}, {"time": 2452, "pitch": 70, "duration": 1, "velocity": 127}, {"time": 2464, "pitch": 70, "duration": 2, "velocity": 117}, {"time": 2468, "pitch": 70, "duration": 1, "velocity": 95}, {"time": 2472, "pitch": 68, "duration": 1, "velocity": 102}, {"time": 2476, "pitch": 70, "duration": 1, "velocity": 117}, {"time": 2480, "pitch": 70, "duration": 1, "velocity": 102}, {"time": 2484, "pitch": 68, "duration": 1, "velocity": 102}, {"time": 2488, "pitch": 70, "duration": 4, "velocity": 127}, {"time": 2512, "pitch": 73, "duration": 2, "velocity": 127}, {"time": 2516, "pitch": 70, "duration": 1, "velocity": 99}, {"time": 2520, "pitch": 70, "duration": 1, "velocity": 107}, {"time": 2524, "pitch": 70, "duration": 1, "velocity": 117}, {"time": 2528, "pitch": 68, "duration": 1, "velocity": 92}, {"time": 2532, "pitch": 70, "duration": 1, "velocity": 99}, {"time": 2536, "pitch": 68, "duration": 1, "velocity": 127}, {"time": 2540, "pitch": 65, "duration": 1, "velocity": 96}, {"time": 2544, "pitch": 65, "duration": 1, "velocity": 102}, {"time": 2548, "pitch": 65, "duration": 4, "velocity": 112}, {"time": 2553, "pitch": 63, "duration": 1, "velocity": 107}, {"time": 2556, "pitch": 65, "duration": 2, "velocity": 100}, {"time": 2560, "pitch": 68, "duration": 3, "velocity": 112}, {"time": 2564, "pitch": 68, "duration": 2, "velocity": 127}, {"time": 2568, "pitch": 65, "duration": 2, "velocity": 102}, {"time": 2572, "pitch": 63, "duration": 2, "velocity": 102}, {"time": 2576, "pitch": 63, "duration": 2, "velocity": 117}, {"time": 2580, "pitch": 68, "duration": 2, "velocity": 112}, {"time": 2584, "pitch": 65, "duration": 2, "velocity": 107}, {"time": 2588, "pitch": 65, "duration": 2, "velocity": 102}, {"time": 2592, "pitch": 63, "duration": 2, "velocity": 102}, {"time": 2597, "pitch": 65, "duration": 3, "velocity": 127}, {"time": 2608, "pitch": 73, "duration": 2, "velocity": 127}, {"time": 2612, "pitch": 70, "duration": 2, "velocity": 102}, {"time": 2616, "pitch": 70, "duration": 2, "velocity": 107}, {"time": 2620, "pitch": 70, "duration": 1, "velocity": 112}, {"time": 2624, "pitch": 68, "duration": 1, "velocity": 102}, {"time": 2628, "pitch": 70, "duration": 1, "velocity": 112}, {"time": 2632, "pitch": 68, "duration": 1, "velocity": 122}, {"time": 2636, "pitch": 65, "duration": 1, "velocity": 97}, {"time": 2640, "pitch": 65, "duration": 1, "velocity": 97}, {"time": 2644, "pitch": 65, "duration": 2, "velocity": 112}, {"time": 2648, "pitch": 63, "duration": 2, "velocity": 97}, {"time": 2652, "pitch": 65, "duration": 1, "velocity": 97}, {"time": 2656, "pitch": 68, "duration": 2, "velocity": 107}, {"time": 2660, "pitch": 68, "duration": 2, "velocity": 102}, {"time": 2664, "pitch": 65, "duration": 2, "velocity": 102}, {"time": 2668, "pitch": 63, "duration": 2, "velocity": 112}, {"time": 2672, "pitch": 63, "duration": 2, "velocity": 107}, {"time": 2676, "pitch": 68, "duration": 2, "velocity": 100}, {"time": 2680, "pitch": 70, "duration": 1, "velocity": 127}, {"time": 2684, "pitch": 70, "duration": 1, "velocity": 117}, {"time": 2688, "pitch": 68, "duration": 1, "velocity": 112}, {"time": 2692, "pitch": 70, "duration": 1, "velocity": 127}, {"time": 2704, "pitch": 73, "duration": 2, "velocity": 127}, {"time": 2708, "pitch": 70, "duration": 1, "velocity": 99}, {"time": 2712, "pitch": 70, "duration": 1, "velocity": 107}, {"time": 2716, "pitch": 70, "duration": 1, "velocity": 117}, {"time": 2720, "pitch": 68, "duration": 1, "velocity": 92}, {"time": 2724, "pitch": 70, "duration": 1, "velocity": 99}, {"time": 2728, "pitch": 68, "duration": 1, "velocity": 127}, {"time": 2732, "pitch": 65, "duration": 1, "velocity": 96}, {"time": 2736, "pitch": 65, "duration": 1, "velocity": 102}, {"time": 2740, "pitch": 65, "duration": 4, "velocity": 112}, {"time": 2745, "pitch": 63, "duration": 1, "velocity": 107}, {"time": 2748, "pitch": 65, "duration": 2, "velocity": 100}, {"time": 2752, "pitch": 68, "duration": 3, "velocity": 112}, {"time": 2756, "pitch": 68, "duration": 2, "velocity": 127}, {"time": 2760, "pitch": 65, "duration": 2, "velocity": 102}, {"time": 2764, "pitch": 63, "duration": 2, "velocity": 102}, {"time": 2768, "pitch": 63, "duration": 2, "velocity": 117}, {"time": 2772, "pitch": 68, "duration": 2, "velocity": 112}, {"time": 2776, "pitch": 65, "duration": 2, "velocity": 107}, {"time": 2780, "pitch": 65, "duration": 2, "velocity": 102}, {"time": 2784, "pitch": 63, "duration": 2, "velocity": 102}, {"time": 2789, "pitch": 65, "duration": 3, "velocity": 127}, {"time": 2800, "pitch": 73, "duration": 2, "velocity": 127}, {"time": 2804, "pitch": 70, "duration": 2, "velocity": 102}, {"time": 2808, "pitch": 70, "duration": 2, "velocity": 107}, {"time": 2812, "pitch": 70, "duration": 1, "velocity": 112}, {"time": 2816, "pitch": 68, "duration": 1, "velocity": 102}, {"time": 2820, "pitch": 70, "duration": 1, "velocity": 112}, {"time": 2824, "pitch": 68, "duration": 1, "velocity": 122}, {"time": 2828, "pitch": 65, "duration": 1, "velocity": 97}, {"time": 2832, "pitch": 65, "duration": 1, "velocity": 97}, {"time": 2836, "pitch": 65, "duration": 2, "velocity": 112}, {"time": 2840, "pitch": 63, "duration": 2, "velocity": 97}, {"time": 2844, "pitch": 65, "duration": 1, "velocity": 97}, {"time": 2848, "pitch": 68, "duration": 2, "velocity": 107}, {"time": 2852, "pitch": 68, "duration": 2, "velocity": 102}, {"time": 2856, "pitch": 65, "duration": 2, "velocity": 102}, {"time": 2860, "pitch": 63, "duration": 2, "velocity": 112}, {"time": 2864, "pitch": 63, "duration": 2, "velocity": 107}, {"time": 2868, "pitch": 68, "duration": 2, "velocity": 100}, {"time": 2872, "pitch": 70, "duration": 1, "velocity": 127}, {"time": 2876, "pitch": 70, "duration": 1, "velocity": 117}, {"time": 2880, "pitch": 68, "duration": 1, "velocity": 112}, {"time": 2884, "pitch": 70, "duration": 1, "velocity": 127}, {"time": 2888, "pitch": 70, "duration": 1, "velocity": 117}, {"time": 2892, "pitch": 68, "duration": 1, "velocity": 102}, {"time": 2896, "pitch": 70, "duration": 1, "velocity": 127}, {"time": 2900, "pitch": 70, "duration": 1, "velocity": 112}, {"time": 2904, "pitch": 68, "duration": 1, "velocity": 107}, {"time": 2908, "pitch": 70, "duration": 2, "velocity": 122}, {"time": 2912, "pitch": 70, "duration": 2, "velocity": 99}, {"time": 2916, "pitch": 68, "duration": 1, "velocity": 117}, {"time": 2920, "pitch": 70, "duration": 3, "velocity": 127}]}, {"program": 0, "is_drum": false, "name": "PIANO", "notes": [{"time": 88, "pitch": 42, "duration": 11, "velocity": 86}, {"time": 92, "pitch": 49, "duration": 8, "velocity": 81}, {"time": 96, "pitch": 58, "duration": 4, "velocity": 102}, {"time": 100, "pitch": 44, "duration": 11, "velocity": 93}, {"time": 104, "pitch": 56, "duration": 7, "velocity": 86}, {"time": 108, "pitch": 63, "duration": 5, "velocity": 102}, {"time": 112, "pitch": 46, "duration": 19, "velocity": 95}, {"time": 116, "pitch": 53, "duration": 14, "velocity": 97}, {"time": 120, "pitch": 58, "duration": 5, "velocity": 100}, {"time": 124, "pitch": 65, "duration": 12, "velocity": 127}, {"time": 128, "pitch": 61, "duration": 5, "velocity": 112}, {"time": 132, "pitch": 58, "duration": 3, "velocity": 99}, {"time": 134, "pitch": 61, "duration": 2, "velocity": 86}, {"time": 136, "pitch": 42, "duration": 10, "velocity": 86}, {"time": 140, "pitch": 49, "duration": 8, "velocity": 93}, {"time": 142, "pitch": 54, "duration": 3, "velocity": 97}, {"time": 144, "pitch": 58, "duration": 2, "velocity": 86}, {"time": 146, "pitch": 61, "duration": 3, "velocity": 79}, {"time": 148, "pitch": 44, "duration": 10, "velocity": 97}, {"time": 152, "pitch": 51, "duration": 9, "velocity": 63}, {"time": 156, "pitch": 56, "duration": 4, "velocity": 77}, {"time": 160, "pitch": 46, "duration": 17, "velocity": 89}, {"time": 164, "pitch": 53, "duration": 10, "velocity": 81}, {"time": 166, "pitch": 58, "duration": 4, "velocity": 86}, {"time": 168, "pitch": 61, "duration": 4, "velocity": 83}, {"time": 172, "pitch": 65, "duration": 12, "velocity": 100}, {"time": 176, "pitch": 61, "duration": 6, "velocity": 107}, {"time": 180, "pitch": 58, "duration": 6, "velocity": 92}, {"time": 184, "pitch": 39, "duration": 23, "velocity": 89}, {"time": 188, "pitch": 46, "duration": 19, "velocity": 73}, {"time": 192, "pitch": 51, "duration": 6, "velocity": 92}, {"time": 196, "pitch": 63, "duration": 12, "velocity": 99}, {"time": 196, "pitch": 66, "duration": 12, "velocity": 112}, {"time": 200, "pitch": 51, "duration": 2, "velocity": 93}, {"time": 204, "pitch": 58, "duration": 5, "velocity": 95}, {"time": 208, "pitch": 41, "duration": 22, "velocity": 92}, {"time": 212, "pitch": 48, "duration": 20, "velocity": 66}, {"time": 216, "pitch": 53, "duration": 6, "velocity": 92}, {"time": 220, "pitch": 60, "duration": 12, "velocity": 107}, {"time": 220, "pitch": 65, "duration": 12, "velocity": 102}, {"time": 224, "pitch": 53, "duration": 2, "velocity": 93}, {"time": 228, "pitch": 56, "duration": 4, "velocity": 95}, {"time": 232, "pitch": 42, "duration": 23, "velocity": 93}, {"time": 236, "pitch": 49, "duration": 20, "velocity": 67}, {"time": 240, "pitch": 54, "duration": 6, "velocity": 90}, {"time": 244, "pitch": 58, "duration": 10, "velocity": 99}, {"time": 248, "pitch": 54, "duration": 3, "velocity": 82}, {"time": 252, "pitch": 61, "duration": 5, "velocity": 95}, {"time": 256, "pitch": 44, "duration": 22, "velocity": 100}, {"time": 260, "pitch": 51, "duration": 20, "velocity": 75}, {"time": 264, "pitch": 56, "duration": 16, "velocity": 82}, {"time": 268, "pitch": 60, "duration": 12, "velocity": 69}, {"time": 268, "pitch": 63, "duration": 12, "velocity": 70}, {"time": 280, "pitch": 46, "duration": 23, "velocity": 90}, {"time": 284, "pitch": 53, "duration": 11, "velocity": 35}, {"time": 288, "pitch": 58, "duration": 27, "velocity": 52}, {"time": 292, "pitch": 65, "duration": 23, "velocity": 89}, {"time": 296, "pitch": 53, "duration": 9, "velocity": 54}, {"time": 300, "pitch": 61, "duration": 15, "velocity": 55}, {"time": 304, "pitch": 46, "duration": 23, "velocity": 63}, {"time": 312, "pitch": 53, "duration": 16, "velocity": 53}, {"time": 316, "pitch": 61, "duration": 22, "velocity": 90}, {"time": 316, "pitch": 65, "duration": 22, "velocity": 89}, {"time": 328, "pitch": 46, "duration": 23, "velocity": 79}, {"time": 332, "pitch": 53, "duration": 21, "velocity": 66}, {"time": 336, "pitch": 58, "duration": 6, "velocity": 60}, {"time": 340, "pitch": 65, "duration": 23, "velocity": 71}, {"time": 352, "pitch": 46, "duration": 19, "velocity": 59}, {"time": 364, "pitch": 61, "duration": 13, "velocity": 72}, {"time": 364, "pitch": 65, "duration": 13, "velocity": 65}, {"time": 376, "pitch": 37, "duration": 24, "velocity": 86}, {"time": 380, "pitch": 44, "duration": 20, "velocity": 46}, {"time": 384, "pitch": 49, "duration": 15, "velocity": 63}, {"time": 388, "pitch": 65, "duration": 15, "velocity": 92}, {"time": 396, "pitch": 61, "duration": 7, "velocity": 50}, {"time": 400, "pitch": 48, "duration": 18, "velocity": 71}, {"time": 404, "pitch": 56, "duration": 10, "velocity": 75}, {"time": 408, "pitch": 60, "duration": 5, "velocity": 66}, {"time": 412, "pitch": 63, "duration": 13, "velocity": 93}, {"time": 416, "pitch": 56, "duration": 9, "velocity": 63}, {"time": 420, "pitch": 60, "duration": 5, "velocity": 52}, {"time": 424, "pitch": 46, "duration": 22, "velocity": 76}, {"time": 432, "pitch": 53, "duration": 8, "velocity": 55}, {"time": 436, "pitch": 61, "duration": 21, "velocity": 73}, {"time": 436, "pitch": 65, "duration": 21, "velocity": 79}, {"time": 444, "pitch": 58, "duration": 11, "velocity": 66}, {"time": 448, "pitch": 46, "duration": 23, "velocity": 77}, {"time": 452, "pitch": 53, "duration": 20, "velocity": 40}, {"time": 456, "pitch": 58, "duration": 16, "velocity": 61}, {"time": 460, "pitch": 65, "duration": 12, "velocity": 95}, {"time": 468, "pitch": 61, "duration": 4, "velocity": 50}, {"time": 472, "pitch": 37, "duration": 16, "velocity": 86}, {"time": 476, "pitch": 44, "duration": 13, "velocity": 46}, {"time": 480, "pitch": 49, "duration": 9, "velocity": 92}, {"time": 484, "pitch": 65, "duration": 12, "velocity": 96}, {"time": 488, "pitch": 61, "duration": 8, "velocity": 72}, {"time": 492, "pitch": 56, "duration": 5, "velocity": 72}, {"time": 496, "pitch": 41, "duration": 16, "velocity": 81}, {"time": 504, "pitch": 48, "duration": 10, "velocity": 55}, {"time": 508, "pitch": 60, "duration": 12, "velocity": 76}, {"time": 508, "pitch": 65, "duration": 12, "velocity": 79}, {"time": 516, "pitch": 56, "duration": 4, "velocity": 63}, {"time": 520, "pitch": 46, "duration": 23, "velocity": 82}, {"time": 528, "pitch": 53, "duration": 7, "velocity": 51}, {"time": 532, "pitch": 61, "duration": 22, "velocity": 86}, {"time": 536, "pitch": 53, "duration": 8, "velocity": 56}, {"time": 540, "pitch": 58, "duration": 15, "velocity": 56}, {"time": 544, "pitch": 46, "duration": 16, "velocity": 60}, {"time": 552, "pitch": 53, "duration": 6, "velocity": 37}, {"time": 556, "pitch": 65, "duration": 12, "velocity": 107}, {"time": 560, "pitch": 61, "duration": 8, "velocity": 77}, {"time": 564, "pitch": 58, "duration": 4, "velocity": 74}, {"time": 568, "pitch": 42, "duration": 11, "velocity": 81}, {"time": 572, "pitch": 54, "duration": 8, "velocity": 65}, {"time": 576, "pitch": 61, "duration": 4, "velocity": 96}, {"time": 580, "pitch": 44, "duration": 10, "velocity": 73}, {"time": 584, "pitch": 56, "duration": 8, "velocity": 74}, {"time": 588, "pitch": 63, "duration": 4, "velocity": 90}, {"time": 592, "pitch": 46, "duration": 14, "velocity": 79}, {"time": 596, "pitch": 53, "duration": 8, "velocity": 54}, {"time": 600, "pitch": 58, "duration": 17, "velocity": 72}, {"time": 604, "pitch": 65, "duration": 12, "velocity": 96}, {"time": 612, "pitch": 61, "duration": 4, "velocity": 45}, {"time": 616, "pitch": 42, "duration": 11, "velocity": 74}, {"time": 620, "pitch": 54, "duration": 6, "velocity": 55}, {"time": 624, "pitch": 58, "duration": 4, "velocity": 74}, {"time": 628, "pitch": 44, "duration": 10, "velocity": 75}, {"time": 632, "pitch": 56, "duration": 9, "velocity": 67}, {"time": 636, "pitch": 63, "duration": 4, "velocity": 93}, {"time": 640, "pitch": 46, "duration": 14, "velocity": 73}, {"time": 644, "pitch": 53, "duration": 8, "velocity": 40}, {"time": 648, "pitch": 58, "duration": 17, "velocity": 73}, {"time": 652, "pitch": 65, "duration": 11, "velocity": 86}, {"time": 660, "pitch": 61, "duration": 4, "velocity": 55}, {"time": 664, "pitch": 39, "duration": 18, "velocity": 72}, {"time": 668, "pitch": 46, "duration": 20, "velocity": 54}, {"time": 672, "pitch": 51, "duration": 5, "velocity": 54}, {"time": 676, "pitch": 66, "duration": 12, "velocity": 100}, {"time": 680, "pitch": 63, "duration": 7, "velocity": 58}, {"time": 684, "pitch": 58, "duration": 4, "velocity": 73}, {"time": 688, "pitch": 41, "duration": 23, "velocity": 63}, {"time": 692, "pitch": 48, "duration": 11, "velocity": 48}, {"time": 696, "pitch": 53, "duration": 5, "velocity": 75}, {"time": 700, "pitch": 65, "duration": 12, "velocity": 97}, {"time": 704, "pitch": 48, "duration": 8, "velocity": 65}, {"time": 708, "pitch": 56, "duration": 4, "velocity": 90}, {"time": 712, "pitch": 42, "duration": 22, "velocity": 79}, {"time": 716, "pitch": 49, "duration": 20, "velocity": 52}, {"time": 720, "pitch": 54, "duration": 6, "velocity": 83}, {"time": 724, "pitch": 58, "duration": 5, "velocity": 95}, {"time": 724, "pitch": 61, "duration": 8, "velocity": 95}, {"time": 724, "pitch": 66, "duration": 8, "velocity": 92}, {"time": 728, "pitch": 54, "duration": 3, "velocity": 112}, {"time": 732, "pitch": 58, "duration": 2, "velocity": 107}, {"time": 736, "pitch": 51, "duration": 3, "velocity": 79}, {"time": 736, "pitch": 56, "duration": 3, "velocity": 93}, {"time": 736, "pitch": 44, "duration": 3, "velocity": 69}, {"time": 737, "pitch": 63, "duration": 2, "velocity": 102}, {"time": 737, "pitch": 68, "duration": 2, "velocity": 100}, {"time": 737, "pitch": 72, "duration": 2, "velocity": 97}, {"time": 740, "pitch": 44, "duration": 3, "velocity": 69}, {"time": 740, "pitch": 72, "duration": 4, "velocity": 79}, {"time": 740, "pitch": 51, "duration": 3, "velocity": 79}, {"time": 740, "pitch": 63, "duration": 3, "velocity": 92}, {"time": 740, "pitch": 56, "duration": 3, "velocity": 100}, {"time": 740, "pitch": 68, "duration": 3, "velocity": 93}, {"time": 760, "pitch": 49, "duration": 11, "velocity": 96}, {"time": 764, "pitch": 56, "duration": 8, "velocity": 72}, {"time": 768, "pitch": 65, "duration": 8, "velocity": 93}, {"time": 772, "pitch": 48, "duration": 11, "velocity": 93}, {"time": 776, "pitch": 60, "duration": 6, "velocity": 82}, {"time": 780, "pitch": 65, "duration": 5, "velocity": 82}, {"time": 784, "pitch": 46, "duration": 11, "velocity": 82}, {"time": 788, "pitch": 58, "duration": 9, "velocity": 70}, {"time": 792, "pitch": 65, "duration": 4, "velocity": 93}, {"time": 796, "pitch": 44, "duration": 11, "velocity": 85}, {"time": 800, "pitch": 56, "duration": 8, "velocity": 68}, {"time": 804, "pitch": 63, "duration": 4, "velocity": 93}, {"time": 808, "pitch": 46, "duration": 23, "velocity": 86}, {"time": 812, "pitch": 53, "duration": 20, "velocity": 58}, {"time": 816, "pitch": 58, "duration": 26, "velocity": 65}, {"time": 820, "pitch": 65, "duration": 23, "velocity": 96}, {"time": 828, "pitch": 61, "duration": 14, "velocity": 52}, {"time": 832, "pitch": 46, "duration": 19, "velocity": 77}, {"time": 840, "pitch": 53, "duration": 6, "velocity": 59}, {"time": 844, "pitch": 61, "duration": 13, "velocity": 95}, {"time": 844, "pitch": 65, "duration": 12, "velocity": 90}, {"time": 848, "pitch": 53, "duration": 2, "velocity": 76}, {"time": 852, "pitch": 58, "duration": 4, "velocity": 88}, {"time": 856, "pitch": 37, "duration": 14, "velocity": 92}, {"time": 860, "pitch": 44, "duration": 10, "velocity": 55}, {"time": 864, "pitch": 49, "duration": 5, "velocity": 67}, {"time": 868, "pitch": 61, "duration": 12, "velocity": 89}, {"time": 868, "pitch": 65, "duration": 12, "velocity": 90}, {"time": 876, "pitch": 56, "duration": 6, "velocity": 81}, {"time": 880, "pitch": 41, "duration": 16, "velocity": 77}, {"time": 884, "pitch": 48, "duration": 12, "velocity": 52}, {"time": 888, "pitch": 56, "duration": 6, "velocity": 76}, {"time": 892, "pitch": 60, "duration": 12, "velocity": 79}, {"time": 892, "pitch": 65, "duration": 12, "velocity": 89}, {"time": 900, "pitch": 56, "duration": 4, "velocity": 88}, {"time": 904, "pitch": 46, "duration": 23, "velocity": 78}, {"time": 908, "pitch": 53, "duration": 10, "velocity": 56}, {"time": 912, "pitch": 58, "duration": 7, "velocity": 79}, {"time": 916, "pitch": 65, "duration": 22, "velocity": 97}, {"time": 920, "pitch": 53, "duration": 8, "velocity": 48}, {"time": 924, "pitch": 61, "duration": 15, "velocity": 72}, {"time": 928, "pitch": 46, "duration": 18, "velocity": 73}, {"time": 936, "pitch": 53, "duration": 6, "velocity": 48}, {"time": 940, "pitch": 61, "duration": 12, "velocity": 100}, {"time": 940, "pitch": 65, "duration": 12, "velocity": 97}, {"time": 944, "pitch": 53, "duration": 2, "velocity": 76}, {"time": 948, "pitch": 58, "duration": 5, "velocity": 86}, {"time": 952, "pitch": 42, "duration": 10, "velocity": 88}, {"time": 956, "pitch": 49, "duration": 7, "velocity": 56}, {"time": 960, "pitch": 54, "duration": 4, "velocity": 73}, {"time": 960, "pitch": 58, "duration": 7, "velocity": 77}, {"time": 960, "pitch": 61, "duration": 5, "velocity": 82}, {"time": 964, "pitch": 44, "duration": 7, "velocity": 78}, {"time": 968, "pitch": 56, "duration": 8, "velocity": 85}, {"time": 972, "pitch": 60, "duration": 4, "velocity": 93}, {"time": 976, "pitch": 46, "duration": 15, "velocity": 77}, {"time": 980, "pitch": 53, "duration": 10, "velocity": 60}, {"time": 984, "pitch": 58, "duration": 6, "velocity": 61}, {"time": 988, "pitch": 61, "duration": 12, "velocity": 95}, {"time": 988, "pitch": 65, "duration": 12, "velocity": 97}, {"time": 996, "pitch": 58, "duration": 5, "velocity": 78}, {"time": 1000, "pitch": 42, "duration": 10, "velocity": 90}, {"time": 1004, "pitch": 54, "duration": 8, "velocity": 73}, {"time": 1008, "pitch": 61, "duration": 4, "velocity": 100}, {"time": 1012, "pitch": 44, "duration": 7, "velocity": 92}, {"time": 1016, "pitch": 56, "duration": 9, "velocity": 76}, {"time": 1020, "pitch": 63, "duration": 4, "velocity": 100}, {"time": 1024, "pitch": 46, "duration": 14, "velocity": 70}, {"time": 1028, "pitch": 53, "duration": 8, "velocity": 47}, {"time": 1032, "pitch": 58, "duration": 6, "velocity": 67}, {"time": 1036, "pitch": 61, "duration": 12, "velocity": 72}, {"time": 1036, "pitch": 65, "duration": 12, "velocity": 99}, {"time": 1044, "pitch": 58, "duration": 5, "velocity": 82}, {"time": 1048, "pitch": 39, "duration": 21, "velocity": 69}, {"time": 1052, "pitch": 46, "duration": 20, "velocity": 48}, {"time": 1056, "pitch": 51, "duration": 6, "velocity": 63}, {"time": 1060, "pitch": 63, "duration": 12, "velocity": 95}, {"time": 1060, "pitch": 66, "duration": 12, "velocity": 85}, {"time": 1064, "pitch": 51, "duration": 2, "velocity": 65}, {"time": 1068, "pitch": 58, "duration": 5, "velocity": 82}, {"time": 1072, "pitch": 41, "duration": 22, "velocity": 66}, {"time": 1076, "pitch": 48, "duration": 20, "velocity": 50}, {"time": 1080, "pitch": 53, "duration": 6, "velocity": 63}, {"time": 1084, "pitch": 56, "duration": 6, "velocity": 77}, {"time": 1084, "pitch": 60, "duration": 12, "velocity": 83}, {"time": 1084, "pitch": 65, "duration": 12, "velocity": 77}, {"time": 1088, "pitch": 53, "duration": 2, "velocity": 64}, {"time": 1092, "pitch": 56, "duration": 4, "velocity": 71}, {"time": 1096, "pitch": 42, "duration": 15, "velocity": 72}, {"time": 1100, "pitch": 49, "duration": 10, "velocity": 66}, {"time": 1104, "pitch": 54, "duration": 3, "velocity": 93}, {"time": 1108, "pitch": 58, "duration": 7, "velocity": 107}, {"time": 1108, "pitch": 61, "duration": 7, "velocity": 112}, {"time": 1112, "pitch": 42, "duration": 6, "velocity": 36}, {"time": 1112, "pitch": 49, "duration": 6, "velocity": 100}, {"time": 1116, "pitch": 54, "duration": 3, "velocity": 93}, {"time": 1116, "pitch": 58, "duration": 3, "velocity": 76}, {"time": 1116, "pitch": 61, "duration": 3, "velocity": 77}, {"time": 1120, "pitch": 44, "duration": 2, "velocity": 95}, {"time": 1120, "pitch": 56, "duration": 2, "velocity": 90}, {"time": 1120, "pitch": 60, "duration": 2, "velocity": 95}, {"time": 1120, "pitch": 63, "duration": 1, "velocity": 85}, {"time": 1124, "pitch": 44, "duration": 2, "velocity": 93}, {"time": 1124, "pitch": 56, "duration": 2, "velocity": 85}, {"time": 1124, "pitch": 60, "duration": 2, "velocity": 86}, {"time": 1124, "pitch": 63, "duration": 2, "velocity": 88}, {"time": 1144, "pitch": 42, "duration": 18, "velocity": 92}, {"time": 1146, "pitch": 49, "duration": 15, "velocity": 72}, {"time": 1148, "pitch": 54, "duration": 6, "velocity": 81}, {"time": 1150, "pitch": 61, "duration": 4, "velocity": 82}, {"time": 1152, "pitch": 66, "duration": 3, "velocity": 85}, {"time": 1156, "pitch": 70, "duration": 11, "velocity": 122}, {"time": 1160, "pitch": 66, "duration": 7, "velocity": 95}, {"time": 1164, "pitch": 61, "duration": 5, "velocity": 90}, {"time": 1168, "pitch": 41, "duration": 15, "velocity": 85}, {"time": 1172, "pitch": 48, "duration": 12, "velocity": 74}, {"time": 1174, "pitch": 53, "duration": 6, "velocity": 83}, {"time": 1176, "pitch": 60, "duration": 4, "velocity": 78}, {"time": 1178, "pitch": 65, "duration": 3, "velocity": 81}, {"time": 1180, "pitch": 68, "duration": 11, "velocity": 107}, {"time": 1184, "pitch": 65, "duration": 7, "velocity": 88}, {"time": 1188, "pitch": 60, "duration": 4, "velocity": 90}, {"time": 1192, "pitch": 44, "duration": 18, "velocity": 81}, {"time": 1196, "pitch": 51, "duration": 13, "velocity": 66}, {"time": 1198, "pitch": 56, "duration": 5, "velocity": 73}, {"time": 1200, "pitch": 60, "duration": 4, "velocity": 85}, {"time": 1202, "pitch": 63, "duration": 2, "velocity": 77}, {"time": 1204, "pitch": 68, "duration": 12, "velocity": 96}, {"time": 1208, "pitch": 63, "duration": 7, "velocity": 90}, {"time": 1212, "pitch": 60, "duration": 4, "velocity": 96}, {"time": 1216, "pitch": 46, "duration": 2, "velocity": 99}, {"time": 1216, "pitch": 61, "duration": 2, "velocity": 99}, {"time": 1216, "pitch": 58, "duration": 2, "velocity": 97}, {"time": 1216, "pitch": 65, "duration": 2, "velocity": 96}, {"time": 1220, "pitch": 65, "duration": 2, "velocity": 86}, {"time": 1220, "pitch": 58, "duration": 2, "velocity": 92}, {"time": 1220, "pitch": 61, "duration": 2, "velocity": 92}, {"time": 1220, "pitch": 46, "duration": 3, "velocity": 100}, {"time": 1224, "pitch": 63, "duration": 2, "velocity": 88}, {"time": 1224, "pitch": 60, "duration": 3, "velocity": 92}, {"time": 1224, "pitch": 56, "duration": 2, "velocity": 95}, {"time": 1224, "pitch": 44, "duration": 3, "velocity": 107}, {"time": 1228, "pitch": 58, "duration": 4, "velocity": 95}, {"time": 1228, "pitch": 61, "duration": 4, "velocity": 99}, {"time": 1228, "pitch": 46, "duration": 4, "velocity": 122}, {"time": 1228, "pitch": 65, "duration": 4, "velocity": 97}, {"time": 1240, "pitch": 42, "duration": 18, "velocity": 93}, {"time": 1244, "pitch": 49, "duration": 13, "velocity": 73}, {"time": 1246, "pitch": 54, "duration": 7, "velocity": 73}, {"time": 1248, "pitch": 58, "duration": 4, "velocity": 77}, {"time": 1250, "pitch": 61, "duration": 3, "velocity": 86}, {"time": 1252, "pitch": 66, "duration": 12, "velocity": 99}, {"time": 1256, "pitch": 61, "duration": 8, "velocity": 99}, {"time": 1260, "pitch": 58, "duration": 5, "velocity": 82}, {"time": 1264, "pitch": 41, "duration": 22, "velocity": 89}, {"time": 1268, "pitch": 48, "duration": 19, "velocity": 77}, {"time": 1270, "pitch": 53, "duration": 6, "velocity": 64}, {"time": 1272, "pitch": 56, "duration": 3, "velocity": 72}, {"time": 1274, "pitch": 60, "duration": 2, "velocity": 82}, {"time": 1276, "pitch": 65, "duration": 12, "velocity": 93}, {"time": 1280, "pitch": 60, "duration": 8, "velocity": 83}, {"time": 1284, "pitch": 56, "duration": 4, "velocity": 88}, {"time": 1288, "pitch": 44, "duration": 22, "velocity": 75}, {"time": 1292, "pitch": 51, "duration": 17, "velocity": 79}, {"time": 1294, "pitch": 56, "duration": 3, "velocity": 73}, {"time": 1296, "pitch": 60, "duration": 4, "velocity": 67}, {"time": 1300, "pitch": 63, "duration": 10, "velocity": 107}, {"time": 1304, "pitch": 60, "duration": 7, "velocity": 85}, {"time": 1308, "pitch": 56, "duration": 3, "velocity": 82}, {"time": 1312, "pitch": 46, "duration": 3, "velocity": 66}, {"time": 1312, "pitch": 58, "duration": 3, "velocity": 86}, {"time": 1312, "pitch": 61, "duration": 3, "velocity": 86}, {"time": 1312, "pitch": 65, "duration": 2, "velocity": 81}, {"time": 1316, "pitch": 46, "duration": 3, "velocity": 70}, {"time": 1316, "pitch": 58, "duration": 2, "velocity": 85}, {"time": 1316, "pitch": 61, "duration": 2, "velocity": 88}, {"time": 1316, "pitch": 65, "duration": 2, "velocity": 82}, {"time": 1320, "pitch": 44, "duration": 3, "velocity": 93}, {"time": 1320, "pitch": 56, "duration": 2, "velocity": 89}, {"time": 1320, "pitch": 60, "duration": 2, "velocity": 90}, {"time": 1320, "pitch": 63, "duration": 2, "velocity": 85}, {"time": 1324, "pitch": 46, "duration": 4, "velocity": 102}, {"time": 1324, "pitch": 58, "duration": 4, "velocity": 95}, {"time": 1324, "pitch": 61, "duration": 3, "velocity": 97}, {"time": 1324, "pitch": 65, "duration": 4, "velocity": 96}, {"time": 1336, "pitch": 39, "duration": 19, "velocity": 88}, {"time": 1340, "pitch": 46, "duration": 15, "velocity": 59}, {"time": 1344, "pitch": 51, "duration": 16, "velocity": 63}, {"time": 1348, "pitch": 66, "duration": 13, "velocity": 93}, {"time": 1352, "pitch": 63, "duration": 9, "velocity": 64}, {"time": 1356, "pitch": 58, "duration": 5, "velocity": 77}, {"time": 1360, "pitch": 44, "duration": 13, "velocity": 75}, {"time": 1364, "pitch": 51, "duration": 9, "velocity": 68}, {"time": 1368, "pitch": 56, "duration": 17, "velocity": 68}, {"time": 1372, "pitch": 60, "duration": 13, "velocity": 83}, {"time": 1372, "pitch": 63, "duration": 12, "velocity": 90}, {"time": 1384, "pitch": 41, "duration": 19, "velocity": 66}, {"time": 1388, "pitch": 48, "duration": 15, "velocity": 51}, {"time": 1392, "pitch": 53, "duration": 8, "velocity": 82}, {"time": 1396, "pitch": 60, "duration": 13, "velocity": 74}, {"time": 1396, "pitch": 65, "duration": 13, "velocity": 86}, {"time": 1408, "pitch": 46, "duration": 20, "velocity": 76}, {"time": 1412, "pitch": 53, "duration": 11, "velocity": 58}, {"time": 1416, "pitch": 58, "duration": 5, "velocity": 74}, {"time": 1420, "pitch": 61, "duration": 12, "velocity": 86}, {"time": 1420, "pitch": 65, "duration": 12, "velocity": 85}, {"time": 1424, "pitch": 53, "duration": 3, "velocity": 54}, {"time": 1428, "pitch": 58, "duration": 4, "velocity": 71}, {"time": 1432, "pitch": 42, "duration": 5, "velocity": 100}, {"time": 1432, "pitch": 54, "duration": 5, "velocity": 97}, {"time": 1432, "pitch": 58, "duration": 5, "velocity": 100}, {"time": 1432, "pitch": 61, "duration": 5, "velocity": 97}, {"time": 1438, "pitch": 41, "duration": 4, "velocity": 97}, {"time": 1438, "pitch": 53, "duration": 5, "velocity": 92}, {"time": 1438, "pitch": 60, "duration": 5, "velocity": 83}, {"time": 1444, "pitch": 41, "duration": 4, "velocity": 97}, {"time": 1444, "pitch": 53, "duration": 5, "velocity": 99}, {"time": 1444, "pitch": 60, "duration": 5, "velocity": 97}, {"time": 1450, "pitch": 41, "duration": 5, "velocity": 112}, {"time": 1450, "pitch": 53, "duration": 5, "velocity": 102}, {"time": 1450, "pitch": 60, "duration": 2, "velocity": 97}, {"time": 1456, "pitch": 47, "duration": 51, "velocity": 100}, {"time": 1456, "pitch": 58, "duration": 47, "velocity": 102}, {"time": 1456, "pitch": 59, "duration": 51, "velocity": 127}, {"time": 1456, "pitch": 63, "duration": 51, "velocity": 100}, {"time": 1456, "pitch": 66, "duration": 50, "velocity": 71}, {"time": 1456, "pitch": 70, "duration": 47, "velocity": 96}, {"time": 1474, "pitch": 70, "duration": 29, "velocity": 41}, {"time": 1476, "pitch": 71, "duration": 27, "velocity": 53}, {"time": 1478, "pitch": 74, "duration": 1, "velocity": 59}, {"time": 1478, "pitch": 75, "duration": 25, "velocity": 73}, {"time": 1480, "pitch": 78, "duration": 22, "velocity": 72}, {"time": 1482, "pitch": 82, "duration": 3, "velocity": 82}, {"time": 1483, "pitch": 83, "duration": 3, "velocity": 100}, {"time": 1485, "pitch": 87, "duration": 3, "velocity": 66}, {"time": 1487, "pitch": 90, "duration": 1, "velocity": 68}, {"time": 1490, "pitch": 94, "duration": 7, "velocity": 81}, {"time": 1492, "pitch": 95, "duration": 4, "velocity": 69}, {"time": 1494, "pitch": 99, "duration": 3, "velocity": 85}, {"time": 1496, "pitch": 102, "duration": 2, "velocity": 88}, {"time": 1504, "pitch": 42, "duration": 11, "velocity": 100}, {"time": 1508, "pitch": 54, "duration": 9, "velocity": 90}, {"time": 1512, "pitch": 61, "duration": 4, "velocity": 100}, {"time": 1516, "pitch": 44, "duration": 8, "velocity": 102}, {"time": 1520, "pitch": 56, "duration": 9, "velocity": 86}, {"time": 1524, "pitch": 63, "duration": 4, "velocity": 102}, {"time": 1528, "pitch": 46, "duration": 18, "velocity": 85}, {"time": 1532, "pitch": 53, "duration": 9, "velocity": 86}, {"time": 1536, "pitch": 58, "duration": 5, "velocity": 77}, {"time": 1540, "pitch": 61, "duration": 12, "velocity": 97}, {"time": 1540, "pitch": 65, "duration": 12, "velocity": 99}, {"time": 1544, "pitch": 53, "duration": 2, "velocity": 64}, {"time": 1548, "pitch": 58, "duration": 5, "velocity": 76}, {"time": 1552, "pitch": 42, "duration": 11, "velocity": 97}, {"time": 1556, "pitch": 54, "duration": 9, "velocity": 81}, {"time": 1556, "pitch": 56, "duration": 1, "velocity": 69}, {"time": 1560, "pitch": 61, "duration": 4, "velocity": 100}, {"time": 1564, "pitch": 44, "duration": 8, "velocity": 92}, {"time": 1568, "pitch": 56, "duration": 9, "velocity": 92}, {"time": 1572, "pitch": 60, "duration": 4, "velocity": 88}, {"time": 1572, "pitch": 63, "duration": 5, "velocity": 97}, {"time": 1576, "pitch": 46, "duration": 13, "velocity": 77}, {"time": 1580, "pitch": 53, "duration": 8, "velocity": 93}, {"time": 1584, "pitch": 58, "duration": 7, "velocity": 93}, {"time": 1588, "pitch": 65, "duration": 12, "velocity": 122}, {"time": 1592, "pitch": 61, "duration": 8, "velocity": 95}, {"time": 1596, "pitch": 58, "duration": 4, "velocity": 97}, {"time": 1600, "pitch": 39, "duration": 23, "velocity": 96}, {"time": 1604, "pitch": 46, "duration": 20, "velocity": 81}, {"time": 1608, "pitch": 51, "duration": 6, "velocity": 92}, {"time": 1612, "pitch": 58, "duration": 6, "velocity": 102}, {"time": 1612, "pitch": 63, "duration": 13, "velocity": 99}, {"time": 1612, "pitch": 66, "duration": 13, "velocity": 92}, {"time": 1616, "pitch": 51, "duration": 3, "velocity": 99}, {"time": 1620, "pitch": 58, "duration": 5, "velocity": 112}, {"time": 1624, "pitch": 41, "duration": 21, "velocity": 112}, {"time": 1628, "pitch": 48, "duration": 10, "velocity": 92}, {"time": 1632, "pitch": 53, "duration": 3, "velocity": 82}, {"time": 1632, "pitch": 56, "duration": 3, "velocity": 89}, {"time": 1632, "pitch": 60, "duration": 3, "velocity": 88}, {"time": 1636, "pitch": 53, "duration": 5, "velocity": 100}, {"time": 1636, "pitch": 56, "duration": 11, "velocity": 97}, {"time": 1636, "pitch": 60, "duration": 9, "velocity": 96}, {"time": 1640, "pitch": 48, "duration": 8, "velocity": 95}, {"time": 1644, "pitch": 53, "duration": 3, "velocity": 99}, {"time": 1648, "pitch": 42, "duration": 22, "velocity": 89}, {"time": 1648, "pitch": 54, "duration": 10, "velocity": 100}, {"time": 1648, "pitch": 58, "duration": 10, "velocity": 100}, {"time": 1648, "pitch": 61, "duration": 10, "velocity": 100}, {"time": 1656, "pitch": 49, "duration": 6, "velocity": 95}, {"time": 1660, "pitch": 58, "duration": 12, "velocity": 122}, {"time": 1660, "pitch": 61, "duration": 11, "velocity": 112}, {"time": 1664, "pitch": 49, "duration": 7, "velocity": 95}, {"time": 1668, "pitch": 54, "duration": 3, "velocity": 95}, {"time": 1672, "pitch": 44, "duration": 22, "velocity": 100}, {"time": 1676, "pitch": 51, "duration": 10, "velocity": 92}, {"time": 1676, "pitch": 56, "duration": 1, "velocity": 46}, {"time": 1680, "pitch": 56, "duration": 3, "velocity": 96}, {"time": 1680, "pitch": 60, "duration": 3, "velocity": 90}, {"time": 1680, "pitch": 63, "duration": 3, "velocity": 86}, {"time": 1684, "pitch": 56, "duration": 5, "velocity": 112}, {"time": 1684, "pitch": 60, "duration": 6, "velocity": 99}, {"time": 1684, "pitch": 63, "duration": 6, "velocity": 97}, {"time": 1688, "pitch": 51, "duration": 6, "velocity": 95}, {"time": 1692, "pitch": 56, "duration": 4, "velocity": 107}, {"time": 1692, "pitch": 60, "duration": 4, "velocity": 99}, {"time": 1692, "pitch": 63, "duration": 4, "velocity": 97}, {"time": 1696, "pitch": 42, "duration": 11, "velocity": 90}, {"time": 1700, "pitch": 54, "duration": 7, "velocity": 90}, {"time": 1704, "pitch": 61, "duration": 4, "velocity": 99}, {"time": 1708, "pitch": 44, "duration": 8, "velocity": 92}, {"time": 1712, "pitch": 56, "duration": 8, "velocity": 81}, {"time": 1716, "pitch": 63, "duration": 4, "velocity": 96}, {"time": 1720, "pitch": 46, "duration": 15, "velocity": 76}, {"time": 1724, "pitch": 53, "duration": 9, "velocity": 72}, {"time": 1728, "pitch": 58, "duration": 6, "velocity": 95}, {"time": 1732, "pitch": 65, "duration": 12, "velocity": 107}, {"time": 1736, "pitch": 61, "duration": 8, "velocity": 92}, {"time": 1740, "pitch": 58, "duration": 5, "velocity": 95}, {"time": 1744, "pitch": 42, "duration": 11, "velocity": 90}, {"time": 1748, "pitch": 54, "duration": 8, "velocity": 90}, {"time": 1752, "pitch": 61, "duration": 4, "velocity": 100}, {"time": 1756, "pitch": 44, "duration": 8, "velocity": 97}, {"time": 1760, "pitch": 56, "duration": 8, "velocity": 77}, {"time": 1764, "pitch": 63, "duration": 5, "velocity": 102}, {"time": 1768, "pitch": 46, "duration": 18, "velocity": 73}, {"time": 1772, "pitch": 53, "duration": 9, "velocity": 85}, {"time": 1776, "pitch": 61, "duration": 3, "velocity": 69}, {"time": 1776, "pitch": 65, "duration": 3, "velocity": 67}, {"time": 1780, "pitch": 61, "duration": 12, "velocity": 95}, {"time": 1780, "pitch": 65, "duration": 12, "velocity": 89}, {"time": 1784, "pitch": 53, "duration": 2, "velocity": 72}, {"time": 1788, "pitch": 58, "duration": 6, "velocity": 89}, {"time": 1792, "pitch": 39, "duration": 22, "velocity": 72}, {"time": 1796, "pitch": 46, "duration": 20, "velocity": 75}, {"time": 1800, "pitch": 51, "duration": 6, "velocity": 79}, {"time": 1804, "pitch": 63, "duration": 12, "velocity": 97}, {"time": 1804, "pitch": 66, "duration": 12, "velocity": 95}, {"time": 1808, "pitch": 51, "duration": 2, "velocity": 82}, {"time": 1812, "pitch": 58, "duration": 4, "velocity": 93}, {"time": 1816, "pitch": 41, "duration": 19, "velocity": 83}, {"time": 1820, "pitch": 48, "duration": 20, "velocity": 81}, {"time": 1824, "pitch": 53, "duration": 6, "velocity": 93}, {"time": 1828, "pitch": 60, "duration": 6, "velocity": 96}, {"time": 1828, "pitch": 65, "duration": 12, "velocity": 96}, {"time": 1828, "pitch": 68, "duration": 12, "velocity": 95}, {"time": 1832, "pitch": 53, "duration": 2, "velocity": 81}, {"time": 1836, "pitch": 60, "duration": 5, "velocity": 97}, {"time": 1840, "pitch": 42, "duration": 23, "velocity": 73}, {"time": 1844, "pitch": 49, "duration": 10, "velocity": 66}, {"time": 1848, "pitch": 54, "duration": 4, "velocity": 77}, {"time": 1852, "pitch": 58, "duration": 12, "velocity": 96}, {"time": 1852, "pitch": 61, "duration": 13, "velocity": 93}, {"time": 1856, "pitch": 49, "duration": 8, "velocity": 79}, {"time": 1860, "pitch": 54, "duration": 4, "velocity": 92}, {"time": 1864, "pitch": 44, "duration": 23, "velocity": 92}, {"time": 1868, "pitch": 51, "duration": 19, "velocity": 72}, {"time": 1872, "pitch": 56, "duration": 16, "velocity": 66}, {"time": 1876, "pitch": 60, "duration": 11, "velocity": 76}, {"time": 1876, "pitch": 63, "duration": 12, "velocity": 88}, {"time": 1888, "pitch": 49, "duration": 11, "velocity": 96}, {"time": 1892, "pitch": 56, "duration": 8, "velocity": 72}, {"time": 1896, "pitch": 65, "duration": 8, "velocity": 93}, {"time": 1900, "pitch": 48, "duration": 11, "velocity": 93}, {"time": 1904, "pitch": 60, "duration": 6, "velocity": 82}, {"time": 1908, "pitch": 65, "duration": 5, "velocity": 82}, {"time": 1912, "pitch": 46, "duration": 11, "velocity": 82}, {"time": 1916, "pitch": 58, "duration": 9, "velocity": 70}, {"time": 1920, "pitch": 65, "duration": 4, "velocity": 93}, {"time": 1924, "pitch": 44, "duration": 11, "velocity": 85}, {"time": 1928, "pitch": 56, "duration": 8, "velocity": 68}, {"time": 1932, "pitch": 63, "duration": 4, "velocity": 93}, {"time": 1936, "pitch": 46, "duration": 23, "velocity": 86}, {"time": 1940, "pitch": 53, "duration": 20, "velocity": 58}, {"time": 1944, "pitch": 58, "duration": 26, "velocity": 65}, {"time": 1948, "pitch": 65, "duration": 23, "velocity": 96}, {"time": 1956, "pitch": 61, "duration": 14, "velocity": 52}, {"time": 1960, "pitch": 46, "duration": 19, "velocity": 77}, {"time": 1968, "pitch": 53, "duration": 6, "velocity": 59}, {"time": 1972, "pitch": 61, "duration": 13, "velocity": 95}, {"time": 1972, "pitch": 65, "duration": 12, "velocity": 90}, {"time": 1976, "pitch": 53, "duration": 2, "velocity": 76}, {"time": 1980, "pitch": 58, "duration": 4, "velocity": 88}, {"time": 1984, "pitch": 37, "duration": 14, "velocity": 92}, {"time": 1988, "pitch": 44, "duration": 10, "velocity": 55}, {"time": 1992, "pitch": 49, "duration": 5, "velocity": 67}, {"time": 1996, "pitch": 61, "duration": 12, "velocity": 89}, {"time": 1996, "pitch": 65, "duration": 12, "velocity": 90}, {"time": 2004, "pitch": 56, "duration": 6, "velocity": 81}, {"time": 2008, "pitch": 41, "duration": 16, "velocity": 77}, {"time": 2012, "pitch": 48, "duration": 12, "velocity": 52}, {"time": 2016, "pitch": 56, "duration": 6, "velocity": 76}, {"time": 2020, "pitch": 60, "duration": 12, "velocity": 79}, {"time": 2020, "pitch": 65, "duration": 12, "velocity": 89}, {"time": 2028, "pitch": 56, "duration": 4, "velocity": 88}, {"time": 2032, "pitch": 46, "duration": 23, "velocity": 78}, {"time": 2036, "pitch": 53, "duration": 10, "velocity": 56}, {"time": 2040, "pitch": 58, "duration": 7, "velocity": 79}, {"time": 2044, "pitch": 65, "duration": 22, "velocity": 97}, {"time": 2048, "pitch": 53, "duration": 8, "velocity": 48}, {"time": 2052, "pitch": 61, "duration": 15, "velocity": 72}, {"time": 2056, "pitch": 46, "duration": 18, "velocity": 73}, {"time": 2064, "pitch": 53, "duration": 6, "velocity": 48}, {"time": 2068, "pitch": 61, "duration": 12, "velocity": 100}, {"time": 2068, "pitch": 65, "duration": 12, "velocity": 97}, {"time": 2072, "pitch": 53, "duration": 2, "velocity": 76}, {"time": 2076, "pitch": 58, "duration": 5, "velocity": 86}, {"time": 2080, "pitch": 42, "duration": 10, "velocity": 88}, {"time": 2084, "pitch": 49, "duration": 7, "velocity": 56}, {"time": 2088, "pitch": 54, "duration": 4, "velocity": 73}, {"time": 2088, "pitch": 58, "duration": 7, "velocity": 77}, {"time": 2088, "pitch": 61, "duration": 5, "velocity": 82}, {"time": 2092, "pitch": 44, "duration": 7, "velocity": 78}, {"time": 2096, "pitch": 56, "duration": 8, "velocity": 85}, {"time": 2100, "pitch": 60, "duration": 4, "velocity": 93}, {"time": 2104, "pitch": 46, "duration": 15, "velocity": 77}, {"time": 2108, "pitch": 53, "duration": 10, "velocity": 60}, {"time": 2112, "pitch": 58, "duration": 6, "velocity": 61}, {"time": 2116, "pitch": 61, "duration": 12, "velocity": 95}, {"time": 2116, "pitch": 65, "duration": 12, "velocity": 97}, {"time": 2124, "pitch": 58, "duration": 5, "velocity": 78}, {"time": 2128, "pitch": 42, "duration": 10, "velocity": 90}, {"time": 2132, "pitch": 54, "duration": 8, "velocity": 73}, {"time": 2136, "pitch": 61, "duration": 4, "velocity": 100}, {"time": 2140, "pitch": 44, "duration": 7, "velocity": 92}, {"time": 2144, "pitch": 56, "duration": 9, "velocity": 76}, {"time": 2148, "pitch": 63, "duration": 4, "velocity": 100}, {"time": 2152, "pitch": 46, "duration": 14, "velocity": 70}, {"time": 2156, "pitch": 53, "duration": 8, "velocity": 47}, {"time": 2160, "pitch": 58, "duration": 6, "velocity": 67}, {"time": 2164, "pitch": 61, "duration": 12, "velocity": 72}, {"time": 2164, "pitch": 65, "duration": 12, "velocity": 99}, {"time": 2172, "pitch": 58, "duration": 5, "velocity": 82}, {"time": 2176, "pitch": 39, "duration": 21, "velocity": 69}, {"time": 2180, "pitch": 46, "duration": 20, "velocity": 48}, {"time": 2184, "pitch": 51, "duration": 6, "velocity": 63}, {"time": 2188, "pitch": 63, "duration": 12, "velocity": 95}, {"time": 2188, "pitch": 66, "duration": 12, "velocity": 85}, {"time": 2192, "pitch": 51, "duration": 2, "velocity": 65}, {"time": 2196, "pitch": 58, "duration": 5, "velocity": 82}, {"time": 2200, "pitch": 41, "duration": 22, "velocity": 66}, {"time": 2204, "pitch": 48, "duration": 20, "velocity": 50}, {"time": 2208, "pitch": 53, "duration": 6, "velocity": 63}, {"time": 2212, "pitch": 56, "duration": 6, "velocity": 77}, {"time": 2212, "pitch": 60, "duration": 12, "velocity": 83}, {"time": 2212, "pitch": 65, "duration": 12, "velocity": 77}, {"time": 2216, "pitch": 53, "duration": 2, "velocity": 64}, {"time": 2220, "pitch": 56, "duration": 4, "velocity": 71}, {"time": 2224, "pitch": 42, "duration": 15, "velocity": 72}, {"time": 2228, "pitch": 49, "duration": 10, "velocity": 66}, {"time": 2232, "pitch": 54, "duration": 3, "velocity": 93}, {"time": 2236, "pitch": 58, "duration": 7, "velocity": 107}, {"time": 2236, "pitch": 61, "duration": 7, "velocity": 112}, {"time": 2240, "pitch": 42, "duration": 6, "velocity": 36}, {"time": 2240, "pitch": 49, "duration": 6, "velocity": 100}, {"time": 2244, "pitch": 54, "duration": 3, "velocity": 93}, {"time": 2244, "pitch": 58, "duration": 3, "velocity": 76}, {"time": 2244, "pitch": 61, "duration": 3, "velocity": 77}, {"time": 2248, "pitch": 44, "duration": 2, "velocity": 95}, {"time": 2248, "pitch": 56, "duration": 2, "velocity": 90}, {"time": 2248, "pitch": 60, "duration": 2, "velocity": 95}, {"time": 2248, "pitch": 63, "duration": 1, "velocity": 85}, {"time": 2252, "pitch": 44, "duration": 2, "velocity": 93}, {"time": 2252, "pitch": 56, "duration": 2, "velocity": 85}, {"time": 2252, "pitch": 60, "duration": 2, "velocity": 86}, {"time": 2252, "pitch": 63, "duration": 2, "velocity": 88}, {"time": 2272, "pitch": 42, "duration": 18, "velocity": 92}, {"time": 2274, "pitch": 49, "duration": 15, "velocity": 72}, {"time": 2276, "pitch": 54, "duration": 6, "velocity": 81}, {"time": 2278, "pitch": 61, "duration": 4, "velocity": 82}, {"time": 2280, "pitch": 66, "duration": 3, "velocity": 85}, {"time": 2284, "pitch": 70, "duration": 11, "velocity": 122}, {"time": 2288, "pitch": 66, "duration": 7, "velocity": 95}, {"time": 2292, "pitch": 61, "duration": 5, "velocity": 90}, {"time": 2296, "pitch": 41, "duration": 15, "velocity": 85}, {"time": 2300, "pitch": 48, "duration": 12, "velocity": 74}, {"time": 2302, "pitch": 53, "duration": 6, "velocity": 83}, {"time": 2304, "pitch": 60, "duration": 4, "velocity": 78}, {"time": 2306, "pitch": 65, "duration": 3, "velocity": 81}, {"time": 2308, "pitch": 68, "duration": 11, "velocity": 107}, {"time": 2312, "pitch": 65, "duration": 7, "velocity": 88}, {"time": 2316, "pitch": 60, "duration": 4, "velocity": 90}, {"time": 2320, "pitch": 44, "duration": 18, "velocity": 81}, {"time": 2324, "pitch": 51, "duration": 13, "velocity": 66}, {"time": 2326, "pitch": 56, "duration": 5, "velocity": 73}, {"time": 2328, "pitch": 60, "duration": 4, "velocity": 85}, {"time": 2330, "pitch": 63, "duration": 2, "velocity": 77}, {"time": 2332, "pitch": 68, "duration": 12, "velocity": 96}, {"time": 2336, "pitch": 63, "duration": 7, "velocity": 90}, {"time": 2340, "pitch": 60, "duration": 4, "velocity": 96}, {"time": 2344, "pitch": 46, "duration": 2, "velocity": 99}, {"time": 2344, "pitch": 61, "duration": 2, "velocity": 99}, {"time": 2344, "pitch": 58, "duration": 2, "velocity": 97}, {"time": 2344, "pitch": 65, "duration": 2, "velocity": 96}, {"time": 2348, "pitch": 65, "duration": 2, "velocity": 86}, {"time": 2348, "pitch": 58, "duration": 2, "velocity": 92}, {"time": 2348, "pitch": 61, "duration": 2, "velocity": 92}, {"time": 2348, "pitch": 46, "duration": 3, "velocity": 100}, {"time": 2352, "pitch": 63, "duration": 2, "velocity": 88}, {"time": 2352, "pitch": 60, "duration": 3, "velocity": 92}, {"time": 2352, "pitch": 56, "duration": 2, "velocity": 95}, {"time": 2352, "pitch": 44, "duration": 3, "velocity": 107}, {"time": 2356, "pitch": 58, "duration": 4, "velocity": 95}, {"time": 2356, "pitch": 61, "duration": 4, "velocity": 99}, {"time": 2356, "pitch": 46, "duration": 4, "velocity": 122}, {"time": 2356, "pitch": 65, "duration": 4, "velocity": 97}, {"time": 2368, "pitch": 42, "duration": 18, "velocity": 93}, {"time": 2372, "pitch": 49, "duration": 13, "velocity": 73}, {"time": 2374, "pitch": 54, "duration": 7, "velocity": 73}, {"time": 2376, "pitch": 58, "duration": 4, "velocity": 77}, {"time": 2378, "pitch": 61, "duration": 3, "velocity": 86}, {"time": 2380, "pitch": 66, "duration": 12, "velocity": 99}, {"time": 2384, "pitch": 61, "duration": 8, "velocity": 99}, {"time": 2388, "pitch": 58, "duration": 5, "velocity": 82}, {"time": 2392, "pitch": 41, "duration": 22, "velocity": 89}, {"time": 2396, "pitch": 48, "duration": 19, "velocity": 77}, {"time": 2398, "pitch": 53, "duration": 6, "velocity": 64}, {"time": 2400, "pitch": 56, "duration": 3, "velocity": 72}, {"time": 2402, "pitch": 60, "duration": 2, "velocity": 82}, {"time": 2404, "pitch": 65, "duration": 12, "velocity": 93}, {"time": 2408, "pitch": 60, "duration": 8, "velocity": 83}, {"time": 2412, "pitch": 56, "duration": 4, "velocity": 88}, {"time": 2416, "pitch": 44, "duration": 22, "velocity": 75}, {"time": 2420, "pitch": 51, "duration": 17, "velocity": 79}, {"time": 2422, "pitch": 56, "duration": 3, "velocity": 73}, {"time": 2424, "pitch": 60, "duration": 4, "velocity": 67}, {"time": 2428, "pitch": 63, "duration": 10, "velocity": 107}, {"time": 2432, "pitch": 60, "duration": 7, "velocity": 85}, {"time": 2436, "pitch": 56, "duration": 3, "velocity": 82}, {"time": 2440, "pitch": 46, "duration": 3, "velocity": 66}, {"time": 2440, "pitch": 58, "duration": 3, "velocity": 86}, {"time": 2440, "pitch": 61, "duration": 3, "velocity": 86}, {"time": 2440, "pitch": 65, "duration": 2, "velocity": 81}, {"time": 2444, "pitch": 46, "duration": 3, "velocity": 70}, {"time": 2444, "pitch": 58, "duration": 2, "velocity": 85}, {"time": 2444, "pitch": 61, "duration": 2, "velocity": 88}, {"time": 2444, "pitch": 65, "duration": 2, "velocity": 82}, {"time": 2448, "pitch": 44, "duration": 3, "velocity": 93}, {"time": 2448, "pitch": 56, "duration": 2, "velocity": 89}, {"time": 2448, "pitch": 60, "duration": 2, "velocity": 90}, {"time": 2448, "pitch": 63, "duration": 2, "velocity": 85}, {"time": 2452, "pitch": 46, "duration": 4, "velocity": 102}, {"time": 2452, "pitch": 58, "duration": 4, "velocity": 95}, {"time": 2452, "pitch": 61, "duration": 3, "velocity": 97}, {"time": 2452, "pitch": 65, "duration": 4, "velocity": 96}, {"time": 2464, "pitch": 46, "duration": 2, "velocity": 112}, {"time": 2464, "pitch": 58, "duration": 2, "velocity": 86}, {"time": 2464, "pitch": 61, "duration": 2, "velocity": 90}, {"time": 2464, "pitch": 65, "duration": 2, "velocity": 79}, {"time": 2468, "pitch": 46, "duration": 2, "velocity": 100}, {"time": 2468, "pitch": 58, "duration": 2, "velocity": 73}, {"time": 2468, "pitch": 61, "duration": 2, "velocity": 76}, {"time": 2468, "pitch": 65, "duration": 2, "velocity": 66}, {"time": 2472, "pitch": 44, "duration": 2, "velocity": 92}, {"time": 2472, "pitch": 56, "duration": 2, "velocity": 83}, {"time": 2472, "pitch": 60, "duration": 2, "velocity": 92}, {"time": 2472, "pitch": 63, "duration": 2, "velocity": 79}, {"time": 2476, "pitch": 46, "duration": 2, "velocity": 102}, {"time": 2476, "pitch": 58, "duration": 2, "velocity": 86}, {"time": 2476, "pitch": 61, "duration": 2, "velocity": 90}, {"time": 2476, "pitch": 65, "duration": 1, "velocity": 81}, {"time": 2480, "pitch": 46, "duration": 2, "velocity": 100}, {"time": 2480, "pitch": 58, "duration": 2, "velocity": 83}, {"time": 2480, "pitch": 61, "duration": 2, "velocity": 88}, {"time": 2480, "pitch": 65, "duration": 1, "velocity": 61}, {"time": 2484, "pitch": 44, "duration": 2, "velocity": 96}, {"time": 2484, "pitch": 56, "duration": 2, "velocity": 85}, {"time": 2484, "pitch": 60, "duration": 2, "velocity": 90}, {"time": 2484, "pitch": 63, "duration": 1, "velocity": 74}, {"time": 2488, "pitch": 46, "duration": 3, "velocity": 122}, {"time": 2488, "pitch": 58, "duration": 4, "velocity": 92}, {"time": 2488, "pitch": 61, "duration": 4, "velocity": 112}, {"time": 2488, "pitch": 65, "duration": 3, "velocity": 96}, {"time": 2512, "pitch": 42, "duration": 2, "velocity": 63}, {"time": 2512, "pitch": 49, "duration": 2, "velocity": 86}, {"time": 2512, "pitch": 54, "duration": 2, "velocity": 93}, {"time": 2512, "pitch": 61, "duration": 2, "velocity": 92}, {"time": 2512, "pitch": 66, "duration": 2, "velocity": 92}, {"time": 2512, "pitch": 70, "duration": 2, "velocity": 82}, {"time": 2516, "pitch": 42, "duration": 2, "velocity": 61}, {"time": 2516, "pitch": 49, "duration": 2, "velocity": 81}, {"time": 2516, "pitch": 54, "duration": 2, "velocity": 90}, {"time": 2516, "pitch": 61, "duration": 2, "velocity": 85}, {"time": 2516, "pitch": 66, "duration": 2, "velocity": 76}, {"time": 2516, "pitch": 70, "duration": 2, "velocity": 72}, {"time": 2520, "pitch": 42, "duration": 3, "velocity": 70}, {"time": 2520, "pitch": 49, "duration": 3, "velocity": 89}, {"time": 2520, "pitch": 54, "duration": 2, "velocity": 93}, {"time": 2520, "pitch": 61, "duration": 3, "velocity": 93}, {"time": 2520, "pitch": 66, "duration": 2, "velocity": 96}, {"time": 2520, "pitch": 70, "duration": 3, "velocity": 86}, {"time": 2536, "pitch": 41, "duration": 2, "velocity": 63}, {"time": 2536, "pitch": 48, "duration": 2, "velocity": 83}, {"time": 2536, "pitch": 53, "duration": 2, "velocity": 90}, {"time": 2536, "pitch": 60, "duration": 2, "velocity": 85}, {"time": 2536, "pitch": 65, "duration": 2, "velocity": 92}, {"time": 2536, "pitch": 68, "duration": 2, "velocity": 85}, {"time": 2540, "pitch": 41, "duration": 2, "velocity": 61}, {"time": 2540, "pitch": 48, "duration": 2, "velocity": 82}, {"time": 2540, "pitch": 53, "duration": 2, "velocity": 81}, {"time": 2540, "pitch": 60, "duration": 2, "velocity": 82}, {"time": 2540, "pitch": 65, "duration": 2, "velocity": 86}, {"time": 2540, "pitch": 68, "duration": 2, "velocity": 79}, {"time": 2544, "pitch": 41, "duration": 3, "velocity": 75}, {"time": 2544, "pitch": 48, "duration": 2, "velocity": 97}, {"time": 2544, "pitch": 53, "duration": 3, "velocity": 96}, {"time": 2544, "pitch": 60, "duration": 3, "velocity": 92}, {"time": 2544, "pitch": 65, "duration": 2, "velocity": 92}, {"time": 2544, "pitch": 68, "duration": 3, "velocity": 88}, {"time": 2560, "pitch": 44, "duration": 3, "velocity": 70}, {"time": 2560, "pitch": 51, "duration": 3, "velocity": 82}, {"time": 2560, "pitch": 56, "duration": 3, "velocity": 96}, {"time": 2560, "pitch": 63, "duration": 3, "velocity": 97}, {"time": 2560, "pitch": 68, "duration": 3, "velocity": 96}, {"time": 2560, "pitch": 72, "duration": 3, "velocity": 92}, {"time": 2584, "pitch": 46, "duration": 2, "velocity": 85}, {"time": 2584, "pitch": 53, "duration": 1, "velocity": 47}, {"time": 2584, "pitch": 54, "duration": 1, "velocity": 50}, {"time": 2584, "pitch": 65, "duration": 2, "velocity": 86}, {"time": 2584, "pitch": 70, "duration": 2, "velocity": 95}, {"time": 2584, "pitch": 73, "duration": 2, "velocity": 86}, {"time": 2588, "pitch": 46, "duration": 2, "velocity": 76}, {"time": 2588, "pitch": 53, "duration": 2, "velocity": 82}, {"time": 2588, "pitch": 65, "duration": 2, "velocity": 90}, {"time": 2588, "pitch": 70, "duration": 2, "velocity": 93}, {"time": 2588, "pitch": 73, "duration": 2, "velocity": 77}, {"time": 2592, "pitch": 44, "duration": 3, "velocity": 93}, {"time": 2592, "pitch": 63, "duration": 2, "velocity": 92}, {"time": 2592, "pitch": 68, "duration": 2, "velocity": 95}, {"time": 2592, "pitch": 72, "duration": 2, "velocity": 86}, {"time": 2596, "pitch": 46, "duration": 3, "velocity": 97}, {"time": 2596, "pitch": 65, "duration": 2, "velocity": 92}, {"time": 2596, "pitch": 70, "duration": 2, "velocity": 107}, {"time": 2596, "pitch": 73, "duration": 2, "velocity": 107}, {"time": 2608, "pitch": 42, "duration": 2, "velocity": 57}, {"time": 2608, "pitch": 49, "duration": 2, "velocity": 72}, {"time": 2608, "pitch": 54, "duration": 2, "velocity": 81}, {"time": 2608, "pitch": 61, "duration": 2, "velocity": 89}, {"time": 2608, "pitch": 66, "duration": 2, "velocity": 90}, {"time": 2608, "pitch": 70, "duration": 2, "velocity": 79}, {"time": 2612, "pitch": 42, "duration": 2, "velocity": 55}, {"time": 2612, "pitch": 49, "duration": 2, "velocity": 81}, {"time": 2612, "pitch": 54, "duration": 2, "velocity": 81}, {"time": 2612, "pitch": 61, "duration": 2, "velocity": 86}, {"time": 2612, "pitch": 66, "duration": 2, "velocity": 88}, {"time": 2612, "pitch": 70, "duration": 2, "velocity": 77}, {"time": 2616, "pitch": 42, "duration": 3, "velocity": 72}, {"time": 2616, "pitch": 49, "duration": 2, "velocity": 95}, {"time": 2616, "pitch": 54, "duration": 2, "velocity": 100}, {"time": 2616, "pitch": 61, "duration": 2, "velocity": 90}, {"time": 2616, "pitch": 66, "duration": 2, "velocity": 92}, {"time": 2616, "pitch": 70, "duration": 3, "velocity": 85}, {"time": 2632, "pitch": 41, "duration": 2, "velocity": 59}, {"time": 2632, "pitch": 48, "duration": 2, "velocity": 86}, {"time": 2632, "pitch": 53, "duration": 2, "velocity": 83}, {"time": 2632, "pitch": 60, "duration": 2, "velocity": 79}, {"time": 2632, "pitch": 65, "duration": 2, "velocity": 85}, {"time": 2632, "pitch": 68, "duration": 2, "velocity": 79}, {"time": 2636, "pitch": 41, "duration": 2, "velocity": 71}, {"time": 2636, "pitch": 48, "duration": 2, "velocity": 90}, {"time": 2636, "pitch": 53, "duration": 2, "velocity": 89}, {"time": 2636, "pitch": 60, "duration": 2, "velocity": 82}, {"time": 2636, "pitch": 65, "duration": 2, "velocity": 85}, {"time": 2636, "pitch": 68, "duration": 2, "velocity": 76}, {"time": 2640, "pitch": 41, "duration": 2, "velocity": 70}, {"time": 2640, "pitch": 48, "duration": 3, "velocity": 92}, {"time": 2640, "pitch": 53, "duration": 2, "velocity": 96}, {"time": 2640, "pitch": 60, "duration": 2, "velocity": 85}, {"time": 2640, "pitch": 65, "duration": 2, "velocity": 89}, {"time": 2640, "pitch": 68, "duration": 3, "velocity": 78}, {"time": 2656, "pitch": 44, "duration": 3, "velocity": 74}, {"time": 2656, "pitch": 51, "duration": 3, "velocity": 88}, {"time": 2656, "pitch": 56, "duration": 3, "velocity": 99}, {"time": 2656, "pitch": 63, "duration": 3, "velocity": 89}, {"time": 2656, "pitch": 68, "duration": 3, "velocity": 95}, {"time": 2656, "pitch": 72, "duration": 3, "velocity": 89}, {"time": 2680, "pitch": 46, "duration": 2, "velocity": 63}, {"time": 2680, "pitch": 53, "duration": 2, "velocity": 69}, {"time": 2680, "pitch": 58, "duration": 2, "velocity": 89}, {"time": 2680, "pitch": 65, "duration": 2, "velocity": 92}, {"time": 2680, "pitch": 70, "duration": 2, "velocity": 96}, {"time": 2680, "pitch": 73, "duration": 2, "velocity": 88}, {"time": 2684, "pitch": 46, "duration": 2, "velocity": 65}, {"time": 2684, "pitch": 53, "duration": 2, "velocity": 78}, {"time": 2684, "pitch": 58, "duration": 2, "velocity": 96}, {"time": 2684, "pitch": 65, "duration": 2, "velocity": 97}, {"time": 2684, "pitch": 70, "duration": 2, "velocity": 97}, {"time": 2684, "pitch": 73, "duration": 2, "velocity": 90}, {"time": 2688, "pitch": 44, "duration": 3, "velocity": 73}, {"time": 2688, "pitch": 51, "duration": 3, "velocity": 86}, {"time": 2688, "pitch": 56, "duration": 2, "velocity": 95}, {"time": 2688, "pitch": 63, "duration": 2, "velocity": 89}, {"time": 2688, "pitch": 68, "duration": 2, "velocity": 96}, {"time": 2688, "pitch": 72, "duration": 2, "velocity": 85}, {"time": 2692, "pitch": 46, "duration": 4, "velocity": 73}, {"time": 2692, "pitch": 53, "duration": 4, "velocity": 96}, {"time": 2692, "pitch": 58, "duration": 4, "velocity": 117}, {"time": 2692, "pitch": 65, "duration": 4, "velocity": 97}, {"time": 2692, "pitch": 70, "duration": 4, "velocity": 117}, {"time": 2692, "pitch": 73, "duration": 4, "velocity": 122}, {"time": 2704, "pitch": 42, "duration": 18, "velocity": 99}, {"time": 2708, "pitch": 49, "duration": 10, "velocity": 89}, {"time": 2712, "pitch": 54, "duration": 5, "velocity": 86}, {"time": 2716, "pitch": 66, "duration": 12, "velocity": 97}, {"time": 2716, "pitch": 70, "duration": 12, "velocity": 96}, {"time": 2720, "pitch": 49, "duration": 2, "velocity": 88}, {"time": 2724, "pitch": 61, "duration": 5, "velocity": 90}, {"time": 2728, "pitch": 41, "duration": 18, "velocity": 82}, {"time": 2732, "pitch": 48, "duration": 15, "velocity": 82}, {"time": 2736, "pitch": 53, "duration": 6, "velocity": 79}, {"time": 2740, "pitch": 65, "duration": 12, "velocity": 95}, {"time": 2740, "pitch": 68, "duration": 12, "velocity": 93}, {"time": 2744, "pitch": 53, "duration": 7, "velocity": 92}, {"time": 2748, "pitch": 60, "duration": 4, "velocity": 73}, {"time": 2752, "pitch": 44, "duration": 20, "velocity": 73}, {"time": 2756, "pitch": 51, "duration": 16, "velocity": 68}, {"time": 2760, "pitch": 56, "duration": 6, "velocity": 82}, {"time": 2764, "pitch": 63, "duration": 6, "velocity": 90}, {"time": 2764, "pitch": 68, "duration": 7, "velocity": 96}, {"time": 2764, "pitch": 72, "duration": 10, "velocity": 89}, {"time": 2768, "pitch": 56, "duration": 3, "velocity": 97}, {"time": 2772, "pitch": 63, "duration": 2, "velocity": 100}, {"time": 2772, "pitch": 68, "duration": 3, "velocity": 56}, {"time": 2776, "pitch": 46, "duration": 2, "velocity": 86}, {"time": 2776, "pitch": 65, "duration": 2, "velocity": 95}, {"time": 2776, "pitch": 70, "duration": 2, "velocity": 99}, {"time": 2776, "pitch": 73, "duration": 2, "velocity": 102}, {"time": 2780, "pitch": 46, "duration": 2, "velocity": 107}, {"time": 2780, "pitch": 65, "duration": 2, "velocity": 93}, {"time": 2780, "pitch": 70, "duration": 2, "velocity": 95}, {"time": 2780, "pitch": 73, "duration": 2, "velocity": 82}, {"time": 2784, "pitch": 44, "duration": 3, "velocity": 95}, {"time": 2784, "pitch": 63, "duration": 2, "velocity": 97}, {"time": 2784, "pitch": 68, "duration": 2, "velocity": 96}, {"time": 2784, "pitch": 72, "duration": 2, "velocity": 89}, {"time": 2788, "pitch": 46, "duration": 4, "velocity": 122}, {"time": 2788, "pitch": 65, "duration": 4, "velocity": 97}, {"time": 2788, "pitch": 70, "duration": 4, "velocity": 107}, {"time": 2788, "pitch": 73, "duration": 4, "velocity": 112}, {"time": 2800, "pitch": 42, "duration": 19, "velocity": 93}, {"time": 2804, "pitch": 49, "duration": 11, "velocity": 89}, {"time": 2808, "pitch": 54, "duration": 5, "velocity": 89}, {"time": 2812, "pitch": 66, "duration": 12, "velocity": 90}, {"time": 2812, "pitch": 70, "duration": 12, "velocity": 96}, {"time": 2816, "pitch": 49, "duration": 3, "velocity": 75}, {"time": 2820, "pitch": 61, "duration": 4, "velocity": 93}, {"time": 2824, "pitch": 41, "duration": 22, "velocity": 90}, {"time": 2828, "pitch": 48, "duration": 18, "velocity": 78}, {"time": 2832, "pitch": 53, "duration": 6, "velocity": 88}, {"time": 2836, "pitch": 65, "duration": 6, "velocity": 88}, {"time": 2836, "pitch": 68, "duration": 11, "velocity": 97}, {"time": 2836, "pitch": 72, "duration": 11, "velocity": 93}, {"time": 2840, "pitch": 53, "duration": 5, "velocity": 88}, {"time": 2844, "pitch": 65, "duration": 3, "velocity": 92}, {"time": 2848, "pitch": 44, "duration": 20, "velocity": 102}, {"time": 2852, "pitch": 51, "duration": 11, "velocity": 71}, {"time": 2856, "pitch": 56, "duration": 6, "velocity": 95}, {"time": 2860, "pitch": 63, "duration": 7, "velocity": 89}, {"time": 2860, "pitch": 68, "duration": 7, "velocity": 96}, {"time": 2860, "pitch": 72, "duration": 7, "velocity": 89}, {"time": 2864, "pitch": 51, "duration": 6, "velocity": 90}, {"time": 2868, "pitch": 63, "duration": 2, "velocity": 69}, {"time": 2868, "pitch": 68, "duration": 3, "velocity": 85}, {"time": 2868, "pitch": 72, "duration": 3, "velocity": 67}, {"time": 2872, "pitch": 46, "duration": 2, "velocity": 89}, {"time": 2872, "pitch": 53, "duration": 2, "velocity": 83}, {"time": 2872, "pitch": 58, "duration": 2, "velocity": 86}, {"time": 2872, "pitch": 61, "duration": 2, "velocity": 82}, {"time": 2872, "pitch": 65, "duration": 2, "velocity": 76}, {"time": 2872, "pitch": 70, "duration": 2, "velocity": 89}, {"time": 2872, "pitch": 73, "duration": 2, "velocity": 95}, {"time": 2872, "pitch": 77, "duration": 2, "velocity": 90}, {"time": 2876, "pitch": 46, "duration": 2, "velocity": 95}, {"time": 2876, "pitch": 53, "duration": 2, "velocity": 82}, {"time": 2876, "pitch": 58, "duration": 2, "velocity": 89}, {"time": 2876, "pitch": 61, "duration": 2, "velocity": 83}, {"time": 2876, "pitch": 65, "duration": 2, "velocity": 78}, {"time": 2876, "pitch": 70, "duration": 2, "velocity": 90}, {"time": 2876, "pitch": 73, "duration": 2, "velocity": 96}, {"time": 2876, "pitch": 77, "duration": 2, "velocity": 83}, {"time": 2880, "pitch": 44, "duration": 2, "velocity": 97}, {"time": 2880, "pitch": 51, "duration": 2, "velocity": 86}, {"time": 2880, "pitch": 56, "duration": 2, "velocity": 82}, {"time": 2880, "pitch": 60, "duration": 2, "velocity": 85}, {"time": 2880, "pitch": 63, "duration": 2, "velocity": 83}, {"time": 2880, "pitch": 68, "duration": 2, "velocity": 93}, {"time": 2880, "pitch": 72, "duration": 2, "velocity": 97}, {"time": 2880, "pitch": 75, "duration": 2, "velocity": 93}, {"time": 2884, "pitch": 46, "duration": 2, "velocity": 100}, {"time": 2884, "pitch": 53, "duration": 2, "velocity": 90}, {"time": 2884, "pitch": 58, "duration": 2, "velocity": 85}, {"time": 2884, "pitch": 61, "duration": 2, "velocity": 83}, {"time": 2884, "pitch": 65, "duration": 2, "velocity": 81}, {"time": 2884, "pitch": 70, "duration": 2, "velocity": 89}, {"time": 2884, "pitch": 73, "duration": 2, "velocity": 100}, {"time": 2884, "pitch": 77, "duration": 2, "velocity": 96}, {"time": 2888, "pitch": 46, "duration": 2, "velocity": 102}, {"time": 2888, "pitch": 53, "duration": 2, "velocity": 90}, {"time": 2888, "pitch": 58, "duration": 2, "velocity": 93}, {"time": 2888, "pitch": 61, "duration": 2, "velocity": 81}, {"time": 2888, "pitch": 65, "duration": 2, "velocity": 81}, {"time": 2888, "pitch": 70, "duration": 2, "velocity": 86}, {"time": 2888, "pitch": 73, "duration": 2, "velocity": 95}, {"time": 2888, "pitch": 77, "duration": 2, "velocity": 86}, {"time": 2892, "pitch": 44, "duration": 2, "velocity": 100}, {"time": 2892, "pitch": 51, "duration": 2, "velocity": 95}, {"time": 2892, "pitch": 56, "duration": 2, "velocity": 95}, {"time": 2892, "pitch": 60, "duration": 2, "velocity": 92}, {"time": 2892, "pitch": 63, "duration": 2, "velocity": 95}, {"time": 2892, "pitch": 68, "duration": 2, "velocity": 92}, {"time": 2892, "pitch": 72, "duration": 2, "velocity": 97}, {"time": 2892, "pitch": 75, "duration": 2, "velocity": 89}, {"time": 2896, "pitch": 46, "duration": 2, "velocity": 102}, {"time": 2896, "pitch": 53, "duration": 2, "velocity": 96}, {"time": 2896, "pitch": 58, "duration": 2, "velocity": 99}, {"time": 2896, "pitch": 61, "duration": 2, "velocity": 89}, {"time": 2896, "pitch": 65, "duration": 2, "velocity": 92}, {"time": 2896, "pitch": 70, "duration": 2, "velocity": 95}, {"time": 2896, "pitch": 73, "duration": 2, "velocity": 100}, {"time": 2896, "pitch": 77, "duration": 2, "velocity": 96}, {"time": 2900, "pitch": 46, "duration": 2, "velocity": 100}, {"time": 2900, "pitch": 53, "duration": 2, "velocity": 89}, {"time": 2900, "pitch": 58, "duration": 2, "velocity": 95}, {"time": 2900, "pitch": 61, "duration": 2, "velocity": 89}, {"time": 2900, "pitch": 65, "duration": 2, "velocity": 90}, {"time": 2900, "pitch": 70, "duration": 2, "velocity": 92}, {"time": 2900, "pitch": 73, "duration": 2, "velocity": 99}, {"time": 2900, "pitch": 77, "duration": 2, "velocity": 93}, {"time": 2904, "pitch": 44, "duration": 2, "velocity": 107}, {"time": 2904, "pitch": 51, "duration": 2, "velocity": 96}, {"time": 2904, "pitch": 56, "duration": 2, "velocity": 92}, {"time": 2904, "pitch": 60, "duration": 2, "velocity": 97}, {"time": 2904, "pitch": 63, "duration": 2, "velocity": 93}, {"time": 2904, "pitch": 68, "duration": 2, "velocity": 95}, {"time": 2904, "pitch": 72, "duration": 2, "velocity": 99}, {"time": 2904, "pitch": 75, "duration": 2, "velocity": 96}, {"time": 2908, "pitch": 46, "duration": 2, "velocity": 107}, {"time": 2908, "pitch": 53, "duration": 2, "velocity": 99}, {"time": 2908, "pitch": 58, "duration": 2, "velocity": 100}, {"time": 2908, "pitch": 61, "duration": 4, "velocity": 100}, {"time": 2908, "pitch": 65, "duration": 4, "velocity": 100}, {"time": 2908, "pitch": 70, "duration": 4, "velocity": 100}, {"time": 2908, "pitch": 73, "duration": 4, "velocity": 122}, {"time": 2908, "pitch": 77, "duration": 4, "velocity": 127}, {"time": 2912, "pitch": 46, "duration": 2, "velocity": 100}, {"time": 2912, "pitch": 53, "duration": 2, "velocity": 96}, {"time": 2912, "pitch": 58, "duration": 2, "velocity": 96}, {"time": 2912, "pitch": 61, "duration": 2, "velocity": 99}, {"time": 2912, "pitch": 70, "duration": 2, "velocity": 89}, {"time": 2912, "pitch": 73, "duration": 2, "velocity": 100}, {"time": 2912, "pitch": 77, "duration": 2, "velocity": 93}, {"time": 2916, "pitch": 44, "duration": 2, "velocity": 99}, {"time": 2916, "pitch": 51, "duration": 2, "velocity": 97}, {"time": 2916, "pitch": 56, "duration": 2, "velocity": 96}, {"time": 2916, "pitch": 60, "duration": 2, "velocity": 95}, {"time": 2916, "pitch": 72, "duration": 2, "velocity": 107}, {"time": 2916, "pitch": 75, "duration": 2, "velocity": 100}, {"time": 2920, "pitch": 46, "duration": 3, "velocity": 127}, {"time": 2920, "pitch": 53, "duration": 4, "velocity": 102}, {"time": 2920, "pitch": 58, "duration": 4, "velocity": 100}, {"time": 2920, "pitch": 61, "duration": 3, "velocity": 117}, {"time": 2920, "pitch": 70, "duration": 3, "velocity": 95}, {"time": 2920, "pitch": 73, "duration": 4, "velocity": 100}, {"time": 2920, "pitch": 77, "duration": 3, "velocity": 117}], "annotations": [{"time": 88, "annotation": {"number": 64, "value": 127}, "group": "control_change"}, {"time": 97, "annotation": {"number": 64, "value": 0}, "group": "control_change"}, {"time": 101, "annotation": {"number": 64, "value": 127}, "group": "control_change"}, {"time": 110, "annotation": {"number": 64, "value": 0}, "group": "control_change"}, {"time": 113, "annotation": {"number": 64, "value": 127}, "group": "control_change"}, {"time": 134, "annotation": {"number": 64, "value": 0}, "group": "control_change"}, {"time": 137, "annotation": {"number": 64, "value": 127}, "group": "control_change"}, {"time": 148, "annotation": {"number": 64, "value": 0}, "group": "control_change"}, {"time": 152, "annotation": {"number": 64, "value": 127}, "group": "control_change"}, {"time": 158, "annotation": {"number": 64, "value": 0}, "group": "control_change"}, {"time": 161, "annotation": {"number": 64, "value": 127}, "group": "control_change"}, {"time": 181, "annotation": {"number": 64, "value": 0}, "group": "control_change"}, {"time": 185, "annotation": {"number": 64, "value": 127}, "group": "control_change"}, {"time": 206, "annotation": {"number": 64, "value": 0}, "group": "control_change"}, {"time": 208, "annotation": {"number": 64, "value": 127}, "group": "control_change"}, {"time": 228, "annotation": {"number": 64, "value": 0}, "group": "control_change"}, {"time": 233, "annotation": {"number": 64, "value": 127}, "group": "control_change"}, {"time": 233, "annotation": {"number": 64, "value": 0}, "group": "control_change"}, {"time": 235, "annotation": {"number": 64, "value": 127}, "group": "control_change"}, {"time": 253, "annotation": {"number": 64, "value": 0}, "group": "control_change"}, {"time": 257, "annotation": {"number": 64, "value": 127}, "group": "control_change"}, {"time": 276, "annotation": {"number": 64, "value": 0}, "group": "control_change"}, {"time": 329, "annotation": {"number": 64, "value": 127}, "group": "control_change"}, {"time": 350, "annotation": {"number": 64, "value": 0}, "group": "control_change"}, {"time": 353, "annotation": {"number": 64, "value": 127}, "group": "control_change"}, {"time": 372, "annotation": {"number": 64, "value": 0}, "group": "control_change"}, {"time": 377, "annotation": {"number": 64, "value": 127}, "group": "control_change"}, {"time": 398, "annotation": {"number": 64, "value": 0}, "group": "control_change"}, {"time": 400, "annotation": {"number": 64, "value": 127}, "group": "control_change"}, {"time": 422, "annotation": {"number": 64, "value": 0}, "group": "control_change"}, {"time": 426, "annotation": {"number": 64, "value": 127}, "group": "control_change"}, {"time": 445, "annotation": {"number": 64, "value": 0}, "group": "control_change"}, {"time": 452, "annotation": {"number": 64, "value": 127}, "group": "control_change"}, {"time": 468, "annotation": {"number": 64, "value": 0}, "group": "control_change"}, {"time": 474, "annotation": {"number": 64, "value": 127}, "group": "control_change"}, {"time": 493, "annotation": {"number": 64, "value": 0}, "group": "control_change"}, {"time": 497, "annotation": {"number": 64, "value": 127}, "group": "control_change"}, {"time": 517, "annotation": {"number": 64, "value": 0}, "group": "control_change"}, {"time": 521, "annotation": {"number": 64, "value": 127}, "group": "control_change"}, {"time": 540, "annotation": {"number": 64, "value": 0}, "group": "control_change"}, {"time": 544, "annotation": {"number": 64, "value": 127}, "group": "control_change"}, {"time": 565, "annotation": {"number": 64, "value": 0}, "group": "control_change"}, {"time": 570, "annotation": {"number": 64, "value": 127}, "group": "control_change"}, {"time": 578, "annotation": {"number": 64, "value": 0}, "group": "control_change"}, {"time": 582, "annotation": {"number": 64, "value": 127}, "group": "control_change"}, {"time": 589, "annotation": {"number": 64, "value": 0}, "group": "control_change"}, {"time": 593, "annotation": {"number": 64, "value": 127}, "group": "control_change"}, {"time": 612, "annotation": {"number": 64, "value": 0}, "group": "control_change"}, {"time": 617, "annotation": {"number": 64, "value": 127}, "group": "control_change"}, {"time": 625, "annotation": {"number": 64, "value": 0}, "group": "control_change"}, {"time": 629, "annotation": {"number": 64, "value": 127}, "group": "control_change"}, {"time": 638, "annotation": {"number": 64, "value": 0}, "group": "control_change"}, {"time": 642, "annotation": {"number": 64, "value": 127}, "group": "control_change"}, {"time": 661, "annotation": {"number": 64, "value": 0}, "group": "control_change"}, {"time": 665, "annotation": {"number": 64, "value": 127}, "group": "control_change"}, {"time": 685, "annotation": {"number": 64, "value": 0}, "group": "control_change"}, {"time": 689, "annotation": {"number": 64, "value": 127}, "group": "control_change"}, {"time": 709, "annotation": {"number": 64, "value": 0}, "group": "control_change"}, {"time": 713, "annotation": {"number": 64, "value": 127}, "group": "control_change"}, {"time": 724, "annotation": {"number": 64, "value": 0}, "group": "control_change"}, {"time": 762, "annotation": {"number": 64, "value": 127}, "group": "control_change"}, {"time": 781, "annotation": {"number": 64, "value": 0}, "group": "control_change"}, {"time": 786, "annotation": {"number": 64, "value": 127}, "group": "control_change"}, {"time": 794, "annotation": {"number": 64, "value": 0}, "group": "control_change"}, {"time": 798, "annotation": {"number": 64, "value": 127}, "group": "control_change"}, {"time": 805, "annotation": {"number": 64, "value": 0}, "group": "control_change"}, {"time": 833, "annotation": {"number": 64, "value": 127}, "group": "control_change"}, {"time": 853, "annotation": {"number": 64, "value": 0}, "group": "control_change"}, {"time": 857, "annotation": {"number": 64, "value": 127}, "group": "control_change"}, {"time": 877, "annotation": {"number": 64, "value": 0}, "group": "control_change"}, {"time": 881, "annotation": {"number": 64, "value": 127}, "group": "control_change"}, {"time": 901, "annotation": {"number": 64, "value": 0}, "group": "control_change"}, {"time": 905, "annotation": {"number": 64, "value": 127}, "group": "control_change"}, {"time": 924, "annotation": {"number": 64, "value": 0}, "group": "control_change"}, {"time": 930, "annotation": {"number": 64, "value": 127}, "group": "control_change"}, {"time": 933, "annotation": {"number": 64, "value": 0}, "group": "control_change"}, {"time": 933, "annotation": {"number": 64, "value": 127}, "group": "control_change"}, {"time": 934, "annotation": {"number": 64, "value": 0}, "group": "control_change"}, {"time": 953, "annotation": {"number": 64, "value": 127}, "group": "control_change"}, {"time": 962, "annotation": {"number": 64, "value": 0}, "group": "control_change"}, {"time": 966, "annotation": {"number": 64, "value": 127}, "group": "control_change"}, {"time": 974, "annotation": {"number": 64, "value": 0}, "group": "control_change"}, {"time": 978, "annotation": {"number": 64, "value": 127}, "group": "control_change"}, {"time": 996, "annotation": {"number": 64, "value": 0}, "group": "control_change"}, {"time": 1002, "annotation": {"number": 64, "value": 127}, "group": "control_change"}, {"time": 1008, "annotation": {"number": 64, "value": 0}, "group": "control_change"}, {"time": 1014, "annotation": {"number": 64, "value": 127}, "group": "control_change"}, {"time": 1022, "annotation": {"number": 64, "value": 0}, "group": "control_change"}, {"time": 1025, "annotation": {"number": 64, "value": 127}, "group": "control_change"}, {"time": 1045, "annotation": {"number": 64, "value": 0}, "group": "control_change"}, {"time": 1049, "annotation": {"number": 64, "value": 127}, "group": "control_change"}, {"time": 1069, "annotation": {"number": 64, "value": 0}, "group": "control_change"}, {"time": 1073, "annotation": {"number": 64, "value": 127}, "group": "control_change"}, {"time": 1092, "annotation": {"number": 64, "value": 0}, "group": "control_change"}, {"time": 1097, "annotation": {"number": 64, "value": 127}, "group": "control_change"}, {"time": 1116, "annotation": {"number": 64, "value": 0}, "group": "control_change"}, {"time": 1146, "annotation": {"number": 64, "value": 127}, "group": "control_change"}, {"time": 1165, "annotation": {"number": 64, "value": 0}, "group": "control_change"}, {"time": 1167, "annotation": {"number": 64, "value": 127}, "group": "control_change"}, {"time": 1190, "annotation": {"number": 64, "value": 0}, "group": "control_change"}, {"time": 1204, "annotation": {"number": 64, "value": 127}, "group": "control_change"}, {"time": 1210, "annotation": {"number": 64, "value": 127}, "group": "control_change"}, {"time": 1213, "annotation": {"number": 64, "value": 0}, "group": "control_change"}, {"time": 1241, "annotation": {"number": 64, "value": 127}, "group": "control_change"}, {"time": 1251, "annotation": {"number": 64, "value": 0}, "group": "control_change"}, {"time": 1254, "annotation": {"number": 64, "value": 127}, "group": "control_change"}, {"time": 1262, "annotation": {"number": 64, "value": 0}, "group": "control_change"}, {"time": 1266, "annotation": {"number": 64, "value": 127}, "group": "control_change"}, {"time": 1285, "annotation": {"number": 64, "value": 0}, "group": "control_change"}, {"time": 1292, "annotation": {"number": 64, "value": 127}, "group": "control_change"}, {"time": 1309, "annotation": {"number": 64, "value": 0}, "group": "control_change"}, {"time": 1337, "annotation": {"number": 64, "value": 127}, "group": "control_change"}, {"time": 1358, "annotation": {"number": 64, "value": 0}, "group": "control_change"}, {"time": 1362, "annotation": {"number": 64, "value": 127}, "group": "control_change"}, {"time": 1381, "annotation": {"number": 64, "value": 0}, "group": "control_change"}, {"time": 1385, "annotation": {"number": 64, "value": 127}, "group": "control_change"}, {"time": 1405, "annotation": {"number": 64, "value": 0}, "group": "control_change"}, {"time": 1409, "annotation": {"number": 64, "value": 127}, "group": "control_change"}, {"time": 1429, "annotation": {"number": 64, "value": 0}, "group": "control_change"}, {"time": 1465, "annotation": {"number": 64, "value": 127}, "group": "control_change"}, {"time": 1505, "annotation": {"number": 64, "value": 0}, "group": "control_change"}, {"time": 1516, "annotation": {"number": 64, "value": 127}, "group": "control_change"}, {"time": 1526, "annotation": {"number": 64, "value": 0}, "group": "control_change"}, {"time": 1529, "annotation": {"number": 64, "value": 127}, "group": "control_change"}, {"time": 1531, "annotation": {"number": 64, "value": 0}, "group": "control_change"}, {"time": 1532, "annotation": {"number": 64, "value": 127}, "group": "control_change"}, {"time": 1550, "annotation": {"number": 64, "value": 0}, "group": "control_change"}, {"time": 1552, "annotation": {"number": 64, "value": 127}, "group": "control_change"}, {"time": 1563, "annotation": {"number": 64, "value": 0}, "group": "control_change"}, {"time": 1565, "annotation": {"number": 64, "value": 127}, "group": "control_change"}, {"time": 1574, "annotation": {"number": 64, "value": 0}, "group": "control_change"}, {"time": 1576, "annotation": {"number": 64, "value": 127}, "group": "control_change"}, {"time": 1598, "annotation": {"number": 64, "value": 0}, "group": "control_change"}, {"time": 1600, "annotation": {"number": 64, "value": 127}, "group": "control_change"}, {"time": 1622, "annotation": {"number": 64, "value": 0}, "group": "control_change"}, {"time": 1624, "annotation": {"number": 64, "value": 127}, "group": "control_change"}, {"time": 1626, "annotation": {"number": 64, "value": 0}, "group": "control_change"}, {"time": 1628, "annotation": {"number": 64, "value": 127}, "group": "control_change"}, {"time": 1646, "annotation": {"number": 64, "value": 0}, "group": "control_change"}, {"time": 1648, "annotation": {"number": 64, "value": 127}, "group": "control_change"}, {"time": 1650, "annotation": {"number": 64, "value": 0}, "group": "control_change"}, {"time": 1652, "annotation": {"number": 64, "value": 127}, "group": "control_change"}, {"time": 1670, "annotation": {"number": 64, "value": 0}, "group": "control_change"}, {"time": 1672, "annotation": {"number": 64, "value": 127}, "group": "control_change"}, {"time": 1674, "annotation": {"number": 64, "value": 0}, "group": "control_change"}, {"time": 1676, "annotation": {"number": 64, "value": 127}, "group": "control_change"}, {"time": 1694, "annotation": {"number": 64, "value": 0}, "group": "control_change"}, {"time": 1696, "annotation": {"number": 64, "value": 127}, "group": "control_change"}, {"time": 1699, "annotation": {"number": 64, "value": 0}, "group": "control_change"}, {"time": 1699, "annotation": {"number": 64, "value": 127}, "group": "control_change"}, {"time": 1707, "annotation": {"number": 64, "value": 0}, "group": "control_change"}, {"time": 1709, "annotation": {"number": 64, "value": 127}, "group": "control_change"}, {"time": 1718, "annotation": {"number": 64, "value": 0}, "group": "control_change"}, {"time": 1720, "annotation": {"number": 64, "value": 127}, "group": "control_change"}, {"time": 1742, "annotation": {"number": 64, "value": 0}, "group": "control_change"}, {"time": 1744, "annotation": {"number": 64, "value": 127}, "group": "control_change"}, {"time": 1747, "annotation": {"number": 64, "value": 0}, "group": "control_change"}, {"time": 1748, "annotation": {"number": 64, "value": 127}, "group": "control_change"}, {"time": 1755, "annotation": {"number": 64, "value": 0}, "group": "control_change"}, {"time": 1757, "annotation": {"number": 64, "value": 127}, "group": "control_change"}, {"time": 1759, "annotation": {"number": 64, "value": 0}, "group": "control_change"}, {"time": 1760, "annotation": {"number": 64, "value": 127}, "group": "control_change"}, {"time": 1766, "annotation": {"number": 64, "value": 0}, "group": "control_change"}, {"time": 1768, "annotation": {"number": 64, "value": 127}, "group": "control_change"}, {"time": 1771, "annotation": {"number": 64, "value": 0}, "group": "control_change"}, {"time": 1772, "annotation": {"number": 64, "value": 127}, "group": "control_change"}, {"time": 1790, "annotation": {"number": 64, "value": 0}, "group": "control_change"}, {"time": 1792, "annotation": {"number": 64, "value": 127}, "group": "control_change"}, {"time": 1794, "annotation": {"number": 64, "value": 0}, "group": "control_change"}, {"time": 1795, "annotation": {"number": 64, "value": 127}, "group": "control_change"}, {"time": 1814, "annotation": {"number": 64, "value": 0}, "group": "control_change"}, {"time": 1816, "annotation": {"number": 64, "value": 127}, "group": "control_change"}, {"time": 1819, "annotation": {"number": 64, "value": 0}, "group": "control_change"}, {"time": 1819, "annotation": {"number": 64, "value": 127}, "group": "control_change"}, {"time": 1838, "annotation": {"number": 64, "value": 0}, "group": "control_change"}, {"time": 1840, "annotation": {"number": 64, "value": 127}, "group": "control_change"}, {"time": 1843, "annotation": {"number": 64, "value": 0}, "group": "control_change"}, {"time": 1844, "annotation": {"number": 64, "value": 127}, "group": "control_change"}, {"time": 1862, "annotation": {"number": 64, "value": 0}, "group": "control_change"}, {"time": 1865, "annotation": {"number": 64, "value": 127}, "group": "control_change"}, {"time": 1884, "annotation": {"number": 64, "value": 0}, "group": "control_change"}, {"time": 1890, "annotation": {"number": 64, "value": 127}, "group": "control_change"}, {"time": 1909, "annotation": {"number": 64, "value": 0}, "group": "control_change"}, {"time": 1914, "annotation": {"number": 64, "value": 127}, "group": "control_change"}, {"time": 1922, "annotation": {"number": 64, "value": 0}, "group": "control_change"}, {"time": 1926, "annotation": {"number": 64, "value": 127}, "group": "control_change"}, {"time": 1933, "annotation": {"number": 64, "value": 0}, "group": "control_change"}, {"time": 1961, "annotation": {"number": 64, "value": 127}, "group": "control_change"}, {"time": 1981, "annotation": {"number": 64, "value": 0}, "group": "control_change"}, {"time": 1985, "annotation": {"number": 64, "value": 127}, "group": "control_change"}, {"time": 2005, "annotation": {"number": 64, "value": 0}, "group": "control_change"}, {"time": 2009, "annotation": {"number": 64, "value": 127}, "group": "control_change"}, {"time": 2029, "annotation": {"number": 64, "value": 0}, "group": "control_change"}, {"time": 2033, "annotation": {"number": 64, "value": 127}, "group": "control_change"}, {"time": 2052, "annotation": {"number": 64, "value": 0}, "group": "control_change"}, {"time": 2058, "annotation": {"number": 64, "value": 127}, "group": "control_change"}, {"time": 2061, "annotation": {"number": 64, "value": 0}, "group": "control_change"}, {"time": 2061, "annotation": {"number": 64, "value": 127}, "group": "control_change"}, {"time": 2062, "annotation": {"number": 64, "value": 0}, "group": "control_change"}, {"time": 2081, "annotation": {"number": 64, "value": 127}, "group": "control_change"}, {"time": 2090, "annotation": {"number": 64, "value": 0}, "group": "control_change"}, {"time": 2094, "annotation": {"number": 64, "value": 127}, "group": "control_change"}, {"time": 2102, "annotation": {"number": 64, "value": 0}, "group": "control_change"}, {"time": 2106, "annotation": {"number": 64, "value": 127}, "group": "control_change"}, {"time": 2124, "annotation": {"number": 64, "value": 0}, "group": "control_change"}, {"time": 2130, "annotation": {"number": 64, "value": 127}, "group": "control_change"}, {"time": 2136, "annotation": {"number": 64, "value": 0}, "group": "control_change"}, {"time": 2142, "annotation": {"number": 64, "value": 127}, "group": "control_change"}, {"time": 2150, "annotation": {"number": 64, "value": 0}, "group": "control_change"}, {"time": 2153, "annotation": {"number": 64, "value": 127}, "group": "control_change"}, {"time": 2173, "annotation": {"number": 64, "value": 0}, "group": "control_change"}, {"time": 2177, "annotation": {"number": 64, "value": 127}, "group": "control_change"}, {"time": 2197, "annotation": {"number": 64, "value": 0}, "group": "control_change"}, {"time": 2201, "annotation": {"number": 64, "value": 127}, "group": "control_change"}, {"time": 2220, "annotation": {"number": 64, "value": 0}, "group": "control_change"}, {"time": 2225, "annotation": {"number": 64, "value": 127}, "group": "control_change"}, {"time": 2244, "annotation": {"number": 64, "value": 0}, "group": "control_change"}, {"time": 2274, "annotation": {"number": 64, "value": 127}, "group": "control_change"}, {"time": 2293, "annotation": {"number": 64, "value": 0}, "group": "control_change"}, {"time": 2295, "annotation": {"number": 64, "value": 127}, "group": "control_change"}, {"time": 2318, "annotation": {"number": 64, "value": 0}, "group": "control_change"}, {"time": 2332, "annotation": {"number": 64, "value": 127}, "group": "control_change"}, {"time": 2338, "annotation": {"number": 64, "value": 127}, "group": "control_change"}, {"time": 2341, "annotation": {"number": 64, "value": 0}, "group": "control_change"}, {"time": 2369, "annotation": {"number": 64, "value": 127}, "group": "control_change"}, {"time": 2379, "annotation": {"number": 64, "value": 0}, "group": "control_change"}, {"time": 2382, "annotation": {"number": 64, "value": 127}, "group": "control_change"}, {"time": 2390, "annotation": {"number": 64, "value": 0}, "group": "control_change"}, {"time": 2394, "annotation": {"number": 64, "value": 127}, "group": "control_change"}, {"time": 2413, "annotation": {"number": 64, "value": 0}, "group": "control_change"}, {"time": 2420, "annotation": {"number": 64, "value": 127}, "group": "control_change"}, {"time": 2437, "annotation": {"number": 64, "value": 0}, "group": "control_change"}, {"time": 2462, "annotation": {"number": 64, "value": 127}, "group": "control_change"}, {"time": 2464, "annotation": {"number": 64, "value": 0}, "group": "control_change"}, {"time": 2515, "annotation": {"number": 64, "value": 127}, "group": "control_change"}, {"time": 2519, "annotation": {"number": 64, "value": 0}, "group": "control_change"}, {"time": 2536, "annotation": {"number": 64, "value": 127}, "group": "control_change"}, {"time": 2538, "annotation": {"number": 64, "value": 0}, "group": "control_change"}, {"time": 2580, "annotation": {"number": 64, "value": 127}, "group": "control_change"}, {"time": 2581, "annotation": {"number": 64, "value": 0}, "group": "control_change"}, {"time": 2607, "annotation": {"number": 64, "value": 127}, "group": "control_change"}, {"time": 2609, "annotation": {"number": 64, "value": 0}, "group": "control_change"}, {"time": 2705, "annotation": {"number": 64, "value": 127}, "group": "control_change"}, {"time": 2726, "annotation": {"number": 64, "value": 0}, "group": "control_change"}, {"time": 2728, "annotation": {"number": 64, "value": 127}, "group": "control_change"}, {"time": 2731, "annotation": {"number": 64, "value": 0}, "group": "control_change"}, {"time": 2732, "annotation": {"number": 64, "value": 127}, "group": "control_change"}, {"time": 2750, "annotation": {"number": 64, "value": 0}, "group": "control_change"}, {"time": 2752, "annotation": {"number": 64, "value": 127}, "group": "control_change"}, {"time": 2754, "annotation": {"number": 64, "value": 0}, "group": "control_change"}, {"time": 2755, "annotation": {"number": 64, "value": 127}, "group": "control_change"}, {"time": 2774, "annotation": {"number": 64, "value": 0}, "group": "control_change"}, {"time": 2801, "annotation": {"number": 64, "value": 127}, "group": "control_change"}, {"time": 2822, "annotation": {"number": 64, "value": 0}, "group": "control_change"}, {"time": 2824, "annotation": {"number": 64, "value": 127}, "group": "control_change"}, {"time": 2827, "annotation": {"number": 64, "value": 0}, "group": "control_change"}, {"time": 2828, "annotation": {"number": 64, "value": 127}, "group": "control_change"}, {"time": 2844, "annotation": {"number": 64, "value": 0}, "group": "control_change"}, {"time": 2849, "annotation": {"number": 64, "value": 127}, "group": "control_change"}, {"time": 2870, "annotation": {"number": 64, "value": 0}, "group": "control_change"}]}]}